0, 0, Header, 1, 21, 480
1, 0, Start_track
1, 0, Title_t, "untitled"
1, 0, Time_signature, 4, 2, 24, 8
1, 0, Key_signature, -2, "major"
1, 0, Tempo, 1714286
1, 0, Marker_t, "K.242 2nd Movement, Adagio"
1, 116170, Tempo, 1657459
1, 116638, Tempo, 1846154
1, 117118, Tempo, 2325581
1, 117120, Marker_t, "Cadenza"
1, 117598, Tempo, 1904762
1, 118130, Tempo, 491803
1, 119030, Tempo, 1666667
1, 119310, Tempo, 1714286
1, 119510, Tempo, 1643836
1, 119770, Tempo, 1690141
1, 120010, Tempo, 1666667
1, 120210, Tempo, 1690141
1, 120490, Tempo, 1739130
1, 121910, Tempo, 1764706
1, 122410, Tempo, 1769912
1, 122830, Tempo, 1714286
1, 123834, Tempo, 1780415
1, 124320, Tempo, 1734104
1, 125274, Tempo, 1775148
1, 125770, Tempo, 1675978
1, 126250, Tempo, 1719198
1, 126754, Tempo, 1869159
1, 127210, Tempo, 1818182
1, 127690, Tempo, 1709402
1, 128160, Tempo, 1764706
1, 128640, Tempo, 1685393
1, 129132, Tempo, 1739130
1, 129584, Tempo, 1666667
1, 130064, Tempo, 1759531
1, 130572, Tempo, 1699717
1, 131052, Tempo, 1764706
1, 131492, Tempo, 1675978
1, 131984, Tempo, 1729107
1, 132452, Tempo, 1675978
1, 132572, Tempo, 1578947
1, 132720, Tempo, 1463415
1, 132864, Tempo, 1318681
1, 132960, Tempo, 1212121
1, 133064, Tempo, 1121495
1, 133200, Tempo, 1090909
1, 133344, Tempo, 1052632
1, 133452, Tempo, 1025641
1, 134160, Tempo, 1200000
1, 134240, Tempo, 2000000
1, 134384, Tempo, 1818182
1, 134880, Tempo, 1935484
1, 135344, Tempo, 1886792
1, 135812, Tempo, 2006689
1, 136292, Tempo, 1898734
1, 136772, Tempo, 1973684
1, 137264, Tempo, 1857585
1, 137760, Tempo, 1935484
1, 138240, Tempo, 1791045
1, 138732, Tempo, 3243243
1, 138944, Tempo, 2500000
1, 139962, Tempo, 1796407
1, 140087, Tempo, 1415094
1, 140180, Tempo, 606061
1, 140180, End_track
2, 0, Start_track
2, 0, Title_t, "Oboi I & II"
2, 0, Control_c, 0, 0, 0
2, 0, Control_c, 0, 7, 90
2, 0, Control_c, 0, 10, 40
2, 0, Control_c, 0, 91, 70
2, 0, Control_c, 0, 93, 70
2, 1, Control_c, 0, 32, 1
2, 2, Program_c, 0, 68
2, 1920, Note_on_c, 0, 72, 80
2, 1920, Note_on_c, 0, 69, 80
2, 2040, Note_on_c, 0, 75, 88
2, 2040, Note_on_c, 0, 72, 88
2, 2076, Note_on_c, 0, 69, 0
2, 2076, Note_on_c, 0, 72, 0
2, 2160, Note_on_c, 0, 74, 88
2, 2160, Note_on_c, 0, 70, 88
2, 2196, Note_on_c, 0, 75, 0
2, 2196, Note_on_c, 0, 72, 0
2, 2280, Note_on_c, 0, 72, 88
2, 2280, Note_on_c, 0, 69, 88
2, 2316, Note_on_c, 0, 74, 0
2, 2316, Note_on_c, 0, 70, 0
2, 2400, Note_on_c, 0, 72, 0
2, 2400, Note_on_c, 0, 69, 0
2, 2400, Note_on_c, 0, 79, 88
2, 2400, Note_on_c, 0, 75, 88
2, 2520, Note_on_c, 0, 77, 76
2, 2520, Note_on_c, 0, 74, 76
2, 2543, Note_on_c, 0, 74, 0
2, 2556, Note_on_c, 0, 79, 0
2, 2556, Note_on_c, 0, 75, 0
2, 2567, Note_on_c, 0, 77, 0
2, 2640, Note_on_c, 0, 77, 88
2, 2640, Note_on_c, 0, 74, 88
2, 2760, Note_on_c, 0, 75, 76
2, 2760, Note_on_c, 0, 72, 76
2, 2783, Note_on_c, 0, 72, 0
2, 2796, Note_on_c, 0, 77, 0
2, 2796, Note_on_c, 0, 74, 0
2, 2807, Note_on_c, 0, 75, 0
2, 2880, Note_on_c, 0, 75, 88
2, 2880, Note_on_c, 0, 72, 88
2, 3000, Note_on_c, 0, 74, 74
2, 3000, Note_on_c, 0, 70, 74
2, 3023, Note_on_c, 0, 70, 0
2, 3036, Note_on_c, 0, 75, 0
2, 3036, Note_on_c, 0, 72, 0
2, 3047, Note_on_c, 0, 74, 0
2, 3120, Note_on_c, 0, 79, 88
2, 3120, Note_on_c, 0, 75, 88
2, 3240, Note_on_c, 0, 77, 73
2, 3240, Note_on_c, 0, 74, 73
2, 3263, Note_on_c, 0, 74, 0
2, 3276, Note_on_c, 0, 79, 0
2, 3276, Note_on_c, 0, 75, 0
2, 3287, Note_on_c, 0, 77, 0
2, 3360, Note_on_c, 0, 77, 83
2, 3360, Note_on_c, 0, 74, 83
2, 3840, Note_on_c, 0, 74, 0
2, 3840, Note_on_c, 0, 77, 0
2, 4920, Note_on_c, 0, 65, 63
2, 4920, Note_on_c, 0, 62, 63
2, 5028, Note_on_c, 0, 62, 0
2, 5028, Note_on_c, 0, 65, 0
2, 5040, Note_on_c, 0, 65, 67
2, 5040, Note_on_c, 0, 62, 67
2, 5148, Note_on_c, 0, 62, 0
2, 5148, Note_on_c, 0, 65, 0
2, 5160, Note_on_c, 0, 65, 67
2, 5160, Note_on_c, 0, 62, 67
2, 5268, Note_on_c, 0, 62, 0
2, 5268, Note_on_c, 0, 65, 0
2, 5280, Note_on_c, 0, 70, 85
2, 5280, Note_on_c, 0, 62, 85
2, 5520, Note_on_c, 0, 62, 0
2, 5520, Note_on_c, 0, 70, 0
2, 6360, Note_on_c, 0, 74, 62
2, 6360, Note_on_c, 0, 71, 62
2, 6480, Note_on_c, 0, 75, 62
2, 6480, Note_on_c, 0, 72, 62
2, 6516, Note_on_c, 0, 71, 0
2, 6516, Note_on_c, 0, 74, 0
2, 6600, Note_on_c, 0, 77, 59
2, 6600, Note_on_c, 0, 74, 59
2, 6623, Note_on_c, 0, 74, 0
2, 6636, Note_on_c, 0, 72, 0
2, 6636, Note_on_c, 0, 75, 0
2, 6647, Note_on_c, 0, 77, 0
2, 6720, Note_on_c, 0, 77, 62
2, 6720, Note_on_c, 0, 74, 62
2, 6840, Note_on_c, 0, 75, 52
2, 6840, Note_on_c, 0, 72, 52
2, 6863, Note_on_c, 0, 72, 0
2, 6876, Note_on_c, 0, 77, 0
2, 6876, Note_on_c, 0, 74, 0
2, 6887, Note_on_c, 0, 75, 0
2, 6960, Note_on_c, 0, 75, 62
2, 6960, Note_on_c, 0, 72, 62
2, 7200, Note_on_c, 0, 72, 0
2, 7200, Note_on_c, 0, 75, 0
2, 7680, Note_on_c, 0, 79, 76
2, 7680, Note_on_c, 0, 67, 76
2, 8160, Note_on_c, 0, 67, 0
2, 8160, Note_on_c, 0, 79, 0
2, 8400, Note_on_c, 0, 79, 82
2, 8400, Note_on_c, 0, 72, 82
2, 8520, Note_on_c, 0, 84, 82
2, 8520, Note_on_c, 0, 75, 82
2, 8543, Note_on_c, 0, 75, 0
2, 8556, Note_on_c, 0, 79, 0
2, 8556, Note_on_c, 0, 72, 0
2, 8567, Note_on_c, 0, 84, 0
2, 8640, Note_on_c, 0, 82, 82
2, 8640, Note_on_c, 0, 74, 82
2, 9120, Note_on_c, 0, 81, 74
2, 9120, Note_on_c, 0, 72, 74
2, 9160, Note_on_c, 0, 74, 0
2, 9160, Note_on_c, 0, 82, 0
2, 9167, Note_on_c, 0, 72, 0
2, 9216, Note_on_c, 0, 81, 0
2, 10560, Note_on_c, 0, 70, 61
2, 10560, Note_on_c, 0, 65, 61
2, 10800, Note_on_c, 0, 74, 75
2, 10800, Note_on_c, 0, 70, 75
2, 10840, Note_on_c, 0, 65, 0
2, 10840, Note_on_c, 0, 70, 0
2, 10960, Note_on_c, 0, 74, 0
2, 10960, Note_on_c, 0, 70, 0
2, 11040, Note_on_c, 0, 69, 67
2, 11040, Note_on_c, 0, 72, 67
2, 11040, Note_on_c, 0, 69, 67
2, 11280, Note_on_c, 0, 69, 0
2, 11280, Note_on_c, 0, 72, 0
2, 11280, Note_on_c, 0, 69, 0
2, 12480, Note_on_c, 0, 70, 65
2, 12480, Note_on_c, 0, 65, 65
2, 12720, Note_on_c, 0, 74, 71
2, 12720, Note_on_c, 0, 70, 71
2, 12740, Note_on_c, 0, 65, 0
2, 12760, Note_on_c, 0, 70, 0
2, 12920, Note_on_c, 0, 74, 0
2, 12920, Note_on_c, 0, 70, 0
2, 12960, Note_on_c, 0, 72, 70
2, 12960, Note_on_c, 0, 69, 70
2, 13200, Note_on_c, 0, 69, 0
2, 13200, Note_on_c, 0, 72, 0
2, 14880, Note_on_c, 0, 78, 91
2, 14880, Note_on_c, 0, 74, 91
2, 15000, Note_on_c, 0, 79, 81
2, 15000, Note_on_c, 0, 75, 81
2, 15020, Note_on_c, 0, 78, 0
2, 15032, Note_on_c, 0, 74, 0
2, 15048, Note_on_c, 0, 79, 0
2, 15064, Note_on_c, 0, 75, 0
2, 15120, Note_on_c, 0, 79, 90
2, 15120, Note_on_c, 0, 75, 90
2, 15200, Note_on_c, 0, 75, 0
2, 15200, Note_on_c, 0, 79, 0
2, 17520, Note_on_c, 0, 79, 77
2, 17520, Note_on_c, 0, 67, 77
2, 17600, Note_on_c, 0, 67, 0
2, 17600, Note_on_c, 0, 79, 0
2, 17760, Note_on_c, 0, 74, 88
2, 17760, Note_on_c, 0, 70, 88
2, 18000, Note_on_c, 0, 72, 74
2, 18000, Note_on_c, 0, 69, 74
2, 18040, Note_on_c, 0, 70, 0
2, 18040, Note_on_c, 0, 74, 0
2, 18120, Note_on_c, 0, 72, 0
2, 18128, Note_on_c, 0, 69, 0
2, 20640, Note_on_c, 0, 77, 92
2, 20640, Note_on_c, 0, 74, 92
2, 20700, Note_on_c, 0, 79, 96
2, 20700, Note_on_c, 0, 75, 96
2, 20718, Note_on_c, 0, 74, 0
2, 20718, Note_on_c, 0, 77, 0
2, 20760, Note_on_c, 0, 77, 90
2, 20760, Note_on_c, 0, 74, 90
2, 20778, Note_on_c, 0, 79, 0
2, 20778, Note_on_c, 0, 75, 0
2, 20820, Note_on_c, 0, 75, 85
2, 20820, Note_on_c, 0, 72, 85
2, 20835, Note_on_c, 0, 72, 0
2, 20838, Note_on_c, 0, 74, 0
2, 20838, Note_on_c, 0, 77, 0
2, 20843, Note_on_c, 0, 75, 0
2, 20880, Note_on_c, 0, 74, 91
2, 20880, Note_on_c, 0, 70, 91
2, 20940, Note_on_c, 0, 75, 100
2, 20940, Note_on_c, 0, 72, 100
2, 20958, Note_on_c, 0, 70, 0
2, 20958, Note_on_c, 0, 74, 0
2, 21000, Note_on_c, 0, 74, 89
2, 21000, Note_on_c, 0, 70, 89
2, 21018, Note_on_c, 0, 75, 0
2, 21018, Note_on_c, 0, 72, 0
2, 21060, Note_on_c, 0, 72, 88
2, 21060, Note_on_c, 0, 69, 88
2, 21075, Note_on_c, 0, 69, 0
2, 21078, Note_on_c, 0, 70, 0
2, 21078, Note_on_c, 0, 74, 0
2, 21083, Note_on_c, 0, 72, 0
2, 21120, Note_on_c, 0, 70, 88
2, 21318, Control_c, 0, 7, 85
2, 21318, Control_c, 0, 7, 85
2, 21320, Note_on_c, 0, 70, 0
2, 21322, Control_c, 0, 7, 86
2, 21322, Control_c, 0, 7, 86
2, 21338, Control_c, 0, 7, 88
2, 21338, Control_c, 0, 7, 88
2, 21360, Note_on_c, 0, 77, 98
2, 21362, Control_c, 0, 7, 89
2, 21362, Control_c, 0, 7, 89
2, 21370, Control_c, 0, 7, 91
2, 21370, Control_c, 0, 7, 91
2, 21378, Control_c, 0, 7, 93
2, 21378, Control_c, 0, 7, 93
2, 21398, Control_c, 0, 7, 94
2, 21398, Control_c, 0, 7, 94
2, 21498, Control_c, 0, 7, 93
2, 21498, Control_c, 0, 7, 93
2, 21518, Control_c, 0, 7, 91
2, 21518, Control_c, 0, 7, 91
2, 21534, Control_c, 0, 7, 89
2, 21534, Control_c, 0, 7, 89
2, 21570, Control_c, 0, 7, 88
2, 21570, Control_c, 0, 7, 88
2, 21618, Control_c, 0, 7, 86
2, 21618, Control_c, 0, 7, 86
2, 21722, Control_c, 0, 7, 84
2, 21722, Control_c, 0, 7, 84
2, 21770, Control_c, 0, 7, 82
2, 21770, Control_c, 0, 7, 82
2, 21818, Control_c, 0, 7, 81
2, 21818, Control_c, 0, 7, 81
2, 21840, Note_on_c, 0, 81, 85
2, 21840, Note_on_c, 0, 75, 85
2, 21850, Control_c, 0, 7, 79
2, 21850, Control_c, 0, 7, 79
2, 21858, Control_c, 0, 7, 77
2, 21858, Control_c, 0, 7, 77
2, 21870, Control_c, 0, 7, 75
2, 21870, Control_c, 0, 7, 75
2, 21880, Note_on_c, 0, 77, 0
2, 21890, Control_c, 0, 7, 74
2, 21890, Control_c, 0, 7, 74
2, 21898, Control_c, 0, 7, 70
2, 21898, Control_c, 0, 7, 70
2, 21910, Control_c, 0, 7, 68
2, 21910, Control_c, 0, 7, 68
2, 21930, Control_c, 0, 7, 67
2, 21930, Control_c, 0, 7, 67
2, 22040, Note_on_c, 0, 75, 0
2, 22040, Note_on_c, 0, 81, 0
2, 22070, Control_c, 0, 7, 82
2, 22070, Control_c, 0, 7, 82
2, 22080, Note_on_c, 0, 81, 93
2, 22080, Note_on_c, 0, 75, 93
2, 22090, Control_c, 0, 7, 83
2, 22090, Control_c, 0, 7, 83
2, 22098, Control_c, 0, 7, 85
2, 22098, Control_c, 0, 7, 85
2, 22118, Control_c, 0, 7, 87
2, 22118, Control_c, 0, 7, 87
2, 22134, Control_c, 0, 7, 88
2, 22134, Control_c, 0, 7, 88
2, 22162, Control_c, 0, 7, 90
2, 22162, Control_c, 0, 7, 90
2, 22254, Control_c, 0, 7, 89
2, 22254, Control_c, 0, 7, 89
2, 22290, Control_c, 0, 7, 88
2, 22290, Control_c, 0, 7, 88
2, 22310, Control_c, 0, 7, 86
2, 22310, Control_c, 0, 7, 86
2, 22338, Control_c, 0, 7, 84
2, 22338, Control_c, 0, 7, 84
2, 22346, Control_c, 0, 7, 83
2, 22346, Control_c, 0, 7, 83
2, 22350, Control_c, 0, 7, 82
2, 22350, Control_c, 0, 7, 82
2, 22374, Control_c, 0, 7, 80
2, 22374, Control_c, 0, 7, 80
2, 22390, Control_c, 0, 7, 78
2, 22390, Control_c, 0, 7, 78
2, 22402, Control_c, 0, 7, 76
2, 22402, Control_c, 0, 7, 76
2, 22478, Control_c, 0, 7, 74
2, 22478, Control_c, 0, 7, 74
2, 22494, Control_c, 0, 7, 72
2, 22494, Control_c, 0, 7, 72
2, 22522, Control_c, 0, 7, 70
2, 22522, Control_c, 0, 7, 70
2, 22560, Note_on_c, 0, 82, 72
2, 22560, Note_on_c, 0, 74, 72
2, 22562, Control_c, 0, 7, 69
2, 22562, Control_c, 0, 7, 69
2, 22600, Note_on_c, 0, 75, 0
2, 22600, Note_on_c, 0, 81, 0
2, 22602, Control_c, 0, 7, 67
2, 22602, Control_c, 0, 7, 67
2, 22630, Control_c, 0, 7, 64
2, 22630, Control_c, 0, 7, 64
2, 22694, Control_c, 0, 7, 63
2, 22694, Control_c, 0, 7, 63
2, 22698, Control_c, 0, 7, 59
2, 22698, Control_c, 0, 7, 59
2, 22700, Note_on_c, 0, 82, 0
2, 22700, Note_on_c, 0, 74, 0
2, 22710, Control_c, 0, 7, 56
2, 22710, Control_c, 0, 7, 56
2, 22722, Control_c, 0, 7, 54
2, 22722, Control_c, 0, 7, 54
2, 22738, Control_c, 0, 7, 52
2, 22738, Control_c, 0, 7, 52
2, 22750, Control_c, 0, 7, 51
2, 22750, Control_c, 0, 7, 51
2, 22762, Control_c, 0, 7, 49
2, 22762, Control_c, 0, 7, 49
2, 22774, Control_c, 0, 7, 45
2, 22774, Control_c, 0, 7, 45
2, 22786, Control_c, 0, 7, 44
2, 22786, Control_c, 0, 7, 44
2, 22790, Control_c, 0, 7, 42
2, 22790, Control_c, 0, 7, 42
2, 23218, Control_c, 0, 7, 85
2, 23218, Control_c, 0, 7, 85
2, 34560, Note_on_c, 0, 72, 58
2, 37920, Note_on_c, 0, 72, 0
2, 45120, Note_on_c, 0, 77, 71
2, 45120, Note_on_c, 0, 72, 71
2, 45360, Note_on_c, 0, 81, 87
2, 45360, Note_on_c, 0, 77, 87
2, 45400, Note_on_c, 0, 77, 0
2, 45410, Note_on_c, 0, 72, 0
2, 45600, Note_on_c, 0, 79, 72
2, 45600, Note_on_c, 0, 76, 72
2, 45638, Note_on_c, 0, 81, 0
2, 45646, Note_on_c, 0, 77, 0
2, 45726, Note_on_c, 0, 76, 0
2, 45730, Note_on_c, 0, 79, 0
2, 58080, Note_on_c, 0, 81, 50
2, 58080, Note_on_c, 0, 77, 50
2, 58560, Note_on_c, 0, 82, 49
2, 58560, Note_on_c, 0, 76, 49
2, 58600, Note_on_c, 0, 77, 0
2, 58600, Note_on_c, 0, 81, 0
2, 59018, Note_on_c, 0, 76, 0
2, 59040, Note_on_c, 0, 76, 58
2, 59040, Note_on_c, 0, 70, 58
2, 59080, Note_on_c, 0, 82, 0
2, 59480, Note_on_c, 0, 70, 0
2, 59480, Note_on_c, 0, 76, 0
2, 59520, Note_on_c, 0, 77, 100
2, 59520, Note_on_c, 0, 69, 100
2, 60000, Note_on_c, 0, 69, 0
2, 60000, Note_on_c, 0, 77, 0
2, 60480, Note_on_c, 0, 74, 88
2, 60480, Note_on_c, 0, 70, 88
2, 60960, Note_on_c, 0, 70, 0
2, 60960, Note_on_c, 0, 74, 0
2, 61680, Note_on_c, 0, 77, 88
2, 61920, Note_on_c, 0, 79, 88
2, 61920, Note_on_c, 0, 74, 88
2, 61948, Note_on_c, 0, 77, 0
2, 62160, Note_on_c, 0, 76, 88
2, 62160, Note_on_c, 0, 72, 88
2, 62180, Note_on_c, 0, 79, 0
2, 62188, Note_on_c, 0, 74, 0
2, 62280, Note_on_c, 0, 70, 84
2, 62332, Note_on_c, 0, 72, 0
2, 62400, Note_on_c, 0, 77, 78
2, 62400, Note_on_c, 0, 69, 78
2, 62424, Note_on_c, 0, 76, 0
2, 62440, Note_on_c, 0, 70, 0
2, 62880, Note_on_c, 0, 77, 0
2, 62880, Note_on_c, 0, 69, 0
2, 66240, Note_on_c, 0, 84, 56
2, 66240, Note_on_c, 0, 81, 56
2, 68160, Note_on_c, 0, 81, 0
2, 68160, Note_on_c, 0, 84, 0
2, 68160, Note_on_c, 0, 86, 56
2, 68160, Note_on_c, 0, 82, 56
2, 69120, Note_on_c, 0, 82, 0
2, 69120, Note_on_c, 0, 86, 0
2, 69120, Note_on_c, 0, 81, 56
2, 69120, Note_on_c, 0, 78, 56
2, 70080, Note_on_c, 0, 78, 0
2, 70080, Note_on_c, 0, 81, 0
2, 70080, Note_on_c, 0, 82, 62
2, 70080, Note_on_c, 0, 79, 62
2, 71040, Note_on_c, 0, 79, 0
2, 71040, Note_on_c, 0, 82, 0
2, 71040, Note_on_c, 0, 79, 75
2, 71040, Note_on_c, 0, 73, 75
2, 72000, Note_on_c, 0, 73, 0
2, 72000, Note_on_c, 0, 79, 0
2, 72000, Note_on_c, 0, 78, 62
2, 72000, Note_on_c, 0, 74, 62
2, 72480, Note_on_c, 0, 81, 62
2, 72480, Note_on_c, 0, 78, 62
2, 72520, Note_on_c, 0, 74, 0
2, 72520, Note_on_c, 0, 78, 0
2, 72880, Note_on_c, 0, 81, 0
2, 72880, Note_on_c, 0, 78, 0
2, 72918, Control_c, 0, 7, 81
2, 72918, Control_c, 0, 7, 81
2, 72930, Control_c, 0, 7, 82
2, 72930, Control_c, 0, 7, 82
2, 72946, Control_c, 0, 7, 83
2, 72946, Control_c, 0, 7, 83
2, 72960, Note_on_c, 0, 85, 102
2, 72960, Note_on_c, 0, 79, 102
2, 72962, Control_c, 0, 7, 84
2, 72962, Control_c, 0, 7, 84
2, 72990, Control_c, 0, 7, 83
2, 72990, Control_c, 0, 7, 83
2, 73010, Control_c, 0, 7, 81
2, 73010, Control_c, 0, 7, 81
2, 73018, Control_c, 0, 7, 79
2, 73018, Control_c, 0, 7, 79
2, 73030, Control_c, 0, 7, 77
2, 73030, Control_c, 0, 7, 77
2, 73042, Control_c, 0, 7, 75
2, 73042, Control_c, 0, 7, 75
2, 73066, Control_c, 0, 7, 73
2, 73066, Control_c, 0, 7, 73
2, 73078, Control_c, 0, 7, 71
2, 73078, Control_c, 0, 7, 71
2, 73082, Control_c, 0, 7, 70
2, 73082, Control_c, 0, 7, 70
2, 73094, Control_c, 0, 7, 68
2, 73094, Control_c, 0, 7, 68
2, 73110, Control_c, 0, 7, 66
2, 73110, Control_c, 0, 7, 66
2, 73122, Control_c, 0, 7, 65
2, 73122, Control_c, 0, 7, 65
2, 73134, Control_c, 0, 7, 63
2, 73134, Control_c, 0, 7, 63
2, 73150, Control_c, 0, 7, 61
2, 73150, Control_c, 0, 7, 61
2, 73158, Control_c, 0, 7, 60
2, 73158, Control_c, 0, 7, 60
2, 73170, Control_c, 0, 7, 59
2, 73170, Control_c, 0, 7, 59
2, 73186, Control_c, 0, 7, 57
2, 73186, Control_c, 0, 7, 57
2, 73920, Note_on_c, 0, 86, 100
2, 73920, Note_on_c, 0, 78, 100
2, 73960, Note_on_c, 0, 79, 0
2, 73960, Note_on_c, 0, 85, 0
2, 74038, Control_c, 0, 7, 67
2, 74038, Control_c, 0, 7, 67
2, 74070, Control_c, 0, 7, 66
2, 74070, Control_c, 0, 7, 66
2, 74090, Control_c, 0, 7, 65
2, 74090, Control_c, 0, 7, 65
2, 74098, Control_c, 0, 7, 63
2, 74098, Control_c, 0, 7, 63
2, 74110, Control_c, 0, 7, 61
2, 74110, Control_c, 0, 7, 61
2, 74122, Control_c, 0, 7, 58
2, 74122, Control_c, 0, 7, 58
2, 74134, Control_c, 0, 7, 54
2, 74134, Control_c, 0, 7, 54
2, 74138, Control_c, 0, 7, 48
2, 74138, Control_c, 0, 7, 48
2, 74150, Control_c, 0, 7, 47
2, 74150, Control_c, 0, 7, 47
2, 74160, Note_on_c, 0, 86, 0
2, 74160, Note_on_c, 0, 78, 0
2, 74162, Control_c, 0, 7, 39
2, 74162, Control_c, 0, 7, 39
2, 74174, Control_c, 0, 7, 38
2, 74174, Control_c, 0, 7, 38
2, 74510, Control_c, 0, 7, 85
2, 74510, Control_c, 0, 7, 85
2, 75360, Note_on_c, 0, 81, 76
2, 75360, Note_on_c, 0, 75, 76
2, 75840, Note_on_c, 0, 75, 0
2, 75840, Note_on_c, 0, 81, 0
2, 88320, Note_on_c, 0, 77, 62
2, 88320, Note_on_c, 0, 77, 62
2, 91680, Note_on_c, 0, 77, 0
2, 91680, Note_on_c, 0, 77, 0
2, 98880, Note_on_c, 0, 82, 62
2, 98880, Note_on_c, 0, 77, 62
2, 99120, Note_on_c, 0, 86, 74
2, 99120, Note_on_c, 0, 82, 74
2, 99160, Note_on_c, 0, 77, 0
2, 99160, Note_on_c, 0, 82, 0
2, 99320, Note_on_c, 0, 86, 0
2, 99320, Note_on_c, 0, 82, 0
2, 99360, Note_on_c, 0, 84, 57
2, 99360, Note_on_c, 0, 81, 57
2, 99456, Note_on_c, 0, 81, 0
2, 99456, Note_on_c, 0, 84, 0
2, 112320, Note_on_c, 0, 75, 62
2, 112320, Note_on_c, 0, 69, 62
2, 112800, Note_on_c, 0, 81, 76
2, 112800, Note_on_c, 0, 75, 76
2, 112840, Note_on_c, 0, 75, 0
2, 112880, Note_on_c, 0, 69, 0
2, 113200, Note_on_c, 0, 81, 0
2, 113200, Note_on_c, 0, 75, 0
2, 113280, Note_on_c, 0, 82, 77
2, 113280, Note_on_c, 0, 74, 77
2, 113400, Note_on_c, 0, 74, 0
2, 113400, Note_on_c, 0, 82, 0
2, 113400, Note_on_c, 0, 65, 79
2, 113400, Note_on_c, 0, 62, 79
2, 113520, Note_on_c, 0, 62, 0
2, 113520, Note_on_c, 0, 65, 0
2, 113520, Note_on_c, 0, 65, 81
2, 113520, Note_on_c, 0, 62, 81
2, 113640, Note_on_c, 0, 62, 0
2, 113640, Note_on_c, 0, 65, 0
2, 113640, Note_on_c, 0, 65, 81
2, 113640, Note_on_c, 0, 62, 81
2, 113760, Note_on_c, 0, 62, 0
2, 113760, Note_on_c, 0, 65, 0
2, 113760, Note_on_c, 0, 70, 78
2, 113760, Note_on_c, 0, 62, 78
2, 114000, Note_on_c, 0, 62, 0
2, 114000, Note_on_c, 0, 70, 0
2, 114840, Note_on_c, 0, 74, 62
2, 114840, Note_on_c, 0, 71, 62
2, 114960, Note_on_c, 0, 75, 62
2, 114960, Note_on_c, 0, 72, 62
2, 114996, Note_on_c, 0, 71, 0
2, 114996, Note_on_c, 0, 74, 0
2, 115080, Note_on_c, 0, 77, 62
2, 115080, Note_on_c, 0, 74, 62
2, 115103, Note_on_c, 0, 74, 0
2, 115116, Note_on_c, 0, 72, 0
2, 115116, Note_on_c, 0, 75, 0
2, 115127, Note_on_c, 0, 77, 0
2, 115200, Note_on_c, 0, 77, 62
2, 115200, Note_on_c, 0, 74, 62
2, 115320, Note_on_c, 0, 75, 62
2, 115320, Note_on_c, 0, 72, 62
2, 115343, Note_on_c, 0, 72, 0
2, 115356, Note_on_c, 0, 77, 0
2, 115356, Note_on_c, 0, 74, 0
2, 115367, Note_on_c, 0, 75, 0
2, 115440, Note_on_c, 0, 75, 62
2, 115440, Note_on_c, 0, 72, 62
2, 115487, Note_on_c, 0, 72, 0
2, 115536, Note_on_c, 0, 75, 0
2, 116160, Note_on_c, 0, 79, 88
2, 116160, Note_on_c, 0, 67, 88
2, 116880, Note_on_c, 0, 67, 0
2, 116880, Note_on_c, 0, 79, 0
2, 116880, Note_on_c, 0, 75, 88
2, 116880, Note_on_c, 0, 72, 88
2, 117120, Note_on_c, 0, 72, 0
2, 117120, Note_on_c, 0, 75, 0
2, 117120, Note_on_c, 0, 74, 88
2, 117120, Note_on_c, 0, 70, 88
2, 117600, Note_on_c, 0, 70, 0
2, 117600, Note_on_c, 0, 74, 0
2, 134384, Control_c, 0, 7, 87
2, 134400, Note_on_c, 0, 77, 88
2, 134400, Note_on_c, 0, 74, 88
2, 134428, Control_c, 0, 7, 84
2, 134440, Control_c, 0, 7, 81
2, 134452, Control_c, 0, 7, 80
2, 134456, Control_c, 0, 7, 77
2, 134460, Control_c, 0, 7, 70
2, 134472, Control_c, 0, 7, 67
2, 134484, Control_c, 0, 7, 58
2, 134512, Control_c, 0, 7, 54
2, 134880, Note_on_c, 0, 74, 0
2, 134880, Note_on_c, 0, 77, 0
2, 135020, Control_c, 0, 7, 91
2, 135340, Control_c, 0, 7, 91
2, 135360, Note_on_c, 0, 79, 88
2, 135360, Note_on_c, 0, 75, 88
2, 135384, Control_c, 0, 7, 88
2, 135396, Control_c, 0, 7, 87
2, 135400, Control_c, 0, 7, 86
2, 135412, Control_c, 0, 7, 84
2, 135424, Control_c, 0, 7, 80
2, 135436, Control_c, 0, 7, 73
2, 135448, Control_c, 0, 7, 70
2, 135452, Control_c, 0, 7, 68
2, 135468, Control_c, 0, 7, 66
2, 135472, Control_c, 0, 7, 63
2, 135484, Control_c, 0, 7, 60
2, 135496, Control_c, 0, 7, 57
2, 135500, Control_c, 0, 7, 56
2, 135516, Control_c, 0, 7, 53
2, 135540, Control_c, 0, 7, 50
2, 135576, Control_c, 0, 7, 49
2, 135840, Note_on_c, 0, 75, 0
2, 135840, Note_on_c, 0, 79, 0
2, 136072, Control_c, 0, 7, 85
2, 136072, Control_c, 0, 7, 85
2, 136320, Note_on_c, 0, 81, 88
2, 136320, Note_on_c, 0, 75, 88
2, 136560, Note_on_c, 0, 75, 0
2, 136560, Note_on_c, 0, 81, 0
2, 136560, Note_on_c, 0, 82, 88
2, 136560, Note_on_c, 0, 74, 88
2, 136800, Note_on_c, 0, 74, 0
2, 136800, Note_on_c, 0, 72, 88
2, 137040, Note_on_c, 0, 82, 0
2, 137040, Note_on_c, 0, 81, 88
2, 137280, Note_on_c, 0, 81, 0
2, 137280, Note_on_c, 0, 72, 0
2, 137280, Note_on_c, 0, 82, 88
2, 137280, Note_on_c, 0, 74, 88
2, 137520, Note_on_c, 0, 74, 0
2, 137520, Note_on_c, 0, 82, 0
2, 137520, Note_on_c, 0, 77, 75
2, 137520, Note_on_c, 0, 74, 75
2, 137760, Note_on_c, 0, 72, 75
2, 137760, Note_on_c, 0, 69, 75
2, 137800, Note_on_c, 0, 74, 0
2, 137800, Note_on_c, 0, 77, 0
2, 138000, Note_on_c, 0, 75, 75
2, 138000, Note_on_c, 0, 72, 75
2, 138040, Note_on_c, 0, 72, 0
2, 138040, Note_on_c, 0, 69, 0
2, 138200, Note_on_c, 0, 75, 0
2, 138200, Note_on_c, 0, 72, 0
2, 138240, Note_on_c, 0, 75, 75
2, 138240, Note_on_c, 0, 72, 75
2, 138720, Note_on_c, 0, 74, 69
2, 138720, Note_on_c, 0, 70, 69
2, 138760, Note_on_c, 0, 72, 0
2, 138760, Note_on_c, 0, 75, 0
2, 138800, Note_on_c, 0, 70, 0
2, 138816, Note_on_c, 0, 74, 0
2, 138816, End_track
3, 0, Start_track
3, 0, Title_t, "Corni in F"
3, 0, Control_c, 2, 0, 0
3, 0, Control_c, 2, 7, 100
3, 0, Control_c, 2, 10, 75
3, 0, Control_c, 2, 91, 82
3, 0, Control_c, 2, 93, 79
3, 1, Control_c, 2, 32, 1
3, 2, Program_c, 2, 60
3, 1920, Note_on_c, 2, 65, 75
3, 2388, Note_on_c, 2, 65, 0
3, 2400, Note_on_c, 2, 65, 76
3, 2640, Note_on_c, 2, 65, 0
3, 2640, Note_on_c, 2, 65, 77
3, 2880, Note_on_c, 2, 65, 0
3, 2880, Note_on_c, 2, 58, 78
3, 2880, Note_on_c, 2, 70, 78
3, 3360, Note_on_c, 2, 70, 0
3, 3360, Note_on_c, 2, 58, 0
3, 3480, Note_on_c, 2, 58, 80
3, 3600, Note_on_c, 2, 58, 0
3, 3600, Note_on_c, 2, 62, 80
3, 3720, Note_on_c, 2, 62, 0
3, 3720, Note_on_c, 2, 58, 80
3, 3840, Note_on_c, 2, 58, 0
3, 3840, Note_on_c, 2, 65, 80
3, 4320, Note_on_c, 2, 65, 0
3, 4920, Note_on_c, 2, 58, 68
3, 4920, Note_on_c, 2, 70, 68
3, 5040, Note_on_c, 2, 70, 0
3, 5040, Note_on_c, 2, 58, 0
3, 5040, Note_on_c, 2, 58, 72
3, 5040, Note_on_c, 2, 70, 72
3, 5160, Note_on_c, 2, 70, 0
3, 5160, Note_on_c, 2, 58, 0
3, 5160, Note_on_c, 2, 58, 81
3, 5160, Note_on_c, 2, 70, 81
3, 5280, Note_on_c, 2, 70, 0
3, 5280, Note_on_c, 2, 58, 0
3, 5280, Note_on_c, 2, 58, 86
3, 5280, Note_on_c, 2, 70, 86
3, 6240, Note_on_c, 2, 70, 0
3, 6240, Note_on_c, 2, 58, 0
3, 8760, Note_on_c, 2, 65, 78
3, 8880, Note_on_c, 2, 65, 0
3, 8880, Note_on_c, 2, 65, 77
3, 9000, Note_on_c, 2, 65, 0
3, 9000, Note_on_c, 2, 65, 77
3, 9120, Note_on_c, 2, 65, 0
3, 9120, Note_on_c, 2, 65, 76
3, 9360, Note_on_c, 2, 65, 0
3, 10560, Note_on_c, 2, 62, 73
3, 10560, Note_on_c, 2, 70, 73
3, 10800, Note_on_c, 2, 70, 0
3, 10800, Note_on_c, 2, 70, 78
3, 10800, Note_on_c, 2, 74, 78
3, 10858, Note_on_c, 2, 62, 0
3, 11040, Note_on_c, 2, 65, 75
3, 11040, Note_on_c, 2, 72, 75
3, 11078, Note_on_c, 2, 70, 0
3, 11094, Note_on_c, 2, 74, 0
3, 11280, Note_on_c, 2, 65, 0
3, 11280, Note_on_c, 2, 72, 0
3, 12480, Note_on_c, 2, 62, 75
3, 12480, Note_on_c, 2, 70, 75
3, 12720, Note_on_c, 2, 70, 0
3, 12720, Note_on_c, 2, 70, 80
3, 12720, Note_on_c, 2, 74, 80
3, 12786, Note_on_c, 2, 62, 0
3, 12960, Note_on_c, 2, 65, 74
3, 12960, Note_on_c, 2, 72, 74
3, 12998, Note_on_c, 2, 70, 0
3, 13018, Note_on_c, 2, 74, 0
3, 13200, Note_on_c, 2, 65, 0
3, 13200, Note_on_c, 2, 72, 0
3, 17760, Note_on_c, 2, 70, 75
3, 17760, Note_on_c, 2, 74, 75
3, 18000, Note_on_c, 2, 65, 62
3, 18000, Note_on_c, 2, 72, 62
3, 18028, Note_on_c, 2, 74, 0
3, 18036, Note_on_c, 2, 70, 0
3, 18088, Note_on_c, 2, 65, 0
3, 18088, Note_on_c, 2, 72, 0
3, 20640, Note_on_c, 2, 65, 88
3, 20850, Note_on_c, 2, 65, 0
3, 20880, Note_on_c, 2, 65, 88
3, 21098, Note_on_c, 2, 65, 0
3, 21120, Note_on_c, 2, 62, 88
3, 21120, Note_on_c, 2, 70, 88
3, 21360, Note_on_c, 2, 70, 0
3, 21360, Note_on_c, 2, 62, 0
3, 21840, Note_on_c, 2, 65, 75
3, 21840, Note_on_c, 2, 72, 75
3, 22010, Note_on_c, 2, 72, 0
3, 22030, Note_on_c, 2, 65, 0
3, 22080, Note_on_c, 2, 65, 90
3, 22080, Note_on_c, 2, 72, 90
3, 22560, Note_on_c, 2, 62, 60
3, 22560, Note_on_c, 2, 70, 60
3, 22606, Note_on_c, 2, 65, 0
3, 22618, Note_on_c, 2, 72, 0
3, 22700, Note_on_c, 2, 62, 0
3, 22700, Note_on_c, 2, 70, 0
3, 45120, Note_on_c, 2, 65, 77
3, 45600, Note_on_c, 2, 72, 70
3, 45658, Note_on_c, 2, 65, 0
3, 45758, Note_on_c, 2, 72, 0
3, 57600, Note_on_c, 2, 72, 88
3, 59520, Note_on_c, 2, 72, 0
3, 59520, Note_on_c, 2, 65, 94
3, 60000, Note_on_c, 2, 65, 0
3, 60480, Note_on_c, 2, 58, 88
3, 60480, Note_on_c, 2, 65, 88
3, 60960, Note_on_c, 2, 65, 0
3, 60960, Note_on_c, 2, 58, 0
3, 61680, Note_on_c, 2, 74, 88
3, 61920, Note_on_c, 2, 70, 88
3, 61960, Note_on_c, 2, 74, 0
3, 62160, Note_on_c, 2, 72, 88
3, 62184, Note_on_c, 2, 70, 0
3, 62400, Note_on_c, 2, 72, 0
3, 62400, Note_on_c, 2, 65, 83
3, 62400, Note_on_c, 2, 72, 83
3, 62880, Note_on_c, 2, 72, 0
3, 62880, Note_on_c, 2, 65, 0
3, 75360, Note_on_c, 2, 65, 79
3, 75840, Note_on_c, 2, 65, 0
3, 98880, Note_on_c, 2, 62, 72
3, 98880, Note_on_c, 2, 70, 72
3, 99120, Note_on_c, 2, 70, 0
3, 99120, Note_on_c, 2, 70, 85
3, 99120, Note_on_c, 2, 74, 85
3, 99168, Note_on_c, 2, 62, 0
3, 99360, Note_on_c, 2, 74, 0
3, 99360, Note_on_c, 2, 70, 0
3, 99360, Note_on_c, 2, 65, 62
3, 99360, Note_on_c, 2, 72, 62
3, 99456, Note_on_c, 2, 72, 0
3, 99456, Note_on_c, 2, 65, 0
3, 111360, Note_on_c, 2, 65, 62
3, 113258, Note_on_c, 2, 65, 0
3, 113280, Note_on_c, 2, 58, 88
3, 113280, Note_on_c, 2, 65, 88
3, 113388, Note_on_c, 2, 65, 0
3, 113388, Note_on_c, 2, 58, 0
3, 113400, Note_on_c, 2, 58, 88
3, 113400, Note_on_c, 2, 70, 88
3, 113508, Note_on_c, 2, 70, 0
3, 113508, Note_on_c, 2, 58, 0
3, 113520, Note_on_c, 2, 58, 88
3, 113520, Note_on_c, 2, 70, 88
3, 113628, Note_on_c, 2, 70, 0
3, 113628, Note_on_c, 2, 58, 0
3, 113640, Note_on_c, 2, 58, 88
3, 113640, Note_on_c, 2, 70, 88
3, 113748, Note_on_c, 2, 70, 0
3, 113748, Note_on_c, 2, 58, 0
3, 113760, Note_on_c, 2, 58, 88
3, 113760, Note_on_c, 2, 70, 88
3, 114000, Note_on_c, 2, 70, 0
3, 114000, Note_on_c, 2, 58, 0
3, 117120, Note_on_c, 2, 65, 88
3, 117600, Note_on_c, 2, 65, 0
3, 134400, Note_on_c, 2, 58, 88
3, 134400, Note_on_c, 2, 70, 88
3, 134412, Control_c, 2, 7, 100
3, 134420, Control_c, 2, 7, 102
3, 134492, Control_c, 2, 7, 93
3, 134520, Control_c, 2, 7, 75
3, 134544, Control_c, 2, 7, 65
3, 134560, Control_c, 2, 7, 62
3, 134572, Control_c, 2, 7, 56
3, 134596, Control_c, 2, 7, 53
3, 134636, Control_c, 2, 7, 49
3, 134660, Control_c, 2, 7, 46
3, 134676, Control_c, 2, 7, 49
3, 134880, Note_on_c, 2, 70, 0
3, 134880, Note_on_c, 2, 58, 0
3, 135088, Control_c, 2, 7, 101
3, 135356, Control_c, 2, 7, 101
3, 135360, Control_c, 2, 7, 102
3, 135360, Note_on_c, 2, 58, 88
3, 135360, Note_on_c, 2, 70, 88
3, 135428, Control_c, 2, 7, 101
3, 135452, Control_c, 2, 7, 97
3, 135476, Control_c, 2, 7, 93
3, 135492, Control_c, 2, 7, 64
3, 135500, Control_c, 2, 7, 72
3, 135512, Control_c, 2, 7, 69
3, 135524, Control_c, 2, 7, 66
3, 135536, Control_c, 2, 7, 63
3, 135548, Control_c, 2, 7, 60
3, 135572, Control_c, 2, 7, 57
3, 135600, Control_c, 2, 7, 53
3, 135624, Control_c, 2, 7, 52
3, 135840, Note_on_c, 2, 70, 0
3, 135840, Note_on_c, 2, 58, 0
3, 136080, Control_c, 2, 7, 100
3, 136320, Note_on_c, 2, 65, 88
3, 136320, Note_on_c, 2, 72, 88
3, 136560, Note_on_c, 2, 72, 0
3, 136560, Note_on_c, 2, 65, 0
3, 136560, Note_on_c, 2, 70, 88
3, 136560, Note_on_c, 2, 74, 88
3, 136800, Note_on_c, 2, 74, 0
3, 136800, Note_on_c, 2, 70, 0
3, 136800, Note_on_c, 2, 72, 88
3, 137040, Note_on_c, 2, 65, 88
3, 137280, Note_on_c, 2, 65, 0
3, 137280, Note_on_c, 2, 72, 0
3, 137280, Note_on_c, 2, 62, 88
3, 137280, Note_on_c, 2, 70, 88
3, 137760, Note_on_c, 2, 70, 0
3, 137760, Note_on_c, 2, 62, 0
3, 138000, Note_on_c, 2, 65, 75
3, 138208, Note_on_c, 2, 65, 0
3, 138240, Note_on_c, 2, 65, 84
3, 138720, Note_on_c, 2, 58, 64
3, 138744, Note_on_c, 2, 65, 0
3, 138816, Note_on_c, 2, 58, 0
3, 138816, End_track
4, 0, Start_track
4, 0, Title_t, "Piano 1 Trebble"
4, 0, Control_c, 3, 0, 0
4, 0, Control_c, 3, 7, 100
4, 0, Control_c, 3, 10, 40
4, 0, Control_c, 3, 91, 73
4, 0, Control_c, 3, 93, 73
4, 1, Control_c, 3, 32, 1
4, 2, Program_c, 3, 0
4, 23040, Note_on_c, 3, 74, 62
4, 23040, Note_on_c, 3, 77, 62
4, 23400, Note_on_c, 3, 77, 0
4, 23400, Note_on_c, 3, 74, 0
4, 23400, Note_on_c, 3, 72, 62
4, 23400, Note_on_c, 3, 75, 62
4, 23520, Note_on_c, 3, 75, 0
4, 23520, Note_on_c, 3, 72, 0
4, 23520, Note_on_c, 3, 70, 62
4, 23520, Note_on_c, 3, 74, 62
4, 23760, Note_on_c, 3, 74, 0
4, 23760, Note_on_c, 3, 70, 0
4, 23760, Note_on_c, 3, 66, 62
4, 23760, Note_on_c, 3, 74, 62
4, 24000, Note_on_c, 3, 74, 0
4, 24000, Note_on_c, 3, 66, 0
4, 24000, Note_on_c, 3, 67, 62
4, 24000, Note_on_c, 3, 74, 62
4, 24360, Note_on_c, 3, 74, 0
4, 24360, Note_on_c, 3, 79, 62
4, 24480, Note_on_c, 3, 79, 0
4, 24480, Note_on_c, 3, 67, 0
4, 24480, Note_on_c, 3, 72, 62
4, 24720, Note_on_c, 3, 72, 0
4, 24720, Note_on_c, 3, 70, 62
4, 24720, Note_on_c, 3, 72, 62
4, 24960, Note_on_c, 3, 72, 0
4, 24960, Note_on_c, 3, 70, 0
4, 24960, Note_on_c, 3, 69, 76
4, 24960, Note_on_c, 3, 72, 76
4, 25080, Note_on_c, 3, 72, 0
4, 25080, Note_on_c, 3, 69, 0
4, 25080, Note_on_c, 3, 72, 76
4, 25080, Note_on_c, 3, 75, 76
4, 25200, Note_on_c, 3, 75, 0
4, 25200, Note_on_c, 3, 72, 0
4, 25200, Note_on_c, 3, 70, 76
4, 25200, Note_on_c, 3, 74, 76
4, 25320, Note_on_c, 3, 74, 0
4, 25320, Note_on_c, 3, 70, 0
4, 25320, Note_on_c, 3, 69, 76
4, 25320, Note_on_c, 3, 72, 76
4, 25440, Note_on_c, 3, 72, 0
4, 25440, Note_on_c, 3, 69, 0
4, 25440, Note_on_c, 3, 75, 77
4, 25440, Note_on_c, 3, 79, 77
4, 25560, Note_on_c, 3, 79, 0
4, 25560, Note_on_c, 3, 75, 0
4, 25560, Note_on_c, 3, 74, 77
4, 25560, Note_on_c, 3, 77, 77
4, 25680, Note_on_c, 3, 77, 0
4, 25680, Note_on_c, 3, 74, 0
4, 25680, Note_on_c, 3, 74, 77
4, 25680, Note_on_c, 3, 77, 77
4, 25800, Note_on_c, 3, 77, 0
4, 25800, Note_on_c, 3, 74, 0
4, 25800, Note_on_c, 3, 72, 77
4, 25800, Note_on_c, 3, 75, 77
4, 25920, Note_on_c, 3, 75, 0
4, 25920, Note_on_c, 3, 72, 0
4, 25920, Note_on_c, 3, 72, 78
4, 25920, Note_on_c, 3, 75, 78
4, 26040, Note_on_c, 3, 75, 0
4, 26040, Note_on_c, 3, 72, 0
4, 26040, Note_on_c, 3, 70, 78
4, 26040, Note_on_c, 3, 74, 78
4, 26160, Note_on_c, 3, 74, 0
4, 26160, Note_on_c, 3, 70, 0
4, 26160, Note_on_c, 3, 75, 78
4, 26160, Note_on_c, 3, 79, 78
4, 26280, Note_on_c, 3, 79, 0
4, 26280, Note_on_c, 3, 75, 0
4, 26280, Note_on_c, 3, 74, 78
4, 26280, Note_on_c, 3, 77, 78
4, 26400, Note_on_c, 3, 77, 0
4, 26400, Note_on_c, 3, 74, 0
4, 26400, Note_on_c, 3, 74, 78
4, 26400, Note_on_c, 3, 77, 78
4, 27000, Note_on_c, 3, 77, 0
4, 27000, Note_on_c, 3, 74, 0
4, 27000, Note_on_c, 3, 82, 62
4, 27120, Note_on_c, 3, 82, 0
4, 27120, Note_on_c, 3, 81, 62
4, 27240, Note_on_c, 3, 81, 0
4, 27240, Note_on_c, 3, 79, 62
4, 27360, Note_on_c, 3, 79, 0
4, 27360, Note_on_c, 3, 77, 62
4, 27480, Note_on_c, 3, 77, 0
4, 27480, Note_on_c, 3, 75, 62
4, 27600, Note_on_c, 3, 75, 0
4, 27600, Note_on_c, 3, 74, 62
4, 27720, Note_on_c, 3, 74, 0
4, 27720, Note_on_c, 3, 72, 62
4, 27840, Note_on_c, 3, 72, 0
4, 27840, Note_on_c, 3, 70, 62
4, 28080, Note_on_c, 3, 70, 0
4, 28320, Note_on_c, 3, 82, 75
4, 28440, Note_on_c, 3, 82, 0
4, 28440, Note_on_c, 3, 81, 75
4, 28560, Note_on_c, 3, 81, 0
4, 28560, Note_on_c, 3, 79, 75
4, 28680, Note_on_c, 3, 79, 0
4, 28680, Note_on_c, 3, 78, 75
4, 28800, Note_on_c, 3, 78, 0
4, 28800, Note_on_c, 3, 78, 75
4, 28920, Note_on_c, 3, 78, 0
4, 28920, Note_on_c, 3, 79, 75
4, 29040, Note_on_c, 3, 79, 0
4, 29040, Note_on_c, 3, 79, 75
4, 29087, Note_on_c, 3, 79, 0
4, 29160, Note_on_c, 3, 79, 75
4, 29207, Note_on_c, 3, 79, 0
4, 29400, Note_on_c, 3, 71, 62
4, 29400, Note_on_c, 3, 74, 62
4, 29520, Note_on_c, 3, 74, 0
4, 29520, Note_on_c, 3, 71, 0
4, 29520, Note_on_c, 3, 72, 62
4, 29520, Note_on_c, 3, 75, 62
4, 29640, Note_on_c, 3, 75, 0
4, 29640, Note_on_c, 3, 72, 0
4, 29640, Note_on_c, 3, 74, 62
4, 29640, Note_on_c, 3, 77, 62
4, 29760, Note_on_c, 3, 77, 0
4, 29760, Note_on_c, 3, 74, 0
4, 29760, Note_on_c, 3, 74, 62
4, 29760, Note_on_c, 3, 77, 62
4, 29880, Note_on_c, 3, 77, 0
4, 29880, Note_on_c, 3, 74, 0
4, 29880, Note_on_c, 3, 72, 62
4, 29880, Note_on_c, 3, 75, 62
4, 30000, Note_on_c, 3, 75, 0
4, 30000, Note_on_c, 3, 72, 0
4, 30000, Note_on_c, 3, 72, 62
4, 30000, Note_on_c, 3, 75, 62
4, 30240, Note_on_c, 3, 75, 0
4, 30240, Note_on_c, 3, 72, 0
4, 30240, Note_on_c, 3, 75, 88
4, 30360, Note_on_c, 3, 75, 0
4, 30360, Note_on_c, 3, 74, 88
4, 30480, Note_on_c, 3, 74, 0
4, 30480, Note_on_c, 3, 72, 88
4, 30600, Note_on_c, 3, 72, 0
4, 30600, Note_on_c, 3, 71, 88
4, 30720, Note_on_c, 3, 71, 0
4, 30720, Note_on_c, 3, 71, 88
4, 30780, Note_on_c, 3, 71, 0
4, 30780, Note_on_c, 3, 72, 88
4, 30840, Note_on_c, 3, 72, 0
4, 30840, Note_on_c, 3, 74, 88
4, 30900, Note_on_c, 3, 74, 0
4, 30900, Note_on_c, 3, 72, 88
4, 30960, Note_on_c, 3, 72, 0
4, 30960, Note_on_c, 3, 74, 88
4, 31020, Note_on_c, 3, 74, 0
4, 31020, Note_on_c, 3, 75, 88
4, 31080, Note_on_c, 3, 75, 0
4, 31080, Note_on_c, 3, 77, 88
4, 31140, Note_on_c, 3, 77, 0
4, 31140, Note_on_c, 3, 75, 88
4, 31200, Note_on_c, 3, 75, 0
4, 31200, Note_on_c, 3, 78, 88
4, 31260, Note_on_c, 3, 78, 0
4, 31260, Note_on_c, 3, 79, 88
4, 31320, Note_on_c, 3, 79, 0
4, 31320, Note_on_c, 3, 81, 88
4, 31380, Note_on_c, 3, 81, 0
4, 31380, Note_on_c, 3, 79, 88
4, 31440, Note_on_c, 3, 79, 0
4, 31440, Note_on_c, 3, 77, 88
4, 31500, Note_on_c, 3, 77, 0
4, 31500, Note_on_c, 3, 75, 88
4, 31560, Note_on_c, 3, 75, 0
4, 31560, Note_on_c, 3, 74, 88
4, 31620, Note_on_c, 3, 74, 0
4, 31620, Note_on_c, 3, 72, 88
4, 31680, Note_on_c, 3, 72, 0
4, 31680, Note_on_c, 3, 70, 88
4, 31920, Note_on_c, 3, 70, 0
4, 31920, Note_on_c, 3, 69, 88
4, 32040, Note_on_c, 3, 69, 0
4, 32100, Note_on_c, 3, 81, 88
4, 32160, Note_on_c, 3, 81, 0
4, 32160, Note_on_c, 3, 84, 88
4, 32220, Note_on_c, 3, 84, 0
4, 32220, Note_on_c, 3, 82, 88
4, 32280, Note_on_c, 3, 82, 0
4, 32280, Note_on_c, 3, 81, 88
4, 32340, Note_on_c, 3, 81, 0
4, 32340, Note_on_c, 3, 79, 88
4, 32400, Note_on_c, 3, 79, 0
4, 32400, Note_on_c, 3, 81, 88
4, 32460, Note_on_c, 3, 81, 0
4, 32460, Note_on_c, 3, 79, 88
4, 32520, Note_on_c, 3, 79, 0
4, 32520, Note_on_c, 3, 77, 88
4, 32580, Note_on_c, 3, 77, 0
4, 32580, Note_on_c, 3, 76, 88
4, 32640, Note_on_c, 3, 76, 0
4, 32640, Note_on_c, 3, 76, 88
4, 32880, Note_on_c, 3, 76, 0
4, 32880, Note_on_c, 3, 77, 88
4, 32976, Note_on_c, 3, 77, 0
4, 34080, Note_on_c, 3, 60, 88
4, 34140, Note_on_c, 3, 60, 0
4, 34140, Note_on_c, 3, 65, 88
4, 34200, Note_on_c, 3, 65, 0
4, 34200, Note_on_c, 3, 69, 88
4, 34260, Note_on_c, 3, 69, 0
4, 34260, Note_on_c, 3, 72, 88
4, 34320, Note_on_c, 3, 72, 0
4, 34320, Note_on_c, 3, 69, 88
4, 34380, Note_on_c, 3, 69, 0
4, 34380, Note_on_c, 3, 65, 88
4, 34440, Note_on_c, 3, 65, 0
4, 34440, Note_on_c, 3, 60, 88
4, 34500, Note_on_c, 3, 60, 0
4, 34500, Note_on_c, 3, 58, 88
4, 34560, Note_on_c, 3, 58, 0
4, 34560, Note_on_c, 3, 57, 88
4, 34620, Note_on_c, 3, 57, 0
4, 34620, Note_on_c, 3, 60, 88
4, 34680, Note_on_c, 3, 60, 0
4, 34680, Note_on_c, 3, 65, 88
4, 34740, Note_on_c, 3, 65, 0
4, 34740, Note_on_c, 3, 60, 88
4, 34800, Note_on_c, 3, 60, 0
4, 34800, Note_on_c, 3, 69, 88
4, 34860, Note_on_c, 3, 69, 0
4, 34860, Note_on_c, 3, 65, 88
4, 34920, Note_on_c, 3, 65, 0
4, 34920, Note_on_c, 3, 60, 88
4, 34980, Note_on_c, 3, 60, 0
4, 34980, Note_on_c, 3, 65, 88
4, 35040, Note_on_c, 3, 65, 0
4, 35040, Note_on_c, 3, 57, 88
4, 35100, Note_on_c, 3, 57, 0
4, 35100, Note_on_c, 3, 60, 88
4, 35160, Note_on_c, 3, 60, 0
4, 35160, Note_on_c, 3, 65, 88
4, 35220, Note_on_c, 3, 65, 0
4, 35220, Note_on_c, 3, 60, 88
4, 35280, Note_on_c, 3, 60, 0
4, 35280, Note_on_c, 3, 69, 88
4, 35340, Note_on_c, 3, 69, 0
4, 35340, Note_on_c, 3, 65, 88
4, 35400, Note_on_c, 3, 65, 0
4, 35400, Note_on_c, 3, 60, 88
4, 35460, Note_on_c, 3, 60, 0
4, 35460, Note_on_c, 3, 65, 88
4, 35520, Note_on_c, 3, 65, 0
4, 35520, Note_on_c, 3, 55, 88
4, 35580, Note_on_c, 3, 55, 0
4, 35580, Note_on_c, 3, 58, 88
4, 35640, Note_on_c, 3, 58, 0
4, 35640, Note_on_c, 3, 60, 88
4, 35700, Note_on_c, 3, 60, 0
4, 35700, Note_on_c, 3, 58, 88
4, 35760, Note_on_c, 3, 58, 0
4, 35760, Note_on_c, 3, 67, 88
4, 35820, Note_on_c, 3, 67, 0
4, 35820, Note_on_c, 3, 60, 88
4, 35880, Note_on_c, 3, 60, 0
4, 35880, Note_on_c, 3, 58, 88
4, 35940, Note_on_c, 3, 58, 0
4, 35940, Note_on_c, 3, 60, 88
4, 36000, Note_on_c, 3, 60, 0
4, 36000, Note_on_c, 3, 55, 88
4, 36060, Note_on_c, 3, 55, 0
4, 36060, Note_on_c, 3, 58, 88
4, 36120, Note_on_c, 3, 58, 0
4, 36120, Note_on_c, 3, 60, 88
4, 36180, Note_on_c, 3, 60, 0
4, 36180, Note_on_c, 3, 58, 88
4, 36240, Note_on_c, 3, 58, 0
4, 36240, Note_on_c, 3, 67, 88
4, 36300, Note_on_c, 3, 67, 0
4, 36300, Note_on_c, 3, 60, 88
4, 36360, Note_on_c, 3, 60, 0
4, 36360, Note_on_c, 3, 58, 88
4, 36420, Note_on_c, 3, 58, 0
4, 36420, Note_on_c, 3, 60, 88
4, 36480, Note_on_c, 3, 60, 0
4, 36480, Note_on_c, 3, 60, 88
4, 36540, Note_on_c, 3, 60, 0
4, 36540, Note_on_c, 3, 67, 88
4, 36600, Note_on_c, 3, 67, 0
4, 36600, Note_on_c, 3, 70, 88
4, 36660, Note_on_c, 3, 70, 0
4, 36660, Note_on_c, 3, 67, 88
4, 36720, Note_on_c, 3, 67, 0
4, 36720, Note_on_c, 3, 72, 88
4, 36780, Note_on_c, 3, 72, 0
4, 36780, Note_on_c, 3, 70, 88
4, 36840, Note_on_c, 3, 70, 0
4, 36840, Note_on_c, 3, 67, 88
4, 36900, Note_on_c, 3, 67, 0
4, 36900, Note_on_c, 3, 70, 88
4, 36960, Note_on_c, 3, 70, 0
4, 36960, Note_on_c, 3, 60, 88
4, 37020, Note_on_c, 3, 60, 0
4, 37020, Note_on_c, 3, 67, 88
4, 37080, Note_on_c, 3, 67, 0
4, 37080, Note_on_c, 3, 70, 88
4, 37140, Note_on_c, 3, 70, 0
4, 37140, Note_on_c, 3, 67, 88
4, 37200, Note_on_c, 3, 67, 0
4, 37200, Note_on_c, 3, 72, 88
4, 37260, Note_on_c, 3, 72, 0
4, 37260, Note_on_c, 3, 70, 88
4, 37320, Note_on_c, 3, 70, 0
4, 37320, Note_on_c, 3, 67, 88
4, 37380, Note_on_c, 3, 67, 0
4, 37380, Note_on_c, 3, 70, 88
4, 37440, Note_on_c, 3, 70, 0
4, 37440, Note_on_c, 3, 60, 88
4, 37500, Note_on_c, 3, 60, 0
4, 37500, Note_on_c, 3, 65, 88
4, 37560, Note_on_c, 3, 65, 0
4, 37560, Note_on_c, 3, 69, 88
4, 37620, Note_on_c, 3, 69, 0
4, 37620, Note_on_c, 3, 65, 88
4, 37680, Note_on_c, 3, 65, 0
4, 37680, Note_on_c, 3, 72, 88
4, 37740, Note_on_c, 3, 72, 0
4, 37740, Note_on_c, 3, 69, 88
4, 37800, Note_on_c, 3, 69, 0
4, 37800, Note_on_c, 3, 65, 88
4, 37860, Note_on_c, 3, 65, 0
4, 37860, Note_on_c, 3, 69, 88
4, 37920, Note_on_c, 3, 69, 0
4, 37920, Note_on_c, 3, 65, 88
4, 38160, Note_on_c, 3, 65, 0
4, 38160, Note_on_c, 3, 77, 88
4, 38400, Note_on_c, 3, 77, 0
4, 38400, Note_on_c, 3, 76, 88
4, 38520, Note_on_c, 3, 76, 0
4, 38520, Note_on_c, 3, 74, 88
4, 38640, Note_on_c, 3, 74, 0
4, 38640, Note_on_c, 3, 74, 88
4, 38940, Note_on_c, 3, 74, 0
4, 38940, Note_on_c, 3, 76, 88
4, 39000, Note_on_c, 3, 76, 0
4, 39000, Note_on_c, 3, 77, 88
4, 39060, Note_on_c, 3, 77, 0
4, 39060, Note_on_c, 3, 74, 88
4, 39120, Note_on_c, 3, 74, 0
4, 39120, Note_on_c, 3, 72, 88
4, 39180, Note_on_c, 3, 72, 0
4, 39180, Note_on_c, 3, 74, 88
4, 39240, Note_on_c, 3, 74, 0
4, 39240, Note_on_c, 3, 75, 88
4, 39300, Note_on_c, 3, 75, 0
4, 39300, Note_on_c, 3, 72, 88
4, 39360, Note_on_c, 3, 72, 0
4, 39360, Note_on_c, 3, 70, 88
4, 39420, Note_on_c, 3, 70, 0
4, 39420, Note_on_c, 3, 72, 88
4, 39480, Note_on_c, 3, 72, 0
4, 39480, Note_on_c, 3, 74, 88
4, 39540, Note_on_c, 3, 74, 0
4, 39540, Note_on_c, 3, 72, 88
4, 39600, Note_on_c, 3, 72, 0
4, 39600, Note_on_c, 3, 70, 88
4, 39900, Note_on_c, 3, 70, 0
4, 39900, Note_on_c, 3, 72, 88
4, 39960, Note_on_c, 3, 72, 0
4, 39960, Note_on_c, 3, 74, 88
4, 40020, Note_on_c, 3, 74, 0
4, 40020, Note_on_c, 3, 70, 88
4, 40080, Note_on_c, 3, 70, 0
4, 40080, Note_on_c, 3, 69, 88
4, 40140, Note_on_c, 3, 69, 0
4, 40140, Note_on_c, 3, 70, 88
4, 40200, Note_on_c, 3, 70, 0
4, 40200, Note_on_c, 3, 72, 88
4, 40260, Note_on_c, 3, 72, 0
4, 40260, Note_on_c, 3, 69, 88
4, 40320, Note_on_c, 3, 69, 0
4, 40320, Note_on_c, 3, 67, 88
4, 40380, Note_on_c, 3, 67, 0
4, 40380, Note_on_c, 3, 69, 88
4, 40440, Note_on_c, 3, 69, 0
4, 40440, Note_on_c, 3, 70, 88
4, 40500, Note_on_c, 3, 70, 0
4, 40500, Note_on_c, 3, 69, 88
4, 40560, Note_on_c, 3, 69, 0
4, 40560, Note_on_c, 3, 67, 88
4, 40607, Note_on_c, 3, 67, 0
4, 40680, Note_on_c, 3, 86, 88
4, 40727, Note_on_c, 3, 86, 0
4, 40800, Note_on_c, 3, 84, 88
4, 40920, Note_on_c, 3, 84, 0
4, 40920, Note_on_c, 3, 86, 88
4, 40980, Note_on_c, 3, 86, 0
4, 40980, Note_on_c, 3, 82, 88
4, 41040, Note_on_c, 3, 82, 0
4, 41040, Note_on_c, 3, 81, 88
4, 41160, Note_on_c, 3, 81, 0
4, 41160, Note_on_c, 3, 82, 88
4, 41220, Note_on_c, 3, 82, 0
4, 41220, Note_on_c, 3, 79, 88
4, 41280, Note_on_c, 3, 79, 0
4, 41280, Note_on_c, 3, 77, 88
4, 41760, Note_on_c, 3, 77, 0
4, 41760, Note_on_c, 3, 76, 88
4, 42000, Note_on_c, 3, 76, 0
4, 42000, Note_on_c, 3, 89, 62
4, 42060, Note_on_c, 3, 89, 0
4, 42060, Note_on_c, 3, 88, 62
4, 42120, Note_on_c, 3, 88, 0
4, 42120, Note_on_c, 3, 86, 62
4, 42180, Note_on_c, 3, 86, 0
4, 42180, Note_on_c, 3, 84, 62
4, 42240, Note_on_c, 3, 84, 0
4, 42240, Note_on_c, 3, 89, 62
4, 42360, Note_on_c, 3, 89, 0
4, 42360, Note_on_c, 3, 84, 62
4, 42480, Note_on_c, 3, 84, 0
4, 42600, Note_on_c, 3, 81, 62
4, 42647, Note_on_c, 3, 81, 0
4, 42840, Note_on_c, 3, 82, 62
4, 42887, Note_on_c, 3, 82, 0
4, 43080, Note_on_c, 3, 79, 62
4, 43127, Note_on_c, 3, 79, 0
4, 43200, Note_on_c, 3, 77, 88
4, 43440, Note_on_c, 3, 77, 0
4, 43440, Note_on_c, 3, 81, 88
4, 43680, Note_on_c, 3, 81, 0
4, 43680, Note_on_c, 3, 79, 88
4, 43920, Note_on_c, 3, 79, 0
4, 43920, Note_on_c, 3, 77, 62
4, 43980, Note_on_c, 3, 77, 0
4, 43980, Note_on_c, 3, 76, 62
4, 44040, Note_on_c, 3, 76, 0
4, 44040, Note_on_c, 3, 74, 62
4, 44100, Note_on_c, 3, 74, 0
4, 44100, Note_on_c, 3, 72, 62
4, 44160, Note_on_c, 3, 72, 0
4, 44160, Note_on_c, 3, 77, 62
4, 44280, Note_on_c, 3, 77, 0
4, 44280, Note_on_c, 3, 72, 62
4, 44400, Note_on_c, 3, 72, 0
4, 44520, Note_on_c, 3, 69, 62
4, 44567, Note_on_c, 3, 69, 0
4, 44760, Note_on_c, 3, 70, 62
4, 44807, Note_on_c, 3, 70, 0
4, 45000, Note_on_c, 3, 67, 62
4, 45047, Note_on_c, 3, 67, 0
4, 45120, Note_on_c, 3, 65, 78
4, 45360, Note_on_c, 3, 65, 0
4, 45360, Note_on_c, 3, 69, 84
4, 45600, Note_on_c, 3, 69, 0
4, 45600, Note_on_c, 3, 67, 74
4, 45840, Note_on_c, 3, 67, 0
4, 45840, Note_on_c, 3, 72, 62
4, 45936, Note_on_c, 3, 72, 0
4, 46080, Note_on_c, 3, 77, 62
4, 46200, Note_on_c, 3, 77, 0
4, 46200, Note_on_c, 3, 78, 62
4, 46320, Note_on_c, 3, 78, 0
4, 46320, Note_on_c, 3, 79, 62
4, 46440, Note_on_c, 3, 79, 0
4, 46440, Note_on_c, 3, 80, 62
4, 46560, Note_on_c, 3, 80, 0
4, 46560, Note_on_c, 3, 81, 62
4, 46680, Note_on_c, 3, 81, 0
4, 46680, Note_on_c, 3, 82, 62
4, 46800, Note_on_c, 3, 82, 0
4, 46800, Note_on_c, 3, 83, 62
4, 46920, Note_on_c, 3, 83, 0
4, 46920, Note_on_c, 3, 84, 62
4, 47040, Note_on_c, 3, 84, 0
4, 47040, Note_on_c, 3, 81, 75
4, 47040, Note_on_c, 3, 85, 75
4, 47160, Note_on_c, 3, 82, 88
4, 47160, Note_on_c, 3, 86, 88
4, 47173, Note_on_c, 3, 85, 0
4, 47173, Note_on_c, 3, 81, 0
4, 47233, Note_on_c, 3, 82, 0
4, 47233, Note_on_c, 3, 86, 0
4, 47280, Note_on_c, 3, 82, 79
4, 47280, Note_on_c, 3, 86, 79
4, 47327, Note_on_c, 3, 82, 0
4, 47376, Note_on_c, 3, 86, 0
4, 48000, Note_on_c, 3, 80, 62
4, 48000, Note_on_c, 3, 83, 62
4, 48120, Note_on_c, 3, 81, 62
4, 48120, Note_on_c, 3, 84, 62
4, 48132, Note_on_c, 3, 83, 0
4, 48132, Note_on_c, 3, 80, 0
4, 48193, Note_on_c, 3, 81, 0
4, 48193, Note_on_c, 3, 84, 0
4, 48240, Note_on_c, 3, 81, 62
4, 48240, Note_on_c, 3, 84, 62
4, 48263, Note_on_c, 3, 81, 0
4, 48287, Note_on_c, 3, 84, 0
4, 48360, Note_on_c, 3, 81, 62
4, 48360, Note_on_c, 3, 84, 62
4, 48383, Note_on_c, 3, 81, 0
4, 48407, Note_on_c, 3, 84, 0
4, 48480, Note_on_c, 3, 78, 62
4, 48480, Note_on_c, 3, 81, 62
4, 48600, Note_on_c, 3, 79, 62
4, 48600, Note_on_c, 3, 82, 62
4, 48612, Note_on_c, 3, 81, 0
4, 48612, Note_on_c, 3, 78, 0
4, 48673, Note_on_c, 3, 79, 0
4, 48673, Note_on_c, 3, 82, 0
4, 48720, Note_on_c, 3, 79, 62
4, 48720, Note_on_c, 3, 82, 62
4, 48743, Note_on_c, 3, 79, 0
4, 48767, Note_on_c, 3, 82, 0
4, 48840, Note_on_c, 3, 79, 62
4, 48840, Note_on_c, 3, 82, 62
4, 48863, Note_on_c, 3, 79, 0
4, 48887, Note_on_c, 3, 82, 0
4, 48960, Note_on_c, 3, 76, 62
4, 48960, Note_on_c, 3, 80, 62
4, 49080, Note_on_c, 3, 77, 62
4, 49080, Note_on_c, 3, 81, 62
4, 49092, Note_on_c, 3, 80, 0
4, 49092, Note_on_c, 3, 76, 0
4, 49153, Note_on_c, 3, 77, 0
4, 49153, Note_on_c, 3, 81, 0
4, 49200, Note_on_c, 3, 77, 65
4, 49200, Note_on_c, 3, 81, 65
4, 49223, Note_on_c, 3, 77, 0
4, 49247, Note_on_c, 3, 81, 0
4, 49320, Note_on_c, 3, 77, 68
4, 49320, Note_on_c, 3, 81, 68
4, 49367, Note_on_c, 3, 81, 0
4, 49367, Note_on_c, 3, 77, 0
4, 49390, Note_on_c, 3, 77, 77
4, 49405, Note_on_c, 3, 78, 80
4, 49413, Note_on_c, 3, 77, 0
4, 49420, Note_on_c, 3, 81, 80
4, 49435, Note_on_c, 3, 84, 80
4, 49440, Note_on_c, 3, 87, 80
4, 49465, Note_on_c, 3, 78, 0
4, 49467, Note_on_c, 3, 81, 0
4, 49495, Note_on_c, 3, 84, 0
4, 49980, Note_on_c, 3, 87, 0
4, 49980, Note_on_c, 3, 86, 88
4, 50040, Note_on_c, 3, 86, 0
4, 50040, Note_on_c, 3, 85, 88
4, 50100, Note_on_c, 3, 85, 0
4, 50100, Note_on_c, 3, 86, 88
4, 50160, Note_on_c, 3, 86, 0
4, 50160, Note_on_c, 3, 84, 88
4, 50220, Note_on_c, 3, 84, 0
4, 50220, Note_on_c, 3, 82, 88
4, 50280, Note_on_c, 3, 82, 0
4, 50280, Note_on_c, 3, 81, 88
4, 50340, Note_on_c, 3, 81, 0
4, 50340, Note_on_c, 3, 79, 88
4, 50400, Note_on_c, 3, 79, 0
4, 50400, Note_on_c, 3, 77, 88
4, 50460, Note_on_c, 3, 77, 0
4, 50460, Note_on_c, 3, 81, 88
4, 50520, Note_on_c, 3, 81, 0
4, 50520, Note_on_c, 3, 79, 87
4, 50580, Note_on_c, 3, 79, 0
4, 50580, Note_on_c, 3, 77, 85
4, 50640, Note_on_c, 3, 77, 0
4, 50640, Note_on_c, 3, 76, 83
4, 50700, Note_on_c, 3, 76, 0
4, 50700, Note_on_c, 3, 79, 81
4, 50760, Note_on_c, 3, 79, 0
4, 50760, Note_on_c, 3, 77, 79
4, 50820, Note_on_c, 3, 77, 0
4, 50820, Note_on_c, 3, 76, 77
4, 50880, Note_on_c, 3, 76, 0
4, 50880, Note_on_c, 3, 84, 75
4, 51180, Note_on_c, 3, 84, 0
4, 51180, Note_on_c, 3, 86, 82
4, 51240, Note_on_c, 3, 86, 0
4, 51240, Note_on_c, 3, 88, 87
4, 51300, Note_on_c, 3, 88, 0
4, 51300, Note_on_c, 3, 89, 90
4, 51360, Note_on_c, 3, 89, 0
4, 51360, Note_on_c, 3, 89, 93
4, 51420, Note_on_c, 3, 89, 0
4, 51420, Note_on_c, 3, 88, 85
4, 51480, Note_on_c, 3, 88, 0
4, 51480, Note_on_c, 3, 86, 81
4, 51540, Note_on_c, 3, 86, 0
4, 51540, Note_on_c, 3, 84, 78
4, 51600, Note_on_c, 3, 84, 0
4, 51600, Note_on_c, 3, 84, 76
4, 51660, Note_on_c, 3, 84, 0
4, 51660, Note_on_c, 3, 82, 73
4, 51720, Note_on_c, 3, 82, 0
4, 51720, Note_on_c, 3, 81, 73
4, 51780, Note_on_c, 3, 81, 0
4, 51780, Note_on_c, 3, 79, 67
4, 51840, Note_on_c, 3, 79, 0
4, 51840, Note_on_c, 3, 84, 62
4, 52140, Note_on_c, 3, 84, 0
4, 52140, Note_on_c, 3, 86, 78
4, 52200, Note_on_c, 3, 86, 0
4, 52200, Note_on_c, 3, 88, 78
4, 52260, Note_on_c, 3, 88, 0
4, 52260, Note_on_c, 3, 89, 82
4, 52283, Note_on_c, 3, 89, 0
4, 52320, Note_on_c, 3, 89, 87
4, 52380, Note_on_c, 3, 89, 0
4, 52380, Note_on_c, 3, 88, 83
4, 52440, Note_on_c, 3, 88, 0
4, 52440, Note_on_c, 3, 86, 81
4, 52500, Note_on_c, 3, 86, 0
4, 52500, Note_on_c, 3, 84, 73
4, 52523, Note_on_c, 3, 84, 0
4, 52560, Note_on_c, 3, 84, 73
4, 52620, Note_on_c, 3, 84, 0
4, 52620, Note_on_c, 3, 82, 69
4, 52680, Note_on_c, 3, 82, 0
4, 52680, Note_on_c, 3, 81, 69
4, 52740, Note_on_c, 3, 81, 0
4, 52740, Note_on_c, 3, 79, 66
4, 52763, Note_on_c, 3, 79, 0
4, 52800, Note_on_c, 3, 81, 63
4, 52823, Note_on_c, 3, 81, 0
4, 52860, Note_on_c, 3, 89, 63
4, 52920, Note_on_c, 3, 89, 0
4, 52920, Note_on_c, 3, 88, 61
4, 52980, Note_on_c, 3, 88, 0
4, 52980, Note_on_c, 3, 89, 61
4, 53003, Note_on_c, 3, 89, 0
4, 53100, Note_on_c, 3, 87, 62
4, 53160, Note_on_c, 3, 87, 0
4, 53160, Note_on_c, 3, 86, 62
4, 53220, Note_on_c, 3, 86, 0
4, 53220, Note_on_c, 3, 87, 62
4, 53243, Note_on_c, 3, 87, 0
4, 53340, Note_on_c, 3, 86, 62
4, 53400, Note_on_c, 3, 86, 0
4, 53400, Note_on_c, 3, 85, 62
4, 53460, Note_on_c, 3, 85, 0
4, 53460, Note_on_c, 3, 86, 62
4, 53483, Note_on_c, 3, 86, 0
4, 53580, Note_on_c, 3, 84, 62
4, 53640, Note_on_c, 3, 84, 0
4, 53640, Note_on_c, 3, 83, 62
4, 53700, Note_on_c, 3, 83, 0
4, 53700, Note_on_c, 3, 84, 62
4, 53723, Note_on_c, 3, 84, 0
4, 53760, Note_on_c, 3, 84, 66
4, 53790, Note_on_c, 3, 83, 66
4, 53805, Note_on_c, 3, 84, 0
4, 53820, Note_on_c, 3, 84, 67
4, 53835, Note_on_c, 3, 83, 0
4, 53850, Note_on_c, 3, 83, 67
4, 53865, Note_on_c, 3, 84, 0
4, 53870, Note_on_c, 3, 84, 70
4, 53880, Note_on_c, 3, 83, 0
4, 53895, Note_on_c, 3, 83, 73
4, 53900, Note_on_c, 3, 84, 0
4, 53920, Note_on_c, 3, 84, 76
4, 53925, Note_on_c, 3, 83, 0
4, 53940, Note_on_c, 3, 83, 78
4, 53950, Note_on_c, 3, 84, 0
4, 53960, Note_on_c, 3, 84, 77
4, 53970, Note_on_c, 3, 83, 0
4, 53980, Note_on_c, 3, 83, 77
4, 53990, Note_on_c, 3, 84, 0
4, 54000, Note_on_c, 3, 84, 77
4, 54010, Note_on_c, 3, 83, 0
4, 54020, Note_on_c, 3, 83, 77
4, 54030, Note_on_c, 3, 84, 0
4, 54040, Note_on_c, 3, 84, 75
4, 54050, Note_on_c, 3, 83, 0
4, 54060, Note_on_c, 3, 83, 75
4, 54070, Note_on_c, 3, 84, 0
4, 54080, Note_on_c, 3, 84, 72
4, 54090, Note_on_c, 3, 83, 0
4, 54100, Note_on_c, 3, 83, 72
4, 54110, Note_on_c, 3, 84, 0
4, 54120, Note_on_c, 3, 84, 69
4, 54130, Note_on_c, 3, 83, 0
4, 54140, Note_on_c, 3, 83, 69
4, 54150, Note_on_c, 3, 84, 0
4, 54160, Note_on_c, 3, 84, 68
4, 54170, Note_on_c, 3, 83, 0
4, 54180, Note_on_c, 3, 83, 68
4, 54190, Note_on_c, 3, 84, 0
4, 54200, Note_on_c, 3, 84, 68
4, 54210, Note_on_c, 3, 83, 0
4, 54220, Note_on_c, 3, 83, 68
4, 54230, Note_on_c, 3, 84, 0
4, 54240, Note_on_c, 3, 84, 68
4, 54250, Note_on_c, 3, 83, 0
4, 54270, Note_on_c, 3, 84, 0
4, 54270, Note_on_c, 3, 82, 71
4, 54290, Note_on_c, 3, 84, 71
4, 54300, Note_on_c, 3, 82, 0
4, 54310, Note_on_c, 3, 82, 71
4, 54320, Note_on_c, 3, 84, 0
4, 54330, Note_on_c, 3, 84, 74
4, 54340, Note_on_c, 3, 82, 0
4, 54350, Note_on_c, 3, 82, 74
4, 54360, Note_on_c, 3, 84, 0
4, 54370, Note_on_c, 3, 84, 74
4, 54380, Note_on_c, 3, 82, 0
4, 54390, Note_on_c, 3, 82, 74
4, 54400, Note_on_c, 3, 84, 0
4, 54410, Note_on_c, 3, 84, 74
4, 54420, Note_on_c, 3, 82, 0
4, 54430, Note_on_c, 3, 82, 72
4, 54440, Note_on_c, 3, 84, 0
4, 54450, Note_on_c, 3, 84, 72
4, 54460, Note_on_c, 3, 82, 0
4, 54470, Note_on_c, 3, 82, 70
4, 54480, Note_on_c, 3, 84, 0
4, 54490, Note_on_c, 3, 84, 70
4, 54500, Note_on_c, 3, 82, 0
4, 54510, Note_on_c, 3, 82, 70
4, 54520, Note_on_c, 3, 84, 0
4, 54530, Note_on_c, 3, 84, 67
4, 54540, Note_on_c, 3, 82, 0
4, 54560, Note_on_c, 3, 84, 0
4, 54570, Note_on_c, 3, 82, 68
4, 54600, Note_on_c, 3, 82, 0
4, 54600, Note_on_c, 3, 81, 71
4, 54660, Note_on_c, 3, 81, 0
4, 54660, Note_on_c, 3, 82, 73
4, 54720, Note_on_c, 3, 82, 0
4, 54720, Note_on_c, 3, 81, 76
4, 54780, Note_on_c, 3, 81, 0
4, 54780, Note_on_c, 3, 84, 84
4, 54840, Note_on_c, 3, 84, 0
4, 54840, Note_on_c, 3, 82, 86
4, 54900, Note_on_c, 3, 82, 0
4, 54900, Note_on_c, 3, 81, 88
4, 54960, Note_on_c, 3, 81, 0
4, 54960, Note_on_c, 3, 79, 88
4, 55020, Note_on_c, 3, 79, 0
4, 55020, Note_on_c, 3, 77, 88
4, 55080, Note_on_c, 3, 77, 0
4, 55080, Note_on_c, 3, 76, 82
4, 55140, Note_on_c, 3, 76, 0
4, 55140, Note_on_c, 3, 77, 82
4, 55200, Note_on_c, 3, 77, 0
4, 55200, Note_on_c, 3, 79, 79
4, 55220, Note_on_c, 3, 77, 79
4, 55240, Note_on_c, 3, 79, 79
4, 55245, Note_on_c, 3, 79, 0
4, 55260, Note_on_c, 3, 77, 79
4, 55265, Note_on_c, 3, 77, 0
4, 55280, Note_on_c, 3, 79, 79
4, 55285, Note_on_c, 3, 79, 0
4, 55300, Note_on_c, 3, 77, 77
4, 55305, Note_on_c, 3, 77, 0
4, 55320, Note_on_c, 3, 76, 77
4, 55325, Note_on_c, 3, 79, 0
4, 55345, Note_on_c, 3, 77, 0
4, 55380, Note_on_c, 3, 77, 66
4, 55396, Note_on_c, 3, 76, 0
4, 55440, Note_on_c, 3, 77, 0
4, 55740, Note_on_c, 3, 86, 80
4, 55800, Note_on_c, 3, 86, 0
4, 55800, Note_on_c, 3, 84, 85
4, 55860, Note_on_c, 3, 84, 0
4, 55860, Note_on_c, 3, 82, 87
4, 55920, Note_on_c, 3, 82, 0
4, 55920, Note_on_c, 3, 81, 92
4, 55980, Note_on_c, 3, 81, 0
4, 55980, Note_on_c, 3, 79, 92
4, 56040, Note_on_c, 3, 79, 0
4, 56040, Note_on_c, 3, 78, 92
4, 56100, Note_on_c, 3, 78, 0
4, 56100, Note_on_c, 3, 79, 88
4, 56160, Note_on_c, 3, 79, 0
4, 56160, Note_on_c, 3, 81, 85
4, 56180, Note_on_c, 3, 79, 85
4, 56200, Note_on_c, 3, 81, 82
4, 56205, Note_on_c, 3, 81, 0
4, 56220, Note_on_c, 3, 79, 80
4, 56225, Note_on_c, 3, 79, 0
4, 56240, Note_on_c, 3, 81, 80
4, 56245, Note_on_c, 3, 81, 0
4, 56260, Note_on_c, 3, 79, 77
4, 56265, Note_on_c, 3, 79, 0
4, 56280, Note_on_c, 3, 78, 71
4, 56285, Note_on_c, 3, 81, 0
4, 56305, Note_on_c, 3, 79, 0
4, 56340, Note_on_c, 3, 79, 68
4, 56372, Note_on_c, 3, 78, 0
4, 56400, Note_on_c, 3, 79, 0
4, 56640, Note_on_c, 3, 81, 69
4, 56760, Note_on_c, 3, 81, 0
4, 56760, Note_on_c, 3, 77, 69
4, 56880, Note_on_c, 3, 77, 0
4, 56880, Note_on_c, 3, 72, 73
4, 57000, Note_on_c, 3, 72, 0
4, 57000, Note_on_c, 3, 69, 78
4, 57120, Note_on_c, 3, 69, 0
4, 57120, Note_on_c, 3, 77, 78
4, 57240, Note_on_c, 3, 77, 0
4, 57240, Note_on_c, 3, 72, 81
4, 57360, Note_on_c, 3, 72, 0
4, 57360, Note_on_c, 3, 81, 84
4, 57480, Note_on_c, 3, 81, 0
4, 57480, Note_on_c, 3, 77, 84
4, 57600, Note_on_c, 3, 77, 0
4, 57600, Note_on_c, 3, 84, 86
4, 57780, Note_on_c, 3, 84, 0
4, 57780, Note_on_c, 3, 81, 88
4, 57840, Note_on_c, 3, 84, 92
4, 57864, Note_on_c, 3, 81, 0
4, 58200, Note_on_c, 3, 84, 0
4, 58200, Note_on_c, 3, 83, 89
4, 58320, Note_on_c, 3, 83, 0
4, 58320, Note_on_c, 3, 82, 88
4, 58440, Note_on_c, 3, 82, 0
4, 58440, Note_on_c, 3, 81, 87
4, 58560, Note_on_c, 3, 81, 0
4, 58560, Note_on_c, 3, 81, 86
4, 58590, Note_on_c, 3, 79, 86
4, 58605, Note_on_c, 3, 81, 0
4, 58620, Note_on_c, 3, 81, 85
4, 58635, Note_on_c, 3, 79, 0
4, 58640, Note_on_c, 3, 79, 86
4, 58665, Note_on_c, 3, 81, 0
4, 58670, Note_on_c, 3, 81, 86
4, 58685, Note_on_c, 3, 79, 0
4, 58690, Note_on_c, 3, 79, 86
4, 58710, Note_on_c, 3, 81, 86
4, 58715, Note_on_c, 3, 81, 0
4, 58730, Note_on_c, 3, 79, 86
4, 58735, Note_on_c, 3, 79, 0
4, 58750, Note_on_c, 3, 81, 88
4, 58755, Note_on_c, 3, 81, 0
4, 58770, Note_on_c, 3, 79, 88
4, 58775, Note_on_c, 3, 79, 0
4, 58790, Note_on_c, 3, 81, 88
4, 58795, Note_on_c, 3, 81, 0
4, 58810, Note_on_c, 3, 79, 88
4, 58815, Note_on_c, 3, 79, 0
4, 58830, Note_on_c, 3, 81, 88
4, 58835, Note_on_c, 3, 81, 0
4, 58850, Note_on_c, 3, 79, 88
4, 58855, Note_on_c, 3, 79, 0
4, 58870, Note_on_c, 3, 81, 88
4, 58875, Note_on_c, 3, 81, 0
4, 58890, Note_on_c, 3, 79, 88
4, 58895, Note_on_c, 3, 79, 0
4, 58910, Note_on_c, 3, 81, 88
4, 58915, Note_on_c, 3, 81, 0
4, 58930, Note_on_c, 3, 79, 88
4, 58935, Note_on_c, 3, 79, 0
4, 58950, Note_on_c, 3, 81, 88
4, 58955, Note_on_c, 3, 81, 0
4, 58970, Note_on_c, 3, 79, 88
4, 58975, Note_on_c, 3, 79, 0
4, 58990, Note_on_c, 3, 81, 88
4, 58995, Note_on_c, 3, 81, 0
4, 59010, Note_on_c, 3, 79, 87
4, 59015, Note_on_c, 3, 79, 0
4, 59030, Note_on_c, 3, 81, 87
4, 59035, Note_on_c, 3, 81, 0
4, 59050, Note_on_c, 3, 79, 84
4, 59055, Note_on_c, 3, 79, 0
4, 59070, Note_on_c, 3, 81, 84
4, 59075, Note_on_c, 3, 81, 0
4, 59090, Note_on_c, 3, 79, 84
4, 59095, Note_on_c, 3, 79, 0
4, 59110, Note_on_c, 3, 81, 84
4, 59115, Note_on_c, 3, 81, 0
4, 59130, Note_on_c, 3, 79, 82
4, 59135, Note_on_c, 3, 79, 0
4, 59150, Note_on_c, 3, 81, 82
4, 59155, Note_on_c, 3, 81, 0
4, 59170, Note_on_c, 3, 79, 82
4, 59175, Note_on_c, 3, 79, 0
4, 59190, Note_on_c, 3, 81, 82
4, 59195, Note_on_c, 3, 81, 0
4, 59210, Note_on_c, 3, 79, 82
4, 59215, Note_on_c, 3, 79, 0
4, 59230, Note_on_c, 3, 81, 82
4, 59235, Note_on_c, 3, 81, 0
4, 59250, Note_on_c, 3, 79, 82
4, 59255, Note_on_c, 3, 79, 0
4, 59270, Note_on_c, 3, 81, 82
4, 59275, Note_on_c, 3, 81, 0
4, 59290, Note_on_c, 3, 79, 83
4, 59295, Note_on_c, 3, 79, 0
4, 59310, Note_on_c, 3, 81, 83
4, 59315, Note_on_c, 3, 81, 0
4, 59330, Note_on_c, 3, 79, 83
4, 59335, Note_on_c, 3, 79, 0
4, 59340, Note_on_c, 3, 81, 0
4, 59400, Note_on_c, 3, 77, 88
4, 59424, Note_on_c, 3, 79, 0
4, 59460, Note_on_c, 3, 79, 93
4, 59484, Note_on_c, 3, 77, 0
4, 59520, Note_on_c, 3, 77, 96
4, 59544, Note_on_c, 3, 79, 0
4, 60000, Note_on_c, 3, 77, 0
4, 62460, Note_on_c, 3, 81, 88
4, 62483, Note_on_c, 3, 81, 0
4, 62520, Note_on_c, 3, 84, 88
4, 62543, Note_on_c, 3, 84, 0
4, 62580, Note_on_c, 3, 82, 88
4, 62603, Note_on_c, 3, 82, 0
4, 62640, Note_on_c, 3, 81, 88
4, 62663, Note_on_c, 3, 81, 0
4, 62700, Note_on_c, 3, 82, 88
4, 62723, Note_on_c, 3, 82, 0
4, 62760, Note_on_c, 3, 84, 88
4, 62783, Note_on_c, 3, 84, 0
4, 62820, Note_on_c, 3, 84, 88
4, 62843, Note_on_c, 3, 84, 0
4, 62940, Note_on_c, 3, 81, 88
4, 62963, Note_on_c, 3, 81, 0
4, 63000, Note_on_c, 3, 84, 88
4, 63023, Note_on_c, 3, 84, 0
4, 63060, Note_on_c, 3, 82, 88
4, 63083, Note_on_c, 3, 82, 0
4, 63120, Note_on_c, 3, 81, 88
4, 63143, Note_on_c, 3, 81, 0
4, 63180, Note_on_c, 3, 82, 88
4, 63203, Note_on_c, 3, 82, 0
4, 63240, Note_on_c, 3, 84, 88
4, 63263, Note_on_c, 3, 84, 0
4, 63300, Note_on_c, 3, 84, 88
4, 63323, Note_on_c, 3, 84, 0
4, 63360, Note_on_c, 3, 82, 88
4, 63383, Note_on_c, 3, 82, 0
4, 63420, Note_on_c, 3, 84, 88
4, 63443, Note_on_c, 3, 84, 0
4, 63480, Note_on_c, 3, 82, 88
4, 63503, Note_on_c, 3, 82, 0
4, 63540, Note_on_c, 3, 81, 88
4, 63563, Note_on_c, 3, 81, 0
4, 63600, Note_on_c, 3, 79, 88
4, 63623, Note_on_c, 3, 79, 0
4, 63660, Note_on_c, 3, 81, 88
4, 63683, Note_on_c, 3, 81, 0
4, 63720, Note_on_c, 3, 79, 88
4, 63743, Note_on_c, 3, 79, 0
4, 63780, Note_on_c, 3, 77, 88
4, 63803, Note_on_c, 3, 77, 0
4, 63840, Note_on_c, 3, 76, 88
4, 63863, Note_on_c, 3, 76, 0
4, 63900, Note_on_c, 3, 77, 88
4, 63923, Note_on_c, 3, 77, 0
4, 63960, Note_on_c, 3, 76, 88
4, 63983, Note_on_c, 3, 76, 0
4, 64020, Note_on_c, 3, 74, 88
4, 64043, Note_on_c, 3, 74, 0
4, 64080, Note_on_c, 3, 72, 88
4, 64103, Note_on_c, 3, 72, 0
4, 64140, Note_on_c, 3, 74, 88
4, 64163, Note_on_c, 3, 74, 0
4, 64200, Note_on_c, 3, 72, 88
4, 64223, Note_on_c, 3, 72, 0
4, 64260, Note_on_c, 3, 70, 88
4, 64320, Note_on_c, 3, 70, 0
4, 64320, Note_on_c, 3, 69, 88
4, 64440, Note_on_c, 3, 69, 0
4, 64440, Note_on_c, 3, 77, 88
4, 64500, Note_on_c, 3, 77, 0
4, 64500, Note_on_c, 3, 72, 88
4, 64560, Note_on_c, 3, 72, 0
4, 64560, Note_on_c, 3, 72, 88
4, 64800, Note_on_c, 3, 72, 0
4, 65040, Note_on_c, 3, 72, 88
4, 65100, Note_on_c, 3, 72, 0
4, 65100, Note_on_c, 3, 76, 88
4, 65160, Note_on_c, 3, 76, 0
4, 65160, Note_on_c, 3, 77, 88
4, 65220, Note_on_c, 3, 77, 0
4, 65220, Note_on_c, 3, 81, 88
4, 65280, Note_on_c, 3, 81, 0
4, 65280, Note_on_c, 3, 84, 88
4, 65400, Note_on_c, 3, 84, 0
4, 65400, Note_on_c, 3, 76, 88
4, 65520, Note_on_c, 3, 76, 0
4, 65520, Note_on_c, 3, 76, 88
4, 65880, Note_on_c, 3, 76, 0
4, 65880, Note_on_c, 3, 76, 88
4, 65927, Note_on_c, 3, 76, 0
4, 66000, Note_on_c, 3, 76, 88
4, 66047, Note_on_c, 3, 76, 0
4, 66120, Note_on_c, 3, 76, 88
4, 66167, Note_on_c, 3, 76, 0
4, 66240, Note_on_c, 3, 77, 88
4, 66263, Note_on_c, 3, 77, 0
4, 66300, Note_on_c, 3, 81, 88
4, 66323, Note_on_c, 3, 81, 0
4, 66360, Note_on_c, 3, 84, 88
4, 66383, Note_on_c, 3, 84, 0
4, 66420, Note_on_c, 3, 82, 88
4, 66443, Note_on_c, 3, 82, 0
4, 66480, Note_on_c, 3, 81, 88
4, 66503, Note_on_c, 3, 81, 0
4, 66540, Note_on_c, 3, 82, 88
4, 66563, Note_on_c, 3, 82, 0
4, 66600, Note_on_c, 3, 84, 88
4, 66623, Note_on_c, 3, 84, 0
4, 66660, Note_on_c, 3, 84, 88
4, 66683, Note_on_c, 3, 84, 0
4, 66780, Note_on_c, 3, 81, 88
4, 66803, Note_on_c, 3, 81, 0
4, 66840, Note_on_c, 3, 84, 88
4, 66863, Note_on_c, 3, 84, 0
4, 66900, Note_on_c, 3, 82, 88
4, 66923, Note_on_c, 3, 82, 0
4, 66960, Note_on_c, 3, 81, 88
4, 66983, Note_on_c, 3, 81, 0
4, 67020, Note_on_c, 3, 82, 88
4, 67043, Note_on_c, 3, 82, 0
4, 67080, Note_on_c, 3, 84, 88
4, 67103, Note_on_c, 3, 84, 0
4, 67140, Note_on_c, 3, 84, 88
4, 67163, Note_on_c, 3, 84, 0
4, 67260, Note_on_c, 3, 81, 88
4, 67283, Note_on_c, 3, 81, 0
4, 67320, Note_on_c, 3, 84, 88
4, 67343, Note_on_c, 3, 84, 0
4, 67380, Note_on_c, 3, 82, 88
4, 67403, Note_on_c, 3, 82, 0
4, 67440, Note_on_c, 3, 81, 88
4, 67463, Note_on_c, 3, 81, 0
4, 67500, Note_on_c, 3, 82, 88
4, 67523, Note_on_c, 3, 82, 0
4, 67560, Note_on_c, 3, 84, 88
4, 67583, Note_on_c, 3, 84, 0
4, 67620, Note_on_c, 3, 84, 88
4, 67643, Note_on_c, 3, 84, 0
4, 67740, Note_on_c, 3, 81, 88
4, 67763, Note_on_c, 3, 81, 0
4, 67800, Note_on_c, 3, 84, 88
4, 67823, Note_on_c, 3, 84, 0
4, 67860, Note_on_c, 3, 82, 88
4, 67883, Note_on_c, 3, 82, 0
4, 67920, Note_on_c, 3, 81, 88
4, 67943, Note_on_c, 3, 81, 0
4, 67980, Note_on_c, 3, 82, 88
4, 68003, Note_on_c, 3, 82, 0
4, 68040, Note_on_c, 3, 84, 88
4, 68063, Note_on_c, 3, 84, 0
4, 68100, Note_on_c, 3, 84, 88
4, 68123, Note_on_c, 3, 84, 0
4, 68220, Note_on_c, 3, 82, 88
4, 68243, Note_on_c, 3, 82, 0
4, 68280, Note_on_c, 3, 86, 88
4, 68303, Note_on_c, 3, 86, 0
4, 68340, Note_on_c, 3, 84, 88
4, 68363, Note_on_c, 3, 84, 0
4, 68400, Note_on_c, 3, 82, 88
4, 68423, Note_on_c, 3, 82, 0
4, 68460, Note_on_c, 3, 84, 88
4, 68483, Note_on_c, 3, 84, 0
4, 68520, Note_on_c, 3, 86, 88
4, 68543, Note_on_c, 3, 86, 0
4, 68580, Note_on_c, 3, 86, 88
4, 68603, Note_on_c, 3, 86, 0
4, 68700, Note_on_c, 3, 82, 88
4, 68723, Note_on_c, 3, 82, 0
4, 68760, Note_on_c, 3, 86, 88
4, 68783, Note_on_c, 3, 86, 0
4, 68820, Note_on_c, 3, 84, 88
4, 68843, Note_on_c, 3, 84, 0
4, 68880, Note_on_c, 3, 82, 88
4, 68903, Note_on_c, 3, 82, 0
4, 68940, Note_on_c, 3, 84, 88
4, 68963, Note_on_c, 3, 84, 0
4, 69000, Note_on_c, 3, 86, 88
4, 69023, Note_on_c, 3, 86, 0
4, 69060, Note_on_c, 3, 86, 88
4, 69083, Note_on_c, 3, 86, 0
4, 69120, Note_on_c, 3, 74, 88
4, 69240, Note_on_c, 3, 74, 0
4, 69240, Note_on_c, 3, 72, 88
4, 69360, Note_on_c, 3, 72, 0
4, 69360, Note_on_c, 3, 72, 88
4, 69720, Note_on_c, 3, 72, 0
4, 69720, Note_on_c, 3, 78, 88
4, 69840, Note_on_c, 3, 78, 0
4, 69840, Note_on_c, 3, 81, 88
4, 69960, Note_on_c, 3, 81, 0
4, 69960, Note_on_c, 3, 72, 88
4, 70080, Note_on_c, 3, 72, 0
4, 70080, Note_on_c, 3, 70, 88
4, 70140, Note_on_c, 3, 70, 0
4, 70140, Note_on_c, 3, 74, 88
4, 70200, Note_on_c, 3, 74, 0
4, 70200, Note_on_c, 3, 79, 88
4, 70260, Note_on_c, 3, 79, 0
4, 70260, Note_on_c, 3, 74, 88
4, 70320, Note_on_c, 3, 74, 0
4, 70320, Note_on_c, 3, 74, 88
4, 70416, Note_on_c, 3, 74, 0
4, 70800, Note_on_c, 3, 81, 92
4, 70820, Note_on_c, 3, 79, 94
4, 70840, Note_on_c, 3, 81, 95
4, 70845, Note_on_c, 3, 81, 0
4, 70860, Note_on_c, 3, 79, 97
4, 70865, Note_on_c, 3, 79, 0
4, 70880, Note_on_c, 3, 81, 94
4, 70885, Note_on_c, 3, 81, 0
4, 70900, Note_on_c, 3, 79, 94
4, 70905, Note_on_c, 3, 79, 0
4, 70920, Note_on_c, 3, 78, 94
4, 70925, Note_on_c, 3, 81, 0
4, 70945, Note_on_c, 3, 79, 0
4, 70980, Note_on_c, 3, 79, 88
4, 71010, Note_on_c, 3, 78, 0
4, 71040, Note_on_c, 3, 82, 95
4, 71070, Note_on_c, 3, 79, 0
4, 71160, Note_on_c, 3, 82, 0
4, 71160, Note_on_c, 3, 73, 88
4, 71280, Note_on_c, 3, 73, 0
4, 71280, Note_on_c, 3, 73, 88
4, 71640, Note_on_c, 3, 73, 0
4, 71640, Note_on_c, 3, 79, 88
4, 71760, Note_on_c, 3, 79, 0
4, 71760, Note_on_c, 3, 82, 88
4, 71880, Note_on_c, 3, 82, 0
4, 71880, Note_on_c, 3, 73, 88
4, 72000, Note_on_c, 3, 73, 0
4, 72000, Note_on_c, 3, 75, 91
4, 72020, Note_on_c, 3, 74, 92
4, 72040, Note_on_c, 3, 75, 93
4, 72045, Note_on_c, 3, 75, 0
4, 72060, Note_on_c, 3, 74, 93
4, 72065, Note_on_c, 3, 74, 0
4, 72080, Note_on_c, 3, 75, 93
4, 72085, Note_on_c, 3, 75, 0
4, 72100, Note_on_c, 3, 74, 93
4, 72105, Note_on_c, 3, 74, 0
4, 72120, Note_on_c, 3, 75, 93
4, 72125, Note_on_c, 3, 75, 0
4, 72145, Note_on_c, 3, 74, 0
4, 72150, Note_on_c, 3, 74, 93
4, 72165, Note_on_c, 3, 75, 0
4, 72180, Note_on_c, 3, 72, 93
4, 72195, Note_on_c, 3, 74, 0
4, 72240, Note_on_c, 3, 74, 93
4, 72270, Note_on_c, 3, 72, 0
4, 72480, Note_on_c, 3, 74, 0
4, 72600, Note_on_c, 3, 81, 88
4, 72720, Note_on_c, 3, 81, 0
4, 72720, Note_on_c, 3, 86, 88
4, 72840, Note_on_c, 3, 86, 0
4, 72840, Note_on_c, 3, 84, 88
4, 72960, Note_on_c, 3, 84, 0
4, 72960, Note_on_c, 3, 82, 88
4, 73080, Note_on_c, 3, 82, 0
4, 73080, Note_on_c, 3, 79, 88
4, 73320, Note_on_c, 3, 79, 0
4, 73320, Note_on_c, 3, 75, 88
4, 73560, Note_on_c, 3, 75, 0
4, 73560, Note_on_c, 3, 74, 88
4, 73800, Note_on_c, 3, 74, 0
4, 73800, Note_on_c, 3, 73, 88
4, 73920, Note_on_c, 3, 73, 0
4, 73920, Note_on_c, 3, 76, 88
4, 74040, Note_on_c, 3, 76, 0
4, 74040, Note_on_c, 3, 74, 88
4, 74160, Note_on_c, 3, 74, 0
4, 74160, Note_on_c, 3, 74, 62
4, 74256, Note_on_c, 3, 74, 0
4, 74400, Note_on_c, 3, 74, 62
4, 74496, Note_on_c, 3, 74, 0
4, 74640, Note_on_c, 3, 74, 62
4, 74736, Note_on_c, 3, 74, 0
4, 74880, Note_on_c, 3, 74, 62
4, 75120, Note_on_c, 3, 74, 0
4, 75120, Note_on_c, 3, 77, 62
4, 75300, Note_on_c, 3, 77, 0
4, 75300, Note_on_c, 3, 75, 62
4, 75360, Note_on_c, 3, 75, 0
4, 75360, Note_on_c, 3, 75, 78
4, 75900, Note_on_c, 3, 75, 0
4, 75900, Note_on_c, 3, 74, 62
4, 75960, Note_on_c, 3, 74, 0
4, 75960, Note_on_c, 3, 72, 62
4, 76020, Note_on_c, 3, 72, 0
4, 76020, Note_on_c, 3, 70, 62
4, 76080, Note_on_c, 3, 70, 0
4, 76080, Note_on_c, 3, 69, 62
4, 76140, Note_on_c, 3, 69, 0
4, 76140, Note_on_c, 3, 70, 62
4, 76200, Note_on_c, 3, 70, 0
4, 76200, Note_on_c, 3, 72, 62
4, 76260, Note_on_c, 3, 72, 0
4, 76260, Note_on_c, 3, 74, 62
4, 76320, Note_on_c, 3, 74, 0
4, 76320, Note_on_c, 3, 75, 62
4, 76440, Note_on_c, 3, 75, 0
4, 76440, Note_on_c, 3, 76, 62
4, 76560, Note_on_c, 3, 76, 0
4, 76560, Note_on_c, 3, 79, 62
4, 76680, Note_on_c, 3, 79, 0
4, 76680, Note_on_c, 3, 77, 62
4, 76800, Note_on_c, 3, 77, 0
4, 76800, Note_on_c, 3, 74, 62
4, 76800, Note_on_c, 3, 77, 62
4, 77160, Note_on_c, 3, 77, 0
4, 77160, Note_on_c, 3, 74, 0
4, 77160, Note_on_c, 3, 72, 62
4, 77160, Note_on_c, 3, 75, 62
4, 77280, Note_on_c, 3, 75, 0
4, 77280, Note_on_c, 3, 72, 0
4, 77280, Note_on_c, 3, 70, 62
4, 77280, Note_on_c, 3, 74, 62
4, 77520, Note_on_c, 3, 74, 0
4, 77520, Note_on_c, 3, 70, 0
4, 77520, Note_on_c, 3, 66, 62
4, 77520, Note_on_c, 3, 74, 62
4, 77760, Note_on_c, 3, 74, 0
4, 77760, Note_on_c, 3, 66, 0
4, 77760, Note_on_c, 3, 67, 62
4, 77760, Note_on_c, 3, 74, 62
4, 78120, Note_on_c, 3, 74, 0
4, 78120, Note_on_c, 3, 67, 0
4, 78120, Note_on_c, 3, 79, 62
4, 78240, Note_on_c, 3, 79, 0
4, 78240, Note_on_c, 3, 72, 62
4, 78480, Note_on_c, 3, 72, 0
4, 78480, Note_on_c, 3, 70, 62
4, 78480, Note_on_c, 3, 72, 62
4, 78720, Note_on_c, 3, 72, 0
4, 78720, Note_on_c, 3, 70, 0
4, 78720, Note_on_c, 3, 69, 71
4, 78720, Note_on_c, 3, 72, 71
4, 78840, Note_on_c, 3, 72, 0
4, 78840, Note_on_c, 3, 69, 0
4, 78840, Note_on_c, 3, 72, 73
4, 78840, Note_on_c, 3, 75, 73
4, 78960, Note_on_c, 3, 75, 0
4, 78960, Note_on_c, 3, 72, 0
4, 78960, Note_on_c, 3, 70, 75
4, 78960, Note_on_c, 3, 74, 75
4, 79080, Note_on_c, 3, 74, 0
4, 79080, Note_on_c, 3, 70, 0
4, 79080, Note_on_c, 3, 69, 77
4, 79080, Note_on_c, 3, 72, 77
4, 79103, Note_on_c, 3, 69, 0
4, 79127, Note_on_c, 3, 72, 0
4, 79200, Note_on_c, 3, 75, 79
4, 79200, Note_on_c, 3, 79, 79
4, 79320, Note_on_c, 3, 79, 0
4, 79320, Note_on_c, 3, 75, 0
4, 79320, Note_on_c, 3, 74, 81
4, 79320, Note_on_c, 3, 77, 81
4, 79343, Note_on_c, 3, 74, 0
4, 79367, Note_on_c, 3, 77, 0
4, 79440, Note_on_c, 3, 74, 84
4, 79440, Note_on_c, 3, 77, 84
4, 79560, Note_on_c, 3, 77, 0
4, 79560, Note_on_c, 3, 74, 0
4, 79560, Note_on_c, 3, 72, 83
4, 79560, Note_on_c, 3, 75, 83
4, 79583, Note_on_c, 3, 72, 0
4, 79607, Note_on_c, 3, 75, 0
4, 79680, Note_on_c, 3, 72, 81
4, 79680, Note_on_c, 3, 75, 81
4, 79800, Note_on_c, 3, 75, 0
4, 79800, Note_on_c, 3, 72, 0
4, 79800, Note_on_c, 3, 70, 80
4, 79800, Note_on_c, 3, 74, 80
4, 79823, Note_on_c, 3, 70, 0
4, 79847, Note_on_c, 3, 74, 0
4, 79920, Note_on_c, 3, 75, 78
4, 79920, Note_on_c, 3, 79, 78
4, 80040, Note_on_c, 3, 79, 0
4, 80040, Note_on_c, 3, 75, 0
4, 80040, Note_on_c, 3, 74, 77
4, 80040, Note_on_c, 3, 77, 77
4, 80063, Note_on_c, 3, 74, 0
4, 80087, Note_on_c, 3, 77, 0
4, 80160, Note_on_c, 3, 74, 75
4, 80160, Note_on_c, 3, 77, 75
4, 80760, Note_on_c, 3, 77, 0
4, 80760, Note_on_c, 3, 74, 0
4, 80760, Note_on_c, 3, 82, 62
4, 80880, Note_on_c, 3, 82, 0
4, 80880, Note_on_c, 3, 81, 62
4, 81000, Note_on_c, 3, 81, 0
4, 81000, Note_on_c, 3, 79, 62
4, 81120, Note_on_c, 3, 79, 0
4, 81120, Note_on_c, 3, 77, 62
4, 81240, Note_on_c, 3, 77, 0
4, 81240, Note_on_c, 3, 75, 62
4, 81360, Note_on_c, 3, 75, 0
4, 81360, Note_on_c, 3, 74, 62
4, 81480, Note_on_c, 3, 74, 0
4, 81480, Note_on_c, 3, 72, 62
4, 81600, Note_on_c, 3, 72, 0
4, 81600, Note_on_c, 3, 70, 62
4, 81840, Note_on_c, 3, 70, 0
4, 82080, Note_on_c, 3, 82, 88
4, 82200, Note_on_c, 3, 82, 0
4, 82200, Note_on_c, 3, 81, 88
4, 82320, Note_on_c, 3, 81, 0
4, 82320, Note_on_c, 3, 79, 88
4, 82440, Note_on_c, 3, 79, 0
4, 82440, Note_on_c, 3, 78, 88
4, 82487, Note_on_c, 3, 78, 0
4, 82560, Note_on_c, 3, 78, 88
4, 82680, Note_on_c, 3, 78, 0
4, 82680, Note_on_c, 3, 79, 88
4, 82727, Note_on_c, 3, 79, 0
4, 82800, Note_on_c, 3, 79, 88
4, 82847, Note_on_c, 3, 79, 0
4, 82920, Note_on_c, 3, 79, 88
4, 82967, Note_on_c, 3, 79, 0
4, 83160, Note_on_c, 3, 71, 62
4, 83160, Note_on_c, 3, 74, 62
4, 83280, Note_on_c, 3, 74, 0
4, 83280, Note_on_c, 3, 71, 0
4, 83280, Note_on_c, 3, 72, 62
4, 83280, Note_on_c, 3, 75, 62
4, 83400, Note_on_c, 3, 75, 0
4, 83400, Note_on_c, 3, 72, 0
4, 83400, Note_on_c, 3, 74, 62
4, 83400, Note_on_c, 3, 77, 62
4, 83423, Note_on_c, 3, 74, 0
4, 83447, Note_on_c, 3, 77, 0
4, 83520, Note_on_c, 3, 74, 62
4, 83520, Note_on_c, 3, 77, 62
4, 83640, Note_on_c, 3, 77, 0
4, 83640, Note_on_c, 3, 74, 0
4, 83640, Note_on_c, 3, 72, 62
4, 83640, Note_on_c, 3, 75, 62
4, 83663, Note_on_c, 3, 72, 0
4, 83687, Note_on_c, 3, 75, 0
4, 83760, Note_on_c, 3, 72, 62
4, 83760, Note_on_c, 3, 75, 62
4, 84000, Note_on_c, 3, 75, 0
4, 84000, Note_on_c, 3, 72, 0
4, 84000, Note_on_c, 3, 75, 88
4, 84120, Note_on_c, 3, 75, 0
4, 84120, Note_on_c, 3, 74, 88
4, 84240, Note_on_c, 3, 74, 0
4, 84240, Note_on_c, 3, 72, 88
4, 84360, Note_on_c, 3, 72, 0
4, 84360, Note_on_c, 3, 71, 88
4, 84407, Note_on_c, 3, 71, 0
4, 84480, Note_on_c, 3, 71, 88
4, 84540, Note_on_c, 3, 71, 0
4, 84540, Note_on_c, 3, 72, 88
4, 84600, Note_on_c, 3, 72, 0
4, 84600, Note_on_c, 3, 74, 88
4, 84660, Note_on_c, 3, 74, 0
4, 84660, Note_on_c, 3, 72, 88
4, 84720, Note_on_c, 3, 72, 0
4, 84720, Note_on_c, 3, 74, 88
4, 84780, Note_on_c, 3, 74, 0
4, 84780, Note_on_c, 3, 75, 88
4, 84840, Note_on_c, 3, 75, 0
4, 84840, Note_on_c, 3, 77, 88
4, 84900, Note_on_c, 3, 77, 0
4, 84900, Note_on_c, 3, 75, 88
4, 84960, Note_on_c, 3, 75, 0
4, 84960, Note_on_c, 3, 78, 88
4, 85020, Note_on_c, 3, 78, 0
4, 85020, Note_on_c, 3, 79, 88
4, 85080, Note_on_c, 3, 79, 0
4, 85080, Note_on_c, 3, 81, 88
4, 85140, Note_on_c, 3, 81, 0
4, 85140, Note_on_c, 3, 79, 88
4, 85200, Note_on_c, 3, 79, 0
4, 85200, Note_on_c, 3, 77, 88
4, 85260, Note_on_c, 3, 77, 0
4, 85260, Note_on_c, 3, 75, 88
4, 85320, Note_on_c, 3, 75, 0
4, 85320, Note_on_c, 3, 74, 88
4, 85380, Note_on_c, 3, 74, 0
4, 85380, Note_on_c, 3, 72, 88
4, 85440, Note_on_c, 3, 72, 0
4, 85440, Note_on_c, 3, 70, 88
4, 85680, Note_on_c, 3, 70, 0
4, 85680, Note_on_c, 3, 69, 88
4, 85800, Note_on_c, 3, 69, 0
4, 85860, Note_on_c, 3, 81, 88
4, 85920, Note_on_c, 3, 81, 0
4, 85920, Note_on_c, 3, 84, 88
4, 85980, Note_on_c, 3, 84, 0
4, 85980, Note_on_c, 3, 82, 88
4, 86040, Note_on_c, 3, 82, 0
4, 86040, Note_on_c, 3, 81, 88
4, 86100, Note_on_c, 3, 81, 0
4, 86100, Note_on_c, 3, 79, 88
4, 86160, Note_on_c, 3, 79, 0
4, 86160, Note_on_c, 3, 81, 88
4, 86220, Note_on_c, 3, 81, 0
4, 86220, Note_on_c, 3, 79, 88
4, 86280, Note_on_c, 3, 79, 0
4, 86280, Note_on_c, 3, 77, 88
4, 86340, Note_on_c, 3, 77, 0
4, 86340, Note_on_c, 3, 76, 88
4, 86400, Note_on_c, 3, 76, 0
4, 86400, Note_on_c, 3, 76, 88
4, 86640, Note_on_c, 3, 76, 0
4, 86640, Note_on_c, 3, 77, 88
4, 86880, Note_on_c, 3, 77, 0
4, 87840, Note_on_c, 3, 65, 88
4, 87900, Note_on_c, 3, 65, 0
4, 87900, Note_on_c, 3, 69, 88
4, 87960, Note_on_c, 3, 69, 0
4, 87960, Note_on_c, 3, 72, 88
4, 88020, Note_on_c, 3, 72, 0
4, 88020, Note_on_c, 3, 69, 88
4, 88080, Note_on_c, 3, 69, 0
4, 88080, Note_on_c, 3, 65, 88
4, 88140, Note_on_c, 3, 65, 0
4, 88140, Note_on_c, 3, 63, 88
4, 88200, Note_on_c, 3, 63, 0
4, 88200, Note_on_c, 3, 62, 88
4, 88260, Note_on_c, 3, 62, 0
4, 88260, Note_on_c, 3, 60, 88
4, 88320, Note_on_c, 3, 60, 0
4, 88320, Note_on_c, 3, 62, 88
4, 88380, Note_on_c, 3, 62, 0
4, 88380, Note_on_c, 3, 65, 88
4, 88440, Note_on_c, 3, 65, 0
4, 88440, Note_on_c, 3, 70, 88
4, 88500, Note_on_c, 3, 70, 0
4, 88500, Note_on_c, 3, 65, 88
4, 88560, Note_on_c, 3, 65, 0
4, 88560, Note_on_c, 3, 74, 88
4, 88620, Note_on_c, 3, 74, 0
4, 88620, Note_on_c, 3, 70, 88
4, 88680, Note_on_c, 3, 70, 0
4, 88680, Note_on_c, 3, 65, 88
4, 88740, Note_on_c, 3, 65, 0
4, 88740, Note_on_c, 3, 70, 88
4, 88800, Note_on_c, 3, 70, 0
4, 88800, Note_on_c, 3, 62, 88
4, 88860, Note_on_c, 3, 62, 0
4, 88860, Note_on_c, 3, 65, 88
4, 88920, Note_on_c, 3, 65, 0
4, 88920, Note_on_c, 3, 70, 88
4, 88980, Note_on_c, 3, 70, 0
4, 88980, Note_on_c, 3, 65, 88
4, 89040, Note_on_c, 3, 65, 0
4, 89040, Note_on_c, 3, 74, 88
4, 89100, Note_on_c, 3, 74, 0
4, 89100, Note_on_c, 3, 70, 88
4, 89160, Note_on_c, 3, 70, 0
4, 89160, Note_on_c, 3, 65, 88
4, 89220, Note_on_c, 3, 65, 0
4, 89220, Note_on_c, 3, 70, 88
4, 89280, Note_on_c, 3, 70, 0
4, 89280, Note_on_c, 3, 60, 88
4, 89340, Note_on_c, 3, 60, 0
4, 89340, Note_on_c, 3, 63, 88
4, 89400, Note_on_c, 3, 63, 0
4, 89400, Note_on_c, 3, 65, 88
4, 89460, Note_on_c, 3, 65, 0
4, 89460, Note_on_c, 3, 63, 88
4, 89520, Note_on_c, 3, 63, 0
4, 89520, Note_on_c, 3, 72, 88
4, 89580, Note_on_c, 3, 72, 0
4, 89580, Note_on_c, 3, 65, 88
4, 89640, Note_on_c, 3, 65, 0
4, 89640, Note_on_c, 3, 63, 88
4, 89700, Note_on_c, 3, 63, 0
4, 89700, Note_on_c, 3, 65, 88
4, 89760, Note_on_c, 3, 65, 0
4, 89760, Note_on_c, 3, 60, 88
4, 89820, Note_on_c, 3, 60, 0
4, 89820, Note_on_c, 3, 63, 88
4, 89880, Note_on_c, 3, 63, 0
4, 89880, Note_on_c, 3, 65, 88
4, 89940, Note_on_c, 3, 65, 0
4, 89940, Note_on_c, 3, 63, 88
4, 90000, Note_on_c, 3, 63, 0
4, 90000, Note_on_c, 3, 72, 88
4, 90060, Note_on_c, 3, 72, 0
4, 90060, Note_on_c, 3, 65, 88
4, 90120, Note_on_c, 3, 65, 0
4, 90120, Note_on_c, 3, 63, 88
4, 90180, Note_on_c, 3, 63, 0
4, 90180, Note_on_c, 3, 65, 88
4, 90240, Note_on_c, 3, 65, 0
4, 90240, Note_on_c, 3, 53, 88
4, 90300, Note_on_c, 3, 53, 0
4, 90300, Note_on_c, 3, 60, 88
4, 90360, Note_on_c, 3, 60, 0
4, 90360, Note_on_c, 3, 63, 88
4, 90420, Note_on_c, 3, 63, 0
4, 90420, Note_on_c, 3, 60, 88
4, 90480, Note_on_c, 3, 60, 0
4, 90480, Note_on_c, 3, 65, 88
4, 90540, Note_on_c, 3, 65, 0
4, 90540, Note_on_c, 3, 63, 88
4, 90600, Note_on_c, 3, 63, 0
4, 90600, Note_on_c, 3, 60, 88
4, 90660, Note_on_c, 3, 60, 0
4, 90660, Note_on_c, 3, 63, 88
4, 90720, Note_on_c, 3, 63, 0
4, 90720, Note_on_c, 3, 53, 88
4, 90780, Note_on_c, 3, 53, 0
4, 90780, Note_on_c, 3, 60, 88
4, 90840, Note_on_c, 3, 60, 0
4, 90840, Note_on_c, 3, 63, 88
4, 90900, Note_on_c, 3, 63, 0
4, 90900, Note_on_c, 3, 60, 88
4, 90960, Note_on_c, 3, 60, 0
4, 90960, Note_on_c, 3, 65, 88
4, 91020, Note_on_c, 3, 65, 0
4, 91020, Note_on_c, 3, 63, 88
4, 91080, Note_on_c, 3, 63, 0
4, 91080, Note_on_c, 3, 60, 88
4, 91140, Note_on_c, 3, 60, 0
4, 91140, Note_on_c, 3, 63, 88
4, 91200, Note_on_c, 3, 63, 0
4, 91200, Note_on_c, 3, 53, 88
4, 91260, Note_on_c, 3, 53, 0
4, 91260, Note_on_c, 3, 58, 88
4, 91320, Note_on_c, 3, 58, 0
4, 91320, Note_on_c, 3, 62, 88
4, 91380, Note_on_c, 3, 62, 0
4, 91380, Note_on_c, 3, 58, 88
4, 91440, Note_on_c, 3, 58, 0
4, 91440, Note_on_c, 3, 65, 88
4, 91500, Note_on_c, 3, 65, 0
4, 91500, Note_on_c, 3, 62, 88
4, 91560, Note_on_c, 3, 62, 0
4, 91560, Note_on_c, 3, 58, 88
4, 91620, Note_on_c, 3, 58, 0
4, 91620, Note_on_c, 3, 62, 88
4, 91680, Note_on_c, 3, 62, 0
4, 91680, Note_on_c, 3, 70, 88
4, 91920, Note_on_c, 3, 70, 0
4, 91920, Note_on_c, 3, 82, 102
4, 92160, Note_on_c, 3, 82, 0
4, 92160, Note_on_c, 3, 81, 102
4, 92280, Note_on_c, 3, 81, 0
4, 92280, Note_on_c, 3, 79, 101
4, 92400, Note_on_c, 3, 79, 0
4, 92400, Note_on_c, 3, 79, 101
4, 92700, Note_on_c, 3, 79, 0
4, 92700, Note_on_c, 3, 81, 100
4, 92760, Note_on_c, 3, 81, 0
4, 92760, Note_on_c, 3, 82, 102
4, 92820, Note_on_c, 3, 82, 0
4, 92820, Note_on_c, 3, 79, 101
4, 92880, Note_on_c, 3, 79, 0
4, 92880, Note_on_c, 3, 77, 100
4, 92940, Note_on_c, 3, 77, 0
4, 92940, Note_on_c, 3, 79, 99
4, 93000, Note_on_c, 3, 79, 0
4, 93000, Note_on_c, 3, 80, 98
4, 93060, Note_on_c, 3, 80, 0
4, 93060, Note_on_c, 3, 77, 98
4, 93120, Note_on_c, 3, 77, 0
4, 93120, Note_on_c, 3, 75, 97
4, 93180, Note_on_c, 3, 75, 0
4, 93180, Note_on_c, 3, 77, 96
4, 93240, Note_on_c, 3, 77, 0
4, 93240, Note_on_c, 3, 79, 95
4, 93300, Note_on_c, 3, 79, 0
4, 93300, Note_on_c, 3, 77, 94
4, 93360, Note_on_c, 3, 77, 0
4, 93360, Note_on_c, 3, 75, 103
4, 93660, Note_on_c, 3, 75, 0
4, 93660, Note_on_c, 3, 77, 112
4, 93720, Note_on_c, 3, 77, 0
4, 93720, Note_on_c, 3, 79, 99
4, 93780, Note_on_c, 3, 79, 0
4, 93780, Note_on_c, 3, 75, 98
4, 93840, Note_on_c, 3, 75, 0
4, 93840, Note_on_c, 3, 74, 98
4, 93900, Note_on_c, 3, 74, 0
4, 93900, Note_on_c, 3, 75, 98
4, 93960, Note_on_c, 3, 75, 0
4, 93960, Note_on_c, 3, 77, 97
4, 94020, Note_on_c, 3, 77, 0
4, 94020, Note_on_c, 3, 74, 97
4, 94080, Note_on_c, 3, 74, 0
4, 94080, Note_on_c, 3, 72, 96
4, 94140, Note_on_c, 3, 72, 0
4, 94140, Note_on_c, 3, 74, 96
4, 94200, Note_on_c, 3, 74, 0
4, 94200, Note_on_c, 3, 75, 96
4, 94260, Note_on_c, 3, 75, 0
4, 94260, Note_on_c, 3, 74, 95
4, 94320, Note_on_c, 3, 74, 0
4, 94320, Note_on_c, 3, 72, 95
4, 94440, Note_on_c, 3, 72, 0
4, 94440, Note_on_c, 3, 79, 113
4, 94487, Note_on_c, 3, 79, 0
4, 94560, Note_on_c, 3, 77, 112
4, 94680, Note_on_c, 3, 77, 0
4, 94680, Note_on_c, 3, 79, 110
4, 94740, Note_on_c, 3, 79, 0
4, 94740, Note_on_c, 3, 75, 109
4, 94800, Note_on_c, 3, 75, 0
4, 94800, Note_on_c, 3, 74, 108
4, 94920, Note_on_c, 3, 74, 0
4, 94920, Note_on_c, 3, 75, 106
4, 94980, Note_on_c, 3, 75, 0
4, 94980, Note_on_c, 3, 72, 105
4, 95040, Note_on_c, 3, 72, 0
4, 95040, Note_on_c, 3, 70, 104
4, 95520, Note_on_c, 3, 70, 0
4, 95520, Note_on_c, 3, 69, 88
4, 95760, Note_on_c, 3, 69, 0
4, 95760, Note_on_c, 3, 82, 79
4, 95820, Note_on_c, 3, 82, 0
4, 95820, Note_on_c, 3, 81, 76
4, 95880, Note_on_c, 3, 81, 0
4, 95880, Note_on_c, 3, 79, 73
4, 95940, Note_on_c, 3, 79, 0
4, 95940, Note_on_c, 3, 77, 69
4, 96000, Note_on_c, 3, 77, 0
4, 96000, Note_on_c, 3, 82, 66
4, 96120, Note_on_c, 3, 82, 0
4, 96120, Note_on_c, 3, 89, 62
4, 96240, Note_on_c, 3, 89, 0
4, 96360, Note_on_c, 3, 86, 62
4, 96407, Note_on_c, 3, 86, 0
4, 96600, Note_on_c, 3, 87, 62
4, 96647, Note_on_c, 3, 87, 0
4, 96840, Note_on_c, 3, 84, 62
4, 96887, Note_on_c, 3, 84, 0
4, 96960, Note_on_c, 3, 82, 72
4, 97200, Note_on_c, 3, 82, 0
4, 97200, Note_on_c, 3, 86, 81
4, 97296, Note_on_c, 3, 86, 0
4, 97440, Note_on_c, 3, 84, 78
4, 97680, Note_on_c, 3, 84, 0
4, 97680, Note_on_c, 3, 82, 62
4, 97740, Note_on_c, 3, 82, 0
4, 97740, Note_on_c, 3, 81, 62
4, 97800, Note_on_c, 3, 81, 0
4, 97800, Note_on_c, 3, 79, 62
4, 97860, Note_on_c, 3, 79, 0
4, 97860, Note_on_c, 3, 77, 62
4, 97920, Note_on_c, 3, 77, 0
4, 97920, Note_on_c, 3, 82, 62
4, 98040, Note_on_c, 3, 82, 0
4, 98040, Note_on_c, 3, 77, 62
4, 98160, Note_on_c, 3, 77, 0
4, 98280, Note_on_c, 3, 74, 62
4, 98327, Note_on_c, 3, 74, 0
4, 98520, Note_on_c, 3, 75, 62
4, 98567, Note_on_c, 3, 75, 0
4, 98760, Note_on_c, 3, 72, 62
4, 98807, Note_on_c, 3, 72, 0
4, 98880, Note_on_c, 3, 70, 73
4, 99120, Note_on_c, 3, 70, 0
4, 99120, Note_on_c, 3, 74, 82
4, 99360, Note_on_c, 3, 74, 0
4, 99360, Note_on_c, 3, 72, 78
4, 99600, Note_on_c, 3, 72, 0
4, 99600, Note_on_c, 3, 65, 62
4, 99840, Note_on_c, 3, 65, 0
4, 99840, Note_on_c, 3, 70, 71
4, 99960, Note_on_c, 3, 70, 0
4, 99960, Note_on_c, 3, 71, 72
4, 100080, Note_on_c, 3, 71, 0
4, 100080, Note_on_c, 3, 72, 74
4, 100200, Note_on_c, 3, 72, 0
4, 100200, Note_on_c, 3, 73, 75
4, 100320, Note_on_c, 3, 73, 0
4, 100320, Note_on_c, 3, 74, 77
4, 100440, Note_on_c, 3, 74, 0
4, 100440, Note_on_c, 3, 75, 78
4, 100560, Note_on_c, 3, 75, 0
4, 100560, Note_on_c, 3, 76, 80
4, 100680, Note_on_c, 3, 76, 0
4, 100680, Note_on_c, 3, 77, 82
4, 100800, Note_on_c, 3, 77, 0
4, 100800, Note_on_c, 3, 74, 83
4, 100800, Note_on_c, 3, 78, 83
4, 100920, Note_on_c, 3, 78, 0
4, 100920, Note_on_c, 3, 74, 0
4, 100920, Note_on_c, 3, 75, 88
4, 100920, Note_on_c, 3, 79, 88
4, 100943, Note_on_c, 3, 75, 0
4, 100967, Note_on_c, 3, 79, 0
4, 101040, Note_on_c, 3, 75, 88
4, 101040, Note_on_c, 3, 79, 88
4, 101087, Note_on_c, 3, 75, 0
4, 101136, Note_on_c, 3, 79, 0
4, 101760, Note_on_c, 3, 73, 62
4, 101760, Note_on_c, 3, 76, 62
4, 101880, Note_on_c, 3, 76, 0
4, 101880, Note_on_c, 3, 73, 0
4, 101880, Note_on_c, 3, 74, 62
4, 101880, Note_on_c, 3, 77, 62
4, 101903, Note_on_c, 3, 74, 0
4, 101927, Note_on_c, 3, 77, 0
4, 102000, Note_on_c, 3, 74, 62
4, 102000, Note_on_c, 3, 77, 62
4, 102023, Note_on_c, 3, 74, 0
4, 102047, Note_on_c, 3, 77, 0
4, 102120, Note_on_c, 3, 74, 62
4, 102120, Note_on_c, 3, 77, 62
4, 102143, Note_on_c, 3, 74, 0
4, 102167, Note_on_c, 3, 77, 0
4, 102240, Note_on_c, 3, 71, 62
4, 102240, Note_on_c, 3, 74, 62
4, 102360, Note_on_c, 3, 74, 0
4, 102360, Note_on_c, 3, 71, 0
4, 102360, Note_on_c, 3, 72, 62
4, 102360, Note_on_c, 3, 75, 62
4, 102383, Note_on_c, 3, 72, 0
4, 102407, Note_on_c, 3, 75, 0
4, 102480, Note_on_c, 3, 72, 62
4, 102480, Note_on_c, 3, 75, 62
4, 102503, Note_on_c, 3, 72, 0
4, 102527, Note_on_c, 3, 75, 0
4, 102600, Note_on_c, 3, 72, 62
4, 102600, Note_on_c, 3, 75, 62
4, 102623, Note_on_c, 3, 72, 0
4, 102647, Note_on_c, 3, 75, 0
4, 102720, Note_on_c, 3, 69, 62
4, 102720, Note_on_c, 3, 73, 62
4, 102840, Note_on_c, 3, 73, 0
4, 102840, Note_on_c, 3, 69, 0
4, 102840, Note_on_c, 3, 70, 62
4, 102840, Note_on_c, 3, 74, 62
4, 102863, Note_on_c, 3, 70, 0
4, 102887, Note_on_c, 3, 74, 0
4, 102960, Note_on_c, 3, 70, 62
4, 102960, Note_on_c, 3, 74, 62
4, 102983, Note_on_c, 3, 70, 0
4, 103007, Note_on_c, 3, 74, 0
4, 103080, Note_on_c, 3, 70, 67
4, 103080, Note_on_c, 3, 74, 67
4, 103080, Note_on_c, 3, 74, 67
4, 103103, Note_on_c, 3, 70, 0
4, 103127, Note_on_c, 3, 74, 0
4, 103140, Note_on_c, 3, 74, 0
4, 103152, Note_on_c, 3, 71, 75
4, 103172, Note_on_c, 3, 77, 75
4, 103200, Note_on_c, 3, 80, 89
4, 103212, Note_on_c, 3, 71, 0
4, 103232, Note_on_c, 3, 77, 0
4, 103740, Note_on_c, 3, 80, 0
4, 103740, Note_on_c, 3, 79, 88
4, 103800, Note_on_c, 3, 79, 0
4, 103800, Note_on_c, 3, 78, 88
4, 103860, Note_on_c, 3, 78, 0
4, 103860, Note_on_c, 3, 79, 88
4, 103920, Note_on_c, 3, 79, 0
4, 103920, Note_on_c, 3, 77, 88
4, 103980, Note_on_c, 3, 77, 0
4, 103980, Note_on_c, 3, 75, 88
4, 104040, Note_on_c, 3, 75, 0
4, 104040, Note_on_c, 3, 74, 88
4, 104100, Note_on_c, 3, 74, 0
4, 104100, Note_on_c, 3, 72, 88
4, 104160, Note_on_c, 3, 72, 0
4, 104160, Note_on_c, 3, 70, 88
4, 104220, Note_on_c, 3, 70, 0
4, 104220, Note_on_c, 3, 74, 88
4, 104280, Note_on_c, 3, 74, 0
4, 104280, Note_on_c, 3, 72, 88
4, 104340, Note_on_c, 3, 72, 0
4, 104340, Note_on_c, 3, 70, 88
4, 104400, Note_on_c, 3, 70, 0
4, 104400, Note_on_c, 3, 69, 88
4, 104460, Note_on_c, 3, 69, 0
4, 104460, Note_on_c, 3, 72, 88
4, 104520, Note_on_c, 3, 72, 0
4, 104520, Note_on_c, 3, 70, 85
4, 104580, Note_on_c, 3, 70, 0
4, 104580, Note_on_c, 3, 69, 82
4, 104640, Note_on_c, 3, 69, 0
4, 104640, Note_on_c, 3, 77, 78
4, 104880, Note_on_c, 3, 77, 0
4, 104880, Note_on_c, 3, 79, 71
4, 104940, Note_on_c, 3, 79, 0
4, 104940, Note_on_c, 3, 79, 76
4, 105000, Note_on_c, 3, 79, 0
4, 105000, Note_on_c, 3, 81, 81
4, 105060, Note_on_c, 3, 81, 0
4, 105060, Note_on_c, 3, 82, 87
4, 105083, Note_on_c, 3, 82, 0
4, 105120, Note_on_c, 3, 82, 90
4, 105180, Note_on_c, 3, 82, 0
4, 105180, Note_on_c, 3, 81, 87
4, 105240, Note_on_c, 3, 81, 0
4, 105240, Note_on_c, 3, 79, 84
4, 105300, Note_on_c, 3, 79, 0
4, 105300, Note_on_c, 3, 77, 81
4, 105323, Note_on_c, 3, 77, 0
4, 105360, Note_on_c, 3, 77, 78
4, 105420, Note_on_c, 3, 77, 0
4, 105420, Note_on_c, 3, 75, 75
4, 105480, Note_on_c, 3, 75, 0
4, 105480, Note_on_c, 3, 74, 72
4, 105540, Note_on_c, 3, 74, 0
4, 105540, Note_on_c, 3, 72, 69
4, 105563, Note_on_c, 3, 72, 0
4, 105600, Note_on_c, 3, 77, 66
4, 105900, Note_on_c, 3, 77, 0
4, 105900, Note_on_c, 3, 79, 71
4, 105960, Note_on_c, 3, 79, 0
4, 105960, Note_on_c, 3, 81, 77
4, 106020, Note_on_c, 3, 81, 0
4, 106020, Note_on_c, 3, 82, 84
4, 106043, Note_on_c, 3, 82, 0
4, 106080, Note_on_c, 3, 82, 89
4, 106140, Note_on_c, 3, 82, 0
4, 106140, Note_on_c, 3, 81, 87
4, 106200, Note_on_c, 3, 81, 0
4, 106200, Note_on_c, 3, 79, 85
4, 106260, Note_on_c, 3, 79, 0
4, 106260, Note_on_c, 3, 77, 83
4, 106283, Note_on_c, 3, 77, 0
4, 106320, Note_on_c, 3, 77, 81
4, 106380, Note_on_c, 3, 77, 0
4, 106380, Note_on_c, 3, 75, 79
4, 106440, Note_on_c, 3, 75, 0
4, 106440, Note_on_c, 3, 74, 76
4, 106500, Note_on_c, 3, 74, 0
4, 106500, Note_on_c, 3, 72, 74
4, 106523, Note_on_c, 3, 72, 0
4, 106560, Note_on_c, 3, 74, 72
4, 106583, Note_on_c, 3, 74, 0
4, 106620, Note_on_c, 3, 82, 70
4, 106680, Note_on_c, 3, 82, 0
4, 106680, Note_on_c, 3, 81, 68
4, 106740, Note_on_c, 3, 81, 0
4, 106740, Note_on_c, 3, 82, 66
4, 106763, Note_on_c, 3, 82, 0
4, 106860, Note_on_c, 3, 80, 74
4, 106920, Note_on_c, 3, 80, 0
4, 106920, Note_on_c, 3, 79, 72
4, 106980, Note_on_c, 3, 79, 0
4, 106980, Note_on_c, 3, 80, 69
4, 107003, Note_on_c, 3, 80, 0
4, 107100, Note_on_c, 3, 79, 76
4, 107160, Note_on_c, 3, 79, 0
4, 107160, Note_on_c, 3, 78, 72
4, 107220, Note_on_c, 3, 78, 0
4, 107220, Note_on_c, 3, 79, 68
4, 107243, Note_on_c, 3, 79, 0
4, 107340, Note_on_c, 3, 77, 79
4, 107400, Note_on_c, 3, 77, 0
4, 107400, Note_on_c, 3, 76, 75
4, 107460, Note_on_c, 3, 76, 0
4, 107460, Note_on_c, 3, 77, 70
4, 107483, Note_on_c, 3, 77, 0
4, 107520, Note_on_c, 3, 77, 69
4, 107540, Note_on_c, 3, 76, 74
4, 107560, Note_on_c, 3, 77, 77
4, 107565, Note_on_c, 3, 77, 0
4, 107580, Note_on_c, 3, 76, 77
4, 107585, Note_on_c, 3, 76, 0
4, 107600, Note_on_c, 3, 77, 77
4, 107605, Note_on_c, 3, 77, 0
4, 107620, Note_on_c, 3, 76, 77
4, 107625, Note_on_c, 3, 76, 0
4, 107640, Note_on_c, 3, 77, 73
4, 107645, Note_on_c, 3, 77, 0
4, 107660, Note_on_c, 3, 76, 70
4, 107665, Note_on_c, 3, 76, 0
4, 107680, Note_on_c, 3, 77, 70
4, 107685, Note_on_c, 3, 77, 0
4, 107700, Note_on_c, 3, 76, 67
4, 107705, Note_on_c, 3, 76, 0
4, 107720, Note_on_c, 3, 77, 67
4, 107725, Note_on_c, 3, 77, 0
4, 107740, Note_on_c, 3, 76, 67
4, 107745, Note_on_c, 3, 76, 0
4, 107760, Note_on_c, 3, 77, 67
4, 107765, Note_on_c, 3, 77, 0
4, 107780, Note_on_c, 3, 76, 67
4, 107785, Note_on_c, 3, 76, 0
4, 107800, Note_on_c, 3, 77, 67
4, 107805, Note_on_c, 3, 77, 0
4, 107820, Note_on_c, 3, 76, 69
4, 107825, Note_on_c, 3, 76, 0
4, 107840, Note_on_c, 3, 77, 69
4, 107845, Note_on_c, 3, 77, 0
4, 107860, Note_on_c, 3, 76, 69
4, 107865, Note_on_c, 3, 76, 0
4, 107880, Note_on_c, 3, 77, 69
4, 107885, Note_on_c, 3, 77, 0
4, 107900, Note_on_c, 3, 76, 69
4, 107905, Note_on_c, 3, 76, 0
4, 107920, Note_on_c, 3, 77, 69
4, 107925, Note_on_c, 3, 77, 0
4, 107940, Note_on_c, 3, 76, 69
4, 107945, Note_on_c, 3, 76, 0
4, 107960, Note_on_c, 3, 77, 69
4, 107965, Note_on_c, 3, 77, 0
4, 107980, Note_on_c, 3, 76, 69
4, 107985, Note_on_c, 3, 76, 0
4, 108000, Note_on_c, 3, 77, 69
4, 108005, Note_on_c, 3, 77, 0
4, 108020, Note_on_c, 3, 75, 69
4, 108025, Note_on_c, 3, 76, 0
4, 108040, Note_on_c, 3, 77, 72
4, 108045, Note_on_c, 3, 77, 0
4, 108060, Note_on_c, 3, 75, 72
4, 108065, Note_on_c, 3, 75, 0
4, 108080, Note_on_c, 3, 77, 72
4, 108085, Note_on_c, 3, 77, 0
4, 108100, Note_on_c, 3, 75, 73
4, 108105, Note_on_c, 3, 75, 0
4, 108120, Note_on_c, 3, 77, 73
4, 108125, Note_on_c, 3, 77, 0
4, 108140, Note_on_c, 3, 75, 73
4, 108145, Note_on_c, 3, 75, 0
4, 108160, Note_on_c, 3, 77, 73
4, 108165, Note_on_c, 3, 77, 0
4, 108180, Note_on_c, 3, 75, 73
4, 108185, Note_on_c, 3, 75, 0
4, 108200, Note_on_c, 3, 77, 73
4, 108205, Note_on_c, 3, 77, 0
4, 108220, Note_on_c, 3, 75, 73
4, 108225, Note_on_c, 3, 75, 0
4, 108240, Note_on_c, 3, 75, 73
4, 108240, Note_on_c, 3, 77, 71
4, 108245, Note_on_c, 3, 77, 0
4, 108265, Note_on_c, 3, 75, 0
4, 108280, Note_on_c, 3, 75, 73
4, 108280, Note_on_c, 3, 77, 71
4, 108285, Note_on_c, 3, 75, 0
4, 108285, Note_on_c, 3, 77, 0
4, 108320, Note_on_c, 3, 77, 71
4, 108325, Note_on_c, 3, 75, 0
4, 108325, Note_on_c, 3, 77, 0
4, 108340, Note_on_c, 3, 75, 71
4, 108360, Note_on_c, 3, 74, 71
4, 108365, Note_on_c, 3, 77, 0
4, 108385, Note_on_c, 3, 75, 0
4, 108420, Note_on_c, 3, 74, 0
4, 108420, Note_on_c, 3, 75, 71
4, 108443, Note_on_c, 3, 75, 0
4, 108480, Note_on_c, 3, 75, 70
4, 108540, Note_on_c, 3, 75, 0
4, 108540, Note_on_c, 3, 77, 80
4, 108600, Note_on_c, 3, 77, 0
4, 108600, Note_on_c, 3, 75, 85
4, 108660, Note_on_c, 3, 75, 0
4, 108660, Note_on_c, 3, 74, 85
4, 108720, Note_on_c, 3, 74, 0
4, 108720, Note_on_c, 3, 72, 85
4, 108780, Note_on_c, 3, 72, 0
4, 108780, Note_on_c, 3, 70, 81
4, 108840, Note_on_c, 3, 70, 0
4, 108840, Note_on_c, 3, 69, 78
4, 108900, Note_on_c, 3, 69, 0
4, 108900, Note_on_c, 3, 70, 73
4, 108923, Note_on_c, 3, 70, 0
4, 108960, Note_on_c, 3, 72, 69
4, 108980, Note_on_c, 3, 70, 75
4, 109000, Note_on_c, 3, 72, 76
4, 109005, Note_on_c, 3, 72, 0
4, 109020, Note_on_c, 3, 70, 76
4, 109025, Note_on_c, 3, 70, 0
4, 109040, Note_on_c, 3, 72, 76
4, 109045, Note_on_c, 3, 72, 0
4, 109060, Note_on_c, 3, 70, 76
4, 109065, Note_on_c, 3, 70, 0
4, 109080, Note_on_c, 3, 69, 76
4, 109085, Note_on_c, 3, 72, 0
4, 109105, Note_on_c, 3, 70, 0
4, 109140, Note_on_c, 3, 69, 0
4, 109140, Note_on_c, 3, 70, 74
4, 109200, Note_on_c, 3, 70, 0
4, 109500, Note_on_c, 3, 79, 72
4, 109560, Note_on_c, 3, 79, 0
4, 109560, Note_on_c, 3, 77, 77
4, 109620, Note_on_c, 3, 77, 0
4, 109620, Note_on_c, 3, 75, 85
4, 109680, Note_on_c, 3, 75, 0
4, 109680, Note_on_c, 3, 74, 88
4, 109740, Note_on_c, 3, 74, 0
4, 109740, Note_on_c, 3, 72, 88
4, 109800, Note_on_c, 3, 72, 0
4, 109800, Note_on_c, 3, 71, 87
4, 109860, Note_on_c, 3, 71, 0
4, 109860, Note_on_c, 3, 72, 74
4, 109883, Note_on_c, 3, 72, 0
4, 109920, Note_on_c, 3, 74, 71
4, 109940, Note_on_c, 3, 72, 72
4, 109960, Note_on_c, 3, 74, 74
4, 109965, Note_on_c, 3, 74, 0
4, 109980, Note_on_c, 3, 72, 77
4, 109985, Note_on_c, 3, 72, 0
4, 110000, Note_on_c, 3, 74, 77
4, 110005, Note_on_c, 3, 74, 0
4, 110020, Note_on_c, 3, 72, 80
4, 110025, Note_on_c, 3, 72, 0
4, 110040, Note_on_c, 3, 71, 80
4, 110045, Note_on_c, 3, 74, 0
4, 110065, Note_on_c, 3, 72, 0
4, 110100, Note_on_c, 3, 71, 0
4, 110100, Note_on_c, 3, 72, 73
4, 110160, Note_on_c, 3, 72, 0
4, 110400, Note_on_c, 3, 74, 68
4, 110520, Note_on_c, 3, 74, 0
4, 110520, Note_on_c, 3, 70, 68
4, 110567, Note_on_c, 3, 70, 0
4, 110640, Note_on_c, 3, 65, 69
4, 110760, Note_on_c, 3, 65, 0
4, 110760, Note_on_c, 3, 62, 70
4, 110807, Note_on_c, 3, 62, 0
4, 110880, Note_on_c, 3, 70, 70
4, 111000, Note_on_c, 3, 70, 0
4, 111000, Note_on_c, 3, 65, 71
4, 111047, Note_on_c, 3, 65, 0
4, 111120, Note_on_c, 3, 74, 72
4, 111240, Note_on_c, 3, 74, 0
4, 111240, Note_on_c, 3, 70, 72
4, 111287, Note_on_c, 3, 70, 0
4, 111360, Note_on_c, 3, 77, 73
4, 111420, Note_on_c, 3, 77, 0
4, 111420, Note_on_c, 3, 76, 73
4, 111480, Note_on_c, 3, 76, 0
4, 111480, Note_on_c, 3, 77, 74
4, 111540, Note_on_c, 3, 77, 0
4, 111540, Note_on_c, 3, 76, 74
4, 111600, Note_on_c, 3, 76, 0
4, 111600, Note_on_c, 3, 77, 74
4, 111660, Note_on_c, 3, 77, 0
4, 111660, Note_on_c, 3, 76, 75
4, 111720, Note_on_c, 3, 76, 0
4, 111720, Note_on_c, 3, 77, 75
4, 111780, Note_on_c, 3, 77, 0
4, 111780, Note_on_c, 3, 76, 75
4, 111840, Note_on_c, 3, 76, 0
4, 111840, Note_on_c, 3, 77, 76
4, 111960, Note_on_c, 3, 77, 0
4, 111960, Note_on_c, 3, 79, 76
4, 112080, Note_on_c, 3, 79, 0
4, 112080, Note_on_c, 3, 81, 77
4, 112200, Note_on_c, 3, 81, 0
4, 112200, Note_on_c, 3, 82, 78
4, 112320, Note_on_c, 3, 82, 0
4, 112320, Note_on_c, 3, 86, 69
4, 112340, Note_on_c, 3, 84, 69
4, 112360, Note_on_c, 3, 86, 69
4, 112365, Note_on_c, 3, 86, 0
4, 112380, Note_on_c, 3, 84, 71
4, 112385, Note_on_c, 3, 84, 0
4, 112400, Note_on_c, 3, 86, 74
4, 112405, Note_on_c, 3, 86, 0
4, 112420, Note_on_c, 3, 84, 74
4, 112425, Note_on_c, 3, 84, 0
4, 112440, Note_on_c, 3, 86, 76
4, 112445, Note_on_c, 3, 86, 0
4, 112460, Note_on_c, 3, 84, 76
4, 112465, Note_on_c, 3, 84, 0
4, 112480, Note_on_c, 3, 86, 76
4, 112485, Note_on_c, 3, 86, 0
4, 112500, Note_on_c, 3, 84, 76
4, 112505, Note_on_c, 3, 84, 0
4, 112520, Note_on_c, 3, 86, 76
4, 112525, Note_on_c, 3, 86, 0
4, 112540, Note_on_c, 3, 84, 76
4, 112545, Note_on_c, 3, 84, 0
4, 112560, Note_on_c, 3, 86, 80
4, 112565, Note_on_c, 3, 86, 0
4, 112580, Note_on_c, 3, 84, 78
4, 112585, Note_on_c, 3, 84, 0
4, 112600, Note_on_c, 3, 86, 78
4, 112605, Note_on_c, 3, 86, 0
4, 112620, Note_on_c, 3, 84, 78
4, 112625, Note_on_c, 3, 84, 0
4, 112640, Note_on_c, 3, 86, 76
4, 112645, Note_on_c, 3, 86, 0
4, 112660, Note_on_c, 3, 84, 76
4, 112665, Note_on_c, 3, 84, 0
4, 112680, Note_on_c, 3, 86, 76
4, 112685, Note_on_c, 3, 86, 0
4, 112700, Note_on_c, 3, 84, 75
4, 112705, Note_on_c, 3, 84, 0
4, 112720, Note_on_c, 3, 86, 74
4, 112725, Note_on_c, 3, 86, 0
4, 112740, Note_on_c, 3, 84, 74
4, 112745, Note_on_c, 3, 84, 0
4, 112760, Note_on_c, 3, 86, 74
4, 112765, Note_on_c, 3, 86, 0
4, 112780, Note_on_c, 3, 84, 74
4, 112785, Note_on_c, 3, 84, 0
4, 112800, Note_on_c, 3, 86, 74
4, 112805, Note_on_c, 3, 86, 0
4, 112820, Note_on_c, 3, 84, 72
4, 112825, Note_on_c, 3, 84, 0
4, 112840, Note_on_c, 3, 86, 72
4, 112845, Note_on_c, 3, 86, 0
4, 112860, Note_on_c, 3, 84, 74
4, 112865, Note_on_c, 3, 84, 0
4, 112880, Note_on_c, 3, 86, 74
4, 112885, Note_on_c, 3, 86, 0
4, 112900, Note_on_c, 3, 84, 74
4, 112905, Note_on_c, 3, 84, 0
4, 112920, Note_on_c, 3, 86, 76
4, 112925, Note_on_c, 3, 86, 0
4, 112940, Note_on_c, 3, 84, 76
4, 112945, Note_on_c, 3, 84, 0
4, 112960, Note_on_c, 3, 86, 76
4, 112965, Note_on_c, 3, 86, 0
4, 112980, Note_on_c, 3, 84, 79
4, 112985, Note_on_c, 3, 84, 0
4, 113000, Note_on_c, 3, 86, 79
4, 113005, Note_on_c, 3, 86, 0
4, 113020, Note_on_c, 3, 84, 81
4, 113025, Note_on_c, 3, 84, 0
4, 113040, Note_on_c, 3, 86, 81
4, 113045, Note_on_c, 3, 86, 0
4, 113060, Note_on_c, 3, 84, 81
4, 113065, Note_on_c, 3, 84, 0
4, 113080, Note_on_c, 3, 86, 81
4, 113085, Note_on_c, 3, 86, 0
4, 113105, Note_on_c, 3, 84, 0
4, 113125, Note_on_c, 3, 86, 0
4, 113130, Note_on_c, 3, 84, 84
4, 113160, Note_on_c, 3, 82, 84
4, 113175, Note_on_c, 3, 84, 0
4, 113220, Note_on_c, 3, 84, 87
4, 113250, Note_on_c, 3, 82, 0
4, 113280, Note_on_c, 3, 82, 92
4, 113310, Note_on_c, 3, 84, 0
4, 113760, Note_on_c, 3, 82, 0
4, 117120, Note_on_c, 3, 86, 88
4, 118080, Note_on_c, 3, 86, 0
4, 119100, Note_on_c, 3, 77, 88
4, 119160, Note_on_c, 3, 77, 0
4, 119160, Note_on_c, 3, 76, 88
4, 119220, Note_on_c, 3, 76, 0
4, 119220, Note_on_c, 3, 77, 88
4, 119280, Note_on_c, 3, 77, 0
4, 119280, Note_on_c, 3, 79, 88
4, 119340, Note_on_c, 3, 79, 0
4, 119340, Note_on_c, 3, 81, 88
4, 119400, Note_on_c, 3, 81, 0
4, 119400, Note_on_c, 3, 82, 88
4, 119460, Note_on_c, 3, 82, 0
4, 119460, Note_on_c, 3, 79, 88
4, 119520, Note_on_c, 3, 79, 0
4, 119520, Note_on_c, 3, 77, 88
4, 119580, Note_on_c, 3, 77, 0
4, 119580, Note_on_c, 3, 75, 88
4, 119640, Note_on_c, 3, 75, 0
4, 119640, Note_on_c, 3, 74, 75
4, 119700, Note_on_c, 3, 74, 0
4, 119700, Note_on_c, 3, 75, 75
4, 119760, Note_on_c, 3, 75, 0
4, 119760, Note_on_c, 3, 74, 75
4, 119820, Note_on_c, 3, 74, 0
4, 119820, Note_on_c, 3, 75, 75
4, 119880, Note_on_c, 3, 75, 0
4, 119880, Note_on_c, 3, 77, 75
4, 119940, Note_on_c, 3, 77, 0
4, 119940, Note_on_c, 3, 75, 75
4, 120000, Note_on_c, 3, 75, 0
4, 120000, Note_on_c, 3, 74, 75
4, 120060, Note_on_c, 3, 74, 0
4, 120060, Note_on_c, 3, 74, 88
4, 120120, Note_on_c, 3, 74, 0
4, 120120, Note_on_c, 3, 73, 88
4, 120180, Note_on_c, 3, 73, 0
4, 120180, Note_on_c, 3, 74, 88
4, 120240, Note_on_c, 3, 74, 0
4, 120240, Note_on_c, 3, 75, 88
4, 120300, Note_on_c, 3, 75, 0
4, 120300, Note_on_c, 3, 77, 88
4, 120360, Note_on_c, 3, 77, 0
4, 120360, Note_on_c, 3, 79, 88
4, 120420, Note_on_c, 3, 79, 0
4, 120420, Note_on_c, 3, 75, 88
4, 120480, Note_on_c, 3, 75, 0
4, 120480, Note_on_c, 3, 74, 88
4, 120540, Note_on_c, 3, 74, 0
4, 120540, Note_on_c, 3, 72, 88
4, 120600, Note_on_c, 3, 72, 0
4, 120600, Note_on_c, 3, 71, 75
4, 120660, Note_on_c, 3, 71, 0
4, 120660, Note_on_c, 3, 72, 75
4, 120720, Note_on_c, 3, 72, 0
4, 120720, Note_on_c, 3, 71, 75
4, 120780, Note_on_c, 3, 71, 0
4, 120780, Note_on_c, 3, 72, 75
4, 120840, Note_on_c, 3, 72, 0
4, 120840, Note_on_c, 3, 74, 75
4, 120900, Note_on_c, 3, 74, 0
4, 120900, Note_on_c, 3, 72, 75
4, 120960, Note_on_c, 3, 72, 0
4, 120960, Note_on_c, 3, 70, 88
4, 120983, Note_on_c, 3, 70, 0
4, 121020, Note_on_c, 3, 86, 88
4, 121043, Note_on_c, 3, 86, 0
4, 121080, Note_on_c, 3, 89, 88
4, 121103, Note_on_c, 3, 89, 0
4, 121140, Note_on_c, 3, 87, 88
4, 121163, Note_on_c, 3, 87, 0
4, 121200, Note_on_c, 3, 86, 88
4, 121223, Note_on_c, 3, 86, 0
4, 121260, Note_on_c, 3, 87, 88
4, 121283, Note_on_c, 3, 87, 0
4, 121320, Note_on_c, 3, 89, 88
4, 121343, Note_on_c, 3, 89, 0
4, 121380, Note_on_c, 3, 89, 88
4, 121403, Note_on_c, 3, 89, 0
4, 121500, Note_on_c, 3, 86, 88
4, 121523, Note_on_c, 3, 86, 0
4, 121560, Note_on_c, 3, 89, 88
4, 121583, Note_on_c, 3, 89, 0
4, 121620, Note_on_c, 3, 87, 88
4, 121643, Note_on_c, 3, 87, 0
4, 121680, Note_on_c, 3, 86, 88
4, 121703, Note_on_c, 3, 86, 0
4, 121740, Note_on_c, 3, 87, 88
4, 121763, Note_on_c, 3, 87, 0
4, 121800, Note_on_c, 3, 89, 88
4, 121823, Note_on_c, 3, 89, 0
4, 121860, Note_on_c, 3, 89, 88
4, 121883, Note_on_c, 3, 89, 0
4, 121920, Note_on_c, 3, 87, 75
4, 121943, Note_on_c, 3, 87, 0
4, 121980, Note_on_c, 3, 89, 75
4, 122003, Note_on_c, 3, 89, 0
4, 122040, Note_on_c, 3, 87, 75
4, 122063, Note_on_c, 3, 87, 0
4, 122100, Note_on_c, 3, 86, 75
4, 122123, Note_on_c, 3, 86, 0
4, 122160, Note_on_c, 3, 84, 75
4, 122183, Note_on_c, 3, 84, 0
4, 122220, Note_on_c, 3, 86, 75
4, 122243, Note_on_c, 3, 86, 0
4, 122280, Note_on_c, 3, 84, 75
4, 122303, Note_on_c, 3, 84, 0
4, 122340, Note_on_c, 3, 82, 75
4, 122363, Note_on_c, 3, 82, 0
4, 122400, Note_on_c, 3, 81, 75
4, 122423, Note_on_c, 3, 81, 0
4, 122460, Note_on_c, 3, 82, 75
4, 122483, Note_on_c, 3, 82, 0
4, 122520, Note_on_c, 3, 81, 75
4, 122543, Note_on_c, 3, 81, 0
4, 122580, Note_on_c, 3, 79, 75
4, 122603, Note_on_c, 3, 79, 0
4, 122640, Note_on_c, 3, 77, 75
4, 122663, Note_on_c, 3, 77, 0
4, 122700, Note_on_c, 3, 79, 75
4, 122723, Note_on_c, 3, 79, 0
4, 122760, Note_on_c, 3, 77, 75
4, 122783, Note_on_c, 3, 77, 0
4, 122820, Note_on_c, 3, 75, 75
4, 122843, Note_on_c, 3, 75, 0
4, 122880, Note_on_c, 3, 74, 88
4, 123000, Note_on_c, 3, 74, 0
4, 123000, Note_on_c, 3, 82, 88
4, 123060, Note_on_c, 3, 82, 0
4, 123060, Note_on_c, 3, 77, 88
4, 123120, Note_on_c, 3, 77, 0
4, 123120, Note_on_c, 3, 77, 88
4, 123216, Note_on_c, 3, 77, 0
4, 123600, Note_on_c, 3, 77, 88
4, 123660, Note_on_c, 3, 77, 0
4, 123660, Note_on_c, 3, 81, 88
4, 123720, Note_on_c, 3, 81, 0
4, 123720, Note_on_c, 3, 82, 88
4, 123780, Note_on_c, 3, 82, 0
4, 123780, Note_on_c, 3, 86, 88
4, 123840, Note_on_c, 3, 86, 0
4, 123840, Note_on_c, 3, 89, 88
4, 123960, Note_on_c, 3, 89, 0
4, 123960, Note_on_c, 3, 81, 88
4, 124080, Note_on_c, 3, 81, 0
4, 124080, Note_on_c, 3, 81, 88
4, 124440, Note_on_c, 3, 81, 0
4, 124440, Note_on_c, 3, 81, 88
4, 124487, Note_on_c, 3, 81, 0
4, 124560, Note_on_c, 3, 81, 88
4, 124607, Note_on_c, 3, 81, 0
4, 124680, Note_on_c, 3, 81, 88
4, 124727, Note_on_c, 3, 81, 0
4, 124860, Note_on_c, 3, 82, 88
4, 124920, Note_on_c, 3, 82, 0
4, 124920, Note_on_c, 3, 81, 75
4, 124980, Note_on_c, 3, 81, 0
4, 124980, Note_on_c, 3, 82, 78
4, 125040, Note_on_c, 3, 82, 0
4, 125100, Note_on_c, 3, 80, 88
4, 125160, Note_on_c, 3, 80, 0
4, 125160, Note_on_c, 3, 79, 74
4, 125220, Note_on_c, 3, 79, 0
4, 125220, Note_on_c, 3, 80, 79
4, 125280, Note_on_c, 3, 80, 0
4, 125340, Note_on_c, 3, 79, 88
4, 125400, Note_on_c, 3, 79, 0
4, 125400, Note_on_c, 3, 78, 75
4, 125460, Note_on_c, 3, 78, 0
4, 125460, Note_on_c, 3, 79, 78
4, 125520, Note_on_c, 3, 79, 0
4, 125580, Note_on_c, 3, 77, 88
4, 125640, Note_on_c, 3, 77, 0
4, 125640, Note_on_c, 3, 76, 73
4, 125700, Note_on_c, 3, 76, 0
4, 125700, Note_on_c, 3, 77, 79
4, 125760, Note_on_c, 3, 77, 0
4, 125760, Note_on_c, 3, 77, 74
4, 125780, Note_on_c, 3, 76, 74
4, 125800, Note_on_c, 3, 77, 74
4, 125805, Note_on_c, 3, 77, 0
4, 125820, Note_on_c, 3, 76, 76
4, 125825, Note_on_c, 3, 76, 0
4, 125840, Note_on_c, 3, 77, 76
4, 125845, Note_on_c, 3, 77, 0
4, 125860, Note_on_c, 3, 76, 78
4, 125865, Note_on_c, 3, 76, 0
4, 125880, Note_on_c, 3, 77, 79
4, 125885, Note_on_c, 3, 77, 0
4, 125900, Note_on_c, 3, 76, 79
4, 125905, Note_on_c, 3, 76, 0
4, 125920, Note_on_c, 3, 77, 80
4, 125925, Note_on_c, 3, 77, 0
4, 125940, Note_on_c, 3, 76, 82
4, 125945, Note_on_c, 3, 76, 0
4, 125960, Note_on_c, 3, 77, 82
4, 125965, Note_on_c, 3, 77, 0
4, 125980, Note_on_c, 3, 76, 85
4, 125985, Note_on_c, 3, 76, 0
4, 126000, Note_on_c, 3, 77, 85
4, 126005, Note_on_c, 3, 77, 0
4, 126020, Note_on_c, 3, 76, 85
4, 126025, Note_on_c, 3, 76, 0
4, 126040, Note_on_c, 3, 77, 85
4, 126045, Note_on_c, 3, 77, 0
4, 126060, Note_on_c, 3, 76, 85
4, 126065, Note_on_c, 3, 76, 0
4, 126080, Note_on_c, 3, 77, 85
4, 126085, Note_on_c, 3, 77, 0
4, 126100, Note_on_c, 3, 76, 85
4, 126105, Note_on_c, 3, 76, 0
4, 126120, Note_on_c, 3, 77, 85
4, 126125, Note_on_c, 3, 77, 0
4, 126140, Note_on_c, 3, 76, 85
4, 126145, Note_on_c, 3, 76, 0
4, 126160, Note_on_c, 3, 77, 85
4, 126165, Note_on_c, 3, 77, 0
4, 126180, Note_on_c, 3, 76, 85
4, 126185, Note_on_c, 3, 76, 0
4, 126200, Note_on_c, 3, 77, 85
4, 126205, Note_on_c, 3, 77, 0
4, 126220, Note_on_c, 3, 76, 85
4, 126225, Note_on_c, 3, 76, 0
4, 126240, Note_on_c, 3, 77, 83
4, 126245, Note_on_c, 3, 77, 0
4, 126260, Note_on_c, 3, 75, 83
4, 126265, Note_on_c, 3, 76, 0
4, 126280, Note_on_c, 3, 77, 83
4, 126285, Note_on_c, 3, 77, 0
4, 126300, Note_on_c, 3, 75, 83
4, 126305, Note_on_c, 3, 75, 0
4, 126320, Note_on_c, 3, 77, 80
4, 126325, Note_on_c, 3, 77, 0
4, 126340, Note_on_c, 3, 75, 80
4, 126345, Note_on_c, 3, 75, 0
4, 126360, Note_on_c, 3, 77, 80
4, 126365, Note_on_c, 3, 77, 0
4, 126380, Note_on_c, 3, 75, 78
4, 126385, Note_on_c, 3, 75, 0
4, 126400, Note_on_c, 3, 77, 78
4, 126405, Note_on_c, 3, 77, 0
4, 126420, Note_on_c, 3, 75, 78
4, 126425, Note_on_c, 3, 75, 0
4, 126440, Note_on_c, 3, 77, 78
4, 126445, Note_on_c, 3, 77, 0
4, 126460, Note_on_c, 3, 75, 78
4, 126465, Note_on_c, 3, 75, 0
4, 126480, Note_on_c, 3, 77, 75
4, 126485, Note_on_c, 3, 77, 0
4, 126500, Note_on_c, 3, 75, 75
4, 126505, Note_on_c, 3, 75, 0
4, 126520, Note_on_c, 3, 77, 75
4, 126525, Note_on_c, 3, 77, 0
4, 126540, Note_on_c, 3, 75, 75
4, 126545, Note_on_c, 3, 75, 0
4, 126565, Note_on_c, 3, 77, 0
4, 126570, Note_on_c, 3, 75, 75
4, 126585, Note_on_c, 3, 75, 0
4, 126600, Note_on_c, 3, 74, 75
4, 126615, Note_on_c, 3, 75, 0
4, 126660, Note_on_c, 3, 75, 86
4, 126690, Note_on_c, 3, 74, 0
4, 126720, Note_on_c, 3, 74, 77
4, 126750, Note_on_c, 3, 75, 0
4, 126791, Note_on_c, 3, 74, 0
4, 126840, Note_on_c, 3, 82, 68
4, 126960, Note_on_c, 3, 82, 0
4, 126960, Note_on_c, 3, 81, 76
4, 127080, Note_on_c, 3, 81, 0
4, 127080, Note_on_c, 3, 80, 74
4, 127200, Note_on_c, 3, 80, 0
4, 127200, Note_on_c, 3, 79, 72
4, 127320, Note_on_c, 3, 79, 0
4, 127320, Note_on_c, 3, 78, 70
4, 127440, Note_on_c, 3, 78, 0
4, 127440, Note_on_c, 3, 77, 68
4, 127560, Note_on_c, 3, 77, 0
4, 127560, Note_on_c, 3, 76, 66
4, 127680, Note_on_c, 3, 76, 0
4, 127680, Note_on_c, 3, 77, 71
4, 127980, Note_on_c, 3, 77, 0
4, 127980, Note_on_c, 3, 79, 66
4, 128040, Note_on_c, 3, 79, 0
4, 128040, Note_on_c, 3, 81, 72
4, 128100, Note_on_c, 3, 81, 0
4, 128100, Note_on_c, 3, 82, 78
4, 128160, Note_on_c, 3, 82, 0
4, 128160, Note_on_c, 3, 82, 94
4, 128220, Note_on_c, 3, 82, 0
4, 128220, Note_on_c, 3, 81, 94
4, 128280, Note_on_c, 3, 81, 0
4, 128280, Note_on_c, 3, 79, 94
4, 128340, Note_on_c, 3, 79, 0
4, 128340, Note_on_c, 3, 77, 88
4, 128400, Note_on_c, 3, 77, 0
4, 128400, Note_on_c, 3, 77, 85
4, 128460, Note_on_c, 3, 77, 0
4, 128460, Note_on_c, 3, 75, 82
4, 128520, Note_on_c, 3, 75, 0
4, 128520, Note_on_c, 3, 74, 80
4, 128580, Note_on_c, 3, 74, 0
4, 128580, Note_on_c, 3, 72, 77
4, 128640, Note_on_c, 3, 72, 0
4, 128640, Note_on_c, 3, 77, 75
4, 128940, Note_on_c, 3, 77, 0
4, 128940, Note_on_c, 3, 79, 79
4, 129000, Note_on_c, 3, 79, 0
4, 129000, Note_on_c, 3, 81, 82
4, 129060, Note_on_c, 3, 81, 0
4, 129060, Note_on_c, 3, 82, 85
4, 129120, Note_on_c, 3, 82, 0
4, 129120, Note_on_c, 3, 82, 97
4, 129180, Note_on_c, 3, 82, 0
4, 129180, Note_on_c, 3, 81, 90
4, 129240, Note_on_c, 3, 81, 0
4, 129240, Note_on_c, 3, 79, 85
4, 129300, Note_on_c, 3, 79, 0
4, 129300, Note_on_c, 3, 77, 83
4, 129360, Note_on_c, 3, 77, 0
4, 129360, Note_on_c, 3, 77, 81
4, 129420, Note_on_c, 3, 77, 0
4, 129420, Note_on_c, 3, 75, 78
4, 129480, Note_on_c, 3, 75, 0
4, 129480, Note_on_c, 3, 74, 76
4, 129540, Note_on_c, 3, 74, 0
4, 129540, Note_on_c, 3, 72, 74
4, 129600, Note_on_c, 3, 72, 0
4, 129600, Note_on_c, 3, 71, 62
4, 129720, Note_on_c, 3, 71, 0
4, 129720, Note_on_c, 3, 72, 75
4, 129840, Note_on_c, 3, 72, 0
4, 130080, Note_on_c, 3, 74, 67
4, 130200, Note_on_c, 3, 74, 0
4, 130200, Note_on_c, 3, 75, 75
4, 130320, Note_on_c, 3, 75, 0
4, 130560, Note_on_c, 3, 78, 75
4, 130680, Note_on_c, 3, 78, 0
4, 130680, Note_on_c, 3, 79, 88
4, 130800, Note_on_c, 3, 79, 0
4, 130800, Note_on_c, 3, 83, 77
4, 130920, Note_on_c, 3, 83, 0
4, 130920, Note_on_c, 3, 84, 88
4, 131040, Note_on_c, 3, 84, 0
4, 131040, Note_on_c, 3, 86, 77
4, 131160, Note_on_c, 3, 86, 0
4, 131160, Note_on_c, 3, 87, 88
4, 131280, Note_on_c, 3, 87, 0
4, 131400, Note_on_c, 3, 84, 75
4, 131520, Note_on_c, 3, 84, 0
4, 131520, Note_on_c, 3, 89, 88
4, 131760, Note_on_c, 3, 89, 0
4, 131760, Note_on_c, 3, 88, 83
4, 132000, Note_on_c, 3, 88, 0
4, 132000, Note_on_c, 3, 87, 78
4, 132240, Note_on_c, 3, 87, 0
4, 132240, Note_on_c, 3, 86, 73
4, 132480, Note_on_c, 3, 86, 0
4, 132480, Note_on_c, 3, 86, 71
4, 132510, Note_on_c, 3, 86, 0
4, 132510, Note_on_c, 3, 84, 73
4, 132540, Note_on_c, 3, 84, 0
4, 132540, Note_on_c, 3, 86, 75
4, 132570, Note_on_c, 3, 86, 0
4, 132570, Note_on_c, 3, 84, 76
4, 132600, Note_on_c, 3, 84, 0
4, 132600, Note_on_c, 3, 86, 78
4, 132630, Note_on_c, 3, 86, 0
4, 132630, Note_on_c, 3, 84, 80
4, 132660, Note_on_c, 3, 84, 0
4, 132660, Note_on_c, 3, 86, 82
4, 132690, Note_on_c, 3, 86, 0
4, 132690, Note_on_c, 3, 84, 82
4, 132720, Note_on_c, 3, 84, 0
4, 132720, Note_on_c, 3, 86, 83
4, 132750, Note_on_c, 3, 86, 0
4, 132750, Note_on_c, 3, 84, 85
4, 132780, Note_on_c, 3, 84, 0
4, 132780, Note_on_c, 3, 86, 86
4, 132810, Note_on_c, 3, 86, 0
4, 132810, Note_on_c, 3, 84, 86
4, 132840, Note_on_c, 3, 84, 0
4, 132840, Note_on_c, 3, 86, 89
4, 132870, Note_on_c, 3, 86, 0
4, 132870, Note_on_c, 3, 84, 89
4, 132900, Note_on_c, 3, 84, 0
4, 132900, Note_on_c, 3, 86, 89
4, 132930, Note_on_c, 3, 86, 0
4, 132930, Note_on_c, 3, 84, 89
4, 132960, Note_on_c, 3, 84, 0
4, 132960, Note_on_c, 3, 86, 90
4, 132990, Note_on_c, 3, 86, 0
4, 132990, Note_on_c, 3, 84, 90
4, 133020, Note_on_c, 3, 84, 0
4, 133020, Note_on_c, 3, 86, 90
4, 133050, Note_on_c, 3, 86, 0
4, 133050, Note_on_c, 3, 84, 92
4, 133080, Note_on_c, 3, 84, 0
4, 133080, Note_on_c, 3, 86, 92
4, 133110, Note_on_c, 3, 86, 0
4, 133110, Note_on_c, 3, 84, 95
4, 133140, Note_on_c, 3, 84, 0
4, 133140, Note_on_c, 3, 86, 95
4, 133170, Note_on_c, 3, 86, 0
4, 133170, Note_on_c, 3, 84, 95
4, 133200, Note_on_c, 3, 84, 0
4, 133200, Note_on_c, 3, 86, 95
4, 133230, Note_on_c, 3, 86, 0
4, 133230, Note_on_c, 3, 84, 95
4, 133260, Note_on_c, 3, 84, 0
4, 133260, Note_on_c, 3, 86, 95
4, 133290, Note_on_c, 3, 86, 0
4, 133290, Note_on_c, 3, 84, 95
4, 133320, Note_on_c, 3, 84, 0
4, 133320, Note_on_c, 3, 86, 95
4, 133350, Note_on_c, 3, 86, 0
4, 133350, Note_on_c, 3, 84, 95
4, 133380, Note_on_c, 3, 84, 0
4, 133380, Note_on_c, 3, 86, 95
4, 133410, Note_on_c, 3, 86, 0
4, 133410, Note_on_c, 3, 84, 95
4, 133440, Note_on_c, 3, 84, 0
4, 133440, Note_on_c, 3, 86, 95
4, 133470, Note_on_c, 3, 86, 0
4, 133470, Note_on_c, 3, 84, 93
4, 133500, Note_on_c, 3, 84, 0
4, 133500, Note_on_c, 3, 86, 91
4, 133530, Note_on_c, 3, 86, 0
4, 133530, Note_on_c, 3, 84, 91
4, 133560, Note_on_c, 3, 84, 0
4, 133560, Note_on_c, 3, 86, 90
4, 133590, Note_on_c, 3, 86, 0
4, 133590, Note_on_c, 3, 84, 90
4, 133620, Note_on_c, 3, 84, 0
4, 133620, Note_on_c, 3, 86, 90
4, 133650, Note_on_c, 3, 86, 0
4, 133650, Note_on_c, 3, 84, 90
4, 133680, Note_on_c, 3, 84, 0
4, 133680, Note_on_c, 3, 86, 89
4, 133710, Note_on_c, 3, 86, 0
4, 133710, Note_on_c, 3, 84, 89
4, 133740, Note_on_c, 3, 84, 0
4, 133740, Note_on_c, 3, 86, 86
4, 133770, Note_on_c, 3, 86, 0
4, 133770, Note_on_c, 3, 84, 84
4, 133800, Note_on_c, 3, 84, 0
4, 133800, Note_on_c, 3, 86, 84
4, 133830, Note_on_c, 3, 86, 0
4, 133830, Note_on_c, 3, 84, 84
4, 133860, Note_on_c, 3, 84, 0
4, 133860, Note_on_c, 3, 86, 84
4, 133890, Note_on_c, 3, 86, 0
4, 133890, Note_on_c, 3, 84, 84
4, 133920, Note_on_c, 3, 84, 0
4, 133920, Note_on_c, 3, 86, 84
4, 133950, Note_on_c, 3, 86, 0
4, 133950, Note_on_c, 3, 84, 84
4, 133980, Note_on_c, 3, 84, 0
4, 133980, Note_on_c, 3, 86, 84
4, 134010, Note_on_c, 3, 86, 0
4, 134010, Note_on_c, 3, 84, 84
4, 134040, Note_on_c, 3, 84, 0
4, 134040, Note_on_c, 3, 86, 84
4, 134070, Note_on_c, 3, 86, 0
4, 134070, Note_on_c, 3, 84, 85
4, 134100, Note_on_c, 3, 84, 0
4, 134100, Note_on_c, 3, 86, 85
4, 134130, Note_on_c, 3, 86, 0
4, 134130, Note_on_c, 3, 84, 88
4, 134160, Note_on_c, 3, 84, 0
4, 134160, Note_on_c, 3, 86, 88
4, 134190, Note_on_c, 3, 86, 0
4, 134190, Note_on_c, 3, 84, 91
4, 134220, Note_on_c, 3, 84, 0
4, 134220, Note_on_c, 3, 86, 93
4, 134250, Note_on_c, 3, 86, 0
4, 134250, Note_on_c, 3, 84, 96
4, 134280, Note_on_c, 3, 84, 0
4, 134280, Note_on_c, 3, 82, 99
4, 134340, Note_on_c, 3, 82, 0
4, 134340, Note_on_c, 3, 84, 101
4, 134400, Note_on_c, 3, 84, 0
4, 134400, Note_on_c, 3, 82, 101
4, 134880, Note_on_c, 3, 82, 0
4, 138999, Note_on_c, 3, 81, 75
4, 139040, Note_on_c, 3, 81, 0
4, 139040, Note_on_c, 3, 84, 75
4, 139080, Note_on_c, 3, 84, 0
4, 139080, Note_on_c, 3, 87, 75
4, 139119, Note_on_c, 3, 87, 0
4, 139119, Note_on_c, 3, 84, 75
4, 139160, Note_on_c, 3, 84, 0
4, 139160, Note_on_c, 3, 81, 75
4, 139200, Note_on_c, 3, 81, 0
4, 139200, Note_on_c, 3, 81, 75
4, 139680, Note_on_c, 3, 81, 0
4, 139680, Note_on_c, 3, 82, 75
4, 139920, Note_on_c, 3, 82, 0
4, 139920, End_track
5, 0, Start_track
5, 0, Title_t, "Piano 1 Bass"
5, 0, Control_c, 4, 0, 0
5, 0, Control_c, 4, 7, 90
5, 0, Control_c, 4, 10, 50
5, 0, Control_c, 4, 91, 76
5, 0, Control_c, 4, 93, 76
5, 1, Control_c, 4, 32, 1
5, 2, Program_c, 4, 0
5, 23040, Note_on_c, 4, 58, 62
5, 23760, Note_on_c, 4, 58, 0
5, 23760, Note_on_c, 4, 57, 62
5, 23760, Note_on_c, 4, 60, 62
5, 24000, Note_on_c, 4, 60, 0
5, 24000, Note_on_c, 4, 57, 0
5, 24000, Note_on_c, 4, 55, 62
5, 24000, Note_on_c, 4, 58, 62
5, 24240, Note_on_c, 4, 55, 0
5, 24240, Note_on_c, 4, 53, 62
5, 24480, Note_on_c, 4, 53, 0
5, 24480, Note_on_c, 4, 58, 0
5, 24480, Note_on_c, 4, 51, 62
5, 24720, Note_on_c, 4, 51, 0
5, 24720, Note_on_c, 4, 52, 62
5, 24720, Note_on_c, 4, 55, 62
5, 24960, Note_on_c, 4, 55, 0
5, 24960, Note_on_c, 4, 52, 0
5, 24960, Note_on_c, 4, 41, 74
5, 24960, Note_on_c, 4, 53, 74
5, 25440, Note_on_c, 4, 53, 0
5, 25440, Note_on_c, 4, 41, 0
5, 25440, Note_on_c, 4, 41, 76
5, 25440, Note_on_c, 4, 53, 76
5, 25920, Note_on_c, 4, 53, 0
5, 25920, Note_on_c, 4, 41, 0
5, 25920, Note_on_c, 4, 46, 78
5, 25920, Note_on_c, 4, 58, 78
5, 26400, Note_on_c, 4, 58, 0
5, 26400, Note_on_c, 4, 46, 0
5, 26520, Note_on_c, 4, 58, 79
5, 26640, Note_on_c, 4, 58, 0
5, 26640, Note_on_c, 4, 62, 79
5, 26760, Note_on_c, 4, 62, 0
5, 26760, Note_on_c, 4, 58, 79
5, 26880, Note_on_c, 4, 58, 0
5, 26880, Note_on_c, 4, 65, 79
5, 27000, Note_on_c, 4, 65, 0
5, 27000, Note_on_c, 4, 76, 62
5, 27120, Note_on_c, 4, 76, 0
5, 27120, Note_on_c, 4, 77, 62
5, 27240, Note_on_c, 4, 77, 0
5, 27240, Note_on_c, 4, 73, 62
5, 27360, Note_on_c, 4, 73, 0
5, 27360, Note_on_c, 4, 74, 62
5, 27480, Note_on_c, 4, 74, 0
5, 27480, Note_on_c, 4, 69, 62
5, 27600, Note_on_c, 4, 69, 0
5, 27600, Note_on_c, 4, 70, 62
5, 27720, Note_on_c, 4, 70, 0
5, 27720, Note_on_c, 4, 63, 62
5, 27840, Note_on_c, 4, 63, 0
5, 27840, Note_on_c, 4, 62, 62
5, 28080, Note_on_c, 4, 62, 0
5, 28320, Note_on_c, 4, 62, 79
5, 28440, Note_on_c, 4, 62, 0
5, 28440, Note_on_c, 4, 65, 79
5, 28560, Note_on_c, 4, 65, 0
5, 28560, Note_on_c, 4, 63, 79
5, 28680, Note_on_c, 4, 63, 0
5, 28680, Note_on_c, 4, 62, 79
5, 28800, Note_on_c, 4, 62, 0
5, 28800, Note_on_c, 4, 62, 79
5, 28920, Note_on_c, 4, 62, 0
5, 28920, Note_on_c, 4, 63, 79
5, 29040, Note_on_c, 4, 63, 0
5, 29040, Note_on_c, 4, 63, 79
5, 29087, Note_on_c, 4, 63, 0
5, 29160, Note_on_c, 4, 63, 79
5, 29207, Note_on_c, 4, 63, 0
5, 29280, Note_on_c, 4, 43, 62
5, 29760, Note_on_c, 4, 43, 0
5, 29760, Note_on_c, 4, 48, 62
5, 30240, Note_on_c, 4, 48, 0
5, 30240, Note_on_c, 4, 67, 88
5, 30360, Note_on_c, 4, 67, 0
5, 30360, Note_on_c, 4, 65, 88
5, 30480, Note_on_c, 4, 65, 0
5, 30480, Note_on_c, 4, 63, 88
5, 30600, Note_on_c, 4, 63, 0
5, 30600, Note_on_c, 4, 62, 88
5, 30720, Note_on_c, 4, 62, 0
5, 30720, Note_on_c, 4, 63, 88
5, 30960, Note_on_c, 4, 63, 0
5, 30960, Note_on_c, 4, 51, 88
5, 31200, Note_on_c, 4, 51, 0
5, 31200, Note_on_c, 4, 51, 88
5, 31440, Note_on_c, 4, 51, 0
5, 31440, Note_on_c, 4, 51, 88
5, 31680, Note_on_c, 4, 51, 0
5, 31680, Note_on_c, 4, 53, 88
5, 32160, Note_on_c, 4, 53, 0
5, 32400, Note_on_c, 4, 67, 88
5, 32400, Note_on_c, 4, 70, 88
5, 32640, Note_on_c, 4, 70, 0
5, 32640, Note_on_c, 4, 67, 0
5, 32640, Note_on_c, 4, 65, 88
5, 32640, Note_on_c, 4, 70, 88
5, 32880, Note_on_c, 4, 70, 0
5, 32880, Note_on_c, 4, 69, 88
5, 32927, Note_on_c, 4, 65, 0
5, 32976, Note_on_c, 4, 69, 0
5, 34560, Note_on_c, 4, 53, 88
5, 35040, Note_on_c, 4, 53, 0
5, 35040, Note_on_c, 4, 41, 88
5, 35520, Note_on_c, 4, 41, 0
5, 35520, Note_on_c, 4, 48, 88
5, 36000, Note_on_c, 4, 48, 0
5, 36000, Note_on_c, 4, 36, 95
5, 36480, Note_on_c, 4, 36, 0
5, 36480, Note_on_c, 4, 48, 88
5, 36960, Note_on_c, 4, 48, 0
5, 36960, Note_on_c, 4, 36, 88
5, 37440, Note_on_c, 4, 36, 0
5, 37440, Note_on_c, 4, 45, 88
5, 37920, Note_on_c, 4, 45, 0
5, 37920, Note_on_c, 4, 57, 88
5, 38040, Note_on_c, 4, 57, 0
5, 38040, Note_on_c, 4, 60, 88
5, 38160, Note_on_c, 4, 60, 0
5, 38160, Note_on_c, 4, 57, 88
5, 38280, Note_on_c, 4, 57, 0
5, 38280, Note_on_c, 4, 60, 88
5, 38400, Note_on_c, 4, 60, 0
5, 38400, Note_on_c, 4, 58, 88
5, 38520, Note_on_c, 4, 58, 0
5, 38520, Note_on_c, 4, 65, 88
5, 38640, Note_on_c, 4, 65, 0
5, 38640, Note_on_c, 4, 62, 88
5, 38760, Note_on_c, 4, 62, 0
5, 38760, Note_on_c, 4, 70, 88
5, 38880, Note_on_c, 4, 70, 0
5, 38880, Note_on_c, 4, 65, 88
5, 39000, Note_on_c, 4, 65, 0
5, 39000, Note_on_c, 4, 70, 88
5, 39120, Note_on_c, 4, 70, 0
5, 39120, Note_on_c, 4, 63, 88
5, 39240, Note_on_c, 4, 63, 0
5, 39240, Note_on_c, 4, 69, 88
5, 39360, Note_on_c, 4, 69, 0
5, 39360, Note_on_c, 4, 62, 88
5, 39480, Note_on_c, 4, 62, 0
5, 39480, Note_on_c, 4, 67, 88
5, 39600, Note_on_c, 4, 67, 0
5, 39600, Note_on_c, 4, 58, 88
5, 39720, Note_on_c, 4, 58, 0
5, 39720, Note_on_c, 4, 62, 88
5, 39840, Note_on_c, 4, 62, 0
5, 39840, Note_on_c, 4, 64, 88
5, 39960, Note_on_c, 4, 64, 0
5, 39960, Note_on_c, 4, 67, 88
5, 40080, Note_on_c, 4, 67, 0
5, 40080, Note_on_c, 4, 60, 88
5, 40200, Note_on_c, 4, 60, 0
5, 40200, Note_on_c, 4, 66, 88
5, 40320, Note_on_c, 4, 66, 0
5, 40320, Note_on_c, 4, 62, 88
5, 40440, Note_on_c, 4, 62, 0
5, 40440, Note_on_c, 4, 67, 88
5, 40560, Note_on_c, 4, 67, 0
5, 40560, Note_on_c, 4, 58, 88
5, 40680, Note_on_c, 4, 58, 0
5, 40680, Note_on_c, 4, 62, 88
5, 40800, Note_on_c, 4, 62, 0
5, 40800, Note_on_c, 4, 55, 88
5, 40920, Note_on_c, 4, 55, 0
5, 40920, Note_on_c, 4, 67, 88
5, 41040, Note_on_c, 4, 67, 0
5, 41040, Note_on_c, 4, 62, 88
5, 41160, Note_on_c, 4, 62, 0
5, 41160, Note_on_c, 4, 70, 88
5, 41280, Note_on_c, 4, 70, 0
5, 41280, Note_on_c, 4, 69, 88
5, 41400, Note_on_c, 4, 69, 0
5, 41400, Note_on_c, 4, 60, 88
5, 41520, Note_on_c, 4, 60, 0
5, 41520, Note_on_c, 4, 65, 88
5, 41640, Note_on_c, 4, 65, 0
5, 41640, Note_on_c, 4, 69, 88
5, 41760, Note_on_c, 4, 69, 0
5, 41760, Note_on_c, 4, 72, 88
5, 42000, Note_on_c, 4, 72, 0
5, 42240, Note_on_c, 4, 65, 62
5, 42720, Note_on_c, 4, 65, 0
5, 42720, Note_on_c, 4, 72, 62
5, 42960, Note_on_c, 4, 72, 0
5, 42960, Note_on_c, 4, 76, 62
5, 43200, Note_on_c, 4, 76, 0
5, 43200, Note_on_c, 4, 72, 88
5, 43440, Note_on_c, 4, 72, 0
5, 43440, Note_on_c, 4, 72, 88
5, 43680, Note_on_c, 4, 72, 0
5, 43680, Note_on_c, 4, 72, 88
5, 43920, Note_on_c, 4, 72, 0
5, 44160, Note_on_c, 4, 65, 62
5, 44640, Note_on_c, 4, 65, 0
5, 44640, Note_on_c, 4, 60, 62
5, 44880, Note_on_c, 4, 60, 0
5, 44880, Note_on_c, 4, 64, 62
5, 45120, Note_on_c, 4, 64, 0
5, 45120, Note_on_c, 4, 60, 71
5, 45216, Note_on_c, 4, 60, 0
5, 45360, Note_on_c, 4, 60, 82
5, 45456, Note_on_c, 4, 60, 0
5, 45600, Note_on_c, 4, 60, 80
5, 45840, Note_on_c, 4, 60, 0
5, 45840, Note_on_c, 4, 60, 62
5, 45936, Note_on_c, 4, 60, 0
5, 46080, Note_on_c, 4, 65, 62
5, 46200, Note_on_c, 4, 65, 0
5, 46200, Note_on_c, 4, 66, 62
5, 46320, Note_on_c, 4, 66, 0
5, 46320, Note_on_c, 4, 67, 62
5, 46440, Note_on_c, 4, 67, 0
5, 46440, Note_on_c, 4, 68, 62
5, 46560, Note_on_c, 4, 68, 0
5, 46560, Note_on_c, 4, 69, 62
5, 46680, Note_on_c, 4, 69, 0
5, 46680, Note_on_c, 4, 70, 62
5, 46800, Note_on_c, 4, 70, 0
5, 46800, Note_on_c, 4, 71, 62
5, 46920, Note_on_c, 4, 71, 0
5, 46920, Note_on_c, 4, 72, 62
5, 47040, Note_on_c, 4, 72, 0
5, 47040, Note_on_c, 4, 69, 85
5, 47040, Note_on_c, 4, 73, 85
5, 47160, Note_on_c, 4, 70, 88
5, 47160, Note_on_c, 4, 74, 88
5, 47173, Note_on_c, 4, 73, 0
5, 47173, Note_on_c, 4, 69, 0
5, 47233, Note_on_c, 4, 70, 0
5, 47233, Note_on_c, 4, 74, 0
5, 47280, Note_on_c, 4, 70, 80
5, 47280, Note_on_c, 4, 74, 80
5, 47327, Note_on_c, 4, 70, 0
5, 47376, Note_on_c, 4, 74, 0
5, 48000, Note_on_c, 4, 53, 62
5, 48000, Note_on_c, 4, 65, 62
5, 48480, Note_on_c, 4, 65, 0
5, 48480, Note_on_c, 4, 53, 0
5, 48480, Note_on_c, 4, 49, 62
5, 48480, Note_on_c, 4, 61, 62
5, 48960, Note_on_c, 4, 61, 0
5, 48960, Note_on_c, 4, 49, 0
5, 48960, Note_on_c, 4, 50, 62
5, 48960, Note_on_c, 4, 62, 62
5, 49440, Note_on_c, 4, 62, 0
5, 49440, Note_on_c, 4, 50, 0
5, 50160, Note_on_c, 4, 74, 88
5, 50400, Note_on_c, 4, 74, 0
5, 50400, Note_on_c, 4, 69, 88
5, 50460, Note_on_c, 4, 69, 0
5, 50460, Note_on_c, 4, 72, 88
5, 50520, Note_on_c, 4, 72, 0
5, 50520, Note_on_c, 4, 70, 88
5, 50580, Note_on_c, 4, 70, 0
5, 50580, Note_on_c, 4, 69, 88
5, 50640, Note_on_c, 4, 69, 0
5, 50640, Note_on_c, 4, 67, 88
5, 50700, Note_on_c, 4, 67, 0
5, 50700, Note_on_c, 4, 70, 88
5, 50760, Note_on_c, 4, 70, 0
5, 50760, Note_on_c, 4, 69, 88
5, 50820, Note_on_c, 4, 69, 0
5, 50820, Note_on_c, 4, 67, 88
5, 50880, Note_on_c, 4, 67, 0
5, 50880, Note_on_c, 4, 72, 62
5, 51180, Note_on_c, 4, 72, 0
5, 51180, Note_on_c, 4, 74, 88
5, 51240, Note_on_c, 4, 74, 0
5, 51240, Note_on_c, 4, 76, 88
5, 51300, Note_on_c, 4, 76, 0
5, 51300, Note_on_c, 4, 77, 88
5, 51360, Note_on_c, 4, 77, 0
5, 51360, Note_on_c, 4, 77, 62
5, 51420, Note_on_c, 4, 77, 0
5, 51420, Note_on_c, 4, 76, 62
5, 51480, Note_on_c, 4, 76, 0
5, 51480, Note_on_c, 4, 74, 62
5, 51540, Note_on_c, 4, 74, 0
5, 51540, Note_on_c, 4, 72, 62
5, 51600, Note_on_c, 4, 72, 0
5, 51600, Note_on_c, 4, 72, 62
5, 51660, Note_on_c, 4, 72, 0
5, 51660, Note_on_c, 4, 70, 62
5, 51720, Note_on_c, 4, 70, 0
5, 51720, Note_on_c, 4, 69, 62
5, 51780, Note_on_c, 4, 69, 0
5, 51780, Note_on_c, 4, 67, 62
5, 51840, Note_on_c, 4, 67, 0
5, 51840, Note_on_c, 4, 72, 62
5, 52140, Note_on_c, 4, 72, 0
5, 52140, Note_on_c, 4, 74, 88
5, 52200, Note_on_c, 4, 74, 0
5, 52200, Note_on_c, 4, 76, 88
5, 52260, Note_on_c, 4, 76, 0
5, 52260, Note_on_c, 4, 77, 88
5, 52283, Note_on_c, 4, 77, 0
5, 52320, Note_on_c, 4, 77, 62
5, 52380, Note_on_c, 4, 77, 0
5, 52380, Note_on_c, 4, 76, 62
5, 52440, Note_on_c, 4, 76, 0
5, 52440, Note_on_c, 4, 74, 62
5, 52500, Note_on_c, 4, 74, 0
5, 52500, Note_on_c, 4, 72, 62
5, 52523, Note_on_c, 4, 72, 0
5, 52560, Note_on_c, 4, 72, 62
5, 52620, Note_on_c, 4, 72, 0
5, 52620, Note_on_c, 4, 70, 62
5, 52680, Note_on_c, 4, 70, 0
5, 52680, Note_on_c, 4, 69, 62
5, 52740, Note_on_c, 4, 69, 0
5, 52740, Note_on_c, 4, 67, 62
5, 52763, Note_on_c, 4, 67, 0
5, 52800, Note_on_c, 4, 69, 62
5, 53040, Note_on_c, 4, 69, 0
5, 53040, Note_on_c, 4, 77, 62
5, 53280, Note_on_c, 4, 77, 0
5, 53280, Note_on_c, 4, 77, 62
5, 53520, Note_on_c, 4, 77, 0
5, 53520, Note_on_c, 4, 77, 62
5, 53760, Note_on_c, 4, 77, 0
5, 53760, Note_on_c, 4, 74, 62
5, 53760, Note_on_c, 4, 77, 62
5, 53880, Note_on_c, 4, 77, 0
5, 53880, Note_on_c, 4, 74, 0
5, 53880, Note_on_c, 4, 74, 62
5, 53880, Note_on_c, 4, 77, 62
5, 54000, Note_on_c, 4, 77, 0
5, 54000, Note_on_c, 4, 74, 0
5, 54000, Note_on_c, 4, 74, 62
5, 54000, Note_on_c, 4, 77, 62
5, 54120, Note_on_c, 4, 77, 0
5, 54120, Note_on_c, 4, 74, 0
5, 54120, Note_on_c, 4, 74, 62
5, 54120, Note_on_c, 4, 77, 62
5, 54240, Note_on_c, 4, 77, 0
5, 54240, Note_on_c, 4, 74, 0
5, 54240, Note_on_c, 4, 76, 62
5, 54240, Note_on_c, 4, 79, 62
5, 54360, Note_on_c, 4, 79, 0
5, 54360, Note_on_c, 4, 76, 0
5, 54360, Note_on_c, 4, 76, 62
5, 54360, Note_on_c, 4, 79, 62
5, 54480, Note_on_c, 4, 79, 0
5, 54480, Note_on_c, 4, 76, 0
5, 54480, Note_on_c, 4, 76, 62
5, 54480, Note_on_c, 4, 79, 62
5, 54600, Note_on_c, 4, 79, 0
5, 54600, Note_on_c, 4, 76, 0
5, 54600, Note_on_c, 4, 76, 62
5, 54600, Note_on_c, 4, 79, 62
5, 54720, Note_on_c, 4, 79, 0
5, 54720, Note_on_c, 4, 76, 0
5, 54720, Note_on_c, 4, 77, 62
5, 54960, Note_on_c, 4, 77, 0
5, 55200, Note_on_c, 4, 57, 62
5, 55440, Note_on_c, 4, 57, 0
5, 55680, Note_on_c, 4, 58, 62
5, 55920, Note_on_c, 4, 58, 0
5, 56160, Note_on_c, 4, 58, 62
5, 56400, Note_on_c, 4, 58, 0
5, 56640, Note_on_c, 4, 48, 62
5, 56640, Note_on_c, 4, 60, 62
5, 56880, Note_on_c, 4, 60, 0
5, 56880, Note_on_c, 4, 48, 0
5, 57600, Note_on_c, 4, 81, 62
5, 57780, Note_on_c, 4, 81, 0
5, 57780, Note_on_c, 4, 77, 62
5, 57840, Note_on_c, 4, 77, 0
5, 57840, Note_on_c, 4, 81, 62
5, 58080, Note_on_c, 4, 81, 0
5, 58080, Note_on_c, 4, 72, 62
5, 58320, Note_on_c, 4, 72, 0
5, 58320, Note_on_c, 4, 77, 62
5, 58560, Note_on_c, 4, 77, 0
5, 58560, Note_on_c, 4, 77, 62
5, 58590, Note_on_c, 4, 77, 0
5, 58590, Note_on_c, 4, 76, 62
5, 58620, Note_on_c, 4, 76, 0
5, 58620, Note_on_c, 4, 77, 62
5, 58650, Note_on_c, 4, 77, 0
5, 58650, Note_on_c, 4, 76, 62
5, 58680, Note_on_c, 4, 76, 0
5, 58680, Note_on_c, 4, 77, 62
5, 58710, Note_on_c, 4, 77, 0
5, 58710, Note_on_c, 4, 76, 62
5, 58740, Note_on_c, 4, 76, 0
5, 58740, Note_on_c, 4, 77, 62
5, 58770, Note_on_c, 4, 77, 0
5, 58770, Note_on_c, 4, 76, 62
5, 58800, Note_on_c, 4, 76, 0
5, 58800, Note_on_c, 4, 77, 62
5, 58830, Note_on_c, 4, 77, 0
5, 58830, Note_on_c, 4, 76, 62
5, 58860, Note_on_c, 4, 76, 0
5, 58860, Note_on_c, 4, 77, 62
5, 58890, Note_on_c, 4, 77, 0
5, 58890, Note_on_c, 4, 76, 62
5, 58920, Note_on_c, 4, 76, 0
5, 58920, Note_on_c, 4, 77, 62
5, 58950, Note_on_c, 4, 77, 0
5, 58950, Note_on_c, 4, 76, 62
5, 58980, Note_on_c, 4, 76, 0
5, 58980, Note_on_c, 4, 77, 62
5, 59010, Note_on_c, 4, 77, 0
5, 59010, Note_on_c, 4, 76, 62
5, 59040, Note_on_c, 4, 76, 0
5, 59040, Note_on_c, 4, 77, 62
5, 59070, Note_on_c, 4, 77, 0
5, 59070, Note_on_c, 4, 76, 62
5, 59100, Note_on_c, 4, 76, 0
5, 59100, Note_on_c, 4, 77, 62
5, 59130, Note_on_c, 4, 77, 0
5, 59130, Note_on_c, 4, 76, 62
5, 59160, Note_on_c, 4, 76, 0
5, 59160, Note_on_c, 4, 77, 62
5, 59190, Note_on_c, 4, 77, 0
5, 59190, Note_on_c, 4, 76, 62
5, 59220, Note_on_c, 4, 76, 0
5, 59220, Note_on_c, 4, 77, 62
5, 59250, Note_on_c, 4, 77, 0
5, 59250, Note_on_c, 4, 76, 62
5, 59280, Note_on_c, 4, 76, 0
5, 59280, Note_on_c, 4, 77, 62
5, 59310, Note_on_c, 4, 77, 0
5, 59310, Note_on_c, 4, 76, 62
5, 59340, Note_on_c, 4, 76, 0
5, 59340, Note_on_c, 4, 77, 62
5, 59370, Note_on_c, 4, 77, 0
5, 59370, Note_on_c, 4, 76, 62
5, 59400, Note_on_c, 4, 76, 0
5, 59400, Note_on_c, 4, 74, 62
5, 59460, Note_on_c, 4, 74, 0
5, 59460, Note_on_c, 4, 76, 62
5, 59520, Note_on_c, 4, 76, 0
5, 62460, Note_on_c, 4, 65, 88
5, 62483, Note_on_c, 4, 65, 0
5, 62520, Note_on_c, 4, 69, 88
5, 62543, Note_on_c, 4, 69, 0
5, 62580, Note_on_c, 4, 67, 88
5, 62603, Note_on_c, 4, 67, 0
5, 62640, Note_on_c, 4, 65, 88
5, 62663, Note_on_c, 4, 65, 0
5, 62700, Note_on_c, 4, 67, 88
5, 62723, Note_on_c, 4, 67, 0
5, 62760, Note_on_c, 4, 69, 88
5, 62783, Note_on_c, 4, 69, 0
5, 62820, Note_on_c, 4, 69, 88
5, 62843, Note_on_c, 4, 69, 0
5, 62940, Note_on_c, 4, 65, 88
5, 62963, Note_on_c, 4, 65, 0
5, 63000, Note_on_c, 4, 69, 88
5, 63023, Note_on_c, 4, 69, 0
5, 63060, Note_on_c, 4, 67, 88
5, 63083, Note_on_c, 4, 67, 0
5, 63120, Note_on_c, 4, 65, 88
5, 63143, Note_on_c, 4, 65, 0
5, 63180, Note_on_c, 4, 67, 88
5, 63203, Note_on_c, 4, 67, 0
5, 63240, Note_on_c, 4, 69, 88
5, 63263, Note_on_c, 4, 69, 0
5, 63300, Note_on_c, 4, 69, 88
5, 63323, Note_on_c, 4, 69, 0
5, 63360, Note_on_c, 4, 67, 88
5, 63383, Note_on_c, 4, 67, 0
5, 63420, Note_on_c, 4, 69, 88
5, 63443, Note_on_c, 4, 69, 0
5, 63480, Note_on_c, 4, 67, 88
5, 63503, Note_on_c, 4, 67, 0
5, 63540, Note_on_c, 4, 65, 88
5, 63563, Note_on_c, 4, 65, 0
5, 63600, Note_on_c, 4, 64, 88
5, 63623, Note_on_c, 4, 64, 0
5, 63660, Note_on_c, 4, 65, 88
5, 63683, Note_on_c, 4, 65, 0
5, 63720, Note_on_c, 4, 64, 88
5, 63743, Note_on_c, 4, 64, 0
5, 63780, Note_on_c, 4, 62, 88
5, 63803, Note_on_c, 4, 62, 0
5, 63840, Note_on_c, 4, 60, 88
5, 63863, Note_on_c, 4, 60, 0
5, 63900, Note_on_c, 4, 62, 88
5, 63923, Note_on_c, 4, 62, 0
5, 63960, Note_on_c, 4, 60, 88
5, 63983, Note_on_c, 4, 60, 0
5, 64020, Note_on_c, 4, 58, 88
5, 64043, Note_on_c, 4, 58, 0
5, 64080, Note_on_c, 4, 57, 88
5, 64103, Note_on_c, 4, 57, 0
5, 64140, Note_on_c, 4, 58, 88
5, 64163, Note_on_c, 4, 58, 0
5, 64200, Note_on_c, 4, 57, 88
5, 64223, Note_on_c, 4, 57, 0
5, 64260, Note_on_c, 4, 55, 88
5, 64283, Note_on_c, 4, 55, 0
5, 64320, Note_on_c, 4, 53, 88
5, 64560, Note_on_c, 4, 53, 0
5, 64800, Note_on_c, 4, 53, 88
5, 65040, Note_on_c, 4, 53, 0
5, 65280, Note_on_c, 4, 48, 88
5, 65520, Note_on_c, 4, 48, 0
5, 65760, Note_on_c, 4, 48, 88
5, 66000, Note_on_c, 4, 48, 0
5, 66300, Note_on_c, 4, 65, 88
5, 66323, Note_on_c, 4, 65, 0
5, 66360, Note_on_c, 4, 69, 88
5, 66383, Note_on_c, 4, 69, 0
5, 66420, Note_on_c, 4, 67, 88
5, 66443, Note_on_c, 4, 67, 0
5, 66480, Note_on_c, 4, 65, 88
5, 66503, Note_on_c, 4, 65, 0
5, 66540, Note_on_c, 4, 67, 88
5, 66563, Note_on_c, 4, 67, 0
5, 66600, Note_on_c, 4, 69, 88
5, 66623, Note_on_c, 4, 69, 0
5, 66660, Note_on_c, 4, 69, 88
5, 66683, Note_on_c, 4, 69, 0
5, 66780, Note_on_c, 4, 65, 88
5, 66803, Note_on_c, 4, 65, 0
5, 66840, Note_on_c, 4, 69, 88
5, 66863, Note_on_c, 4, 69, 0
5, 66900, Note_on_c, 4, 67, 88
5, 66923, Note_on_c, 4, 67, 0
5, 66960, Note_on_c, 4, 65, 88
5, 66983, Note_on_c, 4, 65, 0
5, 67020, Note_on_c, 4, 67, 88
5, 67043, Note_on_c, 4, 67, 0
5, 67080, Note_on_c, 4, 69, 88
5, 67103, Note_on_c, 4, 69, 0
5, 67140, Note_on_c, 4, 69, 88
5, 67163, Note_on_c, 4, 69, 0
5, 67260, Note_on_c, 4, 65, 88
5, 67283, Note_on_c, 4, 65, 0
5, 67320, Note_on_c, 4, 69, 88
5, 67343, Note_on_c, 4, 69, 0
5, 67380, Note_on_c, 4, 67, 88
5, 67403, Note_on_c, 4, 67, 0
5, 67440, Note_on_c, 4, 65, 88
5, 67463, Note_on_c, 4, 65, 0
5, 67500, Note_on_c, 4, 67, 88
5, 67523, Note_on_c, 4, 67, 0
5, 67560, Note_on_c, 4, 69, 88
5, 67583, Note_on_c, 4, 69, 0
5, 67620, Note_on_c, 4, 69, 88
5, 67643, Note_on_c, 4, 69, 0
5, 67740, Note_on_c, 4, 65, 88
5, 67763, Note_on_c, 4, 65, 0
5, 67800, Note_on_c, 4, 69, 88
5, 67823, Note_on_c, 4, 69, 0
5, 67860, Note_on_c, 4, 67, 88
5, 67883, Note_on_c, 4, 67, 0
5, 67920, Note_on_c, 4, 65, 88
5, 67943, Note_on_c, 4, 65, 0
5, 67980, Note_on_c, 4, 67, 88
5, 68003, Note_on_c, 4, 67, 0
5, 68040, Note_on_c, 4, 69, 88
5, 68063, Note_on_c, 4, 69, 0
5, 68100, Note_on_c, 4, 69, 88
5, 68123, Note_on_c, 4, 69, 0
5, 68220, Note_on_c, 4, 62, 88
5, 68243, Note_on_c, 4, 62, 0
5, 68280, Note_on_c, 4, 65, 88
5, 68303, Note_on_c, 4, 65, 0
5, 68340, Note_on_c, 4, 63, 88
5, 68363, Note_on_c, 4, 63, 0
5, 68400, Note_on_c, 4, 62, 88
5, 68423, Note_on_c, 4, 62, 0
5, 68460, Note_on_c, 4, 63, 88
5, 68483, Note_on_c, 4, 63, 0
5, 68520, Note_on_c, 4, 65, 88
5, 68543, Note_on_c, 4, 65, 0
5, 68580, Note_on_c, 4, 65, 88
5, 68603, Note_on_c, 4, 65, 0
5, 68700, Note_on_c, 4, 62, 88
5, 68723, Note_on_c, 4, 62, 0
5, 68760, Note_on_c, 4, 65, 88
5, 68783, Note_on_c, 4, 65, 0
5, 68820, Note_on_c, 4, 63, 88
5, 68843, Note_on_c, 4, 63, 0
5, 68880, Note_on_c, 4, 62, 88
5, 68903, Note_on_c, 4, 62, 0
5, 68940, Note_on_c, 4, 63, 88
5, 68963, Note_on_c, 4, 63, 0
5, 69000, Note_on_c, 4, 65, 88
5, 69023, Note_on_c, 4, 65, 0
5, 69060, Note_on_c, 4, 65, 88
5, 69083, Note_on_c, 4, 65, 0
5, 69120, Note_on_c, 4, 50, 88
5, 69360, Note_on_c, 4, 50, 0
5, 69600, Note_on_c, 4, 50, 88
5, 69840, Note_on_c, 4, 50, 0
5, 70080, Note_on_c, 4, 55, 88
5, 70320, Note_on_c, 4, 55, 0
5, 70560, Note_on_c, 4, 43, 88
5, 70800, Note_on_c, 4, 43, 0
5, 71040, Note_on_c, 4, 51, 88
5, 71280, Note_on_c, 4, 51, 0
5, 71520, Note_on_c, 4, 51, 88
5, 71760, Note_on_c, 4, 51, 0
5, 72000, Note_on_c, 4, 50, 88
5, 72240, Note_on_c, 4, 50, 0
5, 72480, Note_on_c, 4, 50, 88
5, 72720, Note_on_c, 4, 50, 0
5, 72960, Note_on_c, 4, 51, 88
5, 73200, Note_on_c, 4, 51, 0
5, 73440, Note_on_c, 4, 51, 88
5, 73680, Note_on_c, 4, 51, 0
5, 73920, Note_on_c, 4, 50, 88
5, 74160, Note_on_c, 4, 50, 0
5, 74160, Note_on_c, 4, 50, 62
5, 74256, Note_on_c, 4, 50, 0
5, 74400, Note_on_c, 4, 50, 62
5, 74496, Note_on_c, 4, 50, 0
5, 74640, Note_on_c, 4, 50, 62
5, 74736, Note_on_c, 4, 50, 0
5, 74880, Note_on_c, 4, 50, 62
5, 75360, Note_on_c, 4, 50, 0
5, 75360, Note_on_c, 4, 48, 72
5, 75840, Note_on_c, 4, 48, 0
5, 76800, Note_on_c, 4, 58, 62
5, 77520, Note_on_c, 4, 58, 0
5, 77520, Note_on_c, 4, 57, 62
5, 77520, Note_on_c, 4, 60, 62
5, 77760, Note_on_c, 4, 60, 0
5, 77760, Note_on_c, 4, 57, 0
5, 77760, Note_on_c, 4, 55, 62
5, 77760, Note_on_c, 4, 58, 62
5, 78000, Note_on_c, 4, 55, 0
5, 78000, Note_on_c, 4, 53, 62
5, 78240, Note_on_c, 4, 53, 0
5, 78240, Note_on_c, 4, 51, 62
5, 78480, Note_on_c, 4, 51, 0
5, 78480, Note_on_c, 4, 58, 0
5, 78480, Note_on_c, 4, 52, 62
5, 78480, Note_on_c, 4, 55, 62
5, 78720, Note_on_c, 4, 55, 0
5, 78720, Note_on_c, 4, 52, 0
5, 78720, Note_on_c, 4, 41, 70
5, 78720, Note_on_c, 4, 53, 70
5, 79200, Note_on_c, 4, 53, 0
5, 79200, Note_on_c, 4, 41, 0
5, 79200, Note_on_c, 4, 41, 72
5, 79200, Note_on_c, 4, 53, 72
5, 79680, Note_on_c, 4, 53, 0
5, 79680, Note_on_c, 4, 41, 0
5, 79680, Note_on_c, 4, 46, 75
5, 79680, Note_on_c, 4, 58, 75
5, 80160, Note_on_c, 4, 58, 0
5, 80160, Note_on_c, 4, 46, 0
5, 80280, Note_on_c, 4, 58, 79
5, 80400, Note_on_c, 4, 58, 0
5, 80400, Note_on_c, 4, 62, 79
5, 80520, Note_on_c, 4, 62, 0
5, 80520, Note_on_c, 4, 58, 79
5, 80640, Note_on_c, 4, 58, 0
5, 80640, Note_on_c, 4, 65, 79
5, 80760, Note_on_c, 4, 65, 0
5, 80760, Note_on_c, 4, 76, 62
5, 80880, Note_on_c, 4, 76, 0
5, 80880, Note_on_c, 4, 77, 62
5, 81000, Note_on_c, 4, 77, 0
5, 81000, Note_on_c, 4, 73, 62
5, 81120, Note_on_c, 4, 73, 0
5, 81120, Note_on_c, 4, 74, 62
5, 81240, Note_on_c, 4, 74, 0
5, 81240, Note_on_c, 4, 69, 62
5, 81360, Note_on_c, 4, 69, 0
5, 81360, Note_on_c, 4, 70, 62
5, 81480, Note_on_c, 4, 70, 0
5, 81480, Note_on_c, 4, 63, 62
5, 81600, Note_on_c, 4, 63, 0
5, 81600, Note_on_c, 4, 62, 62
5, 81840, Note_on_c, 4, 62, 0
5, 82080, Note_on_c, 4, 62, 88
5, 82200, Note_on_c, 4, 62, 0
5, 82200, Note_on_c, 4, 65, 88
5, 82320, Note_on_c, 4, 65, 0
5, 82320, Note_on_c, 4, 63, 88
5, 82440, Note_on_c, 4, 63, 0
5, 82440, Note_on_c, 4, 62, 82
5, 82487, Note_on_c, 4, 62, 0
5, 82560, Note_on_c, 4, 62, 82
5, 82680, Note_on_c, 4, 62, 0
5, 82680, Note_on_c, 4, 63, 82
5, 82727, Note_on_c, 4, 63, 0
5, 82800, Note_on_c, 4, 63, 81
5, 82847, Note_on_c, 4, 63, 0
5, 82920, Note_on_c, 4, 63, 81
5, 82967, Note_on_c, 4, 63, 0
5, 83040, Note_on_c, 4, 43, 62
5, 83520, Note_on_c, 4, 43, 0
5, 83520, Note_on_c, 4, 48, 62
5, 84000, Note_on_c, 4, 48, 0
5, 84000, Note_on_c, 4, 67, 73
5, 84120, Note_on_c, 4, 67, 0
5, 84120, Note_on_c, 4, 65, 73
5, 84240, Note_on_c, 4, 65, 0
5, 84240, Note_on_c, 4, 63, 74
5, 84360, Note_on_c, 4, 63, 0
5, 84360, Note_on_c, 4, 62, 74
5, 84407, Note_on_c, 4, 62, 0
5, 84480, Note_on_c, 4, 63, 74
5, 84720, Note_on_c, 4, 63, 0
5, 84720, Note_on_c, 4, 51, 75
5, 84960, Note_on_c, 4, 51, 0
5, 84960, Note_on_c, 4, 51, 76
5, 85200, Note_on_c, 4, 51, 0
5, 85200, Note_on_c, 4, 51, 77
5, 85440, Note_on_c, 4, 51, 0
5, 85440, Note_on_c, 4, 53, 78
5, 85920, Note_on_c, 4, 53, 0
5, 86160, Note_on_c, 4, 67, 80
5, 86160, Note_on_c, 4, 70, 80
5, 86400, Note_on_c, 4, 70, 0
5, 86400, Note_on_c, 4, 67, 0
5, 86400, Note_on_c, 4, 65, 88
5, 86400, Note_on_c, 4, 70, 88
5, 86640, Note_on_c, 4, 70, 0
5, 86640, Note_on_c, 4, 69, 88
5, 86880, Note_on_c, 4, 69, 0
5, 86880, Note_on_c, 4, 65, 0
5, 88320, Note_on_c, 4, 58, 88
5, 88800, Note_on_c, 4, 58, 0
5, 88800, Note_on_c, 4, 46, 88
5, 89280, Note_on_c, 4, 46, 0
5, 89280, Note_on_c, 4, 53, 88
5, 89760, Note_on_c, 4, 53, 0
5, 89760, Note_on_c, 4, 41, 88
5, 90240, Note_on_c, 4, 41, 0
5, 90240, Note_on_c, 4, 41, 88
5, 90720, Note_on_c, 4, 41, 0
5, 90720, Note_on_c, 4, 41, 88
5, 91200, Note_on_c, 4, 41, 0
5, 91200, Note_on_c, 4, 46, 88
5, 91680, Note_on_c, 4, 46, 0
5, 91680, Note_on_c, 4, 62, 88
5, 91800, Note_on_c, 4, 62, 0
5, 91800, Note_on_c, 4, 65, 88
5, 91920, Note_on_c, 4, 65, 0
5, 91920, Note_on_c, 4, 62, 88
5, 92040, Note_on_c, 4, 62, 0
5, 92040, Note_on_c, 4, 65, 88
5, 92160, Note_on_c, 4, 65, 0
5, 92160, Note_on_c, 4, 63, 88
5, 92280, Note_on_c, 4, 63, 0
5, 92280, Note_on_c, 4, 70, 88
5, 92400, Note_on_c, 4, 70, 0
5, 92400, Note_on_c, 4, 67, 88
5, 92520, Note_on_c, 4, 67, 0
5, 92520, Note_on_c, 4, 75, 88
5, 92640, Note_on_c, 4, 75, 0
5, 92640, Note_on_c, 4, 70, 88
5, 92760, Note_on_c, 4, 70, 0
5, 92760, Note_on_c, 4, 75, 88
5, 92880, Note_on_c, 4, 75, 0
5, 92880, Note_on_c, 4, 68, 88
5, 93000, Note_on_c, 4, 68, 0
5, 93000, Note_on_c, 4, 74, 88
5, 93120, Note_on_c, 4, 74, 0
5, 93120, Note_on_c, 4, 67, 88
5, 93240, Note_on_c, 4, 67, 0
5, 93240, Note_on_c, 4, 72, 88
5, 93360, Note_on_c, 4, 72, 0
5, 93360, Note_on_c, 4, 63, 88
5, 93480, Note_on_c, 4, 63, 0
5, 93480, Note_on_c, 4, 67, 88
5, 93600, Note_on_c, 4, 67, 0
5, 93600, Note_on_c, 4, 69, 88
5, 93720, Note_on_c, 4, 69, 0
5, 93720, Note_on_c, 4, 72, 88
5, 93840, Note_on_c, 4, 72, 0
5, 93840, Note_on_c, 4, 65, 88
5, 93960, Note_on_c, 4, 65, 0
5, 93960, Note_on_c, 4, 71, 88
5, 94080, Note_on_c, 4, 71, 0
5, 94080, Note_on_c, 4, 67, 88
5, 94200, Note_on_c, 4, 67, 0
5, 94200, Note_on_c, 4, 72, 88
5, 94320, Note_on_c, 4, 72, 0
5, 94320, Note_on_c, 4, 63, 88
5, 94440, Note_on_c, 4, 63, 0
5, 94440, Note_on_c, 4, 67, 88
5, 94560, Note_on_c, 4, 67, 0
5, 94560, Note_on_c, 4, 60, 88
5, 94680, Note_on_c, 4, 60, 0
5, 94680, Note_on_c, 4, 55, 88
5, 94800, Note_on_c, 4, 55, 0
5, 94800, Note_on_c, 4, 67, 88
5, 94920, Note_on_c, 4, 67, 0
5, 94920, Note_on_c, 4, 63, 88
5, 95040, Note_on_c, 4, 63, 0
5, 95040, Note_on_c, 4, 65, 88
5, 95160, Note_on_c, 4, 65, 0
5, 95160, Note_on_c, 4, 53, 88
5, 95280, Note_on_c, 4, 53, 0
5, 95280, Note_on_c, 4, 58, 88
5, 95400, Note_on_c, 4, 58, 0
5, 95400, Note_on_c, 4, 62, 88
5, 95520, Note_on_c, 4, 62, 0
5, 95520, Note_on_c, 4, 65, 88
5, 95616, Note_on_c, 4, 65, 0
5, 96000, Note_on_c, 4, 70, 62
5, 96480, Note_on_c, 4, 70, 0
5, 96480, Note_on_c, 4, 77, 62
5, 96720, Note_on_c, 4, 77, 0
5, 96720, Note_on_c, 4, 81, 62
5, 96960, Note_on_c, 4, 81, 0
5, 96960, Note_on_c, 4, 77, 88
5, 97056, Note_on_c, 4, 77, 0
5, 97200, Note_on_c, 4, 77, 88
5, 97296, Note_on_c, 4, 77, 0
5, 97440, Note_on_c, 4, 77, 88
5, 97680, Note_on_c, 4, 77, 0
5, 97920, Note_on_c, 4, 70, 62
5, 98400, Note_on_c, 4, 70, 0
5, 98400, Note_on_c, 4, 65, 62
5, 98640, Note_on_c, 4, 65, 0
5, 98640, Note_on_c, 4, 69, 62
5, 98880, Note_on_c, 4, 69, 0
5, 98880, Note_on_c, 4, 65, 88
5, 99120, Note_on_c, 4, 65, 0
5, 99120, Note_on_c, 4, 65, 88
5, 99360, Note_on_c, 4, 65, 0
5, 99360, Note_on_c, 4, 65, 88
5, 99600, Note_on_c, 4, 65, 0
5, 99600, Note_on_c, 4, 53, 62
5, 99840, Note_on_c, 4, 53, 0
5, 99840, Note_on_c, 4, 58, 62
5, 99960, Note_on_c, 4, 58, 0
5, 99960, Note_on_c, 4, 59, 62
5, 100080, Note_on_c, 4, 59, 0
5, 100080, Note_on_c, 4, 60, 62
5, 100200, Note_on_c, 4, 60, 0
5, 100200, Note_on_c, 4, 61, 62
5, 100320, Note_on_c, 4, 61, 0
5, 100320, Note_on_c, 4, 62, 62
5, 100440, Note_on_c, 4, 62, 0
5, 100440, Note_on_c, 4, 63, 62
5, 100560, Note_on_c, 4, 63, 0
5, 100560, Note_on_c, 4, 64, 62
5, 100680, Note_on_c, 4, 64, 0
5, 100680, Note_on_c, 4, 65, 62
5, 100800, Note_on_c, 4, 65, 0
5, 100800, Note_on_c, 4, 62, 88
5, 100800, Note_on_c, 4, 66, 88
5, 100920, Note_on_c, 4, 66, 0
5, 100920, Note_on_c, 4, 62, 0
5, 100920, Note_on_c, 4, 63, 88
5, 100920, Note_on_c, 4, 67, 88
5, 100943, Note_on_c, 4, 63, 0
5, 100967, Note_on_c, 4, 67, 0
5, 101040, Note_on_c, 4, 63, 88
5, 101040, Note_on_c, 4, 67, 88
5, 101087, Note_on_c, 4, 63, 0
5, 101136, Note_on_c, 4, 67, 0
5, 101760, Note_on_c, 4, 46, 62
5, 101760, Note_on_c, 4, 58, 62
5, 102240, Note_on_c, 4, 58, 0
5, 102240, Note_on_c, 4, 46, 0
5, 102240, Note_on_c, 4, 42, 62
5, 102240, Note_on_c, 4, 54, 62
5, 102720, Note_on_c, 4, 54, 0
5, 102720, Note_on_c, 4, 42, 0
5, 102720, Note_on_c, 4, 43, 62
5, 102720, Note_on_c, 4, 55, 62
5, 103200, Note_on_c, 4, 55, 0
5, 103200, Note_on_c, 4, 43, 0
5, 103920, Note_on_c, 4, 67, 62
5, 104160, Note_on_c, 4, 67, 0
5, 104160, Note_on_c, 4, 62, 62
5, 104220, Note_on_c, 4, 62, 0
5, 104220, Note_on_c, 4, 65, 62
5, 104280, Note_on_c, 4, 65, 0
5, 104280, Note_on_c, 4, 63, 62
5, 104340, Note_on_c, 4, 63, 0
5, 104340, Note_on_c, 4, 62, 62
5, 104400, Note_on_c, 4, 62, 0
5, 104400, Note_on_c, 4, 60, 62
5, 104460, Note_on_c, 4, 60, 0
5, 104460, Note_on_c, 4, 63, 62
5, 104520, Note_on_c, 4, 63, 0
5, 104520, Note_on_c, 4, 62, 62
5, 104580, Note_on_c, 4, 62, 0
5, 104580, Note_on_c, 4, 60, 62
5, 104640, Note_on_c, 4, 60, 0
5, 104640, Note_on_c, 4, 65, 62
5, 104940, Note_on_c, 4, 65, 0
5, 104940, Note_on_c, 4, 67, 88
5, 105000, Note_on_c, 4, 67, 0
5, 105000, Note_on_c, 4, 69, 88
5, 105060, Note_on_c, 4, 69, 0
5, 105060, Note_on_c, 4, 70, 88
5, 105083, Note_on_c, 4, 70, 0
5, 105120, Note_on_c, 4, 70, 62
5, 105180, Note_on_c, 4, 70, 0
5, 105180, Note_on_c, 4, 69, 62
5, 105240, Note_on_c, 4, 69, 0
5, 105240, Note_on_c, 4, 67, 62
5, 105300, Note_on_c, 4, 67, 0
5, 105300, Note_on_c, 4, 65, 62
5, 105323, Note_on_c, 4, 65, 0
5, 105360, Note_on_c, 4, 65, 62
5, 105420, Note_on_c, 4, 65, 0
5, 105420, Note_on_c, 4, 63, 62
5, 105480, Note_on_c, 4, 63, 0
5, 105480, Note_on_c, 4, 62, 62
5, 105540, Note_on_c, 4, 62, 0
5, 105540, Note_on_c, 4, 60, 62
5, 105563, Note_on_c, 4, 60, 0
5, 105600, Note_on_c, 4, 65, 62
5, 105900, Note_on_c, 4, 65, 0
5, 105900, Note_on_c, 4, 67, 88
5, 105960, Note_on_c, 4, 67, 0
5, 105960, Note_on_c, 4, 69, 88
5, 106020, Note_on_c, 4, 69, 0
5, 106020, Note_on_c, 4, 70, 88
5, 106043, Note_on_c, 4, 70, 0
5, 106080, Note_on_c, 4, 70, 62
5, 106140, Note_on_c, 4, 70, 0
5, 106140, Note_on_c, 4, 69, 62
5, 106200, Note_on_c, 4, 69, 0
5, 106200, Note_on_c, 4, 67, 62
5, 106260, Note_on_c, 4, 67, 0
5, 106260, Note_on_c, 4, 65, 62
5, 106283, Note_on_c, 4, 65, 0
5, 106320, Note_on_c, 4, 65, 62
5, 106380, Note_on_c, 4, 65, 0
5, 106380, Note_on_c, 4, 63, 62
5, 106440, Note_on_c, 4, 63, 0
5, 106440, Note_on_c, 4, 62, 62
5, 106500, Note_on_c, 4, 62, 0
5, 106500, Note_on_c, 4, 60, 62
5, 106523, Note_on_c, 4, 60, 0
5, 106560, Note_on_c, 4, 62, 62
5, 106800, Note_on_c, 4, 62, 0
5, 106800, Note_on_c, 4, 70, 62
5, 107040, Note_on_c, 4, 70, 0
5, 107040, Note_on_c, 4, 70, 62
5, 107280, Note_on_c, 4, 70, 0
5, 107280, Note_on_c, 4, 70, 62
5, 107520, Note_on_c, 4, 70, 0
5, 107520, Note_on_c, 4, 67, 62
5, 107520, Note_on_c, 4, 70, 62
5, 107640, Note_on_c, 4, 70, 0
5, 107640, Note_on_c, 4, 67, 0
5, 107640, Note_on_c, 4, 67, 62
5, 107640, Note_on_c, 4, 70, 62
5, 107760, Note_on_c, 4, 70, 0
5, 107760, Note_on_c, 4, 67, 0
5, 107760, Note_on_c, 4, 67, 62
5, 107760, Note_on_c, 4, 70, 62
5, 107880, Note_on_c, 4, 70, 0
5, 107880, Note_on_c, 4, 67, 0
5, 107880, Note_on_c, 4, 67, 62
5, 107880, Note_on_c, 4, 70, 62
5, 108000, Note_on_c, 4, 70, 0
5, 108000, Note_on_c, 4, 67, 0
5, 108000, Note_on_c, 4, 69, 62
5, 108000, Note_on_c, 4, 72, 62
5, 108120, Note_on_c, 4, 72, 0
5, 108120, Note_on_c, 4, 69, 0
5, 108120, Note_on_c, 4, 69, 62
5, 108120, Note_on_c, 4, 72, 62
5, 108240, Note_on_c, 4, 72, 0
5, 108240, Note_on_c, 4, 69, 0
5, 108240, Note_on_c, 4, 69, 62
5, 108240, Note_on_c, 4, 72, 62
5, 108360, Note_on_c, 4, 72, 0
5, 108360, Note_on_c, 4, 69, 0
5, 108360, Note_on_c, 4, 69, 62
5, 108360, Note_on_c, 4, 72, 62
5, 108480, Note_on_c, 4, 72, 0
5, 108480, Note_on_c, 4, 69, 0
5, 108480, Note_on_c, 4, 70, 62
5, 108720, Note_on_c, 4, 70, 0
5, 108960, Note_on_c, 4, 50, 62
5, 109200, Note_on_c, 4, 50, 0
5, 109440, Note_on_c, 4, 51, 62
5, 109680, Note_on_c, 4, 51, 0
5, 109920, Note_on_c, 4, 51, 62
5, 110160, Note_on_c, 4, 51, 0
5, 110400, Note_on_c, 4, 41, 62
5, 110400, Note_on_c, 4, 53, 62
5, 110640, Note_on_c, 4, 53, 0
5, 110640, Note_on_c, 4, 41, 0
5, 111360, Note_on_c, 4, 74, 62
5, 111420, Note_on_c, 4, 74, 0
5, 111420, Note_on_c, 4, 73, 62
5, 111480, Note_on_c, 4, 73, 0
5, 111480, Note_on_c, 4, 74, 62
5, 111540, Note_on_c, 4, 74, 0
5, 111540, Note_on_c, 4, 73, 62
5, 111600, Note_on_c, 4, 73, 0
5, 111600, Note_on_c, 4, 74, 62
5, 111660, Note_on_c, 4, 74, 0
5, 111660, Note_on_c, 4, 73, 62
5, 111720, Note_on_c, 4, 73, 0
5, 111720, Note_on_c, 4, 74, 62
5, 111780, Note_on_c, 4, 74, 0
5, 111780, Note_on_c, 4, 73, 62
5, 111840, Note_on_c, 4, 73, 0
5, 111840, Note_on_c, 4, 74, 62
5, 111960, Note_on_c, 4, 74, 0
5, 111960, Note_on_c, 4, 75, 62
5, 112080, Note_on_c, 4, 75, 0
5, 112080, Note_on_c, 4, 72, 62
5, 112200, Note_on_c, 4, 72, 0
5, 112200, Note_on_c, 4, 74, 62
5, 112320, Note_on_c, 4, 74, 0
5, 112320, Note_on_c, 4, 82, 62
5, 112350, Note_on_c, 4, 82, 0
5, 112350, Note_on_c, 4, 81, 62
5, 112380, Note_on_c, 4, 81, 0
5, 112380, Note_on_c, 4, 82, 62
5, 112410, Note_on_c, 4, 82, 0
5, 112410, Note_on_c, 4, 81, 62
5, 112440, Note_on_c, 4, 81, 0
5, 112440, Note_on_c, 4, 82, 62
5, 112470, Note_on_c, 4, 82, 0
5, 112470, Note_on_c, 4, 81, 62
5, 112500, Note_on_c, 4, 81, 0
5, 112500, Note_on_c, 4, 82, 62
5, 112530, Note_on_c, 4, 82, 0
5, 112530, Note_on_c, 4, 81, 62
5, 112560, Note_on_c, 4, 81, 0
5, 112560, Note_on_c, 4, 82, 62
5, 112590, Note_on_c, 4, 82, 0
5, 112590, Note_on_c, 4, 81, 62
5, 112620, Note_on_c, 4, 81, 0
5, 112620, Note_on_c, 4, 82, 62
5, 112650, Note_on_c, 4, 82, 0
5, 112650, Note_on_c, 4, 81, 62
5, 112680, Note_on_c, 4, 81, 0
5, 112680, Note_on_c, 4, 82, 62
5, 112710, Note_on_c, 4, 82, 0
5, 112710, Note_on_c, 4, 81, 62
5, 112740, Note_on_c, 4, 81, 0
5, 112740, Note_on_c, 4, 82, 62
5, 112770, Note_on_c, 4, 82, 0
5, 112770, Note_on_c, 4, 81, 62
5, 112800, Note_on_c, 4, 81, 0
5, 112800, Note_on_c, 4, 82, 62
5, 112830, Note_on_c, 4, 82, 0
5, 112830, Note_on_c, 4, 81, 62
5, 112860, Note_on_c, 4, 81, 0
5, 112860, Note_on_c, 4, 82, 62
5, 112890, Note_on_c, 4, 82, 0
5, 112890, Note_on_c, 4, 81, 62
5, 112920, Note_on_c, 4, 81, 0
5, 112920, Note_on_c, 4, 82, 62
5, 112950, Note_on_c, 4, 82, 0
5, 112950, Note_on_c, 4, 81, 62
5, 112980, Note_on_c, 4, 81, 0
5, 112980, Note_on_c, 4, 82, 62
5, 113010, Note_on_c, 4, 82, 0
5, 113010, Note_on_c, 4, 81, 62
5, 113040, Note_on_c, 4, 81, 0
5, 113040, Note_on_c, 4, 82, 62
5, 113070, Note_on_c, 4, 82, 0
5, 113070, Note_on_c, 4, 81, 62
5, 113100, Note_on_c, 4, 81, 0
5, 113100, Note_on_c, 4, 82, 62
5, 113130, Note_on_c, 4, 82, 0
5, 113130, Note_on_c, 4, 81, 62
5, 113160, Note_on_c, 4, 81, 0
5, 113160, Note_on_c, 4, 79, 62
5, 113220, Note_on_c, 4, 79, 0
5, 113220, Note_on_c, 4, 81, 62
5, 113280, Note_on_c, 4, 81, 0
5, 117120, Note_on_c, 4, 41, 88
5, 117120, Note_on_c, 4, 53, 88
5, 118080, Note_on_c, 4, 53, 0
5, 118080, Note_on_c, 4, 41, 0
5, 121020, Note_on_c, 4, 70, 88
5, 121043, Note_on_c, 4, 70, 0
5, 121080, Note_on_c, 4, 74, 88
5, 121103, Note_on_c, 4, 74, 0
5, 121140, Note_on_c, 4, 72, 88
5, 121163, Note_on_c, 4, 72, 0
5, 121200, Note_on_c, 4, 70, 88
5, 121223, Note_on_c, 4, 70, 0
5, 121260, Note_on_c, 4, 72, 88
5, 121283, Note_on_c, 4, 72, 0
5, 121320, Note_on_c, 4, 74, 88
5, 121343, Note_on_c, 4, 74, 0
5, 121380, Note_on_c, 4, 74, 88
5, 121403, Note_on_c, 4, 74, 0
5, 121500, Note_on_c, 4, 70, 88
5, 121523, Note_on_c, 4, 70, 0
5, 121560, Note_on_c, 4, 74, 88
5, 121583, Note_on_c, 4, 74, 0
5, 121620, Note_on_c, 4, 72, 88
5, 121643, Note_on_c, 4, 72, 0
5, 121680, Note_on_c, 4, 70, 88
5, 121703, Note_on_c, 4, 70, 0
5, 121740, Note_on_c, 4, 72, 88
5, 121763, Note_on_c, 4, 72, 0
5, 121800, Note_on_c, 4, 74, 88
5, 121823, Note_on_c, 4, 74, 0
5, 121860, Note_on_c, 4, 74, 88
5, 121883, Note_on_c, 4, 74, 0
5, 121920, Note_on_c, 4, 72, 75
5, 121943, Note_on_c, 4, 72, 0
5, 121980, Note_on_c, 4, 74, 75
5, 122003, Note_on_c, 4, 74, 0
5, 122040, Note_on_c, 4, 72, 75
5, 122063, Note_on_c, 4, 72, 0
5, 122100, Note_on_c, 4, 70, 75
5, 122123, Note_on_c, 4, 70, 0
5, 122160, Note_on_c, 4, 69, 75
5, 122183, Note_on_c, 4, 69, 0
5, 122220, Note_on_c, 4, 70, 75
5, 122243, Note_on_c, 4, 70, 0
5, 122280, Note_on_c, 4, 69, 75
5, 122303, Note_on_c, 4, 69, 0
5, 122340, Note_on_c, 4, 67, 75
5, 122363, Note_on_c, 4, 67, 0
5, 122400, Note_on_c, 4, 65, 75
5, 122423, Note_on_c, 4, 65, 0
5, 122460, Note_on_c, 4, 67, 75
5, 122483, Note_on_c, 4, 67, 0
5, 122520, Note_on_c, 4, 65, 75
5, 122543, Note_on_c, 4, 65, 0
5, 122580, Note_on_c, 4, 63, 75
5, 122603, Note_on_c, 4, 63, 0
5, 122640, Note_on_c, 4, 62, 75
5, 122663, Note_on_c, 4, 62, 0
5, 122700, Note_on_c, 4, 63, 75
5, 122723, Note_on_c, 4, 63, 0
5, 122760, Note_on_c, 4, 62, 75
5, 122783, Note_on_c, 4, 62, 0
5, 122820, Note_on_c, 4, 60, 75
5, 122843, Note_on_c, 4, 60, 0
5, 122880, Note_on_c, 4, 58, 88
5, 123120, Note_on_c, 4, 58, 0
5, 123360, Note_on_c, 4, 58, 88
5, 123600, Note_on_c, 4, 58, 0
5, 123840, Note_on_c, 4, 53, 88
5, 124080, Note_on_c, 4, 53, 0
5, 124320, Note_on_c, 4, 53, 88
5, 124560, Note_on_c, 4, 53, 0
5, 124800, Note_on_c, 4, 58, 88
5, 125040, Note_on_c, 4, 58, 0
5, 125040, Note_on_c, 4, 70, 88
5, 125280, Note_on_c, 4, 70, 0
5, 125280, Note_on_c, 4, 70, 88
5, 125520, Note_on_c, 4, 70, 0
5, 125520, Note_on_c, 4, 70, 88
5, 125760, Note_on_c, 4, 70, 0
5, 125760, Note_on_c, 4, 67, 88
5, 125760, Note_on_c, 4, 70, 88
5, 125880, Note_on_c, 4, 70, 0
5, 125880, Note_on_c, 4, 67, 0
5, 125880, Note_on_c, 4, 67, 88
5, 125880, Note_on_c, 4, 70, 88
5, 126000, Note_on_c, 4, 70, 0
5, 126000, Note_on_c, 4, 67, 0
5, 126000, Note_on_c, 4, 67, 88
5, 126000, Note_on_c, 4, 70, 88
5, 126120, Note_on_c, 4, 70, 0
5, 126120, Note_on_c, 4, 67, 0
5, 126120, Note_on_c, 4, 67, 88
5, 126120, Note_on_c, 4, 70, 88
5, 126240, Note_on_c, 4, 70, 0
5, 126240, Note_on_c, 4, 67, 0
5, 126240, Note_on_c, 4, 69, 88
5, 126240, Note_on_c, 4, 72, 88
5, 126360, Note_on_c, 4, 72, 0
5, 126360, Note_on_c, 4, 69, 0
5, 126360, Note_on_c, 4, 69, 88
5, 126360, Note_on_c, 4, 72, 88
5, 126480, Note_on_c, 4, 72, 0
5, 126480, Note_on_c, 4, 69, 0
5, 126480, Note_on_c, 4, 69, 88
5, 126480, Note_on_c, 4, 72, 88
5, 126600, Note_on_c, 4, 72, 0
5, 126600, Note_on_c, 4, 69, 0
5, 126600, Note_on_c, 4, 69, 88
5, 126600, Note_on_c, 4, 72, 88
5, 126720, Note_on_c, 4, 72, 0
5, 126720, Note_on_c, 4, 69, 0
5, 126720, Note_on_c, 4, 70, 88
5, 126767, Note_on_c, 4, 70, 0
5, 126840, Note_on_c, 4, 70, 75
5, 126960, Note_on_c, 4, 70, 0
5, 126960, Note_on_c, 4, 69, 75
5, 127080, Note_on_c, 4, 69, 0
5, 127080, Note_on_c, 4, 68, 75
5, 127200, Note_on_c, 4, 68, 0
5, 127200, Note_on_c, 4, 67, 75
5, 127320, Note_on_c, 4, 67, 0
5, 127320, Note_on_c, 4, 66, 75
5, 127440, Note_on_c, 4, 66, 0
5, 127440, Note_on_c, 4, 65, 75
5, 127560, Note_on_c, 4, 65, 0
5, 127560, Note_on_c, 4, 64, 75
5, 127680, Note_on_c, 4, 64, 0
5, 127680, Note_on_c, 4, 65, 75
5, 127980, Note_on_c, 4, 65, 0
5, 127980, Note_on_c, 4, 67, 88
5, 128040, Note_on_c, 4, 67, 0
5, 128040, Note_on_c, 4, 69, 88
5, 128100, Note_on_c, 4, 69, 0
5, 128100, Note_on_c, 4, 70, 88
5, 128160, Note_on_c, 4, 70, 0
5, 128160, Note_on_c, 4, 70, 75
5, 128220, Note_on_c, 4, 70, 0
5, 128220, Note_on_c, 4, 69, 75
5, 128280, Note_on_c, 4, 69, 0
5, 128280, Note_on_c, 4, 67, 75
5, 128340, Note_on_c, 4, 67, 0
5, 128340, Note_on_c, 4, 65, 75
5, 128400, Note_on_c, 4, 65, 0
5, 128400, Note_on_c, 4, 65, 75
5, 128460, Note_on_c, 4, 65, 0
5, 128460, Note_on_c, 4, 63, 75
5, 128520, Note_on_c, 4, 63, 0
5, 128520, Note_on_c, 4, 62, 75
5, 128580, Note_on_c, 4, 62, 0
5, 128580, Note_on_c, 4, 60, 75
5, 128640, Note_on_c, 4, 60, 0
5, 128640, Note_on_c, 4, 65, 75
5, 128940, Note_on_c, 4, 65, 0
5, 128940, Note_on_c, 4, 67, 88
5, 129000, Note_on_c, 4, 67, 0
5, 129000, Note_on_c, 4, 69, 88
5, 129060, Note_on_c, 4, 69, 0
5, 129060, Note_on_c, 4, 70, 88
5, 129120, Note_on_c, 4, 70, 0
5, 129120, Note_on_c, 4, 70, 75
5, 129180, Note_on_c, 4, 70, 0
5, 129180, Note_on_c, 4, 69, 75
5, 129240, Note_on_c, 4, 69, 0
5, 129240, Note_on_c, 4, 67, 75
5, 129300, Note_on_c, 4, 67, 0
5, 129300, Note_on_c, 4, 65, 75
5, 129360, Note_on_c, 4, 65, 0
5, 129360, Note_on_c, 4, 65, 75
5, 129420, Note_on_c, 4, 65, 0
5, 129420, Note_on_c, 4, 63, 75
5, 129480, Note_on_c, 4, 63, 0
5, 129480, Note_on_c, 4, 62, 75
5, 129540, Note_on_c, 4, 62, 0
5, 129540, Note_on_c, 4, 60, 75
5, 129600, Note_on_c, 4, 60, 0
5, 129600, Note_on_c, 4, 59, 75
5, 129720, Note_on_c, 4, 59, 0
5, 129720, Note_on_c, 4, 60, 75
5, 129840, Note_on_c, 4, 60, 0
5, 130080, Note_on_c, 4, 62, 75
5, 130200, Note_on_c, 4, 62, 0
5, 130200, Note_on_c, 4, 63, 75
5, 130320, Note_on_c, 4, 63, 0
5, 130560, Note_on_c, 4, 66, 88
5, 130680, Note_on_c, 4, 66, 0
5, 130680, Note_on_c, 4, 67, 88
5, 130800, Note_on_c, 4, 67, 0
5, 130800, Note_on_c, 4, 71, 88
5, 130920, Note_on_c, 4, 71, 0
5, 130920, Note_on_c, 4, 72, 88
5, 131040, Note_on_c, 4, 72, 0
5, 131040, Note_on_c, 4, 74, 88
5, 131160, Note_on_c, 4, 74, 0
5, 131160, Note_on_c, 4, 75, 88
5, 131280, Note_on_c, 4, 75, 0
5, 131400, Note_on_c, 4, 72, 88
5, 131520, Note_on_c, 4, 72, 0
5, 131520, Note_on_c, 4, 77, 88
5, 131760, Note_on_c, 4, 77, 0
5, 131760, Note_on_c, 4, 79, 88
5, 132000, Note_on_c, 4, 79, 0
5, 132000, Note_on_c, 4, 81, 88
5, 132240, Note_on_c, 4, 81, 0
5, 132240, Note_on_c, 4, 82, 88
5, 132480, Note_on_c, 4, 82, 0
5, 132480, Note_on_c, 4, 82, 88
5, 132510, Note_on_c, 4, 82, 0
5, 132510, Note_on_c, 4, 81, 88
5, 132540, Note_on_c, 4, 81, 0
5, 132540, Note_on_c, 4, 82, 88
5, 132570, Note_on_c, 4, 82, 0
5, 132570, Note_on_c, 4, 81, 88
5, 132600, Note_on_c, 4, 81, 0
5, 132600, Note_on_c, 4, 82, 88
5, 132630, Note_on_c, 4, 82, 0
5, 132630, Note_on_c, 4, 81, 88
5, 132660, Note_on_c, 4, 81, 0
5, 132660, Note_on_c, 4, 82, 88
5, 132690, Note_on_c, 4, 82, 0
5, 132690, Note_on_c, 4, 81, 88
5, 132720, Note_on_c, 4, 81, 0
5, 132720, Note_on_c, 4, 82, 88
5, 132750, Note_on_c, 4, 82, 0
5, 132750, Note_on_c, 4, 81, 88
5, 132780, Note_on_c, 4, 81, 0
5, 132780, Note_on_c, 4, 82, 88
5, 132810, Note_on_c, 4, 82, 0
5, 132810, Note_on_c, 4, 81, 88
5, 132840, Note_on_c, 4, 81, 0
5, 132840, Note_on_c, 4, 82, 88
5, 132870, Note_on_c, 4, 82, 0
5, 132870, Note_on_c, 4, 81, 88
5, 132900, Note_on_c, 4, 81, 0
5, 132900, Note_on_c, 4, 82, 88
5, 132930, Note_on_c, 4, 82, 0
5, 132930, Note_on_c, 4, 81, 88
5, 132960, Note_on_c, 4, 81, 0
5, 132960, Note_on_c, 4, 82, 88
5, 132990, Note_on_c, 4, 82, 0
5, 132990, Note_on_c, 4, 81, 88
5, 133020, Note_on_c, 4, 81, 0
5, 133020, Note_on_c, 4, 82, 88
5, 133050, Note_on_c, 4, 82, 0
5, 133050, Note_on_c, 4, 81, 88
5, 133080, Note_on_c, 4, 81, 0
5, 133080, Note_on_c, 4, 82, 88
5, 133110, Note_on_c, 4, 82, 0
5, 133110, Note_on_c, 4, 81, 88
5, 133140, Note_on_c, 4, 81, 0
5, 133140, Note_on_c, 4, 82, 88
5, 133170, Note_on_c, 4, 82, 0
5, 133170, Note_on_c, 4, 81, 88
5, 133200, Note_on_c, 4, 81, 0
5, 133200, Note_on_c, 4, 82, 88
5, 133230, Note_on_c, 4, 82, 0
5, 133230, Note_on_c, 4, 81, 88
5, 133260, Note_on_c, 4, 81, 0
5, 133260, Note_on_c, 4, 82, 88
5, 133290, Note_on_c, 4, 82, 0
5, 133290, Note_on_c, 4, 81, 88
5, 133320, Note_on_c, 4, 81, 0
5, 133320, Note_on_c, 4, 82, 88
5, 133350, Note_on_c, 4, 82, 0
5, 133350, Note_on_c, 4, 81, 88
5, 133380, Note_on_c, 4, 81, 0
5, 133380, Note_on_c, 4, 82, 88
5, 133410, Note_on_c, 4, 82, 0
5, 133410, Note_on_c, 4, 81, 88
5, 133440, Note_on_c, 4, 81, 0
5, 133440, Note_on_c, 4, 82, 88
5, 133470, Note_on_c, 4, 82, 0
5, 133470, Note_on_c, 4, 81, 88
5, 133500, Note_on_c, 4, 81, 0
5, 133500, Note_on_c, 4, 82, 88
5, 133530, Note_on_c, 4, 82, 0
5, 133530, Note_on_c, 4, 81, 88
5, 133560, Note_on_c, 4, 81, 0
5, 133560, Note_on_c, 4, 82, 88
5, 133590, Note_on_c, 4, 82, 0
5, 133590, Note_on_c, 4, 81, 88
5, 133620, Note_on_c, 4, 81, 0
5, 133620, Note_on_c, 4, 82, 88
5, 133650, Note_on_c, 4, 82, 0
5, 133650, Note_on_c, 4, 81, 88
5, 133680, Note_on_c, 4, 81, 0
5, 133680, Note_on_c, 4, 82, 88
5, 133710, Note_on_c, 4, 82, 0
5, 133710, Note_on_c, 4, 81, 88
5, 133740, Note_on_c, 4, 81, 0
5, 133740, Note_on_c, 4, 82, 88
5, 133770, Note_on_c, 4, 82, 0
5, 133770, Note_on_c, 4, 81, 88
5, 133800, Note_on_c, 4, 81, 0
5, 133800, Note_on_c, 4, 82, 88
5, 133830, Note_on_c, 4, 82, 0
5, 133830, Note_on_c, 4, 81, 88
5, 133860, Note_on_c, 4, 81, 0
5, 133860, Note_on_c, 4, 82, 88
5, 133890, Note_on_c, 4, 82, 0
5, 133890, Note_on_c, 4, 81, 88
5, 133920, Note_on_c, 4, 81, 0
5, 133920, Note_on_c, 4, 82, 88
5, 133950, Note_on_c, 4, 82, 0
5, 133950, Note_on_c, 4, 81, 88
5, 133980, Note_on_c, 4, 81, 0
5, 133980, Note_on_c, 4, 82, 88
5, 134010, Note_on_c, 4, 82, 0
5, 134010, Note_on_c, 4, 81, 88
5, 134040, Note_on_c, 4, 81, 0
5, 134040, Note_on_c, 4, 82, 88
5, 134070, Note_on_c, 4, 82, 0
5, 134070, Note_on_c, 4, 81, 88
5, 134100, Note_on_c, 4, 81, 0
5, 134100, Note_on_c, 4, 82, 88
5, 134130, Note_on_c, 4, 82, 0
5, 134130, Note_on_c, 4, 81, 88
5, 134160, Note_on_c, 4, 81, 0
5, 134160, Note_on_c, 4, 82, 88
5, 134190, Note_on_c, 4, 82, 0
5, 134190, Note_on_c, 4, 81, 88
5, 134220, Note_on_c, 4, 81, 0
5, 134220, Note_on_c, 4, 82, 88
5, 134250, Note_on_c, 4, 82, 0
5, 134250, Note_on_c, 4, 81, 88
5, 134280, Note_on_c, 4, 81, 0
5, 134280, Note_on_c, 4, 79, 88
5, 134340, Note_on_c, 4, 79, 0
5, 134340, Note_on_c, 4, 81, 88
5, 134400, Note_on_c, 4, 81, 0
5, 138960, Note_on_c, 4, 75, 75
5, 138960, Note_on_c, 4, 77, 75
5, 139200, Note_on_c, 4, 77, 0
5, 139200, Note_on_c, 4, 75, 0
5, 139200, Note_on_c, 4, 75, 75
5, 139200, Note_on_c, 4, 77, 75
5, 139680, Note_on_c, 4, 75, 0
5, 139680, Note_on_c, 4, 74, 75
5, 139920, Note_on_c, 4, 74, 0
5, 139920, Note_on_c, 4, 77, 0
5, 139920, End_track
6, 0, Start_track
6, 0, Title_t, "Piano 2 Trebble"
6, 0, Control_c, 5, 0, 0
6, 0, Control_c, 5, 7, 100
6, 0, Control_c, 5, 10, 80
6, 0, Control_c, 5, 91, 76
6, 0, Control_c, 5, 93, 76
6, 1, Control_c, 5, 32, 1
6, 2, Program_c, 5, 0
6, 24960, Note_on_c, 5, 57, 71
6, 24960, Note_on_c, 5, 60, 71
6, 25080, Note_on_c, 5, 60, 0
6, 25080, Note_on_c, 5, 57, 0
6, 25080, Note_on_c, 5, 60, 71
6, 25080, Note_on_c, 5, 63, 71
6, 25200, Note_on_c, 5, 63, 0
6, 25200, Note_on_c, 5, 60, 0
6, 25200, Note_on_c, 5, 58, 71
6, 25200, Note_on_c, 5, 62, 71
6, 25320, Note_on_c, 5, 62, 0
6, 25320, Note_on_c, 5, 58, 0
6, 25320, Note_on_c, 5, 57, 71
6, 25320, Note_on_c, 5, 60, 71
6, 25440, Note_on_c, 5, 60, 0
6, 25440, Note_on_c, 5, 57, 0
6, 25440, Note_on_c, 5, 63, 71
6, 25440, Note_on_c, 5, 67, 71
6, 25560, Note_on_c, 5, 67, 0
6, 25560, Note_on_c, 5, 63, 0
6, 25560, Note_on_c, 5, 62, 71
6, 25560, Note_on_c, 5, 65, 71
6, 25680, Note_on_c, 5, 65, 0
6, 25680, Note_on_c, 5, 62, 0
6, 25680, Note_on_c, 5, 62, 71
6, 25680, Note_on_c, 5, 65, 71
6, 25800, Note_on_c, 5, 65, 0
6, 25800, Note_on_c, 5, 62, 0
6, 25800, Note_on_c, 5, 60, 71
6, 25800, Note_on_c, 5, 63, 71
6, 25920, Note_on_c, 5, 63, 0
6, 25920, Note_on_c, 5, 60, 0
6, 25920, Note_on_c, 5, 60, 71
6, 25920, Note_on_c, 5, 63, 71
6, 26040, Note_on_c, 5, 63, 0
6, 26040, Note_on_c, 5, 60, 0
6, 26040, Note_on_c, 5, 58, 71
6, 26040, Note_on_c, 5, 62, 71
6, 26160, Note_on_c, 5, 62, 0
6, 26160, Note_on_c, 5, 58, 0
6, 26160, Note_on_c, 5, 63, 71
6, 26160, Note_on_c, 5, 67, 71
6, 26280, Note_on_c, 5, 67, 0
6, 26280, Note_on_c, 5, 63, 0
6, 26280, Note_on_c, 5, 62, 71
6, 26280, Note_on_c, 5, 65, 71
6, 26400, Note_on_c, 5, 65, 0
6, 26400, Note_on_c, 5, 62, 0
6, 26400, Note_on_c, 5, 62, 71
6, 26400, Note_on_c, 5, 65, 71
6, 26880, Note_on_c, 5, 65, 0
6, 26880, Note_on_c, 5, 62, 0
6, 27960, Note_on_c, 5, 62, 62
6, 27960, Note_on_c, 5, 65, 62
6, 27960, Note_on_c, 5, 70, 62
6, 28080, Note_on_c, 5, 70, 0
6, 28080, Note_on_c, 5, 65, 0
6, 28080, Note_on_c, 5, 62, 0
6, 28080, Note_on_c, 5, 62, 62
6, 28080, Note_on_c, 5, 65, 62
6, 28080, Note_on_c, 5, 70, 62
6, 28200, Note_on_c, 5, 70, 0
6, 28200, Note_on_c, 5, 65, 0
6, 28200, Note_on_c, 5, 62, 0
6, 28200, Note_on_c, 5, 62, 62
6, 28200, Note_on_c, 5, 65, 62
6, 28200, Note_on_c, 5, 70, 62
6, 28320, Note_on_c, 5, 70, 0
6, 28320, Note_on_c, 5, 65, 0
6, 28320, Note_on_c, 5, 62, 0
6, 28320, Note_on_c, 5, 62, 62
6, 28320, Note_on_c, 5, 65, 62
6, 28320, Note_on_c, 5, 70, 62
6, 28560, Note_on_c, 5, 70, 0
6, 28560, Note_on_c, 5, 65, 0
6, 28560, Note_on_c, 5, 62, 0
6, 29280, Note_on_c, 5, 79, 62
6, 29400, Note_on_c, 5, 79, 0
6, 29400, Note_on_c, 5, 77, 62
6, 29520, Note_on_c, 5, 77, 0
6, 29520, Note_on_c, 5, 75, 62
6, 29640, Note_on_c, 5, 75, 0
6, 29640, Note_on_c, 5, 74, 62
6, 29760, Note_on_c, 5, 74, 0
6, 29760, Note_on_c, 5, 74, 62
6, 29880, Note_on_c, 5, 74, 0
6, 29880, Note_on_c, 5, 75, 62
6, 30000, Note_on_c, 5, 75, 0
6, 30000, Note_on_c, 5, 75, 62
6, 30047, Note_on_c, 5, 75, 0
6, 30120, Note_on_c, 5, 75, 62
6, 30167, Note_on_c, 5, 75, 0
6, 30240, Note_on_c, 5, 63, 88
6, 30360, Note_on_c, 5, 63, 0
6, 30360, Note_on_c, 5, 65, 88
6, 30480, Note_on_c, 5, 65, 0
6, 30480, Note_on_c, 5, 67, 88
6, 30600, Note_on_c, 5, 67, 0
6, 30600, Note_on_c, 5, 68, 88
6, 30720, Note_on_c, 5, 68, 0
6, 30720, Note_on_c, 5, 67, 88
6, 30960, Note_on_c, 5, 67, 0
6, 30960, Note_on_c, 5, 71, 88
6, 31020, Note_on_c, 5, 71, 0
6, 31020, Note_on_c, 5, 72, 88
6, 31080, Note_on_c, 5, 72, 0
6, 31080, Note_on_c, 5, 74, 88
6, 31140, Note_on_c, 5, 74, 0
6, 31140, Note_on_c, 5, 72, 88
6, 31200, Note_on_c, 5, 72, 0
6, 31200, Note_on_c, 5, 74, 88
6, 31260, Note_on_c, 5, 74, 0
6, 31260, Note_on_c, 5, 75, 88
6, 31320, Note_on_c, 5, 75, 0
6, 31320, Note_on_c, 5, 77, 88
6, 31380, Note_on_c, 5, 77, 0
6, 31380, Note_on_c, 5, 75, 88
6, 31440, Note_on_c, 5, 75, 0
6, 31440, Note_on_c, 5, 69, 88
6, 31500, Note_on_c, 5, 69, 0
6, 31500, Note_on_c, 5, 67, 88
6, 31560, Note_on_c, 5, 67, 0
6, 31560, Note_on_c, 5, 65, 88
6, 31620, Note_on_c, 5, 65, 0
6, 31620, Note_on_c, 5, 63, 88
6, 31680, Note_on_c, 5, 63, 0
6, 31680, Note_on_c, 5, 62, 88
6, 31920, Note_on_c, 5, 62, 0
6, 31920, Note_on_c, 5, 60, 88
6, 32160, Note_on_c, 5, 60, 0
6, 33060, Note_on_c, 5, 69, 88
6, 33120, Note_on_c, 5, 69, 0
6, 33120, Note_on_c, 5, 70, 88
6, 33180, Note_on_c, 5, 70, 0
6, 33180, Note_on_c, 5, 72, 88
6, 33240, Note_on_c, 5, 72, 0
6, 33240, Note_on_c, 5, 74, 88
6, 33300, Note_on_c, 5, 74, 0
6, 33300, Note_on_c, 5, 70, 88
6, 33360, Note_on_c, 5, 70, 0
6, 33360, Note_on_c, 5, 69, 88
6, 33420, Note_on_c, 5, 69, 0
6, 33420, Note_on_c, 5, 67, 88
6, 33480, Note_on_c, 5, 67, 0
6, 33480, Note_on_c, 5, 65, 88
6, 33540, Note_on_c, 5, 65, 0
6, 33540, Note_on_c, 5, 64, 88
6, 33600, Note_on_c, 5, 64, 0
6, 33600, Note_on_c, 5, 64, 88
6, 33840, Note_on_c, 5, 64, 0
6, 33840, Note_on_c, 5, 65, 88
6, 33936, Note_on_c, 5, 65, 0
6, 34320, Note_on_c, 5, 72, 88
6, 34560, Note_on_c, 5, 72, 0
6, 34560, Note_on_c, 5, 72, 88
6, 34920, Note_on_c, 5, 72, 0
6, 34940, Note_on_c, 5, 74, 99
6, 34962, Note_on_c, 5, 76, 101
6, 34970, Note_on_c, 5, 74, 0
6, 34980, Note_on_c, 5, 77, 101
6, 34992, Note_on_c, 5, 76, 0
6, 34998, Note_on_c, 5, 79, 102
6, 35010, Note_on_c, 5, 77, 0
6, 35012, Note_on_c, 5, 81, 102
6, 35028, Note_on_c, 5, 79, 0
6, 35028, Note_on_c, 5, 82, 102
6, 35040, Note_on_c, 5, 84, 102
6, 35042, Note_on_c, 5, 81, 0
6, 35058, Note_on_c, 5, 82, 0
6, 35280, Note_on_c, 5, 84, 0
6, 35280, Note_on_c, 5, 77, 94
6, 35428, Note_on_c, 5, 79, 95
6, 35440, Note_on_c, 5, 79, 0
6, 35455, Note_on_c, 5, 77, 0
6, 35462, Note_on_c, 5, 77, 98
6, 35475, Note_on_c, 5, 77, 0
6, 35490, Note_on_c, 5, 79, 95
6, 35502, Note_on_c, 5, 79, 0
6, 35524, Note_on_c, 5, 77, 95
6, 35640, Note_on_c, 5, 76, 88
6, 35644, Note_on_c, 5, 77, 0
6, 35760, Note_on_c, 5, 76, 0
6, 35760, Note_on_c, 5, 76, 88
6, 36000, Note_on_c, 5, 76, 0
6, 36240, Note_on_c, 5, 72, 88
6, 36480, Note_on_c, 5, 72, 0
6, 36480, Note_on_c, 5, 84, 88
6, 36600, Note_on_c, 5, 84, 0
6, 36600, Note_on_c, 5, 82, 88
6, 36656, Note_on_c, 5, 82, 0
6, 36720, Note_on_c, 5, 81, 88
6, 36767, Note_on_c, 5, 81, 0
6, 36840, Note_on_c, 5, 79, 88
6, 36887, Note_on_c, 5, 79, 0
6, 36960, Note_on_c, 5, 81, 88
6, 37080, Note_on_c, 5, 81, 0
6, 37080, Note_on_c, 5, 79, 88
6, 37128, Note_on_c, 5, 79, 0
6, 37200, Note_on_c, 5, 77, 88
6, 37247, Note_on_c, 5, 77, 0
6, 37320, Note_on_c, 5, 76, 88
6, 37367, Note_on_c, 5, 76, 0
6, 37440, Note_on_c, 5, 79, 88
6, 37560, Note_on_c, 5, 79, 0
6, 37560, Note_on_c, 5, 77, 88
6, 37680, Note_on_c, 5, 77, 0
6, 37680, Note_on_c, 5, 77, 88
6, 37776, Note_on_c, 5, 77, 0
6, 37920, Note_on_c, 5, 60, 88
6, 37980, Note_on_c, 5, 60, 0
6, 37980, Note_on_c, 5, 65, 88
6, 38040, Note_on_c, 5, 65, 0
6, 38040, Note_on_c, 5, 69, 88
6, 38100, Note_on_c, 5, 69, 0
6, 38100, Note_on_c, 5, 65, 88
6, 38160, Note_on_c, 5, 65, 0
6, 38160, Note_on_c, 5, 72, 88
6, 38220, Note_on_c, 5, 72, 0
6, 38220, Note_on_c, 5, 69, 88
6, 38280, Note_on_c, 5, 69, 0
6, 38280, Note_on_c, 5, 65, 88
6, 38340, Note_on_c, 5, 65, 0
6, 38340, Note_on_c, 5, 69, 88
6, 38400, Note_on_c, 5, 69, 0
6, 38400, Note_on_c, 5, 58, 88
6, 38460, Note_on_c, 5, 58, 0
6, 38460, Note_on_c, 5, 62, 88
6, 38520, Note_on_c, 5, 62, 0
6, 38520, Note_on_c, 5, 65, 88
6, 38580, Note_on_c, 5, 65, 0
6, 38580, Note_on_c, 5, 62, 88
6, 38640, Note_on_c, 5, 62, 0
6, 38640, Note_on_c, 5, 70, 88
6, 38700, Note_on_c, 5, 70, 0
6, 38700, Note_on_c, 5, 65, 88
6, 38760, Note_on_c, 5, 65, 0
6, 38760, Note_on_c, 5, 62, 88
6, 38820, Note_on_c, 5, 62, 0
6, 38820, Note_on_c, 5, 65, 88
6, 38880, Note_on_c, 5, 65, 0
6, 38880, Note_on_c, 5, 58, 88
6, 38940, Note_on_c, 5, 58, 0
6, 38940, Note_on_c, 5, 65, 88
6, 39000, Note_on_c, 5, 65, 0
6, 39000, Note_on_c, 5, 62, 88
6, 39060, Note_on_c, 5, 62, 0
6, 39060, Note_on_c, 5, 65, 88
6, 39120, Note_on_c, 5, 65, 0
6, 39120, Note_on_c, 5, 57, 88
6, 39180, Note_on_c, 5, 57, 0
6, 39180, Note_on_c, 5, 69, 88
6, 39240, Note_on_c, 5, 69, 0
6, 39240, Note_on_c, 5, 60, 88
6, 39300, Note_on_c, 5, 60, 0
6, 39300, Note_on_c, 5, 69, 88
6, 39360, Note_on_c, 5, 69, 0
6, 39360, Note_on_c, 5, 58, 88
6, 39420, Note_on_c, 5, 58, 0
6, 39420, Note_on_c, 5, 62, 88
6, 39480, Note_on_c, 5, 62, 0
6, 39480, Note_on_c, 5, 67, 88
6, 39540, Note_on_c, 5, 67, 0
6, 39540, Note_on_c, 5, 62, 88
6, 39600, Note_on_c, 5, 62, 0
6, 39600, Note_on_c, 5, 70, 88
6, 39660, Note_on_c, 5, 70, 0
6, 39660, Note_on_c, 5, 67, 88
6, 39720, Note_on_c, 5, 67, 0
6, 39720, Note_on_c, 5, 62, 88
6, 39780, Note_on_c, 5, 62, 0
6, 39780, Note_on_c, 5, 67, 88
6, 39840, Note_on_c, 5, 67, 0
6, 39840, Note_on_c, 5, 58, 88
6, 39900, Note_on_c, 5, 58, 0
6, 39900, Note_on_c, 5, 67, 88
6, 39960, Note_on_c, 5, 67, 0
6, 39960, Note_on_c, 5, 64, 88
6, 40020, Note_on_c, 5, 64, 0
6, 40020, Note_on_c, 5, 67, 88
6, 40080, Note_on_c, 5, 67, 0
6, 40080, Note_on_c, 5, 57, 88
6, 40140, Note_on_c, 5, 57, 0
6, 40140, Note_on_c, 5, 66, 88
6, 40200, Note_on_c, 5, 66, 0
6, 40200, Note_on_c, 5, 60, 88
6, 40260, Note_on_c, 5, 60, 0
6, 40260, Note_on_c, 5, 66, 88
6, 40320, Note_on_c, 5, 66, 0
6, 40320, Note_on_c, 5, 55, 88
6, 40380, Note_on_c, 5, 55, 0
6, 40380, Note_on_c, 5, 67, 88
6, 40440, Note_on_c, 5, 67, 0
6, 40440, Note_on_c, 5, 62, 88
6, 40500, Note_on_c, 5, 62, 0
6, 40500, Note_on_c, 5, 67, 88
6, 40560, Note_on_c, 5, 67, 0
6, 40560, Note_on_c, 5, 70, 88
6, 40620, Note_on_c, 5, 70, 0
6, 40620, Note_on_c, 5, 67, 88
6, 40680, Note_on_c, 5, 67, 0
6, 40680, Note_on_c, 5, 62, 88
6, 40740, Note_on_c, 5, 62, 0
6, 40740, Note_on_c, 5, 67, 88
6, 40800, Note_on_c, 5, 67, 0
6, 40800, Note_on_c, 5, 62, 88
6, 40860, Note_on_c, 5, 62, 0
6, 40860, Note_on_c, 5, 70, 88
6, 40920, Note_on_c, 5, 70, 0
6, 40920, Note_on_c, 5, 67, 88
6, 40980, Note_on_c, 5, 67, 0
6, 40980, Note_on_c, 5, 70, 88
6, 41040, Note_on_c, 5, 70, 0
6, 41040, Note_on_c, 5, 74, 88
6, 41100, Note_on_c, 5, 74, 0
6, 41100, Note_on_c, 5, 70, 88
6, 41160, Note_on_c, 5, 70, 0
6, 41160, Note_on_c, 5, 67, 88
6, 41220, Note_on_c, 5, 67, 0
6, 41220, Note_on_c, 5, 70, 88
6, 41280, Note_on_c, 5, 70, 0
6, 41280, Note_on_c, 5, 69, 88
6, 41340, Note_on_c, 5, 69, 0
6, 41340, Note_on_c, 5, 67, 88
6, 41400, Note_on_c, 5, 67, 0
6, 41400, Note_on_c, 5, 65, 88
6, 41460, Note_on_c, 5, 65, 0
6, 41460, Note_on_c, 5, 67, 88
6, 41520, Note_on_c, 5, 67, 0
6, 41520, Note_on_c, 5, 69, 88
6, 41580, Note_on_c, 5, 69, 0
6, 41580, Note_on_c, 5, 70, 88
6, 41640, Note_on_c, 5, 70, 0
6, 41640, Note_on_c, 5, 72, 88
6, 41700, Note_on_c, 5, 72, 0
6, 41700, Note_on_c, 5, 69, 88
6, 41760, Note_on_c, 5, 69, 0
6, 41760, Note_on_c, 5, 67, 88
6, 42000, Note_on_c, 5, 67, 0
6, 42240, Note_on_c, 5, 69, 62
6, 42300, Note_on_c, 5, 69, 0
6, 42300, Note_on_c, 5, 72, 62
6, 42360, Note_on_c, 5, 72, 0
6, 42360, Note_on_c, 5, 71, 62
6, 42420, Note_on_c, 5, 71, 0
6, 42420, Note_on_c, 5, 72, 62
6, 42480, Note_on_c, 5, 72, 0
6, 42480, Note_on_c, 5, 74, 62
6, 42540, Note_on_c, 5, 74, 0
6, 42540, Note_on_c, 5, 72, 62
6, 42600, Note_on_c, 5, 72, 0
6, 42600, Note_on_c, 5, 71, 62
6, 42660, Note_on_c, 5, 71, 0
6, 42660, Note_on_c, 5, 72, 62
6, 42683, Note_on_c, 5, 72, 0
6, 42720, Note_on_c, 5, 64, 62
6, 42780, Note_on_c, 5, 64, 0
6, 42780, Note_on_c, 5, 72, 62
6, 42840, Note_on_c, 5, 72, 0
6, 42840, Note_on_c, 5, 71, 62
6, 42900, Note_on_c, 5, 71, 0
6, 42900, Note_on_c, 5, 72, 62
6, 42960, Note_on_c, 5, 72, 0
6, 42960, Note_on_c, 5, 74, 62
6, 43020, Note_on_c, 5, 74, 0
6, 43020, Note_on_c, 5, 72, 62
6, 43080, Note_on_c, 5, 72, 0
6, 43080, Note_on_c, 5, 71, 62
6, 43140, Note_on_c, 5, 71, 0
6, 43140, Note_on_c, 5, 72, 62
6, 43163, Note_on_c, 5, 72, 0
6, 43200, Note_on_c, 5, 65, 88
6, 43260, Note_on_c, 5, 65, 0
6, 43260, Note_on_c, 5, 72, 88
6, 43320, Note_on_c, 5, 72, 0
6, 43320, Note_on_c, 5, 71, 88
6, 43380, Note_on_c, 5, 71, 0
6, 43380, Note_on_c, 5, 72, 88
6, 43440, Note_on_c, 5, 72, 0
6, 43440, Note_on_c, 5, 77, 88
6, 43500, Note_on_c, 5, 77, 0
6, 43500, Note_on_c, 5, 72, 88
6, 43560, Note_on_c, 5, 72, 0
6, 43560, Note_on_c, 5, 71, 88
6, 43620, Note_on_c, 5, 71, 0
6, 43620, Note_on_c, 5, 72, 88
6, 43643, Note_on_c, 5, 72, 0
6, 43680, Note_on_c, 5, 76, 62
6, 43740, Note_on_c, 5, 76, 0
6, 43740, Note_on_c, 5, 72, 62
6, 43800, Note_on_c, 5, 72, 0
6, 43800, Note_on_c, 5, 71, 62
6, 43860, Note_on_c, 5, 71, 0
6, 43860, Note_on_c, 5, 72, 62
6, 43920, Note_on_c, 5, 72, 0
6, 43920, Note_on_c, 5, 70, 62
6, 43980, Note_on_c, 5, 70, 0
6, 43980, Note_on_c, 5, 72, 62
6, 44040, Note_on_c, 5, 72, 0
6, 44040, Note_on_c, 5, 67, 62
6, 44100, Note_on_c, 5, 67, 0
6, 44100, Note_on_c, 5, 72, 62
6, 44123, Note_on_c, 5, 72, 0
6, 44160, Note_on_c, 5, 69, 62
6, 44220, Note_on_c, 5, 69, 0
6, 44220, Note_on_c, 5, 60, 62
6, 44280, Note_on_c, 5, 60, 0
6, 44280, Note_on_c, 5, 59, 62
6, 44340, Note_on_c, 5, 59, 0
6, 44340, Note_on_c, 5, 60, 62
6, 44400, Note_on_c, 5, 60, 0
6, 44400, Note_on_c, 5, 62, 62
6, 44460, Note_on_c, 5, 62, 0
6, 44460, Note_on_c, 5, 60, 62
6, 44520, Note_on_c, 5, 60, 0
6, 44520, Note_on_c, 5, 59, 62
6, 44580, Note_on_c, 5, 59, 0
6, 44580, Note_on_c, 5, 60, 62
6, 44603, Note_on_c, 5, 60, 0
6, 44640, Note_on_c, 5, 52, 62
6, 44700, Note_on_c, 5, 52, 0
6, 44700, Note_on_c, 5, 60, 62
6, 44760, Note_on_c, 5, 60, 0
6, 44760, Note_on_c, 5, 59, 62
6, 44820, Note_on_c, 5, 59, 0
6, 44820, Note_on_c, 5, 60, 62
6, 44880, Note_on_c, 5, 60, 0
6, 44880, Note_on_c, 5, 62, 62
6, 44940, Note_on_c, 5, 62, 0
6, 44940, Note_on_c, 5, 60, 62
6, 45000, Note_on_c, 5, 60, 0
6, 45000, Note_on_c, 5, 59, 62
6, 45060, Note_on_c, 5, 59, 0
6, 45060, Note_on_c, 5, 60, 62
6, 45083, Note_on_c, 5, 60, 0
6, 45120, Note_on_c, 5, 53, 62
6, 45180, Note_on_c, 5, 53, 0
6, 45180, Note_on_c, 5, 60, 62
6, 45240, Note_on_c, 5, 60, 0
6, 45240, Note_on_c, 5, 59, 62
6, 45300, Note_on_c, 5, 59, 0
6, 45300, Note_on_c, 5, 60, 62
6, 45360, Note_on_c, 5, 60, 0
6, 45360, Note_on_c, 5, 65, 62
6, 45420, Note_on_c, 5, 65, 0
6, 45420, Note_on_c, 5, 60, 62
6, 45480, Note_on_c, 5, 60, 0
6, 45480, Note_on_c, 5, 59, 62
6, 45540, Note_on_c, 5, 59, 0
6, 45540, Note_on_c, 5, 60, 62
6, 45600, Note_on_c, 5, 60, 0
6, 45600, Note_on_c, 5, 64, 62
6, 45696, Note_on_c, 5, 64, 0
6, 47520, Note_on_c, 5, 69, 62
6, 47520, Note_on_c, 5, 73, 62
6, 47640, Note_on_c, 5, 70, 62
6, 47640, Note_on_c, 5, 74, 62
6, 47652, Note_on_c, 5, 73, 0
6, 47652, Note_on_c, 5, 69, 0
6, 47713, Note_on_c, 5, 70, 0
6, 47713, Note_on_c, 5, 74, 0
6, 47760, Note_on_c, 5, 70, 62
6, 47760, Note_on_c, 5, 74, 62
6, 47807, Note_on_c, 5, 70, 0
6, 47856, Note_on_c, 5, 74, 0
6, 48000, Note_on_c, 5, 68, 62
6, 48000, Note_on_c, 5, 71, 62
6, 48120, Note_on_c, 5, 69, 62
6, 48120, Note_on_c, 5, 72, 62
6, 48132, Note_on_c, 5, 71, 0
6, 48132, Note_on_c, 5, 68, 0
6, 48193, Note_on_c, 5, 69, 0
6, 48193, Note_on_c, 5, 72, 0
6, 48240, Note_on_c, 5, 69, 62
6, 48240, Note_on_c, 5, 72, 62
6, 48263, Note_on_c, 5, 69, 0
6, 48287, Note_on_c, 5, 72, 0
6, 48360, Note_on_c, 5, 69, 62
6, 48360, Note_on_c, 5, 72, 62
6, 48383, Note_on_c, 5, 69, 0
6, 48407, Note_on_c, 5, 72, 0
6, 48480, Note_on_c, 5, 66, 62
6, 48480, Note_on_c, 5, 69, 62
6, 48600, Note_on_c, 5, 67, 62
6, 48600, Note_on_c, 5, 70, 62
6, 48612, Note_on_c, 5, 69, 0
6, 48612, Note_on_c, 5, 66, 0
6, 48673, Note_on_c, 5, 67, 0
6, 48673, Note_on_c, 5, 70, 0
6, 48720, Note_on_c, 5, 67, 62
6, 48720, Note_on_c, 5, 70, 62
6, 48743, Note_on_c, 5, 67, 0
6, 48767, Note_on_c, 5, 70, 0
6, 48840, Note_on_c, 5, 67, 62
6, 48840, Note_on_c, 5, 70, 62
6, 48863, Note_on_c, 5, 67, 0
6, 48887, Note_on_c, 5, 70, 0
6, 48960, Note_on_c, 5, 64, 62
6, 48960, Note_on_c, 5, 68, 62
6, 49080, Note_on_c, 5, 65, 62
6, 49080, Note_on_c, 5, 69, 62
6, 49092, Note_on_c, 5, 68, 0
6, 49092, Note_on_c, 5, 64, 0
6, 49153, Note_on_c, 5, 65, 0
6, 49153, Note_on_c, 5, 69, 0
6, 49200, Note_on_c, 5, 65, 67
6, 49200, Note_on_c, 5, 69, 67
6, 49223, Note_on_c, 5, 65, 0
6, 49247, Note_on_c, 5, 69, 0
6, 49320, Note_on_c, 5, 65, 67
6, 49320, Note_on_c, 5, 69, 67
6, 49367, Note_on_c, 5, 69, 0
6, 49367, Note_on_c, 5, 65, 0
6, 49390, Note_on_c, 5, 65, 77
6, 49405, Note_on_c, 5, 66, 81
6, 49413, Note_on_c, 5, 65, 0
6, 49420, Note_on_c, 5, 69, 81
6, 49435, Note_on_c, 5, 72, 85
6, 49440, Note_on_c, 5, 75, 85
6, 49465, Note_on_c, 5, 66, 0
6, 49467, Note_on_c, 5, 69, 0
6, 49495, Note_on_c, 5, 72, 0
6, 49980, Note_on_c, 5, 75, 0
6, 49980, Note_on_c, 5, 74, 88
6, 50040, Note_on_c, 5, 74, 0
6, 50040, Note_on_c, 5, 73, 88
6, 50100, Note_on_c, 5, 73, 0
6, 50100, Note_on_c, 5, 74, 88
6, 50160, Note_on_c, 5, 74, 0
6, 50160, Note_on_c, 5, 72, 88
6, 50220, Note_on_c, 5, 72, 0
6, 50220, Note_on_c, 5, 70, 88
6, 50280, Note_on_c, 5, 70, 0
6, 50280, Note_on_c, 5, 69, 88
6, 50340, Note_on_c, 5, 69, 0
6, 50340, Note_on_c, 5, 67, 88
6, 50400, Note_on_c, 5, 67, 0
6, 50400, Note_on_c, 5, 65, 88
6, 50460, Note_on_c, 5, 65, 0
6, 50460, Note_on_c, 5, 69, 88
6, 50520, Note_on_c, 5, 69, 0
6, 50520, Note_on_c, 5, 67, 88
6, 50580, Note_on_c, 5, 67, 0
6, 50580, Note_on_c, 5, 65, 85
6, 50640, Note_on_c, 5, 65, 0
6, 50640, Note_on_c, 5, 64, 82
6, 50700, Note_on_c, 5, 64, 0
6, 50700, Note_on_c, 5, 67, 78
6, 50760, Note_on_c, 5, 67, 0
6, 50760, Note_on_c, 5, 65, 75
6, 50820, Note_on_c, 5, 65, 0
6, 50820, Note_on_c, 5, 64, 72
6, 50880, Note_on_c, 5, 64, 0
6, 50880, Note_on_c, 5, 65, 69
6, 50903, Note_on_c, 5, 65, 0
6, 50940, Note_on_c, 5, 60, 69
6, 50963, Note_on_c, 5, 60, 0
6, 51000, Note_on_c, 5, 57, 69
6, 51023, Note_on_c, 5, 57, 0
6, 51060, Note_on_c, 5, 60, 69
6, 51083, Note_on_c, 5, 60, 0
6, 51120, Note_on_c, 5, 69, 70
6, 51143, Note_on_c, 5, 69, 0
6, 51180, Note_on_c, 5, 60, 70
6, 51203, Note_on_c, 5, 60, 0
6, 51240, Note_on_c, 5, 65, 70
6, 51263, Note_on_c, 5, 65, 0
6, 51300, Note_on_c, 5, 60, 68
6, 51323, Note_on_c, 5, 60, 0
6, 51360, Note_on_c, 5, 70, 68
6, 51383, Note_on_c, 5, 70, 0
6, 51420, Note_on_c, 5, 60, 68
6, 51443, Note_on_c, 5, 60, 0
6, 51480, Note_on_c, 5, 64, 68
6, 51503, Note_on_c, 5, 64, 0
6, 51540, Note_on_c, 5, 60, 68
6, 51563, Note_on_c, 5, 60, 0
6, 51600, Note_on_c, 5, 55, 65
6, 51623, Note_on_c, 5, 55, 0
6, 51660, Note_on_c, 5, 60, 65
6, 51683, Note_on_c, 5, 60, 0
6, 51720, Note_on_c, 5, 64, 65
6, 51743, Note_on_c, 5, 64, 0
6, 51780, Note_on_c, 5, 60, 65
6, 51803, Note_on_c, 5, 60, 0
6, 51840, Note_on_c, 5, 57, 63
6, 51863, Note_on_c, 5, 57, 0
6, 51900, Note_on_c, 5, 60, 63
6, 51923, Note_on_c, 5, 60, 0
6, 51960, Note_on_c, 5, 65, 64
6, 51983, Note_on_c, 5, 65, 0
6, 52020, Note_on_c, 5, 60, 66
6, 52043, Note_on_c, 5, 60, 0
6, 52080, Note_on_c, 5, 69, 68
6, 52103, Note_on_c, 5, 69, 0
6, 52140, Note_on_c, 5, 60, 68
6, 52163, Note_on_c, 5, 60, 0
6, 52200, Note_on_c, 5, 65, 71
6, 52223, Note_on_c, 5, 65, 0
6, 52260, Note_on_c, 5, 60, 71
6, 52283, Note_on_c, 5, 60, 0
6, 52320, Note_on_c, 5, 70, 71
6, 52343, Note_on_c, 5, 70, 0
6, 52380, Note_on_c, 5, 60, 71
6, 52403, Note_on_c, 5, 60, 0
6, 52440, Note_on_c, 5, 64, 71
6, 52463, Note_on_c, 5, 64, 0
6, 52500, Note_on_c, 5, 60, 71
6, 52523, Note_on_c, 5, 60, 0
6, 52560, Note_on_c, 5, 55, 71
6, 52583, Note_on_c, 5, 55, 0
6, 52620, Note_on_c, 5, 60, 71
6, 52643, Note_on_c, 5, 60, 0
6, 52680, Note_on_c, 5, 64, 71
6, 52703, Note_on_c, 5, 64, 0
6, 52740, Note_on_c, 5, 60, 71
6, 52763, Note_on_c, 5, 60, 0
6, 52800, Note_on_c, 5, 72, 70
6, 52823, Note_on_c, 5, 72, 0
6, 52860, Note_on_c, 5, 77, 70
6, 52920, Note_on_c, 5, 77, 0
6, 52920, Note_on_c, 5, 76, 62
6, 52980, Note_on_c, 5, 76, 0
6, 52980, Note_on_c, 5, 77, 62
6, 53003, Note_on_c, 5, 77, 0
6, 53100, Note_on_c, 5, 75, 62
6, 53160, Note_on_c, 5, 75, 0
6, 53160, Note_on_c, 5, 74, 62
6, 53220, Note_on_c, 5, 74, 0
6, 53220, Note_on_c, 5, 75, 62
6, 53243, Note_on_c, 5, 75, 0
6, 53340, Note_on_c, 5, 74, 62
6, 53400, Note_on_c, 5, 74, 0
6, 53400, Note_on_c, 5, 73, 62
6, 53460, Note_on_c, 5, 73, 0
6, 53460, Note_on_c, 5, 74, 62
6, 53483, Note_on_c, 5, 74, 0
6, 53580, Note_on_c, 5, 72, 65
6, 53640, Note_on_c, 5, 72, 0
6, 53640, Note_on_c, 5, 71, 68
6, 53700, Note_on_c, 5, 71, 0
6, 53700, Note_on_c, 5, 72, 68
6, 53723, Note_on_c, 5, 72, 0
6, 53760, Note_on_c, 5, 71, 68
6, 53820, Note_on_c, 5, 71, 0
6, 53820, Note_on_c, 5, 74, 68
6, 53880, Note_on_c, 5, 74, 0
6, 53880, Note_on_c, 5, 71, 68
6, 53940, Note_on_c, 5, 71, 0
6, 53940, Note_on_c, 5, 67, 68
6, 54000, Note_on_c, 5, 67, 0
6, 54000, Note_on_c, 5, 65, 68
6, 54060, Note_on_c, 5, 65, 0
6, 54060, Note_on_c, 5, 67, 66
6, 54120, Note_on_c, 5, 67, 0
6, 54120, Note_on_c, 5, 71, 66
6, 54180, Note_on_c, 5, 71, 0
6, 54180, Note_on_c, 5, 74, 66
6, 54203, Note_on_c, 5, 74, 0
6, 54240, Note_on_c, 5, 72, 66
6, 54300, Note_on_c, 5, 72, 0
6, 54300, Note_on_c, 5, 76, 68
6, 54360, Note_on_c, 5, 76, 0
6, 54360, Note_on_c, 5, 72, 68
6, 54420, Note_on_c, 5, 72, 0
6, 54420, Note_on_c, 5, 67, 68
6, 54480, Note_on_c, 5, 67, 0
6, 54480, Note_on_c, 5, 64, 68
6, 54540, Note_on_c, 5, 64, 0
6, 54540, Note_on_c, 5, 67, 68
6, 54600, Note_on_c, 5, 67, 0
6, 54600, Note_on_c, 5, 72, 69
6, 54660, Note_on_c, 5, 72, 0
6, 54660, Note_on_c, 5, 76, 71
6, 54683, Note_on_c, 5, 76, 0
6, 54720, Note_on_c, 5, 77, 74
6, 54960, Note_on_c, 5, 77, 0
6, 55260, Note_on_c, 5, 84, 79
6, 55320, Note_on_c, 5, 84, 0
6, 55320, Note_on_c, 5, 82, 82
6, 55380, Note_on_c, 5, 82, 0
6, 55380, Note_on_c, 5, 81, 84
6, 55440, Note_on_c, 5, 81, 0
6, 55440, Note_on_c, 5, 79, 87
6, 55500, Note_on_c, 5, 79, 0
6, 55500, Note_on_c, 5, 77, 87
6, 55560, Note_on_c, 5, 77, 0
6, 55560, Note_on_c, 5, 76, 88
6, 55620, Note_on_c, 5, 76, 0
6, 55620, Note_on_c, 5, 77, 88
6, 55643, Note_on_c, 5, 77, 0
6, 55680, Note_on_c, 5, 79, 87
6, 55700, Note_on_c, 5, 77, 87
6, 55720, Note_on_c, 5, 79, 84
6, 55725, Note_on_c, 5, 79, 0
6, 55740, Note_on_c, 5, 77, 82
6, 55745, Note_on_c, 5, 77, 0
6, 55760, Note_on_c, 5, 79, 84
6, 55765, Note_on_c, 5, 79, 0
6, 55780, Note_on_c, 5, 77, 82
6, 55785, Note_on_c, 5, 77, 0
6, 55800, Note_on_c, 5, 76, 81
6, 55805, Note_on_c, 5, 79, 0
6, 55825, Note_on_c, 5, 77, 0
6, 55860, Note_on_c, 5, 77, 79
6, 55876, Note_on_c, 5, 76, 0
6, 55920, Note_on_c, 5, 77, 0
6, 56220, Note_on_c, 5, 86, 80
6, 56280, Note_on_c, 5, 86, 0
6, 56280, Note_on_c, 5, 84, 85
6, 56340, Note_on_c, 5, 84, 0
6, 56340, Note_on_c, 5, 82, 87
6, 56400, Note_on_c, 5, 82, 0
6, 56400, Note_on_c, 5, 81, 87
6, 56460, Note_on_c, 5, 81, 0
6, 56460, Note_on_c, 5, 79, 87
6, 56520, Note_on_c, 5, 79, 0
6, 56520, Note_on_c, 5, 78, 87
6, 56580, Note_on_c, 5, 78, 0
6, 56580, Note_on_c, 5, 79, 87
6, 56640, Note_on_c, 5, 79, 0
6, 56640, Note_on_c, 5, 77, 82
6, 56760, Note_on_c, 5, 77, 0
6, 56760, Note_on_c, 5, 72, 78
6, 56880, Note_on_c, 5, 72, 0
6, 56880, Note_on_c, 5, 69, 78
6, 57000, Note_on_c, 5, 69, 0
6, 57000, Note_on_c, 5, 65, 78
6, 57120, Note_on_c, 5, 65, 0
6, 57120, Note_on_c, 5, 72, 79
6, 57240, Note_on_c, 5, 72, 0
6, 57240, Note_on_c, 5, 69, 79
6, 57360, Note_on_c, 5, 69, 0
6, 57360, Note_on_c, 5, 77, 82
6, 57480, Note_on_c, 5, 77, 0
6, 57480, Note_on_c, 5, 72, 84
6, 57600, Note_on_c, 5, 72, 0
6, 57600, Note_on_c, 5, 81, 84
6, 57660, Note_on_c, 5, 81, 0
6, 57660, Note_on_c, 5, 77, 83
6, 57720, Note_on_c, 5, 77, 0
6, 57720, Note_on_c, 5, 72, 79
6, 57780, Note_on_c, 5, 72, 0
6, 57780, Note_on_c, 5, 69, 77
6, 57840, Note_on_c, 5, 69, 0
6, 57840, Note_on_c, 5, 65, 77
6, 57900, Note_on_c, 5, 65, 0
6, 57900, Note_on_c, 5, 69, 74
6, 57960, Note_on_c, 5, 69, 0
6, 57960, Note_on_c, 5, 72, 74
6, 58020, Note_on_c, 5, 72, 0
6, 58020, Note_on_c, 5, 69, 74
6, 58080, Note_on_c, 5, 69, 0
6, 58080, Note_on_c, 5, 65, 74
6, 58140, Note_on_c, 5, 65, 0
6, 58140, Note_on_c, 5, 60, 74
6, 58200, Note_on_c, 5, 60, 0
6, 58200, Note_on_c, 5, 65, 74
6, 58260, Note_on_c, 5, 65, 0
6, 58260, Note_on_c, 5, 69, 76
6, 58320, Note_on_c, 5, 69, 0
6, 58320, Note_on_c, 5, 72, 76
6, 58380, Note_on_c, 5, 72, 0
6, 58380, Note_on_c, 5, 69, 76
6, 58440, Note_on_c, 5, 69, 0
6, 58440, Note_on_c, 5, 65, 76
6, 58500, Note_on_c, 5, 65, 0
6, 58500, Note_on_c, 5, 69, 79
6, 58560, Note_on_c, 5, 69, 0
6, 58560, Note_on_c, 5, 67, 81
6, 58620, Note_on_c, 5, 67, 0
6, 58620, Note_on_c, 5, 60, 84
6, 58680, Note_on_c, 5, 60, 0
6, 58680, Note_on_c, 5, 67, 84
6, 58740, Note_on_c, 5, 67, 0
6, 58740, Note_on_c, 5, 70, 86
6, 58800, Note_on_c, 5, 70, 0
6, 58800, Note_on_c, 5, 72, 86
6, 58860, Note_on_c, 5, 72, 0
6, 58860, Note_on_c, 5, 70, 86
6, 58920, Note_on_c, 5, 70, 0
6, 58920, Note_on_c, 5, 67, 86
6, 58980, Note_on_c, 5, 67, 0
6, 58980, Note_on_c, 5, 70, 86
6, 59040, Note_on_c, 5, 70, 0
6, 59040, Note_on_c, 5, 67, 86
6, 59100, Note_on_c, 5, 67, 0
6, 59100, Note_on_c, 5, 60, 86
6, 59160, Note_on_c, 5, 60, 0
6, 59160, Note_on_c, 5, 67, 86
6, 59220, Note_on_c, 5, 67, 0
6, 59220, Note_on_c, 5, 70, 86
6, 59280, Note_on_c, 5, 70, 0
6, 59280, Note_on_c, 5, 72, 89
6, 59340, Note_on_c, 5, 72, 0
6, 59340, Note_on_c, 5, 70, 89
6, 59400, Note_on_c, 5, 70, 0
6, 59400, Note_on_c, 5, 67, 92
6, 59460, Note_on_c, 5, 67, 0
6, 59460, Note_on_c, 5, 70, 94
6, 59520, Note_on_c, 5, 70, 0
6, 59520, Note_on_c, 5, 69, 94
6, 60000, Note_on_c, 5, 69, 0
6, 62400, Note_on_c, 5, 77, 88
6, 62520, Note_on_c, 5, 77, 0
6, 62520, Note_on_c, 5, 72, 88
6, 62640, Note_on_c, 5, 72, 0
6, 62640, Note_on_c, 5, 72, 88
6, 62880, Note_on_c, 5, 72, 0
6, 63120, Note_on_c, 5, 72, 88
6, 63180, Note_on_c, 5, 72, 0
6, 63180, Note_on_c, 5, 76, 88
6, 63240, Note_on_c, 5, 76, 0
6, 63240, Note_on_c, 5, 77, 88
6, 63300, Note_on_c, 5, 77, 0
6, 63300, Note_on_c, 5, 81, 88
6, 63360, Note_on_c, 5, 81, 0
6, 63360, Note_on_c, 5, 84, 88
6, 63480, Note_on_c, 5, 84, 0
6, 63480, Note_on_c, 5, 76, 88
6, 63600, Note_on_c, 5, 76, 0
6, 63600, Note_on_c, 5, 76, 88
6, 63696, Note_on_c, 5, 76, 0
6, 64080, Note_on_c, 5, 76, 88
6, 64320, Note_on_c, 5, 76, 0
6, 64320, Note_on_c, 5, 77, 88
6, 64343, Note_on_c, 5, 77, 0
6, 64380, Note_on_c, 5, 81, 88
6, 64403, Note_on_c, 5, 81, 0
6, 64440, Note_on_c, 5, 84, 88
6, 64463, Note_on_c, 5, 84, 0
6, 64500, Note_on_c, 5, 82, 88
6, 64523, Note_on_c, 5, 82, 0
6, 64560, Note_on_c, 5, 81, 88
6, 64583, Note_on_c, 5, 81, 0
6, 64620, Note_on_c, 5, 82, 88
6, 64643, Note_on_c, 5, 82, 0
6, 64680, Note_on_c, 5, 84, 88
6, 64703, Note_on_c, 5, 84, 0
6, 64740, Note_on_c, 5, 84, 88
6, 64763, Note_on_c, 5, 84, 0
6, 64860, Note_on_c, 5, 81, 88
6, 64883, Note_on_c, 5, 81, 0
6, 64920, Note_on_c, 5, 84, 88
6, 64943, Note_on_c, 5, 84, 0
6, 64980, Note_on_c, 5, 82, 88
6, 65003, Note_on_c, 5, 82, 0
6, 65040, Note_on_c, 5, 81, 88
6, 65063, Note_on_c, 5, 81, 0
6, 65100, Note_on_c, 5, 82, 88
6, 65123, Note_on_c, 5, 82, 0
6, 65160, Note_on_c, 5, 84, 88
6, 65183, Note_on_c, 5, 84, 0
6, 65220, Note_on_c, 5, 84, 88
6, 65243, Note_on_c, 5, 84, 0
6, 65280, Note_on_c, 5, 82, 88
6, 65303, Note_on_c, 5, 82, 0
6, 65340, Note_on_c, 5, 84, 88
6, 65363, Note_on_c, 5, 84, 0
6, 65400, Note_on_c, 5, 82, 88
6, 65423, Note_on_c, 5, 82, 0
6, 65460, Note_on_c, 5, 81, 88
6, 65483, Note_on_c, 5, 81, 0
6, 65520, Note_on_c, 5, 79, 88
6, 65543, Note_on_c, 5, 79, 0
6, 65580, Note_on_c, 5, 81, 88
6, 65603, Note_on_c, 5, 81, 0
6, 65640, Note_on_c, 5, 79, 88
6, 65663, Note_on_c, 5, 79, 0
6, 65700, Note_on_c, 5, 77, 88
6, 65723, Note_on_c, 5, 77, 0
6, 65760, Note_on_c, 5, 76, 88
6, 65783, Note_on_c, 5, 76, 0
6, 65820, Note_on_c, 5, 77, 88
6, 65843, Note_on_c, 5, 77, 0
6, 65880, Note_on_c, 5, 76, 88
6, 65903, Note_on_c, 5, 76, 0
6, 65940, Note_on_c, 5, 74, 88
6, 65963, Note_on_c, 5, 74, 0
6, 66000, Note_on_c, 5, 72, 88
6, 66023, Note_on_c, 5, 72, 0
6, 66060, Note_on_c, 5, 74, 88
6, 66083, Note_on_c, 5, 74, 0
6, 66120, Note_on_c, 5, 72, 88
6, 66143, Note_on_c, 5, 72, 0
6, 66180, Note_on_c, 5, 70, 88
6, 66203, Note_on_c, 5, 70, 0
6, 66240, Note_on_c, 5, 69, 88
6, 66360, Note_on_c, 5, 69, 0
6, 66360, Note_on_c, 5, 77, 88
6, 66420, Note_on_c, 5, 77, 0
6, 66420, Note_on_c, 5, 72, 88
6, 66480, Note_on_c, 5, 72, 0
6, 66480, Note_on_c, 5, 72, 88
6, 66720, Note_on_c, 5, 72, 0
6, 66960, Note_on_c, 5, 77, 88
6, 67200, Note_on_c, 5, 77, 0
6, 67200, Note_on_c, 5, 77, 88
6, 67320, Note_on_c, 5, 77, 0
6, 67320, Note_on_c, 5, 75, 88
6, 67440, Note_on_c, 5, 75, 0
6, 67440, Note_on_c, 5, 75, 88
6, 67800, Note_on_c, 5, 75, 0
6, 67800, Note_on_c, 5, 81, 88
6, 67920, Note_on_c, 5, 81, 0
6, 67920, Note_on_c, 5, 84, 88
6, 68040, Note_on_c, 5, 84, 0
6, 68040, Note_on_c, 5, 75, 88
6, 68160, Note_on_c, 5, 75, 0
6, 68160, Note_on_c, 5, 74, 88
6, 68220, Note_on_c, 5, 74, 0
6, 68220, Note_on_c, 5, 77, 88
6, 68280, Note_on_c, 5, 77, 0
6, 68280, Note_on_c, 5, 82, 88
6, 68340, Note_on_c, 5, 82, 0
6, 68340, Note_on_c, 5, 77, 88
6, 68400, Note_on_c, 5, 77, 0
6, 68400, Note_on_c, 5, 77, 88
6, 68496, Note_on_c, 5, 77, 0
6, 68880, Note_on_c, 5, 74, 88
6, 69120, Note_on_c, 5, 74, 0
6, 69180, Note_on_c, 5, 81, 88
6, 69203, Note_on_c, 5, 81, 0
6, 69240, Note_on_c, 5, 84, 88
6, 69263, Note_on_c, 5, 84, 0
6, 69300, Note_on_c, 5, 82, 88
6, 69323, Note_on_c, 5, 82, 0
6, 69360, Note_on_c, 5, 81, 88
6, 69383, Note_on_c, 5, 81, 0
6, 69420, Note_on_c, 5, 82, 88
6, 69443, Note_on_c, 5, 82, 0
6, 69480, Note_on_c, 5, 84, 88
6, 69503, Note_on_c, 5, 84, 0
6, 69540, Note_on_c, 5, 84, 88
6, 69563, Note_on_c, 5, 84, 0
6, 69660, Note_on_c, 5, 81, 88
6, 69683, Note_on_c, 5, 81, 0
6, 69720, Note_on_c, 5, 84, 88
6, 69743, Note_on_c, 5, 84, 0
6, 69780, Note_on_c, 5, 82, 88
6, 69803, Note_on_c, 5, 82, 0
6, 69840, Note_on_c, 5, 81, 88
6, 69863, Note_on_c, 5, 81, 0
6, 69900, Note_on_c, 5, 82, 88
6, 69923, Note_on_c, 5, 82, 0
6, 69960, Note_on_c, 5, 84, 88
6, 69983, Note_on_c, 5, 84, 0
6, 70020, Note_on_c, 5, 84, 88
6, 70043, Note_on_c, 5, 84, 0
6, 70140, Note_on_c, 5, 82, 88
6, 70163, Note_on_c, 5, 82, 0
6, 70200, Note_on_c, 5, 86, 88
6, 70223, Note_on_c, 5, 86, 0
6, 70260, Note_on_c, 5, 84, 88
6, 70283, Note_on_c, 5, 84, 0
6, 70320, Note_on_c, 5, 82, 88
6, 70343, Note_on_c, 5, 82, 0
6, 70380, Note_on_c, 5, 84, 88
6, 70403, Note_on_c, 5, 84, 0
6, 70440, Note_on_c, 5, 86, 88
6, 70463, Note_on_c, 5, 86, 0
6, 70500, Note_on_c, 5, 86, 88
6, 70523, Note_on_c, 5, 86, 0
6, 70620, Note_on_c, 5, 82, 88
6, 70643, Note_on_c, 5, 82, 0
6, 70680, Note_on_c, 5, 86, 88
6, 70703, Note_on_c, 5, 86, 0
6, 70740, Note_on_c, 5, 84, 88
6, 70763, Note_on_c, 5, 84, 0
6, 70800, Note_on_c, 5, 82, 88
6, 70823, Note_on_c, 5, 82, 0
6, 70860, Note_on_c, 5, 84, 88
6, 70883, Note_on_c, 5, 84, 0
6, 70920, Note_on_c, 5, 86, 88
6, 70943, Note_on_c, 5, 86, 0
6, 70980, Note_on_c, 5, 86, 88
6, 71003, Note_on_c, 5, 86, 0
6, 71100, Note_on_c, 5, 79, 88
6, 71123, Note_on_c, 5, 79, 0
6, 71160, Note_on_c, 5, 82, 88
6, 71183, Note_on_c, 5, 82, 0
6, 71220, Note_on_c, 5, 81, 88
6, 71243, Note_on_c, 5, 81, 0
6, 71280, Note_on_c, 5, 79, 88
6, 71303, Note_on_c, 5, 79, 0
6, 71340, Note_on_c, 5, 81, 88
6, 71363, Note_on_c, 5, 81, 0
6, 71400, Note_on_c, 5, 82, 88
6, 71423, Note_on_c, 5, 82, 0
6, 71460, Note_on_c, 5, 82, 88
6, 71483, Note_on_c, 5, 82, 0
6, 71580, Note_on_c, 5, 79, 88
6, 71603, Note_on_c, 5, 79, 0
6, 71640, Note_on_c, 5, 82, 88
6, 71663, Note_on_c, 5, 82, 0
6, 71700, Note_on_c, 5, 81, 88
6, 71723, Note_on_c, 5, 81, 0
6, 71760, Note_on_c, 5, 79, 88
6, 71783, Note_on_c, 5, 79, 0
6, 71820, Note_on_c, 5, 81, 88
6, 71843, Note_on_c, 5, 81, 0
6, 71880, Note_on_c, 5, 82, 88
6, 71903, Note_on_c, 5, 82, 0
6, 71940, Note_on_c, 5, 82, 88
6, 71963, Note_on_c, 5, 82, 0
6, 72060, Note_on_c, 5, 78, 88
6, 72083, Note_on_c, 5, 78, 0
6, 72120, Note_on_c, 5, 81, 88
6, 72143, Note_on_c, 5, 81, 0
6, 72180, Note_on_c, 5, 79, 88
6, 72203, Note_on_c, 5, 79, 0
6, 72240, Note_on_c, 5, 78, 88
6, 72263, Note_on_c, 5, 78, 0
6, 72300, Note_on_c, 5, 79, 88
6, 72323, Note_on_c, 5, 79, 0
6, 72360, Note_on_c, 5, 81, 88
6, 72383, Note_on_c, 5, 81, 0
6, 72420, Note_on_c, 5, 81, 88
6, 72443, Note_on_c, 5, 81, 0
6, 72540, Note_on_c, 5, 78, 88
6, 72563, Note_on_c, 5, 78, 0
6, 72600, Note_on_c, 5, 81, 88
6, 72623, Note_on_c, 5, 81, 0
6, 72660, Note_on_c, 5, 79, 88
6, 72683, Note_on_c, 5, 79, 0
6, 72720, Note_on_c, 5, 78, 88
6, 72743, Note_on_c, 5, 78, 0
6, 72780, Note_on_c, 5, 79, 88
6, 72803, Note_on_c, 5, 79, 0
6, 72840, Note_on_c, 5, 81, 88
6, 72863, Note_on_c, 5, 81, 0
6, 72900, Note_on_c, 5, 81, 88
6, 72923, Note_on_c, 5, 81, 0
6, 73020, Note_on_c, 5, 79, 88
6, 73043, Note_on_c, 5, 79, 0
6, 73080, Note_on_c, 5, 82, 88
6, 73103, Note_on_c, 5, 82, 0
6, 73140, Note_on_c, 5, 81, 88
6, 73163, Note_on_c, 5, 81, 0
6, 73200, Note_on_c, 5, 79, 88
6, 73223, Note_on_c, 5, 79, 0
6, 73260, Note_on_c, 5, 81, 88
6, 73283, Note_on_c, 5, 81, 0
6, 73320, Note_on_c, 5, 82, 88
6, 73343, Note_on_c, 5, 82, 0
6, 73380, Note_on_c, 5, 82, 88
6, 73403, Note_on_c, 5, 82, 0
6, 73500, Note_on_c, 5, 79, 88
6, 73523, Note_on_c, 5, 79, 0
6, 73560, Note_on_c, 5, 82, 88
6, 73583, Note_on_c, 5, 82, 0
6, 73620, Note_on_c, 5, 81, 88
6, 73643, Note_on_c, 5, 81, 0
6, 73680, Note_on_c, 5, 79, 88
6, 73703, Note_on_c, 5, 79, 0
6, 73740, Note_on_c, 5, 81, 88
6, 73763, Note_on_c, 5, 81, 0
6, 73800, Note_on_c, 5, 82, 88
6, 73823, Note_on_c, 5, 82, 0
6, 73860, Note_on_c, 5, 79, 88
6, 73883, Note_on_c, 5, 79, 0
6, 73920, Note_on_c, 5, 78, 88
6, 74160, Note_on_c, 5, 78, 0
6, 74160, Note_on_c, 5, 66, 62
6, 74160, Note_on_c, 5, 69, 62
6, 74207, Note_on_c, 5, 66, 0
6, 74256, Note_on_c, 5, 69, 0
6, 74400, Note_on_c, 5, 66, 62
6, 74400, Note_on_c, 5, 69, 62
6, 74447, Note_on_c, 5, 66, 0
6, 74496, Note_on_c, 5, 69, 0
6, 74640, Note_on_c, 5, 66, 62
6, 74640, Note_on_c, 5, 69, 62
6, 74687, Note_on_c, 5, 66, 0
6, 74736, Note_on_c, 5, 69, 0
6, 74880, Note_on_c, 5, 65, 62
6, 74880, Note_on_c, 5, 69, 62
6, 75360, Note_on_c, 5, 69, 0
6, 75360, Note_on_c, 5, 65, 0
6, 75360, Note_on_c, 5, 65, 74
6, 75360, Note_on_c, 5, 69, 74
6, 75840, Note_on_c, 5, 69, 0
6, 75840, Note_on_c, 5, 65, 0
6, 78720, Note_on_c, 5, 57, 77
6, 78720, Note_on_c, 5, 60, 77
6, 78840, Note_on_c, 5, 60, 0
6, 78840, Note_on_c, 5, 57, 0
6, 78840, Note_on_c, 5, 60, 77
6, 78840, Note_on_c, 5, 63, 77
6, 78960, Note_on_c, 5, 63, 0
6, 78960, Note_on_c, 5, 60, 0
6, 78960, Note_on_c, 5, 58, 77
6, 78960, Note_on_c, 5, 62, 77
6, 79080, Note_on_c, 5, 62, 0
6, 79080, Note_on_c, 5, 58, 0
6, 79080, Note_on_c, 5, 57, 77
6, 79080, Note_on_c, 5, 60, 77
6, 79103, Note_on_c, 5, 57, 0
6, 79127, Note_on_c, 5, 60, 0
6, 79200, Note_on_c, 5, 63, 78
6, 79200, Note_on_c, 5, 67, 78
6, 79320, Note_on_c, 5, 67, 0
6, 79320, Note_on_c, 5, 63, 0
6, 79320, Note_on_c, 5, 62, 78
6, 79320, Note_on_c, 5, 65, 78
6, 79343, Note_on_c, 5, 62, 0
6, 79367, Note_on_c, 5, 65, 0
6, 79440, Note_on_c, 5, 62, 78
6, 79440, Note_on_c, 5, 65, 78
6, 79560, Note_on_c, 5, 65, 0
6, 79560, Note_on_c, 5, 62, 0
6, 79560, Note_on_c, 5, 60, 78
6, 79560, Note_on_c, 5, 63, 78
6, 79583, Note_on_c, 5, 60, 0
6, 79607, Note_on_c, 5, 63, 0
6, 79680, Note_on_c, 5, 60, 78
6, 79680, Note_on_c, 5, 63, 78
6, 79800, Note_on_c, 5, 63, 0
6, 79800, Note_on_c, 5, 60, 0
6, 79800, Note_on_c, 5, 58, 79
6, 79800, Note_on_c, 5, 62, 79
6, 79823, Note_on_c, 5, 58, 0
6, 79847, Note_on_c, 5, 62, 0
6, 79920, Note_on_c, 5, 63, 79
6, 79920, Note_on_c, 5, 67, 79
6, 80040, Note_on_c, 5, 67, 0
6, 80040, Note_on_c, 5, 63, 0
6, 80040, Note_on_c, 5, 62, 79
6, 80040, Note_on_c, 5, 65, 79
6, 80063, Note_on_c, 5, 62, 0
6, 80087, Note_on_c, 5, 65, 0
6, 80160, Note_on_c, 5, 62, 79
6, 80160, Note_on_c, 5, 65, 79
6, 80640, Note_on_c, 5, 65, 0
6, 80640, Note_on_c, 5, 62, 0
6, 81720, Note_on_c, 5, 62, 62
6, 81720, Note_on_c, 5, 65, 62
6, 81720, Note_on_c, 5, 70, 62
6, 81840, Note_on_c, 5, 70, 0
6, 81840, Note_on_c, 5, 65, 0
6, 81840, Note_on_c, 5, 62, 0
6, 81840, Note_on_c, 5, 62, 62
6, 81840, Note_on_c, 5, 65, 62
6, 81840, Note_on_c, 5, 70, 62
6, 81960, Note_on_c, 5, 70, 0
6, 81960, Note_on_c, 5, 65, 0
6, 81960, Note_on_c, 5, 62, 0
6, 81960, Note_on_c, 5, 62, 62
6, 81960, Note_on_c, 5, 65, 62
6, 81960, Note_on_c, 5, 70, 62
6, 82080, Note_on_c, 5, 70, 0
6, 82080, Note_on_c, 5, 65, 0
6, 82080, Note_on_c, 5, 62, 0
6, 82080, Note_on_c, 5, 62, 62
6, 82080, Note_on_c, 5, 65, 62
6, 82080, Note_on_c, 5, 70, 62
6, 82320, Note_on_c, 5, 70, 0
6, 82320, Note_on_c, 5, 65, 0
6, 82320, Note_on_c, 5, 62, 0
6, 83040, Note_on_c, 5, 79, 62
6, 83160, Note_on_c, 5, 79, 0
6, 83160, Note_on_c, 5, 77, 62
6, 83280, Note_on_c, 5, 77, 0
6, 83280, Note_on_c, 5, 75, 62
6, 83400, Note_on_c, 5, 75, 0
6, 83400, Note_on_c, 5, 74, 62
6, 83447, Note_on_c, 5, 74, 0
6, 83520, Note_on_c, 5, 74, 62
6, 83640, Note_on_c, 5, 74, 0
6, 83640, Note_on_c, 5, 75, 62
6, 83687, Note_on_c, 5, 75, 0
6, 83760, Note_on_c, 5, 75, 62
6, 83807, Note_on_c, 5, 75, 0
6, 83880, Note_on_c, 5, 75, 62
6, 83927, Note_on_c, 5, 75, 0
6, 84000, Note_on_c, 5, 63, 79
6, 84120, Note_on_c, 5, 63, 0
6, 84120, Note_on_c, 5, 65, 79
6, 84240, Note_on_c, 5, 65, 0
6, 84240, Note_on_c, 5, 67, 79
6, 84360, Note_on_c, 5, 67, 0
6, 84360, Note_on_c, 5, 68, 79
6, 84407, Note_on_c, 5, 68, 0
6, 84480, Note_on_c, 5, 67, 79
6, 84720, Note_on_c, 5, 67, 0
6, 84720, Note_on_c, 5, 71, 79
6, 84780, Note_on_c, 5, 71, 0
6, 84780, Note_on_c, 5, 72, 79
6, 84840, Note_on_c, 5, 72, 0
6, 84840, Note_on_c, 5, 74, 79
6, 84900, Note_on_c, 5, 74, 0
6, 84900, Note_on_c, 5, 72, 79
6, 84960, Note_on_c, 5, 72, 0
6, 84960, Note_on_c, 5, 74, 79
6, 85020, Note_on_c, 5, 74, 0
6, 85020, Note_on_c, 5, 75, 79
6, 85080, Note_on_c, 5, 75, 0
6, 85080, Note_on_c, 5, 77, 79
6, 85140, Note_on_c, 5, 77, 0
6, 85140, Note_on_c, 5, 75, 79
6, 85200, Note_on_c, 5, 75, 0
6, 85200, Note_on_c, 5, 69, 79
6, 85260, Note_on_c, 5, 69, 0
6, 85260, Note_on_c, 5, 67, 79
6, 85320, Note_on_c, 5, 67, 0
6, 85320, Note_on_c, 5, 65, 79
6, 85380, Note_on_c, 5, 65, 0
6, 85380, Note_on_c, 5, 63, 79
6, 85440, Note_on_c, 5, 63, 0
6, 85440, Note_on_c, 5, 62, 79
6, 85680, Note_on_c, 5, 62, 0
6, 85680, Note_on_c, 5, 60, 79
6, 85920, Note_on_c, 5, 60, 0
6, 86820, Note_on_c, 5, 69, 88
6, 86880, Note_on_c, 5, 69, 0
6, 86880, Note_on_c, 5, 70, 88
6, 86940, Note_on_c, 5, 70, 0
6, 86940, Note_on_c, 5, 72, 88
6, 87000, Note_on_c, 5, 72, 0
6, 87000, Note_on_c, 5, 74, 88
6, 87060, Note_on_c, 5, 74, 0
6, 87060, Note_on_c, 5, 70, 88
6, 87120, Note_on_c, 5, 70, 0
6, 87120, Note_on_c, 5, 69, 88
6, 87180, Note_on_c, 5, 69, 0
6, 87180, Note_on_c, 5, 67, 88
6, 87240, Note_on_c, 5, 67, 0
6, 87240, Note_on_c, 5, 65, 88
6, 87300, Note_on_c, 5, 65, 0
6, 87300, Note_on_c, 5, 64, 88
6, 87360, Note_on_c, 5, 64, 0
6, 87360, Note_on_c, 5, 64, 88
6, 87600, Note_on_c, 5, 64, 0
6, 87600, Note_on_c, 5, 65, 88
6, 87840, Note_on_c, 5, 65, 0
6, 88080, Note_on_c, 5, 65, 101
6, 88320, Note_on_c, 5, 65, 0
6, 88320, Note_on_c, 5, 65, 111
6, 88684, Note_on_c, 5, 65, 0
6, 88688, Note_on_c, 5, 67, 92
6, 88712, Note_on_c, 5, 69, 95
6, 88728, Note_on_c, 5, 70, 97
6, 88748, Note_on_c, 5, 67, 0
6, 88750, Note_on_c, 5, 72, 99
6, 88758, Note_on_c, 5, 70, 0
6, 88768, Note_on_c, 5, 74, 102
6, 88772, Note_on_c, 5, 69, 0
6, 88780, Note_on_c, 5, 72, 0
6, 88790, Note_on_c, 5, 75, 104
6, 88798, Note_on_c, 5, 74, 0
6, 88800, Note_on_c, 5, 77, 106
6, 88820, Note_on_c, 5, 75, 0
6, 89040, Note_on_c, 5, 77, 0
6, 89040, Note_on_c, 5, 70, 108
6, 89204, Note_on_c, 5, 72, 107
6, 89208, Note_on_c, 5, 70, 0
6, 89219, Note_on_c, 5, 72, 0
6, 89226, Note_on_c, 5, 70, 111
6, 89241, Note_on_c, 5, 70, 0
6, 89250, Note_on_c, 5, 72, 107
6, 89265, Note_on_c, 5, 72, 0
6, 89280, Note_on_c, 5, 70, 104
6, 89392, Note_on_c, 5, 69, 100
6, 89394, Note_on_c, 5, 70, 0
6, 89512, Note_on_c, 5, 69, 0
6, 89520, Note_on_c, 5, 69, 94
6, 89760, Note_on_c, 5, 69, 0
6, 90000, Note_on_c, 5, 65, 88
6, 90240, Note_on_c, 5, 65, 0
6, 90240, Note_on_c, 5, 77, 104
6, 90360, Note_on_c, 5, 77, 0
6, 90360, Note_on_c, 5, 75, 103
6, 90407, Note_on_c, 5, 75, 0
6, 90480, Note_on_c, 5, 74, 101
6, 90527, Note_on_c, 5, 74, 0
6, 90600, Note_on_c, 5, 72, 100
6, 90647, Note_on_c, 5, 72, 0
6, 90720, Note_on_c, 5, 74, 101
6, 90840, Note_on_c, 5, 74, 0
6, 90840, Note_on_c, 5, 72, 88
6, 90887, Note_on_c, 5, 72, 0
6, 90960, Note_on_c, 5, 70, 101
6, 91007, Note_on_c, 5, 70, 0
6, 91080, Note_on_c, 5, 69, 100
6, 91127, Note_on_c, 5, 69, 0
6, 91200, Note_on_c, 5, 72, 100
6, 91320, Note_on_c, 5, 72, 0
6, 91320, Note_on_c, 5, 70, 99
6, 91367, Note_on_c, 5, 70, 0
6, 91440, Note_on_c, 5, 70, 98
6, 91536, Note_on_c, 5, 70, 0
6, 91680, Note_on_c, 5, 53, 88
6, 91740, Note_on_c, 5, 53, 0
6, 91740, Note_on_c, 5, 58, 88
6, 91800, Note_on_c, 5, 58, 0
6, 91800, Note_on_c, 5, 62, 88
6, 91860, Note_on_c, 5, 62, 0
6, 91860, Note_on_c, 5, 58, 88
6, 91920, Note_on_c, 5, 58, 0
6, 91920, Note_on_c, 5, 65, 88
6, 91980, Note_on_c, 5, 65, 0
6, 91980, Note_on_c, 5, 62, 88
6, 92040, Note_on_c, 5, 62, 0
6, 92040, Note_on_c, 5, 58, 88
6, 92100, Note_on_c, 5, 58, 0
6, 92100, Note_on_c, 5, 62, 88
6, 92160, Note_on_c, 5, 62, 0
6, 92160, Note_on_c, 5, 55, 88
6, 92220, Note_on_c, 5, 55, 0
6, 92220, Note_on_c, 5, 58, 88
6, 92280, Note_on_c, 5, 58, 0
6, 92280, Note_on_c, 5, 63, 88
6, 92340, Note_on_c, 5, 63, 0
6, 92340, Note_on_c, 5, 58, 88
6, 92400, Note_on_c, 5, 58, 0
6, 92400, Note_on_c, 5, 67, 88
6, 92460, Note_on_c, 5, 67, 0
6, 92460, Note_on_c, 5, 63, 88
6, 92520, Note_on_c, 5, 63, 0
6, 92520, Note_on_c, 5, 58, 88
6, 92580, Note_on_c, 5, 58, 0
6, 92580, Note_on_c, 5, 63, 88
6, 92640, Note_on_c, 5, 63, 0
6, 92640, Note_on_c, 5, 55, 88
6, 92700, Note_on_c, 5, 55, 0
6, 92700, Note_on_c, 5, 67, 88
6, 92760, Note_on_c, 5, 67, 0
6, 92760, Note_on_c, 5, 63, 88
6, 92820, Note_on_c, 5, 63, 0
6, 92820, Note_on_c, 5, 67, 88
6, 92880, Note_on_c, 5, 67, 0
6, 92880, Note_on_c, 5, 62, 88
6, 92940, Note_on_c, 5, 62, 0
6, 92940, Note_on_c, 5, 74, 88
6, 93000, Note_on_c, 5, 74, 0
6, 93000, Note_on_c, 5, 65, 88
6, 93060, Note_on_c, 5, 65, 0
6, 93060, Note_on_c, 5, 77, 88
6, 93120, Note_on_c, 5, 77, 0
6, 93120, Note_on_c, 5, 63, 88
6, 93180, Note_on_c, 5, 63, 0
6, 93180, Note_on_c, 5, 67, 88
6, 93240, Note_on_c, 5, 67, 0
6, 93240, Note_on_c, 5, 72, 88
6, 93300, Note_on_c, 5, 72, 0
6, 93300, Note_on_c, 5, 67, 88
6, 93360, Note_on_c, 5, 67, 0
6, 93360, Note_on_c, 5, 75, 88
6, 93420, Note_on_c, 5, 75, 0
6, 93420, Note_on_c, 5, 72, 88
6, 93480, Note_on_c, 5, 72, 0
6, 93480, Note_on_c, 5, 67, 88
6, 93540, Note_on_c, 5, 67, 0
6, 93540, Note_on_c, 5, 72, 88
6, 93600, Note_on_c, 5, 72, 0
6, 93600, Note_on_c, 5, 63, 88
6, 93660, Note_on_c, 5, 63, 0
6, 93660, Note_on_c, 5, 72, 88
6, 93720, Note_on_c, 5, 72, 0
6, 93720, Note_on_c, 5, 69, 88
6, 93780, Note_on_c, 5, 69, 0
6, 93780, Note_on_c, 5, 72, 88
6, 93840, Note_on_c, 5, 72, 0
6, 93840, Note_on_c, 5, 62, 88
6, 93900, Note_on_c, 5, 62, 0
6, 93900, Note_on_c, 5, 71, 88
6, 93960, Note_on_c, 5, 71, 0
6, 93960, Note_on_c, 5, 65, 88
6, 94020, Note_on_c, 5, 65, 0
6, 94020, Note_on_c, 5, 71, 88
6, 94080, Note_on_c, 5, 71, 0
6, 94080, Note_on_c, 5, 60, 88
6, 94140, Note_on_c, 5, 60, 0
6, 94140, Note_on_c, 5, 67, 88
6, 94200, Note_on_c, 5, 67, 0
6, 94200, Note_on_c, 5, 63, 88
6, 94260, Note_on_c, 5, 63, 0
6, 94260, Note_on_c, 5, 67, 88
6, 94320, Note_on_c, 5, 67, 0
6, 94320, Note_on_c, 5, 72, 88
6, 94380, Note_on_c, 5, 72, 0
6, 94380, Note_on_c, 5, 67, 88
6, 94440, Note_on_c, 5, 67, 0
6, 94440, Note_on_c, 5, 63, 88
6, 94500, Note_on_c, 5, 63, 0
6, 94500, Note_on_c, 5, 67, 88
6, 94560, Note_on_c, 5, 67, 0
6, 94560, Note_on_c, 5, 55, 88
6, 94620, Note_on_c, 5, 55, 0
6, 94620, Note_on_c, 5, 63, 88
6, 94680, Note_on_c, 5, 63, 0
6, 94680, Note_on_c, 5, 60, 88
6, 94740, Note_on_c, 5, 60, 0
6, 94740, Note_on_c, 5, 63, 88
6, 94800, Note_on_c, 5, 63, 0
6, 94800, Note_on_c, 5, 67, 88
6, 94860, Note_on_c, 5, 67, 0
6, 94860, Note_on_c, 5, 63, 88
6, 94920, Note_on_c, 5, 63, 0
6, 94920, Note_on_c, 5, 60, 88
6, 94980, Note_on_c, 5, 60, 0
6, 94980, Note_on_c, 5, 63, 88
6, 95040, Note_on_c, 5, 63, 0
6, 95040, Note_on_c, 5, 62, 88
6, 95100, Note_on_c, 5, 62, 0
6, 95100, Note_on_c, 5, 60, 88
6, 95160, Note_on_c, 5, 60, 0
6, 95160, Note_on_c, 5, 58, 88
6, 95220, Note_on_c, 5, 58, 0
6, 95220, Note_on_c, 5, 60, 88
6, 95280, Note_on_c, 5, 60, 0
6, 95280, Note_on_c, 5, 62, 88
6, 95340, Note_on_c, 5, 62, 0
6, 95340, Note_on_c, 5, 63, 88
6, 95400, Note_on_c, 5, 63, 0
6, 95400, Note_on_c, 5, 65, 88
6, 95460, Note_on_c, 5, 65, 0
6, 95460, Note_on_c, 5, 62, 88
6, 95520, Note_on_c, 5, 62, 0
6, 95520, Note_on_c, 5, 60, 88
6, 95760, Note_on_c, 5, 60, 0
6, 96000, Note_on_c, 5, 74, 62
6, 96060, Note_on_c, 5, 74, 0
6, 96060, Note_on_c, 5, 77, 62
6, 96120, Note_on_c, 5, 77, 0
6, 96120, Note_on_c, 5, 76, 62
6, 96180, Note_on_c, 5, 76, 0
6, 96180, Note_on_c, 5, 77, 62
6, 96240, Note_on_c, 5, 77, 0
6, 96240, Note_on_c, 5, 79, 62
6, 96300, Note_on_c, 5, 79, 0
6, 96300, Note_on_c, 5, 77, 62
6, 96360, Note_on_c, 5, 77, 0
6, 96360, Note_on_c, 5, 76, 62
6, 96420, Note_on_c, 5, 76, 0
6, 96420, Note_on_c, 5, 77, 62
6, 96480, Note_on_c, 5, 77, 0
6, 96480, Note_on_c, 5, 69, 62
6, 96540, Note_on_c, 5, 69, 0
6, 96540, Note_on_c, 5, 77, 62
6, 96600, Note_on_c, 5, 77, 0
6, 96600, Note_on_c, 5, 76, 62
6, 96660, Note_on_c, 5, 76, 0
6, 96660, Note_on_c, 5, 77, 62
6, 96720, Note_on_c, 5, 77, 0
6, 96720, Note_on_c, 5, 79, 62
6, 96780, Note_on_c, 5, 79, 0
6, 96780, Note_on_c, 5, 77, 62
6, 96840, Note_on_c, 5, 77, 0
6, 96840, Note_on_c, 5, 76, 62
6, 96900, Note_on_c, 5, 76, 0
6, 96900, Note_on_c, 5, 77, 62
6, 96960, Note_on_c, 5, 77, 0
6, 96960, Note_on_c, 5, 70, 72
6, 97020, Note_on_c, 5, 70, 0
6, 97020, Note_on_c, 5, 77, 74
6, 97080, Note_on_c, 5, 77, 0
6, 97080, Note_on_c, 5, 76, 75
6, 97140, Note_on_c, 5, 76, 0
6, 97140, Note_on_c, 5, 77, 77
6, 97200, Note_on_c, 5, 77, 0
6, 97200, Note_on_c, 5, 82, 79
6, 97260, Note_on_c, 5, 82, 0
6, 97260, Note_on_c, 5, 77, 80
6, 97320, Note_on_c, 5, 77, 0
6, 97320, Note_on_c, 5, 76, 82
6, 97380, Note_on_c, 5, 76, 0
6, 97380, Note_on_c, 5, 77, 85
6, 97440, Note_on_c, 5, 77, 0
6, 97440, Note_on_c, 5, 81, 83
6, 97500, Note_on_c, 5, 81, 0
6, 97500, Note_on_c, 5, 77, 81
6, 97560, Note_on_c, 5, 77, 0
6, 97560, Note_on_c, 5, 76, 80
6, 97620, Note_on_c, 5, 76, 0
6, 97620, Note_on_c, 5, 77, 78
6, 97680, Note_on_c, 5, 77, 0
6, 97680, Note_on_c, 5, 75, 76
6, 97740, Note_on_c, 5, 75, 0
6, 97740, Note_on_c, 5, 77, 62
6, 97800, Note_on_c, 5, 77, 0
6, 97800, Note_on_c, 5, 72, 62
6, 97860, Note_on_c, 5, 72, 0
6, 97860, Note_on_c, 5, 77, 62
6, 97920, Note_on_c, 5, 77, 0
6, 97920, Note_on_c, 5, 74, 62
6, 97980, Note_on_c, 5, 74, 0
6, 97980, Note_on_c, 5, 65, 62
6, 98040, Note_on_c, 5, 65, 0
6, 98040, Note_on_c, 5, 64, 62
6, 98100, Note_on_c, 5, 64, 0
6, 98100, Note_on_c, 5, 65, 62
6, 98160, Note_on_c, 5, 65, 0
6, 98160, Note_on_c, 5, 67, 62
6, 98220, Note_on_c, 5, 67, 0
6, 98220, Note_on_c, 5, 65, 62
6, 98280, Note_on_c, 5, 65, 0
6, 98280, Note_on_c, 5, 64, 62
6, 98340, Note_on_c, 5, 64, 0
6, 98340, Note_on_c, 5, 65, 62
6, 98400, Note_on_c, 5, 65, 0
6, 98400, Note_on_c, 5, 57, 62
6, 98460, Note_on_c, 5, 57, 0
6, 98460, Note_on_c, 5, 65, 62
6, 98520, Note_on_c, 5, 65, 0
6, 98520, Note_on_c, 5, 64, 62
6, 98580, Note_on_c, 5, 64, 0
6, 98580, Note_on_c, 5, 65, 62
6, 98640, Note_on_c, 5, 65, 0
6, 98640, Note_on_c, 5, 67, 62
6, 98700, Note_on_c, 5, 67, 0
6, 98700, Note_on_c, 5, 65, 62
6, 98760, Note_on_c, 5, 65, 0
6, 98760, Note_on_c, 5, 64, 62
6, 98820, Note_on_c, 5, 64, 0
6, 98820, Note_on_c, 5, 65, 62
6, 98880, Note_on_c, 5, 65, 0
6, 98880, Note_on_c, 5, 58, 78
6, 98940, Note_on_c, 5, 58, 0
6, 98940, Note_on_c, 5, 65, 80
6, 99000, Note_on_c, 5, 65, 0
6, 99000, Note_on_c, 5, 64, 82
6, 99060, Note_on_c, 5, 64, 0
6, 99060, Note_on_c, 5, 65, 83
6, 99120, Note_on_c, 5, 65, 0
6, 99120, Note_on_c, 5, 70, 85
6, 99180, Note_on_c, 5, 70, 0
6, 99180, Note_on_c, 5, 65, 88
6, 99240, Note_on_c, 5, 65, 0
6, 99240, Note_on_c, 5, 64, 85
6, 99300, Note_on_c, 5, 64, 0
6, 99300, Note_on_c, 5, 65, 83
6, 99360, Note_on_c, 5, 65, 0
6, 99360, Note_on_c, 5, 69, 80
6, 99600, Note_on_c, 5, 69, 0
6, 101280, Note_on_c, 5, 62, 62
6, 101280, Note_on_c, 5, 66, 62
6, 101400, Note_on_c, 5, 66, 0
6, 101400, Note_on_c, 5, 62, 0
6, 101400, Note_on_c, 5, 63, 62
6, 101400, Note_on_c, 5, 67, 62
6, 101423, Note_on_c, 5, 63, 0
6, 101447, Note_on_c, 5, 67, 0
6, 101520, Note_on_c, 5, 63, 62
6, 101520, Note_on_c, 5, 67, 62
6, 101567, Note_on_c, 5, 63, 0
6, 101616, Note_on_c, 5, 67, 0
6, 101760, Note_on_c, 5, 61, 62
6, 101760, Note_on_c, 5, 64, 62
6, 101880, Note_on_c, 5, 64, 0
6, 101880, Note_on_c, 5, 61, 0
6, 101880, Note_on_c, 5, 62, 62
6, 101880, Note_on_c, 5, 65, 62
6, 101903, Note_on_c, 5, 62, 0
6, 101927, Note_on_c, 5, 65, 0
6, 102000, Note_on_c, 5, 62, 62
6, 102000, Note_on_c, 5, 65, 62
6, 102023, Note_on_c, 5, 62, 0
6, 102047, Note_on_c, 5, 65, 0
6, 102120, Note_on_c, 5, 62, 62
6, 102120, Note_on_c, 5, 65, 62
6, 102143, Note_on_c, 5, 62, 0
6, 102167, Note_on_c, 5, 65, 0
6, 102240, Note_on_c, 5, 59, 62
6, 102240, Note_on_c, 5, 62, 62
6, 102360, Note_on_c, 5, 62, 0
6, 102360, Note_on_c, 5, 59, 0
6, 102360, Note_on_c, 5, 60, 62
6, 102360, Note_on_c, 5, 63, 62
6, 102383, Note_on_c, 5, 60, 0
6, 102407, Note_on_c, 5, 63, 0
6, 102480, Note_on_c, 5, 60, 62
6, 102480, Note_on_c, 5, 63, 62
6, 102503, Note_on_c, 5, 60, 0
6, 102527, Note_on_c, 5, 63, 0
6, 102600, Note_on_c, 5, 60, 62
6, 102600, Note_on_c, 5, 63, 62
6, 102623, Note_on_c, 5, 60, 0
6, 102647, Note_on_c, 5, 63, 0
6, 102720, Note_on_c, 5, 57, 62
6, 102720, Note_on_c, 5, 61, 62
6, 102840, Note_on_c, 5, 61, 0
6, 102840, Note_on_c, 5, 57, 0
6, 102840, Note_on_c, 5, 58, 62
6, 102840, Note_on_c, 5, 62, 62
6, 102863, Note_on_c, 5, 58, 0
6, 102887, Note_on_c, 5, 62, 0
6, 102960, Note_on_c, 5, 58, 62
6, 102960, Note_on_c, 5, 62, 62
6, 102983, Note_on_c, 5, 58, 0
6, 103007, Note_on_c, 5, 62, 0
6, 103080, Note_on_c, 5, 58, 62
6, 103080, Note_on_c, 5, 62, 62
6, 103080, Note_on_c, 5, 62, 62
6, 103103, Note_on_c, 5, 58, 0
6, 103127, Note_on_c, 5, 62, 0
6, 103140, Note_on_c, 5, 62, 0
6, 103156, Note_on_c, 5, 59, 62
6, 103172, Note_on_c, 5, 65, 78
6, 103200, Note_on_c, 5, 68, 85
6, 103216, Note_on_c, 5, 59, 0
6, 103232, Note_on_c, 5, 65, 0
6, 103740, Note_on_c, 5, 68, 0
6, 103740, Note_on_c, 5, 67, 88
6, 103800, Note_on_c, 5, 67, 0
6, 103800, Note_on_c, 5, 66, 88
6, 103860, Note_on_c, 5, 66, 0
6, 103860, Note_on_c, 5, 67, 88
6, 103920, Note_on_c, 5, 67, 0
6, 103920, Note_on_c, 5, 65, 88
6, 103980, Note_on_c, 5, 65, 0
6, 103980, Note_on_c, 5, 63, 88
6, 104040, Note_on_c, 5, 63, 0
6, 104040, Note_on_c, 5, 62, 88
6, 104100, Note_on_c, 5, 62, 0
6, 104100, Note_on_c, 5, 60, 88
6, 104160, Note_on_c, 5, 60, 0
6, 104160, Note_on_c, 5, 58, 88
6, 104220, Note_on_c, 5, 58, 0
6, 104220, Note_on_c, 5, 62, 88
6, 104280, Note_on_c, 5, 62, 0
6, 104280, Note_on_c, 5, 60, 88
6, 104340, Note_on_c, 5, 60, 0
6, 104340, Note_on_c, 5, 58, 88
6, 104400, Note_on_c, 5, 58, 0
6, 104400, Note_on_c, 5, 57, 88
6, 104460, Note_on_c, 5, 57, 0
6, 104460, Note_on_c, 5, 60, 88
6, 104520, Note_on_c, 5, 60, 0
6, 104520, Note_on_c, 5, 58, 88
6, 104580, Note_on_c, 5, 58, 0
6, 104580, Note_on_c, 5, 57, 88
6, 104640, Note_on_c, 5, 57, 0
6, 104640, Note_on_c, 5, 58, 62
6, 104663, Note_on_c, 5, 58, 0
6, 104700, Note_on_c, 5, 53, 62
6, 104723, Note_on_c, 5, 53, 0
6, 104760, Note_on_c, 5, 50, 62
6, 104783, Note_on_c, 5, 50, 0
6, 104820, Note_on_c, 5, 53, 62
6, 104843, Note_on_c, 5, 53, 0
6, 104880, Note_on_c, 5, 62, 62
6, 104903, Note_on_c, 5, 62, 0
6, 104940, Note_on_c, 5, 53, 62
6, 104963, Note_on_c, 5, 53, 0
6, 105000, Note_on_c, 5, 58, 62
6, 105023, Note_on_c, 5, 58, 0
6, 105060, Note_on_c, 5, 53, 62
6, 105083, Note_on_c, 5, 53, 0
6, 105120, Note_on_c, 5, 63, 62
6, 105143, Note_on_c, 5, 63, 0
6, 105180, Note_on_c, 5, 53, 62
6, 105203, Note_on_c, 5, 53, 0
6, 105240, Note_on_c, 5, 57, 62
6, 105263, Note_on_c, 5, 57, 0
6, 105300, Note_on_c, 5, 53, 62
6, 105323, Note_on_c, 5, 53, 0
6, 105360, Note_on_c, 5, 48, 62
6, 105383, Note_on_c, 5, 48, 0
6, 105420, Note_on_c, 5, 53, 62
6, 105443, Note_on_c, 5, 53, 0
6, 105480, Note_on_c, 5, 57, 62
6, 105503, Note_on_c, 5, 57, 0
6, 105540, Note_on_c, 5, 53, 62
6, 105563, Note_on_c, 5, 53, 0
6, 105600, Note_on_c, 5, 50, 62
6, 105623, Note_on_c, 5, 50, 0
6, 105660, Note_on_c, 5, 53, 62
6, 105683, Note_on_c, 5, 53, 0
6, 105720, Note_on_c, 5, 58, 62
6, 105743, Note_on_c, 5, 58, 0
6, 105780, Note_on_c, 5, 53, 62
6, 105803, Note_on_c, 5, 53, 0
6, 105840, Note_on_c, 5, 62, 62
6, 105863, Note_on_c, 5, 62, 0
6, 105900, Note_on_c, 5, 53, 62
6, 105923, Note_on_c, 5, 53, 0
6, 105960, Note_on_c, 5, 58, 62
6, 105983, Note_on_c, 5, 58, 0
6, 106020, Note_on_c, 5, 53, 62
6, 106043, Note_on_c, 5, 53, 0
6, 106080, Note_on_c, 5, 63, 62
6, 106103, Note_on_c, 5, 63, 0
6, 106140, Note_on_c, 5, 53, 62
6, 106163, Note_on_c, 5, 53, 0
6, 106200, Note_on_c, 5, 57, 62
6, 106223, Note_on_c, 5, 57, 0
6, 106260, Note_on_c, 5, 53, 62
6, 106283, Note_on_c, 5, 53, 0
6, 106320, Note_on_c, 5, 48, 62
6, 106343, Note_on_c, 5, 48, 0
6, 106380, Note_on_c, 5, 53, 62
6, 106403, Note_on_c, 5, 53, 0
6, 106440, Note_on_c, 5, 57, 62
6, 106463, Note_on_c, 5, 57, 0
6, 106500, Note_on_c, 5, 53, 62
6, 106523, Note_on_c, 5, 53, 0
6, 106560, Note_on_c, 5, 65, 62
6, 106583, Note_on_c, 5, 65, 0
6, 106620, Note_on_c, 5, 70, 62
6, 106680, Note_on_c, 5, 70, 0
6, 106680, Note_on_c, 5, 69, 62
6, 106740, Note_on_c, 5, 69, 0
6, 106740, Note_on_c, 5, 70, 62
6, 106763, Note_on_c, 5, 70, 0
6, 106860, Note_on_c, 5, 68, 62
6, 106920, Note_on_c, 5, 68, 0
6, 106920, Note_on_c, 5, 67, 62
6, 106980, Note_on_c, 5, 67, 0
6, 106980, Note_on_c, 5, 68, 62
6, 107003, Note_on_c, 5, 68, 0
6, 107100, Note_on_c, 5, 67, 62
6, 107160, Note_on_c, 5, 67, 0
6, 107160, Note_on_c, 5, 66, 62
6, 107220, Note_on_c, 5, 66, 0
6, 107220, Note_on_c, 5, 67, 62
6, 107243, Note_on_c, 5, 67, 0
6, 107340, Note_on_c, 5, 65, 62
6, 107400, Note_on_c, 5, 65, 0
6, 107400, Note_on_c, 5, 64, 62
6, 107460, Note_on_c, 5, 64, 0
6, 107460, Note_on_c, 5, 65, 62
6, 107483, Note_on_c, 5, 65, 0
6, 107520, Note_on_c, 5, 64, 62
6, 107580, Note_on_c, 5, 64, 0
6, 107580, Note_on_c, 5, 67, 62
6, 107640, Note_on_c, 5, 67, 0
6, 107640, Note_on_c, 5, 64, 62
6, 107700, Note_on_c, 5, 64, 0
6, 107700, Note_on_c, 5, 60, 62
6, 107760, Note_on_c, 5, 60, 0
6, 107760, Note_on_c, 5, 58, 62
6, 107820, Note_on_c, 5, 58, 0
6, 107820, Note_on_c, 5, 60, 62
6, 107880, Note_on_c, 5, 60, 0
6, 107880, Note_on_c, 5, 64, 62
6, 107940, Note_on_c, 5, 64, 0
6, 107940, Note_on_c, 5, 67, 62
6, 108000, Note_on_c, 5, 67, 0
6, 108000, Note_on_c, 5, 65, 62
6, 108060, Note_on_c, 5, 65, 0
6, 108060, Note_on_c, 5, 69, 62
6, 108120, Note_on_c, 5, 69, 0
6, 108120, Note_on_c, 5, 65, 62
6, 108180, Note_on_c, 5, 65, 0
6, 108180, Note_on_c, 5, 60, 62
6, 108240, Note_on_c, 5, 60, 0
6, 108240, Note_on_c, 5, 57, 62
6, 108300, Note_on_c, 5, 57, 0
6, 108300, Note_on_c, 5, 60, 62
6, 108360, Note_on_c, 5, 60, 0
6, 108360, Note_on_c, 5, 65, 62
6, 108420, Note_on_c, 5, 65, 0
6, 108420, Note_on_c, 5, 69, 62
6, 108480, Note_on_c, 5, 69, 0
6, 108480, Note_on_c, 5, 70, 62
6, 108576, Note_on_c, 5, 70, 0
6, 109020, Note_on_c, 5, 77, 82
6, 109080, Note_on_c, 5, 77, 0
6, 109080, Note_on_c, 5, 75, 89
6, 109140, Note_on_c, 5, 75, 0
6, 109140, Note_on_c, 5, 74, 95
6, 109200, Note_on_c, 5, 74, 0
6, 109200, Note_on_c, 5, 72, 95
6, 109260, Note_on_c, 5, 72, 0
6, 109260, Note_on_c, 5, 70, 90
6, 109320, Note_on_c, 5, 70, 0
6, 109320, Note_on_c, 5, 69, 83
6, 109380, Note_on_c, 5, 69, 0
6, 109380, Note_on_c, 5, 70, 79
6, 109403, Note_on_c, 5, 70, 0
6, 109440, Note_on_c, 5, 72, 76
6, 109460, Note_on_c, 5, 70, 81
6, 109480, Note_on_c, 5, 72, 81
6, 109485, Note_on_c, 5, 72, 0
6, 109500, Note_on_c, 5, 70, 81
6, 109505, Note_on_c, 5, 70, 0
6, 109520, Note_on_c, 5, 72, 81
6, 109525, Note_on_c, 5, 72, 0
6, 109540, Note_on_c, 5, 70, 81
6, 109545, Note_on_c, 5, 70, 0
6, 109560, Note_on_c, 5, 69, 81
6, 109565, Note_on_c, 5, 72, 0
6, 109585, Note_on_c, 5, 70, 0
6, 109620, Note_on_c, 5, 69, 0
6, 109620, Note_on_c, 5, 70, 79
6, 109680, Note_on_c, 5, 70, 0
6, 109980, Note_on_c, 5, 79, 70
6, 110040, Note_on_c, 5, 79, 0
6, 110040, Note_on_c, 5, 77, 71
6, 110100, Note_on_c, 5, 77, 0
6, 110100, Note_on_c, 5, 75, 81
6, 110160, Note_on_c, 5, 75, 0
6, 110160, Note_on_c, 5, 74, 84
6, 110220, Note_on_c, 5, 74, 0
6, 110220, Note_on_c, 5, 72, 87
6, 110280, Note_on_c, 5, 72, 0
6, 110280, Note_on_c, 5, 71, 85
6, 110340, Note_on_c, 5, 71, 0
6, 110340, Note_on_c, 5, 72, 81
6, 110400, Note_on_c, 5, 72, 0
6, 110400, Note_on_c, 5, 70, 76
6, 110520, Note_on_c, 5, 70, 0
6, 110520, Note_on_c, 5, 65, 70
6, 110567, Note_on_c, 5, 65, 0
6, 110640, Note_on_c, 5, 62, 71
6, 110760, Note_on_c, 5, 62, 0
6, 110760, Note_on_c, 5, 58, 72
6, 110807, Note_on_c, 5, 58, 0
6, 110880, Note_on_c, 5, 65, 73
6, 111000, Note_on_c, 5, 65, 0
6, 111000, Note_on_c, 5, 62, 73
6, 111047, Note_on_c, 5, 62, 0
6, 111120, Note_on_c, 5, 70, 74
6, 111240, Note_on_c, 5, 70, 0
6, 111240, Note_on_c, 5, 65, 75
6, 111287, Note_on_c, 5, 65, 0
6, 111360, Note_on_c, 5, 77, 76
6, 111600, Note_on_c, 5, 77, 0
6, 111600, Note_on_c, 5, 65, 77
6, 111840, Note_on_c, 5, 65, 0
6, 111840, Note_on_c, 5, 65, 79
6, 112080, Note_on_c, 5, 65, 0
6, 112080, Note_on_c, 5, 65, 81
6, 112320, Note_on_c, 5, 65, 0
6, 112320, Note_on_c, 5, 63, 82
6, 112380, Note_on_c, 5, 63, 0
6, 112380, Note_on_c, 5, 60, 83
6, 112440, Note_on_c, 5, 60, 0
6, 112440, Note_on_c, 5, 62, 83
6, 112500, Note_on_c, 5, 62, 0
6, 112500, Note_on_c, 5, 63, 83
6, 112560, Note_on_c, 5, 63, 0
6, 112560, Note_on_c, 5, 69, 84
6, 112620, Note_on_c, 5, 69, 0
6, 112620, Note_on_c, 5, 65, 84
6, 112680, Note_on_c, 5, 65, 0
6, 112680, Note_on_c, 5, 63, 84
6, 112740, Note_on_c, 5, 63, 0
6, 112740, Note_on_c, 5, 65, 85
6, 112800, Note_on_c, 5, 65, 0
6, 112800, Note_on_c, 5, 63, 85
6, 112860, Note_on_c, 5, 63, 0
6, 112860, Note_on_c, 5, 60, 86
6, 112920, Note_on_c, 5, 60, 0
6, 112920, Note_on_c, 5, 63, 86
6, 112980, Note_on_c, 5, 63, 0
6, 112980, Note_on_c, 5, 65, 86
6, 113040, Note_on_c, 5, 65, 0
6, 113040, Note_on_c, 5, 69, 87
6, 113100, Note_on_c, 5, 69, 0
6, 113100, Note_on_c, 5, 65, 87
6, 113160, Note_on_c, 5, 65, 0
6, 113160, Note_on_c, 5, 63, 88
6, 113220, Note_on_c, 5, 63, 0
6, 113220, Note_on_c, 5, 65, 88
6, 113280, Note_on_c, 5, 65, 0
6, 113280, Note_on_c, 5, 62, 88
6, 113280, Note_on_c, 5, 65, 88
6, 113280, Note_on_c, 5, 70, 88
6, 113760, Note_on_c, 5, 70, 0
6, 113760, Note_on_c, 5, 65, 0
6, 113760, Note_on_c, 5, 62, 0
6, 117120, Note_on_c, 5, 82, 88
6, 118080, Note_on_c, 5, 82, 0
6, 120060, Note_on_c, 5, 77, 88
6, 120120, Note_on_c, 5, 77, 0
6, 120120, Note_on_c, 5, 76, 88
6, 120180, Note_on_c, 5, 76, 0
6, 120180, Note_on_c, 5, 77, 88
6, 120240, Note_on_c, 5, 77, 0
6, 120240, Note_on_c, 5, 79, 88
6, 120300, Note_on_c, 5, 79, 0
6, 120300, Note_on_c, 5, 81, 88
6, 120360, Note_on_c, 5, 81, 0
6, 120360, Note_on_c, 5, 82, 88
6, 120420, Note_on_c, 5, 82, 0
6, 120420, Note_on_c, 5, 79, 88
6, 120480, Note_on_c, 5, 79, 0
6, 120480, Note_on_c, 5, 77, 88
6, 120540, Note_on_c, 5, 77, 0
6, 120540, Note_on_c, 5, 75, 88
6, 120600, Note_on_c, 5, 75, 0
6, 120600, Note_on_c, 5, 74, 75
6, 120660, Note_on_c, 5, 74, 0
6, 120660, Note_on_c, 5, 75, 75
6, 120720, Note_on_c, 5, 75, 0
6, 120720, Note_on_c, 5, 74, 75
6, 120780, Note_on_c, 5, 74, 0
6, 120780, Note_on_c, 5, 75, 75
6, 120840, Note_on_c, 5, 75, 0
6, 120840, Note_on_c, 5, 77, 75
6, 120900, Note_on_c, 5, 77, 0
6, 120900, Note_on_c, 5, 75, 75
6, 120960, Note_on_c, 5, 75, 0
6, 120960, Note_on_c, 5, 74, 88
6, 121080, Note_on_c, 5, 74, 0
6, 121080, Note_on_c, 5, 82, 88
6, 121140, Note_on_c, 5, 82, 0
6, 121140, Note_on_c, 5, 77, 88
6, 121200, Note_on_c, 5, 77, 0
6, 121200, Note_on_c, 5, 77, 88
6, 121296, Note_on_c, 5, 77, 0
6, 121680, Note_on_c, 5, 65, 88
6, 121740, Note_on_c, 5, 65, 0
6, 121740, Note_on_c, 5, 69, 88
6, 121800, Note_on_c, 5, 69, 0
6, 121800, Note_on_c, 5, 70, 88
6, 121860, Note_on_c, 5, 70, 0
6, 121860, Note_on_c, 5, 74, 88
6, 121920, Note_on_c, 5, 74, 0
6, 121920, Note_on_c, 5, 77, 75
6, 122040, Note_on_c, 5, 77, 0
6, 122040, Note_on_c, 5, 69, 75
6, 122160, Note_on_c, 5, 69, 0
6, 122160, Note_on_c, 5, 69, 75
6, 122256, Note_on_c, 5, 69, 0
6, 122640, Note_on_c, 5, 69, 75
6, 122880, Note_on_c, 5, 69, 0
6, 122880, Note_on_c, 5, 70, 88
6, 122903, Note_on_c, 5, 70, 0
6, 122940, Note_on_c, 5, 86, 88
6, 122963, Note_on_c, 5, 86, 0
6, 123000, Note_on_c, 5, 89, 88
6, 123023, Note_on_c, 5, 89, 0
6, 123060, Note_on_c, 5, 87, 88
6, 123083, Note_on_c, 5, 87, 0
6, 123120, Note_on_c, 5, 86, 88
6, 123143, Note_on_c, 5, 86, 0
6, 123180, Note_on_c, 5, 87, 88
6, 123203, Note_on_c, 5, 87, 0
6, 123240, Note_on_c, 5, 89, 88
6, 123263, Note_on_c, 5, 89, 0
6, 123300, Note_on_c, 5, 89, 88
6, 123323, Note_on_c, 5, 89, 0
6, 123420, Note_on_c, 5, 86, 88
6, 123443, Note_on_c, 5, 86, 0
6, 123480, Note_on_c, 5, 89, 88
6, 123503, Note_on_c, 5, 89, 0
6, 123540, Note_on_c, 5, 87, 88
6, 123563, Note_on_c, 5, 87, 0
6, 123600, Note_on_c, 5, 86, 88
6, 123623, Note_on_c, 5, 86, 0
6, 123660, Note_on_c, 5, 87, 88
6, 123683, Note_on_c, 5, 87, 0
6, 123720, Note_on_c, 5, 89, 88
6, 123743, Note_on_c, 5, 89, 0
6, 123780, Note_on_c, 5, 89, 88
6, 123803, Note_on_c, 5, 89, 0
6, 123840, Note_on_c, 5, 87, 88
6, 123863, Note_on_c, 5, 87, 0
6, 123900, Note_on_c, 5, 89, 88
6, 123923, Note_on_c, 5, 89, 0
6, 123960, Note_on_c, 5, 87, 88
6, 123983, Note_on_c, 5, 87, 0
6, 124020, Note_on_c, 5, 86, 88
6, 124043, Note_on_c, 5, 86, 0
6, 124080, Note_on_c, 5, 84, 88
6, 124103, Note_on_c, 5, 84, 0
6, 124140, Note_on_c, 5, 86, 88
6, 124163, Note_on_c, 5, 86, 0
6, 124200, Note_on_c, 5, 84, 88
6, 124223, Note_on_c, 5, 84, 0
6, 124260, Note_on_c, 5, 82, 88
6, 124283, Note_on_c, 5, 82, 0
6, 124320, Note_on_c, 5, 81, 88
6, 124343, Note_on_c, 5, 81, 0
6, 124380, Note_on_c, 5, 82, 88
6, 124403, Note_on_c, 5, 82, 0
6, 124440, Note_on_c, 5, 81, 88
6, 124463, Note_on_c, 5, 81, 0
6, 124500, Note_on_c, 5, 79, 88
6, 124523, Note_on_c, 5, 79, 0
6, 124560, Note_on_c, 5, 77, 88
6, 124583, Note_on_c, 5, 77, 0
6, 124620, Note_on_c, 5, 79, 88
6, 124643, Note_on_c, 5, 79, 0
6, 124680, Note_on_c, 5, 77, 88
6, 124703, Note_on_c, 5, 77, 0
6, 124740, Note_on_c, 5, 75, 88
6, 124763, Note_on_c, 5, 75, 0
6, 124800, Note_on_c, 5, 74, 88
6, 124823, Note_on_c, 5, 74, 0
6, 124860, Note_on_c, 5, 70, 88
6, 124920, Note_on_c, 5, 70, 0
6, 124920, Note_on_c, 5, 69, 72
6, 124980, Note_on_c, 5, 69, 0
6, 124980, Note_on_c, 5, 70, 78
6, 125040, Note_on_c, 5, 70, 0
6, 125100, Note_on_c, 5, 68, 88
6, 125160, Note_on_c, 5, 68, 0
6, 125160, Note_on_c, 5, 67, 73
6, 125220, Note_on_c, 5, 67, 0
6, 125220, Note_on_c, 5, 68, 77
6, 125280, Note_on_c, 5, 68, 0
6, 125340, Note_on_c, 5, 67, 88
6, 125400, Note_on_c, 5, 67, 0
6, 125400, Note_on_c, 5, 66, 73
6, 125460, Note_on_c, 5, 66, 0
6, 125460, Note_on_c, 5, 67, 76
6, 125520, Note_on_c, 5, 67, 0
6, 125580, Note_on_c, 5, 65, 88
6, 125640, Note_on_c, 5, 65, 0
6, 125640, Note_on_c, 5, 64, 74
6, 125700, Note_on_c, 5, 64, 0
6, 125700, Note_on_c, 5, 65, 77
6, 125760, Note_on_c, 5, 65, 0
6, 125760, Note_on_c, 5, 64, 88
6, 125820, Note_on_c, 5, 64, 0
6, 125820, Note_on_c, 5, 67, 88
6, 125880, Note_on_c, 5, 67, 0
6, 125880, Note_on_c, 5, 64, 88
6, 125940, Note_on_c, 5, 64, 0
6, 125940, Note_on_c, 5, 60, 88
6, 126000, Note_on_c, 5, 60, 0
6, 126000, Note_on_c, 5, 58, 88
6, 126060, Note_on_c, 5, 58, 0
6, 126060, Note_on_c, 5, 60, 88
6, 126120, Note_on_c, 5, 60, 0
6, 126120, Note_on_c, 5, 64, 88
6, 126180, Note_on_c, 5, 64, 0
6, 126180, Note_on_c, 5, 67, 88
6, 126240, Note_on_c, 5, 67, 0
6, 126240, Note_on_c, 5, 65, 88
6, 126300, Note_on_c, 5, 65, 0
6, 126300, Note_on_c, 5, 69, 88
6, 126360, Note_on_c, 5, 69, 0
6, 126360, Note_on_c, 5, 65, 88
6, 126420, Note_on_c, 5, 65, 0
6, 126420, Note_on_c, 5, 60, 88
6, 126480, Note_on_c, 5, 60, 0
6, 126480, Note_on_c, 5, 57, 88
6, 126540, Note_on_c, 5, 57, 0
6, 126540, Note_on_c, 5, 60, 88
6, 126600, Note_on_c, 5, 60, 0
6, 126600, Note_on_c, 5, 65, 88
6, 126660, Note_on_c, 5, 65, 0
6, 126660, Note_on_c, 5, 69, 88
6, 126720, Note_on_c, 5, 69, 0
6, 126720, Note_on_c, 5, 70, 88
6, 126960, Note_on_c, 5, 70, 0
6, 127680, Note_on_c, 5, 50, 72
6, 127740, Note_on_c, 5, 50, 0
6, 127740, Note_on_c, 5, 53, 75
6, 127800, Note_on_c, 5, 53, 0
6, 127800, Note_on_c, 5, 58, 78
6, 127860, Note_on_c, 5, 58, 0
6, 127860, Note_on_c, 5, 53, 81
6, 127920, Note_on_c, 5, 53, 0
6, 127920, Note_on_c, 5, 62, 84
6, 127980, Note_on_c, 5, 62, 0
6, 127980, Note_on_c, 5, 53, 86
6, 128040, Note_on_c, 5, 53, 0
6, 128040, Note_on_c, 5, 58, 89
6, 128100, Note_on_c, 5, 58, 0
6, 128100, Note_on_c, 5, 53, 92
6, 128160, Note_on_c, 5, 53, 0
6, 128160, Note_on_c, 5, 63, 95
6, 128220, Note_on_c, 5, 63, 0
6, 128220, Note_on_c, 5, 53, 93
6, 128280, Note_on_c, 5, 53, 0
6, 128280, Note_on_c, 5, 57, 91
6, 128340, Note_on_c, 5, 57, 0
6, 128340, Note_on_c, 5, 53, 88
6, 128400, Note_on_c, 5, 53, 0
6, 128400, Note_on_c, 5, 48, 86
6, 128460, Note_on_c, 5, 48, 0
6, 128460, Note_on_c, 5, 53, 84
6, 128520, Note_on_c, 5, 53, 0
6, 128520, Note_on_c, 5, 57, 82
6, 128580, Note_on_c, 5, 57, 0
6, 128580, Note_on_c, 5, 53, 79
6, 128640, Note_on_c, 5, 53, 0
6, 128640, Note_on_c, 5, 50, 77
6, 128700, Note_on_c, 5, 50, 0
6, 128700, Note_on_c, 5, 53, 77
6, 128760, Note_on_c, 5, 53, 0
6, 128760, Note_on_c, 5, 58, 80
6, 128820, Note_on_c, 5, 58, 0
6, 128820, Note_on_c, 5, 53, 83
6, 128880, Note_on_c, 5, 53, 0
6, 128880, Note_on_c, 5, 62, 85
6, 128940, Note_on_c, 5, 62, 0
6, 128940, Note_on_c, 5, 53, 88
6, 129000, Note_on_c, 5, 53, 0
6, 129000, Note_on_c, 5, 58, 90
6, 129060, Note_on_c, 5, 58, 0
6, 129060, Note_on_c, 5, 53, 93
6, 129120, Note_on_c, 5, 53, 0
6, 129120, Note_on_c, 5, 63, 93
6, 129180, Note_on_c, 5, 63, 0
6, 129180, Note_on_c, 5, 53, 91
6, 129240, Note_on_c, 5, 53, 0
6, 129240, Note_on_c, 5, 57, 89
6, 129300, Note_on_c, 5, 57, 0
6, 129300, Note_on_c, 5, 53, 87
6, 129360, Note_on_c, 5, 53, 0
6, 129360, Note_on_c, 5, 48, 85
6, 129420, Note_on_c, 5, 48, 0
6, 129420, Note_on_c, 5, 53, 83
6, 129480, Note_on_c, 5, 53, 0
6, 129480, Note_on_c, 5, 57, 82
6, 129540, Note_on_c, 5, 57, 0
6, 129540, Note_on_c, 5, 53, 80
6, 129600, Note_on_c, 5, 53, 0
6, 129720, Note_on_c, 5, 63, 75
6, 129720, Note_on_c, 5, 67, 75
6, 129720, Note_on_c, 5, 72, 75
6, 129840, Note_on_c, 5, 72, 0
6, 129840, Note_on_c, 5, 67, 0
6, 129840, Note_on_c, 5, 63, 0
6, 129840, Note_on_c, 5, 63, 75
6, 129840, Note_on_c, 5, 67, 75
6, 129840, Note_on_c, 5, 72, 75
6, 129960, Note_on_c, 5, 72, 0
6, 129960, Note_on_c, 5, 67, 0
6, 129960, Note_on_c, 5, 63, 0
6, 129960, Note_on_c, 5, 63, 75
6, 129960, Note_on_c, 5, 67, 75
6, 129960, Note_on_c, 5, 72, 75
6, 130080, Note_on_c, 5, 72, 0
6, 130080, Note_on_c, 5, 67, 0
6, 130080, Note_on_c, 5, 63, 0
6, 130200, Note_on_c, 5, 63, 75
6, 130200, Note_on_c, 5, 67, 75
6, 130200, Note_on_c, 5, 72, 75
6, 130320, Note_on_c, 5, 72, 0
6, 130320, Note_on_c, 5, 67, 0
6, 130320, Note_on_c, 5, 63, 0
6, 130320, Note_on_c, 5, 63, 75
6, 130320, Note_on_c, 5, 67, 75
6, 130320, Note_on_c, 5, 72, 75
6, 130440, Note_on_c, 5, 72, 0
6, 130440, Note_on_c, 5, 67, 0
6, 130440, Note_on_c, 5, 63, 0
6, 130440, Note_on_c, 5, 63, 75
6, 130440, Note_on_c, 5, 67, 75
6, 130440, Note_on_c, 5, 72, 75
6, 130560, Note_on_c, 5, 72, 0
6, 130560, Note_on_c, 5, 67, 0
6, 130560, Note_on_c, 5, 63, 0
6, 130680, Note_on_c, 5, 63, 88
6, 130680, Note_on_c, 5, 67, 88
6, 130680, Note_on_c, 5, 72, 88
6, 130800, Note_on_c, 5, 72, 0
6, 130800, Note_on_c, 5, 67, 0
6, 130800, Note_on_c, 5, 63, 0
6, 130920, Note_on_c, 5, 63, 88
6, 130920, Note_on_c, 5, 67, 88
6, 130920, Note_on_c, 5, 72, 88
6, 131040, Note_on_c, 5, 72, 0
6, 131040, Note_on_c, 5, 67, 0
6, 131040, Note_on_c, 5, 63, 0
6, 131160, Note_on_c, 5, 63, 88
6, 131160, Note_on_c, 5, 67, 88
6, 131160, Note_on_c, 5, 72, 88
6, 131280, Note_on_c, 5, 72, 0
6, 131280, Note_on_c, 5, 67, 0
6, 131280, Note_on_c, 5, 63, 0
6, 131280, Note_on_c, 5, 63, 88
6, 131280, Note_on_c, 5, 67, 88
6, 131280, Note_on_c, 5, 72, 88
6, 131400, Note_on_c, 5, 72, 0
6, 131400, Note_on_c, 5, 67, 0
6, 131400, Note_on_c, 5, 63, 0
6, 131400, Note_on_c, 5, 63, 88
6, 131400, Note_on_c, 5, 67, 88
6, 131400, Note_on_c, 5, 72, 88
6, 131520, Note_on_c, 5, 72, 0
6, 131520, Note_on_c, 5, 67, 0
6, 131520, Note_on_c, 5, 63, 0
6, 131520, Note_on_c, 5, 69, 91
6, 131760, Note_on_c, 5, 69, 0
6, 131760, Note_on_c, 5, 70, 85
6, 132000, Note_on_c, 5, 70, 0
6, 132000, Note_on_c, 5, 72, 79
6, 132240, Note_on_c, 5, 72, 0
6, 132240, Note_on_c, 5, 74, 73
6, 132480, Note_on_c, 5, 74, 0
6, 132480, Note_on_c, 5, 77, 73
6, 132510, Note_on_c, 5, 77, 0
6, 132510, Note_on_c, 5, 75, 74
6, 132540, Note_on_c, 5, 75, 0
6, 132540, Note_on_c, 5, 77, 74
6, 132570, Note_on_c, 5, 77, 0
6, 132570, Note_on_c, 5, 75, 74
6, 132600, Note_on_c, 5, 75, 0
6, 132600, Note_on_c, 5, 77, 76
6, 132630, Note_on_c, 5, 77, 0
6, 132630, Note_on_c, 5, 75, 76
6, 132660, Note_on_c, 5, 75, 0
6, 132660, Note_on_c, 5, 77, 78
6, 132690, Note_on_c, 5, 77, 0
6, 132690, Note_on_c, 5, 75, 80
6, 132720, Note_on_c, 5, 75, 0
6, 132720, Note_on_c, 5, 77, 80
6, 132750, Note_on_c, 5, 77, 0
6, 132750, Note_on_c, 5, 75, 83
6, 132780, Note_on_c, 5, 75, 0
6, 132780, Note_on_c, 5, 77, 85
6, 132810, Note_on_c, 5, 77, 0
6, 132810, Note_on_c, 5, 75, 85
6, 132840, Note_on_c, 5, 75, 0
6, 132840, Note_on_c, 5, 77, 88
6, 132870, Note_on_c, 5, 77, 0
6, 132870, Note_on_c, 5, 75, 88
6, 132900, Note_on_c, 5, 75, 0
6, 132900, Note_on_c, 5, 77, 91
6, 132930, Note_on_c, 5, 77, 0
6, 132930, Note_on_c, 5, 75, 91
6, 132960, Note_on_c, 5, 75, 0
6, 132960, Note_on_c, 5, 77, 91
6, 132990, Note_on_c, 5, 77, 0
6, 132990, Note_on_c, 5, 75, 92
6, 133020, Note_on_c, 5, 75, 0
6, 133020, Note_on_c, 5, 77, 95
6, 133050, Note_on_c, 5, 77, 0
6, 133050, Note_on_c, 5, 75, 95
6, 133080, Note_on_c, 5, 75, 0
6, 133080, Note_on_c, 5, 77, 95
6, 133110, Note_on_c, 5, 77, 0
6, 133110, Note_on_c, 5, 75, 95
6, 133140, Note_on_c, 5, 75, 0
6, 133140, Note_on_c, 5, 77, 95
6, 133170, Note_on_c, 5, 77, 0
6, 133170, Note_on_c, 5, 75, 95
6, 133200, Note_on_c, 5, 75, 0
6, 133200, Note_on_c, 5, 77, 95
6, 133230, Note_on_c, 5, 77, 0
6, 133230, Note_on_c, 5, 75, 95
6, 133260, Note_on_c, 5, 75, 0
6, 133260, Note_on_c, 5, 77, 93
6, 133290, Note_on_c, 5, 77, 0
6, 133290, Note_on_c, 5, 75, 93
6, 133320, Note_on_c, 5, 75, 0
6, 133320, Note_on_c, 5, 77, 90
6, 133350, Note_on_c, 5, 77, 0
6, 133350, Note_on_c, 5, 75, 88
6, 133380, Note_on_c, 5, 75, 0
6, 133380, Note_on_c, 5, 77, 88
6, 133410, Note_on_c, 5, 77, 0
6, 133410, Note_on_c, 5, 75, 85
6, 133440, Note_on_c, 5, 75, 0
6, 133440, Note_on_c, 5, 77, 85
6, 133470, Note_on_c, 5, 77, 0
6, 133470, Note_on_c, 5, 75, 85
6, 133500, Note_on_c, 5, 75, 0
6, 133500, Note_on_c, 5, 77, 85
6, 133530, Note_on_c, 5, 77, 0
6, 133530, Note_on_c, 5, 75, 83
6, 133560, Note_on_c, 5, 75, 0
6, 133560, Note_on_c, 5, 77, 83
6, 133590, Note_on_c, 5, 77, 0
6, 133590, Note_on_c, 5, 75, 83
6, 133620, Note_on_c, 5, 75, 0
6, 133620, Note_on_c, 5, 77, 80
6, 133650, Note_on_c, 5, 77, 0
6, 133650, Note_on_c, 5, 75, 80
6, 133680, Note_on_c, 5, 75, 0
6, 133680, Note_on_c, 5, 77, 80
6, 133710, Note_on_c, 5, 77, 0
6, 133710, Note_on_c, 5, 75, 80
6, 133740, Note_on_c, 5, 75, 0
6, 133740, Note_on_c, 5, 77, 80
6, 133770, Note_on_c, 5, 77, 0
6, 133770, Note_on_c, 5, 75, 80
6, 133800, Note_on_c, 5, 75, 0
6, 133800, Note_on_c, 5, 77, 80
6, 133830, Note_on_c, 5, 77, 0
6, 133830, Note_on_c, 5, 75, 80
6, 133860, Note_on_c, 5, 75, 0
6, 133860, Note_on_c, 5, 77, 80
6, 133890, Note_on_c, 5, 77, 0
6, 133890, Note_on_c, 5, 75, 80
6, 133920, Note_on_c, 5, 75, 0
6, 133920, Note_on_c, 5, 77, 80
6, 133950, Note_on_c, 5, 77, 0
6, 133950, Note_on_c, 5, 75, 80
6, 133980, Note_on_c, 5, 75, 0
6, 133980, Note_on_c, 5, 77, 80
6, 134010, Note_on_c, 5, 77, 0
6, 134010, Note_on_c, 5, 75, 82
6, 134040, Note_on_c, 5, 75, 0
6, 134040, Note_on_c, 5, 77, 82
6, 134070, Note_on_c, 5, 77, 0
6, 134070, Note_on_c, 5, 75, 82
6, 134100, Note_on_c, 5, 75, 0
6, 134100, Note_on_c, 5, 77, 84
6, 134130, Note_on_c, 5, 77, 0
6, 134130, Note_on_c, 5, 75, 84
6, 134160, Note_on_c, 5, 75, 0
6, 134160, Note_on_c, 5, 77, 87
6, 134190, Note_on_c, 5, 77, 0
6, 134190, Note_on_c, 5, 75, 88
6, 134220, Note_on_c, 5, 75, 0
6, 134220, Note_on_c, 5, 77, 91
6, 134250, Note_on_c, 5, 77, 0
6, 134250, Note_on_c, 5, 75, 91
6, 134280, Note_on_c, 5, 75, 0
6, 134280, Note_on_c, 5, 74, 91
6, 134340, Note_on_c, 5, 74, 0
6, 134340, Note_on_c, 5, 75, 93
6, 134400, Note_on_c, 5, 75, 0
6, 134400, Note_on_c, 5, 74, 98
6, 134880, Note_on_c, 5, 74, 0
6, 138960, Note_on_c, 5, 72, 75
6, 138960, Note_on_c, 5, 75, 75
6, 139200, Note_on_c, 5, 75, 0
6, 139200, Note_on_c, 5, 72, 0
6, 139200, Note_on_c, 5, 72, 75
6, 139200, Note_on_c, 5, 75, 75
6, 139680, Note_on_c, 5, 75, 0
6, 139680, Note_on_c, 5, 72, 0
6, 139680, Note_on_c, 5, 70, 75
6, 139680, Note_on_c, 5, 74, 75
6, 139920, Note_on_c, 5, 74, 0
6, 139920, Note_on_c, 5, 70, 0
6, 139920, End_track
7, 0, Start_track
7, 0, Title_t, "Piano 2 Bass"
7, 0, Control_c, 6, 0, 0
7, 0, Control_c, 6, 7, 90
7, 0, Control_c, 6, 10, 90
7, 0, Control_c, 6, 91, 73
7, 0, Control_c, 6, 93, 73
7, 1, Control_c, 6, 32, 1
7, 2, Program_c, 6, 0
7, 24960, Note_on_c, 6, 41, 80
7, 24960, Note_on_c, 6, 53, 80
7, 25440, Note_on_c, 6, 53, 0
7, 25440, Note_on_c, 6, 41, 0
7, 25440, Note_on_c, 6, 41, 79
7, 25440, Note_on_c, 6, 53, 79
7, 25920, Note_on_c, 6, 53, 0
7, 25920, Note_on_c, 6, 41, 0
7, 25920, Note_on_c, 6, 34, 77
7, 25920, Note_on_c, 6, 46, 77
7, 26400, Note_on_c, 6, 46, 0
7, 26400, Note_on_c, 6, 34, 0
7, 26520, Note_on_c, 6, 46, 88
7, 26640, Note_on_c, 6, 46, 0
7, 26640, Note_on_c, 6, 50, 88
7, 26760, Note_on_c, 6, 50, 0
7, 26760, Note_on_c, 6, 46, 88
7, 26880, Note_on_c, 6, 46, 0
7, 26880, Note_on_c, 6, 53, 88
7, 27360, Note_on_c, 6, 53, 0
7, 27960, Note_on_c, 6, 58, 62
7, 28080, Note_on_c, 6, 58, 0
7, 28080, Note_on_c, 6, 58, 62
7, 28200, Note_on_c, 6, 58, 0
7, 28200, Note_on_c, 6, 58, 62
7, 28320, Note_on_c, 6, 58, 0
7, 28320, Note_on_c, 6, 58, 62
7, 28560, Note_on_c, 6, 58, 0
7, 29280, Note_on_c, 6, 63, 62
7, 29400, Note_on_c, 6, 63, 0
7, 29400, Note_on_c, 6, 62, 62
7, 29520, Note_on_c, 6, 62, 0
7, 29520, Note_on_c, 6, 60, 62
7, 29640, Note_on_c, 6, 60, 0
7, 29640, Note_on_c, 6, 59, 62
7, 29760, Note_on_c, 6, 59, 0
7, 29760, Note_on_c, 6, 59, 62
7, 29880, Note_on_c, 6, 59, 0
7, 29880, Note_on_c, 6, 60, 62
7, 30000, Note_on_c, 6, 60, 0
7, 30000, Note_on_c, 6, 60, 62
7, 30047, Note_on_c, 6, 60, 0
7, 30120, Note_on_c, 6, 60, 62
7, 30167, Note_on_c, 6, 60, 0
7, 30240, Note_on_c, 6, 48, 88
7, 30360, Note_on_c, 6, 48, 0
7, 30360, Note_on_c, 6, 50, 88
7, 30480, Note_on_c, 6, 50, 0
7, 30480, Note_on_c, 6, 51, 88
7, 30600, Note_on_c, 6, 51, 0
7, 30600, Note_on_c, 6, 53, 88
7, 30720, Note_on_c, 6, 53, 0
7, 30720, Note_on_c, 6, 51, 88
7, 30960, Note_on_c, 6, 51, 0
7, 30960, Note_on_c, 6, 51, 88
7, 31200, Note_on_c, 6, 51, 0
7, 31200, Note_on_c, 6, 51, 88
7, 31440, Note_on_c, 6, 51, 0
7, 31440, Note_on_c, 6, 51, 88
7, 31680, Note_on_c, 6, 51, 0
7, 31680, Note_on_c, 6, 53, 88
7, 32160, Note_on_c, 6, 53, 0
7, 33360, Note_on_c, 6, 55, 88
7, 33360, Note_on_c, 6, 58, 88
7, 33600, Note_on_c, 6, 58, 0
7, 33600, Note_on_c, 6, 55, 0
7, 33600, Note_on_c, 6, 53, 88
7, 33600, Note_on_c, 6, 58, 88
7, 33840, Note_on_c, 6, 58, 0
7, 33840, Note_on_c, 6, 57, 88
7, 33887, Note_on_c, 6, 53, 0
7, 33936, Note_on_c, 6, 57, 0
7, 34560, Note_on_c, 6, 65, 88
7, 34680, Note_on_c, 6, 65, 0
7, 34680, Note_on_c, 6, 69, 88
7, 34800, Note_on_c, 6, 69, 0
7, 34800, Note_on_c, 6, 65, 88
7, 34920, Note_on_c, 6, 65, 0
7, 34920, Note_on_c, 6, 69, 88
7, 35040, Note_on_c, 6, 69, 0
7, 35040, Note_on_c, 6, 65, 88
7, 35160, Note_on_c, 6, 65, 0
7, 35160, Note_on_c, 6, 69, 88
7, 35280, Note_on_c, 6, 69, 0
7, 35280, Note_on_c, 6, 65, 88
7, 35400, Note_on_c, 6, 65, 0
7, 35400, Note_on_c, 6, 69, 88
7, 35520, Note_on_c, 6, 69, 0
7, 35520, Note_on_c, 6, 67, 88
7, 35640, Note_on_c, 6, 67, 0
7, 35640, Note_on_c, 6, 70, 88
7, 35760, Note_on_c, 6, 70, 0
7, 35760, Note_on_c, 6, 67, 88
7, 35880, Note_on_c, 6, 67, 0
7, 35880, Note_on_c, 6, 70, 88
7, 36000, Note_on_c, 6, 70, 0
7, 36000, Note_on_c, 6, 67, 88
7, 36120, Note_on_c, 6, 67, 0
7, 36120, Note_on_c, 6, 70, 88
7, 36240, Note_on_c, 6, 70, 0
7, 36240, Note_on_c, 6, 67, 88
7, 36360, Note_on_c, 6, 67, 0
7, 36360, Note_on_c, 6, 70, 88
7, 36480, Note_on_c, 6, 70, 0
7, 36480, Note_on_c, 6, 64, 88
7, 36600, Note_on_c, 6, 64, 0
7, 36600, Note_on_c, 6, 67, 88
7, 36720, Note_on_c, 6, 67, 0
7, 36720, Note_on_c, 6, 64, 88
7, 36840, Note_on_c, 6, 64, 0
7, 36840, Note_on_c, 6, 67, 88
7, 36960, Note_on_c, 6, 67, 0
7, 36960, Note_on_c, 6, 67, 88
7, 37080, Note_on_c, 6, 67, 0
7, 37080, Note_on_c, 6, 70, 88
7, 37200, Note_on_c, 6, 70, 0
7, 37200, Note_on_c, 6, 67, 88
7, 37320, Note_on_c, 6, 67, 0
7, 37320, Note_on_c, 6, 70, 88
7, 37440, Note_on_c, 6, 70, 0
7, 37440, Note_on_c, 6, 69, 88
7, 37560, Note_on_c, 6, 69, 0
7, 37560, Note_on_c, 6, 72, 88
7, 37680, Note_on_c, 6, 72, 0
7, 37680, Note_on_c, 6, 69, 88
7, 37800, Note_on_c, 6, 69, 0
7, 37800, Note_on_c, 6, 72, 88
7, 37920, Note_on_c, 6, 72, 0
7, 37920, Note_on_c, 6, 53, 101
7, 38400, Note_on_c, 6, 53, 0
7, 38400, Note_on_c, 6, 41, 97
7, 38880, Note_on_c, 6, 41, 0
7, 38880, Note_on_c, 6, 53, 94
7, 39120, Note_on_c, 6, 53, 0
7, 39120, Note_on_c, 6, 54, 101
7, 39360, Note_on_c, 6, 54, 0
7, 39360, Note_on_c, 6, 55, 103
7, 39840, Note_on_c, 6, 55, 0
7, 39840, Note_on_c, 6, 43, 97
7, 40080, Note_on_c, 6, 43, 0
7, 40080, Note_on_c, 6, 45, 97
7, 40320, Note_on_c, 6, 45, 0
7, 40320, Note_on_c, 6, 46, 102
7, 41040, Note_on_c, 6, 46, 0
7, 41040, Note_on_c, 6, 43, 97
7, 41280, Note_on_c, 6, 43, 0
7, 41400, Note_on_c, 6, 48, 97
7, 41520, Note_on_c, 6, 48, 0
7, 41520, Note_on_c, 6, 48, 97
7, 41640, Note_on_c, 6, 48, 0
7, 41640, Note_on_c, 6, 48, 97
7, 41760, Note_on_c, 6, 48, 0
7, 41760, Note_on_c, 6, 48, 91
7, 42000, Note_on_c, 6, 48, 0
7, 42480, Note_on_c, 6, 53, 62
7, 42720, Note_on_c, 6, 53, 0
7, 42720, Note_on_c, 6, 55, 62
7, 42960, Note_on_c, 6, 55, 0
7, 42960, Note_on_c, 6, 58, 62
7, 43200, Note_on_c, 6, 58, 0
7, 43200, Note_on_c, 6, 57, 88
7, 43440, Note_on_c, 6, 57, 0
7, 43440, Note_on_c, 6, 53, 88
7, 43680, Note_on_c, 6, 53, 0
7, 43680, Note_on_c, 6, 60, 62
7, 43920, Note_on_c, 6, 60, 0
7, 44400, Note_on_c, 6, 41, 62
7, 44640, Note_on_c, 6, 41, 0
7, 44640, Note_on_c, 6, 43, 62
7, 44880, Note_on_c, 6, 43, 0
7, 44880, Note_on_c, 6, 46, 62
7, 45120, Note_on_c, 6, 46, 0
7, 45120, Note_on_c, 6, 45, 62
7, 45360, Note_on_c, 6, 45, 0
7, 45360, Note_on_c, 6, 41, 62
7, 45600, Note_on_c, 6, 41, 0
7, 45600, Note_on_c, 6, 36, 62
7, 45840, Note_on_c, 6, 36, 0
7, 47040, Note_on_c, 6, 40, 88
7, 47040, Note_on_c, 6, 52, 88
7, 47520, Note_on_c, 6, 52, 0
7, 47520, Note_on_c, 6, 40, 0
7, 50160, Note_on_c, 6, 58, 88
7, 50400, Note_on_c, 6, 58, 0
7, 50400, Note_on_c, 6, 60, 88
7, 50640, Note_on_c, 6, 60, 0
7, 50640, Note_on_c, 6, 48, 88
7, 50880, Note_on_c, 6, 48, 0
7, 51120, Note_on_c, 6, 53, 62
7, 51360, Note_on_c, 6, 53, 0
7, 51360, Note_on_c, 6, 55, 62
7, 51600, Note_on_c, 6, 55, 0
7, 51600, Note_on_c, 6, 48, 62
7, 51840, Note_on_c, 6, 48, 0
7, 52080, Note_on_c, 6, 53, 62
7, 52320, Note_on_c, 6, 53, 0
7, 52320, Note_on_c, 6, 55, 62
7, 52560, Note_on_c, 6, 55, 0
7, 52560, Note_on_c, 6, 48, 62
7, 52800, Note_on_c, 6, 48, 0
7, 52800, Note_on_c, 6, 53, 62
7, 53040, Note_on_c, 6, 53, 0
7, 53040, Note_on_c, 6, 72, 62
7, 53280, Note_on_c, 6, 72, 0
7, 53280, Note_on_c, 6, 70, 62
7, 53520, Note_on_c, 6, 70, 0
7, 53520, Note_on_c, 6, 68, 62
7, 53760, Note_on_c, 6, 68, 0
7, 53760, Note_on_c, 6, 62, 62
7, 53760, Note_on_c, 6, 67, 62
7, 54000, Note_on_c, 6, 67, 0
7, 54000, Note_on_c, 6, 62, 0
7, 54240, Note_on_c, 6, 60, 62
7, 54240, Note_on_c, 6, 67, 62
7, 54480, Note_on_c, 6, 67, 0
7, 54480, Note_on_c, 6, 60, 0
7, 54840, Note_on_c, 6, 69, 62
7, 54840, Note_on_c, 6, 72, 62
7, 54960, Note_on_c, 6, 72, 0
7, 54960, Note_on_c, 6, 69, 0
7, 54960, Note_on_c, 6, 69, 62
7, 54960, Note_on_c, 6, 72, 62
7, 55080, Note_on_c, 6, 72, 0
7, 55080, Note_on_c, 6, 69, 0
7, 55080, Note_on_c, 6, 69, 62
7, 55080, Note_on_c, 6, 72, 62
7, 55200, Note_on_c, 6, 72, 0
7, 55200, Note_on_c, 6, 69, 0
7, 55200, Note_on_c, 6, 72, 62
7, 55200, Note_on_c, 6, 75, 62
7, 55440, Note_on_c, 6, 75, 0
7, 55440, Note_on_c, 6, 72, 0
7, 55800, Note_on_c, 6, 70, 62
7, 55800, Note_on_c, 6, 74, 62
7, 55920, Note_on_c, 6, 74, 0
7, 55920, Note_on_c, 6, 70, 0
7, 55920, Note_on_c, 6, 70, 62
7, 55920, Note_on_c, 6, 74, 62
7, 56040, Note_on_c, 6, 74, 0
7, 56040, Note_on_c, 6, 70, 0
7, 56040, Note_on_c, 6, 70, 62
7, 56040, Note_on_c, 6, 74, 62
7, 56160, Note_on_c, 6, 74, 0
7, 56160, Note_on_c, 6, 70, 0
7, 56160, Note_on_c, 6, 74, 62
7, 56160, Note_on_c, 6, 77, 62
7, 56400, Note_on_c, 6, 77, 0
7, 56400, Note_on_c, 6, 74, 0
7, 57600, Note_on_c, 6, 60, 62
7, 57840, Note_on_c, 6, 60, 0
7, 58080, Note_on_c, 6, 48, 62
7, 58320, Note_on_c, 6, 48, 0
7, 58560, Note_on_c, 6, 48, 62
7, 58800, Note_on_c, 6, 48, 0
7, 59040, Note_on_c, 6, 48, 62
7, 59280, Note_on_c, 6, 48, 0
7, 59520, Note_on_c, 6, 53, 88
7, 60000, Note_on_c, 6, 53, 0
7, 63360, Note_on_c, 6, 48, 88
7, 63600, Note_on_c, 6, 48, 0
7, 63840, Note_on_c, 6, 48, 88
7, 64080, Note_on_c, 6, 48, 0
7, 64380, Note_on_c, 6, 65, 88
7, 64403, Note_on_c, 6, 65, 0
7, 64440, Note_on_c, 6, 69, 88
7, 64463, Note_on_c, 6, 69, 0
7, 64500, Note_on_c, 6, 67, 88
7, 64523, Note_on_c, 6, 67, 0
7, 64560, Note_on_c, 6, 65, 88
7, 64583, Note_on_c, 6, 65, 0
7, 64620, Note_on_c, 6, 67, 88
7, 64643, Note_on_c, 6, 67, 0
7, 64680, Note_on_c, 6, 69, 88
7, 64703, Note_on_c, 6, 69, 0
7, 64740, Note_on_c, 6, 69, 88
7, 64763, Note_on_c, 6, 69, 0
7, 64860, Note_on_c, 6, 65, 88
7, 64883, Note_on_c, 6, 65, 0
7, 64920, Note_on_c, 6, 69, 88
7, 64943, Note_on_c, 6, 69, 0
7, 64980, Note_on_c, 6, 67, 88
7, 65003, Note_on_c, 6, 67, 0
7, 65040, Note_on_c, 6, 65, 88
7, 65063, Note_on_c, 6, 65, 0
7, 65100, Note_on_c, 6, 67, 88
7, 65123, Note_on_c, 6, 67, 0
7, 65160, Note_on_c, 6, 69, 88
7, 65183, Note_on_c, 6, 69, 0
7, 65220, Note_on_c, 6, 69, 88
7, 65243, Note_on_c, 6, 69, 0
7, 65280, Note_on_c, 6, 67, 88
7, 65303, Note_on_c, 6, 67, 0
7, 65340, Note_on_c, 6, 69, 88
7, 65363, Note_on_c, 6, 69, 0
7, 65400, Note_on_c, 6, 67, 88
7, 65423, Note_on_c, 6, 67, 0
7, 65460, Note_on_c, 6, 65, 88
7, 65483, Note_on_c, 6, 65, 0
7, 65520, Note_on_c, 6, 64, 88
7, 65543, Note_on_c, 6, 64, 0
7, 65580, Note_on_c, 6, 65, 88
7, 65603, Note_on_c, 6, 65, 0
7, 65640, Note_on_c, 6, 64, 88
7, 65663, Note_on_c, 6, 64, 0
7, 65700, Note_on_c, 6, 62, 88
7, 65723, Note_on_c, 6, 62, 0
7, 65760, Note_on_c, 6, 60, 88
7, 65783, Note_on_c, 6, 60, 0
7, 65820, Note_on_c, 6, 62, 88
7, 65843, Note_on_c, 6, 62, 0
7, 65880, Note_on_c, 6, 60, 88
7, 65903, Note_on_c, 6, 60, 0
7, 65940, Note_on_c, 6, 58, 88
7, 65963, Note_on_c, 6, 58, 0
7, 66000, Note_on_c, 6, 57, 88
7, 66023, Note_on_c, 6, 57, 0
7, 66060, Note_on_c, 6, 58, 88
7, 66083, Note_on_c, 6, 58, 0
7, 66120, Note_on_c, 6, 57, 88
7, 66143, Note_on_c, 6, 57, 0
7, 66180, Note_on_c, 6, 55, 88
7, 66203, Note_on_c, 6, 55, 0
7, 66240, Note_on_c, 6, 53, 88
7, 66480, Note_on_c, 6, 53, 0
7, 66720, Note_on_c, 6, 53, 88
7, 66960, Note_on_c, 6, 53, 0
7, 67200, Note_on_c, 6, 53, 88
7, 67440, Note_on_c, 6, 53, 0
7, 67680, Note_on_c, 6, 53, 88
7, 67920, Note_on_c, 6, 53, 0
7, 68160, Note_on_c, 6, 58, 88
7, 68400, Note_on_c, 6, 58, 0
7, 68640, Note_on_c, 6, 46, 88
7, 68880, Note_on_c, 6, 46, 0
7, 69180, Note_on_c, 6, 66, 88
7, 69203, Note_on_c, 6, 66, 0
7, 69240, Note_on_c, 6, 69, 88
7, 69263, Note_on_c, 6, 69, 0
7, 69300, Note_on_c, 6, 67, 88
7, 69323, Note_on_c, 6, 67, 0
7, 69360, Note_on_c, 6, 66, 88
7, 69383, Note_on_c, 6, 66, 0
7, 69420, Note_on_c, 6, 67, 88
7, 69443, Note_on_c, 6, 67, 0
7, 69480, Note_on_c, 6, 69, 88
7, 69503, Note_on_c, 6, 69, 0
7, 69540, Note_on_c, 6, 69, 88
7, 69563, Note_on_c, 6, 69, 0
7, 69660, Note_on_c, 6, 66, 88
7, 69683, Note_on_c, 6, 66, 0
7, 69720, Note_on_c, 6, 69, 88
7, 69743, Note_on_c, 6, 69, 0
7, 69780, Note_on_c, 6, 67, 88
7, 69803, Note_on_c, 6, 67, 0
7, 69840, Note_on_c, 6, 66, 88
7, 69863, Note_on_c, 6, 66, 0
7, 69900, Note_on_c, 6, 67, 88
7, 69923, Note_on_c, 6, 67, 0
7, 69960, Note_on_c, 6, 69, 88
7, 69983, Note_on_c, 6, 69, 0
7, 70020, Note_on_c, 6, 69, 88
7, 70043, Note_on_c, 6, 69, 0
7, 70140, Note_on_c, 6, 67, 88
7, 70163, Note_on_c, 6, 67, 0
7, 70200, Note_on_c, 6, 70, 88
7, 70223, Note_on_c, 6, 70, 0
7, 70260, Note_on_c, 6, 69, 88
7, 70283, Note_on_c, 6, 69, 0
7, 70320, Note_on_c, 6, 67, 88
7, 70343, Note_on_c, 6, 67, 0
7, 70380, Note_on_c, 6, 69, 88
7, 70403, Note_on_c, 6, 69, 0
7, 70440, Note_on_c, 6, 70, 88
7, 70463, Note_on_c, 6, 70, 0
7, 70500, Note_on_c, 6, 70, 88
7, 70523, Note_on_c, 6, 70, 0
7, 70620, Note_on_c, 6, 67, 88
7, 70643, Note_on_c, 6, 67, 0
7, 70680, Note_on_c, 6, 70, 88
7, 70703, Note_on_c, 6, 70, 0
7, 70740, Note_on_c, 6, 69, 88
7, 70763, Note_on_c, 6, 69, 0
7, 70800, Note_on_c, 6, 67, 88
7, 70823, Note_on_c, 6, 67, 0
7, 70860, Note_on_c, 6, 69, 88
7, 70883, Note_on_c, 6, 69, 0
7, 70920, Note_on_c, 6, 70, 88
7, 70943, Note_on_c, 6, 70, 0
7, 70980, Note_on_c, 6, 70, 88
7, 71003, Note_on_c, 6, 70, 0
7, 71100, Note_on_c, 6, 70, 88
7, 71123, Note_on_c, 6, 70, 0
7, 71160, Note_on_c, 6, 67, 88
7, 71183, Note_on_c, 6, 67, 0
7, 71220, Note_on_c, 6, 69, 88
7, 71243, Note_on_c, 6, 69, 0
7, 71280, Note_on_c, 6, 70, 88
7, 71303, Note_on_c, 6, 70, 0
7, 71340, Note_on_c, 6, 69, 88
7, 71363, Note_on_c, 6, 69, 0
7, 71400, Note_on_c, 6, 67, 88
7, 71423, Note_on_c, 6, 67, 0
7, 71460, Note_on_c, 6, 67, 88
7, 71483, Note_on_c, 6, 67, 0
7, 71580, Note_on_c, 6, 70, 88
7, 71603, Note_on_c, 6, 70, 0
7, 71640, Note_on_c, 6, 67, 88
7, 71663, Note_on_c, 6, 67, 0
7, 71700, Note_on_c, 6, 69, 88
7, 71723, Note_on_c, 6, 69, 0
7, 71760, Note_on_c, 6, 70, 88
7, 71783, Note_on_c, 6, 70, 0
7, 71820, Note_on_c, 6, 69, 88
7, 71843, Note_on_c, 6, 69, 0
7, 71880, Note_on_c, 6, 67, 88
7, 71903, Note_on_c, 6, 67, 0
7, 71940, Note_on_c, 6, 67, 88
7, 71963, Note_on_c, 6, 67, 0
7, 72060, Note_on_c, 6, 69, 88
7, 72083, Note_on_c, 6, 69, 0
7, 72120, Note_on_c, 6, 66, 88
7, 72143, Note_on_c, 6, 66, 0
7, 72180, Note_on_c, 6, 67, 88
7, 72203, Note_on_c, 6, 67, 0
7, 72240, Note_on_c, 6, 69, 88
7, 72263, Note_on_c, 6, 69, 0
7, 72300, Note_on_c, 6, 67, 88
7, 72323, Note_on_c, 6, 67, 0
7, 72360, Note_on_c, 6, 66, 88
7, 72383, Note_on_c, 6, 66, 0
7, 72420, Note_on_c, 6, 66, 88
7, 72443, Note_on_c, 6, 66, 0
7, 72540, Note_on_c, 6, 62, 88
7, 72563, Note_on_c, 6, 62, 0
7, 72600, Note_on_c, 6, 66, 88
7, 72623, Note_on_c, 6, 66, 0
7, 72660, Note_on_c, 6, 64, 88
7, 72683, Note_on_c, 6, 64, 0
7, 72720, Note_on_c, 6, 62, 88
7, 72743, Note_on_c, 6, 62, 0
7, 72780, Note_on_c, 6, 64, 88
7, 72803, Note_on_c, 6, 64, 0
7, 72840, Note_on_c, 6, 66, 88
7, 72863, Note_on_c, 6, 66, 0
7, 72900, Note_on_c, 6, 66, 88
7, 72923, Note_on_c, 6, 66, 0
7, 73020, Note_on_c, 6, 70, 88
7, 73043, Note_on_c, 6, 70, 0
7, 73080, Note_on_c, 6, 67, 88
7, 73103, Note_on_c, 6, 67, 0
7, 73140, Note_on_c, 6, 69, 88
7, 73163, Note_on_c, 6, 69, 0
7, 73200, Note_on_c, 6, 70, 88
7, 73223, Note_on_c, 6, 70, 0
7, 73260, Note_on_c, 6, 69, 88
7, 73283, Note_on_c, 6, 69, 0
7, 73320, Note_on_c, 6, 67, 88
7, 73343, Note_on_c, 6, 67, 0
7, 73380, Note_on_c, 6, 67, 88
7, 73403, Note_on_c, 6, 67, 0
7, 73500, Note_on_c, 6, 70, 88
7, 73523, Note_on_c, 6, 70, 0
7, 73560, Note_on_c, 6, 67, 88
7, 73583, Note_on_c, 6, 67, 0
7, 73620, Note_on_c, 6, 69, 88
7, 73643, Note_on_c, 6, 69, 0
7, 73680, Note_on_c, 6, 70, 88
7, 73703, Note_on_c, 6, 70, 0
7, 73740, Note_on_c, 6, 69, 88
7, 73763, Note_on_c, 6, 69, 0
7, 73800, Note_on_c, 6, 67, 88
7, 73823, Note_on_c, 6, 67, 0
7, 73860, Note_on_c, 6, 70, 88
7, 73883, Note_on_c, 6, 70, 0
7, 73920, Note_on_c, 6, 62, 88
7, 74160, Note_on_c, 6, 62, 0
7, 74160, Note_on_c, 6, 62, 62
7, 74256, Note_on_c, 6, 62, 0
7, 74400, Note_on_c, 6, 62, 62
7, 74496, Note_on_c, 6, 62, 0
7, 74640, Note_on_c, 6, 62, 62
7, 74736, Note_on_c, 6, 62, 0
7, 74880, Note_on_c, 6, 62, 62
7, 75360, Note_on_c, 6, 62, 0
7, 75360, Note_on_c, 6, 60, 72
7, 75840, Note_on_c, 6, 60, 0
7, 78720, Note_on_c, 6, 41, 67
7, 78720, Note_on_c, 6, 53, 67
7, 79200, Note_on_c, 6, 53, 0
7, 79200, Note_on_c, 6, 41, 0
7, 79200, Note_on_c, 6, 41, 68
7, 79200, Note_on_c, 6, 53, 68
7, 79680, Note_on_c, 6, 53, 0
7, 79680, Note_on_c, 6, 41, 0
7, 79680, Note_on_c, 6, 34, 69
7, 79680, Note_on_c, 6, 46, 69
7, 80160, Note_on_c, 6, 46, 0
7, 80160, Note_on_c, 6, 34, 0
7, 80280, Note_on_c, 6, 46, 70
7, 80400, Note_on_c, 6, 46, 0
7, 80400, Note_on_c, 6, 50, 68
7, 80520, Note_on_c, 6, 50, 0
7, 80520, Note_on_c, 6, 46, 67
7, 80640, Note_on_c, 6, 46, 0
7, 80640, Note_on_c, 6, 53, 65
7, 81120, Note_on_c, 6, 53, 0
7, 81720, Note_on_c, 6, 58, 62
7, 81840, Note_on_c, 6, 58, 0
7, 81840, Note_on_c, 6, 58, 62
7, 81960, Note_on_c, 6, 58, 0
7, 81960, Note_on_c, 6, 58, 62
7, 82080, Note_on_c, 6, 58, 0
7, 82080, Note_on_c, 6, 58, 62
7, 82320, Note_on_c, 6, 58, 0
7, 83040, Note_on_c, 6, 63, 62
7, 83160, Note_on_c, 6, 63, 0
7, 83160, Note_on_c, 6, 62, 62
7, 83280, Note_on_c, 6, 62, 0
7, 83280, Note_on_c, 6, 60, 62
7, 83400, Note_on_c, 6, 60, 0
7, 83400, Note_on_c, 6, 59, 62
7, 83447, Note_on_c, 6, 59, 0
7, 83520, Note_on_c, 6, 59, 62
7, 83640, Note_on_c, 6, 59, 0
7, 83640, Note_on_c, 6, 60, 62
7, 83687, Note_on_c, 6, 60, 0
7, 83760, Note_on_c, 6, 60, 62
7, 83807, Note_on_c, 6, 60, 0
7, 83880, Note_on_c, 6, 60, 62
7, 83927, Note_on_c, 6, 60, 0
7, 84000, Note_on_c, 6, 48, 73
7, 84120, Note_on_c, 6, 48, 0
7, 84120, Note_on_c, 6, 50, 73
7, 84240, Note_on_c, 6, 50, 0
7, 84240, Note_on_c, 6, 51, 74
7, 84360, Note_on_c, 6, 51, 0
7, 84360, Note_on_c, 6, 53, 74
7, 84407, Note_on_c, 6, 53, 0
7, 84480, Note_on_c, 6, 51, 75
7, 84720, Note_on_c, 6, 51, 0
7, 84720, Note_on_c, 6, 51, 76
7, 84960, Note_on_c, 6, 51, 0
7, 84960, Note_on_c, 6, 51, 77
7, 85200, Note_on_c, 6, 51, 0
7, 85200, Note_on_c, 6, 51, 78
7, 85440, Note_on_c, 6, 51, 0
7, 85440, Note_on_c, 6, 53, 79
7, 85920, Note_on_c, 6, 53, 0
7, 87120, Note_on_c, 6, 55, 88
7, 87120, Note_on_c, 6, 58, 88
7, 87360, Note_on_c, 6, 58, 0
7, 87360, Note_on_c, 6, 55, 0
7, 87360, Note_on_c, 6, 53, 88
7, 87360, Note_on_c, 6, 58, 88
7, 87600, Note_on_c, 6, 58, 0
7, 87600, Note_on_c, 6, 57, 88
7, 87840, Note_on_c, 6, 57, 0
7, 87840, Note_on_c, 6, 53, 0
7, 88320, Note_on_c, 6, 58, 88
7, 88440, Note_on_c, 6, 58, 0
7, 88440, Note_on_c, 6, 62, 88
7, 88560, Note_on_c, 6, 62, 0
7, 88560, Note_on_c, 6, 58, 88
7, 88680, Note_on_c, 6, 58, 0
7, 88680, Note_on_c, 6, 62, 88
7, 88800, Note_on_c, 6, 62, 0
7, 88800, Note_on_c, 6, 58, 88
7, 88920, Note_on_c, 6, 58, 0
7, 88920, Note_on_c, 6, 62, 88
7, 89040, Note_on_c, 6, 62, 0
7, 89040, Note_on_c, 6, 58, 88
7, 89160, Note_on_c, 6, 58, 0
7, 89160, Note_on_c, 6, 62, 88
7, 89280, Note_on_c, 6, 62, 0
7, 89280, Note_on_c, 6, 60, 88
7, 89400, Note_on_c, 6, 60, 0
7, 89400, Note_on_c, 6, 63, 88
7, 89520, Note_on_c, 6, 63, 0
7, 89520, Note_on_c, 6, 60, 88
7, 89640, Note_on_c, 6, 60, 0
7, 89640, Note_on_c, 6, 63, 88
7, 89760, Note_on_c, 6, 63, 0
7, 89760, Note_on_c, 6, 60, 88
7, 89880, Note_on_c, 6, 60, 0
7, 89880, Note_on_c, 6, 63, 88
7, 90000, Note_on_c, 6, 63, 0
7, 90000, Note_on_c, 6, 60, 88
7, 90120, Note_on_c, 6, 60, 0
7, 90120, Note_on_c, 6, 63, 88
7, 90240, Note_on_c, 6, 63, 0
7, 90240, Note_on_c, 6, 57, 88
7, 90360, Note_on_c, 6, 57, 0
7, 90360, Note_on_c, 6, 60, 88
7, 90480, Note_on_c, 6, 60, 0
7, 90480, Note_on_c, 6, 57, 88
7, 90600, Note_on_c, 6, 57, 0
7, 90600, Note_on_c, 6, 60, 88
7, 90647, Note_on_c, 6, 60, 0
7, 90720, Note_on_c, 6, 60, 88
7, 90840, Note_on_c, 6, 60, 0
7, 90840, Note_on_c, 6, 63, 88
7, 90960, Note_on_c, 6, 63, 0
7, 90960, Note_on_c, 6, 60, 88
7, 91080, Note_on_c, 6, 60, 0
7, 91080, Note_on_c, 6, 63, 88
7, 91200, Note_on_c, 6, 63, 0
7, 91200, Note_on_c, 6, 62, 88
7, 91320, Note_on_c, 6, 62, 0
7, 91320, Note_on_c, 6, 65, 88
7, 91440, Note_on_c, 6, 65, 0
7, 91440, Note_on_c, 6, 62, 88
7, 91560, Note_on_c, 6, 62, 0
7, 91560, Note_on_c, 6, 65, 88
7, 91607, Note_on_c, 6, 65, 0
7, 91680, Note_on_c, 6, 46, 88
7, 92160, Note_on_c, 6, 46, 0
7, 92160, Note_on_c, 6, 46, 88
7, 92640, Note_on_c, 6, 46, 0
7, 92640, Note_on_c, 6, 46, 88
7, 92880, Note_on_c, 6, 46, 0
7, 92880, Note_on_c, 6, 47, 88
7, 93120, Note_on_c, 6, 47, 0
7, 93120, Note_on_c, 6, 48, 88
7, 93600, Note_on_c, 6, 48, 0
7, 93600, Note_on_c, 6, 48, 88
7, 93840, Note_on_c, 6, 48, 0
7, 93840, Note_on_c, 6, 50, 88
7, 94080, Note_on_c, 6, 50, 0
7, 94080, Note_on_c, 6, 51, 88
7, 94800, Note_on_c, 6, 51, 0
7, 94800, Note_on_c, 6, 48, 88
7, 95040, Note_on_c, 6, 48, 0
7, 95160, Note_on_c, 6, 53, 88
7, 95280, Note_on_c, 6, 53, 0
7, 95280, Note_on_c, 6, 53, 88
7, 95400, Note_on_c, 6, 53, 0
7, 95400, Note_on_c, 6, 53, 88
7, 95520, Note_on_c, 6, 53, 0
7, 95520, Note_on_c, 6, 53, 88
7, 95760, Note_on_c, 6, 53, 0
7, 96240, Note_on_c, 6, 58, 62
7, 96480, Note_on_c, 6, 58, 0
7, 96480, Note_on_c, 6, 60, 62
7, 96720, Note_on_c, 6, 60, 0
7, 96720, Note_on_c, 6, 63, 62
7, 96816, Note_on_c, 6, 63, 0
7, 96960, Note_on_c, 6, 62, 88
7, 97200, Note_on_c, 6, 62, 0
7, 97200, Note_on_c, 6, 58, 88
7, 97440, Note_on_c, 6, 58, 0
7, 97440, Note_on_c, 6, 65, 88
7, 97680, Note_on_c, 6, 65, 0
7, 98160, Note_on_c, 6, 46, 62
7, 98400, Note_on_c, 6, 46, 0
7, 98400, Note_on_c, 6, 48, 62
7, 98640, Note_on_c, 6, 48, 0
7, 98640, Note_on_c, 6, 51, 62
7, 98880, Note_on_c, 6, 51, 0
7, 98880, Note_on_c, 6, 50, 88
7, 99120, Note_on_c, 6, 50, 0
7, 99120, Note_on_c, 6, 46, 88
7, 99360, Note_on_c, 6, 46, 0
7, 99360, Note_on_c, 6, 41, 88
7, 99600, Note_on_c, 6, 41, 0
7, 100800, Note_on_c, 6, 45, 88
7, 100800, Note_on_c, 6, 57, 88
7, 101280, Note_on_c, 6, 57, 0
7, 101280, Note_on_c, 6, 45, 0
7, 103920, Note_on_c, 6, 51, 62
7, 104160, Note_on_c, 6, 51, 0
7, 104160, Note_on_c, 6, 53, 62
7, 104400, Note_on_c, 6, 53, 0
7, 104400, Note_on_c, 6, 41, 62
7, 104640, Note_on_c, 6, 41, 0
7, 104880, Note_on_c, 6, 46, 62
7, 105120, Note_on_c, 6, 46, 0
7, 105120, Note_on_c, 6, 48, 62
7, 105360, Note_on_c, 6, 48, 0
7, 105360, Note_on_c, 6, 41, 62
7, 105600, Note_on_c, 6, 41, 0
7, 105840, Note_on_c, 6, 46, 62
7, 106080, Note_on_c, 6, 46, 0
7, 106080, Note_on_c, 6, 48, 62
7, 106320, Note_on_c, 6, 48, 0
7, 106320, Note_on_c, 6, 41, 62
7, 106560, Note_on_c, 6, 41, 0
7, 106560, Note_on_c, 6, 46, 62
7, 106800, Note_on_c, 6, 46, 0
7, 106800, Note_on_c, 6, 65, 62
7, 107040, Note_on_c, 6, 65, 0
7, 107040, Note_on_c, 6, 63, 62
7, 107280, Note_on_c, 6, 63, 0
7, 107280, Note_on_c, 6, 58, 62
7, 107520, Note_on_c, 6, 58, 0
7, 108600, Note_on_c, 6, 62, 62
7, 108600, Note_on_c, 6, 65, 62
7, 108720, Note_on_c, 6, 65, 0
7, 108720, Note_on_c, 6, 62, 0
7, 108720, Note_on_c, 6, 62, 62
7, 108720, Note_on_c, 6, 65, 62
7, 108840, Note_on_c, 6, 65, 0
7, 108840, Note_on_c, 6, 62, 0
7, 108840, Note_on_c, 6, 62, 62
7, 108840, Note_on_c, 6, 65, 62
7, 108960, Note_on_c, 6, 65, 0
7, 108960, Note_on_c, 6, 62, 0
7, 108960, Note_on_c, 6, 65, 62
7, 108960, Note_on_c, 6, 68, 62
7, 109200, Note_on_c, 6, 68, 0
7, 109200, Note_on_c, 6, 65, 0
7, 109560, Note_on_c, 6, 63, 62
7, 109560, Note_on_c, 6, 67, 62
7, 109680, Note_on_c, 6, 67, 0
7, 109680, Note_on_c, 6, 63, 0
7, 109680, Note_on_c, 6, 63, 62
7, 109680, Note_on_c, 6, 67, 62
7, 109800, Note_on_c, 6, 67, 0
7, 109800, Note_on_c, 6, 63, 0
7, 109800, Note_on_c, 6, 63, 62
7, 109800, Note_on_c, 6, 67, 62
7, 109920, Note_on_c, 6, 67, 0
7, 109920, Note_on_c, 6, 63, 0
7, 109920, Note_on_c, 6, 67, 62
7, 109920, Note_on_c, 6, 70, 62
7, 110160, Note_on_c, 6, 70, 0
7, 110160, Note_on_c, 6, 67, 0
7, 111360, Note_on_c, 6, 65, 62
7, 111600, Note_on_c, 6, 65, 0
7, 111840, Note_on_c, 6, 53, 62
7, 112080, Note_on_c, 6, 53, 0
7, 112320, Note_on_c, 6, 53, 62
7, 112560, Note_on_c, 6, 53, 0
7, 112800, Note_on_c, 6, 53, 62
7, 113040, Note_on_c, 6, 53, 0
7, 113280, Note_on_c, 6, 46, 62
7, 113760, Note_on_c, 6, 46, 0
7, 117120, Note_on_c, 6, 41, 88
7, 117120, Note_on_c, 6, 53, 88
7, 118080, Note_on_c, 6, 53, 0
7, 118080, Note_on_c, 6, 41, 0
7, 120960, Note_on_c, 6, 58, 88
7, 121200, Note_on_c, 6, 58, 0
7, 121440, Note_on_c, 6, 58, 88
7, 121680, Note_on_c, 6, 58, 0
7, 121920, Note_on_c, 6, 53, 75
7, 122160, Note_on_c, 6, 53, 0
7, 122400, Note_on_c, 6, 53, 75
7, 122640, Note_on_c, 6, 53, 0
7, 122880, Note_on_c, 6, 46, 88
7, 122903, Note_on_c, 6, 46, 0
7, 122940, Note_on_c, 6, 70, 88
7, 122963, Note_on_c, 6, 70, 0
7, 123000, Note_on_c, 6, 74, 88
7, 123023, Note_on_c, 6, 74, 0
7, 123060, Note_on_c, 6, 72, 88
7, 123083, Note_on_c, 6, 72, 0
7, 123120, Note_on_c, 6, 70, 88
7, 123143, Note_on_c, 6, 70, 0
7, 123180, Note_on_c, 6, 72, 88
7, 123203, Note_on_c, 6, 72, 0
7, 123240, Note_on_c, 6, 74, 88
7, 123263, Note_on_c, 6, 74, 0
7, 123300, Note_on_c, 6, 74, 88
7, 123323, Note_on_c, 6, 74, 0
7, 123420, Note_on_c, 6, 70, 88
7, 123443, Note_on_c, 6, 70, 0
7, 123480, Note_on_c, 6, 74, 88
7, 123503, Note_on_c, 6, 74, 0
7, 123540, Note_on_c, 6, 72, 88
7, 123563, Note_on_c, 6, 72, 0
7, 123600, Note_on_c, 6, 70, 88
7, 123623, Note_on_c, 6, 70, 0
7, 123660, Note_on_c, 6, 72, 88
7, 123683, Note_on_c, 6, 72, 0
7, 123720, Note_on_c, 6, 74, 88
7, 123743, Note_on_c, 6, 74, 0
7, 123780, Note_on_c, 6, 74, 88
7, 123803, Note_on_c, 6, 74, 0
7, 123840, Note_on_c, 6, 72, 88
7, 123863, Note_on_c, 6, 72, 0
7, 123900, Note_on_c, 6, 74, 88
7, 123923, Note_on_c, 6, 74, 0
7, 123960, Note_on_c, 6, 72, 88
7, 123983, Note_on_c, 6, 72, 0
7, 124020, Note_on_c, 6, 70, 88
7, 124043, Note_on_c, 6, 70, 0
7, 124080, Note_on_c, 6, 69, 88
7, 124103, Note_on_c, 6, 69, 0
7, 124140, Note_on_c, 6, 70, 88
7, 124163, Note_on_c, 6, 70, 0
7, 124200, Note_on_c, 6, 69, 88
7, 124223, Note_on_c, 6, 69, 0
7, 124260, Note_on_c, 6, 67, 88
7, 124283, Note_on_c, 6, 67, 0
7, 124320, Note_on_c, 6, 65, 88
7, 124343, Note_on_c, 6, 65, 0
7, 124380, Note_on_c, 6, 67, 88
7, 124403, Note_on_c, 6, 67, 0
7, 124440, Note_on_c, 6, 65, 88
7, 124463, Note_on_c, 6, 65, 0
7, 124500, Note_on_c, 6, 63, 88
7, 124523, Note_on_c, 6, 63, 0
7, 124560, Note_on_c, 6, 62, 88
7, 124583, Note_on_c, 6, 62, 0
7, 124620, Note_on_c, 6, 63, 88
7, 124643, Note_on_c, 6, 63, 0
7, 124680, Note_on_c, 6, 62, 88
7, 124703, Note_on_c, 6, 62, 0
7, 124740, Note_on_c, 6, 60, 88
7, 124763, Note_on_c, 6, 60, 0
7, 124800, Note_on_c, 6, 58, 88
7, 124896, Note_on_c, 6, 58, 0
7, 125040, Note_on_c, 6, 65, 88
7, 125280, Note_on_c, 6, 65, 0
7, 125280, Note_on_c, 6, 63, 88
7, 125520, Note_on_c, 6, 63, 0
7, 125520, Note_on_c, 6, 58, 88
7, 125760, Note_on_c, 6, 58, 0
7, 125760, Note_on_c, 6, 55, 88
7, 125760, Note_on_c, 6, 60, 88
7, 126000, Note_on_c, 6, 60, 0
7, 126000, Note_on_c, 6, 55, 0
7, 126240, Note_on_c, 6, 53, 88
7, 126240, Note_on_c, 6, 60, 88
7, 126480, Note_on_c, 6, 60, 0
7, 126480, Note_on_c, 6, 53, 0
7, 126720, Note_on_c, 6, 58, 88
7, 126960, Note_on_c, 6, 58, 0
7, 127920, Note_on_c, 6, 46, 88
7, 128160, Note_on_c, 6, 46, 0
7, 128160, Note_on_c, 6, 48, 75
7, 128400, Note_on_c, 6, 48, 0
7, 128400, Note_on_c, 6, 41, 75
7, 128640, Note_on_c, 6, 41, 0
7, 128880, Note_on_c, 6, 46, 88
7, 129120, Note_on_c, 6, 46, 0
7, 129120, Note_on_c, 6, 48, 75
7, 129360, Note_on_c, 6, 48, 0
7, 129360, Note_on_c, 6, 41, 75
7, 129600, Note_on_c, 6, 41, 0
7, 129720, Note_on_c, 6, 51, 75
7, 129840, Note_on_c, 6, 51, 0
7, 129840, Note_on_c, 6, 51, 75
7, 129960, Note_on_c, 6, 51, 0
7, 129960, Note_on_c, 6, 51, 75
7, 130080, Note_on_c, 6, 51, 0
7, 130200, Note_on_c, 6, 51, 75
7, 130320, Note_on_c, 6, 51, 0
7, 130320, Note_on_c, 6, 51, 75
7, 130440, Note_on_c, 6, 51, 0
7, 130440, Note_on_c, 6, 51, 75
7, 130560, Note_on_c, 6, 51, 0
7, 130680, Note_on_c, 6, 51, 88
7, 130800, Note_on_c, 6, 51, 0
7, 130920, Note_on_c, 6, 51, 88
7, 131040, Note_on_c, 6, 51, 0
7, 131160, Note_on_c, 6, 51, 88
7, 131280, Note_on_c, 6, 51, 0
7, 131280, Note_on_c, 6, 51, 88
7, 131400, Note_on_c, 6, 51, 0
7, 131400, Note_on_c, 6, 51, 88
7, 131520, Note_on_c, 6, 51, 0
7, 131520, Note_on_c, 6, 53, 88
7, 131760, Note_on_c, 6, 53, 0
7, 131760, Note_on_c, 6, 65, 88
7, 132000, Note_on_c, 6, 65, 0
7, 132000, Note_on_c, 6, 63, 88
7, 132240, Note_on_c, 6, 63, 0
7, 132240, Note_on_c, 6, 62, 88
7, 132480, Note_on_c, 6, 62, 0
7, 133440, Note_on_c, 6, 41, 88
7, 133440, Note_on_c, 6, 53, 88
7, 134400, Note_on_c, 6, 53, 0
7, 134400, Note_on_c, 6, 41, 0
7, 134400, Note_on_c, 6, 46, 88
7, 134880, Note_on_c, 6, 46, 0
7, 138960, Note_on_c, 6, 65, 75
7, 139200, Note_on_c, 6, 65, 0
7, 139200, Note_on_c, 6, 70, 75
7, 139440, Note_on_c, 6, 70, 0
7, 139440, Note_on_c, 6, 65, 75
7, 139680, Note_on_c, 6, 65, 0
7, 139680, Note_on_c, 6, 58, 75
7, 139920, Note_on_c, 6, 58, 0
7, 139920, End_track
8, 0, Start_track
8, 0, Title_t, "Piano 3 Trebble"
8, 0, Control_c, 7, 0, 0
8, 0, Control_c, 7, 7, 100
8, 0, Control_c, 7, 10, 60
8, 0, Control_c, 7, 91, 76
8, 0, Control_c, 7, 93, 76
8, 1, Control_c, 7, 32, 1
8, 2, Program_c, 7, 0
8, 24960, Note_on_c, 7, 69, 77
8, 24960, Note_on_c, 7, 72, 77
8, 25080, Note_on_c, 7, 72, 0
8, 25080, Note_on_c, 7, 69, 0
8, 25080, Note_on_c, 7, 72, 77
8, 25080, Note_on_c, 7, 75, 77
8, 25200, Note_on_c, 7, 75, 0
8, 25200, Note_on_c, 7, 72, 0
8, 25200, Note_on_c, 7, 70, 76
8, 25200, Note_on_c, 7, 74, 76
8, 25320, Note_on_c, 7, 74, 0
8, 25320, Note_on_c, 7, 70, 0
8, 25320, Note_on_c, 7, 69, 76
8, 25320, Note_on_c, 7, 72, 76
8, 25440, Note_on_c, 7, 72, 0
8, 25440, Note_on_c, 7, 69, 0
8, 25440, Note_on_c, 7, 75, 76
8, 25440, Note_on_c, 7, 79, 76
8, 25560, Note_on_c, 7, 79, 0
8, 25560, Note_on_c, 7, 75, 0
8, 25560, Note_on_c, 7, 74, 75
8, 25560, Note_on_c, 7, 77, 75
8, 25680, Note_on_c, 7, 77, 0
8, 25680, Note_on_c, 7, 74, 0
8, 25680, Note_on_c, 7, 74, 75
8, 25680, Note_on_c, 7, 77, 75
8, 25800, Note_on_c, 7, 77, 0
8, 25800, Note_on_c, 7, 74, 0
8, 25800, Note_on_c, 7, 72, 74
8, 25800, Note_on_c, 7, 75, 74
8, 25920, Note_on_c, 7, 75, 0
8, 25920, Note_on_c, 7, 72, 0
8, 25920, Note_on_c, 7, 72, 74
8, 25920, Note_on_c, 7, 75, 74
8, 26040, Note_on_c, 7, 75, 0
8, 26040, Note_on_c, 7, 72, 0
8, 26040, Note_on_c, 7, 70, 74
8, 26040, Note_on_c, 7, 74, 74
8, 26160, Note_on_c, 7, 74, 0
8, 26160, Note_on_c, 7, 70, 0
8, 26160, Note_on_c, 7, 75, 73
8, 26160, Note_on_c, 7, 79, 73
8, 26280, Note_on_c, 7, 79, 0
8, 26280, Note_on_c, 7, 75, 0
8, 26280, Note_on_c, 7, 74, 73
8, 26280, Note_on_c, 7, 77, 73
8, 26400, Note_on_c, 7, 77, 0
8, 26400, Note_on_c, 7, 74, 0
8, 26400, Note_on_c, 7, 74, 72
8, 26400, Note_on_c, 7, 77, 72
8, 26880, Note_on_c, 7, 77, 0
8, 26880, Note_on_c, 7, 74, 0
8, 27960, Note_on_c, 7, 58, 62
8, 27960, Note_on_c, 7, 62, 62
8, 27960, Note_on_c, 7, 65, 62
8, 28080, Note_on_c, 7, 65, 0
8, 28080, Note_on_c, 7, 62, 0
8, 28080, Note_on_c, 7, 58, 0
8, 28080, Note_on_c, 7, 58, 62
8, 28080, Note_on_c, 7, 62, 62
8, 28080, Note_on_c, 7, 65, 62
8, 28200, Note_on_c, 7, 65, 0
8, 28200, Note_on_c, 7, 62, 0
8, 28200, Note_on_c, 7, 58, 0
8, 28200, Note_on_c, 7, 58, 62
8, 28200, Note_on_c, 7, 62, 62
8, 28200, Note_on_c, 7, 65, 62
8, 28320, Note_on_c, 7, 65, 0
8, 28320, Note_on_c, 7, 62, 0
8, 28320, Note_on_c, 7, 58, 0
8, 28320, Note_on_c, 7, 58, 62
8, 28320, Note_on_c, 7, 62, 62
8, 28320, Note_on_c, 7, 65, 62
8, 28560, Note_on_c, 7, 65, 0
8, 28560, Note_on_c, 7, 62, 0
8, 28560, Note_on_c, 7, 58, 0
8, 30240, Note_on_c, 7, 67, 88
8, 30240, Note_on_c, 7, 75, 88
8, 30360, Note_on_c, 7, 75, 0
8, 30360, Note_on_c, 7, 67, 0
8, 30360, Note_on_c, 7, 65, 88
8, 30360, Note_on_c, 7, 74, 88
8, 30480, Note_on_c, 7, 74, 0
8, 30480, Note_on_c, 7, 65, 0
8, 30480, Note_on_c, 7, 63, 88
8, 30480, Note_on_c, 7, 72, 88
8, 30600, Note_on_c, 7, 72, 0
8, 30600, Note_on_c, 7, 63, 0
8, 30600, Note_on_c, 7, 62, 88
8, 30600, Note_on_c, 7, 71, 88
8, 30720, Note_on_c, 7, 71, 0
8, 30720, Note_on_c, 7, 62, 0
8, 30720, Note_on_c, 7, 71, 88
8, 30780, Note_on_c, 7, 71, 0
8, 30780, Note_on_c, 7, 72, 88
8, 30840, Note_on_c, 7, 72, 0
8, 30840, Note_on_c, 7, 74, 88
8, 30900, Note_on_c, 7, 74, 0
8, 30900, Note_on_c, 7, 72, 88
8, 30960, Note_on_c, 7, 72, 0
8, 30960, Note_on_c, 7, 63, 88
8, 30960, Note_on_c, 7, 67, 88
8, 30960, Note_on_c, 7, 72, 88
8, 31200, Note_on_c, 7, 72, 0
8, 31200, Note_on_c, 7, 67, 0
8, 31200, Note_on_c, 7, 63, 0
8, 31200, Note_on_c, 7, 63, 88
8, 31200, Note_on_c, 7, 67, 88
8, 31200, Note_on_c, 7, 72, 88
8, 31440, Note_on_c, 7, 72, 0
8, 31440, Note_on_c, 7, 67, 0
8, 31440, Note_on_c, 7, 63, 0
8, 31440, Note_on_c, 7, 63, 88
8, 31440, Note_on_c, 7, 67, 88
8, 31440, Note_on_c, 7, 72, 88
8, 31680, Note_on_c, 7, 72, 0
8, 31680, Note_on_c, 7, 67, 0
8, 31680, Note_on_c, 7, 63, 0
8, 31680, Note_on_c, 7, 62, 88
8, 31680, Note_on_c, 7, 65, 88
8, 31680, Note_on_c, 7, 70, 88
8, 31920, Note_on_c, 7, 70, 0
8, 31920, Note_on_c, 7, 65, 0
8, 31920, Note_on_c, 7, 62, 0
8, 31920, Note_on_c, 7, 60, 88
8, 31920, Note_on_c, 7, 69, 88
8, 32160, Note_on_c, 7, 69, 0
8, 32160, Note_on_c, 7, 60, 0
8, 43200, Note_on_c, 7, 72, 88
8, 43200, Note_on_c, 7, 77, 88
8, 43440, Note_on_c, 7, 77, 0
8, 43440, Note_on_c, 7, 72, 0
8, 43440, Note_on_c, 7, 77, 88
8, 43440, Note_on_c, 7, 81, 88
8, 43680, Note_on_c, 7, 81, 0
8, 43680, Note_on_c, 7, 77, 0
8, 43680, Note_on_c, 7, 76, 88
8, 43680, Note_on_c, 7, 79, 88
8, 43920, Note_on_c, 7, 79, 0
8, 43920, Note_on_c, 7, 76, 0
8, 45120, Note_on_c, 7, 72, 88
8, 45120, Note_on_c, 7, 77, 88
8, 45360, Note_on_c, 7, 77, 0
8, 45360, Note_on_c, 7, 72, 0
8, 45360, Note_on_c, 7, 77, 88
8, 45360, Note_on_c, 7, 81, 88
8, 45600, Note_on_c, 7, 81, 0
8, 45600, Note_on_c, 7, 77, 0
8, 45600, Note_on_c, 7, 76, 88
8, 45600, Note_on_c, 7, 79, 88
8, 45840, Note_on_c, 7, 79, 0
8, 45840, Note_on_c, 7, 76, 0
8, 47040, Note_on_c, 7, 64, 88
8, 47520, Note_on_c, 7, 64, 0
8, 49560, Note_on_c, 7, 63, 88
8, 49560, Note_on_c, 7, 66, 88
8, 49560, Note_on_c, 7, 69, 88
8, 49680, Note_on_c, 7, 69, 0
8, 49680, Note_on_c, 7, 66, 0
8, 49680, Note_on_c, 7, 63, 0
8, 49680, Note_on_c, 7, 63, 88
8, 49680, Note_on_c, 7, 66, 88
8, 49680, Note_on_c, 7, 69, 88
8, 49800, Note_on_c, 7, 69, 0
8, 49800, Note_on_c, 7, 66, 0
8, 49800, Note_on_c, 7, 63, 0
8, 49800, Note_on_c, 7, 63, 88
8, 49800, Note_on_c, 7, 66, 88
8, 49800, Note_on_c, 7, 69, 88
8, 49920, Note_on_c, 7, 69, 0
8, 49920, Note_on_c, 7, 66, 0
8, 49920, Note_on_c, 7, 63, 0
8, 50160, Note_on_c, 7, 62, 88
8, 50160, Note_on_c, 7, 67, 88
8, 50160, Note_on_c, 7, 70, 88
8, 50400, Note_on_c, 7, 70, 0
8, 50400, Note_on_c, 7, 67, 0
8, 50400, Note_on_c, 7, 62, 0
8, 50400, Note_on_c, 7, 60, 88
8, 50400, Note_on_c, 7, 65, 88
8, 50400, Note_on_c, 7, 69, 88
8, 50640, Note_on_c, 7, 69, 0
8, 50640, Note_on_c, 7, 65, 0
8, 50640, Note_on_c, 7, 60, 0
8, 50640, Note_on_c, 7, 60, 88
8, 50640, Note_on_c, 7, 64, 88
8, 50640, Note_on_c, 7, 67, 88
8, 50880, Note_on_c, 7, 67, 0
8, 50880, Note_on_c, 7, 64, 0
8, 50880, Note_on_c, 7, 60, 0
8, 52800, Note_on_c, 7, 77, 62
8, 52800, Note_on_c, 7, 81, 62
8, 53040, Note_on_c, 7, 81, 0
8, 53040, Note_on_c, 7, 77, 0
8, 53040, Note_on_c, 7, 69, 62
8, 53280, Note_on_c, 7, 69, 0
8, 53280, Note_on_c, 7, 70, 62
8, 53520, Note_on_c, 7, 70, 0
8, 53520, Note_on_c, 7, 68, 62
8, 53670, Note_on_c, 7, 62, 68
8, 53700, Note_on_c, 7, 65, 68
8, 53730, Note_on_c, 7, 67, 72
8, 53760, Note_on_c, 7, 68, 0
8, 53760, Note_on_c, 7, 71, 77
8, 54000, Note_on_c, 7, 71, 0
8, 54000, Note_on_c, 7, 67, 0
8, 54000, Note_on_c, 7, 65, 0
8, 54000, Note_on_c, 7, 62, 0
8, 54150, Note_on_c, 7, 60, 71
8, 54180, Note_on_c, 7, 64, 74
8, 54210, Note_on_c, 7, 67, 74
8, 54240, Note_on_c, 7, 70, 78
8, 54480, Note_on_c, 7, 70, 0
8, 54480, Note_on_c, 7, 60, 0
8, 54480, Note_on_c, 7, 64, 0
8, 54480, Note_on_c, 7, 67, 0
8, 54720, Note_on_c, 7, 60, 62
8, 54720, Note_on_c, 7, 65, 62
8, 54720, Note_on_c, 7, 69, 62
8, 54960, Note_on_c, 7, 69, 0
8, 54960, Note_on_c, 7, 65, 0
8, 54960, Note_on_c, 7, 60, 0
8, 55320, Note_on_c, 7, 60, 68
8, 55320, Note_on_c, 7, 63, 68
8, 55440, Note_on_c, 7, 63, 0
8, 55440, Note_on_c, 7, 60, 0
8, 55440, Note_on_c, 7, 60, 73
8, 55440, Note_on_c, 7, 63, 73
8, 55560, Note_on_c, 7, 63, 0
8, 55560, Note_on_c, 7, 60, 0
8, 55560, Note_on_c, 7, 60, 71
8, 55560, Note_on_c, 7, 63, 71
8, 55680, Note_on_c, 7, 63, 0
8, 55680, Note_on_c, 7, 60, 0
8, 55680, Note_on_c, 7, 58, 68
8, 55680, Note_on_c, 7, 62, 68
8, 55920, Note_on_c, 7, 62, 0
8, 55920, Note_on_c, 7, 58, 0
8, 56280, Note_on_c, 7, 62, 69
8, 56280, Note_on_c, 7, 65, 69
8, 56400, Note_on_c, 7, 65, 0
8, 56400, Note_on_c, 7, 62, 0
8, 56400, Note_on_c, 7, 62, 69
8, 56400, Note_on_c, 7, 65, 69
8, 56520, Note_on_c, 7, 65, 0
8, 56520, Note_on_c, 7, 62, 0
8, 56520, Note_on_c, 7, 62, 69
8, 56520, Note_on_c, 7, 65, 69
8, 56640, Note_on_c, 7, 65, 0
8, 56640, Note_on_c, 7, 62, 0
8, 56640, Note_on_c, 7, 60, 69
8, 56640, Note_on_c, 7, 65, 69
8, 56880, Note_on_c, 7, 65, 0
8, 56880, Note_on_c, 7, 60, 0
8, 56880, Note_on_c, 7, 60, 65
8, 56880, Note_on_c, 7, 65, 65
8, 56880, Note_on_c, 7, 69, 65
8, 57120, Note_on_c, 7, 69, 0
8, 57120, Note_on_c, 7, 65, 0
8, 57120, Note_on_c, 7, 60, 0
8, 57120, Note_on_c, 7, 60, 65
8, 57120, Note_on_c, 7, 65, 65
8, 57120, Note_on_c, 7, 69, 65
8, 57360, Note_on_c, 7, 69, 0
8, 57360, Note_on_c, 7, 65, 0
8, 57360, Note_on_c, 7, 60, 0
8, 57360, Note_on_c, 7, 65, 65
8, 57360, Note_on_c, 7, 69, 65
8, 57360, Note_on_c, 7, 72, 65
8, 57600, Note_on_c, 7, 72, 0
8, 57600, Note_on_c, 7, 69, 0
8, 57600, Note_on_c, 7, 65, 0
8, 57600, Note_on_c, 7, 65, 65
8, 57600, Note_on_c, 7, 69, 65
8, 57600, Note_on_c, 7, 72, 65
8, 57840, Note_on_c, 7, 72, 0
8, 57840, Note_on_c, 7, 69, 0
8, 57840, Note_on_c, 7, 65, 0
8, 58080, Note_on_c, 7, 60, 67
8, 58080, Note_on_c, 7, 65, 67
8, 58080, Note_on_c, 7, 69, 67
8, 58320, Note_on_c, 7, 69, 0
8, 58320, Note_on_c, 7, 65, 0
8, 58320, Note_on_c, 7, 60, 0
8, 58560, Note_on_c, 7, 60, 76
8, 58560, Note_on_c, 7, 64, 76
8, 58560, Note_on_c, 7, 67, 76
8, 58560, Note_on_c, 7, 70, 76
8, 58800, Note_on_c, 7, 70, 0
8, 58800, Note_on_c, 7, 60, 0
8, 58800, Note_on_c, 7, 64, 0
8, 58800, Note_on_c, 7, 67, 0
8, 59040, Note_on_c, 7, 60, 87
8, 59040, Note_on_c, 7, 64, 87
8, 59040, Note_on_c, 7, 67, 87
8, 59040, Note_on_c, 7, 70, 87
8, 59280, Note_on_c, 7, 70, 0
8, 59280, Note_on_c, 7, 60, 0
8, 59280, Note_on_c, 7, 64, 0
8, 59280, Note_on_c, 7, 67, 0
8, 59520, Note_on_c, 7, 60, 88
8, 59520, Note_on_c, 7, 65, 88
8, 59520, Note_on_c, 7, 69, 88
8, 60000, Note_on_c, 7, 69, 0
8, 60000, Note_on_c, 7, 65, 0
8, 60000, Note_on_c, 7, 60, 0
8, 66360, Note_on_c, 7, 65, 88
8, 66480, Note_on_c, 7, 65, 0
8, 66480, Note_on_c, 7, 72, 88
8, 66600, Note_on_c, 7, 72, 0
8, 66600, Note_on_c, 7, 77, 88
8, 66720, Note_on_c, 7, 77, 0
8, 66840, Note_on_c, 7, 65, 88
8, 66960, Note_on_c, 7, 65, 0
8, 66960, Note_on_c, 7, 72, 88
8, 67080, Note_on_c, 7, 72, 0
8, 67080, Note_on_c, 7, 77, 88
8, 67200, Note_on_c, 7, 77, 0
8, 67320, Note_on_c, 7, 65, 88
8, 67440, Note_on_c, 7, 65, 0
8, 67440, Note_on_c, 7, 72, 88
8, 67560, Note_on_c, 7, 72, 0
8, 67560, Note_on_c, 7, 77, 88
8, 67680, Note_on_c, 7, 77, 0
8, 67800, Note_on_c, 7, 65, 88
8, 67920, Note_on_c, 7, 65, 0
8, 67920, Note_on_c, 7, 72, 88
8, 68040, Note_on_c, 7, 72, 0
8, 68040, Note_on_c, 7, 77, 88
8, 68160, Note_on_c, 7, 77, 0
8, 68280, Note_on_c, 7, 70, 88
8, 68400, Note_on_c, 7, 70, 0
8, 68400, Note_on_c, 7, 77, 88
8, 68520, Note_on_c, 7, 77, 0
8, 68520, Note_on_c, 7, 82, 88
8, 68640, Note_on_c, 7, 82, 0
8, 68760, Note_on_c, 7, 58, 88
8, 68880, Note_on_c, 7, 58, 0
8, 68880, Note_on_c, 7, 65, 88
8, 69000, Note_on_c, 7, 65, 0
8, 69000, Note_on_c, 7, 70, 88
8, 69120, Note_on_c, 7, 70, 0
8, 69240, Note_on_c, 7, 66, 88
8, 69360, Note_on_c, 7, 66, 0
8, 69360, Note_on_c, 7, 72, 88
8, 69480, Note_on_c, 7, 72, 0
8, 69480, Note_on_c, 7, 78, 88
8, 69600, Note_on_c, 7, 78, 0
8, 69720, Note_on_c, 7, 66, 88
8, 69840, Note_on_c, 7, 66, 0
8, 69840, Note_on_c, 7, 72, 88
8, 69960, Note_on_c, 7, 72, 0
8, 69960, Note_on_c, 7, 78, 88
8, 70080, Note_on_c, 7, 78, 0
8, 70200, Note_on_c, 7, 67, 88
8, 70320, Note_on_c, 7, 67, 0
8, 70320, Note_on_c, 7, 74, 88
8, 70440, Note_on_c, 7, 74, 0
8, 70440, Note_on_c, 7, 79, 88
8, 70560, Note_on_c, 7, 79, 0
8, 70680, Note_on_c, 7, 67, 88
8, 70800, Note_on_c, 7, 67, 0
8, 70800, Note_on_c, 7, 74, 88
8, 70920, Note_on_c, 7, 74, 0
8, 70920, Note_on_c, 7, 79, 88
8, 71040, Note_on_c, 7, 79, 0
8, 71160, Note_on_c, 7, 67, 88
8, 71280, Note_on_c, 7, 67, 0
8, 71280, Note_on_c, 7, 73, 88
8, 71400, Note_on_c, 7, 73, 0
8, 71400, Note_on_c, 7, 79, 88
8, 71520, Note_on_c, 7, 79, 0
8, 71640, Note_on_c, 7, 67, 88
8, 71760, Note_on_c, 7, 67, 0
8, 71760, Note_on_c, 7, 73, 88
8, 71880, Note_on_c, 7, 73, 0
8, 71880, Note_on_c, 7, 79, 88
8, 72000, Note_on_c, 7, 79, 0
8, 72120, Note_on_c, 7, 69, 88
8, 72240, Note_on_c, 7, 69, 0
8, 72240, Note_on_c, 7, 74, 88
8, 72360, Note_on_c, 7, 74, 0
8, 72360, Note_on_c, 7, 78, 88
8, 72480, Note_on_c, 7, 78, 0
8, 72600, Note_on_c, 7, 62, 88
8, 72720, Note_on_c, 7, 62, 0
8, 72720, Note_on_c, 7, 69, 88
8, 72840, Note_on_c, 7, 69, 0
8, 72840, Note_on_c, 7, 74, 88
8, 72960, Note_on_c, 7, 74, 0
8, 73080, Note_on_c, 7, 67, 88
8, 73200, Note_on_c, 7, 67, 0
8, 73200, Note_on_c, 7, 73, 88
8, 73320, Note_on_c, 7, 73, 0
8, 73320, Note_on_c, 7, 79, 88
8, 73440, Note_on_c, 7, 79, 0
8, 73560, Note_on_c, 7, 79, 88
8, 73680, Note_on_c, 7, 79, 0
8, 73680, Note_on_c, 7, 67, 88
8, 73800, Note_on_c, 7, 67, 0
8, 73800, Note_on_c, 7, 67, 88
8, 73920, Note_on_c, 7, 67, 0
8, 73920, Note_on_c, 7, 69, 88
8, 74400, Note_on_c, 7, 69, 0
8, 75360, Note_on_c, 7, 60, 77
8, 75360, Note_on_c, 7, 63, 77
8, 75360, Note_on_c, 7, 65, 77
8, 75360, Note_on_c, 7, 69, 77
8, 75840, Note_on_c, 7, 69, 0
8, 75840, Note_on_c, 7, 60, 0
8, 75840, Note_on_c, 7, 63, 0
8, 75840, Note_on_c, 7, 65, 0
8, 78720, Note_on_c, 7, 69, 70
8, 78720, Note_on_c, 7, 72, 70
8, 78840, Note_on_c, 7, 72, 0
8, 78840, Note_on_c, 7, 69, 0
8, 78840, Note_on_c, 7, 72, 71
8, 78840, Note_on_c, 7, 75, 71
8, 78960, Note_on_c, 7, 75, 0
8, 78960, Note_on_c, 7, 72, 0
8, 78960, Note_on_c, 7, 70, 73
8, 78960, Note_on_c, 7, 74, 73
8, 79080, Note_on_c, 7, 74, 0
8, 79080, Note_on_c, 7, 70, 0
8, 79080, Note_on_c, 7, 69, 74
8, 79080, Note_on_c, 7, 72, 74
8, 79103, Note_on_c, 7, 69, 0
8, 79127, Note_on_c, 7, 72, 0
8, 79200, Note_on_c, 7, 75, 76
8, 79200, Note_on_c, 7, 79, 76
8, 79320, Note_on_c, 7, 79, 0
8, 79320, Note_on_c, 7, 75, 0
8, 79320, Note_on_c, 7, 74, 77
8, 79320, Note_on_c, 7, 77, 77
8, 79343, Note_on_c, 7, 74, 0
8, 79367, Note_on_c, 7, 77, 0
8, 79440, Note_on_c, 7, 74, 79
8, 79440, Note_on_c, 7, 77, 79
8, 79560, Note_on_c, 7, 77, 0
8, 79560, Note_on_c, 7, 74, 0
8, 79560, Note_on_c, 7, 72, 76
8, 79560, Note_on_c, 7, 75, 76
8, 79583, Note_on_c, 7, 72, 0
8, 79607, Note_on_c, 7, 75, 0
8, 79680, Note_on_c, 7, 72, 75
8, 79680, Note_on_c, 7, 75, 75
8, 79800, Note_on_c, 7, 75, 0
8, 79800, Note_on_c, 7, 72, 0
8, 79800, Note_on_c, 7, 70, 74
8, 79800, Note_on_c, 7, 74, 74
8, 79823, Note_on_c, 7, 70, 0
8, 79847, Note_on_c, 7, 74, 0
8, 79920, Note_on_c, 7, 75, 72
8, 79920, Note_on_c, 7, 79, 72
8, 80040, Note_on_c, 7, 79, 0
8, 80040, Note_on_c, 7, 75, 0
8, 80040, Note_on_c, 7, 74, 71
8, 80040, Note_on_c, 7, 77, 71
8, 80063, Note_on_c, 7, 74, 0
8, 80087, Note_on_c, 7, 77, 0
8, 80160, Note_on_c, 7, 74, 70
8, 80160, Note_on_c, 7, 77, 70
8, 80640, Note_on_c, 7, 77, 0
8, 80640, Note_on_c, 7, 74, 0
8, 81720, Note_on_c, 7, 58, 62
8, 81720, Note_on_c, 7, 62, 62
8, 81720, Note_on_c, 7, 65, 62
8, 81840, Note_on_c, 7, 65, 0
8, 81840, Note_on_c, 7, 62, 0
8, 81840, Note_on_c, 7, 58, 0
8, 81840, Note_on_c, 7, 58, 62
8, 81840, Note_on_c, 7, 62, 62
8, 81840, Note_on_c, 7, 65, 62
8, 81960, Note_on_c, 7, 65, 0
8, 81960, Note_on_c, 7, 62, 0
8, 81960, Note_on_c, 7, 58, 0
8, 81960, Note_on_c, 7, 58, 62
8, 81960, Note_on_c, 7, 62, 62
8, 81960, Note_on_c, 7, 65, 62
8, 82080, Note_on_c, 7, 65, 0
8, 82080, Note_on_c, 7, 62, 0
8, 82080, Note_on_c, 7, 58, 0
8, 82080, Note_on_c, 7, 58, 62
8, 82080, Note_on_c, 7, 62, 62
8, 82080, Note_on_c, 7, 65, 62
8, 82320, Note_on_c, 7, 65, 0
8, 82320, Note_on_c, 7, 62, 0
8, 82320, Note_on_c, 7, 58, 0
8, 84000, Note_on_c, 7, 67, 74
8, 84000, Note_on_c, 7, 75, 74
8, 84120, Note_on_c, 7, 75, 0
8, 84120, Note_on_c, 7, 67, 0
8, 84120, Note_on_c, 7, 65, 74
8, 84120, Note_on_c, 7, 74, 74
8, 84240, Note_on_c, 7, 74, 0
8, 84240, Note_on_c, 7, 65, 0
8, 84240, Note_on_c, 7, 63, 74
8, 84240, Note_on_c, 7, 72, 74
8, 84360, Note_on_c, 7, 72, 0
8, 84360, Note_on_c, 7, 63, 0
8, 84360, Note_on_c, 7, 62, 74
8, 84360, Note_on_c, 7, 71, 74
8, 84383, Note_on_c, 7, 62, 0
8, 84407, Note_on_c, 7, 71, 0
8, 84480, Note_on_c, 7, 71, 74
8, 84540, Note_on_c, 7, 71, 0
8, 84540, Note_on_c, 7, 72, 74
8, 84600, Note_on_c, 7, 72, 0
8, 84600, Note_on_c, 7, 74, 74
8, 84660, Note_on_c, 7, 74, 0
8, 84660, Note_on_c, 7, 72, 74
8, 84720, Note_on_c, 7, 72, 0
8, 84720, Note_on_c, 7, 63, 74
8, 84720, Note_on_c, 7, 67, 74
8, 84720, Note_on_c, 7, 72, 74
8, 84960, Note_on_c, 7, 72, 0
8, 84960, Note_on_c, 7, 67, 0
8, 84960, Note_on_c, 7, 63, 0
8, 84960, Note_on_c, 7, 63, 74
8, 84960, Note_on_c, 7, 67, 74
8, 84960, Note_on_c, 7, 72, 74
8, 85200, Note_on_c, 7, 72, 0
8, 85200, Note_on_c, 7, 67, 0
8, 85200, Note_on_c, 7, 63, 0
8, 85200, Note_on_c, 7, 63, 74
8, 85200, Note_on_c, 7, 67, 74
8, 85200, Note_on_c, 7, 72, 74
8, 85440, Note_on_c, 7, 72, 0
8, 85440, Note_on_c, 7, 67, 0
8, 85440, Note_on_c, 7, 63, 0
8, 85440, Note_on_c, 7, 62, 74
8, 85440, Note_on_c, 7, 65, 74
8, 85440, Note_on_c, 7, 70, 74
8, 85680, Note_on_c, 7, 70, 0
8, 85680, Note_on_c, 7, 65, 0
8, 85680, Note_on_c, 7, 62, 0
8, 85680, Note_on_c, 7, 60, 74
8, 85680, Note_on_c, 7, 69, 74
8, 85920, Note_on_c, 7, 69, 0
8, 85920, Note_on_c, 7, 60, 0
8, 96960, Note_on_c, 7, 77, 72
8, 96960, Note_on_c, 7, 82, 72
8, 97200, Note_on_c, 7, 82, 0
8, 97200, Note_on_c, 7, 77, 0
8, 97200, Note_on_c, 7, 82, 73
8, 97200, Note_on_c, 7, 86, 73
8, 97440, Note_on_c, 7, 86, 0
8, 97440, Note_on_c, 7, 82, 0
8, 97440, Note_on_c, 7, 81, 74
8, 97440, Note_on_c, 7, 84, 74
8, 97680, Note_on_c, 7, 84, 0
8, 97680, Note_on_c, 7, 81, 0
8, 100800, Note_on_c, 7, 57, 88
8, 101280, Note_on_c, 7, 57, 0
8, 103320, Note_on_c, 7, 53, 88
8, 103320, Note_on_c, 7, 56, 88
8, 103320, Note_on_c, 7, 59, 88
8, 103440, Note_on_c, 7, 59, 0
8, 103440, Note_on_c, 7, 56, 0
8, 103440, Note_on_c, 7, 53, 0
8, 103440, Note_on_c, 7, 53, 88
8, 103440, Note_on_c, 7, 56, 88
8, 103440, Note_on_c, 7, 59, 88
8, 103560, Note_on_c, 7, 59, 0
8, 103560, Note_on_c, 7, 56, 0
8, 103560, Note_on_c, 7, 53, 0
8, 103560, Note_on_c, 7, 53, 88
8, 103560, Note_on_c, 7, 56, 88
8, 103560, Note_on_c, 7, 59, 88
8, 103680, Note_on_c, 7, 59, 0
8, 103680, Note_on_c, 7, 56, 0
8, 103680, Note_on_c, 7, 53, 0
8, 103680, Note_on_c, 7, 55, 88
8, 103680, Note_on_c, 7, 60, 88
8, 103920, Note_on_c, 7, 60, 0
8, 103920, Note_on_c, 7, 55, 0
8, 103920, Note_on_c, 7, 55, 88
8, 103920, Note_on_c, 7, 60, 88
8, 103920, Note_on_c, 7, 63, 88
8, 104160, Note_on_c, 7, 63, 0
8, 104160, Note_on_c, 7, 60, 0
8, 104160, Note_on_c, 7, 55, 0
8, 104160, Note_on_c, 7, 58, 88
8, 104160, Note_on_c, 7, 62, 88
8, 104400, Note_on_c, 7, 62, 0
8, 104400, Note_on_c, 7, 58, 0
8, 104400, Note_on_c, 7, 57, 88
8, 104400, Note_on_c, 7, 60, 88
8, 104640, Note_on_c, 7, 60, 0
8, 104640, Note_on_c, 7, 57, 0
8, 106800, Note_on_c, 7, 62, 62
8, 107040, Note_on_c, 7, 62, 0
8, 107040, Note_on_c, 7, 63, 62
8, 107280, Note_on_c, 7, 63, 0
8, 107280, Note_on_c, 7, 61, 62
8, 107430, Note_on_c, 7, 55, 71
8, 107460, Note_on_c, 7, 58, 76
8, 107490, Note_on_c, 7, 60, 76
8, 107520, Note_on_c, 7, 61, 0
8, 107520, Note_on_c, 7, 64, 80
8, 107760, Note_on_c, 7, 64, 0
8, 107760, Note_on_c, 7, 60, 0
8, 107760, Note_on_c, 7, 58, 0
8, 107760, Note_on_c, 7, 55, 0
8, 107920, Note_on_c, 7, 53, 74
8, 107960, Note_on_c, 7, 60, 76
8, 108000, Note_on_c, 7, 63, 79
8, 108240, Note_on_c, 7, 63, 0
8, 108240, Note_on_c, 7, 60, 0
8, 108240, Note_on_c, 7, 53, 0
8, 108400, Note_on_c, 7, 53, 72
8, 108440, Note_on_c, 7, 58, 72
8, 108480, Note_on_c, 7, 62, 74
8, 108720, Note_on_c, 7, 62, 0
8, 108720, Note_on_c, 7, 58, 0
8, 108720, Note_on_c, 7, 53, 0
8, 109080, Note_on_c, 7, 53, 71
8, 109080, Note_on_c, 7, 56, 71
8, 109200, Note_on_c, 7, 56, 0
8, 109200, Note_on_c, 7, 53, 0
8, 109200, Note_on_c, 7, 53, 62
8, 109200, Note_on_c, 7, 56, 62
8, 109320, Note_on_c, 7, 56, 0
8, 109320, Note_on_c, 7, 53, 0
8, 109320, Note_on_c, 7, 53, 62
8, 109320, Note_on_c, 7, 56, 62
8, 109440, Note_on_c, 7, 56, 0
8, 109440, Note_on_c, 7, 53, 0
8, 109440, Note_on_c, 7, 51, 62
8, 109440, Note_on_c, 7, 55, 62
8, 109680, Note_on_c, 7, 55, 0
8, 109680, Note_on_c, 7, 51, 0
8, 110040, Note_on_c, 7, 55, 62
8, 110040, Note_on_c, 7, 58, 62
8, 110160, Note_on_c, 7, 58, 0
8, 110160, Note_on_c, 7, 55, 0
8, 110160, Note_on_c, 7, 55, 62
8, 110160, Note_on_c, 7, 58, 62
8, 110280, Note_on_c, 7, 58, 0
8, 110280, Note_on_c, 7, 55, 0
8, 110280, Note_on_c, 7, 55, 62
8, 110280, Note_on_c, 7, 58, 62
8, 110400, Note_on_c, 7, 58, 0
8, 110400, Note_on_c, 7, 55, 0
8, 117120, Note_on_c, 7, 77, 88
8, 118080, Note_on_c, 7, 77, 0
8, 121200, Note_on_c, 7, 74, 88
8, 121320, Note_on_c, 7, 74, 0
8, 121320, Note_on_c, 7, 82, 88
8, 121380, Note_on_c, 7, 82, 0
8, 121380, Note_on_c, 7, 77, 88
8, 121440, Note_on_c, 7, 77, 0
8, 121440, Note_on_c, 7, 77, 88
8, 121536, Note_on_c, 7, 77, 0
8, 122160, Note_on_c, 7, 77, 75
8, 122280, Note_on_c, 7, 77, 0
8, 122280, Note_on_c, 7, 69, 75
8, 122400, Note_on_c, 7, 69, 0
8, 122400, Note_on_c, 7, 69, 75
8, 122496, Note_on_c, 7, 69, 0
8, 123120, Note_on_c, 7, 74, 88
8, 123240, Note_on_c, 7, 74, 0
8, 123240, Note_on_c, 7, 82, 88
8, 123300, Note_on_c, 7, 82, 0
8, 123300, Note_on_c, 7, 77, 88
8, 123360, Note_on_c, 7, 77, 0
8, 123360, Note_on_c, 7, 77, 88
8, 123456, Note_on_c, 7, 77, 0
8, 124080, Note_on_c, 7, 89, 88
8, 124200, Note_on_c, 7, 89, 0
8, 124200, Note_on_c, 7, 81, 88
8, 124320, Note_on_c, 7, 81, 0
8, 124320, Note_on_c, 7, 81, 88
8, 124416, Note_on_c, 7, 81, 0
8, 124800, Note_on_c, 7, 82, 88
8, 124896, Note_on_c, 7, 82, 0
8, 125040, Note_on_c, 7, 62, 88
8, 125280, Note_on_c, 7, 62, 0
8, 125280, Note_on_c, 7, 63, 76
8, 125520, Note_on_c, 7, 63, 0
8, 125520, Note_on_c, 7, 61, 76
8, 125760, Note_on_c, 7, 61, 0
8, 125760, Note_on_c, 7, 55, 76
8, 125760, Note_on_c, 7, 58, 76
8, 125760, Note_on_c, 7, 60, 76
8, 125760, Note_on_c, 7, 64, 76
8, 126000, Note_on_c, 7, 64, 0
8, 126000, Note_on_c, 7, 55, 0
8, 126000, Note_on_c, 7, 58, 0
8, 126000, Note_on_c, 7, 60, 0
8, 126240, Note_on_c, 7, 53, 76
8, 126240, Note_on_c, 7, 57, 76
8, 126240, Note_on_c, 7, 60, 76
8, 126240, Note_on_c, 7, 63, 76
8, 126480, Note_on_c, 7, 63, 0
8, 126480, Note_on_c, 7, 53, 0
8, 126480, Note_on_c, 7, 57, 0
8, 126480, Note_on_c, 7, 60, 0
8, 126720, Note_on_c, 7, 53, 76
8, 126720, Note_on_c, 7, 58, 76
8, 126720, Note_on_c, 7, 62, 76
8, 126960, Note_on_c, 7, 62, 0
8, 126960, Note_on_c, 7, 58, 0
8, 126960, Note_on_c, 7, 53, 0
8, 127920, Note_on_c, 7, 70, 68
8, 127920, Note_on_c, 7, 74, 68
8, 128160, Note_on_c, 7, 74, 0
8, 128160, Note_on_c, 7, 70, 0
8, 128160, Note_on_c, 7, 69, 75
8, 128160, Note_on_c, 7, 75, 75
8, 128400, Note_on_c, 7, 75, 0
8, 128400, Note_on_c, 7, 69, 0
8, 128880, Note_on_c, 7, 82, 76
8, 128880, Note_on_c, 7, 86, 76
8, 129120, Note_on_c, 7, 86, 0
8, 129120, Note_on_c, 7, 82, 0
8, 129120, Note_on_c, 7, 81, 75
8, 129120, Note_on_c, 7, 87, 75
8, 129360, Note_on_c, 7, 87, 0
8, 129360, Note_on_c, 7, 81, 0
8, 133440, Note_on_c, 7, 60, 88
8, 133440, Note_on_c, 7, 63, 88
8, 133440, Note_on_c, 7, 65, 88
8, 133440, Note_on_c, 7, 69, 88
8, 134400, Note_on_c, 7, 69, 0
8, 134400, Note_on_c, 7, 60, 0
8, 134400, Note_on_c, 7, 63, 0
8, 134400, Note_on_c, 7, 65, 0
8, 138960, Note_on_c, 7, 63, 75
8, 138960, Note_on_c, 7, 69, 75
8, 139200, Note_on_c, 7, 69, 0
8, 139200, Note_on_c, 7, 63, 0
8, 139200, Note_on_c, 7, 63, 75
8, 139200, Note_on_c, 7, 69, 75
8, 139680, Note_on_c, 7, 69, 0
8, 139680, Note_on_c, 7, 63, 0
8, 139680, Note_on_c, 7, 62, 75
8, 139680, Note_on_c, 7, 70, 75
8, 139920, Note_on_c, 7, 70, 0
8, 139920, Note_on_c, 7, 62, 0
8, 139920, End_track
9, 0, Start_track
9, 0, Title_t, "Piano 3 Bass"
9, 0, Control_c, 8, 0, 0
9, 0, Control_c, 8, 7, 90
9, 0, Control_c, 8, 10, 70
9, 0, Control_c, 8, 91, 61
9, 0, Control_c, 8, 93, 61
9, 1, Control_c, 8, 32, 1
9, 2, Program_c, 8, 0
9, 24960, Note_on_c, 8, 41, 72
9, 24960, Note_on_c, 8, 53, 72
9, 25440, Note_on_c, 8, 53, 0
9, 25440, Note_on_c, 8, 41, 0
9, 25440, Note_on_c, 8, 41, 72
9, 25440, Note_on_c, 8, 53, 72
9, 25920, Note_on_c, 8, 53, 0
9, 25920, Note_on_c, 8, 41, 0
9, 25920, Note_on_c, 8, 34, 72
9, 25920, Note_on_c, 8, 46, 72
9, 26400, Note_on_c, 8, 46, 0
9, 26400, Note_on_c, 8, 34, 0
9, 27960, Note_on_c, 8, 46, 62
9, 28080, Note_on_c, 8, 46, 0
9, 28080, Note_on_c, 8, 46, 62
9, 28200, Note_on_c, 8, 46, 0
9, 28200, Note_on_c, 8, 46, 62
9, 28320, Note_on_c, 8, 46, 0
9, 28320, Note_on_c, 8, 46, 62
9, 28560, Note_on_c, 8, 46, 0
9, 28800, Note_on_c, 8, 51, 62
9, 29280, Note_on_c, 8, 51, 0
9, 30240, Note_on_c, 8, 48, 88
9, 30360, Note_on_c, 8, 48, 0
9, 30360, Note_on_c, 8, 50, 88
9, 30480, Note_on_c, 8, 50, 0
9, 30480, Note_on_c, 8, 51, 88
9, 30600, Note_on_c, 8, 51, 0
9, 30600, Note_on_c, 8, 53, 88
9, 30720, Note_on_c, 8, 53, 0
9, 30720, Note_on_c, 8, 51, 88
9, 30960, Note_on_c, 8, 51, 0
9, 30960, Note_on_c, 8, 51, 88
9, 31200, Note_on_c, 8, 51, 0
9, 31200, Note_on_c, 8, 51, 88
9, 31440, Note_on_c, 8, 51, 0
9, 31440, Note_on_c, 8, 51, 88
9, 31680, Note_on_c, 8, 51, 0
9, 31680, Note_on_c, 8, 53, 88
9, 31920, Note_on_c, 8, 53, 0
9, 31920, Note_on_c, 8, 41, 88
9, 32160, Note_on_c, 8, 41, 0
9, 43200, Note_on_c, 8, 45, 88
9, 43200, Note_on_c, 8, 57, 88
9, 43440, Note_on_c, 8, 57, 0
9, 43440, Note_on_c, 8, 45, 0
9, 43440, Note_on_c, 8, 41, 88
9, 43440, Note_on_c, 8, 53, 88
9, 43680, Note_on_c, 8, 53, 0
9, 43680, Note_on_c, 8, 41, 0
9, 43680, Note_on_c, 8, 48, 88
9, 43680, Note_on_c, 8, 60, 88
9, 43920, Note_on_c, 8, 60, 0
9, 43920, Note_on_c, 8, 48, 0
9, 45120, Note_on_c, 8, 45, 88
9, 45120, Note_on_c, 8, 57, 88
9, 45360, Note_on_c, 8, 57, 0
9, 45360, Note_on_c, 8, 45, 0
9, 45360, Note_on_c, 8, 41, 88
9, 45360, Note_on_c, 8, 53, 88
9, 45600, Note_on_c, 8, 53, 0
9, 45600, Note_on_c, 8, 41, 0
9, 45600, Note_on_c, 8, 48, 88
9, 45600, Note_on_c, 8, 60, 88
9, 45840, Note_on_c, 8, 60, 0
9, 45840, Note_on_c, 8, 48, 0
9, 47040, Note_on_c, 8, 40, 88
9, 47040, Note_on_c, 8, 52, 88
9, 47520, Note_on_c, 8, 52, 0
9, 47520, Note_on_c, 8, 40, 0
9, 49560, Note_on_c, 8, 48, 88
9, 49560, Note_on_c, 8, 60, 88
9, 49680, Note_on_c, 8, 60, 0
9, 49680, Note_on_c, 8, 48, 0
9, 49680, Note_on_c, 8, 48, 88
9, 49680, Note_on_c, 8, 60, 88
9, 49800, Note_on_c, 8, 60, 0
9, 49800, Note_on_c, 8, 48, 0
9, 49800, Note_on_c, 8, 48, 88
9, 49800, Note_on_c, 8, 60, 88
9, 49920, Note_on_c, 8, 60, 0
9, 49920, Note_on_c, 8, 48, 0
9, 49920, Note_on_c, 8, 46, 88
9, 49920, Note_on_c, 8, 58, 88
9, 50160, Note_on_c, 8, 58, 0
9, 50160, Note_on_c, 8, 46, 0
9, 50160, Note_on_c, 8, 46, 88
9, 50400, Note_on_c, 8, 46, 0
9, 50400, Note_on_c, 8, 48, 88
9, 50640, Note_on_c, 8, 48, 0
9, 50640, Note_on_c, 8, 36, 88
9, 50880, Note_on_c, 8, 36, 0
9, 53040, Note_on_c, 8, 57, 62
9, 53280, Note_on_c, 8, 57, 0
9, 53280, Note_on_c, 8, 58, 62
9, 53520, Note_on_c, 8, 58, 0
9, 53520, Note_on_c, 8, 56, 62
9, 53760, Note_on_c, 8, 56, 0
9, 66240, Note_on_c, 8, 57, 88
9, 66240, Note_on_c, 8, 60, 88
9, 66480, Note_on_c, 8, 60, 0
9, 66480, Note_on_c, 8, 57, 0
9, 66720, Note_on_c, 8, 57, 88
9, 66720, Note_on_c, 8, 60, 88
9, 66960, Note_on_c, 8, 60, 0
9, 66960, Note_on_c, 8, 57, 0
9, 67200, Note_on_c, 8, 57, 88
9, 67200, Note_on_c, 8, 60, 88
9, 67440, Note_on_c, 8, 60, 0
9, 67440, Note_on_c, 8, 57, 0
9, 67680, Note_on_c, 8, 57, 88
9, 67680, Note_on_c, 8, 60, 88
9, 67920, Note_on_c, 8, 60, 0
9, 67920, Note_on_c, 8, 57, 0
9, 68160, Note_on_c, 8, 58, 88
9, 68160, Note_on_c, 8, 62, 88
9, 68400, Note_on_c, 8, 62, 0
9, 68400, Note_on_c, 8, 58, 0
9, 68640, Note_on_c, 8, 50, 88
9, 68640, Note_on_c, 8, 53, 88
9, 68880, Note_on_c, 8, 53, 0
9, 68880, Note_on_c, 8, 50, 0
9, 69120, Note_on_c, 8, 54, 88
9, 69120, Note_on_c, 8, 57, 88
9, 69360, Note_on_c, 8, 57, 0
9, 69360, Note_on_c, 8, 54, 0
9, 69600, Note_on_c, 8, 54, 88
9, 69600, Note_on_c, 8, 57, 88
9, 69840, Note_on_c, 8, 57, 0
9, 69840, Note_on_c, 8, 54, 0
9, 70080, Note_on_c, 8, 55, 88
9, 70080, Note_on_c, 8, 58, 88
9, 70320, Note_on_c, 8, 58, 0
9, 70320, Note_on_c, 8, 55, 0
9, 70560, Note_on_c, 8, 58, 88
9, 70560, Note_on_c, 8, 62, 88
9, 70800, Note_on_c, 8, 62, 0
9, 70800, Note_on_c, 8, 58, 0
9, 71040, Note_on_c, 8, 51, 88
9, 71040, Note_on_c, 8, 55, 88
9, 71280, Note_on_c, 8, 55, 0
9, 71280, Note_on_c, 8, 51, 0
9, 71520, Note_on_c, 8, 55, 88
9, 71520, Note_on_c, 8, 58, 88
9, 71760, Note_on_c, 8, 58, 0
9, 71760, Note_on_c, 8, 55, 0
9, 72000, Note_on_c, 8, 50, 88
9, 72000, Note_on_c, 8, 54, 88
9, 72240, Note_on_c, 8, 54, 0
9, 72240, Note_on_c, 8, 50, 0
9, 72480, Note_on_c, 8, 54, 88
9, 72480, Note_on_c, 8, 57, 88
9, 72720, Note_on_c, 8, 57, 0
9, 72720, Note_on_c, 8, 54, 0
9, 72960, Note_on_c, 8, 51, 88
9, 72960, Note_on_c, 8, 55, 88
9, 73200, Note_on_c, 8, 55, 0
9, 73200, Note_on_c, 8, 51, 0
9, 73440, Note_on_c, 8, 51, 88
9, 73440, Note_on_c, 8, 55, 88
9, 73680, Note_on_c, 8, 55, 0
9, 73680, Note_on_c, 8, 51, 0
9, 73920, Note_on_c, 8, 50, 88
9, 73920, Note_on_c, 8, 54, 88
9, 74400, Note_on_c, 8, 54, 0
9, 74400, Note_on_c, 8, 50, 0
9, 75360, Note_on_c, 8, 48, 72
9, 75840, Note_on_c, 8, 48, 0
9, 78720, Note_on_c, 8, 41, 65
9, 78720, Note_on_c, 8, 53, 65
9, 79200, Note_on_c, 8, 53, 0
9, 79200, Note_on_c, 8, 41, 0
9, 79200, Note_on_c, 8, 41, 67
9, 79200, Note_on_c, 8, 53, 67
9, 79680, Note_on_c, 8, 53, 0
9, 79680, Note_on_c, 8, 41, 0
9, 79680, Note_on_c, 8, 34, 69
9, 79680, Note_on_c, 8, 46, 69
9, 80160, Note_on_c, 8, 46, 0
9, 80160, Note_on_c, 8, 34, 0
9, 81720, Note_on_c, 8, 46, 62
9, 81840, Note_on_c, 8, 46, 0
9, 81840, Note_on_c, 8, 46, 62
9, 81960, Note_on_c, 8, 46, 0
9, 81960, Note_on_c, 8, 46, 62
9, 82080, Note_on_c, 8, 46, 0
9, 82080, Note_on_c, 8, 46, 62
9, 82320, Note_on_c, 8, 46, 0
9, 82560, Note_on_c, 8, 51, 62
9, 83040, Note_on_c, 8, 51, 0
9, 84000, Note_on_c, 8, 48, 73
9, 84120, Note_on_c, 8, 48, 0
9, 84120, Note_on_c, 8, 50, 73
9, 84240, Note_on_c, 8, 50, 0
9, 84240, Note_on_c, 8, 51, 73
9, 84360, Note_on_c, 8, 51, 0
9, 84360, Note_on_c, 8, 53, 73
9, 84407, Note_on_c, 8, 53, 0
9, 84480, Note_on_c, 8, 51, 74
9, 84720, Note_on_c, 8, 51, 0
9, 84720, Note_on_c, 8, 51, 74
9, 84960, Note_on_c, 8, 51, 0
9, 84960, Note_on_c, 8, 51, 75
9, 85200, Note_on_c, 8, 51, 0
9, 85200, Note_on_c, 8, 51, 75
9, 85440, Note_on_c, 8, 51, 0
9, 85440, Note_on_c, 8, 53, 76
9, 85680, Note_on_c, 8, 53, 0
9, 85680, Note_on_c, 8, 41, 76
9, 85920, Note_on_c, 8, 41, 0
9, 100800, Note_on_c, 8, 33, 88
9, 100800, Note_on_c, 8, 45, 88
9, 101280, Note_on_c, 8, 45, 0
9, 101280, Note_on_c, 8, 33, 0
9, 103320, Note_on_c, 8, 38, 88
9, 103320, Note_on_c, 8, 50, 88
9, 103440, Note_on_c, 8, 50, 0
9, 103440, Note_on_c, 8, 38, 0
9, 103440, Note_on_c, 8, 38, 88
9, 103440, Note_on_c, 8, 50, 88
9, 103560, Note_on_c, 8, 50, 0
9, 103560, Note_on_c, 8, 38, 0
9, 103560, Note_on_c, 8, 38, 88
9, 103560, Note_on_c, 8, 50, 88
9, 103680, Note_on_c, 8, 50, 0
9, 103680, Note_on_c, 8, 38, 0
9, 103680, Note_on_c, 8, 39, 88
9, 103680, Note_on_c, 8, 51, 88
9, 103920, Note_on_c, 8, 51, 0
9, 103920, Note_on_c, 8, 39, 0
9, 103920, Note_on_c, 8, 39, 88
9, 103920, Note_on_c, 8, 51, 88
9, 104160, Note_on_c, 8, 51, 0
9, 104160, Note_on_c, 8, 39, 0
9, 104160, Note_on_c, 8, 41, 88
9, 104160, Note_on_c, 8, 53, 88
9, 104400, Note_on_c, 8, 53, 0
9, 104400, Note_on_c, 8, 41, 0
9, 104400, Note_on_c, 8, 41, 88
9, 104400, Note_on_c, 8, 53, 88
9, 104640, Note_on_c, 8, 53, 0
9, 104640, Note_on_c, 8, 41, 0
9, 106800, Note_on_c, 8, 50, 62
9, 107040, Note_on_c, 8, 50, 0
9, 107040, Note_on_c, 8, 51, 62
9, 107280, Note_on_c, 8, 51, 0
9, 107280, Note_on_c, 8, 49, 62
9, 107520, Note_on_c, 8, 49, 0
9, 107520, Note_on_c, 8, 48, 66
9, 107760, Note_on_c, 8, 48, 0
9, 108000, Note_on_c, 8, 41, 67
9, 108240, Note_on_c, 8, 41, 0
9, 108480, Note_on_c, 8, 46, 69
9, 108720, Note_on_c, 8, 46, 0
9, 108960, Note_on_c, 8, 38, 70
9, 109200, Note_on_c, 8, 38, 0
9, 109440, Note_on_c, 8, 39, 71
9, 109680, Note_on_c, 8, 39, 0
9, 109920, Note_on_c, 8, 39, 73
9, 110160, Note_on_c, 8, 39, 0
9, 110400, Note_on_c, 8, 41, 74
9, 110640, Note_on_c, 8, 41, 0
9, 110880, Note_on_c, 8, 41, 76
9, 111120, Note_on_c, 8, 41, 0
9, 111360, Note_on_c, 8, 53, 77
9, 111600, Note_on_c, 8, 53, 0
9, 111840, Note_on_c, 8, 53, 78
9, 112080, Note_on_c, 8, 53, 0
9, 112320, Note_on_c, 8, 41, 80
9, 112560, Note_on_c, 8, 41, 0
9, 112800, Note_on_c, 8, 41, 81
9, 113040, Note_on_c, 8, 41, 0
9, 120960, Note_on_c, 8, 58, 88
9, 121080, Note_on_c, 8, 58, 0
9, 121080, Note_on_c, 8, 62, 88
9, 121200, Note_on_c, 8, 62, 0
9, 121200, Note_on_c, 8, 65, 88
9, 121320, Note_on_c, 8, 65, 0
9, 121320, Note_on_c, 8, 62, 88
9, 121440, Note_on_c, 8, 62, 0
9, 121440, Note_on_c, 8, 58, 88
9, 121560, Note_on_c, 8, 58, 0
9, 121560, Note_on_c, 8, 62, 88
9, 121680, Note_on_c, 8, 62, 0
9, 121680, Note_on_c, 8, 65, 88
9, 121800, Note_on_c, 8, 65, 0
9, 121800, Note_on_c, 8, 62, 88
9, 121920, Note_on_c, 8, 62, 0
9, 121920, Note_on_c, 8, 53, 75
9, 122040, Note_on_c, 8, 53, 0
9, 122040, Note_on_c, 8, 60, 75
9, 122160, Note_on_c, 8, 60, 0
9, 122160, Note_on_c, 8, 63, 75
9, 122280, Note_on_c, 8, 63, 0
9, 122280, Note_on_c, 8, 60, 75
9, 122400, Note_on_c, 8, 60, 0
9, 122400, Note_on_c, 8, 53, 75
9, 122520, Note_on_c, 8, 53, 0
9, 122520, Note_on_c, 8, 60, 75
9, 122640, Note_on_c, 8, 60, 0
9, 122640, Note_on_c, 8, 63, 75
9, 122760, Note_on_c, 8, 63, 0
9, 122760, Note_on_c, 8, 60, 75
9, 122880, Note_on_c, 8, 60, 0
9, 122880, Note_on_c, 8, 58, 88
9, 123000, Note_on_c, 8, 58, 0
9, 123000, Note_on_c, 8, 62, 88
9, 123120, Note_on_c, 8, 62, 0
9, 123120, Note_on_c, 8, 65, 88
9, 123240, Note_on_c, 8, 65, 0
9, 123240, Note_on_c, 8, 62, 88
9, 123360, Note_on_c, 8, 62, 0
9, 123360, Note_on_c, 8, 58, 88
9, 123480, Note_on_c, 8, 58, 0
9, 123480, Note_on_c, 8, 62, 88
9, 123600, Note_on_c, 8, 62, 0
9, 123600, Note_on_c, 8, 65, 88
9, 123720, Note_on_c, 8, 65, 0
9, 123720, Note_on_c, 8, 62, 88
9, 123840, Note_on_c, 8, 62, 0
9, 123840, Note_on_c, 8, 53, 88
9, 123960, Note_on_c, 8, 53, 0
9, 123960, Note_on_c, 8, 60, 88
9, 124080, Note_on_c, 8, 60, 0
9, 124080, Note_on_c, 8, 63, 88
9, 124200, Note_on_c, 8, 63, 0
9, 124200, Note_on_c, 8, 60, 88
9, 124320, Note_on_c, 8, 60, 0
9, 124320, Note_on_c, 8, 53, 88
9, 124440, Note_on_c, 8, 53, 0
9, 124440, Note_on_c, 8, 60, 88
9, 124560, Note_on_c, 8, 60, 0
9, 124560, Note_on_c, 8, 63, 88
9, 124680, Note_on_c, 8, 63, 0
9, 124680, Note_on_c, 8, 60, 88
9, 124800, Note_on_c, 8, 60, 0
9, 124800, Note_on_c, 8, 58, 88
9, 124896, Note_on_c, 8, 58, 0
9, 125040, Note_on_c, 8, 50, 88
9, 125280, Note_on_c, 8, 50, 0
9, 125280, Note_on_c, 8, 51, 88
9, 125520, Note_on_c, 8, 51, 0
9, 125520, Note_on_c, 8, 49, 88
9, 125760, Note_on_c, 8, 49, 0
9, 125760, Note_on_c, 8, 48, 88
9, 126000, Note_on_c, 8, 48, 0
9, 126240, Note_on_c, 8, 41, 88
9, 126480, Note_on_c, 8, 41, 0
9, 126720, Note_on_c, 8, 46, 88
9, 126960, Note_on_c, 8, 46, 0
9, 127920, Note_on_c, 8, 58, 88
9, 128160, Note_on_c, 8, 58, 0
9, 128160, Note_on_c, 8, 60, 75
9, 128400, Note_on_c, 8, 60, 0
9, 128400, Note_on_c, 8, 53, 75
9, 128640, Note_on_c, 8, 53, 0
9, 128880, Note_on_c, 8, 58, 88
9, 129120, Note_on_c, 8, 58, 0
9, 129120, Note_on_c, 8, 60, 75
9, 129360, Note_on_c, 8, 60, 0
9, 129360, Note_on_c, 8, 53, 75
9, 129600, Note_on_c, 8, 53, 0
9, 133440, Note_on_c, 8, 41, 88
9, 133440, Note_on_c, 8, 53, 88
9, 134400, Note_on_c, 8, 53, 0
9, 134400, Note_on_c, 8, 41, 0
9, 138960, Note_on_c, 8, 53, 75
9, 139200, Note_on_c, 8, 53, 0
9, 139200, Note_on_c, 8, 58, 75
9, 139440, Note_on_c, 8, 58, 0
9, 139440, Note_on_c, 8, 53, 75
9, 139680, Note_on_c, 8, 53, 0
9, 139680, Note_on_c, 8, 46, 75
9, 139920, Note_on_c, 8, 46, 0
9, 139920, End_track
10, 0, Start_track
10, 0, Title_t, "Violin I"
10, 0, Control_c, 10, 0, 0
10, 0, Control_c, 10, 32, 1
10, 0, Program_c, 10, 48
10, 0, Control_c, 10, 7, 100
10, 0, Control_c, 10, 10, 30
10, 0, Control_c, 10, 91, 79
10, 0, Control_c, 10, 93, 79
10, 0, Note_on_c, 10, 77, 62
10, 360, Note_on_c, 10, 75, 62
10, 388, Note_on_c, 10, 77, 0
10, 480, Note_on_c, 10, 74, 62
10, 512, Note_on_c, 10, 75, 0
10, 576, Note_on_c, 10, 74, 0
10, 720, Note_on_c, 10, 74, 62
10, 816, Note_on_c, 10, 74, 0
10, 960, Note_on_c, 10, 74, 62
10, 1320, Note_on_c, 10, 79, 62
10, 1352, Note_on_c, 10, 74, 0
10, 1416, Note_on_c, 10, 79, 0
10, 1440, Note_on_c, 10, 72, 62
10, 1536, Note_on_c, 10, 72, 0
10, 1680, Note_on_c, 10, 72, 62
10, 1776, Note_on_c, 10, 72, 0
10, 1920, Note_on_c, 10, 72, 70
10, 2040, Note_on_c, 10, 75, 74
10, 2065, Note_on_c, 10, 72, 0
10, 2160, Note_on_c, 10, 74, 78
10, 2185, Note_on_c, 10, 75, 0
10, 2280, Note_on_c, 10, 72, 82
10, 2305, Note_on_c, 10, 74, 0
10, 2352, Note_on_c, 10, 72, 0
10, 2400, Note_on_c, 10, 79, 88
10, 2520, Note_on_c, 10, 77, 88
10, 2545, Note_on_c, 10, 79, 0
10, 2567, Note_on_c, 10, 77, 0
10, 2640, Note_on_c, 10, 77, 88
10, 2760, Note_on_c, 10, 75, 88
10, 2785, Note_on_c, 10, 77, 0
10, 2807, Note_on_c, 10, 75, 0
10, 2880, Note_on_c, 10, 75, 88
10, 3000, Note_on_c, 10, 74, 88
10, 3025, Note_on_c, 10, 75, 0
10, 3047, Note_on_c, 10, 74, 0
10, 3120, Note_on_c, 10, 79, 91
10, 3240, Note_on_c, 10, 77, 86
10, 3265, Note_on_c, 10, 79, 0
10, 3287, Note_on_c, 10, 77, 0
10, 3360, Note_on_c, 10, 77, 81
10, 3960, Note_on_c, 10, 77, 0
10, 3960, Note_on_c, 10, 82, 62
10, 4080, Note_on_c, 10, 81, 62
10, 4105, Note_on_c, 10, 82, 0
10, 4200, Note_on_c, 10, 79, 62
10, 4225, Note_on_c, 10, 81, 0
10, 4320, Note_on_c, 10, 77, 62
10, 4345, Note_on_c, 10, 79, 0
10, 4440, Note_on_c, 10, 75, 62
10, 4465, Note_on_c, 10, 77, 0
10, 4560, Note_on_c, 10, 74, 62
10, 4585, Note_on_c, 10, 75, 0
10, 4680, Note_on_c, 10, 72, 62
10, 4705, Note_on_c, 10, 74, 0
10, 4800, Note_on_c, 10, 70, 62
10, 4825, Note_on_c, 10, 72, 0
10, 5040, Note_on_c, 10, 70, 0
10, 5280, Note_on_c, 10, 82, 83
10, 5400, Note_on_c, 10, 81, 83
10, 5425, Note_on_c, 10, 82, 0
10, 5520, Note_on_c, 10, 79, 82
10, 5545, Note_on_c, 10, 81, 0
10, 5640, Note_on_c, 10, 78, 81
10, 5665, Note_on_c, 10, 79, 0
10, 5760, Note_on_c, 10, 78, 0
10, 5760, Note_on_c, 10, 78, 81
10, 5880, Note_on_c, 10, 78, 0
10, 5880, Note_on_c, 10, 79, 80
10, 5927, Note_on_c, 10, 79, 0
10, 6000, Note_on_c, 10, 79, 80
10, 6047, Note_on_c, 10, 79, 0
10, 6120, Note_on_c, 10, 79, 79
10, 6167, Note_on_c, 10, 79, 0
10, 6240, Note_on_c, 10, 79, 62
10, 6360, Note_on_c, 10, 77, 62
10, 6385, Note_on_c, 10, 79, 0
10, 6480, Note_on_c, 10, 75, 62
10, 6522, Note_on_c, 10, 77, 0
10, 6600, Note_on_c, 10, 74, 62
10, 6625, Note_on_c, 10, 75, 0
10, 6706, Note_on_c, 10, 74, 0
10, 6720, Note_on_c, 10, 74, 62
10, 6840, Note_on_c, 10, 74, 0
10, 6840, Note_on_c, 10, 75, 62
10, 6887, Note_on_c, 10, 75, 0
10, 6960, Note_on_c, 10, 75, 62
10, 7007, Note_on_c, 10, 75, 0
10, 7080, Note_on_c, 10, 75, 62
10, 7127, Note_on_c, 10, 75, 0
10, 7200, Note_on_c, 10, 75, 79
10, 7320, Note_on_c, 10, 74, 79
10, 7345, Note_on_c, 10, 75, 0
10, 7440, Note_on_c, 10, 72, 79
10, 7465, Note_on_c, 10, 74, 0
10, 7560, Note_on_c, 10, 71, 79
10, 7585, Note_on_c, 10, 72, 0
10, 7680, Note_on_c, 10, 71, 0
10, 7680, Note_on_c, 10, 71, 79
10, 7800, Note_on_c, 10, 72, 79
10, 7849, Note_on_c, 10, 71, 0
10, 7904, Note_on_c, 10, 72, 0
10, 7920, Note_on_c, 10, 74, 79
10, 8040, Note_on_c, 10, 75, 79
10, 8104, Note_on_c, 10, 74, 0
10, 8132, Note_on_c, 10, 75, 0
10, 8160, Note_on_c, 10, 78, 79
10, 8280, Note_on_c, 10, 79, 79
10, 8329, Note_on_c, 10, 78, 0
10, 8372, Note_on_c, 10, 79, 0
10, 8400, Note_on_c, 10, 75, 79
10, 8520, Note_on_c, 10, 72, 79
10, 8569, Note_on_c, 10, 75, 0
10, 8612, Note_on_c, 10, 72, 0
10, 8640, Note_on_c, 10, 70, 79
10, 9120, Note_on_c, 10, 69, 88
10, 9162, Note_on_c, 10, 70, 0
10, 9360, Note_on_c, 10, 69, 0
10, 9360, Note_on_c, 10, 82, 62
10, 9420, Note_on_c, 10, 81, 62
10, 9448, Note_on_c, 10, 82, 0
10, 9480, Note_on_c, 10, 79, 62
10, 9508, Note_on_c, 10, 81, 0
10, 9540, Note_on_c, 10, 77, 62
10, 9568, Note_on_c, 10, 79, 0
10, 9600, Note_on_c, 10, 82, 62
10, 9628, Note_on_c, 10, 77, 0
10, 9720, Note_on_c, 10, 77, 62
10, 9745, Note_on_c, 10, 82, 0
10, 9767, Note_on_c, 10, 77, 0
10, 9960, Note_on_c, 10, 74, 62
10, 10007, Note_on_c, 10, 74, 0
10, 10200, Note_on_c, 10, 75, 62
10, 10247, Note_on_c, 10, 75, 0
10, 10440, Note_on_c, 10, 72, 62
10, 10487, Note_on_c, 10, 72, 0
10, 10560, Note_on_c, 10, 70, 77
10, 10800, Note_on_c, 10, 74, 88
10, 10824, Note_on_c, 10, 70, 0
10, 11040, Note_on_c, 10, 72, 80
10, 11060, Note_on_c, 10, 74, 0
10, 11170, Note_on_c, 10, 72, 0
10, 11280, Note_on_c, 10, 82, 62
10, 11340, Note_on_c, 10, 81, 62
10, 11357, Note_on_c, 10, 82, 0
10, 11400, Note_on_c, 10, 79, 62
10, 11417, Note_on_c, 10, 81, 0
10, 11460, Note_on_c, 10, 77, 62
10, 11477, Note_on_c, 10, 79, 0
10, 11520, Note_on_c, 10, 77, 0
10, 11520, Note_on_c, 10, 82, 62
10, 11640, Note_on_c, 10, 77, 62
10, 11666, Note_on_c, 10, 82, 0
10, 11687, Note_on_c, 10, 77, 0
10, 11880, Note_on_c, 10, 74, 62
10, 11927, Note_on_c, 10, 74, 0
10, 12120, Note_on_c, 10, 75, 62
10, 12167, Note_on_c, 10, 75, 0
10, 12360, Note_on_c, 10, 72, 62
10, 12407, Note_on_c, 10, 72, 0
10, 12480, Note_on_c, 10, 70, 72
10, 12720, Note_on_c, 10, 74, 85
10, 12740, Note_on_c, 10, 70, 0
10, 12960, Note_on_c, 10, 72, 77
10, 12992, Note_on_c, 10, 74, 0
10, 13070, Note_on_c, 10, 72, 0
10, 13200, Note_on_c, 10, 65, 62
10, 13440, Note_on_c, 10, 70, 62
10, 13484, Note_on_c, 10, 65, 0
10, 13560, Note_on_c, 10, 71, 62
10, 13592, Note_on_c, 10, 70, 0
10, 13680, Note_on_c, 10, 72, 62
10, 13712, Note_on_c, 10, 71, 0
10, 13800, Note_on_c, 10, 73, 62
10, 13832, Note_on_c, 10, 72, 0
10, 13920, Note_on_c, 10, 74, 62
10, 13952, Note_on_c, 10, 73, 0
10, 14040, Note_on_c, 10, 75, 62
10, 14072, Note_on_c, 10, 74, 0
10, 14160, Note_on_c, 10, 76, 62
10, 14192, Note_on_c, 10, 75, 0
10, 14280, Note_on_c, 10, 77, 62
10, 14312, Note_on_c, 10, 76, 0
10, 14368, Note_on_c, 10, 77, 0
10, 14400, Note_on_c, 10, 78, 84
10, 14520, Note_on_c, 10, 79, 88
10, 14568, Note_on_c, 10, 78, 0
10, 14604, Note_on_c, 10, 79, 0
10, 14640, Note_on_c, 10, 79, 79
10, 14736, Note_on_c, 10, 79, 0
10, 15360, Note_on_c, 10, 76, 62
10, 15480, Note_on_c, 10, 77, 62
10, 15524, Note_on_c, 10, 76, 0
10, 15564, Note_on_c, 10, 77, 0
10, 15600, Note_on_c, 10, 77, 62
10, 15647, Note_on_c, 10, 77, 0
10, 15720, Note_on_c, 10, 77, 62
10, 15767, Note_on_c, 10, 77, 0
10, 15840, Note_on_c, 10, 74, 62
10, 15960, Note_on_c, 10, 75, 62
10, 15984, Note_on_c, 10, 74, 0
10, 16040, Note_on_c, 10, 75, 0
10, 16080, Note_on_c, 10, 75, 62
10, 16127, Note_on_c, 10, 75, 0
10, 16200, Note_on_c, 10, 75, 62
10, 16247, Note_on_c, 10, 75, 0
10, 16320, Note_on_c, 10, 73, 62
10, 16440, Note_on_c, 10, 74, 62
10, 16464, Note_on_c, 10, 73, 0
10, 16524, Note_on_c, 10, 74, 0
10, 16560, Note_on_c, 10, 74, 62
10, 16607, Note_on_c, 10, 74, 0
10, 16680, Note_on_c, 10, 74, 62
10, 16727, Note_on_c, 10, 74, 0
10, 16800, Note_on_c, 10, 80, 88
10, 17340, Note_on_c, 10, 79, 88
10, 17380, Note_on_c, 10, 80, 0
10, 17400, Note_on_c, 10, 78, 88
10, 17417, Note_on_c, 10, 79, 0
10, 17460, Note_on_c, 10, 79, 88
10, 17477, Note_on_c, 10, 78, 0
10, 17483, Note_on_c, 10, 79, 0
10, 17520, Note_on_c, 10, 77, 88
10, 17580, Note_on_c, 10, 75, 86
10, 17597, Note_on_c, 10, 77, 0
10, 17640, Note_on_c, 10, 74, 78
10, 17657, Note_on_c, 10, 75, 0
10, 17700, Note_on_c, 10, 72, 73
10, 17717, Note_on_c, 10, 74, 0
10, 17723, Note_on_c, 10, 72, 0
10, 17760, Note_on_c, 10, 70, 82
10, 17820, Note_on_c, 10, 74, 86
10, 17837, Note_on_c, 10, 70, 0
10, 17880, Note_on_c, 10, 72, 88
10, 17897, Note_on_c, 10, 74, 0
10, 17940, Note_on_c, 10, 70, 88
10, 17957, Note_on_c, 10, 72, 0
10, 17963, Note_on_c, 10, 70, 0
10, 18000, Note_on_c, 10, 69, 88
10, 18060, Note_on_c, 10, 72, 84
10, 18077, Note_on_c, 10, 69, 0
10, 18120, Note_on_c, 10, 70, 79
10, 18137, Note_on_c, 10, 72, 0
10, 18180, Note_on_c, 10, 69, 80
10, 18197, Note_on_c, 10, 70, 0
10, 18203, Note_on_c, 10, 69, 0
10, 18240, Note_on_c, 10, 77, 78
10, 18540, Note_on_c, 10, 79, 64
10, 18576, Note_on_c, 10, 77, 0
10, 18600, Note_on_c, 10, 81, 69
10, 18617, Note_on_c, 10, 79, 0
10, 18660, Note_on_c, 10, 82, 69
10, 18677, Note_on_c, 10, 81, 0
10, 18683, Note_on_c, 10, 82, 0
10, 18720, Note_on_c, 10, 82, 71
10, 18780, Note_on_c, 10, 81, 71
10, 18797, Note_on_c, 10, 82, 0
10, 18840, Note_on_c, 10, 79, 67
10, 18857, Note_on_c, 10, 81, 0
10, 18900, Note_on_c, 10, 77, 67
10, 18917, Note_on_c, 10, 79, 0
10, 18923, Note_on_c, 10, 77, 0
10, 18960, Note_on_c, 10, 77, 67
10, 19020, Note_on_c, 10, 75, 67
10, 19037, Note_on_c, 10, 77, 0
10, 19080, Note_on_c, 10, 74, 67
10, 19097, Note_on_c, 10, 75, 0
10, 19140, Note_on_c, 10, 72, 62
10, 19157, Note_on_c, 10, 74, 0
10, 19163, Note_on_c, 10, 72, 0
10, 19200, Note_on_c, 10, 77, 59
10, 19500, Note_on_c, 10, 79, 63
10, 19524, Note_on_c, 10, 77, 0
10, 19560, Note_on_c, 10, 81, 72
10, 19577, Note_on_c, 10, 79, 0
10, 19620, Note_on_c, 10, 82, 72
10, 19637, Note_on_c, 10, 81, 0
10, 19643, Note_on_c, 10, 82, 0
10, 19680, Note_on_c, 10, 82, 72
10, 19740, Note_on_c, 10, 81, 72
10, 19757, Note_on_c, 10, 82, 0
10, 19800, Note_on_c, 10, 79, 72
10, 19817, Note_on_c, 10, 81, 0
10, 19860, Note_on_c, 10, 77, 72
10, 19877, Note_on_c, 10, 79, 0
10, 19883, Note_on_c, 10, 77, 0
10, 19920, Note_on_c, 10, 77, 67
10, 19980, Note_on_c, 10, 75, 67
10, 19997, Note_on_c, 10, 77, 0
10, 20040, Note_on_c, 10, 74, 63
10, 20057, Note_on_c, 10, 75, 0
10, 20100, Note_on_c, 10, 72, 62
10, 20117, Note_on_c, 10, 74, 0
10, 20130, Note_on_c, 10, 72, 0
10, 20160, Note_on_c, 10, 74, 93
10, 20220, Note_on_c, 10, 74, 0
10, 20220, Note_on_c, 10, 86, 92
10, 20280, Note_on_c, 10, 84, 92
10, 20297, Note_on_c, 10, 86, 0
10, 20340, Note_on_c, 10, 82, 92
10, 20357, Note_on_c, 10, 84, 0
10, 20400, Note_on_c, 10, 81, 90
10, 20417, Note_on_c, 10, 82, 0
10, 20460, Note_on_c, 10, 82, 86
10, 20477, Note_on_c, 10, 81, 0
10, 20520, Note_on_c, 10, 81, 82
10, 20537, Note_on_c, 10, 82, 0
10, 20580, Note_on_c, 10, 79, 82
10, 20597, Note_on_c, 10, 81, 0
10, 20600, Note_on_c, 10, 79, 0
10, 20640, Note_on_c, 10, 77, 88
10, 20700, Note_on_c, 10, 79, 84
10, 20717, Note_on_c, 10, 77, 0
10, 20760, Note_on_c, 10, 77, 82
10, 20777, Note_on_c, 10, 79, 0
10, 20820, Note_on_c, 10, 75, 82
10, 20837, Note_on_c, 10, 77, 0
10, 20840, Note_on_c, 10, 75, 0
10, 20880, Note_on_c, 10, 74, 78
10, 20940, Note_on_c, 10, 75, 77
10, 20957, Note_on_c, 10, 74, 0
10, 21000, Note_on_c, 10, 74, 77
10, 21017, Note_on_c, 10, 75, 0
10, 21060, Note_on_c, 10, 72, 77
10, 21077, Note_on_c, 10, 74, 0
10, 21083, Note_on_c, 10, 72, 0
10, 21120, Note_on_c, 10, 74, 77
10, 21240, Note_on_c, 10, 70, 86
10, 21280, Note_on_c, 10, 74, 0
10, 21328, Note_on_c, 10, 70, 0
10, 21480, Note_on_c, 10, 65, 62
10, 21527, Note_on_c, 10, 65, 0
10, 21720, Note_on_c, 10, 60, 62
10, 21767, Note_on_c, 10, 60, 0
10, 21960, Note_on_c, 10, 63, 79
10, 22007, Note_on_c, 10, 63, 0
10, 22080, Note_on_c, 10, 63, 73
10, 22560, Note_on_c, 10, 62, 58
10, 22610, Note_on_c, 10, 63, 0
10, 22700, Note_on_c, 10, 62, 0
10, 34560, Note_on_c, 10, 69, 45
10, 34632, Note_on_c, 10, 69, 0
10, 34680, Note_on_c, 10, 69, 45
10, 34752, Note_on_c, 10, 69, 0
10, 34800, Note_on_c, 10, 69, 45
10, 34872, Note_on_c, 10, 69, 0
10, 34920, Note_on_c, 10, 69, 45
10, 34992, Note_on_c, 10, 69, 0
10, 35040, Note_on_c, 10, 69, 45
10, 35112, Note_on_c, 10, 69, 0
10, 35160, Note_on_c, 10, 69, 45
10, 35232, Note_on_c, 10, 69, 0
10, 35280, Note_on_c, 10, 69, 45
10, 35352, Note_on_c, 10, 69, 0
10, 35400, Note_on_c, 10, 69, 45
10, 35472, Note_on_c, 10, 69, 0
10, 35520, Note_on_c, 10, 70, 45
10, 35592, Note_on_c, 10, 70, 0
10, 35640, Note_on_c, 10, 70, 45
10, 35712, Note_on_c, 10, 70, 0
10, 35760, Note_on_c, 10, 70, 45
10, 35832, Note_on_c, 10, 70, 0
10, 35880, Note_on_c, 10, 70, 45
10, 35952, Note_on_c, 10, 70, 0
10, 36000, Note_on_c, 10, 70, 45
10, 36072, Note_on_c, 10, 70, 0
10, 36120, Note_on_c, 10, 70, 45
10, 36192, Note_on_c, 10, 70, 0
10, 36240, Note_on_c, 10, 70, 45
10, 36312, Note_on_c, 10, 70, 0
10, 36360, Note_on_c, 10, 70, 45
10, 36432, Note_on_c, 10, 70, 0
10, 36480, Note_on_c, 10, 70, 45
10, 36558, Note_on_c, 10, 70, 0
10, 36600, Note_on_c, 10, 70, 45
10, 36678, Note_on_c, 10, 70, 0
10, 36720, Note_on_c, 10, 70, 45
10, 36798, Note_on_c, 10, 70, 0
10, 36840, Note_on_c, 10, 70, 45
10, 36918, Note_on_c, 10, 70, 0
10, 36960, Note_on_c, 10, 70, 45
10, 37038, Note_on_c, 10, 70, 0
10, 37080, Note_on_c, 10, 70, 45
10, 37158, Note_on_c, 10, 70, 0
10, 37200, Note_on_c, 10, 70, 45
10, 37278, Note_on_c, 10, 70, 0
10, 37320, Note_on_c, 10, 70, 45
10, 37398, Note_on_c, 10, 70, 0
10, 37440, Note_on_c, 10, 69, 45
10, 37518, Note_on_c, 10, 69, 0
10, 37560, Note_on_c, 10, 69, 45
10, 37638, Note_on_c, 10, 69, 0
10, 37680, Note_on_c, 10, 69, 45
10, 37758, Note_on_c, 10, 69, 0
10, 37800, Note_on_c, 10, 69, 45
10, 37878, Note_on_c, 10, 69, 0
10, 37920, Note_on_c, 10, 69, 45
10, 37998, Note_on_c, 10, 69, 0
10, 38040, Note_on_c, 10, 69, 45
10, 38118, Note_on_c, 10, 69, 0
10, 38160, Note_on_c, 10, 69, 45
10, 38238, Note_on_c, 10, 69, 0
10, 38280, Note_on_c, 10, 69, 45
10, 38358, Note_on_c, 10, 69, 0
10, 38400, Note_on_c, 10, 70, 45
10, 38478, Note_on_c, 10, 70, 0
10, 38520, Note_on_c, 10, 70, 45
10, 38598, Note_on_c, 10, 70, 0
10, 38640, Note_on_c, 10, 70, 45
10, 38718, Note_on_c, 10, 70, 0
10, 38760, Note_on_c, 10, 70, 45
10, 38838, Note_on_c, 10, 70, 0
10, 38880, Note_on_c, 10, 74, 45
10, 38958, Note_on_c, 10, 74, 0
10, 39000, Note_on_c, 10, 74, 47
10, 39078, Note_on_c, 10, 74, 0
10, 39120, Note_on_c, 10, 72, 46
10, 39198, Note_on_c, 10, 72, 0
10, 39240, Note_on_c, 10, 72, 46
10, 39318, Note_on_c, 10, 72, 0
10, 39360, Note_on_c, 10, 70, 46
10, 39438, Note_on_c, 10, 70, 0
10, 39480, Note_on_c, 10, 70, 46
10, 39558, Note_on_c, 10, 70, 0
10, 39600, Note_on_c, 10, 70, 46
10, 39678, Note_on_c, 10, 70, 0
10, 39720, Note_on_c, 10, 70, 46
10, 39798, Note_on_c, 10, 70, 0
10, 39840, Note_on_c, 10, 70, 46
10, 39918, Note_on_c, 10, 70, 0
10, 39960, Note_on_c, 10, 70, 46
10, 40038, Note_on_c, 10, 70, 0
10, 40080, Note_on_c, 10, 69, 46
10, 40158, Note_on_c, 10, 69, 0
10, 40200, Note_on_c, 10, 69, 46
10, 40278, Note_on_c, 10, 69, 0
10, 40320, Note_on_c, 10, 67, 46
10, 40398, Note_on_c, 10, 67, 0
10, 40440, Note_on_c, 10, 67, 46
10, 40518, Note_on_c, 10, 67, 0
10, 40560, Note_on_c, 10, 67, 46
10, 40638, Note_on_c, 10, 67, 0
10, 40680, Note_on_c, 10, 67, 46
10, 40758, Note_on_c, 10, 67, 0
10, 40800, Note_on_c, 10, 67, 46
10, 40878, Note_on_c, 10, 67, 0
10, 40920, Note_on_c, 10, 67, 46
10, 40998, Note_on_c, 10, 67, 0
10, 41040, Note_on_c, 10, 70, 45
10, 41118, Note_on_c, 10, 70, 0
10, 41160, Note_on_c, 10, 70, 47
10, 41238, Note_on_c, 10, 70, 0
10, 41280, Note_on_c, 10, 69, 56
10, 41760, Note_on_c, 10, 67, 51
10, 41798, Note_on_c, 10, 69, 0
10, 41880, Note_on_c, 10, 67, 0
10, 43200, Note_on_c, 10, 77, 58
10, 43440, Note_on_c, 10, 81, 72
10, 43470, Note_on_c, 10, 77, 0
10, 43680, Note_on_c, 10, 79, 51
10, 43730, Note_on_c, 10, 81, 0
10, 43800, Note_on_c, 10, 79, 0
10, 45120, Note_on_c, 10, 65, 58
10, 45360, Note_on_c, 10, 69, 69
10, 45398, Note_on_c, 10, 65, 0
10, 45600, Note_on_c, 10, 67, 51
10, 45634, Note_on_c, 10, 69, 0
10, 45720, Note_on_c, 10, 67, 0
10, 50880, Note_on_c, 10, 72, 49
10, 51000, Note_on_c, 10, 77, 52
10, 51036, Note_on_c, 10, 72, 0
10, 51120, Note_on_c, 10, 81, 56
10, 51156, Note_on_c, 10, 77, 0
10, 51240, Note_on_c, 10, 84, 59
10, 51276, Note_on_c, 10, 81, 0
10, 51342, Note_on_c, 10, 84, 0
10, 51360, Note_on_c, 10, 84, 62
10, 51840, Note_on_c, 10, 84, 0
10, 51840, Note_on_c, 10, 72, 48
10, 51960, Note_on_c, 10, 77, 51
10, 51996, Note_on_c, 10, 72, 0
10, 52080, Note_on_c, 10, 81, 55
10, 52116, Note_on_c, 10, 77, 0
10, 52200, Note_on_c, 10, 84, 58
10, 52236, Note_on_c, 10, 81, 0
10, 52298, Note_on_c, 10, 84, 0
10, 52320, Note_on_c, 10, 84, 62
10, 52800, Note_on_c, 10, 84, 0
10, 52800, Note_on_c, 10, 65, 58
10, 53040, Note_on_c, 10, 65, 0
10, 53880, Note_on_c, 10, 71, 47
10, 53964, Note_on_c, 10, 71, 0
10, 54000, Note_on_c, 10, 71, 49
10, 54084, Note_on_c, 10, 71, 0
10, 54120, Note_on_c, 10, 71, 51
10, 54204, Note_on_c, 10, 71, 0
10, 54360, Note_on_c, 10, 70, 43
10, 54444, Note_on_c, 10, 70, 0
10, 54480, Note_on_c, 10, 70, 45
10, 54564, Note_on_c, 10, 70, 0
10, 54600, Note_on_c, 10, 70, 47
10, 54684, Note_on_c, 10, 70, 0
10, 54720, Note_on_c, 10, 69, 49
10, 54816, Note_on_c, 10, 69, 0
10, 54960, Note_on_c, 10, 72, 49
10, 55056, Note_on_c, 10, 72, 0
10, 55440, Note_on_c, 10, 75, 49
10, 55536, Note_on_c, 10, 75, 0
10, 55920, Note_on_c, 10, 74, 49
10, 56016, Note_on_c, 10, 74, 0
10, 56400, Note_on_c, 10, 67, 49
10, 56628, Note_on_c, 10, 67, 0
10, 56640, Note_on_c, 10, 69, 49
10, 56880, Note_on_c, 10, 72, 49
10, 56906, Note_on_c, 10, 69, 0
10, 57120, Note_on_c, 10, 77, 49
10, 57146, Note_on_c, 10, 72, 0
10, 57360, Note_on_c, 10, 81, 49
10, 57392, Note_on_c, 10, 77, 0
10, 57580, Note_on_c, 10, 81, 0
10, 57600, Note_on_c, 10, 84, 49
10, 57840, Note_on_c, 10, 84, 0
10, 57840, Note_on_c, 10, 77, 49
10, 58080, Note_on_c, 10, 77, 0
10, 58320, Note_on_c, 10, 77, 49
10, 58560, Note_on_c, 10, 77, 0
10, 58800, Note_on_c, 10, 76, 49
10, 59040, Note_on_c, 10, 76, 0
10, 59280, Note_on_c, 10, 76, 49
10, 59520, Note_on_c, 10, 76, 0
10, 59520, Note_on_c, 10, 77, 79
10, 59820, Note_on_c, 10, 81, 75
10, 59844, Note_on_c, 10, 77, 0
10, 59880, Note_on_c, 10, 84, 82
10, 59897, Note_on_c, 10, 81, 0
10, 59940, Note_on_c, 10, 82, 76
10, 59957, Note_on_c, 10, 84, 0
10, 59962, Note_on_c, 10, 82, 0
10, 60000, Note_on_c, 10, 82, 72
10, 60060, Note_on_c, 10, 81, 68
10, 60077, Note_on_c, 10, 82, 0
10, 60082, Note_on_c, 10, 81, 0
10, 60120, Note_on_c, 10, 81, 64
10, 60180, Note_on_c, 10, 79, 60
10, 60197, Note_on_c, 10, 81, 0
10, 60202, Note_on_c, 10, 79, 0
10, 60240, Note_on_c, 10, 79, 63
10, 60300, Note_on_c, 10, 77, 67
10, 60317, Note_on_c, 10, 79, 0
10, 60322, Note_on_c, 10, 77, 0
10, 60360, Note_on_c, 10, 77, 70
10, 60420, Note_on_c, 10, 76, 73
10, 60437, Note_on_c, 10, 77, 0
10, 60442, Note_on_c, 10, 76, 0
10, 60480, Note_on_c, 10, 74, 77
10, 60780, Note_on_c, 10, 74, 0
10, 60780, Note_on_c, 10, 82, 77
10, 60840, Note_on_c, 10, 86, 77
10, 60857, Note_on_c, 10, 82, 0
10, 60900, Note_on_c, 10, 84, 71
10, 60917, Note_on_c, 10, 86, 0
10, 60922, Note_on_c, 10, 84, 0
10, 60960, Note_on_c, 10, 84, 62
10, 61020, Note_on_c, 10, 82, 64
10, 61037, Note_on_c, 10, 84, 0
10, 61042, Note_on_c, 10, 82, 0
10, 61080, Note_on_c, 10, 82, 65
10, 61140, Note_on_c, 10, 81, 66
10, 61157, Note_on_c, 10, 82, 0
10, 61162, Note_on_c, 10, 81, 0
10, 61200, Note_on_c, 10, 81, 67
10, 61260, Note_on_c, 10, 79, 69
10, 61277, Note_on_c, 10, 81, 0
10, 61282, Note_on_c, 10, 79, 0
10, 61320, Note_on_c, 10, 79, 70
10, 61380, Note_on_c, 10, 77, 71
10, 61397, Note_on_c, 10, 79, 0
10, 61402, Note_on_c, 10, 77, 0
10, 61440, Note_on_c, 10, 76, 79
10, 61463, Note_on_c, 10, 76, 0
10, 61500, Note_on_c, 10, 84, 81
10, 61560, Note_on_c, 10, 83, 83
10, 61577, Note_on_c, 10, 84, 0
10, 61620, Note_on_c, 10, 84, 85
10, 61637, Note_on_c, 10, 83, 0
10, 61647, Note_on_c, 10, 84, 0
10, 61680, Note_on_c, 10, 74, 88
10, 61703, Note_on_c, 10, 74, 0
10, 61740, Note_on_c, 10, 82, 88
10, 61800, Note_on_c, 10, 81, 86
10, 61817, Note_on_c, 10, 82, 0
10, 61860, Note_on_c, 10, 82, 85
10, 61877, Note_on_c, 10, 81, 0
10, 61887, Note_on_c, 10, 82, 0
10, 61920, Note_on_c, 10, 81, 88
10, 61980, Note_on_c, 10, 79, 80
10, 61997, Note_on_c, 10, 81, 0
10, 62040, Note_on_c, 10, 78, 81
10, 62057, Note_on_c, 10, 79, 0
10, 62100, Note_on_c, 10, 79, 82
10, 62117, Note_on_c, 10, 78, 0
10, 62127, Note_on_c, 10, 79, 0
10, 62160, Note_on_c, 10, 82, 83
10, 62220, Note_on_c, 10, 79, 84
10, 62237, Note_on_c, 10, 82, 0
10, 62247, Note_on_c, 10, 79, 0
10, 62280, Note_on_c, 10, 82, 84
10, 62340, Note_on_c, 10, 79, 82
10, 62357, Note_on_c, 10, 82, 0
10, 62367, Note_on_c, 10, 79, 0
10, 62400, Note_on_c, 10, 77, 70
10, 62880, Note_on_c, 10, 77, 0
10, 66480, Note_on_c, 10, 69, 62
10, 66720, Note_on_c, 10, 69, 0
10, 66960, Note_on_c, 10, 69, 62
10, 67200, Note_on_c, 10, 69, 0
10, 67440, Note_on_c, 10, 69, 62
10, 67680, Note_on_c, 10, 69, 0
10, 67920, Note_on_c, 10, 69, 62
10, 68160, Note_on_c, 10, 69, 0
10, 68400, Note_on_c, 10, 70, 62
10, 68640, Note_on_c, 10, 70, 0
10, 68880, Note_on_c, 10, 70, 62
10, 69120, Note_on_c, 10, 70, 0
10, 69360, Note_on_c, 10, 66, 62
10, 69600, Note_on_c, 10, 66, 0
10, 69840, Note_on_c, 10, 66, 62
10, 70080, Note_on_c, 10, 66, 0
10, 70320, Note_on_c, 10, 67, 62
10, 70560, Note_on_c, 10, 67, 0
10, 70800, Note_on_c, 10, 67, 62
10, 71040, Note_on_c, 10, 67, 0
10, 71280, Note_on_c, 10, 67, 74
10, 71520, Note_on_c, 10, 67, 0
10, 71760, Note_on_c, 10, 67, 62
10, 72000, Note_on_c, 10, 67, 0
10, 72240, Note_on_c, 10, 66, 62
10, 72480, Note_on_c, 10, 66, 0
10, 72720, Note_on_c, 10, 69, 62
10, 72960, Note_on_c, 10, 69, 0
10, 73200, Note_on_c, 10, 67, 76
10, 73440, Note_on_c, 10, 67, 0
10, 73680, Note_on_c, 10, 79, 65
10, 73920, Note_on_c, 10, 78, 73
10, 73948, Note_on_c, 10, 79, 0
10, 74160, Note_on_c, 10, 78, 0
10, 74160, Note_on_c, 10, 62, 62
10, 74256, Note_on_c, 10, 62, 0
10, 75360, Note_on_c, 10, 65, 68
10, 75360, Note_on_c, 10, 75, 68
10, 75840, Note_on_c, 10, 75, 0
10, 75840, Note_on_c, 10, 65, 0
10, 88320, Note_on_c, 10, 62, 57
10, 88404, Note_on_c, 10, 62, 0
10, 88440, Note_on_c, 10, 62, 57
10, 88524, Note_on_c, 10, 62, 0
10, 88560, Note_on_c, 10, 62, 57
10, 88644, Note_on_c, 10, 62, 0
10, 88680, Note_on_c, 10, 62, 57
10, 88764, Note_on_c, 10, 62, 0
10, 88800, Note_on_c, 10, 62, 57
10, 88884, Note_on_c, 10, 62, 0
10, 88920, Note_on_c, 10, 62, 57
10, 89004, Note_on_c, 10, 62, 0
10, 89040, Note_on_c, 10, 62, 57
10, 89124, Note_on_c, 10, 62, 0
10, 89160, Note_on_c, 10, 62, 57
10, 89244, Note_on_c, 10, 62, 0
10, 89280, Note_on_c, 10, 63, 57
10, 89364, Note_on_c, 10, 63, 0
10, 89400, Note_on_c, 10, 63, 57
10, 89484, Note_on_c, 10, 63, 0
10, 89520, Note_on_c, 10, 63, 57
10, 89604, Note_on_c, 10, 63, 0
10, 89640, Note_on_c, 10, 63, 57
10, 89724, Note_on_c, 10, 63, 0
10, 89760, Note_on_c, 10, 63, 57
10, 89844, Note_on_c, 10, 63, 0
10, 89880, Note_on_c, 10, 63, 57
10, 89964, Note_on_c, 10, 63, 0
10, 90000, Note_on_c, 10, 63, 57
10, 90084, Note_on_c, 10, 63, 0
10, 90120, Note_on_c, 10, 63, 57
10, 90204, Note_on_c, 10, 63, 0
10, 90240, Note_on_c, 10, 63, 57
10, 90324, Note_on_c, 10, 63, 0
10, 90360, Note_on_c, 10, 63, 57
10, 90444, Note_on_c, 10, 63, 0
10, 90480, Note_on_c, 10, 63, 57
10, 90564, Note_on_c, 10, 63, 0
10, 90600, Note_on_c, 10, 63, 57
10, 90684, Note_on_c, 10, 63, 0
10, 90720, Note_on_c, 10, 63, 57
10, 90804, Note_on_c, 10, 63, 0
10, 90840, Note_on_c, 10, 63, 57
10, 90924, Note_on_c, 10, 63, 0
10, 90960, Note_on_c, 10, 63, 57
10, 91044, Note_on_c, 10, 63, 0
10, 91080, Note_on_c, 10, 63, 57
10, 91164, Note_on_c, 10, 63, 0
10, 91200, Note_on_c, 10, 62, 57
10, 91284, Note_on_c, 10, 62, 0
10, 91320, Note_on_c, 10, 62, 57
10, 91404, Note_on_c, 10, 62, 0
10, 91440, Note_on_c, 10, 62, 57
10, 91524, Note_on_c, 10, 62, 0
10, 91560, Note_on_c, 10, 62, 57
10, 91644, Note_on_c, 10, 62, 0
10, 91680, Note_on_c, 10, 62, 57
10, 91764, Note_on_c, 10, 62, 0
10, 91800, Note_on_c, 10, 62, 57
10, 91884, Note_on_c, 10, 62, 0
10, 91920, Note_on_c, 10, 62, 57
10, 92004, Note_on_c, 10, 62, 0
10, 92040, Note_on_c, 10, 62, 57
10, 92124, Note_on_c, 10, 62, 0
10, 92160, Note_on_c, 10, 63, 57
10, 92244, Note_on_c, 10, 63, 0
10, 92280, Note_on_c, 10, 63, 57
10, 92364, Note_on_c, 10, 63, 0
10, 92400, Note_on_c, 10, 63, 57
10, 92484, Note_on_c, 10, 63, 0
10, 92520, Note_on_c, 10, 63, 57
10, 92604, Note_on_c, 10, 63, 0
10, 92640, Note_on_c, 10, 67, 50
10, 92724, Note_on_c, 10, 67, 0
10, 92760, Note_on_c, 10, 67, 50
10, 92844, Note_on_c, 10, 67, 0
10, 92880, Note_on_c, 10, 65, 57
10, 92964, Note_on_c, 10, 65, 0
10, 93000, Note_on_c, 10, 65, 57
10, 93084, Note_on_c, 10, 65, 0
10, 93120, Note_on_c, 10, 63, 57
10, 93204, Note_on_c, 10, 63, 0
10, 93240, Note_on_c, 10, 63, 57
10, 93324, Note_on_c, 10, 63, 0
10, 93360, Note_on_c, 10, 63, 57
10, 93444, Note_on_c, 10, 63, 0
10, 93480, Note_on_c, 10, 63, 57
10, 93564, Note_on_c, 10, 63, 0
10, 93600, Note_on_c, 10, 75, 48
10, 93684, Note_on_c, 10, 75, 0
10, 93720, Note_on_c, 10, 75, 52
10, 93804, Note_on_c, 10, 75, 0
10, 93840, Note_on_c, 10, 74, 55
10, 93924, Note_on_c, 10, 74, 0
10, 93960, Note_on_c, 10, 74, 58
10, 94044, Note_on_c, 10, 74, 0
10, 94080, Note_on_c, 10, 72, 58
10, 94164, Note_on_c, 10, 72, 0
10, 94200, Note_on_c, 10, 60, 58
10, 94284, Note_on_c, 10, 60, 0
10, 94320, Note_on_c, 10, 60, 58
10, 94404, Note_on_c, 10, 60, 0
10, 94440, Note_on_c, 10, 60, 57
10, 94524, Note_on_c, 10, 60, 0
10, 94560, Note_on_c, 10, 60, 57
10, 94644, Note_on_c, 10, 60, 0
10, 94680, Note_on_c, 10, 60, 57
10, 94764, Note_on_c, 10, 60, 0
10, 94800, Note_on_c, 10, 63, 56
10, 94884, Note_on_c, 10, 63, 0
10, 94920, Note_on_c, 10, 63, 56
10, 95004, Note_on_c, 10, 63, 0
10, 95040, Note_on_c, 10, 62, 56
10, 95520, Note_on_c, 10, 60, 62
10, 95548, Note_on_c, 10, 62, 0
10, 95640, Note_on_c, 10, 60, 0
10, 96960, Note_on_c, 10, 82, 58
10, 97200, Note_on_c, 10, 86, 58
10, 97232, Note_on_c, 10, 82, 0
10, 97424, Note_on_c, 10, 86, 0
10, 97440, Note_on_c, 10, 84, 58
10, 97536, Note_on_c, 10, 84, 0
10, 98880, Note_on_c, 10, 70, 55
10, 99120, Note_on_c, 10, 74, 55
10, 99136, Note_on_c, 10, 70, 0
10, 99356, Note_on_c, 10, 74, 0
10, 99360, Note_on_c, 10, 72, 55
10, 99456, Note_on_c, 10, 72, 0
10, 104640, Note_on_c, 10, 65, 51
10, 104760, Note_on_c, 10, 70, 55
10, 104777, Note_on_c, 10, 65, 0
10, 104880, Note_on_c, 10, 74, 59
10, 104897, Note_on_c, 10, 70, 0
10, 105000, Note_on_c, 10, 77, 63
10, 105017, Note_on_c, 10, 74, 0
10, 105104, Note_on_c, 10, 77, 0
10, 105120, Note_on_c, 10, 77, 67
10, 105600, Note_on_c, 10, 77, 0
10, 105600, Note_on_c, 10, 65, 48
10, 105720, Note_on_c, 10, 70, 52
10, 105737, Note_on_c, 10, 65, 0
10, 105840, Note_on_c, 10, 74, 56
10, 105857, Note_on_c, 10, 70, 0
10, 105960, Note_on_c, 10, 77, 60
10, 105977, Note_on_c, 10, 74, 0
10, 106052, Note_on_c, 10, 77, 0
10, 106080, Note_on_c, 10, 77, 63
10, 106552, Note_on_c, 10, 77, 0
10, 106560, Note_on_c, 10, 58, 53
10, 106656, Note_on_c, 10, 58, 0
10, 107640, Note_on_c, 10, 64, 55
10, 107724, Note_on_c, 10, 64, 0
10, 107760, Note_on_c, 10, 64, 55
10, 107844, Note_on_c, 10, 64, 0
10, 107880, Note_on_c, 10, 64, 55
10, 107964, Note_on_c, 10, 64, 0
10, 108120, Note_on_c, 10, 63, 55
10, 108204, Note_on_c, 10, 63, 0
10, 108240, Note_on_c, 10, 63, 55
10, 108324, Note_on_c, 10, 63, 0
10, 108360, Note_on_c, 10, 63, 55
10, 108444, Note_on_c, 10, 63, 0
10, 108480, Note_on_c, 10, 62, 50
10, 108576, Note_on_c, 10, 62, 0
10, 108720, Note_on_c, 10, 65, 50
10, 108816, Note_on_c, 10, 65, 0
10, 109200, Note_on_c, 10, 68, 52
10, 109296, Note_on_c, 10, 68, 0
10, 109680, Note_on_c, 10, 67, 53
10, 109776, Note_on_c, 10, 67, 0
10, 110160, Note_on_c, 10, 60, 55
10, 110256, Note_on_c, 10, 60, 0
10, 110400, Note_on_c, 10, 62, 55
10, 110640, Note_on_c, 10, 65, 56
10, 110662, Note_on_c, 10, 62, 0
10, 110880, Note_on_c, 10, 70, 57
10, 110902, Note_on_c, 10, 65, 0
10, 111120, Note_on_c, 10, 74, 58
10, 111142, Note_on_c, 10, 70, 0
10, 111360, Note_on_c, 10, 74, 0
10, 111360, Note_on_c, 10, 77, 58
10, 111600, Note_on_c, 10, 77, 0
10, 111600, Note_on_c, 10, 70, 53
10, 111840, Note_on_c, 10, 70, 0
10, 112080, Note_on_c, 10, 70, 51
10, 112320, Note_on_c, 10, 70, 0
10, 112560, Note_on_c, 10, 69, 60
10, 112800, Note_on_c, 10, 69, 0
10, 113040, Note_on_c, 10, 69, 68
10, 113280, Note_on_c, 10, 69, 0
10, 113280, Note_on_c, 10, 70, 80
10, 113340, Note_on_c, 10, 69, 80
10, 113359, Note_on_c, 10, 70, 0
10, 113400, Note_on_c, 10, 70, 84
10, 113419, Note_on_c, 10, 69, 0
10, 113460, Note_on_c, 10, 72, 84
10, 113479, Note_on_c, 10, 70, 0
10, 113520, Note_on_c, 10, 74, 84
10, 113539, Note_on_c, 10, 72, 0
10, 113580, Note_on_c, 10, 75, 83
10, 113599, Note_on_c, 10, 74, 0
10, 113640, Note_on_c, 10, 77, 83
10, 113659, Note_on_c, 10, 75, 0
10, 113700, Note_on_c, 10, 74, 82
10, 113719, Note_on_c, 10, 77, 0
10, 113723, Note_on_c, 10, 74, 0
10, 113760, Note_on_c, 10, 82, 78
10, 113880, Note_on_c, 10, 81, 72
10, 113903, Note_on_c, 10, 82, 0
10, 114000, Note_on_c, 10, 79, 75
10, 114023, Note_on_c, 10, 81, 0
10, 114120, Note_on_c, 10, 78, 78
10, 114143, Note_on_c, 10, 79, 0
10, 114167, Note_on_c, 10, 78, 0
10, 114240, Note_on_c, 10, 78, 80
10, 114360, Note_on_c, 10, 78, 0
10, 114360, Note_on_c, 10, 79, 84
10, 114407, Note_on_c, 10, 79, 0
10, 114480, Note_on_c, 10, 79, 80
10, 114527, Note_on_c, 10, 79, 0
10, 114600, Note_on_c, 10, 79, 76
10, 114647, Note_on_c, 10, 79, 0
10, 114720, Note_on_c, 10, 79, 60
10, 114840, Note_on_c, 10, 77, 63
10, 114863, Note_on_c, 10, 79, 0
10, 114960, Note_on_c, 10, 75, 67
10, 114983, Note_on_c, 10, 77, 0
10, 115080, Note_on_c, 10, 74, 70
10, 115103, Note_on_c, 10, 75, 0
10, 115127, Note_on_c, 10, 74, 0
10, 115200, Note_on_c, 10, 74, 73
10, 115320, Note_on_c, 10, 74, 0
10, 115320, Note_on_c, 10, 75, 75
10, 115367, Note_on_c, 10, 75, 0
10, 115440, Note_on_c, 10, 75, 71
10, 115487, Note_on_c, 10, 75, 0
10, 115560, Note_on_c, 10, 75, 68
10, 115607, Note_on_c, 10, 75, 0
10, 115680, Note_on_c, 10, 75, 72
10, 115800, Note_on_c, 10, 74, 75
10, 115823, Note_on_c, 10, 75, 0
10, 115920, Note_on_c, 10, 72, 79
10, 115943, Note_on_c, 10, 74, 0
10, 116040, Note_on_c, 10, 71, 82
10, 116063, Note_on_c, 10, 72, 0
10, 116136, Note_on_c, 10, 71, 0
10, 116160, Note_on_c, 10, 71, 84
10, 116220, Note_on_c, 10, 72, 83
10, 116239, Note_on_c, 10, 71, 0
10, 116280, Note_on_c, 10, 75, 82
10, 116299, Note_on_c, 10, 72, 0
10, 116340, Note_on_c, 10, 74, 80
10, 116359, Note_on_c, 10, 75, 0
10, 116363, Note_on_c, 10, 74, 0
10, 116400, Note_on_c, 10, 71, 79
10, 116460, Note_on_c, 10, 72, 78
10, 116479, Note_on_c, 10, 71, 0
10, 116520, Note_on_c, 10, 78, 77
10, 116539, Note_on_c, 10, 72, 0
10, 116580, Note_on_c, 10, 79, 75
10, 116599, Note_on_c, 10, 78, 0
10, 116603, Note_on_c, 10, 79, 0
10, 116640, Note_on_c, 10, 74, 74
10, 116700, Note_on_c, 10, 75, 75
10, 116719, Note_on_c, 10, 74, 0
10, 116760, Note_on_c, 10, 81, 76
10, 116779, Note_on_c, 10, 75, 0
10, 116820, Note_on_c, 10, 82, 77
10, 116839, Note_on_c, 10, 81, 0
10, 116843, Note_on_c, 10, 82, 0
10, 116880, Note_on_c, 10, 77, 79
10, 116940, Note_on_c, 10, 79, 80
10, 116959, Note_on_c, 10, 77, 0
10, 116964, Note_on_c, 10, 79, 0
10, 117000, Note_on_c, 10, 75, 81
10, 117060, Note_on_c, 10, 72, 82
10, 117079, Note_on_c, 10, 75, 0
10, 117083, Note_on_c, 10, 72, 0
10, 117120, Note_on_c, 10, 65, 78
10, 117120, Note_on_c, 10, 74, 78
10, 117600, Note_on_c, 10, 74, 0
10, 117600, Note_on_c, 10, 65, 0
10, 134400, Note_on_c, 10, 70, 95
10, 134700, Note_on_c, 10, 74, 56
10, 134704, Note_on_c, 10, 70, 0
10, 134760, Note_on_c, 10, 77, 60
10, 134780, Note_on_c, 10, 74, 0
10, 134820, Note_on_c, 10, 75, 65
10, 134840, Note_on_c, 10, 77, 0
10, 134850, Note_on_c, 10, 75, 0
10, 134880, Note_on_c, 10, 75, 69
10, 134940, Note_on_c, 10, 74, 69
10, 134960, Note_on_c, 10, 75, 0
10, 134970, Note_on_c, 10, 74, 0
10, 135000, Note_on_c, 10, 74, 66
10, 135060, Note_on_c, 10, 72, 57
10, 135080, Note_on_c, 10, 74, 0
10, 135090, Note_on_c, 10, 72, 0
10, 135120, Note_on_c, 10, 72, 57
10, 135180, Note_on_c, 10, 70, 60
10, 135200, Note_on_c, 10, 72, 0
10, 135210, Note_on_c, 10, 70, 0
10, 135240, Note_on_c, 10, 70, 65
10, 135300, Note_on_c, 10, 69, 74
10, 135320, Note_on_c, 10, 70, 0
10, 135330, Note_on_c, 10, 69, 0
10, 135360, Note_on_c, 10, 67, 88
10, 135660, Note_on_c, 10, 75, 60
10, 135692, Note_on_c, 10, 67, 0
10, 135720, Note_on_c, 10, 79, 65
10, 135740, Note_on_c, 10, 75, 0
10, 135780, Note_on_c, 10, 77, 65
10, 135800, Note_on_c, 10, 79, 0
10, 135810, Note_on_c, 10, 77, 0
10, 135840, Note_on_c, 10, 77, 69
10, 135900, Note_on_c, 10, 75, 68
10, 135920, Note_on_c, 10, 77, 0
10, 135930, Note_on_c, 10, 75, 0
10, 135960, Note_on_c, 10, 75, 66
10, 136020, Note_on_c, 10, 74, 64
10, 136040, Note_on_c, 10, 75, 0
10, 136050, Note_on_c, 10, 74, 0
10, 136080, Note_on_c, 10, 74, 64
10, 136140, Note_on_c, 10, 72, 60
10, 136160, Note_on_c, 10, 74, 0
10, 136170, Note_on_c, 10, 72, 0
10, 136200, Note_on_c, 10, 72, 61
10, 136260, Note_on_c, 10, 70, 65
10, 136280, Note_on_c, 10, 72, 0
10, 136290, Note_on_c, 10, 70, 0
10, 136320, Note_on_c, 10, 69, 70
10, 136380, Note_on_c, 10, 69, 0
10, 136380, Note_on_c, 10, 77, 79
10, 136440, Note_on_c, 10, 76, 83
10, 136460, Note_on_c, 10, 77, 0
10, 136500, Note_on_c, 10, 77, 87
10, 136520, Note_on_c, 10, 76, 0
10, 136530, Note_on_c, 10, 77, 0
10, 136560, Note_on_c, 10, 70, 87
10, 136620, Note_on_c, 10, 70, 0
10, 136620, Note_on_c, 10, 82, 87
10, 136680, Note_on_c, 10, 81, 87
10, 136700, Note_on_c, 10, 82, 0
10, 136740, Note_on_c, 10, 82, 84
10, 136760, Note_on_c, 10, 81, 0
10, 136770, Note_on_c, 10, 82, 0
10, 136800, Note_on_c, 10, 78, 84
10, 136860, Note_on_c, 10, 79, 82
10, 136880, Note_on_c, 10, 78, 0
10, 136900, Note_on_c, 10, 79, 0
10, 136920, Note_on_c, 10, 75, 77
10, 136980, Note_on_c, 10, 72, 81
10, 137000, Note_on_c, 10, 75, 0
10, 137010, Note_on_c, 10, 72, 0
10, 137040, Note_on_c, 10, 75, 81
10, 137100, Note_on_c, 10, 72, 83
10, 137120, Note_on_c, 10, 75, 0
10, 137130, Note_on_c, 10, 72, 0
10, 137160, Note_on_c, 10, 75, 83
10, 137220, Note_on_c, 10, 72, 87
10, 137240, Note_on_c, 10, 75, 0
10, 137250, Note_on_c, 10, 72, 0
10, 137280, Note_on_c, 10, 74, 88
10, 137400, Note_on_c, 10, 70, 87
10, 137428, Note_on_c, 10, 74, 0
10, 137492, Note_on_c, 10, 70, 0
10, 137640, Note_on_c, 10, 65, 75
10, 137687, Note_on_c, 10, 65, 0
10, 137880, Note_on_c, 10, 60, 75
10, 137927, Note_on_c, 10, 60, 0
10, 138120, Note_on_c, 10, 63, 75
10, 138167, Note_on_c, 10, 63, 0
10, 138240, Note_on_c, 10, 63, 75
10, 138720, Note_on_c, 10, 62, 75
10, 138752, Note_on_c, 10, 63, 0
10, 138816, Note_on_c, 10, 62, 0
10, 138816, End_track
11, 0, Start_track
11, 0, Title_t, "Violin II"
11, 0, Control_c, 11, 0, 0
11, 0, Control_c, 11, 32, 1
11, 0, Program_c, 11, 48
11, 0, Control_c, 11, 7, 95
11, 0, Control_c, 11, 10, 100
11, 0, Control_c, 11, 91, 70
11, 0, Control_c, 11, 93, 82
11, 0, Note_on_c, 11, 62, 62
11, 360, Note_on_c, 11, 60, 62
11, 408, Note_on_c, 11, 62, 0
11, 480, Note_on_c, 11, 58, 62
11, 524, Note_on_c, 11, 60, 0
11, 576, Note_on_c, 11, 58, 0
11, 720, Note_on_c, 11, 60, 62
11, 816, Note_on_c, 11, 60, 0
11, 960, Note_on_c, 11, 58, 62
11, 1200, Note_on_c, 11, 58, 0
11, 1200, Note_on_c, 11, 70, 62
11, 1668, Note_on_c, 11, 70, 0
11, 1680, Note_on_c, 11, 70, 62
11, 1908, Note_on_c, 11, 70, 0
11, 1920, Note_on_c, 11, 69, 75
11, 2040, Note_on_c, 11, 72, 79
11, 2065, Note_on_c, 11, 69, 0
11, 2160, Note_on_c, 11, 70, 83
11, 2185, Note_on_c, 11, 72, 0
11, 2280, Note_on_c, 11, 69, 88
11, 2305, Note_on_c, 11, 70, 0
11, 2364, Note_on_c, 11, 69, 0
11, 2400, Note_on_c, 11, 75, 88
11, 2520, Note_on_c, 11, 74, 88
11, 2545, Note_on_c, 11, 75, 0
11, 2567, Note_on_c, 11, 74, 0
11, 2640, Note_on_c, 11, 74, 88
11, 2760, Note_on_c, 11, 72, 88
11, 2785, Note_on_c, 11, 74, 0
11, 2807, Note_on_c, 11, 72, 0
11, 2880, Note_on_c, 11, 72, 88
11, 3000, Note_on_c, 11, 70, 88
11, 3025, Note_on_c, 11, 72, 0
11, 3047, Note_on_c, 11, 70, 0
11, 3120, Note_on_c, 11, 75, 89
11, 3240, Note_on_c, 11, 74, 85
11, 3265, Note_on_c, 11, 75, 0
11, 3287, Note_on_c, 11, 74, 0
11, 3360, Note_on_c, 11, 74, 80
11, 3960, Note_on_c, 11, 74, 0
11, 3960, Note_on_c, 11, 76, 62
11, 4080, Note_on_c, 11, 77, 62
11, 4105, Note_on_c, 11, 76, 0
11, 4200, Note_on_c, 11, 73, 62
11, 4225, Note_on_c, 11, 77, 0
11, 4320, Note_on_c, 11, 74, 62
11, 4345, Note_on_c, 11, 73, 0
11, 4440, Note_on_c, 11, 69, 62
11, 4465, Note_on_c, 11, 74, 0
11, 4560, Note_on_c, 11, 70, 62
11, 4585, Note_on_c, 11, 69, 0
11, 4680, Note_on_c, 11, 63, 62
11, 4705, Note_on_c, 11, 70, 0
11, 4780, Note_on_c, 11, 63, 0
11, 4800, Note_on_c, 11, 62, 62
11, 5040, Note_on_c, 11, 62, 0
11, 5280, Note_on_c, 11, 62, 74
11, 5400, Note_on_c, 11, 65, 74
11, 5425, Note_on_c, 11, 62, 0
11, 5520, Note_on_c, 11, 63, 75
11, 5545, Note_on_c, 11, 65, 0
11, 5640, Note_on_c, 11, 62, 75
11, 5665, Note_on_c, 11, 63, 0
11, 5760, Note_on_c, 11, 62, 0
11, 5760, Note_on_c, 11, 62, 76
11, 5880, Note_on_c, 11, 63, 76
11, 5905, Note_on_c, 11, 62, 0
11, 5927, Note_on_c, 11, 63, 0
11, 6000, Note_on_c, 11, 63, 77
11, 6047, Note_on_c, 11, 63, 0
11, 6120, Note_on_c, 11, 63, 77
11, 6167, Note_on_c, 11, 63, 0
11, 6240, Note_on_c, 11, 63, 62
11, 6360, Note_on_c, 11, 62, 62
11, 6385, Note_on_c, 11, 63, 0
11, 6480, Note_on_c, 11, 60, 62
11, 6522, Note_on_c, 11, 62, 0
11, 6600, Note_on_c, 11, 59, 62
11, 6625, Note_on_c, 11, 60, 0
11, 6710, Note_on_c, 11, 59, 0
11, 6720, Note_on_c, 11, 59, 62
11, 6840, Note_on_c, 11, 60, 62
11, 6865, Note_on_c, 11, 59, 0
11, 6887, Note_on_c, 11, 60, 0
11, 6960, Note_on_c, 11, 60, 62
11, 7007, Note_on_c, 11, 60, 0
11, 7080, Note_on_c, 11, 60, 62
11, 7127, Note_on_c, 11, 60, 0
11, 7200, Note_on_c, 11, 63, 80
11, 7320, Note_on_c, 11, 65, 80
11, 7345, Note_on_c, 11, 63, 0
11, 7440, Note_on_c, 11, 67, 80
11, 7465, Note_on_c, 11, 65, 0
11, 7560, Note_on_c, 11, 68, 80
11, 7585, Note_on_c, 11, 67, 0
11, 7680, Note_on_c, 11, 68, 0
11, 7680, Note_on_c, 11, 67, 80
11, 7920, Note_on_c, 11, 67, 0
11, 7920, Note_on_c, 11, 59, 80
11, 8040, Note_on_c, 11, 60, 80
11, 8065, Note_on_c, 11, 59, 0
11, 8087, Note_on_c, 11, 60, 0
11, 8160, Note_on_c, 11, 62, 80
11, 8280, Note_on_c, 11, 63, 80
11, 8305, Note_on_c, 11, 62, 0
11, 8327, Note_on_c, 11, 63, 0
11, 8400, Note_on_c, 11, 67, 80
11, 8520, Note_on_c, 11, 63, 80
11, 8545, Note_on_c, 11, 67, 0
11, 8567, Note_on_c, 11, 63, 0
11, 8640, Note_on_c, 11, 62, 80
11, 9120, Note_on_c, 11, 60, 80
11, 9162, Note_on_c, 11, 62, 0
11, 9360, Note_on_c, 11, 60, 0
11, 9600, Note_on_c, 11, 63, 67
11, 9660, Note_on_c, 11, 65, 67
11, 9677, Note_on_c, 11, 63, 0
11, 9720, Note_on_c, 11, 64, 67
11, 9737, Note_on_c, 11, 65, 0
11, 9780, Note_on_c, 11, 65, 67
11, 9797, Note_on_c, 11, 64, 0
11, 9840, Note_on_c, 11, 67, 67
11, 9857, Note_on_c, 11, 65, 0
11, 9900, Note_on_c, 11, 65, 67
11, 9917, Note_on_c, 11, 67, 0
11, 9960, Note_on_c, 11, 64, 63
11, 9977, Note_on_c, 11, 65, 0
11, 10020, Note_on_c, 11, 65, 59
11, 10037, Note_on_c, 11, 64, 0
11, 10080, Note_on_c, 11, 65, 0
11, 10080, Note_on_c, 11, 57, 58
11, 10140, Note_on_c, 11, 65, 58
11, 10157, Note_on_c, 11, 57, 0
11, 10200, Note_on_c, 11, 64, 58
11, 10217, Note_on_c, 11, 65, 0
11, 10260, Note_on_c, 11, 65, 58
11, 10277, Note_on_c, 11, 64, 0
11, 10320, Note_on_c, 11, 67, 58
11, 10337, Note_on_c, 11, 65, 0
11, 10380, Note_on_c, 11, 65, 62
11, 10397, Note_on_c, 11, 67, 0
11, 10440, Note_on_c, 11, 64, 66
11, 10457, Note_on_c, 11, 65, 0
11, 10500, Note_on_c, 11, 65, 66
11, 10517, Note_on_c, 11, 64, 0
11, 10560, Note_on_c, 11, 65, 0
11, 10560, Note_on_c, 11, 58, 79
11, 10620, Note_on_c, 11, 65, 79
11, 10637, Note_on_c, 11, 58, 0
11, 10680, Note_on_c, 11, 64, 79
11, 10697, Note_on_c, 11, 65, 0
11, 10740, Note_on_c, 11, 65, 79
11, 10757, Note_on_c, 11, 64, 0
11, 10800, Note_on_c, 11, 70, 79
11, 10817, Note_on_c, 11, 65, 0
11, 10860, Note_on_c, 11, 65, 84
11, 10877, Note_on_c, 11, 70, 0
11, 10920, Note_on_c, 11, 64, 84
11, 10937, Note_on_c, 11, 65, 0
11, 10980, Note_on_c, 11, 65, 84
11, 10997, Note_on_c, 11, 64, 0
11, 11040, Note_on_c, 11, 65, 0
11, 11040, Note_on_c, 11, 69, 84
11, 11100, Note_on_c, 11, 65, 84
11, 11117, Note_on_c, 11, 69, 0
11, 11160, Note_on_c, 11, 64, 84
11, 11177, Note_on_c, 11, 65, 0
11, 11220, Note_on_c, 11, 65, 80
11, 11237, Note_on_c, 11, 64, 0
11, 11280, Note_on_c, 11, 63, 62
11, 11297, Note_on_c, 11, 65, 0
11, 11340, Note_on_c, 11, 65, 69
11, 11357, Note_on_c, 11, 63, 0
11, 11400, Note_on_c, 11, 60, 69
11, 11417, Note_on_c, 11, 65, 0
11, 11460, Note_on_c, 11, 65, 69
11, 11477, Note_on_c, 11, 60, 0
11, 11520, Note_on_c, 11, 65, 0
11, 11520, Note_on_c, 11, 62, 65
11, 11580, Note_on_c, 11, 65, 59
11, 11597, Note_on_c, 11, 62, 0
11, 11640, Note_on_c, 11, 64, 59
11, 11657, Note_on_c, 11, 65, 0
11, 11700, Note_on_c, 11, 65, 54
11, 11717, Note_on_c, 11, 64, 0
11, 11760, Note_on_c, 11, 67, 54
11, 11777, Note_on_c, 11, 65, 0
11, 11820, Note_on_c, 11, 65, 54
11, 11837, Note_on_c, 11, 67, 0
11, 11880, Note_on_c, 11, 64, 54
11, 11897, Note_on_c, 11, 65, 0
11, 11940, Note_on_c, 11, 65, 58
11, 11957, Note_on_c, 11, 64, 0
11, 11963, Note_on_c, 11, 65, 0
11, 12000, Note_on_c, 11, 57, 58
11, 12060, Note_on_c, 11, 65, 62
11, 12077, Note_on_c, 11, 57, 0
11, 12120, Note_on_c, 11, 64, 62
11, 12137, Note_on_c, 11, 65, 0
11, 12180, Note_on_c, 11, 65, 66
11, 12197, Note_on_c, 11, 64, 0
11, 12240, Note_on_c, 11, 67, 66
11, 12257, Note_on_c, 11, 65, 0
11, 12300, Note_on_c, 11, 65, 66
11, 12317, Note_on_c, 11, 67, 0
11, 12360, Note_on_c, 11, 64, 66
11, 12377, Note_on_c, 11, 65, 0
11, 12420, Note_on_c, 11, 65, 62
11, 12437, Note_on_c, 11, 64, 0
11, 12443, Note_on_c, 11, 65, 0
11, 12480, Note_on_c, 11, 58, 81
11, 12540, Note_on_c, 11, 65, 81
11, 12557, Note_on_c, 11, 58, 0
11, 12600, Note_on_c, 11, 64, 85
11, 12617, Note_on_c, 11, 65, 0
11, 12660, Note_on_c, 11, 65, 82
11, 12677, Note_on_c, 11, 64, 0
11, 12720, Note_on_c, 11, 70, 82
11, 12737, Note_on_c, 11, 65, 0
11, 12780, Note_on_c, 11, 65, 82
11, 12797, Note_on_c, 11, 70, 0
11, 12840, Note_on_c, 11, 64, 82
11, 12857, Note_on_c, 11, 65, 0
11, 12900, Note_on_c, 11, 65, 80
11, 12917, Note_on_c, 11, 64, 0
11, 12960, Note_on_c, 11, 69, 79
11, 12977, Note_on_c, 11, 65, 0
11, 13056, Note_on_c, 11, 69, 0
11, 13440, Note_on_c, 11, 58, 62
11, 13560, Note_on_c, 11, 59, 62
11, 13592, Note_on_c, 11, 58, 0
11, 13680, Note_on_c, 11, 60, 62
11, 13712, Note_on_c, 11, 59, 0
11, 13800, Note_on_c, 11, 61, 62
11, 13832, Note_on_c, 11, 60, 0
11, 13920, Note_on_c, 11, 62, 62
11, 13952, Note_on_c, 11, 61, 0
11, 14040, Note_on_c, 11, 63, 62
11, 14072, Note_on_c, 11, 62, 0
11, 14160, Note_on_c, 11, 64, 62
11, 14192, Note_on_c, 11, 63, 0
11, 14280, Note_on_c, 11, 65, 62
11, 14312, Note_on_c, 11, 64, 0
11, 14368, Note_on_c, 11, 65, 0
11, 14400, Note_on_c, 11, 66, 80
11, 14520, Note_on_c, 11, 67, 88
11, 14564, Note_on_c, 11, 66, 0
11, 14604, Note_on_c, 11, 67, 0
11, 14640, Note_on_c, 11, 67, 77
11, 14736, Note_on_c, 11, 67, 0
11, 15360, Note_on_c, 11, 64, 62
11, 15480, Note_on_c, 11, 65, 62
11, 15504, Note_on_c, 11, 64, 0
11, 15580, Note_on_c, 11, 65, 0
11, 15600, Note_on_c, 11, 65, 62
11, 15647, Note_on_c, 11, 65, 0
11, 15720, Note_on_c, 11, 65, 62
11, 15767, Note_on_c, 11, 65, 0
11, 15840, Note_on_c, 11, 62, 62
11, 15960, Note_on_c, 11, 63, 62
11, 16012, Note_on_c, 11, 62, 0
11, 16052, Note_on_c, 11, 63, 0
11, 16080, Note_on_c, 11, 63, 62
11, 16127, Note_on_c, 11, 63, 0
11, 16200, Note_on_c, 11, 63, 62
11, 16247, Note_on_c, 11, 63, 0
11, 16320, Note_on_c, 11, 61, 62
11, 16440, Note_on_c, 11, 62, 62
11, 16500, Note_on_c, 11, 61, 0
11, 16540, Note_on_c, 11, 62, 0
11, 16560, Note_on_c, 11, 62, 62
11, 16607, Note_on_c, 11, 62, 0
11, 16680, Note_on_c, 11, 62, 62
11, 16727, Note_on_c, 11, 62, 0
11, 16920, Note_on_c, 11, 71, 88
11, 17040, Note_on_c, 11, 71, 0
11, 17040, Note_on_c, 11, 71, 88
11, 17160, Note_on_c, 11, 71, 0
11, 17160, Note_on_c, 11, 71, 88
11, 17280, Note_on_c, 11, 71, 0
11, 17280, Note_on_c, 11, 72, 88
11, 17520, Note_on_c, 11, 72, 0
11, 17520, Note_on_c, 11, 67, 88
11, 17760, Note_on_c, 11, 67, 0
11, 17760, Note_on_c, 11, 62, 79
11, 17820, Note_on_c, 11, 65, 83
11, 17837, Note_on_c, 11, 62, 0
11, 17880, Note_on_c, 11, 63, 87
11, 17897, Note_on_c, 11, 65, 0
11, 17940, Note_on_c, 11, 62, 92
11, 17957, Note_on_c, 11, 63, 0
11, 17963, Note_on_c, 11, 62, 0
11, 18000, Note_on_c, 11, 60, 84
11, 18060, Note_on_c, 11, 63, 82
11, 18077, Note_on_c, 11, 60, 0
11, 18120, Note_on_c, 11, 62, 82
11, 18137, Note_on_c, 11, 63, 0
11, 18180, Note_on_c, 11, 60, 82
11, 18197, Note_on_c, 11, 62, 0
11, 18203, Note_on_c, 11, 60, 0
11, 18240, Note_on_c, 11, 62, 0
11, 18240, Note_on_c, 11, 62, 0
11, 18240, Note_on_c, 11, 62, 0
11, 18240, Note_on_c, 11, 62, 0
11, 18240, Note_on_c, 11, 62, 0
11, 18240, Note_on_c, 11, 62, 0
11, 18240, Note_on_c, 11, 62, 0
11, 18240, Note_on_c, 11, 62, 0
11, 18263, Note_on_c, 11, 62, 0
11, 18263, Note_on_c, 11, 62, 0
11, 18263, Note_on_c, 11, 62, 0
11, 18263, Note_on_c, 11, 62, 0
11, 18263, Note_on_c, 11, 62, 0
11, 18263, Note_on_c, 11, 62, 0
11, 18263, Note_on_c, 11, 62, 0
11, 18263, Note_on_c, 11, 62, 0
11, 18300, Note_on_c, 11, 65, 68
11, 18323, Note_on_c, 11, 65, 0
11, 18360, Note_on_c, 11, 70, 68
11, 18383, Note_on_c, 11, 70, 0
11, 18420, Note_on_c, 11, 65, 72
11, 18443, Note_on_c, 11, 65, 0
11, 18480, Note_on_c, 11, 74, 72
11, 18503, Note_on_c, 11, 74, 0
11, 18540, Note_on_c, 11, 65, 69
11, 18563, Note_on_c, 11, 65, 0
11, 18600, Note_on_c, 11, 70, 64
11, 18623, Note_on_c, 11, 70, 0
11, 18660, Note_on_c, 11, 65, 60
11, 18683, Note_on_c, 11, 65, 0
11, 18720, Note_on_c, 11, 75, 68
11, 18743, Note_on_c, 11, 75, 0
11, 18780, Note_on_c, 11, 65, 72
11, 18803, Note_on_c, 11, 65, 0
11, 18840, Note_on_c, 11, 69, 72
11, 18863, Note_on_c, 11, 69, 0
11, 18900, Note_on_c, 11, 65, 72
11, 18923, Note_on_c, 11, 65, 0
11, 18960, Note_on_c, 11, 60, 72
11, 18983, Note_on_c, 11, 60, 0
11, 19020, Note_on_c, 11, 65, 69
11, 19043, Note_on_c, 11, 65, 0
11, 19080, Note_on_c, 11, 69, 64
11, 19103, Note_on_c, 11, 69, 0
11, 19140, Note_on_c, 11, 65, 60
11, 19163, Note_on_c, 11, 65, 0
11, 19200, Note_on_c, 11, 63, 60
11, 19223, Note_on_c, 11, 63, 0
11, 19260, Note_on_c, 11, 65, 68
11, 19283, Note_on_c, 11, 65, 0
11, 19320, Note_on_c, 11, 70, 68
11, 19343, Note_on_c, 11, 70, 0
11, 19380, Note_on_c, 11, 65, 68
11, 19403, Note_on_c, 11, 65, 0
11, 19440, Note_on_c, 11, 74, 72
11, 19463, Note_on_c, 11, 74, 0
11, 19500, Note_on_c, 11, 65, 72
11, 19523, Note_on_c, 11, 65, 0
11, 19560, Note_on_c, 11, 70, 72
11, 19583, Note_on_c, 11, 70, 0
11, 19620, Note_on_c, 11, 65, 72
11, 19643, Note_on_c, 11, 65, 0
11, 19680, Note_on_c, 11, 75, 68
11, 19703, Note_on_c, 11, 75, 0
11, 19740, Note_on_c, 11, 65, 68
11, 19763, Note_on_c, 11, 65, 0
11, 19800, Note_on_c, 11, 69, 63
11, 19823, Note_on_c, 11, 69, 0
11, 19860, Note_on_c, 11, 65, 63
11, 19883, Note_on_c, 11, 65, 0
11, 19920, Note_on_c, 11, 60, 71
11, 19943, Note_on_c, 11, 60, 0
11, 19980, Note_on_c, 11, 65, 71
11, 20003, Note_on_c, 11, 65, 0
11, 20040, Note_on_c, 11, 69, 71
11, 20063, Note_on_c, 11, 69, 0
11, 20100, Note_on_c, 11, 65, 62
11, 20123, Note_on_c, 11, 65, 0
11, 20160, Note_on_c, 11, 65, 90
11, 20220, Note_on_c, 11, 65, 0
11, 20220, Note_on_c, 11, 70, 86
11, 20280, Note_on_c, 11, 69, 90
11, 20297, Note_on_c, 11, 70, 0
11, 20340, Note_on_c, 11, 67, 90
11, 20357, Note_on_c, 11, 69, 0
11, 20400, Note_on_c, 11, 66, 90
11, 20417, Note_on_c, 11, 67, 0
11, 20460, Note_on_c, 11, 67, 88
11, 20477, Note_on_c, 11, 66, 0
11, 20520, Note_on_c, 11, 65, 82
11, 20537, Note_on_c, 11, 67, 0
11, 20580, Note_on_c, 11, 63, 78
11, 20597, Note_on_c, 11, 65, 0
11, 20603, Note_on_c, 11, 63, 0
11, 20640, Note_on_c, 11, 62, 91
11, 20700, Note_on_c, 11, 63, 91
11, 20717, Note_on_c, 11, 62, 0
11, 20760, Note_on_c, 11, 62, 91
11, 20777, Note_on_c, 11, 63, 0
11, 20820, Note_on_c, 11, 60, 84
11, 20837, Note_on_c, 11, 62, 0
11, 20843, Note_on_c, 11, 60, 0
11, 20880, Note_on_c, 11, 58, 79
11, 20940, Note_on_c, 11, 60, 79
11, 20957, Note_on_c, 11, 58, 0
11, 21000, Note_on_c, 11, 58, 79
11, 21017, Note_on_c, 11, 60, 0
11, 21060, Note_on_c, 11, 57, 79
11, 21077, Note_on_c, 11, 58, 0
11, 21083, Note_on_c, 11, 57, 0
11, 21120, Note_on_c, 11, 58, 75
11, 21240, Note_on_c, 11, 62, 88
11, 21278, Note_on_c, 11, 58, 0
11, 21330, Note_on_c, 11, 62, 0
11, 21480, Note_on_c, 11, 62, 62
11, 21527, Note_on_c, 11, 62, 0
11, 21720, Note_on_c, 11, 57, 62
11, 21767, Note_on_c, 11, 57, 0
11, 21960, Note_on_c, 11, 60, 62
11, 22007, Note_on_c, 11, 60, 0
11, 22080, Note_on_c, 11, 60, 62
11, 22560, Note_on_c, 11, 58, 52
11, 22602, Note_on_c, 11, 60, 0
11, 22700, Note_on_c, 11, 58, 0
11, 34560, Note_on_c, 11, 65, 44
11, 34632, Note_on_c, 11, 65, 0
11, 34680, Note_on_c, 11, 65, 44
11, 34752, Note_on_c, 11, 65, 0
11, 34800, Note_on_c, 11, 65, 44
11, 34872, Note_on_c, 11, 65, 0
11, 34920, Note_on_c, 11, 65, 44
11, 34992, Note_on_c, 11, 65, 0
11, 35040, Note_on_c, 11, 65, 44
11, 35112, Note_on_c, 11, 65, 0
11, 35160, Note_on_c, 11, 65, 44
11, 35232, Note_on_c, 11, 65, 0
11, 35280, Note_on_c, 11, 65, 44
11, 35352, Note_on_c, 11, 65, 0
11, 35400, Note_on_c, 11, 65, 44
11, 35472, Note_on_c, 11, 65, 0
11, 35520, Note_on_c, 11, 67, 44
11, 35592, Note_on_c, 11, 67, 0
11, 35640, Note_on_c, 11, 67, 44
11, 35712, Note_on_c, 11, 67, 0
11, 35760, Note_on_c, 11, 67, 44
11, 35832, Note_on_c, 11, 67, 0
11, 35880, Note_on_c, 11, 67, 44
11, 35952, Note_on_c, 11, 67, 0
11, 36000, Note_on_c, 11, 67, 44
11, 36072, Note_on_c, 11, 67, 0
11, 36120, Note_on_c, 11, 67, 44
11, 36192, Note_on_c, 11, 67, 0
11, 36240, Note_on_c, 11, 67, 44
11, 36312, Note_on_c, 11, 67, 0
11, 36360, Note_on_c, 11, 67, 44
11, 36407, Note_on_c, 11, 67, 0
11, 36480, Note_on_c, 11, 67, 44
11, 36558, Note_on_c, 11, 67, 0
11, 36600, Note_on_c, 11, 67, 44
11, 36678, Note_on_c, 11, 67, 0
11, 36720, Note_on_c, 11, 67, 44
11, 36798, Note_on_c, 11, 67, 0
11, 36840, Note_on_c, 11, 67, 44
11, 36918, Note_on_c, 11, 67, 0
11, 36960, Note_on_c, 11, 67, 44
11, 37038, Note_on_c, 11, 67, 0
11, 37080, Note_on_c, 11, 67, 44
11, 37158, Note_on_c, 11, 67, 0
11, 37200, Note_on_c, 11, 67, 44
11, 37278, Note_on_c, 11, 67, 0
11, 37320, Note_on_c, 11, 67, 44
11, 37398, Note_on_c, 11, 67, 0
11, 37440, Note_on_c, 11, 65, 44
11, 37518, Note_on_c, 11, 65, 0
11, 37560, Note_on_c, 11, 65, 44
11, 37638, Note_on_c, 11, 65, 0
11, 37680, Note_on_c, 11, 65, 44
11, 37758, Note_on_c, 11, 65, 0
11, 37800, Note_on_c, 11, 65, 44
11, 37878, Note_on_c, 11, 65, 0
11, 37920, Note_on_c, 11, 65, 44
11, 37998, Note_on_c, 11, 65, 0
11, 38040, Note_on_c, 11, 65, 44
11, 38118, Note_on_c, 11, 65, 0
11, 38160, Note_on_c, 11, 65, 44
11, 38238, Note_on_c, 11, 65, 0
11, 38280, Note_on_c, 11, 65, 44
11, 38358, Note_on_c, 11, 65, 0
11, 38400, Note_on_c, 11, 65, 44
11, 38478, Note_on_c, 11, 65, 0
11, 38520, Note_on_c, 11, 65, 44
11, 38598, Note_on_c, 11, 65, 0
11, 38640, Note_on_c, 11, 65, 44
11, 38718, Note_on_c, 11, 65, 0
11, 38760, Note_on_c, 11, 65, 44
11, 38838, Note_on_c, 11, 65, 0
11, 38880, Note_on_c, 11, 70, 44
11, 38958, Note_on_c, 11, 70, 0
11, 39000, Note_on_c, 11, 70, 44
11, 39078, Note_on_c, 11, 70, 0
11, 39120, Note_on_c, 11, 69, 44
11, 39198, Note_on_c, 11, 69, 0
11, 39240, Note_on_c, 11, 69, 44
11, 39318, Note_on_c, 11, 69, 0
11, 39360, Note_on_c, 11, 67, 44
11, 39438, Note_on_c, 11, 67, 0
11, 39480, Note_on_c, 11, 67, 44
11, 39558, Note_on_c, 11, 67, 0
11, 39600, Note_on_c, 11, 67, 44
11, 39678, Note_on_c, 11, 67, 0
11, 39720, Note_on_c, 11, 67, 44
11, 39798, Note_on_c, 11, 67, 0
11, 39840, Note_on_c, 11, 67, 44
11, 39918, Note_on_c, 11, 67, 0
11, 39960, Note_on_c, 11, 67, 44
11, 40038, Note_on_c, 11, 67, 0
11, 40080, Note_on_c, 11, 60, 44
11, 40158, Note_on_c, 11, 60, 0
11, 40200, Note_on_c, 11, 60, 44
11, 40278, Note_on_c, 11, 60, 0
11, 40320, Note_on_c, 11, 62, 44
11, 40398, Note_on_c, 11, 62, 0
11, 40440, Note_on_c, 11, 62, 44
11, 40518, Note_on_c, 11, 62, 0
11, 40560, Note_on_c, 11, 62, 44
11, 40638, Note_on_c, 11, 62, 0
11, 40680, Note_on_c, 11, 62, 44
11, 40758, Note_on_c, 11, 62, 0
11, 40800, Note_on_c, 11, 62, 44
11, 40878, Note_on_c, 11, 62, 0
11, 40920, Note_on_c, 11, 62, 44
11, 40998, Note_on_c, 11, 62, 0
11, 41040, Note_on_c, 11, 67, 44
11, 41118, Note_on_c, 11, 67, 0
11, 41160, Note_on_c, 11, 67, 45
11, 41238, Note_on_c, 11, 67, 0
11, 41280, Note_on_c, 11, 65, 58
11, 41760, Note_on_c, 11, 64, 50
11, 41820, Note_on_c, 11, 65, 0
11, 41880, Note_on_c, 11, 64, 0
11, 43200, Note_on_c, 11, 72, 58
11, 43440, Note_on_c, 11, 77, 73
11, 43478, Note_on_c, 11, 72, 0
11, 43680, Note_on_c, 11, 76, 55
11, 43726, Note_on_c, 11, 77, 0
11, 43800, Note_on_c, 11, 76, 0
11, 45120, Note_on_c, 11, 60, 58
11, 45360, Note_on_c, 11, 65, 66
11, 45390, Note_on_c, 11, 60, 0
11, 45600, Note_on_c, 11, 64, 52
11, 45622, Note_on_c, 11, 65, 0
11, 45720, Note_on_c, 11, 64, 0
11, 51000, Note_on_c, 11, 72, 52
11, 51120, Note_on_c, 11, 69, 54
11, 51148, Note_on_c, 11, 72, 0
11, 51240, Note_on_c, 11, 65, 57
11, 51268, Note_on_c, 11, 69, 0
11, 51322, Note_on_c, 11, 65, 0
11, 51360, Note_on_c, 11, 64, 59
11, 51480, Note_on_c, 11, 70, 61
11, 51516, Note_on_c, 11, 64, 0
11, 51600, Note_on_c, 11, 67, 57
11, 51636, Note_on_c, 11, 70, 0
11, 51720, Note_on_c, 11, 64, 54
11, 51756, Note_on_c, 11, 67, 0
11, 51802, Note_on_c, 11, 64, 0
11, 51840, Note_on_c, 11, 65, 53
11, 51960, Note_on_c, 11, 72, 57
11, 51996, Note_on_c, 11, 65, 0
11, 52080, Note_on_c, 11, 69, 60
11, 52116, Note_on_c, 11, 72, 0
11, 52200, Note_on_c, 11, 65, 64
11, 52236, Note_on_c, 11, 69, 0
11, 52298, Note_on_c, 11, 65, 0
11, 52320, Note_on_c, 11, 64, 66
11, 52440, Note_on_c, 11, 70, 62
11, 52476, Note_on_c, 11, 64, 0
11, 52560, Note_on_c, 11, 67, 58
11, 52596, Note_on_c, 11, 70, 0
11, 52680, Note_on_c, 11, 64, 54
11, 52716, Note_on_c, 11, 67, 0
11, 52778, Note_on_c, 11, 64, 0
11, 53880, Note_on_c, 11, 65, 45
11, 53964, Note_on_c, 11, 65, 0
11, 54000, Note_on_c, 11, 65, 47
11, 54084, Note_on_c, 11, 65, 0
11, 54120, Note_on_c, 11, 65, 48
11, 54204, Note_on_c, 11, 65, 0
11, 54360, Note_on_c, 11, 67, 40
11, 54444, Note_on_c, 11, 67, 0
11, 54480, Note_on_c, 11, 67, 42
11, 54564, Note_on_c, 11, 67, 0
11, 54600, Note_on_c, 11, 67, 44
11, 54684, Note_on_c, 11, 67, 0
11, 54720, Note_on_c, 11, 65, 46
11, 54816, Note_on_c, 11, 65, 0
11, 54960, Note_on_c, 11, 69, 48
11, 55056, Note_on_c, 11, 69, 0
11, 55440, Note_on_c, 11, 72, 48
11, 55536, Note_on_c, 11, 72, 0
11, 55920, Note_on_c, 11, 70, 48
11, 56016, Note_on_c, 11, 70, 0
11, 56640, Note_on_c, 11, 65, 48
11, 56880, Note_on_c, 11, 69, 48
11, 56906, Note_on_c, 11, 65, 0
11, 57120, Note_on_c, 11, 72, 47
11, 57146, Note_on_c, 11, 69, 0
11, 57360, Note_on_c, 11, 77, 47
11, 57386, Note_on_c, 11, 72, 0
11, 57588, Note_on_c, 11, 77, 0
11, 57600, Note_on_c, 11, 81, 47
11, 57840, Note_on_c, 11, 81, 0
11, 57840, Note_on_c, 11, 69, 47
11, 58080, Note_on_c, 11, 69, 0
11, 58320, Note_on_c, 11, 69, 47
11, 58560, Note_on_c, 11, 69, 0
11, 58800, Note_on_c, 11, 70, 47
11, 59040, Note_on_c, 11, 70, 0
11, 59280, Note_on_c, 11, 70, 47
11, 59520, Note_on_c, 11, 70, 0
11, 59520, Note_on_c, 11, 69, 75
11, 59820, Note_on_c, 11, 65, 75
11, 59836, Note_on_c, 11, 69, 0
11, 59880, Note_on_c, 11, 72, 83
11, 59897, Note_on_c, 11, 65, 0
11, 59940, Note_on_c, 11, 70, 73
11, 59957, Note_on_c, 11, 72, 0
11, 59970, Note_on_c, 11, 70, 0
11, 60000, Note_on_c, 11, 70, 70
11, 60060, Note_on_c, 11, 69, 66
11, 60077, Note_on_c, 11, 70, 0
11, 60090, Note_on_c, 11, 69, 0
11, 60120, Note_on_c, 11, 69, 62
11, 60180, Note_on_c, 11, 67, 65
11, 60197, Note_on_c, 11, 69, 0
11, 60210, Note_on_c, 11, 67, 0
11, 60240, Note_on_c, 11, 67, 67
11, 60300, Note_on_c, 11, 65, 68
11, 60317, Note_on_c, 11, 67, 0
11, 60330, Note_on_c, 11, 65, 0
11, 60360, Note_on_c, 11, 65, 71
11, 60420, Note_on_c, 11, 64, 72
11, 60437, Note_on_c, 11, 65, 0
11, 60450, Note_on_c, 11, 64, 0
11, 60480, Note_on_c, 11, 62, 75
11, 60780, Note_on_c, 11, 62, 0
11, 60780, Note_on_c, 11, 70, 75
11, 60840, Note_on_c, 11, 74, 81
11, 60857, Note_on_c, 11, 70, 0
11, 60900, Note_on_c, 11, 72, 71
11, 60917, Note_on_c, 11, 74, 0
11, 60930, Note_on_c, 11, 72, 0
11, 60960, Note_on_c, 11, 72, 62
11, 61020, Note_on_c, 11, 70, 66
11, 61037, Note_on_c, 11, 72, 0
11, 61050, Note_on_c, 11, 70, 0
11, 61080, Note_on_c, 11, 70, 68
11, 61140, Note_on_c, 11, 69, 71
11, 61157, Note_on_c, 11, 70, 0
11, 61170, Note_on_c, 11, 69, 0
11, 61200, Note_on_c, 11, 69, 69
11, 61260, Note_on_c, 11, 67, 67
11, 61277, Note_on_c, 11, 69, 0
11, 61290, Note_on_c, 11, 67, 0
11, 61320, Note_on_c, 11, 67, 66
11, 61380, Note_on_c, 11, 65, 71
11, 61397, Note_on_c, 11, 67, 0
11, 61410, Note_on_c, 11, 65, 0
11, 61440, Note_on_c, 11, 64, 77
11, 61680, Note_on_c, 11, 64, 0
11, 61680, Note_on_c, 11, 65, 77
11, 61800, Note_on_c, 11, 65, 0
11, 61800, Note_on_c, 11, 65, 81
11, 61920, Note_on_c, 11, 65, 0
11, 61920, Note_on_c, 11, 74, 76
11, 62160, Note_on_c, 11, 74, 0
11, 62160, Note_on_c, 11, 72, 74
11, 62280, Note_on_c, 11, 70, 84
11, 62296, Note_on_c, 11, 72, 0
11, 62388, Note_on_c, 11, 70, 0
11, 62400, Note_on_c, 11, 69, 61
11, 62880, Note_on_c, 11, 69, 0
11, 66480, Note_on_c, 11, 60, 62
11, 66720, Note_on_c, 11, 60, 0
11, 66960, Note_on_c, 11, 60, 62
11, 67200, Note_on_c, 11, 60, 0
11, 67440, Note_on_c, 11, 63, 62
11, 67680, Note_on_c, 11, 63, 0
11, 67920, Note_on_c, 11, 63, 62
11, 68160, Note_on_c, 11, 63, 0
11, 68400, Note_on_c, 11, 62, 62
11, 68640, Note_on_c, 11, 62, 0
11, 68880, Note_on_c, 11, 62, 62
11, 69120, Note_on_c, 11, 62, 0
11, 69360, Note_on_c, 11, 57, 62
11, 69600, Note_on_c, 11, 57, 0
11, 69840, Note_on_c, 11, 57, 62
11, 70080, Note_on_c, 11, 57, 0
11, 70320, Note_on_c, 11, 55, 62
11, 70560, Note_on_c, 11, 55, 0
11, 70800, Note_on_c, 11, 58, 62
11, 71040, Note_on_c, 11, 58, 0
11, 71280, Note_on_c, 11, 61, 78
11, 71520, Note_on_c, 11, 61, 0
11, 71760, Note_on_c, 11, 61, 62
11, 72000, Note_on_c, 11, 61, 0
11, 72240, Note_on_c, 11, 62, 62
11, 72480, Note_on_c, 11, 62, 0
11, 72720, Note_on_c, 11, 66, 62
11, 72960, Note_on_c, 11, 66, 0
11, 73200, Note_on_c, 11, 61, 78
11, 73440, Note_on_c, 11, 61, 0
11, 73680, Note_on_c, 11, 67, 72
11, 73920, Note_on_c, 11, 69, 62
11, 73944, Note_on_c, 11, 67, 0
11, 74160, Note_on_c, 11, 69, 0
11, 75360, Note_on_c, 11, 63, 69
11, 75360, Note_on_c, 11, 69, 69
11, 75840, Note_on_c, 11, 69, 0
11, 75840, Note_on_c, 11, 63, 0
11, 88320, Note_on_c, 11, 58, 58
11, 88404, Note_on_c, 11, 58, 0
11, 88440, Note_on_c, 11, 58, 58
11, 88524, Note_on_c, 11, 58, 0
11, 88560, Note_on_c, 11, 58, 58
11, 88644, Note_on_c, 11, 58, 0
11, 88680, Note_on_c, 11, 58, 58
11, 88764, Note_on_c, 11, 58, 0
11, 88800, Note_on_c, 11, 58, 58
11, 88884, Note_on_c, 11, 58, 0
11, 88920, Note_on_c, 11, 58, 58
11, 89004, Note_on_c, 11, 58, 0
11, 89040, Note_on_c, 11, 58, 58
11, 89124, Note_on_c, 11, 58, 0
11, 89160, Note_on_c, 11, 58, 58
11, 89244, Note_on_c, 11, 58, 0
11, 89280, Note_on_c, 11, 60, 58
11, 89364, Note_on_c, 11, 60, 0
11, 89400, Note_on_c, 11, 60, 58
11, 89484, Note_on_c, 11, 60, 0
11, 89520, Note_on_c, 11, 60, 58
11, 89604, Note_on_c, 11, 60, 0
11, 89640, Note_on_c, 11, 60, 58
11, 89724, Note_on_c, 11, 60, 0
11, 89760, Note_on_c, 11, 60, 58
11, 89844, Note_on_c, 11, 60, 0
11, 89880, Note_on_c, 11, 60, 58
11, 89964, Note_on_c, 11, 60, 0
11, 90000, Note_on_c, 11, 60, 58
11, 90084, Note_on_c, 11, 60, 0
11, 90120, Note_on_c, 11, 60, 58
11, 90204, Note_on_c, 11, 60, 0
11, 90240, Note_on_c, 11, 60, 58
11, 90324, Note_on_c, 11, 60, 0
11, 90360, Note_on_c, 11, 60, 58
11, 90444, Note_on_c, 11, 60, 0
11, 90480, Note_on_c, 11, 60, 58
11, 90564, Note_on_c, 11, 60, 0
11, 90600, Note_on_c, 11, 60, 58
11, 90684, Note_on_c, 11, 60, 0
11, 90720, Note_on_c, 11, 60, 58
11, 90804, Note_on_c, 11, 60, 0
11, 90840, Note_on_c, 11, 60, 58
11, 90924, Note_on_c, 11, 60, 0
11, 90960, Note_on_c, 11, 60, 58
11, 91044, Note_on_c, 11, 60, 0
11, 91080, Note_on_c, 11, 60, 58
11, 91164, Note_on_c, 11, 60, 0
11, 91200, Note_on_c, 11, 58, 58
11, 91284, Note_on_c, 11, 58, 0
11, 91320, Note_on_c, 11, 58, 58
11, 91404, Note_on_c, 11, 58, 0
11, 91440, Note_on_c, 11, 58, 58
11, 91524, Note_on_c, 11, 58, 0
11, 91560, Note_on_c, 11, 58, 58
11, 91644, Note_on_c, 11, 58, 0
11, 91680, Note_on_c, 11, 58, 58
11, 91764, Note_on_c, 11, 58, 0
11, 91800, Note_on_c, 11, 58, 58
11, 91884, Note_on_c, 11, 58, 0
11, 91920, Note_on_c, 11, 58, 58
11, 92004, Note_on_c, 11, 58, 0
11, 92040, Note_on_c, 11, 58, 58
11, 92124, Note_on_c, 11, 58, 0
11, 92160, Note_on_c, 11, 58, 58
11, 92244, Note_on_c, 11, 58, 0
11, 92280, Note_on_c, 11, 58, 58
11, 92364, Note_on_c, 11, 58, 0
11, 92400, Note_on_c, 11, 58, 58
11, 92484, Note_on_c, 11, 58, 0
11, 92520, Note_on_c, 11, 58, 58
11, 92604, Note_on_c, 11, 58, 0
11, 92640, Note_on_c, 11, 63, 54
11, 92724, Note_on_c, 11, 63, 0
11, 92760, Note_on_c, 11, 63, 54
11, 92844, Note_on_c, 11, 63, 0
11, 92880, Note_on_c, 11, 62, 58
11, 92964, Note_on_c, 11, 62, 0
11, 93000, Note_on_c, 11, 62, 58
11, 93084, Note_on_c, 11, 62, 0
11, 93120, Note_on_c, 11, 60, 58
11, 93204, Note_on_c, 11, 60, 0
11, 93240, Note_on_c, 11, 60, 58
11, 93324, Note_on_c, 11, 60, 0
11, 93360, Note_on_c, 11, 60, 58
11, 93444, Note_on_c, 11, 60, 0
11, 93480, Note_on_c, 11, 60, 58
11, 93564, Note_on_c, 11, 60, 0
11, 93600, Note_on_c, 11, 72, 50
11, 93684, Note_on_c, 11, 72, 0
11, 93720, Note_on_c, 11, 72, 51
11, 93804, Note_on_c, 11, 72, 0
11, 93840, Note_on_c, 11, 65, 54
11, 93924, Note_on_c, 11, 65, 0
11, 93960, Note_on_c, 11, 65, 60
11, 94044, Note_on_c, 11, 65, 0
11, 94080, Note_on_c, 11, 67, 59
11, 94164, Note_on_c, 11, 67, 0
11, 94200, Note_on_c, 11, 67, 59
11, 94284, Note_on_c, 11, 67, 0
11, 94320, Note_on_c, 11, 67, 58
11, 94404, Note_on_c, 11, 67, 0
11, 94440, Note_on_c, 11, 55, 58
11, 94524, Note_on_c, 11, 55, 0
11, 94560, Note_on_c, 11, 55, 57
11, 94644, Note_on_c, 11, 55, 0
11, 94680, Note_on_c, 11, 55, 57
11, 94764, Note_on_c, 11, 55, 0
11, 94800, Note_on_c, 11, 60, 56
11, 94884, Note_on_c, 11, 60, 0
11, 94920, Note_on_c, 11, 60, 56
11, 95004, Note_on_c, 11, 60, 0
11, 95040, Note_on_c, 11, 58, 55
11, 95520, Note_on_c, 11, 57, 52
11, 95548, Note_on_c, 11, 58, 0
11, 95640, Note_on_c, 11, 57, 0
11, 96960, Note_on_c, 11, 65, 62
11, 97200, Note_on_c, 11, 70, 62
11, 97220, Note_on_c, 11, 65, 0
11, 97428, Note_on_c, 11, 70, 0
11, 97440, Note_on_c, 11, 69, 62
11, 97536, Note_on_c, 11, 69, 0
11, 98880, Note_on_c, 11, 65, 62
11, 99120, Note_on_c, 11, 70, 62
11, 99144, Note_on_c, 11, 65, 0
11, 99344, Note_on_c, 11, 70, 0
11, 99360, Note_on_c, 11, 69, 62
11, 99456, Note_on_c, 11, 69, 0
11, 104760, Note_on_c, 11, 65, 49
11, 104880, Note_on_c, 11, 62, 53
11, 104897, Note_on_c, 11, 65, 0
11, 105000, Note_on_c, 11, 58, 58
11, 105017, Note_on_c, 11, 62, 0
11, 105112, Note_on_c, 11, 58, 0
11, 105120, Note_on_c, 11, 57, 62
11, 105240, Note_on_c, 11, 63, 66
11, 105257, Note_on_c, 11, 57, 0
11, 105360, Note_on_c, 11, 60, 62
11, 105377, Note_on_c, 11, 63, 0
11, 105480, Note_on_c, 11, 57, 58
11, 105497, Note_on_c, 11, 60, 0
11, 105580, Note_on_c, 11, 57, 0
11, 105600, Note_on_c, 11, 58, 53
11, 105720, Note_on_c, 11, 65, 51
11, 105737, Note_on_c, 11, 58, 0
11, 105840, Note_on_c, 11, 62, 55
11, 105857, Note_on_c, 11, 65, 0
11, 105960, Note_on_c, 11, 58, 59
11, 105977, Note_on_c, 11, 62, 0
11, 106060, Note_on_c, 11, 58, 0
11, 106080, Note_on_c, 11, 57, 63
11, 106200, Note_on_c, 11, 63, 62
11, 106217, Note_on_c, 11, 57, 0
11, 106320, Note_on_c, 11, 60, 59
11, 106337, Note_on_c, 11, 63, 0
11, 106440, Note_on_c, 11, 57, 56
11, 106457, Note_on_c, 11, 60, 0
11, 106544, Note_on_c, 11, 57, 0
11, 106560, Note_on_c, 11, 58, 52
11, 106656, Note_on_c, 11, 58, 0
11, 107640, Note_on_c, 11, 58, 56
11, 107724, Note_on_c, 11, 58, 0
11, 107760, Note_on_c, 11, 58, 56
11, 107844, Note_on_c, 11, 58, 0
11, 107880, Note_on_c, 11, 58, 56
11, 107964, Note_on_c, 11, 58, 0
11, 108120, Note_on_c, 11, 60, 56
11, 108204, Note_on_c, 11, 60, 0
11, 108240, Note_on_c, 11, 60, 56
11, 108324, Note_on_c, 11, 60, 0
11, 108360, Note_on_c, 11, 60, 56
11, 108444, Note_on_c, 11, 60, 0
11, 108480, Note_on_c, 11, 58, 50
11, 108576, Note_on_c, 11, 58, 0
11, 108720, Note_on_c, 11, 62, 50
11, 108816, Note_on_c, 11, 62, 0
11, 109200, Note_on_c, 11, 65, 50
11, 109296, Note_on_c, 11, 65, 0
11, 109680, Note_on_c, 11, 63, 51
11, 109776, Note_on_c, 11, 63, 0
11, 110160, Note_on_c, 11, 58, 52
11, 110256, Note_on_c, 11, 58, 0
11, 110400, Note_on_c, 11, 58, 52
11, 110640, Note_on_c, 11, 62, 52
11, 110662, Note_on_c, 11, 58, 0
11, 110880, Note_on_c, 11, 65, 53
11, 110902, Note_on_c, 11, 62, 0
11, 111120, Note_on_c, 11, 70, 53
11, 111142, Note_on_c, 11, 65, 0
11, 111344, Note_on_c, 11, 70, 0
11, 111360, Note_on_c, 11, 74, 53
11, 111600, Note_on_c, 11, 74, 0
11, 111600, Note_on_c, 11, 62, 54
11, 111840, Note_on_c, 11, 62, 0
11, 112080, Note_on_c, 11, 62, 54
11, 112320, Note_on_c, 11, 62, 0
11, 112560, Note_on_c, 11, 63, 58
11, 112800, Note_on_c, 11, 63, 0
11, 113040, Note_on_c, 11, 63, 77
11, 113276, Note_on_c, 11, 63, 0
11, 113280, Note_on_c, 11, 62, 81
11, 113340, Note_on_c, 11, 63, 87
11, 113359, Note_on_c, 11, 62, 0
11, 113400, Note_on_c, 11, 62, 87
11, 113419, Note_on_c, 11, 63, 0
11, 113460, Note_on_c, 11, 60, 83
11, 113479, Note_on_c, 11, 62, 0
11, 113520, Note_on_c, 11, 58, 79
11, 113539, Note_on_c, 11, 60, 0
11, 113580, Note_on_c, 11, 60, 77
11, 113599, Note_on_c, 11, 58, 0
11, 113640, Note_on_c, 11, 62, 81
11, 113659, Note_on_c, 11, 60, 0
11, 113700, Note_on_c, 11, 58, 88
11, 113719, Note_on_c, 11, 62, 0
11, 113723, Note_on_c, 11, 58, 0
11, 113760, Note_on_c, 11, 62, 84
11, 113880, Note_on_c, 11, 65, 82
11, 113903, Note_on_c, 11, 62, 0
11, 114000, Note_on_c, 11, 63, 80
11, 114023, Note_on_c, 11, 65, 0
11, 114120, Note_on_c, 11, 62, 79
11, 114143, Note_on_c, 11, 63, 0
11, 114167, Note_on_c, 11, 62, 0
11, 114240, Note_on_c, 11, 62, 77
11, 114360, Note_on_c, 11, 63, 76
11, 114372, Note_on_c, 11, 62, 0
11, 114407, Note_on_c, 11, 63, 0
11, 114480, Note_on_c, 11, 63, 77
11, 114527, Note_on_c, 11, 63, 0
11, 114600, Note_on_c, 11, 63, 78
11, 114647, Note_on_c, 11, 63, 0
11, 114720, Note_on_c, 11, 63, 69
11, 114840, Note_on_c, 11, 62, 62
11, 114863, Note_on_c, 11, 63, 0
11, 114960, Note_on_c, 11, 60, 62
11, 114983, Note_on_c, 11, 62, 0
11, 115080, Note_on_c, 11, 59, 62
11, 115103, Note_on_c, 11, 60, 0
11, 115127, Note_on_c, 11, 59, 0
11, 115200, Note_on_c, 11, 59, 62
11, 115320, Note_on_c, 11, 59, 0
11, 115320, Note_on_c, 11, 60, 62
11, 115367, Note_on_c, 11, 60, 0
11, 115440, Note_on_c, 11, 60, 62
11, 115487, Note_on_c, 11, 60, 0
11, 115560, Note_on_c, 11, 60, 62
11, 115607, Note_on_c, 11, 60, 0
11, 115680, Note_on_c, 11, 63, 75
11, 115800, Note_on_c, 11, 65, 77
11, 115823, Note_on_c, 11, 63, 0
11, 115920, Note_on_c, 11, 67, 78
11, 115943, Note_on_c, 11, 65, 0
11, 116040, Note_on_c, 11, 68, 80
11, 116063, Note_on_c, 11, 67, 0
11, 116087, Note_on_c, 11, 68, 0
11, 116160, Note_on_c, 11, 67, 81
11, 116400, Note_on_c, 11, 67, 0
11, 116400, Note_on_c, 11, 67, 79
11, 116640, Note_on_c, 11, 67, 0
11, 116640, Note_on_c, 11, 67, 76
11, 116880, Note_on_c, 11, 67, 0
11, 116880, Note_on_c, 11, 67, 74
11, 117120, Note_on_c, 11, 67, 0
11, 117120, Note_on_c, 11, 62, 71
11, 117120, Note_on_c, 11, 70, 71
11, 117600, Note_on_c, 11, 70, 0
11, 117600, Note_on_c, 11, 62, 0
11, 134400, Note_on_c, 11, 58, 97
11, 134700, Note_on_c, 11, 62, 73
11, 134720, Note_on_c, 11, 58, 0
11, 134760, Note_on_c, 11, 65, 77
11, 134780, Note_on_c, 11, 62, 0
11, 134820, Note_on_c, 11, 63, 82
11, 134840, Note_on_c, 11, 65, 0
11, 134850, Note_on_c, 11, 63, 0
11, 134880, Note_on_c, 11, 63, 82
11, 134940, Note_on_c, 11, 62, 78
11, 134960, Note_on_c, 11, 63, 0
11, 134970, Note_on_c, 11, 62, 0
11, 135000, Note_on_c, 11, 62, 73
11, 135060, Note_on_c, 11, 60, 69
11, 135080, Note_on_c, 11, 62, 0
11, 135090, Note_on_c, 11, 60, 0
11, 135120, Note_on_c, 11, 60, 65
11, 135180, Note_on_c, 11, 58, 60
11, 135200, Note_on_c, 11, 60, 0
11, 135210, Note_on_c, 11, 58, 0
11, 135240, Note_on_c, 11, 58, 56
11, 135300, Note_on_c, 11, 57, 61
11, 135320, Note_on_c, 11, 58, 0
11, 135330, Note_on_c, 11, 57, 0
11, 135360, Note_on_c, 11, 55, 88
11, 135660, Note_on_c, 11, 63, 71
11, 135676, Note_on_c, 11, 55, 0
11, 135720, Note_on_c, 11, 67, 76
11, 135740, Note_on_c, 11, 63, 0
11, 135780, Note_on_c, 11, 65, 76
11, 135800, Note_on_c, 11, 67, 0
11, 135810, Note_on_c, 11, 65, 0
11, 135840, Note_on_c, 11, 65, 68
11, 135900, Note_on_c, 11, 63, 64
11, 135920, Note_on_c, 11, 65, 0
11, 135930, Note_on_c, 11, 63, 0
11, 135960, Note_on_c, 11, 63, 59
11, 136020, Note_on_c, 11, 62, 59
11, 136040, Note_on_c, 11, 63, 0
11, 136050, Note_on_c, 11, 62, 0
11, 136080, Note_on_c, 11, 62, 59
11, 136140, Note_on_c, 11, 60, 63
11, 136160, Note_on_c, 11, 62, 0
11, 136170, Note_on_c, 11, 60, 0
11, 136200, Note_on_c, 11, 60, 63
11, 136260, Note_on_c, 11, 58, 72
11, 136280, Note_on_c, 11, 60, 0
11, 136290, Note_on_c, 11, 58, 0
11, 136320, Note_on_c, 11, 57, 77
11, 136350, Note_on_c, 11, 57, 0
11, 136380, Note_on_c, 11, 65, 85
11, 136440, Note_on_c, 11, 64, 86
11, 136460, Note_on_c, 11, 65, 0
11, 136500, Note_on_c, 11, 65, 86
11, 136520, Note_on_c, 11, 64, 0
11, 136560, Note_on_c, 11, 65, 0
11, 136560, Note_on_c, 11, 58, 86
11, 136590, Note_on_c, 11, 58, 0
11, 136620, Note_on_c, 11, 70, 88
11, 136680, Note_on_c, 11, 69, 85
11, 136700, Note_on_c, 11, 70, 0
11, 136740, Note_on_c, 11, 70, 82
11, 136760, Note_on_c, 11, 69, 0
11, 136800, Note_on_c, 11, 70, 0
11, 136800, Note_on_c, 11, 70, 79
11, 137040, Note_on_c, 11, 70, 0
11, 137040, Note_on_c, 11, 69, 71
11, 137160, Note_on_c, 11, 69, 0
11, 137160, Note_on_c, 11, 69, 80
11, 137280, Note_on_c, 11, 69, 0
11, 137280, Note_on_c, 11, 70, 83
11, 137400, Note_on_c, 11, 65, 78
11, 137420, Note_on_c, 11, 70, 0
11, 137476, Note_on_c, 11, 65, 0
11, 137640, Note_on_c, 11, 62, 75
11, 137687, Note_on_c, 11, 62, 0
11, 137880, Note_on_c, 11, 57, 75
11, 137927, Note_on_c, 11, 57, 0
11, 138120, Note_on_c, 11, 60, 75
11, 138167, Note_on_c, 11, 60, 0
11, 138240, Note_on_c, 11, 60, 75
11, 138720, Note_on_c, 11, 58, 66
11, 138740, Note_on_c, 11, 60, 0
11, 138816, Note_on_c, 11, 58, 0
11, 138816, End_track
12, 0, Start_track
12, 0, Title_t, "Viola"
12, 0, Control_c, 12, 0, 0
12, 0, Control_c, 12, 32, 1
12, 0, Program_c, 12, 48
12, 0, Control_c, 12, 7, 90
12, 0, Control_c, 12, 10, 45
12, 0, Control_c, 12, 91, 76
12, 0, Control_c, 12, 93, 85
12, 0, Note_on_c, 12, 65, 62
12, 720, Note_on_c, 12, 66, 62
12, 740, Note_on_c, 12, 65, 0
12, 960, Note_on_c, 12, 67, 62
12, 1000, Note_on_c, 12, 66, 0
12, 1164, Note_on_c, 12, 67, 0
12, 1200, Note_on_c, 12, 67, 62
12, 1640, Note_on_c, 12, 67, 0
12, 1680, Note_on_c, 12, 67, 62
12, 1920, Note_on_c, 12, 67, 0
12, 1920, Note_on_c, 12, 57, 74
12, 1920, Note_on_c, 12, 60, 74
12, 2040, Note_on_c, 12, 60, 79
12, 2040, Note_on_c, 12, 63, 79
12, 2065, Note_on_c, 12, 60, 0
12, 2065, Note_on_c, 12, 57, 0
12, 2160, Note_on_c, 12, 58, 80
12, 2160, Note_on_c, 12, 62, 80
12, 2185, Note_on_c, 12, 60, 0
12, 2185, Note_on_c, 12, 63, 0
12, 2280, Note_on_c, 12, 57, 80
12, 2280, Note_on_c, 12, 60, 80
12, 2305, Note_on_c, 12, 58, 0
12, 2305, Note_on_c, 12, 62, 0
12, 2364, Note_on_c, 12, 60, 0
12, 2376, Note_on_c, 12, 57, 0
12, 2400, Note_on_c, 12, 63, 80
12, 2400, Note_on_c, 12, 67, 80
12, 2520, Note_on_c, 12, 62, 80
12, 2520, Note_on_c, 12, 65, 80
12, 2543, Note_on_c, 12, 62, 0
12, 2545, Note_on_c, 12, 63, 0
12, 2545, Note_on_c, 12, 67, 0
12, 2567, Note_on_c, 12, 65, 0
12, 2640, Note_on_c, 12, 62, 80
12, 2640, Note_on_c, 12, 65, 80
12, 2760, Note_on_c, 12, 60, 80
12, 2760, Note_on_c, 12, 63, 80
12, 2783, Note_on_c, 12, 60, 0
12, 2785, Note_on_c, 12, 62, 0
12, 2785, Note_on_c, 12, 65, 0
12, 2807, Note_on_c, 12, 63, 0
12, 2880, Note_on_c, 12, 60, 80
12, 2880, Note_on_c, 12, 63, 80
12, 3000, Note_on_c, 12, 58, 80
12, 3000, Note_on_c, 12, 62, 80
12, 3023, Note_on_c, 12, 58, 0
12, 3025, Note_on_c, 12, 60, 0
12, 3025, Note_on_c, 12, 63, 0
12, 3047, Note_on_c, 12, 62, 0
12, 3120, Note_on_c, 12, 63, 80
12, 3120, Note_on_c, 12, 67, 80
12, 3240, Note_on_c, 12, 62, 80
12, 3240, Note_on_c, 12, 65, 80
12, 3263, Note_on_c, 12, 62, 0
12, 3265, Note_on_c, 12, 63, 0
12, 3265, Note_on_c, 12, 67, 0
12, 3287, Note_on_c, 12, 65, 0
12, 3360, Note_on_c, 12, 62, 80
12, 3360, Note_on_c, 12, 65, 80
12, 3840, Note_on_c, 12, 65, 0
12, 3840, Note_on_c, 12, 62, 0
12, 4920, Note_on_c, 12, 58, 62
12, 4920, Note_on_c, 12, 65, 62
12, 5040, Note_on_c, 12, 65, 0
12, 5040, Note_on_c, 12, 58, 0
12, 5040, Note_on_c, 12, 58, 62
12, 5040, Note_on_c, 12, 65, 62
12, 5160, Note_on_c, 12, 65, 0
12, 5160, Note_on_c, 12, 58, 0
12, 5160, Note_on_c, 12, 58, 62
12, 5160, Note_on_c, 12, 65, 62
12, 5280, Note_on_c, 12, 65, 0
12, 5280, Note_on_c, 12, 58, 0
12, 5280, Note_on_c, 12, 58, 79
12, 6240, Note_on_c, 12, 58, 0
12, 6240, Note_on_c, 12, 55, 53
12, 7200, Note_on_c, 12, 55, 0
12, 7200, Note_on_c, 12, 67, 78
12, 7320, Note_on_c, 12, 65, 78
12, 7345, Note_on_c, 12, 67, 0
12, 7440, Note_on_c, 12, 63, 78
12, 7465, Note_on_c, 12, 65, 0
12, 7560, Note_on_c, 12, 62, 78
12, 7585, Note_on_c, 12, 63, 0
12, 7680, Note_on_c, 12, 62, 0
12, 7680, Note_on_c, 12, 63, 78
12, 7920, Note_on_c, 12, 63, 0
12, 7920, Note_on_c, 12, 55, 78
12, 8160, Note_on_c, 12, 55, 0
12, 8160, Note_on_c, 12, 51, 78
12, 8400, Note_on_c, 12, 51, 0
12, 8400, Note_on_c, 12, 67, 78
12, 8640, Note_on_c, 12, 67, 0
12, 8760, Note_on_c, 12, 65, 78
12, 8880, Note_on_c, 12, 65, 0
12, 8880, Note_on_c, 12, 65, 78
12, 9000, Note_on_c, 12, 65, 0
12, 9000, Note_on_c, 12, 65, 78
12, 9120, Note_on_c, 12, 65, 0
12, 9120, Note_on_c, 12, 65, 78
12, 9360, Note_on_c, 12, 65, 0
12, 9600, Note_on_c, 12, 58, 62
12, 10080, Note_on_c, 12, 60, 62
12, 10122, Note_on_c, 12, 58, 0
12, 10282, Note_on_c, 12, 60, 0
12, 10320, Note_on_c, 12, 69, 62
12, 10416, Note_on_c, 12, 69, 0
12, 10560, Note_on_c, 12, 70, 76
12, 10800, Note_on_c, 12, 65, 76
12, 10838, Note_on_c, 12, 70, 0
12, 11002, Note_on_c, 12, 65, 0
12, 11040, Note_on_c, 12, 65, 76
12, 11136, Note_on_c, 12, 65, 0
12, 11520, Note_on_c, 12, 58, 62
12, 12000, Note_on_c, 12, 60, 62
12, 12042, Note_on_c, 12, 58, 0
12, 12202, Note_on_c, 12, 60, 0
12, 12240, Note_on_c, 12, 69, 62
12, 12336, Note_on_c, 12, 69, 0
12, 12480, Note_on_c, 12, 70, 73
12, 12720, Note_on_c, 12, 65, 74
12, 12758, Note_on_c, 12, 70, 0
12, 12894, Note_on_c, 12, 65, 0
12, 12960, Note_on_c, 12, 65, 76
12, 13056, Note_on_c, 12, 65, 0
12, 13200, Note_on_c, 12, 53, 62
12, 13440, Note_on_c, 12, 53, 0
12, 14400, Note_on_c, 12, 62, 79
12, 14520, Note_on_c, 12, 62, 0
12, 14520, Note_on_c, 12, 63, 86
12, 14640, Note_on_c, 12, 63, 0
12, 14640, Note_on_c, 12, 63, 78
12, 14736, Note_on_c, 12, 63, 0
12, 15360, Note_on_c, 12, 61, 62
12, 15480, Note_on_c, 12, 61, 0
12, 15480, Note_on_c, 12, 62, 62
12, 15600, Note_on_c, 12, 62, 0
12, 15600, Note_on_c, 12, 62, 62
12, 15647, Note_on_c, 12, 62, 0
12, 15720, Note_on_c, 12, 62, 62
12, 15767, Note_on_c, 12, 62, 0
12, 15840, Note_on_c, 12, 59, 62
12, 15960, Note_on_c, 12, 59, 0
12, 15960, Note_on_c, 12, 60, 62
12, 16080, Note_on_c, 12, 60, 0
12, 16080, Note_on_c, 12, 60, 62
12, 16127, Note_on_c, 12, 60, 0
12, 16200, Note_on_c, 12, 60, 62
12, 16247, Note_on_c, 12, 60, 0
12, 16320, Note_on_c, 12, 57, 62
12, 16440, Note_on_c, 12, 57, 0
12, 16440, Note_on_c, 12, 58, 62
12, 16560, Note_on_c, 12, 58, 0
12, 16560, Note_on_c, 12, 58, 62
12, 16607, Note_on_c, 12, 58, 0
12, 16680, Note_on_c, 12, 58, 62
12, 16727, Note_on_c, 12, 58, 0
12, 16920, Note_on_c, 12, 65, 88
12, 17040, Note_on_c, 12, 65, 0
12, 17040, Note_on_c, 12, 65, 88
12, 17160, Note_on_c, 12, 65, 0
12, 17160, Note_on_c, 12, 65, 88
12, 17280, Note_on_c, 12, 65, 0
12, 17280, Note_on_c, 12, 63, 88
12, 17520, Note_on_c, 12, 63, 0
12, 17520, Note_on_c, 12, 63, 88
12, 17760, Note_on_c, 12, 63, 0
12, 17760, Note_on_c, 12, 65, 88
12, 18000, Note_on_c, 12, 65, 0
12, 18000, Note_on_c, 12, 53, 88
12, 18240, Note_on_c, 12, 53, 0
12, 18480, Note_on_c, 12, 58, 62
12, 18720, Note_on_c, 12, 60, 62
12, 18758, Note_on_c, 12, 58, 0
12, 18960, Note_on_c, 12, 53, 62
12, 18998, Note_on_c, 12, 60, 0
12, 19174, Note_on_c, 12, 53, 0
12, 19440, Note_on_c, 12, 58, 62
12, 19680, Note_on_c, 12, 60, 62
12, 19710, Note_on_c, 12, 58, 0
12, 19920, Note_on_c, 12, 53, 62
12, 19958, Note_on_c, 12, 60, 0
12, 20130, Note_on_c, 12, 53, 0
12, 20160, Note_on_c, 12, 58, 88
12, 20400, Note_on_c, 12, 58, 0
12, 20400, Note_on_c, 12, 58, 88
12, 20640, Note_on_c, 12, 58, 0
12, 20640, Note_on_c, 12, 65, 88
12, 20880, Note_on_c, 12, 65, 0
12, 20880, Note_on_c, 12, 53, 88
12, 21120, Note_on_c, 12, 53, 0
12, 21120, Note_on_c, 12, 53, 80
12, 21360, Note_on_c, 12, 53, 0
12, 21840, Note_on_c, 12, 53, 62
12, 22080, Note_on_c, 12, 53, 0
12, 22080, Note_on_c, 12, 53, 54
12, 22638, Note_on_c, 12, 53, 0
12, 34560, Note_on_c, 12, 60, 45
12, 34632, Note_on_c, 12, 60, 0
12, 34680, Note_on_c, 12, 60, 45
12, 34752, Note_on_c, 12, 60, 0
12, 34800, Note_on_c, 12, 60, 45
12, 34872, Note_on_c, 12, 60, 0
12, 34920, Note_on_c, 12, 60, 45
12, 34992, Note_on_c, 12, 60, 0
12, 35040, Note_on_c, 12, 60, 45
12, 35112, Note_on_c, 12, 60, 0
12, 35160, Note_on_c, 12, 60, 45
12, 35232, Note_on_c, 12, 60, 0
12, 35280, Note_on_c, 12, 60, 45
12, 35352, Note_on_c, 12, 60, 0
12, 35400, Note_on_c, 12, 60, 45
12, 35472, Note_on_c, 12, 60, 0
12, 35520, Note_on_c, 12, 60, 45
12, 35592, Note_on_c, 12, 60, 0
12, 35640, Note_on_c, 12, 60, 45
12, 35712, Note_on_c, 12, 60, 0
12, 35760, Note_on_c, 12, 60, 45
12, 35832, Note_on_c, 12, 60, 0
12, 35880, Note_on_c, 12, 60, 45
12, 35952, Note_on_c, 12, 60, 0
12, 36000, Note_on_c, 12, 60, 45
12, 36072, Note_on_c, 12, 60, 0
12, 36120, Note_on_c, 12, 60, 45
12, 36192, Note_on_c, 12, 60, 0
12, 36240, Note_on_c, 12, 60, 46
12, 36312, Note_on_c, 12, 60, 0
12, 36360, Note_on_c, 12, 60, 46
12, 36432, Note_on_c, 12, 60, 0
12, 36480, Note_on_c, 12, 60, 46
12, 36558, Note_on_c, 12, 60, 0
12, 36600, Note_on_c, 12, 60, 46
12, 36678, Note_on_c, 12, 60, 0
12, 36720, Note_on_c, 12, 60, 46
12, 36798, Note_on_c, 12, 60, 0
12, 36840, Note_on_c, 12, 60, 46
12, 36918, Note_on_c, 12, 60, 0
12, 36960, Note_on_c, 12, 60, 46
12, 37038, Note_on_c, 12, 60, 0
12, 37080, Note_on_c, 12, 60, 46
12, 37158, Note_on_c, 12, 60, 0
12, 37200, Note_on_c, 12, 60, 46
12, 37278, Note_on_c, 12, 60, 0
12, 37320, Note_on_c, 12, 60, 46
12, 37398, Note_on_c, 12, 60, 0
12, 37440, Note_on_c, 12, 60, 46
12, 37518, Note_on_c, 12, 60, 0
12, 37560, Note_on_c, 12, 60, 46
12, 37638, Note_on_c, 12, 60, 0
12, 37680, Note_on_c, 12, 60, 46
12, 37758, Note_on_c, 12, 60, 0
12, 37800, Note_on_c, 12, 60, 46
12, 37878, Note_on_c, 12, 60, 0
12, 37920, Note_on_c, 12, 60, 47
12, 37998, Note_on_c, 12, 60, 0
12, 38040, Note_on_c, 12, 60, 47
12, 38118, Note_on_c, 12, 60, 0
12, 38160, Note_on_c, 12, 60, 47
12, 38238, Note_on_c, 12, 60, 0
12, 38280, Note_on_c, 12, 60, 47
12, 38358, Note_on_c, 12, 60, 0
12, 38400, Note_on_c, 12, 62, 47
12, 38478, Note_on_c, 12, 62, 0
12, 38520, Note_on_c, 12, 62, 47
12, 38598, Note_on_c, 12, 62, 0
12, 38640, Note_on_c, 12, 62, 47
12, 38718, Note_on_c, 12, 62, 0
12, 38760, Note_on_c, 12, 62, 47
12, 38838, Note_on_c, 12, 62, 0
12, 38880, Note_on_c, 12, 65, 47
12, 38958, Note_on_c, 12, 65, 0
12, 39000, Note_on_c, 12, 65, 47
12, 39078, Note_on_c, 12, 65, 0
12, 39120, Note_on_c, 12, 63, 47
12, 39198, Note_on_c, 12, 63, 0
12, 39240, Note_on_c, 12, 63, 47
12, 39318, Note_on_c, 12, 63, 0
12, 39360, Note_on_c, 12, 62, 47
12, 39438, Note_on_c, 12, 62, 0
12, 39480, Note_on_c, 12, 62, 48
12, 39558, Note_on_c, 12, 62, 0
12, 39600, Note_on_c, 12, 62, 48
12, 39678, Note_on_c, 12, 62, 0
12, 39720, Note_on_c, 12, 62, 48
12, 39798, Note_on_c, 12, 62, 0
12, 39840, Note_on_c, 12, 64, 48
12, 39918, Note_on_c, 12, 64, 0
12, 39960, Note_on_c, 12, 64, 48
12, 40038, Note_on_c, 12, 64, 0
12, 40080, Note_on_c, 12, 66, 48
12, 40158, Note_on_c, 12, 66, 0
12, 40200, Note_on_c, 12, 66, 48
12, 40278, Note_on_c, 12, 66, 0
12, 40320, Note_on_c, 12, 67, 48
12, 40398, Note_on_c, 12, 67, 0
12, 40440, Note_on_c, 12, 58, 48
12, 40518, Note_on_c, 12, 58, 0
12, 40560, Note_on_c, 12, 58, 48
12, 40638, Note_on_c, 12, 58, 0
12, 40680, Note_on_c, 12, 58, 48
12, 40758, Note_on_c, 12, 58, 0
12, 40800, Note_on_c, 12, 58, 48
12, 40878, Note_on_c, 12, 58, 0
12, 40920, Note_on_c, 12, 58, 48
12, 40998, Note_on_c, 12, 58, 0
12, 41040, Note_on_c, 12, 62, 48
12, 41118, Note_on_c, 12, 62, 0
12, 41160, Note_on_c, 12, 62, 52
12, 41238, Note_on_c, 12, 62, 0
12, 41280, Note_on_c, 12, 60, 58
12, 41760, Note_on_c, 12, 48, 50
12, 41820, Note_on_c, 12, 60, 0
12, 41880, Note_on_c, 12, 48, 0
12, 43200, Note_on_c, 12, 72, 71
12, 43680, Note_on_c, 12, 60, 58
12, 43710, Note_on_c, 12, 72, 0
12, 43800, Note_on_c, 12, 60, 0
12, 45120, Note_on_c, 12, 60, 67
12, 45600, Note_on_c, 12, 48, 58
12, 45650, Note_on_c, 12, 60, 0
12, 45720, Note_on_c, 12, 48, 0
12, 50880, Note_on_c, 12, 48, 50
12, 51000, Note_on_c, 12, 53, 52
12, 51028, Note_on_c, 12, 48, 0
12, 51120, Note_on_c, 12, 57, 54
12, 51148, Note_on_c, 12, 53, 0
12, 51240, Note_on_c, 12, 60, 56
12, 51268, Note_on_c, 12, 57, 0
12, 51342, Note_on_c, 12, 60, 0
12, 51360, Note_on_c, 12, 60, 45
12, 51840, Note_on_c, 12, 60, 0
12, 51840, Note_on_c, 12, 48, 44
12, 51960, Note_on_c, 12, 53, 48
12, 51988, Note_on_c, 12, 48, 0
12, 52080, Note_on_c, 12, 57, 52
12, 52108, Note_on_c, 12, 53, 0
12, 52200, Note_on_c, 12, 60, 56
12, 52228, Note_on_c, 12, 57, 0
12, 52310, Note_on_c, 12, 60, 0
12, 52320, Note_on_c, 12, 60, 47
12, 52800, Note_on_c, 12, 60, 0
12, 52800, Note_on_c, 12, 60, 58
12, 53040, Note_on_c, 12, 60, 0
12, 53880, Note_on_c, 12, 62, 52
12, 53964, Note_on_c, 12, 62, 0
12, 54000, Note_on_c, 12, 62, 52
12, 54084, Note_on_c, 12, 62, 0
12, 54120, Note_on_c, 12, 62, 52
12, 54204, Note_on_c, 12, 62, 0
12, 54360, Note_on_c, 12, 64, 43
12, 54444, Note_on_c, 12, 64, 0
12, 54480, Note_on_c, 12, 64, 44
12, 54564, Note_on_c, 12, 64, 0
12, 54600, Note_on_c, 12, 64, 44
12, 54684, Note_on_c, 12, 64, 0
12, 54720, Note_on_c, 12, 65, 48
12, 54816, Note_on_c, 12, 65, 0
12, 54960, Note_on_c, 12, 65, 48
12, 55056, Note_on_c, 12, 65, 0
12, 55440, Note_on_c, 12, 65, 48
12, 55536, Note_on_c, 12, 65, 0
12, 55920, Note_on_c, 12, 65, 48
12, 56016, Note_on_c, 12, 65, 0
12, 56400, Note_on_c, 12, 62, 48
12, 56640, Note_on_c, 12, 60, 48
12, 56666, Note_on_c, 12, 62, 0
12, 56880, Note_on_c, 12, 57, 48
12, 56906, Note_on_c, 12, 60, 0
12, 57120, Note_on_c, 12, 53, 48
12, 57146, Note_on_c, 12, 57, 0
12, 57360, Note_on_c, 12, 48, 48
12, 57386, Note_on_c, 12, 53, 0
12, 57576, Note_on_c, 12, 48, 0
12, 57600, Note_on_c, 12, 60, 48
12, 57840, Note_on_c, 12, 60, 0
12, 57840, Note_on_c, 12, 60, 48
12, 58080, Note_on_c, 12, 60, 0
12, 58320, Note_on_c, 12, 60, 48
12, 58560, Note_on_c, 12, 60, 0
12, 58800, Note_on_c, 12, 48, 48
12, 59040, Note_on_c, 12, 48, 0
12, 59280, Note_on_c, 12, 48, 48
12, 59520, Note_on_c, 12, 48, 0
12, 59520, Note_on_c, 12, 60, 80
12, 59760, Note_on_c, 12, 60, 0
12, 59760, Note_on_c, 12, 57, 84
12, 60000, Note_on_c, 12, 57, 0
12, 60000, Note_on_c, 12, 60, 62
12, 60240, Note_on_c, 12, 60, 0
12, 60240, Note_on_c, 12, 60, 62
12, 60480, Note_on_c, 12, 60, 0
12, 60480, Note_on_c, 12, 53, 75
12, 60720, Note_on_c, 12, 53, 0
12, 60720, Note_on_c, 12, 65, 82
12, 60960, Note_on_c, 12, 65, 0
12, 60960, Note_on_c, 12, 62, 62
12, 61200, Note_on_c, 12, 62, 0
12, 61200, Note_on_c, 12, 62, 62
12, 61440, Note_on_c, 12, 62, 0
12, 61440, Note_on_c, 12, 55, 88
12, 61680, Note_on_c, 12, 55, 0
12, 61680, Note_on_c, 12, 53, 88
12, 61800, Note_on_c, 12, 53, 0
12, 61800, Note_on_c, 12, 62, 88
12, 61920, Note_on_c, 12, 62, 0
12, 61920, Note_on_c, 12, 65, 88
12, 62160, Note_on_c, 12, 65, 0
12, 62160, Note_on_c, 12, 64, 88
12, 62400, Note_on_c, 12, 64, 0
12, 62400, Note_on_c, 12, 65, 69
12, 62880, Note_on_c, 12, 65, 0
12, 66480, Note_on_c, 12, 65, 62
12, 66720, Note_on_c, 12, 65, 0
12, 66960, Note_on_c, 12, 65, 62
12, 67200, Note_on_c, 12, 65, 0
12, 67440, Note_on_c, 12, 60, 62
12, 67680, Note_on_c, 12, 60, 0
12, 67920, Note_on_c, 12, 60, 62
12, 68160, Note_on_c, 12, 60, 0
12, 68400, Note_on_c, 12, 58, 62
12, 68640, Note_on_c, 12, 58, 0
12, 68880, Note_on_c, 12, 65, 62
12, 69120, Note_on_c, 12, 65, 0
12, 69360, Note_on_c, 12, 60, 62
12, 69600, Note_on_c, 12, 60, 0
12, 69840, Note_on_c, 12, 60, 62
12, 70080, Note_on_c, 12, 60, 0
12, 70320, Note_on_c, 12, 58, 62
12, 70560, Note_on_c, 12, 58, 0
12, 70800, Note_on_c, 12, 62, 62
12, 71040, Note_on_c, 12, 62, 0
12, 71280, Note_on_c, 12, 58, 78
12, 71520, Note_on_c, 12, 58, 0
12, 71760, Note_on_c, 12, 55, 62
12, 72000, Note_on_c, 12, 55, 0
12, 72240, Note_on_c, 12, 57, 62
12, 72480, Note_on_c, 12, 57, 0
12, 72720, Note_on_c, 12, 62, 62
12, 72960, Note_on_c, 12, 62, 0
12, 73200, Note_on_c, 12, 58, 79
12, 73440, Note_on_c, 12, 58, 0
12, 73680, Note_on_c, 12, 63, 70
12, 73920, Note_on_c, 12, 62, 77
12, 73948, Note_on_c, 12, 63, 0
12, 74160, Note_on_c, 12, 62, 0
12, 74160, Note_on_c, 12, 50, 62
12, 74256, Note_on_c, 12, 50, 0
12, 75360, Note_on_c, 12, 48, 68
12, 75360, Note_on_c, 12, 60, 68
12, 75840, Note_on_c, 12, 60, 0
12, 75840, Note_on_c, 12, 48, 0
12, 88320, Note_on_c, 12, 53, 56
12, 88404, Note_on_c, 12, 53, 0
12, 88440, Note_on_c, 12, 53, 56
12, 88524, Note_on_c, 12, 53, 0
12, 88560, Note_on_c, 12, 53, 56
12, 88644, Note_on_c, 12, 53, 0
12, 88680, Note_on_c, 12, 53, 56
12, 88764, Note_on_c, 12, 53, 0
12, 88800, Note_on_c, 12, 53, 56
12, 88884, Note_on_c, 12, 53, 0
12, 88920, Note_on_c, 12, 53, 56
12, 89004, Note_on_c, 12, 53, 0
12, 89040, Note_on_c, 12, 53, 56
12, 89124, Note_on_c, 12, 53, 0
12, 89160, Note_on_c, 12, 53, 56
12, 89244, Note_on_c, 12, 53, 0
12, 89280, Note_on_c, 12, 53, 56
12, 89364, Note_on_c, 12, 53, 0
12, 89400, Note_on_c, 12, 53, 56
12, 89484, Note_on_c, 12, 53, 0
12, 89520, Note_on_c, 12, 53, 56
12, 89604, Note_on_c, 12, 53, 0
12, 89640, Note_on_c, 12, 53, 56
12, 89724, Note_on_c, 12, 53, 0
12, 89760, Note_on_c, 12, 53, 56
12, 89844, Note_on_c, 12, 53, 0
12, 89880, Note_on_c, 12, 53, 56
12, 89964, Note_on_c, 12, 53, 0
12, 90000, Note_on_c, 12, 53, 56
12, 90084, Note_on_c, 12, 53, 0
12, 90120, Note_on_c, 12, 53, 56
12, 90204, Note_on_c, 12, 53, 0
12, 90240, Note_on_c, 12, 53, 56
12, 90324, Note_on_c, 12, 53, 0
12, 90360, Note_on_c, 12, 53, 56
12, 90444, Note_on_c, 12, 53, 0
12, 90480, Note_on_c, 12, 53, 56
12, 90564, Note_on_c, 12, 53, 0
12, 90600, Note_on_c, 12, 53, 56
12, 90684, Note_on_c, 12, 53, 0
12, 90720, Note_on_c, 12, 53, 56
12, 90804, Note_on_c, 12, 53, 0
12, 90840, Note_on_c, 12, 53, 56
12, 90924, Note_on_c, 12, 53, 0
12, 90960, Note_on_c, 12, 53, 56
12, 91044, Note_on_c, 12, 53, 0
12, 91080, Note_on_c, 12, 53, 56
12, 91164, Note_on_c, 12, 53, 0
12, 91200, Note_on_c, 12, 53, 56
12, 91284, Note_on_c, 12, 53, 0
12, 91320, Note_on_c, 12, 53, 56
12, 91404, Note_on_c, 12, 53, 0
12, 91440, Note_on_c, 12, 53, 56
12, 91524, Note_on_c, 12, 53, 0
12, 91560, Note_on_c, 12, 53, 56
12, 91644, Note_on_c, 12, 53, 0
12, 91680, Note_on_c, 12, 53, 56
12, 91764, Note_on_c, 12, 53, 0
12, 91800, Note_on_c, 12, 53, 56
12, 91884, Note_on_c, 12, 53, 0
12, 91920, Note_on_c, 12, 53, 56
12, 92004, Note_on_c, 12, 53, 0
12, 92040, Note_on_c, 12, 53, 56
12, 92124, Note_on_c, 12, 53, 0
12, 92160, Note_on_c, 12, 55, 56
12, 92244, Note_on_c, 12, 55, 0
12, 92280, Note_on_c, 12, 55, 56
12, 92364, Note_on_c, 12, 55, 0
12, 92400, Note_on_c, 12, 55, 56
12, 92484, Note_on_c, 12, 55, 0
12, 92520, Note_on_c, 12, 55, 56
12, 92604, Note_on_c, 12, 55, 0
12, 92640, Note_on_c, 12, 58, 56
12, 92724, Note_on_c, 12, 58, 0
12, 92760, Note_on_c, 12, 58, 56
12, 92844, Note_on_c, 12, 58, 0
12, 92880, Note_on_c, 12, 56, 56
12, 92964, Note_on_c, 12, 56, 0
12, 93000, Note_on_c, 12, 56, 56
12, 93084, Note_on_c, 12, 56, 0
12, 93120, Note_on_c, 12, 55, 56
12, 93204, Note_on_c, 12, 55, 0
12, 93240, Note_on_c, 12, 55, 56
12, 93324, Note_on_c, 12, 55, 0
12, 93360, Note_on_c, 12, 55, 56
12, 93444, Note_on_c, 12, 55, 0
12, 93480, Note_on_c, 12, 55, 56
12, 93564, Note_on_c, 12, 55, 0
12, 93600, Note_on_c, 12, 67, 48
12, 93684, Note_on_c, 12, 67, 0
12, 93720, Note_on_c, 12, 67, 48
12, 93804, Note_on_c, 12, 67, 0
12, 93840, Note_on_c, 12, 71, 49
12, 93924, Note_on_c, 12, 71, 0
12, 93960, Note_on_c, 12, 71, 50
12, 94044, Note_on_c, 12, 71, 0
12, 94080, Note_on_c, 12, 72, 50
12, 94164, Note_on_c, 12, 72, 0
12, 94200, Note_on_c, 12, 63, 56
12, 94284, Note_on_c, 12, 63, 0
12, 94320, Note_on_c, 12, 63, 56
12, 94404, Note_on_c, 12, 63, 0
12, 94440, Note_on_c, 12, 51, 56
12, 94524, Note_on_c, 12, 51, 0
12, 94560, Note_on_c, 12, 51, 56
12, 94644, Note_on_c, 12, 51, 0
12, 94680, Note_on_c, 12, 51, 56
12, 94764, Note_on_c, 12, 51, 0
12, 94800, Note_on_c, 12, 55, 56
12, 94884, Note_on_c, 12, 55, 0
12, 94920, Note_on_c, 12, 55, 56
12, 95004, Note_on_c, 12, 55, 0
12, 95040, Note_on_c, 12, 53, 56
12, 95600, Note_on_c, 12, 53, 0
12, 96960, Note_on_c, 12, 65, 62
12, 97440, Note_on_c, 12, 65, 0
12, 97440, Note_on_c, 12, 53, 62
12, 97536, Note_on_c, 12, 53, 0
12, 98880, Note_on_c, 12, 65, 62
12, 99356, Note_on_c, 12, 65, 0
12, 99360, Note_on_c, 12, 53, 62
12, 99456, Note_on_c, 12, 53, 0
12, 104640, Note_on_c, 12, 53, 52
12, 104760, Note_on_c, 12, 58, 55
12, 104777, Note_on_c, 12, 53, 0
12, 104880, Note_on_c, 12, 62, 58
12, 104897, Note_on_c, 12, 58, 0
12, 105000, Note_on_c, 12, 65, 60
12, 105017, Note_on_c, 12, 62, 0
12, 105104, Note_on_c, 12, 65, 0
12, 105120, Note_on_c, 12, 65, 63
12, 105600, Note_on_c, 12, 65, 0
12, 105600, Note_on_c, 12, 53, 48
12, 105720, Note_on_c, 12, 58, 51
12, 105737, Note_on_c, 12, 53, 0
12, 105840, Note_on_c, 12, 62, 55
12, 105857, Note_on_c, 12, 58, 0
12, 105960, Note_on_c, 12, 65, 59
12, 105977, Note_on_c, 12, 62, 0
12, 106060, Note_on_c, 12, 65, 0
12, 106080, Note_on_c, 12, 65, 63
12, 106560, Note_on_c, 12, 65, 0
12, 106560, Note_on_c, 12, 65, 53
12, 106656, Note_on_c, 12, 65, 0
12, 107640, Note_on_c, 12, 55, 58
12, 107724, Note_on_c, 12, 55, 0
12, 107760, Note_on_c, 12, 55, 58
12, 107844, Note_on_c, 12, 55, 0
12, 107880, Note_on_c, 12, 55, 58
12, 107964, Note_on_c, 12, 55, 0
12, 108120, Note_on_c, 12, 57, 58
12, 108204, Note_on_c, 12, 57, 0
12, 108240, Note_on_c, 12, 57, 58
12, 108324, Note_on_c, 12, 57, 0
12, 108360, Note_on_c, 12, 57, 58
12, 108444, Note_on_c, 12, 57, 0
12, 108480, Note_on_c, 12, 58, 55
12, 108576, Note_on_c, 12, 58, 0
12, 108720, Note_on_c, 12, 58, 55
12, 108816, Note_on_c, 12, 58, 0
12, 109200, Note_on_c, 12, 58, 55
12, 109296, Note_on_c, 12, 58, 0
12, 109680, Note_on_c, 12, 58, 54
12, 109776, Note_on_c, 12, 58, 0
12, 110160, Note_on_c, 12, 55, 54
12, 110256, Note_on_c, 12, 55, 0
12, 110400, Note_on_c, 12, 53, 54
12, 110640, Note_on_c, 12, 53, 0
12, 110640, Note_on_c, 12, 62, 53
12, 110880, Note_on_c, 12, 58, 53
12, 110902, Note_on_c, 12, 62, 0
12, 111120, Note_on_c, 12, 53, 53
12, 111142, Note_on_c, 12, 58, 0
12, 111348, Note_on_c, 12, 53, 0
12, 111360, Note_on_c, 12, 65, 53
12, 111600, Note_on_c, 12, 65, 0
12, 111600, Note_on_c, 12, 65, 52
12, 111840, Note_on_c, 12, 65, 0
12, 112080, Note_on_c, 12, 53, 52
12, 112320, Note_on_c, 12, 53, 0
12, 112560, Note_on_c, 12, 53, 58
12, 112800, Note_on_c, 12, 53, 0
12, 113040, Note_on_c, 12, 53, 73
12, 113280, Note_on_c, 12, 53, 0
12, 113280, Note_on_c, 12, 58, 88
12, 113400, Note_on_c, 12, 58, 0
12, 113400, Note_on_c, 12, 58, 88
12, 113400, Note_on_c, 12, 65, 88
12, 113520, Note_on_c, 12, 65, 0
12, 113520, Note_on_c, 12, 58, 0
12, 113520, Note_on_c, 12, 58, 88
12, 113520, Note_on_c, 12, 65, 88
12, 113640, Note_on_c, 12, 65, 0
12, 113640, Note_on_c, 12, 58, 0
12, 113640, Note_on_c, 12, 58, 88
12, 113640, Note_on_c, 12, 65, 88
12, 113760, Note_on_c, 12, 65, 0
12, 113760, Note_on_c, 12, 58, 0
12, 113760, Note_on_c, 12, 58, 88
12, 114720, Note_on_c, 12, 58, 0
12, 114720, Note_on_c, 12, 55, 62
12, 115680, Note_on_c, 12, 55, 0
12, 115680, Note_on_c, 12, 67, 69
12, 115800, Note_on_c, 12, 65, 72
12, 115823, Note_on_c, 12, 67, 0
12, 115920, Note_on_c, 12, 63, 75
12, 115943, Note_on_c, 12, 65, 0
12, 116040, Note_on_c, 12, 62, 78
12, 116063, Note_on_c, 12, 63, 0
12, 116087, Note_on_c, 12, 62, 0
12, 116160, Note_on_c, 12, 63, 81
12, 116400, Note_on_c, 12, 63, 0
12, 116400, Note_on_c, 12, 63, 85
12, 116640, Note_on_c, 12, 63, 0
12, 116640, Note_on_c, 12, 63, 83
12, 116880, Note_on_c, 12, 63, 0
12, 116880, Note_on_c, 12, 63, 80
12, 117120, Note_on_c, 12, 63, 0
12, 117120, Note_on_c, 12, 65, 77
12, 117600, Note_on_c, 12, 65, 0
12, 134400, Note_on_c, 12, 50, 88
12, 134640, Note_on_c, 12, 50, 0
12, 134640, Note_on_c, 12, 50, 62
12, 134880, Note_on_c, 12, 50, 0
12, 134880, Note_on_c, 12, 53, 75
12, 135120, Note_on_c, 12, 53, 0
12, 135120, Note_on_c, 12, 53, 69
12, 135360, Note_on_c, 12, 53, 0
12, 135360, Note_on_c, 12, 58, 88
12, 135600, Note_on_c, 12, 58, 0
12, 135600, Note_on_c, 12, 58, 75
12, 135840, Note_on_c, 12, 58, 0
12, 135840, Note_on_c, 12, 55, 61
12, 136080, Note_on_c, 12, 55, 0
12, 136080, Note_on_c, 12, 55, 75
12, 136320, Note_on_c, 12, 55, 0
12, 136320, Note_on_c, 12, 53, 82
12, 136560, Note_on_c, 12, 53, 0
12, 136560, Note_on_c, 12, 55, 82
12, 136680, Note_on_c, 12, 62, 82
12, 136704, Note_on_c, 12, 55, 0
12, 136776, Note_on_c, 12, 62, 0
12, 136800, Note_on_c, 12, 67, 82
12, 137040, Note_on_c, 12, 67, 0
12, 137040, Note_on_c, 12, 65, 82
12, 137160, Note_on_c, 12, 65, 0
12, 137160, Note_on_c, 12, 65, 82
12, 137280, Note_on_c, 12, 65, 0
12, 137280, Note_on_c, 12, 65, 82
12, 137400, Note_on_c, 12, 62, 82
12, 137432, Note_on_c, 12, 65, 0
12, 137500, Note_on_c, 12, 62, 0
12, 138000, Note_on_c, 12, 57, 75
12, 138240, Note_on_c, 12, 57, 0
12, 138240, Note_on_c, 12, 57, 75
12, 138720, Note_on_c, 12, 58, 69
12, 138732, Note_on_c, 12, 57, 0
12, 138816, Note_on_c, 12, 58, 0
12, 138816, End_track
13, 0, Start_track
13, 0, Title_t, "Celli"
13, 0, Control_c, 13, 0, 0
13, 0, Control_c, 13, 32, 1
13, 0, Program_c, 13, 48
13, 0, Control_c, 13, 7, 85
13, 0, Control_c, 13, 10, 65
13, 0, Control_c, 13, 91, 79
13, 0, Control_c, 13, 93, 70
13, 0, Note_on_c, 13, 58, 62
13, 720, Note_on_c, 13, 57, 62
13, 760, Note_on_c, 13, 58, 0
13, 936, Note_on_c, 13, 57, 0
13, 960, Note_on_c, 13, 55, 62
13, 1200, Note_on_c, 13, 53, 62
13, 1228, Note_on_c, 13, 55, 0
13, 1440, Note_on_c, 13, 51, 62
13, 1468, Note_on_c, 13, 53, 0
13, 1680, Note_on_c, 13, 52, 62
13, 1708, Note_on_c, 13, 51, 0
13, 1896, Note_on_c, 13, 52, 0
13, 1920, Note_on_c, 13, 53, 78
13, 2360, Note_on_c, 13, 53, 0
13, 2400, Note_on_c, 13, 53, 84
13, 2848, Note_on_c, 13, 53, 0
13, 2880, Note_on_c, 13, 58, 84
13, 3360, Note_on_c, 13, 58, 0
13, 3480, Note_on_c, 13, 46, 84
13, 3600, Note_on_c, 13, 50, 84
13, 3625, Note_on_c, 13, 46, 0
13, 3720, Note_on_c, 13, 46, 84
13, 3745, Note_on_c, 13, 50, 0
13, 3816, Note_on_c, 13, 46, 0
13, 3840, Note_on_c, 13, 53, 84
13, 4320, Note_on_c, 13, 53, 0
13, 4920, Note_on_c, 13, 46, 62
13, 5040, Note_on_c, 13, 46, 0
13, 5040, Note_on_c, 13, 46, 62
13, 5160, Note_on_c, 13, 46, 0
13, 5160, Note_on_c, 13, 46, 62
13, 5280, Note_on_c, 13, 46, 0
13, 5280, Note_on_c, 13, 58, 82
13, 5760, Note_on_c, 13, 58, 0
13, 5760, Note_on_c, 13, 63, 88
13, 6240, Note_on_c, 13, 63, 0
13, 6240, Note_on_c, 13, 55, 62
13, 6720, Note_on_c, 13, 55, 0
13, 6720, Note_on_c, 13, 60, 62
13, 7200, Note_on_c, 13, 60, 0
13, 7200, Note_on_c, 13, 48, 74
13, 7320, Note_on_c, 13, 50, 74
13, 7345, Note_on_c, 13, 48, 0
13, 7440, Note_on_c, 13, 51, 74
13, 7465, Note_on_c, 13, 50, 0
13, 7560, Note_on_c, 13, 53, 75
13, 7585, Note_on_c, 13, 51, 0
13, 7680, Note_on_c, 13, 51, 75
13, 7705, Note_on_c, 13, 53, 0
13, 7920, Note_on_c, 13, 51, 0
13, 7920, Note_on_c, 13, 51, 76
13, 8160, Note_on_c, 13, 51, 0
13, 8160, Note_on_c, 13, 51, 77
13, 8400, Note_on_c, 13, 51, 0
13, 8400, Note_on_c, 13, 51, 78
13, 8640, Note_on_c, 13, 51, 0
13, 8760, Note_on_c, 13, 53, 79
13, 8880, Note_on_c, 13, 53, 0
13, 8880, Note_on_c, 13, 53, 79
13, 9000, Note_on_c, 13, 53, 0
13, 9000, Note_on_c, 13, 53, 80
13, 9120, Note_on_c, 13, 53, 0
13, 9120, Note_on_c, 13, 53, 80
13, 9360, Note_on_c, 13, 53, 0
13, 9840, Note_on_c, 13, 46, 62
13, 9936, Note_on_c, 13, 46, 0
13, 10080, Note_on_c, 13, 48, 62
13, 10176, Note_on_c, 13, 48, 0
13, 10320, Note_on_c, 13, 51, 62
13, 10416, Note_on_c, 13, 51, 0
13, 10560, Note_on_c, 13, 50, 83
13, 10800, Note_on_c, 13, 46, 83
13, 10854, Note_on_c, 13, 50, 0
13, 11010, Note_on_c, 13, 46, 0
13, 11040, Note_on_c, 13, 53, 83
13, 11136, Note_on_c, 13, 53, 0
13, 11760, Note_on_c, 13, 46, 81
13, 11856, Note_on_c, 13, 46, 0
13, 12000, Note_on_c, 13, 48, 81
13, 12096, Note_on_c, 13, 48, 0
13, 12240, Note_on_c, 13, 51, 81
13, 12336, Note_on_c, 13, 51, 0
13, 12480, Note_on_c, 13, 50, 80
13, 12720, Note_on_c, 13, 46, 80
13, 12758, Note_on_c, 13, 50, 0
13, 12910, Note_on_c, 13, 46, 0
13, 12960, Note_on_c, 13, 53, 80
13, 13056, Note_on_c, 13, 53, 0
13, 14400, Note_on_c, 13, 57, 79
13, 14880, Note_on_c, 13, 57, 0
13, 15360, Note_on_c, 13, 58, 62
13, 15840, Note_on_c, 13, 58, 0
13, 15840, Note_on_c, 13, 53, 62
13, 16080, Note_on_c, 13, 54, 62
13, 16148, Note_on_c, 13, 53, 0
13, 16296, Note_on_c, 13, 54, 0
13, 16320, Note_on_c, 13, 55, 62
13, 16800, Note_on_c, 13, 55, 0
13, 16920, Note_on_c, 13, 50, 88
13, 17040, Note_on_c, 13, 50, 0
13, 17040, Note_on_c, 13, 50, 88
13, 17160, Note_on_c, 13, 50, 0
13, 17160, Note_on_c, 13, 50, 88
13, 17280, Note_on_c, 13, 50, 0
13, 17280, Note_on_c, 13, 51, 88
13, 17520, Note_on_c, 13, 51, 0
13, 17520, Note_on_c, 13, 51, 88
13, 17760, Note_on_c, 13, 51, 0
13, 17760, Note_on_c, 13, 53, 88
13, 18000, Note_on_c, 13, 53, 0
13, 18000, Note_on_c, 13, 53, 88
13, 18240, Note_on_c, 13, 53, 0
13, 18480, Note_on_c, 13, 58, 62
13, 18720, Note_on_c, 13, 60, 62
13, 18774, Note_on_c, 13, 58, 0
13, 18960, Note_on_c, 13, 53, 62
13, 19002, Note_on_c, 13, 60, 0
13, 19170, Note_on_c, 13, 53, 0
13, 19440, Note_on_c, 13, 58, 62
13, 19680, Note_on_c, 13, 60, 62
13, 19738, Note_on_c, 13, 58, 0
13, 19920, Note_on_c, 13, 53, 62
13, 19958, Note_on_c, 13, 60, 0
13, 20118, Note_on_c, 13, 53, 0
13, 20160, Note_on_c, 13, 58, 88
13, 20400, Note_on_c, 13, 58, 0
13, 20400, Note_on_c, 13, 51, 88
13, 20640, Note_on_c, 13, 51, 0
13, 20640, Note_on_c, 13, 53, 88
13, 20880, Note_on_c, 13, 53, 0
13, 20880, Note_on_c, 13, 53, 88
13, 21120, Note_on_c, 13, 53, 0
13, 21120, Note_on_c, 13, 46, 88
13, 21216, Note_on_c, 13, 46, 0
13, 21360, Note_on_c, 13, 50, 62
13, 21456, Note_on_c, 13, 50, 0
13, 21600, Note_on_c, 13, 53, 62
13, 21696, Note_on_c, 13, 53, 0
13, 21840, Note_on_c, 13, 53, 62
13, 21936, Note_on_c, 13, 53, 0
13, 22080, Note_on_c, 13, 58, 62
13, 22176, Note_on_c, 13, 58, 0
13, 22320, Note_on_c, 13, 53, 62
13, 22416, Note_on_c, 13, 53, 0
13, 22560, Note_on_c, 13, 46, 53
13, 22656, Note_on_c, 13, 46, 0
13, 34560, Note_on_c, 13, 53, 42
13, 34800, Note_on_c, 13, 53, 0
13, 35040, Note_on_c, 13, 53, 42
13, 35280, Note_on_c, 13, 53, 0
13, 35520, Note_on_c, 13, 48, 43
13, 35760, Note_on_c, 13, 48, 0
13, 36000, Note_on_c, 13, 48, 44
13, 36240, Note_on_c, 13, 48, 0
13, 36480, Note_on_c, 13, 48, 45
13, 36720, Note_on_c, 13, 48, 0
13, 36960, Note_on_c, 13, 48, 45
13, 37200, Note_on_c, 13, 48, 0
13, 37440, Note_on_c, 13, 53, 46
13, 37680, Note_on_c, 13, 53, 0
13, 37920, Note_on_c, 13, 53, 47
13, 38160, Note_on_c, 13, 53, 0
13, 38400, Note_on_c, 13, 53, 47
13, 38640, Note_on_c, 13, 53, 0
13, 38880, Note_on_c, 13, 53, 48
13, 39120, Note_on_c, 13, 53, 0
13, 39120, Note_on_c, 13, 54, 48
13, 39360, Note_on_c, 13, 54, 0
13, 39360, Note_on_c, 13, 55, 49
13, 39600, Note_on_c, 13, 55, 0
13, 39840, Note_on_c, 13, 55, 50
13, 40080, Note_on_c, 13, 55, 0
13, 40080, Note_on_c, 13, 57, 50
13, 40320, Note_on_c, 13, 57, 0
13, 40320, Note_on_c, 13, 58, 50
13, 40560, Note_on_c, 13, 58, 0
13, 40800, Note_on_c, 13, 46, 51
13, 41040, Note_on_c, 13, 46, 0
13, 41040, Note_on_c, 13, 43, 51
13, 41280, Note_on_c, 13, 43, 0
13, 41400, Note_on_c, 13, 48, 52
13, 41482, Note_on_c, 13, 48, 0
13, 41520, Note_on_c, 13, 48, 52
13, 41602, Note_on_c, 13, 48, 0
13, 41640, Note_on_c, 13, 48, 52
13, 41722, Note_on_c, 13, 48, 0
13, 41760, Note_on_c, 13, 48, 52
13, 41880, Note_on_c, 13, 48, 0
13, 43200, Note_on_c, 13, 57, 58
13, 43440, Note_on_c, 13, 53, 68
13, 43500, Note_on_c, 13, 57, 0
13, 43680, Note_on_c, 13, 60, 50
13, 43718, Note_on_c, 13, 53, 0
13, 43800, Note_on_c, 13, 60, 0
13, 45120, Note_on_c, 13, 57, 58
13, 45360, Note_on_c, 13, 53, 72
13, 45406, Note_on_c, 13, 57, 0
13, 45600, Note_on_c, 13, 60, 47
13, 45650, Note_on_c, 13, 53, 0
13, 45720, Note_on_c, 13, 60, 0
13, 51120, Note_on_c, 13, 53, 49
13, 51360, Note_on_c, 13, 55, 59
13, 51414, Note_on_c, 13, 53, 0
13, 51600, Note_on_c, 13, 48, 54
13, 51630, Note_on_c, 13, 55, 0
13, 51840, Note_on_c, 13, 48, 0
13, 52080, Note_on_c, 13, 53, 45
13, 52320, Note_on_c, 13, 55, 53
13, 52362, Note_on_c, 13, 53, 0
13, 52560, Note_on_c, 13, 48, 52
13, 52586, Note_on_c, 13, 55, 0
13, 52778, Note_on_c, 13, 48, 0
13, 52800, Note_on_c, 13, 53, 48
13, 53040, Note_on_c, 13, 53, 0
13, 53760, Note_on_c, 13, 55, 58
13, 54000, Note_on_c, 13, 55, 0
13, 54240, Note_on_c, 13, 48, 58
13, 54480, Note_on_c, 13, 48, 0
13, 54720, Note_on_c, 13, 53, 58
13, 54960, Note_on_c, 13, 53, 0
13, 55200, Note_on_c, 13, 45, 58
13, 55440, Note_on_c, 13, 45, 0
13, 55680, Note_on_c, 13, 46, 58
13, 55920, Note_on_c, 13, 46, 0
13, 56160, Note_on_c, 13, 46, 58
13, 56400, Note_on_c, 13, 46, 0
13, 56640, Note_on_c, 13, 48, 58
13, 56880, Note_on_c, 13, 48, 0
13, 56880, Note_on_c, 13, 48, 58
13, 57120, Note_on_c, 13, 48, 0
13, 57120, Note_on_c, 13, 48, 58
13, 57360, Note_on_c, 13, 48, 0
13, 57360, Note_on_c, 13, 48, 58
13, 57600, Note_on_c, 13, 48, 0
13, 57600, Note_on_c, 13, 48, 58
13, 57840, Note_on_c, 13, 48, 0
13, 58080, Note_on_c, 13, 48, 58
13, 58320, Note_on_c, 13, 48, 0
13, 58560, Note_on_c, 13, 48, 58
13, 58800, Note_on_c, 13, 48, 0
13, 59040, Note_on_c, 13, 48, 58
13, 59280, Note_on_c, 13, 48, 0
13, 59520, Note_on_c, 13, 53, 88
13, 59760, Note_on_c, 13, 53, 0
13, 59760, Note_on_c, 13, 53, 88
13, 60000, Note_on_c, 13, 53, 0
13, 60000, Note_on_c, 13, 57, 62
13, 60240, Note_on_c, 13, 57, 0
13, 60240, Note_on_c, 13, 57, 62
13, 60480, Note_on_c, 13, 57, 0
13, 60480, Note_on_c, 13, 58, 88
13, 60720, Note_on_c, 13, 58, 0
13, 60720, Note_on_c, 13, 46, 88
13, 60960, Note_on_c, 13, 46, 0
13, 60960, Note_on_c, 13, 58, 62
13, 61200, Note_on_c, 13, 58, 0
13, 61200, Note_on_c, 13, 58, 62
13, 61440, Note_on_c, 13, 58, 0
13, 61440, Note_on_c, 13, 60, 88
13, 61680, Note_on_c, 13, 60, 0
13, 61680, Note_on_c, 13, 62, 88
13, 61920, Note_on_c, 13, 62, 0
13, 61920, Note_on_c, 13, 58, 88
13, 62160, Note_on_c, 13, 58, 0
13, 62160, Note_on_c, 13, 60, 88
13, 62400, Note_on_c, 13, 60, 0
13, 62400, Note_on_c, 13, 53, 68
13, 62880, Note_on_c, 13, 53, 0
13, 66240, Note_on_c, 13, 53, 62
13, 66480, Note_on_c, 13, 53, 0
13, 66720, Note_on_c, 13, 53, 62
13, 66960, Note_on_c, 13, 53, 0
13, 67200, Note_on_c, 13, 53, 62
13, 67440, Note_on_c, 13, 53, 0
13, 67680, Note_on_c, 13, 53, 62
13, 67920, Note_on_c, 13, 53, 0
13, 68160, Note_on_c, 13, 46, 62
13, 68400, Note_on_c, 13, 46, 0
13, 68640, Note_on_c, 13, 46, 62
13, 68880, Note_on_c, 13, 46, 0
13, 69120, Note_on_c, 13, 50, 62
13, 69360, Note_on_c, 13, 50, 0
13, 69600, Note_on_c, 13, 50, 62
13, 69840, Note_on_c, 13, 50, 0
13, 70080, Note_on_c, 13, 43, 62
13, 70320, Note_on_c, 13, 43, 0
13, 70560, Note_on_c, 13, 43, 62
13, 70800, Note_on_c, 13, 43, 0
13, 71040, Note_on_c, 13, 51, 77
13, 71280, Note_on_c, 13, 51, 0
13, 71520, Note_on_c, 13, 51, 62
13, 71760, Note_on_c, 13, 51, 0
13, 72000, Note_on_c, 13, 50, 62
13, 72240, Note_on_c, 13, 50, 0
13, 72480, Note_on_c, 13, 50, 62
13, 72720, Note_on_c, 13, 50, 0
13, 72960, Note_on_c, 13, 51, 88
13, 73200, Note_on_c, 13, 51, 0
13, 73440, Note_on_c, 13, 51, 62
13, 73680, Note_on_c, 13, 51, 0
13, 73920, Note_on_c, 13, 50, 62
13, 74300, Note_on_c, 13, 50, 0
13, 75360, Note_on_c, 13, 48, 64
13, 75840, Note_on_c, 13, 48, 0
13, 88320, Note_on_c, 13, 46, 62
13, 88560, Note_on_c, 13, 46, 0
13, 88800, Note_on_c, 13, 46, 62
13, 89040, Note_on_c, 13, 46, 0
13, 89280, Note_on_c, 13, 53, 62
13, 89520, Note_on_c, 13, 53, 0
13, 89760, Note_on_c, 13, 53, 62
13, 90000, Note_on_c, 13, 53, 0
13, 90240, Note_on_c, 13, 53, 62
13, 90480, Note_on_c, 13, 53, 0
13, 90720, Note_on_c, 13, 53, 62
13, 90960, Note_on_c, 13, 53, 0
13, 91200, Note_on_c, 13, 46, 62
13, 91440, Note_on_c, 13, 46, 0
13, 91680, Note_on_c, 13, 46, 62
13, 91920, Note_on_c, 13, 46, 0
13, 92160, Note_on_c, 13, 46, 62
13, 92400, Note_on_c, 13, 46, 0
13, 92640, Note_on_c, 13, 46, 62
13, 92880, Note_on_c, 13, 47, 62
13, 92896, Note_on_c, 13, 46, 0
13, 93100, Note_on_c, 13, 47, 0
13, 93120, Note_on_c, 13, 48, 62
13, 93360, Note_on_c, 13, 48, 0
13, 93600, Note_on_c, 13, 48, 62
13, 93840, Note_on_c, 13, 50, 62
13, 93864, Note_on_c, 13, 48, 0
13, 94068, Note_on_c, 13, 50, 0
13, 94080, Note_on_c, 13, 51, 62
13, 94320, Note_on_c, 13, 51, 0
13, 94560, Note_on_c, 13, 51, 62
13, 94800, Note_on_c, 13, 48, 62
13, 94828, Note_on_c, 13, 51, 0
13, 95028, Note_on_c, 13, 48, 0
13, 95160, Note_on_c, 13, 53, 62
13, 95221, Note_on_c, 13, 53, 0
13, 95280, Note_on_c, 13, 53, 62
13, 95341, Note_on_c, 13, 53, 0
13, 95400, Note_on_c, 13, 53, 62
13, 95461, Note_on_c, 13, 53, 0
13, 95520, Note_on_c, 13, 53, 62
13, 95616, Note_on_c, 13, 53, 0
13, 96960, Note_on_c, 13, 62, 62
13, 97200, Note_on_c, 13, 58, 62
13, 97236, Note_on_c, 13, 62, 0
13, 97416, Note_on_c, 13, 58, 0
13, 97440, Note_on_c, 13, 65, 62
13, 97536, Note_on_c, 13, 65, 0
13, 98880, Note_on_c, 13, 50, 62
13, 99120, Note_on_c, 13, 46, 62
13, 99152, Note_on_c, 13, 50, 0
13, 99344, Note_on_c, 13, 46, 0
13, 99360, Note_on_c, 13, 53, 62
13, 99456, Note_on_c, 13, 53, 0
13, 104880, Note_on_c, 13, 58, 53
13, 105120, Note_on_c, 13, 60, 54
13, 105136, Note_on_c, 13, 58, 0
13, 105360, Note_on_c, 13, 53, 55
13, 105388, Note_on_c, 13, 60, 0
13, 105600, Note_on_c, 13, 53, 0
13, 105840, Note_on_c, 13, 58, 50
13, 106080, Note_on_c, 13, 60, 48
13, 106104, Note_on_c, 13, 58, 0
13, 106320, Note_on_c, 13, 53, 47
13, 106348, Note_on_c, 13, 60, 0
13, 106544, Note_on_c, 13, 53, 0
13, 106560, Note_on_c, 13, 58, 45
13, 106656, Note_on_c, 13, 58, 0
13, 107520, Note_on_c, 13, 48, 54
13, 107760, Note_on_c, 13, 48, 0
13, 108000, Note_on_c, 13, 53, 54
13, 108240, Note_on_c, 13, 53, 0
13, 108480, Note_on_c, 13, 46, 54
13, 108720, Note_on_c, 13, 46, 0
13, 108960, Note_on_c, 13, 50, 53
13, 109200, Note_on_c, 13, 50, 0
13, 109440, Note_on_c, 13, 51, 53
13, 109680, Note_on_c, 13, 51, 0
13, 109920, Note_on_c, 13, 51, 52
13, 110160, Note_on_c, 13, 51, 0
13, 110400, Note_on_c, 13, 53, 52
13, 110640, Note_on_c, 13, 53, 0
13, 110640, Note_on_c, 13, 53, 52
13, 110880, Note_on_c, 13, 53, 0
13, 110880, Note_on_c, 13, 53, 51
13, 111120, Note_on_c, 13, 53, 0
13, 111120, Note_on_c, 13, 53, 51
13, 111360, Note_on_c, 13, 53, 0
13, 111360, Note_on_c, 13, 53, 51
13, 111600, Note_on_c, 13, 53, 0
13, 111840, Note_on_c, 13, 53, 51
13, 112080, Note_on_c, 13, 53, 0
13, 112320, Note_on_c, 13, 53, 58
13, 112560, Note_on_c, 13, 53, 0
13, 112800, Note_on_c, 13, 53, 72
13, 113040, Note_on_c, 13, 53, 0
13, 113280, Note_on_c, 13, 46, 88
13, 113520, Note_on_c, 13, 46, 0
13, 113760, Note_on_c, 13, 58, 88
13, 114240, Note_on_c, 13, 63, 88
13, 114272, Note_on_c, 13, 58, 0
13, 114704, Note_on_c, 13, 63, 0
13, 114720, Note_on_c, 13, 55, 62
13, 115200, Note_on_c, 13, 60, 62
13, 115220, Note_on_c, 13, 55, 0
13, 115660, Note_on_c, 13, 60, 0
13, 115680, Note_on_c, 13, 48, 69
13, 115800, Note_on_c, 13, 50, 72
13, 115823, Note_on_c, 13, 48, 0
13, 115920, Note_on_c, 13, 51, 76
13, 115943, Note_on_c, 13, 50, 0
13, 116040, Note_on_c, 13, 53, 79
13, 116063, Note_on_c, 13, 51, 0
13, 116087, Note_on_c, 13, 53, 0
13, 116160, Note_on_c, 13, 51, 82
13, 116400, Note_on_c, 13, 51, 0
13, 116400, Note_on_c, 13, 51, 81
13, 116640, Note_on_c, 13, 51, 0
13, 116640, Note_on_c, 13, 51, 80
13, 116880, Note_on_c, 13, 51, 0
13, 116880, Note_on_c, 13, 51, 80
13, 117120, Note_on_c, 13, 51, 0
13, 117120, Note_on_c, 13, 53, 70
13, 117600, Note_on_c, 13, 53, 0
13, 134400, Note_on_c, 13, 46, 88
13, 134640, Note_on_c, 13, 46, 0
13, 134640, Note_on_c, 13, 46, 60
13, 134880, Note_on_c, 13, 46, 0
13, 134880, Note_on_c, 13, 50, 75
13, 135120, Note_on_c, 13, 50, 0
13, 135120, Note_on_c, 13, 50, 64
13, 135360, Note_on_c, 13, 50, 0
13, 135360, Note_on_c, 13, 51, 88
13, 135600, Note_on_c, 13, 51, 0
13, 135600, Note_on_c, 13, 63, 84
13, 135840, Note_on_c, 13, 63, 0
13, 135840, Note_on_c, 13, 51, 63
13, 136080, Note_on_c, 13, 51, 0
13, 136080, Note_on_c, 13, 51, 75
13, 136320, Note_on_c, 13, 51, 0
13, 136320, Note_on_c, 13, 53, 88
13, 136560, Note_on_c, 13, 53, 0
13, 136560, Note_on_c, 13, 55, 88
13, 136800, Note_on_c, 13, 55, 0
13, 136800, Note_on_c, 13, 51, 88
13, 137040, Note_on_c, 13, 51, 0
13, 137040, Note_on_c, 13, 53, 88
13, 137280, Note_on_c, 13, 53, 0
13, 137280, Note_on_c, 13, 46, 88
13, 137376, Note_on_c, 13, 46, 0
13, 137520, Note_on_c, 13, 50, 75
13, 137616, Note_on_c, 13, 50, 0
13, 137760, Note_on_c, 13, 53, 75
13, 137856, Note_on_c, 13, 53, 0
13, 138000, Note_on_c, 13, 53, 75
13, 138096, Note_on_c, 13, 53, 0
13, 138240, Note_on_c, 13, 58, 75
13, 138336, Note_on_c, 13, 58, 0
13, 138480, Note_on_c, 13, 53, 75
13, 138576, Note_on_c, 13, 53, 0
13, 138720, Note_on_c, 13, 46, 75
13, 138816, Note_on_c, 13, 46, 0
13, 138816, End_track
14, 0, Start_track
14, 0, Title_t, "Bassi"
14, 0, Control_c, 14, 0, 0
14, 0, Control_c, 14, 32, 1
14, 0, Program_c, 14, 48
14, 0, Control_c, 14, 7, 70
14, 0, Control_c, 14, 10, 80
14, 0, Control_c, 14, 91, 88
14, 0, Control_c, 14, 93, 88
14, 0, Note_on_c, 14, 46, 62
14, 720, Note_on_c, 14, 45, 62
14, 760, Note_on_c, 14, 46, 0
14, 936, Note_on_c, 14, 45, 0
14, 960, Note_on_c, 14, 43, 62
14, 1200, Note_on_c, 14, 41, 62
14, 1228, Note_on_c, 14, 43, 0
14, 1440, Note_on_c, 14, 39, 62
14, 1468, Note_on_c, 14, 41, 0
14, 1680, Note_on_c, 14, 40, 62
14, 1708, Note_on_c, 14, 39, 0
14, 1896, Note_on_c, 14, 40, 0
14, 1920, Note_on_c, 14, 41, 78
14, 2360, Note_on_c, 14, 41, 0
14, 2400, Note_on_c, 14, 41, 84
14, 2848, Note_on_c, 14, 41, 0
14, 2880, Note_on_c, 14, 46, 84
14, 3360, Note_on_c, 14, 46, 0
14, 3480, Note_on_c, 14, 34, 84
14, 3600, Note_on_c, 14, 38, 84
14, 3625, Note_on_c, 14, 34, 0
14, 3720, Note_on_c, 14, 34, 84
14, 3745, Note_on_c, 14, 38, 0
14, 3816, Note_on_c, 14, 34, 0
14, 3840, Note_on_c, 14, 41, 84
14, 4320, Note_on_c, 14, 41, 0
14, 4920, Note_on_c, 14, 34, 62
14, 5040, Note_on_c, 14, 34, 0
14, 5040, Note_on_c, 14, 34, 62
14, 5160, Note_on_c, 14, 34, 0
14, 5160, Note_on_c, 14, 34, 62
14, 5280, Note_on_c, 14, 34, 0
14, 5280, Note_on_c, 14, 46, 82
14, 5760, Note_on_c, 14, 46, 0
14, 5760, Note_on_c, 14, 51, 88
14, 6240, Note_on_c, 14, 51, 0
14, 6240, Note_on_c, 14, 43, 62
14, 6720, Note_on_c, 14, 43, 0
14, 6720, Note_on_c, 14, 48, 62
14, 7200, Note_on_c, 14, 48, 0
14, 7200, Note_on_c, 14, 36, 74
14, 7320, Note_on_c, 14, 38, 74
14, 7345, Note_on_c, 14, 36, 0
14, 7440, Note_on_c, 14, 39, 74
14, 7465, Note_on_c, 14, 38, 0
14, 7560, Note_on_c, 14, 41, 75
14, 7585, Note_on_c, 14, 39, 0
14, 7680, Note_on_c, 14, 39, 75
14, 7705, Note_on_c, 14, 41, 0
14, 7920, Note_on_c, 14, 39, 0
14, 7920, Note_on_c, 14, 39, 76
14, 8160, Note_on_c, 14, 39, 0
14, 8160, Note_on_c, 14, 39, 77
14, 8400, Note_on_c, 14, 39, 0
14, 8400, Note_on_c, 14, 39, 78
14, 8640, Note_on_c, 14, 39, 0
14, 8760, Note_on_c, 14, 41, 79
14, 8880, Note_on_c, 14, 41, 0
14, 8880, Note_on_c, 14, 41, 79
14, 9000, Note_on_c, 14, 41, 0
14, 9000, Note_on_c, 14, 41, 80
14, 9120, Note_on_c, 14, 41, 0
14, 9120, Note_on_c, 14, 41, 80
14, 9360, Note_on_c, 14, 41, 0
14, 9840, Note_on_c, 14, 34, 62
14, 9936, Note_on_c, 14, 34, 0
14, 10080, Note_on_c, 14, 36, 62
14, 10176, Note_on_c, 14, 36, 0
14, 10320, Note_on_c, 14, 39, 62
14, 10416, Note_on_c, 14, 39, 0
14, 10560, Note_on_c, 14, 38, 83
14, 10800, Note_on_c, 14, 34, 83
14, 10854, Note_on_c, 14, 38, 0
14, 11010, Note_on_c, 14, 34, 0
14, 11040, Note_on_c, 14, 41, 83
14, 11136, Note_on_c, 14, 41, 0
14, 11760, Note_on_c, 14, 34, 81
14, 11856, Note_on_c, 14, 34, 0
14, 12000, Note_on_c, 14, 36, 81
14, 12096, Note_on_c, 14, 36, 0
14, 12240, Note_on_c, 14, 39, 81
14, 12336, Note_on_c, 14, 39, 0
14, 12480, Note_on_c, 14, 38, 80
14, 12720, Note_on_c, 14, 34, 80
14, 12758, Note_on_c, 14, 38, 0
14, 12910, Note_on_c, 14, 34, 0
14, 12960, Note_on_c, 14, 41, 80
14, 13056, Note_on_c, 14, 41, 0
14, 14400, Note_on_c, 14, 45, 79
14, 14880, Note_on_c, 14, 45, 0
14, 15360, Note_on_c, 14, 46, 62
14, 15840, Note_on_c, 14, 46, 0
14, 15840, Note_on_c, 14, 41, 62
14, 16080, Note_on_c, 14, 42, 62
14, 16148, Note_on_c, 14, 41, 0
14, 16296, Note_on_c, 14, 42, 0
14, 16320, Note_on_c, 14, 43, 62
14, 16800, Note_on_c, 14, 43, 0
14, 16920, Note_on_c, 14, 38, 88
14, 17040, Note_on_c, 14, 38, 0
14, 17040, Note_on_c, 14, 38, 88
14, 17160, Note_on_c, 14, 38, 0
14, 17160, Note_on_c, 14, 38, 88
14, 17280, Note_on_c, 14, 38, 0
14, 17280, Note_on_c, 14, 39, 88
14, 17520, Note_on_c, 14, 39, 0
14, 17520, Note_on_c, 14, 39, 88
14, 17760, Note_on_c, 14, 39, 0
14, 17760, Note_on_c, 14, 41, 88
14, 18000, Note_on_c, 14, 41, 0
14, 18000, Note_on_c, 14, 41, 88
14, 18240, Note_on_c, 14, 41, 0
14, 18480, Note_on_c, 14, 46, 62
14, 18720, Note_on_c, 14, 48, 62
14, 18774, Note_on_c, 14, 46, 0
14, 18960, Note_on_c, 14, 41, 62
14, 19002, Note_on_c, 14, 48, 0
14, 19170, Note_on_c, 14, 41, 0
14, 19440, Note_on_c, 14, 46, 62
14, 19680, Note_on_c, 14, 48, 62
14, 19738, Note_on_c, 14, 46, 0
14, 19920, Note_on_c, 14, 41, 62
14, 19958, Note_on_c, 14, 48, 0
14, 20118, Note_on_c, 14, 41, 0
14, 20160, Note_on_c, 14, 46, 88
14, 20400, Note_on_c, 14, 46, 0
14, 20400, Note_on_c, 14, 39, 88
14, 20640, Note_on_c, 14, 39, 0
14, 20640, Note_on_c, 14, 41, 88
14, 20880, Note_on_c, 14, 41, 0
14, 20880, Note_on_c, 14, 41, 88
14, 21120, Note_on_c, 14, 41, 0
14, 21120, Note_on_c, 14, 34, 88
14, 21216, Note_on_c, 14, 34, 0
14, 21360, Note_on_c, 14, 38, 62
14, 21456, Note_on_c, 14, 38, 0
14, 21600, Note_on_c, 14, 41, 62
14, 21696, Note_on_c, 14, 41, 0
14, 21840, Note_on_c, 14, 41, 62
14, 21936, Note_on_c, 14, 41, 0
14, 22080, Note_on_c, 14, 46, 62
14, 22176, Note_on_c, 14, 46, 0
14, 22320, Note_on_c, 14, 41, 62
14, 22416, Note_on_c, 14, 41, 0
14, 22560, Note_on_c, 14, 34, 53
14, 22656, Note_on_c, 14, 34, 0
14, 34560, Note_on_c, 14, 41, 43
14, 34800, Note_on_c, 14, 41, 0
14, 35040, Note_on_c, 14, 41, 43
14, 35280, Note_on_c, 14, 41, 0
14, 35520, Note_on_c, 14, 36, 43
14, 35760, Note_on_c, 14, 36, 0
14, 36000, Note_on_c, 14, 36, 44
14, 36240, Note_on_c, 14, 36, 0
14, 36480, Note_on_c, 14, 36, 44
14, 36720, Note_on_c, 14, 36, 0
14, 36960, Note_on_c, 14, 36, 45
14, 37200, Note_on_c, 14, 36, 0
14, 37440, Note_on_c, 14, 41, 45
14, 37680, Note_on_c, 14, 41, 0
14, 37920, Note_on_c, 14, 41, 46
14, 38160, Note_on_c, 14, 41, 0
14, 38400, Note_on_c, 14, 41, 46
14, 38640, Note_on_c, 14, 41, 0
14, 38880, Note_on_c, 14, 41, 47
14, 39120, Note_on_c, 14, 41, 0
14, 39120, Note_on_c, 14, 42, 47
14, 39360, Note_on_c, 14, 42, 0
14, 39360, Note_on_c, 14, 43, 47
14, 39600, Note_on_c, 14, 43, 0
14, 39840, Note_on_c, 14, 43, 48
14, 40080, Note_on_c, 14, 43, 0
14, 40080, Note_on_c, 14, 45, 48
14, 40320, Note_on_c, 14, 45, 0
14, 40320, Note_on_c, 14, 46, 48
14, 40560, Note_on_c, 14, 46, 0
14, 40800, Note_on_c, 14, 34, 49
14, 41040, Note_on_c, 14, 34, 0
14, 41040, Note_on_c, 14, 31, 49
14, 41280, Note_on_c, 14, 31, 0
14, 41400, Note_on_c, 14, 36, 49
14, 41482, Note_on_c, 14, 36, 0
14, 41520, Note_on_c, 14, 36, 49
14, 41602, Note_on_c, 14, 36, 0
14, 41640, Note_on_c, 14, 36, 49
14, 41722, Note_on_c, 14, 36, 0
14, 41760, Note_on_c, 14, 36, 50
14, 41880, Note_on_c, 14, 36, 0
14, 43200, Note_on_c, 14, 45, 58
14, 43440, Note_on_c, 14, 41, 68
14, 43500, Note_on_c, 14, 45, 0
14, 43680, Note_on_c, 14, 48, 50
14, 43718, Note_on_c, 14, 41, 0
14, 43800, Note_on_c, 14, 48, 0
14, 45120, Note_on_c, 14, 45, 58
14, 45360, Note_on_c, 14, 41, 72
14, 45406, Note_on_c, 14, 45, 0
14, 45600, Note_on_c, 14, 48, 47
14, 45650, Note_on_c, 14, 41, 0
14, 45720, Note_on_c, 14, 48, 0
14, 51120, Note_on_c, 14, 41, 49
14, 51360, Note_on_c, 14, 43, 59
14, 51414, Note_on_c, 14, 41, 0
14, 51600, Note_on_c, 14, 36, 54
14, 51630, Note_on_c, 14, 43, 0
14, 51840, Note_on_c, 14, 36, 0
14, 52080, Note_on_c, 14, 41, 45
14, 52320, Note_on_c, 14, 43, 53
14, 52362, Note_on_c, 14, 41, 0
14, 52560, Note_on_c, 14, 36, 52
14, 52586, Note_on_c, 14, 43, 0
14, 52778, Note_on_c, 14, 36, 0
14, 52800, Note_on_c, 14, 41, 48
14, 53040, Note_on_c, 14, 41, 0
14, 53760, Note_on_c, 14, 43, 58
14, 54000, Note_on_c, 14, 43, 0
14, 54240, Note_on_c, 14, 36, 58
14, 54480, Note_on_c, 14, 36, 0
14, 54720, Note_on_c, 14, 41, 58
14, 54960, Note_on_c, 14, 41, 0
14, 55200, Note_on_c, 14, 33, 58
14, 55440, Note_on_c, 14, 33, 0
14, 55680, Note_on_c, 14, 34, 58
14, 55920, Note_on_c, 14, 34, 0
14, 56160, Note_on_c, 14, 34, 58
14, 56400, Note_on_c, 14, 34, 0
14, 56640, Note_on_c, 14, 36, 58
14, 56880, Note_on_c, 14, 36, 0
14, 56880, Note_on_c, 14, 36, 58
14, 57120, Note_on_c, 14, 36, 0
14, 57120, Note_on_c, 14, 36, 58
14, 57360, Note_on_c, 14, 36, 0
14, 57360, Note_on_c, 14, 36, 58
14, 57600, Note_on_c, 14, 36, 0
14, 57600, Note_on_c, 14, 36, 58
14, 57840, Note_on_c, 14, 36, 0
14, 58080, Note_on_c, 14, 36, 58
14, 58320, Note_on_c, 14, 36, 0
14, 58560, Note_on_c, 14, 36, 58
14, 58800, Note_on_c, 14, 36, 0
14, 59040, Note_on_c, 14, 36, 58
14, 59280, Note_on_c, 14, 36, 0
14, 59520, Note_on_c, 14, 41, 88
14, 59760, Note_on_c, 14, 41, 0
14, 59760, Note_on_c, 14, 41, 88
14, 60000, Note_on_c, 14, 41, 0
14, 60000, Note_on_c, 14, 45, 62
14, 60240, Note_on_c, 14, 45, 0
14, 60240, Note_on_c, 14, 45, 62
14, 60480, Note_on_c, 14, 45, 0
14, 60480, Note_on_c, 14, 46, 88
14, 60720, Note_on_c, 14, 46, 0
14, 60720, Note_on_c, 14, 34, 88
14, 60960, Note_on_c, 14, 34, 0
14, 60960, Note_on_c, 14, 46, 62
14, 61200, Note_on_c, 14, 46, 0
14, 61200, Note_on_c, 14, 46, 62
14, 61440, Note_on_c, 14, 46, 0
14, 61440, Note_on_c, 14, 48, 88
14, 61680, Note_on_c, 14, 48, 0
14, 61680, Note_on_c, 14, 50, 88
14, 61920, Note_on_c, 14, 50, 0
14, 61920, Note_on_c, 14, 46, 88
14, 62160, Note_on_c, 14, 46, 0
14, 62160, Note_on_c, 14, 48, 88
14, 62400, Note_on_c, 14, 48, 0
14, 62400, Note_on_c, 14, 41, 68
14, 62880, Note_on_c, 14, 41, 0
14, 66240, Note_on_c, 14, 41, 62
14, 66480, Note_on_c, 14, 41, 0
14, 66720, Note_on_c, 14, 41, 62
14, 66960, Note_on_c, 14, 41, 0
14, 67200, Note_on_c, 14, 41, 62
14, 67440, Note_on_c, 14, 41, 0
14, 67680, Note_on_c, 14, 41, 62
14, 67920, Note_on_c, 14, 41, 0
14, 68160, Note_on_c, 14, 34, 62
14, 68400, Note_on_c, 14, 34, 0
14, 68640, Note_on_c, 14, 34, 62
14, 68880, Note_on_c, 14, 34, 0
14, 69120, Note_on_c, 14, 38, 62
14, 69360, Note_on_c, 14, 38, 0
14, 69600, Note_on_c, 14, 38, 62
14, 69840, Note_on_c, 14, 38, 0
14, 70080, Note_on_c, 14, 31, 62
14, 70320, Note_on_c, 14, 31, 0
14, 70560, Note_on_c, 14, 31, 62
14, 70800, Note_on_c, 14, 31, 0
14, 71040, Note_on_c, 14, 39, 74
14, 71280, Note_on_c, 14, 39, 0
14, 71520, Note_on_c, 14, 39, 62
14, 71760, Note_on_c, 14, 39, 0
14, 72000, Note_on_c, 14, 38, 62
14, 72240, Note_on_c, 14, 38, 0
14, 72480, Note_on_c, 14, 38, 62
14, 72720, Note_on_c, 14, 38, 0
14, 72960, Note_on_c, 14, 39, 88
14, 73200, Note_on_c, 14, 39, 0
14, 73440, Note_on_c, 14, 39, 62
14, 73680, Note_on_c, 14, 39, 0
14, 73920, Note_on_c, 14, 38, 62
14, 74260, Note_on_c, 14, 38, 0
14, 75360, Note_on_c, 14, 36, 64
14, 75840, Note_on_c, 14, 36, 0
14, 88320, Note_on_c, 14, 34, 62
14, 88560, Note_on_c, 14, 34, 0
14, 88800, Note_on_c, 14, 34, 62
14, 89040, Note_on_c, 14, 34, 0
14, 89280, Note_on_c, 14, 41, 62
14, 89520, Note_on_c, 14, 41, 0
14, 89760, Note_on_c, 14, 41, 62
14, 90000, Note_on_c, 14, 41, 0
14, 90240, Note_on_c, 14, 41, 62
14, 90480, Note_on_c, 14, 41, 0
14, 90720, Note_on_c, 14, 41, 62
14, 90960, Note_on_c, 14, 41, 0
14, 91200, Note_on_c, 14, 34, 62
14, 91440, Note_on_c, 14, 34, 0
14, 91680, Note_on_c, 14, 34, 62
14, 91920, Note_on_c, 14, 34, 0
14, 92160, Note_on_c, 14, 34, 62
14, 92400, Note_on_c, 14, 34, 0
14, 92640, Note_on_c, 14, 34, 62
14, 92880, Note_on_c, 14, 35, 62
14, 92896, Note_on_c, 14, 34, 0
14, 93100, Note_on_c, 14, 35, 0
14, 93120, Note_on_c, 14, 36, 62
14, 93360, Note_on_c, 14, 36, 0
14, 93600, Note_on_c, 14, 36, 62
14, 93840, Note_on_c, 14, 38, 62
14, 93864, Note_on_c, 14, 36, 0
14, 94068, Note_on_c, 14, 38, 0
14, 94080, Note_on_c, 14, 39, 62
14, 94320, Note_on_c, 14, 39, 0
14, 94560, Note_on_c, 14, 39, 62
14, 94800, Note_on_c, 14, 36, 62
14, 94828, Note_on_c, 14, 39, 0
14, 95028, Note_on_c, 14, 36, 0
14, 95160, Note_on_c, 14, 41, 62
14, 95221, Note_on_c, 14, 41, 0
14, 95280, Note_on_c, 14, 41, 62
14, 95341, Note_on_c, 14, 41, 0
14, 95400, Note_on_c, 14, 41, 62
14, 95461, Note_on_c, 14, 41, 0
14, 95520, Note_on_c, 14, 41, 62
14, 95616, Note_on_c, 14, 41, 0
14, 96960, Note_on_c, 14, 50, 62
14, 97200, Note_on_c, 14, 46, 62
14, 97236, Note_on_c, 14, 50, 0
14, 97416, Note_on_c, 14, 46, 0
14, 97440, Note_on_c, 14, 53, 62
14, 97536, Note_on_c, 14, 53, 0
14, 98880, Note_on_c, 14, 38, 62
14, 99120, Note_on_c, 14, 34, 62
14, 99152, Note_on_c, 14, 38, 0
14, 99344, Note_on_c, 14, 34, 0
14, 99360, Note_on_c, 14, 41, 62
14, 99456, Note_on_c, 14, 41, 0
14, 104880, Note_on_c, 14, 46, 53
14, 105120, Note_on_c, 14, 48, 54
14, 105136, Note_on_c, 14, 46, 0
14, 105360, Note_on_c, 14, 41, 55
14, 105388, Note_on_c, 14, 48, 0
14, 105600, Note_on_c, 14, 41, 0
14, 105840, Note_on_c, 14, 46, 50
14, 106080, Note_on_c, 14, 48, 48
14, 106104, Note_on_c, 14, 46, 0
14, 106320, Note_on_c, 14, 41, 47
14, 106348, Note_on_c, 14, 48, 0
14, 106544, Note_on_c, 14, 41, 0
14, 106560, Note_on_c, 14, 46, 45
14, 106656, Note_on_c, 14, 46, 0
14, 107520, Note_on_c, 14, 36, 54
14, 107760, Note_on_c, 14, 36, 0
14, 108000, Note_on_c, 14, 41, 54
14, 108240, Note_on_c, 14, 41, 0
14, 108480, Note_on_c, 14, 34, 54
14, 108720, Note_on_c, 14, 34, 0
14, 108960, Note_on_c, 14, 38, 53
14, 109200, Note_on_c, 14, 38, 0
14, 109440, Note_on_c, 14, 39, 53
14, 109680, Note_on_c, 14, 39, 0
14, 109920, Note_on_c, 14, 39, 52
14, 110160, Note_on_c, 14, 39, 0
14, 110400, Note_on_c, 14, 41, 52
14, 110640, Note_on_c, 14, 41, 0
14, 110640, Note_on_c, 14, 41, 52
14, 110880, Note_on_c, 14, 41, 0
14, 110880, Note_on_c, 14, 41, 51
14, 111120, Note_on_c, 14, 41, 0
14, 111120, Note_on_c, 14, 41, 51
14, 111360, Note_on_c, 14, 41, 0
14, 111360, Note_on_c, 14, 41, 51
14, 111600, Note_on_c, 14, 41, 0
14, 111840, Note_on_c, 14, 41, 51
14, 112080, Note_on_c, 14, 41, 0
14, 112320, Note_on_c, 14, 41, 58
14, 112560, Note_on_c, 14, 41, 0
14, 112800, Note_on_c, 14, 41, 72
14, 113040, Note_on_c, 14, 41, 0
14, 113280, Note_on_c, 14, 34, 88
14, 113520, Note_on_c, 14, 34, 0
14, 113760, Note_on_c, 14, 46, 88
14, 114240, Note_on_c, 14, 51, 88
14, 114272, Note_on_c, 14, 46, 0
14, 114704, Note_on_c, 14, 51, 0
14, 114720, Note_on_c, 14, 43, 62
14, 115200, Note_on_c, 14, 48, 62
14, 115220, Note_on_c, 14, 43, 0
14, 115660, Note_on_c, 14, 48, 0
14, 115680, Note_on_c, 14, 36, 69
14, 115800, Note_on_c, 14, 38, 72
14, 115823, Note_on_c, 14, 36, 0
14, 115920, Note_on_c, 14, 39, 76
14, 115943, Note_on_c, 14, 38, 0
14, 116040, Note_on_c, 14, 41, 79
14, 116063, Note_on_c, 14, 39, 0
14, 116087, Note_on_c, 14, 41, 0
14, 116160, Note_on_c, 14, 39, 82
14, 116400, Note_on_c, 14, 39, 0
14, 116400, Note_on_c, 14, 39, 81
14, 116640, Note_on_c, 14, 39, 0
14, 116640, Note_on_c, 14, 39, 80
14, 116880, Note_on_c, 14, 39, 0
14, 116880, Note_on_c, 14, 39, 80
14, 117120, Note_on_c, 14, 39, 0
14, 117120, Note_on_c, 14, 41, 70
14, 117600, Note_on_c, 14, 41, 0
14, 134400, Note_on_c, 14, 34, 88
14, 134640, Note_on_c, 14, 34, 0
14, 134640, Note_on_c, 14, 34, 60
14, 134880, Note_on_c, 14, 34, 0
14, 134880, Note_on_c, 14, 38, 75
14, 135120, Note_on_c, 14, 38, 0
14, 135120, Note_on_c, 14, 38, 64
14, 135360, Note_on_c, 14, 38, 0
14, 135360, Note_on_c, 14, 39, 88
14, 135600, Note_on_c, 14, 39, 0
14, 135600, Note_on_c, 14, 51, 84
14, 135840, Note_on_c, 14, 51, 0
14, 135840, Note_on_c, 14, 39, 63
14, 136080, Note_on_c, 14, 39, 0
14, 136080, Note_on_c, 14, 39, 75
14, 136320, Note_on_c, 14, 39, 0
14, 136320, Note_on_c, 14, 41, 88
14, 136560, Note_on_c, 14, 41, 0
14, 136560, Note_on_c, 14, 43, 88
14, 136800, Note_on_c, 14, 43, 0
14, 136800, Note_on_c, 14, 39, 88
14, 137040, Note_on_c, 14, 39, 0
14, 137040, Note_on_c, 14, 41, 88
14, 137280, Note_on_c, 14, 41, 0
14, 137280, Note_on_c, 14, 34, 88
14, 137376, Note_on_c, 14, 34, 0
14, 137520, Note_on_c, 14, 38, 75
14, 137616, Note_on_c, 14, 38, 0
14, 137760, Note_on_c, 14, 41, 75
14, 137856, Note_on_c, 14, 41, 0
14, 138000, Note_on_c, 14, 41, 75
14, 138096, Note_on_c, 14, 41, 0
14, 138240, Note_on_c, 14, 46, 75
14, 138336, Note_on_c, 14, 46, 0
14, 138480, Note_on_c, 14, 41, 75
14, 138576, Note_on_c, 14, 41, 0
14, 138720, Note_on_c, 14, 34, 75
14, 138816, Note_on_c, 14, 34, 0
14, 138816, End_track
15, 0, Start_track
15, 0, Title_t, "******************************************"
15, 0, Control_c, 0, 7, 127
15, 0, Control_c, 0, 10, 64
15, 0, Control_c, 0, 91, 0
15, 0, Control_c, 0, 93, 0
15, 0, End_track
16, 0, Start_track
16, 0, Title_t, "Mozart Concerto for 3 Pianos "
16, 0, Control_c, 0, 7, 127
16, 0, Control_c, 0, 10, 64
16, 0, Control_c, 0, 91, 0
16, 0, Control_c, 0, 93, 0
16, 0, End_track
17, 0, Start_track
17, 0, Title_t, "   and Orchestra in F, K.242"
17, 0, Control_c, 0, 7, 127
17, 0, Control_c, 0, 10, 64
17, 0, Control_c, 0, 91, 0
17, 0, Control_c, 0, 93, 0
17, 0, End_track
18, 0, Start_track
18, 0, Title_t, "Input and Sequence by Randy Reid"
18, 0, Control_c, 0, 7, 127
18, 0, Control_c, 0, 10, 64
18, 0, Control_c, 0, 91, 0
18, 0, Control_c, 0, 93, 0
18, 0, End_track
19, 0, Start_track
19, 0, Title_t, "   Troppo@msn.com"
19, 0, Control_c, 0, 7, 127
19, 0, Control_c, 0, 10, 64
19, 0, Control_c, 0, 91, 0
19, 0, Control_c, 0, 93, 0
19, 0, End_track
20, 0, Start_track
20, 0, Title_t, "   Non Nobis Domine"
20, 0, Control_c, 0, 7, 127
20, 0, Control_c, 0, 10, 64
20, 0, Control_c, 0, 91, 0
20, 0, Control_c, 0, 93, 0
20, 0, End_track
21, 0, Start_track
21, 0, Title_t, "Console Automation Data"
21, 0, Control_c, 1, 40, 103
21, 0, Control_c, 0, 40, 103
21, 0, Control_c, 1, 93, 64
21, 0, Control_c, 1, 92, 0
21, 0, Control_c, 1, 96, 64
21, 0, Control_c, 1, 95, 127
21, 0, Control_c, 0, 93, 64
21, 0, Control_c, 0, 92, 0
21, 0, Control_c, 0, 96, 64
21, 0, Control_c, 0, 95, 127
21, 0, Control_c, 0, 91, 0
21, 0, End_track
0, 0, End_of_file