0, 0, Header, 0, 1, 120
1, 0, Start_track
1, 0, Control_c, 3, 10, 64
1, 0, Copyright_t, "MIDI file built by MUS2MIDI \270 Reinier Bakels 1996"
1, 0, Title_t, "KV622C00"
1, 0, Control_c, 3, 91, 127
1, 0, Time_signature, 6, 3, 36, 8
1, 0, Tempo, 333333
1, 0, Control_c, 3, 7, 127
1, 0, Control_c, 9, 7, 127
1, 0, Control_c, 4, 10, 0
1, 0, Title_t, "KV622C01"
1, 0, Control_c, 4, 91, 127
1, 0, Control_c, 4, 7, 127
1, 0, Title_t, "KV622C02"
1, 0, Control_c, 5, 10, 42
1, 0, Title_t, "KV622C03"
1, 0, Control_c, 5, 91, 127
1, 0, Control_c, 5, 7, 127
1, 0, Title_t, "KV622C04"
1, 0, Control_c, 6, 10, 85
1, 0, Title_t, "KV622C05"
1, 0, Control_c, 6, 91, 127
1, 0, Control_c, 6, 7, 127
1, 0, Title_t, "KV622C06"
1, 0, Control_c, 7, 10, 127
1, 0, Title_t, "KV622C07"
1, 0, Control_c, 7, 91, 127
1, 0, Control_c, 7, 7, 127
1, 0, Title_t, "KV622C08"
1, 0, Title_t, "KV622C09"
1, 0, Title_t, "KV622C10"
1, 0, Title_t, "KV622C11"
1, 127, Key_signature, 3, "major"
1, 127, Control_c, 3, 0, 0
1, 127, Instrument_name_t, "Clarinet"
1, 127, Program_c, 3, 71
1, 127, Tempo, 500000
1, 127, Control_c, 4, 0, 0
1, 127, Instrument_name_t, "Flute"
1, 127, Program_c, 4, 73
1, 127, Control_c, 5, 0, 0
1, 127, Instrument_name_t, "Bassoon"
1, 127, Program_c, 5, 70
1, 127, Control_c, 6, 0, 1
1, 127, Instrument_name_t, "French Horn"
1, 127, Program_c, 6, 60
1, 127, Control_c, 7, 0, 0
1, 127, Instrument_name_t, "String Ensemble 1"
1, 127, Program_c, 7, 48
1, 427, Note_on_c, 3, 73, 127
1, 457, Note_on_c, 3, 73, 0
1, 457, Note_on_c, 3, 74, 127
1, 487, Note_on_c, 3, 74, 0
1, 487, Note_on_c, 3, 76, 127
1, 487, Note_on_c, 7, 73, 100
1, 487, Note_on_c, 7, 69, 100
1, 517, Note_on_c, 3, 76, 0
1, 517, Note_on_c, 7, 73, 0
1, 517, Note_on_c, 7, 69, 0
1, 547, Note_on_c, 3, 76, 127
1, 577, Note_on_c, 3, 76, 0
1, 607, Note_on_c, 3, 76, 127
1, 607, Note_on_c, 7, 73, 100
1, 607, Note_on_c, 7, 69, 100
1, 637, Note_on_c, 3, 76, 0
1, 637, Note_on_c, 7, 73, 0
1, 637, Note_on_c, 7, 69, 0
1, 667, Note_on_c, 3, 78, 127
1, 667, Note_on_c, 7, 73, 100
1, 667, Note_on_c, 7, 69, 100
1, 697, Note_on_c, 3, 78, 0
1, 697, Note_on_c, 3, 76, 127
1, 697, Note_on_c, 7, 73, 0
1, 697, Note_on_c, 7, 69, 0
1, 727, Note_on_c, 3, 76, 0
1, 727, Note_on_c, 3, 75, 127
1, 727, Note_on_c, 7, 73, 100
1, 727, Note_on_c, 7, 69, 100
1, 757, Note_on_c, 3, 75, 0
1, 757, Note_on_c, 3, 76, 127
1, 757, Note_on_c, 7, 73, 0
1, 757, Note_on_c, 7, 69, 0
1, 787, Note_on_c, 3, 76, 0
1, 787, Note_on_c, 3, 78, 127
1, 787, Note_on_c, 7, 73, 100
1, 787, Note_on_c, 7, 69, 100
1, 817, Note_on_c, 3, 78, 0
1, 817, Note_on_c, 3, 76, 127
1, 817, Note_on_c, 7, 73, 0
1, 817, Note_on_c, 7, 69, 0
1, 847, Note_on_c, 3, 76, 0
1, 847, Note_on_c, 3, 74, 127
1, 847, Note_on_c, 7, 71, 100
1, 847, Note_on_c, 7, 68, 100
1, 847, Note_on_c, 7, 64, 100
1, 1027, Note_on_c, 3, 74, 0
1, 1027, Note_on_c, 3, 73, 127
1, 1027, Note_on_c, 7, 71, 0
1, 1027, Note_on_c, 7, 73, 100
1, 1027, Note_on_c, 7, 68, 0
1, 1027, Note_on_c, 7, 69, 100
1, 1027, Note_on_c, 7, 64, 0
1, 1087, Note_on_c, 3, 73, 0
1, 1087, Note_on_c, 7, 73, 0
1, 1087, Note_on_c, 7, 69, 0
1, 1147, Note_on_c, 3, 81, 127
1, 1177, Note_on_c, 3, 81, 0
1, 1177, Note_on_c, 3, 80, 127
1, 1207, Note_on_c, 3, 80, 0
1, 1207, Note_on_c, 3, 78, 127
1, 1207, Note_on_c, 7, 69, 100
1, 1207, Note_on_c, 7, 62, 100
1, 1237, Note_on_c, 3, 78, 0
1, 1237, Note_on_c, 7, 69, 0
1, 1237, Note_on_c, 7, 62, 0
1, 1267, Note_on_c, 3, 78, 127
1, 1267, Note_on_c, 7, 69, 100
1, 1267, Note_on_c, 7, 62, 100
1, 1297, Note_on_c, 3, 78, 0
1, 1297, Note_on_c, 7, 69, 0
1, 1297, Note_on_c, 7, 62, 0
1, 1327, Note_on_c, 3, 78, 127
1, 1357, Note_on_c, 3, 78, 0
1, 1357, Note_on_c, 3, 76, 127
1, 1387, Note_on_c, 3, 76, 0
1, 1387, Note_on_c, 3, 74, 127
1, 1387, Note_on_c, 7, 69, 100
1, 1387, Note_on_c, 7, 66, 100
1, 1417, Note_on_c, 7, 69, 0
1, 1417, Note_on_c, 7, 66, 0
1, 1447, Note_on_c, 3, 74, 0
1, 1447, Note_on_c, 3, 74, 127
1, 1447, Note_on_c, 7, 69, 100
1, 1447, Note_on_c, 7, 66, 100
1, 1477, Note_on_c, 3, 74, 0
1, 1477, Note_on_c, 3, 73, 127
1, 1477, Note_on_c, 7, 69, 0
1, 1477, Note_on_c, 7, 66, 0
1, 1507, Note_on_c, 3, 73, 0
1, 1507, Note_on_c, 3, 71, 127
1, 1537, Note_on_c, 3, 71, 0
1, 1537, Note_on_c, 3, 69, 127
1, 1567, Note_on_c, 3, 69, 0
1, 1567, Note_on_c, 3, 68, 127
1, 1567, Note_on_c, 7, 64, 100
1, 1627, Note_on_c, 3, 68, 0
1, 1627, Note_on_c, 3, 69, 127
1, 1627, Note_on_c, 7, 64, 0
1, 1627, Note_on_c, 7, 66, 100
1, 1627, Note_on_c, 7, 64, 100
1, 1657, Note_on_c, 7, 64, 0
1, 1687, Note_on_c, 3, 69, 0
1, 1687, Note_on_c, 3, 70, 127
1, 1687, Note_on_c, 7, 66, 0
1, 1687, Note_on_c, 7, 67, 100
1, 1687, Note_on_c, 7, 64, 100
1, 1717, Note_on_c, 7, 64, 0
1, 1747, Note_on_c, 3, 70, 0
1, 1747, Note_on_c, 3, 71, 127
1, 1747, Note_on_c, 7, 67, 0
1, 1747, Note_on_c, 7, 68, 100
1, 1747, Note_on_c, 7, 64, 100
1, 1807, Note_on_c, 3, 71, 0
1, 1807, Note_on_c, 7, 68, 0
1, 1807, Note_on_c, 7, 64, 0
1, 1867, Note_on_c, 3, 73, 127
1, 1867, Note_on_c, 7, 69, 100
1, 1897, Note_on_c, 3, 73, 0
1, 1897, Note_on_c, 3, 74, 127
1, 1897, Note_on_c, 7, 69, 0
1, 1897, Note_on_c, 7, 71, 100
1, 1927, Note_on_c, 3, 74, 0
1, 1927, Note_on_c, 3, 76, 127
1, 1927, Note_on_c, 7, 71, 0
1, 1927, Note_on_c, 7, 73, 100
1, 1927, Note_on_c, 7, 69, 100
1, 1957, Note_on_c, 3, 76, 0
1, 1957, Note_on_c, 7, 73, 0
1, 1957, Note_on_c, 7, 69, 0
1, 1987, Note_on_c, 3, 76, 127
1, 2017, Note_on_c, 3, 76, 0
1, 2047, Note_on_c, 3, 76, 127
1, 2047, Note_on_c, 7, 73, 100
1, 2047, Note_on_c, 7, 69, 100
1, 2077, Note_on_c, 3, 76, 0
1, 2077, Note_on_c, 7, 73, 0
1, 2077, Note_on_c, 7, 69, 0
1, 2107, Note_on_c, 3, 78, 127
1, 2107, Note_on_c, 7, 73, 100
1, 2107, Note_on_c, 7, 69, 100
1, 2137, Note_on_c, 3, 78, 0
1, 2137, Note_on_c, 3, 76, 127
1, 2137, Note_on_c, 7, 73, 0
1, 2137, Note_on_c, 7, 69, 0
1, 2167, Note_on_c, 3, 76, 0
1, 2167, Note_on_c, 3, 75, 127
1, 2167, Note_on_c, 7, 73, 100
1, 2167, Note_on_c, 7, 69, 100
1, 2197, Note_on_c, 3, 75, 0
1, 2197, Note_on_c, 3, 76, 127
1, 2197, Note_on_c, 7, 73, 0
1, 2197, Note_on_c, 7, 69, 0
1, 2227, Note_on_c, 3, 76, 0
1, 2227, Note_on_c, 3, 78, 127
1, 2227, Note_on_c, 7, 73, 100
1, 2227, Note_on_c, 7, 69, 100
1, 2257, Note_on_c, 3, 78, 0
1, 2257, Note_on_c, 3, 76, 127
1, 2257, Note_on_c, 7, 73, 0
1, 2257, Note_on_c, 7, 69, 0
1, 2287, Note_on_c, 3, 76, 0
1, 2287, Note_on_c, 3, 80, 127
1, 2287, Note_on_c, 7, 74, 100
1, 2287, Note_on_c, 7, 71, 100
1, 2287, Note_on_c, 7, 64, 100
1, 2407, Note_on_c, 7, 64, 0
1, 2407, Note_on_c, 7, 65, 100
1, 2467, Note_on_c, 3, 80, 0
1, 2467, Note_on_c, 3, 81, 127
1, 2467, Note_on_c, 7, 74, 0
1, 2467, Note_on_c, 7, 73, 100
1, 2467, Note_on_c, 7, 71, 0
1, 2467, Note_on_c, 7, 69, 100
1, 2467, Note_on_c, 7, 65, 0
1, 2467, Note_on_c, 7, 66, 100
1, 2497, Note_on_c, 7, 66, 0
1, 2527, Note_on_c, 3, 81, 0
1, 2527, Note_on_c, 7, 73, 0
1, 2527, Note_on_c, 7, 69, 0
1, 2587, Note_on_c, 3, 81, 127
1, 2617, Note_on_c, 3, 81, 0
1, 2617, Note_on_c, 3, 80, 127
1, 2647, Note_on_c, 3, 80, 0
1, 2647, Note_on_c, 3, 78, 127
1, 2647, Note_on_c, 7, 71, 100
1, 2647, Note_on_c, 7, 66, 100
1, 2647, Note_on_c, 7, 62, 100
1, 2662, Note_on_c, 3, 78, 0
1, 2677, Note_on_c, 3, 76, 127
1, 2692, Note_on_c, 3, 76, 0
1, 2707, Note_on_c, 3, 74, 127
1, 2707, Note_on_c, 7, 71, 0
1, 2707, Note_on_c, 7, 66, 0
1, 2707, Note_on_c, 7, 62, 0
1, 2722, Note_on_c, 3, 74, 0
1, 2737, Note_on_c, 3, 73, 127
1, 2752, Note_on_c, 3, 73, 0
1, 2767, Note_on_c, 3, 71, 127
1, 2782, Note_on_c, 3, 71, 0
1, 2797, Note_on_c, 3, 69, 127
1, 2812, Note_on_c, 3, 69, 0
1, 2827, Note_on_c, 3, 68, 127
1, 2827, Note_on_c, 7, 62, 100
1, 2827, Note_on_c, 7, 59, 100
1, 2827, Note_on_c, 7, 52, 100
1, 2842, Note_on_c, 3, 68, 0
1, 2857, Note_on_c, 3, 69, 127
1, 2872, Note_on_c, 3, 69, 0
1, 2887, Note_on_c, 3, 71, 127
1, 2887, Note_on_c, 7, 62, 0
1, 2887, Note_on_c, 7, 59, 0
1, 2887, Note_on_c, 7, 52, 0
1, 2902, Note_on_c, 3, 71, 0
1, 2917, Note_on_c, 3, 73, 127
1, 2932, Note_on_c, 3, 73, 0
1, 2947, Note_on_c, 3, 74, 127
1, 2962, Note_on_c, 3, 74, 0
1, 2977, Note_on_c, 3, 68, 127
1, 2992, Note_on_c, 3, 68, 0
1, 3007, Note_on_c, 3, 69, 127
1, 3007, Note_on_c, 7, 61, 100
1, 3007, Note_on_c, 7, 57, 100
1, 3037, Note_on_c, 7, 57, 0
1, 3067, Note_on_c, 7, 57, 100
1, 3097, Note_on_c, 7, 57, 0
1, 3127, Note_on_c, 3, 69, 0
1, 3127, Note_on_c, 3, 73, 127
1, 3127, Note_on_c, 7, 61, 0
1, 3127, Note_on_c, 7, 64, 100
1, 3127, Note_on_c, 7, 57, 100
1, 3157, Note_on_c, 7, 57, 0
1, 3187, Note_on_c, 3, 73, 0
1, 3187, Note_on_c, 3, 69, 127
1, 3187, Note_on_c, 7, 64, 0
1, 3187, Note_on_c, 7, 61, 100
1, 3187, Note_on_c, 7, 57, 100
1, 3247, Note_on_c, 7, 61, 0
1, 3247, Note_on_c, 7, 57, 0
1, 3307, Note_on_c, 3, 69, 0
1, 3307, Note_on_c, 7, 73, 100
1, 3307, Note_on_c, 7, 69, 100
1, 3337, Note_on_c, 7, 73, 0
1, 3337, Note_on_c, 7, 74, 100
1, 3337, Note_on_c, 7, 69, 0
1, 3337, Note_on_c, 7, 71, 100
1, 3367, Note_on_c, 7, 74, 0
1, 3367, Note_on_c, 7, 76, 100
1, 3367, Note_on_c, 7, 71, 0
1, 3367, Note_on_c, 7, 73, 100
1, 3367, Note_on_c, 7, 69, 100
1, 3397, Note_on_c, 7, 76, 0
1, 3397, Note_on_c, 7, 73, 0
1, 3397, Note_on_c, 7, 69, 0
1, 3427, Note_on_c, 4, 88, 80
1, 3427, Note_on_c, 4, 85, 80
1, 3427, Note_on_c, 5, 64, 80
1, 3427, Note_on_c, 5, 61, 80
1, 3427, Note_on_c, 6, 57, 80
1, 3427, Note_on_c, 6, 49, 80
1, 3427, Note_on_c, 7, 76, 100
1, 3427, Note_on_c, 7, 73, 100
1, 3427, Note_on_c, 7, 69, 100
1, 3427, Note_on_c, 7, 57, 100
1, 3427, Note_on_c, 7, 45, 100
1, 3457, Note_on_c, 4, 88, 0
1, 3457, Note_on_c, 4, 85, 0
1, 3457, Note_on_c, 5, 64, 0
1, 3457, Note_on_c, 5, 61, 0
1, 3457, Note_on_c, 6, 57, 0
1, 3457, Note_on_c, 6, 49, 0
1, 3457, Note_on_c, 7, 76, 0
1, 3457, Note_on_c, 7, 73, 0
1, 3457, Note_on_c, 7, 69, 0
1, 3457, Note_on_c, 7, 57, 0
1, 3457, Note_on_c, 7, 45, 0
1, 3487, Note_on_c, 4, 88, 80
1, 3487, Note_on_c, 4, 85, 80
1, 3487, Note_on_c, 5, 64, 80
1, 3487, Note_on_c, 5, 61, 80
1, 3487, Note_on_c, 6, 57, 80
1, 3487, Note_on_c, 6, 49, 80
1, 3487, Note_on_c, 7, 76, 100
1, 3487, Note_on_c, 7, 73, 100
1, 3487, Note_on_c, 7, 69, 100
1, 3487, Note_on_c, 7, 57, 100
1, 3487, Note_on_c, 7, 45, 100
1, 3517, Note_on_c, 4, 88, 0
1, 3517, Note_on_c, 4, 85, 0
1, 3517, Note_on_c, 5, 64, 0
1, 3517, Note_on_c, 5, 61, 0
1, 3517, Note_on_c, 6, 57, 0
1, 3517, Note_on_c, 6, 49, 0
1, 3517, Note_on_c, 7, 76, 0
1, 3517, Note_on_c, 7, 73, 0
1, 3517, Note_on_c, 7, 69, 0
1, 3517, Note_on_c, 7, 57, 0
1, 3517, Note_on_c, 7, 45, 0
1, 3547, Note_on_c, 4, 88, 80
1, 3547, Note_on_c, 4, 85, 80
1, 3547, Note_on_c, 5, 64, 80
1, 3547, Note_on_c, 5, 61, 80
1, 3547, Note_on_c, 6, 57, 80
1, 3547, Note_on_c, 6, 49, 80
1, 3547, Note_on_c, 7, 76, 100
1, 3547, Note_on_c, 7, 73, 100
1, 3547, Note_on_c, 7, 69, 100
1, 3547, Note_on_c, 7, 57, 100
1, 3547, Note_on_c, 7, 45, 100
1, 3577, Note_on_c, 4, 88, 0
1, 3577, Note_on_c, 4, 85, 0
1, 3577, Note_on_c, 5, 64, 0
1, 3577, Note_on_c, 5, 61, 0
1, 3577, Note_on_c, 6, 57, 0
1, 3577, Note_on_c, 6, 49, 0
1, 3577, Note_on_c, 7, 76, 0
1, 3577, Note_on_c, 7, 73, 0
1, 3577, Note_on_c, 7, 69, 0
1, 3577, Note_on_c, 7, 57, 0
1, 3577, Note_on_c, 7, 45, 0
1, 3607, Note_on_c, 4, 88, 80
1, 3607, Note_on_c, 4, 85, 80
1, 3607, Note_on_c, 5, 64, 80
1, 3607, Note_on_c, 5, 61, 80
1, 3607, Note_on_c, 6, 57, 80
1, 3607, Note_on_c, 6, 49, 80
1, 3607, Note_on_c, 7, 76, 100
1, 3607, Note_on_c, 7, 73, 100
1, 3607, Note_on_c, 7, 69, 100
1, 3607, Note_on_c, 7, 57, 100
1, 3607, Note_on_c, 7, 45, 100
1, 3637, Note_on_c, 4, 88, 0
1, 3637, Note_on_c, 4, 85, 0
1, 3637, Note_on_c, 5, 64, 0
1, 3637, Note_on_c, 5, 61, 0
1, 3637, Note_on_c, 6, 57, 0
1, 3637, Note_on_c, 6, 49, 0
1, 3637, Note_on_c, 7, 76, 0
1, 3637, Note_on_c, 7, 69, 0
1, 3637, Note_on_c, 7, 57, 0
1, 3637, Note_on_c, 7, 45, 0
1, 3667, Note_on_c, 4, 88, 80
1, 3667, Note_on_c, 4, 85, 80
1, 3667, Note_on_c, 5, 64, 80
1, 3667, Note_on_c, 5, 61, 80
1, 3667, Note_on_c, 6, 57, 80
1, 3667, Note_on_c, 6, 49, 80
1, 3667, Note_on_c, 7, 76, 100
1, 3667, Note_on_c, 7, 73, 0
1, 3667, Note_on_c, 7, 73, 100
1, 3667, Note_on_c, 7, 69, 100
1, 3667, Note_on_c, 7, 57, 100
1, 3667, Note_on_c, 7, 45, 100
1, 3697, Note_on_c, 4, 88, 0
1, 3697, Note_on_c, 4, 85, 0
1, 3697, Note_on_c, 5, 64, 0
1, 3697, Note_on_c, 5, 61, 0
1, 3697, Note_on_c, 6, 57, 0
1, 3697, Note_on_c, 6, 49, 0
1, 3697, Note_on_c, 7, 76, 0
1, 3697, Note_on_c, 7, 73, 0
1, 3697, Note_on_c, 7, 69, 0
1, 3697, Note_on_c, 7, 57, 0
1, 3697, Note_on_c, 7, 45, 0
1, 3727, Note_on_c, 4, 86, 80
1, 3727, Note_on_c, 4, 83, 80
1, 3727, Note_on_c, 5, 62, 80
1, 3727, Note_on_c, 5, 68, 80
1, 3727, Note_on_c, 6, 59, 80
1, 3727, Note_on_c, 6, 52, 80
1, 3727, Note_on_c, 7, 80, 100
1, 3727, Note_on_c, 7, 74, 100
1, 3727, Note_on_c, 7, 71, 100
1, 3727, Note_on_c, 7, 52, 100
1, 3727, Note_on_c, 7, 40, 100
1, 3907, Note_on_c, 4, 86, 0
1, 3907, Note_on_c, 4, 85, 80
1, 3907, Note_on_c, 4, 83, 0
1, 3907, Note_on_c, 4, 81, 80
1, 3907, Note_on_c, 5, 62, 0
1, 3907, Note_on_c, 5, 61, 80
1, 3907, Note_on_c, 5, 68, 0
1, 3907, Note_on_c, 5, 69, 80
1, 3907, Note_on_c, 6, 59, 0
1, 3907, Note_on_c, 6, 61, 80
1, 3907, Note_on_c, 6, 52, 0
1, 3907, Note_on_c, 6, 57, 80
1, 3907, Note_on_c, 7, 80, 0
1, 3907, Note_on_c, 7, 81, 100
1, 3907, Note_on_c, 7, 74, 0
1, 3907, Note_on_c, 7, 73, 100
1, 3907, Note_on_c, 7, 71, 0
1, 3907, Note_on_c, 7, 69, 100
1, 3907, Note_on_c, 7, 52, 0
1, 3907, Note_on_c, 7, 54, 100
1, 3907, Note_on_c, 7, 40, 0
1, 3907, Note_on_c, 7, 42, 100
1, 3967, Note_on_c, 4, 85, 0
1, 3967, Note_on_c, 4, 81, 0
1, 3967, Note_on_c, 5, 61, 0
1, 3967, Note_on_c, 5, 69, 0
1, 3967, Note_on_c, 6, 61, 0
1, 3967, Note_on_c, 6, 57, 0
1, 3967, Note_on_c, 7, 81, 0
1, 3967, Note_on_c, 7, 73, 0
1, 3967, Note_on_c, 7, 69, 0
1, 3967, Note_on_c, 7, 54, 0
1, 3967, Note_on_c, 7, 42, 0
1, 4027, Note_on_c, 7, 81, 100
1, 4027, Note_on_c, 7, 78, 100
1, 4057, Note_on_c, 7, 81, 0
1, 4057, Note_on_c, 7, 80, 100
1, 4057, Note_on_c, 7, 78, 0
1, 4057, Note_on_c, 7, 76, 100
1, 4087, Note_on_c, 7, 80, 0
1, 4087, Note_on_c, 7, 78, 100
1, 4087, Note_on_c, 7, 76, 0
1, 4087, Note_on_c, 7, 74, 100
1, 4117, Note_on_c, 7, 78, 0
1, 4117, Note_on_c, 7, 74, 0
1, 4147, Note_on_c, 7, 62, 100
1, 4147, Note_on_c, 7, 50, 100
1, 4147, Note_on_c, 7, 38, 100
1, 4177, Note_on_c, 7, 62, 0
1, 4177, Note_on_c, 7, 50, 0
1, 4177, Note_on_c, 7, 38, 0
1, 4207, Note_on_c, 7, 78, 100
1, 4207, Note_on_c, 7, 74, 100
1, 4237, Note_on_c, 7, 78, 0
1, 4237, Note_on_c, 7, 76, 100
1, 4237, Note_on_c, 7, 74, 0
1, 4237, Note_on_c, 7, 73, 100
1, 4267, Note_on_c, 7, 76, 0
1, 4267, Note_on_c, 7, 74, 100
1, 4267, Note_on_c, 7, 73, 0
1, 4267, Note_on_c, 7, 71, 100
1, 4297, Note_on_c, 7, 74, 0
1, 4297, Note_on_c, 7, 71, 0
1, 4327, Note_on_c, 7, 62, 100
1, 4327, Note_on_c, 7, 50, 100
1, 4327, Note_on_c, 7, 38, 100
1, 4357, Note_on_c, 7, 62, 0
1, 4357, Note_on_c, 7, 50, 0
1, 4357, Note_on_c, 7, 38, 0
1, 4387, Note_on_c, 7, 74, 100
1, 4387, Note_on_c, 7, 71, 100
1, 4417, Note_on_c, 7, 74, 0
1, 4417, Note_on_c, 7, 73, 100
1, 4417, Note_on_c, 7, 71, 0
1, 4417, Note_on_c, 7, 69, 100
1, 4447, Note_on_c, 7, 73, 0
1, 4447, Note_on_c, 7, 71, 100
1, 4447, Note_on_c, 7, 69, 0
1, 4447, Note_on_c, 7, 69, 100
1, 4447, Note_on_c, 7, 64, 100
1, 4447, Note_on_c, 7, 52, 100
1, 4447, Note_on_c, 7, 40, 100
1, 4477, Note_on_c, 7, 71, 0
1, 4477, Note_on_c, 7, 69, 0
1, 4477, Note_on_c, 7, 64, 0
1, 4477, Note_on_c, 7, 52, 0
1, 4477, Note_on_c, 7, 40, 0
1, 4507, Note_on_c, 7, 71, 100
1, 4507, Note_on_c, 7, 68, 100
1, 4507, Note_on_c, 7, 64, 100
1, 4507, Note_on_c, 7, 52, 100
1, 4507, Note_on_c, 7, 40, 100
1, 4537, Note_on_c, 7, 71, 0
1, 4537, Note_on_c, 7, 73, 100
1, 4537, Note_on_c, 7, 68, 0
1, 4537, Note_on_c, 7, 69, 100
1, 4537, Note_on_c, 7, 64, 0
1, 4537, Note_on_c, 7, 52, 0
1, 4537, Note_on_c, 7, 40, 0
1, 4567, Note_on_c, 7, 73, 0
1, 4567, Note_on_c, 7, 66, 100
1, 4567, Note_on_c, 7, 64, 100
1, 4567, Note_on_c, 7, 52, 100
1, 4567, Note_on_c, 7, 40, 100
1, 4597, Note_on_c, 7, 69, 0
1, 4597, Note_on_c, 7, 73, 100
1, 4597, Note_on_c, 7, 66, 0
1, 4597, Note_on_c, 7, 69, 100
1, 4597, Note_on_c, 7, 64, 0
1, 4597, Note_on_c, 7, 52, 0
1, 4597, Note_on_c, 7, 40, 0
1, 4627, Note_on_c, 7, 73, 0
1, 4627, Note_on_c, 7, 71, 100
1, 4627, Note_on_c, 7, 69, 0
1, 4627, Note_on_c, 7, 68, 100
1, 4627, Note_on_c, 7, 64, 100
1, 4627, Note_on_c, 7, 52, 100
1, 4627, Note_on_c, 7, 40, 100
1, 4687, Note_on_c, 7, 71, 0
1, 4687, Note_on_c, 7, 68, 0
1, 4687, Note_on_c, 7, 64, 0
1, 4687, Note_on_c, 7, 52, 0
1, 4687, Note_on_c, 7, 40, 0
1, 4747, Note_on_c, 7, 73, 100
1, 4747, Note_on_c, 7, 69, 100
1, 4777, Note_on_c, 7, 73, 0
1, 4777, Note_on_c, 7, 74, 100
1, 4777, Note_on_c, 7, 69, 0
1, 4777, Note_on_c, 7, 71, 100
1, 4807, Note_on_c, 7, 74, 0
1, 4807, Note_on_c, 7, 76, 100
1, 4807, Note_on_c, 7, 71, 0
1, 4807, Note_on_c, 7, 73, 100
1, 4837, Note_on_c, 7, 76, 0
1, 4837, Note_on_c, 7, 73, 0
1, 4867, Note_on_c, 4, 88, 80
1, 4867, Note_on_c, 4, 85, 80
1, 4867, Note_on_c, 5, 64, 80
1, 4867, Note_on_c, 5, 61, 80
1, 4867, Note_on_c, 6, 57, 80
1, 4867, Note_on_c, 6, 49, 80
1, 4867, Note_on_c, 7, 76, 100
1, 4867, Note_on_c, 7, 73, 100
1, 4867, Note_on_c, 7, 69, 100
1, 4867, Note_on_c, 7, 57, 100
1, 4867, Note_on_c, 7, 45, 100
1, 4897, Note_on_c, 4, 88, 0
1, 4897, Note_on_c, 4, 85, 0
1, 4897, Note_on_c, 5, 64, 0
1, 4897, Note_on_c, 5, 61, 0
1, 4897, Note_on_c, 6, 57, 0
1, 4897, Note_on_c, 6, 49, 0
1, 4897, Note_on_c, 7, 76, 0
1, 4897, Note_on_c, 7, 73, 0
1, 4897, Note_on_c, 7, 69, 0
1, 4897, Note_on_c, 7, 57, 0
1, 4897, Note_on_c, 7, 45, 0
1, 4927, Note_on_c, 4, 88, 80
1, 4927, Note_on_c, 4, 85, 80
1, 4927, Note_on_c, 5, 64, 80
1, 4927, Note_on_c, 5, 61, 80
1, 4927, Note_on_c, 6, 57, 80
1, 4927, Note_on_c, 6, 49, 80
1, 4927, Note_on_c, 7, 76, 100
1, 4927, Note_on_c, 7, 73, 100
1, 4927, Note_on_c, 7, 69, 100
1, 4927, Note_on_c, 7, 57, 100
1, 4927, Note_on_c, 7, 45, 100
1, 4957, Note_on_c, 4, 88, 0
1, 4957, Note_on_c, 4, 85, 0
1, 4957, Note_on_c, 5, 64, 0
1, 4957, Note_on_c, 5, 61, 0
1, 4957, Note_on_c, 6, 57, 0
1, 4957, Note_on_c, 6, 49, 0
1, 4957, Note_on_c, 7, 76, 0
1, 4957, Note_on_c, 7, 73, 0
1, 4957, Note_on_c, 7, 69, 0
1, 4957, Note_on_c, 7, 57, 0
1, 4957, Note_on_c, 7, 45, 0
1, 4987, Note_on_c, 4, 88, 80
1, 4987, Note_on_c, 4, 85, 80
1, 4987, Note_on_c, 5, 64, 80
1, 4987, Note_on_c, 5, 61, 80
1, 4987, Note_on_c, 6, 57, 80
1, 4987, Note_on_c, 6, 49, 80
1, 4987, Note_on_c, 7, 76, 100
1, 4987, Note_on_c, 7, 73, 100
1, 4987, Note_on_c, 7, 69, 100
1, 4987, Note_on_c, 7, 57, 100
1, 4987, Note_on_c, 7, 45, 100
1, 5017, Note_on_c, 4, 88, 0
1, 5017, Note_on_c, 4, 85, 0
1, 5017, Note_on_c, 5, 64, 0
1, 5017, Note_on_c, 5, 61, 0
1, 5017, Note_on_c, 6, 57, 0
1, 5017, Note_on_c, 6, 49, 0
1, 5017, Note_on_c, 7, 76, 0
1, 5017, Note_on_c, 7, 73, 0
1, 5017, Note_on_c, 7, 69, 0
1, 5017, Note_on_c, 7, 57, 0
1, 5017, Note_on_c, 7, 45, 0
1, 5047, Note_on_c, 4, 88, 80
1, 5047, Note_on_c, 4, 85, 80
1, 5047, Note_on_c, 5, 64, 80
1, 5047, Note_on_c, 5, 61, 80
1, 5047, Note_on_c, 6, 57, 80
1, 5047, Note_on_c, 6, 49, 80
1, 5047, Note_on_c, 7, 76, 100
1, 5047, Note_on_c, 7, 73, 100
1, 5047, Note_on_c, 7, 69, 100
1, 5047, Note_on_c, 7, 57, 100
1, 5047, Note_on_c, 7, 45, 100
1, 5077, Note_on_c, 4, 88, 0
1, 5077, Note_on_c, 4, 85, 0
1, 5077, Note_on_c, 5, 64, 0
1, 5077, Note_on_c, 5, 61, 0
1, 5077, Note_on_c, 6, 57, 0
1, 5077, Note_on_c, 6, 49, 0
1, 5077, Note_on_c, 7, 76, 0
1, 5077, Note_on_c, 7, 73, 0
1, 5077, Note_on_c, 7, 69, 0
1, 5077, Note_on_c, 7, 57, 0
1, 5077, Note_on_c, 7, 45, 0
1, 5107, Note_on_c, 4, 88, 80
1, 5107, Note_on_c, 4, 85, 80
1, 5107, Note_on_c, 5, 64, 80
1, 5107, Note_on_c, 5, 61, 80
1, 5107, Note_on_c, 6, 57, 80
1, 5107, Note_on_c, 6, 49, 80
1, 5107, Note_on_c, 7, 76, 100
1, 5107, Note_on_c, 7, 73, 100
1, 5107, Note_on_c, 7, 69, 100
1, 5107, Note_on_c, 7, 57, 100
1, 5107, Note_on_c, 7, 45, 100
1, 5137, Note_on_c, 4, 88, 0
1, 5137, Note_on_c, 4, 85, 0
1, 5137, Note_on_c, 5, 64, 0
1, 5137, Note_on_c, 5, 61, 0
1, 5137, Note_on_c, 6, 57, 0
1, 5137, Note_on_c, 6, 49, 0
1, 5137, Note_on_c, 7, 76, 0
1, 5137, Note_on_c, 7, 73, 0
1, 5137, Note_on_c, 7, 69, 0
1, 5137, Note_on_c, 7, 57, 0
1, 5137, Note_on_c, 7, 45, 0
1, 5167, Note_on_c, 4, 86, 80
1, 5167, Note_on_c, 4, 83, 80
1, 5167, Note_on_c, 5, 62, 80
1, 5167, Note_on_c, 5, 68, 80
1, 5167, Note_on_c, 6, 59, 80
1, 5167, Note_on_c, 6, 52, 80
1, 5167, Note_on_c, 7, 86, 100
1, 5167, Note_on_c, 7, 71, 100
1, 5167, Note_on_c, 7, 80, 100
1, 5167, Note_on_c, 7, 64, 100
1, 5167, Note_on_c, 7, 52, 100
1, 5167, Note_on_c, 7, 40, 100
1, 5287, Note_on_c, 7, 64, 0
1, 5287, Note_on_c, 7, 65, 100
1, 5287, Note_on_c, 7, 52, 0
1, 5287, Note_on_c, 7, 53, 100
1, 5287, Note_on_c, 7, 40, 0
1, 5287, Note_on_c, 7, 41, 100
1, 5347, Note_on_c, 4, 86, 0
1, 5347, Note_on_c, 4, 85, 80
1, 5347, Note_on_c, 4, 83, 0
1, 5347, Note_on_c, 4, 81, 80
1, 5347, Note_on_c, 5, 62, 0
1, 5347, Note_on_c, 5, 61, 80
1, 5347, Note_on_c, 5, 68, 0
1, 5347, Note_on_c, 5, 69, 80
1, 5347, Note_on_c, 6, 59, 0
1, 5347, Note_on_c, 6, 61, 80
1, 5347, Note_on_c, 6, 52, 0
1, 5347, Note_on_c, 6, 57, 80
1, 5347, Note_on_c, 7, 86, 0
1, 5347, Note_on_c, 7, 85, 100
1, 5347, Note_on_c, 7, 71, 0
1, 5347, Note_on_c, 7, 80, 0
1, 5347, Note_on_c, 7, 69, 100
1, 5347, Note_on_c, 7, 81, 100
1, 5347, Note_on_c, 7, 65, 0
1, 5347, Note_on_c, 7, 66, 100
1, 5347, Note_on_c, 7, 53, 0
1, 5347, Note_on_c, 7, 54, 100
1, 5347, Note_on_c, 7, 41, 0
1, 5347, Note_on_c, 7, 42, 100
1, 5377, Note_on_c, 7, 66, 0
1, 5377, Note_on_c, 7, 54, 0
1, 5377, Note_on_c, 7, 42, 0
1, 5407, Note_on_c, 4, 85, 0
1, 5407, Note_on_c, 4, 81, 0
1, 5407, Note_on_c, 5, 61, 0
1, 5407, Note_on_c, 5, 69, 0
1, 5407, Note_on_c, 6, 61, 0
1, 5407, Note_on_c, 6, 57, 0
1, 5407, Note_on_c, 7, 85, 0
1, 5407, Note_on_c, 7, 69, 0
1, 5407, Note_on_c, 7, 81, 0
1, 5467, Note_on_c, 7, 81, 100
1, 5467, Note_on_c, 7, 73, 100
1, 5497, Note_on_c, 7, 81, 0
1, 5497, Note_on_c, 7, 80, 100
1, 5497, Note_on_c, 7, 73, 0
1, 5497, Note_on_c, 7, 76, 100
1, 5527, Note_on_c, 7, 80, 0
1, 5527, Note_on_c, 7, 78, 100
1, 5527, Note_on_c, 7, 76, 0
1, 5527, Note_on_c, 7, 74, 100
1, 5557, Note_on_c, 7, 78, 0
1, 5557, Note_on_c, 7, 74, 0
1, 5587, Note_on_c, 7, 62, 100
1, 5587, Note_on_c, 7, 50, 100
1, 5587, Note_on_c, 7, 38, 100
1, 5617, Note_on_c, 7, 62, 0
1, 5617, Note_on_c, 7, 50, 0
1, 5617, Note_on_c, 7, 38, 0
1, 5647, Note_on_c, 7, 74, 100
1, 5647, Note_on_c, 7, 66, 100
1, 5677, Note_on_c, 7, 74, 0
1, 5677, Note_on_c, 7, 73, 100
1, 5677, Note_on_c, 7, 66, 0
1, 5677, Note_on_c, 7, 69, 100
1, 5707, Note_on_c, 7, 73, 0
1, 5707, Note_on_c, 7, 71, 100
1, 5707, Note_on_c, 7, 69, 0
1, 5707, Note_on_c, 7, 68, 100
1, 5737, Note_on_c, 7, 71, 0
1, 5737, Note_on_c, 7, 68, 0
1, 5767, Note_on_c, 7, 64, 100
1, 5767, Note_on_c, 7, 52, 100
1, 5767, Note_on_c, 7, 40, 100
1, 5797, Note_on_c, 7, 64, 0
1, 5797, Note_on_c, 7, 52, 0
1, 5797, Note_on_c, 7, 40, 0
1, 5827, Note_on_c, 7, 76, 100
1, 5827, Note_on_c, 7, 59, 100
1, 5857, Note_on_c, 7, 76, 0
1, 5857, Note_on_c, 7, 68, 100
1, 5857, Note_on_c, 7, 59, 0
1, 5857, Note_on_c, 7, 62, 100
1, 5887, Note_on_c, 7, 68, 0
1, 5887, Note_on_c, 7, 69, 100
1, 5887, Note_on_c, 7, 62, 0
1, 5887, Note_on_c, 7, 61, 100
1, 5887, Note_on_c, 7, 57, 100
1, 5887, Note_on_c, 7, 45, 100
1, 5887, Note_on_c, 7, 33, 100
1, 5917, Note_on_c, 7, 57, 0
1, 5917, Note_on_c, 7, 45, 0
1, 5917, Note_on_c, 7, 33, 0
1, 5947, Note_on_c, 7, 57, 100
1, 5947, Note_on_c, 7, 45, 100
1, 5947, Note_on_c, 7, 33, 100
1, 5977, Note_on_c, 7, 57, 0
1, 5977, Note_on_c, 7, 45, 0
1, 5977, Note_on_c, 7, 33, 0
1, 6007, Note_on_c, 7, 69, 0
1, 6007, Note_on_c, 7, 73, 100
1, 6007, Note_on_c, 7, 61, 0
1, 6007, Note_on_c, 7, 64, 100
1, 6007, Note_on_c, 7, 57, 100
1, 6007, Note_on_c, 7, 45, 100
1, 6007, Note_on_c, 7, 33, 100
1, 6037, Note_on_c, 7, 57, 0
1, 6037, Note_on_c, 7, 45, 0
1, 6037, Note_on_c, 7, 33, 0
1, 6067, Note_on_c, 7, 73, 0
1, 6067, Note_on_c, 7, 69, 100
1, 6067, Note_on_c, 7, 64, 0
1, 6067, Note_on_c, 7, 61, 100
1, 6067, Note_on_c, 7, 57, 100
1, 6067, Note_on_c, 7, 45, 100
1, 6067, Note_on_c, 7, 33, 100
1, 6127, Note_on_c, 7, 57, 0
1, 6127, Note_on_c, 7, 45, 0
1, 6127, Note_on_c, 7, 33, 0
1, 6187, Note_on_c, 3, 64, 127
1, 6187, Note_on_c, 7, 69, 0
1, 6187, Note_on_c, 7, 61, 0
1, 6217, Note_on_c, 3, 64, 0
1, 6217, Note_on_c, 3, 66, 127
1, 6247, Note_on_c, 3, 66, 0
1, 6247, Note_on_c, 3, 68, 127
1, 6247, Note_on_c, 7, 52, 100
1, 6247, Note_on_c, 7, 40, 100
1, 6277, Note_on_c, 3, 68, 0
1, 6277, Note_on_c, 3, 69, 127
1, 6307, Note_on_c, 3, 69, 0
1, 6307, Note_on_c, 3, 71, 127
1, 6307, Note_on_c, 7, 62, 100
1, 6307, Note_on_c, 7, 64, 100
1, 6307, Note_on_c, 7, 59, 100
1, 6307, Note_on_c, 7, 56, 100
1, 6337, Note_on_c, 3, 71, 0
1, 6337, Note_on_c, 3, 73, 127
1, 6367, Note_on_c, 3, 73, 0
1, 6367, Note_on_c, 3, 74, 127
1, 6367, Note_on_c, 7, 62, 0
1, 6367, Note_on_c, 7, 64, 0
1, 6367, Note_on_c, 7, 62, 100
1, 6367, Note_on_c, 7, 64, 100
1, 6367, Note_on_c, 7, 59, 0
1, 6367, Note_on_c, 7, 59, 100
1, 6367, Note_on_c, 7, 56, 0
1, 6367, Note_on_c, 7, 56, 100
1, 6397, Note_on_c, 3, 74, 0
1, 6397, Note_on_c, 3, 76, 127
1, 6427, Note_on_c, 3, 76, 0
1, 6427, Note_on_c, 3, 74, 127
1, 6427, Note_on_c, 7, 62, 0
1, 6427, Note_on_c, 7, 64, 0
1, 6427, Note_on_c, 7, 62, 100
1, 6427, Note_on_c, 7, 64, 100
1, 6427, Note_on_c, 7, 59, 0
1, 6427, Note_on_c, 7, 59, 100
1, 6427, Note_on_c, 7, 56, 0
1, 6427, Note_on_c, 7, 56, 100
1, 6457, Note_on_c, 3, 74, 0
1, 6457, Note_on_c, 3, 73, 127
1, 6487, Note_on_c, 3, 73, 0
1, 6487, Note_on_c, 3, 71, 127
1, 6487, Note_on_c, 7, 62, 0
1, 6487, Note_on_c, 7, 64, 0
1, 6487, Note_on_c, 7, 62, 100
1, 6487, Note_on_c, 7, 64, 100
1, 6487, Note_on_c, 7, 59, 0
1, 6487, Note_on_c, 7, 59, 100
1, 6487, Note_on_c, 7, 56, 0
1, 6487, Note_on_c, 7, 56, 100
1, 6517, Note_on_c, 3, 71, 0
1, 6517, Note_on_c, 3, 69, 127
1, 6547, Note_on_c, 3, 69, 0
1, 6547, Note_on_c, 3, 68, 127
1, 6547, Note_on_c, 7, 62, 0
1, 6547, Note_on_c, 7, 64, 0
1, 6547, Note_on_c, 7, 62, 100
1, 6547, Note_on_c, 7, 64, 100
1, 6547, Note_on_c, 7, 59, 0
1, 6547, Note_on_c, 7, 59, 100
1, 6547, Note_on_c, 7, 56, 0
1, 6547, Note_on_c, 7, 56, 100
1, 6577, Note_on_c, 3, 68, 0
1, 6577, Note_on_c, 3, 71, 127
1, 6607, Note_on_c, 3, 71, 0
1, 6607, Note_on_c, 3, 69, 127
1, 6607, Note_on_c, 7, 62, 0
1, 6607, Note_on_c, 7, 64, 0
1, 6607, Note_on_c, 7, 59, 0
1, 6607, Note_on_c, 7, 56, 0
1, 6607, Note_on_c, 7, 52, 0
1, 6607, Note_on_c, 7, 57, 100
1, 6607, Note_on_c, 7, 40, 0
1, 6607, Note_on_c, 7, 45, 100
1, 6637, Note_on_c, 3, 69, 0
1, 6637, Note_on_c, 3, 71, 127
1, 6667, Note_on_c, 3, 71, 0
1, 6667, Note_on_c, 3, 73, 127
1, 6667, Note_on_c, 7, 61, 100
1, 6667, Note_on_c, 7, 64, 100
1, 6697, Note_on_c, 3, 73, 0
1, 6697, Note_on_c, 3, 74, 127
1, 6727, Note_on_c, 3, 74, 0
1, 6727, Note_on_c, 3, 76, 127
1, 6727, Note_on_c, 7, 61, 0
1, 6727, Note_on_c, 7, 64, 0
1, 6727, Note_on_c, 7, 61, 100
1, 6727, Note_on_c, 7, 64, 100
1, 6727, Note_on_c, 7, 45, 0
1, 6757, Note_on_c, 3, 76, 0
1, 6757, Note_on_c, 3, 78, 127
1, 6787, Note_on_c, 3, 78, 0
1, 6787, Note_on_c, 3, 76, 127
1, 6787, Note_on_c, 7, 61, 0
1, 6787, Note_on_c, 7, 64, 0
1, 6787, Note_on_c, 7, 61, 100
1, 6787, Note_on_c, 7, 64, 100
1, 6847, Note_on_c, 3, 76, 0
1, 6847, Note_on_c, 7, 61, 0
1, 6847, Note_on_c, 7, 64, 0
1, 6847, Note_on_c, 7, 61, 100
1, 6847, Note_on_c, 7, 64, 100
1, 6907, Note_on_c, 3, 71, 127
1, 6907, Note_on_c, 7, 61, 0
1, 6907, Note_on_c, 7, 64, 0
1, 6907, Note_on_c, 7, 61, 100
1, 6907, Note_on_c, 7, 64, 100
1, 6937, Note_on_c, 3, 71, 0
1, 6937, Note_on_c, 3, 73, 127
1, 6967, Note_on_c, 3, 73, 0
1, 6967, Note_on_c, 3, 75, 127
1, 6967, Note_on_c, 7, 61, 0
1, 6967, Note_on_c, 7, 64, 0
1, 6967, Note_on_c, 7, 57, 0
1, 6967, Note_on_c, 7, 59, 100
1, 6967, Note_on_c, 7, 47, 100
1, 6997, Note_on_c, 3, 75, 0
1, 6997, Note_on_c, 3, 76, 127
1, 7027, Note_on_c, 3, 76, 0
1, 7027, Note_on_c, 3, 78, 127
1, 7027, Note_on_c, 7, 69, 100
1, 7027, Note_on_c, 7, 71, 100
1, 7027, Note_on_c, 7, 66, 100
1, 7027, Note_on_c, 7, 63, 100
1, 7057, Note_on_c, 3, 78, 0
1, 7057, Note_on_c, 3, 80, 127
1, 7087, Note_on_c, 3, 80, 0
1, 7087, Note_on_c, 3, 81, 127
1, 7087, Note_on_c, 7, 69, 0
1, 7087, Note_on_c, 7, 71, 0
1, 7087, Note_on_c, 7, 69, 100
1, 7087, Note_on_c, 7, 71, 100
1, 7087, Note_on_c, 7, 66, 0
1, 7087, Note_on_c, 7, 66, 100
1, 7087, Note_on_c, 7, 63, 0
1, 7087, Note_on_c, 7, 63, 100
1, 7117, Note_on_c, 3, 81, 0
1, 7117, Note_on_c, 3, 83, 127
1, 7147, Note_on_c, 3, 83, 0
1, 7147, Note_on_c, 3, 81, 127
1, 7147, Note_on_c, 7, 69, 0
1, 7147, Note_on_c, 7, 71, 0
1, 7147, Note_on_c, 7, 69, 100
1, 7147, Note_on_c, 7, 71, 100
1, 7147, Note_on_c, 7, 66, 0
1, 7147, Note_on_c, 7, 66, 100
1, 7147, Note_on_c, 7, 63, 0
1, 7147, Note_on_c, 7, 63, 100
1, 7177, Note_on_c, 3, 81, 0
1, 7177, Note_on_c, 3, 80, 127
1, 7207, Note_on_c, 3, 80, 0
1, 7207, Note_on_c, 3, 78, 127
1, 7207, Note_on_c, 7, 69, 0
1, 7207, Note_on_c, 7, 71, 0
1, 7207, Note_on_c, 7, 69, 100
1, 7207, Note_on_c, 7, 71, 100
1, 7207, Note_on_c, 7, 66, 0
1, 7207, Note_on_c, 7, 66, 100
1, 7207, Note_on_c, 7, 63, 0
1, 7207, Note_on_c, 7, 63, 100
1, 7237, Note_on_c, 3, 78, 0
1, 7237, Note_on_c, 3, 76, 127
1, 7267, Note_on_c, 3, 76, 0
1, 7267, Note_on_c, 3, 75, 127
1, 7267, Note_on_c, 7, 69, 0
1, 7267, Note_on_c, 7, 71, 0
1, 7267, Note_on_c, 7, 69, 100
1, 7267, Note_on_c, 7, 71, 100
1, 7267, Note_on_c, 7, 66, 0
1, 7267, Note_on_c, 7, 66, 100
1, 7267, Note_on_c, 7, 63, 0
1, 7267, Note_on_c, 7, 63, 100
1, 7297, Note_on_c, 3, 75, 0
1, 7297, Note_on_c, 3, 78, 127
1, 7327, Note_on_c, 3, 78, 0
1, 7327, Note_on_c, 3, 76, 127
1, 7327, Note_on_c, 7, 69, 0
1, 7327, Note_on_c, 7, 71, 0
1, 7327, Note_on_c, 7, 68, 100
1, 7327, Note_on_c, 7, 71, 100
1, 7327, Note_on_c, 7, 66, 0
1, 7327, Note_on_c, 7, 64, 100
1, 7327, Note_on_c, 7, 63, 0
1, 7327, Note_on_c, 7, 59, 0
1, 7327, Note_on_c, 7, 52, 100
1, 7327, Note_on_c, 7, 47, 0
1, 7327, Note_on_c, 7, 40, 100
1, 7357, Note_on_c, 3, 76, 0
1, 7357, Note_on_c, 3, 80, 127
1, 7387, Note_on_c, 3, 80, 0
1, 7387, Note_on_c, 3, 83, 127
1, 7417, Note_on_c, 3, 83, 0
1, 7417, Note_on_c, 3, 80, 127
1, 7447, Note_on_c, 3, 80, 0
1, 7447, Note_on_c, 3, 76, 127
1, 7447, Note_on_c, 7, 68, 0
1, 7447, Note_on_c, 7, 71, 0
1, 7447, Note_on_c, 7, 64, 0
1, 7447, Note_on_c, 7, 52, 0
1, 7447, Note_on_c, 7, 40, 0
1, 7477, Note_on_c, 3, 76, 0
1, 7477, Note_on_c, 3, 71, 127
1, 7507, Note_on_c, 3, 71, 0
1, 7507, Note_on_c, 3, 68, 127
1, 7537, Note_on_c, 3, 68, 0
1, 7537, Note_on_c, 3, 71, 127
1, 7567, Note_on_c, 3, 71, 0
1, 7567, Note_on_c, 3, 69, 127
1, 7597, Note_on_c, 3, 69, 0
1, 7597, Note_on_c, 3, 68, 127
1, 7627, Note_on_c, 3, 68, 0
1, 7627, Note_on_c, 3, 69, 127
1, 7627, Note_on_c, 7, 63, 100
1, 7627, Note_on_c, 7, 57, 100
1, 7627, Note_on_c, 7, 59, 100
1, 7627, Note_on_c, 7, 47, 100
1, 7627, Note_on_c, 7, 35, 100
1, 7657, Note_on_c, 3, 69, 0
1, 7657, Note_on_c, 3, 66, 127
1, 7657, Note_on_c, 7, 63, 0
1, 7657, Note_on_c, 7, 57, 0
1, 7657, Note_on_c, 7, 59, 0
1, 7657, Note_on_c, 7, 47, 0
1, 7657, Note_on_c, 7, 35, 0
1, 7687, Note_on_c, 3, 66, 0
1, 7687, Note_on_c, 3, 64, 127
1, 7687, Note_on_c, 7, 64, 100
1, 7687, Note_on_c, 7, 56, 100
1, 7687, Note_on_c, 7, 59, 100
1, 7687, Note_on_c, 7, 52, 100
1, 7687, Note_on_c, 7, 40, 100
1, 7717, Note_on_c, 3, 64, 0
1, 7717, Note_on_c, 3, 68, 127
1, 7747, Note_on_c, 3, 68, 0
1, 7747, Note_on_c, 3, 71, 127
1, 7777, Note_on_c, 3, 71, 0
1, 7777, Note_on_c, 3, 68, 127
1, 7807, Note_on_c, 3, 68, 0
1, 7807, Note_on_c, 3, 64, 127
1, 7807, Note_on_c, 7, 64, 0
1, 7807, Note_on_c, 7, 56, 0
1, 7807, Note_on_c, 7, 59, 0
1, 7807, Note_on_c, 7, 52, 0
1, 7807, Note_on_c, 7, 40, 0
1, 7837, Note_on_c, 3, 64, 0
1, 7837, Note_on_c, 3, 59, 127
1, 7867, Note_on_c, 3, 59, 0
1, 7867, Note_on_c, 3, 56, 127
1, 7897, Note_on_c, 3, 56, 0
1, 7897, Note_on_c, 3, 59, 127
1, 7927, Note_on_c, 3, 59, 0
1, 7927, Note_on_c, 3, 57, 127
1, 7957, Note_on_c, 3, 57, 0
1, 7957, Note_on_c, 3, 56, 127
1, 7987, Note_on_c, 3, 56, 0
1, 7987, Note_on_c, 3, 57, 127
1, 7987, Note_on_c, 7, 63, 100
1, 7987, Note_on_c, 7, 57, 100
1, 7987, Note_on_c, 7, 59, 100
1, 7987, Note_on_c, 7, 47, 100
1, 7987, Note_on_c, 7, 35, 100
1, 8017, Note_on_c, 3, 57, 0
1, 8017, Note_on_c, 3, 54, 127
1, 8017, Note_on_c, 7, 63, 0
1, 8017, Note_on_c, 7, 57, 0
1, 8017, Note_on_c, 7, 59, 0
1, 8017, Note_on_c, 7, 47, 0
1, 8017, Note_on_c, 7, 35, 0
1, 8047, Note_on_c, 3, 54, 0
1, 8047, Note_on_c, 3, 52, 127
1, 8047, Note_on_c, 7, 64, 100
1, 8047, Note_on_c, 7, 56, 100
1, 8047, Note_on_c, 7, 59, 100
1, 8047, Note_on_c, 7, 52, 100
1, 8047, Note_on_c, 7, 40, 100
1, 8077, Note_on_c, 3, 52, 0
1, 8077, Note_on_c, 3, 56, 127
1, 8107, Note_on_c, 3, 56, 0
1, 8107, Note_on_c, 3, 57, 127
1, 8122, Note_on_c, 3, 57, 0
1, 8137, Note_on_c, 3, 59, 127
1, 8152, Note_on_c, 3, 59, 0
1, 8167, Note_on_c, 3, 61, 127
1, 8167, Note_on_c, 7, 64, 0
1, 8167, Note_on_c, 7, 56, 0
1, 8167, Note_on_c, 7, 59, 0
1, 8167, Note_on_c, 7, 52, 0
1, 8167, Note_on_c, 7, 40, 0
1, 8182, Note_on_c, 3, 61, 0
1, 8197, Note_on_c, 3, 63, 127
1, 8212, Note_on_c, 3, 63, 0
1, 8227, Note_on_c, 3, 64, 127
1, 8257, Note_on_c, 3, 64, 0
1, 8257, Note_on_c, 3, 68, 127
1, 8287, Note_on_c, 3, 68, 0
1, 8287, Note_on_c, 3, 69, 127
1, 8302, Note_on_c, 3, 69, 0
1, 8317, Note_on_c, 3, 71, 127
1, 8332, Note_on_c, 3, 71, 0
1, 8347, Note_on_c, 3, 73, 127
1, 8362, Note_on_c, 3, 73, 0
1, 8377, Note_on_c, 3, 75, 127
1, 8392, Note_on_c, 3, 75, 0
1, 8407, Note_on_c, 3, 76, 127
1, 8467, Note_on_c, 7, 68, 100
1, 8467, Note_on_c, 7, 64, 100
1, 8467, Note_on_c, 7, 62, 100
1, 8527, Note_on_c, 7, 68, 0
1, 8527, Note_on_c, 7, 69, 100
1, 8527, Note_on_c, 7, 64, 0
1, 8527, Note_on_c, 7, 66, 100
1, 8527, Note_on_c, 7, 61, 100
1, 8527, Note_on_c, 7, 62, 0
1, 8587, Note_on_c, 7, 69, 0
1, 8587, Note_on_c, 7, 71, 100
1, 8587, Note_on_c, 7, 66, 0
1, 8587, Note_on_c, 7, 68, 100
1, 8587, Note_on_c, 7, 59, 100
1, 8587, Note_on_c, 7, 61, 0
1, 8647, Note_on_c, 7, 71, 0
1, 8647, Note_on_c, 7, 73, 100
1, 8647, Note_on_c, 7, 68, 0
1, 8647, Note_on_c, 7, 69, 100
1, 8647, Note_on_c, 7, 57, 100
1, 8647, Note_on_c, 7, 59, 0
1, 8707, Note_on_c, 3, 76, 0
1, 8707, Note_on_c, 3, 76, 127
1, 8707, Note_on_c, 7, 73, 0
1, 8707, Note_on_c, 7, 74, 100
1, 8707, Note_on_c, 7, 69, 0
1, 8707, Note_on_c, 7, 71, 100
1, 8707, Note_on_c, 7, 56, 100
1, 8707, Note_on_c, 7, 57, 0
1, 8767, Note_on_c, 3, 76, 0
1, 8767, Note_on_c, 3, 76, 127
1, 8767, Note_on_c, 7, 74, 0
1, 8767, Note_on_c, 7, 73, 100
1, 8767, Note_on_c, 7, 71, 0
1, 8767, Note_on_c, 7, 69, 100
1, 8767, Note_on_c, 7, 57, 100
1, 8767, Note_on_c, 7, 56, 0
1, 8797, Note_on_c, 3, 76, 0
1, 8797, Note_on_c, 7, 73, 0
1, 8797, Note_on_c, 7, 69, 0
1, 8887, Note_on_c, 3, 76, 127
1, 8887, Note_on_c, 7, 73, 100
1, 8887, Note_on_c, 7, 69, 100
1, 8887, Note_on_c, 7, 57, 0
1, 8917, Note_on_c, 3, 76, 0
1, 8917, Note_on_c, 7, 73, 0
1, 8917, Note_on_c, 7, 69, 0
1, 8947, Note_on_c, 3, 76, 127
1, 8947, Note_on_c, 7, 73, 100
1, 8947, Note_on_c, 7, 69, 100
1, 8977, Note_on_c, 3, 76, 0
1, 8977, Note_on_c, 7, 73, 0
1, 8977, Note_on_c, 7, 69, 0
1, 9007, Note_on_c, 3, 75, 127
1, 9007, Note_on_c, 7, 73, 100
1, 9007, Note_on_c, 7, 69, 100
1, 9037, Note_on_c, 3, 75, 0
1, 9037, Note_on_c, 3, 76, 127
1, 9037, Note_on_c, 7, 73, 0
1, 9037, Note_on_c, 7, 69, 0
1, 9067, Note_on_c, 3, 76, 0
1, 9067, Note_on_c, 3, 78, 127
1, 9067, Note_on_c, 7, 73, 100
1, 9067, Note_on_c, 7, 69, 100
1, 9097, Note_on_c, 3, 78, 0
1, 9097, Note_on_c, 3, 76, 127
1, 9097, Note_on_c, 7, 73, 0
1, 9097, Note_on_c, 7, 69, 0
1, 9127, Note_on_c, 3, 76, 0
1, 9127, Note_on_c, 3, 74, 127
1, 9127, Note_on_c, 7, 71, 100
1, 9127, Note_on_c, 7, 68, 100
1, 9127, Note_on_c, 7, 64, 100
1, 9307, Note_on_c, 3, 74, 0
1, 9307, Note_on_c, 3, 73, 127
1, 9307, Note_on_c, 7, 71, 0
1, 9307, Note_on_c, 7, 69, 100
1, 9307, Note_on_c, 7, 68, 0
1, 9307, Note_on_c, 7, 64, 0
1, 9307, Note_on_c, 7, 66, 100
1, 9367, Note_on_c, 3, 73, 0
1, 9367, Note_on_c, 7, 69, 0
1, 9367, Note_on_c, 7, 66, 0
1, 9427, Note_on_c, 3, 81, 127
1, 9457, Note_on_c, 3, 81, 0
1, 9457, Note_on_c, 3, 80, 127
1, 9487, Note_on_c, 3, 80, 0
1, 9487, Note_on_c, 3, 78, 127
1, 9487, Note_on_c, 7, 69, 100
1, 9487, Note_on_c, 7, 66, 100
1, 9487, Note_on_c, 7, 62, 100
1, 9517, Note_on_c, 3, 78, 0
1, 9517, Note_on_c, 7, 69, 0
1, 9517, Note_on_c, 7, 66, 0
1, 9517, Note_on_c, 7, 62, 0
1, 9547, Note_on_c, 3, 78, 127
1, 9547, Note_on_c, 7, 69, 100
1, 9547, Note_on_c, 7, 66, 100
1, 9547, Note_on_c, 7, 62, 100
1, 9577, Note_on_c, 3, 78, 0
1, 9577, Note_on_c, 7, 69, 0
1, 9577, Note_on_c, 7, 66, 0
1, 9577, Note_on_c, 7, 62, 0
1, 9607, Note_on_c, 3, 78, 127
1, 9637, Note_on_c, 3, 78, 0
1, 9637, Note_on_c, 3, 76, 127
1, 9667, Note_on_c, 3, 76, 0
1, 9667, Note_on_c, 3, 74, 127
1, 9667, Note_on_c, 7, 71, 100
1, 9667, Note_on_c, 7, 66, 100
1, 9667, Note_on_c, 7, 62, 100
1, 9697, Note_on_c, 3, 74, 0
1, 9697, Note_on_c, 7, 71, 0
1, 9697, Note_on_c, 7, 66, 0
1, 9697, Note_on_c, 7, 62, 0
1, 9727, Note_on_c, 3, 74, 127
1, 9727, Note_on_c, 7, 71, 100
1, 9727, Note_on_c, 7, 66, 100
1, 9727, Note_on_c, 7, 62, 100
1, 9757, Note_on_c, 3, 74, 0
1, 9757, Note_on_c, 3, 73, 127
1, 9757, Note_on_c, 7, 71, 0
1, 9757, Note_on_c, 7, 66, 0
1, 9757, Note_on_c, 7, 62, 0
1, 9787, Note_on_c, 3, 73, 0
1, 9787, Note_on_c, 3, 71, 127
1, 9817, Note_on_c, 3, 71, 0
1, 9817, Note_on_c, 3, 69, 127
1, 9847, Note_on_c, 3, 69, 0
1, 9847, Note_on_c, 3, 68, 127
1, 9847, Note_on_c, 7, 64, 100
1, 9907, Note_on_c, 3, 68, 0
1, 9907, Note_on_c, 3, 69, 127
1, 9907, Note_on_c, 7, 64, 0
1, 9907, Note_on_c, 7, 66, 100
1, 9907, Note_on_c, 7, 64, 100
1, 9937, Note_on_c, 7, 64, 0
1, 9967, Note_on_c, 3, 69, 0
1, 9967, Note_on_c, 3, 70, 127
1, 9967, Note_on_c, 7, 66, 0
1, 9967, Note_on_c, 7, 67, 100
1, 9967, Note_on_c, 7, 64, 100
1, 9997, Note_on_c, 7, 64, 0
1, 10027, Note_on_c, 3, 70, 0
1, 10027, Note_on_c, 3, 71, 127
1, 10027, Note_on_c, 7, 67, 0
1, 10027, Note_on_c, 7, 68, 100
1, 10027, Note_on_c, 7, 64, 100
1, 10087, Note_on_c, 3, 71, 0
1, 10087, Note_on_c, 7, 68, 0
1, 10087, Note_on_c, 7, 64, 0
1, 10147, Note_on_c, 3, 73, 127
1, 10147, Note_on_c, 7, 69, 100
1, 10177, Note_on_c, 3, 73, 0
1, 10177, Note_on_c, 3, 74, 127
1, 10177, Note_on_c, 7, 69, 0
1, 10177, Note_on_c, 7, 71, 100
1, 10207, Note_on_c, 3, 74, 0
1, 10207, Note_on_c, 3, 76, 127
1, 10207, Note_on_c, 7, 71, 0
1, 10207, Note_on_c, 7, 73, 100
1, 10207, Note_on_c, 7, 69, 100
1, 10237, Note_on_c, 3, 76, 0
1, 10237, Note_on_c, 7, 73, 0
1, 10237, Note_on_c, 7, 69, 0
1, 10267, Note_on_c, 3, 76, 127
1, 10297, Note_on_c, 3, 76, 0
1, 10327, Note_on_c, 3, 76, 127
1, 10327, Note_on_c, 7, 73, 100
1, 10327, Note_on_c, 7, 69, 100
1, 10357, Note_on_c, 3, 76, 0
1, 10357, Note_on_c, 7, 73, 0
1, 10357, Note_on_c, 7, 69, 0
1, 10387, Note_on_c, 3, 78, 127
1, 10387, Note_on_c, 7, 73, 100
1, 10387, Note_on_c, 7, 69, 100
1, 10417, Note_on_c, 3, 78, 0
1, 10417, Note_on_c, 3, 76, 127
1, 10417, Note_on_c, 7, 73, 0
1, 10417, Note_on_c, 7, 69, 0
1, 10447, Note_on_c, 3, 76, 0
1, 10447, Note_on_c, 3, 75, 127
1, 10447, Note_on_c, 7, 73, 100
1, 10447, Note_on_c, 7, 69, 100
1, 10477, Note_on_c, 3, 75, 0
1, 10477, Note_on_c, 3, 76, 127
1, 10477, Note_on_c, 7, 73, 0
1, 10477, Note_on_c, 7, 69, 0
1, 10507, Note_on_c, 3, 76, 0
1, 10507, Note_on_c, 3, 78, 127
1, 10507, Note_on_c, 7, 73, 100
1, 10507, Note_on_c, 7, 69, 100
1, 10537, Note_on_c, 3, 78, 0
1, 10537, Note_on_c, 3, 76, 127
1, 10537, Note_on_c, 7, 73, 0
1, 10537, Note_on_c, 7, 69, 0
1, 10567, Note_on_c, 3, 76, 0
1, 10567, Note_on_c, 3, 80, 127
1, 10567, Note_on_c, 7, 74, 100
1, 10567, Note_on_c, 7, 71, 100
1, 10567, Note_on_c, 7, 64, 100
1, 10687, Note_on_c, 7, 64, 0
1, 10687, Note_on_c, 7, 65, 100
1, 10747, Note_on_c, 3, 80, 0
1, 10747, Note_on_c, 3, 81, 127
1, 10747, Note_on_c, 7, 74, 0
1, 10747, Note_on_c, 7, 73, 100
1, 10747, Note_on_c, 7, 71, 0
1, 10747, Note_on_c, 7, 69, 100
1, 10747, Note_on_c, 7, 65, 0
1, 10747, Note_on_c, 7, 66, 100
1, 10777, Note_on_c, 7, 66, 0
1, 10807, Note_on_c, 3, 81, 0
1, 10807, Note_on_c, 7, 73, 0
1, 10807, Note_on_c, 7, 69, 0
1, 10867, Note_on_c, 3, 81, 127
1, 10897, Note_on_c, 3, 81, 0
1, 10897, Note_on_c, 3, 80, 127
1, 10927, Note_on_c, 3, 80, 0
1, 10927, Note_on_c, 3, 78, 127
1, 10927, Note_on_c, 7, 71, 100
1, 10927, Note_on_c, 7, 66, 100
1, 10927, Note_on_c, 7, 62, 100
1, 10942, Note_on_c, 3, 78, 0
1, 10957, Note_on_c, 3, 76, 127
1, 10972, Note_on_c, 3, 76, 0
1, 10987, Note_on_c, 3, 74, 127
1, 10987, Note_on_c, 7, 71, 0
1, 10987, Note_on_c, 7, 66, 0
1, 10987, Note_on_c, 7, 62, 0
1, 11002, Note_on_c, 3, 74, 0
1, 11017, Note_on_c, 3, 73, 127
1, 11032, Note_on_c, 3, 73, 0
1, 11047, Note_on_c, 3, 71, 127
1, 11062, Note_on_c, 3, 71, 0
1, 11077, Note_on_c, 3, 69, 127
1, 11092, Note_on_c, 3, 69, 0
1, 11107, Note_on_c, 3, 68, 127
1, 11107, Note_on_c, 7, 62, 100
1, 11107, Note_on_c, 7, 59, 100
1, 11107, Note_on_c, 7, 52, 100
1, 11122, Note_on_c, 3, 68, 0
1, 11137, Note_on_c, 3, 69, 127
1, 11152, Note_on_c, 3, 69, 0
1, 11167, Note_on_c, 3, 71, 127
1, 11167, Note_on_c, 7, 62, 0
1, 11167, Note_on_c, 7, 59, 0
1, 11167, Note_on_c, 7, 52, 0
1, 11182, Note_on_c, 3, 71, 0
1, 11197, Note_on_c, 3, 73, 127
1, 11212, Note_on_c, 3, 73, 0
1, 11227, Note_on_c, 3, 74, 127
1, 11242, Note_on_c, 3, 74, 0
1, 11257, Note_on_c, 3, 68, 127
1, 11272, Note_on_c, 3, 68, 0
1, 11287, Note_on_c, 3, 69, 127
1, 11287, Note_on_c, 4, 69, 80
1, 11287, Note_on_c, 5, 57, 80
1, 11287, Note_on_c, 7, 61, 100
1, 11287, Note_on_c, 7, 57, 100
1, 11287, Note_on_c, 7, 45, 100
1, 11347, Note_on_c, 7, 61, 0
1, 11347, Note_on_c, 7, 69, 100
1, 11377, Note_on_c, 7, 69, 0
1, 11377, Note_on_c, 7, 68, 100
1, 11407, Note_on_c, 3, 69, 0
1, 11407, Note_on_c, 7, 68, 0
1, 11407, Note_on_c, 7, 66, 100
1, 11407, Note_on_c, 7, 57, 0
1, 11407, Note_on_c, 7, 45, 0
1, 11437, Note_on_c, 7, 66, 0
1, 11437, Note_on_c, 7, 64, 100
1, 11467, Note_on_c, 7, 64, 0
1, 11467, Note_on_c, 7, 62, 100
1, 11497, Note_on_c, 7, 62, 0
1, 11497, Note_on_c, 7, 61, 100
1, 11527, Note_on_c, 7, 61, 0
1, 11527, Note_on_c, 7, 59, 100
1, 11557, Note_on_c, 7, 59, 0
1, 11557, Note_on_c, 7, 57, 100
1, 11587, Note_on_c, 7, 57, 0
1, 11587, Note_on_c, 7, 56, 100
1, 11617, Note_on_c, 7, 56, 0
1, 11617, Note_on_c, 7, 57, 100
1, 11647, Note_on_c, 4, 71, 80
1, 11647, Note_on_c, 4, 69, 0
1, 11647, Note_on_c, 4, 68, 80
1, 11647, Note_on_c, 5, 59, 80
1, 11647, Note_on_c, 5, 57, 0
1, 11647, Note_on_c, 5, 56, 80
1, 11647, Note_on_c, 7, 57, 0
1, 11647, Note_on_c, 7, 59, 100
1, 11647, Note_on_c, 7, 56, 100
1, 11647, Note_on_c, 7, 52, 100
1, 11647, Note_on_c, 7, 40, 100
1, 11707, Note_on_c, 7, 59, 0
1, 11707, Note_on_c, 7, 71, 100
1, 11737, Note_on_c, 7, 71, 0
1, 11737, Note_on_c, 7, 69, 100
1, 11767, Note_on_c, 7, 69, 0
1, 11767, Note_on_c, 7, 68, 100
1, 11767, Note_on_c, 7, 56, 0
1, 11767, Note_on_c, 7, 52, 0
1, 11767, Note_on_c, 7, 40, 0
1, 11797, Note_on_c, 7, 68, 0
1, 11797, Note_on_c, 7, 66, 100
1, 11827, Note_on_c, 7, 66, 0
1, 11827, Note_on_c, 7, 64, 100
1, 11857, Note_on_c, 7, 64, 0
1, 11857, Note_on_c, 7, 62, 100
1, 11887, Note_on_c, 7, 62, 0
1, 11887, Note_on_c, 7, 61, 100
1, 11917, Note_on_c, 7, 61, 0
1, 11917, Note_on_c, 7, 59, 100
1, 11947, Note_on_c, 7, 59, 0
1, 11947, Note_on_c, 7, 57, 100
1, 11977, Note_on_c, 7, 57, 0
1, 11977, Note_on_c, 7, 59, 100
1, 12007, Note_on_c, 4, 71, 0
1, 12007, Note_on_c, 4, 73, 80
1, 12007, Note_on_c, 4, 68, 0
1, 12007, Note_on_c, 4, 69, 80
1, 12007, Note_on_c, 5, 59, 0
1, 12007, Note_on_c, 5, 61, 80
1, 12007, Note_on_c, 5, 56, 0
1, 12007, Note_on_c, 5, 57, 80
1, 12007, Note_on_c, 6, 45, 80
1, 12007, Note_on_c, 7, 59, 0
1, 12007, Note_on_c, 7, 61, 100
1, 12007, Note_on_c, 7, 57, 100
1, 12007, Note_on_c, 7, 45, 100
1, 12007, Note_on_c, 7, 33, 100
1, 12067, Note_on_c, 7, 61, 0
1, 12067, Note_on_c, 7, 73, 100
1, 12067, Note_on_c, 7, 69, 100
1, 12097, Note_on_c, 7, 73, 0
1, 12097, Note_on_c, 7, 71, 100
1, 12097, Note_on_c, 7, 69, 0
1, 12097, Note_on_c, 7, 68, 100
1, 12127, Note_on_c, 7, 71, 0
1, 12127, Note_on_c, 7, 69, 100
1, 12127, Note_on_c, 7, 68, 0
1, 12127, Note_on_c, 7, 66, 100
1, 12127, Note_on_c, 7, 57, 0
1, 12127, Note_on_c, 7, 45, 0
1, 12127, Note_on_c, 7, 33, 0
1, 12157, Note_on_c, 7, 69, 0
1, 12157, Note_on_c, 7, 68, 100
1, 12157, Note_on_c, 7, 66, 0
1, 12157, Note_on_c, 7, 64, 100
1, 12187, Note_on_c, 7, 68, 0
1, 12187, Note_on_c, 7, 66, 100
1, 12187, Note_on_c, 7, 64, 0
1, 12187, Note_on_c, 7, 62, 100
1, 12217, Note_on_c, 7, 66, 0
1, 12217, Note_on_c, 7, 64, 100
1, 12217, Note_on_c, 7, 62, 0
1, 12217, Note_on_c, 7, 61, 100
1, 12247, Note_on_c, 7, 64, 0
1, 12247, Note_on_c, 7, 62, 100
1, 12247, Note_on_c, 7, 61, 0
1, 12247, Note_on_c, 7, 59, 100
1, 12277, Note_on_c, 7, 62, 0
1, 12277, Note_on_c, 7, 61, 100
1, 12277, Note_on_c, 7, 59, 0
1, 12277, Note_on_c, 7, 57, 100
1, 12307, Note_on_c, 7, 61, 0
1, 12307, Note_on_c, 7, 59, 100
1, 12307, Note_on_c, 7, 57, 0
1, 12307, Note_on_c, 7, 56, 100
1, 12337, Note_on_c, 7, 59, 0
1, 12337, Note_on_c, 7, 61, 100
1, 12337, Note_on_c, 7, 56, 0
1, 12337, Note_on_c, 7, 57, 100
1, 12367, Note_on_c, 4, 73, 0
1, 12367, Note_on_c, 4, 74, 80
1, 12367, Note_on_c, 4, 69, 0
1, 12367, Note_on_c, 4, 71, 80
1, 12367, Note_on_c, 5, 61, 0
1, 12367, Note_on_c, 5, 62, 80
1, 12367, Note_on_c, 5, 57, 0
1, 12367, Note_on_c, 5, 59, 80
1, 12367, Note_on_c, 7, 61, 0
1, 12367, Note_on_c, 7, 62, 100
1, 12367, Note_on_c, 7, 57, 0
1, 12367, Note_on_c, 7, 59, 100
1, 12367, Note_on_c, 7, 57, 100
1, 12367, Note_on_c, 7, 45, 100
1, 12367, Note_on_c, 7, 33, 100
1, 12427, Note_on_c, 7, 62, 0
1, 12427, Note_on_c, 7, 74, 100
1, 12427, Note_on_c, 7, 59, 0
1, 12427, Note_on_c, 7, 71, 100
1, 12457, Note_on_c, 7, 74, 0
1, 12457, Note_on_c, 7, 73, 100
1, 12457, Note_on_c, 7, 71, 0
1, 12457, Note_on_c, 7, 69, 100
1, 12487, Note_on_c, 7, 73, 0
1, 12487, Note_on_c, 7, 71, 100
1, 12487, Note_on_c, 7, 69, 0
1, 12487, Note_on_c, 7, 68, 100
1, 12487, Note_on_c, 7, 57, 0
1, 12487, Note_on_c, 7, 45, 0
1, 12487, Note_on_c, 7, 33, 0
1, 12517, Note_on_c, 7, 71, 0
1, 12517, Note_on_c, 7, 69, 100
1, 12517, Note_on_c, 7, 68, 0
1, 12517, Note_on_c, 7, 66, 100
1, 12547, Note_on_c, 7, 69, 0
1, 12547, Note_on_c, 7, 68, 100
1, 12547, Note_on_c, 7, 66, 0
1, 12547, Note_on_c, 7, 64, 100
1, 12577, Note_on_c, 7, 68, 0
1, 12577, Note_on_c, 7, 66, 100
1, 12577, Note_on_c, 7, 64, 0
1, 12577, Note_on_c, 7, 62, 100
1, 12607, Note_on_c, 7, 66, 0
1, 12607, Note_on_c, 7, 64, 100
1, 12607, Note_on_c, 7, 62, 0
1, 12607, Note_on_c, 7, 61, 100
1, 12637, Note_on_c, 7, 64, 0
1, 12637, Note_on_c, 7, 62, 100
1, 12637, Note_on_c, 7, 61, 0
1, 12637, Note_on_c, 7, 59, 100
1, 12667, Note_on_c, 7, 62, 0
1, 12667, Note_on_c, 7, 61, 100
1, 12667, Note_on_c, 7, 59, 0
1, 12667, Note_on_c, 7, 57, 100
1, 12697, Note_on_c, 7, 61, 0
1, 12697, Note_on_c, 7, 62, 100
1, 12697, Note_on_c, 7, 57, 0
1, 12697, Note_on_c, 7, 59, 100
1, 12727, Note_on_c, 4, 74, 0
1, 12727, Note_on_c, 4, 76, 80
1, 12727, Note_on_c, 4, 71, 0
1, 12727, Note_on_c, 4, 73, 80
1, 12727, Note_on_c, 5, 62, 0
1, 12727, Note_on_c, 5, 64, 80
1, 12727, Note_on_c, 5, 59, 0
1, 12727, Note_on_c, 5, 61, 80
1, 12727, Note_on_c, 7, 62, 0
1, 12727, Note_on_c, 7, 64, 100
1, 12727, Note_on_c, 7, 59, 0
1, 12727, Note_on_c, 7, 61, 100
1, 12727, Note_on_c, 7, 57, 100
1, 12727, Note_on_c, 7, 45, 100
1, 12727, Note_on_c, 7, 33, 100
1, 12787, Note_on_c, 7, 64, 0
1, 12787, Note_on_c, 7, 61, 0
1, 12847, Note_on_c, 4, 76, 0
1, 12847, Note_on_c, 4, 73, 0
1, 12847, Note_on_c, 5, 64, 0
1, 12847, Note_on_c, 5, 61, 0
1, 12847, Note_on_c, 6, 45, 0
1, 12847, Note_on_c, 7, 57, 0
1, 12847, Note_on_c, 7, 45, 0
1, 12847, Note_on_c, 7, 33, 0
1, 13027, Note_on_c, 3, 76, 127
1, 13087, Note_on_c, 3, 76, 0
1, 13087, Note_on_c, 3, 81, 127
1, 13087, Note_on_c, 7, 69, 100
1, 13087, Note_on_c, 7, 61, 100
1, 13147, Note_on_c, 3, 81, 0
1, 13147, Note_on_c, 3, 80, 127
1, 13207, Note_on_c, 3, 80, 0
1, 13207, Note_on_c, 3, 78, 127
1, 13267, Note_on_c, 3, 78, 0
1, 13267, Note_on_c, 3, 76, 127
1, 13327, Note_on_c, 3, 76, 0
1, 13327, Note_on_c, 3, 74, 127
1, 13387, Note_on_c, 3, 74, 0
1, 13387, Note_on_c, 3, 73, 127
1, 13447, Note_on_c, 3, 73, 0
1, 13447, Note_on_c, 3, 70, 127
1, 13447, Note_on_c, 7, 69, 0
1, 13447, Note_on_c, 7, 66, 100
1, 13447, Note_on_c, 7, 61, 0
1, 13447, Note_on_c, 7, 62, 100
1, 13507, Note_on_c, 3, 70, 0
1, 13507, Note_on_c, 3, 71, 127
1, 13567, Note_on_c, 3, 71, 0
1, 13567, Note_on_c, 3, 73, 127
1, 13567, Note_on_c, 7, 66, 0
1, 13567, Note_on_c, 7, 70, 100
1, 13627, Note_on_c, 3, 73, 0
1, 13627, Note_on_c, 3, 74, 127
1, 13627, Note_on_c, 7, 70, 0
1, 13627, Note_on_c, 7, 71, 100
1, 13687, Note_on_c, 3, 74, 0
1, 13687, Note_on_c, 3, 76, 127
1, 13687, Note_on_c, 7, 71, 0
1, 13687, Note_on_c, 7, 73, 100
1, 13747, Note_on_c, 3, 76, 0
1, 13747, Note_on_c, 3, 78, 127
1, 13747, Note_on_c, 7, 73, 0
1, 13747, Note_on_c, 7, 74, 100
1, 13807, Note_on_c, 3, 78, 0
1, 13807, Note_on_c, 3, 78, 127
1, 13807, Note_on_c, 7, 74, 0
1, 13807, Note_on_c, 7, 73, 100
1, 13807, Note_on_c, 7, 62, 0
1, 13807, Note_on_c, 7, 64, 100
1, 13837, Note_on_c, 3, 78, 0
1, 13837, Note_on_c, 3, 76, 127
1, 13867, Note_on_c, 3, 76, 0
1, 13867, Note_on_c, 3, 74, 127
1, 13897, Note_on_c, 3, 74, 0
1, 13897, Note_on_c, 3, 73, 127
1, 13927, Note_on_c, 3, 73, 0
1, 13927, Note_on_c, 3, 71, 127
1, 13927, Note_on_c, 7, 73, 0
1, 13927, Note_on_c, 7, 64, 0
1, 13957, Note_on_c, 3, 71, 0
1, 13957, Note_on_c, 3, 69, 127
1, 13987, Note_on_c, 3, 69, 0
1, 13987, Note_on_c, 3, 68, 127
1, 13987, Note_on_c, 7, 74, 100
1, 13987, Note_on_c, 7, 64, 100
1, 14017, Note_on_c, 3, 68, 0
1, 14017, Note_on_c, 3, 69, 127
1, 14047, Note_on_c, 3, 69, 0
1, 14047, Note_on_c, 3, 71, 127
1, 14077, Note_on_c, 3, 71, 0
1, 14077, Note_on_c, 3, 73, 127
1, 14107, Note_on_c, 3, 73, 0
1, 14107, Note_on_c, 3, 74, 127
1, 14107, Note_on_c, 7, 74, 0
1, 14107, Note_on_c, 7, 64, 0
1, 14137, Note_on_c, 3, 74, 0
1, 14137, Note_on_c, 3, 76, 127
1, 14167, Note_on_c, 3, 76, 0
1, 14167, Note_on_c, 3, 74, 127
1, 14167, Note_on_c, 7, 68, 100
1, 14167, Note_on_c, 7, 65, 100
1, 14227, Note_on_c, 7, 68, 0
1, 14227, Note_on_c, 7, 68, 100
1, 14227, Note_on_c, 7, 65, 0
1, 14227, Note_on_c, 7, 65, 100
1, 14287, Note_on_c, 7, 68, 0
1, 14287, Note_on_c, 7, 68, 100
1, 14287, Note_on_c, 7, 65, 0
1, 14287, Note_on_c, 7, 65, 100
1, 14347, Note_on_c, 3, 74, 0
1, 14347, Note_on_c, 3, 73, 127
1, 14347, Note_on_c, 7, 68, 0
1, 14347, Note_on_c, 7, 69, 100
1, 14347, Note_on_c, 7, 65, 0
1, 14347, Note_on_c, 7, 66, 100
1, 14407, Note_on_c, 3, 73, 0
1, 14407, Note_on_c, 7, 69, 0
1, 14407, Note_on_c, 7, 66, 0
1, 14467, Note_on_c, 7, 69, 100
1, 14527, Note_on_c, 4, 81, 80
1, 14527, Note_on_c, 5, 49, 80
1, 14527, Note_on_c, 6, 57, 80
1, 14527, Note_on_c, 6, 45, 80
1, 14527, Note_on_c, 7, 69, 0
1, 14527, Note_on_c, 7, 81, 100
1, 14527, Note_on_c, 7, 64, 100
1, 14527, Note_on_c, 7, 61, 100
1, 14527, Note_on_c, 7, 49, 100
1, 14527, Note_on_c, 7, 37, 100
1, 14557, Note_on_c, 7, 64, 0
1, 14557, Note_on_c, 7, 69, 100
1, 14587, Note_on_c, 7, 81, 0
1, 14587, Note_on_c, 7, 85, 100
1, 14587, Note_on_c, 7, 69, 0
1, 14587, Note_on_c, 7, 64, 100
1, 14587, Note_on_c, 7, 61, 0
1, 14587, Note_on_c, 7, 61, 100
1, 14587, Note_on_c, 7, 49, 0
1, 14587, Note_on_c, 7, 49, 100
1, 14587, Note_on_c, 7, 37, 0
1, 14587, Note_on_c, 7, 37, 100
1, 14617, Note_on_c, 7, 64, 0
1, 14617, Note_on_c, 7, 69, 100
1, 14647, Note_on_c, 7, 85, 0
1, 14647, Note_on_c, 7, 85, 100
1, 14647, Note_on_c, 7, 69, 0
1, 14647, Note_on_c, 7, 64, 100
1, 14647, Note_on_c, 7, 61, 0
1, 14647, Note_on_c, 7, 61, 100
1, 14647, Note_on_c, 7, 49, 0
1, 14647, Note_on_c, 7, 49, 100
1, 14647, Note_on_c, 7, 37, 0
1, 14647, Note_on_c, 7, 37, 100
1, 14677, Note_on_c, 7, 64, 0
1, 14677, Note_on_c, 7, 69, 100
1, 14707, Note_on_c, 4, 88, 80
1, 14707, Note_on_c, 7, 85, 0
1, 14707, Note_on_c, 7, 69, 0
1, 14707, Note_on_c, 7, 64, 100
1, 14707, Note_on_c, 7, 61, 0
1, 14707, Note_on_c, 7, 61, 100
1, 14707, Note_on_c, 7, 49, 0
1, 14707, Note_on_c, 7, 49, 100
1, 14707, Note_on_c, 7, 37, 0
1, 14707, Note_on_c, 7, 37, 100
1, 14737, Note_on_c, 7, 64, 0
1, 14737, Note_on_c, 7, 69, 100
1, 14767, Note_on_c, 7, 81, 100
1, 14767, Note_on_c, 7, 69, 0
1, 14767, Note_on_c, 7, 64, 100
1, 14767, Note_on_c, 7, 61, 0
1, 14767, Note_on_c, 7, 61, 100
1, 14767, Note_on_c, 7, 49, 0
1, 14767, Note_on_c, 7, 49, 100
1, 14767, Note_on_c, 7, 37, 0
1, 14767, Note_on_c, 7, 37, 100
1, 14797, Note_on_c, 7, 81, 0
1, 14797, Note_on_c, 7, 64, 0
1, 14797, Note_on_c, 7, 69, 100
1, 14827, Note_on_c, 7, 76, 100
1, 14827, Note_on_c, 7, 69, 0
1, 14827, Note_on_c, 7, 64, 100
1, 14827, Note_on_c, 7, 61, 0
1, 14827, Note_on_c, 7, 61, 100
1, 14827, Note_on_c, 7, 49, 0
1, 14827, Note_on_c, 7, 49, 100
1, 14827, Note_on_c, 7, 37, 0
1, 14827, Note_on_c, 7, 37, 100
1, 14857, Note_on_c, 7, 76, 0
1, 14857, Note_on_c, 7, 64, 0
1, 14857, Note_on_c, 7, 69, 100
1, 14887, Note_on_c, 4, 88, 0
1, 14887, Note_on_c, 4, 90, 80
1, 14887, Note_on_c, 5, 50, 80
1, 14887, Note_on_c, 5, 49, 0
1, 14887, Note_on_c, 6, 57, 0
1, 14887, Note_on_c, 6, 57, 80
1, 14887, Note_on_c, 6, 45, 0
1, 14887, Note_on_c, 6, 45, 80
1, 14887, Note_on_c, 7, 78, 100
1, 14887, Note_on_c, 7, 69, 0
1, 14887, Note_on_c, 7, 66, 100
1, 14887, Note_on_c, 7, 61, 0
1, 14887, Note_on_c, 7, 62, 100
1, 14887, Note_on_c, 7, 49, 0
1, 14887, Note_on_c, 7, 50, 100
1, 14887, Note_on_c, 7, 37, 0
1, 14887, Note_on_c, 7, 38, 100
1, 14917, Note_on_c, 7, 66, 0
1, 14917, Note_on_c, 7, 69, 100
1, 14947, Note_on_c, 6, 57, 0
1, 14947, Note_on_c, 6, 57, 80
1, 14947, Note_on_c, 6, 45, 0
1, 14947, Note_on_c, 6, 45, 80
1, 14947, Note_on_c, 7, 78, 0
1, 14947, Note_on_c, 7, 81, 100
1, 14947, Note_on_c, 7, 69, 0
1, 14947, Note_on_c, 7, 66, 100
1, 14947, Note_on_c, 7, 62, 0
1, 14947, Note_on_c, 7, 62, 100
1, 14947, Note_on_c, 7, 50, 0
1, 14947, Note_on_c, 7, 50, 100
1, 14947, Note_on_c, 7, 38, 0
1, 14947, Note_on_c, 7, 38, 100
1, 14977, Note_on_c, 7, 66, 0
1, 14977, Note_on_c, 7, 69, 100
1, 15007, Note_on_c, 6, 57, 0
1, 15007, Note_on_c, 6, 57, 80
1, 15007, Note_on_c, 6, 45, 0
1, 15007, Note_on_c, 6, 45, 80
1, 15007, Note_on_c, 7, 81, 0
1, 15007, Note_on_c, 7, 81, 100
1, 15007, Note_on_c, 7, 69, 0
1, 15007, Note_on_c, 7, 66, 100
1, 15007, Note_on_c, 7, 62, 0
1, 15007, Note_on_c, 7, 62, 100
1, 15007, Note_on_c, 7, 50, 0
1, 15007, Note_on_c, 7, 50, 100
1, 15007, Note_on_c, 7, 38, 0
1, 15007, Note_on_c, 7, 38, 100
1, 15037, Note_on_c, 7, 66, 0
1, 15037, Note_on_c, 7, 69, 100
1, 15067, Note_on_c, 4, 90, 0
1, 15067, Note_on_c, 4, 86, 80
1, 15067, Note_on_c, 4, 81, 0
1, 15067, Note_on_c, 4, 78, 80
1, 15067, Note_on_c, 6, 57, 0
1, 15067, Note_on_c, 6, 57, 80
1, 15067, Note_on_c, 6, 45, 0
1, 15067, Note_on_c, 6, 45, 80
1, 15067, Note_on_c, 7, 81, 0
1, 15067, Note_on_c, 7, 69, 0
1, 15067, Note_on_c, 7, 66, 100
1, 15067, Note_on_c, 7, 62, 0
1, 15067, Note_on_c, 7, 62, 100
1, 15067, Note_on_c, 7, 50, 0
1, 15067, Note_on_c, 7, 50, 100
1, 15067, Note_on_c, 7, 38, 0
1, 15067, Note_on_c, 7, 38, 100
1, 15097, Note_on_c, 7, 66, 0
1, 15097, Note_on_c, 7, 69, 100
1, 15127, Note_on_c, 6, 57, 0
1, 15127, Note_on_c, 6, 45, 0
1, 15127, Note_on_c, 7, 78, 100
1, 15127, Note_on_c, 7, 69, 0
1, 15127, Note_on_c, 7, 66, 100
1, 15127, Note_on_c, 7, 62, 0
1, 15127, Note_on_c, 7, 62, 100
1, 15127, Note_on_c, 7, 50, 0
1, 15127, Note_on_c, 7, 50, 100
1, 15127, Note_on_c, 7, 38, 0
1, 15127, Note_on_c, 7, 38, 100
1, 15157, Note_on_c, 7, 78, 0
1, 15157, Note_on_c, 7, 66, 0
1, 15157, Note_on_c, 7, 69, 100
1, 15187, Note_on_c, 4, 78, 0
1, 15187, Note_on_c, 4, 83, 80
1, 15187, Note_on_c, 7, 74, 100
1, 15187, Note_on_c, 7, 69, 0
1, 15187, Note_on_c, 7, 66, 100
1, 15187, Note_on_c, 7, 62, 0
1, 15187, Note_on_c, 7, 62, 100
1, 15187, Note_on_c, 7, 50, 0
1, 15187, Note_on_c, 7, 50, 100
1, 15187, Note_on_c, 7, 38, 0
1, 15187, Note_on_c, 7, 38, 100
1, 15217, Note_on_c, 7, 74, 0
1, 15217, Note_on_c, 7, 66, 0
1, 15217, Note_on_c, 7, 71, 100
1, 15247, Note_on_c, 4, 86, 0
1, 15247, Note_on_c, 4, 85, 80
1, 15247, Note_on_c, 4, 83, 0
1, 15247, Note_on_c, 4, 81, 80
1, 15247, Note_on_c, 5, 52, 80
1, 15247, Note_on_c, 5, 50, 0
1, 15247, Note_on_c, 6, 52, 80
1, 15247, Note_on_c, 7, 73, 100
1, 15247, Note_on_c, 7, 71, 0
1, 15247, Note_on_c, 7, 69, 100
1, 15247, Note_on_c, 7, 62, 0
1, 15247, Note_on_c, 7, 64, 100
1, 15247, Note_on_c, 7, 50, 0
1, 15247, Note_on_c, 7, 52, 100
1, 15247, Note_on_c, 7, 38, 0
1, 15247, Note_on_c, 7, 40, 100
1, 15277, Note_on_c, 7, 73, 0
1, 15277, Note_on_c, 7, 69, 0
1, 15307, Note_on_c, 7, 76, 100
1, 15307, Note_on_c, 7, 73, 100
1, 15307, Note_on_c, 7, 64, 0
1, 15307, Note_on_c, 7, 64, 100
1, 15307, Note_on_c, 7, 52, 0
1, 15307, Note_on_c, 7, 52, 100
1, 15307, Note_on_c, 7, 40, 0
1, 15307, Note_on_c, 7, 40, 100
1, 15337, Note_on_c, 7, 76, 0
1, 15337, Note_on_c, 7, 74, 100
1, 15337, Note_on_c, 7, 73, 0
1, 15337, Note_on_c, 7, 71, 100
1, 15367, Note_on_c, 7, 74, 0
1, 15367, Note_on_c, 7, 76, 100
1, 15367, Note_on_c, 7, 71, 0
1, 15367, Note_on_c, 7, 73, 100
1, 15367, Note_on_c, 7, 64, 0
1, 15367, Note_on_c, 7, 64, 100
1, 15367, Note_on_c, 7, 52, 0
1, 15367, Note_on_c, 7, 52, 100
1, 15367, Note_on_c, 7, 40, 0
1, 15367, Note_on_c, 7, 40, 100
1, 15397, Note_on_c, 7, 76, 0
1, 15397, Note_on_c, 7, 69, 100
1, 15427, Note_on_c, 4, 85, 0
1, 15427, Note_on_c, 4, 83, 80
1, 15427, Note_on_c, 4, 81, 0
1, 15427, Note_on_c, 4, 80, 80
1, 15427, Note_on_c, 7, 73, 0
1, 15427, Note_on_c, 7, 71, 100
1, 15427, Note_on_c, 7, 69, 0
1, 15427, Note_on_c, 7, 68, 100
1, 15427, Note_on_c, 7, 64, 0
1, 15427, Note_on_c, 7, 62, 100
1, 15427, Note_on_c, 7, 52, 0
1, 15427, Note_on_c, 7, 52, 100
1, 15427, Note_on_c, 7, 40, 0
1, 15427, Note_on_c, 7, 40, 100
1, 15457, Note_on_c, 7, 71, 0
1, 15457, Note_on_c, 7, 68, 0
1, 15487, Note_on_c, 7, 74, 100
1, 15487, Note_on_c, 7, 71, 100
1, 15487, Note_on_c, 7, 62, 0
1, 15487, Note_on_c, 7, 62, 100
1, 15487, Note_on_c, 7, 52, 0
1, 15487, Note_on_c, 7, 52, 100
1, 15487, Note_on_c, 7, 40, 0
1, 15487, Note_on_c, 7, 40, 100
1, 15517, Note_on_c, 7, 74, 0
1, 15517, Note_on_c, 7, 73, 100
1, 15517, Note_on_c, 7, 71, 0
1, 15517, Note_on_c, 7, 69, 100
1, 15547, Note_on_c, 7, 73, 0
1, 15547, Note_on_c, 7, 74, 100
1, 15547, Note_on_c, 7, 69, 0
1, 15547, Note_on_c, 7, 71, 100
1, 15547, Note_on_c, 7, 62, 0
1, 15547, Note_on_c, 7, 62, 100
1, 15547, Note_on_c, 7, 52, 0
1, 15547, Note_on_c, 7, 52, 100
1, 15547, Note_on_c, 7, 40, 0
1, 15547, Note_on_c, 7, 40, 100
1, 15577, Note_on_c, 7, 74, 0
1, 15577, Note_on_c, 7, 68, 100
1, 15607, Note_on_c, 4, 83, 0
1, 15607, Note_on_c, 4, 81, 80
1, 15607, Note_on_c, 4, 80, 0
1, 15607, Note_on_c, 5, 45, 80
1, 15607, Note_on_c, 5, 52, 0
1, 15607, Note_on_c, 6, 45, 80
1, 15607, Note_on_c, 7, 71, 0
1, 15607, Note_on_c, 7, 69, 100
1, 15607, Note_on_c, 7, 68, 0
1, 15607, Note_on_c, 7, 62, 0
1, 15607, Note_on_c, 7, 61, 100
1, 15607, Note_on_c, 7, 52, 0
1, 15607, Note_on_c, 7, 45, 100
1, 15607, Note_on_c, 7, 40, 0
1, 15607, Note_on_c, 7, 33, 100
1, 15637, Note_on_c, 3, 61, 127
1, 15652, Note_on_c, 3, 61, 0
1, 15667, Note_on_c, 3, 62, 127
1, 15682, Note_on_c, 3, 62, 0
1, 15697, Note_on_c, 3, 64, 127
1, 15712, Note_on_c, 3, 64, 0
1, 15727, Note_on_c, 3, 66, 127
1, 15727, Note_on_c, 4, 81, 0
1, 15727, Note_on_c, 5, 45, 0
1, 15727, Note_on_c, 6, 52, 0
1, 15727, Note_on_c, 6, 45, 0
1, 15727, Note_on_c, 7, 69, 0
1, 15727, Note_on_c, 7, 61, 0
1, 15727, Note_on_c, 7, 45, 0
1, 15727, Note_on_c, 7, 33, 0
1, 15742, Note_on_c, 3, 66, 0
1, 15757, Note_on_c, 3, 68, 127
1, 15772, Note_on_c, 3, 68, 0
1, 15787, Note_on_c, 3, 69, 127
1, 15802, Note_on_c, 3, 69, 0
1, 15817, Note_on_c, 3, 71, 127
1, 15832, Note_on_c, 3, 71, 0
1, 15847, Note_on_c, 3, 73, 127
1, 15862, Note_on_c, 3, 73, 0
1, 15877, Note_on_c, 3, 74, 127
1, 15892, Note_on_c, 3, 74, 0
1, 15907, Note_on_c, 3, 76, 127
1, 15922, Note_on_c, 3, 76, 0
1, 15937, Note_on_c, 3, 78, 127
1, 15952, Note_on_c, 3, 78, 0
1, 15967, Note_on_c, 3, 80, 127
1, 15967, Note_on_c, 7, 74, 100
1, 15967, Note_on_c, 7, 71, 100
1, 15967, Note_on_c, 7, 64, 100
1, 16147, Note_on_c, 7, 64, 0
1, 16147, Note_on_c, 7, 65, 100
1, 16327, Note_on_c, 3, 80, 0
1, 16327, Note_on_c, 3, 81, 127
1, 16327, Note_on_c, 7, 74, 0
1, 16327, Note_on_c, 7, 73, 100
1, 16327, Note_on_c, 7, 71, 0
1, 16327, Note_on_c, 7, 69, 100
1, 16327, Note_on_c, 7, 65, 0
1, 16327, Note_on_c, 7, 66, 100
1, 16387, Note_on_c, 7, 73, 0
1, 16387, Note_on_c, 7, 69, 0
1, 16387, Note_on_c, 7, 66, 0
1, 16447, Note_on_c, 3, 81, 0
1, 16447, Note_on_c, 3, 73, 127
1, 16507, Note_on_c, 3, 73, 0
1, 16507, Note_on_c, 3, 71, 127
1, 16507, Note_on_c, 7, 71, 100
1, 16507, Note_on_c, 7, 66, 100
1, 16507, Note_on_c, 7, 62, 100
1, 16567, Note_on_c, 3, 71, 0
1, 16567, Note_on_c, 3, 74, 127
1, 16567, Note_on_c, 7, 71, 0
1, 16567, Note_on_c, 7, 66, 0
1, 16567, Note_on_c, 7, 62, 0
1, 16627, Note_on_c, 3, 74, 0
1, 16627, Note_on_c, 3, 78, 127
1, 16687, Note_on_c, 3, 78, 0
1, 16687, Note_on_c, 3, 69, 127
1, 16687, Note_on_c, 6, 57, 80
1, 16687, Note_on_c, 6, 49, 80
1, 16687, Note_on_c, 7, 69, 100
1, 16687, Note_on_c, 7, 61, 100
1, 16687, Note_on_c, 7, 64, 100
1, 16687, Note_on_c, 7, 52, 100
1, 16687, Note_on_c, 7, 40, 100
1, 16717, Note_on_c, 7, 69, 0
1, 16717, Note_on_c, 7, 61, 0
1, 16747, Note_on_c, 6, 57, 0
1, 16747, Note_on_c, 6, 57, 80
1, 16747, Note_on_c, 6, 49, 0
1, 16747, Note_on_c, 6, 49, 80
1, 16747, Note_on_c, 7, 69, 100
1, 16747, Note_on_c, 7, 61, 100
1, 16747, Note_on_c, 7, 64, 0
1, 16747, Note_on_c, 7, 64, 100
1, 16777, Note_on_c, 7, 69, 0
1, 16777, Note_on_c, 7, 61, 0
1, 16807, Note_on_c, 3, 69, 0
1, 16807, Note_on_c, 6, 57, 0
1, 16807, Note_on_c, 6, 57, 80
1, 16807, Note_on_c, 6, 49, 0
1, 16807, Note_on_c, 6, 49, 80
1, 16807, Note_on_c, 7, 69, 100
1, 16807, Note_on_c, 7, 61, 100
1, 16807, Note_on_c, 7, 64, 0
1, 16807, Note_on_c, 7, 64, 100
1, 16837, Note_on_c, 7, 69, 0
1, 16837, Note_on_c, 7, 61, 0
1, 16867, Note_on_c, 6, 57, 0
1, 16867, Note_on_c, 6, 59, 80
1, 16867, Note_on_c, 6, 49, 0
1, 16867, Note_on_c, 6, 52, 80
1, 16867, Note_on_c, 7, 73, 100
1, 16882, Note_on_c, 7, 73, 0
1, 16882, Note_on_c, 7, 71, 100
1, 16927, Note_on_c, 6, 59, 0
1, 16927, Note_on_c, 6, 57, 80
1, 16927, Note_on_c, 6, 52, 0
1, 16927, Note_on_c, 6, 49, 80
1, 16927, Note_on_c, 7, 71, 0
1, 16927, Note_on_c, 7, 69, 100
1, 16927, Note_on_c, 7, 61, 100
1, 16927, Note_on_c, 7, 64, 0
1, 16927, Note_on_c, 7, 64, 100
1, 16957, Note_on_c, 7, 61, 0
1, 16987, Note_on_c, 6, 57, 0
1, 16987, Note_on_c, 6, 59, 80
1, 16987, Note_on_c, 6, 49, 0
1, 16987, Note_on_c, 6, 52, 80
1, 16987, Note_on_c, 7, 69, 0
1, 16987, Note_on_c, 7, 71, 100
1, 17047, Note_on_c, 6, 59, 0
1, 17047, Note_on_c, 6, 61, 80
1, 17047, Note_on_c, 6, 52, 0
1, 17047, Note_on_c, 6, 57, 80
1, 17047, Note_on_c, 7, 71, 0
1, 17047, Note_on_c, 7, 73, 100
1, 17047, Note_on_c, 7, 69, 100
1, 17047, Note_on_c, 7, 64, 0
1, 17047, Note_on_c, 7, 64, 100
1, 17047, Note_on_c, 7, 52, 0
1, 17047, Note_on_c, 7, 57, 100
1, 17047, Note_on_c, 7, 40, 0
1, 17047, Note_on_c, 7, 45, 100
1, 17077, Note_on_c, 3, 64, 127
1, 17092, Note_on_c, 3, 64, 0
1, 17107, Note_on_c, 3, 66, 127
1, 17122, Note_on_c, 3, 66, 0
1, 17137, Note_on_c, 3, 68, 127
1, 17152, Note_on_c, 3, 68, 0
1, 17167, Note_on_c, 3, 69, 127
1, 17167, Note_on_c, 6, 61, 0
1, 17167, Note_on_c, 6, 57, 0
1, 17167, Note_on_c, 7, 73, 0
1, 17167, Note_on_c, 7, 69, 0
1, 17167, Note_on_c, 7, 64, 0
1, 17167, Note_on_c, 7, 57, 0
1, 17167, Note_on_c, 7, 45, 0
1, 17182, Note_on_c, 3, 69, 0
1, 17197, Note_on_c, 3, 71, 127
1, 17212, Note_on_c, 3, 71, 0
1, 17227, Note_on_c, 3, 73, 127
1, 17242, Note_on_c, 3, 73, 0
1, 17257, Note_on_c, 3, 74, 127
1, 17272, Note_on_c, 3, 74, 0
1, 17287, Note_on_c, 3, 76, 127
1, 17302, Note_on_c, 3, 76, 0
1, 17317, Note_on_c, 3, 78, 127
1, 17332, Note_on_c, 3, 78, 0
1, 17347, Note_on_c, 3, 80, 127
1, 17362, Note_on_c, 3, 80, 0
1, 17377, Note_on_c, 3, 81, 127
1, 17392, Note_on_c, 3, 81, 0
1, 17407, Note_on_c, 3, 83, 127
1, 17407, Note_on_c, 7, 68, 100
1, 17407, Note_on_c, 7, 64, 100
1, 17587, Note_on_c, 7, 68, 0
1, 17587, Note_on_c, 7, 76, 100
1, 17587, Note_on_c, 7, 68, 100
1, 17707, Note_on_c, 3, 83, 0
1, 17707, Note_on_c, 3, 84, 127
1, 17767, Note_on_c, 3, 84, 0
1, 17767, Note_on_c, 3, 85, 127
1, 17767, Note_on_c, 7, 76, 0
1, 17767, Note_on_c, 7, 76, 100
1, 17767, Note_on_c, 7, 68, 0
1, 17767, Note_on_c, 7, 69, 100
1, 17767, Note_on_c, 7, 64, 0
1, 17767, Note_on_c, 7, 57, 100
1, 17827, Note_on_c, 3, 85, 0
1, 17827, Note_on_c, 3, 81, 127
1, 17827, Note_on_c, 7, 76, 0
1, 17827, Note_on_c, 7, 69, 0
1, 17827, Note_on_c, 7, 57, 0
1, 17887, Note_on_c, 3, 81, 0
1, 17887, Note_on_c, 3, 76, 127
1, 17947, Note_on_c, 3, 76, 0
1, 17947, Note_on_c, 3, 78, 127
1, 17947, Note_on_c, 7, 74, 100
1, 17947, Note_on_c, 7, 71, 100
1, 17947, Note_on_c, 7, 62, 100
1, 17977, Note_on_c, 3, 78, 0
1, 17977, Note_on_c, 3, 79, 127
1, 18007, Note_on_c, 3, 79, 0
1, 18007, Note_on_c, 3, 80, 127
1, 18007, Note_on_c, 7, 74, 0
1, 18007, Note_on_c, 7, 71, 0
1, 18007, Note_on_c, 7, 62, 0
1, 18037, Note_on_c, 3, 80, 0
1, 18037, Note_on_c, 3, 81, 127
1, 18067, Note_on_c, 3, 81, 0
1, 18067, Note_on_c, 3, 78, 127
1, 18097, Note_on_c, 3, 78, 0
1, 18097, Note_on_c, 3, 74, 127
1, 18127, Note_on_c, 3, 74, 0
1, 18127, Note_on_c, 3, 73, 127
1, 18127, Note_on_c, 7, 73, 100
1, 18127, Note_on_c, 7, 69, 100
1, 18127, Note_on_c, 7, 64, 100
1, 18157, Note_on_c, 3, 73, 0
1, 18157, Note_on_c, 3, 74, 127
1, 18187, Note_on_c, 3, 74, 0
1, 18187, Note_on_c, 3, 75, 127
1, 18187, Note_on_c, 7, 73, 0
1, 18187, Note_on_c, 7, 69, 0
1, 18187, Note_on_c, 7, 64, 0
1, 18217, Note_on_c, 3, 75, 0
1, 18217, Note_on_c, 3, 76, 127
1, 18247, Note_on_c, 3, 76, 0
1, 18247, Note_on_c, 3, 73, 127
1, 18277, Note_on_c, 3, 73, 0
1, 18277, Note_on_c, 3, 69, 127
1, 18307, Note_on_c, 3, 69, 0
1, 18307, Note_on_c, 3, 71, 127
1, 18307, Note_on_c, 7, 68, 100
1, 18307, Note_on_c, 7, 62, 100
1, 18307, Note_on_c, 7, 52, 100
1, 18322, Note_on_c, 3, 71, 0
1, 18322, Note_on_c, 3, 73, 127
1, 18337, Note_on_c, 3, 73, 0
1, 18337, Note_on_c, 3, 71, 127
1, 18352, Note_on_c, 3, 71, 0
1, 18352, Note_on_c, 3, 73, 127
1, 18367, Note_on_c, 3, 73, 0
1, 18367, Note_on_c, 3, 71, 127
1, 18367, Note_on_c, 7, 68, 0
1, 18367, Note_on_c, 7, 68, 100
1, 18367, Note_on_c, 7, 62, 0
1, 18367, Note_on_c, 7, 62, 100
1, 18367, Note_on_c, 7, 52, 0
1, 18367, Note_on_c, 7, 52, 100
1, 18382, Note_on_c, 3, 71, 0
1, 18382, Note_on_c, 3, 73, 127
1, 18397, Note_on_c, 3, 73, 0
1, 18397, Note_on_c, 3, 71, 127
1, 18412, Note_on_c, 3, 71, 0
1, 18412, Note_on_c, 3, 73, 127
1, 18427, Note_on_c, 3, 73, 0
1, 18427, Note_on_c, 3, 71, 127
1, 18427, Note_on_c, 7, 68, 0
1, 18427, Note_on_c, 7, 68, 100
1, 18427, Note_on_c, 7, 62, 0
1, 18427, Note_on_c, 7, 62, 100
1, 18427, Note_on_c, 7, 52, 0
1, 18427, Note_on_c, 7, 52, 100
1, 18442, Note_on_c, 3, 71, 0
1, 18442, Note_on_c, 3, 73, 127
1, 18457, Note_on_c, 3, 73, 0
1, 18457, Note_on_c, 3, 69, 127
1, 18472, Note_on_c, 3, 69, 0
1, 18472, Note_on_c, 3, 71, 127
1, 18487, Note_on_c, 3, 71, 0
1, 18487, Note_on_c, 3, 69, 127
1, 18487, Note_on_c, 4, 88, 80
1, 18487, Note_on_c, 4, 85, 80
1, 18487, Note_on_c, 5, 64, 80
1, 18487, Note_on_c, 5, 61, 80
1, 18487, Note_on_c, 6, 57, 80
1, 18487, Note_on_c, 6, 45, 80
1, 18487, Note_on_c, 7, 68, 0
1, 18487, Note_on_c, 7, 73, 100
1, 18487, Note_on_c, 7, 81, 100
1, 18487, Note_on_c, 7, 62, 0
1, 18487, Note_on_c, 7, 52, 0
1, 18487, Note_on_c, 7, 57, 100
1, 18487, Note_on_c, 7, 45, 100
1, 18487, Note_on_c, 7, 33, 100
1, 18547, Note_on_c, 6, 57, 0
1, 18547, Note_on_c, 6, 57, 80
1, 18547, Note_on_c, 6, 45, 0
1, 18547, Note_on_c, 6, 45, 80
1, 18547, Note_on_c, 7, 57, 0
1, 18547, Note_on_c, 7, 69, 100
1, 18547, Note_on_c, 7, 45, 0
1, 18547, Note_on_c, 7, 57, 100
1, 18547, Note_on_c, 7, 33, 0
1, 18547, Note_on_c, 7, 45, 100
1, 18607, Note_on_c, 3, 69, 0
1, 18607, Note_on_c, 6, 57, 0
1, 18607, Note_on_c, 6, 57, 80
1, 18607, Note_on_c, 6, 45, 0
1, 18607, Note_on_c, 6, 45, 80
1, 18607, Note_on_c, 7, 69, 0
1, 18607, Note_on_c, 7, 69, 100
1, 18607, Note_on_c, 7, 57, 0
1, 18607, Note_on_c, 7, 57, 100
1, 18607, Note_on_c, 7, 45, 0
1, 18607, Note_on_c, 7, 45, 100
1, 18667, Note_on_c, 6, 57, 0
1, 18667, Note_on_c, 6, 61, 80
1, 18667, Note_on_c, 6, 45, 0
1, 18667, Note_on_c, 6, 49, 80
1, 18667, Note_on_c, 7, 69, 0
1, 18667, Note_on_c, 7, 57, 0
1, 18667, Note_on_c, 7, 61, 100
1, 18667, Note_on_c, 7, 45, 0
1, 18667, Note_on_c, 7, 49, 100
1, 18787, Note_on_c, 6, 61, 0
1, 18787, Note_on_c, 6, 57, 80
1, 18787, Note_on_c, 6, 49, 0
1, 18787, Note_on_c, 6, 45, 80
1, 18787, Note_on_c, 7, 69, 100
1, 18787, Note_on_c, 7, 61, 0
1, 18787, Note_on_c, 7, 57, 100
1, 18787, Note_on_c, 7, 49, 0
1, 18787, Note_on_c, 7, 45, 100
1, 18847, Note_on_c, 4, 88, 0
1, 18847, Note_on_c, 4, 88, 80
1, 18847, Note_on_c, 4, 85, 0
1, 18847, Note_on_c, 4, 85, 80
1, 18847, Note_on_c, 5, 64, 0
1, 18847, Note_on_c, 5, 64, 80
1, 18847, Note_on_c, 5, 61, 0
1, 18847, Note_on_c, 5, 61, 80
1, 18847, Note_on_c, 6, 57, 0
1, 18847, Note_on_c, 6, 52, 80
1, 18847, Note_on_c, 6, 45, 0
1, 18847, Note_on_c, 6, 40, 80
1, 18847, Note_on_c, 7, 69, 0
1, 18847, Note_on_c, 7, 64, 100
1, 18847, Note_on_c, 7, 57, 0
1, 18847, Note_on_c, 7, 52, 100
1, 18847, Note_on_c, 7, 45, 0
1, 18847, Note_on_c, 7, 40, 100
1, 18907, Note_on_c, 6, 52, 0
1, 18907, Note_on_c, 6, 52, 80
1, 18907, Note_on_c, 6, 40, 0
1, 18907, Note_on_c, 6, 40, 80
1, 18907, Note_on_c, 7, 76, 100
1, 18907, Note_on_c, 7, 73, 0
1, 18907, Note_on_c, 7, 81, 0
1, 18907, Note_on_c, 7, 73, 100
1, 18907, Note_on_c, 7, 64, 0
1, 18907, Note_on_c, 7, 64, 100
1, 18907, Note_on_c, 7, 52, 0
1, 18907, Note_on_c, 7, 52, 100
1, 18907, Note_on_c, 7, 40, 0
1, 18907, Note_on_c, 7, 40, 100
1, 18937, Note_on_c, 7, 76, 0
1, 18937, Note_on_c, 7, 76, 100
1, 18937, Note_on_c, 7, 73, 0
1, 18937, Note_on_c, 7, 73, 100
1, 18967, Note_on_c, 4, 88, 0
1, 18967, Note_on_c, 4, 81, 80
1, 18967, Note_on_c, 5, 64, 0
1, 18967, Note_on_c, 5, 57, 80
1, 18967, Note_on_c, 6, 52, 0
1, 18967, Note_on_c, 6, 52, 80
1, 18967, Note_on_c, 6, 40, 0
1, 18967, Note_on_c, 6, 40, 80
1, 18967, Note_on_c, 7, 76, 0
1, 18967, Note_on_c, 7, 85, 100
1, 18967, Note_on_c, 7, 73, 0
1, 18967, Note_on_c, 7, 69, 100
1, 18967, Note_on_c, 7, 64, 0
1, 18967, Note_on_c, 7, 64, 100
1, 18967, Note_on_c, 7, 52, 0
1, 18967, Note_on_c, 7, 52, 100
1, 18967, Note_on_c, 7, 40, 0
1, 18967, Note_on_c, 7, 40, 100
1, 18997, Note_on_c, 7, 85, 0
1, 18997, Note_on_c, 7, 85, 100
1, 18997, Note_on_c, 7, 69, 0
1, 18997, Note_on_c, 7, 69, 100
1, 19027, Note_on_c, 4, 85, 0
1, 19027, Note_on_c, 4, 86, 80
1, 19027, Note_on_c, 4, 81, 0
1, 19027, Note_on_c, 4, 83, 80
1, 19027, Note_on_c, 5, 61, 0
1, 19027, Note_on_c, 5, 62, 80
1, 19027, Note_on_c, 5, 57, 0
1, 19027, Note_on_c, 5, 59, 80
1, 19027, Note_on_c, 6, 52, 0
1, 19027, Note_on_c, 6, 52, 80
1, 19027, Note_on_c, 6, 40, 0
1, 19027, Note_on_c, 6, 40, 80
1, 19027, Note_on_c, 7, 85, 0
1, 19027, Note_on_c, 7, 86, 100
1, 19027, Note_on_c, 7, 69, 0
1, 19027, Note_on_c, 7, 68, 100
1, 19027, Note_on_c, 7, 64, 0
1, 19027, Note_on_c, 7, 64, 100
1, 19027, Note_on_c, 7, 52, 0
1, 19027, Note_on_c, 7, 52, 100
1, 19027, Note_on_c, 7, 40, 0
1, 19027, Note_on_c, 7, 40, 100
1, 19057, Note_on_c, 7, 86, 0
1, 19057, Note_on_c, 7, 86, 100
1, 19057, Note_on_c, 7, 68, 0
1, 19057, Note_on_c, 7, 68, 100
1, 19087, Note_on_c, 6, 52, 0
1, 19087, Note_on_c, 6, 52, 80
1, 19087, Note_on_c, 6, 40, 0
1, 19087, Note_on_c, 6, 40, 80
1, 19087, Note_on_c, 7, 86, 0
1, 19087, Note_on_c, 7, 83, 100
1, 19087, Note_on_c, 7, 68, 0
1, 19087, Note_on_c, 7, 71, 100
1, 19087, Note_on_c, 7, 64, 0
1, 19087, Note_on_c, 7, 64, 100
1, 19087, Note_on_c, 7, 52, 0
1, 19087, Note_on_c, 7, 52, 100
1, 19087, Note_on_c, 7, 40, 0
1, 19087, Note_on_c, 7, 40, 100
1, 19117, Note_on_c, 7, 83, 0
1, 19117, Note_on_c, 7, 83, 100
1, 19117, Note_on_c, 7, 71, 0
1, 19117, Note_on_c, 7, 71, 100
1, 19147, Note_on_c, 4, 86, 0
1, 19147, Note_on_c, 4, 80, 80
1, 19147, Note_on_c, 5, 62, 0
1, 19147, Note_on_c, 5, 56, 80
1, 19147, Note_on_c, 6, 52, 0
1, 19147, Note_on_c, 6, 52, 80
1, 19147, Note_on_c, 6, 40, 0
1, 19147, Note_on_c, 6, 40, 80
1, 19147, Note_on_c, 7, 83, 0
1, 19147, Note_on_c, 7, 80, 100
1, 19147, Note_on_c, 7, 71, 0
1, 19147, Note_on_c, 7, 74, 100
1, 19147, Note_on_c, 7, 64, 0
1, 19147, Note_on_c, 7, 64, 100
1, 19147, Note_on_c, 7, 52, 0
1, 19147, Note_on_c, 7, 52, 100
1, 19147, Note_on_c, 7, 40, 0
1, 19147, Note_on_c, 7, 40, 100
1, 19177, Note_on_c, 7, 80, 0
1, 19177, Note_on_c, 7, 80, 100
1, 19177, Note_on_c, 7, 74, 0
1, 19177, Note_on_c, 7, 74, 100
1, 19207, Note_on_c, 4, 83, 0
1, 19207, Note_on_c, 4, 88, 80
1, 19207, Note_on_c, 4, 80, 0
1, 19207, Note_on_c, 4, 85, 80
1, 19207, Note_on_c, 5, 59, 0
1, 19207, Note_on_c, 5, 64, 80
1, 19207, Note_on_c, 5, 56, 0
1, 19207, Note_on_c, 5, 61, 80
1, 19207, Note_on_c, 6, 52, 0
1, 19207, Note_on_c, 6, 57, 80
1, 19207, Note_on_c, 6, 40, 0
1, 19207, Note_on_c, 6, 45, 80
1, 19207, Note_on_c, 7, 80, 0
1, 19207, Note_on_c, 7, 73, 100
1, 19207, Note_on_c, 7, 81, 100
1, 19207, Note_on_c, 7, 74, 0
1, 19207, Note_on_c, 7, 64, 0
1, 19207, Note_on_c, 7, 57, 100
1, 19207, Note_on_c, 7, 52, 0
1, 19207, Note_on_c, 7, 45, 100
1, 19207, Note_on_c, 7, 40, 0
1, 19207, Note_on_c, 7, 33, 100
1, 19267, Note_on_c, 6, 57, 0
1, 19267, Note_on_c, 6, 57, 80
1, 19267, Note_on_c, 6, 45, 0
1, 19267, Note_on_c, 6, 45, 80
1, 19267, Note_on_c, 7, 57, 0
1, 19267, Note_on_c, 7, 69, 100
1, 19267, Note_on_c, 7, 45, 0
1, 19267, Note_on_c, 7, 57, 100
1, 19267, Note_on_c, 7, 33, 0
1, 19267, Note_on_c, 7, 45, 100
1, 19327, Note_on_c, 6, 57, 0
1, 19327, Note_on_c, 6, 57, 80
1, 19327, Note_on_c, 6, 45, 0
1, 19327, Note_on_c, 6, 45, 80
1, 19327, Note_on_c, 7, 69, 0
1, 19327, Note_on_c, 7, 69, 100
1, 19327, Note_on_c, 7, 57, 0
1, 19327, Note_on_c, 7, 57, 100
1, 19327, Note_on_c, 7, 45, 0
1, 19327, Note_on_c, 7, 45, 100
1, 19387, Note_on_c, 6, 57, 0
1, 19387, Note_on_c, 6, 61, 80
1, 19387, Note_on_c, 6, 45, 0
1, 19387, Note_on_c, 6, 49, 80
1, 19387, Note_on_c, 7, 69, 0
1, 19387, Note_on_c, 7, 57, 0
1, 19387, Note_on_c, 7, 61, 100
1, 19387, Note_on_c, 7, 45, 0
1, 19387, Note_on_c, 7, 49, 100
1, 19507, Note_on_c, 6, 61, 0
1, 19507, Note_on_c, 6, 57, 80
1, 19507, Note_on_c, 6, 49, 0
1, 19507, Note_on_c, 6, 45, 80
1, 19507, Note_on_c, 7, 69, 100
1, 19507, Note_on_c, 7, 61, 0
1, 19507, Note_on_c, 7, 57, 100
1, 19507, Note_on_c, 7, 49, 0
1, 19507, Note_on_c, 7, 45, 100
1, 19567, Note_on_c, 4, 88, 0
1, 19567, Note_on_c, 4, 88, 80
1, 19567, Note_on_c, 4, 85, 0
1, 19567, Note_on_c, 4, 85, 80
1, 19567, Note_on_c, 5, 64, 0
1, 19567, Note_on_c, 5, 64, 80
1, 19567, Note_on_c, 5, 61, 0
1, 19567, Note_on_c, 5, 61, 80
1, 19567, Note_on_c, 6, 57, 0
1, 19567, Note_on_c, 6, 52, 80
1, 19567, Note_on_c, 6, 45, 0
1, 19567, Note_on_c, 6, 40, 80
1, 19567, Note_on_c, 7, 69, 0
1, 19567, Note_on_c, 7, 64, 100
1, 19567, Note_on_c, 7, 57, 0
1, 19567, Note_on_c, 7, 52, 100
1, 19567, Note_on_c, 7, 45, 0
1, 19567, Note_on_c, 7, 40, 100
1, 19627, Note_on_c, 6, 52, 0
1, 19627, Note_on_c, 6, 52, 80
1, 19627, Note_on_c, 6, 40, 0
1, 19627, Note_on_c, 6, 40, 80
1, 19627, Note_on_c, 7, 76, 100
1, 19627, Note_on_c, 7, 73, 0
1, 19627, Note_on_c, 7, 81, 0
1, 19627, Note_on_c, 7, 73, 100
1, 19627, Note_on_c, 7, 64, 0
1, 19627, Note_on_c, 7, 64, 100
1, 19627, Note_on_c, 7, 52, 0
1, 19627, Note_on_c, 7, 52, 100
1, 19627, Note_on_c, 7, 40, 0
1, 19627, Note_on_c, 7, 40, 100
1, 19657, Note_on_c, 7, 76, 0
1, 19657, Note_on_c, 7, 76, 100
1, 19657, Note_on_c, 7, 73, 0
1, 19657, Note_on_c, 7, 73, 100
1, 19687, Note_on_c, 4, 88, 0
1, 19687, Note_on_c, 4, 81, 80
1, 19687, Note_on_c, 5, 64, 0
1, 19687, Note_on_c, 5, 57, 80
1, 19687, Note_on_c, 6, 52, 0
1, 19687, Note_on_c, 6, 52, 80
1, 19687, Note_on_c, 6, 40, 0
1, 19687, Note_on_c, 6, 40, 80
1, 19687, Note_on_c, 7, 76, 0
1, 19687, Note_on_c, 7, 85, 100
1, 19687, Note_on_c, 7, 73, 0
1, 19687, Note_on_c, 7, 69, 100
1, 19687, Note_on_c, 7, 64, 0
1, 19687, Note_on_c, 7, 64, 100
1, 19687, Note_on_c, 7, 52, 0
1, 19687, Note_on_c, 7, 52, 100
1, 19687, Note_on_c, 7, 40, 0
1, 19687, Note_on_c, 7, 40, 100
1, 19717, Note_on_c, 7, 85, 0
1, 19717, Note_on_c, 7, 85, 100
1, 19717, Note_on_c, 7, 69, 0
1, 19717, Note_on_c, 7, 69, 100
1, 19747, Note_on_c, 4, 85, 0
1, 19747, Note_on_c, 4, 86, 80
1, 19747, Note_on_c, 4, 81, 0
1, 19747, Note_on_c, 4, 83, 80
1, 19747, Note_on_c, 5, 61, 0
1, 19747, Note_on_c, 5, 62, 80
1, 19747, Note_on_c, 5, 57, 0
1, 19747, Note_on_c, 5, 59, 80
1, 19747, Note_on_c, 6, 52, 0
1, 19747, Note_on_c, 6, 52, 80
1, 19747, Note_on_c, 6, 40, 0
1, 19747, Note_on_c, 6, 40, 80
1, 19747, Note_on_c, 7, 85, 0
1, 19747, Note_on_c, 7, 86, 100
1, 19747, Note_on_c, 7, 69, 0
1, 19747, Note_on_c, 7, 68, 100
1, 19747, Note_on_c, 7, 64, 0
1, 19747, Note_on_c, 7, 64, 100
1, 19747, Note_on_c, 7, 52, 0
1, 19747, Note_on_c, 7, 52, 100
1, 19747, Note_on_c, 7, 40, 0
1, 19747, Note_on_c, 7, 40, 100
1, 19777, Note_on_c, 7, 86, 0
1, 19777, Note_on_c, 7, 86, 100
1, 19777, Note_on_c, 7, 68, 0
1, 19777, Note_on_c, 7, 68, 100
1, 19807, Note_on_c, 6, 52, 0
1, 19807, Note_on_c, 6, 52, 80
1, 19807, Note_on_c, 6, 40, 0
1, 19807, Note_on_c, 6, 40, 80
1, 19807, Note_on_c, 7, 86, 0
1, 19807, Note_on_c, 7, 83, 100
1, 19807, Note_on_c, 7, 68, 0
1, 19807, Note_on_c, 7, 71, 100
1, 19807, Note_on_c, 7, 64, 0
1, 19807, Note_on_c, 7, 64, 100
1, 19807, Note_on_c, 7, 52, 0
1, 19807, Note_on_c, 7, 52, 100
1, 19807, Note_on_c, 7, 40, 0
1, 19807, Note_on_c, 7, 40, 100
1, 19837, Note_on_c, 7, 83, 0
1, 19837, Note_on_c, 7, 83, 100
1, 19837, Note_on_c, 7, 71, 0
1, 19837, Note_on_c, 7, 71, 100
1, 19867, Note_on_c, 4, 86, 0
1, 19867, Note_on_c, 4, 80, 80
1, 19867, Note_on_c, 5, 62, 0
1, 19867, Note_on_c, 5, 56, 80
1, 19867, Note_on_c, 6, 52, 0
1, 19867, Note_on_c, 6, 52, 80
1, 19867, Note_on_c, 6, 40, 0
1, 19867, Note_on_c, 6, 40, 80
1, 19867, Note_on_c, 7, 83, 0
1, 19867, Note_on_c, 7, 80, 100
1, 19867, Note_on_c, 7, 71, 0
1, 19867, Note_on_c, 7, 74, 100
1, 19867, Note_on_c, 7, 64, 0
1, 19867, Note_on_c, 7, 64, 100
1, 19867, Note_on_c, 7, 52, 0
1, 19867, Note_on_c, 7, 52, 100
1, 19867, Note_on_c, 7, 40, 0
1, 19867, Note_on_c, 7, 40, 100
1, 19897, Note_on_c, 7, 80, 0
1, 19897, Note_on_c, 7, 80, 100
1, 19897, Note_on_c, 7, 74, 0
1, 19897, Note_on_c, 7, 74, 100
1, 19927, Note_on_c, 4, 83, 0
1, 19927, Note_on_c, 4, 81, 80
1, 19927, Note_on_c, 4, 80, 0
1, 19927, Note_on_c, 5, 59, 0
1, 19927, Note_on_c, 5, 57, 80
1, 19927, Note_on_c, 5, 56, 0
1, 19927, Note_on_c, 6, 52, 0
1, 19927, Note_on_c, 6, 45, 80
1, 19927, Note_on_c, 6, 40, 0
1, 19927, Note_on_c, 7, 80, 0
1, 19927, Note_on_c, 7, 81, 100
1, 19927, Note_on_c, 7, 74, 0
1, 19927, Note_on_c, 7, 73, 100
1, 19927, Note_on_c, 7, 64, 0
1, 19927, Note_on_c, 7, 57, 100
1, 19927, Note_on_c, 7, 52, 0
1, 19927, Note_on_c, 7, 45, 100
1, 19927, Note_on_c, 7, 40, 0
1, 19927, Note_on_c, 7, 33, 100
1, 20047, Note_on_c, 4, 81, 0
1, 20047, Note_on_c, 5, 57, 0
1, 20047, Note_on_c, 6, 45, 0
1, 20047, Note_on_c, 7, 81, 0
1, 20047, Note_on_c, 7, 73, 0
1, 20047, Note_on_c, 7, 57, 0
1, 20047, Note_on_c, 7, 45, 0
1, 20047, Note_on_c, 7, 33, 0
1, 20107, Note_on_c, 4, 85, 80
1, 20107, Note_on_c, 4, 76, 80
1, 20107, Note_on_c, 5, 57, 80
1, 20107, Note_on_c, 6, 52, 80
1, 20107, Note_on_c, 6, 49, 80
1, 20107, Note_on_c, 7, 69, 100
1, 20107, Note_on_c, 7, 76, 100
1, 20107, Note_on_c, 7, 85, 100
1, 20107, Note_on_c, 7, 64, 100
1, 20107, Note_on_c, 7, 73, 100
1, 20107, Note_on_c, 7, 81, 100
1, 20107, Note_on_c, 7, 57, 100
1, 20107, Note_on_c, 7, 45, 100
1, 20227, Note_on_c, 4, 85, 0
1, 20227, Note_on_c, 4, 76, 0
1, 20227, Note_on_c, 5, 57, 0
1, 20227, Note_on_c, 6, 52, 0
1, 20227, Note_on_c, 6, 49, 0
1, 20227, Note_on_c, 7, 76, 0
1, 20227, Note_on_c, 7, 85, 0
1, 20227, Note_on_c, 7, 64, 0
1, 20227, Note_on_c, 7, 73, 0
1, 20227, Note_on_c, 7, 81, 0
1, 20227, Note_on_c, 7, 69, 0
1, 20227, Note_on_c, 7, 57, 0
1, 20227, Note_on_c, 7, 45, 0
1, 20287, Note_on_c, 4, 81, 80
1, 20287, Note_on_c, 4, 73, 80
1, 20287, Note_on_c, 5, 45, 80
1, 20287, Note_on_c, 6, 49, 80
1, 20287, Note_on_c, 6, 45, 80
1, 20287, Note_on_c, 7, 64, 100
1, 20287, Note_on_c, 7, 73, 100
1, 20287, Note_on_c, 7, 81, 100
1, 20287, Note_on_c, 7, 61, 100
1, 20287, Note_on_c, 7, 69, 100
1, 20287, Note_on_c, 7, 57, 100
1, 20287, Note_on_c, 7, 45, 100
1, 20287, Note_on_c, 7, 33, 100
1, 20407, Note_on_c, 4, 81, 0
1, 20407, Note_on_c, 4, 73, 0
1, 20407, Note_on_c, 5, 45, 0
1, 20407, Note_on_c, 6, 49, 0
1, 20407, Note_on_c, 6, 45, 0
1, 20407, Note_on_c, 7, 73, 0
1, 20407, Note_on_c, 7, 81, 0
1, 20407, Note_on_c, 7, 61, 0
1, 20407, Note_on_c, 7, 64, 0
1, 20407, Note_on_c, 7, 69, 0
1, 20407, Note_on_c, 7, 57, 0
1, 20407, Note_on_c, 7, 45, 0
1, 20407, Note_on_c, 7, 33, 0
1, 20647, Note_on_c, 3, 73, 127
1, 20647, Note_on_c, 7, 69, 100
1, 20827, Note_on_c, 3, 73, 0
1, 20827, Note_on_c, 3, 76, 127
1, 20827, Note_on_c, 7, 73, 100
1, 20842, Note_on_c, 3, 76, 0
1, 20842, Note_on_c, 3, 74, 127
1, 20842, Note_on_c, 7, 73, 0
1, 20842, Note_on_c, 7, 71, 100
1, 20865, Note_on_c, 7, 71, 0
1, 20887, Note_on_c, 3, 74, 0
1, 20887, Note_on_c, 3, 73, 127
1, 20947, Note_on_c, 3, 73, 0
1, 20947, Note_on_c, 3, 74, 127
1, 20947, Note_on_c, 7, 71, 100
1, 20977, Note_on_c, 7, 71, 0
1, 21007, Note_on_c, 3, 74, 0
1, 21007, Note_on_c, 3, 76, 127
1, 21007, Note_on_c, 7, 73, 100
1, 21067, Note_on_c, 7, 69, 0
1, 21067, Note_on_c, 7, 69, 100
1, 21097, Note_on_c, 7, 69, 0
1, 21127, Note_on_c, 7, 69, 100
1, 21157, Note_on_c, 7, 69, 0
1, 21187, Note_on_c, 7, 69, 100
1, 21217, Note_on_c, 7, 69, 0
1, 21247, Note_on_c, 7, 69, 100
1, 21277, Note_on_c, 7, 69, 0
1, 21307, Note_on_c, 3, 76, 0
1, 21307, Note_on_c, 3, 77, 127
1, 21307, Note_on_c, 7, 69, 100
1, 21337, Note_on_c, 7, 69, 0
1, 21367, Note_on_c, 3, 77, 0
1, 21367, Note_on_c, 3, 78, 127
1, 21367, Note_on_c, 7, 73, 0
1, 21367, Note_on_c, 7, 74, 100
1, 21367, Note_on_c, 7, 69, 100
1, 21427, Note_on_c, 3, 78, 0
1, 21427, Note_on_c, 3, 74, 127
1, 21427, Note_on_c, 7, 74, 0
1, 21427, Note_on_c, 7, 69, 0
1, 21487, Note_on_c, 3, 74, 0
1, 21487, Note_on_c, 3, 69, 127
1, 21517, Note_on_c, 3, 69, 0
1, 21547, Note_on_c, 3, 81, 127
1, 21547, Note_on_c, 7, 78, 100
1, 21547, Note_on_c, 7, 69, 100
1, 21607, Note_on_c, 3, 81, 0
1, 21607, Note_on_c, 3, 78, 127
1, 21607, Note_on_c, 7, 78, 0
1, 21607, Note_on_c, 7, 69, 0
1, 21667, Note_on_c, 3, 78, 0
1, 21667, Note_on_c, 3, 74, 127
1, 21697, Note_on_c, 3, 74, 0
1, 21727, Note_on_c, 3, 76, 127
1, 21727, Note_on_c, 7, 73, 100
1, 21727, Note_on_c, 7, 69, 100
1, 21847, Note_on_c, 3, 76, 0
1, 21847, Note_on_c, 3, 73, 127
1, 21847, Note_on_c, 7, 73, 0
1, 21847, Note_on_c, 7, 64, 100
1, 21847, Note_on_c, 7, 69, 0
1, 21907, Note_on_c, 3, 73, 0
1, 21907, Note_on_c, 3, 69, 127
1, 21907, Note_on_c, 7, 64, 0
1, 21907, Note_on_c, 7, 61, 100
1, 21907, Note_on_c, 7, 57, 100
1, 21937, Note_on_c, 7, 57, 0
1, 22027, Note_on_c, 3, 69, 0
1, 22027, Note_on_c, 7, 61, 0
1, 22027, Note_on_c, 7, 57, 100
1, 22057, Note_on_c, 7, 57, 0
1, 22087, Note_on_c, 3, 74, 127
1, 22087, Note_on_c, 7, 68, 100
1, 22087, Note_on_c, 7, 59, 100
1, 22087, Note_on_c, 7, 64, 100
1, 22087, Note_on_c, 7, 52, 100
1, 22087, Note_on_c, 7, 40, 100
1, 22117, Note_on_c, 3, 74, 0
1, 22117, Note_on_c, 3, 71, 127
1, 22147, Note_on_c, 3, 71, 0
1, 22147, Note_on_c, 3, 68, 127
1, 22177, Note_on_c, 3, 68, 0
1, 22177, Note_on_c, 3, 64, 127
1, 22207, Note_on_c, 3, 64, 0
1, 22207, Note_on_c, 3, 62, 127
1, 22207, Note_on_c, 7, 68, 0
1, 22207, Note_on_c, 7, 59, 0
1, 22207, Note_on_c, 7, 64, 0
1, 22207, Note_on_c, 7, 52, 0
1, 22207, Note_on_c, 7, 40, 0
1, 22237, Note_on_c, 3, 62, 0
1, 22237, Note_on_c, 3, 59, 127
1, 22267, Note_on_c, 3, 59, 0
1, 22267, Note_on_c, 3, 56, 127
1, 22297, Note_on_c, 3, 56, 0
1, 22297, Note_on_c, 3, 54, 127
1, 22327, Note_on_c, 3, 54, 0
1, 22327, Note_on_c, 3, 52, 127
1, 22327, Note_on_c, 7, 68, 100
1, 22327, Note_on_c, 7, 59, 100
1, 22327, Note_on_c, 7, 64, 100
1, 22327, Note_on_c, 7, 52, 100
1, 22327, Note_on_c, 7, 40, 100
1, 22357, Note_on_c, 3, 52, 0
1, 22357, Note_on_c, 3, 50, 127
1, 22357, Note_on_c, 7, 68, 0
1, 22357, Note_on_c, 7, 59, 0
1, 22357, Note_on_c, 7, 64, 0
1, 22357, Note_on_c, 7, 52, 0
1, 22357, Note_on_c, 7, 40, 0
1, 22387, Note_on_c, 3, 50, 0
1, 22387, Note_on_c, 3, 49, 127
1, 22387, Note_on_c, 7, 68, 100
1, 22387, Note_on_c, 7, 59, 100
1, 22387, Note_on_c, 7, 64, 100
1, 22387, Note_on_c, 7, 50, 100
1, 22387, Note_on_c, 7, 38, 100
1, 22417, Note_on_c, 3, 49, 0
1, 22417, Note_on_c, 3, 47, 127
1, 22417, Note_on_c, 7, 68, 0
1, 22417, Note_on_c, 7, 59, 0
1, 22417, Note_on_c, 7, 64, 0
1, 22417, Note_on_c, 7, 50, 0
1, 22417, Note_on_c, 7, 38, 0
1, 22447, Note_on_c, 3, 47, 0
1, 22447, Note_on_c, 3, 45, 127
1, 22447, Note_on_c, 7, 69, 100
1, 22447, Note_on_c, 7, 61, 100
1, 22447, Note_on_c, 7, 64, 100
1, 22447, Note_on_c, 7, 49, 100
1, 22447, Note_on_c, 7, 37, 100
1, 22477, Note_on_c, 3, 45, 0
1, 22477, Note_on_c, 3, 49, 127
1, 22507, Note_on_c, 3, 49, 0
1, 22507, Note_on_c, 3, 52, 127
1, 22537, Note_on_c, 3, 52, 0
1, 22537, Note_on_c, 3, 57, 127
1, 22567, Note_on_c, 3, 57, 0
1, 22567, Note_on_c, 3, 61, 127
1, 22567, Note_on_c, 7, 69, 0
1, 22567, Note_on_c, 7, 61, 0
1, 22567, Note_on_c, 7, 64, 0
1, 22567, Note_on_c, 7, 49, 0
1, 22567, Note_on_c, 7, 37, 0
1, 22597, Note_on_c, 3, 61, 0
1, 22597, Note_on_c, 3, 64, 127
1, 22627, Note_on_c, 3, 64, 0
1, 22627, Note_on_c, 3, 69, 127
1, 22657, Note_on_c, 3, 69, 0
1, 22657, Note_on_c, 3, 73, 127
1, 22687, Note_on_c, 3, 73, 0
1, 22687, Note_on_c, 3, 76, 127
1, 22687, Note_on_c, 7, 69, 100
1, 22687, Note_on_c, 7, 61, 100
1, 22717, Note_on_c, 3, 76, 0
1, 22717, Note_on_c, 3, 81, 127
1, 22717, Note_on_c, 7, 69, 0
1, 22717, Note_on_c, 7, 61, 0
1, 22747, Note_on_c, 3, 81, 0
1, 22747, Note_on_c, 3, 76, 127
1, 22747, Note_on_c, 7, 73, 100
1, 22747, Note_on_c, 7, 57, 100
1, 22777, Note_on_c, 3, 76, 0
1, 22777, Note_on_c, 3, 73, 127
1, 22777, Note_on_c, 7, 73, 0
1, 22777, Note_on_c, 7, 57, 0
1, 22807, Note_on_c, 3, 73, 0
1, 22807, Note_on_c, 3, 70, 127
1, 22807, Note_on_c, 7, 66, 100
1, 22807, Note_on_c, 7, 62, 100
1, 22867, Note_on_c, 3, 70, 0
1, 22867, Note_on_c, 3, 71, 127
1, 22927, Note_on_c, 3, 71, 0
1, 22927, Note_on_c, 3, 73, 127
1, 22927, Note_on_c, 7, 66, 0
1, 22927, Note_on_c, 7, 70, 100
1, 22987, Note_on_c, 3, 73, 0
1, 22987, Note_on_c, 3, 74, 127
1, 22987, Note_on_c, 7, 70, 0
1, 22987, Note_on_c, 7, 71, 100
1, 22987, Note_on_c, 7, 62, 0
1, 22987, Note_on_c, 7, 62, 100
1, 23047, Note_on_c, 3, 74, 0
1, 23047, Note_on_c, 3, 76, 127
1, 23047, Note_on_c, 7, 71, 0
1, 23047, Note_on_c, 7, 73, 100
1, 23047, Note_on_c, 7, 62, 0
1, 23047, Note_on_c, 7, 61, 100
1, 23107, Note_on_c, 3, 76, 0
1, 23107, Note_on_c, 3, 78, 127
1, 23107, Note_on_c, 7, 73, 0
1, 23107, Note_on_c, 7, 74, 100
1, 23107, Note_on_c, 7, 61, 0
1, 23107, Note_on_c, 7, 59, 100
1, 23167, Note_on_c, 3, 78, 0
1, 23167, Note_on_c, 3, 73, 127
1, 23167, Note_on_c, 7, 74, 0
1, 23167, Note_on_c, 7, 69, 100
1, 23167, Note_on_c, 7, 59, 0
1, 23167, Note_on_c, 7, 64, 100
1, 23227, Note_on_c, 7, 64, 0
1, 23227, Note_on_c, 7, 64, 100
1, 23287, Note_on_c, 3, 73, 0
1, 23287, Note_on_c, 3, 74, 127
1, 23287, Note_on_c, 7, 69, 0
1, 23287, Note_on_c, 7, 71, 100
1, 23287, Note_on_c, 7, 64, 0
1, 23287, Note_on_c, 7, 64, 100
1, 23317, Note_on_c, 3, 74, 0
1, 23317, Note_on_c, 3, 73, 127
1, 23317, Note_on_c, 7, 71, 0
1, 23317, Note_on_c, 7, 69, 100
1, 23347, Note_on_c, 3, 73, 0
1, 23347, Note_on_c, 3, 71, 127
1, 23347, Note_on_c, 7, 69, 0
1, 23347, Note_on_c, 7, 68, 100
1, 23347, Note_on_c, 7, 64, 0
1, 23347, Note_on_c, 7, 64, 100
1, 23407, Note_on_c, 3, 71, 0
1, 23407, Note_on_c, 7, 68, 0
1, 23407, Note_on_c, 7, 64, 0
1, 23407, Note_on_c, 7, 62, 100
1, 23467, Note_on_c, 7, 62, 0
1, 23467, Note_on_c, 7, 59, 100
1, 23527, Note_on_c, 3, 49, 127
1, 23527, Note_on_c, 7, 61, 100
1, 23527, Note_on_c, 7, 59, 0
1, 23527, Note_on_c, 7, 57, 100
1, 23527, Note_on_c, 7, 45, 100
1, 23527, Note_on_c, 7, 33, 100
1, 23707, Note_on_c, 3, 49, 0
1, 23707, Note_on_c, 3, 52, 127
1, 23707, Note_on_c, 7, 61, 0
1, 23707, Note_on_c, 7, 64, 100
1, 23707, Note_on_c, 7, 49, 100
1, 23722, Note_on_c, 3, 52, 0
1, 23722, Note_on_c, 3, 50, 127
1, 23722, Note_on_c, 7, 64, 0
1, 23722, Note_on_c, 7, 62, 100
1, 23722, Note_on_c, 7, 49, 0
1, 23722, Note_on_c, 7, 59, 100
1, 23745, Note_on_c, 7, 62, 0
1, 23745, Note_on_c, 7, 59, 0
1, 23767, Note_on_c, 3, 50, 0
1, 23767, Note_on_c, 3, 49, 127
1, 23767, Note_on_c, 7, 61, 100
1, 23797, Note_on_c, 7, 61, 0
1, 23827, Note_on_c, 3, 49, 0
1, 23827, Note_on_c, 3, 50, 127
1, 23827, Note_on_c, 7, 62, 100
1, 23827, Note_on_c, 7, 59, 100
1, 23857, Note_on_c, 7, 62, 0
1, 23857, Note_on_c, 7, 59, 0
1, 23887, Note_on_c, 3, 50, 0
1, 23887, Note_on_c, 3, 52, 127
1, 23887, Note_on_c, 7, 64, 100
1, 23887, Note_on_c, 7, 61, 100
1, 23947, Note_on_c, 7, 57, 0
1, 23947, Note_on_c, 7, 57, 100
1, 23977, Note_on_c, 7, 57, 0
1, 24007, Note_on_c, 7, 57, 100
1, 24037, Note_on_c, 7, 57, 0
1, 24067, Note_on_c, 7, 57, 100
1, 24097, Note_on_c, 7, 57, 0
1, 24127, Note_on_c, 7, 57, 100
1, 24157, Note_on_c, 7, 57, 0
1, 24187, Note_on_c, 3, 52, 0
1, 24187, Note_on_c, 3, 53, 127
1, 24187, Note_on_c, 7, 64, 0
1, 24187, Note_on_c, 7, 65, 100
1, 24187, Note_on_c, 7, 57, 100
1, 24217, Note_on_c, 7, 57, 0
1, 24247, Note_on_c, 3, 53, 0
1, 24247, Note_on_c, 3, 54, 127
1, 24247, Note_on_c, 7, 65, 0
1, 24247, Note_on_c, 7, 66, 100
1, 24247, Note_on_c, 7, 61, 0
1, 24247, Note_on_c, 7, 62, 100
1, 24247, Note_on_c, 7, 57, 100
1, 24247, Note_on_c, 7, 45, 0
1, 24247, Note_on_c, 7, 45, 100
1, 24247, Note_on_c, 7, 33, 0
1, 24247, Note_on_c, 7, 33, 100
1, 24307, Note_on_c, 3, 54, 0
1, 24307, Note_on_c, 3, 50, 127
1, 24307, Note_on_c, 7, 66, 0
1, 24307, Note_on_c, 7, 62, 0
1, 24307, Note_on_c, 7, 57, 0
1, 24307, Note_on_c, 7, 45, 0
1, 24307, Note_on_c, 7, 33, 0
1, 24367, Note_on_c, 3, 50, 0
1, 24367, Note_on_c, 3, 45, 127
1, 24397, Note_on_c, 3, 45, 0
1, 24427, Note_on_c, 3, 57, 127
1, 24427, Note_on_c, 7, 69, 100
1, 24427, Note_on_c, 7, 66, 100
1, 24427, Note_on_c, 7, 57, 100
1, 24427, Note_on_c, 7, 45, 100
1, 24427, Note_on_c, 7, 33, 100
1, 24487, Note_on_c, 3, 57, 0
1, 24487, Note_on_c, 3, 54, 127
1, 24487, Note_on_c, 7, 69, 0
1, 24487, Note_on_c, 7, 66, 0
1, 24487, Note_on_c, 7, 57, 0
1, 24487, Note_on_c, 7, 45, 0
1, 24487, Note_on_c, 7, 33, 0
1, 24547, Note_on_c, 3, 54, 0
1, 24547, Note_on_c, 3, 50, 127
1, 24577, Note_on_c, 3, 50, 0
1, 24607, Note_on_c, 3, 52, 127
1, 24607, Note_on_c, 7, 64, 100
1, 24607, Note_on_c, 7, 61, 100
1, 24607, Note_on_c, 7, 57, 100
1, 24607, Note_on_c, 7, 45, 100
1, 24607, Note_on_c, 7, 33, 100
1, 24727, Note_on_c, 3, 52, 0
1, 24727, Note_on_c, 3, 49, 127
1, 24727, Note_on_c, 7, 64, 0
1, 24727, Note_on_c, 7, 61, 0
1, 24727, Note_on_c, 7, 57, 0
1, 24727, Note_on_c, 7, 45, 0
1, 24727, Note_on_c, 7, 33, 0
1, 24787, Note_on_c, 3, 49, 0
1, 24787, Note_on_c, 3, 45, 127
1, 24847, Note_on_c, 7, 81, 100
1, 24847, Note_on_c, 7, 73, 100
1, 24847, Note_on_c, 7, 66, 100
1, 24907, Note_on_c, 3, 45, 0
1, 24907, Note_on_c, 7, 81, 0
1, 24907, Note_on_c, 7, 81, 100
1, 24907, Note_on_c, 7, 73, 0
1, 24907, Note_on_c, 7, 73, 100
1, 24907, Note_on_c, 7, 66, 0
1, 24907, Note_on_c, 7, 64, 100
1, 24967, Note_on_c, 3, 47, 127
1, 24967, Note_on_c, 7, 81, 0
1, 24967, Note_on_c, 7, 81, 100
1, 24967, Note_on_c, 7, 73, 0
1, 24967, Note_on_c, 7, 71, 100
1, 24967, Note_on_c, 7, 64, 0
1, 24967, Note_on_c, 7, 63, 100
1, 24997, Note_on_c, 3, 47, 0
1, 24997, Note_on_c, 3, 51, 127
1, 25027, Note_on_c, 3, 51, 0
1, 25027, Note_on_c, 3, 54, 127
1, 25057, Note_on_c, 3, 54, 0
1, 25057, Note_on_c, 3, 59, 127
1, 25087, Note_on_c, 3, 59, 0
1, 25087, Note_on_c, 3, 63, 127
1, 25087, Note_on_c, 7, 81, 0
1, 25087, Note_on_c, 7, 71, 0
1, 25087, Note_on_c, 7, 63, 0
1, 25117, Note_on_c, 3, 63, 0
1, 25117, Note_on_c, 3, 66, 127
1, 25147, Note_on_c, 3, 66, 0
1, 25147, Note_on_c, 3, 71, 127
1, 25147, Note_on_c, 7, 66, 100
1, 25147, Note_on_c, 7, 63, 100
1, 25147, Note_on_c, 7, 59, 100
1, 25147, Note_on_c, 7, 57, 100
1, 25147, Note_on_c, 7, 45, 100
1, 25177, Note_on_c, 3, 71, 0
1, 25177, Note_on_c, 3, 75, 127
1, 25207, Note_on_c, 3, 75, 0
1, 25207, Note_on_c, 3, 78, 127
1, 25237, Note_on_c, 3, 78, 0
1, 25237, Note_on_c, 3, 81, 127
1, 25267, Note_on_c, 3, 81, 0
1, 25267, Note_on_c, 3, 78, 127
1, 25297, Note_on_c, 3, 78, 0
1, 25297, Note_on_c, 3, 75, 127
1, 25327, Note_on_c, 3, 75, 0
1, 25327, Note_on_c, 3, 76, 127
1, 25327, Note_on_c, 7, 66, 0
1, 25327, Note_on_c, 7, 68, 100
1, 25327, Note_on_c, 7, 63, 0
1, 25327, Note_on_c, 7, 64, 100
1, 25327, Note_on_c, 7, 57, 0
1, 25327, Note_on_c, 7, 56, 100
1, 25327, Note_on_c, 7, 45, 0
1, 25327, Note_on_c, 7, 44, 100
1, 25357, Note_on_c, 3, 76, 0
1, 25357, Note_on_c, 3, 80, 127
1, 25387, Note_on_c, 3, 80, 0
1, 25387, Note_on_c, 3, 83, 127
1, 25417, Note_on_c, 3, 83, 0
1, 25417, Note_on_c, 3, 81, 127
1, 25447, Note_on_c, 3, 81, 0
1, 25447, Note_on_c, 3, 80, 127
1, 25447, Note_on_c, 7, 68, 0
1, 25447, Note_on_c, 7, 64, 0
1, 25447, Note_on_c, 7, 59, 0
1, 25447, Note_on_c, 7, 56, 0
1, 25447, Note_on_c, 7, 44, 0
1, 25477, Note_on_c, 3, 80, 0
1, 25477, Note_on_c, 3, 78, 127
1, 25507, Note_on_c, 3, 78, 0
1, 25507, Note_on_c, 3, 76, 127
1, 25537, Note_on_c, 3, 76, 0
1, 25537, Note_on_c, 3, 75, 127
1, 25567, Note_on_c, 3, 75, 0
1, 25567, Note_on_c, 3, 73, 127
1, 25597, Note_on_c, 3, 73, 0
1, 25597, Note_on_c, 3, 71, 127
1, 25627, Note_on_c, 3, 71, 0
1, 25627, Note_on_c, 3, 69, 127
1, 25657, Note_on_c, 3, 69, 0
1, 25657, Note_on_c, 3, 68, 127
1, 25687, Note_on_c, 3, 68, 0
1, 25687, Note_on_c, 3, 66, 127
1, 25687, Note_on_c, 7, 66, 100
1, 25687, Note_on_c, 7, 61, 100
1, 25687, Note_on_c, 7, 57, 100
1, 25717, Note_on_c, 3, 66, 0
1, 25747, Note_on_c, 3, 69, 127
1, 25777, Note_on_c, 3, 69, 0
1, 25807, Note_on_c, 3, 73, 127
1, 25807, Note_on_c, 7, 66, 0
1, 25807, Note_on_c, 7, 61, 0
1, 25807, Note_on_c, 7, 57, 0
1, 25837, Note_on_c, 3, 73, 0
1, 25867, Note_on_c, 3, 78, 127
1, 25897, Note_on_c, 3, 78, 0
1, 25927, Note_on_c, 3, 81, 127
1, 25957, Note_on_c, 3, 81, 0
1, 25987, Note_on_c, 3, 75, 127
1, 25987, Note_on_c, 7, 69, 100
1, 25987, Note_on_c, 7, 66, 100
1, 25987, Note_on_c, 7, 59, 100
1, 26017, Note_on_c, 3, 75, 0
1, 26047, Note_on_c, 3, 78, 127
1, 26047, Note_on_c, 7, 69, 0
1, 26047, Note_on_c, 7, 69, 100
1, 26047, Note_on_c, 7, 66, 0
1, 26047, Note_on_c, 7, 63, 100
1, 26047, Note_on_c, 7, 59, 0
1, 26047, Note_on_c, 7, 59, 100
1, 26107, Note_on_c, 7, 63, 0
1, 26107, Note_on_c, 7, 63, 100
1, 26107, Note_on_c, 7, 59, 0
1, 26107, Note_on_c, 7, 59, 100
1, 26167, Note_on_c, 7, 63, 0
1, 26167, Note_on_c, 7, 63, 100
1, 26167, Note_on_c, 7, 59, 0
1, 26167, Note_on_c, 7, 59, 100
1, 26227, Note_on_c, 3, 78, 0
1, 26227, Note_on_c, 3, 76, 127
1, 26227, Note_on_c, 7, 69, 0
1, 26227, Note_on_c, 7, 68, 100
1, 26227, Note_on_c, 7, 63, 0
1, 26227, Note_on_c, 7, 64, 100
1, 26227, Note_on_c, 7, 59, 0
1, 26227, Note_on_c, 7, 52, 100
1, 26257, Note_on_c, 7, 68, 0
1, 26257, Note_on_c, 7, 71, 100
1, 26287, Note_on_c, 3, 76, 0
1, 26287, Note_on_c, 7, 71, 0
1, 26287, Note_on_c, 7, 73, 100
1, 26287, Note_on_c, 7, 64, 0
1, 26287, Note_on_c, 7, 52, 0
1, 26317, Note_on_c, 7, 73, 0
1, 26317, Note_on_c, 7, 75, 100
1, 26347, Note_on_c, 7, 75, 0
1, 26347, Note_on_c, 7, 76, 100
1, 26377, Note_on_c, 7, 76, 0
1, 26377, Note_on_c, 7, 78, 100
1, 26407, Note_on_c, 5, 64, 80
1, 26407, Note_on_c, 7, 78, 0
1, 26407, Note_on_c, 7, 79, 100
1, 26407, Note_on_c, 7, 64, 100
1, 26527, Note_on_c, 7, 79, 0
1, 26527, Note_on_c, 7, 79, 100
1, 26527, Note_on_c, 7, 67, 100
1, 26587, Note_on_c, 7, 79, 0
1, 26587, Note_on_c, 7, 81, 100
1, 26587, Note_on_c, 7, 67, 0
1, 26587, Note_on_c, 7, 72, 100
1, 26602, Note_on_c, 7, 81, 0
1, 26602, Note_on_c, 7, 79, 100
1, 26617, Note_on_c, 7, 79, 0
1, 26617, Note_on_c, 7, 81, 100
1, 26632, Note_on_c, 7, 81, 0
1, 26632, Note_on_c, 7, 79, 100
1, 26647, Note_on_c, 7, 79, 0
1, 26647, Note_on_c, 7, 78, 100
1, 26677, Note_on_c, 7, 78, 0
1, 26707, Note_on_c, 7, 79, 100
1, 26707, Note_on_c, 7, 72, 0
1, 26737, Note_on_c, 7, 79, 0
1, 26767, Note_on_c, 5, 63, 80
1, 26767, Note_on_c, 5, 64, 0
1, 26767, Note_on_c, 7, 78, 100
1, 26767, Note_on_c, 7, 63, 100
1, 26767, Note_on_c, 7, 64, 0
1, 26887, Note_on_c, 7, 78, 0
1, 26887, Note_on_c, 7, 83, 100
1, 26887, Note_on_c, 7, 66, 100
1, 26947, Note_on_c, 5, 62, 80
1, 26947, Note_on_c, 5, 63, 0
1, 26947, Note_on_c, 7, 83, 0
1, 26947, Note_on_c, 7, 83, 100
1, 26947, Note_on_c, 7, 66, 0
1, 26947, Note_on_c, 7, 71, 100
1, 26947, Note_on_c, 7, 63, 0
1, 26947, Note_on_c, 7, 62, 100
1, 27037, Note_on_c, 7, 83, 0
1, 27037, Note_on_c, 7, 79, 100
1, 27067, Note_on_c, 7, 79, 0
1, 27067, Note_on_c, 7, 81, 100
1, 27067, Note_on_c, 7, 71, 0
1, 27097, Note_on_c, 7, 81, 0
1, 27097, Note_on_c, 7, 78, 100
1, 27127, Note_on_c, 5, 61, 80
1, 27127, Note_on_c, 5, 62, 0
1, 27127, Note_on_c, 7, 78, 0
1, 27127, Note_on_c, 7, 76, 100
1, 27127, Note_on_c, 7, 61, 100
1, 27127, Note_on_c, 7, 62, 0
1, 27187, Note_on_c, 7, 76, 0
1, 27187, Note_on_c, 7, 76, 100
1, 27247, Note_on_c, 7, 64, 100
1, 27307, Note_on_c, 5, 60, 80
1, 27307, Note_on_c, 5, 61, 0
1, 27307, Note_on_c, 7, 76, 0
1, 27307, Note_on_c, 7, 78, 100
1, 27307, Note_on_c, 7, 64, 0
1, 27307, Note_on_c, 7, 70, 100
1, 27307, Note_on_c, 7, 61, 0
1, 27307, Note_on_c, 7, 60, 100
1, 27322, Note_on_c, 7, 78, 0
1, 27322, Note_on_c, 7, 76, 100
1, 27345, Note_on_c, 7, 76, 0
1, 27367, Note_on_c, 7, 75, 100
1, 27397, Note_on_c, 7, 75, 0
1, 27427, Note_on_c, 7, 76, 100
1, 27427, Note_on_c, 7, 70, 0
1, 27457, Note_on_c, 7, 76, 0
1, 27487, Note_on_c, 5, 59, 80
1, 27487, Note_on_c, 5, 60, 0
1, 27487, Note_on_c, 7, 75, 100
1, 27487, Note_on_c, 7, 59, 100
1, 27487, Note_on_c, 7, 60, 0
1, 27607, Note_on_c, 5, 59, 0
1, 27607, Note_on_c, 7, 75, 0
1, 27607, Note_on_c, 7, 78, 100
1, 27607, Note_on_c, 7, 59, 0
1, 27667, Note_on_c, 7, 78, 0
1, 27667, Note_on_c, 7, 71, 100
1, 27727, Note_on_c, 7, 71, 0
1, 27727, Note_on_c, 7, 70, 100
1, 27787, Note_on_c, 7, 70, 0
1, 27787, Note_on_c, 7, 69, 100
1, 27847, Note_on_c, 3, 52, 127
1, 27847, Note_on_c, 4, 79, 80
1, 27847, Note_on_c, 7, 69, 0
1, 27847, Note_on_c, 7, 67, 100
1, 27847, Note_on_c, 7, 52, 100
1, 27847, Note_on_c, 7, 40, 100
1, 27967, Note_on_c, 3, 52, 0
1, 27967, Note_on_c, 3, 55, 127
1, 27967, Note_on_c, 4, 79, 0
1, 27967, Note_on_c, 4, 79, 80
1, 27967, Note_on_c, 7, 67, 0
1, 27967, Note_on_c, 7, 67, 100
1, 28027, Note_on_c, 3, 55, 0
1, 28027, Note_on_c, 3, 60, 127
1, 28027, Note_on_c, 4, 79, 0
1, 28027, Note_on_c, 4, 81, 80
1, 28027, Note_on_c, 7, 67, 0
1, 28027, Note_on_c, 7, 69, 100
1, 28027, Note_on_c, 7, 60, 100
1, 28042, Note_on_c, 4, 81, 0
1, 28042, Note_on_c, 4, 79, 80
1, 28042, Note_on_c, 7, 69, 0
1, 28042, Note_on_c, 7, 67, 100
1, 28065, Note_on_c, 4, 79, 0
1, 28065, Note_on_c, 7, 67, 0
1, 28087, Note_on_c, 4, 78, 80
1, 28087, Note_on_c, 7, 66, 100
1, 28117, Note_on_c, 4, 78, 0
1, 28117, Note_on_c, 7, 66, 0
1, 28147, Note_on_c, 3, 60, 0
1, 28147, Note_on_c, 3, 52, 127
1, 28147, Note_on_c, 4, 79, 80
1, 28147, Note_on_c, 7, 67, 100
1, 28177, Note_on_c, 4, 79, 0
1, 28177, Note_on_c, 7, 67, 0
1, 28207, Note_on_c, 3, 52, 0
1, 28207, Note_on_c, 3, 51, 127
1, 28207, Note_on_c, 4, 78, 80
1, 28207, Note_on_c, 7, 66, 100
1, 28207, Note_on_c, 7, 52, 0
1, 28207, Note_on_c, 7, 51, 100
1, 28207, Note_on_c, 7, 40, 0
1, 28207, Note_on_c, 7, 39, 100
1, 28327, Note_on_c, 3, 51, 0
1, 28327, Note_on_c, 3, 54, 127
1, 28327, Note_on_c, 4, 78, 0
1, 28327, Note_on_c, 4, 83, 80
1, 28327, Note_on_c, 7, 66, 0
1, 28327, Note_on_c, 7, 71, 100
1, 28327, Note_on_c, 7, 60, 0
1, 28327, Note_on_c, 7, 59, 100
1, 28387, Note_on_c, 3, 54, 0
1, 28387, Note_on_c, 3, 59, 127
1, 28387, Note_on_c, 4, 83, 0
1, 28387, Note_on_c, 4, 83, 80
1, 28387, Note_on_c, 7, 71, 0
1, 28387, Note_on_c, 7, 71, 100
1, 28387, Note_on_c, 7, 59, 0
1, 28387, Note_on_c, 7, 59, 100
1, 28387, Note_on_c, 7, 51, 0
1, 28387, Note_on_c, 7, 50, 100
1, 28387, Note_on_c, 7, 39, 0
1, 28387, Note_on_c, 7, 38, 100
1, 28477, Note_on_c, 4, 83, 0
1, 28477, Note_on_c, 4, 79, 80
1, 28477, Note_on_c, 7, 71, 0
1, 28477, Note_on_c, 7, 67, 100
1, 28507, Note_on_c, 3, 59, 0
1, 28507, Note_on_c, 3, 50, 127
1, 28507, Note_on_c, 4, 79, 0
1, 28507, Note_on_c, 4, 81, 80
1, 28507, Note_on_c, 7, 67, 0
1, 28507, Note_on_c, 7, 69, 100
1, 28537, Note_on_c, 4, 81, 0
1, 28537, Note_on_c, 4, 78, 80
1, 28537, Note_on_c, 7, 69, 0
1, 28537, Note_on_c, 7, 66, 100
1, 28567, Note_on_c, 3, 50, 0
1, 28567, Note_on_c, 3, 49, 127
1, 28567, Note_on_c, 4, 78, 0
1, 28567, Note_on_c, 4, 76, 80
1, 28567, Note_on_c, 7, 66, 0
1, 28567, Note_on_c, 7, 64, 100
1, 28567, Note_on_c, 7, 50, 0
1, 28567, Note_on_c, 7, 49, 100
1, 28567, Note_on_c, 7, 38, 0
1, 28567, Note_on_c, 7, 37, 100
1, 28687, Note_on_c, 3, 49, 0
1, 28687, Note_on_c, 3, 52, 127
1, 28687, Note_on_c, 4, 76, 0
1, 28687, Note_on_c, 4, 76, 80
1, 28687, Note_on_c, 7, 64, 0
1, 28687, Note_on_c, 7, 64, 100
1, 28687, Note_on_c, 7, 59, 0
1, 28687, Note_on_c, 7, 57, 100
1, 28747, Note_on_c, 3, 52, 0
1, 28747, Note_on_c, 3, 57, 127
1, 28747, Note_on_c, 4, 76, 0
1, 28747, Note_on_c, 4, 78, 80
1, 28747, Note_on_c, 7, 64, 0
1, 28747, Note_on_c, 7, 66, 100
1, 28747, Note_on_c, 7, 57, 0
1, 28747, Note_on_c, 7, 57, 100
1, 28747, Note_on_c, 7, 49, 0
1, 28747, Note_on_c, 7, 48, 100
1, 28747, Note_on_c, 7, 37, 0
1, 28747, Note_on_c, 7, 36, 100
1, 28762, Note_on_c, 4, 78, 0
1, 28762, Note_on_c, 4, 76, 80
1, 28762, Note_on_c, 7, 66, 0
1, 28762, Note_on_c, 7, 64, 100
1, 28785, Note_on_c, 4, 76, 0
1, 28785, Note_on_c, 7, 64, 0
1, 28807, Note_on_c, 4, 74, 80
1, 28807, Note_on_c, 7, 62, 100
1, 28837, Note_on_c, 4, 74, 0
1, 28837, Note_on_c, 7, 62, 0
1, 28867, Note_on_c, 3, 57, 0
1, 28867, Note_on_c, 3, 48, 127
1, 28867, Note_on_c, 4, 76, 80
1, 28867, Note_on_c, 7, 64, 100
1, 28897, Note_on_c, 4, 76, 0
1, 28897, Note_on_c, 7, 64, 0
1, 28927, Note_on_c, 3, 48, 0
1, 28927, Note_on_c, 3, 47, 127
1, 28927, Note_on_c, 4, 74, 80
1, 28927, Note_on_c, 7, 62, 100
1, 28927, Note_on_c, 7, 48, 0
1, 28927, Note_on_c, 7, 47, 100
1, 28927, Note_on_c, 7, 36, 0
1, 28927, Note_on_c, 7, 35, 100
1, 29047, Note_on_c, 3, 47, 0
1, 29047, Note_on_c, 3, 50, 127
1, 29047, Note_on_c, 4, 74, 0
1, 29047, Note_on_c, 4, 79, 80
1, 29047, Note_on_c, 7, 62, 0
1, 29047, Note_on_c, 7, 67, 100
1, 29047, Note_on_c, 7, 57, 0
1, 29047, Note_on_c, 7, 55, 100
1, 29107, Note_on_c, 3, 50, 0
1, 29107, Note_on_c, 3, 55, 127
1, 29107, Note_on_c, 4, 79, 0
1, 29107, Note_on_c, 4, 79, 80
1, 29107, Note_on_c, 7, 67, 0
1, 29107, Note_on_c, 7, 67, 100
1, 29107, Note_on_c, 7, 55, 0
1, 29107, Note_on_c, 7, 55, 100
1, 29197, Note_on_c, 4, 79, 0
1, 29197, Note_on_c, 4, 76, 80
1, 29197, Note_on_c, 7, 67, 0
1, 29197, Note_on_c, 7, 64, 100
1, 29227, Note_on_c, 3, 55, 0
1, 29227, Note_on_c, 3, 47, 127
1, 29227, Note_on_c, 4, 76, 0
1, 29227, Note_on_c, 4, 77, 80
1, 29227, Note_on_c, 7, 64, 0
1, 29227, Note_on_c, 7, 65, 100
1, 29257, Note_on_c, 4, 77, 0
1, 29257, Note_on_c, 4, 74, 80
1, 29257, Note_on_c, 7, 65, 0
1, 29257, Note_on_c, 7, 62, 100
1, 29287, Note_on_c, 3, 47, 0
1, 29287, Note_on_c, 3, 45, 127
1, 29287, Note_on_c, 4, 74, 0
1, 29287, Note_on_c, 4, 72, 80
1, 29287, Note_on_c, 7, 62, 0
1, 29287, Note_on_c, 7, 60, 100
1, 29287, Note_on_c, 7, 47, 0
1, 29287, Note_on_c, 7, 45, 100
1, 29287, Note_on_c, 7, 35, 0
1, 29287, Note_on_c, 7, 33, 100
1, 29347, Note_on_c, 3, 45, 0
1, 29407, Note_on_c, 3, 72, 127
1, 29407, Note_on_c, 4, 72, 0
1, 29407, Note_on_c, 7, 60, 0
1, 29407, Note_on_c, 7, 67, 100
1, 29407, Note_on_c, 7, 55, 0
1, 29407, Note_on_c, 7, 60, 100
1, 29407, Note_on_c, 7, 59, 100
1, 29467, Note_on_c, 3, 72, 0
1, 29467, Note_on_c, 3, 74, 127
1, 29467, Note_on_c, 7, 67, 0
1, 29467, Note_on_c, 7, 65, 100
1, 29467, Note_on_c, 7, 60, 0
1, 29467, Note_on_c, 7, 60, 100
1, 29467, Note_on_c, 7, 59, 0
1, 29467, Note_on_c, 7, 57, 100
1, 29482, Note_on_c, 3, 74, 0
1, 29482, Note_on_c, 3, 72, 127
1, 29505, Note_on_c, 3, 72, 0
1, 29527, Note_on_c, 3, 71, 127
1, 29557, Note_on_c, 3, 71, 0
1, 29587, Note_on_c, 3, 72, 127
1, 29587, Note_on_c, 7, 65, 0
1, 29587, Note_on_c, 7, 64, 100
1, 29587, Note_on_c, 7, 57, 0
1, 29587, Note_on_c, 7, 55, 100
1, 29617, Note_on_c, 3, 72, 0
1, 29647, Note_on_c, 3, 71, 127
1, 29647, Note_on_c, 7, 64, 0
1, 29647, Note_on_c, 7, 63, 100
1, 29647, Note_on_c, 7, 60, 0
1, 29647, Note_on_c, 7, 59, 100
1, 29647, Note_on_c, 7, 55, 0
1, 29647, Note_on_c, 7, 54, 100
1, 29647, Note_on_c, 7, 45, 0
1, 29647, Note_on_c, 7, 45, 100
1, 29647, Note_on_c, 7, 33, 0
1, 29647, Note_on_c, 7, 33, 100
1, 29767, Note_on_c, 3, 71, 0
1, 29767, Note_on_c, 3, 73, 127
1, 29767, Note_on_c, 7, 63, 0
1, 29767, Note_on_c, 7, 64, 100
1, 29767, Note_on_c, 7, 59, 0
1, 29767, Note_on_c, 7, 61, 100
1, 29767, Note_on_c, 7, 54, 0
1, 29767, Note_on_c, 7, 59, 100
1, 29797, Note_on_c, 3, 73, 0
1, 29797, Note_on_c, 3, 75, 127
1, 29797, Note_on_c, 7, 64, 0
1, 29797, Note_on_c, 7, 66, 100
1, 29797, Note_on_c, 7, 61, 0
1, 29797, Note_on_c, 7, 63, 100
1, 29827, Note_on_c, 3, 75, 0
1, 29827, Note_on_c, 3, 76, 127
1, 29827, Note_on_c, 7, 66, 0
1, 29827, Note_on_c, 7, 68, 100
1, 29827, Note_on_c, 7, 63, 0
1, 29827, Note_on_c, 7, 64, 100
1, 29827, Note_on_c, 7, 59, 0
1, 29827, Note_on_c, 7, 59, 100
1, 29827, Note_on_c, 7, 45, 0
1, 29827, Note_on_c, 7, 44, 100
1, 29827, Note_on_c, 7, 33, 0
1, 29827, Note_on_c, 7, 32, 100
1, 29857, Note_on_c, 3, 76, 0
1, 29857, Note_on_c, 3, 75, 127
1, 29887, Note_on_c, 3, 75, 0
1, 29887, Note_on_c, 3, 73, 127
1, 29887, Note_on_c, 7, 68, 0
1, 29887, Note_on_c, 7, 64, 0
1, 29887, Note_on_c, 7, 59, 0
1, 29887, Note_on_c, 7, 44, 0
1, 29887, Note_on_c, 7, 32, 0
1, 29917, Note_on_c, 3, 73, 0
1, 29917, Note_on_c, 3, 71, 127
1, 29947, Note_on_c, 3, 71, 0
1, 29947, Note_on_c, 3, 69, 127
1, 29977, Note_on_c, 3, 69, 0
1, 29977, Note_on_c, 3, 68, 127
1, 30007, Note_on_c, 3, 68, 0
1, 30007, Note_on_c, 3, 66, 127
1, 30067, Note_on_c, 3, 66, 0
1, 30067, Note_on_c, 7, 66, 100
1, 30067, Note_on_c, 7, 64, 100
1, 30067, Note_on_c, 7, 61, 100
1, 30067, Note_on_c, 7, 45, 100
1, 30067, Note_on_c, 7, 33, 100
1, 30127, Note_on_c, 7, 66, 0
1, 30127, Note_on_c, 7, 66, 100
1, 30127, Note_on_c, 7, 64, 0
1, 30127, Note_on_c, 7, 64, 100
1, 30127, Note_on_c, 7, 61, 0
1, 30127, Note_on_c, 7, 61, 100
1, 30127, Note_on_c, 7, 45, 0
1, 30127, Note_on_c, 7, 45, 100
1, 30127, Note_on_c, 7, 33, 0
1, 30127, Note_on_c, 7, 33, 100
1, 30187, Note_on_c, 3, 71, 127
1, 30187, Note_on_c, 7, 66, 0
1, 30187, Note_on_c, 7, 64, 0
1, 30187, Note_on_c, 7, 61, 0
1, 30187, Note_on_c, 7, 45, 0
1, 30187, Note_on_c, 7, 33, 0
1, 30247, Note_on_c, 3, 71, 0
1, 30247, Note_on_c, 7, 66, 100
1, 30247, Note_on_c, 7, 63, 100
1, 30247, Note_on_c, 7, 57, 100
1, 30247, Note_on_c, 7, 47, 100
1, 30247, Note_on_c, 7, 35, 100
1, 30307, Note_on_c, 7, 66, 0
1, 30307, Note_on_c, 7, 66, 100
1, 30307, Note_on_c, 7, 63, 0
1, 30307, Note_on_c, 7, 63, 100
1, 30307, Note_on_c, 7, 57, 0
1, 30307, Note_on_c, 7, 57, 100
1, 30307, Note_on_c, 7, 47, 0
1, 30307, Note_on_c, 7, 47, 100
1, 30307, Note_on_c, 7, 35, 0
1, 30307, Note_on_c, 7, 35, 100
1, 30367, Note_on_c, 3, 52, 127
1, 30367, Note_on_c, 7, 66, 0
1, 30367, Note_on_c, 7, 63, 0
1, 30367, Note_on_c, 7, 57, 0
1, 30367, Note_on_c, 7, 47, 0
1, 30367, Note_on_c, 7, 52, 100
1, 30367, Note_on_c, 7, 35, 0
1, 30367, Note_on_c, 7, 40, 100
1, 30397, Note_on_c, 3, 52, 0
1, 30397, Note_on_c, 3, 56, 127
1, 30427, Note_on_c, 3, 56, 0
1, 30427, Note_on_c, 3, 59, 127
1, 30427, Note_on_c, 7, 64, 100
1, 30427, Note_on_c, 7, 59, 100
1, 30427, Note_on_c, 7, 56, 100
1, 30427, Note_on_c, 7, 52, 0
1, 30427, Note_on_c, 7, 40, 0
1, 30442, Note_on_c, 3, 59, 0
1, 30457, Note_on_c, 3, 64, 127
1, 30472, Note_on_c, 3, 64, 0
1, 30487, Note_on_c, 3, 68, 127
1, 30487, Note_on_c, 7, 64, 0
1, 30487, Note_on_c, 7, 64, 100
1, 30487, Note_on_c, 7, 59, 0
1, 30487, Note_on_c, 7, 59, 100
1, 30487, Note_on_c, 7, 56, 0
1, 30487, Note_on_c, 7, 56, 100
1, 30502, Note_on_c, 3, 68, 0
1, 30517, Note_on_c, 3, 71, 127
1, 30532, Note_on_c, 3, 71, 0
1, 30547, Note_on_c, 3, 64, 127
1, 30547, Note_on_c, 7, 64, 0
1, 30547, Note_on_c, 7, 59, 0
1, 30547, Note_on_c, 7, 56, 0
1, 30547, Note_on_c, 7, 55, 100
1, 30547, Note_on_c, 7, 43, 100
1, 30577, Note_on_c, 3, 64, 0
1, 30577, Note_on_c, 3, 68, 127
1, 30607, Note_on_c, 3, 68, 0
1, 30607, Note_on_c, 3, 71, 127
1, 30607, Note_on_c, 7, 71, 100
1, 30607, Note_on_c, 7, 64, 100
1, 30607, Note_on_c, 7, 59, 100
1, 30607, Note_on_c, 7, 55, 0
1, 30607, Note_on_c, 7, 43, 0
1, 30622, Note_on_c, 3, 71, 0
1, 30637, Note_on_c, 3, 76, 127
1, 30652, Note_on_c, 3, 76, 0
1, 30667, Note_on_c, 3, 80, 127
1, 30667, Note_on_c, 7, 71, 0
1, 30667, Note_on_c, 7, 71, 100
1, 30667, Note_on_c, 7, 64, 0
1, 30667, Note_on_c, 7, 64, 100
1, 30667, Note_on_c, 7, 59, 0
1, 30667, Note_on_c, 7, 59, 100
1, 30682, Note_on_c, 3, 80, 0
1, 30697, Note_on_c, 3, 83, 127
1, 30712, Note_on_c, 3, 83, 0
1, 30727, Note_on_c, 3, 82, 127
1, 30727, Note_on_c, 7, 71, 0
1, 30727, Note_on_c, 7, 64, 0
1, 30727, Note_on_c, 7, 59, 0
1, 30727, Note_on_c, 7, 54, 100
1, 30727, Note_on_c, 7, 42, 100
1, 30757, Note_on_c, 3, 82, 0
1, 30757, Note_on_c, 3, 81, 127
1, 30787, Note_on_c, 3, 81, 0
1, 30787, Note_on_c, 3, 80, 127
1, 30787, Note_on_c, 7, 69, 100
1, 30787, Note_on_c, 7, 63, 100
1, 30787, Note_on_c, 7, 59, 100
1, 30787, Note_on_c, 7, 54, 0
1, 30787, Note_on_c, 7, 42, 0
1, 30817, Note_on_c, 3, 80, 0
1, 30817, Note_on_c, 3, 78, 127
1, 30847, Note_on_c, 3, 78, 0
1, 30847, Note_on_c, 3, 76, 127
1, 30847, Note_on_c, 7, 69, 0
1, 30847, Note_on_c, 7, 69, 100
1, 30847, Note_on_c, 7, 63, 0
1, 30847, Note_on_c, 7, 63, 100
1, 30847, Note_on_c, 7, 59, 0
1, 30847, Note_on_c, 7, 59, 100
1, 30877, Note_on_c, 3, 76, 0
1, 30877, Note_on_c, 3, 75, 127
1, 30907, Note_on_c, 3, 75, 0
1, 30907, Note_on_c, 3, 73, 127
1, 30907, Note_on_c, 7, 69, 0
1, 30907, Note_on_c, 7, 63, 0
1, 30907, Note_on_c, 7, 59, 0
1, 30907, Note_on_c, 7, 47, 100
1, 30907, Note_on_c, 7, 35, 100
1, 30937, Note_on_c, 3, 73, 0
1, 30937, Note_on_c, 3, 71, 127
1, 30967, Note_on_c, 3, 71, 0
1, 30967, Note_on_c, 3, 69, 127
1, 30967, Note_on_c, 7, 66, 100
1, 30967, Note_on_c, 7, 63, 100
1, 30967, Note_on_c, 7, 59, 100
1, 30967, Note_on_c, 7, 47, 0
1, 30967, Note_on_c, 7, 35, 0
1, 30997, Note_on_c, 3, 69, 0
1, 30997, Note_on_c, 3, 68, 127
1, 31027, Note_on_c, 3, 68, 0
1, 31027, Note_on_c, 3, 69, 127
1, 31027, Note_on_c, 7, 66, 0
1, 31027, Note_on_c, 7, 66, 100
1, 31027, Note_on_c, 7, 63, 0
1, 31027, Note_on_c, 7, 63, 100
1, 31027, Note_on_c, 7, 59, 0
1, 31027, Note_on_c, 7, 59, 100
1, 31057, Note_on_c, 3, 69, 0
1, 31057, Note_on_c, 3, 66, 127
1, 31087, Note_on_c, 3, 66, 0
1, 31087, Note_on_c, 3, 52, 127
1, 31087, Note_on_c, 7, 66, 0
1, 31087, Note_on_c, 7, 63, 0
1, 31087, Note_on_c, 7, 59, 0
1, 31087, Note_on_c, 7, 52, 100
1, 31087, Note_on_c, 7, 40, 100
1, 31117, Note_on_c, 3, 52, 0
1, 31117, Note_on_c, 3, 56, 127
1, 31147, Note_on_c, 3, 56, 0
1, 31147, Note_on_c, 3, 59, 127
1, 31147, Note_on_c, 7, 64, 100
1, 31147, Note_on_c, 7, 59, 100
1, 31147, Note_on_c, 7, 56, 100
1, 31147, Note_on_c, 7, 52, 0
1, 31147, Note_on_c, 7, 40, 0
1, 31162, Note_on_c, 3, 59, 0
1, 31177, Note_on_c, 3, 64, 127
1, 31192, Note_on_c, 3, 64, 0
1, 31207, Note_on_c, 3, 68, 127
1, 31207, Note_on_c, 7, 64, 0
1, 31207, Note_on_c, 7, 64, 100
1, 31207, Note_on_c, 7, 59, 0
1, 31207, Note_on_c, 7, 59, 100
1, 31207, Note_on_c, 7, 56, 0
1, 31207, Note_on_c, 7, 56, 100
1, 31222, Note_on_c, 3, 68, 0
1, 31237, Note_on_c, 3, 71, 127
1, 31252, Note_on_c, 3, 71, 0
1, 31267, Note_on_c, 3, 64, 127
1, 31267, Note_on_c, 7, 64, 0
1, 31267, Note_on_c, 7, 59, 0
1, 31267, Note_on_c, 7, 56, 0
1, 31267, Note_on_c, 7, 56, 100
1, 31267, Note_on_c, 7, 44, 100
1, 31297, Note_on_c, 3, 64, 0
1, 31297, Note_on_c, 3, 68, 127
1, 31327, Note_on_c, 3, 68, 0
1, 31327, Note_on_c, 3, 71, 127
1, 31327, Note_on_c, 7, 71, 100
1, 31327, Note_on_c, 7, 64, 100
1, 31327, Note_on_c, 7, 59, 100
1, 31327, Note_on_c, 7, 56, 0
1, 31327, Note_on_c, 7, 44, 0
1, 31342, Note_on_c, 3, 71, 0
1, 31357, Note_on_c, 3, 76, 127
1, 31372, Note_on_c, 3, 76, 0
1, 31387, Note_on_c, 3, 80, 127
1, 31387, Note_on_c, 7, 71, 0
1, 31387, Note_on_c, 7, 71, 100
1, 31387, Note_on_c, 7, 64, 0
1, 31387, Note_on_c, 7, 64, 100
1, 31387, Note_on_c, 7, 59, 0
1, 31387, Note_on_c, 7, 59, 100
1, 31402, Note_on_c, 3, 80, 0
1, 31417, Note_on_c, 3, 83, 127
1, 31432, Note_on_c, 3, 83, 0
1, 31447, Note_on_c, 3, 82, 127
1, 31447, Note_on_c, 7, 71, 0
1, 31447, Note_on_c, 7, 64, 0
1, 31447, Note_on_c, 7, 59, 0
1, 31447, Note_on_c, 7, 54, 100
1, 31447, Note_on_c, 7, 42, 100
1, 31477, Note_on_c, 3, 82, 0
1, 31477, Note_on_c, 3, 81, 127
1, 31507, Note_on_c, 3, 81, 0
1, 31507, Note_on_c, 3, 80, 127
1, 31507, Note_on_c, 7, 69, 100
1, 31507, Note_on_c, 7, 63, 100
1, 31507, Note_on_c, 7, 59, 100
1, 31507, Note_on_c, 7, 54, 0
1, 31507, Note_on_c, 7, 42, 0
1, 31537, Note_on_c, 3, 80, 0
1, 31537, Note_on_c, 3, 78, 127
1, 31567, Note_on_c, 3, 78, 0
1, 31567, Note_on_c, 3, 76, 127
1, 31567, Note_on_c, 7, 69, 0
1, 31567, Note_on_c, 7, 69, 100
1, 31567, Note_on_c, 7, 63, 0
1, 31567, Note_on_c, 7, 63, 100
1, 31567, Note_on_c, 7, 59, 0
1, 31567, Note_on_c, 7, 59, 100
1, 31597, Note_on_c, 3, 76, 0
1, 31597, Note_on_c, 3, 75, 127
1, 31627, Note_on_c, 3, 75, 0
1, 31627, Note_on_c, 3, 73, 127
1, 31627, Note_on_c, 7, 69, 0
1, 31627, Note_on_c, 7, 63, 0
1, 31627, Note_on_c, 7, 59, 0
1, 31627, Note_on_c, 7, 47, 100
1, 31627, Note_on_c, 7, 35, 100
1, 31657, Note_on_c, 3, 73, 0
1, 31657, Note_on_c, 3, 71, 127
1, 31687, Note_on_c, 3, 71, 0
1, 31687, Note_on_c, 3, 69, 127
1, 31687, Note_on_c, 7, 66, 100
1, 31687, Note_on_c, 7, 63, 100
1, 31687, Note_on_c, 7, 59, 100
1, 31687, Note_on_c, 7, 47, 0
1, 31687, Note_on_c, 7, 35, 0
1, 31717, Note_on_c, 3, 69, 0
1, 31717, Note_on_c, 3, 68, 127
1, 31747, Note_on_c, 3, 68, 0
1, 31747, Note_on_c, 3, 69, 127
1, 31747, Note_on_c, 7, 66, 0
1, 31747, Note_on_c, 7, 66, 100
1, 31747, Note_on_c, 7, 63, 0
1, 31747, Note_on_c, 7, 63, 100
1, 31747, Note_on_c, 7, 59, 0
1, 31747, Note_on_c, 7, 59, 100
1, 31777, Note_on_c, 3, 69, 0
1, 31777, Note_on_c, 3, 66, 127
1, 31807, Note_on_c, 3, 66, 0
1, 31807, Note_on_c, 3, 64, 127
1, 31807, Note_on_c, 7, 66, 0
1, 31807, Note_on_c, 7, 68, 100
1, 31807, Note_on_c, 7, 63, 0
1, 31807, Note_on_c, 7, 64, 100
1, 31807, Note_on_c, 7, 59, 0
1, 31807, Note_on_c, 7, 59, 100
1, 31807, Note_on_c, 7, 52, 100
1, 31807, Note_on_c, 7, 40, 100
1, 31837, Note_on_c, 3, 64, 0
1, 31837, Note_on_c, 3, 68, 127
1, 31867, Note_on_c, 3, 68, 0
1, 31867, Note_on_c, 3, 71, 127
1, 31882, Note_on_c, 3, 71, 0
1, 31897, Note_on_c, 3, 75, 127
1, 31912, Note_on_c, 3, 75, 0
1, 31927, Note_on_c, 3, 76, 127
1, 31927, Note_on_c, 7, 68, 0
1, 31927, Note_on_c, 7, 64, 0
1, 31927, Note_on_c, 7, 59, 0
1, 31927, Note_on_c, 7, 52, 0
1, 31927, Note_on_c, 7, 40, 0
1, 31942, Note_on_c, 3, 76, 0
1, 31957, Note_on_c, 3, 80, 127
1, 31972, Note_on_c, 3, 80, 0
1, 31987, Note_on_c, 3, 83, 127
1, 32047, Note_on_c, 3, 83, 0
1, 32047, Note_on_c, 7, 71, 100
1, 32047, Note_on_c, 7, 64, 100
1, 32047, Note_on_c, 7, 59, 100
1, 32047, Note_on_c, 7, 56, 100
1, 32047, Note_on_c, 7, 44, 100
1, 32107, Note_on_c, 7, 71, 0
1, 32107, Note_on_c, 7, 71, 100
1, 32107, Note_on_c, 7, 64, 0
1, 32107, Note_on_c, 7, 64, 100
1, 32107, Note_on_c, 7, 59, 0
1, 32107, Note_on_c, 7, 59, 100
1, 32107, Note_on_c, 7, 56, 0
1, 32107, Note_on_c, 7, 56, 100
1, 32107, Note_on_c, 7, 44, 0
1, 32107, Note_on_c, 7, 44, 100
1, 32167, Note_on_c, 3, 66, 127
1, 32167, Note_on_c, 7, 71, 0
1, 32167, Note_on_c, 7, 66, 100
1, 32167, Note_on_c, 7, 64, 0
1, 32167, Note_on_c, 7, 61, 100
1, 32167, Note_on_c, 7, 59, 0
1, 32167, Note_on_c, 7, 57, 100
1, 32167, Note_on_c, 7, 56, 0
1, 32167, Note_on_c, 7, 44, 0
1, 32167, Note_on_c, 7, 45, 100
1, 32197, Note_on_c, 3, 66, 0
1, 32197, Note_on_c, 3, 69, 127
1, 32227, Note_on_c, 3, 69, 0
1, 32227, Note_on_c, 3, 73, 127
1, 32242, Note_on_c, 3, 73, 0
1, 32257, Note_on_c, 3, 77, 127
1, 32272, Note_on_c, 3, 77, 0
1, 32287, Note_on_c, 3, 78, 127
1, 32287, Note_on_c, 7, 66, 0
1, 32287, Note_on_c, 7, 61, 0
1, 32287, Note_on_c, 7, 57, 0
1, 32287, Note_on_c, 7, 45, 0
1, 32302, Note_on_c, 3, 78, 0
1, 32317, Note_on_c, 3, 81, 127
1, 32332, Note_on_c, 3, 81, 0
1, 32347, Note_on_c, 3, 85, 127
1, 32407, Note_on_c, 3, 85, 0
1, 32407, Note_on_c, 7, 73, 100
1, 32407, Note_on_c, 7, 64, 100
1, 32407, Note_on_c, 7, 66, 100
1, 32407, Note_on_c, 7, 57, 100
1, 32407, Note_on_c, 7, 45, 100
1, 32467, Note_on_c, 7, 73, 0
1, 32467, Note_on_c, 7, 73, 100
1, 32467, Note_on_c, 7, 64, 0
1, 32467, Note_on_c, 7, 64, 100
1, 32467, Note_on_c, 7, 66, 0
1, 32467, Note_on_c, 7, 66, 100
1, 32467, Note_on_c, 7, 57, 0
1, 32467, Note_on_c, 7, 57, 100
1, 32467, Note_on_c, 7, 45, 0
1, 32467, Note_on_c, 7, 45, 100
1, 32527, Note_on_c, 3, 71, 127
1, 32527, Note_on_c, 7, 73, 0
1, 32527, Note_on_c, 7, 68, 100
1, 32527, Note_on_c, 7, 64, 0
1, 32527, Note_on_c, 7, 64, 100
1, 32527, Note_on_c, 7, 66, 0
1, 32527, Note_on_c, 7, 59, 100
1, 32527, Note_on_c, 7, 57, 0
1, 32527, Note_on_c, 7, 45, 0
1, 32527, Note_on_c, 7, 47, 100
1, 32587, Note_on_c, 7, 68, 0
1, 32587, Note_on_c, 7, 68, 100
1, 32587, Note_on_c, 7, 64, 0
1, 32587, Note_on_c, 7, 64, 100
1, 32647, Note_on_c, 7, 68, 0
1, 32647, Note_on_c, 7, 68, 100
1, 32647, Note_on_c, 7, 64, 0
1, 32647, Note_on_c, 7, 64, 100
1, 32707, Note_on_c, 3, 71, 0
1, 32707, Note_on_c, 3, 78, 127
1, 32707, Note_on_c, 7, 68, 0
1, 32707, Note_on_c, 7, 66, 100
1, 32707, Note_on_c, 7, 64, 0
1, 32707, Note_on_c, 7, 63, 100
1, 32707, Note_on_c, 7, 57, 100
1, 32707, Note_on_c, 7, 47, 0
1, 32707, Note_on_c, 7, 45, 100
1, 32722, Note_on_c, 3, 78, 0
1, 32722, Note_on_c, 3, 80, 127
1, 32737, Note_on_c, 3, 80, 0
1, 32737, Note_on_c, 3, 78, 127
1, 32752, Note_on_c, 3, 78, 0
1, 32752, Note_on_c, 3, 80, 127
1, 32767, Note_on_c, 3, 80, 0
1, 32767, Note_on_c, 3, 78, 127
1, 32767, Note_on_c, 7, 66, 0
1, 32767, Note_on_c, 7, 66, 100
1, 32767, Note_on_c, 7, 63, 0
1, 32767, Note_on_c, 7, 63, 100
1, 32782, Note_on_c, 3, 78, 0
1, 32782, Note_on_c, 3, 80, 127
1, 32797, Note_on_c, 3, 80, 0
1, 32797, Note_on_c, 3, 78, 127
1, 32812, Note_on_c, 3, 78, 0
1, 32812, Note_on_c, 3, 80, 127
1, 32827, Note_on_c, 3, 80, 0
1, 32827, Note_on_c, 3, 78, 127
1, 32827, Note_on_c, 7, 66, 0
1, 32827, Note_on_c, 7, 66, 100
1, 32827, Note_on_c, 7, 63, 0
1, 32827, Note_on_c, 7, 63, 100
1, 32842, Note_on_c, 3, 78, 0
1, 32842, Note_on_c, 3, 80, 127
1, 32857, Note_on_c, 3, 80, 0
1, 32857, Note_on_c, 3, 76, 127
1, 32872, Note_on_c, 3, 76, 0
1, 32872, Note_on_c, 3, 78, 127
1, 32887, Note_on_c, 3, 78, 0
1, 32887, Note_on_c, 7, 66, 0
1, 32887, Note_on_c, 7, 71, 100
1, 32887, Note_on_c, 7, 63, 0
1, 32887, Note_on_c, 7, 64, 100
1, 32887, Note_on_c, 7, 57, 0
1, 32887, Note_on_c, 7, 56, 100
1, 32887, Note_on_c, 7, 45, 0
1, 32887, Note_on_c, 7, 44, 100
1, 32917, Note_on_c, 3, 59, 127
1, 32947, Note_on_c, 3, 59, 0
1, 32947, Note_on_c, 3, 64, 127
1, 32977, Note_on_c, 3, 64, 0
1, 32977, Note_on_c, 3, 68, 127
1, 33007, Note_on_c, 3, 68, 0
1, 33007, Note_on_c, 3, 71, 127
1, 33007, Note_on_c, 7, 71, 0
1, 33007, Note_on_c, 7, 64, 0
1, 33007, Note_on_c, 7, 59, 0
1, 33007, Note_on_c, 7, 56, 0
1, 33007, Note_on_c, 7, 44, 0
1, 33037, Note_on_c, 3, 71, 0
1, 33037, Note_on_c, 3, 76, 127
1, 33067, Note_on_c, 3, 76, 0
1, 33067, Note_on_c, 3, 80, 127
1, 33097, Note_on_c, 3, 80, 0
1, 33127, Note_on_c, 3, 83, 127
1, 33127, Note_on_c, 7, 68, 100
1, 33127, Note_on_c, 7, 64, 100
1, 33127, Note_on_c, 7, 59, 100
1, 33127, Note_on_c, 7, 52, 100
1, 33127, Note_on_c, 7, 40, 100
1, 33157, Note_on_c, 3, 83, 0
1, 33157, Note_on_c, 7, 68, 0
1, 33157, Note_on_c, 7, 64, 0
1, 33157, Note_on_c, 7, 59, 0
1, 33157, Note_on_c, 7, 52, 0
1, 33157, Note_on_c, 7, 40, 0
1, 33187, Note_on_c, 7, 71, 100
1, 33187, Note_on_c, 7, 64, 100
1, 33187, Note_on_c, 7, 59, 100
1, 33187, Note_on_c, 7, 56, 100
1, 33187, Note_on_c, 7, 44, 100
1, 33217, Note_on_c, 7, 71, 0
1, 33217, Note_on_c, 7, 64, 0
1, 33217, Note_on_c, 7, 59, 0
1, 33217, Note_on_c, 7, 56, 0
1, 33217, Note_on_c, 7, 44, 0
1, 33247, Note_on_c, 7, 66, 100
1, 33247, Note_on_c, 7, 64, 100
1, 33247, Note_on_c, 7, 61, 100
1, 33247, Note_on_c, 7, 57, 100
1, 33247, Note_on_c, 7, 45, 100
1, 33277, Note_on_c, 3, 66, 127
1, 33307, Note_on_c, 3, 66, 0
1, 33307, Note_on_c, 3, 69, 127
1, 33337, Note_on_c, 3, 69, 0
1, 33337, Note_on_c, 3, 73, 127
1, 33367, Note_on_c, 3, 73, 0
1, 33367, Note_on_c, 3, 78, 127
1, 33367, Note_on_c, 7, 66, 0
1, 33367, Note_on_c, 7, 64, 0
1, 33367, Note_on_c, 7, 61, 0
1, 33367, Note_on_c, 7, 57, 0
1, 33367, Note_on_c, 7, 45, 0
1, 33397, Note_on_c, 3, 78, 0
1, 33397, Note_on_c, 3, 81, 127
1, 33427, Note_on_c, 3, 81, 0
1, 33427, Note_on_c, 3, 85, 127
1, 33457, Note_on_c, 3, 85, 0
1, 33487, Note_on_c, 3, 88, 127
1, 33487, Note_on_c, 7, 73, 100
1, 33487, Note_on_c, 7, 64, 100
1, 33487, Note_on_c, 7, 66, 100
1, 33487, Note_on_c, 7, 45, 100
1, 33487, Note_on_c, 7, 33, 100
1, 33517, Note_on_c, 3, 88, 0
1, 33517, Note_on_c, 7, 73, 0
1, 33517, Note_on_c, 7, 64, 0
1, 33517, Note_on_c, 7, 66, 0
1, 33517, Note_on_c, 7, 45, 0
1, 33517, Note_on_c, 7, 33, 0
1, 33547, Note_on_c, 7, 76, 100
1, 33547, Note_on_c, 7, 61, 100
1, 33547, Note_on_c, 7, 66, 100
1, 33547, Note_on_c, 7, 49, 100
1, 33547, Note_on_c, 7, 37, 100
1, 33577, Note_on_c, 7, 76, 0
1, 33577, Note_on_c, 7, 61, 0
1, 33577, Note_on_c, 7, 66, 0
1, 33577, Note_on_c, 7, 49, 0
1, 33577, Note_on_c, 7, 37, 0
1, 33607, Note_on_c, 7, 67, 100
1, 33607, Note_on_c, 7, 61, 100
1, 33607, Note_on_c, 7, 64, 100
1, 33607, Note_on_c, 7, 46, 100
1, 33607, Note_on_c, 7, 34, 100
1, 33667, Note_on_c, 3, 75, 127
1, 33727, Note_on_c, 3, 75, 0
1, 33727, Note_on_c, 3, 76, 127
1, 33787, Note_on_c, 3, 76, 0
1, 33787, Note_on_c, 3, 79, 127
1, 33847, Note_on_c, 3, 79, 0
1, 33847, Note_on_c, 3, 75, 127
1, 33907, Note_on_c, 3, 75, 0
1, 33907, Note_on_c, 3, 76, 127
1, 33967, Note_on_c, 3, 76, 0
1, 33967, Note_on_c, 3, 79, 127
1, 34027, Note_on_c, 7, 67, 0
1, 34027, Note_on_c, 7, 75, 100
1, 34027, Note_on_c, 7, 61, 0
1, 34027, Note_on_c, 7, 63, 100
1, 34087, Note_on_c, 7, 75, 0
1, 34087, Note_on_c, 7, 76, 100
1, 34087, Note_on_c, 7, 63, 0
1, 34147, Note_on_c, 3, 79, 0
1, 34147, Note_on_c, 3, 70, 127
1, 34147, Note_on_c, 7, 76, 0
1, 34147, Note_on_c, 7, 79, 100
1, 34147, Note_on_c, 7, 64, 0
1, 34147, Note_on_c, 7, 67, 100
1, 34147, Note_on_c, 7, 46, 0
1, 34147, Note_on_c, 7, 48, 100
1, 34147, Note_on_c, 7, 34, 0
1, 34147, Note_on_c, 7, 36, 100
1, 34207, Note_on_c, 7, 79, 0
1, 34207, Note_on_c, 7, 75, 100
1, 34207, Note_on_c, 7, 67, 0
1, 34207, Note_on_c, 7, 63, 100
1, 34267, Note_on_c, 7, 75, 0
1, 34267, Note_on_c, 7, 76, 100
1, 34267, Note_on_c, 7, 63, 0
1, 34267, Note_on_c, 7, 64, 100
1, 34327, Note_on_c, 3, 70, 0
1, 34327, Note_on_c, 3, 71, 127
1, 34327, Note_on_c, 7, 76, 0
1, 34327, Note_on_c, 7, 80, 100
1, 34327, Note_on_c, 7, 64, 0
1, 34327, Note_on_c, 7, 68, 100
1, 34327, Note_on_c, 7, 59, 100
1, 34327, Note_on_c, 7, 48, 0
1, 34327, Note_on_c, 7, 47, 100
1, 34327, Note_on_c, 7, 36, 0
1, 34327, Note_on_c, 7, 35, 100
1, 34357, Note_on_c, 3, 71, 0
1, 34357, Note_on_c, 3, 73, 127
1, 34387, Note_on_c, 3, 73, 0
1, 34387, Note_on_c, 3, 75, 127
1, 34387, Note_on_c, 7, 80, 0
1, 34387, Note_on_c, 7, 64, 100
1, 34387, Note_on_c, 7, 59, 0
1, 34387, Note_on_c, 7, 59, 100
1, 34417, Note_on_c, 3, 75, 0
1, 34417, Note_on_c, 3, 76, 127
1, 34447, Note_on_c, 3, 76, 0
1, 34447, Note_on_c, 3, 78, 127
1, 34447, Note_on_c, 7, 68, 0
1, 34447, Note_on_c, 7, 68, 100
1, 34447, Note_on_c, 7, 64, 0
1, 34447, Note_on_c, 7, 64, 100
1, 34447, Note_on_c, 7, 59, 0
1, 34447, Note_on_c, 7, 59, 100
1, 34447, Note_on_c, 7, 47, 0
1, 34447, Note_on_c, 7, 35, 0
1, 34477, Note_on_c, 3, 78, 0
1, 34477, Note_on_c, 3, 79, 127
1, 34507, Note_on_c, 3, 79, 0
1, 34507, Note_on_c, 3, 80, 127
1, 34507, Note_on_c, 7, 68, 0
1, 34507, Note_on_c, 7, 68, 100
1, 34507, Note_on_c, 7, 64, 0
1, 34507, Note_on_c, 7, 64, 100
1, 34507, Note_on_c, 7, 59, 0
1, 34507, Note_on_c, 7, 59, 100
1, 34537, Note_on_c, 3, 80, 0
1, 34537, Note_on_c, 3, 81, 127
1, 34567, Note_on_c, 3, 81, 0
1, 34567, Note_on_c, 3, 82, 127
1, 34567, Note_on_c, 7, 68, 0
1, 34567, Note_on_c, 7, 68, 100
1, 34567, Note_on_c, 7, 64, 0
1, 34567, Note_on_c, 7, 64, 100
1, 34567, Note_on_c, 7, 59, 0
1, 34567, Note_on_c, 7, 59, 100
1, 34597, Note_on_c, 3, 82, 0
1, 34597, Note_on_c, 3, 83, 127
1, 34627, Note_on_c, 3, 83, 0
1, 34627, Note_on_c, 3, 82, 127
1, 34627, Note_on_c, 7, 68, 0
1, 34627, Note_on_c, 7, 68, 100
1, 34627, Note_on_c, 7, 64, 0
1, 34627, Note_on_c, 7, 64, 100
1, 34627, Note_on_c, 7, 59, 0
1, 34627, Note_on_c, 7, 59, 100
1, 34657, Note_on_c, 3, 82, 0
1, 34657, Note_on_c, 3, 83, 127
1, 34687, Note_on_c, 3, 83, 0
1, 34687, Note_on_c, 3, 78, 127
1, 34687, Note_on_c, 7, 68, 0
1, 34687, Note_on_c, 7, 66, 100
1, 34687, Note_on_c, 7, 64, 0
1, 34687, Note_on_c, 7, 64, 100
1, 34687, Note_on_c, 7, 59, 0
1, 34687, Note_on_c, 7, 59, 100
1, 34687, Note_on_c, 7, 47, 100
1, 34687, Note_on_c, 7, 35, 100
1, 34702, Note_on_c, 3, 78, 0
1, 34702, Note_on_c, 3, 80, 127
1, 34717, Note_on_c, 3, 80, 0
1, 34717, Note_on_c, 3, 78, 127
1, 34732, Note_on_c, 3, 78, 0
1, 34732, Note_on_c, 3, 80, 127
1, 34747, Note_on_c, 3, 80, 0
1, 34747, Note_on_c, 3, 78, 127
1, 34747, Note_on_c, 7, 66, 0
1, 34747, Note_on_c, 7, 66, 100
1, 34747, Note_on_c, 7, 64, 0
1, 34747, Note_on_c, 7, 64, 100
1, 34747, Note_on_c, 7, 59, 0
1, 34747, Note_on_c, 7, 59, 100
1, 34762, Note_on_c, 3, 78, 0
1, 34762, Note_on_c, 3, 80, 127
1, 34777, Note_on_c, 3, 80, 0
1, 34777, Note_on_c, 3, 78, 127
1, 34792, Note_on_c, 3, 78, 0
1, 34792, Note_on_c, 3, 80, 127
1, 34807, Note_on_c, 3, 80, 0
1, 34807, Note_on_c, 3, 78, 127
1, 34807, Note_on_c, 7, 66, 0
1, 34807, Note_on_c, 7, 66, 100
1, 34807, Note_on_c, 7, 64, 0
1, 34807, Note_on_c, 7, 64, 100
1, 34807, Note_on_c, 7, 59, 0
1, 34807, Note_on_c, 7, 59, 100
1, 34807, Note_on_c, 7, 47, 0
1, 34807, Note_on_c, 7, 35, 0
1, 34822, Note_on_c, 3, 78, 0
1, 34822, Note_on_c, 3, 80, 127
1, 34837, Note_on_c, 3, 80, 0
1, 34837, Note_on_c, 3, 78, 127
1, 34852, Note_on_c, 3, 78, 0
1, 34852, Note_on_c, 3, 80, 127
1, 34867, Note_on_c, 3, 80, 0
1, 34867, Note_on_c, 3, 78, 127
1, 34867, Note_on_c, 7, 66, 0
1, 34867, Note_on_c, 7, 66, 100
1, 34867, Note_on_c, 7, 64, 0
1, 34867, Note_on_c, 7, 63, 100
1, 34867, Note_on_c, 7, 59, 0
1, 34867, Note_on_c, 7, 57, 100
1, 34867, Note_on_c, 7, 47, 100
1, 34867, Note_on_c, 7, 35, 100
1, 34882, Note_on_c, 3, 78, 0
1, 34882, Note_on_c, 3, 80, 127
1, 34897, Note_on_c, 3, 80, 0
1, 34897, Note_on_c, 3, 78, 127
1, 34912, Note_on_c, 3, 78, 0
1, 34912, Note_on_c, 3, 80, 127
1, 34927, Note_on_c, 3, 80, 0
1, 34927, Note_on_c, 3, 78, 127
1, 34927, Note_on_c, 7, 66, 0
1, 34927, Note_on_c, 7, 66, 100
1, 34927, Note_on_c, 7, 63, 0
1, 34927, Note_on_c, 7, 63, 100
1, 34927, Note_on_c, 7, 57, 0
1, 34927, Note_on_c, 7, 57, 100
1, 34942, Note_on_c, 3, 78, 0
1, 34942, Note_on_c, 3, 80, 127
1, 34957, Note_on_c, 3, 80, 0
1, 34957, Note_on_c, 3, 78, 127
1, 34972, Note_on_c, 3, 78, 0
1, 34972, Note_on_c, 3, 80, 127
1, 34987, Note_on_c, 3, 80, 0
1, 34987, Note_on_c, 3, 78, 127
1, 34987, Note_on_c, 7, 66, 0
1, 34987, Note_on_c, 7, 66, 100
1, 34987, Note_on_c, 7, 63, 0
1, 34987, Note_on_c, 7, 63, 100
1, 34987, Note_on_c, 7, 57, 0
1, 34987, Note_on_c, 7, 57, 100
1, 34987, Note_on_c, 7, 47, 0
1, 34987, Note_on_c, 7, 35, 0
1, 35002, Note_on_c, 3, 78, 0
1, 35002, Note_on_c, 3, 80, 127
1, 35017, Note_on_c, 3, 80, 0
1, 35017, Note_on_c, 3, 76, 127
1, 35032, Note_on_c, 3, 76, 0
1, 35032, Note_on_c, 3, 78, 127
1, 35047, Note_on_c, 3, 78, 0
1, 35047, Note_on_c, 3, 76, 127
1, 35047, Note_on_c, 7, 66, 0
1, 35047, Note_on_c, 7, 64, 100
1, 35047, Note_on_c, 7, 63, 0
1, 35047, Note_on_c, 7, 57, 0
1, 35047, Note_on_c, 7, 56, 100
1, 35047, Note_on_c, 7, 52, 100
1, 35047, Note_on_c, 7, 40, 100
1, 35107, Note_on_c, 6, 52, 80
1, 35107, Note_on_c, 6, 40, 80
1, 35107, Note_on_c, 7, 56, 0
1, 35167, Note_on_c, 3, 76, 0
1, 35167, Note_on_c, 6, 52, 0
1, 35167, Note_on_c, 6, 52, 80
1, 35167, Note_on_c, 6, 40, 0
1, 35167, Note_on_c, 6, 40, 80
1, 35167, Note_on_c, 7, 64, 0
1, 35167, Note_on_c, 7, 64, 100
1, 35167, Note_on_c, 7, 40, 0
1, 35227, Note_on_c, 6, 52, 0
1, 35227, Note_on_c, 6, 52, 80
1, 35227, Note_on_c, 6, 40, 0
1, 35227, Note_on_c, 6, 40, 80
1, 35227, Note_on_c, 7, 64, 0
1, 35227, Note_on_c, 7, 64, 100
1, 35227, Note_on_c, 7, 52, 0
1, 35227, Note_on_c, 7, 52, 100
1, 35287, Note_on_c, 6, 52, 0
1, 35287, Note_on_c, 6, 52, 80
1, 35287, Note_on_c, 6, 40, 0
1, 35287, Note_on_c, 6, 40, 80
1, 35287, Note_on_c, 7, 64, 0
1, 35287, Note_on_c, 7, 64, 100
1, 35287, Note_on_c, 7, 52, 0
1, 35287, Note_on_c, 7, 52, 100
1, 35347, Note_on_c, 6, 52, 0
1, 35347, Note_on_c, 6, 52, 80
1, 35347, Note_on_c, 6, 40, 0
1, 35347, Note_on_c, 6, 40, 80
1, 35347, Note_on_c, 7, 64, 0
1, 35347, Note_on_c, 7, 64, 100
1, 35347, Note_on_c, 7, 52, 0
1, 35347, Note_on_c, 7, 52, 100
1, 35407, Note_on_c, 4, 80, 80
1, 35407, Note_on_c, 4, 77, 80
1, 35407, Note_on_c, 5, 65, 80
1, 35407, Note_on_c, 5, 62, 80
1, 35407, Note_on_c, 6, 52, 0
1, 35407, Note_on_c, 6, 52, 80
1, 35407, Note_on_c, 6, 40, 0
1, 35407, Note_on_c, 6, 40, 80
1, 35407, Note_on_c, 7, 77, 100
1, 35407, Note_on_c, 7, 64, 0
1, 35407, Note_on_c, 7, 68, 100
1, 35407, Note_on_c, 7, 71, 100
1, 35407, Note_on_c, 7, 52, 0
1, 35407, Note_on_c, 7, 62, 100
1, 35407, Note_on_c, 7, 52, 100
1, 35407, Note_on_c, 7, 40, 100
1, 35467, Note_on_c, 7, 52, 0
1, 35467, Note_on_c, 7, 52, 100
1, 35467, Note_on_c, 7, 40, 0
1, 35467, Note_on_c, 7, 40, 100
1, 35527, Note_on_c, 7, 52, 0
1, 35527, Note_on_c, 7, 52, 100
1, 35527, Note_on_c, 7, 40, 0
1, 35527, Note_on_c, 7, 40, 100
1, 35587, Note_on_c, 5, 62, 0
1, 35587, Note_on_c, 5, 59, 80
1, 35587, Note_on_c, 7, 62, 0
1, 35587, Note_on_c, 7, 59, 100
1, 35587, Note_on_c, 7, 52, 0
1, 35587, Note_on_c, 7, 52, 100
1, 35587, Note_on_c, 7, 40, 0
1, 35587, Note_on_c, 7, 40, 100
1, 35647, Note_on_c, 4, 77, 0
1, 35647, Note_on_c, 4, 76, 80
1, 35647, Note_on_c, 5, 65, 0
1, 35647, Note_on_c, 5, 64, 80
1, 35647, Note_on_c, 7, 77, 0
1, 35647, Note_on_c, 7, 76, 100
1, 35647, Note_on_c, 7, 52, 0
1, 35647, Note_on_c, 7, 52, 100
1, 35647, Note_on_c, 7, 40, 0
1, 35647, Note_on_c, 7, 40, 100
1, 35707, Note_on_c, 4, 76, 0
1, 35707, Note_on_c, 4, 74, 80
1, 35707, Note_on_c, 5, 64, 0
1, 35707, Note_on_c, 5, 62, 80
1, 35707, Note_on_c, 5, 59, 0
1, 35707, Note_on_c, 5, 56, 80
1, 35707, Note_on_c, 7, 76, 0
1, 35707, Note_on_c, 7, 74, 100
1, 35707, Note_on_c, 7, 59, 0
1, 35707, Note_on_c, 7, 64, 100
1, 35707, Note_on_c, 7, 52, 0
1, 35707, Note_on_c, 7, 52, 100
1, 35707, Note_on_c, 7, 40, 0
1, 35707, Note_on_c, 7, 40, 100
1, 35767, Note_on_c, 4, 80, 0
1, 35767, Note_on_c, 4, 81, 80
1, 35767, Note_on_c, 4, 74, 0
1, 35767, Note_on_c, 4, 72, 80
1, 35767, Note_on_c, 5, 62, 0
1, 35767, Note_on_c, 5, 60, 80
1, 35767, Note_on_c, 5, 56, 0
1, 35767, Note_on_c, 5, 57, 80
1, 35767, Note_on_c, 7, 74, 0
1, 35767, Note_on_c, 7, 72, 100
1, 35767, Note_on_c, 7, 68, 0
1, 35767, Note_on_c, 7, 71, 0
1, 35767, Note_on_c, 7, 69, 100
1, 35767, Note_on_c, 7, 64, 0
1, 35767, Note_on_c, 7, 64, 100
1, 35767, Note_on_c, 7, 52, 0
1, 35767, Note_on_c, 7, 52, 100
1, 35767, Note_on_c, 7, 40, 0
1, 35767, Note_on_c, 7, 40, 100
1, 35827, Note_on_c, 3, 76, 127
1, 35887, Note_on_c, 3, 76, 0
1, 35887, Note_on_c, 3, 74, 127
1, 35887, Note_on_c, 4, 81, 0
1, 35887, Note_on_c, 4, 72, 0
1, 35887, Note_on_c, 5, 60, 0
1, 35887, Note_on_c, 5, 57, 0
1, 35887, Note_on_c, 6, 52, 0
1, 35887, Note_on_c, 6, 40, 0
1, 35887, Note_on_c, 7, 72, 0
1, 35887, Note_on_c, 7, 69, 0
1, 35887, Note_on_c, 7, 64, 0
1, 35887, Note_on_c, 7, 52, 0
1, 35887, Note_on_c, 7, 40, 0
1, 35947, Note_on_c, 3, 74, 0
1, 35947, Note_on_c, 3, 72, 127
1, 36007, Note_on_c, 3, 72, 0
1, 36007, Note_on_c, 3, 71, 127
1, 36067, Note_on_c, 3, 71, 0
1, 36067, Note_on_c, 3, 69, 127
1, 36127, Note_on_c, 3, 69, 0
1, 36127, Note_on_c, 3, 68, 127
1, 36127, Note_on_c, 7, 59, 100
1, 36127, Note_on_c, 7, 52, 100
1, 36187, Note_on_c, 7, 59, 0
1, 36187, Note_on_c, 7, 62, 100
1, 36247, Note_on_c, 3, 68, 0
1, 36247, Note_on_c, 3, 68, 127
1, 36247, Note_on_c, 7, 62, 0
1, 36247, Note_on_c, 7, 64, 100
1, 36247, Note_on_c, 7, 52, 0
1, 36307, Note_on_c, 3, 68, 0
1, 36307, Note_on_c, 3, 71, 127
1, 36307, Note_on_c, 7, 64, 0
1, 36307, Note_on_c, 7, 57, 100
1, 36307, Note_on_c, 7, 52, 100
1, 36322, Note_on_c, 3, 71, 0
1, 36322, Note_on_c, 3, 69, 127
1, 36345, Note_on_c, 3, 69, 0
1, 36367, Note_on_c, 3, 68, 127
1, 36367, Note_on_c, 7, 57, 0
1, 36367, Note_on_c, 7, 60, 100
1, 36397, Note_on_c, 3, 68, 0
1, 36427, Note_on_c, 3, 69, 127
1, 36427, Note_on_c, 7, 60, 0
1, 36427, Note_on_c, 7, 64, 100
1, 36427, Note_on_c, 7, 52, 0
1, 36457, Note_on_c, 3, 69, 0
1, 36487, Note_on_c, 3, 71, 127
1, 36487, Note_on_c, 7, 64, 0
1, 36487, Note_on_c, 7, 56, 100
1, 36487, Note_on_c, 7, 52, 100
1, 36547, Note_on_c, 6, 52, 80
1, 36547, Note_on_c, 6, 40, 80
1, 36547, Note_on_c, 7, 64, 100
1, 36547, Note_on_c, 7, 52, 0
1, 36547, Note_on_c, 7, 52, 100
1, 36607, Note_on_c, 3, 71, 0
1, 36607, Note_on_c, 6, 52, 0
1, 36607, Note_on_c, 6, 52, 80
1, 36607, Note_on_c, 6, 40, 0
1, 36607, Note_on_c, 6, 40, 80
1, 36607, Note_on_c, 7, 56, 0
1, 36607, Note_on_c, 7, 64, 0
1, 36607, Note_on_c, 7, 64, 100
1, 36607, Note_on_c, 7, 52, 0
1, 36607, Note_on_c, 7, 52, 100
1, 36667, Note_on_c, 6, 52, 0
1, 36667, Note_on_c, 6, 52, 80
1, 36667, Note_on_c, 6, 40, 0
1, 36667, Note_on_c, 6, 40, 80
1, 36667, Note_on_c, 7, 64, 0
1, 36667, Note_on_c, 7, 64, 100
1, 36667, Note_on_c, 7, 52, 0
1, 36667, Note_on_c, 7, 52, 100
1, 36727, Note_on_c, 6, 52, 0
1, 36727, Note_on_c, 6, 52, 80
1, 36727, Note_on_c, 6, 40, 0
1, 36727, Note_on_c, 6, 40, 80
1, 36727, Note_on_c, 7, 64, 0
1, 36727, Note_on_c, 7, 64, 100
1, 36727, Note_on_c, 7, 52, 0
1, 36727, Note_on_c, 7, 52, 100
1, 36787, Note_on_c, 6, 52, 0
1, 36787, Note_on_c, 6, 52, 80
1, 36787, Note_on_c, 6, 40, 0
1, 36787, Note_on_c, 6, 40, 80
1, 36787, Note_on_c, 7, 64, 0
1, 36787, Note_on_c, 7, 64, 100
1, 36787, Note_on_c, 7, 52, 0
1, 36787, Note_on_c, 7, 52, 100
1, 36847, Note_on_c, 4, 89, 80
1, 36847, Note_on_c, 4, 86, 80
1, 36847, Note_on_c, 5, 65, 80
1, 36847, Note_on_c, 5, 56, 80
1, 36847, Note_on_c, 6, 52, 0
1, 36847, Note_on_c, 6, 52, 80
1, 36847, Note_on_c, 6, 40, 0
1, 36847, Note_on_c, 6, 40, 80
1, 36847, Note_on_c, 7, 71, 100
1, 36847, Note_on_c, 7, 80, 100
1, 36847, Note_on_c, 7, 64, 0
1, 36847, Note_on_c, 7, 77, 100
1, 36847, Note_on_c, 7, 52, 0
1, 36847, Note_on_c, 7, 62, 100
1, 36847, Note_on_c, 7, 52, 100
1, 36847, Note_on_c, 7, 40, 100
1, 36907, Note_on_c, 7, 52, 0
1, 36907, Note_on_c, 7, 52, 100
1, 36907, Note_on_c, 7, 40, 0
1, 36907, Note_on_c, 7, 40, 100
1, 36967, Note_on_c, 7, 52, 0
1, 36967, Note_on_c, 7, 52, 100
1, 36967, Note_on_c, 7, 40, 0
1, 36967, Note_on_c, 7, 40, 100
1, 37027, Note_on_c, 4, 86, 0
1, 37027, Note_on_c, 4, 83, 80
1, 37027, Note_on_c, 7, 62, 0
1, 37027, Note_on_c, 7, 59, 100
1, 37027, Note_on_c, 7, 52, 0
1, 37027, Note_on_c, 7, 52, 100
1, 37027, Note_on_c, 7, 40, 0
1, 37027, Note_on_c, 7, 40, 100
1, 37087, Note_on_c, 4, 89, 0
1, 37087, Note_on_c, 4, 88, 80
1, 37087, Note_on_c, 5, 65, 0
1, 37087, Note_on_c, 5, 64, 80
1, 37087, Note_on_c, 7, 77, 0
1, 37087, Note_on_c, 7, 76, 100
1, 37087, Note_on_c, 7, 52, 0
1, 37087, Note_on_c, 7, 52, 100
1, 37087, Note_on_c, 7, 40, 0
1, 37087, Note_on_c, 7, 40, 100
1, 37147, Note_on_c, 4, 88, 0
1, 37147, Note_on_c, 4, 86, 80
1, 37147, Note_on_c, 4, 83, 0
1, 37147, Note_on_c, 4, 80, 80
1, 37147, Note_on_c, 5, 64, 0
1, 37147, Note_on_c, 5, 62, 80
1, 37147, Note_on_c, 5, 56, 0
1, 37147, Note_on_c, 5, 59, 80
1, 37147, Note_on_c, 7, 76, 0
1, 37147, Note_on_c, 7, 74, 100
1, 37147, Note_on_c, 7, 59, 0
1, 37147, Note_on_c, 7, 64, 100
1, 37147, Note_on_c, 7, 52, 0
1, 37147, Note_on_c, 7, 52, 100
1, 37147, Note_on_c, 7, 40, 0
1, 37147, Note_on_c, 7, 40, 100
1, 37207, Note_on_c, 4, 86, 0
1, 37207, Note_on_c, 4, 84, 80
1, 37207, Note_on_c, 4, 80, 0
1, 37207, Note_on_c, 4, 81, 80
1, 37207, Note_on_c, 5, 62, 0
1, 37207, Note_on_c, 5, 60, 80
1, 37207, Note_on_c, 5, 59, 0
1, 37207, Note_on_c, 5, 57, 80
1, 37207, Note_on_c, 7, 71, 0
1, 37207, Note_on_c, 7, 80, 0
1, 37207, Note_on_c, 7, 69, 100
1, 37207, Note_on_c, 7, 81, 100
1, 37207, Note_on_c, 7, 74, 0
1, 37207, Note_on_c, 7, 72, 100
1, 37207, Note_on_c, 7, 64, 0
1, 37207, Note_on_c, 7, 64, 100
1, 37207, Note_on_c, 7, 52, 0
1, 37207, Note_on_c, 7, 52, 100
1, 37207, Note_on_c, 7, 40, 0
1, 37207, Note_on_c, 7, 40, 100
1, 37267, Note_on_c, 3, 52, 127
1, 37327, Note_on_c, 3, 52, 0
1, 37327, Note_on_c, 3, 50, 127
1, 37327, Note_on_c, 4, 84, 0
1, 37327, Note_on_c, 4, 81, 0
1, 37327, Note_on_c, 5, 60, 0
1, 37327, Note_on_c, 5, 57, 0
1, 37327, Note_on_c, 6, 52, 0
1, 37327, Note_on_c, 6, 40, 0
1, 37327, Note_on_c, 7, 69, 0
1, 37327, Note_on_c, 7, 81, 0
1, 37327, Note_on_c, 7, 72, 0
1, 37327, Note_on_c, 7, 64, 0
1, 37327, Note_on_c, 7, 52, 0
1, 37327, Note_on_c, 7, 40, 0
1, 37387, Note_on_c, 3, 50, 0
1, 37387, Note_on_c, 3, 48, 127
1, 37447, Note_on_c, 3, 48, 0
1, 37447, Note_on_c, 3, 47, 127
1, 37507, Note_on_c, 3, 47, 0
1, 37507, Note_on_c, 3, 45, 127
1, 37567, Note_on_c, 3, 45, 0
1, 37567, Note_on_c, 3, 57, 127
1, 37567, Note_on_c, 7, 53, 100
1, 37567, Note_on_c, 7, 41, 100
1, 37627, Note_on_c, 7, 68, 100
1, 37627, Note_on_c, 7, 56, 100
1, 37687, Note_on_c, 7, 68, 0
1, 37687, Note_on_c, 7, 69, 100
1, 37687, Note_on_c, 7, 56, 0
1, 37687, Note_on_c, 7, 57, 100
1, 37747, Note_on_c, 3, 57, 0
1, 37747, Note_on_c, 3, 51, 127
1, 37747, Note_on_c, 7, 69, 0
1, 37747, Note_on_c, 7, 72, 100
1, 37747, Note_on_c, 7, 57, 0
1, 37747, Note_on_c, 7, 60, 100
1, 37807, Note_on_c, 7, 72, 0
1, 37807, Note_on_c, 7, 71, 100
1, 37807, Note_on_c, 7, 60, 0
1, 37807, Note_on_c, 7, 59, 100
1, 37867, Note_on_c, 7, 71, 0
1, 37867, Note_on_c, 7, 69, 100
1, 37867, Note_on_c, 7, 59, 0
1, 37867, Note_on_c, 7, 57, 100
1, 37927, Note_on_c, 3, 51, 0
1, 37927, Note_on_c, 3, 52, 127
1, 37927, Note_on_c, 7, 69, 0
1, 37927, Note_on_c, 7, 68, 100
1, 37927, Note_on_c, 7, 57, 0
1, 37927, Note_on_c, 7, 56, 100
1, 37927, Note_on_c, 7, 52, 100
1, 37927, Note_on_c, 7, 53, 0
1, 37927, Note_on_c, 7, 41, 0
1, 37927, Note_on_c, 7, 40, 100
1, 37987, Note_on_c, 3, 52, 0
1, 38047, Note_on_c, 7, 68, 0
1, 38047, Note_on_c, 7, 56, 0
1, 38047, Note_on_c, 7, 52, 0
1, 38047, Note_on_c, 7, 40, 0
1, 38107, Note_on_c, 3, 75, 127
1, 38137, Note_on_c, 3, 75, 0
1, 38137, Note_on_c, 3, 76, 127
1, 38167, Note_on_c, 3, 76, 0
1, 38167, Note_on_c, 3, 77, 127
1, 38197, Note_on_c, 3, 77, 0
1, 38197, Note_on_c, 3, 78, 127
1, 38227, Note_on_c, 3, 78, 0
1, 38227, Note_on_c, 3, 79, 127
1, 38257, Note_on_c, 3, 79, 0
1, 38257, Note_on_c, 3, 80, 127
1, 38287, Note_on_c, 3, 80, 0
1, 38287, Note_on_c, 3, 81, 127
1, 38347, Note_on_c, 3, 81, 0
1, 38467, Note_on_c, 7, 75, 100
1, 38467, Note_on_c, 7, 72, 100
1, 38467, Note_on_c, 7, 65, 100
1, 38527, Note_on_c, 7, 72, 0
1, 38527, Note_on_c, 7, 71, 100
1, 38587, Note_on_c, 7, 71, 0
1, 38587, Note_on_c, 7, 69, 100
1, 38647, Note_on_c, 7, 75, 0
1, 38647, Note_on_c, 7, 76, 100
1, 38647, Note_on_c, 7, 69, 0
1, 38647, Note_on_c, 7, 68, 100
1, 38647, Note_on_c, 7, 65, 0
1, 38647, Note_on_c, 7, 64, 100
1, 38707, Note_on_c, 7, 76, 0
1, 38707, Note_on_c, 7, 68, 0
1, 38707, Note_on_c, 7, 64, 0
1, 38827, Note_on_c, 3, 63, 127
1, 38857, Note_on_c, 3, 63, 0
1, 38857, Note_on_c, 3, 64, 127
1, 38887, Note_on_c, 3, 64, 0
1, 38887, Note_on_c, 3, 65, 127
1, 38917, Note_on_c, 3, 65, 0
1, 38917, Note_on_c, 3, 66, 127
1, 38947, Note_on_c, 3, 66, 0
1, 38947, Note_on_c, 3, 67, 127
1, 38977, Note_on_c, 3, 67, 0
1, 38977, Note_on_c, 3, 68, 127
1, 39007, Note_on_c, 3, 68, 0
1, 39007, Note_on_c, 3, 69, 127
1, 39067, Note_on_c, 3, 69, 0
1, 39187, Note_on_c, 7, 63, 100
1, 39187, Note_on_c, 7, 60, 100
1, 39187, Note_on_c, 7, 53, 100
1, 39247, Note_on_c, 7, 60, 0
1, 39247, Note_on_c, 7, 59, 100
1, 39307, Note_on_c, 7, 59, 0
1, 39307, Note_on_c, 7, 57, 100
1, 39367, Note_on_c, 7, 63, 0
1, 39367, Note_on_c, 7, 64, 100
1, 39367, Note_on_c, 7, 57, 0
1, 39367, Note_on_c, 7, 56, 100
1, 39367, Note_on_c, 7, 53, 0
1, 39367, Note_on_c, 7, 52, 100
1, 39427, Note_on_c, 7, 64, 0
1, 39427, Note_on_c, 7, 56, 0
1, 39427, Note_on_c, 7, 52, 0
1, 39547, Note_on_c, 3, 51, 127
1, 39577, Note_on_c, 3, 51, 0
1, 39577, Note_on_c, 3, 52, 127
1, 39607, Note_on_c, 3, 52, 0
1, 39607, Note_on_c, 3, 53, 127
1, 39637, Note_on_c, 3, 53, 0
1, 39637, Note_on_c, 3, 54, 127
1, 39667, Note_on_c, 3, 54, 0
1, 39667, Note_on_c, 3, 55, 127
1, 39697, Note_on_c, 3, 55, 0
1, 39697, Note_on_c, 3, 56, 127
1, 39727, Note_on_c, 3, 56, 0
1, 39727, Note_on_c, 3, 57, 127
1, 39727, Note_on_c, 7, 53, 100
1, 39727, Note_on_c, 7, 41, 100
1, 39787, Note_on_c, 7, 69, 100
1, 39847, Note_on_c, 7, 69, 0
1, 39847, Note_on_c, 7, 67, 100
1, 39907, Note_on_c, 3, 57, 0
1, 39907, Note_on_c, 3, 69, 127
1, 39907, Note_on_c, 7, 67, 0
1, 39907, Note_on_c, 7, 65, 100
1, 39937, Note_on_c, 7, 65, 0
1, 39967, Note_on_c, 7, 65, 100
1, 40027, Note_on_c, 7, 65, 0
1, 40027, Note_on_c, 7, 64, 100
1, 40087, Note_on_c, 3, 69, 0
1, 40087, Note_on_c, 3, 84, 127
1, 40087, Note_on_c, 7, 64, 0
1, 40087, Note_on_c, 7, 63, 100
1, 40147, Note_on_c, 7, 68, 100
1, 40207, Note_on_c, 7, 68, 0
1, 40207, Note_on_c, 7, 69, 100
1, 40267, Note_on_c, 3, 84, 0
1, 40267, Note_on_c, 3, 75, 127
1, 40267, Note_on_c, 7, 69, 0
1, 40267, Note_on_c, 7, 72, 100
1, 40267, Note_on_c, 7, 57, 100
1, 40327, Note_on_c, 7, 72, 0
1, 40327, Note_on_c, 7, 71, 100
1, 40327, Note_on_c, 7, 57, 0
1, 40327, Note_on_c, 7, 56, 100
1, 40387, Note_on_c, 7, 71, 0
1, 40387, Note_on_c, 7, 69, 100
1, 40387, Note_on_c, 7, 56, 0
1, 40387, Note_on_c, 7, 57, 100
1, 40447, Note_on_c, 3, 75, 0
1, 40447, Note_on_c, 3, 76, 127
1, 40447, Note_on_c, 7, 69, 0
1, 40447, Note_on_c, 7, 68, 100
1, 40447, Note_on_c, 7, 63, 0
1, 40447, Note_on_c, 7, 64, 100
1, 40447, Note_on_c, 7, 57, 0
1, 40447, Note_on_c, 7, 59, 100
1, 40447, Note_on_c, 7, 53, 0
1, 40447, Note_on_c, 7, 52, 100
1, 40447, Note_on_c, 7, 41, 0
1, 40447, Note_on_c, 7, 40, 100
1, 40477, Note_on_c, 7, 68, 0
1, 40507, Note_on_c, 7, 68, 100
1, 40507, Note_on_c, 7, 64, 0
1, 40507, Note_on_c, 7, 64, 100
1, 40567, Note_on_c, 7, 68, 0
1, 40567, Note_on_c, 7, 69, 100
1, 40567, Note_on_c, 7, 64, 0
1, 40567, Note_on_c, 7, 66, 100
1, 40567, Note_on_c, 7, 59, 0
1, 40567, Note_on_c, 7, 52, 0
1, 40567, Note_on_c, 7, 40, 0
1, 40627, Note_on_c, 7, 69, 0
1, 40627, Note_on_c, 7, 71, 100
1, 40627, Note_on_c, 7, 66, 0
1, 40627, Note_on_c, 7, 68, 100
1, 40657, Note_on_c, 7, 71, 0
1, 40657, Note_on_c, 7, 68, 0
1, 40687, Note_on_c, 7, 71, 100
1, 40687, Note_on_c, 7, 68, 100
1, 40747, Note_on_c, 7, 71, 0
1, 40747, Note_on_c, 7, 61, 100
1, 40747, Note_on_c, 7, 68, 0
1, 40747, Note_on_c, 7, 69, 100
1, 40807, Note_on_c, 7, 61, 0
1, 40807, Note_on_c, 7, 62, 100
1, 40807, Note_on_c, 7, 69, 0
1, 40807, Note_on_c, 7, 71, 100
1, 40867, Note_on_c, 7, 63, 100
1, 40867, Note_on_c, 7, 51, 100
1, 40867, Note_on_c, 7, 39, 100
1, 40927, Note_on_c, 7, 63, 0
1, 40927, Note_on_c, 7, 64, 100
1, 40927, Note_on_c, 7, 51, 0
1, 40927, Note_on_c, 7, 52, 100
1, 40927, Note_on_c, 7, 39, 0
1, 40927, Note_on_c, 7, 40, 100
1, 40987, Note_on_c, 7, 64, 0
1, 40987, Note_on_c, 7, 65, 100
1, 40987, Note_on_c, 7, 52, 0
1, 40987, Note_on_c, 7, 53, 100
1, 40987, Note_on_c, 7, 40, 0
1, 40987, Note_on_c, 7, 41, 100
1, 41047, Note_on_c, 7, 65, 0
1, 41047, Note_on_c, 7, 66, 100
1, 41047, Note_on_c, 7, 53, 0
1, 41047, Note_on_c, 7, 54, 100
1, 41047, Note_on_c, 7, 41, 0
1, 41047, Note_on_c, 7, 42, 100
1, 41107, Note_on_c, 7, 66, 0
1, 41107, Note_on_c, 7, 68, 100
1, 41107, Note_on_c, 7, 54, 0
1, 41107, Note_on_c, 7, 56, 100
1, 41107, Note_on_c, 7, 42, 0
1, 41107, Note_on_c, 7, 44, 100
1, 41167, Note_on_c, 7, 62, 0
1, 41167, Note_on_c, 7, 61, 100
1, 41167, Note_on_c, 7, 71, 0
1, 41167, Note_on_c, 7, 69, 100
1, 41167, Note_on_c, 7, 68, 0
1, 41167, Note_on_c, 7, 56, 0
1, 41167, Note_on_c, 7, 57, 100
1, 41167, Note_on_c, 7, 44, 0
1, 41167, Note_on_c, 7, 45, 100
1, 41197, Note_on_c, 7, 61, 0
1, 41197, Note_on_c, 7, 69, 0
1, 41227, Note_on_c, 3, 76, 0
1, 41287, Note_on_c, 3, 76, 127
1, 41287, Note_on_c, 7, 61, 100
1, 41287, Note_on_c, 7, 69, 100
1, 41287, Note_on_c, 7, 57, 0
1, 41287, Note_on_c, 7, 45, 0
1, 41317, Note_on_c, 3, 76, 0
1, 41317, Note_on_c, 7, 61, 0
1, 41317, Note_on_c, 7, 69, 0
1, 41347, Note_on_c, 3, 76, 127
1, 41347, Note_on_c, 7, 61, 100
1, 41347, Note_on_c, 7, 69, 100
1, 41377, Note_on_c, 3, 76, 0
1, 41377, Note_on_c, 7, 61, 0
1, 41377, Note_on_c, 7, 69, 0
1, 41407, Note_on_c, 3, 75, 127
1, 41407, Note_on_c, 7, 61, 100
1, 41407, Note_on_c, 7, 69, 100
1, 41437, Note_on_c, 3, 75, 0
1, 41437, Note_on_c, 3, 76, 127
1, 41437, Note_on_c, 7, 61, 0
1, 41437, Note_on_c, 7, 69, 0
1, 41467, Note_on_c, 3, 76, 0
1, 41467, Note_on_c, 3, 78, 127
1, 41467, Note_on_c, 7, 61, 100
1, 41467, Note_on_c, 7, 69, 100
1, 41497, Note_on_c, 3, 78, 0
1, 41497, Note_on_c, 3, 76, 127
1, 41497, Note_on_c, 7, 61, 0
1, 41497, Note_on_c, 7, 69, 0
1, 41527, Note_on_c, 3, 76, 0
1, 41527, Note_on_c, 3, 74, 127
1, 41527, Note_on_c, 7, 71, 100
1, 41527, Note_on_c, 7, 68, 100
1, 41527, Note_on_c, 7, 62, 100
1, 41707, Note_on_c, 3, 74, 0
1, 41707, Note_on_c, 3, 73, 127
1, 41707, Note_on_c, 7, 71, 0
1, 41707, Note_on_c, 7, 73, 100
1, 41707, Note_on_c, 7, 68, 0
1, 41707, Note_on_c, 7, 69, 100
1, 41707, Note_on_c, 7, 62, 0
1, 41767, Note_on_c, 3, 73, 0
1, 41767, Note_on_c, 7, 73, 0
1, 41767, Note_on_c, 7, 69, 0
1, 41827, Note_on_c, 3, 81, 127
1, 41857, Note_on_c, 3, 81, 0
1, 41857, Note_on_c, 3, 80, 127
1, 41887, Note_on_c, 3, 80, 0
1, 41887, Note_on_c, 3, 78, 127
1, 41887, Note_on_c, 7, 69, 100
1, 41887, Note_on_c, 7, 62, 100
1, 41917, Note_on_c, 3, 78, 0
1, 41917, Note_on_c, 7, 69, 0
1, 41917, Note_on_c, 7, 62, 0
1, 41947, Note_on_c, 3, 78, 127
1, 41947, Note_on_c, 7, 69, 100
1, 41947, Note_on_c, 7, 62, 100
1, 41977, Note_on_c, 3, 78, 0
1, 41977, Note_on_c, 7, 69, 0
1, 41977, Note_on_c, 7, 62, 0
1, 42007, Note_on_c, 3, 78, 127
1, 42037, Note_on_c, 3, 78, 0
1, 42037, Note_on_c, 3, 76, 127
1, 42067, Note_on_c, 3, 76, 0
1, 42067, Note_on_c, 3, 74, 127
1, 42067, Note_on_c, 7, 69, 100
1, 42067, Note_on_c, 7, 66, 100
1, 42097, Note_on_c, 3, 74, 0
1, 42097, Note_on_c, 7, 69, 0
1, 42097, Note_on_c, 7, 66, 0
1, 42127, Note_on_c, 3, 74, 127
1, 42127, Note_on_c, 7, 69, 100
1, 42127, Note_on_c, 7, 66, 100
1, 42157, Note_on_c, 3, 74, 0
1, 42157, Note_on_c, 3, 73, 127
1, 42157, Note_on_c, 7, 69, 0
1, 42157, Note_on_c, 7, 66, 0
1, 42187, Note_on_c, 3, 73, 0
1, 42187, Note_on_c, 3, 71, 127
1, 42217, Note_on_c, 3, 71, 0
1, 42217, Note_on_c, 3, 69, 127
1, 42247, Note_on_c, 3, 69, 0
1, 42247, Note_on_c, 3, 68, 127
1, 42247, Note_on_c, 7, 64, 100
1, 42307, Note_on_c, 3, 68, 0
1, 42307, Note_on_c, 3, 69, 127
1, 42307, Note_on_c, 7, 64, 0
1, 42307, Note_on_c, 7, 66, 100
1, 42307, Note_on_c, 7, 64, 100
1, 42337, Note_on_c, 7, 64, 0
1, 42367, Note_on_c, 3, 69, 0
1, 42367, Note_on_c, 3, 70, 127
1, 42367, Note_on_c, 7, 66, 0
1, 42367, Note_on_c, 7, 67, 100
1, 42367, Note_on_c, 7, 64, 100
1, 42397, Note_on_c, 7, 64, 0
1, 42427, Note_on_c, 3, 70, 0
1, 42427, Note_on_c, 3, 71, 127
1, 42427, Note_on_c, 7, 67, 0
1, 42427, Note_on_c, 7, 68, 100
1, 42427, Note_on_c, 7, 64, 100
1, 42487, Note_on_c, 3, 71, 0
1, 42487, Note_on_c, 7, 68, 0
1, 42487, Note_on_c, 7, 64, 0
1, 42547, Note_on_c, 3, 73, 127
1, 42547, Note_on_c, 7, 69, 100
1, 42577, Note_on_c, 3, 73, 0
1, 42577, Note_on_c, 3, 74, 127
1, 42577, Note_on_c, 7, 69, 0
1, 42577, Note_on_c, 7, 71, 100
1, 42607, Note_on_c, 3, 74, 0
1, 42607, Note_on_c, 3, 76, 127
1, 42607, Note_on_c, 7, 71, 0
1, 42607, Note_on_c, 7, 73, 100
1, 42607, Note_on_c, 7, 69, 100
1, 42637, Note_on_c, 3, 76, 0
1, 42637, Note_on_c, 7, 73, 0
1, 42637, Note_on_c, 7, 69, 0
1, 42667, Note_on_c, 3, 76, 127
1, 42697, Note_on_c, 3, 76, 0
1, 42727, Note_on_c, 3, 76, 127
1, 42727, Note_on_c, 7, 73, 100
1, 42727, Note_on_c, 7, 69, 100
1, 42757, Note_on_c, 3, 76, 0
1, 42757, Note_on_c, 7, 73, 0
1, 42757, Note_on_c, 7, 69, 0
1, 42787, Note_on_c, 3, 78, 127
1, 42787, Note_on_c, 7, 73, 100
1, 42787, Note_on_c, 7, 69, 100
1, 42817, Note_on_c, 3, 78, 0
1, 42817, Note_on_c, 3, 76, 127
1, 42817, Note_on_c, 7, 73, 0
1, 42817, Note_on_c, 7, 69, 0
1, 42847, Note_on_c, 3, 76, 0
1, 42847, Note_on_c, 3, 75, 127
1, 42847, Note_on_c, 7, 73, 100
1, 42847, Note_on_c, 7, 69, 100
1, 42877, Note_on_c, 3, 75, 0
1, 42877, Note_on_c, 3, 76, 127
1, 42877, Note_on_c, 7, 73, 0
1, 42877, Note_on_c, 7, 69, 0
1, 42907, Note_on_c, 3, 76, 0
1, 42907, Note_on_c, 3, 78, 127
1, 42907, Note_on_c, 7, 73, 100
1, 42907, Note_on_c, 7, 69, 100
1, 42937, Note_on_c, 3, 78, 0
1, 42937, Note_on_c, 3, 76, 127
1, 42937, Note_on_c, 7, 73, 0
1, 42937, Note_on_c, 7, 69, 0
1, 42967, Note_on_c, 3, 76, 0
1, 42967, Note_on_c, 3, 80, 127
1, 42967, Note_on_c, 7, 74, 100
1, 42967, Note_on_c, 7, 71, 100
1, 42967, Note_on_c, 7, 64, 100
1, 43087, Note_on_c, 7, 64, 0
1, 43087, Note_on_c, 7, 65, 100
1, 43147, Note_on_c, 3, 80, 0
1, 43147, Note_on_c, 3, 81, 127
1, 43147, Note_on_c, 7, 74, 0
1, 43147, Note_on_c, 7, 73, 100
1, 43147, Note_on_c, 7, 71, 0
1, 43147, Note_on_c, 7, 69, 100
1, 43147, Note_on_c, 7, 65, 0
1, 43147, Note_on_c, 7, 66, 100
1, 43177, Note_on_c, 7, 66, 0
1, 43207, Note_on_c, 3, 81, 0
1, 43207, Note_on_c, 7, 73, 0
1, 43207, Note_on_c, 7, 69, 0
1, 43267, Note_on_c, 3, 81, 127
1, 43297, Note_on_c, 3, 81, 0
1, 43297, Note_on_c, 3, 80, 127
1, 43327, Note_on_c, 3, 80, 0
1, 43327, Note_on_c, 3, 78, 127
1, 43327, Note_on_c, 7, 71, 100
1, 43327, Note_on_c, 7, 66, 100
1, 43327, Note_on_c, 7, 62, 100
1, 43357, Note_on_c, 3, 78, 0
1, 43357, Note_on_c, 3, 76, 127
1, 43387, Note_on_c, 3, 76, 0
1, 43387, Note_on_c, 3, 74, 127
1, 43387, Note_on_c, 7, 71, 0
1, 43387, Note_on_c, 7, 66, 0
1, 43387, Note_on_c, 7, 62, 0
1, 43402, Note_on_c, 3, 74, 0
1, 43417, Note_on_c, 3, 73, 127
1, 43432, Note_on_c, 3, 73, 0
1, 43447, Note_on_c, 3, 71, 127
1, 43462, Note_on_c, 3, 71, 0
1, 43477, Note_on_c, 3, 69, 127
1, 43492, Note_on_c, 3, 69, 0
1, 43507, Note_on_c, 3, 68, 127
1, 43507, Note_on_c, 7, 62, 100
1, 43507, Note_on_c, 7, 59, 100
1, 43507, Note_on_c, 7, 52, 100
1, 43537, Note_on_c, 3, 68, 0
1, 43537, Note_on_c, 3, 69, 127
1, 43567, Note_on_c, 3, 69, 0
1, 43567, Note_on_c, 3, 71, 127
1, 43567, Note_on_c, 7, 62, 0
1, 43567, Note_on_c, 7, 59, 0
1, 43567, Note_on_c, 7, 52, 0
1, 43582, Note_on_c, 3, 71, 0
1, 43597, Note_on_c, 3, 73, 127
1, 43612, Note_on_c, 3, 73, 0
1, 43627, Note_on_c, 3, 74, 127
1, 43642, Note_on_c, 3, 74, 0
1, 43657, Note_on_c, 3, 68, 127
1, 43672, Note_on_c, 3, 68, 0
1, 43687, Note_on_c, 3, 69, 127
1, 43687, Note_on_c, 4, 88, 80
1, 43687, Note_on_c, 4, 85, 80
1, 43687, Note_on_c, 5, 64, 80
1, 43687, Note_on_c, 5, 61, 80
1, 43687, Note_on_c, 6, 57, 80
1, 43687, Note_on_c, 6, 45, 80
1, 43687, Note_on_c, 7, 73, 100
1, 43687, Note_on_c, 7, 81, 100
1, 43687, Note_on_c, 7, 57, 100
1, 43687, Note_on_c, 7, 45, 100
1, 43687, Note_on_c, 7, 33, 100
1, 43747, Note_on_c, 6, 57, 0
1, 43747, Note_on_c, 6, 57, 80
1, 43747, Note_on_c, 6, 45, 0
1, 43747, Note_on_c, 6, 45, 80
1, 43747, Note_on_c, 7, 57, 0
1, 43747, Note_on_c, 7, 69, 100
1, 43747, Note_on_c, 7, 45, 0
1, 43747, Note_on_c, 7, 57, 100
1, 43747, Note_on_c, 7, 33, 0
1, 43747, Note_on_c, 7, 45, 100
1, 43807, Note_on_c, 3, 69, 0
1, 43807, Note_on_c, 6, 57, 0
1, 43807, Note_on_c, 6, 57, 80
1, 43807, Note_on_c, 6, 45, 0
1, 43807, Note_on_c, 6, 45, 80
1, 43807, Note_on_c, 7, 69, 0
1, 43807, Note_on_c, 7, 69, 100
1, 43807, Note_on_c, 7, 57, 0
1, 43807, Note_on_c, 7, 57, 100
1, 43807, Note_on_c, 7, 45, 0
1, 43807, Note_on_c, 7, 45, 100
1, 43867, Note_on_c, 6, 57, 0
1, 43867, Note_on_c, 6, 61, 80
1, 43867, Note_on_c, 6, 45, 0
1, 43867, Note_on_c, 6, 49, 80
1, 43867, Note_on_c, 7, 69, 0
1, 43867, Note_on_c, 7, 57, 0
1, 43867, Note_on_c, 7, 61, 100
1, 43867, Note_on_c, 7, 45, 0
1, 43867, Note_on_c, 7, 49, 100
1, 43987, Note_on_c, 6, 61, 0
1, 43987, Note_on_c, 6, 57, 80
1, 43987, Note_on_c, 6, 49, 0
1, 43987, Note_on_c, 6, 45, 80
1, 43987, Note_on_c, 7, 69, 100
1, 43987, Note_on_c, 7, 61, 0
1, 43987, Note_on_c, 7, 57, 100
1, 43987, Note_on_c, 7, 49, 0
1, 43987, Note_on_c, 7, 45, 100
1, 44047, Note_on_c, 4, 88, 0
1, 44047, Note_on_c, 4, 88, 80
1, 44047, Note_on_c, 4, 85, 0
1, 44047, Note_on_c, 4, 85, 80
1, 44047, Note_on_c, 5, 64, 0
1, 44047, Note_on_c, 5, 64, 80
1, 44047, Note_on_c, 5, 61, 0
1, 44047, Note_on_c, 5, 61, 80
1, 44047, Note_on_c, 6, 57, 0
1, 44047, Note_on_c, 6, 52, 80
1, 44047, Note_on_c, 6, 45, 0
1, 44047, Note_on_c, 7, 69, 0
1, 44047, Note_on_c, 7, 64, 100
1, 44047, Note_on_c, 7, 57, 0
1, 44047, Note_on_c, 7, 52, 100
1, 44047, Note_on_c, 7, 45, 0
1, 44047, Note_on_c, 7, 40, 100
1, 44107, Note_on_c, 7, 76, 100
1, 44107, Note_on_c, 7, 73, 0
1, 44107, Note_on_c, 7, 81, 0
1, 44107, Note_on_c, 7, 73, 100
1, 44107, Note_on_c, 7, 64, 0
1, 44107, Note_on_c, 7, 64, 100
1, 44107, Note_on_c, 7, 52, 0
1, 44107, Note_on_c, 7, 52, 100
1, 44107, Note_on_c, 7, 40, 0
1, 44107, Note_on_c, 7, 40, 100
1, 44137, Note_on_c, 7, 76, 0
1, 44137, Note_on_c, 7, 76, 100
1, 44137, Note_on_c, 7, 73, 0
1, 44137, Note_on_c, 7, 73, 100
1, 44167, Note_on_c, 4, 88, 0
1, 44167, Note_on_c, 4, 81, 80
1, 44167, Note_on_c, 5, 64, 0
1, 44167, Note_on_c, 5, 57, 80
1, 44167, Note_on_c, 7, 76, 0
1, 44167, Note_on_c, 7, 85, 100
1, 44167, Note_on_c, 7, 73, 0
1, 44167, Note_on_c, 7, 69, 100
1, 44167, Note_on_c, 7, 64, 0
1, 44167, Note_on_c, 7, 64, 100
1, 44167, Note_on_c, 7, 52, 0
1, 44167, Note_on_c, 7, 52, 100
1, 44167, Note_on_c, 7, 40, 0
1, 44167, Note_on_c, 7, 40, 100
1, 44197, Note_on_c, 7, 85, 0
1, 44197, Note_on_c, 7, 85, 100
1, 44197, Note_on_c, 7, 69, 0
1, 44197, Note_on_c, 7, 69, 100
1, 44227, Note_on_c, 4, 85, 0
1, 44227, Note_on_c, 4, 86, 80
1, 44227, Note_on_c, 4, 81, 0
1, 44227, Note_on_c, 4, 83, 80
1, 44227, Note_on_c, 5, 61, 0
1, 44227, Note_on_c, 5, 62, 80
1, 44227, Note_on_c, 5, 57, 0
1, 44227, Note_on_c, 5, 59, 80
1, 44227, Note_on_c, 7, 85, 0
1, 44227, Note_on_c, 7, 86, 100
1, 44227, Note_on_c, 7, 69, 0
1, 44227, Note_on_c, 7, 68, 100
1, 44227, Note_on_c, 7, 64, 0
1, 44227, Note_on_c, 7, 64, 100
1, 44227, Note_on_c, 7, 52, 0
1, 44227, Note_on_c, 7, 52, 100
1, 44227, Note_on_c, 7, 40, 0
1, 44227, Note_on_c, 7, 40, 100
1, 44257, Note_on_c, 7, 86, 0
1, 44257, Note_on_c, 7, 86, 100
1, 44257, Note_on_c, 7, 68, 0
1, 44257, Note_on_c, 7, 68, 100
1, 44287, Note_on_c, 7, 86, 0
1, 44287, Note_on_c, 7, 83, 100
1, 44287, Note_on_c, 7, 68, 0
1, 44287, Note_on_c, 7, 71, 100
1, 44287, Note_on_c, 7, 64, 0
1, 44287, Note_on_c, 7, 64, 100
1, 44287, Note_on_c, 7, 52, 0
1, 44287, Note_on_c, 7, 52, 100
1, 44287, Note_on_c, 7, 40, 0
1, 44287, Note_on_c, 7, 40, 100
1, 44317, Note_on_c, 7, 83, 0
1, 44317, Note_on_c, 7, 83, 100
1, 44317, Note_on_c, 7, 71, 0
1, 44317, Note_on_c, 7, 71, 100
1, 44347, Note_on_c, 4, 86, 0
1, 44347, Note_on_c, 4, 80, 80
1, 44347, Note_on_c, 5, 62, 0
1, 44347, Note_on_c, 5, 56, 80
1, 44347, Note_on_c, 7, 83, 0
1, 44347, Note_on_c, 7, 80, 100
1, 44347, Note_on_c, 7, 71, 0
1, 44347, Note_on_c, 7, 74, 100
1, 44347, Note_on_c, 7, 64, 0
1, 44347, Note_on_c, 7, 64, 100
1, 44347, Note_on_c, 7, 52, 0
1, 44347, Note_on_c, 7, 52, 100
1, 44347, Note_on_c, 7, 40, 0
1, 44347, Note_on_c, 7, 40, 100
1, 44377, Note_on_c, 7, 80, 0
1, 44377, Note_on_c, 7, 80, 100
1, 44377, Note_on_c, 7, 74, 0
1, 44377, Note_on_c, 7, 74, 100
1, 44407, Note_on_c, 4, 83, 0
1, 44407, Note_on_c, 4, 88, 80
1, 44407, Note_on_c, 4, 80, 0
1, 44407, Note_on_c, 4, 85, 80
1, 44407, Note_on_c, 5, 59, 0
1, 44407, Note_on_c, 5, 64, 80
1, 44407, Note_on_c, 5, 56, 0
1, 44407, Note_on_c, 5, 61, 80
1, 44407, Note_on_c, 6, 57, 80
1, 44407, Note_on_c, 6, 52, 0
1, 44407, Note_on_c, 6, 45, 80
1, 44407, Note_on_c, 7, 80, 0
1, 44407, Note_on_c, 7, 73, 100
1, 44407, Note_on_c, 7, 81, 100
1, 44407, Note_on_c, 7, 74, 0
1, 44407, Note_on_c, 7, 64, 0
1, 44407, Note_on_c, 7, 57, 100
1, 44407, Note_on_c, 7, 52, 0
1, 44407, Note_on_c, 7, 45, 100
1, 44407, Note_on_c, 7, 40, 0
1, 44407, Note_on_c, 7, 33, 100
1, 44467, Note_on_c, 6, 57, 0
1, 44467, Note_on_c, 6, 57, 80
1, 44467, Note_on_c, 6, 45, 0
1, 44467, Note_on_c, 6, 45, 80
1, 44467, Note_on_c, 7, 57, 0
1, 44467, Note_on_c, 7, 69, 100
1, 44467, Note_on_c, 7, 45, 0
1, 44467, Note_on_c, 7, 57, 100
1, 44467, Note_on_c, 7, 33, 0
1, 44467, Note_on_c, 7, 45, 100
1, 44527, Note_on_c, 6, 57, 0
1, 44527, Note_on_c, 6, 57, 80
1, 44527, Note_on_c, 6, 45, 0
1, 44527, Note_on_c, 6, 45, 80
1, 44527, Note_on_c, 7, 69, 0
1, 44527, Note_on_c, 7, 69, 100
1, 44527, Note_on_c, 7, 57, 0
1, 44527, Note_on_c, 7, 57, 100
1, 44527, Note_on_c, 7, 45, 0
1, 44527, Note_on_c, 7, 45, 100
1, 44587, Note_on_c, 6, 57, 0
1, 44587, Note_on_c, 6, 61, 80
1, 44587, Note_on_c, 6, 45, 0
1, 44587, Note_on_c, 6, 49, 80
1, 44587, Note_on_c, 7, 69, 0
1, 44587, Note_on_c, 7, 57, 0
1, 44587, Note_on_c, 7, 61, 100
1, 44587, Note_on_c, 7, 45, 0
1, 44587, Note_on_c, 7, 49, 100
1, 44707, Note_on_c, 6, 61, 0
1, 44707, Note_on_c, 6, 57, 80
1, 44707, Note_on_c, 6, 49, 0
1, 44707, Note_on_c, 6, 45, 80
1, 44707, Note_on_c, 7, 69, 100
1, 44707, Note_on_c, 7, 61, 0
1, 44707, Note_on_c, 7, 57, 100
1, 44707, Note_on_c, 7, 49, 0
1, 44707, Note_on_c, 7, 45, 100
1, 44767, Note_on_c, 4, 88, 0
1, 44767, Note_on_c, 4, 88, 80
1, 44767, Note_on_c, 4, 85, 0
1, 44767, Note_on_c, 4, 85, 80
1, 44767, Note_on_c, 5, 64, 0
1, 44767, Note_on_c, 5, 64, 80
1, 44767, Note_on_c, 5, 61, 0
1, 44767, Note_on_c, 5, 61, 80
1, 44767, Note_on_c, 6, 57, 0
1, 44767, Note_on_c, 6, 52, 80
1, 44767, Note_on_c, 6, 45, 0
1, 44767, Note_on_c, 6, 40, 80
1, 44767, Note_on_c, 7, 69, 0
1, 44767, Note_on_c, 7, 64, 100
1, 44767, Note_on_c, 7, 57, 0
1, 44767, Note_on_c, 7, 52, 100
1, 44767, Note_on_c, 7, 45, 0
1, 44767, Note_on_c, 7, 40, 100
1, 44827, Note_on_c, 6, 52, 0
1, 44827, Note_on_c, 6, 52, 80
1, 44827, Note_on_c, 6, 40, 0
1, 44827, Note_on_c, 6, 40, 80
1, 44827, Note_on_c, 7, 76, 100
1, 44827, Note_on_c, 7, 73, 0
1, 44827, Note_on_c, 7, 81, 0
1, 44827, Note_on_c, 7, 73, 100
1, 44827, Note_on_c, 7, 64, 0
1, 44827, Note_on_c, 7, 64, 100
1, 44827, Note_on_c, 7, 52, 0
1, 44827, Note_on_c, 7, 52, 100
1, 44827, Note_on_c, 7, 40, 0
1, 44827, Note_on_c, 7, 40, 100
1, 44857, Note_on_c, 7, 76, 0
1, 44857, Note_on_c, 7, 76, 100
1, 44857, Note_on_c, 7, 73, 0
1, 44857, Note_on_c, 7, 73, 100
1, 44887, Note_on_c, 4, 88, 0
1, 44887, Note_on_c, 4, 81, 80
1, 44887, Note_on_c, 5, 64, 0
1, 44887, Note_on_c, 5, 57, 80
1, 44887, Note_on_c, 6, 52, 0
1, 44887, Note_on_c, 6, 52, 80
1, 44887, Note_on_c, 6, 40, 0
1, 44887, Note_on_c, 6, 40, 80
1, 44887, Note_on_c, 7, 76, 0
1, 44887, Note_on_c, 7, 85, 100
1, 44887, Note_on_c, 7, 73, 0
1, 44887, Note_on_c, 7, 69, 100
1, 44887, Note_on_c, 7, 64, 0
1, 44887, Note_on_c, 7, 64, 100
1, 44887, Note_on_c, 7, 52, 0
1, 44887, Note_on_c, 7, 52, 100
1, 44887, Note_on_c, 7, 40, 0
1, 44887, Note_on_c, 7, 40, 100
1, 44917, Note_on_c, 7, 85, 0
1, 44917, Note_on_c, 7, 85, 100
1, 44917, Note_on_c, 7, 69, 0
1, 44917, Note_on_c, 7, 69, 100
1, 44947, Note_on_c, 4, 85, 0
1, 44947, Note_on_c, 4, 86, 80
1, 44947, Note_on_c, 4, 81, 0
1, 44947, Note_on_c, 4, 83, 80
1, 44947, Note_on_c, 5, 61, 0
1, 44947, Note_on_c, 5, 62, 80
1, 44947, Note_on_c, 5, 57, 0
1, 44947, Note_on_c, 5, 59, 80
1, 44947, Note_on_c, 6, 52, 0
1, 44947, Note_on_c, 6, 52, 80
1, 44947, Note_on_c, 6, 40, 0
1, 44947, Note_on_c, 6, 40, 80
1, 44947, Note_on_c, 7, 85, 0
1, 44947, Note_on_c, 7, 86, 100
1, 44947, Note_on_c, 7, 69, 0
1, 44947, Note_on_c, 7, 68, 100
1, 44947, Note_on_c, 7, 64, 0
1, 44947, Note_on_c, 7, 64, 100
1, 44947, Note_on_c, 7, 52, 0
1, 44947, Note_on_c, 7, 52, 100
1, 44947, Note_on_c, 7, 40, 0
1, 44947, Note_on_c, 7, 40, 100
1, 44977, Note_on_c, 7, 86, 0
1, 44977, Note_on_c, 7, 86, 100
1, 44977, Note_on_c, 7, 68, 0
1, 44977, Note_on_c, 7, 68, 100
1, 45007, Note_on_c, 6, 52, 0
1, 45007, Note_on_c, 6, 52, 80
1, 45007, Note_on_c, 6, 40, 0
1, 45007, Note_on_c, 6, 40, 80
1, 45007, Note_on_c, 7, 86, 0
1, 45007, Note_on_c, 7, 83, 100
1, 45007, Note_on_c, 7, 68, 0
1, 45007, Note_on_c, 7, 71, 100
1, 45007, Note_on_c, 7, 64, 0
1, 45007, Note_on_c, 7, 64, 100
1, 45007, Note_on_c, 7, 52, 0
1, 45007, Note_on_c, 7, 52, 100
1, 45007, Note_on_c, 7, 40, 0
1, 45007, Note_on_c, 7, 40, 100
1, 45037, Note_on_c, 7, 83, 0
1, 45037, Note_on_c, 7, 83, 100
1, 45037, Note_on_c, 7, 71, 0
1, 45037, Note_on_c, 7, 71, 100
1, 45067, Note_on_c, 4, 86, 0
1, 45067, Note_on_c, 4, 80, 80
1, 45067, Note_on_c, 5, 62, 0
1, 45067, Note_on_c, 5, 56, 80
1, 45067, Note_on_c, 6, 52, 0
1, 45067, Note_on_c, 6, 52, 80
1, 45067, Note_on_c, 6, 40, 0
1, 45067, Note_on_c, 6, 40, 80
1, 45067, Note_on_c, 7, 83, 0
1, 45067, Note_on_c, 7, 80, 100
1, 45067, Note_on_c, 7, 71, 0
1, 45067, Note_on_c, 7, 74, 100
1, 45067, Note_on_c, 7, 64, 0
1, 45067, Note_on_c, 7, 64, 100
1, 45067, Note_on_c, 7, 52, 0
1, 45067, Note_on_c, 7, 52, 100
1, 45067, Note_on_c, 7, 40, 0
1, 45067, Note_on_c, 7, 40, 100
1, 45097, Note_on_c, 7, 80, 0
1, 45097, Note_on_c, 7, 80, 100
1, 45097, Note_on_c, 7, 74, 0
1, 45097, Note_on_c, 7, 74, 100
1, 45127, Note_on_c, 4, 83, 0
1, 45127, Note_on_c, 4, 81, 80
1, 45127, Note_on_c, 4, 80, 0
1, 45127, Note_on_c, 5, 59, 0
1, 45127, Note_on_c, 5, 61, 80
1, 45127, Note_on_c, 5, 56, 0
1, 45127, Note_on_c, 5, 57, 80
1, 45127, Note_on_c, 6, 52, 0
1, 45127, Note_on_c, 6, 52, 80
1, 45127, Note_on_c, 6, 40, 0
1, 45127, Note_on_c, 6, 45, 80
1, 45127, Note_on_c, 7, 80, 0
1, 45127, Note_on_c, 7, 81, 100
1, 45127, Note_on_c, 7, 74, 0
1, 45127, Note_on_c, 7, 73, 100
1, 45127, Note_on_c, 7, 64, 0
1, 45127, Note_on_c, 7, 57, 100
1, 45127, Note_on_c, 7, 52, 0
1, 45127, Note_on_c, 7, 45, 100
1, 45127, Note_on_c, 7, 40, 0
1, 45127, Note_on_c, 7, 33, 100
1, 45157, Note_on_c, 7, 81, 0
1, 45157, Note_on_c, 7, 81, 100
1, 45187, Note_on_c, 7, 81, 0
1, 45187, Note_on_c, 7, 76, 100
1, 45187, Note_on_c, 7, 73, 0
1, 45217, Note_on_c, 7, 76, 0
1, 45217, Note_on_c, 7, 76, 100
1, 45247, Note_on_c, 4, 81, 0
1, 45247, Note_on_c, 5, 61, 0
1, 45247, Note_on_c, 5, 57, 0
1, 45247, Note_on_c, 6, 52, 0
1, 45247, Note_on_c, 6, 45, 0
1, 45247, Note_on_c, 7, 76, 0
1, 45247, Note_on_c, 7, 85, 100
1, 45247, Note_on_c, 7, 57, 0
1, 45247, Note_on_c, 7, 45, 0
1, 45247, Note_on_c, 7, 33, 0
1, 45277, Note_on_c, 7, 85, 0
1, 45277, Note_on_c, 7, 85, 100
1, 45307, Note_on_c, 7, 85, 0
1, 45307, Note_on_c, 7, 86, 100
1, 45307, Note_on_c, 7, 71, 100
1, 45337, Note_on_c, 7, 86, 0
1, 45337, Note_on_c, 7, 86, 100
1, 45337, Note_on_c, 7, 71, 0
1, 45337, Note_on_c, 7, 71, 100
1, 45367, Note_on_c, 7, 86, 0
1, 45367, Note_on_c, 7, 83, 100
1, 45367, Note_on_c, 7, 71, 0
1, 45367, Note_on_c, 7, 64, 100
1, 45397, Note_on_c, 7, 83, 0
1, 45397, Note_on_c, 7, 83, 100
1, 45397, Note_on_c, 7, 64, 0
1, 45397, Note_on_c, 7, 64, 100
1, 45427, Note_on_c, 7, 83, 0
1, 45427, Note_on_c, 7, 80, 100
1, 45427, Note_on_c, 7, 64, 0
1, 45427, Note_on_c, 7, 74, 100
1, 45457, Note_on_c, 7, 80, 0
1, 45457, Note_on_c, 7, 80, 100
1, 45457, Note_on_c, 7, 74, 0
1, 45457, Note_on_c, 7, 74, 100
1, 45487, Note_on_c, 4, 88, 80
1, 45487, Note_on_c, 4, 76, 80
1, 45487, Note_on_c, 5, 64, 80
1, 45487, Note_on_c, 7, 80, 0
1, 45487, Note_on_c, 7, 81, 100
1, 45487, Note_on_c, 7, 74, 0
1, 45487, Note_on_c, 7, 73, 100
1, 45517, Note_on_c, 7, 81, 0
1, 45517, Note_on_c, 7, 81, 100
1, 45517, Note_on_c, 7, 73, 0
1, 45517, Note_on_c, 7, 73, 100
1, 45547, Note_on_c, 7, 81, 0
1, 45547, Note_on_c, 7, 76, 100
1, 45547, Note_on_c, 7, 73, 0
1, 45547, Note_on_c, 7, 69, 100
1, 45577, Note_on_c, 7, 76, 0
1, 45577, Note_on_c, 7, 76, 100
1, 45577, Note_on_c, 7, 69, 0
1, 45577, Note_on_c, 7, 69, 100
1, 45607, Note_on_c, 7, 76, 0
1, 45607, Note_on_c, 7, 85, 100
1, 45607, Note_on_c, 7, 69, 0
1, 45607, Note_on_c, 7, 64, 100
1, 45637, Note_on_c, 7, 85, 0
1, 45637, Note_on_c, 7, 85, 100
1, 45637, Note_on_c, 7, 64, 0
1, 45637, Note_on_c, 7, 64, 100
1, 45667, Note_on_c, 7, 85, 0
1, 45667, Note_on_c, 7, 86, 100
1, 45667, Note_on_c, 7, 64, 0
1, 45667, Note_on_c, 7, 71, 100
1, 45697, Note_on_c, 7, 86, 0
1, 45697, Note_on_c, 7, 86, 100
1, 45697, Note_on_c, 7, 71, 0
1, 45697, Note_on_c, 7, 71, 100
1, 45727, Note_on_c, 7, 86, 0
1, 45727, Note_on_c, 7, 83, 100
1, 45727, Note_on_c, 7, 71, 0
1, 45727, Note_on_c, 7, 64, 100
1, 45757, Note_on_c, 7, 83, 0
1, 45757, Note_on_c, 7, 83, 100
1, 45757, Note_on_c, 7, 64, 0
1, 45757, Note_on_c, 7, 64, 100
1, 45787, Note_on_c, 7, 83, 0
1, 45787, Note_on_c, 7, 80, 100
1, 45787, Note_on_c, 7, 64, 0
1, 45787, Note_on_c, 7, 74, 100
1, 45817, Note_on_c, 7, 80, 0
1, 45817, Note_on_c, 7, 80, 100
1, 45817, Note_on_c, 7, 74, 0
1, 45817, Note_on_c, 7, 74, 100
1, 45847, Note_on_c, 4, 88, 0
1, 45847, Note_on_c, 4, 85, 80
1, 45847, Note_on_c, 4, 76, 0
1, 45847, Note_on_c, 4, 73, 80
1, 45847, Note_on_c, 5, 61, 80
1, 45847, Note_on_c, 5, 64, 0
1, 45847, Note_on_c, 7, 80, 0
1, 45847, Note_on_c, 7, 81, 100
1, 45847, Note_on_c, 7, 74, 0
1, 45847, Note_on_c, 7, 73, 100
1, 45877, Note_on_c, 7, 81, 0
1, 45877, Note_on_c, 7, 81, 100
1, 45877, Note_on_c, 7, 73, 0
1, 45877, Note_on_c, 7, 73, 100
1, 45907, Note_on_c, 7, 81, 0
1, 45907, Note_on_c, 7, 76, 100
1, 45907, Note_on_c, 7, 73, 0
1, 45907, Note_on_c, 7, 69, 100
1, 45937, Note_on_c, 7, 76, 0
1, 45937, Note_on_c, 7, 76, 100
1, 45937, Note_on_c, 7, 69, 0
1, 45937, Note_on_c, 7, 69, 100
1, 45967, Note_on_c, 7, 76, 0
1, 45967, Note_on_c, 7, 85, 100
1, 45967, Note_on_c, 7, 69, 0
1, 45967, Note_on_c, 7, 64, 100
1, 45997, Note_on_c, 7, 85, 0
1, 45997, Note_on_c, 7, 85, 100
1, 45997, Note_on_c, 7, 64, 0
1, 45997, Note_on_c, 7, 64, 100
1, 46027, Note_on_c, 7, 85, 0
1, 46027, Note_on_c, 7, 83, 100
1, 46027, Note_on_c, 7, 64, 0
1, 46027, Note_on_c, 7, 68, 100
1, 46057, Note_on_c, 7, 83, 0
1, 46057, Note_on_c, 7, 83, 100
1, 46087, Note_on_c, 7, 83, 0
1, 46087, Note_on_c, 7, 80, 100
1, 46087, Note_on_c, 7, 61, 100
1, 46087, Note_on_c, 7, 68, 0
1, 46117, Note_on_c, 7, 80, 0
1, 46117, Note_on_c, 7, 80, 100
1, 46147, Note_on_c, 7, 80, 0
1, 46147, Note_on_c, 7, 77, 100
1, 46147, Note_on_c, 7, 71, 100
1, 46147, Note_on_c, 7, 61, 0
1, 46177, Note_on_c, 7, 77, 0
1, 46177, Note_on_c, 7, 77, 100
1, 46207, Note_on_c, 4, 73, 0
1, 46207, Note_on_c, 4, 73, 80
1, 46207, Note_on_c, 5, 45, 80
1, 46207, Note_on_c, 6, 61, 80
1, 46207, Note_on_c, 6, 49, 80
1, 46207, Note_on_c, 7, 77, 0
1, 46207, Note_on_c, 7, 78, 100
1, 46207, Note_on_c, 7, 69, 100
1, 46207, Note_on_c, 7, 71, 0
1, 46237, Note_on_c, 7, 78, 0
1, 46237, Note_on_c, 7, 78, 100
1, 46267, Note_on_c, 7, 78, 0
1, 46267, Note_on_c, 7, 73, 100
1, 46267, Note_on_c, 7, 66, 100
1, 46267, Note_on_c, 7, 69, 0
1, 46297, Note_on_c, 7, 73, 0
1, 46297, Note_on_c, 7, 73, 100
1, 46327, Note_on_c, 7, 73, 0
1, 46327, Note_on_c, 7, 81, 100
1, 46327, Note_on_c, 7, 61, 100
1, 46327, Note_on_c, 7, 66, 0
1, 46357, Note_on_c, 7, 81, 0
1, 46357, Note_on_c, 7, 81, 100
1, 46387, Note_on_c, 7, 81, 0
1, 46387, Note_on_c, 7, 83, 100
1, 46387, Note_on_c, 7, 68, 100
1, 46387, Note_on_c, 7, 61, 0
1, 46417, Note_on_c, 7, 83, 0
1, 46417, Note_on_c, 7, 83, 100
1, 46447, Note_on_c, 7, 83, 0
1, 46447, Note_on_c, 7, 80, 100
1, 46447, Note_on_c, 7, 61, 100
1, 46447, Note_on_c, 7, 68, 0
1, 46477, Note_on_c, 7, 80, 0
1, 46477, Note_on_c, 7, 80, 100
1, 46507, Note_on_c, 7, 80, 0
1, 46507, Note_on_c, 7, 77, 100
1, 46507, Note_on_c, 7, 71, 100
1, 46507, Note_on_c, 7, 61, 0
1, 46537, Note_on_c, 7, 77, 0
1, 46537, Note_on_c, 7, 77, 100
1, 46567, Note_on_c, 4, 85, 0
1, 46567, Note_on_c, 4, 81, 80
1, 46567, Note_on_c, 4, 73, 0
1, 46567, Note_on_c, 5, 61, 0
1, 46567, Note_on_c, 5, 57, 80
1, 46567, Note_on_c, 5, 45, 0
1, 46567, Note_on_c, 5, 45, 80
1, 46567, Note_on_c, 6, 61, 0
1, 46567, Note_on_c, 6, 57, 80
1, 46567, Note_on_c, 6, 49, 0
1, 46567, Note_on_c, 6, 45, 80
1, 46567, Note_on_c, 7, 77, 0
1, 46567, Note_on_c, 7, 78, 100
1, 46567, Note_on_c, 7, 69, 100
1, 46567, Note_on_c, 7, 71, 0
1, 46567, Note_on_c, 7, 50, 100
1, 46567, Note_on_c, 7, 38, 100
1, 46597, Note_on_c, 7, 78, 0
1, 46597, Note_on_c, 7, 78, 100
1, 46627, Note_on_c, 5, 57, 0
1, 46627, Note_on_c, 5, 57, 80
1, 46627, Note_on_c, 5, 45, 0
1, 46627, Note_on_c, 5, 45, 80
1, 46627, Note_on_c, 6, 57, 0
1, 46627, Note_on_c, 6, 57, 80
1, 46627, Note_on_c, 6, 45, 0
1, 46627, Note_on_c, 6, 45, 80
1, 46627, Note_on_c, 7, 78, 0
1, 46627, Note_on_c, 7, 81, 100
1, 46627, Note_on_c, 7, 66, 100
1, 46627, Note_on_c, 7, 69, 0
1, 46627, Note_on_c, 7, 69, 100
1, 46627, Note_on_c, 7, 50, 0
1, 46627, Note_on_c, 7, 45, 100
1, 46627, Note_on_c, 7, 38, 0
1, 46627, Note_on_c, 7, 33, 100
1, 46657, Note_on_c, 7, 81, 0
1, 46657, Note_on_c, 7, 81, 100
1, 46657, Note_on_c, 7, 66, 0
1, 46657, Note_on_c, 7, 66, 100
1, 46657, Note_on_c, 7, 69, 0
1, 46657, Note_on_c, 7, 69, 100
1, 46687, Note_on_c, 5, 57, 0
1, 46687, Note_on_c, 5, 57, 80
1, 46687, Note_on_c, 5, 45, 0
1, 46687, Note_on_c, 5, 45, 80
1, 46687, Note_on_c, 6, 57, 0
1, 46687, Note_on_c, 6, 57, 80
1, 46687, Note_on_c, 6, 45, 0
1, 46687, Note_on_c, 6, 45, 80
1, 46687, Note_on_c, 7, 81, 0
1, 46687, Note_on_c, 7, 66, 0
1, 46687, Note_on_c, 7, 62, 100
1, 46687, Note_on_c, 7, 45, 0
1, 46687, Note_on_c, 7, 54, 100
1, 46687, Note_on_c, 7, 33, 0
1, 46687, Note_on_c, 7, 42, 100
1, 46717, Note_on_c, 7, 62, 0
1, 46717, Note_on_c, 7, 62, 100
1, 46747, Note_on_c, 5, 57, 0
1, 46747, Note_on_c, 5, 57, 80
1, 46747, Note_on_c, 5, 45, 0
1, 46747, Note_on_c, 5, 45, 80
1, 46747, Note_on_c, 6, 57, 0
1, 46747, Note_on_c, 6, 57, 80
1, 46747, Note_on_c, 6, 45, 0
1, 46747, Note_on_c, 6, 45, 80
1, 46747, Note_on_c, 7, 61, 100
1, 46747, Note_on_c, 7, 62, 0
1, 46747, Note_on_c, 7, 64, 100
1, 46747, Note_on_c, 7, 69, 0
1, 46747, Note_on_c, 7, 69, 100
1, 46747, Note_on_c, 7, 54, 0
1, 46747, Note_on_c, 7, 55, 100
1, 46747, Note_on_c, 7, 42, 0
1, 46747, Note_on_c, 7, 43, 100
1, 46777, Note_on_c, 7, 61, 0
1, 46777, Note_on_c, 7, 61, 100
1, 46777, Note_on_c, 7, 64, 0
1, 46777, Note_on_c, 7, 64, 100
1, 46777, Note_on_c, 7, 69, 0
1, 46777, Note_on_c, 7, 69, 100
1, 46807, Note_on_c, 5, 57, 0
1, 46807, Note_on_c, 5, 57, 80
1, 46807, Note_on_c, 5, 45, 0
1, 46807, Note_on_c, 5, 45, 80
1, 46807, Note_on_c, 6, 57, 0
1, 46807, Note_on_c, 6, 57, 80
1, 46807, Note_on_c, 6, 45, 0
1, 46807, Note_on_c, 6, 45, 80
1, 46807, Note_on_c, 7, 61, 0
1, 46807, Note_on_c, 7, 64, 0
1, 46807, Note_on_c, 7, 73, 100
1, 46807, Note_on_c, 7, 55, 0
1, 46807, Note_on_c, 7, 52, 100
1, 46807, Note_on_c, 7, 43, 0
1, 46807, Note_on_c, 7, 40, 100
1, 46837, Note_on_c, 7, 73, 0
1, 46837, Note_on_c, 7, 73, 100
1, 46867, Note_on_c, 5, 57, 0
1, 46867, Note_on_c, 5, 57, 80
1, 46867, Note_on_c, 5, 45, 0
1, 46867, Note_on_c, 5, 45, 80
1, 46867, Note_on_c, 6, 57, 0
1, 46867, Note_on_c, 6, 57, 80
1, 46867, Note_on_c, 6, 45, 0
1, 46867, Note_on_c, 6, 45, 80
1, 46867, Note_on_c, 7, 79, 100
1, 46867, Note_on_c, 7, 73, 0
1, 46867, Note_on_c, 7, 76, 100
1, 46867, Note_on_c, 7, 69, 0
1, 46867, Note_on_c, 7, 69, 100
1, 46867, Note_on_c, 7, 52, 0
1, 46867, Note_on_c, 7, 49, 100
1, 46867, Note_on_c, 7, 40, 0
1, 46867, Note_on_c, 7, 37, 100
1, 46897, Note_on_c, 7, 79, 0
1, 46897, Note_on_c, 7, 79, 100
1, 46897, Note_on_c, 7, 76, 0
1, 46897, Note_on_c, 7, 76, 100
1, 46897, Note_on_c, 7, 69, 0
1, 46897, Note_on_c, 7, 69, 100
1, 46927, Note_on_c, 5, 57, 0
1, 46927, Note_on_c, 5, 57, 80
1, 46927, Note_on_c, 5, 45, 0
1, 46927, Note_on_c, 5, 45, 80
1, 46927, Note_on_c, 6, 57, 0
1, 46927, Note_on_c, 6, 57, 80
1, 46927, Note_on_c, 6, 45, 0
1, 46927, Note_on_c, 6, 45, 80
1, 46927, Note_on_c, 7, 79, 0
1, 46927, Note_on_c, 7, 78, 100
1, 46927, Note_on_c, 7, 76, 0
1, 46927, Note_on_c, 7, 49, 0
1, 46927, Note_on_c, 7, 50, 100
1, 46927, Note_on_c, 7, 37, 0
1, 46927, Note_on_c, 7, 38, 100
1, 46957, Note_on_c, 7, 78, 0
1, 46957, Note_on_c, 7, 78, 100
1, 46987, Note_on_c, 5, 57, 0
1, 46987, Note_on_c, 5, 57, 80
1, 46987, Note_on_c, 5, 45, 0
1, 46987, Note_on_c, 5, 45, 80
1, 46987, Note_on_c, 6, 57, 0
1, 46987, Note_on_c, 6, 57, 80
1, 46987, Note_on_c, 6, 45, 0
1, 46987, Note_on_c, 6, 45, 80
1, 46987, Note_on_c, 7, 78, 0
1, 46987, Note_on_c, 7, 81, 100
1, 46987, Note_on_c, 7, 66, 100
1, 46987, Note_on_c, 7, 69, 0
1, 46987, Note_on_c, 7, 69, 100
1, 46987, Note_on_c, 7, 50, 0
1, 46987, Note_on_c, 7, 45, 100
1, 46987, Note_on_c, 7, 38, 0
1, 46987, Note_on_c, 7, 33, 100
1, 47017, Note_on_c, 7, 81, 0
1, 47017, Note_on_c, 7, 81, 100
1, 47017, Note_on_c, 7, 66, 0
1, 47017, Note_on_c, 7, 66, 100
1, 47017, Note_on_c, 7, 69, 0
1, 47017, Note_on_c, 7, 69, 100
1, 47047, Note_on_c, 5, 57, 0
1, 47047, Note_on_c, 5, 57, 80
1, 47047, Note_on_c, 5, 45, 0
1, 47047, Note_on_c, 5, 45, 80
1, 47047, Note_on_c, 6, 57, 0
1, 47047, Note_on_c, 6, 57, 80
1, 47047, Note_on_c, 6, 45, 0
1, 47047, Note_on_c, 6, 45, 80
1, 47047, Note_on_c, 7, 81, 0
1, 47047, Note_on_c, 7, 66, 0
1, 47047, Note_on_c, 7, 62, 100
1, 47047, Note_on_c, 7, 45, 0
1, 47047, Note_on_c, 7, 54, 100
1, 47047, Note_on_c, 7, 33, 0
1, 47047, Note_on_c, 7, 42, 100
1, 47077, Note_on_c, 7, 62, 0
1, 47077, Note_on_c, 7, 62, 100
1, 47107, Note_on_c, 5, 57, 0
1, 47107, Note_on_c, 5, 57, 80
1, 47107, Note_on_c, 5, 45, 0
1, 47107, Note_on_c, 5, 45, 80
1, 47107, Note_on_c, 6, 57, 0
1, 47107, Note_on_c, 6, 57, 80
1, 47107, Note_on_c, 6, 45, 0
1, 47107, Note_on_c, 6, 45, 80
1, 47107, Note_on_c, 7, 61, 100
1, 47107, Note_on_c, 7, 62, 0
1, 47107, Note_on_c, 7, 64, 100
1, 47107, Note_on_c, 7, 69, 0
1, 47107, Note_on_c, 7, 69, 100
1, 47107, Note_on_c, 7, 54, 0
1, 47107, Note_on_c, 7, 55, 100
1, 47107, Note_on_c, 7, 42, 0
1, 47107, Note_on_c, 7, 43, 100
1, 47137, Note_on_c, 7, 61, 0
1, 47137, Note_on_c, 7, 61, 100
1, 47137, Note_on_c, 7, 64, 0
1, 47137, Note_on_c, 7, 64, 100
1, 47137, Note_on_c, 7, 69, 0
1, 47137, Note_on_c, 7, 69, 100
1, 47167, Note_on_c, 5, 57, 0
1, 47167, Note_on_c, 5, 57, 80
1, 47167, Note_on_c, 5, 45, 0
1, 47167, Note_on_c, 5, 45, 80
1, 47167, Note_on_c, 6, 57, 0
1, 47167, Note_on_c, 6, 57, 80
1, 47167, Note_on_c, 6, 45, 0
1, 47167, Note_on_c, 6, 45, 80
1, 47167, Note_on_c, 7, 61, 0
1, 47167, Note_on_c, 7, 64, 0
1, 47167, Note_on_c, 7, 73, 100
1, 47167, Note_on_c, 7, 55, 0
1, 47167, Note_on_c, 7, 52, 100
1, 47167, Note_on_c, 7, 43, 0
1, 47167, Note_on_c, 7, 40, 100
1, 47197, Note_on_c, 7, 73, 0
1, 47197, Note_on_c, 7, 73, 100
1, 47227, Note_on_c, 5, 57, 0
1, 47227, Note_on_c, 5, 57, 80
1, 47227, Note_on_c, 5, 45, 0
1, 47227, Note_on_c, 5, 45, 80
1, 47227, Note_on_c, 6, 57, 0
1, 47227, Note_on_c, 6, 57, 80
1, 47227, Note_on_c, 6, 45, 0
1, 47227, Note_on_c, 6, 45, 80
1, 47227, Note_on_c, 7, 79, 100
1, 47227, Note_on_c, 7, 73, 0
1, 47227, Note_on_c, 7, 76, 100
1, 47227, Note_on_c, 7, 69, 0
1, 47227, Note_on_c, 7, 69, 100
1, 47227, Note_on_c, 7, 52, 0
1, 47227, Note_on_c, 7, 49, 100
1, 47227, Note_on_c, 7, 40, 0
1, 47227, Note_on_c, 7, 37, 100
1, 47257, Note_on_c, 7, 79, 0
1, 47257, Note_on_c, 7, 79, 100
1, 47257, Note_on_c, 7, 76, 0
1, 47257, Note_on_c, 7, 76, 100
1, 47257, Note_on_c, 7, 69, 0
1, 47257, Note_on_c, 7, 69, 100
1, 47287, Note_on_c, 4, 90, 80
1, 47287, Note_on_c, 4, 81, 0
1, 47287, Note_on_c, 4, 86, 80
1, 47287, Note_on_c, 5, 57, 0
1, 47287, Note_on_c, 5, 62, 80
1, 47287, Note_on_c, 5, 45, 0
1, 47287, Note_on_c, 5, 50, 80
1, 47287, Note_on_c, 6, 57, 0
1, 47287, Note_on_c, 6, 45, 0
1, 47287, Note_on_c, 7, 79, 0
1, 47287, Note_on_c, 7, 78, 100
1, 47287, Note_on_c, 7, 76, 0
1, 47287, Note_on_c, 7, 74, 100
1, 47287, Note_on_c, 7, 69, 0
1, 47287, Note_on_c, 7, 69, 100
1, 47287, Note_on_c, 7, 49, 0
1, 47287, Note_on_c, 7, 50, 100
1, 47287, Note_on_c, 7, 37, 0
1, 47287, Note_on_c, 7, 38, 100
1, 47317, Note_on_c, 7, 78, 0
1, 47317, Note_on_c, 7, 78, 100
1, 47317, Note_on_c, 7, 74, 0
1, 47317, Note_on_c, 7, 74, 100
1, 47317, Note_on_c, 7, 69, 0
1, 47317, Note_on_c, 7, 69, 100
1, 47347, Note_on_c, 4, 90, 0
1, 47347, Note_on_c, 4, 90, 80
1, 47347, Note_on_c, 4, 86, 0
1, 47347, Note_on_c, 4, 86, 80
1, 47347, Note_on_c, 5, 62, 0
1, 47347, Note_on_c, 5, 68, 80
1, 47347, Note_on_c, 5, 50, 0
1, 47347, Note_on_c, 5, 59, 80
1, 47347, Note_on_c, 7, 78, 0
1, 47347, Note_on_c, 7, 86, 100
1, 47347, Note_on_c, 7, 74, 0
1, 47347, Note_on_c, 7, 78, 100
1, 47347, Note_on_c, 7, 69, 0
1, 47347, Note_on_c, 7, 68, 100
1, 47347, Note_on_c, 7, 50, 0
1, 47347, Note_on_c, 7, 59, 100
1, 47347, Note_on_c, 7, 38, 0
1, 47347, Note_on_c, 7, 47, 100
1, 47377, Note_on_c, 7, 86, 0
1, 47377, Note_on_c, 7, 86, 100
1, 47377, Note_on_c, 7, 78, 0
1, 47377, Note_on_c, 7, 78, 100
1, 47377, Note_on_c, 7, 68, 0
1, 47377, Note_on_c, 7, 68, 100
1, 47407, Note_on_c, 4, 90, 0
1, 47407, Note_on_c, 4, 88, 80
1, 47407, Note_on_c, 4, 86, 0
1, 47407, Note_on_c, 4, 85, 80
1, 47407, Note_on_c, 5, 68, 0
1, 47407, Note_on_c, 5, 68, 80
1, 47407, Note_on_c, 5, 59, 0
1, 47407, Note_on_c, 5, 61, 80
1, 47407, Note_on_c, 7, 86, 0
1, 47407, Note_on_c, 7, 76, 100
1, 47407, Note_on_c, 7, 78, 0
1, 47407, Note_on_c, 7, 73, 100
1, 47407, Note_on_c, 7, 68, 0
1, 47407, Note_on_c, 7, 68, 100
1, 47407, Note_on_c, 7, 59, 0
1, 47407, Note_on_c, 7, 61, 100
1, 47407, Note_on_c, 7, 47, 0
1, 47407, Note_on_c, 7, 49, 100
1, 47437, Note_on_c, 7, 76, 0
1, 47437, Note_on_c, 7, 76, 100
1, 47437, Note_on_c, 7, 73, 0
1, 47437, Note_on_c, 7, 73, 100
1, 47437, Note_on_c, 7, 68, 0
1, 47437, Note_on_c, 7, 68, 100
1, 47467, Note_on_c, 4, 88, 0
1, 47467, Note_on_c, 4, 88, 80
1, 47467, Note_on_c, 4, 85, 0
1, 47467, Note_on_c, 4, 85, 80
1, 47467, Note_on_c, 5, 68, 0
1, 47467, Note_on_c, 5, 66, 80
1, 47467, Note_on_c, 5, 61, 0
1, 47467, Note_on_c, 5, 58, 80
1, 47467, Note_on_c, 7, 76, 0
1, 47467, Note_on_c, 7, 85, 100
1, 47467, Note_on_c, 7, 73, 0
1, 47467, Note_on_c, 7, 76, 100
1, 47467, Note_on_c, 7, 68, 0
1, 47467, Note_on_c, 7, 66, 100
1, 47467, Note_on_c, 7, 61, 0
1, 47467, Note_on_c, 7, 58, 100
1, 47467, Note_on_c, 7, 49, 0
1, 47467, Note_on_c, 7, 46, 100
1, 47497, Note_on_c, 7, 85, 0
1, 47497, Note_on_c, 7, 85, 100
1, 47497, Note_on_c, 7, 76, 0
1, 47497, Note_on_c, 7, 76, 100
1, 47497, Note_on_c, 7, 66, 0
1, 47497, Note_on_c, 7, 66, 100
1, 47527, Note_on_c, 4, 88, 0
1, 47527, Note_on_c, 4, 86, 80
1, 47527, Note_on_c, 4, 85, 0
1, 47527, Note_on_c, 4, 83, 80
1, 47527, Note_on_c, 5, 66, 0
1, 47527, Note_on_c, 5, 66, 80
1, 47527, Note_on_c, 5, 58, 0
1, 47527, Note_on_c, 5, 59, 80
1, 47527, Note_on_c, 7, 85, 0
1, 47527, Note_on_c, 7, 74, 100
1, 47527, Note_on_c, 7, 76, 0
1, 47527, Note_on_c, 7, 71, 100
1, 47527, Note_on_c, 7, 66, 0
1, 47527, Note_on_c, 7, 66, 100
1, 47527, Note_on_c, 7, 58, 0
1, 47527, Note_on_c, 7, 59, 100
1, 47527, Note_on_c, 7, 46, 0
1, 47527, Note_on_c, 7, 47, 100
1, 47557, Note_on_c, 7, 74, 0
1, 47557, Note_on_c, 7, 74, 100
1, 47557, Note_on_c, 7, 71, 0
1, 47557, Note_on_c, 7, 71, 100
1, 47557, Note_on_c, 7, 66, 0
1, 47557, Note_on_c, 7, 66, 100
1, 47587, Note_on_c, 4, 86, 0
1, 47587, Note_on_c, 4, 86, 80
1, 47587, Note_on_c, 4, 83, 0
1, 47587, Note_on_c, 4, 83, 80
1, 47587, Note_on_c, 5, 66, 0
1, 47587, Note_on_c, 5, 64, 80
1, 47587, Note_on_c, 5, 59, 0
1, 47587, Note_on_c, 5, 56, 80
1, 47587, Note_on_c, 7, 74, 0
1, 47587, Note_on_c, 7, 83, 100
1, 47587, Note_on_c, 7, 71, 0
1, 47587, Note_on_c, 7, 74, 100
1, 47587, Note_on_c, 7, 66, 0
1, 47587, Note_on_c, 7, 64, 100
1, 47587, Note_on_c, 7, 59, 0
1, 47587, Note_on_c, 7, 56, 100
1, 47587, Note_on_c, 7, 47, 0
1, 47587, Note_on_c, 7, 44, 100
1, 47617, Note_on_c, 7, 83, 0
1, 47617, Note_on_c, 7, 83, 100
1, 47617, Note_on_c, 7, 74, 0
1, 47617, Note_on_c, 7, 74, 100
1, 47617, Note_on_c, 7, 64, 0
1, 47617, Note_on_c, 7, 64, 100
1, 47647, Note_on_c, 4, 86, 0
1, 47647, Note_on_c, 4, 85, 80
1, 47647, Note_on_c, 4, 83, 0
1, 47647, Note_on_c, 4, 81, 80
1, 47647, Note_on_c, 5, 64, 0
1, 47647, Note_on_c, 5, 64, 80
1, 47647, Note_on_c, 5, 56, 0
1, 47647, Note_on_c, 5, 57, 80
1, 47647, Note_on_c, 7, 83, 0
1, 47647, Note_on_c, 7, 73, 100
1, 47647, Note_on_c, 7, 74, 0
1, 47647, Note_on_c, 7, 69, 100
1, 47647, Note_on_c, 7, 64, 0
1, 47647, Note_on_c, 7, 64, 100
1, 47647, Note_on_c, 7, 56, 0
1, 47647, Note_on_c, 7, 57, 100
1, 47647, Note_on_c, 7, 44, 0
1, 47647, Note_on_c, 7, 45, 100
1, 47677, Note_on_c, 7, 73, 0
1, 47677, Note_on_c, 7, 73, 100
1, 47677, Note_on_c, 7, 69, 0
1, 47677, Note_on_c, 7, 69, 100
1, 47677, Note_on_c, 7, 64, 0
1, 47677, Note_on_c, 7, 64, 100
1, 47707, Note_on_c, 4, 85, 0
1, 47707, Note_on_c, 4, 85, 80
1, 47707, Note_on_c, 4, 81, 0
1, 47707, Note_on_c, 4, 81, 80
1, 47707, Note_on_c, 5, 64, 0
1, 47707, Note_on_c, 5, 62, 80
1, 47707, Note_on_c, 5, 57, 0
1, 47707, Note_on_c, 5, 54, 80
1, 47707, Note_on_c, 7, 73, 0
1, 47707, Note_on_c, 7, 81, 100
1, 47707, Note_on_c, 7, 69, 0
1, 47707, Note_on_c, 7, 73, 100
1, 47707, Note_on_c, 7, 64, 0
1, 47707, Note_on_c, 7, 62, 100
1, 47707, Note_on_c, 7, 57, 0
1, 47707, Note_on_c, 7, 54, 100
1, 47707, Note_on_c, 7, 45, 0
1, 47707, Note_on_c, 7, 42, 100
1, 47737, Note_on_c, 7, 81, 0
1, 47737, Note_on_c, 7, 81, 100
1, 47737, Note_on_c, 7, 73, 0
1, 47737, Note_on_c, 7, 73, 100
1, 47737, Note_on_c, 7, 62, 0
1, 47737, Note_on_c, 7, 62, 100
1, 47767, Note_on_c, 4, 85, 0
1, 47767, Note_on_c, 4, 83, 80
1, 47767, Note_on_c, 4, 81, 0
1, 47767, Note_on_c, 4, 80, 80
1, 47767, Note_on_c, 5, 62, 0
1, 47767, Note_on_c, 5, 62, 80
1, 47767, Note_on_c, 5, 54, 0
1, 47767, Note_on_c, 5, 56, 80
1, 47767, Note_on_c, 7, 81, 0
1, 47767, Note_on_c, 7, 71, 100
1, 47767, Note_on_c, 7, 73, 0
1, 47767, Note_on_c, 7, 68, 100
1, 47767, Note_on_c, 7, 62, 0
1, 47767, Note_on_c, 7, 62, 100
1, 47767, Note_on_c, 7, 54, 0
1, 47767, Note_on_c, 7, 55, 100
1, 47767, Note_on_c, 7, 42, 0
1, 47767, Note_on_c, 7, 44, 100
1, 47797, Note_on_c, 7, 71, 0
1, 47797, Note_on_c, 7, 71, 100
1, 47797, Note_on_c, 7, 68, 0
1, 47797, Note_on_c, 7, 68, 100
1, 47797, Note_on_c, 7, 62, 0
1, 47797, Note_on_c, 7, 62, 100
1, 47827, Note_on_c, 4, 83, 0
1, 47827, Note_on_c, 4, 83, 80
1, 47827, Note_on_c, 4, 80, 0
1, 47827, Note_on_c, 4, 80, 80
1, 47827, Note_on_c, 5, 62, 0
1, 47827, Note_on_c, 5, 61, 80
1, 47827, Note_on_c, 5, 56, 0
1, 47827, Note_on_c, 5, 53, 80
1, 47827, Note_on_c, 7, 71, 0
1, 47827, Note_on_c, 7, 80, 100
1, 47827, Note_on_c, 7, 68, 0
1, 47827, Note_on_c, 7, 71, 100
1, 47827, Note_on_c, 7, 62, 0
1, 47827, Note_on_c, 7, 61, 100
1, 47827, Note_on_c, 7, 55, 0
1, 47827, Note_on_c, 7, 53, 100
1, 47827, Note_on_c, 7, 44, 0
1, 47827, Note_on_c, 7, 41, 100
1, 47857, Note_on_c, 7, 80, 0
1, 47857, Note_on_c, 7, 80, 100
1, 47857, Note_on_c, 7, 71, 0
1, 47857, Note_on_c, 7, 71, 100
1, 47857, Note_on_c, 7, 61, 0
1, 47857, Note_on_c, 7, 61, 100
1, 47887, Note_on_c, 4, 83, 0
1, 47887, Note_on_c, 4, 81, 80
1, 47887, Note_on_c, 4, 80, 0
1, 47887, Note_on_c, 4, 78, 80
1, 47887, Note_on_c, 5, 61, 0
1, 47887, Note_on_c, 5, 61, 80
1, 47887, Note_on_c, 5, 53, 0
1, 47887, Note_on_c, 5, 54, 80
1, 47887, Note_on_c, 7, 80, 0
1, 47887, Note_on_c, 7, 81, 100
1, 47887, Note_on_c, 7, 71, 0
1, 47887, Note_on_c, 7, 66, 100
1, 47887, Note_on_c, 7, 61, 0
1, 47887, Note_on_c, 7, 61, 100
1, 47887, Note_on_c, 7, 53, 0
1, 47887, Note_on_c, 7, 54, 100
1, 47887, Note_on_c, 7, 41, 0
1, 47887, Note_on_c, 7, 42, 100
1, 47917, Note_on_c, 7, 81, 0
1, 47917, Note_on_c, 7, 81, 100
1, 47917, Note_on_c, 7, 66, 0
1, 47917, Note_on_c, 7, 66, 100
1, 47917, Note_on_c, 7, 61, 0
1, 47917, Note_on_c, 7, 61, 100
1, 47947, Note_on_c, 4, 81, 0
1, 47947, Note_on_c, 4, 81, 80
1, 47947, Note_on_c, 4, 78, 0
1, 47947, Note_on_c, 4, 78, 80
1, 47947, Note_on_c, 5, 61, 0
1, 47947, Note_on_c, 5, 61, 80
1, 47947, Note_on_c, 5, 54, 0
1, 47947, Note_on_c, 5, 57, 80
1, 47947, Note_on_c, 7, 81, 0
1, 47947, Note_on_c, 7, 78, 100
1, 47947, Note_on_c, 7, 66, 0
1, 47947, Note_on_c, 7, 73, 100
1, 47947, Note_on_c, 7, 61, 0
1, 47947, Note_on_c, 7, 61, 100
1, 47947, Note_on_c, 7, 54, 0
1, 47947, Note_on_c, 7, 57, 100
1, 47947, Note_on_c, 7, 42, 0
1, 47947, Note_on_c, 7, 45, 100
1, 47977, Note_on_c, 7, 78, 0
1, 47977, Note_on_c, 7, 78, 100
1, 47977, Note_on_c, 7, 73, 0
1, 47977, Note_on_c, 7, 73, 100
1, 47977, Note_on_c, 7, 61, 0
1, 47977, Note_on_c, 7, 61, 100
1, 48007, Note_on_c, 4, 81, 0
1, 48007, Note_on_c, 4, 90, 80
1, 48007, Note_on_c, 4, 78, 0
1, 48007, Note_on_c, 4, 83, 80
1, 48007, Note_on_c, 5, 61, 0
1, 48007, Note_on_c, 5, 63, 80
1, 48007, Note_on_c, 5, 57, 0
1, 48007, Note_on_c, 7, 78, 0
1, 48007, Note_on_c, 7, 83, 100
1, 48007, Note_on_c, 7, 73, 0
1, 48007, Note_on_c, 7, 78, 100
1, 48007, Note_on_c, 7, 61, 0
1, 48007, Note_on_c, 7, 66, 100
1, 48007, Note_on_c, 7, 57, 0
1, 48007, Note_on_c, 7, 63, 100
1, 48007, Note_on_c, 7, 45, 0
1, 48007, Note_on_c, 7, 51, 100
1, 48037, Note_on_c, 7, 83, 0
1, 48037, Note_on_c, 7, 83, 100
1, 48037, Note_on_c, 7, 78, 0
1, 48037, Note_on_c, 7, 78, 100
1, 48037, Note_on_c, 7, 66, 0
1, 48037, Note_on_c, 7, 66, 100
1, 48067, Note_on_c, 7, 83, 0
1, 48067, Note_on_c, 7, 83, 100
1, 48067, Note_on_c, 7, 78, 0
1, 48067, Note_on_c, 7, 77, 100
1, 48067, Note_on_c, 7, 66, 0
1, 48067, Note_on_c, 7, 65, 100
1, 48067, Note_on_c, 7, 63, 0
1, 48067, Note_on_c, 7, 63, 100
1, 48067, Note_on_c, 7, 51, 0
1, 48067, Note_on_c, 7, 51, 100
1, 48097, Note_on_c, 7, 83, 0
1, 48097, Note_on_c, 7, 83, 100
1, 48097, Note_on_c, 7, 77, 0
1, 48097, Note_on_c, 7, 77, 100
1, 48097, Note_on_c, 7, 65, 0
1, 48097, Note_on_c, 7, 65, 100
1, 48127, Note_on_c, 7, 83, 0
1, 48127, Note_on_c, 7, 83, 100
1, 48127, Note_on_c, 7, 77, 0
1, 48127, Note_on_c, 7, 78, 100
1, 48127, Note_on_c, 7, 65, 0
1, 48127, Note_on_c, 7, 66, 100
1, 48127, Note_on_c, 7, 63, 0
1, 48127, Note_on_c, 7, 63, 100
1, 48127, Note_on_c, 7, 51, 0
1, 48127, Note_on_c, 7, 51, 100
1, 48157, Note_on_c, 7, 83, 0
1, 48157, Note_on_c, 7, 83, 100
1, 48157, Note_on_c, 7, 78, 0
1, 48157, Note_on_c, 7, 78, 100
1, 48157, Note_on_c, 7, 66, 0
1, 48157, Note_on_c, 7, 66, 100
1, 48187, Note_on_c, 4, 83, 0
1, 48187, Note_on_c, 4, 84, 80
1, 48187, Note_on_c, 5, 62, 80
1, 48187, Note_on_c, 5, 63, 0
1, 48187, Note_on_c, 7, 83, 0
1, 48187, Note_on_c, 7, 84, 100
1, 48187, Note_on_c, 7, 78, 0
1, 48187, Note_on_c, 7, 81, 100
1, 48187, Note_on_c, 7, 66, 0
1, 48187, Note_on_c, 7, 69, 100
1, 48187, Note_on_c, 7, 63, 0
1, 48187, Note_on_c, 7, 62, 100
1, 48187, Note_on_c, 7, 51, 0
1, 48187, Note_on_c, 7, 50, 100
1, 48217, Note_on_c, 7, 84, 0
1, 48217, Note_on_c, 7, 84, 100
1, 48217, Note_on_c, 7, 81, 0
1, 48217, Note_on_c, 7, 81, 100
1, 48217, Note_on_c, 7, 69, 0
1, 48217, Note_on_c, 7, 69, 100
1, 48247, Note_on_c, 7, 84, 0
1, 48247, Note_on_c, 7, 84, 100
1, 48247, Note_on_c, 7, 81, 0
1, 48247, Note_on_c, 7, 80, 100
1, 48247, Note_on_c, 7, 69, 0
1, 48247, Note_on_c, 7, 68, 100
1, 48247, Note_on_c, 7, 62, 0
1, 48247, Note_on_c, 7, 62, 100
1, 48247, Note_on_c, 7, 50, 0
1, 48247, Note_on_c, 7, 50, 100
1, 48277, Note_on_c, 7, 84, 0
1, 48277, Note_on_c, 7, 84, 100
1, 48277, Note_on_c, 7, 80, 0
1, 48277, Note_on_c, 7, 80, 100
1, 48277, Note_on_c, 7, 68, 0
1, 48277, Note_on_c, 7, 68, 100
1, 48307, Note_on_c, 7, 84, 0
1, 48307, Note_on_c, 7, 84, 100
1, 48307, Note_on_c, 7, 80, 0
1, 48307, Note_on_c, 7, 78, 100
1, 48307, Note_on_c, 7, 68, 0
1, 48307, Note_on_c, 7, 66, 100
1, 48307, Note_on_c, 7, 62, 0
1, 48307, Note_on_c, 7, 62, 100
1, 48307, Note_on_c, 7, 50, 0
1, 48307, Note_on_c, 7, 50, 100
1, 48337, Note_on_c, 7, 84, 0
1, 48337, Note_on_c, 7, 84, 100
1, 48337, Note_on_c, 7, 78, 0
1, 48337, Note_on_c, 7, 78, 100
1, 48337, Note_on_c, 7, 66, 0
1, 48337, Note_on_c, 7, 66, 100
1, 48367, Note_on_c, 4, 90, 0
1, 48367, Note_on_c, 4, 89, 80
1, 48367, Note_on_c, 4, 84, 0
1, 48367, Note_on_c, 4, 85, 80
1, 48367, Note_on_c, 5, 61, 80
1, 48367, Note_on_c, 5, 62, 0
1, 48367, Note_on_c, 6, 49, 80
1, 48367, Note_on_c, 7, 84, 0
1, 48367, Note_on_c, 7, 73, 100
1, 48367, Note_on_c, 7, 78, 0
1, 48367, Note_on_c, 7, 77, 100
1, 48367, Note_on_c, 7, 66, 0
1, 48367, Note_on_c, 7, 65, 100
1, 48367, Note_on_c, 7, 62, 0
1, 48367, Note_on_c, 7, 61, 100
1, 48367, Note_on_c, 7, 50, 0
1, 48367, Note_on_c, 7, 49, 100
1, 48397, Note_on_c, 7, 73, 0
1, 48397, Note_on_c, 7, 73, 100
1, 48397, Note_on_c, 7, 77, 0
1, 48397, Note_on_c, 7, 77, 100
1, 48397, Note_on_c, 7, 65, 0
1, 48397, Note_on_c, 7, 65, 100
1, 48427, Note_on_c, 7, 73, 0
1, 48427, Note_on_c, 7, 73, 100
1, 48427, Note_on_c, 7, 77, 0
1, 48427, Note_on_c, 7, 80, 100
1, 48427, Note_on_c, 7, 65, 0
1, 48427, Note_on_c, 7, 68, 100
1, 48427, Note_on_c, 7, 61, 0
1, 48427, Note_on_c, 7, 61, 100
1, 48427, Note_on_c, 7, 49, 0
1, 48427, Note_on_c, 7, 49, 100
1, 48457, Note_on_c, 7, 73, 0
1, 48457, Note_on_c, 7, 73, 100
1, 48457, Note_on_c, 7, 80, 0
1, 48457, Note_on_c, 7, 80, 100
1, 48457, Note_on_c, 7, 68, 0
1, 48457, Note_on_c, 7, 68, 100
1, 48487, Note_on_c, 7, 73, 0
1, 48487, Note_on_c, 7, 73, 100
1, 48487, Note_on_c, 7, 80, 0
1, 48487, Note_on_c, 7, 68, 0
1, 48487, Note_on_c, 7, 49, 0
1, 48487, Note_on_c, 7, 49, 100
1, 48547, Note_on_c, 4, 89, 0
1, 48547, Note_on_c, 4, 90, 80
1, 48547, Note_on_c, 4, 85, 0
1, 48547, Note_on_c, 4, 84, 80
1, 48547, Note_on_c, 7, 84, 100
1, 48547, Note_on_c, 7, 73, 0
1, 48547, Note_on_c, 7, 81, 100
1, 48547, Note_on_c, 7, 69, 100
1, 48547, Note_on_c, 7, 61, 0
1, 48547, Note_on_c, 7, 61, 100
1, 48547, Note_on_c, 7, 49, 0
1, 48547, Note_on_c, 7, 49, 100
1, 48577, Note_on_c, 7, 84, 0
1, 48577, Note_on_c, 7, 84, 100
1, 48577, Note_on_c, 7, 81, 0
1, 48577, Note_on_c, 7, 81, 100
1, 48577, Note_on_c, 7, 69, 0
1, 48577, Note_on_c, 7, 69, 100
1, 48607, Note_on_c, 7, 84, 0
1, 48607, Note_on_c, 7, 84, 100
1, 48607, Note_on_c, 7, 81, 0
1, 48607, Note_on_c, 7, 78, 100
1, 48607, Note_on_c, 7, 69, 0
1, 48607, Note_on_c, 7, 66, 100
1, 48607, Note_on_c, 7, 61, 0
1, 48607, Note_on_c, 7, 61, 100
1, 48607, Note_on_c, 7, 49, 0
1, 48607, Note_on_c, 7, 49, 100
1, 48637, Note_on_c, 7, 84, 0
1, 48637, Note_on_c, 7, 84, 100
1, 48637, Note_on_c, 7, 78, 0
1, 48637, Note_on_c, 7, 78, 100
1, 48637, Note_on_c, 7, 66, 0
1, 48637, Note_on_c, 7, 66, 100
1, 48667, Note_on_c, 7, 84, 0
1, 48667, Note_on_c, 7, 84, 100
1, 48667, Note_on_c, 7, 78, 0
1, 48667, Note_on_c, 7, 80, 100
1, 48667, Note_on_c, 7, 66, 0
1, 48667, Note_on_c, 7, 68, 100
1, 48667, Note_on_c, 7, 61, 0
1, 48667, Note_on_c, 7, 61, 100
1, 48667, Note_on_c, 7, 49, 0
1, 48667, Note_on_c, 7, 49, 100
1, 48697, Note_on_c, 7, 84, 0
1, 48697, Note_on_c, 7, 84, 100
1, 48697, Note_on_c, 7, 80, 0
1, 48697, Note_on_c, 7, 80, 100
1, 48697, Note_on_c, 7, 68, 0
1, 48697, Note_on_c, 7, 68, 100
1, 48727, Note_on_c, 4, 90, 0
1, 48727, Note_on_c, 4, 89, 80
1, 48727, Note_on_c, 4, 84, 0
1, 48727, Note_on_c, 4, 85, 80
1, 48727, Note_on_c, 7, 84, 0
1, 48727, Note_on_c, 7, 73, 100
1, 48727, Note_on_c, 7, 80, 0
1, 48727, Note_on_c, 7, 77, 100
1, 48727, Note_on_c, 7, 68, 0
1, 48727, Note_on_c, 7, 65, 100
1, 48727, Note_on_c, 7, 61, 0
1, 48727, Note_on_c, 7, 61, 100
1, 48727, Note_on_c, 7, 49, 0
1, 48727, Note_on_c, 7, 49, 100
1, 48757, Note_on_c, 7, 73, 0
1, 48757, Note_on_c, 7, 73, 100
1, 48757, Note_on_c, 7, 77, 0
1, 48757, Note_on_c, 7, 77, 100
1, 48757, Note_on_c, 7, 65, 0
1, 48757, Note_on_c, 7, 65, 100
1, 48787, Note_on_c, 7, 73, 0
1, 48787, Note_on_c, 7, 73, 100
1, 48787, Note_on_c, 7, 77, 0
1, 48787, Note_on_c, 7, 80, 100
1, 48787, Note_on_c, 7, 65, 0
1, 48787, Note_on_c, 7, 68, 100
1, 48787, Note_on_c, 7, 61, 0
1, 48787, Note_on_c, 7, 61, 100
1, 48787, Note_on_c, 7, 49, 0
1, 48787, Note_on_c, 7, 49, 100
1, 48817, Note_on_c, 7, 73, 0
1, 48817, Note_on_c, 7, 73, 100
1, 48817, Note_on_c, 7, 80, 0
1, 48817, Note_on_c, 7, 80, 100
1, 48817, Note_on_c, 7, 68, 0
1, 48817, Note_on_c, 7, 68, 100
1, 48847, Note_on_c, 7, 73, 0
1, 48847, Note_on_c, 7, 73, 100
1, 48847, Note_on_c, 7, 80, 0
1, 48847, Note_on_c, 7, 68, 0
1, 48847, Note_on_c, 7, 49, 0
1, 48847, Note_on_c, 7, 49, 100
1, 48907, Note_on_c, 4, 89, 0
1, 48907, Note_on_c, 4, 90, 80
1, 48907, Note_on_c, 4, 85, 0
1, 48907, Note_on_c, 4, 84, 80
1, 48907, Note_on_c, 7, 84, 100
1, 48907, Note_on_c, 7, 73, 0
1, 48907, Note_on_c, 7, 81, 100
1, 48907, Note_on_c, 7, 69, 100
1, 48907, Note_on_c, 7, 61, 0
1, 48907, Note_on_c, 7, 61, 100
1, 48907, Note_on_c, 7, 49, 0
1, 48907, Note_on_c, 7, 49, 100
1, 48937, Note_on_c, 7, 84, 0
1, 48937, Note_on_c, 7, 84, 100
1, 48937, Note_on_c, 7, 81, 0
1, 48937, Note_on_c, 7, 81, 100
1, 48937, Note_on_c, 7, 69, 0
1, 48937, Note_on_c, 7, 69, 100
1, 48967, Note_on_c, 7, 84, 0
1, 48967, Note_on_c, 7, 84, 100
1, 48967, Note_on_c, 7, 81, 0
1, 48967, Note_on_c, 7, 78, 100
1, 48967, Note_on_c, 7, 69, 0
1, 48967, Note_on_c, 7, 66, 100
1, 48967, Note_on_c, 7, 61, 0
1, 48967, Note_on_c, 7, 61, 100
1, 48967, Note_on_c, 7, 49, 0
1, 48967, Note_on_c, 7, 49, 100
1, 48997, Note_on_c, 7, 84, 0
1, 48997, Note_on_c, 7, 84, 100
1, 48997, Note_on_c, 7, 78, 0
1, 48997, Note_on_c, 7, 78, 100
1, 48997, Note_on_c, 7, 66, 0
1, 48997, Note_on_c, 7, 66, 100
1, 49027, Note_on_c, 7, 84, 0
1, 49027, Note_on_c, 7, 84, 100
1, 49027, Note_on_c, 7, 78, 0
1, 49027, Note_on_c, 7, 80, 100
1, 49027, Note_on_c, 7, 66, 0
1, 49027, Note_on_c, 7, 68, 100
1, 49027, Note_on_c, 7, 61, 0
1, 49027, Note_on_c, 7, 61, 100
1, 49027, Note_on_c, 7, 49, 0
1, 49027, Note_on_c, 7, 49, 100
1, 49057, Note_on_c, 7, 84, 0
1, 49057, Note_on_c, 7, 84, 100
1, 49057, Note_on_c, 7, 80, 0
1, 49057, Note_on_c, 7, 80, 100
1, 49057, Note_on_c, 7, 68, 0
1, 49057, Note_on_c, 7, 68, 100
1, 49087, Note_on_c, 4, 90, 0
1, 49087, Note_on_c, 4, 89, 80
1, 49087, Note_on_c, 4, 84, 0
1, 49087, Note_on_c, 4, 73, 80
1, 49087, Note_on_c, 7, 84, 0
1, 49087, Note_on_c, 7, 73, 100
1, 49087, Note_on_c, 7, 80, 0
1, 49087, Note_on_c, 7, 77, 100
1, 49087, Note_on_c, 7, 68, 0
1, 49087, Note_on_c, 7, 65, 100
1, 49087, Note_on_c, 7, 61, 0
1, 49087, Note_on_c, 7, 61, 100
1, 49087, Note_on_c, 7, 49, 0
1, 49087, Note_on_c, 7, 49, 100
1, 49147, Note_on_c, 4, 89, 0
1, 49147, Note_on_c, 4, 85, 80
1, 49147, Note_on_c, 4, 73, 0
1, 49147, Note_on_c, 4, 73, 80
1, 49147, Note_on_c, 5, 49, 80
1, 49147, Note_on_c, 5, 61, 0
1, 49147, Note_on_c, 7, 73, 0
1, 49147, Note_on_c, 7, 73, 100
1, 49147, Note_on_c, 7, 77, 0
1, 49147, Note_on_c, 7, 65, 0
1, 49147, Note_on_c, 7, 37, 100
1, 49207, Note_on_c, 4, 85, 0
1, 49207, Note_on_c, 4, 85, 80
1, 49207, Note_on_c, 4, 73, 0
1, 49207, Note_on_c, 4, 73, 80
1, 49207, Note_on_c, 7, 73, 0
1, 49207, Note_on_c, 7, 73, 100
1, 49207, Note_on_c, 7, 49, 0
1, 49207, Note_on_c, 7, 49, 100
1, 49207, Note_on_c, 7, 37, 0
1, 49207, Note_on_c, 7, 37, 100
1, 49267, Note_on_c, 4, 85, 0
1, 49267, Note_on_c, 4, 85, 80
1, 49267, Note_on_c, 4, 73, 0
1, 49267, Note_on_c, 4, 73, 80
1, 49267, Note_on_c, 7, 73, 0
1, 49267, Note_on_c, 7, 73, 100
1, 49267, Note_on_c, 7, 49, 0
1, 49267, Note_on_c, 7, 49, 100
1, 49267, Note_on_c, 7, 37, 0
1, 49267, Note_on_c, 7, 37, 100
1, 49327, Note_on_c, 4, 85, 0
1, 49327, Note_on_c, 4, 85, 80
1, 49327, Note_on_c, 4, 73, 0
1, 49327, Note_on_c, 4, 73, 80
1, 49327, Note_on_c, 7, 73, 0
1, 49327, Note_on_c, 7, 73, 100
1, 49327, Note_on_c, 7, 49, 0
1, 49327, Note_on_c, 7, 49, 100
1, 49327, Note_on_c, 7, 37, 0
1, 49327, Note_on_c, 7, 37, 100
1, 49387, Note_on_c, 4, 85, 0
1, 49387, Note_on_c, 4, 85, 80
1, 49387, Note_on_c, 4, 73, 0
1, 49387, Note_on_c, 4, 73, 80
1, 49387, Note_on_c, 7, 73, 0
1, 49387, Note_on_c, 7, 73, 100
1, 49387, Note_on_c, 7, 49, 0
1, 49387, Note_on_c, 7, 49, 100
1, 49387, Note_on_c, 7, 37, 0
1, 49387, Note_on_c, 7, 37, 100
1, 49447, Note_on_c, 4, 85, 0
1, 49447, Note_on_c, 4, 85, 80
1, 49447, Note_on_c, 4, 73, 0
1, 49447, Note_on_c, 4, 73, 80
1, 49447, Note_on_c, 7, 73, 0
1, 49447, Note_on_c, 7, 73, 100
1, 49447, Note_on_c, 7, 49, 0
1, 49447, Note_on_c, 7, 49, 100
1, 49447, Note_on_c, 7, 37, 0
1, 49447, Note_on_c, 7, 37, 100
1, 49567, Note_on_c, 4, 85, 0
1, 49567, Note_on_c, 4, 73, 0
1, 49567, Note_on_c, 5, 49, 0
1, 49567, Note_on_c, 6, 49, 0
1, 49567, Note_on_c, 7, 73, 0
1, 49567, Note_on_c, 7, 61, 0
1, 49567, Note_on_c, 7, 49, 0
1, 49567, Note_on_c, 7, 37, 0
1, 49747, Note_on_c, 3, 73, 127
1, 49807, Note_on_c, 3, 73, 0
1, 49807, Note_on_c, 3, 78, 127
1, 49807, Note_on_c, 7, 54, 100
1, 49807, Note_on_c, 7, 42, 100
1, 49867, Note_on_c, 7, 66, 100
1, 49867, Note_on_c, 7, 57, 100
1, 49927, Note_on_c, 7, 66, 0
1, 49927, Note_on_c, 7, 69, 100
1, 49927, Note_on_c, 7, 57, 0
1, 49927, Note_on_c, 7, 66, 100
1, 49927, Note_on_c, 7, 54, 0
1, 49927, Note_on_c, 7, 42, 0
1, 49987, Note_on_c, 3, 78, 0
1, 49987, Note_on_c, 3, 73, 127
1, 49987, Note_on_c, 7, 69, 0
1, 49987, Note_on_c, 7, 73, 100
1, 49987, Note_on_c, 7, 66, 0
1, 49987, Note_on_c, 7, 69, 100
1, 49987, Note_on_c, 7, 66, 100
1, 50047, Note_on_c, 7, 73, 0
1, 50047, Note_on_c, 7, 73, 100
1, 50047, Note_on_c, 7, 69, 0
1, 50047, Note_on_c, 7, 69, 100
1, 50077, Note_on_c, 7, 73, 0
1, 50077, Note_on_c, 7, 69, 0
1, 50107, Note_on_c, 3, 73, 0
1, 50107, Note_on_c, 3, 69, 127
1, 50107, Note_on_c, 7, 73, 100
1, 50107, Note_on_c, 7, 69, 100
1, 50137, Note_on_c, 7, 73, 0
1, 50137, Note_on_c, 7, 69, 0
1, 50167, Note_on_c, 3, 69, 0
1, 50167, Note_on_c, 3, 74, 127
1, 50167, Note_on_c, 7, 66, 0
1, 50167, Note_on_c, 7, 54, 100
1, 50167, Note_on_c, 7, 42, 100
1, 50227, Note_on_c, 7, 68, 100
1, 50227, Note_on_c, 7, 59, 100
1, 50287, Note_on_c, 3, 74, 0
1, 50287, Note_on_c, 3, 71, 127
1, 50287, Note_on_c, 7, 68, 0
1, 50287, Note_on_c, 7, 71, 100
1, 50287, Note_on_c, 7, 59, 0
1, 50287, Note_on_c, 7, 68, 100
1, 50287, Note_on_c, 7, 54, 0
1, 50287, Note_on_c, 7, 42, 0
1, 50347, Note_on_c, 3, 71, 0
1, 50347, Note_on_c, 3, 68, 127
1, 50347, Note_on_c, 7, 71, 0
1, 50347, Note_on_c, 7, 74, 100
1, 50347, Note_on_c, 7, 68, 0
1, 50347, Note_on_c, 7, 71, 100
1, 50347, Note_on_c, 7, 66, 100
1, 50407, Note_on_c, 7, 74, 0
1, 50407, Note_on_c, 7, 74, 100
1, 50407, Note_on_c, 7, 71, 0
1, 50407, Note_on_c, 7, 71, 100
1, 50437, Note_on_c, 7, 74, 0
1, 50437, Note_on_c, 7, 71, 0
1, 50467, Note_on_c, 3, 68, 0
1, 50467, Note_on_c, 3, 68, 127
1, 50467, Note_on_c, 7, 74, 100
1, 50467, Note_on_c, 7, 71, 100
1, 50497, Note_on_c, 7, 74, 0
1, 50497, Note_on_c, 7, 71, 0
1, 50527, Note_on_c, 3, 68, 0
1, 50527, Note_on_c, 3, 80, 127
1, 50527, Note_on_c, 7, 66, 0
1, 50527, Note_on_c, 7, 53, 100
1, 50527, Note_on_c, 7, 41, 100
1, 50587, Note_on_c, 7, 66, 100
1, 50587, Note_on_c, 7, 61, 100
1, 50647, Note_on_c, 3, 80, 0
1, 50647, Note_on_c, 3, 77, 127
1, 50647, Note_on_c, 7, 66, 0
1, 50647, Note_on_c, 7, 68, 100
1, 50647, Note_on_c, 7, 61, 0
1, 50647, Note_on_c, 7, 65, 100
1, 50647, Note_on_c, 7, 53, 0
1, 50647, Note_on_c, 7, 41, 0
1, 50707, Note_on_c, 3, 77, 0
1, 50707, Note_on_c, 3, 73, 127
1, 50707, Note_on_c, 7, 68, 0
1, 50707, Note_on_c, 7, 73, 100
1, 50707, Note_on_c, 7, 65, 0
1, 50707, Note_on_c, 7, 68, 100
1, 50707, Note_on_c, 7, 65, 100
1, 50767, Note_on_c, 7, 73, 0
1, 50767, Note_on_c, 7, 73, 100
1, 50767, Note_on_c, 7, 68, 0
1, 50767, Note_on_c, 7, 68, 100
1, 50797, Note_on_c, 7, 73, 0
1, 50797, Note_on_c, 7, 68, 0
1, 50827, Note_on_c, 3, 73, 0
1, 50827, Note_on_c, 3, 71, 127
1, 50827, Note_on_c, 7, 73, 100
1, 50827, Note_on_c, 7, 68, 100
1, 50857, Note_on_c, 7, 73, 0
1, 50857, Note_on_c, 7, 68, 0
1, 50887, Note_on_c, 3, 71, 0
1, 50887, Note_on_c, 3, 69, 127
1, 50887, Note_on_c, 7, 65, 0
1, 50887, Note_on_c, 7, 54, 100
1, 50887, Note_on_c, 7, 42, 100
1, 50947, Note_on_c, 7, 69, 100
1, 50947, Note_on_c, 7, 66, 100
1, 51007, Note_on_c, 3, 69, 0
1, 51007, Note_on_c, 3, 74, 127
1, 51007, Note_on_c, 7, 69, 0
1, 51007, Note_on_c, 7, 74, 100
1, 51007, Note_on_c, 7, 66, 0
1, 51007, Note_on_c, 7, 71, 100
1, 51007, Note_on_c, 7, 54, 0
1, 51007, Note_on_c, 7, 42, 0
1, 51067, Note_on_c, 3, 74, 0
1, 51067, Note_on_c, 3, 73, 127
1, 51067, Note_on_c, 7, 74, 0
1, 51067, Note_on_c, 7, 73, 100
1, 51067, Note_on_c, 7, 71, 0
1, 51067, Note_on_c, 7, 69, 100
1, 51067, Note_on_c, 7, 66, 100
1, 51127, Note_on_c, 7, 73, 0
1, 51127, Note_on_c, 7, 73, 100
1, 51127, Note_on_c, 7, 69, 0
1, 51127, Note_on_c, 7, 69, 100
1, 51157, Note_on_c, 7, 73, 0
1, 51157, Note_on_c, 7, 69, 0
1, 51187, Note_on_c, 3, 73, 0
1, 51187, Note_on_c, 3, 81, 127
1, 51187, Note_on_c, 7, 73, 100
1, 51187, Note_on_c, 7, 69, 100
1, 51217, Note_on_c, 7, 73, 0
1, 51217, Note_on_c, 7, 69, 0
1, 51247, Note_on_c, 3, 81, 0
1, 51247, Note_on_c, 3, 80, 127
1, 51247, Note_on_c, 7, 71, 100
1, 51247, Note_on_c, 7, 66, 0
1, 51307, Note_on_c, 7, 73, 100
1, 51307, Note_on_c, 7, 71, 0
1, 51367, Note_on_c, 3, 80, 0
1, 51367, Note_on_c, 3, 77, 127
1, 51367, Note_on_c, 7, 71, 100
1, 51367, Note_on_c, 7, 73, 0
1, 51427, Note_on_c, 3, 77, 0
1, 51427, Note_on_c, 3, 78, 127
1, 51427, Note_on_c, 7, 69, 100
1, 51427, Note_on_c, 7, 71, 0
1, 51487, Note_on_c, 7, 73, 100
1, 51487, Note_on_c, 7, 69, 0
1, 51547, Note_on_c, 3, 78, 0
1, 51547, Note_on_c, 3, 81, 127
1, 51547, Note_on_c, 7, 69, 100
1, 51547, Note_on_c, 7, 73, 0
1, 51607, Note_on_c, 3, 81, 0
1, 51607, Note_on_c, 3, 80, 127
1, 51607, Note_on_c, 7, 71, 100
1, 51607, Note_on_c, 7, 69, 0
1, 51667, Note_on_c, 7, 73, 100
1, 51667, Note_on_c, 7, 71, 0
1, 51727, Note_on_c, 3, 80, 0
1, 51727, Note_on_c, 3, 77, 127
1, 51727, Note_on_c, 7, 71, 100
1, 51727, Note_on_c, 7, 73, 0
1, 51787, Note_on_c, 3, 77, 0
1, 51787, Note_on_c, 3, 78, 127
1, 51787, Note_on_c, 7, 69, 100
1, 51787, Note_on_c, 7, 71, 0
1, 51847, Note_on_c, 7, 73, 100
1, 51847, Note_on_c, 7, 69, 0
1, 51907, Note_on_c, 3, 78, 0
1, 51907, Note_on_c, 3, 81, 127
1, 51907, Note_on_c, 7, 69, 100
1, 51907, Note_on_c, 7, 73, 0
1, 51967, Note_on_c, 3, 81, 0
1, 51967, Note_on_c, 3, 78, 127
1, 51967, Note_on_c, 7, 66, 100
1, 51967, Note_on_c, 7, 69, 0
1, 51967, Note_on_c, 7, 62, 100
1, 52027, Note_on_c, 3, 78, 0
1, 52027, Note_on_c, 3, 76, 127
1, 52087, Note_on_c, 3, 76, 0
1, 52087, Note_on_c, 3, 74, 127
1, 52147, Note_on_c, 3, 74, 0
1, 52147, Note_on_c, 3, 76, 127
1, 52162, Note_on_c, 3, 76, 0
1, 52162, Note_on_c, 3, 74, 127
1, 52207, Note_on_c, 3, 74, 0
1, 52207, Note_on_c, 3, 73, 127
1, 52267, Note_on_c, 3, 73, 0
1, 52267, Note_on_c, 3, 72, 127
1, 52327, Note_on_c, 3, 72, 0
1, 52327, Note_on_c, 3, 73, 127
1, 52327, Note_on_c, 7, 66, 0
1, 52327, Note_on_c, 7, 65, 100
1, 52327, Note_on_c, 7, 62, 0
1, 52327, Note_on_c, 7, 61, 100
1, 52447, Note_on_c, 3, 73, 0
1, 52447, Note_on_c, 7, 65, 0
1, 52447, Note_on_c, 7, 68, 100
1, 52447, Note_on_c, 7, 61, 0
1, 52447, Note_on_c, 7, 65, 100
1, 52447, Note_on_c, 7, 61, 100
1, 52447, Note_on_c, 7, 59, 100
1, 52447, Note_on_c, 7, 47, 100
1, 52507, Note_on_c, 7, 68, 0
1, 52507, Note_on_c, 7, 73, 100
1, 52507, Note_on_c, 7, 65, 0
1, 52507, Note_on_c, 7, 66, 100
1, 52507, Note_on_c, 7, 61, 0
1, 52507, Note_on_c, 7, 61, 100
1, 52507, Note_on_c, 7, 59, 0
1, 52507, Note_on_c, 7, 57, 100
1, 52507, Note_on_c, 7, 47, 0
1, 52507, Note_on_c, 7, 45, 100
1, 52627, Note_on_c, 3, 49, 127
1, 52627, Note_on_c, 7, 73, 0
1, 52627, Note_on_c, 7, 65, 100
1, 52627, Note_on_c, 7, 66, 0
1, 52627, Note_on_c, 7, 59, 100
1, 52627, Note_on_c, 7, 61, 0
1, 52627, Note_on_c, 7, 61, 100
1, 52627, Note_on_c, 7, 57, 0
1, 52627, Note_on_c, 7, 56, 100
1, 52627, Note_on_c, 7, 45, 0
1, 52627, Note_on_c, 7, 44, 100
1, 52657, Note_on_c, 3, 49, 0
1, 52687, Note_on_c, 3, 54, 127
1, 52687, Note_on_c, 7, 65, 0
1, 52687, Note_on_c, 7, 66, 100
1, 52687, Note_on_c, 7, 59, 0
1, 52687, Note_on_c, 7, 57, 100
1, 52687, Note_on_c, 7, 61, 0
1, 52687, Note_on_c, 7, 61, 100
1, 52687, Note_on_c, 7, 56, 0
1, 52687, Note_on_c, 7, 54, 100
1, 52687, Note_on_c, 7, 44, 0
1, 52687, Note_on_c, 7, 42, 100
1, 52747, Note_on_c, 7, 66, 0
1, 52747, Note_on_c, 7, 57, 0
1, 52747, Note_on_c, 7, 57, 100
1, 52807, Note_on_c, 7, 61, 0
1, 52807, Note_on_c, 7, 61, 100
1, 52807, Note_on_c, 7, 57, 0
1, 52807, Note_on_c, 7, 57, 100
1, 52807, Note_on_c, 7, 42, 0
1, 52867, Note_on_c, 3, 54, 0
1, 52867, Note_on_c, 3, 49, 127
1, 52867, Note_on_c, 7, 61, 0
1, 52867, Note_on_c, 7, 61, 100
1, 52867, Note_on_c, 7, 57, 0
1, 52867, Note_on_c, 7, 57, 100
1, 52867, Note_on_c, 7, 54, 0
1, 52867, Note_on_c, 7, 54, 100
1, 52927, Note_on_c, 7, 61, 0
1, 52927, Note_on_c, 7, 61, 100
1, 52927, Note_on_c, 7, 57, 0
1, 52927, Note_on_c, 7, 57, 100
1, 52927, Note_on_c, 7, 54, 0
1, 52927, Note_on_c, 7, 54, 100
1, 52987, Note_on_c, 3, 49, 0
1, 52987, Note_on_c, 3, 45, 127
1, 52987, Note_on_c, 7, 61, 0
1, 52987, Note_on_c, 7, 61, 100
1, 52987, Note_on_c, 7, 57, 0
1, 52987, Note_on_c, 7, 57, 100
1, 52987, Note_on_c, 7, 54, 0
1, 52987, Note_on_c, 7, 54, 100
1, 53047, Note_on_c, 3, 45, 0
1, 53047, Note_on_c, 3, 50, 127
1, 53047, Note_on_c, 7, 61, 0
1, 53047, Note_on_c, 7, 57, 0
1, 53047, Note_on_c, 7, 54, 0
1, 53047, Note_on_c, 7, 54, 100
1, 53047, Note_on_c, 7, 42, 100
1, 53107, Note_on_c, 7, 59, 100
1, 53107, Note_on_c, 7, 56, 100
1, 53107, Note_on_c, 7, 50, 100
1, 53167, Note_on_c, 3, 50, 0
1, 53167, Note_on_c, 3, 47, 127
1, 53167, Note_on_c, 7, 59, 0
1, 53167, Note_on_c, 7, 59, 100
1, 53167, Note_on_c, 7, 56, 0
1, 53167, Note_on_c, 7, 56, 100
1, 53167, Note_on_c, 7, 50, 0
1, 53167, Note_on_c, 7, 50, 100
1, 53167, Note_on_c, 7, 54, 0
1, 53167, Note_on_c, 7, 42, 0
1, 53227, Note_on_c, 3, 47, 0
1, 53227, Note_on_c, 3, 44, 127
1, 53227, Note_on_c, 7, 59, 0
1, 53227, Note_on_c, 7, 59, 100
1, 53227, Note_on_c, 7, 56, 0
1, 53227, Note_on_c, 7, 56, 100
1, 53227, Note_on_c, 7, 50, 0
1, 53227, Note_on_c, 7, 50, 100
1, 53287, Note_on_c, 7, 59, 0
1, 53287, Note_on_c, 7, 59, 100
1, 53287, Note_on_c, 7, 56, 0
1, 53287, Note_on_c, 7, 56, 100
1, 53287, Note_on_c, 7, 50, 0
1, 53287, Note_on_c, 7, 50, 100
1, 53347, Note_on_c, 3, 44, 0
1, 53347, Note_on_c, 3, 44, 127
1, 53347, Note_on_c, 7, 59, 0
1, 53347, Note_on_c, 7, 59, 100
1, 53347, Note_on_c, 7, 56, 0
1, 53347, Note_on_c, 7, 56, 100
1, 53347, Note_on_c, 7, 50, 0
1, 53347, Note_on_c, 7, 50, 100
1, 53407, Note_on_c, 3, 44, 0
1, 53407, Note_on_c, 3, 56, 127
1, 53407, Note_on_c, 7, 59, 0
1, 53407, Note_on_c, 7, 56, 0
1, 53407, Note_on_c, 7, 50, 0
1, 53407, Note_on_c, 7, 53, 100
1, 53407, Note_on_c, 7, 41, 100
1, 53467, Note_on_c, 7, 59, 100
1, 53467, Note_on_c, 7, 56, 100
1, 53467, Note_on_c, 7, 49, 100
1, 53527, Note_on_c, 3, 56, 0
1, 53527, Note_on_c, 3, 53, 127
1, 53527, Note_on_c, 7, 59, 0
1, 53527, Note_on_c, 7, 59, 100
1, 53527, Note_on_c, 7, 56, 0
1, 53527, Note_on_c, 7, 56, 100
1, 53527, Note_on_c, 7, 49, 0
1, 53527, Note_on_c, 7, 49, 100
1, 53527, Note_on_c, 7, 53, 0
1, 53527, Note_on_c, 7, 41, 0
1, 53587, Note_on_c, 3, 53, 0
1, 53587, Note_on_c, 3, 49, 127
1, 53587, Note_on_c, 7, 59, 0
1, 53587, Note_on_c, 7, 59, 100
1, 53587, Note_on_c, 7, 56, 0
1, 53587, Note_on_c, 7, 56, 100
1, 53587, Note_on_c, 7, 49, 0
1, 53587, Note_on_c, 7, 49, 100
1, 53647, Note_on_c, 7, 59, 0
1, 53647, Note_on_c, 7, 59, 100
1, 53647, Note_on_c, 7, 56, 0
1, 53647, Note_on_c, 7, 56, 100
1, 53647, Note_on_c, 7, 49, 0
1, 53647, Note_on_c, 7, 49, 100
1, 53707, Note_on_c, 3, 49, 0
1, 53707, Note_on_c, 3, 47, 127
1, 53707, Note_on_c, 7, 59, 0
1, 53707, Note_on_c, 7, 59, 100
1, 53707, Note_on_c, 7, 56, 0
1, 53707, Note_on_c, 7, 56, 100
1, 53707, Note_on_c, 7, 49, 0
1, 53707, Note_on_c, 7, 49, 100
1, 53767, Note_on_c, 3, 47, 0
1, 53767, Note_on_c, 3, 45, 127
1, 53767, Note_on_c, 7, 59, 0
1, 53767, Note_on_c, 7, 56, 0
1, 53767, Note_on_c, 7, 49, 0
1, 53767, Note_on_c, 7, 54, 100
1, 53767, Note_on_c, 7, 42, 100
1, 53827, Note_on_c, 7, 57, 100
1, 53887, Note_on_c, 3, 45, 0
1, 53887, Note_on_c, 3, 50, 127
1, 53887, Note_on_c, 7, 62, 100
1, 53887, Note_on_c, 7, 57, 0
1, 53887, Note_on_c, 7, 59, 100
1, 53887, Note_on_c, 7, 42, 0
1, 53947, Note_on_c, 3, 50, 0
1, 53947, Note_on_c, 3, 49, 127
1, 53947, Note_on_c, 7, 62, 0
1, 53947, Note_on_c, 7, 61, 100
1, 53947, Note_on_c, 7, 59, 0
1, 53947, Note_on_c, 7, 57, 100
1, 53947, Note_on_c, 7, 54, 0
1, 53947, Note_on_c, 7, 54, 100
1, 54007, Note_on_c, 7, 61, 0
1, 54007, Note_on_c, 7, 61, 100
1, 54007, Note_on_c, 7, 57, 0
1, 54007, Note_on_c, 7, 57, 100
1, 54007, Note_on_c, 7, 54, 0
1, 54007, Note_on_c, 7, 54, 100
1, 54037, Note_on_c, 7, 61, 0
1, 54037, Note_on_c, 7, 57, 0
1, 54067, Note_on_c, 3, 49, 0
1, 54067, Note_on_c, 3, 49, 127
1, 54067, Note_on_c, 7, 61, 100
1, 54067, Note_on_c, 7, 57, 100
1, 54067, Note_on_c, 7, 54, 0
1, 54067, Note_on_c, 7, 54, 100
1, 54097, Note_on_c, 7, 61, 0
1, 54097, Note_on_c, 7, 57, 0
1, 54127, Note_on_c, 3, 49, 0
1, 54127, Note_on_c, 3, 50, 127
1, 54127, Note_on_c, 7, 54, 0
1, 54187, Note_on_c, 7, 47, 100
1, 54187, Note_on_c, 7, 35, 100
1, 54247, Note_on_c, 3, 50, 0
1, 54247, Note_on_c, 3, 51, 127
1, 54247, Note_on_c, 7, 47, 0
1, 54247, Note_on_c, 7, 45, 100
1, 54247, Note_on_c, 7, 35, 0
1, 54247, Note_on_c, 7, 33, 100
1, 54307, Note_on_c, 3, 51, 0
1, 54307, Note_on_c, 3, 52, 127
1, 54307, Note_on_c, 7, 45, 0
1, 54307, Note_on_c, 7, 44, 100
1, 54307, Note_on_c, 7, 33, 0
1, 54307, Note_on_c, 7, 32, 100
1, 54367, Note_on_c, 7, 44, 0
1, 54367, Note_on_c, 7, 49, 100
1, 54367, Note_on_c, 7, 32, 0
1, 54367, Note_on_c, 7, 37, 100
1, 54427, Note_on_c, 3, 52, 0
1, 54427, Note_on_c, 3, 53, 127
1, 54427, Note_on_c, 7, 49, 0
1, 54427, Note_on_c, 7, 47, 100
1, 54427, Note_on_c, 7, 37, 0
1, 54427, Note_on_c, 7, 35, 100
1, 54487, Note_on_c, 3, 53, 0
1, 54487, Note_on_c, 3, 54, 127
1, 54487, Note_on_c, 7, 47, 0
1, 54487, Note_on_c, 7, 45, 100
1, 54487, Note_on_c, 7, 35, 0
1, 54487, Note_on_c, 7, 33, 100
1, 54547, Note_on_c, 7, 66, 100
1, 54547, Note_on_c, 7, 57, 100
1, 54577, Note_on_c, 7, 66, 0
1, 54577, Note_on_c, 7, 57, 0
1, 54607, Note_on_c, 7, 66, 100
1, 54607, Note_on_c, 7, 57, 100
1, 54637, Note_on_c, 7, 66, 0
1, 54637, Note_on_c, 7, 57, 0
1, 54667, Note_on_c, 3, 54, 0
1, 54667, Note_on_c, 3, 46, 127
1, 54667, Note_on_c, 7, 45, 0
1, 54667, Note_on_c, 7, 40, 100
1, 54667, Note_on_c, 7, 33, 0
1, 54667, Note_on_c, 7, 28, 100
1, 54727, Note_on_c, 7, 66, 100
1, 54727, Note_on_c, 7, 58, 100
1, 54757, Note_on_c, 7, 66, 0
1, 54757, Note_on_c, 7, 58, 0
1, 54787, Note_on_c, 7, 66, 100
1, 54787, Note_on_c, 7, 58, 100
1, 54817, Note_on_c, 7, 66, 0
1, 54817, Note_on_c, 7, 58, 0
1, 54847, Note_on_c, 3, 46, 0
1, 54847, Note_on_c, 3, 47, 127
1, 54847, Note_on_c, 7, 40, 0
1, 54847, Note_on_c, 7, 39, 100
1, 54847, Note_on_c, 7, 28, 0
1, 54847, Note_on_c, 7, 27, 100
1, 54907, Note_on_c, 7, 66, 100
1, 54907, Note_on_c, 7, 59, 100
1, 54937, Note_on_c, 7, 66, 0
1, 54937, Note_on_c, 7, 59, 0
1, 54967, Note_on_c, 7, 66, 100
1, 54967, Note_on_c, 7, 59, 100
1, 54997, Note_on_c, 7, 66, 0
1, 54997, Note_on_c, 7, 59, 0
1, 55027, Note_on_c, 3, 47, 0
1, 55027, Note_on_c, 3, 48, 127
1, 55027, Note_on_c, 7, 39, 0
1, 55027, Note_on_c, 7, 38, 100
1, 55027, Note_on_c, 7, 27, 0
1, 55027, Note_on_c, 7, 26, 100
1, 55087, Note_on_c, 7, 66, 100
1, 55087, Note_on_c, 7, 60, 100
1, 55117, Note_on_c, 7, 66, 0
1, 55117, Note_on_c, 7, 60, 0
1, 55147, Note_on_c, 7, 66, 100
1, 55147, Note_on_c, 7, 60, 100
1, 55177, Note_on_c, 7, 66, 0
1, 55177, Note_on_c, 7, 60, 0
1, 55207, Note_on_c, 3, 48, 0
1, 55207, Note_on_c, 3, 49, 127
1, 55207, Note_on_c, 7, 65, 100
1, 55207, Note_on_c, 7, 61, 100
1, 55207, Note_on_c, 7, 38, 0
1, 55207, Note_on_c, 7, 37, 100
1, 55207, Note_on_c, 7, 26, 0
1, 55207, Note_on_c, 7, 25, 100
1, 55267, Note_on_c, 7, 65, 0
1, 55267, Note_on_c, 7, 80, 100
1, 55267, Note_on_c, 7, 61, 0
1, 55267, Note_on_c, 7, 77, 100
1, 55267, Note_on_c, 7, 61, 100
1, 55327, Note_on_c, 3, 49, 0
1, 55327, Note_on_c, 7, 80, 0
1, 55327, Note_on_c, 7, 80, 100
1, 55327, Note_on_c, 7, 77, 0
1, 55327, Note_on_c, 7, 77, 100
1, 55327, Note_on_c, 7, 61, 0
1, 55327, Note_on_c, 7, 61, 100
1, 55327, Note_on_c, 7, 37, 0
1, 55327, Note_on_c, 7, 53, 100
1, 55327, Note_on_c, 7, 25, 0
1, 55327, Note_on_c, 7, 41, 100
1, 55387, Note_on_c, 7, 80, 0
1, 55387, Note_on_c, 7, 80, 100
1, 55387, Note_on_c, 7, 77, 0
1, 55387, Note_on_c, 7, 77, 100
1, 55387, Note_on_c, 7, 61, 0
1, 55387, Note_on_c, 7, 61, 100
1, 55387, Note_on_c, 7, 53, 0
1, 55387, Note_on_c, 7, 56, 100
1, 55387, Note_on_c, 7, 41, 0
1, 55387, Note_on_c, 7, 44, 100
1, 55447, Note_on_c, 7, 80, 0
1, 55447, Note_on_c, 7, 80, 100
1, 55447, Note_on_c, 7, 77, 0
1, 55447, Note_on_c, 7, 77, 100
1, 55447, Note_on_c, 7, 61, 0
1, 55447, Note_on_c, 7, 61, 100
1, 55507, Note_on_c, 3, 49, 127
1, 55507, Note_on_c, 7, 80, 0
1, 55507, Note_on_c, 7, 80, 100
1, 55507, Note_on_c, 7, 77, 0
1, 55507, Note_on_c, 7, 77, 100
1, 55507, Note_on_c, 7, 61, 0
1, 55507, Note_on_c, 7, 61, 100
1, 55507, Note_on_c, 7, 56, 0
1, 55507, Note_on_c, 7, 49, 100
1, 55507, Note_on_c, 7, 44, 0
1, 55507, Note_on_c, 7, 37, 100
1, 55567, Note_on_c, 3, 49, 0
1, 55567, Note_on_c, 3, 48, 127
1, 55567, Note_on_c, 4, 81, 80
1, 55567, Note_on_c, 4, 78, 80
1, 55567, Note_on_c, 7, 80, 0
1, 55567, Note_on_c, 7, 81, 100
1, 55567, Note_on_c, 7, 77, 0
1, 55567, Note_on_c, 7, 78, 100
1, 55567, Note_on_c, 7, 61, 0
1, 55567, Note_on_c, 7, 60, 100
1, 55567, Note_on_c, 7, 49, 0
1, 55567, Note_on_c, 7, 48, 100
1, 55567, Note_on_c, 7, 37, 0
1, 55567, Note_on_c, 7, 36, 100
1, 55687, Note_on_c, 3, 48, 0
1, 55687, Note_on_c, 3, 51, 127
1, 55687, Note_on_c, 7, 81, 0
1, 55687, Note_on_c, 7, 78, 0
1, 55687, Note_on_c, 7, 48, 0
1, 55687, Note_on_c, 7, 36, 0
1, 55747, Note_on_c, 3, 51, 0
1, 55747, Note_on_c, 3, 54, 127
1, 55867, Note_on_c, 3, 54, 0
1, 55867, Note_on_c, 3, 48, 127
1, 55867, Note_on_c, 7, 48, 100
1, 55867, Note_on_c, 7, 36, 100
1, 55927, Note_on_c, 3, 48, 0
1, 55927, Note_on_c, 3, 49, 127
1, 55927, Note_on_c, 4, 81, 0
1, 55927, Note_on_c, 4, 80, 80
1, 55927, Note_on_c, 4, 78, 0
1, 55927, Note_on_c, 4, 77, 80
1, 55927, Note_on_c, 7, 60, 0
1, 55927, Note_on_c, 7, 61, 100
1, 55927, Note_on_c, 7, 48, 0
1, 55927, Note_on_c, 7, 49, 100
1, 55927, Note_on_c, 7, 36, 0
1, 55927, Note_on_c, 7, 37, 100
1, 55987, Note_on_c, 7, 80, 100
1, 55987, Note_on_c, 7, 77, 100
1, 55987, Note_on_c, 7, 61, 0
1, 55987, Note_on_c, 7, 61, 100
1, 56017, Note_on_c, 7, 80, 0
1, 56047, Note_on_c, 3, 49, 0
1, 56047, Note_on_c, 4, 80, 0
1, 56047, Note_on_c, 4, 77, 0
1, 56047, Note_on_c, 7, 80, 100
1, 56047, Note_on_c, 7, 77, 0
1, 56047, Note_on_c, 7, 77, 100
1, 56047, Note_on_c, 7, 61, 0
1, 56047, Note_on_c, 7, 61, 100
1, 56047, Note_on_c, 7, 49, 0
1, 56047, Note_on_c, 7, 53, 100
1, 56047, Note_on_c, 7, 37, 0
1, 56047, Note_on_c, 7, 41, 100
1, 56077, Note_on_c, 7, 80, 0
1, 56107, Note_on_c, 7, 80, 100
1, 56107, Note_on_c, 7, 77, 0
1, 56107, Note_on_c, 7, 77, 100
1, 56107, Note_on_c, 7, 61, 0
1, 56107, Note_on_c, 7, 61, 100
1, 56107, Note_on_c, 7, 53, 0
1, 56107, Note_on_c, 7, 56, 100
1, 56107, Note_on_c, 7, 41, 0
1, 56107, Note_on_c, 7, 44, 100
1, 56137, Note_on_c, 7, 80, 0
1, 56167, Note_on_c, 7, 80, 100
1, 56167, Note_on_c, 7, 77, 0
1, 56167, Note_on_c, 7, 77, 100
1, 56167, Note_on_c, 7, 61, 0
1, 56167, Note_on_c, 7, 61, 100
1, 56227, Note_on_c, 3, 49, 127
1, 56227, Note_on_c, 7, 80, 0
1, 56227, Note_on_c, 7, 85, 100
1, 56227, Note_on_c, 7, 77, 0
1, 56227, Note_on_c, 7, 77, 100
1, 56227, Note_on_c, 7, 61, 0
1, 56227, Note_on_c, 7, 61, 100
1, 56227, Note_on_c, 7, 56, 0
1, 56227, Note_on_c, 7, 49, 100
1, 56227, Note_on_c, 7, 44, 0
1, 56227, Note_on_c, 7, 37, 100
1, 56287, Note_on_c, 3, 49, 0
1, 56287, Note_on_c, 3, 50, 127
1, 56287, Note_on_c, 4, 84, 80
1, 56287, Note_on_c, 4, 78, 80
1, 56287, Note_on_c, 7, 85, 0
1, 56287, Note_on_c, 7, 84, 100
1, 56287, Note_on_c, 7, 77, 0
1, 56287, Note_on_c, 7, 78, 100
1, 56287, Note_on_c, 7, 61, 0
1, 56287, Note_on_c, 7, 62, 100
1, 56287, Note_on_c, 7, 49, 0
1, 56287, Note_on_c, 7, 50, 100
1, 56287, Note_on_c, 7, 37, 0
1, 56287, Note_on_c, 7, 38, 100
1, 56407, Note_on_c, 3, 50, 0
1, 56407, Note_on_c, 3, 54, 127
1, 56407, Note_on_c, 7, 84, 0
1, 56407, Note_on_c, 7, 78, 0
1, 56407, Note_on_c, 7, 50, 0
1, 56407, Note_on_c, 7, 38, 0
1, 56467, Note_on_c, 3, 54, 0
1, 56467, Note_on_c, 3, 57, 127
1, 56587, Note_on_c, 3, 57, 0
1, 56587, Note_on_c, 3, 50, 127
1, 56587, Note_on_c, 7, 50, 100
1, 56587, Note_on_c, 7, 38, 100
1, 56647, Note_on_c, 3, 50, 0
1, 56647, Note_on_c, 3, 49, 127
1, 56647, Note_on_c, 4, 84, 0
1, 56647, Note_on_c, 4, 85, 80
1, 56647, Note_on_c, 4, 78, 0
1, 56647, Note_on_c, 4, 77, 80
1, 56647, Note_on_c, 7, 62, 0
1, 56647, Note_on_c, 7, 61, 100
1, 56647, Note_on_c, 7, 50, 0
1, 56647, Note_on_c, 7, 49, 100
1, 56647, Note_on_c, 7, 38, 0
1, 56647, Note_on_c, 7, 37, 100
1, 56707, Note_on_c, 7, 61, 0
1, 56707, Note_on_c, 7, 49, 0
1, 56707, Note_on_c, 7, 37, 0
1, 56767, Note_on_c, 3, 49, 0
1, 56767, Note_on_c, 4, 85, 0
1, 56767, Note_on_c, 4, 77, 0
1, 56767, Note_on_c, 7, 61, 100
1, 56767, Note_on_c, 7, 49, 100
1, 56767, Note_on_c, 7, 37, 100
1, 56827, Note_on_c, 7, 49, 0
1, 56827, Note_on_c, 7, 49, 100
1, 56827, Note_on_c, 7, 37, 0
1, 56827, Note_on_c, 7, 37, 100
1, 56887, Note_on_c, 7, 49, 0
1, 56887, Note_on_c, 7, 49, 100
1, 56887, Note_on_c, 7, 37, 0
1, 56887, Note_on_c, 7, 37, 100
1, 56947, Note_on_c, 7, 49, 0
1, 56947, Note_on_c, 7, 49, 100
1, 56947, Note_on_c, 7, 37, 0
1, 56947, Note_on_c, 7, 37, 100
1, 57007, Note_on_c, 7, 49, 0
1, 57007, Note_on_c, 7, 49, 100
1, 57007, Note_on_c, 7, 37, 0
1, 57007, Note_on_c, 7, 37, 100
1, 57067, Note_on_c, 7, 61, 0
1, 57067, Note_on_c, 7, 49, 0
1, 57067, Note_on_c, 7, 37, 0
1, 57127, Note_on_c, 4, 91, 80
1, 57127, Note_on_c, 4, 88, 80
1, 57127, Note_on_c, 5, 67, 80
1, 57127, Note_on_c, 5, 64, 80
1, 57127, Note_on_c, 6, 57, 80
1, 57127, Note_on_c, 6, 45, 80
1, 57127, Note_on_c, 7, 69, 100
1, 57127, Note_on_c, 7, 79, 100
1, 57127, Note_on_c, 7, 76, 100
1, 57127, Note_on_c, 7, 73, 100
1, 57127, Note_on_c, 7, 61, 100
1, 57127, Note_on_c, 7, 49, 100
1, 57187, Note_on_c, 4, 91, 0
1, 57187, Note_on_c, 4, 91, 80
1, 57187, Note_on_c, 4, 88, 0
1, 57187, Note_on_c, 4, 88, 80
1, 57187, Note_on_c, 5, 67, 0
1, 57187, Note_on_c, 5, 67, 80
1, 57187, Note_on_c, 5, 64, 0
1, 57187, Note_on_c, 5, 64, 80
1, 57187, Note_on_c, 6, 57, 0
1, 57187, Note_on_c, 6, 57, 80
1, 57187, Note_on_c, 6, 45, 0
1, 57187, Note_on_c, 6, 45, 80
1, 57187, Note_on_c, 7, 79, 0
1, 57187, Note_on_c, 7, 79, 100
1, 57187, Note_on_c, 7, 76, 0
1, 57187, Note_on_c, 7, 76, 100
1, 57187, Note_on_c, 7, 73, 0
1, 57187, Note_on_c, 7, 73, 100
1, 57187, Note_on_c, 7, 61, 0
1, 57187, Note_on_c, 7, 61, 100
1, 57187, Note_on_c, 7, 49, 0
1, 57187, Note_on_c, 7, 49, 100
1, 57247, Note_on_c, 4, 91, 0
1, 57247, Note_on_c, 4, 91, 80
1, 57247, Note_on_c, 4, 88, 0
1, 57247, Note_on_c, 4, 88, 80
1, 57247, Note_on_c, 5, 67, 0
1, 57247, Note_on_c, 5, 67, 80
1, 57247, Note_on_c, 5, 64, 0
1, 57247, Note_on_c, 5, 64, 80
1, 57247, Note_on_c, 6, 57, 0
1, 57247, Note_on_c, 6, 57, 80
1, 57247, Note_on_c, 6, 45, 0
1, 57247, Note_on_c, 6, 45, 80
1, 57247, Note_on_c, 7, 79, 0
1, 57247, Note_on_c, 7, 79, 100
1, 57247, Note_on_c, 7, 76, 0
1, 57247, Note_on_c, 7, 76, 100
1, 57247, Note_on_c, 7, 73, 0
1, 57247, Note_on_c, 7, 73, 100
1, 57247, Note_on_c, 7, 61, 0
1, 57247, Note_on_c, 7, 61, 100
1, 57247, Note_on_c, 7, 49, 0
1, 57247, Note_on_c, 7, 49, 100
1, 57307, Note_on_c, 4, 91, 0
1, 57307, Note_on_c, 4, 91, 80
1, 57307, Note_on_c, 4, 88, 0
1, 57307, Note_on_c, 4, 88, 80
1, 57307, Note_on_c, 5, 67, 0
1, 57307, Note_on_c, 5, 67, 80
1, 57307, Note_on_c, 5, 64, 0
1, 57307, Note_on_c, 5, 64, 80
1, 57307, Note_on_c, 6, 57, 0
1, 57307, Note_on_c, 6, 57, 80
1, 57307, Note_on_c, 6, 45, 0
1, 57307, Note_on_c, 6, 45, 80
1, 57307, Note_on_c, 7, 79, 0
1, 57307, Note_on_c, 7, 79, 100
1, 57307, Note_on_c, 7, 76, 0
1, 57307, Note_on_c, 7, 76, 100
1, 57307, Note_on_c, 7, 73, 0
1, 57307, Note_on_c, 7, 73, 100
1, 57307, Note_on_c, 7, 61, 0
1, 57307, Note_on_c, 7, 61, 100
1, 57307, Note_on_c, 7, 49, 0
1, 57307, Note_on_c, 7, 49, 100
1, 57367, Note_on_c, 3, 45, 127
1, 57367, Note_on_c, 4, 91, 0
1, 57367, Note_on_c, 4, 91, 80
1, 57367, Note_on_c, 4, 88, 0
1, 57367, Note_on_c, 4, 88, 80
1, 57367, Note_on_c, 5, 67, 0
1, 57367, Note_on_c, 5, 67, 80
1, 57367, Note_on_c, 5, 64, 0
1, 57367, Note_on_c, 5, 64, 80
1, 57367, Note_on_c, 6, 57, 0
1, 57367, Note_on_c, 6, 57, 80
1, 57367, Note_on_c, 6, 45, 0
1, 57367, Note_on_c, 6, 45, 80
1, 57367, Note_on_c, 7, 79, 0
1, 57367, Note_on_c, 7, 79, 100
1, 57367, Note_on_c, 7, 76, 0
1, 57367, Note_on_c, 7, 76, 100
1, 57367, Note_on_c, 7, 73, 0
1, 57367, Note_on_c, 7, 73, 100
1, 57367, Note_on_c, 7, 61, 0
1, 57367, Note_on_c, 7, 61, 100
1, 57367, Note_on_c, 7, 49, 0
1, 57367, Note_on_c, 7, 49, 100
1, 57487, Note_on_c, 4, 91, 0
1, 57487, Note_on_c, 4, 88, 0
1, 57487, Note_on_c, 5, 67, 0
1, 57487, Note_on_c, 5, 64, 0
1, 57487, Note_on_c, 6, 57, 0
1, 57487, Note_on_c, 6, 45, 0
1, 57487, Note_on_c, 7, 79, 0
1, 57487, Note_on_c, 7, 69, 0
1, 57487, Note_on_c, 7, 76, 0
1, 57487, Note_on_c, 7, 73, 0
1, 57487, Note_on_c, 7, 61, 0
1, 57487, Note_on_c, 7, 49, 0
1, 57547, Note_on_c, 3, 45, 0
1, 57547, Note_on_c, 3, 79, 127
1, 57727, Note_on_c, 7, 67, 100
1, 57727, Note_on_c, 7, 61, 100
1, 57727, Note_on_c, 7, 64, 100
1, 57727, Note_on_c, 7, 57, 100
1, 57727, Note_on_c, 7, 45, 100
1, 57727, Note_on_c, 7, 33, 100
1, 57757, Note_on_c, 3, 79, 0
1, 57757, Note_on_c, 3, 81, 127
1, 57787, Note_on_c, 3, 81, 0
1, 57787, Note_on_c, 3, 79, 127
1, 57802, Note_on_c, 3, 79, 0
1, 57817, Note_on_c, 3, 78, 127
1, 57832, Note_on_c, 3, 78, 0
1, 57847, Note_on_c, 3, 76, 127
1, 57862, Note_on_c, 3, 76, 0
1, 57877, Note_on_c, 3, 74, 127
1, 57892, Note_on_c, 3, 74, 0
1, 57907, Note_on_c, 3, 73, 127
1, 57922, Note_on_c, 3, 73, 0
1, 57937, Note_on_c, 3, 71, 127
1, 57952, Note_on_c, 3, 71, 0
1, 57967, Note_on_c, 3, 69, 127
1, 57982, Note_on_c, 3, 69, 0
1, 57997, Note_on_c, 3, 67, 127
1, 58012, Note_on_c, 3, 67, 0
1, 58027, Note_on_c, 3, 66, 127
1, 58042, Note_on_c, 3, 66, 0
1, 58057, Note_on_c, 3, 64, 127
1, 58072, Note_on_c, 3, 64, 0
1, 58087, Note_on_c, 3, 62, 127
1, 58087, Note_on_c, 7, 67, 0
1, 58087, Note_on_c, 7, 61, 0
1, 58087, Note_on_c, 7, 64, 0
1, 58087, Note_on_c, 7, 57, 0
1, 58087, Note_on_c, 7, 62, 100
1, 58087, Note_on_c, 7, 45, 0
1, 58087, Note_on_c, 7, 50, 100
1, 58087, Note_on_c, 7, 33, 0
1, 58087, Note_on_c, 7, 38, 100
1, 58147, Note_on_c, 7, 66, 100
1, 58207, Note_on_c, 7, 66, 0
1, 58207, Note_on_c, 7, 67, 100
1, 58207, Note_on_c, 7, 64, 100
1, 58207, Note_on_c, 7, 62, 0
1, 58207, Note_on_c, 7, 50, 0
1, 58207, Note_on_c, 7, 38, 0
1, 58267, Note_on_c, 3, 62, 0
1, 58267, Note_on_c, 3, 50, 127
1, 58267, Note_on_c, 7, 67, 0
1, 58267, Note_on_c, 7, 69, 100
1, 58267, Note_on_c, 7, 64, 0
1, 58267, Note_on_c, 7, 66, 100
1, 58327, Note_on_c, 7, 69, 0
1, 58327, Note_on_c, 7, 69, 100
1, 58327, Note_on_c, 7, 66, 0
1, 58327, Note_on_c, 7, 66, 100
1, 58357, Note_on_c, 7, 69, 0
1, 58357, Note_on_c, 7, 66, 0
1, 58387, Note_on_c, 7, 69, 100
1, 58387, Note_on_c, 7, 66, 100
1, 58417, Note_on_c, 7, 69, 0
1, 58417, Note_on_c, 7, 66, 0
1, 58447, Note_on_c, 3, 50, 0
1, 58447, Note_on_c, 3, 78, 127
1, 58447, Note_on_c, 7, 62, 100
1, 58447, Note_on_c, 7, 50, 100
1, 58447, Note_on_c, 7, 38, 100
1, 58507, Note_on_c, 7, 74, 100
1, 58507, Note_on_c, 7, 66, 100
1, 58567, Note_on_c, 7, 74, 0
1, 58567, Note_on_c, 7, 76, 100
1, 58567, Note_on_c, 7, 66, 0
1, 58567, Note_on_c, 7, 67, 100
1, 58567, Note_on_c, 7, 62, 0
1, 58567, Note_on_c, 7, 50, 0
1, 58567, Note_on_c, 7, 38, 0
1, 58627, Note_on_c, 3, 78, 0
1, 58627, Note_on_c, 3, 50, 127
1, 58627, Note_on_c, 7, 76, 0
1, 58627, Note_on_c, 7, 78, 100
1, 58627, Note_on_c, 7, 67, 0
1, 58627, Note_on_c, 7, 69, 100
1, 58687, Note_on_c, 7, 78, 0
1, 58687, Note_on_c, 7, 78, 100
1, 58687, Note_on_c, 7, 69, 0
1, 58687, Note_on_c, 7, 69, 100
1, 58717, Note_on_c, 7, 78, 0
1, 58717, Note_on_c, 7, 69, 0
1, 58747, Note_on_c, 7, 78, 100
1, 58747, Note_on_c, 7, 69, 100
1, 58777, Note_on_c, 7, 78, 0
1, 58777, Note_on_c, 7, 69, 0
1, 58807, Note_on_c, 3, 50, 0
1, 58807, Note_on_c, 3, 81, 127
1, 58807, Note_on_c, 7, 62, 100
1, 58807, Note_on_c, 7, 50, 100
1, 58807, Note_on_c, 7, 38, 100
1, 58867, Note_on_c, 7, 78, 100
1, 58867, Note_on_c, 7, 74, 100
1, 58927, Note_on_c, 7, 78, 0
1, 58927, Note_on_c, 7, 79, 100
1, 58927, Note_on_c, 7, 74, 0
1, 58927, Note_on_c, 7, 76, 100
1, 58927, Note_on_c, 7, 62, 0
1, 58927, Note_on_c, 7, 50, 0
1, 58927, Note_on_c, 7, 38, 0
1, 58987, Note_on_c, 7, 79, 0
1, 58987, Note_on_c, 7, 81, 100
1, 58987, Note_on_c, 7, 76, 0
1, 58987, Note_on_c, 7, 78, 100
1, 59047, Note_on_c, 3, 81, 0
1, 59047, Note_on_c, 3, 78, 127
1, 59047, Note_on_c, 7, 81, 0
1, 59047, Note_on_c, 7, 76, 100
1, 59047, Note_on_c, 7, 78, 0
1, 59107, Note_on_c, 3, 78, 0
1, 59107, Note_on_c, 3, 74, 127
1, 59107, Note_on_c, 7, 76, 0
1, 59107, Note_on_c, 7, 66, 100
1, 59107, Note_on_c, 7, 62, 100
1, 59167, Note_on_c, 3, 74, 0
1, 59167, Note_on_c, 3, 73, 127
1, 59167, Note_on_c, 7, 66, 0
1, 59167, Note_on_c, 7, 64, 100
1, 59167, Note_on_c, 7, 62, 0
1, 59167, Note_on_c, 7, 61, 100
1, 59167, Note_on_c, 7, 57, 100
1, 59167, Note_on_c, 7, 45, 100
1, 59167, Note_on_c, 7, 33, 100
1, 59227, Note_on_c, 3, 73, 0
1, 59227, Note_on_c, 3, 74, 127
1, 59227, Note_on_c, 7, 64, 0
1, 59227, Note_on_c, 7, 61, 0
1, 59287, Note_on_c, 3, 74, 0
1, 59287, Note_on_c, 3, 75, 127
1, 59287, Note_on_c, 7, 57, 0
1, 59287, Note_on_c, 7, 45, 0
1, 59287, Note_on_c, 7, 33, 0
1, 59347, Note_on_c, 3, 75, 0
1, 59347, Note_on_c, 3, 76, 127
1, 59347, Note_on_c, 7, 73, 100
1, 59347, Note_on_c, 7, 69, 100
1, 59407, Note_on_c, 3, 76, 0
1, 59407, Note_on_c, 7, 73, 0
1, 59407, Note_on_c, 7, 74, 100
1, 59407, Note_on_c, 7, 69, 0
1, 59407, Note_on_c, 7, 71, 100
1, 59467, Note_on_c, 7, 74, 0
1, 59467, Note_on_c, 7, 75, 100
1, 59467, Note_on_c, 7, 71, 0
1, 59467, Note_on_c, 7, 72, 100
1, 59527, Note_on_c, 3, 69, 127
1, 59527, Note_on_c, 7, 75, 0
1, 59527, Note_on_c, 7, 76, 100
1, 59527, Note_on_c, 7, 72, 0
1, 59527, Note_on_c, 7, 73, 100
1, 59527, Note_on_c, 7, 57, 100
1, 59527, Note_on_c, 7, 45, 100
1, 59527, Note_on_c, 7, 33, 100
1, 59587, Note_on_c, 7, 76, 0
1, 59587, Note_on_c, 7, 69, 100
1, 59587, Note_on_c, 7, 73, 0
1, 59587, Note_on_c, 7, 61, 100
1, 59647, Note_on_c, 7, 69, 0
1, 59647, Note_on_c, 7, 71, 100
1, 59647, Note_on_c, 7, 61, 0
1, 59647, Note_on_c, 7, 62, 100
1, 59647, Note_on_c, 7, 57, 0
1, 59647, Note_on_c, 7, 45, 0
1, 59647, Note_on_c, 7, 33, 0
1, 59707, Note_on_c, 3, 69, 0
1, 59707, Note_on_c, 3, 45, 127
1, 59707, Note_on_c, 7, 71, 0
1, 59707, Note_on_c, 7, 73, 100
1, 59707, Note_on_c, 7, 62, 0
1, 59707, Note_on_c, 7, 64, 100
1, 59767, Note_on_c, 7, 73, 0
1, 59767, Note_on_c, 7, 73, 100
1, 59767, Note_on_c, 7, 64, 0
1, 59767, Note_on_c, 7, 64, 100
1, 59797, Note_on_c, 7, 73, 0
1, 59797, Note_on_c, 7, 64, 0
1, 59827, Note_on_c, 7, 73, 100
1, 59827, Note_on_c, 7, 64, 100
1, 59857, Note_on_c, 7, 73, 0
1, 59857, Note_on_c, 7, 64, 0
1, 59887, Note_on_c, 3, 45, 0
1, 59887, Note_on_c, 3, 73, 127
1, 59887, Note_on_c, 7, 57, 100
1, 59887, Note_on_c, 7, 45, 100
1, 59887, Note_on_c, 7, 33, 100
1, 59947, Note_on_c, 7, 73, 100
1, 59947, Note_on_c, 7, 69, 100
1, 60007, Note_on_c, 7, 73, 0
1, 60007, Note_on_c, 7, 74, 100
1, 60007, Note_on_c, 7, 69, 0
1, 60007, Note_on_c, 7, 71, 100
1, 60007, Note_on_c, 7, 57, 0
1, 60007, Note_on_c, 7, 45, 0
1, 60007, Note_on_c, 7, 33, 0
1, 60067, Note_on_c, 3, 73, 0
1, 60067, Note_on_c, 3, 45, 127
1, 60067, Note_on_c, 7, 74, 0
1, 60067, Note_on_c, 7, 76, 100
1, 60067, Note_on_c, 7, 71, 0
1, 60067, Note_on_c, 7, 73, 100
1, 60127, Note_on_c, 7, 76, 0
1, 60127, Note_on_c, 7, 76, 100
1, 60127, Note_on_c, 7, 73, 0
1, 60127, Note_on_c, 7, 73, 100
1, 60157, Note_on_c, 7, 76, 0
1, 60157, Note_on_c, 7, 73, 0
1, 60187, Note_on_c, 7, 76, 100
1, 60187, Note_on_c, 7, 73, 100
1, 60217, Note_on_c, 7, 76, 0
1, 60217, Note_on_c, 7, 73, 0
1, 60247, Note_on_c, 3, 45, 0
1, 60247, Note_on_c, 3, 79, 127
1, 60247, Note_on_c, 7, 57, 100
1, 60247, Note_on_c, 7, 45, 100
1, 60247, Note_on_c, 7, 33, 100
1, 60307, Note_on_c, 7, 76, 100
1, 60307, Note_on_c, 7, 73, 100
1, 60367, Note_on_c, 7, 76, 0
1, 60367, Note_on_c, 7, 78, 100
1, 60367, Note_on_c, 7, 73, 0
1, 60367, Note_on_c, 7, 74, 100
1, 60367, Note_on_c, 7, 57, 0
1, 60367, Note_on_c, 7, 45, 0
1, 60367, Note_on_c, 7, 33, 0
1, 60427, Note_on_c, 3, 79, 0
1, 60427, Note_on_c, 3, 81, 127
1, 60427, Note_on_c, 7, 78, 0
1, 60427, Note_on_c, 7, 79, 100
1, 60427, Note_on_c, 7, 74, 0
1, 60427, Note_on_c, 7, 76, 100
1, 60457, Note_on_c, 3, 81, 0
1, 60457, Note_on_c, 3, 79, 127
1, 60487, Note_on_c, 3, 79, 0
1, 60487, Note_on_c, 3, 78, 127
1, 60487, Note_on_c, 7, 79, 0
1, 60487, Note_on_c, 7, 76, 0
1, 60517, Note_on_c, 3, 78, 0
1, 60517, Note_on_c, 3, 76, 127
1, 60547, Note_on_c, 3, 76, 0
1, 60547, Note_on_c, 3, 74, 127
1, 60547, Note_on_c, 7, 64, 100
1, 60547, Note_on_c, 7, 61, 100
1, 60577, Note_on_c, 3, 74, 0
1, 60577, Note_on_c, 3, 73, 127
1, 60607, Note_on_c, 3, 73, 0
1, 60607, Note_on_c, 3, 74, 127
1, 60607, Note_on_c, 7, 64, 0
1, 60607, Note_on_c, 7, 66, 100
1, 60607, Note_on_c, 7, 61, 0
1, 60607, Note_on_c, 7, 62, 100
1, 60607, Note_on_c, 7, 50, 100
1, 60607, Note_on_c, 7, 38, 100
1, 60667, Note_on_c, 3, 74, 0
1, 60667, Note_on_c, 3, 76, 127
1, 60667, Note_on_c, 7, 66, 0
1, 60727, Note_on_c, 3, 76, 0
1, 60727, Note_on_c, 3, 77, 127
1, 60727, Note_on_c, 7, 62, 0
1, 60727, Note_on_c, 7, 50, 0
1, 60727, Note_on_c, 7, 38, 0
1, 60787, Note_on_c, 3, 77, 0
1, 60787, Note_on_c, 3, 78, 127
1, 60787, Note_on_c, 7, 78, 100
1, 60787, Note_on_c, 7, 74, 100
1, 60817, Note_on_c, 7, 78, 0
1, 60817, Note_on_c, 7, 74, 0
1, 60847, Note_on_c, 3, 78, 0
1, 60847, Note_on_c, 7, 79, 100
1, 60847, Note_on_c, 7, 76, 100
1, 60877, Note_on_c, 7, 79, 0
1, 60877, Note_on_c, 7, 76, 0
1, 60907, Note_on_c, 7, 81, 100
1, 60907, Note_on_c, 7, 78, 100
1, 60937, Note_on_c, 7, 81, 0
1, 60937, Note_on_c, 7, 78, 0
1, 60967, Note_on_c, 4, 71, 80
1, 60967, Note_on_c, 4, 67, 80
1, 60967, Note_on_c, 7, 83, 100
1, 60967, Note_on_c, 7, 79, 100
1, 60967, Note_on_c, 7, 67, 100
1, 60967, Note_on_c, 7, 55, 100
1, 60967, Note_on_c, 7, 43, 100
1, 61027, Note_on_c, 3, 55, 127
1, 61087, Note_on_c, 3, 55, 0
1, 61087, Note_on_c, 3, 54, 127
1, 61087, Note_on_c, 7, 83, 0
1, 61087, Note_on_c, 7, 79, 0
1, 61087, Note_on_c, 7, 67, 0
1, 61087, Note_on_c, 7, 55, 0
1, 61087, Note_on_c, 7, 43, 0
1, 61147, Note_on_c, 3, 54, 0
1, 61147, Note_on_c, 3, 52, 127
1, 61207, Note_on_c, 3, 52, 0
1, 61207, Note_on_c, 3, 55, 127
1, 61267, Note_on_c, 3, 55, 0
1, 61267, Note_on_c, 3, 50, 127
1, 61327, Note_on_c, 3, 50, 0
1, 61327, Note_on_c, 3, 49, 127
1, 61327, Note_on_c, 5, 64, 80
1, 61327, Note_on_c, 5, 61, 80
1, 61327, Note_on_c, 7, 61, 100
1, 61327, Note_on_c, 7, 49, 100
1, 61387, Note_on_c, 3, 49, 0
1, 61387, Note_on_c, 7, 83, 100
1, 61387, Note_on_c, 7, 76, 100
1, 61387, Note_on_c, 7, 79, 100
1, 61387, Note_on_c, 7, 73, 100
1, 61447, Note_on_c, 7, 83, 0
1, 61447, Note_on_c, 7, 83, 100
1, 61447, Note_on_c, 7, 76, 0
1, 61447, Note_on_c, 7, 79, 0
1, 61447, Note_on_c, 7, 76, 100
1, 61447, Note_on_c, 7, 79, 100
1, 61447, Note_on_c, 7, 73, 0
1, 61447, Note_on_c, 7, 73, 100
1, 61447, Note_on_c, 7, 61, 0
1, 61447, Note_on_c, 7, 49, 0
1, 61507, Note_on_c, 3, 76, 127
1, 61507, Note_on_c, 7, 83, 0
1, 61507, Note_on_c, 7, 83, 100
1, 61507, Note_on_c, 7, 76, 0
1, 61507, Note_on_c, 7, 79, 0
1, 61507, Note_on_c, 7, 76, 100
1, 61507, Note_on_c, 7, 79, 100
1, 61507, Note_on_c, 7, 73, 0
1, 61507, Note_on_c, 7, 73, 100
1, 61537, Note_on_c, 3, 76, 0
1, 61537, Note_on_c, 3, 78, 127
1, 61567, Note_on_c, 3, 78, 0
1, 61567, Note_on_c, 3, 79, 127
1, 61567, Note_on_c, 7, 83, 0
1, 61567, Note_on_c, 7, 83, 100
1, 61567, Note_on_c, 7, 76, 0
1, 61567, Note_on_c, 7, 79, 0
1, 61567, Note_on_c, 7, 76, 100
1, 61567, Note_on_c, 7, 79, 100
1, 61567, Note_on_c, 7, 73, 0
1, 61567, Note_on_c, 7, 73, 100
1, 61597, Note_on_c, 3, 79, 0
1, 61597, Note_on_c, 3, 81, 127
1, 61627, Note_on_c, 3, 81, 0
1, 61627, Note_on_c, 3, 83, 127
1, 61627, Note_on_c, 7, 83, 0
1, 61627, Note_on_c, 7, 83, 100
1, 61627, Note_on_c, 7, 76, 0
1, 61627, Note_on_c, 7, 79, 0
1, 61627, Note_on_c, 7, 76, 100
1, 61627, Note_on_c, 7, 79, 100
1, 61627, Note_on_c, 7, 73, 0
1, 61627, Note_on_c, 7, 73, 100
1, 61687, Note_on_c, 3, 83, 0
1, 61687, Note_on_c, 4, 71, 0
1, 61687, Note_on_c, 4, 69, 80
1, 61687, Note_on_c, 4, 67, 0
1, 61687, Note_on_c, 4, 66, 80
1, 61687, Note_on_c, 5, 64, 0
1, 61687, Note_on_c, 5, 66, 80
1, 61687, Note_on_c, 5, 61, 0
1, 61687, Note_on_c, 5, 54, 80
1, 61687, Note_on_c, 7, 83, 0
1, 61687, Note_on_c, 7, 81, 100
1, 61687, Note_on_c, 7, 76, 0
1, 61687, Note_on_c, 7, 79, 0
1, 61687, Note_on_c, 7, 78, 100
1, 61687, Note_on_c, 7, 73, 0
1, 61687, Note_on_c, 7, 66, 100
1, 61687, Note_on_c, 7, 54, 100
1, 61687, Note_on_c, 7, 42, 100
1, 61747, Note_on_c, 3, 54, 127
1, 61807, Note_on_c, 3, 54, 0
1, 61807, Note_on_c, 3, 52, 127
1, 61807, Note_on_c, 5, 66, 0
1, 61807, Note_on_c, 5, 54, 0
1, 61807, Note_on_c, 7, 81, 0
1, 61807, Note_on_c, 7, 78, 0
1, 61807, Note_on_c, 7, 66, 0
1, 61807, Note_on_c, 7, 54, 0
1, 61807, Note_on_c, 7, 42, 0
1, 61867, Note_on_c, 3, 52, 0
1, 61867, Note_on_c, 3, 50, 127
1, 61927, Note_on_c, 3, 50, 0
1, 61927, Note_on_c, 3, 54, 127
1, 61987, Note_on_c, 3, 54, 0
1, 61987, Note_on_c, 3, 49, 127
1, 62047, Note_on_c, 3, 49, 0
1, 62047, Note_on_c, 3, 47, 127
1, 62047, Note_on_c, 5, 62, 80
1, 62047, Note_on_c, 5, 59, 80
1, 62047, Note_on_c, 7, 59, 100
1, 62047, Note_on_c, 7, 47, 100
1, 62107, Note_on_c, 3, 47, 0
1, 62107, Note_on_c, 7, 81, 100
1, 62107, Note_on_c, 7, 74, 100
1, 62107, Note_on_c, 7, 78, 100
1, 62107, Note_on_c, 7, 71, 100
1, 62167, Note_on_c, 7, 81, 0
1, 62167, Note_on_c, 7, 81, 100
1, 62167, Note_on_c, 7, 74, 0
1, 62167, Note_on_c, 7, 78, 0
1, 62167, Note_on_c, 7, 74, 100
1, 62167, Note_on_c, 7, 78, 100
1, 62167, Note_on_c, 7, 71, 0
1, 62167, Note_on_c, 7, 71, 100
1, 62167, Note_on_c, 7, 59, 0
1, 62167, Note_on_c, 7, 47, 0
1, 62227, Note_on_c, 3, 74, 127
1, 62227, Note_on_c, 7, 81, 0
1, 62227, Note_on_c, 7, 81, 100
1, 62227, Note_on_c, 7, 74, 0
1, 62227, Note_on_c, 7, 78, 0
1, 62227, Note_on_c, 7, 74, 100
1, 62227, Note_on_c, 7, 78, 100
1, 62227, Note_on_c, 7, 71, 0
1, 62227, Note_on_c, 7, 71, 100
1, 62257, Note_on_c, 3, 74, 0
1, 62257, Note_on_c, 3, 76, 127
1, 62287, Note_on_c, 3, 76, 0
1, 62287, Note_on_c, 3, 78, 127
1, 62287, Note_on_c, 7, 81, 0
1, 62287, Note_on_c, 7, 81, 100
1, 62287, Note_on_c, 7, 74, 0
1, 62287, Note_on_c, 7, 78, 0
1, 62287, Note_on_c, 7, 74, 100
1, 62287, Note_on_c, 7, 78, 100
1, 62287, Note_on_c, 7, 71, 0
1, 62287, Note_on_c, 7, 71, 100
1, 62317, Note_on_c, 3, 78, 0
1, 62317, Note_on_c, 3, 79, 127
1, 62347, Note_on_c, 3, 79, 0
1, 62347, Note_on_c, 3, 81, 127
1, 62347, Note_on_c, 7, 81, 0
1, 62347, Note_on_c, 7, 81, 100
1, 62347, Note_on_c, 7, 74, 0
1, 62347, Note_on_c, 7, 78, 0
1, 62347, Note_on_c, 7, 74, 100
1, 62347, Note_on_c, 7, 78, 100
1, 62347, Note_on_c, 7, 71, 0
1, 62347, Note_on_c, 7, 71, 100
1, 62407, Note_on_c, 3, 81, 0
1, 62407, Note_on_c, 4, 69, 0
1, 62407, Note_on_c, 4, 67, 80
1, 62407, Note_on_c, 4, 66, 0
1, 62407, Note_on_c, 4, 64, 80
1, 62407, Note_on_c, 5, 62, 0
1, 62407, Note_on_c, 5, 64, 80
1, 62407, Note_on_c, 5, 59, 0
1, 62407, Note_on_c, 5, 52, 80
1, 62407, Note_on_c, 7, 81, 0
1, 62407, Note_on_c, 7, 79, 100
1, 62407, Note_on_c, 7, 74, 0
1, 62407, Note_on_c, 7, 78, 0
1, 62407, Note_on_c, 7, 78, 100
1, 62407, Note_on_c, 7, 71, 0
1, 62407, Note_on_c, 7, 64, 100
1, 62407, Note_on_c, 7, 52, 100
1, 62407, Note_on_c, 7, 40, 100
1, 62467, Note_on_c, 3, 52, 127
1, 62527, Note_on_c, 3, 52, 0
1, 62527, Note_on_c, 3, 50, 127
1, 62527, Note_on_c, 5, 64, 0
1, 62527, Note_on_c, 5, 52, 0
1, 62527, Note_on_c, 7, 79, 0
1, 62527, Note_on_c, 7, 78, 0
1, 62527, Note_on_c, 7, 64, 0
1, 62527, Note_on_c, 7, 52, 0
1, 62527, Note_on_c, 7, 40, 0
1, 62587, Note_on_c, 3, 50, 0
1, 62587, Note_on_c, 3, 49, 127
1, 62647, Note_on_c, 3, 49, 0
1, 62647, Note_on_c, 3, 52, 127
1, 62707, Note_on_c, 3, 52, 0
1, 62707, Note_on_c, 3, 47, 127
1, 62767, Note_on_c, 3, 47, 0
1, 62767, Note_on_c, 3, 45, 127
1, 62767, Note_on_c, 5, 61, 80
1, 62767, Note_on_c, 5, 57, 80
1, 62767, Note_on_c, 7, 57, 100
1, 62767, Note_on_c, 7, 45, 100
1, 62827, Note_on_c, 3, 45, 0
1, 62827, Note_on_c, 7, 79, 100
1, 62827, Note_on_c, 7, 73, 100
1, 62827, Note_on_c, 7, 76, 100
1, 62827, Note_on_c, 7, 69, 100
1, 62887, Note_on_c, 7, 79, 0
1, 62887, Note_on_c, 7, 79, 100
1, 62887, Note_on_c, 7, 73, 0
1, 62887, Note_on_c, 7, 76, 0
1, 62887, Note_on_c, 7, 73, 100
1, 62887, Note_on_c, 7, 76, 100
1, 62887, Note_on_c, 7, 69, 0
1, 62887, Note_on_c, 7, 69, 100
1, 62887, Note_on_c, 7, 57, 0
1, 62887, Note_on_c, 7, 45, 0
1, 62947, Note_on_c, 3, 73, 127
1, 62947, Note_on_c, 7, 79, 0
1, 62947, Note_on_c, 7, 79, 100
1, 62947, Note_on_c, 7, 73, 0
1, 62947, Note_on_c, 7, 76, 0
1, 62947, Note_on_c, 7, 73, 100
1, 62947, Note_on_c, 7, 76, 100
1, 62947, Note_on_c, 7, 69, 0
1, 62947, Note_on_c, 7, 69, 100
1, 62977, Note_on_c, 3, 73, 0
1, 62977, Note_on_c, 3, 74, 127
1, 63007, Note_on_c, 3, 74, 0
1, 63007, Note_on_c, 3, 76, 127
1, 63007, Note_on_c, 7, 79, 0
1, 63007, Note_on_c, 7, 79, 100
1, 63007, Note_on_c, 7, 73, 0
1, 63007, Note_on_c, 7, 76, 0
1, 63007, Note_on_c, 7, 73, 100
1, 63007, Note_on_c, 7, 76, 100
1, 63007, Note_on_c, 7, 69, 0
1, 63007, Note_on_c, 7, 69, 100
1, 63037, Note_on_c, 3, 76, 0
1, 63037, Note_on_c, 3, 78, 127
1, 63067, Note_on_c, 3, 78, 0
1, 63067, Note_on_c, 3, 79, 127
1, 63067, Note_on_c, 7, 79, 0
1, 63067, Note_on_c, 7, 79, 100
1, 63067, Note_on_c, 7, 73, 0
1, 63067, Note_on_c, 7, 76, 0
1, 63067, Note_on_c, 7, 73, 100
1, 63067, Note_on_c, 7, 76, 100
1, 63067, Note_on_c, 7, 69, 0
1, 63067, Note_on_c, 7, 69, 100
1, 63097, Note_on_c, 3, 79, 0
1, 63097, Note_on_c, 3, 76, 127
1, 63127, Note_on_c, 3, 76, 0
1, 63127, Note_on_c, 3, 78, 127
1, 63127, Note_on_c, 4, 67, 0
1, 63127, Note_on_c, 4, 66, 80
1, 63127, Note_on_c, 4, 64, 0
1, 63127, Note_on_c, 4, 62, 80
1, 63127, Note_on_c, 5, 61, 0
1, 63127, Note_on_c, 5, 62, 80
1, 63127, Note_on_c, 5, 57, 0
1, 63127, Note_on_c, 5, 50, 80
1, 63127, Note_on_c, 7, 79, 0
1, 63127, Note_on_c, 7, 78, 100
1, 63127, Note_on_c, 7, 73, 0
1, 63127, Note_on_c, 7, 76, 0
1, 63127, Note_on_c, 7, 74, 100
1, 63127, Note_on_c, 7, 69, 0
1, 63127, Note_on_c, 7, 62, 100
1, 63127, Note_on_c, 7, 50, 100
1, 63127, Note_on_c, 7, 38, 100
1, 63157, Note_on_c, 3, 78, 0
1, 63157, Note_on_c, 3, 74, 127
1, 63187, Note_on_c, 3, 74, 0
1, 63187, Note_on_c, 3, 73, 127
1, 63187, Note_on_c, 7, 78, 0
1, 63187, Note_on_c, 7, 66, 100
1, 63187, Note_on_c, 7, 74, 0
1, 63187, Note_on_c, 7, 50, 0
1, 63187, Note_on_c, 7, 38, 0
1, 63217, Note_on_c, 3, 73, 0
1, 63217, Note_on_c, 3, 74, 127
1, 63247, Note_on_c, 3, 74, 0
1, 63247, Note_on_c, 3, 76, 127
1, 63247, Note_on_c, 4, 66, 0
1, 63247, Note_on_c, 4, 62, 0
1, 63247, Note_on_c, 5, 62, 0
1, 63247, Note_on_c, 5, 50, 0
1, 63247, Note_on_c, 7, 66, 0
1, 63247, Note_on_c, 7, 66, 100
1, 63247, Note_on_c, 7, 62, 0
1, 63247, Note_on_c, 7, 62, 100
1, 63277, Note_on_c, 3, 76, 0
1, 63277, Note_on_c, 3, 78, 127
1, 63307, Note_on_c, 3, 78, 0
1, 63307, Note_on_c, 3, 79, 127
1, 63307, Note_on_c, 7, 66, 0
1, 63307, Note_on_c, 7, 62, 0
1, 63307, Note_on_c, 7, 62, 100
1, 63307, Note_on_c, 7, 50, 100
1, 63307, Note_on_c, 7, 38, 100
1, 63337, Note_on_c, 3, 79, 0
1, 63337, Note_on_c, 3, 76, 127
1, 63367, Note_on_c, 3, 76, 0
1, 63367, Note_on_c, 3, 74, 127
1, 63367, Note_on_c, 7, 67, 100
1, 63367, Note_on_c, 7, 64, 100
1, 63367, Note_on_c, 7, 62, 0
1, 63367, Note_on_c, 7, 50, 0
1, 63367, Note_on_c, 7, 38, 0
1, 63397, Note_on_c, 3, 74, 0
1, 63397, Note_on_c, 3, 76, 127
1, 63427, Note_on_c, 3, 76, 0
1, 63427, Note_on_c, 3, 78, 127
1, 63427, Note_on_c, 7, 67, 0
1, 63427, Note_on_c, 7, 67, 100
1, 63427, Note_on_c, 7, 64, 0
1, 63427, Note_on_c, 7, 64, 100
1, 63457, Note_on_c, 3, 78, 0
1, 63457, Note_on_c, 3, 79, 127
1, 63487, Note_on_c, 3, 79, 0
1, 63487, Note_on_c, 3, 81, 127
1, 63487, Note_on_c, 7, 67, 0
1, 63487, Note_on_c, 7, 64, 0
1, 63487, Note_on_c, 7, 62, 100
1, 63487, Note_on_c, 7, 50, 100
1, 63487, Note_on_c, 7, 38, 100
1, 63517, Note_on_c, 3, 81, 0
1, 63517, Note_on_c, 3, 78, 127
1, 63547, Note_on_c, 3, 78, 0
1, 63547, Note_on_c, 3, 74, 127
1, 63547, Note_on_c, 7, 69, 100
1, 63547, Note_on_c, 7, 66, 100
1, 63547, Note_on_c, 7, 62, 0
1, 63547, Note_on_c, 7, 50, 0
1, 63547, Note_on_c, 7, 38, 0
1, 63577, Note_on_c, 3, 74, 0
1, 63577, Note_on_c, 3, 69, 127
1, 63607, Note_on_c, 3, 69, 0
1, 63607, Note_on_c, 3, 66, 127
1, 63607, Note_on_c, 7, 69, 0
1, 63607, Note_on_c, 7, 69, 100
1, 63607, Note_on_c, 7, 66, 0
1, 63607, Note_on_c, 7, 66, 100
1, 63637, Note_on_c, 3, 66, 0
1, 63637, Note_on_c, 3, 62, 127
1, 63667, Note_on_c, 3, 62, 0
1, 63667, Note_on_c, 3, 64, 127
1, 63667, Note_on_c, 7, 69, 0
1, 63667, Note_on_c, 7, 66, 0
1, 63667, Note_on_c, 7, 55, 100
1, 63667, Note_on_c, 7, 43, 100
1, 63697, Note_on_c, 3, 64, 0
1, 63697, Note_on_c, 3, 67, 127
1, 63727, Note_on_c, 3, 67, 0
1, 63727, Note_on_c, 3, 71, 127
1, 63727, Note_on_c, 7, 67, 100
1, 63727, Note_on_c, 7, 64, 100
1, 63727, Note_on_c, 7, 55, 0
1, 63727, Note_on_c, 7, 43, 0
1, 63757, Note_on_c, 3, 71, 0
1, 63757, Note_on_c, 3, 76, 127
1, 63787, Note_on_c, 3, 76, 0
1, 63787, Note_on_c, 3, 79, 127
1, 63787, Note_on_c, 7, 67, 0
1, 63787, Note_on_c, 7, 67, 100
1, 63787, Note_on_c, 7, 64, 0
1, 63787, Note_on_c, 7, 64, 100
1, 63817, Note_on_c, 3, 79, 0
1, 63817, Note_on_c, 3, 83, 127
1, 63847, Note_on_c, 3, 83, 0
1, 63847, Note_on_c, 3, 69, 127
1, 63847, Note_on_c, 7, 67, 0
1, 63847, Note_on_c, 7, 64, 0
1, 63847, Note_on_c, 7, 57, 100
1, 63847, Note_on_c, 7, 45, 100
1, 63877, Note_on_c, 3, 69, 0
1, 63877, Note_on_c, 3, 74, 127
1, 63907, Note_on_c, 3, 74, 0
1, 63907, Note_on_c, 3, 78, 127
1, 63907, Note_on_c, 7, 66, 100
1, 63907, Note_on_c, 7, 62, 100
1, 63907, Note_on_c, 7, 57, 0
1, 63907, Note_on_c, 7, 45, 0
1, 63937, Note_on_c, 3, 78, 0
1, 63937, Note_on_c, 3, 81, 127
1, 63967, Note_on_c, 3, 81, 0
1, 63967, Note_on_c, 3, 78, 127
1, 63967, Note_on_c, 7, 66, 0
1, 63967, Note_on_c, 7, 66, 100
1, 63967, Note_on_c, 7, 62, 0
1, 63967, Note_on_c, 7, 62, 100
1, 63997, Note_on_c, 3, 78, 0
1, 63997, Note_on_c, 3, 74, 127
1, 64027, Note_on_c, 3, 74, 0
1, 64027, Note_on_c, 3, 76, 127
1, 64027, Note_on_c, 7, 66, 0
1, 64027, Note_on_c, 7, 64, 100
1, 64027, Note_on_c, 7, 62, 0
1, 64027, Note_on_c, 7, 61, 100
1, 64027, Note_on_c, 7, 57, 100
1, 64027, Note_on_c, 7, 45, 100
1, 64027, Note_on_c, 7, 33, 100
1, 64042, Note_on_c, 3, 76, 0
1, 64042, Note_on_c, 3, 78, 127
1, 64057, Note_on_c, 3, 78, 0
1, 64057, Note_on_c, 3, 76, 127
1, 64072, Note_on_c, 3, 76, 0
1, 64072, Note_on_c, 3, 78, 127
1, 64087, Note_on_c, 3, 78, 0
1, 64087, Note_on_c, 3, 76, 127
1, 64087, Note_on_c, 7, 64, 0
1, 64087, Note_on_c, 7, 61, 0
1, 64087, Note_on_c, 7, 57, 0
1, 64087, Note_on_c, 7, 45, 0
1, 64087, Note_on_c, 7, 33, 0
1, 64102, Note_on_c, 3, 76, 0
1, 64102, Note_on_c, 3, 78, 127
1, 64117, Note_on_c, 3, 78, 0
1, 64117, Note_on_c, 3, 76, 127
1, 64132, Note_on_c, 3, 76, 0
1, 64132, Note_on_c, 3, 78, 127
1, 64147, Note_on_c, 3, 78, 0
1, 64147, Note_on_c, 3, 76, 127
1, 64147, Note_on_c, 7, 69, 100
1, 64162, Note_on_c, 3, 76, 0
1, 64162, Note_on_c, 3, 78, 127
1, 64177, Note_on_c, 3, 78, 0
1, 64177, Note_on_c, 3, 74, 127
1, 64192, Note_on_c, 3, 74, 0
1, 64192, Note_on_c, 3, 76, 127
1, 64207, Note_on_c, 3, 76, 0
1, 64207, Note_on_c, 3, 74, 127
1, 64207, Note_on_c, 7, 81, 100
1, 64207, Note_on_c, 7, 69, 0
1, 64207, Note_on_c, 7, 78, 100
1, 64207, Note_on_c, 7, 62, 100
1, 64207, Note_on_c, 7, 50, 100
1, 64207, Note_on_c, 7, 38, 100
1, 64237, Note_on_c, 7, 81, 0
1, 64237, Note_on_c, 7, 78, 0
1, 64327, Note_on_c, 3, 74, 0
1, 64327, Note_on_c, 7, 81, 100
1, 64327, Note_on_c, 7, 78, 100
1, 64327, Note_on_c, 7, 62, 0
1, 64327, Note_on_c, 7, 50, 0
1, 64327, Note_on_c, 7, 38, 0
1, 64357, Note_on_c, 7, 81, 0
1, 64357, Note_on_c, 7, 78, 0
1, 64387, Note_on_c, 7, 83, 100
1, 64387, Note_on_c, 7, 79, 100
1, 64417, Note_on_c, 7, 83, 0
1, 64417, Note_on_c, 7, 81, 100
1, 64417, Note_on_c, 7, 79, 0
1, 64417, Note_on_c, 7, 78, 100
1, 64447, Note_on_c, 7, 81, 0
1, 64447, Note_on_c, 7, 80, 100
1, 64447, Note_on_c, 7, 78, 0
1, 64447, Note_on_c, 7, 77, 100
1, 64477, Note_on_c, 7, 80, 0
1, 64477, Note_on_c, 7, 81, 100
1, 64477, Note_on_c, 7, 77, 0
1, 64477, Note_on_c, 7, 78, 100
1, 64507, Note_on_c, 7, 81, 0
1, 64507, Note_on_c, 7, 83, 100
1, 64507, Note_on_c, 7, 78, 0
1, 64507, Note_on_c, 7, 79, 100
1, 64537, Note_on_c, 7, 83, 0
1, 64537, Note_on_c, 7, 81, 100
1, 64537, Note_on_c, 7, 79, 0
1, 64537, Note_on_c, 7, 78, 100
1, 64567, Note_on_c, 7, 81, 0
1, 64567, Note_on_c, 7, 79, 100
1, 64567, Note_on_c, 7, 78, 0
1, 64567, Note_on_c, 7, 78, 100
1, 64627, Note_on_c, 7, 69, 100
1, 64687, Note_on_c, 7, 69, 0
1, 64687, Note_on_c, 7, 70, 100
1, 64747, Note_on_c, 7, 78, 0
1, 64747, Note_on_c, 7, 76, 100
1, 64747, Note_on_c, 7, 70, 0
1, 64747, Note_on_c, 7, 71, 100
1, 64807, Note_on_c, 7, 71, 0
1, 64807, Note_on_c, 7, 72, 100
1, 64867, Note_on_c, 3, 69, 127
1, 64867, Note_on_c, 7, 72, 0
1, 64867, Note_on_c, 7, 73, 100
1, 64897, Note_on_c, 3, 69, 0
1, 64927, Note_on_c, 3, 78, 127
1, 64927, Note_on_c, 7, 79, 0
1, 64927, Note_on_c, 7, 78, 100
1, 64927, Note_on_c, 7, 76, 0
1, 64927, Note_on_c, 7, 74, 100
1, 64927, Note_on_c, 7, 73, 0
1, 64957, Note_on_c, 3, 78, 0
1, 64987, Note_on_c, 7, 78, 0
1, 65047, Note_on_c, 3, 78, 127
1, 65077, Note_on_c, 3, 78, 0
1, 65077, Note_on_c, 7, 74, 0
1, 65107, Note_on_c, 3, 79, 127
1, 65107, Note_on_c, 7, 76, 100
1, 65137, Note_on_c, 3, 79, 0
1, 65137, Note_on_c, 3, 78, 127
1, 65137, Note_on_c, 7, 76, 0
1, 65137, Note_on_c, 7, 74, 100
1, 65167, Note_on_c, 3, 78, 0
1, 65167, Note_on_c, 3, 77, 127
1, 65167, Note_on_c, 7, 74, 0
1, 65167, Note_on_c, 7, 73, 100
1, 65197, Note_on_c, 3, 77, 0
1, 65197, Note_on_c, 3, 78, 127
1, 65197, Note_on_c, 7, 73, 0
1, 65197, Note_on_c, 7, 74, 100
1, 65227, Note_on_c, 3, 78, 0
1, 65227, Note_on_c, 3, 79, 127
1, 65227, Note_on_c, 7, 74, 0
1, 65227, Note_on_c, 7, 76, 100
1, 65257, Note_on_c, 3, 79, 0
1, 65257, Note_on_c, 3, 78, 127
1, 65257, Note_on_c, 7, 76, 0
1, 65257, Note_on_c, 7, 74, 100
1, 65287, Note_on_c, 3, 78, 0
1, 65287, Note_on_c, 3, 76, 127
1, 65287, Note_on_c, 7, 74, 0
1, 65287, Note_on_c, 7, 74, 100
1, 65347, Note_on_c, 7, 66, 100
1, 65407, Note_on_c, 7, 66, 0
1, 65407, Note_on_c, 7, 67, 100
1, 65467, Note_on_c, 7, 74, 0
1, 65467, Note_on_c, 7, 73, 100
1, 65467, Note_on_c, 7, 67, 0
1, 65467, Note_on_c, 7, 68, 100
1, 65527, Note_on_c, 7, 68, 0
1, 65527, Note_on_c, 7, 69, 100
1, 65587, Note_on_c, 7, 69, 0
1, 65587, Note_on_c, 7, 70, 100
1, 65647, Note_on_c, 3, 76, 0
1, 65647, Note_on_c, 3, 74, 127
1, 65647, Note_on_c, 7, 73, 0
1, 65647, Note_on_c, 7, 71, 100
1, 65647, Note_on_c, 7, 70, 0
1, 65677, Note_on_c, 7, 71, 0
1, 65767, Note_on_c, 3, 74, 0
1, 65767, Note_on_c, 7, 74, 100
1, 65767, Note_on_c, 7, 71, 100
1, 65797, Note_on_c, 7, 74, 0
1, 65797, Note_on_c, 7, 71, 0
1, 65827, Note_on_c, 7, 76, 100
1, 65827, Note_on_c, 7, 73, 100
1, 65857, Note_on_c, 7, 76, 0
1, 65857, Note_on_c, 7, 74, 100
1, 65857, Note_on_c, 7, 73, 0
1, 65857, Note_on_c, 7, 71, 100
1, 65887, Note_on_c, 7, 74, 0
1, 65887, Note_on_c, 7, 73, 100
1, 65887, Note_on_c, 7, 71, 0
1, 65887, Note_on_c, 7, 70, 100
1, 65917, Note_on_c, 7, 73, 0
1, 65917, Note_on_c, 7, 74, 100
1, 65917, Note_on_c, 7, 70, 0
1, 65917, Note_on_c, 7, 71, 100
1, 65947, Note_on_c, 7, 74, 0
1, 65947, Note_on_c, 7, 78, 100
1, 65947, Note_on_c, 7, 71, 0
1, 65947, Note_on_c, 7, 74, 100
1, 65977, Note_on_c, 7, 78, 0
1, 65977, Note_on_c, 7, 76, 100
1, 65977, Note_on_c, 7, 74, 0
1, 65977, Note_on_c, 7, 73, 100
1, 66007, Note_on_c, 7, 76, 0
1, 66007, Note_on_c, 7, 74, 100
1, 66007, Note_on_c, 7, 73, 0
1, 66007, Note_on_c, 7, 73, 100
1, 66067, Note_on_c, 3, 52, 127
1, 66127, Note_on_c, 3, 52, 0
1, 66127, Note_on_c, 3, 53, 127
1, 66187, Note_on_c, 3, 53, 0
1, 66187, Note_on_c, 3, 54, 127
1, 66187, Note_on_c, 7, 73, 0
1, 66187, Note_on_c, 7, 71, 100
1, 66247, Note_on_c, 3, 54, 0
1, 66247, Note_on_c, 3, 55, 127
1, 66307, Note_on_c, 3, 55, 0
1, 66307, Note_on_c, 3, 56, 127
1, 66367, Note_on_c, 3, 56, 0
1, 66367, Note_on_c, 3, 57, 127
1, 66367, Note_on_c, 7, 74, 0
1, 66367, Note_on_c, 7, 72, 100
1, 66397, Note_on_c, 7, 72, 0
1, 66487, Note_on_c, 3, 57, 0
1, 66487, Note_on_c, 3, 55, 127
1, 66487, Note_on_c, 7, 72, 100
1, 66517, Note_on_c, 7, 72, 0
1, 66547, Note_on_c, 3, 55, 0
1, 66547, Note_on_c, 3, 53, 127
1, 66547, Note_on_c, 7, 74, 100
1, 66547, Note_on_c, 7, 71, 0
1, 66547, Note_on_c, 7, 69, 100
1, 66577, Note_on_c, 7, 74, 0
1, 66577, Note_on_c, 7, 72, 100
1, 66607, Note_on_c, 7, 72, 0
1, 66607, Note_on_c, 7, 71, 100
1, 66637, Note_on_c, 7, 71, 0
1, 66637, Note_on_c, 7, 72, 100
1, 66667, Note_on_c, 3, 53, 0
1, 66667, Note_on_c, 3, 52, 127
1, 66667, Note_on_c, 7, 72, 0
1, 66667, Note_on_c, 7, 74, 100
1, 66697, Note_on_c, 7, 74, 0
1, 66697, Note_on_c, 7, 72, 100
1, 66727, Note_on_c, 3, 52, 0
1, 66727, Note_on_c, 3, 50, 127
1, 66727, Note_on_c, 7, 72, 0
1, 66727, Note_on_c, 7, 71, 100
1, 66727, Note_on_c, 7, 69, 0
1, 66727, Note_on_c, 7, 69, 100
1, 66757, Note_on_c, 7, 69, 0
1, 66847, Note_on_c, 7, 69, 100
1, 66877, Note_on_c, 7, 69, 0
1, 66907, Note_on_c, 3, 50, 0
1, 66907, Note_on_c, 3, 51, 127
1, 66937, Note_on_c, 7, 69, 100
1, 66967, Note_on_c, 7, 69, 0
1, 66967, Note_on_c, 7, 68, 100
1, 66997, Note_on_c, 7, 68, 0
1, 66997, Note_on_c, 7, 69, 100
1, 67027, Note_on_c, 7, 69, 0
1, 67057, Note_on_c, 7, 69, 100
1, 67087, Note_on_c, 3, 51, 0
1, 67087, Note_on_c, 3, 52, 127
1, 67087, Note_on_c, 7, 69, 0
1, 67087, Note_on_c, 7, 68, 100
1, 67147, Note_on_c, 7, 71, 0
1, 67177, Note_on_c, 7, 68, 0
1, 67207, Note_on_c, 3, 52, 0
1, 67207, Note_on_c, 7, 71, 100
1, 67237, Note_on_c, 7, 71, 0
1, 67267, Note_on_c, 4, 88, 80
1, 67267, Note_on_c, 4, 85, 80
1, 67267, Note_on_c, 5, 64, 80
1, 67267, Note_on_c, 5, 56, 80
1, 67267, Note_on_c, 6, 59, 80
1, 67267, Note_on_c, 6, 52, 80
1, 67267, Note_on_c, 7, 76, 100
1, 67267, Note_on_c, 7, 64, 100
1, 67267, Note_on_c, 7, 52, 100
1, 67267, Note_on_c, 7, 40, 100
1, 67297, Note_on_c, 7, 76, 0
1, 67297, Note_on_c, 7, 64, 0
1, 67297, Note_on_c, 7, 52, 0
1, 67297, Note_on_c, 7, 40, 0
1, 67327, Note_on_c, 4, 88, 0
1, 67327, Note_on_c, 4, 88, 80
1, 67327, Note_on_c, 4, 85, 0
1, 67327, Note_on_c, 4, 85, 80
1, 67327, Note_on_c, 5, 64, 0
1, 67327, Note_on_c, 5, 64, 80
1, 67327, Note_on_c, 5, 56, 0
1, 67327, Note_on_c, 5, 56, 80
1, 67327, Note_on_c, 6, 59, 0
1, 67327, Note_on_c, 6, 59, 80
1, 67327, Note_on_c, 6, 52, 0
1, 67327, Note_on_c, 6, 52, 80
1, 67327, Note_on_c, 7, 80, 100
1, 67327, Note_on_c, 7, 68, 100
1, 67327, Note_on_c, 7, 56, 100
1, 67327, Note_on_c, 7, 44, 100
1, 67357, Note_on_c, 7, 80, 0
1, 67357, Note_on_c, 7, 68, 0
1, 67357, Note_on_c, 7, 56, 0
1, 67357, Note_on_c, 7, 44, 0
1, 67387, Note_on_c, 4, 88, 0
1, 67387, Note_on_c, 4, 88, 80
1, 67387, Note_on_c, 4, 85, 0
1, 67387, Note_on_c, 4, 85, 80
1, 67387, Note_on_c, 5, 64, 0
1, 67387, Note_on_c, 5, 64, 80
1, 67387, Note_on_c, 5, 56, 0
1, 67387, Note_on_c, 5, 56, 80
1, 67387, Note_on_c, 6, 59, 0
1, 67387, Note_on_c, 6, 59, 80
1, 67387, Note_on_c, 6, 52, 0
1, 67387, Note_on_c, 6, 52, 80
1, 67387, Note_on_c, 7, 83, 100
1, 67387, Note_on_c, 7, 71, 100
1, 67387, Note_on_c, 7, 59, 100
1, 67387, Note_on_c, 7, 47, 100
1, 67417, Note_on_c, 7, 83, 0
1, 67417, Note_on_c, 7, 71, 0
1, 67417, Note_on_c, 7, 59, 0
1, 67417, Note_on_c, 7, 47, 0
1, 67447, Note_on_c, 4, 88, 0
1, 67447, Note_on_c, 4, 88, 80
1, 67447, Note_on_c, 4, 85, 0
1, 67447, Note_on_c, 4, 80, 80
1, 67447, Note_on_c, 5, 64, 0
1, 67447, Note_on_c, 5, 64, 80
1, 67447, Note_on_c, 5, 56, 0
1, 67447, Note_on_c, 5, 56, 80
1, 67447, Note_on_c, 6, 59, 0
1, 67447, Note_on_c, 6, 59, 80
1, 67447, Note_on_c, 6, 52, 0
1, 67447, Note_on_c, 6, 52, 80
1, 67447, Note_on_c, 7, 64, 100
1, 67447, Note_on_c, 7, 71, 100
1, 67447, Note_on_c, 7, 76, 100
1, 67447, Note_on_c, 7, 52, 100
1, 67447, Note_on_c, 7, 40, 100
1, 67507, Note_on_c, 3, 76, 127
1, 67537, Note_on_c, 3, 76, 0
1, 67567, Note_on_c, 3, 76, 127
1, 67567, Note_on_c, 4, 88, 0
1, 67567, Note_on_c, 4, 80, 0
1, 67567, Note_on_c, 5, 64, 0
1, 67567, Note_on_c, 5, 56, 0
1, 67567, Note_on_c, 6, 59, 0
1, 67567, Note_on_c, 6, 52, 0
1, 67567, Note_on_c, 7, 71, 0
1, 67567, Note_on_c, 7, 76, 0
1, 67567, Note_on_c, 7, 64, 0
1, 67567, Note_on_c, 7, 52, 0
1, 67567, Note_on_c, 7, 40, 0
1, 67597, Note_on_c, 3, 76, 0
1, 67627, Note_on_c, 3, 76, 127
1, 67687, Note_on_c, 3, 76, 0
1, 67687, Note_on_c, 3, 75, 127
1, 67747, Note_on_c, 3, 75, 0
1, 67747, Note_on_c, 3, 74, 127
1, 67807, Note_on_c, 3, 74, 0
1, 67807, Note_on_c, 3, 73, 127
1, 67807, Note_on_c, 7, 69, 100
1, 67987, Note_on_c, 3, 73, 0
1, 67987, Note_on_c, 3, 76, 127
1, 67987, Note_on_c, 7, 73, 100
1, 68002, Note_on_c, 3, 76, 0
1, 68002, Note_on_c, 3, 74, 127
1, 68002, Note_on_c, 7, 73, 0
1, 68002, Note_on_c, 7, 71, 100
1, 68025, Note_on_c, 7, 71, 0
1, 68047, Note_on_c, 3, 74, 0
1, 68047, Note_on_c, 3, 73, 127
1, 68107, Note_on_c, 3, 73, 0
1, 68107, Note_on_c, 3, 74, 127
1, 68107, Note_on_c, 7, 71, 100
1, 68137, Note_on_c, 7, 71, 0
1, 68167, Note_on_c, 3, 74, 0
1, 68167, Note_on_c, 3, 76, 127
1, 68167, Note_on_c, 7, 73, 100
1, 68227, Note_on_c, 7, 69, 0
1, 68227, Note_on_c, 7, 69, 100
1, 68257, Note_on_c, 7, 69, 0
1, 68287, Note_on_c, 7, 69, 100
1, 68317, Note_on_c, 7, 69, 0
1, 68347, Note_on_c, 7, 69, 100
1, 68377, Note_on_c, 7, 69, 0
1, 68407, Note_on_c, 7, 69, 100
1, 68437, Note_on_c, 7, 69, 0
1, 68467, Note_on_c, 3, 76, 0
1, 68467, Note_on_c, 3, 77, 127
1, 68467, Note_on_c, 7, 69, 100
1, 68497, Note_on_c, 7, 69, 0
1, 68527, Note_on_c, 3, 77, 0
1, 68527, Note_on_c, 3, 78, 127
1, 68527, Note_on_c, 7, 73, 0
1, 68527, Note_on_c, 7, 74, 100
1, 68527, Note_on_c, 7, 69, 100
1, 68587, Note_on_c, 3, 78, 0
1, 68587, Note_on_c, 3, 74, 127
1, 68587, Note_on_c, 7, 74, 0
1, 68587, Note_on_c, 7, 69, 0
1, 68647, Note_on_c, 3, 74, 0
1, 68647, Note_on_c, 3, 69, 127
1, 68677, Note_on_c, 3, 69, 0
1, 68707, Note_on_c, 3, 81, 127
1, 68707, Note_on_c, 7, 78, 100
1, 68707, Note_on_c, 7, 69, 100
1, 68767, Note_on_c, 3, 81, 0
1, 68767, Note_on_c, 3, 78, 127
1, 68767, Note_on_c, 7, 78, 0
1, 68767, Note_on_c, 7, 69, 0
1, 68827, Note_on_c, 3, 78, 0
1, 68827, Note_on_c, 3, 74, 127
1, 68857, Note_on_c, 3, 74, 0
1, 68887, Note_on_c, 3, 76, 127
1, 68887, Note_on_c, 7, 73, 100
1, 68887, Note_on_c, 7, 69, 100
1, 69007, Note_on_c, 3, 76, 0
1, 69007, Note_on_c, 3, 73, 127
1, 69007, Note_on_c, 7, 73, 0
1, 69007, Note_on_c, 7, 64, 100
1, 69007, Note_on_c, 7, 69, 0
1, 69067, Note_on_c, 3, 73, 0
1, 69067, Note_on_c, 3, 69, 127
1, 69067, Note_on_c, 7, 64, 0
1, 69067, Note_on_c, 7, 61, 100
1, 69067, Note_on_c, 7, 57, 100
1, 69097, Note_on_c, 7, 57, 0
1, 69127, Note_on_c, 7, 61, 0
1, 69127, Note_on_c, 7, 61, 100
1, 69157, Note_on_c, 7, 61, 0
1, 69187, Note_on_c, 3, 69, 0
1, 69187, Note_on_c, 7, 57, 100
1, 69217, Note_on_c, 7, 57, 0
1, 69247, Note_on_c, 3, 74, 127
1, 69247, Note_on_c, 7, 68, 100
1, 69247, Note_on_c, 7, 59, 100
1, 69247, Note_on_c, 7, 64, 100
1, 69247, Note_on_c, 7, 52, 100
1, 69247, Note_on_c, 7, 40, 100
1, 69277, Note_on_c, 3, 74, 0
1, 69277, Note_on_c, 3, 71, 127
1, 69307, Note_on_c, 3, 71, 0
1, 69307, Note_on_c, 3, 68, 127
1, 69337, Note_on_c, 3, 68, 0
1, 69337, Note_on_c, 3, 64, 127
1, 69367, Note_on_c, 3, 64, 0
1, 69367, Note_on_c, 3, 62, 127
1, 69367, Note_on_c, 7, 68, 0
1, 69367, Note_on_c, 7, 59, 0
1, 69367, Note_on_c, 7, 64, 0
1, 69367, Note_on_c, 7, 52, 0
1, 69367, Note_on_c, 7, 40, 0
1, 69397, Note_on_c, 3, 62, 0
1, 69397, Note_on_c, 3, 59, 127
1, 69427, Note_on_c, 3, 59, 0
1, 69427, Note_on_c, 3, 56, 127
1, 69457, Note_on_c, 3, 56, 0
1, 69457, Note_on_c, 3, 54, 127
1, 69487, Note_on_c, 3, 54, 0
1, 69487, Note_on_c, 3, 52, 127
1, 69487, Note_on_c, 7, 68, 100
1, 69487, Note_on_c, 7, 59, 100
1, 69487, Note_on_c, 7, 64, 100
1, 69487, Note_on_c, 7, 52, 100
1, 69487, Note_on_c, 7, 40, 100
1, 69517, Note_on_c, 3, 52, 0
1, 69517, Note_on_c, 3, 50, 127
1, 69517, Note_on_c, 7, 68, 0
1, 69517, Note_on_c, 7, 59, 0
1, 69517, Note_on_c, 7, 64, 0
1, 69517, Note_on_c, 7, 52, 0
1, 69517, Note_on_c, 7, 40, 0
1, 69547, Note_on_c, 3, 50, 0
1, 69547, Note_on_c, 3, 49, 127
1, 69547, Note_on_c, 7, 68, 100
1, 69547, Note_on_c, 7, 59, 100
1, 69547, Note_on_c, 7, 64, 100
1, 69547, Note_on_c, 7, 50, 100
1, 69547, Note_on_c, 7, 38, 100
1, 69577, Note_on_c, 3, 49, 0
1, 69577, Note_on_c, 3, 47, 127
1, 69577, Note_on_c, 7, 68, 0
1, 69577, Note_on_c, 7, 59, 0
1, 69577, Note_on_c, 7, 64, 0
1, 69577, Note_on_c, 7, 50, 0
1, 69577, Note_on_c, 7, 38, 0
1, 69607, Note_on_c, 3, 47, 0
1, 69607, Note_on_c, 3, 45, 127
1, 69607, Note_on_c, 7, 69, 100
1, 69607, Note_on_c, 7, 61, 100
1, 69607, Note_on_c, 7, 64, 100
1, 69607, Note_on_c, 7, 49, 100
1, 69607, Note_on_c, 7, 37, 100
1, 69637, Note_on_c, 3, 45, 0
1, 69637, Note_on_c, 3, 49, 127
1, 69667, Note_on_c, 3, 49, 0
1, 69667, Note_on_c, 3, 52, 127
1, 69697, Note_on_c, 3, 52, 0
1, 69697, Note_on_c, 3, 57, 127
1, 69727, Note_on_c, 3, 57, 0
1, 69727, Note_on_c, 3, 61, 127
1, 69727, Note_on_c, 7, 69, 0
1, 69727, Note_on_c, 7, 61, 0
1, 69727, Note_on_c, 7, 64, 0
1, 69727, Note_on_c, 7, 49, 0
1, 69727, Note_on_c, 7, 37, 0
1, 69757, Note_on_c, 3, 61, 0
1, 69757, Note_on_c, 3, 64, 127
1, 69787, Note_on_c, 3, 64, 0
1, 69787, Note_on_c, 3, 69, 127
1, 69817, Note_on_c, 3, 69, 0
1, 69817, Note_on_c, 3, 73, 127
1, 69847, Note_on_c, 3, 73, 0
1, 69847, Note_on_c, 3, 76, 127
1, 69847, Note_on_c, 7, 69, 100
1, 69847, Note_on_c, 7, 61, 100
1, 69877, Note_on_c, 3, 76, 0
1, 69877, Note_on_c, 3, 81, 127
1, 69877, Note_on_c, 7, 69, 0
1, 69877, Note_on_c, 7, 61, 0
1, 69907, Note_on_c, 3, 81, 0
1, 69907, Note_on_c, 3, 76, 127
1, 69907, Note_on_c, 7, 73, 100
1, 69907, Note_on_c, 7, 57, 100
1, 69937, Note_on_c, 3, 76, 0
1, 69937, Note_on_c, 3, 73, 127
1, 69937, Note_on_c, 7, 73, 0
1, 69937, Note_on_c, 7, 57, 0
1, 69967, Note_on_c, 3, 73, 0
1, 69967, Note_on_c, 3, 70, 127
1, 69967, Note_on_c, 7, 66, 100
1, 69967, Note_on_c, 7, 62, 100
1, 70027, Note_on_c, 3, 70, 0
1, 70027, Note_on_c, 3, 71, 127
1, 70087, Note_on_c, 3, 71, 0
1, 70087, Note_on_c, 3, 73, 127
1, 70087, Note_on_c, 7, 66, 0
1, 70087, Note_on_c, 7, 70, 100
1, 70147, Note_on_c, 3, 73, 0
1, 70147, Note_on_c, 3, 74, 127
1, 70147, Note_on_c, 7, 70, 0
1, 70147, Note_on_c, 7, 71, 100
1, 70147, Note_on_c, 7, 62, 0
1, 70147, Note_on_c, 7, 62, 100
1, 70207, Note_on_c, 3, 74, 0
1, 70207, Note_on_c, 3, 76, 127
1, 70207, Note_on_c, 7, 71, 0
1, 70207, Note_on_c, 7, 73, 100
1, 70207, Note_on_c, 7, 62, 0
1, 70207, Note_on_c, 7, 61, 100
1, 70267, Note_on_c, 3, 76, 0
1, 70267, Note_on_c, 3, 78, 127
1, 70267, Note_on_c, 7, 73, 0
1, 70267, Note_on_c, 7, 74, 100
1, 70267, Note_on_c, 7, 61, 0
1, 70267, Note_on_c, 7, 59, 100
1, 70327, Note_on_c, 3, 78, 0
1, 70327, Note_on_c, 3, 73, 127
1, 70327, Note_on_c, 7, 74, 0
1, 70327, Note_on_c, 7, 69, 100
1, 70327, Note_on_c, 7, 59, 0
1, 70327, Note_on_c, 7, 64, 100
1, 70387, Note_on_c, 7, 64, 0
1, 70387, Note_on_c, 7, 64, 100
1, 70447, Note_on_c, 3, 73, 0
1, 70447, Note_on_c, 3, 74, 127
1, 70447, Note_on_c, 7, 69, 0
1, 70447, Note_on_c, 7, 71, 100
1, 70447, Note_on_c, 7, 64, 0
1, 70447, Note_on_c, 7, 64, 100
1, 70477, Note_on_c, 3, 74, 0
1, 70477, Note_on_c, 3, 73, 127
1, 70477, Note_on_c, 7, 71, 0
1, 70477, Note_on_c, 7, 69, 100
1, 70507, Note_on_c, 3, 73, 0
1, 70507, Note_on_c, 3, 71, 127
1, 70507, Note_on_c, 7, 69, 0
1, 70507, Note_on_c, 7, 68, 100
1, 70507, Note_on_c, 7, 64, 0
1, 70507, Note_on_c, 7, 64, 100
1, 70567, Note_on_c, 3, 71, 0
1, 70567, Note_on_c, 7, 68, 0
1, 70567, Note_on_c, 7, 64, 0
1, 70567, Note_on_c, 7, 62, 100
1, 70627, Note_on_c, 7, 62, 0
1, 70627, Note_on_c, 7, 59, 100
1, 70687, Note_on_c, 7, 72, 100
1, 70687, Note_on_c, 7, 59, 0
1, 70687, Note_on_c, 7, 57, 100
1, 70807, Note_on_c, 7, 57, 0
1, 70807, Note_on_c, 7, 69, 100
1, 70867, Note_on_c, 7, 72, 0
1, 70867, Note_on_c, 7, 76, 100
1, 70867, Note_on_c, 7, 69, 0
1, 70867, Note_on_c, 7, 72, 100
1, 70882, Note_on_c, 7, 76, 0
1, 70882, Note_on_c, 7, 74, 100
1, 70882, Note_on_c, 7, 72, 0
1, 70882, Note_on_c, 7, 71, 100
1, 70927, Note_on_c, 7, 74, 0
1, 70927, Note_on_c, 7, 72, 100
1, 70927, Note_on_c, 7, 71, 0
1, 70927, Note_on_c, 7, 69, 100
1, 70987, Note_on_c, 7, 72, 0
1, 70987, Note_on_c, 7, 74, 100
1, 70987, Note_on_c, 7, 69, 0
1, 70987, Note_on_c, 7, 71, 100
1, 71047, Note_on_c, 3, 57, 127
1, 71047, Note_on_c, 7, 74, 0
1, 71047, Note_on_c, 7, 76, 100
1, 71047, Note_on_c, 7, 71, 0
1, 71047, Note_on_c, 7, 60, 100
1, 71227, Note_on_c, 3, 57, 0
1, 71227, Note_on_c, 3, 60, 127
1, 71242, Note_on_c, 3, 60, 0
1, 71242, Note_on_c, 3, 59, 127
1, 71287, Note_on_c, 3, 59, 0
1, 71287, Note_on_c, 3, 57, 127
1, 71347, Note_on_c, 3, 57, 0
1, 71347, Note_on_c, 3, 59, 127
1, 71407, Note_on_c, 3, 59, 0
1, 71407, Note_on_c, 3, 60, 127
1, 71497, Note_on_c, 7, 76, 0
1, 71497, Note_on_c, 7, 77, 100
1, 71497, Note_on_c, 7, 60, 0
1, 71497, Note_on_c, 7, 62, 100
1, 71527, Note_on_c, 7, 77, 0
1, 71527, Note_on_c, 7, 76, 100
1, 71527, Note_on_c, 7, 62, 0
1, 71527, Note_on_c, 7, 60, 100
1, 71587, Note_on_c, 3, 60, 0
1, 71587, Note_on_c, 3, 62, 127
1, 71587, Note_on_c, 7, 76, 0
1, 71587, Note_on_c, 7, 74, 100
1, 71587, Note_on_c, 7, 60, 0
1, 71587, Note_on_c, 7, 71, 100
1, 71707, Note_on_c, 3, 62, 0
1, 71707, Note_on_c, 3, 63, 127
1, 71707, Note_on_c, 7, 74, 0
1, 71707, Note_on_c, 7, 72, 100
1, 71707, Note_on_c, 7, 71, 0
1, 71707, Note_on_c, 7, 69, 100
1, 71767, Note_on_c, 3, 63, 0
1, 71767, Note_on_c, 3, 64, 127
1, 71767, Note_on_c, 7, 72, 0
1, 71767, Note_on_c, 7, 71, 100
1, 71767, Note_on_c, 7, 69, 0
1, 71767, Note_on_c, 7, 68, 100
1, 71767, Note_on_c, 7, 64, 100
1, 71887, Note_on_c, 3, 64, 0
1, 71887, Note_on_c, 7, 68, 0
1, 71887, Note_on_c, 7, 67, 100
1, 71947, Note_on_c, 7, 67, 0
1, 71947, Note_on_c, 7, 66, 100
1, 71947, Note_on_c, 7, 64, 0
1, 71947, Note_on_c, 7, 63, 100
1, 72067, Note_on_c, 7, 66, 0
1, 72067, Note_on_c, 7, 65, 100
1, 72067, Note_on_c, 7, 63, 0
1, 72067, Note_on_c, 7, 62, 100
1, 72127, Note_on_c, 3, 76, 127
1, 72127, Note_on_c, 7, 71, 0
1, 72127, Note_on_c, 7, 72, 100
1, 72127, Note_on_c, 7, 65, 0
1, 72127, Note_on_c, 7, 64, 100
1, 72127, Note_on_c, 7, 62, 0
1, 72127, Note_on_c, 7, 60, 100
1, 72247, Note_on_c, 7, 64, 0
1, 72247, Note_on_c, 7, 60, 0
1, 72307, Note_on_c, 3, 76, 0
1, 72307, Note_on_c, 3, 79, 127
1, 72307, Note_on_c, 7, 72, 0
1, 72307, Note_on_c, 7, 76, 100
1, 72322, Note_on_c, 3, 79, 0
1, 72322, Note_on_c, 3, 77, 127
1, 72322, Note_on_c, 7, 76, 0
1, 72322, Note_on_c, 7, 74, 100
1, 72367, Note_on_c, 3, 77, 0
1, 72367, Note_on_c, 3, 76, 127
1, 72367, Note_on_c, 7, 74, 0
1, 72367, Note_on_c, 7, 72, 100
1, 72427, Note_on_c, 3, 76, 0
1, 72427, Note_on_c, 3, 77, 127
1, 72427, Note_on_c, 7, 72, 0
1, 72427, Note_on_c, 7, 74, 100
1, 72487, Note_on_c, 3, 77, 0
1, 72487, Note_on_c, 3, 79, 127
1, 72487, Note_on_c, 7, 74, 0
1, 72487, Note_on_c, 7, 76, 100
1, 72487, Note_on_c, 7, 64, 100
1, 72487, Note_on_c, 7, 60, 100
1, 72667, Note_on_c, 7, 64, 0
1, 72667, Note_on_c, 7, 67, 100
1, 72667, Note_on_c, 7, 60, 0
1, 72667, Note_on_c, 7, 64, 100
1, 72682, Note_on_c, 7, 67, 0
1, 72682, Note_on_c, 7, 65, 100
1, 72682, Note_on_c, 7, 64, 0
1, 72682, Note_on_c, 7, 62, 100
1, 72727, Note_on_c, 7, 65, 0
1, 72727, Note_on_c, 7, 64, 100
1, 72727, Note_on_c, 7, 62, 0
1, 72727, Note_on_c, 7, 60, 100
1, 72787, Note_on_c, 7, 64, 0
1, 72787, Note_on_c, 7, 65, 100
1, 72787, Note_on_c, 7, 60, 0
1, 72787, Note_on_c, 7, 62, 100
1, 72847, Note_on_c, 7, 65, 0
1, 72847, Note_on_c, 7, 67, 100
1, 72847, Note_on_c, 7, 62, 0
1, 72847, Note_on_c, 7, 64, 100
1, 72937, Note_on_c, 3, 79, 0
1, 72937, Note_on_c, 3, 81, 127
1, 72937, Note_on_c, 7, 76, 0
1, 72937, Note_on_c, 7, 77, 100
1, 72967, Note_on_c, 3, 81, 0
1, 72967, Note_on_c, 3, 79, 127
1, 72967, Note_on_c, 7, 77, 0
1, 72967, Note_on_c, 7, 76, 100
1, 73027, Note_on_c, 3, 79, 0
1, 73027, Note_on_c, 3, 77, 127
1, 73027, Note_on_c, 7, 76, 0
1, 73027, Note_on_c, 7, 74, 100
1, 73027, Note_on_c, 7, 67, 0
1, 73027, Note_on_c, 7, 69, 100
1, 73027, Note_on_c, 7, 64, 0
1, 73027, Note_on_c, 7, 65, 100
1, 73147, Note_on_c, 3, 77, 0
1, 73147, Note_on_c, 3, 76, 127
1, 73147, Note_on_c, 7, 74, 0
1, 73147, Note_on_c, 7, 72, 100
1, 73147, Note_on_c, 7, 65, 0
1, 73147, Note_on_c, 7, 66, 100
1, 73207, Note_on_c, 3, 76, 0
1, 73207, Note_on_c, 3, 74, 127
1, 73207, Note_on_c, 7, 72, 0
1, 73207, Note_on_c, 7, 71, 100
1, 73207, Note_on_c, 7, 69, 0
1, 73207, Note_on_c, 7, 66, 0
1, 73207, Note_on_c, 7, 67, 100
1, 73327, Note_on_c, 3, 74, 0
1, 73327, Note_on_c, 7, 74, 100
1, 73387, Note_on_c, 7, 74, 0
1, 73387, Note_on_c, 7, 74, 100
1, 73387, Note_on_c, 7, 65, 100
1, 73507, Note_on_c, 7, 74, 0
1, 73507, Note_on_c, 7, 76, 100
1, 73507, Note_on_c, 7, 71, 0
1, 73507, Note_on_c, 7, 73, 100
1, 73507, Note_on_c, 7, 65, 0
1, 73507, Note_on_c, 7, 64, 100
1, 73567, Note_on_c, 7, 76, 0
1, 73567, Note_on_c, 7, 77, 100
1, 73567, Note_on_c, 7, 73, 0
1, 73567, Note_on_c, 7, 74, 100
1, 73567, Note_on_c, 7, 67, 0
1, 73567, Note_on_c, 7, 65, 100
1, 73567, Note_on_c, 7, 64, 0
1, 73567, Note_on_c, 7, 62, 100
1, 73687, Note_on_c, 7, 65, 0
1, 73687, Note_on_c, 7, 62, 0
1, 73747, Note_on_c, 7, 77, 0
1, 73747, Note_on_c, 7, 81, 100
1, 73747, Note_on_c, 7, 74, 0
1, 73747, Note_on_c, 7, 77, 100
1, 73762, Note_on_c, 7, 81, 0
1, 73762, Note_on_c, 7, 79, 100
1, 73762, Note_on_c, 7, 77, 0
1, 73762, Note_on_c, 7, 76, 100
1, 73807, Note_on_c, 7, 79, 0
1, 73807, Note_on_c, 7, 77, 100
1, 73807, Note_on_c, 7, 76, 0
1, 73807, Note_on_c, 7, 74, 100
1, 73867, Note_on_c, 7, 77, 0
1, 73867, Note_on_c, 7, 79, 100
1, 73867, Note_on_c, 7, 74, 0
1, 73867, Note_on_c, 7, 76, 100
1, 73927, Note_on_c, 3, 50, 127
1, 73927, Note_on_c, 7, 79, 0
1, 73927, Note_on_c, 7, 81, 100
1, 73927, Note_on_c, 7, 76, 0
1, 73927, Note_on_c, 7, 77, 100
1, 73927, Note_on_c, 7, 53, 100
1, 73927, Note_on_c, 7, 50, 100
1, 74107, Note_on_c, 3, 50, 0
1, 74107, Note_on_c, 3, 53, 127
1, 74107, Note_on_c, 7, 53, 0
1, 74107, Note_on_c, 7, 57, 100
1, 74107, Note_on_c, 7, 50, 0
1, 74107, Note_on_c, 7, 53, 100
1, 74122, Note_on_c, 3, 53, 0
1, 74122, Note_on_c, 3, 52, 127
1, 74122, Note_on_c, 7, 57, 0
1, 74122, Note_on_c, 7, 55, 100
1, 74122, Note_on_c, 7, 53, 0
1, 74122, Note_on_c, 7, 52, 100
1, 74167, Note_on_c, 3, 52, 0
1, 74167, Note_on_c, 3, 50, 127
1, 74167, Note_on_c, 7, 55, 0
1, 74167, Note_on_c, 7, 53, 100
1, 74167, Note_on_c, 7, 52, 0
1, 74167, Note_on_c, 7, 50, 100
1, 74227, Note_on_c, 3, 50, 0
1, 74227, Note_on_c, 3, 52, 127
1, 74227, Note_on_c, 7, 53, 0
1, 74227, Note_on_c, 7, 55, 100
1, 74227, Note_on_c, 7, 50, 0
1, 74227, Note_on_c, 7, 52, 100
1, 74287, Note_on_c, 3, 52, 0
1, 74287, Note_on_c, 3, 53, 127
1, 74287, Note_on_c, 7, 55, 0
1, 74287, Note_on_c, 7, 57, 100
1, 74287, Note_on_c, 7, 52, 0
1, 74287, Note_on_c, 7, 53, 100
1, 74377, Note_on_c, 7, 81, 0
1, 74377, Note_on_c, 7, 82, 100
1, 74377, Note_on_c, 7, 77, 0
1, 74377, Note_on_c, 7, 79, 100
1, 74407, Note_on_c, 7, 82, 0
1, 74407, Note_on_c, 7, 81, 100
1, 74407, Note_on_c, 7, 79, 0
1, 74407, Note_on_c, 7, 77, 100
1, 74467, Note_on_c, 3, 53, 0
1, 74467, Note_on_c, 3, 55, 127
1, 74467, Note_on_c, 7, 81, 0
1, 74467, Note_on_c, 7, 79, 100
1, 74467, Note_on_c, 7, 77, 0
1, 74467, Note_on_c, 7, 76, 100
1, 74467, Note_on_c, 7, 57, 0
1, 74467, Note_on_c, 7, 58, 100
1, 74467, Note_on_c, 7, 53, 0
1, 74467, Note_on_c, 7, 55, 100
1, 74587, Note_on_c, 3, 55, 0
1, 74587, Note_on_c, 3, 56, 127
1, 74587, Note_on_c, 7, 79, 0
1, 74587, Note_on_c, 7, 77, 100
1, 74587, Note_on_c, 7, 76, 0
1, 74587, Note_on_c, 7, 74, 100
1, 74587, Note_on_c, 7, 58, 0
1, 74587, Note_on_c, 7, 59, 100
1, 74587, Note_on_c, 7, 55, 0
1, 74587, Note_on_c, 7, 56, 100
1, 74647, Note_on_c, 3, 56, 0
1, 74647, Note_on_c, 3, 57, 127
1, 74647, Note_on_c, 7, 77, 0
1, 74647, Note_on_c, 7, 76, 100
1, 74647, Note_on_c, 7, 74, 0
1, 74647, Note_on_c, 7, 73, 100
1, 74647, Note_on_c, 7, 59, 0
1, 74647, Note_on_c, 7, 61, 100
1, 74647, Note_on_c, 7, 56, 0
1, 74647, Note_on_c, 7, 57, 100
1, 74707, Note_on_c, 3, 57, 0
1, 74767, Note_on_c, 3, 69, 127
1, 74767, Note_on_c, 7, 76, 0
1, 74767, Note_on_c, 7, 73, 0
1, 74767, Note_on_c, 7, 61, 0
1, 74767, Note_on_c, 7, 57, 0
1, 74827, Note_on_c, 3, 69, 0
1, 74827, Note_on_c, 3, 81, 127
1, 74947, Note_on_c, 3, 81, 0
1, 74947, Note_on_c, 3, 79, 127
1, 75007, Note_on_c, 3, 79, 0
1, 75007, Note_on_c, 3, 77, 127
1, 75007, Note_on_c, 7, 50, 100
1, 75007, Note_on_c, 7, 38, 100
1, 75037, Note_on_c, 3, 77, 0
1, 75037, Note_on_c, 3, 79, 127
1, 75067, Note_on_c, 3, 79, 0
1, 75067, Note_on_c, 3, 81, 127
1, 75067, Note_on_c, 7, 69, 100
1, 75067, Note_on_c, 7, 64, 100
1, 75067, Note_on_c, 7, 62, 100
1, 75067, Note_on_c, 7, 50, 0
1, 75067, Note_on_c, 7, 38, 0
1, 75097, Note_on_c, 3, 81, 0
1, 75097, Note_on_c, 3, 79, 127
1, 75097, Note_on_c, 7, 69, 0
1, 75097, Note_on_c, 7, 64, 0
1, 75097, Note_on_c, 7, 62, 0
1, 75127, Note_on_c, 3, 79, 0
1, 75127, Note_on_c, 3, 77, 127
1, 75127, Note_on_c, 7, 69, 100
1, 75127, Note_on_c, 7, 65, 100
1, 75127, Note_on_c, 7, 62, 100
1, 75157, Note_on_c, 3, 77, 0
1, 75157, Note_on_c, 3, 76, 127
1, 75157, Note_on_c, 7, 69, 0
1, 75157, Note_on_c, 7, 65, 0
1, 75157, Note_on_c, 7, 62, 0
1, 75187, Note_on_c, 3, 76, 0
1, 75187, Note_on_c, 3, 74, 127
1, 75187, Note_on_c, 7, 53, 100
1, 75187, Note_on_c, 7, 42, 100
1, 75217, Note_on_c, 3, 74, 0
1, 75217, Note_on_c, 3, 76, 127
1, 75247, Note_on_c, 3, 76, 0
1, 75247, Note_on_c, 3, 77, 127
1, 75247, Note_on_c, 7, 65, 100
1, 75247, Note_on_c, 7, 62, 100
1, 75247, Note_on_c, 7, 57, 100
1, 75247, Note_on_c, 7, 53, 0
1, 75247, Note_on_c, 7, 42, 0
1, 75277, Note_on_c, 3, 77, 0
1, 75277, Note_on_c, 3, 76, 127
1, 75277, Note_on_c, 7, 65, 0
1, 75277, Note_on_c, 7, 62, 0
1, 75277, Note_on_c, 7, 57, 0
1, 75307, Note_on_c, 3, 76, 0
1, 75307, Note_on_c, 3, 74, 127
1, 75307, Note_on_c, 7, 65, 100
1, 75307, Note_on_c, 7, 62, 100
1, 75307, Note_on_c, 7, 57, 100
1, 75337, Note_on_c, 3, 74, 0
1, 75337, Note_on_c, 3, 72, 127
1, 75337, Note_on_c, 7, 65, 0
1, 75337, Note_on_c, 7, 62, 0
1, 75337, Note_on_c, 7, 57, 0
1, 75367, Note_on_c, 3, 72, 0
1, 75367, Note_on_c, 3, 71, 127
1, 75367, Note_on_c, 7, 62, 100
1, 75367, Note_on_c, 7, 59, 100
1, 75367, Note_on_c, 7, 55, 100
1, 75367, Note_on_c, 7, 43, 100
1, 75397, Note_on_c, 3, 71, 0
1, 75397, Note_on_c, 3, 72, 127
1, 75427, Note_on_c, 3, 72, 0
1, 75427, Note_on_c, 3, 74, 127
1, 75427, Note_on_c, 7, 62, 0
1, 75427, Note_on_c, 7, 59, 0
1, 75427, Note_on_c, 7, 55, 0
1, 75427, Note_on_c, 7, 43, 0
1, 75457, Note_on_c, 3, 74, 0
1, 75457, Note_on_c, 3, 76, 127
1, 75487, Note_on_c, 3, 76, 0
1, 75487, Note_on_c, 3, 77, 127
1, 75517, Note_on_c, 3, 77, 0
1, 75517, Note_on_c, 3, 78, 127
1, 75547, Note_on_c, 3, 78, 0
1, 75547, Note_on_c, 3, 79, 127
1, 75547, Note_on_c, 7, 71, 100
1, 75547, Note_on_c, 7, 67, 100
1, 75607, Note_on_c, 3, 79, 0
1, 75607, Note_on_c, 3, 78, 127
1, 75607, Note_on_c, 7, 71, 0
1, 75607, Note_on_c, 7, 72, 100
1, 75607, Note_on_c, 7, 67, 0
1, 75607, Note_on_c, 7, 69, 100
1, 75667, Note_on_c, 3, 78, 0
1, 75667, Note_on_c, 3, 77, 127
1, 75667, Note_on_c, 7, 72, 0
1, 75667, Note_on_c, 7, 74, 100
1, 75667, Note_on_c, 7, 69, 0
1, 75667, Note_on_c, 7, 71, 100
1, 75727, Note_on_c, 3, 77, 0
1, 75727, Note_on_c, 3, 76, 127
1, 75727, Note_on_c, 7, 74, 0
1, 75727, Note_on_c, 7, 71, 0
1, 75727, Note_on_c, 7, 48, 100
1, 75727, Note_on_c, 7, 36, 100
1, 75757, Note_on_c, 3, 76, 0
1, 75757, Note_on_c, 3, 77, 127
1, 75787, Note_on_c, 3, 77, 0
1, 75787, Note_on_c, 3, 79, 127
1, 75787, Note_on_c, 7, 68, 100
1, 75787, Note_on_c, 7, 64, 100
1, 75787, Note_on_c, 7, 60, 100
1, 75787, Note_on_c, 7, 48, 0
1, 75787, Note_on_c, 7, 36, 0
1, 75817, Note_on_c, 3, 79, 0
1, 75817, Note_on_c, 3, 77, 127
1, 75817, Note_on_c, 7, 68, 0
1, 75817, Note_on_c, 7, 64, 0
1, 75817, Note_on_c, 7, 60, 0
1, 75847, Note_on_c, 3, 77, 0
1, 75847, Note_on_c, 3, 76, 127
1, 75847, Note_on_c, 7, 67, 100
1, 75847, Note_on_c, 7, 64, 100
1, 75847, Note_on_c, 7, 60, 100
1, 75877, Note_on_c, 3, 76, 0
1, 75877, Note_on_c, 3, 74, 127
1, 75877, Note_on_c, 7, 67, 0
1, 75877, Note_on_c, 7, 64, 0
1, 75877, Note_on_c, 7, 60, 0
1, 75907, Note_on_c, 3, 74, 0
1, 75907, Note_on_c, 3, 72, 127
1, 75907, Note_on_c, 7, 52, 100
1, 75907, Note_on_c, 7, 40, 100
1, 75937, Note_on_c, 3, 72, 0
1, 75937, Note_on_c, 3, 74, 127
1, 75967, Note_on_c, 3, 74, 0
1, 75967, Note_on_c, 3, 76, 127
1, 75967, Note_on_c, 7, 64, 100
1, 75967, Note_on_c, 7, 60, 100
1, 75967, Note_on_c, 7, 55, 100
1, 75967, Note_on_c, 7, 52, 0
1, 75967, Note_on_c, 7, 40, 0
1, 75997, Note_on_c, 3, 76, 0
1, 75997, Note_on_c, 3, 74, 127
1, 75997, Note_on_c, 7, 64, 0
1, 75997, Note_on_c, 7, 60, 0
1, 75997, Note_on_c, 7, 55, 0
1, 76027, Note_on_c, 3, 74, 0
1, 76027, Note_on_c, 3, 72, 127
1, 76027, Note_on_c, 7, 64, 100
1, 76027, Note_on_c, 7, 60, 100
1, 76027, Note_on_c, 7, 55, 100
1, 76057, Note_on_c, 3, 72, 0
1, 76057, Note_on_c, 3, 71, 127
1, 76057, Note_on_c, 7, 64, 0
1, 76057, Note_on_c, 7, 60, 0
1, 76057, Note_on_c, 7, 55, 0
1, 76087, Note_on_c, 3, 71, 0
1, 76087, Note_on_c, 3, 69, 127
1, 76087, Note_on_c, 7, 60, 100
1, 76087, Note_on_c, 7, 57, 100
1, 76087, Note_on_c, 7, 53, 100
1, 76087, Note_on_c, 7, 41, 100
1, 76117, Note_on_c, 3, 69, 0
1, 76117, Note_on_c, 3, 71, 127
1, 76147, Note_on_c, 3, 71, 0
1, 76147, Note_on_c, 3, 72, 127
1, 76147, Note_on_c, 7, 60, 0
1, 76147, Note_on_c, 7, 57, 0
1, 76147, Note_on_c, 7, 53, 0
1, 76147, Note_on_c, 7, 41, 0
1, 76177, Note_on_c, 3, 72, 0
1, 76177, Note_on_c, 3, 73, 127
1, 76207, Note_on_c, 3, 73, 0
1, 76207, Note_on_c, 3, 74, 127
1, 76237, Note_on_c, 3, 74, 0
1, 76237, Note_on_c, 3, 75, 127
1, 76267, Note_on_c, 3, 75, 0
1, 76267, Note_on_c, 3, 76, 127
1, 76267, Note_on_c, 7, 72, 100
1, 76267, Note_on_c, 7, 69, 100
1, 76267, Note_on_c, 7, 65, 100
1, 76327, Note_on_c, 3, 76, 0
1, 76327, Note_on_c, 3, 77, 127
1, 76387, Note_on_c, 3, 77, 0
1, 76387, Note_on_c, 3, 76, 127
1, 76447, Note_on_c, 3, 76, 0
1, 76447, Note_on_c, 3, 74, 127
1, 76447, Note_on_c, 7, 72, 0
1, 76447, Note_on_c, 7, 69, 0
1, 76447, Note_on_c, 7, 65, 0
1, 76447, Note_on_c, 7, 47, 100
1, 76447, Note_on_c, 7, 35, 100
1, 76477, Note_on_c, 3, 74, 0
1, 76477, Note_on_c, 3, 76, 127
1, 76507, Note_on_c, 3, 76, 0
1, 76507, Note_on_c, 3, 77, 127
1, 76507, Note_on_c, 7, 74, 100
1, 76507, Note_on_c, 7, 71, 100
1, 76507, Note_on_c, 7, 65, 100
1, 76507, Note_on_c, 7, 47, 0
1, 76507, Note_on_c, 7, 35, 0
1, 76537, Note_on_c, 3, 77, 0
1, 76537, Note_on_c, 3, 76, 127
1, 76537, Note_on_c, 7, 74, 0
1, 76537, Note_on_c, 7, 71, 0
1, 76537, Note_on_c, 7, 65, 0
1, 76567, Note_on_c, 3, 76, 0
1, 76567, Note_on_c, 3, 74, 127
1, 76567, Note_on_c, 7, 74, 100
1, 76567, Note_on_c, 7, 71, 100
1, 76567, Note_on_c, 7, 65, 100
1, 76597, Note_on_c, 3, 74, 0
1, 76597, Note_on_c, 3, 72, 127
1, 76597, Note_on_c, 7, 74, 0
1, 76597, Note_on_c, 7, 71, 0
1, 76597, Note_on_c, 7, 65, 0
1, 76627, Note_on_c, 3, 72, 0
1, 76627, Note_on_c, 3, 71, 127
1, 76627, Note_on_c, 7, 50, 100
1, 76627, Note_on_c, 7, 38, 100
1, 76657, Note_on_c, 3, 71, 0
1, 76657, Note_on_c, 3, 72, 127
1, 76687, Note_on_c, 3, 72, 0
1, 76687, Note_on_c, 3, 74, 127
1, 76687, Note_on_c, 7, 71, 100
1, 76687, Note_on_c, 7, 65, 100
1, 76687, Note_on_c, 7, 62, 100
1, 76687, Note_on_c, 7, 50, 0
1, 76687, Note_on_c, 7, 38, 0
1, 76717, Note_on_c, 3, 74, 0
1, 76717, Note_on_c, 3, 72, 127
1, 76717, Note_on_c, 7, 71, 0
1, 76717, Note_on_c, 7, 65, 0
1, 76717, Note_on_c, 7, 62, 0
1, 76747, Note_on_c, 3, 72, 0
1, 76747, Note_on_c, 3, 71, 127
1, 76747, Note_on_c, 7, 71, 100
1, 76747, Note_on_c, 7, 65, 100
1, 76747, Note_on_c, 7, 62, 100
1, 76777, Note_on_c, 3, 71, 0
1, 76777, Note_on_c, 3, 69, 127
1, 76777, Note_on_c, 7, 71, 0
1, 76777, Note_on_c, 7, 65, 0
1, 76777, Note_on_c, 7, 62, 0
1, 76807, Note_on_c, 3, 69, 0
1, 76807, Note_on_c, 3, 68, 127
1, 76807, Note_on_c, 7, 68, 100
1, 76807, Note_on_c, 7, 64, 100
1, 76807, Note_on_c, 7, 59, 100
1, 76807, Note_on_c, 7, 52, 100
1, 76807, Note_on_c, 7, 40, 100
1, 76837, Note_on_c, 3, 68, 0
1, 76837, Note_on_c, 3, 69, 127
1, 76867, Note_on_c, 3, 69, 0
1, 76867, Note_on_c, 3, 71, 127
1, 76867, Note_on_c, 7, 68, 0
1, 76867, Note_on_c, 7, 64, 0
1, 76867, Note_on_c, 7, 59, 0
1, 76867, Note_on_c, 7, 52, 0
1, 76867, Note_on_c, 7, 40, 0
1, 76897, Note_on_c, 3, 71, 0
1, 76897, Note_on_c, 3, 72, 127
1, 76927, Note_on_c, 3, 72, 0
1, 76927, Note_on_c, 3, 73, 127
1, 76957, Note_on_c, 3, 73, 0
1, 76957, Note_on_c, 3, 74, 127
1, 76987, Note_on_c, 3, 74, 0
1, 76987, Note_on_c, 3, 76, 127
1, 76987, Note_on_c, 7, 68, 100
1, 76987, Note_on_c, 7, 64, 100
1, 77047, Note_on_c, 3, 76, 0
1, 77047, Note_on_c, 3, 75, 127
1, 77047, Note_on_c, 7, 68, 0
1, 77047, Note_on_c, 7, 69, 100
1, 77047, Note_on_c, 7, 64, 0
1, 77047, Note_on_c, 7, 66, 100
1, 77107, Note_on_c, 3, 75, 0
1, 77107, Note_on_c, 3, 74, 127
1, 77107, Note_on_c, 7, 69, 0
1, 77107, Note_on_c, 7, 71, 100
1, 77107, Note_on_c, 7, 66, 0
1, 77107, Note_on_c, 7, 68, 100
1, 77167, Note_on_c, 3, 74, 0
1, 77167, Note_on_c, 3, 72, 127
1, 77167, Note_on_c, 7, 71, 0
1, 77167, Note_on_c, 7, 68, 0
1, 77167, Note_on_c, 7, 57, 100
1, 77287, Note_on_c, 3, 72, 0
1, 77287, Note_on_c, 3, 72, 127
1, 77287, Note_on_c, 7, 60, 100
1, 77347, Note_on_c, 3, 72, 0
1, 77347, Note_on_c, 3, 74, 127
1, 77347, Note_on_c, 7, 60, 0
1, 77347, Note_on_c, 7, 65, 100
1, 77362, Note_on_c, 3, 74, 0
1, 77362, Note_on_c, 3, 72, 127
1, 77407, Note_on_c, 3, 72, 0
1, 77407, Note_on_c, 3, 71, 127
1, 77467, Note_on_c, 3, 71, 0
1, 77467, Note_on_c, 3, 72, 127
1, 77467, Note_on_c, 7, 65, 0
1, 77527, Note_on_c, 3, 72, 0
1, 77527, Note_on_c, 3, 71, 127
1, 77527, Note_on_c, 7, 56, 100
1, 77527, Note_on_c, 7, 57, 0
1, 77647, Note_on_c, 3, 71, 0
1, 77647, Note_on_c, 3, 76, 127
1, 77647, Note_on_c, 7, 59, 100
1, 77707, Note_on_c, 3, 76, 0
1, 77707, Note_on_c, 3, 76, 127
1, 77707, Note_on_c, 7, 56, 0
1, 77707, Note_on_c, 7, 55, 100
1, 77707, Note_on_c, 7, 59, 0
1, 77707, Note_on_c, 7, 64, 100
1, 77797, Note_on_c, 3, 76, 0
1, 77797, Note_on_c, 3, 74, 127
1, 77827, Note_on_c, 3, 74, 0
1, 77827, Note_on_c, 3, 72, 127
1, 77827, Note_on_c, 7, 64, 0
1, 77857, Note_on_c, 3, 72, 0
1, 77857, Note_on_c, 3, 71, 127
1, 77887, Note_on_c, 3, 71, 0
1, 77887, Note_on_c, 3, 69, 127
1, 77887, Note_on_c, 7, 54, 100
1, 77887, Note_on_c, 7, 55, 0
1, 78007, Note_on_c, 3, 69, 0
1, 78007, Note_on_c, 3, 69, 127
1, 78007, Note_on_c, 7, 57, 100
1, 78067, Note_on_c, 3, 69, 0
1, 78067, Note_on_c, 3, 71, 127
1, 78067, Note_on_c, 7, 54, 0
1, 78067, Note_on_c, 7, 53, 100
1, 78067, Note_on_c, 7, 57, 0
1, 78067, Note_on_c, 7, 62, 100
1, 78082, Note_on_c, 3, 71, 0
1, 78082, Note_on_c, 3, 69, 127
1, 78127, Note_on_c, 3, 69, 0
1, 78127, Note_on_c, 3, 68, 127
1, 78187, Note_on_c, 3, 68, 0
1, 78187, Note_on_c, 3, 69, 127
1, 78187, Note_on_c, 7, 62, 0
1, 78247, Note_on_c, 3, 69, 0
1, 78247, Note_on_c, 3, 68, 127
1, 78247, Note_on_c, 7, 52, 100
1, 78247, Note_on_c, 7, 53, 0
1, 78367, Note_on_c, 3, 68, 0
1, 78367, Note_on_c, 3, 71, 127
1, 78367, Note_on_c, 7, 52, 0
1, 78427, Note_on_c, 3, 71, 0
1, 78427, Note_on_c, 3, 64, 127
1, 78457, Note_on_c, 7, 76, 100
1, 78487, Note_on_c, 7, 76, 0
1, 78487, Note_on_c, 7, 78, 100
1, 78517, Note_on_c, 7, 78, 0
1, 78517, Note_on_c, 7, 80, 100
1, 78547, Note_on_c, 3, 64, 0
1, 78547, Note_on_c, 7, 80, 0
1, 78547, Note_on_c, 7, 81, 100
1, 78577, Note_on_c, 7, 81, 0
1, 78577, Note_on_c, 7, 83, 100
1, 78607, Note_on_c, 7, 83, 0
1, 78607, Note_on_c, 7, 84, 100
1, 78607, Note_on_c, 7, 69, 100
1, 78727, Note_on_c, 7, 84, 0
1, 78727, Note_on_c, 7, 84, 100
1, 78727, Note_on_c, 7, 72, 100
1, 78787, Note_on_c, 7, 84, 0
1, 78787, Note_on_c, 7, 86, 100
1, 78787, Note_on_c, 7, 72, 0
1, 78787, Note_on_c, 7, 77, 100
1, 78802, Note_on_c, 7, 86, 0
1, 78802, Note_on_c, 7, 84, 100
1, 78847, Note_on_c, 7, 84, 0
1, 78847, Note_on_c, 7, 83, 100
1, 78907, Note_on_c, 7, 83, 0
1, 78907, Note_on_c, 7, 84, 100
1, 78907, Note_on_c, 7, 77, 0
1, 78967, Note_on_c, 7, 84, 0
1, 78967, Note_on_c, 7, 83, 100
1, 78967, Note_on_c, 7, 68, 100
1, 78967, Note_on_c, 7, 69, 0
1, 79027, Note_on_c, 7, 68, 0
1, 79087, Note_on_c, 7, 83, 0
1, 79087, Note_on_c, 7, 88, 100
1, 79147, Note_on_c, 7, 88, 0
1, 79147, Note_on_c, 7, 88, 100
1, 79147, Note_on_c, 7, 71, 100
1, 79147, Note_on_c, 7, 67, 100
1, 79207, Note_on_c, 7, 88, 0
1, 79207, Note_on_c, 7, 71, 0
1, 79207, Note_on_c, 7, 67, 0
1, 79327, Note_on_c, 3, 69, 127
1, 79327, Note_on_c, 7, 53, 100
1, 79447, Note_on_c, 3, 69, 0
1, 79447, Note_on_c, 3, 69, 127
1, 79447, Note_on_c, 7, 57, 100
1, 79507, Note_on_c, 3, 69, 0
1, 79507, Note_on_c, 3, 71, 127
1, 79507, Note_on_c, 7, 57, 0
1, 79507, Note_on_c, 7, 62, 100
1, 79522, Note_on_c, 3, 71, 0
1, 79522, Note_on_c, 3, 69, 127
1, 79567, Note_on_c, 3, 69, 0
1, 79567, Note_on_c, 3, 67, 127
1, 79627, Note_on_c, 3, 67, 0
1, 79627, Note_on_c, 3, 69, 127
1, 79627, Note_on_c, 7, 62, 0
1, 79687, Note_on_c, 3, 69, 0
1, 79687, Note_on_c, 3, 67, 127
1, 79687, Note_on_c, 7, 52, 100
1, 79687, Note_on_c, 7, 53, 0
1, 79747, Note_on_c, 7, 52, 0
1, 79807, Note_on_c, 3, 67, 0
1, 79807, Note_on_c, 3, 72, 127
1, 79867, Note_on_c, 3, 72, 0
1, 79867, Note_on_c, 3, 72, 127
1, 79867, Note_on_c, 7, 67, 100
1, 79867, Note_on_c, 7, 64, 100
1, 79927, Note_on_c, 3, 72, 0
1, 79927, Note_on_c, 7, 67, 0
1, 79927, Note_on_c, 7, 64, 0
1, 80047, Note_on_c, 3, 50, 127
1, 80047, Note_on_c, 4, 77, 80
1, 80047, Note_on_c, 7, 65, 100
1, 80047, Note_on_c, 7, 50, 100
1, 80167, Note_on_c, 3, 50, 0
1, 80167, Note_on_c, 3, 53, 127
1, 80167, Note_on_c, 4, 77, 0
1, 80167, Note_on_c, 4, 77, 80
1, 80167, Note_on_c, 7, 65, 0
1, 80167, Note_on_c, 7, 65, 100
1, 80227, Note_on_c, 3, 53, 0
1, 80227, Note_on_c, 3, 58, 127
1, 80227, Note_on_c, 4, 77, 0
1, 80227, Note_on_c, 4, 79, 80
1, 80227, Note_on_c, 7, 65, 0
1, 80227, Note_on_c, 7, 67, 100
1, 80227, Note_on_c, 7, 58, 100
1, 80242, Note_on_c, 4, 79, 0
1, 80242, Note_on_c, 4, 77, 80
1, 80242, Note_on_c, 7, 67, 0
1, 80242, Note_on_c, 7, 65, 100
1, 80287, Note_on_c, 4, 77, 0
1, 80287, Note_on_c, 4, 76, 80
1, 80287, Note_on_c, 7, 65, 0
1, 80287, Note_on_c, 7, 64, 100
1, 80347, Note_on_c, 3, 58, 0
1, 80347, Note_on_c, 3, 50, 127
1, 80347, Note_on_c, 4, 76, 0
1, 80347, Note_on_c, 4, 77, 80
1, 80347, Note_on_c, 7, 64, 0
1, 80347, Note_on_c, 7, 65, 100
1, 80407, Note_on_c, 3, 50, 0
1, 80407, Note_on_c, 3, 49, 127
1, 80407, Note_on_c, 4, 77, 0
1, 80407, Note_on_c, 4, 76, 80
1, 80407, Note_on_c, 7, 65, 0
1, 80407, Note_on_c, 7, 64, 100
1, 80407, Note_on_c, 7, 52, 100
1, 80407, Note_on_c, 7, 50, 0
1, 80407, Note_on_c, 7, 49, 100
1, 80527, Note_on_c, 3, 49, 0
1, 80527, Note_on_c, 3, 52, 127
1, 80527, Note_on_c, 4, 76, 0
1, 80527, Note_on_c, 4, 81, 80
1, 80527, Note_on_c, 7, 64, 0
1, 80527, Note_on_c, 7, 69, 100
1, 80527, Note_on_c, 7, 58, 0
1, 80527, Note_on_c, 7, 57, 100
1, 80587, Note_on_c, 3, 52, 0
1, 80587, Note_on_c, 3, 57, 127
1, 80587, Note_on_c, 4, 81, 0
1, 80587, Note_on_c, 4, 81, 80
1, 80587, Note_on_c, 7, 69, 0
1, 80587, Note_on_c, 7, 69, 100
1, 80587, Note_on_c, 7, 57, 0
1, 80587, Note_on_c, 7, 57, 100
1, 80587, Note_on_c, 7, 49, 0
1, 80587, Note_on_c, 7, 48, 100
1, 80677, Note_on_c, 4, 81, 0
1, 80677, Note_on_c, 4, 79, 80
1, 80677, Note_on_c, 7, 69, 0
1, 80677, Note_on_c, 7, 67, 100
1, 80707, Note_on_c, 3, 57, 0
1, 80707, Note_on_c, 3, 48, 127
1, 80707, Note_on_c, 4, 79, 0
1, 80707, Note_on_c, 4, 77, 80
1, 80707, Note_on_c, 7, 67, 0
1, 80707, Note_on_c, 7, 65, 100
1, 80737, Note_on_c, 4, 77, 0
1, 80737, Note_on_c, 4, 76, 80
1, 80737, Note_on_c, 7, 65, 0
1, 80737, Note_on_c, 7, 64, 100
1, 80767, Note_on_c, 3, 48, 0
1, 80767, Note_on_c, 3, 47, 127
1, 80767, Note_on_c, 4, 76, 0
1, 80767, Note_on_c, 4, 75, 80
1, 80767, Note_on_c, 7, 64, 0
1, 80767, Note_on_c, 7, 63, 100
1, 80767, Note_on_c, 7, 57, 0
1, 80767, Note_on_c, 7, 57, 100
1, 80767, Note_on_c, 7, 52, 0
1, 80767, Note_on_c, 7, 54, 100
1, 80767, Note_on_c, 7, 48, 0
1, 80767, Note_on_c, 7, 47, 100
1, 80767, Note_on_c, 7, 35, 100
1, 80827, Note_on_c, 3, 47, 0
1, 80827, Note_on_c, 7, 63, 0
1, 80827, Note_on_c, 7, 69, 100
1, 80827, Note_on_c, 7, 57, 0
1, 80827, Note_on_c, 7, 63, 100
1, 80827, Note_on_c, 7, 54, 0
1, 80827, Note_on_c, 7, 66, 100
1, 80887, Note_on_c, 4, 75, 0
1, 80887, Note_on_c, 7, 69, 0
1, 80887, Note_on_c, 7, 69, 100
1, 80887, Note_on_c, 7, 63, 0
1, 80887, Note_on_c, 7, 63, 100
1, 80887, Note_on_c, 7, 66, 0
1, 80887, Note_on_c, 7, 66, 100
1, 80887, Note_on_c, 7, 47, 0
1, 80887, Note_on_c, 7, 51, 100
1, 80887, Note_on_c, 7, 35, 0
1, 80887, Note_on_c, 7, 39, 100
1, 80947, Note_on_c, 3, 81, 127
1, 80947, Note_on_c, 7, 69, 0
1, 80947, Note_on_c, 7, 69, 100
1, 80947, Note_on_c, 7, 63, 0
1, 80947, Note_on_c, 7, 63, 100
1, 80947, Note_on_c, 7, 66, 0
1, 80947, Note_on_c, 7, 66, 100
1, 80947, Note_on_c, 7, 51, 0
1, 80947, Note_on_c, 7, 54, 100
1, 80947, Note_on_c, 7, 39, 0
1, 80947, Note_on_c, 7, 42, 100
1, 81007, Note_on_c, 7, 69, 0
1, 81007, Note_on_c, 7, 69, 100
1, 81007, Note_on_c, 7, 63, 0
1, 81007, Note_on_c, 7, 63, 100
1, 81007, Note_on_c, 7, 66, 0
1, 81007, Note_on_c, 7, 66, 100
1, 81067, Note_on_c, 7, 69, 0
1, 81067, Note_on_c, 7, 69, 100
1, 81067, Note_on_c, 7, 63, 0
1, 81067, Note_on_c, 7, 63, 100
1, 81067, Note_on_c, 7, 66, 0
1, 81067, Note_on_c, 7, 66, 100
1, 81067, Note_on_c, 7, 54, 0
1, 81067, Note_on_c, 7, 51, 100
1, 81067, Note_on_c, 7, 42, 0
1, 81067, Note_on_c, 7, 39, 100
1, 81127, Note_on_c, 7, 69, 0
1, 81127, Note_on_c, 7, 69, 100
1, 81127, Note_on_c, 7, 63, 0
1, 81127, Note_on_c, 7, 63, 100
1, 81127, Note_on_c, 7, 66, 0
1, 81127, Note_on_c, 7, 66, 100
1, 81127, Note_on_c, 7, 51, 0
1, 81127, Note_on_c, 7, 47, 100
1, 81127, Note_on_c, 7, 39, 0
1, 81127, Note_on_c, 7, 35, 100
1, 81157, Note_on_c, 3, 81, 0
1, 81157, Note_on_c, 3, 80, 127
1, 81187, Note_on_c, 3, 80, 0
1, 81187, Note_on_c, 3, 78, 127
1, 81187, Note_on_c, 7, 69, 0
1, 81187, Note_on_c, 7, 63, 0
1, 81187, Note_on_c, 7, 66, 0
1, 81187, Note_on_c, 7, 47, 0
1, 81187, Note_on_c, 7, 35, 0
1, 81217, Note_on_c, 3, 78, 0
1, 81217, Note_on_c, 3, 76, 127
1, 81247, Note_on_c, 3, 76, 0
1, 81247, Note_on_c, 3, 75, 127
1, 81277, Note_on_c, 3, 75, 0
1, 81277, Note_on_c, 3, 73, 127
1, 81307, Note_on_c, 3, 73, 0
1, 81307, Note_on_c, 3, 71, 127
1, 81307, Note_on_c, 7, 63, 100
1, 81307, Note_on_c, 7, 57, 100
1, 81307, Note_on_c, 7, 54, 100
1, 81307, Note_on_c, 7, 47, 100
1, 81307, Note_on_c, 7, 35, 100
1, 81337, Note_on_c, 3, 71, 0
1, 81337, Note_on_c, 3, 73, 127
1, 81367, Note_on_c, 3, 73, 0
1, 81367, Note_on_c, 3, 71, 127
1, 81367, Note_on_c, 7, 63, 0
1, 81367, Note_on_c, 7, 57, 0
1, 81367, Note_on_c, 7, 54, 0
1, 81367, Note_on_c, 7, 47, 0
1, 81367, Note_on_c, 7, 35, 0
1, 81397, Note_on_c, 3, 71, 0
1, 81397, Note_on_c, 3, 69, 127
1, 81427, Note_on_c, 3, 69, 0
1, 81427, Note_on_c, 3, 68, 127
1, 81457, Note_on_c, 3, 68, 0
1, 81457, Note_on_c, 3, 66, 127
1, 81487, Note_on_c, 3, 66, 0
1, 81487, Note_on_c, 3, 64, 127
1, 81487, Note_on_c, 7, 64, 100
1, 81487, Note_on_c, 7, 56, 100
1, 81487, Note_on_c, 7, 52, 100
1, 81487, Note_on_c, 7, 40, 100
1, 81517, Note_on_c, 3, 64, 0
1, 81517, Note_on_c, 3, 66, 127
1, 81547, Note_on_c, 3, 66, 0
1, 81547, Note_on_c, 3, 68, 127
1, 81547, Note_on_c, 7, 64, 0
1, 81547, Note_on_c, 7, 68, 100
1, 81547, Note_on_c, 7, 56, 0
1, 81547, Note_on_c, 7, 64, 100
1, 81547, Note_on_c, 7, 59, 100
1, 81547, Note_on_c, 7, 52, 0
1, 81547, Note_on_c, 7, 40, 0
1, 81577, Note_on_c, 3, 68, 0
1, 81577, Note_on_c, 3, 69, 127
1, 81607, Note_on_c, 3, 69, 0
1, 81607, Note_on_c, 3, 71, 127
1, 81607, Note_on_c, 7, 68, 0
1, 81607, Note_on_c, 7, 68, 100
1, 81607, Note_on_c, 7, 64, 0
1, 81607, Note_on_c, 7, 64, 100
1, 81607, Note_on_c, 7, 59, 0
1, 81607, Note_on_c, 7, 59, 100
1, 81637, Note_on_c, 3, 71, 0
1, 81637, Note_on_c, 3, 73, 127
1, 81667, Note_on_c, 3, 73, 0
1, 81667, Note_on_c, 3, 75, 127
1, 81667, Note_on_c, 7, 68, 0
1, 81667, Note_on_c, 7, 64, 0
1, 81667, Note_on_c, 7, 59, 0
1, 81667, Note_on_c, 7, 56, 100
1, 81667, Note_on_c, 7, 44, 100
1, 81697, Note_on_c, 3, 75, 0
1, 81697, Note_on_c, 3, 76, 127
1, 81727, Note_on_c, 3, 76, 0
1, 81727, Note_on_c, 3, 78, 127
1, 81727, Note_on_c, 7, 71, 100
1, 81727, Note_on_c, 7, 64, 100
1, 81727, Note_on_c, 7, 59, 100
1, 81727, Note_on_c, 7, 56, 0
1, 81727, Note_on_c, 7, 44, 0
1, 81757, Note_on_c, 3, 78, 0
1, 81757, Note_on_c, 3, 80, 127
1, 81787, Note_on_c, 3, 80, 0
1, 81787, Note_on_c, 3, 81, 127
1, 81787, Note_on_c, 7, 71, 0
1, 81787, Note_on_c, 7, 71, 100
1, 81787, Note_on_c, 7, 64, 0
1, 81787, Note_on_c, 7, 64, 100
1, 81787, Note_on_c, 7, 59, 0
1, 81787, Note_on_c, 7, 59, 100
1, 81817, Note_on_c, 3, 81, 0
1, 81817, Note_on_c, 3, 83, 127
1, 81847, Note_on_c, 3, 83, 0
1, 81847, Note_on_c, 3, 82, 127
1, 81847, Note_on_c, 7, 71, 0
1, 81847, Note_on_c, 7, 64, 0
1, 81847, Note_on_c, 7, 59, 0
1, 81847, Note_on_c, 7, 54, 100
1, 81847, Note_on_c, 7, 42, 100
1, 81877, Note_on_c, 3, 82, 0
1, 81877, Note_on_c, 3, 81, 127
1, 81907, Note_on_c, 3, 81, 0
1, 81907, Note_on_c, 3, 80, 127
1, 81907, Note_on_c, 7, 69, 100
1, 81907, Note_on_c, 7, 63, 100
1, 81907, Note_on_c, 7, 59, 100
1, 81907, Note_on_c, 7, 54, 0
1, 81907, Note_on_c, 7, 42, 0
1, 81937, Note_on_c, 3, 80, 0
1, 81937, Note_on_c, 3, 78, 127
1, 81967, Note_on_c, 3, 78, 0
1, 81967, Note_on_c, 3, 76, 127
1, 81967, Note_on_c, 7, 69, 0
1, 81967, Note_on_c, 7, 69, 100
1, 81967, Note_on_c, 7, 63, 0
1, 81967, Note_on_c, 7, 63, 100
1, 81967, Note_on_c, 7, 59, 0
1, 81967, Note_on_c, 7, 59, 100
1, 81997, Note_on_c, 3, 76, 0
1, 81997, Note_on_c, 3, 75, 127
1, 82027, Note_on_c, 3, 75, 0
1, 82027, Note_on_c, 3, 73, 127
1, 82027, Note_on_c, 7, 69, 0
1, 82027, Note_on_c, 7, 63, 0
1, 82027, Note_on_c, 7, 59, 0
1, 82027, Note_on_c, 7, 47, 100
1, 82027, Note_on_c, 7, 35, 100
1, 82057, Note_on_c, 3, 73, 0
1, 82057, Note_on_c, 3, 71, 127
1, 82087, Note_on_c, 3, 71, 0
1, 82087, Note_on_c, 3, 69, 127
1, 82087, Note_on_c, 7, 66, 100
1, 82087, Note_on_c, 7, 63, 100
1, 82087, Note_on_c, 7, 59, 100
1, 82087, Note_on_c, 7, 47, 0
1, 82087, Note_on_c, 7, 35, 0
1, 82117, Note_on_c, 3, 69, 0
1, 82117, Note_on_c, 3, 68, 127
1, 82147, Note_on_c, 3, 68, 0
1, 82147, Note_on_c, 3, 69, 127
1, 82147, Note_on_c, 7, 66, 0
1, 82147, Note_on_c, 7, 66, 100
1, 82147, Note_on_c, 7, 63, 0
1, 82147, Note_on_c, 7, 63, 100
1, 82147, Note_on_c, 7, 59, 0
1, 82147, Note_on_c, 7, 59, 100
1, 82177, Note_on_c, 3, 69, 0
1, 82177, Note_on_c, 3, 66, 127
1, 82207, Note_on_c, 3, 66, 0
1, 82207, Note_on_c, 3, 64, 127
1, 82207, Note_on_c, 7, 66, 0
1, 82207, Note_on_c, 7, 63, 0
1, 82207, Note_on_c, 7, 59, 0
1, 82207, Note_on_c, 7, 52, 100
1, 82207, Note_on_c, 7, 40, 100
1, 82237, Note_on_c, 3, 64, 0
1, 82237, Note_on_c, 3, 66, 127
1, 82267, Note_on_c, 3, 66, 0
1, 82267, Note_on_c, 3, 68, 127
1, 82267, Note_on_c, 7, 68, 100
1, 82267, Note_on_c, 7, 64, 100
1, 82267, Note_on_c, 7, 59, 100
1, 82267, Note_on_c, 7, 52, 0
1, 82267, Note_on_c, 7, 40, 0
1, 82297, Note_on_c, 3, 68, 0
1, 82297, Note_on_c, 3, 69, 127
1, 82327, Note_on_c, 3, 69, 0
1, 82327, Note_on_c, 3, 71, 127
1, 82327, Note_on_c, 7, 68, 0
1, 82327, Note_on_c, 7, 68, 100
1, 82327, Note_on_c, 7, 64, 0
1, 82327, Note_on_c, 7, 64, 100
1, 82327, Note_on_c, 7, 59, 0
1, 82327, Note_on_c, 7, 59, 100
1, 82357, Note_on_c, 3, 71, 0
1, 82357, Note_on_c, 3, 73, 127
1, 82387, Note_on_c, 3, 73, 0
1, 82387, Note_on_c, 3, 75, 127
1, 82387, Note_on_c, 7, 68, 0
1, 82387, Note_on_c, 7, 64, 0
1, 82387, Note_on_c, 7, 59, 0
1, 82387, Note_on_c, 7, 55, 100
1, 82387, Note_on_c, 7, 43, 100
1, 82417, Note_on_c, 3, 75, 0
1, 82417, Note_on_c, 3, 76, 127
1, 82447, Note_on_c, 3, 76, 0
1, 82447, Note_on_c, 3, 78, 127
1, 82447, Note_on_c, 7, 71, 100
1, 82447, Note_on_c, 7, 64, 100
1, 82447, Note_on_c, 7, 59, 100
1, 82447, Note_on_c, 7, 55, 0
1, 82447, Note_on_c, 7, 43, 0
1, 82477, Note_on_c, 3, 78, 0
1, 82477, Note_on_c, 3, 80, 127
1, 82507, Note_on_c, 3, 80, 0
1, 82507, Note_on_c, 3, 81, 127
1, 82507, Note_on_c, 7, 71, 0
1, 82507, Note_on_c, 7, 71, 100
1, 82507, Note_on_c, 7, 64, 0
1, 82507, Note_on_c, 7, 64, 100
1, 82507, Note_on_c, 7, 59, 0
1, 82507, Note_on_c, 7, 59, 100
1, 82537, Note_on_c, 3, 81, 0
1, 82537, Note_on_c, 3, 83, 127
1, 82567, Note_on_c, 3, 83, 0
1, 82567, Note_on_c, 3, 82, 127
1, 82567, Note_on_c, 7, 71, 0
1, 82567, Note_on_c, 7, 64, 0
1, 82567, Note_on_c, 7, 59, 0
1, 82567, Note_on_c, 7, 54, 100
1, 82567, Note_on_c, 7, 42, 100
1, 82597, Note_on_c, 3, 82, 0
1, 82597, Note_on_c, 3, 81, 127
1, 82627, Note_on_c, 3, 81, 0
1, 82627, Note_on_c, 3, 80, 127
1, 82627, Note_on_c, 7, 69, 100
1, 82627, Note_on_c, 7, 63, 100
1, 82627, Note_on_c, 7, 59, 100
1, 82627, Note_on_c, 7, 54, 0
1, 82627, Note_on_c, 7, 42, 0
1, 82657, Note_on_c, 3, 80, 0
1, 82657, Note_on_c, 3, 78, 127
1, 82687, Note_on_c, 3, 78, 0
1, 82687, Note_on_c, 3, 76, 127
1, 82687, Note_on_c, 7, 69, 0
1, 82687, Note_on_c, 7, 69, 100
1, 82687, Note_on_c, 7, 63, 0
1, 82687, Note_on_c, 7, 63, 100
1, 82687, Note_on_c, 7, 59, 0
1, 82687, Note_on_c, 7, 59, 100
1, 82717, Note_on_c, 3, 76, 0
1, 82717, Note_on_c, 3, 75, 127
1, 82747, Note_on_c, 3, 75, 0
1, 82747, Note_on_c, 3, 73, 127
1, 82747, Note_on_c, 7, 69, 0
1, 82747, Note_on_c, 7, 63, 0
1, 82747, Note_on_c, 7, 59, 0
1, 82747, Note_on_c, 7, 47, 100
1, 82747, Note_on_c, 7, 35, 100
1, 82777, Note_on_c, 3, 73, 0
1, 82777, Note_on_c, 3, 71, 127
1, 82807, Note_on_c, 3, 71, 0
1, 82807, Note_on_c, 3, 69, 127
1, 82807, Note_on_c, 7, 66, 100
1, 82807, Note_on_c, 7, 63, 100
1, 82807, Note_on_c, 7, 59, 100
1, 82807, Note_on_c, 7, 47, 0
1, 82807, Note_on_c, 7, 35, 0
1, 82837, Note_on_c, 3, 69, 0
1, 82837, Note_on_c, 3, 68, 127
1, 82867, Note_on_c, 3, 68, 0
1, 82867, Note_on_c, 3, 69, 127
1, 82867, Note_on_c, 7, 66, 0
1, 82867, Note_on_c, 7, 66, 100
1, 82867, Note_on_c, 7, 63, 0
1, 82867, Note_on_c, 7, 63, 100
1, 82867, Note_on_c, 7, 59, 0
1, 82867, Note_on_c, 7, 59, 100
1, 82897, Note_on_c, 3, 69, 0
1, 82897, Note_on_c, 3, 66, 127
1, 82927, Note_on_c, 3, 66, 0
1, 82927, Note_on_c, 3, 64, 127
1, 82927, Note_on_c, 7, 66, 0
1, 82927, Note_on_c, 7, 64, 100
1, 82927, Note_on_c, 7, 63, 0
1, 82927, Note_on_c, 7, 59, 0
1, 82927, Note_on_c, 7, 59, 100
1, 82927, Note_on_c, 7, 52, 100
1, 82927, Note_on_c, 7, 40, 100
1, 82987, Note_on_c, 6, 52, 80
1, 82987, Note_on_c, 6, 40, 80
1, 82987, Note_on_c, 7, 59, 0
1, 83047, Note_on_c, 3, 64, 0
1, 83047, Note_on_c, 6, 52, 0
1, 83047, Note_on_c, 6, 52, 80
1, 83047, Note_on_c, 6, 40, 0
1, 83047, Note_on_c, 6, 40, 80
1, 83047, Note_on_c, 7, 64, 0
1, 83047, Note_on_c, 7, 40, 0
1, 83107, Note_on_c, 6, 52, 0
1, 83107, Note_on_c, 6, 52, 80
1, 83107, Note_on_c, 6, 40, 0
1, 83107, Note_on_c, 6, 40, 80
1, 83107, Note_on_c, 7, 52, 0
1, 83107, Note_on_c, 7, 52, 100
1, 83167, Note_on_c, 6, 52, 0
1, 83167, Note_on_c, 6, 52, 80
1, 83167, Note_on_c, 6, 40, 0
1, 83167, Note_on_c, 6, 40, 80
1, 83167, Note_on_c, 7, 52, 0
1, 83167, Note_on_c, 7, 52, 100
1, 83227, Note_on_c, 6, 52, 0
1, 83227, Note_on_c, 6, 52, 80
1, 83227, Note_on_c, 6, 40, 0
1, 83227, Note_on_c, 6, 40, 80
1, 83227, Note_on_c, 7, 52, 0
1, 83227, Note_on_c, 7, 52, 100
1, 83287, Note_on_c, 4, 80, 80
1, 83287, Note_on_c, 4, 78, 80
1, 83287, Note_on_c, 5, 65, 80
1, 83287, Note_on_c, 5, 62, 80
1, 83287, Note_on_c, 6, 52, 0
1, 83287, Note_on_c, 6, 52, 80
1, 83287, Note_on_c, 6, 40, 0
1, 83287, Note_on_c, 6, 40, 80
1, 83287, Note_on_c, 7, 77, 100
1, 83287, Note_on_c, 7, 68, 100
1, 83287, Note_on_c, 7, 71, 100
1, 83287, Note_on_c, 7, 52, 0
1, 83287, Note_on_c, 7, 62, 100
1, 83287, Note_on_c, 7, 52, 100
1, 83287, Note_on_c, 7, 40, 100
1, 83347, Note_on_c, 7, 52, 0
1, 83347, Note_on_c, 7, 52, 100
1, 83347, Note_on_c, 7, 40, 0
1, 83347, Note_on_c, 7, 40, 100
1, 83407, Note_on_c, 7, 52, 0
1, 83407, Note_on_c, 7, 52, 100
1, 83407, Note_on_c, 7, 40, 0
1, 83407, Note_on_c, 7, 40, 100
1, 83467, Note_on_c, 4, 78, 0
1, 83467, Note_on_c, 4, 78, 80
1, 83467, Note_on_c, 5, 62, 0
1, 83467, Note_on_c, 5, 59, 80
1, 83467, Note_on_c, 7, 62, 0
1, 83467, Note_on_c, 7, 59, 100
1, 83467, Note_on_c, 7, 52, 0
1, 83467, Note_on_c, 7, 52, 100
1, 83467, Note_on_c, 7, 40, 0
1, 83467, Note_on_c, 7, 40, 100
1, 83527, Note_on_c, 4, 78, 0
1, 83527, Note_on_c, 4, 76, 80
1, 83527, Note_on_c, 5, 65, 0
1, 83527, Note_on_c, 5, 64, 80
1, 83527, Note_on_c, 7, 77, 0
1, 83527, Note_on_c, 7, 76, 100
1, 83527, Note_on_c, 7, 52, 0
1, 83527, Note_on_c, 7, 52, 100
1, 83527, Note_on_c, 7, 40, 0
1, 83527, Note_on_c, 7, 40, 100
1, 83587, Note_on_c, 4, 76, 0
1, 83587, Note_on_c, 4, 74, 80
1, 83587, Note_on_c, 5, 64, 0
1, 83587, Note_on_c, 5, 62, 80
1, 83587, Note_on_c, 5, 59, 0
1, 83587, Note_on_c, 5, 56, 80
1, 83587, Note_on_c, 7, 76, 0
1, 83587, Note_on_c, 7, 74, 100
1, 83587, Note_on_c, 7, 59, 0
1, 83587, Note_on_c, 7, 64, 100
1, 83587, Note_on_c, 7, 52, 0
1, 83587, Note_on_c, 7, 52, 100
1, 83587, Note_on_c, 7, 40, 0
1, 83587, Note_on_c, 7, 40, 100
1, 83647, Note_on_c, 4, 80, 0
1, 83647, Note_on_c, 4, 81, 80
1, 83647, Note_on_c, 4, 74, 0
1, 83647, Note_on_c, 4, 72, 80
1, 83647, Note_on_c, 5, 62, 0
1, 83647, Note_on_c, 5, 60, 80
1, 83647, Note_on_c, 5, 56, 0
1, 83647, Note_on_c, 5, 57, 80
1, 83647, Note_on_c, 7, 74, 0
1, 83647, Note_on_c, 7, 72, 100
1, 83647, Note_on_c, 7, 68, 0
1, 83647, Note_on_c, 7, 71, 0
1, 83647, Note_on_c, 7, 69, 100
1, 83647, Note_on_c, 7, 64, 0
1, 83647, Note_on_c, 7, 64, 100
1, 83647, Note_on_c, 7, 52, 0
1, 83647, Note_on_c, 7, 52, 100
1, 83647, Note_on_c, 7, 40, 0
1, 83647, Note_on_c, 7, 40, 100
1, 83707, Note_on_c, 3, 76, 127
1, 83767, Note_on_c, 3, 76, 0
1, 83767, Note_on_c, 3, 74, 127
1, 83767, Note_on_c, 4, 81, 0
1, 83767, Note_on_c, 4, 72, 0
1, 83767, Note_on_c, 5, 60, 0
1, 83767, Note_on_c, 5, 57, 0
1, 83767, Note_on_c, 6, 52, 0
1, 83767, Note_on_c, 6, 40, 0
1, 83767, Note_on_c, 7, 72, 0
1, 83767, Note_on_c, 7, 69, 0
1, 83767, Note_on_c, 7, 64, 0
1, 83767, Note_on_c, 7, 52, 0
1, 83767, Note_on_c, 7, 40, 0
1, 83827, Note_on_c, 3, 74, 0
1, 83827, Note_on_c, 3, 72, 127
1, 83887, Note_on_c, 3, 72, 0
1, 83887, Note_on_c, 3, 71, 127
1, 83947, Note_on_c, 3, 71, 0
1, 83947, Note_on_c, 3, 69, 127
1, 84007, Note_on_c, 3, 69, 0
1, 84007, Note_on_c, 3, 68, 127
1, 84007, Note_on_c, 7, 59, 100
1, 84007, Note_on_c, 7, 52, 100
1, 84067, Note_on_c, 7, 59, 0
1, 84067, Note_on_c, 7, 62, 100
1, 84127, Note_on_c, 3, 68, 0
1, 84127, Note_on_c, 3, 68, 127
1, 84127, Note_on_c, 7, 62, 0
1, 84127, Note_on_c, 7, 64, 100
1, 84127, Note_on_c, 7, 52, 0
1, 84187, Note_on_c, 3, 68, 0
1, 84187, Note_on_c, 3, 71, 127
1, 84187, Note_on_c, 7, 64, 0
1, 84187, Note_on_c, 7, 57, 100
1, 84187, Note_on_c, 7, 52, 100
1, 84202, Note_on_c, 3, 71, 0
1, 84202, Note_on_c, 3, 69, 127
1, 84225, Note_on_c, 3, 69, 0
1, 84247, Note_on_c, 3, 68, 127
1, 84247, Note_on_c, 7, 57, 0
1, 84247, Note_on_c, 7, 60, 100
1, 84277, Note_on_c, 3, 68, 0
1, 84307, Note_on_c, 3, 69, 127
1, 84307, Note_on_c, 7, 60, 0
1, 84307, Note_on_c, 7, 64, 100
1, 84307, Note_on_c, 7, 52, 0
1, 84337, Note_on_c, 3, 69, 0
1, 84367, Note_on_c, 3, 71, 127
1, 84367, Note_on_c, 7, 64, 0
1, 84367, Note_on_c, 7, 56, 100
1, 84367, Note_on_c, 7, 52, 100
1, 84427, Note_on_c, 6, 52, 80
1, 84427, Note_on_c, 6, 40, 80
1, 84427, Note_on_c, 7, 64, 100
1, 84427, Note_on_c, 7, 52, 0
1, 84427, Note_on_c, 7, 52, 100
1, 84487, Note_on_c, 3, 71, 0
1, 84487, Note_on_c, 6, 52, 0
1, 84487, Note_on_c, 6, 52, 80
1, 84487, Note_on_c, 6, 40, 0
1, 84487, Note_on_c, 6, 40, 80
1, 84487, Note_on_c, 7, 56, 0
1, 84487, Note_on_c, 7, 64, 0
1, 84487, Note_on_c, 7, 64, 100
1, 84487, Note_on_c, 7, 52, 0
1, 84487, Note_on_c, 7, 52, 100
1, 84547, Note_on_c, 6, 52, 0
1, 84547, Note_on_c, 6, 52, 80
1, 84547, Note_on_c, 6, 40, 0
1, 84547, Note_on_c, 6, 40, 80
1, 84547, Note_on_c, 7, 64, 0
1, 84547, Note_on_c, 7, 64, 100
1, 84547, Note_on_c, 7, 52, 0
1, 84547, Note_on_c, 7, 52, 100
1, 84607, Note_on_c, 6, 52, 0
1, 84607, Note_on_c, 6, 52, 80
1, 84607, Note_on_c, 6, 40, 0
1, 84607, Note_on_c, 6, 40, 80
1, 84607, Note_on_c, 7, 64, 0
1, 84607, Note_on_c, 7, 64, 100
1, 84607, Note_on_c, 7, 52, 0
1, 84607, Note_on_c, 7, 52, 100
1, 84667, Note_on_c, 6, 52, 0
1, 84667, Note_on_c, 6, 52, 80
1, 84667, Note_on_c, 6, 40, 0
1, 84667, Note_on_c, 6, 40, 80
1, 84667, Note_on_c, 7, 64, 0
1, 84667, Note_on_c, 7, 64, 100
1, 84667, Note_on_c, 7, 52, 0
1, 84667, Note_on_c, 7, 52, 100
1, 84727, Note_on_c, 4, 89, 80
1, 84727, Note_on_c, 4, 86, 80
1, 84727, Note_on_c, 5, 65, 80
1, 84727, Note_on_c, 5, 56, 80
1, 84727, Note_on_c, 6, 52, 0
1, 84727, Note_on_c, 6, 52, 80
1, 84727, Note_on_c, 6, 40, 0
1, 84727, Note_on_c, 6, 40, 80
1, 84727, Note_on_c, 7, 71, 100
1, 84727, Note_on_c, 7, 80, 100
1, 84727, Note_on_c, 7, 64, 0
1, 84727, Note_on_c, 7, 77, 100
1, 84727, Note_on_c, 7, 52, 0
1, 84727, Note_on_c, 7, 62, 100
1, 84727, Note_on_c, 7, 52, 100
1, 84727, Note_on_c, 7, 40, 100
1, 84787, Note_on_c, 7, 52, 0
1, 84787, Note_on_c, 7, 52, 100
1, 84787, Note_on_c, 7, 40, 0
1, 84787, Note_on_c, 7, 40, 100
1, 84847, Note_on_c, 7, 52, 0
1, 84847, Note_on_c, 7, 52, 100
1, 84847, Note_on_c, 7, 40, 0
1, 84847, Note_on_c, 7, 40, 100
1, 84907, Note_on_c, 4, 86, 0
1, 84907, Note_on_c, 4, 83, 80
1, 84907, Note_on_c, 7, 62, 0
1, 84907, Note_on_c, 7, 59, 100
1, 84907, Note_on_c, 7, 52, 0
1, 84907, Note_on_c, 7, 52, 100
1, 84907, Note_on_c, 7, 40, 0
1, 84907, Note_on_c, 7, 40, 100
1, 84967, Note_on_c, 4, 89, 0
1, 84967, Note_on_c, 4, 88, 80
1, 84967, Note_on_c, 5, 65, 0
1, 84967, Note_on_c, 5, 64, 80
1, 84967, Note_on_c, 7, 77, 0
1, 84967, Note_on_c, 7, 76, 100
1, 84967, Note_on_c, 7, 52, 0
1, 84967, Note_on_c, 7, 52, 100
1, 84967, Note_on_c, 7, 40, 0
1, 84967, Note_on_c, 7, 40, 100
1, 85027, Note_on_c, 4, 88, 0
1, 85027, Note_on_c, 4, 86, 80
1, 85027, Note_on_c, 4, 83, 0
1, 85027, Note_on_c, 4, 80, 80
1, 85027, Note_on_c, 5, 64, 0
1, 85027, Note_on_c, 5, 62, 80
1, 85027, Note_on_c, 5, 56, 0
1, 85027, Note_on_c, 5, 59, 80
1, 85027, Note_on_c, 7, 76, 0
1, 85027, Note_on_c, 7, 74, 100
1, 85027, Note_on_c, 7, 59, 0
1, 85027, Note_on_c, 7, 64, 100
1, 85027, Note_on_c, 7, 52, 0
1, 85027, Note_on_c, 7, 52, 100
1, 85027, Note_on_c, 7, 40, 0
1, 85027, Note_on_c, 7, 40, 100
1, 85087, Note_on_c, 4, 86, 0
1, 85087, Note_on_c, 4, 84, 80
1, 85087, Note_on_c, 4, 80, 0
1, 85087, Note_on_c, 4, 81, 80
1, 85087, Note_on_c, 5, 62, 0
1, 85087, Note_on_c, 5, 60, 80
1, 85087, Note_on_c, 5, 59, 0
1, 85087, Note_on_c, 5, 57, 80
1, 85087, Note_on_c, 7, 71, 0
1, 85087, Note_on_c, 7, 80, 0
1, 85087, Note_on_c, 7, 69, 100
1, 85087, Note_on_c, 7, 81, 100
1, 85087, Note_on_c, 7, 74, 0
1, 85087, Note_on_c, 7, 72, 100
1, 85087, Note_on_c, 7, 64, 0
1, 85087, Note_on_c, 7, 64, 100
1, 85087, Note_on_c, 7, 52, 0
1, 85087, Note_on_c, 7, 52, 100
1, 85087, Note_on_c, 7, 40, 0
1, 85087, Note_on_c, 7, 40, 100
1, 85147, Note_on_c, 3, 52, 127
1, 85207, Note_on_c, 3, 52, 0
1, 85207, Note_on_c, 3, 50, 127
1, 85207, Note_on_c, 4, 84, 0
1, 85207, Note_on_c, 4, 81, 0
1, 85207, Note_on_c, 5, 60, 0
1, 85207, Note_on_c, 5, 57, 0
1, 85207, Note_on_c, 6, 52, 0
1, 85207, Note_on_c, 6, 40, 0
1, 85207, Note_on_c, 7, 69, 0
1, 85207, Note_on_c, 7, 81, 0
1, 85207, Note_on_c, 7, 72, 0
1, 85207, Note_on_c, 7, 64, 0
1, 85207, Note_on_c, 7, 52, 0
1, 85207, Note_on_c, 7, 40, 0
1, 85267, Note_on_c, 3, 50, 0
1, 85267, Note_on_c, 3, 48, 127
1, 85327, Note_on_c, 3, 48, 0
1, 85327, Note_on_c, 3, 47, 127
1, 85387, Note_on_c, 3, 47, 0
1, 85387, Note_on_c, 3, 45, 127
1, 85447, Note_on_c, 3, 45, 0
1, 85447, Note_on_c, 3, 57, 127
1, 85447, Note_on_c, 7, 53, 100
1, 85447, Note_on_c, 7, 41, 100
1, 85507, Note_on_c, 7, 68, 100
1, 85507, Note_on_c, 7, 56, 100
1, 85567, Note_on_c, 7, 68, 0
1, 85567, Note_on_c, 7, 69, 100
1, 85567, Note_on_c, 7, 56, 0
1, 85567, Note_on_c, 7, 57, 100
1, 85627, Note_on_c, 3, 57, 0
1, 85627, Note_on_c, 3, 51, 127
1, 85627, Note_on_c, 7, 69, 0
1, 85627, Note_on_c, 7, 72, 100
1, 85627, Note_on_c, 7, 57, 0
1, 85627, Note_on_c, 7, 60, 100
1, 85687, Note_on_c, 7, 72, 0
1, 85687, Note_on_c, 7, 71, 100
1, 85687, Note_on_c, 7, 60, 0
1, 85687, Note_on_c, 7, 59, 100
1, 85747, Note_on_c, 7, 71, 0
1, 85747, Note_on_c, 7, 69, 100
1, 85747, Note_on_c, 7, 59, 0
1, 85747, Note_on_c, 7, 57, 100
1, 85807, Note_on_c, 3, 51, 0
1, 85807, Note_on_c, 3, 52, 127
1, 85807, Note_on_c, 7, 69, 0
1, 85807, Note_on_c, 7, 68, 100
1, 85807, Note_on_c, 7, 57, 0
1, 85807, Note_on_c, 7, 56, 100
1, 85807, Note_on_c, 7, 52, 100
1, 85807, Note_on_c, 7, 53, 0
1, 85807, Note_on_c, 7, 41, 0
1, 85807, Note_on_c, 7, 40, 100
1, 85867, Note_on_c, 3, 52, 0
1, 85927, Note_on_c, 7, 68, 0
1, 85927, Note_on_c, 7, 56, 0
1, 85927, Note_on_c, 7, 52, 0
1, 85927, Note_on_c, 7, 40, 0
1, 85987, Note_on_c, 3, 75, 127
1, 86017, Note_on_c, 3, 75, 0
1, 86017, Note_on_c, 3, 76, 127
1, 86047, Note_on_c, 3, 76, 0
1, 86047, Note_on_c, 3, 77, 127
1, 86077, Note_on_c, 3, 77, 0
1, 86077, Note_on_c, 3, 78, 127
1, 86107, Note_on_c, 3, 78, 0
1, 86107, Note_on_c, 3, 79, 127
1, 86137, Note_on_c, 3, 79, 0
1, 86137, Note_on_c, 3, 80, 127
1, 86167, Note_on_c, 3, 80, 0
1, 86167, Note_on_c, 3, 81, 127
1, 86227, Note_on_c, 3, 81, 0
1, 86347, Note_on_c, 7, 75, 100
1, 86347, Note_on_c, 7, 74, 100
1, 86347, Note_on_c, 7, 65, 100
1, 86362, Note_on_c, 7, 74, 0
1, 86362, Note_on_c, 7, 72, 100
1, 86385, Note_on_c, 7, 72, 0
1, 86407, Note_on_c, 7, 71, 100
1, 86437, Note_on_c, 7, 71, 0
1, 86467, Note_on_c, 7, 69, 100
1, 86497, Note_on_c, 7, 69, 0
1, 86527, Note_on_c, 7, 75, 0
1, 86527, Note_on_c, 7, 76, 100
1, 86527, Note_on_c, 7, 68, 100
1, 86527, Note_on_c, 7, 65, 0
1, 86527, Note_on_c, 7, 64, 100
1, 86587, Note_on_c, 7, 76, 0
1, 86587, Note_on_c, 7, 68, 0
1, 86587, Note_on_c, 7, 64, 0
1, 86707, Note_on_c, 3, 63, 127
1, 86737, Note_on_c, 3, 63, 0
1, 86737, Note_on_c, 3, 64, 127
1, 86767, Note_on_c, 3, 64, 0
1, 86767, Note_on_c, 3, 65, 127
1, 86797, Note_on_c, 3, 65, 0
1, 86797, Note_on_c, 3, 66, 127
1, 86827, Note_on_c, 3, 66, 0
1, 86827, Note_on_c, 3, 67, 127
1, 86857, Note_on_c, 3, 67, 0
1, 86857, Note_on_c, 3, 68, 127
1, 86887, Note_on_c, 3, 68, 0
1, 86887, Note_on_c, 3, 69, 127
1, 86947, Note_on_c, 3, 69, 0
1, 87067, Note_on_c, 7, 63, 100
1, 87067, Note_on_c, 7, 62, 100
1, 87067, Note_on_c, 7, 53, 100
1, 87082, Note_on_c, 7, 62, 0
1, 87082, Note_on_c, 7, 60, 100
1, 87105, Note_on_c, 7, 60, 0
1, 87127, Note_on_c, 7, 59, 100
1, 87157, Note_on_c, 7, 59, 0
1, 87187, Note_on_c, 7, 57, 100
1, 87217, Note_on_c, 7, 57, 0
1, 87247, Note_on_c, 7, 63, 0
1, 87247, Note_on_c, 7, 64, 100
1, 87247, Note_on_c, 7, 56, 100
1, 87247, Note_on_c, 7, 53, 0
1, 87247, Note_on_c, 7, 52, 100
1, 87307, Note_on_c, 7, 64, 0
1, 87307, Note_on_c, 7, 56, 0
1, 87307, Note_on_c, 7, 52, 0
1, 87427, Note_on_c, 3, 51, 127
1, 87457, Note_on_c, 3, 51, 0
1, 87457, Note_on_c, 3, 52, 127
1, 87487, Note_on_c, 3, 52, 0
1, 87487, Note_on_c, 3, 53, 127
1, 87517, Note_on_c, 3, 53, 0
1, 87517, Note_on_c, 3, 54, 127
1, 87547, Note_on_c, 3, 54, 0
1, 87547, Note_on_c, 3, 55, 127
1, 87577, Note_on_c, 3, 55, 0
1, 87577, Note_on_c, 3, 56, 127
1, 87607, Note_on_c, 3, 56, 0
1, 87607, Note_on_c, 3, 57, 127
1, 87607, Note_on_c, 7, 53, 100
1, 87607, Note_on_c, 7, 41, 100
1, 87667, Note_on_c, 7, 69, 100
1, 87727, Note_on_c, 7, 69, 0
1, 87727, Note_on_c, 7, 67, 100
1, 87787, Note_on_c, 3, 57, 0
1, 87787, Note_on_c, 3, 69, 127
1, 87787, Note_on_c, 7, 67, 0
1, 87787, Note_on_c, 7, 65, 100
1, 87817, Note_on_c, 7, 65, 0
1, 87847, Note_on_c, 7, 65, 100
1, 87907, Note_on_c, 7, 65, 0
1, 87907, Note_on_c, 7, 64, 100
1, 87967, Note_on_c, 3, 69, 0
1, 87967, Note_on_c, 3, 84, 127
1, 87967, Note_on_c, 7, 64, 0
1, 87967, Note_on_c, 7, 63, 100
1, 87967, Note_on_c, 7, 54, 100
1, 88027, Note_on_c, 7, 68, 100
1, 88087, Note_on_c, 7, 68, 0
1, 88087, Note_on_c, 7, 69, 100
1, 88147, Note_on_c, 3, 84, 0
1, 88147, Note_on_c, 3, 75, 127
1, 88147, Note_on_c, 7, 69, 0
1, 88147, Note_on_c, 7, 72, 100
1, 88147, Note_on_c, 7, 54, 0
1, 88147, Note_on_c, 7, 57, 100
1, 88207, Note_on_c, 7, 72, 0
1, 88207, Note_on_c, 7, 71, 100
1, 88207, Note_on_c, 7, 57, 0
1, 88207, Note_on_c, 7, 56, 100
1, 88267, Note_on_c, 7, 71, 0
1, 88267, Note_on_c, 7, 69, 100
1, 88267, Note_on_c, 7, 56, 0
1, 88267, Note_on_c, 7, 57, 100
1, 88327, Note_on_c, 3, 75, 0
1, 88327, Note_on_c, 3, 76, 127
1, 88327, Note_on_c, 7, 69, 0
1, 88327, Note_on_c, 7, 68, 100
1, 88327, Note_on_c, 7, 63, 0
1, 88327, Note_on_c, 7, 64, 100
1, 88327, Note_on_c, 7, 57, 0
1, 88327, Note_on_c, 7, 59, 100
1, 88327, Note_on_c, 7, 53, 0
1, 88327, Note_on_c, 7, 52, 100
1, 88327, Note_on_c, 7, 41, 0
1, 88327, Note_on_c, 7, 40, 100
1, 88357, Note_on_c, 7, 68, 0
1, 88357, Note_on_c, 7, 64, 0
1, 88387, Note_on_c, 7, 68, 100
1, 88387, Note_on_c, 7, 64, 100
1, 88447, Note_on_c, 7, 68, 0
1, 88447, Note_on_c, 7, 69, 100
1, 88447, Note_on_c, 7, 64, 0
1, 88447, Note_on_c, 7, 66, 100
1, 88447, Note_on_c, 7, 59, 0
1, 88447, Note_on_c, 7, 52, 0
1, 88447, Note_on_c, 7, 40, 0
1, 88507, Note_on_c, 7, 69, 0
1, 88507, Note_on_c, 7, 71, 100
1, 88507, Note_on_c, 7, 66, 0
1, 88507, Note_on_c, 7, 68, 100
1, 88537, Note_on_c, 7, 71, 0
1, 88537, Note_on_c, 7, 68, 0
1, 88567, Note_on_c, 7, 71, 100
1, 88567, Note_on_c, 7, 68, 100
1, 88627, Note_on_c, 7, 71, 0
1, 88627, Note_on_c, 7, 73, 100
1, 88627, Note_on_c, 7, 68, 0
1, 88627, Note_on_c, 7, 69, 100
1, 88687, Note_on_c, 7, 73, 0
1, 88687, Note_on_c, 7, 74, 100
1, 88687, Note_on_c, 7, 69, 0
1, 88687, Note_on_c, 7, 71, 100
1, 88747, Note_on_c, 7, 63, 100
1, 88747, Note_on_c, 7, 51, 100
1, 88747, Note_on_c, 7, 39, 100
1, 88807, Note_on_c, 7, 63, 0
1, 88807, Note_on_c, 7, 64, 100
1, 88807, Note_on_c, 7, 51, 0
1, 88807, Note_on_c, 7, 52, 100
1, 88807, Note_on_c, 7, 39, 0
1, 88807, Note_on_c, 7, 40, 100
1, 88867, Note_on_c, 7, 64, 0
1, 88867, Note_on_c, 7, 65, 100
1, 88867, Note_on_c, 7, 52, 0
1, 88867, Note_on_c, 7, 53, 100
1, 88867, Note_on_c, 7, 40, 0
1, 88867, Note_on_c, 7, 41, 100
1, 88927, Note_on_c, 7, 65, 0
1, 88927, Note_on_c, 7, 66, 100
1, 88927, Note_on_c, 7, 53, 0
1, 88927, Note_on_c, 7, 54, 100
1, 88927, Note_on_c, 7, 41, 0
1, 88927, Note_on_c, 7, 42, 100
1, 88987, Note_on_c, 7, 66, 0
1, 88987, Note_on_c, 7, 68, 100
1, 88987, Note_on_c, 7, 54, 0
1, 88987, Note_on_c, 7, 56, 100
1, 88987, Note_on_c, 7, 42, 0
1, 88987, Note_on_c, 7, 44, 100
1, 89047, Note_on_c, 3, 76, 0
1, 89047, Note_on_c, 3, 76, 127
1, 89047, Note_on_c, 7, 74, 0
1, 89047, Note_on_c, 7, 73, 100
1, 89047, Note_on_c, 7, 71, 0
1, 89047, Note_on_c, 7, 69, 100
1, 89047, Note_on_c, 7, 68, 0
1, 89047, Note_on_c, 7, 56, 0
1, 89047, Note_on_c, 7, 57, 100
1, 89047, Note_on_c, 7, 44, 0
1, 89047, Note_on_c, 7, 45, 100
1, 89077, Note_on_c, 3, 76, 0
1, 89077, Note_on_c, 7, 73, 0
1, 89077, Note_on_c, 7, 69, 0
1, 89167, Note_on_c, 3, 76, 127
1, 89167, Note_on_c, 7, 73, 100
1, 89167, Note_on_c, 7, 69, 100
1, 89167, Note_on_c, 7, 57, 0
1, 89167, Note_on_c, 7, 45, 0
1, 89197, Note_on_c, 3, 76, 0
1, 89197, Note_on_c, 7, 73, 0
1, 89197, Note_on_c, 7, 69, 0
1, 89227, Note_on_c, 3, 76, 127
1, 89227, Note_on_c, 7, 73, 100
1, 89227, Note_on_c, 7, 69, 100
1, 89257, Note_on_c, 3, 76, 0
1, 89257, Note_on_c, 7, 73, 0
1, 89257, Note_on_c, 7, 69, 0
1, 89287, Note_on_c, 3, 75, 127
1, 89287, Note_on_c, 7, 73, 100
1, 89287, Note_on_c, 7, 69, 100
1, 89317, Note_on_c, 3, 75, 0
1, 89317, Note_on_c, 3, 76, 127
1, 89317, Note_on_c, 7, 73, 0
1, 89317, Note_on_c, 7, 69, 0
1, 89347, Note_on_c, 3, 76, 0
1, 89347, Note_on_c, 3, 78, 127
1, 89347, Note_on_c, 7, 73, 100
1, 89347, Note_on_c, 7, 69, 100
1, 89377, Note_on_c, 3, 78, 0
1, 89377, Note_on_c, 3, 76, 127
1, 89377, Note_on_c, 7, 73, 0
1, 89377, Note_on_c, 7, 69, 0
1, 89407, Note_on_c, 3, 76, 0
1, 89407, Note_on_c, 3, 74, 127
1, 89407, Note_on_c, 7, 71, 100
1, 89407, Note_on_c, 7, 68, 100
1, 89407, Note_on_c, 7, 64, 100
1, 89587, Note_on_c, 3, 74, 0
1, 89587, Note_on_c, 3, 73, 127
1, 89587, Note_on_c, 7, 71, 0
1, 89587, Note_on_c, 7, 73, 100
1, 89587, Note_on_c, 7, 68, 0
1, 89587, Note_on_c, 7, 69, 100
1, 89587, Note_on_c, 7, 64, 0
1, 89647, Note_on_c, 3, 73, 0
1, 89647, Note_on_c, 7, 73, 0
1, 89647, Note_on_c, 7, 69, 0
1, 89707, Note_on_c, 3, 81, 127
1, 89737, Note_on_c, 3, 81, 0
1, 89737, Note_on_c, 3, 80, 127
1, 89767, Note_on_c, 3, 80, 0
1, 89767, Note_on_c, 3, 78, 127
1, 89767, Note_on_c, 7, 69, 100
1, 89767, Note_on_c, 7, 62, 100
1, 89797, Note_on_c, 3, 78, 0
1, 89797, Note_on_c, 7, 69, 0
1, 89797, Note_on_c, 7, 62, 0
1, 89827, Note_on_c, 3, 78, 127
1, 89827, Note_on_c, 7, 69, 100
1, 89827, Note_on_c, 7, 62, 100
1, 89857, Note_on_c, 3, 78, 0
1, 89857, Note_on_c, 7, 69, 0
1, 89857, Note_on_c, 7, 62, 0
1, 89887, Note_on_c, 3, 78, 127
1, 89917, Note_on_c, 3, 78, 0
1, 89917, Note_on_c, 3, 76, 127
1, 89947, Note_on_c, 3, 76, 0
1, 89947, Note_on_c, 3, 74, 127
1, 89947, Note_on_c, 7, 69, 100
1, 89947, Note_on_c, 7, 66, 100
1, 89977, Note_on_c, 7, 69, 0
1, 89977, Note_on_c, 7, 66, 0
1, 90007, Note_on_c, 3, 74, 0
1, 90007, Note_on_c, 3, 74, 127
1, 90007, Note_on_c, 7, 69, 100
1, 90007, Note_on_c, 7, 66, 100
1, 90037, Note_on_c, 3, 74, 0
1, 90037, Note_on_c, 3, 73, 127
1, 90037, Note_on_c, 7, 69, 0
1, 90037, Note_on_c, 7, 66, 0
1, 90067, Note_on_c, 3, 73, 0
1, 90067, Note_on_c, 3, 71, 127
1, 90097, Note_on_c, 3, 71, 0
1, 90097, Note_on_c, 3, 69, 127
1, 90127, Note_on_c, 3, 69, 0
1, 90127, Note_on_c, 3, 68, 127
1, 90127, Note_on_c, 7, 64, 100
1, 90187, Note_on_c, 3, 68, 0
1, 90187, Note_on_c, 3, 69, 127
1, 90187, Note_on_c, 7, 64, 0
1, 90187, Note_on_c, 7, 66, 100
1, 90187, Note_on_c, 7, 64, 100
1, 90217, Note_on_c, 7, 64, 0
1, 90247, Note_on_c, 3, 69, 0
1, 90247, Note_on_c, 3, 70, 127
1, 90247, Note_on_c, 7, 66, 0
1, 90247, Note_on_c, 7, 67, 100
1, 90247, Note_on_c, 7, 64, 100
1, 90277, Note_on_c, 7, 64, 0
1, 90307, Note_on_c, 3, 70, 0
1, 90307, Note_on_c, 3, 71, 127
1, 90307, Note_on_c, 7, 67, 0
1, 90307, Note_on_c, 7, 68, 100
1, 90307, Note_on_c, 7, 64, 100
1, 90367, Note_on_c, 3, 71, 0
1, 90367, Note_on_c, 7, 68, 0
1, 90367, Note_on_c, 7, 64, 0
1, 90427, Note_on_c, 3, 73, 127
1, 90427, Note_on_c, 7, 69, 100
1, 90457, Note_on_c, 3, 73, 0
1, 90457, Note_on_c, 3, 74, 127
1, 90457, Note_on_c, 7, 69, 0
1, 90457, Note_on_c, 7, 71, 100
1, 90487, Note_on_c, 3, 74, 0
1, 90487, Note_on_c, 3, 76, 127
1, 90487, Note_on_c, 7, 71, 0
1, 90487, Note_on_c, 7, 73, 100
1, 90487, Note_on_c, 7, 69, 100
1, 90517, Note_on_c, 3, 76, 0
1, 90517, Note_on_c, 7, 73, 0
1, 90517, Note_on_c, 7, 69, 0
1, 90547, Note_on_c, 3, 76, 127
1, 90577, Note_on_c, 3, 76, 0
1, 90607, Note_on_c, 3, 76, 127
1, 90607, Note_on_c, 7, 73, 100
1, 90607, Note_on_c, 7, 69, 100
1, 90637, Note_on_c, 3, 76, 0
1, 90637, Note_on_c, 7, 73, 0
1, 90637, Note_on_c, 7, 69, 0
1, 90667, Note_on_c, 3, 78, 127
1, 90667, Note_on_c, 7, 73, 100
1, 90667, Note_on_c, 7, 69, 100
1, 90697, Note_on_c, 3, 78, 0
1, 90697, Note_on_c, 3, 76, 127
1, 90697, Note_on_c, 7, 73, 0
1, 90697, Note_on_c, 7, 69, 0
1, 90727, Note_on_c, 3, 76, 0
1, 90727, Note_on_c, 3, 75, 127
1, 90727, Note_on_c, 7, 73, 100
1, 90727, Note_on_c, 7, 69, 100
1, 90757, Note_on_c, 3, 75, 0
1, 90757, Note_on_c, 3, 76, 127
1, 90757, Note_on_c, 7, 73, 0
1, 90757, Note_on_c, 7, 69, 0
1, 90787, Note_on_c, 3, 76, 0
1, 90787, Note_on_c, 3, 78, 127
1, 90787, Note_on_c, 7, 73, 100
1, 90787, Note_on_c, 7, 69, 100
1, 90817, Note_on_c, 3, 78, 0
1, 90817, Note_on_c, 3, 76, 127
1, 90817, Note_on_c, 7, 73, 0
1, 90817, Note_on_c, 7, 69, 0
1, 90847, Note_on_c, 3, 76, 0
1, 90847, Note_on_c, 3, 80, 127
1, 90847, Note_on_c, 7, 74, 100
1, 90847, Note_on_c, 7, 71, 100
1, 90847, Note_on_c, 7, 64, 100
1, 90967, Note_on_c, 7, 64, 0
1, 90967, Note_on_c, 7, 65, 100
1, 91027, Note_on_c, 3, 80, 0
1, 91027, Note_on_c, 3, 81, 127
1, 91027, Note_on_c, 7, 74, 0
1, 91027, Note_on_c, 7, 73, 100
1, 91027, Note_on_c, 7, 71, 0
1, 91027, Note_on_c, 7, 69, 100
1, 91027, Note_on_c, 7, 65, 0
1, 91027, Note_on_c, 7, 66, 100
1, 91057, Note_on_c, 7, 66, 0
1, 91087, Note_on_c, 3, 81, 0
1, 91087, Note_on_c, 7, 73, 0
1, 91087, Note_on_c, 7, 69, 0
1, 91147, Note_on_c, 3, 81, 127
1, 91177, Note_on_c, 3, 81, 0
1, 91177, Note_on_c, 3, 80, 127
1, 91207, Note_on_c, 3, 80, 0
1, 91207, Note_on_c, 3, 78, 127
1, 91207, Note_on_c, 7, 71, 100
1, 91207, Note_on_c, 7, 66, 100
1, 91207, Note_on_c, 7, 62, 100
1, 91237, Note_on_c, 3, 78, 0
1, 91237, Note_on_c, 3, 76, 127
1, 91267, Note_on_c, 3, 76, 0
1, 91267, Note_on_c, 3, 74, 127
1, 91267, Note_on_c, 7, 71, 0
1, 91267, Note_on_c, 7, 66, 0
1, 91267, Note_on_c, 7, 62, 0
1, 91282, Note_on_c, 3, 74, 0
1, 91297, Note_on_c, 3, 73, 127
1, 91312, Note_on_c, 3, 73, 0
1, 91327, Note_on_c, 3, 71, 127
1, 91342, Note_on_c, 3, 71, 0
1, 91357, Note_on_c, 3, 69, 127
1, 91372, Note_on_c, 3, 69, 0
1, 91387, Note_on_c, 3, 68, 127
1, 91387, Note_on_c, 7, 62, 100
1, 91387, Note_on_c, 7, 59, 100
1, 91387, Note_on_c, 7, 52, 100
1, 91417, Note_on_c, 3, 68, 0
1, 91417, Note_on_c, 3, 69, 127
1, 91447, Note_on_c, 3, 69, 0
1, 91447, Note_on_c, 3, 71, 127
1, 91447, Note_on_c, 7, 62, 0
1, 91447, Note_on_c, 7, 59, 0
1, 91447, Note_on_c, 7, 52, 0
1, 91462, Note_on_c, 3, 71, 0
1, 91477, Note_on_c, 3, 73, 127
1, 91492, Note_on_c, 3, 73, 0
1, 91507, Note_on_c, 3, 74, 127
1, 91522, Note_on_c, 3, 74, 0
1, 91537, Note_on_c, 3, 68, 127
1, 91552, Note_on_c, 3, 68, 0
1, 91567, Note_on_c, 3, 69, 127
1, 91567, Note_on_c, 7, 61, 100
1, 91567, Note_on_c, 7, 57, 100
1, 91597, Note_on_c, 7, 57, 0
1, 91627, Note_on_c, 7, 57, 100
1, 91657, Note_on_c, 7, 57, 0
1, 91687, Note_on_c, 3, 69, 0
1, 91687, Note_on_c, 3, 73, 127
1, 91687, Note_on_c, 7, 61, 0
1, 91687, Note_on_c, 7, 64, 100
1, 91687, Note_on_c, 7, 57, 100
1, 91717, Note_on_c, 7, 57, 0
1, 91747, Note_on_c, 3, 73, 0
1, 91747, Note_on_c, 3, 69, 127
1, 91747, Note_on_c, 7, 64, 0
1, 91747, Note_on_c, 7, 61, 100
1, 91747, Note_on_c, 7, 57, 100
1, 91807, Note_on_c, 7, 61, 0
1, 91807, Note_on_c, 7, 57, 0
1, 91867, Note_on_c, 3, 69, 0
1, 91867, Note_on_c, 7, 73, 100
1, 91867, Note_on_c, 7, 69, 100
1, 91897, Note_on_c, 7, 73, 0
1, 91897, Note_on_c, 7, 74, 100
1, 91897, Note_on_c, 7, 69, 0
1, 91897, Note_on_c, 7, 71, 100
1, 91927, Note_on_c, 7, 74, 0
1, 91927, Note_on_c, 7, 76, 100
1, 91927, Note_on_c, 7, 71, 0
1, 91927, Note_on_c, 7, 73, 100
1, 91927, Note_on_c, 7, 69, 100
1, 91957, Note_on_c, 7, 76, 0
1, 91957, Note_on_c, 7, 73, 0
1, 91957, Note_on_c, 7, 69, 0
1, 91987, Note_on_c, 4, 88, 80
1, 91987, Note_on_c, 4, 85, 80
1, 91987, Note_on_c, 5, 64, 80
1, 91987, Note_on_c, 5, 61, 80
1, 91987, Note_on_c, 6, 57, 80
1, 91987, Note_on_c, 6, 49, 80
1, 91987, Note_on_c, 7, 76, 100
1, 91987, Note_on_c, 7, 73, 100
1, 91987, Note_on_c, 7, 69, 100
1, 91987, Note_on_c, 7, 57, 100
1, 91987, Note_on_c, 7, 45, 100
1, 92017, Note_on_c, 4, 88, 0
1, 92017, Note_on_c, 4, 85, 0
1, 92017, Note_on_c, 5, 64, 0
1, 92017, Note_on_c, 5, 61, 0
1, 92017, Note_on_c, 6, 57, 0
1, 92017, Note_on_c, 6, 49, 0
1, 92017, Note_on_c, 7, 76, 0
1, 92017, Note_on_c, 7, 73, 0
1, 92017, Note_on_c, 7, 69, 0
1, 92017, Note_on_c, 7, 57, 0
1, 92017, Note_on_c, 7, 45, 0
1, 92047, Note_on_c, 4, 88, 80
1, 92047, Note_on_c, 4, 85, 80
1, 92047, Note_on_c, 5, 64, 80
1, 92047, Note_on_c, 5, 61, 80
1, 92047, Note_on_c, 6, 57, 80
1, 92047, Note_on_c, 6, 49, 80
1, 92047, Note_on_c, 7, 76, 100
1, 92047, Note_on_c, 7, 73, 100
1, 92047, Note_on_c, 7, 69, 100
1, 92047, Note_on_c, 7, 57, 100
1, 92047, Note_on_c, 7, 45, 100
1, 92077, Note_on_c, 4, 88, 0
1, 92077, Note_on_c, 4, 85, 0
1, 92077, Note_on_c, 5, 64, 0
1, 92077, Note_on_c, 5, 61, 0
1, 92077, Note_on_c, 6, 57, 0
1, 92077, Note_on_c, 6, 49, 0
1, 92077, Note_on_c, 7, 76, 0
1, 92077, Note_on_c, 7, 73, 0
1, 92077, Note_on_c, 7, 69, 0
1, 92077, Note_on_c, 7, 57, 0
1, 92077, Note_on_c, 7, 45, 0
1, 92107, Note_on_c, 4, 88, 80
1, 92107, Note_on_c, 4, 85, 80
1, 92107, Note_on_c, 5, 64, 80
1, 92107, Note_on_c, 5, 61, 80
1, 92107, Note_on_c, 6, 57, 80
1, 92107, Note_on_c, 6, 49, 80
1, 92107, Note_on_c, 7, 76, 100
1, 92107, Note_on_c, 7, 73, 100
1, 92107, Note_on_c, 7, 69, 100
1, 92107, Note_on_c, 7, 57, 100
1, 92107, Note_on_c, 7, 45, 100
1, 92137, Note_on_c, 4, 88, 0
1, 92137, Note_on_c, 4, 85, 0
1, 92137, Note_on_c, 5, 64, 0
1, 92137, Note_on_c, 5, 61, 0
1, 92137, Note_on_c, 6, 57, 0
1, 92137, Note_on_c, 6, 49, 0
1, 92137, Note_on_c, 7, 76, 0
1, 92137, Note_on_c, 7, 73, 0
1, 92137, Note_on_c, 7, 69, 0
1, 92137, Note_on_c, 7, 57, 0
1, 92137, Note_on_c, 7, 45, 0
1, 92167, Note_on_c, 4, 88, 80
1, 92167, Note_on_c, 4, 85, 80
1, 92167, Note_on_c, 5, 64, 80
1, 92167, Note_on_c, 5, 61, 80
1, 92167, Note_on_c, 6, 57, 80
1, 92167, Note_on_c, 6, 49, 80
1, 92167, Note_on_c, 7, 76, 100
1, 92167, Note_on_c, 7, 73, 100
1, 92167, Note_on_c, 7, 69, 100
1, 92167, Note_on_c, 7, 57, 100
1, 92167, Note_on_c, 7, 45, 100
1, 92197, Note_on_c, 4, 88, 0
1, 92197, Note_on_c, 4, 85, 0
1, 92197, Note_on_c, 5, 64, 0
1, 92197, Note_on_c, 5, 61, 0
1, 92197, Note_on_c, 6, 57, 0
1, 92197, Note_on_c, 6, 49, 0
1, 92197, Note_on_c, 7, 76, 0
1, 92197, Note_on_c, 7, 73, 0
1, 92197, Note_on_c, 7, 69, 0
1, 92197, Note_on_c, 7, 57, 0
1, 92197, Note_on_c, 7, 45, 0
1, 92227, Note_on_c, 4, 88, 80
1, 92227, Note_on_c, 4, 85, 80
1, 92227, Note_on_c, 5, 64, 80
1, 92227, Note_on_c, 5, 61, 80
1, 92227, Note_on_c, 6, 57, 80
1, 92227, Note_on_c, 6, 49, 80
1, 92227, Note_on_c, 7, 76, 100
1, 92227, Note_on_c, 7, 73, 100
1, 92227, Note_on_c, 7, 69, 100
1, 92227, Note_on_c, 7, 57, 100
1, 92227, Note_on_c, 7, 45, 100
1, 92257, Note_on_c, 4, 88, 0
1, 92257, Note_on_c, 4, 85, 0
1, 92257, Note_on_c, 5, 64, 0
1, 92257, Note_on_c, 5, 61, 0
1, 92257, Note_on_c, 6, 57, 0
1, 92257, Note_on_c, 6, 49, 0
1, 92257, Note_on_c, 7, 76, 0
1, 92257, Note_on_c, 7, 73, 0
1, 92257, Note_on_c, 7, 69, 0
1, 92257, Note_on_c, 7, 57, 0
1, 92257, Note_on_c, 7, 45, 0
1, 92287, Note_on_c, 4, 86, 80
1, 92287, Note_on_c, 4, 83, 80
1, 92287, Note_on_c, 5, 62, 80
1, 92287, Note_on_c, 5, 56, 80
1, 92287, Note_on_c, 6, 59, 80
1, 92287, Note_on_c, 6, 52, 80
1, 92287, Note_on_c, 7, 80, 100
1, 92287, Note_on_c, 7, 74, 100
1, 92287, Note_on_c, 7, 71, 100
1, 92287, Note_on_c, 7, 52, 100
1, 92287, Note_on_c, 7, 40, 100
1, 92467, Note_on_c, 4, 86, 0
1, 92467, Note_on_c, 4, 85, 80
1, 92467, Note_on_c, 4, 83, 0
1, 92467, Note_on_c, 4, 81, 80
1, 92467, Note_on_c, 5, 62, 0
1, 92467, Note_on_c, 5, 61, 80
1, 92467, Note_on_c, 5, 56, 0
1, 92467, Note_on_c, 5, 57, 80
1, 92467, Note_on_c, 6, 59, 0
1, 92467, Note_on_c, 6, 61, 80
1, 92467, Note_on_c, 6, 52, 0
1, 92467, Note_on_c, 6, 57, 80
1, 92467, Note_on_c, 7, 80, 0
1, 92467, Note_on_c, 7, 81, 100
1, 92467, Note_on_c, 7, 74, 0
1, 92467, Note_on_c, 7, 73, 100
1, 92467, Note_on_c, 7, 71, 0
1, 92467, Note_on_c, 7, 69, 100
1, 92467, Note_on_c, 7, 52, 0
1, 92467, Note_on_c, 7, 54, 100
1, 92467, Note_on_c, 7, 40, 0
1, 92467, Note_on_c, 7, 42, 100
1, 92527, Note_on_c, 4, 85, 0
1, 92527, Note_on_c, 4, 81, 0
1, 92527, Note_on_c, 5, 61, 0
1, 92527, Note_on_c, 5, 57, 0
1, 92527, Note_on_c, 6, 61, 0
1, 92527, Note_on_c, 6, 57, 0
1, 92527, Note_on_c, 7, 81, 0
1, 92527, Note_on_c, 7, 73, 0
1, 92527, Note_on_c, 7, 69, 0
1, 92527, Note_on_c, 7, 54, 0
1, 92527, Note_on_c, 7, 42, 0
1, 92587, Note_on_c, 7, 81, 100
1, 92587, Note_on_c, 7, 78, 100
1, 92617, Note_on_c, 7, 81, 0
1, 92617, Note_on_c, 7, 80, 100
1, 92617, Note_on_c, 7, 78, 0
1, 92617, Note_on_c, 7, 76, 100
1, 92647, Note_on_c, 7, 80, 0
1, 92647, Note_on_c, 7, 78, 100
1, 92647, Note_on_c, 7, 76, 0
1, 92647, Note_on_c, 7, 74, 100
1, 92677, Note_on_c, 7, 78, 0
1, 92677, Note_on_c, 7, 74, 0
1, 92707, Note_on_c, 7, 62, 100
1, 92707, Note_on_c, 7, 50, 100
1, 92707, Note_on_c, 7, 38, 100
1, 92737, Note_on_c, 7, 62, 0
1, 92737, Note_on_c, 7, 50, 0
1, 92737, Note_on_c, 7, 38, 0
1, 92767, Note_on_c, 7, 78, 100
1, 92767, Note_on_c, 7, 74, 100
1, 92797, Note_on_c, 7, 78, 0
1, 92797, Note_on_c, 7, 76, 100
1, 92797, Note_on_c, 7, 74, 0
1, 92797, Note_on_c, 7, 73, 100
1, 92827, Note_on_c, 7, 76, 0
1, 92827, Note_on_c, 7, 74, 100
1, 92827, Note_on_c, 7, 73, 0
1, 92827, Note_on_c, 7, 71, 100
1, 92857, Note_on_c, 7, 74, 0
1, 92857, Note_on_c, 7, 71, 0
1, 92887, Note_on_c, 7, 62, 100
1, 92887, Note_on_c, 7, 50, 100
1, 92887, Note_on_c, 7, 38, 100
1, 92917, Note_on_c, 7, 62, 0
1, 92917, Note_on_c, 7, 50, 0
1, 92917, Note_on_c, 7, 38, 0
1, 92947, Note_on_c, 7, 74, 100
1, 92947, Note_on_c, 7, 71, 100
1, 92977, Note_on_c, 7, 74, 0
1, 92977, Note_on_c, 7, 73, 100
1, 92977, Note_on_c, 7, 71, 0
1, 92977, Note_on_c, 7, 69, 100
1, 93007, Note_on_c, 7, 73, 0
1, 93007, Note_on_c, 7, 71, 100
1, 93007, Note_on_c, 7, 69, 0
1, 93007, Note_on_c, 7, 68, 100
1, 93007, Note_on_c, 7, 64, 100
1, 93007, Note_on_c, 7, 52, 100
1, 93007, Note_on_c, 7, 40, 100
1, 93037, Note_on_c, 7, 71, 0
1, 93037, Note_on_c, 7, 68, 0
1, 93037, Note_on_c, 7, 64, 0
1, 93037, Note_on_c, 7, 52, 0
1, 93037, Note_on_c, 7, 40, 0
1, 93067, Note_on_c, 7, 71, 100
1, 93067, Note_on_c, 7, 68, 100
1, 93067, Note_on_c, 7, 64, 100
1, 93067, Note_on_c, 7, 52, 100
1, 93067, Note_on_c, 7, 40, 100
1, 93097, Note_on_c, 7, 71, 0
1, 93097, Note_on_c, 7, 73, 100
1, 93097, Note_on_c, 7, 68, 0
1, 93097, Note_on_c, 7, 69, 100
1, 93097, Note_on_c, 7, 64, 0
1, 93097, Note_on_c, 7, 52, 0
1, 93097, Note_on_c, 7, 40, 0
1, 93127, Note_on_c, 7, 73, 0
1, 93127, Note_on_c, 7, 66, 100
1, 93127, Note_on_c, 7, 64, 100
1, 93127, Note_on_c, 7, 52, 100
1, 93127, Note_on_c, 7, 40, 100
1, 93157, Note_on_c, 7, 69, 0
1, 93157, Note_on_c, 7, 73, 100
1, 93157, Note_on_c, 7, 66, 0
1, 93157, Note_on_c, 7, 69, 100
1, 93157, Note_on_c, 7, 64, 0
1, 93157, Note_on_c, 7, 52, 0
1, 93157, Note_on_c, 7, 40, 0
1, 93187, Note_on_c, 7, 73, 0
1, 93187, Note_on_c, 7, 71, 100
1, 93187, Note_on_c, 7, 69, 0
1, 93187, Note_on_c, 7, 68, 100
1, 93187, Note_on_c, 7, 64, 100
1, 93187, Note_on_c, 7, 52, 100
1, 93187, Note_on_c, 7, 40, 100
1, 93247, Note_on_c, 7, 71, 0
1, 93247, Note_on_c, 7, 68, 0
1, 93247, Note_on_c, 7, 64, 0
1, 93247, Note_on_c, 7, 52, 0
1, 93247, Note_on_c, 7, 40, 0
1, 93307, Note_on_c, 7, 73, 100
1, 93307, Note_on_c, 7, 69, 100
1, 93337, Note_on_c, 7, 73, 0
1, 93337, Note_on_c, 7, 74, 100
1, 93337, Note_on_c, 7, 69, 0
1, 93337, Note_on_c, 7, 71, 100
1, 93367, Note_on_c, 7, 74, 0
1, 93367, Note_on_c, 7, 76, 100
1, 93367, Note_on_c, 7, 71, 0
1, 93367, Note_on_c, 7, 73, 100
1, 93397, Note_on_c, 7, 76, 0
1, 93397, Note_on_c, 7, 73, 0
1, 93427, Note_on_c, 4, 88, 80
1, 93427, Note_on_c, 4, 85, 80
1, 93427, Note_on_c, 5, 64, 80
1, 93427, Note_on_c, 5, 61, 80
1, 93427, Note_on_c, 6, 57, 80
1, 93427, Note_on_c, 6, 49, 80
1, 93427, Note_on_c, 7, 76, 100
1, 93427, Note_on_c, 7, 73, 100
1, 93427, Note_on_c, 7, 69, 100
1, 93427, Note_on_c, 7, 57, 100
1, 93427, Note_on_c, 7, 45, 100
1, 93457, Note_on_c, 4, 88, 0
1, 93457, Note_on_c, 4, 85, 0
1, 93457, Note_on_c, 5, 64, 0
1, 93457, Note_on_c, 5, 61, 0
1, 93457, Note_on_c, 6, 57, 0
1, 93457, Note_on_c, 6, 49, 0
1, 93457, Note_on_c, 7, 76, 0
1, 93457, Note_on_c, 7, 73, 0
1, 93457, Note_on_c, 7, 69, 0
1, 93457, Note_on_c, 7, 57, 0
1, 93457, Note_on_c, 7, 45, 0
1, 93487, Note_on_c, 4, 88, 80
1, 93487, Note_on_c, 4, 85, 80
1, 93487, Note_on_c, 5, 64, 80
1, 93487, Note_on_c, 5, 61, 80
1, 93487, Note_on_c, 6, 57, 80
1, 93487, Note_on_c, 6, 49, 80
1, 93487, Note_on_c, 7, 76, 100
1, 93487, Note_on_c, 7, 73, 100
1, 93487, Note_on_c, 7, 69, 100
1, 93487, Note_on_c, 7, 57, 100
1, 93487, Note_on_c, 7, 45, 100
1, 93517, Note_on_c, 4, 88, 0
1, 93517, Note_on_c, 4, 85, 0
1, 93517, Note_on_c, 5, 64, 0
1, 93517, Note_on_c, 5, 61, 0
1, 93517, Note_on_c, 6, 57, 0
1, 93517, Note_on_c, 6, 49, 0
1, 93517, Note_on_c, 7, 76, 0
1, 93517, Note_on_c, 7, 73, 0
1, 93517, Note_on_c, 7, 69, 0
1, 93517, Note_on_c, 7, 57, 0
1, 93517, Note_on_c, 7, 45, 0
1, 93547, Note_on_c, 4, 88, 80
1, 93547, Note_on_c, 4, 85, 80
1, 93547, Note_on_c, 5, 64, 80
1, 93547, Note_on_c, 5, 61, 80
1, 93547, Note_on_c, 6, 57, 80
1, 93547, Note_on_c, 6, 49, 80
1, 93547, Note_on_c, 7, 76, 100
1, 93547, Note_on_c, 7, 73, 100
1, 93547, Note_on_c, 7, 69, 100
1, 93547, Note_on_c, 7, 57, 100
1, 93547, Note_on_c, 7, 45, 100
1, 93577, Note_on_c, 4, 88, 0
1, 93577, Note_on_c, 4, 85, 0
1, 93577, Note_on_c, 5, 64, 0
1, 93577, Note_on_c, 5, 61, 0
1, 93577, Note_on_c, 6, 57, 0
1, 93577, Note_on_c, 6, 49, 0
1, 93577, Note_on_c, 7, 76, 0
1, 93577, Note_on_c, 7, 73, 0
1, 93577, Note_on_c, 7, 69, 0
1, 93577, Note_on_c, 7, 57, 0
1, 93577, Note_on_c, 7, 45, 0
1, 93607, Note_on_c, 4, 88, 80
1, 93607, Note_on_c, 4, 85, 80
1, 93607, Note_on_c, 5, 64, 80
1, 93607, Note_on_c, 5, 61, 80
1, 93607, Note_on_c, 6, 57, 80
1, 93607, Note_on_c, 6, 49, 80
1, 93607, Note_on_c, 7, 76, 100
1, 93607, Note_on_c, 7, 73, 100
1, 93607, Note_on_c, 7, 69, 100
1, 93607, Note_on_c, 7, 57, 100
1, 93607, Note_on_c, 7, 45, 100
1, 93637, Note_on_c, 4, 88, 0
1, 93637, Note_on_c, 4, 85, 0
1, 93637, Note_on_c, 5, 64, 0
1, 93637, Note_on_c, 5, 61, 0
1, 93637, Note_on_c, 6, 57, 0
1, 93637, Note_on_c, 6, 49, 0
1, 93637, Note_on_c, 7, 76, 0
1, 93637, Note_on_c, 7, 73, 0
1, 93637, Note_on_c, 7, 69, 0
1, 93637, Note_on_c, 7, 57, 0
1, 93637, Note_on_c, 7, 45, 0
1, 93667, Note_on_c, 4, 88, 80
1, 93667, Note_on_c, 4, 85, 80
1, 93667, Note_on_c, 5, 64, 80
1, 93667, Note_on_c, 5, 61, 80
1, 93667, Note_on_c, 6, 57, 80
1, 93667, Note_on_c, 6, 49, 80
1, 93667, Note_on_c, 7, 76, 100
1, 93667, Note_on_c, 7, 73, 100
1, 93667, Note_on_c, 7, 69, 100
1, 93667, Note_on_c, 7, 57, 100
1, 93667, Note_on_c, 7, 45, 100
1, 93697, Note_on_c, 4, 88, 0
1, 93697, Note_on_c, 4, 85, 0
1, 93697, Note_on_c, 5, 64, 0
1, 93697, Note_on_c, 5, 61, 0
1, 93697, Note_on_c, 6, 57, 0
1, 93697, Note_on_c, 6, 49, 0
1, 93697, Note_on_c, 7, 76, 0
1, 93697, Note_on_c, 7, 73, 0
1, 93697, Note_on_c, 7, 69, 0
1, 93697, Note_on_c, 7, 57, 0
1, 93697, Note_on_c, 7, 45, 0
1, 93727, Note_on_c, 4, 80, 80
1, 93727, Note_on_c, 5, 62, 80
1, 93727, Note_on_c, 5, 59, 80
1, 93727, Note_on_c, 6, 59, 80
1, 93727, Note_on_c, 6, 52, 80
1, 93727, Note_on_c, 7, 86, 100
1, 93727, Note_on_c, 7, 71, 100
1, 93727, Note_on_c, 7, 80, 100
1, 93727, Note_on_c, 7, 64, 100
1, 93727, Note_on_c, 7, 52, 100
1, 93727, Note_on_c, 7, 40, 100
1, 93847, Note_on_c, 7, 64, 0
1, 93847, Note_on_c, 7, 65, 100
1, 93847, Note_on_c, 7, 52, 0
1, 93847, Note_on_c, 7, 53, 100
1, 93847, Note_on_c, 7, 40, 0
1, 93847, Note_on_c, 7, 41, 100
1, 93907, Note_on_c, 4, 81, 80
1, 93907, Note_on_c, 4, 80, 0
1, 93907, Note_on_c, 5, 62, 0
1, 93907, Note_on_c, 5, 61, 80
1, 93907, Note_on_c, 5, 59, 0
1, 93907, Note_on_c, 5, 57, 80
1, 93907, Note_on_c, 6, 59, 0
1, 93907, Note_on_c, 6, 61, 80
1, 93907, Note_on_c, 6, 52, 0
1, 93907, Note_on_c, 6, 57, 80
1, 93907, Note_on_c, 7, 86, 0
1, 93907, Note_on_c, 7, 85, 100
1, 93907, Note_on_c, 7, 71, 0
1, 93907, Note_on_c, 7, 80, 0
1, 93907, Note_on_c, 7, 69, 100
1, 93907, Note_on_c, 7, 81, 100
1, 93907, Note_on_c, 7, 65, 0
1, 93907, Note_on_c, 7, 66, 100
1, 93907, Note_on_c, 7, 53, 0
1, 93907, Note_on_c, 7, 54, 100
1, 93907, Note_on_c, 7, 41, 0
1, 93907, Note_on_c, 7, 42, 100
1, 93937, Note_on_c, 7, 66, 0
1, 93937, Note_on_c, 7, 54, 0
1, 93937, Note_on_c, 7, 42, 0
1, 93967, Note_on_c, 4, 81, 0
1, 93967, Note_on_c, 5, 61, 0
1, 93967, Note_on_c, 5, 57, 0
1, 93967, Note_on_c, 6, 61, 0
1, 93967, Note_on_c, 6, 57, 0
1, 93967, Note_on_c, 7, 85, 0
1, 93967, Note_on_c, 7, 69, 0
1, 93967, Note_on_c, 7, 81, 0
1, 94027, Note_on_c, 7, 81, 100
1, 94027, Note_on_c, 7, 73, 100
1, 94057, Note_on_c, 7, 81, 0
1, 94057, Note_on_c, 7, 80, 100
1, 94057, Note_on_c, 7, 73, 0
1, 94057, Note_on_c, 7, 76, 100
1, 94087, Note_on_c, 7, 80, 0
1, 94087, Note_on_c, 7, 78, 100
1, 94087, Note_on_c, 7, 76, 0
1, 94087, Note_on_c, 7, 74, 100
1, 94117, Note_on_c, 7, 78, 0
1, 94117, Note_on_c, 7, 74, 0
1, 94147, Note_on_c, 7, 62, 100
1, 94147, Note_on_c, 7, 50, 100
1, 94147, Note_on_c, 7, 38, 100
1, 94177, Note_on_c, 7, 62, 0
1, 94177, Note_on_c, 7, 50, 0
1, 94177, Note_on_c, 7, 38, 0
1, 94207, Note_on_c, 7, 74, 100
1, 94207, Note_on_c, 7, 66, 100
1, 94237, Note_on_c, 7, 74, 0
1, 94237, Note_on_c, 7, 73, 100
1, 94237, Note_on_c, 7, 66, 0
1, 94237, Note_on_c, 7, 69, 100
1, 94267, Note_on_c, 7, 73, 0
1, 94267, Note_on_c, 7, 71, 100
1, 94267, Note_on_c, 7, 69, 0
1, 94267, Note_on_c, 7, 68, 100
1, 94297, Note_on_c, 7, 71, 0
1, 94297, Note_on_c, 7, 68, 0
1, 94327, Note_on_c, 7, 64, 100
1, 94327, Note_on_c, 7, 52, 100
1, 94327, Note_on_c, 7, 40, 100
1, 94357, Note_on_c, 7, 64, 0
1, 94357, Note_on_c, 7, 52, 0
1, 94357, Note_on_c, 7, 40, 0
1, 94387, Note_on_c, 7, 76, 100
1, 94387, Note_on_c, 7, 59, 100
1, 94417, Note_on_c, 7, 76, 0
1, 94417, Note_on_c, 7, 68, 100
1, 94417, Note_on_c, 7, 59, 0
1, 94417, Note_on_c, 7, 62, 100
1, 94447, Note_on_c, 7, 68, 0
1, 94447, Note_on_c, 7, 69, 100
1, 94447, Note_on_c, 7, 62, 0
1, 94447, Note_on_c, 7, 61, 100
1, 94447, Note_on_c, 7, 57, 100
1, 94447, Note_on_c, 7, 45, 100
1, 94447, Note_on_c, 7, 33, 100
1, 94477, Note_on_c, 7, 57, 0
1, 94477, Note_on_c, 7, 45, 0
1, 94477, Note_on_c, 7, 33, 0
1, 94507, Note_on_c, 7, 57, 100
1, 94507, Note_on_c, 7, 45, 100
1, 94507, Note_on_c, 7, 33, 100
1, 94537, Note_on_c, 7, 57, 0
1, 94537, Note_on_c, 7, 45, 0
1, 94537, Note_on_c, 7, 33, 0
1, 94567, Note_on_c, 7, 69, 0
1, 94567, Note_on_c, 7, 73, 100
1, 94567, Note_on_c, 7, 61, 0
1, 94567, Note_on_c, 7, 64, 100
1, 94567, Note_on_c, 7, 57, 100
1, 94567, Note_on_c, 7, 45, 100
1, 94567, Note_on_c, 7, 33, 100
1, 94597, Note_on_c, 7, 57, 0
1, 94597, Note_on_c, 7, 45, 0
1, 94597, Note_on_c, 7, 33, 0
1, 94627, Note_on_c, 7, 73, 0
1, 94627, Note_on_c, 7, 69, 100
1, 94627, Note_on_c, 7, 64, 0
1, 94627, Note_on_c, 7, 61, 100
1, 94627, Note_on_c, 7, 57, 100
1, 94627, Note_on_c, 7, 45, 100
1, 94627, Note_on_c, 7, 33, 100
1, 94687, Note_on_c, 7, 57, 0
1, 94687, Note_on_c, 7, 45, 0
1, 94687, Note_on_c, 7, 33, 0
1, 94747, Note_on_c, 3, 64, 127
1, 94747, Note_on_c, 7, 69, 0
1, 94747, Note_on_c, 7, 61, 0
1, 94777, Note_on_c, 3, 64, 0
1, 94777, Note_on_c, 3, 66, 127
1, 94807, Note_on_c, 3, 66, 0
1, 94807, Note_on_c, 3, 68, 127
1, 94807, Note_on_c, 7, 52, 100
1, 94807, Note_on_c, 7, 40, 100
1, 94837, Note_on_c, 3, 68, 0
1, 94837, Note_on_c, 3, 69, 127
1, 94867, Note_on_c, 3, 69, 0
1, 94867, Note_on_c, 3, 71, 127
1, 94867, Note_on_c, 7, 64, 100
1, 94867, Note_on_c, 7, 59, 100
1, 94867, Note_on_c, 7, 56, 100
1, 94897, Note_on_c, 3, 71, 0
1, 94897, Note_on_c, 3, 73, 127
1, 94927, Note_on_c, 3, 73, 0
1, 94927, Note_on_c, 3, 74, 127
1, 94927, Note_on_c, 7, 64, 0
1, 94927, Note_on_c, 7, 64, 100
1, 94927, Note_on_c, 7, 59, 0
1, 94927, Note_on_c, 7, 59, 100
1, 94927, Note_on_c, 7, 56, 0
1, 94927, Note_on_c, 7, 56, 100
1, 94957, Note_on_c, 3, 74, 0
1, 94957, Note_on_c, 3, 76, 127
1, 94987, Note_on_c, 3, 76, 0
1, 94987, Note_on_c, 3, 74, 127
1, 94987, Note_on_c, 7, 64, 0
1, 94987, Note_on_c, 7, 64, 100
1, 94987, Note_on_c, 7, 59, 0
1, 94987, Note_on_c, 7, 59, 100
1, 94987, Note_on_c, 7, 56, 0
1, 94987, Note_on_c, 7, 56, 100
1, 95017, Note_on_c, 3, 74, 0
1, 95017, Note_on_c, 3, 73, 127
1, 95047, Note_on_c, 3, 73, 0
1, 95047, Note_on_c, 3, 71, 127
1, 95047, Note_on_c, 7, 64, 0
1, 95047, Note_on_c, 7, 64, 100
1, 95047, Note_on_c, 7, 59, 0
1, 95047, Note_on_c, 7, 59, 100
1, 95047, Note_on_c, 7, 56, 0
1, 95047, Note_on_c, 7, 56, 100
1, 95077, Note_on_c, 3, 71, 0
1, 95077, Note_on_c, 3, 69, 127
1, 95107, Note_on_c, 3, 69, 0
1, 95107, Note_on_c, 3, 68, 127
1, 95107, Note_on_c, 7, 64, 0
1, 95107, Note_on_c, 7, 64, 100
1, 95107, Note_on_c, 7, 59, 0
1, 95107, Note_on_c, 7, 59, 100
1, 95107, Note_on_c, 7, 56, 0
1, 95107, Note_on_c, 7, 56, 100
1, 95137, Note_on_c, 3, 68, 0
1, 95137, Note_on_c, 3, 71, 127
1, 95167, Note_on_c, 3, 71, 0
1, 95167, Note_on_c, 3, 69, 127
1, 95167, Note_on_c, 7, 64, 0
1, 95167, Note_on_c, 7, 59, 0
1, 95167, Note_on_c, 7, 56, 0
1, 95167, Note_on_c, 7, 52, 0
1, 95167, Note_on_c, 7, 57, 100
1, 95167, Note_on_c, 7, 40, 0
1, 95167, Note_on_c, 7, 45, 100
1, 95197, Note_on_c, 3, 69, 0
1, 95197, Note_on_c, 3, 71, 127
1, 95227, Note_on_c, 3, 71, 0
1, 95227, Note_on_c, 3, 73, 127
1, 95227, Note_on_c, 7, 64, 100
1, 95257, Note_on_c, 3, 73, 0
1, 95257, Note_on_c, 3, 74, 127
1, 95287, Note_on_c, 3, 74, 0
1, 95287, Note_on_c, 3, 76, 127
1, 95287, Note_on_c, 7, 64, 0
1, 95287, Note_on_c, 7, 64, 100
1, 95287, Note_on_c, 7, 45, 0
1, 95317, Note_on_c, 3, 76, 0
1, 95317, Note_on_c, 3, 78, 127
1, 95347, Note_on_c, 3, 78, 0
1, 95347, Note_on_c, 3, 76, 127
1, 95347, Note_on_c, 7, 64, 0
1, 95347, Note_on_c, 7, 64, 100
1, 95407, Note_on_c, 3, 76, 0
1, 95407, Note_on_c, 7, 64, 0
1, 95407, Note_on_c, 7, 64, 100
1, 95467, Note_on_c, 3, 71, 127
1, 95467, Note_on_c, 7, 64, 0
1, 95467, Note_on_c, 7, 64, 100
1, 95497, Note_on_c, 3, 71, 0
1, 95497, Note_on_c, 3, 73, 127
1, 95527, Note_on_c, 3, 73, 0
1, 95527, Note_on_c, 3, 75, 127
1, 95527, Note_on_c, 7, 64, 0
1, 95527, Note_on_c, 7, 57, 0
1, 95527, Note_on_c, 7, 59, 100
1, 95527, Note_on_c, 7, 47, 100
1, 95557, Note_on_c, 3, 75, 0
1, 95557, Note_on_c, 3, 76, 127
1, 95587, Note_on_c, 3, 76, 0
1, 95587, Note_on_c, 3, 78, 127
1, 95587, Note_on_c, 7, 71, 100
1, 95587, Note_on_c, 7, 66, 100
1, 95587, Note_on_c, 7, 63, 100
1, 95617, Note_on_c, 3, 78, 0
1, 95617, Note_on_c, 3, 80, 127
1, 95647, Note_on_c, 3, 80, 0
1, 95647, Note_on_c, 3, 81, 127
1, 95647, Note_on_c, 7, 71, 0
1, 95647, Note_on_c, 7, 71, 100
1, 95647, Note_on_c, 7, 66, 0
1, 95647, Note_on_c, 7, 66, 100
1, 95647, Note_on_c, 7, 63, 0
1, 95647, Note_on_c, 7, 63, 100
1, 95677, Note_on_c, 3, 81, 0
1, 95677, Note_on_c, 3, 83, 127
1, 95707, Note_on_c, 3, 83, 0
1, 95707, Note_on_c, 3, 81, 127
1, 95707, Note_on_c, 7, 71, 0
1, 95707, Note_on_c, 7, 71, 100
1, 95707, Note_on_c, 7, 66, 0
1, 95707, Note_on_c, 7, 66, 100
1, 95707, Note_on_c, 7, 63, 0
1, 95707, Note_on_c, 7, 63, 100
1, 95737, Note_on_c, 3, 81, 0
1, 95737, Note_on_c, 3, 80, 127
1, 95767, Note_on_c, 3, 80, 0
1, 95767, Note_on_c, 3, 78, 127
1, 95767, Note_on_c, 7, 71, 0
1, 95767, Note_on_c, 7, 71, 100
1, 95767, Note_on_c, 7, 66, 0
1, 95767, Note_on_c, 7, 66, 100
1, 95767, Note_on_c, 7, 63, 0
1, 95767, Note_on_c, 7, 63, 100
1, 95797, Note_on_c, 3, 78, 0
1, 95797, Note_on_c, 3, 76, 127
1, 95827, Note_on_c, 3, 76, 0
1, 95827, Note_on_c, 3, 75, 127
1, 95827, Note_on_c, 7, 71, 0
1, 95827, Note_on_c, 7, 71, 100
1, 95827, Note_on_c, 7, 66, 0
1, 95827, Note_on_c, 7, 66, 100
1, 95827, Note_on_c, 7, 63, 0
1, 95827, Note_on_c, 7, 63, 100
1, 95857, Note_on_c, 3, 75, 0
1, 95857, Note_on_c, 3, 78, 127
1, 95887, Note_on_c, 3, 78, 0
1, 95887, Note_on_c, 3, 76, 127
1, 95887, Note_on_c, 7, 71, 0
1, 95887, Note_on_c, 7, 71, 100
1, 95887, Note_on_c, 7, 66, 0
1, 95887, Note_on_c, 7, 64, 100
1, 95887, Note_on_c, 7, 63, 0
1, 95887, Note_on_c, 7, 59, 0
1, 95887, Note_on_c, 7, 52, 100
1, 95887, Note_on_c, 7, 47, 0
1, 95887, Note_on_c, 7, 40, 100
1, 95917, Note_on_c, 3, 76, 0
1, 95917, Note_on_c, 3, 80, 127
1, 95947, Note_on_c, 3, 80, 0
1, 95947, Note_on_c, 3, 83, 127
1, 95977, Note_on_c, 3, 83, 0
1, 95977, Note_on_c, 3, 80, 127
1, 96007, Note_on_c, 3, 80, 0
1, 96007, Note_on_c, 3, 76, 127
1, 96007, Note_on_c, 7, 71, 0
1, 96007, Note_on_c, 7, 64, 0
1, 96007, Note_on_c, 7, 52, 0
1, 96007, Note_on_c, 7, 40, 0
1, 96037, Note_on_c, 3, 76, 0
1, 96037, Note_on_c, 3, 71, 127
1, 96067, Note_on_c, 3, 71, 0
1, 96067, Note_on_c, 3, 68, 127
1, 96097, Note_on_c, 3, 68, 0
1, 96097, Note_on_c, 3, 71, 127
1, 96127, Note_on_c, 3, 71, 0
1, 96127, Note_on_c, 3, 69, 127
1, 96157, Note_on_c, 3, 69, 0
1, 96157, Note_on_c, 3, 68, 127
1, 96187, Note_on_c, 3, 68, 0
1, 96187, Note_on_c, 3, 69, 127
1, 96187, Note_on_c, 7, 63, 100
1, 96187, Note_on_c, 7, 57, 100
1, 96187, Note_on_c, 7, 59, 100
1, 96187, Note_on_c, 7, 47, 100
1, 96187, Note_on_c, 7, 35, 100
1, 96217, Note_on_c, 3, 69, 0
1, 96217, Note_on_c, 3, 66, 127
1, 96217, Note_on_c, 7, 63, 0
1, 96217, Note_on_c, 7, 57, 0
1, 96217, Note_on_c, 7, 59, 0
1, 96217, Note_on_c, 7, 47, 0
1, 96217, Note_on_c, 7, 35, 0
1, 96247, Note_on_c, 3, 66, 0
1, 96247, Note_on_c, 3, 64, 127
1, 96247, Note_on_c, 7, 64, 100
1, 96247, Note_on_c, 7, 56, 100
1, 96247, Note_on_c, 7, 59, 100
1, 96247, Note_on_c, 7, 52, 100
1, 96247, Note_on_c, 7, 40, 100
1, 96277, Note_on_c, 3, 64, 0
1, 96277, Note_on_c, 3, 68, 127
1, 96307, Note_on_c, 3, 68, 0
1, 96307, Note_on_c, 3, 71, 127
1, 96337, Note_on_c, 3, 71, 0
1, 96337, Note_on_c, 3, 68, 127
1, 96367, Note_on_c, 3, 68, 0
1, 96367, Note_on_c, 3, 64, 127
1, 96367, Note_on_c, 7, 64, 0
1, 96367, Note_on_c, 7, 56, 0
1, 96367, Note_on_c, 7, 59, 0
1, 96367, Note_on_c, 7, 52, 0
1, 96367, Note_on_c, 7, 40, 0
1, 96397, Note_on_c, 3, 64, 0
1, 96397, Note_on_c, 3, 59, 127
1, 96427, Note_on_c, 3, 59, 0
1, 96427, Note_on_c, 3, 56, 127
1, 96457, Note_on_c, 3, 56, 0
1, 96457, Note_on_c, 3, 59, 127
1, 96487, Note_on_c, 3, 59, 0
1, 96487, Note_on_c, 3, 57, 127
1, 96517, Note_on_c, 3, 57, 0
1, 96517, Note_on_c, 3, 56, 127
1, 96547, Note_on_c, 3, 56, 0
1, 96547, Note_on_c, 3, 57, 127
1, 96547, Note_on_c, 7, 63, 100
1, 96547, Note_on_c, 7, 57, 100
1, 96547, Note_on_c, 7, 59, 100
1, 96547, Note_on_c, 7, 47, 100
1, 96547, Note_on_c, 7, 35, 100
1, 96577, Note_on_c, 3, 57, 0
1, 96577, Note_on_c, 3, 54, 127
1, 96577, Note_on_c, 7, 63, 0
1, 96577, Note_on_c, 7, 57, 0
1, 96577, Note_on_c, 7, 59, 0
1, 96577, Note_on_c, 7, 47, 0
1, 96577, Note_on_c, 7, 35, 0
1, 96607, Note_on_c, 3, 54, 0
1, 96607, Note_on_c, 3, 52, 127
1, 96607, Note_on_c, 7, 64, 100
1, 96607, Note_on_c, 7, 56, 100
1, 96607, Note_on_c, 7, 59, 100
1, 96607, Note_on_c, 7, 52, 100
1, 96607, Note_on_c, 7, 40, 100
1, 96637, Note_on_c, 3, 52, 0
1, 96637, Note_on_c, 3, 56, 127
1, 96667, Note_on_c, 3, 56, 0
1, 96667, Note_on_c, 3, 57, 127
1, 96682, Note_on_c, 3, 57, 0
1, 96697, Note_on_c, 3, 59, 127
1, 96712, Note_on_c, 3, 59, 0
1, 96727, Note_on_c, 3, 61, 127
1, 96727, Note_on_c, 7, 64, 0
1, 96727, Note_on_c, 7, 56, 0
1, 96727, Note_on_c, 7, 59, 0
1, 96727, Note_on_c, 7, 52, 0
1, 96727, Note_on_c, 7, 40, 0
1, 96742, Note_on_c, 3, 61, 0
1, 96757, Note_on_c, 3, 63, 127
1, 96772, Note_on_c, 3, 63, 0
1, 96787, Note_on_c, 3, 64, 127
1, 96817, Note_on_c, 3, 64, 0
1, 96817, Note_on_c, 3, 68, 127
1, 96847, Note_on_c, 3, 68, 0
1, 96847, Note_on_c, 3, 69, 127
1, 96862, Note_on_c, 3, 69, 0
1, 96877, Note_on_c, 3, 71, 127
1, 96892, Note_on_c, 3, 71, 0
1, 96907, Note_on_c, 3, 73, 127
1, 96922, Note_on_c, 3, 73, 0
1, 96937, Note_on_c, 3, 75, 127
1, 96952, Note_on_c, 3, 75, 0
1, 96967, Note_on_c, 3, 76, 127
1, 97027, Note_on_c, 7, 68, 100
1, 97027, Note_on_c, 7, 64, 100
1, 97027, Note_on_c, 7, 62, 100
1, 97087, Note_on_c, 7, 68, 0
1, 97087, Note_on_c, 7, 69, 100
1, 97087, Note_on_c, 7, 64, 0
1, 97087, Note_on_c, 7, 66, 100
1, 97087, Note_on_c, 7, 61, 100
1, 97087, Note_on_c, 7, 62, 0
1, 97147, Note_on_c, 7, 69, 0
1, 97147, Note_on_c, 7, 71, 100
1, 97147, Note_on_c, 7, 66, 0
1, 97147, Note_on_c, 7, 68, 100
1, 97147, Note_on_c, 7, 59, 100
1, 97147, Note_on_c, 7, 61, 0
1, 97207, Note_on_c, 7, 71, 0
1, 97207, Note_on_c, 7, 73, 100
1, 97207, Note_on_c, 7, 68, 0
1, 97207, Note_on_c, 7, 69, 100
1, 97207, Note_on_c, 7, 57, 100
1, 97207, Note_on_c, 7, 59, 0
1, 97267, Note_on_c, 3, 76, 0
1, 97267, Note_on_c, 3, 76, 127
1, 97267, Note_on_c, 7, 73, 0
1, 97267, Note_on_c, 7, 74, 100
1, 97267, Note_on_c, 7, 69, 0
1, 97267, Note_on_c, 7, 71, 100
1, 97267, Note_on_c, 7, 56, 100
1, 97267, Note_on_c, 7, 57, 0
1, 97297, Note_on_c, 3, 76, 0
1, 97327, Note_on_c, 3, 76, 127
1, 97327, Note_on_c, 7, 74, 0
1, 97327, Note_on_c, 7, 73, 100
1, 97327, Note_on_c, 7, 71, 0
1, 97327, Note_on_c, 7, 69, 100
1, 97327, Note_on_c, 7, 57, 100
1, 97327, Note_on_c, 7, 56, 0
1, 97357, Note_on_c, 3, 76, 0
1, 97357, Note_on_c, 7, 73, 0
1, 97357, Note_on_c, 7, 69, 0
1, 97447, Note_on_c, 3, 76, 127
1, 97447, Note_on_c, 7, 73, 100
1, 97447, Note_on_c, 7, 69, 100
1, 97447, Note_on_c, 7, 57, 0
1, 97477, Note_on_c, 3, 76, 0
1, 97477, Note_on_c, 7, 73, 0
1, 97477, Note_on_c, 7, 69, 0
1, 97507, Note_on_c, 3, 76, 127
1, 97507, Note_on_c, 7, 73, 100
1, 97507, Note_on_c, 7, 69, 100
1, 97537, Note_on_c, 3, 76, 0
1, 97537, Note_on_c, 7, 73, 0
1, 97537, Note_on_c, 7, 69, 0
1, 97567, Note_on_c, 3, 75, 127
1, 97567, Note_on_c, 7, 73, 100
1, 97567, Note_on_c, 7, 69, 100
1, 97597, Note_on_c, 3, 75, 0
1, 97597, Note_on_c, 3, 76, 127
1, 97597, Note_on_c, 7, 73, 0
1, 97597, Note_on_c, 7, 69, 0
1, 97627, Note_on_c, 3, 76, 0
1, 97627, Note_on_c, 3, 78, 127
1, 97627, Note_on_c, 7, 73, 100
1, 97627, Note_on_c, 7, 69, 100
1, 97657, Note_on_c, 3, 78, 0
1, 97657, Note_on_c, 3, 76, 127
1, 97657, Note_on_c, 7, 73, 0
1, 97657, Note_on_c, 7, 69, 0
1, 97687, Note_on_c, 3, 76, 0
1, 97687, Note_on_c, 3, 74, 127
1, 97687, Note_on_c, 7, 71, 100
1, 97687, Note_on_c, 7, 68, 100
1, 97687, Note_on_c, 7, 64, 100
1, 97867, Note_on_c, 3, 74, 0
1, 97867, Note_on_c, 3, 73, 127
1, 97867, Note_on_c, 7, 71, 0
1, 97867, Note_on_c, 7, 69, 100
1, 97867, Note_on_c, 7, 68, 0
1, 97867, Note_on_c, 7, 64, 0
1, 97867, Note_on_c, 7, 66, 100
1, 97927, Note_on_c, 3, 73, 0
1, 97927, Note_on_c, 7, 69, 0
1, 97927, Note_on_c, 7, 66, 0
1, 97987, Note_on_c, 3, 81, 127
1, 98017, Note_on_c, 3, 81, 0
1, 98017, Note_on_c, 3, 80, 127
1, 98047, Note_on_c, 3, 80, 0
1, 98047, Note_on_c, 3, 78, 127
1, 98047, Note_on_c, 7, 69, 100
1, 98047, Note_on_c, 7, 66, 100
1, 98047, Note_on_c, 7, 62, 100
1, 98077, Note_on_c, 3, 78, 0
1, 98077, Note_on_c, 7, 69, 0
1, 98077, Note_on_c, 7, 66, 0
1, 98077, Note_on_c, 7, 62, 0
1, 98107, Note_on_c, 3, 78, 127
1, 98107, Note_on_c, 7, 69, 100
1, 98107, Note_on_c, 7, 66, 100
1, 98107, Note_on_c, 7, 62, 100
1, 98137, Note_on_c, 3, 78, 0
1, 98137, Note_on_c, 7, 69, 0
1, 98137, Note_on_c, 7, 66, 0
1, 98137, Note_on_c, 7, 62, 0
1, 98167, Note_on_c, 3, 78, 127
1, 98197, Note_on_c, 3, 78, 0
1, 98197, Note_on_c, 3, 76, 127
1, 98227, Note_on_c, 3, 76, 0
1, 98227, Note_on_c, 3, 74, 127
1, 98227, Note_on_c, 7, 71, 100
1, 98227, Note_on_c, 7, 66, 100
1, 98227, Note_on_c, 7, 62, 100
1, 98257, Note_on_c, 7, 71, 0
1, 98257, Note_on_c, 7, 66, 0
1, 98257, Note_on_c, 7, 62, 0
1, 98287, Note_on_c, 3, 74, 0
1, 98287, Note_on_c, 3, 74, 127
1, 98287, Note_on_c, 7, 71, 100
1, 98287, Note_on_c, 7, 66, 100
1, 98287, Note_on_c, 7, 62, 100
1, 98317, Note_on_c, 3, 74, 0
1, 98317, Note_on_c, 3, 73, 127
1, 98317, Note_on_c, 7, 71, 0
1, 98317, Note_on_c, 7, 66, 0
1, 98317, Note_on_c, 7, 62, 0
1, 98347, Note_on_c, 3, 73, 0
1, 98347, Note_on_c, 3, 71, 127
1, 98377, Note_on_c, 3, 71, 0
1, 98377, Note_on_c, 3, 69, 127
1, 98407, Note_on_c, 3, 69, 0
1, 98407, Note_on_c, 3, 68, 127
1, 98407, Note_on_c, 7, 64, 100
1, 98467, Note_on_c, 3, 68, 0
1, 98467, Note_on_c, 3, 69, 127
1, 98467, Note_on_c, 7, 64, 0
1, 98467, Note_on_c, 7, 66, 100
1, 98467, Note_on_c, 7, 64, 100
1, 98497, Note_on_c, 7, 64, 0
1, 98527, Note_on_c, 3, 69, 0
1, 98527, Note_on_c, 3, 70, 127
1, 98527, Note_on_c, 7, 66, 0
1, 98527, Note_on_c, 7, 67, 100
1, 98527, Note_on_c, 7, 64, 100
1, 98557, Note_on_c, 7, 64, 0
1, 98587, Note_on_c, 3, 70, 0
1, 98587, Note_on_c, 3, 71, 127
1, 98587, Note_on_c, 7, 67, 0
1, 98587, Note_on_c, 7, 68, 100
1, 98587, Note_on_c, 7, 64, 100
1, 98647, Note_on_c, 3, 71, 0
1, 98647, Note_on_c, 7, 68, 0
1, 98647, Note_on_c, 7, 64, 0
1, 98707, Note_on_c, 3, 73, 127
1, 98707, Note_on_c, 7, 69, 100
1, 98737, Note_on_c, 3, 73, 0
1, 98737, Note_on_c, 3, 74, 127
1, 98737, Note_on_c, 7, 69, 0
1, 98737, Note_on_c, 7, 71, 100
1, 98767, Note_on_c, 3, 74, 0
1, 98767, Note_on_c, 3, 76, 127
1, 98767, Note_on_c, 7, 71, 0
1, 98767, Note_on_c, 7, 73, 100
1, 98767, Note_on_c, 7, 69, 100
1, 98797, Note_on_c, 3, 76, 0
1, 98797, Note_on_c, 7, 73, 0
1, 98797, Note_on_c, 7, 69, 0
1, 98827, Note_on_c, 3, 76, 127
1, 98857, Note_on_c, 3, 76, 0
1, 98887, Note_on_c, 3, 76, 127
1, 98887, Note_on_c, 7, 73, 100
1, 98887, Note_on_c, 7, 69, 100
1, 98917, Note_on_c, 3, 76, 0
1, 98917, Note_on_c, 7, 73, 0
1, 98917, Note_on_c, 7, 69, 0
1, 98947, Note_on_c, 3, 78, 127
1, 98947, Note_on_c, 7, 73, 100
1, 98947, Note_on_c, 7, 69, 100
1, 98977, Note_on_c, 3, 78, 0
1, 98977, Note_on_c, 3, 76, 127
1, 98977, Note_on_c, 7, 73, 0
1, 98977, Note_on_c, 7, 69, 0
1, 99007, Note_on_c, 3, 76, 0
1, 99007, Note_on_c, 3, 75, 127
1, 99007, Note_on_c, 7, 73, 100
1, 99007, Note_on_c, 7, 69, 100
1, 99037, Note_on_c, 3, 75, 0
1, 99037, Note_on_c, 3, 76, 127
1, 99037, Note_on_c, 7, 73, 0
1, 99037, Note_on_c, 7, 69, 0
1, 99067, Note_on_c, 3, 76, 0
1, 99067, Note_on_c, 3, 78, 127
1, 99067, Note_on_c, 7, 73, 100
1, 99067, Note_on_c, 7, 69, 100
1, 99097, Note_on_c, 3, 78, 0
1, 99097, Note_on_c, 3, 76, 127
1, 99097, Note_on_c, 7, 73, 0
1, 99097, Note_on_c, 7, 69, 0
1, 99127, Note_on_c, 3, 76, 0
1, 99127, Note_on_c, 3, 80, 127
1, 99127, Note_on_c, 7, 74, 100
1, 99127, Note_on_c, 7, 71, 100
1, 99127, Note_on_c, 7, 64, 100
1, 99247, Note_on_c, 7, 64, 0
1, 99247, Note_on_c, 7, 65, 100
1, 99307, Note_on_c, 3, 80, 0
1, 99307, Note_on_c, 3, 81, 127
1, 99307, Note_on_c, 7, 74, 0
1, 99307, Note_on_c, 7, 73, 100
1, 99307, Note_on_c, 7, 71, 0
1, 99307, Note_on_c, 7, 69, 100
1, 99307, Note_on_c, 7, 65, 0
1, 99307, Note_on_c, 7, 66, 100
1, 99337, Note_on_c, 7, 66, 0
1, 99367, Note_on_c, 3, 81, 0
1, 99367, Note_on_c, 7, 73, 0
1, 99367, Note_on_c, 7, 69, 0
1, 99427, Note_on_c, 3, 81, 127
1, 99457, Note_on_c, 3, 81, 0
1, 99457, Note_on_c, 3, 80, 127
1, 99487, Note_on_c, 3, 80, 0
1, 99487, Note_on_c, 3, 78, 127
1, 99487, Note_on_c, 7, 71, 100
1, 99487, Note_on_c, 7, 66, 100
1, 99487, Note_on_c, 7, 62, 100
1, 99502, Note_on_c, 3, 78, 0
1, 99517, Note_on_c, 3, 76, 127
1, 99532, Note_on_c, 3, 76, 0
1, 99547, Note_on_c, 3, 74, 127
1, 99547, Note_on_c, 7, 71, 0
1, 99547, Note_on_c, 7, 66, 0
1, 99547, Note_on_c, 7, 62, 0
1, 99562, Note_on_c, 3, 74, 0
1, 99577, Note_on_c, 3, 73, 127
1, 99592, Note_on_c, 3, 73, 0
1, 99607, Note_on_c, 3, 71, 127
1, 99622, Note_on_c, 3, 71, 0
1, 99637, Note_on_c, 3, 69, 127
1, 99652, Note_on_c, 3, 69, 0
1, 99667, Note_on_c, 3, 68, 127
1, 99667, Note_on_c, 7, 62, 100
1, 99667, Note_on_c, 7, 59, 100
1, 99667, Note_on_c, 7, 52, 100
1, 99682, Note_on_c, 3, 68, 0
1, 99697, Note_on_c, 3, 69, 127
1, 99712, Note_on_c, 3, 69, 0
1, 99727, Note_on_c, 3, 71, 127
1, 99727, Note_on_c, 7, 62, 0
1, 99727, Note_on_c, 7, 59, 0
1, 99727, Note_on_c, 7, 52, 0
1, 99742, Note_on_c, 3, 71, 0
1, 99757, Note_on_c, 3, 73, 127
1, 99772, Note_on_c, 3, 73, 0
1, 99787, Note_on_c, 3, 74, 127
1, 99802, Note_on_c, 3, 74, 0
1, 99817, Note_on_c, 3, 68, 127
1, 99832, Note_on_c, 3, 68, 0
1, 99847, Note_on_c, 3, 69, 127
1, 99847, Note_on_c, 4, 69, 80
1, 99847, Note_on_c, 5, 57, 80
1, 99847, Note_on_c, 7, 61, 100
1, 99847, Note_on_c, 7, 57, 100
1, 99847, Note_on_c, 7, 45, 100
1, 99907, Note_on_c, 7, 61, 0
1, 99907, Note_on_c, 7, 69, 100
1, 99937, Note_on_c, 7, 69, 0
1, 99937, Note_on_c, 7, 68, 100
1, 99967, Note_on_c, 3, 69, 0
1, 99967, Note_on_c, 7, 68, 0
1, 99967, Note_on_c, 7, 66, 100
1, 99967, Note_on_c, 7, 57, 0
1, 99967, Note_on_c, 7, 45, 0
1, 99997, Note_on_c, 7, 66, 0
1, 99997, Note_on_c, 7, 64, 100
1, 100027, Note_on_c, 7, 64, 0
1, 100027, Note_on_c, 7, 62, 100
1, 100057, Note_on_c, 7, 62, 0
1, 100057, Note_on_c, 7, 61, 100
1, 100087, Note_on_c, 7, 61, 0
1, 100087, Note_on_c, 7, 59, 100
1, 100117, Note_on_c, 7, 59, 0
1, 100117, Note_on_c, 7, 57, 100
1, 100147, Note_on_c, 7, 57, 0
1, 100147, Note_on_c, 7, 56, 100
1, 100177, Note_on_c, 7, 56, 0
1, 100177, Note_on_c, 7, 57, 100
1, 100207, Note_on_c, 4, 71, 80
1, 100207, Note_on_c, 4, 69, 0
1, 100207, Note_on_c, 4, 68, 80
1, 100207, Note_on_c, 5, 59, 80
1, 100207, Note_on_c, 5, 57, 0
1, 100207, Note_on_c, 5, 56, 80
1, 100207, Note_on_c, 7, 57, 0
1, 100207, Note_on_c, 7, 59, 100
1, 100207, Note_on_c, 7, 56, 100
1, 100207, Note_on_c, 7, 52, 100
1, 100207, Note_on_c, 7, 40, 100
1, 100267, Note_on_c, 7, 59, 0
1, 100267, Note_on_c, 7, 71, 100
1, 100297, Note_on_c, 7, 71, 0
1, 100297, Note_on_c, 7, 69, 100
1, 100327, Note_on_c, 7, 69, 0
1, 100327, Note_on_c, 7, 68, 100
1, 100327, Note_on_c, 7, 56, 0
1, 100327, Note_on_c, 7, 52, 0
1, 100327, Note_on_c, 7, 40, 0
1, 100357, Note_on_c, 7, 68, 0
1, 100357, Note_on_c, 7, 66, 100
1, 100387, Note_on_c, 7, 66, 0
1, 100387, Note_on_c, 7, 64, 100
1, 100417, Note_on_c, 7, 64, 0
1, 100417, Note_on_c, 7, 62, 100
1, 100447, Note_on_c, 7, 62, 0
1, 100447, Note_on_c, 7, 61, 100
1, 100477, Note_on_c, 7, 61, 0
1, 100477, Note_on_c, 7, 59, 100
1, 100507, Note_on_c, 7, 59, 0
1, 100507, Note_on_c, 7, 57, 100
1, 100537, Note_on_c, 7, 57, 0
1, 100537, Note_on_c, 7, 59, 100
1, 100567, Note_on_c, 4, 71, 0
1, 100567, Note_on_c, 4, 73, 80
1, 100567, Note_on_c, 4, 68, 0
1, 100567, Note_on_c, 4, 69, 80
1, 100567, Note_on_c, 5, 59, 0
1, 100567, Note_on_c, 5, 61, 80
1, 100567, Note_on_c, 5, 56, 0
1, 100567, Note_on_c, 5, 57, 80
1, 100567, Note_on_c, 6, 45, 80
1, 100567, Note_on_c, 7, 59, 0
1, 100567, Note_on_c, 7, 61, 100
1, 100567, Note_on_c, 7, 57, 100
1, 100567, Note_on_c, 7, 45, 100
1, 100567, Note_on_c, 7, 33, 100
1, 100627, Note_on_c, 7, 61, 0
1, 100627, Note_on_c, 7, 73, 100
1, 100627, Note_on_c, 7, 69, 100
1, 100657, Note_on_c, 7, 73, 0
1, 100657, Note_on_c, 7, 71, 100
1, 100657, Note_on_c, 7, 69, 0
1, 100657, Note_on_c, 7, 68, 100
1, 100687, Note_on_c, 7, 71, 0
1, 100687, Note_on_c, 7, 69, 100
1, 100687, Note_on_c, 7, 68, 0
1, 100687, Note_on_c, 7, 66, 100
1, 100687, Note_on_c, 7, 57, 0
1, 100687, Note_on_c, 7, 45, 0
1, 100687, Note_on_c, 7, 33, 0
1, 100717, Note_on_c, 7, 69, 0
1, 100717, Note_on_c, 7, 68, 100
1, 100717, Note_on_c, 7, 66, 0
1, 100717, Note_on_c, 7, 64, 100
1, 100747, Note_on_c, 7, 68, 0
1, 100747, Note_on_c, 7, 66, 100
1, 100747, Note_on_c, 7, 64, 0
1, 100747, Note_on_c, 7, 62, 100
1, 100777, Note_on_c, 7, 66, 0
1, 100777, Note_on_c, 7, 64, 100
1, 100777, Note_on_c, 7, 62, 0
1, 100777, Note_on_c, 7, 61, 100
1, 100807, Note_on_c, 7, 64, 0
1, 100807, Note_on_c, 7, 62, 100
1, 100807, Note_on_c, 7, 61, 0
1, 100807, Note_on_c, 7, 59, 100
1, 100837, Note_on_c, 7, 62, 0
1, 100837, Note_on_c, 7, 61, 100
1, 100837, Note_on_c, 7, 59, 0
1, 100837, Note_on_c, 7, 57, 100
1, 100867, Note_on_c, 7, 61, 0
1, 100867, Note_on_c, 7, 59, 100
1, 100867, Note_on_c, 7, 57, 0
1, 100867, Note_on_c, 7, 56, 100
1, 100897, Note_on_c, 7, 59, 0
1, 100897, Note_on_c, 7, 61, 100
1, 100897, Note_on_c, 7, 56, 0
1, 100897, Note_on_c, 7, 57, 100
1, 100927, Note_on_c, 4, 73, 0
1, 100927, Note_on_c, 4, 74, 80
1, 100927, Note_on_c, 4, 69, 0
1, 100927, Note_on_c, 4, 71, 80
1, 100927, Note_on_c, 5, 61, 0
1, 100927, Note_on_c, 5, 62, 80
1, 100927, Note_on_c, 5, 57, 0
1, 100927, Note_on_c, 5, 59, 80
1, 100927, Note_on_c, 7, 61, 0
1, 100927, Note_on_c, 7, 62, 100
1, 100927, Note_on_c, 7, 57, 0
1, 100927, Note_on_c, 7, 59, 100
1, 100927, Note_on_c, 7, 57, 100
1, 100927, Note_on_c, 7, 45, 100
1, 100927, Note_on_c, 7, 33, 100
1, 100987, Note_on_c, 7, 62, 0
1, 100987, Note_on_c, 7, 74, 100
1, 100987, Note_on_c, 7, 59, 0
1, 100987, Note_on_c, 7, 71, 100
1, 101017, Note_on_c, 7, 74, 0
1, 101017, Note_on_c, 7, 73, 100
1, 101017, Note_on_c, 7, 71, 0
1, 101017, Note_on_c, 7, 69, 100
1, 101047, Note_on_c, 7, 73, 0
1, 101047, Note_on_c, 7, 71, 100
1, 101047, Note_on_c, 7, 69, 0
1, 101047, Note_on_c, 7, 68, 100
1, 101047, Note_on_c, 7, 57, 0
1, 101047, Note_on_c, 7, 45, 0
1, 101047, Note_on_c, 7, 33, 0
1, 101077, Note_on_c, 7, 71, 0
1, 101077, Note_on_c, 7, 69, 100
1, 101077, Note_on_c, 7, 68, 0
1, 101077, Note_on_c, 7, 66, 100
1, 101107, Note_on_c, 7, 69, 0
1, 101107, Note_on_c, 7, 68, 100
1, 101107, Note_on_c, 7, 66, 0
1, 101107, Note_on_c, 7, 64, 100
1, 101137, Note_on_c, 7, 68, 0
1, 101137, Note_on_c, 7, 66, 100
1, 101137, Note_on_c, 7, 64, 0
1, 101137, Note_on_c, 7, 62, 100
1, 101167, Note_on_c, 7, 66, 0
1, 101167, Note_on_c, 7, 64, 100
1, 101167, Note_on_c, 7, 62, 0
1, 101167, Note_on_c, 7, 61, 100
1, 101197, Note_on_c, 7, 64, 0
1, 101197, Note_on_c, 7, 62, 100
1, 101197, Note_on_c, 7, 61, 0
1, 101197, Note_on_c, 7, 59, 100
1, 101227, Note_on_c, 7, 62, 0
1, 101227, Note_on_c, 7, 61, 100
1, 101227, Note_on_c, 7, 59, 0
1, 101227, Note_on_c, 7, 57, 100
1, 101257, Note_on_c, 7, 61, 0
1, 101257, Note_on_c, 7, 62, 100
1, 101257, Note_on_c, 7, 57, 0
1, 101257, Note_on_c, 7, 59, 100
1, 101287, Note_on_c, 4, 74, 0
1, 101287, Note_on_c, 4, 76, 80
1, 101287, Note_on_c, 4, 71, 0
1, 101287, Note_on_c, 4, 61, 80
1, 101287, Note_on_c, 5, 62, 0
1, 101287, Note_on_c, 5, 64, 80
1, 101287, Note_on_c, 5, 59, 0
1, 101287, Note_on_c, 5, 61, 80
1, 101287, Note_on_c, 7, 62, 0
1, 101287, Note_on_c, 7, 64, 100
1, 101287, Note_on_c, 7, 59, 0
1, 101287, Note_on_c, 7, 61, 100
1, 101287, Note_on_c, 7, 57, 100
1, 101287, Note_on_c, 7, 45, 100
1, 101287, Note_on_c, 7, 33, 100
1, 101347, Note_on_c, 7, 64, 0
1, 101347, Note_on_c, 7, 61, 0
1, 101407, Note_on_c, 4, 76, 0
1, 101407, Note_on_c, 4, 61, 0
1, 101407, Note_on_c, 5, 64, 0
1, 101407, Note_on_c, 5, 61, 0
1, 101407, Note_on_c, 6, 45, 0
1, 101407, Note_on_c, 7, 57, 0
1, 101407, Note_on_c, 7, 45, 0
1, 101407, Note_on_c, 7, 33, 0
1, 101587, Note_on_c, 3, 76, 127
1, 101647, Note_on_c, 3, 76, 0
1, 101647, Note_on_c, 3, 81, 127
1, 101647, Note_on_c, 7, 69, 100
1, 101647, Note_on_c, 7, 61, 100
1, 101707, Note_on_c, 3, 81, 0
1, 101707, Note_on_c, 3, 80, 127
1, 101767, Note_on_c, 3, 80, 0
1, 101767, Note_on_c, 3, 78, 127
1, 101827, Note_on_c, 3, 78, 0
1, 101827, Note_on_c, 3, 76, 127
1, 101887, Note_on_c, 3, 76, 0
1, 101887, Note_on_c, 3, 74, 127
1, 101947, Note_on_c, 3, 74, 0
1, 101947, Note_on_c, 3, 73, 127
1, 102007, Note_on_c, 3, 73, 0
1, 102007, Note_on_c, 3, 70, 127
1, 102007, Note_on_c, 7, 69, 0
1, 102007, Note_on_c, 7, 66, 100
1, 102007, Note_on_c, 7, 61, 0
1, 102007, Note_on_c, 7, 62, 100
1, 102067, Note_on_c, 3, 70, 0
1, 102067, Note_on_c, 3, 71, 127
1, 102127, Note_on_c, 3, 71, 0
1, 102127, Note_on_c, 3, 73, 127
1, 102127, Note_on_c, 7, 66, 0
1, 102127, Note_on_c, 7, 70, 100
1, 102187, Note_on_c, 3, 73, 0
1, 102187, Note_on_c, 3, 74, 127
1, 102187, Note_on_c, 7, 70, 0
1, 102187, Note_on_c, 7, 71, 100
1, 102247, Note_on_c, 3, 74, 0
1, 102247, Note_on_c, 3, 76, 127
1, 102247, Note_on_c, 7, 71, 0
1, 102247, Note_on_c, 7, 73, 100
1, 102307, Note_on_c, 3, 76, 0
1, 102307, Note_on_c, 3, 78, 127
1, 102307, Note_on_c, 7, 73, 0
1, 102307, Note_on_c, 7, 74, 100
1, 102367, Note_on_c, 3, 78, 0
1, 102367, Note_on_c, 3, 78, 127
1, 102367, Note_on_c, 7, 74, 0
1, 102367, Note_on_c, 7, 73, 100
1, 102367, Note_on_c, 7, 62, 0
1, 102367, Note_on_c, 7, 64, 100
1, 102397, Note_on_c, 3, 78, 0
1, 102397, Note_on_c, 3, 76, 127
1, 102427, Note_on_c, 3, 76, 0
1, 102427, Note_on_c, 3, 74, 127
1, 102457, Note_on_c, 3, 74, 0
1, 102457, Note_on_c, 3, 73, 127
1, 102487, Note_on_c, 3, 73, 0
1, 102487, Note_on_c, 3, 71, 127
1, 102487, Note_on_c, 7, 73, 0
1, 102487, Note_on_c, 7, 64, 0
1, 102517, Note_on_c, 3, 71, 0
1, 102517, Note_on_c, 3, 69, 127
1, 102547, Note_on_c, 3, 69, 0
1, 102547, Note_on_c, 3, 68, 127
1, 102547, Note_on_c, 7, 74, 100
1, 102547, Note_on_c, 7, 64, 100
1, 102577, Note_on_c, 3, 68, 0
1, 102577, Note_on_c, 3, 69, 127
1, 102607, Note_on_c, 3, 69, 0
1, 102607, Note_on_c, 3, 71, 127
1, 102637, Note_on_c, 3, 71, 0
1, 102637, Note_on_c, 3, 73, 127
1, 102667, Note_on_c, 3, 73, 0
1, 102667, Note_on_c, 3, 74, 127
1, 102667, Note_on_c, 7, 74, 0
1, 102667, Note_on_c, 7, 64, 0
1, 102697, Note_on_c, 3, 74, 0
1, 102697, Note_on_c, 3, 76, 127
1, 102727, Note_on_c, 3, 76, 0
1, 102727, Note_on_c, 3, 74, 127
1, 102727, Note_on_c, 7, 68, 100
1, 102727, Note_on_c, 7, 65, 100
1, 102787, Note_on_c, 7, 68, 0
1, 102787, Note_on_c, 7, 68, 100
1, 102787, Note_on_c, 7, 65, 0
1, 102787, Note_on_c, 7, 65, 100
1, 102847, Note_on_c, 7, 68, 0
1, 102847, Note_on_c, 7, 68, 100
1, 102847, Note_on_c, 7, 65, 0
1, 102847, Note_on_c, 7, 65, 100
1, 102907, Note_on_c, 3, 74, 0
1, 102907, Note_on_c, 3, 73, 127
1, 102907, Note_on_c, 7, 68, 0
1, 102907, Note_on_c, 7, 69, 100
1, 102907, Note_on_c, 7, 65, 0
1, 102907, Note_on_c, 7, 66, 100
1, 102967, Note_on_c, 3, 73, 0
1, 102967, Note_on_c, 7, 69, 0
1, 102967, Note_on_c, 7, 66, 0
1, 103027, Note_on_c, 7, 69, 100
1, 103087, Note_on_c, 4, 81, 80
1, 103087, Note_on_c, 4, 69, 80
1, 103087, Note_on_c, 5, 49, 80
1, 103087, Note_on_c, 6, 57, 80
1, 103087, Note_on_c, 6, 45, 80
1, 103087, Note_on_c, 7, 69, 0
1, 103087, Note_on_c, 7, 81, 100
1, 103087, Note_on_c, 7, 64, 100
1, 103087, Note_on_c, 7, 61, 100
1, 103087, Note_on_c, 7, 49, 100
1, 103087, Note_on_c, 7, 37, 100
1, 103117, Note_on_c, 7, 64, 0
1, 103117, Note_on_c, 7, 69, 100
1, 103147, Note_on_c, 7, 81, 0
1, 103147, Note_on_c, 7, 85, 100
1, 103147, Note_on_c, 7, 69, 0
1, 103147, Note_on_c, 7, 64, 100
1, 103147, Note_on_c, 7, 61, 0
1, 103147, Note_on_c, 7, 61, 100
1, 103147, Note_on_c, 7, 49, 0
1, 103147, Note_on_c, 7, 49, 100
1, 103147, Note_on_c, 7, 37, 0
1, 103147, Note_on_c, 7, 37, 100
1, 103177, Note_on_c, 7, 64, 0
1, 103177, Note_on_c, 7, 69, 100
1, 103207, Note_on_c, 7, 85, 0
1, 103207, Note_on_c, 7, 85, 100
1, 103207, Note_on_c, 7, 69, 0
1, 103207, Note_on_c, 7, 64, 100
1, 103207, Note_on_c, 7, 61, 0
1, 103207, Note_on_c, 7, 61, 100
1, 103207, Note_on_c, 7, 49, 0
1, 103207, Note_on_c, 7, 49, 100
1, 103207, Note_on_c, 7, 37, 0
1, 103207, Note_on_c, 7, 37, 100
1, 103237, Note_on_c, 7, 64, 0
1, 103237, Note_on_c, 7, 69, 100
1, 103267, Note_on_c, 4, 81, 0
1, 103267, Note_on_c, 4, 88, 80
1, 103267, Note_on_c, 7, 85, 0
1, 103267, Note_on_c, 7, 69, 0
1, 103267, Note_on_c, 7, 64, 100
1, 103267, Note_on_c, 7, 61, 0
1, 103267, Note_on_c, 7, 61, 100
1, 103267, Note_on_c, 7, 49, 0
1, 103267, Note_on_c, 7, 49, 100
1, 103267, Note_on_c, 7, 37, 0
1, 103267, Note_on_c, 7, 37, 100
1, 103297, Note_on_c, 7, 64, 0
1, 103297, Note_on_c, 7, 69, 100
1, 103327, Note_on_c, 7, 81, 100
1, 103327, Note_on_c, 7, 69, 0
1, 103327, Note_on_c, 7, 64, 100
1, 103327, Note_on_c, 7, 61, 0
1, 103327, Note_on_c, 7, 61, 100
1, 103327, Note_on_c, 7, 49, 0
1, 103327, Note_on_c, 7, 49, 100
1, 103327, Note_on_c, 7, 37, 0
1, 103327, Note_on_c, 7, 37, 100
1, 103357, Note_on_c, 7, 81, 0
1, 103357, Note_on_c, 7, 64, 0
1, 103357, Note_on_c, 7, 69, 100
1, 103387, Note_on_c, 7, 76, 100
1, 103387, Note_on_c, 7, 69, 0
1, 103387, Note_on_c, 7, 64, 100
1, 103387, Note_on_c, 7, 61, 0
1, 103387, Note_on_c, 7, 61, 100
1, 103387, Note_on_c, 7, 49, 0
1, 103387, Note_on_c, 7, 49, 100
1, 103387, Note_on_c, 7, 37, 0
1, 103387, Note_on_c, 7, 37, 100
1, 103417, Note_on_c, 7, 76, 0
1, 103417, Note_on_c, 7, 64, 0
1, 103417, Note_on_c, 7, 69, 100
1, 103447, Note_on_c, 4, 88, 0
1, 103447, Note_on_c, 4, 90, 80
1, 103447, Note_on_c, 5, 50, 80
1, 103447, Note_on_c, 5, 49, 0
1, 103447, Note_on_c, 6, 57, 0
1, 103447, Note_on_c, 6, 57, 80
1, 103447, Note_on_c, 6, 45, 0
1, 103447, Note_on_c, 6, 45, 80
1, 103447, Note_on_c, 7, 78, 100
1, 103447, Note_on_c, 7, 69, 0
1, 103447, Note_on_c, 7, 66, 100
1, 103447, Note_on_c, 7, 61, 0
1, 103447, Note_on_c, 7, 62, 100
1, 103447, Note_on_c, 7, 49, 0
1, 103447, Note_on_c, 7, 50, 100
1, 103447, Note_on_c, 7, 37, 0
1, 103447, Note_on_c, 7, 38, 100
1, 103477, Note_on_c, 7, 66, 0
1, 103477, Note_on_c, 7, 69, 100
1, 103507, Note_on_c, 6, 57, 0
1, 103507, Note_on_c, 6, 57, 80
1, 103507, Note_on_c, 6, 45, 0
1, 103507, Note_on_c, 6, 45, 80
1, 103507, Note_on_c, 7, 78, 0
1, 103507, Note_on_c, 7, 81, 100
1, 103507, Note_on_c, 7, 69, 0
1, 103507, Note_on_c, 7, 66, 100
1, 103507, Note_on_c, 7, 62, 0
1, 103507, Note_on_c, 7, 62, 100
1, 103507, Note_on_c, 7, 50, 0
1, 103507, Note_on_c, 7, 50, 100
1, 103507, Note_on_c, 7, 38, 0
1, 103507, Note_on_c, 7, 38, 100
1, 103537, Note_on_c, 7, 66, 0
1, 103537, Note_on_c, 7, 69, 100
1, 103567, Note_on_c, 6, 57, 0
1, 103567, Note_on_c, 6, 57, 80
1, 103567, Note_on_c, 6, 45, 0
1, 103567, Note_on_c, 6, 45, 80
1, 103567, Note_on_c, 7, 81, 0
1, 103567, Note_on_c, 7, 81, 100
1, 103567, Note_on_c, 7, 69, 0
1, 103567, Note_on_c, 7, 66, 100
1, 103567, Note_on_c, 7, 62, 0
1, 103567, Note_on_c, 7, 62, 100
1, 103567, Note_on_c, 7, 50, 0
1, 103567, Note_on_c, 7, 50, 100
1, 103567, Note_on_c, 7, 38, 0
1, 103567, Note_on_c, 7, 38, 100
1, 103597, Note_on_c, 7, 66, 0
1, 103597, Note_on_c, 7, 69, 100
1, 103627, Note_on_c, 4, 90, 0
1, 103627, Note_on_c, 4, 86, 80
1, 103627, Note_on_c, 4, 69, 0
1, 103627, Note_on_c, 4, 66, 80
1, 103627, Note_on_c, 6, 57, 0
1, 103627, Note_on_c, 6, 57, 80
1, 103627, Note_on_c, 6, 45, 0
1, 103627, Note_on_c, 6, 45, 80
1, 103627, Note_on_c, 7, 81, 0
1, 103627, Note_on_c, 7, 69, 0
1, 103627, Note_on_c, 7, 66, 100
1, 103627, Note_on_c, 7, 62, 0
1, 103627, Note_on_c, 7, 62, 100
1, 103627, Note_on_c, 7, 50, 0
1, 103627, Note_on_c, 7, 50, 100
1, 103627, Note_on_c, 7, 38, 0
1, 103627, Note_on_c, 7, 38, 100
1, 103657, Note_on_c, 7, 66, 0
1, 103657, Note_on_c, 7, 69, 100
1, 103687, Note_on_c, 6, 57, 0
1, 103687, Note_on_c, 6, 45, 0
1, 103687, Note_on_c, 7, 78, 100
1, 103687, Note_on_c, 7, 69, 0
1, 103687, Note_on_c, 7, 66, 100
1, 103687, Note_on_c, 7, 62, 0
1, 103687, Note_on_c, 7, 62, 100
1, 103687, Note_on_c, 7, 50, 0
1, 103687, Note_on_c, 7, 50, 100
1, 103687, Note_on_c, 7, 38, 0
1, 103687, Note_on_c, 7, 38, 100
1, 103717, Note_on_c, 7, 78, 0
1, 103717, Note_on_c, 7, 66, 0
1, 103717, Note_on_c, 7, 69, 100
1, 103747, Note_on_c, 4, 66, 0
1, 103747, Note_on_c, 4, 71, 80
1, 103747, Note_on_c, 7, 74, 100
1, 103747, Note_on_c, 7, 69, 0
1, 103747, Note_on_c, 7, 66, 100
1, 103747, Note_on_c, 7, 62, 0
1, 103747, Note_on_c, 7, 62, 100
1, 103747, Note_on_c, 7, 50, 0
1, 103747, Note_on_c, 7, 50, 100
1, 103747, Note_on_c, 7, 38, 0
1, 103747, Note_on_c, 7, 38, 100
1, 103777, Note_on_c, 7, 74, 0
1, 103777, Note_on_c, 7, 66, 0
1, 103777, Note_on_c, 7, 71, 100
1, 103807, Note_on_c, 4, 86, 0
1, 103807, Note_on_c, 4, 85, 80
1, 103807, Note_on_c, 4, 71, 0
1, 103807, Note_on_c, 4, 69, 80
1, 103807, Note_on_c, 5, 52, 80
1, 103807, Note_on_c, 5, 50, 0
1, 103807, Note_on_c, 6, 52, 80
1, 103807, Note_on_c, 7, 73, 100
1, 103807, Note_on_c, 7, 71, 0
1, 103807, Note_on_c, 7, 69, 100
1, 103807, Note_on_c, 7, 62, 0
1, 103807, Note_on_c, 7, 64, 100
1, 103807, Note_on_c, 7, 50, 0
1, 103807, Note_on_c, 7, 52, 100
1, 103807, Note_on_c, 7, 38, 0
1, 103807, Note_on_c, 7, 40, 100
1, 103837, Note_on_c, 7, 73, 0
1, 103837, Note_on_c, 7, 69, 0
1, 103867, Note_on_c, 7, 76, 100
1, 103867, Note_on_c, 7, 73, 100
1, 103867, Note_on_c, 7, 64, 0
1, 103867, Note_on_c, 7, 64, 100
1, 103867, Note_on_c, 7, 52, 0
1, 103867, Note_on_c, 7, 52, 100
1, 103867, Note_on_c, 7, 40, 0
1, 103867, Note_on_c, 7, 40, 100
1, 103897, Note_on_c, 7, 76, 0
1, 103897, Note_on_c, 7, 74, 100
1, 103897, Note_on_c, 7, 73, 0
1, 103897, Note_on_c, 7, 71, 100
1, 103927, Note_on_c, 7, 74, 0
1, 103927, Note_on_c, 7, 76, 100
1, 103927, Note_on_c, 7, 71, 0
1, 103927, Note_on_c, 7, 73, 100
1, 103927, Note_on_c, 7, 64, 0
1, 103927, Note_on_c, 7, 64, 100
1, 103927, Note_on_c, 7, 52, 0
1, 103927, Note_on_c, 7, 52, 100
1, 103927, Note_on_c, 7, 40, 0
1, 103927, Note_on_c, 7, 40, 100
1, 103957, Note_on_c, 7, 76, 0
1, 103957, Note_on_c, 7, 69, 100
1, 103987, Note_on_c, 4, 85, 0
1, 103987, Note_on_c, 4, 83, 80
1, 103987, Note_on_c, 4, 69, 0
1, 103987, Note_on_c, 4, 68, 80
1, 103987, Note_on_c, 7, 73, 0
1, 103987, Note_on_c, 7, 71, 100
1, 103987, Note_on_c, 7, 69, 0
1, 103987, Note_on_c, 7, 68, 100
1, 103987, Note_on_c, 7, 64, 0
1, 103987, Note_on_c, 7, 62, 100
1, 103987, Note_on_c, 7, 52, 0
1, 103987, Note_on_c, 7, 52, 100
1, 103987, Note_on_c, 7, 40, 0
1, 103987, Note_on_c, 7, 40, 100
1, 104017, Note_on_c, 7, 71, 0
1, 104017, Note_on_c, 7, 68, 0
1, 104047, Note_on_c, 7, 74, 100
1, 104047, Note_on_c, 7, 71, 100
1, 104047, Note_on_c, 7, 62, 0
1, 104047, Note_on_c, 7, 62, 100
1, 104047, Note_on_c, 7, 52, 0
1, 104047, Note_on_c, 7, 52, 100
1, 104047, Note_on_c, 7, 40, 0
1, 104047, Note_on_c, 7, 40, 100
1, 104077, Note_on_c, 7, 74, 0
1, 104077, Note_on_c, 7, 73, 100
1, 104077, Note_on_c, 7, 71, 0
1, 104077, Note_on_c, 7, 69, 100
1, 104107, Note_on_c, 7, 73, 0
1, 104107, Note_on_c, 7, 74, 100
1, 104107, Note_on_c, 7, 69, 0
1, 104107, Note_on_c, 7, 71, 100
1, 104107, Note_on_c, 7, 62, 0
1, 104107, Note_on_c, 7, 62, 100
1, 104107, Note_on_c, 7, 52, 0
1, 104107, Note_on_c, 7, 52, 100
1, 104107, Note_on_c, 7, 40, 0
1, 104107, Note_on_c, 7, 40, 100
1, 104137, Note_on_c, 7, 74, 0
1, 104137, Note_on_c, 7, 68, 100
1, 104167, Note_on_c, 4, 83, 0
1, 104167, Note_on_c, 4, 81, 80
1, 104167, Note_on_c, 4, 68, 0
1, 104167, Note_on_c, 4, 69, 80
1, 104167, Note_on_c, 5, 45, 80
1, 104167, Note_on_c, 5, 52, 0
1, 104167, Note_on_c, 6, 45, 80
1, 104167, Note_on_c, 7, 71, 0
1, 104167, Note_on_c, 7, 69, 100
1, 104167, Note_on_c, 7, 68, 0
1, 104167, Note_on_c, 7, 62, 0
1, 104167, Note_on_c, 7, 61, 100
1, 104167, Note_on_c, 7, 52, 0
1, 104167, Note_on_c, 7, 45, 100
1, 104167, Note_on_c, 7, 40, 0
1, 104167, Note_on_c, 7, 33, 100
1, 104197, Note_on_c, 3, 61, 127
1, 104212, Note_on_c, 3, 61, 0
1, 104227, Note_on_c, 3, 62, 127
1, 104242, Note_on_c, 3, 62, 0
1, 104257, Note_on_c, 3, 64, 127
1, 104272, Note_on_c, 3, 64, 0
1, 104287, Note_on_c, 3, 66, 127
1, 104287, Note_on_c, 4, 81, 0
1, 104287, Note_on_c, 4, 69, 0
1, 104287, Note_on_c, 5, 45, 0
1, 104287, Note_on_c, 6, 52, 0
1, 104287, Note_on_c, 6, 45, 0
1, 104287, Note_on_c, 7, 69, 0
1, 104287, Note_on_c, 7, 61, 0
1, 104287, Note_on_c, 7, 45, 0
1, 104287, Note_on_c, 7, 33, 0
1, 104302, Note_on_c, 3, 66, 0
1, 104317, Note_on_c, 3, 68, 127
1, 104332, Note_on_c, 3, 68, 0
1, 104347, Note_on_c, 3, 69, 127
1, 104362, Note_on_c, 3, 69, 0
1, 104377, Note_on_c, 3, 71, 127
1, 104392, Note_on_c, 3, 71, 0
1, 104407, Note_on_c, 3, 73, 127
1, 104422, Note_on_c, 3, 73, 0
1, 104437, Note_on_c, 3, 74, 127
1, 104452, Note_on_c, 3, 74, 0
1, 104467, Note_on_c, 3, 76, 127
1, 104482, Note_on_c, 3, 76, 0
1, 104497, Note_on_c, 3, 78, 127
1, 104512, Note_on_c, 3, 78, 0
1, 104527, Note_on_c, 3, 80, 127
1, 104527, Note_on_c, 7, 74, 100
1, 104527, Note_on_c, 7, 71, 100
1, 104527, Note_on_c, 7, 64, 100
1, 104707, Note_on_c, 7, 64, 0
1, 104707, Note_on_c, 7, 65, 100
1, 104887, Note_on_c, 3, 80, 0
1, 104887, Note_on_c, 3, 81, 127
1, 104887, Note_on_c, 7, 74, 0
1, 104887, Note_on_c, 7, 73, 100
1, 104887, Note_on_c, 7, 71, 0
1, 104887, Note_on_c, 7, 69, 100
1, 104887, Note_on_c, 7, 65, 0
1, 104887, Note_on_c, 7, 66, 100
1, 104947, Note_on_c, 7, 73, 0
1, 104947, Note_on_c, 7, 69, 0
1, 104947, Note_on_c, 7, 66, 0
1, 105007, Note_on_c, 3, 81, 0
1, 105007, Note_on_c, 3, 73, 127
1, 105067, Note_on_c, 3, 73, 0
1, 105067, Note_on_c, 3, 71, 127
1, 105067, Note_on_c, 7, 71, 100
1, 105067, Note_on_c, 7, 66, 100
1, 105067, Note_on_c, 7, 62, 100
1, 105127, Note_on_c, 3, 71, 0
1, 105127, Note_on_c, 3, 74, 127
1, 105127, Note_on_c, 7, 71, 0
1, 105127, Note_on_c, 7, 66, 0
1, 105127, Note_on_c, 7, 62, 0
1, 105187, Note_on_c, 3, 74, 0
1, 105187, Note_on_c, 3, 78, 127
1, 105247, Note_on_c, 3, 78, 0
1, 105247, Note_on_c, 3, 69, 127
1, 105247, Note_on_c, 6, 57, 80
1, 105247, Note_on_c, 6, 49, 80
1, 105247, Note_on_c, 7, 69, 100
1, 105247, Note_on_c, 7, 61, 100
1, 105247, Note_on_c, 7, 64, 100
1, 105247, Note_on_c, 7, 52, 100
1, 105247, Note_on_c, 7, 40, 100
1, 105277, Note_on_c, 7, 69, 0
1, 105277, Note_on_c, 7, 61, 0
1, 105307, Note_on_c, 6, 57, 0
1, 105307, Note_on_c, 6, 57, 80
1, 105307, Note_on_c, 6, 49, 0
1, 105307, Note_on_c, 6, 49, 80
1, 105307, Note_on_c, 7, 69, 100
1, 105307, Note_on_c, 7, 61, 100
1, 105307, Note_on_c, 7, 64, 0
1, 105307, Note_on_c, 7, 64, 100
1, 105337, Note_on_c, 7, 69, 0
1, 105337, Note_on_c, 7, 61, 0
1, 105367, Note_on_c, 3, 69, 0
1, 105367, Note_on_c, 6, 57, 0
1, 105367, Note_on_c, 6, 57, 80
1, 105367, Note_on_c, 6, 49, 0
1, 105367, Note_on_c, 6, 49, 80
1, 105367, Note_on_c, 7, 69, 100
1, 105367, Note_on_c, 7, 61, 100
1, 105367, Note_on_c, 7, 64, 0
1, 105367, Note_on_c, 7, 64, 100
1, 105397, Note_on_c, 7, 69, 0
1, 105397, Note_on_c, 7, 61, 0
1, 105427, Note_on_c, 6, 57, 0
1, 105427, Note_on_c, 6, 59, 80
1, 105427, Note_on_c, 6, 49, 0
1, 105427, Note_on_c, 6, 52, 80
1, 105427, Note_on_c, 7, 73, 100
1, 105442, Note_on_c, 7, 73, 0
1, 105442, Note_on_c, 7, 71, 100
1, 105487, Note_on_c, 6, 59, 0
1, 105487, Note_on_c, 6, 57, 80
1, 105487, Note_on_c, 6, 52, 0
1, 105487, Note_on_c, 6, 49, 80
1, 105487, Note_on_c, 7, 71, 0
1, 105487, Note_on_c, 7, 69, 100
1, 105487, Note_on_c, 7, 61, 100
1, 105487, Note_on_c, 7, 64, 0
1, 105487, Note_on_c, 7, 64, 100
1, 105517, Note_on_c, 7, 61, 0
1, 105547, Note_on_c, 6, 57, 0
1, 105547, Note_on_c, 6, 59, 80
1, 105547, Note_on_c, 6, 49, 0
1, 105547, Note_on_c, 6, 52, 80
1, 105547, Note_on_c, 7, 69, 0
1, 105547, Note_on_c, 7, 71, 100
1, 105607, Note_on_c, 6, 59, 0
1, 105607, Note_on_c, 6, 61, 80
1, 105607, Note_on_c, 6, 52, 0
1, 105607, Note_on_c, 6, 57, 80
1, 105607, Note_on_c, 7, 71, 0
1, 105607, Note_on_c, 7, 73, 100
1, 105607, Note_on_c, 7, 69, 100
1, 105607, Note_on_c, 7, 64, 0
1, 105607, Note_on_c, 7, 64, 100
1, 105607, Note_on_c, 7, 52, 0
1, 105607, Note_on_c, 7, 57, 100
1, 105607, Note_on_c, 7, 40, 0
1, 105607, Note_on_c, 7, 45, 100
1, 105637, Note_on_c, 3, 64, 127
1, 105652, Note_on_c, 3, 64, 0
1, 105667, Note_on_c, 3, 66, 127
1, 105682, Note_on_c, 3, 66, 0
1, 105697, Note_on_c, 3, 68, 127
1, 105712, Note_on_c, 3, 68, 0
1, 105727, Note_on_c, 3, 69, 127
1, 105727, Note_on_c, 6, 61, 0
1, 105727, Note_on_c, 6, 57, 0
1, 105727, Note_on_c, 7, 73, 0
1, 105727, Note_on_c, 7, 69, 0
1, 105727, Note_on_c, 7, 64, 0
1, 105727, Note_on_c, 7, 57, 0
1, 105727, Note_on_c, 7, 45, 0
1, 105742, Note_on_c, 3, 69, 0
1, 105757, Note_on_c, 3, 71, 127
1, 105772, Note_on_c, 3, 71, 0
1, 105787, Note_on_c, 3, 73, 127
1, 105802, Note_on_c, 3, 73, 0
1, 105817, Note_on_c, 3, 74, 127
1, 105832, Note_on_c, 3, 74, 0
1, 105847, Note_on_c, 3, 76, 127
1, 105862, Note_on_c, 3, 76, 0
1, 105877, Note_on_c, 3, 78, 127
1, 105892, Note_on_c, 3, 78, 0
1, 105907, Note_on_c, 3, 80, 127
1, 105922, Note_on_c, 3, 80, 0
1, 105937, Note_on_c, 3, 81, 127
1, 105952, Note_on_c, 3, 81, 0
1, 105967, Note_on_c, 3, 83, 127
1, 105967, Note_on_c, 7, 68, 100
1, 105967, Note_on_c, 7, 64, 100
1, 106147, Note_on_c, 7, 68, 0
1, 106147, Note_on_c, 7, 76, 100
1, 106147, Note_on_c, 7, 68, 100
1, 106267, Note_on_c, 3, 83, 0
1, 106267, Note_on_c, 3, 84, 127
1, 106327, Note_on_c, 3, 84, 0
1, 106327, Note_on_c, 3, 85, 127
1, 106327, Note_on_c, 7, 76, 0
1, 106327, Note_on_c, 7, 76, 100
1, 106327, Note_on_c, 7, 68, 0
1, 106327, Note_on_c, 7, 69, 100
1, 106327, Note_on_c, 7, 64, 0
1, 106327, Note_on_c, 7, 57, 100
1, 106387, Note_on_c, 3, 85, 0
1, 106387, Note_on_c, 3, 81, 127
1, 106387, Note_on_c, 7, 76, 0
1, 106387, Note_on_c, 7, 69, 0
1, 106387, Note_on_c, 7, 57, 0
1, 106447, Note_on_c, 3, 81, 0
1, 106447, Note_on_c, 3, 76, 127
1, 106507, Note_on_c, 3, 76, 0
1, 106507, Note_on_c, 3, 78, 127
1, 106507, Note_on_c, 7, 74, 100
1, 106507, Note_on_c, 7, 71, 100
1, 106507, Note_on_c, 7, 62, 100
1, 106537, Note_on_c, 3, 78, 0
1, 106537, Note_on_c, 3, 79, 127
1, 106567, Note_on_c, 3, 79, 0
1, 106567, Note_on_c, 3, 80, 127
1, 106567, Note_on_c, 7, 74, 0
1, 106567, Note_on_c, 7, 71, 0
1, 106567, Note_on_c, 7, 62, 0
1, 106597, Note_on_c, 3, 80, 0
1, 106597, Note_on_c, 3, 81, 127
1, 106627, Note_on_c, 3, 81, 0
1, 106627, Note_on_c, 3, 78, 127
1, 106657, Note_on_c, 3, 78, 0
1, 106657, Note_on_c, 3, 74, 127
1, 106687, Note_on_c, 3, 74, 0
1, 106687, Note_on_c, 3, 73, 127
1, 106687, Note_on_c, 7, 73, 100
1, 106687, Note_on_c, 7, 69, 100
1, 106687, Note_on_c, 7, 64, 100
1, 106717, Note_on_c, 3, 73, 0
1, 106717, Note_on_c, 3, 74, 127
1, 106747, Note_on_c, 3, 74, 0
1, 106747, Note_on_c, 3, 75, 127
1, 106747, Note_on_c, 7, 73, 0
1, 106747, Note_on_c, 7, 69, 0
1, 106747, Note_on_c, 7, 64, 0
1, 106777, Note_on_c, 3, 75, 0
1, 106777, Note_on_c, 3, 76, 127
1, 106807, Note_on_c, 3, 76, 0
1, 106807, Note_on_c, 3, 73, 127
1, 106837, Note_on_c, 3, 73, 0
1, 106837, Note_on_c, 3, 69, 127
1, 106867, Note_on_c, 3, 69, 0
1, 106867, Note_on_c, 3, 71, 127
1, 106867, Note_on_c, 7, 68, 100
1, 106867, Note_on_c, 7, 62, 100
1, 106867, Note_on_c, 7, 52, 100
1, 106882, Note_on_c, 3, 71, 0
1, 106882, Note_on_c, 3, 73, 127
1, 106897, Note_on_c, 3, 73, 0
1, 106897, Note_on_c, 3, 71, 127
1, 106912, Note_on_c, 3, 71, 0
1, 106912, Note_on_c, 3, 73, 127
1, 106927, Note_on_c, 3, 73, 0
1, 106927, Note_on_c, 3, 71, 127
1, 106927, Note_on_c, 7, 68, 0
1, 106927, Note_on_c, 7, 68, 100
1, 106927, Note_on_c, 7, 62, 0
1, 106927, Note_on_c, 7, 62, 100
1, 106927, Note_on_c, 7, 52, 0
1, 106927, Note_on_c, 7, 52, 100
1, 106942, Note_on_c, 3, 71, 0
1, 106942, Note_on_c, 3, 73, 127
1, 106957, Note_on_c, 3, 73, 0
1, 106957, Note_on_c, 3, 71, 127
1, 106972, Note_on_c, 3, 71, 0
1, 106972, Note_on_c, 3, 73, 127
1, 106987, Note_on_c, 3, 73, 0
1, 106987, Note_on_c, 3, 71, 127
1, 106987, Note_on_c, 7, 68, 0
1, 106987, Note_on_c, 7, 68, 100
1, 106987, Note_on_c, 7, 62, 0
1, 106987, Note_on_c, 7, 62, 100
1, 106987, Note_on_c, 7, 52, 0
1, 106987, Note_on_c, 7, 52, 100
1, 107002, Note_on_c, 3, 71, 0
1, 107002, Note_on_c, 3, 73, 127
1, 107017, Note_on_c, 3, 73, 0
1, 107017, Note_on_c, 3, 69, 127
1, 107032, Note_on_c, 3, 69, 0
1, 107032, Note_on_c, 3, 71, 127
1, 107047, Note_on_c, 3, 71, 0
1, 107047, Note_on_c, 3, 69, 127
1, 107047, Note_on_c, 4, 88, 80
1, 107047, Note_on_c, 4, 85, 80
1, 107047, Note_on_c, 5, 64, 80
1, 107047, Note_on_c, 5, 61, 80
1, 107047, Note_on_c, 6, 57, 80
1, 107047, Note_on_c, 6, 45, 80
1, 107047, Note_on_c, 7, 68, 0
1, 107047, Note_on_c, 7, 73, 100
1, 107047, Note_on_c, 7, 81, 100
1, 107047, Note_on_c, 7, 62, 0
1, 107047, Note_on_c, 7, 52, 0
1, 107047, Note_on_c, 7, 57, 100
1, 107047, Note_on_c, 7, 45, 100
1, 107047, Note_on_c, 7, 33, 100
1, 107107, Note_on_c, 6, 57, 0
1, 107107, Note_on_c, 6, 57, 80
1, 107107, Note_on_c, 6, 45, 0
1, 107107, Note_on_c, 6, 45, 80
1, 107107, Note_on_c, 7, 57, 0
1, 107107, Note_on_c, 7, 69, 100
1, 107107, Note_on_c, 7, 45, 0
1, 107107, Note_on_c, 7, 57, 100
1, 107107, Note_on_c, 7, 33, 0
1, 107107, Note_on_c, 7, 45, 100
1, 107167, Note_on_c, 3, 69, 0
1, 107167, Note_on_c, 6, 57, 0
1, 107167, Note_on_c, 6, 57, 80
1, 107167, Note_on_c, 6, 45, 0
1, 107167, Note_on_c, 6, 45, 80
1, 107167, Note_on_c, 7, 69, 0
1, 107167, Note_on_c, 7, 69, 100
1, 107167, Note_on_c, 7, 57, 0
1, 107167, Note_on_c, 7, 57, 100
1, 107167, Note_on_c, 7, 45, 0
1, 107167, Note_on_c, 7, 45, 100
1, 107227, Note_on_c, 6, 57, 0
1, 107227, Note_on_c, 6, 61, 80
1, 107227, Note_on_c, 6, 45, 0
1, 107227, Note_on_c, 6, 49, 80
1, 107227, Note_on_c, 7, 69, 0
1, 107227, Note_on_c, 7, 57, 0
1, 107227, Note_on_c, 7, 61, 100
1, 107227, Note_on_c, 7, 45, 0
1, 107227, Note_on_c, 7, 49, 100
1, 107347, Note_on_c, 6, 61, 0
1, 107347, Note_on_c, 6, 57, 80
1, 107347, Note_on_c, 6, 49, 0
1, 107347, Note_on_c, 6, 45, 80
1, 107347, Note_on_c, 7, 69, 100
1, 107347, Note_on_c, 7, 61, 0
1, 107347, Note_on_c, 7, 57, 100
1, 107347, Note_on_c, 7, 49, 0
1, 107347, Note_on_c, 7, 45, 100
1, 107407, Note_on_c, 4, 88, 0
1, 107407, Note_on_c, 4, 88, 80
1, 107407, Note_on_c, 4, 85, 0
1, 107407, Note_on_c, 4, 85, 80
1, 107407, Note_on_c, 5, 64, 0
1, 107407, Note_on_c, 5, 64, 80
1, 107407, Note_on_c, 5, 61, 0
1, 107407, Note_on_c, 5, 61, 80
1, 107407, Note_on_c, 6, 57, 0
1, 107407, Note_on_c, 6, 52, 80
1, 107407, Note_on_c, 6, 45, 0
1, 107407, Note_on_c, 6, 40, 80
1, 107407, Note_on_c, 7, 69, 0
1, 107407, Note_on_c, 7, 64, 100
1, 107407, Note_on_c, 7, 57, 0
1, 107407, Note_on_c, 7, 52, 100
1, 107407, Note_on_c, 7, 45, 0
1, 107407, Note_on_c, 7, 40, 100
1, 107467, Note_on_c, 6, 52, 0
1, 107467, Note_on_c, 6, 52, 80
1, 107467, Note_on_c, 6, 40, 0
1, 107467, Note_on_c, 6, 40, 80
1, 107467, Note_on_c, 7, 76, 100
1, 107467, Note_on_c, 7, 73, 0
1, 107467, Note_on_c, 7, 81, 0
1, 107467, Note_on_c, 7, 73, 100
1, 107467, Note_on_c, 7, 64, 0
1, 107467, Note_on_c, 7, 64, 100
1, 107467, Note_on_c, 7, 52, 0
1, 107467, Note_on_c, 7, 52, 100
1, 107467, Note_on_c, 7, 40, 0
1, 107467, Note_on_c, 7, 40, 100
1, 107497, Note_on_c, 7, 76, 0
1, 107497, Note_on_c, 7, 76, 100
1, 107497, Note_on_c, 7, 73, 0
1, 107497, Note_on_c, 7, 73, 100
1, 107527, Note_on_c, 4, 88, 0
1, 107527, Note_on_c, 4, 81, 80
1, 107527, Note_on_c, 5, 64, 0
1, 107527, Note_on_c, 5, 57, 80
1, 107527, Note_on_c, 6, 52, 0
1, 107527, Note_on_c, 6, 52, 80
1, 107527, Note_on_c, 6, 40, 0
1, 107527, Note_on_c, 6, 40, 80
1, 107527, Note_on_c, 7, 76, 0
1, 107527, Note_on_c, 7, 85, 100
1, 107527, Note_on_c, 7, 73, 0
1, 107527, Note_on_c, 7, 69, 100
1, 107527, Note_on_c, 7, 64, 0
1, 107527, Note_on_c, 7, 64, 100
1, 107527, Note_on_c, 7, 52, 0
1, 107527, Note_on_c, 7, 52, 100
1, 107527, Note_on_c, 7, 40, 0
1, 107527, Note_on_c, 7, 40, 100
1, 107557, Note_on_c, 7, 85, 0
1, 107557, Note_on_c, 7, 85, 100
1, 107557, Note_on_c, 7, 69, 0
1, 107557, Note_on_c, 7, 69, 100
1, 107587, Note_on_c, 4, 85, 0
1, 107587, Note_on_c, 4, 86, 80
1, 107587, Note_on_c, 4, 81, 0
1, 107587, Note_on_c, 4, 83, 80
1, 107587, Note_on_c, 5, 61, 0
1, 107587, Note_on_c, 5, 62, 80
1, 107587, Note_on_c, 5, 57, 0
1, 107587, Note_on_c, 5, 59, 80
1, 107587, Note_on_c, 6, 52, 0
1, 107587, Note_on_c, 6, 52, 80
1, 107587, Note_on_c, 6, 40, 0
1, 107587, Note_on_c, 6, 40, 80
1, 107587, Note_on_c, 7, 85, 0
1, 107587, Note_on_c, 7, 86, 100
1, 107587, Note_on_c, 7, 69, 0
1, 107587, Note_on_c, 7, 68, 100
1, 107587, Note_on_c, 7, 64, 0
1, 107587, Note_on_c, 7, 64, 100
1, 107587, Note_on_c, 7, 52, 0
1, 107587, Note_on_c, 7, 52, 100
1, 107587, Note_on_c, 7, 40, 0
1, 107587, Note_on_c, 7, 40, 100
1, 107617, Note_on_c, 7, 86, 0
1, 107617, Note_on_c, 7, 86, 100
1, 107617, Note_on_c, 7, 68, 0
1, 107617, Note_on_c, 7, 68, 100
1, 107647, Note_on_c, 6, 52, 0
1, 107647, Note_on_c, 6, 52, 80
1, 107647, Note_on_c, 6, 40, 0
1, 107647, Note_on_c, 6, 40, 80
1, 107647, Note_on_c, 7, 86, 0
1, 107647, Note_on_c, 7, 83, 100
1, 107647, Note_on_c, 7, 68, 0
1, 107647, Note_on_c, 7, 71, 100
1, 107647, Note_on_c, 7, 64, 0
1, 107647, Note_on_c, 7, 64, 100
1, 107647, Note_on_c, 7, 52, 0
1, 107647, Note_on_c, 7, 52, 100
1, 107647, Note_on_c, 7, 40, 0
1, 107647, Note_on_c, 7, 40, 100
1, 107677, Note_on_c, 7, 83, 0
1, 107677, Note_on_c, 7, 83, 100
1, 107677, Note_on_c, 7, 71, 0
1, 107677, Note_on_c, 7, 71, 100
1, 107707, Note_on_c, 4, 86, 0
1, 107707, Note_on_c, 4, 80, 80
1, 107707, Note_on_c, 5, 62, 0
1, 107707, Note_on_c, 5, 56, 80
1, 107707, Note_on_c, 6, 52, 0
1, 107707, Note_on_c, 6, 52, 80
1, 107707, Note_on_c, 6, 40, 0
1, 107707, Note_on_c, 6, 40, 80
1, 107707, Note_on_c, 7, 83, 0
1, 107707, Note_on_c, 7, 80, 100
1, 107707, Note_on_c, 7, 71, 0
1, 107707, Note_on_c, 7, 74, 100
1, 107707, Note_on_c, 7, 64, 0
1, 107707, Note_on_c, 7, 64, 100
1, 107707, Note_on_c, 7, 52, 0
1, 107707, Note_on_c, 7, 52, 100
1, 107707, Note_on_c, 7, 40, 0
1, 107707, Note_on_c, 7, 40, 100
1, 107737, Note_on_c, 7, 80, 0
1, 107737, Note_on_c, 7, 80, 100
1, 107737, Note_on_c, 7, 74, 0
1, 107737, Note_on_c, 7, 74, 100
1, 107767, Note_on_c, 4, 83, 0
1, 107767, Note_on_c, 4, 88, 80
1, 107767, Note_on_c, 4, 80, 0
1, 107767, Note_on_c, 4, 85, 80
1, 107767, Note_on_c, 5, 59, 0
1, 107767, Note_on_c, 5, 64, 80
1, 107767, Note_on_c, 5, 56, 0
1, 107767, Note_on_c, 5, 61, 80
1, 107767, Note_on_c, 6, 52, 0
1, 107767, Note_on_c, 6, 57, 80
1, 107767, Note_on_c, 6, 40, 0
1, 107767, Note_on_c, 6, 45, 80
1, 107767, Note_on_c, 7, 80, 0
1, 107767, Note_on_c, 7, 73, 100
1, 107767, Note_on_c, 7, 81, 100
1, 107767, Note_on_c, 7, 74, 0
1, 107767, Note_on_c, 7, 64, 0
1, 107767, Note_on_c, 7, 57, 100
1, 107767, Note_on_c, 7, 52, 0
1, 107767, Note_on_c, 7, 45, 100
1, 107767, Note_on_c, 7, 40, 0
1, 107767, Note_on_c, 7, 33, 100
1, 107827, Note_on_c, 6, 57, 0
1, 107827, Note_on_c, 6, 57, 80
1, 107827, Note_on_c, 6, 45, 0
1, 107827, Note_on_c, 6, 45, 80
1, 107827, Note_on_c, 7, 57, 0
1, 107827, Note_on_c, 7, 69, 100
1, 107827, Note_on_c, 7, 45, 0
1, 107827, Note_on_c, 7, 57, 100
1, 107827, Note_on_c, 7, 33, 0
1, 107827, Note_on_c, 7, 45, 100
1, 107887, Note_on_c, 6, 57, 0
1, 107887, Note_on_c, 6, 57, 80
1, 107887, Note_on_c, 6, 45, 0
1, 107887, Note_on_c, 6, 45, 80
1, 107887, Note_on_c, 7, 69, 0
1, 107887, Note_on_c, 7, 69, 100
1, 107887, Note_on_c, 7, 57, 0
1, 107887, Note_on_c, 7, 57, 100
1, 107887, Note_on_c, 7, 45, 0
1, 107887, Note_on_c, 7, 45, 100
1, 107947, Note_on_c, 6, 57, 0
1, 107947, Note_on_c, 6, 61, 80
1, 107947, Note_on_c, 6, 45, 0
1, 107947, Note_on_c, 6, 49, 80
1, 107947, Note_on_c, 7, 69, 0
1, 107947, Note_on_c, 7, 57, 0
1, 107947, Note_on_c, 7, 61, 100
1, 107947, Note_on_c, 7, 45, 0
1, 107947, Note_on_c, 7, 49, 100
1, 108067, Note_on_c, 6, 61, 0
1, 108067, Note_on_c, 6, 57, 80
1, 108067, Note_on_c, 6, 49, 0
1, 108067, Note_on_c, 6, 45, 80
1, 108067, Note_on_c, 7, 69, 100
1, 108067, Note_on_c, 7, 61, 0
1, 108067, Note_on_c, 7, 57, 100
1, 108067, Note_on_c, 7, 49, 0
1, 108067, Note_on_c, 7, 45, 100
1, 108127, Note_on_c, 4, 88, 0
1, 108127, Note_on_c, 4, 88, 80
1, 108127, Note_on_c, 4, 85, 0
1, 108127, Note_on_c, 4, 85, 80
1, 108127, Note_on_c, 5, 64, 0
1, 108127, Note_on_c, 5, 64, 80
1, 108127, Note_on_c, 5, 61, 0
1, 108127, Note_on_c, 5, 61, 80
1, 108127, Note_on_c, 6, 57, 0
1, 108127, Note_on_c, 6, 52, 80
1, 108127, Note_on_c, 6, 45, 0
1, 108127, Note_on_c, 6, 40, 80
1, 108127, Note_on_c, 7, 69, 0
1, 108127, Note_on_c, 7, 64, 100
1, 108127, Note_on_c, 7, 57, 0
1, 108127, Note_on_c, 7, 52, 100
1, 108127, Note_on_c, 7, 45, 0
1, 108127, Note_on_c, 7, 40, 100
1, 108187, Note_on_c, 6, 52, 0
1, 108187, Note_on_c, 6, 52, 80
1, 108187, Note_on_c, 6, 40, 0
1, 108187, Note_on_c, 6, 40, 80
1, 108187, Note_on_c, 7, 76, 100
1, 108187, Note_on_c, 7, 73, 0
1, 108187, Note_on_c, 7, 81, 0
1, 108187, Note_on_c, 7, 73, 100
1, 108187, Note_on_c, 7, 64, 0
1, 108187, Note_on_c, 7, 64, 100
1, 108187, Note_on_c, 7, 52, 0
1, 108187, Note_on_c, 7, 52, 100
1, 108187, Note_on_c, 7, 40, 0
1, 108187, Note_on_c, 7, 40, 100
1, 108217, Note_on_c, 7, 76, 0
1, 108217, Note_on_c, 7, 76, 100
1, 108217, Note_on_c, 7, 73, 0
1, 108217, Note_on_c, 7, 73, 100
1, 108247, Note_on_c, 4, 88, 0
1, 108247, Note_on_c, 4, 81, 80
1, 108247, Note_on_c, 5, 64, 0
1, 108247, Note_on_c, 5, 57, 80
1, 108247, Note_on_c, 6, 52, 0
1, 108247, Note_on_c, 6, 52, 80
1, 108247, Note_on_c, 6, 40, 0
1, 108247, Note_on_c, 6, 40, 80
1, 108247, Note_on_c, 7, 76, 0
1, 108247, Note_on_c, 7, 85, 100
1, 108247, Note_on_c, 7, 73, 0
1, 108247, Note_on_c, 7, 69, 100
1, 108247, Note_on_c, 7, 64, 0
1, 108247, Note_on_c, 7, 64, 100
1, 108247, Note_on_c, 7, 52, 0
1, 108247, Note_on_c, 7, 52, 100
1, 108247, Note_on_c, 7, 40, 0
1, 108247, Note_on_c, 7, 40, 100
1, 108277, Note_on_c, 7, 85, 0
1, 108277, Note_on_c, 7, 85, 100
1, 108277, Note_on_c, 7, 69, 0
1, 108277, Note_on_c, 7, 69, 100
1, 108307, Note_on_c, 4, 85, 0
1, 108307, Note_on_c, 4, 86, 80
1, 108307, Note_on_c, 4, 81, 0
1, 108307, Note_on_c, 4, 83, 80
1, 108307, Note_on_c, 5, 61, 0
1, 108307, Note_on_c, 5, 62, 80
1, 108307, Note_on_c, 5, 57, 0
1, 108307, Note_on_c, 5, 59, 80
1, 108307, Note_on_c, 6, 52, 0
1, 108307, Note_on_c, 6, 52, 80
1, 108307, Note_on_c, 6, 40, 0
1, 108307, Note_on_c, 6, 40, 80
1, 108307, Note_on_c, 7, 85, 0
1, 108307, Note_on_c, 7, 86, 100
1, 108307, Note_on_c, 7, 69, 0
1, 108307, Note_on_c, 7, 68, 100
1, 108307, Note_on_c, 7, 64, 0
1, 108307, Note_on_c, 7, 64, 100
1, 108307, Note_on_c, 7, 52, 0
1, 108307, Note_on_c, 7, 52, 100
1, 108307, Note_on_c, 7, 40, 0
1, 108307, Note_on_c, 7, 40, 100
1, 108337, Note_on_c, 7, 86, 0
1, 108337, Note_on_c, 7, 86, 100
1, 108337, Note_on_c, 7, 68, 0
1, 108337, Note_on_c, 7, 68, 100
1, 108367, Note_on_c, 6, 52, 0
1, 108367, Note_on_c, 6, 52, 80
1, 108367, Note_on_c, 6, 40, 0
1, 108367, Note_on_c, 6, 40, 80
1, 108367, Note_on_c, 7, 86, 0
1, 108367, Note_on_c, 7, 83, 100
1, 108367, Note_on_c, 7, 68, 0
1, 108367, Note_on_c, 7, 71, 100
1, 108367, Note_on_c, 7, 64, 0
1, 108367, Note_on_c, 7, 64, 100
1, 108367, Note_on_c, 7, 52, 0
1, 108367, Note_on_c, 7, 52, 100
1, 108367, Note_on_c, 7, 40, 0
1, 108367, Note_on_c, 7, 40, 100
1, 108397, Note_on_c, 7, 83, 0
1, 108397, Note_on_c, 7, 83, 100
1, 108397, Note_on_c, 7, 71, 0
1, 108397, Note_on_c, 7, 71, 100
1, 108427, Note_on_c, 4, 86, 0
1, 108427, Note_on_c, 4, 80, 80
1, 108427, Note_on_c, 5, 62, 0
1, 108427, Note_on_c, 5, 56, 80
1, 108427, Note_on_c, 6, 52, 0
1, 108427, Note_on_c, 6, 52, 80
1, 108427, Note_on_c, 6, 40, 0
1, 108427, Note_on_c, 6, 40, 80
1, 108427, Note_on_c, 7, 83, 0
1, 108427, Note_on_c, 7, 80, 100
1, 108427, Note_on_c, 7, 71, 0
1, 108427, Note_on_c, 7, 74, 100
1, 108427, Note_on_c, 7, 64, 0
1, 108427, Note_on_c, 7, 64, 100
1, 108427, Note_on_c, 7, 52, 0
1, 108427, Note_on_c, 7, 52, 100
1, 108427, Note_on_c, 7, 40, 0
1, 108427, Note_on_c, 7, 40, 100
1, 108457, Note_on_c, 7, 80, 0
1, 108457, Note_on_c, 7, 80, 100
1, 108457, Note_on_c, 7, 74, 0
1, 108457, Note_on_c, 7, 74, 100
1, 108487, Note_on_c, 3, 45, 127
1, 108487, Note_on_c, 4, 83, 0
1, 108487, Note_on_c, 4, 81, 80
1, 108487, Note_on_c, 4, 80, 0
1, 108487, Note_on_c, 5, 59, 0
1, 108487, Note_on_c, 5, 57, 80
1, 108487, Note_on_c, 5, 56, 0
1, 108487, Note_on_c, 6, 52, 0
1, 108487, Note_on_c, 6, 45, 80
1, 108487, Note_on_c, 6, 40, 0
1, 108487, Note_on_c, 7, 80, 0
1, 108487, Note_on_c, 7, 81, 100
1, 108487, Note_on_c, 7, 74, 0
1, 108487, Note_on_c, 7, 73, 100
1, 108487, Note_on_c, 7, 64, 0
1, 108487, Note_on_c, 7, 57, 100
1, 108487, Note_on_c, 7, 52, 0
1, 108487, Note_on_c, 7, 45, 100
1, 108487, Note_on_c, 7, 40, 0
1, 108487, Note_on_c, 7, 33, 100
1, 108517, Note_on_c, 3, 45, 0
1, 108517, Note_on_c, 3, 49, 127
1, 108547, Note_on_c, 3, 49, 0
1, 108547, Note_on_c, 3, 52, 127
1, 108547, Note_on_c, 7, 81, 0
1, 108562, Note_on_c, 3, 52, 0
1, 108577, Note_on_c, 3, 57, 127
1, 108592, Note_on_c, 3, 57, 0
1, 108607, Note_on_c, 3, 61, 127
1, 108607, Note_on_c, 4, 81, 0
1, 108607, Note_on_c, 5, 57, 0
1, 108607, Note_on_c, 6, 45, 0
1, 108607, Note_on_c, 7, 73, 0
1, 108607, Note_on_c, 7, 73, 100
1, 108607, Note_on_c, 7, 45, 0
1, 108607, Note_on_c, 7, 33, 0
1, 108667, Note_on_c, 3, 61, 0
1, 108667, Note_on_c, 3, 47, 127
1, 108667, Note_on_c, 7, 73, 0
1, 108667, Note_on_c, 7, 45, 100
1, 108667, Note_on_c, 7, 33, 100
1, 108697, Note_on_c, 3, 47, 0
1, 108697, Note_on_c, 3, 50, 127
1, 108727, Note_on_c, 3, 50, 0
1, 108727, Note_on_c, 3, 56, 127
1, 108727, Note_on_c, 7, 74, 100
1, 108727, Note_on_c, 7, 59, 100
1, 108742, Note_on_c, 3, 56, 0
1, 108757, Note_on_c, 3, 59, 127
1, 108772, Note_on_c, 3, 59, 0
1, 108787, Note_on_c, 3, 62, 127
1, 108787, Note_on_c, 7, 74, 0
1, 108787, Note_on_c, 7, 74, 100
1, 108787, Note_on_c, 7, 59, 0
1, 108787, Note_on_c, 7, 59, 100
1, 108787, Note_on_c, 7, 45, 0
1, 108787, Note_on_c, 7, 33, 0
1, 108847, Note_on_c, 3, 62, 0
1, 108847, Note_on_c, 3, 49, 127
1, 108847, Note_on_c, 7, 74, 0
1, 108847, Note_on_c, 7, 59, 0
1, 108847, Note_on_c, 7, 45, 100
1, 108847, Note_on_c, 7, 33, 100
1, 108877, Note_on_c, 3, 49, 0
1, 108877, Note_on_c, 3, 52, 127
1, 108907, Note_on_c, 3, 52, 0
1, 108907, Note_on_c, 3, 57, 127
1, 108907, Note_on_c, 7, 76, 100
1, 108907, Note_on_c, 7, 61, 100
1, 108922, Note_on_c, 3, 57, 0
1, 108937, Note_on_c, 3, 61, 127
1, 108952, Note_on_c, 3, 61, 0
1, 108967, Note_on_c, 3, 64, 127
1, 108967, Note_on_c, 7, 76, 0
1, 108967, Note_on_c, 7, 76, 100
1, 108967, Note_on_c, 7, 61, 0
1, 108967, Note_on_c, 7, 61, 100
1, 108967, Note_on_c, 7, 45, 0
1, 108967, Note_on_c, 7, 33, 0
1, 109027, Note_on_c, 3, 64, 0
1, 109027, Note_on_c, 3, 62, 127
1, 109027, Note_on_c, 7, 76, 0
1, 109027, Note_on_c, 7, 61, 0
1, 109027, Note_on_c, 7, 57, 0
1, 109027, Note_on_c, 7, 56, 100
1, 109027, Note_on_c, 7, 45, 100
1, 109027, Note_on_c, 7, 33, 100
1, 109057, Note_on_c, 3, 62, 0
1, 109057, Note_on_c, 3, 66, 127
1, 109087, Note_on_c, 3, 66, 0
1, 109087, Note_on_c, 3, 62, 127
1, 109087, Note_on_c, 7, 74, 100
1, 109087, Note_on_c, 7, 59, 100
1, 109117, Note_on_c, 3, 62, 0
1, 109117, Note_on_c, 3, 59, 127
1, 109147, Note_on_c, 3, 59, 0
1, 109147, Note_on_c, 3, 56, 127
1, 109147, Note_on_c, 7, 74, 0
1, 109147, Note_on_c, 7, 71, 100
1, 109147, Note_on_c, 7, 59, 0
1, 109147, Note_on_c, 7, 59, 100
1, 109147, Note_on_c, 7, 45, 0
1, 109147, Note_on_c, 7, 33, 0
1, 109177, Note_on_c, 3, 56, 0
1, 109177, Note_on_c, 3, 52, 127
1, 109207, Note_on_c, 3, 52, 0
1, 109207, Note_on_c, 3, 57, 127
1, 109207, Note_on_c, 7, 71, 0
1, 109207, Note_on_c, 7, 56, 0
1, 109207, Note_on_c, 7, 59, 0
1, 109207, Note_on_c, 7, 57, 100
1, 109207, Note_on_c, 7, 45, 100
1, 109207, Note_on_c, 7, 33, 100
1, 109237, Note_on_c, 3, 57, 0
1, 109237, Note_on_c, 3, 61, 127
1, 109267, Note_on_c, 3, 61, 0
1, 109267, Note_on_c, 3, 64, 127
1, 109267, Note_on_c, 7, 69, 100
1, 109267, Note_on_c, 7, 61, 100
1, 109282, Note_on_c, 3, 64, 0
1, 109297, Note_on_c, 3, 69, 127
1, 109312, Note_on_c, 3, 69, 0
1, 109327, Note_on_c, 3, 73, 127
1, 109327, Note_on_c, 7, 69, 0
1, 109327, Note_on_c, 7, 69, 100
1, 109327, Note_on_c, 7, 61, 0
1, 109327, Note_on_c, 7, 61, 100
1, 109327, Note_on_c, 7, 45, 0
1, 109327, Note_on_c, 7, 33, 0
1, 109387, Note_on_c, 3, 73, 0
1, 109387, Note_on_c, 3, 59, 127
1, 109387, Note_on_c, 7, 69, 0
1, 109387, Note_on_c, 7, 61, 0
1, 109387, Note_on_c, 7, 45, 100
1, 109387, Note_on_c, 7, 33, 100
1, 109417, Note_on_c, 3, 59, 0
1, 109417, Note_on_c, 3, 62, 127
1, 109447, Note_on_c, 3, 62, 0
1, 109447, Note_on_c, 3, 68, 127
1, 109447, Note_on_c, 7, 71, 100
1, 109447, Note_on_c, 7, 62, 100
1, 109462, Note_on_c, 3, 68, 0
1, 109477, Note_on_c, 3, 71, 127
1, 109492, Note_on_c, 3, 71, 0
1, 109507, Note_on_c, 3, 74, 127
1, 109507, Note_on_c, 7, 71, 0
1, 109507, Note_on_c, 7, 71, 100
1, 109507, Note_on_c, 7, 62, 0
1, 109507, Note_on_c, 7, 62, 100
1, 109507, Note_on_c, 7, 45, 0
1, 109507, Note_on_c, 7, 33, 0
1, 109567, Note_on_c, 3, 74, 0
1, 109567, Note_on_c, 3, 61, 127
1, 109567, Note_on_c, 7, 71, 0
1, 109567, Note_on_c, 7, 62, 0
1, 109567, Note_on_c, 7, 45, 100
1, 109567, Note_on_c, 7, 33, 100
1, 109597, Note_on_c, 3, 61, 0
1, 109597, Note_on_c, 3, 64, 127
1, 109627, Note_on_c, 3, 64, 0
1, 109627, Note_on_c, 3, 69, 127
1, 109627, Note_on_c, 7, 73, 100
1, 109627, Note_on_c, 7, 64, 100
1, 109642, Note_on_c, 3, 69, 0
1, 109657, Note_on_c, 3, 73, 127
1, 109672, Note_on_c, 3, 73, 0
1, 109687, Note_on_c, 3, 76, 127
1, 109687, Note_on_c, 7, 73, 0
1, 109687, Note_on_c, 7, 73, 100
1, 109687, Note_on_c, 7, 64, 0
1, 109687, Note_on_c, 7, 64, 100
1, 109687, Note_on_c, 7, 45, 0
1, 109687, Note_on_c, 7, 33, 0
1, 109747, Note_on_c, 3, 76, 0
1, 109747, Note_on_c, 3, 74, 127
1, 109747, Note_on_c, 7, 73, 0
1, 109747, Note_on_c, 7, 64, 0
1, 109747, Note_on_c, 7, 57, 0
1, 109747, Note_on_c, 7, 56, 100
1, 109747, Note_on_c, 7, 45, 100
1, 109747, Note_on_c, 7, 33, 100
1, 109777, Note_on_c, 3, 74, 0
1, 109777, Note_on_c, 3, 78, 127
1, 109807, Note_on_c, 3, 78, 0
1, 109807, Note_on_c, 3, 74, 127
1, 109807, Note_on_c, 7, 71, 100
1, 109807, Note_on_c, 7, 62, 100
1, 109837, Note_on_c, 3, 74, 0
1, 109837, Note_on_c, 3, 71, 127
1, 109867, Note_on_c, 3, 71, 0
1, 109867, Note_on_c, 3, 68, 127
1, 109867, Note_on_c, 7, 71, 0
1, 109867, Note_on_c, 7, 68, 100
1, 109867, Note_on_c, 7, 62, 0
1, 109867, Note_on_c, 7, 59, 100
1, 109867, Note_on_c, 7, 56, 0
1, 109867, Note_on_c, 7, 45, 0
1, 109867, Note_on_c, 7, 33, 0
1, 109897, Note_on_c, 3, 68, 0
1, 109897, Note_on_c, 3, 71, 127
1, 109927, Note_on_c, 3, 71, 0
1, 109927, Note_on_c, 3, 64, 127
1, 109927, Note_on_c, 7, 68, 0
1, 109927, Note_on_c, 7, 59, 0
1, 109927, Note_on_c, 7, 57, 100
1, 109927, Note_on_c, 7, 45, 100
1, 109927, Note_on_c, 7, 33, 100
1, 109957, Note_on_c, 3, 64, 0
1, 109957, Note_on_c, 3, 69, 127
1, 109987, Note_on_c, 3, 69, 0
1, 109987, Note_on_c, 3, 73, 127
1, 109987, Note_on_c, 7, 73, 100
1, 109987, Note_on_c, 7, 69, 100
1, 110002, Note_on_c, 3, 73, 0
1, 110017, Note_on_c, 3, 76, 127
1, 110032, Note_on_c, 3, 76, 0
1, 110047, Note_on_c, 3, 81, 127
1, 110047, Note_on_c, 7, 73, 0
1, 110047, Note_on_c, 7, 73, 100
1, 110047, Note_on_c, 7, 69, 0
1, 110047, Note_on_c, 7, 69, 100
1, 110047, Note_on_c, 7, 45, 0
1, 110047, Note_on_c, 7, 33, 0
1, 110107, Note_on_c, 3, 81, 0
1, 110107, Note_on_c, 3, 68, 127
1, 110107, Note_on_c, 7, 73, 0
1, 110107, Note_on_c, 7, 69, 0
1, 110107, Note_on_c, 7, 57, 0
1, 110107, Note_on_c, 7, 69, 100
1, 110107, Note_on_c, 7, 57, 100
1, 110107, Note_on_c, 7, 45, 100
1, 110137, Note_on_c, 3, 68, 0
1, 110137, Note_on_c, 3, 71, 127
1, 110167, Note_on_c, 3, 71, 0
1, 110167, Note_on_c, 3, 76, 127
1, 110167, Note_on_c, 7, 74, 100
1, 110167, Note_on_c, 7, 71, 100
1, 110182, Note_on_c, 3, 76, 0
1, 110197, Note_on_c, 3, 80, 127
1, 110212, Note_on_c, 3, 80, 0
1, 110227, Note_on_c, 3, 83, 127
1, 110227, Note_on_c, 7, 74, 0
1, 110227, Note_on_c, 7, 74, 100
1, 110227, Note_on_c, 7, 71, 0
1, 110227, Note_on_c, 7, 71, 100
1, 110227, Note_on_c, 7, 57, 0
1, 110227, Note_on_c, 7, 45, 0
1, 110287, Note_on_c, 3, 83, 0
1, 110287, Note_on_c, 3, 69, 127
1, 110287, Note_on_c, 7, 74, 0
1, 110287, Note_on_c, 7, 71, 0
1, 110287, Note_on_c, 7, 57, 100
1, 110287, Note_on_c, 7, 45, 100
1, 110317, Note_on_c, 3, 69, 0
1, 110317, Note_on_c, 3, 73, 127
1, 110347, Note_on_c, 3, 73, 0
1, 110347, Note_on_c, 3, 76, 127
1, 110347, Note_on_c, 7, 76, 100
1, 110347, Note_on_c, 7, 73, 100
1, 110362, Note_on_c, 3, 76, 0
1, 110377, Note_on_c, 3, 81, 127
1, 110392, Note_on_c, 3, 81, 0
1, 110407, Note_on_c, 3, 85, 127
1, 110407, Note_on_c, 7, 76, 0
1, 110407, Note_on_c, 7, 76, 100
1, 110407, Note_on_c, 7, 73, 0
1, 110407, Note_on_c, 7, 73, 100
1, 110407, Note_on_c, 7, 57, 0
1, 110407, Note_on_c, 7, 45, 0
1, 110467, Note_on_c, 3, 85, 0
1, 110467, Note_on_c, 3, 83, 127
1, 110467, Note_on_c, 7, 76, 0
1, 110467, Note_on_c, 7, 73, 0
1, 110467, Note_on_c, 7, 69, 0
1, 110467, Note_on_c, 7, 68, 100
1, 110467, Note_on_c, 7, 57, 100
1, 110467, Note_on_c, 7, 45, 100
1, 110497, Note_on_c, 3, 83, 0
1, 110497, Note_on_c, 3, 81, 127
1, 110527, Note_on_c, 3, 81, 0
1, 110527, Note_on_c, 3, 80, 127
1, 110527, Note_on_c, 7, 74, 100
1, 110527, Note_on_c, 7, 71, 100
1, 110557, Note_on_c, 3, 80, 0
1, 110557, Note_on_c, 3, 78, 127
1, 110587, Note_on_c, 3, 78, 0
1, 110587, Note_on_c, 3, 76, 127
1, 110587, Note_on_c, 7, 74, 0
1, 110587, Note_on_c, 7, 57, 0
1, 110587, Note_on_c, 7, 45, 0
1, 110617, Note_on_c, 3, 76, 0
1, 110617, Note_on_c, 3, 74, 127
1, 110647, Note_on_c, 3, 74, 0
1, 110647, Note_on_c, 3, 73, 127
1, 110647, Note_on_c, 4, 88, 80
1, 110647, Note_on_c, 4, 76, 80
1, 110647, Note_on_c, 5, 64, 80
1, 110647, Note_on_c, 5, 52, 80
1, 110647, Note_on_c, 6, 52, 80
1, 110647, Note_on_c, 6, 40, 80
1, 110647, Note_on_c, 7, 61, 100
1, 110647, Note_on_c, 7, 68, 0
1, 110647, Note_on_c, 7, 69, 100
1, 110647, Note_on_c, 7, 71, 0
1, 110647, Note_on_c, 7, 57, 100
1, 110647, Note_on_c, 7, 45, 100
1, 110677, Note_on_c, 7, 61, 0
1, 110677, Note_on_c, 7, 64, 100
1, 110677, Note_on_c, 7, 69, 0
1, 110677, Note_on_c, 7, 57, 0
1, 110677, Note_on_c, 7, 45, 0
1, 110707, Note_on_c, 3, 73, 0
1, 110707, Note_on_c, 7, 64, 0
1, 110707, Note_on_c, 7, 63, 100
1, 110707, Note_on_c, 7, 69, 100
1, 110707, Note_on_c, 7, 64, 100
1, 110707, Note_on_c, 7, 61, 100
1, 110707, Note_on_c, 7, 49, 100
1, 110737, Note_on_c, 7, 63, 0
1, 110737, Note_on_c, 7, 69, 0
1, 110737, Note_on_c, 7, 61, 0
1, 110737, Note_on_c, 7, 49, 0
1, 110767, Note_on_c, 7, 64, 0
1, 110767, Note_on_c, 7, 66, 100
1, 110767, Note_on_c, 7, 74, 100
1, 110767, Note_on_c, 7, 68, 100
1, 110767, Note_on_c, 7, 59, 100
1, 110767, Note_on_c, 7, 47, 100
1, 110797, Note_on_c, 7, 66, 0
1, 110797, Note_on_c, 7, 64, 100
1, 110797, Note_on_c, 7, 74, 0
1, 110797, Note_on_c, 7, 68, 0
1, 110797, Note_on_c, 7, 59, 0
1, 110797, Note_on_c, 7, 47, 0
1, 110827, Note_on_c, 3, 73, 127
1, 110827, Note_on_c, 4, 88, 0
1, 110827, Note_on_c, 4, 76, 0
1, 110827, Note_on_c, 5, 64, 0
1, 110827, Note_on_c, 5, 52, 0
1, 110827, Note_on_c, 6, 52, 0
1, 110827, Note_on_c, 6, 40, 0
1, 110827, Note_on_c, 7, 64, 0
1, 110827, Note_on_c, 7, 69, 100
1, 110827, Note_on_c, 7, 73, 100
1, 110827, Note_on_c, 7, 57, 100
1, 110827, Note_on_c, 7, 45, 100
1, 110857, Note_on_c, 3, 73, 0
1, 110857, Note_on_c, 3, 76, 127
1, 110887, Note_on_c, 3, 76, 0
1, 110887, Note_on_c, 3, 75, 127
1, 110917, Note_on_c, 3, 75, 0
1, 110917, Note_on_c, 3, 76, 127
1, 110947, Note_on_c, 3, 76, 0
1, 110947, Note_on_c, 3, 78, 127
1, 110947, Note_on_c, 7, 73, 0
1, 110947, Note_on_c, 7, 69, 0
1, 110947, Note_on_c, 7, 57, 0
1, 110947, Note_on_c, 7, 45, 0
1, 110977, Note_on_c, 3, 78, 0
1, 110977, Note_on_c, 3, 76, 127
1, 111007, Note_on_c, 3, 76, 0
1, 111007, Note_on_c, 3, 74, 127
1, 111007, Note_on_c, 7, 59, 100
1, 111007, Note_on_c, 7, 47, 100
1, 111037, Note_on_c, 3, 74, 0
1, 111037, Note_on_c, 3, 76, 127
1, 111067, Note_on_c, 3, 76, 0
1, 111067, Note_on_c, 3, 74, 127
1, 111067, Note_on_c, 7, 68, 100
1, 111067, Note_on_c, 7, 62, 100
1, 111097, Note_on_c, 3, 74, 0
1, 111097, Note_on_c, 3, 73, 127
1, 111097, Note_on_c, 7, 68, 0
1, 111097, Note_on_c, 7, 62, 0
1, 111127, Note_on_c, 3, 73, 0
1, 111127, Note_on_c, 3, 71, 127
1, 111127, Note_on_c, 7, 68, 100
1, 111127, Note_on_c, 7, 62, 100
1, 111127, Note_on_c, 7, 47, 0
1, 111157, Note_on_c, 3, 71, 0
1, 111157, Note_on_c, 3, 69, 127
1, 111157, Note_on_c, 7, 68, 0
1, 111157, Note_on_c, 7, 62, 0
1, 111157, Note_on_c, 7, 59, 0
1, 111187, Note_on_c, 3, 69, 0
1, 111187, Note_on_c, 3, 68, 127
1, 111187, Note_on_c, 7, 52, 100
1, 111187, Note_on_c, 7, 40, 100
1, 111217, Note_on_c, 3, 68, 0
1, 111217, Note_on_c, 3, 69, 127
1, 111247, Note_on_c, 3, 69, 0
1, 111247, Note_on_c, 3, 68, 127
1, 111247, Note_on_c, 7, 62, 100
1, 111247, Note_on_c, 7, 56, 100
1, 111247, Note_on_c, 7, 59, 100
1, 111277, Note_on_c, 3, 68, 0
1, 111277, Note_on_c, 3, 66, 127
1, 111277, Note_on_c, 7, 62, 0
1, 111277, Note_on_c, 7, 56, 0
1, 111277, Note_on_c, 7, 59, 0
1, 111307, Note_on_c, 3, 66, 0
1, 111307, Note_on_c, 3, 64, 127
1, 111307, Note_on_c, 7, 62, 100
1, 111307, Note_on_c, 7, 56, 100
1, 111307, Note_on_c, 7, 59, 100
1, 111307, Note_on_c, 7, 52, 0
1, 111307, Note_on_c, 7, 40, 0
1, 111337, Note_on_c, 3, 64, 0
1, 111337, Note_on_c, 3, 62, 127
1, 111337, Note_on_c, 7, 62, 0
1, 111337, Note_on_c, 7, 56, 0
1, 111337, Note_on_c, 7, 59, 0
1, 111367, Note_on_c, 3, 62, 0
1, 111367, Note_on_c, 3, 61, 127
1, 111367, Note_on_c, 4, 88, 80
1, 111367, Note_on_c, 4, 76, 80
1, 111367, Note_on_c, 5, 64, 80
1, 111367, Note_on_c, 5, 52, 80
1, 111367, Note_on_c, 6, 52, 80
1, 111367, Note_on_c, 6, 40, 80
1, 111367, Note_on_c, 7, 61, 100
1, 111367, Note_on_c, 7, 57, 100
1, 111367, Note_on_c, 7, 45, 100
1, 111367, Note_on_c, 7, 33, 100
1, 111397, Note_on_c, 7, 61, 0
1, 111397, Note_on_c, 7, 64, 100
1, 111397, Note_on_c, 7, 57, 0
1, 111397, Note_on_c, 7, 45, 0
1, 111397, Note_on_c, 7, 33, 0
1, 111427, Note_on_c, 3, 61, 0
1, 111427, Note_on_c, 7, 64, 0
1, 111427, Note_on_c, 7, 63, 100
1, 111427, Note_on_c, 7, 57, 100
1, 111427, Note_on_c, 7, 52, 100
1, 111427, Note_on_c, 7, 49, 100
1, 111427, Note_on_c, 7, 37, 100
1, 111457, Note_on_c, 7, 63, 0
1, 111457, Note_on_c, 7, 64, 100
1, 111457, Note_on_c, 7, 57, 0
1, 111457, Note_on_c, 7, 52, 0
1, 111457, Note_on_c, 7, 49, 0
1, 111457, Note_on_c, 7, 37, 0
1, 111487, Note_on_c, 7, 64, 0
1, 111487, Note_on_c, 7, 66, 100
1, 111487, Note_on_c, 7, 62, 100
1, 111487, Note_on_c, 7, 56, 100
1, 111487, Note_on_c, 7, 47, 100
1, 111487, Note_on_c, 7, 35, 100
1, 111517, Note_on_c, 7, 66, 0
1, 111517, Note_on_c, 7, 64, 100
1, 111517, Note_on_c, 7, 62, 0
1, 111517, Note_on_c, 7, 56, 0
1, 111517, Note_on_c, 7, 47, 0
1, 111517, Note_on_c, 7, 35, 0
1, 111547, Note_on_c, 3, 61, 127
1, 111547, Note_on_c, 4, 88, 0
1, 111547, Note_on_c, 4, 76, 0
1, 111547, Note_on_c, 5, 64, 0
1, 111547, Note_on_c, 5, 52, 0
1, 111547, Note_on_c, 6, 52, 0
1, 111547, Note_on_c, 6, 40, 0
1, 111547, Note_on_c, 7, 64, 0
1, 111547, Note_on_c, 7, 69, 100
1, 111547, Note_on_c, 7, 61, 100
1, 111547, Note_on_c, 7, 57, 100
1, 111547, Note_on_c, 7, 45, 100
1, 111547, Note_on_c, 7, 33, 100
1, 111577, Note_on_c, 3, 61, 0
1, 111577, Note_on_c, 3, 64, 127
1, 111607, Note_on_c, 3, 64, 0
1, 111607, Note_on_c, 3, 63, 127
1, 111637, Note_on_c, 3, 63, 0
1, 111637, Note_on_c, 3, 64, 127
1, 111667, Note_on_c, 3, 64, 0
1, 111667, Note_on_c, 3, 66, 127
1, 111667, Note_on_c, 7, 69, 0
1, 111667, Note_on_c, 7, 61, 0
1, 111667, Note_on_c, 7, 57, 0
1, 111667, Note_on_c, 7, 45, 0
1, 111667, Note_on_c, 7, 33, 0
1, 111697, Note_on_c, 3, 66, 0
1, 111697, Note_on_c, 3, 64, 127
1, 111727, Note_on_c, 3, 64, 0
1, 111727, Note_on_c, 3, 62, 127
1, 111727, Note_on_c, 7, 47, 100
1, 111727, Note_on_c, 7, 35, 100
1, 111757, Note_on_c, 3, 62, 0
1, 111757, Note_on_c, 3, 64, 127
1, 111787, Note_on_c, 3, 64, 0
1, 111787, Note_on_c, 3, 62, 127
1, 111787, Note_on_c, 7, 62, 100
1, 111787, Note_on_c, 7, 59, 100
1, 111787, Note_on_c, 7, 56, 100
1, 111817, Note_on_c, 3, 62, 0
1, 111817, Note_on_c, 3, 61, 127
1, 111847, Note_on_c, 3, 61, 0
1, 111847, Note_on_c, 3, 59, 127
1, 111847, Note_on_c, 7, 62, 0
1, 111847, Note_on_c, 7, 62, 100
1, 111847, Note_on_c, 7, 59, 0
1, 111847, Note_on_c, 7, 59, 100
1, 111847, Note_on_c, 7, 56, 0
1, 111847, Note_on_c, 7, 56, 100
1, 111847, Note_on_c, 7, 47, 0
1, 111847, Note_on_c, 7, 35, 0
1, 111877, Note_on_c, 3, 59, 0
1, 111877, Note_on_c, 3, 57, 127
1, 111907, Note_on_c, 3, 57, 0
1, 111907, Note_on_c, 3, 56, 127
1, 111907, Note_on_c, 7, 62, 0
1, 111907, Note_on_c, 7, 59, 0
1, 111907, Note_on_c, 7, 56, 0
1, 111907, Note_on_c, 7, 40, 100
1, 111907, Note_on_c, 7, 28, 100
1, 111937, Note_on_c, 3, 56, 0
1, 111937, Note_on_c, 3, 57, 127
1, 111967, Note_on_c, 3, 57, 0
1, 111967, Note_on_c, 3, 56, 127
1, 111967, Note_on_c, 7, 62, 100
1, 111967, Note_on_c, 7, 56, 100
1, 111967, Note_on_c, 7, 52, 100
1, 111997, Note_on_c, 3, 56, 0
1, 111997, Note_on_c, 3, 54, 127
1, 112027, Note_on_c, 3, 54, 0
1, 112027, Note_on_c, 3, 52, 127
1, 112027, Note_on_c, 7, 62, 0
1, 112027, Note_on_c, 7, 62, 100
1, 112027, Note_on_c, 7, 56, 0
1, 112027, Note_on_c, 7, 56, 100
1, 112027, Note_on_c, 7, 52, 0
1, 112027, Note_on_c, 7, 52, 100
1, 112027, Note_on_c, 7, 40, 0
1, 112027, Note_on_c, 7, 28, 0
1, 112057, Note_on_c, 3, 52, 0
1, 112057, Note_on_c, 3, 50, 127
1, 112087, Note_on_c, 3, 50, 0
1, 112087, Note_on_c, 3, 49, 127
1, 112087, Note_on_c, 7, 62, 0
1, 112087, Note_on_c, 7, 61, 100
1, 112087, Note_on_c, 7, 56, 0
1, 112087, Note_on_c, 7, 57, 100
1, 112087, Note_on_c, 7, 52, 0
1, 112087, Note_on_c, 7, 52, 100
1, 112087, Note_on_c, 7, 45, 100
1, 112087, Note_on_c, 7, 33, 100
1, 112147, Note_on_c, 7, 61, 0
1, 112147, Note_on_c, 7, 57, 0
1, 112147, Note_on_c, 7, 69, 100
1, 112147, Note_on_c, 7, 52, 0
1, 112207, Note_on_c, 3, 49, 0
1, 112207, Note_on_c, 7, 74, 100
1, 112207, Note_on_c, 7, 69, 0
1, 112207, Note_on_c, 7, 69, 100
1, 112207, Note_on_c, 7, 68, 100
1, 112207, Note_on_c, 7, 45, 0
1, 112207, Note_on_c, 7, 33, 0
1, 112222, Note_on_c, 7, 74, 0
1, 112222, Note_on_c, 7, 73, 100
1, 112237, Note_on_c, 7, 73, 0
1, 112237, Note_on_c, 7, 71, 100
1, 112237, Note_on_c, 7, 68, 0
1, 112252, Note_on_c, 7, 71, 0
1, 112252, Note_on_c, 7, 73, 100
1, 112267, Note_on_c, 3, 54, 127
1, 112267, Note_on_c, 7, 73, 0
1, 112267, Note_on_c, 7, 74, 100
1, 112267, Note_on_c, 7, 69, 0
1, 112267, Note_on_c, 7, 69, 100
1, 112267, Note_on_c, 7, 66, 100
1, 112297, Note_on_c, 3, 54, 0
1, 112297, Note_on_c, 3, 57, 127
1, 112297, Note_on_c, 7, 66, 0
1, 112327, Note_on_c, 3, 57, 0
1, 112327, Note_on_c, 3, 52, 127
1, 112327, Note_on_c, 7, 74, 0
1, 112327, Note_on_c, 7, 76, 100
1, 112327, Note_on_c, 7, 69, 0
1, 112327, Note_on_c, 7, 69, 100
1, 112327, Note_on_c, 7, 64, 100
1, 112357, Note_on_c, 3, 52, 0
1, 112357, Note_on_c, 3, 57, 127
1, 112357, Note_on_c, 7, 76, 0
1, 112357, Note_on_c, 7, 64, 0
1, 112387, Note_on_c, 3, 57, 0
1, 112387, Note_on_c, 3, 50, 127
1, 112387, Note_on_c, 7, 78, 100
1, 112387, Note_on_c, 7, 69, 0
1, 112387, Note_on_c, 7, 69, 100
1, 112387, Note_on_c, 7, 62, 100
1, 112417, Note_on_c, 3, 50, 0
1, 112417, Note_on_c, 3, 57, 127
1, 112417, Note_on_c, 7, 78, 0
1, 112417, Note_on_c, 7, 62, 0
1, 112447, Note_on_c, 3, 57, 0
1, 112447, Note_on_c, 3, 49, 127
1, 112447, Note_on_c, 7, 76, 100
1, 112447, Note_on_c, 7, 69, 0
1, 112447, Note_on_c, 7, 69, 100
1, 112447, Note_on_c, 7, 64, 100
1, 112477, Note_on_c, 3, 49, 0
1, 112477, Note_on_c, 3, 57, 127
1, 112477, Note_on_c, 7, 64, 0
1, 112507, Note_on_c, 3, 57, 0
1, 112507, Note_on_c, 3, 45, 127
1, 112507, Note_on_c, 7, 76, 0
1, 112507, Note_on_c, 7, 81, 100
1, 112507, Note_on_c, 7, 69, 0
1, 112507, Note_on_c, 7, 69, 100
1, 112507, Note_on_c, 7, 59, 100
1, 112537, Note_on_c, 3, 45, 0
1, 112537, Note_on_c, 3, 57, 127
1, 112537, Note_on_c, 7, 59, 0
1, 112567, Note_on_c, 3, 57, 0
1, 112567, Note_on_c, 3, 52, 127
1, 112567, Note_on_c, 7, 81, 0
1, 112567, Note_on_c, 7, 74, 100
1, 112567, Note_on_c, 7, 69, 0
1, 112567, Note_on_c, 7, 69, 100
1, 112567, Note_on_c, 7, 64, 100
1, 112582, Note_on_c, 7, 74, 0
1, 112582, Note_on_c, 7, 73, 100
1, 112597, Note_on_c, 3, 52, 0
1, 112597, Note_on_c, 3, 57, 127
1, 112597, Note_on_c, 7, 73, 0
1, 112597, Note_on_c, 7, 71, 100
1, 112597, Note_on_c, 7, 64, 0
1, 112612, Note_on_c, 7, 71, 0
1, 112612, Note_on_c, 7, 73, 100
1, 112627, Note_on_c, 3, 57, 0
1, 112627, Note_on_c, 3, 54, 127
1, 112627, Note_on_c, 7, 73, 0
1, 112627, Note_on_c, 7, 74, 100
1, 112627, Note_on_c, 7, 69, 0
1, 112627, Note_on_c, 7, 69, 100
1, 112627, Note_on_c, 7, 66, 100
1, 112657, Note_on_c, 3, 54, 0
1, 112657, Note_on_c, 3, 57, 127
1, 112657, Note_on_c, 7, 66, 0
1, 112687, Note_on_c, 3, 57, 0
1, 112687, Note_on_c, 3, 52, 127
1, 112687, Note_on_c, 7, 74, 0
1, 112687, Note_on_c, 7, 76, 100
1, 112687, Note_on_c, 7, 69, 0
1, 112687, Note_on_c, 7, 69, 100
1, 112687, Note_on_c, 7, 64, 100
1, 112717, Note_on_c, 3, 52, 0
1, 112717, Note_on_c, 3, 57, 127
1, 112717, Note_on_c, 7, 76, 0
1, 112717, Note_on_c, 7, 64, 0
1, 112747, Note_on_c, 3, 57, 0
1, 112747, Note_on_c, 3, 50, 127
1, 112747, Note_on_c, 7, 78, 100
1, 112747, Note_on_c, 7, 69, 0
1, 112747, Note_on_c, 7, 69, 100
1, 112747, Note_on_c, 7, 62, 100
1, 112777, Note_on_c, 3, 50, 0
1, 112777, Note_on_c, 3, 57, 127
1, 112777, Note_on_c, 7, 78, 0
1, 112777, Note_on_c, 7, 62, 0
1, 112807, Note_on_c, 3, 57, 0
1, 112807, Note_on_c, 3, 49, 127
1, 112807, Note_on_c, 7, 76, 100
1, 112807, Note_on_c, 7, 69, 0
1, 112807, Note_on_c, 7, 69, 100
1, 112807, Note_on_c, 7, 61, 100
1, 112837, Note_on_c, 3, 49, 0
1, 112837, Note_on_c, 3, 57, 127
1, 112837, Note_on_c, 7, 61, 0
1, 112867, Note_on_c, 3, 57, 0
1, 112867, Note_on_c, 3, 45, 127
1, 112867, Note_on_c, 7, 76, 0
1, 112867, Note_on_c, 7, 81, 100
1, 112867, Note_on_c, 7, 69, 0
1, 112867, Note_on_c, 7, 69, 100
1, 112867, Note_on_c, 7, 57, 100
1, 112897, Note_on_c, 3, 45, 0
1, 112897, Note_on_c, 3, 57, 127
1, 112897, Note_on_c, 7, 57, 0
1, 112927, Note_on_c, 3, 57, 0
1, 112927, Note_on_c, 3, 52, 127
1, 112927, Note_on_c, 7, 81, 0
1, 112927, Note_on_c, 7, 74, 100
1, 112927, Note_on_c, 7, 69, 0
1, 112927, Note_on_c, 7, 69, 100
1, 112927, Note_on_c, 7, 64, 100
1, 112942, Note_on_c, 7, 74, 0
1, 112942, Note_on_c, 7, 73, 100
1, 112957, Note_on_c, 3, 52, 0
1, 112957, Note_on_c, 3, 57, 127
1, 112957, Note_on_c, 7, 73, 0
1, 112957, Note_on_c, 7, 71, 100
1, 112957, Note_on_c, 7, 64, 0
1, 112972, Note_on_c, 7, 71, 0
1, 112972, Note_on_c, 7, 73, 100
1, 112987, Note_on_c, 3, 57, 0
1, 112987, Note_on_c, 3, 54, 127
1, 112987, Note_on_c, 7, 73, 0
1, 112987, Note_on_c, 7, 74, 100
1, 112987, Note_on_c, 7, 69, 0
1, 112987, Note_on_c, 7, 69, 100
1, 112987, Note_on_c, 7, 66, 100
1, 113017, Note_on_c, 3, 54, 0
1, 113017, Note_on_c, 3, 57, 127
1, 113017, Note_on_c, 7, 66, 0
1, 113047, Note_on_c, 3, 57, 0
1, 113047, Note_on_c, 3, 52, 127
1, 113047, Note_on_c, 7, 74, 0
1, 113047, Note_on_c, 7, 76, 100
1, 113047, Note_on_c, 7, 69, 0
1, 113047, Note_on_c, 7, 69, 100
1, 113047, Note_on_c, 7, 64, 100
1, 113077, Note_on_c, 3, 52, 0
1, 113077, Note_on_c, 3, 57, 127
1, 113077, Note_on_c, 7, 76, 0
1, 113077, Note_on_c, 7, 64, 0
1, 113107, Note_on_c, 3, 57, 0
1, 113107, Note_on_c, 3, 50, 127
1, 113107, Note_on_c, 7, 78, 100
1, 113107, Note_on_c, 7, 69, 0
1, 113107, Note_on_c, 7, 69, 100
1, 113107, Note_on_c, 7, 62, 100
1, 113137, Note_on_c, 3, 50, 0
1, 113137, Note_on_c, 3, 57, 127
1, 113137, Note_on_c, 7, 78, 0
1, 113137, Note_on_c, 7, 62, 0
1, 113167, Note_on_c, 3, 57, 0
1, 113167, Note_on_c, 3, 49, 127
1, 113167, Note_on_c, 7, 79, 100
1, 113167, Note_on_c, 7, 69, 0
1, 113167, Note_on_c, 7, 69, 100
1, 113167, Note_on_c, 7, 64, 100
1, 113227, Note_on_c, 7, 79, 0
1, 113227, Note_on_c, 7, 67, 100
1, 113227, Note_on_c, 7, 69, 0
1, 113227, Note_on_c, 7, 57, 100
1, 113287, Note_on_c, 7, 67, 0
1, 113287, Note_on_c, 7, 67, 100
1, 113287, Note_on_c, 7, 64, 0
1, 113287, Note_on_c, 7, 64, 100
1, 113287, Note_on_c, 7, 57, 0
1, 113287, Note_on_c, 7, 57, 100
1, 113347, Note_on_c, 3, 49, 0
1, 113347, Note_on_c, 3, 76, 127
1, 113347, Note_on_c, 7, 67, 0
1, 113347, Note_on_c, 7, 67, 100
1, 113347, Note_on_c, 7, 64, 0
1, 113347, Note_on_c, 7, 64, 100
1, 113347, Note_on_c, 7, 57, 0
1, 113347, Note_on_c, 7, 57, 100
1, 113407, Note_on_c, 7, 67, 0
1, 113407, Note_on_c, 7, 67, 100
1, 113407, Note_on_c, 7, 64, 0
1, 113407, Note_on_c, 7, 64, 100
1, 113407, Note_on_c, 7, 57, 0
1, 113407, Note_on_c, 7, 57, 100
1, 113467, Note_on_c, 7, 67, 0
1, 113467, Note_on_c, 7, 67, 100
1, 113467, Note_on_c, 7, 64, 0
1, 113467, Note_on_c, 7, 64, 100
1, 113467, Note_on_c, 7, 57, 0
1, 113467, Note_on_c, 7, 57, 100
1, 113527, Note_on_c, 3, 76, 0
1, 113527, Note_on_c, 3, 79, 127
1, 113527, Note_on_c, 7, 67, 0
1, 113527, Note_on_c, 7, 67, 100
1, 113527, Note_on_c, 7, 64, 0
1, 113527, Note_on_c, 7, 61, 100
1, 113527, Note_on_c, 7, 64, 100
1, 113527, Note_on_c, 7, 57, 0
1, 113527, Note_on_c, 7, 57, 100
1, 113527, Note_on_c, 7, 45, 100
1, 113527, Note_on_c, 7, 33, 100
1, 113587, Note_on_c, 7, 67, 0
1, 113587, Note_on_c, 7, 67, 100
1, 113587, Note_on_c, 7, 61, 0
1, 113587, Note_on_c, 7, 64, 0
1, 113587, Note_on_c, 7, 61, 100
1, 113587, Note_on_c, 7, 64, 100
1, 113587, Note_on_c, 7, 57, 0
1, 113587, Note_on_c, 7, 57, 100
1, 113647, Note_on_c, 7, 67, 0
1, 113647, Note_on_c, 7, 67, 100
1, 113647, Note_on_c, 7, 61, 0
1, 113647, Note_on_c, 7, 64, 0
1, 113647, Note_on_c, 7, 61, 100
1, 113647, Note_on_c, 7, 64, 100
1, 113647, Note_on_c, 7, 57, 0
1, 113647, Note_on_c, 7, 57, 100
1, 113647, Note_on_c, 7, 45, 0
1, 113647, Note_on_c, 7, 33, 0
1, 113707, Note_on_c, 3, 79, 0
1, 113707, Note_on_c, 3, 49, 127
1, 113707, Note_on_c, 7, 67, 0
1, 113707, Note_on_c, 7, 67, 100
1, 113707, Note_on_c, 7, 61, 0
1, 113707, Note_on_c, 7, 64, 0
1, 113707, Note_on_c, 7, 61, 100
1, 113707, Note_on_c, 7, 64, 100
1, 113707, Note_on_c, 7, 57, 0
1, 113707, Note_on_c, 7, 57, 100
1, 113722, Note_on_c, 3, 49, 0
1, 113722, Note_on_c, 3, 50, 127
1, 113737, Note_on_c, 3, 50, 0
1, 113737, Note_on_c, 3, 49, 127
1, 113752, Note_on_c, 3, 49, 0
1, 113752, Note_on_c, 3, 50, 127
1, 113767, Note_on_c, 3, 50, 0
1, 113767, Note_on_c, 3, 49, 127
1, 113767, Note_on_c, 7, 67, 0
1, 113767, Note_on_c, 7, 67, 100
1, 113767, Note_on_c, 7, 61, 0
1, 113767, Note_on_c, 7, 64, 0
1, 113767, Note_on_c, 7, 61, 100
1, 113767, Note_on_c, 7, 64, 100
1, 113767, Note_on_c, 7, 57, 0
1, 113767, Note_on_c, 7, 57, 100
1, 113782, Note_on_c, 3, 49, 0
1, 113782, Note_on_c, 3, 50, 127
1, 113797, Note_on_c, 3, 50, 0
1, 113797, Note_on_c, 3, 49, 127
1, 113812, Note_on_c, 3, 49, 0
1, 113812, Note_on_c, 3, 50, 127
1, 113827, Note_on_c, 3, 50, 0
1, 113827, Note_on_c, 3, 49, 127
1, 113827, Note_on_c, 7, 67, 0
1, 113827, Note_on_c, 7, 67, 100
1, 113827, Note_on_c, 7, 61, 0
1, 113827, Note_on_c, 7, 64, 0
1, 113827, Note_on_c, 7, 61, 100
1, 113827, Note_on_c, 7, 64, 100
1, 113827, Note_on_c, 7, 57, 0
1, 113827, Note_on_c, 7, 57, 100
1, 113842, Note_on_c, 3, 49, 0
1, 113842, Note_on_c, 3, 50, 127
1, 113857, Note_on_c, 3, 50, 0
1, 113857, Note_on_c, 3, 47, 127
1, 113872, Note_on_c, 3, 47, 0
1, 113872, Note_on_c, 3, 49, 127
1, 113887, Note_on_c, 3, 49, 0
1, 113887, Note_on_c, 3, 50, 127
1, 113887, Note_on_c, 7, 67, 0
1, 113887, Note_on_c, 7, 66, 100
1, 113887, Note_on_c, 7, 61, 0
1, 113887, Note_on_c, 7, 64, 0
1, 113887, Note_on_c, 7, 62, 100
1, 113887, Note_on_c, 7, 57, 0
1, 113887, Note_on_c, 7, 57, 100
1, 113887, Note_on_c, 7, 50, 100
1, 113887, Note_on_c, 7, 38, 100
1, 113947, Note_on_c, 7, 66, 0
1, 113947, Note_on_c, 7, 66, 100
1, 113947, Note_on_c, 7, 62, 0
1, 113947, Note_on_c, 7, 62, 100
1, 113947, Note_on_c, 7, 57, 0
1, 113947, Note_on_c, 7, 57, 100
1, 114007, Note_on_c, 7, 66, 0
1, 114007, Note_on_c, 7, 66, 100
1, 114007, Note_on_c, 7, 62, 0
1, 114007, Note_on_c, 7, 62, 100
1, 114007, Note_on_c, 7, 57, 0
1, 114007, Note_on_c, 7, 57, 100
1, 114007, Note_on_c, 7, 50, 0
1, 114007, Note_on_c, 7, 38, 0
1, 114067, Note_on_c, 3, 50, 0
1, 114067, Note_on_c, 3, 78, 127
1, 114067, Note_on_c, 7, 66, 0
1, 114067, Note_on_c, 7, 66, 100
1, 114067, Note_on_c, 7, 62, 0
1, 114067, Note_on_c, 7, 62, 100
1, 114067, Note_on_c, 7, 57, 0
1, 114067, Note_on_c, 7, 57, 100
1, 114127, Note_on_c, 7, 66, 0
1, 114127, Note_on_c, 7, 66, 100
1, 114127, Note_on_c, 7, 62, 0
1, 114127, Note_on_c, 7, 62, 100
1, 114127, Note_on_c, 7, 57, 0
1, 114127, Note_on_c, 7, 57, 100
1, 114187, Note_on_c, 7, 66, 0
1, 114187, Note_on_c, 7, 66, 100
1, 114187, Note_on_c, 7, 62, 0
1, 114187, Note_on_c, 7, 62, 100
1, 114187, Note_on_c, 7, 57, 0
1, 114187, Note_on_c, 7, 57, 100
1, 114247, Note_on_c, 3, 78, 0
1, 114247, Note_on_c, 3, 81, 127
1, 114247, Note_on_c, 7, 66, 0
1, 114247, Note_on_c, 7, 66, 100
1, 114247, Note_on_c, 7, 62, 0
1, 114247, Note_on_c, 7, 60, 100
1, 114247, Note_on_c, 7, 57, 0
1, 114247, Note_on_c, 7, 57, 100
1, 114247, Note_on_c, 7, 51, 100
1, 114247, Note_on_c, 7, 39, 100
1, 114307, Note_on_c, 7, 66, 0
1, 114307, Note_on_c, 7, 66, 100
1, 114307, Note_on_c, 7, 60, 0
1, 114307, Note_on_c, 7, 60, 100
1, 114307, Note_on_c, 7, 57, 0
1, 114307, Note_on_c, 7, 57, 100
1, 114367, Note_on_c, 7, 66, 0
1, 114367, Note_on_c, 7, 66, 100
1, 114367, Note_on_c, 7, 60, 0
1, 114367, Note_on_c, 7, 60, 100
1, 114367, Note_on_c, 7, 57, 0
1, 114367, Note_on_c, 7, 57, 100
1, 114427, Note_on_c, 3, 81, 0
1, 114427, Note_on_c, 3, 51, 127
1, 114427, Note_on_c, 7, 66, 0
1, 114427, Note_on_c, 7, 63, 100
1, 114427, Note_on_c, 7, 60, 0
1, 114427, Note_on_c, 7, 60, 100
1, 114427, Note_on_c, 7, 57, 0
1, 114427, Note_on_c, 7, 57, 100
1, 114427, Note_on_c, 7, 51, 0
1, 114427, Note_on_c, 7, 54, 100
1, 114427, Note_on_c, 7, 39, 0
1, 114427, Note_on_c, 7, 42, 100
1, 114442, Note_on_c, 3, 51, 0
1, 114442, Note_on_c, 3, 52, 127
1, 114457, Note_on_c, 3, 52, 0
1, 114457, Note_on_c, 3, 51, 127
1, 114472, Note_on_c, 3, 51, 0
1, 114472, Note_on_c, 3, 52, 127
1, 114487, Note_on_c, 3, 52, 0
1, 114487, Note_on_c, 3, 51, 127
1, 114487, Note_on_c, 7, 63, 0
1, 114487, Note_on_c, 7, 63, 100
1, 114487, Note_on_c, 7, 60, 0
1, 114487, Note_on_c, 7, 60, 100
1, 114487, Note_on_c, 7, 57, 0
1, 114487, Note_on_c, 7, 57, 100
1, 114502, Note_on_c, 3, 51, 0
1, 114502, Note_on_c, 3, 52, 127
1, 114517, Note_on_c, 3, 52, 0
1, 114517, Note_on_c, 3, 51, 127
1, 114532, Note_on_c, 3, 51, 0
1, 114532, Note_on_c, 3, 52, 127
1, 114547, Note_on_c, 3, 52, 0
1, 114547, Note_on_c, 3, 51, 127
1, 114547, Note_on_c, 7, 63, 0
1, 114547, Note_on_c, 7, 63, 100
1, 114547, Note_on_c, 7, 60, 0
1, 114547, Note_on_c, 7, 60, 100
1, 114547, Note_on_c, 7, 57, 0
1, 114547, Note_on_c, 7, 57, 100
1, 114562, Note_on_c, 3, 51, 0
1, 114562, Note_on_c, 3, 52, 127
1, 114577, Note_on_c, 3, 52, 0
1, 114577, Note_on_c, 3, 49, 127
1, 114592, Note_on_c, 3, 49, 0
1, 114592, Note_on_c, 3, 51, 127
1, 114607, Note_on_c, 3, 51, 0
1, 114607, Note_on_c, 3, 52, 127
1, 114607, Note_on_c, 7, 63, 0
1, 114607, Note_on_c, 7, 64, 100
1, 114607, Note_on_c, 7, 60, 0
1, 114607, Note_on_c, 7, 61, 100
1, 114607, Note_on_c, 7, 57, 0
1, 114607, Note_on_c, 7, 57, 100
1, 114607, Note_on_c, 7, 54, 0
1, 114607, Note_on_c, 7, 52, 100
1, 114607, Note_on_c, 7, 42, 0
1, 114607, Note_on_c, 7, 40, 100
1, 114667, Note_on_c, 7, 64, 0
1, 114667, Note_on_c, 7, 64, 100
1, 114667, Note_on_c, 7, 61, 0
1, 114667, Note_on_c, 7, 61, 100
1, 114667, Note_on_c, 7, 57, 0
1, 114667, Note_on_c, 7, 57, 100
1, 114667, Note_on_c, 7, 52, 0
1, 114667, Note_on_c, 7, 52, 100
1, 114667, Note_on_c, 7, 40, 0
1, 114667, Note_on_c, 7, 40, 100
1, 114727, Note_on_c, 7, 64, 0
1, 114727, Note_on_c, 7, 64, 100
1, 114727, Note_on_c, 7, 61, 0
1, 114727, Note_on_c, 7, 61, 100
1, 114727, Note_on_c, 7, 57, 0
1, 114727, Note_on_c, 7, 57, 100
1, 114727, Note_on_c, 7, 52, 0
1, 114727, Note_on_c, 7, 52, 100
1, 114727, Note_on_c, 7, 40, 0
1, 114727, Note_on_c, 7, 40, 100
1, 114787, Note_on_c, 3, 52, 0
1, 114787, Note_on_c, 7, 64, 0
1, 114787, Note_on_c, 7, 64, 100
1, 114787, Note_on_c, 7, 61, 0
1, 114787, Note_on_c, 7, 61, 100
1, 114787, Note_on_c, 7, 57, 0
1, 114787, Note_on_c, 7, 57, 100
1, 114787, Note_on_c, 7, 52, 0
1, 114787, Note_on_c, 7, 52, 100
1, 114787, Note_on_c, 7, 40, 0
1, 114787, Note_on_c, 7, 40, 100
1, 114817, Note_on_c, 3, 64, 127
1, 114847, Note_on_c, 3, 64, 0
1, 114847, Note_on_c, 3, 66, 127
1, 114847, Note_on_c, 7, 64, 0
1, 114847, Note_on_c, 7, 61, 0
1, 114847, Note_on_c, 7, 57, 0
1, 114847, Note_on_c, 7, 52, 0
1, 114847, Note_on_c, 7, 40, 0
1, 114877, Note_on_c, 3, 66, 0
1, 114877, Note_on_c, 3, 68, 127
1, 114907, Note_on_c, 3, 68, 0
1, 114907, Note_on_c, 3, 69, 127
1, 114937, Note_on_c, 3, 69, 0
1, 114937, Note_on_c, 3, 71, 127
1, 114967, Note_on_c, 3, 71, 0
1, 114967, Note_on_c, 3, 73, 127
1, 114967, Note_on_c, 7, 64, 100
1, 114967, Note_on_c, 7, 61, 100
1, 114967, Note_on_c, 7, 57, 100
1, 114967, Note_on_c, 7, 52, 100
1, 114967, Note_on_c, 7, 40, 100
1, 114997, Note_on_c, 3, 73, 0
1, 114997, Note_on_c, 3, 68, 127
1, 115027, Note_on_c, 3, 68, 0
1, 115027, Note_on_c, 3, 69, 127
1, 115027, Note_on_c, 7, 64, 0
1, 115027, Note_on_c, 7, 61, 0
1, 115027, Note_on_c, 7, 57, 0
1, 115027, Note_on_c, 7, 52, 0
1, 115027, Note_on_c, 7, 40, 0
1, 115057, Note_on_c, 3, 69, 0
1, 115057, Note_on_c, 3, 71, 127
1, 115087, Note_on_c, 3, 71, 0
1, 115087, Note_on_c, 3, 73, 127
1, 115117, Note_on_c, 3, 73, 0
1, 115117, Note_on_c, 3, 74, 127
1, 115147, Note_on_c, 3, 74, 0
1, 115147, Note_on_c, 3, 76, 127
1, 115147, Note_on_c, 7, 64, 100
1, 115147, Note_on_c, 7, 61, 100
1, 115147, Note_on_c, 7, 57, 100
1, 115147, Note_on_c, 7, 52, 100
1, 115147, Note_on_c, 7, 40, 100
1, 115177, Note_on_c, 3, 76, 0
1, 115177, Note_on_c, 3, 73, 127
1, 115207, Note_on_c, 3, 73, 0
1, 115207, Note_on_c, 3, 74, 127
1, 115207, Note_on_c, 7, 64, 0
1, 115207, Note_on_c, 7, 61, 0
1, 115207, Note_on_c, 7, 57, 0
1, 115207, Note_on_c, 7, 52, 0
1, 115207, Note_on_c, 7, 40, 0
1, 115237, Note_on_c, 3, 74, 0
1, 115237, Note_on_c, 3, 76, 127
1, 115267, Note_on_c, 3, 76, 0
1, 115267, Note_on_c, 3, 78, 127
1, 115297, Note_on_c, 3, 78, 0
1, 115297, Note_on_c, 3, 80, 127
1, 115327, Note_on_c, 3, 80, 0
1, 115327, Note_on_c, 3, 81, 127
1, 115327, Note_on_c, 7, 64, 100
1, 115327, Note_on_c, 7, 61, 100
1, 115327, Note_on_c, 7, 57, 100
1, 115327, Note_on_c, 7, 52, 100
1, 115327, Note_on_c, 7, 40, 100
1, 115357, Note_on_c, 3, 81, 0
1, 115357, Note_on_c, 3, 80, 127
1, 115357, Note_on_c, 7, 64, 0
1, 115357, Note_on_c, 7, 61, 0
1, 115387, Note_on_c, 3, 80, 0
1, 115387, Note_on_c, 3, 78, 127
1, 115387, Note_on_c, 7, 64, 100
1, 115387, Note_on_c, 7, 61, 100
1, 115417, Note_on_c, 3, 78, 0
1, 115417, Note_on_c, 3, 76, 127
1, 115417, Note_on_c, 7, 64, 0
1, 115417, Note_on_c, 7, 61, 0
1, 115447, Note_on_c, 3, 76, 0
1, 115447, Note_on_c, 3, 75, 127
1, 115447, Note_on_c, 7, 69, 100
1, 115447, Note_on_c, 7, 64, 100
1, 115447, Note_on_c, 7, 57, 0
1, 115447, Note_on_c, 7, 52, 0
1, 115447, Note_on_c, 7, 40, 0
1, 115477, Note_on_c, 3, 75, 0
1, 115477, Note_on_c, 3, 76, 127
1, 115477, Note_on_c, 7, 69, 0
1, 115477, Note_on_c, 7, 64, 0
1, 115507, Note_on_c, 3, 76, 0
1, 115507, Note_on_c, 3, 74, 127
1, 115507, Note_on_c, 7, 73, 100
1, 115507, Note_on_c, 7, 69, 100
1, 115537, Note_on_c, 3, 74, 0
1, 115537, Note_on_c, 3, 73, 127
1, 115537, Note_on_c, 7, 73, 0
1, 115537, Note_on_c, 7, 69, 0
1, 115567, Note_on_c, 3, 73, 0
1, 115567, Note_on_c, 3, 71, 127
1, 115567, Note_on_c, 7, 76, 100
1, 115567, Note_on_c, 7, 73, 100
1, 115597, Note_on_c, 3, 71, 0
1, 115597, Note_on_c, 3, 69, 127
1, 115597, Note_on_c, 7, 76, 0
1, 115597, Note_on_c, 7, 73, 0
1, 115627, Note_on_c, 3, 69, 0
1, 115627, Note_on_c, 3, 68, 127
1, 115627, Note_on_c, 7, 81, 100
1, 115627, Note_on_c, 7, 73, 100
1, 115657, Note_on_c, 3, 68, 0
1, 115657, Note_on_c, 3, 69, 127
1, 115657, Note_on_c, 7, 81, 0
1, 115657, Note_on_c, 7, 73, 0
1, 115687, Note_on_c, 3, 69, 0
1, 115687, Note_on_c, 3, 71, 127
1, 115687, Note_on_c, 7, 64, 100
1, 115687, Note_on_c, 7, 68, 100
1, 115687, Note_on_c, 7, 62, 100
1, 115687, Note_on_c, 7, 52, 100
1, 115687, Note_on_c, 7, 40, 100
1, 115702, Note_on_c, 3, 71, 0
1, 115702, Note_on_c, 3, 73, 127
1, 115717, Note_on_c, 3, 73, 0
1, 115717, Note_on_c, 3, 71, 127
1, 115732, Note_on_c, 3, 71, 0
1, 115732, Note_on_c, 3, 73, 127
1, 115747, Note_on_c, 3, 73, 0
1, 115747, Note_on_c, 3, 71, 127
1, 115747, Note_on_c, 7, 68, 0
1, 115747, Note_on_c, 7, 68, 100
1, 115747, Note_on_c, 7, 62, 0
1, 115747, Note_on_c, 7, 62, 100
1, 115747, Note_on_c, 7, 52, 0
1, 115747, Note_on_c, 7, 52, 100
1, 115747, Note_on_c, 7, 40, 0
1, 115747, Note_on_c, 7, 40, 100
1, 115762, Note_on_c, 3, 71, 0
1, 115762, Note_on_c, 3, 73, 127
1, 115777, Note_on_c, 3, 73, 0
1, 115777, Note_on_c, 3, 71, 127
1, 115792, Note_on_c, 3, 71, 0
1, 115792, Note_on_c, 3, 73, 127
1, 115807, Note_on_c, 3, 73, 0
1, 115807, Note_on_c, 3, 71, 127
1, 115807, Note_on_c, 7, 64, 0
1, 115807, Note_on_c, 7, 68, 0
1, 115807, Note_on_c, 7, 68, 100
1, 115807, Note_on_c, 7, 62, 0
1, 115807, Note_on_c, 7, 62, 100
1, 115807, Note_on_c, 7, 52, 0
1, 115807, Note_on_c, 7, 52, 100
1, 115807, Note_on_c, 7, 40, 0
1, 115807, Note_on_c, 7, 40, 100
1, 115822, Note_on_c, 3, 71, 0
1, 115822, Note_on_c, 3, 73, 127
1, 115837, Note_on_c, 3, 73, 0
1, 115837, Note_on_c, 3, 71, 127
1, 115852, Note_on_c, 3, 71, 0
1, 115852, Note_on_c, 3, 73, 127
1, 115867, Note_on_c, 3, 73, 0
1, 115867, Note_on_c, 3, 71, 127
1, 115867, Note_on_c, 7, 68, 0
1, 115867, Note_on_c, 7, 68, 100
1, 115867, Note_on_c, 7, 62, 0
1, 115867, Note_on_c, 7, 62, 100
1, 115867, Note_on_c, 7, 52, 0
1, 115867, Note_on_c, 7, 52, 100
1, 115867, Note_on_c, 7, 40, 0
1, 115867, Note_on_c, 7, 40, 100
1, 115882, Note_on_c, 3, 71, 0
1, 115882, Note_on_c, 3, 73, 127
1, 115897, Note_on_c, 3, 73, 0
1, 115897, Note_on_c, 3, 71, 127
1, 115912, Note_on_c, 3, 71, 0
1, 115912, Note_on_c, 3, 73, 127
1, 115927, Note_on_c, 3, 73, 0
1, 115927, Note_on_c, 3, 71, 127
1, 115927, Note_on_c, 7, 68, 0
1, 115927, Note_on_c, 7, 68, 100
1, 115927, Note_on_c, 7, 62, 0
1, 115927, Note_on_c, 7, 62, 100
1, 115927, Note_on_c, 7, 52, 0
1, 115927, Note_on_c, 7, 52, 100
1, 115927, Note_on_c, 7, 40, 0
1, 115927, Note_on_c, 7, 40, 100
1, 115942, Note_on_c, 3, 71, 0
1, 115942, Note_on_c, 3, 73, 127
1, 115957, Note_on_c, 3, 73, 0
1, 115957, Note_on_c, 3, 71, 127
1, 115972, Note_on_c, 3, 71, 0
1, 115972, Note_on_c, 3, 73, 127
1, 115987, Note_on_c, 3, 73, 0
1, 115987, Note_on_c, 3, 71, 127
1, 115987, Note_on_c, 7, 64, 100
1, 115987, Note_on_c, 7, 68, 0
1, 115987, Note_on_c, 7, 68, 100
1, 115987, Note_on_c, 7, 62, 0
1, 115987, Note_on_c, 7, 62, 100
1, 115987, Note_on_c, 7, 52, 0
1, 115987, Note_on_c, 7, 52, 100
1, 115987, Note_on_c, 7, 40, 0
1, 115987, Note_on_c, 7, 40, 100
1, 116002, Note_on_c, 3, 71, 0
1, 116002, Note_on_c, 3, 73, 127
1, 116017, Note_on_c, 3, 73, 0
1, 116017, Note_on_c, 3, 69, 127
1, 116032, Note_on_c, 3, 69, 0
1, 116032, Note_on_c, 3, 71, 127
1, 116047, Note_on_c, 3, 71, 0
1, 116047, Note_on_c, 3, 69, 127
1, 116047, Note_on_c, 7, 64, 0
1, 116047, Note_on_c, 7, 76, 100
1, 116047, Note_on_c, 7, 68, 0
1, 116047, Note_on_c, 7, 69, 100
1, 116047, Note_on_c, 7, 62, 0
1, 116047, Note_on_c, 7, 61, 100
1, 116047, Note_on_c, 7, 52, 0
1, 116047, Note_on_c, 7, 57, 100
1, 116047, Note_on_c, 7, 40, 0
1, 116047, Note_on_c, 7, 45, 100
1, 116077, Note_on_c, 7, 76, 0
1, 116077, Note_on_c, 7, 69, 0
1, 116167, Note_on_c, 3, 69, 0
1, 116167, Note_on_c, 7, 76, 100
1, 116167, Note_on_c, 7, 73, 100
1, 116167, Note_on_c, 7, 61, 0
1, 116167, Note_on_c, 7, 57, 0
1, 116167, Note_on_c, 7, 45, 0
1, 116197, Note_on_c, 7, 76, 0
1, 116197, Note_on_c, 7, 73, 0
1, 116227, Note_on_c, 7, 78, 100
1, 116227, Note_on_c, 7, 74, 100
1, 116257, Note_on_c, 7, 78, 0
1, 116257, Note_on_c, 7, 76, 100
1, 116257, Note_on_c, 7, 74, 0
1, 116257, Note_on_c, 7, 73, 100
1, 116287, Note_on_c, 7, 76, 0
1, 116287, Note_on_c, 7, 75, 100
1, 116287, Note_on_c, 7, 73, 0
1, 116287, Note_on_c, 7, 72, 100
1, 116317, Note_on_c, 7, 75, 0
1, 116317, Note_on_c, 7, 76, 100
1, 116317, Note_on_c, 7, 72, 0
1, 116317, Note_on_c, 7, 73, 100
1, 116347, Note_on_c, 7, 76, 0
1, 116347, Note_on_c, 7, 78, 100
1, 116347, Note_on_c, 7, 73, 0
1, 116347, Note_on_c, 7, 74, 100
1, 116377, Note_on_c, 7, 78, 0
1, 116377, Note_on_c, 7, 76, 100
1, 116377, Note_on_c, 7, 74, 0
1, 116377, Note_on_c, 7, 73, 100
1, 116407, Note_on_c, 7, 76, 0
1, 116407, Note_on_c, 7, 74, 100
1, 116407, Note_on_c, 7, 73, 0
1, 116407, Note_on_c, 7, 73, 100
1, 116467, Note_on_c, 7, 63, 100
1, 116527, Note_on_c, 7, 63, 0
1, 116527, Note_on_c, 7, 64, 100
1, 116587, Note_on_c, 7, 73, 0
1, 116587, Note_on_c, 7, 71, 100
1, 116587, Note_on_c, 7, 64, 0
1, 116587, Note_on_c, 7, 65, 100
1, 116647, Note_on_c, 7, 65, 0
1, 116647, Note_on_c, 7, 66, 100
1, 116707, Note_on_c, 3, 64, 127
1, 116707, Note_on_c, 7, 66, 0
1, 116707, Note_on_c, 7, 68, 100
1, 116767, Note_on_c, 3, 64, 0
1, 116767, Note_on_c, 3, 73, 127
1, 116767, Note_on_c, 7, 74, 0
1, 116767, Note_on_c, 7, 73, 100
1, 116767, Note_on_c, 7, 71, 0
1, 116767, Note_on_c, 7, 69, 100
1, 116767, Note_on_c, 7, 68, 0
1, 116797, Note_on_c, 3, 73, 0
1, 116887, Note_on_c, 3, 73, 127
1, 116887, Note_on_c, 7, 73, 0
1, 116917, Note_on_c, 3, 73, 0
1, 116917, Note_on_c, 7, 69, 0
1, 116947, Note_on_c, 3, 74, 127
1, 116947, Note_on_c, 7, 71, 100
1, 116977, Note_on_c, 3, 74, 0
1, 116977, Note_on_c, 3, 73, 127
1, 116977, Note_on_c, 7, 71, 0
1, 116977, Note_on_c, 7, 69, 100
1, 117007, Note_on_c, 3, 73, 0
1, 117007, Note_on_c, 3, 72, 127
1, 117007, Note_on_c, 7, 69, 0
1, 117007, Note_on_c, 7, 68, 100
1, 117037, Note_on_c, 3, 72, 0
1, 117037, Note_on_c, 3, 73, 127
1, 117037, Note_on_c, 7, 68, 0
1, 117037, Note_on_c, 7, 69, 100
1, 117067, Note_on_c, 3, 73, 0
1, 117067, Note_on_c, 3, 74, 127
1, 117067, Note_on_c, 7, 69, 0
1, 117067, Note_on_c, 7, 71, 100
1, 117097, Note_on_c, 3, 74, 0
1, 117097, Note_on_c, 3, 73, 127
1, 117097, Note_on_c, 7, 71, 0
1, 117097, Note_on_c, 7, 69, 100
1, 117127, Note_on_c, 3, 73, 0
1, 117127, Note_on_c, 3, 71, 127
1, 117127, Note_on_c, 7, 69, 0
1, 117127, Note_on_c, 7, 69, 100
1, 117187, Note_on_c, 7, 61, 100
1, 117247, Note_on_c, 7, 62, 100
1, 117247, Note_on_c, 7, 61, 0
1, 117307, Note_on_c, 7, 69, 0
1, 117307, Note_on_c, 7, 68, 100
1, 117307, Note_on_c, 7, 63, 100
1, 117307, Note_on_c, 7, 62, 0
1, 117367, Note_on_c, 7, 64, 100
1, 117367, Note_on_c, 7, 63, 0
1, 117427, Note_on_c, 7, 73, 100
1, 117427, Note_on_c, 7, 65, 100
1, 117427, Note_on_c, 7, 64, 0
1, 117487, Note_on_c, 3, 71, 0
1, 117487, Note_on_c, 3, 69, 127
1, 117487, Note_on_c, 7, 73, 0
1, 117487, Note_on_c, 7, 81, 100
1, 117487, Note_on_c, 7, 68, 0
1, 117487, Note_on_c, 7, 66, 100
1, 117487, Note_on_c, 7, 65, 0
1, 117517, Note_on_c, 7, 81, 0
1, 117607, Note_on_c, 3, 69, 0
1, 117607, Note_on_c, 7, 81, 100
1, 117607, Note_on_c, 7, 78, 100
1, 117607, Note_on_c, 7, 66, 0
1, 117637, Note_on_c, 7, 81, 0
1, 117637, Note_on_c, 7, 78, 0
1, 117667, Note_on_c, 7, 83, 100
1, 117667, Note_on_c, 7, 79, 100
1, 117697, Note_on_c, 7, 83, 0
1, 117697, Note_on_c, 7, 81, 100
1, 117697, Note_on_c, 7, 79, 0
1, 117697, Note_on_c, 7, 78, 100
1, 117727, Note_on_c, 7, 81, 0
1, 117727, Note_on_c, 7, 80, 100
1, 117727, Note_on_c, 7, 78, 0
1, 117727, Note_on_c, 7, 77, 100
1, 117757, Note_on_c, 7, 80, 0
1, 117757, Note_on_c, 7, 81, 100
1, 117757, Note_on_c, 7, 77, 0
1, 117757, Note_on_c, 7, 78, 100
1, 117787, Note_on_c, 7, 81, 0
1, 117787, Note_on_c, 7, 83, 100
1, 117787, Note_on_c, 7, 78, 0
1, 117787, Note_on_c, 7, 79, 100
1, 117817, Note_on_c, 7, 83, 0
1, 117817, Note_on_c, 7, 81, 100
1, 117817, Note_on_c, 7, 79, 0
1, 117817, Note_on_c, 7, 78, 100
1, 117847, Note_on_c, 7, 81, 0
1, 117847, Note_on_c, 7, 79, 100
1, 117847, Note_on_c, 7, 78, 0
1, 117847, Note_on_c, 7, 78, 100
1, 117847, Note_on_c, 7, 69, 100
1, 117907, Note_on_c, 3, 57, 127
1, 117967, Note_on_c, 3, 57, 0
1, 117967, Note_on_c, 3, 58, 127
1, 118027, Note_on_c, 3, 58, 0
1, 118027, Note_on_c, 3, 59, 127
1, 118027, Note_on_c, 7, 78, 0
1, 118027, Note_on_c, 7, 76, 100
1, 118087, Note_on_c, 3, 59, 0
1, 118087, Note_on_c, 3, 60, 127
1, 118147, Note_on_c, 3, 60, 0
1, 118147, Note_on_c, 3, 61, 127
1, 118207, Note_on_c, 3, 61, 0
1, 118207, Note_on_c, 3, 62, 127
1, 118207, Note_on_c, 7, 79, 0
1, 118207, Note_on_c, 7, 78, 100
1, 118207, Note_on_c, 7, 76, 0
1, 118207, Note_on_c, 7, 74, 100
1, 118267, Note_on_c, 7, 78, 0
1, 118267, Note_on_c, 7, 66, 100
1, 118267, Note_on_c, 7, 74, 0
1, 118267, Note_on_c, 7, 62, 100
1, 118267, Note_on_c, 7, 69, 0
1, 118267, Note_on_c, 7, 57, 100
1, 118267, Note_on_c, 7, 50, 100
1, 118267, Note_on_c, 7, 38, 100
1, 118327, Note_on_c, 7, 66, 0
1, 118327, Note_on_c, 7, 66, 100
1, 118327, Note_on_c, 7, 62, 0
1, 118327, Note_on_c, 7, 62, 100
1, 118327, Note_on_c, 7, 57, 0
1, 118327, Note_on_c, 7, 57, 100
1, 118327, Note_on_c, 7, 50, 0
1, 118327, Note_on_c, 7, 50, 100
1, 118327, Note_on_c, 7, 38, 0
1, 118327, Note_on_c, 7, 38, 100
1, 118387, Note_on_c, 3, 62, 0
1, 118387, Note_on_c, 3, 78, 127
1, 118387, Note_on_c, 7, 66, 0
1, 118387, Note_on_c, 7, 66, 100
1, 118387, Note_on_c, 7, 62, 0
1, 118387, Note_on_c, 7, 62, 100
1, 118387, Note_on_c, 7, 57, 0
1, 118387, Note_on_c, 7, 57, 100
1, 118387, Note_on_c, 7, 50, 0
1, 118387, Note_on_c, 7, 50, 100
1, 118387, Note_on_c, 7, 38, 0
1, 118387, Note_on_c, 7, 38, 100
1, 118447, Note_on_c, 7, 66, 0
1, 118447, Note_on_c, 7, 66, 100
1, 118447, Note_on_c, 7, 62, 0
1, 118447, Note_on_c, 7, 62, 100
1, 118447, Note_on_c, 7, 57, 0
1, 118447, Note_on_c, 7, 57, 100
1, 118447, Note_on_c, 7, 50, 0
1, 118447, Note_on_c, 7, 50, 100
1, 118447, Note_on_c, 7, 38, 0
1, 118447, Note_on_c, 7, 38, 100
1, 118507, Note_on_c, 7, 66, 0
1, 118507, Note_on_c, 7, 66, 100
1, 118507, Note_on_c, 7, 62, 0
1, 118507, Note_on_c, 7, 62, 100
1, 118507, Note_on_c, 7, 57, 0
1, 118507, Note_on_c, 7, 57, 100
1, 118507, Note_on_c, 7, 50, 0
1, 118507, Note_on_c, 7, 50, 100
1, 118507, Note_on_c, 7, 38, 0
1, 118507, Note_on_c, 7, 38, 100
1, 118567, Note_on_c, 7, 66, 0
1, 118567, Note_on_c, 7, 66, 100
1, 118567, Note_on_c, 7, 62, 0
1, 118567, Note_on_c, 7, 62, 100
1, 118567, Note_on_c, 7, 57, 0
1, 118567, Note_on_c, 7, 57, 100
1, 118567, Note_on_c, 7, 50, 0
1, 118567, Note_on_c, 7, 50, 100
1, 118567, Note_on_c, 7, 38, 0
1, 118567, Note_on_c, 7, 38, 100
1, 118597, Note_on_c, 3, 78, 0
1, 118597, Note_on_c, 3, 80, 127
1, 118597, Note_on_c, 7, 66, 0
1, 118597, Note_on_c, 7, 62, 0
1, 118597, Note_on_c, 7, 57, 0
1, 118597, Note_on_c, 7, 50, 0
1, 118597, Note_on_c, 7, 38, 0
1, 118627, Note_on_c, 3, 80, 0
1, 118627, Note_on_c, 3, 81, 127
1, 118642, Note_on_c, 3, 81, 0
1, 118657, Note_on_c, 3, 80, 127
1, 118672, Note_on_c, 3, 80, 0
1, 118687, Note_on_c, 3, 78, 127
1, 118687, Note_on_c, 7, 69, 100
1, 118687, Note_on_c, 7, 61, 100
1, 118687, Note_on_c, 7, 64, 100
1, 118687, Note_on_c, 7, 52, 100
1, 118687, Note_on_c, 7, 40, 100
1, 118702, Note_on_c, 3, 78, 0
1, 118717, Note_on_c, 3, 76, 127
1, 118717, Note_on_c, 7, 69, 0
1, 118717, Note_on_c, 7, 61, 0
1, 118717, Note_on_c, 7, 64, 0
1, 118717, Note_on_c, 7, 52, 0
1, 118717, Note_on_c, 7, 40, 0
1, 118732, Note_on_c, 3, 76, 0
1, 118747, Note_on_c, 3, 74, 127
1, 118747, Note_on_c, 7, 69, 100
1, 118747, Note_on_c, 7, 57, 100
1, 118747, Note_on_c, 7, 62, 100
1, 118747, Note_on_c, 7, 54, 100
1, 118747, Note_on_c, 7, 42, 100
1, 118777, Note_on_c, 3, 74, 0
1, 118777, Note_on_c, 3, 76, 127
1, 118777, Note_on_c, 7, 69, 0
1, 118777, Note_on_c, 7, 57, 0
1, 118777, Note_on_c, 7, 62, 0
1, 118777, Note_on_c, 7, 54, 0
1, 118777, Note_on_c, 7, 42, 0
1, 118807, Note_on_c, 3, 76, 0
1, 118807, Note_on_c, 3, 74, 127
1, 118822, Note_on_c, 3, 74, 0
1, 118837, Note_on_c, 3, 73, 127
1, 118852, Note_on_c, 3, 73, 0
1, 118867, Note_on_c, 3, 71, 127
1, 118867, Note_on_c, 7, 66, 100
1, 118867, Note_on_c, 7, 59, 100
1, 118867, Note_on_c, 7, 51, 100
1, 118867, Note_on_c, 7, 39, 100
1, 118882, Note_on_c, 3, 71, 0
1, 118897, Note_on_c, 3, 69, 127
1, 118897, Note_on_c, 7, 59, 0
1, 118897, Note_on_c, 7, 66, 0
1, 118897, Note_on_c, 7, 51, 0
1, 118897, Note_on_c, 7, 39, 0
1, 118912, Note_on_c, 3, 69, 0
1, 118927, Note_on_c, 3, 68, 127
1, 118927, Note_on_c, 7, 64, 100
1, 118927, Note_on_c, 7, 59, 100
1, 118927, Note_on_c, 7, 52, 100
1, 118927, Note_on_c, 7, 40, 100
1, 118957, Note_on_c, 3, 68, 0
1, 118987, Note_on_c, 7, 59, 0
1, 118987, Note_on_c, 7, 64, 0
1, 118987, Note_on_c, 7, 64, 100
1, 118987, Note_on_c, 7, 52, 0
1, 118987, Note_on_c, 7, 40, 0
1, 118987, Note_on_c, 7, 52, 100
1, 119047, Note_on_c, 3, 71, 127
1, 119047, Note_on_c, 7, 68, 100
1, 119047, Note_on_c, 7, 52, 0
1, 119047, Note_on_c, 7, 52, 100
1, 119077, Note_on_c, 3, 71, 0
1, 119107, Note_on_c, 3, 73, 127
1, 119107, Note_on_c, 7, 68, 0
1, 119107, Note_on_c, 7, 68, 100
1, 119107, Note_on_c, 7, 52, 0
1, 119107, Note_on_c, 7, 52, 100
1, 119137, Note_on_c, 3, 73, 0
1, 119137, Note_on_c, 3, 71, 127
1, 119167, Note_on_c, 3, 71, 0
1, 119167, Note_on_c, 3, 69, 127
1, 119167, Note_on_c, 7, 68, 0
1, 119167, Note_on_c, 7, 68, 100
1, 119167, Note_on_c, 7, 52, 0
1, 119197, Note_on_c, 3, 69, 0
1, 119197, Note_on_c, 3, 71, 127
1, 119227, Note_on_c, 3, 71, 0
1, 119227, Note_on_c, 3, 73, 127
1, 119227, Note_on_c, 7, 68, 0
1, 119227, Note_on_c, 7, 68, 100
1, 119227, Note_on_c, 7, 64, 0
1, 119227, Note_on_c, 7, 64, 100
1, 119257, Note_on_c, 3, 73, 0
1, 119257, Note_on_c, 3, 71, 127
1, 119287, Note_on_c, 3, 71, 0
1, 119287, Note_on_c, 3, 73, 127
1, 119287, Note_on_c, 7, 68, 0
1, 119287, Note_on_c, 7, 69, 100
1, 119287, Note_on_c, 7, 64, 0
1, 119287, Note_on_c, 7, 64, 100
1, 119287, Note_on_c, 7, 52, 100
1, 119317, Note_on_c, 3, 73, 0
1, 119347, Note_on_c, 7, 69, 0
1, 119347, Note_on_c, 7, 52, 0
1, 119347, Note_on_c, 7, 52, 100
1, 119407, Note_on_c, 3, 73, 127
1, 119407, Note_on_c, 7, 69, 100
1, 119407, Note_on_c, 7, 52, 0
1, 119407, Note_on_c, 7, 52, 100
1, 119437, Note_on_c, 3, 73, 0
1, 119467, Note_on_c, 3, 74, 127
1, 119467, Note_on_c, 7, 69, 0
1, 119467, Note_on_c, 7, 69, 100
1, 119467, Note_on_c, 7, 52, 0
1, 119467, Note_on_c, 7, 52, 100
1, 119497, Note_on_c, 3, 74, 0
1, 119497, Note_on_c, 3, 73, 127
1, 119527, Note_on_c, 3, 73, 0
1, 119527, Note_on_c, 3, 71, 127
1, 119527, Note_on_c, 7, 69, 0
1, 119527, Note_on_c, 7, 69, 100
1, 119527, Note_on_c, 7, 52, 0
1, 119557, Note_on_c, 3, 71, 0
1, 119557, Note_on_c, 3, 73, 127
1, 119587, Note_on_c, 3, 73, 0
1, 119587, Note_on_c, 3, 74, 127
1, 119587, Note_on_c, 7, 69, 0
1, 119587, Note_on_c, 7, 69, 100
1, 119587, Note_on_c, 7, 64, 0
1, 119587, Note_on_c, 7, 64, 100
1, 119617, Note_on_c, 3, 74, 0
1, 119617, Note_on_c, 3, 73, 127
1, 119647, Note_on_c, 3, 73, 0
1, 119647, Note_on_c, 3, 74, 127
1, 119647, Note_on_c, 7, 69, 0
1, 119647, Note_on_c, 7, 71, 100
1, 119647, Note_on_c, 7, 64, 0
1, 119647, Note_on_c, 7, 68, 100
1, 119647, Note_on_c, 7, 64, 100
1, 119647, Note_on_c, 7, 52, 100
1, 119677, Note_on_c, 3, 74, 0
1, 119707, Note_on_c, 3, 70, 127
1, 119707, Note_on_c, 7, 71, 0
1, 119707, Note_on_c, 7, 68, 0
1, 119707, Note_on_c, 7, 64, 0
1, 119707, Note_on_c, 7, 52, 0
1, 119767, Note_on_c, 3, 70, 0
1, 119767, Note_on_c, 3, 71, 127
1, 119827, Note_on_c, 3, 71, 0
1, 119827, Note_on_c, 3, 74, 127
1, 119827, Note_on_c, 7, 71, 100
1, 119827, Note_on_c, 7, 68, 100
1, 119827, Note_on_c, 7, 64, 100
1, 119827, Note_on_c, 7, 52, 100
1, 119857, Note_on_c, 3, 74, 0
1, 119887, Note_on_c, 3, 70, 127
1, 119887, Note_on_c, 7, 71, 0
1, 119887, Note_on_c, 7, 68, 0
1, 119887, Note_on_c, 7, 64, 0
1, 119887, Note_on_c, 7, 52, 0
1, 119947, Note_on_c, 3, 70, 0
1, 119947, Note_on_c, 3, 71, 127
1, 120007, Note_on_c, 3, 71, 0
1, 120007, Note_on_c, 3, 74, 127
1, 120007, Note_on_c, 7, 71, 100
1, 120007, Note_on_c, 7, 68, 100
1, 120007, Note_on_c, 7, 64, 100
1, 120007, Note_on_c, 7, 52, 100
1, 120037, Note_on_c, 3, 74, 0
1, 120067, Note_on_c, 3, 71, 127
1, 120127, Note_on_c, 3, 71, 0
1, 120127, Note_on_c, 3, 72, 127
1, 120127, Note_on_c, 7, 71, 0
1, 120127, Note_on_c, 7, 68, 0
1, 120127, Note_on_c, 7, 64, 0
1, 120127, Note_on_c, 7, 52, 0
1, 120187, Note_on_c, 3, 72, 0
1, 120187, Note_on_c, 3, 73, 127
1, 120247, Note_on_c, 3, 73, 0
1, 120247, Note_on_c, 3, 74, 127
1, 120307, Note_on_c, 3, 74, 0
1, 120307, Note_on_c, 3, 75, 127
1, 120367, Note_on_c, 3, 75, 0
1, 120367, Note_on_c, 3, 76, 127
1, 120367, Note_on_c, 7, 73, 100
1, 120367, Note_on_c, 7, 69, 100
1, 120397, Note_on_c, 3, 76, 0
1, 120397, Note_on_c, 7, 73, 0
1, 120397, Note_on_c, 7, 69, 0
1, 120487, Note_on_c, 3, 76, 127
1, 120487, Note_on_c, 7, 73, 100
1, 120487, Note_on_c, 7, 69, 100
1, 120517, Note_on_c, 3, 76, 0
1, 120517, Note_on_c, 7, 73, 0
1, 120517, Note_on_c, 7, 69, 0
1, 120547, Note_on_c, 3, 78, 127
1, 120547, Note_on_c, 7, 73, 100
1, 120547, Note_on_c, 7, 69, 100
1, 120577, Note_on_c, 3, 78, 0
1, 120577, Note_on_c, 3, 76, 127
1, 120577, Note_on_c, 7, 73, 0
1, 120577, Note_on_c, 7, 69, 0
1, 120607, Note_on_c, 3, 76, 0
1, 120607, Note_on_c, 3, 75, 127
1, 120607, Note_on_c, 7, 73, 100
1, 120607, Note_on_c, 7, 69, 100
1, 120637, Note_on_c, 3, 75, 0
1, 120637, Note_on_c, 3, 76, 127
1, 120637, Note_on_c, 7, 73, 0
1, 120637, Note_on_c, 7, 69, 0
1, 120667, Note_on_c, 3, 76, 0
1, 120667, Note_on_c, 3, 78, 127
1, 120667, Note_on_c, 7, 73, 100
1, 120667, Note_on_c, 7, 69, 100
1, 120697, Note_on_c, 3, 78, 0
1, 120697, Note_on_c, 3, 76, 127
1, 120697, Note_on_c, 7, 73, 0
1, 120697, Note_on_c, 7, 69, 0
1, 120727, Note_on_c, 3, 76, 0
1, 120727, Note_on_c, 3, 74, 127
1, 120727, Note_on_c, 7, 71, 100
1, 120727, Note_on_c, 7, 68, 100
1, 120727, Note_on_c, 7, 64, 100
1, 120907, Note_on_c, 3, 74, 0
1, 120907, Note_on_c, 3, 73, 127
1, 120907, Note_on_c, 7, 71, 0
1, 120907, Note_on_c, 7, 73, 100
1, 120907, Note_on_c, 7, 68, 0
1, 120907, Note_on_c, 7, 69, 100
1, 120907, Note_on_c, 7, 64, 0
1, 120967, Note_on_c, 3, 73, 0
1, 120967, Note_on_c, 7, 73, 0
1, 120967, Note_on_c, 7, 69, 0
1, 121027, Note_on_c, 3, 81, 127
1, 121057, Note_on_c, 3, 81, 0
1, 121057, Note_on_c, 3, 80, 127
1, 121087, Note_on_c, 3, 80, 0
1, 121087, Note_on_c, 3, 78, 127
1, 121087, Note_on_c, 7, 69, 100
1, 121087, Note_on_c, 7, 62, 100
1, 121117, Note_on_c, 3, 78, 0
1, 121117, Note_on_c, 7, 69, 0
1, 121117, Note_on_c, 7, 62, 0
1, 121147, Note_on_c, 3, 78, 127
1, 121147, Note_on_c, 7, 69, 100
1, 121147, Note_on_c, 7, 62, 100
1, 121177, Note_on_c, 3, 78, 0
1, 121177, Note_on_c, 7, 69, 0
1, 121177, Note_on_c, 7, 62, 0
1, 121207, Note_on_c, 3, 78, 127
1, 121237, Note_on_c, 3, 78, 0
1, 121237, Note_on_c, 3, 76, 127
1, 121267, Note_on_c, 3, 76, 0
1, 121267, Note_on_c, 3, 74, 127
1, 121267, Note_on_c, 7, 69, 100
1, 121267, Note_on_c, 7, 66, 100
1, 121297, Note_on_c, 3, 74, 0
1, 121297, Note_on_c, 7, 69, 0
1, 121297, Note_on_c, 7, 66, 0
1, 121327, Note_on_c, 3, 74, 127
1, 121327, Note_on_c, 7, 69, 100
1, 121327, Note_on_c, 7, 66, 100
1, 121357, Note_on_c, 3, 74, 0
1, 121357, Note_on_c, 3, 73, 127
1, 121357, Note_on_c, 7, 69, 0
1, 121357, Note_on_c, 7, 66, 0
1, 121387, Note_on_c, 3, 73, 0
1, 121387, Note_on_c, 3, 71, 127
1, 121417, Note_on_c, 3, 71, 0
1, 121417, Note_on_c, 3, 69, 127
1, 121447, Note_on_c, 3, 69, 0
1, 121447, Note_on_c, 3, 68, 127
1, 121447, Note_on_c, 7, 64, 100
1, 121507, Note_on_c, 3, 68, 0
1, 121507, Note_on_c, 3, 69, 127
1, 121507, Note_on_c, 7, 64, 0
1, 121507, Note_on_c, 7, 66, 100
1, 121507, Note_on_c, 7, 64, 100
1, 121537, Note_on_c, 7, 64, 0
1, 121567, Note_on_c, 3, 69, 0
1, 121567, Note_on_c, 3, 70, 127
1, 121567, Note_on_c, 7, 66, 0
1, 121567, Note_on_c, 7, 67, 100
1, 121567, Note_on_c, 7, 64, 100
1, 121597, Note_on_c, 7, 64, 0
1, 121627, Note_on_c, 3, 70, 0
1, 121627, Note_on_c, 3, 71, 127
1, 121627, Note_on_c, 7, 67, 0
1, 121627, Note_on_c, 7, 68, 100
1, 121627, Note_on_c, 7, 64, 100
1, 121687, Note_on_c, 3, 71, 0
1, 121687, Note_on_c, 7, 68, 0
1, 121687, Note_on_c, 7, 64, 0
1, 121747, Note_on_c, 3, 73, 127
1, 121747, Note_on_c, 7, 69, 100
1, 121777, Note_on_c, 3, 73, 0
1, 121777, Note_on_c, 3, 74, 127
1, 121777, Note_on_c, 7, 69, 0
1, 121777, Note_on_c, 7, 71, 100
1, 121807, Note_on_c, 3, 74, 0
1, 121807, Note_on_c, 3, 76, 127
1, 121807, Note_on_c, 7, 71, 0
1, 121807, Note_on_c, 7, 73, 100
1, 121807, Note_on_c, 7, 69, 100
1, 121837, Note_on_c, 3, 76, 0
1, 121837, Note_on_c, 7, 73, 0
1, 121837, Note_on_c, 7, 69, 0
1, 121867, Note_on_c, 3, 76, 127
1, 121897, Note_on_c, 3, 76, 0
1, 121927, Note_on_c, 3, 76, 127
1, 121927, Note_on_c, 7, 73, 100
1, 121927, Note_on_c, 7, 69, 100
1, 121957, Note_on_c, 3, 76, 0
1, 121957, Note_on_c, 7, 73, 0
1, 121957, Note_on_c, 7, 69, 0
1, 121987, Note_on_c, 3, 78, 127
1, 121987, Note_on_c, 7, 73, 100
1, 121987, Note_on_c, 7, 69, 100
1, 122017, Note_on_c, 3, 78, 0
1, 122017, Note_on_c, 3, 76, 127
1, 122017, Note_on_c, 7, 73, 0
1, 122017, Note_on_c, 7, 69, 0
1, 122047, Note_on_c, 3, 76, 0
1, 122047, Note_on_c, 3, 75, 127
1, 122047, Note_on_c, 7, 73, 100
1, 122047, Note_on_c, 7, 69, 100
1, 122077, Note_on_c, 3, 75, 0
1, 122077, Note_on_c, 3, 76, 127
1, 122077, Note_on_c, 7, 73, 0
1, 122077, Note_on_c, 7, 69, 0
1, 122107, Note_on_c, 3, 76, 0
1, 122107, Note_on_c, 3, 78, 127
1, 122107, Note_on_c, 7, 73, 100
1, 122107, Note_on_c, 7, 69, 100
1, 122137, Note_on_c, 3, 78, 0
1, 122137, Note_on_c, 3, 76, 127
1, 122137, Note_on_c, 7, 73, 0
1, 122137, Note_on_c, 7, 69, 0
1, 122167, Note_on_c, 3, 76, 0
1, 122167, Note_on_c, 3, 80, 127
1, 122167, Note_on_c, 7, 74, 100
1, 122167, Note_on_c, 7, 71, 100
1, 122167, Note_on_c, 7, 64, 100
1, 122287, Note_on_c, 7, 64, 0
1, 122287, Note_on_c, 7, 65, 100
1, 122347, Note_on_c, 3, 80, 0
1, 122347, Note_on_c, 3, 81, 127
1, 122347, Note_on_c, 7, 74, 0
1, 122347, Note_on_c, 7, 73, 100
1, 122347, Note_on_c, 7, 71, 0
1, 122347, Note_on_c, 7, 69, 100
1, 122347, Note_on_c, 7, 65, 0
1, 122347, Note_on_c, 7, 66, 100
1, 122377, Note_on_c, 7, 66, 0
1, 122407, Note_on_c, 3, 81, 0
1, 122407, Note_on_c, 7, 73, 0
1, 122407, Note_on_c, 7, 69, 0
1, 122467, Note_on_c, 3, 81, 127
1, 122497, Note_on_c, 3, 81, 0
1, 122497, Note_on_c, 3, 80, 127
1, 122527, Note_on_c, 3, 80, 0
1, 122527, Note_on_c, 3, 78, 127
1, 122527, Note_on_c, 7, 71, 100
1, 122527, Note_on_c, 7, 66, 100
1, 122527, Note_on_c, 7, 62, 100
1, 122557, Note_on_c, 3, 78, 0
1, 122557, Note_on_c, 3, 76, 127
1, 122587, Note_on_c, 3, 76, 0
1, 122587, Note_on_c, 3, 74, 127
1, 122587, Note_on_c, 7, 71, 0
1, 122587, Note_on_c, 7, 66, 0
1, 122587, Note_on_c, 7, 62, 0
1, 122602, Note_on_c, 3, 74, 0
1, 122617, Note_on_c, 3, 73, 127
1, 122632, Note_on_c, 3, 73, 0
1, 122647, Note_on_c, 3, 71, 127
1, 122662, Note_on_c, 3, 71, 0
1, 122677, Note_on_c, 3, 69, 127
1, 122692, Note_on_c, 3, 69, 0
1, 122707, Note_on_c, 3, 68, 127
1, 122707, Note_on_c, 7, 62, 100
1, 122707, Note_on_c, 7, 59, 100
1, 122707, Note_on_c, 7, 52, 100
1, 122737, Note_on_c, 3, 68, 0
1, 122737, Note_on_c, 3, 69, 127
1, 122767, Note_on_c, 3, 69, 0
1, 122767, Note_on_c, 3, 71, 127
1, 122767, Note_on_c, 7, 62, 0
1, 122767, Note_on_c, 7, 59, 0
1, 122767, Note_on_c, 7, 52, 0
1, 122782, Note_on_c, 3, 71, 0
1, 122797, Note_on_c, 3, 73, 127
1, 122812, Note_on_c, 3, 73, 0
1, 122827, Note_on_c, 3, 74, 127
1, 122842, Note_on_c, 3, 74, 0
1, 122857, Note_on_c, 3, 68, 127
1, 122872, Note_on_c, 3, 68, 0
1, 122887, Note_on_c, 3, 69, 127
1, 122887, Note_on_c, 4, 76, 80
1, 122887, Note_on_c, 4, 73, 80
1, 122887, Note_on_c, 5, 64, 80
1, 122887, Note_on_c, 5, 61, 80
1, 122887, Note_on_c, 7, 57, 100
1, 122887, Note_on_c, 7, 49, 100
1, 122947, Note_on_c, 7, 64, 100
1, 122947, Note_on_c, 7, 61, 100
1, 122977, Note_on_c, 7, 64, 0
1, 122977, Note_on_c, 7, 61, 0
1, 123007, Note_on_c, 3, 69, 0
1, 123007, Note_on_c, 3, 73, 127
1, 123007, Note_on_c, 7, 69, 100
1, 123007, Note_on_c, 7, 64, 100
1, 123037, Note_on_c, 7, 69, 0
1, 123037, Note_on_c, 7, 64, 0
1, 123067, Note_on_c, 3, 73, 0
1, 123067, Note_on_c, 3, 76, 127
1, 123067, Note_on_c, 7, 73, 100
1, 123067, Note_on_c, 7, 69, 100
1, 123097, Note_on_c, 7, 73, 0
1, 123097, Note_on_c, 7, 69, 0
1, 123127, Note_on_c, 3, 76, 0
1, 123127, Note_on_c, 7, 76, 100
1, 123127, Note_on_c, 7, 73, 100
1, 123157, Note_on_c, 7, 76, 0
1, 123157, Note_on_c, 7, 73, 0
1, 123187, Note_on_c, 3, 81, 127
1, 123187, Note_on_c, 7, 81, 100
1, 123187, Note_on_c, 7, 76, 100
1, 123217, Note_on_c, 3, 81, 0
1, 123217, Note_on_c, 3, 80, 127
1, 123217, Note_on_c, 7, 81, 0
1, 123217, Note_on_c, 7, 76, 0
1, 123247, Note_on_c, 3, 80, 0
1, 123247, Note_on_c, 3, 78, 127
1, 123247, Note_on_c, 4, 76, 0
1, 123247, Note_on_c, 4, 74, 80
1, 123247, Note_on_c, 4, 73, 0
1, 123247, Note_on_c, 4, 71, 80
1, 123247, Note_on_c, 5, 64, 0
1, 123247, Note_on_c, 5, 62, 80
1, 123247, Note_on_c, 5, 61, 0
1, 123247, Note_on_c, 5, 59, 80
1, 123247, Note_on_c, 7, 57, 0
1, 123247, Note_on_c, 7, 49, 0
1, 123247, Note_on_c, 7, 50, 100
1, 123277, Note_on_c, 3, 78, 0
1, 123277, Note_on_c, 3, 76, 127
1, 123307, Note_on_c, 3, 76, 0
1, 123307, Note_on_c, 3, 74, 127
1, 123307, Note_on_c, 7, 74, 100
1, 123307, Note_on_c, 7, 71, 100
1, 123307, Note_on_c, 7, 66, 100
1, 123307, Note_on_c, 7, 50, 0
1, 123322, Note_on_c, 3, 74, 0
1, 123337, Note_on_c, 3, 73, 127
1, 123337, Note_on_c, 7, 74, 0
1, 123337, Note_on_c, 7, 71, 0
1, 123337, Note_on_c, 7, 66, 0
1, 123352, Note_on_c, 3, 73, 0
1, 123367, Note_on_c, 3, 71, 127
1, 123367, Note_on_c, 7, 74, 100
1, 123367, Note_on_c, 7, 71, 100
1, 123367, Note_on_c, 7, 66, 100
1, 123382, Note_on_c, 3, 71, 0
1, 123397, Note_on_c, 3, 69, 127
1, 123397, Note_on_c, 7, 74, 0
1, 123397, Note_on_c, 7, 71, 0
1, 123397, Note_on_c, 7, 66, 0
1, 123412, Note_on_c, 3, 69, 0
1, 123427, Note_on_c, 3, 68, 127
1, 123427, Note_on_c, 4, 74, 0
1, 123427, Note_on_c, 4, 68, 80
1, 123427, Note_on_c, 5, 62, 0
1, 123427, Note_on_c, 5, 56, 80
1, 123427, Note_on_c, 7, 52, 100
1, 123457, Note_on_c, 3, 68, 0
1, 123457, Note_on_c, 3, 69, 127
1, 123487, Note_on_c, 3, 69, 0
1, 123487, Note_on_c, 3, 71, 127
1, 123487, Note_on_c, 7, 71, 100
1, 123487, Note_on_c, 7, 68, 100
1, 123487, Note_on_c, 7, 64, 100
1, 123487, Note_on_c, 7, 52, 0
1, 123502, Note_on_c, 3, 71, 0
1, 123517, Note_on_c, 3, 73, 127
1, 123517, Note_on_c, 7, 71, 0
1, 123517, Note_on_c, 7, 68, 0
1, 123517, Note_on_c, 7, 64, 0
1, 123532, Note_on_c, 3, 73, 0
1, 123547, Note_on_c, 3, 74, 127
1, 123547, Note_on_c, 7, 71, 100
1, 123547, Note_on_c, 7, 68, 100
1, 123547, Note_on_c, 7, 64, 100
1, 123562, Note_on_c, 3, 74, 0
1, 123577, Note_on_c, 3, 68, 127
1, 123577, Note_on_c, 7, 71, 0
1, 123577, Note_on_c, 7, 68, 0
1, 123577, Note_on_c, 7, 64, 0
1, 123592, Note_on_c, 3, 68, 0
1, 123607, Note_on_c, 3, 69, 127
1, 123607, Note_on_c, 4, 71, 0
1, 123607, Note_on_c, 4, 76, 80
1, 123607, Note_on_c, 4, 68, 0
1, 123607, Note_on_c, 4, 73, 80
1, 123607, Note_on_c, 5, 59, 0
1, 123607, Note_on_c, 5, 64, 80
1, 123607, Note_on_c, 5, 56, 0
1, 123607, Note_on_c, 5, 61, 80
1, 123607, Note_on_c, 7, 57, 100
1, 123607, Note_on_c, 7, 49, 100
1, 123667, Note_on_c, 7, 64, 100
1, 123667, Note_on_c, 7, 61, 100
1, 123697, Note_on_c, 7, 64, 0
1, 123697, Note_on_c, 7, 61, 0
1, 123727, Note_on_c, 3, 69, 0
1, 123727, Note_on_c, 3, 73, 127
1, 123727, Note_on_c, 7, 69, 100
1, 123727, Note_on_c, 7, 64, 100
1, 123757, Note_on_c, 7, 69, 0
1, 123757, Note_on_c, 7, 64, 0
1, 123787, Note_on_c, 3, 73, 0
1, 123787, Note_on_c, 3, 76, 127
1, 123787, Note_on_c, 7, 73, 100
1, 123787, Note_on_c, 7, 69, 100
1, 123817, Note_on_c, 3, 76, 0
1, 123817, Note_on_c, 7, 73, 0
1, 123817, Note_on_c, 7, 69, 0
1, 123847, Note_on_c, 7, 76, 100
1, 123847, Note_on_c, 7, 73, 100
1, 123877, Note_on_c, 7, 76, 0
1, 123877, Note_on_c, 7, 73, 0
1, 123907, Note_on_c, 3, 81, 127
1, 123907, Note_on_c, 7, 81, 100
1, 123907, Note_on_c, 7, 76, 100
1, 123937, Note_on_c, 3, 81, 0
1, 123937, Note_on_c, 3, 80, 127
1, 123937, Note_on_c, 7, 81, 0
1, 123937, Note_on_c, 7, 76, 0
1, 123967, Note_on_c, 3, 80, 0
1, 123967, Note_on_c, 3, 78, 127
1, 123967, Note_on_c, 4, 76, 0
1, 123967, Note_on_c, 4, 78, 80
1, 123967, Note_on_c, 4, 73, 0
1, 123967, Note_on_c, 4, 69, 80
1, 123967, Note_on_c, 5, 64, 0
1, 123967, Note_on_c, 5, 66, 80
1, 123967, Note_on_c, 5, 61, 0
1, 123967, Note_on_c, 5, 57, 80
1, 123967, Note_on_c, 7, 78, 100
1, 123967, Note_on_c, 7, 69, 100
1, 123967, Note_on_c, 7, 57, 0
1, 123967, Note_on_c, 7, 62, 100
1, 123967, Note_on_c, 7, 49, 0
1, 123967, Note_on_c, 7, 50, 100
1, 123997, Note_on_c, 7, 78, 0
1, 123997, Note_on_c, 7, 78, 100
1, 123997, Note_on_c, 7, 69, 0
1, 123997, Note_on_c, 7, 69, 100
1, 124027, Note_on_c, 7, 78, 0
1, 124027, Note_on_c, 7, 78, 100
1, 124027, Note_on_c, 7, 69, 0
1, 124027, Note_on_c, 7, 69, 100
1, 124027, Note_on_c, 7, 62, 0
1, 124027, Note_on_c, 7, 62, 100
1, 124057, Note_on_c, 7, 78, 0
1, 124057, Note_on_c, 7, 78, 100
1, 124057, Note_on_c, 7, 69, 0
1, 124057, Note_on_c, 7, 69, 100
1, 124087, Note_on_c, 7, 78, 0
1, 124087, Note_on_c, 7, 78, 100
1, 124087, Note_on_c, 7, 69, 0
1, 124087, Note_on_c, 7, 69, 100
1, 124087, Note_on_c, 7, 62, 0
1, 124087, Note_on_c, 7, 62, 100
1, 124117, Note_on_c, 7, 78, 0
1, 124117, Note_on_c, 7, 78, 100
1, 124117, Note_on_c, 7, 69, 0
1, 124117, Note_on_c, 7, 69, 100
1, 124147, Note_on_c, 3, 78, 0
1, 124147, Note_on_c, 3, 50, 127
1, 124147, Note_on_c, 4, 78, 0
1, 124147, Note_on_c, 4, 86, 80
1, 124147, Note_on_c, 4, 69, 0
1, 124147, Note_on_c, 4, 81, 80
1, 124147, Note_on_c, 5, 66, 0
1, 124147, Note_on_c, 5, 62, 80
1, 124147, Note_on_c, 7, 78, 0
1, 124147, Note_on_c, 7, 74, 100
1, 124147, Note_on_c, 7, 69, 0
1, 124147, Note_on_c, 7, 69, 100
1, 124147, Note_on_c, 7, 62, 0
1, 124147, Note_on_c, 7, 66, 100
1, 124177, Note_on_c, 7, 74, 0
1, 124177, Note_on_c, 7, 74, 100
1, 124177, Note_on_c, 7, 69, 0
1, 124177, Note_on_c, 7, 69, 100
1, 124207, Note_on_c, 7, 74, 0
1, 124207, Note_on_c, 7, 74, 100
1, 124207, Note_on_c, 7, 69, 0
1, 124207, Note_on_c, 7, 69, 100
1, 124207, Note_on_c, 7, 66, 0
1, 124207, Note_on_c, 7, 66, 100
1, 124237, Note_on_c, 7, 74, 0
1, 124237, Note_on_c, 7, 74, 100
1, 124237, Note_on_c, 7, 69, 0
1, 124237, Note_on_c, 7, 69, 100
1, 124267, Note_on_c, 7, 74, 0
1, 124267, Note_on_c, 7, 74, 100
1, 124267, Note_on_c, 7, 69, 0
1, 124267, Note_on_c, 7, 69, 100
1, 124267, Note_on_c, 7, 66, 0
1, 124267, Note_on_c, 7, 66, 100
1, 124297, Note_on_c, 7, 74, 0
1, 124297, Note_on_c, 7, 74, 100
1, 124297, Note_on_c, 7, 69, 0
1, 124297, Note_on_c, 7, 69, 100
1, 124327, Note_on_c, 3, 50, 0
1, 124327, Note_on_c, 3, 52, 127
1, 124327, Note_on_c, 4, 86, 0
1, 124327, Note_on_c, 4, 83, 80
1, 124327, Note_on_c, 5, 62, 0
1, 124327, Note_on_c, 5, 59, 80
1, 124327, Note_on_c, 5, 57, 0
1, 124327, Note_on_c, 5, 57, 80
1, 124327, Note_on_c, 6, 52, 80
1, 124327, Note_on_c, 7, 74, 0
1, 124327, Note_on_c, 7, 71, 100
1, 124327, Note_on_c, 7, 69, 0
1, 124327, Note_on_c, 7, 69, 100
1, 124327, Note_on_c, 7, 66, 0
1, 124327, Note_on_c, 7, 64, 100
1, 124327, Note_on_c, 7, 52, 100
1, 124327, Note_on_c, 7, 50, 0
1, 124357, Note_on_c, 7, 71, 0
1, 124357, Note_on_c, 7, 71, 100
1, 124357, Note_on_c, 7, 69, 0
1, 124357, Note_on_c, 7, 69, 100
1, 124387, Note_on_c, 7, 71, 0
1, 124387, Note_on_c, 7, 71, 100
1, 124387, Note_on_c, 7, 69, 0
1, 124387, Note_on_c, 7, 69, 100
1, 124387, Note_on_c, 7, 64, 0
1, 124387, Note_on_c, 7, 64, 100
1, 124417, Note_on_c, 7, 71, 0
1, 124417, Note_on_c, 7, 71, 100
1, 124417, Note_on_c, 7, 69, 0
1, 124417, Note_on_c, 7, 69, 100
1, 124447, Note_on_c, 7, 71, 0
1, 124447, Note_on_c, 7, 71, 100
1, 124447, Note_on_c, 7, 69, 0
1, 124447, Note_on_c, 7, 69, 100
1, 124447, Note_on_c, 7, 64, 0
1, 124447, Note_on_c, 7, 64, 100
1, 124477, Note_on_c, 7, 71, 0
1, 124477, Note_on_c, 7, 71, 100
1, 124477, Note_on_c, 7, 69, 0
1, 124477, Note_on_c, 7, 69, 100
1, 124507, Note_on_c, 3, 52, 0
1, 124507, Note_on_c, 3, 80, 127
1, 124507, Note_on_c, 4, 81, 0
1, 124507, Note_on_c, 4, 80, 80
1, 124507, Note_on_c, 5, 59, 0
1, 124507, Note_on_c, 5, 64, 80
1, 124507, Note_on_c, 5, 57, 0
1, 124507, Note_on_c, 5, 56, 80
1, 124507, Note_on_c, 7, 71, 0
1, 124507, Note_on_c, 7, 76, 100
1, 124507, Note_on_c, 7, 69, 0
1, 124507, Note_on_c, 7, 68, 100
1, 124507, Note_on_c, 7, 64, 0
1, 124507, Note_on_c, 7, 64, 100
1, 124522, Note_on_c, 3, 80, 0
1, 124522, Note_on_c, 3, 81, 127
1, 124537, Note_on_c, 3, 81, 0
1, 124537, Note_on_c, 3, 80, 127
1, 124537, Note_on_c, 7, 76, 0
1, 124537, Note_on_c, 7, 76, 100
1, 124537, Note_on_c, 7, 68, 0
1, 124537, Note_on_c, 7, 68, 100
1, 124552, Note_on_c, 3, 80, 0
1, 124552, Note_on_c, 3, 81, 127
1, 124567, Note_on_c, 3, 81, 0
1, 124567, Note_on_c, 3, 80, 127
1, 124567, Note_on_c, 7, 76, 0
1, 124567, Note_on_c, 7, 76, 100
1, 124567, Note_on_c, 7, 68, 0
1, 124567, Note_on_c, 7, 68, 100
1, 124567, Note_on_c, 7, 64, 0
1, 124567, Note_on_c, 7, 64, 100
1, 124582, Note_on_c, 3, 80, 0
1, 124582, Note_on_c, 3, 81, 127
1, 124597, Note_on_c, 3, 81, 0
1, 124597, Note_on_c, 3, 80, 127
1, 124597, Note_on_c, 7, 76, 0
1, 124597, Note_on_c, 7, 76, 100
1, 124597, Note_on_c, 7, 68, 0
1, 124597, Note_on_c, 7, 68, 100
1, 124612, Note_on_c, 3, 80, 0
1, 124612, Note_on_c, 3, 81, 127
1, 124627, Note_on_c, 3, 81, 0
1, 124627, Note_on_c, 3, 80, 127
1, 124627, Note_on_c, 7, 76, 0
1, 124627, Note_on_c, 7, 76, 100
1, 124627, Note_on_c, 7, 68, 0
1, 124627, Note_on_c, 7, 68, 100
1, 124627, Note_on_c, 7, 64, 0
1, 124627, Note_on_c, 7, 64, 100
1, 124642, Note_on_c, 3, 80, 0
1, 124642, Note_on_c, 3, 81, 127
1, 124657, Note_on_c, 3, 81, 0
1, 124657, Note_on_c, 3, 78, 127
1, 124657, Note_on_c, 7, 76, 0
1, 124657, Note_on_c, 7, 76, 100
1, 124657, Note_on_c, 7, 68, 0
1, 124657, Note_on_c, 7, 68, 100
1, 124672, Note_on_c, 3, 78, 0
1, 124672, Note_on_c, 3, 80, 127
1, 124687, Note_on_c, 3, 80, 0
1, 124687, Note_on_c, 3, 81, 127
1, 124687, Note_on_c, 4, 83, 0
1, 124687, Note_on_c, 4, 81, 80
1, 124687, Note_on_c, 4, 80, 0
1, 124687, Note_on_c, 5, 64, 0
1, 124687, Note_on_c, 5, 64, 80
1, 124687, Note_on_c, 5, 56, 0
1, 124687, Note_on_c, 5, 61, 80
1, 124687, Note_on_c, 6, 45, 80
1, 124687, Note_on_c, 6, 52, 0
1, 124687, Note_on_c, 7, 76, 0
1, 124687, Note_on_c, 7, 73, 100
1, 124687, Note_on_c, 7, 81, 100
1, 124687, Note_on_c, 7, 68, 0
1, 124687, Note_on_c, 7, 64, 0
1, 124687, Note_on_c, 7, 57, 100
1, 124687, Note_on_c, 7, 45, 100
1, 124687, Note_on_c, 7, 52, 0
1, 124687, Note_on_c, 7, 33, 100
1, 124747, Note_on_c, 7, 57, 0
1, 124747, Note_on_c, 7, 69, 100
1, 124747, Note_on_c, 7, 45, 0
1, 124747, Note_on_c, 7, 57, 100
1, 124747, Note_on_c, 7, 33, 0
1, 124747, Note_on_c, 7, 45, 100
1, 124807, Note_on_c, 3, 81, 0
1, 124807, Note_on_c, 7, 69, 0
1, 124807, Note_on_c, 7, 69, 100
1, 124807, Note_on_c, 7, 57, 0
1, 124807, Note_on_c, 7, 57, 100
1, 124807, Note_on_c, 7, 45, 0
1, 124807, Note_on_c, 7, 45, 100
1, 124867, Note_on_c, 4, 88, 80
1, 124867, Note_on_c, 4, 81, 0
1, 124867, Note_on_c, 4, 85, 80
1, 124867, Note_on_c, 6, 49, 80
1, 124867, Note_on_c, 6, 45, 0
1, 124867, Note_on_c, 7, 69, 0
1, 124867, Note_on_c, 7, 57, 0
1, 124867, Note_on_c, 7, 61, 100
1, 124867, Note_on_c, 7, 45, 0
1, 124867, Note_on_c, 7, 49, 100
1, 124987, Note_on_c, 6, 45, 80
1, 124987, Note_on_c, 6, 49, 0
1, 124987, Note_on_c, 7, 69, 100
1, 124987, Note_on_c, 7, 61, 0
1, 124987, Note_on_c, 7, 57, 100
1, 124987, Note_on_c, 7, 49, 0
1, 124987, Note_on_c, 7, 45, 100
1, 125047, Note_on_c, 4, 88, 0
1, 125047, Note_on_c, 4, 88, 80
1, 125047, Note_on_c, 4, 85, 0
1, 125047, Note_on_c, 4, 85, 80
1, 125047, Note_on_c, 5, 64, 0
1, 125047, Note_on_c, 5, 64, 80
1, 125047, Note_on_c, 5, 61, 0
1, 125047, Note_on_c, 5, 61, 80
1, 125047, Note_on_c, 6, 52, 80
1, 125047, Note_on_c, 6, 45, 0
1, 125047, Note_on_c, 6, 40, 80
1, 125047, Note_on_c, 7, 69, 0
1, 125047, Note_on_c, 7, 64, 100
1, 125047, Note_on_c, 7, 57, 0
1, 125047, Note_on_c, 7, 52, 100
1, 125047, Note_on_c, 7, 45, 0
1, 125047, Note_on_c, 7, 40, 100
1, 125107, Note_on_c, 6, 52, 0
1, 125107, Note_on_c, 6, 52, 80
1, 125107, Note_on_c, 6, 40, 0
1, 125107, Note_on_c, 6, 40, 80
1, 125107, Note_on_c, 7, 76, 100
1, 125107, Note_on_c, 7, 73, 0
1, 125107, Note_on_c, 7, 81, 0
1, 125107, Note_on_c, 7, 73, 100
1, 125107, Note_on_c, 7, 64, 0
1, 125107, Note_on_c, 7, 64, 100
1, 125107, Note_on_c, 7, 52, 0
1, 125107, Note_on_c, 7, 52, 100
1, 125107, Note_on_c, 7, 40, 0
1, 125107, Note_on_c, 7, 40, 100
1, 125137, Note_on_c, 7, 76, 0
1, 125137, Note_on_c, 7, 76, 100
1, 125137, Note_on_c, 7, 73, 0
1, 125137, Note_on_c, 7, 73, 100
1, 125167, Note_on_c, 4, 88, 0
1, 125167, Note_on_c, 4, 81, 80
1, 125167, Note_on_c, 5, 64, 0
1, 125167, Note_on_c, 5, 57, 80
1, 125167, Note_on_c, 6, 52, 0
1, 125167, Note_on_c, 6, 52, 80
1, 125167, Note_on_c, 6, 40, 0
1, 125167, Note_on_c, 6, 40, 80
1, 125167, Note_on_c, 7, 76, 0
1, 125167, Note_on_c, 7, 85, 100
1, 125167, Note_on_c, 7, 73, 0
1, 125167, Note_on_c, 7, 69, 100
1, 125167, Note_on_c, 7, 64, 0
1, 125167, Note_on_c, 7, 64, 100
1, 125167, Note_on_c, 7, 52, 0
1, 125167, Note_on_c, 7, 52, 100
1, 125167, Note_on_c, 7, 40, 0
1, 125167, Note_on_c, 7, 40, 100
1, 125197, Note_on_c, 7, 85, 0
1, 125197, Note_on_c, 7, 85, 100
1, 125197, Note_on_c, 7, 69, 0
1, 125197, Note_on_c, 7, 69, 100
1, 125227, Note_on_c, 4, 85, 0
1, 125227, Note_on_c, 4, 86, 80
1, 125227, Note_on_c, 4, 81, 0
1, 125227, Note_on_c, 4, 83, 80
1, 125227, Note_on_c, 5, 61, 0
1, 125227, Note_on_c, 5, 62, 80
1, 125227, Note_on_c, 5, 57, 0
1, 125227, Note_on_c, 5, 59, 80
1, 125227, Note_on_c, 6, 52, 0
1, 125227, Note_on_c, 6, 52, 80
1, 125227, Note_on_c, 6, 40, 0
1, 125227, Note_on_c, 6, 40, 80
1, 125227, Note_on_c, 7, 85, 0
1, 125227, Note_on_c, 7, 86, 100
1, 125227, Note_on_c, 7, 69, 0
1, 125227, Note_on_c, 7, 68, 100
1, 125227, Note_on_c, 7, 64, 0
1, 125227, Note_on_c, 7, 64, 100
1, 125227, Note_on_c, 7, 52, 0
1, 125227, Note_on_c, 7, 52, 100
1, 125227, Note_on_c, 7, 40, 0
1, 125227, Note_on_c, 7, 40, 100
1, 125257, Note_on_c, 7, 86, 0
1, 125257, Note_on_c, 7, 86, 100
1, 125257, Note_on_c, 7, 68, 0
1, 125257, Note_on_c, 7, 68, 100
1, 125287, Note_on_c, 6, 52, 0
1, 125287, Note_on_c, 6, 52, 80
1, 125287, Note_on_c, 6, 40, 0
1, 125287, Note_on_c, 6, 40, 80
1, 125287, Note_on_c, 7, 86, 0
1, 125287, Note_on_c, 7, 83, 100
1, 125287, Note_on_c, 7, 68, 0
1, 125287, Note_on_c, 7, 71, 100
1, 125287, Note_on_c, 7, 64, 0
1, 125287, Note_on_c, 7, 64, 100
1, 125287, Note_on_c, 7, 52, 0
1, 125287, Note_on_c, 7, 52, 100
1, 125287, Note_on_c, 7, 40, 0
1, 125287, Note_on_c, 7, 40, 100
1, 125317, Note_on_c, 7, 83, 0
1, 125317, Note_on_c, 7, 83, 100
1, 125317, Note_on_c, 7, 71, 0
1, 125317, Note_on_c, 7, 71, 100
1, 125347, Note_on_c, 4, 86, 0
1, 125347, Note_on_c, 4, 80, 80
1, 125347, Note_on_c, 5, 62, 0
1, 125347, Note_on_c, 5, 56, 80
1, 125347, Note_on_c, 6, 52, 0
1, 125347, Note_on_c, 6, 52, 80
1, 125347, Note_on_c, 6, 40, 0
1, 125347, Note_on_c, 6, 40, 80
1, 125347, Note_on_c, 7, 83, 0
1, 125347, Note_on_c, 7, 80, 100
1, 125347, Note_on_c, 7, 71, 0
1, 125347, Note_on_c, 7, 74, 100
1, 125347, Note_on_c, 7, 64, 0
1, 125347, Note_on_c, 7, 64, 100
1, 125347, Note_on_c, 7, 52, 0
1, 125347, Note_on_c, 7, 52, 100
1, 125347, Note_on_c, 7, 40, 0
1, 125347, Note_on_c, 7, 40, 100
1, 125377, Note_on_c, 7, 80, 0
1, 125377, Note_on_c, 7, 80, 100
1, 125377, Note_on_c, 7, 74, 0
1, 125377, Note_on_c, 7, 74, 100
1, 125407, Note_on_c, 4, 83, 0
1, 125407, Note_on_c, 4, 88, 80
1, 125407, Note_on_c, 4, 80, 0
1, 125407, Note_on_c, 4, 85, 80
1, 125407, Note_on_c, 5, 59, 0
1, 125407, Note_on_c, 5, 64, 80
1, 125407, Note_on_c, 5, 56, 0
1, 125407, Note_on_c, 5, 61, 80
1, 125407, Note_on_c, 6, 52, 0
1, 125407, Note_on_c, 6, 57, 80
1, 125407, Note_on_c, 6, 40, 0
1, 125407, Note_on_c, 6, 45, 80
1, 125407, Note_on_c, 7, 80, 0
1, 125407, Note_on_c, 7, 73, 100
1, 125407, Note_on_c, 7, 81, 100
1, 125407, Note_on_c, 7, 74, 0
1, 125407, Note_on_c, 7, 64, 0
1, 125407, Note_on_c, 7, 57, 100
1, 125407, Note_on_c, 7, 52, 0
1, 125407, Note_on_c, 7, 45, 100
1, 125407, Note_on_c, 7, 40, 0
1, 125407, Note_on_c, 7, 33, 100
1, 125467, Note_on_c, 6, 57, 0
1, 125467, Note_on_c, 6, 57, 80
1, 125467, Note_on_c, 6, 45, 0
1, 125467, Note_on_c, 6, 45, 80
1, 125467, Note_on_c, 7, 57, 0
1, 125467, Note_on_c, 7, 69, 100
1, 125467, Note_on_c, 7, 45, 0
1, 125467, Note_on_c, 7, 57, 100
1, 125467, Note_on_c, 7, 33, 0
1, 125467, Note_on_c, 7, 45, 100
1, 125527, Note_on_c, 6, 57, 0
1, 125527, Note_on_c, 6, 57, 80
1, 125527, Note_on_c, 6, 45, 0
1, 125527, Note_on_c, 6, 45, 80
1, 125527, Note_on_c, 7, 69, 0
1, 125527, Note_on_c, 7, 69, 100
1, 125527, Note_on_c, 7, 57, 0
1, 125527, Note_on_c, 7, 57, 100
1, 125527, Note_on_c, 7, 45, 0
1, 125527, Note_on_c, 7, 45, 100
1, 125587, Note_on_c, 6, 57, 0
1, 125587, Note_on_c, 6, 61, 80
1, 125587, Note_on_c, 6, 45, 0
1, 125587, Note_on_c, 6, 49, 80
1, 125587, Note_on_c, 7, 69, 0
1, 125587, Note_on_c, 7, 57, 0
1, 125587, Note_on_c, 7, 61, 100
1, 125587, Note_on_c, 7, 45, 0
1, 125587, Note_on_c, 7, 49, 100
1, 125707, Note_on_c, 6, 61, 0
1, 125707, Note_on_c, 6, 57, 80
1, 125707, Note_on_c, 6, 49, 0
1, 125707, Note_on_c, 6, 45, 80
1, 125707, Note_on_c, 7, 69, 100
1, 125707, Note_on_c, 7, 61, 0
1, 125707, Note_on_c, 7, 57, 100
1, 125707, Note_on_c, 7, 49, 0
1, 125707, Note_on_c, 7, 45, 100
1, 125767, Note_on_c, 4, 88, 0
1, 125767, Note_on_c, 4, 88, 80
1, 125767, Note_on_c, 4, 85, 0
1, 125767, Note_on_c, 4, 85, 80
1, 125767, Note_on_c, 5, 64, 0
1, 125767, Note_on_c, 5, 64, 80
1, 125767, Note_on_c, 5, 61, 0
1, 125767, Note_on_c, 5, 61, 80
1, 125767, Note_on_c, 6, 57, 0
1, 125767, Note_on_c, 6, 52, 80
1, 125767, Note_on_c, 6, 45, 0
1, 125767, Note_on_c, 6, 40, 80
1, 125767, Note_on_c, 7, 69, 0
1, 125767, Note_on_c, 7, 64, 100
1, 125767, Note_on_c, 7, 57, 0
1, 125767, Note_on_c, 7, 52, 100
1, 125767, Note_on_c, 7, 45, 0
1, 125767, Note_on_c, 7, 40, 100
1, 125827, Note_on_c, 6, 52, 0
1, 125827, Note_on_c, 6, 52, 80
1, 125827, Note_on_c, 6, 40, 0
1, 125827, Note_on_c, 6, 40, 80
1, 125827, Note_on_c, 7, 76, 100
1, 125827, Note_on_c, 7, 73, 0
1, 125827, Note_on_c, 7, 81, 0
1, 125827, Note_on_c, 7, 73, 100
1, 125827, Note_on_c, 7, 64, 0
1, 125827, Note_on_c, 7, 64, 100
1, 125827, Note_on_c, 7, 52, 0
1, 125827, Note_on_c, 7, 52, 100
1, 125827, Note_on_c, 7, 40, 0
1, 125827, Note_on_c, 7, 40, 100
1, 125857, Note_on_c, 7, 76, 0
1, 125857, Note_on_c, 7, 76, 100
1, 125857, Note_on_c, 7, 73, 0
1, 125857, Note_on_c, 7, 73, 100
1, 125887, Note_on_c, 4, 88, 0
1, 125887, Note_on_c, 4, 81, 80
1, 125887, Note_on_c, 5, 64, 0
1, 125887, Note_on_c, 5, 57, 80
1, 125887, Note_on_c, 6, 52, 0
1, 125887, Note_on_c, 6, 52, 80
1, 125887, Note_on_c, 6, 40, 0
1, 125887, Note_on_c, 6, 40, 80
1, 125887, Note_on_c, 7, 76, 0
1, 125887, Note_on_c, 7, 85, 100
1, 125887, Note_on_c, 7, 73, 0
1, 125887, Note_on_c, 7, 69, 100
1, 125887, Note_on_c, 7, 64, 0
1, 125887, Note_on_c, 7, 64, 100
1, 125887, Note_on_c, 7, 52, 0
1, 125887, Note_on_c, 7, 52, 100
1, 125887, Note_on_c, 7, 40, 0
1, 125887, Note_on_c, 7, 40, 100
1, 125917, Note_on_c, 7, 85, 0
1, 125917, Note_on_c, 7, 85, 100
1, 125917, Note_on_c, 7, 69, 0
1, 125917, Note_on_c, 7, 69, 100
1, 125947, Note_on_c, 4, 85, 0
1, 125947, Note_on_c, 4, 86, 80
1, 125947, Note_on_c, 4, 81, 0
1, 125947, Note_on_c, 4, 83, 80
1, 125947, Note_on_c, 5, 61, 0
1, 125947, Note_on_c, 5, 62, 80
1, 125947, Note_on_c, 5, 57, 0
1, 125947, Note_on_c, 5, 59, 80
1, 125947, Note_on_c, 6, 52, 0
1, 125947, Note_on_c, 6, 52, 80
1, 125947, Note_on_c, 6, 40, 0
1, 125947, Note_on_c, 6, 40, 80
1, 125947, Note_on_c, 7, 85, 0
1, 125947, Note_on_c, 7, 86, 100
1, 125947, Note_on_c, 7, 69, 0
1, 125947, Note_on_c, 7, 68, 100
1, 125947, Note_on_c, 7, 64, 0
1, 125947, Note_on_c, 7, 64, 100
1, 125947, Note_on_c, 7, 52, 0
1, 125947, Note_on_c, 7, 52, 100
1, 125947, Note_on_c, 7, 40, 0
1, 125947, Note_on_c, 7, 40, 100
1, 125977, Note_on_c, 7, 86, 0
1, 125977, Note_on_c, 7, 86, 100
1, 125977, Note_on_c, 7, 68, 0
1, 125977, Note_on_c, 7, 68, 100
1, 126007, Note_on_c, 6, 52, 0
1, 126007, Note_on_c, 6, 52, 80
1, 126007, Note_on_c, 6, 40, 0
1, 126007, Note_on_c, 6, 40, 80
1, 126007, Note_on_c, 7, 86, 0
1, 126007, Note_on_c, 7, 83, 100
1, 126007, Note_on_c, 7, 68, 0
1, 126007, Note_on_c, 7, 71, 100
1, 126007, Note_on_c, 7, 64, 0
1, 126007, Note_on_c, 7, 64, 100
1, 126007, Note_on_c, 7, 52, 0
1, 126007, Note_on_c, 7, 52, 100
1, 126007, Note_on_c, 7, 40, 0
1, 126007, Note_on_c, 7, 40, 100
1, 126037, Note_on_c, 7, 83, 0
1, 126037, Note_on_c, 7, 83, 100
1, 126037, Note_on_c, 7, 71, 0
1, 126037, Note_on_c, 7, 71, 100
1, 126067, Note_on_c, 4, 86, 0
1, 126067, Note_on_c, 4, 80, 80
1, 126067, Note_on_c, 5, 62, 0
1, 126067, Note_on_c, 5, 56, 80
1, 126067, Note_on_c, 6, 52, 0
1, 126067, Note_on_c, 6, 52, 80
1, 126067, Note_on_c, 6, 40, 0
1, 126067, Note_on_c, 6, 40, 80
1, 126067, Note_on_c, 7, 83, 0
1, 126067, Note_on_c, 7, 80, 100
1, 126067, Note_on_c, 7, 71, 0
1, 126067, Note_on_c, 7, 74, 100
1, 126067, Note_on_c, 7, 64, 0
1, 126067, Note_on_c, 7, 64, 100
1, 126067, Note_on_c, 7, 52, 0
1, 126067, Note_on_c, 7, 52, 100
1, 126067, Note_on_c, 7, 40, 0
1, 126067, Note_on_c, 7, 40, 100
1, 126097, Note_on_c, 7, 80, 0
1, 126097, Note_on_c, 7, 80, 100
1, 126097, Note_on_c, 7, 74, 0
1, 126097, Note_on_c, 7, 74, 100
1, 126127, Note_on_c, 4, 83, 0
1, 126127, Note_on_c, 4, 81, 80
1, 126127, Note_on_c, 4, 80, 0
1, 126127, Note_on_c, 5, 59, 0
1, 126127, Note_on_c, 5, 57, 80
1, 126127, Note_on_c, 5, 56, 0
1, 126127, Note_on_c, 6, 52, 0
1, 126127, Note_on_c, 6, 52, 80
1, 126127, Note_on_c, 6, 40, 0
1, 126127, Note_on_c, 6, 45, 80
1, 126127, Note_on_c, 7, 80, 0
1, 126127, Note_on_c, 7, 81, 100
1, 126127, Note_on_c, 7, 74, 0
1, 126127, Note_on_c, 7, 73, 100
1, 126127, Note_on_c, 7, 64, 0
1, 126127, Note_on_c, 7, 57, 100
1, 126127, Note_on_c, 7, 52, 0
1, 126127, Note_on_c, 7, 45, 100
1, 126127, Note_on_c, 7, 40, 0
1, 126127, Note_on_c, 7, 33, 100
1, 126157, Note_on_c, 7, 81, 0
1, 126157, Note_on_c, 7, 81, 100
1, 126187, Note_on_c, 7, 81, 0
1, 126187, Note_on_c, 7, 85, 100
1, 126187, Note_on_c, 7, 73, 0
1, 126247, Note_on_c, 4, 81, 0
1, 126247, Note_on_c, 5, 57, 0
1, 126247, Note_on_c, 6, 52, 0
1, 126247, Note_on_c, 6, 45, 0
1, 126247, Note_on_c, 7, 76, 100
1, 126247, Note_on_c, 7, 85, 0
1, 126247, Note_on_c, 7, 57, 0
1, 126247, Note_on_c, 7, 45, 0
1, 126247, Note_on_c, 7, 33, 0
1, 126307, Note_on_c, 7, 81, 100
1, 126307, Note_on_c, 7, 76, 0
1, 126367, Note_on_c, 7, 73, 100
1, 126367, Note_on_c, 7, 81, 0
1, 126427, Note_on_c, 4, 88, 80
1, 126427, Note_on_c, 5, 64, 80
1, 126427, Note_on_c, 6, 45, 80
1, 126427, Note_on_c, 7, 76, 100
1, 126427, Note_on_c, 7, 73, 0
1, 126427, Note_on_c, 7, 64, 100
1, 126427, Note_on_c, 7, 52, 100
1, 126457, Note_on_c, 4, 88, 0
1, 126457, Note_on_c, 5, 64, 0
1, 126457, Note_on_c, 6, 45, 0
1, 126457, Note_on_c, 7, 64, 0
1, 126457, Note_on_c, 7, 52, 0
1, 126487, Note_on_c, 4, 81, 80
1, 126487, Note_on_c, 5, 57, 80
1, 126487, Note_on_c, 6, 57, 80
1, 126487, Note_on_c, 7, 69, 100
1, 126487, Note_on_c, 7, 76, 0
1, 126487, Note_on_c, 7, 57, 100
1, 126487, Note_on_c, 7, 45, 100
1, 126517, Note_on_c, 4, 81, 0
1, 126517, Note_on_c, 5, 57, 0
1, 126517, Note_on_c, 6, 57, 0
1, 126517, Note_on_c, 7, 57, 0
1, 126517, Note_on_c, 7, 45, 0
1, 126547, Note_on_c, 4, 85, 80
1, 126547, Note_on_c, 5, 61, 80
1, 126547, Note_on_c, 6, 61, 80
1, 126547, Note_on_c, 7, 73, 100
1, 126547, Note_on_c, 7, 69, 0
1, 126547, Note_on_c, 7, 61, 100
1, 126547, Note_on_c, 7, 49, 100
1, 126577, Note_on_c, 4, 85, 0
1, 126577, Note_on_c, 5, 61, 0
1, 126577, Note_on_c, 6, 61, 0
1, 126577, Note_on_c, 7, 61, 0
1, 126577, Note_on_c, 7, 49, 0
1, 126607, Note_on_c, 4, 76, 80
1, 126607, Note_on_c, 5, 52, 80
1, 126607, Note_on_c, 6, 52, 80
1, 126607, Note_on_c, 7, 64, 100
1, 126607, Note_on_c, 7, 73, 0
1, 126607, Note_on_c, 7, 52, 100
1, 126607, Note_on_c, 7, 40, 100
1, 126637, Note_on_c, 4, 76, 0
1, 126637, Note_on_c, 5, 52, 0
1, 126637, Note_on_c, 6, 52, 0
1, 126637, Note_on_c, 7, 52, 0
1, 126637, Note_on_c, 7, 40, 0
1, 126667, Note_on_c, 4, 81, 80
1, 126667, Note_on_c, 5, 57, 80
1, 126667, Note_on_c, 6, 57, 80
1, 126667, Note_on_c, 7, 69, 100
1, 126667, Note_on_c, 7, 64, 0
1, 126667, Note_on_c, 7, 57, 100
1, 126667, Note_on_c, 7, 45, 100
1, 126697, Note_on_c, 4, 81, 0
1, 126697, Note_on_c, 5, 57, 0
1, 126697, Note_on_c, 6, 57, 0
1, 126697, Note_on_c, 7, 57, 0
1, 126697, Note_on_c, 7, 45, 0
1, 126727, Note_on_c, 4, 73, 80
1, 126727, Note_on_c, 5, 49, 80
1, 126727, Note_on_c, 6, 49, 80
1, 126727, Note_on_c, 7, 61, 100
1, 126727, Note_on_c, 7, 69, 0
1, 126727, Note_on_c, 7, 49, 100
1, 126727, Note_on_c, 7, 37, 100
1, 126757, Note_on_c, 4, 73, 0
1, 126757, Note_on_c, 5, 49, 0
1, 126757, Note_on_c, 6, 49, 0
1, 126757, Note_on_c, 7, 49, 0
1, 126757, Note_on_c, 7, 37, 0
1, 126787, Note_on_c, 4, 76, 80
1, 126787, Note_on_c, 5, 52, 80
1, 126787, Note_on_c, 6, 52, 80
1, 126787, Note_on_c, 7, 64, 100
1, 126787, Note_on_c, 7, 61, 0
1, 126787, Note_on_c, 7, 52, 100
1, 126787, Note_on_c, 7, 40, 100
1, 126817, Note_on_c, 4, 76, 0
1, 126817, Note_on_c, 5, 52, 0
1, 126817, Note_on_c, 6, 52, 0
1, 126817, Note_on_c, 7, 52, 0
1, 126817, Note_on_c, 7, 40, 0
1, 126847, Note_on_c, 4, 69, 80
1, 126847, Note_on_c, 5, 45, 80
1, 126847, Note_on_c, 6, 45, 80
1, 126847, Note_on_c, 7, 57, 100
1, 126847, Note_on_c, 7, 64, 0
1, 126847, Note_on_c, 7, 45, 100
1, 126847, Note_on_c, 7, 33, 100
1, 126967, Note_on_c, 4, 69, 0
1, 126967, Note_on_c, 5, 45, 0
1, 126967, Note_on_c, 6, 45, 0
1, 126967, Note_on_c, 7, 57, 0
1, 126967, Note_on_c, 7, 45, 0
1, 126967, Note_on_c, 7, 33, 0
1, 127027, Note_on_c, 4, 88, 80
1, 127027, Note_on_c, 4, 85, 80
1, 127027, Note_on_c, 5, 57, 80
1, 127027, Note_on_c, 5, 45, 80
1, 127027, Note_on_c, 6, 52, 80
1, 127027, Note_on_c, 6, 49, 80
1, 127027, Note_on_c, 7, 69, 100
1, 127027, Note_on_c, 7, 73, 100
1, 127027, Note_on_c, 7, 76, 100
1, 127027, Note_on_c, 7, 57, 100
1, 127027, Note_on_c, 7, 45, 100
1, 127147, Note_on_c, 4, 88, 0
1, 127147, Note_on_c, 4, 85, 0
1, 127147, Note_on_c, 5, 57, 0
1, 127147, Note_on_c, 5, 45, 0
1, 127147, Note_on_c, 6, 52, 0
1, 127147, Note_on_c, 6, 49, 0
1, 127147, Note_on_c, 7, 73, 0
1, 127147, Note_on_c, 7, 76, 0
1, 127147, Note_on_c, 7, 69, 0
1, 127147, Note_on_c, 7, 57, 0
1, 127147, Note_on_c, 7, 45, 0
1, 127207, Note_on_c, 4, 85, 80
1, 127207, Note_on_c, 4, 81, 80
1, 127207, Note_on_c, 5, 57, 80
1, 127207, Note_on_c, 5, 45, 80
1, 127207, Note_on_c, 6, 49, 80
1, 127207, Note_on_c, 6, 45, 80
1, 127207, Note_on_c, 7, 64, 100
1, 127207, Note_on_c, 7, 73, 100
1, 127207, Note_on_c, 7, 81, 100
1, 127207, Note_on_c, 7, 57, 100
1, 127207, Note_on_c, 7, 45, 100
1, 127207, Note_on_c, 7, 33, 100
1, 127327, Note_on_c, 4, 85, 0
1, 127327, Note_on_c, 4, 81, 0
1, 127327, Note_on_c, 5, 57, 0
1, 127327, Note_on_c, 5, 45, 0
1, 127327, Note_on_c, 6, 49, 0
1, 127327, Note_on_c, 6, 45, 0
1, 127327, Note_on_c, 7, 64, 0
1, 127327, Note_on_c, 7, 73, 0
1, 127327, Note_on_c, 7, 81, 0
1, 127327, Note_on_c, 7, 57, 0
1, 127327, Note_on_c, 7, 45, 0
1, 127327, Note_on_c, 7, 33, 0
1, 127567, End_track
0, 0, End_of_file