0, 0, Header, 1, 36, 480
1, 0, Start_track
1, 0, Title_t, "Allegro moderato\000                                               "
1, 0, Tempo, 517241
1, 0, Key_signature, -3, "major"
1, 0, Time_signature, 4, 2, 24, 8
1, 295680, Tempo, 1034482
1, 297120, Tempo, 517241
1, 297600, Tempo, 618556
1, 316320, Tempo, 2000000
1, 316800, Tempo, 618556
1, 320640, Tempo, 833333
1, 322560, Tempo, 517241
1, 361240, Tempo, 689655
1, 361960, Tempo, 697674
1, 362020, Tempo, 833333
1, 364660, Tempo, 276497
1, 364800, End_track
2, 0, Start_track
2, 0, Title_t, "Oboe I, II                          "
2, 0, Control_c, 0, 7, 70
2, 160, Control_c, 0, 91, 100
2, 320, Control_c, 0, 93, 10
2, 480, Control_c, 0, 10, 20
2, 640, Control_c, 0, 0, 0
2, 640, Control_c, 0, 32, 0
2, 640, Program_c, 0, 68
2, 800, Control_c, 0, 121, 0
2, 960, Pitch_bend_c, 0, 8192
2, 1120, Control_c, 0, 1, 0
2, 1280, Control_c, 0, 11, 127
2, 1440, Control_c, 0, 65, 0
2, 1600, Control_c, 0, 66, 0
2, 1760, Control_c, 0, 67, 0
2, 1920, Note_on_c, 0, 75, 86
2, 1920, Note_on_c, 0, 67, 86
2, 3550, Note_on_c, 0, 75, 0
2, 3550, Note_on_c, 0, 67, 0
2, 3840, Note_on_c, 0, 79, 86
2, 3840, Note_on_c, 0, 70, 86
2, 5470, Note_on_c, 0, 79, 0
2, 5470, Note_on_c, 0, 70, 0
2, 5760, Note_on_c, 0, 82, 86
2, 5760, Note_on_c, 0, 79, 86
2, 7440, Note_on_c, 0, 82, 0
2, 7440, Note_on_c, 0, 79, 0
2, 7440, Note_on_c, 0, 79, 86
2, 7440, Note_on_c, 0, 75, 86
2, 7680, Note_on_c, 0, 79, 0
2, 7680, Note_on_c, 0, 75, 0
2, 7680, Note_on_c, 0, 77, 86
2, 7680, Note_on_c, 0, 74, 86
2, 8400, Note_on_c, 0, 77, 0
2, 8400, Note_on_c, 0, 74, 0
2, 8400, Note_on_c, 0, 79, 86
2, 8400, Note_on_c, 0, 75, 86
2, 8520, Note_on_c, 0, 79, 0
2, 8520, Note_on_c, 0, 75, 0
2, 8520, Note_on_c, 0, 80, 86
2, 8520, Note_on_c, 0, 77, 86
2, 8620, Note_on_c, 0, 80, 0
2, 8620, Note_on_c, 0, 77, 0
2, 8640, Note_on_c, 0, 79, 86
2, 8640, Note_on_c, 0, 75, 86
2, 8840, Note_on_c, 0, 79, 0
2, 8840, Note_on_c, 0, 75, 0
2, 8880, Note_on_c, 0, 79, 86
2, 8880, Note_on_c, 0, 75, 86
2, 9120, Note_on_c, 0, 79, 0
2, 9120, Note_on_c, 0, 80, 86
2, 9360, Note_on_c, 0, 80, 0
2, 9360, Note_on_c, 0, 75, 0
2, 9360, Note_on_c, 0, 82, 86
2, 9360, Note_on_c, 0, 75, 86
2, 9600, Note_on_c, 0, 82, 0
2, 9600, Note_on_c, 0, 75, 0
2, 9600, Note_on_c, 0, 84, 86
2, 9600, Note_on_c, 0, 75, 86
2, 11230, Note_on_c, 0, 84, 0
2, 11230, Note_on_c, 0, 75, 0
2, 11520, Note_on_c, 0, 82, 86
2, 11520, Note_on_c, 0, 79, 86
2, 13150, Note_on_c, 0, 82, 0
2, 13150, Note_on_c, 0, 79, 0
2, 13440, Note_on_c, 0, 80, 86
2, 13440, Note_on_c, 0, 72, 86
2, 14250, Note_on_c, 0, 72, 0
2, 14400, Note_on_c, 0, 74, 86
2, 15010, Note_on_c, 0, 74, 0
2, 15070, Note_on_c, 0, 80, 0
2, 15120, Note_on_c, 0, 77, 86
2, 15320, Note_on_c, 0, 77, 0
2, 15360, Note_on_c, 0, 79, 86
2, 15360, Note_on_c, 0, 75, 86
2, 15760, Note_on_c, 0, 79, 0
2, 15760, Note_on_c, 0, 75, 0
2, 15840, Note_on_c, 0, 77, 86
2, 15840, Note_on_c, 0, 74, 86
2, 16240, Note_on_c, 0, 77, 0
2, 16240, Note_on_c, 0, 74, 0
2, 16320, Note_on_c, 0, 82, 86
2, 16320, Note_on_c, 0, 70, 86
2, 16720, Note_on_c, 0, 70, 0
2, 16800, Note_on_c, 0, 75, 86
2, 17130, Note_on_c, 0, 82, 0
2, 17280, Note_on_c, 0, 80, 86
2, 17680, Note_on_c, 0, 80, 0
2, 17680, Note_on_c, 0, 75, 0
2, 17760, Note_on_c, 0, 79, 86
2, 17760, Note_on_c, 0, 74, 86
2, 18160, Note_on_c, 0, 79, 0
2, 18160, Note_on_c, 0, 74, 0
2, 18240, Note_on_c, 0, 77, 86
2, 18240, Note_on_c, 0, 72, 86
2, 18640, Note_on_c, 0, 77, 0
2, 18720, Note_on_c, 0, 75, 86
2, 19050, Note_on_c, 0, 72, 0
2, 19120, Note_on_c, 0, 75, 0
2, 19200, Note_on_c, 0, 74, 86
2, 19200, Note_on_c, 0, 70, 86
2, 19400, Note_on_c, 0, 74, 0
2, 19400, Note_on_c, 0, 70, 0
2, 19440, Note_on_c, 0, 77, 86
2, 19440, Note_on_c, 0, 74, 86
2, 19640, Note_on_c, 0, 77, 0
2, 19640, Note_on_c, 0, 74, 0
2, 19680, Note_on_c, 0, 77, 86
2, 19680, Note_on_c, 0, 74, 86
2, 19880, Note_on_c, 0, 77, 0
2, 19880, Note_on_c, 0, 74, 0
2, 19920, Note_on_c, 0, 77, 86
2, 19920, Note_on_c, 0, 74, 86
2, 20120, Note_on_c, 0, 77, 0
2, 20120, Note_on_c, 0, 74, 0
2, 20400, Note_on_c, 0, 79, 86
2, 20400, Note_on_c, 0, 75, 86
2, 20600, Note_on_c, 0, 79, 0
2, 20600, Note_on_c, 0, 75, 0
2, 20640, Note_on_c, 0, 79, 86
2, 20640, Note_on_c, 0, 75, 86
2, 20840, Note_on_c, 0, 79, 0
2, 20840, Note_on_c, 0, 75, 0
2, 20880, Note_on_c, 0, 79, 86
2, 20880, Note_on_c, 0, 75, 86
2, 21080, Note_on_c, 0, 79, 0
2, 21080, Note_on_c, 0, 75, 0
2, 21360, Note_on_c, 0, 77, 86
2, 21360, Note_on_c, 0, 74, 86
2, 21560, Note_on_c, 0, 77, 0
2, 21560, Note_on_c, 0, 74, 0
2, 21600, Note_on_c, 0, 77, 86
2, 21600, Note_on_c, 0, 74, 86
2, 21800, Note_on_c, 0, 77, 0
2, 21800, Note_on_c, 0, 74, 0
2, 21840, Note_on_c, 0, 77, 86
2, 21840, Note_on_c, 0, 74, 86
2, 22040, Note_on_c, 0, 77, 0
2, 22040, Note_on_c, 0, 74, 0
2, 22320, Note_on_c, 0, 79, 86
2, 22320, Note_on_c, 0, 75, 86
2, 22520, Note_on_c, 0, 79, 0
2, 22520, Note_on_c, 0, 75, 0
2, 22560, Note_on_c, 0, 79, 86
2, 22560, Note_on_c, 0, 75, 86
2, 22760, Note_on_c, 0, 79, 0
2, 22760, Note_on_c, 0, 75, 0
2, 22800, Note_on_c, 0, 79, 86
2, 22800, Note_on_c, 0, 75, 86
2, 23000, Note_on_c, 0, 79, 0
2, 23000, Note_on_c, 0, 75, 0
2, 23040, Note_on_c, 0, 77, 86
2, 23040, Note_on_c, 0, 74, 86
2, 23240, Note_on_c, 0, 77, 0
2, 23240, Note_on_c, 0, 74, 0
2, 23280, Note_on_c, 0, 82, 86
2, 23480, Note_on_c, 0, 82, 0
2, 23520, Note_on_c, 0, 70, 86
2, 23720, Note_on_c, 0, 70, 0
2, 23760, Note_on_c, 0, 70, 86
2, 23960, Note_on_c, 0, 70, 0
2, 24000, Note_on_c, 0, 70, 86
2, 24400, Note_on_c, 0, 70, 0
2, 28800, Note_on_c, 0, 70, 64
2, 28800, Note_on_c, 0, 79, 64
2, 29610, Note_on_c, 0, 79, 0
2, 29760, Note_on_c, 0, 80, 64
2, 30000, Note_on_c, 0, 80, 0
2, 30000, Note_on_c, 0, 77, 64
2, 30240, Note_on_c, 0, 77, 0
2, 30240, Note_on_c, 0, 75, 64
2, 30480, Note_on_c, 0, 75, 0
2, 30480, Note_on_c, 0, 74, 64
2, 30720, Note_on_c, 0, 74, 0
2, 30720, Note_on_c, 0, 75, 64
2, 30960, Note_on_c, 0, 75, 0
2, 30960, Note_on_c, 0, 79, 64
2, 31160, Note_on_c, 0, 79, 0
2, 31200, Note_on_c, 0, 70, 0
2, 31200, Note_on_c, 0, 82, 64
2, 31200, Note_on_c, 0, 79, 64
2, 31600, Note_on_c, 0, 79, 0
2, 31680, Note_on_c, 0, 77, 64
2, 31810, Note_on_c, 0, 82, 0
2, 31920, Note_on_c, 0, 84, 64
2, 32080, Note_on_c, 0, 77, 0
2, 32120, Note_on_c, 0, 84, 0
2, 32160, Note_on_c, 0, 77, 64
2, 32160, Note_on_c, 0, 74, 64
2, 32360, Note_on_c, 0, 77, 0
2, 32400, Note_on_c, 0, 80, 64
2, 32560, Note_on_c, 0, 74, 0
2, 32600, Note_on_c, 0, 80, 0
2, 32640, Note_on_c, 0, 79, 64
2, 32640, Note_on_c, 0, 75, 64
2, 34270, Note_on_c, 0, 79, 0
2, 34270, Note_on_c, 0, 75, 0
2, 34560, Note_on_c, 0, 80, 64
2, 34560, Note_on_c, 0, 77, 64
2, 36190, Note_on_c, 0, 80, 0
2, 36190, Note_on_c, 0, 77, 0
2, 36480, Note_on_c, 0, 82, 64
2, 36480, Note_on_c, 0, 79, 64
2, 38110, Note_on_c, 0, 82, 0
2, 38110, Note_on_c, 0, 79, 0
2, 38400, Control_c, 0, 11, 94
2, 38400, Note_on_c, 0, 84, 86
2, 38400, Note_on_c, 0, 80, 86
2, 38880, Control_c, 0, 11, 94
2, 39000, Control_c, 0, 11, 94
2, 39120, Control_c, 0, 11, 95
2, 39210, Note_on_c, 0, 84, 0
2, 39210, Note_on_c, 0, 80, 0
2, 39240, Control_c, 0, 11, 95
2, 39360, Control_c, 0, 11, 97
2, 39360, Note_on_c, 0, 68, 86
2, 39360, Note_on_c, 0, 74, 86
2, 39480, Control_c, 0, 11, 97
2, 39600, Control_c, 0, 11, 98
2, 39720, Control_c, 0, 11, 98
2, 39840, Control_c, 0, 11, 100
2, 39960, Control_c, 0, 11, 100
2, 40080, Control_c, 0, 11, 101
2, 40170, Note_on_c, 0, 68, 0
2, 40170, Note_on_c, 0, 74, 0
2, 40200, Control_c, 0, 11, 101
2, 40320, Note_on_c, 0, 75, 86
2, 40320, Note_on_c, 0, 67, 86
2, 40320, Control_c, 0, 11, 103
2, 40440, Control_c, 0, 11, 103
2, 40560, Control_c, 0, 11, 104
2, 40680, Control_c, 0, 11, 104
2, 40800, Note_on_c, 0, 75, 0
2, 40800, Note_on_c, 0, 67, 0
2, 40800, Note_on_c, 0, 77, 86
2, 40800, Note_on_c, 0, 74, 86
2, 40800, Control_c, 0, 11, 106
2, 40920, Control_c, 0, 11, 106
2, 41040, Control_c, 0, 11, 107
2, 41160, Control_c, 0, 11, 107
2, 41280, Note_on_c, 0, 77, 0
2, 41280, Note_on_c, 0, 74, 0
2, 41280, Note_on_c, 0, 79, 86
2, 41280, Note_on_c, 0, 75, 86
2, 41280, Control_c, 0, 11, 109
2, 41400, Control_c, 0, 11, 110
2, 41520, Control_c, 0, 11, 110
2, 41640, Control_c, 0, 11, 112
2, 41760, Note_on_c, 0, 79, 0
2, 41760, Note_on_c, 0, 75, 0
2, 41760, Note_on_c, 0, 80, 86
2, 41760, Note_on_c, 0, 77, 86
2, 41760, Control_c, 0, 11, 112
2, 41880, Control_c, 0, 11, 113
2, 42000, Control_c, 0, 11, 113
2, 42120, Control_c, 0, 11, 115
2, 42240, Note_on_c, 0, 80, 0
2, 42240, Note_on_c, 0, 77, 0
2, 42240, Note_on_c, 0, 82, 86
2, 42240, Note_on_c, 0, 79, 86
2, 42240, Control_c, 0, 11, 115
2, 42360, Control_c, 0, 11, 116
2, 42480, Control_c, 0, 11, 116
2, 42600, Control_c, 0, 11, 118
2, 42640, Note_on_c, 0, 82, 0
2, 42640, Note_on_c, 0, 79, 0
2, 42720, Note_on_c, 0, 79, 86
2, 42720, Note_on_c, 0, 71, 86
2, 42720, Control_c, 0, 11, 118
2, 42840, Control_c, 0, 11, 119
2, 42960, Control_c, 0, 11, 119
2, 43080, Control_c, 0, 11, 121
2, 43120, Note_on_c, 0, 79, 0
2, 43120, Note_on_c, 0, 71, 0
2, 43200, Note_on_c, 0, 80, 86
2, 43200, Note_on_c, 0, 72, 86
2, 43200, Control_c, 0, 11, 121
2, 43320, Control_c, 0, 11, 122
2, 43440, Control_c, 0, 11, 122
2, 43560, Control_c, 0, 11, 124
2, 43600, Note_on_c, 0, 72, 0
2, 43680, Note_on_c, 0, 74, 86
2, 43680, Control_c, 0, 11, 124
2, 43800, Control_c, 0, 11, 125
2, 43920, Control_c, 0, 11, 125
2, 44010, Note_on_c, 0, 80, 0
2, 44040, Control_c, 0, 11, 127
2, 44080, Note_on_c, 0, 74, 0
2, 44160, Note_on_c, 0, 75, 86
2, 44160, Note_on_c, 0, 79, 86
2, 45790, Note_on_c, 0, 79, 0
2, 46080, Note_on_c, 0, 80, 86
2, 46890, Note_on_c, 0, 80, 0
2, 47040, Note_on_c, 0, 84, 86
2, 47710, Note_on_c, 0, 75, 0
2, 47850, Note_on_c, 0, 84, 0
2, 48000, Note_on_c, 0, 82, 86
2, 48000, Note_on_c, 0, 79, 86
2, 48810, Note_on_c, 0, 82, 0
2, 48810, Note_on_c, 0, 79, 0
2, 48960, Note_on_c, 0, 79, 86
2, 48960, Note_on_c, 0, 75, 86
2, 49360, Note_on_c, 0, 79, 0
2, 49360, Note_on_c, 0, 75, 0
2, 49440, Note_on_c, 0, 77, 86
2, 49440, Note_on_c, 0, 74, 86
2, 49840, Note_on_c, 0, 77, 0
2, 49840, Note_on_c, 0, 74, 0
2, 49920, Note_on_c, 0, 82, 86
2, 49920, Note_on_c, 0, 75, 86
2, 50730, Note_on_c, 0, 82, 0
2, 50730, Note_on_c, 0, 75, 0
2, 50880, Note_on_c, 0, 73, 86
2, 50880, Note_on_c, 0, 70, 86
2, 51690, Note_on_c, 0, 73, 0
2, 51690, Note_on_c, 0, 70, 0
2, 51840, Note_on_c, 0, 72, 86
2, 51840, Note_on_c, 0, 68, 86
2, 52650, Note_on_c, 0, 72, 0
2, 52650, Note_on_c, 0, 68, 0
2, 52800, Note_on_c, 0, 84, 86
2, 52800, Note_on_c, 0, 78, 86
2, 53610, Note_on_c, 0, 84, 0
2, 53610, Note_on_c, 0, 78, 0
2, 53760, Note_on_c, 0, 82, 86
2, 53760, Note_on_c, 0, 79, 86
2, 53960, Note_on_c, 0, 82, 0
2, 53960, Note_on_c, 0, 79, 0
2, 54000, Note_on_c, 0, 79, 86
2, 54000, Note_on_c, 0, 75, 86
2, 54200, Note_on_c, 0, 79, 0
2, 54200, Note_on_c, 0, 75, 0
2, 54240, Note_on_c, 0, 79, 86
2, 54240, Note_on_c, 0, 75, 86
2, 54640, Note_on_c, 0, 79, 0
2, 54640, Note_on_c, 0, 75, 0
2, 54960, Note_on_c, 0, 79, 86
2, 54960, Note_on_c, 0, 75, 86
2, 55160, Note_on_c, 0, 79, 0
2, 55160, Note_on_c, 0, 75, 0
2, 55200, Note_on_c, 0, 79, 86
2, 55200, Note_on_c, 0, 75, 86
2, 55600, Note_on_c, 0, 79, 0
2, 55600, Note_on_c, 0, 75, 0
2, 55920, Note_on_c, 0, 79, 86
2, 55920, Note_on_c, 0, 75, 86
2, 56120, Note_on_c, 0, 79, 0
2, 56120, Note_on_c, 0, 75, 0
2, 56160, Note_on_c, 0, 79, 86
2, 56160, Note_on_c, 0, 75, 86
2, 56360, Note_on_c, 0, 79, 0
2, 56360, Note_on_c, 0, 75, 0
2, 56640, Note_on_c, 0, 79, 86
2, 56640, Note_on_c, 0, 75, 86
2, 56840, Note_on_c, 0, 79, 0
2, 56840, Note_on_c, 0, 75, 0
2, 57120, Note_on_c, 0, 79, 86
2, 57120, Note_on_c, 0, 75, 86
2, 57320, Note_on_c, 0, 79, 0
2, 57320, Note_on_c, 0, 75, 0
2, 57600, Note_on_c, 0, 79, 86
2, 57600, Note_on_c, 0, 75, 86
2, 57800, Note_on_c, 0, 79, 0
2, 57800, Note_on_c, 0, 75, 0
2, 58080, Note_on_c, 0, 70, 86
2, 58480, Note_on_c, 0, 70, 0
2, 58560, Note_on_c, 0, 75, 86
2, 58560, Note_on_c, 0, 63, 86
2, 58960, Note_on_c, 0, 75, 0
2, 58960, Note_on_c, 0, 63, 0
2, 59040, Note_on_c, 0, 79, 86
2, 59040, Note_on_c, 0, 67, 86
2, 59440, Note_on_c, 0, 79, 0
2, 59440, Note_on_c, 0, 67, 0
2, 59520, Note_on_c, 0, 79, 86
2, 59520, Note_on_c, 0, 75, 86
2, 59920, Note_on_c, 0, 79, 0
2, 59920, Note_on_c, 0, 75, 0
2, 60000, Note_on_c, 0, 79, 86
2, 60000, Note_on_c, 0, 75, 86
2, 60300, Note_on_c, 0, 79, 0
2, 60300, Note_on_c, 0, 75, 0
2, 60360, Note_on_c, 0, 79, 86
2, 60360, Note_on_c, 0, 75, 86
2, 60460, Note_on_c, 0, 79, 0
2, 60460, Note_on_c, 0, 75, 0
2, 60480, Note_on_c, 0, 77, 86
2, 60480, Note_on_c, 0, 74, 86
2, 60880, Note_on_c, 0, 77, 0
2, 60880, Note_on_c, 0, 74, 0
2, 60960, Note_on_c, 0, 77, 86
2, 60960, Note_on_c, 0, 74, 86
2, 61260, Note_on_c, 0, 77, 0
2, 61260, Note_on_c, 0, 74, 0
2, 61320, Note_on_c, 0, 77, 86
2, 61320, Note_on_c, 0, 74, 86
2, 61420, Note_on_c, 0, 77, 0
2, 61420, Note_on_c, 0, 74, 0
2, 61440, Note_on_c, 0, 75, 86
2, 61840, Note_on_c, 0, 75, 0
2, 70080, Note_on_c, 0, 79, 64
2, 70560, Note_on_c, 0, 79, 0
2, 70560, Note_on_c, 0, 75, 64
2, 71040, Note_on_c, 0, 75, 0
2, 71040, Note_on_c, 0, 80, 64
2, 71650, Note_on_c, 0, 80, 0
2, 71760, Note_on_c, 0, 77, 64
2, 71960, Note_on_c, 0, 77, 0
2, 72000, Note_on_c, 0, 75, 64
2, 72240, Note_on_c, 0, 75, 0
2, 72240, Note_on_c, 0, 74, 64
2, 72480, Note_on_c, 0, 74, 0
2, 72480, Note_on_c, 0, 72, 64
2, 72720, Note_on_c, 0, 72, 0
2, 72720, Note_on_c, 0, 74, 64
2, 72960, Note_on_c, 0, 74, 0
2, 72960, Note_on_c, 0, 75, 64
2, 73200, Note_on_c, 0, 75, 0
2, 73200, Note_on_c, 0, 79, 64
2, 73440, Note_on_c, 0, 79, 0
2, 73440, Note_on_c, 0, 82, 64
2, 73840, Note_on_c, 0, 82, 0
2, 73920, Note_on_c, 0, 79, 64
2, 74400, Note_on_c, 0, 79, 0
2, 74400, Note_on_c, 0, 75, 64
2, 74880, Note_on_c, 0, 75, 0
2, 74880, Note_on_c, 0, 80, 64
2, 75490, Note_on_c, 0, 80, 0
2, 75600, Note_on_c, 0, 77, 64
2, 75800, Note_on_c, 0, 77, 0
2, 75840, Note_on_c, 0, 74, 64
2, 76080, Note_on_c, 0, 74, 0
2, 76080, Note_on_c, 0, 75, 64
2, 76320, Note_on_c, 0, 75, 0
2, 76320, Note_on_c, 0, 77, 64
2, 76560, Note_on_c, 0, 77, 0
2, 76560, Note_on_c, 0, 79, 64
2, 76800, Note_on_c, 0, 79, 0
2, 76800, Note_on_c, 0, 75, 64
2, 77000, Note_on_c, 0, 75, 0
2, 77040, Note_on_c, 0, 70, 86
2, 77240, Note_on_c, 0, 70, 0
2, 77280, Note_on_c, 0, 70, 86
2, 77480, Note_on_c, 0, 70, 0
2, 77520, Note_on_c, 0, 70, 86
2, 77720, Note_on_c, 0, 70, 0
2, 77760, Note_on_c, 0, 75, 86
2, 77760, Note_on_c, 0, 67, 86
2, 77960, Note_on_c, 0, 75, 0
2, 77960, Note_on_c, 0, 67, 0
2, 78000, Note_on_c, 0, 75, 86
2, 78000, Note_on_c, 0, 67, 86
2, 78200, Note_on_c, 0, 75, 0
2, 78200, Note_on_c, 0, 67, 0
2, 78240, Note_on_c, 0, 77, 86
2, 78240, Note_on_c, 0, 70, 86
2, 78440, Note_on_c, 0, 77, 0
2, 78440, Note_on_c, 0, 70, 0
2, 78480, Note_on_c, 0, 77, 86
2, 78480, Note_on_c, 0, 70, 86
2, 78680, Note_on_c, 0, 77, 0
2, 78680, Note_on_c, 0, 70, 0
2, 78720, Note_on_c, 0, 79, 86
2, 78720, Note_on_c, 0, 75, 86
2, 78920, Note_on_c, 0, 79, 0
2, 78920, Note_on_c, 0, 75, 0
2, 78960, Note_on_c, 0, 70, 86
2, 79160, Note_on_c, 0, 70, 0
2, 79200, Note_on_c, 0, 70, 86
2, 79400, Note_on_c, 0, 70, 0
2, 79440, Note_on_c, 0, 70, 86
2, 79640, Note_on_c, 0, 70, 0
2, 79680, Note_on_c, 0, 79, 86
2, 79680, Note_on_c, 0, 75, 86
2, 79880, Note_on_c, 0, 79, 0
2, 79880, Note_on_c, 0, 75, 0
2, 79920, Note_on_c, 0, 79, 86
2, 79920, Note_on_c, 0, 75, 86
2, 80120, Note_on_c, 0, 79, 0
2, 80120, Note_on_c, 0, 75, 0
2, 80160, Note_on_c, 0, 77, 86
2, 80160, Note_on_c, 0, 70, 86
2, 80360, Note_on_c, 0, 77, 0
2, 80360, Note_on_c, 0, 70, 0
2, 80400, Note_on_c, 0, 77, 86
2, 80400, Note_on_c, 0, 70, 86
2, 80600, Note_on_c, 0, 77, 0
2, 80600, Note_on_c, 0, 70, 0
2, 80640, Note_on_c, 0, 75, 86
2, 80640, Note_on_c, 0, 67, 86
2, 81040, Note_on_c, 0, 75, 0
2, 81040, Note_on_c, 0, 67, 0
2, 81120, Note_on_c, 0, 79, 86
2, 81120, Note_on_c, 0, 70, 86
2, 81520, Note_on_c, 0, 79, 0
2, 81520, Note_on_c, 0, 70, 0
2, 81600, Note_on_c, 0, 75, 86
2, 81600, Note_on_c, 0, 67, 86
2, 82000, Note_on_c, 0, 75, 0
2, 82000, Note_on_c, 0, 67, 0
2, 103920, Note_on_c, 0, 70, 86
2, 104120, Note_on_c, 0, 70, 0
2, 104160, Note_on_c, 0, 70, 86
2, 104360, Note_on_c, 0, 70, 0
2, 104400, Note_on_c, 0, 70, 86
2, 104600, Note_on_c, 0, 70, 0
2, 104640, Note_on_c, 0, 75, 86
2, 104640, Note_on_c, 0, 67, 86
2, 104840, Note_on_c, 0, 75, 0
2, 104840, Note_on_c, 0, 67, 0
2, 104880, Note_on_c, 0, 75, 86
2, 104880, Note_on_c, 0, 67, 86
2, 105080, Note_on_c, 0, 75, 0
2, 105080, Note_on_c, 0, 67, 0
2, 105120, Note_on_c, 0, 77, 86
2, 105120, Note_on_c, 0, 70, 86
2, 105320, Note_on_c, 0, 77, 0
2, 105320, Note_on_c, 0, 70, 0
2, 105360, Note_on_c, 0, 77, 86
2, 105360, Note_on_c, 0, 70, 86
2, 105560, Note_on_c, 0, 77, 0
2, 105560, Note_on_c, 0, 70, 0
2, 105600, Note_on_c, 0, 79, 86
2, 105600, Note_on_c, 0, 75, 86
2, 105800, Note_on_c, 0, 79, 0
2, 105800, Note_on_c, 0, 75, 0
2, 105840, Note_on_c, 0, 70, 86
2, 106040, Note_on_c, 0, 70, 0
2, 106080, Note_on_c, 0, 70, 86
2, 106280, Note_on_c, 0, 70, 0
2, 106320, Note_on_c, 0, 70, 86
2, 106520, Note_on_c, 0, 70, 0
2, 106560, Note_on_c, 0, 79, 86
2, 106560, Note_on_c, 0, 75, 86
2, 106760, Note_on_c, 0, 79, 0
2, 106760, Note_on_c, 0, 75, 0
2, 106800, Note_on_c, 0, 79, 86
2, 106800, Note_on_c, 0, 75, 86
2, 107000, Note_on_c, 0, 79, 0
2, 107000, Note_on_c, 0, 75, 0
2, 107040, Note_on_c, 0, 77, 86
2, 107040, Note_on_c, 0, 70, 86
2, 107240, Note_on_c, 0, 77, 0
2, 107240, Note_on_c, 0, 70, 0
2, 107280, Note_on_c, 0, 77, 86
2, 107280, Note_on_c, 0, 70, 86
2, 107480, Note_on_c, 0, 77, 0
2, 107480, Note_on_c, 0, 70, 0
2, 107520, Note_on_c, 0, 75, 86
2, 107520, Note_on_c, 0, 67, 86
2, 107920, Note_on_c, 0, 75, 0
2, 107920, Note_on_c, 0, 67, 0
2, 123120, Note_on_c, 0, 77, 86
2, 123320, Note_on_c, 0, 77, 0
2, 123360, Note_on_c, 0, 77, 86
2, 123560, Note_on_c, 0, 77, 0
2, 123600, Note_on_c, 0, 77, 86
2, 123800, Note_on_c, 0, 77, 0
2, 123840, Note_on_c, 0, 77, 86
2, 124240, Note_on_c, 0, 77, 0
2, 139200, Note_on_c, 0, 74, 64
2, 139200, Note_on_c, 0, 70, 64
2, 140010, Note_on_c, 0, 74, 0
2, 140010, Note_on_c, 0, 70, 0
2, 140160, Control_c, 0, 11, 94
2, 140160, Note_on_c, 0, 75, 86
2, 140160, Note_on_c, 0, 72, 86
2, 140760, Control_c, 0, 11, 95
2, 140880, Control_c, 0, 11, 98
2, 141000, Control_c, 0, 11, 101
2, 141120, Note_on_c, 0, 75, 0
2, 141120, Note_on_c, 0, 72, 0
2, 141120, Control_c, 0, 11, 104
2, 141120, Note_on_c, 0, 69, 86
2, 141120, Note_on_c, 0, 72, 86
2, 141240, Control_c, 0, 11, 107
2, 141360, Control_c, 0, 11, 110
2, 141480, Control_c, 0, 11, 113
2, 141600, Control_c, 0, 11, 116
2, 141720, Control_c, 0, 11, 119
2, 141840, Control_c, 0, 11, 122
2, 141930, Note_on_c, 0, 69, 0
2, 141930, Note_on_c, 0, 72, 0
2, 141960, Control_c, 0, 11, 127
2, 142080, Note_on_c, 0, 70, 86
2, 142480, Note_on_c, 0, 70, 0
2, 142560, Note_on_c, 0, 77, 86
2, 142560, Note_on_c, 0, 74, 86
2, 143780, Note_on_c, 0, 77, 0
2, 143780, Note_on_c, 0, 74, 0
2, 144000, Note_on_c, 0, 79, 86
2, 144000, Note_on_c, 0, 75, 86
2, 145630, Note_on_c, 0, 79, 0
2, 145630, Note_on_c, 0, 75, 0
2, 145920, Note_on_c, 0, 77, 86
2, 145920, Note_on_c, 0, 74, 86
2, 147550, Note_on_c, 0, 77, 0
2, 147550, Note_on_c, 0, 74, 0
2, 147840, Note_on_c, 0, 75, 86
2, 147840, Note_on_c, 0, 70, 86
2, 148650, Note_on_c, 0, 70, 0
2, 148800, Note_on_c, 0, 69, 86
2, 149470, Note_on_c, 0, 75, 0
2, 149520, Note_on_c, 0, 69, 0
2, 149520, Note_on_c, 0, 72, 86
2, 149760, Note_on_c, 0, 72, 0
2, 149760, Note_on_c, 0, 74, 86
2, 149760, Note_on_c, 0, 70, 86
2, 150160, Note_on_c, 0, 74, 0
2, 150160, Note_on_c, 0, 70, 0
2, 150240, Note_on_c, 0, 72, 86
2, 150240, Note_on_c, 0, 69, 86
2, 150640, Note_on_c, 0, 72, 0
2, 150640, Note_on_c, 0, 69, 0
2, 150720, Note_on_c, 0, 77, 86
2, 150720, Note_on_c, 0, 65, 86
2, 151120, Note_on_c, 0, 77, 0
2, 151120, Note_on_c, 0, 65, 0
2, 151200, Note_on_c, 0, 74, 86
2, 151200, Note_on_c, 0, 70, 86
2, 151600, Note_on_c, 0, 74, 0
2, 151600, Note_on_c, 0, 70, 0
2, 151680, Note_on_c, 0, 79, 86
2, 151680, Note_on_c, 0, 70, 86
2, 152490, Note_on_c, 0, 79, 0
2, 152490, Note_on_c, 0, 70, 0
2, 152640, Note_on_c, 0, 73, 86
2, 152640, Note_on_c, 0, 82, 86
2, 153450, Note_on_c, 0, 73, 0
2, 153600, Note_on_c, 0, 74, 86
2, 154000, Note_on_c, 0, 74, 0
2, 154000, Note_on_c, 0, 82, 0
2, 154080, Note_on_c, 0, 74, 86
2, 154080, Note_on_c, 0, 70, 86
2, 154380, Note_on_c, 0, 74, 0
2, 154380, Note_on_c, 0, 70, 0
2, 154440, Note_on_c, 0, 74, 86
2, 154440, Note_on_c, 0, 70, 86
2, 154540, Note_on_c, 0, 74, 0
2, 154540, Note_on_c, 0, 70, 0
2, 154560, Note_on_c, 0, 72, 86
2, 154560, Note_on_c, 0, 69, 86
2, 154960, Note_on_c, 0, 72, 0
2, 154960, Note_on_c, 0, 69, 0
2, 155040, Note_on_c, 0, 72, 86
2, 155040, Note_on_c, 0, 69, 86
2, 155340, Note_on_c, 0, 72, 0
2, 155340, Note_on_c, 0, 69, 0
2, 155400, Note_on_c, 0, 72, 86
2, 155400, Note_on_c, 0, 69, 86
2, 155500, Note_on_c, 0, 72, 0
2, 155500, Note_on_c, 0, 69, 0
2, 155520, Note_on_c, 0, 70, 86
2, 155920, Note_on_c, 0, 70, 0
2, 191040, Note_on_c, 0, 77, 64
2, 191040, Note_on_c, 0, 74, 64
2, 191100, Note_on_c, 0, 77, 0
2, 191100, Note_on_c, 0, 74, 0
2, 191100, Note_on_c, 0, 79, 64
2, 191100, Note_on_c, 0, 75, 64
2, 191160, Note_on_c, 0, 79, 0
2, 191160, Note_on_c, 0, 75, 0
2, 191160, Note_on_c, 0, 77, 64
2, 191160, Note_on_c, 0, 74, 64
2, 191220, Note_on_c, 0, 77, 0
2, 191220, Note_on_c, 0, 74, 0
2, 191220, Note_on_c, 0, 79, 64
2, 191220, Note_on_c, 0, 75, 64
2, 191280, Note_on_c, 0, 79, 0
2, 191280, Note_on_c, 0, 75, 0
2, 191280, Note_on_c, 0, 77, 64
2, 191280, Note_on_c, 0, 74, 64
2, 191340, Note_on_c, 0, 77, 0
2, 191340, Note_on_c, 0, 74, 0
2, 191340, Note_on_c, 0, 79, 64
2, 191340, Note_on_c, 0, 75, 64
2, 191400, Note_on_c, 0, 79, 0
2, 191400, Note_on_c, 0, 75, 0
2, 191400, Note_on_c, 0, 77, 64
2, 191400, Note_on_c, 0, 74, 64
2, 191460, Note_on_c, 0, 77, 0
2, 191460, Note_on_c, 0, 74, 0
2, 191460, Note_on_c, 0, 79, 64
2, 191460, Note_on_c, 0, 75, 64
2, 191520, Note_on_c, 0, 79, 0
2, 191520, Note_on_c, 0, 75, 0
2, 191520, Note_on_c, 0, 77, 64
2, 191520, Note_on_c, 0, 74, 64
2, 191580, Note_on_c, 0, 77, 0
2, 191580, Note_on_c, 0, 74, 0
2, 191580, Note_on_c, 0, 79, 64
2, 191580, Note_on_c, 0, 75, 64
2, 191640, Note_on_c, 0, 79, 0
2, 191640, Note_on_c, 0, 75, 0
2, 191640, Note_on_c, 0, 77, 64
2, 191640, Note_on_c, 0, 74, 64
2, 191700, Note_on_c, 0, 77, 0
2, 191700, Note_on_c, 0, 74, 0
2, 191700, Note_on_c, 0, 79, 64
2, 191700, Note_on_c, 0, 75, 64
2, 191760, Note_on_c, 0, 79, 0
2, 191760, Note_on_c, 0, 75, 0
2, 191760, Note_on_c, 0, 75, 64
2, 191760, Note_on_c, 0, 72, 64
2, 191880, Note_on_c, 0, 75, 0
2, 191880, Note_on_c, 0, 72, 0
2, 191880, Note_on_c, 0, 77, 64
2, 191880, Note_on_c, 0, 74, 64
2, 191980, Note_on_c, 0, 77, 0
2, 191980, Note_on_c, 0, 74, 0
2, 192000, Note_on_c, 0, 77, 64
2, 192000, Note_on_c, 0, 74, 64
2, 192400, Note_on_c, 0, 77, 0
2, 192400, Note_on_c, 0, 74, 0
2, 193440, Note_on_c, 0, 70, 64
2, 193840, Note_on_c, 0, 70, 0
2, 193920, Note_on_c, 0, 72, 64
2, 194640, Note_on_c, 0, 72, 0
2, 194640, Note_on_c, 0, 74, 64
2, 194880, Note_on_c, 0, 74, 0
2, 194880, Note_on_c, 0, 75, 64
2, 195280, Note_on_c, 0, 75, 0
2, 195360, Note_on_c, 0, 75, 64
2, 195760, Note_on_c, 0, 75, 0
2, 195840, Note_on_c, 0, 73, 64
2, 196080, Note_on_c, 0, 73, 0
2, 196080, Note_on_c, 0, 74, 64
2, 196320, Note_on_c, 0, 74, 0
2, 196320, Note_on_c, 0, 74, 64
2, 196720, Note_on_c, 0, 74, 0
2, 197280, Control_c, 0, 11, 94
2, 197280, Note_on_c, 0, 70, 86
2, 197280, Note_on_c, 0, 74, 86
2, 197400, Control_c, 0, 11, 94
2, 197520, Control_c, 0, 11, 95
2, 197640, Control_c, 0, 11, 97
2, 197680, Note_on_c, 0, 70, 0
2, 197680, Note_on_c, 0, 74, 0
2, 197760, Note_on_c, 0, 75, 86
2, 197760, Note_on_c, 0, 72, 86
2, 197760, Control_c, 0, 11, 97
2, 197880, Control_c, 0, 11, 98
2, 198000, Control_c, 0, 11, 98
2, 198120, Control_c, 0, 11, 100
2, 198240, Control_c, 0, 11, 101
2, 198360, Control_c, 0, 11, 101
2, 198480, Note_on_c, 0, 75, 0
2, 198480, Note_on_c, 0, 72, 0
2, 198480, Note_on_c, 0, 77, 86
2, 198480, Note_on_c, 0, 74, 86
2, 198480, Control_c, 0, 11, 103
2, 198600, Control_c, 0, 11, 103
2, 198720, Note_on_c, 0, 77, 0
2, 198720, Note_on_c, 0, 74, 0
2, 198720, Note_on_c, 0, 79, 86
2, 198720, Note_on_c, 0, 75, 86
2, 198720, Control_c, 0, 11, 104
2, 198840, Control_c, 0, 11, 104
2, 198960, Control_c, 0, 11, 106
2, 199080, Control_c, 0, 11, 107
2, 199120, Note_on_c, 0, 79, 0
2, 199120, Note_on_c, 0, 75, 0
2, 199200, Note_on_c, 0, 79, 86
2, 199200, Note_on_c, 0, 75, 86
2, 199200, Control_c, 0, 11, 107
2, 199320, Control_c, 0, 11, 109
2, 199440, Control_c, 0, 11, 109
2, 199560, Control_c, 0, 11, 110
2, 199600, Note_on_c, 0, 79, 0
2, 199600, Note_on_c, 0, 75, 0
2, 199680, Note_on_c, 0, 76, 86
2, 199680, Note_on_c, 0, 73, 86
2, 199680, Control_c, 0, 11, 112
2, 199800, Control_c, 0, 11, 112
2, 199920, Note_on_c, 0, 76, 0
2, 199920, Note_on_c, 0, 73, 0
2, 199920, Note_on_c, 0, 77, 86
2, 199920, Note_on_c, 0, 74, 86
2, 199920, Control_c, 0, 11, 113
2, 200040, Control_c, 0, 11, 113
2, 200160, Note_on_c, 0, 77, 0
2, 200160, Note_on_c, 0, 74, 0
2, 200160, Note_on_c, 0, 77, 86
2, 200160, Note_on_c, 0, 74, 86
2, 200160, Control_c, 0, 11, 115
2, 200280, Control_c, 0, 11, 115
2, 200400, Control_c, 0, 11, 116
2, 200520, Control_c, 0, 11, 118
2, 200640, Control_c, 0, 11, 118
2, 200760, Control_c, 0, 11, 119
2, 200880, Control_c, 0, 11, 119
2, 200970, Note_on_c, 0, 77, 0
2, 200970, Note_on_c, 0, 74, 0
2, 201000, Control_c, 0, 11, 121
2, 201120, Note_on_c, 0, 74, 86
2, 201120, Note_on_c, 0, 77, 86
2, 201120, Control_c, 0, 11, 122
2, 201240, Control_c, 0, 11, 122
2, 201360, Control_c, 0, 11, 124
2, 201480, Control_c, 0, 11, 124
2, 201600, Control_c, 0, 11, 125
2, 201720, Control_c, 0, 11, 127
2, 202000, Note_on_c, 0, 74, 0
2, 202000, Note_on_c, 0, 77, 0
2, 202080, Note_on_c, 0, 80, 86
2, 202080, Note_on_c, 0, 74, 86
2, 202380, Note_on_c, 0, 80, 0
2, 202380, Note_on_c, 0, 74, 0
2, 202440, Note_on_c, 0, 80, 86
2, 202440, Note_on_c, 0, 74, 86
2, 202540, Note_on_c, 0, 80, 0
2, 202540, Note_on_c, 0, 74, 0
2, 202560, Note_on_c, 0, 80, 86
2, 202560, Note_on_c, 0, 74, 86
2, 202960, Note_on_c, 0, 80, 0
2, 202960, Note_on_c, 0, 74, 0
2, 203040, Note_on_c, 0, 80, 86
2, 203040, Note_on_c, 0, 74, 86
2, 203440, Note_on_c, 0, 80, 0
2, 203440, Note_on_c, 0, 74, 0
2, 203520, Note_on_c, 0, 80, 86
2, 203520, Note_on_c, 0, 74, 86
2, 203920, Note_on_c, 0, 80, 0
2, 203920, Note_on_c, 0, 74, 0
2, 209280, Note_on_c, 0, 82, 64
2, 209280, Note_on_c, 0, 79, 64
2, 209760, Note_on_c, 0, 82, 0
2, 209760, Note_on_c, 0, 79, 0
2, 209760, Note_on_c, 0, 80, 64
2, 209760, Note_on_c, 0, 77, 64
2, 210240, Note_on_c, 0, 80, 0
2, 210240, Note_on_c, 0, 77, 0
2, 210240, Note_on_c, 0, 79, 64
2, 210240, Note_on_c, 0, 75, 64
2, 210720, Note_on_c, 0, 79, 0
2, 210720, Note_on_c, 0, 75, 0
2, 210720, Note_on_c, 0, 77, 64
2, 210720, Note_on_c, 0, 74, 64
2, 211200, Note_on_c, 0, 77, 0
2, 211200, Note_on_c, 0, 74, 0
2, 211200, Note_on_c, 0, 75, 64
2, 211600, Note_on_c, 0, 75, 0
2, 218160, Note_on_c, 0, 79, 86
2, 218160, Note_on_c, 0, 75, 86
2, 218400, Note_on_c, 0, 79, 0
2, 218400, Note_on_c, 0, 75, 0
2, 218400, Note_on_c, 0, 80, 86
2, 218400, Note_on_c, 0, 77, 86
2, 218640, Note_on_c, 0, 80, 0
2, 218640, Note_on_c, 0, 77, 0
2, 218640, Note_on_c, 0, 82, 86
2, 218640, Note_on_c, 0, 79, 86
2, 218880, Note_on_c, 0, 82, 0
2, 218880, Note_on_c, 0, 79, 0
2, 218880, Note_on_c, 0, 84, 86
2, 218880, Note_on_c, 0, 80, 86
2, 220510, Note_on_c, 0, 84, 0
2, 220510, Note_on_c, 0, 80, 0
2, 220800, Note_on_c, 0, 82, 86
2, 220800, Note_on_c, 0, 79, 86
2, 222430, Note_on_c, 0, 82, 0
2, 222430, Note_on_c, 0, 79, 0
2, 222720, Note_on_c, 0, 80, 86
2, 222720, Note_on_c, 0, 72, 86
2, 223530, Note_on_c, 0, 72, 0
2, 223680, Note_on_c, 0, 74, 86
2, 224290, Note_on_c, 0, 74, 0
2, 224350, Note_on_c, 0, 80, 0
2, 224400, Note_on_c, 0, 77, 86
2, 224600, Note_on_c, 0, 77, 0
2, 224640, Note_on_c, 0, 79, 86
2, 224640, Note_on_c, 0, 75, 86
2, 225040, Note_on_c, 0, 79, 0
2, 225040, Note_on_c, 0, 75, 0
2, 225120, Note_on_c, 0, 77, 86
2, 225120, Note_on_c, 0, 74, 86
2, 225520, Note_on_c, 0, 77, 0
2, 225520, Note_on_c, 0, 74, 0
2, 225600, Note_on_c, 0, 75, 86
2, 225600, Note_on_c, 0, 70, 86
2, 226000, Note_on_c, 0, 75, 0
2, 226000, Note_on_c, 0, 70, 0
2, 232560, Note_on_c, 0, 70, 86
2, 232760, Note_on_c, 0, 70, 0
2, 232800, Note_on_c, 0, 70, 86
2, 233000, Note_on_c, 0, 70, 0
2, 233040, Note_on_c, 0, 70, 86
2, 233240, Note_on_c, 0, 70, 0
2, 233280, Note_on_c, 0, 75, 86
2, 233280, Note_on_c, 0, 67, 86
2, 233480, Note_on_c, 0, 75, 0
2, 233480, Note_on_c, 0, 67, 0
2, 233520, Note_on_c, 0, 75, 86
2, 233520, Note_on_c, 0, 67, 86
2, 233720, Note_on_c, 0, 75, 0
2, 233720, Note_on_c, 0, 67, 0
2, 233760, Note_on_c, 0, 77, 86
2, 233760, Note_on_c, 0, 70, 86
2, 233960, Note_on_c, 0, 77, 0
2, 233960, Note_on_c, 0, 70, 0
2, 234000, Note_on_c, 0, 77, 86
2, 234000, Note_on_c, 0, 70, 86
2, 234200, Note_on_c, 0, 77, 0
2, 234200, Note_on_c, 0, 70, 0
2, 234240, Note_on_c, 0, 79, 86
2, 234240, Note_on_c, 0, 75, 86
2, 234440, Note_on_c, 0, 79, 0
2, 234440, Note_on_c, 0, 75, 0
2, 234480, Note_on_c, 0, 70, 86
2, 234680, Note_on_c, 0, 70, 0
2, 234720, Note_on_c, 0, 70, 86
2, 234920, Note_on_c, 0, 70, 0
2, 234960, Note_on_c, 0, 70, 86
2, 235160, Note_on_c, 0, 70, 0
2, 235200, Note_on_c, 0, 79, 86
2, 235200, Note_on_c, 0, 75, 86
2, 235400, Note_on_c, 0, 79, 0
2, 235400, Note_on_c, 0, 75, 0
2, 235440, Note_on_c, 0, 79, 86
2, 235440, Note_on_c, 0, 75, 86
2, 235640, Note_on_c, 0, 79, 0
2, 235640, Note_on_c, 0, 75, 0
2, 235680, Note_on_c, 0, 77, 86
2, 235680, Note_on_c, 0, 74, 86
2, 235880, Note_on_c, 0, 77, 0
2, 235880, Note_on_c, 0, 74, 0
2, 235920, Note_on_c, 0, 77, 86
2, 235920, Note_on_c, 0, 74, 86
2, 236120, Note_on_c, 0, 77, 0
2, 236120, Note_on_c, 0, 74, 0
2, 236160, Note_on_c, 0, 75, 86
2, 236160, Note_on_c, 0, 67, 86
2, 236560, Note_on_c, 0, 75, 0
2, 236560, Note_on_c, 0, 67, 0
2, 247920, Note_on_c, 0, 82, 86
2, 248120, Note_on_c, 0, 82, 0
2, 248160, Note_on_c, 0, 82, 86
2, 248360, Note_on_c, 0, 82, 0
2, 248400, Note_on_c, 0, 82, 86
2, 248600, Note_on_c, 0, 82, 0
2, 248640, Note_on_c, 0, 77, 86
2, 248840, Note_on_c, 0, 77, 0
2, 248880, Note_on_c, 0, 82, 86
2, 249080, Note_on_c, 0, 82, 0
2, 249120, Note_on_c, 0, 74, 86
2, 249320, Note_on_c, 0, 74, 0
2, 249360, Note_on_c, 0, 77, 86
2, 249560, Note_on_c, 0, 77, 0
2, 249600, Note_on_c, 0, 70, 86
2, 250000, Note_on_c, 0, 70, 0
2, 268800, Note_on_c, 0, 70, 64
2, 268800, Note_on_c, 0, 79, 64
2, 269610, Note_on_c, 0, 79, 0
2, 269760, Note_on_c, 0, 80, 64
2, 270000, Note_on_c, 0, 80, 0
2, 270000, Note_on_c, 0, 77, 64
2, 270240, Note_on_c, 0, 77, 0
2, 270240, Note_on_c, 0, 75, 64
2, 270480, Note_on_c, 0, 75, 0
2, 270480, Note_on_c, 0, 74, 64
2, 270720, Note_on_c, 0, 74, 0
2, 270720, Note_on_c, 0, 75, 64
2, 270960, Note_on_c, 0, 75, 0
2, 270960, Note_on_c, 0, 79, 64
2, 271200, Note_on_c, 0, 70, 0
2, 271200, Note_on_c, 0, 79, 0
2, 271200, Note_on_c, 0, 82, 64
2, 271200, Note_on_c, 0, 79, 64
2, 271680, Note_on_c, 0, 79, 0
2, 271680, Note_on_c, 0, 77, 64
2, 271920, Note_on_c, 0, 82, 0
2, 271920, Note_on_c, 0, 84, 64
2, 272160, Note_on_c, 0, 84, 0
2, 272160, Note_on_c, 0, 77, 0
2, 272160, Note_on_c, 0, 77, 64
2, 272160, Note_on_c, 0, 74, 64
2, 272400, Note_on_c, 0, 77, 0
2, 272400, Note_on_c, 0, 74, 0
2, 272400, Note_on_c, 0, 80, 64
2, 272640, Note_on_c, 0, 80, 0
2, 272640, Note_on_c, 0, 79, 64
2, 272640, Note_on_c, 0, 75, 64
2, 273040, Note_on_c, 0, 79, 0
2, 273040, Note_on_c, 0, 75, 0
2, 277440, Note_on_c, 0, 79, 64
2, 277440, Note_on_c, 0, 75, 64
2, 278250, Note_on_c, 0, 79, 0
2, 278250, Note_on_c, 0, 75, 0
2, 278400, Control_c, 0, 11, 94
2, 278400, Note_on_c, 0, 74, 86
2, 278400, Note_on_c, 0, 77, 86
2, 278520, Control_c, 0, 11, 95
2, 278640, Control_c, 0, 11, 97
2, 278760, Control_c, 0, 11, 100
2, 278880, Control_c, 0, 11, 101
2, 279000, Control_c, 0, 11, 104
2, 279120, Control_c, 0, 11, 106
2, 279240, Control_c, 0, 11, 109
2, 279360, Control_c, 0, 11, 110
2, 279480, Control_c, 0, 11, 113
2, 279600, Control_c, 0, 11, 115
2, 279720, Control_c, 0, 11, 118
2, 279840, Control_c, 0, 11, 119
2, 279960, Control_c, 0, 11, 122
2, 280030, Note_on_c, 0, 74, 0
2, 280030, Note_on_c, 0, 77, 0
2, 280080, Control_c, 0, 11, 124
2, 280200, Control_c, 0, 11, 127
2, 280320, Note_on_c, 0, 75, 86
2, 280720, Note_on_c, 0, 75, 0
2, 280800, Note_on_c, 0, 79, 86
2, 280800, Note_on_c, 0, 75, 86
2, 281200, Note_on_c, 0, 79, 0
2, 281200, Note_on_c, 0, 75, 0
2, 281280, Note_on_c, 0, 79, 86
2, 281280, Note_on_c, 0, 75, 86
2, 284400, Note_on_c, 0, 79, 0
2, 284400, Note_on_c, 0, 75, 0
2, 284400, Note_on_c, 0, 82, 86
2, 284400, Note_on_c, 0, 79, 86
2, 284640, Note_on_c, 0, 82, 0
2, 284640, Note_on_c, 0, 79, 0
2, 284640, Note_on_c, 0, 79, 86
2, 284640, Note_on_c, 0, 75, 86
2, 284760, Note_on_c, 0, 79, 0
2, 284760, Note_on_c, 0, 75, 0
2, 284880, Note_on_c, 0, 79, 86
2, 284880, Note_on_c, 0, 75, 86
2, 285000, Note_on_c, 0, 79, 0
2, 285000, Note_on_c, 0, 75, 0
2, 285120, Note_on_c, 0, 79, 86
2, 285120, Note_on_c, 0, 75, 86
2, 288000, Control_c, 0, 11, 95
2, 288120, Control_c, 0, 11, 95
2, 288240, Note_on_c, 0, 79, 0
2, 288240, Note_on_c, 0, 75, 0
2, 288240, Control_c, 0, 11, 96
2, 288240, Note_on_c, 0, 79, 114
2, 288240, Note_on_c, 0, 82, 114
2, 288360, Control_c, 0, 11, 98
2, 288480, Note_on_c, 0, 79, 0
2, 288480, Note_on_c, 0, 82, 0
2, 288480, Control_c, 0, 11, 99
2, 288480, Note_on_c, 0, 75, 114
2, 288480, Note_on_c, 0, 79, 114
2, 288600, Note_on_c, 0, 75, 0
2, 288600, Note_on_c, 0, 79, 0
2, 288600, Control_c, 0, 11, 100
2, 288720, Control_c, 0, 11, 101
2, 288720, Note_on_c, 0, 75, 114
2, 288720, Note_on_c, 0, 79, 114
2, 288840, Note_on_c, 0, 75, 0
2, 288840, Note_on_c, 0, 79, 0
2, 288840, Control_c, 0, 11, 102
2, 288960, Note_on_c, 0, 75, 114
2, 288960, Control_c, 0, 11, 103
2, 288960, Note_on_c, 0, 79, 114
2, 289080, Control_c, 0, 11, 103
2, 289200, Control_c, 0, 11, 104
2, 289320, Control_c, 0, 11, 105
2, 289440, Control_c, 0, 11, 106
2, 289560, Control_c, 0, 11, 108
2, 289680, Control_c, 0, 11, 109
2, 289800, Control_c, 0, 11, 110
2, 289920, Note_on_c, 0, 79, 0
2, 289920, Note_on_c, 0, 77, 114
2, 289920, Control_c, 0, 11, 111
2, 290040, Control_c, 0, 11, 112
2, 290160, Control_c, 0, 11, 112
2, 290280, Control_c, 0, 11, 113
2, 290400, Control_c, 0, 11, 114
2, 290520, Control_c, 0, 11, 115
2, 290640, Control_c, 0, 11, 116
2, 290760, Control_c, 0, 11, 118
2, 290880, Control_c, 0, 11, 119
2, 291000, Control_c, 0, 11, 120
2, 291120, Control_c, 0, 11, 120
2, 291240, Control_c, 0, 11, 121
2, 291360, Control_c, 0, 11, 122
2, 291480, Control_c, 0, 11, 123
2, 291600, Control_c, 0, 11, 124
2, 291720, Control_c, 0, 11, 125
2, 291840, Note_on_c, 0, 77, 0
2, 291840, Control_c, 0, 11, 127
2, 291840, Note_on_c, 0, 77, 83
2, 292240, Note_on_c, 0, 77, 0
2, 292320, Note_on_c, 0, 79, 83
2, 292720, Note_on_c, 0, 79, 0
2, 292800, Note_on_c, 0, 80, 83
2, 293200, Note_on_c, 0, 80, 0
2, 293280, Note_on_c, 0, 79, 83
2, 293680, Note_on_c, 0, 79, 0
2, 293760, Note_on_c, 0, 84, 83
2, 294160, Note_on_c, 0, 84, 0
2, 294240, Note_on_c, 0, 82, 83
2, 294640, Note_on_c, 0, 82, 0
2, 294720, Note_on_c, 0, 80, 83
2, 295120, Note_on_c, 0, 80, 0
2, 295200, Note_on_c, 0, 78, 83
2, 295600, Note_on_c, 0, 78, 0
2, 295680, Note_on_c, 0, 79, 83
2, 296490, Note_on_c, 0, 75, 0
2, 296490, Note_on_c, 0, 79, 0
2, 324420, Note_on_c, 0, 82, 86
2, 324420, Note_on_c, 0, 79, 86
2, 326050, Note_on_c, 0, 82, 0
2, 326050, Note_on_c, 0, 79, 0
2, 326340, Note_on_c, 0, 84, 86
2, 326340, Note_on_c, 0, 80, 86
2, 327970, Note_on_c, 0, 84, 0
2, 327970, Note_on_c, 0, 80, 0
2, 328260, Note_on_c, 0, 82, 86
2, 328260, Note_on_c, 0, 79, 86
2, 329890, Note_on_c, 0, 82, 0
2, 329890, Note_on_c, 0, 79, 0
2, 330180, Note_on_c, 0, 80, 86
2, 330180, Note_on_c, 0, 72, 86
2, 330990, Note_on_c, 0, 72, 0
2, 331140, Note_on_c, 0, 74, 86
2, 331810, Note_on_c, 0, 80, 0
2, 331860, Note_on_c, 0, 74, 0
2, 331860, Note_on_c, 0, 77, 86
2, 332100, Note_on_c, 0, 77, 0
2, 332100, Note_on_c, 0, 79, 86
2, 332100, Note_on_c, 0, 75, 86
2, 332910, Note_on_c, 0, 79, 0
2, 332910, Note_on_c, 0, 75, 0
2, 333060, Note_on_c, 0, 82, 86
2, 333060, Note_on_c, 0, 73, 86
2, 333870, Note_on_c, 0, 82, 0
2, 333870, Note_on_c, 0, 73, 0
2, 334020, Note_on_c, 0, 80, 86
2, 334020, Note_on_c, 0, 72, 86
2, 334830, Note_on_c, 0, 80, 0
2, 334830, Note_on_c, 0, 72, 0
2, 334980, Note_on_c, 0, 84, 86
2, 334980, Note_on_c, 0, 78, 86
2, 335790, Note_on_c, 0, 84, 0
2, 335790, Note_on_c, 0, 78, 0
2, 335940, Note_on_c, 0, 82, 86
2, 335940, Note_on_c, 0, 79, 86
2, 336340, Note_on_c, 0, 82, 0
2, 336340, Note_on_c, 0, 79, 0
2, 336420, Note_on_c, 0, 79, 86
2, 336420, Note_on_c, 0, 75, 86
2, 336720, Note_on_c, 0, 79, 0
2, 336720, Note_on_c, 0, 75, 0
2, 336780, Note_on_c, 0, 79, 86
2, 336780, Note_on_c, 0, 75, 86
2, 336880, Note_on_c, 0, 79, 0
2, 336880, Note_on_c, 0, 75, 0
2, 336900, Note_on_c, 0, 77, 86
2, 336900, Note_on_c, 0, 74, 86
2, 337300, Note_on_c, 0, 77, 0
2, 337300, Note_on_c, 0, 74, 0
2, 337380, Note_on_c, 0, 77, 86
2, 337380, Note_on_c, 0, 74, 86
2, 337680, Note_on_c, 0, 77, 0
2, 337680, Note_on_c, 0, 74, 0
2, 337740, Note_on_c, 0, 77, 86
2, 337740, Note_on_c, 0, 74, 86
2, 337840, Note_on_c, 0, 77, 0
2, 337840, Note_on_c, 0, 74, 0
2, 337860, Note_on_c, 0, 75, 86
2, 338260, Note_on_c, 0, 75, 0
2, 346500, Note_on_c, 0, 79, 64
2, 346980, Note_on_c, 0, 79, 0
2, 346980, Note_on_c, 0, 75, 64
2, 347460, Note_on_c, 0, 75, 0
2, 347460, Note_on_c, 0, 80, 64
2, 348180, Note_on_c, 0, 80, 0
2, 348180, Note_on_c, 0, 77, 64
2, 348420, Note_on_c, 0, 77, 0
2, 348420, Note_on_c, 0, 75, 64
2, 348660, Note_on_c, 0, 75, 0
2, 348660, Note_on_c, 0, 74, 64
2, 348900, Note_on_c, 0, 74, 0
2, 348900, Note_on_c, 0, 72, 64
2, 349140, Note_on_c, 0, 72, 0
2, 349140, Note_on_c, 0, 74, 64
2, 349380, Note_on_c, 0, 74, 0
2, 349380, Note_on_c, 0, 75, 64
2, 349620, Note_on_c, 0, 75, 0
2, 349620, Note_on_c, 0, 79, 64
2, 349860, Note_on_c, 0, 79, 0
2, 349860, Note_on_c, 0, 82, 64
2, 350260, Note_on_c, 0, 82, 0
2, 350340, Note_on_c, 0, 79, 64
2, 350820, Note_on_c, 0, 79, 0
2, 350820, Note_on_c, 0, 75, 64
2, 351220, Note_on_c, 0, 75, 0
2, 351300, Note_on_c, 0, 80, 64
2, 352020, Note_on_c, 0, 80, 0
2, 352020, Note_on_c, 0, 77, 64
2, 352260, Note_on_c, 0, 77, 0
2, 352260, Note_on_c, 0, 74, 64
2, 352460, Note_on_c, 0, 74, 0
2, 352500, Note_on_c, 0, 75, 64
2, 352700, Note_on_c, 0, 75, 0
2, 352740, Note_on_c, 0, 77, 64
2, 352940, Note_on_c, 0, 77, 0
2, 352980, Note_on_c, 0, 79, 64
2, 353180, Note_on_c, 0, 79, 0
2, 353220, Note_on_c, 0, 75, 64
2, 353420, Note_on_c, 0, 75, 0
2, 353460, Note_on_c, 0, 70, 86
2, 353660, Note_on_c, 0, 70, 0
2, 353700, Note_on_c, 0, 70, 86
2, 353900, Note_on_c, 0, 70, 0
2, 353940, Note_on_c, 0, 70, 86
2, 354140, Note_on_c, 0, 70, 0
2, 354180, Note_on_c, 0, 75, 86
2, 354180, Note_on_c, 0, 67, 86
2, 354380, Note_on_c, 0, 75, 0
2, 354380, Note_on_c, 0, 67, 0
2, 354420, Note_on_c, 0, 75, 86
2, 354420, Note_on_c, 0, 67, 86
2, 354620, Note_on_c, 0, 75, 0
2, 354620, Note_on_c, 0, 67, 0
2, 354660, Note_on_c, 0, 77, 86
2, 354660, Note_on_c, 0, 70, 86
2, 354860, Note_on_c, 0, 77, 0
2, 354860, Note_on_c, 0, 70, 0
2, 354900, Note_on_c, 0, 77, 86
2, 354900, Note_on_c, 0, 70, 86
2, 355100, Note_on_c, 0, 77, 0
2, 355100, Note_on_c, 0, 70, 0
2, 355140, Note_on_c, 0, 79, 86
2, 355140, Note_on_c, 0, 75, 86
2, 355340, Note_on_c, 0, 79, 0
2, 355340, Note_on_c, 0, 75, 0
2, 355380, Note_on_c, 0, 70, 86
2, 355580, Note_on_c, 0, 70, 0
2, 355620, Note_on_c, 0, 70, 86
2, 355820, Note_on_c, 0, 70, 0
2, 355860, Note_on_c, 0, 70, 86
2, 356060, Note_on_c, 0, 70, 0
2, 356100, Note_on_c, 0, 79, 86
2, 356100, Note_on_c, 0, 75, 86
2, 356300, Note_on_c, 0, 79, 0
2, 356300, Note_on_c, 0, 75, 0
2, 356340, Note_on_c, 0, 79, 86
2, 356340, Note_on_c, 0, 75, 86
2, 356540, Note_on_c, 0, 79, 0
2, 356540, Note_on_c, 0, 75, 0
2, 356580, Note_on_c, 0, 77, 86
2, 356580, Note_on_c, 0, 74, 86
2, 356780, Note_on_c, 0, 77, 0
2, 356780, Note_on_c, 0, 74, 0
2, 356820, Note_on_c, 0, 77, 86
2, 356820, Note_on_c, 0, 74, 86
2, 357020, Note_on_c, 0, 77, 0
2, 357020, Note_on_c, 0, 74, 0
2, 357060, Note_on_c, 0, 75, 86
2, 357060, Note_on_c, 0, 67, 86
2, 357460, Note_on_c, 0, 75, 0
2, 357460, Note_on_c, 0, 67, 0
2, 358020, Note_on_c, 0, 75, 86
2, 358020, Note_on_c, 0, 67, 86
2, 358420, Note_on_c, 0, 75, 0
2, 358420, Note_on_c, 0, 67, 0
2, 358500, Note_on_c, 0, 79, 86
2, 358500, Note_on_c, 0, 70, 86
2, 358900, Note_on_c, 0, 79, 0
2, 358900, Note_on_c, 0, 70, 0
2, 358980, Note_on_c, 0, 75, 86
2, 358980, Note_on_c, 0, 67, 86
2, 359380, Note_on_c, 0, 75, 0
2, 359380, Note_on_c, 0, 67, 0
2, 359940, Note_on_c, 0, 75, 86
2, 359940, Note_on_c, 0, 67, 86
2, 360340, Note_on_c, 0, 75, 0
2, 360340, Note_on_c, 0, 67, 0
2, 360420, Note_on_c, 0, 79, 86
2, 360420, Note_on_c, 0, 70, 86
2, 360820, Note_on_c, 0, 79, 0
2, 360820, Note_on_c, 0, 70, 0
2, 360900, Note_on_c, 0, 75, 86
2, 360900, Note_on_c, 0, 67, 86
2, 361300, Note_on_c, 0, 75, 0
2, 361300, Note_on_c, 0, 67, 0
2, 361860, Note_on_c, 0, 79, 86
2, 361860, Note_on_c, 0, 70, 86
2, 362260, Note_on_c, 0, 79, 0
2, 362260, Note_on_c, 0, 70, 0
2, 362820, Note_on_c, 0, 75, 86
2, 362820, Note_on_c, 0, 67, 86
2, 363630, Note_on_c, 0, 75, 0
2, 363630, Note_on_c, 0, 67, 0
2, 364800, End_track
3, 0, Start_track
3, 0, Title_t, "Corno I, II                         "
3, 0, Control_c, 1, 7, 70
3, 160, Control_c, 1, 91, 100
3, 320, Control_c, 1, 93, 10
3, 480, Control_c, 1, 10, 60
3, 640, Control_c, 1, 0, 0
3, 640, Control_c, 1, 32, 0
3, 640, Program_c, 1, 60
3, 800, Control_c, 1, 121, 0
3, 960, Pitch_bend_c, 1, 8192
3, 1120, Control_c, 1, 1, 0
3, 1280, Control_c, 1, 11, 127
3, 1440, Control_c, 1, 65, 0
3, 1600, Control_c, 1, 66, 0
3, 1760, Control_c, 1, 67, 0
3, 1920, Note_on_c, 1, 63, 86
3, 1920, Note_on_c, 1, 55, 86
3, 7390, Note_on_c, 1, 63, 0
3, 7390, Note_on_c, 1, 55, 0
3, 7680, Note_on_c, 1, 65, 86
3, 7680, Note_on_c, 1, 58, 86
3, 8490, Note_on_c, 1, 65, 0
3, 8490, Note_on_c, 1, 58, 0
3, 8640, Note_on_c, 1, 67, 86
3, 8640, Note_on_c, 1, 63, 86
3, 8840, Note_on_c, 1, 67, 0
3, 8840, Note_on_c, 1, 63, 0
3, 8880, Note_on_c, 1, 63, 86
3, 8880, Note_on_c, 1, 51, 86
3, 9080, Note_on_c, 1, 63, 0
3, 9080, Note_on_c, 1, 51, 0
3, 9120, Note_on_c, 1, 63, 86
3, 9120, Note_on_c, 1, 51, 86
3, 9320, Note_on_c, 1, 63, 0
3, 9320, Note_on_c, 1, 51, 0
3, 9360, Note_on_c, 1, 63, 86
3, 9360, Note_on_c, 1, 51, 86
3, 9560, Note_on_c, 1, 63, 0
3, 9560, Note_on_c, 1, 51, 0
3, 9600, Note_on_c, 1, 63, 86
3, 9600, Note_on_c, 1, 51, 86
3, 13150, Note_on_c, 1, 63, 0
3, 13150, Note_on_c, 1, 51, 0
3, 13440, Note_on_c, 1, 65, 86
3, 13440, Note_on_c, 1, 63, 86
3, 14250, Note_on_c, 1, 65, 0
3, 14250, Note_on_c, 1, 63, 0
3, 14400, Note_on_c, 1, 65, 86
3, 14400, Note_on_c, 1, 58, 86
3, 15210, Note_on_c, 1, 65, 0
3, 15210, Note_on_c, 1, 58, 0
3, 15360, Note_on_c, 1, 67, 86
3, 15360, Note_on_c, 1, 63, 86
3, 15760, Note_on_c, 1, 67, 0
3, 15760, Note_on_c, 1, 63, 0
3, 15840, Note_on_c, 1, 65, 86
3, 15840, Note_on_c, 1, 58, 86
3, 16240, Note_on_c, 1, 65, 0
3, 16240, Note_on_c, 1, 58, 0
3, 16320, Note_on_c, 1, 63, 86
3, 16320, Note_on_c, 1, 55, 86
3, 16720, Note_on_c, 1, 63, 0
3, 16720, Note_on_c, 1, 55, 0
3, 16800, Note_on_c, 1, 67, 86
3, 16800, Note_on_c, 1, 63, 86
3, 17200, Note_on_c, 1, 67, 0
3, 17200, Note_on_c, 1, 63, 0
3, 17280, Note_on_c, 1, 63, 86
3, 17280, Note_on_c, 1, 51, 86
3, 18500, Note_on_c, 1, 63, 0
3, 18500, Note_on_c, 1, 51, 0
3, 18720, Note_on_c, 1, 65, 86
3, 18720, Note_on_c, 1, 63, 86
3, 19120, Note_on_c, 1, 65, 0
3, 19120, Note_on_c, 1, 63, 0
3, 19200, Note_on_c, 1, 65, 86
3, 19200, Note_on_c, 1, 58, 86
3, 19600, Note_on_c, 1, 65, 0
3, 19600, Note_on_c, 1, 58, 0
3, 19920, Note_on_c, 1, 65, 86
3, 19920, Note_on_c, 1, 58, 86
3, 20120, Note_on_c, 1, 65, 0
3, 20120, Note_on_c, 1, 58, 0
3, 20160, Note_on_c, 1, 67, 86
3, 20160, Note_on_c, 1, 63, 86
3, 20560, Note_on_c, 1, 67, 0
3, 20560, Note_on_c, 1, 63, 0
3, 20880, Note_on_c, 1, 67, 86
3, 20880, Note_on_c, 1, 63, 86
3, 21080, Note_on_c, 1, 67, 0
3, 21080, Note_on_c, 1, 63, 0
3, 21120, Note_on_c, 1, 65, 86
3, 21120, Note_on_c, 1, 58, 86
3, 21520, Note_on_c, 1, 65, 0
3, 21520, Note_on_c, 1, 58, 0
3, 21840, Note_on_c, 1, 65, 86
3, 21840, Note_on_c, 1, 58, 86
3, 22040, Note_on_c, 1, 65, 0
3, 22040, Note_on_c, 1, 58, 0
3, 22080, Note_on_c, 1, 67, 86
3, 22080, Note_on_c, 1, 63, 86
3, 22480, Note_on_c, 1, 67, 0
3, 22480, Note_on_c, 1, 63, 0
3, 22800, Note_on_c, 1, 67, 86
3, 22800, Note_on_c, 1, 63, 86
3, 23000, Note_on_c, 1, 67, 0
3, 23000, Note_on_c, 1, 63, 0
3, 23040, Note_on_c, 1, 65, 86
3, 23040, Note_on_c, 1, 58, 86
3, 23240, Note_on_c, 1, 65, 0
3, 23240, Note_on_c, 1, 58, 0
3, 23280, Note_on_c, 1, 58, 86
3, 23280, Note_on_c, 1, 46, 86
3, 23480, Note_on_c, 1, 58, 0
3, 23480, Note_on_c, 1, 46, 0
3, 23520, Note_on_c, 1, 58, 86
3, 23520, Note_on_c, 1, 46, 86
3, 23720, Note_on_c, 1, 58, 0
3, 23720, Note_on_c, 1, 46, 0
3, 23760, Note_on_c, 1, 58, 86
3, 23760, Note_on_c, 1, 46, 86
3, 23960, Note_on_c, 1, 58, 0
3, 23960, Note_on_c, 1, 46, 0
3, 24000, Note_on_c, 1, 58, 86
3, 24000, Note_on_c, 1, 46, 86
3, 24400, Note_on_c, 1, 58, 0
3, 24400, Note_on_c, 1, 46, 0
3, 28800, Note_on_c, 1, 58, 64
3, 28800, Note_on_c, 1, 46, 64
3, 32350, Note_on_c, 1, 58, 0
3, 32350, Note_on_c, 1, 46, 0
3, 32640, Note_on_c, 1, 51, 64
3, 32640, Note_on_c, 1, 63, 64
3, 38400, Control_c, 1, 11, 94
3, 38880, Control_c, 1, 11, 94
3, 39000, Control_c, 1, 11, 94
3, 39120, Control_c, 1, 11, 95
3, 39240, Control_c, 1, 11, 95
3, 39360, Control_c, 1, 11, 97
3, 39480, Control_c, 1, 11, 97
3, 39600, Control_c, 1, 11, 98
3, 39720, Control_c, 1, 11, 98
3, 39840, Control_c, 1, 11, 100
3, 39960, Control_c, 1, 11, 100
3, 40080, Control_c, 1, 11, 101
3, 40200, Control_c, 1, 11, 101
3, 40320, Control_c, 1, 11, 103
3, 40440, Control_c, 1, 11, 103
3, 40560, Control_c, 1, 11, 104
3, 40680, Control_c, 1, 11, 106
3, 40800, Control_c, 1, 11, 106
3, 40920, Control_c, 1, 11, 107
3, 41040, Control_c, 1, 11, 107
3, 41160, Control_c, 1, 11, 109
3, 41280, Control_c, 1, 11, 109
3, 41400, Control_c, 1, 11, 110
3, 41520, Control_c, 1, 11, 110
3, 41640, Control_c, 1, 11, 112
3, 41760, Control_c, 1, 11, 112
3, 41880, Control_c, 1, 11, 113
3, 42000, Control_c, 1, 11, 113
3, 42120, Control_c, 1, 11, 115
3, 42240, Control_c, 1, 11, 115
3, 42360, Control_c, 1, 11, 116
3, 42480, Control_c, 1, 11, 116
3, 42600, Control_c, 1, 11, 118
3, 42640, Note_on_c, 1, 51, 0
3, 42640, Note_on_c, 1, 63, 0
3, 42720, Note_on_c, 1, 63, 86
3, 42720, Note_on_c, 1, 51, 86
3, 42720, Control_c, 1, 11, 118
3, 42840, Control_c, 1, 11, 119
3, 42960, Control_c, 1, 11, 119
3, 43080, Control_c, 1, 11, 121
3, 43120, Note_on_c, 1, 63, 0
3, 43120, Note_on_c, 1, 51, 0
3, 43200, Note_on_c, 1, 63, 86
3, 43200, Note_on_c, 1, 51, 86
3, 43200, Control_c, 1, 11, 121
3, 43320, Control_c, 1, 11, 122
3, 43440, Control_c, 1, 11, 122
3, 43560, Control_c, 1, 11, 124
3, 43600, Note_on_c, 1, 63, 0
3, 43600, Note_on_c, 1, 51, 0
3, 43680, Note_on_c, 1, 63, 86
3, 43680, Note_on_c, 1, 51, 86
3, 43680, Control_c, 1, 11, 124
3, 43800, Control_c, 1, 11, 125
3, 43920, Control_c, 1, 11, 125
3, 44040, Control_c, 1, 11, 127
3, 44080, Note_on_c, 1, 63, 0
3, 44080, Note_on_c, 1, 51, 0
3, 44160, Note_on_c, 1, 63, 86
3, 44160, Note_on_c, 1, 51, 86
3, 47710, Note_on_c, 1, 63, 0
3, 47710, Note_on_c, 1, 51, 0
3, 48000, Note_on_c, 1, 58, 86
3, 48000, Note_on_c, 1, 46, 86
3, 48810, Note_on_c, 1, 58, 0
3, 48810, Note_on_c, 1, 46, 0
3, 48960, Note_on_c, 1, 58, 86
3, 48960, Note_on_c, 1, 46, 86
3, 49360, Note_on_c, 1, 58, 0
3, 49360, Note_on_c, 1, 46, 0
3, 49440, Note_on_c, 1, 58, 86
3, 49440, Note_on_c, 1, 46, 86
3, 49840, Note_on_c, 1, 58, 0
3, 49840, Note_on_c, 1, 46, 0
3, 49920, Note_on_c, 1, 63, 86
3, 49920, Note_on_c, 1, 51, 86
3, 50730, Note_on_c, 1, 63, 0
3, 50730, Note_on_c, 1, 51, 0
3, 50880, Note_on_c, 1, 63, 86
3, 50880, Note_on_c, 1, 51, 86
3, 51490, Note_on_c, 1, 63, 0
3, 51490, Note_on_c, 1, 51, 0
3, 51600, Note_on_c, 1, 63, 86
3, 51600, Note_on_c, 1, 51, 86
3, 51800, Note_on_c, 1, 63, 0
3, 51800, Note_on_c, 1, 51, 0
3, 51840, Note_on_c, 1, 63, 86
3, 51840, Note_on_c, 1, 51, 86
3, 53470, Note_on_c, 1, 63, 0
3, 53470, Note_on_c, 1, 51, 0
3, 53760, Note_on_c, 1, 67, 86
3, 53760, Note_on_c, 1, 58, 86
3, 53960, Note_on_c, 1, 67, 0
3, 53960, Note_on_c, 1, 58, 0
3, 54000, Note_on_c, 1, 67, 86
3, 54000, Note_on_c, 1, 46, 86
3, 54200, Note_on_c, 1, 67, 0
3, 54200, Note_on_c, 1, 46, 0
3, 54240, Note_on_c, 1, 67, 86
3, 54240, Note_on_c, 1, 46, 86
3, 54640, Note_on_c, 1, 67, 0
3, 54640, Note_on_c, 1, 46, 0
3, 54960, Note_on_c, 1, 67, 86
3, 54960, Note_on_c, 1, 46, 86
3, 55160, Note_on_c, 1, 67, 0
3, 55160, Note_on_c, 1, 46, 0
3, 55200, Note_on_c, 1, 67, 86
3, 55200, Note_on_c, 1, 46, 86
3, 55600, Note_on_c, 1, 67, 0
3, 55600, Note_on_c, 1, 46, 0
3, 55920, Note_on_c, 1, 67, 86
3, 55920, Note_on_c, 1, 46, 86
3, 56120, Note_on_c, 1, 67, 0
3, 56120, Note_on_c, 1, 46, 0
3, 56160, Note_on_c, 1, 67, 86
3, 56160, Note_on_c, 1, 46, 86
3, 56360, Note_on_c, 1, 67, 0
3, 56360, Note_on_c, 1, 46, 0
3, 56640, Note_on_c, 1, 67, 86
3, 56640, Note_on_c, 1, 46, 86
3, 56840, Note_on_c, 1, 67, 0
3, 56840, Note_on_c, 1, 46, 0
3, 57120, Note_on_c, 1, 67, 86
3, 57120, Note_on_c, 1, 46, 86
3, 57320, Note_on_c, 1, 67, 0
3, 57320, Note_on_c, 1, 46, 0
3, 57600, Note_on_c, 1, 67, 86
3, 57600, Note_on_c, 1, 46, 86
3, 57800, Note_on_c, 1, 67, 0
3, 57800, Note_on_c, 1, 46, 0
3, 58080, Note_on_c, 1, 58, 86
3, 58080, Note_on_c, 1, 46, 86
3, 58480, Note_on_c, 1, 58, 0
3, 58480, Note_on_c, 1, 46, 0
3, 58560, Note_on_c, 1, 63, 86
3, 58560, Note_on_c, 1, 51, 86
3, 58960, Note_on_c, 1, 63, 0
3, 58960, Note_on_c, 1, 51, 0
3, 59040, Note_on_c, 1, 67, 86
3, 59040, Note_on_c, 1, 55, 86
3, 59440, Note_on_c, 1, 67, 0
3, 59440, Note_on_c, 1, 55, 0
3, 59520, Note_on_c, 1, 70, 86
3, 59520, Note_on_c, 1, 58, 86
3, 59920, Note_on_c, 1, 70, 0
3, 59920, Note_on_c, 1, 58, 0
3, 60000, Note_on_c, 1, 67, 86
3, 60000, Note_on_c, 1, 63, 86
3, 60300, Note_on_c, 1, 67, 0
3, 60300, Note_on_c, 1, 63, 0
3, 60360, Note_on_c, 1, 67, 86
3, 60360, Note_on_c, 1, 63, 86
3, 60460, Note_on_c, 1, 67, 0
3, 60460, Note_on_c, 1, 63, 0
3, 60480, Note_on_c, 1, 65, 86
3, 60480, Note_on_c, 1, 58, 86
3, 60880, Note_on_c, 1, 65, 0
3, 60880, Note_on_c, 1, 58, 0
3, 60960, Note_on_c, 1, 65, 86
3, 60960, Note_on_c, 1, 58, 86
3, 61260, Note_on_c, 1, 65, 0
3, 61260, Note_on_c, 1, 58, 0
3, 61320, Note_on_c, 1, 65, 86
3, 61320, Note_on_c, 1, 58, 86
3, 61420, Note_on_c, 1, 65, 0
3, 61420, Note_on_c, 1, 58, 0
3, 61440, Note_on_c, 1, 63, 86
3, 61440, Note_on_c, 1, 51, 86
3, 66910, Note_on_c, 1, 63, 0
3, 66910, Note_on_c, 1, 51, 0
3, 69120, Note_on_c, 1, 63, 64
3, 69120, Note_on_c, 1, 51, 64
3, 74590, Note_on_c, 1, 63, 0
3, 74590, Note_on_c, 1, 51, 0
3, 77040, Note_on_c, 1, 58, 86
3, 77140, Note_on_c, 1, 58, 0
3, 77160, Note_on_c, 1, 58, 86
3, 77260, Note_on_c, 1, 58, 0
3, 77280, Note_on_c, 1, 58, 86
3, 77480, Note_on_c, 1, 58, 0
3, 77520, Note_on_c, 1, 58, 86
3, 77720, Note_on_c, 1, 58, 0
3, 77760, Note_on_c, 1, 63, 86
3, 77760, Note_on_c, 1, 55, 86
3, 77960, Note_on_c, 1, 63, 0
3, 77960, Note_on_c, 1, 55, 0
3, 78000, Note_on_c, 1, 63, 86
3, 78000, Note_on_c, 1, 55, 86
3, 78200, Note_on_c, 1, 63, 0
3, 78200, Note_on_c, 1, 55, 0
3, 78240, Note_on_c, 1, 65, 86
3, 78240, Note_on_c, 1, 58, 86
3, 78440, Note_on_c, 1, 65, 0
3, 78440, Note_on_c, 1, 58, 0
3, 78480, Note_on_c, 1, 65, 86
3, 78480, Note_on_c, 1, 58, 86
3, 78680, Note_on_c, 1, 65, 0
3, 78680, Note_on_c, 1, 58, 0
3, 78720, Note_on_c, 1, 67, 86
3, 78720, Note_on_c, 1, 63, 86
3, 78920, Note_on_c, 1, 67, 0
3, 78920, Note_on_c, 1, 63, 0
3, 78960, Note_on_c, 1, 58, 86
3, 79060, Note_on_c, 1, 58, 0
3, 79080, Note_on_c, 1, 58, 86
3, 79180, Note_on_c, 1, 58, 0
3, 79200, Note_on_c, 1, 58, 86
3, 79400, Note_on_c, 1, 58, 0
3, 79440, Note_on_c, 1, 58, 86
3, 79640, Note_on_c, 1, 58, 0
3, 79680, Note_on_c, 1, 67, 86
3, 79680, Note_on_c, 1, 63, 86
3, 79880, Note_on_c, 1, 67, 0
3, 79880, Note_on_c, 1, 63, 0
3, 79920, Note_on_c, 1, 67, 86
3, 79920, Note_on_c, 1, 63, 86
3, 80120, Note_on_c, 1, 67, 0
3, 80120, Note_on_c, 1, 63, 0
3, 80160, Note_on_c, 1, 65, 86
3, 80160, Note_on_c, 1, 58, 86
3, 80360, Note_on_c, 1, 65, 0
3, 80360, Note_on_c, 1, 58, 0
3, 80400, Note_on_c, 1, 65, 86
3, 80400, Note_on_c, 1, 58, 86
3, 80600, Note_on_c, 1, 65, 0
3, 80600, Note_on_c, 1, 58, 0
3, 80640, Note_on_c, 1, 63, 86
3, 80640, Note_on_c, 1, 55, 86
3, 81040, Note_on_c, 1, 63, 0
3, 81040, Note_on_c, 1, 55, 0
3, 81120, Note_on_c, 1, 63, 86
3, 81120, Note_on_c, 1, 51, 86
3, 81520, Note_on_c, 1, 63, 0
3, 81520, Note_on_c, 1, 51, 0
3, 81600, Note_on_c, 1, 63, 86
3, 81600, Note_on_c, 1, 51, 86
3, 82000, Note_on_c, 1, 63, 0
3, 82000, Note_on_c, 1, 51, 0
3, 103920, Note_on_c, 1, 58, 86
3, 104020, Note_on_c, 1, 58, 0
3, 104040, Note_on_c, 1, 58, 86
3, 104140, Note_on_c, 1, 58, 0
3, 104160, Note_on_c, 1, 58, 86
3, 104360, Note_on_c, 1, 58, 0
3, 104400, Note_on_c, 1, 58, 86
3, 104600, Note_on_c, 1, 58, 0
3, 104640, Note_on_c, 1, 63, 86
3, 104640, Note_on_c, 1, 55, 86
3, 104840, Note_on_c, 1, 63, 0
3, 104840, Note_on_c, 1, 55, 0
3, 104880, Note_on_c, 1, 63, 86
3, 104880, Note_on_c, 1, 55, 86
3, 105080, Note_on_c, 1, 63, 0
3, 105080, Note_on_c, 1, 55, 0
3, 105120, Note_on_c, 1, 65, 86
3, 105120, Note_on_c, 1, 58, 86
3, 105320, Note_on_c, 1, 65, 0
3, 105320, Note_on_c, 1, 58, 0
3, 105360, Note_on_c, 1, 65, 86
3, 105360, Note_on_c, 1, 58, 86
3, 105560, Note_on_c, 1, 65, 0
3, 105560, Note_on_c, 1, 58, 0
3, 105600, Note_on_c, 1, 67, 86
3, 105600, Note_on_c, 1, 63, 86
3, 105800, Note_on_c, 1, 67, 0
3, 105800, Note_on_c, 1, 63, 0
3, 105840, Note_on_c, 1, 58, 86
3, 105940, Note_on_c, 1, 58, 0
3, 105960, Note_on_c, 1, 58, 86
3, 106060, Note_on_c, 1, 58, 0
3, 106080, Note_on_c, 1, 58, 86
3, 106280, Note_on_c, 1, 58, 0
3, 106320, Note_on_c, 1, 58, 86
3, 106520, Note_on_c, 1, 58, 0
3, 106560, Note_on_c, 1, 67, 86
3, 106560, Note_on_c, 1, 63, 86
3, 106760, Note_on_c, 1, 67, 0
3, 106760, Note_on_c, 1, 63, 0
3, 106800, Note_on_c, 1, 67, 86
3, 106800, Note_on_c, 1, 63, 86
3, 107000, Note_on_c, 1, 67, 0
3, 107000, Note_on_c, 1, 63, 0
3, 107040, Note_on_c, 1, 65, 86
3, 107040, Note_on_c, 1, 58, 86
3, 107240, Note_on_c, 1, 65, 0
3, 107240, Note_on_c, 1, 58, 0
3, 107280, Note_on_c, 1, 65, 86
3, 107280, Note_on_c, 1, 58, 86
3, 107480, Note_on_c, 1, 65, 0
3, 107480, Note_on_c, 1, 58, 0
3, 107520, Note_on_c, 1, 63, 86
3, 107520, Note_on_c, 1, 55, 86
3, 107920, Note_on_c, 1, 63, 0
3, 107920, Note_on_c, 1, 55, 0
3, 123120, Note_on_c, 1, 65, 86
3, 123320, Note_on_c, 1, 65, 0
3, 123360, Note_on_c, 1, 65, 86
3, 123560, Note_on_c, 1, 65, 0
3, 123600, Note_on_c, 1, 65, 86
3, 123800, Note_on_c, 1, 65, 0
3, 123840, Note_on_c, 1, 65, 86
3, 124240, Note_on_c, 1, 65, 0
3, 138240, Note_on_c, 1, 65, 64
3, 140160, Control_c, 1, 11, 94
3, 140640, Control_c, 1, 11, 94
3, 140760, Control_c, 1, 11, 97
3, 140880, Control_c, 1, 11, 100
3, 141000, Control_c, 1, 11, 103
3, 141120, Control_c, 1, 11, 106
3, 141240, Control_c, 1, 11, 109
3, 141360, Control_c, 1, 11, 112
3, 141480, Control_c, 1, 11, 115
3, 141600, Control_c, 1, 11, 118
3, 141720, Control_c, 1, 11, 121
3, 141790, Note_on_c, 1, 65, 0
3, 141840, Control_c, 1, 11, 124
3, 141960, Control_c, 1, 11, 127
3, 142080, Note_on_c, 1, 65, 86
3, 142080, Note_on_c, 1, 58, 86
3, 143710, Note_on_c, 1, 65, 0
3, 143710, Note_on_c, 1, 58, 0
3, 144000, Note_on_c, 1, 67, 86
3, 144000, Note_on_c, 1, 63, 86
3, 145630, Note_on_c, 1, 67, 0
3, 145630, Note_on_c, 1, 63, 0
3, 145920, Note_on_c, 1, 65, 86
3, 145920, Note_on_c, 1, 58, 86
3, 147550, Note_on_c, 1, 65, 0
3, 147550, Note_on_c, 1, 58, 0
3, 147840, Note_on_c, 1, 67, 86
3, 147840, Note_on_c, 1, 58, 86
3, 148650, Note_on_c, 1, 67, 0
3, 148650, Note_on_c, 1, 58, 0
3, 148800, Note_on_c, 1, 65, 86
3, 149610, Note_on_c, 1, 65, 0
3, 149760, Note_on_c, 1, 65, 86
3, 149760, Note_on_c, 1, 58, 86
3, 150160, Note_on_c, 1, 65, 0
3, 150160, Note_on_c, 1, 58, 0
3, 150240, Note_on_c, 1, 65, 86
3, 150240, Note_on_c, 1, 63, 86
3, 150640, Note_on_c, 1, 65, 0
3, 150640, Note_on_c, 1, 63, 0
3, 150720, Note_on_c, 1, 65, 86
3, 150720, Note_on_c, 1, 58, 86
3, 151120, Note_on_c, 1, 65, 0
3, 151120, Note_on_c, 1, 58, 0
3, 151200, Note_on_c, 1, 65, 86
3, 151200, Note_on_c, 1, 58, 86
3, 151600, Note_on_c, 1, 65, 0
3, 151600, Note_on_c, 1, 58, 0
3, 151680, Note_on_c, 1, 67, 86
3, 151680, Note_on_c, 1, 63, 86
3, 152490, Note_on_c, 1, 63, 0
3, 152640, Note_on_c, 1, 58, 86
3, 153310, Note_on_c, 1, 67, 0
3, 153450, Note_on_c, 1, 58, 0
3, 153600, Note_on_c, 1, 65, 86
3, 153600, Note_on_c, 1, 58, 86
3, 154000, Note_on_c, 1, 65, 0
3, 154000, Note_on_c, 1, 58, 0
3, 154080, Note_on_c, 1, 65, 86
3, 154380, Note_on_c, 1, 65, 0
3, 154440, Note_on_c, 1, 65, 86
3, 154540, Note_on_c, 1, 65, 0
3, 154560, Note_on_c, 1, 65, 86
3, 154960, Note_on_c, 1, 65, 0
3, 155040, Note_on_c, 1, 65, 86
3, 155340, Note_on_c, 1, 65, 0
3, 155400, Note_on_c, 1, 65, 86
3, 155500, Note_on_c, 1, 65, 0
3, 155520, Note_on_c, 1, 65, 86
3, 155520, Note_on_c, 1, 58, 86
3, 155920, Note_on_c, 1, 65, 0
3, 155920, Note_on_c, 1, 58, 0
3, 193920, Note_on_c, 1, 46, 64
3, 193920, Note_on_c, 1, 58, 64
3, 195840, Control_c, 1, 11, 94
3, 197280, Control_c, 1, 11, 94
3, 197400, Control_c, 1, 11, 94
3, 197520, Control_c, 1, 11, 95
3, 197640, Control_c, 1, 11, 97
3, 197760, Control_c, 1, 11, 97
3, 197880, Control_c, 1, 11, 98
3, 198000, Control_c, 1, 11, 98
3, 198120, Control_c, 1, 11, 100
3, 198240, Control_c, 1, 11, 100
3, 198360, Control_c, 1, 11, 101
3, 198480, Control_c, 1, 11, 103
3, 198600, Control_c, 1, 11, 103
3, 198720, Control_c, 1, 11, 104
3, 198840, Control_c, 1, 11, 104
3, 198960, Control_c, 1, 11, 106
3, 199080, Control_c, 1, 11, 106
3, 199200, Control_c, 1, 11, 107
3, 199320, Control_c, 1, 11, 109
3, 199440, Control_c, 1, 11, 109
3, 199560, Control_c, 1, 11, 110
3, 199680, Control_c, 1, 11, 110
3, 199800, Control_c, 1, 11, 112
3, 199920, Control_c, 1, 11, 112
3, 200040, Control_c, 1, 11, 113
3, 200080, Note_on_c, 1, 46, 0
3, 200080, Note_on_c, 1, 58, 0
3, 200160, Note_on_c, 1, 58, 86
3, 200160, Note_on_c, 1, 46, 86
3, 200160, Control_c, 1, 11, 115
3, 200280, Control_c, 1, 11, 115
3, 200400, Control_c, 1, 11, 116
3, 200520, Control_c, 1, 11, 116
3, 200640, Control_c, 1, 11, 118
3, 200760, Control_c, 1, 11, 118
3, 200880, Control_c, 1, 11, 119
3, 200970, Note_on_c, 1, 58, 0
3, 200970, Note_on_c, 1, 46, 0
3, 201000, Control_c, 1, 11, 121
3, 201120, Note_on_c, 1, 46, 86
3, 201120, Note_on_c, 1, 58, 86
3, 201120, Control_c, 1, 11, 121
3, 201240, Control_c, 1, 11, 122
3, 201360, Control_c, 1, 11, 122
3, 201480, Control_c, 1, 11, 124
3, 201600, Control_c, 1, 11, 124
3, 201720, Control_c, 1, 11, 125
3, 201840, Control_c, 1, 11, 127
3, 202000, Note_on_c, 1, 46, 0
3, 202000, Note_on_c, 1, 58, 0
3, 202080, Note_on_c, 1, 65, 86
3, 202080, Note_on_c, 1, 58, 86
3, 202380, Note_on_c, 1, 65, 0
3, 202380, Note_on_c, 1, 58, 0
3, 202440, Note_on_c, 1, 65, 86
3, 202440, Note_on_c, 1, 58, 86
3, 202540, Note_on_c, 1, 65, 0
3, 202540, Note_on_c, 1, 58, 0
3, 202560, Note_on_c, 1, 65, 86
3, 202560, Note_on_c, 1, 58, 86
3, 202960, Note_on_c, 1, 65, 0
3, 202960, Note_on_c, 1, 58, 0
3, 203040, Note_on_c, 1, 65, 86
3, 203040, Note_on_c, 1, 58, 86
3, 203440, Note_on_c, 1, 65, 0
3, 203440, Note_on_c, 1, 58, 0
3, 203520, Note_on_c, 1, 65, 86
3, 203520, Note_on_c, 1, 58, 86
3, 203920, Note_on_c, 1, 65, 0
3, 203920, Note_on_c, 1, 58, 0
3, 218160, Note_on_c, 1, 63, 86
3, 218160, Note_on_c, 1, 51, 86
3, 218360, Note_on_c, 1, 63, 0
3, 218360, Note_on_c, 1, 51, 0
3, 218400, Note_on_c, 1, 63, 86
3, 218400, Note_on_c, 1, 51, 86
3, 218600, Note_on_c, 1, 63, 0
3, 218600, Note_on_c, 1, 51, 0
3, 218640, Note_on_c, 1, 63, 86
3, 218640, Note_on_c, 1, 51, 86
3, 218840, Note_on_c, 1, 63, 0
3, 218840, Note_on_c, 1, 51, 0
3, 218880, Note_on_c, 1, 63, 86
3, 218880, Note_on_c, 1, 51, 86
3, 222430, Note_on_c, 1, 63, 0
3, 222430, Note_on_c, 1, 51, 0
3, 222720, Note_on_c, 1, 65, 86
3, 222720, Note_on_c, 1, 63, 86
3, 223530, Note_on_c, 1, 65, 0
3, 223530, Note_on_c, 1, 63, 0
3, 223680, Note_on_c, 1, 65, 86
3, 223680, Note_on_c, 1, 58, 86
3, 224490, Note_on_c, 1, 65, 0
3, 224490, Note_on_c, 1, 58, 0
3, 224640, Note_on_c, 1, 67, 86
3, 224640, Note_on_c, 1, 63, 86
3, 225040, Note_on_c, 1, 67, 0
3, 225040, Note_on_c, 1, 63, 0
3, 225120, Note_on_c, 1, 65, 86
3, 225120, Note_on_c, 1, 58, 86
3, 225520, Note_on_c, 1, 65, 0
3, 225520, Note_on_c, 1, 58, 0
3, 225600, Note_on_c, 1, 63, 86
3, 225600, Note_on_c, 1, 55, 86
3, 226000, Note_on_c, 1, 63, 0
3, 226000, Note_on_c, 1, 55, 0
3, 232560, Note_on_c, 1, 58, 86
3, 232660, Note_on_c, 1, 58, 0
3, 232680, Note_on_c, 1, 58, 86
3, 232780, Note_on_c, 1, 58, 0
3, 232800, Note_on_c, 1, 58, 86
3, 233000, Note_on_c, 1, 58, 0
3, 233040, Note_on_c, 1, 58, 86
3, 233240, Note_on_c, 1, 58, 0
3, 233280, Note_on_c, 1, 63, 86
3, 233280, Note_on_c, 1, 55, 86
3, 233480, Note_on_c, 1, 63, 0
3, 233480, Note_on_c, 1, 55, 0
3, 233520, Note_on_c, 1, 63, 86
3, 233520, Note_on_c, 1, 55, 86
3, 233720, Note_on_c, 1, 63, 0
3, 233720, Note_on_c, 1, 55, 0
3, 233760, Note_on_c, 1, 65, 86
3, 233760, Note_on_c, 1, 58, 86
3, 233960, Note_on_c, 1, 65, 0
3, 233960, Note_on_c, 1, 58, 0
3, 234000, Note_on_c, 1, 65, 86
3, 234000, Note_on_c, 1, 58, 86
3, 234200, Note_on_c, 1, 65, 0
3, 234200, Note_on_c, 1, 58, 0
3, 234240, Note_on_c, 1, 67, 86
3, 234240, Note_on_c, 1, 63, 86
3, 234440, Note_on_c, 1, 67, 0
3, 234440, Note_on_c, 1, 63, 0
3, 234480, Note_on_c, 1, 58, 86
3, 234580, Note_on_c, 1, 58, 0
3, 234600, Note_on_c, 1, 58, 86
3, 234700, Note_on_c, 1, 58, 0
3, 234720, Note_on_c, 1, 58, 86
3, 234920, Note_on_c, 1, 58, 0
3, 234960, Note_on_c, 1, 58, 86
3, 235160, Note_on_c, 1, 58, 0
3, 235200, Note_on_c, 1, 67, 86
3, 235200, Note_on_c, 1, 63, 86
3, 235400, Note_on_c, 1, 67, 0
3, 235400, Note_on_c, 1, 63, 0
3, 235440, Note_on_c, 1, 67, 86
3, 235440, Note_on_c, 1, 63, 86
3, 235640, Note_on_c, 1, 67, 0
3, 235640, Note_on_c, 1, 63, 0
3, 235680, Note_on_c, 1, 65, 86
3, 235680, Note_on_c, 1, 58, 86
3, 235880, Note_on_c, 1, 65, 0
3, 235880, Note_on_c, 1, 58, 0
3, 235920, Note_on_c, 1, 65, 86
3, 235920, Note_on_c, 1, 58, 86
3, 236120, Note_on_c, 1, 65, 0
3, 236120, Note_on_c, 1, 58, 0
3, 236160, Note_on_c, 1, 63, 86
3, 236160, Note_on_c, 1, 55, 86
3, 236560, Note_on_c, 1, 63, 0
3, 236560, Note_on_c, 1, 55, 0
3, 247920, Note_on_c, 1, 58, 86
3, 248120, Note_on_c, 1, 58, 0
3, 248160, Note_on_c, 1, 58, 86
3, 248360, Note_on_c, 1, 58, 0
3, 248400, Note_on_c, 1, 58, 86
3, 248600, Note_on_c, 1, 58, 0
3, 248640, Note_on_c, 1, 58, 86
3, 249040, Note_on_c, 1, 58, 0
3, 249120, Note_on_c, 1, 58, 86
3, 249520, Note_on_c, 1, 58, 0
3, 249600, Note_on_c, 1, 58, 64
3, 249600, Note_on_c, 1, 46, 64
3, 251230, Note_on_c, 1, 58, 0
3, 251230, Note_on_c, 1, 46, 0
3, 268800, Note_on_c, 1, 58, 64
3, 268800, Note_on_c, 1, 46, 64
3, 272350, Note_on_c, 1, 58, 0
3, 272350, Note_on_c, 1, 46, 0
3, 276480, Note_on_c, 1, 58, 64
3, 276480, Note_on_c, 1, 46, 64
3, 278400, Control_c, 1, 11, 94
3, 278520, Control_c, 1, 11, 95
3, 278640, Control_c, 1, 11, 97
3, 278760, Control_c, 1, 11, 100
3, 278880, Control_c, 1, 11, 101
3, 279000, Control_c, 1, 11, 104
3, 279120, Control_c, 1, 11, 106
3, 279240, Control_c, 1, 11, 109
3, 279360, Control_c, 1, 11, 110
3, 279480, Control_c, 1, 11, 113
3, 279600, Control_c, 1, 11, 115
3, 279720, Control_c, 1, 11, 118
3, 279840, Control_c, 1, 11, 119
3, 279960, Control_c, 1, 11, 122
3, 280030, Note_on_c, 1, 58, 0
3, 280030, Note_on_c, 1, 46, 0
3, 280080, Control_c, 1, 11, 124
3, 280200, Control_c, 1, 11, 127
3, 280320, Note_on_c, 1, 63, 86
3, 280320, Note_on_c, 1, 51, 86
3, 280720, Note_on_c, 1, 63, 0
3, 280720, Note_on_c, 1, 51, 0
3, 280800, Note_on_c, 1, 63, 86
3, 280800, Note_on_c, 1, 51, 86
3, 281100, Note_on_c, 1, 63, 0
3, 281100, Note_on_c, 1, 51, 0
3, 281160, Note_on_c, 1, 63, 86
3, 281160, Note_on_c, 1, 51, 86
3, 281260, Note_on_c, 1, 63, 0
3, 281260, Note_on_c, 1, 51, 0
3, 281280, Note_on_c, 1, 63, 86
3, 281280, Note_on_c, 1, 51, 86
3, 284560, Note_on_c, 1, 63, 0
3, 284560, Note_on_c, 1, 51, 0
3, 284640, Note_on_c, 1, 63, 86
3, 284640, Note_on_c, 1, 51, 86
3, 284940, Note_on_c, 1, 63, 0
3, 284940, Note_on_c, 1, 51, 0
3, 285000, Note_on_c, 1, 63, 86
3, 285000, Note_on_c, 1, 51, 86
3, 285100, Note_on_c, 1, 63, 0
3, 285100, Note_on_c, 1, 51, 0
3, 285120, Note_on_c, 1, 63, 86
3, 285120, Note_on_c, 1, 51, 86
3, 288000, Control_c, 1, 11, 95
3, 288120, Control_c, 1, 11, 95
3, 288240, Control_c, 1, 11, 96
3, 288360, Control_c, 1, 11, 98
3, 288400, Note_on_c, 1, 63, 0
3, 288400, Note_on_c, 1, 51, 0
3, 288480, Control_c, 1, 11, 99
3, 288480, Note_on_c, 1, 51, 114
3, 288480, Note_on_c, 1, 63, 114
3, 288600, Control_c, 1, 11, 100
3, 288720, Control_c, 1, 11, 101
3, 288780, Note_on_c, 1, 51, 0
3, 288780, Note_on_c, 1, 63, 0
3, 288840, Control_c, 1, 11, 102
3, 288840, Note_on_c, 1, 51, 114
3, 288840, Note_on_c, 1, 63, 114
3, 288940, Note_on_c, 1, 51, 0
3, 288940, Note_on_c, 1, 63, 0
3, 288960, Note_on_c, 1, 51, 114
3, 288960, Note_on_c, 1, 63, 114
3, 288960, Control_c, 1, 11, 103
3, 289080, Control_c, 1, 11, 103
3, 289200, Control_c, 1, 11, 104
3, 289320, Control_c, 1, 11, 105
3, 289440, Control_c, 1, 11, 106
3, 289560, Control_c, 1, 11, 108
3, 289680, Control_c, 1, 11, 109
3, 289800, Control_c, 1, 11, 110
3, 289920, Control_c, 1, 11, 111
3, 290040, Control_c, 1, 11, 112
3, 290160, Control_c, 1, 11, 112
3, 290280, Control_c, 1, 11, 113
3, 290400, Control_c, 1, 11, 114
3, 290520, Control_c, 1, 11, 115
3, 290640, Control_c, 1, 11, 116
3, 290760, Control_c, 1, 11, 118
3, 290880, Control_c, 1, 11, 119
3, 291000, Control_c, 1, 11, 120
3, 291120, Control_c, 1, 11, 120
3, 291240, Control_c, 1, 11, 121
3, 291360, Control_c, 1, 11, 122
3, 291480, Control_c, 1, 11, 123
3, 291600, Control_c, 1, 11, 124
3, 291720, Control_c, 1, 11, 125
3, 291840, Control_c, 1, 11, 127
3, 294160, Note_on_c, 1, 51, 0
3, 294160, Note_on_c, 1, 63, 0
3, 294240, Note_on_c, 1, 63, 83
3, 294240, Note_on_c, 1, 51, 83
3, 294640, Note_on_c, 1, 63, 0
3, 294640, Note_on_c, 1, 51, 0
3, 294720, Note_on_c, 1, 63, 83
3, 294720, Note_on_c, 1, 51, 83
3, 295120, Note_on_c, 1, 63, 0
3, 295120, Note_on_c, 1, 51, 0
3, 295200, Note_on_c, 1, 63, 83
3, 295200, Note_on_c, 1, 51, 83
3, 295600, Note_on_c, 1, 63, 0
3, 295600, Note_on_c, 1, 51, 0
3, 295680, Note_on_c, 1, 58, 83
3, 295680, Note_on_c, 1, 46, 83
3, 296490, Note_on_c, 1, 58, 0
3, 296490, Note_on_c, 1, 46, 0
3, 324420, Note_on_c, 1, 63, 86
3, 324420, Note_on_c, 1, 51, 86
3, 329890, Note_on_c, 1, 63, 0
3, 329890, Note_on_c, 1, 51, 0
3, 330180, Note_on_c, 1, 65, 86
3, 330180, Note_on_c, 1, 63, 86
3, 330990, Note_on_c, 1, 65, 0
3, 330990, Note_on_c, 1, 63, 0
3, 331140, Note_on_c, 1, 65, 86
3, 331140, Note_on_c, 1, 58, 86
3, 331950, Note_on_c, 1, 65, 0
3, 331950, Note_on_c, 1, 58, 0
3, 332100, Note_on_c, 1, 63, 86
3, 332100, Note_on_c, 1, 51, 86
3, 333260, Note_on_c, 1, 63, 0
3, 333260, Note_on_c, 1, 51, 0
3, 333300, Note_on_c, 1, 63, 86
3, 333300, Note_on_c, 1, 51, 86
3, 333500, Note_on_c, 1, 63, 0
3, 333500, Note_on_c, 1, 51, 0
3, 333540, Note_on_c, 1, 63, 86
3, 333540, Note_on_c, 1, 51, 86
3, 333740, Note_on_c, 1, 63, 0
3, 333740, Note_on_c, 1, 51, 0
3, 333780, Note_on_c, 1, 63, 86
3, 333780, Note_on_c, 1, 51, 86
3, 333980, Note_on_c, 1, 63, 0
3, 333980, Note_on_c, 1, 51, 0
3, 334020, Note_on_c, 1, 63, 86
3, 334020, Note_on_c, 1, 51, 86
3, 335180, Note_on_c, 1, 63, 0
3, 335180, Note_on_c, 1, 51, 0
3, 335220, Note_on_c, 1, 63, 86
3, 335220, Note_on_c, 1, 51, 86
3, 335420, Note_on_c, 1, 63, 0
3, 335420, Note_on_c, 1, 51, 0
3, 335460, Note_on_c, 1, 63, 86
3, 335460, Note_on_c, 1, 51, 86
3, 335660, Note_on_c, 1, 63, 0
3, 335660, Note_on_c, 1, 51, 0
3, 335700, Note_on_c, 1, 63, 86
3, 335700, Note_on_c, 1, 51, 86
3, 335900, Note_on_c, 1, 63, 0
3, 335900, Note_on_c, 1, 51, 0
3, 335940, Note_on_c, 1, 67, 86
3, 335940, Note_on_c, 1, 63, 86
3, 336340, Note_on_c, 1, 67, 0
3, 336340, Note_on_c, 1, 63, 0
3, 336420, Note_on_c, 1, 67, 86
3, 336420, Note_on_c, 1, 63, 86
3, 336720, Note_on_c, 1, 67, 0
3, 336720, Note_on_c, 1, 63, 0
3, 336780, Note_on_c, 1, 67, 86
3, 336780, Note_on_c, 1, 63, 86
3, 336880, Note_on_c, 1, 67, 0
3, 336880, Note_on_c, 1, 63, 0
3, 336900, Note_on_c, 1, 65, 86
3, 336900, Note_on_c, 1, 58, 86
3, 337300, Note_on_c, 1, 65, 0
3, 337300, Note_on_c, 1, 58, 0
3, 337380, Note_on_c, 1, 65, 86
3, 337380, Note_on_c, 1, 58, 86
3, 337680, Note_on_c, 1, 65, 0
3, 337680, Note_on_c, 1, 58, 0
3, 337740, Note_on_c, 1, 65, 86
3, 337740, Note_on_c, 1, 58, 86
3, 337840, Note_on_c, 1, 65, 0
3, 337840, Note_on_c, 1, 58, 0
3, 337860, Note_on_c, 1, 63, 86
3, 337860, Note_on_c, 1, 55, 86
3, 338260, Note_on_c, 1, 63, 0
3, 338260, Note_on_c, 1, 55, 0
3, 345540, Note_on_c, 1, 63, 64
3, 345540, Note_on_c, 1, 51, 64
3, 351010, Note_on_c, 1, 63, 0
3, 351010, Note_on_c, 1, 51, 0
3, 353460, Note_on_c, 1, 58, 86
3, 353560, Note_on_c, 1, 58, 0
3, 353580, Note_on_c, 1, 58, 86
3, 353680, Note_on_c, 1, 58, 0
3, 353700, Note_on_c, 1, 58, 86
3, 353900, Note_on_c, 1, 58, 0
3, 353940, Note_on_c, 1, 58, 86
3, 354140, Note_on_c, 1, 58, 0
3, 354180, Note_on_c, 1, 63, 86
3, 354180, Note_on_c, 1, 55, 86
3, 354380, Note_on_c, 1, 63, 0
3, 354380, Note_on_c, 1, 55, 0
3, 354420, Note_on_c, 1, 63, 86
3, 354420, Note_on_c, 1, 55, 86
3, 354620, Note_on_c, 1, 63, 0
3, 354620, Note_on_c, 1, 55, 0
3, 354660, Note_on_c, 1, 65, 86
3, 354660, Note_on_c, 1, 58, 86
3, 354860, Note_on_c, 1, 65, 0
3, 354860, Note_on_c, 1, 58, 0
3, 354900, Note_on_c, 1, 65, 86
3, 354900, Note_on_c, 1, 58, 86
3, 355100, Note_on_c, 1, 65, 0
3, 355100, Note_on_c, 1, 58, 0
3, 355140, Note_on_c, 1, 67, 86
3, 355140, Note_on_c, 1, 63, 86
3, 355340, Note_on_c, 1, 67, 0
3, 355340, Note_on_c, 1, 63, 0
3, 355380, Note_on_c, 1, 58, 86
3, 355480, Note_on_c, 1, 58, 0
3, 355500, Note_on_c, 1, 58, 86
3, 355600, Note_on_c, 1, 58, 0
3, 355620, Note_on_c, 1, 58, 86
3, 355820, Note_on_c, 1, 58, 0
3, 355860, Note_on_c, 1, 58, 86
3, 356060, Note_on_c, 1, 58, 0
3, 356100, Note_on_c, 1, 67, 86
3, 356100, Note_on_c, 1, 63, 86
3, 356300, Note_on_c, 1, 67, 0
3, 356300, Note_on_c, 1, 63, 0
3, 356340, Note_on_c, 1, 67, 86
3, 356340, Note_on_c, 1, 63, 86
3, 356540, Note_on_c, 1, 67, 0
3, 356540, Note_on_c, 1, 63, 0
3, 356580, Note_on_c, 1, 65, 86
3, 356580, Note_on_c, 1, 58, 86
3, 356780, Note_on_c, 1, 65, 0
3, 356780, Note_on_c, 1, 58, 0
3, 356820, Note_on_c, 1, 65, 86
3, 356820, Note_on_c, 1, 58, 86
3, 357020, Note_on_c, 1, 65, 0
3, 357020, Note_on_c, 1, 58, 0
3, 357060, Note_on_c, 1, 63, 86
3, 357060, Note_on_c, 1, 55, 86
3, 357460, Note_on_c, 1, 63, 0
3, 357460, Note_on_c, 1, 55, 0
3, 358020, Note_on_c, 1, 51, 86
3, 358220, Note_on_c, 1, 51, 0
3, 358260, Note_on_c, 1, 55, 86
3, 358460, Note_on_c, 1, 55, 0
3, 358500, Note_on_c, 1, 58, 86
3, 358700, Note_on_c, 1, 58, 0
3, 358740, Note_on_c, 1, 63, 86
3, 358940, Note_on_c, 1, 63, 0
3, 358980, Note_on_c, 1, 51, 86
3, 359380, Note_on_c, 1, 51, 0
3, 359940, Note_on_c, 1, 51, 86
3, 360140, Note_on_c, 1, 51, 0
3, 360180, Note_on_c, 1, 55, 86
3, 360380, Note_on_c, 1, 55, 0
3, 360420, Note_on_c, 1, 58, 86
3, 360620, Note_on_c, 1, 58, 0
3, 360660, Note_on_c, 1, 63, 86
3, 360860, Note_on_c, 1, 63, 0
3, 360900, Note_on_c, 1, 51, 86
3, 361300, Note_on_c, 1, 51, 0
3, 361860, Note_on_c, 1, 63, 86
3, 361860, Note_on_c, 1, 55, 86
3, 362260, Note_on_c, 1, 63, 0
3, 362260, Note_on_c, 1, 55, 0
3, 362820, Note_on_c, 1, 63, 86
3, 362820, Note_on_c, 1, 55, 86
3, 363630, Note_on_c, 1, 63, 0
3, 363630, Note_on_c, 1, 55, 0
3, 364800, End_track
4, 0, Start_track
4, 0, Title_t, "Corno principale                    "
4, 0, Control_c, 2, 7, 115
4, 160, Control_c, 2, 91, 100
4, 320, Control_c, 2, 93, 10
4, 480, Control_c, 2, 10, 60
4, 640, Control_c, 2, 0, 0
4, 640, Control_c, 2, 32, 0
4, 640, Program_c, 2, 60
4, 800, Control_c, 2, 121, 0
4, 960, Pitch_bend_c, 2, 8192
4, 1120, Control_c, 2, 1, 0
4, 1280, Control_c, 2, 11, 127
4, 1440, Control_c, 2, 65, 0
4, 1600, Control_c, 2, 66, 0
4, 1760, Control_c, 2, 67, 0
4, 82560, Note_on_c, 2, 63, 88
4, 84190, Note_on_c, 2, 63, 0
4, 84480, Note_on_c, 2, 67, 88
4, 86110, Note_on_c, 2, 67, 0
4, 86400, Note_on_c, 2, 70, 88
4, 87210, Note_on_c, 2, 70, 0
4, 87360, Note_on_c, 2, 68, 88
4, 87600, Note_on_c, 2, 68, 0
4, 87600, Note_on_c, 2, 67, 88
4, 87840, Note_on_c, 2, 67, 0
4, 87840, Note_on_c, 2, 65, 88
4, 88080, Note_on_c, 2, 65, 0
4, 88080, Note_on_c, 2, 63, 88
4, 88320, Note_on_c, 2, 63, 0
4, 88320, Note_on_c, 2, 65, 88
4, 89040, Note_on_c, 2, 65, 0
4, 89040, Note_on_c, 2, 67, 88
4, 89160, Note_on_c, 2, 67, 0
4, 89160, Note_on_c, 2, 68, 88
4, 89280, Note_on_c, 2, 68, 0
4, 89280, Note_on_c, 2, 67, 88
4, 89680, Note_on_c, 2, 67, 0
4, 90240, Note_on_c, 2, 60, 88
4, 90850, Note_on_c, 2, 60, 0
4, 90960, Note_on_c, 2, 63, 88
4, 91160, Note_on_c, 2, 63, 0
4, 91200, Note_on_c, 2, 68, 88
4, 91810, Note_on_c, 2, 68, 0
4, 91920, Note_on_c, 2, 72, 88
4, 92120, Note_on_c, 2, 72, 0
4, 92160, Note_on_c, 2, 70, 88
4, 92970, Note_on_c, 2, 70, 0
4, 93120, Note_on_c, 2, 68, 88
4, 93360, Note_on_c, 2, 68, 0
4, 93360, Note_on_c, 2, 67, 88
4, 93600, Note_on_c, 2, 67, 0
4, 93600, Note_on_c, 2, 65, 88
4, 93840, Note_on_c, 2, 65, 0
4, 93840, Note_on_c, 2, 63, 88
4, 94040, Note_on_c, 2, 63, 0
4, 94080, Note_on_c, 2, 62, 88
4, 94320, Note_on_c, 2, 62, 0
4, 94320, Note_on_c, 2, 63, 88
4, 94560, Note_on_c, 2, 63, 0
4, 94560, Note_on_c, 2, 65, 88
4, 94800, Note_on_c, 2, 65, 0
4, 94800, Note_on_c, 2, 67, 88
4, 95040, Note_on_c, 2, 67, 0
4, 95040, Note_on_c, 2, 68, 88
4, 95440, Note_on_c, 2, 68, 0
4, 95520, Note_on_c, 2, 68, 88
4, 95920, Note_on_c, 2, 68, 0
4, 96000, Note_on_c, 2, 66, 88
4, 96480, Note_on_c, 2, 66, 0
4, 96480, Note_on_c, 2, 67, 88
4, 96960, Note_on_c, 2, 67, 0
4, 97920, Note_on_c, 2, 60, 88
4, 98530, Note_on_c, 2, 60, 0
4, 98640, Note_on_c, 2, 63, 88
4, 98840, Note_on_c, 2, 63, 0
4, 98880, Note_on_c, 2, 68, 88
4, 99490, Note_on_c, 2, 68, 0
4, 99600, Note_on_c, 2, 72, 88
4, 99800, Note_on_c, 2, 72, 0
4, 99840, Note_on_c, 2, 70, 88
4, 101000, Note_on_c, 2, 70, 0
4, 101040, Note_on_c, 2, 72, 88
4, 101160, Note_on_c, 2, 72, 0
4, 101160, Note_on_c, 2, 70, 88
4, 101280, Note_on_c, 2, 70, 0
4, 101280, Note_on_c, 2, 68, 88
4, 101400, Note_on_c, 2, 68, 0
4, 101400, Note_on_c, 2, 67, 88
4, 101520, Note_on_c, 2, 67, 0
4, 101520, Note_on_c, 2, 65, 88
4, 101580, Note_on_c, 2, 65, 0
4, 101640, Note_on_c, 2, 63, 88
4, 101700, Note_on_c, 2, 63, 0
4, 101760, Note_on_c, 2, 70, 88
4, 102000, Note_on_c, 2, 70, 0
4, 102000, Note_on_c, 2, 68, 88
4, 102200, Note_on_c, 2, 68, 0
4, 102240, Note_on_c, 2, 67, 88
4, 103050, Note_on_c, 2, 67, 0
4, 103200, Note_on_c, 2, 65, 88
4, 103600, Note_on_c, 2, 65, 0
4, 103680, Note_on_c, 2, 63, 88
4, 104080, Note_on_c, 2, 63, 0
4, 108000, Note_on_c, 2, 58, 88
4, 108400, Note_on_c, 2, 58, 0
4, 108480, Note_on_c, 2, 63, 88
4, 108880, Note_on_c, 2, 63, 0
4, 108960, Note_on_c, 2, 67, 88
4, 109360, Note_on_c, 2, 67, 0
4, 109440, Note_on_c, 2, 70, 88
4, 110660, Note_on_c, 2, 70, 0
4, 110880, Note_on_c, 2, 63, 88
4, 111280, Note_on_c, 2, 63, 0
4, 111360, Note_on_c, 2, 64, 88
4, 111840, Note_on_c, 2, 64, 0
4, 111840, Note_on_c, 2, 65, 88
4, 112560, Note_on_c, 2, 65, 0
4, 112560, Note_on_c, 2, 65, 88
4, 112760, Note_on_c, 2, 65, 0
4, 112800, Note_on_c, 2, 65, 88
4, 113000, Note_on_c, 2, 65, 0
4, 113040, Note_on_c, 2, 65, 88
4, 113240, Note_on_c, 2, 65, 0
4, 113280, Note_on_c, 2, 65, 88
4, 113520, Note_on_c, 2, 65, 0
4, 113520, Note_on_c, 2, 63, 88
4, 113760, Note_on_c, 2, 63, 0
4, 113760, Note_on_c, 2, 63, 88
4, 114480, Note_on_c, 2, 63, 0
4, 114480, Note_on_c, 2, 65, 88
4, 114600, Note_on_c, 2, 65, 0
4, 114600, Note_on_c, 2, 67, 88
4, 114720, Note_on_c, 2, 67, 0
4, 114720, Note_on_c, 2, 65, 88
4, 114920, Note_on_c, 2, 65, 0
4, 114960, Note_on_c, 2, 63, 88
4, 115160, Note_on_c, 2, 63, 0
4, 115200, Note_on_c, 2, 65, 88
4, 115810, Note_on_c, 2, 65, 0
4, 115920, Note_on_c, 2, 63, 88
4, 116120, Note_on_c, 2, 63, 0
4, 116160, Note_on_c, 2, 62, 88
4, 116560, Note_on_c, 2, 62, 0
4, 117120, Note_on_c, 2, 65, 88
4, 117520, Note_on_c, 2, 65, 0
4, 117600, Note_on_c, 2, 70, 88
4, 118410, Note_on_c, 2, 70, 0
4, 118560, Note_on_c, 2, 68, 88
4, 118960, Note_on_c, 2, 68, 0
4, 119040, Note_on_c, 2, 66, 88
4, 119440, Note_on_c, 2, 66, 0
4, 119520, Note_on_c, 2, 67, 88
4, 120130, Note_on_c, 2, 67, 0
4, 120240, Note_on_c, 2, 66, 88
4, 120480, Note_on_c, 2, 66, 0
4, 120480, Note_on_c, 2, 67, 88
4, 120720, Note_on_c, 2, 67, 0
4, 120720, Note_on_c, 2, 66, 88
4, 120960, Note_on_c, 2, 66, 0
4, 120960, Note_on_c, 2, 67, 88
4, 121160, Note_on_c, 2, 67, 0
4, 121440, Note_on_c, 2, 69, 88
4, 121640, Note_on_c, 2, 69, 0
4, 121920, Note_on_c, 2, 70, 88
4, 122120, Note_on_c, 2, 70, 0
4, 122400, Note_on_c, 2, 72, 88
4, 122600, Note_on_c, 2, 72, 0
4, 122880, Note_on_c, 2, 65, 88
4, 123280, Note_on_c, 2, 65, 0
4, 124320, Note_on_c, 2, 65, 88
4, 124720, Note_on_c, 2, 65, 0
4, 124800, Note_on_c, 2, 63, 88
4, 125960, Note_on_c, 2, 63, 0
4, 126000, Note_on_c, 2, 65, 88
4, 126100, Note_on_c, 2, 65, 0
4, 126120, Note_on_c, 2, 67, 88
4, 126220, Note_on_c, 2, 67, 0
4, 126240, Note_on_c, 2, 69, 88
4, 126340, Note_on_c, 2, 69, 0
4, 126360, Note_on_c, 2, 70, 88
4, 126460, Note_on_c, 2, 70, 0
4, 126480, Note_on_c, 2, 72, 88
4, 126580, Note_on_c, 2, 72, 0
4, 126600, Note_on_c, 2, 70, 88
4, 126700, Note_on_c, 2, 70, 0
4, 126720, Note_on_c, 2, 69, 88
4, 127120, Note_on_c, 2, 69, 0
4, 128640, Note_on_c, 2, 65, 88
4, 129800, Note_on_c, 2, 65, 0
4, 129840, Note_on_c, 2, 67, 88
4, 129940, Note_on_c, 2, 67, 0
4, 129960, Note_on_c, 2, 69, 88
4, 130060, Note_on_c, 2, 69, 0
4, 130080, Note_on_c, 2, 70, 88
4, 130180, Note_on_c, 2, 70, 0
4, 130200, Note_on_c, 2, 72, 88
4, 130300, Note_on_c, 2, 72, 0
4, 130320, Note_on_c, 2, 74, 88
4, 130420, Note_on_c, 2, 74, 0
4, 130440, Note_on_c, 2, 72, 88
4, 130540, Note_on_c, 2, 72, 0
4, 130560, Note_on_c, 2, 70, 88
4, 130960, Note_on_c, 2, 70, 0
4, 132480, Note_on_c, 2, 63, 88
4, 133640, Note_on_c, 2, 63, 0
4, 133680, Note_on_c, 2, 65, 88
4, 133780, Note_on_c, 2, 65, 0
4, 133800, Note_on_c, 2, 67, 88
4, 133900, Note_on_c, 2, 67, 0
4, 133920, Note_on_c, 2, 69, 88
4, 134020, Note_on_c, 2, 69, 0
4, 134040, Note_on_c, 2, 70, 88
4, 134140, Note_on_c, 2, 70, 0
4, 134160, Note_on_c, 2, 72, 88
4, 134260, Note_on_c, 2, 72, 0
4, 134280, Note_on_c, 2, 74, 88
4, 134380, Note_on_c, 2, 74, 0
4, 134400, Note_on_c, 2, 75, 88
4, 134800, Note_on_c, 2, 75, 0
4, 135360, Note_on_c, 2, 63, 88
4, 136170, Note_on_c, 2, 63, 0
4, 136320, Note_on_c, 2, 62, 88
4, 137130, Note_on_c, 2, 62, 0
4, 137280, Note_on_c, 2, 67, 88
4, 138090, Note_on_c, 2, 67, 0
4, 138240, Note_on_c, 2, 65, 88
4, 139400, Note_on_c, 2, 65, 0
4, 139440, Note_on_c, 2, 67, 88
4, 139680, Note_on_c, 2, 67, 0
4, 139680, Note_on_c, 2, 69, 88
4, 139920, Note_on_c, 2, 69, 0
4, 139920, Note_on_c, 2, 70, 88
4, 140160, Note_on_c, 2, 70, 0
4, 140160, Note_on_c, 2, 68, 88
4, 140220, Note_on_c, 2, 68, 0
4, 140220, Note_on_c, 2, 70, 88
4, 140280, Note_on_c, 2, 70, 0
4, 140280, Note_on_c, 2, 68, 88
4, 140340, Note_on_c, 2, 68, 0
4, 140340, Note_on_c, 2, 70, 88
4, 140400, Note_on_c, 2, 70, 0
4, 140400, Note_on_c, 2, 68, 88
4, 140460, Note_on_c, 2, 68, 0
4, 140460, Note_on_c, 2, 70, 88
4, 140520, Note_on_c, 2, 70, 0
4, 140520, Note_on_c, 2, 68, 88
4, 140580, Note_on_c, 2, 68, 0
4, 140580, Control_c, 2, 11, 106
4, 140580, Note_on_c, 2, 70, 105
4, 140640, Note_on_c, 2, 70, 0
4, 140640, Control_c, 2, 11, 108
4, 140640, Note_on_c, 2, 68, 105
4, 140700, Note_on_c, 2, 68, 0
4, 140700, Control_c, 2, 11, 110
4, 140700, Note_on_c, 2, 70, 105
4, 140760, Note_on_c, 2, 70, 0
4, 140760, Control_c, 2, 11, 111
4, 140760, Note_on_c, 2, 68, 105
4, 140820, Note_on_c, 2, 68, 0
4, 140820, Control_c, 2, 11, 113
4, 140820, Note_on_c, 2, 70, 105
4, 140880, Note_on_c, 2, 70, 0
4, 140880, Control_c, 2, 11, 114
4, 140880, Note_on_c, 2, 68, 105
4, 140940, Note_on_c, 2, 68, 0
4, 140940, Control_c, 2, 11, 117
4, 140940, Note_on_c, 2, 70, 105
4, 141000, Note_on_c, 2, 70, 0
4, 141000, Control_c, 2, 11, 118
4, 141000, Note_on_c, 2, 68, 105
4, 141060, Note_on_c, 2, 68, 0
4, 141060, Control_c, 2, 11, 120
4, 141060, Note_on_c, 2, 70, 105
4, 141120, Note_on_c, 2, 70, 0
4, 141120, Control_c, 2, 11, 122
4, 141120, Note_on_c, 2, 68, 105
4, 141180, Note_on_c, 2, 68, 0
4, 141180, Control_c, 2, 11, 123
4, 141180, Note_on_c, 2, 70, 105
4, 141240, Note_on_c, 2, 70, 0
4, 141240, Control_c, 2, 11, 125
4, 141240, Note_on_c, 2, 68, 105
4, 141300, Note_on_c, 2, 68, 0
4, 141300, Note_on_c, 2, 70, 88
4, 141360, Note_on_c, 2, 70, 0
4, 141360, Control_c, 2, 11, 127
4, 141360, Note_on_c, 2, 68, 88
4, 141420, Note_on_c, 2, 68, 0
4, 141420, Note_on_c, 2, 70, 88
4, 141480, Note_on_c, 2, 70, 0
4, 141480, Note_on_c, 2, 68, 88
4, 141540, Note_on_c, 2, 68, 0
4, 141540, Note_on_c, 2, 70, 88
4, 141600, Note_on_c, 2, 70, 0
4, 141600, Note_on_c, 2, 68, 88
4, 141660, Note_on_c, 2, 68, 0
4, 141660, Note_on_c, 2, 70, 88
4, 141720, Note_on_c, 2, 70, 0
4, 141720, Note_on_c, 2, 68, 88
4, 141780, Note_on_c, 2, 68, 0
4, 141780, Note_on_c, 2, 70, 88
4, 141840, Note_on_c, 2, 70, 0
4, 141840, Note_on_c, 2, 68, 88
4, 141900, Note_on_c, 2, 68, 0
4, 141900, Note_on_c, 2, 70, 88
4, 141960, Note_on_c, 2, 70, 0
4, 141960, Note_on_c, 2, 67, 88
4, 142020, Note_on_c, 2, 67, 0
4, 142020, Note_on_c, 2, 68, 88
4, 142080, Note_on_c, 2, 68, 0
4, 142080, Note_on_c, 2, 70, 86
4, 142560, Note_on_c, 2, 70, 0
4, 161280, Note_on_c, 2, 67, 79
4, 162090, Note_on_c, 2, 67, 0
4, 162240, Note_on_c, 2, 65, 79
4, 162480, Note_on_c, 2, 65, 0
4, 162480, Note_on_c, 2, 63, 79
4, 162720, Note_on_c, 2, 63, 0
4, 162720, Note_on_c, 2, 62, 79
4, 162960, Note_on_c, 2, 62, 0
4, 162960, Note_on_c, 2, 60, 79
4, 163160, Note_on_c, 2, 60, 0
4, 163200, Note_on_c, 2, 60, 79
4, 164010, Note_on_c, 2, 60, 0
4, 164160, Note_on_c, 2, 59, 79
4, 164560, Note_on_c, 2, 59, 0
4, 165120, Note_on_c, 2, 68, 79
4, 165930, Note_on_c, 2, 68, 0
4, 166080, Note_on_c, 2, 67, 79
4, 166320, Note_on_c, 2, 67, 0
4, 166320, Note_on_c, 2, 65, 79
4, 166560, Note_on_c, 2, 65, 0
4, 166560, Note_on_c, 2, 63, 79
4, 166800, Note_on_c, 2, 63, 0
4, 166800, Note_on_c, 2, 62, 79
4, 167040, Note_on_c, 2, 62, 0
4, 167040, Note_on_c, 2, 62, 79
4, 167760, Note_on_c, 2, 62, 0
4, 167760, Note_on_c, 2, 63, 79
4, 167880, Note_on_c, 2, 63, 0
4, 167880, Note_on_c, 2, 62, 79
4, 168000, Note_on_c, 2, 62, 0
4, 168000, Note_on_c, 2, 60, 79
4, 168400, Note_on_c, 2, 60, 0
4, 168720, Note_on_c, 2, 60, 79
4, 168920, Note_on_c, 2, 60, 0
4, 168960, Note_on_c, 2, 61, 79
4, 169770, Note_on_c, 2, 61, 0
4, 169920, Note_on_c, 2, 64, 79
4, 170730, Note_on_c, 2, 64, 0
4, 170880, Note_on_c, 2, 65, 79
4, 171490, Note_on_c, 2, 65, 0
4, 171600, Note_on_c, 2, 67, 79
4, 171800, Note_on_c, 2, 67, 0
4, 171840, Note_on_c, 2, 68, 79
4, 172240, Note_on_c, 2, 68, 0
4, 172320, Note_on_c, 2, 65, 79
4, 172720, Note_on_c, 2, 65, 0
4, 172800, Note_on_c, 2, 63, 79
4, 173200, Note_on_c, 2, 63, 0
4, 173280, Note_on_c, 2, 67, 79
4, 173890, Note_on_c, 2, 67, 0
4, 174000, Note_on_c, 2, 65, 79
4, 174200, Note_on_c, 2, 65, 0
4, 174240, Note_on_c, 2, 63, 79
4, 174440, Note_on_c, 2, 63, 0
4, 174480, Note_on_c, 2, 62, 79
4, 174680, Note_on_c, 2, 62, 0
4, 174720, Note_on_c, 2, 60, 79
4, 175120, Note_on_c, 2, 60, 0
4, 176160, Note_on_c, 2, 63, 79
4, 176560, Note_on_c, 2, 63, 0
4, 176640, Note_on_c, 2, 63, 79
4, 177450, Note_on_c, 2, 63, 0
4, 177600, Note_on_c, 2, 67, 79
4, 177840, Note_on_c, 2, 67, 0
4, 177840, Note_on_c, 2, 63, 79
4, 178080, Note_on_c, 2, 63, 0
4, 178080, Note_on_c, 2, 67, 79
4, 178320, Note_on_c, 2, 67, 0
4, 178320, Note_on_c, 2, 63, 79
4, 178560, Note_on_c, 2, 63, 0
4, 178560, Note_on_c, 2, 68, 79
4, 178800, Note_on_c, 2, 68, 0
4, 178800, Note_on_c, 2, 63, 79
4, 179040, Note_on_c, 2, 63, 0
4, 179040, Note_on_c, 2, 63, 79
4, 179440, Note_on_c, 2, 63, 0
4, 180000, Note_on_c, 2, 60, 79
4, 180400, Note_on_c, 2, 60, 0
4, 180480, Note_on_c, 2, 60, 79
4, 181290, Note_on_c, 2, 60, 0
4, 181440, Note_on_c, 2, 64, 79
4, 181680, Note_on_c, 2, 64, 0
4, 181680, Note_on_c, 2, 60, 79
4, 181920, Note_on_c, 2, 60, 0
4, 181920, Note_on_c, 2, 64, 79
4, 182160, Note_on_c, 2, 64, 0
4, 182160, Note_on_c, 2, 60, 79
4, 182400, Note_on_c, 2, 60, 0
4, 182400, Note_on_c, 2, 65, 79
4, 182640, Note_on_c, 2, 65, 0
4, 182640, Note_on_c, 2, 60, 79
4, 182880, Note_on_c, 2, 60, 0
4, 182880, Note_on_c, 2, 60, 79
4, 183280, Note_on_c, 2, 60, 0
4, 183840, Note_on_c, 2, 60, 79
4, 184240, Note_on_c, 2, 60, 0
4, 184320, Note_on_c, 2, 68, 79
4, 185130, Note_on_c, 2, 68, 0
4, 185280, Note_on_c, 2, 67, 79
4, 186090, Note_on_c, 2, 67, 0
4, 186240, Note_on_c, 2, 64, 79
4, 186480, Note_on_c, 2, 64, 0
4, 186480, Note_on_c, 2, 65, 79
4, 186720, Note_on_c, 2, 65, 0
4, 186720, Note_on_c, 2, 65, 79
4, 187330, Note_on_c, 2, 65, 0
4, 187440, Note_on_c, 2, 66, 79
4, 187680, Note_on_c, 2, 66, 0
4, 187680, Note_on_c, 2, 67, 79
4, 187920, Note_on_c, 2, 67, 0
4, 187920, Note_on_c, 2, 63, 79
4, 188160, Note_on_c, 2, 63, 0
4, 188160, Note_on_c, 2, 70, 79
4, 190280, Note_on_c, 2, 70, 0
4, 190320, Note_on_c, 2, 58, 79
4, 190520, Note_on_c, 2, 58, 0
4, 190560, Note_on_c, 2, 58, 79
4, 190760, Note_on_c, 2, 58, 0
4, 190800, Note_on_c, 2, 58, 79
4, 191000, Note_on_c, 2, 58, 0
4, 191040, Note_on_c, 2, 58, 79
4, 191240, Note_on_c, 2, 58, 0
4, 191280, Note_on_c, 2, 60, 79
4, 191380, Note_on_c, 2, 60, 0
4, 191400, Note_on_c, 2, 62, 79
4, 191500, Note_on_c, 2, 62, 0
4, 191520, Note_on_c, 2, 63, 79
4, 191620, Note_on_c, 2, 63, 0
4, 191640, Note_on_c, 2, 65, 79
4, 191740, Note_on_c, 2, 65, 0
4, 191760, Note_on_c, 2, 67, 79
4, 191860, Note_on_c, 2, 67, 0
4, 191880, Note_on_c, 2, 69, 79
4, 191980, Note_on_c, 2, 69, 0
4, 192000, Note_on_c, 2, 70, 79
4, 192400, Note_on_c, 2, 70, 0
4, 211200, Note_on_c, 2, 63, 79
4, 212830, Note_on_c, 2, 63, 0
4, 213120, Note_on_c, 2, 67, 79
4, 214750, Note_on_c, 2, 67, 0
4, 215040, Note_on_c, 2, 70, 79
4, 215850, Note_on_c, 2, 70, 0
4, 216000, Note_on_c, 2, 68, 79
4, 216240, Note_on_c, 2, 68, 0
4, 216240, Note_on_c, 2, 67, 79
4, 216480, Note_on_c, 2, 67, 0
4, 216480, Note_on_c, 2, 65, 79
4, 216720, Note_on_c, 2, 65, 0
4, 216720, Note_on_c, 2, 63, 79
4, 216960, Note_on_c, 2, 63, 0
4, 216960, Note_on_c, 2, 65, 79
4, 217680, Note_on_c, 2, 65, 0
4, 217680, Note_on_c, 2, 67, 79
4, 217800, Note_on_c, 2, 67, 0
4, 217800, Note_on_c, 2, 68, 79
4, 217920, Note_on_c, 2, 68, 0
4, 217920, Note_on_c, 2, 67, 79
4, 218320, Note_on_c, 2, 67, 0
4, 226560, Note_on_c, 2, 60, 79
4, 227170, Note_on_c, 2, 60, 0
4, 227280, Note_on_c, 2, 63, 79
4, 227480, Note_on_c, 2, 63, 0
4, 227520, Note_on_c, 2, 68, 79
4, 228130, Note_on_c, 2, 68, 0
4, 228240, Note_on_c, 2, 72, 79
4, 228440, Note_on_c, 2, 72, 0
4, 228480, Note_on_c, 2, 70, 79
4, 229600, Note_on_c, 2, 70, 0
4, 229600, Note_on_c, 2, 63, 79
4, 229760, Note_on_c, 2, 63, 0
4, 229760, Note_on_c, 2, 65, 79
4, 229920, Note_on_c, 2, 65, 0
4, 229920, Note_on_c, 2, 67, 79
4, 230080, Note_on_c, 2, 67, 0
4, 230080, Note_on_c, 2, 68, 79
4, 230240, Note_on_c, 2, 68, 0
4, 230240, Note_on_c, 2, 70, 79
4, 230400, Note_on_c, 2, 70, 0
4, 230400, Note_on_c, 2, 70, 79
4, 230640, Note_on_c, 2, 70, 0
4, 230640, Note_on_c, 2, 68, 79
4, 230880, Note_on_c, 2, 68, 0
4, 230880, Note_on_c, 2, 67, 79
4, 231690, Note_on_c, 2, 67, 0
4, 231840, Note_on_c, 2, 65, 79
4, 232240, Note_on_c, 2, 65, 0
4, 232320, Note_on_c, 2, 63, 79
4, 232720, Note_on_c, 2, 63, 0
4, 236640, Note_on_c, 2, 58, 79
4, 237040, Note_on_c, 2, 58, 0
4, 237120, Note_on_c, 2, 63, 79
4, 237520, Note_on_c, 2, 63, 0
4, 237600, Note_on_c, 2, 67, 79
4, 238000, Note_on_c, 2, 67, 0
4, 238080, Note_on_c, 2, 70, 79
4, 239280, Note_on_c, 2, 70, 0
4, 239280, Note_on_c, 2, 68, 79
4, 239520, Note_on_c, 2, 68, 0
4, 239520, Note_on_c, 2, 67, 79
4, 239760, Note_on_c, 2, 67, 0
4, 239760, Note_on_c, 2, 65, 79
4, 240000, Note_on_c, 2, 65, 0
4, 240000, Note_on_c, 2, 65, 79
4, 240240, Note_on_c, 2, 65, 0
4, 240240, Note_on_c, 2, 64, 79
4, 240480, Note_on_c, 2, 64, 0
4, 240480, Note_on_c, 2, 64, 79
4, 241290, Note_on_c, 2, 64, 0
4, 241440, Note_on_c, 2, 67, 79
4, 241840, Note_on_c, 2, 67, 0
4, 241920, Note_on_c, 2, 68, 79
4, 243120, Note_on_c, 2, 68, 0
4, 243120, Note_on_c, 2, 66, 79
4, 243360, Note_on_c, 2, 66, 0
4, 243360, Note_on_c, 2, 65, 79
4, 243600, Note_on_c, 2, 65, 0
4, 243600, Note_on_c, 2, 63, 79
4, 243840, Note_on_c, 2, 63, 0
4, 243840, Note_on_c, 2, 63, 79
4, 244080, Note_on_c, 2, 63, 0
4, 244080, Note_on_c, 2, 62, 79
4, 244320, Note_on_c, 2, 62, 0
4, 244320, Note_on_c, 2, 62, 79
4, 244930, Note_on_c, 2, 62, 0
4, 245040, Note_on_c, 2, 58, 79
4, 245240, Note_on_c, 2, 58, 0
4, 245280, Note_on_c, 2, 58, 79
4, 245480, Note_on_c, 2, 58, 0
4, 245520, Note_on_c, 2, 58, 79
4, 245720, Note_on_c, 2, 58, 0
4, 245760, Note_on_c, 2, 63, 79
4, 245960, Note_on_c, 2, 63, 0
4, 246240, Note_on_c, 2, 65, 79
4, 246440, Note_on_c, 2, 65, 0
4, 246720, Note_on_c, 2, 67, 79
4, 246920, Note_on_c, 2, 67, 0
4, 247200, Note_on_c, 2, 69, 79
4, 247400, Note_on_c, 2, 69, 0
4, 247680, Note_on_c, 2, 70, 79
4, 248080, Note_on_c, 2, 70, 0
4, 251040, Note_on_c, 2, 70, 79
4, 251440, Note_on_c, 2, 70, 0
4, 251520, Note_on_c, 2, 68, 79
4, 251640, Note_on_c, 2, 68, 0
4, 251640, Note_on_c, 2, 70, 79
4, 251760, Note_on_c, 2, 70, 0
4, 251760, Note_on_c, 2, 67, 79
4, 251820, Note_on_c, 2, 67, 0
4, 251880, Note_on_c, 2, 68, 79
4, 251940, Note_on_c, 2, 68, 0
4, 252000, Note_on_c, 2, 65, 79
4, 252120, Note_on_c, 2, 65, 0
4, 252120, Note_on_c, 2, 67, 79
4, 252240, Note_on_c, 2, 67, 0
4, 252240, Note_on_c, 2, 63, 79
4, 252300, Note_on_c, 2, 63, 0
4, 252360, Note_on_c, 2, 65, 79
4, 252420, Note_on_c, 2, 65, 0
4, 252480, Note_on_c, 2, 62, 79
4, 252880, Note_on_c, 2, 62, 0
4, 253440, Note_on_c, 2, 62, 79
4, 253560, Note_on_c, 2, 62, 0
4, 253560, Note_on_c, 2, 63, 79
4, 253680, Note_on_c, 2, 63, 0
4, 253680, Note_on_c, 2, 62, 79
4, 253800, Note_on_c, 2, 62, 0
4, 253800, Note_on_c, 2, 63, 79
4, 253900, Note_on_c, 2, 63, 0
4, 253920, Note_on_c, 2, 65, 79
4, 254040, Note_on_c, 2, 65, 0
4, 254040, Note_on_c, 2, 67, 79
4, 254160, Note_on_c, 2, 67, 0
4, 254160, Note_on_c, 2, 65, 79
4, 254280, Note_on_c, 2, 65, 0
4, 254280, Note_on_c, 2, 67, 79
4, 254400, Note_on_c, 2, 67, 0
4, 254400, Note_on_c, 2, 68, 79
4, 254520, Note_on_c, 2, 68, 0
4, 254520, Note_on_c, 2, 67, 79
4, 254640, Note_on_c, 2, 67, 0
4, 254640, Note_on_c, 2, 68, 79
4, 254760, Note_on_c, 2, 68, 0
4, 254760, Note_on_c, 2, 67, 79
4, 254880, Note_on_c, 2, 67, 0
4, 254880, Note_on_c, 2, 70, 79
4, 255000, Note_on_c, 2, 70, 0
4, 255000, Note_on_c, 2, 68, 79
4, 255120, Note_on_c, 2, 68, 0
4, 255120, Note_on_c, 2, 67, 79
4, 255240, Note_on_c, 2, 67, 0
4, 255240, Note_on_c, 2, 65, 79
4, 255360, Note_on_c, 2, 65, 0
4, 255360, Note_on_c, 2, 67, 79
4, 255760, Note_on_c, 2, 67, 0
4, 256320, Note_on_c, 2, 63, 79
4, 257130, Note_on_c, 2, 63, 0
4, 257280, Note_on_c, 2, 62, 79
4, 258090, Note_on_c, 2, 62, 0
4, 258240, Note_on_c, 2, 68, 79
4, 259050, Note_on_c, 2, 68, 0
4, 259200, Note_on_c, 2, 67, 79
4, 260010, Note_on_c, 2, 67, 0
4, 260160, Note_on_c, 2, 61, 79
4, 260970, Note_on_c, 2, 61, 0
4, 261120, Note_on_c, 2, 60, 79
4, 261320, Note_on_c, 2, 60, 0
4, 261360, Note_on_c, 2, 62, 79
4, 261600, Note_on_c, 2, 62, 0
4, 261600, Note_on_c, 2, 63, 79
4, 261840, Note_on_c, 2, 63, 0
4, 261840, Note_on_c, 2, 64, 79
4, 262080, Note_on_c, 2, 64, 0
4, 262080, Note_on_c, 2, 65, 79
4, 262320, Note_on_c, 2, 65, 0
4, 262320, Note_on_c, 2, 67, 79
4, 262560, Note_on_c, 2, 67, 0
4, 262560, Note_on_c, 2, 68, 79
4, 262800, Note_on_c, 2, 68, 0
4, 262800, Note_on_c, 2, 69, 79
4, 263000, Note_on_c, 2, 69, 0
4, 263040, Note_on_c, 2, 70, 79
4, 263280, Note_on_c, 2, 70, 0
4, 263280, Note_on_c, 2, 67, 79
4, 263520, Note_on_c, 2, 67, 0
4, 263520, Note_on_c, 2, 63, 79
4, 264130, Note_on_c, 2, 63, 0
4, 264240, Note_on_c, 2, 67, 79
4, 264480, Note_on_c, 2, 67, 0
4, 264480, Note_on_c, 2, 65, 79
4, 264720, Note_on_c, 2, 65, 0
4, 264720, Note_on_c, 2, 62, 79
4, 264960, Note_on_c, 2, 62, 0
4, 264960, Note_on_c, 2, 63, 79
4, 265360, Note_on_c, 2, 63, 0
4, 268800, Note_on_c, 2, 67, 79
4, 269610, Note_on_c, 2, 67, 0
4, 269760, Note_on_c, 2, 68, 79
4, 270000, Note_on_c, 2, 68, 0
4, 270000, Note_on_c, 2, 65, 79
4, 270240, Note_on_c, 2, 65, 0
4, 270240, Note_on_c, 2, 63, 79
4, 270480, Note_on_c, 2, 63, 0
4, 270480, Note_on_c, 2, 62, 79
4, 270720, Note_on_c, 2, 62, 0
4, 270720, Note_on_c, 2, 63, 79
4, 270960, Note_on_c, 2, 63, 0
4, 270960, Note_on_c, 2, 67, 79
4, 271200, Note_on_c, 2, 67, 0
4, 271200, Note_on_c, 2, 70, 79
4, 271810, Note_on_c, 2, 70, 0
4, 271920, Note_on_c, 2, 72, 79
4, 272160, Note_on_c, 2, 72, 0
4, 272160, Note_on_c, 2, 65, 79
4, 272400, Note_on_c, 2, 65, 0
4, 272400, Note_on_c, 2, 68, 79
4, 272640, Note_on_c, 2, 68, 0
4, 272640, Note_on_c, 2, 67, 79
4, 272740, Note_on_c, 2, 67, 0
4, 272760, Note_on_c, 2, 63, 79
4, 272860, Note_on_c, 2, 63, 0
4, 272880, Note_on_c, 2, 65, 79
4, 272980, Note_on_c, 2, 65, 0
4, 273000, Note_on_c, 2, 67, 79
4, 273100, Note_on_c, 2, 67, 0
4, 273120, Note_on_c, 2, 68, 79
4, 273220, Note_on_c, 2, 68, 0
4, 273240, Note_on_c, 2, 70, 79
4, 273340, Note_on_c, 2, 70, 0
4, 273360, Note_on_c, 2, 72, 79
4, 273460, Note_on_c, 2, 72, 0
4, 273480, Note_on_c, 2, 74, 79
4, 273580, Note_on_c, 2, 74, 0
4, 273600, Note_on_c, 2, 75, 79
4, 274000, Note_on_c, 2, 75, 0
4, 274560, Note_on_c, 2, 60, 79
4, 274760, Note_on_c, 2, 60, 0
4, 274800, Note_on_c, 2, 62, 79
4, 274900, Note_on_c, 2, 62, 0
4, 274920, Note_on_c, 2, 63, 79
4, 275020, Note_on_c, 2, 63, 0
4, 275040, Note_on_c, 2, 65, 79
4, 275140, Note_on_c, 2, 65, 0
4, 275160, Note_on_c, 2, 67, 79
4, 275260, Note_on_c, 2, 67, 0
4, 275280, Note_on_c, 2, 68, 79
4, 275380, Note_on_c, 2, 68, 0
4, 275400, Note_on_c, 2, 70, 79
4, 275500, Note_on_c, 2, 70, 0
4, 275520, Note_on_c, 2, 72, 79
4, 275920, Note_on_c, 2, 72, 0
4, 276480, Note_on_c, 2, 58, 79
4, 276880, Note_on_c, 2, 58, 0
4, 276960, Note_on_c, 2, 70, 79
4, 277770, Note_on_c, 2, 70, 0
4, 277920, Note_on_c, 2, 68, 79
4, 278020, Note_on_c, 2, 68, 0
4, 278040, Note_on_c, 2, 67, 79
4, 278140, Note_on_c, 2, 67, 0
4, 278160, Note_on_c, 2, 65, 79
4, 278260, Note_on_c, 2, 65, 0
4, 278280, Note_on_c, 2, 63, 79
4, 278380, Note_on_c, 2, 63, 0
4, 278400, Control_c, 2, 11, 116
4, 278400, Note_on_c, 2, 65, 86
4, 278460, Note_on_c, 2, 65, 0
4, 278460, Control_c, 2, 11, 116
4, 278460, Note_on_c, 2, 67, 86
4, 278520, Note_on_c, 2, 67, 0
4, 278520, Control_c, 2, 11, 116
4, 278520, Note_on_c, 2, 65, 86
4, 278580, Note_on_c, 2, 65, 0
4, 278580, Control_c, 2, 11, 118
4, 278580, Note_on_c, 2, 67, 86
4, 278640, Note_on_c, 2, 67, 0
4, 278640, Control_c, 2, 11, 118
4, 278640, Note_on_c, 2, 65, 86
4, 278700, Note_on_c, 2, 65, 0
4, 278700, Control_c, 2, 11, 119
4, 278700, Note_on_c, 2, 67, 86
4, 278760, Note_on_c, 2, 67, 0
4, 278760, Control_c, 2, 11, 119
4, 278760, Note_on_c, 2, 65, 86
4, 278820, Note_on_c, 2, 65, 0
4, 278820, Control_c, 2, 11, 121
4, 278820, Note_on_c, 2, 67, 86
4, 278880, Note_on_c, 2, 67, 0
4, 278880, Control_c, 2, 11, 121
4, 278880, Note_on_c, 2, 65, 86
4, 278940, Note_on_c, 2, 65, 0
4, 278940, Control_c, 2, 11, 122
4, 278940, Note_on_c, 2, 67, 86
4, 279000, Note_on_c, 2, 67, 0
4, 279000, Control_c, 2, 11, 122
4, 279000, Note_on_c, 2, 65, 86
4, 279060, Note_on_c, 2, 65, 0
4, 279060, Control_c, 2, 11, 122
4, 279060, Note_on_c, 2, 67, 86
4, 279120, Note_on_c, 2, 67, 0
4, 279120, Control_c, 2, 11, 124
4, 279120, Note_on_c, 2, 65, 86
4, 279180, Note_on_c, 2, 65, 0
4, 279180, Control_c, 2, 11, 124
4, 279180, Note_on_c, 2, 67, 86
4, 279240, Note_on_c, 2, 67, 0
4, 279240, Control_c, 2, 11, 125
4, 279240, Note_on_c, 2, 65, 86
4, 279300, Note_on_c, 2, 65, 0
4, 279300, Control_c, 2, 11, 125
4, 279300, Note_on_c, 2, 67, 86
4, 279360, Note_on_c, 2, 67, 0
4, 279360, Note_on_c, 2, 65, 79
4, 279420, Note_on_c, 2, 65, 0
4, 279420, Control_c, 2, 11, 127
4, 279420, Note_on_c, 2, 67, 79
4, 279480, Note_on_c, 2, 67, 0
4, 279480, Note_on_c, 2, 65, 79
4, 279540, Note_on_c, 2, 65, 0
4, 279540, Note_on_c, 2, 67, 79
4, 279600, Note_on_c, 2, 67, 0
4, 279600, Note_on_c, 2, 65, 79
4, 279660, Note_on_c, 2, 65, 0
4, 279660, Note_on_c, 2, 67, 79
4, 279720, Note_on_c, 2, 67, 0
4, 279720, Note_on_c, 2, 65, 79
4, 279780, Note_on_c, 2, 65, 0
4, 279780, Note_on_c, 2, 67, 79
4, 279840, Note_on_c, 2, 67, 0
4, 279840, Note_on_c, 2, 65, 79
4, 279900, Note_on_c, 2, 65, 0
4, 279900, Note_on_c, 2, 67, 79
4, 279960, Note_on_c, 2, 67, 0
4, 279960, Note_on_c, 2, 65, 79
4, 280020, Note_on_c, 2, 65, 0
4, 280020, Note_on_c, 2, 67, 79
4, 280080, Note_on_c, 2, 67, 0
4, 280080, Note_on_c, 2, 65, 79
4, 280140, Note_on_c, 2, 65, 0
4, 280140, Note_on_c, 2, 67, 79
4, 280200, Note_on_c, 2, 67, 0
4, 280200, Note_on_c, 2, 63, 79
4, 280260, Note_on_c, 2, 63, 0
4, 280260, Note_on_c, 2, 65, 79
4, 280320, Note_on_c, 2, 65, 0
4, 280320, Note_on_c, 2, 63, 86
4, 280720, Note_on_c, 2, 63, 0
4, 295680, Note_on_c, 2, 63, 79
4, 296900, Note_on_c, 2, 63, 0
4, 297600, Note_on_c, 2, 58, 79
4, 298000, Note_on_c, 2, 58, 0
4, 298080, Note_on_c, 2, 58, 79
4, 298690, Note_on_c, 2, 58, 0
4, 298800, Note_on_c, 2, 60, 79
4, 298850, Note_on_c, 2, 60, 0
4, 298860, Note_on_c, 2, 58, 86
4, 298920, Note_on_c, 2, 58, 0
4, 298920, Note_on_c, 2, 57, 79
4, 299040, Note_on_c, 2, 57, 0
4, 299040, Note_on_c, 2, 58, 79
4, 299280, Note_on_c, 2, 58, 0
4, 299280, Note_on_c, 2, 53, 79
4, 299480, Note_on_c, 2, 53, 0
4, 299520, Note_on_c, 2, 63, 79
4, 299920, Note_on_c, 2, 63, 0
4, 300000, Note_on_c, 2, 63, 79
4, 300610, Note_on_c, 2, 63, 0
4, 300720, Note_on_c, 2, 65, 79
4, 300770, Note_on_c, 2, 65, 0
4, 300780, Note_on_c, 2, 63, 86
4, 300840, Note_on_c, 2, 63, 0
4, 300840, Note_on_c, 2, 62, 79
4, 300960, Note_on_c, 2, 62, 0
4, 300960, Note_on_c, 2, 63, 79
4, 301200, Note_on_c, 2, 63, 0
4, 301200, Note_on_c, 2, 58, 79
4, 301400, Note_on_c, 2, 58, 0
4, 301440, Note_on_c, 2, 67, 79
4, 301840, Note_on_c, 2, 67, 0
4, 301920, Note_on_c, 2, 70, 79
4, 302520, Note_on_c, 2, 70, 0
4, 302520, Note_on_c, 2, 68, 79
4, 302640, Note_on_c, 2, 68, 0
4, 302640, Note_on_c, 2, 67, 79
4, 302740, Note_on_c, 2, 67, 0
4, 302760, Note_on_c, 2, 65, 79
4, 302860, Note_on_c, 2, 65, 0
4, 302880, Note_on_c, 2, 63, 79
4, 303000, Note_on_c, 2, 63, 0
4, 303000, Note_on_c, 2, 62, 79
4, 303120, Note_on_c, 2, 62, 0
4, 303120, Note_on_c, 2, 60, 79
4, 303220, Note_on_c, 2, 60, 0
4, 303240, Note_on_c, 2, 58, 79
4, 303340, Note_on_c, 2, 58, 0
4, 303360, Note_on_c, 2, 56, 79
4, 303460, Note_on_c, 2, 56, 0
4, 303480, Note_on_c, 2, 55, 79
4, 303580, Note_on_c, 2, 55, 0
4, 303600, Note_on_c, 2, 53, 79
4, 303700, Note_on_c, 2, 53, 0
4, 303720, Note_on_c, 2, 51, 79
4, 303820, Note_on_c, 2, 51, 0
4, 303840, Note_on_c, 2, 50, 79
4, 303940, Note_on_c, 2, 50, 0
4, 303960, Note_on_c, 2, 53, 79
4, 304060, Note_on_c, 2, 53, 0
4, 304080, Note_on_c, 2, 58, 79
4, 304180, Note_on_c, 2, 58, 0
4, 304200, Note_on_c, 2, 56, 79
4, 304300, Note_on_c, 2, 56, 0
4, 304320, Note_on_c, 2, 55, 79
4, 304660, Note_on_c, 2, 55, 0
4, 304680, Note_on_c, 2, 59, 79
4, 304780, Note_on_c, 2, 59, 0
4, 304800, Note_on_c, 2, 60, 79
4, 304880, Note_on_c, 2, 60, 0
4, 304890, Note_on_c, 2, 62, 79
4, 304970, Note_on_c, 2, 62, 0
4, 304990, Note_on_c, 2, 63, 79
4, 305070, Note_on_c, 2, 63, 0
4, 305080, Note_on_c, 2, 65, 79
4, 305160, Note_on_c, 2, 65, 0
4, 305180, Note_on_c, 2, 62, 79
4, 305260, Note_on_c, 2, 62, 0
4, 305280, Note_on_c, 2, 63, 79
4, 306240, Note_on_c, 2, 63, 0
4, 306240, Note_on_c, 2, 65, 79
4, 306480, Note_on_c, 2, 65, 0
4, 306480, Note_on_c, 2, 62, 79
4, 306720, Note_on_c, 2, 62, 0
4, 306720, Note_on_c, 2, 60, 79
4, 306960, Note_on_c, 2, 60, 0
4, 306960, Note_on_c, 2, 59, 79
4, 307200, Note_on_c, 2, 59, 0
4, 307200, Note_on_c, 2, 60, 79
4, 307440, Note_on_c, 2, 60, 0
4, 307440, Note_on_c, 2, 63, 79
4, 307680, Note_on_c, 2, 63, 0
4, 307680, Note_on_c, 2, 67, 79
4, 308640, Note_on_c, 2, 67, 0
4, 309120, Note_on_c, 2, 67, 79
4, 310080, Note_on_c, 2, 67, 0
4, 310080, Note_on_c, 2, 68, 79
4, 310320, Note_on_c, 2, 68, 0
4, 310320, Note_on_c, 2, 65, 79
4, 310560, Note_on_c, 2, 65, 0
4, 310560, Note_on_c, 2, 63, 79
4, 310800, Note_on_c, 2, 63, 0
4, 310800, Note_on_c, 2, 62, 79
4, 311040, Note_on_c, 2, 62, 0
4, 311040, Note_on_c, 2, 63, 79
4, 311280, Note_on_c, 2, 63, 0
4, 311280, Note_on_c, 2, 67, 79
4, 311520, Note_on_c, 2, 67, 0
4, 311520, Note_on_c, 2, 70, 79
4, 312330, Note_on_c, 2, 70, 0
4, 312480, Note_on_c, 2, 63, 86
4, 312880, Note_on_c, 2, 63, 0
4, 312960, Note_on_c, 2, 72, 86
4, 313360, Note_on_c, 2, 72, 0
4, 313440, Note_on_c, 2, 70, 86
4, 313560, Note_on_c, 2, 70, 0
4, 313560, Note_on_c, 2, 68, 86
4, 313680, Note_on_c, 2, 68, 0
4, 313680, Note_on_c, 2, 67, 86
4, 313780, Note_on_c, 2, 67, 0
4, 313800, Note_on_c, 2, 65, 86
4, 313900, Note_on_c, 2, 65, 0
4, 313920, Note_on_c, 2, 70, 86
4, 314320, Note_on_c, 2, 70, 0
4, 314400, Note_on_c, 2, 67, 86
4, 314800, Note_on_c, 2, 67, 0
4, 314880, Note_on_c, 2, 72, 51
4, 315120, Note_on_c, 2, 72, 0
4, 315120, Note_on_c, 2, 71, 51
4, 315240, Note_on_c, 2, 71, 0
4, 315240, Note_on_c, 2, 72, 51
4, 315360, Note_on_c, 2, 72, 0
4, 315360, Note_on_c, 2, 70, 51
4, 315480, Note_on_c, 2, 70, 0
4, 315480, Note_on_c, 2, 68, 51
4, 315600, Note_on_c, 2, 68, 0
4, 315600, Note_on_c, 2, 67, 51
4, 315700, Note_on_c, 2, 67, 0
4, 315720, Note_on_c, 2, 65, 51
4, 315820, Note_on_c, 2, 65, 0
4, 315840, Note_on_c, 2, 70, 51
4, 316290, Note_on_c, 2, 70, 0
4, 316320, Note_on_c, 2, 67, 51
4, 316770, Note_on_c, 2, 67, 0
4, 316800, Note_on_c, 2, 65, 51
4, 316920, Note_on_c, 2, 65, 0
4, 316920, Note_on_c, 2, 64, 51
4, 317040, Note_on_c, 2, 64, 0
4, 317040, Note_on_c, 2, 65, 51
4, 317140, Note_on_c, 2, 65, 0
4, 317160, Control_c, 2, 11, 75
4, 317160, Note_on_c, 2, 67, 86
4, 317260, Note_on_c, 2, 67, 0
4, 317280, Control_c, 2, 11, 75
4, 317280, Note_on_c, 2, 68, 86
4, 317400, Note_on_c, 2, 68, 0
4, 317400, Control_c, 2, 11, 76
4, 317400, Note_on_c, 2, 70, 86
4, 317520, Note_on_c, 2, 70, 0
4, 317520, Control_c, 2, 11, 78
4, 317520, Note_on_c, 2, 72, 86
4, 317640, Note_on_c, 2, 72, 0
4, 317640, Control_c, 2, 11, 81
4, 317640, Note_on_c, 2, 70, 86
4, 317760, Note_on_c, 2, 70, 0
4, 317760, Control_c, 2, 11, 82
4, 317760, Note_on_c, 2, 68, 86
4, 317880, Note_on_c, 2, 68, 0
4, 317880, Control_c, 2, 11, 84
4, 317880, Note_on_c, 2, 70, 86
4, 318000, Note_on_c, 2, 70, 0
4, 318000, Control_c, 2, 11, 85
4, 318000, Note_on_c, 2, 67, 86
4, 318120, Note_on_c, 2, 67, 0
4, 318120, Control_c, 2, 11, 88
4, 318120, Note_on_c, 2, 68, 86
4, 318240, Note_on_c, 2, 68, 0
4, 318240, Control_c, 2, 11, 90
4, 318240, Note_on_c, 2, 65, 86
4, 318360, Note_on_c, 2, 65, 0
4, 318360, Control_c, 2, 11, 91
4, 318360, Note_on_c, 2, 67, 86
4, 318480, Note_on_c, 2, 67, 0
4, 318480, Control_c, 2, 11, 94
4, 318480, Note_on_c, 2, 64, 86
4, 318600, Note_on_c, 2, 64, 0
4, 318600, Control_c, 2, 11, 95
4, 318600, Note_on_c, 2, 65, 86
4, 318720, Note_on_c, 2, 65, 0
4, 318720, Note_on_c, 2, 62, 86
4, 318720, Control_c, 2, 11, 97
4, 318840, Note_on_c, 2, 62, 0
4, 318840, Note_on_c, 2, 60, 86
4, 318840, Control_c, 2, 11, 98
4, 318940, Note_on_c, 2, 60, 0
4, 318960, Note_on_c, 2, 62, 86
4, 318960, Control_c, 2, 11, 101
4, 319060, Note_on_c, 2, 62, 0
4, 319080, Note_on_c, 2, 63, 86
4, 319080, Control_c, 2, 11, 103
4, 319180, Note_on_c, 2, 63, 0
4, 319200, Note_on_c, 2, 65, 86
4, 319200, Control_c, 2, 11, 104
4, 319320, Note_on_c, 2, 65, 0
4, 319320, Note_on_c, 2, 67, 86
4, 319320, Control_c, 2, 11, 107
4, 319440, Note_on_c, 2, 67, 0
4, 319440, Note_on_c, 2, 68, 86
4, 319440, Control_c, 2, 11, 109
4, 319560, Note_on_c, 2, 68, 0
4, 319560, Note_on_c, 2, 67, 86
4, 319560, Control_c, 2, 11, 110
4, 319680, Note_on_c, 2, 67, 0
4, 319680, Note_on_c, 2, 65, 86
4, 319680, Control_c, 2, 11, 112
4, 319800, Note_on_c, 2, 65, 0
4, 319800, Note_on_c, 2, 67, 86
4, 319800, Control_c, 2, 11, 115
4, 319920, Note_on_c, 2, 67, 0
4, 319920, Note_on_c, 2, 63, 86
4, 319920, Control_c, 2, 11, 116
4, 320040, Note_on_c, 2, 63, 0
4, 320040, Note_on_c, 2, 65, 86
4, 320040, Control_c, 2, 11, 118
4, 320160, Note_on_c, 2, 65, 0
4, 320160, Note_on_c, 2, 62, 86
4, 320160, Control_c, 2, 11, 121
4, 320280, Note_on_c, 2, 62, 0
4, 320280, Note_on_c, 2, 63, 86
4, 320280, Control_c, 2, 11, 122
4, 320400, Note_on_c, 2, 63, 0
4, 320400, Note_on_c, 2, 60, 86
4, 320400, Control_c, 2, 11, 124
4, 320520, Note_on_c, 2, 60, 0
4, 320520, Note_on_c, 2, 62, 86
4, 320520, Control_c, 2, 11, 125
4, 320640, Note_on_c, 2, 62, 0
4, 320640, Control_c, 2, 11, 127
4, 320640, Note_on_c, 2, 58, 86
4, 320740, Note_on_c, 2, 58, 0
4, 320760, Note_on_c, 2, 58, 86
4, 320860, Note_on_c, 2, 58, 0
4, 320880, Note_on_c, 2, 60, 86
4, 320980, Note_on_c, 2, 60, 0
4, 321000, Note_on_c, 2, 62, 86
4, 321100, Note_on_c, 2, 62, 0
4, 321120, Note_on_c, 2, 63, 86
4, 321220, Note_on_c, 2, 63, 0
4, 321240, Note_on_c, 2, 65, 86
4, 321340, Note_on_c, 2, 65, 0
4, 321360, Note_on_c, 2, 67, 86
4, 321460, Note_on_c, 2, 67, 0
4, 321480, Note_on_c, 2, 68, 86
4, 321580, Note_on_c, 2, 68, 0
4, 321600, Note_on_c, 2, 70, 86
4, 321800, Note_on_c, 2, 70, 0
4, 321840, Note_on_c, 2, 72, 86
4, 322040, Note_on_c, 2, 72, 0
4, 322080, Note_on_c, 2, 74, 86
4, 322280, Note_on_c, 2, 74, 0
4, 322320, Note_on_c, 2, 75, 86
4, 322520, Note_on_c, 2, 75, 0
4, 322560, Note_on_c, 2, 67, 86
4, 322560, Note_on_c, 2, 65, 86
4, 322620, Note_on_c, 2, 67, 0
4, 322620, Note_on_c, 2, 65, 0
4, 322620, Note_on_c, 2, 65, 86
4, 322680, Note_on_c, 2, 65, 0
4, 322680, Note_on_c, 2, 67, 86
4, 322740, Note_on_c, 2, 67, 0
4, 322740, Note_on_c, 2, 65, 86
4, 322800, Note_on_c, 2, 65, 0
4, 322800, Note_on_c, 2, 67, 86
4, 322860, Note_on_c, 2, 67, 0
4, 322860, Note_on_c, 2, 65, 86
4, 322920, Note_on_c, 2, 65, 0
4, 322920, Note_on_c, 2, 67, 86
4, 322980, Note_on_c, 2, 67, 0
4, 322980, Note_on_c, 2, 65, 86
4, 323040, Note_on_c, 2, 65, 0
4, 323040, Note_on_c, 2, 67, 86
4, 323100, Note_on_c, 2, 67, 0
4, 323100, Note_on_c, 2, 65, 86
4, 323160, Note_on_c, 2, 65, 0
4, 323160, Note_on_c, 2, 67, 86
4, 323220, Note_on_c, 2, 67, 0
4, 323220, Note_on_c, 2, 65, 86
4, 323280, Note_on_c, 2, 65, 0
4, 323280, Note_on_c, 2, 67, 86
4, 323340, Note_on_c, 2, 67, 0
4, 323340, Note_on_c, 2, 65, 86
4, 323400, Note_on_c, 2, 65, 0
4, 323400, Note_on_c, 2, 67, 86
4, 323460, Note_on_c, 2, 67, 0
4, 323460, Note_on_c, 2, 65, 86
4, 323520, Note_on_c, 2, 65, 0
4, 323520, Note_on_c, 2, 67, 86
4, 323580, Note_on_c, 2, 67, 0
4, 323580, Note_on_c, 2, 65, 86
4, 323640, Note_on_c, 2, 65, 0
4, 323640, Note_on_c, 2, 67, 86
4, 323700, Note_on_c, 2, 67, 0
4, 323700, Note_on_c, 2, 65, 86
4, 323760, Note_on_c, 2, 65, 0
4, 323760, Note_on_c, 2, 67, 86
4, 323820, Note_on_c, 2, 67, 0
4, 323820, Note_on_c, 2, 65, 86
4, 323880, Note_on_c, 2, 65, 0
4, 323880, Note_on_c, 2, 67, 86
4, 323940, Note_on_c, 2, 67, 0
4, 323940, Note_on_c, 2, 65, 86
4, 324000, Note_on_c, 2, 65, 0
4, 324000, Note_on_c, 2, 67, 86
4, 324060, Note_on_c, 2, 67, 0
4, 324060, Note_on_c, 2, 65, 86
4, 324120, Note_on_c, 2, 65, 0
4, 324120, Note_on_c, 2, 67, 86
4, 324180, Note_on_c, 2, 67, 0
4, 324180, Note_on_c, 2, 63, 86
4, 324300, Note_on_c, 2, 63, 0
4, 324300, Note_on_c, 2, 65, 86
4, 324420, Note_on_c, 2, 65, 0
4, 324420, Note_on_c, 2, 63, 79
4, 324820, Note_on_c, 2, 63, 0
4, 346500, Note_on_c, 2, 67, 64
4, 346980, Note_on_c, 2, 67, 0
4, 346980, Note_on_c, 2, 63, 64
4, 347460, Note_on_c, 2, 63, 0
4, 347460, Note_on_c, 2, 68, 64
4, 348180, Note_on_c, 2, 68, 0
4, 348180, Note_on_c, 2, 65, 64
4, 348420, Note_on_c, 2, 65, 0
4, 348420, Note_on_c, 2, 63, 64
4, 348660, Note_on_c, 2, 63, 0
4, 348660, Note_on_c, 2, 62, 64
4, 348900, Note_on_c, 2, 62, 0
4, 348900, Note_on_c, 2, 60, 64
4, 349140, Note_on_c, 2, 60, 0
4, 349140, Note_on_c, 2, 62, 64
4, 349380, Note_on_c, 2, 62, 0
4, 349380, Note_on_c, 2, 63, 64
4, 349620, Note_on_c, 2, 63, 0
4, 349620, Note_on_c, 2, 67, 64
4, 349820, Note_on_c, 2, 67, 0
4, 349860, Note_on_c, 2, 70, 64
4, 350260, Note_on_c, 2, 70, 0
4, 350340, Note_on_c, 2, 67, 64
4, 350820, Note_on_c, 2, 67, 0
4, 350820, Note_on_c, 2, 63, 64
4, 351220, Note_on_c, 2, 63, 0
4, 351300, Note_on_c, 2, 68, 64
4, 352020, Note_on_c, 2, 68, 0
4, 352020, Note_on_c, 2, 65, 64
4, 352260, Note_on_c, 2, 65, 0
4, 352260, Note_on_c, 2, 62, 64
4, 352460, Note_on_c, 2, 62, 0
4, 352500, Note_on_c, 2, 63, 64
4, 352700, Note_on_c, 2, 63, 0
4, 352740, Note_on_c, 2, 65, 64
4, 352940, Note_on_c, 2, 65, 0
4, 352980, Note_on_c, 2, 67, 64
4, 353180, Note_on_c, 2, 67, 0
4, 353220, Note_on_c, 2, 63, 64
4, 353620, Note_on_c, 2, 63, 0
4, 355200, End_track
5, 0, Start_track
5, 0, Title_t, "Violino I                           "
5, 0, Control_c, 3, 7, 75
5, 160, Control_c, 3, 91, 100
5, 320, Control_c, 3, 93, 50
5, 480, Control_c, 3, 10, 15
5, 640, Control_c, 3, 0, 0
5, 640, Control_c, 3, 32, 0
5, 640, Program_c, 3, 48
5, 800, Control_c, 3, 121, 0
5, 960, Pitch_bend_c, 3, 8192
5, 1120, Control_c, 3, 1, 0
5, 1280, Control_c, 3, 11, 127
5, 1440, Control_c, 3, 65, 0
5, 1600, Control_c, 3, 66, 0
5, 1760, Control_c, 3, 67, 0
5, 1920, Note_on_c, 3, 75, 86
5, 1920, Note_on_c, 3, 67, 86
5, 1920, Note_on_c, 3, 58, 86
5, 2320, Note_on_c, 3, 75, 0
5, 2320, Note_on_c, 3, 67, 0
5, 2320, Note_on_c, 3, 58, 0
5, 2400, Note_on_c, 3, 75, 86
5, 3010, Note_on_c, 3, 75, 0
5, 3120, Note_on_c, 3, 77, 86
5, 3170, Note_on_c, 3, 77, 0
5, 3180, Note_on_c, 3, 75, 94
5, 3240, Note_on_c, 3, 75, 0
5, 3240, Note_on_c, 3, 74, 86
5, 3360, Note_on_c, 3, 74, 0
5, 3360, Note_on_c, 3, 75, 86
5, 3560, Note_on_c, 3, 75, 0
5, 3600, Note_on_c, 3, 70, 111
5, 3720, Note_on_c, 3, 70, 0
5, 3840, Note_on_c, 3, 79, 86
5, 3840, Note_on_c, 3, 70, 86
5, 3840, Note_on_c, 3, 63, 86
5, 4240, Note_on_c, 3, 79, 0
5, 4240, Note_on_c, 3, 70, 0
5, 4240, Note_on_c, 3, 63, 0
5, 4320, Note_on_c, 3, 79, 86
5, 4930, Note_on_c, 3, 79, 0
5, 5040, Note_on_c, 3, 80, 86
5, 5090, Note_on_c, 3, 80, 0
5, 5100, Note_on_c, 3, 79, 94
5, 5140, Note_on_c, 3, 79, 0
5, 5160, Note_on_c, 3, 77, 86
5, 5260, Note_on_c, 3, 77, 0
5, 5280, Note_on_c, 3, 79, 86
5, 5480, Note_on_c, 3, 79, 0
5, 5520, Note_on_c, 3, 75, 111
5, 5640, Note_on_c, 3, 75, 0
5, 5760, Note_on_c, 3, 70, 86
5, 5760, Note_on_c, 3, 63, 86
5, 5760, Note_on_c, 3, 82, 86
5, 6160, Note_on_c, 3, 70, 0
5, 6160, Note_on_c, 3, 63, 0
5, 6340, Note_on_c, 3, 82, 0
5, 6360, Note_on_c, 3, 80, 86
5, 6420, Note_on_c, 3, 80, 0
5, 6480, Note_on_c, 3, 79, 86
5, 6540, Note_on_c, 3, 79, 0
5, 6600, Note_on_c, 3, 77, 86
5, 6660, Note_on_c, 3, 77, 0
5, 6720, Note_on_c, 3, 75, 86
5, 6840, Note_on_c, 3, 75, 0
5, 6840, Note_on_c, 3, 74, 86
5, 6960, Note_on_c, 3, 74, 0
5, 6960, Note_on_c, 3, 72, 86
5, 7020, Note_on_c, 3, 72, 0
5, 7080, Note_on_c, 3, 70, 86
5, 7140, Note_on_c, 3, 70, 0
5, 7200, Note_on_c, 3, 68, 86
5, 7300, Note_on_c, 3, 68, 0
5, 7320, Note_on_c, 3, 67, 86
5, 7420, Note_on_c, 3, 67, 0
5, 7440, Note_on_c, 3, 65, 86
5, 7540, Note_on_c, 3, 65, 0
5, 7560, Note_on_c, 3, 63, 86
5, 7660, Note_on_c, 3, 63, 0
5, 7680, Note_on_c, 3, 65, 86
5, 7680, Note_on_c, 3, 60, 86
5, 8290, Note_on_c, 3, 65, 0
5, 8290, Note_on_c, 3, 60, 0
5, 8400, Note_on_c, 3, 67, 86
5, 8520, Note_on_c, 3, 67, 0
5, 8520, Note_on_c, 3, 68, 86
5, 8640, Note_on_c, 3, 68, 0
5, 8640, Note_on_c, 3, 67, 86
5, 9040, Note_on_c, 3, 67, 0
5, 9600, Note_on_c, 3, 84, 86
5, 9600, Note_on_c, 3, 75, 86
5, 9600, Note_on_c, 3, 68, 86
5, 10000, Note_on_c, 3, 84, 0
5, 10000, Note_on_c, 3, 75, 0
5, 10000, Note_on_c, 3, 68, 0
5, 10080, Note_on_c, 3, 56, 86
5, 10480, Note_on_c, 3, 56, 0
5, 10800, Note_on_c, 3, 75, 86
5, 10920, Note_on_c, 3, 75, 0
5, 10920, Note_on_c, 3, 80, 86
5, 11040, Note_on_c, 3, 80, 0
5, 11040, Note_on_c, 3, 84, 86
5, 11240, Note_on_c, 3, 84, 0
5, 11280, Note_on_c, 3, 84, 86
5, 11480, Note_on_c, 3, 84, 0
5, 11520, Note_on_c, 3, 82, 86
5, 11920, Note_on_c, 3, 82, 0
5, 12000, Note_on_c, 3, 63, 86
5, 12000, Note_on_c, 3, 55, 86
5, 12400, Note_on_c, 3, 63, 0
5, 12400, Note_on_c, 3, 55, 0
5, 12720, Note_on_c, 3, 75, 86
5, 12840, Note_on_c, 3, 75, 0
5, 12840, Note_on_c, 3, 79, 86
5, 12960, Note_on_c, 3, 79, 0
5, 12960, Note_on_c, 3, 82, 86
5, 13160, Note_on_c, 3, 82, 0
5, 13200, Note_on_c, 3, 82, 86
5, 13400, Note_on_c, 3, 82, 0
5, 13440, Note_on_c, 3, 80, 86
5, 13640, Note_on_c, 3, 80, 0
5, 13680, Note_on_c, 3, 84, 86
5, 13780, Note_on_c, 3, 84, 0
5, 13800, Note_on_c, 3, 82, 86
5, 13900, Note_on_c, 3, 82, 0
5, 13920, Note_on_c, 3, 80, 86
5, 14020, Note_on_c, 3, 80, 0
5, 14040, Note_on_c, 3, 79, 86
5, 14140, Note_on_c, 3, 79, 0
5, 14160, Note_on_c, 3, 77, 86
5, 14260, Note_on_c, 3, 77, 0
5, 14280, Note_on_c, 3, 75, 86
5, 14380, Note_on_c, 3, 75, 0
5, 14400, Note_on_c, 3, 74, 86
5, 14600, Note_on_c, 3, 74, 0
5, 14640, Note_on_c, 3, 77, 86
5, 14740, Note_on_c, 3, 77, 0
5, 14760, Note_on_c, 3, 75, 86
5, 14860, Note_on_c, 3, 75, 0
5, 14880, Note_on_c, 3, 74, 86
5, 14980, Note_on_c, 3, 74, 0
5, 15000, Note_on_c, 3, 72, 86
5, 15100, Note_on_c, 3, 72, 0
5, 15120, Note_on_c, 3, 70, 86
5, 15220, Note_on_c, 3, 70, 0
5, 15240, Note_on_c, 3, 68, 86
5, 15340, Note_on_c, 3, 68, 0
5, 15360, Note_on_c, 3, 67, 86
5, 15460, Note_on_c, 3, 67, 0
5, 15480, Note_on_c, 3, 70, 86
5, 15580, Note_on_c, 3, 70, 0
5, 15600, Note_on_c, 3, 68, 86
5, 15700, Note_on_c, 3, 68, 0
5, 15720, Note_on_c, 3, 67, 86
5, 15820, Note_on_c, 3, 67, 0
5, 15840, Note_on_c, 3, 68, 86
5, 15940, Note_on_c, 3, 68, 0
5, 15960, Note_on_c, 3, 70, 86
5, 16060, Note_on_c, 3, 70, 0
5, 16080, Note_on_c, 3, 72, 86
5, 16180, Note_on_c, 3, 72, 0
5, 16200, Note_on_c, 3, 74, 86
5, 16300, Note_on_c, 3, 74, 0
5, 16320, Note_on_c, 3, 75, 86
5, 16420, Note_on_c, 3, 75, 0
5, 16440, Note_on_c, 3, 77, 86
5, 16540, Note_on_c, 3, 77, 0
5, 16560, Note_on_c, 3, 79, 86
5, 16660, Note_on_c, 3, 79, 0
5, 16680, Note_on_c, 3, 80, 86
5, 16780, Note_on_c, 3, 80, 0
5, 16800, Note_on_c, 3, 82, 86
5, 17000, Note_on_c, 3, 82, 0
5, 17040, Note_on_c, 3, 82, 86
5, 17240, Note_on_c, 3, 82, 0
5, 17280, Note_on_c, 3, 82, 86
5, 17400, Note_on_c, 3, 82, 0
5, 17400, Note_on_c, 3, 80, 86
5, 17520, Note_on_c, 3, 80, 0
5, 17520, Note_on_c, 3, 79, 86
5, 17640, Note_on_c, 3, 79, 0
5, 17640, Note_on_c, 3, 80, 86
5, 17760, Note_on_c, 3, 80, 0
5, 17760, Note_on_c, 3, 80, 86
5, 17880, Note_on_c, 3, 80, 0
5, 17880, Note_on_c, 3, 79, 86
5, 18000, Note_on_c, 3, 79, 0
5, 18000, Note_on_c, 3, 78, 86
5, 18120, Note_on_c, 3, 78, 0
5, 18120, Note_on_c, 3, 79, 86
5, 18220, Note_on_c, 3, 79, 0
5, 18240, Note_on_c, 3, 79, 86
5, 18360, Note_on_c, 3, 79, 0
5, 18360, Note_on_c, 3, 77, 86
5, 18480, Note_on_c, 3, 77, 0
5, 18480, Note_on_c, 3, 76, 86
5, 18600, Note_on_c, 3, 76, 0
5, 18600, Note_on_c, 3, 77, 86
5, 18720, Note_on_c, 3, 77, 0
5, 18720, Note_on_c, 3, 77, 86
5, 18840, Note_on_c, 3, 77, 0
5, 18840, Note_on_c, 3, 75, 86
5, 18960, Note_on_c, 3, 75, 0
5, 18960, Note_on_c, 3, 74, 86
5, 19080, Note_on_c, 3, 74, 0
5, 19080, Note_on_c, 3, 75, 86
5, 19200, Note_on_c, 3, 75, 0
5, 19200, Note_on_c, 3, 74, 86
5, 19300, Note_on_c, 3, 74, 0
5, 19320, Note_on_c, 3, 77, 86
5, 19420, Note_on_c, 3, 77, 0
5, 19440, Note_on_c, 3, 74, 86
5, 19540, Note_on_c, 3, 74, 0
5, 19560, Note_on_c, 3, 70, 86
5, 19660, Note_on_c, 3, 70, 0
5, 19680, Note_on_c, 3, 74, 86
5, 19780, Note_on_c, 3, 74, 0
5, 19800, Note_on_c, 3, 77, 86
5, 19900, Note_on_c, 3, 77, 0
5, 19920, Note_on_c, 3, 74, 86
5, 20020, Note_on_c, 3, 74, 0
5, 20040, Note_on_c, 3, 70, 86
5, 20140, Note_on_c, 3, 70, 0
5, 20160, Note_on_c, 3, 79, 86
5, 20260, Note_on_c, 3, 79, 0
5, 20280, Note_on_c, 3, 82, 86
5, 20380, Note_on_c, 3, 82, 0
5, 20400, Note_on_c, 3, 79, 86
5, 20500, Note_on_c, 3, 79, 0
5, 20520, Note_on_c, 3, 75, 86
5, 20620, Note_on_c, 3, 75, 0
5, 20640, Note_on_c, 3, 79, 86
5, 20740, Note_on_c, 3, 79, 0
5, 20760, Note_on_c, 3, 82, 86
5, 20860, Note_on_c, 3, 82, 0
5, 20880, Note_on_c, 3, 79, 86
5, 20980, Note_on_c, 3, 79, 0
5, 21000, Note_on_c, 3, 75, 86
5, 21100, Note_on_c, 3, 75, 0
5, 21120, Note_on_c, 3, 74, 86
5, 21220, Note_on_c, 3, 74, 0
5, 21240, Note_on_c, 3, 77, 86
5, 21340, Note_on_c, 3, 77, 0
5, 21360, Note_on_c, 3, 74, 86
5, 21460, Note_on_c, 3, 74, 0
5, 21480, Note_on_c, 3, 70, 86
5, 21580, Note_on_c, 3, 70, 0
5, 21600, Note_on_c, 3, 74, 86
5, 21700, Note_on_c, 3, 74, 0
5, 21720, Note_on_c, 3, 77, 86
5, 21820, Note_on_c, 3, 77, 0
5, 21840, Note_on_c, 3, 74, 86
5, 21940, Note_on_c, 3, 74, 0
5, 21960, Note_on_c, 3, 70, 86
5, 22060, Note_on_c, 3, 70, 0
5, 22080, Note_on_c, 3, 79, 86
5, 22180, Note_on_c, 3, 79, 0
5, 22200, Note_on_c, 3, 82, 86
5, 22300, Note_on_c, 3, 82, 0
5, 22320, Note_on_c, 3, 79, 86
5, 22420, Note_on_c, 3, 79, 0
5, 22440, Note_on_c, 3, 75, 86
5, 22540, Note_on_c, 3, 75, 0
5, 22560, Note_on_c, 3, 79, 86
5, 22660, Note_on_c, 3, 79, 0
5, 22680, Note_on_c, 3, 82, 86
5, 22780, Note_on_c, 3, 82, 0
5, 22800, Note_on_c, 3, 79, 86
5, 22900, Note_on_c, 3, 79, 0
5, 22920, Note_on_c, 3, 75, 86
5, 23020, Note_on_c, 3, 75, 0
5, 23040, Note_on_c, 3, 74, 86
5, 23240, Note_on_c, 3, 74, 0
5, 23280, Note_on_c, 3, 82, 86
5, 23480, Note_on_c, 3, 82, 0
5, 23520, Note_on_c, 3, 58, 86
5, 23720, Note_on_c, 3, 58, 0
5, 23760, Note_on_c, 3, 58, 86
5, 23960, Note_on_c, 3, 58, 0
5, 24000, Note_on_c, 3, 58, 86
5, 24400, Note_on_c, 3, 58, 0
5, 24960, Note_on_c, 3, 67, 64
5, 25770, Note_on_c, 3, 67, 0
5, 25920, Note_on_c, 3, 68, 64
5, 26160, Note_on_c, 3, 68, 0
5, 26160, Note_on_c, 3, 65, 64
5, 26400, Note_on_c, 3, 65, 0
5, 26400, Note_on_c, 3, 63, 64
5, 26640, Note_on_c, 3, 63, 0
5, 26640, Note_on_c, 3, 62, 64
5, 26880, Note_on_c, 3, 62, 0
5, 26880, Note_on_c, 3, 63, 64
5, 27120, Note_on_c, 3, 63, 0
5, 27120, Note_on_c, 3, 67, 64
5, 27360, Note_on_c, 3, 67, 0
5, 27360, Note_on_c, 3, 70, 64
5, 27970, Note_on_c, 3, 70, 0
5, 28080, Note_on_c, 3, 72, 64
5, 28320, Note_on_c, 3, 72, 0
5, 28320, Note_on_c, 3, 65, 64
5, 28560, Note_on_c, 3, 65, 0
5, 28560, Note_on_c, 3, 68, 64
5, 28800, Note_on_c, 3, 68, 0
5, 28800, Note_on_c, 3, 67, 64
5, 29610, Note_on_c, 3, 67, 0
5, 29760, Note_on_c, 3, 68, 64
5, 30000, Note_on_c, 3, 68, 0
5, 30000, Note_on_c, 3, 65, 64
5, 30240, Note_on_c, 3, 65, 0
5, 30240, Note_on_c, 3, 63, 64
5, 30480, Note_on_c, 3, 63, 0
5, 30480, Note_on_c, 3, 62, 64
5, 30720, Note_on_c, 3, 62, 0
5, 30720, Note_on_c, 3, 63, 64
5, 30960, Note_on_c, 3, 63, 0
5, 30960, Note_on_c, 3, 67, 64
5, 31200, Note_on_c, 3, 67, 0
5, 31200, Note_on_c, 3, 70, 64
5, 31810, Note_on_c, 3, 70, 0
5, 31920, Note_on_c, 3, 72, 64
5, 32160, Note_on_c, 3, 72, 0
5, 32160, Note_on_c, 3, 65, 64
5, 32400, Note_on_c, 3, 65, 0
5, 32400, Note_on_c, 3, 68, 64
5, 32640, Note_on_c, 3, 68, 0
5, 32640, Note_on_c, 3, 67, 64
5, 33040, Note_on_c, 3, 67, 0
5, 33240, Note_on_c, 3, 67, 64
5, 33360, Note_on_c, 3, 67, 0
5, 33360, Note_on_c, 3, 65, 64
5, 33480, Note_on_c, 3, 65, 0
5, 33480, Note_on_c, 3, 67, 64
5, 33600, Note_on_c, 3, 67, 0
5, 33600, Note_on_c, 3, 68, 64
5, 33720, Note_on_c, 3, 68, 0
5, 33720, Note_on_c, 3, 67, 64
5, 33840, Note_on_c, 3, 67, 0
5, 33840, Note_on_c, 3, 65, 64
5, 33960, Note_on_c, 3, 65, 0
5, 33960, Note_on_c, 3, 67, 64
5, 34080, Note_on_c, 3, 67, 0
5, 34080, Note_on_c, 3, 68, 64
5, 34200, Note_on_c, 3, 68, 0
5, 34200, Note_on_c, 3, 67, 64
5, 34320, Note_on_c, 3, 67, 0
5, 34320, Note_on_c, 3, 65, 64
5, 34440, Note_on_c, 3, 65, 0
5, 34440, Note_on_c, 3, 67, 64
5, 34560, Note_on_c, 3, 67, 0
5, 34560, Note_on_c, 3, 68, 64
5, 34760, Note_on_c, 3, 68, 0
5, 34800, Note_on_c, 3, 68, 64
5, 35000, Note_on_c, 3, 68, 0
5, 35160, Note_on_c, 3, 68, 64
5, 35280, Note_on_c, 3, 68, 0
5, 35280, Note_on_c, 3, 67, 64
5, 35400, Note_on_c, 3, 67, 0
5, 35400, Note_on_c, 3, 68, 64
5, 35520, Note_on_c, 3, 68, 0
5, 35520, Note_on_c, 3, 70, 64
5, 35640, Note_on_c, 3, 70, 0
5, 35640, Note_on_c, 3, 68, 64
5, 35760, Note_on_c, 3, 68, 0
5, 35760, Note_on_c, 3, 67, 64
5, 35880, Note_on_c, 3, 67, 0
5, 35880, Note_on_c, 3, 68, 64
5, 36000, Note_on_c, 3, 68, 0
5, 36000, Note_on_c, 3, 70, 64
5, 36120, Note_on_c, 3, 70, 0
5, 36120, Note_on_c, 3, 68, 64
5, 36240, Note_on_c, 3, 68, 0
5, 36240, Note_on_c, 3, 67, 64
5, 36360, Note_on_c, 3, 67, 0
5, 36360, Note_on_c, 3, 68, 64
5, 36480, Note_on_c, 3, 68, 0
5, 36480, Note_on_c, 3, 70, 64
5, 36680, Note_on_c, 3, 70, 0
5, 36720, Note_on_c, 3, 70, 64
5, 36920, Note_on_c, 3, 70, 0
5, 37080, Note_on_c, 3, 70, 64
5, 37200, Note_on_c, 3, 70, 0
5, 37200, Note_on_c, 3, 69, 64
5, 37320, Note_on_c, 3, 69, 0
5, 37320, Note_on_c, 3, 70, 64
5, 37440, Note_on_c, 3, 70, 0
5, 37440, Note_on_c, 3, 72, 64
5, 37560, Note_on_c, 3, 72, 0
5, 37560, Note_on_c, 3, 70, 64
5, 37680, Note_on_c, 3, 70, 0
5, 37680, Note_on_c, 3, 69, 64
5, 37800, Note_on_c, 3, 69, 0
5, 37800, Note_on_c, 3, 70, 64
5, 37920, Note_on_c, 3, 70, 0
5, 37920, Note_on_c, 3, 72, 64
5, 38040, Note_on_c, 3, 72, 0
5, 38040, Note_on_c, 3, 70, 64
5, 38160, Note_on_c, 3, 70, 0
5, 38160, Note_on_c, 3, 69, 64
5, 38280, Note_on_c, 3, 69, 0
5, 38280, Note_on_c, 3, 70, 64
5, 38400, Note_on_c, 3, 70, 0
5, 38400, Note_on_c, 3, 72, 64
5, 38500, Note_on_c, 3, 72, 0
5, 38520, Note_on_c, 3, 72, 64
5, 38640, Note_on_c, 3, 72, 0
5, 38640, Note_on_c, 3, 71, 64
5, 38760, Note_on_c, 3, 71, 0
5, 38760, Control_c, 3, 11, 94
5, 38760, Note_on_c, 3, 72, 86
5, 38880, Note_on_c, 3, 72, 0
5, 38880, Control_c, 3, 11, 94
5, 38880, Note_on_c, 3, 74, 86
5, 39000, Note_on_c, 3, 74, 0
5, 39000, Control_c, 3, 11, 94
5, 39000, Note_on_c, 3, 72, 86
5, 39120, Note_on_c, 3, 72, 0
5, 39120, Control_c, 3, 11, 95
5, 39120, Note_on_c, 3, 71, 86
5, 39240, Note_on_c, 3, 71, 0
5, 39240, Control_c, 3, 11, 95
5, 39240, Note_on_c, 3, 72, 86
5, 39340, Note_on_c, 3, 72, 0
5, 39360, Control_c, 3, 11, 97
5, 39360, Note_on_c, 3, 74, 86
5, 39460, Note_on_c, 3, 74, 0
5, 39480, Control_c, 3, 11, 97
5, 39480, Note_on_c, 3, 74, 86
5, 39600, Note_on_c, 3, 74, 0
5, 39600, Control_c, 3, 11, 98
5, 39600, Note_on_c, 3, 72, 86
5, 39720, Note_on_c, 3, 72, 0
5, 39720, Control_c, 3, 11, 98
5, 39720, Note_on_c, 3, 74, 86
5, 39840, Note_on_c, 3, 74, 0
5, 39840, Control_c, 3, 11, 100
5, 39840, Note_on_c, 3, 75, 86
5, 39960, Note_on_c, 3, 75, 0
5, 39960, Control_c, 3, 11, 100
5, 39960, Note_on_c, 3, 74, 86
5, 40080, Note_on_c, 3, 74, 0
5, 40080, Control_c, 3, 11, 101
5, 40080, Note_on_c, 3, 72, 86
5, 40200, Note_on_c, 3, 72, 0
5, 40200, Control_c, 3, 11, 101
5, 40200, Note_on_c, 3, 74, 86
5, 40320, Note_on_c, 3, 74, 0
5, 40320, Note_on_c, 3, 77, 86
5, 40320, Control_c, 3, 11, 103
5, 40440, Note_on_c, 3, 77, 0
5, 40440, Note_on_c, 3, 75, 86
5, 40440, Control_c, 3, 11, 103
5, 40560, Note_on_c, 3, 75, 0
5, 40560, Note_on_c, 3, 74, 86
5, 40560, Control_c, 3, 11, 104
5, 40680, Note_on_c, 3, 74, 0
5, 40680, Note_on_c, 3, 75, 86
5, 40680, Control_c, 3, 11, 104
5, 40800, Note_on_c, 3, 75, 0
5, 40800, Note_on_c, 3, 79, 86
5, 40800, Control_c, 3, 11, 106
5, 40920, Note_on_c, 3, 79, 0
5, 40920, Note_on_c, 3, 77, 86
5, 40920, Control_c, 3, 11, 106
5, 41040, Note_on_c, 3, 77, 0
5, 41040, Note_on_c, 3, 75, 86
5, 41040, Control_c, 3, 11, 107
5, 41160, Note_on_c, 3, 75, 0
5, 41160, Note_on_c, 3, 77, 86
5, 41160, Control_c, 3, 11, 107
5, 41280, Note_on_c, 3, 77, 0
5, 41280, Note_on_c, 3, 80, 86
5, 41280, Control_c, 3, 11, 109
5, 41400, Note_on_c, 3, 80, 0
5, 41400, Note_on_c, 3, 79, 86
5, 41400, Control_c, 3, 11, 109
5, 41520, Note_on_c, 3, 79, 0
5, 41520, Note_on_c, 3, 77, 86
5, 41520, Control_c, 3, 11, 110
5, 41640, Note_on_c, 3, 77, 0
5, 41640, Note_on_c, 3, 79, 86
5, 41640, Control_c, 3, 11, 110
5, 41760, Note_on_c, 3, 79, 0
5, 41760, Note_on_c, 3, 82, 86
5, 41760, Control_c, 3, 11, 112
5, 41880, Note_on_c, 3, 82, 0
5, 41880, Note_on_c, 3, 80, 86
5, 41880, Control_c, 3, 11, 112
5, 42000, Note_on_c, 3, 80, 0
5, 42000, Note_on_c, 3, 79, 86
5, 42000, Control_c, 3, 11, 113
5, 42120, Note_on_c, 3, 79, 0
5, 42120, Note_on_c, 3, 80, 86
5, 42120, Control_c, 3, 11, 113
5, 42220, Note_on_c, 3, 80, 0
5, 42240, Note_on_c, 3, 82, 86
5, 42240, Control_c, 3, 11, 115
5, 42340, Note_on_c, 3, 82, 0
5, 42360, Note_on_c, 3, 82, 86
5, 42360, Control_c, 3, 11, 115
5, 42460, Note_on_c, 3, 82, 0
5, 42480, Note_on_c, 3, 82, 86
5, 42480, Control_c, 3, 11, 116
5, 42580, Note_on_c, 3, 82, 0
5, 42600, Note_on_c, 3, 82, 86
5, 42600, Control_c, 3, 11, 116
5, 42700, Note_on_c, 3, 82, 0
5, 42720, Note_on_c, 3, 83, 86
5, 42720, Control_c, 3, 11, 118
5, 42820, Note_on_c, 3, 83, 0
5, 42840, Note_on_c, 3, 83, 86
5, 42840, Control_c, 3, 11, 118
5, 42940, Note_on_c, 3, 83, 0
5, 42960, Note_on_c, 3, 83, 86
5, 42960, Control_c, 3, 11, 119
5, 43060, Note_on_c, 3, 83, 0
5, 43080, Note_on_c, 3, 83, 86
5, 43080, Control_c, 3, 11, 119
5, 43180, Note_on_c, 3, 83, 0
5, 43200, Note_on_c, 3, 84, 86
5, 43200, Control_c, 3, 11, 121
5, 43300, Note_on_c, 3, 84, 0
5, 43320, Note_on_c, 3, 84, 86
5, 43320, Control_c, 3, 11, 121
5, 43420, Note_on_c, 3, 84, 0
5, 43440, Note_on_c, 3, 84, 86
5, 43440, Control_c, 3, 11, 122
5, 43540, Note_on_c, 3, 84, 0
5, 43560, Note_on_c, 3, 84, 86
5, 43560, Control_c, 3, 11, 122
5, 43660, Note_on_c, 3, 84, 0
5, 43680, Note_on_c, 3, 86, 86
5, 43680, Control_c, 3, 11, 124
5, 43780, Note_on_c, 3, 86, 0
5, 43800, Note_on_c, 3, 86, 86
5, 43800, Control_c, 3, 11, 124
5, 43900, Note_on_c, 3, 86, 0
5, 43920, Note_on_c, 3, 86, 86
5, 43920, Control_c, 3, 11, 125
5, 44020, Note_on_c, 3, 86, 0
5, 44040, Note_on_c, 3, 86, 86
5, 44040, Control_c, 3, 11, 125
5, 44140, Note_on_c, 3, 86, 0
5, 44160, Control_c, 3, 11, 127
5, 44160, Note_on_c, 3, 87, 86
5, 44970, Note_on_c, 3, 87, 0
5, 45120, Note_on_c, 3, 55, 114
5, 45730, Note_on_c, 3, 55, 0
5, 45840, Note_on_c, 3, 55, 86
5, 46040, Note_on_c, 3, 55, 0
5, 46080, Note_on_c, 3, 56, 86
5, 46480, Note_on_c, 3, 56, 0
5, 46800, Note_on_c, 3, 80, 86
5, 46920, Note_on_c, 3, 80, 0
5, 46920, Note_on_c, 3, 82, 86
5, 47020, Note_on_c, 3, 82, 0
5, 47040, Note_on_c, 3, 84, 86
5, 47240, Note_on_c, 3, 84, 0
5, 47280, Note_on_c, 3, 84, 86
5, 47480, Note_on_c, 3, 84, 0
5, 47520, Note_on_c, 3, 84, 86
5, 47720, Note_on_c, 3, 84, 0
5, 47760, Note_on_c, 3, 84, 86
5, 47960, Note_on_c, 3, 84, 0
5, 48000, Note_on_c, 3, 82, 86
5, 48400, Note_on_c, 3, 82, 0
5, 48480, Note_on_c, 3, 80, 86
5, 48600, Note_on_c, 3, 80, 0
5, 48600, Note_on_c, 3, 79, 86
5, 48720, Note_on_c, 3, 79, 0
5, 48720, Note_on_c, 3, 77, 86
5, 48840, Note_on_c, 3, 77, 0
5, 48840, Note_on_c, 3, 75, 86
5, 48940, Note_on_c, 3, 75, 0
5, 48960, Note_on_c, 3, 79, 86
5, 49360, Note_on_c, 3, 79, 0
5, 49440, Note_on_c, 3, 77, 86
5, 49440, Note_on_c, 3, 70, 86
5, 49440, Note_on_c, 3, 62, 86
5, 49840, Note_on_c, 3, 77, 0
5, 49840, Note_on_c, 3, 70, 0
5, 49840, Note_on_c, 3, 62, 0
5, 49920, Note_on_c, 3, 82, 86
5, 49920, Note_on_c, 3, 70, 86
5, 49920, Note_on_c, 3, 63, 86
5, 50320, Note_on_c, 3, 70, 0
5, 50320, Note_on_c, 3, 63, 0
5, 50730, Note_on_c, 3, 82, 0
5, 50880, Note_on_c, 3, 61, 114
5, 51490, Note_on_c, 3, 61, 0
5, 51600, Note_on_c, 3, 61, 86
5, 51800, Note_on_c, 3, 61, 0
5, 51840, Note_on_c, 3, 60, 86
5, 52240, Note_on_c, 3, 60, 0
5, 52560, Note_on_c, 3, 84, 86
5, 52680, Note_on_c, 3, 84, 0
5, 52680, Note_on_c, 3, 86, 86
5, 52800, Note_on_c, 3, 86, 0
5, 52800, Note_on_c, 3, 87, 86
5, 53000, Note_on_c, 3, 87, 0
5, 53040, Note_on_c, 3, 87, 86
5, 53240, Note_on_c, 3, 87, 0
5, 53280, Note_on_c, 3, 87, 86
5, 53480, Note_on_c, 3, 87, 0
5, 53520, Note_on_c, 3, 87, 86
5, 53720, Note_on_c, 3, 87, 0
5, 53760, Note_on_c, 3, 82, 86
5, 54160, Note_on_c, 3, 82, 0
5, 54240, Note_on_c, 3, 82, 86
5, 54360, Note_on_c, 3, 82, 0
5, 54360, Note_on_c, 3, 84, 86
5, 54480, Note_on_c, 3, 84, 0
5, 54480, Note_on_c, 3, 81, 86
5, 54540, Note_on_c, 3, 81, 0
5, 54600, Note_on_c, 3, 84, 86
5, 54660, Note_on_c, 3, 84, 0
5, 54720, Note_on_c, 3, 82, 86
5, 55120, Note_on_c, 3, 82, 0
5, 55200, Note_on_c, 3, 82, 86
5, 55320, Note_on_c, 3, 82, 0
5, 55320, Note_on_c, 3, 84, 86
5, 55440, Note_on_c, 3, 84, 0
5, 55440, Note_on_c, 3, 81, 86
5, 55500, Note_on_c, 3, 81, 0
5, 55560, Note_on_c, 3, 84, 86
5, 55620, Note_on_c, 3, 84, 0
5, 55680, Note_on_c, 3, 82, 86
5, 56080, Note_on_c, 3, 82, 0
5, 56160, Note_on_c, 3, 82, 86
5, 56280, Note_on_c, 3, 82, 0
5, 56280, Note_on_c, 3, 84, 86
5, 56400, Note_on_c, 3, 84, 0
5, 56400, Note_on_c, 3, 81, 86
5, 56460, Note_on_c, 3, 81, 0
5, 56520, Note_on_c, 3, 84, 86
5, 56580, Note_on_c, 3, 84, 0
5, 56640, Note_on_c, 3, 82, 86
5, 56760, Note_on_c, 3, 82, 0
5, 56760, Note_on_c, 3, 84, 86
5, 56880, Note_on_c, 3, 84, 0
5, 56880, Note_on_c, 3, 81, 86
5, 56940, Note_on_c, 3, 81, 0
5, 57000, Note_on_c, 3, 84, 86
5, 57060, Note_on_c, 3, 84, 0
5, 57120, Note_on_c, 3, 82, 86
5, 57240, Note_on_c, 3, 82, 0
5, 57240, Note_on_c, 3, 84, 86
5, 57360, Note_on_c, 3, 84, 0
5, 57360, Note_on_c, 3, 81, 86
5, 57420, Note_on_c, 3, 81, 0
5, 57480, Note_on_c, 3, 84, 86
5, 57540, Note_on_c, 3, 84, 0
5, 57600, Note_on_c, 3, 82, 86
5, 57800, Note_on_c, 3, 82, 0
5, 57840, Note_on_c, 3, 82, 86
5, 58040, Note_on_c, 3, 82, 0
5, 58080, Note_on_c, 3, 87, 86
5, 58280, Note_on_c, 3, 87, 0
5, 58320, Note_on_c, 3, 79, 86
5, 58520, Note_on_c, 3, 79, 0
5, 58560, Note_on_c, 3, 82, 86
5, 58760, Note_on_c, 3, 82, 0
5, 58800, Note_on_c, 3, 75, 86
5, 59000, Note_on_c, 3, 75, 0
5, 59040, Note_on_c, 3, 79, 86
5, 59240, Note_on_c, 3, 79, 0
5, 59280, Note_on_c, 3, 70, 86
5, 59480, Note_on_c, 3, 70, 0
5, 59520, Note_on_c, 3, 82, 86
5, 59720, Note_on_c, 3, 82, 0
5, 59760, Note_on_c, 3, 79, 86
5, 59860, Note_on_c, 3, 79, 0
5, 59880, Note_on_c, 3, 75, 86
5, 59980, Note_on_c, 3, 75, 0
5, 60000, Note_on_c, 3, 70, 86
5, 60200, Note_on_c, 3, 70, 0
5, 60240, Note_on_c, 3, 67, 86
5, 60340, Note_on_c, 3, 67, 0
5, 60360, Note_on_c, 3, 63, 86
5, 60460, Note_on_c, 3, 63, 0
5, 60480, Note_on_c, 3, 58, 86
5, 60880, Note_on_c, 3, 58, 0
5, 60960, Note_on_c, 3, 74, 86
5, 60960, Note_on_c, 3, 65, 86
5, 60960, Note_on_c, 3, 58, 86
5, 61360, Note_on_c, 3, 74, 0
5, 61360, Note_on_c, 3, 65, 0
5, 61360, Note_on_c, 3, 58, 0
5, 61440, Note_on_c, 3, 75, 86
5, 61440, Note_on_c, 3, 67, 86
5, 61440, Note_on_c, 3, 58, 86
5, 61840, Note_on_c, 3, 75, 0
5, 61840, Note_on_c, 3, 67, 0
5, 61840, Note_on_c, 3, 58, 0
5, 62400, Note_on_c, 3, 67, 64
5, 62880, Note_on_c, 3, 67, 0
5, 62880, Note_on_c, 3, 63, 64
5, 63360, Note_on_c, 3, 63, 0
5, 63360, Note_on_c, 3, 68, 64
5, 63970, Note_on_c, 3, 68, 0
5, 64080, Note_on_c, 3, 65, 64
5, 64280, Note_on_c, 3, 65, 0
5, 64320, Note_on_c, 3, 63, 64
5, 64560, Note_on_c, 3, 63, 0
5, 64560, Note_on_c, 3, 62, 64
5, 64800, Note_on_c, 3, 62, 0
5, 64800, Note_on_c, 3, 60, 64
5, 65040, Note_on_c, 3, 60, 0
5, 65040, Note_on_c, 3, 62, 64
5, 65280, Note_on_c, 3, 62, 0
5, 65280, Note_on_c, 3, 63, 64
5, 65520, Note_on_c, 3, 63, 0
5, 65520, Note_on_c, 3, 67, 64
5, 65760, Note_on_c, 3, 67, 0
5, 65760, Note_on_c, 3, 70, 64
5, 66160, Note_on_c, 3, 70, 0
5, 66240, Note_on_c, 3, 67, 64
5, 66720, Note_on_c, 3, 67, 0
5, 66720, Note_on_c, 3, 63, 64
5, 67200, Note_on_c, 3, 63, 0
5, 67200, Note_on_c, 3, 68, 64
5, 67810, Note_on_c, 3, 68, 0
5, 67920, Note_on_c, 3, 65, 64
5, 68120, Note_on_c, 3, 65, 0
5, 68160, Note_on_c, 3, 62, 64
5, 68400, Note_on_c, 3, 62, 0
5, 68400, Note_on_c, 3, 63, 64
5, 68640, Note_on_c, 3, 63, 0
5, 68640, Note_on_c, 3, 65, 64
5, 68880, Note_on_c, 3, 65, 0
5, 68880, Note_on_c, 3, 67, 64
5, 69120, Note_on_c, 3, 67, 0
5, 69120, Note_on_c, 3, 63, 101
5, 69240, Note_on_c, 3, 63, 0
5, 69240, Note_on_c, 3, 62, 64
5, 69360, Note_on_c, 3, 62, 0
5, 69360, Note_on_c, 3, 63, 64
5, 69480, Note_on_c, 3, 63, 0
5, 69480, Note_on_c, 3, 62, 64
5, 69600, Note_on_c, 3, 62, 0
5, 69600, Note_on_c, 3, 63, 64
5, 69840, Note_on_c, 3, 63, 0
5, 70080, Note_on_c, 3, 61, 64
5, 70200, Note_on_c, 3, 61, 0
5, 70200, Note_on_c, 3, 60, 64
5, 70320, Note_on_c, 3, 60, 0
5, 70320, Note_on_c, 3, 61, 64
5, 70440, Note_on_c, 3, 61, 0
5, 70440, Note_on_c, 3, 60, 64
5, 70560, Note_on_c, 3, 60, 0
5, 70560, Note_on_c, 3, 61, 64
5, 70800, Note_on_c, 3, 61, 0
5, 71040, Note_on_c, 3, 60, 64
5, 71160, Note_on_c, 3, 60, 0
5, 71160, Note_on_c, 3, 59, 64
5, 71280, Note_on_c, 3, 59, 0
5, 71280, Note_on_c, 3, 60, 64
5, 71400, Note_on_c, 3, 60, 0
5, 71400, Note_on_c, 3, 59, 64
5, 71520, Note_on_c, 3, 59, 0
5, 71520, Note_on_c, 3, 60, 64
5, 71760, Note_on_c, 3, 60, 0
5, 72000, Note_on_c, 3, 65, 64
5, 72100, Note_on_c, 3, 65, 0
5, 72120, Note_on_c, 3, 64, 64
5, 72240, Note_on_c, 3, 64, 0
5, 72240, Note_on_c, 3, 65, 64
5, 72360, Note_on_c, 3, 65, 0
5, 72360, Note_on_c, 3, 64, 64
5, 72480, Note_on_c, 3, 64, 0
5, 72480, Note_on_c, 3, 65, 64
5, 72600, Note_on_c, 3, 65, 0
5, 72600, Note_on_c, 3, 68, 64
5, 72720, Note_on_c, 3, 68, 0
5, 72720, Note_on_c, 3, 67, 64
5, 72840, Note_on_c, 3, 67, 0
5, 72840, Note_on_c, 3, 65, 64
5, 72960, Note_on_c, 3, 65, 0
5, 72960, Note_on_c, 3, 63, 64
5, 73080, Note_on_c, 3, 63, 0
5, 73080, Note_on_c, 3, 62, 64
5, 73200, Note_on_c, 3, 62, 0
5, 73200, Note_on_c, 3, 63, 64
5, 73320, Note_on_c, 3, 63, 0
5, 73320, Note_on_c, 3, 62, 64
5, 73440, Note_on_c, 3, 62, 0
5, 73440, Note_on_c, 3, 63, 64
5, 73680, Note_on_c, 3, 63, 0
5, 73920, Note_on_c, 3, 73, 64
5, 74040, Note_on_c, 3, 73, 0
5, 74040, Note_on_c, 3, 72, 64
5, 74160, Note_on_c, 3, 72, 0
5, 74160, Note_on_c, 3, 73, 64
5, 74280, Note_on_c, 3, 73, 0
5, 74280, Note_on_c, 3, 72, 64
5, 74400, Note_on_c, 3, 72, 0
5, 74400, Note_on_c, 3, 73, 64
5, 74640, Note_on_c, 3, 73, 0
5, 74880, Note_on_c, 3, 72, 64
5, 75000, Note_on_c, 3, 72, 0
5, 75000, Note_on_c, 3, 71, 64
5, 75120, Note_on_c, 3, 71, 0
5, 75120, Note_on_c, 3, 72, 64
5, 75240, Note_on_c, 3, 72, 0
5, 75240, Note_on_c, 3, 71, 64
5, 75360, Note_on_c, 3, 71, 0
5, 75360, Note_on_c, 3, 72, 64
5, 75600, Note_on_c, 3, 72, 0
5, 75840, Note_on_c, 3, 65, 64
5, 76080, Note_on_c, 3, 65, 0
5, 76080, Note_on_c, 3, 63, 64
5, 76320, Note_on_c, 3, 63, 0
5, 76320, Note_on_c, 3, 62, 64
5, 76440, Note_on_c, 3, 62, 0
5, 76560, Note_on_c, 3, 62, 64
5, 76680, Note_on_c, 3, 62, 0
5, 76800, Note_on_c, 3, 63, 64
5, 77200, Note_on_c, 3, 63, 0
5, 77520, Note_on_c, 3, 82, 86
5, 77520, Note_on_c, 3, 70, 86
5, 77720, Note_on_c, 3, 82, 0
5, 77720, Note_on_c, 3, 70, 0
5, 77760, Note_on_c, 3, 79, 86
5, 77760, Note_on_c, 3, 70, 86
5, 77960, Note_on_c, 3, 79, 0
5, 77960, Note_on_c, 3, 70, 0
5, 78000, Note_on_c, 3, 79, 86
5, 78000, Note_on_c, 3, 70, 86
5, 78200, Note_on_c, 3, 79, 0
5, 78200, Note_on_c, 3, 70, 0
5, 78240, Note_on_c, 3, 80, 86
5, 78240, Note_on_c, 3, 70, 86
5, 78440, Note_on_c, 3, 80, 0
5, 78440, Note_on_c, 3, 70, 0
5, 78480, Note_on_c, 3, 80, 86
5, 78480, Note_on_c, 3, 70, 86
5, 78680, Note_on_c, 3, 80, 0
5, 78680, Note_on_c, 3, 70, 0
5, 78720, Note_on_c, 3, 79, 86
5, 78720, Note_on_c, 3, 70, 86
5, 79120, Note_on_c, 3, 79, 0
5, 79120, Note_on_c, 3, 70, 0
5, 79440, Note_on_c, 3, 77, 86
5, 79440, Note_on_c, 3, 70, 86
5, 79640, Note_on_c, 3, 77, 0
5, 79640, Note_on_c, 3, 70, 0
5, 79680, Note_on_c, 3, 75, 86
5, 79680, Note_on_c, 3, 67, 86
5, 79880, Note_on_c, 3, 75, 0
5, 79880, Note_on_c, 3, 67, 0
5, 79920, Note_on_c, 3, 75, 86
5, 79920, Note_on_c, 3, 67, 86
5, 80120, Note_on_c, 3, 75, 0
5, 80120, Note_on_c, 3, 67, 0
5, 80160, Note_on_c, 3, 77, 86
5, 80160, Note_on_c, 3, 70, 86
5, 80360, Note_on_c, 3, 77, 0
5, 80360, Note_on_c, 3, 70, 0
5, 80400, Note_on_c, 3, 77, 86
5, 80400, Note_on_c, 3, 70, 86
5, 80600, Note_on_c, 3, 77, 0
5, 80600, Note_on_c, 3, 70, 0
5, 80640, Note_on_c, 3, 75, 86
5, 80640, Note_on_c, 3, 67, 86
5, 81040, Note_on_c, 3, 75, 0
5, 81040, Note_on_c, 3, 67, 0
5, 81120, Note_on_c, 3, 79, 86
5, 81120, Note_on_c, 3, 70, 86
5, 81120, Note_on_c, 3, 63, 86
5, 81520, Note_on_c, 3, 79, 0
5, 81520, Note_on_c, 3, 70, 0
5, 81520, Note_on_c, 3, 63, 0
5, 81600, Note_on_c, 3, 63, 86
5, 81600, Note_on_c, 3, 55, 86
5, 82000, Note_on_c, 3, 63, 0
5, 82000, Note_on_c, 3, 55, 0
5, 82800, Note_on_c, 3, 63, 64
5, 83000, Note_on_c, 3, 63, 0
5, 83040, Note_on_c, 3, 63, 64
5, 83240, Note_on_c, 3, 63, 0
5, 83280, Note_on_c, 3, 63, 64
5, 83480, Note_on_c, 3, 63, 0
5, 83520, Note_on_c, 3, 63, 64
5, 83720, Note_on_c, 3, 63, 0
5, 83760, Note_on_c, 3, 63, 64
5, 83960, Note_on_c, 3, 63, 0
5, 84000, Note_on_c, 3, 63, 64
5, 84200, Note_on_c, 3, 63, 0
5, 84240, Note_on_c, 3, 63, 64
5, 84440, Note_on_c, 3, 63, 0
5, 84720, Note_on_c, 3, 63, 64
5, 84920, Note_on_c, 3, 63, 0
5, 84960, Note_on_c, 3, 63, 64
5, 85160, Note_on_c, 3, 63, 0
5, 85200, Note_on_c, 3, 63, 64
5, 85400, Note_on_c, 3, 63, 0
5, 85440, Note_on_c, 3, 63, 64
5, 85640, Note_on_c, 3, 63, 0
5, 85680, Note_on_c, 3, 63, 64
5, 85880, Note_on_c, 3, 63, 0
5, 85920, Note_on_c, 3, 63, 64
5, 86120, Note_on_c, 3, 63, 0
5, 86160, Note_on_c, 3, 63, 64
5, 86360, Note_on_c, 3, 63, 0
5, 86640, Note_on_c, 3, 63, 64
5, 86840, Note_on_c, 3, 63, 0
5, 86880, Note_on_c, 3, 63, 64
5, 87080, Note_on_c, 3, 63, 0
5, 87120, Note_on_c, 3, 63, 64
5, 87320, Note_on_c, 3, 63, 0
5, 87360, Note_on_c, 3, 63, 64
5, 87560, Note_on_c, 3, 63, 0
5, 87600, Note_on_c, 3, 63, 64
5, 87800, Note_on_c, 3, 63, 0
5, 87840, Note_on_c, 3, 63, 64
5, 88040, Note_on_c, 3, 63, 0
5, 88080, Note_on_c, 3, 63, 64
5, 88280, Note_on_c, 3, 63, 0
5, 88320, Note_on_c, 3, 65, 64
5, 88520, Note_on_c, 3, 65, 0
5, 88560, Note_on_c, 3, 65, 64
5, 88760, Note_on_c, 3, 65, 0
5, 88800, Note_on_c, 3, 62, 64
5, 89000, Note_on_c, 3, 62, 0
5, 89040, Note_on_c, 3, 62, 64
5, 89240, Note_on_c, 3, 62, 0
5, 89280, Note_on_c, 3, 63, 64
5, 89480, Note_on_c, 3, 63, 0
5, 89520, Note_on_c, 3, 63, 64
5, 89760, Note_on_c, 3, 63, 0
5, 89760, Note_on_c, 3, 62, 64
5, 90000, Note_on_c, 3, 62, 0
5, 90000, Note_on_c, 3, 61, 64
5, 90240, Note_on_c, 3, 61, 0
5, 90240, Note_on_c, 3, 60, 64
5, 90480, Note_on_c, 3, 60, 0
5, 90480, Note_on_c, 3, 63, 64
5, 90720, Note_on_c, 3, 63, 0
5, 90720, Note_on_c, 3, 63, 64
5, 90840, Note_on_c, 3, 63, 0
5, 90960, Note_on_c, 3, 63, 64
5, 91080, Note_on_c, 3, 63, 0
5, 91200, Note_on_c, 3, 63, 64
5, 91400, Note_on_c, 3, 63, 0
5, 91440, Note_on_c, 3, 63, 64
5, 91640, Note_on_c, 3, 63, 0
5, 91680, Note_on_c, 3, 63, 64
5, 91880, Note_on_c, 3, 63, 0
5, 91920, Note_on_c, 3, 63, 64
5, 92120, Note_on_c, 3, 63, 0
5, 92400, Note_on_c, 3, 63, 64
5, 92600, Note_on_c, 3, 63, 0
5, 92640, Note_on_c, 3, 63, 64
5, 92840, Note_on_c, 3, 63, 0
5, 92880, Note_on_c, 3, 63, 64
5, 93080, Note_on_c, 3, 63, 0
5, 93120, Note_on_c, 3, 62, 64
5, 93360, Note_on_c, 3, 62, 0
5, 93360, Note_on_c, 3, 63, 64
5, 93600, Note_on_c, 3, 63, 0
5, 93600, Note_on_c, 3, 65, 64
5, 93840, Note_on_c, 3, 65, 0
5, 93840, Note_on_c, 3, 67, 64
5, 94080, Note_on_c, 3, 67, 0
5, 94080, Note_on_c, 3, 68, 64
5, 94320, Note_on_c, 3, 68, 0
5, 94320, Note_on_c, 3, 67, 64
5, 94560, Note_on_c, 3, 67, 0
5, 94560, Note_on_c, 3, 65, 64
5, 94800, Note_on_c, 3, 65, 0
5, 94800, Note_on_c, 3, 63, 64
5, 95040, Note_on_c, 3, 63, 0
5, 95040, Note_on_c, 3, 62, 64
5, 95240, Note_on_c, 3, 62, 0
5, 95280, Note_on_c, 3, 62, 64
5, 95480, Note_on_c, 3, 62, 0
5, 95520, Note_on_c, 3, 65, 64
5, 95720, Note_on_c, 3, 65, 0
5, 95760, Note_on_c, 3, 65, 64
5, 95960, Note_on_c, 3, 65, 0
5, 96000, Note_on_c, 3, 62, 64
5, 96200, Note_on_c, 3, 62, 0
5, 96240, Note_on_c, 3, 62, 64
5, 96440, Note_on_c, 3, 62, 0
5, 96480, Note_on_c, 3, 63, 64
5, 96680, Note_on_c, 3, 63, 0
5, 96720, Note_on_c, 3, 63, 64
5, 96920, Note_on_c, 3, 63, 0
5, 96960, Note_on_c, 3, 62, 64
5, 97160, Note_on_c, 3, 62, 0
5, 97200, Note_on_c, 3, 62, 64
5, 97400, Note_on_c, 3, 62, 0
5, 97440, Note_on_c, 3, 61, 64
5, 97640, Note_on_c, 3, 61, 0
5, 97680, Note_on_c, 3, 61, 64
5, 97880, Note_on_c, 3, 61, 0
5, 97920, Note_on_c, 3, 60, 64
5, 98160, Note_on_c, 3, 60, 0
5, 98160, Note_on_c, 3, 63, 64
5, 98400, Note_on_c, 3, 63, 0
5, 98400, Note_on_c, 3, 63, 64
5, 98600, Note_on_c, 3, 63, 0
5, 98640, Note_on_c, 3, 63, 64
5, 98840, Note_on_c, 3, 63, 0
5, 98880, Note_on_c, 3, 63, 64
5, 99080, Note_on_c, 3, 63, 0
5, 99120, Note_on_c, 3, 63, 64
5, 99320, Note_on_c, 3, 63, 0
5, 99360, Note_on_c, 3, 63, 64
5, 99560, Note_on_c, 3, 63, 0
5, 99600, Note_on_c, 3, 63, 64
5, 99800, Note_on_c, 3, 63, 0
5, 99840, Note_on_c, 3, 63, 64
5, 100240, Note_on_c, 3, 63, 0
5, 100320, Note_on_c, 3, 68, 64
5, 100720, Note_on_c, 3, 68, 0
5, 100800, Note_on_c, 3, 67, 64
5, 101200, Note_on_c, 3, 67, 0
5, 101760, Note_on_c, 3, 70, 64
5, 102000, Note_on_c, 3, 70, 0
5, 102000, Note_on_c, 3, 68, 64
5, 102200, Note_on_c, 3, 68, 0
5, 102240, Note_on_c, 3, 67, 64
5, 103200, Note_on_c, 3, 67, 0
5, 103200, Note_on_c, 3, 65, 64
5, 103680, Note_on_c, 3, 65, 0
5, 103680, Note_on_c, 3, 63, 64
5, 104080, Note_on_c, 3, 63, 0
5, 104400, Note_on_c, 3, 82, 86
5, 104400, Note_on_c, 3, 70, 86
5, 104600, Note_on_c, 3, 82, 0
5, 104600, Note_on_c, 3, 70, 0
5, 104640, Note_on_c, 3, 79, 86
5, 104640, Note_on_c, 3, 70, 86
5, 104840, Note_on_c, 3, 79, 0
5, 104840, Note_on_c, 3, 70, 0
5, 104880, Note_on_c, 3, 79, 86
5, 104880, Note_on_c, 3, 70, 86
5, 105080, Note_on_c, 3, 79, 0
5, 105080, Note_on_c, 3, 70, 0
5, 105120, Note_on_c, 3, 82, 86
5, 105120, Note_on_c, 3, 70, 86
5, 105320, Note_on_c, 3, 82, 0
5, 105320, Note_on_c, 3, 70, 0
5, 105360, Note_on_c, 3, 82, 86
5, 105360, Note_on_c, 3, 70, 86
5, 105560, Note_on_c, 3, 82, 0
5, 105560, Note_on_c, 3, 70, 0
5, 105600, Note_on_c, 3, 79, 86
5, 105600, Note_on_c, 3, 70, 86
5, 106000, Note_on_c, 3, 79, 0
5, 106000, Note_on_c, 3, 70, 0
5, 106320, Note_on_c, 3, 77, 86
5, 106320, Note_on_c, 3, 70, 86
5, 106520, Note_on_c, 3, 77, 0
5, 106520, Note_on_c, 3, 70, 0
5, 106560, Note_on_c, 3, 75, 86
5, 106560, Note_on_c, 3, 67, 86
5, 106760, Note_on_c, 3, 75, 0
5, 106760, Note_on_c, 3, 67, 0
5, 106800, Note_on_c, 3, 75, 86
5, 106800, Note_on_c, 3, 67, 86
5, 107000, Note_on_c, 3, 75, 0
5, 107000, Note_on_c, 3, 67, 0
5, 107040, Note_on_c, 3, 77, 86
5, 107040, Note_on_c, 3, 70, 86
5, 107240, Note_on_c, 3, 77, 0
5, 107240, Note_on_c, 3, 70, 0
5, 107280, Note_on_c, 3, 77, 86
5, 107280, Note_on_c, 3, 70, 86
5, 107480, Note_on_c, 3, 77, 0
5, 107480, Note_on_c, 3, 70, 0
5, 107520, Note_on_c, 3, 75, 86
5, 107520, Note_on_c, 3, 67, 86
5, 107920, Note_on_c, 3, 75, 0
5, 107920, Note_on_c, 3, 67, 0
5, 109680, Note_on_c, 3, 63, 64
5, 109880, Note_on_c, 3, 63, 0
5, 109920, Note_on_c, 3, 63, 64
5, 110120, Note_on_c, 3, 63, 0
5, 110160, Note_on_c, 3, 63, 64
5, 110360, Note_on_c, 3, 63, 0
5, 110400, Note_on_c, 3, 63, 64
5, 110600, Note_on_c, 3, 63, 0
5, 110640, Note_on_c, 3, 63, 64
5, 110840, Note_on_c, 3, 63, 0
5, 110880, Note_on_c, 3, 63, 64
5, 111080, Note_on_c, 3, 63, 0
5, 111120, Note_on_c, 3, 63, 64
5, 111320, Note_on_c, 3, 63, 0
5, 111600, Note_on_c, 3, 65, 64
5, 111800, Note_on_c, 3, 65, 0
5, 111840, Note_on_c, 3, 65, 64
5, 112040, Note_on_c, 3, 65, 0
5, 112080, Note_on_c, 3, 65, 64
5, 112280, Note_on_c, 3, 65, 0
5, 112320, Note_on_c, 3, 65, 64
5, 112520, Note_on_c, 3, 65, 0
5, 112560, Note_on_c, 3, 65, 64
5, 112760, Note_on_c, 3, 65, 0
5, 112800, Note_on_c, 3, 65, 64
5, 113000, Note_on_c, 3, 65, 0
5, 113040, Note_on_c, 3, 65, 64
5, 113240, Note_on_c, 3, 65, 0
5, 113520, Note_on_c, 3, 63, 64
5, 113720, Note_on_c, 3, 63, 0
5, 113760, Note_on_c, 3, 63, 64
5, 113960, Note_on_c, 3, 63, 0
5, 114000, Note_on_c, 3, 63, 64
5, 114200, Note_on_c, 3, 63, 0
5, 114240, Note_on_c, 3, 63, 64
5, 114440, Note_on_c, 3, 63, 0
5, 114480, Note_on_c, 3, 63, 64
5, 114680, Note_on_c, 3, 63, 0
5, 114720, Note_on_c, 3, 63, 64
5, 114920, Note_on_c, 3, 63, 0
5, 114960, Note_on_c, 3, 63, 64
5, 115160, Note_on_c, 3, 63, 0
5, 115200, Note_on_c, 3, 63, 64
5, 115400, Note_on_c, 3, 63, 0
5, 115440, Note_on_c, 3, 63, 64
5, 115640, Note_on_c, 3, 63, 0
5, 115680, Note_on_c, 3, 63, 64
5, 115880, Note_on_c, 3, 63, 0
5, 115920, Note_on_c, 3, 63, 64
5, 116120, Note_on_c, 3, 63, 0
5, 116160, Note_on_c, 3, 62, 64
5, 116400, Note_on_c, 3, 62, 0
5, 116400, Note_on_c, 3, 58, 64
5, 116640, Note_on_c, 3, 58, 0
5, 116640, Note_on_c, 3, 63, 64
5, 116880, Note_on_c, 3, 63, 0
5, 116880, Note_on_c, 3, 60, 64
5, 117120, Note_on_c, 3, 60, 0
5, 117120, Note_on_c, 3, 65, 64
5, 117320, Note_on_c, 3, 65, 0
5, 117360, Note_on_c, 3, 65, 64
5, 117560, Note_on_c, 3, 65, 0
5, 117600, Note_on_c, 3, 65, 64
5, 117800, Note_on_c, 3, 65, 0
5, 117840, Note_on_c, 3, 65, 64
5, 118040, Note_on_c, 3, 65, 0
5, 118080, Note_on_c, 3, 68, 64
5, 118280, Note_on_c, 3, 68, 0
5, 118320, Note_on_c, 3, 68, 64
5, 118520, Note_on_c, 3, 68, 0
5, 118560, Note_on_c, 3, 68, 64
5, 118760, Note_on_c, 3, 68, 0
5, 118800, Note_on_c, 3, 68, 64
5, 119000, Note_on_c, 3, 68, 0
5, 119040, Note_on_c, 3, 66, 64
5, 119240, Note_on_c, 3, 66, 0
5, 119280, Note_on_c, 3, 66, 64
5, 119480, Note_on_c, 3, 66, 0
5, 119520, Note_on_c, 3, 67, 64
5, 119720, Note_on_c, 3, 67, 0
5, 119760, Note_on_c, 3, 67, 64
5, 120000, Note_on_c, 3, 67, 0
5, 120000, Note_on_c, 3, 67, 64
5, 120240, Note_on_c, 3, 67, 0
5, 120240, Note_on_c, 3, 66, 64
5, 120480, Note_on_c, 3, 66, 0
5, 120480, Note_on_c, 3, 67, 64
5, 120720, Note_on_c, 3, 67, 0
5, 120720, Note_on_c, 3, 66, 64
5, 120960, Note_on_c, 3, 66, 0
5, 120960, Note_on_c, 3, 67, 64
5, 121160, Note_on_c, 3, 67, 0
5, 121200, Note_on_c, 3, 67, 64
5, 121400, Note_on_c, 3, 67, 0
5, 121440, Note_on_c, 3, 69, 64
5, 121640, Note_on_c, 3, 69, 0
5, 121680, Note_on_c, 3, 69, 64
5, 121880, Note_on_c, 3, 69, 0
5, 121920, Note_on_c, 3, 70, 64
5, 122120, Note_on_c, 3, 70, 0
5, 122160, Note_on_c, 3, 70, 64
5, 122360, Note_on_c, 3, 70, 0
5, 122400, Note_on_c, 3, 72, 64
5, 122600, Note_on_c, 3, 72, 0
5, 122640, Note_on_c, 3, 72, 64
5, 122840, Note_on_c, 3, 72, 0
5, 122880, Note_on_c, 3, 65, 64
5, 123080, Note_on_c, 3, 65, 0
5, 123120, Note_on_c, 3, 77, 86
5, 123320, Note_on_c, 3, 77, 0
5, 123360, Note_on_c, 3, 77, 86
5, 123560, Note_on_c, 3, 77, 0
5, 123600, Note_on_c, 3, 77, 86
5, 123800, Note_on_c, 3, 77, 0
5, 123840, Note_on_c, 3, 77, 86
5, 124040, Note_on_c, 3, 77, 0
5, 124080, Note_on_c, 3, 72, 86
5, 124280, Note_on_c, 3, 72, 0
5, 124320, Note_on_c, 3, 69, 86
5, 124520, Note_on_c, 3, 69, 0
5, 124560, Note_on_c, 3, 65, 86
5, 124760, Note_on_c, 3, 65, 0
5, 124800, Note_on_c, 3, 63, 64
5, 125000, Note_on_c, 3, 63, 0
5, 125040, Note_on_c, 3, 63, 64
5, 125240, Note_on_c, 3, 63, 0
5, 125280, Note_on_c, 3, 63, 64
5, 125480, Note_on_c, 3, 63, 0
5, 125520, Note_on_c, 3, 63, 64
5, 125720, Note_on_c, 3, 63, 0
5, 125760, Note_on_c, 3, 63, 64
5, 125960, Note_on_c, 3, 63, 0
5, 126000, Note_on_c, 3, 63, 64
5, 126200, Note_on_c, 3, 63, 0
5, 126240, Note_on_c, 3, 63, 64
5, 126440, Note_on_c, 3, 63, 0
5, 126480, Note_on_c, 3, 63, 64
5, 126680, Note_on_c, 3, 63, 0
5, 126720, Note_on_c, 3, 63, 64
5, 126840, Note_on_c, 3, 63, 0
5, 126960, Note_on_c, 3, 75, 64
5, 127080, Note_on_c, 3, 75, 0
5, 127080, Note_on_c, 3, 74, 64
5, 127200, Note_on_c, 3, 74, 0
5, 127200, Note_on_c, 3, 72, 64
5, 127320, Note_on_c, 3, 72, 0
5, 127440, Note_on_c, 3, 72, 64
5, 127560, Note_on_c, 3, 72, 0
5, 127560, Note_on_c, 3, 70, 64
5, 127680, Note_on_c, 3, 70, 0
5, 127680, Note_on_c, 3, 69, 64
5, 127800, Note_on_c, 3, 69, 0
5, 127920, Note_on_c, 3, 69, 64
5, 128040, Note_on_c, 3, 69, 0
5, 128040, Note_on_c, 3, 67, 64
5, 128160, Note_on_c, 3, 67, 0
5, 128160, Note_on_c, 3, 65, 64
5, 128280, Note_on_c, 3, 65, 0
5, 128400, Note_on_c, 3, 65, 64
5, 128520, Note_on_c, 3, 65, 0
5, 128520, Note_on_c, 3, 63, 64
5, 128640, Note_on_c, 3, 63, 0
5, 128640, Note_on_c, 3, 62, 64
5, 128840, Note_on_c, 3, 62, 0
5, 128880, Note_on_c, 3, 62, 64
5, 129080, Note_on_c, 3, 62, 0
5, 129120, Note_on_c, 3, 62, 64
5, 129320, Note_on_c, 3, 62, 0
5, 129360, Note_on_c, 3, 62, 64
5, 129560, Note_on_c, 3, 62, 0
5, 129600, Note_on_c, 3, 62, 64
5, 129800, Note_on_c, 3, 62, 0
5, 129840, Note_on_c, 3, 62, 64
5, 130040, Note_on_c, 3, 62, 0
5, 130080, Note_on_c, 3, 62, 64
5, 130280, Note_on_c, 3, 62, 0
5, 130320, Note_on_c, 3, 62, 64
5, 130520, Note_on_c, 3, 62, 0
5, 130560, Note_on_c, 3, 62, 64
5, 130680, Note_on_c, 3, 62, 0
5, 130800, Note_on_c, 3, 77, 64
5, 130920, Note_on_c, 3, 77, 0
5, 130920, Note_on_c, 3, 75, 64
5, 131040, Note_on_c, 3, 75, 0
5, 131040, Note_on_c, 3, 74, 64
5, 131160, Note_on_c, 3, 74, 0
5, 131280, Note_on_c, 3, 74, 64
5, 131400, Note_on_c, 3, 74, 0
5, 131400, Note_on_c, 3, 72, 64
5, 131520, Note_on_c, 3, 72, 0
5, 131520, Note_on_c, 3, 70, 64
5, 131640, Note_on_c, 3, 70, 0
5, 131760, Note_on_c, 3, 70, 64
5, 131880, Note_on_c, 3, 70, 0
5, 131880, Note_on_c, 3, 69, 64
5, 132000, Note_on_c, 3, 69, 0
5, 132000, Note_on_c, 3, 67, 64
5, 132120, Note_on_c, 3, 67, 0
5, 132240, Note_on_c, 3, 67, 64
5, 132360, Note_on_c, 3, 67, 0
5, 132360, Note_on_c, 3, 65, 64
5, 132480, Note_on_c, 3, 65, 0
5, 132480, Note_on_c, 3, 63, 64
5, 132680, Note_on_c, 3, 63, 0
5, 132720, Note_on_c, 3, 63, 64
5, 132920, Note_on_c, 3, 63, 0
5, 132960, Note_on_c, 3, 63, 64
5, 133160, Note_on_c, 3, 63, 0
5, 133200, Note_on_c, 3, 63, 64
5, 133400, Note_on_c, 3, 63, 0
5, 133440, Note_on_c, 3, 63, 64
5, 133640, Note_on_c, 3, 63, 0
5, 133680, Note_on_c, 3, 63, 64
5, 133880, Note_on_c, 3, 63, 0
5, 133920, Note_on_c, 3, 63, 64
5, 134120, Note_on_c, 3, 63, 0
5, 134160, Note_on_c, 3, 63, 64
5, 134360, Note_on_c, 3, 63, 0
5, 134400, Note_on_c, 3, 63, 64
5, 134600, Note_on_c, 3, 63, 0
5, 134640, Note_on_c, 3, 75, 64
5, 134840, Note_on_c, 3, 75, 0
5, 134880, Note_on_c, 3, 75, 64
5, 135080, Note_on_c, 3, 75, 0
5, 135120, Note_on_c, 3, 75, 64
5, 135320, Note_on_c, 3, 75, 0
5, 135600, Note_on_c, 3, 63, 64
5, 135800, Note_on_c, 3, 63, 0
5, 135840, Note_on_c, 3, 63, 64
5, 136040, Note_on_c, 3, 63, 0
5, 136080, Note_on_c, 3, 63, 64
5, 136280, Note_on_c, 3, 63, 0
5, 136560, Note_on_c, 3, 62, 64
5, 136760, Note_on_c, 3, 62, 0
5, 136800, Note_on_c, 3, 62, 64
5, 137000, Note_on_c, 3, 62, 0
5, 137040, Note_on_c, 3, 62, 64
5, 137240, Note_on_c, 3, 62, 0
5, 137520, Note_on_c, 3, 67, 64
5, 137720, Note_on_c, 3, 67, 0
5, 137760, Note_on_c, 3, 67, 64
5, 137960, Note_on_c, 3, 67, 0
5, 138000, Note_on_c, 3, 67, 64
5, 138200, Note_on_c, 3, 67, 0
5, 138480, Note_on_c, 3, 65, 64
5, 138680, Note_on_c, 3, 65, 0
5, 138720, Note_on_c, 3, 65, 64
5, 138920, Note_on_c, 3, 65, 0
5, 138960, Note_on_c, 3, 65, 64
5, 139160, Note_on_c, 3, 65, 0
5, 139200, Note_on_c, 3, 65, 64
5, 139400, Note_on_c, 3, 65, 0
5, 139440, Note_on_c, 3, 65, 64
5, 139640, Note_on_c, 3, 65, 0
5, 139680, Note_on_c, 3, 65, 64
5, 139880, Note_on_c, 3, 65, 0
5, 139920, Note_on_c, 3, 65, 64
5, 140120, Note_on_c, 3, 65, 0
5, 140160, Note_on_c, 3, 63, 64
5, 140260, Note_on_c, 3, 63, 0
5, 140280, Note_on_c, 3, 63, 64
5, 140380, Note_on_c, 3, 63, 0
5, 140400, Note_on_c, 3, 63, 64
5, 140500, Note_on_c, 3, 63, 0
5, 140520, Control_c, 3, 11, 94
5, 140520, Note_on_c, 3, 63, 86
5, 140620, Note_on_c, 3, 63, 0
5, 140640, Control_c, 3, 11, 94
5, 140640, Note_on_c, 3, 72, 86
5, 140740, Note_on_c, 3, 72, 0
5, 140760, Control_c, 3, 11, 97
5, 140760, Note_on_c, 3, 72, 86
5, 140860, Note_on_c, 3, 72, 0
5, 140880, Control_c, 3, 11, 100
5, 140880, Note_on_c, 3, 72, 86
5, 140980, Note_on_c, 3, 72, 0
5, 141000, Control_c, 3, 11, 103
5, 141000, Note_on_c, 3, 72, 86
5, 141100, Note_on_c, 3, 72, 0
5, 141120, Control_c, 3, 11, 106
5, 141120, Note_on_c, 3, 75, 86
5, 141220, Note_on_c, 3, 75, 0
5, 141240, Control_c, 3, 11, 109
5, 141240, Note_on_c, 3, 75, 86
5, 141340, Note_on_c, 3, 75, 0
5, 141360, Control_c, 3, 11, 112
5, 141360, Note_on_c, 3, 75, 86
5, 141460, Note_on_c, 3, 75, 0
5, 141480, Control_c, 3, 11, 115
5, 141480, Note_on_c, 3, 75, 86
5, 141580, Note_on_c, 3, 75, 0
5, 141600, Control_c, 3, 11, 118
5, 141600, Note_on_c, 3, 81, 86
5, 141700, Note_on_c, 3, 81, 0
5, 141720, Control_c, 3, 11, 119
5, 141720, Note_on_c, 3, 81, 86
5, 141820, Note_on_c, 3, 81, 0
5, 141840, Control_c, 3, 11, 122
5, 141840, Note_on_c, 3, 81, 86
5, 141940, Note_on_c, 3, 81, 0
5, 141960, Control_c, 3, 11, 125
5, 141960, Note_on_c, 3, 81, 86
5, 142060, Note_on_c, 3, 81, 0
5, 142080, Control_c, 3, 11, 127
5, 142080, Note_on_c, 3, 82, 86
5, 142480, Note_on_c, 3, 82, 0
5, 142560, Note_on_c, 3, 58, 86
5, 142960, Note_on_c, 3, 58, 0
5, 143280, Note_on_c, 3, 74, 86
5, 143400, Note_on_c, 3, 74, 0
5, 143400, Note_on_c, 3, 77, 86
5, 143520, Note_on_c, 3, 77, 0
5, 143520, Note_on_c, 3, 82, 86
5, 143720, Note_on_c, 3, 82, 0
5, 143760, Note_on_c, 3, 82, 86
5, 143960, Note_on_c, 3, 82, 0
5, 144000, Note_on_c, 3, 79, 86
5, 144400, Note_on_c, 3, 79, 0
5, 144480, Note_on_c, 3, 63, 86
5, 144480, Note_on_c, 3, 55, 86
5, 144880, Note_on_c, 3, 63, 0
5, 144880, Note_on_c, 3, 55, 0
5, 145200, Note_on_c, 3, 75, 86
5, 145320, Note_on_c, 3, 75, 0
5, 145320, Note_on_c, 3, 79, 86
5, 145440, Note_on_c, 3, 79, 0
5, 145440, Note_on_c, 3, 82, 86
5, 145640, Note_on_c, 3, 82, 0
5, 145680, Note_on_c, 3, 82, 86
5, 145880, Note_on_c, 3, 82, 0
5, 145920, Note_on_c, 3, 77, 86
5, 146320, Note_on_c, 3, 77, 0
5, 146400, Note_on_c, 3, 62, 86
5, 146400, Note_on_c, 3, 58, 86
5, 146800, Note_on_c, 3, 62, 0
5, 146800, Note_on_c, 3, 58, 0
5, 147120, Note_on_c, 3, 74, 86
5, 147240, Note_on_c, 3, 74, 0
5, 147240, Note_on_c, 3, 77, 86
5, 147360, Note_on_c, 3, 77, 0
5, 147360, Note_on_c, 3, 82, 86
5, 147560, Note_on_c, 3, 82, 0
5, 147600, Note_on_c, 3, 82, 86
5, 147800, Note_on_c, 3, 82, 0
5, 147840, Note_on_c, 3, 75, 86
5, 148040, Note_on_c, 3, 75, 0
5, 148080, Note_on_c, 3, 79, 86
5, 148180, Note_on_c, 3, 79, 0
5, 148200, Note_on_c, 3, 77, 86
5, 148300, Note_on_c, 3, 77, 0
5, 148320, Note_on_c, 3, 75, 86
5, 148420, Note_on_c, 3, 75, 0
5, 148440, Note_on_c, 3, 74, 86
5, 148540, Note_on_c, 3, 74, 0
5, 148560, Note_on_c, 3, 72, 86
5, 148660, Note_on_c, 3, 72, 0
5, 148680, Note_on_c, 3, 70, 86
5, 148780, Note_on_c, 3, 70, 0
5, 148800, Note_on_c, 3, 69, 86
5, 149000, Note_on_c, 3, 69, 0
5, 149040, Note_on_c, 3, 72, 86
5, 149140, Note_on_c, 3, 72, 0
5, 149160, Note_on_c, 3, 70, 86
5, 149260, Note_on_c, 3, 70, 0
5, 149280, Note_on_c, 3, 69, 86
5, 149380, Note_on_c, 3, 69, 0
5, 149400, Note_on_c, 3, 67, 86
5, 149500, Note_on_c, 3, 67, 0
5, 149520, Note_on_c, 3, 65, 86
5, 149620, Note_on_c, 3, 65, 0
5, 149640, Note_on_c, 3, 63, 86
5, 149740, Note_on_c, 3, 63, 0
5, 149760, Note_on_c, 3, 62, 86
5, 149860, Note_on_c, 3, 62, 0
5, 149880, Note_on_c, 3, 65, 86
5, 149980, Note_on_c, 3, 65, 0
5, 150000, Note_on_c, 3, 63, 86
5, 150100, Note_on_c, 3, 63, 0
5, 150120, Note_on_c, 3, 62, 86
5, 150220, Note_on_c, 3, 62, 0
5, 150240, Note_on_c, 3, 63, 86
5, 150340, Note_on_c, 3, 63, 0
5, 150360, Note_on_c, 3, 65, 86
5, 150460, Note_on_c, 3, 65, 0
5, 150480, Note_on_c, 3, 67, 86
5, 150580, Note_on_c, 3, 67, 0
5, 150600, Note_on_c, 3, 69, 86
5, 150700, Note_on_c, 3, 69, 0
5, 150720, Note_on_c, 3, 70, 86
5, 150820, Note_on_c, 3, 70, 0
5, 150840, Note_on_c, 3, 72, 86
5, 150940, Note_on_c, 3, 72, 0
5, 150960, Note_on_c, 3, 74, 86
5, 151060, Note_on_c, 3, 74, 0
5, 151080, Note_on_c, 3, 75, 86
5, 151180, Note_on_c, 3, 75, 0
5, 151200, Note_on_c, 3, 77, 86
5, 151300, Note_on_c, 3, 77, 0
5, 151320, Note_on_c, 3, 79, 86
5, 151420, Note_on_c, 3, 79, 0
5, 151440, Note_on_c, 3, 81, 86
5, 151540, Note_on_c, 3, 81, 0
5, 151560, Note_on_c, 3, 82, 86
5, 151660, Note_on_c, 3, 82, 0
5, 151680, Note_on_c, 3, 79, 86
5, 152080, Note_on_c, 3, 79, 0
5, 152400, Note_on_c, 3, 79, 86
5, 152520, Note_on_c, 3, 79, 0
5, 152520, Note_on_c, 3, 81, 86
5, 152640, Note_on_c, 3, 81, 0
5, 152640, Note_on_c, 3, 82, 86
5, 152840, Note_on_c, 3, 82, 0
5, 152880, Note_on_c, 3, 82, 86
5, 153080, Note_on_c, 3, 82, 0
5, 153120, Note_on_c, 3, 82, 86
5, 153320, Note_on_c, 3, 82, 0
5, 153360, Note_on_c, 3, 82, 86
5, 153560, Note_on_c, 3, 82, 0
5, 153600, Note_on_c, 3, 82, 86
5, 153800, Note_on_c, 3, 82, 0
5, 153840, Note_on_c, 3, 77, 86
5, 153960, Note_on_c, 3, 77, 0
5, 153960, Note_on_c, 3, 74, 86
5, 154080, Note_on_c, 3, 74, 0
5, 154080, Note_on_c, 3, 77, 86
5, 154280, Note_on_c, 3, 77, 0
5, 154320, Note_on_c, 3, 74, 86
5, 154440, Note_on_c, 3, 74, 0
5, 154440, Note_on_c, 3, 70, 86
5, 154560, Note_on_c, 3, 70, 0
5, 154560, Note_on_c, 3, 65, 86
5, 154960, Note_on_c, 3, 65, 0
5, 155040, Note_on_c, 3, 81, 86
5, 155040, Note_on_c, 3, 72, 86
5, 155040, Note_on_c, 3, 65, 86
5, 155440, Note_on_c, 3, 81, 0
5, 155440, Note_on_c, 3, 72, 0
5, 155440, Note_on_c, 3, 65, 0
5, 155520, Note_on_c, 3, 82, 86
5, 155520, Note_on_c, 3, 74, 86
5, 155520, Note_on_c, 3, 65, 86
5, 155920, Note_on_c, 3, 82, 0
5, 155920, Note_on_c, 3, 74, 0
5, 155920, Note_on_c, 3, 65, 0
5, 156240, Note_on_c, 3, 58, 64
5, 156480, Note_on_c, 3, 58, 0
5, 156480, Note_on_c, 3, 62, 64
5, 156960, Note_on_c, 3, 62, 0
5, 157200, Note_on_c, 3, 62, 64
5, 157440, Note_on_c, 3, 62, 0
5, 157440, Note_on_c, 3, 65, 64
5, 157920, Note_on_c, 3, 65, 0
5, 158160, Note_on_c, 3, 65, 64
5, 158360, Note_on_c, 3, 65, 0
5, 158400, Note_on_c, 3, 68, 114
5, 159010, Note_on_c, 3, 68, 0
5, 159120, Note_on_c, 3, 65, 64
5, 159240, Note_on_c, 3, 65, 0
5, 159240, Note_on_c, 3, 62, 64
5, 159360, Note_on_c, 3, 62, 0
5, 159360, Note_on_c, 3, 59, 64
5, 159560, Note_on_c, 3, 59, 0
5, 159840, Note_on_c, 3, 62, 64
5, 160040, Note_on_c, 3, 62, 0
5, 160320, Note_on_c, 3, 67, 114
5, 160930, Note_on_c, 3, 67, 0
5, 161040, Note_on_c, 3, 65, 64
5, 161160, Note_on_c, 3, 65, 0
5, 161160, Note_on_c, 3, 62, 64
5, 161280, Note_on_c, 3, 62, 0
5, 161280, Note_on_c, 3, 60, 64
5, 161480, Note_on_c, 3, 60, 0
5, 161520, Note_on_c, 3, 60, 64
5, 161720, Note_on_c, 3, 60, 0
5, 161760, Note_on_c, 3, 60, 64
5, 161960, Note_on_c, 3, 60, 0
5, 162000, Note_on_c, 3, 60, 64
5, 162200, Note_on_c, 3, 60, 0
5, 162240, Note_on_c, 3, 60, 64
5, 162440, Note_on_c, 3, 60, 0
5, 162480, Note_on_c, 3, 60, 64
5, 162680, Note_on_c, 3, 60, 0
5, 162720, Note_on_c, 3, 60, 64
5, 162920, Note_on_c, 3, 60, 0
5, 162960, Note_on_c, 3, 60, 64
5, 163160, Note_on_c, 3, 60, 0
5, 163200, Note_on_c, 3, 68, 64
5, 163810, Note_on_c, 3, 68, 0
5, 163920, Note_on_c, 3, 67, 64
5, 164120, Note_on_c, 3, 67, 0
5, 164160, Note_on_c, 3, 65, 64
5, 164400, Note_on_c, 3, 65, 0
5, 164400, Note_on_c, 3, 63, 64
5, 164640, Note_on_c, 3, 63, 0
5, 164640, Note_on_c, 3, 62, 64
5, 164880, Note_on_c, 3, 62, 0
5, 164880, Note_on_c, 3, 60, 64
5, 165120, Note_on_c, 3, 60, 0
5, 165360, Note_on_c, 3, 60, 64
5, 165560, Note_on_c, 3, 60, 0
5, 165600, Note_on_c, 3, 59, 64
5, 165800, Note_on_c, 3, 59, 0
5, 165840, Note_on_c, 3, 59, 64
5, 166040, Note_on_c, 3, 59, 0
5, 166080, Note_on_c, 3, 59, 64
5, 166280, Note_on_c, 3, 59, 0
5, 166320, Note_on_c, 3, 59, 64
5, 166520, Note_on_c, 3, 59, 0
5, 166560, Note_on_c, 3, 59, 64
5, 166760, Note_on_c, 3, 59, 0
5, 166800, Note_on_c, 3, 59, 64
5, 167000, Note_on_c, 3, 59, 0
5, 167280, Note_on_c, 3, 59, 64
5, 167480, Note_on_c, 3, 59, 0
5, 167520, Note_on_c, 3, 59, 64
5, 167720, Note_on_c, 3, 59, 0
5, 167760, Note_on_c, 3, 59, 64
5, 167960, Note_on_c, 3, 59, 0
5, 168000, Note_on_c, 3, 60, 64
5, 168200, Note_on_c, 3, 60, 0
5, 168240, Note_on_c, 3, 60, 64
5, 168440, Note_on_c, 3, 60, 0
5, 168480, Note_on_c, 3, 60, 64
5, 168680, Note_on_c, 3, 60, 0
5, 168720, Note_on_c, 3, 60, 64
5, 168920, Note_on_c, 3, 60, 0
5, 169200, Note_on_c, 3, 61, 64
5, 169400, Note_on_c, 3, 61, 0
5, 169440, Note_on_c, 3, 61, 64
5, 169640, Note_on_c, 3, 61, 0
5, 169680, Note_on_c, 3, 61, 64
5, 169880, Note_on_c, 3, 61, 0
5, 170160, Note_on_c, 3, 64, 64
5, 170360, Note_on_c, 3, 64, 0
5, 170400, Note_on_c, 3, 64, 64
5, 170600, Note_on_c, 3, 64, 0
5, 170640, Note_on_c, 3, 64, 64
5, 170840, Note_on_c, 3, 64, 0
5, 171120, Note_on_c, 3, 65, 64
5, 171320, Note_on_c, 3, 65, 0
5, 171360, Note_on_c, 3, 65, 64
5, 171600, Note_on_c, 3, 65, 0
5, 171600, Note_on_c, 3, 67, 64
5, 171840, Note_on_c, 3, 67, 0
5, 171840, Note_on_c, 3, 68, 64
5, 172040, Note_on_c, 3, 68, 0
5, 172080, Note_on_c, 3, 68, 64
5, 172280, Note_on_c, 3, 68, 0
5, 172320, Note_on_c, 3, 65, 64
5, 172520, Note_on_c, 3, 65, 0
5, 172560, Note_on_c, 3, 65, 64
5, 172760, Note_on_c, 3, 65, 0
5, 173040, Note_on_c, 3, 63, 64
5, 173280, Note_on_c, 3, 63, 0
5, 173280, Note_on_c, 3, 67, 64
5, 173520, Note_on_c, 3, 67, 0
5, 173520, Note_on_c, 3, 67, 64
5, 173720, Note_on_c, 3, 67, 0
5, 173760, Note_on_c, 3, 67, 64
5, 174000, Note_on_c, 3, 67, 0
5, 174000, Note_on_c, 3, 65, 64
5, 174240, Note_on_c, 3, 65, 0
5, 174240, Note_on_c, 3, 63, 64
5, 174480, Note_on_c, 3, 63, 0
5, 174480, Note_on_c, 3, 62, 64
5, 174720, Note_on_c, 3, 62, 0
5, 174720, Note_on_c, 3, 60, 64
5, 175120, Note_on_c, 3, 60, 0
5, 175200, Note_on_c, 3, 75, 64
5, 175400, Note_on_c, 3, 75, 0
5, 175440, Note_on_c, 3, 75, 64
5, 175640, Note_on_c, 3, 75, 0
5, 175680, Note_on_c, 3, 73, 64
5, 175880, Note_on_c, 3, 73, 0
5, 175920, Note_on_c, 3, 73, 64
5, 176120, Note_on_c, 3, 73, 0
5, 176160, Note_on_c, 3, 72, 64
5, 176360, Note_on_c, 3, 72, 0
5, 176400, Note_on_c, 3, 72, 64
5, 176600, Note_on_c, 3, 72, 0
5, 176880, Note_on_c, 3, 58, 64
5, 177120, Note_on_c, 3, 58, 0
5, 177120, Note_on_c, 3, 61, 64
5, 177360, Note_on_c, 3, 61, 0
5, 177360, Note_on_c, 3, 58, 64
5, 177600, Note_on_c, 3, 58, 0
5, 177600, Note_on_c, 3, 61, 64
5, 177800, Note_on_c, 3, 61, 0
5, 177840, Note_on_c, 3, 61, 64
5, 178040, Note_on_c, 3, 61, 0
5, 178080, Note_on_c, 3, 61, 64
5, 178280, Note_on_c, 3, 61, 0
5, 178320, Note_on_c, 3, 61, 64
5, 178520, Note_on_c, 3, 61, 0
5, 178800, Note_on_c, 3, 60, 64
5, 179040, Note_on_c, 3, 60, 0
5, 179040, Note_on_c, 3, 63, 64
5, 179280, Note_on_c, 3, 63, 0
5, 179280, Note_on_c, 3, 60, 64
5, 179520, Note_on_c, 3, 60, 0
5, 179520, Note_on_c, 3, 63, 64
5, 179720, Note_on_c, 3, 63, 0
5, 179760, Note_on_c, 3, 63, 64
5, 179960, Note_on_c, 3, 63, 0
5, 180000, Note_on_c, 3, 63, 64
5, 180200, Note_on_c, 3, 63, 0
5, 180240, Note_on_c, 3, 63, 64
5, 180440, Note_on_c, 3, 63, 0
5, 180720, Note_on_c, 3, 64, 64
5, 180960, Note_on_c, 3, 64, 0
5, 180960, Note_on_c, 3, 67, 64
5, 181200, Note_on_c, 3, 67, 0
5, 181200, Note_on_c, 3, 64, 64
5, 181440, Note_on_c, 3, 64, 0
5, 181440, Note_on_c, 3, 67, 64
5, 181640, Note_on_c, 3, 67, 0
5, 181680, Note_on_c, 3, 67, 64
5, 181880, Note_on_c, 3, 67, 0
5, 181920, Note_on_c, 3, 67, 64
5, 182120, Note_on_c, 3, 67, 0
5, 182160, Note_on_c, 3, 67, 64
5, 182360, Note_on_c, 3, 67, 0
5, 182640, Note_on_c, 3, 65, 64
5, 182880, Note_on_c, 3, 65, 0
5, 182880, Note_on_c, 3, 68, 64
5, 183120, Note_on_c, 3, 68, 0
5, 183120, Note_on_c, 3, 65, 64
5, 183360, Note_on_c, 3, 65, 0
5, 183360, Note_on_c, 3, 68, 64
5, 183560, Note_on_c, 3, 68, 0
5, 183600, Note_on_c, 3, 68, 64
5, 183800, Note_on_c, 3, 68, 0
5, 183840, Note_on_c, 3, 68, 64
5, 184040, Note_on_c, 3, 68, 0
5, 184080, Note_on_c, 3, 68, 64
5, 184280, Note_on_c, 3, 68, 0
5, 184560, Note_on_c, 3, 68, 64
5, 184760, Note_on_c, 3, 68, 0
5, 184800, Note_on_c, 3, 68, 64
5, 185000, Note_on_c, 3, 68, 0
5, 185040, Note_on_c, 3, 68, 64
5, 185240, Note_on_c, 3, 68, 0
5, 185520, Note_on_c, 3, 67, 64
5, 185720, Note_on_c, 3, 67, 0
5, 185760, Note_on_c, 3, 67, 64
5, 185960, Note_on_c, 3, 67, 0
5, 186000, Note_on_c, 3, 67, 64
5, 186200, Note_on_c, 3, 67, 0
5, 186480, Note_on_c, 3, 72, 64
5, 186680, Note_on_c, 3, 72, 0
5, 186720, Note_on_c, 3, 72, 64
5, 186920, Note_on_c, 3, 72, 0
5, 186960, Note_on_c, 3, 72, 64
5, 187160, Note_on_c, 3, 72, 0
5, 187440, Note_on_c, 3, 63, 64
5, 187640, Note_on_c, 3, 63, 0
5, 187680, Note_on_c, 3, 63, 64
5, 187880, Note_on_c, 3, 63, 0
5, 187920, Note_on_c, 3, 63, 64
5, 188120, Note_on_c, 3, 63, 0
5, 188160, Note_on_c, 3, 62, 64
5, 188560, Note_on_c, 3, 62, 0
5, 189120, Note_on_c, 3, 77, 64
5, 189180, Note_on_c, 3, 77, 0
5, 189180, Note_on_c, 3, 79, 64
5, 189240, Note_on_c, 3, 79, 0
5, 189240, Note_on_c, 3, 77, 64
5, 189300, Note_on_c, 3, 77, 0
5, 189300, Note_on_c, 3, 79, 64
5, 189360, Note_on_c, 3, 79, 0
5, 189360, Note_on_c, 3, 77, 64
5, 189420, Note_on_c, 3, 77, 0
5, 189420, Note_on_c, 3, 79, 64
5, 189480, Note_on_c, 3, 79, 0
5, 189480, Note_on_c, 3, 77, 64
5, 189540, Note_on_c, 3, 77, 0
5, 189540, Note_on_c, 3, 79, 64
5, 189600, Note_on_c, 3, 79, 0
5, 189600, Note_on_c, 3, 77, 64
5, 189660, Note_on_c, 3, 77, 0
5, 189660, Note_on_c, 3, 79, 64
5, 189720, Note_on_c, 3, 79, 0
5, 189720, Note_on_c, 3, 77, 64
5, 189780, Note_on_c, 3, 77, 0
5, 189780, Note_on_c, 3, 79, 64
5, 189840, Note_on_c, 3, 79, 0
5, 189840, Note_on_c, 3, 75, 64
5, 189960, Note_on_c, 3, 75, 0
5, 189960, Note_on_c, 3, 77, 64
5, 190060, Note_on_c, 3, 77, 0
5, 190080, Note_on_c, 3, 77, 64
5, 190480, Note_on_c, 3, 77, 0
5, 191040, Note_on_c, 3, 65, 64
5, 191090, Note_on_c, 3, 65, 0
5, 191100, Note_on_c, 3, 67, 64
5, 191150, Note_on_c, 3, 67, 0
5, 191160, Note_on_c, 3, 65, 64
5, 191210, Note_on_c, 3, 65, 0
5, 191220, Note_on_c, 3, 67, 64
5, 191270, Note_on_c, 3, 67, 0
5, 191280, Note_on_c, 3, 65, 64
5, 191330, Note_on_c, 3, 65, 0
5, 191340, Note_on_c, 3, 67, 64
5, 191390, Note_on_c, 3, 67, 0
5, 191400, Note_on_c, 3, 65, 64
5, 191450, Note_on_c, 3, 65, 0
5, 191460, Note_on_c, 3, 67, 64
5, 191510, Note_on_c, 3, 67, 0
5, 191520, Note_on_c, 3, 65, 64
5, 191570, Note_on_c, 3, 65, 0
5, 191580, Note_on_c, 3, 67, 64
5, 191630, Note_on_c, 3, 67, 0
5, 191640, Note_on_c, 3, 65, 64
5, 191690, Note_on_c, 3, 65, 0
5, 191700, Note_on_c, 3, 67, 64
5, 191750, Note_on_c, 3, 67, 0
5, 191760, Note_on_c, 3, 63, 64
5, 191860, Note_on_c, 3, 63, 0
5, 191880, Note_on_c, 3, 65, 64
5, 191980, Note_on_c, 3, 65, 0
5, 192000, Note_on_c, 3, 65, 64
5, 192120, Note_on_c, 3, 65, 0
5, 192120, Note_on_c, 3, 63, 64
5, 192220, Note_on_c, 3, 63, 0
5, 192240, Note_on_c, 3, 62, 64
5, 192300, Note_on_c, 3, 62, 0
5, 192360, Note_on_c, 3, 60, 64
5, 192420, Note_on_c, 3, 60, 0
5, 192480, Note_on_c, 3, 58, 64
5, 192600, Note_on_c, 3, 58, 0
5, 192600, Note_on_c, 3, 57, 64
5, 192720, Note_on_c, 3, 57, 0
5, 192720, Note_on_c, 3, 58, 64
5, 192780, Note_on_c, 3, 58, 0
5, 192840, Note_on_c, 3, 60, 64
5, 192900, Note_on_c, 3, 60, 0
5, 192960, Note_on_c, 3, 62, 64
5, 193080, Note_on_c, 3, 62, 0
5, 193080, Note_on_c, 3, 60, 64
5, 193200, Note_on_c, 3, 60, 0
5, 193200, Note_on_c, 3, 62, 64
5, 193260, Note_on_c, 3, 62, 0
5, 193320, Note_on_c, 3, 63, 64
5, 193420, Note_on_c, 3, 63, 0
5, 193440, Note_on_c, 3, 65, 64
5, 193500, Note_on_c, 3, 65, 0
5, 193560, Note_on_c, 3, 63, 64
5, 193680, Note_on_c, 3, 63, 0
5, 193680, Note_on_c, 3, 65, 64
5, 193740, Note_on_c, 3, 65, 0
5, 193800, Note_on_c, 3, 62, 64
5, 193860, Note_on_c, 3, 62, 0
5, 193920, Note_on_c, 3, 63, 64
5, 194040, Note_on_c, 3, 63, 0
5, 194040, Note_on_c, 3, 62, 64
5, 194160, Note_on_c, 3, 62, 0
5, 194160, Note_on_c, 3, 60, 64
5, 194220, Note_on_c, 3, 60, 0
5, 194280, Note_on_c, 3, 59, 64
5, 194340, Note_on_c, 3, 59, 0
5, 194400, Note_on_c, 3, 60, 64
5, 194520, Note_on_c, 3, 60, 0
5, 194520, Note_on_c, 3, 59, 64
5, 194640, Note_on_c, 3, 59, 0
5, 194640, Note_on_c, 3, 60, 64
5, 194700, Note_on_c, 3, 60, 0
5, 194760, Note_on_c, 3, 62, 64
5, 194820, Note_on_c, 3, 62, 0
5, 194880, Note_on_c, 3, 63, 64
5, 195000, Note_on_c, 3, 63, 0
5, 195000, Note_on_c, 3, 62, 64
5, 195120, Note_on_c, 3, 62, 0
5, 195120, Note_on_c, 3, 63, 64
5, 195180, Note_on_c, 3, 63, 0
5, 195240, Note_on_c, 3, 65, 64
5, 195300, Note_on_c, 3, 65, 0
5, 195360, Note_on_c, 3, 67, 64
5, 195480, Note_on_c, 3, 67, 0
5, 195480, Note_on_c, 3, 65, 64
5, 195600, Note_on_c, 3, 65, 0
5, 195600, Note_on_c, 3, 67, 64
5, 195660, Note_on_c, 3, 67, 0
5, 195720, Note_on_c, 3, 63, 64
5, 195780, Note_on_c, 3, 63, 0
5, 195840, Note_on_c, 3, 65, 64
5, 195960, Note_on_c, 3, 65, 0
5, 195960, Note_on_c, 3, 63, 64
5, 196060, Note_on_c, 3, 63, 0
5, 196080, Note_on_c, 3, 62, 64
5, 196140, Note_on_c, 3, 62, 0
5, 196200, Note_on_c, 3, 60, 64
5, 196260, Note_on_c, 3, 60, 0
5, 196320, Note_on_c, 3, 62, 64
5, 196440, Note_on_c, 3, 62, 0
5, 196440, Note_on_c, 3, 60, 64
5, 196560, Note_on_c, 3, 60, 0
5, 196560, Note_on_c, 3, 62, 64
5, 196620, Note_on_c, 3, 62, 0
5, 196680, Note_on_c, 3, 63, 64
5, 196740, Note_on_c, 3, 63, 0
5, 196800, Note_on_c, 3, 65, 64
5, 196920, Note_on_c, 3, 65, 0
5, 196920, Note_on_c, 3, 63, 64
5, 197040, Note_on_c, 3, 63, 0
5, 197040, Note_on_c, 3, 65, 64
5, 197100, Note_on_c, 3, 65, 0
5, 197160, Control_c, 3, 11, 94
5, 197160, Note_on_c, 3, 67, 86
5, 197220, Note_on_c, 3, 67, 0
5, 197280, Control_c, 3, 11, 94
5, 197280, Note_on_c, 3, 68, 86
5, 197400, Note_on_c, 3, 68, 0
5, 197400, Control_c, 3, 11, 94
5, 197400, Note_on_c, 3, 67, 86
5, 197520, Note_on_c, 3, 67, 0
5, 197520, Control_c, 3, 11, 95
5, 197520, Note_on_c, 3, 68, 86
5, 197580, Note_on_c, 3, 68, 0
5, 197640, Control_c, 3, 11, 95
5, 197640, Note_on_c, 3, 65, 86
5, 197700, Note_on_c, 3, 65, 0
5, 197760, Note_on_c, 3, 67, 86
5, 197760, Control_c, 3, 11, 97
5, 197880, Note_on_c, 3, 67, 0
5, 197880, Note_on_c, 3, 65, 86
5, 197880, Control_c, 3, 11, 98
5, 197980, Note_on_c, 3, 65, 0
5, 198000, Note_on_c, 3, 63, 86
5, 198000, Control_c, 3, 11, 98
5, 198060, Note_on_c, 3, 63, 0
5, 198120, Note_on_c, 3, 62, 86
5, 198120, Control_c, 3, 11, 100
5, 198180, Note_on_c, 3, 62, 0
5, 198240, Note_on_c, 3, 63, 86
5, 198240, Control_c, 3, 11, 101
5, 198360, Note_on_c, 3, 63, 0
5, 198360, Note_on_c, 3, 62, 86
5, 198360, Control_c, 3, 11, 101
5, 198480, Note_on_c, 3, 62, 0
5, 198480, Note_on_c, 3, 63, 86
5, 198480, Control_c, 3, 11, 103
5, 198540, Note_on_c, 3, 63, 0
5, 198600, Note_on_c, 3, 65, 86
5, 198600, Control_c, 3, 11, 103
5, 198660, Note_on_c, 3, 65, 0
5, 198720, Note_on_c, 3, 67, 86
5, 198720, Control_c, 3, 11, 104
5, 198840, Note_on_c, 3, 67, 0
5, 198840, Note_on_c, 3, 65, 86
5, 198840, Control_c, 3, 11, 106
5, 198960, Note_on_c, 3, 65, 0
5, 198960, Note_on_c, 3, 67, 86
5, 198960, Control_c, 3, 11, 106
5, 199020, Note_on_c, 3, 67, 0
5, 199080, Note_on_c, 3, 68, 86
5, 199080, Control_c, 3, 11, 107
5, 199140, Note_on_c, 3, 68, 0
5, 199200, Note_on_c, 3, 70, 86
5, 199200, Control_c, 3, 11, 109
5, 199320, Note_on_c, 3, 70, 0
5, 199320, Note_on_c, 3, 68, 86
5, 199320, Control_c, 3, 11, 109
5, 199420, Note_on_c, 3, 68, 0
5, 199440, Note_on_c, 3, 70, 86
5, 199440, Control_c, 3, 11, 110
5, 199500, Note_on_c, 3, 70, 0
5, 199560, Note_on_c, 3, 67, 86
5, 199560, Control_c, 3, 11, 110
5, 199620, Note_on_c, 3, 67, 0
5, 199680, Note_on_c, 3, 68, 86
5, 199680, Control_c, 3, 11, 112
5, 199780, Note_on_c, 3, 68, 0
5, 199800, Note_on_c, 3, 65, 86
5, 199800, Control_c, 3, 11, 113
5, 199900, Note_on_c, 3, 65, 0
5, 199920, Note_on_c, 3, 67, 86
5, 199920, Control_c, 3, 11, 113
5, 200020, Note_on_c, 3, 67, 0
5, 200040, Note_on_c, 3, 68, 86
5, 200040, Control_c, 3, 11, 115
5, 200140, Note_on_c, 3, 68, 0
5, 200160, Note_on_c, 3, 70, 86
5, 200160, Control_c, 3, 11, 116
5, 200260, Note_on_c, 3, 70, 0
5, 200280, Note_on_c, 3, 72, 86
5, 200280, Control_c, 3, 11, 116
5, 200380, Note_on_c, 3, 72, 0
5, 200400, Note_on_c, 3, 74, 86
5, 200400, Control_c, 3, 11, 118
5, 200500, Note_on_c, 3, 74, 0
5, 200520, Note_on_c, 3, 75, 86
5, 200520, Control_c, 3, 11, 118
5, 200620, Note_on_c, 3, 75, 0
5, 200640, Note_on_c, 3, 77, 86
5, 200640, Control_c, 3, 11, 119
5, 200740, Note_on_c, 3, 77, 0
5, 200760, Note_on_c, 3, 75, 86
5, 200760, Control_c, 3, 11, 121
5, 200860, Note_on_c, 3, 75, 0
5, 200880, Note_on_c, 3, 74, 86
5, 200880, Control_c, 3, 11, 121
5, 200980, Note_on_c, 3, 74, 0
5, 201000, Note_on_c, 3, 72, 86
5, 201000, Control_c, 3, 11, 122
5, 201100, Note_on_c, 3, 72, 0
5, 201120, Note_on_c, 3, 74, 86
5, 201120, Control_c, 3, 11, 124
5, 201220, Note_on_c, 3, 74, 0
5, 201240, Note_on_c, 3, 75, 86
5, 201240, Control_c, 3, 11, 124
5, 201340, Note_on_c, 3, 75, 0
5, 201360, Note_on_c, 3, 77, 86
5, 201360, Control_c, 3, 11, 125
5, 201460, Note_on_c, 3, 77, 0
5, 201480, Note_on_c, 3, 79, 86
5, 201480, Control_c, 3, 11, 125
5, 201580, Note_on_c, 3, 79, 0
5, 201600, Control_c, 3, 11, 127
5, 201600, Note_on_c, 3, 80, 86
5, 201800, Note_on_c, 3, 80, 0
5, 201840, Note_on_c, 3, 80, 86
5, 201840, Note_on_c, 3, 70, 86
5, 202280, Note_on_c, 3, 80, 0
5, 202280, Note_on_c, 3, 70, 0
5, 202320, Note_on_c, 3, 80, 86
5, 202320, Note_on_c, 3, 70, 86
5, 202760, Note_on_c, 3, 80, 0
5, 202760, Note_on_c, 3, 70, 0
5, 202800, Note_on_c, 3, 80, 86
5, 202800, Note_on_c, 3, 70, 86
5, 203240, Note_on_c, 3, 80, 0
5, 203240, Note_on_c, 3, 70, 0
5, 203280, Note_on_c, 3, 80, 86
5, 203280, Note_on_c, 3, 70, 86
5, 203920, Note_on_c, 3, 80, 0
5, 203920, Note_on_c, 3, 70, 0
5, 204240, Note_on_c, 3, 77, 64
5, 204360, Note_on_c, 3, 77, 0
5, 204360, Note_on_c, 3, 79, 64
5, 204480, Note_on_c, 3, 79, 0
5, 204480, Note_on_c, 3, 80, 64
5, 204880, Note_on_c, 3, 80, 0
5, 205200, Note_on_c, 3, 77, 64
5, 205320, Note_on_c, 3, 77, 0
5, 205320, Note_on_c, 3, 79, 64
5, 205440, Note_on_c, 3, 79, 0
5, 205440, Note_on_c, 3, 80, 64
5, 205640, Note_on_c, 3, 80, 0
5, 205680, Note_on_c, 3, 80, 64
5, 205880, Note_on_c, 3, 80, 0
5, 205920, Note_on_c, 3, 79, 64
5, 205980, Note_on_c, 3, 79, 0
5, 205980, Note_on_c, 3, 80, 64
5, 206040, Note_on_c, 3, 80, 0
5, 206040, Note_on_c, 3, 79, 64
5, 206100, Note_on_c, 3, 79, 0
5, 206100, Note_on_c, 3, 80, 64
5, 206160, Note_on_c, 3, 80, 0
5, 206160, Note_on_c, 3, 77, 64
5, 206280, Note_on_c, 3, 77, 0
5, 206280, Note_on_c, 3, 79, 64
5, 206400, Note_on_c, 3, 79, 0
5, 206400, Note_on_c, 3, 77, 64
5, 206600, Note_on_c, 3, 77, 0
5, 206640, Note_on_c, 3, 77, 64
5, 206840, Note_on_c, 3, 77, 0
5, 206880, Note_on_c, 3, 75, 64
5, 206940, Note_on_c, 3, 75, 0
5, 206940, Note_on_c, 3, 77, 64
5, 207000, Note_on_c, 3, 77, 0
5, 207000, Note_on_c, 3, 75, 64
5, 207060, Note_on_c, 3, 75, 0
5, 207060, Note_on_c, 3, 77, 64
5, 207120, Note_on_c, 3, 77, 0
5, 207120, Note_on_c, 3, 74, 64
5, 207240, Note_on_c, 3, 74, 0
5, 207240, Note_on_c, 3, 75, 64
5, 207360, Note_on_c, 3, 75, 0
5, 207360, Note_on_c, 3, 74, 64
5, 207600, Note_on_c, 3, 74, 0
5, 207600, Note_on_c, 3, 75, 64
5, 207840, Note_on_c, 3, 75, 0
5, 207840, Note_on_c, 3, 77, 64
5, 208080, Note_on_c, 3, 77, 0
5, 208080, Note_on_c, 3, 75, 64
5, 208320, Note_on_c, 3, 75, 0
5, 208320, Note_on_c, 3, 74, 64
5, 208560, Note_on_c, 3, 74, 0
5, 208560, Note_on_c, 3, 75, 64
5, 208800, Note_on_c, 3, 75, 0
5, 208800, Note_on_c, 3, 74, 64
5, 209040, Note_on_c, 3, 74, 0
5, 209040, Note_on_c, 3, 72, 64
5, 209280, Note_on_c, 3, 72, 0
5, 209280, Note_on_c, 3, 70, 64
5, 209480, Note_on_c, 3, 70, 0
5, 209760, Note_on_c, 3, 68, 64
5, 209960, Note_on_c, 3, 68, 0
5, 210240, Note_on_c, 3, 67, 64
5, 210440, Note_on_c, 3, 67, 0
5, 210720, Note_on_c, 3, 65, 64
5, 210920, Note_on_c, 3, 65, 0
5, 211440, Note_on_c, 3, 63, 64
5, 211640, Note_on_c, 3, 63, 0
5, 211680, Note_on_c, 3, 63, 64
5, 211880, Note_on_c, 3, 63, 0
5, 211920, Note_on_c, 3, 63, 64
5, 212120, Note_on_c, 3, 63, 0
5, 212160, Note_on_c, 3, 63, 64
5, 212360, Note_on_c, 3, 63, 0
5, 212400, Note_on_c, 3, 63, 64
5, 212600, Note_on_c, 3, 63, 0
5, 212640, Note_on_c, 3, 63, 64
5, 212840, Note_on_c, 3, 63, 0
5, 212880, Note_on_c, 3, 63, 64
5, 213080, Note_on_c, 3, 63, 0
5, 213360, Note_on_c, 3, 63, 64
5, 213560, Note_on_c, 3, 63, 0
5, 213600, Note_on_c, 3, 63, 64
5, 213800, Note_on_c, 3, 63, 0
5, 213840, Note_on_c, 3, 63, 64
5, 214040, Note_on_c, 3, 63, 0
5, 214080, Note_on_c, 3, 63, 64
5, 214280, Note_on_c, 3, 63, 0
5, 214320, Note_on_c, 3, 63, 64
5, 214520, Note_on_c, 3, 63, 0
5, 214560, Note_on_c, 3, 63, 64
5, 214760, Note_on_c, 3, 63, 0
5, 214800, Note_on_c, 3, 63, 64
5, 215000, Note_on_c, 3, 63, 0
5, 215280, Note_on_c, 3, 63, 64
5, 215480, Note_on_c, 3, 63, 0
5, 215520, Note_on_c, 3, 63, 64
5, 215720, Note_on_c, 3, 63, 0
5, 215760, Note_on_c, 3, 63, 64
5, 215960, Note_on_c, 3, 63, 0
5, 216000, Note_on_c, 3, 63, 64
5, 216200, Note_on_c, 3, 63, 0
5, 216240, Note_on_c, 3, 63, 64
5, 216440, Note_on_c, 3, 63, 0
5, 216480, Note_on_c, 3, 63, 64
5, 216680, Note_on_c, 3, 63, 0
5, 216720, Note_on_c, 3, 63, 64
5, 216920, Note_on_c, 3, 63, 0
5, 216960, Note_on_c, 3, 65, 64
5, 217160, Note_on_c, 3, 65, 0
5, 217200, Note_on_c, 3, 65, 64
5, 217400, Note_on_c, 3, 65, 0
5, 217440, Note_on_c, 3, 62, 64
5, 217640, Note_on_c, 3, 62, 0
5, 217680, Note_on_c, 3, 62, 64
5, 217880, Note_on_c, 3, 62, 0
5, 217920, Note_on_c, 3, 63, 64
5, 218320, Note_on_c, 3, 63, 0
5, 218880, Note_on_c, 3, 84, 64
5, 218880, Note_on_c, 3, 75, 64
5, 218880, Note_on_c, 3, 68, 64
5, 219280, Note_on_c, 3, 84, 0
5, 219280, Note_on_c, 3, 75, 0
5, 219280, Note_on_c, 3, 68, 0
5, 219360, Note_on_c, 3, 56, 86
5, 219760, Note_on_c, 3, 56, 0
5, 220080, Note_on_c, 3, 75, 86
5, 220200, Note_on_c, 3, 75, 0
5, 220200, Note_on_c, 3, 80, 86
5, 220320, Note_on_c, 3, 80, 0
5, 220320, Note_on_c, 3, 84, 86
5, 220520, Note_on_c, 3, 84, 0
5, 220560, Note_on_c, 3, 84, 86
5, 220760, Note_on_c, 3, 84, 0
5, 220800, Note_on_c, 3, 82, 86
5, 221200, Note_on_c, 3, 82, 0
5, 221280, Note_on_c, 3, 63, 86
5, 221280, Note_on_c, 3, 55, 86
5, 221680, Note_on_c, 3, 63, 0
5, 221680, Note_on_c, 3, 55, 0
5, 222000, Note_on_c, 3, 75, 86
5, 222120, Note_on_c, 3, 75, 0
5, 222120, Note_on_c, 3, 79, 86
5, 222220, Note_on_c, 3, 79, 0
5, 222240, Note_on_c, 3, 82, 86
5, 222440, Note_on_c, 3, 82, 0
5, 222480, Note_on_c, 3, 82, 86
5, 222680, Note_on_c, 3, 82, 0
5, 222720, Note_on_c, 3, 80, 86
5, 222920, Note_on_c, 3, 80, 0
5, 222960, Note_on_c, 3, 84, 86
5, 223080, Note_on_c, 3, 84, 0
5, 223080, Note_on_c, 3, 82, 86
5, 223200, Note_on_c, 3, 82, 0
5, 223200, Note_on_c, 3, 80, 86
5, 223260, Note_on_c, 3, 80, 0
5, 223320, Note_on_c, 3, 79, 86
5, 223380, Note_on_c, 3, 79, 0
5, 223440, Note_on_c, 3, 77, 86
5, 223500, Note_on_c, 3, 77, 0
5, 223560, Note_on_c, 3, 75, 86
5, 223620, Note_on_c, 3, 75, 0
5, 223680, Note_on_c, 3, 74, 86
5, 223880, Note_on_c, 3, 74, 0
5, 223920, Note_on_c, 3, 77, 86
5, 224040, Note_on_c, 3, 77, 0
5, 224040, Note_on_c, 3, 75, 86
5, 224160, Note_on_c, 3, 75, 0
5, 224160, Note_on_c, 3, 74, 86
5, 224220, Note_on_c, 3, 74, 0
5, 224280, Note_on_c, 3, 72, 86
5, 224340, Note_on_c, 3, 72, 0
5, 224400, Note_on_c, 3, 70, 86
5, 224460, Note_on_c, 3, 70, 0
5, 224520, Note_on_c, 3, 68, 86
5, 224580, Note_on_c, 3, 68, 0
5, 224640, Note_on_c, 3, 67, 86
5, 224740, Note_on_c, 3, 67, 0
5, 224760, Note_on_c, 3, 70, 86
5, 224860, Note_on_c, 3, 70, 0
5, 224880, Note_on_c, 3, 68, 86
5, 224980, Note_on_c, 3, 68, 0
5, 225000, Note_on_c, 3, 67, 86
5, 225100, Note_on_c, 3, 67, 0
5, 225120, Note_on_c, 3, 68, 86
5, 225220, Note_on_c, 3, 68, 0
5, 225240, Note_on_c, 3, 70, 86
5, 225340, Note_on_c, 3, 70, 0
5, 225360, Note_on_c, 3, 72, 86
5, 225460, Note_on_c, 3, 72, 0
5, 225480, Note_on_c, 3, 74, 86
5, 225580, Note_on_c, 3, 74, 0
5, 225600, Note_on_c, 3, 75, 86
5, 225700, Note_on_c, 3, 75, 0
5, 225720, Note_on_c, 3, 77, 86
5, 225820, Note_on_c, 3, 77, 0
5, 225840, Note_on_c, 3, 79, 86
5, 225940, Note_on_c, 3, 79, 0
5, 225960, Note_on_c, 3, 80, 86
5, 226060, Note_on_c, 3, 80, 0
5, 226080, Note_on_c, 3, 82, 86
5, 226280, Note_on_c, 3, 82, 0
5, 226800, Note_on_c, 3, 63, 64
5, 227000, Note_on_c, 3, 63, 0
5, 227040, Note_on_c, 3, 63, 64
5, 227240, Note_on_c, 3, 63, 0
5, 227280, Note_on_c, 3, 63, 64
5, 227480, Note_on_c, 3, 63, 0
5, 227520, Note_on_c, 3, 63, 64
5, 227720, Note_on_c, 3, 63, 0
5, 227760, Note_on_c, 3, 63, 64
5, 227960, Note_on_c, 3, 63, 0
5, 228000, Note_on_c, 3, 63, 64
5, 228200, Note_on_c, 3, 63, 0
5, 228240, Note_on_c, 3, 63, 64
5, 228440, Note_on_c, 3, 63, 0
5, 228480, Note_on_c, 3, 63, 64
5, 228880, Note_on_c, 3, 63, 0
5, 228960, Note_on_c, 3, 68, 64
5, 229360, Note_on_c, 3, 68, 0
5, 229440, Note_on_c, 3, 67, 64
5, 229840, Note_on_c, 3, 67, 0
5, 230400, Note_on_c, 3, 70, 64
5, 230640, Note_on_c, 3, 70, 0
5, 230640, Note_on_c, 3, 68, 64
5, 230880, Note_on_c, 3, 68, 0
5, 230880, Note_on_c, 3, 67, 64
5, 231690, Note_on_c, 3, 67, 0
5, 231840, Note_on_c, 3, 65, 64
5, 232240, Note_on_c, 3, 65, 0
5, 232320, Note_on_c, 3, 63, 64
5, 232720, Note_on_c, 3, 63, 0
5, 233040, Note_on_c, 3, 82, 86
5, 233040, Note_on_c, 3, 70, 86
5, 233240, Note_on_c, 3, 82, 0
5, 233240, Note_on_c, 3, 70, 0
5, 233280, Note_on_c, 3, 79, 86
5, 233280, Note_on_c, 3, 70, 86
5, 233480, Note_on_c, 3, 79, 0
5, 233480, Note_on_c, 3, 70, 0
5, 233520, Note_on_c, 3, 79, 86
5, 233520, Note_on_c, 3, 70, 86
5, 233720, Note_on_c, 3, 79, 0
5, 233720, Note_on_c, 3, 70, 0
5, 233760, Note_on_c, 3, 80, 86
5, 233760, Note_on_c, 3, 70, 86
5, 233960, Note_on_c, 3, 80, 0
5, 233960, Note_on_c, 3, 70, 0
5, 234000, Note_on_c, 3, 80, 86
5, 234000, Note_on_c, 3, 70, 86
5, 234200, Note_on_c, 3, 80, 0
5, 234200, Note_on_c, 3, 70, 0
5, 234240, Note_on_c, 3, 79, 86
5, 234240, Note_on_c, 3, 70, 86
5, 234640, Note_on_c, 3, 79, 0
5, 234640, Note_on_c, 3, 70, 0
5, 234960, Note_on_c, 3, 77, 86
5, 234960, Note_on_c, 3, 70, 86
5, 235160, Note_on_c, 3, 77, 0
5, 235160, Note_on_c, 3, 70, 0
5, 235200, Note_on_c, 3, 75, 86
5, 235200, Note_on_c, 3, 67, 86
5, 235400, Note_on_c, 3, 75, 0
5, 235400, Note_on_c, 3, 67, 0
5, 235440, Note_on_c, 3, 75, 86
5, 235440, Note_on_c, 3, 67, 86
5, 235640, Note_on_c, 3, 75, 0
5, 235640, Note_on_c, 3, 67, 0
5, 235680, Note_on_c, 3, 77, 86
5, 235680, Note_on_c, 3, 70, 86
5, 235880, Note_on_c, 3, 77, 0
5, 235880, Note_on_c, 3, 70, 0
5, 235920, Note_on_c, 3, 77, 86
5, 235920, Note_on_c, 3, 70, 86
5, 236120, Note_on_c, 3, 77, 0
5, 236120, Note_on_c, 3, 70, 0
5, 236160, Note_on_c, 3, 75, 86
5, 236160, Note_on_c, 3, 67, 86
5, 236560, Note_on_c, 3, 75, 0
5, 236560, Note_on_c, 3, 67, 0
5, 238320, Note_on_c, 3, 65, 64
5, 238520, Note_on_c, 3, 65, 0
5, 238560, Note_on_c, 3, 65, 64
5, 238760, Note_on_c, 3, 65, 0
5, 238800, Note_on_c, 3, 65, 64
5, 239000, Note_on_c, 3, 65, 0
5, 239040, Note_on_c, 3, 65, 64
5, 239240, Note_on_c, 3, 65, 0
5, 239280, Note_on_c, 3, 65, 64
5, 239480, Note_on_c, 3, 65, 0
5, 239520, Note_on_c, 3, 65, 64
5, 239720, Note_on_c, 3, 65, 0
5, 239760, Note_on_c, 3, 65, 64
5, 239960, Note_on_c, 3, 65, 0
5, 240240, Note_on_c, 3, 70, 64
5, 240440, Note_on_c, 3, 70, 0
5, 240480, Note_on_c, 3, 70, 64
5, 240680, Note_on_c, 3, 70, 0
5, 240720, Note_on_c, 3, 70, 64
5, 240920, Note_on_c, 3, 70, 0
5, 240960, Note_on_c, 3, 70, 64
5, 241160, Note_on_c, 3, 70, 0
5, 241200, Note_on_c, 3, 70, 64
5, 241400, Note_on_c, 3, 70, 0
5, 241440, Note_on_c, 3, 70, 64
5, 241640, Note_on_c, 3, 70, 0
5, 241680, Note_on_c, 3, 70, 64
5, 241880, Note_on_c, 3, 70, 0
5, 242160, Note_on_c, 3, 63, 64
5, 242360, Note_on_c, 3, 63, 0
5, 242400, Note_on_c, 3, 63, 64
5, 242600, Note_on_c, 3, 63, 0
5, 242640, Note_on_c, 3, 63, 64
5, 242840, Note_on_c, 3, 63, 0
5, 242880, Note_on_c, 3, 63, 64
5, 243080, Note_on_c, 3, 63, 0
5, 243120, Note_on_c, 3, 63, 64
5, 243320, Note_on_c, 3, 63, 0
5, 243360, Note_on_c, 3, 63, 64
5, 243560, Note_on_c, 3, 63, 0
5, 243600, Note_on_c, 3, 63, 64
5, 243800, Note_on_c, 3, 63, 0
5, 244080, Note_on_c, 3, 68, 64
5, 244280, Note_on_c, 3, 68, 0
5, 244320, Note_on_c, 3, 68, 64
5, 244520, Note_on_c, 3, 68, 0
5, 244560, Note_on_c, 3, 68, 64
5, 244760, Note_on_c, 3, 68, 0
5, 244800, Note_on_c, 3, 68, 64
5, 245000, Note_on_c, 3, 68, 0
5, 245040, Note_on_c, 3, 68, 64
5, 245280, Note_on_c, 3, 68, 0
5, 245280, Note_on_c, 3, 67, 64
5, 245520, Note_on_c, 3, 67, 0
5, 245520, Note_on_c, 3, 65, 64
5, 245760, Note_on_c, 3, 65, 0
5, 246000, Note_on_c, 3, 63, 64
5, 246200, Note_on_c, 3, 63, 0
5, 246480, Note_on_c, 3, 65, 64
5, 246680, Note_on_c, 3, 65, 0
5, 246960, Note_on_c, 3, 67, 64
5, 247160, Note_on_c, 3, 67, 0
5, 247440, Note_on_c, 3, 69, 64
5, 247640, Note_on_c, 3, 69, 0
5, 247680, Note_on_c, 3, 70, 64
5, 247880, Note_on_c, 3, 70, 0
5, 247920, Note_on_c, 3, 82, 86
5, 248120, Note_on_c, 3, 82, 0
5, 248160, Note_on_c, 3, 82, 86
5, 248360, Note_on_c, 3, 82, 0
5, 248400, Note_on_c, 3, 82, 86
5, 248600, Note_on_c, 3, 82, 0
5, 248640, Note_on_c, 3, 77, 86
5, 248840, Note_on_c, 3, 77, 0
5, 248880, Note_on_c, 3, 82, 86
5, 249080, Note_on_c, 3, 82, 0
5, 249120, Note_on_c, 3, 74, 86
5, 249320, Note_on_c, 3, 74, 0
5, 249360, Note_on_c, 3, 77, 86
5, 249560, Note_on_c, 3, 77, 0
5, 249600, Note_on_c, 3, 70, 86
5, 249800, Note_on_c, 3, 70, 0
5, 250080, Note_on_c, 3, 58, 64
5, 250320, Note_on_c, 3, 58, 0
5, 250320, Note_on_c, 3, 60, 64
5, 250560, Note_on_c, 3, 60, 0
5, 250560, Note_on_c, 3, 62, 64
5, 250800, Note_on_c, 3, 62, 0
5, 250800, Note_on_c, 3, 63, 64
5, 251040, Note_on_c, 3, 63, 0
5, 251040, Note_on_c, 3, 65, 64
5, 251280, Note_on_c, 3, 65, 0
5, 251280, Note_on_c, 3, 67, 64
5, 251520, Note_on_c, 3, 67, 0
5, 251520, Note_on_c, 3, 68, 64
5, 251920, Note_on_c, 3, 68, 0
5, 252720, Note_on_c, 3, 77, 64
5, 252920, Note_on_c, 3, 77, 0
5, 252960, Note_on_c, 3, 80, 64
5, 253160, Note_on_c, 3, 80, 0
5, 253200, Note_on_c, 3, 77, 64
5, 253400, Note_on_c, 3, 77, 0
5, 253440, Note_on_c, 3, 80, 64
5, 253640, Note_on_c, 3, 80, 0
5, 253920, Note_on_c, 3, 77, 64
5, 254120, Note_on_c, 3, 77, 0
5, 254400, Note_on_c, 3, 74, 64
5, 254600, Note_on_c, 3, 74, 0
5, 254880, Note_on_c, 3, 68, 64
5, 255080, Note_on_c, 3, 68, 0
5, 255600, Note_on_c, 3, 67, 64
5, 255800, Note_on_c, 3, 67, 0
5, 255840, Note_on_c, 3, 67, 64
5, 256040, Note_on_c, 3, 67, 0
5, 256080, Note_on_c, 3, 67, 64
5, 256280, Note_on_c, 3, 67, 0
5, 256560, Note_on_c, 3, 63, 64
5, 256760, Note_on_c, 3, 63, 0
5, 256800, Note_on_c, 3, 63, 64
5, 257000, Note_on_c, 3, 63, 0
5, 257040, Note_on_c, 3, 63, 64
5, 257240, Note_on_c, 3, 63, 0
5, 257520, Note_on_c, 3, 62, 64
5, 257720, Note_on_c, 3, 62, 0
5, 257760, Note_on_c, 3, 62, 64
5, 257960, Note_on_c, 3, 62, 0
5, 258000, Note_on_c, 3, 62, 64
5, 258200, Note_on_c, 3, 62, 0
5, 258480, Note_on_c, 3, 68, 64
5, 258680, Note_on_c, 3, 68, 0
5, 258720, Note_on_c, 3, 68, 64
5, 258920, Note_on_c, 3, 68, 0
5, 258960, Note_on_c, 3, 68, 64
5, 259160, Note_on_c, 3, 68, 0
5, 259440, Note_on_c, 3, 67, 64
5, 259640, Note_on_c, 3, 67, 0
5, 259680, Note_on_c, 3, 67, 64
5, 259880, Note_on_c, 3, 67, 0
5, 259920, Note_on_c, 3, 67, 64
5, 260120, Note_on_c, 3, 67, 0
5, 260400, Note_on_c, 3, 73, 64
5, 260600, Note_on_c, 3, 73, 0
5, 260640, Note_on_c, 3, 73, 64
5, 260840, Note_on_c, 3, 73, 0
5, 260880, Note_on_c, 3, 73, 64
5, 261080, Note_on_c, 3, 73, 0
5, 261120, Note_on_c, 3, 72, 64
5, 262750, Note_on_c, 3, 72, 0
5, 263040, Note_on_c, 3, 70, 64
5, 263280, Note_on_c, 3, 70, 0
5, 263280, Note_on_c, 3, 75, 64
5, 263520, Note_on_c, 3, 75, 0
5, 263520, Note_on_c, 3, 67, 64
5, 264130, Note_on_c, 3, 67, 0
5, 264240, Note_on_c, 3, 70, 64
5, 264480, Note_on_c, 3, 70, 0
5, 264480, Note_on_c, 3, 68, 64
5, 264720, Note_on_c, 3, 68, 0
5, 264720, Note_on_c, 3, 65, 64
5, 264960, Note_on_c, 3, 65, 0
5, 264960, Note_on_c, 3, 67, 64
5, 265770, Note_on_c, 3, 67, 0
5, 265920, Note_on_c, 3, 68, 64
5, 266160, Note_on_c, 3, 68, 0
5, 266160, Note_on_c, 3, 65, 64
5, 266400, Note_on_c, 3, 65, 0
5, 266400, Note_on_c, 3, 63, 64
5, 266640, Note_on_c, 3, 63, 0
5, 266640, Note_on_c, 3, 62, 64
5, 266880, Note_on_c, 3, 62, 0
5, 266880, Note_on_c, 3, 63, 64
5, 267120, Note_on_c, 3, 63, 0
5, 267120, Note_on_c, 3, 67, 64
5, 267360, Note_on_c, 3, 67, 0
5, 267360, Note_on_c, 3, 70, 64
5, 268080, Note_on_c, 3, 70, 0
5, 268080, Note_on_c, 3, 72, 64
5, 268320, Note_on_c, 3, 72, 0
5, 268320, Note_on_c, 3, 65, 64
5, 268560, Note_on_c, 3, 65, 0
5, 268560, Note_on_c, 3, 68, 64
5, 268800, Note_on_c, 3, 68, 0
5, 268800, Note_on_c, 3, 67, 64
5, 269610, Note_on_c, 3, 67, 0
5, 269760, Note_on_c, 3, 68, 64
5, 270000, Note_on_c, 3, 68, 0
5, 270000, Note_on_c, 3, 65, 64
5, 270240, Note_on_c, 3, 65, 0
5, 270240, Note_on_c, 3, 63, 64
5, 270480, Note_on_c, 3, 63, 0
5, 270480, Note_on_c, 3, 62, 64
5, 270720, Note_on_c, 3, 62, 0
5, 270720, Note_on_c, 3, 63, 64
5, 270960, Note_on_c, 3, 63, 0
5, 270960, Note_on_c, 3, 67, 64
5, 271200, Note_on_c, 3, 67, 0
5, 271200, Note_on_c, 3, 70, 64
5, 271920, Note_on_c, 3, 70, 0
5, 271920, Note_on_c, 3, 72, 64
5, 272160, Note_on_c, 3, 72, 0
5, 272160, Note_on_c, 3, 65, 64
5, 272400, Note_on_c, 3, 65, 0
5, 272400, Note_on_c, 3, 68, 64
5, 272600, Note_on_c, 3, 68, 0
5, 272640, Note_on_c, 3, 67, 64
5, 272840, Note_on_c, 3, 67, 0
5, 272880, Note_on_c, 3, 75, 64
5, 273080, Note_on_c, 3, 75, 0
5, 273840, Note_on_c, 3, 75, 64
5, 274040, Note_on_c, 3, 75, 0
5, 274080, Note_on_c, 3, 75, 64
5, 274280, Note_on_c, 3, 75, 0
5, 274320, Note_on_c, 3, 75, 64
5, 274520, Note_on_c, 3, 75, 0
5, 274560, Note_on_c, 3, 72, 64
5, 274960, Note_on_c, 3, 72, 0
5, 275760, Note_on_c, 3, 72, 64
5, 275960, Note_on_c, 3, 72, 0
5, 276000, Note_on_c, 3, 72, 64
5, 276200, Note_on_c, 3, 72, 0
5, 276240, Note_on_c, 3, 72, 64
5, 276440, Note_on_c, 3, 72, 0
5, 276480, Note_on_c, 3, 70, 64
5, 276580, Note_on_c, 3, 70, 0
5, 276600, Note_on_c, 3, 70, 64
5, 276700, Note_on_c, 3, 70, 0
5, 276720, Note_on_c, 3, 70, 64
5, 276820, Note_on_c, 3, 70, 0
5, 276840, Note_on_c, 3, 70, 64
5, 276940, Note_on_c, 3, 70, 0
5, 276960, Note_on_c, 3, 70, 64
5, 277060, Note_on_c, 3, 70, 0
5, 277080, Note_on_c, 3, 70, 64
5, 277180, Note_on_c, 3, 70, 0
5, 277200, Note_on_c, 3, 70, 64
5, 277300, Note_on_c, 3, 70, 0
5, 277320, Note_on_c, 3, 70, 64
5, 277420, Note_on_c, 3, 70, 0
5, 277440, Note_on_c, 3, 63, 64
5, 277540, Note_on_c, 3, 63, 0
5, 277560, Note_on_c, 3, 63, 64
5, 277660, Note_on_c, 3, 63, 0
5, 277680, Note_on_c, 3, 63, 64
5, 277780, Note_on_c, 3, 63, 0
5, 277800, Note_on_c, 3, 63, 64
5, 277900, Note_on_c, 3, 63, 0
5, 277920, Note_on_c, 3, 63, 64
5, 278020, Note_on_c, 3, 63, 0
5, 278040, Note_on_c, 3, 63, 64
5, 278140, Note_on_c, 3, 63, 0
5, 278160, Note_on_c, 3, 63, 64
5, 278260, Note_on_c, 3, 63, 0
5, 278280, Note_on_c, 3, 63, 64
5, 278380, Note_on_c, 3, 63, 0
5, 278400, Control_c, 3, 11, 94
5, 278400, Note_on_c, 3, 62, 86
5, 278500, Note_on_c, 3, 62, 0
5, 278520, Control_c, 3, 11, 95
5, 278520, Note_on_c, 3, 62, 86
5, 278620, Note_on_c, 3, 62, 0
5, 278640, Control_c, 3, 11, 97
5, 278640, Note_on_c, 3, 62, 86
5, 278740, Note_on_c, 3, 62, 0
5, 278760, Control_c, 3, 11, 100
5, 278760, Note_on_c, 3, 62, 86
5, 278860, Note_on_c, 3, 62, 0
5, 278880, Control_c, 3, 11, 101
5, 278880, Note_on_c, 3, 65, 86
5, 278980, Note_on_c, 3, 65, 0
5, 279000, Control_c, 3, 11, 104
5, 279000, Note_on_c, 3, 65, 86
5, 279100, Note_on_c, 3, 65, 0
5, 279120, Control_c, 3, 11, 106
5, 279120, Note_on_c, 3, 65, 86
5, 279220, Note_on_c, 3, 65, 0
5, 279240, Control_c, 3, 11, 109
5, 279240, Note_on_c, 3, 65, 86
5, 279340, Note_on_c, 3, 65, 0
5, 279360, Control_c, 3, 11, 110
5, 279360, Note_on_c, 3, 68, 86
5, 279460, Note_on_c, 3, 68, 0
5, 279480, Control_c, 3, 11, 113
5, 279480, Note_on_c, 3, 68, 86
5, 279580, Note_on_c, 3, 68, 0
5, 279600, Control_c, 3, 11, 115
5, 279600, Note_on_c, 3, 68, 86
5, 279700, Note_on_c, 3, 68, 0
5, 279720, Control_c, 3, 11, 118
5, 279720, Note_on_c, 3, 68, 86
5, 279820, Note_on_c, 3, 68, 0
5, 279840, Control_c, 3, 11, 119
5, 279840, Note_on_c, 3, 74, 86
5, 279940, Note_on_c, 3, 74, 0
5, 279960, Control_c, 3, 11, 121
5, 279960, Note_on_c, 3, 74, 86
5, 280060, Note_on_c, 3, 74, 0
5, 280080, Control_c, 3, 11, 124
5, 280080, Note_on_c, 3, 74, 86
5, 280180, Note_on_c, 3, 74, 0
5, 280200, Control_c, 3, 11, 125
5, 280200, Note_on_c, 3, 74, 86
5, 280300, Note_on_c, 3, 74, 0
5, 280320, Control_c, 3, 11, 127
5, 280320, Note_on_c, 3, 75, 86
5, 280420, Note_on_c, 3, 75, 0
5, 280440, Note_on_c, 3, 79, 86
5, 280540, Note_on_c, 3, 79, 0
5, 280560, Note_on_c, 3, 79, 86
5, 280660, Note_on_c, 3, 79, 0
5, 280680, Note_on_c, 3, 79, 86
5, 280780, Note_on_c, 3, 79, 0
5, 280800, Note_on_c, 3, 79, 86
5, 280900, Note_on_c, 3, 79, 0
5, 280920, Note_on_c, 3, 79, 86
5, 281020, Note_on_c, 3, 79, 0
5, 281040, Note_on_c, 3, 79, 86
5, 281140, Note_on_c, 3, 79, 0
5, 281160, Note_on_c, 3, 79, 86
5, 281260, Note_on_c, 3, 79, 0
5, 281280, Note_on_c, 3, 79, 86
5, 281380, Note_on_c, 3, 79, 0
5, 281400, Note_on_c, 3, 79, 86
5, 281500, Note_on_c, 3, 79, 0
5, 281520, Note_on_c, 3, 79, 86
5, 281620, Note_on_c, 3, 79, 0
5, 281640, Note_on_c, 3, 79, 86
5, 281740, Note_on_c, 3, 79, 0
5, 281760, Note_on_c, 3, 79, 86
5, 281860, Note_on_c, 3, 79, 0
5, 281880, Note_on_c, 3, 79, 86
5, 281980, Note_on_c, 3, 79, 0
5, 282000, Note_on_c, 3, 79, 86
5, 282100, Note_on_c, 3, 79, 0
5, 282120, Note_on_c, 3, 79, 86
5, 282220, Note_on_c, 3, 79, 0
5, 282240, Note_on_c, 3, 79, 86
5, 282340, Note_on_c, 3, 79, 0
5, 282360, Note_on_c, 3, 79, 86
5, 282460, Note_on_c, 3, 79, 0
5, 282480, Note_on_c, 3, 79, 86
5, 282580, Note_on_c, 3, 79, 0
5, 282600, Note_on_c, 3, 79, 86
5, 282700, Note_on_c, 3, 79, 0
5, 282720, Note_on_c, 3, 79, 86
5, 282820, Note_on_c, 3, 79, 0
5, 282840, Note_on_c, 3, 79, 86
5, 282940, Note_on_c, 3, 79, 0
5, 282960, Note_on_c, 3, 79, 86
5, 283060, Note_on_c, 3, 79, 0
5, 283080, Note_on_c, 3, 79, 86
5, 283180, Note_on_c, 3, 79, 0
5, 283200, Note_on_c, 3, 79, 86
5, 283300, Note_on_c, 3, 79, 0
5, 283320, Note_on_c, 3, 79, 86
5, 283420, Note_on_c, 3, 79, 0
5, 283440, Note_on_c, 3, 79, 86
5, 283540, Note_on_c, 3, 79, 0
5, 283560, Note_on_c, 3, 79, 86
5, 283660, Note_on_c, 3, 79, 0
5, 283680, Note_on_c, 3, 79, 86
5, 283780, Note_on_c, 3, 79, 0
5, 283800, Note_on_c, 3, 79, 86
5, 283900, Note_on_c, 3, 79, 0
5, 283920, Note_on_c, 3, 79, 86
5, 284020, Note_on_c, 3, 79, 0
5, 284040, Note_on_c, 3, 79, 86
5, 284140, Note_on_c, 3, 79, 0
5, 284160, Note_on_c, 3, 79, 86
5, 284260, Note_on_c, 3, 79, 0
5, 284280, Note_on_c, 3, 79, 86
5, 284380, Note_on_c, 3, 79, 0
5, 284400, Note_on_c, 3, 79, 86
5, 284500, Note_on_c, 3, 79, 0
5, 284520, Note_on_c, 3, 79, 86
5, 284620, Note_on_c, 3, 79, 0
5, 284640, Note_on_c, 3, 79, 86
5, 284740, Note_on_c, 3, 79, 0
5, 284760, Note_on_c, 3, 79, 86
5, 284860, Note_on_c, 3, 79, 0
5, 284880, Note_on_c, 3, 79, 86
5, 284980, Note_on_c, 3, 79, 0
5, 285000, Note_on_c, 3, 79, 86
5, 285100, Note_on_c, 3, 79, 0
5, 285120, Note_on_c, 3, 79, 86
5, 285220, Note_on_c, 3, 79, 0
5, 285240, Note_on_c, 3, 79, 86
5, 285340, Note_on_c, 3, 79, 0
5, 285360, Note_on_c, 3, 79, 86
5, 285460, Note_on_c, 3, 79, 0
5, 285480, Note_on_c, 3, 79, 86
5, 285580, Note_on_c, 3, 79, 0
5, 285600, Note_on_c, 3, 79, 86
5, 285700, Note_on_c, 3, 79, 0
5, 285720, Note_on_c, 3, 79, 86
5, 285820, Note_on_c, 3, 79, 0
5, 285840, Note_on_c, 3, 79, 86
5, 285940, Note_on_c, 3, 79, 0
5, 285960, Note_on_c, 3, 79, 86
5, 286060, Note_on_c, 3, 79, 0
5, 286080, Note_on_c, 3, 79, 86
5, 286180, Note_on_c, 3, 79, 0
5, 286200, Note_on_c, 3, 79, 86
5, 286300, Note_on_c, 3, 79, 0
5, 286320, Note_on_c, 3, 79, 86
5, 286420, Note_on_c, 3, 79, 0
5, 286440, Note_on_c, 3, 79, 86
5, 286540, Note_on_c, 3, 79, 0
5, 286560, Note_on_c, 3, 79, 86
5, 286660, Note_on_c, 3, 79, 0
5, 286680, Note_on_c, 3, 79, 86
5, 286780, Note_on_c, 3, 79, 0
5, 286800, Note_on_c, 3, 79, 86
5, 286900, Note_on_c, 3, 79, 0
5, 286920, Note_on_c, 3, 79, 86
5, 287020, Note_on_c, 3, 79, 0
5, 287040, Note_on_c, 3, 79, 86
5, 287140, Note_on_c, 3, 79, 0
5, 287160, Note_on_c, 3, 79, 86
5, 287260, Note_on_c, 3, 79, 0
5, 287280, Note_on_c, 3, 79, 86
5, 287380, Note_on_c, 3, 79, 0
5, 287400, Note_on_c, 3, 79, 86
5, 287500, Note_on_c, 3, 79, 0
5, 287520, Note_on_c, 3, 79, 86
5, 287620, Note_on_c, 3, 79, 0
5, 287640, Note_on_c, 3, 79, 86
5, 287740, Note_on_c, 3, 79, 0
5, 287760, Note_on_c, 3, 79, 86
5, 287860, Note_on_c, 3, 79, 0
5, 287880, Note_on_c, 3, 79, 86
5, 287980, Note_on_c, 3, 79, 0
5, 288000, Control_c, 3, 11, 95
5, 288000, Note_on_c, 3, 79, 114
5, 288100, Note_on_c, 3, 79, 0
5, 288120, Control_c, 3, 11, 95
5, 288120, Note_on_c, 3, 79, 114
5, 288220, Note_on_c, 3, 79, 0
5, 288240, Control_c, 3, 11, 96
5, 288240, Note_on_c, 3, 79, 114
5, 288340, Note_on_c, 3, 79, 0
5, 288360, Control_c, 3, 11, 98
5, 288360, Note_on_c, 3, 79, 114
5, 288460, Note_on_c, 3, 79, 0
5, 288480, Control_c, 3, 11, 99
5, 288480, Note_on_c, 3, 79, 114
5, 288580, Note_on_c, 3, 79, 0
5, 288600, Control_c, 3, 11, 100
5, 288600, Note_on_c, 3, 79, 114
5, 288700, Note_on_c, 3, 79, 0
5, 288720, Control_c, 3, 11, 101
5, 288720, Note_on_c, 3, 79, 114
5, 288820, Note_on_c, 3, 79, 0
5, 288840, Control_c, 3, 11, 102
5, 288840, Note_on_c, 3, 79, 114
5, 288940, Note_on_c, 3, 79, 0
5, 288960, Control_c, 3, 11, 103
5, 288960, Note_on_c, 3, 79, 114
5, 289060, Note_on_c, 3, 79, 0
5, 289080, Control_c, 3, 11, 103
5, 289080, Note_on_c, 3, 79, 114
5, 289180, Note_on_c, 3, 79, 0
5, 289200, Control_c, 3, 11, 104
5, 289200, Note_on_c, 3, 79, 114
5, 289300, Note_on_c, 3, 79, 0
5, 289320, Control_c, 3, 11, 105
5, 289320, Note_on_c, 3, 79, 114
5, 289420, Note_on_c, 3, 79, 0
5, 289440, Control_c, 3, 11, 106
5, 289440, Note_on_c, 3, 79, 114
5, 289540, Note_on_c, 3, 79, 0
5, 289560, Control_c, 3, 11, 108
5, 289560, Note_on_c, 3, 79, 114
5, 289660, Note_on_c, 3, 79, 0
5, 289680, Control_c, 3, 11, 109
5, 289680, Note_on_c, 3, 79, 114
5, 289780, Note_on_c, 3, 79, 0
5, 289800, Control_c, 3, 11, 110
5, 289800, Note_on_c, 3, 79, 114
5, 289900, Note_on_c, 3, 79, 0
5, 289920, Note_on_c, 3, 77, 114
5, 289920, Control_c, 3, 11, 111
5, 290020, Note_on_c, 3, 77, 0
5, 290040, Note_on_c, 3, 77, 114
5, 290040, Control_c, 3, 11, 111
5, 290140, Note_on_c, 3, 77, 0
5, 290160, Note_on_c, 3, 77, 114
5, 290160, Control_c, 3, 11, 112
5, 290260, Note_on_c, 3, 77, 0
5, 290280, Note_on_c, 3, 77, 114
5, 290280, Control_c, 3, 11, 113
5, 290380, Note_on_c, 3, 77, 0
5, 290400, Note_on_c, 3, 77, 114
5, 290400, Control_c, 3, 11, 114
5, 290500, Note_on_c, 3, 77, 0
5, 290520, Note_on_c, 3, 77, 114
5, 290520, Control_c, 3, 11, 115
5, 290620, Note_on_c, 3, 77, 0
5, 290640, Note_on_c, 3, 77, 114
5, 290640, Control_c, 3, 11, 116
5, 290740, Note_on_c, 3, 77, 0
5, 290760, Note_on_c, 3, 77, 114
5, 290760, Control_c, 3, 11, 118
5, 290860, Note_on_c, 3, 77, 0
5, 290880, Note_on_c, 3, 77, 114
5, 290880, Control_c, 3, 11, 119
5, 290980, Note_on_c, 3, 77, 0
5, 291000, Note_on_c, 3, 77, 114
5, 291000, Control_c, 3, 11, 120
5, 291100, Note_on_c, 3, 77, 0
5, 291120, Note_on_c, 3, 77, 114
5, 291120, Control_c, 3, 11, 120
5, 291220, Note_on_c, 3, 77, 0
5, 291240, Note_on_c, 3, 77, 114
5, 291240, Control_c, 3, 11, 121
5, 291340, Note_on_c, 3, 77, 0
5, 291360, Note_on_c, 3, 77, 114
5, 291360, Control_c, 3, 11, 122
5, 291460, Note_on_c, 3, 77, 0
5, 291480, Note_on_c, 3, 77, 114
5, 291480, Control_c, 3, 11, 123
5, 291580, Note_on_c, 3, 77, 0
5, 291600, Note_on_c, 3, 77, 114
5, 291600, Control_c, 3, 11, 124
5, 291700, Note_on_c, 3, 77, 0
5, 291720, Note_on_c, 3, 77, 114
5, 291720, Control_c, 3, 11, 125
5, 291820, Note_on_c, 3, 77, 0
5, 291840, Control_c, 3, 11, 127
5, 291840, Note_on_c, 3, 77, 83
5, 291940, Note_on_c, 3, 77, 0
5, 291960, Note_on_c, 3, 77, 83
5, 292060, Note_on_c, 3, 77, 0
5, 292080, Note_on_c, 3, 77, 83
5, 292180, Note_on_c, 3, 77, 0
5, 292200, Note_on_c, 3, 77, 83
5, 292300, Note_on_c, 3, 77, 0
5, 292320, Note_on_c, 3, 79, 83
5, 292420, Note_on_c, 3, 79, 0
5, 292440, Note_on_c, 3, 79, 83
5, 292540, Note_on_c, 3, 79, 0
5, 292560, Note_on_c, 3, 79, 83
5, 292660, Note_on_c, 3, 79, 0
5, 292680, Note_on_c, 3, 79, 83
5, 292780, Note_on_c, 3, 79, 0
5, 292800, Note_on_c, 3, 80, 83
5, 292900, Note_on_c, 3, 80, 0
5, 292920, Note_on_c, 3, 80, 83
5, 293020, Note_on_c, 3, 80, 0
5, 293040, Note_on_c, 3, 80, 83
5, 293140, Note_on_c, 3, 80, 0
5, 293160, Note_on_c, 3, 80, 83
5, 293260, Note_on_c, 3, 80, 0
5, 293280, Note_on_c, 3, 79, 83
5, 293380, Note_on_c, 3, 79, 0
5, 293400, Note_on_c, 3, 79, 83
5, 293500, Note_on_c, 3, 79, 0
5, 293520, Note_on_c, 3, 79, 83
5, 293620, Note_on_c, 3, 79, 0
5, 293640, Note_on_c, 3, 79, 83
5, 293740, Note_on_c, 3, 79, 0
5, 293760, Note_on_c, 3, 84, 83
5, 293860, Note_on_c, 3, 84, 0
5, 293880, Note_on_c, 3, 84, 83
5, 293980, Note_on_c, 3, 84, 0
5, 294000, Note_on_c, 3, 84, 83
5, 294100, Note_on_c, 3, 84, 0
5, 294120, Note_on_c, 3, 84, 83
5, 294220, Note_on_c, 3, 84, 0
5, 294240, Note_on_c, 3, 82, 83
5, 294340, Note_on_c, 3, 82, 0
5, 294360, Note_on_c, 3, 82, 83
5, 294460, Note_on_c, 3, 82, 0
5, 294480, Note_on_c, 3, 82, 83
5, 294580, Note_on_c, 3, 82, 0
5, 294600, Note_on_c, 3, 82, 83
5, 294700, Note_on_c, 3, 82, 0
5, 294720, Note_on_c, 3, 80, 83
5, 294820, Note_on_c, 3, 80, 0
5, 294840, Note_on_c, 3, 80, 83
5, 294940, Note_on_c, 3, 80, 0
5, 294960, Note_on_c, 3, 80, 83
5, 295060, Note_on_c, 3, 80, 0
5, 295080, Note_on_c, 3, 80, 83
5, 295180, Note_on_c, 3, 80, 0
5, 295200, Note_on_c, 3, 78, 83
5, 295300, Note_on_c, 3, 78, 0
5, 295320, Note_on_c, 3, 78, 83
5, 295420, Note_on_c, 3, 78, 0
5, 295440, Note_on_c, 3, 78, 83
5, 295540, Note_on_c, 3, 78, 0
5, 295560, Note_on_c, 3, 78, 83
5, 295660, Note_on_c, 3, 78, 0
5, 295680, Note_on_c, 3, 79, 83
5, 296490, Note_on_c, 3, 79, 0
5, 324420, Note_on_c, 3, 75, 86
5, 324820, Note_on_c, 3, 75, 0
5, 324900, Note_on_c, 3, 63, 86
5, 324900, Note_on_c, 3, 55, 86
5, 325300, Note_on_c, 3, 63, 0
5, 325300, Note_on_c, 3, 55, 0
5, 325620, Note_on_c, 3, 75, 86
5, 325740, Note_on_c, 3, 75, 0
5, 325740, Note_on_c, 3, 79, 86
5, 325860, Note_on_c, 3, 79, 0
5, 325860, Note_on_c, 3, 82, 86
5, 326060, Note_on_c, 3, 82, 0
5, 326100, Note_on_c, 3, 82, 86
5, 326300, Note_on_c, 3, 82, 0
5, 326340, Note_on_c, 3, 84, 86
5, 326740, Note_on_c, 3, 84, 0
5, 326820, Note_on_c, 3, 56, 86
5, 327220, Note_on_c, 3, 56, 0
5, 327540, Note_on_c, 3, 75, 86
5, 327660, Note_on_c, 3, 75, 0
5, 327660, Note_on_c, 3, 80, 86
5, 327780, Note_on_c, 3, 80, 0
5, 327780, Note_on_c, 3, 84, 86
5, 327980, Note_on_c, 3, 84, 0
5, 328020, Note_on_c, 3, 84, 86
5, 328220, Note_on_c, 3, 84, 0
5, 328260, Note_on_c, 3, 82, 86
5, 328660, Note_on_c, 3, 82, 0
5, 328740, Note_on_c, 3, 63, 86
5, 328740, Note_on_c, 3, 55, 86
5, 329140, Note_on_c, 3, 63, 0
5, 329140, Note_on_c, 3, 55, 0
5, 329460, Note_on_c, 3, 75, 86
5, 329580, Note_on_c, 3, 75, 0
5, 329580, Note_on_c, 3, 79, 86
5, 329700, Note_on_c, 3, 79, 0
5, 329700, Note_on_c, 3, 82, 86
5, 329900, Note_on_c, 3, 82, 0
5, 329940, Note_on_c, 3, 82, 86
5, 330140, Note_on_c, 3, 82, 0
5, 330180, Note_on_c, 3, 80, 86
5, 330380, Note_on_c, 3, 80, 0
5, 330420, Note_on_c, 3, 84, 86
5, 330520, Note_on_c, 3, 84, 0
5, 330540, Note_on_c, 3, 82, 86
5, 330640, Note_on_c, 3, 82, 0
5, 330660, Note_on_c, 3, 80, 86
5, 330760, Note_on_c, 3, 80, 0
5, 330780, Note_on_c, 3, 79, 86
5, 330880, Note_on_c, 3, 79, 0
5, 330900, Note_on_c, 3, 77, 86
5, 331000, Note_on_c, 3, 77, 0
5, 331020, Note_on_c, 3, 75, 86
5, 331120, Note_on_c, 3, 75, 0
5, 331140, Note_on_c, 3, 74, 86
5, 331340, Note_on_c, 3, 74, 0
5, 331380, Note_on_c, 3, 77, 86
5, 331480, Note_on_c, 3, 77, 0
5, 331500, Note_on_c, 3, 75, 86
5, 331600, Note_on_c, 3, 75, 0
5, 331620, Note_on_c, 3, 74, 86
5, 331720, Note_on_c, 3, 74, 0
5, 331740, Note_on_c, 3, 72, 86
5, 331840, Note_on_c, 3, 72, 0
5, 331860, Note_on_c, 3, 70, 86
5, 331960, Note_on_c, 3, 70, 0
5, 331980, Note_on_c, 3, 68, 86
5, 332080, Note_on_c, 3, 68, 0
5, 332100, Note_on_c, 3, 67, 86
5, 332500, Note_on_c, 3, 67, 0
5, 332820, Note_on_c, 3, 82, 86
5, 332940, Note_on_c, 3, 82, 0
5, 332940, Note_on_c, 3, 84, 86
5, 333060, Note_on_c, 3, 84, 0
5, 333060, Note_on_c, 3, 85, 86
5, 333260, Note_on_c, 3, 85, 0
5, 333300, Note_on_c, 3, 85, 86
5, 333500, Note_on_c, 3, 85, 0
5, 333540, Note_on_c, 3, 85, 86
5, 333740, Note_on_c, 3, 85, 0
5, 333780, Note_on_c, 3, 85, 86
5, 333980, Note_on_c, 3, 85, 0
5, 334020, Note_on_c, 3, 84, 86
5, 334420, Note_on_c, 3, 84, 0
5, 334740, Note_on_c, 3, 84, 86
5, 334860, Note_on_c, 3, 84, 0
5, 334860, Note_on_c, 3, 86, 86
5, 334980, Note_on_c, 3, 86, 0
5, 334980, Note_on_c, 3, 87, 86
5, 335180, Note_on_c, 3, 87, 0
5, 335220, Note_on_c, 3, 87, 86
5, 335420, Note_on_c, 3, 87, 0
5, 335460, Note_on_c, 3, 87, 86
5, 335660, Note_on_c, 3, 87, 0
5, 335700, Note_on_c, 3, 87, 86
5, 335900, Note_on_c, 3, 87, 0
5, 335940, Note_on_c, 3, 82, 86
5, 336140, Note_on_c, 3, 82, 0
5, 336180, Note_on_c, 3, 79, 86
5, 336280, Note_on_c, 3, 79, 0
5, 336300, Note_on_c, 3, 75, 86
5, 336400, Note_on_c, 3, 75, 0
5, 336420, Note_on_c, 3, 70, 86
5, 336620, Note_on_c, 3, 70, 0
5, 336660, Note_on_c, 3, 67, 86
5, 336760, Note_on_c, 3, 67, 0
5, 336780, Note_on_c, 3, 63, 86
5, 336880, Note_on_c, 3, 63, 0
5, 336900, Note_on_c, 3, 58, 86
5, 337300, Note_on_c, 3, 58, 0
5, 337380, Note_on_c, 3, 74, 86
5, 337380, Note_on_c, 3, 65, 86
5, 337380, Note_on_c, 3, 58, 86
5, 337780, Note_on_c, 3, 74, 0
5, 337780, Note_on_c, 3, 65, 0
5, 337780, Note_on_c, 3, 58, 0
5, 337860, Note_on_c, 3, 75, 86
5, 337860, Note_on_c, 3, 67, 86
5, 337860, Note_on_c, 3, 58, 86
5, 338260, Note_on_c, 3, 75, 0
5, 338260, Note_on_c, 3, 67, 0
5, 338260, Note_on_c, 3, 58, 0
5, 338820, Note_on_c, 3, 67, 64
5, 339300, Note_on_c, 3, 67, 0
5, 339300, Note_on_c, 3, 63, 64
5, 339780, Note_on_c, 3, 63, 0
5, 339780, Note_on_c, 3, 68, 64
5, 340390, Note_on_c, 3, 68, 0
5, 340500, Note_on_c, 3, 65, 64
5, 340700, Note_on_c, 3, 65, 0
5, 340740, Note_on_c, 3, 63, 64
5, 340980, Note_on_c, 3, 63, 0
5, 340980, Note_on_c, 3, 62, 64
5, 341220, Note_on_c, 3, 62, 0
5, 341220, Note_on_c, 3, 60, 64
5, 341460, Note_on_c, 3, 60, 0
5, 341460, Note_on_c, 3, 62, 64
5, 341700, Note_on_c, 3, 62, 0
5, 341700, Note_on_c, 3, 63, 64
5, 341940, Note_on_c, 3, 63, 0
5, 341940, Note_on_c, 3, 67, 64
5, 342180, Note_on_c, 3, 67, 0
5, 342180, Note_on_c, 3, 70, 64
5, 342580, Note_on_c, 3, 70, 0
5, 342660, Note_on_c, 3, 67, 64
5, 343140, Note_on_c, 3, 67, 0
5, 343140, Note_on_c, 3, 63, 64
5, 343620, Note_on_c, 3, 63, 0
5, 343620, Note_on_c, 3, 68, 64
5, 344340, Note_on_c, 3, 68, 0
5, 344340, Note_on_c, 3, 65, 64
5, 344580, Note_on_c, 3, 65, 0
5, 344580, Note_on_c, 3, 62, 64
5, 344820, Note_on_c, 3, 62, 0
5, 344820, Note_on_c, 3, 63, 64
5, 345060, Note_on_c, 3, 63, 0
5, 345060, Note_on_c, 3, 65, 64
5, 345300, Note_on_c, 3, 65, 0
5, 345300, Note_on_c, 3, 67, 64
5, 345540, Note_on_c, 3, 67, 0
5, 345540, Note_on_c, 3, 63, 40
5, 345660, Note_on_c, 3, 63, 0
5, 345660, Note_on_c, 3, 62, 40
5, 345780, Note_on_c, 3, 62, 0
5, 345780, Note_on_c, 3, 63, 40
5, 345900, Note_on_c, 3, 63, 0
5, 345900, Note_on_c, 3, 62, 40
5, 346020, Note_on_c, 3, 62, 0
5, 346020, Note_on_c, 3, 63, 40
5, 346260, Note_on_c, 3, 63, 0
5, 346500, Note_on_c, 3, 61, 40
5, 346620, Note_on_c, 3, 61, 0
5, 346620, Note_on_c, 3, 60, 40
5, 346740, Note_on_c, 3, 60, 0
5, 346740, Note_on_c, 3, 61, 40
5, 346860, Note_on_c, 3, 61, 0
5, 346860, Note_on_c, 3, 60, 40
5, 346980, Note_on_c, 3, 60, 0
5, 346980, Note_on_c, 3, 61, 40
5, 347220, Note_on_c, 3, 61, 0
5, 347460, Note_on_c, 3, 60, 40
5, 347580, Note_on_c, 3, 60, 0
5, 347580, Note_on_c, 3, 59, 40
5, 347700, Note_on_c, 3, 59, 0
5, 347700, Note_on_c, 3, 60, 40
5, 347820, Note_on_c, 3, 60, 0
5, 347820, Note_on_c, 3, 59, 40
5, 347940, Note_on_c, 3, 59, 0
5, 347940, Note_on_c, 3, 60, 40
5, 348180, Note_on_c, 3, 60, 0
5, 348420, Note_on_c, 3, 65, 40
5, 348540, Note_on_c, 3, 65, 0
5, 348540, Note_on_c, 3, 64, 40
5, 348660, Note_on_c, 3, 64, 0
5, 348660, Note_on_c, 3, 65, 40
5, 348780, Note_on_c, 3, 65, 0
5, 348780, Note_on_c, 3, 64, 40
5, 348900, Note_on_c, 3, 64, 0
5, 348900, Note_on_c, 3, 65, 40
5, 349020, Note_on_c, 3, 65, 0
5, 349020, Note_on_c, 3, 68, 40
5, 349140, Note_on_c, 3, 68, 0
5, 349140, Note_on_c, 3, 67, 40
5, 349260, Note_on_c, 3, 67, 0
5, 349260, Note_on_c, 3, 65, 40
5, 349360, Note_on_c, 3, 65, 0
5, 349380, Note_on_c, 3, 63, 40
5, 349500, Note_on_c, 3, 63, 0
5, 349500, Note_on_c, 3, 62, 40
5, 349620, Note_on_c, 3, 62, 0
5, 349620, Note_on_c, 3, 63, 40
5, 349740, Note_on_c, 3, 63, 0
5, 349740, Note_on_c, 3, 62, 40
5, 349860, Note_on_c, 3, 62, 0
5, 349860, Note_on_c, 3, 63, 40
5, 350100, Note_on_c, 3, 63, 0
5, 350340, Note_on_c, 3, 73, 40
5, 350460, Note_on_c, 3, 73, 0
5, 350460, Note_on_c, 3, 72, 40
5, 350580, Note_on_c, 3, 72, 0
5, 350580, Note_on_c, 3, 73, 40
5, 350700, Note_on_c, 3, 73, 0
5, 350700, Note_on_c, 3, 72, 40
5, 350820, Note_on_c, 3, 72, 0
5, 350820, Note_on_c, 3, 73, 40
5, 351060, Note_on_c, 3, 73, 0
5, 351300, Note_on_c, 3, 72, 40
5, 351420, Note_on_c, 3, 72, 0
5, 351420, Note_on_c, 3, 71, 40
5, 351540, Note_on_c, 3, 71, 0
5, 351540, Note_on_c, 3, 72, 40
5, 351660, Note_on_c, 3, 72, 0
5, 351660, Note_on_c, 3, 71, 40
5, 351780, Note_on_c, 3, 71, 0
5, 351780, Note_on_c, 3, 72, 40
5, 352020, Note_on_c, 3, 72, 0
5, 352260, Note_on_c, 3, 65, 40
5, 352460, Note_on_c, 3, 65, 0
5, 352500, Note_on_c, 3, 63, 40
5, 352700, Note_on_c, 3, 63, 0
5, 352740, Note_on_c, 3, 62, 40
5, 352940, Note_on_c, 3, 62, 0
5, 352980, Note_on_c, 3, 62, 40
5, 353180, Note_on_c, 3, 62, 0
5, 353220, Note_on_c, 3, 63, 40
5, 353620, Note_on_c, 3, 63, 0
5, 353940, Note_on_c, 3, 82, 86
5, 353940, Note_on_c, 3, 70, 86
5, 354140, Note_on_c, 3, 82, 0
5, 354140, Note_on_c, 3, 70, 0
5, 354180, Note_on_c, 3, 79, 86
5, 354180, Note_on_c, 3, 70, 86
5, 354380, Note_on_c, 3, 79, 0
5, 354380, Note_on_c, 3, 70, 0
5, 354420, Note_on_c, 3, 79, 86
5, 354420, Note_on_c, 3, 70, 86
5, 354620, Note_on_c, 3, 79, 0
5, 354620, Note_on_c, 3, 70, 0
5, 354660, Note_on_c, 3, 80, 86
5, 354660, Note_on_c, 3, 70, 86
5, 354860, Note_on_c, 3, 80, 0
5, 354860, Note_on_c, 3, 70, 0
5, 354900, Note_on_c, 3, 80, 86
5, 354900, Note_on_c, 3, 70, 86
5, 355100, Note_on_c, 3, 80, 0
5, 355100, Note_on_c, 3, 70, 0
5, 355140, Note_on_c, 3, 79, 86
5, 355140, Note_on_c, 3, 70, 86
5, 355540, Note_on_c, 3, 79, 0
5, 355540, Note_on_c, 3, 70, 0
5, 355860, Note_on_c, 3, 77, 86
5, 355860, Note_on_c, 3, 70, 86
5, 356060, Note_on_c, 3, 77, 0
5, 356060, Note_on_c, 3, 70, 0
5, 356100, Note_on_c, 3, 75, 86
5, 356100, Note_on_c, 3, 67, 86
5, 356300, Note_on_c, 3, 75, 0
5, 356300, Note_on_c, 3, 67, 0
5, 356340, Note_on_c, 3, 75, 86
5, 356340, Note_on_c, 3, 67, 86
5, 356540, Note_on_c, 3, 75, 0
5, 356540, Note_on_c, 3, 67, 0
5, 356580, Note_on_c, 3, 77, 86
5, 356580, Note_on_c, 3, 70, 86
5, 356780, Note_on_c, 3, 77, 0
5, 356780, Note_on_c, 3, 70, 0
5, 356820, Note_on_c, 3, 77, 86
5, 356820, Note_on_c, 3, 70, 86
5, 357020, Note_on_c, 3, 77, 0
5, 357020, Note_on_c, 3, 70, 0
5, 357060, Note_on_c, 3, 75, 86
5, 357060, Note_on_c, 3, 67, 86
5, 357460, Note_on_c, 3, 75, 0
5, 357460, Note_on_c, 3, 67, 0
5, 357780, Note_on_c, 3, 82, 86
5, 357900, Note_on_c, 3, 82, 0
5, 357900, Note_on_c, 3, 80, 86
5, 358020, Note_on_c, 3, 80, 0
5, 358020, Note_on_c, 3, 79, 86
5, 358420, Note_on_c, 3, 79, 0
5, 358500, Note_on_c, 3, 79, 86
5, 358900, Note_on_c, 3, 79, 0
5, 358980, Note_on_c, 3, 79, 86
5, 359380, Note_on_c, 3, 79, 0
5, 359700, Note_on_c, 3, 79, 86
5, 359820, Note_on_c, 3, 79, 0
5, 359820, Note_on_c, 3, 77, 86
5, 359940, Note_on_c, 3, 77, 0
5, 359940, Note_on_c, 3, 75, 86
5, 360340, Note_on_c, 3, 75, 0
5, 360420, Note_on_c, 3, 75, 86
5, 360820, Note_on_c, 3, 75, 0
5, 360900, Note_on_c, 3, 75, 86
5, 361300, Note_on_c, 3, 75, 0
5, 361860, Note_on_c, 3, 79, 86
5, 361860, Note_on_c, 3, 70, 86
5, 361860, Note_on_c, 3, 63, 86
5, 362260, Note_on_c, 3, 79, 0
5, 362260, Note_on_c, 3, 70, 0
5, 362260, Note_on_c, 3, 63, 0
5, 362820, Note_on_c, 3, 63, 86
5, 362820, Note_on_c, 3, 55, 86
5, 363630, Note_on_c, 3, 63, 0
5, 363630, Note_on_c, 3, 55, 0
5, 364800, End_track
6, 0, Start_track
6, 0, Title_t, "Violino II                          "
6, 0, Control_c, 4, 7, 65
6, 160, Control_c, 4, 91, 100
6, 320, Control_c, 4, 93, 50
6, 480, Control_c, 4, 10, 95
6, 640, Control_c, 4, 0, 0
6, 640, Control_c, 4, 32, 0
6, 640, Program_c, 4, 48
6, 800, Control_c, 4, 121, 0
6, 960, Pitch_bend_c, 4, 8192
6, 1120, Control_c, 4, 1, 0
6, 1280, Control_c, 4, 11, 127
6, 1440, Control_c, 4, 65, 0
6, 1600, Control_c, 4, 66, 0
6, 1760, Control_c, 4, 67, 0
6, 1920, Note_on_c, 4, 67, 86
6, 1920, Note_on_c, 4, 58, 86
6, 2320, Note_on_c, 4, 67, 0
6, 2320, Note_on_c, 4, 58, 0
6, 2400, Note_on_c, 4, 67, 86
6, 3010, Note_on_c, 4, 67, 0
6, 3120, Note_on_c, 4, 68, 86
6, 3170, Note_on_c, 4, 68, 0
6, 3180, Note_on_c, 4, 67, 94
6, 3240, Note_on_c, 4, 67, 0
6, 3240, Note_on_c, 4, 65, 86
6, 3360, Note_on_c, 4, 65, 0
6, 3360, Note_on_c, 4, 67, 86
6, 3560, Note_on_c, 4, 67, 0
6, 3600, Note_on_c, 4, 63, 111
6, 3720, Note_on_c, 4, 63, 0
6, 3840, Note_on_c, 4, 75, 86
6, 3840, Note_on_c, 4, 67, 86
6, 3840, Note_on_c, 4, 58, 86
6, 4240, Note_on_c, 4, 75, 0
6, 4240, Note_on_c, 4, 67, 0
6, 4240, Note_on_c, 4, 58, 0
6, 4320, Note_on_c, 4, 75, 86
6, 4930, Note_on_c, 4, 75, 0
6, 5040, Note_on_c, 4, 77, 86
6, 5090, Note_on_c, 4, 77, 0
6, 5100, Note_on_c, 4, 75, 94
6, 5160, Note_on_c, 4, 75, 0
6, 5160, Note_on_c, 4, 74, 86
6, 5280, Note_on_c, 4, 74, 0
6, 5280, Note_on_c, 4, 75, 86
6, 5520, Note_on_c, 4, 75, 0
6, 5520, Note_on_c, 4, 67, 111
6, 5640, Note_on_c, 4, 67, 0
6, 5760, Note_on_c, 4, 70, 86
6, 5760, Note_on_c, 4, 63, 86
6, 5760, Note_on_c, 4, 79, 86
6, 6160, Note_on_c, 4, 70, 0
6, 6160, Note_on_c, 4, 63, 0
6, 6340, Note_on_c, 4, 79, 0
6, 6360, Note_on_c, 4, 80, 86
6, 6420, Note_on_c, 4, 80, 0
6, 6480, Note_on_c, 4, 79, 86
6, 6540, Note_on_c, 4, 79, 0
6, 6600, Note_on_c, 4, 77, 86
6, 6660, Note_on_c, 4, 77, 0
6, 6720, Note_on_c, 4, 75, 86
6, 6840, Note_on_c, 4, 75, 0
6, 6840, Note_on_c, 4, 74, 86
6, 6960, Note_on_c, 4, 74, 0
6, 6960, Note_on_c, 4, 72, 86
6, 7020, Note_on_c, 4, 72, 0
6, 7080, Note_on_c, 4, 70, 86
6, 7140, Note_on_c, 4, 70, 0
6, 7200, Note_on_c, 4, 68, 86
6, 7300, Note_on_c, 4, 68, 0
6, 7320, Note_on_c, 4, 67, 86
6, 7420, Note_on_c, 4, 67, 0
6, 7440, Note_on_c, 4, 65, 86
6, 7540, Note_on_c, 4, 65, 0
6, 7560, Note_on_c, 4, 63, 86
6, 7660, Note_on_c, 4, 63, 0
6, 7680, Note_on_c, 4, 62, 86
6, 7680, Note_on_c, 4, 58, 86
6, 8290, Note_on_c, 4, 62, 0
6, 8290, Note_on_c, 4, 58, 0
6, 8400, Note_on_c, 4, 63, 86
6, 8520, Note_on_c, 4, 63, 0
6, 8520, Note_on_c, 4, 65, 86
6, 8640, Note_on_c, 4, 65, 0
6, 8640, Note_on_c, 4, 67, 86
6, 8840, Note_on_c, 4, 67, 0
6, 8880, Note_on_c, 4, 67, 86
6, 8980, Note_on_c, 4, 67, 0
6, 9000, Note_on_c, 4, 63, 86
6, 9100, Note_on_c, 4, 63, 0
6, 9120, Note_on_c, 4, 68, 86
6, 9220, Note_on_c, 4, 68, 0
6, 9240, Note_on_c, 4, 63, 86
6, 9340, Note_on_c, 4, 63, 0
6, 9360, Note_on_c, 4, 70, 86
6, 9460, Note_on_c, 4, 70, 0
6, 9480, Note_on_c, 4, 63, 86
6, 9580, Note_on_c, 4, 63, 0
6, 9600, Note_on_c, 4, 72, 86
6, 10000, Note_on_c, 4, 72, 0
6, 10080, Note_on_c, 4, 56, 86
6, 10480, Note_on_c, 4, 56, 0
6, 10800, Note_on_c, 4, 72, 86
6, 10920, Note_on_c, 4, 72, 0
6, 10920, Note_on_c, 4, 75, 86
6, 11040, Note_on_c, 4, 75, 0
6, 11040, Note_on_c, 4, 80, 86
6, 11240, Note_on_c, 4, 80, 0
6, 11280, Note_on_c, 4, 80, 86
6, 11480, Note_on_c, 4, 80, 0
6, 11520, Note_on_c, 4, 79, 86
6, 11920, Note_on_c, 4, 79, 0
6, 12000, Note_on_c, 4, 63, 86
6, 12000, Note_on_c, 4, 55, 86
6, 12400, Note_on_c, 4, 63, 0
6, 12400, Note_on_c, 4, 55, 0
6, 12720, Note_on_c, 4, 67, 86
6, 12840, Note_on_c, 4, 67, 0
6, 12840, Note_on_c, 4, 75, 86
6, 12960, Note_on_c, 4, 75, 0
6, 12960, Note_on_c, 4, 79, 86
6, 13160, Note_on_c, 4, 79, 0
6, 13200, Note_on_c, 4, 79, 86
6, 13400, Note_on_c, 4, 79, 0
6, 13440, Note_on_c, 4, 80, 86
6, 13640, Note_on_c, 4, 80, 0
6, 13680, Note_on_c, 4, 84, 86
6, 13780, Note_on_c, 4, 84, 0
6, 13800, Note_on_c, 4, 82, 86
6, 13900, Note_on_c, 4, 82, 0
6, 13920, Note_on_c, 4, 80, 86
6, 14020, Note_on_c, 4, 80, 0
6, 14040, Note_on_c, 4, 79, 86
6, 14140, Note_on_c, 4, 79, 0
6, 14160, Note_on_c, 4, 77, 86
6, 14260, Note_on_c, 4, 77, 0
6, 14280, Note_on_c, 4, 75, 86
6, 14380, Note_on_c, 4, 75, 0
6, 14400, Note_on_c, 4, 74, 86
6, 14600, Note_on_c, 4, 74, 0
6, 14640, Note_on_c, 4, 77, 86
6, 14740, Note_on_c, 4, 77, 0
6, 14760, Note_on_c, 4, 75, 86
6, 14860, Note_on_c, 4, 75, 0
6, 14880, Note_on_c, 4, 74, 86
6, 14980, Note_on_c, 4, 74, 0
6, 15000, Note_on_c, 4, 72, 86
6, 15100, Note_on_c, 4, 72, 0
6, 15120, Note_on_c, 4, 70, 86
6, 15220, Note_on_c, 4, 70, 0
6, 15240, Note_on_c, 4, 68, 86
6, 15340, Note_on_c, 4, 68, 0
6, 15360, Note_on_c, 4, 67, 86
6, 15460, Note_on_c, 4, 67, 0
6, 15480, Note_on_c, 4, 70, 86
6, 15580, Note_on_c, 4, 70, 0
6, 15600, Note_on_c, 4, 68, 86
6, 15700, Note_on_c, 4, 68, 0
6, 15720, Note_on_c, 4, 67, 86
6, 15820, Note_on_c, 4, 67, 0
6, 15840, Note_on_c, 4, 68, 86
6, 15940, Note_on_c, 4, 68, 0
6, 15960, Note_on_c, 4, 70, 86
6, 16060, Note_on_c, 4, 70, 0
6, 16080, Note_on_c, 4, 72, 86
6, 16180, Note_on_c, 4, 72, 0
6, 16200, Note_on_c, 4, 74, 86
6, 16300, Note_on_c, 4, 74, 0
6, 16320, Note_on_c, 4, 75, 86
6, 16420, Note_on_c, 4, 75, 0
6, 16440, Note_on_c, 4, 77, 86
6, 16540, Note_on_c, 4, 77, 0
6, 16560, Note_on_c, 4, 79, 86
6, 16660, Note_on_c, 4, 79, 0
6, 16680, Note_on_c, 4, 80, 86
6, 16780, Note_on_c, 4, 80, 0
6, 16800, Note_on_c, 4, 82, 86
6, 17000, Note_on_c, 4, 82, 0
6, 17040, Note_on_c, 4, 82, 86
6, 17240, Note_on_c, 4, 82, 0
6, 17280, Note_on_c, 4, 82, 86
6, 17400, Note_on_c, 4, 82, 0
6, 17400, Note_on_c, 4, 80, 86
6, 17520, Note_on_c, 4, 80, 0
6, 17520, Note_on_c, 4, 79, 86
6, 17640, Note_on_c, 4, 79, 0
6, 17640, Note_on_c, 4, 80, 86
6, 17760, Note_on_c, 4, 80, 0
6, 17760, Note_on_c, 4, 80, 86
6, 17860, Note_on_c, 4, 80, 0
6, 17880, Note_on_c, 4, 79, 86
6, 18000, Note_on_c, 4, 79, 0
6, 18000, Note_on_c, 4, 78, 86
6, 18120, Note_on_c, 4, 78, 0
6, 18120, Note_on_c, 4, 79, 86
6, 18240, Note_on_c, 4, 79, 0
6, 18240, Note_on_c, 4, 79, 86
6, 18340, Note_on_c, 4, 79, 0
6, 18360, Note_on_c, 4, 77, 86
6, 18480, Note_on_c, 4, 77, 0
6, 18480, Note_on_c, 4, 76, 86
6, 18600, Note_on_c, 4, 76, 0
6, 18600, Note_on_c, 4, 77, 86
6, 18720, Note_on_c, 4, 77, 0
6, 18720, Note_on_c, 4, 77, 86
6, 18840, Note_on_c, 4, 77, 0
6, 18840, Note_on_c, 4, 75, 86
6, 18960, Note_on_c, 4, 75, 0
6, 18960, Note_on_c, 4, 74, 86
6, 19080, Note_on_c, 4, 74, 0
6, 19080, Note_on_c, 4, 75, 86
6, 19200, Note_on_c, 4, 75, 0
6, 19200, Note_on_c, 4, 74, 86
6, 19600, Note_on_c, 4, 74, 0
6, 19920, Note_on_c, 4, 77, 86
6, 19920, Note_on_c, 4, 70, 86
6, 19920, Note_on_c, 4, 62, 86
6, 20120, Note_on_c, 4, 77, 0
6, 20120, Note_on_c, 4, 70, 0
6, 20120, Note_on_c, 4, 62, 0
6, 20160, Note_on_c, 4, 79, 86
6, 20160, Note_on_c, 4, 70, 86
6, 20160, Note_on_c, 4, 63, 86
6, 20560, Note_on_c, 4, 79, 0
6, 20560, Note_on_c, 4, 70, 0
6, 20560, Note_on_c, 4, 63, 0
6, 20880, Note_on_c, 4, 79, 86
6, 20880, Note_on_c, 4, 70, 86
6, 20880, Note_on_c, 4, 63, 86
6, 21080, Note_on_c, 4, 79, 0
6, 21080, Note_on_c, 4, 70, 0
6, 21080, Note_on_c, 4, 63, 0
6, 21120, Note_on_c, 4, 77, 86
6, 21120, Note_on_c, 4, 70, 86
6, 21120, Note_on_c, 4, 62, 86
6, 21520, Note_on_c, 4, 77, 0
6, 21520, Note_on_c, 4, 70, 0
6, 21520, Note_on_c, 4, 62, 0
6, 21840, Note_on_c, 4, 77, 86
6, 21840, Note_on_c, 4, 70, 86
6, 21840, Note_on_c, 4, 62, 86
6, 22040, Note_on_c, 4, 77, 0
6, 22040, Note_on_c, 4, 70, 0
6, 22040, Note_on_c, 4, 62, 0
6, 22080, Note_on_c, 4, 79, 86
6, 22080, Note_on_c, 4, 70, 86
6, 22080, Note_on_c, 4, 63, 86
6, 22480, Note_on_c, 4, 79, 0
6, 22480, Note_on_c, 4, 70, 0
6, 22480, Note_on_c, 4, 63, 0
6, 22800, Note_on_c, 4, 79, 86
6, 22800, Note_on_c, 4, 70, 86
6, 22800, Note_on_c, 4, 63, 86
6, 23000, Note_on_c, 4, 79, 0
6, 23000, Note_on_c, 4, 70, 0
6, 23000, Note_on_c, 4, 63, 0
6, 23040, Note_on_c, 4, 77, 86
6, 23040, Note_on_c, 4, 70, 86
6, 23040, Note_on_c, 4, 62, 86
6, 23240, Note_on_c, 4, 77, 0
6, 23240, Note_on_c, 4, 70, 0
6, 23240, Note_on_c, 4, 62, 0
6, 23280, Note_on_c, 4, 82, 86
6, 23480, Note_on_c, 4, 82, 0
6, 23520, Note_on_c, 4, 58, 86
6, 23720, Note_on_c, 4, 58, 0
6, 23760, Note_on_c, 4, 58, 86
6, 23960, Note_on_c, 4, 58, 0
6, 24000, Note_on_c, 4, 58, 86
6, 24400, Note_on_c, 4, 58, 0
6, 24960, Note_on_c, 4, 58, 64
6, 25160, Note_on_c, 4, 58, 0
6, 25200, Note_on_c, 4, 58, 64
6, 25640, Note_on_c, 4, 58, 0
6, 25680, Note_on_c, 4, 58, 64
6, 26120, Note_on_c, 4, 58, 0
6, 26160, Note_on_c, 4, 58, 64
6, 26600, Note_on_c, 4, 58, 0
6, 26640, Note_on_c, 4, 58, 64
6, 27120, Note_on_c, 4, 58, 0
6, 27120, Note_on_c, 4, 63, 64
6, 27360, Note_on_c, 4, 63, 0
6, 27360, Note_on_c, 4, 67, 64
6, 27600, Note_on_c, 4, 67, 0
6, 27600, Note_on_c, 4, 63, 64
6, 27840, Note_on_c, 4, 63, 0
6, 27840, Note_on_c, 4, 68, 64
6, 28080, Note_on_c, 4, 68, 0
6, 28080, Note_on_c, 4, 65, 64
6, 28320, Note_on_c, 4, 65, 0
6, 28320, Note_on_c, 4, 62, 64
6, 28560, Note_on_c, 4, 62, 0
6, 28560, Note_on_c, 4, 65, 64
6, 28760, Note_on_c, 4, 65, 0
6, 28800, Note_on_c, 4, 63, 64
6, 29000, Note_on_c, 4, 63, 0
6, 29040, Note_on_c, 4, 58, 64
6, 29480, Note_on_c, 4, 58, 0
6, 29520, Note_on_c, 4, 58, 64
6, 29960, Note_on_c, 4, 58, 0
6, 30000, Note_on_c, 4, 58, 64
6, 30440, Note_on_c, 4, 58, 0
6, 30480, Note_on_c, 4, 58, 64
6, 30960, Note_on_c, 4, 58, 0
6, 30960, Note_on_c, 4, 63, 64
6, 31200, Note_on_c, 4, 63, 0
6, 31200, Note_on_c, 4, 67, 64
6, 31440, Note_on_c, 4, 67, 0
6, 31440, Note_on_c, 4, 63, 64
6, 31680, Note_on_c, 4, 63, 0
6, 31680, Note_on_c, 4, 68, 64
6, 31920, Note_on_c, 4, 68, 0
6, 31920, Note_on_c, 4, 65, 64
6, 32160, Note_on_c, 4, 65, 0
6, 32160, Note_on_c, 4, 62, 64
6, 32400, Note_on_c, 4, 62, 0
6, 32400, Note_on_c, 4, 65, 64
6, 32640, Note_on_c, 4, 65, 0
6, 32640, Note_on_c, 4, 63, 64
6, 33040, Note_on_c, 4, 63, 0
6, 33240, Note_on_c, 4, 63, 64
6, 33360, Note_on_c, 4, 63, 0
6, 33360, Note_on_c, 4, 62, 64
6, 33480, Note_on_c, 4, 62, 0
6, 33480, Note_on_c, 4, 63, 64
6, 33600, Note_on_c, 4, 63, 0
6, 33600, Note_on_c, 4, 65, 64
6, 33720, Note_on_c, 4, 65, 0
6, 33720, Note_on_c, 4, 63, 64
6, 33840, Note_on_c, 4, 63, 0
6, 33840, Note_on_c, 4, 62, 64
6, 33960, Note_on_c, 4, 62, 0
6, 33960, Note_on_c, 4, 63, 64
6, 34080, Note_on_c, 4, 63, 0
6, 34080, Note_on_c, 4, 65, 64
6, 34200, Note_on_c, 4, 65, 0
6, 34200, Note_on_c, 4, 63, 64
6, 34320, Note_on_c, 4, 63, 0
6, 34320, Note_on_c, 4, 62, 64
6, 34440, Note_on_c, 4, 62, 0
6, 34440, Note_on_c, 4, 63, 64
6, 34560, Note_on_c, 4, 63, 0
6, 34560, Note_on_c, 4, 65, 64
6, 34760, Note_on_c, 4, 65, 0
6, 34800, Note_on_c, 4, 65, 64
6, 35000, Note_on_c, 4, 65, 0
6, 35160, Note_on_c, 4, 65, 64
6, 35280, Note_on_c, 4, 65, 0
6, 35280, Note_on_c, 4, 64, 64
6, 35400, Note_on_c, 4, 64, 0
6, 35400, Note_on_c, 4, 65, 64
6, 35520, Note_on_c, 4, 65, 0
6, 35520, Note_on_c, 4, 67, 64
6, 35640, Note_on_c, 4, 67, 0
6, 35640, Note_on_c, 4, 65, 64
6, 35760, Note_on_c, 4, 65, 0
6, 35760, Note_on_c, 4, 64, 64
6, 35880, Note_on_c, 4, 64, 0
6, 35880, Note_on_c, 4, 65, 64
6, 36000, Note_on_c, 4, 65, 0
6, 36000, Note_on_c, 4, 67, 64
6, 36120, Note_on_c, 4, 67, 0
6, 36120, Note_on_c, 4, 65, 64
6, 36240, Note_on_c, 4, 65, 0
6, 36240, Note_on_c, 4, 64, 64
6, 36360, Note_on_c, 4, 64, 0
6, 36360, Note_on_c, 4, 65, 64
6, 36480, Note_on_c, 4, 65, 0
6, 36480, Note_on_c, 4, 67, 64
6, 36680, Note_on_c, 4, 67, 0
6, 36720, Note_on_c, 4, 67, 64
6, 36920, Note_on_c, 4, 67, 0
6, 37080, Note_on_c, 4, 67, 64
6, 37200, Note_on_c, 4, 67, 0
6, 37200, Note_on_c, 4, 66, 64
6, 37320, Note_on_c, 4, 66, 0
6, 37320, Note_on_c, 4, 67, 64
6, 37440, Note_on_c, 4, 67, 0
6, 37440, Note_on_c, 4, 68, 64
6, 37560, Note_on_c, 4, 68, 0
6, 37560, Note_on_c, 4, 67, 64
6, 37680, Note_on_c, 4, 67, 0
6, 37680, Note_on_c, 4, 66, 64
6, 37800, Note_on_c, 4, 66, 0
6, 37800, Note_on_c, 4, 67, 64
6, 37920, Note_on_c, 4, 67, 0
6, 37920, Note_on_c, 4, 68, 64
6, 38040, Note_on_c, 4, 68, 0
6, 38040, Note_on_c, 4, 67, 64
6, 38160, Note_on_c, 4, 67, 0
6, 38160, Note_on_c, 4, 66, 64
6, 38280, Note_on_c, 4, 66, 0
6, 38280, Note_on_c, 4, 67, 64
6, 38400, Note_on_c, 4, 67, 0
6, 38400, Note_on_c, 4, 68, 64
6, 38500, Note_on_c, 4, 68, 0
6, 38520, Note_on_c, 4, 68, 64
6, 38640, Note_on_c, 4, 68, 0
6, 38640, Note_on_c, 4, 67, 64
6, 38760, Note_on_c, 4, 67, 0
6, 38760, Control_c, 4, 11, 94
6, 38760, Note_on_c, 4, 68, 86
6, 38880, Note_on_c, 4, 68, 0
6, 38880, Control_c, 4, 11, 94
6, 38880, Note_on_c, 4, 70, 86
6, 39000, Note_on_c, 4, 70, 0
6, 39000, Control_c, 4, 11, 94
6, 39000, Note_on_c, 4, 68, 86
6, 39120, Note_on_c, 4, 68, 0
6, 39120, Control_c, 4, 11, 95
6, 39120, Note_on_c, 4, 67, 86
6, 39240, Note_on_c, 4, 67, 0
6, 39240, Control_c, 4, 11, 95
6, 39240, Note_on_c, 4, 68, 86
6, 39360, Note_on_c, 4, 68, 0
6, 39360, Control_c, 4, 11, 97
6, 39360, Note_on_c, 4, 65, 86
6, 39460, Note_on_c, 4, 65, 0
6, 39480, Control_c, 4, 11, 97
6, 39480, Note_on_c, 4, 65, 86
6, 39600, Note_on_c, 4, 65, 0
6, 39600, Control_c, 4, 11, 98
6, 39600, Note_on_c, 4, 63, 86
6, 39720, Note_on_c, 4, 63, 0
6, 39720, Control_c, 4, 11, 98
6, 39720, Note_on_c, 4, 65, 86
6, 39840, Note_on_c, 4, 65, 0
6, 39840, Control_c, 4, 11, 100
6, 39840, Note_on_c, 4, 67, 86
6, 39960, Note_on_c, 4, 67, 0
6, 39960, Control_c, 4, 11, 100
6, 39960, Note_on_c, 4, 65, 86
6, 40080, Note_on_c, 4, 65, 0
6, 40080, Control_c, 4, 11, 101
6, 40080, Note_on_c, 4, 63, 86
6, 40200, Note_on_c, 4, 63, 0
6, 40200, Control_c, 4, 11, 101
6, 40200, Note_on_c, 4, 65, 86
6, 40320, Note_on_c, 4, 65, 0
6, 40320, Note_on_c, 4, 68, 86
6, 40320, Control_c, 4, 11, 103
6, 40440, Note_on_c, 4, 68, 0
6, 40440, Note_on_c, 4, 67, 86
6, 40440, Control_c, 4, 11, 103
6, 40560, Note_on_c, 4, 67, 0
6, 40560, Note_on_c, 4, 65, 86
6, 40560, Control_c, 4, 11, 104
6, 40680, Note_on_c, 4, 65, 0
6, 40680, Note_on_c, 4, 67, 86
6, 40680, Control_c, 4, 11, 104
6, 40800, Note_on_c, 4, 67, 0
6, 40800, Note_on_c, 4, 63, 86
6, 40800, Control_c, 4, 11, 106
6, 40920, Note_on_c, 4, 63, 0
6, 40920, Note_on_c, 4, 62, 86
6, 40920, Control_c, 4, 11, 106
6, 41040, Note_on_c, 4, 62, 0
6, 41040, Note_on_c, 4, 60, 86
6, 41040, Control_c, 4, 11, 107
6, 41160, Note_on_c, 4, 60, 0
6, 41160, Note_on_c, 4, 62, 86
6, 41160, Control_c, 4, 11, 107
6, 41280, Note_on_c, 4, 62, 0
6, 41280, Note_on_c, 4, 65, 86
6, 41280, Control_c, 4, 11, 109
6, 41400, Note_on_c, 4, 65, 0
6, 41400, Note_on_c, 4, 63, 86
6, 41400, Control_c, 4, 11, 109
6, 41520, Note_on_c, 4, 63, 0
6, 41520, Note_on_c, 4, 62, 86
6, 41520, Control_c, 4, 11, 110
6, 41640, Note_on_c, 4, 62, 0
6, 41640, Note_on_c, 4, 63, 86
6, 41640, Control_c, 4, 11, 110
6, 41760, Note_on_c, 4, 63, 0
6, 41760, Note_on_c, 4, 67, 86
6, 41760, Control_c, 4, 11, 112
6, 41880, Note_on_c, 4, 67, 0
6, 41880, Note_on_c, 4, 65, 86
6, 41880, Control_c, 4, 11, 112
6, 42000, Note_on_c, 4, 65, 0
6, 42000, Note_on_c, 4, 63, 86
6, 42000, Control_c, 4, 11, 113
6, 42120, Note_on_c, 4, 63, 0
6, 42120, Note_on_c, 4, 65, 86
6, 42120, Control_c, 4, 11, 113
6, 42220, Note_on_c, 4, 65, 0
6, 42240, Note_on_c, 4, 67, 86
6, 42240, Control_c, 4, 11, 115
6, 42340, Note_on_c, 4, 67, 0
6, 42360, Note_on_c, 4, 67, 86
6, 42360, Control_c, 4, 11, 115
6, 42460, Note_on_c, 4, 67, 0
6, 42480, Note_on_c, 4, 67, 86
6, 42480, Control_c, 4, 11, 116
6, 42580, Note_on_c, 4, 67, 0
6, 42600, Note_on_c, 4, 67, 86
6, 42600, Control_c, 4, 11, 116
6, 42700, Note_on_c, 4, 67, 0
6, 42720, Note_on_c, 4, 79, 86
6, 42720, Control_c, 4, 11, 118
6, 42820, Note_on_c, 4, 79, 0
6, 42840, Note_on_c, 4, 79, 86
6, 42840, Control_c, 4, 11, 118
6, 42940, Note_on_c, 4, 79, 0
6, 42960, Note_on_c, 4, 79, 86
6, 42960, Control_c, 4, 11, 119
6, 43060, Note_on_c, 4, 79, 0
6, 43080, Note_on_c, 4, 79, 86
6, 43080, Control_c, 4, 11, 119
6, 43180, Note_on_c, 4, 79, 0
6, 43200, Note_on_c, 4, 80, 86
6, 43200, Control_c, 4, 11, 121
6, 43300, Note_on_c, 4, 80, 0
6, 43320, Note_on_c, 4, 80, 86
6, 43320, Control_c, 4, 11, 121
6, 43420, Note_on_c, 4, 80, 0
6, 43440, Note_on_c, 4, 80, 86
6, 43440, Control_c, 4, 11, 122
6, 43540, Note_on_c, 4, 80, 0
6, 43560, Note_on_c, 4, 80, 86
6, 43560, Control_c, 4, 11, 122
6, 43660, Note_on_c, 4, 80, 0
6, 43680, Note_on_c, 4, 77, 86
6, 43680, Control_c, 4, 11, 124
6, 43780, Note_on_c, 4, 77, 0
6, 43800, Note_on_c, 4, 77, 86
6, 43800, Control_c, 4, 11, 124
6, 43900, Note_on_c, 4, 77, 0
6, 43920, Note_on_c, 4, 77, 86
6, 43920, Control_c, 4, 11, 125
6, 44020, Note_on_c, 4, 77, 0
6, 44040, Control_c, 4, 11, 127
6, 44040, Note_on_c, 4, 77, 86
6, 44140, Note_on_c, 4, 77, 0
6, 44160, Note_on_c, 4, 79, 86
6, 44260, Note_on_c, 4, 79, 0
6, 44280, Note_on_c, 4, 79, 86
6, 44380, Note_on_c, 4, 79, 0
6, 44400, Note_on_c, 4, 79, 86
6, 44500, Note_on_c, 4, 79, 0
6, 44520, Note_on_c, 4, 79, 86
6, 44620, Note_on_c, 4, 79, 0
6, 44640, Note_on_c, 4, 79, 86
6, 44740, Note_on_c, 4, 79, 0
6, 44760, Note_on_c, 4, 79, 86
6, 44860, Note_on_c, 4, 79, 0
6, 44880, Note_on_c, 4, 79, 86
6, 44980, Note_on_c, 4, 79, 0
6, 45000, Note_on_c, 4, 79, 86
6, 45100, Note_on_c, 4, 79, 0
6, 45120, Note_on_c, 4, 63, 86
6, 45120, Note_on_c, 4, 58, 86
6, 45220, Note_on_c, 4, 63, 0
6, 45220, Note_on_c, 4, 58, 0
6, 45240, Note_on_c, 4, 63, 86
6, 45240, Note_on_c, 4, 58, 86
6, 45340, Note_on_c, 4, 63, 0
6, 45340, Note_on_c, 4, 58, 0
6, 45360, Note_on_c, 4, 63, 86
6, 45360, Note_on_c, 4, 58, 86
6, 45460, Note_on_c, 4, 63, 0
6, 45460, Note_on_c, 4, 58, 0
6, 45480, Note_on_c, 4, 63, 86
6, 45480, Note_on_c, 4, 58, 86
6, 45580, Note_on_c, 4, 63, 0
6, 45580, Note_on_c, 4, 58, 0
6, 45600, Note_on_c, 4, 63, 86
6, 45600, Note_on_c, 4, 58, 86
6, 45700, Note_on_c, 4, 63, 0
6, 45700, Note_on_c, 4, 58, 0
6, 45720, Note_on_c, 4, 63, 86
6, 45720, Note_on_c, 4, 58, 86
6, 45820, Note_on_c, 4, 63, 0
6, 45820, Note_on_c, 4, 58, 0
6, 45840, Note_on_c, 4, 63, 86
6, 45840, Note_on_c, 4, 58, 86
6, 45940, Note_on_c, 4, 63, 0
6, 45940, Note_on_c, 4, 58, 0
6, 45960, Note_on_c, 4, 63, 86
6, 45960, Note_on_c, 4, 58, 86
6, 46060, Note_on_c, 4, 63, 0
6, 46060, Note_on_c, 4, 58, 0
6, 46080, Note_on_c, 4, 63, 86
6, 46080, Note_on_c, 4, 60, 86
6, 46180, Note_on_c, 4, 63, 0
6, 46180, Note_on_c, 4, 60, 0
6, 46200, Note_on_c, 4, 63, 86
6, 46200, Note_on_c, 4, 60, 86
6, 46300, Note_on_c, 4, 63, 0
6, 46300, Note_on_c, 4, 60, 0
6, 46320, Note_on_c, 4, 63, 86
6, 46320, Note_on_c, 4, 60, 86
6, 46420, Note_on_c, 4, 63, 0
6, 46420, Note_on_c, 4, 60, 0
6, 46440, Note_on_c, 4, 63, 86
6, 46440, Note_on_c, 4, 60, 86
6, 46540, Note_on_c, 4, 63, 0
6, 46540, Note_on_c, 4, 60, 0
6, 46560, Note_on_c, 4, 63, 86
6, 46560, Note_on_c, 4, 60, 86
6, 46660, Note_on_c, 4, 63, 0
6, 46660, Note_on_c, 4, 60, 0
6, 46680, Note_on_c, 4, 63, 86
6, 46680, Note_on_c, 4, 60, 86
6, 46780, Note_on_c, 4, 63, 0
6, 46780, Note_on_c, 4, 60, 0
6, 46800, Note_on_c, 4, 63, 86
6, 46800, Note_on_c, 4, 60, 86
6, 46900, Note_on_c, 4, 63, 0
6, 46900, Note_on_c, 4, 60, 0
6, 46920, Note_on_c, 4, 63, 86
6, 46920, Note_on_c, 4, 60, 86
6, 47020, Note_on_c, 4, 63, 0
6, 47020, Note_on_c, 4, 60, 0
6, 47040, Note_on_c, 4, 75, 86
6, 47040, Note_on_c, 4, 65, 86
6, 47140, Note_on_c, 4, 75, 0
6, 47140, Note_on_c, 4, 65, 0
6, 47160, Note_on_c, 4, 75, 86
6, 47160, Note_on_c, 4, 65, 86
6, 47260, Note_on_c, 4, 75, 0
6, 47260, Note_on_c, 4, 65, 0
6, 47280, Note_on_c, 4, 75, 86
6, 47280, Note_on_c, 4, 65, 86
6, 47380, Note_on_c, 4, 75, 0
6, 47380, Note_on_c, 4, 65, 0
6, 47400, Note_on_c, 4, 75, 86
6, 47400, Note_on_c, 4, 65, 86
6, 47500, Note_on_c, 4, 75, 0
6, 47500, Note_on_c, 4, 65, 0
6, 47520, Note_on_c, 4, 75, 86
6, 47520, Note_on_c, 4, 65, 86
6, 47620, Note_on_c, 4, 75, 0
6, 47620, Note_on_c, 4, 65, 0
6, 47640, Note_on_c, 4, 75, 86
6, 47640, Note_on_c, 4, 65, 86
6, 47740, Note_on_c, 4, 75, 0
6, 47740, Note_on_c, 4, 65, 0
6, 47760, Note_on_c, 4, 75, 86
6, 47760, Note_on_c, 4, 65, 86
6, 47860, Note_on_c, 4, 75, 0
6, 47860, Note_on_c, 4, 65, 0
6, 47880, Note_on_c, 4, 75, 86
6, 47880, Note_on_c, 4, 65, 86
6, 47980, Note_on_c, 4, 75, 0
6, 47980, Note_on_c, 4, 65, 0
6, 48000, Note_on_c, 4, 75, 86
6, 48000, Note_on_c, 4, 67, 86
6, 48100, Note_on_c, 4, 75, 0
6, 48100, Note_on_c, 4, 67, 0
6, 48120, Note_on_c, 4, 75, 86
6, 48120, Note_on_c, 4, 67, 86
6, 48220, Note_on_c, 4, 75, 0
6, 48220, Note_on_c, 4, 67, 0
6, 48240, Note_on_c, 4, 75, 86
6, 48240, Note_on_c, 4, 67, 86
6, 48340, Note_on_c, 4, 75, 0
6, 48340, Note_on_c, 4, 67, 0
6, 48360, Note_on_c, 4, 75, 86
6, 48360, Note_on_c, 4, 67, 86
6, 48460, Note_on_c, 4, 75, 0
6, 48460, Note_on_c, 4, 67, 0
6, 48480, Note_on_c, 4, 75, 86
6, 48480, Note_on_c, 4, 67, 86
6, 48580, Note_on_c, 4, 75, 0
6, 48580, Note_on_c, 4, 67, 0
6, 48600, Note_on_c, 4, 75, 86
6, 48600, Note_on_c, 4, 67, 86
6, 48700, Note_on_c, 4, 75, 0
6, 48700, Note_on_c, 4, 67, 0
6, 48720, Note_on_c, 4, 75, 86
6, 48720, Note_on_c, 4, 67, 86
6, 48820, Note_on_c, 4, 75, 0
6, 48820, Note_on_c, 4, 67, 0
6, 48840, Note_on_c, 4, 75, 86
6, 48840, Note_on_c, 4, 67, 86
6, 48940, Note_on_c, 4, 75, 0
6, 48940, Note_on_c, 4, 67, 0
6, 48960, Note_on_c, 4, 75, 86
6, 48960, Note_on_c, 4, 67, 86
6, 49060, Note_on_c, 4, 75, 0
6, 49060, Note_on_c, 4, 67, 0
6, 49080, Note_on_c, 4, 75, 86
6, 49080, Note_on_c, 4, 67, 86
6, 49180, Note_on_c, 4, 75, 0
6, 49180, Note_on_c, 4, 67, 0
6, 49200, Note_on_c, 4, 75, 86
6, 49200, Note_on_c, 4, 67, 86
6, 49300, Note_on_c, 4, 75, 0
6, 49300, Note_on_c, 4, 67, 0
6, 49320, Note_on_c, 4, 75, 86
6, 49320, Note_on_c, 4, 67, 86
6, 49420, Note_on_c, 4, 75, 0
6, 49420, Note_on_c, 4, 67, 0
6, 49440, Note_on_c, 4, 74, 86
6, 49440, Note_on_c, 4, 65, 86
6, 49540, Note_on_c, 4, 74, 0
6, 49540, Note_on_c, 4, 65, 0
6, 49560, Note_on_c, 4, 74, 86
6, 49560, Note_on_c, 4, 65, 86
6, 49660, Note_on_c, 4, 74, 0
6, 49660, Note_on_c, 4, 65, 0
6, 49680, Note_on_c, 4, 74, 86
6, 49680, Note_on_c, 4, 65, 86
6, 49780, Note_on_c, 4, 74, 0
6, 49780, Note_on_c, 4, 65, 0
6, 49800, Note_on_c, 4, 74, 86
6, 49800, Note_on_c, 4, 65, 86
6, 49900, Note_on_c, 4, 74, 0
6, 49900, Note_on_c, 4, 65, 0
6, 49920, Note_on_c, 4, 75, 86
6, 49920, Note_on_c, 4, 63, 86
6, 50020, Note_on_c, 4, 75, 0
6, 50020, Note_on_c, 4, 63, 0
6, 50040, Note_on_c, 4, 75, 86
6, 50040, Note_on_c, 4, 63, 86
6, 50140, Note_on_c, 4, 75, 0
6, 50140, Note_on_c, 4, 63, 0
6, 50160, Note_on_c, 4, 75, 86
6, 50160, Note_on_c, 4, 63, 86
6, 50260, Note_on_c, 4, 75, 0
6, 50260, Note_on_c, 4, 63, 0
6, 50280, Note_on_c, 4, 75, 86
6, 50280, Note_on_c, 4, 63, 86
6, 50380, Note_on_c, 4, 75, 0
6, 50380, Note_on_c, 4, 63, 0
6, 50400, Note_on_c, 4, 75, 86
6, 50400, Note_on_c, 4, 63, 86
6, 50500, Note_on_c, 4, 75, 0
6, 50500, Note_on_c, 4, 63, 0
6, 50520, Note_on_c, 4, 75, 86
6, 50520, Note_on_c, 4, 63, 86
6, 50620, Note_on_c, 4, 75, 0
6, 50620, Note_on_c, 4, 63, 0
6, 50640, Note_on_c, 4, 75, 86
6, 50640, Note_on_c, 4, 63, 86
6, 50740, Note_on_c, 4, 75, 0
6, 50740, Note_on_c, 4, 63, 0
6, 50760, Note_on_c, 4, 75, 86
6, 50760, Note_on_c, 4, 63, 86
6, 50860, Note_on_c, 4, 75, 0
6, 50860, Note_on_c, 4, 63, 0
6, 50880, Note_on_c, 4, 63, 86
6, 50880, Note_on_c, 4, 58, 86
6, 50980, Note_on_c, 4, 63, 0
6, 50980, Note_on_c, 4, 58, 0
6, 51000, Note_on_c, 4, 63, 86
6, 51000, Note_on_c, 4, 58, 86
6, 51100, Note_on_c, 4, 63, 0
6, 51100, Note_on_c, 4, 58, 0
6, 51120, Note_on_c, 4, 63, 86
6, 51120, Note_on_c, 4, 58, 86
6, 51220, Note_on_c, 4, 63, 0
6, 51220, Note_on_c, 4, 58, 0
6, 51240, Note_on_c, 4, 63, 86
6, 51240, Note_on_c, 4, 58, 86
6, 51340, Note_on_c, 4, 63, 0
6, 51340, Note_on_c, 4, 58, 0
6, 51360, Note_on_c, 4, 63, 86
6, 51360, Note_on_c, 4, 58, 86
6, 51460, Note_on_c, 4, 63, 0
6, 51460, Note_on_c, 4, 58, 0
6, 51480, Note_on_c, 4, 63, 86
6, 51480, Note_on_c, 4, 58, 86
6, 51580, Note_on_c, 4, 63, 0
6, 51580, Note_on_c, 4, 58, 0
6, 51600, Note_on_c, 4, 63, 86
6, 51600, Note_on_c, 4, 58, 86
6, 51700, Note_on_c, 4, 63, 0
6, 51700, Note_on_c, 4, 58, 0
6, 51720, Note_on_c, 4, 63, 86
6, 51720, Note_on_c, 4, 58, 86
6, 51820, Note_on_c, 4, 63, 0
6, 51820, Note_on_c, 4, 58, 0
6, 51840, Note_on_c, 4, 63, 86
6, 51840, Note_on_c, 4, 56, 86
6, 51940, Note_on_c, 4, 63, 0
6, 51940, Note_on_c, 4, 56, 0
6, 51960, Note_on_c, 4, 63, 86
6, 51960, Note_on_c, 4, 56, 86
6, 52060, Note_on_c, 4, 63, 0
6, 52060, Note_on_c, 4, 56, 0
6, 52080, Note_on_c, 4, 63, 86
6, 52080, Note_on_c, 4, 56, 86
6, 52180, Note_on_c, 4, 63, 0
6, 52180, Note_on_c, 4, 56, 0
6, 52200, Note_on_c, 4, 63, 86
6, 52200, Note_on_c, 4, 56, 86
6, 52300, Note_on_c, 4, 63, 0
6, 52300, Note_on_c, 4, 56, 0
6, 52320, Note_on_c, 4, 63, 86
6, 52320, Note_on_c, 4, 56, 86
6, 52420, Note_on_c, 4, 63, 0
6, 52420, Note_on_c, 4, 56, 0
6, 52440, Note_on_c, 4, 63, 86
6, 52440, Note_on_c, 4, 56, 86
6, 52540, Note_on_c, 4, 63, 0
6, 52540, Note_on_c, 4, 56, 0
6, 52560, Note_on_c, 4, 63, 86
6, 52560, Note_on_c, 4, 56, 86
6, 52660, Note_on_c, 4, 63, 0
6, 52660, Note_on_c, 4, 56, 0
6, 52680, Note_on_c, 4, 63, 86
6, 52680, Note_on_c, 4, 56, 86
6, 52780, Note_on_c, 4, 63, 0
6, 52780, Note_on_c, 4, 56, 0
6, 52800, Note_on_c, 4, 78, 86
6, 52800, Note_on_c, 4, 75, 86
6, 52900, Note_on_c, 4, 78, 0
6, 52900, Note_on_c, 4, 75, 0
6, 52920, Note_on_c, 4, 78, 86
6, 52920, Note_on_c, 4, 75, 86
6, 53020, Note_on_c, 4, 78, 0
6, 53020, Note_on_c, 4, 75, 0
6, 53040, Note_on_c, 4, 78, 86
6, 53040, Note_on_c, 4, 75, 86
6, 53140, Note_on_c, 4, 78, 0
6, 53140, Note_on_c, 4, 75, 0
6, 53160, Note_on_c, 4, 78, 86
6, 53160, Note_on_c, 4, 75, 86
6, 53260, Note_on_c, 4, 78, 0
6, 53260, Note_on_c, 4, 75, 0
6, 53280, Note_on_c, 4, 78, 86
6, 53280, Note_on_c, 4, 75, 86
6, 53380, Note_on_c, 4, 78, 0
6, 53380, Note_on_c, 4, 75, 0
6, 53400, Note_on_c, 4, 78, 86
6, 53400, Note_on_c, 4, 75, 86
6, 53500, Note_on_c, 4, 78, 0
6, 53500, Note_on_c, 4, 75, 0
6, 53520, Note_on_c, 4, 78, 86
6, 53520, Note_on_c, 4, 75, 86
6, 53620, Note_on_c, 4, 78, 0
6, 53620, Note_on_c, 4, 75, 0
6, 53640, Note_on_c, 4, 78, 86
6, 53640, Note_on_c, 4, 75, 86
6, 53740, Note_on_c, 4, 78, 0
6, 53740, Note_on_c, 4, 75, 0
6, 53760, Note_on_c, 4, 79, 86
6, 53760, Note_on_c, 4, 75, 86
6, 53960, Note_on_c, 4, 79, 0
6, 53960, Note_on_c, 4, 75, 0
6, 54000, Note_on_c, 4, 79, 86
6, 54000, Note_on_c, 4, 70, 86
6, 54000, Note_on_c, 4, 63, 86
6, 54200, Note_on_c, 4, 79, 0
6, 54200, Note_on_c, 4, 70, 0
6, 54200, Note_on_c, 4, 63, 0
6, 54240, Note_on_c, 4, 79, 86
6, 54240, Note_on_c, 4, 70, 86
6, 54240, Note_on_c, 4, 63, 86
6, 54640, Note_on_c, 4, 79, 0
6, 54640, Note_on_c, 4, 70, 0
6, 54640, Note_on_c, 4, 63, 0
6, 54960, Note_on_c, 4, 79, 86
6, 54960, Note_on_c, 4, 70, 86
6, 54960, Note_on_c, 4, 63, 86
6, 55160, Note_on_c, 4, 79, 0
6, 55160, Note_on_c, 4, 70, 0
6, 55160, Note_on_c, 4, 63, 0
6, 55200, Note_on_c, 4, 79, 86
6, 55200, Note_on_c, 4, 70, 86
6, 55200, Note_on_c, 4, 63, 86
6, 55600, Note_on_c, 4, 79, 0
6, 55600, Note_on_c, 4, 70, 0
6, 55600, Note_on_c, 4, 63, 0
6, 55920, Note_on_c, 4, 79, 86
6, 55920, Note_on_c, 4, 70, 86
6, 55920, Note_on_c, 4, 63, 86
6, 56120, Note_on_c, 4, 79, 0
6, 56120, Note_on_c, 4, 70, 0
6, 56120, Note_on_c, 4, 63, 0
6, 56160, Note_on_c, 4, 79, 86
6, 56160, Note_on_c, 4, 70, 86
6, 56160, Note_on_c, 4, 63, 86
6, 56360, Note_on_c, 4, 79, 0
6, 56360, Note_on_c, 4, 70, 0
6, 56360, Note_on_c, 4, 63, 0
6, 56640, Note_on_c, 4, 79, 86
6, 56640, Note_on_c, 4, 70, 86
6, 56640, Note_on_c, 4, 63, 86
6, 56840, Note_on_c, 4, 79, 0
6, 56840, Note_on_c, 4, 70, 0
6, 56840, Note_on_c, 4, 63, 0
6, 57120, Note_on_c, 4, 79, 86
6, 57120, Note_on_c, 4, 70, 86
6, 57120, Note_on_c, 4, 63, 86
6, 57320, Note_on_c, 4, 79, 0
6, 57320, Note_on_c, 4, 70, 0
6, 57320, Note_on_c, 4, 63, 0
6, 57600, Note_on_c, 4, 79, 86
6, 57600, Note_on_c, 4, 70, 86
6, 57600, Note_on_c, 4, 63, 86
6, 57800, Note_on_c, 4, 79, 0
6, 57800, Note_on_c, 4, 70, 0
6, 57800, Note_on_c, 4, 63, 0
6, 57840, Note_on_c, 4, 82, 86
6, 58040, Note_on_c, 4, 82, 0
6, 58080, Note_on_c, 4, 87, 86
6, 58280, Note_on_c, 4, 87, 0
6, 58320, Note_on_c, 4, 79, 86
6, 58520, Note_on_c, 4, 79, 0
6, 58560, Note_on_c, 4, 82, 86
6, 58760, Note_on_c, 4, 82, 0
6, 58800, Note_on_c, 4, 75, 86
6, 59000, Note_on_c, 4, 75, 0
6, 59040, Note_on_c, 4, 79, 86
6, 59240, Note_on_c, 4, 79, 0
6, 59280, Note_on_c, 4, 70, 86
6, 59480, Note_on_c, 4, 70, 0
6, 59520, Note_on_c, 4, 82, 86
6, 59720, Note_on_c, 4, 82, 0
6, 59760, Note_on_c, 4, 79, 86
6, 59860, Note_on_c, 4, 79, 0
6, 59880, Note_on_c, 4, 75, 86
6, 59980, Note_on_c, 4, 75, 0
6, 60000, Note_on_c, 4, 70, 86
6, 60200, Note_on_c, 4, 70, 0
6, 60240, Note_on_c, 4, 67, 86
6, 60340, Note_on_c, 4, 67, 0
6, 60360, Note_on_c, 4, 63, 86
6, 60460, Note_on_c, 4, 63, 0
6, 60480, Note_on_c, 4, 58, 86
6, 60880, Note_on_c, 4, 58, 0
6, 60960, Note_on_c, 4, 74, 86
6, 60960, Note_on_c, 4, 65, 86
6, 60960, Note_on_c, 4, 58, 86
6, 61360, Note_on_c, 4, 74, 0
6, 61360, Note_on_c, 4, 65, 0
6, 61360, Note_on_c, 4, 58, 0
6, 61440, Note_on_c, 4, 75, 86
6, 61440, Note_on_c, 4, 67, 86
6, 61440, Note_on_c, 4, 58, 86
6, 61840, Note_on_c, 4, 75, 0
6, 61840, Note_on_c, 4, 67, 0
6, 61840, Note_on_c, 4, 58, 0
6, 62400, Note_on_c, 4, 61, 64
6, 63210, Note_on_c, 4, 61, 0
6, 63360, Note_on_c, 4, 60, 64
6, 64320, Note_on_c, 4, 60, 0
6, 64320, Note_on_c, 4, 56, 64
6, 65130, Note_on_c, 4, 56, 0
6, 65280, Note_on_c, 4, 55, 64
6, 66240, Note_on_c, 4, 55, 0
6, 66240, Note_on_c, 4, 61, 64
6, 67200, Note_on_c, 4, 61, 0
6, 67200, Note_on_c, 4, 60, 64
6, 68010, Note_on_c, 4, 60, 0
6, 68160, Note_on_c, 4, 56, 64
6, 68400, Note_on_c, 4, 56, 0
6, 68400, Note_on_c, 4, 55, 64
6, 68640, Note_on_c, 4, 55, 0
6, 68640, Note_on_c, 4, 56, 64
6, 68880, Note_on_c, 4, 56, 0
6, 68880, Note_on_c, 4, 58, 64
6, 69120, Note_on_c, 4, 58, 0
6, 69120, Note_on_c, 4, 55, 114
6, 69240, Note_on_c, 4, 55, 0
6, 69240, Note_on_c, 4, 56, 64
6, 69360, Note_on_c, 4, 56, 0
6, 69360, Note_on_c, 4, 55, 64
6, 69480, Note_on_c, 4, 55, 0
6, 69480, Note_on_c, 4, 56, 64
6, 69600, Note_on_c, 4, 56, 0
6, 69600, Note_on_c, 4, 55, 64
6, 69840, Note_on_c, 4, 55, 0
6, 70080, Note_on_c, 4, 58, 64
6, 70200, Note_on_c, 4, 58, 0
6, 70200, Note_on_c, 4, 57, 64
6, 70320, Note_on_c, 4, 57, 0
6, 70320, Note_on_c, 4, 58, 64
6, 70440, Note_on_c, 4, 58, 0
6, 70440, Note_on_c, 4, 57, 64
6, 70560, Note_on_c, 4, 57, 0
6, 70560, Note_on_c, 4, 58, 64
6, 70800, Note_on_c, 4, 58, 0
6, 71040, Note_on_c, 4, 56, 64
6, 71160, Note_on_c, 4, 56, 0
6, 71160, Note_on_c, 4, 55, 64
6, 71280, Note_on_c, 4, 55, 0
6, 71280, Note_on_c, 4, 56, 64
6, 71400, Note_on_c, 4, 56, 0
6, 71400, Note_on_c, 4, 55, 64
6, 71520, Note_on_c, 4, 55, 0
6, 71520, Note_on_c, 4, 56, 64
6, 71760, Note_on_c, 4, 56, 0
6, 72000, Note_on_c, 4, 56, 64
6, 72120, Note_on_c, 4, 56, 0
6, 72120, Note_on_c, 4, 55, 64
6, 72240, Note_on_c, 4, 55, 0
6, 72240, Note_on_c, 4, 56, 64
6, 72360, Note_on_c, 4, 56, 0
6, 72360, Note_on_c, 4, 55, 64
6, 72480, Note_on_c, 4, 55, 0
6, 72480, Note_on_c, 4, 56, 64
6, 72600, Note_on_c, 4, 56, 0
6, 72600, Note_on_c, 4, 60, 64
6, 72720, Note_on_c, 4, 60, 0
6, 72720, Note_on_c, 4, 58, 64
6, 72840, Note_on_c, 4, 58, 0
6, 72840, Note_on_c, 4, 56, 64
6, 72960, Note_on_c, 4, 56, 0
6, 72960, Note_on_c, 4, 55, 64
6, 73080, Note_on_c, 4, 55, 0
6, 73080, Note_on_c, 4, 56, 64
6, 73200, Note_on_c, 4, 56, 0
6, 73200, Note_on_c, 4, 55, 64
6, 73320, Note_on_c, 4, 55, 0
6, 73320, Note_on_c, 4, 56, 64
6, 73440, Note_on_c, 4, 56, 0
6, 73440, Note_on_c, 4, 55, 64
6, 73680, Note_on_c, 4, 55, 0
6, 73920, Note_on_c, 4, 70, 64
6, 74040, Note_on_c, 4, 70, 0
6, 74040, Note_on_c, 4, 69, 64
6, 74160, Note_on_c, 4, 69, 0
6, 74160, Note_on_c, 4, 70, 64
6, 74280, Note_on_c, 4, 70, 0
6, 74280, Note_on_c, 4, 69, 64
6, 74400, Note_on_c, 4, 69, 0
6, 74400, Note_on_c, 4, 70, 64
6, 74640, Note_on_c, 4, 70, 0
6, 74880, Note_on_c, 4, 68, 64
6, 75000, Note_on_c, 4, 68, 0
6, 75000, Note_on_c, 4, 67, 64
6, 75120, Note_on_c, 4, 67, 0
6, 75120, Note_on_c, 4, 68, 64
6, 75240, Note_on_c, 4, 68, 0
6, 75240, Note_on_c, 4, 67, 64
6, 75360, Note_on_c, 4, 67, 0
6, 75360, Note_on_c, 4, 68, 64
6, 75600, Note_on_c, 4, 68, 0
6, 75840, Note_on_c, 4, 56, 64
6, 76080, Note_on_c, 4, 56, 0
6, 76080, Note_on_c, 4, 55, 64
6, 76320, Note_on_c, 4, 55, 0
6, 76320, Note_on_c, 4, 56, 64
6, 76560, Note_on_c, 4, 56, 0
6, 76560, Note_on_c, 4, 58, 64
6, 76800, Note_on_c, 4, 58, 0
6, 76800, Note_on_c, 4, 55, 86
6, 76900, Note_on_c, 4, 55, 0
6, 76920, Note_on_c, 4, 58, 86
6, 77020, Note_on_c, 4, 58, 0
6, 77040, Note_on_c, 4, 63, 86
6, 77140, Note_on_c, 4, 63, 0
6, 77160, Note_on_c, 4, 67, 86
6, 77260, Note_on_c, 4, 67, 0
6, 77280, Note_on_c, 4, 70, 86
6, 77380, Note_on_c, 4, 70, 0
6, 77400, Note_on_c, 4, 70, 86
6, 77500, Note_on_c, 4, 70, 0
6, 77520, Note_on_c, 4, 74, 86
6, 77620, Note_on_c, 4, 74, 0
6, 77640, Note_on_c, 4, 77, 86
6, 77740, Note_on_c, 4, 77, 0
6, 77760, Note_on_c, 4, 75, 86
6, 77860, Note_on_c, 4, 75, 0
6, 77880, Note_on_c, 4, 70, 86
6, 77980, Note_on_c, 4, 70, 0
6, 78000, Note_on_c, 4, 75, 86
6, 78100, Note_on_c, 4, 75, 0
6, 78120, Note_on_c, 4, 70, 86
6, 78220, Note_on_c, 4, 70, 0
6, 78240, Note_on_c, 4, 74, 86
6, 78340, Note_on_c, 4, 74, 0
6, 78360, Note_on_c, 4, 77, 86
6, 78460, Note_on_c, 4, 77, 0
6, 78480, Note_on_c, 4, 74, 86
6, 78580, Note_on_c, 4, 74, 0
6, 78600, Note_on_c, 4, 77, 86
6, 78700, Note_on_c, 4, 77, 0
6, 78720, Note_on_c, 4, 75, 86
6, 78820, Note_on_c, 4, 75, 0
6, 78840, Note_on_c, 4, 82, 86
6, 78940, Note_on_c, 4, 82, 0
6, 78960, Note_on_c, 4, 79, 86
6, 79060, Note_on_c, 4, 79, 0
6, 79080, Note_on_c, 4, 75, 86
6, 79180, Note_on_c, 4, 75, 0
6, 79200, Note_on_c, 4, 70, 86
6, 79300, Note_on_c, 4, 70, 0
6, 79320, Note_on_c, 4, 70, 86
6, 79420, Note_on_c, 4, 70, 0
6, 79440, Note_on_c, 4, 74, 86
6, 79540, Note_on_c, 4, 74, 0
6, 79560, Note_on_c, 4, 70, 86
6, 79660, Note_on_c, 4, 70, 0
6, 79680, Note_on_c, 4, 75, 86
6, 79780, Note_on_c, 4, 75, 0
6, 79800, Note_on_c, 4, 70, 86
6, 79900, Note_on_c, 4, 70, 0
6, 79920, Note_on_c, 4, 75, 86
6, 80020, Note_on_c, 4, 75, 0
6, 80040, Note_on_c, 4, 70, 86
6, 80140, Note_on_c, 4, 70, 0
6, 80160, Note_on_c, 4, 74, 86
6, 80260, Note_on_c, 4, 74, 0
6, 80280, Note_on_c, 4, 70, 86
6, 80380, Note_on_c, 4, 70, 0
6, 80400, Note_on_c, 4, 74, 86
6, 80500, Note_on_c, 4, 74, 0
6, 80520, Note_on_c, 4, 70, 86
6, 80620, Note_on_c, 4, 70, 0
6, 80640, Note_on_c, 4, 75, 86
6, 80640, Note_on_c, 4, 67, 86
6, 81040, Note_on_c, 4, 75, 0
6, 81040, Note_on_c, 4, 67, 0
6, 81120, Note_on_c, 4, 79, 86
6, 81120, Note_on_c, 4, 70, 86
6, 81120, Note_on_c, 4, 63, 86
6, 81520, Note_on_c, 4, 79, 0
6, 81520, Note_on_c, 4, 70, 0
6, 81520, Note_on_c, 4, 63, 0
6, 81600, Note_on_c, 4, 63, 86
6, 81600, Note_on_c, 4, 55, 86
6, 82000, Note_on_c, 4, 63, 0
6, 82000, Note_on_c, 4, 55, 0
6, 82800, Note_on_c, 4, 55, 64
6, 83000, Note_on_c, 4, 55, 0
6, 83040, Note_on_c, 4, 55, 64
6, 83240, Note_on_c, 4, 55, 0
6, 83280, Note_on_c, 4, 55, 64
6, 83480, Note_on_c, 4, 55, 0
6, 83520, Note_on_c, 4, 55, 64
6, 83720, Note_on_c, 4, 55, 0
6, 83760, Note_on_c, 4, 55, 64
6, 83960, Note_on_c, 4, 55, 0
6, 84000, Note_on_c, 4, 55, 64
6, 84200, Note_on_c, 4, 55, 0
6, 84240, Note_on_c, 4, 55, 64
6, 84440, Note_on_c, 4, 55, 0
6, 84720, Note_on_c, 4, 55, 64
6, 84920, Note_on_c, 4, 55, 0
6, 84960, Note_on_c, 4, 55, 64
6, 85160, Note_on_c, 4, 55, 0
6, 85200, Note_on_c, 4, 55, 64
6, 85400, Note_on_c, 4, 55, 0
6, 85440, Note_on_c, 4, 55, 64
6, 85640, Note_on_c, 4, 55, 0
6, 85680, Note_on_c, 4, 55, 64
6, 85880, Note_on_c, 4, 55, 0
6, 85920, Note_on_c, 4, 55, 64
6, 86120, Note_on_c, 4, 55, 0
6, 86160, Note_on_c, 4, 55, 64
6, 86360, Note_on_c, 4, 55, 0
6, 86640, Note_on_c, 4, 55, 64
6, 86840, Note_on_c, 4, 55, 0
6, 86880, Note_on_c, 4, 55, 64
6, 87080, Note_on_c, 4, 55, 0
6, 87120, Note_on_c, 4, 55, 64
6, 87320, Note_on_c, 4, 55, 0
6, 87360, Note_on_c, 4, 55, 64
6, 87560, Note_on_c, 4, 55, 0
6, 87600, Note_on_c, 4, 55, 64
6, 87800, Note_on_c, 4, 55, 0
6, 87840, Note_on_c, 4, 55, 64
6, 88040, Note_on_c, 4, 55, 0
6, 88080, Note_on_c, 4, 55, 64
6, 88280, Note_on_c, 4, 55, 0
6, 88320, Note_on_c, 4, 56, 64
6, 88520, Note_on_c, 4, 56, 0
6, 88560, Note_on_c, 4, 56, 64
6, 88760, Note_on_c, 4, 56, 0
6, 88800, Note_on_c, 4, 56, 64
6, 89000, Note_on_c, 4, 56, 0
6, 89040, Note_on_c, 4, 56, 64
6, 89240, Note_on_c, 4, 56, 0
6, 89280, Note_on_c, 4, 55, 64
6, 89480, Note_on_c, 4, 55, 0
6, 89520, Note_on_c, 4, 55, 64
6, 89760, Note_on_c, 4, 55, 0
6, 89760, Note_on_c, 4, 56, 64
6, 90000, Note_on_c, 4, 56, 0
6, 90000, Note_on_c, 4, 58, 64
6, 90240, Note_on_c, 4, 58, 0
6, 90240, Note_on_c, 4, 60, 64
6, 90440, Note_on_c, 4, 60, 0
6, 90480, Note_on_c, 4, 60, 64
6, 90680, Note_on_c, 4, 60, 0
6, 90720, Note_on_c, 4, 60, 64
6, 90920, Note_on_c, 4, 60, 0
6, 90960, Note_on_c, 4, 60, 64
6, 91160, Note_on_c, 4, 60, 0
6, 91200, Note_on_c, 4, 60, 64
6, 91400, Note_on_c, 4, 60, 0
6, 91440, Note_on_c, 4, 60, 64
6, 91640, Note_on_c, 4, 60, 0
6, 91680, Note_on_c, 4, 60, 64
6, 91880, Note_on_c, 4, 60, 0
6, 91920, Note_on_c, 4, 60, 64
6, 92120, Note_on_c, 4, 60, 0
6, 92400, Note_on_c, 4, 58, 64
6, 92600, Note_on_c, 4, 58, 0
6, 92640, Note_on_c, 4, 58, 64
6, 92840, Note_on_c, 4, 58, 0
6, 92880, Note_on_c, 4, 58, 64
6, 93080, Note_on_c, 4, 58, 0
6, 93120, Note_on_c, 4, 58, 64
6, 93320, Note_on_c, 4, 58, 0
6, 93360, Note_on_c, 4, 58, 64
6, 93560, Note_on_c, 4, 58, 0
6, 93600, Note_on_c, 4, 58, 64
6, 93800, Note_on_c, 4, 58, 0
6, 93840, Note_on_c, 4, 58, 64
6, 94040, Note_on_c, 4, 58, 0
6, 94080, Note_on_c, 4, 58, 64
6, 94280, Note_on_c, 4, 58, 0
6, 94320, Note_on_c, 4, 58, 64
6, 94520, Note_on_c, 4, 58, 0
6, 94560, Note_on_c, 4, 58, 64
6, 94760, Note_on_c, 4, 58, 0
6, 94800, Note_on_c, 4, 58, 64
6, 95000, Note_on_c, 4, 58, 0
6, 95040, Note_on_c, 4, 58, 64
6, 95240, Note_on_c, 4, 58, 0
6, 95280, Note_on_c, 4, 58, 64
6, 95480, Note_on_c, 4, 58, 0
6, 95520, Note_on_c, 4, 62, 64
6, 95720, Note_on_c, 4, 62, 0
6, 95760, Note_on_c, 4, 62, 64
6, 95960, Note_on_c, 4, 62, 0
6, 96000, Note_on_c, 4, 56, 64
6, 96200, Note_on_c, 4, 56, 0
6, 96240, Note_on_c, 4, 56, 64
6, 96440, Note_on_c, 4, 56, 0
6, 96480, Note_on_c, 4, 55, 64
6, 96680, Note_on_c, 4, 55, 0
6, 96720, Note_on_c, 4, 55, 64
6, 96920, Note_on_c, 4, 55, 0
6, 96960, Note_on_c, 4, 56, 64
6, 97160, Note_on_c, 4, 56, 0
6, 97200, Note_on_c, 4, 56, 64
6, 97400, Note_on_c, 4, 56, 0
6, 97440, Note_on_c, 4, 58, 64
6, 97640, Note_on_c, 4, 58, 0
6, 97680, Note_on_c, 4, 58, 64
6, 97880, Note_on_c, 4, 58, 0
6, 97920, Note_on_c, 4, 60, 64
6, 98120, Note_on_c, 4, 60, 0
6, 98160, Note_on_c, 4, 60, 64
6, 98360, Note_on_c, 4, 60, 0
6, 98400, Note_on_c, 4, 60, 64
6, 98600, Note_on_c, 4, 60, 0
6, 98640, Note_on_c, 4, 60, 64
6, 98840, Note_on_c, 4, 60, 0
6, 98880, Note_on_c, 4, 60, 64
6, 99080, Note_on_c, 4, 60, 0
6, 99120, Note_on_c, 4, 60, 64
6, 99320, Note_on_c, 4, 60, 0
6, 99360, Note_on_c, 4, 60, 64
6, 99560, Note_on_c, 4, 60, 0
6, 99600, Note_on_c, 4, 60, 64
6, 99800, Note_on_c, 4, 60, 0
6, 99840, Note_on_c, 4, 58, 64
6, 100240, Note_on_c, 4, 58, 0
6, 100320, Note_on_c, 4, 62, 64
6, 100720, Note_on_c, 4, 62, 0
6, 100800, Note_on_c, 4, 63, 64
6, 101200, Note_on_c, 4, 63, 0
6, 101760, Note_on_c, 4, 67, 64
6, 102000, Note_on_c, 4, 67, 0
6, 102000, Note_on_c, 4, 65, 64
6, 102200, Note_on_c, 4, 65, 0
6, 102240, Note_on_c, 4, 63, 64
6, 103200, Note_on_c, 4, 63, 0
6, 103200, Note_on_c, 4, 62, 64
6, 103600, Note_on_c, 4, 62, 0
6, 103680, Note_on_c, 4, 63, 86
6, 103780, Note_on_c, 4, 63, 0
6, 103800, Note_on_c, 4, 58, 86
6, 103900, Note_on_c, 4, 58, 0
6, 103920, Note_on_c, 4, 63, 86
6, 104020, Note_on_c, 4, 63, 0
6, 104040, Note_on_c, 4, 67, 86
6, 104140, Note_on_c, 4, 67, 0
6, 104160, Note_on_c, 4, 70, 86
6, 104260, Note_on_c, 4, 70, 0
6, 104280, Note_on_c, 4, 70, 86
6, 104380, Note_on_c, 4, 70, 0
6, 104400, Note_on_c, 4, 74, 86
6, 104500, Note_on_c, 4, 74, 0
6, 104520, Note_on_c, 4, 77, 86
6, 104620, Note_on_c, 4, 77, 0
6, 104640, Note_on_c, 4, 75, 86
6, 104740, Note_on_c, 4, 75, 0
6, 104760, Note_on_c, 4, 70, 86
6, 104860, Note_on_c, 4, 70, 0
6, 104880, Note_on_c, 4, 75, 86
6, 104980, Note_on_c, 4, 75, 0
6, 105000, Note_on_c, 4, 70, 86
6, 105100, Note_on_c, 4, 70, 0
6, 105120, Note_on_c, 4, 74, 86
6, 105220, Note_on_c, 4, 74, 0
6, 105240, Note_on_c, 4, 77, 86
6, 105340, Note_on_c, 4, 77, 0
6, 105360, Note_on_c, 4, 74, 86
6, 105460, Note_on_c, 4, 74, 0
6, 105480, Note_on_c, 4, 77, 86
6, 105580, Note_on_c, 4, 77, 0
6, 105600, Note_on_c, 4, 75, 86
6, 105700, Note_on_c, 4, 75, 0
6, 105720, Note_on_c, 4, 82, 86
6, 105820, Note_on_c, 4, 82, 0
6, 105840, Note_on_c, 4, 79, 86
6, 105940, Note_on_c, 4, 79, 0
6, 105960, Note_on_c, 4, 75, 86
6, 106060, Note_on_c, 4, 75, 0
6, 106080, Note_on_c, 4, 70, 86
6, 106180, Note_on_c, 4, 70, 0
6, 106200, Note_on_c, 4, 70, 86
6, 106300, Note_on_c, 4, 70, 0
6, 106320, Note_on_c, 4, 74, 86
6, 106420, Note_on_c, 4, 74, 0
6, 106440, Note_on_c, 4, 70, 86
6, 106540, Note_on_c, 4, 70, 0
6, 106560, Note_on_c, 4, 75, 86
6, 106660, Note_on_c, 4, 75, 0
6, 106680, Note_on_c, 4, 70, 86
6, 106780, Note_on_c, 4, 70, 0
6, 106800, Note_on_c, 4, 75, 86
6, 106900, Note_on_c, 4, 75, 0
6, 106920, Note_on_c, 4, 70, 86
6, 107020, Note_on_c, 4, 70, 0
6, 107040, Note_on_c, 4, 74, 86
6, 107140, Note_on_c, 4, 74, 0
6, 107160, Note_on_c, 4, 70, 86
6, 107260, Note_on_c, 4, 70, 0
6, 107280, Note_on_c, 4, 74, 86
6, 107380, Note_on_c, 4, 74, 0
6, 107400, Note_on_c, 4, 70, 86
6, 107500, Note_on_c, 4, 70, 0
6, 107520, Note_on_c, 4, 75, 86
6, 107520, Note_on_c, 4, 67, 86
6, 107920, Note_on_c, 4, 75, 0
6, 107920, Note_on_c, 4, 67, 0
6, 109680, Note_on_c, 4, 55, 64
6, 109880, Note_on_c, 4, 55, 0
6, 109920, Note_on_c, 4, 55, 64
6, 110120, Note_on_c, 4, 55, 0
6, 110160, Note_on_c, 4, 55, 64
6, 110360, Note_on_c, 4, 55, 0
6, 110400, Note_on_c, 4, 55, 64
6, 110600, Note_on_c, 4, 55, 0
6, 110640, Note_on_c, 4, 55, 64
6, 110840, Note_on_c, 4, 55, 0
6, 110880, Note_on_c, 4, 55, 64
6, 111080, Note_on_c, 4, 55, 0
6, 111120, Note_on_c, 4, 55, 64
6, 111320, Note_on_c, 4, 55, 0
6, 111600, Note_on_c, 4, 58, 64
6, 111800, Note_on_c, 4, 58, 0
6, 111840, Note_on_c, 4, 58, 64
6, 112040, Note_on_c, 4, 58, 0
6, 112080, Note_on_c, 4, 58, 64
6, 112280, Note_on_c, 4, 58, 0
6, 112320, Note_on_c, 4, 58, 64
6, 112520, Note_on_c, 4, 58, 0
6, 112560, Note_on_c, 4, 58, 64
6, 112760, Note_on_c, 4, 58, 0
6, 112800, Note_on_c, 4, 58, 64
6, 113000, Note_on_c, 4, 58, 0
6, 113040, Note_on_c, 4, 58, 64
6, 113240, Note_on_c, 4, 58, 0
6, 113520, Note_on_c, 4, 58, 64
6, 113720, Note_on_c, 4, 58, 0
6, 113760, Note_on_c, 4, 58, 64
6, 113960, Note_on_c, 4, 58, 0
6, 114000, Note_on_c, 4, 58, 64
6, 114200, Note_on_c, 4, 58, 0
6, 114240, Note_on_c, 4, 60, 64
6, 114440, Note_on_c, 4, 60, 0
6, 114480, Note_on_c, 4, 60, 64
6, 114680, Note_on_c, 4, 60, 0
6, 114720, Note_on_c, 4, 60, 64
6, 114920, Note_on_c, 4, 60, 0
6, 114960, Note_on_c, 4, 60, 64
6, 115160, Note_on_c, 4, 60, 0
6, 115200, Note_on_c, 4, 60, 64
6, 115400, Note_on_c, 4, 60, 0
6, 115440, Note_on_c, 4, 60, 64
6, 115640, Note_on_c, 4, 60, 0
6, 115680, Note_on_c, 4, 60, 64
6, 115880, Note_on_c, 4, 60, 0
6, 115920, Note_on_c, 4, 60, 64
6, 116120, Note_on_c, 4, 60, 0
6, 116160, Note_on_c, 4, 58, 64
6, 116400, Note_on_c, 4, 58, 0
6, 116400, Note_on_c, 4, 62, 64
6, 116640, Note_on_c, 4, 62, 0
6, 116640, Note_on_c, 4, 60, 64
6, 116880, Note_on_c, 4, 60, 0
6, 116880, Note_on_c, 4, 63, 64
6, 117120, Note_on_c, 4, 63, 0
6, 117120, Note_on_c, 4, 58, 64
6, 117320, Note_on_c, 4, 58, 0
6, 117360, Note_on_c, 4, 58, 64
6, 117560, Note_on_c, 4, 58, 0
6, 117600, Note_on_c, 4, 58, 64
6, 117800, Note_on_c, 4, 58, 0
6, 117840, Note_on_c, 4, 58, 64
6, 118040, Note_on_c, 4, 58, 0
6, 118080, Note_on_c, 4, 65, 64
6, 118280, Note_on_c, 4, 65, 0
6, 118320, Note_on_c, 4, 65, 64
6, 118520, Note_on_c, 4, 65, 0
6, 118560, Note_on_c, 4, 65, 64
6, 118760, Note_on_c, 4, 65, 0
6, 118800, Note_on_c, 4, 65, 64
6, 119000, Note_on_c, 4, 65, 0
6, 119040, Note_on_c, 4, 62, 64
6, 119240, Note_on_c, 4, 62, 0
6, 119280, Note_on_c, 4, 62, 64
6, 119480, Note_on_c, 4, 62, 0
6, 119520, Note_on_c, 4, 63, 64
6, 119720, Note_on_c, 4, 63, 0
6, 119760, Note_on_c, 4, 63, 64
6, 119960, Note_on_c, 4, 63, 0
6, 120000, Note_on_c, 4, 63, 64
6, 120200, Note_on_c, 4, 63, 0
6, 120240, Note_on_c, 4, 58, 64
6, 120680, Note_on_c, 4, 58, 0
6, 120720, Note_on_c, 4, 58, 64
6, 121160, Note_on_c, 4, 58, 0
6, 121200, Note_on_c, 4, 58, 64
6, 121400, Note_on_c, 4, 58, 0
6, 121440, Note_on_c, 4, 63, 64
6, 121640, Note_on_c, 4, 63, 0
6, 121680, Note_on_c, 4, 63, 64
6, 121880, Note_on_c, 4, 63, 0
6, 121920, Note_on_c, 4, 62, 64
6, 122120, Note_on_c, 4, 62, 0
6, 122160, Note_on_c, 4, 62, 64
6, 122360, Note_on_c, 4, 62, 0
6, 122400, Note_on_c, 4, 67, 64
6, 122600, Note_on_c, 4, 67, 0
6, 122640, Note_on_c, 4, 67, 64
6, 122840, Note_on_c, 4, 67, 0
6, 122880, Note_on_c, 4, 62, 64
6, 123080, Note_on_c, 4, 62, 0
6, 123120, Note_on_c, 4, 77, 86
6, 123320, Note_on_c, 4, 77, 0
6, 123360, Note_on_c, 4, 77, 86
6, 123560, Note_on_c, 4, 77, 0
6, 123600, Note_on_c, 4, 77, 86
6, 123800, Note_on_c, 4, 77, 0
6, 123840, Note_on_c, 4, 77, 86
6, 124040, Note_on_c, 4, 77, 0
6, 124080, Note_on_c, 4, 72, 86
6, 124280, Note_on_c, 4, 72, 0
6, 124320, Note_on_c, 4, 69, 86
6, 124520, Note_on_c, 4, 69, 0
6, 124560, Note_on_c, 4, 65, 86
6, 124760, Note_on_c, 4, 65, 0
6, 124800, Note_on_c, 4, 57, 64
6, 125000, Note_on_c, 4, 57, 0
6, 125040, Note_on_c, 4, 57, 64
6, 125240, Note_on_c, 4, 57, 0
6, 125280, Note_on_c, 4, 57, 64
6, 125480, Note_on_c, 4, 57, 0
6, 125520, Note_on_c, 4, 57, 64
6, 125720, Note_on_c, 4, 57, 0
6, 125760, Note_on_c, 4, 57, 64
6, 125960, Note_on_c, 4, 57, 0
6, 126000, Note_on_c, 4, 57, 64
6, 126200, Note_on_c, 4, 57, 0
6, 126240, Note_on_c, 4, 57, 64
6, 126440, Note_on_c, 4, 57, 0
6, 126480, Note_on_c, 4, 57, 64
6, 126680, Note_on_c, 4, 57, 0
6, 126720, Note_on_c, 4, 57, 64
6, 126840, Note_on_c, 4, 57, 0
6, 126960, Note_on_c, 4, 72, 64
6, 127080, Note_on_c, 4, 72, 0
6, 127080, Note_on_c, 4, 70, 64
6, 127200, Note_on_c, 4, 70, 0
6, 127200, Note_on_c, 4, 69, 64
6, 127320, Note_on_c, 4, 69, 0
6, 127440, Note_on_c, 4, 69, 64
6, 127560, Note_on_c, 4, 69, 0
6, 127560, Note_on_c, 4, 67, 64
6, 127680, Note_on_c, 4, 67, 0
6, 127680, Note_on_c, 4, 65, 64
6, 127800, Note_on_c, 4, 65, 0
6, 127920, Note_on_c, 4, 65, 64
6, 128040, Note_on_c, 4, 65, 0
6, 128040, Note_on_c, 4, 63, 64
6, 128160, Note_on_c, 4, 63, 0
6, 128160, Note_on_c, 4, 62, 64
6, 128280, Note_on_c, 4, 62, 0
6, 128400, Note_on_c, 4, 62, 64
6, 128520, Note_on_c, 4, 62, 0
6, 128520, Note_on_c, 4, 60, 64
6, 128640, Note_on_c, 4, 60, 0
6, 128640, Note_on_c, 4, 58, 64
6, 128840, Note_on_c, 4, 58, 0
6, 128880, Note_on_c, 4, 58, 64
6, 129080, Note_on_c, 4, 58, 0
6, 129120, Note_on_c, 4, 58, 64
6, 129320, Note_on_c, 4, 58, 0
6, 129360, Note_on_c, 4, 58, 64
6, 129560, Note_on_c, 4, 58, 0
6, 129600, Note_on_c, 4, 58, 64
6, 129800, Note_on_c, 4, 58, 0
6, 129840, Note_on_c, 4, 58, 64
6, 130040, Note_on_c, 4, 58, 0
6, 130080, Note_on_c, 4, 58, 64
6, 130280, Note_on_c, 4, 58, 0
6, 130320, Note_on_c, 4, 58, 64
6, 130520, Note_on_c, 4, 58, 0
6, 130560, Note_on_c, 4, 58, 64
6, 130680, Note_on_c, 4, 58, 0
6, 130800, Note_on_c, 4, 74, 64
6, 130920, Note_on_c, 4, 74, 0
6, 130920, Note_on_c, 4, 72, 64
6, 131040, Note_on_c, 4, 72, 0
6, 131040, Note_on_c, 4, 70, 64
6, 131160, Note_on_c, 4, 70, 0
6, 131280, Note_on_c, 4, 70, 64
6, 131400, Note_on_c, 4, 70, 0
6, 131400, Note_on_c, 4, 69, 64
6, 131520, Note_on_c, 4, 69, 0
6, 131520, Note_on_c, 4, 67, 64
6, 131640, Note_on_c, 4, 67, 0
6, 131760, Note_on_c, 4, 67, 64
6, 131880, Note_on_c, 4, 67, 0
6, 131880, Note_on_c, 4, 65, 64
6, 131980, Note_on_c, 4, 65, 0
6, 132000, Note_on_c, 4, 63, 64
6, 132120, Note_on_c, 4, 63, 0
6, 132240, Note_on_c, 4, 63, 64
6, 132360, Note_on_c, 4, 63, 0
6, 132360, Note_on_c, 4, 62, 64
6, 132480, Note_on_c, 4, 62, 0
6, 132480, Note_on_c, 4, 60, 64
6, 132680, Note_on_c, 4, 60, 0
6, 132720, Note_on_c, 4, 60, 64
6, 132920, Note_on_c, 4, 60, 0
6, 132960, Note_on_c, 4, 60, 64
6, 133160, Note_on_c, 4, 60, 0
6, 133200, Note_on_c, 4, 60, 64
6, 133400, Note_on_c, 4, 60, 0
6, 133440, Note_on_c, 4, 60, 64
6, 133640, Note_on_c, 4, 60, 0
6, 133680, Note_on_c, 4, 60, 64
6, 133880, Note_on_c, 4, 60, 0
6, 133920, Note_on_c, 4, 60, 64
6, 134120, Note_on_c, 4, 60, 0
6, 134160, Note_on_c, 4, 60, 64
6, 134360, Note_on_c, 4, 60, 0
6, 134400, Note_on_c, 4, 60, 64
6, 134600, Note_on_c, 4, 60, 0
6, 134640, Note_on_c, 4, 72, 64
6, 134840, Note_on_c, 4, 72, 0
6, 134880, Note_on_c, 4, 72, 64
6, 135080, Note_on_c, 4, 72, 0
6, 135120, Note_on_c, 4, 72, 64
6, 135320, Note_on_c, 4, 72, 0
6, 135600, Note_on_c, 4, 60, 64
6, 135800, Note_on_c, 4, 60, 0
6, 135840, Note_on_c, 4, 60, 64
6, 136040, Note_on_c, 4, 60, 0
6, 136080, Note_on_c, 4, 60, 64
6, 136280, Note_on_c, 4, 60, 0
6, 136560, Note_on_c, 4, 58, 64
6, 136760, Note_on_c, 4, 58, 0
6, 136800, Note_on_c, 4, 58, 64
6, 137000, Note_on_c, 4, 58, 0
6, 137040, Note_on_c, 4, 58, 64
6, 137240, Note_on_c, 4, 58, 0
6, 137520, Note_on_c, 4, 61, 64
6, 137720, Note_on_c, 4, 61, 0
6, 137760, Note_on_c, 4, 61, 64
6, 137960, Note_on_c, 4, 61, 0
6, 138000, Note_on_c, 4, 61, 64
6, 138200, Note_on_c, 4, 61, 0
6, 138480, Note_on_c, 4, 62, 64
6, 138680, Note_on_c, 4, 62, 0
6, 138720, Note_on_c, 4, 62, 64
6, 138920, Note_on_c, 4, 62, 0
6, 138960, Note_on_c, 4, 62, 64
6, 139160, Note_on_c, 4, 62, 0
6, 139200, Note_on_c, 4, 62, 64
6, 139400, Note_on_c, 4, 62, 0
6, 139440, Note_on_c, 4, 62, 64
6, 139640, Note_on_c, 4, 62, 0
6, 139680, Note_on_c, 4, 62, 64
6, 139880, Note_on_c, 4, 62, 0
6, 139920, Note_on_c, 4, 62, 64
6, 140120, Note_on_c, 4, 62, 0
6, 140160, Note_on_c, 4, 60, 64
6, 140260, Note_on_c, 4, 60, 0
6, 140280, Note_on_c, 4, 60, 64
6, 140380, Note_on_c, 4, 60, 0
6, 140400, Note_on_c, 4, 60, 64
6, 140500, Note_on_c, 4, 60, 0
6, 140520, Note_on_c, 4, 60, 64
6, 140620, Note_on_c, 4, 60, 0
6, 140640, Control_c, 4, 11, 94
6, 140640, Note_on_c, 4, 63, 86
6, 140740, Note_on_c, 4, 63, 0
6, 140760, Control_c, 4, 11, 95
6, 140760, Note_on_c, 4, 63, 86
6, 140860, Note_on_c, 4, 63, 0
6, 140880, Control_c, 4, 11, 98
6, 140880, Note_on_c, 4, 63, 86
6, 140980, Note_on_c, 4, 63, 0
6, 141000, Control_c, 4, 11, 101
6, 141000, Note_on_c, 4, 63, 86
6, 141100, Note_on_c, 4, 63, 0
6, 141120, Control_c, 4, 11, 104
6, 141120, Note_on_c, 4, 72, 86
6, 141220, Note_on_c, 4, 72, 0
6, 141240, Control_c, 4, 11, 107
6, 141240, Note_on_c, 4, 72, 86
6, 141340, Note_on_c, 4, 72, 0
6, 141360, Control_c, 4, 11, 110
6, 141360, Note_on_c, 4, 72, 86
6, 141460, Note_on_c, 4, 72, 0
6, 141480, Control_c, 4, 11, 113
6, 141480, Note_on_c, 4, 72, 86
6, 141580, Note_on_c, 4, 72, 0
6, 141600, Control_c, 4, 11, 116
6, 141600, Note_on_c, 4, 75, 86
6, 141700, Note_on_c, 4, 75, 0
6, 141720, Control_c, 4, 11, 119
6, 141720, Note_on_c, 4, 75, 86
6, 141820, Note_on_c, 4, 75, 0
6, 141840, Control_c, 4, 11, 122
6, 141840, Note_on_c, 4, 75, 86
6, 141940, Note_on_c, 4, 75, 0
6, 141960, Control_c, 4, 11, 125
6, 141960, Note_on_c, 4, 75, 86
6, 142060, Note_on_c, 4, 75, 0
6, 142080, Control_c, 4, 11, 127
6, 142080, Note_on_c, 4, 74, 86
6, 142480, Note_on_c, 4, 74, 0
6, 142560, Note_on_c, 4, 58, 86
6, 142960, Note_on_c, 4, 58, 0
6, 143280, Note_on_c, 4, 70, 86
6, 143400, Note_on_c, 4, 70, 0
6, 143400, Note_on_c, 4, 74, 86
6, 143520, Note_on_c, 4, 74, 0
6, 143520, Note_on_c, 4, 77, 86
6, 143720, Note_on_c, 4, 77, 0
6, 143760, Note_on_c, 4, 74, 86
6, 143960, Note_on_c, 4, 74, 0
6, 144000, Note_on_c, 4, 75, 86
6, 144400, Note_on_c, 4, 75, 0
6, 144480, Note_on_c, 4, 63, 86
6, 144480, Note_on_c, 4, 55, 86
6, 144880, Note_on_c, 4, 63, 0
6, 144880, Note_on_c, 4, 55, 0
6, 145200, Note_on_c, 4, 70, 86
6, 145320, Note_on_c, 4, 70, 0
6, 145320, Note_on_c, 4, 75, 86
6, 145420, Note_on_c, 4, 75, 0
6, 145440, Note_on_c, 4, 79, 86
6, 145640, Note_on_c, 4, 79, 0
6, 145680, Note_on_c, 4, 79, 86
6, 145880, Note_on_c, 4, 79, 0
6, 145920, Note_on_c, 4, 74, 86
6, 146320, Note_on_c, 4, 74, 0
6, 146400, Note_on_c, 4, 62, 86
6, 146800, Note_on_c, 4, 62, 0
6, 147120, Note_on_c, 4, 70, 86
6, 147240, Note_on_c, 4, 70, 0
6, 147240, Note_on_c, 4, 74, 86
6, 147340, Note_on_c, 4, 74, 0
6, 147360, Note_on_c, 4, 77, 86
6, 147560, Note_on_c, 4, 77, 0
6, 147600, Note_on_c, 4, 74, 86
6, 147800, Note_on_c, 4, 74, 0
6, 147840, Note_on_c, 4, 75, 86
6, 148040, Note_on_c, 4, 75, 0
6, 148080, Note_on_c, 4, 79, 86
6, 148180, Note_on_c, 4, 79, 0
6, 148200, Note_on_c, 4, 77, 86
6, 148300, Note_on_c, 4, 77, 0
6, 148320, Note_on_c, 4, 75, 86
6, 148420, Note_on_c, 4, 75, 0
6, 148440, Note_on_c, 4, 74, 86
6, 148540, Note_on_c, 4, 74, 0
6, 148560, Note_on_c, 4, 72, 86
6, 148660, Note_on_c, 4, 72, 0
6, 148680, Note_on_c, 4, 70, 86
6, 148780, Note_on_c, 4, 70, 0
6, 148800, Note_on_c, 4, 69, 86
6, 149000, Note_on_c, 4, 69, 0
6, 149040, Note_on_c, 4, 72, 86
6, 149140, Note_on_c, 4, 72, 0
6, 149160, Note_on_c, 4, 70, 86
6, 149260, Note_on_c, 4, 70, 0
6, 149280, Note_on_c, 4, 69, 86
6, 149380, Note_on_c, 4, 69, 0
6, 149400, Note_on_c, 4, 67, 86
6, 149500, Note_on_c, 4, 67, 0
6, 149520, Note_on_c, 4, 65, 86
6, 149620, Note_on_c, 4, 65, 0
6, 149640, Note_on_c, 4, 63, 86
6, 149740, Note_on_c, 4, 63, 0
6, 149760, Note_on_c, 4, 62, 86
6, 149860, Note_on_c, 4, 62, 0
6, 149880, Note_on_c, 4, 65, 86
6, 149980, Note_on_c, 4, 65, 0
6, 150000, Note_on_c, 4, 63, 86
6, 150100, Note_on_c, 4, 63, 0
6, 150120, Note_on_c, 4, 62, 86
6, 150220, Note_on_c, 4, 62, 0
6, 150240, Note_on_c, 4, 63, 86
6, 150340, Note_on_c, 4, 63, 0
6, 150360, Note_on_c, 4, 65, 86
6, 150460, Note_on_c, 4, 65, 0
6, 150480, Note_on_c, 4, 67, 86
6, 150580, Note_on_c, 4, 67, 0
6, 150600, Note_on_c, 4, 69, 86
6, 150700, Note_on_c, 4, 69, 0
6, 150720, Note_on_c, 4, 70, 86
6, 150820, Note_on_c, 4, 70, 0
6, 150840, Note_on_c, 4, 72, 86
6, 150940, Note_on_c, 4, 72, 0
6, 150960, Note_on_c, 4, 74, 86
6, 151060, Note_on_c, 4, 74, 0
6, 151080, Note_on_c, 4, 75, 86
6, 151180, Note_on_c, 4, 75, 0
6, 151200, Note_on_c, 4, 77, 86
6, 151300, Note_on_c, 4, 77, 0
6, 151320, Note_on_c, 4, 79, 86
6, 151420, Note_on_c, 4, 79, 0
6, 151440, Note_on_c, 4, 81, 86
6, 151540, Note_on_c, 4, 81, 0
6, 151560, Note_on_c, 4, 82, 86
6, 151660, Note_on_c, 4, 82, 0
6, 151680, Note_on_c, 4, 79, 86
6, 151680, Note_on_c, 4, 70, 86
6, 151780, Note_on_c, 4, 79, 0
6, 151780, Note_on_c, 4, 70, 0
6, 151800, Note_on_c, 4, 79, 86
6, 151800, Note_on_c, 4, 70, 86
6, 151900, Note_on_c, 4, 79, 0
6, 151900, Note_on_c, 4, 70, 0
6, 151920, Note_on_c, 4, 79, 86
6, 151920, Note_on_c, 4, 70, 86
6, 152020, Note_on_c, 4, 79, 0
6, 152020, Note_on_c, 4, 70, 0
6, 152040, Note_on_c, 4, 79, 86
6, 152040, Note_on_c, 4, 70, 86
6, 152140, Note_on_c, 4, 79, 0
6, 152140, Note_on_c, 4, 70, 0
6, 152160, Note_on_c, 4, 79, 86
6, 152160, Note_on_c, 4, 70, 86
6, 152260, Note_on_c, 4, 79, 0
6, 152260, Note_on_c, 4, 70, 0
6, 152280, Note_on_c, 4, 79, 86
6, 152280, Note_on_c, 4, 70, 86
6, 152380, Note_on_c, 4, 79, 0
6, 152380, Note_on_c, 4, 70, 0
6, 152400, Note_on_c, 4, 79, 86
6, 152400, Note_on_c, 4, 70, 86
6, 152500, Note_on_c, 4, 79, 0
6, 152500, Note_on_c, 4, 70, 0
6, 152520, Note_on_c, 4, 79, 86
6, 152520, Note_on_c, 4, 70, 86
6, 152620, Note_on_c, 4, 79, 0
6, 152620, Note_on_c, 4, 70, 0
6, 152640, Note_on_c, 4, 79, 86
6, 152640, Note_on_c, 4, 73, 86
6, 152740, Note_on_c, 4, 79, 0
6, 152740, Note_on_c, 4, 73, 0
6, 152760, Note_on_c, 4, 79, 86
6, 152760, Note_on_c, 4, 73, 86
6, 152860, Note_on_c, 4, 79, 0
6, 152860, Note_on_c, 4, 73, 0
6, 152880, Note_on_c, 4, 79, 86
6, 152880, Note_on_c, 4, 73, 86
6, 152980, Note_on_c, 4, 79, 0
6, 152980, Note_on_c, 4, 73, 0
6, 153000, Note_on_c, 4, 79, 86
6, 153000, Note_on_c, 4, 73, 86
6, 153100, Note_on_c, 4, 79, 0
6, 153100, Note_on_c, 4, 73, 0
6, 153120, Note_on_c, 4, 79, 86
6, 153120, Note_on_c, 4, 73, 86
6, 153220, Note_on_c, 4, 79, 0
6, 153220, Note_on_c, 4, 73, 0
6, 153240, Note_on_c, 4, 79, 86
6, 153240, Note_on_c, 4, 73, 86
6, 153340, Note_on_c, 4, 79, 0
6, 153340, Note_on_c, 4, 73, 0
6, 153360, Note_on_c, 4, 79, 86
6, 153360, Note_on_c, 4, 73, 86
6, 153460, Note_on_c, 4, 79, 0
6, 153460, Note_on_c, 4, 73, 0
6, 153480, Note_on_c, 4, 79, 86
6, 153480, Note_on_c, 4, 73, 86
6, 153580, Note_on_c, 4, 79, 0
6, 153580, Note_on_c, 4, 73, 0
6, 153600, Note_on_c, 4, 77, 86
6, 153600, Note_on_c, 4, 74, 86
6, 153800, Note_on_c, 4, 77, 0
6, 153800, Note_on_c, 4, 74, 0
6, 153840, Note_on_c, 4, 77, 86
6, 153960, Note_on_c, 4, 77, 0
6, 153960, Note_on_c, 4, 74, 86
6, 154080, Note_on_c, 4, 74, 0
6, 154080, Note_on_c, 4, 77, 86
6, 154280, Note_on_c, 4, 77, 0
6, 154320, Note_on_c, 4, 74, 86
6, 154440, Note_on_c, 4, 74, 0
6, 154440, Note_on_c, 4, 70, 86
6, 154560, Note_on_c, 4, 70, 0
6, 154560, Note_on_c, 4, 65, 86
6, 154960, Note_on_c, 4, 65, 0
6, 155040, Note_on_c, 4, 81, 86
6, 155040, Note_on_c, 4, 72, 86
6, 155040, Note_on_c, 4, 65, 86
6, 155440, Note_on_c, 4, 81, 0
6, 155440, Note_on_c, 4, 72, 0
6, 155440, Note_on_c, 4, 65, 0
6, 155520, Note_on_c, 4, 82, 86
6, 155520, Note_on_c, 4, 74, 86
6, 155520, Note_on_c, 4, 65, 86
6, 155920, Note_on_c, 4, 82, 0
6, 155920, Note_on_c, 4, 74, 0
6, 155920, Note_on_c, 4, 65, 0
6, 156240, Note_on_c, 4, 58, 64
6, 156480, Note_on_c, 4, 58, 0
6, 156480, Note_on_c, 4, 62, 64
6, 156960, Note_on_c, 4, 62, 0
6, 157200, Note_on_c, 4, 62, 64
6, 157440, Note_on_c, 4, 62, 0
6, 157440, Note_on_c, 4, 65, 64
6, 157920, Note_on_c, 4, 65, 0
6, 158160, Note_on_c, 4, 65, 64
6, 158360, Note_on_c, 4, 65, 0
6, 158400, Note_on_c, 4, 68, 114
6, 159010, Note_on_c, 4, 68, 0
6, 159120, Note_on_c, 4, 65, 64
6, 159240, Note_on_c, 4, 65, 0
6, 159240, Note_on_c, 4, 62, 64
6, 159340, Note_on_c, 4, 62, 0
6, 159360, Note_on_c, 4, 59, 64
6, 159560, Note_on_c, 4, 59, 0
6, 159840, Note_on_c, 4, 62, 64
6, 160040, Note_on_c, 4, 62, 0
6, 160320, Note_on_c, 4, 67, 114
6, 160930, Note_on_c, 4, 67, 0
6, 161040, Note_on_c, 4, 65, 64
6, 161160, Note_on_c, 4, 65, 0
6, 161160, Note_on_c, 4, 62, 64
6, 161280, Note_on_c, 4, 62, 0
6, 161280, Note_on_c, 4, 60, 64
6, 161480, Note_on_c, 4, 60, 0
6, 161520, Note_on_c, 4, 60, 64
6, 161720, Note_on_c, 4, 60, 0
6, 161760, Note_on_c, 4, 60, 64
6, 161960, Note_on_c, 4, 60, 0
6, 162000, Note_on_c, 4, 60, 64
6, 162200, Note_on_c, 4, 60, 0
6, 162240, Note_on_c, 4, 60, 64
6, 162440, Note_on_c, 4, 60, 0
6, 162480, Note_on_c, 4, 60, 64
6, 162680, Note_on_c, 4, 60, 0
6, 162720, Note_on_c, 4, 60, 64
6, 162920, Note_on_c, 4, 60, 0
6, 162960, Note_on_c, 4, 60, 64
6, 163160, Note_on_c, 4, 60, 0
6, 163440, Note_on_c, 4, 55, 64
6, 163640, Note_on_c, 4, 55, 0
6, 163680, Note_on_c, 4, 55, 64
6, 163880, Note_on_c, 4, 55, 0
6, 163920, Note_on_c, 4, 55, 64
6, 164120, Note_on_c, 4, 55, 0
6, 164160, Note_on_c, 4, 55, 64
6, 164360, Note_on_c, 4, 55, 0
6, 164400, Note_on_c, 4, 55, 64
6, 164600, Note_on_c, 4, 55, 0
6, 164640, Note_on_c, 4, 55, 64
6, 164840, Note_on_c, 4, 55, 0
6, 164880, Note_on_c, 4, 55, 64
6, 165080, Note_on_c, 4, 55, 0
6, 165360, Note_on_c, 4, 55, 64
6, 165560, Note_on_c, 4, 55, 0
6, 165600, Note_on_c, 4, 55, 64
6, 165800, Note_on_c, 4, 55, 0
6, 165840, Note_on_c, 4, 55, 64
6, 166040, Note_on_c, 4, 55, 0
6, 166080, Note_on_c, 4, 55, 64
6, 166280, Note_on_c, 4, 55, 0
6, 166320, Note_on_c, 4, 55, 64
6, 166520, Note_on_c, 4, 55, 0
6, 166560, Note_on_c, 4, 55, 64
6, 166760, Note_on_c, 4, 55, 0
6, 166800, Note_on_c, 4, 55, 64
6, 167000, Note_on_c, 4, 55, 0
6, 167280, Note_on_c, 4, 55, 64
6, 167480, Note_on_c, 4, 55, 0
6, 167520, Note_on_c, 4, 55, 64
6, 167720, Note_on_c, 4, 55, 0
6, 167760, Note_on_c, 4, 55, 64
6, 167960, Note_on_c, 4, 55, 0
6, 168000, Note_on_c, 4, 55, 64
6, 168200, Note_on_c, 4, 55, 0
6, 168240, Note_on_c, 4, 55, 64
6, 168440, Note_on_c, 4, 55, 0
6, 168480, Note_on_c, 4, 55, 64
6, 168680, Note_on_c, 4, 55, 0
6, 168720, Note_on_c, 4, 55, 64
6, 168920, Note_on_c, 4, 55, 0
6, 169200, Note_on_c, 4, 56, 64
6, 169400, Note_on_c, 4, 56, 0
6, 169440, Note_on_c, 4, 56, 64
6, 169640, Note_on_c, 4, 56, 0
6, 169680, Note_on_c, 4, 56, 64
6, 169880, Note_on_c, 4, 56, 0
6, 170160, Note_on_c, 4, 61, 64
6, 170360, Note_on_c, 4, 61, 0
6, 170400, Note_on_c, 4, 61, 64
6, 170600, Note_on_c, 4, 61, 0
6, 170640, Note_on_c, 4, 61, 64
6, 170840, Note_on_c, 4, 61, 0
6, 171120, Note_on_c, 4, 60, 64
6, 171320, Note_on_c, 4, 60, 0
6, 171360, Note_on_c, 4, 62, 64
6, 171600, Note_on_c, 4, 62, 0
6, 171600, Note_on_c, 4, 64, 64
6, 171840, Note_on_c, 4, 64, 0
6, 171840, Note_on_c, 4, 65, 64
6, 172040, Note_on_c, 4, 65, 0
6, 172080, Note_on_c, 4, 65, 64
6, 172280, Note_on_c, 4, 65, 0
6, 172320, Note_on_c, 4, 62, 64
6, 172520, Note_on_c, 4, 62, 0
6, 172560, Note_on_c, 4, 62, 64
6, 172760, Note_on_c, 4, 62, 0
6, 173040, Note_on_c, 4, 60, 64
6, 173280, Note_on_c, 4, 60, 0
6, 173280, Note_on_c, 4, 63, 64
6, 173520, Note_on_c, 4, 63, 0
6, 173520, Note_on_c, 4, 63, 64
6, 173720, Note_on_c, 4, 63, 0
6, 173760, Note_on_c, 4, 63, 64
6, 174000, Note_on_c, 4, 63, 0
6, 174000, Note_on_c, 4, 62, 64
6, 174240, Note_on_c, 4, 62, 0
6, 174240, Note_on_c, 4, 60, 64
6, 174480, Note_on_c, 4, 60, 0
6, 174480, Note_on_c, 4, 59, 64
6, 174720, Note_on_c, 4, 59, 0
6, 174720, Note_on_c, 4, 60, 64
6, 175120, Note_on_c, 4, 60, 0
6, 175200, Note_on_c, 4, 72, 64
6, 175400, Note_on_c, 4, 72, 0
6, 175440, Note_on_c, 4, 72, 64
6, 175640, Note_on_c, 4, 72, 0
6, 175680, Note_on_c, 4, 70, 64
6, 175880, Note_on_c, 4, 70, 0
6, 175920, Note_on_c, 4, 70, 64
6, 176120, Note_on_c, 4, 70, 0
6, 176160, Note_on_c, 4, 68, 64
6, 176360, Note_on_c, 4, 68, 0
6, 176400, Note_on_c, 4, 68, 64
6, 176600, Note_on_c, 4, 68, 0
6, 176880, Note_on_c, 4, 55, 64
6, 177120, Note_on_c, 4, 55, 0
6, 177120, Note_on_c, 4, 58, 64
6, 177360, Note_on_c, 4, 58, 0
6, 177360, Note_on_c, 4, 55, 64
6, 177600, Note_on_c, 4, 55, 0
6, 177600, Note_on_c, 4, 58, 64
6, 177800, Note_on_c, 4, 58, 0
6, 177840, Note_on_c, 4, 58, 64
6, 178040, Note_on_c, 4, 58, 0
6, 178080, Note_on_c, 4, 58, 64
6, 178280, Note_on_c, 4, 58, 0
6, 178320, Note_on_c, 4, 58, 64
6, 178520, Note_on_c, 4, 58, 0
6, 178800, Note_on_c, 4, 56, 64
6, 179040, Note_on_c, 4, 56, 0
6, 179040, Note_on_c, 4, 60, 64
6, 179280, Note_on_c, 4, 60, 0
6, 179280, Note_on_c, 4, 56, 64
6, 179520, Note_on_c, 4, 56, 0
6, 179520, Note_on_c, 4, 60, 64
6, 179720, Note_on_c, 4, 60, 0
6, 179760, Note_on_c, 4, 60, 64
6, 179960, Note_on_c, 4, 60, 0
6, 180000, Note_on_c, 4, 60, 64
6, 180200, Note_on_c, 4, 60, 0
6, 180240, Note_on_c, 4, 60, 64
6, 180440, Note_on_c, 4, 60, 0
6, 180720, Note_on_c, 4, 55, 64
6, 180960, Note_on_c, 4, 55, 0
6, 180960, Note_on_c, 4, 58, 64
6, 181200, Note_on_c, 4, 58, 0
6, 181200, Note_on_c, 4, 55, 64
6, 181440, Note_on_c, 4, 55, 0
6, 181440, Note_on_c, 4, 58, 64
6, 181640, Note_on_c, 4, 58, 0
6, 181680, Note_on_c, 4, 58, 64
6, 181880, Note_on_c, 4, 58, 0
6, 181920, Note_on_c, 4, 58, 64
6, 182120, Note_on_c, 4, 58, 0
6, 182160, Note_on_c, 4, 58, 64
6, 182360, Note_on_c, 4, 58, 0
6, 182640, Note_on_c, 4, 56, 64
6, 182880, Note_on_c, 4, 56, 0
6, 182880, Note_on_c, 4, 60, 64
6, 183120, Note_on_c, 4, 60, 0
6, 183120, Note_on_c, 4, 56, 64
6, 183360, Note_on_c, 4, 56, 0
6, 183360, Note_on_c, 4, 60, 64
6, 183560, Note_on_c, 4, 60, 0
6, 183600, Note_on_c, 4, 60, 64
6, 183800, Note_on_c, 4, 60, 0
6, 183840, Note_on_c, 4, 60, 64
6, 184040, Note_on_c, 4, 60, 0
6, 184080, Note_on_c, 4, 60, 64
6, 184280, Note_on_c, 4, 60, 0
6, 184560, Note_on_c, 4, 65, 64
6, 184760, Note_on_c, 4, 65, 0
6, 184800, Note_on_c, 4, 65, 64
6, 185000, Note_on_c, 4, 65, 0
6, 185040, Note_on_c, 4, 65, 64
6, 185240, Note_on_c, 4, 65, 0
6, 185520, Note_on_c, 4, 63, 64
6, 185720, Note_on_c, 4, 63, 0
6, 185760, Note_on_c, 4, 63, 64
6, 185960, Note_on_c, 4, 63, 0
6, 186000, Note_on_c, 4, 63, 64
6, 186200, Note_on_c, 4, 63, 0
6, 186480, Note_on_c, 4, 65, 64
6, 186680, Note_on_c, 4, 65, 0
6, 186720, Note_on_c, 4, 65, 64
6, 186920, Note_on_c, 4, 65, 0
6, 186960, Note_on_c, 4, 65, 64
6, 187160, Note_on_c, 4, 65, 0
6, 187440, Note_on_c, 4, 60, 64
6, 187640, Note_on_c, 4, 60, 0
6, 187680, Note_on_c, 4, 60, 64
6, 187880, Note_on_c, 4, 60, 0
6, 187920, Note_on_c, 4, 60, 64
6, 188120, Note_on_c, 4, 60, 0
6, 188160, Note_on_c, 4, 58, 64
6, 188560, Note_on_c, 4, 58, 0
6, 189120, Note_on_c, 4, 74, 64
6, 189180, Note_on_c, 4, 74, 0
6, 189180, Note_on_c, 4, 75, 64
6, 189240, Note_on_c, 4, 75, 0
6, 189240, Note_on_c, 4, 74, 64
6, 189300, Note_on_c, 4, 74, 0
6, 189300, Note_on_c, 4, 75, 64
6, 189360, Note_on_c, 4, 75, 0
6, 189360, Note_on_c, 4, 74, 64
6, 189420, Note_on_c, 4, 74, 0
6, 189420, Note_on_c, 4, 75, 64
6, 189480, Note_on_c, 4, 75, 0
6, 189480, Note_on_c, 4, 74, 64
6, 189540, Note_on_c, 4, 74, 0
6, 189540, Note_on_c, 4, 75, 64
6, 189600, Note_on_c, 4, 75, 0
6, 189600, Note_on_c, 4, 74, 64
6, 189660, Note_on_c, 4, 74, 0
6, 189660, Note_on_c, 4, 75, 64
6, 189720, Note_on_c, 4, 75, 0
6, 189720, Note_on_c, 4, 74, 64
6, 189780, Note_on_c, 4, 74, 0
6, 189780, Note_on_c, 4, 75, 64
6, 189840, Note_on_c, 4, 75, 0
6, 189840, Note_on_c, 4, 72, 64
6, 189960, Note_on_c, 4, 72, 0
6, 189960, Note_on_c, 4, 74, 64
6, 190060, Note_on_c, 4, 74, 0
6, 190080, Note_on_c, 4, 74, 64
6, 190480, Note_on_c, 4, 74, 0
6, 191040, Note_on_c, 4, 62, 64
6, 191100, Note_on_c, 4, 62, 0
6, 191100, Note_on_c, 4, 63, 64
6, 191160, Note_on_c, 4, 63, 0
6, 191160, Note_on_c, 4, 62, 64
6, 191220, Note_on_c, 4, 62, 0
6, 191220, Note_on_c, 4, 63, 64
6, 191280, Note_on_c, 4, 63, 0
6, 191280, Note_on_c, 4, 62, 64
6, 191340, Note_on_c, 4, 62, 0
6, 191340, Note_on_c, 4, 63, 64
6, 191400, Note_on_c, 4, 63, 0
6, 191400, Note_on_c, 4, 62, 64
6, 191460, Note_on_c, 4, 62, 0
6, 191460, Note_on_c, 4, 63, 64
6, 191520, Note_on_c, 4, 63, 0
6, 191520, Note_on_c, 4, 62, 64
6, 191580, Note_on_c, 4, 62, 0
6, 191580, Note_on_c, 4, 63, 64
6, 191640, Note_on_c, 4, 63, 0
6, 191640, Note_on_c, 4, 62, 64
6, 191700, Note_on_c, 4, 62, 0
6, 191700, Note_on_c, 4, 63, 64
6, 191760, Note_on_c, 4, 63, 0
6, 191760, Note_on_c, 4, 60, 64
6, 191880, Note_on_c, 4, 60, 0
6, 191880, Note_on_c, 4, 62, 64
6, 191980, Note_on_c, 4, 62, 0
6, 192000, Note_on_c, 4, 62, 64
6, 192400, Note_on_c, 4, 62, 0
6, 195840, Note_on_c, 4, 62, 64
6, 195960, Note_on_c, 4, 62, 0
6, 195960, Note_on_c, 4, 60, 64
6, 196060, Note_on_c, 4, 60, 0
6, 196080, Note_on_c, 4, 58, 64
6, 196140, Note_on_c, 4, 58, 0
6, 196200, Note_on_c, 4, 57, 64
6, 196260, Note_on_c, 4, 57, 0
6, 196320, Note_on_c, 4, 58, 64
6, 196440, Note_on_c, 4, 58, 0
6, 196440, Note_on_c, 4, 57, 64
6, 196560, Note_on_c, 4, 57, 0
6, 196560, Note_on_c, 4, 58, 64
6, 196620, Note_on_c, 4, 58, 0
6, 196680, Note_on_c, 4, 60, 64
6, 196740, Note_on_c, 4, 60, 0
6, 196800, Note_on_c, 4, 62, 64
6, 196920, Note_on_c, 4, 62, 0
6, 196920, Note_on_c, 4, 60, 64
6, 197040, Note_on_c, 4, 60, 0
6, 197040, Note_on_c, 4, 62, 64
6, 197100, Note_on_c, 4, 62, 0
6, 197160, Note_on_c, 4, 63, 64
6, 197220, Note_on_c, 4, 63, 0
6, 197280, Control_c, 4, 11, 94
6, 197280, Note_on_c, 4, 65, 86
6, 197400, Note_on_c, 4, 65, 0
6, 197400, Control_c, 4, 11, 94
6, 197400, Note_on_c, 4, 63, 86
6, 197520, Note_on_c, 4, 63, 0
6, 197520, Control_c, 4, 11, 95
6, 197520, Note_on_c, 4, 65, 86
6, 197580, Note_on_c, 4, 65, 0
6, 197640, Control_c, 4, 11, 95
6, 197640, Note_on_c, 4, 62, 86
6, 197700, Note_on_c, 4, 62, 0
6, 197760, Note_on_c, 4, 63, 86
6, 197760, Control_c, 4, 11, 97
6, 197880, Note_on_c, 4, 63, 0
6, 197880, Note_on_c, 4, 62, 86
6, 197880, Control_c, 4, 11, 98
6, 197980, Note_on_c, 4, 62, 0
6, 198000, Note_on_c, 4, 60, 86
6, 198000, Control_c, 4, 11, 98
6, 198060, Note_on_c, 4, 60, 0
6, 198120, Note_on_c, 4, 58, 86
6, 198120, Control_c, 4, 11, 100
6, 198180, Note_on_c, 4, 58, 0
6, 198240, Note_on_c, 4, 60, 86
6, 198240, Control_c, 4, 11, 101
6, 198360, Note_on_c, 4, 60, 0
6, 198360, Note_on_c, 4, 58, 86
6, 198360, Control_c, 4, 11, 101
6, 198480, Note_on_c, 4, 58, 0
6, 198480, Note_on_c, 4, 60, 86
6, 198480, Control_c, 4, 11, 103
6, 198540, Note_on_c, 4, 60, 0
6, 198600, Note_on_c, 4, 62, 86
6, 198600, Control_c, 4, 11, 103
6, 198660, Note_on_c, 4, 62, 0
6, 198720, Note_on_c, 4, 63, 86
6, 198720, Control_c, 4, 11, 104
6, 198840, Note_on_c, 4, 63, 0
6, 198840, Note_on_c, 4, 62, 86
6, 198840, Control_c, 4, 11, 106
6, 198960, Note_on_c, 4, 62, 0
6, 198960, Note_on_c, 4, 63, 86
6, 198960, Control_c, 4, 11, 106
6, 199020, Note_on_c, 4, 63, 0
6, 199080, Note_on_c, 4, 65, 86
6, 199080, Control_c, 4, 11, 107
6, 199140, Note_on_c, 4, 65, 0
6, 199200, Note_on_c, 4, 67, 86
6, 199200, Control_c, 4, 11, 109
6, 199320, Note_on_c, 4, 67, 0
6, 199320, Note_on_c, 4, 65, 86
6, 199320, Control_c, 4, 11, 109
6, 199420, Note_on_c, 4, 65, 0
6, 199440, Note_on_c, 4, 67, 86
6, 199440, Control_c, 4, 11, 110
6, 199500, Note_on_c, 4, 67, 0
6, 199560, Note_on_c, 4, 63, 86
6, 199560, Control_c, 4, 11, 110
6, 199620, Note_on_c, 4, 63, 0
6, 199680, Note_on_c, 4, 65, 86
6, 199680, Control_c, 4, 11, 112
6, 199780, Note_on_c, 4, 65, 0
6, 199800, Note_on_c, 4, 62, 86
6, 199800, Control_c, 4, 11, 113
6, 199900, Note_on_c, 4, 62, 0
6, 199920, Note_on_c, 4, 63, 86
6, 199920, Control_c, 4, 11, 113
6, 200020, Note_on_c, 4, 63, 0
6, 200040, Note_on_c, 4, 65, 86
6, 200040, Control_c, 4, 11, 115
6, 200140, Note_on_c, 4, 65, 0
6, 200160, Note_on_c, 4, 67, 86
6, 200160, Control_c, 4, 11, 116
6, 200260, Note_on_c, 4, 67, 0
6, 200280, Note_on_c, 4, 68, 86
6, 200280, Control_c, 4, 11, 116
6, 200380, Note_on_c, 4, 68, 0
6, 200400, Note_on_c, 4, 70, 86
6, 200400, Control_c, 4, 11, 118
6, 200500, Note_on_c, 4, 70, 0
6, 200520, Note_on_c, 4, 72, 86
6, 200520, Control_c, 4, 11, 118
6, 200620, Note_on_c, 4, 72, 0
6, 200640, Note_on_c, 4, 74, 86
6, 200640, Control_c, 4, 11, 119
6, 200740, Note_on_c, 4, 74, 0
6, 200760, Note_on_c, 4, 72, 86
6, 200760, Control_c, 4, 11, 121
6, 200860, Note_on_c, 4, 72, 0
6, 200880, Note_on_c, 4, 70, 86
6, 200880, Control_c, 4, 11, 121
6, 200980, Note_on_c, 4, 70, 0
6, 201000, Note_on_c, 4, 69, 86
6, 201000, Control_c, 4, 11, 122
6, 201100, Note_on_c, 4, 69, 0
6, 201120, Note_on_c, 4, 70, 86
6, 201120, Control_c, 4, 11, 124
6, 201220, Note_on_c, 4, 70, 0
6, 201240, Note_on_c, 4, 72, 86
6, 201240, Control_c, 4, 11, 124
6, 201340, Note_on_c, 4, 72, 0
6, 201360, Note_on_c, 4, 74, 86
6, 201360, Control_c, 4, 11, 125
6, 201460, Note_on_c, 4, 74, 0
6, 201480, Note_on_c, 4, 75, 86
6, 201480, Control_c, 4, 11, 125
6, 201580, Note_on_c, 4, 75, 0
6, 201600, Control_c, 4, 11, 127
6, 201600, Note_on_c, 4, 77, 86
6, 201800, Note_on_c, 4, 77, 0
6, 201840, Note_on_c, 4, 77, 86
6, 201840, Note_on_c, 4, 74, 86
6, 202280, Note_on_c, 4, 77, 0
6, 202280, Note_on_c, 4, 74, 0
6, 202320, Note_on_c, 4, 77, 86
6, 202320, Note_on_c, 4, 74, 86
6, 202760, Note_on_c, 4, 77, 0
6, 202760, Note_on_c, 4, 74, 0
6, 202800, Note_on_c, 4, 77, 86
6, 202800, Note_on_c, 4, 74, 86
6, 203240, Note_on_c, 4, 77, 0
6, 203240, Note_on_c, 4, 74, 0
6, 203280, Note_on_c, 4, 77, 86
6, 203280, Note_on_c, 4, 74, 86
6, 203920, Note_on_c, 4, 77, 0
6, 203920, Note_on_c, 4, 74, 0
6, 204240, Note_on_c, 4, 74, 64
6, 204360, Note_on_c, 4, 74, 0
6, 204360, Note_on_c, 4, 75, 64
6, 204480, Note_on_c, 4, 75, 0
6, 204480, Note_on_c, 4, 77, 64
6, 204880, Note_on_c, 4, 77, 0
6, 205200, Note_on_c, 4, 74, 64
6, 205320, Note_on_c, 4, 74, 0
6, 205320, Note_on_c, 4, 75, 64
6, 205440, Note_on_c, 4, 75, 0
6, 205440, Note_on_c, 4, 77, 64
6, 205640, Note_on_c, 4, 77, 0
6, 205680, Note_on_c, 4, 77, 64
6, 205880, Note_on_c, 4, 77, 0
6, 205920, Note_on_c, 4, 75, 64
6, 205980, Note_on_c, 4, 75, 0
6, 205980, Note_on_c, 4, 77, 64
6, 206040, Note_on_c, 4, 77, 0
6, 206040, Note_on_c, 4, 75, 64
6, 206100, Note_on_c, 4, 75, 0
6, 206100, Note_on_c, 4, 77, 64
6, 206160, Note_on_c, 4, 77, 0
6, 206160, Note_on_c, 4, 74, 64
6, 206280, Note_on_c, 4, 74, 0
6, 206280, Note_on_c, 4, 75, 64
6, 206400, Note_on_c, 4, 75, 0
6, 206400, Note_on_c, 4, 74, 64
6, 206600, Note_on_c, 4, 74, 0
6, 206640, Note_on_c, 4, 74, 64
6, 206840, Note_on_c, 4, 74, 0
6, 206880, Note_on_c, 4, 72, 64
6, 206940, Note_on_c, 4, 72, 0
6, 206940, Note_on_c, 4, 74, 64
6, 207000, Note_on_c, 4, 74, 0
6, 207000, Note_on_c, 4, 72, 64
6, 207060, Note_on_c, 4, 72, 0
6, 207060, Note_on_c, 4, 74, 64
6, 207120, Note_on_c, 4, 74, 0
6, 207120, Note_on_c, 4, 70, 64
6, 207240, Note_on_c, 4, 70, 0
6, 207240, Note_on_c, 4, 72, 64
6, 207360, Note_on_c, 4, 72, 0
6, 207360, Note_on_c, 4, 70, 64
6, 207600, Note_on_c, 4, 70, 0
6, 207600, Note_on_c, 4, 72, 64
6, 207840, Note_on_c, 4, 72, 0
6, 207840, Note_on_c, 4, 74, 64
6, 208080, Note_on_c, 4, 74, 0
6, 208080, Note_on_c, 4, 72, 64
6, 208320, Note_on_c, 4, 72, 0
6, 208320, Note_on_c, 4, 70, 64
6, 208560, Note_on_c, 4, 70, 0
6, 208560, Note_on_c, 4, 72, 64
6, 208800, Note_on_c, 4, 72, 0
6, 208800, Note_on_c, 4, 70, 64
6, 209040, Note_on_c, 4, 70, 0
6, 209040, Note_on_c, 4, 68, 64
6, 209280, Note_on_c, 4, 68, 0
6, 209280, Note_on_c, 4, 67, 64
6, 209480, Note_on_c, 4, 67, 0
6, 209760, Note_on_c, 4, 65, 64
6, 209960, Note_on_c, 4, 65, 0
6, 210240, Note_on_c, 4, 63, 64
6, 210440, Note_on_c, 4, 63, 0
6, 210720, Note_on_c, 4, 62, 64
6, 210920, Note_on_c, 4, 62, 0
6, 211440, Note_on_c, 4, 55, 64
6, 211640, Note_on_c, 4, 55, 0
6, 211680, Note_on_c, 4, 55, 64
6, 211880, Note_on_c, 4, 55, 0
6, 211920, Note_on_c, 4, 55, 64
6, 212120, Note_on_c, 4, 55, 0
6, 212160, Note_on_c, 4, 55, 64
6, 212360, Note_on_c, 4, 55, 0
6, 212400, Note_on_c, 4, 55, 64
6, 212600, Note_on_c, 4, 55, 0
6, 212640, Note_on_c, 4, 55, 64
6, 212840, Note_on_c, 4, 55, 0
6, 212880, Note_on_c, 4, 55, 64
6, 213080, Note_on_c, 4, 55, 0
6, 213360, Note_on_c, 4, 55, 64
6, 213560, Note_on_c, 4, 55, 0
6, 213600, Note_on_c, 4, 55, 64
6, 213800, Note_on_c, 4, 55, 0
6, 213840, Note_on_c, 4, 55, 64
6, 214040, Note_on_c, 4, 55, 0
6, 214080, Note_on_c, 4, 55, 64
6, 214280, Note_on_c, 4, 55, 0
6, 214320, Note_on_c, 4, 55, 64
6, 214520, Note_on_c, 4, 55, 0
6, 214560, Note_on_c, 4, 55, 64
6, 214760, Note_on_c, 4, 55, 0
6, 214800, Note_on_c, 4, 55, 64
6, 215000, Note_on_c, 4, 55, 0
6, 215280, Note_on_c, 4, 55, 64
6, 215480, Note_on_c, 4, 55, 0
6, 215520, Note_on_c, 4, 55, 64
6, 215720, Note_on_c, 4, 55, 0
6, 215760, Note_on_c, 4, 55, 64
6, 215960, Note_on_c, 4, 55, 0
6, 216000, Note_on_c, 4, 55, 64
6, 216200, Note_on_c, 4, 55, 0
6, 216240, Note_on_c, 4, 55, 64
6, 216440, Note_on_c, 4, 55, 0
6, 216480, Note_on_c, 4, 55, 64
6, 216680, Note_on_c, 4, 55, 0
6, 216720, Note_on_c, 4, 55, 64
6, 216920, Note_on_c, 4, 55, 0
6, 216960, Note_on_c, 4, 56, 64
6, 217160, Note_on_c, 4, 56, 0
6, 217200, Note_on_c, 4, 56, 64
6, 217400, Note_on_c, 4, 56, 0
6, 217440, Note_on_c, 4, 56, 64
6, 217640, Note_on_c, 4, 56, 0
6, 217680, Note_on_c, 4, 56, 64
6, 217880, Note_on_c, 4, 56, 0
6, 217920, Note_on_c, 4, 56, 64
6, 218120, Note_on_c, 4, 56, 0
6, 218160, Note_on_c, 4, 67, 86
6, 218400, Note_on_c, 4, 67, 0
6, 218400, Note_on_c, 4, 68, 86
6, 218640, Note_on_c, 4, 68, 0
6, 218640, Note_on_c, 4, 70, 86
6, 218880, Note_on_c, 4, 70, 0
6, 218880, Note_on_c, 4, 72, 86
6, 219280, Note_on_c, 4, 72, 0
6, 219360, Note_on_c, 4, 56, 86
6, 219760, Note_on_c, 4, 56, 0
6, 219840, Note_on_c, 4, 72, 86
6, 219960, Note_on_c, 4, 72, 0
6, 219960, Note_on_c, 4, 75, 86
6, 220080, Note_on_c, 4, 75, 0
6, 220080, Note_on_c, 4, 80, 86
6, 220280, Note_on_c, 4, 80, 0
6, 220320, Note_on_c, 4, 80, 86
6, 220520, Note_on_c, 4, 80, 0
6, 220800, Note_on_c, 4, 79, 86
6, 221200, Note_on_c, 4, 79, 0
6, 221280, Note_on_c, 4, 63, 86
6, 221280, Note_on_c, 4, 55, 86
6, 221680, Note_on_c, 4, 63, 0
6, 221680, Note_on_c, 4, 55, 0
6, 222000, Note_on_c, 4, 67, 86
6, 222120, Note_on_c, 4, 67, 0
6, 222120, Note_on_c, 4, 75, 86
6, 222220, Note_on_c, 4, 75, 0
6, 222240, Note_on_c, 4, 79, 86
6, 222440, Note_on_c, 4, 79, 0
6, 222480, Note_on_c, 4, 79, 86
6, 222680, Note_on_c, 4, 79, 0
6, 222720, Note_on_c, 4, 80, 86
6, 222920, Note_on_c, 4, 80, 0
6, 222960, Note_on_c, 4, 84, 86
6, 223080, Note_on_c, 4, 84, 0
6, 223080, Note_on_c, 4, 82, 86
6, 223200, Note_on_c, 4, 82, 0
6, 223200, Note_on_c, 4, 80, 86
6, 223260, Note_on_c, 4, 80, 0
6, 223320, Note_on_c, 4, 79, 86
6, 223380, Note_on_c, 4, 79, 0
6, 223440, Note_on_c, 4, 77, 86
6, 223500, Note_on_c, 4, 77, 0
6, 223560, Note_on_c, 4, 75, 86
6, 223620, Note_on_c, 4, 75, 0
6, 223680, Note_on_c, 4, 74, 86
6, 223880, Note_on_c, 4, 74, 0
6, 223920, Note_on_c, 4, 77, 86
6, 224040, Note_on_c, 4, 77, 0
6, 224040, Note_on_c, 4, 75, 86
6, 224140, Note_on_c, 4, 75, 0
6, 224160, Note_on_c, 4, 74, 86
6, 224220, Note_on_c, 4, 74, 0
6, 224280, Note_on_c, 4, 72, 86
6, 224340, Note_on_c, 4, 72, 0
6, 224400, Note_on_c, 4, 70, 86
6, 224460, Note_on_c, 4, 70, 0
6, 224520, Note_on_c, 4, 68, 86
6, 224580, Note_on_c, 4, 68, 0
6, 224640, Note_on_c, 4, 67, 86
6, 224740, Note_on_c, 4, 67, 0
6, 224760, Note_on_c, 4, 70, 86
6, 224860, Note_on_c, 4, 70, 0
6, 224880, Note_on_c, 4, 68, 86
6, 224980, Note_on_c, 4, 68, 0
6, 225000, Note_on_c, 4, 67, 86
6, 225100, Note_on_c, 4, 67, 0
6, 225120, Note_on_c, 4, 68, 86
6, 225220, Note_on_c, 4, 68, 0
6, 225240, Note_on_c, 4, 70, 86
6, 225340, Note_on_c, 4, 70, 0
6, 225360, Note_on_c, 4, 72, 86
6, 225460, Note_on_c, 4, 72, 0
6, 225480, Note_on_c, 4, 74, 86
6, 225580, Note_on_c, 4, 74, 0
6, 225600, Note_on_c, 4, 75, 86
6, 225700, Note_on_c, 4, 75, 0
6, 225720, Note_on_c, 4, 77, 86
6, 225820, Note_on_c, 4, 77, 0
6, 225840, Note_on_c, 4, 79, 86
6, 225940, Note_on_c, 4, 79, 0
6, 225960, Note_on_c, 4, 80, 86
6, 226060, Note_on_c, 4, 80, 0
6, 226080, Note_on_c, 4, 82, 86
6, 226280, Note_on_c, 4, 82, 0
6, 226800, Note_on_c, 4, 60, 64
6, 227000, Note_on_c, 4, 60, 0
6, 227040, Note_on_c, 4, 60, 64
6, 227240, Note_on_c, 4, 60, 0
6, 227280, Note_on_c, 4, 60, 64
6, 227480, Note_on_c, 4, 60, 0
6, 227520, Note_on_c, 4, 60, 64
6, 227720, Note_on_c, 4, 60, 0
6, 227760, Note_on_c, 4, 60, 64
6, 227960, Note_on_c, 4, 60, 0
6, 228000, Note_on_c, 4, 60, 64
6, 228200, Note_on_c, 4, 60, 0
6, 228240, Note_on_c, 4, 60, 64
6, 228440, Note_on_c, 4, 60, 0
6, 228480, Note_on_c, 4, 58, 64
6, 228880, Note_on_c, 4, 58, 0
6, 228960, Note_on_c, 4, 62, 64
6, 229360, Note_on_c, 4, 62, 0
6, 229440, Note_on_c, 4, 63, 64
6, 229840, Note_on_c, 4, 63, 0
6, 230400, Note_on_c, 4, 67, 64
6, 230640, Note_on_c, 4, 67, 0
6, 230640, Note_on_c, 4, 65, 64
6, 230880, Note_on_c, 4, 65, 0
6, 230880, Note_on_c, 4, 63, 64
6, 231690, Note_on_c, 4, 63, 0
6, 231840, Note_on_c, 4, 62, 64
6, 232240, Note_on_c, 4, 62, 0
6, 232320, Note_on_c, 4, 63, 86
6, 232420, Note_on_c, 4, 63, 0
6, 232440, Note_on_c, 4, 58, 86
6, 232540, Note_on_c, 4, 58, 0
6, 232560, Note_on_c, 4, 63, 86
6, 232660, Note_on_c, 4, 63, 0
6, 232680, Note_on_c, 4, 67, 86
6, 232780, Note_on_c, 4, 67, 0
6, 232800, Note_on_c, 4, 70, 86
6, 232900, Note_on_c, 4, 70, 0
6, 232920, Note_on_c, 4, 70, 86
6, 233020, Note_on_c, 4, 70, 0
6, 233040, Note_on_c, 4, 74, 86
6, 233140, Note_on_c, 4, 74, 0
6, 233160, Note_on_c, 4, 77, 86
6, 233260, Note_on_c, 4, 77, 0
6, 233280, Note_on_c, 4, 75, 86
6, 233380, Note_on_c, 4, 75, 0
6, 233400, Note_on_c, 4, 70, 86
6, 233500, Note_on_c, 4, 70, 0
6, 233520, Note_on_c, 4, 75, 86
6, 233620, Note_on_c, 4, 75, 0
6, 233640, Note_on_c, 4, 70, 86
6, 233740, Note_on_c, 4, 70, 0
6, 233760, Note_on_c, 4, 74, 86
6, 233860, Note_on_c, 4, 74, 0
6, 233880, Note_on_c, 4, 77, 86
6, 233980, Note_on_c, 4, 77, 0
6, 234000, Note_on_c, 4, 74, 86
6, 234100, Note_on_c, 4, 74, 0
6, 234120, Note_on_c, 4, 77, 86
6, 234220, Note_on_c, 4, 77, 0
6, 234240, Note_on_c, 4, 75, 86
6, 234340, Note_on_c, 4, 75, 0
6, 234360, Note_on_c, 4, 82, 86
6, 234460, Note_on_c, 4, 82, 0
6, 234480, Note_on_c, 4, 79, 86
6, 234580, Note_on_c, 4, 79, 0
6, 234600, Note_on_c, 4, 75, 86
6, 234700, Note_on_c, 4, 75, 0
6, 234720, Note_on_c, 4, 70, 86
6, 234820, Note_on_c, 4, 70, 0
6, 234840, Note_on_c, 4, 70, 86
6, 234940, Note_on_c, 4, 70, 0
6, 234960, Note_on_c, 4, 74, 86
6, 235060, Note_on_c, 4, 74, 0
6, 235080, Note_on_c, 4, 70, 86
6, 235180, Note_on_c, 4, 70, 0
6, 235200, Note_on_c, 4, 75, 86
6, 235300, Note_on_c, 4, 75, 0
6, 235320, Note_on_c, 4, 70, 86
6, 235420, Note_on_c, 4, 70, 0
6, 235440, Note_on_c, 4, 75, 86
6, 235540, Note_on_c, 4, 75, 0
6, 235560, Note_on_c, 4, 70, 86
6, 235660, Note_on_c, 4, 70, 0
6, 235680, Note_on_c, 4, 74, 86
6, 235780, Note_on_c, 4, 74, 0
6, 235800, Note_on_c, 4, 70, 86
6, 235900, Note_on_c, 4, 70, 0
6, 235920, Note_on_c, 4, 74, 86
6, 236020, Note_on_c, 4, 74, 0
6, 236040, Note_on_c, 4, 70, 86
6, 236140, Note_on_c, 4, 70, 0
6, 236160, Note_on_c, 4, 75, 86
6, 236560, Note_on_c, 4, 75, 0
6, 238320, Note_on_c, 4, 58, 64
6, 238520, Note_on_c, 4, 58, 0
6, 238560, Note_on_c, 4, 58, 64
6, 238760, Note_on_c, 4, 58, 0
6, 238800, Note_on_c, 4, 58, 64
6, 239000, Note_on_c, 4, 58, 0
6, 239040, Note_on_c, 4, 58, 64
6, 239240, Note_on_c, 4, 58, 0
6, 239280, Note_on_c, 4, 58, 64
6, 239480, Note_on_c, 4, 58, 0
6, 239520, Note_on_c, 4, 58, 64
6, 239720, Note_on_c, 4, 58, 0
6, 239760, Note_on_c, 4, 58, 64
6, 239960, Note_on_c, 4, 58, 0
6, 240240, Note_on_c, 4, 67, 64
6, 240440, Note_on_c, 4, 67, 0
6, 240480, Note_on_c, 4, 67, 64
6, 240680, Note_on_c, 4, 67, 0
6, 240720, Note_on_c, 4, 67, 64
6, 240920, Note_on_c, 4, 67, 0
6, 240960, Note_on_c, 4, 67, 64
6, 241160, Note_on_c, 4, 67, 0
6, 241200, Note_on_c, 4, 67, 64
6, 241400, Note_on_c, 4, 67, 0
6, 241440, Note_on_c, 4, 64, 64
6, 241640, Note_on_c, 4, 64, 0
6, 241680, Note_on_c, 4, 64, 64
6, 241880, Note_on_c, 4, 64, 0
6, 242160, Note_on_c, 4, 56, 64
6, 242360, Note_on_c, 4, 56, 0
6, 242400, Note_on_c, 4, 56, 64
6, 242600, Note_on_c, 4, 56, 0
6, 242640, Note_on_c, 4, 56, 64
6, 242840, Note_on_c, 4, 56, 0
6, 242880, Note_on_c, 4, 56, 64
6, 243080, Note_on_c, 4, 56, 0
6, 243120, Note_on_c, 4, 56, 64
6, 243320, Note_on_c, 4, 56, 0
6, 243360, Note_on_c, 4, 56, 64
6, 243560, Note_on_c, 4, 56, 0
6, 243600, Note_on_c, 4, 56, 64
6, 243800, Note_on_c, 4, 56, 0
6, 244080, Note_on_c, 4, 65, 64
6, 244280, Note_on_c, 4, 65, 0
6, 244320, Note_on_c, 4, 65, 64
6, 244520, Note_on_c, 4, 65, 0
6, 244560, Note_on_c, 4, 65, 64
6, 244760, Note_on_c, 4, 65, 0
6, 244800, Note_on_c, 4, 65, 64
6, 245000, Note_on_c, 4, 65, 0
6, 245040, Note_on_c, 4, 65, 64
6, 245280, Note_on_c, 4, 65, 0
6, 245280, Note_on_c, 4, 63, 64
6, 245520, Note_on_c, 4, 63, 0
6, 245520, Note_on_c, 4, 62, 64
6, 245760, Note_on_c, 4, 62, 0
6, 246000, Note_on_c, 4, 63, 64
6, 246200, Note_on_c, 4, 63, 0
6, 246480, Note_on_c, 4, 56, 64
6, 246680, Note_on_c, 4, 56, 0
6, 246960, Note_on_c, 4, 55, 64
6, 247160, Note_on_c, 4, 55, 0
6, 247440, Note_on_c, 4, 63, 64
6, 247640, Note_on_c, 4, 63, 0
6, 247680, Note_on_c, 4, 62, 64
6, 247880, Note_on_c, 4, 62, 0
6, 247920, Note_on_c, 4, 82, 86
6, 248120, Note_on_c, 4, 82, 0
6, 248160, Note_on_c, 4, 82, 86
6, 248360, Note_on_c, 4, 82, 0
6, 248400, Note_on_c, 4, 82, 86
6, 248600, Note_on_c, 4, 82, 0
6, 248640, Note_on_c, 4, 77, 86
6, 248840, Note_on_c, 4, 77, 0
6, 248880, Note_on_c, 4, 82, 86
6, 249080, Note_on_c, 4, 82, 0
6, 249120, Note_on_c, 4, 74, 86
6, 249320, Note_on_c, 4, 74, 0
6, 249360, Note_on_c, 4, 77, 86
6, 249560, Note_on_c, 4, 77, 0
6, 249600, Note_on_c, 4, 70, 86
6, 249800, Note_on_c, 4, 70, 0
6, 250560, Note_on_c, 4, 58, 64
6, 250800, Note_on_c, 4, 58, 0
6, 250800, Note_on_c, 4, 60, 64
6, 251040, Note_on_c, 4, 60, 0
6, 251040, Note_on_c, 4, 62, 64
6, 251280, Note_on_c, 4, 62, 0
6, 251280, Note_on_c, 4, 63, 64
6, 251520, Note_on_c, 4, 63, 0
6, 251520, Note_on_c, 4, 65, 64
6, 251920, Note_on_c, 4, 65, 0
6, 252720, Note_on_c, 4, 74, 64
6, 252920, Note_on_c, 4, 74, 0
6, 252960, Note_on_c, 4, 77, 64
6, 253160, Note_on_c, 4, 77, 0
6, 253200, Note_on_c, 4, 74, 64
6, 253400, Note_on_c, 4, 74, 0
6, 253440, Note_on_c, 4, 77, 64
6, 253640, Note_on_c, 4, 77, 0
6, 253920, Note_on_c, 4, 74, 64
6, 254120, Note_on_c, 4, 74, 0
6, 254400, Note_on_c, 4, 68, 64
6, 254600, Note_on_c, 4, 68, 0
6, 254880, Note_on_c, 4, 65, 64
6, 255080, Note_on_c, 4, 65, 0
6, 255600, Note_on_c, 4, 63, 64
6, 255800, Note_on_c, 4, 63, 0
6, 255840, Note_on_c, 4, 63, 64
6, 256040, Note_on_c, 4, 63, 0
6, 256080, Note_on_c, 4, 63, 64
6, 256280, Note_on_c, 4, 63, 0
6, 256560, Note_on_c, 4, 58, 64
6, 256760, Note_on_c, 4, 58, 0
6, 256800, Note_on_c, 4, 58, 64
6, 257000, Note_on_c, 4, 58, 0
6, 257040, Note_on_c, 4, 58, 64
6, 257240, Note_on_c, 4, 58, 0
6, 257520, Note_on_c, 4, 56, 64
6, 257720, Note_on_c, 4, 56, 0
6, 257760, Note_on_c, 4, 56, 64
6, 257960, Note_on_c, 4, 56, 0
6, 258000, Note_on_c, 4, 56, 64
6, 258200, Note_on_c, 4, 56, 0
6, 258480, Note_on_c, 4, 65, 64
6, 258680, Note_on_c, 4, 65, 0
6, 258720, Note_on_c, 4, 65, 64
6, 258920, Note_on_c, 4, 65, 0
6, 258960, Note_on_c, 4, 65, 64
6, 259160, Note_on_c, 4, 65, 0
6, 259440, Note_on_c, 4, 63, 64
6, 259640, Note_on_c, 4, 63, 0
6, 259680, Note_on_c, 4, 63, 64
6, 259880, Note_on_c, 4, 63, 0
6, 259920, Note_on_c, 4, 63, 64
6, 260120, Note_on_c, 4, 63, 0
6, 260400, Note_on_c, 4, 70, 64
6, 260600, Note_on_c, 4, 70, 0
6, 260640, Note_on_c, 4, 70, 64
6, 260840, Note_on_c, 4, 70, 0
6, 260880, Note_on_c, 4, 70, 64
6, 261080, Note_on_c, 4, 70, 0
6, 261120, Note_on_c, 4, 68, 64
6, 261520, Note_on_c, 4, 68, 0
6, 261600, Note_on_c, 4, 60, 64
6, 262410, Note_on_c, 4, 60, 0
6, 262560, Note_on_c, 4, 65, 64
6, 262960, Note_on_c, 4, 65, 0
6, 263040, Note_on_c, 4, 67, 64
6, 263280, Note_on_c, 4, 67, 0
6, 263280, Note_on_c, 4, 70, 64
6, 263520, Note_on_c, 4, 70, 0
6, 263520, Note_on_c, 4, 63, 64
6, 264130, Note_on_c, 4, 63, 0
6, 264240, Note_on_c, 4, 67, 64
6, 264480, Note_on_c, 4, 67, 0
6, 264480, Note_on_c, 4, 65, 64
6, 264720, Note_on_c, 4, 65, 0
6, 264720, Note_on_c, 4, 62, 64
6, 264960, Note_on_c, 4, 62, 0
6, 264960, Note_on_c, 4, 63, 64
6, 265160, Note_on_c, 4, 63, 0
6, 265200, Note_on_c, 4, 58, 64
6, 265640, Note_on_c, 4, 58, 0
6, 265680, Note_on_c, 4, 58, 64
6, 266120, Note_on_c, 4, 58, 0
6, 266160, Note_on_c, 4, 58, 64
6, 266600, Note_on_c, 4, 58, 0
6, 266640, Note_on_c, 4, 58, 64
6, 267080, Note_on_c, 4, 58, 0
6, 267120, Note_on_c, 4, 63, 64
6, 267360, Note_on_c, 4, 63, 0
6, 267360, Note_on_c, 4, 67, 64
6, 267600, Note_on_c, 4, 67, 0
6, 267600, Note_on_c, 4, 63, 64
6, 267840, Note_on_c, 4, 63, 0
6, 267840, Note_on_c, 4, 68, 64
6, 268080, Note_on_c, 4, 68, 0
6, 268080, Note_on_c, 4, 65, 64
6, 268320, Note_on_c, 4, 65, 0
6, 268320, Note_on_c, 4, 62, 64
6, 268560, Note_on_c, 4, 62, 0
6, 268560, Note_on_c, 4, 65, 64
6, 268800, Note_on_c, 4, 65, 0
6, 268800, Note_on_c, 4, 63, 64
6, 269000, Note_on_c, 4, 63, 0
6, 269040, Note_on_c, 4, 58, 64
6, 269480, Note_on_c, 4, 58, 0
6, 269520, Note_on_c, 4, 58, 64
6, 269960, Note_on_c, 4, 58, 0
6, 270000, Note_on_c, 4, 58, 64
6, 270440, Note_on_c, 4, 58, 0
6, 270480, Note_on_c, 4, 58, 64
6, 270920, Note_on_c, 4, 58, 0
6, 270960, Note_on_c, 4, 63, 64
6, 271200, Note_on_c, 4, 63, 0
6, 271200, Note_on_c, 4, 67, 64
6, 271440, Note_on_c, 4, 67, 0
6, 271440, Note_on_c, 4, 63, 64
6, 271680, Note_on_c, 4, 63, 0
6, 271680, Note_on_c, 4, 68, 64
6, 271920, Note_on_c, 4, 68, 0
6, 271920, Note_on_c, 4, 65, 64
6, 272160, Note_on_c, 4, 65, 0
6, 272160, Note_on_c, 4, 62, 64
6, 272400, Note_on_c, 4, 62, 0
6, 272400, Note_on_c, 4, 65, 64
6, 272640, Note_on_c, 4, 65, 0
6, 272640, Note_on_c, 4, 63, 64
6, 273040, Note_on_c, 4, 63, 0
6, 273840, Note_on_c, 4, 70, 64
6, 274040, Note_on_c, 4, 70, 0
6, 274080, Note_on_c, 4, 70, 64
6, 274280, Note_on_c, 4, 70, 0
6, 274320, Note_on_c, 4, 70, 64
6, 274520, Note_on_c, 4, 70, 0
6, 274560, Note_on_c, 4, 68, 64
6, 274960, Note_on_c, 4, 68, 0
6, 275760, Note_on_c, 4, 65, 64
6, 275960, Note_on_c, 4, 65, 0
6, 276000, Note_on_c, 4, 65, 64
6, 276200, Note_on_c, 4, 65, 0
6, 276240, Note_on_c, 4, 65, 64
6, 276440, Note_on_c, 4, 65, 0
6, 276480, Note_on_c, 4, 67, 64
6, 276580, Note_on_c, 4, 67, 0
6, 276600, Note_on_c, 4, 67, 64
6, 276700, Note_on_c, 4, 67, 0
6, 276720, Note_on_c, 4, 67, 64
6, 276820, Note_on_c, 4, 67, 0
6, 276840, Note_on_c, 4, 67, 64
6, 276940, Note_on_c, 4, 67, 0
6, 276960, Note_on_c, 4, 67, 64
6, 277060, Note_on_c, 4, 67, 0
6, 277080, Note_on_c, 4, 67, 64
6, 277180, Note_on_c, 4, 67, 0
6, 277200, Note_on_c, 4, 67, 64
6, 277300, Note_on_c, 4, 67, 0
6, 277320, Note_on_c, 4, 67, 64
6, 277420, Note_on_c, 4, 67, 0
6, 277440, Note_on_c, 4, 55, 64
6, 277540, Note_on_c, 4, 55, 0
6, 277560, Note_on_c, 4, 55, 64
6, 277660, Note_on_c, 4, 55, 0
6, 277680, Note_on_c, 4, 55, 64
6, 277780, Note_on_c, 4, 55, 0
6, 277800, Note_on_c, 4, 55, 64
6, 277900, Note_on_c, 4, 55, 0
6, 277920, Note_on_c, 4, 55, 64
6, 278020, Note_on_c, 4, 55, 0
6, 278040, Note_on_c, 4, 55, 64
6, 278140, Note_on_c, 4, 55, 0
6, 278160, Note_on_c, 4, 55, 64
6, 278260, Note_on_c, 4, 55, 0
6, 278280, Note_on_c, 4, 55, 64
6, 278380, Note_on_c, 4, 55, 0
6, 278400, Control_c, 4, 11, 94
6, 278400, Note_on_c, 4, 56, 86
6, 278500, Note_on_c, 4, 56, 0
6, 278520, Control_c, 4, 11, 95
6, 278520, Note_on_c, 4, 56, 86
6, 278620, Note_on_c, 4, 56, 0
6, 278640, Control_c, 4, 11, 97
6, 278640, Note_on_c, 4, 56, 86
6, 278740, Note_on_c, 4, 56, 0
6, 278760, Control_c, 4, 11, 100
6, 278760, Note_on_c, 4, 56, 86
6, 278860, Note_on_c, 4, 56, 0
6, 278880, Control_c, 4, 11, 101
6, 278880, Note_on_c, 4, 62, 86
6, 278980, Note_on_c, 4, 62, 0
6, 279000, Control_c, 4, 11, 104
6, 279000, Note_on_c, 4, 62, 86
6, 279100, Note_on_c, 4, 62, 0
6, 279120, Control_c, 4, 11, 106
6, 279120, Note_on_c, 4, 62, 86
6, 279220, Note_on_c, 4, 62, 0
6, 279240, Control_c, 4, 11, 109
6, 279240, Note_on_c, 4, 62, 86
6, 279340, Note_on_c, 4, 62, 0
6, 279360, Control_c, 4, 11, 110
6, 279360, Note_on_c, 4, 65, 86
6, 279460, Note_on_c, 4, 65, 0
6, 279480, Control_c, 4, 11, 113
6, 279480, Note_on_c, 4, 65, 86
6, 279580, Note_on_c, 4, 65, 0
6, 279600, Control_c, 4, 11, 115
6, 279600, Note_on_c, 4, 65, 86
6, 279700, Note_on_c, 4, 65, 0
6, 279720, Control_c, 4, 11, 118
6, 279720, Note_on_c, 4, 65, 86
6, 279820, Note_on_c, 4, 65, 0
6, 279840, Control_c, 4, 11, 119
6, 279840, Note_on_c, 4, 68, 86
6, 279940, Note_on_c, 4, 68, 0
6, 279960, Control_c, 4, 11, 122
6, 279960, Note_on_c, 4, 68, 86
6, 280060, Note_on_c, 4, 68, 0
6, 280080, Control_c, 4, 11, 124
6, 280080, Note_on_c, 4, 68, 86
6, 280180, Note_on_c, 4, 68, 0
6, 280200, Control_c, 4, 11, 127
6, 280200, Note_on_c, 4, 68, 86
6, 280300, Note_on_c, 4, 68, 0
6, 280320, Note_on_c, 4, 67, 86
6, 280420, Note_on_c, 4, 67, 0
6, 280440, Note_on_c, 4, 75, 86
6, 280540, Note_on_c, 4, 75, 0
6, 280560, Note_on_c, 4, 75, 86
6, 280660, Note_on_c, 4, 75, 0
6, 280680, Note_on_c, 4, 75, 86
6, 280780, Note_on_c, 4, 75, 0
6, 280800, Note_on_c, 4, 75, 86
6, 280900, Note_on_c, 4, 75, 0
6, 280920, Note_on_c, 4, 75, 86
6, 281020, Note_on_c, 4, 75, 0
6, 281040, Note_on_c, 4, 75, 86
6, 281140, Note_on_c, 4, 75, 0
6, 281160, Note_on_c, 4, 75, 86
6, 281260, Note_on_c, 4, 75, 0
6, 281280, Note_on_c, 4, 75, 86
6, 281380, Note_on_c, 4, 75, 0
6, 281400, Note_on_c, 4, 75, 86
6, 281500, Note_on_c, 4, 75, 0
6, 281520, Note_on_c, 4, 75, 86
6, 281620, Note_on_c, 4, 75, 0
6, 281640, Note_on_c, 4, 75, 86
6, 281740, Note_on_c, 4, 75, 0
6, 281760, Note_on_c, 4, 75, 86
6, 281860, Note_on_c, 4, 75, 0
6, 281880, Note_on_c, 4, 75, 86
6, 281980, Note_on_c, 4, 75, 0
6, 282000, Note_on_c, 4, 75, 86
6, 282100, Note_on_c, 4, 75, 0
6, 282120, Note_on_c, 4, 75, 86
6, 282220, Note_on_c, 4, 75, 0
6, 282240, Note_on_c, 4, 75, 86
6, 282340, Note_on_c, 4, 75, 0
6, 282360, Note_on_c, 4, 75, 86
6, 282460, Note_on_c, 4, 75, 0
6, 282480, Note_on_c, 4, 75, 86
6, 282580, Note_on_c, 4, 75, 0
6, 282600, Note_on_c, 4, 75, 86
6, 282700, Note_on_c, 4, 75, 0
6, 282720, Note_on_c, 4, 75, 86
6, 282820, Note_on_c, 4, 75, 0
6, 282840, Note_on_c, 4, 75, 86
6, 282940, Note_on_c, 4, 75, 0
6, 282960, Note_on_c, 4, 75, 86
6, 283060, Note_on_c, 4, 75, 0
6, 283080, Note_on_c, 4, 75, 86
6, 283180, Note_on_c, 4, 75, 0
6, 283200, Note_on_c, 4, 75, 86
6, 283300, Note_on_c, 4, 75, 0
6, 283320, Note_on_c, 4, 75, 86
6, 283420, Note_on_c, 4, 75, 0
6, 283440, Note_on_c, 4, 75, 86
6, 283540, Note_on_c, 4, 75, 0
6, 283560, Note_on_c, 4, 75, 86
6, 283660, Note_on_c, 4, 75, 0
6, 283680, Note_on_c, 4, 75, 86
6, 283780, Note_on_c, 4, 75, 0
6, 283800, Note_on_c, 4, 75, 86
6, 283900, Note_on_c, 4, 75, 0
6, 283920, Note_on_c, 4, 75, 86
6, 284020, Note_on_c, 4, 75, 0
6, 284040, Note_on_c, 4, 75, 86
6, 284140, Note_on_c, 4, 75, 0
6, 284160, Note_on_c, 4, 75, 86
6, 284260, Note_on_c, 4, 75, 0
6, 284280, Note_on_c, 4, 75, 86
6, 284380, Note_on_c, 4, 75, 0
6, 284400, Note_on_c, 4, 75, 86
6, 284500, Note_on_c, 4, 75, 0
6, 284520, Note_on_c, 4, 75, 86
6, 284620, Note_on_c, 4, 75, 0
6, 284640, Note_on_c, 4, 75, 86
6, 284740, Note_on_c, 4, 75, 0
6, 284760, Note_on_c, 4, 75, 86
6, 284860, Note_on_c, 4, 75, 0
6, 284880, Note_on_c, 4, 75, 86
6, 284980, Note_on_c, 4, 75, 0
6, 285000, Note_on_c, 4, 75, 86
6, 285100, Note_on_c, 4, 75, 0
6, 285120, Note_on_c, 4, 75, 86
6, 285220, Note_on_c, 4, 75, 0
6, 285240, Note_on_c, 4, 75, 86
6, 285340, Note_on_c, 4, 75, 0
6, 285360, Note_on_c, 4, 75, 86
6, 285460, Note_on_c, 4, 75, 0
6, 285480, Note_on_c, 4, 75, 86
6, 285580, Note_on_c, 4, 75, 0
6, 285600, Note_on_c, 4, 75, 86
6, 285700, Note_on_c, 4, 75, 0
6, 285720, Note_on_c, 4, 75, 86
6, 285820, Note_on_c, 4, 75, 0
6, 285840, Note_on_c, 4, 75, 86
6, 285940, Note_on_c, 4, 75, 0
6, 285960, Note_on_c, 4, 75, 86
6, 286060, Note_on_c, 4, 75, 0
6, 286080, Note_on_c, 4, 75, 86
6, 286180, Note_on_c, 4, 75, 0
6, 286200, Note_on_c, 4, 75, 86
6, 286300, Note_on_c, 4, 75, 0
6, 286320, Note_on_c, 4, 75, 86
6, 286420, Note_on_c, 4, 75, 0
6, 286440, Note_on_c, 4, 75, 86
6, 286540, Note_on_c, 4, 75, 0
6, 286560, Note_on_c, 4, 75, 86
6, 286660, Note_on_c, 4, 75, 0
6, 286680, Note_on_c, 4, 75, 86
6, 286780, Note_on_c, 4, 75, 0
6, 286800, Note_on_c, 4, 75, 86
6, 286900, Note_on_c, 4, 75, 0
6, 286920, Note_on_c, 4, 75, 86
6, 287020, Note_on_c, 4, 75, 0
6, 287040, Note_on_c, 4, 75, 86
6, 287140, Note_on_c, 4, 75, 0
6, 287160, Note_on_c, 4, 75, 86
6, 287260, Note_on_c, 4, 75, 0
6, 287280, Note_on_c, 4, 75, 86
6, 287380, Note_on_c, 4, 75, 0
6, 287400, Note_on_c, 4, 75, 86
6, 287500, Note_on_c, 4, 75, 0
6, 287520, Note_on_c, 4, 75, 86
6, 287620, Note_on_c, 4, 75, 0
6, 287640, Note_on_c, 4, 75, 86
6, 287740, Note_on_c, 4, 75, 0
6, 287760, Note_on_c, 4, 75, 86
6, 287860, Note_on_c, 4, 75, 0
6, 287880, Note_on_c, 4, 75, 86
6, 287980, Note_on_c, 4, 75, 0
6, 288000, Control_c, 4, 11, 95
6, 288000, Note_on_c, 4, 75, 114
6, 288100, Note_on_c, 4, 75, 0
6, 288120, Control_c, 4, 11, 95
6, 288120, Note_on_c, 4, 75, 114
6, 288220, Note_on_c, 4, 75, 0
6, 288240, Control_c, 4, 11, 96
6, 288240, Note_on_c, 4, 75, 114
6, 288340, Note_on_c, 4, 75, 0
6, 288360, Control_c, 4, 11, 98
6, 288360, Note_on_c, 4, 75, 114
6, 288460, Note_on_c, 4, 75, 0
6, 288480, Control_c, 4, 11, 99
6, 288480, Note_on_c, 4, 75, 114
6, 288580, Note_on_c, 4, 75, 0
6, 288600, Control_c, 4, 11, 100
6, 288600, Note_on_c, 4, 75, 114
6, 288700, Note_on_c, 4, 75, 0
6, 288720, Control_c, 4, 11, 101
6, 288720, Note_on_c, 4, 75, 114
6, 288820, Note_on_c, 4, 75, 0
6, 288840, Control_c, 4, 11, 102
6, 288840, Note_on_c, 4, 75, 114
6, 288940, Note_on_c, 4, 75, 0
6, 288960, Control_c, 4, 11, 103
6, 288960, Note_on_c, 4, 75, 114
6, 289060, Note_on_c, 4, 75, 0
6, 289080, Control_c, 4, 11, 103
6, 289080, Note_on_c, 4, 75, 114
6, 289180, Note_on_c, 4, 75, 0
6, 289200, Control_c, 4, 11, 104
6, 289200, Note_on_c, 4, 75, 114
6, 289300, Note_on_c, 4, 75, 0
6, 289320, Control_c, 4, 11, 105
6, 289320, Note_on_c, 4, 75, 114
6, 289420, Note_on_c, 4, 75, 0
6, 289440, Control_c, 4, 11, 106
6, 289440, Note_on_c, 4, 75, 114
6, 289540, Note_on_c, 4, 75, 0
6, 289560, Control_c, 4, 11, 108
6, 289560, Note_on_c, 4, 75, 114
6, 289660, Note_on_c, 4, 75, 0
6, 289680, Control_c, 4, 11, 109
6, 289680, Note_on_c, 4, 75, 114
6, 289780, Note_on_c, 4, 75, 0
6, 289800, Control_c, 4, 11, 110
6, 289800, Note_on_c, 4, 75, 114
6, 289900, Note_on_c, 4, 75, 0
6, 289920, Note_on_c, 4, 75, 114
6, 289920, Control_c, 4, 11, 111
6, 290020, Note_on_c, 4, 75, 0
6, 290040, Note_on_c, 4, 75, 114
6, 290040, Control_c, 4, 11, 111
6, 290140, Note_on_c, 4, 75, 0
6, 290160, Note_on_c, 4, 75, 114
6, 290160, Control_c, 4, 11, 112
6, 290260, Note_on_c, 4, 75, 0
6, 290280, Note_on_c, 4, 75, 114
6, 290280, Control_c, 4, 11, 113
6, 290380, Note_on_c, 4, 75, 0
6, 290400, Note_on_c, 4, 75, 114
6, 290400, Control_c, 4, 11, 114
6, 290500, Note_on_c, 4, 75, 0
6, 290520, Note_on_c, 4, 75, 114
6, 290520, Control_c, 4, 11, 115
6, 290620, Note_on_c, 4, 75, 0
6, 290640, Note_on_c, 4, 75, 114
6, 290640, Control_c, 4, 11, 116
6, 290740, Note_on_c, 4, 75, 0
6, 290760, Note_on_c, 4, 75, 114
6, 290760, Control_c, 4, 11, 118
6, 290860, Note_on_c, 4, 75, 0
6, 290880, Note_on_c, 4, 75, 114
6, 290880, Control_c, 4, 11, 119
6, 290980, Note_on_c, 4, 75, 0
6, 291000, Note_on_c, 4, 75, 114
6, 291000, Control_c, 4, 11, 120
6, 291100, Note_on_c, 4, 75, 0
6, 291120, Note_on_c, 4, 75, 114
6, 291120, Control_c, 4, 11, 120
6, 291220, Note_on_c, 4, 75, 0
6, 291240, Note_on_c, 4, 75, 114
6, 291240, Control_c, 4, 11, 121
6, 291340, Note_on_c, 4, 75, 0
6, 291360, Note_on_c, 4, 75, 114
6, 291360, Control_c, 4, 11, 122
6, 291460, Note_on_c, 4, 75, 0
6, 291480, Note_on_c, 4, 75, 114
6, 291480, Control_c, 4, 11, 123
6, 291580, Note_on_c, 4, 75, 0
6, 291600, Note_on_c, 4, 75, 114
6, 291600, Control_c, 4, 11, 124
6, 291700, Note_on_c, 4, 75, 0
6, 291720, Note_on_c, 4, 75, 114
6, 291720, Control_c, 4, 11, 125
6, 291820, Note_on_c, 4, 75, 0
6, 291840, Control_c, 4, 11, 127
6, 291840, Note_on_c, 4, 75, 83
6, 291840, Note_on_c, 4, 63, 83
6, 291940, Note_on_c, 4, 75, 0
6, 291940, Note_on_c, 4, 63, 0
6, 291960, Note_on_c, 4, 75, 83
6, 291960, Note_on_c, 4, 63, 83
6, 292060, Note_on_c, 4, 75, 0
6, 292060, Note_on_c, 4, 63, 0
6, 292080, Note_on_c, 4, 75, 83
6, 292080, Note_on_c, 4, 63, 83
6, 292180, Note_on_c, 4, 75, 0
6, 292180, Note_on_c, 4, 63, 0
6, 292200, Note_on_c, 4, 75, 83
6, 292200, Note_on_c, 4, 63, 83
6, 292300, Note_on_c, 4, 75, 0
6, 292300, Note_on_c, 4, 63, 0
6, 292320, Note_on_c, 4, 75, 83
6, 292320, Note_on_c, 4, 63, 83
6, 292420, Note_on_c, 4, 75, 0
6, 292420, Note_on_c, 4, 63, 0
6, 292440, Note_on_c, 4, 75, 83
6, 292440, Note_on_c, 4, 63, 83
6, 292540, Note_on_c, 4, 75, 0
6, 292540, Note_on_c, 4, 63, 0
6, 292560, Note_on_c, 4, 75, 83
6, 292560, Note_on_c, 4, 63, 83
6, 292660, Note_on_c, 4, 75, 0
6, 292660, Note_on_c, 4, 63, 0
6, 292680, Note_on_c, 4, 75, 83
6, 292680, Note_on_c, 4, 63, 83
6, 292780, Note_on_c, 4, 75, 0
6, 292780, Note_on_c, 4, 63, 0
6, 292800, Note_on_c, 4, 75, 83
6, 292800, Note_on_c, 4, 63, 83
6, 292900, Note_on_c, 4, 75, 0
6, 292900, Note_on_c, 4, 63, 0
6, 292920, Note_on_c, 4, 75, 83
6, 292920, Note_on_c, 4, 63, 83
6, 293020, Note_on_c, 4, 75, 0
6, 293020, Note_on_c, 4, 63, 0
6, 293040, Note_on_c, 4, 75, 83
6, 293040, Note_on_c, 4, 63, 83
6, 293140, Note_on_c, 4, 75, 0
6, 293140, Note_on_c, 4, 63, 0
6, 293160, Note_on_c, 4, 75, 83
6, 293160, Note_on_c, 4, 63, 83
6, 293260, Note_on_c, 4, 75, 0
6, 293260, Note_on_c, 4, 63, 0
6, 293280, Note_on_c, 4, 75, 83
6, 293280, Note_on_c, 4, 63, 83
6, 293380, Note_on_c, 4, 75, 0
6, 293380, Note_on_c, 4, 63, 0
6, 293400, Note_on_c, 4, 75, 83
6, 293400, Note_on_c, 4, 63, 83
6, 293500, Note_on_c, 4, 75, 0
6, 293500, Note_on_c, 4, 63, 0
6, 293520, Note_on_c, 4, 75, 83
6, 293520, Note_on_c, 4, 63, 83
6, 293620, Note_on_c, 4, 75, 0
6, 293620, Note_on_c, 4, 63, 0
6, 293640, Note_on_c, 4, 75, 83
6, 293640, Note_on_c, 4, 63, 83
6, 293740, Note_on_c, 4, 75, 0
6, 293740, Note_on_c, 4, 63, 0
6, 293760, Note_on_c, 4, 75, 83
6, 293760, Note_on_c, 4, 63, 83
6, 293860, Note_on_c, 4, 75, 0
6, 293860, Note_on_c, 4, 63, 0
6, 293880, Note_on_c, 4, 75, 83
6, 293880, Note_on_c, 4, 63, 83
6, 293980, Note_on_c, 4, 75, 0
6, 293980, Note_on_c, 4, 63, 0
6, 294000, Note_on_c, 4, 75, 83
6, 294000, Note_on_c, 4, 63, 83
6, 294100, Note_on_c, 4, 75, 0
6, 294100, Note_on_c, 4, 63, 0
6, 294120, Note_on_c, 4, 75, 83
6, 294120, Note_on_c, 4, 63, 83
6, 294220, Note_on_c, 4, 75, 0
6, 294220, Note_on_c, 4, 63, 0
6, 294240, Note_on_c, 4, 75, 83
6, 294240, Note_on_c, 4, 63, 83
6, 294340, Note_on_c, 4, 75, 0
6, 294340, Note_on_c, 4, 63, 0
6, 294360, Note_on_c, 4, 75, 83
6, 294360, Note_on_c, 4, 63, 83
6, 294460, Note_on_c, 4, 75, 0
6, 294460, Note_on_c, 4, 63, 0
6, 294480, Note_on_c, 4, 75, 83
6, 294480, Note_on_c, 4, 63, 83
6, 294580, Note_on_c, 4, 75, 0
6, 294580, Note_on_c, 4, 63, 0
6, 294600, Note_on_c, 4, 75, 83
6, 294600, Note_on_c, 4, 63, 83
6, 294700, Note_on_c, 4, 75, 0
6, 294700, Note_on_c, 4, 63, 0
6, 294720, Note_on_c, 4, 75, 83
6, 294720, Note_on_c, 4, 63, 83
6, 294820, Note_on_c, 4, 75, 0
6, 294820, Note_on_c, 4, 63, 0
6, 294840, Note_on_c, 4, 75, 83
6, 294840, Note_on_c, 4, 63, 83
6, 294940, Note_on_c, 4, 75, 0
6, 294940, Note_on_c, 4, 63, 0
6, 294960, Note_on_c, 4, 75, 83
6, 294960, Note_on_c, 4, 63, 83
6, 295060, Note_on_c, 4, 75, 0
6, 295060, Note_on_c, 4, 63, 0
6, 295080, Note_on_c, 4, 75, 83
6, 295080, Note_on_c, 4, 63, 83
6, 295180, Note_on_c, 4, 75, 0
6, 295180, Note_on_c, 4, 63, 0
6, 295200, Note_on_c, 4, 75, 83
6, 295200, Note_on_c, 4, 63, 83
6, 295300, Note_on_c, 4, 75, 0
6, 295300, Note_on_c, 4, 63, 0
6, 295320, Note_on_c, 4, 75, 83
6, 295320, Note_on_c, 4, 63, 83
6, 295420, Note_on_c, 4, 75, 0
6, 295420, Note_on_c, 4, 63, 0
6, 295440, Note_on_c, 4, 75, 83
6, 295440, Note_on_c, 4, 63, 83
6, 295540, Note_on_c, 4, 75, 0
6, 295540, Note_on_c, 4, 63, 0
6, 295560, Note_on_c, 4, 75, 83
6, 295560, Note_on_c, 4, 63, 83
6, 295660, Note_on_c, 4, 75, 0
6, 295660, Note_on_c, 4, 63, 0
6, 295680, Note_on_c, 4, 75, 83
6, 295680, Note_on_c, 4, 63, 83
6, 296490, Note_on_c, 4, 75, 0
6, 296490, Note_on_c, 4, 63, 0
6, 324420, Note_on_c, 4, 75, 86
6, 324820, Note_on_c, 4, 75, 0
6, 324900, Note_on_c, 4, 63, 86
6, 324900, Note_on_c, 4, 55, 86
6, 325300, Note_on_c, 4, 63, 0
6, 325300, Note_on_c, 4, 55, 0
6, 325620, Note_on_c, 4, 67, 86
6, 325740, Note_on_c, 4, 67, 0
6, 325740, Note_on_c, 4, 75, 86
6, 325860, Note_on_c, 4, 75, 0
6, 325860, Note_on_c, 4, 79, 86
6, 326060, Note_on_c, 4, 79, 0
6, 326100, Note_on_c, 4, 79, 86
6, 326300, Note_on_c, 4, 79, 0
6, 326340, Note_on_c, 4, 80, 86
6, 326740, Note_on_c, 4, 80, 0
6, 326820, Note_on_c, 4, 56, 86
6, 327220, Note_on_c, 4, 56, 0
6, 327540, Note_on_c, 4, 72, 86
6, 327660, Note_on_c, 4, 72, 0
6, 327660, Note_on_c, 4, 75, 86
6, 327780, Note_on_c, 4, 75, 0
6, 327780, Note_on_c, 4, 80, 86
6, 327980, Note_on_c, 4, 80, 0
6, 328020, Note_on_c, 4, 80, 86
6, 328220, Note_on_c, 4, 80, 0
6, 328260, Note_on_c, 4, 79, 86
6, 328660, Note_on_c, 4, 79, 0
6, 328740, Note_on_c, 4, 63, 86
6, 328740, Note_on_c, 4, 55, 86
6, 329140, Note_on_c, 4, 63, 0
6, 329140, Note_on_c, 4, 55, 0
6, 329460, Note_on_c, 4, 67, 86
6, 329580, Note_on_c, 4, 67, 0
6, 329580, Note_on_c, 4, 75, 86
6, 329700, Note_on_c, 4, 75, 0
6, 329700, Note_on_c, 4, 79, 86
6, 329900, Note_on_c, 4, 79, 0
6, 329940, Note_on_c, 4, 79, 86
6, 330140, Note_on_c, 4, 79, 0
6, 330180, Note_on_c, 4, 80, 86
6, 330380, Note_on_c, 4, 80, 0
6, 330420, Note_on_c, 4, 84, 86
6, 330520, Note_on_c, 4, 84, 0
6, 330540, Note_on_c, 4, 82, 86
6, 330640, Note_on_c, 4, 82, 0
6, 330660, Note_on_c, 4, 80, 86
6, 330760, Note_on_c, 4, 80, 0
6, 330780, Note_on_c, 4, 79, 86
6, 330880, Note_on_c, 4, 79, 0
6, 330900, Note_on_c, 4, 77, 86
6, 331000, Note_on_c, 4, 77, 0
6, 331020, Note_on_c, 4, 75, 86
6, 331120, Note_on_c, 4, 75, 0
6, 331140, Note_on_c, 4, 74, 86
6, 331340, Note_on_c, 4, 74, 0
6, 331380, Note_on_c, 4, 77, 86
6, 331480, Note_on_c, 4, 77, 0
6, 331500, Note_on_c, 4, 75, 86
6, 331600, Note_on_c, 4, 75, 0
6, 331620, Note_on_c, 4, 74, 86
6, 331720, Note_on_c, 4, 74, 0
6, 331740, Note_on_c, 4, 72, 86
6, 331840, Note_on_c, 4, 72, 0
6, 331860, Note_on_c, 4, 70, 86
6, 331960, Note_on_c, 4, 70, 0
6, 331980, Note_on_c, 4, 68, 86
6, 332080, Note_on_c, 4, 68, 0
6, 332100, Note_on_c, 4, 75, 86
6, 332100, Note_on_c, 4, 67, 86
6, 332200, Note_on_c, 4, 75, 0
6, 332200, Note_on_c, 4, 67, 0
6, 332220, Note_on_c, 4, 75, 86
6, 332220, Note_on_c, 4, 67, 86
6, 332320, Note_on_c, 4, 75, 0
6, 332320, Note_on_c, 4, 67, 0
6, 332340, Note_on_c, 4, 75, 86
6, 332340, Note_on_c, 4, 67, 86
6, 332440, Note_on_c, 4, 75, 0
6, 332440, Note_on_c, 4, 67, 0
6, 332460, Note_on_c, 4, 75, 86
6, 332460, Note_on_c, 4, 67, 86
6, 332560, Note_on_c, 4, 75, 0
6, 332560, Note_on_c, 4, 67, 0
6, 332580, Note_on_c, 4, 75, 86
6, 332580, Note_on_c, 4, 67, 86
6, 332680, Note_on_c, 4, 75, 0
6, 332680, Note_on_c, 4, 67, 0
6, 332700, Note_on_c, 4, 75, 86
6, 332700, Note_on_c, 4, 67, 86
6, 332800, Note_on_c, 4, 75, 0
6, 332800, Note_on_c, 4, 67, 0
6, 332820, Note_on_c, 4, 75, 86
6, 332820, Note_on_c, 4, 67, 86
6, 332920, Note_on_c, 4, 75, 0
6, 332920, Note_on_c, 4, 67, 0
6, 332940, Note_on_c, 4, 75, 86
6, 332940, Note_on_c, 4, 67, 86
6, 333040, Note_on_c, 4, 75, 0
6, 333040, Note_on_c, 4, 67, 0
6, 333060, Note_on_c, 4, 70, 86
6, 333060, Note_on_c, 4, 63, 86
6, 333160, Note_on_c, 4, 70, 0
6, 333160, Note_on_c, 4, 63, 0
6, 333180, Note_on_c, 4, 70, 86
6, 333180, Note_on_c, 4, 63, 86
6, 333280, Note_on_c, 4, 70, 0
6, 333280, Note_on_c, 4, 63, 0
6, 333300, Note_on_c, 4, 70, 86
6, 333300, Note_on_c, 4, 63, 86
6, 333400, Note_on_c, 4, 70, 0
6, 333400, Note_on_c, 4, 63, 0
6, 333420, Note_on_c, 4, 70, 86
6, 333420, Note_on_c, 4, 63, 86
6, 333520, Note_on_c, 4, 70, 0
6, 333520, Note_on_c, 4, 63, 0
6, 333540, Note_on_c, 4, 70, 86
6, 333540, Note_on_c, 4, 63, 86
6, 333640, Note_on_c, 4, 70, 0
6, 333640, Note_on_c, 4, 63, 0
6, 333660, Note_on_c, 4, 70, 86
6, 333660, Note_on_c, 4, 63, 86
6, 333760, Note_on_c, 4, 70, 0
6, 333760, Note_on_c, 4, 63, 0
6, 333780, Note_on_c, 4, 70, 86
6, 333780, Note_on_c, 4, 63, 86
6, 333880, Note_on_c, 4, 70, 0
6, 333880, Note_on_c, 4, 63, 0
6, 333900, Note_on_c, 4, 70, 86
6, 333900, Note_on_c, 4, 63, 86
6, 334000, Note_on_c, 4, 70, 0
6, 334000, Note_on_c, 4, 63, 0
6, 334020, Note_on_c, 4, 72, 86
6, 334020, Note_on_c, 4, 63, 86
6, 334120, Note_on_c, 4, 72, 0
6, 334120, Note_on_c, 4, 63, 0
6, 334140, Note_on_c, 4, 72, 86
6, 334140, Note_on_c, 4, 63, 86
6, 334240, Note_on_c, 4, 72, 0
6, 334240, Note_on_c, 4, 63, 0
6, 334260, Note_on_c, 4, 72, 86
6, 334260, Note_on_c, 4, 63, 86
6, 334360, Note_on_c, 4, 72, 0
6, 334360, Note_on_c, 4, 63, 0
6, 334380, Note_on_c, 4, 72, 86
6, 334380, Note_on_c, 4, 63, 86
6, 334480, Note_on_c, 4, 72, 0
6, 334480, Note_on_c, 4, 63, 0
6, 334500, Note_on_c, 4, 72, 86
6, 334500, Note_on_c, 4, 63, 86
6, 334600, Note_on_c, 4, 72, 0
6, 334600, Note_on_c, 4, 63, 0
6, 334620, Note_on_c, 4, 72, 86
6, 334620, Note_on_c, 4, 63, 86
6, 334720, Note_on_c, 4, 72, 0
6, 334720, Note_on_c, 4, 63, 0
6, 334740, Note_on_c, 4, 72, 86
6, 334740, Note_on_c, 4, 63, 86
6, 334840, Note_on_c, 4, 72, 0
6, 334840, Note_on_c, 4, 63, 0
6, 334860, Note_on_c, 4, 72, 86
6, 334860, Note_on_c, 4, 63, 86
6, 334960, Note_on_c, 4, 72, 0
6, 334960, Note_on_c, 4, 63, 0
6, 334980, Note_on_c, 4, 78, 86
6, 334980, Note_on_c, 4, 75, 86
6, 335080, Note_on_c, 4, 78, 0
6, 335080, Note_on_c, 4, 75, 0
6, 335100, Note_on_c, 4, 78, 86
6, 335100, Note_on_c, 4, 75, 86
6, 335200, Note_on_c, 4, 78, 0
6, 335200, Note_on_c, 4, 75, 0
6, 335220, Note_on_c, 4, 78, 86
6, 335220, Note_on_c, 4, 75, 86
6, 335320, Note_on_c, 4, 78, 0
6, 335320, Note_on_c, 4, 75, 0
6, 335340, Note_on_c, 4, 78, 86
6, 335340, Note_on_c, 4, 75, 86
6, 335440, Note_on_c, 4, 78, 0
6, 335440, Note_on_c, 4, 75, 0
6, 335460, Note_on_c, 4, 78, 86
6, 335460, Note_on_c, 4, 75, 86
6, 335560, Note_on_c, 4, 78, 0
6, 335560, Note_on_c, 4, 75, 0
6, 335580, Note_on_c, 4, 78, 86
6, 335580, Note_on_c, 4, 75, 86
6, 335680, Note_on_c, 4, 78, 0
6, 335680, Note_on_c, 4, 75, 0
6, 335700, Note_on_c, 4, 78, 86
6, 335700, Note_on_c, 4, 75, 86
6, 335800, Note_on_c, 4, 78, 0
6, 335800, Note_on_c, 4, 75, 0
6, 335820, Note_on_c, 4, 78, 86
6, 335820, Note_on_c, 4, 75, 86
6, 335920, Note_on_c, 4, 78, 0
6, 335920, Note_on_c, 4, 75, 0
6, 335940, Note_on_c, 4, 79, 86
6, 335940, Note_on_c, 4, 75, 86
6, 336140, Note_on_c, 4, 79, 0
6, 336140, Note_on_c, 4, 75, 0
6, 336180, Note_on_c, 4, 79, 86
6, 336280, Note_on_c, 4, 79, 0
6, 336300, Note_on_c, 4, 75, 86
6, 336400, Note_on_c, 4, 75, 0
6, 336420, Note_on_c, 4, 70, 86
6, 336620, Note_on_c, 4, 70, 0
6, 336660, Note_on_c, 4, 67, 86
6, 336760, Note_on_c, 4, 67, 0
6, 336780, Note_on_c, 4, 63, 86
6, 336880, Note_on_c, 4, 63, 0
6, 336900, Note_on_c, 4, 58, 86
6, 337300, Note_on_c, 4, 58, 0
6, 337380, Note_on_c, 4, 74, 86
6, 337380, Note_on_c, 4, 65, 86
6, 337380, Note_on_c, 4, 58, 86
6, 337780, Note_on_c, 4, 74, 0
6, 337780, Note_on_c, 4, 65, 0
6, 337780, Note_on_c, 4, 58, 0
6, 337860, Note_on_c, 4, 75, 86
6, 337860, Note_on_c, 4, 63, 86
6, 337860, Note_on_c, 4, 55, 86
6, 338260, Note_on_c, 4, 75, 0
6, 338260, Note_on_c, 4, 63, 0
6, 338260, Note_on_c, 4, 55, 0
6, 338820, Note_on_c, 4, 61, 64
6, 339630, Note_on_c, 4, 61, 0
6, 339780, Note_on_c, 4, 60, 64
6, 340740, Note_on_c, 4, 60, 0
6, 340740, Note_on_c, 4, 56, 64
6, 341700, Note_on_c, 4, 56, 0
6, 341700, Note_on_c, 4, 55, 64
6, 342660, Note_on_c, 4, 55, 0
6, 342660, Note_on_c, 4, 61, 64
6, 343620, Note_on_c, 4, 61, 0
6, 343620, Note_on_c, 4, 60, 64
6, 344430, Note_on_c, 4, 60, 0
6, 344580, Note_on_c, 4, 56, 64
6, 344820, Note_on_c, 4, 56, 0
6, 344820, Note_on_c, 4, 55, 64
6, 345060, Note_on_c, 4, 55, 0
6, 345060, Note_on_c, 4, 56, 64
6, 345300, Note_on_c, 4, 56, 0
6, 345300, Note_on_c, 4, 58, 64
6, 345540, Note_on_c, 4, 58, 0
6, 345540, Note_on_c, 4, 55, 40
6, 345660, Note_on_c, 4, 55, 0
6, 345660, Note_on_c, 4, 56, 40
6, 345780, Note_on_c, 4, 56, 0
6, 345780, Note_on_c, 4, 55, 40
6, 345900, Note_on_c, 4, 55, 0
6, 345900, Note_on_c, 4, 56, 40
6, 346020, Note_on_c, 4, 56, 0
6, 346020, Note_on_c, 4, 55, 40
6, 346260, Note_on_c, 4, 55, 0
6, 346500, Note_on_c, 4, 58, 40
6, 346620, Note_on_c, 4, 58, 0
6, 346620, Note_on_c, 4, 57, 40
6, 346740, Note_on_c, 4, 57, 0
6, 346740, Note_on_c, 4, 58, 40
6, 346860, Note_on_c, 4, 58, 0
6, 346860, Note_on_c, 4, 57, 40
6, 346980, Note_on_c, 4, 57, 0
6, 346980, Note_on_c, 4, 58, 40
6, 347220, Note_on_c, 4, 58, 0
6, 347460, Note_on_c, 4, 56, 40
6, 347580, Note_on_c, 4, 56, 0
6, 347580, Note_on_c, 4, 55, 40
6, 347700, Note_on_c, 4, 55, 0
6, 347700, Note_on_c, 4, 56, 40
6, 347820, Note_on_c, 4, 56, 0
6, 347820, Note_on_c, 4, 55, 40
6, 347940, Note_on_c, 4, 55, 0
6, 347940, Note_on_c, 4, 56, 40
6, 348180, Note_on_c, 4, 56, 0
6, 348420, Note_on_c, 4, 56, 40
6, 348540, Note_on_c, 4, 56, 0
6, 348540, Note_on_c, 4, 55, 40
6, 348660, Note_on_c, 4, 55, 0
6, 348660, Note_on_c, 4, 56, 40
6, 348780, Note_on_c, 4, 56, 0
6, 348780, Note_on_c, 4, 55, 40
6, 348900, Note_on_c, 4, 55, 0
6, 348900, Note_on_c, 4, 56, 40
6, 349020, Note_on_c, 4, 56, 0
6, 349020, Note_on_c, 4, 60, 40
6, 349140, Note_on_c, 4, 60, 0
6, 349140, Note_on_c, 4, 58, 40
6, 349260, Note_on_c, 4, 58, 0
6, 349260, Note_on_c, 4, 56, 40
6, 349360, Note_on_c, 4, 56, 0
6, 349380, Note_on_c, 4, 55, 40
6, 349500, Note_on_c, 4, 55, 0
6, 349500, Note_on_c, 4, 56, 40
6, 349620, Note_on_c, 4, 56, 0
6, 349620, Note_on_c, 4, 55, 40
6, 349740, Note_on_c, 4, 55, 0
6, 349740, Note_on_c, 4, 56, 40
6, 349860, Note_on_c, 4, 56, 0
6, 349860, Note_on_c, 4, 55, 40
6, 350100, Note_on_c, 4, 55, 0
6, 350340, Note_on_c, 4, 70, 40
6, 350460, Note_on_c, 4, 70, 0
6, 350460, Note_on_c, 4, 69, 40
6, 350580, Note_on_c, 4, 69, 0
6, 350580, Note_on_c, 4, 70, 40
6, 350700, Note_on_c, 4, 70, 0
6, 350700, Note_on_c, 4, 69, 40
6, 350820, Note_on_c, 4, 69, 0
6, 350820, Note_on_c, 4, 70, 40
6, 351060, Note_on_c, 4, 70, 0
6, 351300, Note_on_c, 4, 68, 40
6, 351420, Note_on_c, 4, 68, 0
6, 351420, Note_on_c, 4, 67, 40
6, 351540, Note_on_c, 4, 67, 0
6, 351540, Note_on_c, 4, 68, 40
6, 351660, Note_on_c, 4, 68, 0
6, 351660, Note_on_c, 4, 67, 40
6, 351780, Note_on_c, 4, 67, 0
6, 351780, Note_on_c, 4, 68, 40
6, 352020, Note_on_c, 4, 68, 0
6, 352260, Note_on_c, 4, 56, 40
6, 352500, Note_on_c, 4, 56, 0
6, 352500, Note_on_c, 4, 55, 40
6, 352740, Note_on_c, 4, 55, 0
6, 352740, Note_on_c, 4, 56, 40
6, 352980, Note_on_c, 4, 56, 0
6, 352980, Note_on_c, 4, 58, 40
6, 353180, Note_on_c, 4, 58, 0
6, 353220, Note_on_c, 4, 55, 96
6, 353320, Note_on_c, 4, 55, 0
6, 353340, Note_on_c, 4, 58, 96
6, 353440, Note_on_c, 4, 58, 0
6, 353460, Note_on_c, 4, 63, 96
6, 353560, Note_on_c, 4, 63, 0
6, 353580, Note_on_c, 4, 67, 96
6, 353680, Note_on_c, 4, 67, 0
6, 353700, Note_on_c, 4, 70, 96
6, 353800, Note_on_c, 4, 70, 0
6, 353820, Note_on_c, 4, 70, 96
6, 353920, Note_on_c, 4, 70, 0
6, 353940, Note_on_c, 4, 74, 96
6, 354040, Note_on_c, 4, 74, 0
6, 354060, Note_on_c, 4, 77, 96
6, 354160, Note_on_c, 4, 77, 0
6, 354180, Note_on_c, 4, 75, 96
6, 354280, Note_on_c, 4, 75, 0
6, 354300, Note_on_c, 4, 70, 96
6, 354400, Note_on_c, 4, 70, 0
6, 354420, Note_on_c, 4, 75, 96
6, 354520, Note_on_c, 4, 75, 0
6, 354540, Note_on_c, 4, 70, 96
6, 354640, Note_on_c, 4, 70, 0
6, 354660, Note_on_c, 4, 74, 96
6, 354760, Note_on_c, 4, 74, 0
6, 354780, Note_on_c, 4, 77, 96
6, 354880, Note_on_c, 4, 77, 0
6, 354900, Note_on_c, 4, 74, 96
6, 355000, Note_on_c, 4, 74, 0
6, 355020, Note_on_c, 4, 77, 96
6, 355120, Note_on_c, 4, 77, 0
6, 355140, Note_on_c, 4, 75, 96
6, 355240, Note_on_c, 4, 75, 0
6, 355260, Note_on_c, 4, 82, 96
6, 355360, Note_on_c, 4, 82, 0
6, 355380, Note_on_c, 4, 79, 96
6, 355480, Note_on_c, 4, 79, 0
6, 355500, Note_on_c, 4, 75, 96
6, 355600, Note_on_c, 4, 75, 0
6, 355620, Note_on_c, 4, 70, 96
6, 355720, Note_on_c, 4, 70, 0
6, 355740, Note_on_c, 4, 70, 96
6, 355840, Note_on_c, 4, 70, 0
6, 355860, Note_on_c, 4, 74, 96
6, 355960, Note_on_c, 4, 74, 0
6, 355980, Note_on_c, 4, 70, 96
6, 356080, Note_on_c, 4, 70, 0
6, 356100, Note_on_c, 4, 75, 96
6, 356200, Note_on_c, 4, 75, 0
6, 356220, Note_on_c, 4, 70, 96
6, 356320, Note_on_c, 4, 70, 0
6, 356340, Note_on_c, 4, 75, 96
6, 356440, Note_on_c, 4, 75, 0
6, 356460, Note_on_c, 4, 70, 96
6, 356560, Note_on_c, 4, 70, 0
6, 356580, Note_on_c, 4, 74, 96
6, 356680, Note_on_c, 4, 74, 0
6, 356700, Note_on_c, 4, 70, 96
6, 356800, Note_on_c, 4, 70, 0
6, 356820, Note_on_c, 4, 74, 96
6, 356920, Note_on_c, 4, 74, 0
6, 356940, Note_on_c, 4, 70, 96
6, 357040, Note_on_c, 4, 70, 0
6, 357060, Note_on_c, 4, 75, 96
6, 357460, Note_on_c, 4, 75, 0
6, 357780, Note_on_c, 4, 79, 96
6, 357900, Note_on_c, 4, 79, 0
6, 357900, Note_on_c, 4, 77, 96
6, 358020, Note_on_c, 4, 77, 0
6, 358020, Note_on_c, 4, 75, 96
6, 358420, Note_on_c, 4, 75, 0
6, 358500, Note_on_c, 4, 75, 96
6, 358900, Note_on_c, 4, 75, 0
6, 358980, Note_on_c, 4, 75, 96
6, 359380, Note_on_c, 4, 75, 0
6, 359700, Note_on_c, 4, 70, 96
6, 359820, Note_on_c, 4, 70, 0
6, 359820, Note_on_c, 4, 68, 96
6, 359940, Note_on_c, 4, 68, 0
6, 359940, Note_on_c, 4, 67, 96
6, 360340, Note_on_c, 4, 67, 0
6, 360420, Note_on_c, 4, 67, 96
6, 360820, Note_on_c, 4, 67, 0
6, 360900, Note_on_c, 4, 67, 96
6, 361300, Note_on_c, 4, 67, 0
6, 361860, Note_on_c, 4, 75, 96
6, 361860, Note_on_c, 4, 67, 96
6, 361860, Note_on_c, 4, 58, 96
6, 362260, Note_on_c, 4, 75, 0
6, 362260, Note_on_c, 4, 67, 0
6, 362260, Note_on_c, 4, 58, 0
6, 362820, Note_on_c, 4, 63, 96
6, 362820, Note_on_c, 4, 55, 96
6, 363630, Note_on_c, 4, 63, 0
6, 363630, Note_on_c, 4, 55, 0
6, 364800, End_track
7, 0, Start_track
7, 0, Title_t, "Viola I, II                         "
7, 0, Control_c, 5, 7, 65
7, 160, Control_c, 5, 91, 100
7, 320, Control_c, 5, 93, 30
7, 480, Control_c, 5, 10, 110
7, 640, Control_c, 5, 0, 0
7, 640, Control_c, 5, 32, 0
7, 640, Program_c, 5, 48
7, 800, Control_c, 5, 121, 0
7, 960, Pitch_bend_c, 5, 8192
7, 1120, Control_c, 5, 1, 0
7, 1280, Control_c, 5, 11, 127
7, 1440, Control_c, 5, 65, 0
7, 1600, Control_c, 5, 66, 0
7, 1760, Control_c, 5, 67, 0
7, 2160, Note_on_c, 5, 63, 86
7, 2360, Note_on_c, 5, 63, 0
7, 2400, Note_on_c, 5, 67, 86
7, 2600, Note_on_c, 5, 67, 0
7, 2640, Note_on_c, 5, 70, 86
7, 2840, Note_on_c, 5, 70, 0
7, 2880, Note_on_c, 5, 58, 86
7, 3280, Note_on_c, 5, 58, 0
7, 3360, Note_on_c, 5, 70, 86
7, 3760, Note_on_c, 5, 70, 0
7, 4080, Note_on_c, 5, 63, 86
7, 4280, Note_on_c, 5, 63, 0
7, 4320, Note_on_c, 5, 67, 86
7, 4520, Note_on_c, 5, 67, 0
7, 4560, Note_on_c, 5, 70, 86
7, 4760, Note_on_c, 5, 70, 0
7, 4800, Note_on_c, 5, 58, 86
7, 5200, Note_on_c, 5, 58, 0
7, 5280, Note_on_c, 5, 70, 86
7, 5680, Note_on_c, 5, 70, 0
7, 6000, Note_on_c, 5, 63, 86
7, 6200, Note_on_c, 5, 63, 0
7, 6240, Note_on_c, 5, 67, 86
7, 6440, Note_on_c, 5, 67, 0
7, 6480, Note_on_c, 5, 70, 86
7, 6680, Note_on_c, 5, 70, 0
7, 6720, Note_on_c, 5, 67, 86
7, 6920, Note_on_c, 5, 67, 0
7, 6960, Note_on_c, 5, 70, 86
7, 7160, Note_on_c, 5, 70, 0
7, 7200, Note_on_c, 5, 63, 86
7, 7400, Note_on_c, 5, 63, 0
7, 7440, Note_on_c, 5, 67, 86
7, 7640, Note_on_c, 5, 67, 0
7, 7680, Note_on_c, 5, 68, 86
7, 7880, Note_on_c, 5, 68, 0
7, 7920, Note_on_c, 5, 65, 86
7, 8120, Note_on_c, 5, 65, 0
7, 8160, Note_on_c, 5, 62, 86
7, 8360, Note_on_c, 5, 62, 0
7, 8400, Note_on_c, 5, 58, 86
7, 8600, Note_on_c, 5, 58, 0
7, 8640, Note_on_c, 5, 63, 86
7, 8840, Note_on_c, 5, 63, 0
7, 8880, Note_on_c, 5, 63, 86
7, 9080, Note_on_c, 5, 63, 0
7, 9120, Note_on_c, 5, 65, 86
7, 9320, Note_on_c, 5, 65, 0
7, 9360, Note_on_c, 5, 67, 86
7, 9560, Note_on_c, 5, 67, 0
7, 9600, Note_on_c, 5, 68, 86
7, 9800, Note_on_c, 5, 68, 0
7, 9840, Note_on_c, 5, 56, 86
7, 10040, Note_on_c, 5, 56, 0
7, 10080, Note_on_c, 5, 60, 86
7, 10280, Note_on_c, 5, 60, 0
7, 10320, Note_on_c, 5, 63, 86
7, 10520, Note_on_c, 5, 63, 0
7, 10560, Note_on_c, 5, 68, 86
7, 10760, Note_on_c, 5, 68, 0
7, 10800, Note_on_c, 5, 63, 86
7, 11000, Note_on_c, 5, 63, 0
7, 11040, Note_on_c, 5, 60, 86
7, 11240, Note_on_c, 5, 60, 0
7, 11280, Note_on_c, 5, 56, 86
7, 11480, Note_on_c, 5, 56, 0
7, 11760, Note_on_c, 5, 63, 86
7, 11960, Note_on_c, 5, 63, 0
7, 12000, Note_on_c, 5, 67, 86
7, 12200, Note_on_c, 5, 67, 0
7, 12240, Note_on_c, 5, 70, 86
7, 12440, Note_on_c, 5, 70, 0
7, 12480, Note_on_c, 5, 75, 86
7, 12680, Note_on_c, 5, 75, 0
7, 12720, Note_on_c, 5, 70, 86
7, 12920, Note_on_c, 5, 70, 0
7, 12960, Note_on_c, 5, 67, 86
7, 13160, Note_on_c, 5, 67, 0
7, 13200, Note_on_c, 5, 63, 86
7, 13400, Note_on_c, 5, 63, 0
7, 13440, Note_on_c, 5, 60, 86
7, 14050, Note_on_c, 5, 60, 0
7, 14160, Note_on_c, 5, 72, 86
7, 14360, Note_on_c, 5, 72, 0
7, 14400, Note_on_c, 5, 65, 86
7, 15010, Note_on_c, 5, 65, 0
7, 15120, Note_on_c, 5, 65, 86
7, 15320, Note_on_c, 5, 65, 0
7, 15360, Note_on_c, 5, 63, 86
7, 15560, Note_on_c, 5, 63, 0
7, 15600, Note_on_c, 5, 63, 86
7, 15800, Note_on_c, 5, 63, 0
7, 15840, Note_on_c, 5, 62, 86
7, 16040, Note_on_c, 5, 62, 0
7, 16080, Note_on_c, 5, 56, 86
7, 16280, Note_on_c, 5, 56, 0
7, 16320, Note_on_c, 5, 58, 86
7, 16520, Note_on_c, 5, 58, 0
7, 16560, Note_on_c, 5, 62, 86
7, 16760, Note_on_c, 5, 62, 0
7, 16800, Note_on_c, 5, 67, 86
7, 17000, Note_on_c, 5, 67, 0
7, 17040, Note_on_c, 5, 67, 86
7, 17240, Note_on_c, 5, 67, 0
7, 17280, Note_on_c, 5, 63, 86
7, 17480, Note_on_c, 5, 63, 0
7, 17520, Note_on_c, 5, 63, 86
7, 17720, Note_on_c, 5, 63, 0
7, 17760, Note_on_c, 5, 62, 86
7, 17960, Note_on_c, 5, 62, 0
7, 18000, Note_on_c, 5, 70, 86
7, 18200, Note_on_c, 5, 70, 0
7, 18240, Note_on_c, 5, 60, 86
7, 18440, Note_on_c, 5, 60, 0
7, 18480, Note_on_c, 5, 60, 86
7, 18680, Note_on_c, 5, 60, 0
7, 18720, Note_on_c, 5, 65, 86
7, 18920, Note_on_c, 5, 65, 0
7, 18960, Note_on_c, 5, 65, 86
7, 19160, Note_on_c, 5, 65, 0
7, 19200, Note_on_c, 5, 62, 86
7, 19300, Note_on_c, 5, 62, 0
7, 19320, Note_on_c, 5, 65, 86
7, 19420, Note_on_c, 5, 65, 0
7, 19440, Note_on_c, 5, 62, 86
7, 19540, Note_on_c, 5, 62, 0
7, 19560, Note_on_c, 5, 58, 86
7, 19660, Note_on_c, 5, 58, 0
7, 19680, Note_on_c, 5, 62, 86
7, 19780, Note_on_c, 5, 62, 0
7, 19800, Note_on_c, 5, 65, 86
7, 19900, Note_on_c, 5, 65, 0
7, 19920, Note_on_c, 5, 62, 86
7, 20020, Note_on_c, 5, 62, 0
7, 20040, Note_on_c, 5, 58, 86
7, 20140, Note_on_c, 5, 58, 0
7, 20160, Note_on_c, 5, 67, 86
7, 20260, Note_on_c, 5, 67, 0
7, 20280, Note_on_c, 5, 70, 86
7, 20380, Note_on_c, 5, 70, 0
7, 20400, Note_on_c, 5, 67, 86
7, 20500, Note_on_c, 5, 67, 0
7, 20520, Note_on_c, 5, 63, 86
7, 20620, Note_on_c, 5, 63, 0
7, 20640, Note_on_c, 5, 67, 86
7, 20740, Note_on_c, 5, 67, 0
7, 20760, Note_on_c, 5, 70, 86
7, 20860, Note_on_c, 5, 70, 0
7, 20880, Note_on_c, 5, 67, 86
7, 20980, Note_on_c, 5, 67, 0
7, 21000, Note_on_c, 5, 63, 86
7, 21100, Note_on_c, 5, 63, 0
7, 21120, Note_on_c, 5, 62, 86
7, 21220, Note_on_c, 5, 62, 0
7, 21240, Note_on_c, 5, 65, 86
7, 21340, Note_on_c, 5, 65, 0
7, 21360, Note_on_c, 5, 62, 86
7, 21460, Note_on_c, 5, 62, 0
7, 21480, Note_on_c, 5, 58, 86
7, 21580, Note_on_c, 5, 58, 0
7, 21600, Note_on_c, 5, 62, 86
7, 21700, Note_on_c, 5, 62, 0
7, 21720, Note_on_c, 5, 65, 86
7, 21820, Note_on_c, 5, 65, 0
7, 21840, Note_on_c, 5, 62, 86
7, 21940, Note_on_c, 5, 62, 0
7, 21960, Note_on_c, 5, 58, 86
7, 22060, Note_on_c, 5, 58, 0
7, 22080, Note_on_c, 5, 67, 86
7, 22180, Note_on_c, 5, 67, 0
7, 22200, Note_on_c, 5, 70, 86
7, 22300, Note_on_c, 5, 70, 0
7, 22320, Note_on_c, 5, 67, 86
7, 22420, Note_on_c, 5, 67, 0
7, 22440, Note_on_c, 5, 63, 86
7, 22540, Note_on_c, 5, 63, 0
7, 22560, Note_on_c, 5, 67, 86
7, 22660, Note_on_c, 5, 67, 0
7, 22680, Note_on_c, 5, 70, 86
7, 22780, Note_on_c, 5, 70, 0
7, 22800, Note_on_c, 5, 67, 86
7, 22900, Note_on_c, 5, 67, 0
7, 22920, Note_on_c, 5, 63, 86
7, 23020, Note_on_c, 5, 63, 0
7, 23040, Note_on_c, 5, 58, 86
7, 23240, Note_on_c, 5, 58, 0
7, 23280, Note_on_c, 5, 70, 86
7, 23480, Note_on_c, 5, 70, 0
7, 23520, Note_on_c, 5, 58, 86
7, 23720, Note_on_c, 5, 58, 0
7, 23760, Note_on_c, 5, 58, 86
7, 23960, Note_on_c, 5, 58, 0
7, 24000, Note_on_c, 5, 58, 86
7, 24400, Note_on_c, 5, 58, 0
7, 24960, Note_on_c, 5, 51, 64
7, 25920, Note_on_c, 5, 51, 0
7, 25920, Note_on_c, 5, 50, 64
7, 26400, Note_on_c, 5, 50, 0
7, 26400, Note_on_c, 5, 56, 64
7, 26800, Note_on_c, 5, 56, 0
7, 26880, Note_on_c, 5, 55, 64
7, 27280, Note_on_c, 5, 55, 0
7, 27600, Note_on_c, 5, 55, 64
7, 27840, Note_on_c, 5, 55, 0
7, 27840, Note_on_c, 5, 53, 64
7, 28320, Note_on_c, 5, 53, 0
7, 28560, Note_on_c, 5, 62, 64
7, 28800, Note_on_c, 5, 62, 0
7, 28800, Note_on_c, 5, 63, 64
7, 29200, Note_on_c, 5, 63, 0
7, 29280, Note_on_c, 5, 51, 64
7, 29760, Note_on_c, 5, 51, 0
7, 29760, Note_on_c, 5, 50, 64
7, 30240, Note_on_c, 5, 50, 0
7, 30240, Note_on_c, 5, 53, 64
7, 30720, Note_on_c, 5, 53, 0
7, 30720, Note_on_c, 5, 51, 64
7, 31120, Note_on_c, 5, 51, 0
7, 31440, Note_on_c, 5, 55, 64
7, 31680, Note_on_c, 5, 55, 0
7, 31680, Note_on_c, 5, 53, 64
7, 32160, Note_on_c, 5, 53, 0
7, 32400, Note_on_c, 5, 62, 64
7, 32640, Note_on_c, 5, 62, 0
7, 32640, Note_on_c, 5, 63, 64
7, 33120, Note_on_c, 5, 63, 0
7, 33120, Note_on_c, 5, 51, 64
7, 33930, Note_on_c, 5, 51, 0
7, 34080, Note_on_c, 5, 63, 64
7, 34480, Note_on_c, 5, 63, 0
7, 34560, Note_on_c, 5, 62, 64
7, 36190, Note_on_c, 5, 62, 0
7, 36480, Note_on_c, 5, 61, 64
7, 38110, Note_on_c, 5, 61, 0
7, 38400, Control_c, 5, 11, 94
7, 38400, Note_on_c, 5, 60, 86
7, 39000, Control_c, 5, 11, 94
7, 39120, Control_c, 5, 11, 94
7, 39210, Note_on_c, 5, 60, 0
7, 39240, Control_c, 5, 11, 95
7, 39360, Control_c, 5, 11, 95
7, 39360, Note_on_c, 5, 56, 86
7, 39480, Control_c, 5, 11, 97
7, 39600, Control_c, 5, 11, 97
7, 39720, Control_c, 5, 11, 98
7, 39840, Control_c, 5, 11, 98
7, 39960, Control_c, 5, 11, 100
7, 40080, Control_c, 5, 11, 100
7, 40170, Note_on_c, 5, 56, 0
7, 40200, Control_c, 5, 11, 101
7, 40320, Note_on_c, 5, 55, 86
7, 40320, Control_c, 5, 11, 101
7, 40440, Control_c, 5, 11, 103
7, 40520, Note_on_c, 5, 55, 0
7, 40560, Note_on_c, 5, 55, 86
7, 40560, Control_c, 5, 11, 103
7, 40680, Control_c, 5, 11, 104
7, 40760, Note_on_c, 5, 55, 0
7, 40800, Note_on_c, 5, 56, 86
7, 40800, Control_c, 5, 11, 106
7, 40920, Control_c, 5, 11, 106
7, 41000, Note_on_c, 5, 56, 0
7, 41040, Note_on_c, 5, 56, 86
7, 41040, Control_c, 5, 11, 107
7, 41160, Control_c, 5, 11, 107
7, 41240, Note_on_c, 5, 56, 0
7, 41280, Note_on_c, 5, 55, 86
7, 41280, Control_c, 5, 11, 109
7, 41400, Control_c, 5, 11, 109
7, 41480, Note_on_c, 5, 55, 0
7, 41520, Note_on_c, 5, 55, 86
7, 41520, Control_c, 5, 11, 110
7, 41640, Control_c, 5, 11, 110
7, 41720, Note_on_c, 5, 55, 0
7, 41760, Note_on_c, 5, 53, 86
7, 41760, Control_c, 5, 11, 112
7, 41880, Control_c, 5, 11, 112
7, 41960, Note_on_c, 5, 53, 0
7, 42000, Note_on_c, 5, 53, 86
7, 42000, Control_c, 5, 11, 113
7, 42120, Control_c, 5, 11, 113
7, 42200, Note_on_c, 5, 53, 0
7, 42240, Note_on_c, 5, 51, 86
7, 42240, Control_c, 5, 11, 115
7, 42360, Control_c, 5, 11, 115
7, 42440, Note_on_c, 5, 51, 0
7, 42480, Note_on_c, 5, 51, 86
7, 42480, Control_c, 5, 11, 116
7, 42600, Control_c, 5, 11, 116
7, 42680, Note_on_c, 5, 51, 0
7, 42720, Note_on_c, 5, 63, 86
7, 42720, Control_c, 5, 11, 118
7, 42840, Control_c, 5, 11, 118
7, 42920, Note_on_c, 5, 63, 0
7, 42960, Note_on_c, 5, 63, 86
7, 42960, Control_c, 5, 11, 119
7, 43080, Control_c, 5, 11, 121
7, 43160, Note_on_c, 5, 63, 0
7, 43200, Note_on_c, 5, 63, 86
7, 43200, Control_c, 5, 11, 121
7, 43320, Control_c, 5, 11, 122
7, 43400, Note_on_c, 5, 63, 0
7, 43440, Note_on_c, 5, 63, 86
7, 43440, Control_c, 5, 11, 122
7, 43560, Control_c, 5, 11, 124
7, 43640, Note_on_c, 5, 63, 0
7, 43680, Note_on_c, 5, 68, 86
7, 43680, Control_c, 5, 11, 124
7, 43800, Control_c, 5, 11, 125
7, 43880, Note_on_c, 5, 68, 0
7, 43920, Note_on_c, 5, 68, 86
7, 43920, Control_c, 5, 11, 125
7, 44040, Control_c, 5, 11, 127
7, 44120, Note_on_c, 5, 68, 0
7, 44160, Note_on_c, 5, 67, 86
7, 44360, Note_on_c, 5, 67, 0
7, 44400, Note_on_c, 5, 63, 86
7, 44600, Note_on_c, 5, 63, 0
7, 44640, Note_on_c, 5, 63, 86
7, 44840, Note_on_c, 5, 63, 0
7, 44880, Note_on_c, 5, 63, 86
7, 45080, Note_on_c, 5, 63, 0
7, 45120, Note_on_c, 5, 61, 86
7, 45320, Note_on_c, 5, 61, 0
7, 45360, Note_on_c, 5, 61, 86
7, 45560, Note_on_c, 5, 61, 0
7, 45600, Note_on_c, 5, 61, 86
7, 45800, Note_on_c, 5, 61, 0
7, 45840, Note_on_c, 5, 61, 86
7, 46040, Note_on_c, 5, 61, 0
7, 46080, Note_on_c, 5, 60, 86
7, 46280, Note_on_c, 5, 60, 0
7, 46320, Note_on_c, 5, 60, 86
7, 46520, Note_on_c, 5, 60, 0
7, 46560, Note_on_c, 5, 60, 86
7, 46760, Note_on_c, 5, 60, 0
7, 46800, Note_on_c, 5, 60, 86
7, 47000, Note_on_c, 5, 60, 0
7, 47040, Note_on_c, 5, 56, 86
7, 47240, Note_on_c, 5, 56, 0
7, 47280, Note_on_c, 5, 56, 86
7, 47480, Note_on_c, 5, 56, 0
7, 47520, Note_on_c, 5, 56, 86
7, 47720, Note_on_c, 5, 56, 0
7, 47760, Note_on_c, 5, 56, 86
7, 47960, Note_on_c, 5, 56, 0
7, 48000, Note_on_c, 5, 58, 86
7, 48200, Note_on_c, 5, 58, 0
7, 48240, Note_on_c, 5, 58, 86
7, 48440, Note_on_c, 5, 58, 0
7, 48480, Note_on_c, 5, 58, 86
7, 48680, Note_on_c, 5, 58, 0
7, 48720, Note_on_c, 5, 58, 86
7, 48920, Note_on_c, 5, 58, 0
7, 48960, Note_on_c, 5, 58, 86
7, 49160, Note_on_c, 5, 58, 0
7, 49200, Note_on_c, 5, 58, 86
7, 49400, Note_on_c, 5, 58, 0
7, 49440, Note_on_c, 5, 56, 86
7, 49640, Note_on_c, 5, 56, 0
7, 49680, Note_on_c, 5, 56, 86
7, 49880, Note_on_c, 5, 56, 0
7, 49920, Note_on_c, 5, 55, 86
7, 50120, Note_on_c, 5, 55, 0
7, 50160, Note_on_c, 5, 55, 86
7, 50360, Note_on_c, 5, 55, 0
7, 50400, Note_on_c, 5, 55, 86
7, 50600, Note_on_c, 5, 55, 0
7, 50640, Note_on_c, 5, 55, 86
7, 50840, Note_on_c, 5, 55, 0
7, 50880, Note_on_c, 5, 55, 86
7, 51080, Note_on_c, 5, 55, 0
7, 51120, Note_on_c, 5, 55, 86
7, 51320, Note_on_c, 5, 55, 0
7, 51360, Note_on_c, 5, 55, 86
7, 51560, Note_on_c, 5, 55, 0
7, 51600, Note_on_c, 5, 55, 86
7, 51800, Note_on_c, 5, 55, 0
7, 51840, Note_on_c, 5, 56, 86
7, 52040, Note_on_c, 5, 56, 0
7, 52080, Note_on_c, 5, 56, 86
7, 52280, Note_on_c, 5, 56, 0
7, 52320, Note_on_c, 5, 56, 86
7, 52520, Note_on_c, 5, 56, 0
7, 52560, Note_on_c, 5, 56, 86
7, 52760, Note_on_c, 5, 56, 0
7, 52800, Note_on_c, 5, 72, 86
7, 53000, Note_on_c, 5, 72, 0
7, 53040, Note_on_c, 5, 72, 86
7, 53240, Note_on_c, 5, 72, 0
7, 53280, Note_on_c, 5, 72, 86
7, 53480, Note_on_c, 5, 72, 0
7, 53520, Note_on_c, 5, 72, 86
7, 53720, Note_on_c, 5, 72, 0
7, 53760, Note_on_c, 5, 70, 86
7, 53960, Note_on_c, 5, 70, 0
7, 54000, Note_on_c, 5, 70, 86
7, 54200, Note_on_c, 5, 70, 0
7, 54240, Note_on_c, 5, 70, 86
7, 54640, Note_on_c, 5, 70, 0
7, 54960, Note_on_c, 5, 70, 86
7, 55160, Note_on_c, 5, 70, 0
7, 55200, Note_on_c, 5, 70, 86
7, 55600, Note_on_c, 5, 70, 0
7, 55920, Note_on_c, 5, 70, 86
7, 56120, Note_on_c, 5, 70, 0
7, 56160, Note_on_c, 5, 70, 86
7, 56360, Note_on_c, 5, 70, 0
7, 56640, Note_on_c, 5, 70, 86
7, 56840, Note_on_c, 5, 70, 0
7, 57120, Note_on_c, 5, 70, 86
7, 57320, Note_on_c, 5, 70, 0
7, 57600, Note_on_c, 5, 70, 86
7, 57800, Note_on_c, 5, 70, 0
7, 58080, Note_on_c, 5, 70, 86
7, 58480, Note_on_c, 5, 70, 0
7, 58560, Note_on_c, 5, 67, 86
7, 58960, Note_on_c, 5, 67, 0
7, 59040, Note_on_c, 5, 63, 86
7, 59440, Note_on_c, 5, 63, 0
7, 59520, Note_on_c, 5, 58, 86
7, 59720, Note_on_c, 5, 58, 0
7, 59760, Note_on_c, 5, 58, 86
7, 59960, Note_on_c, 5, 58, 0
7, 60000, Note_on_c, 5, 63, 86
7, 60200, Note_on_c, 5, 63, 0
7, 60240, Note_on_c, 5, 67, 86
7, 60440, Note_on_c, 5, 67, 0
7, 60480, Note_on_c, 5, 70, 86
7, 60880, Note_on_c, 5, 70, 0
7, 60960, Note_on_c, 5, 58, 86
7, 61360, Note_on_c, 5, 58, 0
7, 61440, Note_on_c, 5, 63, 86
7, 61840, Note_on_c, 5, 63, 0
7, 62400, Note_on_c, 5, 58, 64
7, 63210, Note_on_c, 5, 58, 0
7, 63360, Note_on_c, 5, 56, 64
7, 64320, Note_on_c, 5, 56, 0
7, 64320, Note_on_c, 5, 53, 64
7, 65280, Note_on_c, 5, 53, 0
7, 65280, Note_on_c, 5, 51, 64
7, 66240, Note_on_c, 5, 51, 0
7, 66240, Note_on_c, 5, 58, 64
7, 67200, Note_on_c, 5, 58, 0
7, 67200, Note_on_c, 5, 56, 64
7, 68010, Note_on_c, 5, 56, 0
7, 68160, Note_on_c, 5, 53, 64
7, 68400, Note_on_c, 5, 53, 0
7, 68400, Note_on_c, 5, 51, 64
7, 68640, Note_on_c, 5, 51, 0
7, 68640, Note_on_c, 5, 50, 64
7, 68760, Note_on_c, 5, 50, 0
7, 68880, Note_on_c, 5, 50, 64
7, 69000, Note_on_c, 5, 50, 0
7, 69120, Note_on_c, 5, 51, 64
7, 73770, Note_on_c, 5, 51, 0
7, 73920, Note_on_c, 5, 63, 64
7, 75360, Note_on_c, 5, 63, 0
7, 75360, Note_on_c, 5, 60, 64
7, 75840, Note_on_c, 5, 60, 0
7, 75840, Note_on_c, 5, 58, 64
7, 76650, Note_on_c, 5, 58, 0
7, 76800, Note_on_c, 5, 58, 64
7, 77200, Note_on_c, 5, 58, 0
7, 77520, Note_on_c, 5, 58, 86
7, 77720, Note_on_c, 5, 58, 0
7, 77760, Note_on_c, 5, 63, 86
7, 77960, Note_on_c, 5, 63, 0
7, 78000, Note_on_c, 5, 63, 86
7, 78200, Note_on_c, 5, 63, 0
7, 78240, Note_on_c, 5, 58, 86
7, 78440, Note_on_c, 5, 58, 0
7, 78480, Note_on_c, 5, 58, 86
7, 78680, Note_on_c, 5, 58, 0
7, 78720, Note_on_c, 5, 63, 86
7, 79120, Note_on_c, 5, 63, 0
7, 79440, Note_on_c, 5, 58, 86
7, 79640, Note_on_c, 5, 58, 0
7, 79680, Note_on_c, 5, 63, 86
7, 79880, Note_on_c, 5, 63, 0
7, 79920, Note_on_c, 5, 63, 86
7, 80120, Note_on_c, 5, 63, 0
7, 80160, Note_on_c, 5, 58, 86
7, 80360, Note_on_c, 5, 58, 0
7, 80400, Note_on_c, 5, 58, 86
7, 80600, Note_on_c, 5, 58, 0
7, 80640, Note_on_c, 5, 63, 86
7, 81040, Note_on_c, 5, 63, 0
7, 81120, Note_on_c, 5, 63, 86
7, 81520, Note_on_c, 5, 63, 0
7, 81600, Note_on_c, 5, 63, 86
7, 82000, Note_on_c, 5, 63, 0
7, 82800, Note_on_c, 5, 58, 64
7, 83000, Note_on_c, 5, 58, 0
7, 83040, Note_on_c, 5, 58, 64
7, 83240, Note_on_c, 5, 58, 0
7, 83280, Note_on_c, 5, 58, 64
7, 83480, Note_on_c, 5, 58, 0
7, 83520, Note_on_c, 5, 58, 64
7, 83720, Note_on_c, 5, 58, 0
7, 83760, Note_on_c, 5, 58, 64
7, 83960, Note_on_c, 5, 58, 0
7, 84000, Note_on_c, 5, 58, 64
7, 84200, Note_on_c, 5, 58, 0
7, 84240, Note_on_c, 5, 58, 64
7, 84440, Note_on_c, 5, 58, 0
7, 84720, Note_on_c, 5, 58, 64
7, 84920, Note_on_c, 5, 58, 0
7, 84960, Note_on_c, 5, 58, 64
7, 85160, Note_on_c, 5, 58, 0
7, 85200, Note_on_c, 5, 58, 64
7, 85400, Note_on_c, 5, 58, 0
7, 85440, Note_on_c, 5, 58, 64
7, 85640, Note_on_c, 5, 58, 0
7, 85680, Note_on_c, 5, 58, 64
7, 85880, Note_on_c, 5, 58, 0
7, 85920, Note_on_c, 5, 58, 64
7, 86120, Note_on_c, 5, 58, 0
7, 86160, Note_on_c, 5, 58, 64
7, 86360, Note_on_c, 5, 58, 0
7, 86640, Note_on_c, 5, 58, 64
7, 86840, Note_on_c, 5, 58, 0
7, 86880, Note_on_c, 5, 58, 64
7, 87080, Note_on_c, 5, 58, 0
7, 87120, Note_on_c, 5, 58, 64
7, 87320, Note_on_c, 5, 58, 0
7, 87360, Note_on_c, 5, 58, 64
7, 87560, Note_on_c, 5, 58, 0
7, 87600, Note_on_c, 5, 58, 64
7, 87800, Note_on_c, 5, 58, 0
7, 87840, Note_on_c, 5, 58, 64
7, 88040, Note_on_c, 5, 58, 0
7, 88080, Note_on_c, 5, 58, 64
7, 88280, Note_on_c, 5, 58, 0
7, 88320, Note_on_c, 5, 58, 64
7, 88520, Note_on_c, 5, 58, 0
7, 88560, Note_on_c, 5, 58, 64
7, 88760, Note_on_c, 5, 58, 0
7, 88800, Note_on_c, 5, 58, 64
7, 89000, Note_on_c, 5, 58, 0
7, 89040, Note_on_c, 5, 58, 64
7, 89240, Note_on_c, 5, 58, 0
7, 89280, Note_on_c, 5, 58, 64
7, 89480, Note_on_c, 5, 58, 0
7, 89520, Note_on_c, 5, 51, 64
7, 89760, Note_on_c, 5, 51, 0
7, 89760, Note_on_c, 5, 53, 64
7, 90000, Note_on_c, 5, 53, 0
7, 90000, Note_on_c, 5, 55, 64
7, 90240, Note_on_c, 5, 55, 0
7, 90240, Note_on_c, 5, 56, 64
7, 90440, Note_on_c, 5, 56, 0
7, 90480, Note_on_c, 5, 56, 64
7, 90680, Note_on_c, 5, 56, 0
7, 90720, Note_on_c, 5, 56, 64
7, 90920, Note_on_c, 5, 56, 0
7, 90960, Note_on_c, 5, 56, 64
7, 91160, Note_on_c, 5, 56, 0
7, 91200, Note_on_c, 5, 56, 64
7, 91400, Note_on_c, 5, 56, 0
7, 91440, Note_on_c, 5, 56, 64
7, 91640, Note_on_c, 5, 56, 0
7, 91680, Note_on_c, 5, 56, 64
7, 91880, Note_on_c, 5, 56, 0
7, 91920, Note_on_c, 5, 56, 64
7, 92120, Note_on_c, 5, 56, 0
7, 92400, Note_on_c, 5, 55, 64
7, 92600, Note_on_c, 5, 55, 0
7, 92640, Note_on_c, 5, 55, 64
7, 92840, Note_on_c, 5, 55, 0
7, 92880, Note_on_c, 5, 55, 64
7, 93080, Note_on_c, 5, 55, 0
7, 93120, Note_on_c, 5, 53, 64
7, 93360, Note_on_c, 5, 53, 0
7, 93360, Note_on_c, 5, 51, 64
7, 93600, Note_on_c, 5, 51, 0
7, 93600, Note_on_c, 5, 50, 64
7, 93840, Note_on_c, 5, 50, 0
7, 93840, Note_on_c, 5, 51, 64
7, 94080, Note_on_c, 5, 51, 0
7, 94080, Note_on_c, 5, 53, 64
7, 94320, Note_on_c, 5, 53, 0
7, 94320, Note_on_c, 5, 55, 64
7, 94560, Note_on_c, 5, 55, 0
7, 94560, Note_on_c, 5, 56, 64
7, 94800, Note_on_c, 5, 56, 0
7, 94800, Note_on_c, 5, 55, 64
7, 95000, Note_on_c, 5, 55, 0
7, 95040, Note_on_c, 5, 53, 64
7, 95240, Note_on_c, 5, 53, 0
7, 95280, Note_on_c, 5, 53, 64
7, 95480, Note_on_c, 5, 53, 0
7, 95520, Note_on_c, 5, 58, 64
7, 95720, Note_on_c, 5, 58, 0
7, 95760, Note_on_c, 5, 58, 64
7, 95960, Note_on_c, 5, 58, 0
7, 96000, Note_on_c, 5, 58, 64
7, 96200, Note_on_c, 5, 58, 0
7, 96240, Note_on_c, 5, 58, 64
7, 96440, Note_on_c, 5, 58, 0
7, 96480, Note_on_c, 5, 58, 64
7, 96680, Note_on_c, 5, 58, 0
7, 96720, Note_on_c, 5, 51, 64
7, 96920, Note_on_c, 5, 51, 0
7, 96960, Note_on_c, 5, 53, 64
7, 97160, Note_on_c, 5, 53, 0
7, 97200, Note_on_c, 5, 53, 64
7, 97400, Note_on_c, 5, 53, 0
7, 97440, Note_on_c, 5, 55, 64
7, 97640, Note_on_c, 5, 55, 0
7, 97680, Note_on_c, 5, 55, 64
7, 97880, Note_on_c, 5, 55, 0
7, 97920, Note_on_c, 5, 56, 64
7, 98120, Note_on_c, 5, 56, 0
7, 98160, Note_on_c, 5, 56, 64
7, 98360, Note_on_c, 5, 56, 0
7, 98400, Note_on_c, 5, 56, 64
7, 98600, Note_on_c, 5, 56, 0
7, 98640, Note_on_c, 5, 56, 64
7, 98840, Note_on_c, 5, 56, 0
7, 98880, Note_on_c, 5, 56, 64
7, 99080, Note_on_c, 5, 56, 0
7, 99120, Note_on_c, 5, 56, 64
7, 99320, Note_on_c, 5, 56, 0
7, 99360, Note_on_c, 5, 56, 64
7, 99560, Note_on_c, 5, 56, 0
7, 99600, Note_on_c, 5, 56, 64
7, 99800, Note_on_c, 5, 56, 0
7, 99840, Note_on_c, 5, 55, 64
7, 100240, Note_on_c, 5, 55, 0
7, 100320, Note_on_c, 5, 58, 64
7, 100720, Note_on_c, 5, 58, 0
7, 100800, Note_on_c, 5, 58, 64
7, 101200, Note_on_c, 5, 58, 0
7, 102600, Note_on_c, 5, 60, 64
7, 102720, Note_on_c, 5, 60, 0
7, 102720, Note_on_c, 5, 58, 64
7, 103200, Note_on_c, 5, 58, 0
7, 103200, Note_on_c, 5, 56, 64
7, 103600, Note_on_c, 5, 56, 0
7, 103680, Note_on_c, 5, 55, 86
7, 104080, Note_on_c, 5, 55, 0
7, 104400, Note_on_c, 5, 58, 86
7, 104600, Note_on_c, 5, 58, 0
7, 104640, Note_on_c, 5, 63, 86
7, 104840, Note_on_c, 5, 63, 0
7, 104880, Note_on_c, 5, 63, 86
7, 105080, Note_on_c, 5, 63, 0
7, 105120, Note_on_c, 5, 56, 86
7, 105320, Note_on_c, 5, 56, 0
7, 105360, Note_on_c, 5, 56, 86
7, 105560, Note_on_c, 5, 56, 0
7, 105600, Note_on_c, 5, 63, 86
7, 106000, Note_on_c, 5, 63, 0
7, 106320, Note_on_c, 5, 58, 86
7, 106520, Note_on_c, 5, 58, 0
7, 106560, Note_on_c, 5, 63, 86
7, 106760, Note_on_c, 5, 63, 0
7, 106800, Note_on_c, 5, 63, 86
7, 107000, Note_on_c, 5, 63, 0
7, 107040, Note_on_c, 5, 58, 86
7, 107240, Note_on_c, 5, 58, 0
7, 107280, Note_on_c, 5, 58, 86
7, 107480, Note_on_c, 5, 58, 0
7, 107520, Note_on_c, 5, 63, 86
7, 107920, Note_on_c, 5, 63, 0
7, 109680, Note_on_c, 5, 58, 64
7, 109880, Note_on_c, 5, 58, 0
7, 109920, Note_on_c, 5, 58, 64
7, 110120, Note_on_c, 5, 58, 0
7, 110160, Note_on_c, 5, 58, 64
7, 110360, Note_on_c, 5, 58, 0
7, 110400, Note_on_c, 5, 58, 64
7, 110600, Note_on_c, 5, 58, 0
7, 110640, Note_on_c, 5, 58, 64
7, 110840, Note_on_c, 5, 58, 0
7, 110880, Note_on_c, 5, 58, 64
7, 111080, Note_on_c, 5, 58, 0
7, 111120, Note_on_c, 5, 58, 64
7, 111320, Note_on_c, 5, 58, 0
7, 111600, Note_on_c, 5, 62, 64
7, 111800, Note_on_c, 5, 62, 0
7, 111840, Note_on_c, 5, 62, 64
7, 112040, Note_on_c, 5, 62, 0
7, 112080, Note_on_c, 5, 62, 64
7, 112280, Note_on_c, 5, 62, 0
7, 112320, Note_on_c, 5, 62, 64
7, 112520, Note_on_c, 5, 62, 0
7, 112560, Note_on_c, 5, 62, 64
7, 112760, Note_on_c, 5, 62, 0
7, 112800, Note_on_c, 5, 62, 64
7, 113000, Note_on_c, 5, 62, 0
7, 113040, Note_on_c, 5, 62, 64
7, 113240, Note_on_c, 5, 62, 0
7, 113520, Note_on_c, 5, 55, 64
7, 113720, Note_on_c, 5, 55, 0
7, 113760, Note_on_c, 5, 55, 64
7, 113960, Note_on_c, 5, 55, 0
7, 114000, Note_on_c, 5, 55, 64
7, 114200, Note_on_c, 5, 55, 0
7, 114240, Note_on_c, 5, 57, 64
7, 114440, Note_on_c, 5, 57, 0
7, 114480, Note_on_c, 5, 57, 64
7, 114680, Note_on_c, 5, 57, 0
7, 114720, Note_on_c, 5, 57, 64
7, 114920, Note_on_c, 5, 57, 0
7, 114960, Note_on_c, 5, 57, 64
7, 115160, Note_on_c, 5, 57, 0
7, 115200, Note_on_c, 5, 57, 64
7, 115400, Note_on_c, 5, 57, 0
7, 115440, Note_on_c, 5, 57, 64
7, 115640, Note_on_c, 5, 57, 0
7, 115680, Note_on_c, 5, 57, 64
7, 115880, Note_on_c, 5, 57, 0
7, 115920, Note_on_c, 5, 57, 64
7, 116120, Note_on_c, 5, 57, 0
7, 116160, Note_on_c, 5, 58, 64
7, 116400, Note_on_c, 5, 58, 0
7, 116400, Note_on_c, 5, 53, 64
7, 116880, Note_on_c, 5, 53, 0
7, 116880, Note_on_c, 5, 51, 64
7, 117120, Note_on_c, 5, 51, 0
7, 117120, Note_on_c, 5, 50, 64
7, 117320, Note_on_c, 5, 50, 0
7, 117360, Note_on_c, 5, 50, 64
7, 117560, Note_on_c, 5, 50, 0
7, 117600, Note_on_c, 5, 50, 64
7, 117800, Note_on_c, 5, 50, 0
7, 117840, Note_on_c, 5, 50, 64
7, 118040, Note_on_c, 5, 50, 0
7, 118080, Note_on_c, 5, 58, 64
7, 118280, Note_on_c, 5, 58, 0
7, 118320, Note_on_c, 5, 58, 64
7, 118520, Note_on_c, 5, 58, 0
7, 118560, Note_on_c, 5, 58, 64
7, 118760, Note_on_c, 5, 58, 0
7, 118800, Note_on_c, 5, 58, 64
7, 119000, Note_on_c, 5, 58, 0
7, 119040, Note_on_c, 5, 58, 64
7, 119240, Note_on_c, 5, 58, 0
7, 119280, Note_on_c, 5, 58, 64
7, 119480, Note_on_c, 5, 58, 0
7, 119520, Note_on_c, 5, 58, 64
7, 119720, Note_on_c, 5, 58, 0
7, 119760, Note_on_c, 5, 58, 64
7, 119960, Note_on_c, 5, 58, 0
7, 120000, Note_on_c, 5, 58, 64
7, 120240, Note_on_c, 5, 58, 0
7, 120240, Note_on_c, 5, 56, 64
7, 120480, Note_on_c, 5, 56, 0
7, 120480, Note_on_c, 5, 55, 64
7, 120720, Note_on_c, 5, 55, 0
7, 120720, Note_on_c, 5, 56, 64
7, 120960, Note_on_c, 5, 56, 0
7, 120960, Note_on_c, 5, 55, 64
7, 121160, Note_on_c, 5, 55, 0
7, 121200, Note_on_c, 5, 55, 64
7, 121400, Note_on_c, 5, 55, 0
7, 121440, Note_on_c, 5, 53, 64
7, 121640, Note_on_c, 5, 53, 0
7, 121680, Note_on_c, 5, 53, 64
7, 121880, Note_on_c, 5, 53, 0
7, 121920, Note_on_c, 5, 53, 64
7, 122120, Note_on_c, 5, 53, 0
7, 122160, Note_on_c, 5, 53, 64
7, 122360, Note_on_c, 5, 53, 0
7, 122400, Note_on_c, 5, 58, 64
7, 122600, Note_on_c, 5, 58, 0
7, 122640, Note_on_c, 5, 58, 64
7, 122840, Note_on_c, 5, 58, 0
7, 122880, Note_on_c, 5, 57, 64
7, 123080, Note_on_c, 5, 57, 0
7, 123120, Note_on_c, 5, 65, 64
7, 123320, Note_on_c, 5, 65, 0
7, 123360, Note_on_c, 5, 65, 86
7, 123560, Note_on_c, 5, 65, 0
7, 123600, Note_on_c, 5, 65, 86
7, 123800, Note_on_c, 5, 65, 0
7, 123840, Note_on_c, 5, 65, 86
7, 124040, Note_on_c, 5, 65, 0
7, 124080, Note_on_c, 5, 60, 86
7, 124280, Note_on_c, 5, 60, 0
7, 124320, Note_on_c, 5, 57, 86
7, 124520, Note_on_c, 5, 57, 0
7, 124560, Note_on_c, 5, 53, 86
7, 124760, Note_on_c, 5, 53, 0
7, 124800, Note_on_c, 5, 60, 64
7, 125000, Note_on_c, 5, 60, 0
7, 125040, Note_on_c, 5, 60, 64
7, 125240, Note_on_c, 5, 60, 0
7, 125280, Note_on_c, 5, 60, 64
7, 125480, Note_on_c, 5, 60, 0
7, 125520, Note_on_c, 5, 60, 64
7, 125720, Note_on_c, 5, 60, 0
7, 125760, Note_on_c, 5, 60, 64
7, 125960, Note_on_c, 5, 60, 0
7, 126000, Note_on_c, 5, 60, 64
7, 126200, Note_on_c, 5, 60, 0
7, 126240, Note_on_c, 5, 60, 64
7, 126440, Note_on_c, 5, 60, 0
7, 126480, Note_on_c, 5, 60, 64
7, 126680, Note_on_c, 5, 60, 0
7, 126720, Note_on_c, 5, 60, 64
7, 127120, Note_on_c, 5, 60, 0
7, 128640, Note_on_c, 5, 53, 64
7, 128840, Note_on_c, 5, 53, 0
7, 128880, Note_on_c, 5, 53, 64
7, 129080, Note_on_c, 5, 53, 0
7, 129120, Note_on_c, 5, 53, 64
7, 129320, Note_on_c, 5, 53, 0
7, 129360, Note_on_c, 5, 53, 64
7, 129560, Note_on_c, 5, 53, 0
7, 129600, Note_on_c, 5, 53, 64
7, 129800, Note_on_c, 5, 53, 0
7, 129840, Note_on_c, 5, 53, 64
7, 130040, Note_on_c, 5, 53, 0
7, 130080, Note_on_c, 5, 53, 64
7, 130280, Note_on_c, 5, 53, 0
7, 130320, Note_on_c, 5, 53, 64
7, 130520, Note_on_c, 5, 53, 0
7, 130560, Note_on_c, 5, 53, 64
7, 130960, Note_on_c, 5, 53, 0
7, 132480, Note_on_c, 5, 57, 64
7, 132680, Note_on_c, 5, 57, 0
7, 132720, Note_on_c, 5, 57, 64
7, 132920, Note_on_c, 5, 57, 0
7, 132960, Note_on_c, 5, 57, 64
7, 133160, Note_on_c, 5, 57, 0
7, 133200, Note_on_c, 5, 57, 64
7, 133400, Note_on_c, 5, 57, 0
7, 133440, Note_on_c, 5, 57, 64
7, 133640, Note_on_c, 5, 57, 0
7, 133680, Note_on_c, 5, 57, 64
7, 133880, Note_on_c, 5, 57, 0
7, 133920, Note_on_c, 5, 57, 64
7, 134120, Note_on_c, 5, 57, 0
7, 134160, Note_on_c, 5, 57, 64
7, 134360, Note_on_c, 5, 57, 0
7, 134400, Note_on_c, 5, 57, 64
7, 134800, Note_on_c, 5, 57, 0
7, 135600, Note_on_c, 5, 57, 64
7, 135800, Note_on_c, 5, 57, 0
7, 135840, Note_on_c, 5, 57, 64
7, 136040, Note_on_c, 5, 57, 0
7, 136080, Note_on_c, 5, 57, 64
7, 136280, Note_on_c, 5, 57, 0
7, 136560, Note_on_c, 5, 58, 64
7, 136760, Note_on_c, 5, 58, 0
7, 136800, Note_on_c, 5, 58, 64
7, 137000, Note_on_c, 5, 58, 0
7, 137040, Note_on_c, 5, 58, 64
7, 137240, Note_on_c, 5, 58, 0
7, 137520, Note_on_c, 5, 58, 64
7, 137720, Note_on_c, 5, 58, 0
7, 137760, Note_on_c, 5, 58, 64
7, 137960, Note_on_c, 5, 58, 0
7, 138000, Note_on_c, 5, 58, 64
7, 138200, Note_on_c, 5, 58, 0
7, 138480, Note_on_c, 5, 58, 64
7, 138680, Note_on_c, 5, 58, 0
7, 138720, Note_on_c, 5, 58, 64
7, 138920, Note_on_c, 5, 58, 0
7, 138960, Note_on_c, 5, 58, 64
7, 139160, Note_on_c, 5, 58, 0
7, 139200, Note_on_c, 5, 58, 64
7, 139400, Note_on_c, 5, 58, 0
7, 139440, Note_on_c, 5, 58, 64
7, 139640, Note_on_c, 5, 58, 0
7, 139680, Note_on_c, 5, 58, 64
7, 139880, Note_on_c, 5, 58, 0
7, 139920, Note_on_c, 5, 58, 64
7, 140120, Note_on_c, 5, 58, 0
7, 140160, Note_on_c, 5, 65, 64
7, 140260, Note_on_c, 5, 65, 0
7, 140280, Note_on_c, 5, 65, 64
7, 140380, Note_on_c, 5, 65, 0
7, 140400, Note_on_c, 5, 65, 64
7, 140500, Note_on_c, 5, 65, 0
7, 140520, Note_on_c, 5, 65, 64
7, 140620, Note_on_c, 5, 65, 0
7, 140640, Control_c, 5, 11, 94
7, 140640, Note_on_c, 5, 65, 86
7, 140740, Note_on_c, 5, 65, 0
7, 140760, Control_c, 5, 11, 95
7, 140760, Note_on_c, 5, 65, 86
7, 140860, Note_on_c, 5, 65, 0
7, 140880, Control_c, 5, 11, 98
7, 140880, Note_on_c, 5, 65, 86
7, 140980, Note_on_c, 5, 65, 0
7, 141000, Control_c, 5, 11, 101
7, 141000, Note_on_c, 5, 65, 86
7, 141100, Note_on_c, 5, 65, 0
7, 141120, Control_c, 5, 11, 104
7, 141120, Note_on_c, 5, 65, 86
7, 141220, Note_on_c, 5, 65, 0
7, 141240, Control_c, 5, 11, 107
7, 141240, Note_on_c, 5, 65, 86
7, 141340, Note_on_c, 5, 65, 0
7, 141360, Control_c, 5, 11, 110
7, 141360, Note_on_c, 5, 65, 86
7, 141460, Note_on_c, 5, 65, 0
7, 141480, Control_c, 5, 11, 113
7, 141480, Note_on_c, 5, 65, 86
7, 141580, Note_on_c, 5, 65, 0
7, 141600, Control_c, 5, 11, 116
7, 141600, Note_on_c, 5, 72, 86
7, 141700, Note_on_c, 5, 72, 0
7, 141720, Control_c, 5, 11, 119
7, 141720, Note_on_c, 5, 72, 86
7, 141820, Note_on_c, 5, 72, 0
7, 141840, Control_c, 5, 11, 122
7, 141840, Note_on_c, 5, 72, 86
7, 141940, Note_on_c, 5, 72, 0
7, 141960, Control_c, 5, 11, 125
7, 141960, Note_on_c, 5, 72, 86
7, 142060, Note_on_c, 5, 72, 0
7, 142080, Control_c, 5, 11, 127
7, 142080, Note_on_c, 5, 70, 86
7, 142280, Note_on_c, 5, 70, 0
7, 142320, Note_on_c, 5, 58, 86
7, 142520, Note_on_c, 5, 58, 0
7, 142560, Note_on_c, 5, 62, 86
7, 142760, Note_on_c, 5, 62, 0
7, 142800, Note_on_c, 5, 65, 86
7, 143000, Note_on_c, 5, 65, 0
7, 143040, Note_on_c, 5, 70, 86
7, 143240, Note_on_c, 5, 70, 0
7, 143280, Note_on_c, 5, 65, 86
7, 143480, Note_on_c, 5, 65, 0
7, 143520, Note_on_c, 5, 62, 86
7, 143720, Note_on_c, 5, 62, 0
7, 143760, Note_on_c, 5, 58, 86
7, 143960, Note_on_c, 5, 58, 0
7, 144240, Note_on_c, 5, 51, 86
7, 144440, Note_on_c, 5, 51, 0
7, 144480, Note_on_c, 5, 55, 86
7, 144680, Note_on_c, 5, 55, 0
7, 144720, Note_on_c, 5, 58, 86
7, 144920, Note_on_c, 5, 58, 0
7, 144960, Note_on_c, 5, 63, 86
7, 145160, Note_on_c, 5, 63, 0
7, 145200, Note_on_c, 5, 58, 86
7, 145400, Note_on_c, 5, 58, 0
7, 145440, Note_on_c, 5, 55, 86
7, 145640, Note_on_c, 5, 55, 0
7, 145680, Note_on_c, 5, 51, 86
7, 145880, Note_on_c, 5, 51, 0
7, 146160, Note_on_c, 5, 58, 86
7, 146360, Note_on_c, 5, 58, 0
7, 146400, Note_on_c, 5, 62, 86
7, 146600, Note_on_c, 5, 62, 0
7, 146640, Note_on_c, 5, 65, 86
7, 146840, Note_on_c, 5, 65, 0
7, 146880, Note_on_c, 5, 70, 86
7, 147080, Note_on_c, 5, 70, 0
7, 147120, Note_on_c, 5, 65, 86
7, 147320, Note_on_c, 5, 65, 0
7, 147360, Note_on_c, 5, 62, 86
7, 147560, Note_on_c, 5, 62, 0
7, 147600, Note_on_c, 5, 58, 86
7, 147800, Note_on_c, 5, 58, 0
7, 147840, Note_on_c, 5, 55, 86
7, 148450, Note_on_c, 5, 55, 0
7, 148560, Note_on_c, 5, 67, 86
7, 148760, Note_on_c, 5, 67, 0
7, 148800, Note_on_c, 5, 60, 86
7, 149410, Note_on_c, 5, 60, 0
7, 149520, Note_on_c, 5, 60, 86
7, 149720, Note_on_c, 5, 60, 0
7, 149760, Note_on_c, 5, 58, 86
7, 149960, Note_on_c, 5, 58, 0
7, 150000, Note_on_c, 5, 53, 86
7, 150200, Note_on_c, 5, 53, 0
7, 150240, Note_on_c, 5, 53, 86
7, 150440, Note_on_c, 5, 53, 0
7, 150480, Note_on_c, 5, 63, 86
7, 150680, Note_on_c, 5, 63, 0
7, 150720, Note_on_c, 5, 65, 86
7, 150920, Note_on_c, 5, 65, 0
7, 150960, Note_on_c, 5, 65, 86
7, 151160, Note_on_c, 5, 65, 0
7, 151200, Note_on_c, 5, 62, 86
7, 151400, Note_on_c, 5, 62, 0
7, 151440, Note_on_c, 5, 62, 86
7, 151640, Note_on_c, 5, 62, 0
7, 151680, Note_on_c, 5, 63, 86
7, 151880, Note_on_c, 5, 63, 0
7, 151920, Note_on_c, 5, 63, 86
7, 152120, Note_on_c, 5, 63, 0
7, 152160, Note_on_c, 5, 63, 86
7, 152360, Note_on_c, 5, 63, 0
7, 152400, Note_on_c, 5, 63, 86
7, 152600, Note_on_c, 5, 63, 0
7, 152640, Note_on_c, 5, 64, 86
7, 152840, Note_on_c, 5, 64, 0
7, 152880, Note_on_c, 5, 64, 86
7, 153080, Note_on_c, 5, 64, 0
7, 153120, Note_on_c, 5, 64, 86
7, 153320, Note_on_c, 5, 64, 0
7, 153360, Note_on_c, 5, 64, 86
7, 153560, Note_on_c, 5, 64, 0
7, 153600, Note_on_c, 5, 65, 86
7, 153800, Note_on_c, 5, 65, 0
7, 153840, Note_on_c, 5, 65, 86
7, 154040, Note_on_c, 5, 65, 0
7, 154080, Note_on_c, 5, 65, 86
7, 154280, Note_on_c, 5, 65, 0
7, 154320, Note_on_c, 5, 65, 86
7, 154520, Note_on_c, 5, 65, 0
7, 154560, Note_on_c, 5, 65, 86
7, 154760, Note_on_c, 5, 65, 0
7, 154800, Note_on_c, 5, 65, 86
7, 155000, Note_on_c, 5, 65, 0
7, 155040, Note_on_c, 5, 65, 86
7, 155240, Note_on_c, 5, 65, 0
7, 155280, Note_on_c, 5, 65, 86
7, 155480, Note_on_c, 5, 65, 0
7, 155520, Note_on_c, 5, 58, 86
7, 155920, Note_on_c, 5, 58, 0
7, 156240, Note_on_c, 5, 58, 64
7, 156480, Note_on_c, 5, 58, 0
7, 156480, Note_on_c, 5, 62, 64
7, 156960, Note_on_c, 5, 62, 0
7, 157200, Note_on_c, 5, 62, 64
7, 157440, Note_on_c, 5, 62, 0
7, 157440, Note_on_c, 5, 65, 64
7, 157920, Note_on_c, 5, 65, 0
7, 158160, Note_on_c, 5, 65, 64
7, 158360, Note_on_c, 5, 65, 0
7, 158400, Note_on_c, 5, 68, 114
7, 159010, Note_on_c, 5, 68, 0
7, 159120, Note_on_c, 5, 65, 64
7, 159240, Note_on_c, 5, 65, 0
7, 159240, Note_on_c, 5, 62, 64
7, 159360, Note_on_c, 5, 62, 0
7, 159360, Note_on_c, 5, 59, 64
7, 159560, Note_on_c, 5, 59, 0
7, 159840, Note_on_c, 5, 62, 64
7, 160040, Note_on_c, 5, 62, 0
7, 160320, Note_on_c, 5, 67, 114
7, 160930, Note_on_c, 5, 67, 0
7, 161040, Note_on_c, 5, 65, 64
7, 161160, Note_on_c, 5, 65, 0
7, 161160, Note_on_c, 5, 62, 64
7, 161280, Note_on_c, 5, 62, 0
7, 161280, Note_on_c, 5, 60, 64
7, 161480, Note_on_c, 5, 60, 0
7, 161520, Note_on_c, 5, 51, 64
7, 161720, Note_on_c, 5, 51, 0
7, 161760, Note_on_c, 5, 51, 64
7, 161960, Note_on_c, 5, 51, 0
7, 162000, Note_on_c, 5, 51, 64
7, 162200, Note_on_c, 5, 51, 0
7, 162240, Note_on_c, 5, 51, 64
7, 162440, Note_on_c, 5, 51, 0
7, 162480, Note_on_c, 5, 51, 64
7, 162680, Note_on_c, 5, 51, 0
7, 162720, Note_on_c, 5, 51, 64
7, 162920, Note_on_c, 5, 51, 0
7, 162960, Note_on_c, 5, 51, 64
7, 163160, Note_on_c, 5, 51, 0
7, 163440, Note_on_c, 5, 53, 64
7, 163640, Note_on_c, 5, 53, 0
7, 163680, Note_on_c, 5, 53, 64
7, 163880, Note_on_c, 5, 53, 0
7, 163920, Note_on_c, 5, 53, 64
7, 164120, Note_on_c, 5, 53, 0
7, 164160, Note_on_c, 5, 53, 64
7, 164360, Note_on_c, 5, 53, 0
7, 164400, Note_on_c, 5, 53, 64
7, 164600, Note_on_c, 5, 53, 0
7, 164640, Note_on_c, 5, 53, 64
7, 164840, Note_on_c, 5, 53, 0
7, 164880, Note_on_c, 5, 53, 64
7, 165080, Note_on_c, 5, 53, 0
7, 165360, Note_on_c, 5, 50, 64
7, 165560, Note_on_c, 5, 50, 0
7, 165600, Note_on_c, 5, 50, 64
7, 165800, Note_on_c, 5, 50, 0
7, 165840, Note_on_c, 5, 50, 64
7, 166040, Note_on_c, 5, 50, 0
7, 166080, Note_on_c, 5, 50, 64
7, 166280, Note_on_c, 5, 50, 0
7, 166320, Note_on_c, 5, 50, 64
7, 166520, Note_on_c, 5, 50, 0
7, 166560, Note_on_c, 5, 53, 64
7, 166760, Note_on_c, 5, 53, 0
7, 166800, Note_on_c, 5, 53, 64
7, 167000, Note_on_c, 5, 53, 0
7, 167280, Note_on_c, 5, 53, 64
7, 167480, Note_on_c, 5, 53, 0
7, 167520, Note_on_c, 5, 53, 64
7, 167720, Note_on_c, 5, 53, 0
7, 167760, Note_on_c, 5, 53, 64
7, 167960, Note_on_c, 5, 53, 0
7, 168000, Note_on_c, 5, 51, 64
7, 168200, Note_on_c, 5, 51, 0
7, 168240, Note_on_c, 5, 51, 64
7, 168440, Note_on_c, 5, 51, 0
7, 168480, Note_on_c, 5, 51, 64
7, 168680, Note_on_c, 5, 51, 0
7, 168720, Note_on_c, 5, 51, 64
7, 168920, Note_on_c, 5, 51, 0
7, 169200, Note_on_c, 5, 53, 64
7, 169400, Note_on_c, 5, 53, 0
7, 169440, Note_on_c, 5, 53, 64
7, 169640, Note_on_c, 5, 53, 0
7, 169680, Note_on_c, 5, 53, 64
7, 169880, Note_on_c, 5, 53, 0
7, 170160, Note_on_c, 5, 58, 64
7, 170360, Note_on_c, 5, 58, 0
7, 170400, Note_on_c, 5, 58, 64
7, 170600, Note_on_c, 5, 58, 0
7, 170640, Note_on_c, 5, 58, 64
7, 170840, Note_on_c, 5, 58, 0
7, 171120, Note_on_c, 5, 56, 64
7, 171320, Note_on_c, 5, 56, 0
7, 171360, Note_on_c, 5, 56, 64
7, 171600, Note_on_c, 5, 56, 0
7, 171600, Note_on_c, 5, 58, 64
7, 171840, Note_on_c, 5, 58, 0
7, 171840, Note_on_c, 5, 60, 64
7, 172040, Note_on_c, 5, 60, 0
7, 172080, Note_on_c, 5, 60, 64
7, 172280, Note_on_c, 5, 60, 0
7, 172320, Note_on_c, 5, 56, 64
7, 172520, Note_on_c, 5, 56, 0
7, 172560, Note_on_c, 5, 56, 64
7, 172760, Note_on_c, 5, 56, 0
7, 172800, Note_on_c, 5, 55, 64
7, 174000, Note_on_c, 5, 55, 0
7, 174000, Note_on_c, 5, 56, 64
7, 174240, Note_on_c, 5, 56, 0
7, 174240, Note_on_c, 5, 55, 64
7, 174480, Note_on_c, 5, 55, 0
7, 174480, Note_on_c, 5, 53, 64
7, 174720, Note_on_c, 5, 53, 0
7, 174720, Note_on_c, 5, 51, 64
7, 175120, Note_on_c, 5, 51, 0
7, 176640, Note_on_c, 5, 61, 64
7, 177120, Note_on_c, 5, 61, 0
7, 177120, Note_on_c, 5, 51, 64
7, 178560, Note_on_c, 5, 51, 0
7, 178560, Note_on_c, 5, 60, 64
7, 179040, Note_on_c, 5, 60, 0
7, 179040, Note_on_c, 5, 56, 64
7, 180480, Note_on_c, 5, 56, 0
7, 180480, Note_on_c, 5, 58, 64
7, 180960, Note_on_c, 5, 58, 0
7, 180960, Note_on_c, 5, 48, 64
7, 182400, Note_on_c, 5, 48, 0
7, 182400, Note_on_c, 5, 56, 64
7, 182880, Note_on_c, 5, 56, 0
7, 182880, Note_on_c, 5, 53, 64
7, 184320, Note_on_c, 5, 53, 0
7, 184560, Note_on_c, 5, 58, 64
7, 184760, Note_on_c, 5, 58, 0
7, 184800, Note_on_c, 5, 58, 64
7, 185000, Note_on_c, 5, 58, 0
7, 185040, Note_on_c, 5, 58, 64
7, 185240, Note_on_c, 5, 58, 0
7, 185520, Note_on_c, 5, 58, 64
7, 185720, Note_on_c, 5, 58, 0
7, 185760, Note_on_c, 5, 58, 64
7, 185960, Note_on_c, 5, 58, 0
7, 186000, Note_on_c, 5, 58, 64
7, 186200, Note_on_c, 5, 58, 0
7, 186480, Note_on_c, 5, 60, 64
7, 186720, Note_on_c, 5, 60, 0
7, 186720, Note_on_c, 5, 56, 64
7, 186960, Note_on_c, 5, 56, 0
7, 186960, Note_on_c, 5, 56, 64
7, 187160, Note_on_c, 5, 56, 0
7, 187440, Note_on_c, 5, 53, 64
7, 187640, Note_on_c, 5, 53, 0
7, 187680, Note_on_c, 5, 53, 64
7, 187880, Note_on_c, 5, 53, 0
7, 187920, Note_on_c, 5, 53, 64
7, 188120, Note_on_c, 5, 53, 0
7, 188160, Note_on_c, 5, 53, 64
7, 188560, Note_on_c, 5, 53, 0
7, 190080, Note_on_c, 5, 58, 64
7, 190480, Note_on_c, 5, 58, 0
7, 192000, Note_on_c, 5, 58, 64
7, 192400, Note_on_c, 5, 58, 0
7, 193920, Note_on_c, 5, 57, 64
7, 195550, Note_on_c, 5, 57, 0
7, 195840, Note_on_c, 5, 56, 64
7, 196650, Note_on_c, 5, 56, 0
7, 196800, Control_c, 5, 11, 94
7, 196800, Note_on_c, 5, 53, 86
7, 197280, Note_on_c, 5, 53, 0
7, 197280, Control_c, 5, 11, 94
7, 197280, Note_on_c, 5, 50, 86
7, 197400, Control_c, 5, 11, 95
7, 197520, Control_c, 5, 11, 95
7, 197640, Control_c, 5, 11, 97
7, 197760, Note_on_c, 5, 50, 0
7, 197760, Note_on_c, 5, 58, 86
7, 197760, Control_c, 5, 11, 98
7, 197880, Control_c, 5, 11, 98
7, 198000, Control_c, 5, 11, 100
7, 198120, Control_c, 5, 11, 101
7, 198240, Control_c, 5, 11, 101
7, 198360, Control_c, 5, 11, 103
7, 198480, Control_c, 5, 11, 104
7, 198570, Note_on_c, 5, 58, 0
7, 198600, Control_c, 5, 11, 106
7, 198720, Note_on_c, 5, 55, 86
7, 198720, Control_c, 5, 11, 106
7, 198840, Control_c, 5, 11, 107
7, 198960, Control_c, 5, 11, 109
7, 199080, Control_c, 5, 11, 109
7, 199200, Note_on_c, 5, 55, 0
7, 199200, Note_on_c, 5, 51, 86
7, 199200, Control_c, 5, 11, 110
7, 199320, Control_c, 5, 11, 112
7, 199440, Control_c, 5, 11, 112
7, 199560, Control_c, 5, 11, 113
7, 199680, Note_on_c, 5, 51, 0
7, 199680, Note_on_c, 5, 58, 86
7, 199680, Control_c, 5, 11, 115
7, 199800, Control_c, 5, 11, 116
7, 199920, Control_c, 5, 11, 116
7, 200040, Control_c, 5, 11, 118
7, 200080, Note_on_c, 5, 58, 0
7, 200160, Control_c, 5, 11, 119
7, 200280, Control_c, 5, 11, 119
7, 200400, Control_c, 5, 11, 121
7, 200520, Control_c, 5, 11, 122
7, 200640, Control_c, 5, 11, 122
7, 200760, Control_c, 5, 11, 124
7, 200880, Control_c, 5, 11, 125
7, 201000, Control_c, 5, 11, 127
7, 201840, Note_on_c, 5, 58, 86
7, 202040, Note_on_c, 5, 58, 0
7, 202080, Note_on_c, 5, 62, 86
7, 202280, Note_on_c, 5, 62, 0
7, 202320, Note_on_c, 5, 65, 86
7, 202520, Note_on_c, 5, 65, 0
7, 202560, Note_on_c, 5, 70, 86
7, 202760, Note_on_c, 5, 70, 0
7, 202800, Note_on_c, 5, 65, 86
7, 203000, Note_on_c, 5, 65, 0
7, 203040, Note_on_c, 5, 62, 86
7, 203240, Note_on_c, 5, 62, 0
7, 203280, Note_on_c, 5, 65, 86
7, 203480, Note_on_c, 5, 65, 0
7, 203520, Note_on_c, 5, 58, 86
7, 203920, Note_on_c, 5, 58, 0
7, 211440, Note_on_c, 5, 58, 64
7, 211640, Note_on_c, 5, 58, 0
7, 211680, Note_on_c, 5, 58, 64
7, 211880, Note_on_c, 5, 58, 0
7, 211920, Note_on_c, 5, 58, 64
7, 212120, Note_on_c, 5, 58, 0
7, 212160, Note_on_c, 5, 58, 64
7, 212360, Note_on_c, 5, 58, 0
7, 212400, Note_on_c, 5, 58, 64
7, 212600, Note_on_c, 5, 58, 0
7, 212640, Note_on_c, 5, 58, 64
7, 212840, Note_on_c, 5, 58, 0
7, 212880, Note_on_c, 5, 58, 64
7, 213080, Note_on_c, 5, 58, 0
7, 213360, Note_on_c, 5, 58, 64
7, 213560, Note_on_c, 5, 58, 0
7, 213600, Note_on_c, 5, 58, 64
7, 213800, Note_on_c, 5, 58, 0
7, 213840, Note_on_c, 5, 58, 64
7, 214040, Note_on_c, 5, 58, 0
7, 214080, Note_on_c, 5, 58, 64
7, 214280, Note_on_c, 5, 58, 0
7, 214320, Note_on_c, 5, 58, 64
7, 214520, Note_on_c, 5, 58, 0
7, 214560, Note_on_c, 5, 58, 64
7, 214760, Note_on_c, 5, 58, 0
7, 214800, Note_on_c, 5, 58, 64
7, 215000, Note_on_c, 5, 58, 0
7, 215280, Note_on_c, 5, 58, 64
7, 215480, Note_on_c, 5, 58, 0
7, 215520, Note_on_c, 5, 58, 64
7, 215720, Note_on_c, 5, 58, 0
7, 215760, Note_on_c, 5, 58, 64
7, 215960, Note_on_c, 5, 58, 0
7, 216000, Note_on_c, 5, 58, 64
7, 216200, Note_on_c, 5, 58, 0
7, 216240, Note_on_c, 5, 58, 64
7, 216440, Note_on_c, 5, 58, 0
7, 216480, Note_on_c, 5, 58, 64
7, 216680, Note_on_c, 5, 58, 0
7, 216720, Note_on_c, 5, 58, 64
7, 216920, Note_on_c, 5, 58, 0
7, 216960, Note_on_c, 5, 58, 64
7, 217160, Note_on_c, 5, 58, 0
7, 217200, Note_on_c, 5, 58, 64
7, 217400, Note_on_c, 5, 58, 0
7, 217440, Note_on_c, 5, 58, 64
7, 217640, Note_on_c, 5, 58, 0
7, 217680, Note_on_c, 5, 58, 64
7, 217880, Note_on_c, 5, 58, 0
7, 217920, Note_on_c, 5, 58, 64
7, 218120, Note_on_c, 5, 58, 0
7, 218160, Note_on_c, 5, 63, 86
7, 218400, Note_on_c, 5, 63, 0
7, 218400, Note_on_c, 5, 65, 86
7, 218640, Note_on_c, 5, 65, 0
7, 218640, Note_on_c, 5, 67, 86
7, 218880, Note_on_c, 5, 67, 0
7, 218880, Note_on_c, 5, 68, 86
7, 219080, Note_on_c, 5, 68, 0
7, 219120, Note_on_c, 5, 56, 86
7, 219320, Note_on_c, 5, 56, 0
7, 219360, Note_on_c, 5, 60, 86
7, 219560, Note_on_c, 5, 60, 0
7, 219600, Note_on_c, 5, 63, 86
7, 219800, Note_on_c, 5, 63, 0
7, 219840, Note_on_c, 5, 68, 86
7, 220040, Note_on_c, 5, 68, 0
7, 220080, Note_on_c, 5, 63, 86
7, 220280, Note_on_c, 5, 63, 0
7, 220320, Note_on_c, 5, 60, 86
7, 220520, Note_on_c, 5, 60, 0
7, 220560, Note_on_c, 5, 56, 86
7, 220760, Note_on_c, 5, 56, 0
7, 221040, Note_on_c, 5, 63, 86
7, 221240, Note_on_c, 5, 63, 0
7, 221280, Note_on_c, 5, 67, 86
7, 221480, Note_on_c, 5, 67, 0
7, 221520, Note_on_c, 5, 70, 86
7, 221720, Note_on_c, 5, 70, 0
7, 221760, Note_on_c, 5, 75, 86
7, 221960, Note_on_c, 5, 75, 0
7, 222000, Note_on_c, 5, 70, 86
7, 222200, Note_on_c, 5, 70, 0
7, 222240, Note_on_c, 5, 67, 86
7, 222440, Note_on_c, 5, 67, 0
7, 222480, Note_on_c, 5, 63, 86
7, 222680, Note_on_c, 5, 63, 0
7, 222720, Note_on_c, 5, 60, 86
7, 223330, Note_on_c, 5, 60, 0
7, 223440, Note_on_c, 5, 72, 86
7, 223640, Note_on_c, 5, 72, 0
7, 223680, Note_on_c, 5, 65, 86
7, 224290, Note_on_c, 5, 65, 0
7, 224400, Note_on_c, 5, 62, 86
7, 224600, Note_on_c, 5, 62, 0
7, 224640, Note_on_c, 5, 63, 86
7, 224840, Note_on_c, 5, 63, 0
7, 224880, Note_on_c, 5, 63, 86
7, 225080, Note_on_c, 5, 63, 0
7, 225120, Note_on_c, 5, 62, 86
7, 225320, Note_on_c, 5, 62, 0
7, 225360, Note_on_c, 5, 56, 86
7, 225560, Note_on_c, 5, 56, 0
7, 225600, Note_on_c, 5, 58, 86
7, 226000, Note_on_c, 5, 58, 0
7, 226800, Note_on_c, 5, 56, 64
7, 227000, Note_on_c, 5, 56, 0
7, 227040, Note_on_c, 5, 56, 64
7, 227240, Note_on_c, 5, 56, 0
7, 227280, Note_on_c, 5, 56, 64
7, 227480, Note_on_c, 5, 56, 0
7, 227520, Note_on_c, 5, 56, 64
7, 227720, Note_on_c, 5, 56, 0
7, 227760, Note_on_c, 5, 56, 64
7, 227960, Note_on_c, 5, 56, 0
7, 228000, Note_on_c, 5, 56, 64
7, 228200, Note_on_c, 5, 56, 0
7, 228240, Note_on_c, 5, 56, 64
7, 228440, Note_on_c, 5, 56, 0
7, 228480, Note_on_c, 5, 55, 64
7, 228880, Note_on_c, 5, 55, 0
7, 228960, Note_on_c, 5, 58, 64
7, 229360, Note_on_c, 5, 58, 0
7, 229440, Note_on_c, 5, 58, 64
7, 229840, Note_on_c, 5, 58, 0
7, 231240, Note_on_c, 5, 60, 64
7, 231360, Note_on_c, 5, 60, 0
7, 231360, Note_on_c, 5, 58, 64
7, 231840, Note_on_c, 5, 58, 0
7, 231840, Note_on_c, 5, 56, 64
7, 232240, Note_on_c, 5, 56, 0
7, 232320, Note_on_c, 5, 55, 86
7, 232720, Note_on_c, 5, 55, 0
7, 233040, Note_on_c, 5, 58, 86
7, 233240, Note_on_c, 5, 58, 0
7, 233280, Note_on_c, 5, 63, 86
7, 233480, Note_on_c, 5, 63, 0
7, 233520, Note_on_c, 5, 63, 86
7, 233720, Note_on_c, 5, 63, 0
7, 233760, Note_on_c, 5, 58, 86
7, 233960, Note_on_c, 5, 58, 0
7, 234000, Note_on_c, 5, 58, 86
7, 234200, Note_on_c, 5, 58, 0
7, 234240, Note_on_c, 5, 63, 86
7, 234640, Note_on_c, 5, 63, 0
7, 234960, Note_on_c, 5, 58, 86
7, 235160, Note_on_c, 5, 58, 0
7, 235200, Note_on_c, 5, 63, 86
7, 235400, Note_on_c, 5, 63, 0
7, 235440, Note_on_c, 5, 63, 86
7, 235640, Note_on_c, 5, 63, 0
7, 235680, Note_on_c, 5, 58, 86
7, 235880, Note_on_c, 5, 58, 0
7, 235920, Note_on_c, 5, 58, 86
7, 236120, Note_on_c, 5, 58, 0
7, 236160, Note_on_c, 5, 63, 86
7, 236560, Note_on_c, 5, 63, 0
7, 238320, Note_on_c, 5, 53, 64
7, 238520, Note_on_c, 5, 53, 0
7, 238560, Note_on_c, 5, 53, 64
7, 238760, Note_on_c, 5, 53, 0
7, 238800, Note_on_c, 5, 53, 64
7, 239000, Note_on_c, 5, 53, 0
7, 239040, Note_on_c, 5, 53, 64
7, 239240, Note_on_c, 5, 53, 0
7, 239280, Note_on_c, 5, 53, 64
7, 239480, Note_on_c, 5, 53, 0
7, 239520, Note_on_c, 5, 53, 64
7, 239720, Note_on_c, 5, 53, 0
7, 239760, Note_on_c, 5, 53, 64
7, 239960, Note_on_c, 5, 53, 0
7, 240240, Note_on_c, 5, 60, 64
7, 240440, Note_on_c, 5, 60, 0
7, 240480, Note_on_c, 5, 60, 64
7, 240680, Note_on_c, 5, 60, 0
7, 240720, Note_on_c, 5, 60, 64
7, 240920, Note_on_c, 5, 60, 0
7, 240960, Note_on_c, 5, 60, 64
7, 241160, Note_on_c, 5, 60, 0
7, 241200, Note_on_c, 5, 60, 64
7, 241400, Note_on_c, 5, 60, 0
7, 241440, Note_on_c, 5, 60, 64
7, 241640, Note_on_c, 5, 60, 0
7, 241680, Note_on_c, 5, 60, 64
7, 241880, Note_on_c, 5, 60, 0
7, 242160, Note_on_c, 5, 51, 64
7, 242360, Note_on_c, 5, 51, 0
7, 242400, Note_on_c, 5, 51, 64
7, 242600, Note_on_c, 5, 51, 0
7, 242640, Note_on_c, 5, 51, 64
7, 242840, Note_on_c, 5, 51, 0
7, 242880, Note_on_c, 5, 51, 64
7, 243080, Note_on_c, 5, 51, 0
7, 243120, Note_on_c, 5, 51, 64
7, 243320, Note_on_c, 5, 51, 0
7, 243360, Note_on_c, 5, 51, 64
7, 243560, Note_on_c, 5, 51, 0
7, 243600, Note_on_c, 5, 51, 64
7, 243800, Note_on_c, 5, 51, 0
7, 244080, Note_on_c, 5, 58, 64
7, 244280, Note_on_c, 5, 58, 0
7, 244320, Note_on_c, 5, 58, 64
7, 244520, Note_on_c, 5, 58, 0
7, 244560, Note_on_c, 5, 58, 64
7, 244760, Note_on_c, 5, 58, 0
7, 244800, Note_on_c, 5, 58, 64
7, 245000, Note_on_c, 5, 58, 0
7, 245040, Note_on_c, 5, 58, 64
7, 245520, Note_on_c, 5, 58, 0
7, 245520, Note_on_c, 5, 56, 64
7, 245760, Note_on_c, 5, 56, 0
7, 246000, Note_on_c, 5, 55, 64
7, 246200, Note_on_c, 5, 55, 0
7, 246480, Note_on_c, 5, 58, 64
7, 246680, Note_on_c, 5, 58, 0
7, 246960, Note_on_c, 5, 58, 64
7, 247160, Note_on_c, 5, 58, 0
7, 247440, Note_on_c, 5, 51, 64
7, 247640, Note_on_c, 5, 51, 0
7, 247680, Note_on_c, 5, 53, 64
7, 247880, Note_on_c, 5, 53, 0
7, 247920, Note_on_c, 5, 70, 86
7, 248120, Note_on_c, 5, 70, 0
7, 248160, Note_on_c, 5, 70, 86
7, 248360, Note_on_c, 5, 70, 0
7, 248400, Note_on_c, 5, 70, 86
7, 248600, Note_on_c, 5, 70, 0
7, 248640, Note_on_c, 5, 65, 86
7, 248840, Note_on_c, 5, 65, 0
7, 248880, Note_on_c, 5, 70, 86
7, 249080, Note_on_c, 5, 70, 0
7, 249120, Note_on_c, 5, 62, 86
7, 249320, Note_on_c, 5, 62, 0
7, 249360, Note_on_c, 5, 65, 86
7, 249560, Note_on_c, 5, 65, 0
7, 249600, Note_on_c, 5, 58, 64
7, 249840, Note_on_c, 5, 58, 0
7, 249840, Note_on_c, 5, 57, 64
7, 250080, Note_on_c, 5, 57, 0
7, 250080, Note_on_c, 5, 58, 64
7, 250320, Note_on_c, 5, 58, 0
7, 250320, Note_on_c, 5, 57, 64
7, 250560, Note_on_c, 5, 57, 0
7, 250560, Note_on_c, 5, 56, 64
7, 250800, Note_on_c, 5, 56, 0
7, 250800, Note_on_c, 5, 55, 64
7, 251040, Note_on_c, 5, 55, 0
7, 251040, Note_on_c, 5, 53, 64
7, 251280, Note_on_c, 5, 53, 0
7, 251280, Note_on_c, 5, 51, 64
7, 251520, Note_on_c, 5, 51, 0
7, 251520, Note_on_c, 5, 50, 64
7, 251920, Note_on_c, 5, 50, 0
7, 252720, Note_on_c, 5, 68, 64
7, 252920, Note_on_c, 5, 68, 0
7, 252960, Note_on_c, 5, 58, 64
7, 253160, Note_on_c, 5, 58, 0
7, 253200, Note_on_c, 5, 68, 64
7, 253400, Note_on_c, 5, 68, 0
7, 253440, Note_on_c, 5, 62, 64
7, 253640, Note_on_c, 5, 62, 0
7, 253920, Note_on_c, 5, 68, 64
7, 254120, Note_on_c, 5, 68, 0
7, 254400, Note_on_c, 5, 65, 64
7, 254600, Note_on_c, 5, 65, 0
7, 254880, Note_on_c, 5, 62, 64
7, 255080, Note_on_c, 5, 62, 0
7, 255600, Note_on_c, 5, 58, 64
7, 255800, Note_on_c, 5, 58, 0
7, 255840, Note_on_c, 5, 58, 64
7, 256040, Note_on_c, 5, 58, 0
7, 256080, Note_on_c, 5, 58, 64
7, 256280, Note_on_c, 5, 58, 0
7, 256560, Note_on_c, 5, 51, 64
7, 256760, Note_on_c, 5, 51, 0
7, 256800, Note_on_c, 5, 51, 64
7, 257000, Note_on_c, 5, 51, 0
7, 257040, Note_on_c, 5, 51, 64
7, 257240, Note_on_c, 5, 51, 0
7, 257520, Note_on_c, 5, 58, 64
7, 257720, Note_on_c, 5, 58, 0
7, 257760, Note_on_c, 5, 58, 64
7, 257960, Note_on_c, 5, 58, 0
7, 258000, Note_on_c, 5, 58, 64
7, 258200, Note_on_c, 5, 58, 0
7, 258480, Note_on_c, 5, 58, 64
7, 258680, Note_on_c, 5, 58, 0
7, 258720, Note_on_c, 5, 58, 64
7, 258920, Note_on_c, 5, 58, 0
7, 258960, Note_on_c, 5, 58, 64
7, 259160, Note_on_c, 5, 58, 0
7, 259440, Note_on_c, 5, 58, 64
7, 259640, Note_on_c, 5, 58, 0
7, 259680, Note_on_c, 5, 58, 64
7, 259880, Note_on_c, 5, 58, 0
7, 259920, Note_on_c, 5, 58, 64
7, 260120, Note_on_c, 5, 58, 0
7, 260400, Note_on_c, 5, 63, 64
7, 260600, Note_on_c, 5, 63, 0
7, 260640, Note_on_c, 5, 63, 64
7, 260840, Note_on_c, 5, 63, 0
7, 260880, Note_on_c, 5, 63, 64
7, 261080, Note_on_c, 5, 63, 0
7, 261120, Note_on_c, 5, 63, 64
7, 261520, Note_on_c, 5, 63, 0
7, 263040, Note_on_c, 5, 58, 64
7, 264200, Note_on_c, 5, 58, 0
7, 264240, Note_on_c, 5, 55, 64
7, 264480, Note_on_c, 5, 55, 0
7, 264480, Note_on_c, 5, 58, 64
7, 264720, Note_on_c, 5, 58, 0
7, 264720, Note_on_c, 5, 56, 64
7, 264960, Note_on_c, 5, 56, 0
7, 264960, Note_on_c, 5, 55, 64
7, 265440, Note_on_c, 5, 55, 0
7, 265440, Note_on_c, 5, 51, 64
7, 265920, Note_on_c, 5, 51, 0
7, 265920, Note_on_c, 5, 50, 64
7, 266400, Note_on_c, 5, 50, 0
7, 266400, Note_on_c, 5, 53, 64
7, 266880, Note_on_c, 5, 53, 0
7, 266880, Note_on_c, 5, 51, 64
7, 267280, Note_on_c, 5, 51, 0
7, 267600, Note_on_c, 5, 55, 64
7, 267840, Note_on_c, 5, 55, 0
7, 267840, Note_on_c, 5, 53, 64
7, 268320, Note_on_c, 5, 53, 0
7, 268560, Note_on_c, 5, 62, 64
7, 268800, Note_on_c, 5, 62, 0
7, 268800, Note_on_c, 5, 63, 64
7, 269280, Note_on_c, 5, 63, 0
7, 269760, Note_on_c, 5, 50, 64
7, 270240, Note_on_c, 5, 50, 0
7, 270240, Note_on_c, 5, 53, 64
7, 270720, Note_on_c, 5, 53, 0
7, 270720, Note_on_c, 5, 51, 64
7, 271120, Note_on_c, 5, 51, 0
7, 271440, Note_on_c, 5, 55, 64
7, 271680, Note_on_c, 5, 55, 0
7, 271680, Note_on_c, 5, 53, 64
7, 272160, Note_on_c, 5, 53, 0
7, 272400, Note_on_c, 5, 62, 64
7, 272640, Note_on_c, 5, 62, 0
7, 272640, Note_on_c, 5, 58, 64
7, 273120, Note_on_c, 5, 58, 0
7, 273840, Note_on_c, 5, 63, 64
7, 274040, Note_on_c, 5, 63, 0
7, 274080, Note_on_c, 5, 63, 64
7, 274280, Note_on_c, 5, 63, 0
7, 274320, Note_on_c, 5, 63, 64
7, 274520, Note_on_c, 5, 63, 0
7, 274560, Note_on_c, 5, 63, 64
7, 274960, Note_on_c, 5, 63, 0
7, 275760, Note_on_c, 5, 63, 64
7, 275960, Note_on_c, 5, 63, 0
7, 276000, Note_on_c, 5, 63, 64
7, 276200, Note_on_c, 5, 63, 0
7, 276240, Note_on_c, 5, 63, 64
7, 276440, Note_on_c, 5, 63, 0
7, 276480, Note_on_c, 5, 63, 64
7, 276580, Note_on_c, 5, 63, 0
7, 276600, Note_on_c, 5, 63, 64
7, 276700, Note_on_c, 5, 63, 0
7, 276720, Note_on_c, 5, 63, 64
7, 276820, Note_on_c, 5, 63, 0
7, 276840, Note_on_c, 5, 63, 64
7, 276940, Note_on_c, 5, 63, 0
7, 276960, Note_on_c, 5, 63, 64
7, 277060, Note_on_c, 5, 63, 0
7, 277080, Note_on_c, 5, 63, 64
7, 277180, Note_on_c, 5, 63, 0
7, 277200, Note_on_c, 5, 63, 64
7, 277300, Note_on_c, 5, 63, 0
7, 277320, Note_on_c, 5, 63, 64
7, 277420, Note_on_c, 5, 63, 0
7, 277440, Note_on_c, 5, 58, 64
7, 277540, Note_on_c, 5, 58, 0
7, 277560, Note_on_c, 5, 58, 64
7, 277660, Note_on_c, 5, 58, 0
7, 277680, Note_on_c, 5, 58, 64
7, 277780, Note_on_c, 5, 58, 0
7, 277800, Note_on_c, 5, 58, 64
7, 277900, Note_on_c, 5, 58, 0
7, 277920, Note_on_c, 5, 58, 64
7, 278020, Note_on_c, 5, 58, 0
7, 278040, Note_on_c, 5, 58, 64
7, 278140, Note_on_c, 5, 58, 0
7, 278160, Note_on_c, 5, 58, 64
7, 278260, Note_on_c, 5, 58, 0
7, 278280, Note_on_c, 5, 58, 64
7, 278380, Note_on_c, 5, 58, 0
7, 278400, Control_c, 5, 11, 94
7, 278400, Note_on_c, 5, 53, 86
7, 278500, Note_on_c, 5, 53, 0
7, 278520, Control_c, 5, 11, 95
7, 278520, Note_on_c, 5, 53, 86
7, 278620, Note_on_c, 5, 53, 0
7, 278640, Control_c, 5, 11, 97
7, 278640, Note_on_c, 5, 53, 86
7, 278740, Note_on_c, 5, 53, 0
7, 278760, Control_c, 5, 11, 100
7, 278760, Note_on_c, 5, 53, 86
7, 278860, Note_on_c, 5, 53, 0
7, 278880, Control_c, 5, 11, 101
7, 278880, Note_on_c, 5, 56, 86
7, 278980, Note_on_c, 5, 56, 0
7, 279000, Control_c, 5, 11, 104
7, 279000, Note_on_c, 5, 56, 86
7, 279100, Note_on_c, 5, 56, 0
7, 279120, Control_c, 5, 11, 106
7, 279120, Note_on_c, 5, 56, 86
7, 279220, Note_on_c, 5, 56, 0
7, 279240, Control_c, 5, 11, 109
7, 279240, Note_on_c, 5, 56, 86
7, 279340, Note_on_c, 5, 56, 0
7, 279360, Control_c, 5, 11, 110
7, 279360, Note_on_c, 5, 62, 86
7, 279460, Note_on_c, 5, 62, 0
7, 279480, Control_c, 5, 11, 113
7, 279480, Note_on_c, 5, 62, 86
7, 279580, Note_on_c, 5, 62, 0
7, 279600, Control_c, 5, 11, 115
7, 279600, Note_on_c, 5, 62, 86
7, 279700, Note_on_c, 5, 62, 0
7, 279720, Control_c, 5, 11, 118
7, 279720, Note_on_c, 5, 62, 86
7, 279820, Note_on_c, 5, 62, 0
7, 279840, Control_c, 5, 11, 119
7, 279840, Note_on_c, 5, 65, 86
7, 279940, Note_on_c, 5, 65, 0
7, 279960, Control_c, 5, 11, 121
7, 279960, Note_on_c, 5, 65, 86
7, 280060, Note_on_c, 5, 65, 0
7, 280080, Control_c, 5, 11, 124
7, 280080, Note_on_c, 5, 65, 86
7, 280180, Note_on_c, 5, 65, 0
7, 280200, Control_c, 5, 11, 125
7, 280200, Note_on_c, 5, 65, 86
7, 280300, Note_on_c, 5, 65, 0
7, 280320, Control_c, 5, 11, 127
7, 280320, Note_on_c, 5, 63, 86
7, 281130, Note_on_c, 5, 63, 0
7, 281520, Note_on_c, 5, 63, 86
7, 281720, Note_on_c, 5, 63, 0
7, 281760, Note_on_c, 5, 65, 86
7, 281960, Note_on_c, 5, 65, 0
7, 282000, Note_on_c, 5, 67, 86
7, 282200, Note_on_c, 5, 67, 0
7, 282240, Note_on_c, 5, 68, 86
7, 282640, Note_on_c, 5, 68, 0
7, 282720, Note_on_c, 5, 70, 86
7, 283120, Note_on_c, 5, 70, 0
7, 283200, Note_on_c, 5, 72, 86
7, 283600, Note_on_c, 5, 72, 0
7, 283680, Note_on_c, 5, 69, 86
7, 284080, Note_on_c, 5, 69, 0
7, 284160, Note_on_c, 5, 70, 86
7, 284970, Note_on_c, 5, 70, 0
7, 285360, Note_on_c, 5, 63, 86
7, 285560, Note_on_c, 5, 63, 0
7, 285600, Note_on_c, 5, 65, 86
7, 285800, Note_on_c, 5, 65, 0
7, 285840, Note_on_c, 5, 67, 86
7, 286040, Note_on_c, 5, 67, 0
7, 286080, Note_on_c, 5, 68, 86
7, 286480, Note_on_c, 5, 68, 0
7, 286560, Note_on_c, 5, 70, 86
7, 286960, Note_on_c, 5, 70, 0
7, 287040, Note_on_c, 5, 72, 86
7, 287440, Note_on_c, 5, 72, 0
7, 287520, Note_on_c, 5, 69, 86
7, 287920, Note_on_c, 5, 69, 0
7, 288000, Note_on_c, 5, 70, 86
7, 288810, Note_on_c, 5, 70, 0
7, 289200, Control_c, 5, 11, 95
7, 289200, Note_on_c, 5, 63, 114
7, 289320, Control_c, 5, 11, 98
7, 289400, Note_on_c, 5, 63, 0
7, 289440, Control_c, 5, 11, 99
7, 289440, Note_on_c, 5, 65, 114
7, 289560, Control_c, 5, 11, 100
7, 289640, Note_on_c, 5, 65, 0
7, 289680, Control_c, 5, 11, 101
7, 289680, Note_on_c, 5, 67, 114
7, 289800, Control_c, 5, 11, 103
7, 289880, Note_on_c, 5, 67, 0
7, 289920, Note_on_c, 5, 68, 114
7, 289920, Control_c, 5, 11, 104
7, 290040, Control_c, 5, 11, 105
7, 290160, Control_c, 5, 11, 106
7, 290280, Control_c, 5, 11, 109
7, 290320, Note_on_c, 5, 68, 0
7, 290400, Note_on_c, 5, 70, 114
7, 290400, Control_c, 5, 11, 110
7, 290520, Control_c, 5, 11, 111
7, 290640, Control_c, 5, 11, 112
7, 290760, Control_c, 5, 11, 114
7, 290800, Note_on_c, 5, 70, 0
7, 290880, Note_on_c, 5, 72, 114
7, 290880, Control_c, 5, 11, 115
7, 291000, Control_c, 5, 11, 116
7, 291120, Control_c, 5, 11, 118
7, 291240, Control_c, 5, 11, 120
7, 291280, Note_on_c, 5, 72, 0
7, 291360, Note_on_c, 5, 70, 114
7, 291360, Control_c, 5, 11, 121
7, 291480, Control_c, 5, 11, 122
7, 291600, Control_c, 5, 11, 123
7, 291720, Control_c, 5, 11, 124
7, 291760, Note_on_c, 5, 70, 0
7, 291840, Control_c, 5, 11, 127
7, 291840, Note_on_c, 5, 72, 83
7, 292240, Note_on_c, 5, 72, 0
7, 292320, Note_on_c, 5, 70, 83
7, 292720, Note_on_c, 5, 70, 0
7, 292800, Note_on_c, 5, 68, 83
7, 293200, Note_on_c, 5, 68, 0
7, 293280, Note_on_c, 5, 70, 83
7, 293680, Note_on_c, 5, 70, 0
7, 293760, Note_on_c, 5, 65, 83
7, 294160, Note_on_c, 5, 65, 0
7, 294240, Note_on_c, 5, 67, 83
7, 294640, Note_on_c, 5, 67, 0
7, 294720, Note_on_c, 5, 68, 83
7, 295120, Note_on_c, 5, 68, 0
7, 295200, Note_on_c, 5, 72, 83
7, 295600, Note_on_c, 5, 72, 0
7, 295680, Note_on_c, 5, 70, 83
7, 296490, Note_on_c, 5, 70, 0
7, 324420, Note_on_c, 5, 63, 86
7, 324620, Note_on_c, 5, 63, 0
7, 324660, Note_on_c, 5, 63, 86
7, 324860, Note_on_c, 5, 63, 0
7, 324900, Note_on_c, 5, 67, 86
7, 325100, Note_on_c, 5, 67, 0
7, 325140, Note_on_c, 5, 70, 86
7, 325340, Note_on_c, 5, 70, 0
7, 325380, Note_on_c, 5, 75, 86
7, 325580, Note_on_c, 5, 75, 0
7, 325620, Note_on_c, 5, 70, 86
7, 325820, Note_on_c, 5, 70, 0
7, 325860, Note_on_c, 5, 67, 86
7, 326060, Note_on_c, 5, 67, 0
7, 326100, Note_on_c, 5, 63, 86
7, 326300, Note_on_c, 5, 63, 0
7, 326580, Note_on_c, 5, 56, 86
7, 326780, Note_on_c, 5, 56, 0
7, 326820, Note_on_c, 5, 60, 86
7, 327020, Note_on_c, 5, 60, 0
7, 327060, Note_on_c, 5, 63, 86
7, 327260, Note_on_c, 5, 63, 0
7, 327300, Note_on_c, 5, 68, 86
7, 327500, Note_on_c, 5, 68, 0
7, 327540, Note_on_c, 5, 63, 86
7, 327740, Note_on_c, 5, 63, 0
7, 327780, Note_on_c, 5, 60, 86
7, 327980, Note_on_c, 5, 60, 0
7, 328020, Note_on_c, 5, 56, 86
7, 328220, Note_on_c, 5, 56, 0
7, 328500, Note_on_c, 5, 63, 86
7, 328700, Note_on_c, 5, 63, 0
7, 328740, Note_on_c, 5, 67, 86
7, 328940, Note_on_c, 5, 67, 0
7, 328980, Note_on_c, 5, 70, 86
7, 329180, Note_on_c, 5, 70, 0
7, 329220, Note_on_c, 5, 75, 86
7, 329420, Note_on_c, 5, 75, 0
7, 329460, Note_on_c, 5, 70, 86
7, 329660, Note_on_c, 5, 70, 0
7, 329700, Note_on_c, 5, 67, 86
7, 329900, Note_on_c, 5, 67, 0
7, 329940, Note_on_c, 5, 63, 86
7, 330140, Note_on_c, 5, 63, 0
7, 330180, Note_on_c, 5, 60, 86
7, 330790, Note_on_c, 5, 60, 0
7, 330900, Note_on_c, 5, 68, 86
7, 331100, Note_on_c, 5, 68, 0
7, 331140, Note_on_c, 5, 65, 86
7, 331750, Note_on_c, 5, 65, 0
7, 331860, Note_on_c, 5, 65, 86
7, 332060, Note_on_c, 5, 65, 0
7, 332100, Note_on_c, 5, 63, 86
7, 332300, Note_on_c, 5, 63, 0
7, 332340, Note_on_c, 5, 63, 86
7, 332540, Note_on_c, 5, 63, 0
7, 332580, Note_on_c, 5, 63, 86
7, 332780, Note_on_c, 5, 63, 0
7, 332820, Note_on_c, 5, 63, 86
7, 333020, Note_on_c, 5, 63, 0
7, 333060, Note_on_c, 5, 67, 86
7, 333260, Note_on_c, 5, 67, 0
7, 333300, Note_on_c, 5, 67, 86
7, 333500, Note_on_c, 5, 67, 0
7, 333540, Note_on_c, 5, 67, 86
7, 333740, Note_on_c, 5, 67, 0
7, 333780, Note_on_c, 5, 67, 86
7, 333980, Note_on_c, 5, 67, 0
7, 334020, Note_on_c, 5, 68, 86
7, 334220, Note_on_c, 5, 68, 0
7, 334260, Note_on_c, 5, 68, 86
7, 334460, Note_on_c, 5, 68, 0
7, 334500, Note_on_c, 5, 68, 86
7, 334700, Note_on_c, 5, 68, 0
7, 334740, Note_on_c, 5, 68, 86
7, 334940, Note_on_c, 5, 68, 0
7, 334980, Note_on_c, 5, 69, 86
7, 335180, Note_on_c, 5, 69, 0
7, 335220, Note_on_c, 5, 69, 86
7, 335420, Note_on_c, 5, 69, 0
7, 335460, Note_on_c, 5, 69, 86
7, 335660, Note_on_c, 5, 69, 0
7, 335700, Note_on_c, 5, 69, 86
7, 335900, Note_on_c, 5, 69, 0
7, 335940, Note_on_c, 5, 70, 86
7, 336140, Note_on_c, 5, 70, 0
7, 336180, Note_on_c, 5, 70, 86
7, 336380, Note_on_c, 5, 70, 0
7, 336420, Note_on_c, 5, 70, 86
7, 336620, Note_on_c, 5, 70, 0
7, 336660, Note_on_c, 5, 70, 86
7, 336860, Note_on_c, 5, 70, 0
7, 336900, Note_on_c, 5, 58, 86
7, 337100, Note_on_c, 5, 58, 0
7, 337140, Note_on_c, 5, 58, 86
7, 337340, Note_on_c, 5, 58, 0
7, 337380, Note_on_c, 5, 58, 86
7, 337580, Note_on_c, 5, 58, 0
7, 337620, Note_on_c, 5, 58, 86
7, 337820, Note_on_c, 5, 58, 0
7, 337860, Note_on_c, 5, 63, 86
7, 338260, Note_on_c, 5, 63, 0
7, 338820, Note_on_c, 5, 58, 64
7, 339630, Note_on_c, 5, 58, 0
7, 339780, Note_on_c, 5, 56, 64
7, 340740, Note_on_c, 5, 56, 0
7, 340740, Note_on_c, 5, 53, 64
7, 341700, Note_on_c, 5, 53, 0
7, 341700, Note_on_c, 5, 51, 64
7, 342660, Note_on_c, 5, 51, 0
7, 342660, Note_on_c, 5, 58, 64
7, 343620, Note_on_c, 5, 58, 0
7, 343620, Note_on_c, 5, 56, 64
7, 344430, Note_on_c, 5, 56, 0
7, 344580, Note_on_c, 5, 53, 64
7, 344820, Note_on_c, 5, 53, 0
7, 344820, Note_on_c, 5, 51, 64
7, 345060, Note_on_c, 5, 51, 0
7, 345060, Note_on_c, 5, 50, 64
7, 345180, Note_on_c, 5, 50, 0
7, 345300, Note_on_c, 5, 50, 64
7, 345420, Note_on_c, 5, 50, 0
7, 345540, Note_on_c, 5, 51, 40
7, 350190, Note_on_c, 5, 51, 0
7, 350340, Note_on_c, 5, 63, 40
7, 351780, Note_on_c, 5, 63, 0
7, 351780, Note_on_c, 5, 60, 40
7, 352260, Note_on_c, 5, 60, 0
7, 352260, Note_on_c, 5, 58, 40
7, 353620, Note_on_c, 5, 58, 0
7, 353940, Note_on_c, 5, 58, 86
7, 354140, Note_on_c, 5, 58, 0
7, 354180, Note_on_c, 5, 63, 86
7, 354380, Note_on_c, 5, 63, 0
7, 354420, Note_on_c, 5, 63, 86
7, 354620, Note_on_c, 5, 63, 0
7, 354660, Note_on_c, 5, 58, 86
7, 354860, Note_on_c, 5, 58, 0
7, 354900, Note_on_c, 5, 58, 86
7, 355100, Note_on_c, 5, 58, 0
7, 355140, Note_on_c, 5, 63, 86
7, 355540, Note_on_c, 5, 63, 0
7, 355860, Note_on_c, 5, 58, 86
7, 356060, Note_on_c, 5, 58, 0
7, 356100, Note_on_c, 5, 63, 86
7, 356300, Note_on_c, 5, 63, 0
7, 356340, Note_on_c, 5, 63, 86
7, 356540, Note_on_c, 5, 63, 0
7, 356580, Note_on_c, 5, 58, 86
7, 356780, Note_on_c, 5, 58, 0
7, 356820, Note_on_c, 5, 58, 86
7, 357020, Note_on_c, 5, 58, 0
7, 357060, Note_on_c, 5, 51, 86
7, 357260, Note_on_c, 5, 51, 0
7, 357300, Note_on_c, 5, 55, 86
7, 357500, Note_on_c, 5, 55, 0
7, 357540, Note_on_c, 5, 58, 86
7, 357740, Note_on_c, 5, 58, 0
7, 357780, Note_on_c, 5, 63, 86
7, 357980, Note_on_c, 5, 63, 0
7, 358020, Note_on_c, 5, 51, 86
7, 358220, Note_on_c, 5, 51, 0
7, 358260, Note_on_c, 5, 55, 86
7, 358460, Note_on_c, 5, 55, 0
7, 358500, Note_on_c, 5, 58, 86
7, 358700, Note_on_c, 5, 58, 0
7, 358740, Note_on_c, 5, 63, 86
7, 358940, Note_on_c, 5, 63, 0
7, 358980, Note_on_c, 5, 51, 86
7, 359180, Note_on_c, 5, 51, 0
7, 359220, Note_on_c, 5, 55, 86
7, 359420, Note_on_c, 5, 55, 0
7, 359460, Note_on_c, 5, 58, 86
7, 359660, Note_on_c, 5, 58, 0
7, 359700, Note_on_c, 5, 63, 86
7, 359900, Note_on_c, 5, 63, 0
7, 359940, Note_on_c, 5, 51, 86
7, 360140, Note_on_c, 5, 51, 0
7, 360180, Note_on_c, 5, 55, 86
7, 360380, Note_on_c, 5, 55, 0
7, 360420, Note_on_c, 5, 58, 86
7, 360620, Note_on_c, 5, 58, 0
7, 360660, Note_on_c, 5, 63, 86
7, 360860, Note_on_c, 5, 63, 0
7, 360900, Note_on_c, 5, 51, 86
7, 361300, Note_on_c, 5, 51, 0
7, 361380, Note_on_c, 5, 63, 86
7, 361780, Note_on_c, 5, 63, 0
7, 361860, Note_on_c, 5, 58, 86
7, 362260, Note_on_c, 5, 58, 0
7, 362340, Note_on_c, 5, 55, 86
7, 362740, Note_on_c, 5, 55, 0
7, 362820, Note_on_c, 5, 51, 86
7, 363630, Note_on_c, 5, 51, 0
7, 364800, End_track
8, 0, Start_track
8, 0, Title_t, "Violoncello                         "
8, 0, Control_c, 6, 7, 70
8, 160, Control_c, 6, 91, 100
8, 320, Control_c, 6, 93, 30
8, 480, Control_c, 6, 10, 70
8, 640, Control_c, 6, 0, 0
8, 640, Control_c, 6, 32, 0
8, 640, Program_c, 6, 48
8, 800, Control_c, 6, 121, 0
8, 960, Pitch_bend_c, 6, 8192
8, 1120, Control_c, 6, 1, 0
8, 1280, Control_c, 6, 11, 127
8, 1440, Control_c, 6, 65, 0
8, 1600, Control_c, 6, 66, 0
8, 1760, Control_c, 6, 67, 0
8, 2160, Note_on_c, 6, 51, 57
8, 2360, Note_on_c, 6, 51, 0
8, 2400, Note_on_c, 6, 55, 57
8, 2600, Note_on_c, 6, 55, 0
8, 2640, Note_on_c, 6, 58, 57
8, 2840, Note_on_c, 6, 58, 0
8, 2880, Note_on_c, 6, 63, 57
8, 3280, Note_on_c, 6, 63, 0
8, 3360, Note_on_c, 6, 51, 57
8, 3760, Note_on_c, 6, 51, 0
8, 4080, Note_on_c, 6, 51, 57
8, 4280, Note_on_c, 6, 51, 0
8, 4320, Note_on_c, 6, 55, 57
8, 4520, Note_on_c, 6, 55, 0
8, 4560, Note_on_c, 6, 58, 57
8, 4760, Note_on_c, 6, 58, 0
8, 4800, Note_on_c, 6, 63, 57
8, 5200, Note_on_c, 6, 63, 0
8, 5280, Note_on_c, 6, 51, 57
8, 5680, Note_on_c, 6, 51, 0
8, 6000, Note_on_c, 6, 51, 57
8, 6200, Note_on_c, 6, 51, 0
8, 6240, Note_on_c, 6, 55, 57
8, 6440, Note_on_c, 6, 55, 0
8, 6480, Note_on_c, 6, 58, 57
8, 6680, Note_on_c, 6, 58, 0
8, 6720, Note_on_c, 6, 55, 57
8, 6920, Note_on_c, 6, 55, 0
8, 6960, Note_on_c, 6, 58, 57
8, 7160, Note_on_c, 6, 58, 0
8, 7200, Note_on_c, 6, 51, 57
8, 7400, Note_on_c, 6, 51, 0
8, 7440, Note_on_c, 6, 56, 57
8, 7640, Note_on_c, 6, 56, 0
8, 7680, Note_on_c, 6, 56, 57
8, 7880, Note_on_c, 6, 56, 0
8, 7920, Note_on_c, 6, 53, 57
8, 8120, Note_on_c, 6, 53, 0
8, 8160, Note_on_c, 6, 50, 57
8, 8360, Note_on_c, 6, 50, 0
8, 8400, Note_on_c, 6, 46, 57
8, 8600, Note_on_c, 6, 46, 0
8, 8640, Note_on_c, 6, 51, 57
8, 8840, Note_on_c, 6, 51, 0
8, 8880, Note_on_c, 6, 51, 57
8, 9080, Note_on_c, 6, 51, 0
8, 9120, Note_on_c, 6, 53, 57
8, 9320, Note_on_c, 6, 53, 0
8, 9360, Note_on_c, 6, 55, 57
8, 9560, Note_on_c, 6, 55, 0
8, 9600, Note_on_c, 6, 56, 57
8, 9800, Note_on_c, 6, 56, 0
8, 9840, Note_on_c, 6, 44, 57
8, 10040, Note_on_c, 6, 44, 0
8, 10080, Note_on_c, 6, 48, 57
8, 10280, Note_on_c, 6, 48, 0
8, 10320, Note_on_c, 6, 51, 57
8, 10520, Note_on_c, 6, 51, 0
8, 10560, Note_on_c, 6, 56, 57
8, 10760, Note_on_c, 6, 56, 0
8, 10800, Note_on_c, 6, 51, 57
8, 11000, Note_on_c, 6, 51, 0
8, 11040, Note_on_c, 6, 48, 57
8, 11240, Note_on_c, 6, 48, 0
8, 11280, Note_on_c, 6, 44, 57
8, 11480, Note_on_c, 6, 44, 0
8, 11760, Note_on_c, 6, 51, 57
8, 11960, Note_on_c, 6, 51, 0
8, 12000, Note_on_c, 6, 55, 57
8, 12200, Note_on_c, 6, 55, 0
8, 12240, Note_on_c, 6, 58, 57
8, 12440, Note_on_c, 6, 58, 0
8, 12480, Note_on_c, 6, 63, 57
8, 12680, Note_on_c, 6, 63, 0
8, 12720, Note_on_c, 6, 58, 57
8, 12920, Note_on_c, 6, 58, 0
8, 12960, Note_on_c, 6, 55, 57
8, 13160, Note_on_c, 6, 55, 0
8, 13200, Note_on_c, 6, 51, 57
8, 13400, Note_on_c, 6, 51, 0
8, 13440, Note_on_c, 6, 53, 57
8, 14050, Note_on_c, 6, 53, 0
8, 14160, Note_on_c, 6, 56, 57
8, 14360, Note_on_c, 6, 56, 0
8, 14400, Note_on_c, 6, 58, 57
8, 15010, Note_on_c, 6, 58, 0
8, 15120, Note_on_c, 6, 50, 57
8, 15320, Note_on_c, 6, 50, 0
8, 15360, Note_on_c, 6, 51, 57
8, 15560, Note_on_c, 6, 51, 0
8, 15600, Note_on_c, 6, 51, 57
8, 15800, Note_on_c, 6, 51, 0
8, 15840, Note_on_c, 6, 53, 57
8, 16040, Note_on_c, 6, 53, 0
8, 16080, Note_on_c, 6, 53, 57
8, 16280, Note_on_c, 6, 53, 0
8, 16320, Note_on_c, 6, 55, 57
8, 16520, Note_on_c, 6, 55, 0
8, 16560, Note_on_c, 6, 55, 57
8, 16760, Note_on_c, 6, 55, 0
8, 16800, Note_on_c, 6, 51, 57
8, 17000, Note_on_c, 6, 51, 0
8, 17040, Note_on_c, 6, 51, 57
8, 17240, Note_on_c, 6, 51, 0
8, 17280, Note_on_c, 6, 60, 57
8, 17480, Note_on_c, 6, 60, 0
8, 17520, Note_on_c, 6, 60, 57
8, 17720, Note_on_c, 6, 60, 0
8, 17760, Note_on_c, 6, 58, 57
8, 17960, Note_on_c, 6, 58, 0
8, 18000, Note_on_c, 6, 58, 57
8, 18200, Note_on_c, 6, 58, 0
8, 18240, Note_on_c, 6, 56, 57
8, 18440, Note_on_c, 6, 56, 0
8, 18480, Note_on_c, 6, 56, 57
8, 18680, Note_on_c, 6, 56, 0
8, 18720, Note_on_c, 6, 57, 57
8, 18920, Note_on_c, 6, 57, 0
8, 18960, Note_on_c, 6, 57, 57
8, 19160, Note_on_c, 6, 57, 0
8, 19200, Note_on_c, 6, 58, 57
8, 19400, Note_on_c, 6, 58, 0
8, 19440, Note_on_c, 6, 46, 57
8, 19640, Note_on_c, 6, 46, 0
8, 19680, Note_on_c, 6, 50, 57
8, 19880, Note_on_c, 6, 50, 0
8, 19920, Note_on_c, 6, 46, 57
8, 20120, Note_on_c, 6, 46, 0
8, 20160, Note_on_c, 6, 51, 57
8, 20360, Note_on_c, 6, 51, 0
8, 20400, Note_on_c, 6, 58, 57
8, 20600, Note_on_c, 6, 58, 0
8, 20640, Note_on_c, 6, 55, 57
8, 20840, Note_on_c, 6, 55, 0
8, 20880, Note_on_c, 6, 51, 57
8, 21080, Note_on_c, 6, 51, 0
8, 21120, Note_on_c, 6, 58, 57
8, 21320, Note_on_c, 6, 58, 0
8, 21360, Note_on_c, 6, 46, 57
8, 21560, Note_on_c, 6, 46, 0
8, 21600, Note_on_c, 6, 50, 57
8, 21800, Note_on_c, 6, 50, 0
8, 21840, Note_on_c, 6, 46, 57
8, 22040, Note_on_c, 6, 46, 0
8, 22080, Note_on_c, 6, 51, 57
8, 22280, Note_on_c, 6, 51, 0
8, 22320, Note_on_c, 6, 58, 57
8, 22520, Note_on_c, 6, 58, 0
8, 22560, Note_on_c, 6, 55, 57
8, 22760, Note_on_c, 6, 55, 0
8, 22800, Note_on_c, 6, 51, 57
8, 23000, Note_on_c, 6, 51, 0
8, 23040, Note_on_c, 6, 46, 57
8, 23240, Note_on_c, 6, 46, 0
8, 23280, Note_on_c, 6, 58, 57
8, 23480, Note_on_c, 6, 58, 0
8, 23520, Note_on_c, 6, 46, 57
8, 23720, Note_on_c, 6, 46, 0
8, 23760, Note_on_c, 6, 46, 57
8, 23960, Note_on_c, 6, 46, 0
8, 24000, Note_on_c, 6, 46, 57
8, 24400, Note_on_c, 6, 46, 0
8, 24960, Note_on_c, 6, 51, 64
8, 25920, Note_on_c, 6, 51, 0
8, 25920, Note_on_c, 6, 53, 64
8, 26880, Note_on_c, 6, 53, 0
8, 26880, Note_on_c, 6, 55, 64
8, 27360, Note_on_c, 6, 55, 0
8, 27360, Note_on_c, 6, 51, 64
8, 27840, Note_on_c, 6, 51, 0
8, 27840, Note_on_c, 6, 50, 64
8, 28320, Note_on_c, 6, 50, 0
8, 28320, Note_on_c, 6, 46, 64
8, 28800, Note_on_c, 6, 46, 0
8, 28800, Note_on_c, 6, 51, 64
8, 29760, Note_on_c, 6, 51, 0
8, 29760, Note_on_c, 6, 53, 64
8, 30240, Note_on_c, 6, 53, 0
8, 30240, Note_on_c, 6, 56, 64
8, 30720, Note_on_c, 6, 56, 0
8, 30720, Note_on_c, 6, 55, 64
8, 31200, Note_on_c, 6, 55, 0
8, 31200, Note_on_c, 6, 51, 64
8, 31680, Note_on_c, 6, 51, 0
8, 31680, Note_on_c, 6, 50, 64
8, 32160, Note_on_c, 6, 50, 0
8, 32160, Note_on_c, 6, 46, 64
8, 32640, Note_on_c, 6, 46, 0
8, 32640, Note_on_c, 6, 51, 64
8, 32840, Note_on_c, 6, 51, 0
8, 32880, Note_on_c, 6, 51, 64
8, 33080, Note_on_c, 6, 51, 0
8, 33120, Note_on_c, 6, 51, 64
8, 33320, Note_on_c, 6, 51, 0
8, 33360, Note_on_c, 6, 51, 64
8, 33560, Note_on_c, 6, 51, 0
8, 33600, Note_on_c, 6, 51, 64
8, 33800, Note_on_c, 6, 51, 0
8, 33840, Note_on_c, 6, 51, 64
8, 34040, Note_on_c, 6, 51, 0
8, 34080, Note_on_c, 6, 51, 64
8, 34280, Note_on_c, 6, 51, 0
8, 34320, Note_on_c, 6, 51, 64
8, 34520, Note_on_c, 6, 51, 0
8, 34560, Note_on_c, 6, 51, 64
8, 34760, Note_on_c, 6, 51, 0
8, 34800, Note_on_c, 6, 51, 64
8, 35000, Note_on_c, 6, 51, 0
8, 35040, Note_on_c, 6, 51, 64
8, 35240, Note_on_c, 6, 51, 0
8, 35280, Note_on_c, 6, 51, 64
8, 35480, Note_on_c, 6, 51, 0
8, 35520, Note_on_c, 6, 51, 64
8, 35720, Note_on_c, 6, 51, 0
8, 35760, Note_on_c, 6, 51, 64
8, 35960, Note_on_c, 6, 51, 0
8, 36000, Note_on_c, 6, 51, 64
8, 36200, Note_on_c, 6, 51, 0
8, 36240, Note_on_c, 6, 51, 64
8, 36440, Note_on_c, 6, 51, 0
8, 36480, Note_on_c, 6, 51, 64
8, 36680, Note_on_c, 6, 51, 0
8, 36720, Note_on_c, 6, 51, 64
8, 36920, Note_on_c, 6, 51, 0
8, 36960, Note_on_c, 6, 51, 64
8, 37160, Note_on_c, 6, 51, 0
8, 37200, Note_on_c, 6, 51, 64
8, 37400, Note_on_c, 6, 51, 0
8, 37440, Note_on_c, 6, 51, 64
8, 37640, Note_on_c, 6, 51, 0
8, 37680, Note_on_c, 6, 51, 64
8, 37880, Note_on_c, 6, 51, 0
8, 37920, Note_on_c, 6, 51, 64
8, 38120, Note_on_c, 6, 51, 0
8, 38160, Note_on_c, 6, 51, 64
8, 38360, Note_on_c, 6, 51, 0
8, 38400, Note_on_c, 6, 51, 64
8, 38600, Note_on_c, 6, 51, 0
8, 38640, Control_c, 6, 11, 94
8, 38640, Note_on_c, 6, 51, 86
8, 38840, Note_on_c, 6, 51, 0
8, 38880, Control_c, 6, 11, 94
8, 38880, Note_on_c, 6, 51, 86
8, 39000, Control_c, 6, 11, 94
8, 39080, Note_on_c, 6, 51, 0
8, 39120, Control_c, 6, 11, 95
8, 39120, Note_on_c, 6, 51, 86
8, 39240, Control_c, 6, 11, 95
8, 39320, Note_on_c, 6, 51, 0
8, 39360, Control_c, 6, 11, 97
8, 39360, Note_on_c, 6, 51, 86
8, 39480, Control_c, 6, 11, 97
8, 39560, Note_on_c, 6, 51, 0
8, 39600, Control_c, 6, 11, 98
8, 39600, Note_on_c, 6, 51, 86
8, 39720, Control_c, 6, 11, 98
8, 39800, Note_on_c, 6, 51, 0
8, 39840, Control_c, 6, 11, 100
8, 39840, Note_on_c, 6, 51, 86
8, 39960, Control_c, 6, 11, 100
8, 40040, Note_on_c, 6, 51, 0
8, 40080, Control_c, 6, 11, 101
8, 40080, Note_on_c, 6, 51, 86
8, 40200, Control_c, 6, 11, 101
8, 40280, Note_on_c, 6, 51, 0
8, 40320, Note_on_c, 6, 51, 86
8, 40320, Control_c, 6, 11, 103
8, 40440, Control_c, 6, 11, 103
8, 40520, Note_on_c, 6, 51, 0
8, 40560, Note_on_c, 6, 51, 86
8, 40560, Control_c, 6, 11, 104
8, 40680, Control_c, 6, 11, 104
8, 40760, Note_on_c, 6, 51, 0
8, 40800, Note_on_c, 6, 51, 86
8, 40800, Control_c, 6, 11, 106
8, 40920, Control_c, 6, 11, 106
8, 41000, Note_on_c, 6, 51, 0
8, 41040, Note_on_c, 6, 51, 86
8, 41040, Control_c, 6, 11, 107
8, 41160, Control_c, 6, 11, 107
8, 41240, Note_on_c, 6, 51, 0
8, 41280, Note_on_c, 6, 51, 86
8, 41280, Control_c, 6, 11, 109
8, 41400, Control_c, 6, 11, 109
8, 41480, Note_on_c, 6, 51, 0
8, 41520, Note_on_c, 6, 51, 86
8, 41520, Control_c, 6, 11, 110
8, 41640, Control_c, 6, 11, 110
8, 41720, Note_on_c, 6, 51, 0
8, 41760, Note_on_c, 6, 51, 86
8, 41760, Control_c, 6, 11, 112
8, 41880, Control_c, 6, 11, 113
8, 41960, Note_on_c, 6, 51, 0
8, 42000, Note_on_c, 6, 51, 86
8, 42000, Control_c, 6, 11, 113
8, 42120, Control_c, 6, 11, 115
8, 42200, Note_on_c, 6, 51, 0
8, 42240, Note_on_c, 6, 51, 86
8, 42240, Control_c, 6, 11, 115
8, 42360, Control_c, 6, 11, 116
8, 42440, Note_on_c, 6, 51, 0
8, 42480, Note_on_c, 6, 51, 86
8, 42480, Control_c, 6, 11, 116
8, 42600, Control_c, 6, 11, 118
8, 42680, Note_on_c, 6, 51, 0
8, 42720, Note_on_c, 6, 51, 86
8, 42720, Control_c, 6, 11, 118
8, 42840, Control_c, 6, 11, 119
8, 42920, Note_on_c, 6, 51, 0
8, 42960, Note_on_c, 6, 51, 86
8, 42960, Control_c, 6, 11, 119
8, 43080, Control_c, 6, 11, 121
8, 43160, Note_on_c, 6, 51, 0
8, 43200, Note_on_c, 6, 51, 86
8, 43200, Control_c, 6, 11, 121
8, 43320, Control_c, 6, 11, 122
8, 43400, Note_on_c, 6, 51, 0
8, 43440, Note_on_c, 6, 51, 86
8, 43440, Control_c, 6, 11, 122
8, 43560, Control_c, 6, 11, 124
8, 43640, Note_on_c, 6, 51, 0
8, 43680, Note_on_c, 6, 51, 86
8, 43680, Control_c, 6, 11, 124
8, 43800, Control_c, 6, 11, 125
8, 43880, Note_on_c, 6, 51, 0
8, 43920, Note_on_c, 6, 51, 86
8, 43920, Control_c, 6, 11, 125
8, 44040, Control_c, 6, 11, 127
8, 44120, Note_on_c, 6, 51, 0
8, 44160, Note_on_c, 6, 51, 86
8, 44360, Note_on_c, 6, 51, 0
8, 44400, Note_on_c, 6, 51, 86
8, 44600, Note_on_c, 6, 51, 0
8, 44640, Note_on_c, 6, 51, 86
8, 44840, Note_on_c, 6, 51, 0
8, 44880, Note_on_c, 6, 51, 86
8, 45080, Note_on_c, 6, 51, 0
8, 45120, Note_on_c, 6, 49, 86
8, 45320, Note_on_c, 6, 49, 0
8, 45360, Note_on_c, 6, 49, 86
8, 45560, Note_on_c, 6, 49, 0
8, 45600, Note_on_c, 6, 49, 86
8, 45800, Note_on_c, 6, 49, 0
8, 45840, Note_on_c, 6, 49, 86
8, 46040, Note_on_c, 6, 49, 0
8, 46080, Note_on_c, 6, 48, 86
8, 46280, Note_on_c, 6, 48, 0
8, 46320, Note_on_c, 6, 48, 86
8, 46520, Note_on_c, 6, 48, 0
8, 46560, Note_on_c, 6, 48, 86
8, 46760, Note_on_c, 6, 48, 0
8, 46800, Note_on_c, 6, 48, 86
8, 47000, Note_on_c, 6, 48, 0
8, 47040, Note_on_c, 6, 44, 86
8, 47240, Note_on_c, 6, 44, 0
8, 47280, Note_on_c, 6, 44, 86
8, 47480, Note_on_c, 6, 44, 0
8, 47520, Note_on_c, 6, 44, 86
8, 47720, Note_on_c, 6, 44, 0
8, 47760, Note_on_c, 6, 44, 86
8, 47960, Note_on_c, 6, 44, 0
8, 48000, Note_on_c, 6, 46, 86
8, 48200, Note_on_c, 6, 46, 0
8, 48240, Note_on_c, 6, 46, 86
8, 48440, Note_on_c, 6, 46, 0
8, 48480, Note_on_c, 6, 46, 86
8, 48680, Note_on_c, 6, 46, 0
8, 48720, Note_on_c, 6, 46, 86
8, 48920, Note_on_c, 6, 46, 0
8, 48960, Note_on_c, 6, 46, 86
8, 49160, Note_on_c, 6, 46, 0
8, 49200, Note_on_c, 6, 46, 86
8, 49400, Note_on_c, 6, 46, 0
8, 49440, Note_on_c, 6, 44, 86
8, 49640, Note_on_c, 6, 44, 0
8, 49680, Note_on_c, 6, 44, 86
8, 49880, Note_on_c, 6, 44, 0
8, 49920, Note_on_c, 6, 43, 86
8, 50120, Note_on_c, 6, 43, 0
8, 50160, Note_on_c, 6, 43, 86
8, 50360, Note_on_c, 6, 43, 0
8, 50400, Note_on_c, 6, 43, 86
8, 50600, Note_on_c, 6, 43, 0
8, 50640, Note_on_c, 6, 43, 86
8, 50840, Note_on_c, 6, 43, 0
8, 50880, Note_on_c, 6, 43, 86
8, 51080, Note_on_c, 6, 43, 0
8, 51120, Note_on_c, 6, 43, 86
8, 51320, Note_on_c, 6, 43, 0
8, 51360, Note_on_c, 6, 43, 86
8, 51560, Note_on_c, 6, 43, 0
8, 51600, Note_on_c, 6, 43, 86
8, 51800, Note_on_c, 6, 43, 0
8, 51840, Note_on_c, 6, 44, 86
8, 52040, Note_on_c, 6, 44, 0
8, 52080, Note_on_c, 6, 44, 86
8, 52280, Note_on_c, 6, 44, 0
8, 52320, Note_on_c, 6, 44, 86
8, 52520, Note_on_c, 6, 44, 0
8, 52560, Note_on_c, 6, 44, 86
8, 52760, Note_on_c, 6, 44, 0
8, 52800, Note_on_c, 6, 45, 86
8, 53000, Note_on_c, 6, 45, 0
8, 53040, Note_on_c, 6, 45, 86
8, 53240, Note_on_c, 6, 45, 0
8, 53280, Note_on_c, 6, 45, 86
8, 53480, Note_on_c, 6, 45, 0
8, 53520, Note_on_c, 6, 45, 86
8, 53720, Note_on_c, 6, 45, 0
8, 53760, Note_on_c, 6, 46, 86
8, 53960, Note_on_c, 6, 46, 0
8, 54000, Note_on_c, 6, 58, 86
8, 54200, Note_on_c, 6, 58, 0
8, 54240, Note_on_c, 6, 58, 86
8, 54640, Note_on_c, 6, 58, 0
8, 54960, Note_on_c, 6, 58, 86
8, 55160, Note_on_c, 6, 58, 0
8, 55200, Note_on_c, 6, 58, 86
8, 55600, Note_on_c, 6, 58, 0
8, 55920, Note_on_c, 6, 58, 86
8, 56120, Note_on_c, 6, 58, 0
8, 56160, Note_on_c, 6, 58, 86
8, 56360, Note_on_c, 6, 58, 0
8, 56640, Note_on_c, 6, 58, 86
8, 56840, Note_on_c, 6, 58, 0
8, 57120, Note_on_c, 6, 58, 86
8, 57320, Note_on_c, 6, 58, 0
8, 57600, Note_on_c, 6, 58, 86
8, 57800, Note_on_c, 6, 58, 0
8, 58080, Note_on_c, 6, 58, 86
8, 58480, Note_on_c, 6, 58, 0
8, 58560, Note_on_c, 6, 55, 86
8, 58960, Note_on_c, 6, 55, 0
8, 59040, Note_on_c, 6, 51, 86
8, 59440, Note_on_c, 6, 51, 0
8, 59520, Note_on_c, 6, 46, 86
8, 59720, Note_on_c, 6, 46, 0
8, 59760, Note_on_c, 6, 46, 86
8, 59960, Note_on_c, 6, 46, 0
8, 60000, Note_on_c, 6, 51, 86
8, 60200, Note_on_c, 6, 51, 0
8, 60240, Note_on_c, 6, 55, 86
8, 60440, Note_on_c, 6, 55, 0
8, 60480, Note_on_c, 6, 58, 86
8, 60880, Note_on_c, 6, 58, 0
8, 60960, Note_on_c, 6, 46, 86
8, 61360, Note_on_c, 6, 46, 0
8, 61440, Note_on_c, 6, 51, 86
8, 66910, Note_on_c, 6, 51, 0
8, 67200, Note_on_c, 6, 44, 64
8, 68160, Note_on_c, 6, 44, 0
8, 68160, Note_on_c, 6, 46, 64
8, 69120, Note_on_c, 6, 46, 0
8, 69120, Note_on_c, 6, 51, 64
8, 74590, Note_on_c, 6, 51, 0
8, 74880, Note_on_c, 6, 44, 64
8, 75840, Note_on_c, 6, 44, 0
8, 75840, Note_on_c, 6, 46, 64
8, 76800, Note_on_c, 6, 46, 0
8, 76800, Note_on_c, 6, 51, 64
8, 77200, Note_on_c, 6, 51, 0
8, 77520, Note_on_c, 6, 46, 86
8, 77720, Note_on_c, 6, 46, 0
8, 77760, Note_on_c, 6, 51, 86
8, 77960, Note_on_c, 6, 51, 0
8, 78000, Note_on_c, 6, 51, 86
8, 78200, Note_on_c, 6, 51, 0
8, 78240, Note_on_c, 6, 46, 86
8, 78440, Note_on_c, 6, 46, 0
8, 78480, Note_on_c, 6, 46, 86
8, 78680, Note_on_c, 6, 46, 0
8, 78720, Note_on_c, 6, 51, 86
8, 79120, Note_on_c, 6, 51, 0
8, 79440, Note_on_c, 6, 46, 86
8, 79640, Note_on_c, 6, 46, 0
8, 79680, Note_on_c, 6, 51, 86
8, 79880, Note_on_c, 6, 51, 0
8, 79920, Note_on_c, 6, 51, 86
8, 80120, Note_on_c, 6, 51, 0
8, 80160, Note_on_c, 6, 46, 86
8, 80360, Note_on_c, 6, 46, 0
8, 80400, Note_on_c, 6, 46, 86
8, 80600, Note_on_c, 6, 46, 0
8, 80640, Note_on_c, 6, 51, 86
8, 81040, Note_on_c, 6, 51, 0
8, 81120, Note_on_c, 6, 51, 86
8, 81520, Note_on_c, 6, 51, 0
8, 81600, Note_on_c, 6, 51, 86
8, 82000, Note_on_c, 6, 51, 0
8, 82560, Note_on_c, 6, 51, 64
8, 82960, Note_on_c, 6, 51, 0
8, 84480, Note_on_c, 6, 51, 64
8, 84880, Note_on_c, 6, 51, 0
8, 86400, Note_on_c, 6, 51, 64
8, 86800, Note_on_c, 6, 51, 0
8, 88320, Note_on_c, 6, 50, 64
8, 88800, Note_on_c, 6, 50, 0
8, 88800, Note_on_c, 6, 46, 64
8, 89280, Note_on_c, 6, 46, 0
8, 89280, Note_on_c, 6, 51, 64
8, 89680, Note_on_c, 6, 51, 0
8, 90240, Note_on_c, 6, 56, 64
8, 90640, Note_on_c, 6, 56, 0
8, 92160, Note_on_c, 6, 55, 64
8, 92560, Note_on_c, 6, 55, 0
8, 95520, Note_on_c, 6, 58, 64
8, 95920, Note_on_c, 6, 58, 0
8, 96000, Note_on_c, 6, 51, 64
8, 96400, Note_on_c, 6, 51, 0
8, 96480, Note_on_c, 6, 63, 64
8, 96880, Note_on_c, 6, 63, 0
8, 97920, Note_on_c, 6, 56, 64
8, 98320, Note_on_c, 6, 56, 0
8, 99840, Note_on_c, 6, 55, 64
8, 100240, Note_on_c, 6, 55, 0
8, 100320, Note_on_c, 6, 53, 64
8, 100720, Note_on_c, 6, 53, 0
8, 100800, Note_on_c, 6, 51, 64
8, 101200, Note_on_c, 6, 51, 0
8, 102600, Note_on_c, 6, 57, 64
8, 102720, Note_on_c, 6, 57, 0
8, 102720, Note_on_c, 6, 58, 64
8, 103200, Note_on_c, 6, 58, 0
8, 103200, Note_on_c, 6, 46, 64
8, 103600, Note_on_c, 6, 46, 0
8, 103680, Note_on_c, 6, 51, 86
8, 104080, Note_on_c, 6, 51, 0
8, 104400, Note_on_c, 6, 46, 86
8, 104600, Note_on_c, 6, 46, 0
8, 104640, Note_on_c, 6, 51, 86
8, 104840, Note_on_c, 6, 51, 0
8, 104880, Note_on_c, 6, 51, 86
8, 105080, Note_on_c, 6, 51, 0
8, 105120, Note_on_c, 6, 46, 86
8, 105320, Note_on_c, 6, 46, 0
8, 105360, Note_on_c, 6, 46, 86
8, 105560, Note_on_c, 6, 46, 0
8, 105600, Note_on_c, 6, 51, 86
8, 106000, Note_on_c, 6, 51, 0
8, 106320, Note_on_c, 6, 46, 86
8, 106520, Note_on_c, 6, 46, 0
8, 106560, Note_on_c, 6, 51, 86
8, 106760, Note_on_c, 6, 51, 0
8, 106800, Note_on_c, 6, 51, 86
8, 107000, Note_on_c, 6, 51, 0
8, 107040, Note_on_c, 6, 46, 86
8, 107240, Note_on_c, 6, 46, 0
8, 107280, Note_on_c, 6, 46, 86
8, 107480, Note_on_c, 6, 46, 0
8, 107520, Note_on_c, 6, 51, 86
8, 107920, Note_on_c, 6, 51, 0
8, 109440, Note_on_c, 6, 51, 64
8, 109840, Note_on_c, 6, 51, 0
8, 111360, Note_on_c, 6, 50, 64
8, 111760, Note_on_c, 6, 50, 0
8, 113280, Note_on_c, 6, 48, 64
8, 114240, Note_on_c, 6, 48, 0
8, 114240, Note_on_c, 6, 53, 64
8, 115200, Note_on_c, 6, 53, 0
8, 115200, Note_on_c, 6, 46, 64
8, 116420, Note_on_c, 6, 46, 0
8, 117120, Note_on_c, 6, 50, 64
8, 117520, Note_on_c, 6, 50, 0
8, 118080, Note_on_c, 6, 50, 64
8, 118480, Note_on_c, 6, 50, 0
8, 119040, Note_on_c, 6, 51, 64
8, 119850, Note_on_c, 6, 51, 0
8, 120000, Note_on_c, 6, 51, 64
8, 120240, Note_on_c, 6, 51, 0
8, 120240, Note_on_c, 6, 50, 64
8, 120480, Note_on_c, 6, 50, 0
8, 120480, Note_on_c, 6, 51, 64
8, 120720, Note_on_c, 6, 51, 0
8, 120720, Note_on_c, 6, 50, 64
8, 120960, Note_on_c, 6, 50, 0
8, 120960, Note_on_c, 6, 51, 64
8, 121160, Note_on_c, 6, 51, 0
8, 121440, Note_on_c, 6, 48, 64
8, 121640, Note_on_c, 6, 48, 0
8, 121920, Note_on_c, 6, 50, 64
8, 122120, Note_on_c, 6, 50, 0
8, 122400, Note_on_c, 6, 52, 64
8, 122600, Note_on_c, 6, 52, 0
8, 122880, Note_on_c, 6, 53, 64
8, 123080, Note_on_c, 6, 53, 0
8, 123120, Note_on_c, 6, 65, 86
8, 123320, Note_on_c, 6, 65, 0
8, 123360, Note_on_c, 6, 65, 86
8, 123560, Note_on_c, 6, 65, 0
8, 123600, Note_on_c, 6, 65, 86
8, 123800, Note_on_c, 6, 65, 0
8, 123840, Note_on_c, 6, 65, 86
8, 124040, Note_on_c, 6, 65, 0
8, 124080, Note_on_c, 6, 60, 86
8, 124280, Note_on_c, 6, 60, 0
8, 124320, Note_on_c, 6, 57, 86
8, 124520, Note_on_c, 6, 57, 0
8, 124560, Note_on_c, 6, 53, 86
8, 124760, Note_on_c, 6, 53, 0
8, 124800, Note_on_c, 6, 41, 64
8, 125000, Note_on_c, 6, 41, 0
8, 125280, Note_on_c, 6, 53, 64
8, 125480, Note_on_c, 6, 53, 0
8, 125760, Note_on_c, 6, 48, 64
8, 125960, Note_on_c, 6, 48, 0
8, 126240, Note_on_c, 6, 45, 64
8, 126440, Note_on_c, 6, 45, 0
8, 126720, Note_on_c, 6, 41, 64
8, 127120, Note_on_c, 6, 41, 0
8, 128640, Note_on_c, 6, 41, 64
8, 128840, Note_on_c, 6, 41, 0
8, 129120, Note_on_c, 6, 53, 64
8, 129320, Note_on_c, 6, 53, 0
8, 129600, Note_on_c, 6, 48, 64
8, 129800, Note_on_c, 6, 48, 0
8, 130080, Note_on_c, 6, 45, 64
8, 130280, Note_on_c, 6, 45, 0
8, 130560, Note_on_c, 6, 41, 64
8, 130960, Note_on_c, 6, 41, 0
8, 132480, Note_on_c, 6, 41, 64
8, 132680, Note_on_c, 6, 41, 0
8, 132960, Note_on_c, 6, 53, 64
8, 133160, Note_on_c, 6, 53, 0
8, 133440, Note_on_c, 6, 48, 64
8, 133640, Note_on_c, 6, 48, 0
8, 133920, Note_on_c, 6, 45, 64
8, 134120, Note_on_c, 6, 45, 0
8, 134400, Note_on_c, 6, 41, 64
8, 134800, Note_on_c, 6, 41, 0
8, 135360, Note_on_c, 6, 54, 64
8, 136170, Note_on_c, 6, 54, 0
8, 136320, Note_on_c, 6, 55, 64
8, 137130, Note_on_c, 6, 55, 0
8, 137280, Note_on_c, 6, 52, 64
8, 138090, Note_on_c, 6, 52, 0
8, 138240, Note_on_c, 6, 53, 64
8, 138440, Note_on_c, 6, 53, 0
8, 138480, Note_on_c, 6, 53, 64
8, 138680, Note_on_c, 6, 53, 0
8, 138720, Note_on_c, 6, 53, 64
8, 138920, Note_on_c, 6, 53, 0
8, 138960, Note_on_c, 6, 53, 64
8, 139160, Note_on_c, 6, 53, 0
8, 139200, Note_on_c, 6, 53, 64
8, 139400, Note_on_c, 6, 53, 0
8, 139440, Note_on_c, 6, 53, 64
8, 139640, Note_on_c, 6, 53, 0
8, 139680, Note_on_c, 6, 53, 64
8, 139880, Note_on_c, 6, 53, 0
8, 139920, Note_on_c, 6, 53, 64
8, 140120, Note_on_c, 6, 53, 0
8, 140160, Note_on_c, 6, 53, 64
8, 140360, Note_on_c, 6, 53, 0
8, 140400, Control_c, 6, 11, 94
8, 140400, Note_on_c, 6, 53, 86
8, 140600, Note_on_c, 6, 53, 0
8, 140640, Control_c, 6, 11, 94
8, 140640, Note_on_c, 6, 53, 86
8, 140760, Control_c, 6, 11, 97
8, 140840, Note_on_c, 6, 53, 0
8, 140880, Control_c, 6, 11, 100
8, 140880, Note_on_c, 6, 53, 86
8, 141000, Control_c, 6, 11, 103
8, 141080, Note_on_c, 6, 53, 0
8, 141120, Control_c, 6, 11, 106
8, 141120, Note_on_c, 6, 53, 86
8, 141240, Control_c, 6, 11, 109
8, 141320, Note_on_c, 6, 53, 0
8, 141360, Control_c, 6, 11, 110
8, 141360, Note_on_c, 6, 53, 86
8, 141480, Control_c, 6, 11, 113
8, 141560, Note_on_c, 6, 53, 0
8, 141600, Control_c, 6, 11, 116
8, 141600, Note_on_c, 6, 53, 86
8, 141720, Control_c, 6, 11, 119
8, 141800, Note_on_c, 6, 53, 0
8, 141840, Control_c, 6, 11, 122
8, 141840, Note_on_c, 6, 53, 86
8, 141960, Control_c, 6, 11, 125
8, 142040, Note_on_c, 6, 53, 0
8, 142080, Control_c, 6, 11, 127
8, 142080, Note_on_c, 6, 46, 86
8, 142280, Note_on_c, 6, 46, 0
8, 142320, Note_on_c, 6, 46, 86
8, 142520, Note_on_c, 6, 46, 0
8, 142560, Note_on_c, 6, 50, 86
8, 142760, Note_on_c, 6, 50, 0
8, 142800, Note_on_c, 6, 53, 86
8, 143000, Note_on_c, 6, 53, 0
8, 143040, Note_on_c, 6, 58, 86
8, 143240, Note_on_c, 6, 58, 0
8, 143280, Note_on_c, 6, 53, 86
8, 143480, Note_on_c, 6, 53, 0
8, 143520, Note_on_c, 6, 50, 86
8, 143720, Note_on_c, 6, 50, 0
8, 143760, Note_on_c, 6, 46, 86
8, 143960, Note_on_c, 6, 46, 0
8, 144240, Note_on_c, 6, 51, 86
8, 144440, Note_on_c, 6, 51, 0
8, 144480, Note_on_c, 6, 55, 86
8, 144680, Note_on_c, 6, 55, 0
8, 144720, Note_on_c, 6, 58, 86
8, 144920, Note_on_c, 6, 58, 0
8, 144960, Note_on_c, 6, 63, 86
8, 145160, Note_on_c, 6, 63, 0
8, 145200, Note_on_c, 6, 58, 86
8, 145400, Note_on_c, 6, 58, 0
8, 145440, Note_on_c, 6, 55, 86
8, 145640, Note_on_c, 6, 55, 0
8, 145680, Note_on_c, 6, 51, 86
8, 145880, Note_on_c, 6, 51, 0
8, 146160, Note_on_c, 6, 46, 86
8, 146360, Note_on_c, 6, 46, 0
8, 146400, Note_on_c, 6, 50, 86
8, 146600, Note_on_c, 6, 50, 0
8, 146640, Note_on_c, 6, 53, 86
8, 146840, Note_on_c, 6, 53, 0
8, 146880, Note_on_c, 6, 58, 86
8, 147080, Note_on_c, 6, 58, 0
8, 147120, Note_on_c, 6, 53, 86
8, 147320, Note_on_c, 6, 53, 0
8, 147360, Note_on_c, 6, 50, 86
8, 147560, Note_on_c, 6, 50, 0
8, 147600, Note_on_c, 6, 46, 86
8, 147800, Note_on_c, 6, 46, 0
8, 147840, Note_on_c, 6, 48, 86
8, 148450, Note_on_c, 6, 48, 0
8, 148560, Note_on_c, 6, 51, 86
8, 148760, Note_on_c, 6, 51, 0
8, 148800, Note_on_c, 6, 53, 86
8, 149410, Note_on_c, 6, 53, 0
8, 149520, Note_on_c, 6, 45, 86
8, 149720, Note_on_c, 6, 45, 0
8, 149760, Note_on_c, 6, 46, 86
8, 149960, Note_on_c, 6, 46, 0
8, 150000, Note_on_c, 6, 46, 86
8, 150200, Note_on_c, 6, 46, 0
8, 150240, Note_on_c, 6, 48, 86
8, 150440, Note_on_c, 6, 48, 0
8, 150480, Note_on_c, 6, 48, 86
8, 150680, Note_on_c, 6, 48, 0
8, 150720, Note_on_c, 6, 50, 86
8, 150920, Note_on_c, 6, 50, 0
8, 150960, Note_on_c, 6, 50, 86
8, 151160, Note_on_c, 6, 50, 0
8, 151200, Note_on_c, 6, 46, 86
8, 151400, Note_on_c, 6, 46, 0
8, 151440, Note_on_c, 6, 46, 86
8, 151640, Note_on_c, 6, 46, 0
8, 151680, Note_on_c, 6, 51, 86
8, 151880, Note_on_c, 6, 51, 0
8, 151920, Note_on_c, 6, 51, 86
8, 152120, Note_on_c, 6, 51, 0
8, 152160, Note_on_c, 6, 51, 86
8, 152360, Note_on_c, 6, 51, 0
8, 152400, Note_on_c, 6, 51, 86
8, 152600, Note_on_c, 6, 51, 0
8, 152640, Note_on_c, 6, 52, 86
8, 152840, Note_on_c, 6, 52, 0
8, 152880, Note_on_c, 6, 52, 86
8, 153080, Note_on_c, 6, 52, 0
8, 153120, Note_on_c, 6, 52, 86
8, 153320, Note_on_c, 6, 52, 0
8, 153360, Note_on_c, 6, 52, 86
8, 153560, Note_on_c, 6, 52, 0
8, 153600, Note_on_c, 6, 51, 86
8, 153800, Note_on_c, 6, 51, 0
8, 153840, Note_on_c, 6, 51, 86
8, 154040, Note_on_c, 6, 51, 0
8, 154080, Note_on_c, 6, 51, 86
8, 154280, Note_on_c, 6, 51, 0
8, 154320, Note_on_c, 6, 51, 86
8, 154520, Note_on_c, 6, 51, 0
8, 154560, Note_on_c, 6, 51, 86
8, 154760, Note_on_c, 6, 51, 0
8, 154800, Note_on_c, 6, 51, 86
8, 155000, Note_on_c, 6, 51, 0
8, 155040, Note_on_c, 6, 51, 86
8, 155240, Note_on_c, 6, 51, 0
8, 155280, Note_on_c, 6, 51, 86
8, 155480, Note_on_c, 6, 51, 0
8, 155520, Note_on_c, 6, 46, 86
8, 155920, Note_on_c, 6, 46, 0
8, 156240, Note_on_c, 6, 46, 64
8, 156480, Note_on_c, 6, 46, 0
8, 156480, Note_on_c, 6, 50, 64
8, 156960, Note_on_c, 6, 50, 0
8, 157200, Note_on_c, 6, 50, 64
8, 157440, Note_on_c, 6, 50, 0
8, 157440, Note_on_c, 6, 53, 64
8, 157920, Note_on_c, 6, 53, 0
8, 158160, Note_on_c, 6, 53, 64
8, 158360, Note_on_c, 6, 53, 0
8, 158400, Note_on_c, 6, 56, 114
8, 159010, Note_on_c, 6, 56, 0
8, 159120, Note_on_c, 6, 53, 64
8, 159240, Note_on_c, 6, 53, 0
8, 159240, Note_on_c, 6, 50, 64
8, 159360, Note_on_c, 6, 50, 0
8, 159360, Note_on_c, 6, 47, 64
8, 159560, Note_on_c, 6, 47, 0
8, 159840, Note_on_c, 6, 50, 64
8, 160040, Note_on_c, 6, 50, 0
8, 160320, Note_on_c, 6, 55, 114
8, 160930, Note_on_c, 6, 55, 0
8, 161040, Note_on_c, 6, 53, 64
8, 161160, Note_on_c, 6, 53, 0
8, 161160, Note_on_c, 6, 50, 64
8, 161280, Note_on_c, 6, 50, 0
8, 161280, Note_on_c, 6, 48, 64
8, 161680, Note_on_c, 6, 48, 0
8, 163200, Note_on_c, 6, 50, 64
8, 163600, Note_on_c, 6, 50, 0
8, 165120, Note_on_c, 6, 43, 64
8, 165520, Note_on_c, 6, 43, 0
8, 167040, Note_on_c, 6, 48, 64
8, 167440, Note_on_c, 6, 48, 0
8, 168960, Note_on_c, 6, 53, 64
8, 169360, Note_on_c, 6, 53, 0
8, 169920, Note_on_c, 6, 55, 64
8, 170320, Note_on_c, 6, 55, 0
8, 170880, Note_on_c, 6, 56, 64
8, 171560, Note_on_c, 6, 56, 0
8, 171600, Note_on_c, 6, 55, 64
8, 171800, Note_on_c, 6, 55, 0
8, 171840, Note_on_c, 6, 53, 64
8, 172650, Note_on_c, 6, 53, 0
8, 172800, Note_on_c, 6, 55, 64
8, 173610, Note_on_c, 6, 55, 0
8, 173760, Note_on_c, 6, 43, 64
8, 174570, Note_on_c, 6, 43, 0
8, 174720, Note_on_c, 6, 48, 64
8, 175120, Note_on_c, 6, 48, 0
8, 176640, Note_on_c, 6, 51, 64
8, 177040, Note_on_c, 6, 51, 0
8, 178560, Note_on_c, 6, 44, 64
8, 178960, Note_on_c, 6, 44, 0
8, 180480, Note_on_c, 6, 48, 64
8, 180880, Note_on_c, 6, 48, 0
8, 182400, Note_on_c, 6, 41, 64
8, 182800, Note_on_c, 6, 41, 0
8, 184320, Note_on_c, 6, 50, 64
8, 185280, Note_on_c, 6, 50, 0
8, 185280, Note_on_c, 6, 51, 64
8, 186240, Note_on_c, 6, 51, 0
8, 186240, Note_on_c, 6, 56, 64
8, 187200, Note_on_c, 6, 56, 0
8, 187200, Note_on_c, 6, 57, 64
8, 188160, Note_on_c, 6, 57, 0
8, 188160, Note_on_c, 6, 58, 64
8, 188560, Note_on_c, 6, 58, 0
8, 192000, Note_on_c, 6, 46, 64
8, 192200, Note_on_c, 6, 46, 0
8, 192480, Note_on_c, 6, 46, 64
8, 192680, Note_on_c, 6, 46, 0
8, 192960, Note_on_c, 6, 46, 64
8, 193160, Note_on_c, 6, 46, 0
8, 193440, Note_on_c, 6, 46, 64
8, 193640, Note_on_c, 6, 46, 0
8, 193920, Note_on_c, 6, 46, 64
8, 194120, Note_on_c, 6, 46, 0
8, 194400, Note_on_c, 6, 46, 64
8, 194600, Note_on_c, 6, 46, 0
8, 194880, Note_on_c, 6, 46, 64
8, 195080, Note_on_c, 6, 46, 0
8, 195360, Note_on_c, 6, 46, 64
8, 195560, Note_on_c, 6, 46, 0
8, 195840, Note_on_c, 6, 46, 64
8, 196040, Note_on_c, 6, 46, 0
8, 196320, Note_on_c, 6, 46, 64
8, 196520, Note_on_c, 6, 46, 0
8, 196800, Note_on_c, 6, 46, 64
8, 197000, Note_on_c, 6, 46, 0
8, 197280, Control_c, 6, 11, 94
8, 197280, Note_on_c, 6, 46, 86
8, 197400, Control_c, 6, 11, 95
8, 197480, Note_on_c, 6, 46, 0
8, 197520, Control_c, 6, 11, 95
8, 197640, Control_c, 6, 11, 97
8, 197760, Note_on_c, 6, 46, 86
8, 197760, Control_c, 6, 11, 98
8, 197880, Control_c, 6, 11, 98
8, 197960, Note_on_c, 6, 46, 0
8, 198000, Control_c, 6, 11, 100
8, 198120, Control_c, 6, 11, 101
8, 198240, Note_on_c, 6, 46, 86
8, 198240, Control_c, 6, 11, 103
8, 198360, Control_c, 6, 11, 103
8, 198440, Note_on_c, 6, 46, 0
8, 198480, Control_c, 6, 11, 104
8, 198600, Control_c, 6, 11, 106
8, 198720, Note_on_c, 6, 46, 86
8, 198720, Control_c, 6, 11, 106
8, 198840, Control_c, 6, 11, 107
8, 198920, Note_on_c, 6, 46, 0
8, 198960, Control_c, 6, 11, 109
8, 199080, Control_c, 6, 11, 109
8, 199200, Note_on_c, 6, 46, 86
8, 199200, Control_c, 6, 11, 110
8, 199320, Control_c, 6, 11, 112
8, 199400, Note_on_c, 6, 46, 0
8, 199440, Control_c, 6, 11, 113
8, 199560, Control_c, 6, 11, 113
8, 199680, Note_on_c, 6, 46, 86
8, 199680, Control_c, 6, 11, 115
8, 199800, Control_c, 6, 11, 116
8, 199920, Control_c, 6, 11, 116
8, 200040, Control_c, 6, 11, 118
8, 200080, Note_on_c, 6, 46, 0
8, 200160, Control_c, 6, 11, 119
8, 200280, Control_c, 6, 11, 121
8, 200400, Control_c, 6, 11, 121
8, 200520, Control_c, 6, 11, 122
8, 200640, Control_c, 6, 11, 124
8, 200760, Control_c, 6, 11, 124
8, 200880, Control_c, 6, 11, 125
8, 201000, Control_c, 6, 11, 127
8, 201840, Note_on_c, 6, 46, 86
8, 202040, Note_on_c, 6, 46, 0
8, 202080, Note_on_c, 6, 50, 86
8, 202280, Note_on_c, 6, 50, 0
8, 202320, Note_on_c, 6, 53, 86
8, 202520, Note_on_c, 6, 53, 0
8, 202560, Note_on_c, 6, 58, 86
8, 202760, Note_on_c, 6, 58, 0
8, 202800, Note_on_c, 6, 53, 86
8, 203000, Note_on_c, 6, 53, 0
8, 203040, Note_on_c, 6, 50, 86
8, 203240, Note_on_c, 6, 50, 0
8, 203280, Note_on_c, 6, 53, 86
8, 203480, Note_on_c, 6, 53, 0
8, 203520, Note_on_c, 6, 46, 86
8, 203920, Note_on_c, 6, 46, 0
8, 211200, Note_on_c, 6, 51, 64
8, 211600, Note_on_c, 6, 51, 0
8, 213120, Note_on_c, 6, 51, 64
8, 213520, Note_on_c, 6, 51, 0
8, 215040, Note_on_c, 6, 51, 64
8, 215440, Note_on_c, 6, 51, 0
8, 216960, Note_on_c, 6, 50, 64
8, 217360, Note_on_c, 6, 50, 0
8, 217440, Note_on_c, 6, 46, 64
8, 217840, Note_on_c, 6, 46, 0
8, 217920, Note_on_c, 6, 51, 64
8, 218320, Note_on_c, 6, 51, 0
8, 219120, Note_on_c, 6, 44, 86
8, 219320, Note_on_c, 6, 44, 0
8, 219360, Note_on_c, 6, 48, 86
8, 219560, Note_on_c, 6, 48, 0
8, 219600, Note_on_c, 6, 51, 86
8, 219800, Note_on_c, 6, 51, 0
8, 219840, Note_on_c, 6, 56, 86
8, 220040, Note_on_c, 6, 56, 0
8, 220080, Note_on_c, 6, 51, 86
8, 220280, Note_on_c, 6, 51, 0
8, 220320, Note_on_c, 6, 48, 86
8, 220520, Note_on_c, 6, 48, 0
8, 220560, Note_on_c, 6, 44, 86
8, 220760, Note_on_c, 6, 44, 0
8, 221040, Note_on_c, 6, 51, 86
8, 221240, Note_on_c, 6, 51, 0
8, 221280, Note_on_c, 6, 55, 86
8, 221480, Note_on_c, 6, 55, 0
8, 221520, Note_on_c, 6, 58, 86
8, 221720, Note_on_c, 6, 58, 0
8, 221760, Note_on_c, 6, 63, 86
8, 221960, Note_on_c, 6, 63, 0
8, 222000, Note_on_c, 6, 58, 86
8, 222200, Note_on_c, 6, 58, 0
8, 222240, Note_on_c, 6, 55, 86
8, 222440, Note_on_c, 6, 55, 0
8, 222480, Note_on_c, 6, 51, 86
8, 222680, Note_on_c, 6, 51, 0
8, 222720, Note_on_c, 6, 53, 86
8, 223330, Note_on_c, 6, 53, 0
8, 223440, Note_on_c, 6, 56, 86
8, 223640, Note_on_c, 6, 56, 0
8, 223680, Note_on_c, 6, 58, 86
8, 224290, Note_on_c, 6, 58, 0
8, 224400, Note_on_c, 6, 50, 86
8, 224600, Note_on_c, 6, 50, 0
8, 224640, Note_on_c, 6, 51, 86
8, 224840, Note_on_c, 6, 51, 0
8, 224880, Note_on_c, 6, 51, 86
8, 225080, Note_on_c, 6, 51, 0
8, 225120, Note_on_c, 6, 53, 86
8, 225320, Note_on_c, 6, 53, 0
8, 225360, Note_on_c, 6, 53, 86
8, 225560, Note_on_c, 6, 53, 0
8, 225600, Note_on_c, 6, 55, 86
8, 226000, Note_on_c, 6, 55, 0
8, 226560, Note_on_c, 6, 56, 64
8, 226960, Note_on_c, 6, 56, 0
8, 228480, Note_on_c, 6, 55, 64
8, 228880, Note_on_c, 6, 55, 0
8, 228960, Note_on_c, 6, 53, 64
8, 229360, Note_on_c, 6, 53, 0
8, 229440, Note_on_c, 6, 51, 64
8, 229840, Note_on_c, 6, 51, 0
8, 231240, Note_on_c, 6, 57, 64
8, 231360, Note_on_c, 6, 57, 0
8, 231360, Note_on_c, 6, 58, 64
8, 231840, Note_on_c, 6, 58, 0
8, 231840, Note_on_c, 6, 46, 64
8, 232240, Note_on_c, 6, 46, 0
8, 232320, Note_on_c, 6, 51, 86
8, 232720, Note_on_c, 6, 51, 0
8, 233040, Note_on_c, 6, 46, 86
8, 233240, Note_on_c, 6, 46, 0
8, 233280, Note_on_c, 6, 51, 86
8, 233480, Note_on_c, 6, 51, 0
8, 233520, Note_on_c, 6, 51, 86
8, 233720, Note_on_c, 6, 51, 0
8, 233760, Note_on_c, 6, 46, 86
8, 233960, Note_on_c, 6, 46, 0
8, 234000, Note_on_c, 6, 46, 86
8, 234200, Note_on_c, 6, 46, 0
8, 234240, Note_on_c, 6, 51, 86
8, 234640, Note_on_c, 6, 51, 0
8, 234960, Note_on_c, 6, 46, 86
8, 235160, Note_on_c, 6, 46, 0
8, 235200, Note_on_c, 6, 51, 86
8, 235400, Note_on_c, 6, 51, 0
8, 235440, Note_on_c, 6, 51, 86
8, 235640, Note_on_c, 6, 51, 0
8, 235680, Note_on_c, 6, 46, 86
8, 235880, Note_on_c, 6, 46, 0
8, 235920, Note_on_c, 6, 46, 86
8, 236120, Note_on_c, 6, 46, 0
8, 236160, Note_on_c, 6, 51, 86
8, 236560, Note_on_c, 6, 51, 0
8, 238080, Note_on_c, 6, 49, 64
8, 238480, Note_on_c, 6, 49, 0
8, 240000, Note_on_c, 6, 48, 64
8, 240400, Note_on_c, 6, 48, 0
8, 241920, Note_on_c, 6, 47, 64
8, 242320, Note_on_c, 6, 47, 0
8, 243840, Note_on_c, 6, 46, 64
8, 244240, Note_on_c, 6, 46, 0
8, 245760, Note_on_c, 6, 48, 64
8, 245960, Note_on_c, 6, 48, 0
8, 246240, Note_on_c, 6, 50, 64
8, 246440, Note_on_c, 6, 50, 0
8, 246720, Note_on_c, 6, 51, 64
8, 246920, Note_on_c, 6, 51, 0
8, 247200, Note_on_c, 6, 48, 64
8, 247400, Note_on_c, 6, 48, 0
8, 247680, Note_on_c, 6, 46, 64
8, 247880, Note_on_c, 6, 46, 0
8, 247920, Note_on_c, 6, 58, 86
8, 248120, Note_on_c, 6, 58, 0
8, 248160, Note_on_c, 6, 58, 86
8, 248360, Note_on_c, 6, 58, 0
8, 248400, Note_on_c, 6, 58, 86
8, 248600, Note_on_c, 6, 58, 0
8, 248640, Note_on_c, 6, 53, 86
8, 248840, Note_on_c, 6, 53, 0
8, 248880, Note_on_c, 6, 58, 86
8, 249080, Note_on_c, 6, 58, 0
8, 249120, Note_on_c, 6, 50, 86
8, 249320, Note_on_c, 6, 50, 0
8, 249360, Note_on_c, 6, 53, 86
8, 249560, Note_on_c, 6, 53, 0
8, 249600, Note_on_c, 6, 46, 86
8, 250000, Note_on_c, 6, 46, 0
8, 251520, Note_on_c, 6, 46, 64
8, 251920, Note_on_c, 6, 46, 0
8, 252720, Note_on_c, 6, 58, 64
8, 252920, Note_on_c, 6, 58, 0
8, 252960, Note_on_c, 6, 50, 64
8, 253160, Note_on_c, 6, 50, 0
8, 253200, Note_on_c, 6, 53, 64
8, 253400, Note_on_c, 6, 53, 0
8, 253440, Note_on_c, 6, 46, 64
8, 255070, Note_on_c, 6, 46, 0
8, 255360, Note_on_c, 6, 51, 64
8, 255760, Note_on_c, 6, 51, 0
8, 256320, Note_on_c, 6, 55, 64
8, 256720, Note_on_c, 6, 55, 0
8, 257280, Note_on_c, 6, 53, 64
8, 257680, Note_on_c, 6, 53, 0
8, 258240, Note_on_c, 6, 50, 64
8, 258640, Note_on_c, 6, 50, 0
8, 259200, Note_on_c, 6, 51, 64
8, 259600, Note_on_c, 6, 51, 0
8, 260160, Note_on_c, 6, 43, 64
8, 260560, Note_on_c, 6, 43, 0
8, 261120, Note_on_c, 6, 44, 64
8, 261520, Note_on_c, 6, 44, 0
8, 263040, Note_on_c, 6, 46, 64
8, 263440, Note_on_c, 6, 46, 0
8, 263520, Note_on_c, 6, 46, 64
8, 263920, Note_on_c, 6, 46, 0
8, 264000, Note_on_c, 6, 46, 64
8, 264400, Note_on_c, 6, 46, 0
8, 264480, Note_on_c, 6, 46, 64
8, 264880, Note_on_c, 6, 46, 0
8, 264960, Note_on_c, 6, 51, 64
8, 265920, Note_on_c, 6, 51, 0
8, 265920, Note_on_c, 6, 53, 64
8, 266400, Note_on_c, 6, 53, 0
8, 266400, Note_on_c, 6, 56, 64
8, 266800, Note_on_c, 6, 56, 0
8, 266880, Note_on_c, 6, 55, 64
8, 267360, Note_on_c, 6, 55, 0
8, 267360, Note_on_c, 6, 51, 64
8, 267840, Note_on_c, 6, 51, 0
8, 267840, Note_on_c, 6, 50, 64
8, 268320, Note_on_c, 6, 50, 0
8, 268320, Note_on_c, 6, 46, 64
8, 268800, Note_on_c, 6, 46, 0
8, 268800, Note_on_c, 6, 51, 64
8, 269280, Note_on_c, 6, 51, 0
8, 269280, Note_on_c, 6, 52, 64
8, 269760, Note_on_c, 6, 52, 0
8, 269760, Note_on_c, 6, 53, 64
8, 270240, Note_on_c, 6, 53, 0
8, 270240, Note_on_c, 6, 56, 64
8, 270720, Note_on_c, 6, 56, 0
8, 270720, Note_on_c, 6, 55, 64
8, 271200, Note_on_c, 6, 55, 0
8, 271200, Note_on_c, 6, 51, 64
8, 271680, Note_on_c, 6, 51, 0
8, 271680, Note_on_c, 6, 50, 64
8, 272160, Note_on_c, 6, 50, 0
8, 272160, Note_on_c, 6, 46, 64
8, 272640, Note_on_c, 6, 46, 0
8, 272640, Note_on_c, 6, 55, 64
8, 273040, Note_on_c, 6, 55, 0
8, 273840, Note_on_c, 6, 55, 64
8, 274040, Note_on_c, 6, 55, 0
8, 274080, Note_on_c, 6, 55, 64
8, 274280, Note_on_c, 6, 55, 0
8, 274320, Note_on_c, 6, 55, 64
8, 274520, Note_on_c, 6, 55, 0
8, 274560, Note_on_c, 6, 56, 64
8, 274960, Note_on_c, 6, 56, 0
8, 275760, Note_on_c, 6, 56, 64
8, 275960, Note_on_c, 6, 56, 0
8, 276000, Note_on_c, 6, 56, 64
8, 276200, Note_on_c, 6, 56, 0
8, 276240, Note_on_c, 6, 56, 64
8, 276440, Note_on_c, 6, 56, 0
8, 276480, Note_on_c, 6, 58, 64
8, 276680, Note_on_c, 6, 58, 0
8, 276720, Note_on_c, 6, 58, 64
8, 276920, Note_on_c, 6, 58, 0
8, 276960, Note_on_c, 6, 58, 64
8, 277160, Note_on_c, 6, 58, 0
8, 277200, Note_on_c, 6, 58, 64
8, 277400, Note_on_c, 6, 58, 0
8, 277440, Note_on_c, 6, 58, 64
8, 277640, Note_on_c, 6, 58, 0
8, 277680, Note_on_c, 6, 58, 64
8, 277880, Note_on_c, 6, 58, 0
8, 277920, Note_on_c, 6, 58, 64
8, 278120, Note_on_c, 6, 58, 0
8, 278160, Note_on_c, 6, 58, 64
8, 278360, Note_on_c, 6, 58, 0
8, 278400, Control_c, 6, 11, 94
8, 278400, Note_on_c, 6, 46, 86
8, 278520, Control_c, 6, 11, 95
8, 278600, Note_on_c, 6, 46, 0
8, 278640, Control_c, 6, 11, 97
8, 278640, Note_on_c, 6, 46, 86
8, 278760, Control_c, 6, 11, 100
8, 278840, Note_on_c, 6, 46, 0
8, 278880, Control_c, 6, 11, 101
8, 278880, Note_on_c, 6, 46, 86
8, 279000, Control_c, 6, 11, 104
8, 279080, Note_on_c, 6, 46, 0
8, 279120, Control_c, 6, 11, 106
8, 279120, Note_on_c, 6, 46, 86
8, 279240, Control_c, 6, 11, 109
8, 279320, Note_on_c, 6, 46, 0
8, 279360, Control_c, 6, 11, 110
8, 279360, Note_on_c, 6, 46, 86
8, 279480, Control_c, 6, 11, 113
8, 279560, Note_on_c, 6, 46, 0
8, 279600, Control_c, 6, 11, 115
8, 279600, Note_on_c, 6, 46, 86
8, 279720, Control_c, 6, 11, 118
8, 279800, Note_on_c, 6, 46, 0
8, 279840, Control_c, 6, 11, 119
8, 279840, Note_on_c, 6, 46, 86
8, 279960, Control_c, 6, 11, 122
8, 280040, Note_on_c, 6, 46, 0
8, 280080, Control_c, 6, 11, 124
8, 280080, Note_on_c, 6, 46, 86
8, 280200, Control_c, 6, 11, 127
8, 280280, Note_on_c, 6, 46, 0
8, 280320, Note_on_c, 6, 51, 86
8, 281130, Note_on_c, 6, 51, 0
8, 281520, Note_on_c, 6, 51, 86
8, 281720, Note_on_c, 6, 51, 0
8, 281760, Note_on_c, 6, 53, 86
8, 281960, Note_on_c, 6, 53, 0
8, 282000, Note_on_c, 6, 55, 86
8, 282200, Note_on_c, 6, 55, 0
8, 282240, Note_on_c, 6, 56, 86
8, 282640, Note_on_c, 6, 56, 0
8, 282720, Note_on_c, 6, 58, 86
8, 283120, Note_on_c, 6, 58, 0
8, 283200, Note_on_c, 6, 60, 86
8, 283600, Note_on_c, 6, 60, 0
8, 283680, Note_on_c, 6, 57, 86
8, 284080, Note_on_c, 6, 57, 0
8, 284160, Note_on_c, 6, 58, 86
8, 284970, Note_on_c, 6, 58, 0
8, 285360, Note_on_c, 6, 51, 86
8, 285560, Note_on_c, 6, 51, 0
8, 285600, Note_on_c, 6, 53, 86
8, 285800, Note_on_c, 6, 53, 0
8, 285840, Note_on_c, 6, 55, 86
8, 286040, Note_on_c, 6, 55, 0
8, 286080, Note_on_c, 6, 56, 86
8, 286480, Note_on_c, 6, 56, 0
8, 286560, Note_on_c, 6, 58, 86
8, 286960, Note_on_c, 6, 58, 0
8, 287040, Note_on_c, 6, 60, 86
8, 287440, Note_on_c, 6, 60, 0
8, 287520, Note_on_c, 6, 57, 86
8, 287920, Note_on_c, 6, 57, 0
8, 288000, Note_on_c, 6, 58, 86
8, 288810, Note_on_c, 6, 58, 0
8, 289200, Control_c, 6, 11, 96
8, 289200, Note_on_c, 6, 51, 114
8, 289320, Control_c, 6, 11, 98
8, 289400, Note_on_c, 6, 51, 0
8, 289440, Control_c, 6, 11, 99
8, 289440, Note_on_c, 6, 53, 114
8, 289560, Control_c, 6, 11, 100
8, 289640, Note_on_c, 6, 53, 0
8, 289680, Control_c, 6, 11, 102
8, 289680, Note_on_c, 6, 55, 114
8, 289800, Control_c, 6, 11, 103
8, 289880, Note_on_c, 6, 55, 0
8, 289920, Note_on_c, 6, 56, 114
8, 289920, Control_c, 6, 11, 104
8, 290040, Control_c, 6, 11, 105
8, 290160, Control_c, 6, 11, 108
8, 290280, Control_c, 6, 11, 109
8, 290320, Note_on_c, 6, 56, 0
8, 290400, Note_on_c, 6, 58, 114
8, 290400, Control_c, 6, 11, 110
8, 290520, Control_c, 6, 11, 111
8, 290640, Control_c, 6, 11, 113
8, 290760, Control_c, 6, 11, 114
8, 290800, Note_on_c, 6, 58, 0
8, 290880, Note_on_c, 6, 60, 114
8, 290880, Control_c, 6, 11, 115
8, 291000, Control_c, 6, 11, 116
8, 291120, Control_c, 6, 11, 119
8, 291240, Control_c, 6, 11, 120
8, 291280, Note_on_c, 6, 60, 0
8, 291360, Note_on_c, 6, 58, 114
8, 291360, Control_c, 6, 11, 121
8, 291480, Control_c, 6, 11, 123
8, 291600, Control_c, 6, 11, 124
8, 291720, Control_c, 6, 11, 125
8, 291760, Note_on_c, 6, 58, 0
8, 291840, Control_c, 6, 11, 127
8, 291840, Note_on_c, 6, 56, 83
8, 292240, Note_on_c, 6, 56, 0
8, 292320, Note_on_c, 6, 58, 83
8, 292720, Note_on_c, 6, 58, 0
8, 292800, Note_on_c, 6, 60, 83
8, 293200, Note_on_c, 6, 60, 0
8, 293280, Note_on_c, 6, 58, 83
8, 293680, Note_on_c, 6, 58, 0
8, 293760, Note_on_c, 6, 56, 83
8, 294160, Note_on_c, 6, 56, 0
8, 294240, Note_on_c, 6, 55, 83
8, 294640, Note_on_c, 6, 55, 0
8, 294720, Note_on_c, 6, 60, 83
8, 295120, Note_on_c, 6, 60, 0
8, 295200, Note_on_c, 6, 57, 83
8, 295600, Note_on_c, 6, 57, 0
8, 295680, Note_on_c, 6, 58, 83
8, 296490, Note_on_c, 6, 58, 0
8, 324420, Note_on_c, 6, 51, 86
8, 324620, Note_on_c, 6, 51, 0
8, 324660, Note_on_c, 6, 51, 86
8, 324860, Note_on_c, 6, 51, 0
8, 324900, Note_on_c, 6, 55, 86
8, 325100, Note_on_c, 6, 55, 0
8, 325140, Note_on_c, 6, 58, 86
8, 325340, Note_on_c, 6, 58, 0
8, 325380, Note_on_c, 6, 63, 86
8, 325580, Note_on_c, 6, 63, 0
8, 325620, Note_on_c, 6, 58, 86
8, 325820, Note_on_c, 6, 58, 0
8, 325860, Note_on_c, 6, 55, 86
8, 326060, Note_on_c, 6, 55, 0
8, 326100, Note_on_c, 6, 51, 86
8, 326300, Note_on_c, 6, 51, 0
8, 326580, Note_on_c, 6, 44, 86
8, 326780, Note_on_c, 6, 44, 0
8, 326820, Note_on_c, 6, 48, 86
8, 327020, Note_on_c, 6, 48, 0
8, 327060, Note_on_c, 6, 51, 86
8, 327260, Note_on_c, 6, 51, 0
8, 327300, Note_on_c, 6, 56, 86
8, 327500, Note_on_c, 6, 56, 0
8, 327540, Note_on_c, 6, 51, 86
8, 327740, Note_on_c, 6, 51, 0
8, 327780, Note_on_c, 6, 48, 86
8, 327980, Note_on_c, 6, 48, 0
8, 328020, Note_on_c, 6, 44, 86
8, 328220, Note_on_c, 6, 44, 0
8, 328500, Note_on_c, 6, 51, 86
8, 328700, Note_on_c, 6, 51, 0
8, 328740, Note_on_c, 6, 55, 86
8, 328940, Note_on_c, 6, 55, 0
8, 328980, Note_on_c, 6, 58, 86
8, 329180, Note_on_c, 6, 58, 0
8, 329220, Note_on_c, 6, 63, 86
8, 329420, Note_on_c, 6, 63, 0
8, 329460, Note_on_c, 6, 58, 86
8, 329660, Note_on_c, 6, 58, 0
8, 329700, Note_on_c, 6, 55, 86
8, 329900, Note_on_c, 6, 55, 0
8, 329940, Note_on_c, 6, 51, 86
8, 330140, Note_on_c, 6, 51, 0
8, 330180, Note_on_c, 6, 53, 86
8, 330790, Note_on_c, 6, 53, 0
8, 330900, Note_on_c, 6, 56, 86
8, 331100, Note_on_c, 6, 56, 0
8, 331140, Note_on_c, 6, 58, 86
8, 331750, Note_on_c, 6, 58, 0
8, 331860, Note_on_c, 6, 50, 86
8, 332060, Note_on_c, 6, 50, 0
8, 332100, Note_on_c, 6, 51, 86
8, 332300, Note_on_c, 6, 51, 0
8, 332340, Note_on_c, 6, 51, 86
8, 332540, Note_on_c, 6, 51, 0
8, 332580, Note_on_c, 6, 51, 86
8, 332780, Note_on_c, 6, 51, 0
8, 332820, Note_on_c, 6, 51, 86
8, 333020, Note_on_c, 6, 51, 0
8, 333060, Note_on_c, 6, 55, 86
8, 333260, Note_on_c, 6, 55, 0
8, 333300, Note_on_c, 6, 55, 86
8, 333500, Note_on_c, 6, 55, 0
8, 333540, Note_on_c, 6, 55, 86
8, 333740, Note_on_c, 6, 55, 0
8, 333780, Note_on_c, 6, 55, 86
8, 333980, Note_on_c, 6, 55, 0
8, 334020, Note_on_c, 6, 56, 86
8, 334220, Note_on_c, 6, 56, 0
8, 334260, Note_on_c, 6, 56, 86
8, 334460, Note_on_c, 6, 56, 0
8, 334500, Note_on_c, 6, 56, 86
8, 334700, Note_on_c, 6, 56, 0
8, 334740, Note_on_c, 6, 56, 86
8, 334940, Note_on_c, 6, 56, 0
8, 334980, Note_on_c, 6, 57, 86
8, 335180, Note_on_c, 6, 57, 0
8, 335220, Note_on_c, 6, 57, 86
8, 335420, Note_on_c, 6, 57, 0
8, 335460, Note_on_c, 6, 57, 86
8, 335660, Note_on_c, 6, 57, 0
8, 335700, Note_on_c, 6, 57, 86
8, 335900, Note_on_c, 6, 57, 0
8, 335940, Note_on_c, 6, 58, 86
8, 336140, Note_on_c, 6, 58, 0
8, 336180, Note_on_c, 6, 58, 86
8, 336380, Note_on_c, 6, 58, 0
8, 336420, Note_on_c, 6, 58, 86
8, 336620, Note_on_c, 6, 58, 0
8, 336660, Note_on_c, 6, 58, 86
8, 336860, Note_on_c, 6, 58, 0
8, 336900, Note_on_c, 6, 46, 86
8, 337100, Note_on_c, 6, 46, 0
8, 337140, Note_on_c, 6, 46, 86
8, 337340, Note_on_c, 6, 46, 0
8, 337380, Note_on_c, 6, 46, 86
8, 337580, Note_on_c, 6, 46, 0
8, 337620, Note_on_c, 6, 46, 86
8, 337820, Note_on_c, 6, 46, 0
8, 337860, Note_on_c, 6, 51, 64
8, 343330, Note_on_c, 6, 51, 0
8, 343620, Note_on_c, 6, 44, 64
8, 344580, Note_on_c, 6, 44, 0
8, 344580, Note_on_c, 6, 46, 64
8, 345540, Note_on_c, 6, 46, 0
8, 345540, Note_on_c, 6, 51, 40
8, 351010, Note_on_c, 6, 51, 0
8, 351300, Note_on_c, 6, 44, 40
8, 352260, Note_on_c, 6, 44, 0
8, 352260, Note_on_c, 6, 46, 40
8, 353220, Note_on_c, 6, 46, 0
8, 353220, Note_on_c, 6, 51, 40
8, 353620, Note_on_c, 6, 51, 0
8, 353940, Note_on_c, 6, 46, 86
8, 354140, Note_on_c, 6, 46, 0
8, 354180, Note_on_c, 6, 51, 86
8, 354380, Note_on_c, 6, 51, 0
8, 354420, Note_on_c, 6, 51, 86
8, 354620, Note_on_c, 6, 51, 0
8, 354660, Note_on_c, 6, 46, 86
8, 354860, Note_on_c, 6, 46, 0
8, 354900, Note_on_c, 6, 46, 86
8, 355100, Note_on_c, 6, 46, 0
8, 355140, Note_on_c, 6, 51, 86
8, 355540, Note_on_c, 6, 51, 0
8, 355860, Note_on_c, 6, 46, 86
8, 356060, Note_on_c, 6, 46, 0
8, 356100, Note_on_c, 6, 51, 86
8, 356300, Note_on_c, 6, 51, 0
8, 356340, Note_on_c, 6, 51, 86
8, 356540, Note_on_c, 6, 51, 0
8, 356580, Note_on_c, 6, 46, 86
8, 356780, Note_on_c, 6, 46, 0
8, 356820, Note_on_c, 6, 46, 86
8, 357020, Note_on_c, 6, 46, 0
8, 357060, Note_on_c, 6, 51, 86
8, 357260, Note_on_c, 6, 51, 0
8, 357300, Note_on_c, 6, 55, 86
8, 357500, Note_on_c, 6, 55, 0
8, 357540, Note_on_c, 6, 58, 86
8, 357740, Note_on_c, 6, 58, 0
8, 357780, Note_on_c, 6, 63, 86
8, 357980, Note_on_c, 6, 63, 0
8, 358020, Note_on_c, 6, 51, 86
8, 358420, Note_on_c, 6, 51, 0
8, 358980, Note_on_c, 6, 51, 86
8, 359180, Note_on_c, 6, 51, 0
8, 359220, Note_on_c, 6, 55, 86
8, 359420, Note_on_c, 6, 55, 0
8, 359460, Note_on_c, 6, 58, 86
8, 359660, Note_on_c, 6, 58, 0
8, 359700, Note_on_c, 6, 63, 86
8, 359900, Note_on_c, 6, 63, 0
8, 359940, Note_on_c, 6, 51, 86
8, 360340, Note_on_c, 6, 51, 0
8, 360900, Note_on_c, 6, 51, 86
8, 361300, Note_on_c, 6, 51, 0
8, 361380, Note_on_c, 6, 63, 86
8, 361780, Note_on_c, 6, 63, 0
8, 361860, Note_on_c, 6, 58, 86
8, 362260, Note_on_c, 6, 58, 0
8, 362340, Note_on_c, 6, 55, 86
8, 362740, Note_on_c, 6, 55, 0
8, 362820, Note_on_c, 6, 51, 86
8, 363630, Note_on_c, 6, 51, 0
8, 364800, End_track
9, 0, Start_track
9, 0, Title_t, "Basso                               "
9, 0, Control_c, 7, 7, 65
9, 160, Control_c, 7, 91, 100
9, 320, Control_c, 7, 93, 20
9, 480, Control_c, 7, 10, 80
9, 640, Control_c, 7, 0, 0
9, 640, Control_c, 7, 32, 0
9, 640, Program_c, 7, 48
9, 800, Control_c, 7, 121, 0
9, 960, Pitch_bend_c, 7, 8192
9, 1120, Control_c, 7, 1, 0
9, 1280, Control_c, 7, 11, 127
9, 1440, Control_c, 7, 65, 0
9, 1600, Control_c, 7, 66, 0
9, 1760, Control_c, 7, 67, 0
9, 2160, Note_on_c, 7, 39, 57
9, 2360, Note_on_c, 7, 39, 0
9, 2400, Note_on_c, 7, 43, 57
9, 2600, Note_on_c, 7, 43, 0
9, 2640, Note_on_c, 7, 46, 57
9, 2840, Note_on_c, 7, 46, 0
9, 2880, Note_on_c, 7, 51, 57
9, 3280, Note_on_c, 7, 51, 0
9, 3360, Note_on_c, 7, 39, 57
9, 3760, Note_on_c, 7, 39, 0
9, 4080, Note_on_c, 7, 39, 57
9, 4280, Note_on_c, 7, 39, 0
9, 4320, Note_on_c, 7, 43, 57
9, 4520, Note_on_c, 7, 43, 0
9, 4560, Note_on_c, 7, 46, 57
9, 4760, Note_on_c, 7, 46, 0
9, 4800, Note_on_c, 7, 51, 57
9, 5200, Note_on_c, 7, 51, 0
9, 5280, Note_on_c, 7, 39, 57
9, 5680, Note_on_c, 7, 39, 0
9, 6000, Note_on_c, 7, 39, 57
9, 6200, Note_on_c, 7, 39, 0
9, 6240, Note_on_c, 7, 43, 57
9, 6440, Note_on_c, 7, 43, 0
9, 6480, Note_on_c, 7, 46, 57
9, 6680, Note_on_c, 7, 46, 0
9, 6720, Note_on_c, 7, 43, 57
9, 6920, Note_on_c, 7, 43, 0
9, 6960, Note_on_c, 7, 46, 57
9, 7160, Note_on_c, 7, 46, 0
9, 7200, Note_on_c, 7, 39, 57
9, 7400, Note_on_c, 7, 39, 0
9, 7440, Note_on_c, 7, 44, 57
9, 7640, Note_on_c, 7, 44, 0
9, 7680, Note_on_c, 7, 44, 57
9, 7880, Note_on_c, 7, 44, 0
9, 7920, Note_on_c, 7, 41, 57
9, 8120, Note_on_c, 7, 41, 0
9, 8160, Note_on_c, 7, 38, 57
9, 8360, Note_on_c, 7, 38, 0
9, 8400, Note_on_c, 7, 34, 57
9, 8600, Note_on_c, 7, 34, 0
9, 8640, Note_on_c, 7, 39, 57
9, 8840, Note_on_c, 7, 39, 0
9, 8880, Note_on_c, 7, 39, 57
9, 9080, Note_on_c, 7, 39, 0
9, 9120, Note_on_c, 7, 41, 57
9, 9320, Note_on_c, 7, 41, 0
9, 9360, Note_on_c, 7, 43, 57
9, 9560, Note_on_c, 7, 43, 0
9, 9600, Note_on_c, 7, 44, 57
9, 9800, Note_on_c, 7, 44, 0
9, 9840, Note_on_c, 7, 32, 57
9, 10040, Note_on_c, 7, 32, 0
9, 10080, Note_on_c, 7, 36, 57
9, 10280, Note_on_c, 7, 36, 0
9, 10320, Note_on_c, 7, 39, 57
9, 10520, Note_on_c, 7, 39, 0
9, 10560, Note_on_c, 7, 44, 57
9, 10760, Note_on_c, 7, 44, 0
9, 10800, Note_on_c, 7, 39, 57
9, 11000, Note_on_c, 7, 39, 0
9, 11040, Note_on_c, 7, 36, 57
9, 11240, Note_on_c, 7, 36, 0
9, 11280, Note_on_c, 7, 32, 57
9, 11480, Note_on_c, 7, 32, 0
9, 11760, Note_on_c, 7, 39, 57
9, 11960, Note_on_c, 7, 39, 0
9, 12000, Note_on_c, 7, 43, 57
9, 12200, Note_on_c, 7, 43, 0
9, 12240, Note_on_c, 7, 46, 57
9, 12440, Note_on_c, 7, 46, 0
9, 12480, Note_on_c, 7, 51, 57
9, 12680, Note_on_c, 7, 51, 0
9, 12720, Note_on_c, 7, 46, 57
9, 12920, Note_on_c, 7, 46, 0
9, 12960, Note_on_c, 7, 43, 57
9, 13160, Note_on_c, 7, 43, 0
9, 13200, Note_on_c, 7, 39, 57
9, 13400, Note_on_c, 7, 39, 0
9, 13440, Note_on_c, 7, 41, 57
9, 14050, Note_on_c, 7, 41, 0
9, 14160, Note_on_c, 7, 44, 57
9, 14360, Note_on_c, 7, 44, 0
9, 14400, Note_on_c, 7, 46, 57
9, 15010, Note_on_c, 7, 46, 0
9, 15120, Note_on_c, 7, 38, 57
9, 15320, Note_on_c, 7, 38, 0
9, 15360, Note_on_c, 7, 39, 57
9, 15560, Note_on_c, 7, 39, 0
9, 15600, Note_on_c, 7, 39, 57
9, 15800, Note_on_c, 7, 39, 0
9, 15840, Note_on_c, 7, 41, 57
9, 16040, Note_on_c, 7, 41, 0
9, 16080, Note_on_c, 7, 41, 57
9, 16280, Note_on_c, 7, 41, 0
9, 16320, Note_on_c, 7, 43, 57
9, 16520, Note_on_c, 7, 43, 0
9, 16560, Note_on_c, 7, 43, 57
9, 16760, Note_on_c, 7, 43, 0
9, 16800, Note_on_c, 7, 39, 57
9, 17000, Note_on_c, 7, 39, 0
9, 17040, Note_on_c, 7, 39, 57
9, 17240, Note_on_c, 7, 39, 0
9, 17280, Note_on_c, 7, 48, 57
9, 17480, Note_on_c, 7, 48, 0
9, 17520, Note_on_c, 7, 48, 57
9, 17720, Note_on_c, 7, 48, 0
9, 17760, Note_on_c, 7, 46, 57
9, 17960, Note_on_c, 7, 46, 0
9, 18000, Note_on_c, 7, 46, 57
9, 18200, Note_on_c, 7, 46, 0
9, 18240, Note_on_c, 7, 44, 57
9, 18440, Note_on_c, 7, 44, 0
9, 18480, Note_on_c, 7, 44, 57
9, 18680, Note_on_c, 7, 44, 0
9, 18720, Note_on_c, 7, 45, 57
9, 18920, Note_on_c, 7, 45, 0
9, 18960, Note_on_c, 7, 45, 57
9, 19160, Note_on_c, 7, 45, 0
9, 19200, Note_on_c, 7, 46, 57
9, 19400, Note_on_c, 7, 46, 0
9, 19440, Note_on_c, 7, 34, 57
9, 19640, Note_on_c, 7, 34, 0
9, 19680, Note_on_c, 7, 38, 57
9, 19880, Note_on_c, 7, 38, 0
9, 19920, Note_on_c, 7, 34, 57
9, 20120, Note_on_c, 7, 34, 0
9, 20160, Note_on_c, 7, 39, 57
9, 20360, Note_on_c, 7, 39, 0
9, 20400, Note_on_c, 7, 46, 57
9, 20600, Note_on_c, 7, 46, 0
9, 20640, Note_on_c, 7, 43, 57
9, 20840, Note_on_c, 7, 43, 0
9, 20880, Note_on_c, 7, 39, 57
9, 21080, Note_on_c, 7, 39, 0
9, 21120, Note_on_c, 7, 46, 57
9, 21320, Note_on_c, 7, 46, 0
9, 21360, Note_on_c, 7, 34, 57
9, 21560, Note_on_c, 7, 34, 0
9, 21600, Note_on_c, 7, 38, 57
9, 21800, Note_on_c, 7, 38, 0
9, 21840, Note_on_c, 7, 34, 57
9, 22040, Note_on_c, 7, 34, 0
9, 22080, Note_on_c, 7, 39, 57
9, 22280, Note_on_c, 7, 39, 0
9, 22320, Note_on_c, 7, 46, 57
9, 22520, Note_on_c, 7, 46, 0
9, 22560, Note_on_c, 7, 43, 57
9, 22760, Note_on_c, 7, 43, 0
9, 22800, Note_on_c, 7, 39, 57
9, 23000, Note_on_c, 7, 39, 0
9, 23040, Note_on_c, 7, 34, 57
9, 23240, Note_on_c, 7, 34, 0
9, 23280, Note_on_c, 7, 46, 57
9, 23480, Note_on_c, 7, 46, 0
9, 23520, Note_on_c, 7, 34, 57
9, 23720, Note_on_c, 7, 34, 0
9, 23760, Note_on_c, 7, 34, 57
9, 23960, Note_on_c, 7, 34, 0
9, 24000, Note_on_c, 7, 34, 57
9, 24400, Note_on_c, 7, 34, 0
9, 24960, Note_on_c, 7, 39, 64
9, 25920, Note_on_c, 7, 39, 0
9, 25920, Note_on_c, 7, 41, 64
9, 26880, Note_on_c, 7, 41, 0
9, 26880, Note_on_c, 7, 43, 64
9, 27360, Note_on_c, 7, 43, 0
9, 27360, Note_on_c, 7, 39, 64
9, 27840, Note_on_c, 7, 39, 0
9, 27840, Note_on_c, 7, 38, 64
9, 28320, Note_on_c, 7, 38, 0
9, 28320, Note_on_c, 7, 34, 64
9, 28800, Note_on_c, 7, 34, 0
9, 28800, Note_on_c, 7, 39, 64
9, 29760, Note_on_c, 7, 39, 0
9, 29760, Note_on_c, 7, 41, 64
9, 30240, Note_on_c, 7, 41, 0
9, 30240, Note_on_c, 7, 44, 64
9, 30720, Note_on_c, 7, 44, 0
9, 30720, Note_on_c, 7, 43, 64
9, 31200, Note_on_c, 7, 43, 0
9, 31200, Note_on_c, 7, 39, 64
9, 31680, Note_on_c, 7, 39, 0
9, 31680, Note_on_c, 7, 38, 64
9, 32160, Note_on_c, 7, 38, 0
9, 32160, Note_on_c, 7, 34, 64
9, 32640, Note_on_c, 7, 34, 0
9, 32640, Note_on_c, 7, 39, 64
9, 32840, Note_on_c, 7, 39, 0
9, 32880, Note_on_c, 7, 39, 64
9, 33080, Note_on_c, 7, 39, 0
9, 33120, Note_on_c, 7, 39, 64
9, 33320, Note_on_c, 7, 39, 0
9, 33360, Note_on_c, 7, 39, 64
9, 33560, Note_on_c, 7, 39, 0
9, 33600, Note_on_c, 7, 39, 64
9, 33800, Note_on_c, 7, 39, 0
9, 33840, Note_on_c, 7, 39, 64
9, 34040, Note_on_c, 7, 39, 0
9, 34080, Note_on_c, 7, 39, 64
9, 34280, Note_on_c, 7, 39, 0
9, 34320, Note_on_c, 7, 39, 64
9, 34520, Note_on_c, 7, 39, 0
9, 34560, Note_on_c, 7, 39, 64
9, 34760, Note_on_c, 7, 39, 0
9, 34800, Note_on_c, 7, 39, 64
9, 35000, Note_on_c, 7, 39, 0
9, 35040, Note_on_c, 7, 39, 64
9, 35240, Note_on_c, 7, 39, 0
9, 35280, Note_on_c, 7, 39, 64
9, 35480, Note_on_c, 7, 39, 0
9, 35520, Note_on_c, 7, 39, 64
9, 35720, Note_on_c, 7, 39, 0
9, 35760, Note_on_c, 7, 39, 64
9, 35960, Note_on_c, 7, 39, 0
9, 36000, Note_on_c, 7, 39, 64
9, 36200, Note_on_c, 7, 39, 0
9, 36240, Note_on_c, 7, 39, 64
9, 36440, Note_on_c, 7, 39, 0
9, 36480, Note_on_c, 7, 39, 64
9, 36680, Note_on_c, 7, 39, 0
9, 36720, Note_on_c, 7, 39, 64
9, 36920, Note_on_c, 7, 39, 0
9, 36960, Note_on_c, 7, 39, 64
9, 37160, Note_on_c, 7, 39, 0
9, 37200, Note_on_c, 7, 39, 64
9, 37400, Note_on_c, 7, 39, 0
9, 37440, Note_on_c, 7, 39, 64
9, 37640, Note_on_c, 7, 39, 0
9, 37680, Note_on_c, 7, 39, 64
9, 37880, Note_on_c, 7, 39, 0
9, 37920, Note_on_c, 7, 39, 64
9, 38120, Note_on_c, 7, 39, 0
9, 38160, Note_on_c, 7, 39, 64
9, 38360, Note_on_c, 7, 39, 0
9, 38400, Note_on_c, 7, 39, 64
9, 38600, Note_on_c, 7, 39, 0
9, 38640, Control_c, 7, 11, 94
9, 38640, Note_on_c, 7, 39, 86
9, 38840, Note_on_c, 7, 39, 0
9, 38880, Control_c, 7, 11, 94
9, 38880, Note_on_c, 7, 39, 86
9, 39000, Control_c, 7, 11, 94
9, 39080, Note_on_c, 7, 39, 0
9, 39120, Control_c, 7, 11, 95
9, 39120, Note_on_c, 7, 39, 86
9, 39240, Control_c, 7, 11, 95
9, 39320, Note_on_c, 7, 39, 0
9, 39360, Control_c, 7, 11, 97
9, 39360, Note_on_c, 7, 39, 86
9, 39480, Control_c, 7, 11, 97
9, 39560, Note_on_c, 7, 39, 0
9, 39600, Control_c, 7, 11, 98
9, 39600, Note_on_c, 7, 39, 86
9, 39720, Control_c, 7, 11, 98
9, 39800, Note_on_c, 7, 39, 0
9, 39840, Control_c, 7, 11, 100
9, 39840, Note_on_c, 7, 39, 86
9, 39960, Control_c, 7, 11, 100
9, 40040, Note_on_c, 7, 39, 0
9, 40080, Control_c, 7, 11, 101
9, 40080, Note_on_c, 7, 39, 86
9, 40200, Control_c, 7, 11, 101
9, 40280, Note_on_c, 7, 39, 0
9, 40320, Note_on_c, 7, 39, 86
9, 40320, Control_c, 7, 11, 103
9, 40440, Control_c, 7, 11, 103
9, 40520, Note_on_c, 7, 39, 0
9, 40560, Note_on_c, 7, 39, 86
9, 40560, Control_c, 7, 11, 104
9, 40680, Control_c, 7, 11, 104
9, 40760, Note_on_c, 7, 39, 0
9, 40800, Note_on_c, 7, 39, 86
9, 40800, Control_c, 7, 11, 106
9, 40920, Control_c, 7, 11, 106
9, 41000, Note_on_c, 7, 39, 0
9, 41040, Note_on_c, 7, 39, 86
9, 41040, Control_c, 7, 11, 107
9, 41160, Control_c, 7, 11, 107
9, 41240, Note_on_c, 7, 39, 0
9, 41280, Note_on_c, 7, 39, 86
9, 41280, Control_c, 7, 11, 109
9, 41400, Control_c, 7, 11, 109
9, 41480, Note_on_c, 7, 39, 0
9, 41520, Note_on_c, 7, 39, 86
9, 41520, Control_c, 7, 11, 110
9, 41640, Control_c, 7, 11, 110
9, 41720, Note_on_c, 7, 39, 0
9, 41760, Note_on_c, 7, 39, 86
9, 41760, Control_c, 7, 11, 112
9, 41880, Control_c, 7, 11, 113
9, 41960, Note_on_c, 7, 39, 0
9, 42000, Note_on_c, 7, 39, 86
9, 42000, Control_c, 7, 11, 113
9, 42120, Control_c, 7, 11, 115
9, 42200, Note_on_c, 7, 39, 0
9, 42240, Note_on_c, 7, 39, 86
9, 42240, Control_c, 7, 11, 115
9, 42360, Control_c, 7, 11, 116
9, 42440, Note_on_c, 7, 39, 0
9, 42480, Note_on_c, 7, 39, 86
9, 42480, Control_c, 7, 11, 116
9, 42600, Control_c, 7, 11, 118
9, 42680, Note_on_c, 7, 39, 0
9, 42720, Note_on_c, 7, 39, 86
9, 42720, Control_c, 7, 11, 118
9, 42840, Control_c, 7, 11, 119
9, 42920, Note_on_c, 7, 39, 0
9, 42960, Note_on_c, 7, 39, 86
9, 42960, Control_c, 7, 11, 119
9, 43080, Control_c, 7, 11, 121
9, 43160, Note_on_c, 7, 39, 0
9, 43200, Note_on_c, 7, 39, 86
9, 43200, Control_c, 7, 11, 121
9, 43320, Control_c, 7, 11, 122
9, 43400, Note_on_c, 7, 39, 0
9, 43440, Note_on_c, 7, 39, 86
9, 43440, Control_c, 7, 11, 122
9, 43560, Control_c, 7, 11, 124
9, 43640, Note_on_c, 7, 39, 0
9, 43680, Note_on_c, 7, 39, 86
9, 43680, Control_c, 7, 11, 124
9, 43800, Control_c, 7, 11, 125
9, 43880, Note_on_c, 7, 39, 0
9, 43920, Note_on_c, 7, 39, 86
9, 43920, Control_c, 7, 11, 125
9, 44040, Control_c, 7, 11, 127
9, 44120, Note_on_c, 7, 39, 0
9, 44160, Note_on_c, 7, 39, 86
9, 44360, Note_on_c, 7, 39, 0
9, 44400, Note_on_c, 7, 39, 86
9, 44600, Note_on_c, 7, 39, 0
9, 44640, Note_on_c, 7, 39, 86
9, 44840, Note_on_c, 7, 39, 0
9, 44880, Note_on_c, 7, 39, 86
9, 45080, Note_on_c, 7, 39, 0
9, 45120, Note_on_c, 7, 37, 86
9, 45320, Note_on_c, 7, 37, 0
9, 45360, Note_on_c, 7, 37, 86
9, 45560, Note_on_c, 7, 37, 0
9, 45600, Note_on_c, 7, 37, 86
9, 45800, Note_on_c, 7, 37, 0
9, 45840, Note_on_c, 7, 37, 86
9, 46040, Note_on_c, 7, 37, 0
9, 46080, Note_on_c, 7, 36, 86
9, 46280, Note_on_c, 7, 36, 0
9, 46320, Note_on_c, 7, 36, 86
9, 46520, Note_on_c, 7, 36, 0
9, 46560, Note_on_c, 7, 36, 86
9, 46760, Note_on_c, 7, 36, 0
9, 46800, Note_on_c, 7, 36, 86
9, 47000, Note_on_c, 7, 36, 0
9, 47040, Note_on_c, 7, 32, 86
9, 47240, Note_on_c, 7, 32, 0
9, 47280, Note_on_c, 7, 32, 86
9, 47480, Note_on_c, 7, 32, 0
9, 47520, Note_on_c, 7, 32, 86
9, 47720, Note_on_c, 7, 32, 0
9, 47760, Note_on_c, 7, 32, 86
9, 47960, Note_on_c, 7, 32, 0
9, 48000, Note_on_c, 7, 34, 86
9, 48200, Note_on_c, 7, 34, 0
9, 48240, Note_on_c, 7, 34, 86
9, 48440, Note_on_c, 7, 34, 0
9, 48480, Note_on_c, 7, 34, 86
9, 48680, Note_on_c, 7, 34, 0
9, 48720, Note_on_c, 7, 34, 86
9, 48920, Note_on_c, 7, 34, 0
9, 48960, Note_on_c, 7, 34, 86
9, 49160, Note_on_c, 7, 34, 0
9, 49200, Note_on_c, 7, 34, 86
9, 49400, Note_on_c, 7, 34, 0
9, 49440, Note_on_c, 7, 32, 86
9, 49640, Note_on_c, 7, 32, 0
9, 49680, Note_on_c, 7, 32, 86
9, 49880, Note_on_c, 7, 32, 0
9, 49920, Note_on_c, 7, 31, 86
9, 50120, Note_on_c, 7, 31, 0
9, 50160, Note_on_c, 7, 31, 86
9, 50360, Note_on_c, 7, 31, 0
9, 50400, Note_on_c, 7, 31, 86
9, 50600, Note_on_c, 7, 31, 0
9, 50640, Note_on_c, 7, 31, 86
9, 50840, Note_on_c, 7, 31, 0
9, 50880, Note_on_c, 7, 31, 86
9, 51080, Note_on_c, 7, 31, 0
9, 51120, Note_on_c, 7, 31, 86
9, 51320, Note_on_c, 7, 31, 0
9, 51360, Note_on_c, 7, 31, 86
9, 51560, Note_on_c, 7, 31, 0
9, 51600, Note_on_c, 7, 31, 86
9, 51800, Note_on_c, 7, 31, 0
9, 51840, Note_on_c, 7, 32, 86
9, 52040, Note_on_c, 7, 32, 0
9, 52080, Note_on_c, 7, 32, 86
9, 52280, Note_on_c, 7, 32, 0
9, 52320, Note_on_c, 7, 32, 86
9, 52520, Note_on_c, 7, 32, 0
9, 52560, Note_on_c, 7, 32, 86
9, 52760, Note_on_c, 7, 32, 0
9, 52800, Note_on_c, 7, 33, 86
9, 53000, Note_on_c, 7, 33, 0
9, 53040, Note_on_c, 7, 33, 86
9, 53240, Note_on_c, 7, 33, 0
9, 53280, Note_on_c, 7, 33, 86
9, 53480, Note_on_c, 7, 33, 0
9, 53520, Note_on_c, 7, 33, 86
9, 53720, Note_on_c, 7, 33, 0
9, 53760, Note_on_c, 7, 34, 86
9, 53960, Note_on_c, 7, 34, 0
9, 54000, Note_on_c, 7, 46, 86
9, 54200, Note_on_c, 7, 46, 0
9, 54240, Note_on_c, 7, 46, 86
9, 54640, Note_on_c, 7, 46, 0
9, 54960, Note_on_c, 7, 46, 86
9, 55160, Note_on_c, 7, 46, 0
9, 55200, Note_on_c, 7, 46, 86
9, 55600, Note_on_c, 7, 46, 0
9, 55920, Note_on_c, 7, 46, 86
9, 56120, Note_on_c, 7, 46, 0
9, 56160, Note_on_c, 7, 46, 86
9, 56360, Note_on_c, 7, 46, 0
9, 56640, Note_on_c, 7, 46, 86
9, 56840, Note_on_c, 7, 46, 0
9, 57120, Note_on_c, 7, 46, 86
9, 57320, Note_on_c, 7, 46, 0
9, 57600, Note_on_c, 7, 46, 86
9, 57800, Note_on_c, 7, 46, 0
9, 58080, Note_on_c, 7, 46, 86
9, 58480, Note_on_c, 7, 46, 0
9, 58560, Note_on_c, 7, 43, 86
9, 58960, Note_on_c, 7, 43, 0
9, 59040, Note_on_c, 7, 39, 86
9, 59440, Note_on_c, 7, 39, 0
9, 59520, Note_on_c, 7, 34, 86
9, 59720, Note_on_c, 7, 34, 0
9, 59760, Note_on_c, 7, 34, 86
9, 59960, Note_on_c, 7, 34, 0
9, 60000, Note_on_c, 7, 39, 86
9, 60200, Note_on_c, 7, 39, 0
9, 60240, Note_on_c, 7, 43, 86
9, 60440, Note_on_c, 7, 43, 0
9, 60480, Note_on_c, 7, 46, 86
9, 60880, Note_on_c, 7, 46, 0
9, 60960, Note_on_c, 7, 34, 86
9, 61360, Note_on_c, 7, 34, 0
9, 61440, Note_on_c, 7, 39, 86
9, 66910, Note_on_c, 7, 39, 0
9, 67200, Note_on_c, 7, 32, 64
9, 68160, Note_on_c, 7, 32, 0
9, 68160, Note_on_c, 7, 34, 64
9, 69120, Note_on_c, 7, 34, 0
9, 69120, Note_on_c, 7, 39, 64
9, 74590, Note_on_c, 7, 39, 0
9, 74880, Note_on_c, 7, 32, 64
9, 75840, Note_on_c, 7, 32, 0
9, 75840, Note_on_c, 7, 34, 64
9, 76800, Note_on_c, 7, 34, 0
9, 76800, Note_on_c, 7, 39, 64
9, 77200, Note_on_c, 7, 39, 0
9, 77520, Note_on_c, 7, 34, 86
9, 77720, Note_on_c, 7, 34, 0
9, 77760, Note_on_c, 7, 39, 86
9, 77960, Note_on_c, 7, 39, 0
9, 78000, Note_on_c, 7, 39, 86
9, 78200, Note_on_c, 7, 39, 0
9, 78240, Note_on_c, 7, 34, 86
9, 78440, Note_on_c, 7, 34, 0
9, 78480, Note_on_c, 7, 34, 86
9, 78680, Note_on_c, 7, 34, 0
9, 78720, Note_on_c, 7, 39, 86
9, 79120, Note_on_c, 7, 39, 0
9, 79440, Note_on_c, 7, 34, 86
9, 79640, Note_on_c, 7, 34, 0
9, 79680, Note_on_c, 7, 39, 86
9, 79880, Note_on_c, 7, 39, 0
9, 79920, Note_on_c, 7, 39, 86
9, 80120, Note_on_c, 7, 39, 0
9, 80160, Note_on_c, 7, 34, 86
9, 80360, Note_on_c, 7, 34, 0
9, 80400, Note_on_c, 7, 34, 86
9, 80600, Note_on_c, 7, 34, 0
9, 80640, Note_on_c, 7, 39, 86
9, 81040, Note_on_c, 7, 39, 0
9, 81120, Note_on_c, 7, 39, 86
9, 81520, Note_on_c, 7, 39, 0
9, 81600, Note_on_c, 7, 39, 86
9, 82000, Note_on_c, 7, 39, 0
9, 82560, Note_on_c, 7, 39, 64
9, 82960, Note_on_c, 7, 39, 0
9, 84480, Note_on_c, 7, 39, 64
9, 84880, Note_on_c, 7, 39, 0
9, 86400, Note_on_c, 7, 39, 64
9, 86800, Note_on_c, 7, 39, 0
9, 88320, Note_on_c, 7, 38, 64
9, 88800, Note_on_c, 7, 38, 0
9, 88800, Note_on_c, 7, 34, 64
9, 89280, Note_on_c, 7, 34, 0
9, 89280, Note_on_c, 7, 39, 64
9, 89680, Note_on_c, 7, 39, 0
9, 90240, Note_on_c, 7, 44, 64
9, 90640, Note_on_c, 7, 44, 0
9, 92160, Note_on_c, 7, 43, 64
9, 92560, Note_on_c, 7, 43, 0
9, 95520, Note_on_c, 7, 46, 64
9, 95920, Note_on_c, 7, 46, 0
9, 96000, Note_on_c, 7, 39, 64
9, 96400, Note_on_c, 7, 39, 0
9, 96480, Note_on_c, 7, 51, 64
9, 96880, Note_on_c, 7, 51, 0
9, 97920, Note_on_c, 7, 44, 64
9, 98320, Note_on_c, 7, 44, 0
9, 99840, Note_on_c, 7, 43, 64
9, 100240, Note_on_c, 7, 43, 0
9, 100320, Note_on_c, 7, 41, 64
9, 100720, Note_on_c, 7, 41, 0
9, 100800, Note_on_c, 7, 39, 64
9, 101200, Note_on_c, 7, 39, 0
9, 102600, Note_on_c, 7, 45, 64
9, 102720, Note_on_c, 7, 45, 0
9, 102720, Note_on_c, 7, 46, 64
9, 103200, Note_on_c, 7, 46, 0
9, 103200, Note_on_c, 7, 34, 64
9, 103600, Note_on_c, 7, 34, 0
9, 103680, Note_on_c, 7, 39, 86
9, 104080, Note_on_c, 7, 39, 0
9, 104400, Note_on_c, 7, 34, 86
9, 104600, Note_on_c, 7, 34, 0
9, 104640, Note_on_c, 7, 39, 86
9, 104840, Note_on_c, 7, 39, 0
9, 104880, Note_on_c, 7, 39, 86
9, 105080, Note_on_c, 7, 39, 0
9, 105120, Note_on_c, 7, 34, 86
9, 105320, Note_on_c, 7, 34, 0
9, 105360, Note_on_c, 7, 34, 86
9, 105560, Note_on_c, 7, 34, 0
9, 105600, Note_on_c, 7, 39, 86
9, 106000, Note_on_c, 7, 39, 0
9, 106320, Note_on_c, 7, 34, 86
9, 106520, Note_on_c, 7, 34, 0
9, 106560, Note_on_c, 7, 39, 86
9, 106760, Note_on_c, 7, 39, 0
9, 106800, Note_on_c, 7, 39, 86
9, 107000, Note_on_c, 7, 39, 0
9, 107040, Note_on_c, 7, 34, 86
9, 107240, Note_on_c, 7, 34, 0
9, 107280, Note_on_c, 7, 34, 86
9, 107480, Note_on_c, 7, 34, 0
9, 107520, Note_on_c, 7, 39, 86
9, 107920, Note_on_c, 7, 39, 0
9, 109440, Note_on_c, 7, 39, 64
9, 109840, Note_on_c, 7, 39, 0
9, 111360, Note_on_c, 7, 38, 64
9, 111760, Note_on_c, 7, 38, 0
9, 113280, Note_on_c, 7, 36, 64
9, 114240, Note_on_c, 7, 36, 0
9, 114240, Note_on_c, 7, 41, 64
9, 115200, Note_on_c, 7, 41, 0
9, 115200, Note_on_c, 7, 34, 64
9, 116420, Note_on_c, 7, 34, 0
9, 117120, Note_on_c, 7, 38, 64
9, 117520, Note_on_c, 7, 38, 0
9, 118080, Note_on_c, 7, 38, 64
9, 118480, Note_on_c, 7, 38, 0
9, 119040, Note_on_c, 7, 39, 64
9, 119850, Note_on_c, 7, 39, 0
9, 120000, Note_on_c, 7, 39, 64
9, 120240, Note_on_c, 7, 39, 0
9, 120240, Note_on_c, 7, 38, 64
9, 120480, Note_on_c, 7, 38, 0
9, 120480, Note_on_c, 7, 39, 64
9, 120720, Note_on_c, 7, 39, 0
9, 120720, Note_on_c, 7, 38, 64
9, 120960, Note_on_c, 7, 38, 0
9, 120960, Note_on_c, 7, 39, 64
9, 121160, Note_on_c, 7, 39, 0
9, 121440, Note_on_c, 7, 36, 64
9, 121640, Note_on_c, 7, 36, 0
9, 121920, Note_on_c, 7, 38, 64
9, 122120, Note_on_c, 7, 38, 0
9, 122400, Note_on_c, 7, 40, 64
9, 122600, Note_on_c, 7, 40, 0
9, 122880, Note_on_c, 7, 41, 64
9, 123080, Note_on_c, 7, 41, 0
9, 123120, Note_on_c, 7, 53, 86
9, 123320, Note_on_c, 7, 53, 0
9, 123360, Note_on_c, 7, 53, 86
9, 123560, Note_on_c, 7, 53, 0
9, 123600, Note_on_c, 7, 53, 86
9, 123800, Note_on_c, 7, 53, 0
9, 123840, Note_on_c, 7, 53, 86
9, 124040, Note_on_c, 7, 53, 0
9, 124080, Note_on_c, 7, 48, 86
9, 124280, Note_on_c, 7, 48, 0
9, 124320, Note_on_c, 7, 45, 86
9, 124520, Note_on_c, 7, 45, 0
9, 124560, Note_on_c, 7, 41, 86
9, 124760, Note_on_c, 7, 41, 0
9, 124800, Note_on_c, 7, 29, 64
9, 125000, Note_on_c, 7, 29, 0
9, 125280, Note_on_c, 7, 41, 64
9, 125480, Note_on_c, 7, 41, 0
9, 125760, Note_on_c, 7, 36, 64
9, 125960, Note_on_c, 7, 36, 0
9, 126240, Note_on_c, 7, 33, 64
9, 126440, Note_on_c, 7, 33, 0
9, 126720, Note_on_c, 7, 29, 64
9, 127120, Note_on_c, 7, 29, 0
9, 128640, Note_on_c, 7, 29, 64
9, 128840, Note_on_c, 7, 29, 0
9, 129120, Note_on_c, 7, 41, 64
9, 129320, Note_on_c, 7, 41, 0
9, 129600, Note_on_c, 7, 36, 64
9, 129800, Note_on_c, 7, 36, 0
9, 130080, Note_on_c, 7, 33, 64
9, 130280, Note_on_c, 7, 33, 0
9, 130560, Note_on_c, 7, 29, 64
9, 130960, Note_on_c, 7, 29, 0
9, 132480, Note_on_c, 7, 29, 64
9, 132680, Note_on_c, 7, 29, 0
9, 132960, Note_on_c, 7, 41, 64
9, 133160, Note_on_c, 7, 41, 0
9, 133440, Note_on_c, 7, 36, 64
9, 133640, Note_on_c, 7, 36, 0
9, 133920, Note_on_c, 7, 33, 64
9, 134120, Note_on_c, 7, 33, 0
9, 134400, Note_on_c, 7, 29, 64
9, 134800, Note_on_c, 7, 29, 0
9, 135360, Note_on_c, 7, 42, 64
9, 136170, Note_on_c, 7, 42, 0
9, 136320, Note_on_c, 7, 43, 64
9, 137130, Note_on_c, 7, 43, 0
9, 137280, Note_on_c, 7, 40, 64
9, 138090, Note_on_c, 7, 40, 0
9, 138240, Note_on_c, 7, 41, 64
9, 138440, Note_on_c, 7, 41, 0
9, 138480, Note_on_c, 7, 41, 64
9, 138680, Note_on_c, 7, 41, 0
9, 138720, Note_on_c, 7, 41, 64
9, 138920, Note_on_c, 7, 41, 0
9, 138960, Note_on_c, 7, 41, 64
9, 139160, Note_on_c, 7, 41, 0
9, 139200, Note_on_c, 7, 41, 64
9, 139400, Note_on_c, 7, 41, 0
9, 139440, Note_on_c, 7, 41, 64
9, 139640, Note_on_c, 7, 41, 0
9, 139680, Note_on_c, 7, 41, 64
9, 139880, Note_on_c, 7, 41, 0
9, 139920, Note_on_c, 7, 41, 64
9, 140120, Note_on_c, 7, 41, 0
9, 140160, Note_on_c, 7, 41, 64
9, 140360, Note_on_c, 7, 41, 0
9, 140400, Control_c, 7, 11, 94
9, 140400, Note_on_c, 7, 41, 86
9, 140600, Note_on_c, 7, 41, 0
9, 140640, Control_c, 7, 11, 94
9, 140640, Note_on_c, 7, 41, 86
9, 140760, Control_c, 7, 11, 97
9, 140840, Note_on_c, 7, 41, 0
9, 140880, Control_c, 7, 11, 100
9, 140880, Note_on_c, 7, 41, 86
9, 141000, Control_c, 7, 11, 103
9, 141080, Note_on_c, 7, 41, 0
9, 141120, Control_c, 7, 11, 106
9, 141120, Note_on_c, 7, 41, 86
9, 141240, Control_c, 7, 11, 109
9, 141320, Note_on_c, 7, 41, 0
9, 141360, Control_c, 7, 11, 110
9, 141360, Note_on_c, 7, 41, 86
9, 141480, Control_c, 7, 11, 113
9, 141560, Note_on_c, 7, 41, 0
9, 141600, Control_c, 7, 11, 116
9, 141600, Note_on_c, 7, 41, 86
9, 141720, Control_c, 7, 11, 119
9, 141800, Note_on_c, 7, 41, 0
9, 141840, Control_c, 7, 11, 122
9, 141840, Note_on_c, 7, 41, 86
9, 141960, Control_c, 7, 11, 125
9, 142040, Note_on_c, 7, 41, 0
9, 142080, Control_c, 7, 11, 127
9, 142080, Note_on_c, 7, 34, 86
9, 142280, Note_on_c, 7, 34, 0
9, 142320, Note_on_c, 7, 34, 86
9, 142520, Note_on_c, 7, 34, 0
9, 142560, Note_on_c, 7, 38, 86
9, 142760, Note_on_c, 7, 38, 0
9, 142800, Note_on_c, 7, 41, 86
9, 143000, Note_on_c, 7, 41, 0
9, 143040, Note_on_c, 7, 46, 86
9, 143240, Note_on_c, 7, 46, 0
9, 143280, Note_on_c, 7, 41, 86
9, 143480, Note_on_c, 7, 41, 0
9, 143520, Note_on_c, 7, 38, 86
9, 143720, Note_on_c, 7, 38, 0
9, 143760, Note_on_c, 7, 34, 86
9, 143960, Note_on_c, 7, 34, 0
9, 144240, Note_on_c, 7, 39, 86
9, 144440, Note_on_c, 7, 39, 0
9, 144480, Note_on_c, 7, 43, 86
9, 144680, Note_on_c, 7, 43, 0
9, 144720, Note_on_c, 7, 46, 86
9, 144920, Note_on_c, 7, 46, 0
9, 144960, Note_on_c, 7, 51, 86
9, 145160, Note_on_c, 7, 51, 0
9, 145200, Note_on_c, 7, 46, 86
9, 145400, Note_on_c, 7, 46, 0
9, 145440, Note_on_c, 7, 43, 86
9, 145640, Note_on_c, 7, 43, 0
9, 145680, Note_on_c, 7, 39, 86
9, 145880, Note_on_c, 7, 39, 0
9, 146160, Note_on_c, 7, 34, 86
9, 146360, Note_on_c, 7, 34, 0
9, 146400, Note_on_c, 7, 38, 86
9, 146600, Note_on_c, 7, 38, 0
9, 146640, Note_on_c, 7, 41, 86
9, 146840, Note_on_c, 7, 41, 0
9, 146880, Note_on_c, 7, 46, 86
9, 147080, Note_on_c, 7, 46, 0
9, 147120, Note_on_c, 7, 41, 86
9, 147320, Note_on_c, 7, 41, 0
9, 147360, Note_on_c, 7, 38, 86
9, 147560, Note_on_c, 7, 38, 0
9, 147600, Note_on_c, 7, 34, 86
9, 147800, Note_on_c, 7, 34, 0
9, 147840, Note_on_c, 7, 36, 86
9, 148450, Note_on_c, 7, 36, 0
9, 148560, Note_on_c, 7, 39, 86
9, 148760, Note_on_c, 7, 39, 0
9, 148800, Note_on_c, 7, 41, 86
9, 149410, Note_on_c, 7, 41, 0
9, 149520, Note_on_c, 7, 33, 86
9, 149720, Note_on_c, 7, 33, 0
9, 149760, Note_on_c, 7, 34, 86
9, 149960, Note_on_c, 7, 34, 0
9, 150000, Note_on_c, 7, 34, 86
9, 150200, Note_on_c, 7, 34, 0
9, 150240, Note_on_c, 7, 36, 86
9, 150440, Note_on_c, 7, 36, 0
9, 150480, Note_on_c, 7, 36, 86
9, 150680, Note_on_c, 7, 36, 0
9, 150720, Note_on_c, 7, 38, 86
9, 150920, Note_on_c, 7, 38, 0
9, 150960, Note_on_c, 7, 38, 86
9, 151160, Note_on_c, 7, 38, 0
9, 151200, Note_on_c, 7, 34, 86
9, 151400, Note_on_c, 7, 34, 0
9, 151440, Note_on_c, 7, 34, 86
9, 151640, Note_on_c, 7, 34, 0
9, 151680, Note_on_c, 7, 39, 86
9, 151880, Note_on_c, 7, 39, 0
9, 151920, Note_on_c, 7, 39, 86
9, 152120, Note_on_c, 7, 39, 0
9, 152160, Note_on_c, 7, 39, 86
9, 152360, Note_on_c, 7, 39, 0
9, 152400, Note_on_c, 7, 39, 86
9, 152600, Note_on_c, 7, 39, 0
9, 152640, Note_on_c, 7, 40, 86
9, 152840, Note_on_c, 7, 40, 0
9, 152880, Note_on_c, 7, 40, 86
9, 153080, Note_on_c, 7, 40, 0
9, 153120, Note_on_c, 7, 40, 86
9, 153320, Note_on_c, 7, 40, 0
9, 153360, Note_on_c, 7, 40, 86
9, 153560, Note_on_c, 7, 40, 0
9, 153600, Note_on_c, 7, 39, 86
9, 153800, Note_on_c, 7, 39, 0
9, 153840, Note_on_c, 7, 39, 86
9, 154040, Note_on_c, 7, 39, 0
9, 154080, Note_on_c, 7, 39, 86
9, 154280, Note_on_c, 7, 39, 0
9, 154320, Note_on_c, 7, 39, 86
9, 154520, Note_on_c, 7, 39, 0
9, 154560, Note_on_c, 7, 39, 86
9, 154760, Note_on_c, 7, 39, 0
9, 154800, Note_on_c, 7, 39, 86
9, 155000, Note_on_c, 7, 39, 0
9, 155040, Note_on_c, 7, 39, 86
9, 155240, Note_on_c, 7, 39, 0
9, 155280, Note_on_c, 7, 39, 86
9, 155480, Note_on_c, 7, 39, 0
9, 155520, Note_on_c, 7, 34, 86
9, 155920, Note_on_c, 7, 34, 0
9, 156240, Note_on_c, 7, 34, 64
9, 156480, Note_on_c, 7, 34, 0
9, 156480, Note_on_c, 7, 38, 64
9, 156960, Note_on_c, 7, 38, 0
9, 157200, Note_on_c, 7, 38, 64
9, 157440, Note_on_c, 7, 38, 0
9, 157440, Note_on_c, 7, 41, 64
9, 157920, Note_on_c, 7, 41, 0
9, 158160, Note_on_c, 7, 41, 64
9, 158360, Note_on_c, 7, 41, 0
9, 158400, Note_on_c, 7, 44, 114
9, 159010, Note_on_c, 7, 44, 0
9, 159120, Note_on_c, 7, 41, 64
9, 159240, Note_on_c, 7, 41, 0
9, 159240, Note_on_c, 7, 38, 64
9, 159360, Note_on_c, 7, 38, 0
9, 159360, Note_on_c, 7, 35, 64
9, 159560, Note_on_c, 7, 35, 0
9, 159840, Note_on_c, 7, 38, 64
9, 160040, Note_on_c, 7, 38, 0
9, 160320, Note_on_c, 7, 43, 114
9, 160930, Note_on_c, 7, 43, 0
9, 161040, Note_on_c, 7, 41, 64
9, 161160, Note_on_c, 7, 41, 0
9, 161160, Note_on_c, 7, 38, 64
9, 161280, Note_on_c, 7, 38, 0
9, 161280, Note_on_c, 7, 36, 64
9, 161680, Note_on_c, 7, 36, 0
9, 163200, Note_on_c, 7, 38, 64
9, 163600, Note_on_c, 7, 38, 0
9, 165120, Note_on_c, 7, 31, 64
9, 165520, Note_on_c, 7, 31, 0
9, 167040, Note_on_c, 7, 36, 64
9, 167440, Note_on_c, 7, 36, 0
9, 168960, Note_on_c, 7, 41, 64
9, 169360, Note_on_c, 7, 41, 0
9, 169920, Note_on_c, 7, 43, 64
9, 170320, Note_on_c, 7, 43, 0
9, 170880, Note_on_c, 7, 44, 64
9, 171560, Note_on_c, 7, 44, 0
9, 171600, Note_on_c, 7, 43, 64
9, 171800, Note_on_c, 7, 43, 0
9, 171840, Note_on_c, 7, 41, 64
9, 172650, Note_on_c, 7, 41, 0
9, 172800, Note_on_c, 7, 43, 64
9, 173610, Note_on_c, 7, 43, 0
9, 173760, Note_on_c, 7, 31, 64
9, 174570, Note_on_c, 7, 31, 0
9, 174720, Note_on_c, 7, 36, 64
9, 175120, Note_on_c, 7, 36, 0
9, 176640, Note_on_c, 7, 39, 64
9, 177040, Note_on_c, 7, 39, 0
9, 178560, Note_on_c, 7, 32, 64
9, 178960, Note_on_c, 7, 32, 0
9, 180480, Note_on_c, 7, 36, 64
9, 180880, Note_on_c, 7, 36, 0
9, 182400, Note_on_c, 7, 29, 64
9, 182800, Note_on_c, 7, 29, 0
9, 184320, Note_on_c, 7, 38, 64
9, 185280, Note_on_c, 7, 38, 0
9, 185280, Note_on_c, 7, 39, 64
9, 186240, Note_on_c, 7, 39, 0
9, 186240, Note_on_c, 7, 44, 64
9, 187200, Note_on_c, 7, 44, 0
9, 187200, Note_on_c, 7, 45, 64
9, 188160, Note_on_c, 7, 45, 0
9, 188160, Note_on_c, 7, 46, 64
9, 188560, Note_on_c, 7, 46, 0
9, 192000, Note_on_c, 7, 34, 64
9, 192200, Note_on_c, 7, 34, 0
9, 192480, Note_on_c, 7, 34, 64
9, 192680, Note_on_c, 7, 34, 0
9, 192960, Note_on_c, 7, 34, 64
9, 193160, Note_on_c, 7, 34, 0
9, 193440, Note_on_c, 7, 34, 64
9, 193640, Note_on_c, 7, 34, 0
9, 193920, Note_on_c, 7, 34, 64
9, 194120, Note_on_c, 7, 34, 0
9, 194400, Note_on_c, 7, 34, 64
9, 194600, Note_on_c, 7, 34, 0
9, 194880, Note_on_c, 7, 34, 64
9, 195080, Note_on_c, 7, 34, 0
9, 195360, Note_on_c, 7, 34, 64
9, 195560, Note_on_c, 7, 34, 0
9, 195840, Note_on_c, 7, 34, 64
9, 196040, Note_on_c, 7, 34, 0
9, 196320, Note_on_c, 7, 34, 64
9, 196520, Note_on_c, 7, 34, 0
9, 196800, Note_on_c, 7, 34, 64
9, 197000, Note_on_c, 7, 34, 0
9, 197280, Control_c, 7, 11, 94
9, 197280, Note_on_c, 7, 34, 86
9, 197400, Control_c, 7, 11, 95
9, 197480, Note_on_c, 7, 34, 0
9, 197520, Control_c, 7, 11, 95
9, 197640, Control_c, 7, 11, 97
9, 197760, Note_on_c, 7, 34, 86
9, 197760, Control_c, 7, 11, 98
9, 197880, Control_c, 7, 11, 98
9, 197960, Note_on_c, 7, 34, 0
9, 198000, Control_c, 7, 11, 100
9, 198120, Control_c, 7, 11, 101
9, 198240, Note_on_c, 7, 34, 86
9, 198240, Control_c, 7, 11, 103
9, 198360, Control_c, 7, 11, 103
9, 198440, Note_on_c, 7, 34, 0
9, 198480, Control_c, 7, 11, 104
9, 198600, Control_c, 7, 11, 106
9, 198720, Note_on_c, 7, 34, 86
9, 198720, Control_c, 7, 11, 106
9, 198840, Control_c, 7, 11, 107
9, 198920, Note_on_c, 7, 34, 0
9, 198960, Control_c, 7, 11, 109
9, 199080, Control_c, 7, 11, 109
9, 199200, Note_on_c, 7, 34, 86
9, 199200, Control_c, 7, 11, 110
9, 199320, Control_c, 7, 11, 112
9, 199400, Note_on_c, 7, 34, 0
9, 199440, Control_c, 7, 11, 113
9, 199560, Control_c, 7, 11, 113
9, 199680, Note_on_c, 7, 34, 86
9, 199680, Control_c, 7, 11, 115
9, 199800, Control_c, 7, 11, 116
9, 199920, Control_c, 7, 11, 116
9, 200040, Control_c, 7, 11, 118
9, 200080, Note_on_c, 7, 34, 0
9, 200160, Control_c, 7, 11, 119
9, 200280, Control_c, 7, 11, 121
9, 200400, Control_c, 7, 11, 121
9, 200520, Control_c, 7, 11, 122
9, 200640, Control_c, 7, 11, 124
9, 200760, Control_c, 7, 11, 124
9, 200880, Control_c, 7, 11, 125
9, 201000, Control_c, 7, 11, 127
9, 201840, Note_on_c, 7, 34, 86
9, 202040, Note_on_c, 7, 34, 0
9, 202080, Note_on_c, 7, 38, 86
9, 202280, Note_on_c, 7, 38, 0
9, 202320, Note_on_c, 7, 41, 86
9, 202520, Note_on_c, 7, 41, 0
9, 202560, Note_on_c, 7, 46, 86
9, 202760, Note_on_c, 7, 46, 0
9, 202800, Note_on_c, 7, 41, 86
9, 203000, Note_on_c, 7, 41, 0
9, 203040, Note_on_c, 7, 38, 86
9, 203240, Note_on_c, 7, 38, 0
9, 203280, Note_on_c, 7, 41, 86
9, 203480, Note_on_c, 7, 41, 0
9, 203520, Note_on_c, 7, 34, 86
9, 203920, Note_on_c, 7, 34, 0
9, 211200, Note_on_c, 7, 39, 64
9, 211600, Note_on_c, 7, 39, 0
9, 213120, Note_on_c, 7, 39, 64
9, 213520, Note_on_c, 7, 39, 0
9, 215040, Note_on_c, 7, 39, 64
9, 215440, Note_on_c, 7, 39, 0
9, 216960, Note_on_c, 7, 38, 64
9, 217360, Note_on_c, 7, 38, 0
9, 217440, Note_on_c, 7, 34, 64
9, 217840, Note_on_c, 7, 34, 0
9, 217920, Note_on_c, 7, 39, 64
9, 218320, Note_on_c, 7, 39, 0
9, 219120, Note_on_c, 7, 32, 86
9, 219320, Note_on_c, 7, 32, 0
9, 219360, Note_on_c, 7, 36, 86
9, 219560, Note_on_c, 7, 36, 0
9, 219600, Note_on_c, 7, 39, 86
9, 219800, Note_on_c, 7, 39, 0
9, 219840, Note_on_c, 7, 44, 86
9, 220040, Note_on_c, 7, 44, 0
9, 220080, Note_on_c, 7, 39, 86
9, 220280, Note_on_c, 7, 39, 0
9, 220320, Note_on_c, 7, 36, 86
9, 220520, Note_on_c, 7, 36, 0
9, 220560, Note_on_c, 7, 32, 86
9, 220760, Note_on_c, 7, 32, 0
9, 221040, Note_on_c, 7, 39, 86
9, 221240, Note_on_c, 7, 39, 0
9, 221280, Note_on_c, 7, 43, 86
9, 221480, Note_on_c, 7, 43, 0
9, 221520, Note_on_c, 7, 46, 86
9, 221720, Note_on_c, 7, 46, 0
9, 221760, Note_on_c, 7, 51, 86
9, 221960, Note_on_c, 7, 51, 0
9, 222000, Note_on_c, 7, 46, 86
9, 222200, Note_on_c, 7, 46, 0
9, 222240, Note_on_c, 7, 43, 86
9, 222440, Note_on_c, 7, 43, 0
9, 222480, Note_on_c, 7, 39, 86
9, 222680, Note_on_c, 7, 39, 0
9, 222720, Note_on_c, 7, 41, 86
9, 223330, Note_on_c, 7, 41, 0
9, 223440, Note_on_c, 7, 44, 86
9, 223640, Note_on_c, 7, 44, 0
9, 223680, Note_on_c, 7, 46, 86
9, 224290, Note_on_c, 7, 46, 0
9, 224400, Note_on_c, 7, 38, 86
9, 224600, Note_on_c, 7, 38, 0
9, 224640, Note_on_c, 7, 39, 86
9, 224840, Note_on_c, 7, 39, 0
9, 224880, Note_on_c, 7, 39, 86
9, 225080, Note_on_c, 7, 39, 0
9, 225120, Note_on_c, 7, 41, 86
9, 225320, Note_on_c, 7, 41, 0
9, 225360, Note_on_c, 7, 41, 86
9, 225560, Note_on_c, 7, 41, 0
9, 225600, Note_on_c, 7, 43, 86
9, 226000, Note_on_c, 7, 43, 0
9, 226560, Note_on_c, 7, 44, 64
9, 226960, Note_on_c, 7, 44, 0
9, 228480, Note_on_c, 7, 43, 64
9, 228880, Note_on_c, 7, 43, 0
9, 228960, Note_on_c, 7, 41, 64
9, 229360, Note_on_c, 7, 41, 0
9, 229440, Note_on_c, 7, 39, 64
9, 229840, Note_on_c, 7, 39, 0
9, 231240, Note_on_c, 7, 45, 64
9, 231360, Note_on_c, 7, 45, 0
9, 231360, Note_on_c, 7, 46, 64
9, 231840, Note_on_c, 7, 46, 0
9, 231840, Note_on_c, 7, 34, 64
9, 232240, Note_on_c, 7, 34, 0
9, 232320, Note_on_c, 7, 39, 86
9, 232720, Note_on_c, 7, 39, 0
9, 233040, Note_on_c, 7, 34, 86
9, 233240, Note_on_c, 7, 34, 0
9, 233280, Note_on_c, 7, 39, 86
9, 233480, Note_on_c, 7, 39, 0
9, 233520, Note_on_c, 7, 39, 86
9, 233720, Note_on_c, 7, 39, 0
9, 233760, Note_on_c, 7, 34, 86
9, 233960, Note_on_c, 7, 34, 0
9, 234000, Note_on_c, 7, 34, 86
9, 234200, Note_on_c, 7, 34, 0
9, 234240, Note_on_c, 7, 39, 86
9, 234640, Note_on_c, 7, 39, 0
9, 234960, Note_on_c, 7, 34, 86
9, 235160, Note_on_c, 7, 34, 0
9, 235200, Note_on_c, 7, 39, 86
9, 235400, Note_on_c, 7, 39, 0
9, 235440, Note_on_c, 7, 39, 86
9, 235640, Note_on_c, 7, 39, 0
9, 235680, Note_on_c, 7, 34, 86
9, 235880, Note_on_c, 7, 34, 0
9, 235920, Note_on_c, 7, 34, 86
9, 236120, Note_on_c, 7, 34, 0
9, 236160, Note_on_c, 7, 39, 86
9, 236560, Note_on_c, 7, 39, 0
9, 238080, Note_on_c, 7, 37, 64
9, 238480, Note_on_c, 7, 37, 0
9, 240000, Note_on_c, 7, 36, 64
9, 240400, Note_on_c, 7, 36, 0
9, 241920, Note_on_c, 7, 35, 64
9, 242320, Note_on_c, 7, 35, 0
9, 243840, Note_on_c, 7, 34, 64
9, 244240, Note_on_c, 7, 34, 0
9, 245760, Note_on_c, 7, 36, 64
9, 245960, Note_on_c, 7, 36, 0
9, 246240, Note_on_c, 7, 38, 64
9, 246440, Note_on_c, 7, 38, 0
9, 246720, Note_on_c, 7, 39, 64
9, 246920, Note_on_c, 7, 39, 0
9, 247200, Note_on_c, 7, 36, 64
9, 247400, Note_on_c, 7, 36, 0
9, 247680, Note_on_c, 7, 34, 64
9, 247880, Note_on_c, 7, 34, 0
9, 247920, Note_on_c, 7, 46, 86
9, 248120, Note_on_c, 7, 46, 0
9, 248160, Note_on_c, 7, 46, 86
9, 248360, Note_on_c, 7, 46, 0
9, 248400, Note_on_c, 7, 46, 86
9, 248600, Note_on_c, 7, 46, 0
9, 248640, Note_on_c, 7, 41, 86
9, 248840, Note_on_c, 7, 41, 0
9, 248880, Note_on_c, 7, 46, 86
9, 249080, Note_on_c, 7, 46, 0
9, 249120, Note_on_c, 7, 38, 86
9, 249320, Note_on_c, 7, 38, 0
9, 249360, Note_on_c, 7, 41, 86
9, 249560, Note_on_c, 7, 41, 0
9, 249600, Note_on_c, 7, 34, 86
9, 250000, Note_on_c, 7, 34, 0
9, 251520, Note_on_c, 7, 34, 64
9, 251920, Note_on_c, 7, 34, 0
9, 252720, Note_on_c, 7, 46, 64
9, 252920, Note_on_c, 7, 46, 0
9, 252960, Note_on_c, 7, 38, 64
9, 253160, Note_on_c, 7, 38, 0
9, 253200, Note_on_c, 7, 41, 64
9, 253400, Note_on_c, 7, 41, 0
9, 253440, Note_on_c, 7, 34, 64
9, 255070, Note_on_c, 7, 34, 0
9, 255360, Note_on_c, 7, 39, 64
9, 255760, Note_on_c, 7, 39, 0
9, 256320, Note_on_c, 7, 43, 64
9, 256720, Note_on_c, 7, 43, 0
9, 257280, Note_on_c, 7, 41, 64
9, 257680, Note_on_c, 7, 41, 0
9, 258240, Note_on_c, 7, 38, 64
9, 258640, Note_on_c, 7, 38, 0
9, 259200, Note_on_c, 7, 39, 64
9, 259600, Note_on_c, 7, 39, 0
9, 260160, Note_on_c, 7, 31, 64
9, 260560, Note_on_c, 7, 31, 0
9, 261120, Note_on_c, 7, 32, 64
9, 261520, Note_on_c, 7, 32, 0
9, 263040, Note_on_c, 7, 34, 64
9, 263440, Note_on_c, 7, 34, 0
9, 263520, Note_on_c, 7, 34, 64
9, 263920, Note_on_c, 7, 34, 0
9, 264000, Note_on_c, 7, 34, 64
9, 264400, Note_on_c, 7, 34, 0
9, 264480, Note_on_c, 7, 34, 64
9, 264880, Note_on_c, 7, 34, 0
9, 264960, Note_on_c, 7, 39, 64
9, 265920, Note_on_c, 7, 39, 0
9, 265920, Note_on_c, 7, 41, 64
9, 266400, Note_on_c, 7, 41, 0
9, 266400, Note_on_c, 7, 44, 64
9, 266800, Note_on_c, 7, 44, 0
9, 266880, Note_on_c, 7, 43, 64
9, 267360, Note_on_c, 7, 43, 0
9, 267360, Note_on_c, 7, 39, 64
9, 267840, Note_on_c, 7, 39, 0
9, 267840, Note_on_c, 7, 38, 64
9, 268320, Note_on_c, 7, 38, 0
9, 268320, Note_on_c, 7, 34, 64
9, 268800, Note_on_c, 7, 34, 0
9, 268800, Note_on_c, 7, 39, 64
9, 269280, Note_on_c, 7, 39, 0
9, 269280, Note_on_c, 7, 40, 64
9, 269760, Note_on_c, 7, 40, 0
9, 269760, Note_on_c, 7, 41, 64
9, 270240, Note_on_c, 7, 41, 0
9, 270240, Note_on_c, 7, 44, 64
9, 270720, Note_on_c, 7, 44, 0
9, 270720, Note_on_c, 7, 43, 64
9, 271200, Note_on_c, 7, 43, 0
9, 271200, Note_on_c, 7, 39, 64
9, 271680, Note_on_c, 7, 39, 0
9, 271680, Note_on_c, 7, 38, 64
9, 272160, Note_on_c, 7, 38, 0
9, 272160, Note_on_c, 7, 34, 64
9, 272640, Note_on_c, 7, 34, 0
9, 272640, Note_on_c, 7, 43, 64
9, 273040, Note_on_c, 7, 43, 0
9, 273840, Note_on_c, 7, 43, 64
9, 274040, Note_on_c, 7, 43, 0
9, 274080, Note_on_c, 7, 43, 64
9, 274280, Note_on_c, 7, 43, 0
9, 274320, Note_on_c, 7, 43, 64
9, 274520, Note_on_c, 7, 43, 0
9, 274560, Note_on_c, 7, 44, 64
9, 274960, Note_on_c, 7, 44, 0
9, 275760, Note_on_c, 7, 44, 64
9, 275960, Note_on_c, 7, 44, 0
9, 276000, Note_on_c, 7, 44, 64
9, 276200, Note_on_c, 7, 44, 0
9, 276240, Note_on_c, 7, 44, 64
9, 276440, Note_on_c, 7, 44, 0
9, 276480, Note_on_c, 7, 46, 64
9, 276680, Note_on_c, 7, 46, 0
9, 276720, Note_on_c, 7, 46, 64
9, 276920, Note_on_c, 7, 46, 0
9, 276960, Note_on_c, 7, 46, 64
9, 277160, Note_on_c, 7, 46, 0
9, 277200, Note_on_c, 7, 46, 64
9, 277400, Note_on_c, 7, 46, 0
9, 277440, Note_on_c, 7, 46, 64
9, 277640, Note_on_c, 7, 46, 0
9, 277680, Note_on_c, 7, 46, 64
9, 277880, Note_on_c, 7, 46, 0
9, 277920, Note_on_c, 7, 46, 64
9, 278120, Note_on_c, 7, 46, 0
9, 278160, Note_on_c, 7, 46, 64
9, 278360, Note_on_c, 7, 46, 0
9, 278400, Control_c, 7, 11, 94
9, 278400, Note_on_c, 7, 34, 86
9, 278520, Control_c, 7, 11, 95
9, 278600, Note_on_c, 7, 34, 0
9, 278640, Control_c, 7, 11, 97
9, 278640, Note_on_c, 7, 34, 86
9, 278760, Control_c, 7, 11, 100
9, 278840, Note_on_c, 7, 34, 0
9, 278880, Control_c, 7, 11, 101
9, 278880, Note_on_c, 7, 34, 86
9, 279000, Control_c, 7, 11, 104
9, 279080, Note_on_c, 7, 34, 0
9, 279120, Control_c, 7, 11, 106
9, 279120, Note_on_c, 7, 34, 86
9, 279240, Control_c, 7, 11, 109
9, 279320, Note_on_c, 7, 34, 0
9, 279360, Control_c, 7, 11, 110
9, 279360, Note_on_c, 7, 34, 86
9, 279480, Control_c, 7, 11, 113
9, 279560, Note_on_c, 7, 34, 0
9, 279600, Control_c, 7, 11, 115
9, 279600, Note_on_c, 7, 34, 86
9, 279720, Control_c, 7, 11, 118
9, 279800, Note_on_c, 7, 34, 0
9, 279840, Control_c, 7, 11, 119
9, 279840, Note_on_c, 7, 34, 86
9, 279960, Control_c, 7, 11, 122
9, 280040, Note_on_c, 7, 34, 0
9, 280080, Control_c, 7, 11, 124
9, 280080, Note_on_c, 7, 34, 86
9, 280200, Control_c, 7, 11, 127
9, 280280, Note_on_c, 7, 34, 0
9, 280320, Note_on_c, 7, 39, 86
9, 281130, Note_on_c, 7, 39, 0
9, 281520, Note_on_c, 7, 39, 86
9, 281720, Note_on_c, 7, 39, 0
9, 281760, Note_on_c, 7, 41, 86
9, 281960, Note_on_c, 7, 41, 0
9, 282000, Note_on_c, 7, 43, 86
9, 282200, Note_on_c, 7, 43, 0
9, 282240, Note_on_c, 7, 44, 86
9, 282640, Note_on_c, 7, 44, 0
9, 282720, Note_on_c, 7, 46, 86
9, 283120, Note_on_c, 7, 46, 0
9, 283200, Note_on_c, 7, 48, 86
9, 283600, Note_on_c, 7, 48, 0
9, 283680, Note_on_c, 7, 45, 86
9, 284080, Note_on_c, 7, 45, 0
9, 284160, Note_on_c, 7, 46, 86
9, 284970, Note_on_c, 7, 46, 0
9, 285360, Note_on_c, 7, 39, 86
9, 285560, Note_on_c, 7, 39, 0
9, 285600, Note_on_c, 7, 41, 86
9, 285800, Note_on_c, 7, 41, 0
9, 285840, Note_on_c, 7, 43, 86
9, 286040, Note_on_c, 7, 43, 0
9, 286080, Note_on_c, 7, 44, 86
9, 286480, Note_on_c, 7, 44, 0
9, 286560, Note_on_c, 7, 46, 86
9, 286960, Note_on_c, 7, 46, 0
9, 287040, Note_on_c, 7, 48, 86
9, 287440, Note_on_c, 7, 48, 0
9, 287520, Note_on_c, 7, 45, 86
9, 287920, Note_on_c, 7, 45, 0
9, 288000, Note_on_c, 7, 46, 86
9, 288810, Note_on_c, 7, 46, 0
9, 289200, Control_c, 7, 11, 96
9, 289200, Note_on_c, 7, 39, 114
9, 289320, Control_c, 7, 11, 98
9, 289400, Note_on_c, 7, 39, 0
9, 289440, Control_c, 7, 11, 99
9, 289440, Note_on_c, 7, 41, 114
9, 289560, Control_c, 7, 11, 100
9, 289640, Note_on_c, 7, 41, 0
9, 289680, Control_c, 7, 11, 102
9, 289680, Note_on_c, 7, 43, 114
9, 289800, Control_c, 7, 11, 103
9, 289880, Note_on_c, 7, 43, 0
9, 289920, Note_on_c, 7, 44, 114
9, 289920, Control_c, 7, 11, 104
9, 290040, Control_c, 7, 11, 105
9, 290160, Control_c, 7, 11, 108
9, 290280, Control_c, 7, 11, 109
9, 290320, Note_on_c, 7, 44, 0
9, 290400, Note_on_c, 7, 46, 114
9, 290400, Control_c, 7, 11, 110
9, 290520, Control_c, 7, 11, 111
9, 290640, Control_c, 7, 11, 113
9, 290760, Control_c, 7, 11, 114
9, 290800, Note_on_c, 7, 46, 0
9, 290880, Note_on_c, 7, 48, 114
9, 290880, Control_c, 7, 11, 115
9, 291000, Control_c, 7, 11, 116
9, 291120, Control_c, 7, 11, 119
9, 291240, Control_c, 7, 11, 120
9, 291280, Note_on_c, 7, 48, 0
9, 291360, Note_on_c, 7, 46, 114
9, 291360, Control_c, 7, 11, 121
9, 291480, Control_c, 7, 11, 123
9, 291600, Control_c, 7, 11, 124
9, 291720, Control_c, 7, 11, 125
9, 291760, Note_on_c, 7, 46, 0
9, 291840, Control_c, 7, 11, 127
9, 291840, Note_on_c, 7, 44, 83
9, 292240, Note_on_c, 7, 44, 0
9, 292320, Note_on_c, 7, 46, 83
9, 292720, Note_on_c, 7, 46, 0
9, 292800, Note_on_c, 7, 48, 83
9, 293200, Note_on_c, 7, 48, 0
9, 293280, Note_on_c, 7, 46, 83
9, 293680, Note_on_c, 7, 46, 0
9, 293760, Note_on_c, 7, 44, 83
9, 294160, Note_on_c, 7, 44, 0
9, 294240, Note_on_c, 7, 43, 83
9, 294640, Note_on_c, 7, 43, 0
9, 294720, Note_on_c, 7, 48, 83
9, 295120, Note_on_c, 7, 48, 0
9, 295200, Note_on_c, 7, 45, 83
9, 295600, Note_on_c, 7, 45, 0
9, 295680, Note_on_c, 7, 46, 83
9, 296490, Note_on_c, 7, 46, 0
9, 324420, Note_on_c, 7, 39, 86
9, 324620, Note_on_c, 7, 39, 0
9, 324660, Note_on_c, 7, 39, 86
9, 324860, Note_on_c, 7, 39, 0
9, 324900, Note_on_c, 7, 43, 86
9, 325100, Note_on_c, 7, 43, 0
9, 325140, Note_on_c, 7, 46, 86
9, 325340, Note_on_c, 7, 46, 0
9, 325380, Note_on_c, 7, 51, 86
9, 325580, Note_on_c, 7, 51, 0
9, 325620, Note_on_c, 7, 46, 86
9, 325820, Note_on_c, 7, 46, 0
9, 325860, Note_on_c, 7, 43, 86
9, 326060, Note_on_c, 7, 43, 0
9, 326100, Note_on_c, 7, 39, 86
9, 326300, Note_on_c, 7, 39, 0
9, 326580, Note_on_c, 7, 32, 86
9, 326780, Note_on_c, 7, 32, 0
9, 326820, Note_on_c, 7, 36, 86
9, 327020, Note_on_c, 7, 36, 0
9, 327060, Note_on_c, 7, 39, 86
9, 327260, Note_on_c, 7, 39, 0
9, 327300, Note_on_c, 7, 44, 86
9, 327500, Note_on_c, 7, 44, 0
9, 327540, Note_on_c, 7, 39, 86
9, 327740, Note_on_c, 7, 39, 0
9, 327780, Note_on_c, 7, 36, 86
9, 327980, Note_on_c, 7, 36, 0
9, 328020, Note_on_c, 7, 32, 86
9, 328220, Note_on_c, 7, 32, 0
9, 328500, Note_on_c, 7, 39, 86
9, 328700, Note_on_c, 7, 39, 0
9, 328740, Note_on_c, 7, 43, 86
9, 328940, Note_on_c, 7, 43, 0
9, 328980, Note_on_c, 7, 46, 86
9, 329180, Note_on_c, 7, 46, 0
9, 329220, Note_on_c, 7, 51, 86
9, 329420, Note_on_c, 7, 51, 0
9, 329460, Note_on_c, 7, 46, 86
9, 329660, Note_on_c, 7, 46, 0
9, 329700, Note_on_c, 7, 43, 86
9, 329900, Note_on_c, 7, 43, 0
9, 329940, Note_on_c, 7, 39, 86
9, 330140, Note_on_c, 7, 39, 0
9, 330180, Note_on_c, 7, 41, 86
9, 330790, Note_on_c, 7, 41, 0
9, 330900, Note_on_c, 7, 44, 86
9, 331100, Note_on_c, 7, 44, 0
9, 331140, Note_on_c, 7, 46, 86
9, 331750, Note_on_c, 7, 46, 0
9, 331860, Note_on_c, 7, 38, 86
9, 332060, Note_on_c, 7, 38, 0
9, 332100, Note_on_c, 7, 39, 86
9, 332300, Note_on_c, 7, 39, 0
9, 332340, Note_on_c, 7, 39, 86
9, 332540, Note_on_c, 7, 39, 0
9, 332580, Note_on_c, 7, 39, 86
9, 332780, Note_on_c, 7, 39, 0
9, 332820, Note_on_c, 7, 39, 86
9, 333020, Note_on_c, 7, 39, 0
9, 333060, Note_on_c, 7, 43, 86
9, 333260, Note_on_c, 7, 43, 0
9, 333300, Note_on_c, 7, 43, 86
9, 333500, Note_on_c, 7, 43, 0
9, 333540, Note_on_c, 7, 43, 86
9, 333740, Note_on_c, 7, 43, 0
9, 333780, Note_on_c, 7, 43, 86
9, 333980, Note_on_c, 7, 43, 0
9, 334020, Note_on_c, 7, 44, 86
9, 334220, Note_on_c, 7, 44, 0
9, 334260, Note_on_c, 7, 44, 86
9, 334460, Note_on_c, 7, 44, 0
9, 334500, Note_on_c, 7, 44, 86
9, 334700, Note_on_c, 7, 44, 0
9, 334740, Note_on_c, 7, 44, 86
9, 334940, Note_on_c, 7, 44, 0
9, 334980, Note_on_c, 7, 45, 86
9, 335180, Note_on_c, 7, 45, 0
9, 335220, Note_on_c, 7, 45, 86
9, 335420, Note_on_c, 7, 45, 0
9, 335460, Note_on_c, 7, 45, 86
9, 335660, Note_on_c, 7, 45, 0
9, 335700, Note_on_c, 7, 45, 86
9, 335900, Note_on_c, 7, 45, 0
9, 335940, Note_on_c, 7, 46, 86
9, 336140, Note_on_c, 7, 46, 0
9, 336180, Note_on_c, 7, 46, 86
9, 336380, Note_on_c, 7, 46, 0
9, 336420, Note_on_c, 7, 46, 86
9, 336620, Note_on_c, 7, 46, 0
9, 336660, Note_on_c, 7, 46, 86
9, 336860, Note_on_c, 7, 46, 0
9, 336900, Note_on_c, 7, 34, 86
9, 337100, Note_on_c, 7, 34, 0
9, 337140, Note_on_c, 7, 34, 86
9, 337340, Note_on_c, 7, 34, 0
9, 337380, Note_on_c, 7, 34, 86
9, 337580, Note_on_c, 7, 34, 0
9, 337620, Note_on_c, 7, 34, 86
9, 337820, Note_on_c, 7, 34, 0
9, 337860, Note_on_c, 7, 39, 64
9, 343330, Note_on_c, 7, 39, 0
9, 343620, Note_on_c, 7, 32, 64
9, 344580, Note_on_c, 7, 32, 0
9, 344580, Note_on_c, 7, 34, 64
9, 345540, Note_on_c, 7, 34, 0
9, 345540, Note_on_c, 7, 39, 40
9, 351010, Note_on_c, 7, 39, 0
9, 351300, Note_on_c, 7, 32, 40
9, 352260, Note_on_c, 7, 32, 0
9, 352260, Note_on_c, 7, 34, 40
9, 353220, Note_on_c, 7, 34, 0
9, 353220, Note_on_c, 7, 39, 40
9, 353620, Note_on_c, 7, 39, 0
9, 353940, Note_on_c, 7, 34, 86
9, 354140, Note_on_c, 7, 34, 0
9, 354180, Note_on_c, 7, 39, 86
9, 354380, Note_on_c, 7, 39, 0
9, 354420, Note_on_c, 7, 39, 86
9, 354620, Note_on_c, 7, 39, 0
9, 354660, Note_on_c, 7, 34, 86
9, 354860, Note_on_c, 7, 34, 0
9, 354900, Note_on_c, 7, 34, 86
9, 355100, Note_on_c, 7, 34, 0
9, 355140, Note_on_c, 7, 39, 86
9, 355540, Note_on_c, 7, 39, 0
9, 355860, Note_on_c, 7, 34, 86
9, 356060, Note_on_c, 7, 34, 0
9, 356100, Note_on_c, 7, 39, 86
9, 356300, Note_on_c, 7, 39, 0
9, 356340, Note_on_c, 7, 39, 86
9, 356540, Note_on_c, 7, 39, 0
9, 356580, Note_on_c, 7, 34, 86
9, 356780, Note_on_c, 7, 34, 0
9, 356820, Note_on_c, 7, 34, 86
9, 357020, Note_on_c, 7, 34, 0
9, 357060, Note_on_c, 7, 39, 86
9, 357260, Note_on_c, 7, 39, 0
9, 357300, Note_on_c, 7, 43, 86
9, 357500, Note_on_c, 7, 43, 0
9, 357540, Note_on_c, 7, 46, 86
9, 357740, Note_on_c, 7, 46, 0
9, 357780, Note_on_c, 7, 51, 86
9, 357980, Note_on_c, 7, 51, 0
9, 358020, Note_on_c, 7, 39, 86
9, 358420, Note_on_c, 7, 39, 0
9, 358980, Note_on_c, 7, 39, 86
9, 359180, Note_on_c, 7, 39, 0
9, 359220, Note_on_c, 7, 43, 86
9, 359420, Note_on_c, 7, 43, 0
9, 359460, Note_on_c, 7, 46, 86
9, 359660, Note_on_c, 7, 46, 0
9, 359700, Note_on_c, 7, 51, 86
9, 359900, Note_on_c, 7, 51, 0
9, 359940, Note_on_c, 7, 39, 86
9, 360340, Note_on_c, 7, 39, 0
9, 360900, Note_on_c, 7, 39, 86
9, 361300, Note_on_c, 7, 39, 0
9, 361380, Note_on_c, 7, 51, 86
9, 361780, Note_on_c, 7, 51, 0
9, 361860, Note_on_c, 7, 46, 86
9, 362260, Note_on_c, 7, 46, 0
9, 362340, Note_on_c, 7, 43, 86
9, 362740, Note_on_c, 7, 43, 0
9, 362820, Note_on_c, 7, 39, 86
9, 363630, Note_on_c, 7, 39, 0
9, 364800, End_track
10, 0, Start_track
10, 0, Title_t, "                                    "
10, 1920, End_track
11, 0, Start_track
11, 0, Title_t, "                                    "
11, 1920, End_track
12, 0, Start_track
12, 0, Title_t, "                                    "
12, 1920, End_track
13, 0, Start_track
13, 0, Title_t, "                                    "
13, 1920, End_track
14, 0, Start_track
14, 0, Title_t, "                                    "
14, 1920, End_track
15, 0, Start_track
15, 0, Title_t, "                                    "
15, 1920, End_track
16, 0, Start_track
16, 0, Title_t, "                                    "
16, 1920, End_track
17, 0, Start_track
17, 0, Title_t, "                                    "
17, 1920, End_track
18, 0, Start_track
18, 0, Title_t, "                                    "
18, 1920, End_track
19, 0, Start_track
19, 0, Title_t, "                                    "
19, 1920, End_track
20, 0, Start_track
20, 0, Title_t, "                                    "
20, 1920, End_track
21, 0, Start_track
21, 0, Title_t, "                                    "
21, 1920, End_track
22, 0, Start_track
22, 0, Title_t, "                                    "
22, 1920, End_track
23, 0, Start_track
23, 0, Title_t, "                                    "
23, 1920, End_track
24, 0, Start_track
24, 0, Title_t, "                                    "
24, 1920, End_track
25, 0, Start_track
25, 0, Title_t, "                                    "
25, 1920, End_track
26, 0, Start_track
26, 0, Title_t, "                                    "
26, 1920, End_track
27, 0, Start_track
27, 0, Title_t, "                                    "
27, 1920, End_track
28, 0, Start_track
28, 0, Title_t, "                                    "
28, 1920, End_track
29, 0, Start_track
29, 0, Title_t, "                                    "
29, 1920, End_track
30, 0, Start_track
30, 0, Title_t, "                                    "
30, 1920, End_track
31, 0, Start_track
31, 0, Title_t, "                                    "
31, 1920, End_track
32, 0, Start_track
32, 0, Title_t, "                                    "
32, 1920, End_track
33, 0, Start_track
33, 0, Title_t, "                                    "
33, 1920, End_track
34, 0, Start_track
34, 0, Title_t, "                                    "
34, 1920, End_track
35, 0, Start_track
35, 0, Title_t, "                                    "
35, 1920, End_track
36, 0, Start_track
36, 0, Title_t, "                                    "
36, 1920, End_track
0, 0, End_of_file