0, 0, Header, 1, 26, 480
1, 0, Start_track
1, 0, Title_t, "untitled"
1, 0, SMPTE_offset, 96, 0, 3, 0, 0
1, 0, Time_signature, 4, 2, 24, 8
1, 0, Key_signature, 0, "major"
1, 0, Tempo, 1250000
1, 5, Tempo, 1250000
1, 1920, Time_signature, 3, 2, 24, 8
1, 1920, Key_signature, -1, "major"
1, 1920, Marker_t, "2nd Movement, Andantino"
1, 147830, Tempo, 1333333
1, 148330, Tempo, 1500000
1, 148800, Tempo, 1714286
1, 149280, Tempo, 3000000
1, 149500, Tempo, 6000000
1, 149700, Tempo, 3076923
1, 149755, Tempo, 1518987
1, 150000, Tempo, 1318681
1, 150165, Tempo, 2000000
1, 150240, Tempo, 1200000
1, 166090, Tempo, 1250000
1, 167520, Tempo, 1363636
1, 168950, Tempo, 1518987
1, 170440, Tempo, 2000000
1, 170440, End_track
2, 0, Start_track
2, 0, Title_t, "Oboe"
2, 0, Control_c, 0, 0, 0
2, 0, Control_c, 0, 7, 100
2, 0, Control_c, 0, 10, 50
2, 0, Control_c, 0, 91, 73
2, 0, Control_c, 0, 93, 64
2, 1, Control_c, 0, 32, 0
2, 2, Program_c, 0, 68
2, 2, End_track
3, 0, Start_track
3, 0, Title_t, "Oboe"
3, 0, Control_c, 1, 0, 0
3, 0, Control_c, 1, 7, 100
3, 0, Control_c, 1, 10, 60
3, 0, Control_c, 1, 91, 70
3, 0, Control_c, 1, 93, 70
3, 1, Control_c, 1, 32, 0
3, 2, Program_c, 1, 68
3, 3828, Control_c, 1, 0, 0
3, 3829, Control_c, 1, 32, 0
3, 3830, Program_c, 1, 68
3, 3830, End_track
4, 0, Start_track
4, 0, Title_t, "Corni in C"
4, 0, Control_c, 2, 0, 0
4, 0, Control_c, 2, 7, 100
4, 0, Control_c, 2, 10, 80
4, 0, Control_c, 2, 91, 88
4, 0, Control_c, 2, 93, 88
4, 1, Control_c, 2, 32, 1
4, 2, Program_c, 2, 60
4, 2, End_track
5, 0, Start_track
5, 0, Title_t, "Flute"
5, 0, Control_c, 3, 0, 0
5, 0, Control_c, 3, 7, 100
5, 0, Control_c, 3, 10, 60
5, 0, Control_c, 3, 91, 91
5, 0, Control_c, 3, 93, 91
5, 1, Control_c, 3, 32, 1
5, 2, Program_c, 3, 73
5, 19200, Note_on_c, 3, 81, 87
5, 19440, Note_on_c, 3, 81, 0
5, 19680, Note_on_c, 3, 81, 87
5, 19920, Note_on_c, 3, 81, 0
5, 20160, Note_on_c, 3, 81, 87
5, 20400, Note_on_c, 3, 81, 0
5, 20640, Note_on_c, 3, 79, 97
5, 21480, Note_on_c, 3, 76, 101
5, 21519, Note_on_c, 3, 79, 0
5, 21600, Note_on_c, 3, 76, 0
5, 21600, Note_on_c, 3, 77, 96
5, 21840, Note_on_c, 3, 77, 0
5, 22080, Note_on_c, 3, 77, 80
5, 23520, Note_on_c, 3, 77, 0
5, 23520, Note_on_c, 3, 82, 92
5, 24360, Note_on_c, 3, 84, 88
5, 24384, Note_on_c, 3, 82, 0
5, 24420, Note_on_c, 3, 86, 89
5, 24454, Note_on_c, 3, 84, 0
5, 24480, Note_on_c, 3, 84, 89
5, 24509, Note_on_c, 3, 86, 0
5, 24720, Note_on_c, 3, 84, 0
5, 24960, Note_on_c, 3, 81, 105
5, 25680, Note_on_c, 3, 82, 105
5, 25704, Note_on_c, 3, 81, 0
5, 25800, Note_on_c, 3, 84, 105
5, 25830, Note_on_c, 3, 82, 0
5, 25920, Note_on_c, 3, 88, 105
5, 25950, Note_on_c, 3, 84, 0
5, 26040, Note_on_c, 3, 86, 105
5, 26070, Note_on_c, 3, 88, 0
5, 26160, Note_on_c, 3, 84, 105
5, 26190, Note_on_c, 3, 86, 0
5, 26280, Note_on_c, 3, 82, 105
5, 26310, Note_on_c, 3, 84, 0
5, 26369, Note_on_c, 3, 82, 0
5, 26400, Note_on_c, 3, 81, 105
5, 26640, Note_on_c, 3, 79, 105
5, 26689, Note_on_c, 3, 81, 0
5, 27120, Note_on_c, 3, 81, 105
5, 27144, Note_on_c, 3, 79, 0
5, 27240, Note_on_c, 3, 82, 105
5, 27270, Note_on_c, 3, 81, 0
5, 27360, Note_on_c, 3, 86, 105
5, 27390, Note_on_c, 3, 82, 0
5, 27480, Note_on_c, 3, 84, 105
5, 27510, Note_on_c, 3, 86, 0
5, 27600, Note_on_c, 3, 82, 105
5, 27630, Note_on_c, 3, 84, 0
5, 27720, Note_on_c, 3, 81, 105
5, 27750, Note_on_c, 3, 82, 0
5, 27819, Note_on_c, 3, 81, 0
5, 27840, Note_on_c, 3, 79, 105
5, 28080, Note_on_c, 3, 77, 105
5, 28134, Note_on_c, 3, 79, 0
5, 28560, Note_on_c, 3, 79, 105
5, 28584, Note_on_c, 3, 77, 0
5, 28680, Note_on_c, 3, 81, 105
5, 28710, Note_on_c, 3, 79, 0
5, 28800, Note_on_c, 3, 82, 105
5, 28830, Note_on_c, 3, 81, 0
5, 28920, Note_on_c, 3, 84, 105
5, 28950, Note_on_c, 3, 82, 0
5, 29040, Note_on_c, 3, 86, 105
5, 29070, Note_on_c, 3, 84, 0
5, 29160, Note_on_c, 3, 82, 105
5, 29190, Note_on_c, 3, 86, 0
5, 29254, Note_on_c, 3, 82, 0
5, 29280, Note_on_c, 3, 81, 105
5, 29760, Note_on_c, 3, 79, 105
5, 29809, Note_on_c, 3, 81, 0
5, 30240, Note_on_c, 3, 79, 0
5, 30720, Note_on_c, 3, 79, 105
5, 31440, Note_on_c, 3, 81, 105
5, 31474, Note_on_c, 3, 79, 0
5, 31560, Note_on_c, 3, 79, 105
5, 31594, Note_on_c, 3, 81, 0
5, 31669, Note_on_c, 3, 79, 0
5, 31680, Note_on_c, 3, 84, 105
5, 31800, Note_on_c, 3, 83, 105
5, 31849, Note_on_c, 3, 84, 0
5, 31920, Note_on_c, 3, 81, 105
5, 31954, Note_on_c, 3, 83, 0
5, 32040, Note_on_c, 3, 79, 105
5, 32074, Note_on_c, 3, 81, 0
5, 32139, Note_on_c, 3, 79, 0
5, 32160, Note_on_c, 3, 79, 105
5, 32520, Note_on_c, 3, 81, 105
5, 32564, Note_on_c, 3, 79, 0
5, 32619, Note_on_c, 3, 81, 0
5, 32640, Note_on_c, 3, 79, 105
5, 33120, Note_on_c, 3, 79, 0
5, 33540, Note_on_c, 3, 74, 105
5, 33600, Note_on_c, 3, 86, 105
5, 33634, Note_on_c, 3, 74, 0
5, 34069, Note_on_c, 3, 86, 0
5, 34080, Note_on_c, 3, 84, 105
5, 34200, Note_on_c, 3, 83, 105
5, 34259, Note_on_c, 3, 84, 0
5, 34320, Note_on_c, 3, 81, 105
5, 34349, Note_on_c, 3, 83, 0
5, 34440, Note_on_c, 3, 79, 105
5, 34469, Note_on_c, 3, 81, 0
5, 34524, Note_on_c, 3, 79, 0
5, 34560, Note_on_c, 3, 79, 105
5, 34656, Note_on_c, 3, 79, 0
5, 34800, Note_on_c, 3, 79, 105
5, 34896, Note_on_c, 3, 79, 0
5, 35040, Note_on_c, 3, 79, 105
5, 35400, Note_on_c, 3, 76, 105
5, 35439, Note_on_c, 3, 79, 0
5, 35504, Note_on_c, 3, 76, 0
5, 35520, Note_on_c, 3, 79, 105
5, 36000, Note_on_c, 3, 79, 0
5, 38400, Note_on_c, 3, 79, 105
5, 38760, Note_on_c, 3, 81, 105
5, 38799, Note_on_c, 3, 79, 0
5, 38880, Note_on_c, 3, 81, 0
5, 38880, Note_on_c, 3, 79, 105
5, 39360, Note_on_c, 3, 79, 0
5, 41280, Note_on_c, 3, 79, 105
5, 41640, Note_on_c, 3, 76, 105
5, 41679, Note_on_c, 3, 79, 0
5, 41744, Note_on_c, 3, 76, 0
5, 41760, Note_on_c, 3, 79, 105
5, 41856, Note_on_c, 3, 79, 0
5, 42000, Note_on_c, 3, 79, 105
5, 42096, Note_on_c, 3, 79, 0
5, 42240, Note_on_c, 3, 84, 105
5, 42720, Note_on_c, 3, 84, 0
5, 42720, Note_on_c, 3, 83, 105
5, 42840, Note_on_c, 3, 81, 105
5, 42864, Note_on_c, 3, 83, 0
5, 42960, Note_on_c, 3, 79, 105
5, 42999, Note_on_c, 3, 81, 0
5, 43080, Note_on_c, 3, 78, 105
5, 43119, Note_on_c, 3, 79, 0
5, 43169, Note_on_c, 3, 78, 0
5, 43200, Note_on_c, 3, 78, 105
5, 43296, Note_on_c, 3, 78, 0
5, 43440, Note_on_c, 3, 78, 105
5, 43536, Note_on_c, 3, 78, 0
5, 43680, Note_on_c, 3, 81, 105
5, 43800, Note_on_c, 3, 79, 105
5, 43839, Note_on_c, 3, 81, 0
5, 43894, Note_on_c, 3, 79, 0
5, 43920, Note_on_c, 3, 79, 105
5, 44400, Note_on_c, 3, 79, 0
5, 44400, Note_on_c, 3, 83, 105
5, 44520, Note_on_c, 3, 86, 105
5, 44559, Note_on_c, 3, 83, 0
5, 44619, Note_on_c, 3, 86, 0
5, 44640, Note_on_c, 3, 84, 105
5, 44760, Note_on_c, 3, 81, 105
5, 44789, Note_on_c, 3, 84, 0
5, 44880, Note_on_c, 3, 79, 105
5, 44929, Note_on_c, 3, 81, 0
5, 45000, Note_on_c, 3, 78, 105
5, 45059, Note_on_c, 3, 79, 0
5, 45109, Note_on_c, 3, 78, 0
5, 45120, Note_on_c, 3, 81, 105
5, 45180, Note_on_c, 3, 79, 105
5, 45195, Note_on_c, 3, 81, 0
5, 45240, Note_on_c, 3, 81, 106
5, 45255, Note_on_c, 3, 79, 0
5, 45268, Note_on_c, 3, 79, 107
5, 45275, Note_on_c, 3, 81, 0
5, 45300, Note_on_c, 3, 81, 109
5, 45308, Note_on_c, 3, 79, 0
5, 45328, Note_on_c, 3, 79, 109
5, 45335, Note_on_c, 3, 81, 0
5, 45360, Note_on_c, 3, 81, 108
5, 45368, Note_on_c, 3, 79, 0
5, 45388, Note_on_c, 3, 79, 106
5, 45395, Note_on_c, 3, 81, 0
5, 45420, Note_on_c, 3, 81, 105
5, 45428, Note_on_c, 3, 79, 0
5, 45448, Note_on_c, 3, 79, 100
5, 45455, Note_on_c, 3, 81, 0
5, 45480, Note_on_c, 3, 78, 98
5, 45488, Note_on_c, 3, 79, 0
5, 45540, Note_on_c, 3, 79, 98
5, 45555, Note_on_c, 3, 78, 0
5, 45600, Note_on_c, 3, 67, 102
5, 45615, Note_on_c, 3, 79, 0
5, 46080, Note_on_c, 3, 67, 0
5, 51360, Note_on_c, 3, 77, 105
5, 51804, Note_on_c, 3, 77, 0
5, 51840, Note_on_c, 3, 89, 105
5, 51960, Note_on_c, 3, 86, 105
5, 51990, Note_on_c, 3, 89, 0
5, 52080, Note_on_c, 3, 83, 105
5, 52110, Note_on_c, 3, 86, 0
5, 52200, Note_on_c, 3, 77, 105
5, 52230, Note_on_c, 3, 83, 0
5, 52299, Note_on_c, 3, 77, 0
5, 52320, Note_on_c, 3, 76, 105
5, 52800, Note_on_c, 3, 76, 0
5, 52800, Note_on_c, 3, 77, 105
5, 52860, Note_on_c, 3, 76, 105
5, 52875, Note_on_c, 3, 77, 0
5, 52920, Note_on_c, 3, 77, 105
5, 52935, Note_on_c, 3, 76, 0
5, 52948, Note_on_c, 3, 76, 105
5, 52955, Note_on_c, 3, 77, 0
5, 52980, Note_on_c, 3, 77, 105
5, 52988, Note_on_c, 3, 76, 0
5, 53008, Note_on_c, 3, 76, 105
5, 53015, Note_on_c, 3, 77, 0
5, 53040, Note_on_c, 3, 77, 105
5, 53048, Note_on_c, 3, 76, 0
5, 53068, Note_on_c, 3, 76, 105
5, 53075, Note_on_c, 3, 77, 0
5, 53100, Note_on_c, 3, 77, 105
5, 53108, Note_on_c, 3, 76, 0
5, 53128, Note_on_c, 3, 76, 105
5, 53135, Note_on_c, 3, 77, 0
5, 53160, Note_on_c, 3, 74, 105
5, 53168, Note_on_c, 3, 76, 0
5, 53220, Note_on_c, 3, 76, 105
5, 53235, Note_on_c, 3, 74, 0
5, 53280, Note_on_c, 3, 76, 0
5, 53280, Note_on_c, 3, 79, 105
5, 53340, Note_on_c, 3, 77, 105
5, 53355, Note_on_c, 3, 79, 0
5, 53400, Note_on_c, 3, 79, 105
5, 53415, Note_on_c, 3, 77, 0
5, 53428, Note_on_c, 3, 77, 105
5, 53435, Note_on_c, 3, 79, 0
5, 53460, Note_on_c, 3, 79, 105
5, 53468, Note_on_c, 3, 77, 0
5, 53488, Note_on_c, 3, 77, 105
5, 53495, Note_on_c, 3, 79, 0
5, 53520, Note_on_c, 3, 79, 105
5, 53528, Note_on_c, 3, 77, 0
5, 53548, Note_on_c, 3, 77, 105
5, 53555, Note_on_c, 3, 79, 0
5, 53580, Note_on_c, 3, 79, 105
5, 53588, Note_on_c, 3, 77, 0
5, 53608, Note_on_c, 3, 77, 105
5, 53615, Note_on_c, 3, 79, 0
5, 53640, Note_on_c, 3, 76, 105
5, 53648, Note_on_c, 3, 77, 0
5, 53700, Note_on_c, 3, 77, 105
5, 53715, Note_on_c, 3, 76, 0
5, 53760, Note_on_c, 3, 77, 0
5, 53760, Note_on_c, 3, 79, 105
5, 54120, Note_on_c, 3, 76, 105
5, 54169, Note_on_c, 3, 79, 0
5, 54209, Note_on_c, 3, 76, 0
5, 54240, Note_on_c, 3, 84, 105
5, 54960, Note_on_c, 3, 84, 0
5, 54960, Note_on_c, 3, 79, 105
5, 55179, Note_on_c, 3, 79, 0
5, 55200, Note_on_c, 3, 79, 105
5, 55320, Note_on_c, 3, 77, 105
5, 55349, Note_on_c, 3, 79, 0
5, 55419, Note_on_c, 3, 77, 0
5, 55440, Note_on_c, 3, 81, 105
5, 55484, Note_on_c, 3, 81, 0
5, 55560, Note_on_c, 3, 77, 105
5, 55604, Note_on_c, 3, 77, 0
5, 55680, Note_on_c, 3, 77, 105
5, 55800, Note_on_c, 3, 76, 105
5, 55839, Note_on_c, 3, 77, 0
5, 55899, Note_on_c, 3, 76, 0
5, 55920, Note_on_c, 3, 79, 105
5, 55964, Note_on_c, 3, 79, 0
5, 56040, Note_on_c, 3, 76, 105
5, 56084, Note_on_c, 3, 76, 0
5, 56160, Note_on_c, 3, 76, 105
5, 56280, Note_on_c, 3, 74, 105
5, 56314, Note_on_c, 3, 76, 0
5, 56364, Note_on_c, 3, 74, 0
5, 56400, Note_on_c, 3, 77, 105
5, 56444, Note_on_c, 3, 77, 0
5, 56520, Note_on_c, 3, 74, 105
5, 56564, Note_on_c, 3, 74, 0
5, 56640, Note_on_c, 3, 72, 105
5, 57120, Note_on_c, 3, 72, 0
5, 61440, Note_on_c, 3, 77, 105
5, 61680, Note_on_c, 3, 89, 105
5, 61734, Note_on_c, 3, 77, 0
5, 62040, Note_on_c, 3, 86, 105
5, 62079, Note_on_c, 3, 89, 0
5, 62160, Note_on_c, 3, 83, 105
5, 62204, Note_on_c, 3, 86, 0
5, 62280, Note_on_c, 3, 77, 105
5, 62314, Note_on_c, 3, 83, 0
5, 62374, Note_on_c, 3, 77, 0
5, 62400, Note_on_c, 3, 76, 105
5, 62880, Note_on_c, 3, 76, 0
5, 62880, Note_on_c, 3, 77, 105
5, 62940, Note_on_c, 3, 76, 105
5, 62955, Note_on_c, 3, 77, 0
5, 63000, Note_on_c, 3, 77, 105
5, 63015, Note_on_c, 3, 76, 0
5, 63028, Note_on_c, 3, 76, 105
5, 63035, Note_on_c, 3, 77, 0
5, 63060, Note_on_c, 3, 77, 105
5, 63068, Note_on_c, 3, 76, 0
5, 63088, Note_on_c, 3, 76, 105
5, 63095, Note_on_c, 3, 77, 0
5, 63120, Note_on_c, 3, 77, 105
5, 63128, Note_on_c, 3, 76, 0
5, 63148, Note_on_c, 3, 76, 105
5, 63155, Note_on_c, 3, 77, 0
5, 63180, Note_on_c, 3, 77, 105
5, 63188, Note_on_c, 3, 76, 0
5, 63208, Note_on_c, 3, 76, 105
5, 63215, Note_on_c, 3, 77, 0
5, 63240, Note_on_c, 3, 74, 105
5, 63248, Note_on_c, 3, 76, 0
5, 63300, Note_on_c, 3, 76, 105
5, 63315, Note_on_c, 3, 74, 0
5, 63359, Note_on_c, 3, 76, 0
5, 63360, Note_on_c, 3, 79, 105
5, 63420, Note_on_c, 3, 77, 105
5, 63435, Note_on_c, 3, 79, 0
5, 63480, Note_on_c, 3, 79, 105
5, 63495, Note_on_c, 3, 77, 0
5, 63508, Note_on_c, 3, 77, 105
5, 63515, Note_on_c, 3, 79, 0
5, 63540, Note_on_c, 3, 79, 105
5, 63548, Note_on_c, 3, 77, 0
5, 63568, Note_on_c, 3, 77, 105
5, 63575, Note_on_c, 3, 79, 0
5, 63600, Note_on_c, 3, 79, 105
5, 63608, Note_on_c, 3, 77, 0
5, 63628, Note_on_c, 3, 77, 105
5, 63635, Note_on_c, 3, 79, 0
5, 63660, Note_on_c, 3, 79, 105
5, 63668, Note_on_c, 3, 77, 0
5, 63688, Note_on_c, 3, 77, 105
5, 63695, Note_on_c, 3, 79, 0
5, 63720, Note_on_c, 3, 76, 105
5, 63728, Note_on_c, 3, 77, 0
5, 63780, Note_on_c, 3, 77, 105
5, 63795, Note_on_c, 3, 76, 0
5, 63840, Note_on_c, 3, 77, 0
5, 63840, Note_on_c, 3, 79, 105
5, 64200, Note_on_c, 3, 76, 105
5, 64224, Note_on_c, 3, 79, 0
5, 64294, Note_on_c, 3, 76, 0
5, 64320, Note_on_c, 3, 79, 105
5, 64800, Note_on_c, 3, 79, 0
5, 65280, Note_on_c, 3, 76, 105
5, 65760, Note_on_c, 3, 76, 0
5, 65760, Note_on_c, 3, 77, 105
5, 65820, Note_on_c, 3, 76, 105
5, 65835, Note_on_c, 3, 77, 0
5, 65880, Note_on_c, 3, 77, 105
5, 65895, Note_on_c, 3, 76, 0
5, 65908, Note_on_c, 3, 76, 105
5, 65915, Note_on_c, 3, 77, 0
5, 65940, Note_on_c, 3, 77, 105
5, 65948, Note_on_c, 3, 76, 0
5, 65968, Note_on_c, 3, 76, 105
5, 65975, Note_on_c, 3, 77, 0
5, 66000, Note_on_c, 3, 77, 105
5, 66008, Note_on_c, 3, 76, 0
5, 66028, Note_on_c, 3, 76, 105
5, 66035, Note_on_c, 3, 77, 0
5, 66060, Note_on_c, 3, 77, 105
5, 66068, Note_on_c, 3, 76, 0
5, 66088, Note_on_c, 3, 76, 105
5, 66095, Note_on_c, 3, 77, 0
5, 66120, Note_on_c, 3, 74, 105
5, 66128, Note_on_c, 3, 76, 0
5, 66180, Note_on_c, 3, 76, 105
5, 66195, Note_on_c, 3, 74, 0
5, 66240, Note_on_c, 3, 76, 0
5, 66240, Note_on_c, 3, 79, 105
5, 66300, Note_on_c, 3, 77, 105
5, 66315, Note_on_c, 3, 79, 0
5, 66360, Note_on_c, 3, 79, 105
5, 66375, Note_on_c, 3, 77, 0
5, 66388, Note_on_c, 3, 77, 105
5, 66395, Note_on_c, 3, 79, 0
5, 66420, Note_on_c, 3, 79, 105
5, 66428, Note_on_c, 3, 77, 0
5, 66448, Note_on_c, 3, 77, 105
5, 66455, Note_on_c, 3, 79, 0
5, 66480, Note_on_c, 3, 79, 105
5, 66488, Note_on_c, 3, 77, 0
5, 66508, Note_on_c, 3, 77, 105
5, 66515, Note_on_c, 3, 79, 0
5, 66540, Note_on_c, 3, 79, 105
5, 66548, Note_on_c, 3, 77, 0
5, 66568, Note_on_c, 3, 77, 105
5, 66575, Note_on_c, 3, 79, 0
5, 66600, Note_on_c, 3, 76, 105
5, 66608, Note_on_c, 3, 77, 0
5, 66660, Note_on_c, 3, 77, 105
5, 66675, Note_on_c, 3, 76, 0
5, 66720, Note_on_c, 3, 77, 0
5, 66720, Note_on_c, 3, 79, 105
5, 66840, Note_on_c, 3, 76, 105
5, 66869, Note_on_c, 3, 79, 0
5, 66919, Note_on_c, 3, 76, 0
5, 66960, Note_on_c, 3, 79, 105
5, 67009, Note_on_c, 3, 79, 0
5, 67080, Note_on_c, 3, 79, 105
5, 67134, Note_on_c, 3, 79, 0
5, 67200, Note_on_c, 3, 79, 105
5, 67680, Note_on_c, 3, 79, 0
5, 68160, Note_on_c, 3, 84, 105
5, 68400, Note_on_c, 3, 83, 105
5, 68444, Note_on_c, 3, 84, 0
5, 68640, Note_on_c, 3, 81, 105
5, 68674, Note_on_c, 3, 83, 0
5, 68880, Note_on_c, 3, 79, 105
5, 68934, Note_on_c, 3, 81, 0
5, 69120, Note_on_c, 3, 77, 105
5, 69164, Note_on_c, 3, 79, 0
5, 69360, Note_on_c, 3, 76, 105
5, 69404, Note_on_c, 3, 77, 0
5, 69549, Note_on_c, 3, 76, 0
5, 69600, Note_on_c, 3, 74, 105
5, 69840, Note_on_c, 3, 74, 0
5, 69840, Note_on_c, 3, 76, 105
5, 69868, Note_on_c, 3, 74, 105
5, 69875, Note_on_c, 3, 76, 0
5, 69900, Note_on_c, 3, 73, 105
5, 69908, Note_on_c, 3, 74, 0
5, 69928, Note_on_c, 3, 74, 105
5, 69935, Note_on_c, 3, 73, 0
5, 69960, Note_on_c, 3, 76, 105
5, 69968, Note_on_c, 3, 74, 0
5, 70080, Note_on_c, 3, 76, 0
5, 70080, Note_on_c, 3, 77, 105
5, 70320, Note_on_c, 3, 77, 0
5, 70320, Note_on_c, 3, 79, 105
5, 70348, Note_on_c, 3, 77, 105
5, 70355, Note_on_c, 3, 79, 0
5, 70380, Note_on_c, 3, 76, 105
5, 70388, Note_on_c, 3, 77, 0
5, 70408, Note_on_c, 3, 77, 105
5, 70415, Note_on_c, 3, 76, 0
5, 70440, Note_on_c, 3, 79, 105
5, 70448, Note_on_c, 3, 77, 0
5, 70560, Note_on_c, 3, 79, 0
5, 70560, Note_on_c, 3, 81, 105
5, 70800, Note_on_c, 3, 81, 0
5, 70800, Note_on_c, 3, 83, 105
5, 70828, Note_on_c, 3, 81, 105
5, 70835, Note_on_c, 3, 83, 0
5, 70860, Note_on_c, 3, 79, 105
5, 70868, Note_on_c, 3, 81, 0
5, 70888, Note_on_c, 3, 81, 105
5, 70895, Note_on_c, 3, 79, 0
5, 70920, Note_on_c, 3, 83, 105
5, 70928, Note_on_c, 3, 81, 0
5, 71040, Note_on_c, 3, 83, 0
5, 71040, Note_on_c, 3, 84, 105
5, 71160, Note_on_c, 3, 84, 0
5, 71160, Note_on_c, 3, 79, 105
5, 71280, Note_on_c, 3, 79, 0
5, 71280, Note_on_c, 3, 83, 105
5, 71340, Note_on_c, 3, 83, 0
5, 71340, Note_on_c, 3, 81, 105
5, 71400, Note_on_c, 3, 81, 0
5, 71400, Note_on_c, 3, 79, 105
5, 71460, Note_on_c, 3, 79, 0
5, 71460, Note_on_c, 3, 77, 105
5, 71520, Note_on_c, 3, 77, 0
5, 71520, Note_on_c, 3, 76, 105
5, 72000, Note_on_c, 3, 76, 0
5, 72000, Note_on_c, 3, 76, 105
5, 72060, Note_on_c, 3, 74, 105
5, 72075, Note_on_c, 3, 76, 0
5, 72120, Note_on_c, 3, 76, 105
5, 72135, Note_on_c, 3, 74, 0
5, 72148, Note_on_c, 3, 74, 105
5, 72155, Note_on_c, 3, 76, 0
5, 72180, Note_on_c, 3, 76, 105
5, 72188, Note_on_c, 3, 74, 0
5, 72208, Note_on_c, 3, 74, 105
5, 72215, Note_on_c, 3, 76, 0
5, 72240, Note_on_c, 3, 76, 105
5, 72248, Note_on_c, 3, 74, 0
5, 72268, Note_on_c, 3, 74, 105
5, 72275, Note_on_c, 3, 76, 0
5, 72300, Note_on_c, 3, 76, 105
5, 72308, Note_on_c, 3, 74, 0
5, 72328, Note_on_c, 3, 74, 105
5, 72335, Note_on_c, 3, 76, 0
5, 72360, Note_on_c, 3, 72, 105
5, 72368, Note_on_c, 3, 74, 0
5, 72420, Note_on_c, 3, 74, 105
5, 72435, Note_on_c, 3, 72, 0
5, 72480, Note_on_c, 3, 74, 0
5, 72480, Note_on_c, 3, 72, 105
5, 72960, Note_on_c, 3, 72, 0
5, 76800, Note_on_c, 3, 84, 91
5, 78240, Note_on_c, 3, 83, 95
5, 78284, Note_on_c, 3, 84, 0
5, 79680, Note_on_c, 3, 83, 0
5, 79680, Note_on_c, 3, 82, 99
5, 81120, Note_on_c, 3, 81, 103
5, 81174, Note_on_c, 3, 82, 0
5, 82560, Note_on_c, 3, 81, 0
5, 82560, Note_on_c, 3, 82, 105
5, 83040, Note_on_c, 3, 82, 0
5, 83040, Note_on_c, 3, 84, 107
5, 83100, Note_on_c, 3, 82, 107
5, 83120, Note_on_c, 3, 84, 0
5, 83160, Note_on_c, 3, 84, 107
5, 83180, Note_on_c, 3, 82, 0
5, 83220, Note_on_c, 3, 82, 110
5, 83240, Note_on_c, 3, 84, 0
5, 83280, Note_on_c, 3, 84, 112
5, 83300, Note_on_c, 3, 82, 0
5, 83308, Note_on_c, 3, 82, 114
5, 83318, Note_on_c, 3, 84, 0
5, 83340, Note_on_c, 3, 84, 115
5, 83351, Note_on_c, 3, 82, 0
5, 83368, Note_on_c, 3, 82, 115
5, 83378, Note_on_c, 3, 84, 0
5, 83400, Note_on_c, 3, 84, 115
5, 83411, Note_on_c, 3, 82, 0
5, 83428, Note_on_c, 3, 82, 115
5, 83438, Note_on_c, 3, 84, 0
5, 83460, Note_on_c, 3, 84, 115
5, 83471, Note_on_c, 3, 82, 0
5, 83488, Note_on_c, 3, 82, 115
5, 83498, Note_on_c, 3, 84, 0
5, 83520, Note_on_c, 3, 84, 115
5, 83531, Note_on_c, 3, 82, 0
5, 83548, Note_on_c, 3, 82, 117
5, 83558, Note_on_c, 3, 84, 0
5, 83580, Note_on_c, 3, 84, 117
5, 83591, Note_on_c, 3, 82, 0
5, 83608, Note_on_c, 3, 82, 117
5, 83618, Note_on_c, 3, 84, 0
5, 83640, Note_on_c, 3, 84, 117
5, 83651, Note_on_c, 3, 82, 0
5, 83668, Note_on_c, 3, 82, 117
5, 83678, Note_on_c, 3, 84, 0
5, 83700, Note_on_c, 3, 84, 117
5, 83711, Note_on_c, 3, 82, 0
5, 83728, Note_on_c, 3, 82, 117
5, 83738, Note_on_c, 3, 84, 0
5, 83760, Note_on_c, 3, 84, 115
5, 83771, Note_on_c, 3, 82, 0
5, 83788, Note_on_c, 3, 82, 115
5, 83798, Note_on_c, 3, 84, 0
5, 83820, Note_on_c, 3, 84, 114
5, 83831, Note_on_c, 3, 82, 0
5, 83848, Note_on_c, 3, 82, 114
5, 83858, Note_on_c, 3, 84, 0
5, 83880, Note_on_c, 3, 81, 113
5, 83891, Note_on_c, 3, 82, 0
5, 83940, Note_on_c, 3, 82, 110
5, 83960, Note_on_c, 3, 81, 0
5, 84000, Note_on_c, 3, 81, 107
5, 84020, Note_on_c, 3, 82, 0
5, 84240, Note_on_c, 3, 81, 0
5, 84480, Note_on_c, 3, 81, 92
5, 84720, Note_on_c, 3, 81, 0
5, 84960, Note_on_c, 3, 81, 93
5, 85200, Note_on_c, 3, 81, 0
5, 85440, Note_on_c, 3, 79, 105
5, 86280, Note_on_c, 3, 76, 105
5, 86309, Note_on_c, 3, 79, 0
5, 86379, Note_on_c, 3, 76, 0
5, 86400, Note_on_c, 3, 77, 105
5, 86640, Note_on_c, 3, 77, 0
5, 86880, Note_on_c, 3, 77, 84
5, 88320, Note_on_c, 3, 77, 0
5, 88320, Note_on_c, 3, 82, 97
5, 89160, Note_on_c, 3, 84, 89
5, 89189, Note_on_c, 3, 82, 0
5, 89220, Note_on_c, 3, 86, 96
5, 89249, Note_on_c, 3, 84, 0
5, 89280, Note_on_c, 3, 84, 99
5, 89309, Note_on_c, 3, 86, 0
5, 89520, Note_on_c, 3, 84, 0
5, 89700, Note_on_c, 3, 69, 105
5, 89760, Note_on_c, 3, 81, 105
5, 89799, Note_on_c, 3, 69, 0
5, 90449, Note_on_c, 3, 81, 0
5, 90480, Note_on_c, 3, 82, 105
5, 90600, Note_on_c, 3, 84, 105
5, 90626, Note_on_c, 3, 82, 0
5, 90720, Note_on_c, 3, 88, 105
5, 90746, Note_on_c, 3, 84, 0
5, 90840, Note_on_c, 3, 86, 105
5, 90866, Note_on_c, 3, 88, 0
5, 90960, Note_on_c, 3, 84, 105
5, 90986, Note_on_c, 3, 86, 0
5, 91080, Note_on_c, 3, 82, 105
5, 91106, Note_on_c, 3, 84, 0
5, 91164, Note_on_c, 3, 82, 0
5, 91200, Note_on_c, 3, 81, 105
5, 91440, Note_on_c, 3, 79, 105
5, 91499, Note_on_c, 3, 81, 0
5, 91920, Note_on_c, 3, 81, 105
5, 91949, Note_on_c, 3, 79, 0
5, 92040, Note_on_c, 3, 82, 105
5, 92066, Note_on_c, 3, 81, 0
5, 92160, Note_on_c, 3, 86, 105
5, 92186, Note_on_c, 3, 82, 0
5, 92280, Note_on_c, 3, 84, 105
5, 92306, Note_on_c, 3, 86, 0
5, 92400, Note_on_c, 3, 82, 105
5, 92426, Note_on_c, 3, 84, 0
5, 92520, Note_on_c, 3, 81, 105
5, 92546, Note_on_c, 3, 82, 0
5, 92604, Note_on_c, 3, 81, 0
5, 92640, Note_on_c, 3, 79, 105
5, 92880, Note_on_c, 3, 77, 105
5, 92924, Note_on_c, 3, 79, 0
5, 93309, Note_on_c, 3, 77, 0
5, 93360, Note_on_c, 3, 79, 105
5, 93480, Note_on_c, 3, 81, 105
5, 93506, Note_on_c, 3, 79, 0
5, 93600, Note_on_c, 3, 82, 105
5, 93626, Note_on_c, 3, 81, 0
5, 93720, Note_on_c, 3, 84, 105
5, 93746, Note_on_c, 3, 82, 0
5, 93840, Note_on_c, 3, 86, 105
5, 93866, Note_on_c, 3, 84, 0
5, 93960, Note_on_c, 3, 82, 105
5, 93986, Note_on_c, 3, 86, 0
5, 94054, Note_on_c, 3, 82, 0
5, 94080, Note_on_c, 3, 81, 105
5, 94560, Note_on_c, 3, 79, 105
5, 94594, Note_on_c, 3, 81, 0
5, 95040, Note_on_c, 3, 79, 0
5, 95520, Note_on_c, 3, 79, 105
5, 96240, Note_on_c, 3, 81, 105
5, 96274, Note_on_c, 3, 79, 0
5, 96360, Note_on_c, 3, 79, 105
5, 96384, Note_on_c, 3, 81, 0
5, 96449, Note_on_c, 3, 79, 0
5, 96480, Note_on_c, 3, 84, 105
5, 96600, Note_on_c, 3, 83, 105
5, 96626, Note_on_c, 3, 84, 0
5, 96720, Note_on_c, 3, 81, 105
5, 96746, Note_on_c, 3, 83, 0
5, 96840, Note_on_c, 3, 79, 105
5, 96866, Note_on_c, 3, 81, 0
5, 96934, Note_on_c, 3, 79, 0
5, 96960, Note_on_c, 3, 79, 105
5, 97320, Note_on_c, 3, 81, 105
5, 97349, Note_on_c, 3, 79, 0
5, 97419, Note_on_c, 3, 81, 0
5, 97440, Note_on_c, 3, 79, 105
5, 97920, Note_on_c, 3, 79, 0
5, 98340, Note_on_c, 3, 74, 105
5, 98400, Note_on_c, 3, 86, 105
5, 98429, Note_on_c, 3, 74, 0
5, 98880, Note_on_c, 3, 86, 0
5, 98880, Note_on_c, 3, 84, 105
5, 99000, Note_on_c, 3, 83, 105
5, 99026, Note_on_c, 3, 84, 0
5, 99120, Note_on_c, 3, 81, 105
5, 99146, Note_on_c, 3, 83, 0
5, 99240, Note_on_c, 3, 79, 105
5, 99266, Note_on_c, 3, 81, 0
5, 99324, Note_on_c, 3, 79, 0
5, 99360, Note_on_c, 3, 79, 105
5, 99499, Note_on_c, 3, 79, 0
5, 99600, Note_on_c, 3, 79, 105
5, 99709, Note_on_c, 3, 79, 0
5, 99840, Note_on_c, 3, 79, 105
5, 100200, Note_on_c, 3, 76, 105
5, 100244, Note_on_c, 3, 79, 0
5, 100299, Note_on_c, 3, 76, 0
5, 100320, Note_on_c, 3, 79, 105
5, 100800, Note_on_c, 3, 79, 0
5, 103200, Note_on_c, 3, 84, 105
5, 103560, Note_on_c, 3, 86, 105
5, 103604, Note_on_c, 3, 84, 0
5, 103659, Note_on_c, 3, 86, 0
5, 103680, Note_on_c, 3, 84, 105
5, 104160, Note_on_c, 3, 84, 0
5, 106080, Note_on_c, 3, 84, 105
5, 106440, Note_on_c, 3, 81, 105
5, 106469, Note_on_c, 3, 84, 0
5, 106534, Note_on_c, 3, 81, 0
5, 106560, Note_on_c, 3, 84, 105
5, 106684, Note_on_c, 3, 84, 0
5, 106800, Note_on_c, 3, 84, 105
5, 106919, Note_on_c, 3, 84, 0
5, 107040, Note_on_c, 3, 84, 105
5, 107160, Note_on_c, 3, 83, 105
5, 107209, Note_on_c, 3, 84, 0
5, 107244, Note_on_c, 3, 83, 0
5, 107280, Note_on_c, 3, 83, 105
5, 107640, Note_on_c, 3, 84, 105
5, 107674, Note_on_c, 3, 83, 0
5, 107760, Note_on_c, 3, 86, 105
5, 107786, Note_on_c, 3, 84, 0
5, 107880, Note_on_c, 3, 84, 105
5, 107906, Note_on_c, 3, 86, 0
5, 108000, Note_on_c, 3, 83, 105
5, 108026, Note_on_c, 3, 84, 0
5, 108120, Note_on_c, 3, 81, 105
5, 108146, Note_on_c, 3, 83, 0
5, 108240, Note_on_c, 3, 79, 105
5, 108266, Note_on_c, 3, 81, 0
5, 108360, Note_on_c, 3, 77, 105
5, 108386, Note_on_c, 3, 79, 0
5, 108439, Note_on_c, 3, 77, 0
5, 108480, Note_on_c, 3, 77, 105
5, 108600, Note_on_c, 3, 76, 105
5, 108634, Note_on_c, 3, 77, 0
5, 108720, Note_on_c, 3, 81, 105
5, 108749, Note_on_c, 3, 76, 0
5, 108840, Note_on_c, 3, 81, 0
5, 108840, Note_on_c, 3, 79, 105
5, 108914, Note_on_c, 3, 79, 0
5, 108960, Note_on_c, 3, 79, 105
5, 109364, Note_on_c, 3, 79, 0
5, 109440, Note_on_c, 3, 89, 105
5, 109560, Note_on_c, 3, 86, 105
5, 109586, Note_on_c, 3, 89, 0
5, 109680, Note_on_c, 3, 84, 105
5, 109706, Note_on_c, 3, 86, 0
5, 109800, Note_on_c, 3, 83, 105
5, 109826, Note_on_c, 3, 84, 0
5, 109920, Note_on_c, 3, 83, 0
5, 109920, Note_on_c, 3, 86, 102
5, 109980, Note_on_c, 3, 84, 107
5, 109993, Note_on_c, 3, 86, 0
5, 110040, Note_on_c, 3, 86, 108
5, 110053, Note_on_c, 3, 84, 0
5, 110068, Note_on_c, 3, 84, 109
5, 110074, Note_on_c, 3, 86, 0
5, 110100, Note_on_c, 3, 86, 106
5, 110107, Note_on_c, 3, 84, 0
5, 110128, Note_on_c, 3, 84, 105
5, 110134, Note_on_c, 3, 86, 0
5, 110160, Note_on_c, 3, 86, 101
5, 110167, Note_on_c, 3, 84, 0
5, 110188, Note_on_c, 3, 84, 99
5, 110194, Note_on_c, 3, 86, 0
5, 110220, Note_on_c, 3, 86, 96
5, 110227, Note_on_c, 3, 84, 0
5, 110248, Note_on_c, 3, 84, 93
5, 110254, Note_on_c, 3, 86, 0
5, 110280, Note_on_c, 3, 83, 93
5, 110287, Note_on_c, 3, 84, 0
5, 110340, Note_on_c, 3, 84, 95
5, 110353, Note_on_c, 3, 83, 0
5, 110400, Note_on_c, 3, 72, 100
5, 110413, Note_on_c, 3, 84, 0
5, 110880, Note_on_c, 3, 72, 0
5, 116160, Note_on_c, 3, 70, 105
5, 116760, Note_on_c, 3, 70, 0
5, 116760, Note_on_c, 3, 76, 105
5, 116880, Note_on_c, 3, 79, 105
5, 116906, Note_on_c, 3, 76, 0
5, 117000, Note_on_c, 3, 82, 105
5, 117026, Note_on_c, 3, 79, 0
5, 117084, Note_on_c, 3, 82, 0
5, 117120, Note_on_c, 3, 81, 105
5, 117554, Note_on_c, 3, 81, 0
5, 117600, Note_on_c, 3, 82, 105
5, 117660, Note_on_c, 3, 81, 105
5, 117673, Note_on_c, 3, 82, 0
5, 117720, Note_on_c, 3, 82, 105
5, 117733, Note_on_c, 3, 81, 0
5, 117748, Note_on_c, 3, 81, 105
5, 117754, Note_on_c, 3, 82, 0
5, 117780, Note_on_c, 3, 82, 105
5, 117787, Note_on_c, 3, 81, 0
5, 117808, Note_on_c, 3, 81, 105
5, 117814, Note_on_c, 3, 82, 0
5, 117840, Note_on_c, 3, 82, 105
5, 117847, Note_on_c, 3, 81, 0
5, 117868, Note_on_c, 3, 81, 105
5, 117874, Note_on_c, 3, 82, 0
5, 117900, Note_on_c, 3, 82, 105
5, 117907, Note_on_c, 3, 81, 0
5, 117928, Note_on_c, 3, 81, 105
5, 117934, Note_on_c, 3, 82, 0
5, 117960, Note_on_c, 3, 79, 105
5, 117967, Note_on_c, 3, 81, 0
5, 118020, Note_on_c, 3, 81, 105
5, 118033, Note_on_c, 3, 79, 0
5, 118080, Note_on_c, 3, 84, 105
5, 118093, Note_on_c, 3, 81, 0
5, 118140, Note_on_c, 3, 82, 105
5, 118153, Note_on_c, 3, 84, 0
5, 118200, Note_on_c, 3, 84, 105
5, 118213, Note_on_c, 3, 82, 0
5, 118228, Note_on_c, 3, 82, 105
5, 118234, Note_on_c, 3, 84, 0
5, 118260, Note_on_c, 3, 84, 105
5, 118267, Note_on_c, 3, 82, 0
5, 118288, Note_on_c, 3, 82, 105
5, 118294, Note_on_c, 3, 84, 0
5, 118320, Note_on_c, 3, 84, 105
5, 118327, Note_on_c, 3, 82, 0
5, 118348, Note_on_c, 3, 82, 105
5, 118354, Note_on_c, 3, 84, 0
5, 118380, Note_on_c, 3, 84, 105
5, 118387, Note_on_c, 3, 82, 0
5, 118408, Note_on_c, 3, 82, 105
5, 118414, Note_on_c, 3, 84, 0
5, 118440, Note_on_c, 3, 81, 105
5, 118447, Note_on_c, 3, 82, 0
5, 118500, Note_on_c, 3, 82, 105
5, 118513, Note_on_c, 3, 81, 0
5, 118560, Note_on_c, 3, 84, 105
5, 118573, Note_on_c, 3, 82, 0
5, 118920, Note_on_c, 3, 81, 105
5, 118959, Note_on_c, 3, 84, 0
5, 119004, Note_on_c, 3, 81, 0
5, 119040, Note_on_c, 3, 89, 105
5, 119760, Note_on_c, 3, 89, 0
5, 119760, Note_on_c, 3, 84, 105
5, 119944, Note_on_c, 3, 84, 0
5, 120000, Note_on_c, 3, 84, 105
5, 120120, Note_on_c, 3, 82, 105
5, 120154, Note_on_c, 3, 84, 0
5, 120204, Note_on_c, 3, 82, 0
5, 120240, Note_on_c, 3, 86, 105
5, 120284, Note_on_c, 3, 86, 0
5, 120360, Note_on_c, 3, 82, 105
5, 120404, Note_on_c, 3, 82, 0
5, 120480, Note_on_c, 3, 82, 105
5, 120600, Note_on_c, 3, 81, 105
5, 120639, Note_on_c, 3, 82, 0
5, 120694, Note_on_c, 3, 81, 0
5, 120720, Note_on_c, 3, 84, 105
5, 120764, Note_on_c, 3, 84, 0
5, 120840, Note_on_c, 3, 81, 105
5, 120884, Note_on_c, 3, 81, 0
5, 120960, Note_on_c, 3, 81, 105
5, 121080, Note_on_c, 3, 79, 105
5, 121124, Note_on_c, 3, 81, 0
5, 121164, Note_on_c, 3, 79, 0
5, 121200, Note_on_c, 3, 82, 105
5, 121244, Note_on_c, 3, 82, 0
5, 121320, Note_on_c, 3, 79, 105
5, 121364, Note_on_c, 3, 79, 0
5, 121440, Note_on_c, 3, 77, 105
5, 121920, Note_on_c, 3, 77, 0
5, 126240, Note_on_c, 3, 82, 105
5, 126840, Note_on_c, 3, 82, 0
5, 126840, Note_on_c, 3, 79, 105
5, 126960, Note_on_c, 3, 76, 105
5, 126986, Note_on_c, 3, 79, 0
5, 127080, Note_on_c, 3, 70, 105
5, 127106, Note_on_c, 3, 76, 0
5, 127169, Note_on_c, 3, 70, 0
5, 127200, Note_on_c, 3, 69, 105
5, 127760, Note_on_c, 3, 69, 0
5, 127760, Note_on_c, 3, 72, 105
5, 127836, Note_on_c, 3, 70, 105
5, 127853, Note_on_c, 3, 72, 0
5, 127920, Note_on_c, 3, 69, 105
5, 127938, Note_on_c, 3, 70, 0
5, 128000, Note_on_c, 3, 70, 105
5, 128018, Note_on_c, 3, 69, 0
5, 128076, Note_on_c, 3, 72, 105
5, 128093, Note_on_c, 3, 70, 0
5, 128160, Note_on_c, 3, 70, 105
5, 128178, Note_on_c, 3, 72, 0
5, 128204, Note_on_c, 3, 70, 0
5, 128240, Note_on_c, 3, 74, 105
5, 128316, Note_on_c, 3, 72, 105
5, 128333, Note_on_c, 3, 74, 0
5, 128400, Note_on_c, 3, 70, 105
5, 128418, Note_on_c, 3, 72, 0
5, 128480, Note_on_c, 3, 72, 105
5, 128498, Note_on_c, 3, 70, 0
5, 128556, Note_on_c, 3, 74, 105
5, 128573, Note_on_c, 3, 72, 0
5, 128620, Note_on_c, 3, 74, 0
5, 128640, Note_on_c, 3, 72, 105
5, 129120, Note_on_c, 3, 72, 0
5, 130020, Note_on_c, 3, 69, 105
5, 130080, Note_on_c, 3, 81, 105
5, 130119, Note_on_c, 3, 69, 0
5, 130544, Note_on_c, 3, 81, 0
5, 130560, Note_on_c, 3, 81, 105
5, 130659, Note_on_c, 3, 81, 0
5, 130680, Note_on_c, 3, 81, 105
5, 130779, Note_on_c, 3, 81, 0
5, 130800, Note_on_c, 3, 82, 105
5, 130860, Note_on_c, 3, 82, 0
5, 130860, Note_on_c, 3, 81, 105
5, 130920, Note_on_c, 3, 81, 0
5, 130920, Note_on_c, 3, 79, 105
5, 130980, Note_on_c, 3, 79, 0
5, 130980, Note_on_c, 3, 81, 105
5, 131040, Note_on_c, 3, 81, 0
5, 131040, Note_on_c, 3, 82, 105
5, 131134, Note_on_c, 3, 82, 0
5, 131160, Note_on_c, 3, 82, 105
5, 131269, Note_on_c, 3, 82, 0
5, 131280, Note_on_c, 3, 84, 105
5, 131340, Note_on_c, 3, 84, 0
5, 131340, Note_on_c, 3, 82, 105
5, 131400, Note_on_c, 3, 82, 0
5, 131400, Note_on_c, 3, 81, 105
5, 131460, Note_on_c, 3, 81, 0
5, 131460, Note_on_c, 3, 82, 105
5, 131520, Note_on_c, 3, 82, 0
5, 131520, Note_on_c, 3, 84, 105
5, 131880, Note_on_c, 3, 81, 105
5, 131914, Note_on_c, 3, 84, 0
5, 131969, Note_on_c, 3, 81, 0
5, 132000, Note_on_c, 3, 77, 105
5, 132480, Note_on_c, 3, 77, 0
5, 132900, Note_on_c, 3, 77, 105
5, 132960, Note_on_c, 3, 89, 105
5, 132989, Note_on_c, 3, 77, 0
5, 133200, Note_on_c, 3, 88, 105
5, 133259, Note_on_c, 3, 89, 0
5, 133440, Note_on_c, 3, 86, 105
5, 133489, Note_on_c, 3, 88, 0
5, 133680, Note_on_c, 3, 84, 105
5, 133729, Note_on_c, 3, 86, 0
5, 133920, Note_on_c, 3, 82, 105
5, 133954, Note_on_c, 3, 84, 0
5, 134160, Note_on_c, 3, 81, 105
5, 134209, Note_on_c, 3, 82, 0
5, 134374, Note_on_c, 3, 81, 0
5, 134400, Note_on_c, 3, 78, 105
5, 134520, Note_on_c, 3, 79, 105
5, 134559, Note_on_c, 3, 78, 0
5, 134619, Note_on_c, 3, 79, 0
5, 134760, Note_on_c, 3, 79, 105
5, 134804, Note_on_c, 3, 79, 0
5, 134880, Note_on_c, 3, 81, 105
5, 135000, Note_on_c, 3, 82, 105
5, 135029, Note_on_c, 3, 81, 0
5, 135094, Note_on_c, 3, 82, 0
5, 135240, Note_on_c, 3, 82, 105
5, 135284, Note_on_c, 3, 82, 0
5, 135360, Note_on_c, 3, 85, 105
5, 135480, Note_on_c, 3, 86, 105
5, 135514, Note_on_c, 3, 85, 0
5, 135579, Note_on_c, 3, 86, 0
5, 135720, Note_on_c, 3, 86, 105
5, 135764, Note_on_c, 3, 86, 0
5, 135840, Note_on_c, 3, 84, 105
5, 136020, Note_on_c, 3, 81, 105
5, 136044, Note_on_c, 3, 84, 0
5, 136059, Note_on_c, 3, 81, 0
5, 136080, Note_on_c, 3, 86, 105
5, 136140, Note_on_c, 3, 82, 105
5, 136160, Note_on_c, 3, 86, 0
5, 136200, Note_on_c, 3, 86, 105
5, 136220, Note_on_c, 3, 82, 0
5, 136260, Note_on_c, 3, 82, 105
5, 136280, Note_on_c, 3, 86, 0
5, 136320, Note_on_c, 3, 82, 0
5, 136320, Note_on_c, 3, 81, 105
5, 136800, Note_on_c, 3, 81, 0
5, 136800, Note_on_c, 3, 81, 105
5, 136860, Note_on_c, 3, 79, 105
5, 136880, Note_on_c, 3, 81, 0
5, 136920, Note_on_c, 3, 81, 105
5, 136940, Note_on_c, 3, 79, 0
5, 136948, Note_on_c, 3, 79, 105
5, 136957, Note_on_c, 3, 81, 0
5, 136980, Note_on_c, 3, 81, 105
5, 136991, Note_on_c, 3, 79, 0
5, 137008, Note_on_c, 3, 79, 105
5, 137017, Note_on_c, 3, 81, 0
5, 137040, Note_on_c, 3, 81, 105
5, 137051, Note_on_c, 3, 79, 0
5, 137068, Note_on_c, 3, 79, 105
5, 137077, Note_on_c, 3, 81, 0
5, 137100, Note_on_c, 3, 81, 105
5, 137111, Note_on_c, 3, 79, 0
5, 137128, Note_on_c, 3, 79, 105
5, 137137, Note_on_c, 3, 81, 0
5, 137160, Note_on_c, 3, 77, 105
5, 137171, Note_on_c, 3, 79, 0
5, 137220, Note_on_c, 3, 79, 105
5, 137240, Note_on_c, 3, 77, 0
5, 137280, Note_on_c, 3, 77, 105
5, 137300, Note_on_c, 3, 79, 0
5, 137760, Note_on_c, 3, 77, 0
5, 140160, Note_on_c, 3, 77, 105
5, 141120, Note_on_c, 3, 86, 105
5, 141154, Note_on_c, 3, 77, 0
5, 141559, Note_on_c, 3, 86, 0
5, 141600, Note_on_c, 3, 60, 105
5, 142080, Note_on_c, 3, 60, 0
5, 142080, Note_on_c, 3, 89, 105
5, 142320, Note_on_c, 3, 89, 0
5, 142320, Note_on_c, 3, 84, 105
5, 142560, Note_on_c, 3, 84, 0
5, 142560, Note_on_c, 3, 81, 105
5, 142800, Note_on_c, 3, 81, 0
5, 142800, Note_on_c, 3, 77, 105
5, 142969, Note_on_c, 3, 77, 0
5, 143040, Note_on_c, 3, 81, 87
5, 143160, Note_on_c, 3, 79, 99
5, 143200, Note_on_c, 3, 81, 0
5, 143280, Note_on_c, 3, 81, 105
5, 143320, Note_on_c, 3, 79, 0
5, 143340, Note_on_c, 3, 79, 105
5, 143360, Note_on_c, 3, 81, 0
5, 143400, Note_on_c, 3, 81, 101
5, 143420, Note_on_c, 3, 79, 0
5, 143460, Note_on_c, 3, 79, 99
5, 143480, Note_on_c, 3, 81, 0
5, 143520, Note_on_c, 3, 81, 104
5, 143540, Note_on_c, 3, 79, 0
5, 143548, Note_on_c, 3, 79, 105
5, 143557, Note_on_c, 3, 81, 0
5, 143580, Note_on_c, 3, 81, 107
5, 143591, Note_on_c, 3, 79, 0
5, 143608, Note_on_c, 3, 79, 107
5, 143617, Note_on_c, 3, 81, 0
5, 143640, Note_on_c, 3, 81, 107
5, 143651, Note_on_c, 3, 79, 0
5, 143668, Note_on_c, 3, 79, 109
5, 143677, Note_on_c, 3, 81, 0
5, 143700, Note_on_c, 3, 81, 108
5, 143711, Note_on_c, 3, 79, 0
5, 143728, Note_on_c, 3, 79, 106
5, 143737, Note_on_c, 3, 81, 0
5, 143760, Note_on_c, 3, 81, 106
5, 143771, Note_on_c, 3, 79, 0
5, 143788, Note_on_c, 3, 79, 103
5, 143797, Note_on_c, 3, 81, 0
5, 143820, Note_on_c, 3, 81, 101
5, 143831, Note_on_c, 3, 79, 0
5, 143848, Note_on_c, 3, 79, 99
5, 143857, Note_on_c, 3, 81, 0
5, 143880, Note_on_c, 3, 81, 98
5, 143891, Note_on_c, 3, 79, 0
5, 143908, Note_on_c, 3, 79, 96
5, 143917, Note_on_c, 3, 81, 0
5, 143940, Note_on_c, 3, 81, 94
5, 143951, Note_on_c, 3, 79, 0
5, 143968, Note_on_c, 3, 79, 93
5, 143977, Note_on_c, 3, 81, 0
5, 144000, Note_on_c, 3, 81, 93
5, 144011, Note_on_c, 3, 79, 0
5, 144028, Note_on_c, 3, 79, 91
5, 144037, Note_on_c, 3, 81, 0
5, 144060, Note_on_c, 3, 81, 89
5, 144071, Note_on_c, 3, 79, 0
5, 144088, Note_on_c, 3, 79, 89
5, 144097, Note_on_c, 3, 81, 0
5, 144120, Note_on_c, 3, 81, 88
5, 144131, Note_on_c, 3, 79, 0
5, 144148, Note_on_c, 3, 79, 88
5, 144157, Note_on_c, 3, 81, 0
5, 144180, Note_on_c, 3, 81, 88
5, 144191, Note_on_c, 3, 79, 0
5, 144208, Note_on_c, 3, 79, 86
5, 144217, Note_on_c, 3, 81, 0
5, 144240, Note_on_c, 3, 81, 86
5, 144251, Note_on_c, 3, 79, 0
5, 144268, Note_on_c, 3, 79, 87
5, 144277, Note_on_c, 3, 81, 0
5, 144300, Note_on_c, 3, 81, 87
5, 144311, Note_on_c, 3, 79, 0
5, 144328, Note_on_c, 3, 79, 88
5, 144337, Note_on_c, 3, 81, 0
5, 144360, Note_on_c, 3, 77, 88
5, 144371, Note_on_c, 3, 79, 0
5, 144420, Note_on_c, 3, 79, 93
5, 144440, Note_on_c, 3, 77, 0
5, 144480, Note_on_c, 3, 77, 102
5, 144500, Note_on_c, 3, 79, 0
5, 144960, Note_on_c, 3, 77, 0
5, 147840, Note_on_c, 3, 77, 105
5, 148320, Note_on_c, 3, 77, 0
5, 148320, Note_on_c, 3, 89, 105
5, 148800, Note_on_c, 3, 89, 0
5, 148800, Note_on_c, 3, 84, 105
5, 149504, Note_on_c, 3, 84, 0
5, 149640, Note_on_c, 3, 77, 105
5, 149700, Note_on_c, 3, 81, 105
5, 149720, Note_on_c, 3, 77, 0
5, 149760, Note_on_c, 3, 79, 105
5, 149780, Note_on_c, 3, 81, 0
5, 149820, Note_on_c, 3, 81, 105
5, 149840, Note_on_c, 3, 79, 0
5, 149848, Note_on_c, 3, 79, 105
5, 149857, Note_on_c, 3, 81, 0
5, 149880, Note_on_c, 3, 81, 105
5, 149891, Note_on_c, 3, 79, 0
5, 149908, Note_on_c, 3, 79, 105
5, 149917, Note_on_c, 3, 81, 0
5, 149940, Note_on_c, 3, 81, 105
5, 149951, Note_on_c, 3, 79, 0
5, 149968, Note_on_c, 3, 79, 105
5, 149977, Note_on_c, 3, 81, 0
5, 150000, Note_on_c, 3, 81, 105
5, 150011, Note_on_c, 3, 79, 0
5, 150028, Note_on_c, 3, 79, 105
5, 150037, Note_on_c, 3, 81, 0
5, 150060, Note_on_c, 3, 81, 105
5, 150071, Note_on_c, 3, 79, 0
5, 150088, Note_on_c, 3, 79, 105
5, 150097, Note_on_c, 3, 81, 0
5, 150120, Note_on_c, 3, 77, 105
5, 150131, Note_on_c, 3, 79, 0
5, 150180, Note_on_c, 3, 79, 105
5, 150200, Note_on_c, 3, 77, 0
5, 150240, Note_on_c, 3, 77, 105
5, 150260, Note_on_c, 3, 79, 0
5, 150720, Note_on_c, 3, 77, 0
5, 151680, Note_on_c, 3, 79, 105
5, 152520, Note_on_c, 3, 76, 105
5, 152549, Note_on_c, 3, 79, 0
5, 152640, Note_on_c, 3, 77, 105
5, 152669, Note_on_c, 3, 76, 0
5, 152880, Note_on_c, 3, 77, 0
5, 154440, Note_on_c, 3, 77, 91
5, 154560, Note_on_c, 3, 77, 0
5, 154560, Note_on_c, 3, 82, 96
5, 155400, Note_on_c, 3, 84, 92
5, 155414, Note_on_c, 3, 82, 0
5, 155460, Note_on_c, 3, 86, 94
5, 155484, Note_on_c, 3, 84, 0
5, 155520, Note_on_c, 3, 84, 94
5, 155544, Note_on_c, 3, 86, 0
5, 155760, Note_on_c, 3, 84, 0
5, 156000, Note_on_c, 3, 81, 105
5, 156720, Note_on_c, 3, 82, 105
5, 156754, Note_on_c, 3, 81, 0
5, 156840, Note_on_c, 3, 84, 105
5, 156880, Note_on_c, 3, 82, 0
5, 156960, Note_on_c, 3, 88, 105
5, 157000, Note_on_c, 3, 84, 0
5, 157080, Note_on_c, 3, 86, 105
5, 157120, Note_on_c, 3, 88, 0
5, 157200, Note_on_c, 3, 84, 105
5, 157240, Note_on_c, 3, 86, 0
5, 157320, Note_on_c, 3, 82, 105
5, 157360, Note_on_c, 3, 84, 0
5, 157399, Note_on_c, 3, 82, 0
5, 157440, Note_on_c, 3, 81, 105
5, 157680, Note_on_c, 3, 79, 105
5, 157714, Note_on_c, 3, 81, 0
5, 158019, Note_on_c, 3, 79, 0
5, 158160, Note_on_c, 3, 81, 105
5, 158280, Note_on_c, 3, 82, 105
5, 158309, Note_on_c, 3, 81, 0
5, 158369, Note_on_c, 3, 82, 0
5, 158400, Note_on_c, 3, 86, 105
5, 158520, Note_on_c, 3, 84, 105
5, 158560, Note_on_c, 3, 86, 0
5, 158640, Note_on_c, 3, 82, 105
5, 158680, Note_on_c, 3, 84, 0
5, 158760, Note_on_c, 3, 81, 105
5, 158800, Note_on_c, 3, 82, 0
5, 158839, Note_on_c, 3, 81, 0
5, 158880, Note_on_c, 3, 79, 105
5, 159120, Note_on_c, 3, 77, 105
5, 159149, Note_on_c, 3, 79, 0
5, 159429, Note_on_c, 3, 77, 0
5, 159600, Note_on_c, 3, 79, 105
5, 159720, Note_on_c, 3, 81, 105
5, 159749, Note_on_c, 3, 79, 0
5, 159819, Note_on_c, 3, 81, 0
5, 159840, Note_on_c, 3, 82, 105
5, 159960, Note_on_c, 3, 84, 105
5, 160000, Note_on_c, 3, 82, 0
5, 160080, Note_on_c, 3, 86, 105
5, 160120, Note_on_c, 3, 84, 0
5, 160200, Note_on_c, 3, 82, 105
5, 160240, Note_on_c, 3, 86, 0
5, 160284, Note_on_c, 3, 82, 0
5, 160320, Note_on_c, 3, 81, 105
5, 160680, Note_on_c, 3, 79, 105
5, 160709, Note_on_c, 3, 81, 0
5, 160764, Note_on_c, 3, 79, 0
5, 160800, Note_on_c, 3, 79, 105
5, 161520, Note_on_c, 3, 81, 98
5, 161554, Note_on_c, 3, 79, 0
5, 161714, Note_on_c, 3, 81, 0
5, 161760, Note_on_c, 3, 82, 93
5, 162120, Note_on_c, 3, 84, 95
5, 162149, Note_on_c, 3, 82, 0
5, 162180, Note_on_c, 3, 86, 95
5, 162209, Note_on_c, 3, 84, 0
5, 162240, Note_on_c, 3, 86, 0
5, 162240, Note_on_c, 3, 77, 94
5, 162720, Note_on_c, 3, 81, 92
5, 162754, Note_on_c, 3, 77, 0
5, 162960, Note_on_c, 3, 79, 88
5, 163009, Note_on_c, 3, 81, 0
5, 163200, Note_on_c, 3, 79, 0
5, 163200, Note_on_c, 3, 77, 87
5, 163384, Note_on_c, 3, 77, 0
5, 163440, Note_on_c, 3, 89, 106
5, 163560, Note_on_c, 3, 88, 90
5, 163609, Note_on_c, 3, 89, 0
5, 163639, Note_on_c, 3, 88, 0
5, 163680, Note_on_c, 3, 88, 107
5, 163800, Note_on_c, 3, 86, 92
5, 163844, Note_on_c, 3, 88, 0
5, 163874, Note_on_c, 3, 86, 0
5, 163920, Note_on_c, 3, 86, 108
5, 164040, Note_on_c, 3, 84, 89
5, 164074, Note_on_c, 3, 86, 0
5, 164134, Note_on_c, 3, 84, 0
5, 164160, Note_on_c, 3, 84, 106
5, 164280, Note_on_c, 3, 83, 97
5, 164319, Note_on_c, 3, 84, 0
5, 164400, Note_on_c, 3, 86, 93
5, 164419, Note_on_c, 3, 83, 0
5, 164520, Note_on_c, 3, 84, 92
5, 164544, Note_on_c, 3, 86, 0
5, 164609, Note_on_c, 3, 84, 0
5, 164640, Note_on_c, 3, 82, 90
5, 165000, Note_on_c, 3, 84, 94
5, 165029, Note_on_c, 3, 82, 0
5, 165060, Note_on_c, 3, 86, 93
5, 165084, Note_on_c, 3, 84, 0
5, 165114, Note_on_c, 3, 86, 0
5, 165120, Note_on_c, 3, 77, 92
5, 165600, Note_on_c, 3, 81, 89
5, 165629, Note_on_c, 3, 77, 0
5, 165840, Note_on_c, 3, 79, 89
5, 165869, Note_on_c, 3, 81, 0
5, 166049, Note_on_c, 3, 79, 0
5, 166080, Note_on_c, 3, 77, 91
5, 166320, Note_on_c, 3, 77, 0
5, 166320, Note_on_c, 3, 81, 94
5, 166509, Note_on_c, 3, 81, 0
5, 166560, Note_on_c, 3, 82, 101
5, 166620, Note_on_c, 3, 81, 101
5, 166640, Note_on_c, 3, 82, 0
5, 166680, Note_on_c, 3, 82, 102
5, 166700, Note_on_c, 3, 81, 0
5, 166708, Note_on_c, 3, 81, 102
5, 166717, Note_on_c, 3, 82, 0
5, 166740, Note_on_c, 3, 82, 102
5, 166751, Note_on_c, 3, 81, 0
5, 166768, Note_on_c, 3, 81, 102
5, 166777, Note_on_c, 3, 82, 0
5, 166800, Note_on_c, 3, 82, 102
5, 166811, Note_on_c, 3, 81, 0
5, 166828, Note_on_c, 3, 81, 101
5, 166837, Note_on_c, 3, 82, 0
5, 166860, Note_on_c, 3, 82, 99
5, 166871, Note_on_c, 3, 81, 0
5, 166888, Note_on_c, 3, 81, 99
5, 166897, Note_on_c, 3, 82, 0
5, 166920, Note_on_c, 3, 79, 97
5, 166931, Note_on_c, 3, 81, 0
5, 166980, Note_on_c, 3, 81, 94
5, 167000, Note_on_c, 3, 79, 0
5, 167040, Note_on_c, 3, 84, 94
5, 167060, Note_on_c, 3, 81, 0
5, 167100, Note_on_c, 3, 82, 95
5, 167120, Note_on_c, 3, 84, 0
5, 167160, Note_on_c, 3, 84, 97
5, 167180, Note_on_c, 3, 82, 0
5, 167188, Note_on_c, 3, 82, 97
5, 167197, Note_on_c, 3, 84, 0
5, 167220, Note_on_c, 3, 84, 97
5, 167231, Note_on_c, 3, 82, 0
5, 167248, Note_on_c, 3, 82, 99
5, 167257, Note_on_c, 3, 84, 0
5, 167280, Note_on_c, 3, 84, 99
5, 167291, Note_on_c, 3, 82, 0
5, 167308, Note_on_c, 3, 82, 99
5, 167317, Note_on_c, 3, 84, 0
5, 167340, Note_on_c, 3, 84, 99
5, 167351, Note_on_c, 3, 82, 0
5, 167368, Note_on_c, 3, 82, 98
5, 167377, Note_on_c, 3, 84, 0
5, 167400, Note_on_c, 3, 81, 98
5, 167411, Note_on_c, 3, 82, 0
5, 167460, Note_on_c, 3, 82, 94
5, 167480, Note_on_c, 3, 81, 0
5, 167520, Note_on_c, 3, 84, 92
5, 167540, Note_on_c, 3, 82, 0
5, 168000, Note_on_c, 3, 84, 0
5, 169440, Note_on_c, 3, 77, 96
5, 169576, Control_c, 3, 7, 87
5, 169600, Control_c, 3, 7, 86
5, 169616, Control_c, 3, 7, 83
5, 169628, Control_c, 3, 7, 80
5, 169644, Control_c, 3, 7, 78
5, 169648, Control_c, 3, 7, 74
5, 169660, Control_c, 3, 7, 69
5, 169680, Note_on_c, 3, 77, 0
5, 169680, Control_c, 3, 7, 66
5, 169696, Control_c, 3, 7, 59
5, 169708, Control_c, 3, 7, 54
5, 169724, Control_c, 3, 7, 43
5, 169736, Control_c, 3, 7, 0
5, 169808, Control_c, 3, 7, 89
5, 169920, Note_on_c, 3, 77, 96
5, 170080, Control_c, 3, 7, 89
5, 170112, Control_c, 3, 7, 87
5, 170120, Control_c, 3, 7, 86
5, 170136, Control_c, 3, 7, 83
5, 170148, Control_c, 3, 7, 76
5, 170160, Note_on_c, 3, 77, 0
5, 170164, Control_c, 3, 7, 71
5, 170176, Control_c, 3, 7, 65
5, 170192, Control_c, 3, 7, 9
5, 170284, Control_c, 3, 7, 89
5, 170400, Note_on_c, 3, 77, 96
5, 170900, Control_c, 3, 7, 89
5, 170928, Control_c, 3, 7, 88
5, 170992, Control_c, 3, 7, 87
5, 171016, Control_c, 3, 7, 86
5, 171028, Control_c, 3, 7, 84
5, 171032, Control_c, 3, 7, 83
5, 171068, Control_c, 3, 7, 81
5, 171080, Control_c, 3, 7, 80
5, 171096, Control_c, 3, 7, 77
5, 171124, Control_c, 3, 7, 75
5, 171128, Control_c, 3, 7, 74
5, 171136, Control_c, 3, 7, 72
5, 171140, Control_c, 3, 7, 71
5, 171160, Control_c, 3, 7, 68
5, 171164, Control_c, 3, 7, 67
5, 171180, Control_c, 3, 7, 64
5, 171208, Control_c, 3, 7, 62
5, 171228, Control_c, 3, 7, 61
5, 171240, Control_c, 3, 7, 55
5, 171256, Control_c, 3, 7, 50
5, 171268, Control_c, 3, 7, 48
5, 171272, Control_c, 3, 7, 41
5, 171284, Control_c, 3, 7, 39
5, 171300, Control_c, 3, 7, 32
5, 171312, Control_c, 3, 7, 22
5, 171328, Control_c, 3, 7, 16
5, 171340, Control_c, 3, 7, 3
5, 171360, Note_on_c, 3, 77, 0
5, 171360, Control_c, 3, 7, 0
5, 171644, Control_c, 3, 7, 89
5, 171644, End_track
6, 0, Start_track
6, 0, Title_t, "Harp"
6, 0, Control_c, 4, 0, 0
6, 0, Control_c, 4, 7, 90
6, 0, Control_c, 4, 10, 70
6, 0, Control_c, 4, 91, 127
6, 0, Control_c, 4, 93, 124
6, 1, Control_c, 4, 32, 1
6, 2, Program_c, 4, 46
6, 19095, Note_on_c, 4, 41, 89
6, 19120, Note_on_c, 4, 53, 89
6, 19155, Note_on_c, 4, 57, 90
6, 19170, Note_on_c, 4, 60, 92
6, 19180, Note_on_c, 4, 65, 92
6, 19200, Note_on_c, 4, 69, 92
6, 19259, Note_on_c, 4, 41, 0
6, 19360, Note_on_c, 4, 53, 0
6, 19395, Note_on_c, 4, 57, 0
6, 19410, Note_on_c, 4, 60, 0
6, 19420, Note_on_c, 4, 65, 0
6, 19440, Note_on_c, 4, 69, 0
6, 19590, Note_on_c, 4, 41, 87
6, 19615, Note_on_c, 4, 53, 87
6, 19630, Note_on_c, 4, 57, 89
6, 19650, Note_on_c, 4, 60, 91
6, 19663, Note_on_c, 4, 65, 91
6, 19680, Note_on_c, 4, 69, 92
6, 19814, Note_on_c, 4, 41, 0
6, 19855, Note_on_c, 4, 53, 0
6, 19870, Note_on_c, 4, 57, 0
6, 19890, Note_on_c, 4, 60, 0
6, 19903, Note_on_c, 4, 65, 0
6, 19920, Note_on_c, 4, 69, 0
6, 20050, Note_on_c, 4, 41, 82
6, 20080, Note_on_c, 4, 53, 83
6, 20105, Note_on_c, 4, 57, 83
6, 20120, Note_on_c, 4, 60, 86
6, 20140, Note_on_c, 4, 65, 86
6, 20160, Note_on_c, 4, 69, 86
6, 20320, Note_on_c, 4, 53, 0
6, 20339, Note_on_c, 4, 41, 0
6, 20345, Note_on_c, 4, 57, 0
6, 20360, Note_on_c, 4, 60, 0
6, 20380, Note_on_c, 4, 65, 0
6, 20400, Note_on_c, 4, 69, 0
6, 20544, Note_on_c, 4, 36, 93
6, 20548, Note_on_c, 4, 58, 93
6, 20568, Note_on_c, 4, 40, 95
6, 20580, Note_on_c, 4, 60, 97
6, 20592, Note_on_c, 4, 43, 98
6, 20608, Note_on_c, 4, 64, 102
6, 20616, Note_on_c, 4, 46, 102
6, 20640, Note_on_c, 4, 67, 103
6, 20640, Note_on_c, 4, 48, 103
6, 20880, Note_on_c, 4, 46, 0
6, 20880, Note_on_c, 4, 60, 0
6, 20880, Note_on_c, 4, 36, 0
6, 20880, Note_on_c, 4, 43, 0
6, 20880, Note_on_c, 4, 58, 0
6, 20880, Note_on_c, 4, 40, 0
6, 20880, Note_on_c, 4, 64, 0
6, 21480, Note_on_c, 4, 67, 0
6, 21480, Note_on_c, 4, 64, 105
6, 21600, Note_on_c, 4, 64, 0
6, 21600, Note_on_c, 4, 48, 0
6, 21600, Note_on_c, 4, 57, 105
6, 21600, Note_on_c, 4, 65, 105
6, 21600, Note_on_c, 4, 41, 105
6, 21840, Note_on_c, 4, 41, 0
6, 21840, Note_on_c, 4, 65, 0
6, 21840, Note_on_c, 4, 57, 0
6, 22080, Note_on_c, 4, 65, 77
6, 22080, Note_on_c, 4, 69, 77
6, 22200, Note_on_c, 4, 69, 0
6, 22200, Note_on_c, 4, 65, 0
6, 22200, Note_on_c, 4, 67, 79
6, 22200, Note_on_c, 4, 70, 79
6, 22320, Note_on_c, 4, 70, 0
6, 22320, Note_on_c, 4, 67, 0
6, 22320, Note_on_c, 4, 69, 84
6, 22320, Note_on_c, 4, 72, 84
6, 22440, Note_on_c, 4, 72, 0
6, 22440, Note_on_c, 4, 69, 0
6, 22440, Note_on_c, 4, 70, 86
6, 22440, Note_on_c, 4, 74, 86
6, 22560, Note_on_c, 4, 74, 0
6, 22560, Note_on_c, 4, 70, 0
6, 22560, Note_on_c, 4, 69, 87
6, 22560, Note_on_c, 4, 72, 87
6, 22680, Note_on_c, 4, 72, 0
6, 22680, Note_on_c, 4, 69, 0
6, 22680, Note_on_c, 4, 70, 87
6, 22680, Note_on_c, 4, 74, 87
6, 22800, Note_on_c, 4, 74, 0
6, 22800, Note_on_c, 4, 70, 0
6, 22800, Note_on_c, 4, 67, 87
6, 22800, Note_on_c, 4, 76, 87
6, 22920, Note_on_c, 4, 76, 0
6, 22920, Note_on_c, 4, 67, 0
6, 22920, Note_on_c, 4, 69, 85
6, 22920, Note_on_c, 4, 77, 85
6, 23040, Note_on_c, 4, 77, 0
6, 23040, Note_on_c, 4, 69, 0
6, 23040, Note_on_c, 4, 67, 80
6, 23040, Note_on_c, 4, 76, 80
6, 23160, Note_on_c, 4, 76, 0
6, 23160, Note_on_c, 4, 67, 0
6, 23160, Note_on_c, 4, 69, 80
6, 23160, Note_on_c, 4, 77, 80
6, 23280, Note_on_c, 4, 77, 0
6, 23280, Note_on_c, 4, 69, 0
6, 23280, Note_on_c, 4, 67, 80
6, 23280, Note_on_c, 4, 76, 80
6, 23400, Note_on_c, 4, 76, 0
6, 23400, Note_on_c, 4, 67, 0
6, 23400, Note_on_c, 4, 69, 77
6, 23400, Note_on_c, 4, 77, 77
6, 23520, Note_on_c, 4, 77, 0
6, 23520, Note_on_c, 4, 69, 0
6, 23520, Note_on_c, 4, 65, 77
6, 23520, Note_on_c, 4, 70, 77
6, 23520, Note_on_c, 4, 53, 77
6, 23520, Note_on_c, 4, 62, 77
6, 23760, Note_on_c, 4, 62, 0
6, 23760, Note_on_c, 4, 53, 0
6, 24000, Note_on_c, 4, 65, 0
6, 24000, Note_on_c, 4, 53, 77
6, 24000, Note_on_c, 4, 58, 77
6, 24240, Note_on_c, 4, 58, 0
6, 24240, Note_on_c, 4, 53, 0
6, 24360, Note_on_c, 4, 70, 0
6, 24360, Note_on_c, 4, 72, 83
6, 24420, Note_on_c, 4, 72, 0
6, 24420, Note_on_c, 4, 74, 85
6, 24480, Note_on_c, 4, 74, 0
6, 24480, Note_on_c, 4, 72, 85
6, 24480, Note_on_c, 4, 53, 85
6, 24480, Note_on_c, 4, 57, 85
6, 24720, Note_on_c, 4, 57, 0
6, 24720, Note_on_c, 4, 53, 0
6, 24720, Note_on_c, 4, 72, 0
6, 24960, Note_on_c, 4, 41, 105
6, 25020, Note_on_c, 4, 41, 0
6, 25020, Note_on_c, 4, 53, 105
6, 25080, Note_on_c, 4, 53, 0
6, 25080, Note_on_c, 4, 57, 105
6, 25140, Note_on_c, 4, 57, 0
6, 25140, Note_on_c, 4, 60, 105
6, 25200, Note_on_c, 4, 60, 0
6, 25200, Note_on_c, 4, 65, 105
6, 25260, Note_on_c, 4, 65, 0
6, 25260, Note_on_c, 4, 69, 105
6, 25320, Note_on_c, 4, 69, 0
6, 25320, Note_on_c, 4, 65, 105
6, 25380, Note_on_c, 4, 65, 0
6, 25380, Note_on_c, 4, 60, 105
6, 25440, Note_on_c, 4, 60, 0
6, 25440, Note_on_c, 4, 38, 105
6, 25500, Note_on_c, 4, 38, 0
6, 25500, Note_on_c, 4, 50, 105
6, 25560, Note_on_c, 4, 50, 0
6, 25560, Note_on_c, 4, 57, 105
6, 25620, Note_on_c, 4, 57, 0
6, 25620, Note_on_c, 4, 62, 105
6, 25680, Note_on_c, 4, 62, 0
6, 25680, Note_on_c, 4, 65, 105
6, 25740, Note_on_c, 4, 65, 0
6, 25740, Note_on_c, 4, 69, 105
6, 25800, Note_on_c, 4, 69, 0
6, 25800, Note_on_c, 4, 65, 105
6, 25860, Note_on_c, 4, 65, 0
6, 25860, Note_on_c, 4, 60, 105
6, 25920, Note_on_c, 4, 60, 0
6, 25920, Note_on_c, 4, 46, 105
6, 25980, Note_on_c, 4, 46, 0
6, 25980, Note_on_c, 4, 58, 105
6, 26040, Note_on_c, 4, 58, 0
6, 26040, Note_on_c, 4, 64, 105
6, 26100, Note_on_c, 4, 64, 0
6, 26100, Note_on_c, 4, 65, 105
6, 26160, Note_on_c, 4, 65, 0
6, 26160, Note_on_c, 4, 67, 105
6, 26220, Note_on_c, 4, 67, 0
6, 26220, Note_on_c, 4, 74, 105
6, 26280, Note_on_c, 4, 74, 0
6, 26280, Note_on_c, 4, 67, 105
6, 26340, Note_on_c, 4, 67, 0
6, 26340, Note_on_c, 4, 65, 105
6, 26400, Note_on_c, 4, 65, 0
6, 26400, Note_on_c, 4, 36, 105
6, 26460, Note_on_c, 4, 36, 0
6, 26460, Note_on_c, 4, 48, 105
6, 26520, Note_on_c, 4, 48, 0
6, 26520, Note_on_c, 4, 60, 105
6, 26580, Note_on_c, 4, 60, 0
6, 26580, Note_on_c, 4, 65, 105
6, 26640, Note_on_c, 4, 65, 0
6, 26640, Note_on_c, 4, 67, 105
6, 26700, Note_on_c, 4, 67, 0
6, 26700, Note_on_c, 4, 72, 105
6, 26760, Note_on_c, 4, 72, 0
6, 26760, Note_on_c, 4, 67, 105
6, 26820, Note_on_c, 4, 67, 0
6, 26820, Note_on_c, 4, 65, 105
6, 26880, Note_on_c, 4, 65, 0
6, 26880, Note_on_c, 4, 48, 105
6, 26940, Note_on_c, 4, 48, 0
6, 26940, Note_on_c, 4, 60, 105
6, 27000, Note_on_c, 4, 60, 0
6, 27000, Note_on_c, 4, 60, 105
6, 27060, Note_on_c, 4, 60, 0
6, 27060, Note_on_c, 4, 64, 105
6, 27120, Note_on_c, 4, 64, 0
6, 27120, Note_on_c, 4, 67, 105
6, 27180, Note_on_c, 4, 67, 0
6, 27180, Note_on_c, 4, 72, 105
6, 27240, Note_on_c, 4, 72, 0
6, 27240, Note_on_c, 4, 67, 105
6, 27300, Note_on_c, 4, 67, 0
6, 27300, Note_on_c, 4, 65, 105
6, 27360, Note_on_c, 4, 65, 0
6, 27360, Note_on_c, 4, 45, 105
6, 27420, Note_on_c, 4, 45, 0
6, 27420, Note_on_c, 4, 57, 105
6, 27480, Note_on_c, 4, 57, 0
6, 27480, Note_on_c, 4, 60, 105
6, 27540, Note_on_c, 4, 60, 0
6, 27540, Note_on_c, 4, 64, 105
6, 27600, Note_on_c, 4, 64, 0
6, 27600, Note_on_c, 4, 67, 105
6, 27660, Note_on_c, 4, 67, 0
6, 27660, Note_on_c, 4, 72, 105
6, 27720, Note_on_c, 4, 72, 0
6, 27720, Note_on_c, 4, 67, 105
6, 27780, Note_on_c, 4, 67, 0
6, 27780, Note_on_c, 4, 65, 105
6, 27840, Note_on_c, 4, 65, 0
6, 27840, Note_on_c, 4, 46, 105
6, 27900, Note_on_c, 4, 46, 0
6, 27900, Note_on_c, 4, 58, 105
6, 27960, Note_on_c, 4, 58, 0
6, 27960, Note_on_c, 4, 58, 105
6, 28020, Note_on_c, 4, 58, 0
6, 28020, Note_on_c, 4, 62, 105
6, 28080, Note_on_c, 4, 62, 0
6, 28080, Note_on_c, 4, 65, 105
6, 28140, Note_on_c, 4, 65, 0
6, 28140, Note_on_c, 4, 70, 105
6, 28200, Note_on_c, 4, 70, 0
6, 28200, Note_on_c, 4, 65, 105
6, 28260, Note_on_c, 4, 65, 0
6, 28260, Note_on_c, 4, 62, 105
6, 28320, Note_on_c, 4, 62, 0
6, 28320, Note_on_c, 4, 46, 105
6, 28380, Note_on_c, 4, 46, 0
6, 28380, Note_on_c, 4, 58, 105
6, 28440, Note_on_c, 4, 58, 0
6, 28440, Note_on_c, 4, 58, 105
6, 28500, Note_on_c, 4, 58, 0
6, 28500, Note_on_c, 4, 62, 105
6, 28560, Note_on_c, 4, 62, 0
6, 28560, Note_on_c, 4, 67, 105
6, 28620, Note_on_c, 4, 67, 0
6, 28620, Note_on_c, 4, 70, 105
6, 28680, Note_on_c, 4, 70, 0
6, 28680, Note_on_c, 4, 67, 105
6, 28740, Note_on_c, 4, 67, 0
6, 28740, Note_on_c, 4, 62, 105
6, 28800, Note_on_c, 4, 62, 0
6, 28800, Note_on_c, 4, 43, 105
6, 28860, Note_on_c, 4, 43, 0
6, 28860, Note_on_c, 4, 55, 105
6, 28920, Note_on_c, 4, 55, 0
6, 28920, Note_on_c, 4, 58, 105
6, 28980, Note_on_c, 4, 58, 0
6, 28980, Note_on_c, 4, 62, 105
6, 29040, Note_on_c, 4, 62, 0
6, 29040, Note_on_c, 4, 67, 105
6, 29100, Note_on_c, 4, 67, 0
6, 29100, Note_on_c, 4, 70, 105
6, 29160, Note_on_c, 4, 70, 0
6, 29160, Note_on_c, 4, 67, 105
6, 29220, Note_on_c, 4, 67, 0
6, 29220, Note_on_c, 4, 62, 105
6, 29280, Note_on_c, 4, 62, 0
6, 29280, Note_on_c, 4, 36, 105
6, 29340, Note_on_c, 4, 36, 0
6, 29340, Note_on_c, 4, 48, 105
6, 29400, Note_on_c, 4, 48, 0
6, 29400, Note_on_c, 4, 57, 105
6, 29460, Note_on_c, 4, 57, 0
6, 29460, Note_on_c, 4, 60, 105
6, 29520, Note_on_c, 4, 60, 0
6, 29520, Note_on_c, 4, 65, 105
6, 29580, Note_on_c, 4, 65, 0
6, 29580, Note_on_c, 4, 69, 105
6, 29640, Note_on_c, 4, 69, 0
6, 29640, Note_on_c, 4, 65, 105
6, 29700, Note_on_c, 4, 65, 0
6, 29700, Note_on_c, 4, 60, 105
6, 29760, Note_on_c, 4, 60, 0
6, 29760, Note_on_c, 4, 64, 105
6, 29760, Note_on_c, 4, 67, 105
6, 30240, Note_on_c, 4, 67, 0
6, 30240, Note_on_c, 4, 64, 0
6, 36480, Note_on_c, 4, 79, 105
6, 36480, Note_on_c, 4, 60, 105
6, 36600, Note_on_c, 4, 60, 0
6, 36600, Note_on_c, 4, 67, 105
6, 36720, Note_on_c, 4, 67, 0
6, 36720, Note_on_c, 4, 64, 105
6, 36840, Note_on_c, 4, 64, 0
6, 36840, Note_on_c, 4, 67, 105
6, 36960, Note_on_c, 4, 67, 0
6, 36960, Note_on_c, 4, 60, 105
6, 37080, Note_on_c, 4, 60, 0
6, 37080, Note_on_c, 4, 67, 105
6, 37200, Note_on_c, 4, 67, 0
6, 37200, Note_on_c, 4, 79, 0
6, 37200, Note_on_c, 4, 81, 105
6, 37200, Note_on_c, 4, 64, 105
6, 37320, Note_on_c, 4, 64, 0
6, 37320, Note_on_c, 4, 81, 0
6, 37320, Note_on_c, 4, 79, 105
6, 37320, Note_on_c, 4, 67, 105
6, 37440, Note_on_c, 4, 67, 0
6, 37440, Note_on_c, 4, 79, 0
6, 37440, Note_on_c, 4, 84, 105
6, 37440, Note_on_c, 4, 60, 105
6, 37560, Note_on_c, 4, 60, 0
6, 37560, Note_on_c, 4, 84, 0
6, 37560, Note_on_c, 4, 83, 105
6, 37560, Note_on_c, 4, 67, 105
6, 37680, Note_on_c, 4, 67, 0
6, 37680, Note_on_c, 4, 83, 0
6, 37680, Note_on_c, 4, 81, 105
6, 37680, Note_on_c, 4, 64, 105
6, 37800, Note_on_c, 4, 64, 0
6, 37800, Note_on_c, 4, 81, 0
6, 37800, Note_on_c, 4, 79, 105
6, 37800, Note_on_c, 4, 67, 105
6, 37920, Note_on_c, 4, 67, 0
6, 37920, Note_on_c, 4, 79, 0
6, 37920, Note_on_c, 4, 79, 105
6, 37920, Note_on_c, 4, 59, 105
6, 38040, Note_on_c, 4, 59, 0
6, 38040, Note_on_c, 4, 65, 105
6, 38160, Note_on_c, 4, 65, 0
6, 38160, Note_on_c, 4, 62, 105
6, 38280, Note_on_c, 4, 62, 0
6, 38280, Note_on_c, 4, 79, 0
6, 38280, Note_on_c, 4, 81, 105
6, 38280, Note_on_c, 4, 65, 105
6, 38400, Note_on_c, 4, 65, 0
6, 38400, Note_on_c, 4, 81, 0
6, 38400, Note_on_c, 4, 79, 105
6, 38400, Note_on_c, 4, 59, 105
6, 38520, Note_on_c, 4, 59, 0
6, 38520, Note_on_c, 4, 65, 105
6, 38640, Note_on_c, 4, 65, 0
6, 38640, Note_on_c, 4, 62, 105
6, 38760, Note_on_c, 4, 62, 0
6, 38760, Note_on_c, 4, 65, 105
6, 38880, Note_on_c, 4, 65, 0
6, 38880, Note_on_c, 4, 79, 0
6, 38880, Note_on_c, 4, 59, 105
6, 39000, Note_on_c, 4, 59, 0
6, 39000, Note_on_c, 4, 65, 105
6, 39120, Note_on_c, 4, 65, 0
6, 39120, Note_on_c, 4, 62, 105
6, 39240, Note_on_c, 4, 62, 0
6, 39240, Note_on_c, 4, 65, 105
6, 39300, Note_on_c, 4, 74, 105
6, 39360, Note_on_c, 4, 74, 0
6, 39360, Note_on_c, 4, 65, 0
6, 39360, Note_on_c, 4, 86, 105
6, 39360, Note_on_c, 4, 55, 105
6, 39480, Note_on_c, 4, 55, 0
6, 39480, Note_on_c, 4, 65, 105
6, 39600, Note_on_c, 4, 65, 0
6, 39600, Note_on_c, 4, 59, 105
6, 39720, Note_on_c, 4, 59, 0
6, 39720, Note_on_c, 4, 65, 105
6, 39840, Note_on_c, 4, 65, 0
6, 39840, Note_on_c, 4, 55, 105
6, 39960, Note_on_c, 4, 55, 0
6, 39960, Note_on_c, 4, 65, 105
6, 40080, Note_on_c, 4, 65, 0
6, 40080, Note_on_c, 4, 86, 0
6, 40080, Note_on_c, 4, 84, 105
6, 40080, Note_on_c, 4, 59, 105
6, 40140, Note_on_c, 4, 84, 0
6, 40140, Note_on_c, 4, 83, 105
6, 40200, Note_on_c, 4, 83, 0
6, 40200, Note_on_c, 4, 59, 0
6, 40200, Note_on_c, 4, 81, 105
6, 40200, Note_on_c, 4, 65, 105
6, 40260, Note_on_c, 4, 81, 0
6, 40260, Note_on_c, 4, 79, 105
6, 40320, Note_on_c, 4, 79, 0
6, 40320, Note_on_c, 4, 65, 0
6, 40320, Note_on_c, 4, 79, 105
6, 40320, Note_on_c, 4, 55, 105
6, 40364, Note_on_c, 4, 79, 0
6, 40440, Note_on_c, 4, 55, 0
6, 40440, Note_on_c, 4, 79, 105
6, 40440, Note_on_c, 4, 65, 105
6, 40484, Note_on_c, 4, 79, 0
6, 40560, Note_on_c, 4, 65, 0
6, 40560, Note_on_c, 4, 79, 105
6, 40560, Note_on_c, 4, 59, 105
6, 40604, Note_on_c, 4, 79, 0
6, 40680, Note_on_c, 4, 59, 0
6, 40680, Note_on_c, 4, 79, 105
6, 40680, Note_on_c, 4, 65, 105
6, 40724, Note_on_c, 4, 79, 0
6, 40800, Note_on_c, 4, 65, 0
6, 40800, Note_on_c, 4, 79, 105
6, 40800, Note_on_c, 4, 60, 105
6, 40920, Note_on_c, 4, 60, 0
6, 40920, Note_on_c, 4, 67, 105
6, 41040, Note_on_c, 4, 67, 0
6, 41040, Note_on_c, 4, 64, 105
6, 41160, Note_on_c, 4, 64, 0
6, 41160, Note_on_c, 4, 79, 0
6, 41160, Note_on_c, 4, 76, 105
6, 41160, Note_on_c, 4, 67, 105
6, 41280, Note_on_c, 4, 67, 0
6, 41280, Note_on_c, 4, 76, 0
6, 41280, Note_on_c, 4, 79, 105
6, 41280, Note_on_c, 4, 60, 105
6, 41400, Note_on_c, 4, 60, 0
6, 41400, Note_on_c, 4, 67, 105
6, 41520, Note_on_c, 4, 67, 0
6, 41520, Note_on_c, 4, 64, 105
6, 41640, Note_on_c, 4, 64, 0
6, 41640, Note_on_c, 4, 67, 105
6, 41760, Note_on_c, 4, 67, 0
6, 41760, Note_on_c, 4, 79, 0
6, 41760, Note_on_c, 4, 60, 105
6, 41880, Note_on_c, 4, 60, 0
6, 41880, Note_on_c, 4, 67, 105
6, 42000, Note_on_c, 4, 67, 0
6, 42000, Note_on_c, 4, 64, 105
6, 42120, Note_on_c, 4, 64, 0
6, 42120, Note_on_c, 4, 67, 105
6, 42240, Note_on_c, 4, 67, 0
6, 42240, Note_on_c, 4, 78, 105
6, 42240, Note_on_c, 4, 57, 105
6, 42360, Note_on_c, 4, 57, 0
6, 42360, Note_on_c, 4, 78, 0
6, 42360, Note_on_c, 4, 72, 105
6, 42360, Note_on_c, 4, 62, 105
6, 42480, Note_on_c, 4, 62, 0
6, 42480, Note_on_c, 4, 72, 0
6, 42480, Note_on_c, 4, 74, 105
6, 42480, Note_on_c, 4, 60, 105
6, 42600, Note_on_c, 4, 60, 0
6, 42600, Note_on_c, 4, 74, 0
6, 42600, Note_on_c, 4, 72, 105
6, 42600, Note_on_c, 4, 62, 105
6, 42720, Note_on_c, 4, 62, 0
6, 42720, Note_on_c, 4, 72, 0
6, 42720, Note_on_c, 4, 78, 105
6, 42720, Note_on_c, 4, 57, 105
6, 42840, Note_on_c, 4, 57, 0
6, 42840, Note_on_c, 4, 78, 0
6, 42840, Note_on_c, 4, 72, 105
6, 42840, Note_on_c, 4, 62, 105
6, 42960, Note_on_c, 4, 62, 0
6, 42960, Note_on_c, 4, 72, 0
6, 42960, Note_on_c, 4, 74, 105
6, 42960, Note_on_c, 4, 60, 105
6, 43080, Note_on_c, 4, 60, 0
6, 43080, Note_on_c, 4, 74, 0
6, 43080, Note_on_c, 4, 72, 105
6, 43080, Note_on_c, 4, 62, 105
6, 43200, Note_on_c, 4, 62, 0
6, 43200, Note_on_c, 4, 72, 0
6, 43200, Note_on_c, 4, 78, 105
6, 43200, Note_on_c, 4, 57, 105
6, 43320, Note_on_c, 4, 57, 0
6, 43320, Note_on_c, 4, 78, 0
6, 43320, Note_on_c, 4, 72, 105
6, 43320, Note_on_c, 4, 62, 105
6, 43440, Note_on_c, 4, 62, 0
6, 43440, Note_on_c, 4, 72, 0
6, 43440, Note_on_c, 4, 74, 105
6, 43440, Note_on_c, 4, 60, 105
6, 43560, Note_on_c, 4, 60, 0
6, 43560, Note_on_c, 4, 74, 0
6, 43560, Note_on_c, 4, 72, 105
6, 43560, Note_on_c, 4, 62, 105
6, 43680, Note_on_c, 4, 62, 0
6, 43680, Note_on_c, 4, 72, 0
6, 43680, Note_on_c, 4, 79, 105
6, 43680, Note_on_c, 4, 55, 105
6, 43800, Note_on_c, 4, 55, 0
6, 43800, Note_on_c, 4, 79, 0
6, 43800, Note_on_c, 4, 71, 105
6, 43800, Note_on_c, 4, 62, 105
6, 43920, Note_on_c, 4, 62, 0
6, 43920, Note_on_c, 4, 71, 0
6, 43920, Note_on_c, 4, 74, 105
6, 43920, Note_on_c, 4, 59, 105
6, 44040, Note_on_c, 4, 59, 0
6, 44040, Note_on_c, 4, 74, 0
6, 44040, Note_on_c, 4, 71, 105
6, 44040, Note_on_c, 4, 62, 105
6, 44160, Note_on_c, 4, 62, 0
6, 44160, Note_on_c, 4, 71, 0
6, 44160, Note_on_c, 4, 79, 105
6, 44160, Note_on_c, 4, 55, 105
6, 44280, Note_on_c, 4, 55, 0
6, 44280, Note_on_c, 4, 79, 0
6, 44280, Note_on_c, 4, 71, 105
6, 44280, Note_on_c, 4, 62, 105
6, 44400, Note_on_c, 4, 62, 0
6, 44400, Note_on_c, 4, 71, 0
6, 44400, Note_on_c, 4, 74, 105
6, 44400, Note_on_c, 4, 59, 105
6, 44520, Note_on_c, 4, 59, 0
6, 44520, Note_on_c, 4, 74, 0
6, 44520, Note_on_c, 4, 71, 105
6, 44520, Note_on_c, 4, 62, 105
6, 44640, Note_on_c, 4, 62, 0
6, 44640, Note_on_c, 4, 71, 0
6, 44640, Note_on_c, 4, 78, 105
6, 44640, Note_on_c, 4, 57, 105
6, 44760, Note_on_c, 4, 57, 0
6, 44760, Note_on_c, 4, 78, 0
6, 44760, Note_on_c, 4, 72, 105
6, 44760, Note_on_c, 4, 62, 105
6, 44880, Note_on_c, 4, 62, 0
6, 44880, Note_on_c, 4, 72, 0
6, 44880, Note_on_c, 4, 74, 105
6, 44880, Note_on_c, 4, 60, 105
6, 45000, Note_on_c, 4, 60, 0
6, 45000, Note_on_c, 4, 74, 0
6, 45000, Note_on_c, 4, 72, 105
6, 45000, Note_on_c, 4, 62, 105
6, 45120, Note_on_c, 4, 62, 0
6, 45120, Note_on_c, 4, 72, 0
6, 45120, Note_on_c, 4, 79, 105
6, 45120, Note_on_c, 4, 55, 105
6, 45240, Note_on_c, 4, 55, 0
6, 45240, Note_on_c, 4, 79, 0
6, 45240, Note_on_c, 4, 71, 105
6, 45240, Note_on_c, 4, 62, 105
6, 45360, Note_on_c, 4, 62, 0
6, 45360, Note_on_c, 4, 71, 0
6, 45360, Note_on_c, 4, 74, 105
6, 45360, Note_on_c, 4, 59, 105
6, 45480, Note_on_c, 4, 59, 0
6, 45480, Note_on_c, 4, 74, 0
6, 45480, Note_on_c, 4, 71, 105
6, 45480, Note_on_c, 4, 62, 105
6, 45600, Note_on_c, 4, 62, 0
6, 45600, Note_on_c, 4, 71, 0
6, 45600, Note_on_c, 4, 79, 105
6, 45600, Note_on_c, 4, 55, 105
6, 46080, Note_on_c, 4, 55, 0
6, 46080, Note_on_c, 4, 79, 0
6, 52260, Note_on_c, 4, 36, 105
6, 52320, Note_on_c, 4, 36, 0
6, 52320, Note_on_c, 4, 60, 105
6, 52320, Note_on_c, 4, 48, 105
6, 52440, Note_on_c, 4, 60, 0
6, 52440, Note_on_c, 4, 67, 105
6, 52560, Note_on_c, 4, 67, 0
6, 52560, Note_on_c, 4, 64, 105
6, 52680, Note_on_c, 4, 64, 0
6, 52680, Note_on_c, 4, 67, 105
6, 52800, Note_on_c, 4, 67, 0
6, 52800, Note_on_c, 4, 48, 0
6, 52800, Note_on_c, 4, 60, 105
6, 52920, Note_on_c, 4, 60, 0
6, 52920, Note_on_c, 4, 67, 105
6, 53040, Note_on_c, 4, 67, 0
6, 53040, Note_on_c, 4, 64, 105
6, 53160, Note_on_c, 4, 64, 0
6, 53160, Note_on_c, 4, 67, 105
6, 53280, Note_on_c, 4, 67, 0
6, 53280, Note_on_c, 4, 62, 105
6, 53400, Note_on_c, 4, 62, 0
6, 53400, Note_on_c, 4, 67, 105
6, 53520, Note_on_c, 4, 67, 0
6, 53520, Note_on_c, 4, 65, 105
6, 53640, Note_on_c, 4, 65, 0
6, 53640, Note_on_c, 4, 67, 105
6, 53700, Note_on_c, 4, 36, 105
6, 53760, Note_on_c, 4, 36, 0
6, 53760, Note_on_c, 4, 67, 0
6, 53760, Note_on_c, 4, 60, 105
6, 53760, Note_on_c, 4, 48, 105
6, 53880, Note_on_c, 4, 60, 0
6, 53880, Note_on_c, 4, 67, 105
6, 54000, Note_on_c, 4, 67, 0
6, 54000, Note_on_c, 4, 64, 105
6, 54120, Note_on_c, 4, 64, 0
6, 54120, Note_on_c, 4, 67, 105
6, 54240, Note_on_c, 4, 67, 0
6, 54240, Note_on_c, 4, 48, 0
6, 54240, Note_on_c, 4, 60, 105
6, 54360, Note_on_c, 4, 60, 0
6, 54360, Note_on_c, 4, 67, 105
6, 54480, Note_on_c, 4, 67, 0
6, 54480, Note_on_c, 4, 64, 105
6, 54600, Note_on_c, 4, 64, 0
6, 54600, Note_on_c, 4, 67, 105
6, 54720, Note_on_c, 4, 67, 0
6, 54720, Note_on_c, 4, 60, 105
6, 54840, Note_on_c, 4, 60, 0
6, 54840, Note_on_c, 4, 67, 105
6, 54960, Note_on_c, 4, 67, 0
6, 54960, Note_on_c, 4, 64, 105
6, 55080, Note_on_c, 4, 64, 0
6, 55080, Note_on_c, 4, 67, 105
6, 55200, Note_on_c, 4, 67, 0
6, 55200, Note_on_c, 4, 53, 105
6, 55320, Note_on_c, 4, 69, 105
6, 55440, Note_on_c, 4, 69, 0
6, 55440, Note_on_c, 4, 53, 0
6, 55440, Note_on_c, 4, 77, 105
6, 55560, Note_on_c, 4, 77, 0
6, 55560, Note_on_c, 4, 74, 105
6, 55680, Note_on_c, 4, 74, 0
6, 55680, Note_on_c, 4, 55, 105
6, 55800, Note_on_c, 4, 67, 105
6, 55920, Note_on_c, 4, 67, 0
6, 55920, Note_on_c, 4, 55, 0
6, 55920, Note_on_c, 4, 76, 105
6, 56040, Note_on_c, 4, 76, 0
6, 56040, Note_on_c, 4, 72, 105
6, 56160, Note_on_c, 4, 72, 0
6, 56160, Note_on_c, 4, 55, 105
6, 56280, Note_on_c, 4, 65, 105
6, 56400, Note_on_c, 4, 65, 0
6, 56400, Note_on_c, 4, 55, 0
6, 56400, Note_on_c, 4, 74, 105
6, 56520, Note_on_c, 4, 74, 0
6, 56520, Note_on_c, 4, 71, 105
6, 56640, Note_on_c, 4, 71, 0
6, 56640, Note_on_c, 4, 64, 105
6, 56640, Note_on_c, 4, 67, 105
6, 56640, Note_on_c, 4, 72, 105
6, 56640, Note_on_c, 4, 48, 105
6, 57120, Note_on_c, 4, 48, 0
6, 57120, Note_on_c, 4, 64, 0
6, 57120, Note_on_c, 4, 67, 0
6, 57120, Note_on_c, 4, 72, 0
6, 62400, Note_on_c, 4, 60, 105
6, 62520, Note_on_c, 4, 60, 0
6, 62520, Note_on_c, 4, 67, 105
6, 62640, Note_on_c, 4, 67, 0
6, 62640, Note_on_c, 4, 64, 105
6, 62760, Note_on_c, 4, 64, 0
6, 62760, Note_on_c, 4, 67, 105
6, 62880, Note_on_c, 4, 67, 0
6, 62880, Note_on_c, 4, 60, 105
6, 63000, Note_on_c, 4, 60, 0
6, 63000, Note_on_c, 4, 67, 105
6, 63120, Note_on_c, 4, 67, 0
6, 63120, Note_on_c, 4, 64, 105
6, 63240, Note_on_c, 4, 64, 0
6, 63240, Note_on_c, 4, 67, 105
6, 63360, Note_on_c, 4, 67, 0
6, 63360, Note_on_c, 4, 62, 105
6, 63480, Note_on_c, 4, 62, 0
6, 63480, Note_on_c, 4, 67, 105
6, 63600, Note_on_c, 4, 67, 0
6, 63600, Note_on_c, 4, 65, 105
6, 63720, Note_on_c, 4, 65, 0
6, 63720, Note_on_c, 4, 67, 105
6, 63840, Note_on_c, 4, 67, 0
6, 63840, Note_on_c, 4, 79, 105
6, 63840, Note_on_c, 4, 60, 105
6, 63960, Note_on_c, 4, 60, 0
6, 63960, Note_on_c, 4, 67, 105
6, 64080, Note_on_c, 4, 67, 0
6, 64080, Note_on_c, 4, 64, 105
6, 64200, Note_on_c, 4, 64, 0
6, 64200, Note_on_c, 4, 67, 105
6, 64320, Note_on_c, 4, 67, 0
6, 64320, Note_on_c, 4, 79, 0
6, 64320, Note_on_c, 4, 81, 105
6, 64320, Note_on_c, 4, 60, 105
6, 64380, Note_on_c, 4, 81, 0
6, 64380, Note_on_c, 4, 79, 105
6, 64440, Note_on_c, 4, 79, 0
6, 64440, Note_on_c, 4, 60, 0
6, 64440, Note_on_c, 4, 81, 105
6, 64440, Note_on_c, 4, 67, 105
6, 64468, Note_on_c, 4, 81, 0
6, 64468, Note_on_c, 4, 79, 105
6, 64500, Note_on_c, 4, 79, 0
6, 64500, Note_on_c, 4, 81, 105
6, 64528, Note_on_c, 4, 81, 0
6, 64528, Note_on_c, 4, 79, 105
6, 64560, Note_on_c, 4, 79, 0
6, 64560, Note_on_c, 4, 67, 0
6, 64560, Note_on_c, 4, 81, 105
6, 64560, Note_on_c, 4, 64, 105
6, 64588, Note_on_c, 4, 81, 0
6, 64588, Note_on_c, 4, 79, 105
6, 64620, Note_on_c, 4, 79, 0
6, 64620, Note_on_c, 4, 81, 105
6, 64648, Note_on_c, 4, 81, 0
6, 64648, Note_on_c, 4, 79, 105
6, 64680, Note_on_c, 4, 79, 0
6, 64680, Note_on_c, 4, 64, 0
6, 64680, Note_on_c, 4, 77, 105
6, 64680, Note_on_c, 4, 67, 105
6, 64740, Note_on_c, 4, 77, 0
6, 64740, Note_on_c, 4, 79, 105
6, 64800, Note_on_c, 4, 79, 0
6, 64800, Note_on_c, 4, 67, 0
6, 64800, Note_on_c, 4, 84, 105
6, 64800, Note_on_c, 4, 62, 105
6, 64860, Note_on_c, 4, 84, 0
6, 64860, Note_on_c, 4, 83, 105
6, 64920, Note_on_c, 4, 83, 0
6, 64920, Note_on_c, 4, 62, 0
6, 64920, Note_on_c, 4, 84, 105
6, 64920, Note_on_c, 4, 67, 105
6, 64948, Note_on_c, 4, 84, 0
6, 64948, Note_on_c, 4, 83, 105
6, 64980, Note_on_c, 4, 83, 0
6, 64980, Note_on_c, 4, 84, 105
6, 65008, Note_on_c, 4, 84, 0
6, 65008, Note_on_c, 4, 83, 105
6, 65040, Note_on_c, 4, 83, 0
6, 65040, Note_on_c, 4, 67, 0
6, 65040, Note_on_c, 4, 84, 105
6, 65040, Note_on_c, 4, 65, 105
6, 65068, Note_on_c, 4, 84, 0
6, 65068, Note_on_c, 4, 83, 105
6, 65100, Note_on_c, 4, 83, 0
6, 65100, Note_on_c, 4, 84, 105
6, 65128, Note_on_c, 4, 84, 0
6, 65128, Note_on_c, 4, 83, 105
6, 65160, Note_on_c, 4, 83, 0
6, 65160, Note_on_c, 4, 65, 0
6, 65160, Note_on_c, 4, 81, 105
6, 65160, Note_on_c, 4, 67, 105
6, 65220, Note_on_c, 4, 81, 0
6, 65220, Note_on_c, 4, 83, 105
6, 65280, Note_on_c, 4, 83, 0
6, 65280, Note_on_c, 4, 67, 0
6, 65280, Note_on_c, 4, 84, 105
6, 65280, Note_on_c, 4, 60, 105
6, 65400, Note_on_c, 4, 60, 0
6, 65400, Note_on_c, 4, 67, 105
6, 65520, Note_on_c, 4, 67, 0
6, 65520, Note_on_c, 4, 64, 105
6, 65640, Note_on_c, 4, 64, 0
6, 65640, Note_on_c, 4, 84, 0
6, 65640, Note_on_c, 4, 79, 105
6, 65640, Note_on_c, 4, 67, 105
6, 65760, Note_on_c, 4, 67, 0
6, 65760, Note_on_c, 4, 79, 0
6, 65760, Note_on_c, 4, 84, 105
6, 65760, Note_on_c, 4, 60, 105
6, 65880, Note_on_c, 4, 60, 0
6, 65880, Note_on_c, 4, 67, 105
6, 66000, Note_on_c, 4, 67, 0
6, 66000, Note_on_c, 4, 64, 105
6, 66120, Note_on_c, 4, 64, 0
6, 66120, Note_on_c, 4, 67, 105
6, 66240, Note_on_c, 4, 67, 0
6, 66240, Note_on_c, 4, 84, 0
6, 66240, Note_on_c, 4, 62, 105
6, 66360, Note_on_c, 4, 62, 0
6, 66360, Note_on_c, 4, 67, 105
6, 66480, Note_on_c, 4, 67, 0
6, 66480, Note_on_c, 4, 65, 105
6, 66600, Note_on_c, 4, 65, 0
6, 66600, Note_on_c, 4, 67, 105
6, 66720, Note_on_c, 4, 67, 0
6, 66720, Note_on_c, 4, 79, 105
6, 66720, Note_on_c, 4, 60, 105
6, 66840, Note_on_c, 4, 60, 0
6, 66840, Note_on_c, 4, 67, 105
6, 66960, Note_on_c, 4, 67, 0
6, 66960, Note_on_c, 4, 64, 105
6, 67080, Note_on_c, 4, 64, 0
6, 67080, Note_on_c, 4, 67, 105
6, 67200, Note_on_c, 4, 67, 0
6, 67200, Note_on_c, 4, 79, 0
6, 67200, Note_on_c, 4, 81, 105
6, 67200, Note_on_c, 4, 60, 105
6, 67260, Note_on_c, 4, 81, 0
6, 67260, Note_on_c, 4, 79, 105
6, 67320, Note_on_c, 4, 79, 0
6, 67320, Note_on_c, 4, 60, 0
6, 67320, Note_on_c, 4, 81, 105
6, 67320, Note_on_c, 4, 67, 105
6, 67348, Note_on_c, 4, 81, 0
6, 67348, Note_on_c, 4, 79, 105
6, 67380, Note_on_c, 4, 79, 0
6, 67380, Note_on_c, 4, 81, 105
6, 67408, Note_on_c, 4, 81, 0
6, 67408, Note_on_c, 4, 79, 105
6, 67440, Note_on_c, 4, 79, 0
6, 67440, Note_on_c, 4, 67, 0
6, 67440, Note_on_c, 4, 81, 105
6, 67440, Note_on_c, 4, 64, 105
6, 67468, Note_on_c, 4, 81, 0
6, 67468, Note_on_c, 4, 79, 105
6, 67500, Note_on_c, 4, 79, 0
6, 67500, Note_on_c, 4, 81, 105
6, 67528, Note_on_c, 4, 81, 0
6, 67528, Note_on_c, 4, 79, 105
6, 67560, Note_on_c, 4, 79, 0
6, 67560, Note_on_c, 4, 64, 0
6, 67560, Note_on_c, 4, 77, 105
6, 67560, Note_on_c, 4, 67, 105
6, 67620, Note_on_c, 4, 77, 0
6, 67620, Note_on_c, 4, 79, 105
6, 67680, Note_on_c, 4, 79, 0
6, 67680, Note_on_c, 4, 67, 0
6, 67680, Note_on_c, 4, 84, 105
6, 67680, Note_on_c, 4, 62, 105
6, 67740, Note_on_c, 4, 84, 0
6, 67740, Note_on_c, 4, 83, 105
6, 67800, Note_on_c, 4, 83, 0
6, 67800, Note_on_c, 4, 62, 0
6, 67800, Note_on_c, 4, 84, 105
6, 67800, Note_on_c, 4, 67, 105
6, 67828, Note_on_c, 4, 84, 0
6, 67828, Note_on_c, 4, 83, 105
6, 67860, Note_on_c, 4, 83, 0
6, 67860, Note_on_c, 4, 84, 105
6, 67888, Note_on_c, 4, 84, 0
6, 67888, Note_on_c, 4, 83, 105
6, 67920, Note_on_c, 4, 83, 0
6, 67920, Note_on_c, 4, 67, 0
6, 67920, Note_on_c, 4, 84, 105
6, 67920, Note_on_c, 4, 65, 105
6, 67948, Note_on_c, 4, 84, 0
6, 67948, Note_on_c, 4, 83, 105
6, 67980, Note_on_c, 4, 83, 0
6, 67980, Note_on_c, 4, 84, 105
6, 68008, Note_on_c, 4, 84, 0
6, 68008, Note_on_c, 4, 83, 105
6, 68040, Note_on_c, 4, 83, 0
6, 68040, Note_on_c, 4, 65, 0
6, 68040, Note_on_c, 4, 81, 105
6, 68040, Note_on_c, 4, 67, 105
6, 68100, Note_on_c, 4, 81, 0
6, 68100, Note_on_c, 4, 83, 105
6, 68160, Note_on_c, 4, 83, 0
6, 68160, Note_on_c, 4, 67, 0
6, 68160, Note_on_c, 4, 84, 105
6, 68160, Note_on_c, 4, 60, 105
6, 68160, Note_on_c, 4, 64, 105
6, 68160, Note_on_c, 4, 67, 105
6, 68640, Note_on_c, 4, 67, 0
6, 68640, Note_on_c, 4, 84, 0
6, 68640, Note_on_c, 4, 60, 0
6, 68640, Note_on_c, 4, 64, 0
6, 72480, Note_on_c, 4, 84, 105
6, 72480, Note_on_c, 4, 76, 105
6, 72480, Note_on_c, 4, 79, 105
6, 72560, Note_on_c, 4, 84, 0
6, 72560, Note_on_c, 4, 86, 105
6, 72636, Note_on_c, 4, 86, 0
6, 72636, Note_on_c, 4, 84, 105
6, 72720, Note_on_c, 4, 84, 0
6, 72720, Note_on_c, 4, 79, 0
6, 72720, Note_on_c, 4, 76, 0
6, 72720, Note_on_c, 4, 83, 105
6, 72720, Note_on_c, 4, 74, 105
6, 72720, Note_on_c, 4, 77, 105
6, 72800, Note_on_c, 4, 83, 0
6, 72800, Note_on_c, 4, 84, 105
6, 72876, Note_on_c, 4, 84, 0
6, 72876, Note_on_c, 4, 83, 105
6, 72960, Note_on_c, 4, 83, 0
6, 72960, Note_on_c, 4, 77, 0
6, 72960, Note_on_c, 4, 74, 0
6, 72960, Note_on_c, 4, 81, 105
6, 72960, Note_on_c, 4, 72, 105
6, 72960, Note_on_c, 4, 76, 105
6, 73040, Note_on_c, 4, 81, 0
6, 73040, Note_on_c, 4, 83, 105
6, 73116, Note_on_c, 4, 83, 0
6, 73116, Note_on_c, 4, 81, 105
6, 73200, Note_on_c, 4, 81, 0
6, 73200, Note_on_c, 4, 76, 0
6, 73200, Note_on_c, 4, 72, 0
6, 73200, Note_on_c, 4, 79, 105
6, 73200, Note_on_c, 4, 71, 105
6, 73200, Note_on_c, 4, 74, 105
6, 73280, Note_on_c, 4, 79, 0
6, 73280, Note_on_c, 4, 81, 105
6, 73356, Note_on_c, 4, 81, 0
6, 73356, Note_on_c, 4, 79, 105
6, 73440, Note_on_c, 4, 79, 0
6, 73440, Note_on_c, 4, 74, 0
6, 73440, Note_on_c, 4, 71, 0
6, 73440, Note_on_c, 4, 77, 105
6, 73440, Note_on_c, 4, 69, 105
6, 73440, Note_on_c, 4, 72, 105
6, 73520, Note_on_c, 4, 77, 0
6, 73520, Note_on_c, 4, 79, 105
6, 73596, Note_on_c, 4, 79, 0
6, 73596, Note_on_c, 4, 77, 105
6, 73680, Note_on_c, 4, 77, 0
6, 73680, Note_on_c, 4, 72, 0
6, 73680, Note_on_c, 4, 69, 0
6, 73680, Note_on_c, 4, 76, 105
6, 73680, Note_on_c, 4, 67, 105
6, 73680, Note_on_c, 4, 71, 105
6, 73760, Note_on_c, 4, 76, 0
6, 73760, Note_on_c, 4, 77, 105
6, 73836, Note_on_c, 4, 77, 0
6, 73836, Note_on_c, 4, 76, 105
6, 73920, Note_on_c, 4, 76, 0
6, 73920, Note_on_c, 4, 71, 0
6, 73920, Note_on_c, 4, 67, 0
6, 73920, Note_on_c, 4, 74, 105
6, 73920, Note_on_c, 4, 65, 105
6, 73920, Note_on_c, 4, 69, 105
6, 73980, Note_on_c, 4, 74, 0
6, 73980, Note_on_c, 4, 76, 105
6, 74040, Note_on_c, 4, 76, 0
6, 74040, Note_on_c, 4, 74, 105
6, 74100, Note_on_c, 4, 74, 0
6, 74100, Note_on_c, 4, 73, 105
6, 74160, Note_on_c, 4, 73, 0
6, 74160, Note_on_c, 4, 74, 105
6, 74220, Note_on_c, 4, 74, 0
6, 74220, Note_on_c, 4, 76, 105
6, 74280, Note_on_c, 4, 76, 0
6, 74280, Note_on_c, 4, 74, 105
6, 74340, Note_on_c, 4, 74, 0
6, 74340, Note_on_c, 4, 76, 105
6, 74400, Note_on_c, 4, 76, 0
6, 74400, Note_on_c, 4, 69, 0
6, 74400, Note_on_c, 4, 65, 0
6, 74400, Note_on_c, 4, 77, 105
6, 74400, Note_on_c, 4, 65, 105
6, 74400, Note_on_c, 4, 69, 105
6, 74460, Note_on_c, 4, 77, 0
6, 74460, Note_on_c, 4, 79, 105
6, 74520, Note_on_c, 4, 79, 0
6, 74520, Note_on_c, 4, 77, 105
6, 74580, Note_on_c, 4, 77, 0
6, 74580, Note_on_c, 4, 76, 105
6, 74640, Note_on_c, 4, 76, 0
6, 74640, Note_on_c, 4, 77, 105
6, 74700, Note_on_c, 4, 77, 0
6, 74700, Note_on_c, 4, 79, 105
6, 74760, Note_on_c, 4, 79, 0
6, 74760, Note_on_c, 4, 77, 105
6, 74820, Note_on_c, 4, 77, 0
6, 74820, Note_on_c, 4, 79, 105
6, 74880, Note_on_c, 4, 79, 0
6, 74880, Note_on_c, 4, 69, 0
6, 74880, Note_on_c, 4, 65, 0
6, 74880, Note_on_c, 4, 81, 105
6, 74880, Note_on_c, 4, 65, 105
6, 74880, Note_on_c, 4, 69, 105
6, 74940, Note_on_c, 4, 81, 0
6, 74940, Note_on_c, 4, 83, 105
6, 75000, Note_on_c, 4, 83, 0
6, 75000, Note_on_c, 4, 81, 105
6, 75060, Note_on_c, 4, 81, 0
6, 75060, Note_on_c, 4, 79, 105
6, 75120, Note_on_c, 4, 79, 0
6, 75120, Note_on_c, 4, 69, 0
6, 75120, Note_on_c, 4, 65, 0
6, 75120, Note_on_c, 4, 81, 105
6, 75120, Note_on_c, 4, 65, 105
6, 75120, Note_on_c, 4, 67, 105
6, 75180, Note_on_c, 4, 81, 0
6, 75180, Note_on_c, 4, 83, 105
6, 75240, Note_on_c, 4, 83, 0
6, 75240, Note_on_c, 4, 81, 105
6, 75300, Note_on_c, 4, 81, 0
6, 75300, Note_on_c, 4, 83, 105
6, 75360, Note_on_c, 4, 83, 0
6, 75360, Note_on_c, 4, 67, 0
6, 75360, Note_on_c, 4, 65, 0
6, 75360, Note_on_c, 4, 84, 105
6, 75360, Note_on_c, 4, 64, 105
6, 75360, Note_on_c, 4, 67, 105
6, 75420, Note_on_c, 4, 84, 0
6, 75420, Note_on_c, 4, 83, 105
6, 75480, Note_on_c, 4, 83, 0
6, 75480, Note_on_c, 4, 84, 105
6, 75540, Note_on_c, 4, 84, 0
6, 75540, Note_on_c, 4, 79, 105
6, 75600, Note_on_c, 4, 79, 0
6, 75600, Note_on_c, 4, 67, 0
6, 75600, Note_on_c, 4, 64, 0
6, 75600, Note_on_c, 4, 83, 105
6, 75600, Note_on_c, 4, 65, 105
6, 75600, Note_on_c, 4, 72, 105
6, 75660, Note_on_c, 4, 83, 0
6, 75660, Note_on_c, 4, 81, 105
6, 75720, Note_on_c, 4, 81, 0
6, 75720, Note_on_c, 4, 79, 105
6, 75780, Note_on_c, 4, 79, 0
6, 75780, Note_on_c, 4, 77, 105
6, 75840, Note_on_c, 4, 77, 0
6, 75840, Note_on_c, 4, 72, 0
6, 75840, Note_on_c, 4, 65, 0
6, 75840, Note_on_c, 4, 76, 105
6, 75840, Note_on_c, 4, 67, 105
6, 75840, Note_on_c, 4, 72, 105
6, 76080, Note_on_c, 4, 72, 0
6, 76080, Note_on_c, 4, 67, 0
6, 76080, Note_on_c, 4, 67, 105
6, 76080, Note_on_c, 4, 72, 105
6, 76320, Note_on_c, 4, 72, 0
6, 76320, Note_on_c, 4, 67, 0
6, 76320, Note_on_c, 4, 76, 0
6, 76320, Note_on_c, 4, 76, 105
6, 76320, Note_on_c, 4, 67, 105
6, 76320, Note_on_c, 4, 71, 105
6, 76380, Note_on_c, 4, 76, 0
6, 76380, Note_on_c, 4, 74, 105
6, 76440, Note_on_c, 4, 74, 0
6, 76440, Note_on_c, 4, 76, 105
6, 76468, Note_on_c, 4, 76, 0
6, 76468, Note_on_c, 4, 74, 105
6, 76500, Note_on_c, 4, 74, 0
6, 76500, Note_on_c, 4, 76, 105
6, 76528, Note_on_c, 4, 76, 0
6, 76528, Note_on_c, 4, 74, 105
6, 76560, Note_on_c, 4, 74, 0
6, 76560, Note_on_c, 4, 71, 0
6, 76560, Note_on_c, 4, 67, 0
6, 76560, Note_on_c, 4, 76, 105
6, 76560, Note_on_c, 4, 67, 105
6, 76560, Note_on_c, 4, 71, 105
6, 76588, Note_on_c, 4, 76, 0
6, 76588, Note_on_c, 4, 74, 105
6, 76620, Note_on_c, 4, 74, 0
6, 76620, Note_on_c, 4, 76, 105
6, 76648, Note_on_c, 4, 76, 0
6, 76648, Note_on_c, 4, 74, 105
6, 76680, Note_on_c, 4, 74, 0
6, 76680, Note_on_c, 4, 72, 105
6, 76740, Note_on_c, 4, 72, 0
6, 76740, Note_on_c, 4, 74, 105
6, 76800, Note_on_c, 4, 74, 0
6, 76800, Note_on_c, 4, 71, 0
6, 76800, Note_on_c, 4, 67, 0
6, 76800, Note_on_c, 4, 72, 96
6, 76800, Note_on_c, 4, 48, 96
6, 76880, Note_on_c, 4, 48, 0
6, 76880, Note_on_c, 4, 52, 80
6, 76956, Note_on_c, 4, 52, 0
6, 76956, Note_on_c, 4, 55, 80
6, 77040, Note_on_c, 4, 55, 0
6, 77040, Note_on_c, 4, 72, 0
6, 77040, Note_on_c, 4, 72, 78
6, 77040, Note_on_c, 4, 60, 78
6, 77120, Note_on_c, 4, 60, 0
6, 77120, Note_on_c, 4, 52, 79
6, 77196, Note_on_c, 4, 52, 0
6, 77196, Note_on_c, 4, 55, 79
6, 77280, Note_on_c, 4, 55, 0
6, 77280, Note_on_c, 4, 72, 0
6, 77280, Note_on_c, 4, 48, 104
6, 77360, Note_on_c, 4, 48, 0
6, 77360, Note_on_c, 4, 52, 106
6, 77400, Note_on_c, 4, 72, 106
6, 77436, Note_on_c, 4, 52, 0
6, 77436, Note_on_c, 4, 55, 104
6, 77520, Note_on_c, 4, 55, 0
6, 77520, Note_on_c, 4, 72, 0
6, 77520, Note_on_c, 4, 71, 104
6, 77520, Note_on_c, 4, 60, 104
6, 77600, Note_on_c, 4, 60, 0
6, 77600, Note_on_c, 4, 52, 104
6, 77640, Note_on_c, 4, 71, 0
6, 77640, Note_on_c, 4, 72, 104
6, 77676, Note_on_c, 4, 52, 0
6, 77676, Note_on_c, 4, 55, 104
6, 77760, Note_on_c, 4, 55, 0
6, 77760, Note_on_c, 4, 72, 0
6, 77760, Note_on_c, 4, 76, 104
6, 77760, Note_on_c, 4, 48, 104
6, 77840, Note_on_c, 4, 48, 0
6, 77840, Note_on_c, 4, 52, 104
6, 77880, Note_on_c, 4, 76, 0
6, 77880, Note_on_c, 4, 72, 104
6, 77916, Note_on_c, 4, 52, 0
6, 77916, Note_on_c, 4, 55, 104
6, 78000, Note_on_c, 4, 55, 0
6, 78000, Note_on_c, 4, 72, 0
6, 78000, Note_on_c, 4, 79, 104
6, 78000, Note_on_c, 4, 60, 104
6, 78080, Note_on_c, 4, 60, 0
6, 78080, Note_on_c, 4, 52, 104
6, 78120, Note_on_c, 4, 79, 0
6, 78120, Note_on_c, 4, 76, 104
6, 78156, Note_on_c, 4, 52, 0
6, 78156, Note_on_c, 4, 55, 104
6, 78240, Note_on_c, 4, 55, 0
6, 78240, Note_on_c, 4, 76, 0
6, 78240, Note_on_c, 4, 74, 104
6, 78240, Note_on_c, 4, 48, 104
6, 78320, Note_on_c, 4, 48, 0
6, 78320, Note_on_c, 4, 53, 80
6, 78396, Note_on_c, 4, 53, 0
6, 78396, Note_on_c, 4, 55, 80
6, 78480, Note_on_c, 4, 55, 0
6, 78480, Note_on_c, 4, 74, 0
6, 78480, Note_on_c, 4, 74, 91
6, 78480, Note_on_c, 4, 59, 80
6, 78560, Note_on_c, 4, 59, 0
6, 78560, Note_on_c, 4, 53, 80
6, 78636, Note_on_c, 4, 53, 0
6, 78636, Note_on_c, 4, 55, 80
6, 78720, Note_on_c, 4, 55, 0
6, 78720, Note_on_c, 4, 74, 0
6, 78720, Note_on_c, 4, 48, 80
6, 78800, Note_on_c, 4, 48, 0
6, 78800, Note_on_c, 4, 53, 101
6, 78840, Note_on_c, 4, 74, 101
6, 78876, Note_on_c, 4, 53, 0
6, 78876, Note_on_c, 4, 55, 101
6, 78960, Note_on_c, 4, 55, 0
6, 78960, Note_on_c, 4, 74, 0
6, 78960, Note_on_c, 4, 73, 101
6, 78960, Note_on_c, 4, 59, 101
6, 79040, Note_on_c, 4, 59, 0
6, 79040, Note_on_c, 4, 53, 101
6, 79080, Note_on_c, 4, 73, 0
6, 79080, Note_on_c, 4, 74, 101
6, 79116, Note_on_c, 4, 53, 0
6, 79116, Note_on_c, 4, 55, 101
6, 79200, Note_on_c, 4, 55, 0
6, 79200, Note_on_c, 4, 74, 0
6, 79200, Note_on_c, 4, 77, 101
6, 79200, Note_on_c, 4, 48, 101
6, 79280, Note_on_c, 4, 48, 0
6, 79280, Note_on_c, 4, 53, 101
6, 79320, Note_on_c, 4, 77, 0
6, 79320, Note_on_c, 4, 74, 101
6, 79356, Note_on_c, 4, 53, 0
6, 79356, Note_on_c, 4, 55, 101
6, 79440, Note_on_c, 4, 55, 0
6, 79440, Note_on_c, 4, 74, 0
6, 79440, Note_on_c, 4, 81, 101
6, 79440, Note_on_c, 4, 59, 101
6, 79520, Note_on_c, 4, 59, 0
6, 79520, Note_on_c, 4, 53, 101
6, 79560, Note_on_c, 4, 81, 0
6, 79560, Note_on_c, 4, 77, 101
6, 79596, Note_on_c, 4, 53, 0
6, 79596, Note_on_c, 4, 55, 101
6, 79680, Note_on_c, 4, 55, 0
6, 79680, Note_on_c, 4, 77, 0
6, 79680, Note_on_c, 4, 77, 96
6, 79680, Note_on_c, 4, 48, 90
6, 79760, Note_on_c, 4, 48, 0
6, 79760, Note_on_c, 4, 52, 90
6, 79800, Note_on_c, 4, 77, 0
6, 79800, Note_on_c, 4, 76, 97
6, 79836, Note_on_c, 4, 52, 0
6, 79836, Note_on_c, 4, 55, 90
6, 79844, Note_on_c, 4, 76, 0
6, 79920, Note_on_c, 4, 55, 0
6, 79920, Note_on_c, 4, 76, 97
6, 79920, Note_on_c, 4, 58, 90
6, 80000, Note_on_c, 4, 58, 0
6, 80000, Note_on_c, 4, 52, 90
6, 80016, Note_on_c, 4, 76, 0
6, 80076, Note_on_c, 4, 52, 0
6, 80076, Note_on_c, 4, 55, 90
6, 80160, Note_on_c, 4, 55, 0
6, 80160, Note_on_c, 4, 48, 90
6, 80240, Note_on_c, 4, 48, 0
6, 80240, Note_on_c, 4, 52, 107
6, 80280, Note_on_c, 4, 76, 107
6, 80316, Note_on_c, 4, 52, 0
6, 80316, Note_on_c, 4, 55, 107
6, 80400, Note_on_c, 4, 55, 0
6, 80400, Note_on_c, 4, 76, 0
6, 80400, Note_on_c, 4, 77, 107
6, 80400, Note_on_c, 4, 58, 107
6, 80480, Note_on_c, 4, 58, 0
6, 80480, Note_on_c, 4, 52, 108
6, 80520, Note_on_c, 4, 77, 0
6, 80520, Note_on_c, 4, 76, 108
6, 80556, Note_on_c, 4, 52, 0
6, 80556, Note_on_c, 4, 55, 108
6, 80640, Note_on_c, 4, 55, 0
6, 80640, Note_on_c, 4, 76, 0
6, 80640, Note_on_c, 4, 79, 108
6, 80640, Note_on_c, 4, 48, 108
6, 80720, Note_on_c, 4, 48, 0
6, 80720, Note_on_c, 4, 52, 108
6, 80760, Note_on_c, 4, 79, 0
6, 80760, Note_on_c, 4, 76, 109
6, 80796, Note_on_c, 4, 52, 0
6, 80796, Note_on_c, 4, 55, 109
6, 80880, Note_on_c, 4, 55, 0
6, 80880, Note_on_c, 4, 76, 0
6, 80880, Note_on_c, 4, 82, 109
6, 80880, Note_on_c, 4, 58, 109
6, 80960, Note_on_c, 4, 58, 0
6, 80960, Note_on_c, 4, 52, 109
6, 81000, Note_on_c, 4, 82, 0
6, 81000, Note_on_c, 4, 79, 109
6, 81036, Note_on_c, 4, 52, 0
6, 81036, Note_on_c, 4, 55, 110
6, 81120, Note_on_c, 4, 55, 0
6, 81120, Note_on_c, 4, 79, 0
6, 81120, Note_on_c, 4, 79, 110
6, 81120, Note_on_c, 4, 48, 110
6, 81200, Note_on_c, 4, 48, 0
6, 81200, Note_on_c, 4, 53, 110
6, 81240, Note_on_c, 4, 79, 0
6, 81240, Note_on_c, 4, 77, 110
6, 81276, Note_on_c, 4, 53, 0
6, 81276, Note_on_c, 4, 57, 111
6, 81284, Note_on_c, 4, 77, 0
6, 81360, Note_on_c, 4, 57, 0
6, 81360, Note_on_c, 4, 77, 111
6, 81360, Note_on_c, 4, 60, 111
6, 81440, Note_on_c, 4, 60, 0
6, 81440, Note_on_c, 4, 53, 111
6, 81456, Note_on_c, 4, 77, 0
6, 81516, Note_on_c, 4, 53, 0
6, 81516, Note_on_c, 4, 57, 111
6, 81600, Note_on_c, 4, 57, 0
6, 81600, Note_on_c, 4, 48, 112
6, 81680, Note_on_c, 4, 48, 0
6, 81680, Note_on_c, 4, 53, 112
6, 81720, Note_on_c, 4, 77, 112
6, 81756, Note_on_c, 4, 53, 0
6, 81756, Note_on_c, 4, 57, 112
6, 81840, Note_on_c, 4, 57, 0
6, 81840, Note_on_c, 4, 77, 0
6, 81840, Note_on_c, 4, 76, 113
6, 81840, Note_on_c, 4, 60, 113
6, 81920, Note_on_c, 4, 60, 0
6, 81920, Note_on_c, 4, 53, 113
6, 81960, Note_on_c, 4, 76, 0
6, 81960, Note_on_c, 4, 77, 113
6, 81996, Note_on_c, 4, 53, 0
6, 81996, Note_on_c, 4, 57, 113
6, 82080, Note_on_c, 4, 57, 0
6, 82080, Note_on_c, 4, 77, 0
6, 82080, Note_on_c, 4, 81, 114
6, 82080, Note_on_c, 4, 48, 114
6, 82160, Note_on_c, 4, 48, 0
6, 82160, Note_on_c, 4, 53, 114
6, 82200, Note_on_c, 4, 81, 0
6, 82200, Note_on_c, 4, 77, 114
6, 82236, Note_on_c, 4, 53, 0
6, 82236, Note_on_c, 4, 57, 114
6, 82320, Note_on_c, 4, 57, 0
6, 82320, Note_on_c, 4, 77, 0
6, 82320, Note_on_c, 4, 84, 114
6, 82320, Note_on_c, 4, 60, 114
6, 82400, Note_on_c, 4, 60, 0
6, 82400, Note_on_c, 4, 53, 115
6, 82440, Note_on_c, 4, 84, 0
6, 82440, Note_on_c, 4, 81, 115
6, 82476, Note_on_c, 4, 53, 0
6, 82476, Note_on_c, 4, 57, 115
6, 82560, Note_on_c, 4, 57, 0
6, 82560, Note_on_c, 4, 81, 0
6, 82560, Note_on_c, 4, 79, 115
6, 82560, Note_on_c, 4, 82, 115
6, 82560, Note_on_c, 4, 48, 115
6, 82640, Note_on_c, 4, 48, 0
6, 82640, Note_on_c, 4, 52, 116
6, 82716, Note_on_c, 4, 52, 0
6, 82716, Note_on_c, 4, 55, 116
6, 82800, Note_on_c, 4, 55, 0
6, 82800, Note_on_c, 4, 82, 0
6, 82800, Note_on_c, 4, 79, 0
6, 82800, Note_on_c, 4, 79, 116
6, 82800, Note_on_c, 4, 82, 116
6, 82800, Note_on_c, 4, 60, 116
6, 82880, Note_on_c, 4, 60, 0
6, 82880, Note_on_c, 4, 52, 117
6, 82956, Note_on_c, 4, 52, 0
6, 82956, Note_on_c, 4, 55, 117
6, 83040, Note_on_c, 4, 55, 0
6, 83040, Note_on_c, 4, 48, 117
6, 83160, Note_on_c, 4, 82, 0
6, 83160, Note_on_c, 4, 79, 0
6, 83160, Note_on_c, 4, 77, 117
6, 83160, Note_on_c, 4, 81, 117
6, 83280, Note_on_c, 4, 81, 0
6, 83280, Note_on_c, 4, 77, 0
6, 83280, Note_on_c, 4, 76, 112
6, 83280, Note_on_c, 4, 79, 112
6, 83400, Note_on_c, 4, 79, 0
6, 83400, Note_on_c, 4, 76, 0
6, 83400, Note_on_c, 4, 74, 107
6, 83400, Note_on_c, 4, 77, 107
6, 83520, Note_on_c, 4, 77, 0
6, 83520, Note_on_c, 4, 74, 0
6, 83520, Note_on_c, 4, 48, 0
6, 83520, Note_on_c, 4, 72, 102
6, 83520, Note_on_c, 4, 76, 102
6, 83640, Note_on_c, 4, 76, 0
6, 83640, Note_on_c, 4, 72, 0
6, 83640, Note_on_c, 4, 70, 97
6, 83640, Note_on_c, 4, 74, 97
6, 83760, Note_on_c, 4, 74, 0
6, 83760, Note_on_c, 4, 70, 0
6, 83760, Note_on_c, 4, 69, 92
6, 83760, Note_on_c, 4, 72, 92
6, 83880, Note_on_c, 4, 72, 0
6, 83880, Note_on_c, 4, 69, 0
6, 83880, Note_on_c, 4, 67, 104
6, 83880, Note_on_c, 4, 70, 104
6, 83908, Note_on_c, 4, 57, 109
6, 83940, Note_on_c, 4, 60, 110
6, 83940, Note_on_c, 4, 41, 105
6, 83949, Note_on_c, 4, 67, 0
6, 83954, Note_on_c, 4, 70, 0
6, 83968, Note_on_c, 4, 65, 114
6, 84000, Note_on_c, 4, 41, 0
6, 84000, Note_on_c, 4, 69, 117
6, 84000, Note_on_c, 4, 53, 70
6, 84240, Note_on_c, 4, 53, 0
6, 84240, Note_on_c, 4, 60, 0
6, 84240, Note_on_c, 4, 65, 0
6, 84240, Note_on_c, 4, 57, 0
6, 84240, Note_on_c, 4, 69, 0
6, 84388, Note_on_c, 4, 57, 89
6, 84420, Note_on_c, 4, 60, 94
6, 84420, Note_on_c, 4, 41, 94
6, 84448, Note_on_c, 4, 65, 94
6, 84480, Note_on_c, 4, 41, 0
6, 84480, Note_on_c, 4, 69, 96
6, 84480, Note_on_c, 4, 53, 96
6, 84720, Note_on_c, 4, 53, 0
6, 84720, Note_on_c, 4, 57, 0
6, 84720, Note_on_c, 4, 65, 0
6, 84720, Note_on_c, 4, 60, 0
6, 84720, Note_on_c, 4, 69, 0
6, 84868, Note_on_c, 4, 57, 83
6, 84900, Note_on_c, 4, 60, 84
6, 84900, Note_on_c, 4, 41, 84
6, 84928, Note_on_c, 4, 65, 84
6, 84960, Note_on_c, 4, 41, 0
6, 84960, Note_on_c, 4, 69, 89
6, 84960, Note_on_c, 4, 53, 89
6, 85200, Note_on_c, 4, 53, 0
6, 85200, Note_on_c, 4, 57, 0
6, 85200, Note_on_c, 4, 65, 0
6, 85200, Note_on_c, 4, 60, 0
6, 85200, Note_on_c, 4, 69, 0
6, 85344, Note_on_c, 4, 36, 70
6, 85348, Note_on_c, 4, 58, 101
6, 85368, Note_on_c, 4, 40, 70
6, 85380, Note_on_c, 4, 60, 108
6, 85392, Note_on_c, 4, 43, 70
6, 85408, Note_on_c, 4, 64, 110
6, 85416, Note_on_c, 4, 46, 70
6, 85440, Note_on_c, 4, 67, 114
6, 85440, Note_on_c, 4, 48, 105
6, 85920, Note_on_c, 4, 64, 0
6, 85920, Note_on_c, 4, 58, 0
6, 85920, Note_on_c, 4, 60, 0
6, 86280, Note_on_c, 4, 67, 0
6, 86280, Note_on_c, 4, 64, 105
6, 86400, Note_on_c, 4, 64, 0
6, 86400, Note_on_c, 4, 36, 0
6, 86400, Note_on_c, 4, 43, 0
6, 86400, Note_on_c, 4, 48, 0
6, 86400, Note_on_c, 4, 40, 0
6, 86400, Note_on_c, 4, 46, 0
6, 86400, Note_on_c, 4, 57, 105
6, 86400, Note_on_c, 4, 65, 105
6, 86400, Note_on_c, 4, 41, 105
6, 86640, Note_on_c, 4, 41, 0
6, 86640, Note_on_c, 4, 65, 0
6, 86640, Note_on_c, 4, 57, 0
6, 86880, Note_on_c, 4, 65, 82
6, 86880, Note_on_c, 4, 69, 82
6, 87000, Note_on_c, 4, 69, 0
6, 87000, Note_on_c, 4, 65, 0
6, 87000, Note_on_c, 4, 67, 86
6, 87000, Note_on_c, 4, 70, 86
6, 87120, Note_on_c, 4, 70, 0
6, 87120, Note_on_c, 4, 67, 0
6, 87120, Note_on_c, 4, 69, 89
6, 87120, Note_on_c, 4, 72, 89
6, 87240, Note_on_c, 4, 72, 0
6, 87240, Note_on_c, 4, 69, 0
6, 87240, Note_on_c, 4, 70, 89
6, 87240, Note_on_c, 4, 74, 89
6, 87360, Note_on_c, 4, 74, 0
6, 87360, Note_on_c, 4, 70, 0
6, 87360, Note_on_c, 4, 69, 88
6, 87360, Note_on_c, 4, 72, 88
6, 87480, Note_on_c, 4, 72, 0
6, 87480, Note_on_c, 4, 69, 0
6, 87480, Note_on_c, 4, 70, 84
6, 87480, Note_on_c, 4, 74, 84
6, 87600, Note_on_c, 4, 74, 0
6, 87600, Note_on_c, 4, 70, 0
6, 87600, Note_on_c, 4, 67, 83
6, 87600, Note_on_c, 4, 76, 83
6, 87720, Note_on_c, 4, 76, 0
6, 87720, Note_on_c, 4, 67, 0
6, 87720, Note_on_c, 4, 69, 83
6, 87720, Note_on_c, 4, 77, 83
6, 87840, Note_on_c, 4, 77, 0
6, 87840, Note_on_c, 4, 69, 0
6, 87840, Note_on_c, 4, 67, 81
6, 87840, Note_on_c, 4, 76, 81
6, 87960, Note_on_c, 4, 76, 0
6, 87960, Note_on_c, 4, 67, 0
6, 87960, Note_on_c, 4, 69, 82
6, 87960, Note_on_c, 4, 77, 82
6, 88080, Note_on_c, 4, 77, 0
6, 88080, Note_on_c, 4, 69, 0
6, 88080, Note_on_c, 4, 67, 82
6, 88080, Note_on_c, 4, 76, 82
6, 88200, Note_on_c, 4, 76, 0
6, 88200, Note_on_c, 4, 67, 0
6, 88200, Note_on_c, 4, 69, 83
6, 88200, Note_on_c, 4, 77, 83
6, 88320, Note_on_c, 4, 77, 0
6, 88320, Note_on_c, 4, 69, 0
6, 88320, Note_on_c, 4, 65, 85
6, 88320, Note_on_c, 4, 70, 85
6, 88320, Note_on_c, 4, 53, 85
6, 88320, Note_on_c, 4, 62, 85
6, 88560, Note_on_c, 4, 62, 0
6, 88560, Note_on_c, 4, 53, 0
6, 88800, Note_on_c, 4, 65, 0
6, 88800, Note_on_c, 4, 53, 88
6, 88800, Note_on_c, 4, 58, 88
6, 89040, Note_on_c, 4, 58, 0
6, 89040, Note_on_c, 4, 53, 0
6, 89160, Note_on_c, 4, 70, 0
6, 89160, Note_on_c, 4, 72, 96
6, 89220, Note_on_c, 4, 72, 0
6, 89220, Note_on_c, 4, 74, 96
6, 89280, Note_on_c, 4, 74, 0
6, 89280, Note_on_c, 4, 72, 98
6, 89280, Note_on_c, 4, 53, 98
6, 89280, Note_on_c, 4, 57, 98
6, 89520, Note_on_c, 4, 57, 0
6, 89520, Note_on_c, 4, 53, 0
6, 89520, Note_on_c, 4, 72, 0
6, 89760, Note_on_c, 4, 41, 105
6, 89820, Note_on_c, 4, 41, 0
6, 89820, Note_on_c, 4, 53, 105
6, 89880, Note_on_c, 4, 53, 0
6, 89880, Note_on_c, 4, 57, 105
6, 89940, Note_on_c, 4, 57, 0
6, 89940, Note_on_c, 4, 60, 105
6, 90000, Note_on_c, 4, 60, 0
6, 90000, Note_on_c, 4, 65, 105
6, 90060, Note_on_c, 4, 65, 0
6, 90060, Note_on_c, 4, 69, 105
6, 90120, Note_on_c, 4, 69, 0
6, 90120, Note_on_c, 4, 65, 105
6, 90180, Note_on_c, 4, 65, 0
6, 90180, Note_on_c, 4, 60, 105
6, 90240, Note_on_c, 4, 60, 0
6, 90240, Note_on_c, 4, 38, 105
6, 90300, Note_on_c, 4, 38, 0
6, 90300, Note_on_c, 4, 50, 105
6, 90360, Note_on_c, 4, 50, 0
6, 90360, Note_on_c, 4, 57, 105
6, 90420, Note_on_c, 4, 57, 0
6, 90420, Note_on_c, 4, 62, 105
6, 90480, Note_on_c, 4, 62, 0
6, 90480, Note_on_c, 4, 65, 105
6, 90540, Note_on_c, 4, 65, 0
6, 90540, Note_on_c, 4, 69, 105
6, 90600, Note_on_c, 4, 69, 0
6, 90600, Note_on_c, 4, 65, 105
6, 90660, Note_on_c, 4, 65, 0
6, 90660, Note_on_c, 4, 62, 105
6, 90720, Note_on_c, 4, 62, 0
6, 90720, Note_on_c, 4, 46, 105
6, 90780, Note_on_c, 4, 46, 0
6, 90780, Note_on_c, 4, 58, 105
6, 90840, Note_on_c, 4, 58, 0
6, 90840, Note_on_c, 4, 62, 105
6, 90900, Note_on_c, 4, 62, 0
6, 90900, Note_on_c, 4, 65, 105
6, 90960, Note_on_c, 4, 65, 0
6, 90960, Note_on_c, 4, 67, 105
6, 91020, Note_on_c, 4, 67, 0
6, 91020, Note_on_c, 4, 74, 105
6, 91080, Note_on_c, 4, 74, 0
6, 91080, Note_on_c, 4, 67, 105
6, 91140, Note_on_c, 4, 67, 0
6, 91140, Note_on_c, 4, 65, 105
6, 91200, Note_on_c, 4, 65, 0
6, 91200, Note_on_c, 4, 36, 105
6, 91260, Note_on_c, 4, 36, 0
6, 91260, Note_on_c, 4, 48, 105
6, 91320, Note_on_c, 4, 48, 0
6, 91320, Note_on_c, 4, 60, 105
6, 91380, Note_on_c, 4, 60, 0
6, 91380, Note_on_c, 4, 65, 105
6, 91440, Note_on_c, 4, 65, 0
6, 91440, Note_on_c, 4, 67, 105
6, 91500, Note_on_c, 4, 67, 0
6, 91500, Note_on_c, 4, 72, 105
6, 91560, Note_on_c, 4, 72, 0
6, 91560, Note_on_c, 4, 67, 105
6, 91620, Note_on_c, 4, 67, 0
6, 91620, Note_on_c, 4, 65, 105
6, 91680, Note_on_c, 4, 65, 0
6, 91680, Note_on_c, 4, 48, 105
6, 91740, Note_on_c, 4, 48, 0
6, 91740, Note_on_c, 4, 60, 105
6, 91800, Note_on_c, 4, 60, 0
6, 91800, Note_on_c, 4, 60, 105
6, 91860, Note_on_c, 4, 60, 0
6, 91860, Note_on_c, 4, 64, 105
6, 91920, Note_on_c, 4, 64, 0
6, 91920, Note_on_c, 4, 67, 105
6, 91980, Note_on_c, 4, 67, 0
6, 91980, Note_on_c, 4, 72, 105
6, 92040, Note_on_c, 4, 72, 0
6, 92040, Note_on_c, 4, 67, 105
6, 92100, Note_on_c, 4, 67, 0
6, 92100, Note_on_c, 4, 64, 105
6, 92160, Note_on_c, 4, 64, 0
6, 92160, Note_on_c, 4, 45, 105
6, 92220, Note_on_c, 4, 45, 0
6, 92220, Note_on_c, 4, 57, 105
6, 92280, Note_on_c, 4, 57, 0
6, 92280, Note_on_c, 4, 60, 105
6, 92340, Note_on_c, 4, 60, 0
6, 92340, Note_on_c, 4, 64, 105
6, 92400, Note_on_c, 4, 64, 0
6, 92400, Note_on_c, 4, 65, 105
6, 92460, Note_on_c, 4, 65, 0
6, 92460, Note_on_c, 4, 72, 105
6, 92520, Note_on_c, 4, 72, 0
6, 92520, Note_on_c, 4, 65, 105
6, 92580, Note_on_c, 4, 65, 0
6, 92580, Note_on_c, 4, 64, 105
6, 92640, Note_on_c, 4, 64, 0
6, 92640, Note_on_c, 4, 46, 105
6, 92700, Note_on_c, 4, 46, 0
6, 92700, Note_on_c, 4, 58, 105
6, 92760, Note_on_c, 4, 58, 0
6, 92760, Note_on_c, 4, 58, 105
6, 92820, Note_on_c, 4, 58, 0
6, 92820, Note_on_c, 4, 62, 105
6, 92880, Note_on_c, 4, 62, 0
6, 92880, Note_on_c, 4, 65, 105
6, 92940, Note_on_c, 4, 65, 0
6, 92940, Note_on_c, 4, 70, 105
6, 93000, Note_on_c, 4, 70, 0
6, 93000, Note_on_c, 4, 65, 105
6, 93060, Note_on_c, 4, 65, 0
6, 93060, Note_on_c, 4, 62, 105
6, 93120, Note_on_c, 4, 62, 0
6, 93120, Note_on_c, 4, 46, 105
6, 93180, Note_on_c, 4, 46, 0
6, 93180, Note_on_c, 4, 58, 105
6, 93240, Note_on_c, 4, 58, 0
6, 93240, Note_on_c, 4, 58, 105
6, 93300, Note_on_c, 4, 58, 0
6, 93300, Note_on_c, 4, 62, 105
6, 93360, Note_on_c, 4, 62, 0
6, 93360, Note_on_c, 4, 67, 105
6, 93420, Note_on_c, 4, 67, 0
6, 93420, Note_on_c, 4, 70, 105
6, 93480, Note_on_c, 4, 70, 0
6, 93480, Note_on_c, 4, 67, 105
6, 93540, Note_on_c, 4, 67, 0
6, 93540, Note_on_c, 4, 62, 105
6, 93600, Note_on_c, 4, 62, 0
6, 93600, Note_on_c, 4, 46, 105
6, 93660, Note_on_c, 4, 46, 0
6, 93660, Note_on_c, 4, 55, 105
6, 93720, Note_on_c, 4, 55, 0
6, 93720, Note_on_c, 4, 58, 105
6, 93780, Note_on_c, 4, 58, 0
6, 93780, Note_on_c, 4, 62, 105
6, 93840, Note_on_c, 4, 62, 0
6, 93840, Note_on_c, 4, 67, 105
6, 93900, Note_on_c, 4, 67, 0
6, 93900, Note_on_c, 4, 70, 105
6, 93960, Note_on_c, 4, 70, 0
6, 93960, Note_on_c, 4, 67, 105
6, 94020, Note_on_c, 4, 67, 0
6, 94020, Note_on_c, 4, 62, 105
6, 94080, Note_on_c, 4, 62, 0
6, 94080, Note_on_c, 4, 36, 105
6, 94140, Note_on_c, 4, 36, 0
6, 94140, Note_on_c, 4, 48, 105
6, 94200, Note_on_c, 4, 48, 0
6, 94200, Note_on_c, 4, 57, 105
6, 94260, Note_on_c, 4, 57, 0
6, 94260, Note_on_c, 4, 60, 105
6, 94320, Note_on_c, 4, 60, 0
6, 94320, Note_on_c, 4, 65, 105
6, 94380, Note_on_c, 4, 65, 0
6, 94380, Note_on_c, 4, 69, 105
6, 94440, Note_on_c, 4, 69, 0
6, 94440, Note_on_c, 4, 65, 105
6, 94500, Note_on_c, 4, 65, 0
6, 94500, Note_on_c, 4, 60, 105
6, 94560, Note_on_c, 4, 60, 0
6, 94560, Note_on_c, 4, 64, 105
6, 94560, Note_on_c, 4, 67, 105
6, 95040, Note_on_c, 4, 67, 0
6, 95040, Note_on_c, 4, 64, 0
6, 101280, Note_on_c, 4, 72, 105
6, 101280, Note_on_c, 4, 53, 105
6, 101400, Note_on_c, 4, 53, 0
6, 101400, Note_on_c, 4, 60, 105
6, 101520, Note_on_c, 4, 60, 0
6, 101520, Note_on_c, 4, 57, 105
6, 101640, Note_on_c, 4, 57, 0
6, 101640, Note_on_c, 4, 60, 105
6, 101760, Note_on_c, 4, 60, 0
6, 101760, Note_on_c, 4, 53, 105
6, 101880, Note_on_c, 4, 53, 0
6, 101880, Note_on_c, 4, 60, 105
6, 102000, Note_on_c, 4, 60, 0
6, 102000, Note_on_c, 4, 72, 0
6, 102000, Note_on_c, 4, 74, 105
6, 102000, Note_on_c, 4, 57, 105
6, 102120, Note_on_c, 4, 57, 0
6, 102120, Note_on_c, 4, 74, 0
6, 102120, Note_on_c, 4, 72, 105
6, 102120, Note_on_c, 4, 60, 105
6, 102240, Note_on_c, 4, 60, 0
6, 102240, Note_on_c, 4, 72, 0
6, 102240, Note_on_c, 4, 77, 105
6, 102240, Note_on_c, 4, 53, 105
6, 102360, Note_on_c, 4, 53, 0
6, 102360, Note_on_c, 4, 77, 0
6, 102360, Note_on_c, 4, 76, 105
6, 102360, Note_on_c, 4, 60, 105
6, 102480, Note_on_c, 4, 60, 0
6, 102480, Note_on_c, 4, 76, 0
6, 102480, Note_on_c, 4, 74, 105
6, 102480, Note_on_c, 4, 57, 105
6, 102600, Note_on_c, 4, 57, 0
6, 102600, Note_on_c, 4, 74, 0
6, 102600, Note_on_c, 4, 72, 105
6, 102600, Note_on_c, 4, 60, 105
6, 102720, Note_on_c, 4, 60, 0
6, 102720, Note_on_c, 4, 72, 0
6, 102720, Note_on_c, 4, 72, 105
6, 102720, Note_on_c, 4, 52, 105
6, 102840, Note_on_c, 4, 52, 0
6, 102840, Note_on_c, 4, 58, 105
6, 102960, Note_on_c, 4, 58, 0
6, 102960, Note_on_c, 4, 55, 105
6, 103080, Note_on_c, 4, 55, 0
6, 103080, Note_on_c, 4, 72, 0
6, 103080, Note_on_c, 4, 74, 105
6, 103080, Note_on_c, 4, 58, 105
6, 103200, Note_on_c, 4, 58, 0
6, 103200, Note_on_c, 4, 74, 0
6, 103200, Note_on_c, 4, 72, 105
6, 103200, Note_on_c, 4, 52, 105
6, 103320, Note_on_c, 4, 52, 0
6, 103320, Note_on_c, 4, 58, 105
6, 103440, Note_on_c, 4, 58, 0
6, 103440, Note_on_c, 4, 55, 105
6, 103560, Note_on_c, 4, 55, 0
6, 103560, Note_on_c, 4, 58, 105
6, 103680, Note_on_c, 4, 58, 0
6, 103680, Note_on_c, 4, 72, 0
6, 103680, Note_on_c, 4, 55, 105
6, 103800, Note_on_c, 4, 55, 0
6, 103800, Note_on_c, 4, 58, 105
6, 103920, Note_on_c, 4, 58, 0
6, 103920, Note_on_c, 4, 55, 105
6, 104040, Note_on_c, 4, 55, 0
6, 104040, Note_on_c, 4, 58, 105
6, 104100, Note_on_c, 4, 67, 105
6, 104160, Note_on_c, 4, 67, 0
6, 104160, Note_on_c, 4, 58, 0
6, 104160, Note_on_c, 4, 79, 105
6, 104160, Note_on_c, 4, 48, 105
6, 104280, Note_on_c, 4, 48, 0
6, 104280, Note_on_c, 4, 58, 105
6, 104400, Note_on_c, 4, 58, 0
6, 104400, Note_on_c, 4, 52, 105
6, 104520, Note_on_c, 4, 52, 0
6, 104520, Note_on_c, 4, 58, 105
6, 104640, Note_on_c, 4, 58, 0
6, 104640, Note_on_c, 4, 48, 105
6, 104760, Note_on_c, 4, 48, 0
6, 104760, Note_on_c, 4, 58, 105
6, 104880, Note_on_c, 4, 58, 0
6, 104880, Note_on_c, 4, 79, 0
6, 104880, Note_on_c, 4, 77, 105
6, 104880, Note_on_c, 4, 52, 105
6, 104940, Note_on_c, 4, 77, 0
6, 104940, Note_on_c, 4, 76, 105
6, 105000, Note_on_c, 4, 76, 0
6, 105000, Note_on_c, 4, 52, 0
6, 105000, Note_on_c, 4, 74, 105
6, 105000, Note_on_c, 4, 58, 105
6, 105060, Note_on_c, 4, 74, 0
6, 105060, Note_on_c, 4, 72, 105
6, 105120, Note_on_c, 4, 72, 0
6, 105120, Note_on_c, 4, 58, 0
6, 105120, Note_on_c, 4, 72, 105
6, 105120, Note_on_c, 4, 48, 105
6, 105189, Note_on_c, 4, 72, 0
6, 105240, Note_on_c, 4, 48, 0
6, 105240, Note_on_c, 4, 72, 105
6, 105240, Note_on_c, 4, 58, 105
6, 105304, Note_on_c, 4, 72, 0
6, 105360, Note_on_c, 4, 58, 0
6, 105360, Note_on_c, 4, 72, 105
6, 105360, Note_on_c, 4, 52, 105
6, 105434, Note_on_c, 4, 72, 0
6, 105480, Note_on_c, 4, 52, 0
6, 105480, Note_on_c, 4, 72, 105
6, 105480, Note_on_c, 4, 58, 105
6, 105600, Note_on_c, 4, 58, 0
6, 105600, Note_on_c, 4, 72, 0
6, 105600, Note_on_c, 4, 72, 105
6, 105600, Note_on_c, 4, 53, 105
6, 105720, Note_on_c, 4, 53, 0
6, 105720, Note_on_c, 4, 60, 105
6, 105840, Note_on_c, 4, 60, 0
6, 105840, Note_on_c, 4, 57, 105
6, 105960, Note_on_c, 4, 57, 0
6, 105960, Note_on_c, 4, 72, 0
6, 105960, Note_on_c, 4, 69, 105
6, 105960, Note_on_c, 4, 60, 105
6, 106080, Note_on_c, 4, 60, 0
6, 106080, Note_on_c, 4, 69, 0
6, 106080, Note_on_c, 4, 72, 105
6, 106080, Note_on_c, 4, 53, 105
6, 106200, Note_on_c, 4, 53, 0
6, 106200, Note_on_c, 4, 60, 105
6, 106320, Note_on_c, 4, 60, 0
6, 106320, Note_on_c, 4, 57, 105
6, 106440, Note_on_c, 4, 57, 0
6, 106440, Note_on_c, 4, 60, 105
6, 106560, Note_on_c, 4, 60, 0
6, 106560, Note_on_c, 4, 72, 0
6, 106560, Note_on_c, 4, 53, 105
6, 106680, Note_on_c, 4, 53, 0
6, 106680, Note_on_c, 4, 60, 105
6, 106800, Note_on_c, 4, 60, 0
6, 106800, Note_on_c, 4, 57, 105
6, 106920, Note_on_c, 4, 57, 0
6, 106920, Note_on_c, 4, 60, 105
6, 107040, Note_on_c, 4, 60, 0
6, 107040, Note_on_c, 4, 77, 105
6, 107040, Note_on_c, 4, 50, 105
6, 107160, Note_on_c, 4, 50, 0
6, 107160, Note_on_c, 4, 77, 0
6, 107160, Note_on_c, 4, 67, 105
6, 107160, Note_on_c, 4, 55, 105
6, 107280, Note_on_c, 4, 55, 0
6, 107280, Note_on_c, 4, 67, 0
6, 107280, Note_on_c, 4, 71, 105
6, 107280, Note_on_c, 4, 53, 105
6, 107400, Note_on_c, 4, 53, 0
6, 107400, Note_on_c, 4, 71, 0
6, 107400, Note_on_c, 4, 67, 105
6, 107400, Note_on_c, 4, 55, 105
6, 107520, Note_on_c, 4, 55, 0
6, 107520, Note_on_c, 4, 67, 0
6, 107520, Note_on_c, 4, 77, 105
6, 107520, Note_on_c, 4, 50, 105
6, 107640, Note_on_c, 4, 50, 0
6, 107640, Note_on_c, 4, 77, 0
6, 107640, Note_on_c, 4, 67, 105
6, 107640, Note_on_c, 4, 55, 105
6, 107760, Note_on_c, 4, 55, 0
6, 107760, Note_on_c, 4, 67, 0
6, 107760, Note_on_c, 4, 71, 105
6, 107760, Note_on_c, 4, 53, 105
6, 107880, Note_on_c, 4, 53, 0
6, 107880, Note_on_c, 4, 71, 0
6, 107880, Note_on_c, 4, 67, 105
6, 107880, Note_on_c, 4, 55, 105
6, 108000, Note_on_c, 4, 55, 0
6, 108000, Note_on_c, 4, 67, 0
6, 108000, Note_on_c, 4, 77, 105
6, 108000, Note_on_c, 4, 50, 105
6, 108120, Note_on_c, 4, 50, 0
6, 108120, Note_on_c, 4, 77, 0
6, 108120, Note_on_c, 4, 67, 105
6, 108120, Note_on_c, 4, 55, 105
6, 108240, Note_on_c, 4, 55, 0
6, 108240, Note_on_c, 4, 67, 0
6, 108240, Note_on_c, 4, 71, 105
6, 108240, Note_on_c, 4, 53, 105
6, 108360, Note_on_c, 4, 53, 0
6, 108360, Note_on_c, 4, 71, 0
6, 108360, Note_on_c, 4, 67, 105
6, 108360, Note_on_c, 4, 55, 105
6, 108480, Note_on_c, 4, 55, 0
6, 108480, Note_on_c, 4, 67, 0
6, 108480, Note_on_c, 4, 79, 105
6, 108480, Note_on_c, 4, 48, 105
6, 108600, Note_on_c, 4, 48, 0
6, 108600, Note_on_c, 4, 79, 0
6, 108600, Note_on_c, 4, 67, 105
6, 108600, Note_on_c, 4, 55, 105
6, 108720, Note_on_c, 4, 55, 0
6, 108720, Note_on_c, 4, 67, 0
6, 108720, Note_on_c, 4, 72, 105
6, 108720, Note_on_c, 4, 52, 105
6, 108840, Note_on_c, 4, 52, 0
6, 108840, Note_on_c, 4, 72, 0
6, 108840, Note_on_c, 4, 67, 105
6, 108840, Note_on_c, 4, 55, 105
6, 108960, Note_on_c, 4, 55, 0
6, 108960, Note_on_c, 4, 67, 0
6, 108960, Note_on_c, 4, 76, 105
6, 108960, Note_on_c, 4, 48, 105
6, 109080, Note_on_c, 4, 48, 0
6, 109080, Note_on_c, 4, 76, 0
6, 109080, Note_on_c, 4, 67, 105
6, 109080, Note_on_c, 4, 55, 105
6, 109200, Note_on_c, 4, 55, 0
6, 109200, Note_on_c, 4, 67, 0
6, 109200, Note_on_c, 4, 72, 105
6, 109200, Note_on_c, 4, 52, 105
6, 109320, Note_on_c, 4, 52, 0
6, 109320, Note_on_c, 4, 72, 0
6, 109320, Note_on_c, 4, 67, 105
6, 109320, Note_on_c, 4, 55, 105
6, 109440, Note_on_c, 4, 55, 0
6, 109440, Note_on_c, 4, 67, 0
6, 109440, Note_on_c, 4, 83, 105
6, 109440, Note_on_c, 4, 62, 105
6, 109560, Note_on_c, 4, 62, 0
6, 109560, Note_on_c, 4, 83, 0
6, 109560, Note_on_c, 4, 77, 105
6, 109560, Note_on_c, 4, 67, 105
6, 109680, Note_on_c, 4, 67, 0
6, 109680, Note_on_c, 4, 77, 0
6, 109680, Note_on_c, 4, 79, 105
6, 109680, Note_on_c, 4, 65, 105
6, 109800, Note_on_c, 4, 65, 0
6, 109800, Note_on_c, 4, 79, 0
6, 109800, Note_on_c, 4, 77, 105
6, 109800, Note_on_c, 4, 67, 105
6, 109920, Note_on_c, 4, 67, 0
6, 109920, Note_on_c, 4, 77, 0
6, 109920, Note_on_c, 4, 84, 105
6, 109920, Note_on_c, 4, 60, 105
6, 110040, Note_on_c, 4, 60, 0
6, 110040, Note_on_c, 4, 84, 0
6, 110040, Note_on_c, 4, 76, 105
6, 110040, Note_on_c, 4, 67, 105
6, 110160, Note_on_c, 4, 67, 0
6, 110160, Note_on_c, 4, 76, 0
6, 110160, Note_on_c, 4, 79, 105
6, 110160, Note_on_c, 4, 64, 105
6, 110280, Note_on_c, 4, 64, 0
6, 110280, Note_on_c, 4, 79, 0
6, 110280, Note_on_c, 4, 76, 105
6, 110280, Note_on_c, 4, 67, 105
6, 110400, Note_on_c, 4, 67, 0
6, 110400, Note_on_c, 4, 76, 0
6, 110400, Note_on_c, 4, 84, 105
6, 110400, Note_on_c, 4, 60, 105
6, 110880, Note_on_c, 4, 60, 0
6, 110880, Note_on_c, 4, 84, 0
6, 117060, Note_on_c, 4, 41, 105
6, 117120, Note_on_c, 4, 41, 0
6, 117120, Note_on_c, 4, 65, 105
6, 117120, Note_on_c, 4, 53, 105
6, 117240, Note_on_c, 4, 65, 0
6, 117240, Note_on_c, 4, 72, 105
6, 117360, Note_on_c, 4, 72, 0
6, 117360, Note_on_c, 4, 69, 105
6, 117480, Note_on_c, 4, 69, 0
6, 117480, Note_on_c, 4, 72, 105
6, 117600, Note_on_c, 4, 72, 0
6, 117600, Note_on_c, 4, 53, 0
6, 117600, Note_on_c, 4, 65, 105
6, 117720, Note_on_c, 4, 65, 0
6, 117720, Note_on_c, 4, 72, 105
6, 117840, Note_on_c, 4, 72, 0
6, 117840, Note_on_c, 4, 69, 105
6, 117960, Note_on_c, 4, 69, 0
6, 117960, Note_on_c, 4, 72, 105
6, 118080, Note_on_c, 4, 72, 0
6, 118080, Note_on_c, 4, 67, 105
6, 118200, Note_on_c, 4, 67, 0
6, 118200, Note_on_c, 4, 72, 105
6, 118320, Note_on_c, 4, 72, 0
6, 118320, Note_on_c, 4, 70, 105
6, 118440, Note_on_c, 4, 70, 0
6, 118440, Note_on_c, 4, 72, 105
6, 118500, Note_on_c, 4, 41, 105
6, 118560, Note_on_c, 4, 41, 0
6, 118560, Note_on_c, 4, 72, 0
6, 118560, Note_on_c, 4, 65, 105
6, 118560, Note_on_c, 4, 53, 105
6, 118680, Note_on_c, 4, 65, 0
6, 118680, Note_on_c, 4, 72, 105
6, 118800, Note_on_c, 4, 72, 0
6, 118800, Note_on_c, 4, 69, 105
6, 118920, Note_on_c, 4, 69, 0
6, 118920, Note_on_c, 4, 72, 105
6, 119040, Note_on_c, 4, 72, 0
6, 119040, Note_on_c, 4, 53, 0
6, 119040, Note_on_c, 4, 65, 105
6, 119160, Note_on_c, 4, 65, 0
6, 119160, Note_on_c, 4, 72, 105
6, 119280, Note_on_c, 4, 72, 0
6, 119280, Note_on_c, 4, 69, 105
6, 119400, Note_on_c, 4, 69, 0
6, 119400, Note_on_c, 4, 72, 105
6, 119520, Note_on_c, 4, 72, 0
6, 119520, Note_on_c, 4, 65, 105
6, 119640, Note_on_c, 4, 65, 0
6, 119640, Note_on_c, 4, 72, 105
6, 119760, Note_on_c, 4, 72, 0
6, 119760, Note_on_c, 4, 69, 105
6, 119880, Note_on_c, 4, 69, 0
6, 119880, Note_on_c, 4, 72, 105
6, 120000, Note_on_c, 4, 72, 0
6, 120000, Note_on_c, 4, 58, 105
6, 120120, Note_on_c, 4, 74, 105
6, 120240, Note_on_c, 4, 74, 0
6, 120240, Note_on_c, 4, 58, 0
6, 120240, Note_on_c, 4, 82, 105
6, 120360, Note_on_c, 4, 82, 0
6, 120360, Note_on_c, 4, 79, 105
6, 120480, Note_on_c, 4, 79, 0
6, 120480, Note_on_c, 4, 60, 105
6, 120600, Note_on_c, 4, 72, 105
6, 120720, Note_on_c, 4, 72, 0
6, 120720, Note_on_c, 4, 60, 0
6, 120720, Note_on_c, 4, 81, 105
6, 120840, Note_on_c, 4, 81, 0
6, 120840, Note_on_c, 4, 77, 105
6, 120960, Note_on_c, 4, 77, 0
6, 120960, Note_on_c, 4, 48, 105
6, 121080, Note_on_c, 4, 70, 105
6, 121200, Note_on_c, 4, 70, 0
6, 121200, Note_on_c, 4, 48, 0
6, 121200, Note_on_c, 4, 79, 105
6, 121320, Note_on_c, 4, 79, 0
6, 121320, Note_on_c, 4, 76, 105
6, 121440, Note_on_c, 4, 76, 0
6, 121440, Note_on_c, 4, 69, 105
6, 121440, Note_on_c, 4, 72, 105
6, 121440, Note_on_c, 4, 77, 105
6, 121440, Note_on_c, 4, 53, 105
6, 121920, Note_on_c, 4, 53, 0
6, 121920, Note_on_c, 4, 69, 0
6, 121920, Note_on_c, 4, 72, 0
6, 121920, Note_on_c, 4, 77, 0
6, 127200, Note_on_c, 4, 53, 105
6, 127320, Note_on_c, 4, 53, 0
6, 127320, Note_on_c, 4, 60, 105
6, 127440, Note_on_c, 4, 60, 0
6, 127440, Note_on_c, 4, 57, 105
6, 127560, Note_on_c, 4, 57, 0
6, 127560, Note_on_c, 4, 60, 105
6, 127680, Note_on_c, 4, 60, 0
6, 127680, Note_on_c, 4, 53, 105
6, 127800, Note_on_c, 4, 53, 0
6, 127800, Note_on_c, 4, 60, 105
6, 127920, Note_on_c, 4, 60, 0
6, 127920, Note_on_c, 4, 57, 105
6, 128040, Note_on_c, 4, 57, 0
6, 128040, Note_on_c, 4, 60, 105
6, 128160, Note_on_c, 4, 60, 0
6, 128160, Note_on_c, 4, 55, 105
6, 128280, Note_on_c, 4, 55, 0
6, 128280, Note_on_c, 4, 60, 105
6, 128400, Note_on_c, 4, 60, 0
6, 128400, Note_on_c, 4, 58, 105
6, 128520, Note_on_c, 4, 58, 0
6, 128520, Note_on_c, 4, 60, 105
6, 128640, Note_on_c, 4, 60, 0
6, 128640, Note_on_c, 4, 72, 105
6, 128640, Note_on_c, 4, 53, 105
6, 128760, Note_on_c, 4, 53, 0
6, 128760, Note_on_c, 4, 60, 105
6, 128880, Note_on_c, 4, 60, 0
6, 128880, Note_on_c, 4, 57, 105
6, 129000, Note_on_c, 4, 57, 0
6, 129000, Note_on_c, 4, 60, 105
6, 129120, Note_on_c, 4, 60, 0
6, 129120, Note_on_c, 4, 53, 105
6, 129200, Note_on_c, 4, 72, 0
6, 129200, Note_on_c, 4, 74, 105
6, 129240, Note_on_c, 4, 53, 0
6, 129240, Note_on_c, 4, 60, 105
6, 129276, Note_on_c, 4, 74, 0
6, 129276, Note_on_c, 4, 76, 105
6, 129360, Note_on_c, 4, 76, 0
6, 129360, Note_on_c, 4, 60, 0
6, 129360, Note_on_c, 4, 77, 105
6, 129360, Note_on_c, 4, 57, 105
6, 129440, Note_on_c, 4, 77, 0
6, 129440, Note_on_c, 4, 79, 105
6, 129480, Note_on_c, 4, 57, 0
6, 129480, Note_on_c, 4, 60, 105
6, 129516, Note_on_c, 4, 79, 0
6, 129516, Note_on_c, 4, 81, 105
6, 129600, Note_on_c, 4, 81, 0
6, 129600, Note_on_c, 4, 60, 0
6, 129600, Note_on_c, 4, 82, 105
6, 129600, Note_on_c, 4, 55, 105
6, 129680, Note_on_c, 4, 82, 0
6, 129680, Note_on_c, 4, 81, 105
6, 129720, Note_on_c, 4, 55, 0
6, 129720, Note_on_c, 4, 60, 105
6, 129756, Note_on_c, 4, 81, 0
6, 129756, Note_on_c, 4, 79, 105
6, 129840, Note_on_c, 4, 79, 0
6, 129840, Note_on_c, 4, 60, 0
6, 129840, Note_on_c, 4, 77, 105
6, 129840, Note_on_c, 4, 58, 105
6, 129920, Note_on_c, 4, 77, 0
6, 129920, Note_on_c, 4, 81, 105
6, 129960, Note_on_c, 4, 58, 0
6, 129960, Note_on_c, 4, 60, 105
6, 129996, Note_on_c, 4, 81, 0
6, 129996, Note_on_c, 4, 76, 105
6, 130080, Note_on_c, 4, 76, 0
6, 130080, Note_on_c, 4, 60, 0
6, 130080, Note_on_c, 4, 77, 105
6, 130080, Note_on_c, 4, 53, 105
6, 130200, Note_on_c, 4, 53, 0
6, 130200, Note_on_c, 4, 60, 105
6, 130320, Note_on_c, 4, 60, 0
6, 130320, Note_on_c, 4, 57, 105
6, 130440, Note_on_c, 4, 57, 0
6, 130440, Note_on_c, 4, 60, 105
6, 130560, Note_on_c, 4, 60, 0
6, 130560, Note_on_c, 4, 77, 0
6, 130560, Note_on_c, 4, 65, 105
6, 130680, Note_on_c, 4, 65, 0
6, 130680, Note_on_c, 4, 72, 105
6, 130800, Note_on_c, 4, 72, 0
6, 130800, Note_on_c, 4, 69, 105
6, 130920, Note_on_c, 4, 69, 0
6, 130920, Note_on_c, 4, 72, 105
6, 131040, Note_on_c, 4, 72, 0
6, 131040, Note_on_c, 4, 67, 105
6, 131160, Note_on_c, 4, 67, 0
6, 131160, Note_on_c, 4, 72, 105
6, 131280, Note_on_c, 4, 72, 0
6, 131280, Note_on_c, 4, 70, 105
6, 131400, Note_on_c, 4, 70, 0
6, 131400, Note_on_c, 4, 72, 105
6, 131460, Note_on_c, 4, 72, 105
6, 131520, Note_on_c, 4, 72, 0
6, 131520, Note_on_c, 4, 72, 0
6, 131520, Note_on_c, 4, 84, 105
6, 131520, Note_on_c, 4, 65, 105
6, 131640, Note_on_c, 4, 65, 0
6, 131640, Note_on_c, 4, 72, 105
6, 131760, Note_on_c, 4, 72, 0
6, 131760, Note_on_c, 4, 69, 105
6, 131880, Note_on_c, 4, 69, 0
6, 131880, Note_on_c, 4, 72, 105
6, 132000, Note_on_c, 4, 72, 0
6, 132000, Note_on_c, 4, 84, 0
6, 132000, Note_on_c, 4, 84, 105
6, 132000, Note_on_c, 4, 65, 105
6, 132120, Note_on_c, 4, 65, 0
6, 132120, Note_on_c, 4, 84, 0
6, 132120, Note_on_c, 4, 84, 105
6, 132120, Note_on_c, 4, 72, 105
6, 132240, Note_on_c, 4, 72, 0
6, 132240, Note_on_c, 4, 84, 0
6, 132240, Note_on_c, 4, 86, 105
6, 132240, Note_on_c, 4, 69, 105
6, 132300, Note_on_c, 4, 86, 0
6, 132300, Note_on_c, 4, 84, 105
6, 132360, Note_on_c, 4, 84, 0
6, 132360, Note_on_c, 4, 69, 0
6, 132360, Note_on_c, 4, 82, 105
6, 132360, Note_on_c, 4, 72, 105
6, 132420, Note_on_c, 4, 82, 0
6, 132420, Note_on_c, 4, 84, 105
6, 132480, Note_on_c, 4, 84, 0
6, 132480, Note_on_c, 4, 72, 0
6, 132480, Note_on_c, 4, 88, 105
6, 132480, Note_on_c, 4, 67, 105
6, 132600, Note_on_c, 4, 67, 0
6, 132600, Note_on_c, 4, 88, 0
6, 132600, Note_on_c, 4, 88, 105
6, 132600, Note_on_c, 4, 72, 105
6, 132720, Note_on_c, 4, 72, 0
6, 132720, Note_on_c, 4, 88, 0
6, 132720, Note_on_c, 4, 89, 105
6, 132720, Note_on_c, 4, 70, 105
6, 132780, Note_on_c, 4, 89, 0
6, 132780, Note_on_c, 4, 88, 105
6, 132840, Note_on_c, 4, 88, 0
6, 132840, Note_on_c, 4, 70, 0
6, 132840, Note_on_c, 4, 86, 105
6, 132840, Note_on_c, 4, 72, 105
6, 132900, Note_on_c, 4, 86, 0
6, 132900, Note_on_c, 4, 88, 105
6, 132960, Note_on_c, 4, 88, 0
6, 132960, Note_on_c, 4, 72, 0
6, 132960, Note_on_c, 4, 89, 105
6, 132960, Note_on_c, 4, 65, 105
6, 132960, Note_on_c, 4, 69, 105
6, 132960, Note_on_c, 4, 72, 105
6, 133440, Note_on_c, 4, 72, 0
6, 133440, Note_on_c, 4, 89, 0
6, 133440, Note_on_c, 4, 65, 0
6, 133440, Note_on_c, 4, 69, 0
6, 137280, Note_on_c, 4, 69, 105
6, 137280, Note_on_c, 4, 72, 105
6, 137360, Note_on_c, 4, 77, 105
6, 137436, Note_on_c, 4, 77, 0
6, 137436, Note_on_c, 4, 89, 105
6, 137520, Note_on_c, 4, 89, 0
6, 137520, Note_on_c, 4, 72, 0
6, 137520, Note_on_c, 4, 69, 0
6, 137520, Note_on_c, 4, 67, 105
6, 137520, Note_on_c, 4, 70, 105
6, 137600, Note_on_c, 4, 76, 105
6, 137676, Note_on_c, 4, 76, 0
6, 137676, Note_on_c, 4, 88, 105
6, 137760, Note_on_c, 4, 88, 0
6, 137760, Note_on_c, 4, 70, 0
6, 137760, Note_on_c, 4, 67, 0
6, 137760, Note_on_c, 4, 65, 105
6, 137760, Note_on_c, 4, 69, 105
6, 137840, Note_on_c, 4, 74, 105
6, 137916, Note_on_c, 4, 74, 0
6, 137916, Note_on_c, 4, 86, 105
6, 138000, Note_on_c, 4, 86, 0
6, 138000, Note_on_c, 4, 69, 0
6, 138000, Note_on_c, 4, 65, 0
6, 138000, Note_on_c, 4, 64, 105
6, 138000, Note_on_c, 4, 67, 105
6, 138080, Note_on_c, 4, 72, 105
6, 138156, Note_on_c, 4, 72, 0
6, 138156, Note_on_c, 4, 84, 105
6, 138240, Note_on_c, 4, 84, 0
6, 138240, Note_on_c, 4, 67, 0
6, 138240, Note_on_c, 4, 64, 0
6, 138240, Note_on_c, 4, 62, 105
6, 138240, Note_on_c, 4, 65, 105
6, 138320, Note_on_c, 4, 70, 105
6, 138396, Note_on_c, 4, 70, 0
6, 138396, Note_on_c, 4, 82, 105
6, 138480, Note_on_c, 4, 82, 0
6, 138480, Note_on_c, 4, 65, 0
6, 138480, Note_on_c, 4, 62, 0
6, 138480, Note_on_c, 4, 60, 105
6, 138480, Note_on_c, 4, 64, 105
6, 138560, Note_on_c, 4, 69, 105
6, 138636, Note_on_c, 4, 69, 0
6, 138636, Note_on_c, 4, 81, 105
6, 138720, Note_on_c, 4, 81, 0
6, 138720, Note_on_c, 4, 64, 0
6, 138720, Note_on_c, 4, 60, 0
6, 138720, Note_on_c, 4, 67, 105
6, 138720, Note_on_c, 4, 58, 105
6, 138720, Note_on_c, 4, 62, 105
6, 138840, Note_on_c, 4, 67, 0
6, 138840, Note_on_c, 4, 69, 105
6, 138900, Note_on_c, 4, 69, 0
6, 138900, Note_on_c, 4, 70, 105
6, 138960, Note_on_c, 4, 70, 0
6, 138960, Note_on_c, 4, 72, 105
6, 139020, Note_on_c, 4, 72, 0
6, 139020, Note_on_c, 4, 74, 105
6, 139080, Note_on_c, 4, 74, 0
6, 139080, Note_on_c, 4, 76, 105
6, 139140, Note_on_c, 4, 76, 0
6, 139140, Note_on_c, 4, 78, 105
6, 139200, Note_on_c, 4, 78, 0
6, 139200, Note_on_c, 4, 62, 0
6, 139200, Note_on_c, 4, 58, 0
6, 139200, Note_on_c, 4, 79, 105
6, 139200, Note_on_c, 4, 58, 105
6, 139200, Note_on_c, 4, 62, 105
6, 139260, Note_on_c, 4, 79, 0
6, 139260, Note_on_c, 4, 74, 105
6, 139320, Note_on_c, 4, 74, 0
6, 139320, Note_on_c, 4, 76, 105
6, 139380, Note_on_c, 4, 76, 0
6, 139380, Note_on_c, 4, 78, 105
6, 139440, Note_on_c, 4, 78, 0
6, 139440, Note_on_c, 4, 79, 105
6, 139500, Note_on_c, 4, 79, 0
6, 139500, Note_on_c, 4, 81, 105
6, 139560, Note_on_c, 4, 81, 0
6, 139560, Note_on_c, 4, 82, 105
6, 139620, Note_on_c, 4, 82, 0
6, 139620, Note_on_c, 4, 84, 105
6, 139680, Note_on_c, 4, 84, 0
6, 139680, Note_on_c, 4, 62, 0
6, 139680, Note_on_c, 4, 58, 0
6, 139680, Note_on_c, 4, 86, 105
6, 139680, Note_on_c, 4, 58, 105
6, 139680, Note_on_c, 4, 62, 105
6, 139760, Note_on_c, 4, 86, 0
6, 139760, Note_on_c, 4, 82, 105
6, 139836, Note_on_c, 4, 82, 0
6, 139836, Note_on_c, 4, 79, 105
6, 139920, Note_on_c, 4, 79, 0
6, 139920, Note_on_c, 4, 62, 0
6, 139920, Note_on_c, 4, 58, 0
6, 139920, Note_on_c, 4, 86, 105
6, 139920, Note_on_c, 4, 58, 105
6, 139920, Note_on_c, 4, 64, 105
6, 140000, Note_on_c, 4, 86, 0
6, 140000, Note_on_c, 4, 82, 105
6, 140076, Note_on_c, 4, 82, 0
6, 140076, Note_on_c, 4, 79, 105
6, 140160, Note_on_c, 4, 79, 0
6, 140160, Note_on_c, 4, 64, 0
6, 140160, Note_on_c, 4, 58, 0
6, 140160, Note_on_c, 4, 86, 105
6, 140160, Note_on_c, 4, 57, 105
6, 140160, Note_on_c, 4, 65, 105
6, 140220, Note_on_c, 4, 86, 0
6, 140220, Note_on_c, 4, 84, 105
6, 140280, Note_on_c, 4, 84, 0
6, 140280, Note_on_c, 4, 86, 105
6, 140308, Note_on_c, 4, 86, 0
6, 140308, Note_on_c, 4, 84, 105
6, 140340, Note_on_c, 4, 84, 0
6, 140340, Note_on_c, 4, 86, 105
6, 140368, Note_on_c, 4, 86, 0
6, 140368, Note_on_c, 4, 84, 105
6, 140400, Note_on_c, 4, 84, 0
6, 140400, Note_on_c, 4, 65, 0
6, 140400, Note_on_c, 4, 57, 0
6, 140400, Note_on_c, 4, 86, 105
6, 140400, Note_on_c, 4, 57, 105
6, 140400, Note_on_c, 4, 65, 105
6, 140428, Note_on_c, 4, 86, 0
6, 140428, Note_on_c, 4, 84, 105
6, 140460, Note_on_c, 4, 84, 0
6, 140460, Note_on_c, 4, 86, 105
6, 140488, Note_on_c, 4, 86, 0
6, 140488, Note_on_c, 4, 84, 105
6, 140520, Note_on_c, 4, 84, 0
6, 140520, Note_on_c, 4, 82, 105
6, 140580, Note_on_c, 4, 82, 0
6, 140580, Note_on_c, 4, 84, 105
6, 140640, Note_on_c, 4, 84, 0
6, 140640, Note_on_c, 4, 65, 0
6, 140640, Note_on_c, 4, 57, 0
6, 140640, Note_on_c, 4, 86, 105
6, 140640, Note_on_c, 4, 58, 105
6, 140640, Note_on_c, 4, 65, 105
6, 140684, Note_on_c, 4, 86, 0
6, 140760, Note_on_c, 4, 84, 105
6, 140880, Note_on_c, 4, 84, 0
6, 140880, Note_on_c, 4, 65, 0
6, 140880, Note_on_c, 4, 58, 0
6, 140880, Note_on_c, 4, 84, 105
6, 140880, Note_on_c, 4, 58, 105
6, 140880, Note_on_c, 4, 65, 105
6, 140908, Note_on_c, 4, 84, 0
6, 140908, Note_on_c, 4, 82, 105
6, 140940, Note_on_c, 4, 82, 0
6, 140940, Note_on_c, 4, 84, 105
6, 140968, Note_on_c, 4, 84, 0
6, 140968, Note_on_c, 4, 82, 105
6, 141000, Note_on_c, 4, 82, 0
6, 141000, Note_on_c, 4, 81, 105
6, 141120, Note_on_c, 4, 81, 0
6, 141120, Note_on_c, 4, 65, 0
6, 141120, Note_on_c, 4, 58, 0
6, 141120, Note_on_c, 4, 81, 105
6, 141120, Note_on_c, 4, 58, 105
6, 141120, Note_on_c, 4, 62, 105
6, 141148, Note_on_c, 4, 81, 0
6, 141148, Note_on_c, 4, 79, 105
6, 141180, Note_on_c, 4, 79, 0
6, 141180, Note_on_c, 4, 81, 105
6, 141208, Note_on_c, 4, 81, 0
6, 141208, Note_on_c, 4, 79, 105
6, 141240, Note_on_c, 4, 79, 0
6, 141240, Note_on_c, 4, 77, 105
6, 141360, Note_on_c, 4, 77, 0
6, 141360, Note_on_c, 4, 62, 0
6, 141360, Note_on_c, 4, 58, 0
6, 141360, Note_on_c, 4, 77, 105
6, 141360, Note_on_c, 4, 58, 105
6, 141360, Note_on_c, 4, 62, 105
6, 141388, Note_on_c, 4, 77, 0
6, 141388, Note_on_c, 4, 76, 105
6, 141420, Note_on_c, 4, 76, 0
6, 141420, Note_on_c, 4, 77, 105
6, 141448, Note_on_c, 4, 77, 0
6, 141448, Note_on_c, 4, 76, 105
6, 141480, Note_on_c, 4, 76, 0
6, 141480, Note_on_c, 4, 74, 105
6, 141600, Note_on_c, 4, 74, 0
6, 141600, Note_on_c, 4, 62, 0
6, 141600, Note_on_c, 4, 58, 0
6, 141600, Note_on_c, 4, 72, 105
6, 141600, Note_on_c, 4, 48, 105
6, 141680, Note_on_c, 4, 48, 0
6, 141680, Note_on_c, 4, 53, 105
6, 141756, Note_on_c, 4, 53, 0
6, 141756, Note_on_c, 4, 57, 105
6, 141840, Note_on_c, 4, 57, 0
6, 141840, Note_on_c, 4, 72, 0
6, 141840, Note_on_c, 4, 89, 105
6, 141840, Note_on_c, 4, 60, 105
6, 141920, Note_on_c, 4, 60, 0
6, 141920, Note_on_c, 4, 53, 105
6, 141996, Note_on_c, 4, 53, 0
6, 141996, Note_on_c, 4, 57, 105
6, 142080, Note_on_c, 4, 57, 0
6, 142080, Note_on_c, 4, 89, 0
6, 142080, Note_on_c, 4, 84, 105
6, 142080, Note_on_c, 4, 48, 105
6, 142160, Note_on_c, 4, 48, 0
6, 142160, Note_on_c, 4, 53, 105
6, 142236, Note_on_c, 4, 53, 0
6, 142236, Note_on_c, 4, 57, 105
6, 142320, Note_on_c, 4, 57, 0
6, 142320, Note_on_c, 4, 84, 0
6, 142320, Note_on_c, 4, 81, 105
6, 142320, Note_on_c, 4, 60, 105
6, 142400, Note_on_c, 4, 60, 0
6, 142400, Note_on_c, 4, 53, 105
6, 142476, Note_on_c, 4, 53, 0
6, 142476, Note_on_c, 4, 57, 105
6, 142560, Note_on_c, 4, 57, 0
6, 142560, Note_on_c, 4, 81, 0
6, 142560, Note_on_c, 4, 77, 105
6, 142560, Note_on_c, 4, 48, 105
6, 142640, Note_on_c, 4, 48, 0
6, 142640, Note_on_c, 4, 53, 105
6, 142716, Note_on_c, 4, 53, 0
6, 142716, Note_on_c, 4, 57, 105
6, 142800, Note_on_c, 4, 57, 0
6, 142800, Note_on_c, 4, 77, 0
6, 142800, Note_on_c, 4, 72, 105
6, 142800, Note_on_c, 4, 60, 105
6, 142880, Note_on_c, 4, 60, 0
6, 142880, Note_on_c, 4, 53, 105
6, 142956, Note_on_c, 4, 53, 0
6, 142956, Note_on_c, 4, 57, 105
6, 143040, Note_on_c, 4, 57, 0
6, 143040, Note_on_c, 4, 72, 0
6, 143040, Note_on_c, 4, 77, 105
6, 143040, Note_on_c, 4, 48, 105
6, 143120, Note_on_c, 4, 48, 0
6, 143120, Note_on_c, 4, 52, 105
6, 143160, Note_on_c, 4, 77, 0
6, 143160, Note_on_c, 4, 76, 105
6, 143196, Note_on_c, 4, 52, 0
6, 143196, Note_on_c, 4, 55, 105
6, 143280, Note_on_c, 4, 55, 0
6, 143280, Note_on_c, 4, 76, 0
6, 143280, Note_on_c, 4, 77, 105
6, 143280, Note_on_c, 4, 58, 105
6, 143340, Note_on_c, 4, 77, 0
6, 143340, Note_on_c, 4, 76, 105
6, 143360, Note_on_c, 4, 58, 0
6, 143360, Note_on_c, 4, 52, 105
6, 143400, Note_on_c, 4, 76, 0
6, 143400, Note_on_c, 4, 77, 105
6, 143436, Note_on_c, 4, 52, 0
6, 143436, Note_on_c, 4, 55, 105
6, 143460, Note_on_c, 4, 77, 0
6, 143460, Note_on_c, 4, 76, 105
6, 143520, Note_on_c, 4, 76, 0
6, 143520, Note_on_c, 4, 55, 0
6, 143520, Note_on_c, 4, 77, 105
6, 143520, Note_on_c, 4, 48, 105
6, 143548, Note_on_c, 4, 77, 0
6, 143548, Note_on_c, 4, 76, 105
6, 143580, Note_on_c, 4, 76, 0
6, 143580, Note_on_c, 4, 77, 105
6, 143600, Note_on_c, 4, 48, 0
6, 143600, Note_on_c, 4, 52, 105
6, 143608, Note_on_c, 4, 77, 0
6, 143608, Note_on_c, 4, 76, 105
6, 143640, Note_on_c, 4, 76, 0
6, 143640, Note_on_c, 4, 77, 105
6, 143668, Note_on_c, 4, 77, 0
6, 143668, Note_on_c, 4, 76, 105
6, 143676, Note_on_c, 4, 52, 0
6, 143676, Note_on_c, 4, 55, 105
6, 143700, Note_on_c, 4, 76, 0
6, 143700, Note_on_c, 4, 77, 105
6, 143728, Note_on_c, 4, 77, 0
6, 143728, Note_on_c, 4, 76, 105
6, 143760, Note_on_c, 4, 76, 0
6, 143760, Note_on_c, 4, 55, 0
6, 143760, Note_on_c, 4, 77, 105
6, 143760, Note_on_c, 4, 58, 105
6, 143788, Note_on_c, 4, 77, 0
6, 143788, Note_on_c, 4, 76, 105
6, 143820, Note_on_c, 4, 76, 0
6, 143820, Note_on_c, 4, 77, 105
6, 143840, Note_on_c, 4, 58, 0
6, 143840, Note_on_c, 4, 52, 105
6, 143848, Note_on_c, 4, 77, 0
6, 143848, Note_on_c, 4, 76, 105
6, 143880, Note_on_c, 4, 76, 0
6, 143880, Note_on_c, 4, 77, 105
6, 143908, Note_on_c, 4, 77, 0
6, 143908, Note_on_c, 4, 76, 105
6, 143916, Note_on_c, 4, 52, 0
6, 143916, Note_on_c, 4, 55, 105
6, 143940, Note_on_c, 4, 76, 0
6, 143940, Note_on_c, 4, 77, 105
6, 143968, Note_on_c, 4, 77, 0
6, 143968, Note_on_c, 4, 76, 105
6, 144000, Note_on_c, 4, 76, 0
6, 144000, Note_on_c, 4, 55, 0
6, 144000, Note_on_c, 4, 77, 105
6, 144000, Note_on_c, 4, 48, 105
6, 144028, Note_on_c, 4, 77, 0
6, 144028, Note_on_c, 4, 76, 105
6, 144060, Note_on_c, 4, 76, 0
6, 144060, Note_on_c, 4, 77, 105
6, 144080, Note_on_c, 4, 48, 0
6, 144080, Note_on_c, 4, 52, 105
6, 144088, Note_on_c, 4, 77, 0
6, 144088, Note_on_c, 4, 76, 105
6, 144120, Note_on_c, 4, 76, 0
6, 144120, Note_on_c, 4, 77, 105
6, 144148, Note_on_c, 4, 77, 0
6, 144148, Note_on_c, 4, 76, 105
6, 144156, Note_on_c, 4, 52, 0
6, 144156, Note_on_c, 4, 55, 105
6, 144180, Note_on_c, 4, 76, 0
6, 144180, Note_on_c, 4, 77, 105
6, 144208, Note_on_c, 4, 77, 0
6, 144208, Note_on_c, 4, 76, 105
6, 144240, Note_on_c, 4, 76, 0
6, 144240, Note_on_c, 4, 55, 0
6, 144240, Note_on_c, 4, 77, 105
6, 144240, Note_on_c, 4, 58, 105
6, 144268, Note_on_c, 4, 77, 0
6, 144268, Note_on_c, 4, 76, 105
6, 144300, Note_on_c, 4, 76, 0
6, 144300, Note_on_c, 4, 77, 105
6, 144320, Note_on_c, 4, 58, 0
6, 144320, Note_on_c, 4, 52, 105
6, 144328, Note_on_c, 4, 77, 0
6, 144328, Note_on_c, 4, 76, 105
6, 144360, Note_on_c, 4, 76, 0
6, 144360, Note_on_c, 4, 74, 105
6, 144396, Note_on_c, 4, 52, 0
6, 144396, Note_on_c, 4, 55, 105
6, 144420, Note_on_c, 4, 74, 0
6, 144420, Note_on_c, 4, 76, 105
6, 144480, Note_on_c, 4, 76, 0
6, 144480, Note_on_c, 4, 55, 0
6, 144480, Note_on_c, 4, 77, 105
6, 144480, Note_on_c, 4, 53, 105
6, 144480, Note_on_c, 4, 57, 105
6, 144960, Note_on_c, 4, 57, 0
6, 144960, Note_on_c, 4, 53, 0
6, 144960, Note_on_c, 4, 77, 0
6, 147600, Note_on_c, 4, 45, 105
6, 147600, Note_on_c, 4, 57, 105
6, 147840, Note_on_c, 4, 57, 0
6, 147840, Note_on_c, 4, 45, 0
6, 147840, Note_on_c, 4, 77, 105
6, 147840, Note_on_c, 4, 81, 105
6, 147840, Note_on_c, 4, 46, 105
6, 147840, Note_on_c, 4, 58, 105
6, 148080, Note_on_c, 4, 58, 0
6, 148080, Note_on_c, 4, 77, 0
6, 148080, Note_on_c, 4, 81, 0
6, 148080, Note_on_c, 4, 46, 0
6, 148080, Note_on_c, 4, 77, 105
6, 148080, Note_on_c, 4, 81, 105
6, 148080, Note_on_c, 4, 48, 105
6, 148080, Note_on_c, 4, 60, 105
6, 148320, Note_on_c, 4, 60, 0
6, 148320, Note_on_c, 4, 77, 0
6, 148320, Note_on_c, 4, 81, 0
6, 148320, Note_on_c, 4, 48, 0
6, 148320, Note_on_c, 4, 77, 105
6, 148320, Note_on_c, 4, 81, 105
6, 148320, Note_on_c, 4, 50, 105
6, 148320, Note_on_c, 4, 62, 105
6, 148560, Note_on_c, 4, 62, 0
6, 148560, Note_on_c, 4, 77, 0
6, 148560, Note_on_c, 4, 81, 0
6, 148560, Note_on_c, 4, 50, 0
6, 148560, Note_on_c, 4, 77, 105
6, 148560, Note_on_c, 4, 81, 105
6, 148560, Note_on_c, 4, 47, 105
6, 148560, Note_on_c, 4, 59, 105
6, 148800, Note_on_c, 4, 59, 0
6, 148800, Note_on_c, 4, 77, 0
6, 148800, Note_on_c, 4, 81, 0
6, 148800, Note_on_c, 4, 47, 0
6, 148800, Note_on_c, 4, 77, 105
6, 148800, Note_on_c, 4, 81, 105
6, 148800, Note_on_c, 4, 48, 105
6, 148800, Note_on_c, 4, 60, 105
6, 149504, Note_on_c, 4, 81, 0
6, 149504, Note_on_c, 4, 77, 0
6, 149520, Note_on_c, 4, 48, 0
6, 149520, Note_on_c, 4, 60, 0
6, 149640, Note_on_c, 4, 77, 105
6, 149700, Note_on_c, 4, 77, 0
6, 149700, Note_on_c, 4, 77, 105
6, 149760, Note_on_c, 4, 77, 0
6, 149760, Note_on_c, 4, 76, 105
6, 149760, Note_on_c, 4, 48, 105
6, 149760, Note_on_c, 4, 52, 105
6, 149760, Note_on_c, 4, 55, 105
6, 149760, Note_on_c, 4, 58, 105
6, 149820, Note_on_c, 4, 76, 0
6, 149820, Note_on_c, 4, 77, 105
6, 149848, Note_on_c, 4, 77, 0
6, 149848, Note_on_c, 4, 76, 105
6, 149880, Note_on_c, 4, 76, 0
6, 149880, Note_on_c, 4, 77, 105
6, 149908, Note_on_c, 4, 77, 0
6, 149908, Note_on_c, 4, 76, 105
6, 149940, Note_on_c, 4, 76, 0
6, 149940, Note_on_c, 4, 77, 105
6, 149968, Note_on_c, 4, 77, 0
6, 149968, Note_on_c, 4, 76, 105
6, 150000, Note_on_c, 4, 76, 0
6, 150000, Note_on_c, 4, 77, 105
6, 150028, Note_on_c, 4, 77, 0
6, 150028, Note_on_c, 4, 76, 105
6, 150060, Note_on_c, 4, 76, 0
6, 150060, Note_on_c, 4, 77, 105
6, 150088, Note_on_c, 4, 77, 0
6, 150088, Note_on_c, 4, 76, 105
6, 150120, Note_on_c, 4, 76, 0
6, 150120, Note_on_c, 4, 74, 105
6, 150180, Note_on_c, 4, 74, 0
6, 150180, Note_on_c, 4, 76, 105
6, 150240, Note_on_c, 4, 76, 0
6, 150240, Note_on_c, 4, 55, 0
6, 150240, Note_on_c, 4, 48, 0
6, 150240, Note_on_c, 4, 52, 0
6, 150240, Note_on_c, 4, 58, 0
6, 150240, Note_on_c, 4, 77, 105
6, 150240, Note_on_c, 4, 53, 105
6, 150240, Note_on_c, 4, 57, 105
6, 150720, Note_on_c, 4, 57, 0
6, 150720, Note_on_c, 4, 53, 0
6, 150720, Note_on_c, 4, 77, 0
6, 151680, Note_on_c, 4, 36, 105
6, 151740, Note_on_c, 4, 36, 0
6, 151740, Note_on_c, 4, 40, 105
6, 151800, Note_on_c, 4, 40, 0
6, 151800, Note_on_c, 4, 43, 105
6, 151860, Note_on_c, 4, 43, 0
6, 151860, Note_on_c, 4, 46, 105
6, 151920, Note_on_c, 4, 46, 0
6, 151920, Note_on_c, 4, 60, 105
6, 151980, Note_on_c, 4, 60, 0
6, 151980, Note_on_c, 4, 64, 105
6, 152040, Note_on_c, 4, 64, 0
6, 152040, Note_on_c, 4, 67, 105
6, 152100, Note_on_c, 4, 67, 0
6, 152100, Note_on_c, 4, 70, 105
6, 152160, Note_on_c, 4, 70, 0
6, 152160, Note_on_c, 4, 48, 105
6, 152220, Note_on_c, 4, 48, 0
6, 152220, Note_on_c, 4, 52, 105
6, 152280, Note_on_c, 4, 52, 0
6, 152280, Note_on_c, 4, 55, 105
6, 152340, Note_on_c, 4, 55, 0
6, 152340, Note_on_c, 4, 58, 105
6, 152400, Note_on_c, 4, 58, 0
6, 152400, Note_on_c, 4, 67, 105
6, 152460, Note_on_c, 4, 67, 0
6, 152460, Note_on_c, 4, 70, 105
6, 152520, Note_on_c, 4, 70, 0
6, 152520, Note_on_c, 4, 72, 105
6, 152580, Note_on_c, 4, 72, 0
6, 152580, Note_on_c, 4, 76, 105
6, 152640, Note_on_c, 4, 76, 0
6, 152640, Note_on_c, 4, 65, 105
6, 152640, Note_on_c, 4, 77, 105
6, 152640, Note_on_c, 4, 53, 105
6, 152880, Note_on_c, 4, 53, 0
6, 152880, Note_on_c, 4, 77, 0
6, 152880, Note_on_c, 4, 65, 0
6, 156388, Note_on_c, 4, 65, 105
6, 156388, Note_on_c, 4, 50, 105
6, 156420, Note_on_c, 4, 69, 105
6, 156420, Note_on_c, 4, 53, 105
6, 156448, Note_on_c, 4, 74, 105
6, 156448, Note_on_c, 4, 57, 105
6, 156480, Note_on_c, 4, 77, 105
6, 156480, Note_on_c, 4, 62, 105
6, 156868, Note_on_c, 4, 67, 105
6, 156868, Note_on_c, 4, 46, 105
6, 156900, Note_on_c, 4, 70, 105
6, 156900, Note_on_c, 4, 50, 105
6, 156928, Note_on_c, 4, 74, 105
6, 156928, Note_on_c, 4, 55, 105
6, 156960, Note_on_c, 4, 62, 0
6, 156960, Note_on_c, 4, 77, 0
6, 156960, Note_on_c, 4, 53, 0
6, 156960, Note_on_c, 4, 65, 0
6, 156960, Note_on_c, 4, 69, 0
6, 156960, Note_on_c, 4, 57, 0
6, 156960, Note_on_c, 4, 50, 0
6, 156960, Note_on_c, 4, 74, 0
6, 156960, Note_on_c, 4, 77, 105
6, 156960, Note_on_c, 4, 58, 105
6, 157440, Note_on_c, 4, 58, 0
6, 157440, Note_on_c, 4, 74, 0
6, 157440, Note_on_c, 4, 55, 0
6, 157440, Note_on_c, 4, 46, 0
6, 157440, Note_on_c, 4, 50, 0
6, 157440, Note_on_c, 4, 70, 0
6, 157440, Note_on_c, 4, 67, 0
6, 157440, Note_on_c, 4, 77, 0
6, 157828, Note_on_c, 4, 64, 105
6, 157828, Note_on_c, 4, 48, 105
6, 157860, Note_on_c, 4, 67, 105
6, 157860, Note_on_c, 4, 52, 105
6, 157888, Note_on_c, 4, 72, 105
6, 157888, Note_on_c, 4, 55, 105
6, 157920, Note_on_c, 4, 76, 105
6, 157920, Note_on_c, 4, 60, 105
6, 158308, Note_on_c, 4, 65, 105
6, 158308, Note_on_c, 4, 45, 105
6, 158340, Note_on_c, 4, 69, 105
6, 158340, Note_on_c, 4, 48, 105
6, 158368, Note_on_c, 4, 72, 105
6, 158368, Note_on_c, 4, 53, 105
6, 158400, Note_on_c, 4, 60, 0
6, 158400, Note_on_c, 4, 76, 0
6, 158400, Note_on_c, 4, 52, 0
6, 158400, Note_on_c, 4, 64, 0
6, 158400, Note_on_c, 4, 67, 0
6, 158400, Note_on_c, 4, 55, 0
6, 158400, Note_on_c, 4, 48, 0
6, 158400, Note_on_c, 4, 72, 0
6, 158400, Note_on_c, 4, 76, 105
6, 158400, Note_on_c, 4, 57, 105
6, 158880, Note_on_c, 4, 57, 0
6, 158880, Note_on_c, 4, 72, 0
6, 158880, Note_on_c, 4, 53, 0
6, 158880, Note_on_c, 4, 45, 0
6, 158880, Note_on_c, 4, 48, 0
6, 158880, Note_on_c, 4, 69, 0
6, 158880, Note_on_c, 4, 65, 0
6, 158880, Note_on_c, 4, 76, 0
6, 159268, Note_on_c, 4, 62, 105
6, 159268, Note_on_c, 4, 46, 105
6, 159300, Note_on_c, 4, 65, 105
6, 159300, Note_on_c, 4, 50, 105
6, 159328, Note_on_c, 4, 70, 105
6, 159328, Note_on_c, 4, 53, 105
6, 159360, Note_on_c, 4, 74, 105
6, 159360, Note_on_c, 4, 58, 105
6, 159748, Note_on_c, 4, 62, 105
6, 159748, Note_on_c, 4, 43, 105
6, 159780, Note_on_c, 4, 67, 105
6, 159780, Note_on_c, 4, 46, 105
6, 159808, Note_on_c, 4, 70, 105
6, 159808, Note_on_c, 4, 50, 105
6, 159840, Note_on_c, 4, 58, 0
6, 159840, Note_on_c, 4, 74, 0
6, 159840, Note_on_c, 4, 50, 0
6, 159840, Note_on_c, 4, 62, 0
6, 159840, Note_on_c, 4, 65, 0
6, 159840, Note_on_c, 4, 53, 0
6, 159840, Note_on_c, 4, 46, 0
6, 159840, Note_on_c, 4, 70, 0
6, 159840, Note_on_c, 4, 74, 105
6, 159840, Note_on_c, 4, 55, 105
6, 160320, Note_on_c, 4, 55, 0
6, 160320, Note_on_c, 4, 70, 0
6, 160320, Note_on_c, 4, 50, 0
6, 160320, Note_on_c, 4, 43, 0
6, 160320, Note_on_c, 4, 46, 0
6, 160320, Note_on_c, 4, 67, 0
6, 160320, Note_on_c, 4, 62, 0
6, 160320, Note_on_c, 4, 74, 0
6, 161705, Note_on_c, 4, 46, 95
6, 161730, Note_on_c, 4, 58, 96
6, 161740, Note_on_c, 4, 62, 100
6, 161750, Note_on_c, 4, 65, 100
6, 161760, Note_on_c, 4, 67, 102
6, 161780, Note_on_c, 4, 70, 105
6, 162185, Note_on_c, 4, 46, 0
6, 162190, Note_on_c, 4, 48, 93
6, 162210, Note_on_c, 4, 58, 0
6, 162210, Note_on_c, 4, 57, 98
6, 162220, Note_on_c, 4, 62, 0
6, 162224, Note_on_c, 4, 70, 0
6, 162230, Note_on_c, 4, 65, 0
6, 162230, Note_on_c, 4, 60, 101
6, 162240, Note_on_c, 4, 67, 0
6, 162240, Note_on_c, 4, 65, 105
6, 162265, Note_on_c, 4, 69, 112
6, 162659, Note_on_c, 4, 60, 0
6, 162670, Note_on_c, 4, 48, 0
6, 162675, Note_on_c, 4, 48, 89
6, 162690, Note_on_c, 4, 57, 0
6, 162690, Note_on_c, 4, 58, 91
6, 162699, Note_on_c, 4, 65, 0
6, 162704, Note_on_c, 4, 69, 0
6, 162710, Note_on_c, 4, 60, 96
6, 162720, Note_on_c, 4, 64, 96
6, 162750, Note_on_c, 4, 67, 101
6, 163155, Note_on_c, 4, 48, 0
6, 163170, Note_on_c, 4, 58, 0
6, 163174, Note_on_c, 4, 64, 0
6, 163175, Note_on_c, 4, 57, 89
6, 163184, Note_on_c, 4, 67, 0
6, 163190, Note_on_c, 4, 60, 0
6, 163200, Note_on_c, 4, 60, 96
6, 163200, Note_on_c, 4, 41, 96
6, 163225, Note_on_c, 4, 65, 102
6, 163655, Note_on_c, 4, 57, 0
6, 163680, Note_on_c, 4, 60, 0
6, 163680, Note_on_c, 4, 41, 0
6, 163705, Note_on_c, 4, 65, 0
6, 164640, Note_on_c, 4, 50, 89
6, 164700, Note_on_c, 4, 50, 0
6, 164700, Note_on_c, 4, 53, 89
6, 164760, Note_on_c, 4, 53, 0
6, 164760, Note_on_c, 4, 58, 89
6, 164820, Note_on_c, 4, 58, 0
6, 164820, Note_on_c, 4, 62, 93
6, 164880, Note_on_c, 4, 62, 0
6, 164880, Note_on_c, 4, 65, 98
6, 164940, Note_on_c, 4, 65, 0
6, 164940, Note_on_c, 4, 70, 100
6, 165000, Note_on_c, 4, 70, 0
6, 165000, Note_on_c, 4, 65, 99
6, 165060, Note_on_c, 4, 65, 0
6, 165060, Note_on_c, 4, 62, 90
6, 165120, Note_on_c, 4, 62, 0
6, 165120, Note_on_c, 4, 48, 88
6, 165180, Note_on_c, 4, 48, 0
6, 165180, Note_on_c, 4, 53, 93
6, 165240, Note_on_c, 4, 53, 0
6, 165240, Note_on_c, 4, 57, 96
6, 165300, Note_on_c, 4, 57, 0
6, 165300, Note_on_c, 4, 60, 100
6, 165360, Note_on_c, 4, 60, 0
6, 165360, Note_on_c, 4, 65, 99
6, 165420, Note_on_c, 4, 65, 0
6, 165420, Note_on_c, 4, 69, 99
6, 165480, Note_on_c, 4, 69, 0
6, 165480, Note_on_c, 4, 65, 97
6, 165540, Note_on_c, 4, 65, 0
6, 165540, Note_on_c, 4, 60, 90
6, 165600, Note_on_c, 4, 60, 0
6, 165600, Note_on_c, 4, 48, 87
6, 165660, Note_on_c, 4, 48, 0
6, 165660, Note_on_c, 4, 55, 89
6, 165720, Note_on_c, 4, 55, 0
6, 165720, Note_on_c, 4, 58, 93
6, 165780, Note_on_c, 4, 58, 0
6, 165780, Note_on_c, 4, 60, 95
6, 165840, Note_on_c, 4, 60, 0
6, 165840, Note_on_c, 4, 64, 96
6, 165900, Note_on_c, 4, 64, 0
6, 165900, Note_on_c, 4, 67, 96
6, 165960, Note_on_c, 4, 67, 0
6, 165960, Note_on_c, 4, 64, 97
6, 166020, Note_on_c, 4, 64, 0
6, 166020, Note_on_c, 4, 60, 97
6, 166080, Note_on_c, 4, 60, 0
6, 166080, Note_on_c, 4, 65, 97
6, 166080, Note_on_c, 4, 53, 97
6, 166200, Note_on_c, 4, 65, 0
6, 166200, Note_on_c, 4, 72, 97
6, 166320, Note_on_c, 4, 72, 0
6, 166320, Note_on_c, 4, 69, 79
6, 166440, Note_on_c, 4, 69, 0
6, 166440, Note_on_c, 4, 72, 79
6, 166560, Note_on_c, 4, 72, 0
6, 166560, Note_on_c, 4, 53, 0
6, 166560, Note_on_c, 4, 65, 79
6, 166680, Note_on_c, 4, 65, 0
6, 166680, Note_on_c, 4, 72, 79
6, 166800, Note_on_c, 4, 72, 0
6, 166800, Note_on_c, 4, 69, 79
6, 166920, Note_on_c, 4, 69, 0
6, 166920, Note_on_c, 4, 72, 79
6, 167040, Note_on_c, 4, 72, 0
6, 167040, Note_on_c, 4, 67, 79
6, 167160, Note_on_c, 4, 67, 0
6, 167160, Note_on_c, 4, 72, 79
6, 167280, Note_on_c, 4, 72, 0
6, 167280, Note_on_c, 4, 70, 79
6, 167400, Note_on_c, 4, 70, 0
6, 167400, Note_on_c, 4, 72, 79
6, 167520, Note_on_c, 4, 72, 0
6, 167520, Note_on_c, 4, 65, 70
6, 167640, Note_on_c, 4, 65, 0
6, 167640, Note_on_c, 4, 72, 70
6, 167760, Note_on_c, 4, 72, 0
6, 167760, Note_on_c, 4, 84, 70
6, 167760, Note_on_c, 4, 69, 70
6, 167880, Note_on_c, 4, 69, 0
6, 167880, Note_on_c, 4, 72, 70
6, 168000, Note_on_c, 4, 72, 0
6, 168000, Note_on_c, 4, 84, 0
6, 168000, Note_on_c, 4, 86, 86
6, 168000, Note_on_c, 4, 65, 70
6, 168060, Note_on_c, 4, 86, 0
6, 168060, Note_on_c, 4, 84, 93
6, 168120, Note_on_c, 4, 84, 0
6, 168120, Note_on_c, 4, 65, 0
6, 168120, Note_on_c, 4, 86, 94
6, 168120, Note_on_c, 4, 72, 70
6, 168148, Note_on_c, 4, 86, 0
6, 168148, Note_on_c, 4, 84, 94
6, 168180, Note_on_c, 4, 84, 0
6, 168180, Note_on_c, 4, 86, 93
6, 168208, Note_on_c, 4, 86, 0
6, 168208, Note_on_c, 4, 84, 93
6, 168240, Note_on_c, 4, 84, 0
6, 168240, Note_on_c, 4, 72, 0
6, 168240, Note_on_c, 4, 86, 92
6, 168240, Note_on_c, 4, 69, 70
6, 168268, Note_on_c, 4, 86, 0
6, 168268, Note_on_c, 4, 84, 90
6, 168300, Note_on_c, 4, 84, 0
6, 168300, Note_on_c, 4, 86, 88
6, 168328, Note_on_c, 4, 86, 0
6, 168328, Note_on_c, 4, 84, 89
6, 168360, Note_on_c, 4, 84, 0
6, 168360, Note_on_c, 4, 69, 0
6, 168360, Note_on_c, 4, 82, 89
6, 168360, Note_on_c, 4, 72, 70
6, 168420, Note_on_c, 4, 82, 0
6, 168420, Note_on_c, 4, 84, 89
6, 168480, Note_on_c, 4, 84, 0
6, 168480, Note_on_c, 4, 72, 0
6, 168480, Note_on_c, 4, 89, 91
6, 168480, Note_on_c, 4, 67, 70
6, 168540, Note_on_c, 4, 89, 0
6, 168540, Note_on_c, 4, 88, 91
6, 168600, Note_on_c, 4, 88, 0
6, 168600, Note_on_c, 4, 67, 0
6, 168600, Note_on_c, 4, 89, 91
6, 168600, Note_on_c, 4, 72, 70
6, 168628, Note_on_c, 4, 89, 0
6, 168628, Note_on_c, 4, 88, 91
6, 168660, Note_on_c, 4, 88, 0
6, 168660, Note_on_c, 4, 89, 93
6, 168688, Note_on_c, 4, 89, 0
6, 168688, Note_on_c, 4, 88, 93
6, 168720, Note_on_c, 4, 88, 0
6, 168720, Note_on_c, 4, 72, 0
6, 168720, Note_on_c, 4, 89, 95
6, 168720, Note_on_c, 4, 70, 70
6, 168748, Note_on_c, 4, 89, 0
6, 168748, Note_on_c, 4, 88, 95
6, 168780, Note_on_c, 4, 88, 0
6, 168780, Note_on_c, 4, 89, 94
6, 168808, Note_on_c, 4, 89, 0
6, 168808, Note_on_c, 4, 88, 91
6, 168840, Note_on_c, 4, 88, 0
6, 168840, Note_on_c, 4, 70, 0
6, 168840, Note_on_c, 4, 86, 89
6, 168840, Note_on_c, 4, 72, 70
6, 168900, Note_on_c, 4, 86, 0
6, 168900, Note_on_c, 4, 88, 85
6, 168919, Note_on_c, 4, 72, 0
6, 168930, Note_on_c, 4, 65, 80
6, 168950, Note_on_c, 4, 69, 82
6, 168960, Note_on_c, 4, 88, 0
6, 168960, Note_on_c, 4, 89, 83
6, 168960, Note_on_c, 4, 72, 83
6, 169170, Note_on_c, 4, 65, 0
6, 169190, Note_on_c, 4, 69, 0
6, 169200, Note_on_c, 4, 89, 0
6, 169200, Note_on_c, 4, 72, 0
6, 169348, Note_on_c, 4, 60, 76
6, 169348, Note_on_c, 4, 41, 76
6, 169375, Note_on_c, 4, 45, 80
6, 169380, Note_on_c, 4, 65, 80
6, 169405, Note_on_c, 4, 48, 82
6, 169415, Note_on_c, 4, 69, 82
6, 169440, Note_on_c, 4, 72, 83
6, 169440, Note_on_c, 4, 53, 83
6, 169588, Note_on_c, 4, 41, 0
6, 169588, Note_on_c, 4, 60, 0
6, 169615, Note_on_c, 4, 45, 0
6, 169620, Note_on_c, 4, 65, 0
6, 169645, Note_on_c, 4, 48, 0
6, 169655, Note_on_c, 4, 69, 0
6, 169680, Note_on_c, 4, 53, 0
6, 169680, Note_on_c, 4, 72, 0
6, 169828, Note_on_c, 4, 60, 75
6, 169828, Note_on_c, 4, 41, 75
6, 169855, Note_on_c, 4, 45, 77
6, 169865, Note_on_c, 4, 65, 77
6, 169880, Note_on_c, 4, 48, 78
6, 169890, Note_on_c, 4, 69, 80
6, 169920, Note_on_c, 4, 72, 83
6, 169920, Note_on_c, 4, 53, 83
6, 170068, Note_on_c, 4, 41, 0
6, 170068, Note_on_c, 4, 60, 0
6, 170095, Note_on_c, 4, 45, 0
6, 170105, Note_on_c, 4, 65, 0
6, 170120, Note_on_c, 4, 48, 0
6, 170130, Note_on_c, 4, 69, 0
6, 170160, Note_on_c, 4, 53, 0
6, 170160, Note_on_c, 4, 72, 0
6, 170308, Note_on_c, 4, 60, 73
6, 170308, Note_on_c, 4, 41, 73
6, 170330, Note_on_c, 4, 65, 73
6, 170335, Note_on_c, 4, 45, 75
6, 170360, Note_on_c, 4, 48, 76
6, 170365, Note_on_c, 4, 69, 76
6, 170400, Note_on_c, 4, 72, 77
6, 170400, Note_on_c, 4, 53, 60
6, 170788, Note_on_c, 4, 41, 0
6, 170788, Note_on_c, 4, 60, 0
6, 170810, Note_on_c, 4, 65, 0
6, 170815, Note_on_c, 4, 45, 0
6, 170840, Note_on_c, 4, 48, 0
6, 170845, Note_on_c, 4, 69, 0
6, 170880, Note_on_c, 4, 53, 0
6, 170880, Note_on_c, 4, 72, 0
6, 170880, End_track
7, 0, Start_track
7, 0, Title_t, "Violin I"
7, 0, Control_c, 5, 0, 0
7, 0, Control_c, 5, 7, 100
7, 0, Control_c, 5, 10, 30
7, 0, Control_c, 5, 91, 88
7, 0, Control_c, 5, 93, 88
7, 1, Control_c, 5, 32, 1
7, 2, Program_c, 5, 48
7, 1920, Note_on_c, 5, 69, 70
7, 2160, Note_on_c, 5, 69, 0
7, 2400, Note_on_c, 5, 69, 70
7, 2640, Note_on_c, 5, 69, 0
7, 2880, Note_on_c, 5, 69, 70
7, 3120, Note_on_c, 5, 69, 0
7, 3360, Note_on_c, 5, 67, 92
7, 4200, Note_on_c, 5, 64, 92
7, 4229, Note_on_c, 5, 67, 0
7, 4320, Note_on_c, 5, 65, 92
7, 4364, Note_on_c, 5, 64, 0
7, 4560, Note_on_c, 5, 65, 0
7, 4800, Note_on_c, 5, 69, 70
7, 4844, Note_on_c, 5, 69, 0
7, 4920, Note_on_c, 5, 70, 70
7, 4964, Note_on_c, 5, 70, 0
7, 5040, Note_on_c, 5, 72, 70
7, 5084, Note_on_c, 5, 72, 0
7, 5160, Note_on_c, 5, 74, 70
7, 5204, Note_on_c, 5, 74, 0
7, 5280, Note_on_c, 5, 72, 70
7, 5324, Note_on_c, 5, 72, 0
7, 5400, Note_on_c, 5, 74, 70
7, 5444, Note_on_c, 5, 74, 0
7, 5520, Note_on_c, 5, 76, 70
7, 5564, Note_on_c, 5, 76, 0
7, 5640, Note_on_c, 5, 77, 70
7, 5684, Note_on_c, 5, 77, 0
7, 5760, Note_on_c, 5, 76, 70
7, 5804, Note_on_c, 5, 76, 0
7, 5880, Note_on_c, 5, 77, 70
7, 5924, Note_on_c, 5, 77, 0
7, 6000, Note_on_c, 5, 76, 70
7, 6044, Note_on_c, 5, 76, 0
7, 6120, Note_on_c, 5, 77, 70
7, 6164, Note_on_c, 5, 77, 0
7, 6240, Note_on_c, 5, 70, 70
7, 7080, Note_on_c, 5, 72, 70
7, 7109, Note_on_c, 5, 70, 0
7, 7140, Note_on_c, 5, 74, 70
7, 7159, Note_on_c, 5, 72, 0
7, 7200, Note_on_c, 5, 74, 0
7, 7200, Note_on_c, 5, 72, 70
7, 7440, Note_on_c, 5, 72, 0
7, 7680, Note_on_c, 5, 69, 93
7, 8400, Note_on_c, 5, 70, 93
7, 8434, Note_on_c, 5, 69, 0
7, 8520, Note_on_c, 5, 72, 93
7, 8559, Note_on_c, 5, 70, 0
7, 8619, Note_on_c, 5, 72, 0
7, 8640, Note_on_c, 5, 76, 93
7, 8760, Note_on_c, 5, 74, 93
7, 8797, Note_on_c, 5, 76, 0
7, 8880, Note_on_c, 5, 72, 93
7, 8917, Note_on_c, 5, 74, 0
7, 9000, Note_on_c, 5, 70, 93
7, 9037, Note_on_c, 5, 72, 0
7, 9099, Note_on_c, 5, 70, 0
7, 9120, Note_on_c, 5, 69, 93
7, 9360, Note_on_c, 5, 67, 93
7, 9409, Note_on_c, 5, 69, 0
7, 9819, Note_on_c, 5, 67, 0
7, 9840, Note_on_c, 5, 69, 93
7, 9960, Note_on_c, 5, 70, 93
7, 9989, Note_on_c, 5, 69, 0
7, 10059, Note_on_c, 5, 70, 0
7, 10080, Note_on_c, 5, 74, 93
7, 10200, Note_on_c, 5, 72, 93
7, 10237, Note_on_c, 5, 74, 0
7, 10320, Note_on_c, 5, 70, 93
7, 10357, Note_on_c, 5, 72, 0
7, 10440, Note_on_c, 5, 69, 93
7, 10477, Note_on_c, 5, 70, 0
7, 10529, Note_on_c, 5, 69, 0
7, 10560, Note_on_c, 5, 67, 93
7, 10800, Note_on_c, 5, 65, 93
7, 10844, Note_on_c, 5, 67, 0
7, 11224, Note_on_c, 5, 65, 0
7, 11280, Note_on_c, 5, 67, 93
7, 11400, Note_on_c, 5, 69, 93
7, 11439, Note_on_c, 5, 67, 0
7, 11484, Note_on_c, 5, 69, 0
7, 11520, Note_on_c, 5, 70, 93
7, 11640, Note_on_c, 5, 72, 93
7, 11677, Note_on_c, 5, 70, 0
7, 11760, Note_on_c, 5, 74, 93
7, 11797, Note_on_c, 5, 72, 0
7, 11880, Note_on_c, 5, 70, 93
7, 11917, Note_on_c, 5, 74, 0
7, 11979, Note_on_c, 5, 70, 0
7, 12000, Note_on_c, 5, 69, 93
7, 12360, Note_on_c, 5, 67, 93
7, 12394, Note_on_c, 5, 69, 0
7, 12449, Note_on_c, 5, 67, 0
7, 12480, Note_on_c, 5, 67, 93
7, 13200, Note_on_c, 5, 69, 80
7, 13254, Note_on_c, 5, 67, 0
7, 13394, Note_on_c, 5, 69, 0
7, 13440, Note_on_c, 5, 70, 70
7, 13800, Note_on_c, 5, 72, 70
7, 13829, Note_on_c, 5, 70, 0
7, 13860, Note_on_c, 5, 74, 70
7, 13889, Note_on_c, 5, 72, 0
7, 13910, Note_on_c, 5, 74, 0
7, 13920, Note_on_c, 5, 65, 70
7, 14400, Note_on_c, 5, 69, 70
7, 14449, Note_on_c, 5, 65, 0
7, 14640, Note_on_c, 5, 67, 70
7, 14689, Note_on_c, 5, 69, 0
7, 14864, Note_on_c, 5, 67, 0
7, 14880, Note_on_c, 5, 65, 70
7, 15084, Note_on_c, 5, 65, 0
7, 15120, Note_on_c, 5, 77, 70
7, 15240, Note_on_c, 5, 76, 70
7, 15279, Note_on_c, 5, 77, 0
7, 15329, Note_on_c, 5, 76, 0
7, 15360, Note_on_c, 5, 76, 70
7, 15480, Note_on_c, 5, 74, 70
7, 15519, Note_on_c, 5, 76, 0
7, 15569, Note_on_c, 5, 74, 0
7, 15600, Note_on_c, 5, 74, 70
7, 15720, Note_on_c, 5, 72, 70
7, 15764, Note_on_c, 5, 74, 0
7, 15809, Note_on_c, 5, 72, 0
7, 15840, Note_on_c, 5, 72, 70
7, 15960, Note_on_c, 5, 71, 70
7, 16009, Note_on_c, 5, 72, 0
7, 16080, Note_on_c, 5, 74, 70
7, 16109, Note_on_c, 5, 71, 0
7, 16200, Note_on_c, 5, 72, 70
7, 16244, Note_on_c, 5, 74, 0
7, 16304, Note_on_c, 5, 72, 0
7, 16320, Note_on_c, 5, 70, 70
7, 16680, Note_on_c, 5, 72, 70
7, 16709, Note_on_c, 5, 70, 0
7, 16740, Note_on_c, 5, 74, 70
7, 16779, Note_on_c, 5, 72, 0
7, 16790, Note_on_c, 5, 74, 0
7, 16800, Note_on_c, 5, 65, 70
7, 17280, Note_on_c, 5, 69, 70
7, 17329, Note_on_c, 5, 65, 0
7, 17520, Note_on_c, 5, 67, 70
7, 17564, Note_on_c, 5, 69, 0
7, 17724, Note_on_c, 5, 67, 0
7, 17760, Note_on_c, 5, 65, 70
7, 17969, Note_on_c, 5, 65, 0
7, 18000, Note_on_c, 5, 60, 92
7, 18240, Note_on_c, 5, 62, 92
7, 18289, Note_on_c, 5, 60, 0
7, 18480, Note_on_c, 5, 64, 92
7, 18514, Note_on_c, 5, 62, 0
7, 18720, Note_on_c, 5, 65, 92
7, 18784, Note_on_c, 5, 64, 0
7, 18960, Note_on_c, 5, 67, 80
7, 19014, Note_on_c, 5, 65, 0
7, 19154, Note_on_c, 5, 67, 0
7, 19200, Note_on_c, 5, 69, 70
7, 19680, Note_on_c, 5, 69, 0
7, 24960, Note_on_c, 5, 69, 70
7, 25680, Note_on_c, 5, 70, 70
7, 25714, Note_on_c, 5, 69, 0
7, 25800, Note_on_c, 5, 72, 70
7, 25842, Note_on_c, 5, 70, 0
7, 25920, Note_on_c, 5, 76, 70
7, 25957, Note_on_c, 5, 72, 0
7, 26040, Note_on_c, 5, 74, 70
7, 26077, Note_on_c, 5, 76, 0
7, 26160, Note_on_c, 5, 72, 70
7, 26197, Note_on_c, 5, 74, 0
7, 26280, Note_on_c, 5, 70, 70
7, 26317, Note_on_c, 5, 72, 0
7, 26374, Note_on_c, 5, 70, 0
7, 26400, Note_on_c, 5, 69, 70
7, 26640, Note_on_c, 5, 67, 70
7, 26684, Note_on_c, 5, 69, 0
7, 27079, Note_on_c, 5, 67, 0
7, 27120, Note_on_c, 5, 69, 70
7, 27240, Note_on_c, 5, 70, 70
7, 27277, Note_on_c, 5, 69, 0
7, 27360, Note_on_c, 5, 74, 70
7, 27397, Note_on_c, 5, 70, 0
7, 27480, Note_on_c, 5, 72, 70
7, 27517, Note_on_c, 5, 74, 0
7, 27600, Note_on_c, 5, 70, 70
7, 27637, Note_on_c, 5, 72, 0
7, 27720, Note_on_c, 5, 69, 70
7, 27757, Note_on_c, 5, 70, 0
7, 27824, Note_on_c, 5, 69, 0
7, 27840, Note_on_c, 5, 67, 70
7, 28080, Note_on_c, 5, 65, 70
7, 28129, Note_on_c, 5, 67, 0
7, 28514, Note_on_c, 5, 65, 0
7, 28560, Note_on_c, 5, 67, 70
7, 28680, Note_on_c, 5, 69, 70
7, 28717, Note_on_c, 5, 67, 0
7, 28800, Note_on_c, 5, 70, 70
7, 28837, Note_on_c, 5, 69, 0
7, 28920, Note_on_c, 5, 72, 70
7, 28957, Note_on_c, 5, 70, 0
7, 29040, Note_on_c, 5, 74, 70
7, 29077, Note_on_c, 5, 72, 0
7, 29160, Note_on_c, 5, 70, 70
7, 29197, Note_on_c, 5, 74, 0
7, 29259, Note_on_c, 5, 70, 0
7, 29280, Note_on_c, 5, 69, 70
7, 29760, Note_on_c, 5, 67, 70
7, 29809, Note_on_c, 5, 69, 0
7, 30240, Note_on_c, 5, 67, 0
7, 30720, Note_on_c, 5, 67, 47
7, 30888, Note_on_c, 5, 67, 0
7, 30960, Note_on_c, 5, 67, 47
7, 31128, Note_on_c, 5, 67, 0
7, 31200, Note_on_c, 5, 67, 47
7, 31368, Note_on_c, 5, 67, 0
7, 31440, Note_on_c, 5, 67, 47
7, 31608, Note_on_c, 5, 67, 0
7, 31680, Note_on_c, 5, 67, 47
7, 31848, Note_on_c, 5, 67, 0
7, 31920, Note_on_c, 5, 67, 47
7, 32088, Note_on_c, 5, 67, 0
7, 32160, Note_on_c, 5, 67, 47
7, 32328, Note_on_c, 5, 67, 0
7, 32400, Note_on_c, 5, 67, 47
7, 32568, Note_on_c, 5, 67, 0
7, 32640, Note_on_c, 5, 67, 47
7, 32808, Note_on_c, 5, 67, 0
7, 32880, Note_on_c, 5, 67, 48
7, 33048, Note_on_c, 5, 67, 0
7, 33120, Note_on_c, 5, 67, 48
7, 33288, Note_on_c, 5, 67, 0
7, 33360, Note_on_c, 5, 67, 48
7, 33528, Note_on_c, 5, 67, 0
7, 33600, Note_on_c, 5, 67, 48
7, 33768, Note_on_c, 5, 67, 0
7, 33840, Note_on_c, 5, 67, 48
7, 34008, Note_on_c, 5, 67, 0
7, 34080, Note_on_c, 5, 67, 48
7, 34248, Note_on_c, 5, 67, 0
7, 34320, Note_on_c, 5, 67, 48
7, 34488, Note_on_c, 5, 67, 0
7, 34560, Note_on_c, 5, 67, 48
7, 34728, Note_on_c, 5, 67, 0
7, 34800, Note_on_c, 5, 67, 48
7, 34968, Note_on_c, 5, 67, 0
7, 35040, Note_on_c, 5, 67, 53
7, 36000, Note_on_c, 5, 67, 0
7, 36960, Note_on_c, 5, 76, 52
7, 37056, Note_on_c, 5, 76, 0
7, 37440, Note_on_c, 5, 79, 52
7, 37536, Note_on_c, 5, 79, 0
7, 38400, Note_on_c, 5, 74, 51
7, 38496, Note_on_c, 5, 74, 0
7, 38880, Note_on_c, 5, 77, 50
7, 38976, Note_on_c, 5, 77, 0
7, 39840, Note_on_c, 5, 74, 49
7, 39936, Note_on_c, 5, 74, 0
7, 40320, Note_on_c, 5, 77, 48
7, 40416, Note_on_c, 5, 77, 0
7, 41280, Note_on_c, 5, 76, 47
7, 41399, Note_on_c, 5, 76, 0
7, 41760, Note_on_c, 5, 79, 47
7, 41864, Note_on_c, 5, 79, 0
7, 42720, Note_on_c, 5, 72, 47
7, 42816, Note_on_c, 5, 72, 0
7, 43200, Note_on_c, 5, 78, 47
7, 43296, Note_on_c, 5, 78, 0
7, 44160, Note_on_c, 5, 79, 48
7, 44256, Note_on_c, 5, 79, 0
7, 44640, Note_on_c, 5, 78, 48
7, 44736, Note_on_c, 5, 78, 0
7, 45120, Note_on_c, 5, 79, 48
7, 45600, Note_on_c, 5, 79, 0
7, 46560, Note_on_c, 5, 79, 95
7, 47040, Note_on_c, 5, 76, 70
7, 47124, Note_on_c, 5, 79, 0
7, 47280, Note_on_c, 5, 76, 0
7, 47400, Note_on_c, 5, 76, 70
7, 47444, Note_on_c, 5, 76, 0
7, 47520, Note_on_c, 5, 77, 70
7, 47640, Note_on_c, 5, 79, 70
7, 47670, Note_on_c, 5, 77, 0
7, 47760, Note_on_c, 5, 81, 70
7, 47790, Note_on_c, 5, 79, 0
7, 47880, Note_on_c, 5, 83, 70
7, 47910, Note_on_c, 5, 81, 0
7, 47979, Note_on_c, 5, 83, 0
7, 48000, Note_on_c, 5, 84, 70
7, 48240, Note_on_c, 5, 83, 70
7, 48300, Note_on_c, 5, 84, 0
7, 48480, Note_on_c, 5, 81, 70
7, 48540, Note_on_c, 5, 83, 0
7, 48720, Note_on_c, 5, 79, 70
7, 48780, Note_on_c, 5, 81, 0
7, 48960, Note_on_c, 5, 77, 70
7, 49020, Note_on_c, 5, 79, 0
7, 49200, Note_on_c, 5, 76, 70
7, 49260, Note_on_c, 5, 77, 0
7, 49409, Note_on_c, 5, 76, 0
7, 49440, Note_on_c, 5, 74, 80
7, 50400, Note_on_c, 5, 76, 81
7, 50464, Note_on_c, 5, 74, 0
7, 50874, Note_on_c, 5, 76, 0
7, 50880, Note_on_c, 5, 76, 91
7, 51240, Note_on_c, 5, 77, 91
7, 51289, Note_on_c, 5, 76, 0
7, 51329, Note_on_c, 5, 77, 0
7, 51360, Note_on_c, 5, 77, 75
7, 52080, Note_on_c, 5, 77, 0
7, 52080, Note_on_c, 5, 65, 70
7, 52320, Note_on_c, 5, 65, 0
7, 52320, Note_on_c, 5, 64, 70
7, 53280, Note_on_c, 5, 65, 70
7, 53369, Note_on_c, 5, 64, 0
7, 53729, Note_on_c, 5, 65, 0
7, 53760, Note_on_c, 5, 67, 70
7, 55200, Note_on_c, 5, 67, 0
7, 55200, Note_on_c, 5, 65, 70
7, 55440, Note_on_c, 5, 65, 0
7, 55680, Note_on_c, 5, 64, 70
7, 55920, Note_on_c, 5, 64, 0
7, 56160, Note_on_c, 5, 62, 70
7, 56400, Note_on_c, 5, 62, 0
7, 56640, Note_on_c, 5, 67, 91
7, 57120, Note_on_c, 5, 64, 70
7, 57199, Note_on_c, 5, 67, 0
7, 57360, Note_on_c, 5, 64, 0
7, 57480, Note_on_c, 5, 64, 70
7, 57524, Note_on_c, 5, 64, 0
7, 57600, Note_on_c, 5, 65, 70
7, 57720, Note_on_c, 5, 67, 70
7, 57750, Note_on_c, 5, 65, 0
7, 57840, Note_on_c, 5, 69, 70
7, 57870, Note_on_c, 5, 67, 0
7, 57960, Note_on_c, 5, 71, 70
7, 57990, Note_on_c, 5, 69, 0
7, 58064, Note_on_c, 5, 71, 0
7, 58080, Note_on_c, 5, 72, 70
7, 58320, Note_on_c, 5, 71, 70
7, 58380, Note_on_c, 5, 72, 0
7, 58560, Note_on_c, 5, 69, 70
7, 58620, Note_on_c, 5, 71, 0
7, 58800, Note_on_c, 5, 67, 70
7, 58860, Note_on_c, 5, 69, 0
7, 59040, Note_on_c, 5, 65, 70
7, 59100, Note_on_c, 5, 67, 0
7, 59280, Note_on_c, 5, 64, 70
7, 59340, Note_on_c, 5, 65, 0
7, 59489, Note_on_c, 5, 64, 0
7, 59520, Note_on_c, 5, 62, 72
7, 60480, Note_on_c, 5, 64, 81
7, 60524, Note_on_c, 5, 62, 0
7, 60899, Note_on_c, 5, 64, 0
7, 60960, Note_on_c, 5, 67, 86
7, 61320, Note_on_c, 5, 65, 89
7, 61369, Note_on_c, 5, 67, 0
7, 61424, Note_on_c, 5, 65, 0
7, 61440, Note_on_c, 5, 65, 70
7, 62400, Note_on_c, 5, 65, 0
7, 62400, Note_on_c, 5, 64, 70
7, 62880, Note_on_c, 5, 64, 0
7, 65280, Note_on_c, 5, 60, 70
7, 66240, Note_on_c, 5, 62, 70
7, 66329, Note_on_c, 5, 60, 0
7, 66669, Note_on_c, 5, 62, 0
7, 66720, Note_on_c, 5, 64, 70
7, 66960, Note_on_c, 5, 64, 0
7, 67200, Note_on_c, 5, 67, 70
7, 67440, Note_on_c, 5, 67, 0
7, 67680, Note_on_c, 5, 71, 70
7, 67920, Note_on_c, 5, 71, 0
7, 68160, Note_on_c, 5, 72, 70
7, 68400, Note_on_c, 5, 74, 70
7, 68479, Note_on_c, 5, 72, 0
7, 68640, Note_on_c, 5, 72, 70
7, 68719, Note_on_c, 5, 74, 0
7, 68880, Note_on_c, 5, 71, 70
7, 68959, Note_on_c, 5, 72, 0
7, 69120, Note_on_c, 5, 69, 70
7, 69199, Note_on_c, 5, 71, 0
7, 69360, Note_on_c, 5, 67, 70
7, 69439, Note_on_c, 5, 69, 0
7, 69600, Note_on_c, 5, 67, 0
7, 69600, Note_on_c, 5, 69, 70
7, 69840, Note_on_c, 5, 69, 0
7, 70080, Note_on_c, 5, 69, 70
7, 70320, Note_on_c, 5, 69, 0
7, 70560, Note_on_c, 5, 74, 70
7, 71040, Note_on_c, 5, 72, 70
7, 71149, Note_on_c, 5, 74, 0
7, 71229, Note_on_c, 5, 72, 0
7, 71280, Note_on_c, 5, 72, 70
7, 71376, Note_on_c, 5, 72, 0
7, 71520, Note_on_c, 5, 72, 70
7, 71760, Note_on_c, 5, 72, 0
7, 71760, Note_on_c, 5, 72, 70
7, 72000, Note_on_c, 5, 72, 0
7, 72000, Note_on_c, 5, 71, 70
7, 72240, Note_on_c, 5, 71, 0
7, 72240, Note_on_c, 5, 71, 70
7, 72480, Note_on_c, 5, 71, 0
7, 72480, Note_on_c, 5, 72, 70
7, 72960, Note_on_c, 5, 72, 0
7, 76800, Note_on_c, 5, 72, 70
7, 78240, Note_on_c, 5, 71, 69
7, 78369, Note_on_c, 5, 72, 0
7, 79599, Note_on_c, 5, 71, 0
7, 79680, Note_on_c, 5, 70, 79
7, 81120, Note_on_c, 5, 69, 90
7, 81239, Note_on_c, 5, 70, 0
7, 82489, Note_on_c, 5, 69, 0
7, 82560, Note_on_c, 5, 64, 89
7, 84000, Note_on_c, 5, 65, 70
7, 84089, Note_on_c, 5, 64, 0
7, 84240, Note_on_c, 5, 65, 0
7, 89760, Note_on_c, 5, 69, 70
7, 90480, Note_on_c, 5, 70, 70
7, 90539, Note_on_c, 5, 69, 0
7, 90600, Note_on_c, 5, 72, 70
7, 90649, Note_on_c, 5, 70, 0
7, 90709, Note_on_c, 5, 72, 0
7, 90720, Note_on_c, 5, 76, 70
7, 90840, Note_on_c, 5, 74, 70
7, 90880, Note_on_c, 5, 76, 0
7, 90960, Note_on_c, 5, 72, 70
7, 91000, Note_on_c, 5, 74, 0
7, 91080, Note_on_c, 5, 70, 70
7, 91120, Note_on_c, 5, 72, 0
7, 91169, Note_on_c, 5, 70, 0
7, 91200, Note_on_c, 5, 69, 70
7, 91440, Note_on_c, 5, 67, 70
7, 91524, Note_on_c, 5, 69, 0
7, 91894, Note_on_c, 5, 67, 0
7, 91920, Note_on_c, 5, 69, 70
7, 92040, Note_on_c, 5, 70, 70
7, 92084, Note_on_c, 5, 69, 0
7, 92149, Note_on_c, 5, 70, 0
7, 92160, Note_on_c, 5, 74, 70
7, 92280, Note_on_c, 5, 72, 70
7, 92320, Note_on_c, 5, 74, 0
7, 92400, Note_on_c, 5, 70, 70
7, 92440, Note_on_c, 5, 72, 0
7, 92520, Note_on_c, 5, 69, 70
7, 92560, Note_on_c, 5, 70, 0
7, 92629, Note_on_c, 5, 69, 0
7, 92640, Note_on_c, 5, 67, 70
7, 92880, Note_on_c, 5, 65, 70
7, 92934, Note_on_c, 5, 67, 0
7, 93319, Note_on_c, 5, 65, 0
7, 93360, Note_on_c, 5, 67, 70
7, 93480, Note_on_c, 5, 69, 70
7, 93519, Note_on_c, 5, 67, 0
7, 93579, Note_on_c, 5, 69, 0
7, 93600, Note_on_c, 5, 70, 70
7, 93720, Note_on_c, 5, 72, 70
7, 93760, Note_on_c, 5, 70, 0
7, 93840, Note_on_c, 5, 74, 70
7, 93880, Note_on_c, 5, 72, 0
7, 93960, Note_on_c, 5, 70, 70
7, 94000, Note_on_c, 5, 74, 0
7, 94049, Note_on_c, 5, 70, 0
7, 94080, Note_on_c, 5, 69, 70
7, 94560, Note_on_c, 5, 67, 70
7, 94619, Note_on_c, 5, 69, 0
7, 95040, Note_on_c, 5, 67, 0
7, 95520, Note_on_c, 5, 67, 61
7, 95688, Note_on_c, 5, 67, 0
7, 95760, Note_on_c, 5, 67, 61
7, 95928, Note_on_c, 5, 67, 0
7, 96000, Note_on_c, 5, 67, 61
7, 96168, Note_on_c, 5, 67, 0
7, 96240, Note_on_c, 5, 67, 61
7, 96408, Note_on_c, 5, 67, 0
7, 96480, Note_on_c, 5, 67, 61
7, 96648, Note_on_c, 5, 67, 0
7, 96720, Note_on_c, 5, 67, 61
7, 96888, Note_on_c, 5, 67, 0
7, 96960, Note_on_c, 5, 67, 61
7, 97128, Note_on_c, 5, 67, 0
7, 97200, Note_on_c, 5, 67, 61
7, 97368, Note_on_c, 5, 67, 0
7, 97440, Note_on_c, 5, 67, 61
7, 97608, Note_on_c, 5, 67, 0
7, 97680, Note_on_c, 5, 67, 61
7, 97848, Note_on_c, 5, 67, 0
7, 97920, Note_on_c, 5, 67, 60
7, 98088, Note_on_c, 5, 67, 0
7, 98160, Note_on_c, 5, 67, 60
7, 98328, Note_on_c, 5, 67, 0
7, 98400, Note_on_c, 5, 67, 60
7, 98568, Note_on_c, 5, 67, 0
7, 98640, Note_on_c, 5, 67, 60
7, 98808, Note_on_c, 5, 67, 0
7, 98880, Note_on_c, 5, 67, 60
7, 99048, Note_on_c, 5, 67, 0
7, 99120, Note_on_c, 5, 67, 60
7, 99288, Note_on_c, 5, 67, 0
7, 99360, Note_on_c, 5, 67, 60
7, 99528, Note_on_c, 5, 67, 0
7, 99600, Note_on_c, 5, 67, 60
7, 99768, Note_on_c, 5, 67, 0
7, 99840, Note_on_c, 5, 67, 60
7, 100519, Note_on_c, 5, 67, 0
7, 100560, Note_on_c, 5, 67, 81
7, 100800, Note_on_c, 5, 69, 79
7, 100849, Note_on_c, 5, 67, 0
7, 101040, Note_on_c, 5, 70, 78
7, 101079, Note_on_c, 5, 69, 0
7, 101249, Note_on_c, 5, 70, 0
7, 101280, Note_on_c, 5, 72, 69
7, 101760, Note_on_c, 5, 72, 0
7, 101760, Note_on_c, 5, 77, 54
7, 101856, Note_on_c, 5, 77, 0
7, 102240, Note_on_c, 5, 81, 54
7, 102336, Note_on_c, 5, 81, 0
7, 103200, Note_on_c, 5, 79, 54
7, 103296, Note_on_c, 5, 79, 0
7, 103680, Note_on_c, 5, 82, 54
7, 103776, Note_on_c, 5, 82, 0
7, 104640, Note_on_c, 5, 79, 54
7, 104736, Note_on_c, 5, 79, 0
7, 105120, Note_on_c, 5, 82, 54
7, 105216, Note_on_c, 5, 82, 0
7, 106080, Note_on_c, 5, 81, 54
7, 106176, Note_on_c, 5, 81, 0
7, 106560, Note_on_c, 5, 84, 54
7, 106656, Note_on_c, 5, 84, 0
7, 107520, Note_on_c, 5, 71, 54
7, 107616, Note_on_c, 5, 71, 0
7, 108000, Note_on_c, 5, 77, 54
7, 108096, Note_on_c, 5, 77, 0
7, 108960, Note_on_c, 5, 76, 54
7, 109056, Note_on_c, 5, 76, 0
7, 109440, Note_on_c, 5, 83, 54
7, 109536, Note_on_c, 5, 83, 0
7, 109920, Note_on_c, 5, 84, 54
7, 110400, Note_on_c, 5, 84, 0
7, 111360, Note_on_c, 5, 72, 79
7, 111840, Note_on_c, 5, 72, 0
7, 111840, Note_on_c, 5, 69, 70
7, 112080, Note_on_c, 5, 69, 0
7, 112200, Note_on_c, 5, 69, 70
7, 112244, Note_on_c, 5, 69, 0
7, 112320, Note_on_c, 5, 70, 70
7, 112440, Note_on_c, 5, 72, 70
7, 112480, Note_on_c, 5, 70, 0
7, 112560, Note_on_c, 5, 74, 70
7, 112600, Note_on_c, 5, 72, 0
7, 112680, Note_on_c, 5, 76, 70
7, 112720, Note_on_c, 5, 74, 0
7, 112800, Note_on_c, 5, 76, 0
7, 112800, Note_on_c, 5, 77, 70
7, 113040, Note_on_c, 5, 76, 70
7, 113087, Note_on_c, 5, 77, 0
7, 113280, Note_on_c, 5, 74, 70
7, 113327, Note_on_c, 5, 76, 0
7, 113520, Note_on_c, 5, 72, 70
7, 113567, Note_on_c, 5, 74, 0
7, 113760, Note_on_c, 5, 70, 70
7, 113807, Note_on_c, 5, 72, 0
7, 114000, Note_on_c, 5, 69, 70
7, 114047, Note_on_c, 5, 70, 0
7, 114240, Note_on_c, 5, 69, 0
7, 114240, Note_on_c, 5, 67, 72
7, 114720, Note_on_c, 5, 67, 0
7, 114720, Note_on_c, 5, 79, 78
7, 115440, Note_on_c, 5, 81, 87
7, 115489, Note_on_c, 5, 79, 0
7, 115644, Note_on_c, 5, 81, 0
7, 115680, Note_on_c, 5, 81, 87
7, 116040, Note_on_c, 5, 82, 88
7, 116084, Note_on_c, 5, 81, 0
7, 116139, Note_on_c, 5, 82, 0
7, 116160, Note_on_c, 5, 82, 68
7, 116880, Note_on_c, 5, 70, 70
7, 116909, Note_on_c, 5, 82, 0
7, 117089, Note_on_c, 5, 70, 0
7, 117120, Note_on_c, 5, 69, 70
7, 118080, Note_on_c, 5, 70, 70
7, 118129, Note_on_c, 5, 69, 0
7, 118560, Note_on_c, 5, 70, 0
7, 118560, Note_on_c, 5, 72, 70
7, 120000, Note_on_c, 5, 70, 70
7, 120049, Note_on_c, 5, 72, 0
7, 120240, Note_on_c, 5, 70, 0
7, 120480, Note_on_c, 5, 69, 70
7, 120720, Note_on_c, 5, 69, 0
7, 120960, Note_on_c, 5, 67, 70
7, 121200, Note_on_c, 5, 67, 0
7, 121440, Note_on_c, 5, 72, 89
7, 121920, Note_on_c, 5, 69, 89
7, 121969, Note_on_c, 5, 72, 0
7, 122160, Note_on_c, 5, 69, 0
7, 122280, Note_on_c, 5, 69, 89
7, 122324, Note_on_c, 5, 69, 0
7, 122400, Note_on_c, 5, 70, 89
7, 122520, Note_on_c, 5, 72, 89
7, 122560, Note_on_c, 5, 70, 0
7, 122640, Note_on_c, 5, 74, 89
7, 122680, Note_on_c, 5, 72, 0
7, 122760, Note_on_c, 5, 76, 89
7, 122800, Note_on_c, 5, 74, 0
7, 122880, Note_on_c, 5, 76, 0
7, 122880, Note_on_c, 5, 77, 89
7, 123120, Note_on_c, 5, 76, 89
7, 123180, Note_on_c, 5, 77, 0
7, 123360, Note_on_c, 5, 74, 89
7, 123420, Note_on_c, 5, 76, 0
7, 123600, Note_on_c, 5, 72, 89
7, 123660, Note_on_c, 5, 74, 0
7, 123840, Note_on_c, 5, 70, 89
7, 123900, Note_on_c, 5, 72, 0
7, 124080, Note_on_c, 5, 69, 89
7, 124140, Note_on_c, 5, 70, 0
7, 124320, Note_on_c, 5, 69, 0
7, 124320, Note_on_c, 5, 67, 80
7, 125280, Note_on_c, 5, 69, 90
7, 125324, Note_on_c, 5, 67, 0
7, 125760, Note_on_c, 5, 69, 0
7, 125760, Note_on_c, 5, 69, 90
7, 126120, Note_on_c, 5, 70, 82
7, 126169, Note_on_c, 5, 69, 0
7, 126219, Note_on_c, 5, 70, 0
7, 126240, Note_on_c, 5, 70, 70
7, 127200, Note_on_c, 5, 70, 0
7, 127200, Note_on_c, 5, 69, 70
7, 127680, Note_on_c, 5, 69, 0
7, 130080, Note_on_c, 5, 69, 70
7, 131040, Note_on_c, 5, 70, 70
7, 131104, Note_on_c, 5, 69, 0
7, 131520, Note_on_c, 5, 70, 0
7, 131520, Note_on_c, 5, 72, 70
7, 131760, Note_on_c, 5, 72, 0
7, 132000, Note_on_c, 5, 77, 70
7, 132240, Note_on_c, 5, 77, 0
7, 132480, Note_on_c, 5, 82, 70
7, 132720, Note_on_c, 5, 82, 0
7, 132960, Note_on_c, 5, 81, 70
7, 133200, Note_on_c, 5, 82, 70
7, 133260, Note_on_c, 5, 81, 0
7, 133440, Note_on_c, 5, 81, 70
7, 133500, Note_on_c, 5, 82, 0
7, 133680, Note_on_c, 5, 79, 70
7, 133740, Note_on_c, 5, 81, 0
7, 133920, Note_on_c, 5, 77, 70
7, 133980, Note_on_c, 5, 79, 0
7, 134160, Note_on_c, 5, 76, 70
7, 134220, Note_on_c, 5, 77, 0
7, 134400, Note_on_c, 5, 76, 0
7, 134400, Note_on_c, 5, 74, 70
7, 134580, Note_on_c, 5, 74, 0
7, 134640, Note_on_c, 5, 74, 70
7, 134820, Note_on_c, 5, 74, 0
7, 134880, Note_on_c, 5, 74, 70
7, 135060, Note_on_c, 5, 74, 0
7, 135120, Note_on_c, 5, 74, 70
7, 135300, Note_on_c, 5, 74, 0
7, 135360, Note_on_c, 5, 76, 70
7, 135540, Note_on_c, 5, 76, 0
7, 135600, Note_on_c, 5, 76, 70
7, 135780, Note_on_c, 5, 76, 0
7, 135840, Note_on_c, 5, 77, 70
7, 136020, Note_on_c, 5, 77, 0
7, 136080, Note_on_c, 5, 77, 70
7, 136260, Note_on_c, 5, 77, 0
7, 136320, Note_on_c, 5, 77, 70
7, 136500, Note_on_c, 5, 77, 0
7, 136560, Note_on_c, 5, 77, 70
7, 136740, Note_on_c, 5, 77, 0
7, 136800, Note_on_c, 5, 76, 70
7, 136980, Note_on_c, 5, 76, 0
7, 137040, Note_on_c, 5, 76, 70
7, 137220, Note_on_c, 5, 76, 0
7, 137280, Note_on_c, 5, 77, 70
7, 137760, Note_on_c, 5, 77, 0
7, 141840, Note_on_c, 5, 69, 70
7, 142080, Note_on_c, 5, 69, 0
7, 142320, Note_on_c, 5, 69, 70
7, 142560, Note_on_c, 5, 69, 0
7, 142800, Note_on_c, 5, 69, 70
7, 143040, Note_on_c, 5, 69, 0
7, 143280, Note_on_c, 5, 70, 70
7, 143520, Note_on_c, 5, 70, 0
7, 143760, Note_on_c, 5, 67, 77
7, 144000, Note_on_c, 5, 67, 0
7, 144240, Note_on_c, 5, 64, 84
7, 144480, Note_on_c, 5, 64, 0
7, 144480, Note_on_c, 5, 65, 87
7, 144720, Note_on_c, 5, 65, 0
7, 144720, Note_on_c, 5, 77, 91
7, 144960, Note_on_c, 5, 76, 91
7, 145020, Note_on_c, 5, 77, 0
7, 145200, Note_on_c, 5, 74, 91
7, 145260, Note_on_c, 5, 76, 0
7, 145440, Note_on_c, 5, 72, 91
7, 145500, Note_on_c, 5, 74, 0
7, 145680, Note_on_c, 5, 70, 91
7, 145740, Note_on_c, 5, 72, 0
7, 145920, Note_on_c, 5, 69, 91
7, 145980, Note_on_c, 5, 70, 0
7, 146160, Note_on_c, 5, 69, 0
7, 146160, Note_on_c, 5, 74, 91
7, 146400, Note_on_c, 5, 72, 91
7, 146460, Note_on_c, 5, 74, 0
7, 146640, Note_on_c, 5, 70, 91
7, 146700, Note_on_c, 5, 72, 0
7, 146880, Note_on_c, 5, 69, 91
7, 146940, Note_on_c, 5, 70, 0
7, 147120, Note_on_c, 5, 67, 91
7, 147180, Note_on_c, 5, 69, 0
7, 147360, Note_on_c, 5, 65, 91
7, 147420, Note_on_c, 5, 67, 0
7, 147600, Note_on_c, 5, 65, 0
7, 147600, Note_on_c, 5, 57, 91
7, 147840, Note_on_c, 5, 58, 80
7, 147900, Note_on_c, 5, 57, 0
7, 148080, Note_on_c, 5, 60, 80
7, 148140, Note_on_c, 5, 58, 0
7, 148320, Note_on_c, 5, 62, 80
7, 148380, Note_on_c, 5, 60, 0
7, 148560, Note_on_c, 5, 59, 80
7, 148620, Note_on_c, 5, 62, 0
7, 148800, Note_on_c, 5, 59, 0
7, 148800, Note_on_c, 5, 60, 80
7, 149284, Note_on_c, 5, 60, 0
7, 150240, Note_on_c, 5, 69, 70
7, 150480, Note_on_c, 5, 69, 0
7, 150720, Note_on_c, 5, 69, 70
7, 150960, Note_on_c, 5, 69, 0
7, 151200, Note_on_c, 5, 69, 70
7, 151440, Note_on_c, 5, 69, 0
7, 151680, Note_on_c, 5, 67, 90
7, 152520, Note_on_c, 5, 64, 90
7, 152559, Note_on_c, 5, 67, 0
7, 152640, Note_on_c, 5, 65, 90
7, 152684, Note_on_c, 5, 64, 0
7, 152880, Note_on_c, 5, 65, 0
7, 153120, Note_on_c, 5, 69, 60
7, 153164, Note_on_c, 5, 69, 0
7, 153240, Note_on_c, 5, 70, 60
7, 153284, Note_on_c, 5, 70, 0
7, 153360, Note_on_c, 5, 72, 60
7, 153404, Note_on_c, 5, 72, 0
7, 153480, Note_on_c, 5, 74, 60
7, 153524, Note_on_c, 5, 74, 0
7, 153600, Note_on_c, 5, 72, 60
7, 153644, Note_on_c, 5, 72, 0
7, 153720, Note_on_c, 5, 74, 60
7, 153764, Note_on_c, 5, 74, 0
7, 153840, Note_on_c, 5, 76, 60
7, 153884, Note_on_c, 5, 76, 0
7, 153960, Note_on_c, 5, 77, 60
7, 154004, Note_on_c, 5, 77, 0
7, 154080, Note_on_c, 5, 76, 60
7, 154124, Note_on_c, 5, 76, 0
7, 154200, Note_on_c, 5, 77, 60
7, 154244, Note_on_c, 5, 77, 0
7, 154320, Note_on_c, 5, 76, 60
7, 154364, Note_on_c, 5, 76, 0
7, 154440, Note_on_c, 5, 77, 60
7, 154484, Note_on_c, 5, 77, 0
7, 154560, Note_on_c, 5, 70, 60
7, 155400, Note_on_c, 5, 72, 70
7, 155424, Note_on_c, 5, 70, 0
7, 155460, Note_on_c, 5, 74, 70
7, 155489, Note_on_c, 5, 72, 0
7, 155520, Note_on_c, 5, 72, 70
7, 155554, Note_on_c, 5, 74, 0
7, 155760, Note_on_c, 5, 72, 0
7, 156000, Note_on_c, 5, 69, 89
7, 156720, Note_on_c, 5, 70, 89
7, 156749, Note_on_c, 5, 69, 0
7, 156840, Note_on_c, 5, 72, 89
7, 156864, Note_on_c, 5, 70, 0
7, 156960, Note_on_c, 5, 72, 0
7, 156960, Note_on_c, 5, 76, 89
7, 157080, Note_on_c, 5, 74, 89
7, 157110, Note_on_c, 5, 76, 0
7, 157200, Note_on_c, 5, 72, 89
7, 157230, Note_on_c, 5, 74, 0
7, 157320, Note_on_c, 5, 70, 89
7, 157350, Note_on_c, 5, 72, 0
7, 157440, Note_on_c, 5, 70, 0
7, 157440, Note_on_c, 5, 69, 89
7, 157680, Note_on_c, 5, 69, 0
7, 157680, Note_on_c, 5, 67, 89
7, 158160, Note_on_c, 5, 69, 89
7, 158194, Note_on_c, 5, 67, 0
7, 158280, Note_on_c, 5, 70, 89
7, 158309, Note_on_c, 5, 69, 0
7, 158400, Note_on_c, 5, 70, 0
7, 158400, Note_on_c, 5, 74, 89
7, 158520, Note_on_c, 5, 72, 89
7, 158550, Note_on_c, 5, 74, 0
7, 158640, Note_on_c, 5, 70, 89
7, 158670, Note_on_c, 5, 72, 0
7, 158760, Note_on_c, 5, 69, 89
7, 158790, Note_on_c, 5, 70, 0
7, 158880, Note_on_c, 5, 69, 0
7, 158880, Note_on_c, 5, 67, 89
7, 159120, Note_on_c, 5, 67, 0
7, 159120, Note_on_c, 5, 65, 89
7, 159600, Note_on_c, 5, 67, 89
7, 159634, Note_on_c, 5, 65, 0
7, 159720, Note_on_c, 5, 69, 89
7, 159744, Note_on_c, 5, 67, 0
7, 159840, Note_on_c, 5, 69, 0
7, 159840, Note_on_c, 5, 70, 89
7, 159960, Note_on_c, 5, 72, 89
7, 159990, Note_on_c, 5, 70, 0
7, 160080, Note_on_c, 5, 74, 89
7, 160110, Note_on_c, 5, 72, 0
7, 160200, Note_on_c, 5, 70, 89
7, 160230, Note_on_c, 5, 74, 0
7, 160320, Note_on_c, 5, 70, 0
7, 160320, Note_on_c, 5, 69, 89
7, 160680, Note_on_c, 5, 67, 89
7, 160724, Note_on_c, 5, 69, 0
7, 160800, Note_on_c, 5, 67, 0
7, 160800, Note_on_c, 5, 67, 89
7, 161520, Note_on_c, 5, 69, 70
7, 161564, Note_on_c, 5, 67, 0
7, 161760, Note_on_c, 5, 69, 0
7, 161760, Note_on_c, 5, 70, 70
7, 162120, Note_on_c, 5, 72, 70
7, 162154, Note_on_c, 5, 70, 0
7, 162180, Note_on_c, 5, 74, 70
7, 162204, Note_on_c, 5, 72, 0
7, 162240, Note_on_c, 5, 74, 0
7, 162240, Note_on_c, 5, 65, 70
7, 162720, Note_on_c, 5, 69, 70
7, 162759, Note_on_c, 5, 65, 0
7, 162960, Note_on_c, 5, 67, 70
7, 162994, Note_on_c, 5, 69, 0
7, 163200, Note_on_c, 5, 67, 0
7, 163200, Note_on_c, 5, 65, 70
7, 163440, Note_on_c, 5, 65, 0
7, 163440, Note_on_c, 5, 77, 70
7, 163560, Note_on_c, 5, 76, 70
7, 163599, Note_on_c, 5, 77, 0
7, 163654, Note_on_c, 5, 76, 0
7, 163680, Note_on_c, 5, 76, 70
7, 163800, Note_on_c, 5, 74, 70
7, 163839, Note_on_c, 5, 76, 0
7, 163884, Note_on_c, 5, 74, 0
7, 163920, Note_on_c, 5, 74, 70
7, 164040, Note_on_c, 5, 72, 70
7, 164079, Note_on_c, 5, 74, 0
7, 164129, Note_on_c, 5, 72, 0
7, 164160, Note_on_c, 5, 72, 67
7, 164280, Note_on_c, 5, 71, 66
7, 164314, Note_on_c, 5, 72, 0
7, 164400, Note_on_c, 5, 74, 64
7, 164424, Note_on_c, 5, 71, 0
7, 164520, Note_on_c, 5, 72, 62
7, 164559, Note_on_c, 5, 74, 0
7, 164640, Note_on_c, 5, 72, 0
7, 164640, Note_on_c, 5, 70, 60
7, 165000, Note_on_c, 5, 72, 59
7, 165024, Note_on_c, 5, 70, 0
7, 165060, Note_on_c, 5, 74, 59
7, 165079, Note_on_c, 5, 72, 0
7, 165120, Note_on_c, 5, 74, 0
7, 165120, Note_on_c, 5, 65, 59
7, 165600, Note_on_c, 5, 69, 59
7, 165639, Note_on_c, 5, 65, 0
7, 165840, Note_on_c, 5, 67, 59
7, 165884, Note_on_c, 5, 69, 0
7, 166080, Note_on_c, 5, 67, 0
7, 166080, Note_on_c, 5, 65, 59
7, 166560, Note_on_c, 5, 65, 0
7, 168960, Note_on_c, 5, 60, 60
7, 169309, Note_on_c, 5, 60, 0
7, 169440, Note_on_c, 5, 60, 60
7, 169759, Note_on_c, 5, 60, 0
7, 169920, Note_on_c, 5, 60, 60
7, 170249, Note_on_c, 5, 60, 0
7, 170400, Note_on_c, 5, 60, 60
7, 171360, Note_on_c, 5, 60, 0
7, 171360, End_track
8, 0, Start_track
8, 0, Title_t, "Violin II"
8, 0, Control_c, 6, 0, 0
8, 0, Control_c, 6, 7, 100
8, 0, Control_c, 6, 10, 100
8, 0, Control_c, 6, 91, 88
8, 0, Control_c, 6, 93, 85
8, 1, Control_c, 6, 32, 1
8, 2, Program_c, 6, 48
8, 1920, Note_on_c, 6, 60, 70
8, 2160, Note_on_c, 6, 60, 0
8, 2400, Note_on_c, 6, 60, 70
8, 2640, Note_on_c, 6, 60, 0
8, 2880, Note_on_c, 6, 60, 70
8, 3120, Note_on_c, 6, 60, 0
8, 3360, Note_on_c, 6, 58, 94
8, 4320, Note_on_c, 6, 57, 94
8, 4379, Note_on_c, 6, 58, 0
8, 4560, Note_on_c, 6, 57, 0
8, 4800, Note_on_c, 6, 65, 70
8, 4844, Note_on_c, 6, 65, 0
8, 4920, Note_on_c, 6, 67, 70
8, 4964, Note_on_c, 6, 67, 0
8, 5040, Note_on_c, 6, 69, 70
8, 5084, Note_on_c, 6, 69, 0
8, 5160, Note_on_c, 6, 70, 70
8, 5204, Note_on_c, 6, 70, 0
8, 5280, Note_on_c, 6, 69, 70
8, 5324, Note_on_c, 6, 69, 0
8, 5400, Note_on_c, 6, 70, 70
8, 5444, Note_on_c, 6, 70, 0
8, 5520, Note_on_c, 6, 67, 70
8, 5564, Note_on_c, 6, 67, 0
8, 5640, Note_on_c, 6, 69, 70
8, 5684, Note_on_c, 6, 69, 0
8, 5760, Note_on_c, 6, 67, 70
8, 5804, Note_on_c, 6, 67, 0
8, 5880, Note_on_c, 6, 69, 70
8, 5924, Note_on_c, 6, 69, 0
8, 6000, Note_on_c, 6, 67, 70
8, 6044, Note_on_c, 6, 67, 0
8, 6120, Note_on_c, 6, 69, 70
8, 6164, Note_on_c, 6, 69, 0
8, 6240, Note_on_c, 6, 62, 70
8, 7080, Note_on_c, 6, 60, 70
8, 7099, Note_on_c, 6, 62, 0
8, 7140, Note_on_c, 6, 58, 70
8, 7179, Note_on_c, 6, 60, 0
8, 7200, Note_on_c, 6, 57, 70
8, 7239, Note_on_c, 6, 58, 0
8, 7440, Note_on_c, 6, 57, 0
8, 7680, Note_on_c, 6, 65, 94
8, 9600, Note_on_c, 6, 65, 0
8, 9600, Note_on_c, 6, 64, 93
8, 11040, Note_on_c, 6, 64, 0
8, 11040, Note_on_c, 6, 62, 92
8, 11280, Note_on_c, 6, 64, 92
8, 11319, Note_on_c, 6, 62, 0
8, 11400, Note_on_c, 6, 65, 92
8, 11439, Note_on_c, 6, 64, 0
8, 11499, Note_on_c, 6, 65, 0
8, 11520, Note_on_c, 6, 67, 92
8, 11640, Note_on_c, 6, 69, 92
8, 11677, Note_on_c, 6, 67, 0
8, 11760, Note_on_c, 6, 70, 92
8, 11797, Note_on_c, 6, 69, 0
8, 11880, Note_on_c, 6, 67, 92
8, 11917, Note_on_c, 6, 70, 0
8, 11969, Note_on_c, 6, 67, 0
8, 12000, Note_on_c, 6, 65, 92
8, 12480, Note_on_c, 6, 64, 92
8, 12544, Note_on_c, 6, 65, 0
8, 12960, Note_on_c, 6, 63, 80
8, 13034, Note_on_c, 6, 64, 0
8, 13409, Note_on_c, 6, 63, 0
8, 13440, Note_on_c, 6, 62, 70
8, 13800, Note_on_c, 6, 60, 70
8, 13834, Note_on_c, 6, 62, 0
8, 13860, Note_on_c, 6, 58, 70
8, 13899, Note_on_c, 6, 60, 0
8, 13910, Note_on_c, 6, 58, 0
8, 13920, Note_on_c, 6, 57, 70
8, 14400, Note_on_c, 6, 60, 70
8, 14444, Note_on_c, 6, 57, 0
8, 14640, Note_on_c, 6, 58, 70
8, 14684, Note_on_c, 6, 60, 0
8, 14864, Note_on_c, 6, 58, 0
8, 14880, Note_on_c, 6, 57, 70
8, 15360, Note_on_c, 6, 57, 0
8, 16320, Note_on_c, 6, 65, 70
8, 17280, Note_on_c, 6, 64, 70
8, 17349, Note_on_c, 6, 65, 0
8, 17729, Note_on_c, 6, 64, 0
8, 18000, Note_on_c, 6, 57, 92
8, 18240, Note_on_c, 6, 58, 92
8, 18289, Note_on_c, 6, 57, 0
8, 18480, Note_on_c, 6, 60, 92
8, 18529, Note_on_c, 6, 58, 0
8, 18720, Note_on_c, 6, 62, 92
8, 18774, Note_on_c, 6, 60, 0
8, 18960, Note_on_c, 6, 64, 80
8, 19004, Note_on_c, 6, 62, 0
8, 19169, Note_on_c, 6, 64, 0
8, 19200, Note_on_c, 6, 65, 70
8, 19680, Note_on_c, 6, 65, 0
8, 24960, Note_on_c, 6, 65, 70
8, 26880, Note_on_c, 6, 65, 0
8, 26880, Note_on_c, 6, 64, 70
8, 27840, Note_on_c, 6, 64, 0
8, 27840, Note_on_c, 6, 62, 70
8, 28560, Note_on_c, 6, 62, 0
8, 28560, Note_on_c, 6, 64, 70
8, 28680, Note_on_c, 6, 65, 70
8, 28717, Note_on_c, 6, 64, 0
8, 28800, Note_on_c, 6, 67, 70
8, 28837, Note_on_c, 6, 65, 0
8, 28920, Note_on_c, 6, 69, 70
8, 28957, Note_on_c, 6, 67, 0
8, 29040, Note_on_c, 6, 70, 70
8, 29077, Note_on_c, 6, 69, 0
8, 29160, Note_on_c, 6, 67, 70
8, 29197, Note_on_c, 6, 70, 0
8, 29254, Note_on_c, 6, 67, 0
8, 29280, Note_on_c, 6, 65, 70
8, 29760, Note_on_c, 6, 64, 70
8, 29824, Note_on_c, 6, 65, 0
8, 30240, Note_on_c, 6, 64, 0
8, 30720, Note_on_c, 6, 64, 50
8, 30888, Note_on_c, 6, 64, 0
8, 30960, Note_on_c, 6, 64, 50
8, 31128, Note_on_c, 6, 64, 0
8, 31200, Note_on_c, 6, 64, 50
8, 31368, Note_on_c, 6, 64, 0
8, 31440, Note_on_c, 6, 64, 50
8, 31608, Note_on_c, 6, 64, 0
8, 31680, Note_on_c, 6, 64, 50
8, 31848, Note_on_c, 6, 64, 0
8, 31920, Note_on_c, 6, 64, 49
8, 32088, Note_on_c, 6, 64, 0
8, 32160, Note_on_c, 6, 62, 49
8, 32328, Note_on_c, 6, 62, 0
8, 32400, Note_on_c, 6, 62, 49
8, 32568, Note_on_c, 6, 62, 0
8, 32640, Note_on_c, 6, 62, 49
8, 32808, Note_on_c, 6, 62, 0
8, 32880, Note_on_c, 6, 62, 48
8, 33048, Note_on_c, 6, 62, 0
8, 33120, Note_on_c, 6, 62, 48
8, 33288, Note_on_c, 6, 62, 0
8, 33360, Note_on_c, 6, 62, 48
8, 33528, Note_on_c, 6, 62, 0
8, 33600, Note_on_c, 6, 59, 48
8, 33768, Note_on_c, 6, 59, 0
8, 33840, Note_on_c, 6, 59, 48
8, 34008, Note_on_c, 6, 59, 0
8, 34080, Note_on_c, 6, 59, 47
8, 34248, Note_on_c, 6, 59, 0
8, 34320, Note_on_c, 6, 59, 47
8, 34488, Note_on_c, 6, 59, 0
8, 34560, Note_on_c, 6, 59, 47
8, 34728, Note_on_c, 6, 59, 0
8, 34800, Note_on_c, 6, 59, 47
8, 34968, Note_on_c, 6, 59, 0
8, 35040, Note_on_c, 6, 60, 54
8, 36000, Note_on_c, 6, 60, 0
8, 36960, Note_on_c, 6, 72, 47
8, 37056, Note_on_c, 6, 72, 0
8, 37440, Note_on_c, 6, 76, 47
8, 37536, Note_on_c, 6, 76, 0
8, 38400, Note_on_c, 6, 67, 48
8, 38496, Note_on_c, 6, 67, 0
8, 38880, Note_on_c, 6, 74, 48
8, 38976, Note_on_c, 6, 74, 0
8, 39840, Note_on_c, 6, 71, 49
8, 39936, Note_on_c, 6, 71, 0
8, 40320, Note_on_c, 6, 74, 49
8, 40416, Note_on_c, 6, 74, 0
8, 41280, Note_on_c, 6, 72, 70
8, 41376, Note_on_c, 6, 72, 0
8, 41760, Note_on_c, 6, 76, 70
8, 41856, Note_on_c, 6, 76, 0
8, 42720, Note_on_c, 6, 66, 70
8, 42816, Note_on_c, 6, 66, 0
8, 43200, Note_on_c, 6, 72, 70
8, 43296, Note_on_c, 6, 72, 0
8, 44160, Note_on_c, 6, 71, 70
8, 44256, Note_on_c, 6, 71, 0
8, 44640, Note_on_c, 6, 72, 70
8, 44736, Note_on_c, 6, 72, 0
8, 45120, Note_on_c, 6, 71, 70
8, 45600, Note_on_c, 6, 71, 0
8, 46560, Note_on_c, 6, 76, 94
8, 47040, Note_on_c, 6, 72, 70
8, 47124, Note_on_c, 6, 76, 0
8, 47280, Note_on_c, 6, 72, 0
8, 47400, Note_on_c, 6, 72, 70
8, 47444, Note_on_c, 6, 72, 0
8, 47520, Note_on_c, 6, 74, 70
8, 47640, Note_on_c, 6, 76, 70
8, 47670, Note_on_c, 6, 74, 0
8, 47760, Note_on_c, 6, 77, 70
8, 47790, Note_on_c, 6, 76, 0
8, 47880, Note_on_c, 6, 79, 70
8, 47910, Note_on_c, 6, 77, 0
8, 47969, Note_on_c, 6, 79, 0
8, 48000, Note_on_c, 6, 81, 70
8, 48240, Note_on_c, 6, 79, 70
8, 48300, Note_on_c, 6, 81, 0
8, 48480, Note_on_c, 6, 77, 70
8, 48540, Note_on_c, 6, 79, 0
8, 48720, Note_on_c, 6, 76, 70
8, 48780, Note_on_c, 6, 77, 0
8, 48960, Note_on_c, 6, 74, 70
8, 49020, Note_on_c, 6, 76, 0
8, 49200, Note_on_c, 6, 72, 70
8, 49260, Note_on_c, 6, 74, 0
8, 49409, Note_on_c, 6, 72, 0
8, 49440, Note_on_c, 6, 71, 80
8, 50400, Note_on_c, 6, 73, 82
8, 50464, Note_on_c, 6, 71, 0
8, 50880, Note_on_c, 6, 73, 91
8, 50884, Note_on_c, 6, 73, 0
8, 51240, Note_on_c, 6, 74, 93
8, 51284, Note_on_c, 6, 73, 0
8, 51329, Note_on_c, 6, 74, 0
8, 51360, Note_on_c, 6, 74, 70
8, 52080, Note_on_c, 6, 74, 0
8, 52080, Note_on_c, 6, 62, 70
8, 52320, Note_on_c, 6, 62, 0
8, 52320, Note_on_c, 6, 60, 70
8, 53280, Note_on_c, 6, 62, 70
8, 53339, Note_on_c, 6, 60, 0
8, 53724, Note_on_c, 6, 62, 0
8, 53760, Note_on_c, 6, 64, 70
8, 55200, Note_on_c, 6, 64, 0
8, 55200, Note_on_c, 6, 62, 70
8, 55440, Note_on_c, 6, 62, 0
8, 55680, Note_on_c, 6, 60, 70
8, 55920, Note_on_c, 6, 60, 0
8, 56160, Note_on_c, 6, 59, 70
8, 56400, Note_on_c, 6, 59, 0
8, 56640, Note_on_c, 6, 64, 91
8, 57120, Note_on_c, 6, 60, 70
8, 57199, Note_on_c, 6, 64, 0
8, 57360, Note_on_c, 6, 60, 0
8, 57480, Note_on_c, 6, 60, 70
8, 57524, Note_on_c, 6, 60, 0
8, 57600, Note_on_c, 6, 62, 70
8, 57720, Note_on_c, 6, 64, 70
8, 57750, Note_on_c, 6, 62, 0
8, 57840, Note_on_c, 6, 65, 70
8, 57870, Note_on_c, 6, 64, 0
8, 57960, Note_on_c, 6, 67, 70
8, 57990, Note_on_c, 6, 65, 0
8, 58059, Note_on_c, 6, 67, 0
8, 58080, Note_on_c, 6, 69, 70
8, 58320, Note_on_c, 6, 67, 70
8, 58380, Note_on_c, 6, 69, 0
8, 58560, Note_on_c, 6, 65, 70
8, 58620, Note_on_c, 6, 67, 0
8, 58800, Note_on_c, 6, 64, 70
8, 58860, Note_on_c, 6, 65, 0
8, 59040, Note_on_c, 6, 62, 70
8, 59100, Note_on_c, 6, 64, 0
8, 59280, Note_on_c, 6, 60, 70
8, 59339, Note_on_c, 6, 62, 0
8, 59489, Note_on_c, 6, 60, 0
8, 59520, Note_on_c, 6, 60, 80
8, 61920, Note_on_c, 6, 62, 70
8, 61984, Note_on_c, 6, 60, 0
8, 62369, Note_on_c, 6, 62, 0
8, 62400, Note_on_c, 6, 60, 70
8, 62880, Note_on_c, 6, 60, 0
8, 65280, Note_on_c, 6, 60, 70
8, 66240, Note_on_c, 6, 62, 70
8, 66319, Note_on_c, 6, 60, 0
8, 66639, Note_on_c, 6, 62, 0
8, 66720, Note_on_c, 6, 64, 70
8, 66960, Note_on_c, 6, 64, 0
8, 67200, Note_on_c, 6, 67, 70
8, 67440, Note_on_c, 6, 67, 0
8, 67680, Note_on_c, 6, 71, 70
8, 67920, Note_on_c, 6, 71, 0
8, 69600, Note_on_c, 6, 65, 70
8, 69840, Note_on_c, 6, 65, 0
8, 70080, Note_on_c, 6, 65, 70
8, 70320, Note_on_c, 6, 65, 0
8, 70560, Note_on_c, 6, 65, 70
8, 71040, Note_on_c, 6, 64, 70
8, 71139, Note_on_c, 6, 65, 0
8, 71249, Note_on_c, 6, 64, 0
8, 71280, Note_on_c, 6, 65, 70
8, 71376, Note_on_c, 6, 65, 0
8, 71520, Note_on_c, 6, 67, 70
8, 71760, Note_on_c, 6, 67, 0
8, 71760, Note_on_c, 6, 67, 70
8, 72000, Note_on_c, 6, 67, 0
8, 72000, Note_on_c, 6, 55, 70
8, 72240, Note_on_c, 6, 55, 0
8, 72240, Note_on_c, 6, 55, 70
8, 72480, Note_on_c, 6, 55, 0
8, 72480, Note_on_c, 6, 60, 70
8, 72960, Note_on_c, 6, 60, 0
8, 76800, Note_on_c, 6, 60, 70
8, 78240, Note_on_c, 6, 62, 74
8, 78349, Note_on_c, 6, 60, 0
8, 79619, Note_on_c, 6, 62, 0
8, 79680, Note_on_c, 6, 64, 82
8, 81120, Note_on_c, 6, 65, 91
8, 81249, Note_on_c, 6, 64, 0
8, 82509, Note_on_c, 6, 65, 0
8, 82560, Note_on_c, 6, 58, 90
8, 84000, Note_on_c, 6, 57, 70
8, 84089, Note_on_c, 6, 58, 0
8, 84240, Note_on_c, 6, 57, 0
8, 89760, Note_on_c, 6, 65, 70
8, 91680, Note_on_c, 6, 65, 0
8, 91680, Note_on_c, 6, 64, 70
8, 92640, Note_on_c, 6, 64, 0
8, 92640, Note_on_c, 6, 62, 70
8, 93360, Note_on_c, 6, 62, 0
8, 93360, Note_on_c, 6, 64, 70
8, 93480, Note_on_c, 6, 65, 70
8, 93529, Note_on_c, 6, 64, 0
8, 93574, Note_on_c, 6, 65, 0
8, 93600, Note_on_c, 6, 67, 70
8, 93720, Note_on_c, 6, 69, 70
8, 93760, Note_on_c, 6, 67, 0
8, 93840, Note_on_c, 6, 70, 70
8, 93880, Note_on_c, 6, 69, 0
8, 93960, Note_on_c, 6, 67, 70
8, 94000, Note_on_c, 6, 70, 0
8, 94049, Note_on_c, 6, 67, 0
8, 94080, Note_on_c, 6, 65, 70
8, 94560, Note_on_c, 6, 64, 70
8, 94629, Note_on_c, 6, 65, 0
8, 95040, Note_on_c, 6, 64, 0
8, 95520, Note_on_c, 6, 64, 60
8, 95688, Note_on_c, 6, 64, 0
8, 95760, Note_on_c, 6, 64, 60
8, 95928, Note_on_c, 6, 64, 0
8, 96000, Note_on_c, 6, 64, 60
8, 96168, Note_on_c, 6, 64, 0
8, 96240, Note_on_c, 6, 64, 60
8, 96408, Note_on_c, 6, 64, 0
8, 96480, Note_on_c, 6, 64, 60
8, 96648, Note_on_c, 6, 64, 0
8, 96720, Note_on_c, 6, 64, 60
8, 96888, Note_on_c, 6, 64, 0
8, 96960, Note_on_c, 6, 62, 60
8, 97128, Note_on_c, 6, 62, 0
8, 97200, Note_on_c, 6, 62, 60
8, 97368, Note_on_c, 6, 62, 0
8, 97440, Note_on_c, 6, 62, 60
8, 97608, Note_on_c, 6, 62, 0
8, 97680, Note_on_c, 6, 62, 59
8, 97848, Note_on_c, 6, 62, 0
8, 97920, Note_on_c, 6, 62, 59
8, 98088, Note_on_c, 6, 62, 0
8, 98160, Note_on_c, 6, 62, 59
8, 98328, Note_on_c, 6, 62, 0
8, 98400, Note_on_c, 6, 59, 59
8, 98568, Note_on_c, 6, 59, 0
8, 98640, Note_on_c, 6, 59, 59
8, 98808, Note_on_c, 6, 59, 0
8, 98880, Note_on_c, 6, 59, 59
8, 99048, Note_on_c, 6, 59, 0
8, 99120, Note_on_c, 6, 59, 59
8, 99288, Note_on_c, 6, 59, 0
8, 99360, Note_on_c, 6, 59, 59
8, 99528, Note_on_c, 6, 59, 0
8, 99600, Note_on_c, 6, 59, 59
8, 99768, Note_on_c, 6, 59, 0
8, 99840, Note_on_c, 6, 60, 59
8, 100560, Note_on_c, 6, 60, 0
8, 100560, Note_on_c, 6, 64, 90
8, 100800, Note_on_c, 6, 64, 0
8, 100800, Note_on_c, 6, 65, 90
8, 101040, Note_on_c, 6, 65, 0
8, 101040, Note_on_c, 6, 67, 90
8, 101280, Note_on_c, 6, 67, 0
8, 101280, Note_on_c, 6, 69, 85
8, 101760, Note_on_c, 6, 69, 0
8, 101760, Note_on_c, 6, 69, 56
8, 101856, Note_on_c, 6, 69, 0
8, 102240, Note_on_c, 6, 72, 56
8, 102336, Note_on_c, 6, 72, 0
8, 103200, Note_on_c, 6, 72, 56
8, 103296, Note_on_c, 6, 72, 0
8, 103680, Note_on_c, 6, 79, 56
8, 103776, Note_on_c, 6, 79, 0
8, 104640, Note_on_c, 6, 76, 55
8, 104736, Note_on_c, 6, 76, 0
8, 105120, Note_on_c, 6, 79, 55
8, 105216, Note_on_c, 6, 79, 0
8, 106080, Note_on_c, 6, 77, 55
8, 106176, Note_on_c, 6, 77, 0
8, 106560, Note_on_c, 6, 81, 55
8, 106656, Note_on_c, 6, 81, 0
8, 107520, Note_on_c, 6, 65, 54
8, 107616, Note_on_c, 6, 65, 0
8, 108000, Note_on_c, 6, 71, 54
8, 108096, Note_on_c, 6, 71, 0
8, 108960, Note_on_c, 6, 72, 54
8, 109056, Note_on_c, 6, 72, 0
8, 109440, Note_on_c, 6, 77, 54
8, 109536, Note_on_c, 6, 77, 0
8, 109920, Note_on_c, 6, 76, 54
8, 110400, Note_on_c, 6, 76, 0
8, 111360, Note_on_c, 6, 69, 83
8, 111840, Note_on_c, 6, 69, 0
8, 111840, Note_on_c, 6, 65, 70
8, 112080, Note_on_c, 6, 65, 0
8, 112200, Note_on_c, 6, 65, 70
8, 112244, Note_on_c, 6, 65, 0
8, 112320, Note_on_c, 6, 67, 70
8, 112440, Note_on_c, 6, 69, 70
8, 112480, Note_on_c, 6, 67, 0
8, 112560, Note_on_c, 6, 70, 70
8, 112600, Note_on_c, 6, 69, 0
8, 112680, Note_on_c, 6, 72, 70
8, 112720, Note_on_c, 6, 70, 0
8, 112800, Note_on_c, 6, 72, 0
8, 112800, Note_on_c, 6, 74, 70
8, 113040, Note_on_c, 6, 72, 70
8, 113087, Note_on_c, 6, 74, 0
8, 113280, Note_on_c, 6, 70, 70
8, 113327, Note_on_c, 6, 72, 0
8, 113520, Note_on_c, 6, 69, 70
8, 113567, Note_on_c, 6, 70, 0
8, 113760, Note_on_c, 6, 67, 70
8, 113807, Note_on_c, 6, 69, 0
8, 114000, Note_on_c, 6, 65, 70
8, 114047, Note_on_c, 6, 67, 0
8, 114240, Note_on_c, 6, 65, 0
8, 114240, Note_on_c, 6, 64, 71
8, 114720, Note_on_c, 6, 64, 0
8, 114720, Note_on_c, 6, 76, 77
8, 115440, Note_on_c, 6, 78, 87
8, 115479, Note_on_c, 6, 76, 0
8, 115680, Note_on_c, 6, 78, 0
8, 115680, Note_on_c, 6, 78, 89
8, 116040, Note_on_c, 6, 79, 89
8, 116079, Note_on_c, 6, 78, 0
8, 116144, Note_on_c, 6, 79, 0
8, 116160, Note_on_c, 6, 79, 70
8, 116880, Note_on_c, 6, 67, 70
8, 116929, Note_on_c, 6, 79, 0
8, 117089, Note_on_c, 6, 67, 0
8, 117120, Note_on_c, 6, 65, 70
8, 118080, Note_on_c, 6, 67, 70
8, 118144, Note_on_c, 6, 65, 0
8, 118560, Note_on_c, 6, 67, 0
8, 118560, Note_on_c, 6, 69, 70
8, 120000, Note_on_c, 6, 67, 70
8, 120049, Note_on_c, 6, 69, 0
8, 120240, Note_on_c, 6, 67, 0
8, 120480, Note_on_c, 6, 65, 70
8, 120720, Note_on_c, 6, 65, 0
8, 120960, Note_on_c, 6, 64, 70
8, 121200, Note_on_c, 6, 64, 0
8, 121440, Note_on_c, 6, 69, 91
8, 121920, Note_on_c, 6, 65, 91
8, 121964, Note_on_c, 6, 69, 0
8, 122160, Note_on_c, 6, 65, 0
8, 122280, Note_on_c, 6, 65, 90
8, 122324, Note_on_c, 6, 65, 0
8, 122400, Note_on_c, 6, 67, 90
8, 122520, Note_on_c, 6, 69, 90
8, 122560, Note_on_c, 6, 67, 0
8, 122640, Note_on_c, 6, 70, 90
8, 122680, Note_on_c, 6, 69, 0
8, 122760, Note_on_c, 6, 72, 90
8, 122800, Note_on_c, 6, 70, 0
8, 122880, Note_on_c, 6, 72, 0
8, 122880, Note_on_c, 6, 74, 90
8, 123120, Note_on_c, 6, 72, 90
8, 123180, Note_on_c, 6, 74, 0
8, 123360, Note_on_c, 6, 70, 89
8, 123420, Note_on_c, 6, 72, 0
8, 123600, Note_on_c, 6, 69, 89
8, 123660, Note_on_c, 6, 70, 0
8, 123840, Note_on_c, 6, 67, 89
8, 123900, Note_on_c, 6, 69, 0
8, 124080, Note_on_c, 6, 65, 89
8, 124140, Note_on_c, 6, 67, 0
8, 124320, Note_on_c, 6, 65, 0
8, 124320, Note_on_c, 6, 65, 80
8, 124800, Note_on_c, 6, 64, 90
8, 124859, Note_on_c, 6, 65, 0
8, 125280, Note_on_c, 6, 63, 92
8, 125344, Note_on_c, 6, 64, 0
8, 125760, Note_on_c, 6, 63, 0
8, 125760, Note_on_c, 6, 63, 92
8, 126120, Note_on_c, 6, 62, 81
8, 126164, Note_on_c, 6, 63, 0
8, 126219, Note_on_c, 6, 62, 0
8, 126240, Note_on_c, 6, 62, 70
8, 126720, Note_on_c, 6, 64, 70
8, 126779, Note_on_c, 6, 62, 0
8, 127200, Note_on_c, 6, 64, 0
8, 127200, Note_on_c, 6, 65, 70
8, 127680, Note_on_c, 6, 65, 0
8, 130080, Note_on_c, 6, 65, 70
8, 131040, Note_on_c, 6, 67, 70
8, 131089, Note_on_c, 6, 65, 0
8, 131520, Note_on_c, 6, 67, 0
8, 131520, Note_on_c, 6, 69, 70
8, 131760, Note_on_c, 6, 69, 0
8, 132000, Note_on_c, 6, 72, 70
8, 132240, Note_on_c, 6, 72, 0
8, 132480, Note_on_c, 6, 76, 70
8, 132720, Note_on_c, 6, 76, 0
8, 132960, Note_on_c, 6, 77, 70
8, 133200, Note_on_c, 6, 79, 70
8, 133260, Note_on_c, 6, 77, 0
8, 133440, Note_on_c, 6, 77, 70
8, 133500, Note_on_c, 6, 79, 0
8, 133680, Note_on_c, 6, 76, 70
8, 133740, Note_on_c, 6, 77, 0
8, 133920, Note_on_c, 6, 74, 70
8, 133980, Note_on_c, 6, 76, 0
8, 134160, Note_on_c, 6, 72, 70
8, 134220, Note_on_c, 6, 74, 0
8, 134400, Note_on_c, 6, 72, 0
8, 134400, Note_on_c, 6, 70, 70
8, 134580, Note_on_c, 6, 70, 0
8, 134640, Note_on_c, 6, 70, 70
8, 134820, Note_on_c, 6, 70, 0
8, 134880, Note_on_c, 6, 70, 70
8, 135060, Note_on_c, 6, 70, 0
8, 135120, Note_on_c, 6, 70, 70
8, 135300, Note_on_c, 6, 70, 0
8, 135360, Note_on_c, 6, 70, 70
8, 135540, Note_on_c, 6, 70, 0
8, 135600, Note_on_c, 6, 70, 70
8, 135780, Note_on_c, 6, 70, 0
8, 135840, Note_on_c, 6, 69, 70
8, 136020, Note_on_c, 6, 69, 0
8, 136080, Note_on_c, 6, 70, 70
8, 136260, Note_on_c, 6, 70, 0
8, 136320, Note_on_c, 6, 72, 70
8, 136500, Note_on_c, 6, 72, 0
8, 136560, Note_on_c, 6, 72, 70
8, 136740, Note_on_c, 6, 72, 0
8, 136800, Note_on_c, 6, 60, 70
8, 136980, Note_on_c, 6, 60, 0
8, 137040, Note_on_c, 6, 60, 70
8, 137220, Note_on_c, 6, 60, 0
8, 137280, Note_on_c, 6, 65, 70
8, 137760, Note_on_c, 6, 65, 0
8, 141840, Note_on_c, 6, 65, 70
8, 142080, Note_on_c, 6, 65, 0
8, 142320, Note_on_c, 6, 65, 70
8, 142560, Note_on_c, 6, 65, 0
8, 142800, Note_on_c, 6, 65, 70
8, 143040, Note_on_c, 6, 65, 0
8, 143280, Note_on_c, 6, 67, 72
8, 143520, Note_on_c, 6, 67, 0
8, 143760, Note_on_c, 6, 64, 77
8, 144000, Note_on_c, 6, 64, 0
8, 144240, Note_on_c, 6, 58, 81
8, 144480, Note_on_c, 6, 58, 0
8, 144480, Note_on_c, 6, 57, 83
8, 144960, Note_on_c, 6, 57, 0
8, 145200, Note_on_c, 6, 65, 90
8, 145440, Note_on_c, 6, 64, 91
8, 145500, Note_on_c, 6, 65, 0
8, 145680, Note_on_c, 6, 62, 91
8, 145740, Note_on_c, 6, 64, 0
8, 145920, Note_on_c, 6, 60, 91
8, 145980, Note_on_c, 6, 62, 0
8, 146160, Note_on_c, 6, 60, 0
8, 146160, Note_on_c, 6, 69, 91
8, 146400, Note_on_c, 6, 67, 91
8, 146460, Note_on_c, 6, 69, 0
8, 146640, Note_on_c, 6, 65, 91
8, 146700, Note_on_c, 6, 67, 0
8, 146880, Note_on_c, 6, 64, 91
8, 146940, Note_on_c, 6, 65, 0
8, 147120, Note_on_c, 6, 62, 90
8, 147180, Note_on_c, 6, 64, 0
8, 147360, Note_on_c, 6, 60, 90
8, 147420, Note_on_c, 6, 62, 0
8, 147600, Note_on_c, 6, 60, 0
8, 150240, Note_on_c, 6, 60, 70
8, 150480, Note_on_c, 6, 60, 0
8, 150720, Note_on_c, 6, 60, 70
8, 150960, Note_on_c, 6, 60, 0
8, 151200, Note_on_c, 6, 60, 70
8, 151440, Note_on_c, 6, 60, 0
8, 151680, Note_on_c, 6, 58, 91
8, 152640, Note_on_c, 6, 57, 90
8, 152684, Note_on_c, 6, 58, 0
8, 152880, Note_on_c, 6, 57, 0
8, 153120, Note_on_c, 6, 65, 58
8, 153164, Note_on_c, 6, 65, 0
8, 153240, Note_on_c, 6, 67, 58
8, 153284, Note_on_c, 6, 67, 0
8, 153360, Note_on_c, 6, 69, 58
8, 153404, Note_on_c, 6, 69, 0
8, 153480, Note_on_c, 6, 70, 58
8, 153524, Note_on_c, 6, 70, 0
8, 153600, Note_on_c, 6, 69, 58
8, 153644, Note_on_c, 6, 69, 0
8, 153720, Note_on_c, 6, 70, 59
8, 153764, Note_on_c, 6, 70, 0
8, 153840, Note_on_c, 6, 67, 59
8, 153884, Note_on_c, 6, 67, 0
8, 153960, Note_on_c, 6, 69, 59
8, 154004, Note_on_c, 6, 69, 0
8, 154080, Note_on_c, 6, 67, 59
8, 154124, Note_on_c, 6, 67, 0
8, 154200, Note_on_c, 6, 69, 60
8, 154244, Note_on_c, 6, 69, 0
8, 154320, Note_on_c, 6, 67, 60
8, 154364, Note_on_c, 6, 67, 0
8, 154440, Note_on_c, 6, 69, 60
8, 154484, Note_on_c, 6, 69, 0
8, 154560, Note_on_c, 6, 62, 60
8, 155400, Note_on_c, 6, 60, 70
8, 155424, Note_on_c, 6, 62, 0
8, 155460, Note_on_c, 6, 58, 70
8, 155489, Note_on_c, 6, 60, 0
8, 155520, Note_on_c, 6, 57, 70
8, 155554, Note_on_c, 6, 58, 0
8, 155760, Note_on_c, 6, 57, 0
8, 156000, Note_on_c, 6, 65, 91
8, 157920, Note_on_c, 6, 65, 0
8, 157920, Note_on_c, 6, 64, 91
8, 159360, Note_on_c, 6, 64, 0
8, 159360, Note_on_c, 6, 62, 91
8, 159600, Note_on_c, 6, 64, 91
8, 159624, Note_on_c, 6, 62, 0
8, 159720, Note_on_c, 6, 65, 91
8, 159749, Note_on_c, 6, 64, 0
8, 159840, Note_on_c, 6, 65, 0
8, 159840, Note_on_c, 6, 67, 91
8, 159960, Note_on_c, 6, 69, 91
8, 159990, Note_on_c, 6, 67, 0
8, 160080, Note_on_c, 6, 70, 91
8, 160110, Note_on_c, 6, 69, 0
8, 160200, Note_on_c, 6, 67, 91
8, 160230, Note_on_c, 6, 70, 0
8, 160320, Note_on_c, 6, 67, 0
8, 160320, Note_on_c, 6, 65, 91
8, 160800, Note_on_c, 6, 64, 91
8, 160844, Note_on_c, 6, 65, 0
8, 161280, Note_on_c, 6, 63, 70
8, 161329, Note_on_c, 6, 64, 0
8, 161760, Note_on_c, 6, 63, 0
8, 161760, Note_on_c, 6, 62, 70
8, 162120, Note_on_c, 6, 60, 70
8, 162149, Note_on_c, 6, 62, 0
8, 162180, Note_on_c, 6, 58, 70
8, 162209, Note_on_c, 6, 60, 0
8, 162240, Note_on_c, 6, 58, 0
8, 162240, Note_on_c, 6, 57, 70
8, 162720, Note_on_c, 6, 60, 70
8, 162769, Note_on_c, 6, 57, 0
8, 162960, Note_on_c, 6, 58, 70
8, 162989, Note_on_c, 6, 60, 0
8, 163200, Note_on_c, 6, 58, 0
8, 163200, Note_on_c, 6, 57, 70
8, 163680, Note_on_c, 6, 57, 0
8, 164640, Note_on_c, 6, 65, 60
8, 165600, Note_on_c, 6, 64, 59
8, 165644, Note_on_c, 6, 65, 0
8, 166080, Note_on_c, 6, 64, 0
8, 166080, Note_on_c, 6, 65, 59
8, 166560, Note_on_c, 6, 65, 0
8, 168960, Note_on_c, 6, 57, 60
8, 169304, Note_on_c, 6, 57, 0
8, 169440, Note_on_c, 6, 57, 60
8, 169809, Note_on_c, 6, 57, 0
8, 169920, Note_on_c, 6, 57, 60
8, 170284, Note_on_c, 6, 57, 0
8, 170400, Note_on_c, 6, 57, 60
8, 171360, Note_on_c, 6, 57, 0
8, 171360, End_track
9, 0, Start_track
9, 0, Title_t, "Viola"
9, 0, Control_c, 7, 0, 0
9, 0, Control_c, 7, 7, 100
9, 0, Control_c, 7, 10, 45
9, 0, Control_c, 7, 91, 91
9, 0, Control_c, 7, 93, 88
9, 1, Control_c, 7, 32, 1
9, 2, Program_c, 7, 48
9, 1920, Note_on_c, 7, 57, 70
9, 2160, Note_on_c, 7, 57, 0
9, 2400, Note_on_c, 7, 57, 70
9, 2640, Note_on_c, 7, 57, 0
9, 2880, Note_on_c, 7, 57, 70
9, 3120, Note_on_c, 7, 57, 0
9, 3360, Note_on_c, 7, 52, 94
9, 3360, Note_on_c, 7, 60, 94
9, 4200, Note_on_c, 7, 55, 94
9, 4244, Note_on_c, 7, 52, 0
9, 4320, Note_on_c, 7, 53, 94
9, 4320, Note_on_c, 7, 48, 94
9, 4369, Note_on_c, 7, 55, 0
9, 4560, Note_on_c, 7, 60, 0
9, 4560, Note_on_c, 7, 53, 0
9, 4560, Note_on_c, 7, 48, 0
9, 6240, Note_on_c, 7, 65, 70
9, 6240, Note_on_c, 7, 53, 70
9, 7440, Note_on_c, 7, 53, 0
9, 7440, Note_on_c, 7, 65, 0
9, 7680, Note_on_c, 7, 60, 92
9, 7680, Note_on_c, 7, 53, 92
9, 8160, Note_on_c, 7, 60, 0
9, 8160, Note_on_c, 7, 62, 92
9, 8640, Note_on_c, 7, 53, 0
9, 8640, Note_on_c, 7, 55, 92
9, 9120, Note_on_c, 7, 55, 0
9, 9120, Note_on_c, 7, 62, 0
9, 9120, Note_on_c, 7, 60, 92
9, 9120, Note_on_c, 7, 48, 92
9, 9600, Note_on_c, 7, 55, 92
9, 9674, Note_on_c, 7, 48, 0
9, 10080, Note_on_c, 7, 53, 92
9, 10159, Note_on_c, 7, 55, 0
9, 10560, Note_on_c, 7, 53, 0
9, 10560, Note_on_c, 7, 60, 0
9, 10560, Note_on_c, 7, 58, 92
9, 11040, Note_on_c, 7, 55, 92
9, 11520, Note_on_c, 7, 62, 92
9, 11534, Note_on_c, 7, 55, 0
9, 12000, Note_on_c, 7, 62, 0
9, 12000, Note_on_c, 7, 58, 0
9, 12000, Note_on_c, 7, 48, 92
9, 12960, Note_on_c, 7, 53, 80
9, 13440, Note_on_c, 7, 53, 0
9, 13440, Note_on_c, 7, 48, 0
9, 13440, Note_on_c, 7, 53, 70
9, 13440, Note_on_c, 7, 50, 70
9, 13920, Note_on_c, 7, 48, 70
9, 13979, Note_on_c, 7, 50, 0
9, 14400, Note_on_c, 7, 52, 70
9, 14489, Note_on_c, 7, 53, 0
9, 14839, Note_on_c, 7, 52, 0
9, 14844, Note_on_c, 7, 48, 0
9, 14880, Note_on_c, 7, 53, 70
9, 14880, Note_on_c, 7, 48, 70
9, 15360, Note_on_c, 7, 48, 0
9, 15360, Note_on_c, 7, 53, 0
9, 16320, Note_on_c, 7, 50, 70
9, 16320, Note_on_c, 7, 58, 70
9, 16320, Note_on_c, 7, 53, 70
9, 16800, Note_on_c, 7, 58, 0
9, 16800, Note_on_c, 7, 50, 0
9, 16800, Note_on_c, 7, 48, 70
9, 16800, Note_on_c, 7, 60, 70
9, 16800, Note_on_c, 7, 57, 70
9, 16859, Note_on_c, 7, 53, 0
9, 17280, Note_on_c, 7, 58, 70
9, 17339, Note_on_c, 7, 57, 0
9, 17719, Note_on_c, 7, 58, 0
9, 17760, Note_on_c, 7, 57, 70
9, 18240, Note_on_c, 7, 57, 0
9, 18240, Note_on_c, 7, 60, 0
9, 18240, Note_on_c, 7, 48, 0
9, 18480, Note_on_c, 7, 52, 92
9, 18480, Note_on_c, 7, 48, 92
9, 18720, Note_on_c, 7, 53, 92
9, 18720, Note_on_c, 7, 50, 92
9, 18769, Note_on_c, 7, 48, 0
9, 18774, Note_on_c, 7, 52, 0
9, 18960, Note_on_c, 7, 55, 84
9, 18960, Note_on_c, 7, 52, 84
9, 19009, Note_on_c, 7, 50, 0
9, 19029, Note_on_c, 7, 53, 0
9, 19174, Note_on_c, 7, 52, 0
9, 19184, Note_on_c, 7, 55, 0
9, 19200, Note_on_c, 7, 57, 70
9, 19200, Note_on_c, 7, 53, 70
9, 19680, Note_on_c, 7, 53, 0
9, 19680, Note_on_c, 7, 57, 0
9, 24960, Note_on_c, 7, 53, 70
9, 24960, Note_on_c, 7, 60, 70
9, 25440, Note_on_c, 7, 60, 0
9, 25440, Note_on_c, 7, 53, 0
9, 25440, Note_on_c, 7, 50, 70
9, 25440, Note_on_c, 7, 62, 70
9, 25920, Note_on_c, 7, 50, 0
9, 25920, Note_on_c, 7, 58, 70
9, 26400, Note_on_c, 7, 58, 0
9, 26400, Note_on_c, 7, 62, 0
9, 26400, Note_on_c, 7, 60, 70
9, 26400, Note_on_c, 7, 60, 70
9, 26880, Note_on_c, 7, 60, 0
9, 26880, Note_on_c, 7, 48, 70
9, 27360, Note_on_c, 7, 48, 0
9, 27360, Note_on_c, 7, 53, 70
9, 27840, Note_on_c, 7, 53, 0
9, 27840, Note_on_c, 7, 60, 0
9, 27840, Note_on_c, 7, 58, 70
9, 27840, Note_on_c, 7, 58, 70
9, 28800, Note_on_c, 7, 58, 0
9, 28800, Note_on_c, 7, 58, 0
9, 28800, Note_on_c, 7, 55, 70
9, 28800, Note_on_c, 7, 62, 70
9, 29280, Note_on_c, 7, 62, 0
9, 29280, Note_on_c, 7, 55, 0
9, 29280, Note_on_c, 7, 48, 70
9, 29280, Note_on_c, 7, 60, 70
9, 30000, Note_on_c, 7, 60, 0
9, 30240, Note_on_c, 7, 48, 0
9, 30720, Note_on_c, 7, 60, 70
9, 30888, Note_on_c, 7, 60, 0
9, 30960, Note_on_c, 7, 60, 48
9, 31128, Note_on_c, 7, 60, 0
9, 31200, Note_on_c, 7, 60, 48
9, 31368, Note_on_c, 7, 60, 0
9, 31440, Note_on_c, 7, 60, 48
9, 31608, Note_on_c, 7, 60, 0
9, 31680, Note_on_c, 7, 60, 48
9, 31848, Note_on_c, 7, 60, 0
9, 31920, Note_on_c, 7, 60, 48
9, 32088, Note_on_c, 7, 60, 0
9, 32160, Note_on_c, 7, 59, 48
9, 32160, Note_on_c, 7, 65, 48
9, 32328, Note_on_c, 7, 65, 0
9, 32328, Note_on_c, 7, 59, 0
9, 32400, Note_on_c, 7, 59, 48
9, 32400, Note_on_c, 7, 65, 48
9, 32568, Note_on_c, 7, 65, 0
9, 32568, Note_on_c, 7, 59, 0
9, 32640, Note_on_c, 7, 59, 48
9, 32640, Note_on_c, 7, 65, 48
9, 32808, Note_on_c, 7, 65, 0
9, 32808, Note_on_c, 7, 59, 0
9, 32880, Note_on_c, 7, 59, 48
9, 32880, Note_on_c, 7, 65, 48
9, 33048, Note_on_c, 7, 65, 0
9, 33048, Note_on_c, 7, 59, 0
9, 33120, Note_on_c, 7, 59, 48
9, 33120, Note_on_c, 7, 65, 48
9, 33288, Note_on_c, 7, 65, 0
9, 33288, Note_on_c, 7, 59, 0
9, 33360, Note_on_c, 7, 59, 48
9, 33360, Note_on_c, 7, 65, 48
9, 33528, Note_on_c, 7, 65, 0
9, 33528, Note_on_c, 7, 59, 0
9, 33600, Note_on_c, 7, 55, 48
9, 33600, Note_on_c, 7, 65, 48
9, 33768, Note_on_c, 7, 65, 0
9, 33768, Note_on_c, 7, 55, 0
9, 33840, Note_on_c, 7, 55, 48
9, 33840, Note_on_c, 7, 65, 48
9, 34008, Note_on_c, 7, 65, 0
9, 34008, Note_on_c, 7, 55, 0
9, 34080, Note_on_c, 7, 55, 48
9, 34080, Note_on_c, 7, 65, 48
9, 34248, Note_on_c, 7, 65, 0
9, 34248, Note_on_c, 7, 55, 0
9, 34320, Note_on_c, 7, 55, 48
9, 34320, Note_on_c, 7, 65, 48
9, 34488, Note_on_c, 7, 65, 0
9, 34488, Note_on_c, 7, 55, 0
9, 34560, Note_on_c, 7, 55, 48
9, 34560, Note_on_c, 7, 65, 48
9, 34728, Note_on_c, 7, 65, 0
9, 34728, Note_on_c, 7, 55, 0
9, 34800, Note_on_c, 7, 55, 48
9, 34800, Note_on_c, 7, 65, 48
9, 34968, Note_on_c, 7, 65, 0
9, 34968, Note_on_c, 7, 55, 0
9, 35040, Note_on_c, 7, 48, 50
9, 35040, Note_on_c, 7, 64, 50
9, 35760, Note_on_c, 7, 64, 0
9, 36000, Note_on_c, 7, 48, 0
9, 36480, Note_on_c, 7, 60, 63
9, 36960, Note_on_c, 7, 60, 0
9, 37920, Note_on_c, 7, 59, 54
9, 38400, Note_on_c, 7, 59, 0
9, 39360, Note_on_c, 7, 55, 53
9, 39840, Note_on_c, 7, 55, 0
9, 40800, Note_on_c, 7, 60, 56
9, 41280, Note_on_c, 7, 60, 0
9, 42240, Note_on_c, 7, 57, 70
9, 42720, Note_on_c, 7, 57, 0
9, 43680, Note_on_c, 7, 55, 70
9, 44160, Note_on_c, 7, 55, 0
9, 44640, Note_on_c, 7, 57, 70
9, 45120, Note_on_c, 7, 57, 0
9, 45120, Note_on_c, 7, 55, 70
9, 45600, Note_on_c, 7, 55, 0
9, 45840, Note_on_c, 7, 59, 70
9, 45840, Note_on_c, 7, 62, 70
9, 46080, Note_on_c, 7, 60, 70
9, 46080, Note_on_c, 7, 64, 70
9, 46140, Note_on_c, 7, 62, 0
9, 46140, Note_on_c, 7, 59, 0
9, 46320, Note_on_c, 7, 62, 70
9, 46320, Note_on_c, 7, 65, 70
9, 46380, Note_on_c, 7, 60, 0
9, 46380, Note_on_c, 7, 64, 0
9, 46519, Note_on_c, 7, 62, 0
9, 46539, Note_on_c, 7, 65, 0
9, 46560, Note_on_c, 7, 64, 90
9, 46560, Note_on_c, 7, 67, 90
9, 46989, Note_on_c, 7, 64, 0
9, 47040, Note_on_c, 7, 60, 70
9, 47040, Note_on_c, 7, 64, 70
9, 47084, Note_on_c, 7, 67, 0
9, 47280, Note_on_c, 7, 64, 0
9, 47280, Note_on_c, 7, 60, 0
9, 47400, Note_on_c, 7, 60, 70
9, 47400, Note_on_c, 7, 64, 70
9, 47444, Note_on_c, 7, 64, 0
9, 47444, Note_on_c, 7, 60, 0
9, 47520, Note_on_c, 7, 62, 70
9, 47520, Note_on_c, 7, 65, 70
9, 47640, Note_on_c, 7, 64, 70
9, 47640, Note_on_c, 7, 67, 70
9, 47670, Note_on_c, 7, 65, 0
9, 47670, Note_on_c, 7, 62, 0
9, 47760, Note_on_c, 7, 65, 70
9, 47760, Note_on_c, 7, 69, 70
9, 47790, Note_on_c, 7, 64, 0
9, 47790, Note_on_c, 7, 67, 0
9, 47880, Note_on_c, 7, 67, 70
9, 47880, Note_on_c, 7, 71, 70
9, 47910, Note_on_c, 7, 65, 0
9, 47910, Note_on_c, 7, 69, 0
9, 47979, Note_on_c, 7, 67, 0
9, 47984, Note_on_c, 7, 71, 0
9, 48000, Note_on_c, 7, 69, 70
9, 48000, Note_on_c, 7, 72, 70
9, 48240, Note_on_c, 7, 67, 70
9, 48240, Note_on_c, 7, 71, 70
9, 48300, Note_on_c, 7, 72, 0
9, 48300, Note_on_c, 7, 69, 0
9, 48480, Note_on_c, 7, 65, 70
9, 48480, Note_on_c, 7, 69, 70
9, 48540, Note_on_c, 7, 67, 0
9, 48540, Note_on_c, 7, 71, 0
9, 48720, Note_on_c, 7, 64, 70
9, 48720, Note_on_c, 7, 67, 70
9, 48780, Note_on_c, 7, 65, 0
9, 48780, Note_on_c, 7, 69, 0
9, 48960, Note_on_c, 7, 62, 70
9, 48960, Note_on_c, 7, 65, 70
9, 49020, Note_on_c, 7, 64, 0
9, 49020, Note_on_c, 7, 67, 0
9, 49200, Note_on_c, 7, 60, 70
9, 49200, Note_on_c, 7, 64, 70
9, 49260, Note_on_c, 7, 62, 0
9, 49260, Note_on_c, 7, 65, 0
9, 49399, Note_on_c, 7, 60, 0
9, 49404, Note_on_c, 7, 64, 0
9, 49440, Note_on_c, 7, 59, 80
9, 49440, Note_on_c, 7, 62, 80
9, 50400, Note_on_c, 7, 61, 78
9, 50400, Note_on_c, 7, 64, 78
9, 50469, Note_on_c, 7, 59, 0
9, 50479, Note_on_c, 7, 62, 0
9, 50874, Note_on_c, 7, 61, 0
9, 50874, Note_on_c, 7, 64, 0
9, 50880, Note_on_c, 7, 61, 89
9, 50880, Note_on_c, 7, 64, 89
9, 51240, Note_on_c, 7, 62, 89
9, 51240, Note_on_c, 7, 65, 89
9, 51284, Note_on_c, 7, 64, 0
9, 51284, Note_on_c, 7, 61, 0
9, 51329, Note_on_c, 7, 62, 0
9, 51329, Note_on_c, 7, 65, 0
9, 51360, Note_on_c, 7, 62, 70
9, 51360, Note_on_c, 7, 65, 70
9, 51840, Note_on_c, 7, 65, 0
9, 51840, Note_on_c, 7, 62, 0
9, 52320, Note_on_c, 7, 55, 70
9, 52320, Note_on_c, 7, 52, 70
9, 53280, Note_on_c, 7, 53, 70
9, 53280, Note_on_c, 7, 50, 70
9, 53359, Note_on_c, 7, 52, 0
9, 53364, Note_on_c, 7, 55, 0
9, 53729, Note_on_c, 7, 50, 0
9, 53739, Note_on_c, 7, 53, 0
9, 53760, Note_on_c, 7, 52, 70
9, 53760, Note_on_c, 7, 48, 70
9, 55200, Note_on_c, 7, 48, 0
9, 55200, Note_on_c, 7, 52, 0
9, 55200, Note_on_c, 7, 57, 70
9, 55200, Note_on_c, 7, 53, 70
9, 55440, Note_on_c, 7, 53, 0
9, 55440, Note_on_c, 7, 57, 0
9, 55680, Note_on_c, 7, 55, 70
9, 55920, Note_on_c, 7, 55, 0
9, 56160, Note_on_c, 7, 55, 70
9, 56400, Note_on_c, 7, 55, 0
9, 56640, Note_on_c, 7, 55, 91
9, 56640, Note_on_c, 7, 52, 91
9, 57109, Note_on_c, 7, 52, 0
9, 57120, Note_on_c, 7, 52, 70
9, 57120, Note_on_c, 7, 48, 70
9, 57169, Note_on_c, 7, 55, 0
9, 57360, Note_on_c, 7, 48, 0
9, 57360, Note_on_c, 7, 52, 0
9, 57480, Note_on_c, 7, 52, 70
9, 57480, Note_on_c, 7, 48, 70
9, 57524, Note_on_c, 7, 48, 0
9, 57524, Note_on_c, 7, 52, 0
9, 57600, Note_on_c, 7, 53, 70
9, 57600, Note_on_c, 7, 50, 70
9, 57720, Note_on_c, 7, 55, 70
9, 57720, Note_on_c, 7, 52, 70
9, 57750, Note_on_c, 7, 50, 0
9, 57750, Note_on_c, 7, 53, 0
9, 57840, Note_on_c, 7, 57, 70
9, 57840, Note_on_c, 7, 53, 70
9, 57870, Note_on_c, 7, 55, 0
9, 57870, Note_on_c, 7, 52, 0
9, 57960, Note_on_c, 7, 59, 70
9, 57960, Note_on_c, 7, 55, 70
9, 57990, Note_on_c, 7, 57, 0
9, 57990, Note_on_c, 7, 53, 0
9, 58049, Note_on_c, 7, 55, 0
9, 58059, Note_on_c, 7, 59, 0
9, 58080, Note_on_c, 7, 60, 70
9, 58080, Note_on_c, 7, 57, 70
9, 58320, Note_on_c, 7, 59, 70
9, 58320, Note_on_c, 7, 55, 70
9, 58380, Note_on_c, 7, 57, 0
9, 58380, Note_on_c, 7, 60, 0
9, 58560, Note_on_c, 7, 57, 70
9, 58560, Note_on_c, 7, 53, 70
9, 58620, Note_on_c, 7, 59, 0
9, 58620, Note_on_c, 7, 55, 0
9, 58800, Note_on_c, 7, 55, 70
9, 58800, Note_on_c, 7, 52, 70
9, 58860, Note_on_c, 7, 57, 0
9, 58860, Note_on_c, 7, 53, 0
9, 59040, Note_on_c, 7, 53, 70
9, 59040, Note_on_c, 7, 50, 70
9, 59100, Note_on_c, 7, 55, 0
9, 59100, Note_on_c, 7, 52, 0
9, 59280, Note_on_c, 7, 52, 70
9, 59280, Note_on_c, 7, 48, 70
9, 59340, Note_on_c, 7, 53, 0
9, 59340, Note_on_c, 7, 50, 0
9, 59479, Note_on_c, 7, 52, 0
9, 59484, Note_on_c, 7, 48, 0
9, 59520, Note_on_c, 7, 50, 80
9, 59520, Note_on_c, 7, 48, 80
9, 60480, Note_on_c, 7, 52, 90
9, 60549, Note_on_c, 7, 50, 0
9, 61320, Note_on_c, 7, 53, 70
9, 61379, Note_on_c, 7, 52, 0
9, 61409, Note_on_c, 7, 53, 0
9, 61440, Note_on_c, 7, 57, 70
9, 61920, Note_on_c, 7, 48, 0
9, 61920, Note_on_c, 7, 59, 70
9, 61920, Note_on_c, 7, 55, 70
9, 61984, Note_on_c, 7, 57, 0
9, 62384, Note_on_c, 7, 59, 0
9, 62400, Note_on_c, 7, 55, 0
9, 62400, Note_on_c, 7, 60, 70
9, 62400, Note_on_c, 7, 55, 70
9, 62880, Note_on_c, 7, 55, 0
9, 62880, Note_on_c, 7, 60, 0
9, 65280, Note_on_c, 7, 55, 70
9, 65280, Note_on_c, 7, 52, 70
9, 66240, Note_on_c, 7, 53, 70
9, 66240, Note_on_c, 7, 50, 70
9, 66339, Note_on_c, 7, 55, 0
9, 66349, Note_on_c, 7, 52, 0
9, 66679, Note_on_c, 7, 53, 0
9, 66679, Note_on_c, 7, 50, 0
9, 66720, Note_on_c, 7, 52, 70
9, 66720, Note_on_c, 7, 48, 70
9, 66960, Note_on_c, 7, 48, 0
9, 66960, Note_on_c, 7, 52, 0
9, 67200, Note_on_c, 7, 64, 70
9, 67200, Note_on_c, 7, 60, 70
9, 67440, Note_on_c, 7, 60, 0
9, 67440, Note_on_c, 7, 64, 0
9, 67680, Note_on_c, 7, 67, 70
9, 67680, Note_on_c, 7, 62, 70
9, 67920, Note_on_c, 7, 62, 0
9, 67920, Note_on_c, 7, 67, 0
9, 68160, Note_on_c, 7, 67, 70
9, 68160, Note_on_c, 7, 60, 70
9, 68640, Note_on_c, 7, 60, 0
9, 68640, Note_on_c, 7, 67, 0
9, 76800, Note_on_c, 7, 55, 70
9, 76800, Note_on_c, 7, 52, 70
9, 78240, Note_on_c, 7, 53, 70
9, 78369, Note_on_c, 7, 52, 0
9, 79659, Note_on_c, 7, 55, 0
9, 79669, Note_on_c, 7, 53, 0
9, 79680, Note_on_c, 7, 55, 78
9, 79680, Note_on_c, 7, 60, 78
9, 81120, Note_on_c, 7, 57, 78
9, 81259, Note_on_c, 7, 55, 0
9, 82549, Note_on_c, 7, 60, 0
9, 82559, Note_on_c, 7, 57, 0
9, 82560, Note_on_c, 7, 55, 92
9, 82560, Note_on_c, 7, 48, 92
9, 84000, Note_on_c, 7, 53, 70
9, 84079, Note_on_c, 7, 55, 0
9, 84240, Note_on_c, 7, 53, 0
9, 84240, Note_on_c, 7, 48, 0
9, 89760, Note_on_c, 7, 60, 70
9, 89760, Note_on_c, 7, 53, 70
9, 90240, Note_on_c, 7, 53, 0
9, 90240, Note_on_c, 7, 60, 0
9, 90240, Note_on_c, 7, 62, 70
9, 90240, Note_on_c, 7, 50, 70
9, 90720, Note_on_c, 7, 50, 0
9, 90720, Note_on_c, 7, 58, 70
9, 91200, Note_on_c, 7, 58, 0
9, 91200, Note_on_c, 7, 62, 0
9, 91200, Note_on_c, 7, 60, 70
9, 91200, Note_on_c, 7, 60, 70
9, 91680, Note_on_c, 7, 60, 0
9, 91680, Note_on_c, 7, 48, 70
9, 92160, Note_on_c, 7, 48, 0
9, 92160, Note_on_c, 7, 57, 70
9, 92640, Note_on_c, 7, 57, 0
9, 92640, Note_on_c, 7, 60, 0
9, 92640, Note_on_c, 7, 58, 70
9, 93600, Note_on_c, 7, 58, 0
9, 93600, Note_on_c, 7, 62, 70
9, 93600, Note_on_c, 7, 55, 70
9, 94080, Note_on_c, 7, 55, 0
9, 94080, Note_on_c, 7, 62, 0
9, 94080, Note_on_c, 7, 60, 70
9, 94080, Note_on_c, 7, 48, 70
9, 94800, Note_on_c, 7, 60, 0
9, 95040, Note_on_c, 7, 48, 0
9, 95520, Note_on_c, 7, 60, 57
9, 95688, Note_on_c, 7, 60, 0
9, 95760, Note_on_c, 7, 60, 57
9, 95928, Note_on_c, 7, 60, 0
9, 96000, Note_on_c, 7, 60, 57
9, 96168, Note_on_c, 7, 60, 0
9, 96240, Note_on_c, 7, 60, 57
9, 96408, Note_on_c, 7, 60, 0
9, 96480, Note_on_c, 7, 60, 57
9, 96648, Note_on_c, 7, 60, 0
9, 96720, Note_on_c, 7, 60, 57
9, 96888, Note_on_c, 7, 60, 0
9, 96960, Note_on_c, 7, 65, 57
9, 96960, Note_on_c, 7, 59, 57
9, 97128, Note_on_c, 7, 59, 0
9, 97128, Note_on_c, 7, 65, 0
9, 97200, Note_on_c, 7, 65, 57
9, 97200, Note_on_c, 7, 59, 57
9, 97368, Note_on_c, 7, 59, 0
9, 97368, Note_on_c, 7, 65, 0
9, 97440, Note_on_c, 7, 65, 57
9, 97440, Note_on_c, 7, 59, 57
9, 97608, Note_on_c, 7, 59, 0
9, 97608, Note_on_c, 7, 65, 0
9, 97680, Note_on_c, 7, 65, 57
9, 97680, Note_on_c, 7, 59, 57
9, 97848, Note_on_c, 7, 59, 0
9, 97848, Note_on_c, 7, 65, 0
9, 97920, Note_on_c, 7, 65, 57
9, 97920, Note_on_c, 7, 59, 57
9, 98088, Note_on_c, 7, 59, 0
9, 98088, Note_on_c, 7, 65, 0
9, 98160, Note_on_c, 7, 65, 57
9, 98160, Note_on_c, 7, 59, 57
9, 98328, Note_on_c, 7, 59, 0
9, 98328, Note_on_c, 7, 65, 0
9, 98400, Note_on_c, 7, 65, 57
9, 98400, Note_on_c, 7, 55, 57
9, 98568, Note_on_c, 7, 55, 0
9, 98568, Note_on_c, 7, 65, 0
9, 98640, Note_on_c, 7, 65, 57
9, 98640, Note_on_c, 7, 55, 57
9, 98808, Note_on_c, 7, 55, 0
9, 98808, Note_on_c, 7, 65, 0
9, 98880, Note_on_c, 7, 65, 57
9, 98880, Note_on_c, 7, 55, 57
9, 99048, Note_on_c, 7, 55, 0
9, 99048, Note_on_c, 7, 65, 0
9, 99120, Note_on_c, 7, 65, 57
9, 99120, Note_on_c, 7, 55, 57
9, 99288, Note_on_c, 7, 55, 0
9, 99288, Note_on_c, 7, 65, 0
9, 99360, Note_on_c, 7, 65, 57
9, 99360, Note_on_c, 7, 55, 57
9, 99528, Note_on_c, 7, 55, 0
9, 99528, Note_on_c, 7, 65, 0
9, 99600, Note_on_c, 7, 65, 57
9, 99600, Note_on_c, 7, 55, 57
9, 99768, Note_on_c, 7, 55, 0
9, 99768, Note_on_c, 7, 65, 0
9, 99840, Note_on_c, 7, 64, 57
9, 99840, Note_on_c, 7, 48, 57
9, 100560, Note_on_c, 7, 64, 0
9, 100560, Note_on_c, 7, 60, 89
9, 100800, Note_on_c, 7, 48, 0
9, 100800, Note_on_c, 7, 60, 89
9, 101040, Note_on_c, 7, 60, 0
9, 101040, Note_on_c, 7, 58, 89
9, 101280, Note_on_c, 7, 58, 0
9, 101280, Note_on_c, 7, 60, 0
9, 101280, Note_on_c, 7, 57, 89
9, 101280, Note_on_c, 7, 60, 89
9, 101760, Note_on_c, 7, 60, 0
9, 101760, Note_on_c, 7, 57, 0
9, 109440, Note_on_c, 7, 62, 78
9, 109920, Note_on_c, 7, 62, 0
9, 109920, Note_on_c, 7, 60, 78
9, 110400, Note_on_c, 7, 60, 0
9, 110640, Note_on_c, 7, 55, 78
9, 110640, Note_on_c, 7, 52, 78
9, 110880, Note_on_c, 7, 53, 76
9, 110919, Note_on_c, 7, 52, 0
9, 110929, Note_on_c, 7, 55, 0
9, 111120, Note_on_c, 7, 58, 74
9, 111159, Note_on_c, 7, 53, 0
9, 111360, Note_on_c, 7, 58, 0
9, 111360, Note_on_c, 7, 60, 79
9, 111360, Note_on_c, 7, 57, 79
9, 111840, Note_on_c, 7, 57, 0
9, 111840, Note_on_c, 7, 57, 70
9, 111840, Note_on_c, 7, 53, 70
9, 111889, Note_on_c, 7, 60, 0
9, 112080, Note_on_c, 7, 53, 0
9, 112080, Note_on_c, 7, 57, 0
9, 112200, Note_on_c, 7, 57, 70
9, 112200, Note_on_c, 7, 53, 70
9, 112244, Note_on_c, 7, 53, 0
9, 112244, Note_on_c, 7, 57, 0
9, 112320, Note_on_c, 7, 58, 70
9, 112320, Note_on_c, 7, 55, 70
9, 112440, Note_on_c, 7, 60, 70
9, 112440, Note_on_c, 7, 57, 70
9, 112480, Note_on_c, 7, 55, 0
9, 112480, Note_on_c, 7, 58, 0
9, 112560, Note_on_c, 7, 62, 70
9, 112560, Note_on_c, 7, 58, 70
9, 112600, Note_on_c, 7, 60, 0
9, 112600, Note_on_c, 7, 57, 0
9, 112680, Note_on_c, 7, 64, 70
9, 112680, Note_on_c, 7, 60, 70
9, 112720, Note_on_c, 7, 62, 0
9, 112720, Note_on_c, 7, 58, 0
9, 112800, Note_on_c, 7, 64, 0
9, 112800, Note_on_c, 7, 60, 0
9, 112800, Note_on_c, 7, 65, 70
9, 112800, Note_on_c, 7, 62, 70
9, 113040, Note_on_c, 7, 64, 70
9, 113040, Note_on_c, 7, 60, 70
9, 113087, Note_on_c, 7, 62, 0
9, 113087, Note_on_c, 7, 65, 0
9, 113280, Note_on_c, 7, 62, 70
9, 113280, Note_on_c, 7, 58, 70
9, 113327, Note_on_c, 7, 64, 0
9, 113327, Note_on_c, 7, 60, 0
9, 113520, Note_on_c, 7, 60, 70
9, 113520, Note_on_c, 7, 57, 70
9, 113567, Note_on_c, 7, 62, 0
9, 113567, Note_on_c, 7, 58, 0
9, 113760, Note_on_c, 7, 58, 70
9, 113760, Note_on_c, 7, 55, 70
9, 113807, Note_on_c, 7, 60, 0
9, 113807, Note_on_c, 7, 57, 0
9, 114000, Note_on_c, 7, 57, 70
9, 114000, Note_on_c, 7, 53, 70
9, 114047, Note_on_c, 7, 58, 0
9, 114047, Note_on_c, 7, 55, 0
9, 114240, Note_on_c, 7, 57, 0
9, 114240, Note_on_c, 7, 53, 0
9, 114240, Note_on_c, 7, 55, 76
9, 114240, Note_on_c, 7, 58, 76
9, 114720, Note_on_c, 7, 58, 0
9, 114720, Note_on_c, 7, 55, 0
9, 114720, Note_on_c, 7, 67, 82
9, 114720, Note_on_c, 7, 64, 82
9, 115440, Note_on_c, 7, 69, 91
9, 115440, Note_on_c, 7, 66, 91
9, 115489, Note_on_c, 7, 64, 0
9, 115499, Note_on_c, 7, 67, 0
9, 115680, Note_on_c, 7, 69, 0
9, 115680, Note_on_c, 7, 66, 0
9, 115680, Note_on_c, 7, 69, 91
9, 115680, Note_on_c, 7, 66, 91
9, 116040, Note_on_c, 7, 70, 91
9, 116040, Note_on_c, 7, 67, 91
9, 116069, Note_on_c, 7, 69, 0
9, 116079, Note_on_c, 7, 66, 0
9, 116139, Note_on_c, 7, 70, 0
9, 116139, Note_on_c, 7, 67, 0
9, 116160, Note_on_c, 7, 70, 70
9, 116160, Note_on_c, 7, 67, 70
9, 116640, Note_on_c, 7, 67, 0
9, 116640, Note_on_c, 7, 70, 0
9, 117120, Note_on_c, 7, 60, 70
9, 117120, Note_on_c, 7, 57, 70
9, 118080, Note_on_c, 7, 58, 70
9, 118080, Note_on_c, 7, 55, 70
9, 118129, Note_on_c, 7, 57, 0
9, 118129, Note_on_c, 7, 60, 0
9, 118560, Note_on_c, 7, 58, 0
9, 118560, Note_on_c, 7, 55, 0
9, 118560, Note_on_c, 7, 57, 70
9, 118560, Note_on_c, 7, 53, 70
9, 120000, Note_on_c, 7, 62, 70
9, 120000, Note_on_c, 7, 58, 70
9, 120044, Note_on_c, 7, 57, 0
9, 120049, Note_on_c, 7, 53, 0
9, 120240, Note_on_c, 7, 62, 0
9, 120240, Note_on_c, 7, 58, 0
9, 120480, Note_on_c, 7, 60, 70
9, 120720, Note_on_c, 7, 60, 0
9, 120960, Note_on_c, 7, 60, 70
9, 120960, Note_on_c, 7, 58, 70
9, 121200, Note_on_c, 7, 58, 0
9, 121200, Note_on_c, 7, 60, 0
9, 121440, Note_on_c, 7, 60, 93
9, 121440, Note_on_c, 7, 57, 93
9, 121920, Note_on_c, 7, 57, 0
9, 121920, Note_on_c, 7, 57, 70
9, 121920, Note_on_c, 7, 53, 70
9, 121964, Note_on_c, 7, 60, 0
9, 122160, Note_on_c, 7, 53, 0
9, 122160, Note_on_c, 7, 57, 0
9, 122280, Note_on_c, 7, 57, 70
9, 122280, Note_on_c, 7, 53, 70
9, 122292, Note_on_c, 7, 53, 0
9, 122324, Note_on_c, 7, 57, 0
9, 122400, Note_on_c, 7, 58, 70
9, 122400, Note_on_c, 7, 55, 70
9, 122520, Note_on_c, 7, 60, 70
9, 122520, Note_on_c, 7, 57, 70
9, 122560, Note_on_c, 7, 55, 0
9, 122560, Note_on_c, 7, 58, 0
9, 122640, Note_on_c, 7, 62, 70
9, 122640, Note_on_c, 7, 58, 70
9, 122680, Note_on_c, 7, 60, 0
9, 122680, Note_on_c, 7, 57, 0
9, 122760, Note_on_c, 7, 64, 70
9, 122760, Note_on_c, 7, 60, 70
9, 122800, Note_on_c, 7, 62, 0
9, 122800, Note_on_c, 7, 58, 0
9, 122880, Note_on_c, 7, 64, 0
9, 122880, Note_on_c, 7, 60, 0
9, 122880, Note_on_c, 7, 65, 70
9, 122880, Note_on_c, 7, 62, 70
9, 123120, Note_on_c, 7, 64, 70
9, 123120, Note_on_c, 7, 60, 70
9, 123180, Note_on_c, 7, 62, 0
9, 123180, Note_on_c, 7, 65, 0
9, 123360, Note_on_c, 7, 62, 70
9, 123360, Note_on_c, 7, 58, 70
9, 123420, Note_on_c, 7, 64, 0
9, 123420, Note_on_c, 7, 60, 0
9, 123600, Note_on_c, 7, 60, 70
9, 123600, Note_on_c, 7, 57, 70
9, 123660, Note_on_c, 7, 62, 0
9, 123660, Note_on_c, 7, 58, 0
9, 123840, Note_on_c, 7, 58, 70
9, 123840, Note_on_c, 7, 55, 70
9, 123900, Note_on_c, 7, 60, 0
9, 123900, Note_on_c, 7, 57, 0
9, 124080, Note_on_c, 7, 57, 70
9, 124080, Note_on_c, 7, 53, 70
9, 124140, Note_on_c, 7, 58, 0
9, 124140, Note_on_c, 7, 55, 0
9, 124320, Note_on_c, 7, 57, 0
9, 124320, Note_on_c, 7, 53, 0
9, 124320, Note_on_c, 7, 55, 73
9, 124320, Note_on_c, 7, 53, 73
9, 124800, Note_on_c, 7, 52, 79
9, 124864, Note_on_c, 7, 53, 0
9, 125280, Note_on_c, 7, 57, 85
9, 125280, Note_on_c, 7, 51, 85
9, 125344, Note_on_c, 7, 52, 0
9, 125344, Note_on_c, 7, 55, 0
9, 125760, Note_on_c, 7, 57, 0
9, 125760, Note_on_c, 7, 51, 0
9, 125760, Note_on_c, 7, 57, 87
9, 125760, Note_on_c, 7, 51, 87
9, 126120, Note_on_c, 7, 58, 79
9, 126120, Note_on_c, 7, 50, 79
9, 126159, Note_on_c, 7, 57, 0
9, 126164, Note_on_c, 7, 51, 0
9, 126219, Note_on_c, 7, 50, 0
9, 126224, Note_on_c, 7, 58, 0
9, 126240, Note_on_c, 7, 58, 70
9, 126240, Note_on_c, 7, 50, 70
9, 126720, Note_on_c, 7, 55, 70
9, 126779, Note_on_c, 7, 58, 0
9, 126784, Note_on_c, 7, 50, 0
9, 127200, Note_on_c, 7, 55, 0
9, 127200, Note_on_c, 7, 57, 70
9, 127200, Note_on_c, 7, 48, 70
9, 127680, Note_on_c, 7, 48, 0
9, 127680, Note_on_c, 7, 57, 0
9, 130080, Note_on_c, 7, 60, 70
9, 130080, Note_on_c, 7, 57, 70
9, 131040, Note_on_c, 7, 58, 70
9, 131040, Note_on_c, 7, 55, 70
9, 131104, Note_on_c, 7, 57, 0
9, 131104, Note_on_c, 7, 60, 0
9, 131520, Note_on_c, 7, 57, 70
9, 131520, Note_on_c, 7, 53, 70
9, 131569, Note_on_c, 7, 58, 0
9, 131569, Note_on_c, 7, 55, 0
9, 131760, Note_on_c, 7, 57, 0
9, 131760, Note_on_c, 7, 53, 0
9, 132000, Note_on_c, 7, 69, 70
9, 132000, Note_on_c, 7, 65, 70
9, 132240, Note_on_c, 7, 65, 0
9, 132240, Note_on_c, 7, 69, 0
9, 132480, Note_on_c, 7, 72, 70
9, 132480, Note_on_c, 7, 67, 70
9, 132720, Note_on_c, 7, 67, 0
9, 132720, Note_on_c, 7, 72, 0
9, 132960, Note_on_c, 7, 72, 70
9, 132960, Note_on_c, 7, 65, 70
9, 133440, Note_on_c, 7, 65, 0
9, 133440, Note_on_c, 7, 72, 0
9, 141840, Note_on_c, 7, 60, 70
9, 141840, Note_on_c, 7, 48, 70
9, 142080, Note_on_c, 7, 48, 0
9, 142080, Note_on_c, 7, 60, 0
9, 142320, Note_on_c, 7, 60, 70
9, 142320, Note_on_c, 7, 48, 70
9, 142560, Note_on_c, 7, 48, 0
9, 142560, Note_on_c, 7, 60, 0
9, 142800, Note_on_c, 7, 60, 70
9, 142800, Note_on_c, 7, 48, 70
9, 143040, Note_on_c, 7, 48, 0
9, 143040, Note_on_c, 7, 60, 0
9, 143280, Note_on_c, 7, 52, 70
9, 143280, Note_on_c, 7, 48, 70
9, 143280, Note_on_c, 7, 60, 70
9, 143520, Note_on_c, 7, 60, 0
9, 143520, Note_on_c, 7, 48, 0
9, 143520, Note_on_c, 7, 52, 0
9, 143760, Note_on_c, 7, 58, 75
9, 143760, Note_on_c, 7, 48, 75
9, 143760, Note_on_c, 7, 60, 75
9, 144000, Note_on_c, 7, 60, 0
9, 144000, Note_on_c, 7, 48, 0
9, 144000, Note_on_c, 7, 58, 0
9, 144240, Note_on_c, 7, 55, 79
9, 144240, Note_on_c, 7, 48, 79
9, 144240, Note_on_c, 7, 60, 79
9, 144480, Note_on_c, 7, 60, 0
9, 144480, Note_on_c, 7, 48, 0
9, 144480, Note_on_c, 7, 55, 0
9, 144480, Note_on_c, 7, 53, 82
9, 144480, Note_on_c, 7, 48, 82
9, 144480, Note_on_c, 7, 60, 82
9, 144960, Note_on_c, 7, 60, 0
9, 144960, Note_on_c, 7, 48, 0
9, 144960, Note_on_c, 7, 53, 0
9, 145200, Note_on_c, 7, 65, 89
9, 145440, Note_on_c, 7, 65, 0
9, 145440, Note_on_c, 7, 64, 89
9, 145680, Note_on_c, 7, 64, 0
9, 145680, Note_on_c, 7, 62, 89
9, 145920, Note_on_c, 7, 62, 0
9, 145920, Note_on_c, 7, 60, 89
9, 146160, Note_on_c, 7, 60, 0
9, 146160, Note_on_c, 7, 65, 89
9, 146400, Note_on_c, 7, 64, 89
9, 146460, Note_on_c, 7, 65, 0
9, 146640, Note_on_c, 7, 62, 89
9, 146700, Note_on_c, 7, 64, 0
9, 146880, Note_on_c, 7, 60, 89
9, 146940, Note_on_c, 7, 62, 0
9, 147120, Note_on_c, 7, 58, 89
9, 147180, Note_on_c, 7, 60, 0
9, 147360, Note_on_c, 7, 57, 89
9, 147420, Note_on_c, 7, 58, 0
9, 147564, Note_on_c, 7, 57, 0
9, 150240, Note_on_c, 7, 57, 70
9, 150240, Note_on_c, 7, 53, 70
9, 150480, Note_on_c, 7, 53, 0
9, 150480, Note_on_c, 7, 57, 0
9, 150720, Note_on_c, 7, 57, 70
9, 150720, Note_on_c, 7, 53, 70
9, 150960, Note_on_c, 7, 53, 0
9, 150960, Note_on_c, 7, 57, 0
9, 151200, Note_on_c, 7, 57, 70
9, 151200, Note_on_c, 7, 53, 70
9, 151440, Note_on_c, 7, 53, 0
9, 151440, Note_on_c, 7, 57, 0
9, 151680, Note_on_c, 7, 52, 88
9, 151680, Note_on_c, 7, 60, 88
9, 152520, Note_on_c, 7, 55, 88
9, 152549, Note_on_c, 7, 52, 0
9, 152640, Note_on_c, 7, 53, 88
9, 152679, Note_on_c, 7, 55, 0
9, 152880, Note_on_c, 7, 53, 0
9, 152880, Note_on_c, 7, 60, 0
9, 154560, Note_on_c, 7, 65, 70
9, 154560, Note_on_c, 7, 53, 70
9, 155760, Note_on_c, 7, 53, 0
9, 155760, Note_on_c, 7, 65, 0
9, 156000, Note_on_c, 7, 60, 89
9, 156000, Note_on_c, 7, 53, 89
9, 156480, Note_on_c, 7, 60, 0
9, 156480, Note_on_c, 7, 62, 89
9, 156960, Note_on_c, 7, 53, 0
9, 156960, Note_on_c, 7, 55, 89
9, 157440, Note_on_c, 7, 55, 0
9, 157440, Note_on_c, 7, 62, 0
9, 157440, Note_on_c, 7, 60, 89
9, 157440, Note_on_c, 7, 48, 89
9, 157920, Note_on_c, 7, 55, 89
9, 157969, Note_on_c, 7, 48, 0
9, 158400, Note_on_c, 7, 53, 89
9, 158444, Note_on_c, 7, 55, 0
9, 158880, Note_on_c, 7, 53, 0
9, 158880, Note_on_c, 7, 60, 0
9, 158880, Note_on_c, 7, 58, 89
9, 159360, Note_on_c, 7, 53, 89
9, 159840, Note_on_c, 7, 53, 0
9, 159840, Note_on_c, 7, 62, 89
9, 160320, Note_on_c, 7, 62, 0
9, 160320, Note_on_c, 7, 58, 0
9, 160320, Note_on_c, 7, 48, 89
9, 161760, Note_on_c, 7, 48, 0
9, 161760, Note_on_c, 7, 53, 70
9, 161760, Note_on_c, 7, 50, 70
9, 162240, Note_on_c, 7, 48, 70
9, 162279, Note_on_c, 7, 50, 0
9, 162720, Note_on_c, 7, 52, 70
9, 162769, Note_on_c, 7, 53, 0
9, 163200, Note_on_c, 7, 52, 0
9, 163200, Note_on_c, 7, 48, 0
9, 163200, Note_on_c, 7, 53, 70
9, 163200, Note_on_c, 7, 48, 70
9, 163680, Note_on_c, 7, 48, 0
9, 163680, Note_on_c, 7, 53, 0
9, 164640, Note_on_c, 7, 58, 61
9, 164640, Note_on_c, 7, 53, 61
9, 165120, Note_on_c, 7, 53, 0
9, 165120, Note_on_c, 7, 58, 0
9, 165120, Note_on_c, 7, 60, 61
9, 165120, Note_on_c, 7, 57, 61
9, 165600, Note_on_c, 7, 57, 0
9, 165600, Note_on_c, 7, 58, 61
9, 166080, Note_on_c, 7, 58, 0
9, 166080, Note_on_c, 7, 57, 61
9, 166560, Note_on_c, 7, 57, 0
9, 166560, Note_on_c, 7, 60, 0
9, 168960, Note_on_c, 7, 65, 60
9, 171360, Note_on_c, 7, 65, 0
9, 171360, End_track
10, 0, Start_track
10, 0, Title_t, "Celli e K. Bass"
10, 0, Control_c, 8, 0, 0
10, 0, Control_c, 8, 7, 90
10, 0, Control_c, 8, 10, 85
10, 0, Control_c, 8, 91, 82
10, 0, Control_c, 8, 93, 73
10, 1, Control_c, 8, 32, 1
10, 2, Program_c, 8, 48
10, 1920, Note_on_c, 8, 53, 70
10, 2160, Note_on_c, 8, 53, 0
10, 2400, Note_on_c, 8, 53, 70
10, 2640, Note_on_c, 8, 53, 0
10, 2880, Note_on_c, 8, 53, 70
10, 3120, Note_on_c, 8, 53, 0
10, 3360, Note_on_c, 8, 48, 95
10, 4320, Note_on_c, 8, 41, 94
10, 4384, Note_on_c, 8, 48, 0
10, 4560, Note_on_c, 8, 41, 0
10, 6720, Note_on_c, 8, 53, 70
10, 7200, Note_on_c, 8, 41, 70
10, 7254, Note_on_c, 8, 53, 0
10, 7440, Note_on_c, 8, 41, 0
10, 8160, Note_on_c, 8, 62, 93
10, 8640, Note_on_c, 8, 58, 93
10, 8689, Note_on_c, 8, 62, 0
10, 9120, Note_on_c, 8, 58, 0
10, 9600, Note_on_c, 8, 60, 93
10, 10080, Note_on_c, 8, 57, 93
10, 10149, Note_on_c, 8, 60, 0
10, 10560, Note_on_c, 8, 57, 0
10, 11040, Note_on_c, 8, 58, 93
10, 11520, Note_on_c, 8, 55, 93
10, 11589, Note_on_c, 8, 58, 0
10, 11949, Note_on_c, 8, 55, 0
10, 12000, Note_on_c, 8, 60, 93
10, 12960, Note_on_c, 8, 60, 0
10, 12960, Note_on_c, 8, 53, 80
10, 13440, Note_on_c, 8, 53, 0
10, 13440, Note_on_c, 8, 58, 70
10, 13920, Note_on_c, 8, 60, 70
10, 13969, Note_on_c, 8, 58, 0
10, 14359, Note_on_c, 8, 60, 0
10, 14400, Note_on_c, 8, 48, 70
10, 14880, Note_on_c, 8, 48, 0
10, 14880, Note_on_c, 8, 53, 70
10, 15360, Note_on_c, 8, 53, 0
10, 16320, Note_on_c, 8, 50, 70
10, 16869, Note_on_c, 8, 50, 0
10, 17760, Note_on_c, 8, 41, 70
10, 18240, Note_on_c, 8, 41, 0
10, 30000, Note_on_c, 8, 60, 85
10, 30096, Note_on_c, 8, 60, 0
10, 30240, Note_on_c, 8, 55, 70
10, 30336, Note_on_c, 8, 55, 0
10, 30480, Note_on_c, 8, 52, 70
10, 30576, Note_on_c, 8, 52, 0
10, 30720, Note_on_c, 8, 48, 60
10, 30912, Note_on_c, 8, 48, 0
10, 35760, Note_on_c, 8, 60, 83
10, 35856, Note_on_c, 8, 60, 0
10, 36000, Note_on_c, 8, 55, 67
10, 36096, Note_on_c, 8, 55, 0
10, 36240, Note_on_c, 8, 52, 65
10, 36336, Note_on_c, 8, 52, 0
10, 36480, Note_on_c, 8, 48, 63
10, 36672, Note_on_c, 8, 48, 0
10, 45840, Note_on_c, 8, 53, 70
10, 46080, Note_on_c, 8, 52, 70
10, 46140, Note_on_c, 8, 53, 0
10, 46320, Note_on_c, 8, 50, 70
10, 46380, Note_on_c, 8, 52, 0
10, 46519, Note_on_c, 8, 50, 0
10, 46560, Note_on_c, 8, 48, 95
10, 47520, Note_on_c, 8, 48, 0
10, 49440, Note_on_c, 8, 55, 73
10, 49920, Note_on_c, 8, 53, 81
10, 50009, Note_on_c, 8, 55, 0
10, 50400, Note_on_c, 8, 52, 94
10, 50499, Note_on_c, 8, 53, 0
10, 50880, Note_on_c, 8, 50, 94
10, 50889, Note_on_c, 8, 52, 0
10, 51579, Note_on_c, 8, 50, 0
10, 51600, Note_on_c, 8, 50, 70
10, 51840, Note_on_c, 8, 50, 0
10, 51840, Note_on_c, 8, 47, 70
10, 52080, Note_on_c, 8, 47, 0
10, 52080, Note_on_c, 8, 43, 70
10, 52320, Note_on_c, 8, 43, 0
10, 52320, Note_on_c, 8, 48, 70
10, 52800, Note_on_c, 8, 48, 0
10, 56640, Note_on_c, 8, 48, 90
10, 57600, Note_on_c, 8, 48, 0
10, 59520, Note_on_c, 8, 41, 73
10, 60000, Note_on_c, 8, 42, 80
10, 60084, Note_on_c, 8, 41, 0
10, 60480, Note_on_c, 8, 43, 90
10, 60589, Note_on_c, 8, 42, 0
10, 60924, Note_on_c, 8, 43, 0
10, 60960, Note_on_c, 8, 45, 90
10, 61920, Note_on_c, 8, 47, 70
10, 62009, Note_on_c, 8, 45, 0
10, 62349, Note_on_c, 8, 47, 0
10, 62400, Note_on_c, 8, 48, 70
10, 62880, Note_on_c, 8, 48, 0
10, 63840, Note_on_c, 8, 48, 70
10, 64080, Note_on_c, 8, 48, 0
10, 64320, Note_on_c, 8, 52, 70
10, 64560, Note_on_c, 8, 52, 0
10, 64800, Note_on_c, 8, 55, 70
10, 65040, Note_on_c, 8, 55, 0
10, 65280, Note_on_c, 8, 60, 70
10, 65760, Note_on_c, 8, 60, 0
10, 66720, Note_on_c, 8, 48, 70
10, 66960, Note_on_c, 8, 48, 0
10, 67200, Note_on_c, 8, 52, 70
10, 67440, Note_on_c, 8, 52, 0
10, 67680, Note_on_c, 8, 55, 70
10, 67920, Note_on_c, 8, 55, 0
10, 68160, Note_on_c, 8, 60, 70
10, 68640, Note_on_c, 8, 60, 0
10, 76800, Note_on_c, 8, 48, 70
10, 84000, Note_on_c, 8, 41, 70
10, 84099, Note_on_c, 8, 48, 0
10, 84240, Note_on_c, 8, 41, 0
10, 94800, Note_on_c, 8, 60, 85
10, 94896, Note_on_c, 8, 60, 0
10, 95040, Note_on_c, 8, 55, 70
10, 95136, Note_on_c, 8, 55, 0
10, 95280, Note_on_c, 8, 52, 70
10, 95376, Note_on_c, 8, 52, 0
10, 95520, Note_on_c, 8, 48, 70
10, 96000, Note_on_c, 8, 48, 0
10, 100560, Note_on_c, 8, 58, 89
10, 100800, Note_on_c, 8, 57, 89
10, 100859, Note_on_c, 8, 58, 0
10, 101040, Note_on_c, 8, 55, 89
10, 101069, Note_on_c, 8, 57, 0
10, 101264, Note_on_c, 8, 55, 0
10, 101280, Note_on_c, 8, 53, 89
10, 101760, Note_on_c, 8, 53, 0
10, 102720, Note_on_c, 8, 52, 53
10, 103200, Note_on_c, 8, 52, 0
10, 104160, Note_on_c, 8, 48, 53
10, 104640, Note_on_c, 8, 48, 0
10, 105600, Note_on_c, 8, 53, 71
10, 106080, Note_on_c, 8, 53, 0
10, 107040, Note_on_c, 8, 50, 71
10, 107520, Note_on_c, 8, 50, 0
10, 108480, Note_on_c, 8, 48, 70
10, 108960, Note_on_c, 8, 48, 0
10, 110640, Note_on_c, 8, 58, 89
10, 110880, Note_on_c, 8, 57, 89
10, 110939, Note_on_c, 8, 58, 0
10, 111120, Note_on_c, 8, 55, 89
10, 111159, Note_on_c, 8, 57, 0
10, 111359, Note_on_c, 8, 55, 0
10, 111360, Note_on_c, 8, 53, 89
10, 112320, Note_on_c, 8, 53, 0
10, 114240, Note_on_c, 8, 60, 73
10, 114720, Note_on_c, 8, 58, 80
10, 114759, Note_on_c, 8, 60, 0
10, 115200, Note_on_c, 8, 57, 86
10, 115259, Note_on_c, 8, 58, 0
10, 115680, Note_on_c, 8, 57, 0
10, 115680, Note_on_c, 8, 55, 89
10, 116400, Note_on_c, 8, 55, 0
10, 116400, Note_on_c, 8, 55, 70
10, 116640, Note_on_c, 8, 55, 0
10, 116640, Note_on_c, 8, 52, 70
10, 116880, Note_on_c, 8, 52, 0
10, 116880, Note_on_c, 8, 48, 70
10, 117120, Note_on_c, 8, 48, 0
10, 117120, Note_on_c, 8, 53, 70
10, 117600, Note_on_c, 8, 53, 0
10, 121440, Note_on_c, 8, 53, 91
10, 122400, Note_on_c, 8, 53, 0
10, 124320, Note_on_c, 8, 47, 75
10, 124800, Note_on_c, 8, 48, 82
10, 124849, Note_on_c, 8, 47, 0
10, 125280, Note_on_c, 8, 41, 89
10, 125329, Note_on_c, 8, 48, 0
10, 125760, Note_on_c, 8, 41, 0
10, 125760, Note_on_c, 8, 46, 92
10, 126240, Note_on_c, 8, 43, 71
10, 126299, Note_on_c, 8, 46, 0
10, 126720, Note_on_c, 8, 48, 70
10, 126779, Note_on_c, 8, 43, 0
10, 127200, Note_on_c, 8, 48, 0
10, 127200, Note_on_c, 8, 41, 70
10, 127680, Note_on_c, 8, 41, 0
10, 128640, Note_on_c, 8, 41, 70
10, 128880, Note_on_c, 8, 41, 0
10, 129120, Note_on_c, 8, 45, 70
10, 129360, Note_on_c, 8, 45, 0
10, 129600, Note_on_c, 8, 48, 70
10, 129840, Note_on_c, 8, 48, 0
10, 130080, Note_on_c, 8, 53, 70
10, 130560, Note_on_c, 8, 53, 0
10, 131520, Note_on_c, 8, 53, 70
10, 131760, Note_on_c, 8, 53, 0
10, 132000, Note_on_c, 8, 57, 70
10, 132240, Note_on_c, 8, 57, 0
10, 132480, Note_on_c, 8, 60, 70
10, 132720, Note_on_c, 8, 60, 0
10, 132960, Note_on_c, 8, 53, 70
10, 133440, Note_on_c, 8, 53, 0
10, 141600, Note_on_c, 8, 48, 70
10, 141840, Note_on_c, 8, 48, 0
10, 142080, Note_on_c, 8, 48, 70
10, 142320, Note_on_c, 8, 48, 0
10, 142560, Note_on_c, 8, 48, 70
10, 142800, Note_on_c, 8, 48, 0
10, 143040, Note_on_c, 8, 48, 74
10, 143280, Note_on_c, 8, 48, 0
10, 143520, Note_on_c, 8, 48, 79
10, 143760, Note_on_c, 8, 48, 0
10, 144000, Note_on_c, 8, 48, 85
10, 144240, Note_on_c, 8, 48, 0
10, 144480, Note_on_c, 8, 41, 90
10, 144960, Note_on_c, 8, 41, 0
10, 147600, Note_on_c, 8, 45, 89
10, 147840, Note_on_c, 8, 46, 80
10, 147900, Note_on_c, 8, 45, 0
10, 148080, Note_on_c, 8, 48, 80
10, 148140, Note_on_c, 8, 46, 0
10, 148320, Note_on_c, 8, 50, 80
10, 148380, Note_on_c, 8, 48, 0
10, 148560, Note_on_c, 8, 47, 80
10, 148620, Note_on_c, 8, 50, 0
10, 148800, Note_on_c, 8, 47, 0
10, 148800, Note_on_c, 8, 48, 80
10, 149284, Note_on_c, 8, 48, 0
10, 150240, Note_on_c, 8, 53, 70
10, 150480, Note_on_c, 8, 53, 0
10, 150720, Note_on_c, 8, 53, 70
10, 150960, Note_on_c, 8, 53, 0
10, 151200, Note_on_c, 8, 53, 70
10, 151440, Note_on_c, 8, 53, 0
10, 151680, Note_on_c, 8, 48, 99
10, 152640, Note_on_c, 8, 41, 88
10, 152689, Note_on_c, 8, 48, 0
10, 152880, Note_on_c, 8, 41, 0
10, 155040, Note_on_c, 8, 53, 70
10, 155520, Note_on_c, 8, 41, 70
10, 155554, Note_on_c, 8, 53, 0
10, 155760, Note_on_c, 8, 41, 0
10, 156480, Note_on_c, 8, 62, 87
10, 156960, Note_on_c, 8, 58, 87
10, 157009, Note_on_c, 8, 62, 0
10, 157440, Note_on_c, 8, 58, 0
10, 157920, Note_on_c, 8, 60, 87
10, 158400, Note_on_c, 8, 57, 87
10, 158449, Note_on_c, 8, 60, 0
10, 158880, Note_on_c, 8, 57, 0
10, 159360, Note_on_c, 8, 58, 87
10, 159840, Note_on_c, 8, 55, 87
10, 159884, Note_on_c, 8, 58, 0
10, 160320, Note_on_c, 8, 55, 0
10, 160320, Note_on_c, 8, 60, 87
10, 161280, Note_on_c, 8, 53, 70
10, 161329, Note_on_c, 8, 60, 0
10, 161760, Note_on_c, 8, 53, 0
10, 161760, Note_on_c, 8, 58, 70
10, 162240, Note_on_c, 8, 60, 70
10, 162284, Note_on_c, 8, 58, 0
10, 162720, Note_on_c, 8, 60, 0
10, 162720, Note_on_c, 8, 48, 70
10, 163200, Note_on_c, 8, 48, 0
10, 163200, Note_on_c, 8, 53, 70
10, 163680, Note_on_c, 8, 53, 0
10, 164640, Note_on_c, 8, 50, 59
10, 165000, Note_on_c, 8, 50, 0
10, 165000, Note_on_c, 8, 48, 59
10, 165060, Note_on_c, 8, 48, 0
10, 165060, Note_on_c, 8, 46, 59
10, 165120, Note_on_c, 8, 46, 0
10, 165120, Note_on_c, 8, 48, 59
10, 165600, Note_on_c, 8, 48, 0
10, 165600, Note_on_c, 8, 48, 59
10, 166080, Note_on_c, 8, 48, 0
10, 166080, Note_on_c, 8, 41, 59
10, 166560, Note_on_c, 8, 41, 0
10, 167520, Note_on_c, 8, 53, 70
10, 167760, Note_on_c, 8, 53, 0
10, 168000, Note_on_c, 8, 57, 70
10, 168240, Note_on_c, 8, 57, 0
10, 168480, Note_on_c, 8, 60, 70
10, 168720, Note_on_c, 8, 60, 0
10, 168960, Note_on_c, 8, 53, 60
10, 169284, Note_on_c, 8, 53, 0
10, 169440, Note_on_c, 8, 53, 60
10, 169804, Note_on_c, 8, 53, 0
10, 169920, Note_on_c, 8, 53, 60
10, 170279, Note_on_c, 8, 53, 0
10, 170400, Note_on_c, 8, 53, 60
10, 171360, Note_on_c, 8, 53, 0
10, 171360, End_track
11, 0, Start_track
11, 0, Title_t, "K. Bass"
11, 0, Control_c, 10, 0, 0
11, 0, Control_c, 10, 7, 70
11, 0, Control_c, 10, 10, 100
11, 0, Control_c, 10, 91, 85
11, 0, Control_c, 10, 93, 85
11, 1, Control_c, 10, 32, 1
11, 2, Program_c, 10, 48
11, 1920, Note_on_c, 10, 41, 70
11, 2160, Note_on_c, 10, 41, 0
11, 2400, Note_on_c, 10, 41, 70
11, 2640, Note_on_c, 10, 41, 0
11, 2880, Note_on_c, 10, 41, 70
11, 3120, Note_on_c, 10, 41, 0
11, 3360, Note_on_c, 10, 36, 95
11, 4320, Note_on_c, 10, 29, 94
11, 4384, Note_on_c, 10, 36, 0
11, 4560, Note_on_c, 10, 29, 0
11, 6720, Note_on_c, 10, 41, 70
11, 7200, Note_on_c, 10, 29, 70
11, 7254, Note_on_c, 10, 41, 0
11, 7440, Note_on_c, 10, 29, 0
11, 8160, Note_on_c, 10, 50, 93
11, 8640, Note_on_c, 10, 46, 93
11, 8689, Note_on_c, 10, 50, 0
11, 9120, Note_on_c, 10, 46, 0
11, 9600, Note_on_c, 10, 48, 93
11, 10080, Note_on_c, 10, 45, 93
11, 10149, Note_on_c, 10, 48, 0
11, 10560, Note_on_c, 10, 45, 0
11, 11040, Note_on_c, 10, 46, 93
11, 11520, Note_on_c, 10, 43, 93
11, 11589, Note_on_c, 10, 46, 0
11, 11949, Note_on_c, 10, 43, 0
11, 12000, Note_on_c, 10, 48, 93
11, 12960, Note_on_c, 10, 48, 0
11, 12960, Note_on_c, 10, 41, 80
11, 13440, Note_on_c, 10, 41, 0
11, 13440, Note_on_c, 10, 46, 70
11, 13920, Note_on_c, 10, 48, 70
11, 13969, Note_on_c, 10, 46, 0
11, 14359, Note_on_c, 10, 48, 0
11, 14400, Note_on_c, 10, 36, 70
11, 14880, Note_on_c, 10, 36, 0
11, 14880, Note_on_c, 10, 41, 70
11, 15360, Note_on_c, 10, 41, 0
11, 16320, Note_on_c, 10, 38, 70
11, 16800, Note_on_c, 10, 36, 70
11, 16869, Note_on_c, 10, 38, 0
11, 17229, Note_on_c, 10, 36, 0
11, 17280, Note_on_c, 10, 36, 70
11, 17760, Note_on_c, 10, 36, 0
11, 17760, Note_on_c, 10, 29, 70
11, 18240, Note_on_c, 10, 29, 0
11, 30000, Note_on_c, 10, 48, 70
11, 30096, Note_on_c, 10, 48, 0
11, 30240, Note_on_c, 10, 43, 70
11, 30336, Note_on_c, 10, 43, 0
11, 30480, Note_on_c, 10, 40, 70
11, 30576, Note_on_c, 10, 40, 0
11, 30720, Note_on_c, 10, 36, 60
11, 30912, Note_on_c, 10, 36, 0
11, 35760, Note_on_c, 10, 48, 66
11, 35856, Note_on_c, 10, 48, 0
11, 36000, Note_on_c, 10, 43, 67
11, 36096, Note_on_c, 10, 43, 0
11, 36240, Note_on_c, 10, 40, 65
11, 36336, Note_on_c, 10, 40, 0
11, 36480, Note_on_c, 10, 36, 63
11, 36672, Note_on_c, 10, 36, 0
11, 45840, Note_on_c, 10, 41, 70
11, 46080, Note_on_c, 10, 40, 70
11, 46140, Note_on_c, 10, 41, 0
11, 46320, Note_on_c, 10, 38, 70
11, 46380, Note_on_c, 10, 40, 0
11, 46519, Note_on_c, 10, 38, 0
11, 46560, Note_on_c, 10, 36, 95
11, 47520, Note_on_c, 10, 36, 0
11, 49440, Note_on_c, 10, 43, 73
11, 49920, Note_on_c, 10, 41, 81
11, 50009, Note_on_c, 10, 43, 0
11, 50400, Note_on_c, 10, 40, 94
11, 50499, Note_on_c, 10, 41, 0
11, 50880, Note_on_c, 10, 38, 94
11, 50889, Note_on_c, 10, 40, 0
11, 51579, Note_on_c, 10, 38, 0
11, 51600, Note_on_c, 10, 38, 70
11, 51840, Note_on_c, 10, 38, 0
11, 51840, Note_on_c, 10, 35, 70
11, 52080, Note_on_c, 10, 35, 0
11, 52080, Note_on_c, 10, 31, 70
11, 52320, Note_on_c, 10, 31, 0
11, 52320, Note_on_c, 10, 36, 70
11, 52800, Note_on_c, 10, 36, 0
11, 56640, Note_on_c, 10, 36, 90
11, 57600, Note_on_c, 10, 36, 0
11, 59520, Note_on_c, 10, 29, 73
11, 60000, Note_on_c, 10, 30, 80
11, 60084, Note_on_c, 10, 29, 0
11, 60480, Note_on_c, 10, 31, 90
11, 60589, Note_on_c, 10, 30, 0
11, 60924, Note_on_c, 10, 31, 0
11, 60960, Note_on_c, 10, 33, 90
11, 61920, Note_on_c, 10, 35, 70
11, 62009, Note_on_c, 10, 33, 0
11, 62349, Note_on_c, 10, 35, 0
11, 62400, Note_on_c, 10, 36, 70
11, 62880, Note_on_c, 10, 36, 0
11, 63840, Note_on_c, 10, 36, 70
11, 64080, Note_on_c, 10, 36, 0
11, 64320, Note_on_c, 10, 40, 70
11, 64560, Note_on_c, 10, 40, 0
11, 64800, Note_on_c, 10, 43, 70
11, 65040, Note_on_c, 10, 43, 0
11, 65280, Note_on_c, 10, 48, 70
11, 65760, Note_on_c, 10, 48, 0
11, 66720, Note_on_c, 10, 36, 70
11, 66960, Note_on_c, 10, 36, 0
11, 67200, Note_on_c, 10, 40, 70
11, 67440, Note_on_c, 10, 40, 0
11, 67680, Note_on_c, 10, 43, 70
11, 67920, Note_on_c, 10, 43, 0
11, 68160, Note_on_c, 10, 48, 70
11, 68640, Note_on_c, 10, 48, 0
11, 76800, Note_on_c, 10, 36, 70
11, 84000, Note_on_c, 10, 29, 70
11, 84099, Note_on_c, 10, 36, 0
11, 84240, Note_on_c, 10, 29, 0
11, 94800, Note_on_c, 10, 48, 70
11, 94896, Note_on_c, 10, 48, 0
11, 95040, Note_on_c, 10, 43, 70
11, 95136, Note_on_c, 10, 43, 0
11, 95280, Note_on_c, 10, 40, 70
11, 95376, Note_on_c, 10, 40, 0
11, 95520, Note_on_c, 10, 36, 70
11, 96000, Note_on_c, 10, 36, 0
11, 100560, Note_on_c, 10, 46, 89
11, 100800, Note_on_c, 10, 45, 89
11, 100859, Note_on_c, 10, 46, 0
11, 101040, Note_on_c, 10, 43, 89
11, 101069, Note_on_c, 10, 45, 0
11, 101264, Note_on_c, 10, 43, 0
11, 101280, Note_on_c, 10, 41, 89
11, 101760, Note_on_c, 10, 41, 0
11, 102720, Note_on_c, 10, 40, 53
11, 103200, Note_on_c, 10, 40, 0
11, 104160, Note_on_c, 10, 36, 53
11, 104640, Note_on_c, 10, 36, 0
11, 105600, Note_on_c, 10, 41, 71
11, 106080, Note_on_c, 10, 41, 0
11, 107040, Note_on_c, 10, 38, 71
11, 107520, Note_on_c, 10, 38, 0
11, 108480, Note_on_c, 10, 36, 70
11, 108960, Note_on_c, 10, 36, 0
11, 110640, Note_on_c, 10, 46, 89
11, 110880, Note_on_c, 10, 45, 89
11, 110939, Note_on_c, 10, 46, 0
11, 111120, Note_on_c, 10, 43, 89
11, 111159, Note_on_c, 10, 45, 0
11, 111359, Note_on_c, 10, 43, 0
11, 111360, Note_on_c, 10, 41, 89
11, 112320, Note_on_c, 10, 41, 0
11, 114240, Note_on_c, 10, 48, 73
11, 114720, Note_on_c, 10, 46, 80
11, 114759, Note_on_c, 10, 48, 0
11, 115200, Note_on_c, 10, 45, 86
11, 115259, Note_on_c, 10, 46, 0
11, 115680, Note_on_c, 10, 45, 0
11, 115680, Note_on_c, 10, 43, 89
11, 116400, Note_on_c, 10, 43, 0
11, 116400, Note_on_c, 10, 43, 70
11, 116640, Note_on_c, 10, 43, 0
11, 116640, Note_on_c, 10, 40, 70
11, 116880, Note_on_c, 10, 40, 0
11, 116880, Note_on_c, 10, 36, 70
11, 117120, Note_on_c, 10, 36, 0
11, 117120, Note_on_c, 10, 41, 70
11, 117600, Note_on_c, 10, 41, 0
11, 121440, Note_on_c, 10, 41, 91
11, 122400, Note_on_c, 10, 41, 0
11, 124320, Note_on_c, 10, 35, 75
11, 124800, Note_on_c, 10, 36, 82
11, 124849, Note_on_c, 10, 35, 0
11, 125280, Note_on_c, 10, 29, 89
11, 125329, Note_on_c, 10, 36, 0
11, 125760, Note_on_c, 10, 29, 0
11, 125760, Note_on_c, 10, 34, 92
11, 126240, Note_on_c, 10, 31, 71
11, 126299, Note_on_c, 10, 34, 0
11, 126720, Note_on_c, 10, 36, 70
11, 126779, Note_on_c, 10, 31, 0
11, 127200, Note_on_c, 10, 36, 0
11, 127200, Note_on_c, 10, 29, 70
11, 127680, Note_on_c, 10, 29, 0
11, 128640, Note_on_c, 10, 29, 70
11, 128880, Note_on_c, 10, 29, 0
11, 129120, Note_on_c, 10, 33, 70
11, 129360, Note_on_c, 10, 33, 0
11, 129600, Note_on_c, 10, 36, 70
11, 129840, Note_on_c, 10, 36, 0
11, 130080, Note_on_c, 10, 41, 70
11, 130560, Note_on_c, 10, 41, 0
11, 131520, Note_on_c, 10, 41, 70
11, 131760, Note_on_c, 10, 41, 0
11, 132000, Note_on_c, 10, 45, 70
11, 132240, Note_on_c, 10, 45, 0
11, 132480, Note_on_c, 10, 48, 70
11, 132720, Note_on_c, 10, 48, 0
11, 132960, Note_on_c, 10, 41, 70
11, 133440, Note_on_c, 10, 41, 0
11, 141600, Note_on_c, 10, 36, 70
11, 141840, Note_on_c, 10, 36, 0
11, 142080, Note_on_c, 10, 36, 70
11, 142320, Note_on_c, 10, 36, 0
11, 142560, Note_on_c, 10, 36, 70
11, 142800, Note_on_c, 10, 36, 0
11, 143040, Note_on_c, 10, 36, 74
11, 143280, Note_on_c, 10, 36, 0
11, 143520, Note_on_c, 10, 36, 79
11, 143760, Note_on_c, 10, 36, 0
11, 144000, Note_on_c, 10, 36, 85
11, 144240, Note_on_c, 10, 36, 0
11, 144480, Note_on_c, 10, 29, 90
11, 144960, Note_on_c, 10, 29, 0
11, 147600, Note_on_c, 10, 33, 89
11, 147840, Note_on_c, 10, 34, 80
11, 147900, Note_on_c, 10, 33, 0
11, 148080, Note_on_c, 10, 36, 80
11, 148140, Note_on_c, 10, 34, 0
11, 148320, Note_on_c, 10, 38, 80
11, 148380, Note_on_c, 10, 36, 0
11, 148560, Note_on_c, 10, 35, 80
11, 148620, Note_on_c, 10, 38, 0
11, 148800, Note_on_c, 10, 35, 0
11, 148800, Note_on_c, 10, 36, 80
11, 149284, Note_on_c, 10, 36, 0
11, 150240, Note_on_c, 10, 41, 70
11, 150480, Note_on_c, 10, 41, 0
11, 150720, Note_on_c, 10, 41, 70
11, 150960, Note_on_c, 10, 41, 0
11, 151200, Note_on_c, 10, 41, 70
11, 151440, Note_on_c, 10, 41, 0
11, 151680, Note_on_c, 10, 36, 88
11, 152640, Note_on_c, 10, 29, 88
11, 152689, Note_on_c, 10, 36, 0
11, 152880, Note_on_c, 10, 29, 0
11, 155040, Note_on_c, 10, 41, 70
11, 155520, Note_on_c, 10, 29, 70
11, 155554, Note_on_c, 10, 41, 0
11, 155760, Note_on_c, 10, 29, 0
11, 156480, Note_on_c, 10, 50, 87
11, 156960, Note_on_c, 10, 46, 87
11, 157009, Note_on_c, 10, 50, 0
11, 157440, Note_on_c, 10, 46, 0
11, 157920, Note_on_c, 10, 48, 87
11, 158400, Note_on_c, 10, 45, 87
11, 158449, Note_on_c, 10, 48, 0
11, 158880, Note_on_c, 10, 45, 0
11, 159360, Note_on_c, 10, 46, 87
11, 159840, Note_on_c, 10, 43, 87
11, 159884, Note_on_c, 10, 46, 0
11, 160320, Note_on_c, 10, 43, 0
11, 160320, Note_on_c, 10, 48, 87
11, 161280, Note_on_c, 10, 41, 70
11, 161329, Note_on_c, 10, 48, 0
11, 161760, Note_on_c, 10, 41, 0
11, 161760, Note_on_c, 10, 46, 70
11, 162240, Note_on_c, 10, 48, 70
11, 162284, Note_on_c, 10, 46, 0
11, 162720, Note_on_c, 10, 48, 0
11, 162720, Note_on_c, 10, 36, 70
11, 163200, Note_on_c, 10, 36, 0
11, 163200, Note_on_c, 10, 41, 70
11, 163680, Note_on_c, 10, 41, 0
11, 164640, Note_on_c, 10, 38, 59
11, 165000, Note_on_c, 10, 38, 0
11, 165000, Note_on_c, 10, 36, 59
11, 165060, Note_on_c, 10, 36, 0
11, 165060, Note_on_c, 10, 34, 59
11, 165120, Note_on_c, 10, 34, 0
11, 165120, Note_on_c, 10, 36, 59
11, 165600, Note_on_c, 10, 36, 0
11, 165600, Note_on_c, 10, 36, 59
11, 166080, Note_on_c, 10, 36, 0
11, 166080, Note_on_c, 10, 29, 59
11, 166560, Note_on_c, 10, 29, 0
11, 167520, Note_on_c, 10, 41, 70
11, 167760, Note_on_c, 10, 41, 0
11, 168000, Note_on_c, 10, 45, 70
11, 168240, Note_on_c, 10, 45, 0
11, 168480, Note_on_c, 10, 48, 70
11, 168720, Note_on_c, 10, 48, 0
11, 168960, Note_on_c, 10, 41, 60
11, 169284, Note_on_c, 10, 41, 0
11, 169440, Note_on_c, 10, 41, 60
11, 169804, Note_on_c, 10, 41, 0
11, 169920, Note_on_c, 10, 41, 60
11, 170279, Note_on_c, 10, 41, 0
11, 170400, Note_on_c, 10, 41, 60
11, 171360, Note_on_c, 10, 41, 0
11, 171360, End_track
12, 0, Start_track
12, 0, Title_t, "Mozart Concerto for Flute and Harp in C,"
12, 0, Control_c, 0, 91, 0
12, 0, Control_c, 0, 93, 0
12, 0, End_track
13, 0, Start_track
13, 0, Title_t, "K.299 (1778)"
13, 0, Control_c, 0, 91, 0
13, 0, Control_c, 0, 93, 0
13, 0, End_track
14, 0, Start_track
14, 0, Title_t, "Sequenced by Randy Reid, 1996"
14, 0, Control_c, 0, 91, 0
14, 0, Control_c, 0, 93, 0
14, 0, End_track
15, 0, Start_track
15, 0, Title_t, "Troppo@msn.com"
15, 0, Control_c, 0, 91, 0
15, 0, Control_c, 0, 93, 0
15, 0, End_track
16, 0, Start_track
16, 0, Title_t, "Harp"
16, 0, Control_c, 4, 0, 0
16, 0, Control_c, 4, 7, 90
16, 0, Control_c, 4, 10, 70
16, 0, Control_c, 4, 91, 0
16, 0, Control_c, 4, 93, 0
16, 1, Control_c, 4, 32, 1
16, 2, Program_c, 4, 46
16, 2, End_track
17, 0, Start_track
17, 0, Title_t, "Violin I"
17, 0, Control_c, 5, 0, 0
17, 0, Control_c, 5, 7, 100
17, 0, Control_c, 5, 10, 30
17, 0, Control_c, 5, 91, 0
17, 0, Control_c, 5, 93, 0
17, 1, Control_c, 5, 32, 1
17, 2, Program_c, 5, 48
17, 2, End_track
18, 0, Start_track
18, 0, Title_t, "Violin II"
18, 0, Control_c, 6, 0, 0
18, 0, Control_c, 6, 7, 100
18, 0, Control_c, 6, 10, 100
18, 0, Control_c, 6, 91, 0
18, 0, Control_c, 6, 93, 0
18, 1, Control_c, 6, 32, 1
18, 2, Program_c, 6, 48
18, 2, End_track
19, 0, Start_track
19, 0, Title_t, "Viola"
19, 0, Control_c, 7, 0, 0
19, 0, Control_c, 7, 7, 100
19, 0, Control_c, 7, 10, 45
19, 0, Control_c, 7, 91, 0
19, 0, Control_c, 7, 93, 0
19, 1, Control_c, 7, 32, 1
19, 2, Program_c, 7, 48
19, 2, End_track
20, 0, Start_track
20, 0, Title_t, "Celli e K. Bass"
20, 0, Control_c, 8, 0, 0
20, 0, Control_c, 8, 7, 90
20, 0, Control_c, 8, 10, 85
20, 0, Control_c, 8, 91, 0
20, 0, Control_c, 8, 93, 0
20, 1, Control_c, 8, 32, 1
20, 2, Program_c, 8, 48
20, 2, End_track
21, 0, Start_track
21, 0, Title_t, "K. Bass"
21, 0, Control_c, 10, 0, 0
21, 0, Control_c, 10, 7, 70
21, 0, Control_c, 10, 10, 100
21, 0, Control_c, 10, 91, 0
21, 0, Control_c, 10, 93, 0
21, 1, Control_c, 10, 32, 1
21, 2, Program_c, 10, 48
21, 2, End_track
22, 0, Start_track
22, 0, Title_t, "Mozart Concerto for Flute and Harp in C,"
22, 0, Control_c, 0, 91, 0
22, 0, Control_c, 0, 93, 0
22, 0, End_track
23, 0, Start_track
23, 0, Title_t, "K.299 (1778)"
23, 0, Control_c, 0, 91, 0
23, 0, Control_c, 0, 93, 0
23, 0, End_track
24, 0, Start_track
24, 0, Title_t, "Sequenced by Randy Reid, 1996"
24, 0, Control_c, 0, 91, 0
24, 0, Control_c, 0, 93, 0
24, 0, End_track
25, 0, Start_track
25, 0, Title_t, "Troppo@msn.com"
25, 0, Control_c, 0, 91, 0
25, 0, Control_c, 0, 93, 0
25, 0, End_track
26, 0, Start_track
26, 0, Title_t, "Console Automation Data"
26, 0, Control_c, 1, 40, 103
26, 0, Control_c, 0, 40, 103
26, 0, Control_c, 1, 93, 64
26, 0, Control_c, 1, 92, 0
26, 0, Control_c, 1, 96, 64
26, 0, Control_c, 1, 95, 127
26, 0, Control_c, 0, 93, 64
26, 0, Control_c, 0, 92, 0
26, 0, Control_c, 0, 96, 64
26, 0, Control_c, 0, 95, 127
26, 0, Control_c, 0, 91, 0
26, 0, End_track
0, 0, End_of_file