0, 0, Header, 1, 13, 480
1, 0, Start_track
1, 0, Time_signature, 4, 2, 24, 8
1, 0, Tempo, 454545
1, 59520, Tempo, 500000
1, 61440, Tempo, 476190
1, 63360, Tempo, 468750
1, 82560, Tempo, 465116
1, 86400, Tempo, 461538
1, 88320, Tempo, 458015
1, 90240, Tempo, 454545
1, 92160, Tempo, 447761
1, 96000, Tempo, 476190
1, 97920, Tempo, 454545
1, 103680, Tempo, 476190
1, 105600, Tempo, 454545
1, 119040, Tempo, 476190
1, 120960, Tempo, 500000
1, 122880, Tempo, 454545
1, 161280, Tempo, 476190
1, 163200, Tempo, 500000
1, 165152, Tempo, 480000
1, 166560, Tempo, 517241
1, 168496, Tempo, 476190
1, 170400, Tempo, 521739
1, 172320, Tempo, 468750
1, 184320, Tempo, 476190
1, 188160, Tempo, 468750
1, 211200, Tempo, 487805
1, 213120, Tempo, 468750
1, 218880, Tempo, 476190
1, 220800, Tempo, 468750
1, 228480, Tempo, 461538
1, 234240, Tempo, 461538
1, 234440, Tempo, 472440
1, 234640, Tempo, 480000
1, 234840, Tempo, 491803
1, 235040, Tempo, 500000
1, 235216, Tempo, 508474
1, 235696, Tempo, 454545
1, 236176, Tempo, 454545
1, 245760, Tempo, 476190
1, 251520, Tempo, 454545
1, 289920, Tempo, 476190
1, 301440, Tempo, 454545
1, 305280, Tempo, 468750
1, 307200, Tempo, 476190
1, 309120, Tempo, 454545
1, 320640, Tempo, 476190
1, 322560, Tempo, 454545
1, 372384, Tempo, 487804
1, 372600, Tempo, 504201
1, 372800, Tempo, 540540
1, 373000, Tempo, 612244
1, 373200, Tempo, 759493
1, 373264, Tempo, 833333
1, 373584, Tempo, 500000
1, 376320, Tempo, 526315
1, 376528, Tempo, 571428
1, 376720, Tempo, 600000
1, 376928, Tempo, 631578
1, 377120, Tempo, 705882
1, 377328, Tempo, 789473
1, 377520, Tempo, 923076
1, 377728, Tempo, 1428571
1, 378240, Tempo, 454545
1, 420480, Tempo, 500000
1, 421968, Tempo, 476190
1, 423888, Tempo, 517241
1, 425792, Tempo, 476190
1, 427680, Tempo, 517241
1, 433920, Tempo, 483870
1, 435856, Tempo, 476190
1, 439696, Tempo, 468750
1, 449280, Tempo, 483871
1, 451200, Tempo, 468750
1, 464640, Tempo, 476190
1, 466560, Tempo, 468750
1, 481920, Tempo, 483871
1, 483840, Tempo, 468750
1, 489600, Tempo, 461538
1, 503040, Tempo, 468750
1, 504960, Tempo, 461538
1, 506896, Tempo, 458015
1, 510736, Tempo, 454545
1, 558720, Tempo, 468750
1, 558920, Tempo, 480000
1, 559120, Tempo, 491803
1, 559320, Tempo, 504201
1, 559520, Tempo, 517241
1, 559720, Tempo, 530973
1, 559920, Tempo, 545454
1, 560120, Tempo, 560747
1, 560320, Tempo, 645161
1, 560560, Tempo, 800000
1, 560640, Time_signature, 5, 2, 24, 8
1, 560640, Tempo, 800000
1, 562080, Tempo, 821917
1, 562280, Tempo, 697674
1, 562480, Tempo, 600000
1, 562680, Tempo, 526315
1, 562880, Tempo, 468750
1, 563040, Time_signature, 4, 2, 24, 8
1, 563040, Tempo, 428571
1, 563040, Tempo, 428571
1, 572640, Tempo, 454545
1, 580320, Tempo, 476190
1, 582256, Tempo, 480000
1, 582456, Tempo, 495867
1, 582656, Tempo, 508474
1, 582856, Tempo, 521739
1, 583056, Tempo, 535714
1, 583256, Tempo, 550458
1, 583456, Tempo, 566037
1, 583656, Tempo, 582524
1, 583856, Tempo, 600000
1, 584032, Tempo, 689655
1, 584160, Tempo, 476190
1, 591840, Tempo, 454545
1, 597600, Tempo, 447761
1, 599520, Tempo, 441176
1, 601440, Tempo, 434782
1, 603360, Tempo, 447761
1, 605312, Tempo, 434782
1, 611056, Tempo, 454545
1, 614880, Time_signature, 2, 2, 24, 8
1, 615840, Time_signature, 4, 2, 24, 8
1, 615856, Tempo, 447761
1, 629280, Tempo, 500000
1, 629480, Tempo, 512820
1, 629680, Tempo, 521739
1, 629880, Tempo, 530973
1, 630080, Tempo, 540540
1, 630280, Tempo, 550458
1, 630480, Tempo, 560747
1, 630680, Tempo, 571428
1, 630960, Tempo, 645161
1, 631200, Tempo, 491803
1, 634096, Tempo, 526315
1, 636016, Tempo, 566037
1, 636216, Tempo, 576923
1, 636416, Tempo, 588235
1, 636616, Tempo, 600000
1, 636816, Tempo, 612244
1, 636960, Tempo, 582524
1, 637160, Tempo, 588235
1, 637360, Tempo, 612244
1, 637560, Tempo, 645161
1, 637760, Tempo, 674157
1, 637960, Tempo, 714285
1, 638160, Tempo, 750000
1, 638360, Tempo, 800000
1, 638560, Tempo, 845070
1, 638656, Tempo, 869565
1, 638880, Tempo, 441176
1, 646560, Tempo, 454545
1, 650400, Tempo, 468750
1, 650800, Tempo, 472440
1, 651000, Tempo, 480000
1, 651200, Tempo, 491803
1, 651400, Tempo, 508474
1, 651600, Tempo, 530973
1, 651800, Tempo, 555555
1, 652000, Tempo, 594059
1, 652208, Tempo, 645161
1, 652208, End_track
2, 0, Start_track
2, 0, Sequencer_specific, 04, 43, 00, 01, 00
2, 0, Program_c, 0, 68
2, 0, Control_c, 0, 7, 77
2, 0, Control_c, 0, 10, 72
2, 0, Control_c, 0, 91, 80
2, 19200, Note_on_c, 0, 74, 71
2, 19200, Note_on_c, 0, 80, 71
2, 22944, Note_on_c, 0, 80, 0
2, 22944, Note_on_c, 0, 74, 0
2, 23040, Note_on_c, 0, 73, 62
2, 23040, Note_on_c, 0, 81, 62
2, 24192, Note_on_c, 0, 81, 0
2, 24192, Note_on_c, 0, 73, 0
2, 32640, Note_on_c, 0, 69, 90
2, 33024, Note_on_c, 0, 69, 0
2, 33120, Note_on_c, 0, 69, 90
2, 33354, Note_on_c, 0, 69, 0
2, 33480, Note_on_c, 0, 69, 90
2, 33558, Note_on_c, 0, 69, 0
2, 33600, Note_on_c, 0, 69, 90
2, 33984, Note_on_c, 0, 69, 0
2, 34560, Note_on_c, 0, 73, 90
2, 34560, Note_on_c, 0, 76, 90
2, 34944, Note_on_c, 0, 76, 0
2, 34944, Note_on_c, 0, 73, 0
2, 35040, Note_on_c, 0, 76, 90
2, 35040, Note_on_c, 0, 73, 90
2, 35274, Note_on_c, 0, 73, 0
2, 35274, Note_on_c, 0, 76, 0
2, 35400, Note_on_c, 0, 73, 90
2, 35400, Note_on_c, 0, 76, 90
2, 35478, Note_on_c, 0, 76, 0
2, 35478, Note_on_c, 0, 73, 0
2, 35520, Note_on_c, 0, 73, 90
2, 35520, Note_on_c, 0, 76, 90
2, 35904, Note_on_c, 0, 76, 0
2, 35904, Note_on_c, 0, 73, 0
2, 36480, Note_on_c, 0, 74, 90
2, 36480, Note_on_c, 0, 76, 90
2, 36864, Note_on_c, 0, 76, 0
2, 36864, Note_on_c, 0, 74, 0
2, 36960, Note_on_c, 0, 76, 90
2, 36960, Note_on_c, 0, 74, 90
2, 37194, Note_on_c, 0, 74, 0
2, 37194, Note_on_c, 0, 76, 0
2, 37320, Note_on_c, 0, 74, 90
2, 37320, Note_on_c, 0, 76, 90
2, 37398, Note_on_c, 0, 76, 0
2, 37398, Note_on_c, 0, 74, 0
2, 37440, Note_on_c, 0, 74, 90
2, 37440, Note_on_c, 0, 76, 90
2, 37824, Note_on_c, 0, 76, 0
2, 37824, Note_on_c, 0, 74, 0
2, 40320, Note_on_c, 0, 69, 90
2, 40704, Note_on_c, 0, 69, 0
2, 40800, Note_on_c, 0, 69, 90
2, 41034, Note_on_c, 0, 69, 0
2, 41160, Note_on_c, 0, 69, 90
2, 41238, Note_on_c, 0, 69, 0
2, 41280, Note_on_c, 0, 69, 90
2, 41664, Note_on_c, 0, 69, 0
2, 42240, Note_on_c, 0, 73, 90
2, 42240, Note_on_c, 0, 76, 90
2, 42624, Note_on_c, 0, 76, 0
2, 42624, Note_on_c, 0, 73, 0
2, 42720, Note_on_c, 0, 76, 90
2, 42720, Note_on_c, 0, 73, 90
2, 42954, Note_on_c, 0, 73, 0
2, 42954, Note_on_c, 0, 76, 0
2, 43080, Note_on_c, 0, 76, 90
2, 43080, Note_on_c, 0, 73, 90
2, 43158, Note_on_c, 0, 73, 0
2, 43158, Note_on_c, 0, 76, 0
2, 43200, Note_on_c, 0, 76, 90
2, 43200, Note_on_c, 0, 73, 90
2, 43584, Note_on_c, 0, 73, 0
2, 43584, Note_on_c, 0, 76, 0
2, 44160, Note_on_c, 0, 74, 90
2, 44160, Note_on_c, 0, 76, 90
2, 44544, Note_on_c, 0, 76, 0
2, 44544, Note_on_c, 0, 74, 0
2, 44640, Note_on_c, 0, 76, 90
2, 44640, Note_on_c, 0, 74, 90
2, 44874, Note_on_c, 0, 74, 0
2, 44874, Note_on_c, 0, 76, 0
2, 45000, Note_on_c, 0, 74, 90
2, 45000, Note_on_c, 0, 76, 90
2, 45078, Note_on_c, 0, 76, 0
2, 45078, Note_on_c, 0, 74, 0
2, 45120, Note_on_c, 0, 74, 90
2, 45120, Note_on_c, 0, 76, 90
2, 45504, Note_on_c, 0, 76, 0
2, 45504, Note_on_c, 0, 74, 0
2, 48000, Note_on_c, 0, 73, 90
2, 48000, Note_on_c, 0, 81, 90
2, 51744, Note_on_c, 0, 81, 0
2, 51744, Note_on_c, 0, 73, 0
2, 58080, Note_on_c, 0, 81, 90
2, 58200, Note_on_c, 0, 81, 0
2, 58200, Note_on_c, 0, 80, 90
2, 58296, Note_on_c, 0, 80, 0
2, 58320, Note_on_c, 0, 78, 90
2, 58416, Note_on_c, 0, 78, 0
2, 58440, Note_on_c, 0, 76, 90
2, 58536, Note_on_c, 0, 76, 0
2, 58560, Note_on_c, 0, 81, 90
2, 58944, Note_on_c, 0, 81, 0
2, 59040, Note_on_c, 0, 74, 90
2, 59160, Note_on_c, 0, 74, 0
2, 59160, Note_on_c, 0, 73, 90
2, 59256, Note_on_c, 0, 73, 0
2, 59280, Note_on_c, 0, 71, 90
2, 59376, Note_on_c, 0, 71, 0
2, 59400, Note_on_c, 0, 69, 90
2, 59496, Note_on_c, 0, 69, 0
2, 59520, Note_on_c, 0, 76, 90
2, 60288, Note_on_c, 0, 76, 0
2, 60480, Note_on_c, 0, 80, 90
2, 60864, Note_on_c, 0, 80, 0
2, 60960, Note_on_c, 0, 83, 90
2, 61344, Note_on_c, 0, 83, 0
2, 61440, Note_on_c, 0, 76, 90
2, 61824, Note_on_c, 0, 76, 0
2, 78720, Note_on_c, 0, 69, 62
2, 80640, Note_on_c, 0, 71, 62
2, 81580, Note_on_c, 0, 69, 0
2, 81600, Note_on_c, 0, 67, 62
2, 82540, Note_on_c, 0, 67, 0
2, 82560, Note_on_c, 0, 73, 62
2, 83500, Note_on_c, 0, 71, 0
2, 83520, Note_on_c, 0, 69, 62
2, 84460, Note_on_c, 0, 69, 0
2, 84480, Note_on_c, 0, 74, 62
2, 85420, Note_on_c, 0, 73, 0
2, 85440, Note_on_c, 0, 71, 62
2, 86380, Note_on_c, 0, 71, 0
2, 86400, Note_on_c, 0, 76, 62
2, 87340, Note_on_c, 0, 74, 0
2, 87360, Note_on_c, 0, 73, 62
2, 88300, Note_on_c, 0, 73, 0
2, 88320, Note_on_c, 0, 78, 71
2, 89260, Note_on_c, 0, 76, 0
2, 89280, Note_on_c, 0, 74, 71
2, 90220, Note_on_c, 0, 74, 0
2, 90220, Note_on_c, 0, 78, 0
2, 90240, Note_on_c, 0, 86, 80
2, 90240, Note_on_c, 0, 80, 80
2, 92122, Note_on_c, 0, 80, 0
2, 92122, Note_on_c, 0, 86, 0
2, 92160, Note_on_c, 0, 81, 90
2, 92160, Note_on_c, 0, 85, 90
2, 92544, Note_on_c, 0, 85, 0
2, 92544, Note_on_c, 0, 81, 0
2, 92640, Note_on_c, 0, 81, 90
2, 92640, Note_on_c, 0, 76, 90
2, 93024, Note_on_c, 0, 76, 0
2, 93024, Note_on_c, 0, 81, 0
2, 93120, Note_on_c, 0, 78, 90
2, 93120, Note_on_c, 0, 74, 90
2, 93504, Note_on_c, 0, 74, 0
2, 93504, Note_on_c, 0, 78, 0
2, 93600, Note_on_c, 0, 74, 90
2, 93600, Note_on_c, 0, 69, 90
2, 93984, Note_on_c, 0, 69, 0
2, 93984, Note_on_c, 0, 74, 0
2, 94080, Note_on_c, 0, 69, 90
2, 94080, Note_on_c, 0, 73, 90
2, 94464, Note_on_c, 0, 73, 0
2, 94464, Note_on_c, 0, 69, 0
2, 94560, Note_on_c, 0, 69, 90
2, 94560, Note_on_c, 0, 73, 90
2, 94848, Note_on_c, 0, 73, 0
2, 94848, Note_on_c, 0, 69, 0
2, 94920, Note_on_c, 0, 73, 90
2, 94920, Note_on_c, 0, 69, 90
2, 95016, Note_on_c, 0, 69, 0
2, 95016, Note_on_c, 0, 73, 0
2, 95040, Note_on_c, 0, 68, 90
2, 95040, Note_on_c, 0, 71, 90
2, 95424, Note_on_c, 0, 71, 0
2, 95424, Note_on_c, 0, 68, 0
2, 95520, Note_on_c, 0, 71, 90
2, 95520, Note_on_c, 0, 68, 90
2, 95808, Note_on_c, 0, 68, 0
2, 95808, Note_on_c, 0, 71, 0
2, 95880, Note_on_c, 0, 71, 90
2, 95880, Note_on_c, 0, 68, 90
2, 95976, Note_on_c, 0, 68, 0
2, 95976, Note_on_c, 0, 71, 0
2, 96000, Note_on_c, 0, 69, 90
2, 96384, Note_on_c, 0, 69, 0
2, 112800, Note_on_c, 0, 80, 90
2, 112800, Note_on_c, 0, 74, 90
2, 112956, Note_on_c, 0, 74, 0
2, 112956, Note_on_c, 0, 80, 0
2, 113040, Note_on_c, 0, 80, 90
2, 113040, Note_on_c, 0, 74, 90
2, 113196, Note_on_c, 0, 74, 0
2, 113196, Note_on_c, 0, 80, 0
2, 113280, Note_on_c, 0, 73, 90
2, 113280, Note_on_c, 0, 81, 90
2, 113436, Note_on_c, 0, 81, 0
2, 113436, Note_on_c, 0, 73, 0
2, 113520, Note_on_c, 0, 73, 90
2, 113520, Note_on_c, 0, 81, 90
2, 113676, Note_on_c, 0, 81, 0
2, 113676, Note_on_c, 0, 73, 0
2, 113760, Note_on_c, 0, 74, 90
2, 113760, Note_on_c, 0, 78, 90
2, 113916, Note_on_c, 0, 78, 0
2, 113916, Note_on_c, 0, 74, 0
2, 114000, Note_on_c, 0, 74, 90
2, 114000, Note_on_c, 0, 78, 90
2, 114156, Note_on_c, 0, 78, 0
2, 114156, Note_on_c, 0, 74, 0
2, 114240, Note_on_c, 0, 73, 90
2, 114240, Note_on_c, 0, 76, 90
2, 114396, Note_on_c, 0, 76, 0
2, 114396, Note_on_c, 0, 73, 0
2, 114480, Note_on_c, 0, 76, 90
2, 114480, Note_on_c, 0, 73, 90
2, 114636, Note_on_c, 0, 73, 0
2, 114636, Note_on_c, 0, 76, 0
2, 114720, Note_on_c, 0, 74, 90
2, 114720, Note_on_c, 0, 80, 90
2, 114876, Note_on_c, 0, 80, 0
2, 114876, Note_on_c, 0, 74, 0
2, 114960, Note_on_c, 0, 74, 90
2, 114960, Note_on_c, 0, 80, 90
2, 115116, Note_on_c, 0, 80, 0
2, 115116, Note_on_c, 0, 74, 0
2, 115200, Note_on_c, 0, 81, 90
2, 115200, Note_on_c, 0, 73, 90
2, 115584, Note_on_c, 0, 73, 0
2, 115584, Note_on_c, 0, 81, 0
2, 116640, Note_on_c, 0, 74, 90
2, 116640, Note_on_c, 0, 80, 90
2, 116796, Note_on_c, 0, 80, 0
2, 116796, Note_on_c, 0, 74, 0
2, 116880, Note_on_c, 0, 74, 90
2, 116880, Note_on_c, 0, 80, 90
2, 117036, Note_on_c, 0, 80, 0
2, 117036, Note_on_c, 0, 74, 0
2, 117120, Note_on_c, 0, 73, 90
2, 117120, Note_on_c, 0, 81, 90
2, 117276, Note_on_c, 0, 81, 0
2, 117276, Note_on_c, 0, 73, 0
2, 117360, Note_on_c, 0, 81, 90
2, 117360, Note_on_c, 0, 73, 90
2, 117516, Note_on_c, 0, 73, 0
2, 117516, Note_on_c, 0, 81, 0
2, 117600, Note_on_c, 0, 74, 90
2, 117600, Note_on_c, 0, 78, 90
2, 117756, Note_on_c, 0, 78, 0
2, 117756, Note_on_c, 0, 74, 0
2, 117840, Note_on_c, 0, 74, 90
2, 117840, Note_on_c, 0, 78, 90
2, 117996, Note_on_c, 0, 78, 0
2, 117996, Note_on_c, 0, 74, 0
2, 118080, Note_on_c, 0, 76, 90
2, 118080, Note_on_c, 0, 73, 90
2, 118236, Note_on_c, 0, 73, 0
2, 118236, Note_on_c, 0, 76, 0
2, 118320, Note_on_c, 0, 76, 90
2, 118320, Note_on_c, 0, 73, 90
2, 118476, Note_on_c, 0, 73, 0
2, 118476, Note_on_c, 0, 76, 0
2, 118560, Note_on_c, 0, 80, 90
2, 118560, Note_on_c, 0, 74, 90
2, 118716, Note_on_c, 0, 74, 0
2, 118716, Note_on_c, 0, 80, 0
2, 118800, Note_on_c, 0, 80, 90
2, 118800, Note_on_c, 0, 74, 90
2, 118956, Note_on_c, 0, 74, 0
2, 118956, Note_on_c, 0, 80, 0
2, 119040, Note_on_c, 0, 73, 90
2, 119040, Note_on_c, 0, 81, 90
2, 119424, Note_on_c, 0, 81, 0
2, 119424, Note_on_c, 0, 73, 0
2, 120480, Note_on_c, 0, 76, 90
2, 120600, Note_on_c, 0, 76, 0
2, 120600, Note_on_c, 0, 73, 90
2, 120678, Note_on_c, 0, 73, 0
2, 120720, Note_on_c, 0, 76, 90
2, 120798, Note_on_c, 0, 76, 0
2, 120840, Note_on_c, 0, 73, 90
2, 120918, Note_on_c, 0, 73, 0
2, 120960, Note_on_c, 0, 69, 90
2, 121344, Note_on_c, 0, 69, 0
2, 121440, Note_on_c, 0, 69, 90
2, 121728, Note_on_c, 0, 69, 0
2, 121800, Note_on_c, 0, 69, 90
2, 121896, Note_on_c, 0, 69, 0
2, 121920, Note_on_c, 0, 69, 90
2, 122304, Note_on_c, 0, 69, 0
2, 158880, Note_on_c, 0, 74, 90
2, 158880, Note_on_c, 0, 80, 90
2, 159024, Note_on_c, 0, 80, 0
2, 159024, Note_on_c, 0, 74, 0
2, 159120, Note_on_c, 0, 74, 90
2, 159120, Note_on_c, 0, 80, 90
2, 159264, Note_on_c, 0, 80, 0
2, 159264, Note_on_c, 0, 74, 0
2, 159360, Note_on_c, 0, 73, 90
2, 159360, Note_on_c, 0, 81, 90
2, 159504, Note_on_c, 0, 81, 0
2, 159504, Note_on_c, 0, 73, 0
2, 159600, Note_on_c, 0, 81, 90
2, 159600, Note_on_c, 0, 73, 90
2, 159744, Note_on_c, 0, 73, 0
2, 159744, Note_on_c, 0, 81, 0
2, 159840, Note_on_c, 0, 74, 90
2, 159840, Note_on_c, 0, 78, 90
2, 159984, Note_on_c, 0, 78, 0
2, 159984, Note_on_c, 0, 74, 0
2, 160080, Note_on_c, 0, 74, 90
2, 160080, Note_on_c, 0, 78, 90
2, 160224, Note_on_c, 0, 78, 0
2, 160224, Note_on_c, 0, 74, 0
2, 160320, Note_on_c, 0, 73, 90
2, 160320, Note_on_c, 0, 76, 90
2, 160464, Note_on_c, 0, 76, 0
2, 160464, Note_on_c, 0, 73, 0
2, 160560, Note_on_c, 0, 73, 90
2, 160560, Note_on_c, 0, 76, 90
2, 160704, Note_on_c, 0, 76, 0
2, 160704, Note_on_c, 0, 73, 0
2, 160800, Note_on_c, 0, 74, 90
2, 160800, Note_on_c, 0, 80, 90
2, 160944, Note_on_c, 0, 80, 0
2, 160944, Note_on_c, 0, 74, 0
2, 161040, Note_on_c, 0, 80, 90
2, 161040, Note_on_c, 0, 74, 90
2, 161184, Note_on_c, 0, 74, 0
2, 161184, Note_on_c, 0, 80, 0
2, 161280, Note_on_c, 0, 81, 90
2, 161280, Note_on_c, 0, 73, 90
2, 161664, Note_on_c, 0, 73, 0
2, 161664, Note_on_c, 0, 81, 0
2, 162720, Note_on_c, 0, 76, 90
2, 162840, Note_on_c, 0, 76, 0
2, 162840, Note_on_c, 0, 73, 90
2, 162936, Note_on_c, 0, 73, 0
2, 162960, Note_on_c, 0, 76, 90
2, 163056, Note_on_c, 0, 76, 0
2, 163080, Note_on_c, 0, 73, 90
2, 163176, Note_on_c, 0, 73, 0
2, 163200, Note_on_c, 0, 69, 90
2, 163584, Note_on_c, 0, 69, 0
2, 163680, Note_on_c, 0, 69, 90
2, 163968, Note_on_c, 0, 69, 0
2, 164040, Note_on_c, 0, 69, 90
2, 164136, Note_on_c, 0, 69, 0
2, 164160, Note_on_c, 0, 69, 90
2, 164544, Note_on_c, 0, 69, 0
2, 279840, Note_on_c, 0, 75, 90
2, 279840, Note_on_c, 0, 78, 90
2, 279984, Note_on_c, 0, 78, 0
2, 279984, Note_on_c, 0, 75, 0
2, 280080, Note_on_c, 0, 81, 90
2, 280080, Note_on_c, 0, 78, 90
2, 280224, Note_on_c, 0, 78, 0
2, 280224, Note_on_c, 0, 81, 0
2, 280320, Note_on_c, 0, 76, 90
2, 280320, Note_on_c, 0, 80, 90
2, 280464, Note_on_c, 0, 80, 0
2, 280464, Note_on_c, 0, 76, 0
2, 280560, Note_on_c, 0, 76, 90
2, 280560, Note_on_c, 0, 80, 90
2, 280704, Note_on_c, 0, 80, 0
2, 280704, Note_on_c, 0, 76, 0
2, 280800, Note_on_c, 0, 81, 90
2, 280800, Note_on_c, 0, 85, 90
2, 280944, Note_on_c, 0, 85, 0
2, 280944, Note_on_c, 0, 81, 0
2, 281040, Note_on_c, 0, 81, 90
2, 281040, Note_on_c, 0, 85, 90
2, 281184, Note_on_c, 0, 85, 0
2, 281184, Note_on_c, 0, 81, 0
2, 281280, Note_on_c, 0, 80, 90
2, 281280, Note_on_c, 0, 83, 90
2, 281424, Note_on_c, 0, 83, 0
2, 281424, Note_on_c, 0, 80, 0
2, 281520, Note_on_c, 0, 80, 90
2, 281520, Note_on_c, 0, 83, 90
2, 281664, Note_on_c, 0, 83, 0
2, 281664, Note_on_c, 0, 80, 0
2, 281760, Note_on_c, 0, 78, 90
2, 281760, Note_on_c, 0, 75, 90
2, 281904, Note_on_c, 0, 75, 0
2, 281904, Note_on_c, 0, 78, 0
2, 282000, Note_on_c, 0, 78, 90
2, 282000, Note_on_c, 0, 75, 90
2, 282144, Note_on_c, 0, 75, 0
2, 282144, Note_on_c, 0, 78, 0
2, 282240, Note_on_c, 0, 76, 90
2, 282624, Note_on_c, 0, 76, 0
2, 283680, Note_on_c, 0, 78, 90
2, 283680, Note_on_c, 0, 75, 90
2, 283824, Note_on_c, 0, 75, 0
2, 283824, Note_on_c, 0, 78, 0
2, 283920, Note_on_c, 0, 78, 90
2, 283920, Note_on_c, 0, 81, 90
2, 284064, Note_on_c, 0, 81, 0
2, 284064, Note_on_c, 0, 78, 0
2, 284160, Note_on_c, 0, 80, 90
2, 284160, Note_on_c, 0, 76, 90
2, 284304, Note_on_c, 0, 76, 0
2, 284304, Note_on_c, 0, 80, 0
2, 284400, Note_on_c, 0, 76, 90
2, 284400, Note_on_c, 0, 80, 90
2, 284544, Note_on_c, 0, 80, 0
2, 284544, Note_on_c, 0, 76, 0
2, 284640, Note_on_c, 0, 85, 90
2, 284640, Note_on_c, 0, 81, 90
2, 284784, Note_on_c, 0, 81, 0
2, 284784, Note_on_c, 0, 85, 0
2, 284880, Note_on_c, 0, 81, 90
2, 284880, Note_on_c, 0, 85, 90
2, 285024, Note_on_c, 0, 85, 0
2, 285024, Note_on_c, 0, 81, 0
2, 285120, Note_on_c, 0, 83, 90
2, 285120, Note_on_c, 0, 80, 90
2, 285264, Note_on_c, 0, 80, 0
2, 285264, Note_on_c, 0, 83, 0
2, 285360, Note_on_c, 0, 80, 90
2, 285360, Note_on_c, 0, 83, 90
2, 285504, Note_on_c, 0, 83, 0
2, 285504, Note_on_c, 0, 80, 0
2, 285600, Note_on_c, 0, 78, 90
2, 285600, Note_on_c, 0, 75, 90
2, 285744, Note_on_c, 0, 75, 0
2, 285744, Note_on_c, 0, 78, 0
2, 285840, Note_on_c, 0, 75, 90
2, 285840, Note_on_c, 0, 78, 90
2, 285984, Note_on_c, 0, 78, 0
2, 285984, Note_on_c, 0, 75, 0
2, 286080, Note_on_c, 0, 76, 90
2, 286464, Note_on_c, 0, 76, 0
2, 288480, Note_on_c, 0, 68, 90
2, 288480, Note_on_c, 0, 76, 90
2, 288714, Note_on_c, 0, 76, 0
2, 288714, Note_on_c, 0, 68, 0
2, 288840, Note_on_c, 0, 68, 90
2, 288840, Note_on_c, 0, 76, 90
2, 288918, Note_on_c, 0, 76, 0
2, 288918, Note_on_c, 0, 68, 0
2, 288960, Note_on_c, 0, 68, 90
2, 288960, Note_on_c, 0, 76, 90
2, 289272, Note_on_c, 0, 76, 0
2, 289272, Note_on_c, 0, 68, 0
2, 289440, Note_on_c, 0, 76, 90
2, 289440, Note_on_c, 0, 68, 90
2, 289752, Note_on_c, 0, 68, 0
2, 289752, Note_on_c, 0, 76, 0
2, 289920, Note_on_c, 0, 76, 90
2, 289920, Note_on_c, 0, 68, 90
2, 290688, Note_on_c, 0, 68, 0
2, 290688, Note_on_c, 0, 76, 0
2, 290880, Note_on_c, 0, 76, 90
2, 290880, Note_on_c, 0, 80, 90
2, 291168, Note_on_c, 0, 80, 0
2, 291168, Note_on_c, 0, 76, 0
2, 291360, Note_on_c, 0, 80, 90
2, 291360, Note_on_c, 0, 83, 90
2, 291648, Note_on_c, 0, 83, 0
2, 291648, Note_on_c, 0, 80, 0
2, 291840, Note_on_c, 0, 76, 90
2, 292224, Note_on_c, 0, 76, 0
2, 316800, Note_on_c, 0, 80, 62
2, 316800, Note_on_c, 0, 83, 62
2, 317760, Note_on_c, 0, 83, 0
2, 317760, Note_on_c, 0, 80, 0
2, 317760, Note_on_c, 0, 81, 62
2, 317760, Note_on_c, 0, 85, 62
2, 318700, Note_on_c, 0, 85, 0
2, 318700, Note_on_c, 0, 81, 0
2, 318720, Note_on_c, 0, 80, 62
2, 318720, Note_on_c, 0, 83, 62
2, 319680, Note_on_c, 0, 83, 0
2, 319680, Note_on_c, 0, 80, 0
2, 319680, Note_on_c, 0, 85, 62
2, 319680, Note_on_c, 0, 81, 62
2, 320620, Note_on_c, 0, 81, 0
2, 320620, Note_on_c, 0, 85, 0
2, 320640, Note_on_c, 0, 80, 62
2, 320640, Note_on_c, 0, 83, 62
2, 321120, Note_on_c, 0, 83, 0
2, 321120, Note_on_c, 0, 80, 0
2, 321120, Note_on_c, 0, 78, 62
2, 321120, Note_on_c, 0, 81, 62
2, 321600, Note_on_c, 0, 81, 0
2, 321600, Note_on_c, 0, 78, 0
2, 321600, Note_on_c, 0, 80, 62
2, 321600, Note_on_c, 0, 76, 62
2, 322080, Note_on_c, 0, 76, 0
2, 322080, Note_on_c, 0, 80, 0
2, 322080, Note_on_c, 0, 75, 62
2, 322080, Note_on_c, 0, 78, 62
2, 322560, Note_on_c, 0, 78, 0
2, 322560, Note_on_c, 0, 75, 0
2, 322560, Note_on_c, 0, 76, 62
2, 322944, Note_on_c, 0, 76, 0
2, 382080, Note_on_c, 0, 74, 62
2, 382080, Note_on_c, 0, 80, 62
2, 385882, Note_on_c, 0, 80, 0
2, 385882, Note_on_c, 0, 74, 0
2, 385920, Note_on_c, 0, 73, 62
2, 385920, Note_on_c, 0, 81, 62
2, 387072, Note_on_c, 0, 81, 0
2, 387072, Note_on_c, 0, 73, 0
2, 416160, Note_on_c, 0, 74, 90
2, 416160, Note_on_c, 0, 80, 90
2, 416304, Note_on_c, 0, 80, 0
2, 416304, Note_on_c, 0, 74, 0
2, 416400, Note_on_c, 0, 74, 90
2, 416400, Note_on_c, 0, 80, 90
2, 416544, Note_on_c, 0, 80, 0
2, 416544, Note_on_c, 0, 74, 0
2, 416640, Note_on_c, 0, 73, 90
2, 416640, Note_on_c, 0, 81, 90
2, 416784, Note_on_c, 0, 81, 0
2, 416784, Note_on_c, 0, 73, 0
2, 416880, Note_on_c, 0, 81, 90
2, 416880, Note_on_c, 0, 73, 90
2, 417024, Note_on_c, 0, 73, 0
2, 417024, Note_on_c, 0, 81, 0
2, 417120, Note_on_c, 0, 74, 90
2, 417120, Note_on_c, 0, 78, 90
2, 417264, Note_on_c, 0, 78, 0
2, 417264, Note_on_c, 0, 74, 0
2, 417360, Note_on_c, 0, 74, 90
2, 417360, Note_on_c, 0, 78, 90
2, 417504, Note_on_c, 0, 78, 0
2, 417504, Note_on_c, 0, 74, 0
2, 417600, Note_on_c, 0, 73, 90
2, 417600, Note_on_c, 0, 76, 90
2, 417744, Note_on_c, 0, 76, 0
2, 417744, Note_on_c, 0, 73, 0
2, 417840, Note_on_c, 0, 73, 90
2, 417840, Note_on_c, 0, 76, 90
2, 417984, Note_on_c, 0, 76, 0
2, 417984, Note_on_c, 0, 73, 0
2, 418080, Note_on_c, 0, 74, 90
2, 418080, Note_on_c, 0, 80, 90
2, 418224, Note_on_c, 0, 80, 0
2, 418224, Note_on_c, 0, 74, 0
2, 418320, Note_on_c, 0, 80, 90
2, 418320, Note_on_c, 0, 74, 90
2, 418464, Note_on_c, 0, 74, 0
2, 418464, Note_on_c, 0, 80, 0
2, 418560, Note_on_c, 0, 81, 90
2, 418560, Note_on_c, 0, 73, 90
2, 418944, Note_on_c, 0, 73, 0
2, 418944, Note_on_c, 0, 81, 0
2, 420000, Note_on_c, 0, 76, 90
2, 420120, Note_on_c, 0, 76, 0
2, 420120, Note_on_c, 0, 73, 90
2, 420198, Note_on_c, 0, 73, 0
2, 420240, Note_on_c, 0, 76, 90
2, 420318, Note_on_c, 0, 76, 0
2, 420360, Note_on_c, 0, 73, 90
2, 420438, Note_on_c, 0, 73, 0
2, 420480, Note_on_c, 0, 69, 90
2, 420792, Note_on_c, 0, 69, 0
2, 420960, Note_on_c, 0, 69, 90
2, 421194, Note_on_c, 0, 69, 0
2, 421320, Note_on_c, 0, 69, 90
2, 421398, Note_on_c, 0, 69, 0
2, 421440, Note_on_c, 0, 69, 90
2, 421824, Note_on_c, 0, 69, 0
2, 547200, Note_on_c, 0, 69, 71
2, 549120, Note_on_c, 0, 71, 71
2, 550080, Note_on_c, 0, 69, 0
2, 550080, Note_on_c, 0, 67, 71
2, 551040, Note_on_c, 0, 67, 0
2, 551040, Note_on_c, 0, 73, 71
2, 552000, Note_on_c, 0, 71, 0
2, 552000, Note_on_c, 0, 69, 71
2, 552960, Note_on_c, 0, 69, 0
2, 552960, Note_on_c, 0, 74, 71
2, 553440, Note_on_c, 0, 73, 0
2, 553440, Note_on_c, 0, 71, 71
2, 553920, Note_on_c, 0, 71, 0
2, 553920, Note_on_c, 0, 76, 71
2, 554400, Note_on_c, 0, 74, 0
2, 554400, Note_on_c, 0, 73, 80
2, 554880, Note_on_c, 0, 73, 0
2, 554880, Note_on_c, 0, 78, 90
2, 555360, Note_on_c, 0, 76, 0
2, 555360, Note_on_c, 0, 74, 90
2, 555840, Note_on_c, 0, 74, 0
2, 555840, Note_on_c, 0, 78, 0
2, 555840, Note_on_c, 0, 80, 90
2, 555840, Note_on_c, 0, 86, 90
2, 556800, Note_on_c, 0, 86, 0
2, 556800, Note_on_c, 0, 80, 0
2, 556800, Note_on_c, 0, 81, 90
2, 556800, Note_on_c, 0, 85, 90
2, 557184, Note_on_c, 0, 85, 0
2, 557184, Note_on_c, 0, 81, 0
2, 557280, Note_on_c, 0, 76, 90
2, 557280, Note_on_c, 0, 81, 90
2, 557664, Note_on_c, 0, 81, 0
2, 557664, Note_on_c, 0, 76, 0
2, 557760, Note_on_c, 0, 74, 90
2, 557760, Note_on_c, 0, 78, 90
2, 558144, Note_on_c, 0, 78, 0
2, 558144, Note_on_c, 0, 74, 0
2, 558240, Note_on_c, 0, 74, 90
2, 558240, Note_on_c, 0, 71, 90
2, 558624, Note_on_c, 0, 71, 0
2, 558624, Note_on_c, 0, 74, 0
2, 558720, Note_on_c, 0, 69, 90
2, 558720, Note_on_c, 0, 73, 90
2, 558912, Note_on_c, 0, 73, 0
2, 558912, Note_on_c, 0, 69, 0
2, 558960, Note_on_c, 0, 73, 90
2, 558960, Note_on_c, 0, 81, 90
2, 559344, Note_on_c, 0, 81, 0
2, 559344, Note_on_c, 0, 73, 0
2, 559440, Note_on_c, 0, 81, 90
2, 559440, Note_on_c, 0, 73, 90
2, 559824, Note_on_c, 0, 73, 0
2, 559824, Note_on_c, 0, 81, 0
2, 559920, Note_on_c, 0, 81, 90
2, 559920, Note_on_c, 0, 85, 90
2, 560304, Note_on_c, 0, 85, 0
2, 560304, Note_on_c, 0, 81, 0
2, 560400, Note_on_c, 0, 85, 90
2, 560400, Note_on_c, 0, 81, 90
2, 560592, Note_on_c, 0, 81, 0
2, 560592, Note_on_c, 0, 85, 0
2, 560640, Note_on_c, 0, 81, 90
2, 560640, Note_on_c, 0, 85, 90
2, 561792, Note_on_c, 0, 85, 0
2, 561792, Note_on_c, 0, 81, 0
2, 638880, Note_on_c, 0, 69, 90
2, 639264, Note_on_c, 0, 69, 0
2, 640320, Note_on_c, 0, 74, 90
2, 640320, Note_on_c, 0, 80, 90
2, 640464, Note_on_c, 0, 80, 0
2, 640464, Note_on_c, 0, 74, 0
2, 640560, Note_on_c, 0, 74, 90
2, 640560, Note_on_c, 0, 80, 90
2, 640704, Note_on_c, 0, 80, 0
2, 640704, Note_on_c, 0, 74, 0
2, 640800, Note_on_c, 0, 73, 90
2, 640800, Note_on_c, 0, 81, 90
2, 640944, Note_on_c, 0, 81, 0
2, 640944, Note_on_c, 0, 73, 0
2, 641040, Note_on_c, 0, 73, 90
2, 641040, Note_on_c, 0, 81, 90
2, 641184, Note_on_c, 0, 81, 0
2, 641184, Note_on_c, 0, 73, 0
2, 641280, Note_on_c, 0, 78, 90
2, 641280, Note_on_c, 0, 74, 90
2, 641424, Note_on_c, 0, 74, 0
2, 641424, Note_on_c, 0, 78, 0
2, 641520, Note_on_c, 0, 78, 90
2, 641520, Note_on_c, 0, 74, 90
2, 641664, Note_on_c, 0, 74, 0
2, 641664, Note_on_c, 0, 78, 0
2, 641760, Note_on_c, 0, 73, 90
2, 641760, Note_on_c, 0, 76, 90
2, 641904, Note_on_c, 0, 76, 0
2, 641904, Note_on_c, 0, 73, 0
2, 642000, Note_on_c, 0, 73, 90
2, 642000, Note_on_c, 0, 76, 90
2, 642144, Note_on_c, 0, 76, 0
2, 642144, Note_on_c, 0, 73, 0
2, 642240, Note_on_c, 0, 74, 90
2, 642240, Note_on_c, 0, 80, 90
2, 642384, Note_on_c, 0, 80, 0
2, 642384, Note_on_c, 0, 74, 0
2, 642480, Note_on_c, 0, 80, 90
2, 642480, Note_on_c, 0, 74, 90
2, 642624, Note_on_c, 0, 74, 0
2, 642624, Note_on_c, 0, 80, 0
2, 642720, Note_on_c, 0, 81, 90
2, 642720, Note_on_c, 0, 73, 90
2, 643104, Note_on_c, 0, 73, 0
2, 643104, Note_on_c, 0, 81, 0
2, 644160, Note_on_c, 0, 74, 90
2, 644160, Note_on_c, 0, 80, 90
2, 644304, Note_on_c, 0, 80, 0
2, 644304, Note_on_c, 0, 74, 0
2, 644400, Note_on_c, 0, 80, 90
2, 644400, Note_on_c, 0, 74, 90
2, 644544, Note_on_c, 0, 74, 0
2, 644544, Note_on_c, 0, 80, 0
2, 644640, Note_on_c, 0, 81, 90
2, 644640, Note_on_c, 0, 73, 90
2, 644784, Note_on_c, 0, 73, 0
2, 644784, Note_on_c, 0, 81, 0
2, 644880, Note_on_c, 0, 73, 90
2, 644880, Note_on_c, 0, 81, 90
2, 645024, Note_on_c, 0, 81, 0
2, 645024, Note_on_c, 0, 73, 0
2, 645120, Note_on_c, 0, 78, 90
2, 645120, Note_on_c, 0, 74, 90
2, 645264, Note_on_c, 0, 74, 0
2, 645264, Note_on_c, 0, 78, 0
2, 645360, Note_on_c, 0, 78, 90
2, 645360, Note_on_c, 0, 74, 90
2, 645504, Note_on_c, 0, 74, 0
2, 645504, Note_on_c, 0, 78, 0
2, 645600, Note_on_c, 0, 76, 90
2, 645600, Note_on_c, 0, 73, 90
2, 645744, Note_on_c, 0, 73, 0
2, 645744, Note_on_c, 0, 76, 0
2, 645840, Note_on_c, 0, 76, 90
2, 645840, Note_on_c, 0, 73, 90
2, 645984, Note_on_c, 0, 73, 0
2, 645984, Note_on_c, 0, 76, 0
2, 646080, Note_on_c, 0, 74, 90
2, 646080, Note_on_c, 0, 80, 90
2, 646224, Note_on_c, 0, 80, 0
2, 646224, Note_on_c, 0, 74, 0
2, 646320, Note_on_c, 0, 80, 90
2, 646320, Note_on_c, 0, 74, 90
2, 646464, Note_on_c, 0, 74, 0
2, 646464, Note_on_c, 0, 80, 0
2, 646560, Note_on_c, 0, 81, 90
2, 646560, Note_on_c, 0, 73, 90
2, 646944, Note_on_c, 0, 73, 0
2, 646944, Note_on_c, 0, 81, 0
2, 648000, Note_on_c, 0, 85, 90
2, 648120, Note_on_c, 0, 85, 0
2, 648120, Note_on_c, 0, 81, 90
2, 648198, Note_on_c, 0, 81, 0
2, 648240, Note_on_c, 0, 85, 90
2, 648318, Note_on_c, 0, 85, 0
2, 648360, Note_on_c, 0, 81, 90
2, 648438, Note_on_c, 0, 81, 0
2, 648480, Note_on_c, 0, 76, 90
2, 648864, Note_on_c, 0, 76, 0
2, 648960, Note_on_c, 0, 81, 90
2, 649080, Note_on_c, 0, 81, 0
2, 649080, Note_on_c, 0, 76, 90
2, 649158, Note_on_c, 0, 76, 0
2, 649200, Note_on_c, 0, 81, 90
2, 649278, Note_on_c, 0, 81, 0
2, 649320, Note_on_c, 0, 76, 90
2, 649398, Note_on_c, 0, 76, 0
2, 649440, Note_on_c, 0, 73, 90
2, 649824, Note_on_c, 0, 73, 0
2, 649920, Note_on_c, 0, 76, 90
2, 650040, Note_on_c, 0, 76, 0
2, 650040, Note_on_c, 0, 73, 90
2, 650118, Note_on_c, 0, 73, 0
2, 650160, Note_on_c, 0, 76, 90
2, 650238, Note_on_c, 0, 76, 0
2, 650280, Note_on_c, 0, 73, 90
2, 650358, Note_on_c, 0, 73, 0
2, 650400, Note_on_c, 0, 69, 90
2, 651084, Note_on_c, 0, 69, 0
2, 651120, Note_on_c, 0, 73, 90
2, 651198, Note_on_c, 0, 73, 0
2, 651240, Note_on_c, 0, 76, 90
2, 651318, Note_on_c, 0, 76, 0
2, 651360, Note_on_c, 0, 81, 90
2, 651672, Note_on_c, 0, 81, 0
2, 651840, Note_on_c, 0, 85, 90
2, 651840, Note_on_c, 0, 76, 90
2, 652152, Note_on_c, 0, 76, 0
2, 652152, Note_on_c, 0, 85, 0
2, 652320, Note_on_c, 0, 73, 90
2, 652320, Note_on_c, 0, 81, 90
2, 652704, Note_on_c, 0, 81, 0
2, 652704, Note_on_c, 0, 73, 0
2, 652704, End_track
3, 0, Start_track
3, 0, Sequencer_specific, 04, 43, 00, 01, 00
3, 0, Program_c, 1, 60
3, 0, Control_c, 1, 7, 102
3, 0, Control_c, 1, 10, 36
3, 0, Control_c, 1, 91, 80
3, 19200, Note_on_c, 1, 71, 71
3, 19200, Note_on_c, 1, 64, 71
3, 22944, Note_on_c, 1, 64, 0
3, 22944, Note_on_c, 1, 71, 0
3, 23040, Note_on_c, 1, 57, 62
3, 23040, Note_on_c, 1, 69, 62
3, 24192, Note_on_c, 1, 69, 0
3, 24192, Note_on_c, 1, 57, 0
3, 32640, Note_on_c, 1, 57, 90
3, 33024, Note_on_c, 1, 57, 0
3, 33120, Note_on_c, 1, 57, 90
3, 33354, Note_on_c, 1, 57, 0
3, 33480, Note_on_c, 1, 57, 90
3, 33558, Note_on_c, 1, 57, 0
3, 33600, Note_on_c, 1, 57, 90
3, 33984, Note_on_c, 1, 57, 0
3, 34560, Note_on_c, 1, 61, 90
3, 34560, Note_on_c, 1, 69, 90
3, 34944, Note_on_c, 1, 69, 0
3, 34944, Note_on_c, 1, 61, 0
3, 35040, Note_on_c, 1, 69, 90
3, 35040, Note_on_c, 1, 61, 90
3, 35274, Note_on_c, 1, 61, 0
3, 35274, Note_on_c, 1, 69, 0
3, 35400, Note_on_c, 1, 61, 90
3, 35400, Note_on_c, 1, 69, 90
3, 35478, Note_on_c, 1, 69, 0
3, 35478, Note_on_c, 1, 61, 0
3, 35520, Note_on_c, 1, 69, 90
3, 35520, Note_on_c, 1, 61, 90
3, 35904, Note_on_c, 1, 61, 0
3, 35904, Note_on_c, 1, 69, 0
3, 36480, Note_on_c, 1, 64, 90
3, 36480, Note_on_c, 1, 71, 90
3, 36864, Note_on_c, 1, 71, 0
3, 36864, Note_on_c, 1, 64, 0
3, 36960, Note_on_c, 1, 71, 90
3, 36960, Note_on_c, 1, 64, 90
3, 37194, Note_on_c, 1, 64, 0
3, 37194, Note_on_c, 1, 71, 0
3, 37320, Note_on_c, 1, 64, 90
3, 37320, Note_on_c, 1, 71, 90
3, 37398, Note_on_c, 1, 71, 0
3, 37398, Note_on_c, 1, 64, 0
3, 37440, Note_on_c, 1, 71, 90
3, 37440, Note_on_c, 1, 64, 90
3, 37824, Note_on_c, 1, 64, 0
3, 37824, Note_on_c, 1, 71, 0
3, 40320, Note_on_c, 1, 57, 90
3, 40704, Note_on_c, 1, 57, 0
3, 40800, Note_on_c, 1, 57, 90
3, 41034, Note_on_c, 1, 57, 0
3, 41160, Note_on_c, 1, 57, 90
3, 41238, Note_on_c, 1, 57, 0
3, 41280, Note_on_c, 1, 57, 90
3, 41664, Note_on_c, 1, 57, 0
3, 42240, Note_on_c, 1, 69, 90
3, 42240, Note_on_c, 1, 61, 90
3, 42624, Note_on_c, 1, 61, 0
3, 42624, Note_on_c, 1, 69, 0
3, 42720, Note_on_c, 1, 69, 90
3, 42720, Note_on_c, 1, 61, 90
3, 42954, Note_on_c, 1, 61, 0
3, 42954, Note_on_c, 1, 69, 0
3, 43080, Note_on_c, 1, 69, 90
3, 43080, Note_on_c, 1, 61, 90
3, 43158, Note_on_c, 1, 61, 0
3, 43158, Note_on_c, 1, 69, 0
3, 43200, Note_on_c, 1, 61, 90
3, 43200, Note_on_c, 1, 69, 90
3, 43584, Note_on_c, 1, 69, 0
3, 43584, Note_on_c, 1, 61, 0
3, 44160, Note_on_c, 1, 71, 90
3, 44160, Note_on_c, 1, 64, 90
3, 44544, Note_on_c, 1, 64, 0
3, 44544, Note_on_c, 1, 71, 0
3, 44640, Note_on_c, 1, 71, 90
3, 44640, Note_on_c, 1, 64, 90
3, 44874, Note_on_c, 1, 64, 0
3, 44874, Note_on_c, 1, 71, 0
3, 45000, Note_on_c, 1, 71, 90
3, 45000, Note_on_c, 1, 64, 90
3, 45078, Note_on_c, 1, 64, 0
3, 45078, Note_on_c, 1, 71, 0
3, 45120, Note_on_c, 1, 71, 90
3, 45120, Note_on_c, 1, 64, 90
3, 45504, Note_on_c, 1, 64, 0
3, 45504, Note_on_c, 1, 71, 0
3, 48000, Note_on_c, 1, 57, 90
3, 48000, Note_on_c, 1, 69, 90
3, 51744, Note_on_c, 1, 69, 0
3, 51744, Note_on_c, 1, 57, 0
3, 58080, Note_on_c, 1, 64, 90
3, 58368, Note_on_c, 1, 64, 0
3, 58440, Note_on_c, 1, 64, 90
3, 58536, Note_on_c, 1, 64, 0
3, 58560, Note_on_c, 1, 64, 90
3, 58944, Note_on_c, 1, 64, 0
3, 59040, Note_on_c, 1, 64, 90
3, 59424, Note_on_c, 1, 64, 0
3, 59520, Note_on_c, 1, 64, 90
3, 60288, Note_on_c, 1, 64, 0
3, 60480, Note_on_c, 1, 64, 90
3, 60864, Note_on_c, 1, 64, 0
3, 60960, Note_on_c, 1, 64, 90
3, 61344, Note_on_c, 1, 64, 0
3, 61440, Note_on_c, 1, 64, 90
3, 61824, Note_on_c, 1, 64, 0
3, 69120, Note_on_c, 1, 52, 62
3, 69120, Note_on_c, 1, 64, 62
3, 77952, Note_on_c, 1, 64, 0
3, 77952, Note_on_c, 1, 52, 0
3, 78720, Note_on_c, 1, 57, 62
3, 78720, Note_on_c, 1, 69, 62
3, 87936, Note_on_c, 1, 69, 0
3, 87936, Note_on_c, 1, 57, 0
3, 88320, Note_on_c, 1, 57, 71
3, 88320, Note_on_c, 1, 69, 71
3, 92544, Note_on_c, 1, 69, 0
3, 92544, Note_on_c, 1, 57, 0
3, 92640, Note_on_c, 1, 69, 90
3, 92640, Note_on_c, 1, 57, 90
3, 92928, Note_on_c, 1, 57, 0
3, 92928, Note_on_c, 1, 69, 0
3, 93000, Note_on_c, 1, 57, 90
3, 93000, Note_on_c, 1, 69, 90
3, 93096, Note_on_c, 1, 69, 0
3, 93096, Note_on_c, 1, 57, 0
3, 93120, Note_on_c, 1, 57, 90
3, 93120, Note_on_c, 1, 69, 90
3, 93504, Note_on_c, 1, 69, 0
3, 93504, Note_on_c, 1, 57, 0
3, 93600, Note_on_c, 1, 69, 90
3, 93600, Note_on_c, 1, 57, 90
3, 93984, Note_on_c, 1, 57, 0
3, 93984, Note_on_c, 1, 69, 0
3, 94080, Note_on_c, 1, 64, 90
3, 94464, Note_on_c, 1, 64, 0
3, 94560, Note_on_c, 1, 64, 90
3, 94848, Note_on_c, 1, 64, 0
3, 94920, Note_on_c, 1, 64, 90
3, 95016, Note_on_c, 1, 64, 0
3, 95040, Note_on_c, 1, 64, 90
3, 95424, Note_on_c, 1, 64, 0
3, 95520, Note_on_c, 1, 64, 90
3, 95808, Note_on_c, 1, 64, 0
3, 95880, Note_on_c, 1, 64, 90
3, 95976, Note_on_c, 1, 64, 0
3, 96000, Note_on_c, 1, 64, 90
3, 96000, Note_on_c, 1, 61, 90
3, 96384, Note_on_c, 1, 61, 0
3, 96384, Note_on_c, 1, 64, 0
3, 112800, Note_on_c, 1, 64, 90
3, 112800, Note_on_c, 1, 71, 90
3, 112956, Note_on_c, 1, 71, 0
3, 112956, Note_on_c, 1, 64, 0
3, 113040, Note_on_c, 1, 71, 90
3, 113040, Note_on_c, 1, 64, 90
3, 113196, Note_on_c, 1, 64, 0
3, 113196, Note_on_c, 1, 71, 0
3, 113280, Note_on_c, 1, 57, 90
3, 113280, Note_on_c, 1, 69, 90
3, 113436, Note_on_c, 1, 69, 0
3, 113436, Note_on_c, 1, 57, 0
3, 113520, Note_on_c, 1, 69, 90
3, 113520, Note_on_c, 1, 57, 90
3, 113676, Note_on_c, 1, 57, 0
3, 113676, Note_on_c, 1, 69, 0
3, 113760, Note_on_c, 1, 57, 90
3, 113760, Note_on_c, 1, 69, 90
3, 113916, Note_on_c, 1, 69, 0
3, 113916, Note_on_c, 1, 57, 0
3, 114000, Note_on_c, 1, 69, 90
3, 114000, Note_on_c, 1, 57, 90
3, 114156, Note_on_c, 1, 57, 0
3, 114156, Note_on_c, 1, 69, 0
3, 114240, Note_on_c, 1, 57, 90
3, 114240, Note_on_c, 1, 69, 90
3, 114396, Note_on_c, 1, 69, 0
3, 114396, Note_on_c, 1, 57, 0
3, 114480, Note_on_c, 1, 69, 90
3, 114480, Note_on_c, 1, 57, 90
3, 114636, Note_on_c, 1, 57, 0
3, 114636, Note_on_c, 1, 69, 0
3, 114720, Note_on_c, 1, 64, 90
3, 114720, Note_on_c, 1, 71, 90
3, 114876, Note_on_c, 1, 71, 0
3, 114876, Note_on_c, 1, 64, 0
3, 114960, Note_on_c, 1, 64, 90
3, 114960, Note_on_c, 1, 71, 90
3, 115116, Note_on_c, 1, 71, 0
3, 115116, Note_on_c, 1, 64, 0
3, 115200, Note_on_c, 1, 64, 90
3, 115200, Note_on_c, 1, 69, 90
3, 115584, Note_on_c, 1, 69, 0
3, 115584, Note_on_c, 1, 64, 0
3, 116640, Note_on_c, 1, 71, 90
3, 116640, Note_on_c, 1, 64, 90
3, 116796, Note_on_c, 1, 64, 0
3, 116796, Note_on_c, 1, 71, 0
3, 116880, Note_on_c, 1, 64, 90
3, 116880, Note_on_c, 1, 71, 90
3, 117036, Note_on_c, 1, 71, 0
3, 117036, Note_on_c, 1, 64, 0
3, 117120, Note_on_c, 1, 57, 90
3, 117120, Note_on_c, 1, 69, 90
3, 117276, Note_on_c, 1, 69, 0
3, 117276, Note_on_c, 1, 57, 0
3, 117360, Note_on_c, 1, 57, 90
3, 117360, Note_on_c, 1, 69, 90
3, 117516, Note_on_c, 1, 69, 0
3, 117516, Note_on_c, 1, 57, 0
3, 117600, Note_on_c, 1, 57, 90
3, 117600, Note_on_c, 1, 69, 90
3, 117756, Note_on_c, 1, 69, 0
3, 117756, Note_on_c, 1, 57, 0
3, 117840, Note_on_c, 1, 57, 90
3, 117840, Note_on_c, 1, 69, 90
3, 117996, Note_on_c, 1, 69, 0
3, 117996, Note_on_c, 1, 57, 0
3, 118080, Note_on_c, 1, 57, 90
3, 118080, Note_on_c, 1, 69, 90
3, 118236, Note_on_c, 1, 69, 0
3, 118236, Note_on_c, 1, 57, 0
3, 118320, Note_on_c, 1, 69, 90
3, 118320, Note_on_c, 1, 57, 90
3, 118476, Note_on_c, 1, 57, 0
3, 118476, Note_on_c, 1, 69, 0
3, 118560, Note_on_c, 1, 64, 90
3, 118560, Note_on_c, 1, 71, 90
3, 118716, Note_on_c, 1, 71, 0
3, 118716, Note_on_c, 1, 64, 0
3, 118800, Note_on_c, 1, 64, 90
3, 118800, Note_on_c, 1, 71, 90
3, 118956, Note_on_c, 1, 71, 0
3, 118956, Note_on_c, 1, 64, 0
3, 119040, Note_on_c, 1, 64, 90
3, 119040, Note_on_c, 1, 69, 90
3, 119424, Note_on_c, 1, 69, 0
3, 119424, Note_on_c, 1, 64, 0
3, 120480, Note_on_c, 1, 64, 90
3, 120768, Note_on_c, 1, 64, 0
3, 120840, Note_on_c, 1, 61, 90
3, 120936, Note_on_c, 1, 61, 0
3, 120960, Note_on_c, 1, 57, 90
3, 121344, Note_on_c, 1, 57, 0
3, 121440, Note_on_c, 1, 57, 90
3, 121728, Note_on_c, 1, 57, 0
3, 121800, Note_on_c, 1, 57, 90
3, 121896, Note_on_c, 1, 57, 0
3, 121920, Note_on_c, 1, 57, 90
3, 122304, Note_on_c, 1, 57, 0
3, 158880, Note_on_c, 1, 71, 90
3, 158880, Note_on_c, 1, 64, 90
3, 159024, Note_on_c, 1, 64, 0
3, 159024, Note_on_c, 1, 71, 0
3, 159120, Note_on_c, 1, 64, 90
3, 159120, Note_on_c, 1, 71, 90
3, 159264, Note_on_c, 1, 71, 0
3, 159264, Note_on_c, 1, 64, 0
3, 159360, Note_on_c, 1, 69, 90
3, 159360, Note_on_c, 1, 57, 90
3, 159504, Note_on_c, 1, 57, 0
3, 159504, Note_on_c, 1, 69, 0
3, 159600, Note_on_c, 1, 69, 90
3, 159600, Note_on_c, 1, 57, 90
3, 159744, Note_on_c, 1, 57, 0
3, 159744, Note_on_c, 1, 69, 0
3, 159840, Note_on_c, 1, 69, 90
3, 159840, Note_on_c, 1, 57, 90
3, 159984, Note_on_c, 1, 57, 0
3, 159984, Note_on_c, 1, 69, 0
3, 160080, Note_on_c, 1, 69, 90
3, 160080, Note_on_c, 1, 57, 90
3, 160224, Note_on_c, 1, 57, 0
3, 160224, Note_on_c, 1, 69, 0
3, 160320, Note_on_c, 1, 69, 90
3, 160320, Note_on_c, 1, 57, 90
3, 160464, Note_on_c, 1, 57, 0
3, 160464, Note_on_c, 1, 69, 0
3, 160560, Note_on_c, 1, 57, 90
3, 160560, Note_on_c, 1, 69, 90
3, 160704, Note_on_c, 1, 69, 0
3, 160704, Note_on_c, 1, 57, 0
3, 160800, Note_on_c, 1, 71, 90
3, 160800, Note_on_c, 1, 64, 90
3, 160944, Note_on_c, 1, 64, 0
3, 160944, Note_on_c, 1, 71, 0
3, 161040, Note_on_c, 1, 71, 90
3, 161040, Note_on_c, 1, 64, 90
3, 161184, Note_on_c, 1, 64, 0
3, 161184, Note_on_c, 1, 71, 0
3, 161280, Note_on_c, 1, 69, 90
3, 161280, Note_on_c, 1, 64, 90
3, 161664, Note_on_c, 1, 64, 0
3, 161664, Note_on_c, 1, 69, 0
3, 162720, Note_on_c, 1, 64, 90
3, 163008, Note_on_c, 1, 64, 0
3, 163080, Note_on_c, 1, 61, 90
3, 163176, Note_on_c, 1, 61, 0
3, 163200, Note_on_c, 1, 57, 90
3, 163584, Note_on_c, 1, 57, 0
3, 163680, Note_on_c, 1, 57, 90
3, 163968, Note_on_c, 1, 57, 0
3, 164040, Note_on_c, 1, 57, 90
3, 164136, Note_on_c, 1, 57, 0
3, 164160, Note_on_c, 1, 57, 90
3, 164544, Note_on_c, 1, 57, 0
3, 279840, Note_on_c, 1, 71, 90
3, 279984, Note_on_c, 1, 71, 0
3, 280080, Note_on_c, 1, 71, 90
3, 280224, Note_on_c, 1, 71, 0
3, 280320, Note_on_c, 1, 64, 90
3, 280464, Note_on_c, 1, 64, 0
3, 280560, Note_on_c, 1, 64, 90
3, 280704, Note_on_c, 1, 64, 0
3, 280800, Note_on_c, 1, 73, 90
3, 280800, Note_on_c, 1, 69, 90
3, 280944, Note_on_c, 1, 69, 0
3, 280944, Note_on_c, 1, 73, 0
3, 281040, Note_on_c, 1, 73, 90
3, 281040, Note_on_c, 1, 69, 90
3, 281184, Note_on_c, 1, 69, 0
3, 281184, Note_on_c, 1, 73, 0
3, 281280, Note_on_c, 1, 71, 90
3, 281424, Note_on_c, 1, 71, 0
3, 281520, Note_on_c, 1, 71, 90
3, 281664, Note_on_c, 1, 71, 0
3, 281760, Note_on_c, 1, 71, 90
3, 281904, Note_on_c, 1, 71, 0
3, 282000, Note_on_c, 1, 71, 90
3, 282144, Note_on_c, 1, 71, 0
3, 282240, Note_on_c, 1, 64, 90
3, 282240, Note_on_c, 1, 71, 90
3, 282624, Note_on_c, 1, 71, 0
3, 282624, Note_on_c, 1, 64, 0
3, 283680, Note_on_c, 1, 71, 90
3, 283824, Note_on_c, 1, 71, 0
3, 283920, Note_on_c, 1, 71, 90
3, 284064, Note_on_c, 1, 71, 0
3, 284160, Note_on_c, 1, 64, 90
3, 284304, Note_on_c, 1, 64, 0
3, 284400, Note_on_c, 1, 64, 90
3, 284544, Note_on_c, 1, 64, 0
3, 284640, Note_on_c, 1, 69, 90
3, 284640, Note_on_c, 1, 73, 90
3, 284784, Note_on_c, 1, 73, 0
3, 284784, Note_on_c, 1, 69, 0
3, 284880, Note_on_c, 1, 69, 90
3, 284880, Note_on_c, 1, 73, 90
3, 285024, Note_on_c, 1, 73, 0
3, 285024, Note_on_c, 1, 69, 0
3, 285120, Note_on_c, 1, 71, 90
3, 285264, Note_on_c, 1, 71, 0
3, 285360, Note_on_c, 1, 71, 90
3, 285504, Note_on_c, 1, 71, 0
3, 285600, Note_on_c, 1, 71, 90
3, 285744, Note_on_c, 1, 71, 0
3, 285840, Note_on_c, 1, 71, 90
3, 285984, Note_on_c, 1, 71, 0
3, 286080, Note_on_c, 1, 64, 90
3, 286080, Note_on_c, 1, 71, 90
3, 286464, Note_on_c, 1, 71, 0
3, 286464, Note_on_c, 1, 64, 0
3, 288480, Note_on_c, 1, 64, 90
3, 288480, Note_on_c, 1, 71, 90
3, 288714, Note_on_c, 1, 71, 0
3, 288714, Note_on_c, 1, 64, 0
3, 288840, Note_on_c, 1, 71, 90
3, 288840, Note_on_c, 1, 64, 90
3, 288918, Note_on_c, 1, 64, 0
3, 288918, Note_on_c, 1, 71, 0
3, 288960, Note_on_c, 1, 64, 90
3, 288960, Note_on_c, 1, 71, 90
3, 289272, Note_on_c, 1, 71, 0
3, 289272, Note_on_c, 1, 64, 0
3, 289440, Note_on_c, 1, 71, 90
3, 289440, Note_on_c, 1, 64, 90
3, 289752, Note_on_c, 1, 64, 0
3, 289752, Note_on_c, 1, 71, 0
3, 289920, Note_on_c, 1, 71, 90
3, 289920, Note_on_c, 1, 64, 90
3, 290688, Note_on_c, 1, 64, 0
3, 290688, Note_on_c, 1, 71, 0
3, 290880, Note_on_c, 1, 71, 90
3, 290880, Note_on_c, 1, 64, 90
3, 291168, Note_on_c, 1, 64, 0
3, 291168, Note_on_c, 1, 71, 0
3, 291360, Note_on_c, 1, 71, 90
3, 291360, Note_on_c, 1, 64, 90
3, 291648, Note_on_c, 1, 64, 0
3, 291648, Note_on_c, 1, 71, 0
3, 291840, Note_on_c, 1, 71, 90
3, 291840, Note_on_c, 1, 64, 90
3, 292224, Note_on_c, 1, 64, 0
3, 292224, Note_on_c, 1, 71, 0
3, 316800, Note_on_c, 1, 52, 62
3, 316800, Note_on_c, 1, 64, 62
3, 320602, Note_on_c, 1, 64, 0
3, 320602, Note_on_c, 1, 52, 0
3, 382080, Note_on_c, 1, 64, 62
3, 382080, Note_on_c, 1, 71, 62
3, 385882, Note_on_c, 1, 71, 0
3, 385882, Note_on_c, 1, 64, 0
3, 385920, Note_on_c, 1, 57, 62
3, 385920, Note_on_c, 1, 69, 62
3, 387072, Note_on_c, 1, 69, 0
3, 387072, Note_on_c, 1, 57, 0
3, 416160, Note_on_c, 1, 64, 90
3, 416160, Note_on_c, 1, 71, 90
3, 416304, Note_on_c, 1, 71, 0
3, 416304, Note_on_c, 1, 64, 0
3, 416400, Note_on_c, 1, 71, 90
3, 416400, Note_on_c, 1, 64, 90
3, 416544, Note_on_c, 1, 64, 0
3, 416544, Note_on_c, 1, 71, 0
3, 416640, Note_on_c, 1, 69, 90
3, 416640, Note_on_c, 1, 57, 90
3, 416784, Note_on_c, 1, 57, 0
3, 416784, Note_on_c, 1, 69, 0
3, 416880, Note_on_c, 1, 69, 90
3, 416880, Note_on_c, 1, 57, 90
3, 417024, Note_on_c, 1, 57, 0
3, 417024, Note_on_c, 1, 69, 0
3, 417120, Note_on_c, 1, 69, 90
3, 417120, Note_on_c, 1, 57, 90
3, 417264, Note_on_c, 1, 57, 0
3, 417264, Note_on_c, 1, 69, 0
3, 417360, Note_on_c, 1, 69, 90
3, 417360, Note_on_c, 1, 57, 90
3, 417504, Note_on_c, 1, 57, 0
3, 417504, Note_on_c, 1, 69, 0
3, 417600, Note_on_c, 1, 69, 90
3, 417600, Note_on_c, 1, 57, 90
3, 417744, Note_on_c, 1, 57, 0
3, 417744, Note_on_c, 1, 69, 0
3, 417840, Note_on_c, 1, 57, 90
3, 417840, Note_on_c, 1, 69, 90
3, 417984, Note_on_c, 1, 69, 0
3, 417984, Note_on_c, 1, 57, 0
3, 418080, Note_on_c, 1, 71, 90
3, 418080, Note_on_c, 1, 64, 90
3, 418224, Note_on_c, 1, 64, 0
3, 418224, Note_on_c, 1, 71, 0
3, 418320, Note_on_c, 1, 71, 90
3, 418320, Note_on_c, 1, 64, 90
3, 418464, Note_on_c, 1, 64, 0
3, 418464, Note_on_c, 1, 71, 0
3, 418560, Note_on_c, 1, 69, 90
3, 418560, Note_on_c, 1, 64, 90
3, 418944, Note_on_c, 1, 64, 0
3, 418944, Note_on_c, 1, 69, 0
3, 420000, Note_on_c, 1, 64, 90
3, 420234, Note_on_c, 1, 64, 0
3, 420360, Note_on_c, 1, 61, 90
3, 420438, Note_on_c, 1, 61, 0
3, 420480, Note_on_c, 1, 57, 90
3, 420792, Note_on_c, 1, 57, 0
3, 420960, Note_on_c, 1, 57, 90
3, 421194, Note_on_c, 1, 57, 0
3, 421320, Note_on_c, 1, 57, 90
3, 421398, Note_on_c, 1, 57, 0
3, 421440, Note_on_c, 1, 57, 90
3, 421824, Note_on_c, 1, 57, 0
3, 547200, Note_on_c, 1, 57, 71
3, 547200, Note_on_c, 1, 69, 71
3, 557112, Note_on_c, 1, 69, 0
3, 557112, Note_on_c, 1, 57, 0
3, 557280, Note_on_c, 1, 57, 90
3, 557280, Note_on_c, 1, 69, 90
3, 557514, Note_on_c, 1, 69, 0
3, 557514, Note_on_c, 1, 57, 0
3, 557640, Note_on_c, 1, 57, 90
3, 557640, Note_on_c, 1, 69, 90
3, 557718, Note_on_c, 1, 69, 0
3, 557718, Note_on_c, 1, 57, 0
3, 557760, Note_on_c, 1, 69, 90
3, 557760, Note_on_c, 1, 57, 90
3, 558072, Note_on_c, 1, 57, 0
3, 558072, Note_on_c, 1, 69, 0
3, 558240, Note_on_c, 1, 71, 90
3, 558240, Note_on_c, 1, 64, 90
3, 558552, Note_on_c, 1, 64, 0
3, 558552, Note_on_c, 1, 71, 0
3, 558720, Note_on_c, 1, 69, 90
3, 558720, Note_on_c, 1, 73, 90
3, 558876, Note_on_c, 1, 73, 0
3, 558876, Note_on_c, 1, 69, 0
3, 558960, Note_on_c, 1, 69, 90
3, 558960, Note_on_c, 1, 61, 90
3, 559272, Note_on_c, 1, 61, 0
3, 559272, Note_on_c, 1, 69, 0
3, 559440, Note_on_c, 1, 61, 90
3, 559440, Note_on_c, 1, 69, 90
3, 559752, Note_on_c, 1, 69, 0
3, 559752, Note_on_c, 1, 61, 0
3, 559920, Note_on_c, 1, 69, 90
3, 559920, Note_on_c, 1, 57, 90
3, 560076, Note_on_c, 1, 57, 0
3, 560076, Note_on_c, 1, 69, 0
3, 560160, Note_on_c, 1, 73, 90
3, 560160, Note_on_c, 1, 61, 90
3, 560316, Note_on_c, 1, 61, 0
3, 560316, Note_on_c, 1, 73, 0
3, 560400, Note_on_c, 1, 57, 90
3, 560400, Note_on_c, 1, 69, 90
3, 560556, Note_on_c, 1, 69, 0
3, 560556, Note_on_c, 1, 57, 0
3, 560640, Note_on_c, 1, 52, 90
3, 560640, Note_on_c, 1, 64, 90
3, 561792, Note_on_c, 1, 64, 0
3, 561792, Note_on_c, 1, 52, 0
3, 638880, Note_on_c, 1, 57, 90
3, 638880, Note_on_c, 1, 69, 90
3, 639264, Note_on_c, 1, 69, 0
3, 639264, Note_on_c, 1, 57, 0
3, 640320, Note_on_c, 1, 71, 90
3, 640320, Note_on_c, 1, 64, 90
3, 640464, Note_on_c, 1, 64, 0
3, 640464, Note_on_c, 1, 71, 0
3, 640560, Note_on_c, 1, 64, 90
3, 640560, Note_on_c, 1, 71, 90
3, 640704, Note_on_c, 1, 71, 0
3, 640704, Note_on_c, 1, 64, 0
3, 640800, Note_on_c, 1, 57, 90
3, 640800, Note_on_c, 1, 69, 90
3, 640944, Note_on_c, 1, 69, 0
3, 640944, Note_on_c, 1, 57, 0
3, 641040, Note_on_c, 1, 69, 90
3, 641040, Note_on_c, 1, 57, 90
3, 641184, Note_on_c, 1, 57, 0
3, 641184, Note_on_c, 1, 69, 0
3, 641280, Note_on_c, 1, 69, 90
3, 641280, Note_on_c, 1, 57, 90
3, 641424, Note_on_c, 1, 57, 0
3, 641424, Note_on_c, 1, 69, 0
3, 641520, Note_on_c, 1, 69, 90
3, 641520, Note_on_c, 1, 57, 90
3, 641664, Note_on_c, 1, 57, 0
3, 641664, Note_on_c, 1, 69, 0
3, 641760, Note_on_c, 1, 69, 90
3, 641760, Note_on_c, 1, 57, 90
3, 641904, Note_on_c, 1, 57, 0
3, 641904, Note_on_c, 1, 69, 0
3, 642000, Note_on_c, 1, 57, 90
3, 642000, Note_on_c, 1, 69, 90
3, 642144, Note_on_c, 1, 69, 0
3, 642144, Note_on_c, 1, 57, 0
3, 642240, Note_on_c, 1, 64, 90
3, 642240, Note_on_c, 1, 71, 90
3, 642384, Note_on_c, 1, 71, 0
3, 642384, Note_on_c, 1, 64, 0
3, 642480, Note_on_c, 1, 64, 90
3, 642480, Note_on_c, 1, 71, 90
3, 642624, Note_on_c, 1, 71, 0
3, 642624, Note_on_c, 1, 64, 0
3, 642720, Note_on_c, 1, 69, 90
3, 642720, Note_on_c, 1, 64, 90
3, 643104, Note_on_c, 1, 64, 0
3, 643104, Note_on_c, 1, 69, 0
3, 644160, Note_on_c, 1, 71, 90
3, 644160, Note_on_c, 1, 64, 90
3, 644304, Note_on_c, 1, 64, 0
3, 644304, Note_on_c, 1, 71, 0
3, 644400, Note_on_c, 1, 64, 90
3, 644400, Note_on_c, 1, 71, 90
3, 644544, Note_on_c, 1, 71, 0
3, 644544, Note_on_c, 1, 64, 0
3, 644640, Note_on_c, 1, 69, 90
3, 644640, Note_on_c, 1, 57, 90
3, 644784, Note_on_c, 1, 57, 0
3, 644784, Note_on_c, 1, 69, 0
3, 644880, Note_on_c, 1, 57, 90
3, 644880, Note_on_c, 1, 69, 90
3, 645024, Note_on_c, 1, 69, 0
3, 645024, Note_on_c, 1, 57, 0
3, 645120, Note_on_c, 1, 69, 90
3, 645120, Note_on_c, 1, 57, 90
3, 645264, Note_on_c, 1, 57, 0
3, 645264, Note_on_c, 1, 69, 0
3, 645360, Note_on_c, 1, 69, 90
3, 645360, Note_on_c, 1, 57, 90
3, 645504, Note_on_c, 1, 57, 0
3, 645504, Note_on_c, 1, 69, 0
3, 645600, Note_on_c, 1, 57, 90
3, 645600, Note_on_c, 1, 69, 90
3, 645744, Note_on_c, 1, 69, 0
3, 645744, Note_on_c, 1, 57, 0
3, 645840, Note_on_c, 1, 57, 90
3, 645840, Note_on_c, 1, 69, 90
3, 645984, Note_on_c, 1, 69, 0
3, 645984, Note_on_c, 1, 57, 0
3, 646080, Note_on_c, 1, 64, 90
3, 646080, Note_on_c, 1, 71, 90
3, 646224, Note_on_c, 1, 71, 0
3, 646224, Note_on_c, 1, 64, 0
3, 646320, Note_on_c, 1, 64, 90
3, 646320, Note_on_c, 1, 71, 90
3, 646464, Note_on_c, 1, 71, 0
3, 646464, Note_on_c, 1, 64, 0
3, 646560, Note_on_c, 1, 69, 90
3, 646560, Note_on_c, 1, 64, 90
3, 646944, Note_on_c, 1, 64, 0
3, 646944, Note_on_c, 1, 69, 0
3, 648000, Note_on_c, 1, 73, 90
3, 648288, Note_on_c, 1, 73, 0
3, 648360, Note_on_c, 1, 69, 90
3, 648456, Note_on_c, 1, 69, 0
3, 648480, Note_on_c, 1, 64, 90
3, 648864, Note_on_c, 1, 64, 0
3, 648960, Note_on_c, 1, 69, 90
3, 649248, Note_on_c, 1, 69, 0
3, 649320, Note_on_c, 1, 64, 90
3, 649416, Note_on_c, 1, 64, 0
3, 649440, Note_on_c, 1, 61, 90
3, 649824, Note_on_c, 1, 61, 0
3, 649920, Note_on_c, 1, 64, 90
3, 650208, Note_on_c, 1, 64, 0
3, 650280, Note_on_c, 1, 61, 90
3, 650376, Note_on_c, 1, 61, 0
3, 650400, Note_on_c, 1, 57, 90
3, 651084, Note_on_c, 1, 57, 0
3, 651120, Note_on_c, 1, 61, 90
3, 651198, Note_on_c, 1, 61, 0
3, 651240, Note_on_c, 1, 64, 90
3, 651318, Note_on_c, 1, 64, 0
3, 651360, Note_on_c, 1, 69, 90
3, 651672, Note_on_c, 1, 69, 0
3, 651840, Note_on_c, 1, 69, 90
3, 651840, Note_on_c, 1, 57, 90
3, 652152, Note_on_c, 1, 57, 0
3, 652152, Note_on_c, 1, 69, 0
3, 652320, Note_on_c, 1, 57, 90
3, 652320, Note_on_c, 1, 69, 90
3, 652704, Note_on_c, 1, 69, 0
3, 652704, Note_on_c, 1, 57, 0
3, 652704, End_track
4, 0, Start_track
4, 0, Sequencer_specific, 04, 43, 00, 01, 00
4, 0, Program_c, 2, 0
4, 0, Control_c, 2, 7, 126
4, 0, Control_c, 2, 91, 100
4, 122880, Note_on_c, 2, 69, 90
4, 123192, Note_on_c, 2, 69, 0
4, 123360, Note_on_c, 2, 69, 90
4, 123840, Note_on_c, 2, 69, 0
4, 123840, Note_on_c, 2, 73, 90
4, 124320, Note_on_c, 2, 73, 0
4, 124320, Note_on_c, 2, 76, 90
4, 124800, Note_on_c, 2, 76, 0
4, 124800, Note_on_c, 2, 76, 90
4, 124920, Note_on_c, 2, 76, 0
4, 124920, Note_on_c, 2, 74, 90
4, 125208, Note_on_c, 2, 74, 0
4, 125280, Note_on_c, 2, 73, 90
4, 125400, Note_on_c, 2, 73, 0
4, 125400, Note_on_c, 2, 71, 90
4, 125688, Note_on_c, 2, 71, 0
4, 125760, Note_on_c, 2, 69, 90
4, 125880, Note_on_c, 2, 69, 0
4, 125880, Note_on_c, 2, 68, 90
4, 126168, Note_on_c, 2, 68, 0
4, 126240, Note_on_c, 2, 66, 90
4, 126360, Note_on_c, 2, 66, 0
4, 126360, Note_on_c, 2, 64, 90
4, 126648, Note_on_c, 2, 64, 0
4, 126720, Note_on_c, 2, 71, 90
4, 127104, Note_on_c, 2, 71, 0
4, 127200, Note_on_c, 2, 71, 90
4, 127680, Note_on_c, 2, 71, 0
4, 127680, Note_on_c, 2, 74, 90
4, 128160, Note_on_c, 2, 74, 0
4, 128160, Note_on_c, 2, 78, 90
4, 128640, Note_on_c, 2, 78, 0
4, 128640, Note_on_c, 2, 76, 90
4, 129360, Note_on_c, 2, 76, 0
4, 129360, Note_on_c, 2, 73, 90
4, 129600, Note_on_c, 2, 73, 0
4, 129600, Note_on_c, 2, 76, 80
4, 129984, Note_on_c, 2, 76, 0
4, 130560, Note_on_c, 2, 69, 90
4, 130872, Note_on_c, 2, 69, 0
4, 131040, Note_on_c, 2, 81, 90
4, 131040, Note_on_c, 2, 69, 90
4, 131808, Note_on_c, 2, 69, 0
4, 131808, Note_on_c, 2, 81, 0
4, 132000, Note_on_c, 2, 68, 90
4, 132000, Note_on_c, 2, 80, 90
4, 132864, Note_on_c, 2, 80, 0
4, 132864, Note_on_c, 2, 68, 0
4, 132960, Note_on_c, 2, 66, 90
4, 132960, Note_on_c, 2, 78, 90
4, 133728, Note_on_c, 2, 78, 0
4, 133728, Note_on_c, 2, 66, 0
4, 133920, Note_on_c, 2, 76, 90
4, 133920, Note_on_c, 2, 64, 90
4, 134592, Note_on_c, 2, 64, 0
4, 134592, Note_on_c, 2, 76, 0
4, 134640, Note_on_c, 2, 63, 90
4, 134640, Note_on_c, 2, 75, 90
4, 135024, Note_on_c, 2, 75, 0
4, 135024, Note_on_c, 2, 63, 0
4, 135120, Note_on_c, 2, 62, 90
4, 135120, Note_on_c, 2, 74, 90
4, 135504, Note_on_c, 2, 74, 0
4, 135504, Note_on_c, 2, 62, 0
4, 135600, Note_on_c, 2, 73, 90
4, 135840, Note_on_c, 2, 73, 0
4, 135840, Note_on_c, 2, 74, 90
4, 136080, Note_on_c, 2, 74, 0
4, 136080, Note_on_c, 2, 75, 90
4, 136320, Note_on_c, 2, 75, 0
4, 136320, Note_on_c, 2, 78, 90
4, 136560, Note_on_c, 2, 78, 0
4, 136560, Note_on_c, 2, 76, 90
4, 136704, Note_on_c, 2, 76, 0
4, 136800, Note_on_c, 2, 74, 90
4, 136944, Note_on_c, 2, 74, 0
4, 137040, Note_on_c, 2, 73, 90
4, 137184, Note_on_c, 2, 73, 0
4, 137280, Note_on_c, 2, 71, 80
4, 137664, Note_on_c, 2, 71, 0
4, 138240, Note_on_c, 2, 69, 90
4, 138624, Note_on_c, 2, 69, 0
4, 138720, Note_on_c, 2, 71, 90
4, 138780, Note_on_c, 2, 71, 0
4, 138780, Note_on_c, 2, 69, 90
4, 138840, Note_on_c, 2, 69, 0
4, 138840, Note_on_c, 2, 71, 90
4, 138900, Note_on_c, 2, 71, 0
4, 138900, Note_on_c, 2, 69, 90
4, 138960, Note_on_c, 2, 69, 0
4, 138960, Note_on_c, 2, 71, 90
4, 139020, Note_on_c, 2, 71, 0
4, 139020, Note_on_c, 2, 69, 90
4, 139080, Note_on_c, 2, 69, 0
4, 139080, Note_on_c, 2, 71, 90
4, 139140, Note_on_c, 2, 71, 0
4, 139140, Note_on_c, 2, 69, 90
4, 139200, Note_on_c, 2, 69, 0
4, 139200, Note_on_c, 2, 73, 90
4, 139680, Note_on_c, 2, 73, 0
4, 139680, Note_on_c, 2, 76, 90
4, 140064, Note_on_c, 2, 76, 0
4, 140160, Note_on_c, 2, 76, 90
4, 140280, Note_on_c, 2, 76, 0
4, 140280, Note_on_c, 2, 74, 90
4, 140568, Note_on_c, 2, 74, 0
4, 140640, Note_on_c, 2, 73, 90
4, 140760, Note_on_c, 2, 73, 0
4, 140760, Note_on_c, 2, 71, 90
4, 141048, Note_on_c, 2, 71, 0
4, 141120, Note_on_c, 2, 69, 90
4, 141240, Note_on_c, 2, 69, 0
4, 141240, Note_on_c, 2, 68, 90
4, 141528, Note_on_c, 2, 68, 0
4, 141600, Note_on_c, 2, 66, 90
4, 141720, Note_on_c, 2, 66, 0
4, 141720, Note_on_c, 2, 64, 90
4, 142008, Note_on_c, 2, 64, 0
4, 142080, Note_on_c, 2, 71, 90
4, 142464, Note_on_c, 2, 71, 0
4, 142560, Note_on_c, 2, 73, 90
4, 142620, Note_on_c, 2, 73, 0
4, 142620, Note_on_c, 2, 71, 90
4, 142680, Note_on_c, 2, 71, 0
4, 142680, Note_on_c, 2, 73, 90
4, 142740, Note_on_c, 2, 73, 0
4, 142740, Note_on_c, 2, 71, 90
4, 142800, Note_on_c, 2, 71, 0
4, 142800, Note_on_c, 2, 73, 90
4, 142860, Note_on_c, 2, 73, 0
4, 142860, Note_on_c, 2, 71, 90
4, 142920, Note_on_c, 2, 71, 0
4, 142920, Note_on_c, 2, 73, 90
4, 142980, Note_on_c, 2, 73, 0
4, 142980, Note_on_c, 2, 71, 90
4, 143040, Note_on_c, 2, 71, 0
4, 143040, Note_on_c, 2, 74, 90
4, 143520, Note_on_c, 2, 74, 0
4, 143520, Note_on_c, 2, 78, 90
4, 144000, Note_on_c, 2, 78, 0
4, 144000, Note_on_c, 2, 76, 90
4, 144720, Note_on_c, 2, 76, 0
4, 144720, Note_on_c, 2, 73, 90
4, 144960, Note_on_c, 2, 73, 0
4, 144960, Note_on_c, 2, 76, 90
4, 145344, Note_on_c, 2, 76, 0
4, 145920, Note_on_c, 2, 69, 127
4, 146112, Note_on_c, 2, 69, 0
4, 146160, Note_on_c, 2, 71, 123
4, 146256, Note_on_c, 2, 71, 0
4, 146280, Note_on_c, 2, 73, 122
4, 146376, Note_on_c, 2, 73, 0
4, 146400, Note_on_c, 2, 74, 120
4, 146496, Note_on_c, 2, 74, 0
4, 146520, Note_on_c, 2, 76, 119
4, 146616, Note_on_c, 2, 76, 0
4, 146640, Note_on_c, 2, 78, 117
4, 146736, Note_on_c, 2, 78, 0
4, 146760, Note_on_c, 2, 80, 115
4, 146856, Note_on_c, 2, 80, 0
4, 146880, Note_on_c, 2, 81, 114
4, 147000, Note_on_c, 2, 81, 0
4, 147000, Note_on_c, 2, 83, 112
4, 147120, Note_on_c, 2, 83, 0
4, 147120, Note_on_c, 2, 85, 111
4, 147240, Note_on_c, 2, 85, 0
4, 147240, Note_on_c, 2, 83, 109
4, 147360, Note_on_c, 2, 83, 0
4, 147360, Note_on_c, 2, 81, 107
4, 147504, Note_on_c, 2, 81, 0
4, 147600, Note_on_c, 2, 80, 105
4, 147744, Note_on_c, 2, 80, 0
4, 147840, Note_on_c, 2, 80, 105
4, 148080, Note_on_c, 2, 80, 0
4, 148080, Note_on_c, 2, 78, 105
4, 148272, Note_on_c, 2, 78, 0
4, 148320, Note_on_c, 2, 78, 105
4, 149424, Note_on_c, 2, 78, 0
4, 149520, Note_on_c, 2, 76, 105
4, 149664, Note_on_c, 2, 76, 0
4, 149760, Note_on_c, 2, 76, 105
4, 150000, Note_on_c, 2, 76, 0
4, 150000, Note_on_c, 2, 74, 105
4, 150192, Note_on_c, 2, 74, 0
4, 150240, Note_on_c, 2, 74, 105
4, 151344, Note_on_c, 2, 74, 0
4, 151440, Note_on_c, 2, 73, 105
4, 151584, Note_on_c, 2, 73, 0
4, 151680, Note_on_c, 2, 73, 105
4, 151920, Note_on_c, 2, 73, 0
4, 151920, Note_on_c, 2, 71, 105
4, 152064, Note_on_c, 2, 71, 0
4, 152160, Note_on_c, 2, 74, 105
4, 152304, Note_on_c, 2, 74, 0
4, 152400, Note_on_c, 2, 71, 105
4, 152544, Note_on_c, 2, 71, 0
4, 152640, Note_on_c, 2, 73, 105
4, 152700, Note_on_c, 2, 73, 0
4, 152700, Note_on_c, 2, 71, 105
4, 152760, Note_on_c, 2, 71, 0
4, 152760, Note_on_c, 2, 73, 105
4, 152820, Note_on_c, 2, 73, 0
4, 152820, Note_on_c, 2, 71, 105
4, 152880, Note_on_c, 2, 71, 0
4, 152880, Note_on_c, 2, 69, 105
4, 153072, Note_on_c, 2, 69, 0
4, 153120, Note_on_c, 2, 71, 105
4, 153180, Note_on_c, 2, 71, 0
4, 153180, Note_on_c, 2, 69, 105
4, 153240, Note_on_c, 2, 69, 0
4, 153240, Note_on_c, 2, 71, 105
4, 153300, Note_on_c, 2, 71, 0
4, 153300, Note_on_c, 2, 69, 105
4, 153360, Note_on_c, 2, 69, 0
4, 153360, Note_on_c, 2, 68, 105
4, 153552, Note_on_c, 2, 68, 0
4, 153600, Note_on_c, 2, 69, 117
4, 153696, Note_on_c, 2, 69, 0
4, 153720, Note_on_c, 2, 64, 117
4, 153816, Note_on_c, 2, 64, 0
4, 153840, Note_on_c, 2, 66, 117
4, 153936, Note_on_c, 2, 66, 0
4, 153960, Note_on_c, 2, 68, 117
4, 154056, Note_on_c, 2, 68, 0
4, 154080, Note_on_c, 2, 69, 117
4, 154176, Note_on_c, 2, 69, 0
4, 154200, Note_on_c, 2, 71, 117
4, 154296, Note_on_c, 2, 71, 0
4, 154320, Note_on_c, 2, 73, 117
4, 154416, Note_on_c, 2, 73, 0
4, 154440, Note_on_c, 2, 74, 117
4, 154536, Note_on_c, 2, 74, 0
4, 154560, Note_on_c, 2, 76, 117
4, 154656, Note_on_c, 2, 76, 0
4, 154680, Note_on_c, 2, 78, 117
4, 154776, Note_on_c, 2, 78, 0
4, 154800, Note_on_c, 2, 80, 117
4, 154896, Note_on_c, 2, 80, 0
4, 154920, Note_on_c, 2, 81, 117
4, 155016, Note_on_c, 2, 81, 0
4, 155040, Note_on_c, 2, 80, 117
4, 155136, Note_on_c, 2, 80, 0
4, 155160, Note_on_c, 2, 78, 117
4, 155256, Note_on_c, 2, 78, 0
4, 155280, Note_on_c, 2, 76, 117
4, 155376, Note_on_c, 2, 76, 0
4, 155400, Note_on_c, 2, 74, 117
4, 155496, Note_on_c, 2, 74, 0
4, 155520, Note_on_c, 2, 73, 105
4, 155664, Note_on_c, 2, 73, 0
4, 155760, Note_on_c, 2, 73, 105
4, 155904, Note_on_c, 2, 73, 0
4, 156000, Note_on_c, 2, 78, 105
4, 156144, Note_on_c, 2, 78, 0
4, 156240, Note_on_c, 2, 78, 105
4, 156384, Note_on_c, 2, 78, 0
4, 156480, Note_on_c, 2, 76, 105
4, 156624, Note_on_c, 2, 76, 0
4, 156720, Note_on_c, 2, 76, 105
4, 156864, Note_on_c, 2, 76, 0
4, 156960, Note_on_c, 2, 68, 105
4, 157104, Note_on_c, 2, 68, 0
4, 157200, Note_on_c, 2, 68, 105
4, 157344, Note_on_c, 2, 68, 0
4, 157440, Note_on_c, 2, 69, 105
4, 157824, Note_on_c, 2, 69, 0
4, 164640, Note_on_c, 2, 76, 105
4, 164760, Note_on_c, 2, 76, 0
4, 164760, Note_on_c, 2, 73, 105
4, 164880, Note_on_c, 2, 73, 0
4, 164880, Note_on_c, 2, 76, 105
4, 165000, Note_on_c, 2, 76, 0
4, 165000, Note_on_c, 2, 73, 105
4, 165120, Note_on_c, 2, 73, 0
4, 165120, Note_on_c, 2, 81, 105
4, 165504, Note_on_c, 2, 81, 0
4, 165600, Note_on_c, 2, 76, 105
4, 165720, Note_on_c, 2, 76, 0
4, 165720, Note_on_c, 2, 73, 105
4, 165840, Note_on_c, 2, 73, 0
4, 165840, Note_on_c, 2, 76, 105
4, 165960, Note_on_c, 2, 76, 0
4, 165960, Note_on_c, 2, 73, 105
4, 166080, Note_on_c, 2, 73, 0
4, 166080, Note_on_c, 2, 69, 105
4, 166464, Note_on_c, 2, 69, 0
4, 166560, Note_on_c, 2, 81, 105
4, 166944, Note_on_c, 2, 81, 0
4, 167040, Note_on_c, 2, 82, 125
4, 168000, Note_on_c, 2, 82, 0
4, 168000, Note_on_c, 2, 83, 80
4, 168384, Note_on_c, 2, 83, 0
4, 168480, Note_on_c, 2, 71, 105
4, 168600, Note_on_c, 2, 71, 0
4, 168600, Note_on_c, 2, 68, 105
4, 168720, Note_on_c, 2, 68, 0
4, 168720, Note_on_c, 2, 71, 105
4, 168840, Note_on_c, 2, 71, 0
4, 168840, Note_on_c, 2, 68, 105
4, 168960, Note_on_c, 2, 68, 0
4, 168960, Note_on_c, 2, 74, 105
4, 169344, Note_on_c, 2, 74, 0
4, 169440, Note_on_c, 2, 71, 105
4, 169536, Note_on_c, 2, 71, 0
4, 169560, Note_on_c, 2, 68, 105
4, 169656, Note_on_c, 2, 68, 0
4, 169680, Note_on_c, 2, 71, 105
4, 169776, Note_on_c, 2, 71, 0
4, 169800, Note_on_c, 2, 68, 105
4, 169896, Note_on_c, 2, 68, 0
4, 169920, Note_on_c, 2, 64, 105
4, 170304, Note_on_c, 2, 64, 0
4, 170400, Note_on_c, 2, 83, 105
4, 170784, Note_on_c, 2, 83, 0
4, 170880, Note_on_c, 2, 84, 125
4, 171840, Note_on_c, 2, 84, 0
4, 171840, Note_on_c, 2, 85, 80
4, 172224, Note_on_c, 2, 85, 0
4, 172320, Note_on_c, 2, 76, 90
4, 172416, Note_on_c, 2, 76, 0
4, 172440, Note_on_c, 2, 73, 90
4, 172536, Note_on_c, 2, 73, 0
4, 172560, Note_on_c, 2, 76, 90
4, 172656, Note_on_c, 2, 76, 0
4, 172680, Note_on_c, 2, 73, 90
4, 172776, Note_on_c, 2, 73, 0
4, 172800, Note_on_c, 2, 81, 90
4, 173184, Note_on_c, 2, 81, 0
4, 173280, Note_on_c, 2, 81, 90
4, 173400, Note_on_c, 2, 81, 0
4, 173400, Note_on_c, 2, 78, 90
4, 173520, Note_on_c, 2, 78, 0
4, 173520, Note_on_c, 2, 81, 90
4, 173640, Note_on_c, 2, 81, 0
4, 173640, Note_on_c, 2, 78, 90
4, 173760, Note_on_c, 2, 78, 0
4, 173760, Note_on_c, 2, 85, 90
4, 174144, Note_on_c, 2, 85, 0
4, 174240, Note_on_c, 2, 83, 90
4, 174360, Note_on_c, 2, 83, 0
4, 174360, Note_on_c, 2, 81, 90
4, 174480, Note_on_c, 2, 81, 0
4, 174480, Note_on_c, 2, 80, 90
4, 174600, Note_on_c, 2, 80, 0
4, 174600, Note_on_c, 2, 78, 90
4, 174720, Note_on_c, 2, 78, 0
4, 174720, Note_on_c, 2, 76, 110
4, 175680, Note_on_c, 2, 76, 0
4, 175680, Note_on_c, 2, 75, 90
4, 176064, Note_on_c, 2, 75, 0
4, 176400, Note_on_c, 2, 83, 90
4, 176592, Note_on_c, 2, 83, 0
4, 176640, Note_on_c, 2, 88, 90
4, 177120, Note_on_c, 2, 88, 0
4, 177120, Note_on_c, 2, 87, 90
4, 177600, Note_on_c, 2, 87, 0
4, 177600, Note_on_c, 2, 85, 90
4, 178080, Note_on_c, 2, 85, 0
4, 178080, Note_on_c, 2, 83, 90
4, 178464, Note_on_c, 2, 83, 0
4, 178560, Note_on_c, 2, 83, 90
4, 179280, Note_on_c, 2, 83, 0
4, 179280, Note_on_c, 2, 82, 90
4, 179520, Note_on_c, 2, 82, 0
4, 179520, Note_on_c, 2, 81, 90
4, 179904, Note_on_c, 2, 81, 0
4, 180480, Note_on_c, 2, 80, 90
4, 180720, Note_on_c, 2, 80, 0
4, 180720, Note_on_c, 2, 81, 90
4, 180800, Note_on_c, 2, 81, 0
4, 180800, Note_on_c, 2, 80, 90
4, 180880, Note_on_c, 2, 80, 0
4, 180880, Note_on_c, 2, 78, 90
4, 180960, Note_on_c, 2, 78, 0
4, 180960, Note_on_c, 2, 80, 90
4, 181200, Note_on_c, 2, 80, 0
4, 181200, Note_on_c, 2, 81, 90
4, 181440, Note_on_c, 2, 81, 0
4, 181440, Note_on_c, 2, 83, 90
4, 181584, Note_on_c, 2, 83, 0
4, 181680, Note_on_c, 2, 83, 90
4, 181824, Note_on_c, 2, 83, 0
4, 181920, Note_on_c, 2, 83, 90
4, 182064, Note_on_c, 2, 83, 0
4, 182160, Note_on_c, 2, 83, 90
4, 182304, Note_on_c, 2, 83, 0
4, 182400, Note_on_c, 2, 85, 90
4, 182640, Note_on_c, 2, 85, 0
4, 182640, Note_on_c, 2, 87, 90
4, 182720, Note_on_c, 2, 87, 0
4, 182720, Note_on_c, 2, 85, 90
4, 182800, Note_on_c, 2, 85, 0
4, 182800, Note_on_c, 2, 84, 90
4, 182880, Note_on_c, 2, 84, 0
4, 182880, Note_on_c, 2, 85, 90
4, 183120, Note_on_c, 2, 85, 0
4, 183120, Note_on_c, 2, 87, 90
4, 183312, Note_on_c, 2, 87, 0
4, 183360, Note_on_c, 2, 88, 90
4, 183600, Note_on_c, 2, 88, 0
4, 183600, Note_on_c, 2, 87, 90
4, 183744, Note_on_c, 2, 87, 0
4, 183840, Note_on_c, 2, 85, 90
4, 183984, Note_on_c, 2, 85, 0
4, 184080, Note_on_c, 2, 83, 90
4, 184224, Note_on_c, 2, 83, 0
4, 184320, Note_on_c, 2, 85, 90
4, 184380, Note_on_c, 2, 85, 0
4, 184380, Note_on_c, 2, 83, 90
4, 184440, Note_on_c, 2, 83, 0
4, 184440, Note_on_c, 2, 85, 90
4, 184500, Note_on_c, 2, 85, 0
4, 184500, Note_on_c, 2, 83, 90
4, 184560, Note_on_c, 2, 83, 0
4, 184560, Note_on_c, 2, 81, 90
4, 184716, Note_on_c, 2, 81, 0
4, 184800, Note_on_c, 2, 83, 90
4, 184860, Note_on_c, 2, 83, 0
4, 184860, Note_on_c, 2, 81, 90
4, 184920, Note_on_c, 2, 81, 0
4, 184920, Note_on_c, 2, 83, 90
4, 184980, Note_on_c, 2, 83, 0
4, 184980, Note_on_c, 2, 81, 90
4, 185040, Note_on_c, 2, 81, 0
4, 185040, Note_on_c, 2, 80, 90
4, 185196, Note_on_c, 2, 80, 0
4, 185280, Note_on_c, 2, 81, 90
4, 185340, Note_on_c, 2, 81, 0
4, 185340, Note_on_c, 2, 80, 90
4, 185400, Note_on_c, 2, 80, 0
4, 185400, Note_on_c, 2, 81, 90
4, 185460, Note_on_c, 2, 81, 0
4, 185460, Note_on_c, 2, 80, 90
4, 185520, Note_on_c, 2, 80, 0
4, 185520, Note_on_c, 2, 78, 90
4, 185676, Note_on_c, 2, 78, 0
4, 185760, Note_on_c, 2, 80, 90
4, 185820, Note_on_c, 2, 80, 0
4, 185820, Note_on_c, 2, 78, 90
4, 185880, Note_on_c, 2, 78, 0
4, 185880, Note_on_c, 2, 80, 90
4, 185940, Note_on_c, 2, 80, 0
4, 185940, Note_on_c, 2, 78, 90
4, 186000, Note_on_c, 2, 78, 0
4, 186000, Note_on_c, 2, 76, 90
4, 186156, Note_on_c, 2, 76, 0
4, 186240, Note_on_c, 2, 75, 100
4, 186720, Note_on_c, 2, 75, 0
4, 186720, Note_on_c, 2, 78, 80
4, 187104, Note_on_c, 2, 78, 0
4, 188160, Note_on_c, 2, 81, 90
4, 188280, Note_on_c, 2, 81, 0
4, 188280, Note_on_c, 2, 83, 90
4, 188400, Note_on_c, 2, 83, 0
4, 188400, Note_on_c, 2, 81, 90
4, 188520, Note_on_c, 2, 81, 0
4, 188520, Note_on_c, 2, 80, 90
4, 188640, Note_on_c, 2, 80, 0
4, 188640, Note_on_c, 2, 78, 90
4, 188880, Note_on_c, 2, 78, 0
4, 189120, Note_on_c, 2, 78, 90
4, 189240, Note_on_c, 2, 78, 0
4, 189240, Note_on_c, 2, 80, 90
4, 189360, Note_on_c, 2, 80, 0
4, 189360, Note_on_c, 2, 78, 90
4, 189480, Note_on_c, 2, 78, 0
4, 189480, Note_on_c, 2, 76, 90
4, 189600, Note_on_c, 2, 76, 0
4, 189600, Note_on_c, 2, 75, 90
4, 189840, Note_on_c, 2, 75, 0
4, 190080, Note_on_c, 2, 75, 90
4, 190176, Note_on_c, 2, 75, 0
4, 190200, Note_on_c, 2, 71, 90
4, 190296, Note_on_c, 2, 71, 0
4, 190320, Note_on_c, 2, 76, 90
4, 190416, Note_on_c, 2, 76, 0
4, 190440, Note_on_c, 2, 71, 90
4, 190536, Note_on_c, 2, 71, 0
4, 190560, Note_on_c, 2, 78, 90
4, 190656, Note_on_c, 2, 78, 0
4, 190680, Note_on_c, 2, 71, 90
4, 190776, Note_on_c, 2, 71, 0
4, 190800, Note_on_c, 2, 80, 90
4, 190896, Note_on_c, 2, 80, 0
4, 190920, Note_on_c, 2, 71, 90
4, 191016, Note_on_c, 2, 71, 0
4, 191040, Note_on_c, 2, 81, 90
4, 191136, Note_on_c, 2, 81, 0
4, 191160, Note_on_c, 2, 71, 90
4, 191256, Note_on_c, 2, 71, 0
4, 191280, Note_on_c, 2, 80, 90
4, 191376, Note_on_c, 2, 80, 0
4, 191400, Note_on_c, 2, 71, 90
4, 191496, Note_on_c, 2, 71, 0
4, 191520, Note_on_c, 2, 78, 90
4, 191712, Note_on_c, 2, 78, 0
4, 192120, Note_on_c, 2, 64, 80
4, 192198, Note_on_c, 2, 64, 0
4, 192240, Note_on_c, 2, 66, 80
4, 192318, Note_on_c, 2, 66, 0
4, 192360, Note_on_c, 2, 68, 80
4, 192438, Note_on_c, 2, 68, 0
4, 192480, Note_on_c, 2, 69, 80
4, 192558, Note_on_c, 2, 69, 0
4, 192600, Note_on_c, 2, 71, 80
4, 192678, Note_on_c, 2, 71, 0
4, 192720, Note_on_c, 2, 73, 80
4, 192798, Note_on_c, 2, 73, 0
4, 192840, Note_on_c, 2, 75, 80
4, 192918, Note_on_c, 2, 75, 0
4, 192960, Note_on_c, 2, 76, 90
4, 193038, Note_on_c, 2, 76, 0
4, 193080, Note_on_c, 2, 71, 90
4, 193158, Note_on_c, 2, 71, 0
4, 193200, Note_on_c, 2, 73, 90
4, 193278, Note_on_c, 2, 73, 0
4, 193320, Note_on_c, 2, 75, 90
4, 193398, Note_on_c, 2, 75, 0
4, 193440, Note_on_c, 2, 76, 90
4, 193518, Note_on_c, 2, 76, 0
4, 193560, Note_on_c, 2, 78, 90
4, 193638, Note_on_c, 2, 78, 0
4, 193680, Note_on_c, 2, 80, 90
4, 193758, Note_on_c, 2, 80, 0
4, 193800, Note_on_c, 2, 81, 90
4, 193878, Note_on_c, 2, 81, 0
4, 193920, Note_on_c, 2, 82, 105
4, 194040, Note_on_c, 2, 82, 0
4, 194040, Note_on_c, 2, 83, 105
4, 194160, Note_on_c, 2, 83, 0
4, 194160, Note_on_c, 2, 82, 105
4, 194280, Note_on_c, 2, 82, 0
4, 194280, Note_on_c, 2, 83, 105
4, 194400, Note_on_c, 2, 83, 0
4, 194400, Note_on_c, 2, 82, 105
4, 194520, Note_on_c, 2, 82, 0
4, 194520, Note_on_c, 2, 83, 105
4, 194640, Note_on_c, 2, 83, 0
4, 194640, Note_on_c, 2, 82, 105
4, 194760, Note_on_c, 2, 82, 0
4, 194760, Note_on_c, 2, 83, 105
4, 194880, Note_on_c, 2, 83, 0
4, 194880, Note_on_c, 2, 82, 105
4, 195000, Note_on_c, 2, 82, 0
4, 195000, Note_on_c, 2, 83, 105
4, 195120, Note_on_c, 2, 83, 0
4, 195120, Note_on_c, 2, 85, 105
4, 195240, Note_on_c, 2, 85, 0
4, 195240, Note_on_c, 2, 83, 105
4, 195360, Note_on_c, 2, 83, 0
4, 195360, Note_on_c, 2, 81, 90
4, 195480, Note_on_c, 2, 81, 0
4, 195480, Note_on_c, 2, 80, 90
4, 195600, Note_on_c, 2, 80, 0
4, 195600, Note_on_c, 2, 78, 90
4, 195720, Note_on_c, 2, 78, 0
4, 195720, Note_on_c, 2, 76, 90
4, 195840, Note_on_c, 2, 76, 0
4, 195840, Note_on_c, 2, 81, 80
4, 195960, Note_on_c, 2, 81, 0
4, 195960, Note_on_c, 2, 83, 80
4, 196080, Note_on_c, 2, 83, 0
4, 196080, Note_on_c, 2, 81, 80
4, 196200, Note_on_c, 2, 81, 0
4, 196200, Note_on_c, 2, 80, 80
4, 196320, Note_on_c, 2, 80, 0
4, 196320, Note_on_c, 2, 78, 80
4, 196560, Note_on_c, 2, 78, 0
4, 196800, Note_on_c, 2, 78, 80
4, 196920, Note_on_c, 2, 78, 0
4, 196920, Note_on_c, 2, 80, 80
4, 197040, Note_on_c, 2, 80, 0
4, 197040, Note_on_c, 2, 78, 80
4, 197160, Note_on_c, 2, 78, 0
4, 197160, Note_on_c, 2, 76, 80
4, 197280, Note_on_c, 2, 76, 0
4, 197280, Note_on_c, 2, 75, 80
4, 197520, Note_on_c, 2, 75, 0
4, 197760, Note_on_c, 2, 75, 80
4, 197856, Note_on_c, 2, 75, 0
4, 197880, Note_on_c, 2, 71, 80
4, 197976, Note_on_c, 2, 71, 0
4, 198000, Note_on_c, 2, 76, 80
4, 198096, Note_on_c, 2, 76, 0
4, 198120, Note_on_c, 2, 71, 80
4, 198216, Note_on_c, 2, 71, 0
4, 198240, Note_on_c, 2, 78, 80
4, 198336, Note_on_c, 2, 78, 0
4, 198360, Note_on_c, 2, 71, 80
4, 198456, Note_on_c, 2, 71, 0
4, 198480, Note_on_c, 2, 80, 80
4, 198576, Note_on_c, 2, 80, 0
4, 198600, Note_on_c, 2, 71, 80
4, 198696, Note_on_c, 2, 71, 0
4, 198720, Note_on_c, 2, 81, 80
4, 198816, Note_on_c, 2, 81, 0
4, 198840, Note_on_c, 2, 71, 80
4, 198936, Note_on_c, 2, 71, 0
4, 198960, Note_on_c, 2, 80, 80
4, 199056, Note_on_c, 2, 80, 0
4, 199080, Note_on_c, 2, 71, 80
4, 199176, Note_on_c, 2, 71, 0
4, 199200, Note_on_c, 2, 78, 80
4, 199392, Note_on_c, 2, 78, 0
4, 199800, Note_on_c, 2, 64, 80
4, 199878, Note_on_c, 2, 64, 0
4, 199920, Note_on_c, 2, 66, 80
4, 199998, Note_on_c, 2, 66, 0
4, 200040, Note_on_c, 2, 68, 80
4, 200118, Note_on_c, 2, 68, 0
4, 200160, Note_on_c, 2, 69, 80
4, 200238, Note_on_c, 2, 69, 0
4, 200280, Note_on_c, 2, 71, 80
4, 200358, Note_on_c, 2, 71, 0
4, 200400, Note_on_c, 2, 73, 80
4, 200478, Note_on_c, 2, 73, 0
4, 200520, Note_on_c, 2, 75, 80
4, 200598, Note_on_c, 2, 75, 0
4, 200640, Note_on_c, 2, 76, 90
4, 200718, Note_on_c, 2, 76, 0
4, 200760, Note_on_c, 2, 71, 90
4, 200838, Note_on_c, 2, 71, 0
4, 200880, Note_on_c, 2, 73, 90
4, 200958, Note_on_c, 2, 73, 0
4, 201000, Note_on_c, 2, 75, 90
4, 201078, Note_on_c, 2, 75, 0
4, 201120, Note_on_c, 2, 76, 90
4, 201198, Note_on_c, 2, 76, 0
4, 201240, Note_on_c, 2, 78, 90
4, 201318, Note_on_c, 2, 78, 0
4, 201360, Note_on_c, 2, 80, 90
4, 201438, Note_on_c, 2, 80, 0
4, 201480, Note_on_c, 2, 81, 90
4, 201558, Note_on_c, 2, 81, 0
4, 201600, Note_on_c, 2, 82, 105
4, 201720, Note_on_c, 2, 82, 0
4, 201720, Note_on_c, 2, 83, 105
4, 201840, Note_on_c, 2, 83, 0
4, 201840, Note_on_c, 2, 82, 105
4, 201960, Note_on_c, 2, 82, 0
4, 201960, Note_on_c, 2, 83, 105
4, 202080, Note_on_c, 2, 83, 0
4, 202080, Note_on_c, 2, 82, 105
4, 202200, Note_on_c, 2, 82, 0
4, 202200, Note_on_c, 2, 83, 105
4, 202320, Note_on_c, 2, 83, 0
4, 202320, Note_on_c, 2, 82, 105
4, 202440, Note_on_c, 2, 82, 0
4, 202440, Note_on_c, 2, 83, 105
4, 202560, Note_on_c, 2, 83, 0
4, 202560, Note_on_c, 2, 82, 105
4, 202680, Note_on_c, 2, 82, 0
4, 202680, Note_on_c, 2, 83, 105
4, 202800, Note_on_c, 2, 83, 0
4, 202800, Note_on_c, 2, 85, 105
4, 202920, Note_on_c, 2, 85, 0
4, 202920, Note_on_c, 2, 83, 105
4, 203040, Note_on_c, 2, 83, 0
4, 203040, Note_on_c, 2, 81, 105
4, 203160, Note_on_c, 2, 81, 0
4, 203160, Note_on_c, 2, 80, 90
4, 203280, Note_on_c, 2, 80, 0
4, 203280, Note_on_c, 2, 78, 90
4, 203400, Note_on_c, 2, 78, 0
4, 203400, Note_on_c, 2, 76, 90
4, 203520, Note_on_c, 2, 76, 0
4, 203520, Note_on_c, 2, 85, 90
4, 203904, Note_on_c, 2, 85, 0
4, 204000, Note_on_c, 2, 69, 90
4, 204576, Note_on_c, 2, 69, 0
4, 204720, Note_on_c, 2, 71, 90
4, 204816, Note_on_c, 2, 71, 0
4, 204840, Note_on_c, 2, 73, 90
4, 204936, Note_on_c, 2, 73, 0
4, 204960, Note_on_c, 2, 74, 90
4, 205056, Note_on_c, 2, 74, 0
4, 205080, Note_on_c, 2, 76, 90
4, 205176, Note_on_c, 2, 76, 0
4, 205200, Note_on_c, 2, 78, 90
4, 205296, Note_on_c, 2, 78, 0
4, 205320, Note_on_c, 2, 80, 90
4, 205416, Note_on_c, 2, 80, 0
4, 205440, Note_on_c, 2, 81, 90
4, 205536, Note_on_c, 2, 81, 0
4, 205560, Note_on_c, 2, 76, 90
4, 205656, Note_on_c, 2, 76, 0
4, 205680, Note_on_c, 2, 73, 90
4, 205776, Note_on_c, 2, 73, 0
4, 205800, Note_on_c, 2, 69, 90
4, 205896, Note_on_c, 2, 69, 0
4, 205920, Note_on_c, 2, 85, 90
4, 206304, Note_on_c, 2, 85, 0
4, 206760, Note_on_c, 2, 81, 90
4, 206856, Note_on_c, 2, 81, 0
4, 206880, Note_on_c, 2, 83, 90
4, 206940, Note_on_c, 2, 83, 0
4, 206940, Note_on_c, 2, 81, 90
4, 207000, Note_on_c, 2, 81, 0
4, 207000, Note_on_c, 2, 83, 90
4, 207060, Note_on_c, 2, 83, 0
4, 207060, Note_on_c, 2, 81, 90
4, 207120, Note_on_c, 2, 81, 0
4, 207120, Note_on_c, 2, 83, 90
4, 207180, Note_on_c, 2, 83, 0
4, 207180, Note_on_c, 2, 81, 90
4, 207240, Note_on_c, 2, 81, 0
4, 207240, Note_on_c, 2, 80, 90
4, 207300, Note_on_c, 2, 80, 0
4, 207300, Note_on_c, 2, 81, 90
4, 207360, Note_on_c, 2, 81, 0
4, 207360, Note_on_c, 2, 87, 90
4, 207744, Note_on_c, 2, 87, 0
4, 207840, Note_on_c, 2, 71, 90
4, 208416, Note_on_c, 2, 71, 0
4, 208560, Note_on_c, 2, 73, 90
4, 208656, Note_on_c, 2, 73, 0
4, 208680, Note_on_c, 2, 75, 90
4, 208776, Note_on_c, 2, 75, 0
4, 208800, Note_on_c, 2, 76, 90
4, 208896, Note_on_c, 2, 76, 0
4, 208920, Note_on_c, 2, 78, 90
4, 209016, Note_on_c, 2, 78, 0
4, 209040, Note_on_c, 2, 80, 90
4, 209136, Note_on_c, 2, 80, 0
4, 209160, Note_on_c, 2, 82, 90
4, 209256, Note_on_c, 2, 82, 0
4, 209280, Note_on_c, 2, 83, 90
4, 209376, Note_on_c, 2, 83, 0
4, 209400, Note_on_c, 2, 78, 90
4, 209496, Note_on_c, 2, 78, 0
4, 209520, Note_on_c, 2, 75, 90
4, 209616, Note_on_c, 2, 75, 0
4, 209640, Note_on_c, 2, 71, 90
4, 209736, Note_on_c, 2, 71, 0
4, 209760, Note_on_c, 2, 87, 90
4, 210144, Note_on_c, 2, 87, 0
4, 210600, Note_on_c, 2, 83, 90
4, 210696, Note_on_c, 2, 83, 0
4, 210720, Note_on_c, 2, 85, 90
4, 210780, Note_on_c, 2, 85, 0
4, 210780, Note_on_c, 2, 83, 90
4, 210840, Note_on_c, 2, 83, 0
4, 210840, Note_on_c, 2, 85, 90
4, 210900, Note_on_c, 2, 85, 0
4, 210900, Note_on_c, 2, 83, 90
4, 210960, Note_on_c, 2, 83, 0
4, 210960, Note_on_c, 2, 85, 90
4, 211020, Note_on_c, 2, 85, 0
4, 211020, Note_on_c, 2, 83, 90
4, 211080, Note_on_c, 2, 83, 0
4, 211080, Note_on_c, 2, 82, 90
4, 211140, Note_on_c, 2, 82, 0
4, 211140, Note_on_c, 2, 83, 90
4, 211200, Note_on_c, 2, 83, 0
4, 211200, Note_on_c, 2, 88, 90
4, 211584, Note_on_c, 2, 88, 0
4, 211680, Note_on_c, 2, 86, 90
4, 212064, Note_on_c, 2, 86, 0
4, 212160, Note_on_c, 2, 85, 90
4, 212544, Note_on_c, 2, 85, 0
4, 212640, Note_on_c, 2, 84, 90
4, 213024, Note_on_c, 2, 84, 0
4, 213120, Note_on_c, 2, 85, 90
4, 213264, Note_on_c, 2, 85, 0
4, 213360, Note_on_c, 2, 83, 90
4, 213504, Note_on_c, 2, 83, 0
4, 213600, Note_on_c, 2, 81, 90
4, 213744, Note_on_c, 2, 81, 0
4, 213840, Note_on_c, 2, 80, 90
4, 213984, Note_on_c, 2, 80, 0
4, 214080, Note_on_c, 2, 81, 90
4, 214224, Note_on_c, 2, 81, 0
4, 214320, Note_on_c, 2, 80, 90
4, 214464, Note_on_c, 2, 80, 0
4, 214560, Note_on_c, 2, 78, 90
4, 214704, Note_on_c, 2, 78, 0
4, 214800, Note_on_c, 2, 77, 90
4, 214944, Note_on_c, 2, 77, 0
4, 215040, Note_on_c, 2, 78, 90
4, 215196, Note_on_c, 2, 78, 0
4, 215280, Note_on_c, 2, 85, 90
4, 215520, Note_on_c, 2, 85, 0
4, 215520, Note_on_c, 2, 83, 90
4, 215760, Note_on_c, 2, 83, 0
4, 215760, Note_on_c, 2, 81, 90
4, 216000, Note_on_c, 2, 81, 0
4, 216000, Note_on_c, 2, 80, 90
4, 216240, Note_on_c, 2, 80, 0
4, 216240, Note_on_c, 2, 78, 90
4, 216480, Note_on_c, 2, 78, 0
4, 216480, Note_on_c, 2, 80, 90
4, 216720, Note_on_c, 2, 80, 0
4, 216720, Note_on_c, 2, 81, 90
4, 216912, Note_on_c, 2, 81, 0
4, 216960, Note_on_c, 2, 83, 90
4, 217200, Note_on_c, 2, 83, 0
4, 217200, Note_on_c, 2, 85, 90
4, 217280, Note_on_c, 2, 85, 0
4, 217280, Note_on_c, 2, 83, 90
4, 217360, Note_on_c, 2, 83, 0
4, 217360, Note_on_c, 2, 81, 90
4, 217440, Note_on_c, 2, 81, 0
4, 217440, Note_on_c, 2, 83, 90
4, 217680, Note_on_c, 2, 83, 0
4, 217680, Note_on_c, 2, 85, 90
4, 217872, Note_on_c, 2, 85, 0
4, 217920, Note_on_c, 2, 76, 90
4, 218400, Note_on_c, 2, 76, 0
4, 218400, Note_on_c, 2, 75, 90
4, 218400, Note_on_c, 2, 80, 90
4, 218520, Note_on_c, 2, 80, 0
4, 218520, Note_on_c, 2, 78, 90
4, 218880, Note_on_c, 2, 78, 0
4, 218880, Note_on_c, 2, 75, 0
4, 218880, Note_on_c, 2, 76, 80
4, 219264, Note_on_c, 2, 76, 0
4, 228000, Note_on_c, 2, 85, 90
4, 228120, Note_on_c, 2, 85, 0
4, 228120, Note_on_c, 2, 83, 90
4, 228240, Note_on_c, 2, 83, 0
4, 228240, Note_on_c, 2, 81, 90
4, 228360, Note_on_c, 2, 81, 0
4, 228360, Note_on_c, 2, 80, 90
4, 228480, Note_on_c, 2, 80, 0
4, 228480, Note_on_c, 2, 78, 90
4, 228744, Note_on_c, 2, 78, 0
4, 228960, Note_on_c, 2, 78, 90
4, 229440, Note_on_c, 2, 78, 0
4, 229440, Note_on_c, 2, 80, 90
4, 229704, Note_on_c, 2, 80, 0
4, 229920, Note_on_c, 2, 80, 90
4, 230400, Note_on_c, 2, 80, 0
4, 230400, Note_on_c, 2, 81, 90
4, 230664, Note_on_c, 2, 81, 0
4, 231840, Note_on_c, 2, 80, 90
4, 232320, Note_on_c, 2, 80, 0
4, 232320, Note_on_c, 2, 81, 90
4, 232584, Note_on_c, 2, 81, 0
4, 233760, Note_on_c, 2, 80, 90
4, 234240, Note_on_c, 2, 80, 0
4, 234240, Note_on_c, 2, 81, 90
4, 234504, Note_on_c, 2, 81, 0
4, 235680, Note_on_c, 2, 83, 90
4, 235800, Note_on_c, 2, 83, 0
4, 235800, Note_on_c, 2, 81, 90
4, 235920, Note_on_c, 2, 81, 0
4, 235920, Note_on_c, 2, 80, 90
4, 236040, Note_on_c, 2, 80, 0
4, 236040, Note_on_c, 2, 78, 90
4, 236160, Note_on_c, 2, 78, 0
4, 236160, Note_on_c, 2, 76, 90
4, 236424, Note_on_c, 2, 76, 0
4, 236640, Note_on_c, 2, 76, 90
4, 237360, Note_on_c, 2, 76, 0
4, 237360, Note_on_c, 2, 74, 90
4, 237600, Note_on_c, 2, 74, 0
4, 237600, Note_on_c, 2, 73, 90
4, 237840, Note_on_c, 2, 73, 0
4, 237840, Note_on_c, 2, 72, 90
4, 238032, Note_on_c, 2, 72, 0
4, 238080, Note_on_c, 2, 72, 90
4, 238320, Note_on_c, 2, 72, 0
4, 238320, Note_on_c, 2, 73, 90
4, 238512, Note_on_c, 2, 73, 0
4, 238560, Note_on_c, 2, 73, 90
4, 239136, Note_on_c, 2, 73, 0
4, 239280, Note_on_c, 2, 81, 90
4, 239520, Note_on_c, 2, 81, 0
4, 239520, Note_on_c, 2, 78, 90
4, 239760, Note_on_c, 2, 78, 0
4, 239760, Note_on_c, 2, 75, 90
4, 240000, Note_on_c, 2, 75, 0
4, 240000, Note_on_c, 2, 83, 90
4, 240360, Note_on_c, 2, 83, 0
4, 240360, Note_on_c, 2, 80, 90
4, 240480, Note_on_c, 2, 80, 0
4, 240480, Note_on_c, 2, 76, 90
4, 240636, Note_on_c, 2, 76, 0
4, 240720, Note_on_c, 2, 76, 90
4, 240876, Note_on_c, 2, 76, 0
4, 240960, Note_on_c, 2, 76, 90
4, 241200, Note_on_c, 2, 76, 0
4, 241200, Note_on_c, 2, 74, 90
4, 241440, Note_on_c, 2, 74, 0
4, 241440, Note_on_c, 2, 73, 90
4, 241680, Note_on_c, 2, 73, 0
4, 241680, Note_on_c, 2, 72, 90
4, 241872, Note_on_c, 2, 72, 0
4, 241920, Note_on_c, 2, 72, 90
4, 242160, Note_on_c, 2, 72, 0
4, 242160, Note_on_c, 2, 73, 90
4, 242352, Note_on_c, 2, 73, 0
4, 242400, Note_on_c, 2, 73, 90
4, 242976, Note_on_c, 2, 73, 0
4, 243120, Note_on_c, 2, 81, 90
4, 243360, Note_on_c, 2, 81, 0
4, 243360, Note_on_c, 2, 78, 90
4, 243600, Note_on_c, 2, 78, 0
4, 243600, Note_on_c, 2, 75, 90
4, 243840, Note_on_c, 2, 75, 0
4, 243840, Note_on_c, 2, 83, 90
4, 244200, Note_on_c, 2, 83, 0
4, 244200, Note_on_c, 2, 80, 90
4, 244320, Note_on_c, 2, 80, 0
4, 244320, Note_on_c, 2, 76, 90
4, 244476, Note_on_c, 2, 76, 0
4, 244560, Note_on_c, 2, 76, 90
4, 244716, Note_on_c, 2, 76, 0
4, 244800, Note_on_c, 2, 76, 90
4, 245040, Note_on_c, 2, 76, 0
4, 245040, Note_on_c, 2, 74, 90
4, 245280, Note_on_c, 2, 74, 0
4, 245280, Note_on_c, 2, 73, 90
4, 245520, Note_on_c, 2, 73, 0
4, 245520, Note_on_c, 2, 72, 90
4, 245712, Note_on_c, 2, 72, 0
4, 245760, Note_on_c, 2, 72, 90
4, 246000, Note_on_c, 2, 72, 0
4, 246000, Note_on_c, 2, 73, 90
4, 246192, Note_on_c, 2, 73, 0
4, 246240, Note_on_c, 2, 85, 90
4, 246816, Note_on_c, 2, 85, 0
4, 246840, Note_on_c, 2, 83, 90
4, 246936, Note_on_c, 2, 83, 0
4, 246960, Note_on_c, 2, 81, 90
4, 247056, Note_on_c, 2, 81, 0
4, 247080, Note_on_c, 2, 80, 90
4, 247176, Note_on_c, 2, 80, 0
4, 247200, Note_on_c, 2, 78, 90
4, 247296, Note_on_c, 2, 78, 0
4, 247320, Note_on_c, 2, 76, 90
4, 247416, Note_on_c, 2, 76, 0
4, 247440, Note_on_c, 2, 75, 90
4, 247536, Note_on_c, 2, 75, 0
4, 247560, Note_on_c, 2, 73, 90
4, 247656, Note_on_c, 2, 73, 0
4, 247680, Note_on_c, 2, 75, 90
4, 247740, Note_on_c, 2, 75, 0
4, 247740, Note_on_c, 2, 73, 90
4, 247800, Note_on_c, 2, 73, 0
4, 247800, Note_on_c, 2, 75, 90
4, 247860, Note_on_c, 2, 75, 0
4, 247860, Note_on_c, 2, 73, 90
4, 247920, Note_on_c, 2, 73, 0
4, 247920, Note_on_c, 2, 71, 90
4, 248112, Note_on_c, 2, 71, 0
4, 248160, Note_on_c, 2, 83, 110
4, 248736, Note_on_c, 2, 83, 0
4, 248760, Note_on_c, 2, 81, 90
4, 248856, Note_on_c, 2, 81, 0
4, 248880, Note_on_c, 2, 80, 90
4, 248976, Note_on_c, 2, 80, 0
4, 249000, Note_on_c, 2, 78, 90
4, 249096, Note_on_c, 2, 78, 0
4, 249120, Note_on_c, 2, 76, 90
4, 249216, Note_on_c, 2, 76, 0
4, 249240, Note_on_c, 2, 75, 90
4, 249336, Note_on_c, 2, 75, 0
4, 249360, Note_on_c, 2, 73, 90
4, 249456, Note_on_c, 2, 73, 0
4, 249480, Note_on_c, 2, 71, 90
4, 249576, Note_on_c, 2, 71, 0
4, 249600, Note_on_c, 2, 73, 90
4, 249660, Note_on_c, 2, 73, 0
4, 249660, Note_on_c, 2, 71, 90
4, 249720, Note_on_c, 2, 71, 0
4, 249720, Note_on_c, 2, 73, 90
4, 249780, Note_on_c, 2, 73, 0
4, 249780, Note_on_c, 2, 71, 90
4, 249840, Note_on_c, 2, 71, 0
4, 249840, Note_on_c, 2, 69, 90
4, 250032, Note_on_c, 2, 69, 0
4, 250080, Note_on_c, 2, 81, 110
4, 250656, Note_on_c, 2, 81, 0
4, 250680, Note_on_c, 2, 80, 90
4, 250776, Note_on_c, 2, 80, 0
4, 250800, Note_on_c, 2, 78, 90
4, 250896, Note_on_c, 2, 78, 0
4, 250920, Note_on_c, 2, 76, 90
4, 251016, Note_on_c, 2, 76, 0
4, 251040, Note_on_c, 2, 75, 90
4, 251136, Note_on_c, 2, 75, 0
4, 251160, Note_on_c, 2, 73, 90
4, 251256, Note_on_c, 2, 73, 0
4, 251280, Note_on_c, 2, 71, 90
4, 251376, Note_on_c, 2, 71, 0
4, 251400, Note_on_c, 2, 69, 90
4, 251496, Note_on_c, 2, 69, 0
4, 251520, Note_on_c, 2, 68, 80
4, 251648, Note_on_c, 2, 68, 0
4, 251680, Note_on_c, 2, 71, 80
4, 251808, Note_on_c, 2, 71, 0
4, 251840, Note_on_c, 2, 76, 80
4, 251968, Note_on_c, 2, 76, 0
4, 252000, Note_on_c, 2, 80, 80
4, 252128, Note_on_c, 2, 80, 0
4, 252160, Note_on_c, 2, 76, 80
4, 252288, Note_on_c, 2, 76, 0
4, 252320, Note_on_c, 2, 83, 80
4, 252448, Note_on_c, 2, 83, 0
4, 252480, Note_on_c, 2, 68, 80
4, 252608, Note_on_c, 2, 68, 0
4, 252640, Note_on_c, 2, 71, 80
4, 252768, Note_on_c, 2, 71, 0
4, 252800, Note_on_c, 2, 76, 80
4, 252928, Note_on_c, 2, 76, 0
4, 252960, Note_on_c, 2, 80, 80
4, 253088, Note_on_c, 2, 80, 0
4, 253120, Note_on_c, 2, 76, 80
4, 253248, Note_on_c, 2, 76, 0
4, 253280, Note_on_c, 2, 83, 80
4, 253408, Note_on_c, 2, 83, 0
4, 253440, Note_on_c, 2, 68, 80
4, 253568, Note_on_c, 2, 68, 0
4, 253600, Note_on_c, 2, 71, 80
4, 253728, Note_on_c, 2, 71, 0
4, 253760, Note_on_c, 2, 76, 80
4, 253888, Note_on_c, 2, 76, 0
4, 253920, Note_on_c, 2, 80, 80
4, 254048, Note_on_c, 2, 80, 0
4, 254080, Note_on_c, 2, 76, 80
4, 254208, Note_on_c, 2, 76, 0
4, 254240, Note_on_c, 2, 83, 80
4, 254368, Note_on_c, 2, 83, 0
4, 254400, Note_on_c, 2, 83, 80
4, 254528, Note_on_c, 2, 83, 0
4, 254560, Note_on_c, 2, 80, 80
4, 254688, Note_on_c, 2, 80, 0
4, 254720, Note_on_c, 2, 76, 80
4, 254848, Note_on_c, 2, 76, 0
4, 254880, Note_on_c, 2, 80, 80
4, 255008, Note_on_c, 2, 80, 0
4, 255040, Note_on_c, 2, 76, 80
4, 255168, Note_on_c, 2, 76, 0
4, 255200, Note_on_c, 2, 71, 80
4, 255328, Note_on_c, 2, 71, 0
4, 255360, Note_on_c, 2, 73, 80
4, 255488, Note_on_c, 2, 73, 0
4, 255520, Note_on_c, 2, 76, 80
4, 255648, Note_on_c, 2, 76, 0
4, 255680, Note_on_c, 2, 81, 80
4, 255808, Note_on_c, 2, 81, 0
4, 255840, Note_on_c, 2, 85, 80
4, 255968, Note_on_c, 2, 85, 0
4, 256000, Note_on_c, 2, 81, 80
4, 256128, Note_on_c, 2, 81, 0
4, 256160, Note_on_c, 2, 88, 80
4, 256288, Note_on_c, 2, 88, 0
4, 256320, Note_on_c, 2, 73, 80
4, 256448, Note_on_c, 2, 73, 0
4, 256480, Note_on_c, 2, 76, 80
4, 256608, Note_on_c, 2, 76, 0
4, 256640, Note_on_c, 2, 81, 80
4, 256768, Note_on_c, 2, 81, 0
4, 256800, Note_on_c, 2, 85, 80
4, 256928, Note_on_c, 2, 85, 0
4, 256960, Note_on_c, 2, 81, 80
4, 257088, Note_on_c, 2, 81, 0
4, 257120, Note_on_c, 2, 88, 80
4, 257248, Note_on_c, 2, 88, 0
4, 257280, Note_on_c, 2, 73, 80
4, 257408, Note_on_c, 2, 73, 0
4, 257440, Note_on_c, 2, 76, 80
4, 257568, Note_on_c, 2, 76, 0
4, 257600, Note_on_c, 2, 81, 80
4, 257728, Note_on_c, 2, 81, 0
4, 257760, Note_on_c, 2, 85, 80
4, 257888, Note_on_c, 2, 85, 0
4, 257920, Note_on_c, 2, 81, 80
4, 258048, Note_on_c, 2, 81, 0
4, 258080, Note_on_c, 2, 88, 80
4, 258208, Note_on_c, 2, 88, 0
4, 258240, Note_on_c, 2, 88, 80
4, 258368, Note_on_c, 2, 88, 0
4, 258400, Note_on_c, 2, 85, 80
4, 258528, Note_on_c, 2, 85, 0
4, 258560, Note_on_c, 2, 81, 80
4, 258688, Note_on_c, 2, 81, 0
4, 258720, Note_on_c, 2, 85, 80
4, 258848, Note_on_c, 2, 85, 0
4, 258880, Note_on_c, 2, 81, 80
4, 259008, Note_on_c, 2, 81, 0
4, 259040, Note_on_c, 2, 76, 80
4, 259168, Note_on_c, 2, 76, 0
4, 259200, Note_on_c, 2, 71, 80
4, 259584, Note_on_c, 2, 71, 0
4, 259680, Note_on_c, 2, 83, 100
4, 260448, Note_on_c, 2, 83, 0
4, 260640, Note_on_c, 2, 81, 80
4, 260760, Note_on_c, 2, 81, 0
4, 260760, Note_on_c, 2, 80, 80
4, 260880, Note_on_c, 2, 80, 0
4, 260880, Note_on_c, 2, 78, 80
4, 261000, Note_on_c, 2, 78, 0
4, 261000, Note_on_c, 2, 76, 80
4, 261120, Note_on_c, 2, 76, 0
4, 261120, Note_on_c, 2, 80, 80
4, 261180, Note_on_c, 2, 80, 0
4, 261180, Note_on_c, 2, 78, 80
4, 261240, Note_on_c, 2, 78, 0
4, 261240, Note_on_c, 2, 80, 80
4, 261300, Note_on_c, 2, 80, 0
4, 261300, Note_on_c, 2, 78, 80
4, 261360, Note_on_c, 2, 78, 0
4, 261360, Note_on_c, 2, 80, 80
4, 261420, Note_on_c, 2, 80, 0
4, 261420, Note_on_c, 2, 78, 80
4, 261480, Note_on_c, 2, 78, 0
4, 261480, Note_on_c, 2, 80, 80
4, 261540, Note_on_c, 2, 80, 0
4, 261540, Note_on_c, 2, 78, 80
4, 261600, Note_on_c, 2, 78, 0
4, 261600, Note_on_c, 2, 80, 80
4, 261660, Note_on_c, 2, 80, 0
4, 261660, Note_on_c, 2, 78, 80
4, 261720, Note_on_c, 2, 78, 0
4, 261720, Note_on_c, 2, 80, 80
4, 261780, Note_on_c, 2, 80, 0
4, 261780, Note_on_c, 2, 78, 80
4, 261840, Note_on_c, 2, 78, 0
4, 261840, Note_on_c, 2, 80, 80
4, 261900, Note_on_c, 2, 80, 0
4, 261900, Note_on_c, 2, 78, 80
4, 261960, Note_on_c, 2, 78, 0
4, 261960, Note_on_c, 2, 80, 80
4, 262020, Note_on_c, 2, 80, 0
4, 262020, Note_on_c, 2, 78, 80
4, 262080, Note_on_c, 2, 78, 0
4, 262080, Note_on_c, 2, 80, 80
4, 262140, Note_on_c, 2, 80, 0
4, 262140, Note_on_c, 2, 78, 80
4, 262200, Note_on_c, 2, 78, 0
4, 262200, Note_on_c, 2, 80, 80
4, 262260, Note_on_c, 2, 80, 0
4, 262260, Note_on_c, 2, 78, 80
4, 262320, Note_on_c, 2, 78, 0
4, 262320, Note_on_c, 2, 80, 80
4, 262380, Note_on_c, 2, 80, 0
4, 262380, Note_on_c, 2, 78, 80
4, 262440, Note_on_c, 2, 78, 0
4, 262440, Note_on_c, 2, 80, 80
4, 262500, Note_on_c, 2, 80, 0
4, 262500, Note_on_c, 2, 78, 80
4, 262560, Note_on_c, 2, 78, 0
4, 262560, Note_on_c, 2, 80, 80
4, 262620, Note_on_c, 2, 80, 0
4, 262620, Note_on_c, 2, 78, 80
4, 262680, Note_on_c, 2, 78, 0
4, 262680, Note_on_c, 2, 80, 80
4, 262740, Note_on_c, 2, 80, 0
4, 262740, Note_on_c, 2, 78, 80
4, 262800, Note_on_c, 2, 78, 0
4, 262800, Note_on_c, 2, 80, 80
4, 262860, Note_on_c, 2, 80, 0
4, 262860, Note_on_c, 2, 78, 80
4, 262920, Note_on_c, 2, 78, 0
4, 262920, Note_on_c, 2, 76, 80
4, 262980, Note_on_c, 2, 76, 0
4, 262980, Note_on_c, 2, 78, 80
4, 263040, Note_on_c, 2, 78, 0
4, 263040, Note_on_c, 2, 76, 80
4, 263136, Note_on_c, 2, 76, 0
4, 263160, Note_on_c, 2, 68, 80
4, 263256, Note_on_c, 2, 68, 0
4, 263280, Note_on_c, 2, 76, 80
4, 263376, Note_on_c, 2, 76, 0
4, 263400, Note_on_c, 2, 80, 80
4, 263496, Note_on_c, 2, 80, 0
4, 263520, Note_on_c, 2, 83, 80
4, 263616, Note_on_c, 2, 83, 0
4, 263640, Note_on_c, 2, 80, 80
4, 263736, Note_on_c, 2, 80, 0
4, 263760, Note_on_c, 2, 76, 80
4, 263856, Note_on_c, 2, 76, 0
4, 263880, Note_on_c, 2, 71, 80
4, 263976, Note_on_c, 2, 71, 0
4, 264000, Note_on_c, 2, 76, 80
4, 264096, Note_on_c, 2, 76, 0
4, 264120, Note_on_c, 2, 68, 80
4, 264216, Note_on_c, 2, 68, 0
4, 264240, Note_on_c, 2, 76, 80
4, 264336, Note_on_c, 2, 76, 0
4, 264360, Note_on_c, 2, 80, 80
4, 264456, Note_on_c, 2, 80, 0
4, 264480, Note_on_c, 2, 83, 80
4, 264576, Note_on_c, 2, 83, 0
4, 264600, Note_on_c, 2, 80, 80
4, 264696, Note_on_c, 2, 80, 0
4, 264720, Note_on_c, 2, 76, 80
4, 264816, Note_on_c, 2, 76, 0
4, 264840, Note_on_c, 2, 71, 80
4, 264936, Note_on_c, 2, 71, 0
4, 264960, Note_on_c, 2, 76, 80
4, 265056, Note_on_c, 2, 76, 0
4, 265080, Note_on_c, 2, 68, 80
4, 265176, Note_on_c, 2, 68, 0
4, 265200, Note_on_c, 2, 76, 80
4, 265296, Note_on_c, 2, 76, 0
4, 265320, Note_on_c, 2, 80, 80
4, 265416, Note_on_c, 2, 80, 0
4, 265440, Note_on_c, 2, 83, 80
4, 265536, Note_on_c, 2, 83, 0
4, 265560, Note_on_c, 2, 80, 80
4, 265656, Note_on_c, 2, 80, 0
4, 265680, Note_on_c, 2, 76, 80
4, 265776, Note_on_c, 2, 76, 0
4, 265800, Note_on_c, 2, 71, 80
4, 265896, Note_on_c, 2, 71, 0
4, 265920, Note_on_c, 2, 83, 80
4, 266016, Note_on_c, 2, 83, 0
4, 266040, Note_on_c, 2, 81, 80
4, 266136, Note_on_c, 2, 81, 0
4, 266160, Note_on_c, 2, 80, 80
4, 266256, Note_on_c, 2, 80, 0
4, 266280, Note_on_c, 2, 78, 80
4, 266376, Note_on_c, 2, 78, 0
4, 266400, Note_on_c, 2, 76, 80
4, 266496, Note_on_c, 2, 76, 0
4, 266520, Note_on_c, 2, 75, 80
4, 266616, Note_on_c, 2, 75, 0
4, 266640, Note_on_c, 2, 73, 80
4, 266736, Note_on_c, 2, 73, 0
4, 266760, Note_on_c, 2, 71, 80
4, 266856, Note_on_c, 2, 71, 0
4, 266880, Note_on_c, 2, 81, 80
4, 266976, Note_on_c, 2, 81, 0
4, 267000, Note_on_c, 2, 76, 80
4, 267096, Note_on_c, 2, 76, 0
4, 267120, Note_on_c, 2, 81, 80
4, 267216, Note_on_c, 2, 81, 0
4, 267240, Note_on_c, 2, 85, 80
4, 267336, Note_on_c, 2, 85, 0
4, 267360, Note_on_c, 2, 88, 80
4, 267456, Note_on_c, 2, 88, 0
4, 267480, Note_on_c, 2, 85, 80
4, 267576, Note_on_c, 2, 85, 0
4, 267600, Note_on_c, 2, 81, 80
4, 267696, Note_on_c, 2, 81, 0
4, 267720, Note_on_c, 2, 76, 80
4, 267816, Note_on_c, 2, 76, 0
4, 267840, Note_on_c, 2, 81, 80
4, 267936, Note_on_c, 2, 81, 0
4, 267960, Note_on_c, 2, 76, 80
4, 268056, Note_on_c, 2, 76, 0
4, 268080, Note_on_c, 2, 81, 80
4, 268176, Note_on_c, 2, 81, 0
4, 268200, Note_on_c, 2, 85, 80
4, 268296, Note_on_c, 2, 85, 0
4, 268320, Note_on_c, 2, 88, 80
4, 268416, Note_on_c, 2, 88, 0
4, 268440, Note_on_c, 2, 85, 80
4, 268536, Note_on_c, 2, 85, 0
4, 268560, Note_on_c, 2, 81, 80
4, 268656, Note_on_c, 2, 81, 0
4, 268680, Note_on_c, 2, 76, 80
4, 268776, Note_on_c, 2, 76, 0
4, 268800, Note_on_c, 2, 81, 80
4, 268896, Note_on_c, 2, 81, 0
4, 268920, Note_on_c, 2, 76, 80
4, 269016, Note_on_c, 2, 76, 0
4, 269040, Note_on_c, 2, 81, 80
4, 269136, Note_on_c, 2, 81, 0
4, 269160, Note_on_c, 2, 85, 80
4, 269256, Note_on_c, 2, 85, 0
4, 269280, Note_on_c, 2, 88, 80
4, 269376, Note_on_c, 2, 88, 0
4, 269400, Note_on_c, 2, 85, 80
4, 269496, Note_on_c, 2, 85, 0
4, 269520, Note_on_c, 2, 81, 80
4, 269616, Note_on_c, 2, 81, 0
4, 269640, Note_on_c, 2, 76, 80
4, 269736, Note_on_c, 2, 76, 0
4, 269760, Note_on_c, 2, 88, 80
4, 269856, Note_on_c, 2, 88, 0
4, 269880, Note_on_c, 2, 87, 80
4, 269976, Note_on_c, 2, 87, 0
4, 270000, Note_on_c, 2, 85, 80
4, 270096, Note_on_c, 2, 85, 0
4, 270120, Note_on_c, 2, 83, 80
4, 270216, Note_on_c, 2, 83, 0
4, 270240, Note_on_c, 2, 81, 80
4, 270336, Note_on_c, 2, 81, 0
4, 270360, Note_on_c, 2, 80, 80
4, 270456, Note_on_c, 2, 80, 0
4, 270480, Note_on_c, 2, 78, 80
4, 270576, Note_on_c, 2, 78, 0
4, 270600, Note_on_c, 2, 76, 80
4, 270696, Note_on_c, 2, 76, 0
4, 270720, Note_on_c, 2, 59, 100
4, 271872, Note_on_c, 2, 59, 0
4, 271920, Note_on_c, 2, 61, 105
4, 272016, Note_on_c, 2, 61, 0
4, 272040, Note_on_c, 2, 63, 105
4, 272136, Note_on_c, 2, 63, 0
4, 272160, Note_on_c, 2, 64, 105
4, 272256, Note_on_c, 2, 64, 0
4, 272280, Note_on_c, 2, 66, 105
4, 272376, Note_on_c, 2, 66, 0
4, 272400, Note_on_c, 2, 68, 105
4, 272496, Note_on_c, 2, 68, 0
4, 272520, Note_on_c, 2, 69, 105
4, 272616, Note_on_c, 2, 69, 0
4, 272640, Note_on_c, 2, 71, 105
4, 272832, Note_on_c, 2, 71, 0
4, 272880, Note_on_c, 2, 73, 105
4, 272976, Note_on_c, 2, 73, 0
4, 273000, Note_on_c, 2, 75, 105
4, 273096, Note_on_c, 2, 75, 0
4, 273120, Note_on_c, 2, 76, 105
4, 273216, Note_on_c, 2, 76, 0
4, 273240, Note_on_c, 2, 78, 105
4, 273336, Note_on_c, 2, 78, 0
4, 273360, Note_on_c, 2, 80, 105
4, 273456, Note_on_c, 2, 80, 0
4, 273480, Note_on_c, 2, 81, 105
4, 273576, Note_on_c, 2, 81, 0
4, 273600, Note_on_c, 2, 83, 105
4, 273696, Note_on_c, 2, 83, 0
4, 273720, Note_on_c, 2, 82, 90
4, 273816, Note_on_c, 2, 82, 0
4, 273840, Note_on_c, 2, 83, 90
4, 273936, Note_on_c, 2, 83, 0
4, 273960, Note_on_c, 2, 82, 90
4, 274056, Note_on_c, 2, 82, 0
4, 274080, Note_on_c, 2, 83, 90
4, 274176, Note_on_c, 2, 83, 0
4, 274200, Note_on_c, 2, 82, 90
4, 274296, Note_on_c, 2, 82, 0
4, 274320, Note_on_c, 2, 83, 90
4, 274416, Note_on_c, 2, 83, 0
4, 274440, Note_on_c, 2, 82, 90
4, 274536, Note_on_c, 2, 82, 0
4, 274560, Note_on_c, 2, 83, 90
4, 274688, Note_on_c, 2, 83, 0
4, 274720, Note_on_c, 2, 80, 90
4, 274848, Note_on_c, 2, 80, 0
4, 274880, Note_on_c, 2, 88, 90
4, 275008, Note_on_c, 2, 88, 0
4, 275040, Note_on_c, 2, 83, 90
4, 275168, Note_on_c, 2, 83, 0
4, 275200, Note_on_c, 2, 80, 90
4, 275328, Note_on_c, 2, 80, 0
4, 275360, Note_on_c, 2, 76, 90
4, 275488, Note_on_c, 2, 76, 0
4, 275520, Note_on_c, 2, 83, 90
4, 275648, Note_on_c, 2, 83, 0
4, 275680, Note_on_c, 2, 80, 90
4, 275808, Note_on_c, 2, 80, 0
4, 275840, Note_on_c, 2, 88, 90
4, 275968, Note_on_c, 2, 88, 0
4, 276000, Note_on_c, 2, 83, 90
4, 276128, Note_on_c, 2, 83, 0
4, 276160, Note_on_c, 2, 80, 90
4, 276288, Note_on_c, 2, 80, 0
4, 276320, Note_on_c, 2, 76, 90
4, 276448, Note_on_c, 2, 76, 0
4, 276480, Note_on_c, 2, 80, 90
4, 276540, Note_on_c, 2, 80, 0
4, 276540, Note_on_c, 2, 78, 90
4, 276600, Note_on_c, 2, 78, 0
4, 276600, Note_on_c, 2, 80, 90
4, 276660, Note_on_c, 2, 80, 0
4, 276660, Note_on_c, 2, 78, 90
4, 276720, Note_on_c, 2, 78, 0
4, 276720, Note_on_c, 2, 80, 90
4, 276780, Note_on_c, 2, 80, 0
4, 276780, Note_on_c, 2, 78, 90
4, 276840, Note_on_c, 2, 78, 0
4, 276840, Note_on_c, 2, 80, 90
4, 276900, Note_on_c, 2, 80, 0
4, 276900, Note_on_c, 2, 78, 90
4, 276960, Note_on_c, 2, 78, 0
4, 276960, Note_on_c, 2, 80, 90
4, 277020, Note_on_c, 2, 80, 0
4, 277020, Note_on_c, 2, 78, 90
4, 277080, Note_on_c, 2, 78, 0
4, 277080, Note_on_c, 2, 80, 90
4, 277140, Note_on_c, 2, 80, 0
4, 277140, Note_on_c, 2, 78, 90
4, 277200, Note_on_c, 2, 78, 0
4, 277200, Note_on_c, 2, 80, 90
4, 277260, Note_on_c, 2, 80, 0
4, 277260, Note_on_c, 2, 78, 90
4, 277320, Note_on_c, 2, 78, 0
4, 277320, Note_on_c, 2, 80, 90
4, 277380, Note_on_c, 2, 80, 0
4, 277380, Note_on_c, 2, 78, 90
4, 277440, Note_on_c, 2, 78, 0
4, 277440, Note_on_c, 2, 80, 90
4, 277500, Note_on_c, 2, 80, 0
4, 277500, Note_on_c, 2, 78, 90
4, 277560, Note_on_c, 2, 78, 0
4, 277560, Note_on_c, 2, 80, 90
4, 277620, Note_on_c, 2, 80, 0
4, 277620, Note_on_c, 2, 78, 90
4, 277680, Note_on_c, 2, 78, 0
4, 277680, Note_on_c, 2, 80, 90
4, 277740, Note_on_c, 2, 80, 0
4, 277740, Note_on_c, 2, 78, 90
4, 277800, Note_on_c, 2, 78, 0
4, 277800, Note_on_c, 2, 80, 90
4, 277860, Note_on_c, 2, 80, 0
4, 277860, Note_on_c, 2, 78, 90
4, 277920, Note_on_c, 2, 78, 0
4, 277920, Note_on_c, 2, 80, 90
4, 277980, Note_on_c, 2, 80, 0
4, 277980, Note_on_c, 2, 78, 90
4, 278040, Note_on_c, 2, 78, 0
4, 278040, Note_on_c, 2, 80, 90
4, 278100, Note_on_c, 2, 80, 0
4, 278100, Note_on_c, 2, 78, 90
4, 278160, Note_on_c, 2, 78, 0
4, 278160, Note_on_c, 2, 80, 90
4, 278220, Note_on_c, 2, 80, 0
4, 278220, Note_on_c, 2, 78, 90
4, 278280, Note_on_c, 2, 78, 0
4, 278280, Note_on_c, 2, 76, 90
4, 278340, Note_on_c, 2, 76, 0
4, 278340, Note_on_c, 2, 78, 90
4, 278400, Note_on_c, 2, 78, 0
4, 278400, Note_on_c, 2, 76, 90
4, 278784, Note_on_c, 2, 76, 0
4, 292680, Note_on_c, 2, 71, 90
4, 292800, Note_on_c, 2, 71, 0
4, 292800, Note_on_c, 2, 83, 90
4, 293112, Note_on_c, 2, 83, 0
4, 293280, Note_on_c, 2, 83, 90
4, 293592, Note_on_c, 2, 83, 0
4, 293760, Note_on_c, 2, 83, 90
4, 294480, Note_on_c, 2, 83, 0
4, 294480, Note_on_c, 2, 81, 90
4, 294540, Note_on_c, 2, 81, 0
4, 294540, Note_on_c, 2, 80, 90
4, 294600, Note_on_c, 2, 80, 0
4, 294600, Note_on_c, 2, 78, 90
4, 294660, Note_on_c, 2, 78, 0
4, 294660, Note_on_c, 2, 76, 90
4, 294720, Note_on_c, 2, 76, 0
4, 294720, Note_on_c, 2, 75, 90
4, 295032, Note_on_c, 2, 75, 0
4, 295200, Note_on_c, 2, 76, 90
4, 295512, Note_on_c, 2, 76, 0
4, 295680, Note_on_c, 2, 78, 86
4, 296064, Note_on_c, 2, 78, 0
4, 296520, Note_on_c, 2, 71, 90
4, 296640, Note_on_c, 2, 71, 0
4, 296640, Note_on_c, 2, 83, 90
4, 296952, Note_on_c, 2, 83, 0
4, 297120, Note_on_c, 2, 83, 90
4, 297432, Note_on_c, 2, 83, 0
4, 297600, Note_on_c, 2, 83, 90
4, 298320, Note_on_c, 2, 83, 0
4, 298320, Note_on_c, 2, 81, 90
4, 298400, Note_on_c, 2, 81, 0
4, 298400, Note_on_c, 2, 80, 90
4, 298480, Note_on_c, 2, 80, 0
4, 298480, Note_on_c, 2, 78, 90
4, 298560, Note_on_c, 2, 78, 0
4, 298560, Note_on_c, 2, 76, 90
4, 298872, Note_on_c, 2, 76, 0
4, 299040, Note_on_c, 2, 78, 90
4, 299040, Note_on_c, 2, 75, 90
4, 299352, Note_on_c, 2, 75, 0
4, 299352, Note_on_c, 2, 78, 0
4, 299520, Note_on_c, 2, 76, 86
4, 299520, Note_on_c, 2, 80, 86
4, 299904, Note_on_c, 2, 80, 0
4, 299904, Note_on_c, 2, 76, 0
4, 300360, Note_on_c, 2, 71, 90
4, 300480, Note_on_c, 2, 71, 0
4, 300480, Note_on_c, 2, 83, 90
4, 300792, Note_on_c, 2, 83, 0
4, 300960, Note_on_c, 2, 83, 90
4, 301272, Note_on_c, 2, 83, 0
4, 301440, Note_on_c, 2, 83, 90
4, 301920, Note_on_c, 2, 83, 0
4, 301920, Note_on_c, 2, 81, 90
4, 302040, Note_on_c, 2, 81, 0
4, 302040, Note_on_c, 2, 80, 90
4, 302160, Note_on_c, 2, 80, 0
4, 302160, Note_on_c, 2, 78, 90
4, 302280, Note_on_c, 2, 78, 0
4, 302280, Note_on_c, 2, 76, 90
4, 302376, Note_on_c, 2, 76, 0
4, 302400, Note_on_c, 2, 88, 90
4, 302880, Note_on_c, 2, 88, 0
4, 302880, Note_on_c, 2, 87, 90
4, 303000, Note_on_c, 2, 87, 0
4, 303000, Note_on_c, 2, 85, 90
4, 303120, Note_on_c, 2, 85, 0
4, 303120, Note_on_c, 2, 83, 90
4, 303240, Note_on_c, 2, 83, 0
4, 303240, Note_on_c, 2, 81, 90
4, 303336, Note_on_c, 2, 81, 0
4, 303360, Note_on_c, 2, 83, 90
4, 303840, Note_on_c, 2, 83, 0
4, 303840, Note_on_c, 2, 81, 90
4, 303960, Note_on_c, 2, 81, 0
4, 303960, Note_on_c, 2, 80, 90
4, 304080, Note_on_c, 2, 80, 0
4, 304080, Note_on_c, 2, 78, 90
4, 304200, Note_on_c, 2, 78, 0
4, 304200, Note_on_c, 2, 76, 90
4, 304296, Note_on_c, 2, 76, 0
4, 304320, Note_on_c, 2, 88, 90
4, 304800, Note_on_c, 2, 88, 0
4, 304800, Note_on_c, 2, 87, 90
4, 304920, Note_on_c, 2, 87, 0
4, 304920, Note_on_c, 2, 85, 90
4, 305040, Note_on_c, 2, 85, 0
4, 305040, Note_on_c, 2, 83, 90
4, 305160, Note_on_c, 2, 83, 0
4, 305160, Note_on_c, 2, 81, 90
4, 305256, Note_on_c, 2, 81, 0
4, 305280, Note_on_c, 2, 83, 90
4, 305760, Note_on_c, 2, 83, 0
4, 305760, Note_on_c, 2, 81, 90
4, 305880, Note_on_c, 2, 81, 0
4, 305880, Note_on_c, 2, 80, 90
4, 306000, Note_on_c, 2, 80, 0
4, 306000, Note_on_c, 2, 78, 90
4, 306120, Note_on_c, 2, 78, 0
4, 306120, Note_on_c, 2, 76, 90
4, 306216, Note_on_c, 2, 76, 0
4, 306240, Note_on_c, 2, 75, 90
4, 306552, Note_on_c, 2, 75, 0
4, 306720, Note_on_c, 2, 76, 90
4, 307032, Note_on_c, 2, 76, 0
4, 307200, Note_on_c, 2, 80, 90
4, 307680, Note_on_c, 2, 80, 0
4, 307680, Note_on_c, 2, 78, 87
4, 307872, Note_on_c, 2, 78, 0
4, 308040, Note_on_c, 2, 59, 90
4, 308160, Note_on_c, 2, 59, 0
4, 308160, Note_on_c, 2, 71, 90
4, 308472, Note_on_c, 2, 71, 0
4, 308640, Note_on_c, 2, 71, 90
4, 308952, Note_on_c, 2, 71, 0
4, 309120, Note_on_c, 2, 71, 90
4, 309840, Note_on_c, 2, 71, 0
4, 309840, Note_on_c, 2, 69, 90
4, 309900, Note_on_c, 2, 69, 0
4, 309900, Note_on_c, 2, 68, 90
4, 309960, Note_on_c, 2, 68, 0
4, 309960, Note_on_c, 2, 66, 90
4, 310020, Note_on_c, 2, 66, 0
4, 310020, Note_on_c, 2, 64, 90
4, 310080, Note_on_c, 2, 64, 0
4, 310080, Note_on_c, 2, 63, 90
4, 310368, Note_on_c, 2, 63, 0
4, 310560, Note_on_c, 2, 64, 90
4, 310848, Note_on_c, 2, 64, 0
4, 311040, Note_on_c, 2, 66, 86
4, 311424, Note_on_c, 2, 66, 0
4, 311880, Note_on_c, 2, 59, 90
4, 312000, Note_on_c, 2, 59, 0
4, 312000, Note_on_c, 2, 71, 90
4, 312144, Note_on_c, 2, 71, 0
4, 312240, Note_on_c, 2, 71, 90
4, 312384, Note_on_c, 2, 71, 0
4, 312480, Note_on_c, 2, 71, 90
4, 312624, Note_on_c, 2, 71, 0
4, 312720, Note_on_c, 2, 71, 90
4, 312864, Note_on_c, 2, 71, 0
4, 312960, Note_on_c, 2, 71, 90
4, 313680, Note_on_c, 2, 71, 0
4, 313680, Note_on_c, 2, 69, 90
4, 313760, Note_on_c, 2, 69, 0
4, 313760, Note_on_c, 2, 68, 90
4, 313840, Note_on_c, 2, 68, 0
4, 313840, Note_on_c, 2, 66, 90
4, 313920, Note_on_c, 2, 66, 0
4, 313920, Note_on_c, 2, 64, 90
4, 314208, Note_on_c, 2, 64, 0
4, 314400, Note_on_c, 2, 66, 90
4, 314688, Note_on_c, 2, 66, 0
4, 314880, Note_on_c, 2, 68, 80
4, 315264, Note_on_c, 2, 68, 0
4, 315720, Note_on_c, 2, 59, 80
4, 315840, Note_on_c, 2, 59, 0
4, 315840, Note_on_c, 2, 71, 80
4, 315984, Note_on_c, 2, 71, 0
4, 316080, Note_on_c, 2, 71, 80
4, 316224, Note_on_c, 2, 71, 0
4, 316320, Note_on_c, 2, 71, 80
4, 316464, Note_on_c, 2, 71, 0
4, 316560, Note_on_c, 2, 71, 80
4, 316704, Note_on_c, 2, 71, 0
4, 316800, Note_on_c, 2, 71, 80
4, 317280, Note_on_c, 2, 71, 0
4, 317280, Note_on_c, 2, 69, 80
4, 317400, Note_on_c, 2, 69, 0
4, 317400, Note_on_c, 2, 68, 80
4, 317520, Note_on_c, 2, 68, 0
4, 317520, Note_on_c, 2, 66, 80
4, 317640, Note_on_c, 2, 66, 0
4, 317640, Note_on_c, 2, 64, 80
4, 317736, Note_on_c, 2, 64, 0
4, 317760, Note_on_c, 2, 76, 80
4, 318240, Note_on_c, 2, 76, 0
4, 318240, Note_on_c, 2, 75, 80
4, 318360, Note_on_c, 2, 75, 0
4, 318360, Note_on_c, 2, 73, 80
4, 318480, Note_on_c, 2, 73, 0
4, 318480, Note_on_c, 2, 71, 80
4, 318600, Note_on_c, 2, 71, 0
4, 318600, Note_on_c, 2, 69, 80
4, 318696, Note_on_c, 2, 69, 0
4, 318720, Note_on_c, 2, 70, 80
4, 318840, Note_on_c, 2, 70, 0
4, 318840, Note_on_c, 2, 71, 80
4, 318960, Note_on_c, 2, 71, 0
4, 318960, Note_on_c, 2, 73, 80
4, 319080, Note_on_c, 2, 73, 0
4, 319080, Note_on_c, 2, 71, 80
4, 319200, Note_on_c, 2, 71, 0
4, 319200, Note_on_c, 2, 69, 80
4, 319320, Note_on_c, 2, 69, 0
4, 319320, Note_on_c, 2, 68, 80
4, 319440, Note_on_c, 2, 68, 0
4, 319440, Note_on_c, 2, 66, 80
4, 319560, Note_on_c, 2, 66, 0
4, 319560, Note_on_c, 2, 64, 80
4, 319656, Note_on_c, 2, 64, 0
4, 319680, Note_on_c, 2, 75, 80
4, 319800, Note_on_c, 2, 75, 0
4, 319800, Note_on_c, 2, 76, 80
4, 319920, Note_on_c, 2, 76, 0
4, 319920, Note_on_c, 2, 78, 80
4, 320040, Note_on_c, 2, 78, 0
4, 320040, Note_on_c, 2, 76, 80
4, 320160, Note_on_c, 2, 76, 0
4, 320160, Note_on_c, 2, 75, 80
4, 320280, Note_on_c, 2, 75, 0
4, 320280, Note_on_c, 2, 73, 80
4, 320400, Note_on_c, 2, 73, 0
4, 320400, Note_on_c, 2, 71, 80
4, 320520, Note_on_c, 2, 71, 0
4, 320520, Note_on_c, 2, 69, 80
4, 320616, Note_on_c, 2, 69, 0
4, 320640, Note_on_c, 2, 71, 80
4, 321000, Note_on_c, 2, 71, 0
4, 321000, Note_on_c, 2, 68, 80
4, 321096, Note_on_c, 2, 68, 0
4, 321120, Note_on_c, 2, 66, 80
4, 321480, Note_on_c, 2, 66, 0
4, 321480, Note_on_c, 2, 69, 80
4, 321576, Note_on_c, 2, 69, 0
4, 321600, Note_on_c, 2, 64, 80
4, 322080, Note_on_c, 2, 64, 0
4, 322080, Note_on_c, 2, 68, 80
4, 322200, Note_on_c, 2, 68, 0
4, 322200, Note_on_c, 2, 63, 80
4, 322200, Note_on_c, 2, 66, 80
4, 322488, Note_on_c, 2, 66, 0
4, 322488, Note_on_c, 2, 63, 0
4, 322680, Note_on_c, 2, 71, 80
4, 322776, Note_on_c, 2, 71, 0
4, 322800, Note_on_c, 2, 76, 80
4, 322896, Note_on_c, 2, 76, 0
4, 322920, Note_on_c, 2, 80, 80
4, 323016, Note_on_c, 2, 80, 0
4, 323040, Note_on_c, 2, 83, 80
4, 323136, Note_on_c, 2, 83, 0
4, 323160, Note_on_c, 2, 80, 80
4, 323256, Note_on_c, 2, 80, 0
4, 323280, Note_on_c, 2, 76, 80
4, 323376, Note_on_c, 2, 76, 0
4, 323400, Note_on_c, 2, 71, 80
4, 323496, Note_on_c, 2, 71, 0
4, 323520, Note_on_c, 2, 80, 80
4, 323616, Note_on_c, 2, 80, 0
4, 323640, Note_on_c, 2, 76, 80
4, 323736, Note_on_c, 2, 76, 0
4, 323760, Note_on_c, 2, 71, 80
4, 323856, Note_on_c, 2, 71, 0
4, 323880, Note_on_c, 2, 68, 80
4, 323976, Note_on_c, 2, 68, 0
4, 324000, Note_on_c, 2, 76, 80
4, 324096, Note_on_c, 2, 76, 0
4, 324120, Note_on_c, 2, 71, 80
4, 324216, Note_on_c, 2, 71, 0
4, 324240, Note_on_c, 2, 68, 80
4, 324336, Note_on_c, 2, 68, 0
4, 324360, Note_on_c, 2, 64, 80
4, 324456, Note_on_c, 2, 64, 0
4, 324480, Note_on_c, 2, 71, 80
4, 324576, Note_on_c, 2, 71, 0
4, 324600, Note_on_c, 2, 68, 80
4, 324696, Note_on_c, 2, 68, 0
4, 324720, Note_on_c, 2, 64, 80
4, 324816, Note_on_c, 2, 64, 0
4, 324840, Note_on_c, 2, 59, 80
4, 324936, Note_on_c, 2, 59, 0
4, 324960, Note_on_c, 2, 68, 80
4, 325056, Note_on_c, 2, 68, 0
4, 325080, Note_on_c, 2, 64, 80
4, 325176, Note_on_c, 2, 64, 0
4, 325200, Note_on_c, 2, 59, 80
4, 325296, Note_on_c, 2, 59, 0
4, 325320, Note_on_c, 2, 56, 80
4, 325416, Note_on_c, 2, 56, 0
4, 326520, Note_on_c, 2, 71, 80
4, 326616, Note_on_c, 2, 71, 0
4, 326640, Note_on_c, 2, 76, 80
4, 326736, Note_on_c, 2, 76, 0
4, 326760, Note_on_c, 2, 80, 80
4, 326856, Note_on_c, 2, 80, 0
4, 326880, Note_on_c, 2, 83, 80
4, 326976, Note_on_c, 2, 83, 0
4, 327000, Note_on_c, 2, 80, 80
4, 327096, Note_on_c, 2, 80, 0
4, 327120, Note_on_c, 2, 76, 80
4, 327216, Note_on_c, 2, 76, 0
4, 327240, Note_on_c, 2, 71, 80
4, 327336, Note_on_c, 2, 71, 0
4, 327360, Note_on_c, 2, 80, 80
4, 327456, Note_on_c, 2, 80, 0
4, 327480, Note_on_c, 2, 76, 80
4, 327576, Note_on_c, 2, 76, 0
4, 327600, Note_on_c, 2, 71, 80
4, 327696, Note_on_c, 2, 71, 0
4, 327720, Note_on_c, 2, 68, 80
4, 327816, Note_on_c, 2, 68, 0
4, 327840, Note_on_c, 2, 76, 80
4, 327936, Note_on_c, 2, 76, 0
4, 327960, Note_on_c, 2, 71, 80
4, 328056, Note_on_c, 2, 71, 0
4, 328080, Note_on_c, 2, 68, 80
4, 328176, Note_on_c, 2, 68, 0
4, 328200, Note_on_c, 2, 64, 80
4, 328296, Note_on_c, 2, 64, 0
4, 328320, Note_on_c, 2, 71, 80
4, 328416, Note_on_c, 2, 71, 0
4, 328440, Note_on_c, 2, 68, 80
4, 328536, Note_on_c, 2, 68, 0
4, 328560, Note_on_c, 2, 64, 80
4, 328656, Note_on_c, 2, 64, 0
4, 328680, Note_on_c, 2, 59, 80
4, 328776, Note_on_c, 2, 59, 0
4, 328800, Note_on_c, 2, 68, 80
4, 328896, Note_on_c, 2, 68, 0
4, 328920, Note_on_c, 2, 64, 80
4, 329016, Note_on_c, 2, 64, 0
4, 329040, Note_on_c, 2, 59, 80
4, 329136, Note_on_c, 2, 59, 0
4, 329160, Note_on_c, 2, 56, 80
4, 329256, Note_on_c, 2, 56, 0
4, 330240, Note_on_c, 2, 61, 83
4, 330960, Note_on_c, 2, 61, 0
4, 330960, Note_on_c, 2, 85, 88
4, 331104, Note_on_c, 2, 85, 0
4, 331200, Note_on_c, 2, 85, 88
4, 331344, Note_on_c, 2, 85, 0
4, 331440, Note_on_c, 2, 85, 88
4, 331584, Note_on_c, 2, 85, 0
4, 331680, Note_on_c, 2, 85, 88
4, 331824, Note_on_c, 2, 85, 0
4, 331920, Note_on_c, 2, 85, 88
4, 332064, Note_on_c, 2, 85, 0
4, 332160, Note_on_c, 2, 85, 88
4, 332880, Note_on_c, 2, 85, 0
4, 332880, Note_on_c, 2, 83, 88
4, 332960, Note_on_c, 2, 83, 0
4, 332960, Note_on_c, 2, 81, 88
4, 333040, Note_on_c, 2, 81, 0
4, 333040, Note_on_c, 2, 80, 88
4, 333120, Note_on_c, 2, 80, 0
4, 333120, Note_on_c, 2, 78, 88
4, 333432, Note_on_c, 2, 78, 0
4, 333600, Note_on_c, 2, 78, 88
4, 333912, Note_on_c, 2, 78, 0
4, 334080, Note_on_c, 2, 77, 88
4, 334560, Note_on_c, 2, 77, 0
4, 334560, Note_on_c, 2, 80, 83
4, 334944, Note_on_c, 2, 80, 0
4, 336480, Note_on_c, 2, 73, 80
4, 336960, Note_on_c, 2, 73, 0
4, 336960, Note_on_c, 2, 78, 80
4, 337440, Note_on_c, 2, 78, 0
4, 337440, Note_on_c, 2, 81, 80
4, 337824, Note_on_c, 2, 81, 0
4, 337920, Note_on_c, 2, 80, 80
4, 338280, Note_on_c, 2, 80, 0
4, 338280, Note_on_c, 2, 77, 80
4, 338400, Note_on_c, 2, 77, 0
4, 338400, Note_on_c, 2, 73, 80
4, 338544, Note_on_c, 2, 73, 0
4, 338640, Note_on_c, 2, 85, 88
4, 338784, Note_on_c, 2, 85, 0
4, 338880, Note_on_c, 2, 85, 88
4, 339024, Note_on_c, 2, 85, 0
4, 339120, Note_on_c, 2, 85, 88
4, 339264, Note_on_c, 2, 85, 0
4, 339360, Note_on_c, 2, 85, 88
4, 339504, Note_on_c, 2, 85, 0
4, 339600, Note_on_c, 2, 85, 88
4, 339744, Note_on_c, 2, 85, 0
4, 339840, Note_on_c, 2, 85, 88
4, 340560, Note_on_c, 2, 85, 0
4, 340560, Note_on_c, 2, 83, 88
4, 340640, Note_on_c, 2, 83, 0
4, 340640, Note_on_c, 2, 81, 88
4, 340720, Note_on_c, 2, 81, 0
4, 340720, Note_on_c, 2, 80, 88
4, 340800, Note_on_c, 2, 80, 0
4, 340800, Note_on_c, 2, 78, 88
4, 340944, Note_on_c, 2, 78, 0
4, 341040, Note_on_c, 2, 78, 88
4, 341184, Note_on_c, 2, 78, 0
4, 341280, Note_on_c, 2, 78, 88
4, 341424, Note_on_c, 2, 78, 0
4, 341520, Note_on_c, 2, 78, 88
4, 341664, Note_on_c, 2, 78, 0
4, 341760, Note_on_c, 2, 77, 88
4, 342240, Note_on_c, 2, 77, 0
4, 342240, Note_on_c, 2, 80, 83
4, 342624, Note_on_c, 2, 80, 0
4, 344160, Note_on_c, 2, 73, 80
4, 344640, Note_on_c, 2, 73, 0
4, 344640, Note_on_c, 2, 78, 80
4, 345120, Note_on_c, 2, 78, 0
4, 345120, Note_on_c, 2, 81, 80
4, 345600, Note_on_c, 2, 81, 0
4, 345600, Note_on_c, 2, 80, 90
4, 345696, Note_on_c, 2, 80, 0
4, 345720, Note_on_c, 2, 85, 90
4, 345816, Note_on_c, 2, 85, 0
4, 345840, Note_on_c, 2, 80, 90
4, 345936, Note_on_c, 2, 80, 0
4, 345960, Note_on_c, 2, 77, 90
4, 346056, Note_on_c, 2, 77, 0
4, 346080, Note_on_c, 2, 73, 90
4, 346176, Note_on_c, 2, 73, 0
4, 346200, Note_on_c, 2, 85, 90
4, 346296, Note_on_c, 2, 85, 0
4, 346320, Note_on_c, 2, 73, 90
4, 346416, Note_on_c, 2, 73, 0
4, 346440, Note_on_c, 2, 85, 90
4, 346536, Note_on_c, 2, 85, 0
4, 346560, Note_on_c, 2, 73, 90
4, 346656, Note_on_c, 2, 73, 0
4, 346680, Note_on_c, 2, 85, 90
4, 346776, Note_on_c, 2, 85, 0
4, 346800, Note_on_c, 2, 73, 90
4, 346896, Note_on_c, 2, 73, 0
4, 346920, Note_on_c, 2, 85, 90
4, 347016, Note_on_c, 2, 85, 0
4, 347040, Note_on_c, 2, 77, 90
4, 347136, Note_on_c, 2, 77, 0
4, 347160, Note_on_c, 2, 85, 90
4, 347256, Note_on_c, 2, 85, 0
4, 347280, Note_on_c, 2, 77, 90
4, 347376, Note_on_c, 2, 77, 0
4, 347400, Note_on_c, 2, 85, 90
4, 347496, Note_on_c, 2, 85, 0
4, 347520, Note_on_c, 2, 78, 90
4, 347616, Note_on_c, 2, 78, 0
4, 347640, Note_on_c, 2, 85, 90
4, 347736, Note_on_c, 2, 85, 0
4, 347760, Note_on_c, 2, 78, 90
4, 347856, Note_on_c, 2, 78, 0
4, 347880, Note_on_c, 2, 85, 90
4, 347976, Note_on_c, 2, 85, 0
4, 348000, Note_on_c, 2, 80, 90
4, 348096, Note_on_c, 2, 80, 0
4, 348120, Note_on_c, 2, 85, 90
4, 348216, Note_on_c, 2, 85, 0
4, 348240, Note_on_c, 2, 80, 90
4, 348336, Note_on_c, 2, 80, 0
4, 348360, Note_on_c, 2, 85, 90
4, 348456, Note_on_c, 2, 85, 0
4, 348480, Note_on_c, 2, 81, 90
4, 348576, Note_on_c, 2, 81, 0
4, 348600, Note_on_c, 2, 85, 90
4, 348696, Note_on_c, 2, 85, 0
4, 348720, Note_on_c, 2, 81, 90
4, 348816, Note_on_c, 2, 81, 0
4, 348840, Note_on_c, 2, 85, 90
4, 348936, Note_on_c, 2, 85, 0
4, 348960, Note_on_c, 2, 78, 90
4, 349056, Note_on_c, 2, 78, 0
4, 349080, Note_on_c, 2, 85, 90
4, 349176, Note_on_c, 2, 85, 0
4, 349200, Note_on_c, 2, 78, 90
4, 349296, Note_on_c, 2, 78, 0
4, 349320, Note_on_c, 2, 85, 90
4, 349416, Note_on_c, 2, 85, 0
4, 349440, Note_on_c, 2, 74, 90
4, 349536, Note_on_c, 2, 74, 0
4, 349560, Note_on_c, 2, 78, 90
4, 349656, Note_on_c, 2, 78, 0
4, 349680, Note_on_c, 2, 85, 90
4, 349776, Note_on_c, 2, 85, 0
4, 349800, Note_on_c, 2, 78, 90
4, 349896, Note_on_c, 2, 78, 0
4, 349920, Note_on_c, 2, 85, 90
4, 350016, Note_on_c, 2, 85, 0
4, 350040, Note_on_c, 2, 78, 90
4, 350136, Note_on_c, 2, 78, 0
4, 350160, Note_on_c, 2, 85, 90
4, 350256, Note_on_c, 2, 85, 0
4, 350280, Note_on_c, 2, 78, 90
4, 350376, Note_on_c, 2, 78, 0
4, 350400, Note_on_c, 2, 74, 90
4, 350496, Note_on_c, 2, 74, 0
4, 350520, Note_on_c, 2, 78, 90
4, 350616, Note_on_c, 2, 78, 0
4, 350640, Note_on_c, 2, 86, 90
4, 350736, Note_on_c, 2, 86, 0
4, 350760, Note_on_c, 2, 78, 90
4, 350856, Note_on_c, 2, 78, 0
4, 350880, Note_on_c, 2, 74, 90
4, 350976, Note_on_c, 2, 74, 0
4, 351000, Note_on_c, 2, 78, 90
4, 351096, Note_on_c, 2, 78, 0
4, 351120, Note_on_c, 2, 85, 90
4, 351216, Note_on_c, 2, 85, 0
4, 351240, Note_on_c, 2, 78, 90
4, 351336, Note_on_c, 2, 78, 0
4, 351360, Note_on_c, 2, 74, 90
4, 351456, Note_on_c, 2, 74, 0
4, 351480, Note_on_c, 2, 76, 90
4, 351576, Note_on_c, 2, 76, 0
4, 351600, Note_on_c, 2, 83, 90
4, 351696, Note_on_c, 2, 83, 0
4, 351720, Note_on_c, 2, 76, 90
4, 351816, Note_on_c, 2, 76, 0
4, 351840, Note_on_c, 2, 74, 90
4, 351936, Note_on_c, 2, 74, 0
4, 351960, Note_on_c, 2, 76, 90
4, 352056, Note_on_c, 2, 76, 0
4, 352080, Note_on_c, 2, 81, 90
4, 352176, Note_on_c, 2, 81, 0
4, 352200, Note_on_c, 2, 76, 90
4, 352296, Note_on_c, 2, 76, 0
4, 352320, Note_on_c, 2, 74, 90
4, 352416, Note_on_c, 2, 74, 0
4, 352440, Note_on_c, 2, 76, 90
4, 352536, Note_on_c, 2, 76, 0
4, 352560, Note_on_c, 2, 80, 90
4, 352656, Note_on_c, 2, 80, 0
4, 352680, Note_on_c, 2, 76, 90
4, 352776, Note_on_c, 2, 76, 0
4, 352800, Note_on_c, 2, 74, 90
4, 352896, Note_on_c, 2, 74, 0
4, 352920, Note_on_c, 2, 76, 90
4, 353016, Note_on_c, 2, 76, 0
4, 353040, Note_on_c, 2, 83, 90
4, 353136, Note_on_c, 2, 83, 0
4, 353160, Note_on_c, 2, 76, 90
4, 353256, Note_on_c, 2, 76, 0
4, 353280, Note_on_c, 2, 73, 90
4, 353376, Note_on_c, 2, 73, 0
4, 353400, Note_on_c, 2, 76, 90
4, 353496, Note_on_c, 2, 76, 0
4, 353520, Note_on_c, 2, 83, 90
4, 353616, Note_on_c, 2, 83, 0
4, 353640, Note_on_c, 2, 76, 90
4, 353736, Note_on_c, 2, 76, 0
4, 353760, Note_on_c, 2, 83, 90
4, 353856, Note_on_c, 2, 83, 0
4, 353880, Note_on_c, 2, 76, 90
4, 353976, Note_on_c, 2, 76, 0
4, 354000, Note_on_c, 2, 83, 90
4, 354096, Note_on_c, 2, 83, 0
4, 354120, Note_on_c, 2, 76, 90
4, 354216, Note_on_c, 2, 76, 0
4, 354240, Note_on_c, 2, 73, 90
4, 354336, Note_on_c, 2, 73, 0
4, 354360, Note_on_c, 2, 76, 90
4, 354456, Note_on_c, 2, 76, 0
4, 354480, Note_on_c, 2, 85, 90
4, 354576, Note_on_c, 2, 85, 0
4, 354600, Note_on_c, 2, 76, 90
4, 354696, Note_on_c, 2, 76, 0
4, 354720, Note_on_c, 2, 73, 90
4, 354816, Note_on_c, 2, 73, 0
4, 354840, Note_on_c, 2, 76, 90
4, 354936, Note_on_c, 2, 76, 0
4, 354960, Note_on_c, 2, 83, 90
4, 355056, Note_on_c, 2, 83, 0
4, 355080, Note_on_c, 2, 76, 90
4, 355176, Note_on_c, 2, 76, 0
4, 355200, Note_on_c, 2, 73, 90
4, 355296, Note_on_c, 2, 73, 0
4, 355320, Note_on_c, 2, 74, 90
4, 355416, Note_on_c, 2, 74, 0
4, 355440, Note_on_c, 2, 81, 90
4, 355536, Note_on_c, 2, 81, 0
4, 355560, Note_on_c, 2, 74, 90
4, 355656, Note_on_c, 2, 74, 0
4, 355680, Note_on_c, 2, 73, 90
4, 355776, Note_on_c, 2, 73, 0
4, 355800, Note_on_c, 2, 74, 90
4, 355896, Note_on_c, 2, 74, 0
4, 355920, Note_on_c, 2, 80, 90
4, 356016, Note_on_c, 2, 80, 0
4, 356040, Note_on_c, 2, 74, 90
4, 356136, Note_on_c, 2, 74, 0
4, 356160, Note_on_c, 2, 73, 90
4, 356256, Note_on_c, 2, 73, 0
4, 356280, Note_on_c, 2, 74, 90
4, 356376, Note_on_c, 2, 74, 0
4, 356400, Note_on_c, 2, 78, 90
4, 356496, Note_on_c, 2, 78, 0
4, 356520, Note_on_c, 2, 74, 90
4, 356616, Note_on_c, 2, 74, 0
4, 356640, Note_on_c, 2, 73, 90
4, 356736, Note_on_c, 2, 73, 0
4, 356760, Note_on_c, 2, 74, 90
4, 356856, Note_on_c, 2, 74, 0
4, 356880, Note_on_c, 2, 81, 90
4, 356976, Note_on_c, 2, 81, 0
4, 357000, Note_on_c, 2, 74, 90
4, 357096, Note_on_c, 2, 74, 0
4, 357120, Note_on_c, 2, 71, 90
4, 357216, Note_on_c, 2, 71, 0
4, 357240, Note_on_c, 2, 74, 90
4, 357336, Note_on_c, 2, 74, 0
4, 357360, Note_on_c, 2, 81, 90
4, 357456, Note_on_c, 2, 81, 0
4, 357480, Note_on_c, 2, 74, 90
4, 357576, Note_on_c, 2, 74, 0
4, 357600, Note_on_c, 2, 81, 90
4, 357696, Note_on_c, 2, 81, 0
4, 357720, Note_on_c, 2, 74, 90
4, 357816, Note_on_c, 2, 74, 0
4, 357840, Note_on_c, 2, 81, 90
4, 357936, Note_on_c, 2, 81, 0
4, 357960, Note_on_c, 2, 74, 90
4, 358056, Note_on_c, 2, 74, 0
4, 358080, Note_on_c, 2, 71, 90
4, 358176, Note_on_c, 2, 71, 0
4, 358200, Note_on_c, 2, 74, 90
4, 358296, Note_on_c, 2, 74, 0
4, 358320, Note_on_c, 2, 83, 90
4, 358416, Note_on_c, 2, 83, 0
4, 358440, Note_on_c, 2, 74, 90
4, 358536, Note_on_c, 2, 74, 0
4, 358560, Note_on_c, 2, 71, 90
4, 358656, Note_on_c, 2, 71, 0
4, 358680, Note_on_c, 2, 74, 90
4, 358776, Note_on_c, 2, 74, 0
4, 358800, Note_on_c, 2, 81, 90
4, 358896, Note_on_c, 2, 81, 0
4, 358920, Note_on_c, 2, 74, 90
4, 359016, Note_on_c, 2, 74, 0
4, 359040, Note_on_c, 2, 71, 90
4, 359136, Note_on_c, 2, 71, 0
4, 359160, Note_on_c, 2, 73, 90
4, 359256, Note_on_c, 2, 73, 0
4, 359280, Note_on_c, 2, 80, 90
4, 359376, Note_on_c, 2, 80, 0
4, 359400, Note_on_c, 2, 73, 90
4, 359496, Note_on_c, 2, 73, 0
4, 359520, Note_on_c, 2, 71, 90
4, 359616, Note_on_c, 2, 71, 0
4, 359640, Note_on_c, 2, 73, 90
4, 359736, Note_on_c, 2, 73, 0
4, 359760, Note_on_c, 2, 78, 90
4, 359856, Note_on_c, 2, 78, 0
4, 359880, Note_on_c, 2, 73, 90
4, 359976, Note_on_c, 2, 73, 0
4, 360000, Note_on_c, 2, 71, 90
4, 360096, Note_on_c, 2, 71, 0
4, 360120, Note_on_c, 2, 73, 90
4, 360216, Note_on_c, 2, 73, 0
4, 360240, Note_on_c, 2, 77, 90
4, 360336, Note_on_c, 2, 77, 0
4, 360360, Note_on_c, 2, 73, 90
4, 360456, Note_on_c, 2, 73, 0
4, 360480, Note_on_c, 2, 71, 90
4, 360576, Note_on_c, 2, 71, 0
4, 360600, Note_on_c, 2, 73, 90
4, 360696, Note_on_c, 2, 73, 0
4, 360720, Note_on_c, 2, 80, 90
4, 360816, Note_on_c, 2, 80, 0
4, 360840, Note_on_c, 2, 73, 90
4, 360936, Note_on_c, 2, 73, 0
4, 361080, Note_on_c, 2, 69, 69
4, 361176, Note_on_c, 2, 69, 0
4, 361200, Note_on_c, 2, 73, 70
4, 361296, Note_on_c, 2, 73, 0
4, 361320, Note_on_c, 2, 78, 70
4, 361416, Note_on_c, 2, 78, 0
4, 361440, Note_on_c, 2, 81, 71
4, 361536, Note_on_c, 2, 81, 0
4, 361560, Note_on_c, 2, 78, 72
4, 361656, Note_on_c, 2, 78, 0
4, 361680, Note_on_c, 2, 73, 73
4, 361776, Note_on_c, 2, 73, 0
4, 361800, Note_on_c, 2, 69, 73
4, 361896, Note_on_c, 2, 69, 0
4, 362040, Note_on_c, 2, 70, 75
4, 362136, Note_on_c, 2, 70, 0
4, 362160, Note_on_c, 2, 73, 75
4, 362256, Note_on_c, 2, 73, 0
4, 362280, Note_on_c, 2, 79, 76
4, 362376, Note_on_c, 2, 79, 0
4, 362400, Note_on_c, 2, 82, 77
4, 362496, Note_on_c, 2, 82, 0
4, 362520, Note_on_c, 2, 79, 77
4, 362616, Note_on_c, 2, 79, 0
4, 362640, Note_on_c, 2, 73, 78
4, 362736, Note_on_c, 2, 73, 0
4, 362760, Note_on_c, 2, 70, 79
4, 362856, Note_on_c, 2, 70, 0
4, 363000, Note_on_c, 2, 71, 80
4, 363096, Note_on_c, 2, 71, 0
4, 363120, Note_on_c, 2, 75, 81
4, 363216, Note_on_c, 2, 75, 0
4, 363240, Note_on_c, 2, 78, 82
4, 363336, Note_on_c, 2, 78, 0
4, 363360, Note_on_c, 2, 83, 82
4, 363456, Note_on_c, 2, 83, 0
4, 363480, Note_on_c, 2, 78, 83
4, 363576, Note_on_c, 2, 78, 0
4, 363600, Note_on_c, 2, 75, 84
4, 363696, Note_on_c, 2, 75, 0
4, 363720, Note_on_c, 2, 71, 84
4, 363816, Note_on_c, 2, 71, 0
4, 363960, Note_on_c, 2, 72, 86
4, 364056, Note_on_c, 2, 72, 0
4, 364080, Note_on_c, 2, 78, 86
4, 364176, Note_on_c, 2, 78, 0
4, 364200, Note_on_c, 2, 81, 87
4, 364296, Note_on_c, 2, 81, 0
4, 364320, Note_on_c, 2, 84, 88
4, 364416, Note_on_c, 2, 84, 0
4, 364440, Note_on_c, 2, 81, 89
4, 364536, Note_on_c, 2, 81, 0
4, 364560, Note_on_c, 2, 78, 89
4, 364656, Note_on_c, 2, 78, 0
4, 364680, Note_on_c, 2, 72, 90
4, 364776, Note_on_c, 2, 72, 0
4, 364920, Note_on_c, 2, 73, 91
4, 365016, Note_on_c, 2, 73, 0
4, 365040, Note_on_c, 2, 77, 92
4, 365136, Note_on_c, 2, 77, 0
4, 365160, Note_on_c, 2, 80, 93
4, 365256, Note_on_c, 2, 80, 0
4, 365280, Note_on_c, 2, 85, 95
4, 365376, Note_on_c, 2, 85, 0
4, 365400, Note_on_c, 2, 80, 96
4, 365496, Note_on_c, 2, 80, 0
4, 365520, Note_on_c, 2, 77, 98
4, 365616, Note_on_c, 2, 77, 0
4, 365640, Note_on_c, 2, 73, 99
4, 365736, Note_on_c, 2, 73, 0
4, 365880, Note_on_c, 2, 74, 102
4, 365976, Note_on_c, 2, 74, 0
4, 366000, Note_on_c, 2, 77, 103
4, 366096, Note_on_c, 2, 77, 0
4, 366120, Note_on_c, 2, 80, 105
4, 366216, Note_on_c, 2, 80, 0
4, 366240, Note_on_c, 2, 86, 106
4, 366336, Note_on_c, 2, 86, 0
4, 366360, Note_on_c, 2, 80, 108
4, 366456, Note_on_c, 2, 80, 0
4, 366480, Note_on_c, 2, 77, 109
4, 366576, Note_on_c, 2, 77, 0
4, 366600, Note_on_c, 2, 74, 110
4, 366696, Note_on_c, 2, 74, 0
4, 366840, Note_on_c, 2, 78, 102
4, 366936, Note_on_c, 2, 78, 0
4, 366960, Note_on_c, 2, 81, 100
4, 367056, Note_on_c, 2, 81, 0
4, 367080, Note_on_c, 2, 85, 98
4, 367176, Note_on_c, 2, 85, 0
4, 367320, Note_on_c, 2, 74, 94
4, 367416, Note_on_c, 2, 74, 0
4, 367440, Note_on_c, 2, 80, 92
4, 367536, Note_on_c, 2, 80, 0
4, 367560, Note_on_c, 2, 83, 90
4, 367656, Note_on_c, 2, 83, 0
4, 367800, Note_on_c, 2, 73, 86
4, 367896, Note_on_c, 2, 73, 0
4, 367920, Note_on_c, 2, 78, 84
4, 368016, Note_on_c, 2, 78, 0
4, 368040, Note_on_c, 2, 81, 82
4, 368136, Note_on_c, 2, 81, 0
4, 368280, Note_on_c, 2, 73, 78
4, 368376, Note_on_c, 2, 73, 0
4, 368400, Note_on_c, 2, 77, 76
4, 368496, Note_on_c, 2, 77, 0
4, 368520, Note_on_c, 2, 80, 74
4, 368616, Note_on_c, 2, 80, 0
4, 368640, Note_on_c, 2, 83, 65
4, 368688, Note_on_c, 2, 83, 0
4, 368700, Note_on_c, 2, 81, 65
4, 368748, Note_on_c, 2, 81, 0
4, 368760, Note_on_c, 2, 83, 65
4, 368808, Note_on_c, 2, 83, 0
4, 368820, Note_on_c, 2, 81, 66
4, 368868, Note_on_c, 2, 81, 0
4, 368880, Note_on_c, 2, 83, 66
4, 368928, Note_on_c, 2, 83, 0
4, 368940, Note_on_c, 2, 81, 67
4, 368988, Note_on_c, 2, 81, 0
4, 369000, Note_on_c, 2, 83, 67
4, 369048, Note_on_c, 2, 83, 0
4, 369060, Note_on_c, 2, 81, 68
4, 369108, Note_on_c, 2, 81, 0
4, 369120, Note_on_c, 2, 83, 68
4, 369168, Note_on_c, 2, 83, 0
4, 369180, Note_on_c, 2, 81, 69
4, 369228, Note_on_c, 2, 81, 0
4, 369240, Note_on_c, 2, 83, 69
4, 369288, Note_on_c, 2, 83, 0
4, 369300, Note_on_c, 2, 81, 70
4, 369348, Note_on_c, 2, 81, 0
4, 369360, Note_on_c, 2, 83, 70
4, 369408, Note_on_c, 2, 83, 0
4, 369420, Note_on_c, 2, 81, 71
4, 369468, Note_on_c, 2, 81, 0
4, 369480, Note_on_c, 2, 83, 71
4, 369528, Note_on_c, 2, 83, 0
4, 369540, Note_on_c, 2, 81, 72
4, 369588, Note_on_c, 2, 81, 0
4, 369600, Note_on_c, 2, 83, 72
4, 369648, Note_on_c, 2, 83, 0
4, 369660, Note_on_c, 2, 82, 73
4, 369708, Note_on_c, 2, 82, 0
4, 369720, Note_on_c, 2, 83, 73
4, 369768, Note_on_c, 2, 83, 0
4, 369780, Note_on_c, 2, 82, 74
4, 369828, Note_on_c, 2, 82, 0
4, 369840, Note_on_c, 2, 83, 74
4, 369888, Note_on_c, 2, 83, 0
4, 369900, Note_on_c, 2, 82, 75
4, 369948, Note_on_c, 2, 82, 0
4, 369960, Note_on_c, 2, 83, 75
4, 370008, Note_on_c, 2, 83, 0
4, 370020, Note_on_c, 2, 82, 76
4, 370068, Note_on_c, 2, 82, 0
4, 370080, Note_on_c, 2, 83, 76
4, 370128, Note_on_c, 2, 83, 0
4, 370140, Note_on_c, 2, 82, 77
4, 370188, Note_on_c, 2, 82, 0
4, 370200, Note_on_c, 2, 83, 77
4, 370248, Note_on_c, 2, 83, 0
4, 370260, Note_on_c, 2, 82, 78
4, 370308, Note_on_c, 2, 82, 0
4, 370320, Note_on_c, 2, 83, 78
4, 370368, Note_on_c, 2, 83, 0
4, 370380, Note_on_c, 2, 82, 79
4, 370428, Note_on_c, 2, 82, 0
4, 370440, Note_on_c, 2, 83, 79
4, 370488, Note_on_c, 2, 83, 0
4, 370500, Note_on_c, 2, 82, 80
4, 370548, Note_on_c, 2, 82, 0
4, 370560, Note_on_c, 2, 85, 80
4, 370608, Note_on_c, 2, 85, 0
4, 370620, Note_on_c, 2, 83, 81
4, 370668, Note_on_c, 2, 83, 0
4, 370680, Note_on_c, 2, 85, 81
4, 370728, Note_on_c, 2, 85, 0
4, 370740, Note_on_c, 2, 83, 82
4, 370788, Note_on_c, 2, 83, 0
4, 370800, Note_on_c, 2, 85, 82
4, 370848, Note_on_c, 2, 85, 0
4, 370860, Note_on_c, 2, 83, 83
4, 370908, Note_on_c, 2, 83, 0
4, 370920, Note_on_c, 2, 85, 83
4, 370968, Note_on_c, 2, 85, 0
4, 370980, Note_on_c, 2, 83, 84
4, 371028, Note_on_c, 2, 83, 0
4, 371040, Note_on_c, 2, 85, 84
4, 371088, Note_on_c, 2, 85, 0
4, 371100, Note_on_c, 2, 83, 85
4, 371148, Note_on_c, 2, 83, 0
4, 371160, Note_on_c, 2, 85, 85
4, 371208, Note_on_c, 2, 85, 0
4, 371220, Note_on_c, 2, 83, 86
4, 371268, Note_on_c, 2, 83, 0
4, 371280, Note_on_c, 2, 85, 86
4, 371328, Note_on_c, 2, 85, 0
4, 371340, Note_on_c, 2, 83, 87
4, 371388, Note_on_c, 2, 83, 0
4, 371400, Note_on_c, 2, 85, 87
4, 371448, Note_on_c, 2, 85, 0
4, 371460, Note_on_c, 2, 83, 88
4, 371508, Note_on_c, 2, 83, 0
4, 371520, Note_on_c, 2, 85, 88
4, 371568, Note_on_c, 2, 85, 0
4, 371580, Note_on_c, 2, 84, 89
4, 371628, Note_on_c, 2, 84, 0
4, 371640, Note_on_c, 2, 85, 89
4, 371688, Note_on_c, 2, 85, 0
4, 371700, Note_on_c, 2, 84, 90
4, 371748, Note_on_c, 2, 84, 0
4, 371760, Note_on_c, 2, 85, 90
4, 371808, Note_on_c, 2, 85, 0
4, 371820, Note_on_c, 2, 84, 91
4, 371868, Note_on_c, 2, 84, 0
4, 371880, Note_on_c, 2, 85, 91
4, 371928, Note_on_c, 2, 85, 0
4, 371940, Note_on_c, 2, 84, 92
4, 371988, Note_on_c, 2, 84, 0
4, 372000, Note_on_c, 2, 85, 92
4, 372048, Note_on_c, 2, 85, 0
4, 372060, Note_on_c, 2, 84, 93
4, 372108, Note_on_c, 2, 84, 0
4, 372120, Note_on_c, 2, 85, 93
4, 372168, Note_on_c, 2, 85, 0
4, 372180, Note_on_c, 2, 84, 94
4, 372228, Note_on_c, 2, 84, 0
4, 372240, Note_on_c, 2, 85, 94
4, 372288, Note_on_c, 2, 85, 0
4, 372300, Note_on_c, 2, 84, 95
4, 372348, Note_on_c, 2, 84, 0
4, 372360, Note_on_c, 2, 85, 95
4, 372408, Note_on_c, 2, 85, 0
4, 372420, Note_on_c, 2, 84, 96
4, 372468, Note_on_c, 2, 84, 0
4, 372480, Note_on_c, 2, 86, 96
4, 372528, Note_on_c, 2, 86, 0
4, 372540, Note_on_c, 2, 85, 97
4, 372588, Note_on_c, 2, 85, 0
4, 372600, Note_on_c, 2, 86, 97
4, 372648, Note_on_c, 2, 86, 0
4, 372660, Note_on_c, 2, 85, 97
4, 372708, Note_on_c, 2, 85, 0
4, 372720, Note_on_c, 2, 86, 98
4, 372768, Note_on_c, 2, 86, 0
4, 372780, Note_on_c, 2, 85, 98
4, 372828, Note_on_c, 2, 85, 0
4, 372840, Note_on_c, 2, 86, 99
4, 372888, Note_on_c, 2, 86, 0
4, 372900, Note_on_c, 2, 85, 99
4, 372948, Note_on_c, 2, 85, 0
4, 372960, Note_on_c, 2, 86, 100
4, 373008, Note_on_c, 2, 86, 0
4, 373020, Note_on_c, 2, 85, 100
4, 373068, Note_on_c, 2, 85, 0
4, 373080, Note_on_c, 2, 86, 101
4, 373128, Note_on_c, 2, 86, 0
4, 373140, Note_on_c, 2, 85, 101
4, 373188, Note_on_c, 2, 85, 0
4, 373200, Note_on_c, 2, 86, 102
4, 373248, Note_on_c, 2, 86, 0
4, 373260, Note_on_c, 2, 85, 102
4, 373308, Note_on_c, 2, 85, 0
4, 373320, Note_on_c, 2, 84, 103
4, 373368, Note_on_c, 2, 84, 0
4, 373380, Note_on_c, 2, 85, 103
4, 373428, Note_on_c, 2, 85, 0
4, 373440, Note_on_c, 2, 86, 102
4, 376224, Note_on_c, 2, 86, 0
4, 395520, Note_on_c, 2, 69, 90
4, 395904, Note_on_c, 2, 69, 0
4, 396000, Note_on_c, 2, 71, 90
4, 396060, Note_on_c, 2, 71, 0
4, 396060, Note_on_c, 2, 69, 90
4, 396120, Note_on_c, 2, 69, 0
4, 396120, Note_on_c, 2, 71, 90
4, 396180, Note_on_c, 2, 71, 0
4, 396180, Note_on_c, 2, 69, 90
4, 396240, Note_on_c, 2, 69, 0
4, 396240, Note_on_c, 2, 71, 90
4, 396300, Note_on_c, 2, 71, 0
4, 396300, Note_on_c, 2, 69, 90
4, 396360, Note_on_c, 2, 69, 0
4, 396360, Note_on_c, 2, 71, 90
4, 396420, Note_on_c, 2, 71, 0
4, 396420, Note_on_c, 2, 69, 90
4, 396480, Note_on_c, 2, 69, 0
4, 396480, Note_on_c, 2, 73, 90
4, 396960, Note_on_c, 2, 73, 0
4, 396960, Note_on_c, 2, 76, 90
4, 397344, Note_on_c, 2, 76, 0
4, 397440, Note_on_c, 2, 76, 90
4, 397560, Note_on_c, 2, 76, 0
4, 397560, Note_on_c, 2, 74, 90
4, 397848, Note_on_c, 2, 74, 0
4, 397920, Note_on_c, 2, 73, 90
4, 398040, Note_on_c, 2, 73, 0
4, 398040, Note_on_c, 2, 71, 90
4, 398328, Note_on_c, 2, 71, 0
4, 398400, Note_on_c, 2, 69, 90
4, 398520, Note_on_c, 2, 69, 0
4, 398520, Note_on_c, 2, 68, 90
4, 398808, Note_on_c, 2, 68, 0
4, 398880, Note_on_c, 2, 66, 90
4, 399000, Note_on_c, 2, 66, 0
4, 399000, Note_on_c, 2, 64, 90
4, 399288, Note_on_c, 2, 64, 0
4, 399360, Note_on_c, 2, 71, 90
4, 399744, Note_on_c, 2, 71, 0
4, 399840, Note_on_c, 2, 73, 90
4, 399900, Note_on_c, 2, 73, 0
4, 399900, Note_on_c, 2, 71, 90
4, 399960, Note_on_c, 2, 71, 0
4, 399960, Note_on_c, 2, 73, 90
4, 400020, Note_on_c, 2, 73, 0
4, 400020, Note_on_c, 2, 71, 90
4, 400080, Note_on_c, 2, 71, 0
4, 400080, Note_on_c, 2, 73, 90
4, 400140, Note_on_c, 2, 73, 0
4, 400140, Note_on_c, 2, 71, 90
4, 400200, Note_on_c, 2, 71, 0
4, 400200, Note_on_c, 2, 73, 90
4, 400260, Note_on_c, 2, 73, 0
4, 400260, Note_on_c, 2, 71, 90
4, 400320, Note_on_c, 2, 71, 0
4, 400320, Note_on_c, 2, 74, 90
4, 400800, Note_on_c, 2, 74, 0
4, 400800, Note_on_c, 2, 78, 90
4, 401184, Note_on_c, 2, 78, 0
4, 401280, Note_on_c, 2, 76, 90
4, 402000, Note_on_c, 2, 76, 0
4, 402000, Note_on_c, 2, 73, 90
4, 402240, Note_on_c, 2, 73, 0
4, 402240, Note_on_c, 2, 76, 90
4, 402624, Note_on_c, 2, 76, 0
4, 403200, Note_on_c, 2, 69, 127
4, 403392, Note_on_c, 2, 69, 0
4, 403440, Note_on_c, 2, 71, 122
4, 403536, Note_on_c, 2, 71, 0
4, 403560, Note_on_c, 2, 73, 120
4, 403656, Note_on_c, 2, 73, 0
4, 403680, Note_on_c, 2, 74, 118
4, 403776, Note_on_c, 2, 74, 0
4, 403800, Note_on_c, 2, 76, 116
4, 403896, Note_on_c, 2, 76, 0
4, 403920, Note_on_c, 2, 78, 114
4, 404016, Note_on_c, 2, 78, 0
4, 404040, Note_on_c, 2, 80, 112
4, 404136, Note_on_c, 2, 80, 0
4, 404160, Note_on_c, 2, 81, 110
4, 404280, Note_on_c, 2, 81, 0
4, 404280, Note_on_c, 2, 83, 108
4, 404400, Note_on_c, 2, 83, 0
4, 404400, Note_on_c, 2, 85, 106
4, 404520, Note_on_c, 2, 85, 0
4, 404520, Note_on_c, 2, 83, 104
4, 404640, Note_on_c, 2, 83, 0
4, 404640, Note_on_c, 2, 81, 102
4, 404796, Note_on_c, 2, 81, 0
4, 404880, Note_on_c, 2, 80, 98
4, 405036, Note_on_c, 2, 80, 0
4, 405120, Note_on_c, 2, 80, 105
4, 405360, Note_on_c, 2, 80, 0
4, 405360, Note_on_c, 2, 78, 105
4, 405552, Note_on_c, 2, 78, 0
4, 405600, Note_on_c, 2, 78, 105
4, 406716, Note_on_c, 2, 78, 0
4, 406800, Note_on_c, 2, 76, 105
4, 406956, Note_on_c, 2, 76, 0
4, 407040, Note_on_c, 2, 76, 105
4, 407280, Note_on_c, 2, 76, 0
4, 407280, Note_on_c, 2, 74, 105
4, 407472, Note_on_c, 2, 74, 0
4, 407520, Note_on_c, 2, 74, 105
4, 408636, Note_on_c, 2, 74, 0
4, 408720, Note_on_c, 2, 73, 105
4, 408876, Note_on_c, 2, 73, 0
4, 408960, Note_on_c, 2, 74, 105
4, 409020, Note_on_c, 2, 74, 0
4, 409020, Note_on_c, 2, 73, 105
4, 409080, Note_on_c, 2, 73, 0
4, 409080, Note_on_c, 2, 74, 105
4, 409140, Note_on_c, 2, 74, 0
4, 409140, Note_on_c, 2, 73, 105
4, 409200, Note_on_c, 2, 73, 0
4, 409200, Note_on_c, 2, 71, 105
4, 409356, Note_on_c, 2, 71, 0
4, 409440, Note_on_c, 2, 74, 105
4, 409596, Note_on_c, 2, 74, 0
4, 409680, Note_on_c, 2, 71, 105
4, 409836, Note_on_c, 2, 71, 0
4, 409920, Note_on_c, 2, 73, 105
4, 409980, Note_on_c, 2, 73, 0
4, 409980, Note_on_c, 2, 71, 105
4, 410040, Note_on_c, 2, 71, 0
4, 410040, Note_on_c, 2, 73, 105
4, 410100, Note_on_c, 2, 73, 0
4, 410100, Note_on_c, 2, 71, 105
4, 410160, Note_on_c, 2, 71, 0
4, 410160, Note_on_c, 2, 69, 105
4, 410316, Note_on_c, 2, 69, 0
4, 410400, Note_on_c, 2, 71, 105
4, 410460, Note_on_c, 2, 71, 0
4, 410460, Note_on_c, 2, 69, 105
4, 410520, Note_on_c, 2, 69, 0
4, 410520, Note_on_c, 2, 71, 105
4, 410580, Note_on_c, 2, 71, 0
4, 410580, Note_on_c, 2, 69, 105
4, 410640, Note_on_c, 2, 69, 0
4, 410640, Note_on_c, 2, 68, 105
4, 410796, Note_on_c, 2, 68, 0
4, 410880, Note_on_c, 2, 69, 125
4, 410976, Note_on_c, 2, 69, 0
4, 411000, Note_on_c, 2, 64, 117
4, 411096, Note_on_c, 2, 64, 0
4, 411120, Note_on_c, 2, 66, 117
4, 411216, Note_on_c, 2, 66, 0
4, 411240, Note_on_c, 2, 68, 117
4, 411336, Note_on_c, 2, 68, 0
4, 411360, Note_on_c, 2, 69, 117
4, 411456, Note_on_c, 2, 69, 0
4, 411480, Note_on_c, 2, 71, 117
4, 411576, Note_on_c, 2, 71, 0
4, 411600, Note_on_c, 2, 73, 117
4, 411696, Note_on_c, 2, 73, 0
4, 411720, Note_on_c, 2, 74, 117
4, 411816, Note_on_c, 2, 74, 0
4, 411840, Note_on_c, 2, 76, 117
4, 411936, Note_on_c, 2, 76, 0
4, 411960, Note_on_c, 2, 78, 117
4, 412056, Note_on_c, 2, 78, 0
4, 412080, Note_on_c, 2, 80, 117
4, 412176, Note_on_c, 2, 80, 0
4, 412200, Note_on_c, 2, 81, 117
4, 412296, Note_on_c, 2, 81, 0
4, 412320, Note_on_c, 2, 80, 117
4, 412416, Note_on_c, 2, 80, 0
4, 412440, Note_on_c, 2, 78, 117
4, 412536, Note_on_c, 2, 78, 0
4, 412560, Note_on_c, 2, 76, 117
4, 412656, Note_on_c, 2, 76, 0
4, 412680, Note_on_c, 2, 74, 117
4, 412776, Note_on_c, 2, 74, 0
4, 412800, Note_on_c, 2, 73, 105
4, 412944, Note_on_c, 2, 73, 0
4, 413040, Note_on_c, 2, 73, 105
4, 413184, Note_on_c, 2, 73, 0
4, 413280, Note_on_c, 2, 78, 105
4, 413424, Note_on_c, 2, 78, 0
4, 413520, Note_on_c, 2, 78, 105
4, 413664, Note_on_c, 2, 78, 0
4, 413760, Note_on_c, 2, 76, 105
4, 413904, Note_on_c, 2, 76, 0
4, 414000, Note_on_c, 2, 76, 105
4, 414144, Note_on_c, 2, 76, 0
4, 414240, Note_on_c, 2, 68, 105
4, 414384, Note_on_c, 2, 68, 0
4, 414480, Note_on_c, 2, 68, 105
4, 414624, Note_on_c, 2, 68, 0
4, 414720, Note_on_c, 2, 69, 105
4, 415104, Note_on_c, 2, 69, 0
4, 421920, Note_on_c, 2, 76, 105
4, 422040, Note_on_c, 2, 76, 0
4, 422040, Note_on_c, 2, 73, 105
4, 422160, Note_on_c, 2, 73, 0
4, 422160, Note_on_c, 2, 76, 105
4, 422280, Note_on_c, 2, 76, 0
4, 422280, Note_on_c, 2, 73, 105
4, 422400, Note_on_c, 2, 73, 0
4, 422400, Note_on_c, 2, 81, 90
4, 422784, Note_on_c, 2, 81, 0
4, 422880, Note_on_c, 2, 76, 90
4, 423000, Note_on_c, 2, 76, 0
4, 423000, Note_on_c, 2, 73, 90
4, 423120, Note_on_c, 2, 73, 0
4, 423120, Note_on_c, 2, 76, 90
4, 423240, Note_on_c, 2, 76, 0
4, 423240, Note_on_c, 2, 73, 90
4, 423360, Note_on_c, 2, 73, 0
4, 423360, Note_on_c, 2, 69, 90
4, 423744, Note_on_c, 2, 69, 0
4, 423840, Note_on_c, 2, 81, 90
4, 423840, Note_on_c, 2, 69, 90
4, 424152, Note_on_c, 2, 69, 0
4, 424152, Note_on_c, 2, 81, 0
4, 424320, Note_on_c, 2, 70, 93
4, 424320, Note_on_c, 2, 82, 108
4, 425280, Note_on_c, 2, 82, 0
4, 425280, Note_on_c, 2, 70, 0
4, 425280, Note_on_c, 2, 83, 85
4, 425280, Note_on_c, 2, 71, 70
4, 425664, Note_on_c, 2, 71, 0
4, 425664, Note_on_c, 2, 83, 0
4, 425760, Note_on_c, 2, 71, 90
4, 425880, Note_on_c, 2, 71, 0
4, 425880, Note_on_c, 2, 68, 90
4, 426000, Note_on_c, 2, 68, 0
4, 426000, Note_on_c, 2, 71, 90
4, 426120, Note_on_c, 2, 71, 0
4, 426120, Note_on_c, 2, 68, 90
4, 426240, Note_on_c, 2, 68, 0
4, 426240, Note_on_c, 2, 74, 90
4, 426624, Note_on_c, 2, 74, 0
4, 426720, Note_on_c, 2, 71, 90
4, 426840, Note_on_c, 2, 71, 0
4, 426840, Note_on_c, 2, 68, 90
4, 426960, Note_on_c, 2, 68, 0
4, 426960, Note_on_c, 2, 71, 90
4, 427080, Note_on_c, 2, 71, 0
4, 427080, Note_on_c, 2, 68, 90
4, 427200, Note_on_c, 2, 68, 0
4, 427200, Note_on_c, 2, 64, 90
4, 427584, Note_on_c, 2, 64, 0
4, 427680, Note_on_c, 2, 71, 90
4, 427680, Note_on_c, 2, 83, 90
4, 427992, Note_on_c, 2, 83, 0
4, 427992, Note_on_c, 2, 71, 0
4, 428160, Note_on_c, 2, 84, 110
4, 428160, Note_on_c, 2, 72, 90
4, 429120, Note_on_c, 2, 72, 0
4, 429120, Note_on_c, 2, 84, 0
4, 429120, Note_on_c, 2, 73, 90
4, 429120, Note_on_c, 2, 85, 90
4, 429432, Note_on_c, 2, 85, 0
4, 429432, Note_on_c, 2, 73, 0
4, 429600, Note_on_c, 2, 73, 90
4, 429600, Note_on_c, 2, 85, 90
4, 429912, Note_on_c, 2, 85, 0
4, 429912, Note_on_c, 2, 73, 0
4, 430080, Note_on_c, 2, 85, 110
4, 430080, Note_on_c, 2, 73, 90
4, 431040, Note_on_c, 2, 73, 0
4, 431040, Note_on_c, 2, 85, 0
4, 431040, Note_on_c, 2, 86, 90
4, 431040, Note_on_c, 2, 74, 90
4, 431352, Note_on_c, 2, 74, 0
4, 431352, Note_on_c, 2, 86, 0
4, 431520, Note_on_c, 2, 86, 90
4, 431520, Note_on_c, 2, 74, 90
4, 431832, Note_on_c, 2, 74, 0
4, 431832, Note_on_c, 2, 86, 0
4, 432000, Note_on_c, 2, 87, 110
4, 432000, Note_on_c, 2, 75, 90
4, 432960, Note_on_c, 2, 75, 0
4, 432960, Note_on_c, 2, 87, 0
4, 432960, Note_on_c, 2, 76, 86
4, 432960, Note_on_c, 2, 88, 86
4, 433272, Note_on_c, 2, 88, 0
4, 433272, Note_on_c, 2, 76, 0
4, 433440, Note_on_c, 2, 79, 88
4, 433752, Note_on_c, 2, 79, 0
4, 433920, Note_on_c, 2, 78, 80
4, 434040, Note_on_c, 2, 78, 0
4, 434040, Note_on_c, 2, 79, 80
4, 434160, Note_on_c, 2, 79, 0
4, 434160, Note_on_c, 2, 78, 80
4, 434280, Note_on_c, 2, 78, 0
4, 434280, Note_on_c, 2, 77, 80
4, 434400, Note_on_c, 2, 77, 0
4, 434400, Note_on_c, 2, 78, 80
4, 434640, Note_on_c, 2, 78, 0
4, 434880, Note_on_c, 2, 78, 80
4, 435000, Note_on_c, 2, 78, 0
4, 435000, Note_on_c, 2, 79, 80
4, 435120, Note_on_c, 2, 79, 0
4, 435120, Note_on_c, 2, 78, 80
4, 435240, Note_on_c, 2, 78, 0
4, 435240, Note_on_c, 2, 77, 80
4, 435360, Note_on_c, 2, 77, 0
4, 435360, Note_on_c, 2, 78, 80
4, 435600, Note_on_c, 2, 78, 0
4, 435840, Note_on_c, 2, 78, 90
4, 435936, Note_on_c, 2, 78, 0
4, 435960, Note_on_c, 2, 74, 90
4, 436056, Note_on_c, 2, 74, 0
4, 436080, Note_on_c, 2, 76, 90
4, 436176, Note_on_c, 2, 76, 0
4, 436200, Note_on_c, 2, 78, 90
4, 436296, Note_on_c, 2, 78, 0
4, 436320, Note_on_c, 2, 80, 90
4, 436416, Note_on_c, 2, 80, 0
4, 436440, Note_on_c, 2, 81, 90
4, 436536, Note_on_c, 2, 81, 0
4, 436560, Note_on_c, 2, 83, 90
4, 436656, Note_on_c, 2, 83, 0
4, 436680, Note_on_c, 2, 85, 90
4, 436776, Note_on_c, 2, 85, 0
4, 436800, Note_on_c, 2, 86, 105
4, 436896, Note_on_c, 2, 86, 0
4, 436920, Note_on_c, 2, 88, 105
4, 437016, Note_on_c, 2, 88, 0
4, 437040, Note_on_c, 2, 86, 105
4, 437136, Note_on_c, 2, 86, 0
4, 437160, Note_on_c, 2, 85, 105
4, 437256, Note_on_c, 2, 85, 0
4, 437280, Note_on_c, 2, 83, 90
4, 437376, Note_on_c, 2, 83, 0
4, 437400, Note_on_c, 2, 81, 90
4, 437496, Note_on_c, 2, 81, 0
4, 437520, Note_on_c, 2, 80, 90
4, 437616, Note_on_c, 2, 80, 0
4, 437640, Note_on_c, 2, 78, 90
4, 437736, Note_on_c, 2, 78, 0
4, 437760, Note_on_c, 2, 76, 80
4, 437880, Note_on_c, 2, 76, 0
4, 437880, Note_on_c, 2, 78, 80
4, 438000, Note_on_c, 2, 78, 0
4, 438000, Note_on_c, 2, 76, 80
4, 438120, Note_on_c, 2, 76, 0
4, 438120, Note_on_c, 2, 75, 80
4, 438240, Note_on_c, 2, 75, 0
4, 438240, Note_on_c, 2, 76, 80
4, 438432, Note_on_c, 2, 76, 0
4, 438720, Note_on_c, 2, 76, 80
4, 438840, Note_on_c, 2, 76, 0
4, 438840, Note_on_c, 2, 78, 80
4, 438960, Note_on_c, 2, 78, 0
4, 438960, Note_on_c, 2, 76, 80
4, 439080, Note_on_c, 2, 76, 0
4, 439080, Note_on_c, 2, 75, 80
4, 439200, Note_on_c, 2, 75, 0
4, 439200, Note_on_c, 2, 76, 80
4, 439392, Note_on_c, 2, 76, 0
4, 439680, Note_on_c, 2, 76, 90
4, 439776, Note_on_c, 2, 76, 0
4, 439800, Note_on_c, 2, 73, 90
4, 439896, Note_on_c, 2, 73, 0
4, 439920, Note_on_c, 2, 74, 90
4, 440016, Note_on_c, 2, 74, 0
4, 440040, Note_on_c, 2, 76, 90
4, 440136, Note_on_c, 2, 76, 0
4, 440160, Note_on_c, 2, 78, 90
4, 440256, Note_on_c, 2, 78, 0
4, 440280, Note_on_c, 2, 80, 90
4, 440376, Note_on_c, 2, 80, 0
4, 440400, Note_on_c, 2, 81, 90
4, 440496, Note_on_c, 2, 81, 0
4, 440520, Note_on_c, 2, 83, 105
4, 440616, Note_on_c, 2, 83, 0
4, 440640, Note_on_c, 2, 85, 105
4, 440736, Note_on_c, 2, 85, 0
4, 440760, Note_on_c, 2, 86, 105
4, 440856, Note_on_c, 2, 86, 0
4, 440880, Note_on_c, 2, 85, 105
4, 440976, Note_on_c, 2, 85, 0
4, 441000, Note_on_c, 2, 83, 90
4, 441096, Note_on_c, 2, 83, 0
4, 441120, Note_on_c, 2, 81, 90
4, 441216, Note_on_c, 2, 81, 0
4, 441240, Note_on_c, 2, 80, 90
4, 441336, Note_on_c, 2, 80, 0
4, 441360, Note_on_c, 2, 78, 90
4, 441456, Note_on_c, 2, 78, 0
4, 441480, Note_on_c, 2, 76, 90
4, 441576, Note_on_c, 2, 76, 0
4, 441600, Note_on_c, 2, 74, 80
4, 441720, Note_on_c, 2, 74, 0
4, 441720, Note_on_c, 2, 76, 80
4, 441840, Note_on_c, 2, 76, 0
4, 441840, Note_on_c, 2, 74, 80
4, 441960, Note_on_c, 2, 74, 0
4, 441960, Note_on_c, 2, 73, 80
4, 442080, Note_on_c, 2, 73, 0
4, 442080, Note_on_c, 2, 74, 80
4, 442272, Note_on_c, 2, 74, 0
4, 442560, Note_on_c, 2, 74, 80
4, 442680, Note_on_c, 2, 74, 0
4, 442680, Note_on_c, 2, 76, 80
4, 442800, Note_on_c, 2, 76, 0
4, 442800, Note_on_c, 2, 74, 80
4, 442920, Note_on_c, 2, 74, 0
4, 442920, Note_on_c, 2, 73, 80
4, 443040, Note_on_c, 2, 73, 0
4, 443040, Note_on_c, 2, 74, 80
4, 443232, Note_on_c, 2, 74, 0
4, 443520, Note_on_c, 2, 74, 90
4, 443616, Note_on_c, 2, 74, 0
4, 443640, Note_on_c, 2, 71, 90
4, 443736, Note_on_c, 2, 71, 0
4, 443760, Note_on_c, 2, 73, 90
4, 443856, Note_on_c, 2, 73, 0
4, 443880, Note_on_c, 2, 74, 90
4, 443976, Note_on_c, 2, 74, 0
4, 444000, Note_on_c, 2, 76, 90
4, 444096, Note_on_c, 2, 76, 0
4, 444120, Note_on_c, 2, 78, 90
4, 444216, Note_on_c, 2, 78, 0
4, 444240, Note_on_c, 2, 80, 90
4, 444336, Note_on_c, 2, 80, 0
4, 444360, Note_on_c, 2, 81, 105
4, 444456, Note_on_c, 2, 81, 0
4, 444480, Note_on_c, 2, 83, 105
4, 444576, Note_on_c, 2, 83, 0
4, 444600, Note_on_c, 2, 85, 105
4, 444696, Note_on_c, 2, 85, 0
4, 444720, Note_on_c, 2, 83, 105
4, 444816, Note_on_c, 2, 83, 0
4, 444840, Note_on_c, 2, 81, 105
4, 444936, Note_on_c, 2, 81, 0
4, 444960, Note_on_c, 2, 80, 105
4, 445056, Note_on_c, 2, 80, 0
4, 445080, Note_on_c, 2, 78, 105
4, 445176, Note_on_c, 2, 78, 0
4, 445200, Note_on_c, 2, 76, 105
4, 445296, Note_on_c, 2, 76, 0
4, 445320, Note_on_c, 2, 74, 105
4, 445416, Note_on_c, 2, 74, 0
4, 445440, Note_on_c, 2, 73, 105
4, 445536, Note_on_c, 2, 73, 0
4, 445560, Note_on_c, 2, 69, 105
4, 445656, Note_on_c, 2, 69, 0
4, 445680, Note_on_c, 2, 71, 105
4, 445776, Note_on_c, 2, 71, 0
4, 445800, Note_on_c, 2, 73, 105
4, 445896, Note_on_c, 2, 73, 0
4, 445920, Note_on_c, 2, 74, 105
4, 446016, Note_on_c, 2, 74, 0
4, 446040, Note_on_c, 2, 76, 105
4, 446136, Note_on_c, 2, 76, 0
4, 446160, Note_on_c, 2, 78, 105
4, 446256, Note_on_c, 2, 78, 0
4, 446280, Note_on_c, 2, 80, 105
4, 446376, Note_on_c, 2, 80, 0
4, 446400, Note_on_c, 2, 81, 105
4, 446496, Note_on_c, 2, 81, 0
4, 446520, Note_on_c, 2, 83, 105
4, 446616, Note_on_c, 2, 83, 0
4, 446640, Note_on_c, 2, 81, 105
4, 446736, Note_on_c, 2, 81, 0
4, 446760, Note_on_c, 2, 80, 105
4, 446856, Note_on_c, 2, 80, 0
4, 446880, Note_on_c, 2, 78, 105
4, 446976, Note_on_c, 2, 78, 0
4, 447000, Note_on_c, 2, 76, 105
4, 447096, Note_on_c, 2, 76, 0
4, 447120, Note_on_c, 2, 74, 105
4, 447216, Note_on_c, 2, 74, 0
4, 447240, Note_on_c, 2, 73, 105
4, 447336, Note_on_c, 2, 73, 0
4, 447360, Note_on_c, 2, 71, 105
4, 447456, Note_on_c, 2, 71, 0
4, 447480, Note_on_c, 2, 73, 105
4, 447576, Note_on_c, 2, 73, 0
4, 447600, Note_on_c, 2, 71, 105
4, 447696, Note_on_c, 2, 71, 0
4, 447720, Note_on_c, 2, 70, 105
4, 447816, Note_on_c, 2, 70, 0
4, 447840, Note_on_c, 2, 71, 105
4, 447936, Note_on_c, 2, 71, 0
4, 447960, Note_on_c, 2, 73, 105
4, 448056, Note_on_c, 2, 73, 0
4, 448080, Note_on_c, 2, 74, 105
4, 448176, Note_on_c, 2, 74, 0
4, 448200, Note_on_c, 2, 76, 105
4, 448296, Note_on_c, 2, 76, 0
4, 448320, Note_on_c, 2, 78, 105
4, 448416, Note_on_c, 2, 78, 0
4, 448440, Note_on_c, 2, 76, 105
4, 448536, Note_on_c, 2, 76, 0
4, 448560, Note_on_c, 2, 74, 105
4, 448656, Note_on_c, 2, 74, 0
4, 448680, Note_on_c, 2, 73, 105
4, 448776, Note_on_c, 2, 73, 0
4, 448800, Note_on_c, 2, 71, 105
4, 448896, Note_on_c, 2, 71, 0
4, 448920, Note_on_c, 2, 69, 105
4, 449016, Note_on_c, 2, 69, 0
4, 449040, Note_on_c, 2, 68, 105
4, 449136, Note_on_c, 2, 68, 0
4, 449160, Note_on_c, 2, 69, 105
4, 449256, Note_on_c, 2, 69, 0
4, 449280, Note_on_c, 2, 76, 80
4, 449280, Note_on_c, 2, 68, 80
4, 449280, Note_on_c, 2, 71, 80
4, 449592, Note_on_c, 2, 71, 0
4, 449592, Note_on_c, 2, 68, 0
4, 449592, Note_on_c, 2, 76, 0
4, 449760, Note_on_c, 2, 64, 80
4, 450072, Note_on_c, 2, 64, 0
4, 458400, Note_on_c, 2, 78, 90
4, 458520, Note_on_c, 2, 78, 0
4, 458520, Note_on_c, 2, 76, 90
4, 458640, Note_on_c, 2, 76, 0
4, 458640, Note_on_c, 2, 74, 90
4, 458760, Note_on_c, 2, 74, 0
4, 458760, Note_on_c, 2, 73, 90
4, 458880, Note_on_c, 2, 73, 0
4, 458880, Note_on_c, 2, 71, 90
4, 459144, Note_on_c, 2, 71, 0
4, 459360, Note_on_c, 2, 71, 90
4, 459840, Note_on_c, 2, 71, 0
4, 459840, Note_on_c, 2, 73, 90
4, 460104, Note_on_c, 2, 73, 0
4, 460320, Note_on_c, 2, 73, 90
4, 460800, Note_on_c, 2, 73, 0
4, 460800, Note_on_c, 2, 74, 90
4, 461064, Note_on_c, 2, 74, 0
4, 462240, Note_on_c, 2, 73, 90
4, 462720, Note_on_c, 2, 73, 0
4, 462720, Note_on_c, 2, 74, 90
4, 462984, Note_on_c, 2, 74, 0
4, 464160, Note_on_c, 2, 85, 90
4, 464160, Note_on_c, 2, 73, 90
4, 464640, Note_on_c, 2, 73, 0
4, 464640, Note_on_c, 2, 85, 0
4, 464640, Note_on_c, 2, 74, 90
4, 464640, Note_on_c, 2, 86, 90
4, 464904, Note_on_c, 2, 86, 0
4, 464904, Note_on_c, 2, 74, 0
4, 466080, Note_on_c, 2, 76, 90
4, 466200, Note_on_c, 2, 76, 0
4, 466200, Note_on_c, 2, 74, 90
4, 466320, Note_on_c, 2, 74, 0
4, 466320, Note_on_c, 2, 73, 90
4, 466440, Note_on_c, 2, 73, 0
4, 466440, Note_on_c, 2, 71, 90
4, 466560, Note_on_c, 2, 71, 0
4, 466560, Note_on_c, 2, 69, 90
4, 466824, Note_on_c, 2, 69, 0
4, 467040, Note_on_c, 2, 69, 90
4, 467760, Note_on_c, 2, 69, 0
4, 467760, Note_on_c, 2, 67, 90
4, 468000, Note_on_c, 2, 67, 0
4, 468000, Note_on_c, 2, 66, 90
4, 468240, Note_on_c, 2, 66, 0
4, 468240, Note_on_c, 2, 65, 90
4, 468480, Note_on_c, 2, 65, 0
4, 468480, Note_on_c, 2, 65, 90
4, 468720, Note_on_c, 2, 65, 0
4, 468720, Note_on_c, 2, 66, 90
4, 468960, Note_on_c, 2, 66, 0
4, 468960, Note_on_c, 2, 66, 90
4, 469680, Note_on_c, 2, 66, 0
4, 469680, Note_on_c, 2, 74, 90
4, 469920, Note_on_c, 2, 74, 0
4, 469920, Note_on_c, 2, 71, 90
4, 470160, Note_on_c, 2, 71, 0
4, 470160, Note_on_c, 2, 68, 90
4, 470400, Note_on_c, 2, 68, 0
4, 470400, Note_on_c, 2, 76, 90
4, 470760, Note_on_c, 2, 76, 0
4, 470760, Note_on_c, 2, 73, 90
4, 470880, Note_on_c, 2, 73, 0
4, 470880, Note_on_c, 2, 69, 90
4, 471024, Note_on_c, 2, 69, 0
4, 471120, Note_on_c, 2, 69, 90
4, 471264, Note_on_c, 2, 69, 0
4, 471360, Note_on_c, 2, 69, 90
4, 471504, Note_on_c, 2, 69, 0
4, 471600, Note_on_c, 2, 81, 90
4, 471840, Note_on_c, 2, 81, 0
4, 471840, Note_on_c, 2, 80, 90
4, 472080, Note_on_c, 2, 80, 0
4, 472080, Note_on_c, 2, 79, 90
4, 472320, Note_on_c, 2, 79, 0
4, 472320, Note_on_c, 2, 77, 90
4, 472560, Note_on_c, 2, 77, 0
4, 472560, Note_on_c, 2, 78, 90
4, 472800, Note_on_c, 2, 78, 0
4, 472800, Note_on_c, 2, 78, 90
4, 473520, Note_on_c, 2, 78, 0
4, 473520, Note_on_c, 2, 86, 90
4, 473760, Note_on_c, 2, 86, 0
4, 473760, Note_on_c, 2, 83, 90
4, 474000, Note_on_c, 2, 83, 0
4, 474000, Note_on_c, 2, 80, 90
4, 474240, Note_on_c, 2, 80, 0
4, 474240, Note_on_c, 2, 88, 110
4, 474600, Note_on_c, 2, 88, 0
4, 474600, Note_on_c, 2, 85, 90
4, 474720, Note_on_c, 2, 85, 0
4, 474720, Note_on_c, 2, 81, 90
4, 474864, Note_on_c, 2, 81, 0
4, 474960, Note_on_c, 2, 81, 90
4, 475104, Note_on_c, 2, 81, 0
4, 475200, Note_on_c, 2, 81, 90
4, 475440, Note_on_c, 2, 81, 0
4, 475440, Note_on_c, 2, 79, 90
4, 475680, Note_on_c, 2, 79, 0
4, 475680, Note_on_c, 2, 78, 90
4, 475920, Note_on_c, 2, 78, 0
4, 475920, Note_on_c, 2, 79, 90
4, 476160, Note_on_c, 2, 79, 0
4, 476160, Note_on_c, 2, 81, 80
4, 476220, Note_on_c, 2, 81, 0
4, 476220, Note_on_c, 2, 79, 80
4, 476280, Note_on_c, 2, 79, 0
4, 476280, Note_on_c, 2, 81, 80
4, 476340, Note_on_c, 2, 81, 0
4, 476340, Note_on_c, 2, 79, 80
4, 476400, Note_on_c, 2, 79, 0
4, 476400, Note_on_c, 2, 78, 80
4, 476556, Note_on_c, 2, 78, 0
4, 476640, Note_on_c, 2, 78, 100
4, 477240, Note_on_c, 2, 78, 0
4, 477240, Note_on_c, 2, 78, 90
4, 477360, Note_on_c, 2, 78, 0
4, 477360, Note_on_c, 2, 80, 90
4, 477480, Note_on_c, 2, 80, 0
4, 477480, Note_on_c, 2, 82, 90
4, 477600, Note_on_c, 2, 82, 0
4, 477600, Note_on_c, 2, 83, 90
4, 477720, Note_on_c, 2, 83, 0
4, 477720, Note_on_c, 2, 85, 90
4, 477840, Note_on_c, 2, 85, 0
4, 477840, Note_on_c, 2, 86, 90
4, 477960, Note_on_c, 2, 86, 0
4, 477960, Note_on_c, 2, 78, 90
4, 478080, Note_on_c, 2, 78, 0
4, 478080, Note_on_c, 2, 80, 80
4, 478140, Note_on_c, 2, 80, 0
4, 478140, Note_on_c, 2, 78, 80
4, 478200, Note_on_c, 2, 78, 0
4, 478200, Note_on_c, 2, 80, 80
4, 478260, Note_on_c, 2, 80, 0
4, 478260, Note_on_c, 2, 78, 80
4, 478320, Note_on_c, 2, 78, 0
4, 478320, Note_on_c, 2, 76, 80
4, 478476, Note_on_c, 2, 76, 0
4, 478560, Note_on_c, 2, 76, 100
4, 479160, Note_on_c, 2, 76, 0
4, 479160, Note_on_c, 2, 76, 90
4, 479280, Note_on_c, 2, 76, 0
4, 479280, Note_on_c, 2, 78, 90
4, 479400, Note_on_c, 2, 78, 0
4, 479400, Note_on_c, 2, 80, 90
4, 479520, Note_on_c, 2, 80, 0
4, 479520, Note_on_c, 2, 81, 90
4, 479640, Note_on_c, 2, 81, 0
4, 479640, Note_on_c, 2, 83, 90
4, 479760, Note_on_c, 2, 83, 0
4, 479760, Note_on_c, 2, 85, 90
4, 479880, Note_on_c, 2, 85, 0
4, 479880, Note_on_c, 2, 76, 90
4, 480000, Note_on_c, 2, 76, 0
4, 480000, Note_on_c, 2, 78, 80
4, 480060, Note_on_c, 2, 78, 0
4, 480060, Note_on_c, 2, 76, 80
4, 480120, Note_on_c, 2, 76, 0
4, 480120, Note_on_c, 2, 78, 80
4, 480180, Note_on_c, 2, 78, 0
4, 480180, Note_on_c, 2, 76, 80
4, 480240, Note_on_c, 2, 76, 0
4, 480240, Note_on_c, 2, 74, 80
4, 480396, Note_on_c, 2, 74, 0
4, 480480, Note_on_c, 2, 74, 100
4, 481080, Note_on_c, 2, 74, 0
4, 481080, Note_on_c, 2, 74, 90
4, 481200, Note_on_c, 2, 74, 0
4, 481200, Note_on_c, 2, 76, 90
4, 481320, Note_on_c, 2, 76, 0
4, 481320, Note_on_c, 2, 78, 90
4, 481440, Note_on_c, 2, 78, 0
4, 481440, Note_on_c, 2, 80, 90
4, 481560, Note_on_c, 2, 80, 0
4, 481560, Note_on_c, 2, 81, 90
4, 481680, Note_on_c, 2, 81, 0
4, 481680, Note_on_c, 2, 83, 90
4, 481800, Note_on_c, 2, 83, 0
4, 481800, Note_on_c, 2, 74, 90
4, 481920, Note_on_c, 2, 74, 0
4, 481920, Note_on_c, 2, 73, 90
4, 482076, Note_on_c, 2, 73, 0
4, 482160, Note_on_c, 2, 81, 90
4, 482400, Note_on_c, 2, 81, 0
4, 482400, Note_on_c, 2, 80, 90
4, 482556, Note_on_c, 2, 80, 0
4, 482640, Note_on_c, 2, 79, 90
4, 482880, Note_on_c, 2, 79, 0
4, 482880, Note_on_c, 2, 78, 90
4, 483036, Note_on_c, 2, 78, 0
4, 483120, Note_on_c, 2, 77, 90
4, 483360, Note_on_c, 2, 77, 0
4, 483360, Note_on_c, 2, 76, 90
4, 483516, Note_on_c, 2, 76, 0
4, 483600, Note_on_c, 2, 75, 90
4, 483840, Note_on_c, 2, 75, 0
4, 483840, Note_on_c, 2, 76, 90
4, 483996, Note_on_c, 2, 76, 0
4, 484080, Note_on_c, 2, 77, 90
4, 484320, Note_on_c, 2, 77, 0
4, 484320, Note_on_c, 2, 80, 90
4, 484560, Note_on_c, 2, 80, 0
4, 484560, Note_on_c, 2, 78, 90
4, 484800, Note_on_c, 2, 78, 0
4, 484800, Note_on_c, 2, 76, 90
4, 485040, Note_on_c, 2, 76, 0
4, 485040, Note_on_c, 2, 74, 90
4, 485280, Note_on_c, 2, 74, 0
4, 485280, Note_on_c, 2, 73, 90
4, 485520, Note_on_c, 2, 73, 0
4, 485520, Note_on_c, 2, 71, 90
4, 485760, Note_on_c, 2, 71, 0
4, 485760, Note_on_c, 2, 76, 80
4, 486000, Note_on_c, 2, 76, 0
4, 486000, Note_on_c, 2, 78, 80
4, 486080, Note_on_c, 2, 78, 0
4, 486080, Note_on_c, 2, 76, 80
4, 486160, Note_on_c, 2, 76, 0
4, 486160, Note_on_c, 2, 75, 80
4, 486240, Note_on_c, 2, 75, 0
4, 486240, Note_on_c, 2, 76, 80
4, 486480, Note_on_c, 2, 76, 0
4, 486480, Note_on_c, 2, 78, 80
4, 486672, Note_on_c, 2, 78, 0
4, 486720, Note_on_c, 2, 69, 80
4, 487200, Note_on_c, 2, 69, 0
4, 487200, Note_on_c, 2, 73, 80
4, 487320, Note_on_c, 2, 73, 0
4, 487320, Note_on_c, 2, 71, 80
4, 487320, Note_on_c, 2, 68, 80
4, 487680, Note_on_c, 2, 68, 0
4, 487680, Note_on_c, 2, 71, 0
4, 487680, Note_on_c, 2, 69, 71
4, 488160, Note_on_c, 2, 69, 0
4, 496080, Note_on_c, 2, 76, 80
4, 496080, Note_on_c, 2, 64, 80
4, 496320, Note_on_c, 2, 64, 0
4, 496320, Note_on_c, 2, 76, 0
4, 496320, Note_on_c, 2, 63, 80
4, 496320, Note_on_c, 2, 75, 80
4, 496560, Note_on_c, 2, 75, 0
4, 496560, Note_on_c, 2, 63, 0
4, 496560, Note_on_c, 2, 66, 80
4, 496560, Note_on_c, 2, 78, 80
4, 496800, Note_on_c, 2, 78, 0
4, 496800, Note_on_c, 2, 66, 0
4, 496800, Note_on_c, 2, 64, 80
4, 496800, Note_on_c, 2, 76, 80
4, 497040, Note_on_c, 2, 76, 0
4, 497040, Note_on_c, 2, 64, 0
4, 497040, Note_on_c, 2, 61, 80
4, 497040, Note_on_c, 2, 73, 80
4, 497280, Note_on_c, 2, 73, 0
4, 497280, Note_on_c, 2, 61, 0
4, 497280, Note_on_c, 2, 57, 80
4, 497280, Note_on_c, 2, 69, 80
4, 497544, Note_on_c, 2, 69, 0
4, 497544, Note_on_c, 2, 57, 0
4, 497760, Note_on_c, 2, 57, 80
4, 497760, Note_on_c, 2, 69, 80
4, 498240, Note_on_c, 2, 69, 0
4, 498240, Note_on_c, 2, 57, 0
4, 498240, Note_on_c, 2, 59, 80
4, 498240, Note_on_c, 2, 71, 80
4, 498504, Note_on_c, 2, 71, 0
4, 498504, Note_on_c, 2, 59, 0
4, 498720, Note_on_c, 2, 71, 80
4, 498720, Note_on_c, 2, 59, 80
4, 499200, Note_on_c, 2, 59, 0
4, 499200, Note_on_c, 2, 71, 0
4, 499200, Note_on_c, 2, 61, 80
4, 499200, Note_on_c, 2, 73, 80
4, 499464, Note_on_c, 2, 73, 0
4, 499464, Note_on_c, 2, 61, 0
4, 499680, Note_on_c, 2, 73, 80
4, 499680, Note_on_c, 2, 61, 80
4, 500160, Note_on_c, 2, 61, 0
4, 500160, Note_on_c, 2, 73, 0
4, 500160, Note_on_c, 2, 62, 80
4, 500160, Note_on_c, 2, 74, 80
4, 500424, Note_on_c, 2, 74, 0
4, 500424, Note_on_c, 2, 62, 0
4, 500640, Note_on_c, 2, 74, 80
4, 500640, Note_on_c, 2, 62, 80
4, 501120, Note_on_c, 2, 62, 0
4, 501120, Note_on_c, 2, 74, 0
4, 501120, Note_on_c, 2, 64, 80
4, 501120, Note_on_c, 2, 76, 80
4, 501384, Note_on_c, 2, 76, 0
4, 501384, Note_on_c, 2, 64, 0
4, 501600, Note_on_c, 2, 64, 80
4, 501600, Note_on_c, 2, 76, 80
4, 502080, Note_on_c, 2, 76, 0
4, 502080, Note_on_c, 2, 64, 0
4, 502080, Note_on_c, 2, 66, 80
4, 502080, Note_on_c, 2, 78, 80
4, 502344, Note_on_c, 2, 78, 0
4, 502344, Note_on_c, 2, 66, 0
4, 502560, Note_on_c, 2, 80, 80
4, 502560, Note_on_c, 2, 68, 80
4, 503040, Note_on_c, 2, 68, 0
4, 503040, Note_on_c, 2, 80, 0
4, 503040, Note_on_c, 2, 69, 80
4, 503040, Note_on_c, 2, 81, 80
4, 503304, Note_on_c, 2, 81, 0
4, 503304, Note_on_c, 2, 69, 0
4, 503520, Note_on_c, 2, 64, 80
4, 503520, Note_on_c, 2, 76, 80
4, 503904, Note_on_c, 2, 76, 0
4, 503904, Note_on_c, 2, 64, 0
4, 504000, Note_on_c, 2, 66, 80
4, 504000, Note_on_c, 2, 78, 80
4, 504384, Note_on_c, 2, 78, 0
4, 504384, Note_on_c, 2, 66, 0
4, 504480, Note_on_c, 2, 68, 80
4, 504480, Note_on_c, 2, 80, 80
4, 504864, Note_on_c, 2, 80, 0
4, 504864, Note_on_c, 2, 68, 0
4, 504960, Note_on_c, 2, 69, 80
4, 504960, Note_on_c, 2, 81, 80
4, 505344, Note_on_c, 2, 81, 0
4, 505344, Note_on_c, 2, 69, 0
4, 505440, Note_on_c, 2, 64, 80
4, 505680, Note_on_c, 2, 64, 0
4, 505680, Note_on_c, 2, 76, 80
4, 505920, Note_on_c, 2, 76, 0
4, 505920, Note_on_c, 2, 66, 80
4, 506160, Note_on_c, 2, 66, 0
4, 506160, Note_on_c, 2, 78, 80
4, 506400, Note_on_c, 2, 78, 0
4, 506400, Note_on_c, 2, 68, 80
4, 506640, Note_on_c, 2, 68, 0
4, 506640, Note_on_c, 2, 80, 80
4, 506832, Note_on_c, 2, 80, 0
4, 506880, Note_on_c, 2, 69, 80
4, 507000, Note_on_c, 2, 69, 0
4, 507000, Note_on_c, 2, 81, 80
4, 507120, Note_on_c, 2, 81, 0
4, 507600, Note_on_c, 2, 68, 80
4, 507720, Note_on_c, 2, 68, 0
4, 507720, Note_on_c, 2, 80, 80
4, 507840, Note_on_c, 2, 80, 0
4, 507840, Note_on_c, 2, 69, 80
4, 507960, Note_on_c, 2, 69, 0
4, 507960, Note_on_c, 2, 81, 80
4, 508080, Note_on_c, 2, 81, 0
4, 508560, Note_on_c, 2, 68, 80
4, 508680, Note_on_c, 2, 68, 0
4, 508680, Note_on_c, 2, 80, 80
4, 508800, Note_on_c, 2, 80, 0
4, 508800, Note_on_c, 2, 69, 80
4, 508920, Note_on_c, 2, 69, 0
4, 508920, Note_on_c, 2, 81, 80
4, 509040, Note_on_c, 2, 81, 0
4, 509520, Note_on_c, 2, 68, 80
4, 509640, Note_on_c, 2, 68, 0
4, 509640, Note_on_c, 2, 80, 80
4, 509760, Note_on_c, 2, 80, 0
4, 509760, Note_on_c, 2, 69, 80
4, 509880, Note_on_c, 2, 69, 0
4, 509880, Note_on_c, 2, 81, 80
4, 510000, Note_on_c, 2, 81, 0
4, 510000, Note_on_c, 2, 68, 80
4, 510120, Note_on_c, 2, 68, 0
4, 510120, Note_on_c, 2, 80, 80
4, 510240, Note_on_c, 2, 80, 0
4, 510240, Note_on_c, 2, 69, 80
4, 510360, Note_on_c, 2, 69, 0
4, 510360, Note_on_c, 2, 81, 80
4, 510480, Note_on_c, 2, 81, 0
4, 510480, Note_on_c, 2, 68, 80
4, 510600, Note_on_c, 2, 68, 0
4, 510600, Note_on_c, 2, 80, 80
4, 510720, Note_on_c, 2, 80, 0
4, 510720, Note_on_c, 2, 81, 80
4, 510876, Note_on_c, 2, 81, 0
4, 510960, Note_on_c, 2, 85, 80
4, 511200, Note_on_c, 2, 85, 0
4, 511200, Note_on_c, 2, 83, 80
4, 511440, Note_on_c, 2, 83, 0
4, 511440, Note_on_c, 2, 80, 80
4, 511680, Note_on_c, 2, 80, 0
4, 511680, Note_on_c, 2, 81, 80
4, 511920, Note_on_c, 2, 81, 0
4, 511920, Note_on_c, 2, 85, 90
4, 512160, Note_on_c, 2, 85, 0
4, 512160, Note_on_c, 2, 83, 90
4, 512400, Note_on_c, 2, 83, 0
4, 512400, Note_on_c, 2, 80, 90
4, 512640, Note_on_c, 2, 80, 0
4, 512640, Note_on_c, 2, 81, 90
4, 512736, Note_on_c, 2, 81, 0
4, 512760, Note_on_c, 2, 85, 90
4, 512856, Note_on_c, 2, 85, 0
4, 512880, Note_on_c, 2, 83, 90
4, 512976, Note_on_c, 2, 83, 0
4, 513000, Note_on_c, 2, 81, 90
4, 513096, Note_on_c, 2, 81, 0
4, 513120, Note_on_c, 2, 80, 90
4, 513216, Note_on_c, 2, 80, 0
4, 513240, Note_on_c, 2, 83, 90
4, 513336, Note_on_c, 2, 83, 0
4, 513360, Note_on_c, 2, 81, 90
4, 513456, Note_on_c, 2, 81, 0
4, 513480, Note_on_c, 2, 80, 105
4, 513576, Note_on_c, 2, 80, 0
4, 513600, Note_on_c, 2, 81, 105
4, 513696, Note_on_c, 2, 81, 0
4, 513720, Note_on_c, 2, 85, 105
4, 513816, Note_on_c, 2, 85, 0
4, 513840, Note_on_c, 2, 83, 105
4, 513936, Note_on_c, 2, 83, 0
4, 513960, Note_on_c, 2, 81, 105
4, 514056, Note_on_c, 2, 81, 0
4, 514080, Note_on_c, 2, 80, 105
4, 514176, Note_on_c, 2, 80, 0
4, 514200, Note_on_c, 2, 83, 105
4, 514296, Note_on_c, 2, 83, 0
4, 514320, Note_on_c, 2, 81, 105
4, 514416, Note_on_c, 2, 81, 0
4, 514440, Note_on_c, 2, 80, 105
4, 514536, Note_on_c, 2, 80, 0
4, 514560, Note_on_c, 2, 81, 105
4, 514656, Note_on_c, 2, 81, 0
4, 514680, Note_on_c, 2, 88, 105
4, 514776, Note_on_c, 2, 88, 0
4, 514800, Note_on_c, 2, 85, 105
4, 514896, Note_on_c, 2, 85, 0
4, 514920, Note_on_c, 2, 81, 105
4, 515016, Note_on_c, 2, 81, 0
4, 515040, Note_on_c, 2, 80, 105
4, 515136, Note_on_c, 2, 80, 0
4, 515160, Note_on_c, 2, 88, 105
4, 515256, Note_on_c, 2, 88, 0
4, 515280, Note_on_c, 2, 83, 105
4, 515376, Note_on_c, 2, 83, 0
4, 515400, Note_on_c, 2, 80, 105
4, 515496, Note_on_c, 2, 80, 0
4, 515520, Note_on_c, 2, 81, 105
4, 515616, Note_on_c, 2, 81, 0
4, 515640, Note_on_c, 2, 88, 105
4, 515736, Note_on_c, 2, 88, 0
4, 515760, Note_on_c, 2, 85, 105
4, 515856, Note_on_c, 2, 85, 0
4, 515880, Note_on_c, 2, 81, 105
4, 515976, Note_on_c, 2, 81, 0
4, 516000, Note_on_c, 2, 80, 105
4, 516096, Note_on_c, 2, 80, 0
4, 516120, Note_on_c, 2, 88, 105
4, 516216, Note_on_c, 2, 88, 0
4, 516240, Note_on_c, 2, 83, 105
4, 516336, Note_on_c, 2, 83, 0
4, 516360, Note_on_c, 2, 80, 105
4, 516456, Note_on_c, 2, 80, 0
4, 516480, Note_on_c, 2, 81, 105
4, 516576, Note_on_c, 2, 81, 0
4, 516600, Note_on_c, 2, 83, 105
4, 516696, Note_on_c, 2, 83, 0
4, 516720, Note_on_c, 2, 85, 105
4, 516816, Note_on_c, 2, 85, 0
4, 516840, Note_on_c, 2, 86, 105
4, 516936, Note_on_c, 2, 86, 0
4, 516960, Note_on_c, 2, 88, 105
4, 517056, Note_on_c, 2, 88, 0
4, 517080, Note_on_c, 2, 86, 105
4, 517176, Note_on_c, 2, 86, 0
4, 517200, Note_on_c, 2, 85, 105
4, 517296, Note_on_c, 2, 85, 0
4, 517320, Note_on_c, 2, 83, 105
4, 517416, Note_on_c, 2, 83, 0
4, 517440, Note_on_c, 2, 81, 105
4, 517536, Note_on_c, 2, 81, 0
4, 517560, Note_on_c, 2, 80, 105
4, 517656, Note_on_c, 2, 80, 0
4, 517680, Note_on_c, 2, 78, 105
4, 517776, Note_on_c, 2, 78, 0
4, 517800, Note_on_c, 2, 76, 105
4, 517896, Note_on_c, 2, 76, 0
4, 517920, Note_on_c, 2, 74, 105
4, 518016, Note_on_c, 2, 74, 0
4, 518040, Note_on_c, 2, 73, 105
4, 518136, Note_on_c, 2, 73, 0
4, 518160, Note_on_c, 2, 71, 105
4, 518256, Note_on_c, 2, 71, 0
4, 518280, Note_on_c, 2, 69, 105
4, 518376, Note_on_c, 2, 69, 0
4, 518400, Note_on_c, 2, 74, 105
4, 518496, Note_on_c, 2, 74, 0
4, 518520, Note_on_c, 2, 76, 105
4, 518616, Note_on_c, 2, 76, 0
4, 518640, Note_on_c, 2, 78, 105
4, 518736, Note_on_c, 2, 78, 0
4, 518760, Note_on_c, 2, 80, 105
4, 518856, Note_on_c, 2, 80, 0
4, 518880, Note_on_c, 2, 81, 105
4, 518976, Note_on_c, 2, 81, 0
4, 519000, Note_on_c, 2, 80, 105
4, 519096, Note_on_c, 2, 80, 0
4, 519120, Note_on_c, 2, 78, 105
4, 519216, Note_on_c, 2, 78, 0
4, 519240, Note_on_c, 2, 76, 105
4, 519336, Note_on_c, 2, 76, 0
4, 519360, Note_on_c, 2, 74, 105
4, 519456, Note_on_c, 2, 74, 0
4, 519480, Note_on_c, 2, 73, 105
4, 519576, Note_on_c, 2, 73, 0
4, 519600, Note_on_c, 2, 71, 105
4, 519696, Note_on_c, 2, 71, 0
4, 519720, Note_on_c, 2, 69, 105
4, 519816, Note_on_c, 2, 69, 0
4, 519840, Note_on_c, 2, 68, 105
4, 519936, Note_on_c, 2, 68, 0
4, 519960, Note_on_c, 2, 66, 105
4, 520056, Note_on_c, 2, 66, 0
4, 520080, Note_on_c, 2, 64, 105
4, 520176, Note_on_c, 2, 64, 0
4, 520200, Note_on_c, 2, 63, 105
4, 520296, Note_on_c, 2, 63, 0
4, 520320, Note_on_c, 2, 64, 90
4, 520440, Note_on_c, 2, 64, 0
4, 520440, Note_on_c, 2, 76, 90
4, 520800, Note_on_c, 2, 76, 0
4, 520800, Note_on_c, 2, 74, 90
4, 520920, Note_on_c, 2, 74, 0
4, 520920, Note_on_c, 2, 73, 90
4, 521040, Note_on_c, 2, 73, 0
4, 521040, Note_on_c, 2, 71, 90
4, 521160, Note_on_c, 2, 71, 0
4, 521160, Note_on_c, 2, 69, 90
4, 521280, Note_on_c, 2, 69, 0
4, 521280, Note_on_c, 2, 73, 90
4, 521340, Note_on_c, 2, 73, 0
4, 521340, Note_on_c, 2, 71, 90
4, 521400, Note_on_c, 2, 71, 0
4, 521400, Note_on_c, 2, 73, 90
4, 521460, Note_on_c, 2, 73, 0
4, 521460, Note_on_c, 2, 71, 90
4, 521520, Note_on_c, 2, 71, 0
4, 521520, Note_on_c, 2, 73, 90
4, 521580, Note_on_c, 2, 73, 0
4, 521580, Note_on_c, 2, 71, 90
4, 521640, Note_on_c, 2, 71, 0
4, 521640, Note_on_c, 2, 73, 90
4, 521700, Note_on_c, 2, 73, 0
4, 521700, Note_on_c, 2, 71, 90
4, 521760, Note_on_c, 2, 71, 0
4, 521760, Note_on_c, 2, 73, 90
4, 521820, Note_on_c, 2, 73, 0
4, 521820, Note_on_c, 2, 71, 90
4, 521880, Note_on_c, 2, 71, 0
4, 521880, Note_on_c, 2, 73, 90
4, 521940, Note_on_c, 2, 73, 0
4, 521940, Note_on_c, 2, 71, 90
4, 522000, Note_on_c, 2, 71, 0
4, 522000, Note_on_c, 2, 69, 90
4, 522120, Note_on_c, 2, 69, 0
4, 522120, Note_on_c, 2, 71, 90
4, 522240, Note_on_c, 2, 71, 0
4, 522240, Note_on_c, 2, 69, 80
4, 522396, Note_on_c, 2, 69, 0
4, 522480, Note_on_c, 2, 73, 79
4, 522720, Note_on_c, 2, 73, 0
4, 522720, Note_on_c, 2, 71, 81
4, 522960, Note_on_c, 2, 71, 0
4, 522960, Note_on_c, 2, 68, 82
4, 523200, Note_on_c, 2, 68, 0
4, 523200, Note_on_c, 2, 69, 84
4, 523440, Note_on_c, 2, 69, 0
4, 523440, Note_on_c, 2, 73, 86
4, 523680, Note_on_c, 2, 73, 0
4, 523680, Note_on_c, 2, 71, 88
4, 523920, Note_on_c, 2, 71, 0
4, 523920, Note_on_c, 2, 68, 89
4, 524160, Note_on_c, 2, 68, 0
4, 524160, Note_on_c, 2, 69, 91
4, 524256, Note_on_c, 2, 69, 0
4, 524280, Note_on_c, 2, 73, 92
4, 524376, Note_on_c, 2, 73, 0
4, 524400, Note_on_c, 2, 71, 93
4, 524496, Note_on_c, 2, 71, 0
4, 524520, Note_on_c, 2, 69, 94
4, 524616, Note_on_c, 2, 69, 0
4, 524640, Note_on_c, 2, 68, 95
4, 524736, Note_on_c, 2, 68, 0
4, 524760, Note_on_c, 2, 71, 96
4, 524856, Note_on_c, 2, 71, 0
4, 524880, Note_on_c, 2, 69, 97
4, 524976, Note_on_c, 2, 69, 0
4, 525000, Note_on_c, 2, 68, 97
4, 525096, Note_on_c, 2, 68, 0
4, 525120, Note_on_c, 2, 69, 98
4, 525216, Note_on_c, 2, 69, 0
4, 525240, Note_on_c, 2, 73, 99
4, 525336, Note_on_c, 2, 73, 0
4, 525360, Note_on_c, 2, 71, 100
4, 525456, Note_on_c, 2, 71, 0
4, 525480, Note_on_c, 2, 69, 101
4, 525576, Note_on_c, 2, 69, 0
4, 525600, Note_on_c, 2, 68, 102
4, 525696, Note_on_c, 2, 68, 0
4, 525720, Note_on_c, 2, 71, 103
4, 525816, Note_on_c, 2, 71, 0
4, 525840, Note_on_c, 2, 69, 104
4, 525936, Note_on_c, 2, 69, 0
4, 525960, Note_on_c, 2, 68, 105
4, 526056, Note_on_c, 2, 68, 0
4, 526080, Note_on_c, 2, 69, 105
4, 526176, Note_on_c, 2, 69, 0
4, 526200, Note_on_c, 2, 76, 105
4, 526296, Note_on_c, 2, 76, 0
4, 526320, Note_on_c, 2, 73, 105
4, 526416, Note_on_c, 2, 73, 0
4, 526440, Note_on_c, 2, 69, 105
4, 526536, Note_on_c, 2, 69, 0
4, 526560, Note_on_c, 2, 68, 105
4, 526656, Note_on_c, 2, 68, 0
4, 526680, Note_on_c, 2, 76, 105
4, 526776, Note_on_c, 2, 76, 0
4, 526800, Note_on_c, 2, 71, 105
4, 526896, Note_on_c, 2, 71, 0
4, 526920, Note_on_c, 2, 68, 105
4, 527016, Note_on_c, 2, 68, 0
4, 527040, Note_on_c, 2, 69, 105
4, 527136, Note_on_c, 2, 69, 0
4, 527160, Note_on_c, 2, 76, 105
4, 527256, Note_on_c, 2, 76, 0
4, 527280, Note_on_c, 2, 73, 105
4, 527376, Note_on_c, 2, 73, 0
4, 527400, Note_on_c, 2, 69, 105
4, 527496, Note_on_c, 2, 69, 0
4, 527520, Note_on_c, 2, 68, 105
4, 527616, Note_on_c, 2, 68, 0
4, 527640, Note_on_c, 2, 76, 105
4, 527736, Note_on_c, 2, 76, 0
4, 527760, Note_on_c, 2, 71, 105
4, 527856, Note_on_c, 2, 71, 0
4, 527880, Note_on_c, 2, 68, 105
4, 527976, Note_on_c, 2, 68, 0
4, 528000, Note_on_c, 2, 69, 105
4, 528096, Note_on_c, 2, 69, 0
4, 528120, Note_on_c, 2, 71, 105
4, 528216, Note_on_c, 2, 71, 0
4, 528240, Note_on_c, 2, 73, 105
4, 528336, Note_on_c, 2, 73, 0
4, 528360, Note_on_c, 2, 74, 105
4, 528456, Note_on_c, 2, 74, 0
4, 528480, Note_on_c, 2, 76, 105
4, 528576, Note_on_c, 2, 76, 0
4, 528600, Note_on_c, 2, 74, 105
4, 528696, Note_on_c, 2, 74, 0
4, 528720, Note_on_c, 2, 73, 105
4, 528816, Note_on_c, 2, 73, 0
4, 528840, Note_on_c, 2, 71, 105
4, 528936, Note_on_c, 2, 71, 0
4, 528960, Note_on_c, 2, 69, 105
4, 529056, Note_on_c, 2, 69, 0
4, 529080, Note_on_c, 2, 68, 105
4, 529176, Note_on_c, 2, 68, 0
4, 529200, Note_on_c, 2, 66, 105
4, 529296, Note_on_c, 2, 66, 0
4, 529320, Note_on_c, 2, 64, 105
4, 529416, Note_on_c, 2, 64, 0
4, 529440, Note_on_c, 2, 62, 105
4, 529536, Note_on_c, 2, 62, 0
4, 529560, Note_on_c, 2, 61, 105
4, 529656, Note_on_c, 2, 61, 0
4, 529680, Note_on_c, 2, 59, 105
4, 529776, Note_on_c, 2, 59, 0
4, 529800, Note_on_c, 2, 57, 105
4, 529896, Note_on_c, 2, 57, 0
4, 529920, Note_on_c, 2, 79, 125
4, 530832, Note_on_c, 2, 79, 0
4, 530880, Note_on_c, 2, 74, 105
4, 530940, Note_on_c, 2, 74, 0
4, 530940, Note_on_c, 2, 73, 105
4, 531000, Note_on_c, 2, 73, 0
4, 531000, Note_on_c, 2, 74, 105
4, 531060, Note_on_c, 2, 74, 0
4, 531060, Note_on_c, 2, 73, 105
4, 531120, Note_on_c, 2, 73, 0
4, 531120, Note_on_c, 2, 74, 105
4, 531180, Note_on_c, 2, 74, 0
4, 531180, Note_on_c, 2, 73, 105
4, 531240, Note_on_c, 2, 73, 0
4, 531240, Note_on_c, 2, 74, 105
4, 531300, Note_on_c, 2, 74, 0
4, 531300, Note_on_c, 2, 73, 105
4, 531360, Note_on_c, 2, 73, 0
4, 531360, Note_on_c, 2, 74, 105
4, 531420, Note_on_c, 2, 74, 0
4, 531420, Note_on_c, 2, 73, 105
4, 531480, Note_on_c, 2, 73, 0
4, 531480, Note_on_c, 2, 74, 105
4, 531540, Note_on_c, 2, 74, 0
4, 531540, Note_on_c, 2, 73, 105
4, 531600, Note_on_c, 2, 73, 0
4, 531600, Note_on_c, 2, 71, 105
4, 531720, Note_on_c, 2, 71, 0
4, 531720, Note_on_c, 2, 73, 105
4, 531840, Note_on_c, 2, 73, 0
4, 531840, Note_on_c, 2, 74, 105
4, 531936, Note_on_c, 2, 74, 0
4, 531960, Note_on_c, 2, 76, 105
4, 532056, Note_on_c, 2, 76, 0
4, 532080, Note_on_c, 2, 78, 105
4, 532176, Note_on_c, 2, 78, 0
4, 532200, Note_on_c, 2, 79, 105
4, 532296, Note_on_c, 2, 79, 0
4, 532320, Note_on_c, 2, 81, 105
4, 532416, Note_on_c, 2, 81, 0
4, 532440, Note_on_c, 2, 79, 105
4, 532536, Note_on_c, 2, 79, 0
4, 532560, Note_on_c, 2, 78, 105
4, 532656, Note_on_c, 2, 78, 0
4, 532680, Note_on_c, 2, 76, 105
4, 532776, Note_on_c, 2, 76, 0
4, 532800, Note_on_c, 2, 74, 105
4, 532896, Note_on_c, 2, 74, 0
4, 532920, Note_on_c, 2, 73, 105
4, 533016, Note_on_c, 2, 73, 0
4, 533040, Note_on_c, 2, 71, 105
4, 533136, Note_on_c, 2, 71, 0
4, 533160, Note_on_c, 2, 69, 105
4, 533256, Note_on_c, 2, 69, 0
4, 533280, Note_on_c, 2, 67, 105
4, 533376, Note_on_c, 2, 67, 0
4, 533400, Note_on_c, 2, 66, 105
4, 533496, Note_on_c, 2, 66, 0
4, 533520, Note_on_c, 2, 64, 105
4, 533616, Note_on_c, 2, 64, 0
4, 533640, Note_on_c, 2, 62, 105
4, 533736, Note_on_c, 2, 62, 0
4, 533760, Note_on_c, 2, 84, 125
4, 534672, Note_on_c, 2, 84, 0
4, 534720, Note_on_c, 2, 63, 125
4, 535632, Note_on_c, 2, 63, 0
4, 535680, Note_on_c, 2, 64, 125
4, 536832, Note_on_c, 2, 64, 0
4, 536880, Note_on_c, 2, 66, 105
4, 536976, Note_on_c, 2, 66, 0
4, 537000, Note_on_c, 2, 68, 105
4, 537096, Note_on_c, 2, 68, 0
4, 537120, Note_on_c, 2, 69, 105
4, 537216, Note_on_c, 2, 69, 0
4, 537240, Note_on_c, 2, 71, 105
4, 537336, Note_on_c, 2, 71, 0
4, 537360, Note_on_c, 2, 73, 105
4, 537456, Note_on_c, 2, 73, 0
4, 537480, Note_on_c, 2, 74, 105
4, 537576, Note_on_c, 2, 74, 0
4, 537600, Note_on_c, 2, 76, 105
4, 537696, Note_on_c, 2, 76, 0
4, 537720, Note_on_c, 2, 69, 105
4, 537816, Note_on_c, 2, 69, 0
4, 537840, Note_on_c, 2, 71, 105
4, 537936, Note_on_c, 2, 71, 0
4, 537960, Note_on_c, 2, 73, 105
4, 538056, Note_on_c, 2, 73, 0
4, 538080, Note_on_c, 2, 74, 105
4, 538176, Note_on_c, 2, 74, 0
4, 538200, Note_on_c, 2, 76, 105
4, 538296, Note_on_c, 2, 76, 0
4, 538320, Note_on_c, 2, 78, 105
4, 538416, Note_on_c, 2, 78, 0
4, 538440, Note_on_c, 2, 80, 105
4, 538536, Note_on_c, 2, 80, 0
4, 538560, Note_on_c, 2, 81, 105
4, 538656, Note_on_c, 2, 81, 0
4, 538680, Note_on_c, 2, 76, 105
4, 538776, Note_on_c, 2, 76, 0
4, 538800, Note_on_c, 2, 78, 105
4, 538896, Note_on_c, 2, 78, 0
4, 538920, Note_on_c, 2, 80, 105
4, 539016, Note_on_c, 2, 80, 0
4, 539040, Note_on_c, 2, 81, 105
4, 539136, Note_on_c, 2, 81, 0
4, 539160, Note_on_c, 2, 83, 105
4, 539256, Note_on_c, 2, 83, 0
4, 539280, Note_on_c, 2, 85, 105
4, 539376, Note_on_c, 2, 85, 0
4, 539400, Note_on_c, 2, 86, 105
4, 539496, Note_on_c, 2, 86, 0
4, 539520, Note_on_c, 2, 88, 105
4, 539712, Note_on_c, 2, 88, 0
4, 539760, Note_on_c, 2, 88, 105
4, 539856, Note_on_c, 2, 88, 0
4, 539880, Note_on_c, 2, 85, 105
4, 539976, Note_on_c, 2, 85, 0
4, 540000, Note_on_c, 2, 81, 105
4, 540192, Note_on_c, 2, 81, 0
4, 540240, Note_on_c, 2, 85, 105
4, 540336, Note_on_c, 2, 85, 0
4, 540360, Note_on_c, 2, 81, 105
4, 540456, Note_on_c, 2, 81, 0
4, 540480, Note_on_c, 2, 76, 105
4, 540672, Note_on_c, 2, 76, 0
4, 540720, Note_on_c, 2, 85, 105
4, 540816, Note_on_c, 2, 85, 0
4, 540840, Note_on_c, 2, 81, 105
4, 540936, Note_on_c, 2, 81, 0
4, 540960, Note_on_c, 2, 76, 105
4, 541152, Note_on_c, 2, 76, 0
4, 541200, Note_on_c, 2, 81, 105
4, 541296, Note_on_c, 2, 81, 0
4, 541320, Note_on_c, 2, 76, 105
4, 541416, Note_on_c, 2, 76, 0
4, 541440, Note_on_c, 2, 73, 105
4, 541632, Note_on_c, 2, 73, 0
4, 541680, Note_on_c, 2, 81, 105
4, 541776, Note_on_c, 2, 81, 0
4, 541800, Note_on_c, 2, 76, 105
4, 541896, Note_on_c, 2, 76, 0
4, 541920, Note_on_c, 2, 73, 105
4, 542112, Note_on_c, 2, 73, 0
4, 542160, Note_on_c, 2, 76, 105
4, 542256, Note_on_c, 2, 76, 0
4, 542280, Note_on_c, 2, 73, 105
4, 542376, Note_on_c, 2, 73, 0
4, 542400, Note_on_c, 2, 69, 105
4, 542592, Note_on_c, 2, 69, 0
4, 542640, Note_on_c, 2, 76, 105
4, 542736, Note_on_c, 2, 76, 0
4, 542760, Note_on_c, 2, 73, 105
4, 542856, Note_on_c, 2, 73, 0
4, 542880, Note_on_c, 2, 69, 105
4, 543072, Note_on_c, 2, 69, 0
4, 543120, Note_on_c, 2, 73, 105
4, 543216, Note_on_c, 2, 73, 0
4, 543240, Note_on_c, 2, 69, 105
4, 543336, Note_on_c, 2, 69, 0
4, 543360, Note_on_c, 2, 64, 105
4, 543744, Note_on_c, 2, 64, 0
4, 543840, Note_on_c, 2, 76, 125
4, 544416, Note_on_c, 2, 76, 0
4, 544560, Note_on_c, 2, 78, 105
4, 544656, Note_on_c, 2, 78, 0
4, 544680, Note_on_c, 2, 76, 105
4, 544776, Note_on_c, 2, 76, 0
4, 544800, Note_on_c, 2, 74, 105
4, 544896, Note_on_c, 2, 74, 0
4, 544920, Note_on_c, 2, 73, 105
4, 545016, Note_on_c, 2, 73, 0
4, 545040, Note_on_c, 2, 71, 105
4, 545136, Note_on_c, 2, 71, 0
4, 545160, Note_on_c, 2, 69, 105
4, 545256, Note_on_c, 2, 69, 0
4, 545280, Note_on_c, 2, 73, 103
4, 545340, Note_on_c, 2, 73, 0
4, 545340, Note_on_c, 2, 71, 103
4, 545400, Note_on_c, 2, 71, 0
4, 545400, Note_on_c, 2, 73, 103
4, 545460, Note_on_c, 2, 73, 0
4, 545460, Note_on_c, 2, 71, 103
4, 545520, Note_on_c, 2, 71, 0
4, 545520, Note_on_c, 2, 73, 103
4, 545580, Note_on_c, 2, 73, 0
4, 545580, Note_on_c, 2, 71, 103
4, 545640, Note_on_c, 2, 71, 0
4, 545640, Note_on_c, 2, 73, 103
4, 545700, Note_on_c, 2, 73, 0
4, 545700, Note_on_c, 2, 71, 103
4, 545760, Note_on_c, 2, 71, 0
4, 545760, Note_on_c, 2, 73, 104
4, 545820, Note_on_c, 2, 73, 0
4, 545820, Note_on_c, 2, 71, 104
4, 545880, Note_on_c, 2, 71, 0
4, 545880, Note_on_c, 2, 73, 104
4, 545940, Note_on_c, 2, 73, 0
4, 545940, Note_on_c, 2, 71, 104
4, 546000, Note_on_c, 2, 71, 0
4, 546000, Note_on_c, 2, 73, 104
4, 546060, Note_on_c, 2, 73, 0
4, 546060, Note_on_c, 2, 71, 104
4, 546120, Note_on_c, 2, 71, 0
4, 546120, Note_on_c, 2, 73, 104
4, 546180, Note_on_c, 2, 73, 0
4, 546180, Note_on_c, 2, 71, 105
4, 546240, Note_on_c, 2, 71, 0
4, 546240, Note_on_c, 2, 73, 105
4, 546300, Note_on_c, 2, 73, 0
4, 546300, Note_on_c, 2, 71, 105
4, 546360, Note_on_c, 2, 71, 0
4, 546360, Note_on_c, 2, 73, 105
4, 546420, Note_on_c, 2, 73, 0
4, 546420, Note_on_c, 2, 71, 105
4, 546480, Note_on_c, 2, 71, 0
4, 546480, Note_on_c, 2, 73, 105
4, 546540, Note_on_c, 2, 73, 0
4, 546540, Note_on_c, 2, 71, 105
4, 546600, Note_on_c, 2, 71, 0
4, 546600, Note_on_c, 2, 73, 106
4, 546660, Note_on_c, 2, 73, 0
4, 546660, Note_on_c, 2, 71, 106
4, 546720, Note_on_c, 2, 71, 0
4, 546720, Note_on_c, 2, 73, 106
4, 546780, Note_on_c, 2, 73, 0
4, 546780, Note_on_c, 2, 71, 106
4, 546840, Note_on_c, 2, 71, 0
4, 546840, Note_on_c, 2, 73, 106
4, 546900, Note_on_c, 2, 73, 0
4, 546900, Note_on_c, 2, 71, 106
4, 546960, Note_on_c, 2, 71, 0
4, 546960, Note_on_c, 2, 69, 106
4, 547056, Note_on_c, 2, 69, 0
4, 547080, Note_on_c, 2, 71, 105
4, 547176, Note_on_c, 2, 71, 0
4, 547200, Note_on_c, 2, 69, 90
4, 547584, Note_on_c, 2, 69, 0
4, 560640, Note_on_c, 2, 64, 127
4, 562080, Note_on_c, 2, 64, 0
4, 562080, Note_on_c, 2, 68, 117
4, 562140, Note_on_c, 2, 68, 0
4, 562140, Note_on_c, 2, 66, 117
4, 562200, Note_on_c, 2, 66, 0
4, 562200, Note_on_c, 2, 64, 117
4, 562260, Note_on_c, 2, 64, 0
4, 562260, Note_on_c, 2, 66, 117
4, 562320, Note_on_c, 2, 66, 0
4, 562320, Note_on_c, 2, 68, 117
4, 562380, Note_on_c, 2, 68, 0
4, 562380, Note_on_c, 2, 69, 117
4, 562440, Note_on_c, 2, 69, 0
4, 562440, Note_on_c, 2, 71, 117
4, 562500, Note_on_c, 2, 71, 0
4, 562500, Note_on_c, 2, 73, 117
4, 562560, Note_on_c, 2, 73, 0
4, 562560, Note_on_c, 2, 74, 117
4, 562620, Note_on_c, 2, 74, 0
4, 562620, Note_on_c, 2, 76, 117
4, 562680, Note_on_c, 2, 76, 0
4, 562680, Note_on_c, 2, 78, 117
4, 562740, Note_on_c, 2, 78, 0
4, 562740, Note_on_c, 2, 80, 117
4, 562800, Note_on_c, 2, 80, 0
4, 562800, Note_on_c, 2, 81, 117
4, 562860, Note_on_c, 2, 81, 0
4, 562860, Note_on_c, 2, 83, 117
4, 562920, Note_on_c, 2, 83, 0
4, 562920, Note_on_c, 2, 85, 117
4, 562980, Note_on_c, 2, 85, 0
4, 562980, Note_on_c, 2, 86, 117
4, 563040, Note_on_c, 2, 86, 0
4, 563040, Note_on_c, 2, 88, 117
4, 563136, Note_on_c, 2, 88, 0
4, 563160, Note_on_c, 2, 85, 117
4, 563256, Note_on_c, 2, 85, 0
4, 563280, Note_on_c, 2, 81, 117
4, 563376, Note_on_c, 2, 81, 0
4, 563400, Note_on_c, 2, 76, 117
4, 563496, Note_on_c, 2, 76, 0
4, 563520, Note_on_c, 2, 85, 117
4, 563616, Note_on_c, 2, 85, 0
4, 563640, Note_on_c, 2, 81, 117
4, 563736, Note_on_c, 2, 81, 0
4, 563760, Note_on_c, 2, 76, 117
4, 563856, Note_on_c, 2, 76, 0
4, 563880, Note_on_c, 2, 73, 117
4, 563976, Note_on_c, 2, 73, 0
4, 564000, Note_on_c, 2, 81, 117
4, 564096, Note_on_c, 2, 81, 0
4, 564120, Note_on_c, 2, 76, 117
4, 564216, Note_on_c, 2, 76, 0
4, 564240, Note_on_c, 2, 73, 117
4, 564336, Note_on_c, 2, 73, 0
4, 564360, Note_on_c, 2, 69, 117
4, 564456, Note_on_c, 2, 69, 0
4, 564480, Note_on_c, 2, 76, 117
4, 564576, Note_on_c, 2, 76, 0
4, 564600, Note_on_c, 2, 73, 117
4, 564696, Note_on_c, 2, 73, 0
4, 564720, Note_on_c, 2, 69, 117
4, 564816, Note_on_c, 2, 69, 0
4, 564840, Note_on_c, 2, 64, 117
4, 564936, Note_on_c, 2, 64, 0
4, 564960, Note_on_c, 2, 62, 117
4, 565344, Note_on_c, 2, 62, 0
4, 565560, Note_on_c, 2, 62, 117
4, 565656, Note_on_c, 2, 62, 0
4, 565680, Note_on_c, 2, 68, 117
4, 565776, Note_on_c, 2, 68, 0
4, 565800, Note_on_c, 2, 71, 117
4, 565896, Note_on_c, 2, 71, 0
4, 565920, Note_on_c, 2, 74, 117
4, 566016, Note_on_c, 2, 74, 0
4, 566040, Note_on_c, 2, 71, 117
4, 566136, Note_on_c, 2, 71, 0
4, 566160, Note_on_c, 2, 80, 117
4, 566256, Note_on_c, 2, 80, 0
4, 566280, Note_on_c, 2, 76, 117
4, 566376, Note_on_c, 2, 76, 0
4, 566400, Note_on_c, 2, 83, 117
4, 566496, Note_on_c, 2, 83, 0
4, 566520, Note_on_c, 2, 80, 117
4, 566616, Note_on_c, 2, 80, 0
4, 566640, Note_on_c, 2, 85, 117
4, 566736, Note_on_c, 2, 85, 0
4, 566760, Note_on_c, 2, 81, 117
4, 566856, Note_on_c, 2, 81, 0
4, 566880, Note_on_c, 2, 86, 117
4, 566976, Note_on_c, 2, 86, 0
4, 567000, Note_on_c, 2, 83, 117
4, 567096, Note_on_c, 2, 83, 0
4, 567120, Note_on_c, 2, 80, 117
4, 567216, Note_on_c, 2, 80, 0
4, 567240, Note_on_c, 2, 74, 117
4, 567336, Note_on_c, 2, 74, 0
4, 567360, Note_on_c, 2, 83, 117
4, 567456, Note_on_c, 2, 83, 0
4, 567480, Note_on_c, 2, 80, 117
4, 567576, Note_on_c, 2, 80, 0
4, 567600, Note_on_c, 2, 74, 117
4, 567696, Note_on_c, 2, 74, 0
4, 567720, Note_on_c, 2, 71, 117
4, 567816, Note_on_c, 2, 71, 0
4, 567840, Note_on_c, 2, 80, 117
4, 567936, Note_on_c, 2, 80, 0
4, 567960, Note_on_c, 2, 74, 117
4, 568056, Note_on_c, 2, 74, 0
4, 568080, Note_on_c, 2, 71, 117
4, 568176, Note_on_c, 2, 71, 0
4, 568200, Note_on_c, 2, 68, 117
4, 568296, Note_on_c, 2, 68, 0
4, 568320, Note_on_c, 2, 74, 117
4, 568416, Note_on_c, 2, 74, 0
4, 568440, Note_on_c, 2, 71, 117
4, 568536, Note_on_c, 2, 71, 0
4, 568560, Note_on_c, 2, 68, 117
4, 568656, Note_on_c, 2, 68, 0
4, 568680, Note_on_c, 2, 62, 117
4, 568776, Note_on_c, 2, 62, 0
4, 568800, Note_on_c, 2, 60, 117
4, 569184, Note_on_c, 2, 60, 0
4, 569400, Note_on_c, 2, 57, 117
4, 569496, Note_on_c, 2, 57, 0
4, 569520, Note_on_c, 2, 60, 117
4, 569616, Note_on_c, 2, 60, 0
4, 569640, Note_on_c, 2, 66, 117
4, 569736, Note_on_c, 2, 66, 0
4, 569760, Note_on_c, 2, 69, 117
4, 569856, Note_on_c, 2, 69, 0
4, 569880, Note_on_c, 2, 66, 117
4, 569976, Note_on_c, 2, 66, 0
4, 570000, Note_on_c, 2, 72, 117
4, 570096, Note_on_c, 2, 72, 0
4, 570120, Note_on_c, 2, 69, 117
4, 570216, Note_on_c, 2, 69, 0
4, 570240, Note_on_c, 2, 78, 117
4, 570336, Note_on_c, 2, 78, 0
4, 570360, Note_on_c, 2, 72, 117
4, 570456, Note_on_c, 2, 72, 0
4, 570480, Note_on_c, 2, 81, 117
4, 570576, Note_on_c, 2, 81, 0
4, 570600, Note_on_c, 2, 78, 117
4, 570696, Note_on_c, 2, 78, 0
4, 570720, Note_on_c, 2, 84, 117
4, 570816, Note_on_c, 2, 84, 0
4, 570840, Note_on_c, 2, 81, 117
4, 570936, Note_on_c, 2, 81, 0
4, 570960, Note_on_c, 2, 78, 117
4, 571056, Note_on_c, 2, 78, 0
4, 571080, Note_on_c, 2, 72, 117
4, 571176, Note_on_c, 2, 72, 0
4, 571200, Note_on_c, 2, 81, 117
4, 571296, Note_on_c, 2, 81, 0
4, 571320, Note_on_c, 2, 78, 117
4, 571416, Note_on_c, 2, 78, 0
4, 571440, Note_on_c, 2, 72, 117
4, 571536, Note_on_c, 2, 72, 0
4, 571560, Note_on_c, 2, 69, 117
4, 571656, Note_on_c, 2, 69, 0
4, 571680, Note_on_c, 2, 78, 117
4, 571776, Note_on_c, 2, 78, 0
4, 571800, Note_on_c, 2, 72, 117
4, 571896, Note_on_c, 2, 72, 0
4, 571920, Note_on_c, 2, 69, 117
4, 572016, Note_on_c, 2, 69, 0
4, 572040, Note_on_c, 2, 66, 117
4, 572136, Note_on_c, 2, 66, 0
4, 572160, Note_on_c, 2, 72, 117
4, 572256, Note_on_c, 2, 72, 0
4, 572280, Note_on_c, 2, 69, 117
4, 572376, Note_on_c, 2, 69, 0
4, 572400, Note_on_c, 2, 66, 117
4, 572496, Note_on_c, 2, 66, 0
4, 572520, Note_on_c, 2, 60, 117
4, 572616, Note_on_c, 2, 60, 0
4, 572640, Note_on_c, 2, 59, 117
4, 573024, Note_on_c, 2, 59, 0
4, 573240, Note_on_c, 2, 62, 117
4, 573336, Note_on_c, 2, 62, 0
4, 573360, Note_on_c, 2, 64, 117
4, 573456, Note_on_c, 2, 64, 0
4, 573480, Note_on_c, 2, 68, 117
4, 573576, Note_on_c, 2, 68, 0
4, 573600, Note_on_c, 2, 69, 117
4, 573696, Note_on_c, 2, 69, 0
4, 574200, Note_on_c, 2, 61, 117
4, 574296, Note_on_c, 2, 61, 0
4, 574320, Note_on_c, 2, 64, 117
4, 574416, Note_on_c, 2, 64, 0
4, 574440, Note_on_c, 2, 69, 117
4, 574536, Note_on_c, 2, 69, 0
4, 574560, Note_on_c, 2, 71, 117
4, 574656, Note_on_c, 2, 71, 0
4, 575160, Note_on_c, 2, 64, 117
4, 575256, Note_on_c, 2, 64, 0
4, 575280, Note_on_c, 2, 68, 117
4, 575376, Note_on_c, 2, 68, 0
4, 575400, Note_on_c, 2, 71, 117
4, 575496, Note_on_c, 2, 71, 0
4, 575520, Note_on_c, 2, 73, 117
4, 575616, Note_on_c, 2, 73, 0
4, 576120, Note_on_c, 2, 64, 117
4, 576216, Note_on_c, 2, 64, 0
4, 576240, Note_on_c, 2, 69, 117
4, 576336, Note_on_c, 2, 69, 0
4, 576360, Note_on_c, 2, 73, 117
4, 576456, Note_on_c, 2, 73, 0
4, 576480, Note_on_c, 2, 74, 117
4, 576576, Note_on_c, 2, 74, 0
4, 576600, Note_on_c, 2, 64, 117
4, 576696, Note_on_c, 2, 64, 0
4, 576720, Note_on_c, 2, 68, 117
4, 576816, Note_on_c, 2, 68, 0
4, 576840, Note_on_c, 2, 71, 117
4, 576936, Note_on_c, 2, 71, 0
4, 576960, Note_on_c, 2, 74, 117
4, 577056, Note_on_c, 2, 74, 0
4, 577080, Note_on_c, 2, 71, 117
4, 577176, Note_on_c, 2, 71, 0
4, 577200, Note_on_c, 2, 74, 117
4, 577296, Note_on_c, 2, 74, 0
4, 577320, Note_on_c, 2, 71, 117
4, 577416, Note_on_c, 2, 71, 0
4, 577440, Note_on_c, 2, 74, 117
4, 577536, Note_on_c, 2, 74, 0
4, 577560, Note_on_c, 2, 68, 117
4, 577656, Note_on_c, 2, 68, 0
4, 577680, Note_on_c, 2, 71, 117
4, 577776, Note_on_c, 2, 71, 0
4, 577800, Note_on_c, 2, 74, 117
4, 577896, Note_on_c, 2, 74, 0
4, 577920, Note_on_c, 2, 80, 117
4, 578016, Note_on_c, 2, 80, 0
4, 578040, Note_on_c, 2, 74, 117
4, 578136, Note_on_c, 2, 74, 0
4, 578160, Note_on_c, 2, 80, 117
4, 578256, Note_on_c, 2, 80, 0
4, 578280, Note_on_c, 2, 74, 117
4, 578376, Note_on_c, 2, 74, 0
4, 578400, Note_on_c, 2, 80, 117
4, 578496, Note_on_c, 2, 80, 0
4, 578520, Note_on_c, 2, 71, 117
4, 578616, Note_on_c, 2, 71, 0
4, 578640, Note_on_c, 2, 74, 117
4, 578736, Note_on_c, 2, 74, 0
4, 578760, Note_on_c, 2, 80, 117
4, 578856, Note_on_c, 2, 80, 0
4, 578880, Note_on_c, 2, 83, 117
4, 578976, Note_on_c, 2, 83, 0
4, 579000, Note_on_c, 2, 80, 117
4, 579096, Note_on_c, 2, 80, 0
4, 579120, Note_on_c, 2, 83, 117
4, 579216, Note_on_c, 2, 83, 0
4, 579240, Note_on_c, 2, 80, 117
4, 579336, Note_on_c, 2, 80, 0
4, 579360, Note_on_c, 2, 83, 117
4, 579456, Note_on_c, 2, 83, 0
4, 579480, Note_on_c, 2, 76, 117
4, 579576, Note_on_c, 2, 76, 0
4, 579600, Note_on_c, 2, 80, 117
4, 579696, Note_on_c, 2, 80, 0
4, 579720, Note_on_c, 2, 83, 117
4, 579816, Note_on_c, 2, 83, 0
4, 579840, Note_on_c, 2, 86, 117
4, 579936, Note_on_c, 2, 86, 0
4, 579960, Note_on_c, 2, 83, 117
4, 580056, Note_on_c, 2, 83, 0
4, 580080, Note_on_c, 2, 86, 117
4, 580176, Note_on_c, 2, 86, 0
4, 580200, Note_on_c, 2, 83, 117
4, 580296, Note_on_c, 2, 83, 0
4, 580320, Note_on_c, 2, 86, 117
4, 580480, Note_on_c, 2, 86, 0
4, 580480, Note_on_c, 2, 82, 117
4, 580640, Note_on_c, 2, 82, 0
4, 580640, Note_on_c, 2, 83, 117
4, 580800, Note_on_c, 2, 83, 0
4, 580800, Note_on_c, 2, 86, 117
4, 580960, Note_on_c, 2, 86, 0
4, 580960, Note_on_c, 2, 82, 117
4, 581120, Note_on_c, 2, 82, 0
4, 581120, Note_on_c, 2, 83, 117
4, 581280, Note_on_c, 2, 83, 0
4, 581280, Note_on_c, 2, 86, 117
4, 581440, Note_on_c, 2, 86, 0
4, 581440, Note_on_c, 2, 82, 117
4, 581600, Note_on_c, 2, 82, 0
4, 581600, Note_on_c, 2, 83, 117
4, 581760, Note_on_c, 2, 83, 0
4, 581760, Note_on_c, 2, 86, 117
4, 581920, Note_on_c, 2, 86, 0
4, 581920, Note_on_c, 2, 82, 117
4, 582080, Note_on_c, 2, 82, 0
4, 582080, Note_on_c, 2, 83, 117
4, 582240, Note_on_c, 2, 83, 0
4, 582240, Note_on_c, 2, 86, 117
4, 582328, Note_on_c, 2, 86, 0
4, 582400, Note_on_c, 2, 85, 117
4, 582488, Note_on_c, 2, 85, 0
4, 582560, Note_on_c, 2, 83, 117
4, 582648, Note_on_c, 2, 83, 0
4, 582720, Note_on_c, 2, 81, 117
4, 582808, Note_on_c, 2, 81, 0
4, 582880, Note_on_c, 2, 80, 117
4, 582968, Note_on_c, 2, 80, 0
4, 583040, Note_on_c, 2, 78, 117
4, 583128, Note_on_c, 2, 78, 0
4, 583200, Note_on_c, 2, 76, 105
4, 583360, Note_on_c, 2, 76, 0
4, 583360, Note_on_c, 2, 75, 105
4, 583520, Note_on_c, 2, 75, 0
4, 583520, Note_on_c, 2, 74, 105
4, 583680, Note_on_c, 2, 74, 0
4, 583680, Note_on_c, 2, 73, 90
4, 583840, Note_on_c, 2, 73, 0
4, 583840, Note_on_c, 2, 74, 90
4, 584000, Note_on_c, 2, 74, 0
4, 584000, Note_on_c, 2, 71, 90
4, 584160, Note_on_c, 2, 71, 0
4, 584160, Note_on_c, 2, 69, 80
4, 584544, Note_on_c, 2, 69, 0
4, 584640, Note_on_c, 2, 71, 80
4, 584700, Note_on_c, 2, 71, 0
4, 584700, Note_on_c, 2, 69, 80
4, 584760, Note_on_c, 2, 69, 0
4, 584760, Note_on_c, 2, 71, 80
4, 584820, Note_on_c, 2, 71, 0
4, 584820, Note_on_c, 2, 69, 80
4, 584880, Note_on_c, 2, 69, 0
4, 584880, Note_on_c, 2, 71, 80
4, 584940, Note_on_c, 2, 71, 0
4, 584940, Note_on_c, 2, 69, 80
4, 585000, Note_on_c, 2, 69, 0
4, 585000, Note_on_c, 2, 68, 80
4, 585060, Note_on_c, 2, 68, 0
4, 585060, Note_on_c, 2, 69, 80
4, 585120, Note_on_c, 2, 69, 0
4, 585120, Note_on_c, 2, 73, 80
4, 585600, Note_on_c, 2, 73, 0
4, 585600, Note_on_c, 2, 76, 80
4, 585984, Note_on_c, 2, 76, 0
4, 586080, Note_on_c, 2, 76, 80
4, 586240, Note_on_c, 2, 76, 0
4, 586240, Note_on_c, 2, 75, 80
4, 586400, Note_on_c, 2, 75, 0
4, 586400, Note_on_c, 2, 74, 80
4, 586560, Note_on_c, 2, 74, 0
4, 586560, Note_on_c, 2, 73, 80
4, 586720, Note_on_c, 2, 73, 0
4, 586720, Note_on_c, 2, 74, 80
4, 586880, Note_on_c, 2, 74, 0
4, 586880, Note_on_c, 2, 71, 80
4, 587040, Note_on_c, 2, 71, 0
4, 587040, Note_on_c, 2, 69, 80
4, 587200, Note_on_c, 2, 69, 0
4, 587200, Note_on_c, 2, 71, 80
4, 587360, Note_on_c, 2, 71, 0
4, 587360, Note_on_c, 2, 68, 80
4, 587520, Note_on_c, 2, 68, 0
4, 587520, Note_on_c, 2, 66, 80
4, 587680, Note_on_c, 2, 66, 0
4, 587680, Note_on_c, 2, 68, 80
4, 587840, Note_on_c, 2, 68, 0
4, 587840, Note_on_c, 2, 64, 80
4, 588000, Note_on_c, 2, 64, 0
4, 588000, Note_on_c, 2, 71, 80
4, 588384, Note_on_c, 2, 71, 0
4, 588480, Note_on_c, 2, 73, 80
4, 588540, Note_on_c, 2, 73, 0
4, 588540, Note_on_c, 2, 71, 80
4, 588600, Note_on_c, 2, 71, 0
4, 588600, Note_on_c, 2, 73, 80
4, 588660, Note_on_c, 2, 73, 0
4, 588660, Note_on_c, 2, 71, 80
4, 588720, Note_on_c, 2, 71, 0
4, 588720, Note_on_c, 2, 73, 80
4, 588780, Note_on_c, 2, 73, 0
4, 588780, Note_on_c, 2, 71, 80
4, 588840, Note_on_c, 2, 71, 0
4, 588840, Note_on_c, 2, 69, 80
4, 588900, Note_on_c, 2, 69, 0
4, 588900, Note_on_c, 2, 71, 80
4, 588960, Note_on_c, 2, 71, 0
4, 588960, Note_on_c, 2, 74, 80
4, 589440, Note_on_c, 2, 74, 0
4, 589440, Note_on_c, 2, 78, 80
4, 589824, Note_on_c, 2, 78, 0
4, 589920, Note_on_c, 2, 76, 80
4, 590520, Note_on_c, 2, 76, 0
4, 590520, Note_on_c, 2, 73, 80
4, 590640, Note_on_c, 2, 73, 0
4, 590640, Note_on_c, 2, 76, 80
4, 590760, Note_on_c, 2, 76, 0
4, 590760, Note_on_c, 2, 73, 80
4, 590880, Note_on_c, 2, 73, 0
4, 590880, Note_on_c, 2, 76, 80
4, 591264, Note_on_c, 2, 76, 0
4, 591840, Note_on_c, 2, 69, 124
4, 592032, Note_on_c, 2, 69, 0
4, 592080, Note_on_c, 2, 71, 121
4, 592176, Note_on_c, 2, 71, 0
4, 592200, Note_on_c, 2, 73, 119
4, 592296, Note_on_c, 2, 73, 0
4, 592320, Note_on_c, 2, 74, 118
4, 592416, Note_on_c, 2, 74, 0
4, 592440, Note_on_c, 2, 76, 116
4, 592536, Note_on_c, 2, 76, 0
4, 592560, Note_on_c, 2, 78, 115
4, 592656, Note_on_c, 2, 78, 0
4, 592680, Note_on_c, 2, 80, 113
4, 592776, Note_on_c, 2, 80, 0
4, 592800, Note_on_c, 2, 81, 112
4, 592920, Note_on_c, 2, 81, 0
4, 592920, Note_on_c, 2, 83, 110
4, 593040, Note_on_c, 2, 83, 0
4, 593040, Note_on_c, 2, 85, 109
4, 593160, Note_on_c, 2, 85, 0
4, 593160, Note_on_c, 2, 83, 107
4, 593280, Note_on_c, 2, 83, 0
4, 593280, Note_on_c, 2, 81, 106
4, 593412, Note_on_c, 2, 81, 0
4, 593520, Note_on_c, 2, 80, 105
4, 593652, Note_on_c, 2, 80, 0
4, 593760, Note_on_c, 2, 80, 105
4, 594000, Note_on_c, 2, 80, 0
4, 594000, Note_on_c, 2, 78, 105
4, 594192, Note_on_c, 2, 78, 0
4, 594240, Note_on_c, 2, 78, 125
4, 595332, Note_on_c, 2, 78, 0
4, 595440, Note_on_c, 2, 76, 105
4, 595572, Note_on_c, 2, 76, 0
4, 595680, Note_on_c, 2, 76, 105
4, 595920, Note_on_c, 2, 76, 0
4, 595920, Note_on_c, 2, 74, 105
4, 596112, Note_on_c, 2, 74, 0
4, 596160, Note_on_c, 2, 74, 125
4, 597252, Note_on_c, 2, 74, 0
4, 597360, Note_on_c, 2, 73, 105
4, 597492, Note_on_c, 2, 73, 0
4, 597720, Note_on_c, 2, 71, 98
4, 597816, Note_on_c, 2, 71, 0
4, 597840, Note_on_c, 2, 73, 98
4, 597936, Note_on_c, 2, 73, 0
4, 597960, Note_on_c, 2, 74, 99
4, 598056, Note_on_c, 2, 74, 0
4, 598080, Note_on_c, 2, 76, 99
4, 598176, Note_on_c, 2, 76, 0
4, 598200, Note_on_c, 2, 78, 99
4, 598296, Note_on_c, 2, 78, 0
4, 598320, Note_on_c, 2, 80, 100
4, 598416, Note_on_c, 2, 80, 0
4, 598440, Note_on_c, 2, 82, 100
4, 598536, Note_on_c, 2, 82, 0
4, 598560, Note_on_c, 2, 83, 101
4, 598656, Note_on_c, 2, 83, 0
4, 598680, Note_on_c, 2, 78, 101
4, 598776, Note_on_c, 2, 78, 0
4, 598800, Note_on_c, 2, 74, 102
4, 598896, Note_on_c, 2, 74, 0
4, 598920, Note_on_c, 2, 71, 102
4, 599016, Note_on_c, 2, 71, 0
4, 599040, Note_on_c, 2, 83, 102
4, 599232, Note_on_c, 2, 83, 0
4, 599640, Note_on_c, 2, 73, 104
4, 599736, Note_on_c, 2, 73, 0
4, 599760, Note_on_c, 2, 74, 105
4, 599856, Note_on_c, 2, 74, 0
4, 599880, Note_on_c, 2, 76, 105
4, 599976, Note_on_c, 2, 76, 0
4, 600000, Note_on_c, 2, 78, 106
4, 600096, Note_on_c, 2, 78, 0
4, 600120, Note_on_c, 2, 79, 106
4, 600216, Note_on_c, 2, 79, 0
4, 600240, Note_on_c, 2, 81, 107
4, 600336, Note_on_c, 2, 81, 0
4, 600360, Note_on_c, 2, 83, 107
4, 600456, Note_on_c, 2, 83, 0
4, 600480, Note_on_c, 2, 85, 107
4, 600576, Note_on_c, 2, 85, 0
4, 600600, Note_on_c, 2, 79, 108
4, 600696, Note_on_c, 2, 79, 0
4, 600720, Note_on_c, 2, 76, 108
4, 600816, Note_on_c, 2, 76, 0
4, 600840, Note_on_c, 2, 73, 109
4, 600936, Note_on_c, 2, 73, 0
4, 600960, Note_on_c, 2, 85, 109
4, 601152, Note_on_c, 2, 85, 0
4, 601560, Note_on_c, 2, 74, 111
4, 601656, Note_on_c, 2, 74, 0
4, 601680, Note_on_c, 2, 76, 111
4, 601776, Note_on_c, 2, 76, 0
4, 601800, Note_on_c, 2, 78, 112
4, 601896, Note_on_c, 2, 78, 0
4, 601920, Note_on_c, 2, 80, 112
4, 602016, Note_on_c, 2, 80, 0
4, 602040, Note_on_c, 2, 81, 113
4, 602136, Note_on_c, 2, 81, 0
4, 602160, Note_on_c, 2, 83, 113
4, 602256, Note_on_c, 2, 83, 0
4, 602280, Note_on_c, 2, 85, 114
4, 602376, Note_on_c, 2, 85, 0
4, 602400, Note_on_c, 2, 86, 114
4, 602496, Note_on_c, 2, 86, 0
4, 602520, Note_on_c, 2, 81, 114
4, 602616, Note_on_c, 2, 81, 0
4, 602640, Note_on_c, 2, 78, 115
4, 602736, Note_on_c, 2, 78, 0
4, 602760, Note_on_c, 2, 74, 115
4, 602856, Note_on_c, 2, 74, 0
4, 602880, Note_on_c, 2, 86, 117
4, 603072, Note_on_c, 2, 86, 0
4, 603480, Note_on_c, 2, 80, 117
4, 603600, Note_on_c, 2, 80, 0
4, 603600, Note_on_c, 2, 81, 117
4, 603720, Note_on_c, 2, 81, 0
4, 603720, Note_on_c, 2, 80, 117
4, 603840, Note_on_c, 2, 80, 0
4, 603840, Note_on_c, 2, 81, 117
4, 603960, Note_on_c, 2, 81, 0
4, 603960, Note_on_c, 2, 83, 117
4, 604080, Note_on_c, 2, 83, 0
4, 604080, Note_on_c, 2, 84, 117
4, 604200, Note_on_c, 2, 84, 0
4, 604200, Note_on_c, 2, 83, 117
4, 604320, Note_on_c, 2, 83, 0
4, 604320, Note_on_c, 2, 84, 117
4, 604440, Note_on_c, 2, 84, 0
4, 604440, Note_on_c, 2, 85, 117
4, 604560, Note_on_c, 2, 85, 0
4, 604560, Note_on_c, 2, 86, 117
4, 604680, Note_on_c, 2, 86, 0
4, 604680, Note_on_c, 2, 85, 117
4, 604800, Note_on_c, 2, 85, 0
4, 604800, Note_on_c, 2, 86, 117
4, 604920, Note_on_c, 2, 86, 0
4, 604920, Note_on_c, 2, 87, 117
4, 605040, Note_on_c, 2, 87, 0
4, 605040, Note_on_c, 2, 88, 117
4, 605160, Note_on_c, 2, 88, 0
4, 605160, Note_on_c, 2, 87, 117
4, 605280, Note_on_c, 2, 87, 0
4, 605280, Note_on_c, 2, 88, 117
4, 605376, Note_on_c, 2, 88, 0
4, 605400, Note_on_c, 2, 85, 117
4, 605496, Note_on_c, 2, 85, 0
4, 605520, Note_on_c, 2, 81, 117
4, 605616, Note_on_c, 2, 81, 0
4, 605640, Note_on_c, 2, 76, 117
4, 605736, Note_on_c, 2, 76, 0
4, 605760, Note_on_c, 2, 88, 117
4, 605856, Note_on_c, 2, 88, 0
4, 605880, Note_on_c, 2, 76, 117
4, 605976, Note_on_c, 2, 76, 0
4, 606000, Note_on_c, 2, 87, 117
4, 606096, Note_on_c, 2, 87, 0
4, 606120, Note_on_c, 2, 76, 117
4, 606216, Note_on_c, 2, 76, 0
4, 606240, Note_on_c, 2, 88, 117
4, 606336, Note_on_c, 2, 88, 0
4, 606360, Note_on_c, 2, 85, 117
4, 606456, Note_on_c, 2, 85, 0
4, 606480, Note_on_c, 2, 81, 117
4, 606576, Note_on_c, 2, 81, 0
4, 606600, Note_on_c, 2, 76, 117
4, 606696, Note_on_c, 2, 76, 0
4, 606720, Note_on_c, 2, 88, 117
4, 606816, Note_on_c, 2, 88, 0
4, 606840, Note_on_c, 2, 76, 117
4, 606936, Note_on_c, 2, 76, 0
4, 606960, Note_on_c, 2, 87, 117
4, 607056, Note_on_c, 2, 87, 0
4, 607080, Note_on_c, 2, 76, 117
4, 607176, Note_on_c, 2, 76, 0
4, 607200, Note_on_c, 2, 88, 117
4, 607296, Note_on_c, 2, 88, 0
4, 607320, Note_on_c, 2, 85, 117
4, 607416, Note_on_c, 2, 85, 0
4, 607440, Note_on_c, 2, 81, 117
4, 607536, Note_on_c, 2, 81, 0
4, 607560, Note_on_c, 2, 76, 117
4, 607656, Note_on_c, 2, 76, 0
4, 607680, Note_on_c, 2, 88, 117
4, 607776, Note_on_c, 2, 88, 0
4, 607800, Note_on_c, 2, 76, 117
4, 607896, Note_on_c, 2, 76, 0
4, 607920, Note_on_c, 2, 87, 117
4, 608016, Note_on_c, 2, 87, 0
4, 608040, Note_on_c, 2, 76, 117
4, 608136, Note_on_c, 2, 76, 0
4, 608160, Note_on_c, 2, 88, 117
4, 608256, Note_on_c, 2, 88, 0
4, 608280, Note_on_c, 2, 76, 117
4, 608376, Note_on_c, 2, 76, 0
4, 608400, Note_on_c, 2, 87, 117
4, 608496, Note_on_c, 2, 87, 0
4, 608520, Note_on_c, 2, 76, 117
4, 608616, Note_on_c, 2, 76, 0
4, 608640, Note_on_c, 2, 88, 117
4, 608736, Note_on_c, 2, 88, 0
4, 608760, Note_on_c, 2, 76, 117
4, 608856, Note_on_c, 2, 76, 0
4, 608880, Note_on_c, 2, 85, 117
4, 608976, Note_on_c, 2, 85, 0
4, 609000, Note_on_c, 2, 76, 117
4, 609096, Note_on_c, 2, 76, 0
4, 609120, Note_on_c, 2, 86, 117
4, 609216, Note_on_c, 2, 86, 0
4, 609240, Note_on_c, 2, 76, 117
4, 609336, Note_on_c, 2, 76, 0
4, 609360, Note_on_c, 2, 85, 117
4, 609456, Note_on_c, 2, 85, 0
4, 609480, Note_on_c, 2, 76, 117
4, 609576, Note_on_c, 2, 76, 0
4, 609600, Note_on_c, 2, 86, 117
4, 609696, Note_on_c, 2, 86, 0
4, 609720, Note_on_c, 2, 76, 117
4, 609816, Note_on_c, 2, 76, 0
4, 609840, Note_on_c, 2, 85, 117
4, 609936, Note_on_c, 2, 85, 0
4, 609960, Note_on_c, 2, 76, 117
4, 610056, Note_on_c, 2, 76, 0
4, 610080, Note_on_c, 2, 86, 117
4, 610464, Note_on_c, 2, 86, 0
4, 611760, Note_on_c, 2, 85, 80
4, 611856, Note_on_c, 2, 85, 0
4, 611880, Note_on_c, 2, 76, 80
4, 611976, Note_on_c, 2, 76, 0
4, 612000, Note_on_c, 2, 86, 80
4, 612096, Note_on_c, 2, 86, 0
4, 612120, Note_on_c, 2, 76, 80
4, 612216, Note_on_c, 2, 76, 0
4, 612240, Note_on_c, 2, 85, 80
4, 612336, Note_on_c, 2, 85, 0
4, 612360, Note_on_c, 2, 76, 80
4, 612456, Note_on_c, 2, 76, 0
4, 612480, Note_on_c, 2, 86, 80
4, 612576, Note_on_c, 2, 86, 0
4, 612600, Note_on_c, 2, 76, 80
4, 612696, Note_on_c, 2, 76, 0
4, 612720, Note_on_c, 2, 83, 80
4, 612816, Note_on_c, 2, 83, 0
4, 612840, Note_on_c, 2, 76, 80
4, 612936, Note_on_c, 2, 76, 0
4, 612960, Note_on_c, 2, 84, 80
4, 613056, Note_on_c, 2, 84, 0
4, 613080, Note_on_c, 2, 78, 80
4, 613176, Note_on_c, 2, 78, 0
4, 613200, Note_on_c, 2, 83, 80
4, 613296, Note_on_c, 2, 83, 0
4, 613320, Note_on_c, 2, 78, 80
4, 613416, Note_on_c, 2, 78, 0
4, 613440, Note_on_c, 2, 84, 80
4, 613536, Note_on_c, 2, 84, 0
4, 613560, Note_on_c, 2, 78, 80
4, 613656, Note_on_c, 2, 78, 0
4, 613680, Note_on_c, 2, 83, 80
4, 613776, Note_on_c, 2, 83, 0
4, 613800, Note_on_c, 2, 78, 80
4, 613896, Note_on_c, 2, 78, 0
4, 613920, Note_on_c, 2, 84, 80
4, 614304, Note_on_c, 2, 84, 0
4, 615960, Note_on_c, 2, 81, 105
4, 616056, Note_on_c, 2, 81, 0
4, 616080, Note_on_c, 2, 84, 105
4, 616176, Note_on_c, 2, 84, 0
4, 616200, Note_on_c, 2, 81, 105
4, 616296, Note_on_c, 2, 81, 0
4, 616320, Note_on_c, 2, 78, 105
4, 616416, Note_on_c, 2, 78, 0
4, 616440, Note_on_c, 2, 81, 105
4, 616536, Note_on_c, 2, 81, 0
4, 616560, Note_on_c, 2, 75, 105
4, 616656, Note_on_c, 2, 75, 0
4, 616680, Note_on_c, 2, 78, 105
4, 616776, Note_on_c, 2, 78, 0
4, 616800, Note_on_c, 2, 72, 105
4, 616896, Note_on_c, 2, 72, 0
4, 616920, Note_on_c, 2, 75, 105
4, 617016, Note_on_c, 2, 75, 0
4, 617040, Note_on_c, 2, 69, 105
4, 617136, Note_on_c, 2, 69, 0
4, 617160, Note_on_c, 2, 72, 105
4, 617256, Note_on_c, 2, 72, 0
4, 617280, Note_on_c, 2, 66, 105
4, 617376, Note_on_c, 2, 66, 0
4, 617400, Note_on_c, 2, 69, 105
4, 617496, Note_on_c, 2, 69, 0
4, 617520, Note_on_c, 2, 63, 105
4, 617616, Note_on_c, 2, 63, 0
4, 617640, Note_on_c, 2, 66, 105
4, 617736, Note_on_c, 2, 66, 0
4, 617760, Note_on_c, 2, 60, 105
4, 617856, Note_on_c, 2, 60, 0
4, 617880, Note_on_c, 2, 63, 105
4, 617976, Note_on_c, 2, 63, 0
4, 618000, Note_on_c, 2, 57, 105
4, 618096, Note_on_c, 2, 57, 0
4, 618120, Note_on_c, 2, 60, 105
4, 618216, Note_on_c, 2, 60, 0
4, 623520, Note_on_c, 2, 69, 82
4, 623616, Note_on_c, 2, 69, 0
4, 623640, Note_on_c, 2, 73, 83
4, 623736, Note_on_c, 2, 73, 0
4, 623760, Note_on_c, 2, 73, 84
4, 623856, Note_on_c, 2, 73, 0
4, 623880, Note_on_c, 2, 81, 85
4, 623976, Note_on_c, 2, 81, 0
4, 624000, Note_on_c, 2, 71, 86
4, 624096, Note_on_c, 2, 71, 0
4, 624120, Note_on_c, 2, 80, 88
4, 624216, Note_on_c, 2, 80, 0
4, 624240, Note_on_c, 2, 74, 89
4, 624336, Note_on_c, 2, 74, 0
4, 624360, Note_on_c, 2, 83, 90
4, 624456, Note_on_c, 2, 83, 0
4, 624480, Note_on_c, 2, 73, 91
4, 624576, Note_on_c, 2, 73, 0
4, 624600, Note_on_c, 2, 81, 92
4, 624696, Note_on_c, 2, 81, 0
4, 624720, Note_on_c, 2, 76, 94
4, 624816, Note_on_c, 2, 76, 0
4, 624840, Note_on_c, 2, 85, 95
4, 624936, Note_on_c, 2, 85, 0
4, 624960, Note_on_c, 2, 78, 96
4, 625056, Note_on_c, 2, 78, 0
4, 625080, Note_on_c, 2, 86, 97
4, 625176, Note_on_c, 2, 86, 0
4, 625200, Note_on_c, 2, 80, 98
4, 625296, Note_on_c, 2, 80, 0
4, 625320, Note_on_c, 2, 83, 104
4, 625416, Note_on_c, 2, 83, 0
4, 625440, Note_on_c, 2, 85, 105
4, 625536, Note_on_c, 2, 85, 0
4, 625560, Note_on_c, 2, 88, 105
4, 625656, Note_on_c, 2, 88, 0
4, 625680, Note_on_c, 2, 80, 105
4, 625776, Note_on_c, 2, 80, 0
4, 625800, Note_on_c, 2, 83, 105
4, 625896, Note_on_c, 2, 83, 0
4, 625920, Note_on_c, 2, 81, 105
4, 626016, Note_on_c, 2, 81, 0
4, 626040, Note_on_c, 2, 85, 105
4, 626136, Note_on_c, 2, 85, 0
4, 626160, Note_on_c, 2, 77, 105
4, 626256, Note_on_c, 2, 77, 0
4, 626280, Note_on_c, 2, 80, 105
4, 626376, Note_on_c, 2, 80, 0
4, 626400, Note_on_c, 2, 78, 105
4, 626496, Note_on_c, 2, 78, 0
4, 626520, Note_on_c, 2, 81, 105
4, 626616, Note_on_c, 2, 81, 0
4, 626640, Note_on_c, 2, 73, 105
4, 626736, Note_on_c, 2, 73, 0
4, 626760, Note_on_c, 2, 76, 105
4, 626856, Note_on_c, 2, 76, 0
4, 626880, Note_on_c, 2, 74, 105
4, 626976, Note_on_c, 2, 74, 0
4, 627000, Note_on_c, 2, 78, 105
4, 627096, Note_on_c, 2, 78, 0
4, 627120, Note_on_c, 2, 76, 105
4, 627216, Note_on_c, 2, 76, 0
4, 627240, Note_on_c, 2, 74, 105
4, 627336, Note_on_c, 2, 74, 0
4, 627360, Note_on_c, 2, 73, 105
4, 627456, Note_on_c, 2, 73, 0
4, 627480, Note_on_c, 2, 76, 105
4, 627576, Note_on_c, 2, 76, 0
4, 627600, Note_on_c, 2, 68, 105
4, 627696, Note_on_c, 2, 68, 0
4, 627720, Note_on_c, 2, 71, 105
4, 627816, Note_on_c, 2, 71, 0
4, 627840, Note_on_c, 2, 69, 105
4, 627936, Note_on_c, 2, 69, 0
4, 627960, Note_on_c, 2, 73, 105
4, 628056, Note_on_c, 2, 73, 0
4, 628080, Note_on_c, 2, 65, 105
4, 628176, Note_on_c, 2, 65, 0
4, 628200, Note_on_c, 2, 68, 105
4, 628296, Note_on_c, 2, 68, 0
4, 628320, Note_on_c, 2, 66, 105
4, 628416, Note_on_c, 2, 66, 0
4, 628440, Note_on_c, 2, 69, 105
4, 628536, Note_on_c, 2, 69, 0
4, 628560, Note_on_c, 2, 61, 105
4, 628656, Note_on_c, 2, 61, 0
4, 628680, Note_on_c, 2, 64, 105
4, 628776, Note_on_c, 2, 64, 0
4, 628800, Note_on_c, 2, 62, 105
4, 628896, Note_on_c, 2, 62, 0
4, 628920, Note_on_c, 2, 66, 105
4, 629016, Note_on_c, 2, 66, 0
4, 629040, Note_on_c, 2, 64, 105
4, 629136, Note_on_c, 2, 64, 0
4, 629160, Note_on_c, 2, 62, 105
4, 629256, Note_on_c, 2, 62, 0
4, 629280, Note_on_c, 2, 61, 105
4, 629424, Note_on_c, 2, 61, 0
4, 629460, Note_on_c, 2, 64, 105
4, 629508, Note_on_c, 2, 64, 0
4, 629520, Note_on_c, 2, 69, 105
4, 629584, Note_on_c, 2, 69, 0
4, 629600, Note_on_c, 2, 73, 105
4, 629680, Note_on_c, 2, 73, 0
4, 629680, Note_on_c, 2, 76, 105
4, 629760, Note_on_c, 2, 76, 0
4, 629760, Note_on_c, 2, 81, 105
4, 629952, Note_on_c, 2, 81, 0
4, 630000, Note_on_c, 2, 61, 105
4, 630192, Note_on_c, 2, 61, 0
4, 630240, Note_on_c, 2, 62, 105
4, 630384, Note_on_c, 2, 62, 0
4, 630420, Note_on_c, 2, 66, 105
4, 630468, Note_on_c, 2, 66, 0
4, 630480, Note_on_c, 2, 69, 105
4, 630544, Note_on_c, 2, 69, 0
4, 630560, Note_on_c, 2, 74, 105
4, 630640, Note_on_c, 2, 74, 0
4, 630640, Note_on_c, 2, 78, 105
4, 630720, Note_on_c, 2, 78, 0
4, 630720, Note_on_c, 2, 81, 105
4, 630912, Note_on_c, 2, 81, 0
4, 630960, Note_on_c, 2, 63, 105
4, 631152, Note_on_c, 2, 63, 0
4, 631200, Note_on_c, 2, 64, 125
4, 631320, Note_on_c, 2, 64, 0
4, 631320, Note_on_c, 2, 69, 105
4, 631416, Note_on_c, 2, 69, 0
4, 631440, Note_on_c, 2, 73, 105
4, 631536, Note_on_c, 2, 73, 0
4, 631560, Note_on_c, 2, 69, 105
4, 631656, Note_on_c, 2, 69, 0
4, 631680, Note_on_c, 2, 76, 105
4, 631776, Note_on_c, 2, 76, 0
4, 631800, Note_on_c, 2, 73, 105
4, 631896, Note_on_c, 2, 73, 0
4, 631920, Note_on_c, 2, 81, 105
4, 632016, Note_on_c, 2, 81, 0
4, 632040, Note_on_c, 2, 76, 105
4, 632136, Note_on_c, 2, 76, 0
4, 632160, Note_on_c, 2, 85, 105
4, 632256, Note_on_c, 2, 85, 0
4, 632280, Note_on_c, 2, 81, 105
4, 632376, Note_on_c, 2, 81, 0
4, 632400, Note_on_c, 2, 88, 105
4, 632496, Note_on_c, 2, 88, 0
4, 632520, Note_on_c, 2, 85, 105
4, 632616, Note_on_c, 2, 85, 0
4, 632640, Note_on_c, 2, 80, 105
4, 632736, Note_on_c, 2, 80, 0
4, 632760, Note_on_c, 2, 81, 105
4, 632856, Note_on_c, 2, 81, 0
4, 632880, Note_on_c, 2, 85, 105
4, 632976, Note_on_c, 2, 85, 0
4, 633000, Note_on_c, 2, 81, 105
4, 633096, Note_on_c, 2, 81, 0
4, 633120, Note_on_c, 2, 75, 105
4, 633216, Note_on_c, 2, 75, 0
4, 633240, Note_on_c, 2, 76, 105
4, 633336, Note_on_c, 2, 76, 0
4, 633360, Note_on_c, 2, 81, 105
4, 633456, Note_on_c, 2, 81, 0
4, 633480, Note_on_c, 2, 76, 105
4, 633576, Note_on_c, 2, 76, 0
4, 633600, Note_on_c, 2, 72, 105
4, 633696, Note_on_c, 2, 72, 0
4, 633720, Note_on_c, 2, 73, 105
4, 633816, Note_on_c, 2, 73, 0
4, 633840, Note_on_c, 2, 76, 105
4, 633936, Note_on_c, 2, 76, 0
4, 633960, Note_on_c, 2, 73, 105
4, 634056, Note_on_c, 2, 73, 0
4, 634080, Note_on_c, 2, 70, 105
4, 634128, Note_on_c, 2, 70, 0
4, 634140, Note_on_c, 2, 71, 105
4, 634188, Note_on_c, 2, 71, 0
4, 634200, Note_on_c, 2, 73, 105
4, 634248, Note_on_c, 2, 73, 0
4, 634260, Note_on_c, 2, 71, 105
4, 634308, Note_on_c, 2, 71, 0
4, 634320, Note_on_c, 2, 73, 105
4, 634368, Note_on_c, 2, 73, 0
4, 634380, Note_on_c, 2, 71, 105
4, 634428, Note_on_c, 2, 71, 0
4, 634440, Note_on_c, 2, 73, 105
4, 634488, Note_on_c, 2, 73, 0
4, 634500, Note_on_c, 2, 71, 105
4, 634548, Note_on_c, 2, 71, 0
4, 634560, Note_on_c, 2, 73, 105
4, 634608, Note_on_c, 2, 73, 0
4, 634620, Note_on_c, 2, 71, 105
4, 634668, Note_on_c, 2, 71, 0
4, 634680, Note_on_c, 2, 73, 105
4, 634728, Note_on_c, 2, 73, 0
4, 634740, Note_on_c, 2, 71, 105
4, 634788, Note_on_c, 2, 71, 0
4, 634800, Note_on_c, 2, 73, 105
4, 634848, Note_on_c, 2, 73, 0
4, 634860, Note_on_c, 2, 71, 105
4, 634908, Note_on_c, 2, 71, 0
4, 634920, Note_on_c, 2, 73, 105
4, 634968, Note_on_c, 2, 73, 0
4, 634980, Note_on_c, 2, 71, 105
4, 635028, Note_on_c, 2, 71, 0
4, 635040, Note_on_c, 2, 73, 105
4, 635100, Note_on_c, 2, 73, 0
4, 635100, Note_on_c, 2, 71, 105
4, 635160, Note_on_c, 2, 71, 0
4, 635160, Note_on_c, 2, 73, 105
4, 635220, Note_on_c, 2, 73, 0
4, 635220, Note_on_c, 2, 71, 105
4, 635280, Note_on_c, 2, 71, 0
4, 635280, Note_on_c, 2, 73, 105
4, 635340, Note_on_c, 2, 73, 0
4, 635340, Note_on_c, 2, 71, 105
4, 635400, Note_on_c, 2, 71, 0
4, 635400, Note_on_c, 2, 73, 105
4, 635460, Note_on_c, 2, 73, 0
4, 635460, Note_on_c, 2, 71, 105
4, 635520, Note_on_c, 2, 71, 0
4, 635520, Note_on_c, 2, 73, 105
4, 635580, Note_on_c, 2, 73, 0
4, 635580, Note_on_c, 2, 71, 105
4, 635640, Note_on_c, 2, 71, 0
4, 635640, Note_on_c, 2, 73, 105
4, 635700, Note_on_c, 2, 73, 0
4, 635700, Note_on_c, 2, 71, 105
4, 635760, Note_on_c, 2, 71, 0
4, 635760, Note_on_c, 2, 73, 105
4, 635820, Note_on_c, 2, 73, 0
4, 635820, Note_on_c, 2, 71, 105
4, 635880, Note_on_c, 2, 71, 0
4, 635880, Note_on_c, 2, 73, 105
4, 635940, Note_on_c, 2, 73, 0
4, 635940, Note_on_c, 2, 71, 105
4, 636000, Note_on_c, 2, 71, 0
4, 636000, Note_on_c, 2, 73, 105
4, 636060, Note_on_c, 2, 73, 0
4, 636060, Note_on_c, 2, 71, 105
4, 636120, Note_on_c, 2, 71, 0
4, 636120, Note_on_c, 2, 70, 105
4, 636180, Note_on_c, 2, 70, 0
4, 636180, Note_on_c, 2, 71, 105
4, 636240, Note_on_c, 2, 71, 0
4, 636240, Note_on_c, 2, 72, 105
4, 636300, Note_on_c, 2, 72, 0
4, 636300, Note_on_c, 2, 73, 105
4, 636360, Note_on_c, 2, 73, 0
4, 636360, Note_on_c, 2, 74, 105
4, 636420, Note_on_c, 2, 74, 0
4, 636420, Note_on_c, 2, 75, 105
4, 636480, Note_on_c, 2, 75, 0
4, 636480, Note_on_c, 2, 76, 105
4, 636540, Note_on_c, 2, 76, 0
4, 636540, Note_on_c, 2, 77, 105
4, 636600, Note_on_c, 2, 77, 0
4, 636600, Note_on_c, 2, 78, 105
4, 636660, Note_on_c, 2, 78, 0
4, 636660, Note_on_c, 2, 79, 105
4, 636720, Note_on_c, 2, 79, 0
4, 636720, Note_on_c, 2, 80, 105
4, 636780, Note_on_c, 2, 80, 0
4, 636780, Note_on_c, 2, 81, 105
4, 636840, Note_on_c, 2, 81, 0
4, 636840, Note_on_c, 2, 82, 105
4, 636960, Note_on_c, 2, 82, 0
4, 636960, Note_on_c, 2, 85, 105
4, 637020, Note_on_c, 2, 85, 0
4, 637020, Note_on_c, 2, 83, 105
4, 637080, Note_on_c, 2, 83, 0
4, 637080, Note_on_c, 2, 85, 105
4, 637140, Note_on_c, 2, 85, 0
4, 637140, Note_on_c, 2, 83, 105
4, 637200, Note_on_c, 2, 83, 0
4, 637200, Note_on_c, 2, 85, 105
4, 637260, Note_on_c, 2, 85, 0
4, 637260, Note_on_c, 2, 83, 105
4, 637320, Note_on_c, 2, 83, 0
4, 637320, Note_on_c, 2, 85, 105
4, 637380, Note_on_c, 2, 85, 0
4, 637380, Note_on_c, 2, 83, 105
4, 637440, Note_on_c, 2, 83, 0
4, 637440, Note_on_c, 2, 85, 105
4, 637500, Note_on_c, 2, 85, 0
4, 637500, Note_on_c, 2, 83, 105
4, 637560, Note_on_c, 2, 83, 0
4, 637560, Note_on_c, 2, 85, 105
4, 637620, Note_on_c, 2, 85, 0
4, 637620, Note_on_c, 2, 83, 105
4, 637680, Note_on_c, 2, 83, 0
4, 637680, Note_on_c, 2, 85, 105
4, 637740, Note_on_c, 2, 85, 0
4, 637740, Note_on_c, 2, 83, 105
4, 637800, Note_on_c, 2, 83, 0
4, 637800, Note_on_c, 2, 85, 105
4, 637860, Note_on_c, 2, 85, 0
4, 637860, Note_on_c, 2, 83, 105
4, 637920, Note_on_c, 2, 83, 0
4, 637920, Note_on_c, 2, 85, 105
4, 637980, Note_on_c, 2, 85, 0
4, 637980, Note_on_c, 2, 83, 105
4, 638040, Note_on_c, 2, 83, 0
4, 638040, Note_on_c, 2, 85, 105
4, 638100, Note_on_c, 2, 85, 0
4, 638100, Note_on_c, 2, 83, 105
4, 638160, Note_on_c, 2, 83, 0
4, 638160, Note_on_c, 2, 85, 105
4, 638220, Note_on_c, 2, 85, 0
4, 638220, Note_on_c, 2, 83, 105
4, 638280, Note_on_c, 2, 83, 0
4, 638280, Note_on_c, 2, 85, 105
4, 638340, Note_on_c, 2, 85, 0
4, 638340, Note_on_c, 2, 83, 105
4, 638400, Note_on_c, 2, 83, 0
4, 638400, Note_on_c, 2, 85, 107
4, 638460, Note_on_c, 2, 85, 0
4, 638460, Note_on_c, 2, 83, 107
4, 638520, Note_on_c, 2, 83, 0
4, 638520, Note_on_c, 2, 85, 107
4, 638580, Note_on_c, 2, 85, 0
4, 638580, Note_on_c, 2, 83, 107
4, 638640, Note_on_c, 2, 83, 0
4, 638640, Note_on_c, 2, 81, 108
4, 638760, Note_on_c, 2, 81, 0
4, 638760, Note_on_c, 2, 83, 108
4, 638880, Note_on_c, 2, 83, 0
4, 638880, Note_on_c, 2, 81, 105
4, 639264, Note_on_c, 2, 81, 0
4, 639264, End_track
5, 0, Start_track
5, 0, Sequencer_specific, 04, 43, 00, 01, 00
5, 0, Program_c, 3, 0
5, 0, Control_c, 3, 7, 123
5, 0, Control_c, 3, 91, 100
5, 0, Control_c, 3, 91, 100
5, 122880, Note_on_c, 3, 57, 71
5, 123120, Note_on_c, 3, 57, 0
5, 123120, Note_on_c, 3, 64, 71
5, 123360, Note_on_c, 3, 64, 0
5, 123360, Note_on_c, 3, 61, 71
5, 123600, Note_on_c, 3, 61, 0
5, 123600, Note_on_c, 3, 64, 71
5, 123792, Note_on_c, 3, 64, 0
5, 123840, Note_on_c, 3, 57, 71
5, 124080, Note_on_c, 3, 57, 0
5, 124080, Note_on_c, 3, 64, 71
5, 124320, Note_on_c, 3, 64, 0
5, 124320, Note_on_c, 3, 61, 71
5, 124560, Note_on_c, 3, 61, 0
5, 124560, Note_on_c, 3, 64, 71
5, 124752, Note_on_c, 3, 64, 0
5, 124800, Note_on_c, 3, 57, 71
5, 125040, Note_on_c, 3, 57, 0
5, 125040, Note_on_c, 3, 62, 71
5, 125280, Note_on_c, 3, 62, 0
5, 125280, Note_on_c, 3, 59, 71
5, 125520, Note_on_c, 3, 59, 0
5, 125520, Note_on_c, 3, 62, 71
5, 125712, Note_on_c, 3, 62, 0
5, 125760, Note_on_c, 3, 57, 71
5, 126000, Note_on_c, 3, 57, 0
5, 126000, Note_on_c, 3, 62, 71
5, 126240, Note_on_c, 3, 62, 0
5, 126240, Note_on_c, 3, 59, 71
5, 126480, Note_on_c, 3, 59, 0
5, 126480, Note_on_c, 3, 62, 71
5, 126672, Note_on_c, 3, 62, 0
5, 126720, Note_on_c, 3, 57, 71
5, 126960, Note_on_c, 3, 57, 0
5, 126960, Note_on_c, 3, 68, 71
5, 127200, Note_on_c, 3, 68, 0
5, 127200, Note_on_c, 3, 62, 71
5, 127440, Note_on_c, 3, 62, 0
5, 127440, Note_on_c, 3, 68, 71
5, 127632, Note_on_c, 3, 68, 0
5, 127680, Note_on_c, 3, 57, 71
5, 127872, Note_on_c, 3, 57, 0
5, 127920, Note_on_c, 3, 68, 71
5, 128112, Note_on_c, 3, 68, 0
5, 128160, Note_on_c, 3, 62, 71
5, 128352, Note_on_c, 3, 62, 0
5, 128400, Note_on_c, 3, 68, 71
5, 128592, Note_on_c, 3, 68, 0
5, 128640, Note_on_c, 3, 57, 71
5, 128880, Note_on_c, 3, 57, 0
5, 128880, Note_on_c, 3, 69, 71
5, 129120, Note_on_c, 3, 69, 0
5, 129120, Note_on_c, 3, 61, 71
5, 129360, Note_on_c, 3, 61, 0
5, 129360, Note_on_c, 3, 69, 71
5, 129552, Note_on_c, 3, 69, 0
5, 129600, Note_on_c, 3, 57, 71
5, 129840, Note_on_c, 3, 57, 0
5, 129840, Note_on_c, 3, 69, 71
5, 130080, Note_on_c, 3, 69, 0
5, 130080, Note_on_c, 3, 61, 71
5, 130320, Note_on_c, 3, 61, 0
5, 130320, Note_on_c, 3, 69, 71
5, 130512, Note_on_c, 3, 69, 0
5, 131520, Note_on_c, 3, 49, 71
5, 131520, Note_on_c, 3, 37, 71
5, 132432, Note_on_c, 3, 37, 0
5, 132432, Note_on_c, 3, 49, 0
5, 132480, Note_on_c, 3, 38, 71
5, 132480, Note_on_c, 3, 50, 71
5, 133392, Note_on_c, 3, 50, 0
5, 133392, Note_on_c, 3, 38, 0
5, 133440, Note_on_c, 3, 52, 71
5, 133440, Note_on_c, 3, 40, 71
5, 134352, Note_on_c, 3, 40, 0
5, 134352, Note_on_c, 3, 52, 0
5, 134400, Note_on_c, 3, 42, 71
5, 134400, Note_on_c, 3, 54, 71
5, 134712, Note_on_c, 3, 54, 0
5, 134712, Note_on_c, 3, 42, 0
5, 134880, Note_on_c, 3, 44, 71
5, 134880, Note_on_c, 3, 56, 71
5, 135192, Note_on_c, 3, 56, 0
5, 135192, Note_on_c, 3, 44, 0
5, 135360, Note_on_c, 3, 45, 71
5, 135360, Note_on_c, 3, 57, 71
5, 135672, Note_on_c, 3, 57, 0
5, 135672, Note_on_c, 3, 45, 0
5, 136320, Note_on_c, 3, 52, 71
5, 136320, Note_on_c, 3, 57, 71
5, 137280, Note_on_c, 3, 57, 0
5, 137280, Note_on_c, 3, 56, 71
5, 137664, Note_on_c, 3, 56, 0
5, 137664, Note_on_c, 3, 52, 0
5, 138240, Note_on_c, 3, 57, 71
5, 138480, Note_on_c, 3, 57, 0
5, 138480, Note_on_c, 3, 64, 71
5, 138720, Note_on_c, 3, 64, 0
5, 138720, Note_on_c, 3, 61, 71
5, 138960, Note_on_c, 3, 61, 0
5, 138960, Note_on_c, 3, 64, 71
5, 139152, Note_on_c, 3, 64, 0
5, 139200, Note_on_c, 3, 57, 71
5, 139440, Note_on_c, 3, 57, 0
5, 139440, Note_on_c, 3, 64, 71
5, 139680, Note_on_c, 3, 64, 0
5, 139680, Note_on_c, 3, 61, 71
5, 139920, Note_on_c, 3, 61, 0
5, 139920, Note_on_c, 3, 64, 71
5, 140112, Note_on_c, 3, 64, 0
5, 140160, Note_on_c, 3, 57, 71
5, 140400, Note_on_c, 3, 57, 0
5, 140400, Note_on_c, 3, 62, 71
5, 140640, Note_on_c, 3, 62, 0
5, 140640, Note_on_c, 3, 59, 71
5, 140880, Note_on_c, 3, 59, 0
5, 140880, Note_on_c, 3, 62, 71
5, 141072, Note_on_c, 3, 62, 0
5, 141120, Note_on_c, 3, 57, 71
5, 141360, Note_on_c, 3, 57, 0
5, 141360, Note_on_c, 3, 62, 71
5, 141600, Note_on_c, 3, 62, 0
5, 141600, Note_on_c, 3, 59, 71
5, 141840, Note_on_c, 3, 59, 0
5, 141840, Note_on_c, 3, 62, 71
5, 142032, Note_on_c, 3, 62, 0
5, 142080, Note_on_c, 3, 57, 71
5, 142320, Note_on_c, 3, 57, 0
5, 142320, Note_on_c, 3, 68, 71
5, 142560, Note_on_c, 3, 68, 0
5, 142560, Note_on_c, 3, 62, 71
5, 142800, Note_on_c, 3, 62, 0
5, 142800, Note_on_c, 3, 68, 71
5, 142992, Note_on_c, 3, 68, 0
5, 143040, Note_on_c, 3, 57, 71
5, 143280, Note_on_c, 3, 57, 0
5, 143280, Note_on_c, 3, 68, 71
5, 143520, Note_on_c, 3, 68, 0
5, 143520, Note_on_c, 3, 62, 71
5, 143760, Note_on_c, 3, 62, 0
5, 143760, Note_on_c, 3, 68, 71
5, 143952, Note_on_c, 3, 68, 0
5, 144000, Note_on_c, 3, 57, 71
5, 144240, Note_on_c, 3, 57, 0
5, 144240, Note_on_c, 3, 69, 71
5, 144480, Note_on_c, 3, 69, 0
5, 144480, Note_on_c, 3, 61, 71
5, 144720, Note_on_c, 3, 61, 0
5, 144720, Note_on_c, 3, 69, 71
5, 144912, Note_on_c, 3, 69, 0
5, 144960, Note_on_c, 3, 57, 71
5, 145200, Note_on_c, 3, 57, 0
5, 145200, Note_on_c, 3, 69, 71
5, 145440, Note_on_c, 3, 69, 0
5, 145440, Note_on_c, 3, 61, 71
5, 145680, Note_on_c, 3, 61, 0
5, 145680, Note_on_c, 3, 69, 71
5, 145872, Note_on_c, 3, 69, 0
5, 147840, Note_on_c, 3, 69, 90
5, 148224, Note_on_c, 3, 69, 0
5, 148320, Note_on_c, 3, 69, 90
5, 149088, Note_on_c, 3, 69, 0
5, 149760, Note_on_c, 3, 69, 90
5, 150144, Note_on_c, 3, 69, 0
5, 150240, Note_on_c, 3, 69, 90
5, 151008, Note_on_c, 3, 69, 0
5, 166560, Note_on_c, 3, 61, 90
5, 166560, Note_on_c, 3, 64, 90
5, 166560, Note_on_c, 3, 69, 90
5, 166944, Note_on_c, 3, 69, 0
5, 166944, Note_on_c, 3, 64, 0
5, 166944, Note_on_c, 3, 61, 0
5, 167040, Note_on_c, 3, 61, 90
5, 167040, Note_on_c, 3, 70, 90
5, 167040, Note_on_c, 3, 64, 90
5, 168000, Note_on_c, 3, 64, 0
5, 168000, Note_on_c, 3, 70, 0
5, 168000, Note_on_c, 3, 61, 0
5, 168000, Note_on_c, 3, 64, 71
5, 168000, Note_on_c, 3, 62, 71
5, 168000, Note_on_c, 3, 71, 71
5, 168384, Note_on_c, 3, 71, 0
5, 168384, Note_on_c, 3, 62, 0
5, 168384, Note_on_c, 3, 64, 0
5, 170400, Note_on_c, 3, 56, 90
5, 170400, Note_on_c, 3, 62, 90
5, 170400, Note_on_c, 3, 64, 90
5, 170400, Note_on_c, 3, 71, 90
5, 170784, Note_on_c, 3, 71, 0
5, 170784, Note_on_c, 3, 64, 0
5, 170784, Note_on_c, 3, 62, 0
5, 170784, Note_on_c, 3, 56, 0
5, 170880, Note_on_c, 3, 56, 90
5, 170880, Note_on_c, 3, 72, 90
5, 170880, Note_on_c, 3, 64, 90
5, 170880, Note_on_c, 3, 62, 90
5, 171840, Note_on_c, 3, 62, 0
5, 171840, Note_on_c, 3, 64, 0
5, 171840, Note_on_c, 3, 72, 0
5, 171840, Note_on_c, 3, 56, 0
5, 171840, Note_on_c, 3, 61, 71
5, 171840, Note_on_c, 3, 57, 71
5, 171840, Note_on_c, 3, 64, 71
5, 171840, Note_on_c, 3, 73, 71
5, 172224, Note_on_c, 3, 73, 0
5, 172224, Note_on_c, 3, 64, 0
5, 172224, Note_on_c, 3, 57, 0
5, 172224, Note_on_c, 3, 61, 0
5, 172800, Note_on_c, 3, 57, 71
5, 173040, Note_on_c, 3, 57, 0
5, 173040, Note_on_c, 3, 61, 71
5, 173280, Note_on_c, 3, 61, 0
5, 173280, Note_on_c, 3, 66, 71
5, 173520, Note_on_c, 3, 66, 0
5, 173520, Note_on_c, 3, 61, 71
5, 173760, Note_on_c, 3, 61, 0
5, 173760, Note_on_c, 3, 57, 71
5, 174000, Note_on_c, 3, 57, 0
5, 174000, Note_on_c, 3, 61, 71
5, 174240, Note_on_c, 3, 61, 0
5, 174240, Note_on_c, 3, 66, 71
5, 174480, Note_on_c, 3, 66, 0
5, 174480, Note_on_c, 3, 61, 71
5, 174720, Note_on_c, 3, 61, 0
5, 174720, Note_on_c, 3, 59, 71
5, 174960, Note_on_c, 3, 59, 0
5, 174960, Note_on_c, 3, 66, 71
5, 175200, Note_on_c, 3, 66, 0
5, 175200, Note_on_c, 3, 69, 71
5, 175440, Note_on_c, 3, 69, 0
5, 175440, Note_on_c, 3, 66, 71
5, 175680, Note_on_c, 3, 66, 0
5, 175680, Note_on_c, 3, 59, 71
5, 175920, Note_on_c, 3, 59, 0
5, 175920, Note_on_c, 3, 66, 71
5, 176160, Note_on_c, 3, 66, 0
5, 176160, Note_on_c, 3, 69, 71
5, 176400, Note_on_c, 3, 69, 0
5, 176400, Note_on_c, 3, 66, 71
5, 176640, Note_on_c, 3, 66, 0
5, 176640, Note_on_c, 3, 59, 71
5, 176880, Note_on_c, 3, 59, 0
5, 176880, Note_on_c, 3, 64, 71
5, 177120, Note_on_c, 3, 64, 0
5, 177120, Note_on_c, 3, 68, 71
5, 177360, Note_on_c, 3, 68, 0
5, 177360, Note_on_c, 3, 64, 71
5, 177600, Note_on_c, 3, 64, 0
5, 177600, Note_on_c, 3, 59, 71
5, 177840, Note_on_c, 3, 59, 0
5, 177840, Note_on_c, 3, 64, 71
5, 178080, Note_on_c, 3, 64, 0
5, 178080, Note_on_c, 3, 68, 71
5, 178320, Note_on_c, 3, 68, 0
5, 178320, Note_on_c, 3, 64, 71
5, 178560, Note_on_c, 3, 64, 0
5, 178560, Note_on_c, 3, 59, 71
5, 178800, Note_on_c, 3, 59, 0
5, 178800, Note_on_c, 3, 63, 71
5, 179040, Note_on_c, 3, 63, 0
5, 179040, Note_on_c, 3, 66, 71
5, 179280, Note_on_c, 3, 66, 0
5, 179280, Note_on_c, 3, 63, 71
5, 179520, Note_on_c, 3, 63, 0
5, 179520, Note_on_c, 3, 60, 71
5, 179760, Note_on_c, 3, 60, 0
5, 179760, Note_on_c, 3, 63, 71
5, 180000, Note_on_c, 3, 63, 0
5, 180000, Note_on_c, 3, 66, 71
5, 180240, Note_on_c, 3, 66, 0
5, 180240, Note_on_c, 3, 63, 71
5, 180480, Note_on_c, 3, 63, 0
5, 180480, Note_on_c, 3, 61, 71
5, 180720, Note_on_c, 3, 61, 0
5, 180720, Note_on_c, 3, 64, 71
5, 180960, Note_on_c, 3, 64, 0
5, 180960, Note_on_c, 3, 68, 71
5, 181200, Note_on_c, 3, 68, 0
5, 181200, Note_on_c, 3, 64, 71
5, 181440, Note_on_c, 3, 64, 0
5, 181440, Note_on_c, 3, 59, 71
5, 181680, Note_on_c, 3, 59, 0
5, 181680, Note_on_c, 3, 64, 71
5, 181920, Note_on_c, 3, 64, 0
5, 181920, Note_on_c, 3, 68, 71
5, 182160, Note_on_c, 3, 68, 0
5, 182160, Note_on_c, 3, 64, 71
5, 182400, Note_on_c, 3, 64, 0
5, 182400, Note_on_c, 3, 57, 71
5, 182640, Note_on_c, 3, 57, 0
5, 182640, Note_on_c, 3, 61, 71
5, 182880, Note_on_c, 3, 61, 0
5, 182880, Note_on_c, 3, 64, 71
5, 183120, Note_on_c, 3, 64, 0
5, 183120, Note_on_c, 3, 61, 71
5, 183360, Note_on_c, 3, 61, 0
5, 183360, Note_on_c, 3, 56, 71
5, 183600, Note_on_c, 3, 56, 0
5, 183600, Note_on_c, 3, 59, 71
5, 183840, Note_on_c, 3, 59, 0
5, 183840, Note_on_c, 3, 64, 71
5, 184080, Note_on_c, 3, 64, 0
5, 184080, Note_on_c, 3, 59, 71
5, 184320, Note_on_c, 3, 59, 0
5, 184320, Note_on_c, 3, 61, 71
5, 184320, Note_on_c, 3, 64, 71
5, 184704, Note_on_c, 3, 64, 0
5, 184704, Note_on_c, 3, 61, 0
5, 184800, Note_on_c, 3, 59, 71
5, 184800, Note_on_c, 3, 63, 71
5, 185184, Note_on_c, 3, 63, 0
5, 185184, Note_on_c, 3, 59, 0
5, 185280, Note_on_c, 3, 61, 71
5, 185280, Note_on_c, 3, 57, 71
5, 185664, Note_on_c, 3, 57, 0
5, 185664, Note_on_c, 3, 61, 0
5, 185760, Note_on_c, 3, 58, 71
5, 185760, Note_on_c, 3, 61, 71
5, 186144, Note_on_c, 3, 61, 0
5, 186144, Note_on_c, 3, 58, 0
5, 186240, Note_on_c, 3, 59, 71
5, 186624, Note_on_c, 3, 59, 0
5, 188160, Note_on_c, 3, 59, 80
5, 188160, Note_on_c, 3, 66, 80
5, 188352, Note_on_c, 3, 66, 0
5, 188400, Note_on_c, 3, 64, 80
5, 188544, Note_on_c, 3, 59, 0
5, 188592, Note_on_c, 3, 64, 0
5, 188640, Note_on_c, 3, 63, 80
5, 188832, Note_on_c, 3, 63, 0
5, 189120, Note_on_c, 3, 59, 80
5, 189120, Note_on_c, 3, 69, 80
5, 189312, Note_on_c, 3, 69, 0
5, 189360, Note_on_c, 3, 68, 80
5, 189504, Note_on_c, 3, 59, 0
5, 189552, Note_on_c, 3, 68, 0
5, 189600, Note_on_c, 3, 66, 80
5, 189792, Note_on_c, 3, 66, 0
5, 190080, Note_on_c, 3, 59, 80
5, 190080, Note_on_c, 3, 66, 80
5, 190272, Note_on_c, 3, 66, 0
5, 190320, Note_on_c, 3, 68, 80
5, 190512, Note_on_c, 3, 68, 0
5, 190560, Note_on_c, 3, 63, 80
5, 190752, Note_on_c, 3, 63, 0
5, 190800, Note_on_c, 3, 64, 80
5, 190992, Note_on_c, 3, 64, 0
5, 191040, Note_on_c, 3, 66, 80
5, 191232, Note_on_c, 3, 66, 0
5, 191280, Note_on_c, 3, 64, 80
5, 191472, Note_on_c, 3, 64, 0
5, 191520, Note_on_c, 3, 63, 80
5, 191616, Note_on_c, 3, 59, 0
5, 191712, Note_on_c, 3, 63, 0
5, 192000, Note_on_c, 3, 40, 80
5, 192000, Note_on_c, 3, 52, 80
5, 192384, Note_on_c, 3, 52, 0
5, 192384, Note_on_c, 3, 40, 0
5, 192960, Note_on_c, 3, 52, 80
5, 192960, Note_on_c, 3, 40, 80
5, 193344, Note_on_c, 3, 40, 0
5, 193344, Note_on_c, 3, 52, 0
5, 193920, Note_on_c, 3, 40, 80
5, 193920, Note_on_c, 3, 52, 80
5, 194304, Note_on_c, 3, 52, 0
5, 194304, Note_on_c, 3, 40, 0
5, 195840, Note_on_c, 3, 59, 71
5, 195840, Note_on_c, 3, 66, 71
5, 196032, Note_on_c, 3, 66, 0
5, 196080, Note_on_c, 3, 64, 71
5, 196224, Note_on_c, 3, 59, 0
5, 196272, Note_on_c, 3, 64, 0
5, 196320, Note_on_c, 3, 63, 71
5, 196512, Note_on_c, 3, 63, 0
5, 196800, Note_on_c, 3, 59, 71
5, 196800, Note_on_c, 3, 69, 71
5, 196992, Note_on_c, 3, 69, 0
5, 197040, Note_on_c, 3, 68, 71
5, 197184, Note_on_c, 3, 59, 0
5, 197232, Note_on_c, 3, 68, 0
5, 197280, Note_on_c, 3, 66, 71
5, 197472, Note_on_c, 3, 66, 0
5, 197760, Note_on_c, 3, 66, 71
5, 197760, Note_on_c, 3, 59, 71
5, 197952, Note_on_c, 3, 66, 0
5, 198000, Note_on_c, 3, 68, 71
5, 198192, Note_on_c, 3, 68, 0
5, 198240, Note_on_c, 3, 63, 71
5, 198432, Note_on_c, 3, 63, 0
5, 198480, Note_on_c, 3, 64, 71
5, 198672, Note_on_c, 3, 64, 0
5, 198720, Note_on_c, 3, 66, 71
5, 198912, Note_on_c, 3, 66, 0
5, 198960, Note_on_c, 3, 64, 71
5, 199152, Note_on_c, 3, 64, 0
5, 199200, Note_on_c, 3, 63, 71
5, 199296, Note_on_c, 3, 59, 0
5, 199392, Note_on_c, 3, 63, 0
5, 199680, Note_on_c, 3, 40, 80
5, 199680, Note_on_c, 3, 52, 80
5, 200064, Note_on_c, 3, 52, 0
5, 200064, Note_on_c, 3, 40, 0
5, 200640, Note_on_c, 3, 52, 80
5, 200640, Note_on_c, 3, 40, 80
5, 201024, Note_on_c, 3, 40, 0
5, 201024, Note_on_c, 3, 52, 0
5, 201600, Note_on_c, 3, 52, 80
5, 201600, Note_on_c, 3, 40, 80
5, 201984, Note_on_c, 3, 40, 0
5, 201984, Note_on_c, 3, 52, 0
5, 203520, Note_on_c, 3, 57, 80
5, 203760, Note_on_c, 3, 57, 0
5, 203760, Note_on_c, 3, 61, 71
5, 204000, Note_on_c, 3, 61, 0
5, 204000, Note_on_c, 3, 64, 71
5, 204240, Note_on_c, 3, 64, 0
5, 204240, Note_on_c, 3, 61, 71
5, 204432, Note_on_c, 3, 61, 0
5, 204480, Note_on_c, 3, 57, 71
5, 204720, Note_on_c, 3, 57, 0
5, 204720, Note_on_c, 3, 61, 71
5, 204960, Note_on_c, 3, 61, 0
5, 204960, Note_on_c, 3, 64, 71
5, 205200, Note_on_c, 3, 64, 0
5, 205200, Note_on_c, 3, 61, 71
5, 205392, Note_on_c, 3, 61, 0
5, 205440, Note_on_c, 3, 57, 71
5, 205680, Note_on_c, 3, 57, 0
5, 205680, Note_on_c, 3, 61, 71
5, 205920, Note_on_c, 3, 61, 0
5, 205920, Note_on_c, 3, 64, 71
5, 206160, Note_on_c, 3, 64, 0
5, 206160, Note_on_c, 3, 61, 71
5, 206352, Note_on_c, 3, 61, 0
5, 206400, Note_on_c, 3, 57, 71
5, 206640, Note_on_c, 3, 57, 0
5, 206640, Note_on_c, 3, 61, 71
5, 206880, Note_on_c, 3, 61, 0
5, 206880, Note_on_c, 3, 64, 71
5, 207120, Note_on_c, 3, 64, 0
5, 207120, Note_on_c, 3, 61, 71
5, 207312, Note_on_c, 3, 61, 0
5, 207360, Note_on_c, 3, 57, 71
5, 207600, Note_on_c, 3, 57, 0
5, 207600, Note_on_c, 3, 63, 71
5, 207840, Note_on_c, 3, 63, 0
5, 207840, Note_on_c, 3, 66, 71
5, 208080, Note_on_c, 3, 66, 0
5, 208080, Note_on_c, 3, 63, 71
5, 208272, Note_on_c, 3, 63, 0
5, 208320, Note_on_c, 3, 57, 71
5, 208560, Note_on_c, 3, 57, 0
5, 208560, Note_on_c, 3, 63, 71
5, 208800, Note_on_c, 3, 63, 0
5, 208800, Note_on_c, 3, 66, 71
5, 209040, Note_on_c, 3, 66, 0
5, 209040, Note_on_c, 3, 63, 71
5, 209232, Note_on_c, 3, 63, 0
5, 209280, Note_on_c, 3, 57, 71
5, 209520, Note_on_c, 3, 57, 0
5, 209520, Note_on_c, 3, 63, 71
5, 209760, Note_on_c, 3, 63, 0
5, 209760, Note_on_c, 3, 66, 71
5, 210000, Note_on_c, 3, 66, 0
5, 210000, Note_on_c, 3, 63, 71
5, 210192, Note_on_c, 3, 63, 0
5, 210240, Note_on_c, 3, 57, 71
5, 210480, Note_on_c, 3, 57, 0
5, 210480, Note_on_c, 3, 63, 71
5, 210720, Note_on_c, 3, 63, 0
5, 210720, Note_on_c, 3, 66, 71
5, 210960, Note_on_c, 3, 66, 0
5, 210960, Note_on_c, 3, 63, 71
5, 211152, Note_on_c, 3, 63, 0
5, 211200, Note_on_c, 3, 56, 71
5, 211200, Note_on_c, 3, 64, 71
5, 211584, Note_on_c, 3, 64, 0
5, 211584, Note_on_c, 3, 56, 0
5, 212640, Note_on_c, 3, 56, 71
5, 212640, Note_on_c, 3, 64, 71
5, 213024, Note_on_c, 3, 64, 0
5, 213024, Note_on_c, 3, 56, 0
5, 213120, Note_on_c, 3, 64, 71
5, 213120, Note_on_c, 3, 57, 71
5, 213276, Note_on_c, 3, 57, 0
5, 213360, Note_on_c, 3, 59, 71
5, 213516, Note_on_c, 3, 59, 0
5, 213600, Note_on_c, 3, 61, 71
5, 213756, Note_on_c, 3, 61, 0
5, 213840, Note_on_c, 3, 62, 71
5, 213996, Note_on_c, 3, 62, 0
5, 214080, Note_on_c, 3, 61, 71
5, 214236, Note_on_c, 3, 61, 0
5, 214272, Note_on_c, 3, 64, 0
5, 214320, Note_on_c, 3, 59, 71
5, 214476, Note_on_c, 3, 59, 0
5, 214560, Note_on_c, 3, 57, 71
5, 214716, Note_on_c, 3, 57, 0
5, 214800, Note_on_c, 3, 56, 71
5, 214956, Note_on_c, 3, 56, 0
5, 215040, Note_on_c, 3, 57, 71
5, 215424, Note_on_c, 3, 57, 0
5, 216960, Note_on_c, 3, 59, 71
5, 216960, Note_on_c, 3, 68, 71
5, 216960, Note_on_c, 3, 64, 71
5, 217920, Note_on_c, 3, 64, 0
5, 217920, Note_on_c, 3, 68, 0
5, 217920, Note_on_c, 3, 69, 71
5, 217920, Note_on_c, 3, 66, 71
5, 218880, Note_on_c, 3, 66, 0
5, 218880, Note_on_c, 3, 69, 0
5, 218880, Note_on_c, 3, 59, 0
5, 218880, Note_on_c, 3, 68, 62
5, 218880, Note_on_c, 3, 64, 62
5, 219264, Note_on_c, 3, 64, 0
5, 219264, Note_on_c, 3, 68, 0
5, 228480, Note_on_c, 3, 63, 80
5, 228576, Note_on_c, 3, 63, 0
5, 228600, Note_on_c, 3, 71, 80
5, 228696, Note_on_c, 3, 71, 0
5, 228720, Note_on_c, 3, 63, 80
5, 228816, Note_on_c, 3, 63, 0
5, 228840, Note_on_c, 3, 71, 80
5, 228936, Note_on_c, 3, 71, 0
5, 228960, Note_on_c, 3, 63, 80
5, 229056, Note_on_c, 3, 63, 0
5, 229080, Note_on_c, 3, 71, 80
5, 229176, Note_on_c, 3, 71, 0
5, 229200, Note_on_c, 3, 63, 80
5, 229296, Note_on_c, 3, 63, 0
5, 229320, Note_on_c, 3, 71, 80
5, 229416, Note_on_c, 3, 71, 0
5, 229440, Note_on_c, 3, 64, 80
5, 229536, Note_on_c, 3, 64, 0
5, 229560, Note_on_c, 3, 71, 80
5, 229656, Note_on_c, 3, 71, 0
5, 229680, Note_on_c, 3, 64, 80
5, 229776, Note_on_c, 3, 64, 0
5, 229800, Note_on_c, 3, 71, 80
5, 229896, Note_on_c, 3, 71, 0
5, 229920, Note_on_c, 3, 64, 80
5, 230016, Note_on_c, 3, 64, 0
5, 230040, Note_on_c, 3, 71, 80
5, 230136, Note_on_c, 3, 71, 0
5, 230160, Note_on_c, 3, 64, 80
5, 230256, Note_on_c, 3, 64, 0
5, 230280, Note_on_c, 3, 71, 80
5, 230376, Note_on_c, 3, 71, 0
5, 230400, Note_on_c, 3, 66, 80
5, 230496, Note_on_c, 3, 66, 0
5, 230520, Note_on_c, 3, 71, 80
5, 230616, Note_on_c, 3, 71, 0
5, 230640, Note_on_c, 3, 66, 80
5, 230736, Note_on_c, 3, 66, 0
5, 230760, Note_on_c, 3, 71, 80
5, 230856, Note_on_c, 3, 71, 0
5, 230880, Note_on_c, 3, 68, 80
5, 230976, Note_on_c, 3, 68, 0
5, 231000, Note_on_c, 3, 71, 80
5, 231096, Note_on_c, 3, 71, 0
5, 231120, Note_on_c, 3, 68, 80
5, 231216, Note_on_c, 3, 68, 0
5, 231240, Note_on_c, 3, 71, 80
5, 231336, Note_on_c, 3, 71, 0
5, 231360, Note_on_c, 3, 69, 80
5, 231456, Note_on_c, 3, 69, 0
5, 231480, Note_on_c, 3, 71, 80
5, 231576, Note_on_c, 3, 71, 0
5, 231600, Note_on_c, 3, 69, 80
5, 231696, Note_on_c, 3, 69, 0
5, 231720, Note_on_c, 3, 71, 80
5, 231816, Note_on_c, 3, 71, 0
5, 231840, Note_on_c, 3, 65, 80
5, 231936, Note_on_c, 3, 65, 0
5, 231960, Note_on_c, 3, 71, 80
5, 232056, Note_on_c, 3, 71, 0
5, 232080, Note_on_c, 3, 65, 80
5, 232176, Note_on_c, 3, 65, 0
5, 232200, Note_on_c, 3, 71, 80
5, 232296, Note_on_c, 3, 71, 0
5, 232320, Note_on_c, 3, 66, 80
5, 232416, Note_on_c, 3, 66, 0
5, 232440, Note_on_c, 3, 71, 80
5, 232536, Note_on_c, 3, 71, 0
5, 232560, Note_on_c, 3, 66, 80
5, 232656, Note_on_c, 3, 66, 0
5, 232680, Note_on_c, 3, 71, 80
5, 232776, Note_on_c, 3, 71, 0
5, 232800, Note_on_c, 3, 68, 80
5, 232896, Note_on_c, 3, 68, 0
5, 232920, Note_on_c, 3, 71, 80
5, 233016, Note_on_c, 3, 71, 0
5, 233040, Note_on_c, 3, 68, 80
5, 233136, Note_on_c, 3, 68, 0
5, 233160, Note_on_c, 3, 71, 80
5, 233256, Note_on_c, 3, 71, 0
5, 233280, Note_on_c, 3, 69, 80
5, 233376, Note_on_c, 3, 69, 0
5, 233400, Note_on_c, 3, 71, 80
5, 233496, Note_on_c, 3, 71, 0
5, 233520, Note_on_c, 3, 69, 80
5, 233616, Note_on_c, 3, 69, 0
5, 233640, Note_on_c, 3, 71, 80
5, 233736, Note_on_c, 3, 71, 0
5, 233760, Note_on_c, 3, 65, 80
5, 233856, Note_on_c, 3, 65, 0
5, 233880, Note_on_c, 3, 71, 80
5, 233976, Note_on_c, 3, 71, 0
5, 234000, Note_on_c, 3, 65, 80
5, 234096, Note_on_c, 3, 65, 0
5, 234120, Note_on_c, 3, 71, 80
5, 234216, Note_on_c, 3, 71, 0
5, 234240, Note_on_c, 3, 66, 80
5, 234336, Note_on_c, 3, 66, 0
5, 234360, Note_on_c, 3, 71, 80
5, 234456, Note_on_c, 3, 71, 0
5, 234480, Note_on_c, 3, 66, 80
5, 234576, Note_on_c, 3, 66, 0
5, 234600, Note_on_c, 3, 71, 80
5, 234696, Note_on_c, 3, 71, 0
5, 234720, Note_on_c, 3, 68, 80
5, 234816, Note_on_c, 3, 68, 0
5, 234840, Note_on_c, 3, 71, 80
5, 234936, Note_on_c, 3, 71, 0
5, 234960, Note_on_c, 3, 68, 80
5, 235056, Note_on_c, 3, 68, 0
5, 235080, Note_on_c, 3, 71, 80
5, 235176, Note_on_c, 3, 71, 0
5, 235200, Note_on_c, 3, 69, 80
5, 235392, Note_on_c, 3, 69, 0
5, 236160, Note_on_c, 3, 52, 71
5, 236400, Note_on_c, 3, 52, 0
5, 236400, Note_on_c, 3, 56, 71
5, 236640, Note_on_c, 3, 56, 0
5, 236640, Note_on_c, 3, 59, 71
5, 236880, Note_on_c, 3, 59, 0
5, 236880, Note_on_c, 3, 64, 71
5, 237072, Note_on_c, 3, 64, 0
5, 237120, Note_on_c, 3, 52, 71
5, 237360, Note_on_c, 3, 52, 0
5, 237360, Note_on_c, 3, 56, 71
5, 237600, Note_on_c, 3, 56, 0
5, 237600, Note_on_c, 3, 59, 71
5, 237840, Note_on_c, 3, 59, 0
5, 237840, Note_on_c, 3, 64, 71
5, 238032, Note_on_c, 3, 64, 0
5, 238080, Note_on_c, 3, 52, 71
5, 238320, Note_on_c, 3, 52, 0
5, 238320, Note_on_c, 3, 57, 71
5, 238560, Note_on_c, 3, 57, 0
5, 238560, Note_on_c, 3, 61, 71
5, 238800, Note_on_c, 3, 61, 0
5, 238800, Note_on_c, 3, 64, 71
5, 238992, Note_on_c, 3, 64, 0
5, 239040, Note_on_c, 3, 52, 71
5, 239280, Note_on_c, 3, 52, 0
5, 239280, Note_on_c, 3, 54, 71
5, 239520, Note_on_c, 3, 54, 0
5, 239520, Note_on_c, 3, 57, 71
5, 239760, Note_on_c, 3, 57, 0
5, 239760, Note_on_c, 3, 63, 71
5, 239952, Note_on_c, 3, 63, 0
5, 240000, Note_on_c, 3, 52, 71
5, 240240, Note_on_c, 3, 52, 0
5, 240240, Note_on_c, 3, 56, 71
5, 240480, Note_on_c, 3, 56, 0
5, 240480, Note_on_c, 3, 59, 71
5, 240720, Note_on_c, 3, 59, 0
5, 240720, Note_on_c, 3, 64, 71
5, 240912, Note_on_c, 3, 64, 0
5, 240960, Note_on_c, 3, 52, 71
5, 241200, Note_on_c, 3, 52, 0
5, 241200, Note_on_c, 3, 56, 71
5, 241440, Note_on_c, 3, 56, 0
5, 241440, Note_on_c, 3, 59, 71
5, 241680, Note_on_c, 3, 59, 0
5, 241680, Note_on_c, 3, 64, 71
5, 241872, Note_on_c, 3, 64, 0
5, 241920, Note_on_c, 3, 52, 71
5, 242160, Note_on_c, 3, 52, 0
5, 242160, Note_on_c, 3, 57, 71
5, 242400, Note_on_c, 3, 57, 0
5, 242400, Note_on_c, 3, 61, 71
5, 242640, Note_on_c, 3, 61, 0
5, 242640, Note_on_c, 3, 64, 71
5, 242832, Note_on_c, 3, 64, 0
5, 242880, Note_on_c, 3, 52, 71
5, 243120, Note_on_c, 3, 52, 0
5, 243120, Note_on_c, 3, 54, 71
5, 243360, Note_on_c, 3, 54, 0
5, 243360, Note_on_c, 3, 57, 71
5, 243600, Note_on_c, 3, 57, 0
5, 243600, Note_on_c, 3, 63, 71
5, 243792, Note_on_c, 3, 63, 0
5, 243840, Note_on_c, 3, 52, 71
5, 244080, Note_on_c, 3, 52, 0
5, 244080, Note_on_c, 3, 56, 71
5, 244320, Note_on_c, 3, 56, 0
5, 244320, Note_on_c, 3, 59, 71
5, 244560, Note_on_c, 3, 59, 0
5, 244560, Note_on_c, 3, 64, 71
5, 244752, Note_on_c, 3, 64, 0
5, 244800, Note_on_c, 3, 52, 71
5, 245184, Note_on_c, 3, 52, 0
5, 245760, Note_on_c, 3, 68, 71
5, 245760, Note_on_c, 3, 65, 71
5, 245760, Note_on_c, 3, 71, 71
5, 246700, Note_on_c, 3, 71, 0
5, 246700, Note_on_c, 3, 65, 0
5, 246700, Note_on_c, 3, 68, 0
5, 246720, Note_on_c, 3, 69, 71
5, 246720, Note_on_c, 3, 66, 71
5, 247660, Note_on_c, 3, 66, 0
5, 247660, Note_on_c, 3, 69, 0
5, 247680, Note_on_c, 3, 63, 71
5, 247680, Note_on_c, 3, 66, 71
5, 247680, Note_on_c, 3, 69, 71
5, 248620, Note_on_c, 3, 69, 0
5, 248620, Note_on_c, 3, 66, 0
5, 248620, Note_on_c, 3, 63, 0
5, 248640, Note_on_c, 3, 64, 71
5, 248640, Note_on_c, 3, 68, 71
5, 249580, Note_on_c, 3, 68, 0
5, 249580, Note_on_c, 3, 64, 0
5, 249600, Note_on_c, 3, 61, 71
5, 249600, Note_on_c, 3, 64, 71
5, 249600, Note_on_c, 3, 68, 71
5, 250512, Note_on_c, 3, 68, 0
5, 250512, Note_on_c, 3, 64, 0
5, 250512, Note_on_c, 3, 61, 0
5, 250560, Note_on_c, 3, 63, 71
5, 250560, Note_on_c, 3, 66, 71
5, 251472, Note_on_c, 3, 66, 0
5, 251472, Note_on_c, 3, 63, 0
5, 251520, Note_on_c, 3, 64, 71
5, 251904, Note_on_c, 3, 64, 0
5, 259200, Note_on_c, 3, 59, 71
5, 259328, Note_on_c, 3, 59, 0
5, 259360, Note_on_c, 3, 64, 71
5, 259488, Note_on_c, 3, 64, 0
5, 259520, Note_on_c, 3, 68, 71
5, 259648, Note_on_c, 3, 68, 0
5, 259680, Note_on_c, 3, 59, 71
5, 259808, Note_on_c, 3, 59, 0
5, 259840, Note_on_c, 3, 64, 71
5, 259968, Note_on_c, 3, 64, 0
5, 260000, Note_on_c, 3, 68, 71
5, 260128, Note_on_c, 3, 68, 0
5, 260160, Note_on_c, 3, 59, 71
5, 260288, Note_on_c, 3, 59, 0
5, 260320, Note_on_c, 3, 64, 71
5, 260448, Note_on_c, 3, 64, 0
5, 260480, Note_on_c, 3, 68, 71
5, 260608, Note_on_c, 3, 68, 0
5, 260640, Note_on_c, 3, 59, 71
5, 260768, Note_on_c, 3, 59, 0
5, 260800, Note_on_c, 3, 64, 71
5, 260928, Note_on_c, 3, 64, 0
5, 260960, Note_on_c, 3, 68, 71
5, 261088, Note_on_c, 3, 68, 0
5, 261120, Note_on_c, 3, 59, 71
5, 261248, Note_on_c, 3, 59, 0
5, 261280, Note_on_c, 3, 63, 71
5, 261408, Note_on_c, 3, 63, 0
5, 261440, Note_on_c, 3, 69, 71
5, 261568, Note_on_c, 3, 69, 0
5, 261600, Note_on_c, 3, 59, 71
5, 261728, Note_on_c, 3, 59, 0
5, 261760, Note_on_c, 3, 63, 71
5, 261888, Note_on_c, 3, 63, 0
5, 261920, Note_on_c, 3, 69, 71
5, 262048, Note_on_c, 3, 69, 0
5, 262080, Note_on_c, 3, 59, 71
5, 262208, Note_on_c, 3, 59, 0
5, 262240, Note_on_c, 3, 63, 71
5, 262368, Note_on_c, 3, 63, 0
5, 262400, Note_on_c, 3, 69, 71
5, 262528, Note_on_c, 3, 69, 0
5, 262560, Note_on_c, 3, 59, 71
5, 262688, Note_on_c, 3, 59, 0
5, 262720, Note_on_c, 3, 63, 71
5, 262848, Note_on_c, 3, 63, 0
5, 262880, Note_on_c, 3, 69, 71
5, 263008, Note_on_c, 3, 69, 0
5, 263040, Note_on_c, 3, 64, 71
5, 263424, Note_on_c, 3, 64, 0
5, 265800, Note_on_c, 3, 64, 71
5, 265896, Note_on_c, 3, 64, 0
5, 265920, Note_on_c, 3, 68, 71
5, 266304, Note_on_c, 3, 68, 0
5, 269640, Note_on_c, 3, 69, 71
5, 269736, Note_on_c, 3, 69, 0
5, 269760, Note_on_c, 3, 73, 71
5, 270144, Note_on_c, 3, 73, 0
5, 270720, Note_on_c, 3, 47, 90
5, 270816, Note_on_c, 3, 47, 0
5, 270840, Note_on_c, 3, 56, 90
5, 270936, Note_on_c, 3, 56, 0
5, 270960, Note_on_c, 3, 52, 90
5, 271056, Note_on_c, 3, 52, 0
5, 271080, Note_on_c, 3, 56, 90
5, 271176, Note_on_c, 3, 56, 0
5, 271200, Note_on_c, 3, 47, 90
5, 271296, Note_on_c, 3, 47, 0
5, 271320, Note_on_c, 3, 56, 90
5, 271416, Note_on_c, 3, 56, 0
5, 271440, Note_on_c, 3, 52, 90
5, 271536, Note_on_c, 3, 52, 0
5, 271560, Note_on_c, 3, 56, 90
5, 271656, Note_on_c, 3, 56, 0
5, 271680, Note_on_c, 3, 47, 90
5, 271776, Note_on_c, 3, 47, 0
5, 271800, Note_on_c, 3, 56, 90
5, 271896, Note_on_c, 3, 56, 0
5, 271920, Note_on_c, 3, 52, 90
5, 272016, Note_on_c, 3, 52, 0
5, 272040, Note_on_c, 3, 56, 90
5, 272136, Note_on_c, 3, 56, 0
5, 272160, Note_on_c, 3, 47, 90
5, 272256, Note_on_c, 3, 47, 0
5, 272280, Note_on_c, 3, 56, 90
5, 272376, Note_on_c, 3, 56, 0
5, 272400, Note_on_c, 3, 52, 90
5, 272496, Note_on_c, 3, 52, 0
5, 272520, Note_on_c, 3, 56, 90
5, 272616, Note_on_c, 3, 56, 0
5, 272640, Note_on_c, 3, 47, 80
5, 273024, Note_on_c, 3, 47, 0
5, 274560, Note_on_c, 3, 68, 80
5, 274560, Note_on_c, 3, 59, 80
5, 274560, Note_on_c, 3, 64, 80
5, 274944, Note_on_c, 3, 64, 0
5, 274944, Note_on_c, 3, 59, 0
5, 274944, Note_on_c, 3, 68, 0
5, 275520, Note_on_c, 3, 59, 80
5, 275520, Note_on_c, 3, 64, 80
5, 275520, Note_on_c, 3, 68, 80
5, 275904, Note_on_c, 3, 68, 0
5, 275904, Note_on_c, 3, 64, 0
5, 275904, Note_on_c, 3, 59, 0
5, 276480, Note_on_c, 3, 59, 80
5, 276576, Note_on_c, 3, 59, 0
5, 276600, Note_on_c, 3, 69, 80
5, 276696, Note_on_c, 3, 69, 0
5, 276720, Note_on_c, 3, 63, 80
5, 276816, Note_on_c, 3, 63, 0
5, 276840, Note_on_c, 3, 69, 80
5, 276936, Note_on_c, 3, 69, 0
5, 276960, Note_on_c, 3, 59, 80
5, 277056, Note_on_c, 3, 59, 0
5, 277080, Note_on_c, 3, 69, 80
5, 277176, Note_on_c, 3, 69, 0
5, 277200, Note_on_c, 3, 63, 80
5, 277296, Note_on_c, 3, 63, 0
5, 277320, Note_on_c, 3, 69, 80
5, 277416, Note_on_c, 3, 69, 0
5, 277440, Note_on_c, 3, 59, 80
5, 277536, Note_on_c, 3, 59, 0
5, 277560, Note_on_c, 3, 69, 80
5, 277656, Note_on_c, 3, 69, 0
5, 277680, Note_on_c, 3, 63, 80
5, 277776, Note_on_c, 3, 63, 0
5, 277800, Note_on_c, 3, 69, 80
5, 277896, Note_on_c, 3, 69, 0
5, 277920, Note_on_c, 3, 59, 80
5, 278016, Note_on_c, 3, 59, 0
5, 278040, Note_on_c, 3, 69, 80
5, 278136, Note_on_c, 3, 69, 0
5, 278160, Note_on_c, 3, 63, 80
5, 278256, Note_on_c, 3, 63, 0
5, 278280, Note_on_c, 3, 69, 80
5, 278376, Note_on_c, 3, 69, 0
5, 278400, Note_on_c, 3, 64, 80
5, 278400, Note_on_c, 3, 68, 80
5, 278784, Note_on_c, 3, 68, 0
5, 278784, Note_on_c, 3, 64, 0
5, 294240, Note_on_c, 3, 68, 71
5, 294240, Note_on_c, 3, 71, 71
5, 294624, Note_on_c, 3, 68, 0
5, 294720, Note_on_c, 3, 66, 71
5, 294720, Note_on_c, 3, 69, 71
5, 295104, Note_on_c, 3, 69, 0
5, 295104, Note_on_c, 3, 66, 0
5, 295104, Note_on_c, 3, 71, 0
5, 295200, Note_on_c, 3, 68, 71
5, 295200, Note_on_c, 3, 64, 71
5, 295200, Note_on_c, 3, 71, 71
5, 295584, Note_on_c, 3, 71, 0
5, 295584, Note_on_c, 3, 64, 0
5, 295584, Note_on_c, 3, 68, 0
5, 295680, Note_on_c, 3, 66, 66
5, 295680, Note_on_c, 3, 71, 66
5, 295680, Note_on_c, 3, 63, 66
5, 296064, Note_on_c, 3, 63, 0
5, 296064, Note_on_c, 3, 71, 0
5, 296064, Note_on_c, 3, 66, 0
5, 298080, Note_on_c, 3, 71, 71
5, 298080, Note_on_c, 3, 69, 71
5, 298464, Note_on_c, 3, 69, 0
5, 298560, Note_on_c, 3, 68, 71
5, 298944, Note_on_c, 3, 68, 0
5, 298944, Note_on_c, 3, 71, 0
5, 299040, Note_on_c, 3, 71, 71
5, 299040, Note_on_c, 3, 69, 71
5, 299040, Note_on_c, 3, 66, 71
5, 299424, Note_on_c, 3, 66, 0
5, 299424, Note_on_c, 3, 69, 0
5, 299424, Note_on_c, 3, 71, 0
5, 299520, Note_on_c, 3, 71, 67
5, 299520, Note_on_c, 3, 68, 67
5, 299520, Note_on_c, 3, 64, 67
5, 299904, Note_on_c, 3, 64, 0
5, 299904, Note_on_c, 3, 68, 0
5, 299904, Note_on_c, 3, 71, 0
5, 301440, Note_on_c, 3, 52, 71
5, 301680, Note_on_c, 3, 52, 0
5, 301680, Note_on_c, 3, 56, 71
5, 301920, Note_on_c, 3, 56, 0
5, 301920, Note_on_c, 3, 59, 71
5, 302160, Note_on_c, 3, 59, 0
5, 302160, Note_on_c, 3, 64, 71
5, 302352, Note_on_c, 3, 64, 0
5, 302400, Note_on_c, 3, 52, 71
5, 302640, Note_on_c, 3, 52, 0
5, 302640, Note_on_c, 3, 56, 71
5, 302880, Note_on_c, 3, 56, 0
5, 302880, Note_on_c, 3, 59, 71
5, 303120, Note_on_c, 3, 59, 0
5, 303120, Note_on_c, 3, 64, 71
5, 303312, Note_on_c, 3, 64, 0
5, 303360, Note_on_c, 3, 52, 71
5, 303600, Note_on_c, 3, 52, 0
5, 303600, Note_on_c, 3, 56, 71
5, 303840, Note_on_c, 3, 56, 0
5, 303840, Note_on_c, 3, 59, 71
5, 304080, Note_on_c, 3, 59, 0
5, 304080, Note_on_c, 3, 64, 71
5, 304272, Note_on_c, 3, 64, 0
5, 304320, Note_on_c, 3, 52, 71
5, 304560, Note_on_c, 3, 52, 0
5, 304560, Note_on_c, 3, 56, 71
5, 304800, Note_on_c, 3, 56, 0
5, 304800, Note_on_c, 3, 59, 71
5, 305040, Note_on_c, 3, 59, 0
5, 305040, Note_on_c, 3, 64, 71
5, 305232, Note_on_c, 3, 64, 0
5, 305280, Note_on_c, 3, 52, 71
5, 305664, Note_on_c, 3, 52, 0
5, 306720, Note_on_c, 3, 70, 71
5, 306720, Note_on_c, 3, 61, 71
5, 307104, Note_on_c, 3, 61, 0
5, 307104, Note_on_c, 3, 70, 0
5, 307200, Note_on_c, 3, 64, 71
5, 307200, Note_on_c, 3, 59, 71
5, 307584, Note_on_c, 3, 59, 0
5, 307680, Note_on_c, 3, 64, 0
5, 307680, Note_on_c, 3, 63, 67
5, 308064, Note_on_c, 3, 63, 0
5, 309600, Note_on_c, 3, 59, 71
5, 310368, Note_on_c, 3, 59, 0
5, 310560, Note_on_c, 3, 59, 71
5, 310944, Note_on_c, 3, 59, 0
5, 311040, Note_on_c, 3, 59, 67
5, 311424, Note_on_c, 3, 59, 0
5, 313440, Note_on_c, 3, 59, 71
5, 314208, Note_on_c, 3, 59, 0
5, 314400, Note_on_c, 3, 63, 71
5, 314400, Note_on_c, 3, 59, 71
5, 314784, Note_on_c, 3, 59, 0
5, 314784, Note_on_c, 3, 63, 0
5, 314880, Note_on_c, 3, 64, 67
5, 314880, Note_on_c, 3, 59, 67
5, 315264, Note_on_c, 3, 59, 0
5, 315264, Note_on_c, 3, 64, 0
5, 316800, Note_on_c, 3, 40, 62
5, 317040, Note_on_c, 3, 40, 0
5, 317040, Note_on_c, 3, 44, 62
5, 317280, Note_on_c, 3, 44, 0
5, 317280, Note_on_c, 3, 47, 62
5, 317520, Note_on_c, 3, 47, 0
5, 317520, Note_on_c, 3, 52, 62
5, 317712, Note_on_c, 3, 52, 0
5, 317760, Note_on_c, 3, 40, 62
5, 318000, Note_on_c, 3, 40, 0
5, 318000, Note_on_c, 3, 45, 62
5, 318240, Note_on_c, 3, 45, 0
5, 318240, Note_on_c, 3, 49, 62
5, 318480, Note_on_c, 3, 49, 0
5, 318480, Note_on_c, 3, 52, 62
5, 318672, Note_on_c, 3, 52, 0
5, 318720, Note_on_c, 3, 40, 62
5, 318960, Note_on_c, 3, 40, 0
5, 318960, Note_on_c, 3, 44, 62
5, 319200, Note_on_c, 3, 44, 0
5, 319200, Note_on_c, 3, 47, 62
5, 319440, Note_on_c, 3, 47, 0
5, 319440, Note_on_c, 3, 52, 62
5, 319632, Note_on_c, 3, 52, 0
5, 319680, Note_on_c, 3, 40, 62
5, 319920, Note_on_c, 3, 40, 0
5, 319920, Note_on_c, 3, 45, 62
5, 320160, Note_on_c, 3, 45, 0
5, 320160, Note_on_c, 3, 49, 62
5, 320400, Note_on_c, 3, 49, 0
5, 320400, Note_on_c, 3, 52, 62
5, 320592, Note_on_c, 3, 52, 0
5, 320640, Note_on_c, 3, 40, 62
5, 321024, Note_on_c, 3, 40, 0
5, 321120, Note_on_c, 3, 45, 62
5, 321120, Note_on_c, 3, 54, 62
5, 321504, Note_on_c, 3, 54, 0
5, 321504, Note_on_c, 3, 45, 0
5, 321600, Note_on_c, 3, 47, 62
5, 321600, Note_on_c, 3, 56, 62
5, 322080, Note_on_c, 3, 56, 0
5, 322080, Note_on_c, 3, 57, 62
5, 322464, Note_on_c, 3, 57, 0
5, 322464, Note_on_c, 3, 47, 0
5, 322560, Note_on_c, 3, 40, 71
5, 322560, Note_on_c, 3, 52, 71
5, 325420, Note_on_c, 3, 52, 0
5, 325420, Note_on_c, 3, 40, 0
5, 325440, Note_on_c, 3, 51, 71
5, 325560, Note_on_c, 3, 51, 0
5, 325560, Note_on_c, 3, 52, 71
5, 325680, Note_on_c, 3, 52, 0
5, 325680, Note_on_c, 3, 51, 71
5, 325800, Note_on_c, 3, 51, 0
5, 325800, Note_on_c, 3, 52, 71
5, 325920, Note_on_c, 3, 52, 0
5, 325920, Note_on_c, 3, 51, 71
5, 326040, Note_on_c, 3, 51, 0
5, 326040, Note_on_c, 3, 52, 71
5, 326160, Note_on_c, 3, 52, 0
5, 326160, Note_on_c, 3, 51, 71
5, 326280, Note_on_c, 3, 51, 0
5, 326280, Note_on_c, 3, 52, 71
5, 326400, Note_on_c, 3, 52, 0
5, 326400, Note_on_c, 3, 38, 71
5, 326400, Note_on_c, 3, 50, 71
5, 329260, Note_on_c, 3, 50, 0
5, 329260, Note_on_c, 3, 38, 0
5, 329280, Note_on_c, 3, 49, 71
5, 329400, Note_on_c, 3, 49, 0
5, 329400, Note_on_c, 3, 50, 71
5, 329520, Note_on_c, 3, 50, 0
5, 329520, Note_on_c, 3, 49, 71
5, 329640, Note_on_c, 3, 49, 0
5, 329640, Note_on_c, 3, 50, 71
5, 329760, Note_on_c, 3, 50, 0
5, 329760, Note_on_c, 3, 49, 71
5, 329880, Note_on_c, 3, 49, 0
5, 329880, Note_on_c, 3, 50, 71
5, 330000, Note_on_c, 3, 50, 0
5, 330000, Note_on_c, 3, 49, 71
5, 330120, Note_on_c, 3, 49, 0
5, 330120, Note_on_c, 3, 50, 71
5, 330216, Note_on_c, 3, 50, 0
5, 330240, Note_on_c, 3, 49, 71
5, 330480, Note_on_c, 3, 49, 0
5, 330480, Note_on_c, 3, 53, 71
5, 330720, Note_on_c, 3, 53, 0
5, 330720, Note_on_c, 3, 56, 71
5, 330960, Note_on_c, 3, 56, 0
5, 330960, Note_on_c, 3, 53, 71
5, 331152, Note_on_c, 3, 53, 0
5, 331200, Note_on_c, 3, 49, 71
5, 331440, Note_on_c, 3, 49, 0
5, 331440, Note_on_c, 3, 53, 71
5, 331680, Note_on_c, 3, 53, 0
5, 331680, Note_on_c, 3, 56, 71
5, 331920, Note_on_c, 3, 56, 0
5, 331920, Note_on_c, 3, 53, 71
5, 332112, Note_on_c, 3, 53, 0
5, 332160, Note_on_c, 3, 49, 71
5, 332400, Note_on_c, 3, 49, 0
5, 332400, Note_on_c, 3, 54, 71
5, 332640, Note_on_c, 3, 54, 0
5, 332640, Note_on_c, 3, 57, 71
5, 332880, Note_on_c, 3, 57, 0
5, 332880, Note_on_c, 3, 54, 71
5, 333072, Note_on_c, 3, 54, 0
5, 333120, Note_on_c, 3, 49, 71
5, 333360, Note_on_c, 3, 49, 0
5, 333360, Note_on_c, 3, 54, 71
5, 333600, Note_on_c, 3, 54, 0
5, 333600, Note_on_c, 3, 57, 71
5, 333840, Note_on_c, 3, 57, 0
5, 333840, Note_on_c, 3, 54, 71
5, 334032, Note_on_c, 3, 54, 0
5, 334080, Note_on_c, 3, 49, 71
5, 334320, Note_on_c, 3, 49, 0
5, 334320, Note_on_c, 3, 56, 71
5, 334560, Note_on_c, 3, 56, 0
5, 334560, Note_on_c, 3, 59, 71
5, 334800, Note_on_c, 3, 59, 0
5, 334800, Note_on_c, 3, 56, 71
5, 334992, Note_on_c, 3, 56, 0
5, 335040, Note_on_c, 3, 49, 71
5, 335280, Note_on_c, 3, 49, 0
5, 335280, Note_on_c, 3, 56, 71
5, 335520, Note_on_c, 3, 56, 0
5, 335520, Note_on_c, 3, 59, 71
5, 335760, Note_on_c, 3, 59, 0
5, 335760, Note_on_c, 3, 56, 71
5, 335952, Note_on_c, 3, 56, 0
5, 336000, Note_on_c, 3, 49, 71
5, 336240, Note_on_c, 3, 49, 0
5, 336240, Note_on_c, 3, 54, 71
5, 336480, Note_on_c, 3, 54, 0
5, 336480, Note_on_c, 3, 57, 71
5, 336720, Note_on_c, 3, 57, 0
5, 336720, Note_on_c, 3, 54, 71
5, 336912, Note_on_c, 3, 54, 0
5, 336960, Note_on_c, 3, 49, 71
5, 337200, Note_on_c, 3, 49, 0
5, 337200, Note_on_c, 3, 54, 71
5, 337440, Note_on_c, 3, 54, 0
5, 337440, Note_on_c, 3, 57, 71
5, 337680, Note_on_c, 3, 57, 0
5, 337680, Note_on_c, 3, 54, 71
5, 337872, Note_on_c, 3, 54, 0
5, 337920, Note_on_c, 3, 49, 71
5, 338160, Note_on_c, 3, 49, 0
5, 338160, Note_on_c, 3, 53, 71
5, 338400, Note_on_c, 3, 53, 0
5, 338400, Note_on_c, 3, 56, 71
5, 338640, Note_on_c, 3, 56, 0
5, 338640, Note_on_c, 3, 53, 71
5, 338832, Note_on_c, 3, 53, 0
5, 338880, Note_on_c, 3, 49, 71
5, 339120, Note_on_c, 3, 49, 0
5, 339120, Note_on_c, 3, 53, 71
5, 339360, Note_on_c, 3, 53, 0
5, 339360, Note_on_c, 3, 56, 71
5, 339600, Note_on_c, 3, 56, 0
5, 339600, Note_on_c, 3, 53, 71
5, 339792, Note_on_c, 3, 53, 0
5, 339840, Note_on_c, 3, 49, 71
5, 340080, Note_on_c, 3, 49, 0
5, 340080, Note_on_c, 3, 54, 71
5, 340320, Note_on_c, 3, 54, 0
5, 340320, Note_on_c, 3, 57, 71
5, 340560, Note_on_c, 3, 57, 0
5, 340560, Note_on_c, 3, 54, 71
5, 340752, Note_on_c, 3, 54, 0
5, 340800, Note_on_c, 3, 49, 71
5, 341040, Note_on_c, 3, 49, 0
5, 341040, Note_on_c, 3, 54, 71
5, 341280, Note_on_c, 3, 54, 0
5, 341280, Note_on_c, 3, 57, 71
5, 341520, Note_on_c, 3, 57, 0
5, 341520, Note_on_c, 3, 54, 71
5, 341712, Note_on_c, 3, 54, 0
5, 341760, Note_on_c, 3, 49, 71
5, 342000, Note_on_c, 3, 49, 0
5, 342000, Note_on_c, 3, 56, 71
5, 342240, Note_on_c, 3, 56, 0
5, 342240, Note_on_c, 3, 59, 71
5, 342480, Note_on_c, 3, 59, 0
5, 342480, Note_on_c, 3, 56, 71
5, 342672, Note_on_c, 3, 56, 0
5, 342720, Note_on_c, 3, 49, 71
5, 342960, Note_on_c, 3, 49, 0
5, 342960, Note_on_c, 3, 56, 71
5, 343200, Note_on_c, 3, 56, 0
5, 343200, Note_on_c, 3, 59, 71
5, 343440, Note_on_c, 3, 59, 0
5, 343440, Note_on_c, 3, 56, 71
5, 343632, Note_on_c, 3, 56, 0
5, 343680, Note_on_c, 3, 49, 71
5, 343920, Note_on_c, 3, 49, 0
5, 343920, Note_on_c, 3, 54, 71
5, 344160, Note_on_c, 3, 54, 0
5, 344160, Note_on_c, 3, 57, 71
5, 344400, Note_on_c, 3, 57, 0
5, 344400, Note_on_c, 3, 54, 71
5, 344592, Note_on_c, 3, 54, 0
5, 344640, Note_on_c, 3, 49, 71
5, 344880, Note_on_c, 3, 49, 0
5, 344880, Note_on_c, 3, 54, 71
5, 345120, Note_on_c, 3, 54, 0
5, 345120, Note_on_c, 3, 57, 71
5, 345360, Note_on_c, 3, 57, 0
5, 345360, Note_on_c, 3, 54, 71
5, 345552, Note_on_c, 3, 54, 0
5, 345600, Note_on_c, 3, 61, 71
5, 347040, Note_on_c, 3, 61, 0
5, 347040, Note_on_c, 3, 59, 71
5, 347520, Note_on_c, 3, 59, 0
5, 347520, Note_on_c, 3, 57, 71
5, 348000, Note_on_c, 3, 57, 0
5, 348000, Note_on_c, 3, 56, 71
5, 348480, Note_on_c, 3, 56, 0
5, 348480, Note_on_c, 3, 54, 71
5, 348960, Note_on_c, 3, 54, 0
5, 348960, Note_on_c, 3, 57, 71
5, 349430, Note_on_c, 3, 57, 0
5, 349440, Note_on_c, 3, 59, 71
5, 350880, Note_on_c, 3, 59, 0
5, 350880, Note_on_c, 3, 57, 71
5, 351360, Note_on_c, 3, 57, 0
5, 351360, Note_on_c, 3, 56, 71
5, 351840, Note_on_c, 3, 56, 0
5, 351840, Note_on_c, 3, 54, 71
5, 352320, Note_on_c, 3, 54, 0
5, 352320, Note_on_c, 3, 52, 71
5, 352800, Note_on_c, 3, 52, 0
5, 352800, Note_on_c, 3, 56, 71
5, 353270, Note_on_c, 3, 56, 0
5, 353280, Note_on_c, 3, 57, 71
5, 354720, Note_on_c, 3, 57, 0
5, 354720, Note_on_c, 3, 56, 71
5, 355200, Note_on_c, 3, 56, 0
5, 355200, Note_on_c, 3, 54, 71
5, 355680, Note_on_c, 3, 54, 0
5, 355680, Note_on_c, 3, 52, 71
5, 356160, Note_on_c, 3, 52, 0
5, 356160, Note_on_c, 3, 50, 71
5, 356640, Note_on_c, 3, 50, 0
5, 356640, Note_on_c, 3, 54, 71
5, 357096, Note_on_c, 3, 54, 0
5, 357120, Note_on_c, 3, 56, 71
5, 358560, Note_on_c, 3, 56, 0
5, 358560, Note_on_c, 3, 54, 71
5, 359040, Note_on_c, 3, 54, 0
5, 359040, Note_on_c, 3, 53, 71
5, 359520, Note_on_c, 3, 53, 0
5, 359520, Note_on_c, 3, 51, 71
5, 360000, Note_on_c, 3, 51, 0
5, 360000, Note_on_c, 3, 49, 71
5, 360480, Note_on_c, 3, 49, 0
5, 360480, Note_on_c, 3, 53, 71
5, 360936, Note_on_c, 3, 53, 0
5, 360960, Note_on_c, 3, 54, 58
5, 361920, Note_on_c, 3, 54, 0
5, 361920, Note_on_c, 3, 52, 59
5, 362880, Note_on_c, 3, 52, 0
5, 362880, Note_on_c, 3, 51, 62
5, 363840, Note_on_c, 3, 51, 0
5, 363840, Note_on_c, 3, 50, 66
5, 364780, Note_on_c, 3, 50, 0
5, 364800, Note_on_c, 3, 49, 72
5, 365760, Note_on_c, 3, 49, 0
5, 365760, Note_on_c, 3, 47, 79
5, 366700, Note_on_c, 3, 47, 0
5, 366720, Note_on_c, 3, 45, 80
5, 367200, Note_on_c, 3, 45, 0
5, 367200, Note_on_c, 3, 47, 77
5, 367680, Note_on_c, 3, 47, 0
5, 367680, Note_on_c, 3, 49, 74
5, 368160, Note_on_c, 3, 49, 0
5, 368160, Note_on_c, 3, 49, 69
5, 368630, Note_on_c, 3, 49, 0
5, 368640, Note_on_c, 3, 54, 59
5, 369024, Note_on_c, 3, 54, 0
5, 369600, Note_on_c, 3, 52, 66
5, 369984, Note_on_c, 3, 52, 0
5, 370560, Note_on_c, 3, 51, 74
5, 370944, Note_on_c, 3, 51, 0
5, 371520, Note_on_c, 3, 50, 82
5, 371904, Note_on_c, 3, 50, 0
5, 372480, Note_on_c, 3, 49, 90
5, 372864, Note_on_c, 3, 49, 0
5, 373440, Note_on_c, 3, 56, 97
5, 373440, Note_on_c, 3, 59, 97
5, 376320, Note_on_c, 3, 59, 0
5, 376320, Note_on_c, 3, 56, 0
5, 376320, Note_on_c, 3, 85, 96
5, 376380, Note_on_c, 3, 85, 0
5, 376380, Note_on_c, 3, 83, 96
5, 376440, Note_on_c, 3, 83, 0
5, 376440, Note_on_c, 3, 81, 96
5, 376500, Note_on_c, 3, 81, 0
5, 376500, Note_on_c, 3, 80, 96
5, 376560, Note_on_c, 3, 80, 0
5, 376560, Note_on_c, 3, 78, 96
5, 376620, Note_on_c, 3, 78, 0
5, 376620, Note_on_c, 3, 76, 96
5, 376680, Note_on_c, 3, 76, 0
5, 376680, Note_on_c, 3, 74, 96
5, 376740, Note_on_c, 3, 74, 0
5, 376740, Note_on_c, 3, 73, 96
5, 376800, Note_on_c, 3, 73, 0
5, 376800, Note_on_c, 3, 71, 96
5, 376860, Note_on_c, 3, 71, 0
5, 376860, Note_on_c, 3, 69, 95
5, 376920, Note_on_c, 3, 69, 0
5, 376920, Note_on_c, 3, 68, 95
5, 376980, Note_on_c, 3, 68, 0
5, 376980, Note_on_c, 3, 66, 95
5, 377040, Note_on_c, 3, 66, 0
5, 377040, Note_on_c, 3, 64, 95
5, 377100, Note_on_c, 3, 64, 0
5, 377100, Note_on_c, 3, 62, 95
5, 377160, Note_on_c, 3, 62, 0
5, 377160, Note_on_c, 3, 61, 95
5, 377220, Note_on_c, 3, 61, 0
5, 377220, Note_on_c, 3, 59, 95
5, 377280, Note_on_c, 3, 59, 0
5, 377280, Note_on_c, 3, 57, 95
5, 377340, Note_on_c, 3, 57, 0
5, 377340, Note_on_c, 3, 56, 95
5, 377400, Note_on_c, 3, 56, 0
5, 377400, Note_on_c, 3, 54, 94
5, 377460, Note_on_c, 3, 54, 0
5, 377460, Note_on_c, 3, 52, 94
5, 377520, Note_on_c, 3, 52, 0
5, 377520, Note_on_c, 3, 50, 94
5, 377520, Note_on_c, 3, 47, 94
5, 377520, Note_on_c, 3, 44, 94
5, 377520, Note_on_c, 3, 40, 94
5, 378240, Note_on_c, 3, 40, 0
5, 378240, Note_on_c, 3, 44, 0
5, 378240, Note_on_c, 3, 47, 0
5, 378240, Note_on_c, 3, 50, 0
5, 395520, Note_on_c, 3, 57, 71
5, 395760, Note_on_c, 3, 57, 0
5, 395760, Note_on_c, 3, 64, 71
5, 396000, Note_on_c, 3, 64, 0
5, 396000, Note_on_c, 3, 61, 71
5, 396240, Note_on_c, 3, 61, 0
5, 396240, Note_on_c, 3, 64, 71
5, 396480, Note_on_c, 3, 64, 0
5, 396480, Note_on_c, 3, 57, 71
5, 396720, Note_on_c, 3, 57, 0
5, 396720, Note_on_c, 3, 64, 71
5, 396960, Note_on_c, 3, 64, 0
5, 396960, Note_on_c, 3, 61, 71
5, 397200, Note_on_c, 3, 61, 0
5, 397200, Note_on_c, 3, 64, 71
5, 397428, Note_on_c, 3, 64, 0
5, 397440, Note_on_c, 3, 57, 71
5, 397680, Note_on_c, 3, 57, 0
5, 397680, Note_on_c, 3, 62, 71
5, 397920, Note_on_c, 3, 62, 0
5, 397920, Note_on_c, 3, 59, 71
5, 398160, Note_on_c, 3, 59, 0
5, 398160, Note_on_c, 3, 62, 71
5, 398400, Note_on_c, 3, 62, 0
5, 398400, Note_on_c, 3, 57, 71
5, 398640, Note_on_c, 3, 57, 0
5, 398640, Note_on_c, 3, 62, 71
5, 398880, Note_on_c, 3, 62, 0
5, 398880, Note_on_c, 3, 59, 71
5, 399120, Note_on_c, 3, 59, 0
5, 399120, Note_on_c, 3, 62, 71
5, 399348, Note_on_c, 3, 62, 0
5, 399360, Note_on_c, 3, 57, 71
5, 399600, Note_on_c, 3, 57, 0
5, 399600, Note_on_c, 3, 68, 71
5, 399840, Note_on_c, 3, 68, 0
5, 399840, Note_on_c, 3, 62, 71
5, 400080, Note_on_c, 3, 62, 0
5, 400080, Note_on_c, 3, 68, 71
5, 400320, Note_on_c, 3, 68, 0
5, 400320, Note_on_c, 3, 57, 71
5, 400560, Note_on_c, 3, 57, 0
5, 400560, Note_on_c, 3, 68, 71
5, 400800, Note_on_c, 3, 68, 0
5, 400800, Note_on_c, 3, 62, 71
5, 401040, Note_on_c, 3, 62, 0
5, 401040, Note_on_c, 3, 68, 71
5, 401268, Note_on_c, 3, 68, 0
5, 401280, Note_on_c, 3, 57, 71
5, 401520, Note_on_c, 3, 57, 0
5, 401520, Note_on_c, 3, 69, 71
5, 401760, Note_on_c, 3, 69, 0
5, 401760, Note_on_c, 3, 61, 71
5, 402000, Note_on_c, 3, 61, 0
5, 402000, Note_on_c, 3, 69, 71
5, 402240, Note_on_c, 3, 69, 0
5, 402240, Note_on_c, 3, 57, 71
5, 402480, Note_on_c, 3, 57, 0
5, 402480, Note_on_c, 3, 69, 71
5, 402720, Note_on_c, 3, 69, 0
5, 402720, Note_on_c, 3, 61, 71
5, 402960, Note_on_c, 3, 61, 0
5, 402960, Note_on_c, 3, 69, 71
5, 403188, Note_on_c, 3, 69, 0
5, 405120, Note_on_c, 3, 69, 90
5, 405504, Note_on_c, 3, 69, 0
5, 405600, Note_on_c, 3, 69, 90
5, 406368, Note_on_c, 3, 69, 0
5, 407040, Note_on_c, 3, 69, 90
5, 407424, Note_on_c, 3, 69, 0
5, 407520, Note_on_c, 3, 69, 90
5, 408288, Note_on_c, 3, 69, 0
5, 412320, Note_on_c, 3, 52, 90
5, 412320, Note_on_c, 3, 59, 90
5, 412464, Note_on_c, 3, 59, 0
5, 412464, Note_on_c, 3, 52, 0
5, 412560, Note_on_c, 3, 56, 90
5, 412560, Note_on_c, 3, 52, 90
5, 412704, Note_on_c, 3, 52, 0
5, 412704, Note_on_c, 3, 56, 0
5, 412800, Note_on_c, 3, 54, 90
5, 412800, Note_on_c, 3, 57, 90
5, 412944, Note_on_c, 3, 57, 0
5, 412944, Note_on_c, 3, 54, 0
5, 413040, Note_on_c, 3, 57, 90
5, 413040, Note_on_c, 3, 54, 90
5, 413184, Note_on_c, 3, 54, 0
5, 413184, Note_on_c, 3, 57, 0
5, 413280, Note_on_c, 3, 50, 90
5, 413280, Note_on_c, 3, 62, 90
5, 413424, Note_on_c, 3, 62, 0
5, 413424, Note_on_c, 3, 50, 0
5, 413520, Note_on_c, 3, 50, 90
5, 413520, Note_on_c, 3, 62, 90
5, 413664, Note_on_c, 3, 62, 0
5, 413664, Note_on_c, 3, 50, 0
5, 413760, Note_on_c, 3, 52, 90
5, 413760, Note_on_c, 3, 61, 90
5, 413904, Note_on_c, 3, 61, 0
5, 413904, Note_on_c, 3, 52, 0
5, 414000, Note_on_c, 3, 61, 90
5, 414000, Note_on_c, 3, 52, 90
5, 414144, Note_on_c, 3, 52, 0
5, 414144, Note_on_c, 3, 61, 0
5, 414240, Note_on_c, 3, 52, 90
5, 414240, Note_on_c, 3, 59, 90
5, 414384, Note_on_c, 3, 59, 0
5, 414384, Note_on_c, 3, 52, 0
5, 414480, Note_on_c, 3, 52, 90
5, 414480, Note_on_c, 3, 59, 90
5, 414624, Note_on_c, 3, 59, 0
5, 414624, Note_on_c, 3, 52, 0
5, 414720, Note_on_c, 3, 57, 105
5, 415104, Note_on_c, 3, 57, 0
5, 423840, Note_on_c, 3, 64, 71
5, 423840, Note_on_c, 3, 61, 71
5, 423840, Note_on_c, 3, 57, 71
5, 424152, Note_on_c, 3, 57, 0
5, 424152, Note_on_c, 3, 61, 0
5, 424152, Note_on_c, 3, 64, 0
5, 424320, Note_on_c, 3, 62, 71
5, 424320, Note_on_c, 3, 64, 71
5, 424320, Note_on_c, 3, 56, 71
5, 425472, Note_on_c, 3, 56, 0
5, 425472, Note_on_c, 3, 64, 0
5, 425472, Note_on_c, 3, 62, 0
5, 427680, Note_on_c, 3, 52, 71
5, 427680, Note_on_c, 3, 56, 71
5, 427680, Note_on_c, 3, 62, 71
5, 427680, Note_on_c, 3, 64, 71
5, 427992, Note_on_c, 3, 64, 0
5, 427992, Note_on_c, 3, 62, 0
5, 427992, Note_on_c, 3, 56, 0
5, 427992, Note_on_c, 3, 52, 0
5, 428160, Note_on_c, 3, 57, 71
5, 428160, Note_on_c, 3, 55, 71
5, 428160, Note_on_c, 3, 64, 71
5, 428160, Note_on_c, 3, 61, 71
5, 429312, Note_on_c, 3, 61, 0
5, 429312, Note_on_c, 3, 64, 0
5, 429312, Note_on_c, 3, 55, 0
5, 429312, Note_on_c, 3, 57, 0
5, 429600, Note_on_c, 3, 64, 71
5, 429600, Note_on_c, 3, 61, 71
5, 429600, Note_on_c, 3, 57, 71
5, 429600, Note_on_c, 3, 55, 71
5, 429984, Note_on_c, 3, 55, 0
5, 429984, Note_on_c, 3, 57, 0
5, 429984, Note_on_c, 3, 61, 0
5, 429984, Note_on_c, 3, 64, 0
5, 430080, Note_on_c, 3, 54, 71
5, 430080, Note_on_c, 3, 57, 71
5, 430080, Note_on_c, 3, 62, 71
5, 430080, Note_on_c, 3, 66, 71
5, 431232, Note_on_c, 3, 66, 0
5, 431232, Note_on_c, 3, 62, 0
5, 431232, Note_on_c, 3, 57, 0
5, 431232, Note_on_c, 3, 54, 0
5, 431520, Note_on_c, 3, 54, 71
5, 431520, Note_on_c, 3, 57, 71
5, 431520, Note_on_c, 3, 62, 71
5, 431904, Note_on_c, 3, 62, 0
5, 431904, Note_on_c, 3, 57, 0
5, 431904, Note_on_c, 3, 54, 0
5, 432000, Note_on_c, 3, 56, 62
5, 432000, Note_on_c, 3, 49, 62
5, 432000, Note_on_c, 3, 57, 62
5, 432000, Note_on_c, 3, 52, 62
5, 433152, Note_on_c, 3, 52, 0
5, 433152, Note_on_c, 3, 57, 0
5, 433152, Note_on_c, 3, 49, 0
5, 433152, Note_on_c, 3, 56, 0
5, 433440, Note_on_c, 3, 61, 62
5, 433440, Note_on_c, 3, 69, 62
5, 433824, Note_on_c, 3, 69, 0
5, 433824, Note_on_c, 3, 61, 0
5, 433920, Note_on_c, 3, 62, 71
5, 433920, Note_on_c, 3, 69, 71
5, 434148, Note_on_c, 3, 62, 0
5, 434160, Note_on_c, 3, 61, 71
5, 434304, Note_on_c, 3, 69, 0
5, 434388, Note_on_c, 3, 61, 0
5, 434400, Note_on_c, 3, 62, 71
5, 434628, Note_on_c, 3, 62, 0
5, 434880, Note_on_c, 3, 62, 71
5, 434880, Note_on_c, 3, 69, 71
5, 435108, Note_on_c, 3, 62, 0
5, 435120, Note_on_c, 3, 61, 71
5, 435264, Note_on_c, 3, 69, 0
5, 435348, Note_on_c, 3, 61, 0
5, 435360, Note_on_c, 3, 62, 71
5, 435588, Note_on_c, 3, 62, 0
5, 435840, Note_on_c, 3, 59, 71
5, 435996, Note_on_c, 3, 59, 0
5, 436080, Note_on_c, 3, 62, 71
5, 436236, Note_on_c, 3, 62, 0
5, 436320, Note_on_c, 3, 68, 71
5, 436476, Note_on_c, 3, 68, 0
5, 436560, Note_on_c, 3, 62, 71
5, 436716, Note_on_c, 3, 62, 0
5, 436800, Note_on_c, 3, 59, 71
5, 436956, Note_on_c, 3, 59, 0
5, 437040, Note_on_c, 3, 62, 71
5, 437196, Note_on_c, 3, 62, 0
5, 437280, Note_on_c, 3, 68, 71
5, 437436, Note_on_c, 3, 68, 0
5, 437520, Note_on_c, 3, 62, 71
5, 437676, Note_on_c, 3, 62, 0
5, 437760, Note_on_c, 3, 61, 71
5, 437760, Note_on_c, 3, 68, 71
5, 437988, Note_on_c, 3, 61, 0
5, 438000, Note_on_c, 3, 60, 71
5, 438144, Note_on_c, 3, 68, 0
5, 438228, Note_on_c, 3, 60, 0
5, 438240, Note_on_c, 3, 61, 71
5, 438468, Note_on_c, 3, 61, 0
5, 438720, Note_on_c, 3, 68, 71
5, 438720, Note_on_c, 3, 61, 71
5, 438948, Note_on_c, 3, 61, 0
5, 438960, Note_on_c, 3, 60, 71
5, 439104, Note_on_c, 3, 68, 0
5, 439188, Note_on_c, 3, 60, 0
5, 439200, Note_on_c, 3, 61, 71
5, 439428, Note_on_c, 3, 61, 0
5, 439680, Note_on_c, 3, 57, 71
5, 439872, Note_on_c, 3, 57, 0
5, 439920, Note_on_c, 3, 61, 71
5, 440112, Note_on_c, 3, 61, 0
5, 440160, Note_on_c, 3, 66, 71
5, 440352, Note_on_c, 3, 66, 0
5, 440400, Note_on_c, 3, 61, 71
5, 440592, Note_on_c, 3, 61, 0
5, 440640, Note_on_c, 3, 57, 71
5, 440832, Note_on_c, 3, 57, 0
5, 440880, Note_on_c, 3, 61, 71
5, 441072, Note_on_c, 3, 61, 0
5, 441120, Note_on_c, 3, 66, 71
5, 441312, Note_on_c, 3, 66, 0
5, 441360, Note_on_c, 3, 61, 71
5, 441552, Note_on_c, 3, 61, 0
5, 441600, Note_on_c, 3, 66, 71
5, 441600, Note_on_c, 3, 59, 71
5, 441828, Note_on_c, 3, 59, 0
5, 441840, Note_on_c, 3, 58, 71
5, 441984, Note_on_c, 3, 66, 0
5, 442068, Note_on_c, 3, 58, 0
5, 442080, Note_on_c, 3, 59, 71
5, 442308, Note_on_c, 3, 59, 0
5, 442560, Note_on_c, 3, 66, 71
5, 442560, Note_on_c, 3, 59, 71
5, 442788, Note_on_c, 3, 59, 0
5, 442800, Note_on_c, 3, 58, 71
5, 442944, Note_on_c, 3, 66, 0
5, 443028, Note_on_c, 3, 58, 0
5, 443040, Note_on_c, 3, 59, 71
5, 443268, Note_on_c, 3, 59, 0
5, 443520, Note_on_c, 3, 56, 71
5, 443760, Note_on_c, 3, 56, 0
5, 443760, Note_on_c, 3, 59, 71
5, 444000, Note_on_c, 3, 59, 0
5, 444000, Note_on_c, 3, 64, 71
5, 444240, Note_on_c, 3, 64, 0
5, 444240, Note_on_c, 3, 59, 71
5, 444432, Note_on_c, 3, 59, 0
5, 444480, Note_on_c, 3, 56, 71
5, 444720, Note_on_c, 3, 56, 0
5, 444720, Note_on_c, 3, 59, 71
5, 444960, Note_on_c, 3, 59, 0
5, 444960, Note_on_c, 3, 64, 71
5, 445200, Note_on_c, 3, 64, 0
5, 445200, Note_on_c, 3, 59, 71
5, 445392, Note_on_c, 3, 59, 0
5, 445440, Note_on_c, 3, 57, 71
5, 445680, Note_on_c, 3, 57, 0
5, 445680, Note_on_c, 3, 61, 71
5, 445920, Note_on_c, 3, 61, 0
5, 445920, Note_on_c, 3, 64, 71
5, 446160, Note_on_c, 3, 64, 0
5, 446160, Note_on_c, 3, 61, 71
5, 446352, Note_on_c, 3, 61, 0
5, 446400, Note_on_c, 3, 54, 71
5, 446640, Note_on_c, 3, 54, 0
5, 446640, Note_on_c, 3, 57, 71
5, 446880, Note_on_c, 3, 57, 0
5, 446880, Note_on_c, 3, 61, 71
5, 447120, Note_on_c, 3, 61, 0
5, 447120, Note_on_c, 3, 57, 71
5, 447312, Note_on_c, 3, 57, 0
5, 447360, Note_on_c, 3, 50, 71
5, 447600, Note_on_c, 3, 50, 0
5, 447600, Note_on_c, 3, 54, 71
5, 447840, Note_on_c, 3, 54, 0
5, 447840, Note_on_c, 3, 57, 71
5, 448080, Note_on_c, 3, 57, 0
5, 448080, Note_on_c, 3, 54, 71
5, 448272, Note_on_c, 3, 54, 0
5, 448320, Note_on_c, 3, 50, 71
5, 448560, Note_on_c, 3, 50, 0
5, 448560, Note_on_c, 3, 54, 71
5, 448800, Note_on_c, 3, 54, 0
5, 448800, Note_on_c, 3, 51, 71
5, 449040, Note_on_c, 3, 51, 0
5, 449040, Note_on_c, 3, 54, 71
5, 449232, Note_on_c, 3, 54, 0
5, 449280, Note_on_c, 3, 52, 71
5, 449592, Note_on_c, 3, 52, 0
5, 449760, Note_on_c, 3, 40, 71
5, 450072, Note_on_c, 3, 40, 0
5, 458880, Note_on_c, 3, 56, 71
5, 458976, Note_on_c, 3, 56, 0
5, 459000, Note_on_c, 3, 64, 71
5, 459096, Note_on_c, 3, 64, 0
5, 459120, Note_on_c, 3, 56, 71
5, 459216, Note_on_c, 3, 56, 0
5, 459240, Note_on_c, 3, 64, 71
5, 459336, Note_on_c, 3, 64, 0
5, 459360, Note_on_c, 3, 56, 71
5, 459456, Note_on_c, 3, 56, 0
5, 459480, Note_on_c, 3, 64, 71
5, 459576, Note_on_c, 3, 64, 0
5, 459600, Note_on_c, 3, 56, 71
5, 459696, Note_on_c, 3, 56, 0
5, 459720, Note_on_c, 3, 64, 71
5, 459816, Note_on_c, 3, 64, 0
5, 459840, Note_on_c, 3, 57, 71
5, 459936, Note_on_c, 3, 57, 0
5, 459960, Note_on_c, 3, 64, 71
5, 460056, Note_on_c, 3, 64, 0
5, 460080, Note_on_c, 3, 57, 71
5, 460176, Note_on_c, 3, 57, 0
5, 460200, Note_on_c, 3, 64, 71
5, 460296, Note_on_c, 3, 64, 0
5, 460320, Note_on_c, 3, 57, 71
5, 460416, Note_on_c, 3, 57, 0
5, 460440, Note_on_c, 3, 64, 71
5, 460536, Note_on_c, 3, 64, 0
5, 460560, Note_on_c, 3, 57, 71
5, 460656, Note_on_c, 3, 57, 0
5, 460680, Note_on_c, 3, 64, 71
5, 460776, Note_on_c, 3, 64, 0
5, 460800, Note_on_c, 3, 59, 71
5, 460896, Note_on_c, 3, 59, 0
5, 460920, Note_on_c, 3, 64, 71
5, 461016, Note_on_c, 3, 64, 0
5, 461040, Note_on_c, 3, 59, 71
5, 461136, Note_on_c, 3, 59, 0
5, 461160, Note_on_c, 3, 64, 71
5, 461256, Note_on_c, 3, 64, 0
5, 461280, Note_on_c, 3, 61, 71
5, 461376, Note_on_c, 3, 61, 0
5, 461400, Note_on_c, 3, 64, 71
5, 461496, Note_on_c, 3, 64, 0
5, 461520, Note_on_c, 3, 61, 71
5, 461616, Note_on_c, 3, 61, 0
5, 461640, Note_on_c, 3, 64, 71
5, 461736, Note_on_c, 3, 64, 0
5, 461760, Note_on_c, 3, 62, 71
5, 461856, Note_on_c, 3, 62, 0
5, 461880, Note_on_c, 3, 64, 71
5, 461976, Note_on_c, 3, 64, 0
5, 462000, Note_on_c, 3, 62, 71
5, 462096, Note_on_c, 3, 62, 0
5, 462120, Note_on_c, 3, 64, 71
5, 462216, Note_on_c, 3, 64, 0
5, 462240, Note_on_c, 3, 58, 71
5, 462336, Note_on_c, 3, 58, 0
5, 462360, Note_on_c, 3, 64, 71
5, 462456, Note_on_c, 3, 64, 0
5, 462480, Note_on_c, 3, 58, 71
5, 462576, Note_on_c, 3, 58, 0
5, 462600, Note_on_c, 3, 64, 71
5, 462696, Note_on_c, 3, 64, 0
5, 462720, Note_on_c, 3, 59, 71
5, 462816, Note_on_c, 3, 59, 0
5, 462840, Note_on_c, 3, 64, 71
5, 462936, Note_on_c, 3, 64, 0
5, 462960, Note_on_c, 3, 59, 71
5, 463056, Note_on_c, 3, 59, 0
5, 463080, Note_on_c, 3, 64, 71
5, 463176, Note_on_c, 3, 64, 0
5, 463200, Note_on_c, 3, 61, 71
5, 463296, Note_on_c, 3, 61, 0
5, 463320, Note_on_c, 3, 64, 71
5, 463416, Note_on_c, 3, 64, 0
5, 463440, Note_on_c, 3, 61, 71
5, 463536, Note_on_c, 3, 61, 0
5, 463560, Note_on_c, 3, 64, 71
5, 463656, Note_on_c, 3, 64, 0
5, 463680, Note_on_c, 3, 62, 71
5, 463776, Note_on_c, 3, 62, 0
5, 463800, Note_on_c, 3, 64, 71
5, 463896, Note_on_c, 3, 64, 0
5, 463920, Note_on_c, 3, 62, 71
5, 464016, Note_on_c, 3, 62, 0
5, 464040, Note_on_c, 3, 64, 71
5, 464136, Note_on_c, 3, 64, 0
5, 464160, Note_on_c, 3, 58, 71
5, 464256, Note_on_c, 3, 58, 0
5, 464280, Note_on_c, 3, 64, 71
5, 464376, Note_on_c, 3, 64, 0
5, 464400, Note_on_c, 3, 58, 71
5, 464496, Note_on_c, 3, 58, 0
5, 464520, Note_on_c, 3, 64, 71
5, 464616, Note_on_c, 3, 64, 0
5, 464640, Note_on_c, 3, 59, 71
5, 464736, Note_on_c, 3, 59, 0
5, 464760, Note_on_c, 3, 64, 71
5, 464856, Note_on_c, 3, 64, 0
5, 464880, Note_on_c, 3, 59, 71
5, 464976, Note_on_c, 3, 59, 0
5, 465000, Note_on_c, 3, 64, 71
5, 465096, Note_on_c, 3, 64, 0
5, 465120, Note_on_c, 3, 61, 71
5, 465216, Note_on_c, 3, 61, 0
5, 465240, Note_on_c, 3, 64, 71
5, 465336, Note_on_c, 3, 64, 0
5, 465360, Note_on_c, 3, 61, 71
5, 465456, Note_on_c, 3, 61, 0
5, 465480, Note_on_c, 3, 64, 71
5, 465576, Note_on_c, 3, 64, 0
5, 465600, Note_on_c, 3, 62, 71
5, 465984, Note_on_c, 3, 62, 0
5, 466560, Note_on_c, 3, 45, 71
5, 466800, Note_on_c, 3, 45, 0
5, 466800, Note_on_c, 3, 49, 71
5, 467040, Note_on_c, 3, 49, 0
5, 467040, Note_on_c, 3, 52, 71
5, 467280, Note_on_c, 3, 52, 0
5, 467280, Note_on_c, 3, 57, 71
5, 467520, Note_on_c, 3, 57, 0
5, 467520, Note_on_c, 3, 45, 71
5, 467760, Note_on_c, 3, 45, 0
5, 467760, Note_on_c, 3, 49, 71
5, 468000, Note_on_c, 3, 49, 0
5, 468000, Note_on_c, 3, 52, 71
5, 468240, Note_on_c, 3, 52, 0
5, 468240, Note_on_c, 3, 57, 71
5, 468480, Note_on_c, 3, 57, 0
5, 468480, Note_on_c, 3, 45, 71
5, 468720, Note_on_c, 3, 45, 0
5, 468720, Note_on_c, 3, 50, 71
5, 468960, Note_on_c, 3, 50, 0
5, 468960, Note_on_c, 3, 54, 71
5, 469200, Note_on_c, 3, 54, 0
5, 469200, Note_on_c, 3, 57, 71
5, 469440, Note_on_c, 3, 57, 0
5, 469440, Note_on_c, 3, 45, 71
5, 469680, Note_on_c, 3, 45, 0
5, 469680, Note_on_c, 3, 47, 71
5, 469920, Note_on_c, 3, 47, 0
5, 469920, Note_on_c, 3, 50, 71
5, 470160, Note_on_c, 3, 50, 0
5, 470160, Note_on_c, 3, 56, 71
5, 470400, Note_on_c, 3, 56, 0
5, 470400, Note_on_c, 3, 45, 71
5, 470640, Note_on_c, 3, 45, 0
5, 470640, Note_on_c, 3, 49, 71
5, 470880, Note_on_c, 3, 49, 0
5, 470880, Note_on_c, 3, 52, 71
5, 471120, Note_on_c, 3, 52, 0
5, 471120, Note_on_c, 3, 57, 71
5, 471360, Note_on_c, 3, 57, 0
5, 471360, Note_on_c, 3, 57, 71
5, 471600, Note_on_c, 3, 57, 0
5, 471600, Note_on_c, 3, 61, 71
5, 471840, Note_on_c, 3, 61, 0
5, 471840, Note_on_c, 3, 64, 71
5, 472080, Note_on_c, 3, 64, 0
5, 472080, Note_on_c, 3, 69, 71
5, 472320, Note_on_c, 3, 69, 0
5, 472320, Note_on_c, 3, 57, 71
5, 472560, Note_on_c, 3, 57, 0
5, 472560, Note_on_c, 3, 62, 71
5, 472800, Note_on_c, 3, 62, 0
5, 472800, Note_on_c, 3, 66, 71
5, 473040, Note_on_c, 3, 66, 0
5, 473040, Note_on_c, 3, 69, 71
5, 473280, Note_on_c, 3, 69, 0
5, 473280, Note_on_c, 3, 57, 71
5, 473520, Note_on_c, 3, 57, 0
5, 473520, Note_on_c, 3, 59, 71
5, 473760, Note_on_c, 3, 59, 0
5, 473760, Note_on_c, 3, 62, 71
5, 474000, Note_on_c, 3, 62, 0
5, 474000, Note_on_c, 3, 68, 71
5, 474192, Note_on_c, 3, 68, 0
5, 474240, Note_on_c, 3, 57, 71
5, 474480, Note_on_c, 3, 57, 0
5, 474480, Note_on_c, 3, 61, 71
5, 474720, Note_on_c, 3, 61, 0
5, 474720, Note_on_c, 3, 64, 71
5, 474960, Note_on_c, 3, 64, 0
5, 474960, Note_on_c, 3, 69, 71
5, 475200, Note_on_c, 3, 69, 0
5, 475200, Note_on_c, 3, 57, 62
5, 475584, Note_on_c, 3, 57, 0
5, 476160, Note_on_c, 3, 58, 62
5, 476160, Note_on_c, 3, 64, 62
5, 476160, Note_on_c, 3, 61, 62
5, 477100, Note_on_c, 3, 61, 0
5, 477100, Note_on_c, 3, 64, 0
5, 477100, Note_on_c, 3, 58, 0
5, 477120, Note_on_c, 3, 62, 62
5, 477120, Note_on_c, 3, 59, 62
5, 478060, Note_on_c, 3, 59, 0
5, 478060, Note_on_c, 3, 62, 0
5, 478080, Note_on_c, 3, 56, 62
5, 478080, Note_on_c, 3, 62, 62
5, 478080, Note_on_c, 3, 59, 62
5, 479020, Note_on_c, 3, 59, 0
5, 479020, Note_on_c, 3, 62, 0
5, 479020, Note_on_c, 3, 56, 0
5, 479040, Note_on_c, 3, 61, 62
5, 479040, Note_on_c, 3, 57, 62
5, 479980, Note_on_c, 3, 57, 0
5, 479980, Note_on_c, 3, 61, 0
5, 480000, Note_on_c, 3, 54, 62
5, 480000, Note_on_c, 3, 61, 62
5, 480000, Note_on_c, 3, 57, 62
5, 480940, Note_on_c, 3, 57, 0
5, 480940, Note_on_c, 3, 61, 0
5, 480940, Note_on_c, 3, 54, 0
5, 480960, Note_on_c, 3, 59, 62
5, 480960, Note_on_c, 3, 56, 62
5, 481900, Note_on_c, 3, 56, 0
5, 481900, Note_on_c, 3, 59, 0
5, 481920, Note_on_c, 3, 57, 62
5, 482304, Note_on_c, 3, 57, 0
5, 485760, Note_on_c, 3, 52, 62
5, 485760, Note_on_c, 3, 57, 62
5, 485760, Note_on_c, 3, 61, 62
5, 486528, Note_on_c, 3, 61, 0
5, 486528, Note_on_c, 3, 57, 0
5, 486720, Note_on_c, 3, 62, 62
5, 486720, Note_on_c, 3, 59, 62
5, 487296, Note_on_c, 3, 52, 0
5, 487488, Note_on_c, 3, 59, 0
5, 487488, Note_on_c, 3, 62, 0
5, 487680, Note_on_c, 3, 57, 62
5, 487680, Note_on_c, 3, 61, 62
5, 488160, Note_on_c, 3, 61, 0
5, 488160, Note_on_c, 3, 57, 0
5, 497280, Note_on_c, 3, 45, 71
5, 497472, Note_on_c, 3, 45, 0
5, 497520, Note_on_c, 3, 52, 71
5, 497712, Note_on_c, 3, 52, 0
5, 497760, Note_on_c, 3, 49, 71
5, 497952, Note_on_c, 3, 49, 0
5, 498000, Note_on_c, 3, 52, 71
5, 498192, Note_on_c, 3, 52, 0
5, 498240, Note_on_c, 3, 45, 71
5, 498432, Note_on_c, 3, 45, 0
5, 498480, Note_on_c, 3, 52, 71
5, 498672, Note_on_c, 3, 52, 0
5, 498720, Note_on_c, 3, 50, 71
5, 498912, Note_on_c, 3, 50, 0
5, 498960, Note_on_c, 3, 52, 71
5, 499152, Note_on_c, 3, 52, 0
5, 499200, Note_on_c, 3, 43, 71
5, 499392, Note_on_c, 3, 43, 0
5, 499440, Note_on_c, 3, 52, 71
5, 499632, Note_on_c, 3, 52, 0
5, 499680, Note_on_c, 3, 45, 71
5, 499872, Note_on_c, 3, 45, 0
5, 499920, Note_on_c, 3, 52, 71
5, 500112, Note_on_c, 3, 52, 0
5, 500160, Note_on_c, 3, 42, 71
5, 500352, Note_on_c, 3, 42, 0
5, 500400, Note_on_c, 3, 50, 71
5, 500592, Note_on_c, 3, 50, 0
5, 500640, Note_on_c, 3, 45, 71
5, 500832, Note_on_c, 3, 45, 0
5, 500880, Note_on_c, 3, 50, 71
5, 501072, Note_on_c, 3, 50, 0
5, 501120, Note_on_c, 3, 49, 71
5, 501312, Note_on_c, 3, 49, 0
5, 501360, Note_on_c, 3, 57, 71
5, 501552, Note_on_c, 3, 57, 0
5, 501600, Note_on_c, 3, 52, 71
5, 501792, Note_on_c, 3, 52, 0
5, 501840, Note_on_c, 3, 57, 71
5, 502032, Note_on_c, 3, 57, 0
5, 502080, Note_on_c, 3, 50, 71
5, 502080, Note_on_c, 3, 54, 71
5, 502272, Note_on_c, 3, 54, 0
5, 502320, Note_on_c, 3, 57, 71
5, 502464, Note_on_c, 3, 50, 0
5, 502512, Note_on_c, 3, 57, 0
5, 502560, Note_on_c, 3, 50, 71
5, 502560, Note_on_c, 3, 52, 71
5, 502752, Note_on_c, 3, 52, 0
5, 502800, Note_on_c, 3, 57, 71
5, 502944, Note_on_c, 3, 50, 0
5, 502992, Note_on_c, 3, 57, 0
5, 503040, Note_on_c, 3, 57, 58
5, 503040, Note_on_c, 3, 52, 58
5, 503040, Note_on_c, 3, 49, 58
5, 503424, Note_on_c, 3, 49, 0
5, 503424, Note_on_c, 3, 52, 0
5, 503424, Note_on_c, 3, 57, 0
5, 504480, Note_on_c, 3, 50, 62
5, 504480, Note_on_c, 3, 59, 62
5, 504480, Note_on_c, 3, 53, 62
5, 504960, Note_on_c, 3, 53, 0
5, 504960, Note_on_c, 3, 59, 0
5, 504960, Note_on_c, 3, 50, 0
5, 504960, Note_on_c, 3, 57, 58
5, 504960, Note_on_c, 3, 52, 58
5, 504960, Note_on_c, 3, 49, 58
5, 505344, Note_on_c, 3, 49, 0
5, 505344, Note_on_c, 3, 52, 0
5, 505344, Note_on_c, 3, 57, 0
5, 506400, Note_on_c, 3, 53, 62
5, 506400, Note_on_c, 3, 50, 62
5, 506400, Note_on_c, 3, 59, 62
5, 506880, Note_on_c, 3, 59, 0
5, 506880, Note_on_c, 3, 50, 0
5, 506880, Note_on_c, 3, 53, 0
5, 506880, Note_on_c, 3, 52, 58
5, 506880, Note_on_c, 3, 57, 58
5, 506880, Note_on_c, 3, 49, 58
5, 507264, Note_on_c, 3, 49, 0
5, 507264, Note_on_c, 3, 57, 0
5, 507264, Note_on_c, 3, 52, 0
5, 507600, Note_on_c, 3, 62, 62
5, 507600, Note_on_c, 3, 65, 62
5, 507840, Note_on_c, 3, 65, 0
5, 507840, Note_on_c, 3, 62, 0
5, 507840, Note_on_c, 3, 64, 62
5, 507840, Note_on_c, 3, 61, 62
5, 508320, Note_on_c, 3, 61, 0
5, 508320, Note_on_c, 3, 64, 0
5, 508560, Note_on_c, 3, 62, 62
5, 508560, Note_on_c, 3, 65, 62
5, 508800, Note_on_c, 3, 65, 0
5, 508800, Note_on_c, 3, 62, 0
5, 508800, Note_on_c, 3, 61, 62
5, 508800, Note_on_c, 3, 64, 62
5, 509280, Note_on_c, 3, 64, 0
5, 509280, Note_on_c, 3, 61, 0
5, 509520, Note_on_c, 3, 62, 62
5, 509520, Note_on_c, 3, 65, 62
5, 509760, Note_on_c, 3, 65, 0
5, 509760, Note_on_c, 3, 62, 0
5, 509760, Note_on_c, 3, 61, 62
5, 509760, Note_on_c, 3, 64, 62
5, 510000, Note_on_c, 3, 64, 0
5, 510000, Note_on_c, 3, 61, 0
5, 510000, Note_on_c, 3, 62, 62
5, 510000, Note_on_c, 3, 65, 62
5, 510240, Note_on_c, 3, 65, 0
5, 510240, Note_on_c, 3, 62, 0
5, 510240, Note_on_c, 3, 64, 62
5, 510240, Note_on_c, 3, 61, 62
5, 510480, Note_on_c, 3, 61, 0
5, 510480, Note_on_c, 3, 64, 0
5, 510480, Note_on_c, 3, 62, 62
5, 510480, Note_on_c, 3, 65, 62
5, 510720, Note_on_c, 3, 65, 0
5, 510720, Note_on_c, 3, 62, 0
5, 510720, Note_on_c, 3, 61, 71
5, 510720, Note_on_c, 3, 64, 71
5, 511104, Note_on_c, 3, 64, 0
5, 511104, Note_on_c, 3, 61, 0
5, 511200, Note_on_c, 3, 62, 71
5, 511200, Note_on_c, 3, 64, 71
5, 511584, Note_on_c, 3, 62, 0
5, 511680, Note_on_c, 3, 61, 71
5, 511968, Note_on_c, 3, 64, 0
5, 512064, Note_on_c, 3, 61, 0
5, 512160, Note_on_c, 3, 64, 71
5, 512160, Note_on_c, 3, 62, 71
5, 512544, Note_on_c, 3, 62, 0
5, 512640, Note_on_c, 3, 61, 80
5, 513024, Note_on_c, 3, 61, 0
5, 513024, Note_on_c, 3, 64, 0
5, 513120, Note_on_c, 3, 64, 80
5, 513120, Note_on_c, 3, 62, 80
5, 513504, Note_on_c, 3, 62, 0
5, 513600, Note_on_c, 3, 61, 80
5, 513888, Note_on_c, 3, 64, 0
5, 513984, Note_on_c, 3, 61, 0
5, 514080, Note_on_c, 3, 64, 80
5, 514080, Note_on_c, 3, 62, 80
5, 514464, Note_on_c, 3, 62, 0
5, 514560, Note_on_c, 3, 61, 80
5, 514752, Note_on_c, 3, 61, 0
5, 514752, Note_on_c, 3, 64, 0
5, 514800, Note_on_c, 3, 61, 80
5, 514800, Note_on_c, 3, 64, 80
5, 514992, Note_on_c, 3, 64, 0
5, 514992, Note_on_c, 3, 61, 0
5, 515040, Note_on_c, 3, 62, 80
5, 515040, Note_on_c, 3, 64, 80
5, 515232, Note_on_c, 3, 64, 0
5, 515232, Note_on_c, 3, 62, 0
5, 515280, Note_on_c, 3, 64, 80
5, 515280, Note_on_c, 3, 62, 80
5, 515472, Note_on_c, 3, 62, 0
5, 515472, Note_on_c, 3, 64, 0
5, 515520, Note_on_c, 3, 61, 80
5, 515520, Note_on_c, 3, 64, 80
5, 515712, Note_on_c, 3, 64, 0
5, 515712, Note_on_c, 3, 61, 0
5, 515760, Note_on_c, 3, 61, 80
5, 515760, Note_on_c, 3, 64, 80
5, 515952, Note_on_c, 3, 64, 0
5, 515952, Note_on_c, 3, 61, 0
5, 516000, Note_on_c, 3, 62, 80
5, 516000, Note_on_c, 3, 64, 80
5, 516192, Note_on_c, 3, 64, 0
5, 516192, Note_on_c, 3, 62, 0
5, 516240, Note_on_c, 3, 64, 80
5, 516240, Note_on_c, 3, 62, 80
5, 516432, Note_on_c, 3, 62, 0
5, 516432, Note_on_c, 3, 64, 0
5, 516480, Note_on_c, 3, 61, 80
5, 516480, Note_on_c, 3, 64, 80
5, 516864, Note_on_c, 3, 64, 0
5, 516864, Note_on_c, 3, 61, 0
5, 518400, Note_on_c, 3, 57, 80
5, 518400, Note_on_c, 3, 62, 80
5, 518400, Note_on_c, 3, 54, 80
5, 518784, Note_on_c, 3, 54, 0
5, 518784, Note_on_c, 3, 62, 0
5, 518784, Note_on_c, 3, 57, 0
5, 520320, Note_on_c, 3, 52, 71
5, 520416, Note_on_c, 3, 52, 0
5, 520440, Note_on_c, 3, 61, 71
5, 520536, Note_on_c, 3, 61, 0
5, 520560, Note_on_c, 3, 57, 71
5, 520656, Note_on_c, 3, 57, 0
5, 520680, Note_on_c, 3, 61, 71
5, 520776, Note_on_c, 3, 61, 0
5, 520800, Note_on_c, 3, 52, 71
5, 520896, Note_on_c, 3, 52, 0
5, 520920, Note_on_c, 3, 61, 71
5, 521016, Note_on_c, 3, 61, 0
5, 521040, Note_on_c, 3, 57, 71
5, 521136, Note_on_c, 3, 57, 0
5, 521160, Note_on_c, 3, 61, 71
5, 521256, Note_on_c, 3, 61, 0
5, 521280, Note_on_c, 3, 52, 71
5, 521376, Note_on_c, 3, 52, 0
5, 521400, Note_on_c, 3, 62, 71
5, 521496, Note_on_c, 3, 62, 0
5, 521520, Note_on_c, 3, 56, 71
5, 521616, Note_on_c, 3, 56, 0
5, 521640, Note_on_c, 3, 62, 71
5, 521736, Note_on_c, 3, 62, 0
5, 521760, Note_on_c, 3, 52, 71
5, 521856, Note_on_c, 3, 52, 0
5, 521880, Note_on_c, 3, 62, 71
5, 521976, Note_on_c, 3, 62, 0
5, 522000, Note_on_c, 3, 56, 71
5, 522096, Note_on_c, 3, 56, 0
5, 522120, Note_on_c, 3, 62, 71
5, 522216, Note_on_c, 3, 62, 0
5, 522240, Note_on_c, 3, 57, 71
5, 522432, Note_on_c, 3, 57, 0
5, 522720, Note_on_c, 3, 62, 71
5, 522720, Note_on_c, 3, 64, 71
5, 523104, Note_on_c, 3, 62, 0
5, 523200, Note_on_c, 3, 61, 72
5, 523488, Note_on_c, 3, 64, 0
5, 523584, Note_on_c, 3, 61, 0
5, 523680, Note_on_c, 3, 64, 73
5, 523680, Note_on_c, 3, 62, 73
5, 524064, Note_on_c, 3, 62, 0
5, 524160, Note_on_c, 3, 61, 74
5, 524544, Note_on_c, 3, 61, 0
5, 524544, Note_on_c, 3, 64, 0
5, 524640, Note_on_c, 3, 64, 75
5, 524640, Note_on_c, 3, 62, 75
5, 525024, Note_on_c, 3, 62, 0
5, 525120, Note_on_c, 3, 61, 76
5, 525408, Note_on_c, 3, 64, 0
5, 525504, Note_on_c, 3, 61, 0
5, 525600, Note_on_c, 3, 62, 77
5, 525600, Note_on_c, 3, 64, 77
5, 525984, Note_on_c, 3, 62, 0
5, 526080, Note_on_c, 3, 61, 80
5, 526272, Note_on_c, 3, 61, 0
5, 526272, Note_on_c, 3, 64, 0
5, 526320, Note_on_c, 3, 61, 80
5, 526320, Note_on_c, 3, 64, 80
5, 526512, Note_on_c, 3, 64, 0
5, 526512, Note_on_c, 3, 61, 0
5, 526560, Note_on_c, 3, 62, 80
5, 526560, Note_on_c, 3, 64, 80
5, 526752, Note_on_c, 3, 64, 0
5, 526752, Note_on_c, 3, 62, 0
5, 526800, Note_on_c, 3, 64, 80
5, 526800, Note_on_c, 3, 62, 80
5, 526992, Note_on_c, 3, 62, 0
5, 526992, Note_on_c, 3, 64, 0
5, 527040, Note_on_c, 3, 61, 80
5, 527040, Note_on_c, 3, 64, 80
5, 527232, Note_on_c, 3, 64, 0
5, 527232, Note_on_c, 3, 61, 0
5, 527280, Note_on_c, 3, 64, 80
5, 527280, Note_on_c, 3, 61, 80
5, 527472, Note_on_c, 3, 61, 0
5, 527472, Note_on_c, 3, 64, 0
5, 527520, Note_on_c, 3, 64, 80
5, 527520, Note_on_c, 3, 62, 80
5, 527712, Note_on_c, 3, 62, 0
5, 527712, Note_on_c, 3, 64, 0
5, 527760, Note_on_c, 3, 62, 80
5, 527760, Note_on_c, 3, 64, 80
5, 527952, Note_on_c, 3, 64, 0
5, 527952, Note_on_c, 3, 62, 0
5, 528000, Note_on_c, 3, 64, 71
5, 528000, Note_on_c, 3, 61, 71
5, 528384, Note_on_c, 3, 61, 0
5, 528384, Note_on_c, 3, 64, 0
5, 529920, Note_on_c, 3, 49, 80
5, 530016, Note_on_c, 3, 49, 0
5, 530040, Note_on_c, 3, 57, 80
5, 530136, Note_on_c, 3, 57, 0
5, 530160, Note_on_c, 3, 52, 80
5, 530256, Note_on_c, 3, 52, 0
5, 530280, Note_on_c, 3, 57, 80
5, 530376, Note_on_c, 3, 57, 0
5, 530400, Note_on_c, 3, 49, 80
5, 530496, Note_on_c, 3, 49, 0
5, 530520, Note_on_c, 3, 57, 80
5, 530616, Note_on_c, 3, 57, 0
5, 530640, Note_on_c, 3, 52, 80
5, 530736, Note_on_c, 3, 52, 0
5, 530760, Note_on_c, 3, 57, 80
5, 530856, Note_on_c, 3, 57, 0
5, 530880, Note_on_c, 3, 52, 80
5, 530976, Note_on_c, 3, 52, 0
5, 531000, Note_on_c, 3, 57, 80
5, 531096, Note_on_c, 3, 57, 0
5, 531120, Note_on_c, 3, 55, 80
5, 531216, Note_on_c, 3, 55, 0
5, 531240, Note_on_c, 3, 57, 80
5, 531336, Note_on_c, 3, 57, 0
5, 531360, Note_on_c, 3, 52, 80
5, 531456, Note_on_c, 3, 52, 0
5, 531480, Note_on_c, 3, 57, 80
5, 531576, Note_on_c, 3, 57, 0
5, 531600, Note_on_c, 3, 55, 80
5, 531696, Note_on_c, 3, 55, 0
5, 531720, Note_on_c, 3, 57, 80
5, 531816, Note_on_c, 3, 57, 0
5, 531840, Note_on_c, 3, 54, 80
5, 531840, Note_on_c, 3, 50, 80
5, 531840, Note_on_c, 3, 57, 80
5, 532224, Note_on_c, 3, 57, 0
5, 532224, Note_on_c, 3, 50, 0
5, 532224, Note_on_c, 3, 54, 0
5, 533760, Note_on_c, 3, 53, 80
5, 533856, Note_on_c, 3, 53, 0
5, 533880, Note_on_c, 3, 63, 80
5, 533976, Note_on_c, 3, 63, 0
5, 534000, Note_on_c, 3, 57, 80
5, 534096, Note_on_c, 3, 57, 0
5, 534120, Note_on_c, 3, 63, 80
5, 534216, Note_on_c, 3, 63, 0
5, 534240, Note_on_c, 3, 53, 80
5, 534336, Note_on_c, 3, 53, 0
5, 534360, Note_on_c, 3, 63, 80
5, 534456, Note_on_c, 3, 63, 0
5, 534480, Note_on_c, 3, 57, 80
5, 534576, Note_on_c, 3, 57, 0
5, 534600, Note_on_c, 3, 63, 80
5, 534696, Note_on_c, 3, 63, 0
5, 534720, Note_on_c, 3, 53, 80
5, 534816, Note_on_c, 3, 53, 0
5, 534840, Note_on_c, 3, 60, 80
5, 534936, Note_on_c, 3, 60, 0
5, 534960, Note_on_c, 3, 57, 80
5, 535056, Note_on_c, 3, 57, 0
5, 535080, Note_on_c, 3, 60, 80
5, 535176, Note_on_c, 3, 60, 0
5, 535200, Note_on_c, 3, 53, 80
5, 535296, Note_on_c, 3, 53, 0
5, 535320, Note_on_c, 3, 60, 80
5, 535416, Note_on_c, 3, 60, 0
5, 535440, Note_on_c, 3, 57, 80
5, 535536, Note_on_c, 3, 57, 0
5, 535560, Note_on_c, 3, 60, 80
5, 535656, Note_on_c, 3, 60, 0
5, 535680, Note_on_c, 3, 52, 80
5, 535776, Note_on_c, 3, 52, 0
5, 535800, Note_on_c, 3, 61, 80
5, 535896, Note_on_c, 3, 61, 0
5, 535920, Note_on_c, 3, 57, 80
5, 536016, Note_on_c, 3, 57, 0
5, 536040, Note_on_c, 3, 61, 80
5, 536136, Note_on_c, 3, 61, 0
5, 536160, Note_on_c, 3, 52, 80
5, 536256, Note_on_c, 3, 52, 0
5, 536280, Note_on_c, 3, 61, 80
5, 536376, Note_on_c, 3, 61, 0
5, 536400, Note_on_c, 3, 57, 80
5, 536496, Note_on_c, 3, 57, 0
5, 536520, Note_on_c, 3, 61, 80
5, 536616, Note_on_c, 3, 61, 0
5, 536640, Note_on_c, 3, 52, 80
5, 537024, Note_on_c, 3, 52, 0
5, 537600, Note_on_c, 3, 52, 80
5, 537600, Note_on_c, 3, 57, 80
5, 537600, Note_on_c, 3, 61, 80
5, 537984, Note_on_c, 3, 61, 0
5, 537984, Note_on_c, 3, 57, 0
5, 537984, Note_on_c, 3, 52, 0
5, 538560, Note_on_c, 3, 52, 80
5, 538560, Note_on_c, 3, 61, 80
5, 538560, Note_on_c, 3, 57, 80
5, 538944, Note_on_c, 3, 57, 0
5, 538944, Note_on_c, 3, 61, 0
5, 538944, Note_on_c, 3, 52, 0
5, 539520, Note_on_c, 3, 52, 80
5, 539520, Note_on_c, 3, 57, 80
5, 539520, Note_on_c, 3, 61, 80
5, 539904, Note_on_c, 3, 61, 0
5, 539904, Note_on_c, 3, 57, 0
5, 539904, Note_on_c, 3, 52, 0
5, 541680, Note_on_c, 3, 69, 90
5, 541776, Note_on_c, 3, 69, 0
5, 541800, Note_on_c, 3, 64, 90
5, 541896, Note_on_c, 3, 64, 0
5, 541920, Note_on_c, 3, 61, 90
5, 542112, Note_on_c, 3, 61, 0
5, 542160, Note_on_c, 3, 64, 90
5, 542256, Note_on_c, 3, 64, 0
5, 542280, Note_on_c, 3, 61, 90
5, 542376, Note_on_c, 3, 61, 0
5, 542400, Note_on_c, 3, 57, 90
5, 542592, Note_on_c, 3, 57, 0
5, 542640, Note_on_c, 3, 64, 90
5, 542736, Note_on_c, 3, 64, 0
5, 542760, Note_on_c, 3, 61, 90
5, 542856, Note_on_c, 3, 61, 0
5, 542880, Note_on_c, 3, 57, 90
5, 543072, Note_on_c, 3, 57, 0
5, 543120, Note_on_c, 3, 61, 90
5, 543216, Note_on_c, 3, 61, 0
5, 543240, Note_on_c, 3, 57, 90
5, 543336, Note_on_c, 3, 57, 0
5, 543360, Note_on_c, 3, 52, 80
5, 543456, Note_on_c, 3, 52, 0
5, 543480, Note_on_c, 3, 61, 80
5, 543576, Note_on_c, 3, 61, 0
5, 543600, Note_on_c, 3, 57, 80
5, 543696, Note_on_c, 3, 57, 0
5, 543720, Note_on_c, 3, 61, 80
5, 543816, Note_on_c, 3, 61, 0
5, 543840, Note_on_c, 3, 52, 80
5, 543936, Note_on_c, 3, 52, 0
5, 543960, Note_on_c, 3, 61, 80
5, 544056, Note_on_c, 3, 61, 0
5, 544080, Note_on_c, 3, 57, 80
5, 544176, Note_on_c, 3, 57, 0
5, 544200, Note_on_c, 3, 61, 80
5, 544296, Note_on_c, 3, 61, 0
5, 544320, Note_on_c, 3, 52, 80
5, 544416, Note_on_c, 3, 52, 0
5, 544440, Note_on_c, 3, 61, 80
5, 544536, Note_on_c, 3, 61, 0
5, 544560, Note_on_c, 3, 57, 80
5, 544656, Note_on_c, 3, 57, 0
5, 544680, Note_on_c, 3, 61, 80
5, 544776, Note_on_c, 3, 61, 0
5, 544800, Note_on_c, 3, 52, 80
5, 544896, Note_on_c, 3, 52, 0
5, 544920, Note_on_c, 3, 61, 80
5, 545016, Note_on_c, 3, 61, 0
5, 545040, Note_on_c, 3, 57, 80
5, 545136, Note_on_c, 3, 57, 0
5, 545160, Note_on_c, 3, 61, 80
5, 545256, Note_on_c, 3, 61, 0
5, 545280, Note_on_c, 3, 52, 80
5, 545376, Note_on_c, 3, 52, 0
5, 545400, Note_on_c, 3, 62, 80
5, 545496, Note_on_c, 3, 62, 0
5, 545520, Note_on_c, 3, 56, 80
5, 545616, Note_on_c, 3, 56, 0
5, 545640, Note_on_c, 3, 62, 81
5, 545736, Note_on_c, 3, 62, 0
5, 545760, Note_on_c, 3, 52, 81
5, 545856, Note_on_c, 3, 52, 0
5, 545880, Note_on_c, 3, 62, 81
5, 545976, Note_on_c, 3, 62, 0
5, 546000, Note_on_c, 3, 56, 82
5, 546096, Note_on_c, 3, 56, 0
5, 546120, Note_on_c, 3, 62, 82
5, 546216, Note_on_c, 3, 62, 0
5, 546240, Note_on_c, 3, 52, 83
5, 546336, Note_on_c, 3, 52, 0
5, 546360, Note_on_c, 3, 62, 83
5, 546456, Note_on_c, 3, 62, 0
5, 546480, Note_on_c, 3, 56, 83
5, 546576, Note_on_c, 3, 56, 0
5, 546600, Note_on_c, 3, 62, 84
5, 546696, Note_on_c, 3, 62, 0
5, 546720, Note_on_c, 3, 52, 84
5, 546816, Note_on_c, 3, 52, 0
5, 546840, Note_on_c, 3, 62, 85
5, 546936, Note_on_c, 3, 62, 0
5, 546960, Note_on_c, 3, 56, 85
5, 547056, Note_on_c, 3, 56, 0
5, 547080, Note_on_c, 3, 62, 85
5, 547176, Note_on_c, 3, 62, 0
5, 547200, Note_on_c, 3, 61, 80
5, 547200, Note_on_c, 3, 57, 80
5, 547392, Note_on_c, 3, 57, 0
5, 547392, Note_on_c, 3, 61, 0
5, 560640, Note_on_c, 3, 40, 105
5, 560640, Note_on_c, 3, 52, 105
5, 561792, Note_on_c, 3, 52, 0
5, 561792, Note_on_c, 3, 40, 0
5, 565080, Note_on_c, 3, 40, 105
5, 565176, Note_on_c, 3, 40, 0
5, 565200, Note_on_c, 3, 44, 105
5, 565296, Note_on_c, 3, 44, 0
5, 565320, Note_on_c, 3, 47, 105
5, 565416, Note_on_c, 3, 47, 0
5, 565440, Note_on_c, 3, 52, 105
5, 565824, Note_on_c, 3, 52, 0
5, 568920, Note_on_c, 3, 39, 105
5, 569016, Note_on_c, 3, 39, 0
5, 569040, Note_on_c, 3, 42, 105
5, 569136, Note_on_c, 3, 42, 0
5, 569160, Note_on_c, 3, 45, 105
5, 569256, Note_on_c, 3, 45, 0
5, 569280, Note_on_c, 3, 51, 105
5, 569664, Note_on_c, 3, 51, 0
5, 572760, Note_on_c, 3, 50, 105
5, 572856, Note_on_c, 3, 50, 0
5, 572880, Note_on_c, 3, 52, 105
5, 572976, Note_on_c, 3, 52, 0
5, 573000, Note_on_c, 3, 56, 105
5, 573096, Note_on_c, 3, 56, 0
5, 573120, Note_on_c, 3, 59, 105
5, 573216, Note_on_c, 3, 59, 0
5, 573720, Note_on_c, 3, 49, 105
5, 573816, Note_on_c, 3, 49, 0
5, 573840, Note_on_c, 3, 52, 105
5, 573936, Note_on_c, 3, 52, 0
5, 573960, Note_on_c, 3, 56, 105
5, 574056, Note_on_c, 3, 56, 0
5, 574080, Note_on_c, 3, 57, 105
5, 574176, Note_on_c, 3, 57, 0
5, 574680, Note_on_c, 3, 47, 105
5, 574776, Note_on_c, 3, 47, 0
5, 574800, Note_on_c, 3, 52, 105
5, 574896, Note_on_c, 3, 52, 0
5, 574920, Note_on_c, 3, 56, 105
5, 575016, Note_on_c, 3, 56, 0
5, 575040, Note_on_c, 3, 59, 105
5, 575136, Note_on_c, 3, 59, 0
5, 575640, Note_on_c, 3, 45, 105
5, 575736, Note_on_c, 3, 45, 0
5, 575760, Note_on_c, 3, 49, 105
5, 575856, Note_on_c, 3, 49, 0
5, 575880, Note_on_c, 3, 52, 105
5, 575976, Note_on_c, 3, 52, 0
5, 576000, Note_on_c, 3, 57, 105
5, 576096, Note_on_c, 3, 57, 0
5, 576480, Note_on_c, 3, 56, 105
5, 576480, Note_on_c, 3, 59, 105
5, 577056, Note_on_c, 3, 59, 0
5, 577056, Note_on_c, 3, 56, 0
5, 577200, Note_on_c, 3, 54, 105
5, 577200, Note_on_c, 3, 57, 105
5, 577392, Note_on_c, 3, 57, 0
5, 577392, Note_on_c, 3, 54, 0
5, 577440, Note_on_c, 3, 52, 105
5, 577440, Note_on_c, 3, 56, 105
5, 577824, Note_on_c, 3, 56, 0
5, 577824, Note_on_c, 3, 52, 0
5, 578400, Note_on_c, 3, 52, 105
5, 578400, Note_on_c, 3, 59, 105
5, 578400, Note_on_c, 3, 56, 105
5, 578784, Note_on_c, 3, 56, 0
5, 578784, Note_on_c, 3, 59, 0
5, 578784, Note_on_c, 3, 52, 0
5, 579360, Note_on_c, 3, 52, 105
5, 579360, Note_on_c, 3, 59, 105
5, 579360, Note_on_c, 3, 62, 105
5, 579360, Note_on_c, 3, 56, 105
5, 579744, Note_on_c, 3, 56, 0
5, 579744, Note_on_c, 3, 62, 0
5, 579744, Note_on_c, 3, 59, 0
5, 579744, Note_on_c, 3, 52, 0
5, 580320, Note_on_c, 3, 64, 90
5, 580320, Note_on_c, 3, 68, 90
5, 582624, Note_on_c, 3, 68, 0
5, 582624, Note_on_c, 3, 64, 0
5, 584160, Note_on_c, 3, 57, 71
5, 584400, Note_on_c, 3, 57, 0
5, 584400, Note_on_c, 3, 64, 71
5, 584640, Note_on_c, 3, 64, 0
5, 584640, Note_on_c, 3, 61, 71
5, 584880, Note_on_c, 3, 61, 0
5, 584880, Note_on_c, 3, 64, 71
5, 585120, Note_on_c, 3, 64, 0
5, 585120, Note_on_c, 3, 57, 71
5, 585360, Note_on_c, 3, 57, 0
5, 585360, Note_on_c, 3, 64, 71
5, 585600, Note_on_c, 3, 64, 0
5, 585600, Note_on_c, 3, 61, 71
5, 585840, Note_on_c, 3, 61, 0
5, 585840, Note_on_c, 3, 64, 71
5, 586032, Note_on_c, 3, 64, 0
5, 586080, Note_on_c, 3, 57, 71
5, 586320, Note_on_c, 3, 57, 0
5, 586320, Note_on_c, 3, 62, 71
5, 586560, Note_on_c, 3, 62, 0
5, 586560, Note_on_c, 3, 59, 71
5, 586800, Note_on_c, 3, 59, 0
5, 586800, Note_on_c, 3, 62, 71
5, 587040, Note_on_c, 3, 62, 0
5, 587040, Note_on_c, 3, 57, 71
5, 587280, Note_on_c, 3, 57, 0
5, 587280, Note_on_c, 3, 62, 71
5, 587520, Note_on_c, 3, 62, 0
5, 587520, Note_on_c, 3, 59, 71
5, 587760, Note_on_c, 3, 59, 0
5, 587760, Note_on_c, 3, 62, 71
5, 587952, Note_on_c, 3, 62, 0
5, 588000, Note_on_c, 3, 57, 71
5, 588240, Note_on_c, 3, 57, 0
5, 588240, Note_on_c, 3, 68, 71
5, 588480, Note_on_c, 3, 68, 0
5, 588480, Note_on_c, 3, 62, 71
5, 588720, Note_on_c, 3, 62, 0
5, 588720, Note_on_c, 3, 68, 71
5, 588960, Note_on_c, 3, 68, 0
5, 588960, Note_on_c, 3, 57, 71
5, 589200, Note_on_c, 3, 57, 0
5, 589200, Note_on_c, 3, 68, 71
5, 589440, Note_on_c, 3, 68, 0
5, 589440, Note_on_c, 3, 62, 71
5, 589680, Note_on_c, 3, 62, 0
5, 589680, Note_on_c, 3, 68, 71
5, 589872, Note_on_c, 3, 68, 0
5, 589920, Note_on_c, 3, 57, 71
5, 590160, Note_on_c, 3, 57, 0
5, 590160, Note_on_c, 3, 69, 71
5, 590400, Note_on_c, 3, 69, 0
5, 590400, Note_on_c, 3, 61, 71
5, 590640, Note_on_c, 3, 61, 0
5, 590640, Note_on_c, 3, 69, 71
5, 590880, Note_on_c, 3, 69, 0
5, 590880, Note_on_c, 3, 57, 62
5, 591120, Note_on_c, 3, 57, 0
5, 591120, Note_on_c, 3, 69, 62
5, 591360, Note_on_c, 3, 69, 0
5, 591360, Note_on_c, 3, 61, 62
5, 591600, Note_on_c, 3, 61, 0
5, 591600, Note_on_c, 3, 69, 62
5, 591792, Note_on_c, 3, 69, 0
5, 593760, Note_on_c, 3, 50, 100
5, 593952, Note_on_c, 3, 50, 0
5, 594000, Note_on_c, 3, 52, 96
5, 594096, Note_on_c, 3, 52, 0
5, 594120, Note_on_c, 3, 54, 95
5, 594216, Note_on_c, 3, 54, 0
5, 594240, Note_on_c, 3, 69, 93
5, 594240, Note_on_c, 3, 56, 93
5, 594336, Note_on_c, 3, 56, 0
5, 594360, Note_on_c, 3, 57, 92
5, 594456, Note_on_c, 3, 57, 0
5, 594480, Note_on_c, 3, 59, 90
5, 594576, Note_on_c, 3, 59, 0
5, 594600, Note_on_c, 3, 61, 89
5, 594696, Note_on_c, 3, 61, 0
5, 594720, Note_on_c, 3, 62, 87
5, 594816, Note_on_c, 3, 62, 0
5, 594840, Note_on_c, 3, 61, 86
5, 594936, Note_on_c, 3, 61, 0
5, 594960, Note_on_c, 3, 62, 84
5, 595008, Note_on_c, 3, 69, 0
5, 595056, Note_on_c, 3, 62, 0
5, 595080, Note_on_c, 3, 61, 83
5, 595176, Note_on_c, 3, 61, 0
5, 595200, Note_on_c, 3, 62, 81
5, 595332, Note_on_c, 3, 62, 0
5, 595440, Note_on_c, 3, 61, 78
5, 595572, Note_on_c, 3, 61, 0
5, 595680, Note_on_c, 3, 54, 102
5, 595872, Note_on_c, 3, 54, 0
5, 595920, Note_on_c, 3, 56, 98
5, 596016, Note_on_c, 3, 56, 0
5, 596040, Note_on_c, 3, 57, 97
5, 596136, Note_on_c, 3, 57, 0
5, 596160, Note_on_c, 3, 69, 95
5, 596160, Note_on_c, 3, 59, 95
5, 596256, Note_on_c, 3, 59, 0
5, 596280, Note_on_c, 3, 61, 93
5, 596376, Note_on_c, 3, 61, 0
5, 596400, Note_on_c, 3, 62, 92
5, 596496, Note_on_c, 3, 62, 0
5, 596520, Note_on_c, 3, 64, 90
5, 596616, Note_on_c, 3, 64, 0
5, 596640, Note_on_c, 3, 66, 88
5, 596736, Note_on_c, 3, 66, 0
5, 596760, Note_on_c, 3, 64, 87
5, 596856, Note_on_c, 3, 64, 0
5, 596880, Note_on_c, 3, 66, 85
5, 596928, Note_on_c, 3, 69, 0
5, 596976, Note_on_c, 3, 66, 0
5, 597000, Note_on_c, 3, 64, 83
5, 597096, Note_on_c, 3, 64, 0
5, 597120, Note_on_c, 3, 66, 82
5, 597252, Note_on_c, 3, 66, 0
5, 597360, Note_on_c, 3, 64, 80
5, 597492, Note_on_c, 3, 64, 0
5, 597600, Note_on_c, 3, 62, 79
5, 597984, Note_on_c, 3, 62, 0
5, 599040, Note_on_c, 3, 50, 85
5, 599136, Note_on_c, 3, 50, 0
5, 599160, Note_on_c, 3, 54, 86
5, 599256, Note_on_c, 3, 54, 0
5, 599280, Note_on_c, 3, 59, 86
5, 599376, Note_on_c, 3, 59, 0
5, 599400, Note_on_c, 3, 62, 87
5, 599496, Note_on_c, 3, 62, 0
5, 599520, Note_on_c, 3, 57, 87
5, 599520, Note_on_c, 3, 55, 87
5, 599520, Note_on_c, 3, 52, 87
5, 599904, Note_on_c, 3, 52, 0
5, 599904, Note_on_c, 3, 55, 0
5, 599904, Note_on_c, 3, 57, 0
5, 600960, Note_on_c, 3, 52, 93
5, 601056, Note_on_c, 3, 52, 0
5, 601080, Note_on_c, 3, 55, 93
5, 601176, Note_on_c, 3, 55, 0
5, 601200, Note_on_c, 3, 61, 94
5, 601296, Note_on_c, 3, 61, 0
5, 601320, Note_on_c, 3, 64, 94
5, 601416, Note_on_c, 3, 64, 0
5, 601440, Note_on_c, 3, 54, 95
5, 601440, Note_on_c, 3, 57, 95
5, 601824, Note_on_c, 3, 57, 0
5, 601824, Note_on_c, 3, 54, 0
5, 602880, Note_on_c, 3, 54, 101
5, 602976, Note_on_c, 3, 54, 0
5, 603000, Note_on_c, 3, 57, 101
5, 603096, Note_on_c, 3, 57, 0
5, 603120, Note_on_c, 3, 62, 101
5, 603216, Note_on_c, 3, 62, 0
5, 603240, Note_on_c, 3, 66, 102
5, 603336, Note_on_c, 3, 66, 0
5, 603360, Note_on_c, 3, 53, 102
5, 604128, Note_on_c, 3, 53, 0
5, 604320, Note_on_c, 3, 65, 105
5, 605088, Note_on_c, 3, 65, 0
5, 605280, Note_on_c, 3, 64, 105
5, 605280, Note_on_c, 3, 73, 105
5, 605820, Note_on_c, 3, 73, 0
5, 606000, Note_on_c, 3, 72, 105
5, 606048, Note_on_c, 3, 64, 0
5, 606180, Note_on_c, 3, 72, 0
5, 606240, Note_on_c, 3, 64, 105
5, 606240, Note_on_c, 3, 73, 105
5, 606780, Note_on_c, 3, 73, 0
5, 606960, Note_on_c, 3, 72, 105
5, 607008, Note_on_c, 3, 64, 0
5, 607140, Note_on_c, 3, 72, 0
5, 607200, Note_on_c, 3, 64, 105
5, 607200, Note_on_c, 3, 73, 105
5, 607906, Note_on_c, 3, 73, 0
5, 607920, Note_on_c, 3, 72, 105
5, 608156, Note_on_c, 3, 72, 0
5, 608160, Note_on_c, 3, 73, 105
5, 608396, Note_on_c, 3, 73, 0
5, 608400, Note_on_c, 3, 72, 105
5, 608636, Note_on_c, 3, 72, 0
5, 608640, Note_on_c, 3, 73, 105
5, 608876, Note_on_c, 3, 73, 0
5, 608880, Note_on_c, 3, 70, 105
5, 609072, Note_on_c, 3, 70, 0
5, 609120, Note_on_c, 3, 71, 105
5, 609360, Note_on_c, 3, 71, 0
5, 609360, Note_on_c, 3, 70, 105
5, 609600, Note_on_c, 3, 70, 0
5, 609600, Note_on_c, 3, 71, 105
5, 609840, Note_on_c, 3, 71, 0
5, 609840, Note_on_c, 3, 70, 105
5, 610080, Note_on_c, 3, 70, 0
5, 610080, Note_on_c, 3, 71, 105
5, 610464, Note_on_c, 3, 71, 0
5, 610464, Note_on_c, 3, 64, 0
5, 611760, Note_on_c, 3, 64, 62
5, 611760, Note_on_c, 3, 70, 62
5, 612000, Note_on_c, 3, 70, 0
5, 612000, Note_on_c, 3, 71, 62
5, 612240, Note_on_c, 3, 71, 0
5, 612240, Note_on_c, 3, 70, 62
5, 612480, Note_on_c, 3, 70, 0
5, 612480, Note_on_c, 3, 71, 62
5, 612720, Note_on_c, 3, 71, 0
5, 612720, Note_on_c, 3, 64, 0
5, 612720, Note_on_c, 3, 68, 62
5, 612960, Note_on_c, 3, 68, 0
5, 612960, Note_on_c, 3, 63, 62
5, 612960, Note_on_c, 3, 69, 62
5, 613200, Note_on_c, 3, 69, 0
5, 613200, Note_on_c, 3, 68, 62
5, 613440, Note_on_c, 3, 68, 0
5, 613440, Note_on_c, 3, 69, 62
5, 613680, Note_on_c, 3, 69, 0
5, 613680, Note_on_c, 3, 68, 62
5, 613920, Note_on_c, 3, 68, 0
5, 613920, Note_on_c, 3, 69, 62
5, 614304, Note_on_c, 3, 69, 0
5, 614304, Note_on_c, 3, 63, 0
5, 619920, Note_on_c, 3, 49, 80
5, 620016, Note_on_c, 3, 49, 0
5, 620040, Note_on_c, 3, 57, 80
5, 620136, Note_on_c, 3, 57, 0
5, 620160, Note_on_c, 3, 47, 81
5, 620256, Note_on_c, 3, 47, 0
5, 620280, Note_on_c, 3, 56, 82
5, 620376, Note_on_c, 3, 56, 0
5, 620400, Note_on_c, 3, 50, 82
5, 620496, Note_on_c, 3, 50, 0
5, 620520, Note_on_c, 3, 59, 83
5, 620616, Note_on_c, 3, 59, 0
5, 620640, Note_on_c, 3, 49, 83
5, 620736, Note_on_c, 3, 49, 0
5, 620760, Note_on_c, 3, 57, 84
5, 620856, Note_on_c, 3, 57, 0
5, 620880, Note_on_c, 3, 52, 85
5, 620976, Note_on_c, 3, 52, 0
5, 621000, Note_on_c, 3, 61, 85
5, 621096, Note_on_c, 3, 61, 0
5, 621120, Note_on_c, 3, 54, 86
5, 621216, Note_on_c, 3, 54, 0
5, 621240, Note_on_c, 3, 62, 86
5, 621336, Note_on_c, 3, 62, 0
5, 621360, Note_on_c, 3, 56, 87
5, 621456, Note_on_c, 3, 56, 0
5, 621480, Note_on_c, 3, 59, 88
5, 621576, Note_on_c, 3, 59, 0
5, 621600, Note_on_c, 3, 57, 88
5, 621696, Note_on_c, 3, 57, 0
5, 621720, Note_on_c, 3, 61, 89
5, 621816, Note_on_c, 3, 61, 0
5, 621840, Note_on_c, 3, 61, 89
5, 621936, Note_on_c, 3, 61, 0
5, 621960, Note_on_c, 3, 69, 90
5, 622056, Note_on_c, 3, 69, 0
5, 622080, Note_on_c, 3, 59, 91
5, 622176, Note_on_c, 3, 59, 0
5, 622200, Note_on_c, 3, 68, 91
5, 622296, Note_on_c, 3, 68, 0
5, 622320, Note_on_c, 3, 62, 92
5, 622416, Note_on_c, 3, 62, 0
5, 622440, Note_on_c, 3, 71, 93
5, 622536, Note_on_c, 3, 71, 0
5, 622560, Note_on_c, 3, 61, 93
5, 622656, Note_on_c, 3, 61, 0
5, 622680, Note_on_c, 3, 69, 94
5, 622776, Note_on_c, 3, 69, 0
5, 622800, Note_on_c, 3, 64, 94
5, 622896, Note_on_c, 3, 64, 0
5, 622920, Note_on_c, 3, 73, 95
5, 623016, Note_on_c, 3, 73, 0
5, 623040, Note_on_c, 3, 66, 96
5, 623136, Note_on_c, 3, 66, 0
5, 623160, Note_on_c, 3, 74, 96
5, 623256, Note_on_c, 3, 74, 0
5, 623280, Note_on_c, 3, 68, 97
5, 623376, Note_on_c, 3, 68, 0
5, 623400, Note_on_c, 3, 71, 97
5, 623496, Note_on_c, 3, 71, 0
5, 627360, Note_on_c, 3, 61, 90
5, 627456, Note_on_c, 3, 61, 0
5, 627480, Note_on_c, 3, 64, 90
5, 627576, Note_on_c, 3, 64, 0
5, 627600, Note_on_c, 3, 56, 90
5, 627696, Note_on_c, 3, 56, 0
5, 627720, Note_on_c, 3, 59, 90
5, 627816, Note_on_c, 3, 59, 0
5, 627840, Note_on_c, 3, 57, 90
5, 627936, Note_on_c, 3, 57, 0
5, 627960, Note_on_c, 3, 61, 90
5, 628056, Note_on_c, 3, 61, 0
5, 628080, Note_on_c, 3, 53, 90
5, 628176, Note_on_c, 3, 53, 0
5, 628200, Note_on_c, 3, 56, 90
5, 628296, Note_on_c, 3, 56, 0
5, 628320, Note_on_c, 3, 54, 90
5, 628416, Note_on_c, 3, 54, 0
5, 628440, Note_on_c, 3, 57, 90
5, 628536, Note_on_c, 3, 57, 0
5, 628560, Note_on_c, 3, 49, 90
5, 628656, Note_on_c, 3, 49, 0
5, 628680, Note_on_c, 3, 52, 90
5, 628776, Note_on_c, 3, 52, 0
5, 628800, Note_on_c, 3, 50, 90
5, 628896, Note_on_c, 3, 50, 0
5, 628920, Note_on_c, 3, 54, 90
5, 629016, Note_on_c, 3, 54, 0
5, 629040, Note_on_c, 3, 52, 90
5, 629136, Note_on_c, 3, 52, 0
5, 629160, Note_on_c, 3, 50, 90
5, 629256, Note_on_c, 3, 50, 0
5, 629280, Note_on_c, 3, 49, 80
5, 629664, Note_on_c, 3, 49, 0
5, 630000, Note_on_c, 3, 37, 80
5, 630000, Note_on_c, 3, 49, 80
5, 630156, Note_on_c, 3, 49, 0
5, 630156, Note_on_c, 3, 37, 0
5, 630240, Note_on_c, 3, 50, 80
5, 630240, Note_on_c, 3, 38, 80
5, 630552, Note_on_c, 3, 38, 0
5, 630552, Note_on_c, 3, 50, 0
5, 630960, Note_on_c, 3, 51, 80
5, 630960, Note_on_c, 3, 39, 80
5, 631116, Note_on_c, 3, 39, 0
5, 631116, Note_on_c, 3, 51, 0
5, 631200, Note_on_c, 3, 40, 80
5, 631200, Note_on_c, 3, 52, 80
5, 631968, Note_on_c, 3, 52, 0
5, 631968, Note_on_c, 3, 40, 0
5, 637920, Note_on_c, 3, 68, 116
5, 637920, Note_on_c, 3, 74, 116
5, 637920, Note_on_c, 3, 64, 116
5, 638880, Note_on_c, 3, 64, 0
5, 638880, Note_on_c, 3, 74, 0
5, 638880, Note_on_c, 3, 68, 0
5, 638880, Note_on_c, 3, 69, 105
5, 638880, Note_on_c, 3, 73, 105
5, 639264, Note_on_c, 3, 73, 0
5, 639264, Note_on_c, 3, 69, 0
5, 639264, End_track
6, 0, Start_track
6, 0, Sequencer_specific, 04, 43, 00, 01, 00
6, 0, Program_c, 4, 0
6, 0, Control_c, 4, 7, 124
6, 0, Control_c, 4, 91, 100
6, 147840, Note_on_c, 4, 50, 110
6, 148032, Note_on_c, 4, 50, 0
6, 148080, Note_on_c, 4, 52, 102
6, 148176, Note_on_c, 4, 52, 0
6, 148200, Note_on_c, 4, 54, 99
6, 148296, Note_on_c, 4, 54, 0
6, 148320, Note_on_c, 4, 56, 97
6, 148416, Note_on_c, 4, 56, 0
6, 148440, Note_on_c, 4, 57, 94
6, 148536, Note_on_c, 4, 57, 0
6, 148560, Note_on_c, 4, 59, 92
6, 148656, Note_on_c, 4, 59, 0
6, 148680, Note_on_c, 4, 61, 89
6, 148776, Note_on_c, 4, 61, 0
6, 148800, Note_on_c, 4, 62, 87
6, 148920, Note_on_c, 4, 62, 0
6, 148920, Note_on_c, 4, 61, 85
6, 149040, Note_on_c, 4, 61, 0
6, 149040, Note_on_c, 4, 62, 82
6, 149160, Note_on_c, 4, 62, 0
6, 149160, Note_on_c, 4, 61, 80
6, 149280, Note_on_c, 4, 61, 0
6, 149280, Note_on_c, 4, 62, 77
6, 149424, Note_on_c, 4, 62, 0
6, 149520, Note_on_c, 4, 61, 72
6, 149664, Note_on_c, 4, 61, 0
6, 149760, Note_on_c, 4, 54, 110
6, 149952, Note_on_c, 4, 54, 0
6, 150000, Note_on_c, 4, 56, 108
6, 150096, Note_on_c, 4, 56, 0
6, 150120, Note_on_c, 4, 57, 105
6, 150216, Note_on_c, 4, 57, 0
6, 150240, Note_on_c, 4, 59, 102
6, 150336, Note_on_c, 4, 59, 0
6, 150360, Note_on_c, 4, 61, 100
6, 150456, Note_on_c, 4, 61, 0
6, 150480, Note_on_c, 4, 62, 97
6, 150576, Note_on_c, 4, 62, 0
6, 150600, Note_on_c, 4, 64, 94
6, 150696, Note_on_c, 4, 64, 0
6, 150720, Note_on_c, 4, 66, 91
6, 150840, Note_on_c, 4, 66, 0
6, 150840, Note_on_c, 4, 64, 89
6, 150960, Note_on_c, 4, 64, 0
6, 150960, Note_on_c, 4, 66, 86
6, 151080, Note_on_c, 4, 66, 0
6, 151080, Note_on_c, 4, 64, 83
6, 151200, Note_on_c, 4, 64, 0
6, 151200, Note_on_c, 4, 66, 81
6, 151344, Note_on_c, 4, 66, 0
6, 151440, Note_on_c, 4, 64, 80
6, 151584, Note_on_c, 4, 64, 0
6, 151680, Note_on_c, 4, 62, 80
6, 152064, Note_on_c, 4, 62, 0
6, 152160, Note_on_c, 4, 59, 80
6, 152544, Note_on_c, 4, 59, 0
6, 152640, Note_on_c, 4, 64, 80
6, 153024, Note_on_c, 4, 64, 0
6, 153120, Note_on_c, 4, 52, 80
6, 153504, Note_on_c, 4, 52, 0
6, 153600, Note_on_c, 4, 57, 105
6, 153984, Note_on_c, 4, 57, 0
6, 155040, Note_on_c, 4, 52, 90
6, 155040, Note_on_c, 4, 59, 90
6, 155184, Note_on_c, 4, 59, 0
6, 155184, Note_on_c, 4, 52, 0
6, 155280, Note_on_c, 4, 56, 90
6, 155280, Note_on_c, 4, 52, 90
6, 155424, Note_on_c, 4, 52, 0
6, 155424, Note_on_c, 4, 56, 0
6, 155520, Note_on_c, 4, 54, 90
6, 155520, Note_on_c, 4, 57, 90
6, 155664, Note_on_c, 4, 57, 0
6, 155664, Note_on_c, 4, 54, 0
6, 155760, Note_on_c, 4, 57, 90
6, 155760, Note_on_c, 4, 54, 90
6, 155904, Note_on_c, 4, 54, 0
6, 155904, Note_on_c, 4, 57, 0
6, 156000, Note_on_c, 4, 50, 90
6, 156000, Note_on_c, 4, 62, 90
6, 156144, Note_on_c, 4, 62, 0
6, 156144, Note_on_c, 4, 50, 0
6, 156240, Note_on_c, 4, 62, 90
6, 156240, Note_on_c, 4, 50, 90
6, 156384, Note_on_c, 4, 50, 0
6, 156384, Note_on_c, 4, 62, 0
6, 156480, Note_on_c, 4, 52, 90
6, 156480, Note_on_c, 4, 61, 90
6, 156624, Note_on_c, 4, 61, 0
6, 156624, Note_on_c, 4, 52, 0
6, 156720, Note_on_c, 4, 61, 90
6, 156720, Note_on_c, 4, 52, 90
6, 156864, Note_on_c, 4, 52, 0
6, 156864, Note_on_c, 4, 61, 0
6, 156960, Note_on_c, 4, 59, 90
6, 156960, Note_on_c, 4, 52, 90
6, 157104, Note_on_c, 4, 52, 0
6, 157104, Note_on_c, 4, 59, 0
6, 157200, Note_on_c, 4, 52, 90
6, 157200, Note_on_c, 4, 59, 90
6, 157344, Note_on_c, 4, 59, 0
6, 157344, Note_on_c, 4, 52, 0
6, 157440, Note_on_c, 4, 57, 90
6, 157824, Note_on_c, 4, 57, 0
6, 230880, Note_on_c, 4, 53, 80
6, 231360, Note_on_c, 4, 53, 0
6, 231360, Note_on_c, 4, 54, 80
6, 231624, Note_on_c, 4, 54, 0
6, 232800, Note_on_c, 4, 53, 80
6, 233280, Note_on_c, 4, 53, 0
6, 233280, Note_on_c, 4, 54, 80
6, 233544, Note_on_c, 4, 54, 0
6, 234720, Note_on_c, 4, 53, 80
6, 235200, Note_on_c, 4, 53, 0
6, 235200, Note_on_c, 4, 54, 80
6, 235464, Note_on_c, 4, 54, 0
6, 252360, Note_on_c, 4, 56, 71
6, 252456, Note_on_c, 4, 56, 0
6, 252480, Note_on_c, 4, 52, 71
6, 252864, Note_on_c, 4, 52, 0
6, 253320, Note_on_c, 4, 56, 71
6, 253416, Note_on_c, 4, 56, 0
6, 253440, Note_on_c, 4, 52, 71
6, 253824, Note_on_c, 4, 52, 0
6, 254280, Note_on_c, 4, 56, 71
6, 254376, Note_on_c, 4, 56, 0
6, 254400, Note_on_c, 4, 52, 71
6, 254784, Note_on_c, 4, 52, 0
6, 255360, Note_on_c, 4, 57, 71
6, 255744, Note_on_c, 4, 57, 0
6, 256200, Note_on_c, 4, 61, 71
6, 256296, Note_on_c, 4, 61, 0
6, 256320, Note_on_c, 4, 57, 71
6, 256704, Note_on_c, 4, 57, 0
6, 257160, Note_on_c, 4, 61, 71
6, 257256, Note_on_c, 4, 61, 0
6, 257280, Note_on_c, 4, 57, 71
6, 257664, Note_on_c, 4, 57, 0
6, 258120, Note_on_c, 4, 61, 71
6, 258216, Note_on_c, 4, 61, 0
6, 258240, Note_on_c, 4, 57, 71
6, 258624, Note_on_c, 4, 57, 0
6, 263880, Note_on_c, 4, 56, 71
6, 263976, Note_on_c, 4, 56, 0
6, 264000, Note_on_c, 4, 52, 71
6, 264384, Note_on_c, 4, 52, 0
6, 264840, Note_on_c, 4, 56, 71
6, 264936, Note_on_c, 4, 56, 0
6, 264960, Note_on_c, 4, 52, 71
6, 265344, Note_on_c, 4, 52, 0
6, 266880, Note_on_c, 4, 57, 71
6, 267264, Note_on_c, 4, 57, 0
6, 267720, Note_on_c, 4, 61, 71
6, 267816, Note_on_c, 4, 61, 0
6, 267840, Note_on_c, 4, 57, 71
6, 268224, Note_on_c, 4, 57, 0
6, 268680, Note_on_c, 4, 61, 71
6, 268776, Note_on_c, 4, 61, 0
6, 268800, Note_on_c, 4, 57, 71
6, 269184, Note_on_c, 4, 57, 0
6, 309600, Note_on_c, 4, 56, 62
6, 310080, Note_on_c, 4, 56, 0
6, 310080, Note_on_c, 4, 57, 62
6, 310080, Note_on_c, 4, 54, 62
6, 310320, Note_on_c, 4, 54, 0
6, 310320, Note_on_c, 4, 57, 0
6, 310560, Note_on_c, 4, 56, 62
6, 310560, Note_on_c, 4, 52, 62
6, 310800, Note_on_c, 4, 52, 0
6, 310800, Note_on_c, 4, 56, 0
6, 311040, Note_on_c, 4, 54, 62
6, 311040, Note_on_c, 4, 51, 62
6, 311424, Note_on_c, 4, 51, 0
6, 311424, Note_on_c, 4, 54, 0
6, 313440, Note_on_c, 4, 57, 62
6, 313920, Note_on_c, 4, 57, 0
6, 313920, Note_on_c, 4, 56, 62
6, 314160, Note_on_c, 4, 56, 0
6, 314400, Note_on_c, 4, 54, 62
6, 314400, Note_on_c, 4, 57, 62
6, 314640, Note_on_c, 4, 57, 0
6, 314640, Note_on_c, 4, 54, 0
6, 314880, Note_on_c, 4, 56, 62
6, 314880, Note_on_c, 4, 52, 62
6, 315264, Note_on_c, 4, 52, 0
6, 315264, Note_on_c, 4, 56, 0
6, 345600, Note_on_c, 4, 49, 71
6, 347040, Note_on_c, 4, 49, 0
6, 347040, Note_on_c, 4, 47, 71
6, 347520, Note_on_c, 4, 47, 0
6, 347520, Note_on_c, 4, 45, 71
6, 348000, Note_on_c, 4, 45, 0
6, 348000, Note_on_c, 4, 44, 71
6, 348480, Note_on_c, 4, 44, 0
6, 348480, Note_on_c, 4, 42, 71
6, 348960, Note_on_c, 4, 42, 0
6, 348960, Note_on_c, 4, 45, 71
6, 349430, Note_on_c, 4, 45, 0
6, 349440, Note_on_c, 4, 47, 71
6, 350880, Note_on_c, 4, 47, 0
6, 350880, Note_on_c, 4, 45, 71
6, 351360, Note_on_c, 4, 45, 0
6, 351360, Note_on_c, 4, 44, 71
6, 351840, Note_on_c, 4, 44, 0
6, 351840, Note_on_c, 4, 42, 71
6, 352320, Note_on_c, 4, 42, 0
6, 352320, Note_on_c, 4, 40, 71
6, 352800, Note_on_c, 4, 40, 0
6, 352800, Note_on_c, 4, 44, 71
6, 353270, Note_on_c, 4, 44, 0
6, 353280, Note_on_c, 4, 45, 71
6, 354720, Note_on_c, 4, 45, 0
6, 354720, Note_on_c, 4, 44, 71
6, 355200, Note_on_c, 4, 44, 0
6, 355200, Note_on_c, 4, 42, 71
6, 355680, Note_on_c, 4, 42, 0
6, 355680, Note_on_c, 4, 40, 71
6, 356160, Note_on_c, 4, 40, 0
6, 356160, Note_on_c, 4, 38, 71
6, 356640, Note_on_c, 4, 38, 0
6, 356640, Note_on_c, 4, 42, 71
6, 357096, Note_on_c, 4, 42, 0
6, 357120, Note_on_c, 4, 44, 71
6, 358560, Note_on_c, 4, 44, 0
6, 358560, Note_on_c, 4, 42, 71
6, 359040, Note_on_c, 4, 42, 0
6, 359040, Note_on_c, 4, 41, 71
6, 359520, Note_on_c, 4, 41, 0
6, 359520, Note_on_c, 4, 39, 71
6, 360000, Note_on_c, 4, 39, 0
6, 360000, Note_on_c, 4, 37, 71
6, 360480, Note_on_c, 4, 37, 0
6, 360480, Note_on_c, 4, 41, 71
6, 360936, Note_on_c, 4, 41, 0
6, 360960, Note_on_c, 4, 42, 56
6, 361920, Note_on_c, 4, 42, 0
6, 361920, Note_on_c, 4, 40, 56
6, 362880, Note_on_c, 4, 40, 0
6, 362880, Note_on_c, 4, 39, 58
6, 363840, Note_on_c, 4, 39, 0
6, 363840, Note_on_c, 4, 38, 62
6, 364780, Note_on_c, 4, 38, 0
6, 364800, Note_on_c, 4, 37, 66
6, 365760, Note_on_c, 4, 37, 0
6, 365760, Note_on_c, 4, 35, 72
6, 366700, Note_on_c, 4, 35, 0
6, 366720, Note_on_c, 4, 33, 77
6, 367200, Note_on_c, 4, 33, 0
6, 367200, Note_on_c, 4, 35, 76
6, 367680, Note_on_c, 4, 35, 0
6, 367680, Note_on_c, 4, 37, 71
6, 368160, Note_on_c, 4, 37, 0
6, 368160, Note_on_c, 4, 37, 63
6, 368630, Note_on_c, 4, 37, 0
6, 368640, Note_on_c, 4, 42, 59
6, 369024, Note_on_c, 4, 42, 0
6, 369600, Note_on_c, 4, 40, 66
6, 369984, Note_on_c, 4, 40, 0
6, 370560, Note_on_c, 4, 39, 74
6, 370944, Note_on_c, 4, 39, 0
6, 371520, Note_on_c, 4, 38, 82
6, 371904, Note_on_c, 4, 38, 0
6, 372480, Note_on_c, 4, 37, 90
6, 372864, Note_on_c, 4, 37, 0
6, 373440, Note_on_c, 4, 52, 98
6, 373440, Note_on_c, 4, 47, 98
6, 376320, Note_on_c, 4, 47, 0
6, 376320, Note_on_c, 4, 52, 0
6, 405120, Note_on_c, 4, 50, 108
6, 405312, Note_on_c, 4, 50, 0
6, 405360, Note_on_c, 4, 52, 106
6, 405456, Note_on_c, 4, 52, 0
6, 405480, Note_on_c, 4, 54, 103
6, 405576, Note_on_c, 4, 54, 0
6, 405600, Note_on_c, 4, 56, 101
6, 405696, Note_on_c, 4, 56, 0
6, 405720, Note_on_c, 4, 57, 98
6, 405816, Note_on_c, 4, 57, 0
6, 405840, Note_on_c, 4, 59, 96
6, 405936, Note_on_c, 4, 59, 0
6, 405960, Note_on_c, 4, 61, 93
6, 406056, Note_on_c, 4, 61, 0
6, 406080, Note_on_c, 4, 62, 91
6, 406200, Note_on_c, 4, 62, 0
6, 406200, Note_on_c, 4, 61, 88
6, 406320, Note_on_c, 4, 61, 0
6, 406320, Note_on_c, 4, 62, 86
6, 406440, Note_on_c, 4, 62, 0
6, 406440, Note_on_c, 4, 61, 83
6, 406560, Note_on_c, 4, 61, 0
6, 406560, Note_on_c, 4, 62, 81
6, 406752, Note_on_c, 4, 62, 0
6, 406800, Note_on_c, 4, 61, 80
6, 406992, Note_on_c, 4, 61, 0
6, 407040, Note_on_c, 4, 54, 109
6, 407232, Note_on_c, 4, 54, 0
6, 407280, Note_on_c, 4, 56, 104
6, 407376, Note_on_c, 4, 56, 0
6, 407400, Note_on_c, 4, 57, 102
6, 407496, Note_on_c, 4, 57, 0
6, 407520, Note_on_c, 4, 59, 100
6, 407616, Note_on_c, 4, 59, 0
6, 407640, Note_on_c, 4, 61, 97
6, 407736, Note_on_c, 4, 61, 0
6, 407760, Note_on_c, 4, 62, 95
6, 407856, Note_on_c, 4, 62, 0
6, 407880, Note_on_c, 4, 64, 93
6, 407976, Note_on_c, 4, 64, 0
6, 408000, Note_on_c, 4, 66, 91
6, 408120, Note_on_c, 4, 66, 0
6, 408120, Note_on_c, 4, 64, 88
6, 408240, Note_on_c, 4, 64, 0
6, 408240, Note_on_c, 4, 66, 86
6, 408360, Note_on_c, 4, 66, 0
6, 408360, Note_on_c, 4, 64, 84
6, 408480, Note_on_c, 4, 64, 0
6, 408480, Note_on_c, 4, 66, 82
6, 408672, Note_on_c, 4, 66, 0
6, 408720, Note_on_c, 4, 64, 80
6, 408912, Note_on_c, 4, 64, 0
6, 408960, Note_on_c, 4, 62, 80
6, 409272, Note_on_c, 4, 62, 0
6, 409440, Note_on_c, 4, 59, 80
6, 409752, Note_on_c, 4, 59, 0
6, 409920, Note_on_c, 4, 64, 80
6, 410232, Note_on_c, 4, 64, 0
6, 410400, Note_on_c, 4, 52, 80
6, 410712, Note_on_c, 4, 52, 0
6, 461280, Note_on_c, 4, 46, 80
6, 461760, Note_on_c, 4, 46, 0
6, 461760, Note_on_c, 4, 47, 80
6, 462024, Note_on_c, 4, 47, 0
6, 463200, Note_on_c, 4, 46, 80
6, 463680, Note_on_c, 4, 46, 0
6, 463680, Note_on_c, 4, 47, 80
6, 463944, Note_on_c, 4, 47, 0
6, 465120, Note_on_c, 4, 46, 80
6, 465600, Note_on_c, 4, 46, 0
6, 465600, Note_on_c, 4, 47, 80
6, 465864, Note_on_c, 4, 47, 0
6, 618240, Note_on_c, 4, 54, 103
6, 618336, Note_on_c, 4, 54, 0
6, 618360, Note_on_c, 4, 57, 101
6, 618456, Note_on_c, 4, 57, 0
6, 618480, Note_on_c, 4, 51, 100
6, 618576, Note_on_c, 4, 51, 0
6, 618600, Note_on_c, 4, 54, 98
6, 618696, Note_on_c, 4, 54, 0
6, 618720, Note_on_c, 4, 48, 97
6, 618816, Note_on_c, 4, 48, 0
6, 618840, Note_on_c, 4, 51, 95
6, 618936, Note_on_c, 4, 51, 0
6, 618960, Note_on_c, 4, 45, 93
6, 619056, Note_on_c, 4, 45, 0
6, 619080, Note_on_c, 4, 48, 92
6, 619176, Note_on_c, 4, 48, 0
6, 619200, Note_on_c, 4, 42, 90
6, 619296, Note_on_c, 4, 42, 0
6, 619320, Note_on_c, 4, 45, 88
6, 619416, Note_on_c, 4, 45, 0
6, 619440, Note_on_c, 4, 39, 87
6, 619536, Note_on_c, 4, 39, 0
6, 619560, Note_on_c, 4, 42, 85
6, 619656, Note_on_c, 4, 42, 0
6, 619680, Note_on_c, 4, 40, 84
6, 621216, Note_on_c, 4, 40, 0
6, 621600, Note_on_c, 4, 52, 93
6, 623136, Note_on_c, 4, 52, 0
6, 623520, Note_on_c, 4, 64, 103
6, 625056, Note_on_c, 4, 64, 0
6, 634800, Note_on_c, 4, 57, 101
6, 634800, Note_on_c, 4, 51, 101
6, 634992, Note_on_c, 4, 51, 0
6, 634992, Note_on_c, 4, 57, 0
6, 635040, Note_on_c, 4, 56, 104
6, 635040, Note_on_c, 4, 52, 104
6, 635232, Note_on_c, 4, 52, 0
6, 635232, Note_on_c, 4, 56, 0
6, 635280, Note_on_c, 4, 51, 101
6, 635280, Note_on_c, 4, 57, 101
6, 635472, Note_on_c, 4, 57, 0
6, 635472, Note_on_c, 4, 51, 0
6, 635520, Note_on_c, 4, 56, 101
6, 635520, Note_on_c, 4, 52, 101
6, 635712, Note_on_c, 4, 52, 0
6, 635712, Note_on_c, 4, 56, 0
6, 635760, Note_on_c, 4, 51, 101
6, 635760, Note_on_c, 4, 57, 101
6, 635952, Note_on_c, 4, 57, 0
6, 635952, Note_on_c, 4, 51, 0
6, 636000, Note_on_c, 4, 52, 101
6, 636000, Note_on_c, 4, 56, 101
6, 636768, Note_on_c, 4, 56, 0
6, 636768, Note_on_c, 4, 52, 0
6, 636768, End_track
7, 0, Start_track
7, 0, Sequencer_specific, 04, 43, 00, 01, 00
7, 0, Program_c, 5, 48
7, 0, Control_c, 5, 7, 114
7, 0, Control_c, 5, 10, 28
7, 0, Control_c, 5, 91, 80
7, 1920, Note_on_c, 5, 69, 71
7, 2232, Note_on_c, 5, 69, 0
7, 2400, Note_on_c, 5, 69, 71
7, 2880, Note_on_c, 5, 69, 0
7, 2880, Note_on_c, 5, 73, 71
7, 3360, Note_on_c, 5, 73, 0
7, 3360, Note_on_c, 5, 76, 71
7, 3792, Note_on_c, 5, 76, 0
7, 3840, Note_on_c, 5, 76, 71
7, 3960, Note_on_c, 5, 76, 0
7, 3960, Note_on_c, 5, 74, 71
7, 4248, Note_on_c, 5, 74, 0
7, 4320, Note_on_c, 5, 73, 71
7, 4440, Note_on_c, 5, 73, 0
7, 4440, Note_on_c, 5, 71, 71
7, 4728, Note_on_c, 5, 71, 0
7, 4800, Note_on_c, 5, 69, 71
7, 4920, Note_on_c, 5, 69, 0
7, 4920, Note_on_c, 5, 68, 71
7, 5208, Note_on_c, 5, 68, 0
7, 5280, Note_on_c, 5, 66, 71
7, 5400, Note_on_c, 5, 66, 0
7, 5400, Note_on_c, 5, 64, 71
7, 5688, Note_on_c, 5, 64, 0
7, 5760, Note_on_c, 5, 71, 71
7, 6072, Note_on_c, 5, 71, 0
7, 6240, Note_on_c, 5, 71, 71
7, 6720, Note_on_c, 5, 71, 0
7, 6720, Note_on_c, 5, 74, 71
7, 7200, Note_on_c, 5, 74, 0
7, 7200, Note_on_c, 5, 78, 71
7, 7656, Note_on_c, 5, 78, 0
7, 7680, Note_on_c, 5, 76, 71
7, 8400, Note_on_c, 5, 76, 0
7, 8400, Note_on_c, 5, 73, 71
7, 8628, Note_on_c, 5, 73, 0
7, 8640, Note_on_c, 5, 76, 62
7, 9024, Note_on_c, 5, 76, 0
7, 9600, Note_on_c, 5, 69, 71
7, 9984, Note_on_c, 5, 69, 0
7, 10080, Note_on_c, 5, 81, 71
7, 11040, Note_on_c, 5, 81, 0
7, 11040, Note_on_c, 5, 80, 71
7, 12000, Note_on_c, 5, 80, 0
7, 12000, Note_on_c, 5, 78, 71
7, 12960, Note_on_c, 5, 78, 0
7, 12960, Note_on_c, 5, 76, 71
7, 13920, Note_on_c, 5, 76, 0
7, 13920, Note_on_c, 5, 74, 71
7, 14880, Note_on_c, 5, 74, 0
7, 14880, Note_on_c, 5, 73, 71
7, 15600, Note_on_c, 5, 73, 0
7, 15600, Note_on_c, 5, 71, 71
7, 15840, Note_on_c, 5, 71, 0
7, 15840, Note_on_c, 5, 70, 71
7, 16080, Note_on_c, 5, 70, 0
7, 16080, Note_on_c, 5, 71, 71
7, 16272, Note_on_c, 5, 71, 0
7, 16320, Note_on_c, 5, 69, 71
7, 16560, Note_on_c, 5, 69, 0
7, 16560, Note_on_c, 5, 68, 71
7, 16800, Note_on_c, 5, 68, 0
7, 16800, Note_on_c, 5, 66, 71
7, 17040, Note_on_c, 5, 66, 0
7, 17040, Note_on_c, 5, 64, 71
7, 17280, Note_on_c, 5, 64, 0
7, 17280, Note_on_c, 5, 69, 71
7, 17592, Note_on_c, 5, 69, 0
7, 17760, Note_on_c, 5, 69, 71
7, 18240, Note_on_c, 5, 69, 0
7, 18240, Note_on_c, 5, 73, 71
7, 18720, Note_on_c, 5, 73, 0
7, 18720, Note_on_c, 5, 76, 71
7, 19176, Note_on_c, 5, 76, 0
7, 19200, Note_on_c, 5, 76, 71
7, 19320, Note_on_c, 5, 76, 0
7, 19320, Note_on_c, 5, 74, 71
7, 19608, Note_on_c, 5, 74, 0
7, 19680, Note_on_c, 5, 73, 71
7, 19800, Note_on_c, 5, 73, 0
7, 19800, Note_on_c, 5, 71, 71
7, 20088, Note_on_c, 5, 71, 0
7, 20160, Note_on_c, 5, 69, 71
7, 20280, Note_on_c, 5, 69, 0
7, 20280, Note_on_c, 5, 68, 71
7, 20568, Note_on_c, 5, 68, 0
7, 20640, Note_on_c, 5, 66, 71
7, 20760, Note_on_c, 5, 66, 0
7, 20760, Note_on_c, 5, 64, 71
7, 21048, Note_on_c, 5, 64, 0
7, 21120, Note_on_c, 5, 71, 71
7, 21432, Note_on_c, 5, 71, 0
7, 21600, Note_on_c, 5, 71, 71
7, 22080, Note_on_c, 5, 71, 0
7, 22080, Note_on_c, 5, 74, 71
7, 22560, Note_on_c, 5, 74, 0
7, 22560, Note_on_c, 5, 78, 71
7, 23016, Note_on_c, 5, 78, 0
7, 23040, Note_on_c, 5, 76, 71
7, 23760, Note_on_c, 5, 76, 0
7, 23760, Note_on_c, 5, 73, 71
7, 23988, Note_on_c, 5, 73, 0
7, 24000, Note_on_c, 5, 76, 62
7, 24384, Note_on_c, 5, 76, 0
7, 24960, Note_on_c, 5, 81, 71
7, 25200, Note_on_c, 5, 81, 0
7, 25200, Note_on_c, 5, 80, 71
7, 25440, Note_on_c, 5, 80, 0
7, 25440, Note_on_c, 5, 83, 71
7, 25680, Note_on_c, 5, 83, 0
7, 25680, Note_on_c, 5, 81, 71
7, 25920, Note_on_c, 5, 81, 0
7, 25920, Note_on_c, 5, 85, 71
7, 26160, Note_on_c, 5, 85, 0
7, 26160, Note_on_c, 5, 83, 71
7, 26400, Note_on_c, 5, 83, 0
7, 26400, Note_on_c, 5, 81, 71
7, 26640, Note_on_c, 5, 81, 0
7, 26640, Note_on_c, 5, 80, 71
7, 26832, Note_on_c, 5, 80, 0
7, 26880, Note_on_c, 5, 78, 71
7, 27120, Note_on_c, 5, 78, 0
7, 27120, Note_on_c, 5, 77, 71
7, 27360, Note_on_c, 5, 77, 0
7, 27360, Note_on_c, 5, 80, 71
7, 27600, Note_on_c, 5, 80, 0
7, 27600, Note_on_c, 5, 78, 71
7, 27840, Note_on_c, 5, 78, 0
7, 27840, Note_on_c, 5, 81, 71
7, 28080, Note_on_c, 5, 81, 0
7, 28080, Note_on_c, 5, 80, 71
7, 28320, Note_on_c, 5, 80, 0
7, 28320, Note_on_c, 5, 78, 71
7, 28560, Note_on_c, 5, 78, 0
7, 28560, Note_on_c, 5, 76, 71
7, 28788, Note_on_c, 5, 76, 0
7, 28800, Note_on_c, 5, 74, 71
7, 29040, Note_on_c, 5, 74, 0
7, 29040, Note_on_c, 5, 73, 71
7, 29280, Note_on_c, 5, 73, 0
7, 29280, Note_on_c, 5, 76, 71
7, 29520, Note_on_c, 5, 76, 0
7, 29520, Note_on_c, 5, 74, 71
7, 29760, Note_on_c, 5, 74, 0
7, 29760, Note_on_c, 5, 78, 71
7, 30000, Note_on_c, 5, 78, 0
7, 30000, Note_on_c, 5, 76, 71
7, 30240, Note_on_c, 5, 76, 0
7, 30240, Note_on_c, 5, 74, 71
7, 30480, Note_on_c, 5, 74, 0
7, 30480, Note_on_c, 5, 73, 71
7, 30708, Note_on_c, 5, 73, 0
7, 30720, Note_on_c, 5, 73, 71
7, 30960, Note_on_c, 5, 73, 0
7, 30960, Note_on_c, 5, 71, 71
7, 31116, Note_on_c, 5, 71, 0
7, 31200, Note_on_c, 5, 74, 71
7, 31356, Note_on_c, 5, 74, 0
7, 31440, Note_on_c, 5, 71, 71
7, 31596, Note_on_c, 5, 71, 0
7, 31680, Note_on_c, 5, 73, 71
7, 31800, Note_on_c, 5, 73, 0
7, 31800, Note_on_c, 5, 71, 71
7, 31920, Note_on_c, 5, 71, 0
7, 31920, Note_on_c, 5, 69, 71
7, 32112, Note_on_c, 5, 69, 0
7, 32160, Note_on_c, 5, 71, 71
7, 32280, Note_on_c, 5, 71, 0
7, 32280, Note_on_c, 5, 69, 71
7, 32400, Note_on_c, 5, 69, 0
7, 32400, Note_on_c, 5, 68, 71
7, 32592, Note_on_c, 5, 68, 0
7, 32640, Note_on_c, 5, 69, 91
7, 32640, Note_on_c, 5, 64, 105
7, 32640, Note_on_c, 5, 57, 105
7, 33024, Note_on_c, 5, 57, 0
7, 33024, Note_on_c, 5, 64, 0
7, 33576, Note_on_c, 5, 69, 0
7, 33840, Note_on_c, 5, 71, 105
7, 33984, Note_on_c, 5, 71, 0
7, 34080, Note_on_c, 5, 73, 105
7, 34224, Note_on_c, 5, 73, 0
7, 34320, Note_on_c, 5, 74, 105
7, 34464, Note_on_c, 5, 74, 0
7, 34560, Note_on_c, 5, 76, 105
7, 35472, Note_on_c, 5, 76, 0
7, 35760, Note_on_c, 5, 78, 105
7, 35904, Note_on_c, 5, 78, 0
7, 36000, Note_on_c, 5, 80, 105
7, 36144, Note_on_c, 5, 80, 0
7, 36240, Note_on_c, 5, 81, 105
7, 36384, Note_on_c, 5, 81, 0
7, 36480, Note_on_c, 5, 83, 105
7, 37392, Note_on_c, 5, 83, 0
7, 37680, Note_on_c, 5, 85, 71
7, 37920, Note_on_c, 5, 85, 0
7, 37920, Note_on_c, 5, 86, 71
7, 38160, Note_on_c, 5, 86, 0
7, 38160, Note_on_c, 5, 83, 71
7, 38400, Note_on_c, 5, 83, 0
7, 38400, Note_on_c, 5, 81, 71
7, 38640, Note_on_c, 5, 81, 0
7, 38640, Note_on_c, 5, 80, 71
7, 38784, Note_on_c, 5, 80, 0
7, 38880, Note_on_c, 5, 78, 71
7, 39024, Note_on_c, 5, 78, 0
7, 39120, Note_on_c, 5, 76, 71
7, 39264, Note_on_c, 5, 76, 0
7, 39360, Note_on_c, 5, 76, 71
7, 39600, Note_on_c, 5, 76, 0
7, 39600, Note_on_c, 5, 74, 71
7, 39744, Note_on_c, 5, 74, 0
7, 39840, Note_on_c, 5, 73, 71
7, 39984, Note_on_c, 5, 73, 0
7, 40080, Note_on_c, 5, 71, 71
7, 40224, Note_on_c, 5, 71, 0
7, 40320, Note_on_c, 5, 69, 91
7, 40320, Note_on_c, 5, 64, 105
7, 40320, Note_on_c, 5, 57, 105
7, 40704, Note_on_c, 5, 57, 0
7, 40704, Note_on_c, 5, 64, 0
7, 41256, Note_on_c, 5, 69, 0
7, 41520, Note_on_c, 5, 71, 105
7, 41664, Note_on_c, 5, 71, 0
7, 41760, Note_on_c, 5, 73, 105
7, 41904, Note_on_c, 5, 73, 0
7, 42000, Note_on_c, 5, 74, 105
7, 42144, Note_on_c, 5, 74, 0
7, 42240, Note_on_c, 5, 76, 105
7, 43152, Note_on_c, 5, 76, 0
7, 43440, Note_on_c, 5, 78, 105
7, 43584, Note_on_c, 5, 78, 0
7, 43680, Note_on_c, 5, 80, 105
7, 43824, Note_on_c, 5, 80, 0
7, 43920, Note_on_c, 5, 81, 105
7, 44064, Note_on_c, 5, 81, 0
7, 44160, Note_on_c, 5, 83, 105
7, 45072, Note_on_c, 5, 83, 0
7, 45360, Note_on_c, 5, 85, 71
7, 45600, Note_on_c, 5, 85, 0
7, 45600, Note_on_c, 5, 86, 71
7, 45840, Note_on_c, 5, 86, 0
7, 45840, Note_on_c, 5, 83, 71
7, 46080, Note_on_c, 5, 83, 0
7, 46080, Note_on_c, 5, 81, 71
7, 46320, Note_on_c, 5, 81, 0
7, 46320, Note_on_c, 5, 80, 71
7, 46464, Note_on_c, 5, 80, 0
7, 46560, Note_on_c, 5, 78, 71
7, 46704, Note_on_c, 5, 78, 0
7, 46800, Note_on_c, 5, 76, 71
7, 46944, Note_on_c, 5, 76, 0
7, 47040, Note_on_c, 5, 76, 71
7, 47280, Note_on_c, 5, 76, 0
7, 47280, Note_on_c, 5, 74, 71
7, 47424, Note_on_c, 5, 74, 0
7, 47520, Note_on_c, 5, 73, 71
7, 47664, Note_on_c, 5, 73, 0
7, 47760, Note_on_c, 5, 71, 71
7, 47904, Note_on_c, 5, 71, 0
7, 48000, Note_on_c, 5, 69, 105
7, 48156, Note_on_c, 5, 69, 0
7, 48240, Note_on_c, 5, 85, 105
7, 48240, Note_on_c, 5, 69, 105
7, 48624, Note_on_c, 5, 69, 0
7, 48624, Note_on_c, 5, 85, 0
7, 48720, Note_on_c, 5, 69, 105
7, 48720, Note_on_c, 5, 81, 105
7, 49104, Note_on_c, 5, 81, 0
7, 49104, Note_on_c, 5, 69, 0
7, 49200, Note_on_c, 5, 69, 105
7, 49200, Note_on_c, 5, 85, 105
7, 49584, Note_on_c, 5, 85, 0
7, 49584, Note_on_c, 5, 69, 0
7, 49680, Note_on_c, 5, 81, 105
7, 49680, Note_on_c, 5, 69, 105
7, 50112, Note_on_c, 5, 69, 0
7, 50112, Note_on_c, 5, 81, 0
7, 50160, Note_on_c, 5, 85, 105
7, 50160, Note_on_c, 5, 69, 105
7, 50544, Note_on_c, 5, 69, 0
7, 50544, Note_on_c, 5, 85, 0
7, 50640, Note_on_c, 5, 69, 105
7, 50640, Note_on_c, 5, 81, 105
7, 51024, Note_on_c, 5, 81, 0
7, 51024, Note_on_c, 5, 69, 0
7, 51120, Note_on_c, 5, 69, 105
7, 51120, Note_on_c, 5, 85, 105
7, 51504, Note_on_c, 5, 85, 0
7, 51504, Note_on_c, 5, 69, 0
7, 51600, Note_on_c, 5, 69, 105
7, 51600, Note_on_c, 5, 81, 105
7, 51996, Note_on_c, 5, 81, 0
7, 51996, Note_on_c, 5, 69, 0
7, 52080, Note_on_c, 5, 81, 71
7, 52236, Note_on_c, 5, 81, 0
7, 52320, Note_on_c, 5, 81, 71
7, 52560, Note_on_c, 5, 81, 0
7, 52560, Note_on_c, 5, 80, 71
7, 52716, Note_on_c, 5, 80, 0
7, 52800, Note_on_c, 5, 80, 71
7, 53040, Note_on_c, 5, 80, 0
7, 53040, Note_on_c, 5, 78, 71
7, 53196, Note_on_c, 5, 78, 0
7, 53280, Note_on_c, 5, 78, 71
7, 53520, Note_on_c, 5, 78, 0
7, 53520, Note_on_c, 5, 76, 71
7, 53676, Note_on_c, 5, 76, 0
7, 53760, Note_on_c, 5, 76, 71
7, 54000, Note_on_c, 5, 76, 0
7, 54000, Note_on_c, 5, 74, 71
7, 54156, Note_on_c, 5, 74, 0
7, 54240, Note_on_c, 5, 74, 71
7, 54396, Note_on_c, 5, 74, 0
7, 54480, Note_on_c, 5, 74, 71
7, 54636, Note_on_c, 5, 74, 0
7, 54720, Note_on_c, 5, 74, 71
7, 54960, Note_on_c, 5, 74, 0
7, 54960, Note_on_c, 5, 73, 71
7, 55116, Note_on_c, 5, 73, 0
7, 55200, Note_on_c, 5, 73, 71
7, 55356, Note_on_c, 5, 73, 0
7, 55440, Note_on_c, 5, 73, 71
7, 55596, Note_on_c, 5, 73, 0
7, 55680, Note_on_c, 5, 71, 71
7, 56064, Note_on_c, 5, 71, 0
7, 56160, Note_on_c, 5, 81, 105
7, 56280, Note_on_c, 5, 81, 0
7, 56280, Note_on_c, 5, 80, 105
7, 56358, Note_on_c, 5, 80, 0
7, 56400, Note_on_c, 5, 78, 105
7, 56478, Note_on_c, 5, 78, 0
7, 56520, Note_on_c, 5, 76, 105
7, 56598, Note_on_c, 5, 76, 0
7, 56640, Note_on_c, 5, 81, 105
7, 57024, Note_on_c, 5, 81, 0
7, 57120, Note_on_c, 5, 74, 105
7, 57240, Note_on_c, 5, 74, 0
7, 57240, Note_on_c, 5, 73, 105
7, 57318, Note_on_c, 5, 73, 0
7, 57360, Note_on_c, 5, 71, 105
7, 57438, Note_on_c, 5, 71, 0
7, 57480, Note_on_c, 5, 69, 105
7, 57558, Note_on_c, 5, 69, 0
7, 57600, Note_on_c, 5, 76, 105
7, 57984, Note_on_c, 5, 76, 0
7, 58080, Note_on_c, 5, 69, 105
7, 58200, Note_on_c, 5, 69, 0
7, 58200, Note_on_c, 5, 68, 105
7, 58278, Note_on_c, 5, 68, 0
7, 58320, Note_on_c, 5, 66, 105
7, 58398, Note_on_c, 5, 66, 0
7, 58440, Note_on_c, 5, 64, 105
7, 58518, Note_on_c, 5, 64, 0
7, 58560, Note_on_c, 5, 69, 105
7, 58944, Note_on_c, 5, 69, 0
7, 59040, Note_on_c, 5, 62, 105
7, 59160, Note_on_c, 5, 62, 0
7, 59160, Note_on_c, 5, 61, 105
7, 59238, Note_on_c, 5, 61, 0
7, 59280, Note_on_c, 5, 59, 105
7, 59358, Note_on_c, 5, 59, 0
7, 59400, Note_on_c, 5, 57, 105
7, 59478, Note_on_c, 5, 57, 0
7, 59520, Note_on_c, 5, 64, 105
7, 60204, Note_on_c, 5, 64, 0
7, 60240, Note_on_c, 5, 68, 105
7, 60336, Note_on_c, 5, 68, 0
7, 60360, Note_on_c, 5, 71, 105
7, 60456, Note_on_c, 5, 71, 0
7, 60480, Note_on_c, 5, 76, 105
7, 60792, Note_on_c, 5, 76, 0
7, 60960, Note_on_c, 5, 71, 90
7, 60960, Note_on_c, 5, 80, 90
7, 60960, Note_on_c, 5, 64, 90
7, 61272, Note_on_c, 5, 64, 0
7, 61272, Note_on_c, 5, 80, 0
7, 61272, Note_on_c, 5, 71, 0
7, 61440, Note_on_c, 5, 64, 90
7, 61440, Note_on_c, 5, 71, 90
7, 61440, Note_on_c, 5, 76, 90
7, 61824, Note_on_c, 5, 76, 0
7, 61824, Note_on_c, 5, 71, 0
7, 61824, Note_on_c, 5, 64, 0
7, 62880, Note_on_c, 5, 76, 71
7, 63360, Note_on_c, 5, 76, 0
7, 63360, Note_on_c, 5, 73, 71
7, 63624, Note_on_c, 5, 73, 0
7, 63840, Note_on_c, 5, 73, 71
7, 64320, Note_on_c, 5, 73, 0
7, 64320, Note_on_c, 5, 74, 71
7, 64584, Note_on_c, 5, 74, 0
7, 64800, Note_on_c, 5, 74, 71
7, 65280, Note_on_c, 5, 74, 0
7, 65280, Note_on_c, 5, 76, 62
7, 65664, Note_on_c, 5, 76, 0
7, 66720, Note_on_c, 5, 75, 71
7, 67200, Note_on_c, 5, 75, 0
7, 67200, Note_on_c, 5, 76, 62
7, 67584, Note_on_c, 5, 76, 0
7, 68640, Note_on_c, 5, 75, 71
7, 69120, Note_on_c, 5, 75, 0
7, 69120, Note_on_c, 5, 76, 62
7, 69504, Note_on_c, 5, 76, 0
7, 70560, Note_on_c, 5, 78, 71
7, 70680, Note_on_c, 5, 78, 0
7, 70680, Note_on_c, 5, 76, 71
7, 70800, Note_on_c, 5, 76, 0
7, 70800, Note_on_c, 5, 74, 71
7, 70920, Note_on_c, 5, 74, 0
7, 70920, Note_on_c, 5, 73, 71
7, 71040, Note_on_c, 5, 73, 0
7, 71040, Note_on_c, 5, 71, 71
7, 71304, Note_on_c, 5, 71, 0
7, 71520, Note_on_c, 5, 71, 71
7, 72000, Note_on_c, 5, 71, 0
7, 72000, Note_on_c, 5, 73, 71
7, 72264, Note_on_c, 5, 73, 0
7, 72480, Note_on_c, 5, 73, 71
7, 72960, Note_on_c, 5, 73, 0
7, 72960, Note_on_c, 5, 74, 62
7, 73344, Note_on_c, 5, 74, 0
7, 74400, Note_on_c, 5, 73, 71
7, 74880, Note_on_c, 5, 73, 0
7, 74880, Note_on_c, 5, 74, 62
7, 75264, Note_on_c, 5, 74, 0
7, 76320, Note_on_c, 5, 85, 71
7, 76800, Note_on_c, 5, 85, 0
7, 76800, Note_on_c, 5, 86, 62
7, 77184, Note_on_c, 5, 86, 0
7, 78240, Note_on_c, 5, 76, 71
7, 78360, Note_on_c, 5, 76, 0
7, 78360, Note_on_c, 5, 74, 71
7, 78480, Note_on_c, 5, 74, 0
7, 78480, Note_on_c, 5, 73, 71
7, 78600, Note_on_c, 5, 73, 0
7, 78600, Note_on_c, 5, 71, 71
7, 78720, Note_on_c, 5, 71, 0
7, 78720, Note_on_c, 5, 69, 62
7, 78912, Note_on_c, 5, 69, 0
7, 78960, Note_on_c, 5, 69, 62
7, 79344, Note_on_c, 5, 69, 0
7, 79440, Note_on_c, 5, 69, 62
7, 79824, Note_on_c, 5, 69, 0
7, 79920, Note_on_c, 5, 69, 62
7, 80304, Note_on_c, 5, 69, 0
7, 80400, Note_on_c, 5, 69, 62
7, 80592, Note_on_c, 5, 69, 0
7, 80640, Note_on_c, 5, 69, 62
7, 81600, Note_on_c, 5, 69, 0
7, 81600, Note_on_c, 5, 67, 62
7, 81984, Note_on_c, 5, 67, 0
7, 82080, Note_on_c, 5, 79, 71
7, 82200, Note_on_c, 5, 79, 0
7, 82200, Note_on_c, 5, 78, 71
7, 82320, Note_on_c, 5, 78, 0
7, 82320, Note_on_c, 5, 76, 71
7, 82440, Note_on_c, 5, 76, 0
7, 82440, Note_on_c, 5, 74, 71
7, 82560, Note_on_c, 5, 74, 0
7, 82560, Note_on_c, 5, 73, 62
7, 82752, Note_on_c, 5, 73, 0
7, 82800, Note_on_c, 5, 73, 62
7, 83184, Note_on_c, 5, 73, 0
7, 83280, Note_on_c, 5, 73, 62
7, 83664, Note_on_c, 5, 73, 0
7, 83760, Note_on_c, 5, 73, 62
7, 84144, Note_on_c, 5, 73, 0
7, 84240, Note_on_c, 5, 73, 62
7, 84432, Note_on_c, 5, 73, 0
7, 84480, Note_on_c, 5, 73, 62
7, 85440, Note_on_c, 5, 73, 0
7, 85440, Note_on_c, 5, 71, 62
7, 85824, Note_on_c, 5, 71, 0
7, 85920, Note_on_c, 5, 83, 71
7, 86040, Note_on_c, 5, 83, 0
7, 86040, Note_on_c, 5, 81, 71
7, 86160, Note_on_c, 5, 81, 0
7, 86160, Note_on_c, 5, 79, 71
7, 86280, Note_on_c, 5, 79, 0
7, 86280, Note_on_c, 5, 78, 71
7, 86400, Note_on_c, 5, 78, 0
7, 86400, Note_on_c, 5, 76, 62
7, 86592, Note_on_c, 5, 76, 0
7, 86640, Note_on_c, 5, 76, 62
7, 87024, Note_on_c, 5, 76, 0
7, 87120, Note_on_c, 5, 76, 71
7, 87504, Note_on_c, 5, 76, 0
7, 87600, Note_on_c, 5, 76, 71
7, 87984, Note_on_c, 5, 76, 0
7, 88080, Note_on_c, 5, 76, 71
7, 88272, Note_on_c, 5, 76, 0
7, 88320, Note_on_c, 5, 76, 80
7, 89088, Note_on_c, 5, 76, 0
7, 89280, Note_on_c, 5, 74, 80
7, 89664, Note_on_c, 5, 74, 0
7, 89760, Note_on_c, 5, 86, 90
7, 89880, Note_on_c, 5, 86, 0
7, 89880, Note_on_c, 5, 85, 90
7, 90000, Note_on_c, 5, 85, 0
7, 90000, Note_on_c, 5, 83, 90
7, 90120, Note_on_c, 5, 83, 0
7, 90120, Note_on_c, 5, 81, 90
7, 90240, Note_on_c, 5, 81, 0
7, 90240, Note_on_c, 5, 80, 91
7, 90432, Note_on_c, 5, 80, 0
7, 90480, Note_on_c, 5, 80, 94
7, 90864, Note_on_c, 5, 80, 0
7, 90960, Note_on_c, 5, 80, 101
7, 91344, Note_on_c, 5, 80, 0
7, 91440, Note_on_c, 5, 80, 107
7, 91824, Note_on_c, 5, 80, 0
7, 91920, Note_on_c, 5, 80, 114
7, 92112, Note_on_c, 5, 80, 0
7, 92160, Note_on_c, 5, 81, 105
7, 92316, Note_on_c, 5, 81, 0
7, 92400, Note_on_c, 5, 85, 105
7, 92478, Note_on_c, 5, 85, 0
7, 92520, Note_on_c, 5, 81, 105
7, 92598, Note_on_c, 5, 81, 0
7, 92640, Note_on_c, 5, 76, 105
7, 92796, Note_on_c, 5, 76, 0
7, 92880, Note_on_c, 5, 76, 105
7, 93036, Note_on_c, 5, 76, 0
7, 93120, Note_on_c, 5, 78, 105
7, 93276, Note_on_c, 5, 78, 0
7, 93360, Note_on_c, 5, 81, 105
7, 93438, Note_on_c, 5, 81, 0
7, 93480, Note_on_c, 5, 78, 105
7, 93558, Note_on_c, 5, 78, 0
7, 93600, Note_on_c, 5, 74, 105
7, 93756, Note_on_c, 5, 74, 0
7, 93840, Note_on_c, 5, 74, 105
7, 93996, Note_on_c, 5, 74, 0
7, 94080, Note_on_c, 5, 73, 105
7, 94236, Note_on_c, 5, 73, 0
7, 94320, Note_on_c, 5, 76, 105
7, 94398, Note_on_c, 5, 76, 0
7, 94440, Note_on_c, 5, 73, 105
7, 94518, Note_on_c, 5, 73, 0
7, 94560, Note_on_c, 5, 69, 105
7, 94716, Note_on_c, 5, 69, 0
7, 94800, Note_on_c, 5, 73, 105
7, 94956, Note_on_c, 5, 73, 0
7, 95040, Note_on_c, 5, 76, 105
7, 95352, Note_on_c, 5, 76, 0
7, 95520, Note_on_c, 5, 68, 105
7, 95520, Note_on_c, 5, 59, 105
7, 95832, Note_on_c, 5, 59, 0
7, 95832, Note_on_c, 5, 68, 0
7, 96000, Note_on_c, 5, 57, 90
7, 96000, Note_on_c, 5, 64, 90
7, 96000, Note_on_c, 5, 69, 90
7, 96384, Note_on_c, 5, 69, 0
7, 96384, Note_on_c, 5, 64, 0
7, 96384, Note_on_c, 5, 57, 0
7, 96720, Note_on_c, 5, 76, 80
7, 96960, Note_on_c, 5, 76, 0
7, 96960, Note_on_c, 5, 75, 80
7, 97200, Note_on_c, 5, 75, 0
7, 97200, Note_on_c, 5, 78, 80
7, 97440, Note_on_c, 5, 78, 0
7, 97440, Note_on_c, 5, 76, 80
7, 97680, Note_on_c, 5, 76, 0
7, 97680, Note_on_c, 5, 73, 80
7, 97920, Note_on_c, 5, 73, 0
7, 97920, Note_on_c, 5, 69, 71
7, 98184, Note_on_c, 5, 69, 0
7, 98400, Note_on_c, 5, 69, 71
7, 98880, Note_on_c, 5, 69, 0
7, 98880, Note_on_c, 5, 71, 71
7, 99144, Note_on_c, 5, 71, 0
7, 99360, Note_on_c, 5, 71, 71
7, 99840, Note_on_c, 5, 71, 0
7, 99840, Note_on_c, 5, 73, 71
7, 100104, Note_on_c, 5, 73, 0
7, 100320, Note_on_c, 5, 73, 71
7, 100800, Note_on_c, 5, 73, 0
7, 100800, Note_on_c, 5, 74, 71
7, 101064, Note_on_c, 5, 74, 0
7, 101280, Note_on_c, 5, 74, 71
7, 101664, Note_on_c, 5, 74, 0
7, 101760, Note_on_c, 5, 78, 71
7, 102000, Note_on_c, 5, 78, 0
7, 102000, Note_on_c, 5, 76, 71
7, 102240, Note_on_c, 5, 76, 0
7, 102240, Note_on_c, 5, 74, 71
7, 102480, Note_on_c, 5, 74, 0
7, 102480, Note_on_c, 5, 73, 71
7, 102716, Note_on_c, 5, 73, 0
7, 102720, Note_on_c, 5, 73, 71
7, 102960, Note_on_c, 5, 73, 0
7, 102960, Note_on_c, 5, 71, 71
7, 103200, Note_on_c, 5, 71, 0
7, 103200, Note_on_c, 5, 73, 71
7, 103440, Note_on_c, 5, 73, 0
7, 103440, Note_on_c, 5, 69, 71
7, 103680, Note_on_c, 5, 69, 0
7, 103680, Note_on_c, 5, 73, 71
7, 104160, Note_on_c, 5, 73, 0
7, 104160, Note_on_c, 5, 71, 71
7, 104316, Note_on_c, 5, 71, 0
7, 104400, Note_on_c, 5, 76, 71
7, 104640, Note_on_c, 5, 76, 0
7, 104640, Note_on_c, 5, 75, 71
7, 104880, Note_on_c, 5, 75, 0
7, 104880, Note_on_c, 5, 78, 71
7, 105120, Note_on_c, 5, 78, 0
7, 105120, Note_on_c, 5, 76, 71
7, 105360, Note_on_c, 5, 76, 0
7, 105360, Note_on_c, 5, 73, 71
7, 105600, Note_on_c, 5, 73, 0
7, 105600, Note_on_c, 5, 69, 71
7, 105864, Note_on_c, 5, 69, 0
7, 106080, Note_on_c, 5, 69, 71
7, 106560, Note_on_c, 5, 69, 0
7, 106560, Note_on_c, 5, 71, 71
7, 106824, Note_on_c, 5, 71, 0
7, 107040, Note_on_c, 5, 71, 71
7, 107520, Note_on_c, 5, 71, 0
7, 107520, Note_on_c, 5, 73, 71
7, 107784, Note_on_c, 5, 73, 0
7, 108000, Note_on_c, 5, 73, 71
7, 108480, Note_on_c, 5, 73, 0
7, 108480, Note_on_c, 5, 74, 71
7, 108744, Note_on_c, 5, 74, 0
7, 108960, Note_on_c, 5, 74, 71
7, 109440, Note_on_c, 5, 74, 0
7, 109440, Note_on_c, 5, 78, 71
7, 109680, Note_on_c, 5, 78, 0
7, 109680, Note_on_c, 5, 76, 71
7, 109824, Note_on_c, 5, 76, 0
7, 109920, Note_on_c, 5, 74, 71
7, 110064, Note_on_c, 5, 74, 0
7, 110160, Note_on_c, 5, 73, 71
7, 110304, Note_on_c, 5, 73, 0
7, 110400, Note_on_c, 5, 73, 71
7, 110640, Note_on_c, 5, 73, 0
7, 110640, Note_on_c, 5, 71, 71
7, 110784, Note_on_c, 5, 71, 0
7, 110880, Note_on_c, 5, 69, 71
7, 111024, Note_on_c, 5, 69, 0
7, 111120, Note_on_c, 5, 68, 71
7, 111264, Note_on_c, 5, 68, 0
7, 111360, Note_on_c, 5, 69, 117
7, 111456, Note_on_c, 5, 69, 0
7, 111480, Note_on_c, 5, 64, 117
7, 111576, Note_on_c, 5, 64, 0
7, 111600, Note_on_c, 5, 66, 117
7, 111696, Note_on_c, 5, 66, 0
7, 111720, Note_on_c, 5, 68, 117
7, 111816, Note_on_c, 5, 68, 0
7, 111840, Note_on_c, 5, 69, 117
7, 111936, Note_on_c, 5, 69, 0
7, 111960, Note_on_c, 5, 71, 117
7, 112056, Note_on_c, 5, 71, 0
7, 112080, Note_on_c, 5, 73, 117
7, 112176, Note_on_c, 5, 73, 0
7, 112200, Note_on_c, 5, 74, 117
7, 112296, Note_on_c, 5, 74, 0
7, 112320, Note_on_c, 5, 76, 117
7, 112416, Note_on_c, 5, 76, 0
7, 112440, Note_on_c, 5, 78, 117
7, 112536, Note_on_c, 5, 78, 0
7, 112560, Note_on_c, 5, 80, 117
7, 112656, Note_on_c, 5, 80, 0
7, 112680, Note_on_c, 5, 81, 117
7, 112776, Note_on_c, 5, 81, 0
7, 112800, Note_on_c, 5, 80, 117
7, 112896, Note_on_c, 5, 80, 0
7, 112920, Note_on_c, 5, 78, 117
7, 113016, Note_on_c, 5, 78, 0
7, 113040, Note_on_c, 5, 76, 117
7, 113136, Note_on_c, 5, 76, 0
7, 113160, Note_on_c, 5, 74, 117
7, 113256, Note_on_c, 5, 74, 0
7, 113280, Note_on_c, 5, 73, 105
7, 113424, Note_on_c, 5, 73, 0
7, 113520, Note_on_c, 5, 73, 105
7, 113664, Note_on_c, 5, 73, 0
7, 113760, Note_on_c, 5, 78, 105
7, 113904, Note_on_c, 5, 78, 0
7, 114000, Note_on_c, 5, 78, 105
7, 114144, Note_on_c, 5, 78, 0
7, 114240, Note_on_c, 5, 76, 105
7, 114384, Note_on_c, 5, 76, 0
7, 114480, Note_on_c, 5, 76, 105
7, 114624, Note_on_c, 5, 76, 0
7, 114720, Note_on_c, 5, 68, 105
7, 114864, Note_on_c, 5, 68, 0
7, 114960, Note_on_c, 5, 68, 105
7, 115104, Note_on_c, 5, 68, 0
7, 115200, Note_on_c, 5, 69, 117
7, 115296, Note_on_c, 5, 69, 0
7, 115320, Note_on_c, 5, 64, 117
7, 115416, Note_on_c, 5, 64, 0
7, 115440, Note_on_c, 5, 66, 117
7, 115536, Note_on_c, 5, 66, 0
7, 115560, Note_on_c, 5, 68, 117
7, 115656, Note_on_c, 5, 68, 0
7, 115680, Note_on_c, 5, 69, 117
7, 115776, Note_on_c, 5, 69, 0
7, 115800, Note_on_c, 5, 71, 117
7, 115896, Note_on_c, 5, 71, 0
7, 115920, Note_on_c, 5, 73, 117
7, 116016, Note_on_c, 5, 73, 0
7, 116040, Note_on_c, 5, 74, 117
7, 116136, Note_on_c, 5, 74, 0
7, 116160, Note_on_c, 5, 76, 117
7, 116256, Note_on_c, 5, 76, 0
7, 116280, Note_on_c, 5, 78, 117
7, 116376, Note_on_c, 5, 78, 0
7, 116400, Note_on_c, 5, 80, 117
7, 116496, Note_on_c, 5, 80, 0
7, 116520, Note_on_c, 5, 81, 117
7, 116616, Note_on_c, 5, 81, 0
7, 116640, Note_on_c, 5, 80, 117
7, 116736, Note_on_c, 5, 80, 0
7, 116760, Note_on_c, 5, 78, 117
7, 116856, Note_on_c, 5, 78, 0
7, 116880, Note_on_c, 5, 76, 117
7, 116976, Note_on_c, 5, 76, 0
7, 117000, Note_on_c, 5, 74, 117
7, 117096, Note_on_c, 5, 74, 0
7, 117120, Note_on_c, 5, 73, 105
7, 117264, Note_on_c, 5, 73, 0
7, 117360, Note_on_c, 5, 73, 105
7, 117504, Note_on_c, 5, 73, 0
7, 117600, Note_on_c, 5, 78, 105
7, 117744, Note_on_c, 5, 78, 0
7, 117840, Note_on_c, 5, 78, 105
7, 117984, Note_on_c, 5, 78, 0
7, 118080, Note_on_c, 5, 76, 105
7, 118224, Note_on_c, 5, 76, 0
7, 118320, Note_on_c, 5, 76, 105
7, 118464, Note_on_c, 5, 76, 0
7, 118560, Note_on_c, 5, 68, 105
7, 118704, Note_on_c, 5, 68, 0
7, 118800, Note_on_c, 5, 68, 105
7, 118944, Note_on_c, 5, 68, 0
7, 119040, Note_on_c, 5, 69, 105
7, 119424, Note_on_c, 5, 69, 0
7, 119520, Note_on_c, 5, 76, 105
7, 119640, Note_on_c, 5, 76, 0
7, 119640, Note_on_c, 5, 73, 105
7, 119718, Note_on_c, 5, 73, 0
7, 119760, Note_on_c, 5, 76, 105
7, 119838, Note_on_c, 5, 76, 0
7, 119880, Note_on_c, 5, 73, 105
7, 119958, Note_on_c, 5, 73, 0
7, 120000, Note_on_c, 5, 81, 105
7, 120384, Note_on_c, 5, 81, 0
7, 120480, Note_on_c, 5, 76, 105
7, 120600, Note_on_c, 5, 76, 0
7, 120600, Note_on_c, 5, 73, 105
7, 120678, Note_on_c, 5, 73, 0
7, 120720, Note_on_c, 5, 76, 105
7, 120798, Note_on_c, 5, 76, 0
7, 120840, Note_on_c, 5, 73, 105
7, 120918, Note_on_c, 5, 73, 0
7, 120960, Note_on_c, 5, 69, 105
7, 121344, Note_on_c, 5, 69, 0
7, 121440, Note_on_c, 5, 57, 105
7, 121728, Note_on_c, 5, 57, 0
7, 121800, Note_on_c, 5, 57, 105
7, 121896, Note_on_c, 5, 57, 0
7, 121920, Note_on_c, 5, 57, 105
7, 122304, Note_on_c, 5, 57, 0
7, 137520, Note_on_c, 5, 74, 62
7, 137760, Note_on_c, 5, 74, 0
7, 137760, Note_on_c, 5, 73, 62
7, 138000, Note_on_c, 5, 73, 0
7, 138000, Note_on_c, 5, 71, 62
7, 138240, Note_on_c, 5, 71, 0
7, 138240, Note_on_c, 5, 69, 62
7, 140160, Note_on_c, 5, 69, 0
7, 140160, Note_on_c, 5, 71, 62
7, 142080, Note_on_c, 5, 71, 0
7, 142080, Note_on_c, 5, 64, 62
7, 142080, Note_on_c, 5, 74, 62
7, 144000, Note_on_c, 5, 74, 0
7, 144000, Note_on_c, 5, 64, 0
7, 144000, Note_on_c, 5, 64, 62
7, 144000, Note_on_c, 5, 73, 62
7, 145920, Note_on_c, 5, 73, 0
7, 145920, Note_on_c, 5, 64, 0
7, 157440, Note_on_c, 5, 69, 117
7, 157536, Note_on_c, 5, 69, 0
7, 157560, Note_on_c, 5, 64, 117
7, 157656, Note_on_c, 5, 64, 0
7, 157680, Note_on_c, 5, 66, 117
7, 157776, Note_on_c, 5, 66, 0
7, 157800, Note_on_c, 5, 68, 117
7, 157896, Note_on_c, 5, 68, 0
7, 157920, Note_on_c, 5, 69, 117
7, 158016, Note_on_c, 5, 69, 0
7, 158040, Note_on_c, 5, 71, 117
7, 158136, Note_on_c, 5, 71, 0
7, 158160, Note_on_c, 5, 73, 117
7, 158256, Note_on_c, 5, 73, 0
7, 158280, Note_on_c, 5, 74, 117
7, 158376, Note_on_c, 5, 74, 0
7, 158400, Note_on_c, 5, 76, 117
7, 158496, Note_on_c, 5, 76, 0
7, 158520, Note_on_c, 5, 78, 117
7, 158616, Note_on_c, 5, 78, 0
7, 158640, Note_on_c, 5, 80, 117
7, 158736, Note_on_c, 5, 80, 0
7, 158760, Note_on_c, 5, 81, 117
7, 158856, Note_on_c, 5, 81, 0
7, 158880, Note_on_c, 5, 80, 117
7, 158976, Note_on_c, 5, 80, 0
7, 159000, Note_on_c, 5, 78, 117
7, 159096, Note_on_c, 5, 78, 0
7, 159120, Note_on_c, 5, 76, 117
7, 159216, Note_on_c, 5, 76, 0
7, 159240, Note_on_c, 5, 74, 117
7, 159336, Note_on_c, 5, 74, 0
7, 159360, Note_on_c, 5, 73, 105
7, 159516, Note_on_c, 5, 73, 0
7, 159600, Note_on_c, 5, 73, 105
7, 159756, Note_on_c, 5, 73, 0
7, 159840, Note_on_c, 5, 78, 105
7, 159996, Note_on_c, 5, 78, 0
7, 160080, Note_on_c, 5, 78, 105
7, 160236, Note_on_c, 5, 78, 0
7, 160320, Note_on_c, 5, 76, 105
7, 160476, Note_on_c, 5, 76, 0
7, 160560, Note_on_c, 5, 76, 105
7, 160716, Note_on_c, 5, 76, 0
7, 160800, Note_on_c, 5, 68, 105
7, 160956, Note_on_c, 5, 68, 0
7, 161040, Note_on_c, 5, 68, 105
7, 161196, Note_on_c, 5, 68, 0
7, 161280, Note_on_c, 5, 69, 105
7, 161664, Note_on_c, 5, 69, 0
7, 161760, Note_on_c, 5, 76, 105
7, 161880, Note_on_c, 5, 76, 0
7, 161880, Note_on_c, 5, 73, 105
7, 161958, Note_on_c, 5, 73, 0
7, 162000, Note_on_c, 5, 76, 105
7, 162078, Note_on_c, 5, 76, 0
7, 162120, Note_on_c, 5, 73, 105
7, 162198, Note_on_c, 5, 73, 0
7, 162240, Note_on_c, 5, 81, 105
7, 162624, Note_on_c, 5, 81, 0
7, 162720, Note_on_c, 5, 76, 105
7, 162840, Note_on_c, 5, 76, 0
7, 162840, Note_on_c, 5, 73, 105
7, 162918, Note_on_c, 5, 73, 0
7, 162960, Note_on_c, 5, 76, 105
7, 163038, Note_on_c, 5, 76, 0
7, 163080, Note_on_c, 5, 73, 105
7, 163158, Note_on_c, 5, 73, 0
7, 163200, Note_on_c, 5, 69, 105
7, 163584, Note_on_c, 5, 69, 0
7, 163680, Note_on_c, 5, 57, 105
7, 163968, Note_on_c, 5, 57, 0
7, 164040, Note_on_c, 5, 57, 105
7, 164136, Note_on_c, 5, 57, 0
7, 164160, Note_on_c, 5, 57, 105
7, 164544, Note_on_c, 5, 57, 0
7, 174720, Note_on_c, 5, 69, 62
7, 176640, Note_on_c, 5, 69, 0
7, 176640, Note_on_c, 5, 68, 62
7, 178560, Note_on_c, 5, 68, 0
7, 178560, Note_on_c, 5, 66, 62
7, 180480, Note_on_c, 5, 66, 0
7, 180480, Note_on_c, 5, 64, 62
7, 180864, Note_on_c, 5, 64, 0
7, 181440, Note_on_c, 5, 71, 62
7, 181824, Note_on_c, 5, 71, 0
7, 182400, Note_on_c, 5, 73, 62
7, 182784, Note_on_c, 5, 73, 0
7, 183360, Note_on_c, 5, 76, 62
7, 183744, Note_on_c, 5, 76, 0
7, 186960, Note_on_c, 5, 71, 87
7, 187116, Note_on_c, 5, 71, 0
7, 187200, Note_on_c, 5, 66, 91
7, 187356, Note_on_c, 5, 66, 0
7, 187440, Note_on_c, 5, 71, 87
7, 187596, Note_on_c, 5, 71, 0
7, 187680, Note_on_c, 5, 63, 87
7, 187836, Note_on_c, 5, 63, 0
7, 187920, Note_on_c, 5, 66, 87
7, 188076, Note_on_c, 5, 66, 0
7, 188160, Note_on_c, 5, 59, 71
7, 188544, Note_on_c, 5, 59, 0
7, 192000, Note_on_c, 5, 71, 62
7, 194832, Note_on_c, 5, 71, 0
7, 194880, Note_on_c, 5, 68, 62
7, 195192, Note_on_c, 5, 68, 0
7, 195360, Note_on_c, 5, 64, 62
7, 195672, Note_on_c, 5, 64, 0
7, 195840, Note_on_c, 5, 59, 62
7, 196224, Note_on_c, 5, 59, 0
7, 199680, Note_on_c, 5, 71, 62
7, 202512, Note_on_c, 5, 71, 0
7, 202560, Note_on_c, 5, 68, 62
7, 202872, Note_on_c, 5, 68, 0
7, 203040, Note_on_c, 5, 64, 62
7, 203352, Note_on_c, 5, 64, 0
7, 204000, Note_on_c, 5, 73, 58
7, 204912, Note_on_c, 5, 73, 0
7, 204960, Note_on_c, 5, 73, 58
7, 205416, Note_on_c, 5, 73, 0
7, 205920, Note_on_c, 5, 73, 58
7, 206832, Note_on_c, 5, 73, 0
7, 206880, Note_on_c, 5, 73, 58
7, 207336, Note_on_c, 5, 73, 0
7, 207840, Note_on_c, 5, 75, 58
7, 208752, Note_on_c, 5, 75, 0
7, 208800, Note_on_c, 5, 75, 58
7, 209256, Note_on_c, 5, 75, 0
7, 209760, Note_on_c, 5, 75, 58
7, 210672, Note_on_c, 5, 75, 0
7, 210720, Note_on_c, 5, 75, 58
7, 211176, Note_on_c, 5, 75, 0
7, 211200, Note_on_c, 5, 76, 58
7, 211584, Note_on_c, 5, 76, 0
7, 220320, Note_on_c, 5, 71, 71
7, 220800, Note_on_c, 5, 71, 0
7, 220800, Note_on_c, 5, 68, 71
7, 221064, Note_on_c, 5, 68, 0
7, 221280, Note_on_c, 5, 68, 71
7, 221760, Note_on_c, 5, 68, 0
7, 221760, Note_on_c, 5, 69, 71
7, 222024, Note_on_c, 5, 69, 0
7, 222240, Note_on_c, 5, 69, 71
7, 222720, Note_on_c, 5, 69, 0
7, 222720, Note_on_c, 5, 71, 71
7, 223104, Note_on_c, 5, 71, 0
7, 224160, Note_on_c, 5, 70, 71
7, 224640, Note_on_c, 5, 70, 0
7, 224640, Note_on_c, 5, 71, 71
7, 225024, Note_on_c, 5, 71, 0
7, 226080, Note_on_c, 5, 70, 71
7, 226560, Note_on_c, 5, 70, 0
7, 226560, Note_on_c, 5, 71, 62
7, 226944, Note_on_c, 5, 71, 0
7, 228480, Note_on_c, 5, 83, 52
7, 235584, Note_on_c, 5, 83, 0
7, 237120, Note_on_c, 5, 74, 58
7, 238080, Note_on_c, 5, 74, 0
7, 238080, Note_on_c, 5, 73, 58
7, 239040, Note_on_c, 5, 73, 0
7, 239040, Note_on_c, 5, 75, 58
7, 240000, Note_on_c, 5, 75, 0
7, 240000, Note_on_c, 5, 76, 58
7, 240960, Note_on_c, 5, 76, 0
7, 240960, Note_on_c, 5, 74, 58
7, 241920, Note_on_c, 5, 74, 0
7, 241920, Note_on_c, 5, 73, 58
7, 242880, Note_on_c, 5, 73, 0
7, 242880, Note_on_c, 5, 75, 58
7, 243840, Note_on_c, 5, 75, 0
7, 243840, Note_on_c, 5, 76, 54
7, 244224, Note_on_c, 5, 76, 0
7, 263040, Note_on_c, 5, 76, 62
7, 270720, Note_on_c, 5, 76, 0
7, 270720, Note_on_c, 5, 59, 90
7, 271488, Note_on_c, 5, 59, 0
7, 274800, Note_on_c, 5, 76, 62
7, 274956, Note_on_c, 5, 76, 0
7, 275040, Note_on_c, 5, 76, 62
7, 275196, Note_on_c, 5, 76, 0
7, 275280, Note_on_c, 5, 76, 62
7, 275436, Note_on_c, 5, 76, 0
7, 275760, Note_on_c, 5, 76, 62
7, 275916, Note_on_c, 5, 76, 0
7, 276000, Note_on_c, 5, 76, 62
7, 276156, Note_on_c, 5, 76, 0
7, 276240, Note_on_c, 5, 76, 62
7, 276396, Note_on_c, 5, 76, 0
7, 276720, Note_on_c, 5, 75, 62
7, 277104, Note_on_c, 5, 75, 0
7, 277200, Note_on_c, 5, 75, 62
7, 277392, Note_on_c, 5, 75, 0
7, 277680, Note_on_c, 5, 63, 90
7, 278064, Note_on_c, 5, 63, 0
7, 278160, Note_on_c, 5, 63, 90
7, 278352, Note_on_c, 5, 63, 0
7, 278400, Note_on_c, 5, 64, 127
7, 278592, Note_on_c, 5, 64, 0
7, 278640, Note_on_c, 5, 66, 117
7, 278736, Note_on_c, 5, 66, 0
7, 278760, Note_on_c, 5, 68, 117
7, 278856, Note_on_c, 5, 68, 0
7, 278880, Note_on_c, 5, 69, 117
7, 278976, Note_on_c, 5, 69, 0
7, 279000, Note_on_c, 5, 71, 117
7, 279096, Note_on_c, 5, 71, 0
7, 279120, Note_on_c, 5, 73, 117
7, 279216, Note_on_c, 5, 73, 0
7, 279240, Note_on_c, 5, 75, 117
7, 279336, Note_on_c, 5, 75, 0
7, 279360, Note_on_c, 5, 76, 117
7, 279456, Note_on_c, 5, 76, 0
7, 279480, Note_on_c, 5, 78, 117
7, 279576, Note_on_c, 5, 78, 0
7, 279600, Note_on_c, 5, 80, 117
7, 279696, Note_on_c, 5, 80, 0
7, 279720, Note_on_c, 5, 81, 117
7, 279816, Note_on_c, 5, 81, 0
7, 279840, Note_on_c, 5, 83, 117
7, 279936, Note_on_c, 5, 83, 0
7, 279960, Note_on_c, 5, 81, 117
7, 280056, Note_on_c, 5, 81, 0
7, 280080, Note_on_c, 5, 80, 117
7, 280176, Note_on_c, 5, 80, 0
7, 280200, Note_on_c, 5, 78, 117
7, 280296, Note_on_c, 5, 78, 0
7, 280320, Note_on_c, 5, 76, 105
7, 280464, Note_on_c, 5, 76, 0
7, 280560, Note_on_c, 5, 76, 105
7, 280704, Note_on_c, 5, 76, 0
7, 280800, Note_on_c, 5, 85, 105
7, 280944, Note_on_c, 5, 85, 0
7, 281040, Note_on_c, 5, 85, 105
7, 281184, Note_on_c, 5, 85, 0
7, 281280, Note_on_c, 5, 83, 105
7, 281424, Note_on_c, 5, 83, 0
7, 281520, Note_on_c, 5, 83, 105
7, 281664, Note_on_c, 5, 83, 0
7, 281760, Note_on_c, 5, 75, 105
7, 281904, Note_on_c, 5, 75, 0
7, 282000, Note_on_c, 5, 75, 105
7, 282144, Note_on_c, 5, 75, 0
7, 282240, Note_on_c, 5, 76, 127
7, 282336, Note_on_c, 5, 76, 0
7, 282360, Note_on_c, 5, 64, 117
7, 282456, Note_on_c, 5, 64, 0
7, 282480, Note_on_c, 5, 66, 117
7, 282576, Note_on_c, 5, 66, 0
7, 282600, Note_on_c, 5, 68, 117
7, 282696, Note_on_c, 5, 68, 0
7, 282720, Note_on_c, 5, 69, 117
7, 282816, Note_on_c, 5, 69, 0
7, 282840, Note_on_c, 5, 71, 117
7, 282936, Note_on_c, 5, 71, 0
7, 282960, Note_on_c, 5, 73, 117
7, 283056, Note_on_c, 5, 73, 0
7, 283080, Note_on_c, 5, 75, 117
7, 283176, Note_on_c, 5, 75, 0
7, 283200, Note_on_c, 5, 76, 117
7, 283296, Note_on_c, 5, 76, 0
7, 283320, Note_on_c, 5, 78, 117
7, 283416, Note_on_c, 5, 78, 0
7, 283440, Note_on_c, 5, 80, 117
7, 283536, Note_on_c, 5, 80, 0
7, 283560, Note_on_c, 5, 81, 117
7, 283656, Note_on_c, 5, 81, 0
7, 283680, Note_on_c, 5, 83, 117
7, 283776, Note_on_c, 5, 83, 0
7, 283800, Note_on_c, 5, 81, 117
7, 283896, Note_on_c, 5, 81, 0
7, 283920, Note_on_c, 5, 80, 117
7, 284016, Note_on_c, 5, 80, 0
7, 284040, Note_on_c, 5, 78, 117
7, 284136, Note_on_c, 5, 78, 0
7, 284160, Note_on_c, 5, 76, 105
7, 284304, Note_on_c, 5, 76, 0
7, 284400, Note_on_c, 5, 76, 105
7, 284544, Note_on_c, 5, 76, 0
7, 284640, Note_on_c, 5, 85, 105
7, 284784, Note_on_c, 5, 85, 0
7, 284880, Note_on_c, 5, 85, 105
7, 285024, Note_on_c, 5, 85, 0
7, 285120, Note_on_c, 5, 83, 105
7, 285264, Note_on_c, 5, 83, 0
7, 285360, Note_on_c, 5, 83, 105
7, 285504, Note_on_c, 5, 83, 0
7, 285600, Note_on_c, 5, 75, 105
7, 285744, Note_on_c, 5, 75, 0
7, 285840, Note_on_c, 5, 75, 105
7, 285984, Note_on_c, 5, 75, 0
7, 286080, Note_on_c, 5, 76, 105
7, 286464, Note_on_c, 5, 76, 0
7, 286560, Note_on_c, 5, 83, 90
7, 286680, Note_on_c, 5, 83, 0
7, 286680, Note_on_c, 5, 80, 90
7, 286752, Note_on_c, 5, 80, 0
7, 286800, Note_on_c, 5, 83, 90
7, 286872, Note_on_c, 5, 83, 0
7, 286920, Note_on_c, 5, 80, 90
7, 286992, Note_on_c, 5, 80, 0
7, 287040, Note_on_c, 5, 76, 90
7, 287424, Note_on_c, 5, 76, 0
7, 287520, Note_on_c, 5, 80, 90
7, 287640, Note_on_c, 5, 80, 0
7, 287640, Note_on_c, 5, 76, 90
7, 287712, Note_on_c, 5, 76, 0
7, 287760, Note_on_c, 5, 80, 90
7, 287832, Note_on_c, 5, 80, 0
7, 287880, Note_on_c, 5, 76, 90
7, 287952, Note_on_c, 5, 76, 0
7, 288000, Note_on_c, 5, 71, 90
7, 288384, Note_on_c, 5, 71, 0
7, 288480, Note_on_c, 5, 76, 90
7, 288600, Note_on_c, 5, 76, 0
7, 288600, Note_on_c, 5, 71, 90
7, 288672, Note_on_c, 5, 71, 0
7, 288720, Note_on_c, 5, 76, 90
7, 288792, Note_on_c, 5, 76, 0
7, 288840, Note_on_c, 5, 71, 90
7, 288912, Note_on_c, 5, 71, 0
7, 288960, Note_on_c, 5, 68, 90
7, 289344, Note_on_c, 5, 68, 0
7, 289440, Note_on_c, 5, 71, 90
7, 289560, Note_on_c, 5, 71, 0
7, 289560, Note_on_c, 5, 68, 90
7, 289632, Note_on_c, 5, 68, 0
7, 289680, Note_on_c, 5, 71, 90
7, 289752, Note_on_c, 5, 71, 0
7, 289800, Note_on_c, 5, 68, 90
7, 289872, Note_on_c, 5, 68, 0
7, 289920, Note_on_c, 5, 64, 90
7, 290496, Note_on_c, 5, 64, 0
7, 290640, Note_on_c, 5, 68, 90
7, 290736, Note_on_c, 5, 68, 0
7, 290760, Note_on_c, 5, 71, 90
7, 290856, Note_on_c, 5, 71, 0
7, 290880, Note_on_c, 5, 76, 90
7, 291192, Note_on_c, 5, 76, 0
7, 291360, Note_on_c, 5, 71, 90
7, 291360, Note_on_c, 5, 80, 90
7, 291360, Note_on_c, 5, 64, 90
7, 291672, Note_on_c, 5, 64, 0
7, 291672, Note_on_c, 5, 80, 0
7, 291672, Note_on_c, 5, 71, 0
7, 291840, Note_on_c, 5, 76, 90
7, 291840, Note_on_c, 5, 71, 90
7, 291840, Note_on_c, 5, 64, 90
7, 292224, Note_on_c, 5, 64, 0
7, 292224, Note_on_c, 5, 71, 0
7, 292224, Note_on_c, 5, 76, 0
7, 309600, Note_on_c, 5, 83, 62
7, 310080, Note_on_c, 5, 83, 0
7, 310080, Note_on_c, 5, 75, 62
7, 310320, Note_on_c, 5, 75, 0
7, 310560, Note_on_c, 5, 76, 62
7, 310800, Note_on_c, 5, 76, 0
7, 311040, Note_on_c, 5, 78, 62
7, 311424, Note_on_c, 5, 78, 0
7, 313440, Note_on_c, 5, 83, 62
7, 313920, Note_on_c, 5, 83, 0
7, 313920, Note_on_c, 5, 76, 62
7, 314160, Note_on_c, 5, 76, 0
7, 314400, Note_on_c, 5, 78, 62
7, 314640, Note_on_c, 5, 78, 0
7, 314880, Note_on_c, 5, 80, 62
7, 315264, Note_on_c, 5, 80, 0
7, 322560, Note_on_c, 5, 64, 62
7, 325632, Note_on_c, 5, 64, 0
7, 325680, Note_on_c, 5, 64, 82
7, 326064, Note_on_c, 5, 64, 0
7, 326160, Note_on_c, 5, 64, 82
7, 326316, Note_on_c, 5, 64, 0
7, 326400, Note_on_c, 5, 64, 62
7, 329472, Note_on_c, 5, 64, 0
7, 329520, Note_on_c, 5, 64, 82
7, 329904, Note_on_c, 5, 64, 0
7, 330000, Note_on_c, 5, 64, 82
7, 330156, Note_on_c, 5, 64, 0
7, 330240, Note_on_c, 5, 65, 71
7, 330624, Note_on_c, 5, 65, 0
7, 334800, Note_on_c, 5, 85, 76
7, 334944, Note_on_c, 5, 85, 0
7, 335040, Note_on_c, 5, 85, 76
7, 335184, Note_on_c, 5, 85, 0
7, 335280, Note_on_c, 5, 85, 76
7, 335424, Note_on_c, 5, 85, 0
7, 335520, Note_on_c, 5, 85, 76
7, 335664, Note_on_c, 5, 85, 0
7, 335760, Note_on_c, 5, 85, 76
7, 335904, Note_on_c, 5, 85, 0
7, 336000, Note_on_c, 5, 85, 76
7, 336720, Note_on_c, 5, 85, 0
7, 336720, Note_on_c, 5, 83, 76
7, 336800, Note_on_c, 5, 83, 0
7, 336800, Note_on_c, 5, 81, 76
7, 336880, Note_on_c, 5, 81, 0
7, 336880, Note_on_c, 5, 80, 76
7, 336960, Note_on_c, 5, 80, 0
7, 336960, Note_on_c, 5, 78, 76
7, 337272, Note_on_c, 5, 78, 0
7, 337440, Note_on_c, 5, 78, 76
7, 337752, Note_on_c, 5, 78, 0
7, 337920, Note_on_c, 5, 77, 76
7, 338400, Note_on_c, 5, 77, 0
7, 338400, Note_on_c, 5, 80, 71
7, 338784, Note_on_c, 5, 80, 0
7, 342480, Note_on_c, 5, 85, 76
7, 342624, Note_on_c, 5, 85, 0
7, 342720, Note_on_c, 5, 85, 76
7, 342864, Note_on_c, 5, 85, 0
7, 342960, Note_on_c, 5, 85, 76
7, 343104, Note_on_c, 5, 85, 0
7, 343200, Note_on_c, 5, 85, 76
7, 343344, Note_on_c, 5, 85, 0
7, 343440, Note_on_c, 5, 85, 76
7, 343584, Note_on_c, 5, 85, 0
7, 343680, Note_on_c, 5, 85, 76
7, 344400, Note_on_c, 5, 85, 0
7, 344400, Note_on_c, 5, 83, 76
7, 344480, Note_on_c, 5, 83, 0
7, 344480, Note_on_c, 5, 81, 76
7, 344560, Note_on_c, 5, 81, 0
7, 344560, Note_on_c, 5, 80, 76
7, 344640, Note_on_c, 5, 80, 0
7, 344640, Note_on_c, 5, 78, 76
7, 344784, Note_on_c, 5, 78, 0
7, 344880, Note_on_c, 5, 78, 76
7, 345024, Note_on_c, 5, 78, 0
7, 345120, Note_on_c, 5, 78, 76
7, 345264, Note_on_c, 5, 78, 0
7, 345360, Note_on_c, 5, 78, 76
7, 345504, Note_on_c, 5, 78, 0
7, 345600, Note_on_c, 5, 77, 67
7, 345912, Note_on_c, 5, 77, 0
7, 346080, Note_on_c, 5, 61, 91
7, 346992, Note_on_c, 5, 61, 0
7, 347040, Note_on_c, 5, 68, 71
7, 347520, Note_on_c, 5, 68, 0
7, 347520, Note_on_c, 5, 69, 71
7, 347990, Note_on_c, 5, 69, 0
7, 348000, Note_on_c, 5, 71, 71
7, 348470, Note_on_c, 5, 71, 0
7, 348480, Note_on_c, 5, 73, 71
7, 350380, Note_on_c, 5, 73, 0
7, 350400, Note_on_c, 5, 74, 71
7, 353242, Note_on_c, 5, 74, 0
7, 353280, Note_on_c, 5, 73, 71
7, 353592, Note_on_c, 5, 73, 0
7, 353760, Note_on_c, 5, 57, 111
7, 354700, Note_on_c, 5, 57, 0
7, 354720, Note_on_c, 5, 71, 71
7, 355200, Note_on_c, 5, 71, 0
7, 355200, Note_on_c, 5, 69, 71
7, 355680, Note_on_c, 5, 69, 0
7, 355680, Note_on_c, 5, 68, 71
7, 356160, Note_on_c, 5, 68, 0
7, 356160, Note_on_c, 5, 66, 71
7, 356640, Note_on_c, 5, 66, 0
7, 356640, Note_on_c, 5, 69, 71
7, 357110, Note_on_c, 5, 69, 0
7, 357120, Note_on_c, 5, 69, 71
7, 358060, Note_on_c, 5, 69, 0
7, 358080, Note_on_c, 5, 71, 71
7, 360922, Note_on_c, 5, 71, 0
7, 360960, Note_on_c, 5, 69, 53
7, 361920, Note_on_c, 5, 69, 0
7, 361920, Note_on_c, 5, 70, 53
7, 362880, Note_on_c, 5, 70, 0
7, 362880, Note_on_c, 5, 71, 56
7, 363840, Note_on_c, 5, 71, 0
7, 363840, Note_on_c, 5, 72, 61
7, 364780, Note_on_c, 5, 72, 0
7, 364800, Note_on_c, 5, 73, 67
7, 365760, Note_on_c, 5, 73, 0
7, 365760, Note_on_c, 5, 74, 75
7, 366700, Note_on_c, 5, 74, 0
7, 366720, Note_on_c, 5, 73, 74
7, 367200, Note_on_c, 5, 73, 0
7, 367200, Note_on_c, 5, 71, 71
7, 367680, Note_on_c, 5, 71, 0
7, 367680, Note_on_c, 5, 69, 66
7, 368160, Note_on_c, 5, 69, 0
7, 368160, Note_on_c, 5, 68, 59
7, 368630, Note_on_c, 5, 68, 0
7, 368880, Note_on_c, 5, 69, 59
7, 369072, Note_on_c, 5, 69, 0
7, 369120, Note_on_c, 5, 69, 60
7, 369312, Note_on_c, 5, 69, 0
7, 369360, Note_on_c, 5, 69, 60
7, 369552, Note_on_c, 5, 69, 0
7, 369840, Note_on_c, 5, 70, 62
7, 370032, Note_on_c, 5, 70, 0
7, 370080, Note_on_c, 5, 70, 64
7, 370272, Note_on_c, 5, 70, 0
7, 370320, Note_on_c, 5, 70, 65
7, 370512, Note_on_c, 5, 70, 0
7, 370800, Note_on_c, 5, 71, 68
7, 370992, Note_on_c, 5, 71, 0
7, 371040, Note_on_c, 5, 71, 70
7, 371232, Note_on_c, 5, 71, 0
7, 371280, Note_on_c, 5, 71, 72
7, 371472, Note_on_c, 5, 71, 0
7, 371760, Note_on_c, 5, 72, 77
7, 371952, Note_on_c, 5, 72, 0
7, 372000, Note_on_c, 5, 72, 79
7, 372192, Note_on_c, 5, 72, 0
7, 372240, Note_on_c, 5, 72, 82
7, 372432, Note_on_c, 5, 72, 0
7, 372720, Note_on_c, 5, 73, 88
7, 372912, Note_on_c, 5, 73, 0
7, 372960, Note_on_c, 5, 73, 91
7, 373152, Note_on_c, 5, 73, 0
7, 373200, Note_on_c, 5, 73, 94
7, 373392, Note_on_c, 5, 73, 0
7, 373440, Note_on_c, 5, 64, 98
7, 373440, Note_on_c, 5, 74, 98
7, 375840, Note_on_c, 5, 74, 0
7, 375840, Note_on_c, 5, 64, 0
7, 380160, Note_on_c, 5, 69, 71
7, 380472, Note_on_c, 5, 69, 0
7, 380640, Note_on_c, 5, 69, 71
7, 381120, Note_on_c, 5, 69, 0
7, 381120, Note_on_c, 5, 73, 71
7, 381600, Note_on_c, 5, 73, 0
7, 381600, Note_on_c, 5, 76, 71
7, 381984, Note_on_c, 5, 76, 0
7, 382080, Note_on_c, 5, 76, 71
7, 382200, Note_on_c, 5, 76, 0
7, 382200, Note_on_c, 5, 74, 71
7, 382488, Note_on_c, 5, 74, 0
7, 382560, Note_on_c, 5, 73, 71
7, 382680, Note_on_c, 5, 73, 0
7, 382680, Note_on_c, 5, 71, 71
7, 382968, Note_on_c, 5, 71, 0
7, 383040, Note_on_c, 5, 69, 71
7, 383160, Note_on_c, 5, 69, 0
7, 383160, Note_on_c, 5, 68, 71
7, 383448, Note_on_c, 5, 68, 0
7, 383520, Note_on_c, 5, 66, 71
7, 383640, Note_on_c, 5, 66, 0
7, 383640, Note_on_c, 5, 64, 71
7, 383928, Note_on_c, 5, 64, 0
7, 384000, Note_on_c, 5, 71, 71
7, 384312, Note_on_c, 5, 71, 0
7, 384480, Note_on_c, 5, 71, 71
7, 384960, Note_on_c, 5, 71, 0
7, 384960, Note_on_c, 5, 74, 71
7, 385440, Note_on_c, 5, 74, 0
7, 385440, Note_on_c, 5, 78, 71
7, 385896, Note_on_c, 5, 78, 0
7, 385920, Note_on_c, 5, 76, 71
7, 386640, Note_on_c, 5, 76, 0
7, 386640, Note_on_c, 5, 73, 71
7, 386880, Note_on_c, 5, 73, 0
7, 386880, Note_on_c, 5, 76, 71
7, 387264, Note_on_c, 5, 76, 0
7, 387840, Note_on_c, 5, 69, 71
7, 388224, Note_on_c, 5, 69, 0
7, 388320, Note_on_c, 5, 81, 71
7, 389280, Note_on_c, 5, 81, 0
7, 389280, Note_on_c, 5, 80, 71
7, 390240, Note_on_c, 5, 80, 0
7, 390240, Note_on_c, 5, 78, 71
7, 391200, Note_on_c, 5, 78, 0
7, 391200, Note_on_c, 5, 76, 71
7, 392160, Note_on_c, 5, 76, 0
7, 392160, Note_on_c, 5, 74, 71
7, 393120, Note_on_c, 5, 74, 0
7, 393120, Note_on_c, 5, 73, 71
7, 393840, Note_on_c, 5, 73, 0
7, 393840, Note_on_c, 5, 71, 71
7, 394080, Note_on_c, 5, 71, 0
7, 394080, Note_on_c, 5, 70, 71
7, 394320, Note_on_c, 5, 70, 0
7, 394320, Note_on_c, 5, 71, 71
7, 394560, Note_on_c, 5, 71, 0
7, 394560, Note_on_c, 5, 69, 71
7, 394800, Note_on_c, 5, 69, 0
7, 394800, Note_on_c, 5, 68, 71
7, 395040, Note_on_c, 5, 68, 0
7, 395040, Note_on_c, 5, 66, 71
7, 395280, Note_on_c, 5, 66, 0
7, 395280, Note_on_c, 5, 64, 71
7, 395472, Note_on_c, 5, 64, 0
7, 395520, Note_on_c, 5, 69, 58
7, 397440, Note_on_c, 5, 69, 0
7, 397440, Note_on_c, 5, 71, 58
7, 399360, Note_on_c, 5, 71, 0
7, 399360, Note_on_c, 5, 64, 58
7, 399360, Note_on_c, 5, 74, 58
7, 401280, Note_on_c, 5, 74, 0
7, 401280, Note_on_c, 5, 73, 58
7, 403200, Note_on_c, 5, 73, 0
7, 403200, Note_on_c, 5, 64, 0
7, 414720, Note_on_c, 5, 69, 82
7, 414816, Note_on_c, 5, 69, 0
7, 414840, Note_on_c, 5, 64, 117
7, 414936, Note_on_c, 5, 64, 0
7, 414960, Note_on_c, 5, 66, 117
7, 415056, Note_on_c, 5, 66, 0
7, 415080, Note_on_c, 5, 68, 117
7, 415176, Note_on_c, 5, 68, 0
7, 415200, Note_on_c, 5, 69, 117
7, 415296, Note_on_c, 5, 69, 0
7, 415320, Note_on_c, 5, 71, 117
7, 415416, Note_on_c, 5, 71, 0
7, 415440, Note_on_c, 5, 73, 117
7, 415536, Note_on_c, 5, 73, 0
7, 415560, Note_on_c, 5, 74, 117
7, 415656, Note_on_c, 5, 74, 0
7, 415680, Note_on_c, 5, 76, 117
7, 415776, Note_on_c, 5, 76, 0
7, 415800, Note_on_c, 5, 78, 117
7, 415896, Note_on_c, 5, 78, 0
7, 415920, Note_on_c, 5, 80, 117
7, 416016, Note_on_c, 5, 80, 0
7, 416040, Note_on_c, 5, 81, 117
7, 416136, Note_on_c, 5, 81, 0
7, 416160, Note_on_c, 5, 80, 117
7, 416256, Note_on_c, 5, 80, 0
7, 416280, Note_on_c, 5, 78, 117
7, 416376, Note_on_c, 5, 78, 0
7, 416400, Note_on_c, 5, 76, 117
7, 416496, Note_on_c, 5, 76, 0
7, 416520, Note_on_c, 5, 74, 117
7, 416616, Note_on_c, 5, 74, 0
7, 416640, Note_on_c, 5, 73, 105
7, 416784, Note_on_c, 5, 73, 0
7, 416880, Note_on_c, 5, 73, 105
7, 417024, Note_on_c, 5, 73, 0
7, 417120, Note_on_c, 5, 78, 105
7, 417264, Note_on_c, 5, 78, 0
7, 417360, Note_on_c, 5, 78, 105
7, 417504, Note_on_c, 5, 78, 0
7, 417600, Note_on_c, 5, 76, 105
7, 417744, Note_on_c, 5, 76, 0
7, 417840, Note_on_c, 5, 76, 105
7, 417984, Note_on_c, 5, 76, 0
7, 418080, Note_on_c, 5, 68, 105
7, 418224, Note_on_c, 5, 68, 0
7, 418320, Note_on_c, 5, 68, 105
7, 418464, Note_on_c, 5, 68, 0
7, 418560, Note_on_c, 5, 69, 105
7, 418944, Note_on_c, 5, 69, 0
7, 419040, Note_on_c, 5, 76, 105
7, 419160, Note_on_c, 5, 76, 0
7, 419160, Note_on_c, 5, 73, 105
7, 419238, Note_on_c, 5, 73, 0
7, 419280, Note_on_c, 5, 76, 105
7, 419358, Note_on_c, 5, 76, 0
7, 419400, Note_on_c, 5, 73, 105
7, 419478, Note_on_c, 5, 73, 0
7, 419520, Note_on_c, 5, 81, 105
7, 419904, Note_on_c, 5, 81, 0
7, 420000, Note_on_c, 5, 76, 105
7, 420120, Note_on_c, 5, 76, 0
7, 420120, Note_on_c, 5, 73, 105
7, 420198, Note_on_c, 5, 73, 0
7, 420240, Note_on_c, 5, 76, 105
7, 420318, Note_on_c, 5, 76, 0
7, 420360, Note_on_c, 5, 73, 105
7, 420438, Note_on_c, 5, 73, 0
7, 420480, Note_on_c, 5, 69, 105
7, 420792, Note_on_c, 5, 69, 0
7, 420960, Note_on_c, 5, 57, 105
7, 421194, Note_on_c, 5, 57, 0
7, 421320, Note_on_c, 5, 57, 105
7, 421398, Note_on_c, 5, 57, 0
7, 421440, Note_on_c, 5, 57, 105
7, 421824, Note_on_c, 5, 57, 0
7, 433920, Note_on_c, 5, 78, 62
7, 434160, Note_on_c, 5, 78, 0
7, 434880, Note_on_c, 5, 78, 62
7, 435120, Note_on_c, 5, 78, 0
7, 435840, Note_on_c, 5, 78, 62
7, 437760, Note_on_c, 5, 78, 0
7, 437760, Note_on_c, 5, 76, 62
7, 438000, Note_on_c, 5, 76, 0
7, 438720, Note_on_c, 5, 76, 62
7, 438960, Note_on_c, 5, 76, 0
7, 439680, Note_on_c, 5, 76, 62
7, 441600, Note_on_c, 5, 76, 0
7, 441600, Note_on_c, 5, 74, 62
7, 441840, Note_on_c, 5, 74, 0
7, 442560, Note_on_c, 5, 74, 62
7, 442800, Note_on_c, 5, 74, 0
7, 443520, Note_on_c, 5, 74, 62
7, 445440, Note_on_c, 5, 74, 0
7, 445440, Note_on_c, 5, 73, 62
7, 445680, Note_on_c, 5, 73, 0
7, 446400, Note_on_c, 5, 73, 62
7, 446640, Note_on_c, 5, 73, 0
7, 447360, Note_on_c, 5, 71, 62
7, 449592, Note_on_c, 5, 71, 0
7, 449760, Note_on_c, 5, 76, 62
7, 450072, Note_on_c, 5, 76, 0
7, 450720, Note_on_c, 5, 76, 71
7, 451200, Note_on_c, 5, 76, 0
7, 451200, Note_on_c, 5, 73, 71
7, 451464, Note_on_c, 5, 73, 0
7, 451680, Note_on_c, 5, 73, 71
7, 452160, Note_on_c, 5, 73, 0
7, 452160, Note_on_c, 5, 74, 71
7, 452424, Note_on_c, 5, 74, 0
7, 452640, Note_on_c, 5, 74, 71
7, 453120, Note_on_c, 5, 74, 0
7, 453120, Note_on_c, 5, 76, 71
7, 453504, Note_on_c, 5, 76, 0
7, 454560, Note_on_c, 5, 75, 71
7, 455040, Note_on_c, 5, 75, 0
7, 455040, Note_on_c, 5, 76, 62
7, 455424, Note_on_c, 5, 76, 0
7, 456480, Note_on_c, 5, 75, 71
7, 456960, Note_on_c, 5, 75, 0
7, 456960, Note_on_c, 5, 76, 62
7, 457344, Note_on_c, 5, 76, 0
7, 467520, Note_on_c, 5, 67, 62
7, 468480, Note_on_c, 5, 67, 0
7, 468480, Note_on_c, 5, 66, 62
7, 469440, Note_on_c, 5, 66, 0
7, 469440, Note_on_c, 5, 68, 62
7, 470400, Note_on_c, 5, 68, 0
7, 470400, Note_on_c, 5, 69, 62
7, 471360, Note_on_c, 5, 69, 0
7, 471360, Note_on_c, 5, 79, 62
7, 472320, Note_on_c, 5, 79, 0
7, 472320, Note_on_c, 5, 78, 62
7, 473280, Note_on_c, 5, 78, 0
7, 473280, Note_on_c, 5, 80, 62
7, 474240, Note_on_c, 5, 80, 0
7, 474240, Note_on_c, 5, 81, 62
7, 474720, Note_on_c, 5, 81, 0
7, 488400, Note_on_c, 5, 76, 80
7, 488640, Note_on_c, 5, 76, 0
7, 488640, Note_on_c, 5, 75, 80
7, 488880, Note_on_c, 5, 75, 0
7, 488880, Note_on_c, 5, 78, 80
7, 489120, Note_on_c, 5, 78, 0
7, 489120, Note_on_c, 5, 76, 80
7, 489360, Note_on_c, 5, 76, 0
7, 489360, Note_on_c, 5, 73, 80
7, 489600, Note_on_c, 5, 73, 0
7, 489600, Note_on_c, 5, 69, 71
7, 489840, Note_on_c, 5, 69, 0
7, 490080, Note_on_c, 5, 69, 71
7, 490560, Note_on_c, 5, 69, 0
7, 490560, Note_on_c, 5, 71, 71
7, 490800, Note_on_c, 5, 71, 0
7, 491040, Note_on_c, 5, 71, 71
7, 491520, Note_on_c, 5, 71, 0
7, 491520, Note_on_c, 5, 73, 71
7, 491760, Note_on_c, 5, 73, 0
7, 492000, Note_on_c, 5, 73, 71
7, 492480, Note_on_c, 5, 73, 0
7, 492480, Note_on_c, 5, 74, 71
7, 492720, Note_on_c, 5, 74, 0
7, 492960, Note_on_c, 5, 74, 71
7, 493416, Note_on_c, 5, 74, 0
7, 493440, Note_on_c, 5, 78, 71
7, 493680, Note_on_c, 5, 78, 0
7, 493680, Note_on_c, 5, 76, 71
7, 493920, Note_on_c, 5, 76, 0
7, 493920, Note_on_c, 5, 74, 71
7, 494160, Note_on_c, 5, 74, 0
7, 494160, Note_on_c, 5, 73, 71
7, 494352, Note_on_c, 5, 73, 0
7, 494400, Note_on_c, 5, 73, 71
7, 494640, Note_on_c, 5, 73, 0
7, 494640, Note_on_c, 5, 71, 71
7, 494880, Note_on_c, 5, 71, 0
7, 494880, Note_on_c, 5, 73, 71
7, 495120, Note_on_c, 5, 73, 0
7, 495120, Note_on_c, 5, 69, 71
7, 495312, Note_on_c, 5, 69, 0
7, 495360, Note_on_c, 5, 73, 71
7, 495840, Note_on_c, 5, 73, 0
7, 495840, Note_on_c, 5, 71, 71
7, 496032, Note_on_c, 5, 71, 0
7, 510720, Note_on_c, 5, 76, 67
7, 513024, Note_on_c, 5, 76, 0
7, 513120, Note_on_c, 5, 76, 71
7, 513888, Note_on_c, 5, 76, 0
7, 514080, Note_on_c, 5, 76, 71
7, 514752, Note_on_c, 5, 76, 0
7, 514800, Note_on_c, 5, 76, 71
7, 515184, Note_on_c, 5, 76, 0
7, 515280, Note_on_c, 5, 76, 71
7, 515664, Note_on_c, 5, 76, 0
7, 515760, Note_on_c, 5, 76, 71
7, 516144, Note_on_c, 5, 76, 0
7, 516240, Note_on_c, 5, 76, 71
7, 516432, Note_on_c, 5, 76, 0
7, 516480, Note_on_c, 5, 76, 71
7, 516864, Note_on_c, 5, 76, 0
7, 518400, Note_on_c, 5, 81, 71
7, 518784, Note_on_c, 5, 81, 0
7, 520560, Note_on_c, 5, 73, 71
7, 520716, Note_on_c, 5, 73, 0
7, 520800, Note_on_c, 5, 73, 71
7, 520956, Note_on_c, 5, 73, 0
7, 521040, Note_on_c, 5, 73, 71
7, 521196, Note_on_c, 5, 73, 0
7, 521520, Note_on_c, 5, 71, 71
7, 521676, Note_on_c, 5, 71, 0
7, 521760, Note_on_c, 5, 71, 71
7, 521916, Note_on_c, 5, 71, 0
7, 522000, Note_on_c, 5, 71, 71
7, 522156, Note_on_c, 5, 71, 0
7, 522240, Note_on_c, 5, 69, 48
7, 522432, Note_on_c, 5, 69, 0
7, 522720, Note_on_c, 5, 80, 50
7, 523200, Note_on_c, 5, 80, 0
7, 523200, Note_on_c, 5, 81, 53
7, 523680, Note_on_c, 5, 81, 0
7, 523680, Note_on_c, 5, 80, 55
7, 524160, Note_on_c, 5, 80, 0
7, 524160, Note_on_c, 5, 81, 58
7, 524640, Note_on_c, 5, 81, 0
7, 524640, Note_on_c, 5, 80, 60
7, 525120, Note_on_c, 5, 80, 0
7, 525120, Note_on_c, 5, 81, 63
7, 525600, Note_on_c, 5, 81, 0
7, 525600, Note_on_c, 5, 80, 67
7, 526032, Note_on_c, 5, 80, 0
7, 526080, Note_on_c, 5, 81, 68
7, 526272, Note_on_c, 5, 81, 0
7, 526320, Note_on_c, 5, 81, 68
7, 526512, Note_on_c, 5, 81, 0
7, 526560, Note_on_c, 5, 80, 68
7, 526752, Note_on_c, 5, 80, 0
7, 526800, Note_on_c, 5, 80, 68
7, 526992, Note_on_c, 5, 80, 0
7, 527040, Note_on_c, 5, 81, 69
7, 527232, Note_on_c, 5, 81, 0
7, 527280, Note_on_c, 5, 81, 69
7, 527472, Note_on_c, 5, 81, 0
7, 527520, Note_on_c, 5, 80, 69
7, 527712, Note_on_c, 5, 80, 0
7, 527760, Note_on_c, 5, 80, 69
7, 527952, Note_on_c, 5, 80, 0
7, 528000, Note_on_c, 5, 81, 71
7, 528384, Note_on_c, 5, 81, 0
7, 530160, Note_on_c, 5, 67, 91
7, 530520, Note_on_c, 5, 67, 0
7, 530640, Note_on_c, 5, 67, 71
7, 530820, Note_on_c, 5, 67, 0
7, 531120, Note_on_c, 5, 67, 91
7, 531480, Note_on_c, 5, 67, 0
7, 531600, Note_on_c, 5, 67, 71
7, 531780, Note_on_c, 5, 67, 0
7, 531840, Note_on_c, 5, 66, 71
7, 532224, Note_on_c, 5, 66, 0
7, 534000, Note_on_c, 5, 72, 91
7, 534360, Note_on_c, 5, 72, 0
7, 534480, Note_on_c, 5, 72, 71
7, 534660, Note_on_c, 5, 72, 0
7, 534960, Note_on_c, 5, 75, 91
7, 535320, Note_on_c, 5, 75, 0
7, 535440, Note_on_c, 5, 75, 71
7, 535620, Note_on_c, 5, 75, 0
7, 535680, Note_on_c, 5, 76, 91
7, 535920, Note_on_c, 5, 76, 0
7, 535920, Note_on_c, 5, 73, 71
7, 536076, Note_on_c, 5, 73, 0
7, 536160, Note_on_c, 5, 76, 71
7, 536304, Note_on_c, 5, 76, 0
7, 536400, Note_on_c, 5, 76, 71
7, 536544, Note_on_c, 5, 76, 0
7, 536640, Note_on_c, 5, 76, 71
7, 536952, Note_on_c, 5, 76, 0
7, 543600, Note_on_c, 5, 69, 70
7, 543756, Note_on_c, 5, 69, 0
7, 543840, Note_on_c, 5, 69, 71
7, 543996, Note_on_c, 5, 69, 0
7, 544080, Note_on_c, 5, 69, 73
7, 544236, Note_on_c, 5, 69, 0
7, 544560, Note_on_c, 5, 81, 79
7, 544716, Note_on_c, 5, 81, 0
7, 544800, Note_on_c, 5, 81, 82
7, 544956, Note_on_c, 5, 81, 0
7, 545040, Note_on_c, 5, 81, 85
7, 545196, Note_on_c, 5, 81, 0
7, 545520, Note_on_c, 5, 80, 90
7, 545676, Note_on_c, 5, 80, 0
7, 545760, Note_on_c, 5, 80, 93
7, 545916, Note_on_c, 5, 80, 0
7, 546000, Note_on_c, 5, 80, 96
7, 546156, Note_on_c, 5, 80, 0
7, 546480, Note_on_c, 5, 68, 101
7, 546636, Note_on_c, 5, 68, 0
7, 546720, Note_on_c, 5, 68, 104
7, 546876, Note_on_c, 5, 68, 0
7, 546960, Note_on_c, 5, 68, 107
7, 547116, Note_on_c, 5, 68, 0
7, 547200, Note_on_c, 5, 69, 107
7, 547356, Note_on_c, 5, 69, 0
7, 547440, Note_on_c, 5, 69, 71
7, 547824, Note_on_c, 5, 69, 0
7, 547920, Note_on_c, 5, 69, 71
7, 548304, Note_on_c, 5, 69, 0
7, 548400, Note_on_c, 5, 69, 71
7, 548784, Note_on_c, 5, 69, 0
7, 548880, Note_on_c, 5, 69, 71
7, 549072, Note_on_c, 5, 69, 0
7, 549120, Note_on_c, 5, 69, 71
7, 550080, Note_on_c, 5, 69, 0
7, 550080, Note_on_c, 5, 67, 71
7, 550464, Note_on_c, 5, 67, 0
7, 550560, Note_on_c, 5, 79, 80
7, 550680, Note_on_c, 5, 79, 0
7, 550680, Note_on_c, 5, 78, 80
7, 550800, Note_on_c, 5, 78, 0
7, 550800, Note_on_c, 5, 76, 80
7, 550920, Note_on_c, 5, 76, 0
7, 550920, Note_on_c, 5, 74, 80
7, 551040, Note_on_c, 5, 74, 0
7, 551040, Note_on_c, 5, 73, 71
7, 551232, Note_on_c, 5, 73, 0
7, 551280, Note_on_c, 5, 73, 71
7, 551664, Note_on_c, 5, 73, 0
7, 551760, Note_on_c, 5, 73, 71
7, 552144, Note_on_c, 5, 73, 0
7, 552240, Note_on_c, 5, 73, 71
7, 552624, Note_on_c, 5, 73, 0
7, 552720, Note_on_c, 5, 73, 71
7, 553200, Note_on_c, 5, 73, 0
7, 553200, Note_on_c, 5, 71, 69
7, 553392, Note_on_c, 5, 71, 0
7, 553440, Note_on_c, 5, 83, 72
7, 553560, Note_on_c, 5, 83, 0
7, 553560, Note_on_c, 5, 81, 74
7, 553680, Note_on_c, 5, 81, 0
7, 553680, Note_on_c, 5, 79, 76
7, 553800, Note_on_c, 5, 79, 0
7, 553800, Note_on_c, 5, 78, 78
7, 553920, Note_on_c, 5, 78, 0
7, 553920, Note_on_c, 5, 76, 80
7, 554112, Note_on_c, 5, 76, 0
7, 554160, Note_on_c, 5, 76, 84
7, 554544, Note_on_c, 5, 76, 0
7, 554640, Note_on_c, 5, 76, 92
7, 555120, Note_on_c, 5, 76, 0
7, 555120, Note_on_c, 5, 74, 99
7, 555312, Note_on_c, 5, 74, 0
7, 555360, Note_on_c, 5, 86, 105
7, 555480, Note_on_c, 5, 86, 0
7, 555480, Note_on_c, 5, 85, 105
7, 555600, Note_on_c, 5, 85, 0
7, 555600, Note_on_c, 5, 83, 105
7, 555720, Note_on_c, 5, 83, 0
7, 555720, Note_on_c, 5, 81, 105
7, 555840, Note_on_c, 5, 81, 0
7, 555840, Note_on_c, 5, 80, 105
7, 556032, Note_on_c, 5, 80, 0
7, 556080, Note_on_c, 5, 80, 105
7, 556464, Note_on_c, 5, 80, 0
7, 556560, Note_on_c, 5, 80, 105
7, 556752, Note_on_c, 5, 80, 0
7, 556800, Note_on_c, 5, 81, 105
7, 556956, Note_on_c, 5, 81, 0
7, 557040, Note_on_c, 5, 85, 105
7, 557118, Note_on_c, 5, 85, 0
7, 557160, Note_on_c, 5, 81, 105
7, 557238, Note_on_c, 5, 81, 0
7, 557280, Note_on_c, 5, 76, 105
7, 557436, Note_on_c, 5, 76, 0
7, 557520, Note_on_c, 5, 76, 105
7, 557676, Note_on_c, 5, 76, 0
7, 557760, Note_on_c, 5, 78, 105
7, 557916, Note_on_c, 5, 78, 0
7, 558000, Note_on_c, 5, 81, 105
7, 558078, Note_on_c, 5, 81, 0
7, 558120, Note_on_c, 5, 78, 105
7, 558198, Note_on_c, 5, 78, 0
7, 558240, Note_on_c, 5, 74, 105
7, 558396, Note_on_c, 5, 74, 0
7, 558480, Note_on_c, 5, 74, 105
7, 558636, Note_on_c, 5, 74, 0
7, 558720, Note_on_c, 5, 73, 105
7, 558876, Note_on_c, 5, 73, 0
7, 558960, Note_on_c, 5, 76, 105
7, 559038, Note_on_c, 5, 76, 0
7, 559080, Note_on_c, 5, 73, 105
7, 559158, Note_on_c, 5, 73, 0
7, 559200, Note_on_c, 5, 69, 105
7, 559356, Note_on_c, 5, 69, 0
7, 559440, Note_on_c, 5, 73, 105
7, 559518, Note_on_c, 5, 73, 0
7, 559560, Note_on_c, 5, 69, 105
7, 559638, Note_on_c, 5, 69, 0
7, 559680, Note_on_c, 5, 66, 105
7, 559836, Note_on_c, 5, 66, 0
7, 559920, Note_on_c, 5, 73, 105
7, 559920, Note_on_c, 5, 81, 105
7, 560304, Note_on_c, 5, 81, 0
7, 560304, Note_on_c, 5, 73, 0
7, 560400, Note_on_c, 5, 81, 105
7, 560400, Note_on_c, 5, 73, 105
7, 560592, Note_on_c, 5, 73, 0
7, 560592, Note_on_c, 5, 81, 0
7, 560640, Note_on_c, 5, 73, 105
7, 560640, Note_on_c, 5, 81, 105
7, 561792, Note_on_c, 5, 81, 0
7, 561792, Note_on_c, 5, 73, 0
7, 638880, Note_on_c, 5, 69, 127
7, 638976, Note_on_c, 5, 69, 0
7, 639000, Note_on_c, 5, 64, 117
7, 639096, Note_on_c, 5, 64, 0
7, 639120, Note_on_c, 5, 66, 117
7, 639216, Note_on_c, 5, 66, 0
7, 639240, Note_on_c, 5, 68, 117
7, 639336, Note_on_c, 5, 68, 0
7, 639360, Note_on_c, 5, 69, 117
7, 639456, Note_on_c, 5, 69, 0
7, 639480, Note_on_c, 5, 71, 117
7, 639576, Note_on_c, 5, 71, 0
7, 639600, Note_on_c, 5, 73, 117
7, 639696, Note_on_c, 5, 73, 0
7, 639720, Note_on_c, 5, 74, 117
7, 639816, Note_on_c, 5, 74, 0
7, 639840, Note_on_c, 5, 76, 117
7, 639936, Note_on_c, 5, 76, 0
7, 639960, Note_on_c, 5, 78, 117
7, 640056, Note_on_c, 5, 78, 0
7, 640080, Note_on_c, 5, 80, 117
7, 640176, Note_on_c, 5, 80, 0
7, 640200, Note_on_c, 5, 81, 117
7, 640296, Note_on_c, 5, 81, 0
7, 640320, Note_on_c, 5, 80, 117
7, 640416, Note_on_c, 5, 80, 0
7, 640440, Note_on_c, 5, 78, 117
7, 640536, Note_on_c, 5, 78, 0
7, 640560, Note_on_c, 5, 76, 117
7, 640656, Note_on_c, 5, 76, 0
7, 640680, Note_on_c, 5, 74, 117
7, 640776, Note_on_c, 5, 74, 0
7, 640800, Note_on_c, 5, 73, 117
7, 640944, Note_on_c, 5, 73, 0
7, 641040, Note_on_c, 5, 73, 117
7, 641184, Note_on_c, 5, 73, 0
7, 641280, Note_on_c, 5, 78, 117
7, 641424, Note_on_c, 5, 78, 0
7, 641520, Note_on_c, 5, 78, 117
7, 641664, Note_on_c, 5, 78, 0
7, 641760, Note_on_c, 5, 76, 117
7, 641904, Note_on_c, 5, 76, 0
7, 642000, Note_on_c, 5, 76, 117
7, 642144, Note_on_c, 5, 76, 0
7, 642240, Note_on_c, 5, 68, 117
7, 642384, Note_on_c, 5, 68, 0
7, 642480, Note_on_c, 5, 68, 117
7, 642624, Note_on_c, 5, 68, 0
7, 642720, Note_on_c, 5, 69, 127
7, 642816, Note_on_c, 5, 69, 0
7, 642840, Note_on_c, 5, 64, 117
7, 642936, Note_on_c, 5, 64, 0
7, 642960, Note_on_c, 5, 66, 117
7, 643056, Note_on_c, 5, 66, 0
7, 643080, Note_on_c, 5, 68, 117
7, 643176, Note_on_c, 5, 68, 0
7, 643200, Note_on_c, 5, 69, 117
7, 643296, Note_on_c, 5, 69, 0
7, 643320, Note_on_c, 5, 71, 117
7, 643416, Note_on_c, 5, 71, 0
7, 643440, Note_on_c, 5, 73, 117
7, 643536, Note_on_c, 5, 73, 0
7, 643560, Note_on_c, 5, 74, 117
7, 643656, Note_on_c, 5, 74, 0
7, 643680, Note_on_c, 5, 76, 117
7, 643776, Note_on_c, 5, 76, 0
7, 643800, Note_on_c, 5, 78, 117
7, 643896, Note_on_c, 5, 78, 0
7, 643920, Note_on_c, 5, 80, 117
7, 644016, Note_on_c, 5, 80, 0
7, 644040, Note_on_c, 5, 81, 117
7, 644136, Note_on_c, 5, 81, 0
7, 644160, Note_on_c, 5, 80, 117
7, 644256, Note_on_c, 5, 80, 0
7, 644280, Note_on_c, 5, 78, 117
7, 644376, Note_on_c, 5, 78, 0
7, 644400, Note_on_c, 5, 76, 117
7, 644496, Note_on_c, 5, 76, 0
7, 644520, Note_on_c, 5, 74, 117
7, 644616, Note_on_c, 5, 74, 0
7, 644640, Note_on_c, 5, 73, 117
7, 644784, Note_on_c, 5, 73, 0
7, 644880, Note_on_c, 5, 73, 117
7, 645024, Note_on_c, 5, 73, 0
7, 645120, Note_on_c, 5, 78, 117
7, 645264, Note_on_c, 5, 78, 0
7, 645360, Note_on_c, 5, 78, 117
7, 645504, Note_on_c, 5, 78, 0
7, 645600, Note_on_c, 5, 76, 117
7, 645744, Note_on_c, 5, 76, 0
7, 645840, Note_on_c, 5, 76, 117
7, 645984, Note_on_c, 5, 76, 0
7, 646080, Note_on_c, 5, 68, 117
7, 646224, Note_on_c, 5, 68, 0
7, 646320, Note_on_c, 5, 68, 117
7, 646464, Note_on_c, 5, 68, 0
7, 646560, Note_on_c, 5, 69, 117
7, 646944, Note_on_c, 5, 69, 0
7, 647040, Note_on_c, 5, 76, 117
7, 647160, Note_on_c, 5, 76, 0
7, 647160, Note_on_c, 5, 73, 105
7, 647238, Note_on_c, 5, 73, 0
7, 647280, Note_on_c, 5, 76, 105
7, 647358, Note_on_c, 5, 76, 0
7, 647400, Note_on_c, 5, 73, 105
7, 647478, Note_on_c, 5, 73, 0
7, 647520, Note_on_c, 5, 69, 105
7, 647904, Note_on_c, 5, 69, 0
7, 648000, Note_on_c, 5, 73, 105
7, 648120, Note_on_c, 5, 73, 0
7, 648120, Note_on_c, 5, 69, 105
7, 648198, Note_on_c, 5, 69, 0
7, 648240, Note_on_c, 5, 73, 105
7, 648318, Note_on_c, 5, 73, 0
7, 648360, Note_on_c, 5, 69, 105
7, 648438, Note_on_c, 5, 69, 0
7, 648480, Note_on_c, 5, 64, 105
7, 648864, Note_on_c, 5, 64, 0
7, 648960, Note_on_c, 5, 69, 105
7, 649080, Note_on_c, 5, 69, 0
7, 649080, Note_on_c, 5, 64, 105
7, 649158, Note_on_c, 5, 64, 0
7, 649200, Note_on_c, 5, 69, 105
7, 649278, Note_on_c, 5, 69, 0
7, 649320, Note_on_c, 5, 64, 105
7, 649398, Note_on_c, 5, 64, 0
7, 649440, Note_on_c, 5, 61, 105
7, 649824, Note_on_c, 5, 61, 0
7, 649920, Note_on_c, 5, 64, 105
7, 650040, Note_on_c, 5, 64, 0
7, 650040, Note_on_c, 5, 61, 105
7, 650118, Note_on_c, 5, 61, 0
7, 650160, Note_on_c, 5, 64, 105
7, 650238, Note_on_c, 5, 64, 0
7, 650280, Note_on_c, 5, 61, 105
7, 650358, Note_on_c, 5, 61, 0
7, 650400, Note_on_c, 5, 57, 105
7, 651084, Note_on_c, 5, 57, 0
7, 651120, Note_on_c, 5, 61, 105
7, 651198, Note_on_c, 5, 61, 0
7, 651240, Note_on_c, 5, 64, 105
7, 651318, Note_on_c, 5, 64, 0
7, 651360, Note_on_c, 5, 69, 105
7, 651672, Note_on_c, 5, 69, 0
7, 651840, Note_on_c, 5, 69, 105
7, 651840, Note_on_c, 5, 73, 105
7, 651840, Note_on_c, 5, 76, 105
7, 652152, Note_on_c, 5, 76, 0
7, 652152, Note_on_c, 5, 73, 0
7, 652152, Note_on_c, 5, 69, 0
7, 652320, Note_on_c, 5, 64, 105
7, 652320, Note_on_c, 5, 73, 105
7, 652320, Note_on_c, 5, 81, 105
7, 652704, Note_on_c, 5, 81, 0
7, 652704, Note_on_c, 5, 73, 0
7, 652704, Note_on_c, 5, 64, 0
7, 652704, End_track
8, 0, Start_track
8, 0, Sequencer_specific, 04, 43, 00, 01, 00
8, 0, Program_c, 6, 48
8, 0, Control_c, 6, 7, 104
8, 0, Control_c, 6, 10, 40
8, 0, Control_c, 6, 91, 80
8, 1920, Note_on_c, 6, 61, 71
8, 2064, Note_on_c, 6, 61, 0
8, 2160, Note_on_c, 6, 64, 71
8, 2304, Note_on_c, 6, 64, 0
8, 2400, Note_on_c, 6, 61, 71
8, 2544, Note_on_c, 6, 61, 0
8, 2640, Note_on_c, 6, 64, 71
8, 2784, Note_on_c, 6, 64, 0
8, 2880, Note_on_c, 6, 61, 71
8, 3024, Note_on_c, 6, 61, 0
8, 3120, Note_on_c, 6, 64, 71
8, 3264, Note_on_c, 6, 64, 0
8, 3360, Note_on_c, 6, 61, 71
8, 3504, Note_on_c, 6, 61, 0
8, 3600, Note_on_c, 6, 64, 71
8, 3744, Note_on_c, 6, 64, 0
8, 3840, Note_on_c, 6, 62, 71
8, 3984, Note_on_c, 6, 62, 0
8, 4080, Note_on_c, 6, 64, 71
8, 4224, Note_on_c, 6, 64, 0
8, 4320, Note_on_c, 6, 62, 71
8, 4464, Note_on_c, 6, 62, 0
8, 4560, Note_on_c, 6, 64, 71
8, 4704, Note_on_c, 6, 64, 0
8, 4800, Note_on_c, 6, 62, 71
8, 4944, Note_on_c, 6, 62, 0
8, 5040, Note_on_c, 6, 64, 71
8, 5184, Note_on_c, 6, 64, 0
8, 5280, Note_on_c, 6, 62, 71
8, 5424, Note_on_c, 6, 62, 0
8, 5520, Note_on_c, 6, 64, 71
8, 5664, Note_on_c, 6, 64, 0
8, 5760, Note_on_c, 6, 62, 71
8, 5904, Note_on_c, 6, 62, 0
8, 6000, Note_on_c, 6, 64, 71
8, 6144, Note_on_c, 6, 64, 0
8, 6240, Note_on_c, 6, 62, 71
8, 6384, Note_on_c, 6, 62, 0
8, 6480, Note_on_c, 6, 64, 71
8, 6624, Note_on_c, 6, 64, 0
8, 6720, Note_on_c, 6, 62, 71
8, 6864, Note_on_c, 6, 62, 0
8, 6960, Note_on_c, 6, 64, 71
8, 7104, Note_on_c, 6, 64, 0
8, 7200, Note_on_c, 6, 62, 71
8, 7344, Note_on_c, 6, 62, 0
8, 7440, Note_on_c, 6, 64, 71
8, 7584, Note_on_c, 6, 64, 0
8, 7680, Note_on_c, 6, 61, 71
8, 7824, Note_on_c, 6, 61, 0
8, 7920, Note_on_c, 6, 64, 71
8, 8064, Note_on_c, 6, 64, 0
8, 8160, Note_on_c, 6, 61, 71
8, 8304, Note_on_c, 6, 61, 0
8, 8400, Note_on_c, 6, 64, 71
8, 8544, Note_on_c, 6, 64, 0
8, 8640, Note_on_c, 6, 61, 71
8, 8784, Note_on_c, 6, 61, 0
8, 8880, Note_on_c, 6, 64, 71
8, 9024, Note_on_c, 6, 64, 0
8, 9120, Note_on_c, 6, 61, 71
8, 9264, Note_on_c, 6, 61, 0
8, 9360, Note_on_c, 6, 64, 71
8, 9504, Note_on_c, 6, 64, 0
8, 9600, Note_on_c, 6, 57, 71
8, 9984, Note_on_c, 6, 57, 0
8, 10080, Note_on_c, 6, 69, 71
8, 11040, Note_on_c, 6, 69, 0
8, 11040, Note_on_c, 6, 68, 71
8, 12000, Note_on_c, 6, 68, 0
8, 12000, Note_on_c, 6, 66, 71
8, 12960, Note_on_c, 6, 66, 0
8, 12960, Note_on_c, 6, 64, 71
8, 13920, Note_on_c, 6, 64, 0
8, 13920, Note_on_c, 6, 62, 71
8, 14880, Note_on_c, 6, 62, 0
8, 14880, Note_on_c, 6, 61, 71
8, 15600, Note_on_c, 6, 61, 0
8, 15600, Note_on_c, 6, 59, 71
8, 15840, Note_on_c, 6, 59, 0
8, 15840, Note_on_c, 6, 58, 71
8, 16080, Note_on_c, 6, 58, 0
8, 16080, Note_on_c, 6, 59, 71
8, 16272, Note_on_c, 6, 59, 0
8, 16320, Note_on_c, 6, 59, 62
8, 16704, Note_on_c, 6, 59, 0
8, 17280, Note_on_c, 6, 61, 71
8, 17424, Note_on_c, 6, 61, 0
8, 17520, Note_on_c, 6, 64, 71
8, 17664, Note_on_c, 6, 64, 0
8, 17760, Note_on_c, 6, 61, 71
8, 17904, Note_on_c, 6, 61, 0
8, 18000, Note_on_c, 6, 64, 71
8, 18144, Note_on_c, 6, 64, 0
8, 18240, Note_on_c, 6, 61, 71
8, 18384, Note_on_c, 6, 61, 0
8, 18480, Note_on_c, 6, 64, 71
8, 18624, Note_on_c, 6, 64, 0
8, 18720, Note_on_c, 6, 61, 71
8, 18864, Note_on_c, 6, 61, 0
8, 18960, Note_on_c, 6, 64, 71
8, 19104, Note_on_c, 6, 64, 0
8, 19200, Note_on_c, 6, 62, 71
8, 19344, Note_on_c, 6, 62, 0
8, 19440, Note_on_c, 6, 64, 71
8, 19584, Note_on_c, 6, 64, 0
8, 19680, Note_on_c, 6, 62, 71
8, 19824, Note_on_c, 6, 62, 0
8, 19920, Note_on_c, 6, 64, 71
8, 20064, Note_on_c, 6, 64, 0
8, 20160, Note_on_c, 6, 62, 71
8, 20304, Note_on_c, 6, 62, 0
8, 20400, Note_on_c, 6, 64, 71
8, 20544, Note_on_c, 6, 64, 0
8, 20640, Note_on_c, 6, 62, 71
8, 20784, Note_on_c, 6, 62, 0
8, 20880, Note_on_c, 6, 64, 71
8, 21024, Note_on_c, 6, 64, 0
8, 21120, Note_on_c, 6, 62, 71
8, 21264, Note_on_c, 6, 62, 0
8, 21360, Note_on_c, 6, 64, 71
8, 21504, Note_on_c, 6, 64, 0
8, 21600, Note_on_c, 6, 62, 71
8, 21744, Note_on_c, 6, 62, 0
8, 21840, Note_on_c, 6, 64, 71
8, 21984, Note_on_c, 6, 64, 0
8, 22080, Note_on_c, 6, 62, 71
8, 22224, Note_on_c, 6, 62, 0
8, 22320, Note_on_c, 6, 64, 71
8, 22464, Note_on_c, 6, 64, 0
8, 22560, Note_on_c, 6, 62, 71
8, 22704, Note_on_c, 6, 62, 0
8, 22800, Note_on_c, 6, 64, 71
8, 22944, Note_on_c, 6, 64, 0
8, 23040, Note_on_c, 6, 61, 71
8, 23184, Note_on_c, 6, 61, 0
8, 23280, Note_on_c, 6, 64, 71
8, 23424, Note_on_c, 6, 64, 0
8, 23520, Note_on_c, 6, 61, 71
8, 23664, Note_on_c, 6, 61, 0
8, 23760, Note_on_c, 6, 64, 71
8, 23904, Note_on_c, 6, 64, 0
8, 24000, Note_on_c, 6, 61, 71
8, 24144, Note_on_c, 6, 61, 0
8, 24240, Note_on_c, 6, 64, 71
8, 24384, Note_on_c, 6, 64, 0
8, 24480, Note_on_c, 6, 61, 71
8, 24624, Note_on_c, 6, 61, 0
8, 24720, Note_on_c, 6, 64, 71
8, 24864, Note_on_c, 6, 64, 0
8, 24960, Note_on_c, 6, 69, 71
8, 25200, Note_on_c, 6, 69, 0
8, 25200, Note_on_c, 6, 68, 71
8, 25440, Note_on_c, 6, 68, 0
8, 25440, Note_on_c, 6, 71, 71
8, 25680, Note_on_c, 6, 71, 0
8, 25680, Note_on_c, 6, 69, 71
8, 25920, Note_on_c, 6, 69, 0
8, 25920, Note_on_c, 6, 73, 71
8, 26160, Note_on_c, 6, 73, 0
8, 26160, Note_on_c, 6, 71, 71
8, 26400, Note_on_c, 6, 71, 0
8, 26400, Note_on_c, 6, 69, 71
8, 26640, Note_on_c, 6, 69, 0
8, 26640, Note_on_c, 6, 68, 71
8, 26832, Note_on_c, 6, 68, 0
8, 26880, Note_on_c, 6, 66, 71
8, 27120, Note_on_c, 6, 66, 0
8, 27120, Note_on_c, 6, 65, 71
8, 27360, Note_on_c, 6, 65, 0
8, 27360, Note_on_c, 6, 68, 71
8, 27600, Note_on_c, 6, 68, 0
8, 27600, Note_on_c, 6, 66, 71
8, 27840, Note_on_c, 6, 66, 0
8, 27840, Note_on_c, 6, 69, 71
8, 28080, Note_on_c, 6, 69, 0
8, 28080, Note_on_c, 6, 68, 71
8, 28320, Note_on_c, 6, 68, 0
8, 28320, Note_on_c, 6, 66, 71
8, 28560, Note_on_c, 6, 66, 0
8, 28560, Note_on_c, 6, 64, 71
8, 28788, Note_on_c, 6, 64, 0
8, 28800, Note_on_c, 6, 62, 71
8, 29040, Note_on_c, 6, 62, 0
8, 29040, Note_on_c, 6, 61, 71
8, 29280, Note_on_c, 6, 61, 0
8, 29280, Note_on_c, 6, 64, 71
8, 29520, Note_on_c, 6, 64, 0
8, 29520, Note_on_c, 6, 62, 71
8, 29760, Note_on_c, 6, 62, 0
8, 29760, Note_on_c, 6, 66, 71
8, 30000, Note_on_c, 6, 66, 0
8, 30000, Note_on_c, 6, 64, 71
8, 30240, Note_on_c, 6, 64, 0
8, 30240, Note_on_c, 6, 62, 71
8, 30480, Note_on_c, 6, 62, 0
8, 30480, Note_on_c, 6, 61, 71
8, 30708, Note_on_c, 6, 61, 0
8, 30720, Note_on_c, 6, 66, 71
8, 31440, Note_on_c, 6, 66, 0
8, 31440, Note_on_c, 6, 62, 71
8, 31632, Note_on_c, 6, 62, 0
8, 31680, Note_on_c, 6, 64, 71
8, 31800, Note_on_c, 6, 64, 0
8, 31800, Note_on_c, 6, 62, 71
8, 31920, Note_on_c, 6, 62, 0
8, 31920, Note_on_c, 6, 61, 71
8, 32112, Note_on_c, 6, 61, 0
8, 32160, Note_on_c, 6, 62, 71
8, 32280, Note_on_c, 6, 62, 0
8, 32280, Note_on_c, 6, 61, 71
8, 32400, Note_on_c, 6, 61, 0
8, 32400, Note_on_c, 6, 59, 71
8, 32592, Note_on_c, 6, 59, 0
8, 32640, Note_on_c, 6, 61, 105
8, 32736, Note_on_c, 6, 61, 0
8, 32760, Note_on_c, 6, 64, 105
8, 32856, Note_on_c, 6, 64, 0
8, 32880, Note_on_c, 6, 61, 105
8, 32976, Note_on_c, 6, 61, 0
8, 33000, Note_on_c, 6, 64, 105
8, 33096, Note_on_c, 6, 64, 0
8, 33120, Note_on_c, 6, 61, 105
8, 33216, Note_on_c, 6, 61, 0
8, 33240, Note_on_c, 6, 64, 105
8, 33336, Note_on_c, 6, 64, 0
8, 33360, Note_on_c, 6, 61, 105
8, 33456, Note_on_c, 6, 61, 0
8, 33480, Note_on_c, 6, 64, 105
8, 33576, Note_on_c, 6, 64, 0
8, 33600, Note_on_c, 6, 61, 105
8, 33696, Note_on_c, 6, 61, 0
8, 33720, Note_on_c, 6, 64, 105
8, 33816, Note_on_c, 6, 64, 0
8, 33840, Note_on_c, 6, 61, 105
8, 33936, Note_on_c, 6, 61, 0
8, 33960, Note_on_c, 6, 64, 105
8, 34056, Note_on_c, 6, 64, 0
8, 34080, Note_on_c, 6, 61, 105
8, 34176, Note_on_c, 6, 61, 0
8, 34200, Note_on_c, 6, 64, 105
8, 34296, Note_on_c, 6, 64, 0
8, 34320, Note_on_c, 6, 61, 105
8, 34416, Note_on_c, 6, 61, 0
8, 34440, Note_on_c, 6, 64, 105
8, 34536, Note_on_c, 6, 64, 0
8, 34560, Note_on_c, 6, 61, 105
8, 34656, Note_on_c, 6, 61, 0
8, 34680, Note_on_c, 6, 64, 105
8, 34776, Note_on_c, 6, 64, 0
8, 34800, Note_on_c, 6, 61, 105
8, 34896, Note_on_c, 6, 61, 0
8, 34920, Note_on_c, 6, 64, 105
8, 35016, Note_on_c, 6, 64, 0
8, 35040, Note_on_c, 6, 61, 105
8, 35136, Note_on_c, 6, 61, 0
8, 35160, Note_on_c, 6, 64, 105
8, 35256, Note_on_c, 6, 64, 0
8, 35280, Note_on_c, 6, 61, 105
8, 35376, Note_on_c, 6, 61, 0
8, 35400, Note_on_c, 6, 64, 105
8, 35496, Note_on_c, 6, 64, 0
8, 35520, Note_on_c, 6, 61, 105
8, 35616, Note_on_c, 6, 61, 0
8, 35640, Note_on_c, 6, 64, 105
8, 35736, Note_on_c, 6, 64, 0
8, 35760, Note_on_c, 6, 61, 105
8, 35856, Note_on_c, 6, 61, 0
8, 35880, Note_on_c, 6, 64, 105
8, 35976, Note_on_c, 6, 64, 0
8, 36000, Note_on_c, 6, 61, 105
8, 36096, Note_on_c, 6, 61, 0
8, 36120, Note_on_c, 6, 64, 105
8, 36216, Note_on_c, 6, 64, 0
8, 36240, Note_on_c, 6, 61, 105
8, 36336, Note_on_c, 6, 61, 0
8, 36360, Note_on_c, 6, 64, 105
8, 36456, Note_on_c, 6, 64, 0
8, 36480, Note_on_c, 6, 62, 105
8, 36576, Note_on_c, 6, 62, 0
8, 36600, Note_on_c, 6, 64, 105
8, 36696, Note_on_c, 6, 64, 0
8, 36720, Note_on_c, 6, 62, 105
8, 36816, Note_on_c, 6, 62, 0
8, 36840, Note_on_c, 6, 64, 105
8, 36936, Note_on_c, 6, 64, 0
8, 36960, Note_on_c, 6, 62, 105
8, 37056, Note_on_c, 6, 62, 0
8, 37080, Note_on_c, 6, 64, 105
8, 37176, Note_on_c, 6, 64, 0
8, 37200, Note_on_c, 6, 62, 105
8, 37296, Note_on_c, 6, 62, 0
8, 37320, Note_on_c, 6, 64, 105
8, 37416, Note_on_c, 6, 64, 0
8, 37440, Note_on_c, 6, 62, 105
8, 37536, Note_on_c, 6, 62, 0
8, 37560, Note_on_c, 6, 64, 62
8, 37656, Note_on_c, 6, 64, 0
8, 37680, Note_on_c, 6, 62, 62
8, 37776, Note_on_c, 6, 62, 0
8, 37800, Note_on_c, 6, 64, 62
8, 37896, Note_on_c, 6, 64, 0
8, 37920, Note_on_c, 6, 62, 62
8, 38016, Note_on_c, 6, 62, 0
8, 38040, Note_on_c, 6, 64, 62
8, 38136, Note_on_c, 6, 64, 0
8, 38160, Note_on_c, 6, 62, 62
8, 38256, Note_on_c, 6, 62, 0
8, 38280, Note_on_c, 6, 64, 62
8, 38376, Note_on_c, 6, 64, 0
8, 38400, Note_on_c, 6, 62, 62
8, 38496, Note_on_c, 6, 62, 0
8, 38520, Note_on_c, 6, 64, 62
8, 38616, Note_on_c, 6, 64, 0
8, 38640, Note_on_c, 6, 62, 62
8, 38736, Note_on_c, 6, 62, 0
8, 38760, Note_on_c, 6, 64, 62
8, 38856, Note_on_c, 6, 64, 0
8, 38880, Note_on_c, 6, 62, 62
8, 38976, Note_on_c, 6, 62, 0
8, 39000, Note_on_c, 6, 64, 62
8, 39096, Note_on_c, 6, 64, 0
8, 39120, Note_on_c, 6, 62, 62
8, 39216, Note_on_c, 6, 62, 0
8, 39240, Note_on_c, 6, 64, 62
8, 39336, Note_on_c, 6, 64, 0
8, 39360, Note_on_c, 6, 62, 62
8, 39456, Note_on_c, 6, 62, 0
8, 39480, Note_on_c, 6, 64, 62
8, 39576, Note_on_c, 6, 64, 0
8, 39600, Note_on_c, 6, 62, 62
8, 39696, Note_on_c, 6, 62, 0
8, 39720, Note_on_c, 6, 64, 62
8, 39816, Note_on_c, 6, 64, 0
8, 39840, Note_on_c, 6, 62, 62
8, 39936, Note_on_c, 6, 62, 0
8, 39960, Note_on_c, 6, 64, 62
8, 40056, Note_on_c, 6, 64, 0
8, 40080, Note_on_c, 6, 62, 62
8, 40176, Note_on_c, 6, 62, 0
8, 40200, Note_on_c, 6, 64, 62
8, 40296, Note_on_c, 6, 64, 0
8, 40320, Note_on_c, 6, 61, 105
8, 40416, Note_on_c, 6, 61, 0
8, 40440, Note_on_c, 6, 64, 105
8, 40536, Note_on_c, 6, 64, 0
8, 40560, Note_on_c, 6, 61, 105
8, 40656, Note_on_c, 6, 61, 0
8, 40680, Note_on_c, 6, 64, 105
8, 40776, Note_on_c, 6, 64, 0
8, 40800, Note_on_c, 6, 61, 105
8, 40896, Note_on_c, 6, 61, 0
8, 40920, Note_on_c, 6, 64, 105
8, 41016, Note_on_c, 6, 64, 0
8, 41040, Note_on_c, 6, 61, 105
8, 41136, Note_on_c, 6, 61, 0
8, 41160, Note_on_c, 6, 64, 105
8, 41256, Note_on_c, 6, 64, 0
8, 41280, Note_on_c, 6, 61, 105
8, 41376, Note_on_c, 6, 61, 0
8, 41400, Note_on_c, 6, 64, 105
8, 41496, Note_on_c, 6, 64, 0
8, 41520, Note_on_c, 6, 61, 105
8, 41616, Note_on_c, 6, 61, 0
8, 41640, Note_on_c, 6, 64, 105
8, 41736, Note_on_c, 6, 64, 0
8, 41760, Note_on_c, 6, 61, 105
8, 41856, Note_on_c, 6, 61, 0
8, 41880, Note_on_c, 6, 64, 105
8, 41976, Note_on_c, 6, 64, 0
8, 42000, Note_on_c, 6, 61, 105
8, 42096, Note_on_c, 6, 61, 0
8, 42120, Note_on_c, 6, 64, 105
8, 42216, Note_on_c, 6, 64, 0
8, 42240, Note_on_c, 6, 61, 105
8, 42336, Note_on_c, 6, 61, 0
8, 42360, Note_on_c, 6, 64, 105
8, 42456, Note_on_c, 6, 64, 0
8, 42480, Note_on_c, 6, 61, 105
8, 42576, Note_on_c, 6, 61, 0
8, 42600, Note_on_c, 6, 64, 105
8, 42696, Note_on_c, 6, 64, 0
8, 42720, Note_on_c, 6, 61, 105
8, 42816, Note_on_c, 6, 61, 0
8, 42840, Note_on_c, 6, 64, 105
8, 42936, Note_on_c, 6, 64, 0
8, 42960, Note_on_c, 6, 61, 105
8, 43056, Note_on_c, 6, 61, 0
8, 43080, Note_on_c, 6, 64, 105
8, 43176, Note_on_c, 6, 64, 0
8, 43200, Note_on_c, 6, 61, 105
8, 43296, Note_on_c, 6, 61, 0
8, 43320, Note_on_c, 6, 64, 105
8, 43416, Note_on_c, 6, 64, 0
8, 43440, Note_on_c, 6, 61, 105
8, 43536, Note_on_c, 6, 61, 0
8, 43560, Note_on_c, 6, 64, 105
8, 43656, Note_on_c, 6, 64, 0
8, 43680, Note_on_c, 6, 61, 105
8, 43776, Note_on_c, 6, 61, 0
8, 43800, Note_on_c, 6, 64, 105
8, 43896, Note_on_c, 6, 64, 0
8, 43920, Note_on_c, 6, 61, 105
8, 44016, Note_on_c, 6, 61, 0
8, 44040, Note_on_c, 6, 64, 105
8, 44136, Note_on_c, 6, 64, 0
8, 44160, Note_on_c, 6, 62, 105
8, 44256, Note_on_c, 6, 62, 0
8, 44280, Note_on_c, 6, 64, 105
8, 44376, Note_on_c, 6, 64, 0
8, 44400, Note_on_c, 6, 62, 105
8, 44496, Note_on_c, 6, 62, 0
8, 44520, Note_on_c, 6, 64, 105
8, 44616, Note_on_c, 6, 64, 0
8, 44640, Note_on_c, 6, 62, 105
8, 44736, Note_on_c, 6, 62, 0
8, 44760, Note_on_c, 6, 64, 105
8, 44856, Note_on_c, 6, 64, 0
8, 44880, Note_on_c, 6, 62, 105
8, 44976, Note_on_c, 6, 62, 0
8, 45000, Note_on_c, 6, 64, 105
8, 45096, Note_on_c, 6, 64, 0
8, 45120, Note_on_c, 6, 62, 105
8, 45216, Note_on_c, 6, 62, 0
8, 45240, Note_on_c, 6, 64, 62
8, 45336, Note_on_c, 6, 64, 0
8, 45360, Note_on_c, 6, 62, 62
8, 45456, Note_on_c, 6, 62, 0
8, 45480, Note_on_c, 6, 64, 62
8, 45576, Note_on_c, 6, 64, 0
8, 45600, Note_on_c, 6, 62, 62
8, 45696, Note_on_c, 6, 62, 0
8, 45720, Note_on_c, 6, 64, 62
8, 45816, Note_on_c, 6, 64, 0
8, 45840, Note_on_c, 6, 62, 62
8, 45936, Note_on_c, 6, 62, 0
8, 45960, Note_on_c, 6, 64, 62
8, 46056, Note_on_c, 6, 64, 0
8, 46080, Note_on_c, 6, 62, 62
8, 46176, Note_on_c, 6, 62, 0
8, 46200, Note_on_c, 6, 64, 62
8, 46296, Note_on_c, 6, 64, 0
8, 46320, Note_on_c, 6, 62, 62
8, 46416, Note_on_c, 6, 62, 0
8, 46440, Note_on_c, 6, 64, 62
8, 46536, Note_on_c, 6, 64, 0
8, 46560, Note_on_c, 6, 62, 62
8, 46656, Note_on_c, 6, 62, 0
8, 46680, Note_on_c, 6, 64, 62
8, 46776, Note_on_c, 6, 64, 0
8, 46800, Note_on_c, 6, 62, 62
8, 46896, Note_on_c, 6, 62, 0
8, 46920, Note_on_c, 6, 64, 62
8, 47016, Note_on_c, 6, 64, 0
8, 47040, Note_on_c, 6, 62, 62
8, 47136, Note_on_c, 6, 62, 0
8, 47160, Note_on_c, 6, 64, 62
8, 47256, Note_on_c, 6, 64, 0
8, 47280, Note_on_c, 6, 62, 62
8, 47376, Note_on_c, 6, 62, 0
8, 47400, Note_on_c, 6, 64, 62
8, 47496, Note_on_c, 6, 64, 0
8, 47520, Note_on_c, 6, 62, 62
8, 47616, Note_on_c, 6, 62, 0
8, 47640, Note_on_c, 6, 64, 62
8, 47736, Note_on_c, 6, 64, 0
8, 47760, Note_on_c, 6, 62, 62
8, 47856, Note_on_c, 6, 62, 0
8, 47880, Note_on_c, 6, 64, 62
8, 47976, Note_on_c, 6, 64, 0
8, 48000, Note_on_c, 6, 61, 105
8, 48192, Note_on_c, 6, 61, 0
8, 48240, Note_on_c, 6, 76, 105
8, 48624, Note_on_c, 6, 76, 0
8, 48720, Note_on_c, 6, 73, 105
8, 49104, Note_on_c, 6, 73, 0
8, 49200, Note_on_c, 6, 76, 105
8, 49584, Note_on_c, 6, 76, 0
8, 49680, Note_on_c, 6, 73, 105
8, 50112, Note_on_c, 6, 73, 0
8, 50160, Note_on_c, 6, 81, 105
8, 50544, Note_on_c, 6, 81, 0
8, 50640, Note_on_c, 6, 73, 105
8, 51024, Note_on_c, 6, 73, 0
8, 51120, Note_on_c, 6, 81, 105
8, 51504, Note_on_c, 6, 81, 0
8, 51600, Note_on_c, 6, 73, 105
8, 51840, Note_on_c, 6, 73, 0
8, 51840, Note_on_c, 6, 71, 71
8, 51996, Note_on_c, 6, 71, 0
8, 52080, Note_on_c, 6, 78, 71
8, 52236, Note_on_c, 6, 78, 0
8, 52320, Note_on_c, 6, 78, 71
8, 52560, Note_on_c, 6, 78, 0
8, 52560, Note_on_c, 6, 76, 71
8, 52716, Note_on_c, 6, 76, 0
8, 52800, Note_on_c, 6, 76, 71
8, 53040, Note_on_c, 6, 76, 0
8, 53040, Note_on_c, 6, 74, 71
8, 53196, Note_on_c, 6, 74, 0
8, 53280, Note_on_c, 6, 74, 71
8, 53520, Note_on_c, 6, 74, 0
8, 53520, Note_on_c, 6, 73, 71
8, 53676, Note_on_c, 6, 73, 0
8, 53760, Note_on_c, 6, 73, 71
8, 54000, Note_on_c, 6, 73, 0
8, 54000, Note_on_c, 6, 71, 71
8, 54156, Note_on_c, 6, 71, 0
8, 54240, Note_on_c, 6, 71, 71
8, 54396, Note_on_c, 6, 71, 0
8, 54480, Note_on_c, 6, 71, 71
8, 54636, Note_on_c, 6, 71, 0
8, 54720, Note_on_c, 6, 71, 71
8, 54960, Note_on_c, 6, 71, 0
8, 54960, Note_on_c, 6, 69, 71
8, 55116, Note_on_c, 6, 69, 0
8, 55200, Note_on_c, 6, 69, 71
8, 55356, Note_on_c, 6, 69, 0
8, 55440, Note_on_c, 6, 69, 71
8, 55596, Note_on_c, 6, 69, 0
8, 55680, Note_on_c, 6, 68, 62
8, 56064, Note_on_c, 6, 68, 0
8, 56160, Note_on_c, 6, 81, 105
8, 56280, Note_on_c, 6, 81, 0
8, 56280, Note_on_c, 6, 80, 105
8, 56358, Note_on_c, 6, 80, 0
8, 56400, Note_on_c, 6, 78, 105
8, 56478, Note_on_c, 6, 78, 0
8, 56520, Note_on_c, 6, 76, 105
8, 56598, Note_on_c, 6, 76, 0
8, 56640, Note_on_c, 6, 81, 105
8, 57024, Note_on_c, 6, 81, 0
8, 57120, Note_on_c, 6, 74, 105
8, 57240, Note_on_c, 6, 74, 0
8, 57240, Note_on_c, 6, 73, 105
8, 57318, Note_on_c, 6, 73, 0
8, 57360, Note_on_c, 6, 71, 105
8, 57438, Note_on_c, 6, 71, 0
8, 57480, Note_on_c, 6, 69, 105
8, 57558, Note_on_c, 6, 69, 0
8, 57600, Note_on_c, 6, 76, 105
8, 57984, Note_on_c, 6, 76, 0
8, 58080, Note_on_c, 6, 69, 105
8, 58200, Note_on_c, 6, 69, 0
8, 58200, Note_on_c, 6, 68, 105
8, 58278, Note_on_c, 6, 68, 0
8, 58320, Note_on_c, 6, 66, 105
8, 58398, Note_on_c, 6, 66, 0
8, 58440, Note_on_c, 6, 64, 105
8, 58518, Note_on_c, 6, 64, 0
8, 58560, Note_on_c, 6, 69, 105
8, 58944, Note_on_c, 6, 69, 0
8, 59040, Note_on_c, 6, 62, 105
8, 59160, Note_on_c, 6, 62, 0
8, 59160, Note_on_c, 6, 61, 105
8, 59238, Note_on_c, 6, 61, 0
8, 59280, Note_on_c, 6, 59, 105
8, 59358, Note_on_c, 6, 59, 0
8, 59400, Note_on_c, 6, 57, 105
8, 59478, Note_on_c, 6, 57, 0
8, 59520, Note_on_c, 6, 64, 105
8, 60204, Note_on_c, 6, 64, 0
8, 60240, Note_on_c, 6, 68, 105
8, 60336, Note_on_c, 6, 68, 0
8, 60360, Note_on_c, 6, 71, 105
8, 60456, Note_on_c, 6, 71, 0
8, 60480, Note_on_c, 6, 76, 105
8, 60792, Note_on_c, 6, 76, 0
8, 60960, Note_on_c, 6, 71, 90
8, 60960, Note_on_c, 6, 80, 90
8, 60960, Note_on_c, 6, 64, 90
8, 61272, Note_on_c, 6, 64, 0
8, 61272, Note_on_c, 6, 80, 0
8, 61272, Note_on_c, 6, 71, 0
8, 61440, Note_on_c, 6, 64, 90
8, 61440, Note_on_c, 6, 71, 90
8, 61440, Note_on_c, 6, 76, 90
8, 61824, Note_on_c, 6, 76, 0
8, 61824, Note_on_c, 6, 71, 0
8, 61824, Note_on_c, 6, 64, 0
8, 62880, Note_on_c, 6, 64, 71
8, 63360, Note_on_c, 6, 64, 0
8, 63360, Note_on_c, 6, 61, 71
8, 63624, Note_on_c, 6, 61, 0
8, 63840, Note_on_c, 6, 61, 71
8, 64320, Note_on_c, 6, 61, 0
8, 64320, Note_on_c, 6, 62, 71
8, 64584, Note_on_c, 6, 62, 0
8, 64800, Note_on_c, 6, 62, 71
8, 65280, Note_on_c, 6, 62, 0
8, 65280, Note_on_c, 6, 64, 62
8, 65664, Note_on_c, 6, 64, 0
8, 66720, Note_on_c, 6, 63, 71
8, 67200, Note_on_c, 6, 63, 0
8, 67200, Note_on_c, 6, 64, 62
8, 67584, Note_on_c, 6, 64, 0
8, 68640, Note_on_c, 6, 63, 71
8, 69120, Note_on_c, 6, 63, 0
8, 69120, Note_on_c, 6, 64, 62
8, 69504, Note_on_c, 6, 64, 0
8, 70560, Note_on_c, 6, 66, 71
8, 70680, Note_on_c, 6, 66, 0
8, 70680, Note_on_c, 6, 64, 71
8, 70800, Note_on_c, 6, 64, 0
8, 70800, Note_on_c, 6, 62, 71
8, 70920, Note_on_c, 6, 62, 0
8, 70920, Note_on_c, 6, 61, 71
8, 71040, Note_on_c, 6, 61, 0
8, 71040, Note_on_c, 6, 59, 71
8, 71304, Note_on_c, 6, 59, 0
8, 71520, Note_on_c, 6, 59, 71
8, 72000, Note_on_c, 6, 59, 0
8, 72000, Note_on_c, 6, 61, 71
8, 72264, Note_on_c, 6, 61, 0
8, 72480, Note_on_c, 6, 61, 71
8, 72960, Note_on_c, 6, 61, 0
8, 72960, Note_on_c, 6, 62, 62
8, 73344, Note_on_c, 6, 62, 0
8, 74400, Note_on_c, 6, 61, 71
8, 74880, Note_on_c, 6, 61, 0
8, 74880, Note_on_c, 6, 62, 62
8, 75264, Note_on_c, 6, 62, 0
8, 76320, Note_on_c, 6, 73, 71
8, 76800, Note_on_c, 6, 73, 0
8, 76800, Note_on_c, 6, 74, 62
8, 77184, Note_on_c, 6, 74, 0
8, 78240, Note_on_c, 6, 62, 62
8, 78720, Note_on_c, 6, 62, 0
8, 78720, Note_on_c, 6, 61, 62
8, 79104, Note_on_c, 6, 61, 0
8, 80160, Note_on_c, 6, 78, 80
8, 80280, Note_on_c, 6, 78, 0
8, 80280, Note_on_c, 6, 76, 80
8, 80400, Note_on_c, 6, 76, 0
8, 80400, Note_on_c, 6, 74, 80
8, 80520, Note_on_c, 6, 74, 0
8, 80520, Note_on_c, 6, 73, 80
8, 80640, Note_on_c, 6, 73, 0
8, 80640, Note_on_c, 6, 71, 71
8, 80832, Note_on_c, 6, 71, 0
8, 80880, Note_on_c, 6, 71, 71
8, 81264, Note_on_c, 6, 71, 0
8, 81360, Note_on_c, 6, 71, 71
8, 81744, Note_on_c, 6, 71, 0
8, 81840, Note_on_c, 6, 71, 71
8, 82224, Note_on_c, 6, 71, 0
8, 82320, Note_on_c, 6, 71, 71
8, 82512, Note_on_c, 6, 71, 0
8, 82560, Note_on_c, 6, 71, 71
8, 83520, Note_on_c, 6, 71, 0
8, 83520, Note_on_c, 6, 69, 71
8, 83904, Note_on_c, 6, 69, 0
8, 84000, Note_on_c, 6, 81, 80
8, 84120, Note_on_c, 6, 81, 0
8, 84120, Note_on_c, 6, 79, 80
8, 84240, Note_on_c, 6, 79, 0
8, 84240, Note_on_c, 6, 78, 80
8, 84360, Note_on_c, 6, 78, 0
8, 84360, Note_on_c, 6, 76, 80
8, 84480, Note_on_c, 6, 76, 0
8, 84480, Note_on_c, 6, 74, 71
8, 84672, Note_on_c, 6, 74, 0
8, 84720, Note_on_c, 6, 74, 71
8, 85104, Note_on_c, 6, 74, 0
8, 85200, Note_on_c, 6, 74, 71
8, 85584, Note_on_c, 6, 74, 0
8, 85680, Note_on_c, 6, 74, 71
8, 86064, Note_on_c, 6, 74, 0
8, 86160, Note_on_c, 6, 74, 71
8, 86352, Note_on_c, 6, 74, 0
8, 86400, Note_on_c, 6, 74, 71
8, 87360, Note_on_c, 6, 74, 0
8, 87360, Note_on_c, 6, 73, 71
8, 87744, Note_on_c, 6, 73, 0
8, 87840, Note_on_c, 6, 85, 80
8, 87960, Note_on_c, 6, 85, 0
8, 87960, Note_on_c, 6, 83, 80
8, 88080, Note_on_c, 6, 83, 0
8, 88080, Note_on_c, 6, 81, 80
8, 88200, Note_on_c, 6, 81, 0
8, 88200, Note_on_c, 6, 79, 80
8, 88320, Note_on_c, 6, 79, 0
8, 88320, Note_on_c, 6, 78, 80
8, 88512, Note_on_c, 6, 78, 0
8, 88560, Note_on_c, 6, 78, 80
8, 88944, Note_on_c, 6, 78, 0
8, 89040, Note_on_c, 6, 78, 80
8, 89424, Note_on_c, 6, 78, 0
8, 89520, Note_on_c, 6, 78, 90
8, 89904, Note_on_c, 6, 78, 0
8, 90000, Note_on_c, 6, 78, 90
8, 90192, Note_on_c, 6, 78, 0
8, 90240, Note_on_c, 6, 74, 87
8, 90432, Note_on_c, 6, 74, 0
8, 90480, Note_on_c, 6, 74, 89
8, 90864, Note_on_c, 6, 74, 0
8, 90960, Note_on_c, 6, 74, 93
8, 91344, Note_on_c, 6, 74, 0
8, 91440, Note_on_c, 6, 74, 98
8, 91824, Note_on_c, 6, 74, 0
8, 91920, Note_on_c, 6, 74, 103
8, 92112, Note_on_c, 6, 74, 0
8, 92160, Note_on_c, 6, 73, 105
8, 92472, Note_on_c, 6, 73, 0
8, 92640, Note_on_c, 6, 76, 105
8, 92796, Note_on_c, 6, 76, 0
8, 92880, Note_on_c, 6, 76, 105
8, 93036, Note_on_c, 6, 76, 0
8, 93120, Note_on_c, 6, 78, 105
8, 93276, Note_on_c, 6, 78, 0
8, 93360, Note_on_c, 6, 81, 105
8, 93438, Note_on_c, 6, 81, 0
8, 93480, Note_on_c, 6, 78, 105
8, 93558, Note_on_c, 6, 78, 0
8, 93600, Note_on_c, 6, 74, 105
8, 93756, Note_on_c, 6, 74, 0
8, 93840, Note_on_c, 6, 74, 105
8, 93996, Note_on_c, 6, 74, 0
8, 94080, Note_on_c, 6, 73, 105
8, 94236, Note_on_c, 6, 73, 0
8, 94320, Note_on_c, 6, 76, 105
8, 94398, Note_on_c, 6, 76, 0
8, 94440, Note_on_c, 6, 73, 105
8, 94518, Note_on_c, 6, 73, 0
8, 94560, Note_on_c, 6, 69, 105
8, 94716, Note_on_c, 6, 69, 0
8, 94800, Note_on_c, 6, 73, 105
8, 94956, Note_on_c, 6, 73, 0
8, 95040, Note_on_c, 6, 76, 105
8, 95352, Note_on_c, 6, 76, 0
8, 95520, Note_on_c, 6, 68, 105
8, 95520, Note_on_c, 6, 59, 105
8, 95832, Note_on_c, 6, 59, 0
8, 95832, Note_on_c, 6, 68, 0
8, 96000, Note_on_c, 6, 69, 90
8, 96000, Note_on_c, 6, 64, 90
8, 96000, Note_on_c, 6, 57, 90
8, 96384, Note_on_c, 6, 57, 0
8, 96384, Note_on_c, 6, 64, 0
8, 96384, Note_on_c, 6, 69, 0
8, 97920, Note_on_c, 6, 64, 71
8, 98064, Note_on_c, 6, 64, 0
8, 98160, Note_on_c, 6, 64, 71
8, 98304, Note_on_c, 6, 64, 0
8, 98400, Note_on_c, 6, 64, 71
8, 98544, Note_on_c, 6, 64, 0
8, 98640, Note_on_c, 6, 64, 71
8, 98784, Note_on_c, 6, 64, 0
8, 98880, Note_on_c, 6, 64, 71
8, 99024, Note_on_c, 6, 64, 0
8, 99120, Note_on_c, 6, 64, 71
8, 99264, Note_on_c, 6, 64, 0
8, 99360, Note_on_c, 6, 64, 71
8, 99504, Note_on_c, 6, 64, 0
8, 99600, Note_on_c, 6, 64, 71
8, 99744, Note_on_c, 6, 64, 0
8, 99840, Note_on_c, 6, 64, 71
8, 99984, Note_on_c, 6, 64, 0
8, 100080, Note_on_c, 6, 69, 71
8, 100224, Note_on_c, 6, 69, 0
8, 100320, Note_on_c, 6, 69, 71
8, 100464, Note_on_c, 6, 69, 0
8, 100560, Note_on_c, 6, 69, 71
8, 100704, Note_on_c, 6, 69, 0
8, 100800, Note_on_c, 6, 69, 71
8, 100944, Note_on_c, 6, 69, 0
8, 101040, Note_on_c, 6, 69, 71
8, 101184, Note_on_c, 6, 69, 0
8, 101280, Note_on_c, 6, 69, 71
8, 101424, Note_on_c, 6, 69, 0
8, 101520, Note_on_c, 6, 69, 71
8, 101664, Note_on_c, 6, 69, 0
8, 101760, Note_on_c, 6, 69, 71
8, 102912, Note_on_c, 6, 69, 0
8, 103200, Note_on_c, 6, 63, 71
8, 103392, Note_on_c, 6, 63, 0
8, 103440, Note_on_c, 6, 66, 71
8, 103632, Note_on_c, 6, 66, 0
8, 103680, Note_on_c, 6, 69, 71
8, 104160, Note_on_c, 6, 69, 0
8, 104160, Note_on_c, 6, 68, 71
8, 104316, Note_on_c, 6, 68, 0
8, 104400, Note_on_c, 6, 64, 71
8, 104640, Note_on_c, 6, 64, 0
8, 104640, Note_on_c, 6, 63, 71
8, 104880, Note_on_c, 6, 63, 0
8, 104880, Note_on_c, 6, 66, 71
8, 105120, Note_on_c, 6, 66, 0
8, 105120, Note_on_c, 6, 64, 71
8, 105360, Note_on_c, 6, 64, 0
8, 105360, Note_on_c, 6, 61, 71
8, 105600, Note_on_c, 6, 61, 0
8, 105600, Note_on_c, 6, 57, 71
8, 105864, Note_on_c, 6, 57, 0
8, 106080, Note_on_c, 6, 57, 71
8, 106560, Note_on_c, 6, 57, 0
8, 106560, Note_on_c, 6, 59, 71
8, 106824, Note_on_c, 6, 59, 0
8, 107040, Note_on_c, 6, 59, 71
8, 107520, Note_on_c, 6, 59, 0
8, 107520, Note_on_c, 6, 61, 71
8, 107784, Note_on_c, 6, 61, 0
8, 108000, Note_on_c, 6, 61, 71
8, 108480, Note_on_c, 6, 61, 0
8, 108480, Note_on_c, 6, 62, 71
8, 108744, Note_on_c, 6, 62, 0
8, 108960, Note_on_c, 6, 62, 71
8, 109440, Note_on_c, 6, 62, 0
8, 109440, Note_on_c, 6, 66, 71
8, 109680, Note_on_c, 6, 66, 0
8, 109680, Note_on_c, 6, 64, 71
8, 109824, Note_on_c, 6, 64, 0
8, 109920, Note_on_c, 6, 62, 71
8, 110064, Note_on_c, 6, 62, 0
8, 110160, Note_on_c, 6, 61, 71
8, 110304, Note_on_c, 6, 61, 0
8, 110400, Note_on_c, 6, 64, 71
8, 110640, Note_on_c, 6, 64, 0
8, 110640, Note_on_c, 6, 62, 71
8, 110784, Note_on_c, 6, 62, 0
8, 110880, Note_on_c, 6, 61, 71
8, 111024, Note_on_c, 6, 61, 0
8, 111120, Note_on_c, 6, 59, 71
8, 111264, Note_on_c, 6, 59, 0
8, 111360, Note_on_c, 6, 61, 105
8, 111744, Note_on_c, 6, 61, 0
8, 112800, Note_on_c, 6, 71, 105
8, 112944, Note_on_c, 6, 71, 0
8, 113040, Note_on_c, 6, 68, 105
8, 113184, Note_on_c, 6, 68, 0
8, 113280, Note_on_c, 6, 69, 105
8, 113424, Note_on_c, 6, 69, 0
8, 113520, Note_on_c, 6, 69, 105
8, 113664, Note_on_c, 6, 69, 0
8, 113760, Note_on_c, 6, 69, 105
8, 113904, Note_on_c, 6, 69, 0
8, 114000, Note_on_c, 6, 69, 105
8, 114144, Note_on_c, 6, 69, 0
8, 114240, Note_on_c, 6, 69, 105
8, 114384, Note_on_c, 6, 69, 0
8, 114480, Note_on_c, 6, 69, 105
8, 114624, Note_on_c, 6, 69, 0
8, 114720, Note_on_c, 6, 62, 105
8, 114864, Note_on_c, 6, 62, 0
8, 114960, Note_on_c, 6, 62, 105
8, 115104, Note_on_c, 6, 62, 0
8, 115200, Note_on_c, 6, 61, 105
8, 115584, Note_on_c, 6, 61, 0
8, 116640, Note_on_c, 6, 71, 105
8, 116784, Note_on_c, 6, 71, 0
8, 116880, Note_on_c, 6, 68, 105
8, 117024, Note_on_c, 6, 68, 0
8, 117120, Note_on_c, 6, 69, 105
8, 117264, Note_on_c, 6, 69, 0
8, 117360, Note_on_c, 6, 69, 105
8, 117504, Note_on_c, 6, 69, 0
8, 117600, Note_on_c, 6, 69, 105
8, 117744, Note_on_c, 6, 69, 0
8, 117840, Note_on_c, 6, 69, 105
8, 117984, Note_on_c, 6, 69, 0
8, 118080, Note_on_c, 6, 69, 105
8, 118224, Note_on_c, 6, 69, 0
8, 118320, Note_on_c, 6, 69, 105
8, 118464, Note_on_c, 6, 69, 0
8, 118560, Note_on_c, 6, 62, 105
8, 118704, Note_on_c, 6, 62, 0
8, 118800, Note_on_c, 6, 62, 105
8, 118944, Note_on_c, 6, 62, 0
8, 119040, Note_on_c, 6, 61, 105
8, 119424, Note_on_c, 6, 61, 0
8, 119520, Note_on_c, 6, 76, 105
8, 119640, Note_on_c, 6, 76, 0
8, 119640, Note_on_c, 6, 73, 105
8, 119718, Note_on_c, 6, 73, 0
8, 119760, Note_on_c, 6, 76, 105
8, 119838, Note_on_c, 6, 76, 0
8, 119880, Note_on_c, 6, 73, 105
8, 119958, Note_on_c, 6, 73, 0
8, 120000, Note_on_c, 6, 81, 105
8, 120384, Note_on_c, 6, 81, 0
8, 120480, Note_on_c, 6, 76, 105
8, 120600, Note_on_c, 6, 76, 0
8, 120600, Note_on_c, 6, 73, 105
8, 120678, Note_on_c, 6, 73, 0
8, 120720, Note_on_c, 6, 76, 105
8, 120798, Note_on_c, 6, 76, 0
8, 120840, Note_on_c, 6, 73, 105
8, 120918, Note_on_c, 6, 73, 0
8, 120960, Note_on_c, 6, 69, 105
8, 121344, Note_on_c, 6, 69, 0
8, 121440, Note_on_c, 6, 57, 105
8, 121728, Note_on_c, 6, 57, 0
8, 121800, Note_on_c, 6, 57, 105
8, 121896, Note_on_c, 6, 57, 0
8, 121920, Note_on_c, 6, 57, 105
8, 122304, Note_on_c, 6, 57, 0
8, 137520, Note_on_c, 6, 71, 62
8, 137760, Note_on_c, 6, 71, 0
8, 137760, Note_on_c, 6, 69, 62
8, 138000, Note_on_c, 6, 69, 0
8, 138000, Note_on_c, 6, 68, 62
8, 138240, Note_on_c, 6, 68, 0
8, 138240, Note_on_c, 6, 69, 35
8, 140160, Note_on_c, 6, 69, 0
8, 140160, Note_on_c, 6, 68, 34
8, 140160, Note_on_c, 6, 59, 34
8, 142080, Note_on_c, 6, 59, 0
8, 142080, Note_on_c, 6, 68, 0
8, 142080, Note_on_c, 6, 68, 34
8, 142080, Note_on_c, 6, 71, 34
8, 144000, Note_on_c, 6, 71, 0
8, 144000, Note_on_c, 6, 68, 0
8, 144000, Note_on_c, 6, 69, 34
8, 145920, Note_on_c, 6, 69, 0
8, 158880, Note_on_c, 6, 71, 105
8, 159036, Note_on_c, 6, 71, 0
8, 159120, Note_on_c, 6, 68, 105
8, 159276, Note_on_c, 6, 68, 0
8, 159360, Note_on_c, 6, 69, 105
8, 159516, Note_on_c, 6, 69, 0
8, 159600, Note_on_c, 6, 69, 105
8, 159756, Note_on_c, 6, 69, 0
8, 159840, Note_on_c, 6, 69, 105
8, 159996, Note_on_c, 6, 69, 0
8, 160080, Note_on_c, 6, 69, 105
8, 160236, Note_on_c, 6, 69, 0
8, 160320, Note_on_c, 6, 69, 105
8, 160476, Note_on_c, 6, 69, 0
8, 160560, Note_on_c, 6, 69, 105
8, 160716, Note_on_c, 6, 69, 0
8, 160800, Note_on_c, 6, 62, 105
8, 160956, Note_on_c, 6, 62, 0
8, 161040, Note_on_c, 6, 62, 105
8, 161196, Note_on_c, 6, 62, 0
8, 161280, Note_on_c, 6, 61, 105
8, 161664, Note_on_c, 6, 61, 0
8, 161760, Note_on_c, 6, 76, 105
8, 161880, Note_on_c, 6, 76, 0
8, 161880, Note_on_c, 6, 73, 105
8, 161958, Note_on_c, 6, 73, 0
8, 162000, Note_on_c, 6, 76, 105
8, 162078, Note_on_c, 6, 76, 0
8, 162120, Note_on_c, 6, 73, 105
8, 162198, Note_on_c, 6, 73, 0
8, 162240, Note_on_c, 6, 81, 105
8, 162624, Note_on_c, 6, 81, 0
8, 162720, Note_on_c, 6, 76, 105
8, 162840, Note_on_c, 6, 76, 0
8, 162840, Note_on_c, 6, 73, 105
8, 162918, Note_on_c, 6, 73, 0
8, 162960, Note_on_c, 6, 76, 105
8, 163038, Note_on_c, 6, 76, 0
8, 163080, Note_on_c, 6, 73, 105
8, 163158, Note_on_c, 6, 73, 0
8, 163200, Note_on_c, 6, 69, 105
8, 163584, Note_on_c, 6, 69, 0
8, 163680, Note_on_c, 6, 57, 105
8, 163968, Note_on_c, 6, 57, 0
8, 164040, Note_on_c, 6, 57, 105
8, 164136, Note_on_c, 6, 57, 0
8, 164160, Note_on_c, 6, 57, 105
8, 164544, Note_on_c, 6, 57, 0
8, 174720, Note_on_c, 6, 66, 62
8, 176640, Note_on_c, 6, 66, 0
8, 176640, Note_on_c, 6, 64, 62
8, 178560, Note_on_c, 6, 64, 0
8, 178560, Note_on_c, 6, 63, 62
8, 180480, Note_on_c, 6, 63, 0
8, 180480, Note_on_c, 6, 68, 62
8, 180864, Note_on_c, 6, 68, 0
8, 181440, Note_on_c, 6, 68, 62
8, 181824, Note_on_c, 6, 68, 0
8, 182400, Note_on_c, 6, 69, 62
8, 182784, Note_on_c, 6, 69, 0
8, 183360, Note_on_c, 6, 71, 62
8, 183744, Note_on_c, 6, 71, 0
8, 186960, Note_on_c, 6, 71, 80
8, 187116, Note_on_c, 6, 71, 0
8, 187200, Note_on_c, 6, 66, 83
8, 187356, Note_on_c, 6, 66, 0
8, 187440, Note_on_c, 6, 71, 80
8, 187596, Note_on_c, 6, 71, 0
8, 187680, Note_on_c, 6, 63, 80
8, 187836, Note_on_c, 6, 63, 0
8, 187920, Note_on_c, 6, 66, 80
8, 188076, Note_on_c, 6, 66, 0
8, 188160, Note_on_c, 6, 59, 71
8, 188544, Note_on_c, 6, 59, 0
8, 192000, Note_on_c, 6, 68, 62
8, 194832, Note_on_c, 6, 68, 0
8, 194880, Note_on_c, 6, 64, 62
8, 195192, Note_on_c, 6, 64, 0
8, 195360, Note_on_c, 6, 59, 62
8, 195672, Note_on_c, 6, 59, 0
8, 195840, Note_on_c, 6, 59, 34
8, 196224, Note_on_c, 6, 59, 0
8, 199680, Note_on_c, 6, 68, 62
8, 202512, Note_on_c, 6, 68, 0
8, 202560, Note_on_c, 6, 64, 62
8, 202872, Note_on_c, 6, 64, 0
8, 203040, Note_on_c, 6, 59, 62
8, 203352, Note_on_c, 6, 59, 0
8, 204000, Note_on_c, 6, 64, 58
8, 204912, Note_on_c, 6, 64, 0
8, 204960, Note_on_c, 6, 64, 58
8, 205416, Note_on_c, 6, 64, 0
8, 205920, Note_on_c, 6, 64, 58
8, 206832, Note_on_c, 6, 64, 0
8, 206880, Note_on_c, 6, 64, 58
8, 207336, Note_on_c, 6, 64, 0
8, 207840, Note_on_c, 6, 66, 58
8, 208752, Note_on_c, 6, 66, 0
8, 208800, Note_on_c, 6, 66, 58
8, 209256, Note_on_c, 6, 66, 0
8, 209760, Note_on_c, 6, 66, 58
8, 210672, Note_on_c, 6, 66, 0
8, 210720, Note_on_c, 6, 66, 58
8, 211176, Note_on_c, 6, 66, 0
8, 211200, Note_on_c, 6, 64, 58
8, 211584, Note_on_c, 6, 64, 0
8, 220320, Note_on_c, 6, 59, 71
8, 220800, Note_on_c, 6, 59, 0
8, 220800, Note_on_c, 6, 56, 71
8, 221064, Note_on_c, 6, 56, 0
8, 221280, Note_on_c, 6, 56, 71
8, 221760, Note_on_c, 6, 56, 0
8, 221760, Note_on_c, 6, 57, 71
8, 222024, Note_on_c, 6, 57, 0
8, 222240, Note_on_c, 6, 57, 71
8, 222720, Note_on_c, 6, 57, 0
8, 222720, Note_on_c, 6, 59, 71
8, 223104, Note_on_c, 6, 59, 0
8, 224160, Note_on_c, 6, 58, 71
8, 224640, Note_on_c, 6, 58, 0
8, 224640, Note_on_c, 6, 59, 62
8, 225024, Note_on_c, 6, 59, 0
8, 226080, Note_on_c, 6, 58, 71
8, 226560, Note_on_c, 6, 58, 0
8, 226560, Note_on_c, 6, 59, 62
8, 226944, Note_on_c, 6, 59, 0
8, 228480, Note_on_c, 6, 71, 44
8, 235584, Note_on_c, 6, 71, 0
8, 237120, Note_on_c, 6, 68, 58
8, 238080, Note_on_c, 6, 68, 0
8, 238080, Note_on_c, 6, 69, 58
8, 240000, Note_on_c, 6, 69, 0
8, 240000, Note_on_c, 6, 68, 58
8, 241920, Note_on_c, 6, 68, 0
8, 241920, Note_on_c, 6, 69, 58
8, 243840, Note_on_c, 6, 69, 0
8, 243840, Note_on_c, 6, 68, 54
8, 244224, Note_on_c, 6, 68, 0
8, 263040, Note_on_c, 6, 71, 58
8, 266880, Note_on_c, 6, 71, 0
8, 266880, Note_on_c, 6, 73, 58
8, 270720, Note_on_c, 6, 73, 0
8, 270720, Note_on_c, 6, 59, 80
8, 271488, Note_on_c, 6, 59, 0
8, 274800, Note_on_c, 6, 68, 62
8, 274956, Note_on_c, 6, 68, 0
8, 275040, Note_on_c, 6, 68, 62
8, 275196, Note_on_c, 6, 68, 0
8, 275280, Note_on_c, 6, 68, 62
8, 275436, Note_on_c, 6, 68, 0
8, 275760, Note_on_c, 6, 68, 62
8, 275916, Note_on_c, 6, 68, 0
8, 276000, Note_on_c, 6, 68, 62
8, 276156, Note_on_c, 6, 68, 0
8, 276240, Note_on_c, 6, 68, 62
8, 276396, Note_on_c, 6, 68, 0
8, 276720, Note_on_c, 6, 69, 62
8, 277104, Note_on_c, 6, 69, 0
8, 277200, Note_on_c, 6, 69, 72
8, 277392, Note_on_c, 6, 69, 0
8, 277680, Note_on_c, 6, 57, 84
8, 278064, Note_on_c, 6, 57, 0
8, 278160, Note_on_c, 6, 57, 96
8, 278352, Note_on_c, 6, 57, 0
8, 278400, Note_on_c, 6, 56, 105
8, 278784, Note_on_c, 6, 56, 0
8, 279840, Note_on_c, 6, 66, 105
8, 279984, Note_on_c, 6, 66, 0
8, 280080, Note_on_c, 6, 75, 105
8, 280224, Note_on_c, 6, 75, 0
8, 280320, Note_on_c, 6, 76, 105
8, 280464, Note_on_c, 6, 76, 0
8, 280560, Note_on_c, 6, 76, 105
8, 280704, Note_on_c, 6, 76, 0
8, 280800, Note_on_c, 6, 76, 105
8, 280944, Note_on_c, 6, 76, 0
8, 281040, Note_on_c, 6, 76, 105
8, 281184, Note_on_c, 6, 76, 0
8, 281280, Note_on_c, 6, 76, 105
8, 281424, Note_on_c, 6, 76, 0
8, 281520, Note_on_c, 6, 76, 105
8, 281664, Note_on_c, 6, 76, 0
8, 281760, Note_on_c, 6, 69, 105
8, 281904, Note_on_c, 6, 69, 0
8, 282000, Note_on_c, 6, 69, 105
8, 282144, Note_on_c, 6, 69, 0
8, 282240, Note_on_c, 6, 68, 105
8, 282624, Note_on_c, 6, 68, 0
8, 283680, Note_on_c, 6, 66, 105
8, 283824, Note_on_c, 6, 66, 0
8, 283920, Note_on_c, 6, 75, 105
8, 284064, Note_on_c, 6, 75, 0
8, 284160, Note_on_c, 6, 76, 105
8, 284304, Note_on_c, 6, 76, 0
8, 284400, Note_on_c, 6, 76, 105
8, 284544, Note_on_c, 6, 76, 0
8, 284640, Note_on_c, 6, 76, 105
8, 284784, Note_on_c, 6, 76, 0
8, 284880, Note_on_c, 6, 76, 105
8, 285024, Note_on_c, 6, 76, 0
8, 285120, Note_on_c, 6, 76, 105
8, 285264, Note_on_c, 6, 76, 0
8, 285360, Note_on_c, 6, 76, 105
8, 285504, Note_on_c, 6, 76, 0
8, 285600, Note_on_c, 6, 69, 105
8, 285744, Note_on_c, 6, 69, 0
8, 285840, Note_on_c, 6, 69, 105
8, 285984, Note_on_c, 6, 69, 0
8, 286080, Note_on_c, 6, 68, 105
8, 286464, Note_on_c, 6, 68, 0
8, 286560, Note_on_c, 6, 83, 105
8, 286680, Note_on_c, 6, 83, 0
8, 286680, Note_on_c, 6, 80, 90
8, 286752, Note_on_c, 6, 80, 0
8, 286800, Note_on_c, 6, 83, 90
8, 286872, Note_on_c, 6, 83, 0
8, 286920, Note_on_c, 6, 80, 90
8, 286992, Note_on_c, 6, 80, 0
8, 287040, Note_on_c, 6, 76, 90
8, 287424, Note_on_c, 6, 76, 0
8, 287520, Note_on_c, 6, 80, 90
8, 287640, Note_on_c, 6, 80, 0
8, 287640, Note_on_c, 6, 76, 90
8, 287712, Note_on_c, 6, 76, 0
8, 287760, Note_on_c, 6, 80, 90
8, 287832, Note_on_c, 6, 80, 0
8, 287880, Note_on_c, 6, 76, 90
8, 287952, Note_on_c, 6, 76, 0
8, 288000, Note_on_c, 6, 71, 90
8, 288384, Note_on_c, 6, 71, 0
8, 288480, Note_on_c, 6, 76, 90
8, 288600, Note_on_c, 6, 76, 0
8, 288600, Note_on_c, 6, 71, 90
8, 288672, Note_on_c, 6, 71, 0
8, 288720, Note_on_c, 6, 76, 90
8, 288792, Note_on_c, 6, 76, 0
8, 288840, Note_on_c, 6, 71, 90
8, 288912, Note_on_c, 6, 71, 0
8, 288960, Note_on_c, 6, 68, 90
8, 289344, Note_on_c, 6, 68, 0
8, 289440, Note_on_c, 6, 71, 90
8, 289560, Note_on_c, 6, 71, 0
8, 289560, Note_on_c, 6, 68, 90
8, 289632, Note_on_c, 6, 68, 0
8, 289680, Note_on_c, 6, 71, 90
8, 289752, Note_on_c, 6, 71, 0
8, 289800, Note_on_c, 6, 68, 90
8, 289872, Note_on_c, 6, 68, 0
8, 289920, Note_on_c, 6, 64, 90
8, 290496, Note_on_c, 6, 64, 0
8, 290640, Note_on_c, 6, 68, 90
8, 290736, Note_on_c, 6, 68, 0
8, 290760, Note_on_c, 6, 71, 90
8, 290856, Note_on_c, 6, 71, 0
8, 290880, Note_on_c, 6, 76, 90
8, 291192, Note_on_c, 6, 76, 0
8, 291360, Note_on_c, 6, 64, 90
8, 291360, Note_on_c, 6, 71, 90
8, 291360, Note_on_c, 6, 80, 90
8, 291672, Note_on_c, 6, 80, 0
8, 291672, Note_on_c, 6, 71, 0
8, 291672, Note_on_c, 6, 64, 0
8, 291840, Note_on_c, 6, 76, 90
8, 291840, Note_on_c, 6, 71, 90
8, 291840, Note_on_c, 6, 64, 90
8, 292224, Note_on_c, 6, 64, 0
8, 292224, Note_on_c, 6, 71, 0
8, 292224, Note_on_c, 6, 76, 0
8, 309600, Note_on_c, 6, 71, 62
8, 310080, Note_on_c, 6, 71, 0
8, 310080, Note_on_c, 6, 63, 62
8, 310320, Note_on_c, 6, 63, 0
8, 310560, Note_on_c, 6, 64, 62
8, 310800, Note_on_c, 6, 64, 0
8, 311040, Note_on_c, 6, 66, 62
8, 311424, Note_on_c, 6, 66, 0
8, 313440, Note_on_c, 6, 71, 62
8, 313920, Note_on_c, 6, 71, 0
8, 313920, Note_on_c, 6, 64, 62
8, 314160, Note_on_c, 6, 64, 0
8, 314400, Note_on_c, 6, 66, 62
8, 314640, Note_on_c, 6, 66, 0
8, 314880, Note_on_c, 6, 68, 62
8, 315264, Note_on_c, 6, 68, 0
8, 322560, Note_on_c, 6, 59, 62
8, 325632, Note_on_c, 6, 59, 0
8, 325680, Note_on_c, 6, 59, 82
8, 326064, Note_on_c, 6, 59, 0
8, 326160, Note_on_c, 6, 59, 82
8, 326316, Note_on_c, 6, 59, 0
8, 326400, Note_on_c, 6, 59, 62
8, 329472, Note_on_c, 6, 59, 0
8, 329520, Note_on_c, 6, 59, 82
8, 329904, Note_on_c, 6, 59, 0
8, 330000, Note_on_c, 6, 59, 82
8, 330156, Note_on_c, 6, 59, 0
8, 330240, Note_on_c, 6, 59, 62
8, 332160, Note_on_c, 6, 59, 0
8, 332160, Note_on_c, 6, 57, 62
8, 334080, Note_on_c, 6, 57, 0
8, 334080, Note_on_c, 6, 65, 62
8, 336000, Note_on_c, 6, 65, 0
8, 336000, Note_on_c, 6, 66, 62
8, 337920, Note_on_c, 6, 66, 0
8, 337920, Note_on_c, 6, 71, 62
8, 339840, Note_on_c, 6, 71, 0
8, 339840, Note_on_c, 6, 69, 62
8, 341760, Note_on_c, 6, 69, 0
8, 341760, Note_on_c, 6, 68, 62
8, 343680, Note_on_c, 6, 68, 0
8, 343680, Note_on_c, 6, 69, 62
8, 345600, Note_on_c, 6, 69, 0
8, 345600, Note_on_c, 6, 68, 62
8, 345912, Note_on_c, 6, 68, 0
8, 346080, Note_on_c, 6, 61, 62
8, 346992, Note_on_c, 6, 61, 0
8, 347040, Note_on_c, 6, 65, 62
8, 347520, Note_on_c, 6, 65, 0
8, 347520, Note_on_c, 6, 66, 62
8, 348000, Note_on_c, 6, 66, 0
8, 348000, Note_on_c, 6, 68, 62
8, 348480, Note_on_c, 6, 68, 0
8, 348480, Note_on_c, 6, 69, 62
8, 348960, Note_on_c, 6, 69, 0
8, 348960, Note_on_c, 6, 66, 62
8, 349430, Note_on_c, 6, 66, 0
8, 349440, Note_on_c, 6, 74, 62
8, 349824, Note_on_c, 6, 74, 0
8, 349920, Note_on_c, 6, 59, 102
8, 350860, Note_on_c, 6, 59, 0
8, 350880, Note_on_c, 6, 73, 62
8, 351360, Note_on_c, 6, 73, 0
8, 351360, Note_on_c, 6, 71, 62
8, 351840, Note_on_c, 6, 71, 0
8, 351840, Note_on_c, 6, 69, 62
8, 352320, Note_on_c, 6, 69, 0
8, 352320, Note_on_c, 6, 68, 62
8, 352800, Note_on_c, 6, 68, 0
8, 352800, Note_on_c, 6, 71, 62
8, 353270, Note_on_c, 6, 71, 0
8, 353280, Note_on_c, 6, 71, 62
8, 354220, Note_on_c, 6, 71, 0
8, 354240, Note_on_c, 6, 73, 62
8, 357082, Note_on_c, 6, 73, 0
8, 357120, Note_on_c, 6, 71, 62
8, 357432, Note_on_c, 6, 71, 0
8, 357600, Note_on_c, 6, 56, 102
8, 358540, Note_on_c, 6, 56, 0
8, 358560, Note_on_c, 6, 69, 62
8, 359040, Note_on_c, 6, 69, 0
8, 359040, Note_on_c, 6, 68, 62
8, 359520, Note_on_c, 6, 68, 0
8, 359520, Note_on_c, 6, 66, 62
8, 360000, Note_on_c, 6, 66, 0
8, 360000, Note_on_c, 6, 65, 62
8, 360480, Note_on_c, 6, 65, 0
8, 360480, Note_on_c, 6, 68, 62
8, 360950, Note_on_c, 6, 68, 0
8, 360960, Note_on_c, 6, 66, 53
8, 361920, Note_on_c, 6, 66, 0
8, 361920, Note_on_c, 6, 67, 53
8, 362880, Note_on_c, 6, 67, 0
8, 362880, Note_on_c, 6, 66, 55
8, 364762, Note_on_c, 6, 66, 0
8, 364800, Note_on_c, 6, 68, 61
8, 366682, Note_on_c, 6, 68, 0
8, 366720, Note_on_c, 6, 69, 72
8, 367200, Note_on_c, 6, 69, 0
8, 367200, Note_on_c, 6, 68, 70
8, 367680, Note_on_c, 6, 68, 0
8, 367680, Note_on_c, 6, 66, 67
8, 368160, Note_on_c, 6, 66, 0
8, 368160, Note_on_c, 6, 65, 63
8, 368630, Note_on_c, 6, 65, 0
8, 368880, Note_on_c, 6, 66, 62
8, 369072, Note_on_c, 6, 66, 0
8, 369120, Note_on_c, 6, 66, 62
8, 369312, Note_on_c, 6, 66, 0
8, 369360, Note_on_c, 6, 66, 63
8, 369552, Note_on_c, 6, 66, 0
8, 369840, Note_on_c, 6, 67, 64
8, 370032, Note_on_c, 6, 67, 0
8, 370080, Note_on_c, 6, 67, 65
8, 370272, Note_on_c, 6, 67, 0
8, 370320, Note_on_c, 6, 67, 66
8, 370512, Note_on_c, 6, 67, 0
8, 370800, Note_on_c, 6, 66, 69
8, 370992, Note_on_c, 6, 66, 0
8, 371040, Note_on_c, 6, 66, 70
8, 371232, Note_on_c, 6, 66, 0
8, 371280, Note_on_c, 6, 66, 72
8, 371472, Note_on_c, 6, 66, 0
8, 371760, Note_on_c, 6, 69, 75
8, 371952, Note_on_c, 6, 69, 0
8, 372000, Note_on_c, 6, 69, 77
8, 372192, Note_on_c, 6, 69, 0
8, 372240, Note_on_c, 6, 69, 79
8, 372432, Note_on_c, 6, 69, 0
8, 372720, Note_on_c, 6, 69, 83
8, 372912, Note_on_c, 6, 69, 0
8, 372960, Note_on_c, 6, 69, 86
8, 373152, Note_on_c, 6, 69, 0
8, 373200, Note_on_c, 6, 69, 88
8, 373392, Note_on_c, 6, 69, 0
8, 373440, Note_on_c, 6, 68, 94
8, 375840, Note_on_c, 6, 68, 0
8, 380160, Note_on_c, 6, 61, 62
8, 380304, Note_on_c, 6, 61, 0
8, 380400, Note_on_c, 6, 64, 62
8, 380544, Note_on_c, 6, 64, 0
8, 380640, Note_on_c, 6, 61, 62
8, 380784, Note_on_c, 6, 61, 0
8, 380880, Note_on_c, 6, 64, 62
8, 381024, Note_on_c, 6, 64, 0
8, 381120, Note_on_c, 6, 61, 62
8, 381264, Note_on_c, 6, 61, 0
8, 381360, Note_on_c, 6, 64, 62
8, 381504, Note_on_c, 6, 64, 0
8, 381600, Note_on_c, 6, 61, 62
8, 381744, Note_on_c, 6, 61, 0
8, 381840, Note_on_c, 6, 64, 62
8, 381984, Note_on_c, 6, 64, 0
8, 382080, Note_on_c, 6, 62, 62
8, 382224, Note_on_c, 6, 62, 0
8, 382320, Note_on_c, 6, 64, 62
8, 382464, Note_on_c, 6, 64, 0
8, 382560, Note_on_c, 6, 62, 62
8, 382704, Note_on_c, 6, 62, 0
8, 382800, Note_on_c, 6, 64, 62
8, 382944, Note_on_c, 6, 64, 0
8, 383040, Note_on_c, 6, 62, 62
8, 383184, Note_on_c, 6, 62, 0
8, 383280, Note_on_c, 6, 64, 62
8, 383424, Note_on_c, 6, 64, 0
8, 383520, Note_on_c, 6, 62, 62
8, 383664, Note_on_c, 6, 62, 0
8, 383760, Note_on_c, 6, 64, 62
8, 383904, Note_on_c, 6, 64, 0
8, 384000, Note_on_c, 6, 62, 62
8, 384144, Note_on_c, 6, 62, 0
8, 384240, Note_on_c, 6, 64, 62
8, 384384, Note_on_c, 6, 64, 0
8, 384480, Note_on_c, 6, 62, 62
8, 384624, Note_on_c, 6, 62, 0
8, 384720, Note_on_c, 6, 64, 62
8, 384864, Note_on_c, 6, 64, 0
8, 384960, Note_on_c, 6, 62, 62
8, 385104, Note_on_c, 6, 62, 0
8, 385200, Note_on_c, 6, 64, 62
8, 385344, Note_on_c, 6, 64, 0
8, 385440, Note_on_c, 6, 62, 62
8, 385584, Note_on_c, 6, 62, 0
8, 385680, Note_on_c, 6, 64, 62
8, 385824, Note_on_c, 6, 64, 0
8, 385920, Note_on_c, 6, 61, 62
8, 386064, Note_on_c, 6, 61, 0
8, 386160, Note_on_c, 6, 64, 62
8, 386304, Note_on_c, 6, 64, 0
8, 386400, Note_on_c, 6, 61, 62
8, 386544, Note_on_c, 6, 61, 0
8, 386640, Note_on_c, 6, 64, 62
8, 386784, Note_on_c, 6, 64, 0
8, 386880, Note_on_c, 6, 61, 62
8, 387024, Note_on_c, 6, 61, 0
8, 387120, Note_on_c, 6, 64, 62
8, 387264, Note_on_c, 6, 64, 0
8, 387360, Note_on_c, 6, 61, 62
8, 387504, Note_on_c, 6, 61, 0
8, 387600, Note_on_c, 6, 64, 62
8, 387744, Note_on_c, 6, 64, 0
8, 387840, Note_on_c, 6, 57, 62
8, 388224, Note_on_c, 6, 57, 0
8, 388320, Note_on_c, 6, 69, 71
8, 389280, Note_on_c, 6, 69, 0
8, 389280, Note_on_c, 6, 68, 71
8, 390240, Note_on_c, 6, 68, 0
8, 390240, Note_on_c, 6, 66, 71
8, 391200, Note_on_c, 6, 66, 0
8, 391200, Note_on_c, 6, 64, 71
8, 392160, Note_on_c, 6, 64, 0
8, 392160, Note_on_c, 6, 62, 71
8, 393120, Note_on_c, 6, 62, 0
8, 393120, Note_on_c, 6, 61, 71
8, 393840, Note_on_c, 6, 61, 0
8, 393840, Note_on_c, 6, 59, 71
8, 394080, Note_on_c, 6, 59, 0
8, 394080, Note_on_c, 6, 58, 71
8, 394320, Note_on_c, 6, 58, 0
8, 394320, Note_on_c, 6, 59, 71
8, 394560, Note_on_c, 6, 59, 0
8, 394560, Note_on_c, 6, 59, 71
8, 394944, Note_on_c, 6, 59, 0
8, 395520, Note_on_c, 6, 69, 34
8, 397440, Note_on_c, 6, 69, 0
8, 397440, Note_on_c, 6, 71, 34
8, 397440, Note_on_c, 6, 59, 58
8, 399360, Note_on_c, 6, 59, 0
8, 399360, Note_on_c, 6, 68, 59
8, 401280, Note_on_c, 6, 68, 0
8, 401280, Note_on_c, 6, 71, 0
8, 401280, Note_on_c, 6, 69, 59
8, 403200, Note_on_c, 6, 69, 0
8, 416160, Note_on_c, 6, 71, 105
8, 416304, Note_on_c, 6, 71, 0
8, 416400, Note_on_c, 6, 68, 105
8, 416544, Note_on_c, 6, 68, 0
8, 416640, Note_on_c, 6, 69, 105
8, 416784, Note_on_c, 6, 69, 0
8, 416880, Note_on_c, 6, 69, 105
8, 417024, Note_on_c, 6, 69, 0
8, 417120, Note_on_c, 6, 69, 105
8, 417264, Note_on_c, 6, 69, 0
8, 417360, Note_on_c, 6, 69, 105
8, 417504, Note_on_c, 6, 69, 0
8, 417600, Note_on_c, 6, 69, 105
8, 417744, Note_on_c, 6, 69, 0
8, 417840, Note_on_c, 6, 69, 105
8, 417984, Note_on_c, 6, 69, 0
8, 418080, Note_on_c, 6, 62, 105
8, 418224, Note_on_c, 6, 62, 0
8, 418320, Note_on_c, 6, 62, 105
8, 418464, Note_on_c, 6, 62, 0
8, 418560, Note_on_c, 6, 61, 105
8, 418944, Note_on_c, 6, 61, 0
8, 419040, Note_on_c, 6, 76, 105
8, 419160, Note_on_c, 6, 76, 0
8, 419160, Note_on_c, 6, 73, 105
8, 419238, Note_on_c, 6, 73, 0
8, 419280, Note_on_c, 6, 76, 105
8, 419358, Note_on_c, 6, 76, 0
8, 419400, Note_on_c, 6, 73, 105
8, 419478, Note_on_c, 6, 73, 0
8, 419520, Note_on_c, 6, 81, 105
8, 419904, Note_on_c, 6, 81, 0
8, 420000, Note_on_c, 6, 76, 105
8, 420120, Note_on_c, 6, 76, 0
8, 420120, Note_on_c, 6, 73, 105
8, 420198, Note_on_c, 6, 73, 0
8, 420240, Note_on_c, 6, 76, 105
8, 420318, Note_on_c, 6, 76, 0
8, 420360, Note_on_c, 6, 73, 105
8, 420438, Note_on_c, 6, 73, 0
8, 420480, Note_on_c, 6, 69, 105
8, 420792, Note_on_c, 6, 69, 0
8, 420960, Note_on_c, 6, 57, 105
8, 421194, Note_on_c, 6, 57, 0
8, 421320, Note_on_c, 6, 57, 105
8, 421398, Note_on_c, 6, 57, 0
8, 421440, Note_on_c, 6, 57, 105
8, 421824, Note_on_c, 6, 57, 0
8, 433920, Note_on_c, 6, 69, 62
8, 434160, Note_on_c, 6, 69, 0
8, 434880, Note_on_c, 6, 69, 62
8, 435120, Note_on_c, 6, 69, 0
8, 435840, Note_on_c, 6, 68, 62
8, 438000, Note_on_c, 6, 68, 0
8, 438720, Note_on_c, 6, 68, 62
8, 438960, Note_on_c, 6, 68, 0
8, 439680, Note_on_c, 6, 66, 62
8, 441840, Note_on_c, 6, 66, 0
8, 442560, Note_on_c, 6, 66, 62
8, 442800, Note_on_c, 6, 66, 0
8, 443520, Note_on_c, 6, 64, 62
8, 445680, Note_on_c, 6, 64, 0
8, 446400, Note_on_c, 6, 69, 62
8, 446640, Note_on_c, 6, 69, 0
8, 447360, Note_on_c, 6, 69, 62
8, 449280, Note_on_c, 6, 69, 0
8, 449280, Note_on_c, 6, 68, 62
8, 450048, Note_on_c, 6, 68, 0
8, 450720, Note_on_c, 6, 64, 71
8, 451200, Note_on_c, 6, 64, 0
8, 451200, Note_on_c, 6, 61, 71
8, 451464, Note_on_c, 6, 61, 0
8, 451680, Note_on_c, 6, 61, 71
8, 452160, Note_on_c, 6, 61, 0
8, 452160, Note_on_c, 6, 62, 71
8, 452424, Note_on_c, 6, 62, 0
8, 452640, Note_on_c, 6, 62, 71
8, 453120, Note_on_c, 6, 62, 0
8, 453120, Note_on_c, 6, 64, 62
8, 453504, Note_on_c, 6, 64, 0
8, 454560, Note_on_c, 6, 63, 71
8, 455040, Note_on_c, 6, 63, 0
8, 455040, Note_on_c, 6, 64, 71
8, 455424, Note_on_c, 6, 64, 0
8, 456480, Note_on_c, 6, 63, 71
8, 456960, Note_on_c, 6, 63, 0
8, 456960, Note_on_c, 6, 64, 62
8, 457344, Note_on_c, 6, 64, 0
8, 458880, Note_on_c, 6, 64, 62
8, 465792, Note_on_c, 6, 64, 0
8, 467520, Note_on_c, 6, 61, 62
8, 468480, Note_on_c, 6, 61, 0
8, 468480, Note_on_c, 6, 62, 62
8, 470400, Note_on_c, 6, 62, 0
8, 470400, Note_on_c, 6, 61, 62
8, 471360, Note_on_c, 6, 61, 0
8, 471360, Note_on_c, 6, 73, 62
8, 472320, Note_on_c, 6, 73, 0
8, 472320, Note_on_c, 6, 74, 62
8, 474240, Note_on_c, 6, 74, 0
8, 474240, Note_on_c, 6, 73, 62
8, 474720, Note_on_c, 6, 73, 0
8, 489600, Note_on_c, 6, 64, 62
8, 489744, Note_on_c, 6, 64, 0
8, 489840, Note_on_c, 6, 64, 71
8, 489984, Note_on_c, 6, 64, 0
8, 490080, Note_on_c, 6, 64, 71
8, 490224, Note_on_c, 6, 64, 0
8, 490320, Note_on_c, 6, 64, 71
8, 490464, Note_on_c, 6, 64, 0
8, 490560, Note_on_c, 6, 64, 71
8, 490704, Note_on_c, 6, 64, 0
8, 490800, Note_on_c, 6, 64, 71
8, 490944, Note_on_c, 6, 64, 0
8, 491040, Note_on_c, 6, 64, 71
8, 491184, Note_on_c, 6, 64, 0
8, 491280, Note_on_c, 6, 64, 71
8, 491424, Note_on_c, 6, 64, 0
8, 491520, Note_on_c, 6, 64, 71
8, 491664, Note_on_c, 6, 64, 0
8, 491760, Note_on_c, 6, 69, 71
8, 491904, Note_on_c, 6, 69, 0
8, 492000, Note_on_c, 6, 69, 71
8, 492144, Note_on_c, 6, 69, 0
8, 492240, Note_on_c, 6, 69, 71
8, 492384, Note_on_c, 6, 69, 0
8, 492480, Note_on_c, 6, 69, 71
8, 492624, Note_on_c, 6, 69, 0
8, 492720, Note_on_c, 6, 69, 71
8, 492864, Note_on_c, 6, 69, 0
8, 492960, Note_on_c, 6, 69, 71
8, 493104, Note_on_c, 6, 69, 0
8, 493200, Note_on_c, 6, 69, 71
8, 493344, Note_on_c, 6, 69, 0
8, 493440, Note_on_c, 6, 69, 71
8, 494852, Note_on_c, 6, 69, 0
8, 494880, Note_on_c, 6, 63, 71
8, 495120, Note_on_c, 6, 63, 0
8, 495120, Note_on_c, 6, 66, 71
8, 495312, Note_on_c, 6, 66, 0
8, 495360, Note_on_c, 6, 69, 71
8, 495840, Note_on_c, 6, 69, 0
8, 495840, Note_on_c, 6, 68, 62
8, 496032, Note_on_c, 6, 68, 0
8, 511200, Note_on_c, 6, 71, 71
8, 511680, Note_on_c, 6, 71, 0
8, 511680, Note_on_c, 6, 73, 71
8, 512160, Note_on_c, 6, 73, 0
8, 512160, Note_on_c, 6, 71, 71
8, 512640, Note_on_c, 6, 71, 0
8, 512640, Note_on_c, 6, 73, 71
8, 513120, Note_on_c, 6, 73, 0
8, 513120, Note_on_c, 6, 71, 71
8, 513600, Note_on_c, 6, 71, 0
8, 513600, Note_on_c, 6, 73, 71
8, 514080, Note_on_c, 6, 73, 0
8, 514080, Note_on_c, 6, 71, 71
8, 514464, Note_on_c, 6, 71, 0
8, 514560, Note_on_c, 6, 73, 71
8, 514716, Note_on_c, 6, 73, 0
8, 514800, Note_on_c, 6, 73, 71
8, 514956, Note_on_c, 6, 73, 0
8, 515040, Note_on_c, 6, 71, 71
8, 515196, Note_on_c, 6, 71, 0
8, 515280, Note_on_c, 6, 71, 71
8, 515436, Note_on_c, 6, 71, 0
8, 515520, Note_on_c, 6, 73, 71
8, 515676, Note_on_c, 6, 73, 0
8, 515760, Note_on_c, 6, 73, 71
8, 515916, Note_on_c, 6, 73, 0
8, 516000, Note_on_c, 6, 71, 71
8, 516156, Note_on_c, 6, 71, 0
8, 516240, Note_on_c, 6, 71, 71
8, 516396, Note_on_c, 6, 71, 0
8, 516480, Note_on_c, 6, 73, 71
8, 516864, Note_on_c, 6, 73, 0
8, 518400, Note_on_c, 6, 74, 71
8, 518784, Note_on_c, 6, 74, 0
8, 520560, Note_on_c, 6, 69, 71
8, 520716, Note_on_c, 6, 69, 0
8, 520800, Note_on_c, 6, 69, 71
8, 520956, Note_on_c, 6, 69, 0
8, 521040, Note_on_c, 6, 69, 71
8, 521196, Note_on_c, 6, 69, 0
8, 521520, Note_on_c, 6, 68, 71
8, 521676, Note_on_c, 6, 68, 0
8, 521760, Note_on_c, 6, 68, 71
8, 521916, Note_on_c, 6, 68, 0
8, 522000, Note_on_c, 6, 68, 71
8, 522156, Note_on_c, 6, 68, 0
8, 522240, Note_on_c, 6, 69, 65
8, 522432, Note_on_c, 6, 69, 0
8, 522720, Note_on_c, 6, 76, 65
8, 523488, Note_on_c, 6, 76, 0
8, 523680, Note_on_c, 6, 76, 66
8, 524544, Note_on_c, 6, 76, 0
8, 524640, Note_on_c, 6, 76, 67
8, 525408, Note_on_c, 6, 76, 0
8, 525600, Note_on_c, 6, 76, 68
8, 526272, Note_on_c, 6, 76, 0
8, 526320, Note_on_c, 6, 76, 69
8, 526704, Note_on_c, 6, 76, 0
8, 526800, Note_on_c, 6, 76, 69
8, 527184, Note_on_c, 6, 76, 0
8, 527280, Note_on_c, 6, 76, 70
8, 527664, Note_on_c, 6, 76, 0
8, 527760, Note_on_c, 6, 76, 71
8, 528384, Note_on_c, 6, 76, 0
8, 530160, Note_on_c, 6, 64, 91
8, 530520, Note_on_c, 6, 64, 0
8, 530640, Note_on_c, 6, 64, 71
8, 530820, Note_on_c, 6, 64, 0
8, 531120, Note_on_c, 6, 61, 91
8, 531480, Note_on_c, 6, 61, 0
8, 531600, Note_on_c, 6, 61, 71
8, 531780, Note_on_c, 6, 61, 0
8, 531840, Note_on_c, 6, 62, 71
8, 532224, Note_on_c, 6, 62, 0
8, 534000, Note_on_c, 6, 69, 91
8, 534360, Note_on_c, 6, 69, 0
8, 534480, Note_on_c, 6, 69, 71
8, 534660, Note_on_c, 6, 69, 0
8, 534960, Note_on_c, 6, 72, 91
8, 535320, Note_on_c, 6, 72, 0
8, 535440, Note_on_c, 6, 72, 71
8, 535620, Note_on_c, 6, 72, 0
8, 535680, Note_on_c, 6, 73, 91
8, 535920, Note_on_c, 6, 73, 0
8, 535920, Note_on_c, 6, 69, 71
8, 536076, Note_on_c, 6, 69, 0
8, 536160, Note_on_c, 6, 73, 71
8, 536304, Note_on_c, 6, 73, 0
8, 536400, Note_on_c, 6, 73, 71
8, 536544, Note_on_c, 6, 73, 0
8, 536640, Note_on_c, 6, 73, 71
8, 536952, Note_on_c, 6, 73, 0
8, 543600, Note_on_c, 6, 61, 68
8, 543756, Note_on_c, 6, 61, 0
8, 543840, Note_on_c, 6, 61, 71
8, 543996, Note_on_c, 6, 61, 0
8, 544080, Note_on_c, 6, 61, 74
8, 544236, Note_on_c, 6, 61, 0
8, 544560, Note_on_c, 6, 73, 79
8, 544716, Note_on_c, 6, 73, 0
8, 544800, Note_on_c, 6, 73, 82
8, 544956, Note_on_c, 6, 73, 0
8, 545040, Note_on_c, 6, 73, 85
8, 545196, Note_on_c, 6, 73, 0
8, 545520, Note_on_c, 6, 74, 90
8, 545676, Note_on_c, 6, 74, 0
8, 545760, Note_on_c, 6, 74, 93
8, 545916, Note_on_c, 6, 74, 0
8, 546000, Note_on_c, 6, 74, 96
8, 546156, Note_on_c, 6, 74, 0
8, 546480, Note_on_c, 6, 62, 101
8, 546636, Note_on_c, 6, 62, 0
8, 546720, Note_on_c, 6, 62, 102
8, 546876, Note_on_c, 6, 62, 0
8, 546960, Note_on_c, 6, 62, 102
8, 547116, Note_on_c, 6, 62, 0
8, 547200, Note_on_c, 6, 61, 104
8, 547584, Note_on_c, 6, 61, 0
8, 548640, Note_on_c, 6, 78, 80
8, 548736, Note_on_c, 6, 78, 0
8, 548760, Note_on_c, 6, 76, 80
8, 548856, Note_on_c, 6, 76, 0
8, 548880, Note_on_c, 6, 74, 80
8, 548976, Note_on_c, 6, 74, 0
8, 549000, Note_on_c, 6, 73, 80
8, 549096, Note_on_c, 6, 73, 0
8, 549120, Note_on_c, 6, 71, 71
8, 549312, Note_on_c, 6, 71, 0
8, 549360, Note_on_c, 6, 71, 71
8, 549744, Note_on_c, 6, 71, 0
8, 549840, Note_on_c, 6, 71, 71
8, 550224, Note_on_c, 6, 71, 0
8, 550320, Note_on_c, 6, 71, 71
8, 550704, Note_on_c, 6, 71, 0
8, 550800, Note_on_c, 6, 71, 71
8, 550992, Note_on_c, 6, 71, 0
8, 551040, Note_on_c, 6, 71, 71
8, 552000, Note_on_c, 6, 71, 0
8, 552000, Note_on_c, 6, 69, 71
8, 552384, Note_on_c, 6, 69, 0
8, 552480, Note_on_c, 6, 81, 80
8, 552600, Note_on_c, 6, 81, 0
8, 552600, Note_on_c, 6, 79, 80
8, 552720, Note_on_c, 6, 79, 0
8, 552720, Note_on_c, 6, 78, 80
8, 552840, Note_on_c, 6, 78, 0
8, 552840, Note_on_c, 6, 76, 80
8, 552960, Note_on_c, 6, 76, 0
8, 552960, Note_on_c, 6, 74, 71
8, 553152, Note_on_c, 6, 74, 0
8, 553200, Note_on_c, 6, 74, 71
8, 553584, Note_on_c, 6, 74, 0
8, 553680, Note_on_c, 6, 74, 75
8, 554160, Note_on_c, 6, 74, 0
8, 554160, Note_on_c, 6, 73, 81
8, 554352, Note_on_c, 6, 73, 0
8, 554400, Note_on_c, 6, 85, 84
8, 554520, Note_on_c, 6, 85, 0
8, 554520, Note_on_c, 6, 83, 85
8, 554640, Note_on_c, 6, 83, 0
8, 554640, Note_on_c, 6, 81, 87
8, 554760, Note_on_c, 6, 81, 0
8, 554760, Note_on_c, 6, 79, 88
8, 554880, Note_on_c, 6, 79, 0
8, 554880, Note_on_c, 6, 78, 90
8, 555072, Note_on_c, 6, 78, 0
8, 555120, Note_on_c, 6, 78, 93
8, 555504, Note_on_c, 6, 78, 0
8, 555600, Note_on_c, 6, 78, 99
8, 555792, Note_on_c, 6, 78, 0
8, 555840, Note_on_c, 6, 74, 102
8, 556032, Note_on_c, 6, 74, 0
8, 556080, Note_on_c, 6, 74, 105
8, 556464, Note_on_c, 6, 74, 0
8, 556560, Note_on_c, 6, 74, 105
8, 556752, Note_on_c, 6, 74, 0
8, 556800, Note_on_c, 6, 73, 110
8, 556956, Note_on_c, 6, 73, 0
8, 557040, Note_on_c, 6, 85, 90
8, 557118, Note_on_c, 6, 85, 0
8, 557160, Note_on_c, 6, 81, 90
8, 557238, Note_on_c, 6, 81, 0
8, 557280, Note_on_c, 6, 76, 90
8, 557436, Note_on_c, 6, 76, 0
8, 557520, Note_on_c, 6, 76, 90
8, 557676, Note_on_c, 6, 76, 0
8, 557760, Note_on_c, 6, 78, 90
8, 557916, Note_on_c, 6, 78, 0
8, 558000, Note_on_c, 6, 81, 90
8, 558078, Note_on_c, 6, 81, 0
8, 558120, Note_on_c, 6, 78, 90
8, 558198, Note_on_c, 6, 78, 0
8, 558240, Note_on_c, 6, 74, 90
8, 558396, Note_on_c, 6, 74, 0
8, 558480, Note_on_c, 6, 74, 90
8, 558636, Note_on_c, 6, 74, 0
8, 558720, Note_on_c, 6, 73, 90
8, 558912, Note_on_c, 6, 73, 0
8, 558960, Note_on_c, 6, 73, 90
8, 558960, Note_on_c, 6, 81, 105
8, 559344, Note_on_c, 6, 81, 0
8, 559344, Note_on_c, 6, 73, 0
8, 559440, Note_on_c, 6, 73, 105
8, 559440, Note_on_c, 6, 81, 105
8, 559824, Note_on_c, 6, 81, 0
8, 559824, Note_on_c, 6, 73, 0
8, 559920, Note_on_c, 6, 69, 105
8, 559998, Note_on_c, 6, 69, 0
8, 560040, Note_on_c, 6, 66, 105
8, 560118, Note_on_c, 6, 66, 0
8, 560160, Note_on_c, 6, 63, 105
8, 560316, Note_on_c, 6, 63, 0
8, 560400, Note_on_c, 6, 66, 105
8, 560478, Note_on_c, 6, 66, 0
8, 560520, Note_on_c, 6, 63, 105
8, 560598, Note_on_c, 6, 63, 0
8, 560640, Note_on_c, 6, 64, 105
8, 561792, Note_on_c, 6, 64, 0
8, 638880, Note_on_c, 6, 61, 105
8, 638880, Note_on_c, 6, 69, 105
8, 638880, Note_on_c, 6, 64, 105
8, 639264, Note_on_c, 6, 64, 0
8, 639264, Note_on_c, 6, 69, 0
8, 639264, Note_on_c, 6, 61, 0
8, 640320, Note_on_c, 6, 71, 105
8, 640464, Note_on_c, 6, 71, 0
8, 640560, Note_on_c, 6, 68, 105
8, 640704, Note_on_c, 6, 68, 0
8, 640800, Note_on_c, 6, 69, 105
8, 640944, Note_on_c, 6, 69, 0
8, 641040, Note_on_c, 6, 69, 105
8, 641184, Note_on_c, 6, 69, 0
8, 641280, Note_on_c, 6, 69, 105
8, 641424, Note_on_c, 6, 69, 0
8, 641520, Note_on_c, 6, 69, 105
8, 641664, Note_on_c, 6, 69, 0
8, 641760, Note_on_c, 6, 69, 105
8, 641904, Note_on_c, 6, 69, 0
8, 642000, Note_on_c, 6, 69, 105
8, 642144, Note_on_c, 6, 69, 0
8, 642240, Note_on_c, 6, 62, 105
8, 642384, Note_on_c, 6, 62, 0
8, 642480, Note_on_c, 6, 62, 105
8, 642624, Note_on_c, 6, 62, 0
8, 642720, Note_on_c, 6, 61, 105
8, 643104, Note_on_c, 6, 61, 0
8, 644160, Note_on_c, 6, 71, 105
8, 644304, Note_on_c, 6, 71, 0
8, 644400, Note_on_c, 6, 68, 105
8, 644544, Note_on_c, 6, 68, 0
8, 644640, Note_on_c, 6, 69, 105
8, 644784, Note_on_c, 6, 69, 0
8, 644880, Note_on_c, 6, 69, 105
8, 645024, Note_on_c, 6, 69, 0
8, 645120, Note_on_c, 6, 69, 105
8, 645264, Note_on_c, 6, 69, 0
8, 645360, Note_on_c, 6, 69, 105
8, 645504, Note_on_c, 6, 69, 0
8, 645600, Note_on_c, 6, 69, 105
8, 645744, Note_on_c, 6, 69, 0
8, 645840, Note_on_c, 6, 69, 105
8, 645984, Note_on_c, 6, 69, 0
8, 646080, Note_on_c, 6, 62, 105
8, 646224, Note_on_c, 6, 62, 0
8, 646320, Note_on_c, 6, 62, 105
8, 646464, Note_on_c, 6, 62, 0
8, 646560, Note_on_c, 6, 61, 105
8, 646944, Note_on_c, 6, 61, 0
8, 647040, Note_on_c, 6, 76, 105
8, 647160, Note_on_c, 6, 76, 0
8, 647160, Note_on_c, 6, 73, 90
8, 647238, Note_on_c, 6, 73, 0
8, 647280, Note_on_c, 6, 76, 90
8, 647358, Note_on_c, 6, 76, 0
8, 647400, Note_on_c, 6, 73, 90
8, 647478, Note_on_c, 6, 73, 0
8, 647520, Note_on_c, 6, 69, 90
8, 647904, Note_on_c, 6, 69, 0
8, 648000, Note_on_c, 6, 73, 90
8, 648120, Note_on_c, 6, 73, 0
8, 648120, Note_on_c, 6, 69, 90
8, 648198, Note_on_c, 6, 69, 0
8, 648240, Note_on_c, 6, 73, 90
8, 648318, Note_on_c, 6, 73, 0
8, 648360, Note_on_c, 6, 69, 90
8, 648438, Note_on_c, 6, 69, 0
8, 648480, Note_on_c, 6, 64, 90
8, 648864, Note_on_c, 6, 64, 0
8, 648960, Note_on_c, 6, 69, 90
8, 649080, Note_on_c, 6, 69, 0
8, 649080, Note_on_c, 6, 64, 90
8, 649158, Note_on_c, 6, 64, 0
8, 649200, Note_on_c, 6, 69, 90
8, 649278, Note_on_c, 6, 69, 0
8, 649320, Note_on_c, 6, 64, 90
8, 649398, Note_on_c, 6, 64, 0
8, 649440, Note_on_c, 6, 61, 90
8, 649824, Note_on_c, 6, 61, 0
8, 649920, Note_on_c, 6, 64, 90
8, 650040, Note_on_c, 6, 64, 0
8, 650040, Note_on_c, 6, 61, 90
8, 650118, Note_on_c, 6, 61, 0
8, 650160, Note_on_c, 6, 64, 90
8, 650238, Note_on_c, 6, 64, 0
8, 650280, Note_on_c, 6, 61, 90
8, 650358, Note_on_c, 6, 61, 0
8, 650400, Note_on_c, 6, 57, 90
8, 651084, Note_on_c, 6, 57, 0
8, 651120, Note_on_c, 6, 61, 90
8, 651198, Note_on_c, 6, 61, 0
8, 651240, Note_on_c, 6, 64, 90
8, 651318, Note_on_c, 6, 64, 0
8, 651360, Note_on_c, 6, 69, 90
8, 651672, Note_on_c, 6, 69, 0
8, 651840, Note_on_c, 6, 76, 90
8, 651840, Note_on_c, 6, 73, 90
8, 651840, Note_on_c, 6, 69, 90
8, 652152, Note_on_c, 6, 69, 0
8, 652152, Note_on_c, 6, 73, 0
8, 652152, Note_on_c, 6, 76, 0
8, 652320, Note_on_c, 6, 64, 90
8, 652320, Note_on_c, 6, 73, 90
8, 652320, Note_on_c, 6, 81, 90
8, 652704, Note_on_c, 6, 81, 0
8, 652704, Note_on_c, 6, 73, 0
8, 652704, Note_on_c, 6, 64, 0
8, 652704, End_track
9, 0, Start_track
9, 0, Sequencer_specific, 04, 43, 00, 01, 00
9, 0, Program_c, 7, 48
9, 0, Control_c, 7, 7, 99
9, 0, Control_c, 7, 10, 98
9, 0, Control_c, 7, 91, 80
9, 3840, Note_on_c, 7, 59, 71
9, 3840, Note_on_c, 7, 68, 71
9, 7584, Note_on_c, 7, 68, 0
9, 7584, Note_on_c, 7, 59, 0
9, 7680, Note_on_c, 7, 61, 62
9, 7680, Note_on_c, 7, 69, 62
9, 8832, Note_on_c, 7, 69, 0
9, 8832, Note_on_c, 7, 61, 0
9, 11040, Note_on_c, 7, 64, 71
9, 12000, Note_on_c, 7, 64, 0
9, 12000, Note_on_c, 7, 62, 71
9, 12960, Note_on_c, 7, 62, 0
9, 12960, Note_on_c, 7, 61, 71
9, 13920, Note_on_c, 7, 61, 0
9, 13920, Note_on_c, 7, 59, 71
9, 14880, Note_on_c, 7, 59, 0
9, 14880, Note_on_c, 7, 57, 71
9, 15600, Note_on_c, 7, 57, 0
9, 15600, Note_on_c, 7, 56, 71
9, 15840, Note_on_c, 7, 56, 0
9, 15840, Note_on_c, 7, 54, 71
9, 16080, Note_on_c, 7, 54, 0
9, 16080, Note_on_c, 7, 56, 71
9, 16320, Note_on_c, 7, 56, 0
9, 16320, Note_on_c, 7, 56, 62
9, 16704, Note_on_c, 7, 56, 0
9, 19200, Note_on_c, 7, 59, 71
9, 19200, Note_on_c, 7, 68, 71
9, 22944, Note_on_c, 7, 68, 0
9, 22944, Note_on_c, 7, 59, 0
9, 23040, Note_on_c, 7, 69, 62
9, 23040, Note_on_c, 7, 61, 62
9, 24192, Note_on_c, 7, 61, 0
9, 24192, Note_on_c, 7, 69, 0
9, 26880, Note_on_c, 7, 62, 71
9, 27120, Note_on_c, 7, 62, 0
9, 27120, Note_on_c, 7, 61, 71
9, 27360, Note_on_c, 7, 61, 0
9, 27360, Note_on_c, 7, 64, 71
9, 27600, Note_on_c, 7, 64, 0
9, 27600, Note_on_c, 7, 62, 71
9, 27840, Note_on_c, 7, 62, 0
9, 27840, Note_on_c, 7, 66, 71
9, 28080, Note_on_c, 7, 66, 0
9, 28080, Note_on_c, 7, 64, 71
9, 28320, Note_on_c, 7, 64, 0
9, 28320, Note_on_c, 7, 62, 71
9, 28560, Note_on_c, 7, 62, 0
9, 28560, Note_on_c, 7, 61, 71
9, 28788, Note_on_c, 7, 61, 0
9, 28800, Note_on_c, 7, 69, 62
9, 28800, Note_on_c, 7, 57, 62
9, 30624, Note_on_c, 7, 57, 0
9, 30624, Note_on_c, 7, 69, 0
9, 30720, Note_on_c, 7, 62, 62
9, 31032, Note_on_c, 7, 62, 0
9, 31200, Note_on_c, 7, 59, 62
9, 31512, Note_on_c, 7, 59, 0
9, 31680, Note_on_c, 7, 64, 62
9, 31992, Note_on_c, 7, 64, 0
9, 32160, Note_on_c, 7, 52, 62
9, 32472, Note_on_c, 7, 52, 0
9, 32640, Note_on_c, 7, 57, 105
9, 33408, Note_on_c, 7, 57, 0
9, 34800, Note_on_c, 7, 59, 105
9, 34944, Note_on_c, 7, 59, 0
9, 35040, Note_on_c, 7, 61, 105
9, 35184, Note_on_c, 7, 61, 0
9, 35280, Note_on_c, 7, 62, 105
9, 35424, Note_on_c, 7, 62, 0
9, 35520, Note_on_c, 7, 64, 105
9, 36432, Note_on_c, 7, 64, 0
9, 36720, Note_on_c, 7, 66, 105
9, 36864, Note_on_c, 7, 66, 0
9, 36960, Note_on_c, 7, 68, 105
9, 37104, Note_on_c, 7, 68, 0
9, 37200, Note_on_c, 7, 69, 105
9, 37344, Note_on_c, 7, 69, 0
9, 37440, Note_on_c, 7, 71, 105
9, 38352, Note_on_c, 7, 71, 0
9, 38880, Note_on_c, 7, 56, 62
9, 39360, Note_on_c, 7, 56, 0
9, 39360, Note_on_c, 7, 59, 62
9, 39840, Note_on_c, 7, 59, 0
9, 39840, Note_on_c, 7, 56, 62
9, 40320, Note_on_c, 7, 56, 0
9, 40320, Note_on_c, 7, 57, 105
9, 41088, Note_on_c, 7, 57, 0
9, 42480, Note_on_c, 7, 59, 105
9, 42624, Note_on_c, 7, 59, 0
9, 42720, Note_on_c, 7, 61, 105
9, 42864, Note_on_c, 7, 61, 0
9, 42960, Note_on_c, 7, 62, 105
9, 43104, Note_on_c, 7, 62, 0
9, 43200, Note_on_c, 7, 64, 105
9, 44112, Note_on_c, 7, 64, 0
9, 44400, Note_on_c, 7, 66, 105
9, 44544, Note_on_c, 7, 66, 0
9, 44640, Note_on_c, 7, 68, 105
9, 44784, Note_on_c, 7, 68, 0
9, 44880, Note_on_c, 7, 69, 105
9, 45024, Note_on_c, 7, 69, 0
9, 45120, Note_on_c, 7, 71, 71
9, 46032, Note_on_c, 7, 71, 0
9, 46560, Note_on_c, 7, 56, 62
9, 47040, Note_on_c, 7, 56, 0
9, 47040, Note_on_c, 7, 59, 62
9, 47520, Note_on_c, 7, 59, 0
9, 47520, Note_on_c, 7, 56, 62
9, 48000, Note_on_c, 7, 56, 0
9, 48000, Note_on_c, 7, 57, 105
9, 48312, Note_on_c, 7, 57, 0
9, 48480, Note_on_c, 7, 73, 105
9, 48960, Note_on_c, 7, 73, 0
9, 48960, Note_on_c, 7, 71, 105
9, 49272, Note_on_c, 7, 71, 0
9, 49440, Note_on_c, 7, 59, 105
9, 49920, Note_on_c, 7, 59, 0
9, 49920, Note_on_c, 7, 57, 105
9, 50232, Note_on_c, 7, 57, 0
9, 50400, Note_on_c, 7, 69, 105
9, 50880, Note_on_c, 7, 69, 0
9, 50880, Note_on_c, 7, 68, 105
9, 51192, Note_on_c, 7, 68, 0
9, 51360, Note_on_c, 7, 56, 105
9, 51768, Note_on_c, 7, 56, 0
9, 51840, Note_on_c, 7, 54, 71
9, 52800, Note_on_c, 7, 54, 0
9, 52800, Note_on_c, 7, 56, 71
9, 53712, Note_on_c, 7, 56, 0
9, 53760, Note_on_c, 7, 57, 71
9, 54072, Note_on_c, 7, 57, 0
9, 54240, Note_on_c, 7, 64, 71
9, 55200, Note_on_c, 7, 64, 0
9, 55200, Note_on_c, 7, 66, 71
9, 55680, Note_on_c, 7, 66, 0
9, 55680, Note_on_c, 7, 59, 62
9, 56064, Note_on_c, 7, 59, 0
9, 58080, Note_on_c, 7, 69, 90
9, 58200, Note_on_c, 7, 69, 0
9, 58200, Note_on_c, 7, 68, 90
9, 58278, Note_on_c, 7, 68, 0
9, 58320, Note_on_c, 7, 66, 90
9, 58398, Note_on_c, 7, 66, 0
9, 58440, Note_on_c, 7, 64, 90
9, 58518, Note_on_c, 7, 64, 0
9, 58560, Note_on_c, 7, 69, 90
9, 58944, Note_on_c, 7, 69, 0
9, 59040, Note_on_c, 7, 62, 90
9, 59160, Note_on_c, 7, 62, 0
9, 59160, Note_on_c, 7, 61, 90
9, 59238, Note_on_c, 7, 61, 0
9, 59280, Note_on_c, 7, 59, 90
9, 59358, Note_on_c, 7, 59, 0
9, 59400, Note_on_c, 7, 57, 90
9, 59478, Note_on_c, 7, 57, 0
9, 59520, Note_on_c, 7, 64, 90
9, 60204, Note_on_c, 7, 64, 0
9, 60240, Note_on_c, 7, 68, 90
9, 60336, Note_on_c, 7, 68, 0
9, 60360, Note_on_c, 7, 71, 90
9, 60456, Note_on_c, 7, 71, 0
9, 60480, Note_on_c, 7, 76, 90
9, 60792, Note_on_c, 7, 76, 0
9, 60960, Note_on_c, 7, 76, 90
9, 61272, Note_on_c, 7, 76, 0
9, 61440, Note_on_c, 7, 64, 90
9, 61824, Note_on_c, 7, 64, 0
9, 65280, Note_on_c, 7, 69, 71
9, 66000, Note_on_c, 7, 69, 0
9, 66000, Note_on_c, 7, 73, 71
9, 66240, Note_on_c, 7, 73, 0
9, 66240, Note_on_c, 7, 64, 71
9, 66624, Note_on_c, 7, 64, 0
9, 67200, Note_on_c, 7, 69, 71
9, 67920, Note_on_c, 7, 69, 0
9, 67920, Note_on_c, 7, 73, 71
9, 68160, Note_on_c, 7, 73, 0
9, 68160, Note_on_c, 7, 64, 71
9, 68544, Note_on_c, 7, 64, 0
9, 69120, Note_on_c, 7, 69, 71
9, 69840, Note_on_c, 7, 69, 0
9, 69840, Note_on_c, 7, 73, 71
9, 70080, Note_on_c, 7, 73, 0
9, 70080, Note_on_c, 7, 64, 71
9, 70464, Note_on_c, 7, 64, 0
9, 72960, Note_on_c, 7, 68, 71
9, 73680, Note_on_c, 7, 68, 0
9, 73680, Note_on_c, 7, 71, 71
9, 73920, Note_on_c, 7, 71, 0
9, 73920, Note_on_c, 7, 62, 71
9, 74304, Note_on_c, 7, 62, 0
9, 74880, Note_on_c, 7, 68, 71
9, 75600, Note_on_c, 7, 68, 0
9, 75600, Note_on_c, 7, 71, 71
9, 75840, Note_on_c, 7, 71, 0
9, 75840, Note_on_c, 7, 62, 71
9, 76224, Note_on_c, 7, 62, 0
9, 76800, Note_on_c, 7, 68, 71
9, 77520, Note_on_c, 7, 68, 0
9, 77520, Note_on_c, 7, 71, 71
9, 77760, Note_on_c, 7, 71, 0
9, 77760, Note_on_c, 7, 62, 62
9, 78144, Note_on_c, 7, 62, 0
9, 78240, Note_on_c, 7, 56, 62
9, 78720, Note_on_c, 7, 56, 0
9, 78720, Note_on_c, 7, 57, 71
9, 79660, Note_on_c, 7, 57, 0
9, 79680, Note_on_c, 7, 61, 71
9, 80620, Note_on_c, 7, 61, 0
9, 80640, Note_on_c, 7, 62, 71
9, 82522, Note_on_c, 7, 62, 0
9, 82560, Note_on_c, 7, 64, 71
9, 84442, Note_on_c, 7, 64, 0
9, 84480, Note_on_c, 7, 66, 71
9, 86362, Note_on_c, 7, 66, 0
9, 86400, Note_on_c, 7, 67, 71
9, 88282, Note_on_c, 7, 67, 0
9, 88320, Note_on_c, 7, 69, 80
9, 90202, Note_on_c, 7, 69, 0
9, 90240, Note_on_c, 7, 71, 90
9, 90432, Note_on_c, 7, 71, 0
9, 90480, Note_on_c, 7, 71, 92
9, 90864, Note_on_c, 7, 71, 0
9, 90960, Note_on_c, 7, 71, 94
9, 91344, Note_on_c, 7, 71, 0
9, 91440, Note_on_c, 7, 71, 96
9, 91824, Note_on_c, 7, 71, 0
9, 91920, Note_on_c, 7, 71, 105
9, 92112, Note_on_c, 7, 71, 0
9, 92160, Note_on_c, 7, 69, 105
9, 92352, Note_on_c, 7, 69, 0
9, 92400, Note_on_c, 7, 69, 105
9, 92784, Note_on_c, 7, 69, 0
9, 92880, Note_on_c, 7, 69, 105
9, 93264, Note_on_c, 7, 69, 0
9, 93360, Note_on_c, 7, 69, 105
9, 93744, Note_on_c, 7, 69, 0
9, 93840, Note_on_c, 7, 69, 105
9, 94272, Note_on_c, 7, 69, 0
9, 94320, Note_on_c, 7, 61, 105
9, 94704, Note_on_c, 7, 61, 0
9, 94800, Note_on_c, 7, 64, 105
9, 95184, Note_on_c, 7, 64, 0
9, 95280, Note_on_c, 7, 62, 105
9, 95664, Note_on_c, 7, 62, 0
9, 95760, Note_on_c, 7, 59, 105
9, 95952, Note_on_c, 7, 59, 0
9, 96000, Note_on_c, 7, 61, 80
9, 96384, Note_on_c, 7, 61, 0
9, 97920, Note_on_c, 7, 61, 71
9, 98832, Note_on_c, 7, 61, 0
9, 98880, Note_on_c, 7, 62, 71
9, 99600, Note_on_c, 7, 62, 0
9, 99600, Note_on_c, 7, 59, 71
9, 99828, Note_on_c, 7, 59, 0
9, 99840, Note_on_c, 7, 57, 71
9, 100152, Note_on_c, 7, 57, 0
9, 100320, Note_on_c, 7, 64, 71
9, 100800, Note_on_c, 7, 64, 0
9, 100800, Note_on_c, 7, 62, 71
9, 101280, Note_on_c, 7, 62, 0
9, 101280, Note_on_c, 7, 66, 71
9, 101760, Note_on_c, 7, 66, 0
9, 101760, Note_on_c, 7, 64, 71
9, 102720, Note_on_c, 7, 64, 0
9, 102720, Note_on_c, 7, 66, 71
9, 103660, Note_on_c, 7, 66, 0
9, 103680, Note_on_c, 7, 64, 71
9, 104448, Note_on_c, 7, 64, 0
9, 105600, Note_on_c, 7, 61, 71
9, 105744, Note_on_c, 7, 61, 0
9, 105840, Note_on_c, 7, 64, 71
9, 105984, Note_on_c, 7, 64, 0
9, 106080, Note_on_c, 7, 61, 71
9, 106224, Note_on_c, 7, 61, 0
9, 106320, Note_on_c, 7, 64, 71
9, 106464, Note_on_c, 7, 64, 0
9, 106560, Note_on_c, 7, 62, 71
9, 106704, Note_on_c, 7, 62, 0
9, 106800, Note_on_c, 7, 64, 71
9, 106944, Note_on_c, 7, 64, 0
9, 107040, Note_on_c, 7, 62, 71
9, 107184, Note_on_c, 7, 62, 0
9, 107280, Note_on_c, 7, 64, 71
9, 107424, Note_on_c, 7, 64, 0
9, 107520, Note_on_c, 7, 61, 71
9, 107664, Note_on_c, 7, 61, 0
9, 107760, Note_on_c, 7, 69, 71
9, 107904, Note_on_c, 7, 69, 0
9, 108000, Note_on_c, 7, 61, 71
9, 108144, Note_on_c, 7, 61, 0
9, 108240, Note_on_c, 7, 69, 71
9, 108384, Note_on_c, 7, 69, 0
9, 108480, Note_on_c, 7, 66, 71
9, 108624, Note_on_c, 7, 66, 0
9, 108720, Note_on_c, 7, 69, 71
9, 108864, Note_on_c, 7, 69, 0
9, 108960, Note_on_c, 7, 66, 71
9, 109104, Note_on_c, 7, 66, 0
9, 109200, Note_on_c, 7, 69, 71
9, 109344, Note_on_c, 7, 69, 0
9, 109440, Note_on_c, 7, 62, 71
9, 109680, Note_on_c, 7, 62, 0
9, 109680, Note_on_c, 7, 61, 71
9, 109824, Note_on_c, 7, 61, 0
9, 109920, Note_on_c, 7, 59, 71
9, 110064, Note_on_c, 7, 59, 0
9, 110160, Note_on_c, 7, 57, 71
9, 110304, Note_on_c, 7, 57, 0
9, 110400, Note_on_c, 7, 61, 71
9, 110640, Note_on_c, 7, 61, 0
9, 110640, Note_on_c, 7, 59, 71
9, 110784, Note_on_c, 7, 59, 0
9, 110880, Note_on_c, 7, 57, 71
9, 111024, Note_on_c, 7, 57, 0
9, 111120, Note_on_c, 7, 56, 71
9, 111264, Note_on_c, 7, 56, 0
9, 111360, Note_on_c, 7, 57, 105
9, 111744, Note_on_c, 7, 57, 0
9, 112800, Note_on_c, 7, 62, 105
9, 112944, Note_on_c, 7, 62, 0
9, 113040, Note_on_c, 7, 59, 105
9, 113184, Note_on_c, 7, 59, 0
9, 113280, Note_on_c, 7, 57, 105
9, 113424, Note_on_c, 7, 57, 0
9, 113520, Note_on_c, 7, 57, 105
9, 113664, Note_on_c, 7, 57, 0
9, 113760, Note_on_c, 7, 62, 105
9, 113904, Note_on_c, 7, 62, 0
9, 114000, Note_on_c, 7, 62, 105
9, 114144, Note_on_c, 7, 62, 0
9, 114240, Note_on_c, 7, 61, 105
9, 114384, Note_on_c, 7, 61, 0
9, 114480, Note_on_c, 7, 61, 105
9, 114624, Note_on_c, 7, 61, 0
9, 114720, Note_on_c, 7, 59, 105
9, 114864, Note_on_c, 7, 59, 0
9, 114960, Note_on_c, 7, 59, 105
9, 115104, Note_on_c, 7, 59, 0
9, 115200, Note_on_c, 7, 57, 105
9, 115584, Note_on_c, 7, 57, 0
9, 116640, Note_on_c, 7, 62, 105
9, 116784, Note_on_c, 7, 62, 0
9, 116880, Note_on_c, 7, 59, 105
9, 117024, Note_on_c, 7, 59, 0
9, 117120, Note_on_c, 7, 57, 105
9, 117264, Note_on_c, 7, 57, 0
9, 117360, Note_on_c, 7, 57, 105
9, 117504, Note_on_c, 7, 57, 0
9, 117600, Note_on_c, 7, 62, 105
9, 117744, Note_on_c, 7, 62, 0
9, 117840, Note_on_c, 7, 62, 105
9, 117984, Note_on_c, 7, 62, 0
9, 118080, Note_on_c, 7, 61, 105
9, 118224, Note_on_c, 7, 61, 0
9, 118320, Note_on_c, 7, 61, 105
9, 118464, Note_on_c, 7, 61, 0
9, 118560, Note_on_c, 7, 59, 105
9, 118704, Note_on_c, 7, 59, 0
9, 118800, Note_on_c, 7, 59, 105
9, 118944, Note_on_c, 7, 59, 0
9, 119040, Note_on_c, 7, 57, 90
9, 119424, Note_on_c, 7, 57, 0
9, 120480, Note_on_c, 7, 64, 90
9, 120600, Note_on_c, 7, 64, 0
9, 120600, Note_on_c, 7, 61, 90
9, 120678, Note_on_c, 7, 61, 0
9, 120720, Note_on_c, 7, 64, 90
9, 120798, Note_on_c, 7, 64, 0
9, 120840, Note_on_c, 7, 61, 90
9, 120918, Note_on_c, 7, 61, 0
9, 120960, Note_on_c, 7, 57, 90
9, 121344, Note_on_c, 7, 57, 0
9, 121440, Note_on_c, 7, 57, 90
9, 121728, Note_on_c, 7, 57, 0
9, 121800, Note_on_c, 7, 57, 90
9, 121896, Note_on_c, 7, 57, 0
9, 121920, Note_on_c, 7, 57, 90
9, 122304, Note_on_c, 7, 57, 0
9, 138240, Note_on_c, 7, 61, 34
9, 138240, Note_on_c, 7, 64, 34
9, 140160, Note_on_c, 7, 61, 0
9, 140160, Note_on_c, 7, 59, 34
9, 142080, Note_on_c, 7, 59, 0
9, 142080, Note_on_c, 7, 64, 0
9, 142080, Note_on_c, 7, 59, 34
9, 142080, Note_on_c, 7, 62, 34
9, 144000, Note_on_c, 7, 62, 0
9, 144000, Note_on_c, 7, 59, 0
9, 144000, Note_on_c, 7, 61, 34
9, 145920, Note_on_c, 7, 61, 0
9, 158880, Note_on_c, 7, 62, 105
9, 159036, Note_on_c, 7, 62, 0
9, 159120, Note_on_c, 7, 59, 105
9, 159276, Note_on_c, 7, 59, 0
9, 159360, Note_on_c, 7, 57, 105
9, 159516, Note_on_c, 7, 57, 0
9, 159600, Note_on_c, 7, 57, 105
9, 159756, Note_on_c, 7, 57, 0
9, 159840, Note_on_c, 7, 62, 105
9, 159996, Note_on_c, 7, 62, 0
9, 160080, Note_on_c, 7, 62, 105
9, 160236, Note_on_c, 7, 62, 0
9, 160320, Note_on_c, 7, 61, 105
9, 160476, Note_on_c, 7, 61, 0
9, 160560, Note_on_c, 7, 61, 105
9, 160716, Note_on_c, 7, 61, 0
9, 160800, Note_on_c, 7, 59, 105
9, 160956, Note_on_c, 7, 59, 0
9, 161040, Note_on_c, 7, 59, 105
9, 161196, Note_on_c, 7, 59, 0
9, 161280, Note_on_c, 7, 57, 105
9, 161664, Note_on_c, 7, 57, 0
9, 162720, Note_on_c, 7, 64, 90
9, 162840, Note_on_c, 7, 64, 0
9, 162840, Note_on_c, 7, 61, 90
9, 162936, Note_on_c, 7, 61, 0
9, 162960, Note_on_c, 7, 64, 90
9, 163056, Note_on_c, 7, 64, 0
9, 163080, Note_on_c, 7, 61, 90
9, 163176, Note_on_c, 7, 61, 0
9, 163200, Note_on_c, 7, 57, 90
9, 163584, Note_on_c, 7, 57, 0
9, 163680, Note_on_c, 7, 57, 90
9, 163968, Note_on_c, 7, 57, 0
9, 164040, Note_on_c, 7, 57, 90
9, 164136, Note_on_c, 7, 57, 0
9, 164160, Note_on_c, 7, 57, 90
9, 164544, Note_on_c, 7, 57, 0
9, 174720, Note_on_c, 7, 59, 34
9, 179520, Note_on_c, 7, 59, 0
9, 179520, Note_on_c, 7, 60, 34
9, 180480, Note_on_c, 7, 60, 0
9, 180480, Note_on_c, 7, 61, 62
9, 180864, Note_on_c, 7, 61, 0
9, 181440, Note_on_c, 7, 64, 62
9, 181824, Note_on_c, 7, 64, 0
9, 182400, Note_on_c, 7, 64, 62
9, 182784, Note_on_c, 7, 64, 0
9, 183360, Note_on_c, 7, 68, 62
9, 183744, Note_on_c, 7, 68, 0
9, 186960, Note_on_c, 7, 71, 80
9, 187116, Note_on_c, 7, 71, 0
9, 187200, Note_on_c, 7, 66, 83
9, 187356, Note_on_c, 7, 66, 0
9, 187440, Note_on_c, 7, 71, 80
9, 187596, Note_on_c, 7, 71, 0
9, 187680, Note_on_c, 7, 63, 80
9, 187836, Note_on_c, 7, 63, 0
9, 187920, Note_on_c, 7, 66, 80
9, 188076, Note_on_c, 7, 66, 0
9, 188160, Note_on_c, 7, 59, 71
9, 188544, Note_on_c, 7, 59, 0
9, 192000, Note_on_c, 7, 64, 62
9, 194832, Note_on_c, 7, 64, 0
9, 194880, Note_on_c, 7, 59, 62
9, 195192, Note_on_c, 7, 59, 0
9, 195360, Note_on_c, 7, 56, 62
9, 195672, Note_on_c, 7, 56, 0
9, 195840, Note_on_c, 7, 59, 34
9, 196224, Note_on_c, 7, 59, 0
9, 199680, Note_on_c, 7, 64, 62
9, 202512, Note_on_c, 7, 64, 0
9, 202560, Note_on_c, 7, 59, 62
9, 202872, Note_on_c, 7, 59, 0
9, 203040, Note_on_c, 7, 56, 62
9, 203352, Note_on_c, 7, 56, 0
9, 204000, Note_on_c, 7, 57, 58
9, 204912, Note_on_c, 7, 57, 0
9, 204960, Note_on_c, 7, 57, 58
9, 205416, Note_on_c, 7, 57, 0
9, 205920, Note_on_c, 7, 57, 58
9, 206880, Note_on_c, 7, 57, 0
9, 206880, Note_on_c, 7, 61, 58
9, 207336, Note_on_c, 7, 61, 0
9, 207840, Note_on_c, 7, 59, 58
9, 208800, Note_on_c, 7, 59, 0
9, 208800, Note_on_c, 7, 59, 58
9, 209256, Note_on_c, 7, 59, 0
9, 209760, Note_on_c, 7, 59, 58
9, 210720, Note_on_c, 7, 59, 0
9, 210720, Note_on_c, 7, 59, 58
9, 211176, Note_on_c, 7, 59, 0
9, 211200, Note_on_c, 7, 59, 58
9, 211584, Note_on_c, 7, 59, 0
9, 222720, Note_on_c, 7, 64, 71
9, 223440, Note_on_c, 7, 64, 0
9, 223440, Note_on_c, 7, 68, 71
9, 223680, Note_on_c, 7, 68, 0
9, 223680, Note_on_c, 7, 59, 71
9, 224064, Note_on_c, 7, 59, 0
9, 224640, Note_on_c, 7, 64, 71
9, 225360, Note_on_c, 7, 64, 0
9, 225360, Note_on_c, 7, 68, 71
9, 225600, Note_on_c, 7, 68, 0
9, 225600, Note_on_c, 7, 59, 71
9, 225984, Note_on_c, 7, 59, 0
9, 226560, Note_on_c, 7, 64, 71
9, 227280, Note_on_c, 7, 64, 0
9, 227280, Note_on_c, 7, 68, 71
9, 227520, Note_on_c, 7, 68, 0
9, 227520, Note_on_c, 7, 59, 71
9, 227904, Note_on_c, 7, 59, 0
9, 236160, Note_on_c, 7, 64, 58
9, 239040, Note_on_c, 7, 64, 0
9, 239040, Note_on_c, 7, 66, 58
9, 240000, Note_on_c, 7, 66, 0
9, 240000, Note_on_c, 7, 64, 58
9, 242880, Note_on_c, 7, 64, 0
9, 242880, Note_on_c, 7, 66, 58
9, 243840, Note_on_c, 7, 66, 0
9, 243840, Note_on_c, 7, 64, 54
9, 244224, Note_on_c, 7, 64, 0
9, 263040, Note_on_c, 7, 68, 58
9, 266880, Note_on_c, 7, 68, 0
9, 266880, Note_on_c, 7, 69, 58
9, 270720, Note_on_c, 7, 69, 0
9, 270720, Note_on_c, 7, 59, 80
9, 271488, Note_on_c, 7, 59, 0
9, 274560, Note_on_c, 7, 59, 62
9, 274944, Note_on_c, 7, 59, 0
9, 275520, Note_on_c, 7, 59, 62
9, 275904, Note_on_c, 7, 59, 0
9, 276480, Note_on_c, 7, 59, 62
9, 276672, Note_on_c, 7, 59, 0
9, 276720, Note_on_c, 7, 59, 68
9, 276912, Note_on_c, 7, 59, 0
9, 276960, Note_on_c, 7, 59, 73
9, 277152, Note_on_c, 7, 59, 0
9, 277200, Note_on_c, 7, 59, 78
9, 277392, Note_on_c, 7, 59, 0
9, 277440, Note_on_c, 7, 59, 83
9, 277632, Note_on_c, 7, 59, 0
9, 277680, Note_on_c, 7, 59, 88
9, 277872, Note_on_c, 7, 59, 0
9, 277920, Note_on_c, 7, 59, 93
9, 278112, Note_on_c, 7, 59, 0
9, 278160, Note_on_c, 7, 59, 98
9, 278352, Note_on_c, 7, 59, 0
9, 278400, Note_on_c, 7, 59, 105
9, 278784, Note_on_c, 7, 59, 0
9, 279840, Note_on_c, 7, 63, 105
9, 279984, Note_on_c, 7, 63, 0
9, 280080, Note_on_c, 7, 69, 105
9, 280224, Note_on_c, 7, 69, 0
9, 280320, Note_on_c, 7, 68, 105
9, 280464, Note_on_c, 7, 68, 0
9, 280560, Note_on_c, 7, 68, 105
9, 280704, Note_on_c, 7, 68, 0
9, 280800, Note_on_c, 7, 69, 105
9, 280944, Note_on_c, 7, 69, 0
9, 281040, Note_on_c, 7, 69, 105
9, 281184, Note_on_c, 7, 69, 0
9, 281280, Note_on_c, 7, 68, 105
9, 281424, Note_on_c, 7, 68, 0
9, 281520, Note_on_c, 7, 68, 105
9, 281664, Note_on_c, 7, 68, 0
9, 281760, Note_on_c, 7, 66, 105
9, 281904, Note_on_c, 7, 66, 0
9, 282000, Note_on_c, 7, 66, 105
9, 282144, Note_on_c, 7, 66, 0
9, 282240, Note_on_c, 7, 59, 105
9, 282624, Note_on_c, 7, 59, 0
9, 283680, Note_on_c, 7, 63, 105
9, 283824, Note_on_c, 7, 63, 0
9, 283920, Note_on_c, 7, 69, 105
9, 284064, Note_on_c, 7, 69, 0
9, 284160, Note_on_c, 7, 68, 105
9, 284304, Note_on_c, 7, 68, 0
9, 284400, Note_on_c, 7, 68, 105
9, 284544, Note_on_c, 7, 68, 0
9, 284640, Note_on_c, 7, 69, 105
9, 284784, Note_on_c, 7, 69, 0
9, 284880, Note_on_c, 7, 69, 105
9, 285024, Note_on_c, 7, 69, 0
9, 285120, Note_on_c, 7, 68, 105
9, 285264, Note_on_c, 7, 68, 0
9, 285360, Note_on_c, 7, 68, 105
9, 285504, Note_on_c, 7, 68, 0
9, 285600, Note_on_c, 7, 66, 105
9, 285744, Note_on_c, 7, 66, 0
9, 285840, Note_on_c, 7, 66, 105
9, 285984, Note_on_c, 7, 66, 0
9, 286080, Note_on_c, 7, 64, 105
9, 286464, Note_on_c, 7, 64, 0
9, 288480, Note_on_c, 7, 76, 80
9, 288600, Note_on_c, 7, 76, 0
9, 288600, Note_on_c, 7, 71, 80
9, 288672, Note_on_c, 7, 71, 0
9, 288720, Note_on_c, 7, 76, 80
9, 288792, Note_on_c, 7, 76, 0
9, 288840, Note_on_c, 7, 71, 80
9, 288912, Note_on_c, 7, 71, 0
9, 288960, Note_on_c, 7, 68, 80
9, 289344, Note_on_c, 7, 68, 0
9, 289440, Note_on_c, 7, 71, 80
9, 289560, Note_on_c, 7, 71, 0
9, 289560, Note_on_c, 7, 68, 80
9, 289632, Note_on_c, 7, 68, 0
9, 289680, Note_on_c, 7, 71, 80
9, 289752, Note_on_c, 7, 71, 0
9, 289800, Note_on_c, 7, 68, 80
9, 289872, Note_on_c, 7, 68, 0
9, 289920, Note_on_c, 7, 64, 80
9, 290496, Note_on_c, 7, 64, 0
9, 290640, Note_on_c, 7, 68, 80
9, 290736, Note_on_c, 7, 68, 0
9, 290760, Note_on_c, 7, 71, 80
9, 290856, Note_on_c, 7, 71, 0
9, 290880, Note_on_c, 7, 76, 80
9, 291240, Note_on_c, 7, 76, 0
9, 291360, Note_on_c, 7, 64, 80
9, 291720, Note_on_c, 7, 64, 0
9, 291840, Note_on_c, 7, 52, 80
9, 292224, Note_on_c, 7, 52, 0
9, 309600, Note_on_c, 7, 59, 62
9, 310080, Note_on_c, 7, 59, 0
9, 310080, Note_on_c, 7, 57, 62
9, 310320, Note_on_c, 7, 57, 0
9, 310560, Note_on_c, 7, 56, 62
9, 310800, Note_on_c, 7, 56, 0
9, 311040, Note_on_c, 7, 57, 62
9, 311424, Note_on_c, 7, 57, 0
9, 313440, Note_on_c, 7, 63, 62
9, 313920, Note_on_c, 7, 63, 0
9, 313920, Note_on_c, 7, 64, 62
9, 314160, Note_on_c, 7, 64, 0
9, 314400, Note_on_c, 7, 57, 62
9, 314640, Note_on_c, 7, 57, 0
9, 314880, Note_on_c, 7, 59, 62
9, 315264, Note_on_c, 7, 59, 0
9, 322560, Note_on_c, 7, 56, 62
9, 325632, Note_on_c, 7, 56, 0
9, 325680, Note_on_c, 7, 56, 82
9, 326064, Note_on_c, 7, 56, 0
9, 326160, Note_on_c, 7, 56, 82
9, 326316, Note_on_c, 7, 56, 0
9, 326400, Note_on_c, 7, 56, 62
9, 329472, Note_on_c, 7, 56, 0
9, 329520, Note_on_c, 7, 56, 82
9, 329904, Note_on_c, 7, 56, 0
9, 330000, Note_on_c, 7, 56, 82
9, 330156, Note_on_c, 7, 56, 0
9, 330240, Note_on_c, 7, 56, 62
9, 332160, Note_on_c, 7, 56, 0
9, 332160, Note_on_c, 7, 54, 62
9, 334080, Note_on_c, 7, 54, 0
9, 334080, Note_on_c, 7, 59, 62
9, 336000, Note_on_c, 7, 59, 0
9, 336000, Note_on_c, 7, 57, 62
9, 337920, Note_on_c, 7, 57, 0
9, 337920, Note_on_c, 7, 68, 62
9, 339840, Note_on_c, 7, 68, 0
9, 339840, Note_on_c, 7, 66, 62
9, 341760, Note_on_c, 7, 66, 0
9, 341760, Note_on_c, 7, 65, 62
9, 343680, Note_on_c, 7, 65, 0
9, 343680, Note_on_c, 7, 66, 62
9, 345600, Note_on_c, 7, 66, 0
9, 345600, Note_on_c, 7, 61, 62
9, 345912, Note_on_c, 7, 61, 0
9, 346080, Note_on_c, 7, 61, 82
9, 346992, Note_on_c, 7, 61, 0
9, 347040, Note_on_c, 7, 61, 62
9, 348000, Note_on_c, 7, 61, 0
9, 348000, Note_on_c, 7, 59, 62
9, 348480, Note_on_c, 7, 59, 0
9, 348480, Note_on_c, 7, 57, 62
9, 348960, Note_on_c, 7, 57, 0
9, 348960, Note_on_c, 7, 61, 62
9, 349430, Note_on_c, 7, 61, 0
9, 349440, Note_on_c, 7, 66, 62
9, 350380, Note_on_c, 7, 66, 0
9, 350400, Note_on_c, 7, 54, 62
9, 351340, Note_on_c, 7, 54, 0
9, 351360, Note_on_c, 7, 56, 62
9, 351840, Note_on_c, 7, 56, 0
9, 351840, Note_on_c, 7, 57, 62
9, 352320, Note_on_c, 7, 57, 0
9, 352320, Note_on_c, 7, 59, 62
9, 352800, Note_on_c, 7, 59, 0
9, 352800, Note_on_c, 7, 64, 62
9, 353270, Note_on_c, 7, 64, 0
9, 353280, Note_on_c, 7, 64, 62
9, 354220, Note_on_c, 7, 64, 0
9, 354240, Note_on_c, 7, 52, 62
9, 355180, Note_on_c, 7, 52, 0
9, 355200, Note_on_c, 7, 54, 62
9, 355680, Note_on_c, 7, 54, 0
9, 355680, Note_on_c, 7, 56, 62
9, 356160, Note_on_c, 7, 56, 0
9, 356160, Note_on_c, 7, 57, 62
9, 356640, Note_on_c, 7, 57, 0
9, 356640, Note_on_c, 7, 62, 62
9, 357110, Note_on_c, 7, 62, 0
9, 357120, Note_on_c, 7, 62, 62
9, 358060, Note_on_c, 7, 62, 0
9, 358080, Note_on_c, 7, 50, 62
9, 359020, Note_on_c, 7, 50, 0
9, 359040, Note_on_c, 7, 52, 62
9, 359520, Note_on_c, 7, 52, 0
9, 359520, Note_on_c, 7, 54, 62
9, 360000, Note_on_c, 7, 54, 0
9, 360000, Note_on_c, 7, 56, 62
9, 360480, Note_on_c, 7, 56, 0
9, 360480, Note_on_c, 7, 61, 62
9, 360950, Note_on_c, 7, 61, 0
9, 360960, Note_on_c, 7, 61, 59
9, 362842, Note_on_c, 7, 61, 0
9, 362880, Note_on_c, 7, 63, 59
9, 363820, Note_on_c, 7, 63, 0
9, 363840, Note_on_c, 7, 69, 61
9, 364780, Note_on_c, 7, 69, 0
9, 364800, Note_on_c, 7, 65, 62
9, 366682, Note_on_c, 7, 65, 0
9, 366720, Note_on_c, 7, 66, 64
9, 367200, Note_on_c, 7, 66, 0
9, 367200, Note_on_c, 7, 62, 64
9, 367680, Note_on_c, 7, 62, 0
9, 367680, Note_on_c, 7, 61, 64
9, 368592, Note_on_c, 7, 61, 0
9, 368880, Note_on_c, 7, 61, 57
9, 369072, Note_on_c, 7, 61, 0
9, 369120, Note_on_c, 7, 61, 57
9, 369312, Note_on_c, 7, 61, 0
9, 369360, Note_on_c, 7, 61, 57
9, 369552, Note_on_c, 7, 61, 0
9, 369840, Note_on_c, 7, 61, 58
9, 370032, Note_on_c, 7, 61, 0
9, 370080, Note_on_c, 7, 61, 59
9, 370272, Note_on_c, 7, 61, 0
9, 370320, Note_on_c, 7, 61, 60
9, 370512, Note_on_c, 7, 61, 0
9, 370800, Note_on_c, 7, 63, 63
9, 370992, Note_on_c, 7, 63, 0
9, 371040, Note_on_c, 7, 63, 65
9, 371232, Note_on_c, 7, 63, 0
9, 371280, Note_on_c, 7, 63, 67
9, 371472, Note_on_c, 7, 63, 0
9, 371760, Note_on_c, 7, 66, 72
9, 371952, Note_on_c, 7, 66, 0
9, 372000, Note_on_c, 7, 66, 74
9, 372192, Note_on_c, 7, 66, 0
9, 372240, Note_on_c, 7, 66, 77
9, 372432, Note_on_c, 7, 66, 0
9, 372720, Note_on_c, 7, 66, 83
9, 372912, Note_on_c, 7, 66, 0
9, 372960, Note_on_c, 7, 66, 87
9, 373152, Note_on_c, 7, 66, 0
9, 373200, Note_on_c, 7, 66, 90
9, 373392, Note_on_c, 7, 66, 0
9, 373440, Note_on_c, 7, 59, 94
9, 375840, Note_on_c, 7, 59, 0
9, 382080, Note_on_c, 7, 59, 71
9, 382080, Note_on_c, 7, 68, 71
9, 385882, Note_on_c, 7, 68, 0
9, 385882, Note_on_c, 7, 59, 0
9, 385920, Note_on_c, 7, 69, 62
9, 385920, Note_on_c, 7, 61, 62
9, 387072, Note_on_c, 7, 61, 0
9, 387072, Note_on_c, 7, 69, 0
9, 389280, Note_on_c, 7, 64, 71
9, 390240, Note_on_c, 7, 64, 0
9, 390240, Note_on_c, 7, 62, 71
9, 391200, Note_on_c, 7, 62, 0
9, 391200, Note_on_c, 7, 61, 71
9, 392160, Note_on_c, 7, 61, 0
9, 392160, Note_on_c, 7, 59, 71
9, 393120, Note_on_c, 7, 59, 0
9, 393120, Note_on_c, 7, 57, 71
9, 393840, Note_on_c, 7, 57, 0
9, 393840, Note_on_c, 7, 56, 71
9, 394080, Note_on_c, 7, 56, 0
9, 394080, Note_on_c, 7, 54, 71
9, 394320, Note_on_c, 7, 54, 0
9, 394320, Note_on_c, 7, 56, 71
9, 394512, Note_on_c, 7, 56, 0
9, 394560, Note_on_c, 7, 56, 71
9, 394944, Note_on_c, 7, 56, 0
9, 395520, Note_on_c, 7, 61, 58
9, 395520, Note_on_c, 7, 64, 58
9, 397440, Note_on_c, 7, 61, 0
9, 397440, Note_on_c, 7, 62, 58
9, 399360, Note_on_c, 7, 64, 0
9, 399360, Note_on_c, 7, 59, 58
9, 401280, Note_on_c, 7, 59, 0
9, 401280, Note_on_c, 7, 62, 0
9, 401280, Note_on_c, 7, 61, 58
9, 403200, Note_on_c, 7, 61, 0
9, 416160, Note_on_c, 7, 62, 105
9, 416304, Note_on_c, 7, 62, 0
9, 416400, Note_on_c, 7, 59, 105
9, 416544, Note_on_c, 7, 59, 0
9, 416640, Note_on_c, 7, 57, 105
9, 416784, Note_on_c, 7, 57, 0
9, 416880, Note_on_c, 7, 57, 105
9, 417024, Note_on_c, 7, 57, 0
9, 417120, Note_on_c, 7, 62, 105
9, 417264, Note_on_c, 7, 62, 0
9, 417360, Note_on_c, 7, 62, 105
9, 417504, Note_on_c, 7, 62, 0
9, 417600, Note_on_c, 7, 61, 105
9, 417744, Note_on_c, 7, 61, 0
9, 417840, Note_on_c, 7, 61, 105
9, 417984, Note_on_c, 7, 61, 0
9, 418080, Note_on_c, 7, 59, 105
9, 418224, Note_on_c, 7, 59, 0
9, 418320, Note_on_c, 7, 59, 105
9, 418464, Note_on_c, 7, 59, 0
9, 418560, Note_on_c, 7, 57, 105
9, 418944, Note_on_c, 7, 57, 0
9, 420000, Note_on_c, 7, 64, 105
9, 420120, Note_on_c, 7, 64, 0
9, 420120, Note_on_c, 7, 61, 105
9, 420198, Note_on_c, 7, 61, 0
9, 420240, Note_on_c, 7, 64, 105
9, 420318, Note_on_c, 7, 64, 0
9, 420360, Note_on_c, 7, 61, 105
9, 420438, Note_on_c, 7, 61, 0
9, 420480, Note_on_c, 7, 57, 105
9, 420864, Note_on_c, 7, 57, 0
9, 420960, Note_on_c, 7, 57, 105
9, 421194, Note_on_c, 7, 57, 0
9, 421320, Note_on_c, 7, 57, 105
9, 421398, Note_on_c, 7, 57, 0
9, 421440, Note_on_c, 7, 57, 105
9, 421824, Note_on_c, 7, 57, 0
9, 433920, Note_on_c, 7, 66, 62
9, 434160, Note_on_c, 7, 66, 0
9, 434880, Note_on_c, 7, 66, 62
9, 435120, Note_on_c, 7, 66, 0
9, 435840, Note_on_c, 7, 62, 62
9, 437760, Note_on_c, 7, 62, 0
9, 437760, Note_on_c, 7, 64, 62
9, 438000, Note_on_c, 7, 64, 0
9, 438720, Note_on_c, 7, 64, 62
9, 438960, Note_on_c, 7, 64, 0
9, 439680, Note_on_c, 7, 61, 62
9, 441600, Note_on_c, 7, 61, 0
9, 441600, Note_on_c, 7, 62, 62
9, 441840, Note_on_c, 7, 62, 0
9, 442560, Note_on_c, 7, 62, 62
9, 442800, Note_on_c, 7, 62, 0
9, 443520, Note_on_c, 7, 59, 62
9, 445440, Note_on_c, 7, 59, 0
9, 445440, Note_on_c, 7, 61, 62
9, 445680, Note_on_c, 7, 61, 0
9, 446400, Note_on_c, 7, 66, 62
9, 446640, Note_on_c, 7, 66, 0
9, 447360, Note_on_c, 7, 66, 62
9, 449280, Note_on_c, 7, 66, 0
9, 449280, Note_on_c, 7, 64, 62
9, 450048, Note_on_c, 7, 64, 0
9, 453120, Note_on_c, 7, 69, 71
9, 453840, Note_on_c, 7, 69, 0
9, 453840, Note_on_c, 7, 73, 71
9, 454080, Note_on_c, 7, 73, 0
9, 454080, Note_on_c, 7, 64, 71
9, 454464, Note_on_c, 7, 64, 0
9, 455040, Note_on_c, 7, 69, 71
9, 455760, Note_on_c, 7, 69, 0
9, 455760, Note_on_c, 7, 73, 71
9, 456000, Note_on_c, 7, 73, 0
9, 456000, Note_on_c, 7, 64, 71
9, 456384, Note_on_c, 7, 64, 0
9, 456960, Note_on_c, 7, 69, 71
9, 457680, Note_on_c, 7, 69, 0
9, 457680, Note_on_c, 7, 73, 71
9, 457920, Note_on_c, 7, 73, 0
9, 457920, Note_on_c, 7, 64, 71
9, 458304, Note_on_c, 7, 64, 0
9, 458880, Note_on_c, 7, 52, 62
9, 465792, Note_on_c, 7, 52, 0
9, 466560, Note_on_c, 7, 57, 62
9, 469440, Note_on_c, 7, 57, 0
9, 469440, Note_on_c, 7, 59, 62
9, 470400, Note_on_c, 7, 59, 0
9, 470400, Note_on_c, 7, 57, 62
9, 471360, Note_on_c, 7, 57, 0
9, 471360, Note_on_c, 7, 69, 62
9, 473280, Note_on_c, 7, 69, 0
9, 473280, Note_on_c, 7, 71, 62
9, 474240, Note_on_c, 7, 71, 0
9, 474240, Note_on_c, 7, 69, 62
9, 474720, Note_on_c, 7, 69, 0
9, 489600, Note_on_c, 7, 61, 71
9, 490512, Note_on_c, 7, 61, 0
9, 490560, Note_on_c, 7, 62, 71
9, 491280, Note_on_c, 7, 62, 0
9, 491280, Note_on_c, 7, 59, 71
9, 491508, Note_on_c, 7, 59, 0
9, 491520, Note_on_c, 7, 57, 71
9, 491832, Note_on_c, 7, 57, 0
9, 492000, Note_on_c, 7, 64, 71
9, 492480, Note_on_c, 7, 64, 0
9, 492480, Note_on_c, 7, 62, 71
9, 492960, Note_on_c, 7, 62, 0
9, 492960, Note_on_c, 7, 66, 71
9, 493416, Note_on_c, 7, 66, 0
9, 493440, Note_on_c, 7, 64, 71
9, 494352, Note_on_c, 7, 64, 0
9, 494400, Note_on_c, 7, 66, 71
9, 495312, Note_on_c, 7, 66, 0
9, 495360, Note_on_c, 7, 64, 62
9, 496128, Note_on_c, 7, 64, 0
9, 511200, Note_on_c, 7, 68, 71
9, 511680, Note_on_c, 7, 68, 0
9, 511680, Note_on_c, 7, 69, 71
9, 512160, Note_on_c, 7, 69, 0
9, 512160, Note_on_c, 7, 68, 71
9, 512640, Note_on_c, 7, 68, 0
9, 512640, Note_on_c, 7, 69, 71
9, 513120, Note_on_c, 7, 69, 0
9, 513120, Note_on_c, 7, 68, 71
9, 513600, Note_on_c, 7, 68, 0
9, 513600, Note_on_c, 7, 69, 71
9, 514080, Note_on_c, 7, 69, 0
9, 514080, Note_on_c, 7, 68, 71
9, 514464, Note_on_c, 7, 68, 0
9, 514560, Note_on_c, 7, 69, 71
9, 514716, Note_on_c, 7, 69, 0
9, 514800, Note_on_c, 7, 69, 71
9, 514956, Note_on_c, 7, 69, 0
9, 515040, Note_on_c, 7, 68, 71
9, 515196, Note_on_c, 7, 68, 0
9, 515280, Note_on_c, 7, 68, 71
9, 515436, Note_on_c, 7, 68, 0
9, 515520, Note_on_c, 7, 69, 71
9, 515676, Note_on_c, 7, 69, 0
9, 515760, Note_on_c, 7, 69, 71
9, 515916, Note_on_c, 7, 69, 0
9, 516000, Note_on_c, 7, 68, 71
9, 516156, Note_on_c, 7, 68, 0
9, 516240, Note_on_c, 7, 68, 71
9, 516396, Note_on_c, 7, 68, 0
9, 516480, Note_on_c, 7, 69, 71
9, 516864, Note_on_c, 7, 69, 0
9, 518400, Note_on_c, 7, 69, 71
9, 518784, Note_on_c, 7, 69, 0
9, 520560, Note_on_c, 7, 64, 71
9, 520716, Note_on_c, 7, 64, 0
9, 520800, Note_on_c, 7, 64, 71
9, 520956, Note_on_c, 7, 64, 0
9, 521040, Note_on_c, 7, 64, 71
9, 521196, Note_on_c, 7, 64, 0
9, 521520, Note_on_c, 7, 64, 71
9, 521676, Note_on_c, 7, 64, 0
9, 521760, Note_on_c, 7, 64, 71
9, 521916, Note_on_c, 7, 64, 0
9, 522000, Note_on_c, 7, 64, 71
9, 522156, Note_on_c, 7, 64, 0
9, 522240, Note_on_c, 7, 64, 71
9, 522432, Note_on_c, 7, 64, 0
9, 522720, Note_on_c, 7, 71, 71
9, 523200, Note_on_c, 7, 71, 0
9, 523200, Note_on_c, 7, 73, 71
9, 523680, Note_on_c, 7, 73, 0
9, 523680, Note_on_c, 7, 71, 71
9, 524160, Note_on_c, 7, 71, 0
9, 524160, Note_on_c, 7, 73, 71
9, 524640, Note_on_c, 7, 73, 0
9, 524640, Note_on_c, 7, 71, 71
9, 525120, Note_on_c, 7, 71, 0
9, 525120, Note_on_c, 7, 73, 71
9, 525600, Note_on_c, 7, 73, 0
9, 525600, Note_on_c, 7, 71, 71
9, 526032, Note_on_c, 7, 71, 0
9, 526080, Note_on_c, 7, 73, 71
9, 526272, Note_on_c, 7, 73, 0
9, 526320, Note_on_c, 7, 73, 71
9, 526512, Note_on_c, 7, 73, 0
9, 526560, Note_on_c, 7, 71, 71
9, 526752, Note_on_c, 7, 71, 0
9, 526800, Note_on_c, 7, 71, 71
9, 526992, Note_on_c, 7, 71, 0
9, 527040, Note_on_c, 7, 73, 71
9, 527232, Note_on_c, 7, 73, 0
9, 527280, Note_on_c, 7, 73, 71
9, 527472, Note_on_c, 7, 73, 0
9, 527520, Note_on_c, 7, 71, 71
9, 527712, Note_on_c, 7, 71, 0
9, 527760, Note_on_c, 7, 71, 71
9, 527952, Note_on_c, 7, 71, 0
9, 528000, Note_on_c, 7, 73, 71
9, 528384, Note_on_c, 7, 73, 0
9, 530160, Note_on_c, 7, 57, 91
9, 530520, Note_on_c, 7, 57, 0
9, 530640, Note_on_c, 7, 57, 71
9, 530820, Note_on_c, 7, 57, 0
9, 531120, Note_on_c, 7, 57, 91
9, 531480, Note_on_c, 7, 57, 0
9, 531600, Note_on_c, 7, 57, 71
9, 531780, Note_on_c, 7, 57, 0
9, 531840, Note_on_c, 7, 57, 71
9, 532224, Note_on_c, 7, 57, 0
9, 534000, Note_on_c, 7, 63, 91
9, 534360, Note_on_c, 7, 63, 0
9, 534480, Note_on_c, 7, 63, 71
9, 534660, Note_on_c, 7, 63, 0
9, 534960, Note_on_c, 7, 69, 91
9, 535320, Note_on_c, 7, 69, 0
9, 535440, Note_on_c, 7, 69, 71
9, 535620, Note_on_c, 7, 69, 0
9, 535680, Note_on_c, 7, 69, 71
9, 535992, Note_on_c, 7, 69, 0
9, 536160, Note_on_c, 7, 69, 71
9, 536472, Note_on_c, 7, 69, 0
9, 536640, Note_on_c, 7, 69, 71
9, 536952, Note_on_c, 7, 69, 0
9, 543360, Note_on_c, 7, 64, 66
9, 543516, Note_on_c, 7, 64, 0
9, 543600, Note_on_c, 7, 64, 68
9, 543756, Note_on_c, 7, 64, 0
9, 543840, Note_on_c, 7, 64, 71
9, 543996, Note_on_c, 7, 64, 0
9, 544080, Note_on_c, 7, 64, 74
9, 544236, Note_on_c, 7, 64, 0
9, 544320, Note_on_c, 7, 64, 77
9, 544476, Note_on_c, 7, 64, 0
9, 544560, Note_on_c, 7, 64, 79
9, 544716, Note_on_c, 7, 64, 0
9, 544800, Note_on_c, 7, 64, 82
9, 544956, Note_on_c, 7, 64, 0
9, 545040, Note_on_c, 7, 64, 85
9, 545196, Note_on_c, 7, 64, 0
9, 545280, Note_on_c, 7, 64, 88
9, 545436, Note_on_c, 7, 64, 0
9, 545520, Note_on_c, 7, 64, 91
9, 545676, Note_on_c, 7, 64, 0
9, 545760, Note_on_c, 7, 64, 93
9, 545916, Note_on_c, 7, 64, 0
9, 546000, Note_on_c, 7, 64, 96
9, 546156, Note_on_c, 7, 64, 0
9, 546240, Note_on_c, 7, 64, 99
9, 546396, Note_on_c, 7, 64, 0
9, 546480, Note_on_c, 7, 64, 104
9, 546636, Note_on_c, 7, 64, 0
9, 546720, Note_on_c, 7, 64, 104
9, 546876, Note_on_c, 7, 64, 0
9, 546960, Note_on_c, 7, 64, 104
9, 547116, Note_on_c, 7, 64, 0
9, 547200, Note_on_c, 7, 64, 73
9, 548140, Note_on_c, 7, 64, 0
9, 548160, Note_on_c, 7, 61, 71
9, 549100, Note_on_c, 7, 61, 0
9, 549120, Note_on_c, 7, 62, 71
9, 551002, Note_on_c, 7, 62, 0
9, 551040, Note_on_c, 7, 64, 71
9, 552922, Note_on_c, 7, 64, 0
9, 552960, Note_on_c, 7, 66, 83
9, 553900, Note_on_c, 7, 66, 0
9, 553920, Note_on_c, 7, 68, 89
9, 554860, Note_on_c, 7, 68, 0
9, 554880, Note_on_c, 7, 69, 95
9, 555820, Note_on_c, 7, 69, 0
9, 555840, Note_on_c, 7, 71, 101
9, 556032, Note_on_c, 7, 71, 0
9, 556080, Note_on_c, 7, 71, 103
9, 556464, Note_on_c, 7, 71, 0
9, 556560, Note_on_c, 7, 71, 105
9, 556752, Note_on_c, 7, 71, 0
9, 556800, Note_on_c, 7, 69, 105
9, 556992, Note_on_c, 7, 69, 0
9, 557040, Note_on_c, 7, 69, 105
9, 557424, Note_on_c, 7, 69, 0
9, 557520, Note_on_c, 7, 69, 105
9, 557904, Note_on_c, 7, 69, 0
9, 558000, Note_on_c, 7, 69, 105
9, 558156, Note_on_c, 7, 69, 0
9, 558240, Note_on_c, 7, 71, 105
9, 558396, Note_on_c, 7, 71, 0
9, 558480, Note_on_c, 7, 68, 105
9, 558636, Note_on_c, 7, 68, 0
9, 558720, Note_on_c, 7, 64, 105
9, 558876, Note_on_c, 7, 64, 0
9, 558960, Note_on_c, 7, 76, 105
9, 559038, Note_on_c, 7, 76, 0
9, 559080, Note_on_c, 7, 73, 105
9, 559158, Note_on_c, 7, 73, 0
9, 559200, Note_on_c, 7, 69, 105
9, 559356, Note_on_c, 7, 69, 0
9, 559440, Note_on_c, 7, 73, 105
9, 559518, Note_on_c, 7, 73, 0
9, 559560, Note_on_c, 7, 69, 105
9, 559638, Note_on_c, 7, 69, 0
9, 559680, Note_on_c, 7, 66, 105
9, 559836, Note_on_c, 7, 66, 0
9, 559920, Note_on_c, 7, 69, 105
9, 559998, Note_on_c, 7, 69, 0
9, 560040, Note_on_c, 7, 66, 105
9, 560118, Note_on_c, 7, 66, 0
9, 560160, Note_on_c, 7, 63, 105
9, 560316, Note_on_c, 7, 63, 0
9, 560400, Note_on_c, 7, 66, 105
9, 560478, Note_on_c, 7, 66, 0
9, 560520, Note_on_c, 7, 63, 105
9, 560598, Note_on_c, 7, 63, 0
9, 560640, Note_on_c, 7, 64, 105
9, 561792, Note_on_c, 7, 64, 0
9, 638880, Note_on_c, 7, 57, 105
9, 639264, Note_on_c, 7, 57, 0
9, 640320, Note_on_c, 7, 62, 105
9, 640464, Note_on_c, 7, 62, 0
9, 640560, Note_on_c, 7, 59, 105
9, 640704, Note_on_c, 7, 59, 0
9, 640800, Note_on_c, 7, 57, 105
9, 640944, Note_on_c, 7, 57, 0
9, 641040, Note_on_c, 7, 57, 105
9, 641184, Note_on_c, 7, 57, 0
9, 641280, Note_on_c, 7, 62, 105
9, 641424, Note_on_c, 7, 62, 0
9, 641520, Note_on_c, 7, 62, 105
9, 641664, Note_on_c, 7, 62, 0
9, 641760, Note_on_c, 7, 61, 105
9, 641904, Note_on_c, 7, 61, 0
9, 642000, Note_on_c, 7, 61, 105
9, 642144, Note_on_c, 7, 61, 0
9, 642240, Note_on_c, 7, 59, 105
9, 642384, Note_on_c, 7, 59, 0
9, 642480, Note_on_c, 7, 59, 105
9, 642624, Note_on_c, 7, 59, 0
9, 642720, Note_on_c, 7, 57, 105
9, 643104, Note_on_c, 7, 57, 0
9, 644160, Note_on_c, 7, 62, 105
9, 644304, Note_on_c, 7, 62, 0
9, 644400, Note_on_c, 7, 59, 105
9, 644544, Note_on_c, 7, 59, 0
9, 644640, Note_on_c, 7, 57, 105
9, 644784, Note_on_c, 7, 57, 0
9, 644880, Note_on_c, 7, 57, 105
9, 645024, Note_on_c, 7, 57, 0
9, 645120, Note_on_c, 7, 62, 105
9, 645264, Note_on_c, 7, 62, 0
9, 645360, Note_on_c, 7, 62, 105
9, 645504, Note_on_c, 7, 62, 0
9, 645600, Note_on_c, 7, 61, 105
9, 645744, Note_on_c, 7, 61, 0
9, 645840, Note_on_c, 7, 61, 105
9, 645984, Note_on_c, 7, 61, 0
9, 646080, Note_on_c, 7, 59, 105
9, 646224, Note_on_c, 7, 59, 0
9, 646320, Note_on_c, 7, 59, 105
9, 646464, Note_on_c, 7, 59, 0
9, 646560, Note_on_c, 7, 57, 105
9, 646944, Note_on_c, 7, 57, 0
9, 648000, Note_on_c, 7, 73, 90
9, 648120, Note_on_c, 7, 73, 0
9, 648120, Note_on_c, 7, 69, 90
9, 648198, Note_on_c, 7, 69, 0
9, 648240, Note_on_c, 7, 73, 90
9, 648318, Note_on_c, 7, 73, 0
9, 648360, Note_on_c, 7, 69, 90
9, 648438, Note_on_c, 7, 69, 0
9, 648480, Note_on_c, 7, 64, 90
9, 648864, Note_on_c, 7, 64, 0
9, 648960, Note_on_c, 7, 69, 90
9, 649080, Note_on_c, 7, 69, 0
9, 649080, Note_on_c, 7, 64, 90
9, 649158, Note_on_c, 7, 64, 0
9, 649200, Note_on_c, 7, 69, 90
9, 649278, Note_on_c, 7, 69, 0
9, 649320, Note_on_c, 7, 64, 90
9, 649398, Note_on_c, 7, 64, 0
9, 649440, Note_on_c, 7, 61, 90
9, 649824, Note_on_c, 7, 61, 0
9, 649920, Note_on_c, 7, 64, 90
9, 650040, Note_on_c, 7, 64, 0
9, 650040, Note_on_c, 7, 61, 90
9, 650118, Note_on_c, 7, 61, 0
9, 650160, Note_on_c, 7, 64, 90
9, 650238, Note_on_c, 7, 64, 0
9, 650280, Note_on_c, 7, 61, 90
9, 650358, Note_on_c, 7, 61, 0
9, 650400, Note_on_c, 7, 57, 90
9, 651084, Note_on_c, 7, 57, 0
9, 651120, Note_on_c, 7, 61, 90
9, 651198, Note_on_c, 7, 61, 0
9, 651240, Note_on_c, 7, 64, 90
9, 651318, Note_on_c, 7, 64, 0
9, 651360, Note_on_c, 7, 69, 90
9, 651672, Note_on_c, 7, 69, 0
9, 651840, Note_on_c, 7, 69, 90
9, 652152, Note_on_c, 7, 69, 0
9, 652320, Note_on_c, 7, 57, 90
9, 652704, Note_on_c, 7, 57, 0
9, 652704, End_track
10, 0, Start_track
10, 0, Sequencer_specific, 04, 43, 00, 01, 00
10, 0, Program_c, 8, 48
10, 0, Control_c, 8, 7, 104
10, 0, Control_c, 8, 10, 84
10, 0, Control_c, 8, 91, 80
10, 1920, Note_on_c, 8, 57, 71
10, 2304, Note_on_c, 8, 57, 0
10, 2400, Note_on_c, 8, 57, 71
10, 2784, Note_on_c, 8, 57, 0
10, 2880, Note_on_c, 8, 57, 71
10, 3264, Note_on_c, 8, 57, 0
10, 3360, Note_on_c, 8, 57, 71
10, 3744, Note_on_c, 8, 57, 0
10, 3840, Note_on_c, 8, 57, 71
10, 4224, Note_on_c, 8, 57, 0
10, 4320, Note_on_c, 8, 57, 71
10, 4704, Note_on_c, 8, 57, 0
10, 4800, Note_on_c, 8, 57, 71
10, 5184, Note_on_c, 8, 57, 0
10, 5280, Note_on_c, 8, 57, 71
10, 5664, Note_on_c, 8, 57, 0
10, 5760, Note_on_c, 8, 57, 71
10, 6144, Note_on_c, 8, 57, 0
10, 6240, Note_on_c, 8, 57, 71
10, 6624, Note_on_c, 8, 57, 0
10, 6720, Note_on_c, 8, 57, 71
10, 7104, Note_on_c, 8, 57, 0
10, 7200, Note_on_c, 8, 57, 71
10, 7584, Note_on_c, 8, 57, 0
10, 7680, Note_on_c, 8, 57, 71
10, 8064, Note_on_c, 8, 57, 0
10, 8160, Note_on_c, 8, 57, 71
10, 8544, Note_on_c, 8, 57, 0
10, 8640, Note_on_c, 8, 57, 71
10, 9024, Note_on_c, 8, 57, 0
10, 9120, Note_on_c, 8, 57, 71
10, 9504, Note_on_c, 8, 57, 0
10, 10560, Note_on_c, 8, 61, 71
10, 11520, Note_on_c, 8, 61, 0
10, 11520, Note_on_c, 8, 62, 71
10, 12480, Note_on_c, 8, 62, 0
10, 12480, Note_on_c, 8, 57, 71
10, 13440, Note_on_c, 8, 57, 0
10, 13440, Note_on_c, 8, 56, 71
10, 14400, Note_on_c, 8, 56, 0
10, 14400, Note_on_c, 8, 57, 71
10, 15360, Note_on_c, 8, 57, 0
10, 15360, Note_on_c, 8, 52, 71
10, 16128, Note_on_c, 8, 52, 0
10, 17280, Note_on_c, 8, 57, 71
10, 17664, Note_on_c, 8, 57, 0
10, 17760, Note_on_c, 8, 57, 71
10, 18144, Note_on_c, 8, 57, 0
10, 18240, Note_on_c, 8, 57, 71
10, 18624, Note_on_c, 8, 57, 0
10, 18720, Note_on_c, 8, 57, 71
10, 19104, Note_on_c, 8, 57, 0
10, 19200, Note_on_c, 8, 57, 71
10, 19584, Note_on_c, 8, 57, 0
10, 19680, Note_on_c, 8, 57, 71
10, 20064, Note_on_c, 8, 57, 0
10, 20160, Note_on_c, 8, 57, 71
10, 20544, Note_on_c, 8, 57, 0
10, 20640, Note_on_c, 8, 57, 71
10, 21024, Note_on_c, 8, 57, 0
10, 21120, Note_on_c, 8, 57, 71
10, 21504, Note_on_c, 8, 57, 0
10, 21600, Note_on_c, 8, 57, 71
10, 21984, Note_on_c, 8, 57, 0
10, 22080, Note_on_c, 8, 57, 71
10, 22464, Note_on_c, 8, 57, 0
10, 22560, Note_on_c, 8, 57, 71
10, 22944, Note_on_c, 8, 57, 0
10, 23040, Note_on_c, 8, 57, 71
10, 23424, Note_on_c, 8, 57, 0
10, 23520, Note_on_c, 8, 57, 71
10, 23904, Note_on_c, 8, 57, 0
10, 24000, Note_on_c, 8, 57, 71
10, 24384, Note_on_c, 8, 57, 0
10, 24480, Note_on_c, 8, 57, 71
10, 24864, Note_on_c, 8, 57, 0
10, 28800, Note_on_c, 8, 54, 71
10, 29040, Note_on_c, 8, 54, 0
10, 29040, Note_on_c, 8, 53, 71
10, 29280, Note_on_c, 8, 53, 0
10, 29280, Note_on_c, 8, 56, 71
10, 29520, Note_on_c, 8, 56, 0
10, 29520, Note_on_c, 8, 54, 71
10, 29760, Note_on_c, 8, 54, 0
10, 29760, Note_on_c, 8, 57, 71
10, 30000, Note_on_c, 8, 57, 0
10, 30000, Note_on_c, 8, 56, 71
10, 30240, Note_on_c, 8, 56, 0
10, 30240, Note_on_c, 8, 54, 71
10, 30480, Note_on_c, 8, 54, 0
10, 30480, Note_on_c, 8, 52, 71
10, 30708, Note_on_c, 8, 52, 0
10, 30720, Note_on_c, 8, 50, 71
10, 31032, Note_on_c, 8, 50, 0
10, 31200, Note_on_c, 8, 47, 71
10, 31512, Note_on_c, 8, 47, 0
10, 31680, Note_on_c, 8, 52, 71
10, 31992, Note_on_c, 8, 52, 0
10, 32160, Note_on_c, 8, 52, 71
10, 32472, Note_on_c, 8, 52, 0
10, 32640, Note_on_c, 8, 57, 105
10, 32796, Note_on_c, 8, 57, 0
10, 32880, Note_on_c, 8, 52, 105
10, 33036, Note_on_c, 8, 52, 0
10, 33120, Note_on_c, 8, 57, 105
10, 33276, Note_on_c, 8, 57, 0
10, 33360, Note_on_c, 8, 52, 105
10, 33516, Note_on_c, 8, 52, 0
10, 33600, Note_on_c, 8, 57, 105
10, 33756, Note_on_c, 8, 57, 0
10, 33840, Note_on_c, 8, 52, 105
10, 33996, Note_on_c, 8, 52, 0
10, 34080, Note_on_c, 8, 57, 105
10, 34236, Note_on_c, 8, 57, 0
10, 34320, Note_on_c, 8, 52, 105
10, 34476, Note_on_c, 8, 52, 0
10, 34560, Note_on_c, 8, 57, 105
10, 34716, Note_on_c, 8, 57, 0
10, 34800, Note_on_c, 8, 52, 105
10, 34956, Note_on_c, 8, 52, 0
10, 35040, Note_on_c, 8, 57, 105
10, 35196, Note_on_c, 8, 57, 0
10, 35280, Note_on_c, 8, 52, 105
10, 35436, Note_on_c, 8, 52, 0
10, 35520, Note_on_c, 8, 57, 105
10, 35676, Note_on_c, 8, 57, 0
10, 35760, Note_on_c, 8, 52, 105
10, 35916, Note_on_c, 8, 52, 0
10, 36000, Note_on_c, 8, 57, 105
10, 36156, Note_on_c, 8, 57, 0
10, 36240, Note_on_c, 8, 52, 105
10, 36396, Note_on_c, 8, 52, 0
10, 36480, Note_on_c, 8, 56, 105
10, 36636, Note_on_c, 8, 56, 0
10, 36720, Note_on_c, 8, 52, 105
10, 36876, Note_on_c, 8, 52, 0
10, 36960, Note_on_c, 8, 56, 105
10, 37116, Note_on_c, 8, 56, 0
10, 37200, Note_on_c, 8, 52, 105
10, 37356, Note_on_c, 8, 52, 0
10, 37440, Note_on_c, 8, 56, 105
10, 37596, Note_on_c, 8, 56, 0
10, 37680, Note_on_c, 8, 52, 62
10, 37836, Note_on_c, 8, 52, 0
10, 37920, Note_on_c, 8, 56, 62
10, 38076, Note_on_c, 8, 56, 0
10, 38160, Note_on_c, 8, 52, 62
10, 38316, Note_on_c, 8, 52, 0
10, 38400, Note_on_c, 8, 59, 62
10, 38556, Note_on_c, 8, 59, 0
10, 38640, Note_on_c, 8, 52, 62
10, 38796, Note_on_c, 8, 52, 0
10, 38880, Note_on_c, 8, 59, 62
10, 39036, Note_on_c, 8, 59, 0
10, 39120, Note_on_c, 8, 52, 62
10, 39276, Note_on_c, 8, 52, 0
10, 39360, Note_on_c, 8, 56, 62
10, 39516, Note_on_c, 8, 56, 0
10, 39600, Note_on_c, 8, 52, 62
10, 39756, Note_on_c, 8, 52, 0
10, 39840, Note_on_c, 8, 56, 62
10, 39996, Note_on_c, 8, 56, 0
10, 40080, Note_on_c, 8, 52, 62
10, 40236, Note_on_c, 8, 52, 0
10, 40320, Note_on_c, 8, 57, 105
10, 40476, Note_on_c, 8, 57, 0
10, 40560, Note_on_c, 8, 52, 105
10, 40716, Note_on_c, 8, 52, 0
10, 40800, Note_on_c, 8, 57, 105
10, 40956, Note_on_c, 8, 57, 0
10, 41040, Note_on_c, 8, 52, 105
10, 41196, Note_on_c, 8, 52, 0
10, 41280, Note_on_c, 8, 57, 105
10, 41436, Note_on_c, 8, 57, 0
10, 41520, Note_on_c, 8, 52, 105
10, 41676, Note_on_c, 8, 52, 0
10, 41760, Note_on_c, 8, 57, 105
10, 41916, Note_on_c, 8, 57, 0
10, 42000, Note_on_c, 8, 52, 105
10, 42156, Note_on_c, 8, 52, 0
10, 42240, Note_on_c, 8, 57, 105
10, 42396, Note_on_c, 8, 57, 0
10, 42480, Note_on_c, 8, 52, 105
10, 42636, Note_on_c, 8, 52, 0
10, 42720, Note_on_c, 8, 57, 105
10, 42876, Note_on_c, 8, 57, 0
10, 42960, Note_on_c, 8, 52, 105
10, 43116, Note_on_c, 8, 52, 0
10, 43200, Note_on_c, 8, 57, 105
10, 43356, Note_on_c, 8, 57, 0
10, 43440, Note_on_c, 8, 52, 105
10, 43596, Note_on_c, 8, 52, 0
10, 43680, Note_on_c, 8, 57, 105
10, 43836, Note_on_c, 8, 57, 0
10, 43920, Note_on_c, 8, 52, 105
10, 44076, Note_on_c, 8, 52, 0
10, 44160, Note_on_c, 8, 56, 105
10, 44316, Note_on_c, 8, 56, 0
10, 44400, Note_on_c, 8, 52, 105
10, 44556, Note_on_c, 8, 52, 0
10, 44640, Note_on_c, 8, 56, 105
10, 44796, Note_on_c, 8, 56, 0
10, 44880, Note_on_c, 8, 52, 105
10, 45036, Note_on_c, 8, 52, 0
10, 45120, Note_on_c, 8, 56, 105
10, 45276, Note_on_c, 8, 56, 0
10, 45360, Note_on_c, 8, 52, 62
10, 45516, Note_on_c, 8, 52, 0
10, 45600, Note_on_c, 8, 56, 62
10, 45756, Note_on_c, 8, 56, 0
10, 45840, Note_on_c, 8, 52, 62
10, 45996, Note_on_c, 8, 52, 0
10, 46080, Note_on_c, 8, 59, 62
10, 46236, Note_on_c, 8, 59, 0
10, 46320, Note_on_c, 8, 52, 62
10, 46476, Note_on_c, 8, 52, 0
10, 46560, Note_on_c, 8, 59, 62
10, 46716, Note_on_c, 8, 59, 0
10, 46800, Note_on_c, 8, 52, 62
10, 46956, Note_on_c, 8, 52, 0
10, 47040, Note_on_c, 8, 56, 62
10, 47196, Note_on_c, 8, 56, 0
10, 47280, Note_on_c, 8, 52, 62
10, 47436, Note_on_c, 8, 52, 0
10, 47520, Note_on_c, 8, 56, 62
10, 47676, Note_on_c, 8, 56, 0
10, 47760, Note_on_c, 8, 52, 62
10, 47916, Note_on_c, 8, 52, 0
10, 48000, Note_on_c, 8, 57, 105
10, 48312, Note_on_c, 8, 57, 0
10, 48480, Note_on_c, 8, 57, 125
10, 48960, Note_on_c, 8, 57, 0
10, 48960, Note_on_c, 8, 56, 105
10, 49272, Note_on_c, 8, 56, 0
10, 49440, Note_on_c, 8, 56, 125
10, 49920, Note_on_c, 8, 56, 0
10, 49920, Note_on_c, 8, 54, 105
10, 50232, Note_on_c, 8, 54, 0
10, 50400, Note_on_c, 8, 54, 125
10, 50880, Note_on_c, 8, 54, 0
10, 50880, Note_on_c, 8, 52, 105
10, 51192, Note_on_c, 8, 52, 0
10, 51360, Note_on_c, 8, 52, 125
10, 51840, Note_on_c, 8, 52, 0
10, 51840, Note_on_c, 8, 50, 71
10, 52800, Note_on_c, 8, 50, 0
10, 52800, Note_on_c, 8, 52, 71
10, 53712, Note_on_c, 8, 52, 0
10, 53760, Note_on_c, 8, 54, 71
10, 54240, Note_on_c, 8, 54, 0
10, 54240, Note_on_c, 8, 56, 71
10, 54720, Note_on_c, 8, 56, 0
10, 54720, Note_on_c, 8, 57, 71
10, 55200, Note_on_c, 8, 57, 0
10, 55200, Note_on_c, 8, 50, 71
10, 55680, Note_on_c, 8, 50, 0
10, 55680, Note_on_c, 8, 52, 62
10, 56064, Note_on_c, 8, 52, 0
10, 58080, Note_on_c, 8, 57, 105
10, 58200, Note_on_c, 8, 57, 0
10, 58200, Note_on_c, 8, 56, 105
10, 58296, Note_on_c, 8, 56, 0
10, 58320, Note_on_c, 8, 54, 105
10, 58416, Note_on_c, 8, 54, 0
10, 58440, Note_on_c, 8, 52, 105
10, 58536, Note_on_c, 8, 52, 0
10, 58560, Note_on_c, 8, 57, 105
10, 58944, Note_on_c, 8, 57, 0
10, 59040, Note_on_c, 8, 50, 105
10, 59160, Note_on_c, 8, 50, 0
10, 59160, Note_on_c, 8, 49, 105
10, 59256, Note_on_c, 8, 49, 0
10, 59280, Note_on_c, 8, 47, 105
10, 59376, Note_on_c, 8, 47, 0
10, 59400, Note_on_c, 8, 45, 105
10, 59496, Note_on_c, 8, 45, 0
10, 59520, Note_on_c, 8, 52, 105
10, 60204, Note_on_c, 8, 52, 0
10, 60240, Note_on_c, 8, 56, 105
10, 60336, Note_on_c, 8, 56, 0
10, 60360, Note_on_c, 8, 59, 105
10, 60456, Note_on_c, 8, 59, 0
10, 60480, Note_on_c, 8, 64, 105
10, 60792, Note_on_c, 8, 64, 0
10, 60960, Note_on_c, 8, 64, 105
10, 61272, Note_on_c, 8, 64, 0
10, 61440, Note_on_c, 8, 52, 105
10, 61824, Note_on_c, 8, 52, 0
10, 78720, Note_on_c, 8, 45, 71
10, 78912, Note_on_c, 8, 45, 0
10, 79200, Note_on_c, 8, 57, 71
10, 79392, Note_on_c, 8, 57, 0
10, 79680, Note_on_c, 8, 45, 71
10, 79872, Note_on_c, 8, 45, 0
10, 80160, Note_on_c, 8, 57, 71
10, 80352, Note_on_c, 8, 57, 0
10, 80640, Note_on_c, 8, 45, 71
10, 80832, Note_on_c, 8, 45, 0
10, 81120, Note_on_c, 8, 57, 71
10, 81312, Note_on_c, 8, 57, 0
10, 81600, Note_on_c, 8, 45, 71
10, 81792, Note_on_c, 8, 45, 0
10, 82080, Note_on_c, 8, 57, 71
10, 82272, Note_on_c, 8, 57, 0
10, 82560, Note_on_c, 8, 45, 71
10, 82752, Note_on_c, 8, 45, 0
10, 83040, Note_on_c, 8, 57, 71
10, 83232, Note_on_c, 8, 57, 0
10, 83520, Note_on_c, 8, 45, 71
10, 83712, Note_on_c, 8, 45, 0
10, 84000, Note_on_c, 8, 57, 71
10, 84192, Note_on_c, 8, 57, 0
10, 84480, Note_on_c, 8, 45, 71
10, 84672, Note_on_c, 8, 45, 0
10, 84960, Note_on_c, 8, 57, 71
10, 85152, Note_on_c, 8, 57, 0
10, 85440, Note_on_c, 8, 45, 71
10, 85632, Note_on_c, 8, 45, 0
10, 85920, Note_on_c, 8, 57, 71
10, 86112, Note_on_c, 8, 57, 0
10, 86400, Note_on_c, 8, 45, 71
10, 86592, Note_on_c, 8, 45, 0
10, 86880, Note_on_c, 8, 57, 71
10, 87072, Note_on_c, 8, 57, 0
10, 87360, Note_on_c, 8, 45, 71
10, 87552, Note_on_c, 8, 45, 0
10, 87840, Note_on_c, 8, 57, 71
10, 88032, Note_on_c, 8, 57, 0
10, 88320, Note_on_c, 8, 45, 71
10, 88512, Note_on_c, 8, 45, 0
10, 88800, Note_on_c, 8, 57, 73
10, 88992, Note_on_c, 8, 57, 0
10, 89280, Note_on_c, 8, 45, 77
10, 89472, Note_on_c, 8, 45, 0
10, 89760, Note_on_c, 8, 57, 81
10, 89952, Note_on_c, 8, 57, 0
10, 90240, Note_on_c, 8, 45, 80
10, 90396, Note_on_c, 8, 45, 0
10, 90480, Note_on_c, 8, 45, 79
10, 90636, Note_on_c, 8, 45, 0
10, 90720, Note_on_c, 8, 45, 83
10, 90876, Note_on_c, 8, 45, 0
10, 90960, Note_on_c, 8, 45, 88
10, 91116, Note_on_c, 8, 45, 0
10, 91200, Note_on_c, 8, 45, 92
10, 91356, Note_on_c, 8, 45, 0
10, 91440, Note_on_c, 8, 45, 96
10, 91596, Note_on_c, 8, 45, 0
10, 91680, Note_on_c, 8, 45, 101
10, 91836, Note_on_c, 8, 45, 0
10, 91920, Note_on_c, 8, 45, 105
10, 92076, Note_on_c, 8, 45, 0
10, 92160, Note_on_c, 8, 45, 105
10, 92316, Note_on_c, 8, 45, 0
10, 92400, Note_on_c, 8, 45, 105
10, 92556, Note_on_c, 8, 45, 0
10, 92640, Note_on_c, 8, 49, 105
10, 92796, Note_on_c, 8, 49, 0
10, 92880, Note_on_c, 8, 49, 105
10, 93036, Note_on_c, 8, 49, 0
10, 93120, Note_on_c, 8, 50, 105
10, 93276, Note_on_c, 8, 50, 0
10, 93360, Note_on_c, 8, 50, 105
10, 93516, Note_on_c, 8, 50, 0
10, 93600, Note_on_c, 8, 54, 105
10, 93756, Note_on_c, 8, 54, 0
10, 93840, Note_on_c, 8, 54, 105
10, 93996, Note_on_c, 8, 54, 0
10, 94080, Note_on_c, 8, 52, 105
10, 94236, Note_on_c, 8, 52, 0
10, 94320, Note_on_c, 8, 64, 105
10, 94476, Note_on_c, 8, 64, 0
10, 94560, Note_on_c, 8, 61, 105
10, 94716, Note_on_c, 8, 61, 0
10, 94800, Note_on_c, 8, 57, 105
10, 94956, Note_on_c, 8, 57, 0
10, 95040, Note_on_c, 8, 52, 105
10, 95352, Note_on_c, 8, 52, 0
10, 95520, Note_on_c, 8, 52, 105
10, 95832, Note_on_c, 8, 52, 0
10, 96000, Note_on_c, 8, 45, 105
10, 96384, Note_on_c, 8, 45, 0
10, 98400, Note_on_c, 8, 57, 71
10, 98880, Note_on_c, 8, 57, 0
10, 98880, Note_on_c, 8, 56, 71
10, 99168, Note_on_c, 8, 56, 0
10, 99360, Note_on_c, 8, 52, 71
10, 99648, Note_on_c, 8, 52, 0
10, 99840, Note_on_c, 8, 57, 71
10, 100128, Note_on_c, 8, 57, 0
10, 100320, Note_on_c, 8, 55, 71
10, 100800, Note_on_c, 8, 55, 0
10, 100800, Note_on_c, 8, 54, 71
10, 101088, Note_on_c, 8, 54, 0
10, 101280, Note_on_c, 8, 50, 71
10, 101568, Note_on_c, 8, 50, 0
10, 101760, Note_on_c, 8, 49, 71
10, 102072, Note_on_c, 8, 49, 0
10, 102240, Note_on_c, 8, 45, 71
10, 102552, Note_on_c, 8, 45, 0
10, 102720, Note_on_c, 8, 50, 71
10, 103032, Note_on_c, 8, 50, 0
10, 103200, Note_on_c, 8, 54, 71
10, 103512, Note_on_c, 8, 54, 0
10, 103680, Note_on_c, 8, 52, 71
10, 104448, Note_on_c, 8, 52, 0
10, 106080, Note_on_c, 8, 57, 71
10, 106560, Note_on_c, 8, 57, 0
10, 106560, Note_on_c, 8, 56, 71
10, 106872, Note_on_c, 8, 56, 0
10, 107040, Note_on_c, 8, 52, 71
10, 107352, Note_on_c, 8, 52, 0
10, 107520, Note_on_c, 8, 57, 71
10, 107832, Note_on_c, 8, 57, 0
10, 108000, Note_on_c, 8, 55, 71
10, 108480, Note_on_c, 8, 55, 0
10, 108480, Note_on_c, 8, 54, 71
10, 108792, Note_on_c, 8, 54, 0
10, 108960, Note_on_c, 8, 50, 71
10, 109272, Note_on_c, 8, 50, 0
10, 109440, Note_on_c, 8, 52, 71
10, 109752, Note_on_c, 8, 52, 0
10, 109920, Note_on_c, 8, 52, 71
10, 110232, Note_on_c, 8, 52, 0
10, 110400, Note_on_c, 8, 52, 71
10, 110712, Note_on_c, 8, 52, 0
10, 110880, Note_on_c, 8, 52, 71
10, 111192, Note_on_c, 8, 52, 0
10, 111360, Note_on_c, 8, 45, 105
10, 111744, Note_on_c, 8, 45, 0
10, 112800, Note_on_c, 8, 52, 105
10, 112944, Note_on_c, 8, 52, 0
10, 113040, Note_on_c, 8, 52, 105
10, 113184, Note_on_c, 8, 52, 0
10, 113280, Note_on_c, 8, 54, 105
10, 113424, Note_on_c, 8, 54, 0
10, 113520, Note_on_c, 8, 54, 105
10, 113664, Note_on_c, 8, 54, 0
10, 113760, Note_on_c, 8, 50, 105
10, 113904, Note_on_c, 8, 50, 0
10, 114000, Note_on_c, 8, 50, 105
10, 114144, Note_on_c, 8, 50, 0
10, 114240, Note_on_c, 8, 52, 105
10, 114384, Note_on_c, 8, 52, 0
10, 114480, Note_on_c, 8, 52, 105
10, 114624, Note_on_c, 8, 52, 0
10, 114720, Note_on_c, 8, 52, 105
10, 114864, Note_on_c, 8, 52, 0
10, 114960, Note_on_c, 8, 52, 105
10, 115104, Note_on_c, 8, 52, 0
10, 115200, Note_on_c, 8, 45, 105
10, 115584, Note_on_c, 8, 45, 0
10, 116640, Note_on_c, 8, 52, 105
10, 116784, Note_on_c, 8, 52, 0
10, 116880, Note_on_c, 8, 52, 105
10, 117024, Note_on_c, 8, 52, 0
10, 117120, Note_on_c, 8, 54, 105
10, 117264, Note_on_c, 8, 54, 0
10, 117360, Note_on_c, 8, 54, 105
10, 117504, Note_on_c, 8, 54, 0
10, 117600, Note_on_c, 8, 50, 105
10, 117744, Note_on_c, 8, 50, 0
10, 117840, Note_on_c, 8, 50, 105
10, 117984, Note_on_c, 8, 50, 0
10, 118080, Note_on_c, 8, 52, 105
10, 118224, Note_on_c, 8, 52, 0
10, 118320, Note_on_c, 8, 52, 105
10, 118464, Note_on_c, 8, 52, 0
10, 118560, Note_on_c, 8, 52, 105
10, 118704, Note_on_c, 8, 52, 0
10, 118800, Note_on_c, 8, 52, 105
10, 118944, Note_on_c, 8, 52, 0
10, 119040, Note_on_c, 8, 45, 105
10, 119424, Note_on_c, 8, 45, 0
10, 120480, Note_on_c, 8, 64, 105
10, 120600, Note_on_c, 8, 64, 0
10, 120600, Note_on_c, 8, 61, 105
10, 120678, Note_on_c, 8, 61, 0
10, 120720, Note_on_c, 8, 64, 105
10, 120798, Note_on_c, 8, 64, 0
10, 120840, Note_on_c, 8, 61, 105
10, 120918, Note_on_c, 8, 61, 0
10, 120960, Note_on_c, 8, 57, 105
10, 121344, Note_on_c, 8, 57, 0
10, 121440, Note_on_c, 8, 45, 105
10, 121728, Note_on_c, 8, 45, 0
10, 121800, Note_on_c, 8, 45, 105
10, 121896, Note_on_c, 8, 45, 0
10, 121920, Note_on_c, 8, 45, 105
10, 122304, Note_on_c, 8, 45, 0
10, 138240, Note_on_c, 8, 57, 62
10, 145920, Note_on_c, 8, 57, 0
10, 158880, Note_on_c, 8, 52, 105
10, 159036, Note_on_c, 8, 52, 0
10, 159120, Note_on_c, 8, 52, 105
10, 159276, Note_on_c, 8, 52, 0
10, 159360, Note_on_c, 8, 54, 105
10, 159516, Note_on_c, 8, 54, 0
10, 159600, Note_on_c, 8, 54, 105
10, 159756, Note_on_c, 8, 54, 0
10, 159840, Note_on_c, 8, 50, 105
10, 159996, Note_on_c, 8, 50, 0
10, 160080, Note_on_c, 8, 50, 105
10, 160236, Note_on_c, 8, 50, 0
10, 160320, Note_on_c, 8, 52, 105
10, 160476, Note_on_c, 8, 52, 0
10, 160560, Note_on_c, 8, 52, 105
10, 160716, Note_on_c, 8, 52, 0
10, 160800, Note_on_c, 8, 52, 105
10, 160956, Note_on_c, 8, 52, 0
10, 161040, Note_on_c, 8, 52, 105
10, 161196, Note_on_c, 8, 52, 0
10, 161280, Note_on_c, 8, 45, 105
10, 161664, Note_on_c, 8, 45, 0
10, 162720, Note_on_c, 8, 64, 105
10, 162840, Note_on_c, 8, 64, 0
10, 162840, Note_on_c, 8, 61, 105
10, 162936, Note_on_c, 8, 61, 0
10, 162960, Note_on_c, 8, 64, 105
10, 163056, Note_on_c, 8, 64, 0
10, 163080, Note_on_c, 8, 61, 105
10, 163176, Note_on_c, 8, 61, 0
10, 163200, Note_on_c, 8, 57, 105
10, 163584, Note_on_c, 8, 57, 0
10, 163680, Note_on_c, 8, 45, 105
10, 163968, Note_on_c, 8, 45, 0
10, 164040, Note_on_c, 8, 45, 105
10, 164136, Note_on_c, 8, 45, 0
10, 164160, Note_on_c, 8, 45, 105
10, 164544, Note_on_c, 8, 45, 0
10, 174720, Note_on_c, 8, 59, 62
10, 179520, Note_on_c, 8, 59, 0
10, 179520, Note_on_c, 8, 60, 62
10, 180480, Note_on_c, 8, 60, 0
10, 180480, Note_on_c, 8, 61, 62
10, 180864, Note_on_c, 8, 61, 0
10, 181440, Note_on_c, 8, 59, 62
10, 181824, Note_on_c, 8, 59, 0
10, 182400, Note_on_c, 8, 57, 62
10, 182784, Note_on_c, 8, 57, 0
10, 183360, Note_on_c, 8, 56, 62
10, 183744, Note_on_c, 8, 56, 0
10, 186960, Note_on_c, 8, 59, 87
10, 187116, Note_on_c, 8, 59, 0
10, 187200, Note_on_c, 8, 54, 90
10, 187356, Note_on_c, 8, 54, 0
10, 187440, Note_on_c, 8, 59, 87
10, 187596, Note_on_c, 8, 59, 0
10, 187680, Note_on_c, 8, 51, 87
10, 187836, Note_on_c, 8, 51, 0
10, 187920, Note_on_c, 8, 54, 87
10, 188076, Note_on_c, 8, 54, 0
10, 188160, Note_on_c, 8, 47, 71
10, 188544, Note_on_c, 8, 47, 0
10, 192000, Note_on_c, 8, 52, 62
10, 195840, Note_on_c, 8, 52, 0
10, 195840, Note_on_c, 8, 47, 62
10, 196224, Note_on_c, 8, 47, 0
10, 199680, Note_on_c, 8, 52, 62
10, 203520, Note_on_c, 8, 52, 0
10, 203520, Note_on_c, 8, 57, 62
10, 203904, Note_on_c, 8, 57, 0
10, 205440, Note_on_c, 8, 57, 62
10, 205824, Note_on_c, 8, 57, 0
10, 207360, Note_on_c, 8, 57, 62
10, 207744, Note_on_c, 8, 57, 0
10, 209280, Note_on_c, 8, 57, 62
10, 209664, Note_on_c, 8, 57, 0
10, 211200, Note_on_c, 8, 56, 62
10, 211584, Note_on_c, 8, 56, 0
10, 218400, Note_on_c, 8, 59, 71
10, 218880, Note_on_c, 8, 59, 0
10, 218880, Note_on_c, 8, 64, 71
10, 219072, Note_on_c, 8, 64, 0
10, 219360, Note_on_c, 8, 59, 71
10, 219552, Note_on_c, 8, 59, 0
10, 219840, Note_on_c, 8, 52, 71
10, 220224, Note_on_c, 8, 52, 0
10, 236160, Note_on_c, 8, 52, 61
10, 244224, Note_on_c, 8, 52, 0
10, 263040, Note_on_c, 8, 52, 58
10, 266880, Note_on_c, 8, 52, 0
10, 266880, Note_on_c, 8, 57, 58
10, 270720, Note_on_c, 8, 57, 0
10, 270720, Note_on_c, 8, 47, 90
10, 271488, Note_on_c, 8, 47, 0
10, 276480, Note_on_c, 8, 59, 62
10, 276672, Note_on_c, 8, 59, 0
10, 276720, Note_on_c, 8, 59, 68
10, 276912, Note_on_c, 8, 59, 0
10, 276960, Note_on_c, 8, 59, 72
10, 277152, Note_on_c, 8, 59, 0
10, 277200, Note_on_c, 8, 59, 77
10, 277392, Note_on_c, 8, 59, 0
10, 277440, Note_on_c, 8, 47, 81
10, 277632, Note_on_c, 8, 47, 0
10, 277680, Note_on_c, 8, 47, 86
10, 277872, Note_on_c, 8, 47, 0
10, 277920, Note_on_c, 8, 47, 90
10, 278112, Note_on_c, 8, 47, 0
10, 278160, Note_on_c, 8, 47, 95
10, 278352, Note_on_c, 8, 47, 0
10, 278400, Note_on_c, 8, 52, 105
10, 278784, Note_on_c, 8, 52, 0
10, 279840, Note_on_c, 8, 59, 105
10, 279984, Note_on_c, 8, 59, 0
10, 280080, Note_on_c, 8, 59, 105
10, 280224, Note_on_c, 8, 59, 0
10, 280320, Note_on_c, 8, 61, 105
10, 280464, Note_on_c, 8, 61, 0
10, 280560, Note_on_c, 8, 61, 105
10, 280704, Note_on_c, 8, 61, 0
10, 280800, Note_on_c, 8, 57, 105
10, 280944, Note_on_c, 8, 57, 0
10, 281040, Note_on_c, 8, 57, 105
10, 281184, Note_on_c, 8, 57, 0
10, 281280, Note_on_c, 8, 59, 105
10, 281424, Note_on_c, 8, 59, 0
10, 281520, Note_on_c, 8, 59, 105
10, 281664, Note_on_c, 8, 59, 0
10, 281760, Note_on_c, 8, 47, 105
10, 281904, Note_on_c, 8, 47, 0
10, 282000, Note_on_c, 8, 47, 105
10, 282144, Note_on_c, 8, 47, 0
10, 282240, Note_on_c, 8, 52, 105
10, 282624, Note_on_c, 8, 52, 0
10, 283680, Note_on_c, 8, 59, 105
10, 283824, Note_on_c, 8, 59, 0
10, 283920, Note_on_c, 8, 59, 105
10, 284064, Note_on_c, 8, 59, 0
10, 284160, Note_on_c, 8, 61, 105
10, 284304, Note_on_c, 8, 61, 0
10, 284400, Note_on_c, 8, 61, 105
10, 284544, Note_on_c, 8, 61, 0
10, 284640, Note_on_c, 8, 57, 105
10, 284784, Note_on_c, 8, 57, 0
10, 284880, Note_on_c, 8, 57, 105
10, 285024, Note_on_c, 8, 57, 0
10, 285120, Note_on_c, 8, 59, 105
10, 285264, Note_on_c, 8, 59, 0
10, 285360, Note_on_c, 8, 59, 105
10, 285504, Note_on_c, 8, 59, 0
10, 285600, Note_on_c, 8, 47, 105
10, 285744, Note_on_c, 8, 47, 0
10, 285840, Note_on_c, 8, 47, 105
10, 285984, Note_on_c, 8, 47, 0
10, 286080, Note_on_c, 8, 52, 105
10, 286464, Note_on_c, 8, 52, 0
10, 288480, Note_on_c, 8, 64, 90
10, 288600, Note_on_c, 8, 64, 0
10, 288600, Note_on_c, 8, 59, 90
10, 288672, Note_on_c, 8, 59, 0
10, 288720, Note_on_c, 8, 64, 90
10, 288792, Note_on_c, 8, 64, 0
10, 288840, Note_on_c, 8, 59, 90
10, 288912, Note_on_c, 8, 59, 0
10, 288960, Note_on_c, 8, 56, 90
10, 289344, Note_on_c, 8, 56, 0
10, 289440, Note_on_c, 8, 59, 90
10, 289560, Note_on_c, 8, 59, 0
10, 289560, Note_on_c, 8, 56, 90
10, 289632, Note_on_c, 8, 56, 0
10, 289680, Note_on_c, 8, 59, 90
10, 289752, Note_on_c, 8, 59, 0
10, 289800, Note_on_c, 8, 56, 90
10, 289872, Note_on_c, 8, 56, 0
10, 289920, Note_on_c, 8, 52, 90
10, 290496, Note_on_c, 8, 52, 0
10, 290640, Note_on_c, 8, 56, 90
10, 290736, Note_on_c, 8, 56, 0
10, 290760, Note_on_c, 8, 59, 90
10, 290856, Note_on_c, 8, 59, 0
10, 290880, Note_on_c, 8, 64, 90
10, 291240, Note_on_c, 8, 64, 0
10, 291360, Note_on_c, 8, 64, 90
10, 291720, Note_on_c, 8, 64, 0
10, 291840, Note_on_c, 8, 52, 90
10, 292224, Note_on_c, 8, 52, 0
10, 309600, Note_on_c, 8, 56, 62
10, 310080, Note_on_c, 8, 56, 0
10, 310080, Note_on_c, 8, 54, 62
10, 310320, Note_on_c, 8, 54, 0
10, 310560, Note_on_c, 8, 52, 62
10, 310800, Note_on_c, 8, 52, 0
10, 311040, Note_on_c, 8, 51, 62
10, 311424, Note_on_c, 8, 51, 0
10, 313440, Note_on_c, 8, 57, 62
10, 313920, Note_on_c, 8, 57, 0
10, 313920, Note_on_c, 8, 56, 62
10, 314160, Note_on_c, 8, 56, 0
10, 314400, Note_on_c, 8, 54, 62
10, 314640, Note_on_c, 8, 54, 0
10, 314880, Note_on_c, 8, 52, 62
10, 315264, Note_on_c, 8, 52, 0
10, 322560, Note_on_c, 8, 52, 62
10, 325632, Note_on_c, 8, 52, 0
10, 325680, Note_on_c, 8, 52, 82
10, 326064, Note_on_c, 8, 52, 0
10, 326160, Note_on_c, 8, 52, 82
10, 326316, Note_on_c, 8, 52, 0
10, 326400, Note_on_c, 8, 50, 62
10, 329472, Note_on_c, 8, 50, 0
10, 329520, Note_on_c, 8, 50, 82
10, 329904, Note_on_c, 8, 50, 0
10, 330000, Note_on_c, 8, 50, 82
10, 330156, Note_on_c, 8, 50, 0
10, 330240, Note_on_c, 8, 49, 62
10, 330624, Note_on_c, 8, 49, 0
10, 332160, Note_on_c, 8, 49, 62
10, 332544, Note_on_c, 8, 49, 0
10, 334080, Note_on_c, 8, 49, 62
10, 334464, Note_on_c, 8, 49, 0
10, 336000, Note_on_c, 8, 49, 62
10, 336384, Note_on_c, 8, 49, 0
10, 337920, Note_on_c, 8, 49, 62
10, 338304, Note_on_c, 8, 49, 0
10, 339840, Note_on_c, 8, 49, 62
10, 340224, Note_on_c, 8, 49, 0
10, 341760, Note_on_c, 8, 49, 62
10, 342144, Note_on_c, 8, 49, 0
10, 343680, Note_on_c, 8, 49, 62
10, 344064, Note_on_c, 8, 49, 0
10, 345600, Note_on_c, 8, 61, 71
10, 347040, Note_on_c, 8, 61, 0
10, 347040, Note_on_c, 8, 59, 71
10, 347520, Note_on_c, 8, 59, 0
10, 347520, Note_on_c, 8, 57, 71
10, 348000, Note_on_c, 8, 57, 0
10, 348000, Note_on_c, 8, 56, 71
10, 348480, Note_on_c, 8, 56, 0
10, 348480, Note_on_c, 8, 54, 71
10, 348960, Note_on_c, 8, 54, 0
10, 348960, Note_on_c, 8, 57, 71
10, 349430, Note_on_c, 8, 57, 0
10, 349440, Note_on_c, 8, 59, 71
10, 350880, Note_on_c, 8, 59, 0
10, 350880, Note_on_c, 8, 57, 71
10, 351360, Note_on_c, 8, 57, 0
10, 351360, Note_on_c, 8, 56, 71
10, 351840, Note_on_c, 8, 56, 0
10, 351840, Note_on_c, 8, 54, 71
10, 352320, Note_on_c, 8, 54, 0
10, 352320, Note_on_c, 8, 52, 71
10, 352800, Note_on_c, 8, 52, 0
10, 352800, Note_on_c, 8, 56, 71
10, 353270, Note_on_c, 8, 56, 0
10, 353280, Note_on_c, 8, 57, 71
10, 354720, Note_on_c, 8, 57, 0
10, 354720, Note_on_c, 8, 56, 71
10, 355200, Note_on_c, 8, 56, 0
10, 355200, Note_on_c, 8, 54, 71
10, 355680, Note_on_c, 8, 54, 0
10, 355680, Note_on_c, 8, 52, 71
10, 356160, Note_on_c, 8, 52, 0
10, 356160, Note_on_c, 8, 50, 71
10, 356640, Note_on_c, 8, 50, 0
10, 356640, Note_on_c, 8, 54, 71
10, 357096, Note_on_c, 8, 54, 0
10, 357120, Note_on_c, 8, 56, 71
10, 358560, Note_on_c, 8, 56, 0
10, 358560, Note_on_c, 8, 54, 71
10, 359040, Note_on_c, 8, 54, 0
10, 359040, Note_on_c, 8, 53, 71
10, 359520, Note_on_c, 8, 53, 0
10, 359520, Note_on_c, 8, 51, 71
10, 360000, Note_on_c, 8, 51, 0
10, 360000, Note_on_c, 8, 49, 71
10, 360480, Note_on_c, 8, 49, 0
10, 360480, Note_on_c, 8, 53, 71
10, 360936, Note_on_c, 8, 53, 0
10, 360960, Note_on_c, 8, 54, 62
10, 361920, Note_on_c, 8, 54, 0
10, 361920, Note_on_c, 8, 52, 62
10, 362880, Note_on_c, 8, 52, 0
10, 362880, Note_on_c, 8, 51, 63
10, 363840, Note_on_c, 8, 51, 0
10, 363840, Note_on_c, 8, 50, 65
10, 364780, Note_on_c, 8, 50, 0
10, 364800, Note_on_c, 8, 49, 67
10, 365760, Note_on_c, 8, 49, 0
10, 365760, Note_on_c, 8, 47, 70
10, 366700, Note_on_c, 8, 47, 0
10, 366720, Note_on_c, 8, 45, 69
10, 367200, Note_on_c, 8, 45, 0
10, 367200, Note_on_c, 8, 47, 68
10, 367680, Note_on_c, 8, 47, 0
10, 367680, Note_on_c, 8, 49, 65
10, 368592, Note_on_c, 8, 49, 0
10, 368640, Note_on_c, 8, 54, 57
10, 369024, Note_on_c, 8, 54, 0
10, 369600, Note_on_c, 8, 52, 58
10, 369984, Note_on_c, 8, 52, 0
10, 370560, Note_on_c, 8, 51, 62
10, 370944, Note_on_c, 8, 51, 0
10, 371520, Note_on_c, 8, 50, 68
10, 371904, Note_on_c, 8, 50, 0
10, 372480, Note_on_c, 8, 49, 77
10, 372864, Note_on_c, 8, 49, 0
10, 373440, Note_on_c, 8, 47, 90
10, 375840, Note_on_c, 8, 47, 0
10, 380160, Note_on_c, 8, 57, 71
10, 380472, Note_on_c, 8, 57, 0
10, 380640, Note_on_c, 8, 57, 71
10, 380952, Note_on_c, 8, 57, 0
10, 381120, Note_on_c, 8, 57, 71
10, 381432, Note_on_c, 8, 57, 0
10, 381600, Note_on_c, 8, 57, 71
10, 381912, Note_on_c, 8, 57, 0
10, 382080, Note_on_c, 8, 57, 71
10, 382392, Note_on_c, 8, 57, 0
10, 382560, Note_on_c, 8, 57, 71
10, 382872, Note_on_c, 8, 57, 0
10, 383040, Note_on_c, 8, 57, 71
10, 383352, Note_on_c, 8, 57, 0
10, 383520, Note_on_c, 8, 57, 71
10, 383832, Note_on_c, 8, 57, 0
10, 384000, Note_on_c, 8, 57, 71
10, 384312, Note_on_c, 8, 57, 0
10, 384480, Note_on_c, 8, 57, 71
10, 384792, Note_on_c, 8, 57, 0
10, 384960, Note_on_c, 8, 57, 71
10, 385272, Note_on_c, 8, 57, 0
10, 385440, Note_on_c, 8, 57, 71
10, 385752, Note_on_c, 8, 57, 0
10, 385920, Note_on_c, 8, 57, 71
10, 386232, Note_on_c, 8, 57, 0
10, 386400, Note_on_c, 8, 57, 71
10, 386712, Note_on_c, 8, 57, 0
10, 386880, Note_on_c, 8, 57, 71
10, 387192, Note_on_c, 8, 57, 0
10, 387360, Note_on_c, 8, 57, 71
10, 387672, Note_on_c, 8, 57, 0
10, 388800, Note_on_c, 8, 61, 71
10, 389760, Note_on_c, 8, 61, 0
10, 389760, Note_on_c, 8, 62, 71
10, 390720, Note_on_c, 8, 62, 0
10, 390720, Note_on_c, 8, 57, 71
10, 391680, Note_on_c, 8, 57, 0
10, 391680, Note_on_c, 8, 56, 71
10, 392640, Note_on_c, 8, 56, 0
10, 392640, Note_on_c, 8, 57, 71
10, 393600, Note_on_c, 8, 57, 0
10, 393600, Note_on_c, 8, 52, 71
10, 394368, Note_on_c, 8, 52, 0
10, 395520, Note_on_c, 8, 57, 62
10, 403162, Note_on_c, 8, 57, 0
10, 416160, Note_on_c, 8, 52, 105
10, 416304, Note_on_c, 8, 52, 0
10, 416400, Note_on_c, 8, 52, 105
10, 416544, Note_on_c, 8, 52, 0
10, 416640, Note_on_c, 8, 54, 105
10, 416784, Note_on_c, 8, 54, 0
10, 416880, Note_on_c, 8, 54, 105
10, 417024, Note_on_c, 8, 54, 0
10, 417120, Note_on_c, 8, 50, 105
10, 417264, Note_on_c, 8, 50, 0
10, 417360, Note_on_c, 8, 50, 105
10, 417504, Note_on_c, 8, 50, 0
10, 417600, Note_on_c, 8, 52, 105
10, 417744, Note_on_c, 8, 52, 0
10, 417840, Note_on_c, 8, 52, 105
10, 417984, Note_on_c, 8, 52, 0
10, 418080, Note_on_c, 8, 52, 105
10, 418224, Note_on_c, 8, 52, 0
10, 418320, Note_on_c, 8, 52, 105
10, 418464, Note_on_c, 8, 52, 0
10, 418560, Note_on_c, 8, 45, 105
10, 418944, Note_on_c, 8, 45, 0
10, 420000, Note_on_c, 8, 64, 105
10, 420120, Note_on_c, 8, 64, 0
10, 420120, Note_on_c, 8, 61, 105
10, 420198, Note_on_c, 8, 61, 0
10, 420240, Note_on_c, 8, 64, 105
10, 420318, Note_on_c, 8, 64, 0
10, 420360, Note_on_c, 8, 61, 105
10, 420438, Note_on_c, 8, 61, 0
10, 420480, Note_on_c, 8, 57, 105
10, 420864, Note_on_c, 8, 57, 0
10, 420960, Note_on_c, 8, 45, 105
10, 421194, Note_on_c, 8, 45, 0
10, 421320, Note_on_c, 8, 45, 105
10, 421398, Note_on_c, 8, 45, 0
10, 421440, Note_on_c, 8, 45, 105
10, 421824, Note_on_c, 8, 45, 0
10, 433920, Note_on_c, 8, 62, 62
10, 434160, Note_on_c, 8, 62, 0
10, 434880, Note_on_c, 8, 62, 62
10, 435120, Note_on_c, 8, 62, 0
10, 435840, Note_on_c, 8, 59, 62
10, 437760, Note_on_c, 8, 59, 0
10, 437760, Note_on_c, 8, 61, 62
10, 438000, Note_on_c, 8, 61, 0
10, 438720, Note_on_c, 8, 61, 62
10, 438960, Note_on_c, 8, 61, 0
10, 439680, Note_on_c, 8, 57, 62
10, 441600, Note_on_c, 8, 57, 0
10, 441600, Note_on_c, 8, 59, 62
10, 441840, Note_on_c, 8, 59, 0
10, 442560, Note_on_c, 8, 59, 62
10, 442800, Note_on_c, 8, 59, 0
10, 443520, Note_on_c, 8, 56, 62
10, 445440, Note_on_c, 8, 56, 0
10, 445440, Note_on_c, 8, 57, 62
10, 445680, Note_on_c, 8, 57, 0
10, 446400, Note_on_c, 8, 54, 62
10, 446640, Note_on_c, 8, 54, 0
10, 447360, Note_on_c, 8, 50, 62
10, 448800, Note_on_c, 8, 50, 0
10, 448800, Note_on_c, 8, 51, 62
10, 449280, Note_on_c, 8, 51, 0
10, 449280, Note_on_c, 8, 52, 62
10, 450048, Note_on_c, 8, 52, 0
10, 466560, Note_on_c, 8, 45, 62
10, 470400, Note_on_c, 8, 45, 0
10, 470400, Note_on_c, 8, 57, 62
10, 474720, Note_on_c, 8, 57, 0
10, 490080, Note_on_c, 8, 57, 71
10, 490560, Note_on_c, 8, 57, 0
10, 490560, Note_on_c, 8, 56, 71
10, 490872, Note_on_c, 8, 56, 0
10, 491040, Note_on_c, 8, 52, 71
10, 491352, Note_on_c, 8, 52, 0
10, 491520, Note_on_c, 8, 57, 71
10, 491832, Note_on_c, 8, 57, 0
10, 492000, Note_on_c, 8, 55, 71
10, 492312, Note_on_c, 8, 55, 0
10, 492480, Note_on_c, 8, 54, 71
10, 492792, Note_on_c, 8, 54, 0
10, 492960, Note_on_c, 8, 50, 71
10, 493272, Note_on_c, 8, 50, 0
10, 493440, Note_on_c, 8, 49, 71
10, 493752, Note_on_c, 8, 49, 0
10, 493920, Note_on_c, 8, 45, 71
10, 494232, Note_on_c, 8, 45, 0
10, 494400, Note_on_c, 8, 50, 71
10, 494712, Note_on_c, 8, 50, 0
10, 494880, Note_on_c, 8, 54, 71
10, 495192, Note_on_c, 8, 54, 0
10, 495360, Note_on_c, 8, 52, 62
10, 496128, Note_on_c, 8, 52, 0
10, 511200, Note_on_c, 8, 62, 71
10, 511680, Note_on_c, 8, 62, 0
10, 511680, Note_on_c, 8, 61, 71
10, 512160, Note_on_c, 8, 61, 0
10, 512160, Note_on_c, 8, 62, 71
10, 512640, Note_on_c, 8, 62, 0
10, 512640, Note_on_c, 8, 61, 71
10, 513120, Note_on_c, 8, 61, 0
10, 513120, Note_on_c, 8, 62, 71
10, 513600, Note_on_c, 8, 62, 0
10, 513600, Note_on_c, 8, 61, 71
10, 514080, Note_on_c, 8, 61, 0
10, 514080, Note_on_c, 8, 62, 71
10, 514464, Note_on_c, 8, 62, 0
10, 514560, Note_on_c, 8, 61, 71
10, 514716, Note_on_c, 8, 61, 0
10, 514800, Note_on_c, 8, 61, 71
10, 514956, Note_on_c, 8, 61, 0
10, 515040, Note_on_c, 8, 62, 71
10, 515196, Note_on_c, 8, 62, 0
10, 515280, Note_on_c, 8, 62, 71
10, 515436, Note_on_c, 8, 62, 0
10, 515520, Note_on_c, 8, 61, 71
10, 515676, Note_on_c, 8, 61, 0
10, 515760, Note_on_c, 8, 61, 71
10, 515916, Note_on_c, 8, 61, 0
10, 516000, Note_on_c, 8, 62, 71
10, 516156, Note_on_c, 8, 62, 0
10, 516240, Note_on_c, 8, 62, 71
10, 516396, Note_on_c, 8, 62, 0
10, 516480, Note_on_c, 8, 61, 71
10, 516864, Note_on_c, 8, 61, 0
10, 518400, Note_on_c, 8, 54, 71
10, 518784, Note_on_c, 8, 54, 0
10, 520320, Note_on_c, 8, 52, 71
10, 520704, Note_on_c, 8, 52, 0
10, 521280, Note_on_c, 8, 52, 71
10, 521664, Note_on_c, 8, 52, 0
10, 522240, Note_on_c, 8, 57, 64
10, 522432, Note_on_c, 8, 57, 0
10, 522720, Note_on_c, 8, 62, 61
10, 523200, Note_on_c, 8, 62, 0
10, 523200, Note_on_c, 8, 61, 62
10, 523680, Note_on_c, 8, 61, 0
10, 523680, Note_on_c, 8, 62, 63
10, 524160, Note_on_c, 8, 62, 0
10, 524160, Note_on_c, 8, 61, 64
10, 524640, Note_on_c, 8, 61, 0
10, 524640, Note_on_c, 8, 62, 65
10, 525120, Note_on_c, 8, 62, 0
10, 525120, Note_on_c, 8, 61, 65
10, 525600, Note_on_c, 8, 61, 0
10, 525600, Note_on_c, 8, 62, 66
10, 526032, Note_on_c, 8, 62, 0
10, 526080, Note_on_c, 8, 61, 67
10, 526272, Note_on_c, 8, 61, 0
10, 526320, Note_on_c, 8, 61, 68
10, 526512, Note_on_c, 8, 61, 0
10, 526560, Note_on_c, 8, 62, 68
10, 526752, Note_on_c, 8, 62, 0
10, 526800, Note_on_c, 8, 62, 68
10, 526992, Note_on_c, 8, 62, 0
10, 527040, Note_on_c, 8, 61, 69
10, 527232, Note_on_c, 8, 61, 0
10, 527280, Note_on_c, 8, 61, 69
10, 527472, Note_on_c, 8, 61, 0
10, 527520, Note_on_c, 8, 62, 70
10, 527712, Note_on_c, 8, 62, 0
10, 527760, Note_on_c, 8, 62, 70
10, 527952, Note_on_c, 8, 62, 0
10, 528000, Note_on_c, 8, 61, 71
10, 528384, Note_on_c, 8, 61, 0
10, 529920, Note_on_c, 8, 49, 91
10, 530688, Note_on_c, 8, 49, 0
10, 530880, Note_on_c, 8, 52, 91
10, 531648, Note_on_c, 8, 52, 0
10, 531840, Note_on_c, 8, 50, 71
10, 532224, Note_on_c, 8, 50, 0
10, 533760, Note_on_c, 8, 41, 91
10, 534480, Note_on_c, 8, 41, 0
10, 534720, Note_on_c, 8, 53, 91
10, 535440, Note_on_c, 8, 53, 0
10, 535680, Note_on_c, 8, 52, 71
10, 535992, Note_on_c, 8, 52, 0
10, 536160, Note_on_c, 8, 52, 71
10, 536472, Note_on_c, 8, 52, 0
10, 536640, Note_on_c, 8, 52, 71
10, 536952, Note_on_c, 8, 52, 0
10, 543360, Note_on_c, 8, 52, 61
10, 543516, Note_on_c, 8, 52, 0
10, 543600, Note_on_c, 8, 52, 63
10, 543756, Note_on_c, 8, 52, 0
10, 543840, Note_on_c, 8, 52, 66
10, 543996, Note_on_c, 8, 52, 0
10, 544080, Note_on_c, 8, 52, 69
10, 544236, Note_on_c, 8, 52, 0
10, 544320, Note_on_c, 8, 52, 72
10, 544476, Note_on_c, 8, 52, 0
10, 544560, Note_on_c, 8, 52, 75
10, 544716, Note_on_c, 8, 52, 0
10, 544800, Note_on_c, 8, 52, 78
10, 544956, Note_on_c, 8, 52, 0
10, 545040, Note_on_c, 8, 52, 81
10, 545196, Note_on_c, 8, 52, 0
10, 545280, Note_on_c, 8, 52, 84
10, 545436, Note_on_c, 8, 52, 0
10, 545520, Note_on_c, 8, 52, 87
10, 545676, Note_on_c, 8, 52, 0
10, 545760, Note_on_c, 8, 52, 90
10, 545916, Note_on_c, 8, 52, 0
10, 546000, Note_on_c, 8, 52, 93
10, 546156, Note_on_c, 8, 52, 0
10, 546240, Note_on_c, 8, 52, 96
10, 546396, Note_on_c, 8, 52, 0
10, 546480, Note_on_c, 8, 52, 99
10, 546636, Note_on_c, 8, 52, 0
10, 546720, Note_on_c, 8, 52, 99
10, 546876, Note_on_c, 8, 52, 0
10, 546960, Note_on_c, 8, 52, 99
10, 547116, Note_on_c, 8, 52, 0
10, 547200, Note_on_c, 8, 45, 103
10, 547392, Note_on_c, 8, 45, 0
10, 547680, Note_on_c, 8, 57, 71
10, 547872, Note_on_c, 8, 57, 0
10, 548160, Note_on_c, 8, 45, 71
10, 548352, Note_on_c, 8, 45, 0
10, 548640, Note_on_c, 8, 57, 71
10, 548832, Note_on_c, 8, 57, 0
10, 549120, Note_on_c, 8, 45, 71
10, 549312, Note_on_c, 8, 45, 0
10, 549600, Note_on_c, 8, 57, 71
10, 549792, Note_on_c, 8, 57, 0
10, 550080, Note_on_c, 8, 45, 71
10, 550272, Note_on_c, 8, 45, 0
10, 550560, Note_on_c, 8, 57, 71
10, 550752, Note_on_c, 8, 57, 0
10, 551040, Note_on_c, 8, 45, 71
10, 551232, Note_on_c, 8, 45, 0
10, 551520, Note_on_c, 8, 57, 71
10, 551712, Note_on_c, 8, 57, 0
10, 552000, Note_on_c, 8, 45, 71
10, 552192, Note_on_c, 8, 45, 0
10, 552480, Note_on_c, 8, 57, 71
10, 552672, Note_on_c, 8, 57, 0
10, 552960, Note_on_c, 8, 45, 70
10, 553152, Note_on_c, 8, 45, 0
10, 553440, Note_on_c, 8, 57, 74
10, 553632, Note_on_c, 8, 57, 0
10, 553920, Note_on_c, 8, 45, 79
10, 554112, Note_on_c, 8, 45, 0
10, 554400, Note_on_c, 8, 57, 83
10, 554592, Note_on_c, 8, 57, 0
10, 554880, Note_on_c, 8, 45, 88
10, 555072, Note_on_c, 8, 45, 0
10, 555120, Note_on_c, 8, 45, 90
10, 555312, Note_on_c, 8, 45, 0
10, 555360, Note_on_c, 8, 45, 93
10, 555552, Note_on_c, 8, 45, 0
10, 555600, Note_on_c, 8, 45, 95
10, 555792, Note_on_c, 8, 45, 0
10, 555840, Note_on_c, 8, 45, 97
10, 556032, Note_on_c, 8, 45, 0
10, 556080, Note_on_c, 8, 45, 100
10, 556272, Note_on_c, 8, 45, 0
10, 556320, Note_on_c, 8, 45, 102
10, 556512, Note_on_c, 8, 45, 0
10, 556560, Note_on_c, 8, 45, 104
10, 556752, Note_on_c, 8, 45, 0
10, 556800, Note_on_c, 8, 45, 105
10, 556956, Note_on_c, 8, 45, 0
10, 557040, Note_on_c, 8, 45, 105
10, 557196, Note_on_c, 8, 45, 0
10, 557280, Note_on_c, 8, 49, 105
10, 557436, Note_on_c, 8, 49, 0
10, 557520, Note_on_c, 8, 49, 105
10, 557676, Note_on_c, 8, 49, 0
10, 557760, Note_on_c, 8, 50, 105
10, 557916, Note_on_c, 8, 50, 0
10, 558000, Note_on_c, 8, 54, 105
10, 558156, Note_on_c, 8, 54, 0
10, 558240, Note_on_c, 8, 56, 105
10, 558396, Note_on_c, 8, 56, 0
10, 558480, Note_on_c, 8, 52, 105
10, 558636, Note_on_c, 8, 52, 0
10, 558720, Note_on_c, 8, 57, 105
10, 558876, Note_on_c, 8, 57, 0
10, 558960, Note_on_c, 8, 64, 105
10, 559038, Note_on_c, 8, 64, 0
10, 559080, Note_on_c, 8, 61, 105
10, 559158, Note_on_c, 8, 61, 0
10, 559200, Note_on_c, 8, 57, 105
10, 559356, Note_on_c, 8, 57, 0
10, 559440, Note_on_c, 8, 61, 105
10, 559518, Note_on_c, 8, 61, 0
10, 559560, Note_on_c, 8, 57, 105
10, 559638, Note_on_c, 8, 57, 0
10, 559680, Note_on_c, 8, 54, 105
10, 559836, Note_on_c, 8, 54, 0
10, 559920, Note_on_c, 8, 57, 105
10, 559998, Note_on_c, 8, 57, 0
10, 560040, Note_on_c, 8, 54, 105
10, 560118, Note_on_c, 8, 54, 0
10, 560160, Note_on_c, 8, 51, 105
10, 560316, Note_on_c, 8, 51, 0
10, 560400, Note_on_c, 8, 54, 105
10, 560478, Note_on_c, 8, 54, 0
10, 560520, Note_on_c, 8, 51, 105
10, 560598, Note_on_c, 8, 51, 0
10, 560640, Note_on_c, 8, 52, 105
10, 561792, Note_on_c, 8, 52, 0
10, 638880, Note_on_c, 8, 45, 105
10, 639264, Note_on_c, 8, 45, 0
10, 640320, Note_on_c, 8, 52, 105
10, 640464, Note_on_c, 8, 52, 0
10, 640560, Note_on_c, 8, 52, 105
10, 640704, Note_on_c, 8, 52, 0
10, 640800, Note_on_c, 8, 54, 105
10, 640944, Note_on_c, 8, 54, 0
10, 641040, Note_on_c, 8, 54, 105
10, 641184, Note_on_c, 8, 54, 0
10, 641280, Note_on_c, 8, 50, 105
10, 641424, Note_on_c, 8, 50, 0
10, 641520, Note_on_c, 8, 50, 105
10, 641664, Note_on_c, 8, 50, 0
10, 641760, Note_on_c, 8, 52, 105
10, 641904, Note_on_c, 8, 52, 0
10, 642000, Note_on_c, 8, 52, 105
10, 642144, Note_on_c, 8, 52, 0
10, 642240, Note_on_c, 8, 52, 105
10, 642384, Note_on_c, 8, 52, 0
10, 642480, Note_on_c, 8, 52, 105
10, 642624, Note_on_c, 8, 52, 0
10, 642720, Note_on_c, 8, 45, 105
10, 643104, Note_on_c, 8, 45, 0
10, 644160, Note_on_c, 8, 52, 105
10, 644304, Note_on_c, 8, 52, 0
10, 644400, Note_on_c, 8, 52, 105
10, 644544, Note_on_c, 8, 52, 0
10, 644640, Note_on_c, 8, 54, 105
10, 644784, Note_on_c, 8, 54, 0
10, 644880, Note_on_c, 8, 54, 105
10, 645024, Note_on_c, 8, 54, 0
10, 645120, Note_on_c, 8, 50, 105
10, 645264, Note_on_c, 8, 50, 0
10, 645360, Note_on_c, 8, 50, 105
10, 645504, Note_on_c, 8, 50, 0
10, 645600, Note_on_c, 8, 52, 105
10, 645744, Note_on_c, 8, 52, 0
10, 645840, Note_on_c, 8, 52, 105
10, 645984, Note_on_c, 8, 52, 0
10, 646080, Note_on_c, 8, 52, 105
10, 646224, Note_on_c, 8, 52, 0
10, 646320, Note_on_c, 8, 52, 105
10, 646464, Note_on_c, 8, 52, 0
10, 646560, Note_on_c, 8, 45, 105
10, 646944, Note_on_c, 8, 45, 0
10, 648000, Note_on_c, 8, 61, 105
10, 648120, Note_on_c, 8, 61, 0
10, 648120, Note_on_c, 8, 57, 105
10, 648198, Note_on_c, 8, 57, 0
10, 648240, Note_on_c, 8, 61, 105
10, 648318, Note_on_c, 8, 61, 0
10, 648360, Note_on_c, 8, 57, 105
10, 648438, Note_on_c, 8, 57, 0
10, 648480, Note_on_c, 8, 52, 105
10, 648864, Note_on_c, 8, 52, 0
10, 648960, Note_on_c, 8, 57, 105
10, 649080, Note_on_c, 8, 57, 0
10, 649080, Note_on_c, 8, 52, 105
10, 649158, Note_on_c, 8, 52, 0
10, 649200, Note_on_c, 8, 57, 105
10, 649278, Note_on_c, 8, 57, 0
10, 649320, Note_on_c, 8, 52, 105
10, 649398, Note_on_c, 8, 52, 0
10, 649440, Note_on_c, 8, 49, 105
10, 649824, Note_on_c, 8, 49, 0
10, 649920, Note_on_c, 8, 52, 105
10, 650040, Note_on_c, 8, 52, 0
10, 650040, Note_on_c, 8, 49, 105
10, 650118, Note_on_c, 8, 49, 0
10, 650160, Note_on_c, 8, 52, 105
10, 650238, Note_on_c, 8, 52, 0
10, 650280, Note_on_c, 8, 49, 105
10, 650358, Note_on_c, 8, 49, 0
10, 650400, Note_on_c, 8, 45, 105
10, 651084, Note_on_c, 8, 45, 0
10, 651120, Note_on_c, 8, 49, 105
10, 651198, Note_on_c, 8, 49, 0
10, 651240, Note_on_c, 8, 52, 105
10, 651318, Note_on_c, 8, 52, 0
10, 651360, Note_on_c, 8, 57, 105
10, 651672, Note_on_c, 8, 57, 0
10, 651840, Note_on_c, 8, 57, 105
10, 652152, Note_on_c, 8, 57, 0
10, 652320, Note_on_c, 8, 45, 105
10, 652704, Note_on_c, 8, 45, 0
10, 652704, End_track
11, 0, Start_track
11, 0, Sequencer_specific, 04, 43, 00, 01, 00
11, 0, Program_c, 10, 43
11, 0, Control_c, 10, 7, 81
11, 0, Control_c, 10, 91, 100
11, 0, Control_c, 10, 10, 96
11, 1920, Note_on_c, 10, 45, 71
11, 2304, Note_on_c, 10, 45, 0
11, 2400, Note_on_c, 10, 45, 71
11, 2784, Note_on_c, 10, 45, 0
11, 2880, Note_on_c, 10, 45, 71
11, 3264, Note_on_c, 10, 45, 0
11, 3360, Note_on_c, 10, 45, 71
11, 3744, Note_on_c, 10, 45, 0
11, 3840, Note_on_c, 10, 45, 71
11, 4224, Note_on_c, 10, 45, 0
11, 4320, Note_on_c, 10, 45, 71
11, 4704, Note_on_c, 10, 45, 0
11, 4800, Note_on_c, 10, 45, 71
11, 5184, Note_on_c, 10, 45, 0
11, 5280, Note_on_c, 10, 45, 71
11, 5664, Note_on_c, 10, 45, 0
11, 5760, Note_on_c, 10, 45, 71
11, 6144, Note_on_c, 10, 45, 0
11, 6240, Note_on_c, 10, 45, 71
11, 6624, Note_on_c, 10, 45, 0
11, 6720, Note_on_c, 10, 45, 71
11, 7104, Note_on_c, 10, 45, 0
11, 7200, Note_on_c, 10, 45, 71
11, 7584, Note_on_c, 10, 45, 0
11, 7680, Note_on_c, 10, 45, 71
11, 8064, Note_on_c, 10, 45, 0
11, 8160, Note_on_c, 10, 45, 71
11, 8544, Note_on_c, 10, 45, 0
11, 8640, Note_on_c, 10, 45, 71
11, 9024, Note_on_c, 10, 45, 0
11, 9120, Note_on_c, 10, 45, 71
11, 9504, Note_on_c, 10, 45, 0
11, 10560, Note_on_c, 10, 49, 71
11, 11520, Note_on_c, 10, 49, 0
11, 11520, Note_on_c, 10, 50, 71
11, 12480, Note_on_c, 10, 50, 0
11, 12480, Note_on_c, 10, 45, 71
11, 13440, Note_on_c, 10, 45, 0
11, 13440, Note_on_c, 10, 44, 71
11, 14400, Note_on_c, 10, 44, 0
11, 14400, Note_on_c, 10, 45, 71
11, 15360, Note_on_c, 10, 45, 0
11, 15360, Note_on_c, 10, 40, 71
11, 16128, Note_on_c, 10, 40, 0
11, 17280, Note_on_c, 10, 45, 71
11, 17664, Note_on_c, 10, 45, 0
11, 17760, Note_on_c, 10, 45, 71
11, 18144, Note_on_c, 10, 45, 0
11, 18240, Note_on_c, 10, 45, 71
11, 18624, Note_on_c, 10, 45, 0
11, 18720, Note_on_c, 10, 45, 71
11, 19104, Note_on_c, 10, 45, 0
11, 19200, Note_on_c, 10, 45, 71
11, 19584, Note_on_c, 10, 45, 0
11, 19680, Note_on_c, 10, 45, 71
11, 20064, Note_on_c, 10, 45, 0
11, 20160, Note_on_c, 10, 45, 71
11, 20544, Note_on_c, 10, 45, 0
11, 20640, Note_on_c, 10, 45, 71
11, 21024, Note_on_c, 10, 45, 0
11, 21120, Note_on_c, 10, 45, 71
11, 21504, Note_on_c, 10, 45, 0
11, 21600, Note_on_c, 10, 45, 71
11, 21984, Note_on_c, 10, 45, 0
11, 22080, Note_on_c, 10, 45, 71
11, 22464, Note_on_c, 10, 45, 0
11, 22560, Note_on_c, 10, 45, 71
11, 22944, Note_on_c, 10, 45, 0
11, 23040, Note_on_c, 10, 45, 71
11, 23424, Note_on_c, 10, 45, 0
11, 23520, Note_on_c, 10, 45, 71
11, 23904, Note_on_c, 10, 45, 0
11, 24000, Note_on_c, 10, 45, 71
11, 24384, Note_on_c, 10, 45, 0
11, 24480, Note_on_c, 10, 45, 71
11, 24864, Note_on_c, 10, 45, 0
11, 28800, Note_on_c, 10, 42, 71
11, 29040, Note_on_c, 10, 42, 0
11, 29040, Note_on_c, 10, 41, 71
11, 29280, Note_on_c, 10, 41, 0
11, 29280, Note_on_c, 10, 44, 71
11, 29520, Note_on_c, 10, 44, 0
11, 29520, Note_on_c, 10, 42, 71
11, 29760, Note_on_c, 10, 42, 0
11, 29760, Note_on_c, 10, 45, 71
11, 30000, Note_on_c, 10, 45, 0
11, 30000, Note_on_c, 10, 44, 71
11, 30240, Note_on_c, 10, 44, 0
11, 30240, Note_on_c, 10, 42, 71
11, 30480, Note_on_c, 10, 42, 0
11, 30480, Note_on_c, 10, 40, 71
11, 30708, Note_on_c, 10, 40, 0
11, 30720, Note_on_c, 10, 42, 71
11, 31032, Note_on_c, 10, 42, 0
11, 31200, Note_on_c, 10, 35, 71
11, 31512, Note_on_c, 10, 35, 0
11, 31680, Note_on_c, 10, 40, 71
11, 31992, Note_on_c, 10, 40, 0
11, 32160, Note_on_c, 10, 40, 71
11, 32472, Note_on_c, 10, 40, 0
11, 32640, Note_on_c, 10, 45, 105
11, 32796, Note_on_c, 10, 45, 0
11, 32880, Note_on_c, 10, 40, 105
11, 33036, Note_on_c, 10, 40, 0
11, 33120, Note_on_c, 10, 45, 105
11, 33276, Note_on_c, 10, 45, 0
11, 33360, Note_on_c, 10, 40, 105
11, 33516, Note_on_c, 10, 40, 0
11, 33600, Note_on_c, 10, 45, 105
11, 33756, Note_on_c, 10, 45, 0
11, 33840, Note_on_c, 10, 40, 105
11, 33996, Note_on_c, 10, 40, 0
11, 34080, Note_on_c, 10, 45, 105
11, 34236, Note_on_c, 10, 45, 0
11, 34320, Note_on_c, 10, 40, 105
11, 34476, Note_on_c, 10, 40, 0
11, 34560, Note_on_c, 10, 45, 105
11, 34716, Note_on_c, 10, 45, 0
11, 34800, Note_on_c, 10, 40, 105
11, 34956, Note_on_c, 10, 40, 0
11, 35040, Note_on_c, 10, 45, 105
11, 35196, Note_on_c, 10, 45, 0
11, 35280, Note_on_c, 10, 40, 105
11, 35436, Note_on_c, 10, 40, 0
11, 35520, Note_on_c, 10, 45, 105
11, 35676, Note_on_c, 10, 45, 0
11, 35760, Note_on_c, 10, 40, 105
11, 35916, Note_on_c, 10, 40, 0
11, 36000, Note_on_c, 10, 45, 105
11, 36156, Note_on_c, 10, 45, 0
11, 36240, Note_on_c, 10, 40, 105
11, 36396, Note_on_c, 10, 40, 0
11, 36480, Note_on_c, 10, 44, 105
11, 36636, Note_on_c, 10, 44, 0
11, 36720, Note_on_c, 10, 40, 105
11, 36876, Note_on_c, 10, 40, 0
11, 36960, Note_on_c, 10, 44, 105
11, 37116, Note_on_c, 10, 44, 0
11, 37200, Note_on_c, 10, 40, 105
11, 37356, Note_on_c, 10, 40, 0
11, 37440, Note_on_c, 10, 44, 105
11, 37596, Note_on_c, 10, 44, 0
11, 37680, Note_on_c, 10, 40, 105
11, 37836, Note_on_c, 10, 40, 0
11, 37920, Note_on_c, 10, 44, 62
11, 38076, Note_on_c, 10, 44, 0
11, 38160, Note_on_c, 10, 40, 62
11, 38316, Note_on_c, 10, 40, 0
11, 38400, Note_on_c, 10, 47, 62
11, 38556, Note_on_c, 10, 47, 0
11, 38640, Note_on_c, 10, 40, 62
11, 38796, Note_on_c, 10, 40, 0
11, 38880, Note_on_c, 10, 47, 62
11, 39036, Note_on_c, 10, 47, 0
11, 39120, Note_on_c, 10, 40, 62
11, 39276, Note_on_c, 10, 40, 0
11, 39360, Note_on_c, 10, 44, 62
11, 39516, Note_on_c, 10, 44, 0
11, 39600, Note_on_c, 10, 40, 62
11, 39756, Note_on_c, 10, 40, 0
11, 39840, Note_on_c, 10, 44, 62
11, 39996, Note_on_c, 10, 44, 0
11, 40080, Note_on_c, 10, 40, 62
11, 40236, Note_on_c, 10, 40, 0
11, 40320, Note_on_c, 10, 45, 105
11, 40476, Note_on_c, 10, 45, 0
11, 40560, Note_on_c, 10, 40, 105
11, 40716, Note_on_c, 10, 40, 0
11, 40800, Note_on_c, 10, 45, 105
11, 40956, Note_on_c, 10, 45, 0
11, 41040, Note_on_c, 10, 40, 105
11, 41196, Note_on_c, 10, 40, 0
11, 41280, Note_on_c, 10, 45, 105
11, 41436, Note_on_c, 10, 45, 0
11, 41520, Note_on_c, 10, 40, 105
11, 41676, Note_on_c, 10, 40, 0
11, 41760, Note_on_c, 10, 45, 105
11, 41916, Note_on_c, 10, 45, 0
11, 42000, Note_on_c, 10, 40, 105
11, 42156, Note_on_c, 10, 40, 0
11, 42240, Note_on_c, 10, 45, 105
11, 42396, Note_on_c, 10, 45, 0
11, 42480, Note_on_c, 10, 40, 105
11, 42636, Note_on_c, 10, 40, 0
11, 42720, Note_on_c, 10, 45, 105
11, 42876, Note_on_c, 10, 45, 0
11, 42960, Note_on_c, 10, 40, 105
11, 43116, Note_on_c, 10, 40, 0
11, 43200, Note_on_c, 10, 45, 105
11, 43356, Note_on_c, 10, 45, 0
11, 43440, Note_on_c, 10, 40, 105
11, 43596, Note_on_c, 10, 40, 0
11, 43680, Note_on_c, 10, 45, 105
11, 43836, Note_on_c, 10, 45, 0
11, 43920, Note_on_c, 10, 40, 105
11, 44076, Note_on_c, 10, 40, 0
11, 44160, Note_on_c, 10, 44, 105
11, 44316, Note_on_c, 10, 44, 0
11, 44400, Note_on_c, 10, 40, 105
11, 44556, Note_on_c, 10, 40, 0
11, 44640, Note_on_c, 10, 44, 105
11, 44796, Note_on_c, 10, 44, 0
11, 44880, Note_on_c, 10, 40, 105
11, 45036, Note_on_c, 10, 40, 0
11, 45120, Note_on_c, 10, 44, 105
11, 45276, Note_on_c, 10, 44, 0
11, 45360, Note_on_c, 10, 40, 62
11, 45516, Note_on_c, 10, 40, 0
11, 45600, Note_on_c, 10, 44, 62
11, 45756, Note_on_c, 10, 44, 0
11, 45840, Note_on_c, 10, 40, 62
11, 45996, Note_on_c, 10, 40, 0
11, 46080, Note_on_c, 10, 47, 62
11, 46236, Note_on_c, 10, 47, 0
11, 46320, Note_on_c, 10, 40, 62
11, 46476, Note_on_c, 10, 40, 0
11, 46560, Note_on_c, 10, 47, 62
11, 46716, Note_on_c, 10, 47, 0
11, 46800, Note_on_c, 10, 40, 62
11, 46956, Note_on_c, 10, 40, 0
11, 47040, Note_on_c, 10, 44, 62
11, 47196, Note_on_c, 10, 44, 0
11, 47280, Note_on_c, 10, 40, 62
11, 47436, Note_on_c, 10, 40, 0
11, 47520, Note_on_c, 10, 44, 62
11, 47676, Note_on_c, 10, 44, 0
11, 47760, Note_on_c, 10, 40, 62
11, 47916, Note_on_c, 10, 40, 0
11, 48000, Note_on_c, 10, 45, 105
11, 48312, Note_on_c, 10, 45, 0
11, 48480, Note_on_c, 10, 45, 125
11, 48960, Note_on_c, 10, 45, 0
11, 48960, Note_on_c, 10, 44, 105
11, 49272, Note_on_c, 10, 44, 0
11, 49440, Note_on_c, 10, 44, 125
11, 49920, Note_on_c, 10, 44, 0
11, 49920, Note_on_c, 10, 42, 105
11, 50232, Note_on_c, 10, 42, 0
11, 50400, Note_on_c, 10, 42, 125
11, 50880, Note_on_c, 10, 42, 0
11, 50880, Note_on_c, 10, 40, 105
11, 51192, Note_on_c, 10, 40, 0
11, 51360, Note_on_c, 10, 40, 125
11, 51840, Note_on_c, 10, 40, 0
11, 51840, Note_on_c, 10, 38, 71
11, 52800, Note_on_c, 10, 38, 0
11, 52800, Note_on_c, 10, 40, 71
11, 53712, Note_on_c, 10, 40, 0
11, 53760, Note_on_c, 10, 42, 71
11, 54240, Note_on_c, 10, 42, 0
11, 54240, Note_on_c, 10, 44, 71
11, 54720, Note_on_c, 10, 44, 0
11, 54720, Note_on_c, 10, 45, 71
11, 55200, Note_on_c, 10, 45, 0
11, 55200, Note_on_c, 10, 38, 71
11, 55680, Note_on_c, 10, 38, 0
11, 55680, Note_on_c, 10, 40, 62
11, 56064, Note_on_c, 10, 40, 0
11, 58080, Note_on_c, 10, 45, 105
11, 58200, Note_on_c, 10, 45, 0
11, 58200, Note_on_c, 10, 44, 105
11, 58296, Note_on_c, 10, 44, 0
11, 58320, Note_on_c, 10, 42, 105
11, 58416, Note_on_c, 10, 42, 0
11, 58440, Note_on_c, 10, 40, 105
11, 58536, Note_on_c, 10, 40, 0
11, 58560, Note_on_c, 10, 45, 105
11, 58944, Note_on_c, 10, 45, 0
11, 59040, Note_on_c, 10, 38, 105
11, 59160, Note_on_c, 10, 38, 0
11, 59160, Note_on_c, 10, 37, 105
11, 59256, Note_on_c, 10, 37, 0
11, 59280, Note_on_c, 10, 35, 105
11, 59376, Note_on_c, 10, 35, 0
11, 59400, Note_on_c, 10, 33, 105
11, 59496, Note_on_c, 10, 33, 0
11, 59520, Note_on_c, 10, 40, 105
11, 60204, Note_on_c, 10, 40, 0
11, 60240, Note_on_c, 10, 44, 105
11, 60336, Note_on_c, 10, 44, 0
11, 60360, Note_on_c, 10, 47, 105
11, 60456, Note_on_c, 10, 47, 0
11, 60480, Note_on_c, 10, 52, 105
11, 60792, Note_on_c, 10, 52, 0
11, 60960, Note_on_c, 10, 52, 105
11, 61272, Note_on_c, 10, 52, 0
11, 61440, Note_on_c, 10, 40, 105
11, 61824, Note_on_c, 10, 40, 0
11, 78720, Note_on_c, 10, 33, 71
11, 78912, Note_on_c, 10, 33, 0
11, 79200, Note_on_c, 10, 45, 71
11, 79392, Note_on_c, 10, 45, 0
11, 79680, Note_on_c, 10, 33, 71
11, 79872, Note_on_c, 10, 33, 0
11, 80160, Note_on_c, 10, 45, 71
11, 80352, Note_on_c, 10, 45, 0
11, 80640, Note_on_c, 10, 33, 71
11, 80832, Note_on_c, 10, 33, 0
11, 81120, Note_on_c, 10, 45, 71
11, 81312, Note_on_c, 10, 45, 0
11, 81600, Note_on_c, 10, 33, 71
11, 81792, Note_on_c, 10, 33, 0
11, 82080, Note_on_c, 10, 45, 71
11, 82272, Note_on_c, 10, 45, 0
11, 82560, Note_on_c, 10, 33, 71
11, 82752, Note_on_c, 10, 33, 0
11, 83040, Note_on_c, 10, 45, 71
11, 83232, Note_on_c, 10, 45, 0
11, 83520, Note_on_c, 10, 33, 71
11, 83712, Note_on_c, 10, 33, 0
11, 84000, Note_on_c, 10, 45, 71
11, 84192, Note_on_c, 10, 45, 0
11, 84480, Note_on_c, 10, 33, 71
11, 84672, Note_on_c, 10, 33, 0
11, 84960, Note_on_c, 10, 45, 71
11, 85152, Note_on_c, 10, 45, 0
11, 85440, Note_on_c, 10, 33, 71
11, 85632, Note_on_c, 10, 33, 0
11, 85920, Note_on_c, 10, 45, 71
11, 86112, Note_on_c, 10, 45, 0
11, 86400, Note_on_c, 10, 33, 71
11, 86592, Note_on_c, 10, 33, 0
11, 86880, Note_on_c, 10, 45, 71
11, 87072, Note_on_c, 10, 45, 0
11, 87360, Note_on_c, 10, 33, 71
11, 87552, Note_on_c, 10, 33, 0
11, 87840, Note_on_c, 10, 45, 71
11, 88032, Note_on_c, 10, 45, 0
11, 88320, Note_on_c, 10, 33, 70
11, 88512, Note_on_c, 10, 33, 0
11, 88800, Note_on_c, 10, 45, 73
11, 88992, Note_on_c, 10, 45, 0
11, 89280, Note_on_c, 10, 33, 76
11, 89472, Note_on_c, 10, 33, 0
11, 89760, Note_on_c, 10, 45, 80
11, 89952, Note_on_c, 10, 45, 0
11, 90240, Note_on_c, 10, 33, 80
11, 90396, Note_on_c, 10, 33, 0
11, 90480, Note_on_c, 10, 33, 83
11, 90636, Note_on_c, 10, 33, 0
11, 90720, Note_on_c, 10, 33, 86
11, 90876, Note_on_c, 10, 33, 0
11, 90960, Note_on_c, 10, 33, 90
11, 91116, Note_on_c, 10, 33, 0
11, 91200, Note_on_c, 10, 33, 93
11, 91356, Note_on_c, 10, 33, 0
11, 91440, Note_on_c, 10, 33, 97
11, 91596, Note_on_c, 10, 33, 0
11, 91680, Note_on_c, 10, 33, 100
11, 91836, Note_on_c, 10, 33, 0
11, 91920, Note_on_c, 10, 33, 104
11, 92076, Note_on_c, 10, 33, 0
11, 92160, Note_on_c, 10, 33, 105
11, 92316, Note_on_c, 10, 33, 0
11, 92400, Note_on_c, 10, 33, 105
11, 92556, Note_on_c, 10, 33, 0
11, 92640, Note_on_c, 10, 37, 105
11, 92796, Note_on_c, 10, 37, 0
11, 92880, Note_on_c, 10, 37, 105
11, 93036, Note_on_c, 10, 37, 0
11, 93120, Note_on_c, 10, 38, 105
11, 93276, Note_on_c, 10, 38, 0
11, 93360, Note_on_c, 10, 38, 105
11, 93516, Note_on_c, 10, 38, 0
11, 93600, Note_on_c, 10, 42, 105
11, 93756, Note_on_c, 10, 42, 0
11, 93840, Note_on_c, 10, 42, 105
11, 93996, Note_on_c, 10, 42, 0
11, 94080, Note_on_c, 10, 40, 105
11, 94236, Note_on_c, 10, 40, 0
11, 94320, Note_on_c, 10, 52, 105
11, 94476, Note_on_c, 10, 52, 0
11, 94560, Note_on_c, 10, 49, 105
11, 94716, Note_on_c, 10, 49, 0
11, 94800, Note_on_c, 10, 45, 105
11, 94956, Note_on_c, 10, 45, 0
11, 95040, Note_on_c, 10, 40, 105
11, 95352, Note_on_c, 10, 40, 0
11, 95520, Note_on_c, 10, 40, 105
11, 95832, Note_on_c, 10, 40, 0
11, 96000, Note_on_c, 10, 33, 105
11, 96384, Note_on_c, 10, 33, 0
11, 98400, Note_on_c, 10, 45, 71
11, 98880, Note_on_c, 10, 45, 0
11, 98880, Note_on_c, 10, 44, 71
11, 99168, Note_on_c, 10, 44, 0
11, 99360, Note_on_c, 10, 40, 71
11, 99648, Note_on_c, 10, 40, 0
11, 99840, Note_on_c, 10, 45, 71
11, 100128, Note_on_c, 10, 45, 0
11, 100320, Note_on_c, 10, 43, 71
11, 100800, Note_on_c, 10, 43, 0
11, 100800, Note_on_c, 10, 42, 71
11, 101088, Note_on_c, 10, 42, 0
11, 101280, Note_on_c, 10, 38, 71
11, 101568, Note_on_c, 10, 38, 0
11, 101760, Note_on_c, 10, 37, 71
11, 102072, Note_on_c, 10, 37, 0
11, 102240, Note_on_c, 10, 33, 71
11, 102552, Note_on_c, 10, 33, 0
11, 102720, Note_on_c, 10, 38, 71
11, 103032, Note_on_c, 10, 38, 0
11, 103200, Note_on_c, 10, 42, 71
11, 103512, Note_on_c, 10, 42, 0
11, 103680, Note_on_c, 10, 40, 71
11, 104448, Note_on_c, 10, 40, 0
11, 106080, Note_on_c, 10, 45, 71
11, 106560, Note_on_c, 10, 45, 0
11, 106560, Note_on_c, 10, 44, 71
11, 106872, Note_on_c, 10, 44, 0
11, 107040, Note_on_c, 10, 40, 71
11, 107352, Note_on_c, 10, 40, 0
11, 107520, Note_on_c, 10, 45, 71
11, 107832, Note_on_c, 10, 45, 0
11, 108000, Note_on_c, 10, 43, 71
11, 108480, Note_on_c, 10, 43, 0
11, 108480, Note_on_c, 10, 42, 71
11, 108792, Note_on_c, 10, 42, 0
11, 108960, Note_on_c, 10, 38, 71
11, 109272, Note_on_c, 10, 38, 0
11, 109440, Note_on_c, 10, 40, 71
11, 109752, Note_on_c, 10, 40, 0
11, 109920, Note_on_c, 10, 40, 71
11, 110232, Note_on_c, 10, 40, 0
11, 110400, Note_on_c, 10, 40, 71
11, 110712, Note_on_c, 10, 40, 0
11, 110880, Note_on_c, 10, 40, 71
11, 111192, Note_on_c, 10, 40, 0
11, 111360, Note_on_c, 10, 33, 105
11, 111744, Note_on_c, 10, 33, 0
11, 112800, Note_on_c, 10, 40, 105
11, 112944, Note_on_c, 10, 40, 0
11, 113040, Note_on_c, 10, 40, 105
11, 113184, Note_on_c, 10, 40, 0
11, 113280, Note_on_c, 10, 42, 105
11, 113424, Note_on_c, 10, 42, 0
11, 113520, Note_on_c, 10, 42, 105
11, 113664, Note_on_c, 10, 42, 0
11, 113760, Note_on_c, 10, 38, 105
11, 113904, Note_on_c, 10, 38, 0
11, 114000, Note_on_c, 10, 38, 105
11, 114144, Note_on_c, 10, 38, 0
11, 114240, Note_on_c, 10, 40, 105
11, 114384, Note_on_c, 10, 40, 0
11, 114480, Note_on_c, 10, 40, 105
11, 114624, Note_on_c, 10, 40, 0
11, 114720, Note_on_c, 10, 40, 105
11, 114864, Note_on_c, 10, 40, 0
11, 114960, Note_on_c, 10, 40, 105
11, 115104, Note_on_c, 10, 40, 0
11, 115200, Note_on_c, 10, 33, 105
11, 115584, Note_on_c, 10, 33, 0
11, 116640, Note_on_c, 10, 40, 105
11, 116784, Note_on_c, 10, 40, 0
11, 116880, Note_on_c, 10, 40, 105
11, 117024, Note_on_c, 10, 40, 0
11, 117120, Note_on_c, 10, 42, 105
11, 117264, Note_on_c, 10, 42, 0
11, 117360, Note_on_c, 10, 42, 105
11, 117504, Note_on_c, 10, 42, 0
11, 117600, Note_on_c, 10, 38, 105
11, 117744, Note_on_c, 10, 38, 0
11, 117840, Note_on_c, 10, 38, 105
11, 117984, Note_on_c, 10, 38, 0
11, 118080, Note_on_c, 10, 40, 105
11, 118224, Note_on_c, 10, 40, 0
11, 118320, Note_on_c, 10, 40, 105
11, 118464, Note_on_c, 10, 40, 0
11, 118560, Note_on_c, 10, 40, 105
11, 118704, Note_on_c, 10, 40, 0
11, 118800, Note_on_c, 10, 40, 105
11, 118944, Note_on_c, 10, 40, 0
11, 119040, Note_on_c, 10, 33, 105
11, 119424, Note_on_c, 10, 33, 0
11, 120480, Note_on_c, 10, 52, 105
11, 120600, Note_on_c, 10, 52, 0
11, 120600, Note_on_c, 10, 49, 105
11, 120678, Note_on_c, 10, 49, 0
11, 120720, Note_on_c, 10, 52, 105
11, 120798, Note_on_c, 10, 52, 0
11, 120840, Note_on_c, 10, 49, 105
11, 120918, Note_on_c, 10, 49, 0
11, 120960, Note_on_c, 10, 45, 105
11, 121344, Note_on_c, 10, 45, 0
11, 121440, Note_on_c, 10, 33, 105
11, 121728, Note_on_c, 10, 33, 0
11, 121800, Note_on_c, 10, 33, 105
11, 121896, Note_on_c, 10, 33, 0
11, 121920, Note_on_c, 10, 33, 105
11, 122304, Note_on_c, 10, 33, 0
11, 138240, Note_on_c, 10, 45, 62
11, 145920, Note_on_c, 10, 45, 0
11, 158880, Note_on_c, 10, 40, 105
11, 159036, Note_on_c, 10, 40, 0
11, 159120, Note_on_c, 10, 40, 105
11, 159276, Note_on_c, 10, 40, 0
11, 159360, Note_on_c, 10, 42, 105
11, 159516, Note_on_c, 10, 42, 0
11, 159600, Note_on_c, 10, 42, 105
11, 159756, Note_on_c, 10, 42, 0
11, 159840, Note_on_c, 10, 38, 105
11, 159996, Note_on_c, 10, 38, 0
11, 160080, Note_on_c, 10, 38, 105
11, 160236, Note_on_c, 10, 38, 0
11, 160320, Note_on_c, 10, 40, 105
11, 160476, Note_on_c, 10, 40, 0
11, 160560, Note_on_c, 10, 40, 105
11, 160716, Note_on_c, 10, 40, 0
11, 160800, Note_on_c, 10, 40, 105
11, 160956, Note_on_c, 10, 40, 0
11, 161040, Note_on_c, 10, 40, 105
11, 161196, Note_on_c, 10, 40, 0
11, 161280, Note_on_c, 10, 33, 105
11, 161664, Note_on_c, 10, 33, 0
11, 162720, Note_on_c, 10, 52, 105
11, 162840, Note_on_c, 10, 52, 0
11, 162840, Note_on_c, 10, 49, 105
11, 162936, Note_on_c, 10, 49, 0
11, 162960, Note_on_c, 10, 52, 105
11, 163056, Note_on_c, 10, 52, 0
11, 163080, Note_on_c, 10, 49, 105
11, 163176, Note_on_c, 10, 49, 0
11, 163200, Note_on_c, 10, 45, 105
11, 163584, Note_on_c, 10, 45, 0
11, 163680, Note_on_c, 10, 33, 105
11, 163968, Note_on_c, 10, 33, 0
11, 164040, Note_on_c, 10, 33, 105
11, 164136, Note_on_c, 10, 33, 0
11, 164160, Note_on_c, 10, 33, 105
11, 164544, Note_on_c, 10, 33, 0
11, 174720, Note_on_c, 10, 47, 62
11, 179520, Note_on_c, 10, 47, 0
11, 179520, Note_on_c, 10, 48, 62
11, 180480, Note_on_c, 10, 48, 0
11, 180480, Note_on_c, 10, 49, 62
11, 180864, Note_on_c, 10, 49, 0
11, 181440, Note_on_c, 10, 47, 62
11, 181824, Note_on_c, 10, 47, 0
11, 182400, Note_on_c, 10, 45, 62
11, 182784, Note_on_c, 10, 45, 0
11, 183360, Note_on_c, 10, 44, 62
11, 183744, Note_on_c, 10, 44, 0
11, 186960, Note_on_c, 10, 47, 87
11, 187116, Note_on_c, 10, 47, 0
11, 187200, Note_on_c, 10, 42, 90
11, 187356, Note_on_c, 10, 42, 0
11, 187440, Note_on_c, 10, 47, 87
11, 187596, Note_on_c, 10, 47, 0
11, 187680, Note_on_c, 10, 39, 87
11, 187836, Note_on_c, 10, 39, 0
11, 187920, Note_on_c, 10, 42, 87
11, 188076, Note_on_c, 10, 42, 0
11, 188160, Note_on_c, 10, 35, 71
11, 188544, Note_on_c, 10, 35, 0
11, 192000, Note_on_c, 10, 40, 62
11, 195840, Note_on_c, 10, 40, 0
11, 195840, Note_on_c, 10, 35, 62
11, 196224, Note_on_c, 10, 35, 0
11, 199680, Note_on_c, 10, 40, 62
11, 203520, Note_on_c, 10, 40, 0
11, 203520, Note_on_c, 10, 45, 62
11, 203904, Note_on_c, 10, 45, 0
11, 205440, Note_on_c, 10, 45, 62
11, 205824, Note_on_c, 10, 45, 0
11, 207360, Note_on_c, 10, 45, 62
11, 207744, Note_on_c, 10, 45, 0
11, 209280, Note_on_c, 10, 45, 62
11, 209664, Note_on_c, 10, 45, 0
11, 211200, Note_on_c, 10, 44, 62
11, 211584, Note_on_c, 10, 44, 0
11, 218400, Note_on_c, 10, 47, 62
11, 218880, Note_on_c, 10, 47, 0
11, 218880, Note_on_c, 10, 52, 62
11, 219072, Note_on_c, 10, 52, 0
11, 219360, Note_on_c, 10, 47, 62
11, 219552, Note_on_c, 10, 47, 0
11, 219840, Note_on_c, 10, 40, 62
11, 220224, Note_on_c, 10, 40, 0
11, 236160, Note_on_c, 10, 40, 62
11, 244224, Note_on_c, 10, 40, 0
11, 263040, Note_on_c, 10, 40, 58
11, 266880, Note_on_c, 10, 40, 0
11, 266880, Note_on_c, 10, 45, 58
11, 270720, Note_on_c, 10, 45, 0
11, 270720, Note_on_c, 10, 35, 90
11, 271488, Note_on_c, 10, 35, 0
11, 276480, Note_on_c, 10, 47, 60
11, 276672, Note_on_c, 10, 47, 0
11, 276720, Note_on_c, 10, 47, 65
11, 276912, Note_on_c, 10, 47, 0
11, 276960, Note_on_c, 10, 47, 70
11, 277152, Note_on_c, 10, 47, 0
11, 277200, Note_on_c, 10, 47, 75
11, 277392, Note_on_c, 10, 47, 0
11, 277440, Note_on_c, 10, 35, 81
11, 277632, Note_on_c, 10, 35, 0
11, 277680, Note_on_c, 10, 35, 86
11, 277872, Note_on_c, 10, 35, 0
11, 277920, Note_on_c, 10, 35, 91
11, 278112, Note_on_c, 10, 35, 0
11, 278160, Note_on_c, 10, 35, 96
11, 278352, Note_on_c, 10, 35, 0
11, 278400, Note_on_c, 10, 40, 105
11, 278784, Note_on_c, 10, 40, 0
11, 279840, Note_on_c, 10, 47, 105
11, 279984, Note_on_c, 10, 47, 0
11, 280080, Note_on_c, 10, 47, 105
11, 280224, Note_on_c, 10, 47, 0
11, 280320, Note_on_c, 10, 49, 105
11, 280464, Note_on_c, 10, 49, 0
11, 280560, Note_on_c, 10, 49, 105
11, 280704, Note_on_c, 10, 49, 0
11, 280800, Note_on_c, 10, 45, 105
11, 280944, Note_on_c, 10, 45, 0
11, 281040, Note_on_c, 10, 45, 105
11, 281184, Note_on_c, 10, 45, 0
11, 281280, Note_on_c, 10, 47, 105
11, 281424, Note_on_c, 10, 47, 0
11, 281520, Note_on_c, 10, 47, 105
11, 281664, Note_on_c, 10, 47, 0
11, 281760, Note_on_c, 10, 35, 105
11, 281904, Note_on_c, 10, 35, 0
11, 282000, Note_on_c, 10, 35, 105
11, 282144, Note_on_c, 10, 35, 0
11, 282240, Note_on_c, 10, 40, 105
11, 282624, Note_on_c, 10, 40, 0
11, 283680, Note_on_c, 10, 47, 105
11, 283824, Note_on_c, 10, 47, 0
11, 283920, Note_on_c, 10, 47, 105
11, 284064, Note_on_c, 10, 47, 0
11, 284160, Note_on_c, 10, 49, 105
11, 284304, Note_on_c, 10, 49, 0
11, 284400, Note_on_c, 10, 49, 105
11, 284544, Note_on_c, 10, 49, 0
11, 284640, Note_on_c, 10, 45, 105
11, 284784, Note_on_c, 10, 45, 0
11, 284880, Note_on_c, 10, 45, 105
11, 285024, Note_on_c, 10, 45, 0
11, 285120, Note_on_c, 10, 47, 105
11, 285264, Note_on_c, 10, 47, 0
11, 285360, Note_on_c, 10, 47, 105
11, 285504, Note_on_c, 10, 47, 0
11, 285600, Note_on_c, 10, 35, 105
11, 285744, Note_on_c, 10, 35, 0
11, 285840, Note_on_c, 10, 35, 105
11, 285984, Note_on_c, 10, 35, 0
11, 286080, Note_on_c, 10, 40, 105
11, 286464, Note_on_c, 10, 40, 0
11, 288480, Note_on_c, 10, 52, 105
11, 288600, Note_on_c, 10, 52, 0
11, 288600, Note_on_c, 10, 47, 105
11, 288672, Note_on_c, 10, 47, 0
11, 288720, Note_on_c, 10, 52, 105
11, 288792, Note_on_c, 10, 52, 0
11, 288840, Note_on_c, 10, 47, 105
11, 288912, Note_on_c, 10, 47, 0
11, 288960, Note_on_c, 10, 44, 105
11, 289344, Note_on_c, 10, 44, 0
11, 289440, Note_on_c, 10, 47, 105
11, 289560, Note_on_c, 10, 47, 0
11, 289560, Note_on_c, 10, 44, 105
11, 289632, Note_on_c, 10, 44, 0
11, 289680, Note_on_c, 10, 47, 105
11, 289752, Note_on_c, 10, 47, 0
11, 289800, Note_on_c, 10, 44, 105
11, 289872, Note_on_c, 10, 44, 0
11, 289920, Note_on_c, 10, 40, 105
11, 290496, Note_on_c, 10, 40, 0
11, 290640, Note_on_c, 10, 44, 105
11, 290736, Note_on_c, 10, 44, 0
11, 290760, Note_on_c, 10, 47, 105
11, 290856, Note_on_c, 10, 47, 0
11, 290880, Note_on_c, 10, 52, 105
11, 291240, Note_on_c, 10, 52, 0
11, 291360, Note_on_c, 10, 52, 105
11, 291720, Note_on_c, 10, 52, 0
11, 291840, Note_on_c, 10, 40, 105
11, 292224, Note_on_c, 10, 40, 0
11, 309600, Note_on_c, 10, 44, 62
11, 310080, Note_on_c, 10, 44, 0
11, 310080, Note_on_c, 10, 42, 62
11, 310320, Note_on_c, 10, 42, 0
11, 310560, Note_on_c, 10, 40, 62
11, 310800, Note_on_c, 10, 40, 0
11, 311040, Note_on_c, 10, 39, 62
11, 311424, Note_on_c, 10, 39, 0
11, 313440, Note_on_c, 10, 45, 62
11, 313920, Note_on_c, 10, 45, 0
11, 313920, Note_on_c, 10, 44, 62
11, 314160, Note_on_c, 10, 44, 0
11, 314400, Note_on_c, 10, 42, 62
11, 314640, Note_on_c, 10, 42, 0
11, 314880, Note_on_c, 10, 40, 62
11, 315264, Note_on_c, 10, 40, 0
11, 322560, Note_on_c, 10, 40, 62
11, 325632, Note_on_c, 10, 40, 0
11, 325680, Note_on_c, 10, 40, 82
11, 326064, Note_on_c, 10, 40, 0
11, 326160, Note_on_c, 10, 40, 82
11, 326316, Note_on_c, 10, 40, 0
11, 326400, Note_on_c, 10, 38, 62
11, 329472, Note_on_c, 10, 38, 0
11, 329520, Note_on_c, 10, 38, 82
11, 329904, Note_on_c, 10, 38, 0
11, 330000, Note_on_c, 10, 38, 82
11, 330156, Note_on_c, 10, 38, 0
11, 330240, Note_on_c, 10, 37, 62
11, 330624, Note_on_c, 10, 37, 0
11, 332160, Note_on_c, 10, 37, 62
11, 332544, Note_on_c, 10, 37, 0
11, 334080, Note_on_c, 10, 37, 62
11, 334464, Note_on_c, 10, 37, 0
11, 336000, Note_on_c, 10, 37, 62
11, 336384, Note_on_c, 10, 37, 0
11, 337920, Note_on_c, 10, 37, 62
11, 338304, Note_on_c, 10, 37, 0
11, 339840, Note_on_c, 10, 37, 62
11, 340224, Note_on_c, 10, 37, 0
11, 341760, Note_on_c, 10, 37, 62
11, 342144, Note_on_c, 10, 37, 0
11, 343680, Note_on_c, 10, 37, 62
11, 344064, Note_on_c, 10, 37, 0
11, 345600, Note_on_c, 10, 49, 71
11, 347040, Note_on_c, 10, 49, 0
11, 347040, Note_on_c, 10, 47, 71
11, 347520, Note_on_c, 10, 47, 0
11, 347520, Note_on_c, 10, 45, 71
11, 348000, Note_on_c, 10, 45, 0
11, 348000, Note_on_c, 10, 44, 71
11, 348480, Note_on_c, 10, 44, 0
11, 348480, Note_on_c, 10, 42, 71
11, 348960, Note_on_c, 10, 42, 0
11, 348960, Note_on_c, 10, 45, 71
11, 349430, Note_on_c, 10, 45, 0
11, 349440, Note_on_c, 10, 47, 71
11, 350880, Note_on_c, 10, 47, 0
11, 350880, Note_on_c, 10, 45, 71
11, 351360, Note_on_c, 10, 45, 0
11, 351360, Note_on_c, 10, 44, 71
11, 351840, Note_on_c, 10, 44, 0
11, 351840, Note_on_c, 10, 42, 71
11, 352320, Note_on_c, 10, 42, 0
11, 352320, Note_on_c, 10, 40, 71
11, 352800, Note_on_c, 10, 40, 0
11, 352800, Note_on_c, 10, 44, 71
11, 353270, Note_on_c, 10, 44, 0
11, 353280, Note_on_c, 10, 45, 71
11, 354720, Note_on_c, 10, 45, 0
11, 354720, Note_on_c, 10, 44, 71
11, 355200, Note_on_c, 10, 44, 0
11, 355200, Note_on_c, 10, 42, 71
11, 355680, Note_on_c, 10, 42, 0
11, 355680, Note_on_c, 10, 40, 71
11, 356160, Note_on_c, 10, 40, 0
11, 356160, Note_on_c, 10, 38, 71
11, 356640, Note_on_c, 10, 38, 0
11, 356640, Note_on_c, 10, 42, 71
11, 357096, Note_on_c, 10, 42, 0
11, 357120, Note_on_c, 10, 44, 71
11, 358560, Note_on_c, 10, 44, 0
11, 358560, Note_on_c, 10, 42, 71
11, 359040, Note_on_c, 10, 42, 0
11, 359040, Note_on_c, 10, 41, 71
11, 359520, Note_on_c, 10, 41, 0
11, 359520, Note_on_c, 10, 39, 71
11, 360000, Note_on_c, 10, 39, 0
11, 360000, Note_on_c, 10, 37, 71
11, 360480, Note_on_c, 10, 37, 0
11, 360480, Note_on_c, 10, 41, 71
11, 360936, Note_on_c, 10, 41, 0
11, 360960, Note_on_c, 10, 42, 61
11, 361920, Note_on_c, 10, 42, 0
11, 361920, Note_on_c, 10, 40, 64
11, 362880, Note_on_c, 10, 40, 0
11, 362880, Note_on_c, 10, 39, 65
11, 363840, Note_on_c, 10, 39, 0
11, 363840, Note_on_c, 10, 38, 66
11, 364780, Note_on_c, 10, 38, 0
11, 364800, Note_on_c, 10, 37, 68
11, 365760, Note_on_c, 10, 37, 0
11, 365760, Note_on_c, 10, 35, 71
11, 366700, Note_on_c, 10, 35, 0
11, 366720, Note_on_c, 10, 33, 76
11, 367200, Note_on_c, 10, 33, 0
11, 367200, Note_on_c, 10, 35, 76
11, 367680, Note_on_c, 10, 35, 0
11, 367680, Note_on_c, 10, 37, 73
11, 368592, Note_on_c, 10, 37, 0
11, 368640, Note_on_c, 10, 42, 63
11, 369024, Note_on_c, 10, 42, 0
11, 369600, Note_on_c, 10, 40, 64
11, 369984, Note_on_c, 10, 40, 0
11, 370560, Note_on_c, 10, 39, 67
11, 370944, Note_on_c, 10, 39, 0
11, 371520, Note_on_c, 10, 38, 73
11, 371904, Note_on_c, 10, 38, 0
11, 372480, Note_on_c, 10, 37, 80
11, 372864, Note_on_c, 10, 37, 0
11, 373440, Note_on_c, 10, 35, 90
11, 375840, Note_on_c, 10, 35, 0
11, 380160, Note_on_c, 10, 45, 71
11, 380472, Note_on_c, 10, 45, 0
11, 380640, Note_on_c, 10, 45, 71
11, 380952, Note_on_c, 10, 45, 0
11, 381120, Note_on_c, 10, 45, 71
11, 381432, Note_on_c, 10, 45, 0
11, 381600, Note_on_c, 10, 45, 71
11, 381912, Note_on_c, 10, 45, 0
11, 382080, Note_on_c, 10, 45, 71
11, 382392, Note_on_c, 10, 45, 0
11, 382560, Note_on_c, 10, 45, 71
11, 382872, Note_on_c, 10, 45, 0
11, 383040, Note_on_c, 10, 45, 71
11, 383352, Note_on_c, 10, 45, 0
11, 383520, Note_on_c, 10, 45, 71
11, 383832, Note_on_c, 10, 45, 0
11, 384000, Note_on_c, 10, 45, 71
11, 384312, Note_on_c, 10, 45, 0
11, 384480, Note_on_c, 10, 45, 71
11, 384792, Note_on_c, 10, 45, 0
11, 384960, Note_on_c, 10, 45, 71
11, 385272, Note_on_c, 10, 45, 0
11, 385440, Note_on_c, 10, 45, 71
11, 385752, Note_on_c, 10, 45, 0
11, 385920, Note_on_c, 10, 45, 71
11, 386232, Note_on_c, 10, 45, 0
11, 386400, Note_on_c, 10, 45, 71
11, 386712, Note_on_c, 10, 45, 0
11, 386880, Note_on_c, 10, 45, 71
11, 387192, Note_on_c, 10, 45, 0
11, 387360, Note_on_c, 10, 45, 71
11, 387672, Note_on_c, 10, 45, 0
11, 388800, Note_on_c, 10, 49, 71
11, 389760, Note_on_c, 10, 49, 0
11, 389760, Note_on_c, 10, 50, 71
11, 390720, Note_on_c, 10, 50, 0
11, 390720, Note_on_c, 10, 45, 71
11, 391680, Note_on_c, 10, 45, 0
11, 391680, Note_on_c, 10, 44, 71
11, 392640, Note_on_c, 10, 44, 0
11, 392640, Note_on_c, 10, 45, 71
11, 393600, Note_on_c, 10, 45, 0
11, 393600, Note_on_c, 10, 40, 71
11, 394368, Note_on_c, 10, 40, 0
11, 395520, Note_on_c, 10, 45, 62
11, 403162, Note_on_c, 10, 45, 0
11, 416160, Note_on_c, 10, 40, 105
11, 416304, Note_on_c, 10, 40, 0
11, 416400, Note_on_c, 10, 40, 105
11, 416544, Note_on_c, 10, 40, 0
11, 416640, Note_on_c, 10, 42, 105
11, 416784, Note_on_c, 10, 42, 0
11, 416880, Note_on_c, 10, 42, 105
11, 417024, Note_on_c, 10, 42, 0
11, 417120, Note_on_c, 10, 38, 105
11, 417264, Note_on_c, 10, 38, 0
11, 417360, Note_on_c, 10, 38, 105
11, 417504, Note_on_c, 10, 38, 0
11, 417600, Note_on_c, 10, 40, 105
11, 417744, Note_on_c, 10, 40, 0
11, 417840, Note_on_c, 10, 40, 105
11, 417984, Note_on_c, 10, 40, 0
11, 418080, Note_on_c, 10, 40, 105
11, 418224, Note_on_c, 10, 40, 0
11, 418320, Note_on_c, 10, 40, 105
11, 418464, Note_on_c, 10, 40, 0
11, 418560, Note_on_c, 10, 33, 105
11, 418944, Note_on_c, 10, 33, 0
11, 420000, Note_on_c, 10, 52, 105
11, 420120, Note_on_c, 10, 52, 0
11, 420120, Note_on_c, 10, 49, 105
11, 420198, Note_on_c, 10, 49, 0
11, 420240, Note_on_c, 10, 52, 105
11, 420318, Note_on_c, 10, 52, 0
11, 420360, Note_on_c, 10, 49, 105
11, 420438, Note_on_c, 10, 49, 0
11, 420480, Note_on_c, 10, 45, 105
11, 420864, Note_on_c, 10, 45, 0
11, 420960, Note_on_c, 10, 33, 105
11, 421194, Note_on_c, 10, 33, 0
11, 421320, Note_on_c, 10, 33, 105
11, 421398, Note_on_c, 10, 33, 0
11, 421440, Note_on_c, 10, 33, 105
11, 421824, Note_on_c, 10, 33, 0
11, 433920, Note_on_c, 10, 50, 62
11, 434160, Note_on_c, 10, 50, 0
11, 434880, Note_on_c, 10, 50, 62
11, 435120, Note_on_c, 10, 50, 0
11, 435840, Note_on_c, 10, 47, 62
11, 437760, Note_on_c, 10, 47, 0
11, 437760, Note_on_c, 10, 49, 62
11, 438000, Note_on_c, 10, 49, 0
11, 438720, Note_on_c, 10, 49, 62
11, 438960, Note_on_c, 10, 49, 0
11, 439680, Note_on_c, 10, 45, 62
11, 441600, Note_on_c, 10, 45, 0
11, 441600, Note_on_c, 10, 47, 62
11, 441840, Note_on_c, 10, 47, 0
11, 442560, Note_on_c, 10, 47, 62
11, 442800, Note_on_c, 10, 47, 0
11, 443520, Note_on_c, 10, 44, 62
11, 445440, Note_on_c, 10, 44, 0
11, 445440, Note_on_c, 10, 45, 62
11, 445680, Note_on_c, 10, 45, 0
11, 446400, Note_on_c, 10, 42, 62
11, 446640, Note_on_c, 10, 42, 0
11, 447360, Note_on_c, 10, 38, 62
11, 448800, Note_on_c, 10, 38, 0
11, 448800, Note_on_c, 10, 39, 62
11, 449280, Note_on_c, 10, 39, 0
11, 449280, Note_on_c, 10, 40, 62
11, 450048, Note_on_c, 10, 40, 0
11, 466560, Note_on_c, 10, 33, 62
11, 470400, Note_on_c, 10, 33, 0
11, 470400, Note_on_c, 10, 45, 62
11, 474720, Note_on_c, 10, 45, 0
11, 490080, Note_on_c, 10, 45, 71
11, 490560, Note_on_c, 10, 45, 0
11, 490560, Note_on_c, 10, 44, 71
11, 490872, Note_on_c, 10, 44, 0
11, 491040, Note_on_c, 10, 40, 71
11, 491352, Note_on_c, 10, 40, 0
11, 491520, Note_on_c, 10, 45, 71
11, 491832, Note_on_c, 10, 45, 0
11, 492000, Note_on_c, 10, 43, 71
11, 492312, Note_on_c, 10, 43, 0
11, 492480, Note_on_c, 10, 42, 71
11, 492792, Note_on_c, 10, 42, 0
11, 492960, Note_on_c, 10, 38, 71
11, 493272, Note_on_c, 10, 38, 0
11, 493440, Note_on_c, 10, 37, 71
11, 493752, Note_on_c, 10, 37, 0
11, 493920, Note_on_c, 10, 33, 71
11, 494232, Note_on_c, 10, 33, 0
11, 494400, Note_on_c, 10, 38, 71
11, 494712, Note_on_c, 10, 38, 0
11, 494880, Note_on_c, 10, 42, 71
11, 495192, Note_on_c, 10, 42, 0
11, 495360, Note_on_c, 10, 40, 62
11, 496128, Note_on_c, 10, 40, 0
11, 511200, Note_on_c, 10, 50, 71
11, 511680, Note_on_c, 10, 50, 0
11, 511680, Note_on_c, 10, 49, 71
11, 512160, Note_on_c, 10, 49, 0
11, 512160, Note_on_c, 10, 50, 71
11, 512640, Note_on_c, 10, 50, 0
11, 512640, Note_on_c, 10, 49, 71
11, 513120, Note_on_c, 10, 49, 0
11, 513120, Note_on_c, 10, 50, 71
11, 513600, Note_on_c, 10, 50, 0
11, 513600, Note_on_c, 10, 49, 71
11, 514080, Note_on_c, 10, 49, 0
11, 514080, Note_on_c, 10, 50, 71
11, 514464, Note_on_c, 10, 50, 0
11, 514560, Note_on_c, 10, 49, 71
11, 514716, Note_on_c, 10, 49, 0
11, 514800, Note_on_c, 10, 49, 71
11, 514956, Note_on_c, 10, 49, 0
11, 515040, Note_on_c, 10, 50, 71
11, 515196, Note_on_c, 10, 50, 0
11, 515280, Note_on_c, 10, 50, 71
11, 515436, Note_on_c, 10, 50, 0
11, 515520, Note_on_c, 10, 49, 71
11, 515676, Note_on_c, 10, 49, 0
11, 515760, Note_on_c, 10, 49, 71
11, 515916, Note_on_c, 10, 49, 0
11, 516000, Note_on_c, 10, 50, 71
11, 516156, Note_on_c, 10, 50, 0
11, 516240, Note_on_c, 10, 50, 71
11, 516396, Note_on_c, 10, 50, 0
11, 516480, Note_on_c, 10, 49, 71
11, 516864, Note_on_c, 10, 49, 0
11, 518400, Note_on_c, 10, 42, 71
11, 518784, Note_on_c, 10, 42, 0
11, 520320, Note_on_c, 10, 40, 71
11, 520704, Note_on_c, 10, 40, 0
11, 521280, Note_on_c, 10, 40, 71
11, 521664, Note_on_c, 10, 40, 0
11, 522240, Note_on_c, 10, 45, 61
11, 522432, Note_on_c, 10, 45, 0
11, 522720, Note_on_c, 10, 50, 61
11, 523200, Note_on_c, 10, 50, 0
11, 523200, Note_on_c, 10, 49, 62
11, 523680, Note_on_c, 10, 49, 0
11, 523680, Note_on_c, 10, 50, 62
11, 524160, Note_on_c, 10, 50, 0
11, 524160, Note_on_c, 10, 49, 63
11, 524640, Note_on_c, 10, 49, 0
11, 524640, Note_on_c, 10, 50, 64
11, 525120, Note_on_c, 10, 50, 0
11, 525120, Note_on_c, 10, 49, 64
11, 525600, Note_on_c, 10, 49, 0
11, 525600, Note_on_c, 10, 50, 65
11, 526032, Note_on_c, 10, 50, 0
11, 526080, Note_on_c, 10, 49, 66
11, 526272, Note_on_c, 10, 49, 0
11, 526320, Note_on_c, 10, 49, 66
11, 526512, Note_on_c, 10, 49, 0
11, 526560, Note_on_c, 10, 50, 66
11, 526752, Note_on_c, 10, 50, 0
11, 526800, Note_on_c, 10, 50, 67
11, 526992, Note_on_c, 10, 50, 0
11, 527040, Note_on_c, 10, 49, 67
11, 527232, Note_on_c, 10, 49, 0
11, 527280, Note_on_c, 10, 49, 67
11, 527472, Note_on_c, 10, 49, 0
11, 527520, Note_on_c, 10, 50, 69
11, 527712, Note_on_c, 10, 50, 0
11, 527760, Note_on_c, 10, 50, 71
11, 527952, Note_on_c, 10, 50, 0
11, 528000, Note_on_c, 10, 49, 71
11, 528384, Note_on_c, 10, 49, 0
11, 529920, Note_on_c, 10, 37, 91
11, 530688, Note_on_c, 10, 37, 0
11, 530880, Note_on_c, 10, 40, 91
11, 531648, Note_on_c, 10, 40, 0
11, 531840, Note_on_c, 10, 38, 71
11, 532224, Note_on_c, 10, 38, 0
11, 533760, Note_on_c, 10, 29, 91
11, 534480, Note_on_c, 10, 29, 0
11, 534720, Note_on_c, 10, 41, 91
11, 535440, Note_on_c, 10, 41, 0
11, 535680, Note_on_c, 10, 40, 71
11, 535992, Note_on_c, 10, 40, 0
11, 536160, Note_on_c, 10, 40, 71
11, 536472, Note_on_c, 10, 40, 0
11, 536640, Note_on_c, 10, 40, 71
11, 536952, Note_on_c, 10, 40, 0
11, 543360, Note_on_c, 10, 40, 74
11, 543516, Note_on_c, 10, 40, 0
11, 543600, Note_on_c, 10, 40, 76
11, 543756, Note_on_c, 10, 40, 0
11, 543840, Note_on_c, 10, 40, 78
11, 543996, Note_on_c, 10, 40, 0
11, 544080, Note_on_c, 10, 40, 81
11, 544236, Note_on_c, 10, 40, 0
11, 544320, Note_on_c, 10, 40, 83
11, 544476, Note_on_c, 10, 40, 0
11, 544560, Note_on_c, 10, 40, 85
11, 544716, Note_on_c, 10, 40, 0
11, 544800, Note_on_c, 10, 40, 88
11, 544956, Note_on_c, 10, 40, 0
11, 545040, Note_on_c, 10, 40, 90
11, 545196, Note_on_c, 10, 40, 0
11, 545280, Note_on_c, 10, 40, 92
11, 545436, Note_on_c, 10, 40, 0
11, 545520, Note_on_c, 10, 40, 95
11, 545676, Note_on_c, 10, 40, 0
11, 545760, Note_on_c, 10, 40, 97
11, 545916, Note_on_c, 10, 40, 0
11, 546000, Note_on_c, 10, 40, 99
11, 546156, Note_on_c, 10, 40, 0
11, 546240, Note_on_c, 10, 40, 102
11, 546396, Note_on_c, 10, 40, 0
11, 546480, Note_on_c, 10, 40, 104
11, 546636, Note_on_c, 10, 40, 0
11, 546720, Note_on_c, 10, 40, 104
11, 546876, Note_on_c, 10, 40, 0
11, 546960, Note_on_c, 10, 40, 104
11, 547116, Note_on_c, 10, 40, 0
11, 547200, Note_on_c, 10, 33, 104
11, 547392, Note_on_c, 10, 33, 0
11, 547680, Note_on_c, 10, 45, 71
11, 547872, Note_on_c, 10, 45, 0
11, 548160, Note_on_c, 10, 33, 71
11, 548352, Note_on_c, 10, 33, 0
11, 548640, Note_on_c, 10, 45, 71
11, 548832, Note_on_c, 10, 45, 0
11, 549120, Note_on_c, 10, 33, 71
11, 549312, Note_on_c, 10, 33, 0
11, 549600, Note_on_c, 10, 45, 71
11, 549792, Note_on_c, 10, 45, 0
11, 550080, Note_on_c, 10, 33, 71
11, 550272, Note_on_c, 10, 33, 0
11, 550560, Note_on_c, 10, 45, 71
11, 550752, Note_on_c, 10, 45, 0
11, 551040, Note_on_c, 10, 33, 71
11, 551232, Note_on_c, 10, 33, 0
11, 551520, Note_on_c, 10, 45, 71
11, 551712, Note_on_c, 10, 45, 0
11, 552000, Note_on_c, 10, 33, 71
11, 552192, Note_on_c, 10, 33, 0
11, 552480, Note_on_c, 10, 45, 71
11, 552672, Note_on_c, 10, 45, 0
11, 552960, Note_on_c, 10, 33, 69
11, 553152, Note_on_c, 10, 33, 0
11, 553440, Note_on_c, 10, 45, 73
11, 553632, Note_on_c, 10, 45, 0
11, 553920, Note_on_c, 10, 33, 77
11, 554112, Note_on_c, 10, 33, 0
11, 554400, Note_on_c, 10, 45, 81
11, 554592, Note_on_c, 10, 45, 0
11, 554880, Note_on_c, 10, 33, 85
11, 555072, Note_on_c, 10, 33, 0
11, 555120, Note_on_c, 10, 33, 87
11, 555312, Note_on_c, 10, 33, 0
11, 555360, Note_on_c, 10, 33, 89
11, 555552, Note_on_c, 10, 33, 0
11, 555600, Note_on_c, 10, 33, 91
11, 555792, Note_on_c, 10, 33, 0
11, 555840, Note_on_c, 10, 33, 93
11, 556032, Note_on_c, 10, 33, 0
11, 556080, Note_on_c, 10, 33, 95
11, 556272, Note_on_c, 10, 33, 0
11, 556320, Note_on_c, 10, 33, 97
11, 556512, Note_on_c, 10, 33, 0
11, 556560, Note_on_c, 10, 33, 99
11, 556752, Note_on_c, 10, 33, 0
11, 556800, Note_on_c, 10, 33, 102
11, 556956, Note_on_c, 10, 33, 0
11, 557040, Note_on_c, 10, 33, 105
11, 557196, Note_on_c, 10, 33, 0
11, 557280, Note_on_c, 10, 37, 105
11, 557436, Note_on_c, 10, 37, 0
11, 557520, Note_on_c, 10, 37, 105
11, 557676, Note_on_c, 10, 37, 0
11, 557760, Note_on_c, 10, 38, 105
11, 557916, Note_on_c, 10, 38, 0
11, 558000, Note_on_c, 10, 42, 105
11, 558156, Note_on_c, 10, 42, 0
11, 558240, Note_on_c, 10, 44, 105
11, 558396, Note_on_c, 10, 44, 0
11, 558480, Note_on_c, 10, 40, 105
11, 558636, Note_on_c, 10, 40, 0
11, 558720, Note_on_c, 10, 45, 105
11, 558876, Note_on_c, 10, 45, 0
11, 558960, Note_on_c, 10, 52, 105
11, 559038, Note_on_c, 10, 52, 0
11, 559080, Note_on_c, 10, 49, 105
11, 559158, Note_on_c, 10, 49, 0
11, 559200, Note_on_c, 10, 45, 105
11, 559356, Note_on_c, 10, 45, 0
11, 559440, Note_on_c, 10, 49, 105
11, 559518, Note_on_c, 10, 49, 0
11, 559560, Note_on_c, 10, 45, 105
11, 559638, Note_on_c, 10, 45, 0
11, 559680, Note_on_c, 10, 42, 105
11, 559836, Note_on_c, 10, 42, 0
11, 559920, Note_on_c, 10, 45, 105
11, 559998, Note_on_c, 10, 45, 0
11, 560040, Note_on_c, 10, 42, 105
11, 560118, Note_on_c, 10, 42, 0
11, 560160, Note_on_c, 10, 39, 105
11, 560316, Note_on_c, 10, 39, 0
11, 560400, Note_on_c, 10, 42, 105
11, 560478, Note_on_c, 10, 42, 0
11, 560520, Note_on_c, 10, 39, 105
11, 560598, Note_on_c, 10, 39, 0
11, 560640, Note_on_c, 10, 40, 105
11, 561792, Note_on_c, 10, 40, 0
11, 638880, Note_on_c, 10, 33, 105
11, 639264, Note_on_c, 10, 33, 0
11, 640320, Note_on_c, 10, 40, 105
11, 640464, Note_on_c, 10, 40, 0
11, 640560, Note_on_c, 10, 40, 105
11, 640704, Note_on_c, 10, 40, 0
11, 640800, Note_on_c, 10, 42, 105
11, 640944, Note_on_c, 10, 42, 0
11, 641040, Note_on_c, 10, 42, 105
11, 641184, Note_on_c, 10, 42, 0
11, 641280, Note_on_c, 10, 38, 105
11, 641424, Note_on_c, 10, 38, 0
11, 641520, Note_on_c, 10, 38, 105
11, 641664, Note_on_c, 10, 38, 0
11, 641760, Note_on_c, 10, 40, 105
11, 641904, Note_on_c, 10, 40, 0
11, 642000, Note_on_c, 10, 40, 105
11, 642144, Note_on_c, 10, 40, 0
11, 642240, Note_on_c, 10, 40, 105
11, 642384, Note_on_c, 10, 40, 0
11, 642480, Note_on_c, 10, 40, 105
11, 642624, Note_on_c, 10, 40, 0
11, 642720, Note_on_c, 10, 33, 105
11, 643104, Note_on_c, 10, 33, 0
11, 644160, Note_on_c, 10, 40, 105
11, 644304, Note_on_c, 10, 40, 0
11, 644400, Note_on_c, 10, 40, 105
11, 644544, Note_on_c, 10, 40, 0
11, 644640, Note_on_c, 10, 42, 105
11, 644784, Note_on_c, 10, 42, 0
11, 644880, Note_on_c, 10, 42, 105
11, 645024, Note_on_c, 10, 42, 0
11, 645120, Note_on_c, 10, 38, 105
11, 645264, Note_on_c, 10, 38, 0
11, 645360, Note_on_c, 10, 38, 105
11, 645504, Note_on_c, 10, 38, 0
11, 645600, Note_on_c, 10, 40, 105
11, 645744, Note_on_c, 10, 40, 0
11, 645840, Note_on_c, 10, 40, 105
11, 645984, Note_on_c, 10, 40, 0
11, 646080, Note_on_c, 10, 40, 105
11, 646224, Note_on_c, 10, 40, 0
11, 646320, Note_on_c, 10, 40, 105
11, 646464, Note_on_c, 10, 40, 0
11, 646560, Note_on_c, 10, 33, 105
11, 646944, Note_on_c, 10, 33, 0
11, 648000, Note_on_c, 10, 49, 105
11, 648120, Note_on_c, 10, 49, 0
11, 648120, Note_on_c, 10, 45, 105
11, 648198, Note_on_c, 10, 45, 0
11, 648240, Note_on_c, 10, 49, 105
11, 648318, Note_on_c, 10, 49, 0
11, 648360, Note_on_c, 10, 45, 105
11, 648438, Note_on_c, 10, 45, 0
11, 648480, Note_on_c, 10, 40, 105
11, 648864, Note_on_c, 10, 40, 0
11, 648960, Note_on_c, 10, 45, 105
11, 649080, Note_on_c, 10, 45, 0
11, 649080, Note_on_c, 10, 40, 105
11, 649158, Note_on_c, 10, 40, 0
11, 649200, Note_on_c, 10, 45, 105
11, 649278, Note_on_c, 10, 45, 0
11, 649320, Note_on_c, 10, 40, 105
11, 649398, Note_on_c, 10, 40, 0
11, 649440, Note_on_c, 10, 37, 105
11, 649824, Note_on_c, 10, 37, 0
11, 649920, Note_on_c, 10, 40, 105
11, 650040, Note_on_c, 10, 40, 0
11, 650040, Note_on_c, 10, 37, 105
11, 650118, Note_on_c, 10, 37, 0
11, 650160, Note_on_c, 10, 40, 105
11, 650238, Note_on_c, 10, 40, 0
11, 650280, Note_on_c, 10, 37, 105
11, 650358, Note_on_c, 10, 37, 0
11, 650400, Note_on_c, 10, 33, 105
11, 651084, Note_on_c, 10, 33, 0
11, 651120, Note_on_c, 10, 37, 105
11, 651198, Note_on_c, 10, 37, 0
11, 651240, Note_on_c, 10, 40, 105
11, 651318, Note_on_c, 10, 40, 0
11, 651360, Note_on_c, 10, 45, 105
11, 651672, Note_on_c, 10, 45, 0
11, 651840, Note_on_c, 10, 45, 105
11, 652152, Note_on_c, 10, 45, 0
11, 652320, Note_on_c, 10, 33, 105
11, 652704, Note_on_c, 10, 33, 0
11, 654240, Note_on_c, 10, 33, 1
11, 654624, Note_on_c, 10, 33, 0
11, 654624, End_track
12, 0, Start_track
12, 0, Sequencer_specific, 04, 43, 00, 01, 00
12, 0, Program_c, 11, 45
12, 0, Control_c, 11, 7, 79
12, 0, Control_c, 11, 10, 84
12, 0, Control_c, 11, 91, 100
12, 63360, Note_on_c, 11, 57, 62
12, 63552, Note_on_c, 11, 57, 0
12, 63840, Note_on_c, 11, 52, 62
12, 64032, Note_on_c, 11, 52, 0
12, 64320, Note_on_c, 11, 59, 62
12, 64512, Note_on_c, 11, 59, 0
12, 64800, Note_on_c, 11, 52, 62
12, 64992, Note_on_c, 11, 52, 0
12, 65280, Note_on_c, 11, 61, 62
12, 65472, Note_on_c, 11, 61, 0
12, 65760, Note_on_c, 11, 52, 62
12, 65952, Note_on_c, 11, 52, 0
12, 66240, Note_on_c, 11, 61, 62
12, 66432, Note_on_c, 11, 61, 0
12, 66720, Note_on_c, 11, 60, 62
12, 66912, Note_on_c, 11, 60, 0
12, 67200, Note_on_c, 11, 61, 62
12, 67392, Note_on_c, 11, 61, 0
12, 67680, Note_on_c, 11, 52, 62
12, 67872, Note_on_c, 11, 52, 0
12, 68160, Note_on_c, 11, 61, 62
12, 68352, Note_on_c, 11, 61, 0
12, 68640, Note_on_c, 11, 60, 62
12, 68832, Note_on_c, 11, 60, 0
12, 69120, Note_on_c, 11, 61, 62
12, 69312, Note_on_c, 11, 61, 0
12, 69600, Note_on_c, 11, 52, 62
12, 69792, Note_on_c, 11, 52, 0
12, 70080, Note_on_c, 11, 61, 62
12, 70272, Note_on_c, 11, 61, 0
12, 70560, Note_on_c, 11, 57, 62
12, 70752, Note_on_c, 11, 57, 0
12, 71040, Note_on_c, 11, 56, 62
12, 71232, Note_on_c, 11, 56, 0
12, 71520, Note_on_c, 11, 52, 62
12, 71712, Note_on_c, 11, 52, 0
12, 72000, Note_on_c, 11, 57, 62
12, 72192, Note_on_c, 11, 57, 0
12, 72480, Note_on_c, 11, 52, 62
12, 72672, Note_on_c, 11, 52, 0
12, 72960, Note_on_c, 11, 59, 62
12, 73152, Note_on_c, 11, 59, 0
12, 73440, Note_on_c, 11, 52, 62
12, 73632, Note_on_c, 11, 52, 0
12, 73920, Note_on_c, 11, 59, 62
12, 74112, Note_on_c, 11, 59, 0
12, 74400, Note_on_c, 11, 58, 62
12, 74592, Note_on_c, 11, 58, 0
12, 74880, Note_on_c, 11, 59, 62
12, 75072, Note_on_c, 11, 59, 0
12, 75360, Note_on_c, 11, 52, 62
12, 75552, Note_on_c, 11, 52, 0
12, 75840, Note_on_c, 11, 59, 62
12, 76032, Note_on_c, 11, 59, 0
12, 76320, Note_on_c, 11, 58, 62
12, 76512, Note_on_c, 11, 58, 0
12, 76800, Note_on_c, 11, 59, 62
12, 76992, Note_on_c, 11, 59, 0
12, 77280, Note_on_c, 11, 52, 62
12, 77472, Note_on_c, 11, 52, 0
12, 77760, Note_on_c, 11, 52, 62
12, 77952, Note_on_c, 11, 52, 0
12, 220800, Note_on_c, 11, 52, 62
12, 220992, Note_on_c, 11, 52, 0
12, 221280, Note_on_c, 11, 47, 62
12, 221472, Note_on_c, 11, 47, 0
12, 221760, Note_on_c, 11, 54, 62
12, 221952, Note_on_c, 11, 54, 0
12, 222240, Note_on_c, 11, 47, 62
12, 222432, Note_on_c, 11, 47, 0
12, 222720, Note_on_c, 11, 56, 62
12, 222912, Note_on_c, 11, 56, 0
12, 223200, Note_on_c, 11, 47, 62
12, 223392, Note_on_c, 11, 47, 0
12, 223680, Note_on_c, 11, 56, 62
12, 223872, Note_on_c, 11, 56, 0
12, 224160, Note_on_c, 11, 55, 62
12, 224352, Note_on_c, 11, 55, 0
12, 224640, Note_on_c, 11, 56, 62
12, 224832, Note_on_c, 11, 56, 0
12, 225120, Note_on_c, 11, 47, 62
12, 225312, Note_on_c, 11, 47, 0
12, 225600, Note_on_c, 11, 56, 62
12, 225792, Note_on_c, 11, 56, 0
12, 226080, Note_on_c, 11, 55, 62
12, 226272, Note_on_c, 11, 55, 0
12, 226560, Note_on_c, 11, 56, 62
12, 226752, Note_on_c, 11, 56, 0
12, 227040, Note_on_c, 11, 52, 62
12, 227232, Note_on_c, 11, 52, 0
12, 227520, Note_on_c, 11, 47, 62
12, 227712, Note_on_c, 11, 47, 0
12, 451200, Note_on_c, 11, 57, 62
12, 451392, Note_on_c, 11, 57, 0
12, 451680, Note_on_c, 11, 52, 62
12, 451872, Note_on_c, 11, 52, 0
12, 452160, Note_on_c, 11, 59, 62
12, 452352, Note_on_c, 11, 59, 0
12, 452640, Note_on_c, 11, 52, 62
12, 452832, Note_on_c, 11, 52, 0
12, 453120, Note_on_c, 11, 61, 62
12, 453312, Note_on_c, 11, 61, 0
12, 453600, Note_on_c, 11, 52, 62
12, 453792, Note_on_c, 11, 52, 0
12, 454080, Note_on_c, 11, 61, 62
12, 454272, Note_on_c, 11, 61, 0
12, 454560, Note_on_c, 11, 60, 62
12, 454752, Note_on_c, 11, 60, 0
12, 455040, Note_on_c, 11, 61, 62
12, 455232, Note_on_c, 11, 61, 0
12, 455520, Note_on_c, 11, 52, 62
12, 455712, Note_on_c, 11, 52, 0
12, 456000, Note_on_c, 11, 61, 62
12, 456192, Note_on_c, 11, 61, 0
12, 456480, Note_on_c, 11, 60, 62
12, 456672, Note_on_c, 11, 60, 0
12, 456960, Note_on_c, 11, 61, 62
12, 457152, Note_on_c, 11, 61, 0
12, 457440, Note_on_c, 11, 57, 62
12, 457632, Note_on_c, 11, 57, 0
12, 457920, Note_on_c, 11, 52, 62
12, 458112, Note_on_c, 11, 52, 0
12, 458112, End_track
13, 0, Start_track
13, 0, Sequencer_specific, 04, 43, 00, 01, 00
13, 0, Program_c, 12, 45
13, 0, Control_c, 12, 7, 79
13, 0, Control_c, 12, 91, 100
13, 0, Control_c, 12, 10, 96
13, 63360, Note_on_c, 12, 45, 62
13, 63552, Note_on_c, 12, 45, 0
13, 63840, Note_on_c, 12, 40, 62
13, 64032, Note_on_c, 12, 40, 0
13, 64320, Note_on_c, 12, 47, 62
13, 64512, Note_on_c, 12, 47, 0
13, 64800, Note_on_c, 12, 40, 62
13, 64992, Note_on_c, 12, 40, 0
13, 65280, Note_on_c, 12, 49, 62
13, 65472, Note_on_c, 12, 49, 0
13, 65760, Note_on_c, 12, 40, 62
13, 65952, Note_on_c, 12, 40, 0
13, 66240, Note_on_c, 12, 49, 62
13, 66432, Note_on_c, 12, 49, 0
13, 66720, Note_on_c, 12, 48, 62
13, 66912, Note_on_c, 12, 48, 0
13, 67200, Note_on_c, 12, 49, 62
13, 67392, Note_on_c, 12, 49, 0
13, 67680, Note_on_c, 12, 40, 62
13, 67872, Note_on_c, 12, 40, 0
13, 68160, Note_on_c, 12, 49, 62
13, 68352, Note_on_c, 12, 49, 0
13, 68640, Note_on_c, 12, 48, 62
13, 68832, Note_on_c, 12, 48, 0
13, 69120, Note_on_c, 12, 49, 62
13, 69312, Note_on_c, 12, 49, 0
13, 69600, Note_on_c, 12, 40, 62
13, 69792, Note_on_c, 12, 40, 0
13, 70080, Note_on_c, 12, 49, 62
13, 70272, Note_on_c, 12, 49, 0
13, 70560, Note_on_c, 12, 45, 62
13, 70752, Note_on_c, 12, 45, 0
13, 71040, Note_on_c, 12, 44, 62
13, 71232, Note_on_c, 12, 44, 0
13, 71520, Note_on_c, 12, 40, 62
13, 71712, Note_on_c, 12, 40, 0
13, 72000, Note_on_c, 12, 45, 62
13, 72192, Note_on_c, 12, 45, 0
13, 72480, Note_on_c, 12, 40, 62
13, 72672, Note_on_c, 12, 40, 0
13, 72960, Note_on_c, 12, 47, 62
13, 73152, Note_on_c, 12, 47, 0
13, 73440, Note_on_c, 12, 40, 62
13, 73632, Note_on_c, 12, 40, 0
13, 73920, Note_on_c, 12, 47, 62
13, 74112, Note_on_c, 12, 47, 0
13, 74400, Note_on_c, 12, 46, 62
13, 74592, Note_on_c, 12, 46, 0
13, 74880, Note_on_c, 12, 47, 62
13, 75072, Note_on_c, 12, 47, 0
13, 75360, Note_on_c, 12, 40, 62
13, 75552, Note_on_c, 12, 40, 0
13, 75840, Note_on_c, 12, 47, 62
13, 76032, Note_on_c, 12, 47, 0
13, 76320, Note_on_c, 12, 46, 62
13, 76512, Note_on_c, 12, 46, 0
13, 76800, Note_on_c, 12, 47, 62
13, 76992, Note_on_c, 12, 47, 0
13, 77280, Note_on_c, 12, 40, 62
13, 77472, Note_on_c, 12, 40, 0
13, 77760, Note_on_c, 12, 40, 62
13, 77952, Note_on_c, 12, 40, 0
13, 220800, Note_on_c, 12, 40, 62
13, 220992, Note_on_c, 12, 40, 0
13, 221280, Note_on_c, 12, 35, 62
13, 221472, Note_on_c, 12, 35, 0
13, 221760, Note_on_c, 12, 42, 62
13, 221952, Note_on_c, 12, 42, 0
13, 222240, Note_on_c, 12, 35, 62
13, 222432, Note_on_c, 12, 35, 0
13, 222720, Note_on_c, 12, 44, 62
13, 222912, Note_on_c, 12, 44, 0
13, 223200, Note_on_c, 12, 35, 62
13, 223392, Note_on_c, 12, 35, 0
13, 223680, Note_on_c, 12, 44, 62
13, 223872, Note_on_c, 12, 44, 0
13, 224160, Note_on_c, 12, 43, 62
13, 224352, Note_on_c, 12, 43, 0
13, 224640, Note_on_c, 12, 44, 62
13, 224832, Note_on_c, 12, 44, 0
13, 225120, Note_on_c, 12, 35, 62
13, 225312, Note_on_c, 12, 35, 0
13, 225600, Note_on_c, 12, 44, 62
13, 225792, Note_on_c, 12, 44, 0
13, 226080, Note_on_c, 12, 43, 62
13, 226272, Note_on_c, 12, 43, 0
13, 226560, Note_on_c, 12, 44, 62
13, 226752, Note_on_c, 12, 44, 0
13, 227040, Note_on_c, 12, 40, 62
13, 227232, Note_on_c, 12, 40, 0
13, 227520, Note_on_c, 12, 35, 62
13, 227712, Note_on_c, 12, 35, 0
13, 451200, Note_on_c, 12, 45, 62
13, 451392, Note_on_c, 12, 45, 0
13, 451680, Note_on_c, 12, 40, 62
13, 451872, Note_on_c, 12, 40, 0
13, 452160, Note_on_c, 12, 47, 62
13, 452352, Note_on_c, 12, 47, 0
13, 452640, Note_on_c, 12, 40, 62
13, 452832, Note_on_c, 12, 40, 0
13, 453120, Note_on_c, 12, 49, 62
13, 453312, Note_on_c, 12, 49, 0
13, 453600, Note_on_c, 12, 40, 62
13, 453792, Note_on_c, 12, 40, 0
13, 454080, Note_on_c, 12, 49, 62
13, 454272, Note_on_c, 12, 49, 0
13, 454560, Note_on_c, 12, 48, 62
13, 454752, Note_on_c, 12, 48, 0
13, 455040, Note_on_c, 12, 49, 62
13, 455232, Note_on_c, 12, 49, 0
13, 455520, Note_on_c, 12, 40, 62
13, 455712, Note_on_c, 12, 40, 0
13, 456000, Note_on_c, 12, 49, 62
13, 456192, Note_on_c, 12, 49, 0
13, 456480, Note_on_c, 12, 48, 62
13, 456672, Note_on_c, 12, 48, 0
13, 456960, Note_on_c, 12, 49, 62
13, 457152, Note_on_c, 12, 49, 0
13, 457440, Note_on_c, 12, 45, 62
13, 457632, Note_on_c, 12, 45, 0
13, 457920, Note_on_c, 12, 40, 62
13, 458112, Note_on_c, 12, 40, 0
13, 458112, End_track
0, 0, End_of_file