0, 0, Header, 1, 8, 120
1, 0, Start_track
1, 0, MIDI_port, 0
1, 0, System_exclusive, 05, 7E, 7F, 09, 01, F7
1, 0, MIDI_port, 0
1, 0, Time_signature, 4, 2, 24, 8
1, 0, Key_signature, -2, "major"
1, 0, Tempo, 500000
1, 480, Marker_t, "Fuga in Gmin (K. 401, 1782)"
1, 480, End_track
2, 0, Start_track
2, 0, MIDI_port, 0
2, 0, Title_t, "Primo"
2, 0, Program_c, 0, 0
2, 0, Control_c, 0, 121, 0
2, 0, Control_c, 0, 7, 127
2, 0, Control_c, 0, 10, 84
2, 0, Control_c, 0, 91, 101
2, 480, Note_on_c, 0, 74, 85
2, 712, Note_on_c, 0, 74, 0
2, 720, Note_on_c, 0, 70, 80
2, 900, Note_on_c, 0, 69, 80
2, 902, Note_on_c, 0, 70, 0
2, 930, Note_on_c, 0, 69, 0
2, 930, Note_on_c, 0, 67, 76
2, 960, Note_on_c, 0, 66, 76
2, 968, Note_on_c, 0, 67, 0
2, 1016, Note_on_c, 0, 66, 0
2, 1020, Note_on_c, 0, 67, 89
2, 1080, Note_on_c, 0, 69, 89
2, 1082, Note_on_c, 0, 67, 0
2, 1258, Note_on_c, 0, 69, 0
2, 1260, Note_on_c, 0, 75, 68
2, 1317, Note_on_c, 0, 75, 0
2, 1320, Note_on_c, 0, 74, 85
2, 1380, Note_on_c, 0, 72, 80
2, 1383, Note_on_c, 0, 74, 0
2, 1440, Note_on_c, 0, 70, 68
2, 1440, Note_on_c, 0, 67, 93
2, 1441, Note_on_c, 0, 72, 0
2, 1500, Note_on_c, 0, 69, 76
2, 1504, Note_on_c, 0, 70, 0
2, 1558, Note_on_c, 0, 69, 0
2, 1560, Note_on_c, 0, 70, 76
2, 1620, Note_on_c, 0, 72, 72
2, 1622, Note_on_c, 0, 70, 0
2, 1680, Note_on_c, 0, 67, 0
2, 1680, Note_on_c, 0, 74, 85
2, 1680, Note_on_c, 0, 65, 89
2, 1687, Note_on_c, 0, 72, 0
2, 1740, Note_on_c, 0, 69, 76
2, 1742, Note_on_c, 0, 74, 0
2, 1800, Note_on_c, 0, 69, 0
2, 1800, Note_on_c, 0, 74, 85
2, 1860, Note_on_c, 0, 64, 89
2, 1867, Note_on_c, 0, 65, 0
2, 1885, Note_on_c, 0, 64, 0
2, 1890, Note_on_c, 0, 62, 76
2, 1920, Note_on_c, 0, 62, 0
2, 1920, Note_on_c, 0, 76, 93
2, 1920, Note_on_c, 0, 61, 64
2, 1921, Note_on_c, 0, 74, 0
2, 1980, Note_on_c, 0, 62, 80
2, 1983, Note_on_c, 0, 61, 0
2, 2036, Note_on_c, 0, 62, 0
2, 2040, Note_on_c, 0, 64, 93
2, 2093, Note_on_c, 0, 76, 0
2, 2100, Note_on_c, 0, 74, 76
2, 2160, Note_on_c, 0, 73, 89
2, 2169, Note_on_c, 0, 74, 0
2, 2216, Note_on_c, 0, 64, 0
2, 2220, Note_on_c, 0, 70, 80
2, 2280, Note_on_c, 0, 69, 76
2, 2285, Note_on_c, 0, 70, 0
2, 2333, Note_on_c, 0, 69, 0
2, 2340, Note_on_c, 0, 67, 85
2, 2393, Note_on_c, 0, 73, 0
2, 2398, Note_on_c, 0, 67, 0
2, 2400, Note_on_c, 0, 74, 89
2, 2400, Note_on_c, 0, 66, 64
2, 2460, Note_on_c, 0, 62, 76
2, 2464, Note_on_c, 0, 66, 0
2, 2519, Note_on_c, 0, 62, 0
2, 2520, Note_on_c, 0, 64, 72
2, 2580, Note_on_c, 0, 64, 0
2, 2580, Note_on_c, 0, 66, 76
2, 2638, Note_on_c, 0, 66, 0
2, 2640, Note_on_c, 0, 67, 93
2, 2678, Note_on_c, 0, 74, 0
2, 2700, Note_on_c, 0, 70, 89
2, 2756, Note_on_c, 0, 70, 0
2, 2760, Note_on_c, 0, 72, 85
2, 2760, Note_on_c, 0, 69, 89
2, 2765, Note_on_c, 0, 67, 0
2, 2819, Note_on_c, 0, 72, 0
2, 2820, Note_on_c, 0, 69, 0
2, 2820, Note_on_c, 0, 74, 89
2, 2820, Note_on_c, 0, 70, 76
2, 2880, Note_on_c, 0, 75, 64
2, 2880, Note_on_c, 0, 72, 93
2, 2883, Note_on_c, 0, 70, 0
2, 2883, Note_on_c, 0, 74, 0
2, 2940, Note_on_c, 0, 70, 62
2, 2954, Note_on_c, 0, 72, 0
2, 3000, Note_on_c, 0, 69, 89
2, 3007, Note_on_c, 0, 70, 0
2, 3054, Note_on_c, 0, 75, 0
2, 3055, Note_on_c, 0, 69, 0
2, 3060, Note_on_c, 0, 72, 76
2, 3060, Note_on_c, 0, 67, 56
2, 3090, Note_on_c, 0, 70, 72
2, 3093, Note_on_c, 0, 72, 0
2, 3119, Note_on_c, 0, 67, 0
2, 3120, Note_on_c, 0, 69, 76
2, 3120, Note_on_c, 0, 66, 76
2, 3122, Note_on_c, 0, 70, 0
2, 3360, Note_on_c, 0, 70, 80
2, 3360, Note_on_c, 0, 67, 72
2, 3364, Note_on_c, 0, 69, 0
2, 3368, Note_on_c, 0, 66, 0
2, 3420, Note_on_c, 0, 72, 76
2, 3426, Note_on_c, 0, 70, 0
2, 3480, Note_on_c, 0, 74, 76
2, 3481, Note_on_c, 0, 72, 0
2, 3591, Note_on_c, 0, 67, 0
2, 3600, Note_on_c, 0, 69, 93
2, 3660, Note_on_c, 0, 65, 80
2, 3666, Note_on_c, 0, 69, 0
2, 3719, Note_on_c, 0, 74, 0
2, 3720, Note_on_c, 0, 76, 89
2, 3720, Note_on_c, 0, 67, 89
2, 3723, Note_on_c, 0, 65, 0
2, 3780, Note_on_c, 0, 77, 89
2, 3780, Note_on_c, 0, 69, 85
2, 3783, Note_on_c, 0, 67, 0
2, 3783, Note_on_c, 0, 76, 0
2, 3840, Note_on_c, 0, 79, 85
2, 3840, Note_on_c, 0, 70, 89
2, 3841, Note_on_c, 0, 77, 0
2, 3846, Note_on_c, 0, 69, 0
2, 4020, Note_on_c, 0, 76, 72
2, 4020, Note_on_c, 0, 67, 60
2, 4033, Note_on_c, 0, 79, 0
2, 4033, Note_on_c, 0, 70, 0
2, 4050, Note_on_c, 0, 74, 76
2, 4050, Note_on_c, 0, 65, 72
2, 4051, Note_on_c, 0, 67, 0
2, 4054, Note_on_c, 0, 76, 0
2, 4080, Note_on_c, 0, 73, 62
2, 4080, Note_on_c, 0, 64, 76
2, 4087, Note_on_c, 0, 74, 0
2, 4087, Note_on_c, 0, 65, 0
2, 4307, Note_on_c, 0, 73, 0
2, 4320, Note_on_c, 0, 74, 80
2, 4320, Note_on_c, 0, 62, 80
2, 4327, Note_on_c, 0, 64, 0
2, 4380, Note_on_c, 0, 72, 76
2, 4386, Note_on_c, 0, 74, 0
2, 4408, Note_on_c, 0, 62, 0
2, 4440, Note_on_c, 0, 70, 68
2, 4440, Note_on_c, 0, 62, 76
2, 4441, Note_on_c, 0, 72, 0
2, 4497, Note_on_c, 0, 70, 0
2, 4500, Note_on_c, 0, 69, 72
2, 4560, Note_on_c, 0, 67, 89
2, 4564, Note_on_c, 0, 69, 0
2, 4679, Note_on_c, 0, 62, 0
2, 4680, Note_on_c, 0, 61, 76
2, 4795, Note_on_c, 0, 67, 0
2, 4796, Note_on_c, 0, 61, 0
2, 4800, Note_on_c, 0, 65, 89
2, 4800, Note_on_c, 0, 62, 89
2, 4914, Note_on_c, 0, 62, 0
2, 4919, Note_on_c, 0, 65, 0
2, 4920, Note_on_c, 0, 77, 89
2, 4920, Note_on_c, 0, 65, 93
2, 5040, Note_on_c, 0, 70, 85
2, 5041, Note_on_c, 0, 65, 0
2, 5160, Note_on_c, 0, 76, 89
2, 5167, Note_on_c, 0, 77, 0
2, 5207, Note_on_c, 0, 70, 0
2, 5220, Note_on_c, 0, 70, 85
2, 5271, Note_on_c, 0, 70, 0
2, 5278, Note_on_c, 0, 76, 0
2, 5280, Note_on_c, 0, 77, 93
2, 5280, Note_on_c, 0, 69, 85
2, 5400, Note_on_c, 0, 68, 72
2, 5407, Note_on_c, 0, 69, 0
2, 5510, Note_on_c, 0, 77, 0
2, 5519, Note_on_c, 0, 68, 0
2, 5520, Note_on_c, 0, 67, 85
2, 5700, Note_on_c, 0, 72, 76
2, 5708, Note_on_c, 0, 67, 0
2, 5760, Note_on_c, 0, 72, 0
2, 5760, Note_on_c, 0, 65, 76
2, 5940, Note_on_c, 0, 70, 76
2, 5950, Note_on_c, 0, 65, 0
2, 6000, Note_on_c, 0, 63, 76
2, 6004, Note_on_c, 0, 70, 0
2, 6350, Note_on_c, 0, 63, 0
2, 6360, Note_on_c, 0, 62, 89
2, 6480, Note_on_c, 0, 77, 89
2, 6480, Note_on_c, 0, 60, 89
2, 6485, Note_on_c, 0, 62, 0
2, 6720, Note_on_c, 0, 60, 0
2, 6720, Note_on_c, 0, 74, 85
2, 6720, Note_on_c, 0, 62, 93
2, 6722, Note_on_c, 0, 77, 0
2, 6898, Note_on_c, 0, 74, 0
2, 6900, Note_on_c, 0, 72, 72
2, 6900, Note_on_c, 0, 63, 68
2, 6906, Note_on_c, 0, 62, 0
2, 6930, Note_on_c, 0, 70, 56
2, 6930, Note_on_c, 0, 62, 64
2, 6931, Note_on_c, 0, 63, 0
2, 6933, Note_on_c, 0, 72, 0
2, 6958, Note_on_c, 0, 70, 0
2, 6960, Note_on_c, 0, 69, 80
2, 6960, Note_on_c, 0, 63, 72
2, 6962, Note_on_c, 0, 62, 0
2, 7019, Note_on_c, 0, 69, 0
2, 7020, Note_on_c, 0, 70, 80
2, 7080, Note_on_c, 0, 72, 85
2, 7083, Note_on_c, 0, 70, 0
2, 7140, Note_on_c, 0, 62, 68
2, 7141, Note_on_c, 0, 63, 0
2, 7200, Note_on_c, 0, 60, 76
2, 7203, Note_on_c, 0, 62, 0
2, 7260, Note_on_c, 0, 79, 80
2, 7266, Note_on_c, 0, 72, 0
2, 7319, Note_on_c, 0, 79, 0
2, 7320, Note_on_c, 0, 77, 80
2, 7380, Note_on_c, 0, 75, 64
2, 7389, Note_on_c, 0, 77, 0
2, 7440, Note_on_c, 0, 74, 89
2, 7440, Note_on_c, 0, 62, 89
2, 7442, Note_on_c, 0, 75, 0
2, 7443, Note_on_c, 0, 60, 0
2, 7498, Note_on_c, 0, 74, 0
2, 7500, Note_on_c, 0, 70, 76
2, 7558, Note_on_c, 0, 62, 0
2, 7560, Note_on_c, 0, 72, 85
2, 7560, Note_on_c, 0, 63, 72
2, 7561, Note_on_c, 0, 70, 0
2, 7619, Note_on_c, 0, 63, 0
2, 7620, Note_on_c, 0, 74, 76
2, 7620, Note_on_c, 0, 65, 72
2, 7623, Note_on_c, 0, 72, 0
2, 7679, Note_on_c, 0, 65, 0
2, 7680, Note_on_c, 0, 75, 72
2, 7680, Note_on_c, 0, 67, 89
2, 7683, Note_on_c, 0, 74, 0
2, 7740, Note_on_c, 0, 70, 76
2, 7743, Note_on_c, 0, 75, 0
2, 7800, Note_on_c, 0, 75, 80
2, 7803, Note_on_c, 0, 70, 0
2, 7917, Note_on_c, 0, 75, 0
2, 7920, Note_on_c, 0, 77, 89
2, 7942, Note_on_c, 0, 67, 0
2, 8100, Note_on_c, 0, 75, 80
2, 8102, Note_on_c, 0, 77, 0
2, 8151, Note_on_c, 0, 75, 0
2, 8160, Note_on_c, 0, 74, 80
2, 8220, Note_on_c, 0, 72, 76
2, 8222, Note_on_c, 0, 74, 0
2, 8280, Note_on_c, 0, 71, 93
2, 8285, Note_on_c, 0, 72, 0
2, 8400, Note_on_c, 0, 72, 89
2, 8400, Note_on_c, 0, 67, 93
2, 8405, Note_on_c, 0, 71, 0
2, 8579, Note_on_c, 0, 72, 0
2, 8580, Note_on_c, 0, 71, 89
2, 8640, Note_on_c, 0, 72, 89
2, 8640, Note_on_c, 0, 63, 93
2, 8644, Note_on_c, 0, 71, 0
2, 8654, Note_on_c, 0, 67, 0
2, 8700, Note_on_c, 0, 67, 85
2, 8701, Note_on_c, 0, 72, 0
2, 8760, Note_on_c, 0, 72, 93
2, 8764, Note_on_c, 0, 67, 0
2, 8812, Note_on_c, 0, 63, 0
2, 8820, Note_on_c, 0, 62, 85
2, 8850, Note_on_c, 0, 60, 62
2, 8851, Note_on_c, 0, 62, 0
2, 8880, Note_on_c, 0, 74, 93
2, 8880, Note_on_c, 0, 59, 93
2, 8882, Note_on_c, 0, 72, 0
2, 8886, Note_on_c, 0, 60, 0
2, 8939, Note_on_c, 0, 59, 0
2, 8940, Note_on_c, 0, 60, 76
2, 8998, Note_on_c, 0, 60, 0
2, 9000, Note_on_c, 0, 62, 89
2, 9059, Note_on_c, 0, 74, 0
2, 9060, Note_on_c, 0, 72, 85
2, 9120, Note_on_c, 0, 71, 85
2, 9127, Note_on_c, 0, 72, 0
2, 9180, Note_on_c, 0, 65, 89
2, 9184, Note_on_c, 0, 62, 0
2, 9240, Note_on_c, 0, 64, 89
2, 9246, Note_on_c, 0, 65, 0
2, 9300, Note_on_c, 0, 62, 89
2, 9305, Note_on_c, 0, 64, 0
2, 9360, Note_on_c, 0, 62, 0
2, 9360, Note_on_c, 0, 69, 93
2, 9360, Note_on_c, 0, 61, 76
2, 9362, Note_on_c, 0, 71, 0
2, 9420, Note_on_c, 0, 67, 89
2, 9420, Note_on_c, 0, 64, 89
2, 9421, Note_on_c, 0, 61, 0
2, 9425, Note_on_c, 0, 69, 0
2, 9480, Note_on_c, 0, 65, 76
2, 9480, Note_on_c, 0, 62, 76
2, 9481, Note_on_c, 0, 67, 0
2, 9485, Note_on_c, 0, 64, 0
2, 9535, Note_on_c, 0, 62, 0
2, 9537, Note_on_c, 0, 65, 0
2, 9540, Note_on_c, 0, 64, 76
2, 9540, Note_on_c, 0, 61, 72
2, 9600, Note_on_c, 0, 61, 0
2, 9600, Note_on_c, 0, 62, 85
2, 9600, Note_on_c, 0, 62, 89
2, 9603, Note_on_c, 0, 64, 0
2, 9720, Note_on_c, 0, 62, 0
2, 9720, Note_on_c, 0, 69, 102
2, 9780, Note_on_c, 0, 64, 76
2, 9781, Note_on_c, 0, 62, 0
2, 9807, Note_on_c, 0, 64, 0
2, 9810, Note_on_c, 0, 65, 80
2, 9840, Note_on_c, 0, 64, 85
2, 9844, Note_on_c, 0, 65, 0
2, 9900, Note_on_c, 0, 71, 93
2, 9900, Note_on_c, 0, 62, 76
2, 9901, Note_on_c, 0, 64, 0
2, 9905, Note_on_c, 0, 69, 0
2, 9957, Note_on_c, 0, 62, 0
2, 9960, Note_on_c, 0, 73, 76
2, 9960, Note_on_c, 0, 61, 80
2, 9962, Note_on_c, 0, 71, 0
2, 10018, Note_on_c, 0, 73, 0
2, 10020, Note_on_c, 0, 74, 76
2, 10080, Note_on_c, 0, 76, 93
2, 10083, Note_on_c, 0, 74, 0
2, 10140, Note_on_c, 0, 61, 0
2, 10140, Note_on_c, 0, 67, 93
2, 10200, Note_on_c, 0, 73, 89
2, 10200, Note_on_c, 0, 65, 80
2, 10203, Note_on_c, 0, 76, 0
2, 10205, Note_on_c, 0, 67, 0
2, 10260, Note_on_c, 0, 64, 76
2, 10270, Note_on_c, 0, 65, 0
2, 10305, Note_on_c, 0, 64, 0
2, 10320, Note_on_c, 0, 74, 80
2, 10320, Note_on_c, 0, 62, 89
2, 10321, Note_on_c, 0, 73, 0
2, 10368, Note_on_c, 0, 62, 0
2, 10380, Note_on_c, 0, 57, 72
2, 10436, Note_on_c, 0, 57, 0
2, 10440, Note_on_c, 0, 65, 89
2, 10574, Note_on_c, 0, 74, 0
2, 10620, Note_on_c, 0, 62, 85
2, 10621, Note_on_c, 0, 65, 0
2, 10680, Note_on_c, 0, 63, 76
2, 10688, Note_on_c, 0, 62, 0
2, 10918, Note_on_c, 0, 63, 0
2, 10920, Note_on_c, 0, 62, 89
2, 10980, Note_on_c, 0, 60, 76
2, 10983, Note_on_c, 0, 62, 0
2, 11037, Note_on_c, 0, 60, 0
2, 11040, Note_on_c, 0, 59, 89
2, 11094, Note_on_c, 0, 59, 0
2, 11100, Note_on_c, 0, 60, 76
2, 11160, Note_on_c, 0, 62, 93
2, 11162, Note_on_c, 0, 60, 0
2, 11280, Note_on_c, 0, 63, 85
2, 11282, Note_on_c, 0, 62, 0
2, 11336, Note_on_c, 0, 63, 0
2, 11340, Note_on_c, 0, 65, 85
2, 11400, Note_on_c, 0, 65, 0
2, 11400, Note_on_c, 0, 67, 98
2, 11520, Note_on_c, 0, 72, 93
2, 11580, Note_on_c, 0, 70, 80
2, 11581, Note_on_c, 0, 67, 0
2, 11640, Note_on_c, 0, 68, 76
2, 11651, Note_on_c, 0, 70, 0
2, 11700, Note_on_c, 0, 67, 85
2, 11705, Note_on_c, 0, 68, 0
2, 11759, Note_on_c, 0, 72, 0
2, 11760, Note_on_c, 0, 68, 89
2, 11760, Note_on_c, 0, 65, 89
2, 11761, Note_on_c, 0, 67, 0
2, 11878, Note_on_c, 0, 65, 0
2, 11880, Note_on_c, 0, 60, 76
2, 11930, Note_on_c, 0, 68, 0
2, 11940, Note_on_c, 0, 67, 76
2, 11967, Note_on_c, 0, 67, 0
2, 11970, Note_on_c, 0, 65, 80
2, 11978, Note_on_c, 0, 60, 0
2, 12000, Note_on_c, 0, 64, 93
2, 12000, Note_on_c, 0, 60, 89
2, 12003, Note_on_c, 0, 65, 0
2, 12052, Note_on_c, 0, 64, 0
2, 12060, Note_on_c, 0, 65, 72
2, 12118, Note_on_c, 0, 65, 0
2, 12120, Note_on_c, 0, 67, 93
2, 12250, Note_on_c, 0, 60, 0
2, 12300, Note_on_c, 0, 73, 80
2, 12308, Note_on_c, 0, 67, 0
2, 12360, Note_on_c, 0, 72, 89
2, 12365, Note_on_c, 0, 73, 0
2, 12420, Note_on_c, 0, 70, 76
2, 12425, Note_on_c, 0, 72, 0
2, 12480, Note_on_c, 0, 68, 72
2, 12484, Note_on_c, 0, 70, 0
2, 12540, Note_on_c, 0, 68, 0
2, 12540, Note_on_c, 0, 72, 85
2, 12600, Note_on_c, 0, 68, 80
2, 12608, Note_on_c, 0, 72, 0
2, 12659, Note_on_c, 0, 68, 0
2, 12660, Note_on_c, 0, 67, 80
2, 12719, Note_on_c, 0, 67, 0
2, 12720, Note_on_c, 0, 66, 76
2, 12779, Note_on_c, 0, 66, 0
2, 12780, Note_on_c, 0, 75, 76
2, 12838, Note_on_c, 0, 75, 0
2, 12840, Note_on_c, 0, 74, 85
2, 12900, Note_on_c, 0, 74, 0
2, 12900, Note_on_c, 0, 72, 76
2, 12960, Note_on_c, 0, 70, 76
2, 12966, Note_on_c, 0, 72, 0
2, 13019, Note_on_c, 0, 70, 0
2, 13020, Note_on_c, 0, 74, 76
2, 13080, Note_on_c, 0, 70, 68
2, 13087, Note_on_c, 0, 74, 0
2, 13139, Note_on_c, 0, 70, 0
2, 13140, Note_on_c, 0, 69, 72
2, 13200, Note_on_c, 0, 68, 76
2, 13203, Note_on_c, 0, 69, 0
2, 13256, Note_on_c, 0, 68, 0
2, 13260, Note_on_c, 0, 77, 72
2, 13319, Note_on_c, 0, 77, 0
2, 13320, Note_on_c, 0, 76, 89
2, 13380, Note_on_c, 0, 74, 85
2, 13381, Note_on_c, 0, 76, 0
2, 13440, Note_on_c, 0, 73, 80
2, 13440, Note_on_c, 0, 69, 98
2, 13445, Note_on_c, 0, 74, 0
2, 13555, Note_on_c, 0, 73, 0
2, 13560, Note_on_c, 0, 69, 93
2, 13674, Note_on_c, 0, 69, 0
2, 13679, Note_on_c, 0, 69, 0
2, 13680, Note_on_c, 0, 65, 89
2, 13740, Note_on_c, 0, 74, 89
2, 13800, Note_on_c, 0, 76, 89
2, 13803, Note_on_c, 0, 74, 0
2, 13860, Note_on_c, 0, 65, 0
2, 13860, Note_on_c, 0, 77, 93
2, 13860, Note_on_c, 0, 64, 85
2, 13861, Note_on_c, 0, 76, 0
2, 13887, Note_on_c, 0, 64, 0
2, 13890, Note_on_c, 0, 62, 85
2, 13920, Note_on_c, 0, 79, 89
2, 13920, Note_on_c, 0, 61, 85
2, 13923, Note_on_c, 0, 62, 0
2, 13923, Note_on_c, 0, 77, 0
2, 13975, Note_on_c, 0, 61, 0
2, 13980, Note_on_c, 0, 62, 85
2, 14033, Note_on_c, 0, 62, 0
2, 14040, Note_on_c, 0, 64, 89
2, 14100, Note_on_c, 0, 77, 89
2, 14105, Note_on_c, 0, 79, 0
2, 14160, Note_on_c, 0, 76, 89
2, 14173, Note_on_c, 0, 77, 0
2, 14220, Note_on_c, 0, 70, 76
2, 14225, Note_on_c, 0, 64, 0
2, 14280, Note_on_c, 0, 70, 0
2, 14280, Note_on_c, 0, 69, 89
2, 14335, Note_on_c, 0, 69, 0
2, 14340, Note_on_c, 0, 67, 89
2, 14399, Note_on_c, 0, 67, 0
2, 14400, Note_on_c, 0, 69, 89
2, 14400, Note_on_c, 0, 66, 89
2, 14401, Note_on_c, 0, 76, 0
2, 14514, Note_on_c, 0, 69, 0
2, 14520, Note_on_c, 0, 74, 85
2, 14578, Note_on_c, 0, 66, 0
2, 14580, Note_on_c, 0, 64, 93
2, 14610, Note_on_c, 0, 66, 80
2, 14611, Note_on_c, 0, 64, 0
2, 14640, Note_on_c, 0, 66, 0
2, 14640, Note_on_c, 0, 67, 89
2, 14700, Note_on_c, 0, 70, 85
2, 14717, Note_on_c, 0, 74, 0
2, 14728, Note_on_c, 0, 70, 0
2, 14730, Note_on_c, 0, 69, 76
2, 14755, Note_on_c, 0, 69, 0
2, 14760, Note_on_c, 0, 67, 80
2, 14760, Note_on_c, 0, 62, 93
2, 14765, Note_on_c, 0, 67, 0
2, 14820, Note_on_c, 0, 69, 85
2, 14826, Note_on_c, 0, 67, 0
2, 14848, Note_on_c, 0, 69, 0
2, 14850, Note_on_c, 0, 70, 76
2, 14873, Note_on_c, 0, 70, 0
2, 14880, Note_on_c, 0, 72, 80
2, 14940, Note_on_c, 0, 70, 76
2, 14946, Note_on_c, 0, 72, 0
2, 14995, Note_on_c, 0, 62, 0
2, 15000, Note_on_c, 0, 69, 93
2, 15000, Note_on_c, 0, 60, 89
2, 15010, Note_on_c, 0, 70, 0
2, 15059, Note_on_c, 0, 69, 0
2, 15060, Note_on_c, 0, 67, 80
2, 15113, Note_on_c, 0, 67, 0
2, 15120, Note_on_c, 0, 66, 80
2, 15151, Note_on_c, 0, 60, 0
2, 15180, Note_on_c, 0, 72, 85
2, 15180, Note_on_c, 0, 66, 98
2, 15185, Note_on_c, 0, 66, 0
2, 15240, Note_on_c, 0, 74, 80
2, 15243, Note_on_c, 0, 72, 0
2, 15286, Note_on_c, 0, 66, 0
2, 15296, Note_on_c, 0, 74, 0
2, 15300, Note_on_c, 0, 75, 76
2, 15300, Note_on_c, 0, 66, 76
2, 15345, Note_on_c, 0, 66, 0
2, 15360, Note_on_c, 0, 74, 89
2, 15360, Note_on_c, 0, 67, 93
2, 15365, Note_on_c, 0, 75, 0
2, 15476, Note_on_c, 0, 74, 0
2, 15480, Note_on_c, 0, 79, 76
2, 15540, Note_on_c, 0, 63, 64
2, 15543, Note_on_c, 0, 67, 0
2, 15567, Note_on_c, 0, 63, 0
2, 15570, Note_on_c, 0, 62, 93
2, 15597, Note_on_c, 0, 62, 0
2, 15600, Note_on_c, 0, 60, 89
2, 15660, Note_on_c, 0, 75, 76
2, 15662, Note_on_c, 0, 79, 0
2, 15690, Note_on_c, 0, 75, 0
2, 15690, Note_on_c, 0, 74, 80
2, 15716, Note_on_c, 0, 74, 0
2, 15720, Note_on_c, 0, 72, 80
2, 15773, Note_on_c, 0, 60, 0
2, 15780, Note_on_c, 0, 62, 89
2, 15810, Note_on_c, 0, 63, 72
2, 15811, Note_on_c, 0, 62, 0
2, 15835, Note_on_c, 0, 63, 0
2, 15837, Note_on_c, 0, 72, 0
2, 15840, Note_on_c, 0, 74, 89
2, 15840, Note_on_c, 0, 65, 89
2, 16020, Note_on_c, 0, 72, 85
2, 16020, Note_on_c, 0, 63, 85
2, 16029, Note_on_c, 0, 74, 0
2, 16035, Note_on_c, 0, 65, 0
2, 16078, Note_on_c, 0, 63, 0
2, 16080, Note_on_c, 0, 71, 89
2, 16080, Note_on_c, 0, 62, 93
2, 16087, Note_on_c, 0, 72, 0
2, 16136, Note_on_c, 0, 62, 0
2, 16140, Note_on_c, 0, 65, 85
2, 16199, Note_on_c, 0, 65, 0
2, 16200, Note_on_c, 0, 67, 89
2, 16260, Note_on_c, 0, 68, 85
2, 16264, Note_on_c, 0, 67, 0
2, 16320, Note_on_c, 0, 72, 80
2, 16320, Note_on_c, 0, 67, 93
2, 16322, Note_on_c, 0, 71, 0
2, 16329, Note_on_c, 0, 68, 0
2, 16379, Note_on_c, 0, 72, 0
2, 16380, Note_on_c, 0, 67, 80
2, 16440, Note_on_c, 0, 72, 76
2, 16441, Note_on_c, 0, 67, 0
2, 16483, Note_on_c, 0, 67, 0
2, 16500, Note_on_c, 0, 67, 89
2, 16559, Note_on_c, 0, 67, 0
2, 16560, Note_on_c, 0, 65, 89
2, 16614, Note_on_c, 0, 72, 0
2, 16620, Note_on_c, 0, 71, 93
2, 16680, Note_on_c, 0, 72, 85
2, 16683, Note_on_c, 0, 71, 0
2, 16737, Note_on_c, 0, 72, 0
2, 16740, Note_on_c, 0, 74, 76
2, 16797, Note_on_c, 0, 65, 0
2, 16800, Note_on_c, 0, 75, 85
2, 16800, Note_on_c, 0, 63, 80
2, 16804, Note_on_c, 0, 74, 0
2, 16860, Note_on_c, 0, 65, 80
2, 16864, Note_on_c, 0, 63, 0
2, 16920, Note_on_c, 0, 67, 89
2, 16922, Note_on_c, 0, 65, 0
2, 16980, Note_on_c, 0, 72, 80
2, 16984, Note_on_c, 0, 75, 0
2, 17040, Note_on_c, 0, 74, 85
2, 17041, Note_on_c, 0, 72, 0
2, 17100, Note_on_c, 0, 77, 80
2, 17101, Note_on_c, 0, 74, 0
2, 17157, Note_on_c, 0, 67, 0
2, 17160, Note_on_c, 0, 76, 89
2, 17160, Note_on_c, 0, 68, 89
2, 17169, Note_on_c, 0, 77, 0
2, 17220, Note_on_c, 0, 74, 85
2, 17221, Note_on_c, 0, 76, 0
2, 17275, Note_on_c, 0, 68, 0
2, 17280, Note_on_c, 0, 73, 80
2, 17280, Note_on_c, 0, 69, 93
2, 17285, Note_on_c, 0, 74, 0
2, 17460, Note_on_c, 0, 65, 85
2, 17466, Note_on_c, 0, 69, 0
2, 17490, Note_on_c, 0, 64, 76
2, 17492, Note_on_c, 0, 65, 0
2, 17520, Note_on_c, 0, 64, 0
2, 17520, Note_on_c, 0, 62, 89
2, 17535, Note_on_c, 0, 73, 0
2, 17640, Note_on_c, 0, 74, 89
2, 17698, Note_on_c, 0, 62, 0
2, 17700, Note_on_c, 0, 64, 89
2, 17730, Note_on_c, 0, 65, 76
2, 17734, Note_on_c, 0, 64, 0
2, 17760, Note_on_c, 0, 76, 93
2, 17760, Note_on_c, 0, 67, 98
2, 17762, Note_on_c, 0, 65, 0
2, 17765, Note_on_c, 0, 74, 0
2, 17940, Note_on_c, 0, 74, 89
2, 17940, Note_on_c, 0, 65, 89
2, 17944, Note_on_c, 0, 76, 0
2, 17956, Note_on_c, 0, 67, 0
2, 17995, Note_on_c, 0, 65, 0
2, 18000, Note_on_c, 0, 73, 72
2, 18000, Note_on_c, 0, 64, 89
2, 18012, Note_on_c, 0, 74, 0
2, 18060, Note_on_c, 0, 64, 0
2, 18060, Note_on_c, 0, 67, 89
2, 18120, Note_on_c, 0, 69, 89
2, 18124, Note_on_c, 0, 67, 0
2, 18180, Note_on_c, 0, 69, 0
2, 18180, Note_on_c, 0, 70, 85
2, 18235, Note_on_c, 0, 73, 0
2, 18240, Note_on_c, 0, 74, 93
2, 18240, Note_on_c, 0, 69, 89
2, 18250, Note_on_c, 0, 70, 0
2, 18300, Note_on_c, 0, 69, 80
2, 18303, Note_on_c, 0, 74, 0
2, 18360, Note_on_c, 0, 74, 89
2, 18362, Note_on_c, 0, 69, 0
2, 18406, Note_on_c, 0, 69, 0
2, 18420, Note_on_c, 0, 69, 85
2, 18480, Note_on_c, 0, 69, 0
2, 18480, Note_on_c, 0, 67, 93
2, 18535, Note_on_c, 0, 74, 0
2, 18540, Note_on_c, 0, 73, 76
2, 18598, Note_on_c, 0, 73, 0
2, 18600, Note_on_c, 0, 74, 80
2, 18659, Note_on_c, 0, 74, 0
2, 18660, Note_on_c, 0, 76, 85
2, 18712, Note_on_c, 0, 67, 0
2, 18720, Note_on_c, 0, 77, 89
2, 18720, Note_on_c, 0, 65, 85
2, 18725, Note_on_c, 0, 76, 0
2, 18780, Note_on_c, 0, 67, 89
2, 18788, Note_on_c, 0, 65, 0
2, 18840, Note_on_c, 0, 69, 93
2, 18851, Note_on_c, 0, 67, 0
2, 18894, Note_on_c, 0, 77, 0
2, 18900, Note_on_c, 0, 74, 98
2, 18960, Note_on_c, 0, 76, 89
2, 18964, Note_on_c, 0, 74, 0
2, 19020, Note_on_c, 0, 79, 89
2, 19024, Note_on_c, 0, 76, 0
2, 19080, Note_on_c, 0, 78, 80
2, 19080, Note_on_c, 0, 70, 93
2, 19087, Note_on_c, 0, 69, 0
2, 19090, Note_on_c, 0, 79, 0
2, 19140, Note_on_c, 0, 76, 89
2, 19146, Note_on_c, 0, 78, 0
2, 19193, Note_on_c, 0, 70, 0
2, 19200, Note_on_c, 0, 75, 89
2, 19200, Note_on_c, 0, 71, 89
2, 19208, Note_on_c, 0, 76, 0
2, 19320, Note_on_c, 0, 71, 93
2, 19326, Note_on_c, 0, 75, 0
2, 19380, Note_on_c, 0, 67, 85
2, 19396, Note_on_c, 0, 71, 0
2, 19410, Note_on_c, 0, 66, 85
2, 19417, Note_on_c, 0, 67, 0
2, 19440, Note_on_c, 0, 64, 93
2, 19441, Note_on_c, 0, 66, 0
2, 19494, Note_on_c, 0, 71, 0
2, 19500, Note_on_c, 0, 73, 85
2, 19530, Note_on_c, 0, 75, 76
2, 19531, Note_on_c, 0, 73, 0
2, 19557, Note_on_c, 0, 75, 0
2, 19560, Note_on_c, 0, 76, 80
2, 19560, Note_on_c, 0, 71, 98
2, 19563, Note_on_c, 0, 64, 0
2, 19620, Note_on_c, 0, 75, 76
2, 19627, Note_on_c, 0, 76, 0
2, 19647, Note_on_c, 0, 75, 0
2, 19650, Note_on_c, 0, 76, 72
2, 19679, Note_on_c, 0, 76, 0
2, 19680, Note_on_c, 0, 78, 76
2, 19680, Note_on_c, 0, 69, 93
2, 19684, Note_on_c, 0, 71, 0
2, 19858, Note_on_c, 0, 78, 0
2, 19860, Note_on_c, 0, 76, 89
2, 19860, Note_on_c, 0, 67, 85
2, 19866, Note_on_c, 0, 69, 0
2, 19920, Note_on_c, 0, 67, 0
2, 19920, Note_on_c, 0, 75, 76
2, 19920, Note_on_c, 0, 66, 85
2, 19927, Note_on_c, 0, 76, 0
2, 20154, Note_on_c, 0, 66, 0
2, 20157, Note_on_c, 0, 75, 0
2, 20160, Note_on_c, 0, 76, 93
2, 20160, Note_on_c, 0, 67, 98
2, 20340, Note_on_c, 0, 74, 89
2, 20340, Note_on_c, 0, 65, 89
2, 20346, Note_on_c, 0, 67, 0
2, 20352, Note_on_c, 0, 76, 0
2, 20400, Note_on_c, 0, 73, 85
2, 20400, Note_on_c, 0, 64, 93
2, 20410, Note_on_c, 0, 65, 0
2, 20412, Note_on_c, 0, 74, 0
2, 20631, Note_on_c, 0, 73, 0
2, 20640, Note_on_c, 0, 74, 93
2, 20640, Note_on_c, 0, 65, 93
2, 20645, Note_on_c, 0, 64, 0
2, 20820, Note_on_c, 0, 72, 80
2, 20820, Note_on_c, 0, 64, 89
2, 20825, Note_on_c, 0, 74, 0
2, 20833, Note_on_c, 0, 65, 0
2, 20880, Note_on_c, 0, 71, 93
2, 20880, Note_on_c, 0, 62, 93
2, 20885, Note_on_c, 0, 64, 0
2, 20887, Note_on_c, 0, 72, 0
2, 21120, Note_on_c, 0, 72, 85
2, 21120, Note_on_c, 0, 63, 85
2, 21123, Note_on_c, 0, 71, 0
2, 21123, Note_on_c, 0, 62, 0
2, 21298, Note_on_c, 0, 72, 0
2, 21300, Note_on_c, 0, 70, 76
2, 21300, Note_on_c, 0, 62, 89
2, 21307, Note_on_c, 0, 63, 0
2, 21360, Note_on_c, 0, 62, 0
2, 21360, Note_on_c, 0, 69, 89
2, 21360, Note_on_c, 0, 60, 76
2, 21365, Note_on_c, 0, 70, 0
2, 21480, Note_on_c, 0, 58, 76
2, 21490, Note_on_c, 0, 60, 0
2, 21537, Note_on_c, 0, 69, 0
2, 21540, Note_on_c, 0, 67, 80
2, 21570, Note_on_c, 0, 66, 98
2, 21580, Note_on_c, 0, 67, 0
2, 21598, Note_on_c, 0, 66, 0
2, 21600, Note_on_c, 0, 67, 80
2, 21648, Note_on_c, 0, 58, 0
2, 21660, Note_on_c, 0, 58, 80
2, 21703, Note_on_c, 0, 58, 0
2, 21720, Note_on_c, 0, 58, 98
2, 21768, Note_on_c, 0, 67, 0
2, 21780, Note_on_c, 0, 67, 80
2, 21839, Note_on_c, 0, 67, 0
2, 21840, Note_on_c, 0, 66, 89
2, 21840, Note_on_c, 0, 57, 98
2, 21842, Note_on_c, 0, 58, 0
2, 22075, Note_on_c, 0, 66, 0
2, 22076, Note_on_c, 0, 57, 0
2, 23040, Note_on_c, 0, 62, 98
2, 23280, Note_on_c, 0, 65, 93
2, 23283, Note_on_c, 0, 62, 0
2, 23460, Note_on_c, 0, 65, 0
2, 23460, Note_on_c, 0, 67, 89
2, 23490, Note_on_c, 0, 69, 72
2, 23495, Note_on_c, 0, 67, 0
2, 23520, Note_on_c, 0, 70, 89
2, 23525, Note_on_c, 0, 69, 0
2, 23576, Note_on_c, 0, 70, 0
2, 23580, Note_on_c, 0, 69, 89
2, 23640, Note_on_c, 0, 69, 0
2, 23640, Note_on_c, 0, 67, 93
2, 23820, Note_on_c, 0, 61, 85
2, 23822, Note_on_c, 0, 67, 0
2, 23879, Note_on_c, 0, 61, 0
2, 23880, Note_on_c, 0, 62, 89
2, 23940, Note_on_c, 0, 64, 80
2, 23945, Note_on_c, 0, 62, 0
2, 24000, Note_on_c, 0, 65, 85
2, 24004, Note_on_c, 0, 64, 0
2, 24116, Note_on_c, 0, 65, 0
2, 24120, Note_on_c, 0, 62, 93
2, 24240, Note_on_c, 0, 63, 85
2, 24241, Note_on_c, 0, 62, 0
2, 24360, Note_on_c, 0, 64, 93
2, 24364, Note_on_c, 0, 63, 0
2, 24480, Note_on_c, 0, 65, 98
2, 24486, Note_on_c, 0, 64, 0
2, 24600, Note_on_c, 0, 66, 89
2, 24601, Note_on_c, 0, 65, 0
2, 24714, Note_on_c, 0, 66, 0
2, 24720, Note_on_c, 0, 67, 98
2, 24720, Note_on_c, 0, 67, 93
2, 24900, Note_on_c, 0, 65, 80
2, 24908, Note_on_c, 0, 67, 0
2, 24930, Note_on_c, 0, 63, 72
2, 24938, Note_on_c, 0, 65, 0
2, 24950, Note_on_c, 0, 67, 0
2, 24960, Note_on_c, 0, 70, 85
2, 24960, Note_on_c, 0, 62, 89
2, 24963, Note_on_c, 0, 63, 0
2, 25076, Note_on_c, 0, 62, 0
2, 25080, Note_on_c, 0, 67, 93
2, 25139, Note_on_c, 0, 70, 0
2, 25140, Note_on_c, 0, 72, 89
2, 25170, Note_on_c, 0, 74, 93
2, 25174, Note_on_c, 0, 72, 0
2, 25200, Note_on_c, 0, 75, 72
2, 25207, Note_on_c, 0, 74, 0
2, 25256, Note_on_c, 0, 75, 0
2, 25260, Note_on_c, 0, 74, 80
2, 25260, Note_on_c, 0, 66, 93
2, 25266, Note_on_c, 0, 67, 0
2, 25320, Note_on_c, 0, 72, 89
2, 25320, Note_on_c, 0, 67, 89
2, 25323, Note_on_c, 0, 66, 0
2, 25323, Note_on_c, 0, 74, 0
2, 25380, Note_on_c, 0, 69, 85
2, 25385, Note_on_c, 0, 67, 0
2, 25410, Note_on_c, 0, 67, 93
2, 25415, Note_on_c, 0, 69, 0
2, 25440, Note_on_c, 0, 66, 93
2, 25441, Note_on_c, 0, 67, 0
2, 25500, Note_on_c, 0, 66, 80
2, 25500, Note_on_c, 0, 63, 72
2, 25505, Note_on_c, 0, 72, 0
2, 25513, Note_on_c, 0, 66, 0
2, 25558, Note_on_c, 0, 63, 0
2, 25560, Note_on_c, 0, 67, 89
2, 25560, Note_on_c, 0, 62, 93
2, 25567, Note_on_c, 0, 66, 0
2, 25617, Note_on_c, 0, 62, 0
2, 25620, Note_on_c, 0, 69, 80
2, 25620, Note_on_c, 0, 60, 76
2, 25631, Note_on_c, 0, 67, 0
2, 25680, Note_on_c, 0, 70, 93
2, 25680, Note_on_c, 0, 58, 85
2, 25681, Note_on_c, 0, 69, 0
2, 25689, Note_on_c, 0, 60, 0
2, 25740, Note_on_c, 0, 60, 89
2, 25741, Note_on_c, 0, 58, 0
2, 25800, Note_on_c, 0, 62, 98
2, 25804, Note_on_c, 0, 60, 0
2, 25906, Note_on_c, 0, 70, 0
2, 25913, Note_on_c, 0, 62, 0
2, 25920, Note_on_c, 0, 69, 93
2, 25920, Note_on_c, 0, 62, 98
2, 25980, Note_on_c, 0, 71, 85
2, 25987, Note_on_c, 0, 69, 0
2, 26010, Note_on_c, 0, 73, 76
2, 26015, Note_on_c, 0, 71, 0
2, 26040, Note_on_c, 0, 73, 0
2, 26040, Note_on_c, 0, 74, 89
2, 26091, Note_on_c, 0, 62, 0
2, 26100, Note_on_c, 0, 64, 93
2, 26130, Note_on_c, 0, 66, 80
2, 26137, Note_on_c, 0, 64, 0
2, 26160, Note_on_c, 0, 67, 98
2, 26163, Note_on_c, 0, 66, 0
2, 26220, Note_on_c, 0, 76, 89
2, 26229, Note_on_c, 0, 74, 0
2, 26248, Note_on_c, 0, 76, 0
2, 26250, Note_on_c, 0, 77, 80
2, 26280, Note_on_c, 0, 76, 80
2, 26283, Note_on_c, 0, 77, 0
2, 26340, Note_on_c, 0, 74, 76
2, 26340, Note_on_c, 0, 65, 93
2, 26343, Note_on_c, 0, 76, 0
2, 26343, Note_on_c, 0, 67, 0
2, 26400, Note_on_c, 0, 73, 89
2, 26400, Note_on_c, 0, 64, 98
2, 26401, Note_on_c, 0, 65, 0
2, 26404, Note_on_c, 0, 74, 0
2, 26460, Note_on_c, 0, 69, 72
2, 26460, Note_on_c, 0, 69, 98
2, 26464, Note_on_c, 0, 64, 0
2, 26470, Note_on_c, 0, 73, 0
2, 26520, Note_on_c, 0, 71, 93
2, 26523, Note_on_c, 0, 69, 0
2, 26557, Note_on_c, 0, 69, 0
2, 26580, Note_on_c, 0, 73, 72
2, 26580, Note_on_c, 0, 69, 85
2, 26583, Note_on_c, 0, 71, 0
2, 26627, Note_on_c, 0, 69, 0
2, 26640, Note_on_c, 0, 74, 89
2, 26640, Note_on_c, 0, 69, 98
2, 26645, Note_on_c, 0, 73, 0
2, 26700, Note_on_c, 0, 74, 0
2, 26700, Note_on_c, 0, 62, 76
2, 26760, Note_on_c, 0, 74, 93
2, 26761, Note_on_c, 0, 69, 0
2, 26766, Note_on_c, 0, 62, 0
2, 26820, Note_on_c, 0, 66, 93
2, 26874, Note_on_c, 0, 66, 0
2, 26880, Note_on_c, 0, 67, 89
2, 26938, Note_on_c, 0, 74, 0
2, 26940, Note_on_c, 0, 79, 89
2, 27000, Note_on_c, 0, 72, 89
2, 27006, Note_on_c, 0, 79, 0
2, 27057, Note_on_c, 0, 67, 0
2, 27060, Note_on_c, 0, 70, 89
2, 27119, Note_on_c, 0, 70, 0
2, 27120, Note_on_c, 0, 69, 98
2, 27179, Note_on_c, 0, 72, 0
2, 27180, Note_on_c, 0, 74, 80
2, 27240, Note_on_c, 0, 70, 72
2, 27240, Note_on_c, 0, 67, 93
2, 27249, Note_on_c, 0, 69, 0
2, 27255, Note_on_c, 0, 74, 0
2, 27300, Note_on_c, 0, 70, 0
2, 27300, Note_on_c, 0, 72, 93
2, 27360, Note_on_c, 0, 69, 89
2, 27366, Note_on_c, 0, 72, 0
2, 27469, Note_on_c, 0, 67, 0
2, 27480, Note_on_c, 0, 66, 85
2, 27600, Note_on_c, 0, 67, 93
2, 27600, Note_on_c, 0, 67, 93
2, 27603, Note_on_c, 0, 66, 0
2, 27603, Note_on_c, 0, 69, 0
2, 27798, Note_on_c, 0, 67, 0
2, 27840, Note_on_c, 0, 72, 98
2, 27847, Note_on_c, 0, 67, 0
2, 28015, Note_on_c, 0, 72, 0
2, 28020, Note_on_c, 0, 69, 93
2, 28050, Note_on_c, 0, 69, 0
2, 28050, Note_on_c, 0, 67, 85
2, 28080, Note_on_c, 0, 66, 76
2, 28085, Note_on_c, 0, 67, 0
2, 28320, Note_on_c, 0, 67, 93
2, 28320, Note_on_c, 0, 67, 102
2, 28327, Note_on_c, 0, 66, 0
2, 28453, Note_on_c, 0, 67, 0
2, 28560, Note_on_c, 0, 65, 93
2, 28561, Note_on_c, 0, 67, 0
2, 28740, Note_on_c, 0, 64, 93
2, 28743, Note_on_c, 0, 65, 0
2, 28770, Note_on_c, 0, 62, 80
2, 28773, Note_on_c, 0, 64, 0
2, 28800, Note_on_c, 0, 61, 76
2, 28808, Note_on_c, 0, 62, 0
2, 28855, Note_on_c, 0, 61, 0
2, 28860, Note_on_c, 0, 62, 93
2, 28920, Note_on_c, 0, 64, 93
2, 28923, Note_on_c, 0, 62, 0
2, 29100, Note_on_c, 0, 70, 89
2, 29105, Note_on_c, 0, 64, 0
2, 29160, Note_on_c, 0, 69, 89
2, 29161, Note_on_c, 0, 70, 0
2, 29220, Note_on_c, 0, 69, 0
2, 29220, Note_on_c, 0, 67, 89
2, 29280, Note_on_c, 0, 77, 93
2, 29280, Note_on_c, 0, 65, 93
2, 29283, Note_on_c, 0, 67, 0
2, 29395, Note_on_c, 0, 65, 0
2, 29400, Note_on_c, 0, 70, 93
2, 29508, Note_on_c, 0, 77, 0
2, 29520, Note_on_c, 0, 74, 93
2, 29520, Note_on_c, 0, 62, 89
2, 29521, Note_on_c, 0, 70, 0
2, 29580, Note_on_c, 0, 65, 93
2, 29582, Note_on_c, 0, 62, 0
2, 29700, Note_on_c, 0, 72, 80
2, 29712, Note_on_c, 0, 74, 0
2, 29730, Note_on_c, 0, 70, 59
2, 29733, Note_on_c, 0, 72, 0
2, 29760, Note_on_c, 0, 69, 80
2, 29760, Note_on_c, 0, 63, 89
2, 29761, Note_on_c, 0, 70, 0
2, 29763, Note_on_c, 0, 65, 0
2, 29820, Note_on_c, 0, 70, 85
2, 29820, Note_on_c, 0, 62, 89
2, 29822, Note_on_c, 0, 69, 0
2, 29823, Note_on_c, 0, 63, 0
2, 29880, Note_on_c, 0, 62, 0
2, 29880, Note_on_c, 0, 72, 89
2, 29880, Note_on_c, 0, 60, 89
2, 29887, Note_on_c, 0, 70, 0
2, 29940, Note_on_c, 0, 58, 85
2, 29943, Note_on_c, 0, 60, 0
2, 30000, Note_on_c, 0, 57, 93
2, 30001, Note_on_c, 0, 58, 0
2, 30058, Note_on_c, 0, 72, 0
2, 30060, Note_on_c, 0, 79, 89
2, 30120, Note_on_c, 0, 77, 80
2, 30124, Note_on_c, 0, 79, 0
2, 30180, Note_on_c, 0, 75, 85
2, 30193, Note_on_c, 0, 57, 0
2, 30194, Note_on_c, 0, 77, 0
2, 30240, Note_on_c, 0, 74, 89
2, 30240, Note_on_c, 0, 58, 93
2, 30242, Note_on_c, 0, 75, 0
2, 30300, Note_on_c, 0, 65, 93
2, 30302, Note_on_c, 0, 58, 0
2, 30360, Note_on_c, 0, 70, 85
2, 30363, Note_on_c, 0, 65, 0
2, 30378, Note_on_c, 0, 74, 0
2, 30420, Note_on_c, 0, 74, 85
2, 30480, Note_on_c, 0, 72, 85
2, 30485, Note_on_c, 0, 74, 0
2, 30536, Note_on_c, 0, 70, 0
2, 30540, Note_on_c, 0, 67, 93
2, 30600, Note_on_c, 0, 68, 93
2, 30612, Note_on_c, 0, 67, 0
2, 30660, Note_on_c, 0, 77, 89
2, 30665, Note_on_c, 0, 72, 0
2, 30720, Note_on_c, 0, 70, 89
2, 30728, Note_on_c, 0, 77, 0
2, 30776, Note_on_c, 0, 68, 0
2, 30780, Note_on_c, 0, 65, 89
2, 30840, Note_on_c, 0, 67, 93
2, 30843, Note_on_c, 0, 65, 0
2, 30900, Note_on_c, 0, 75, 76
2, 30902, Note_on_c, 0, 70, 0
2, 30960, Note_on_c, 0, 68, 89
2, 30964, Note_on_c, 0, 75, 0
2, 31017, Note_on_c, 0, 67, 0
2, 31020, Note_on_c, 0, 63, 76
2, 31080, Note_on_c, 0, 65, 89
2, 31092, Note_on_c, 0, 63, 0
2, 31130, Note_on_c, 0, 68, 0
2, 31140, Note_on_c, 0, 70, 85
2, 31140, Note_on_c, 0, 67, 76
2, 31141, Note_on_c, 0, 65, 0
2, 31170, Note_on_c, 0, 68, 85
2, 31170, Note_on_c, 0, 65, 72
2, 31174, Note_on_c, 0, 67, 0
2, 31176, Note_on_c, 0, 70, 0
2, 31200, Note_on_c, 0, 67, 93
2, 31200, Note_on_c, 0, 63, 98
2, 31203, Note_on_c, 0, 65, 0
2, 31204, Note_on_c, 0, 68, 0
2, 31320, Note_on_c, 0, 75, 89
2, 31320, Note_on_c, 0, 67, 98
2, 31321, Note_on_c, 0, 67, 0
2, 31324, Note_on_c, 0, 63, 0
2, 31436, Note_on_c, 0, 67, 0
2, 31440, Note_on_c, 0, 68, 80
2, 31500, Note_on_c, 0, 72, 76
2, 31500, Note_on_c, 0, 63, 85
2, 31504, Note_on_c, 0, 75, 0
2, 31505, Note_on_c, 0, 68, 0
2, 31530, Note_on_c, 0, 70, 72
2, 31530, Note_on_c, 0, 61, 76
2, 31535, Note_on_c, 0, 63, 0
2, 31539, Note_on_c, 0, 72, 0
2, 31560, Note_on_c, 0, 68, 76
2, 31560, Note_on_c, 0, 60, 76
2, 31562, Note_on_c, 0, 70, 0
2, 31562, Note_on_c, 0, 61, 0
2, 31620, Note_on_c, 0, 70, 80
2, 31620, Note_on_c, 0, 61, 76
2, 31624, Note_on_c, 0, 60, 0
2, 31633, Note_on_c, 0, 68, 0
2, 31650, Note_on_c, 0, 72, 80
2, 31650, Note_on_c, 0, 63, 93
2, 31652, Note_on_c, 0, 61, 0
2, 31654, Note_on_c, 0, 70, 0
2, 31676, Note_on_c, 0, 63, 0
2, 31680, Note_on_c, 0, 73, 80
2, 31680, Note_on_c, 0, 65, 93
2, 31685, Note_on_c, 0, 72, 0
2, 31737, Note_on_c, 0, 73, 0
2, 31740, Note_on_c, 0, 72, 89
2, 31740, Note_on_c, 0, 63, 80
2, 31749, Note_on_c, 0, 65, 0
2, 31800, Note_on_c, 0, 70, 80
2, 31800, Note_on_c, 0, 61, 80
2, 31803, Note_on_c, 0, 63, 0
2, 31806, Note_on_c, 0, 72, 0
2, 31859, Note_on_c, 0, 70, 0
2, 31859, Note_on_c, 0, 61, 0
2, 31860, Note_on_c, 0, 68, 76
2, 31860, Note_on_c, 0, 60, 85
2, 31920, Note_on_c, 0, 60, 0
2, 31920, Note_on_c, 0, 67, 93
2, 31920, Note_on_c, 0, 58, 89
2, 31926, Note_on_c, 0, 68, 0
2, 32156, Note_on_c, 0, 58, 0
2, 32160, Note_on_c, 0, 75, 93
2, 32160, Note_on_c, 0, 66, 80
2, 32164, Note_on_c, 0, 67, 0
2, 32217, Note_on_c, 0, 66, 0
2, 32220, Note_on_c, 0, 73, 80
2, 32220, Note_on_c, 0, 65, 93
2, 32231, Note_on_c, 0, 75, 0
2, 32280, Note_on_c, 0, 73, 0
2, 32280, Note_on_c, 0, 72, 85
2, 32280, Note_on_c, 0, 63, 85
2, 32289, Note_on_c, 0, 65, 0
2, 32340, Note_on_c, 0, 70, 76
2, 32340, Note_on_c, 0, 61, 89
2, 32346, Note_on_c, 0, 72, 0
2, 32349, Note_on_c, 0, 63, 0
2, 32400, Note_on_c, 0, 69, 89
2, 32400, Note_on_c, 0, 60, 93
2, 32404, Note_on_c, 0, 61, 0
2, 32409, Note_on_c, 0, 70, 0
2, 32616, Note_on_c, 0, 60, 0
2, 32626, Note_on_c, 0, 69, 0
2, 32640, Note_on_c, 0, 77, 89
2, 32640, Note_on_c, 0, 68, 98
2, 32700, Note_on_c, 0, 75, 72
2, 32700, Note_on_c, 0, 67, 93
2, 32703, Note_on_c, 0, 68, 0
2, 32710, Note_on_c, 0, 77, 0
2, 32760, Note_on_c, 0, 74, 89
2, 32760, Note_on_c, 0, 65, 89
2, 32762, Note_on_c, 0, 67, 0
2, 32763, Note_on_c, 0, 75, 0
2, 32820, Note_on_c, 0, 72, 89
2, 32820, Note_on_c, 0, 63, 98
2, 32822, Note_on_c, 0, 74, 0
2, 32830, Note_on_c, 0, 65, 0
2, 32880, Note_on_c, 0, 71, 98
2, 32880, Note_on_c, 0, 62, 93
2, 32881, Note_on_c, 0, 63, 0
2, 32893, Note_on_c, 0, 72, 0
2, 33111, Note_on_c, 0, 62, 0
2, 33120, Note_on_c, 0, 72, 93
2, 33120, Note_on_c, 0, 60, 93
2, 33124, Note_on_c, 0, 71, 0
2, 33371, Note_on_c, 0, 72, 0
2, 33376, Note_on_c, 0, 60, 0
2, 33600, Note_on_c, 0, 74, 107
2, 33840, Note_on_c, 0, 70, 89
2, 33842, Note_on_c, 0, 74, 0
2, 34020, Note_on_c, 0, 69, 76
2, 34021, Note_on_c, 0, 70, 0
2, 34047, Note_on_c, 0, 69, 0
2, 34050, Note_on_c, 0, 67, 89
2, 34080, Note_on_c, 0, 66, 93
2, 34080, Note_on_c, 0, 62, 98
2, 34087, Note_on_c, 0, 67, 0
2, 34136, Note_on_c, 0, 66, 0
2, 34140, Note_on_c, 0, 67, 89
2, 34200, Note_on_c, 0, 69, 98
2, 34201, Note_on_c, 0, 67, 0
2, 34318, Note_on_c, 0, 69, 0
2, 34320, Note_on_c, 0, 62, 0
2, 34320, Note_on_c, 0, 70, 89
2, 34320, Note_on_c, 0, 67, 98
2, 34376, Note_on_c, 0, 70, 0
2, 34380, Note_on_c, 0, 72, 89
2, 34440, Note_on_c, 0, 74, 89
2, 34452, Note_on_c, 0, 72, 0
2, 34500, Note_on_c, 0, 69, 89
2, 34505, Note_on_c, 0, 67, 0
2, 34530, Note_on_c, 0, 70, 89
2, 34539, Note_on_c, 0, 69, 0
2, 34559, Note_on_c, 0, 74, 0
2, 34560, Note_on_c, 0, 69, 93
2, 34572, Note_on_c, 0, 70, 0
2, 34620, Note_on_c, 0, 69, 0
2, 34620, Note_on_c, 0, 67, 89
2, 34680, Note_on_c, 0, 65, 93
2, 34683, Note_on_c, 0, 67, 0
2, 34859, Note_on_c, 0, 65, 0
2, 34860, Note_on_c, 0, 64, 93
2, 34920, Note_on_c, 0, 65, 89
2, 34929, Note_on_c, 0, 64, 0
2, 34980, Note_on_c, 0, 67, 85
2, 34985, Note_on_c, 0, 65, 0
2, 35040, Note_on_c, 0, 69, 107
2, 35040, Note_on_c, 0, 69, 85
2, 35045, Note_on_c, 0, 67, 0
2, 35100, Note_on_c, 0, 69, 0
2, 35100, Note_on_c, 0, 64, 85
2, 35160, Note_on_c, 0, 69, 89
2, 35167, Note_on_c, 0, 64, 0
2, 35266, Note_on_c, 0, 69, 0
2, 35280, Note_on_c, 0, 69, 0
2, 35280, Note_on_c, 0, 70, 89
2, 35280, Note_on_c, 0, 67, 93
2, 35400, Note_on_c, 0, 65, 93
2, 35404, Note_on_c, 0, 67, 0
2, 35460, Note_on_c, 0, 72, 80
2, 35466, Note_on_c, 0, 70, 0
2, 35490, Note_on_c, 0, 72, 0
2, 35490, Note_on_c, 0, 74, 80
2, 35520, Note_on_c, 0, 72, 76
2, 35520, Note_on_c, 0, 64, 98
2, 35523, Note_on_c, 0, 65, 0
2, 35533, Note_on_c, 0, 74, 0
2, 35579, Note_on_c, 0, 72, 0
2, 35580, Note_on_c, 0, 70, 72
2, 35640, Note_on_c, 0, 69, 89
2, 35642, Note_on_c, 0, 70, 0
2, 35700, Note_on_c, 0, 65, 89
2, 35706, Note_on_c, 0, 64, 0
2, 35730, Note_on_c, 0, 64, 89
2, 35735, Note_on_c, 0, 65, 0
2, 35760, Note_on_c, 0, 64, 0
2, 35760, Note_on_c, 0, 65, 89
2, 35820, Note_on_c, 0, 67, 89
2, 35826, Note_on_c, 0, 69, 0
2, 35880, Note_on_c, 0, 69, 89
2, 35883, Note_on_c, 0, 67, 0
2, 35937, Note_on_c, 0, 69, 0
2, 35940, Note_on_c, 0, 71, 89
2, 36000, Note_on_c, 0, 72, 93
2, 36000, Note_on_c, 0, 64, 93
2, 36003, Note_on_c, 0, 71, 0
2, 36007, Note_on_c, 0, 65, 0
2, 36058, Note_on_c, 0, 72, 0
2, 36060, Note_on_c, 0, 74, 89
2, 36120, Note_on_c, 0, 76, 93
2, 36121, Note_on_c, 0, 74, 0
2, 36239, Note_on_c, 0, 64, 0
2, 36290, Note_on_c, 0, 76, 0
2, 36300, Note_on_c, 0, 77, 76
2, 36330, Note_on_c, 0, 76, 76
2, 36349, Note_on_c, 0, 77, 0
2, 36360, Note_on_c, 0, 74, 76
2, 36366, Note_on_c, 0, 76, 0
2, 36389, Note_on_c, 0, 74, 0
2, 36390, Note_on_c, 0, 72, 80
2, 36420, Note_on_c, 0, 71, 76
2, 36427, Note_on_c, 0, 72, 0
2, 36450, Note_on_c, 0, 69, 80
2, 36455, Note_on_c, 0, 71, 0
2, 36480, Note_on_c, 0, 68, 107
2, 36482, Note_on_c, 0, 69, 0
2, 36591, Note_on_c, 0, 68, 0
2, 36600, Note_on_c, 0, 69, 93
2, 36739, Note_on_c, 0, 69, 0
2, 36780, Note_on_c, 0, 75, 76
2, 36810, Note_on_c, 0, 74, 80
2, 36823, Note_on_c, 0, 75, 0
2, 36839, Note_on_c, 0, 74, 0
2, 36840, Note_on_c, 0, 72, 80
2, 36870, Note_on_c, 0, 72, 0
2, 36870, Note_on_c, 0, 70, 68
2, 36900, Note_on_c, 0, 69, 76
2, 36902, Note_on_c, 0, 70, 0
2, 36928, Note_on_c, 0, 69, 0
2, 36930, Note_on_c, 0, 67, 56
2, 36960, Note_on_c, 0, 67, 0
2, 36960, Note_on_c, 0, 66, 89
2, 37079, Note_on_c, 0, 66, 0
2, 37080, Note_on_c, 0, 67, 93
2, 37199, Note_on_c, 0, 67, 0
2, 37200, Note_on_c, 0, 74, 80
2, 37200, Note_on_c, 0, 60, 93
2, 37214, Note_on_c, 0, 74, 0
2, 37215, Note_on_c, 0, 72, 89
2, 37229, Note_on_c, 0, 72, 0
2, 37230, Note_on_c, 0, 74, 76
2, 37244, Note_on_c, 0, 74, 0
2, 37245, Note_on_c, 0, 72, 80
2, 37259, Note_on_c, 0, 72, 0
2, 37260, Note_on_c, 0, 74, 76
2, 37274, Note_on_c, 0, 74, 0
2, 37275, Note_on_c, 0, 72, 64
2, 37289, Note_on_c, 0, 72, 0
2, 37290, Note_on_c, 0, 74, 72
2, 37304, Note_on_c, 0, 74, 0
2, 37305, Note_on_c, 0, 72, 72
2, 37319, Note_on_c, 0, 72, 0
2, 37320, Note_on_c, 0, 74, 68
2, 37334, Note_on_c, 0, 74, 0
2, 37335, Note_on_c, 0, 72, 68
2, 37349, Note_on_c, 0, 72, 0
2, 37350, Note_on_c, 0, 74, 76
2, 37364, Note_on_c, 0, 74, 0
2, 37365, Note_on_c, 0, 72, 80
2, 37379, Note_on_c, 0, 72, 0
2, 37380, Note_on_c, 0, 71, 89
2, 37409, Note_on_c, 0, 71, 0
2, 37410, Note_on_c, 0, 72, 76
2, 37431, Note_on_c, 0, 60, 0
2, 37439, Note_on_c, 0, 72, 0
2, 37440, Note_on_c, 0, 74, 93
2, 37440, Note_on_c, 0, 65, 93
2, 37495, Note_on_c, 0, 74, 0
2, 37500, Note_on_c, 0, 75, 64
2, 37560, Note_on_c, 0, 75, 0
2, 37560, Note_on_c, 0, 77, 89
2, 37620, Note_on_c, 0, 67, 85
2, 37623, Note_on_c, 0, 65, 0
2, 37650, Note_on_c, 0, 68, 68
2, 37655, Note_on_c, 0, 67, 0
2, 37680, Note_on_c, 0, 67, 76
2, 37684, Note_on_c, 0, 68, 0
2, 37729, Note_on_c, 0, 77, 0
2, 37740, Note_on_c, 0, 74, 80
2, 37740, Note_on_c, 0, 65, 76
2, 37743, Note_on_c, 0, 67, 0
2, 37800, Note_on_c, 0, 72, 85
2, 37800, Note_on_c, 0, 63, 85
2, 37803, Note_on_c, 0, 74, 0
2, 37805, Note_on_c, 0, 65, 0
2, 37920, Note_on_c, 0, 62, 93
2, 37922, Note_on_c, 0, 63, 0
2, 38040, Note_on_c, 0, 70, 89
2, 38049, Note_on_c, 0, 72, 0
2, 38160, Note_on_c, 0, 64, 93
2, 38164, Note_on_c, 0, 62, 0
2, 38277, Note_on_c, 0, 70, 0
2, 38280, Note_on_c, 0, 69, 93
2, 38340, Note_on_c, 0, 69, 0
2, 38340, Note_on_c, 0, 67, 76
2, 38387, Note_on_c, 0, 67, 0
2, 38400, Note_on_c, 0, 64, 0
2, 38400, Note_on_c, 0, 62, 89
2, 38400, Note_on_c, 0, 67, 89
2, 38513, Note_on_c, 0, 67, 0
2, 38520, Note_on_c, 0, 66, 80
2, 38575, Note_on_c, 0, 66, 0
2, 38580, Note_on_c, 0, 64, 49
2, 38640, Note_on_c, 0, 64, 0
2, 38640, Note_on_c, 0, 66, 93
2, 39360, Note_on_c, 0, 66, 0
2, 39360, Note_on_c, 0, 62, 0
2, 40080, Note_on_c, 0, 74, 102
2, 40317, Note_on_c, 0, 74, 0
2, 40320, Note_on_c, 0, 70, 93
2, 40500, Note_on_c, 0, 69, 89
2, 40509, Note_on_c, 0, 70, 0
2, 40529, Note_on_c, 0, 69, 0
2, 40530, Note_on_c, 0, 67, 76
2, 40560, Note_on_c, 0, 66, 93
2, 40567, Note_on_c, 0, 67, 0
2, 40617, Note_on_c, 0, 66, 0
2, 40620, Note_on_c, 0, 67, 89
2, 40674, Note_on_c, 0, 67, 0
2, 40680, Note_on_c, 0, 69, 93
2, 40860, Note_on_c, 0, 75, 85
2, 40864, Note_on_c, 0, 69, 0
2, 40920, Note_on_c, 0, 75, 0
2, 40920, Note_on_c, 0, 74, 89
2, 40980, Note_on_c, 0, 72, 85
2, 40988, Note_on_c, 0, 74, 0
2, 41040, Note_on_c, 0, 70, 85
2, 41040, Note_on_c, 0, 67, 89
2, 41044, Note_on_c, 0, 72, 0
2, 41100, Note_on_c, 0, 70, 0
2, 41100, Note_on_c, 0, 72, 89
2, 41158, Note_on_c, 0, 72, 0
2, 41160, Note_on_c, 0, 74, 89
2, 41220, Note_on_c, 0, 72, 76
2, 41229, Note_on_c, 0, 74, 0
2, 41250, Note_on_c, 0, 70, 62
2, 41255, Note_on_c, 0, 72, 0
2, 41279, Note_on_c, 0, 70, 0
2, 41279, Note_on_c, 0, 67, 0
2, 41280, Note_on_c, 0, 69, 85
2, 41280, Note_on_c, 0, 65, 93
2, 41340, Note_on_c, 0, 71, 93
2, 41344, Note_on_c, 0, 69, 0
2, 41370, Note_on_c, 0, 73, 68
2, 41373, Note_on_c, 0, 71, 0
2, 41397, Note_on_c, 0, 73, 0
2, 41400, Note_on_c, 0, 74, 98
2, 41457, Note_on_c, 0, 65, 0
2, 41460, Note_on_c, 0, 64, 85
2, 41490, Note_on_c, 0, 62, 72
2, 41493, Note_on_c, 0, 64, 0
2, 41517, Note_on_c, 0, 74, 0
2, 41520, Note_on_c, 0, 76, 93
2, 41520, Note_on_c, 0, 61, 85
2, 41525, Note_on_c, 0, 62, 0
2, 41573, Note_on_c, 0, 61, 0
2, 41580, Note_on_c, 0, 76, 0
2, 41580, Note_on_c, 0, 74, 89
2, 41580, Note_on_c, 0, 62, 85
2, 41639, Note_on_c, 0, 62, 0
2, 41640, Note_on_c, 0, 79, 93
2, 41640, Note_on_c, 0, 64, 89
2, 41644, Note_on_c, 0, 74, 0
2, 41700, Note_on_c, 0, 77, 76
2, 41700, Note_on_c, 0, 65, 76
2, 41705, Note_on_c, 0, 79, 0
2, 41712, Note_on_c, 0, 64, 0
2, 41730, Note_on_c, 0, 76, 76
2, 41730, Note_on_c, 0, 67, 80
2, 41731, Note_on_c, 0, 65, 0
2, 41736, Note_on_c, 0, 77, 0
2, 41757, Note_on_c, 0, 67, 0
2, 41760, Note_on_c, 0, 74, 102
2, 41760, Note_on_c, 0, 65, 51
2, 41761, Note_on_c, 0, 76, 0
2, 41820, Note_on_c, 0, 69, 85
2, 41827, Note_on_c, 0, 65, 0
2, 41850, Note_on_c, 0, 67, 80
2, 41851, Note_on_c, 0, 69, 0
2, 41880, Note_on_c, 0, 65, 80
2, 41884, Note_on_c, 0, 67, 0
2, 41940, Note_on_c, 0, 64, 72
2, 41952, Note_on_c, 0, 65, 0
2, 41970, Note_on_c, 0, 64, 0
2, 41970, Note_on_c, 0, 62, 72
2, 41999, Note_on_c, 0, 62, 0
2, 42000, Note_on_c, 0, 69, 93
2, 42006, Note_on_c, 0, 74, 0
2, 42229, Note_on_c, 0, 69, 0
2, 42240, Note_on_c, 0, 67, 89
2, 42300, Note_on_c, 0, 66, 80
2, 42305, Note_on_c, 0, 67, 0
2, 42358, Note_on_c, 0, 66, 0
2, 42360, Note_on_c, 0, 67, 93
2, 42418, Note_on_c, 0, 67, 0
2, 42420, Note_on_c, 0, 69, 93
2, 42480, Note_on_c, 0, 70, 89
2, 42489, Note_on_c, 0, 69, 0
2, 42599, Note_on_c, 0, 70, 0
2, 42600, Note_on_c, 0, 69, 93
2, 42660, Note_on_c, 0, 67, 80
2, 42662, Note_on_c, 0, 69, 0
2, 42718, Note_on_c, 0, 67, 0
2, 42720, Note_on_c, 0, 65, 89
2, 42900, Note_on_c, 0, 67, 93
2, 42901, Note_on_c, 0, 65, 0
2, 42960, Note_on_c, 0, 68, 80
2, 42969, Note_on_c, 0, 67, 0
2, 43080, Note_on_c, 0, 67, 89
2, 43084, Note_on_c, 0, 68, 0
2, 43140, Note_on_c, 0, 65, 85
2, 43144, Note_on_c, 0, 67, 0
2, 43200, Note_on_c, 0, 67, 93
2, 43200, Note_on_c, 0, 63, 76
2, 43207, Note_on_c, 0, 65, 0
2, 43435, Note_on_c, 0, 67, 0
2, 43440, Note_on_c, 0, 72, 98
2, 43449, Note_on_c, 0, 63, 0
2, 43620, Note_on_c, 0, 74, 89
2, 43622, Note_on_c, 0, 72, 0
2, 43650, Note_on_c, 0, 75, 68
2, 43651, Note_on_c, 0, 74, 0
2, 43673, Note_on_c, 0, 75, 0
2, 43680, Note_on_c, 0, 77, 76
2, 43740, Note_on_c, 0, 75, 76
2, 43755, Note_on_c, 0, 77, 0
2, 43800, Note_on_c, 0, 74, 98
2, 43807, Note_on_c, 0, 75, 0
2, 43980, Note_on_c, 0, 71, 85
2, 43981, Note_on_c, 0, 74, 0
2, 44040, Note_on_c, 0, 72, 89
2, 44047, Note_on_c, 0, 71, 0
2, 44100, Note_on_c, 0, 74, 89
2, 44106, Note_on_c, 0, 72, 0
2, 44160, Note_on_c, 0, 75, 93
2, 44160, Note_on_c, 0, 60, 102
2, 44167, Note_on_c, 0, 74, 0
2, 44340, Note_on_c, 0, 74, 89
2, 44347, Note_on_c, 0, 75, 0
2, 44397, Note_on_c, 0, 60, 0
2, 44400, Note_on_c, 0, 72, 89
2, 44400, Note_on_c, 0, 66, 89
2, 44411, Note_on_c, 0, 74, 0
2, 44520, Note_on_c, 0, 74, 98
2, 44524, Note_on_c, 0, 72, 0
2, 44565, Note_on_c, 0, 66, 0
2, 44580, Note_on_c, 0, 67, 93
2, 44610, Note_on_c, 0, 69, 89
2, 44617, Note_on_c, 0, 67, 0
2, 44640, Note_on_c, 0, 70, 80
2, 44642, Note_on_c, 0, 69, 0
2, 44700, Note_on_c, 0, 69, 85
2, 44708, Note_on_c, 0, 70, 0
2, 44742, Note_on_c, 0, 74, 0
2, 44760, Note_on_c, 0, 74, 93
2, 44760, Note_on_c, 0, 67, 89
2, 44762, Note_on_c, 0, 69, 0
2, 44936, Note_on_c, 0, 67, 0
2, 44940, Note_on_c, 0, 66, 80
2, 44985, Note_on_c, 0, 74, 0
2, 45000, Note_on_c, 0, 66, 0
2, 45000, Note_on_c, 0, 72, 93
2, 45000, Note_on_c, 0, 67, 89
2, 45060, Note_on_c, 0, 69, 85
2, 45063, Note_on_c, 0, 67, 0
2, 45117, Note_on_c, 0, 72, 0
2, 45119, Note_on_c, 0, 69, 0
2, 45120, Note_on_c, 0, 74, 89
2, 45120, Note_on_c, 0, 66, 76
2, 45220, Note_on_c, 0, 66, 0
2, 45240, Note_on_c, 0, 62, 89
2, 45246, Note_on_c, 0, 74, 0
2, 45360, Note_on_c, 0, 74, 93
2, 45420, Note_on_c, 0, 58, 76
2, 45436, Note_on_c, 0, 62, 0
2, 45450, Note_on_c, 0, 58, 0
2, 45450, Note_on_c, 0, 57, 89
2, 45480, Note_on_c, 0, 55, 76
2, 45481, Note_on_c, 0, 57, 0
2, 45540, Note_on_c, 0, 72, 85
2, 45552, Note_on_c, 0, 74, 0
2, 45570, Note_on_c, 0, 70, 60
2, 45573, Note_on_c, 0, 72, 0
2, 45577, Note_on_c, 0, 55, 0
2, 45599, Note_on_c, 0, 70, 0
2, 45600, Note_on_c, 0, 69, 80
2, 45720, Note_on_c, 0, 72, 98
2, 45722, Note_on_c, 0, 69, 0
2, 45900, Note_on_c, 0, 69, 85
2, 45906, Note_on_c, 0, 72, 0
2, 45929, Note_on_c, 0, 69, 0
2, 45930, Note_on_c, 0, 67, 72
2, 45960, Note_on_c, 0, 74, 93
2, 45960, Note_on_c, 0, 66, 80
2, 45963, Note_on_c, 0, 67, 0
2, 46079, Note_on_c, 0, 66, 0
2, 46140, Note_on_c, 0, 70, 76
2, 46159, Note_on_c, 0, 74, 0
2, 46167, Note_on_c, 0, 70, 0
2, 46170, Note_on_c, 0, 69, 72
2, 46196, Note_on_c, 0, 69, 0
2, 46200, Note_on_c, 0, 67, 93
2, 46200, Note_on_c, 0, 67, 93
2, 46317, Note_on_c, 0, 67, 0
2, 46380, Note_on_c, 0, 64, 80
2, 46381, Note_on_c, 0, 67, 0
2, 46410, Note_on_c, 0, 62, 68
2, 46413, Note_on_c, 0, 64, 0
2, 46440, Note_on_c, 0, 61, 89
2, 46449, Note_on_c, 0, 62, 0
2, 46544, Note_on_c, 0, 61, 0
2, 46560, Note_on_c, 0, 62, 98
2, 46680, Note_on_c, 0, 74, 98
2, 46800, Note_on_c, 0, 63, 85
2, 46804, Note_on_c, 0, 62, 0
2, 46860, Note_on_c, 0, 72, 76
2, 46861, Note_on_c, 0, 74, 0
2, 46890, Note_on_c, 0, 71, 80
2, 46895, Note_on_c, 0, 72, 0
2, 46918, Note_on_c, 0, 71, 0
2, 46920, Note_on_c, 0, 72, 89
2, 47040, Note_on_c, 0, 63, 0
2, 47040, Note_on_c, 0, 62, 93
2, 47100, Note_on_c, 0, 70, 76
2, 47107, Note_on_c, 0, 72, 0
2, 47130, Note_on_c, 0, 69, 80
2, 47135, Note_on_c, 0, 70, 0
2, 47160, Note_on_c, 0, 70, 68
2, 47165, Note_on_c, 0, 69, 0
2, 47280, Note_on_c, 0, 63, 85
2, 47293, Note_on_c, 0, 62, 0
2, 47340, Note_on_c, 0, 69, 85
2, 47355, Note_on_c, 0, 70, 0
2, 47370, Note_on_c, 0, 67, 89
2, 47371, Note_on_c, 0, 69, 0
2, 47400, Note_on_c, 0, 69, 89
2, 47403, Note_on_c, 0, 67, 0
2, 47460, Note_on_c, 0, 63, 0
2, 47460, Note_on_c, 0, 62, 89
2, 47490, Note_on_c, 0, 60, 64
2, 47496, Note_on_c, 0, 62, 0
2, 47520, Note_on_c, 0, 62, 89
2, 47527, Note_on_c, 0, 60, 0
2, 47580, Note_on_c, 0, 67, 76
2, 47583, Note_on_c, 0, 69, 0
2, 47610, Note_on_c, 0, 66, 72
2, 47611, Note_on_c, 0, 67, 0
2, 47640, Note_on_c, 0, 67, 93
2, 47643, Note_on_c, 0, 66, 0
2, 47820, Note_on_c, 0, 65, 85
2, 47826, Note_on_c, 0, 67, 0
2, 47849, Note_on_c, 0, 65, 0
2, 47850, Note_on_c, 0, 64, 80
2, 47880, Note_on_c, 0, 65, 85
2, 47881, Note_on_c, 0, 64, 0
2, 47940, Note_on_c, 0, 60, 85
2, 47946, Note_on_c, 0, 62, 0
2, 48000, Note_on_c, 0, 67, 93
2, 48000, Note_on_c, 0, 59, 98
2, 48008, Note_on_c, 0, 60, 0
2, 48012, Note_on_c, 0, 65, 0
2, 48116, Note_on_c, 0, 67, 0
2, 48120, Note_on_c, 0, 79, 93
2, 48136, Note_on_c, 0, 59, 0
2, 48240, Note_on_c, 0, 75, 93
2, 48240, Note_on_c, 0, 67, 89
2, 48251, Note_on_c, 0, 79, 0
2, 48417, Note_on_c, 0, 67, 0
2, 48419, Note_on_c, 0, 75, 0
2, 48420, Note_on_c, 0, 74, 72
2, 48420, Note_on_c, 0, 65, 80
2, 48450, Note_on_c, 0, 72, 62
2, 48450, Note_on_c, 0, 63, 62
2, 48451, Note_on_c, 0, 74, 0
2, 48455, Note_on_c, 0, 65, 0
2, 48480, Note_on_c, 0, 71, 93
2, 48480, Note_on_c, 0, 62, 93
2, 48481, Note_on_c, 0, 63, 0
2, 48492, Note_on_c, 0, 72, 0
2, 48540, Note_on_c, 0, 72, 85
2, 48540, Note_on_c, 0, 63, 76
2, 48545, Note_on_c, 0, 71, 0
2, 48551, Note_on_c, 0, 62, 0
2, 48597, Note_on_c, 0, 63, 0
2, 48600, Note_on_c, 0, 74, 89
2, 48600, Note_on_c, 0, 65, 85
2, 48602, Note_on_c, 0, 72, 0
2, 48660, Note_on_c, 0, 71, 85
2, 48660, Note_on_c, 0, 62, 85
2, 48662, Note_on_c, 0, 65, 0
2, 48666, Note_on_c, 0, 74, 0
2, 48714, Note_on_c, 0, 71, 0
2, 48720, Note_on_c, 0, 72, 89
2, 48720, Note_on_c, 0, 63, 76
2, 48722, Note_on_c, 0, 62, 0
2, 48780, Note_on_c, 0, 74, 85
2, 48780, Note_on_c, 0, 65, 89
2, 48783, Note_on_c, 0, 63, 0
2, 48786, Note_on_c, 0, 72, 0
2, 48839, Note_on_c, 0, 65, 0
2, 48840, Note_on_c, 0, 75, 89
2, 48840, Note_on_c, 0, 67, 85
2, 48845, Note_on_c, 0, 74, 0
2, 48960, Note_on_c, 0, 74, 93
2, 48966, Note_on_c, 0, 75, 0
2, 49019, Note_on_c, 0, 67, 0
2, 49020, Note_on_c, 0, 68, 89
2, 49080, Note_on_c, 0, 67, 93
2, 49084, Note_on_c, 0, 68, 0
2, 49138, Note_on_c, 0, 67, 0
2, 49140, Note_on_c, 0, 65, 85
2, 49200, Note_on_c, 0, 63, 80
2, 49207, Note_on_c, 0, 65, 0
2, 49256, Note_on_c, 0, 63, 0
2, 49260, Note_on_c, 0, 65, 89
2, 49320, Note_on_c, 0, 72, 93
2, 49320, Note_on_c, 0, 67, 85
2, 49321, Note_on_c, 0, 65, 0
2, 49333, Note_on_c, 0, 74, 0
2, 49380, Note_on_c, 0, 65, 76
2, 49385, Note_on_c, 0, 67, 0
2, 49410, Note_on_c, 0, 63, 76
2, 49413, Note_on_c, 0, 65, 0
2, 49439, Note_on_c, 0, 63, 0
2, 49440, Note_on_c, 0, 62, 93
2, 49676, Note_on_c, 0, 72, 0
2, 49680, Note_on_c, 0, 71, 93
2, 49680, Note_on_c, 0, 67, 89
2, 49792, Note_on_c, 0, 71, 0
2, 49794, Note_on_c, 0, 67, 0
2, 49796, Note_on_c, 0, 62, 0
2, 49800, Note_on_c, 0, 69, 89
2, 49800, Note_on_c, 0, 66, 76
2, 49800, Note_on_c, 0, 63, 76
2, 49800, Note_on_c, 0, 60, 89
2, 49905, Note_on_c, 0, 60, 0
2, 49919, Note_on_c, 0, 69, 0
2, 49920, Note_on_c, 0, 59, 98
2, 49920, Note_on_c, 0, 62, 93
2, 49920, Note_on_c, 0, 67, 89
2, 49921, Note_on_c, 0, 66, 0
2, 49922, Note_on_c, 0, 63, 0
2, 50399, Note_on_c, 0, 62, 0
2, 50399, Note_on_c, 0, 59, 0
2, 50400, Note_on_c, 0, 67, 0
2, 50402, Control_c, 0, 121, 0
2, 50402, End_track
3, 0, Start_track
3, 0, MIDI_port, 0
3, 0, Title_t, "Secondo"
3, 0, Program_c, 1, 0
3, 0, Control_c, 1, 121, 0
3, 0, Control_c, 1, 7, 127
3, 0, Control_c, 1, 10, 44
3, 0, Control_c, 1, 91, 101
3, 2400, Note_on_c, 1, 62, 93
3, 2640, Note_on_c, 1, 62, 0
3, 2640, Note_on_c, 1, 58, 89
3, 2820, Note_on_c, 1, 57, 85
3, 2822, Note_on_c, 1, 58, 0
3, 2843, Note_on_c, 1, 57, 0
3, 2850, Note_on_c, 1, 55, 80
3, 2880, Note_on_c, 1, 54, 72
3, 2885, Note_on_c, 1, 55, 0
3, 2938, Note_on_c, 1, 54, 0
3, 2940, Note_on_c, 1, 55, 89
3, 3000, Note_on_c, 1, 57, 102
3, 3001, Note_on_c, 1, 55, 0
3, 3180, Note_on_c, 1, 63, 89
3, 3182, Note_on_c, 1, 57, 0
3, 3239, Note_on_c, 1, 63, 0
3, 3240, Note_on_c, 1, 62, 76
3, 3300, Note_on_c, 1, 60, 76
3, 3305, Note_on_c, 1, 62, 0
3, 3360, Note_on_c, 1, 58, 76
3, 3360, Note_on_c, 1, 55, 102
3, 3367, Note_on_c, 1, 60, 0
3, 3417, Note_on_c, 1, 58, 0
3, 3420, Note_on_c, 1, 57, 80
3, 3480, Note_on_c, 1, 58, 72
3, 3482, Note_on_c, 1, 57, 0
3, 3540, Note_on_c, 1, 60, 76
3, 3543, Note_on_c, 1, 58, 0
3, 3570, Note_on_c, 1, 58, 55
3, 3572, Note_on_c, 1, 60, 0
3, 3599, Note_on_c, 1, 58, 0
3, 3600, Note_on_c, 1, 55, 0
3, 3600, Note_on_c, 1, 57, 80
3, 3600, Note_on_c, 1, 53, 98
3, 3771, Note_on_c, 1, 57, 0
3, 3776, Note_on_c, 1, 53, 0
3, 3780, Note_on_c, 1, 55, 80
3, 3780, Note_on_c, 1, 52, 93
3, 3810, Note_on_c, 1, 53, 76
3, 3810, Note_on_c, 1, 50, 93
3, 3814, Note_on_c, 1, 52, 0
3, 3816, Note_on_c, 1, 55, 0
3, 3839, Note_on_c, 1, 53, 0
3, 3840, Note_on_c, 1, 52, 89
3, 3840, Note_on_c, 1, 49, 76
3, 3849, Note_on_c, 1, 50, 0
3, 3900, Note_on_c, 1, 53, 80
3, 3900, Note_on_c, 1, 50, 93
3, 3901, Note_on_c, 1, 49, 0
3, 3904, Note_on_c, 1, 52, 0
3, 3955, Note_on_c, 1, 53, 0
3, 3960, Note_on_c, 1, 55, 85
3, 3960, Note_on_c, 1, 52, 93
3, 3964, Note_on_c, 1, 50, 0
3, 4092, Note_on_c, 1, 55, 0
3, 4140, Note_on_c, 1, 58, 89
3, 4142, Note_on_c, 1, 52, 0
3, 4200, Note_on_c, 1, 57, 102
3, 4200, Note_on_c, 1, 57, 98
3, 4208, Note_on_c, 1, 58, 0
3, 4260, Note_on_c, 1, 57, 0
3, 4260, Note_on_c, 1, 55, 89
3, 4320, Note_on_c, 1, 53, 93
3, 4325, Note_on_c, 1, 55, 0
3, 4422, Note_on_c, 1, 57, 0
3, 4440, Note_on_c, 1, 57, 93
3, 4555, Note_on_c, 1, 57, 0
3, 4560, Note_on_c, 1, 58, 85
3, 4560, Note_on_c, 1, 52, 89
3, 4565, Note_on_c, 1, 53, 0
3, 4597, Note_on_c, 1, 58, 0
3, 4620, Note_on_c, 1, 58, 80
3, 4680, Note_on_c, 1, 58, 0
3, 4680, Note_on_c, 1, 57, 85
3, 4737, Note_on_c, 1, 57, 0
3, 4740, Note_on_c, 1, 55, 76
3, 4796, Note_on_c, 1, 55, 0
3, 4800, Note_on_c, 1, 57, 93
3, 4800, Note_on_c, 1, 50, 89
3, 4801, Note_on_c, 1, 52, 0
3, 4860, Note_on_c, 1, 48, 89
3, 4861, Note_on_c, 1, 50, 0
3, 4920, Note_on_c, 1, 57, 0
3, 4920, Note_on_c, 1, 62, 93
3, 4920, Note_on_c, 1, 46, 98
3, 4929, Note_on_c, 1, 48, 0
3, 4977, Note_on_c, 1, 62, 0
3, 4980, Note_on_c, 1, 60, 80
3, 4980, Note_on_c, 1, 45, 98
3, 4985, Note_on_c, 1, 46, 0
3, 5040, Note_on_c, 1, 58, 89
3, 5040, Note_on_c, 1, 43, 89
3, 5042, Note_on_c, 1, 60, 0
3, 5045, Note_on_c, 1, 45, 0
3, 5160, Note_on_c, 1, 60, 89
3, 5165, Note_on_c, 1, 58, 0
3, 5264, Note_on_c, 1, 60, 0
3, 5274, Note_on_c, 1, 43, 0
3, 5280, Note_on_c, 1, 60, 85
3, 5280, Note_on_c, 1, 41, 98
3, 5400, Note_on_c, 1, 50, 102
3, 5402, Note_on_c, 1, 41, 0
3, 5460, Note_on_c, 1, 65, 89
3, 5463, Note_on_c, 1, 60, 0
3, 5520, Note_on_c, 1, 63, 72
3, 5520, Note_on_c, 1, 47, 93
3, 5529, Note_on_c, 1, 65, 0
3, 5529, Note_on_c, 1, 50, 0
3, 5580, Note_on_c, 1, 62, 89
3, 5583, Note_on_c, 1, 63, 0
3, 5637, Note_on_c, 1, 47, 0
3, 5640, Note_on_c, 1, 63, 85
3, 5640, Note_on_c, 1, 48, 89
3, 5646, Note_on_c, 1, 62, 0
3, 5760, Note_on_c, 1, 45, 89
3, 5769, Note_on_c, 1, 48, 0
3, 5820, Note_on_c, 1, 60, 89
3, 5821, Note_on_c, 1, 63, 0
3, 5880, Note_on_c, 1, 62, 89
3, 5880, Note_on_c, 1, 46, 89
3, 5881, Note_on_c, 1, 60, 0
3, 5885, Note_on_c, 1, 45, 0
3, 6000, Note_on_c, 1, 43, 85
3, 6004, Note_on_c, 1, 46, 0
3, 6060, Note_on_c, 1, 58, 72
3, 6069, Note_on_c, 1, 62, 0
3, 6120, Note_on_c, 1, 60, 80
3, 6120, Note_on_c, 1, 45, 93
3, 6122, Note_on_c, 1, 58, 0
3, 6124, Note_on_c, 1, 43, 0
3, 6180, Note_on_c, 1, 58, 72
3, 6180, Note_on_c, 1, 43, 89
3, 6181, Note_on_c, 1, 45, 0
3, 6186, Note_on_c, 1, 60, 0
3, 6240, Note_on_c, 1, 57, 85
3, 6240, Note_on_c, 1, 41, 93
3, 6245, Note_on_c, 1, 58, 0
3, 6245, Note_on_c, 1, 43, 0
3, 6360, Note_on_c, 1, 58, 76
3, 6360, Note_on_c, 1, 46, 89
3, 6365, Note_on_c, 1, 41, 0
3, 6367, Note_on_c, 1, 57, 0
3, 6480, Note_on_c, 1, 53, 98
3, 6482, Note_on_c, 1, 46, 0
3, 6587, Note_on_c, 1, 58, 0
3, 6600, Note_on_c, 1, 57, 93
3, 6720, Note_on_c, 1, 58, 76
3, 6723, Note_on_c, 1, 57, 0
3, 6732, Note_on_c, 1, 53, 0
3, 6780, Note_on_c, 1, 53, 72
3, 6786, Note_on_c, 1, 58, 0
3, 6840, Note_on_c, 1, 58, 72
3, 6846, Note_on_c, 1, 53, 0
3, 6957, Note_on_c, 1, 58, 0
3, 6960, Note_on_c, 1, 60, 89
3, 7140, Note_on_c, 1, 58, 76
3, 7146, Note_on_c, 1, 60, 0
3, 7200, Note_on_c, 1, 57, 89
3, 7205, Note_on_c, 1, 58, 0
3, 7440, Note_on_c, 1, 58, 89
3, 7440, Note_on_c, 1, 46, 119
3, 7445, Note_on_c, 1, 57, 0
3, 7678, Note_on_c, 1, 46, 0
3, 7680, Note_on_c, 1, 43, 93
3, 7851, Note_on_c, 1, 43, 0
3, 7857, Note_on_c, 1, 58, 0
3, 7860, Note_on_c, 1, 56, 89
3, 7860, Note_on_c, 1, 41, 93
3, 7890, Note_on_c, 1, 55, 93
3, 7890, Note_on_c, 1, 39, 102
3, 7895, Note_on_c, 1, 56, 0
3, 7900, Note_on_c, 1, 41, 0
3, 7919, Note_on_c, 1, 55, 0
3, 7920, Note_on_c, 1, 53, 72
3, 7920, Note_on_c, 1, 38, 89
3, 7927, Note_on_c, 1, 39, 0
3, 7980, Note_on_c, 1, 55, 89
3, 7980, Note_on_c, 1, 39, 85
3, 7983, Note_on_c, 1, 53, 0
3, 7984, Note_on_c, 1, 38, 0
3, 8036, Note_on_c, 1, 39, 0
3, 8040, Note_on_c, 1, 56, 85
3, 8040, Note_on_c, 1, 41, 89
3, 8045, Note_on_c, 1, 55, 0
3, 8220, Note_on_c, 1, 53, 72
3, 8220, Note_on_c, 1, 44, 89
3, 8226, Note_on_c, 1, 56, 0
3, 8234, Note_on_c, 1, 41, 0
3, 8280, Note_on_c, 1, 55, 85
3, 8280, Note_on_c, 1, 43, 89
3, 8283, Note_on_c, 1, 44, 0
3, 8285, Note_on_c, 1, 53, 0
3, 8336, Note_on_c, 1, 43, 0
3, 8340, Note_on_c, 1, 56, 76
3, 8340, Note_on_c, 1, 41, 93
3, 8348, Note_on_c, 1, 55, 0
3, 8398, Note_on_c, 1, 41, 0
3, 8400, Note_on_c, 1, 55, 89
3, 8400, Note_on_c, 1, 39, 85
3, 8406, Note_on_c, 1, 56, 0
3, 8458, Note_on_c, 1, 55, 0
3, 8460, Note_on_c, 1, 53, 76
3, 8460, Note_on_c, 1, 38, 93
3, 8468, Note_on_c, 1, 39, 0
3, 8520, Note_on_c, 1, 51, 85
3, 8520, Note_on_c, 1, 36, 93
3, 8522, Note_on_c, 1, 53, 0
3, 8523, Note_on_c, 1, 38, 0
3, 8630, Note_on_c, 1, 36, 0
3, 8640, Note_on_c, 1, 48, 93
3, 8647, Note_on_c, 1, 51, 0
3, 8820, Note_on_c, 1, 46, 89
3, 8827, Note_on_c, 1, 48, 0
3, 8850, Note_on_c, 1, 44, 93
3, 8855, Note_on_c, 1, 46, 0
3, 8880, Note_on_c, 1, 43, 102
3, 8882, Note_on_c, 1, 44, 0
3, 9118, Note_on_c, 1, 43, 0
3, 9120, Note_on_c, 1, 44, 98
3, 9360, Note_on_c, 1, 57, 93
3, 9360, Note_on_c, 1, 45, 93
3, 9370, Note_on_c, 1, 44, 0
3, 9599, Note_on_c, 1, 45, 0
3, 9600, Note_on_c, 1, 53, 93
3, 9600, Note_on_c, 1, 50, 102
3, 9601, Note_on_c, 1, 57, 0
3, 9780, Note_on_c, 1, 52, 85
3, 9781, Note_on_c, 1, 53, 0
3, 9806, Note_on_c, 1, 52, 0
3, 9810, Note_on_c, 1, 50, 80
3, 9837, Note_on_c, 1, 50, 0
3, 9840, Note_on_c, 1, 49, 93
3, 9840, Note_on_c, 1, 45, 93
3, 9841, Note_on_c, 1, 50, 0
3, 9900, Note_on_c, 1, 50, 89
3, 9904, Note_on_c, 1, 49, 0
3, 9958, Note_on_c, 1, 50, 0
3, 9960, Note_on_c, 1, 52, 93
3, 10077, Note_on_c, 1, 45, 0
3, 10080, Note_on_c, 1, 45, 102
3, 10135, Note_on_c, 1, 52, 0
3, 10140, Note_on_c, 1, 58, 89
3, 10200, Note_on_c, 1, 57, 93
3, 10203, Note_on_c, 1, 58, 0
3, 10260, Note_on_c, 1, 57, 0
3, 10260, Note_on_c, 1, 55, 89
3, 10314, Note_on_c, 1, 45, 0
3, 10320, Note_on_c, 1, 53, 89
3, 10320, Note_on_c, 1, 38, 89
3, 10324, Note_on_c, 1, 55, 0
3, 10440, Note_on_c, 1, 50, 102
3, 10442, Note_on_c, 1, 38, 0
3, 10455, Note_on_c, 1, 53, 0
3, 10500, Note_on_c, 1, 57, 93
3, 10557, Note_on_c, 1, 57, 0
3, 10560, Note_on_c, 1, 59, 89
3, 10560, Note_on_c, 1, 43, 89
3, 10565, Note_on_c, 1, 50, 0
3, 10676, Note_on_c, 1, 43, 0
3, 10680, Note_on_c, 1, 58, 85
3, 10680, Note_on_c, 1, 48, 93
3, 10686, Note_on_c, 1, 59, 0
3, 10737, Note_on_c, 1, 58, 0
3, 10740, Note_on_c, 1, 55, 89
3, 10800, Note_on_c, 1, 56, 93
3, 10800, Note_on_c, 1, 41, 93
3, 10801, Note_on_c, 1, 55, 0
3, 10805, Note_on_c, 1, 48, 0
3, 11040, Note_on_c, 1, 55, 89
3, 11040, Note_on_c, 1, 43, 93
3, 11041, Note_on_c, 1, 56, 0
3, 11041, Note_on_c, 1, 41, 0
3, 11100, Note_on_c, 1, 57, 93
3, 11103, Note_on_c, 1, 55, 0
3, 11160, Note_on_c, 1, 59, 89
3, 11163, Note_on_c, 1, 57, 0
3, 11220, Note_on_c, 1, 43, 0
3, 11220, Note_on_c, 1, 41, 93
3, 11278, Note_on_c, 1, 59, 0
3, 11280, Note_on_c, 1, 60, 89
3, 11280, Note_on_c, 1, 39, 89
3, 11282, Note_on_c, 1, 41, 0
3, 11340, Note_on_c, 1, 62, 93
3, 11341, Note_on_c, 1, 60, 0
3, 11400, Note_on_c, 1, 63, 85
3, 11404, Note_on_c, 1, 62, 0
3, 11458, Note_on_c, 1, 39, 0
3, 11460, Note_on_c, 1, 38, 93
3, 11516, Note_on_c, 1, 63, 0
3, 11520, Note_on_c, 1, 64, 93
3, 11520, Note_on_c, 1, 36, 93
3, 11530, Note_on_c, 1, 38, 0
3, 11580, Note_on_c, 1, 55, 89
3, 11583, Note_on_c, 1, 64, 0
3, 11634, Note_on_c, 1, 55, 0
3, 11640, Note_on_c, 1, 53, 62
3, 11700, Note_on_c, 1, 52, 85
3, 11704, Note_on_c, 1, 53, 0
3, 11756, Note_on_c, 1, 36, 0
3, 11758, Note_on_c, 1, 52, 0
3, 11760, Note_on_c, 1, 53, 89
3, 11760, Note_on_c, 1, 41, 93
3, 11820, Note_on_c, 1, 55, 89
3, 11821, Note_on_c, 1, 53, 0
3, 11880, Note_on_c, 1, 56, 89
3, 11887, Note_on_c, 1, 55, 0
3, 12000, Note_on_c, 1, 55, 89
3, 12000, Note_on_c, 1, 48, 89
3, 12002, Note_on_c, 1, 41, 0
3, 12012, Note_on_c, 1, 56, 0
3, 12057, Note_on_c, 1, 55, 0
3, 12060, Note_on_c, 1, 53, 85
3, 12120, Note_on_c, 1, 52, 89
3, 12124, Note_on_c, 1, 53, 0
3, 12180, Note_on_c, 1, 49, 89
3, 12181, Note_on_c, 1, 48, 0
3, 12240, Note_on_c, 1, 46, 98
3, 12250, Note_on_c, 1, 49, 0
3, 12360, Note_on_c, 1, 53, 89
3, 12360, Note_on_c, 1, 44, 85
3, 12361, Note_on_c, 1, 46, 0
3, 12367, Note_on_c, 1, 52, 0
3, 12419, Note_on_c, 1, 44, 0
3, 12420, Note_on_c, 1, 55, 93
3, 12420, Note_on_c, 1, 43, 85
3, 12425, Note_on_c, 1, 53, 0
3, 12478, Note_on_c, 1, 55, 0
3, 12480, Note_on_c, 1, 60, 98
3, 12480, Note_on_c, 1, 41, 89
3, 12486, Note_on_c, 1, 43, 0
3, 12659, Note_on_c, 1, 41, 0
3, 12660, Note_on_c, 1, 39, 85
3, 12720, Note_on_c, 1, 38, 93
3, 12728, Note_on_c, 1, 39, 0
3, 12840, Note_on_c, 1, 58, 89
3, 12843, Note_on_c, 1, 60, 0
3, 12900, Note_on_c, 1, 57, 93
3, 12910, Note_on_c, 1, 58, 0
3, 12953, Note_on_c, 1, 38, 0
3, 12960, Note_on_c, 1, 57, 0
3, 12960, Note_on_c, 1, 55, 89
3, 12960, Note_on_c, 1, 43, 93
3, 13020, Note_on_c, 1, 58, 80
3, 13025, Note_on_c, 1, 55, 0
3, 13080, Note_on_c, 1, 62, 98
3, 13086, Note_on_c, 1, 58, 0
3, 13140, Note_on_c, 1, 41, 85
3, 13149, Note_on_c, 1, 43, 0
3, 13200, Note_on_c, 1, 40, 89
3, 13203, Note_on_c, 1, 41, 0
3, 13320, Note_on_c, 1, 60, 89
3, 13328, Note_on_c, 1, 62, 0
3, 13380, Note_on_c, 1, 59, 85
3, 13384, Note_on_c, 1, 60, 0
3, 13412, Note_on_c, 1, 40, 0
3, 13440, Note_on_c, 1, 57, 93
3, 13440, Note_on_c, 1, 45, 98
3, 13447, Note_on_c, 1, 59, 0
3, 13475, Note_on_c, 1, 45, 0
3, 13500, Note_on_c, 1, 45, 93
3, 13560, Note_on_c, 1, 47, 98
3, 13568, Note_on_c, 1, 45, 0
3, 13618, Note_on_c, 1, 47, 0
3, 13620, Note_on_c, 1, 49, 89
3, 13680, Note_on_c, 1, 49, 0
3, 13680, Note_on_c, 1, 50, 93
3, 13683, Note_on_c, 1, 57, 0
3, 13912, Note_on_c, 1, 50, 0
3, 13920, Note_on_c, 1, 52, 98
3, 14099, Note_on_c, 1, 52, 0
3, 14100, Note_on_c, 1, 50, 89
3, 14160, Note_on_c, 1, 49, 102
3, 14166, Note_on_c, 1, 50, 0
3, 14398, Note_on_c, 1, 49, 0
3, 14400, Note_on_c, 1, 62, 102
3, 14400, Note_on_c, 1, 50, 93
3, 14636, Note_on_c, 1, 62, 0
3, 14640, Note_on_c, 1, 58, 85
3, 14654, Note_on_c, 1, 50, 0
3, 14820, Note_on_c, 1, 57, 89
3, 14828, Note_on_c, 1, 58, 0
3, 14849, Note_on_c, 1, 57, 0
3, 14850, Note_on_c, 1, 55, 76
3, 14880, Note_on_c, 1, 54, 89
3, 14884, Note_on_c, 1, 55, 0
3, 14936, Note_on_c, 1, 54, 0
3, 14940, Note_on_c, 1, 55, 89
3, 14994, Note_on_c, 1, 55, 0
3, 15000, Note_on_c, 1, 57, 98
3, 15180, Note_on_c, 1, 57, 0
3, 15180, Note_on_c, 1, 63, 93
3, 15239, Note_on_c, 1, 63, 0
3, 15240, Note_on_c, 1, 62, 89
3, 15300, Note_on_c, 1, 60, 80
3, 15302, Note_on_c, 1, 62, 0
3, 15360, Note_on_c, 1, 58, 89
3, 15360, Note_on_c, 1, 55, 102
3, 15364, Note_on_c, 1, 60, 0
3, 15599, Note_on_c, 1, 58, 0
3, 15600, Note_on_c, 1, 55, 93
3, 15600, Note_on_c, 1, 51, 93
3, 15604, Note_on_c, 1, 55, 0
3, 15780, Note_on_c, 1, 50, 93
3, 15783, Note_on_c, 1, 51, 0
3, 15810, Note_on_c, 1, 48, 72
3, 15814, Note_on_c, 1, 50, 0
3, 15840, Note_on_c, 1, 47, 107
3, 15849, Note_on_c, 1, 48, 0
3, 15894, Note_on_c, 1, 47, 0
3, 15900, Note_on_c, 1, 56, 89
3, 15900, Note_on_c, 1, 48, 93
3, 15921, Note_on_c, 1, 55, 0
3, 15953, Note_on_c, 1, 56, 0
3, 15956, Note_on_c, 1, 48, 0
3, 15960, Note_on_c, 1, 53, 85
3, 15960, Note_on_c, 1, 50, 93
3, 16088, Note_on_c, 1, 53, 0
3, 16137, Note_on_c, 1, 50, 0
3, 16140, Note_on_c, 1, 62, 102
3, 16140, Note_on_c, 1, 56, 98
3, 16200, Note_on_c, 1, 55, 93
3, 16210, Note_on_c, 1, 56, 0
3, 16238, Note_on_c, 1, 62, 0
3, 16260, Note_on_c, 1, 62, 80
3, 16260, Note_on_c, 1, 53, 89
3, 16269, Note_on_c, 1, 55, 0
3, 16304, Note_on_c, 1, 62, 0
3, 16320, Note_on_c, 1, 63, 98
3, 16320, Note_on_c, 1, 51, 98
3, 16323, Note_on_c, 1, 53, 0
3, 16462, Note_on_c, 1, 51, 0
3, 16483, Note_on_c, 1, 63, 0
3, 16500, Note_on_c, 1, 63, 76
3, 16552, Note_on_c, 1, 63, 0
3, 16560, Note_on_c, 1, 62, 93
3, 16794, Note_on_c, 1, 62, 0
3, 16800, Note_on_c, 1, 60, 93
3, 17040, Note_on_c, 1, 59, 93
3, 17050, Note_on_c, 1, 60, 0
3, 17153, Note_on_c, 1, 59, 0
3, 17160, Note_on_c, 1, 58, 89
3, 17280, Note_on_c, 1, 57, 98
3, 17280, Note_on_c, 1, 57, 107
3, 17285, Note_on_c, 1, 58, 0
3, 17387, Note_on_c, 1, 57, 0
3, 17400, Note_on_c, 1, 57, 98
3, 17516, Note_on_c, 1, 57, 0
3, 17520, Note_on_c, 1, 53, 102
3, 17623, Note_on_c, 1, 57, 0
3, 17640, Note_on_c, 1, 57, 93
3, 17700, Note_on_c, 1, 52, 93
3, 17701, Note_on_c, 1, 53, 0
3, 17729, Note_on_c, 1, 52, 0
3, 17730, Note_on_c, 1, 50, 93
3, 17760, Note_on_c, 1, 49, 89
3, 17763, Note_on_c, 1, 50, 0
3, 17817, Note_on_c, 1, 49, 0
3, 17820, Note_on_c, 1, 50, 98
3, 17843, Note_on_c, 1, 57, 0
3, 17850, Note_on_c, 1, 58, 89
3, 17878, Note_on_c, 1, 50, 0
3, 17880, Note_on_c, 1, 55, 93
3, 17880, Note_on_c, 1, 52, 107
3, 17899, Note_on_c, 1, 58, 0
3, 18015, Note_on_c, 1, 55, 0
3, 18060, Note_on_c, 1, 64, 93
3, 18060, Note_on_c, 1, 58, 89
3, 18063, Note_on_c, 1, 52, 0
3, 18120, Note_on_c, 1, 57, 89
3, 18123, Note_on_c, 1, 58, 0
3, 18174, Note_on_c, 1, 64, 0
3, 18178, Note_on_c, 1, 57, 0
3, 18180, Note_on_c, 1, 64, 93
3, 18180, Note_on_c, 1, 55, 85
3, 18235, Note_on_c, 1, 55, 0
3, 18238, Note_on_c, 1, 64, 0
3, 18240, Note_on_c, 1, 65, 89
3, 18240, Note_on_c, 1, 53, 93
3, 18362, Note_on_c, 1, 53, 0
3, 18399, Note_on_c, 1, 65, 0
3, 18420, Note_on_c, 1, 65, 85
3, 18480, Note_on_c, 1, 65, 0
3, 18480, Note_on_c, 1, 64, 89
3, 18720, Note_on_c, 1, 64, 0
3, 18720, Note_on_c, 1, 62, 98
3, 18960, Note_on_c, 1, 61, 89
3, 18961, Note_on_c, 1, 62, 0
3, 19080, Note_on_c, 1, 60, 93
3, 19081, Note_on_c, 1, 61, 0
3, 19200, Note_on_c, 1, 59, 93
3, 19200, Note_on_c, 1, 59, 107
3, 19206, Note_on_c, 1, 60, 0
3, 19414, Note_on_c, 1, 59, 0
3, 19439, Note_on_c, 1, 59, 0
3, 19440, Note_on_c, 1, 59, 98
3, 19440, Note_on_c, 1, 55, 102
3, 19615, Note_on_c, 1, 55, 0
3, 19620, Note_on_c, 1, 54, 85
3, 19650, Note_on_c, 1, 52, 76
3, 19653, Note_on_c, 1, 54, 0
3, 19680, Note_on_c, 1, 51, 89
3, 19684, Note_on_c, 1, 59, 0
3, 19688, Note_on_c, 1, 52, 0
3, 19736, Note_on_c, 1, 51, 0
3, 19740, Note_on_c, 1, 52, 89
3, 19795, Note_on_c, 1, 52, 0
3, 19800, Note_on_c, 1, 54, 107
3, 19980, Note_on_c, 1, 60, 98
3, 19984, Note_on_c, 1, 54, 0
3, 20040, Note_on_c, 1, 59, 98
3, 20045, Note_on_c, 1, 60, 0
3, 20100, Note_on_c, 1, 57, 93
3, 20112, Note_on_c, 1, 59, 0
3, 20160, Note_on_c, 1, 55, 89
3, 20164, Note_on_c, 1, 57, 0
3, 20220, Note_on_c, 1, 57, 89
3, 20230, Note_on_c, 1, 55, 0
3, 20279, Note_on_c, 1, 57, 0
3, 20280, Note_on_c, 1, 59, 89
3, 20460, Note_on_c, 1, 58, 89
3, 20463, Note_on_c, 1, 59, 0
3, 20520, Note_on_c, 1, 57, 89
3, 20533, Note_on_c, 1, 58, 0
3, 20580, Note_on_c, 1, 57, 0
3, 20580, Note_on_c, 1, 55, 89
3, 20640, Note_on_c, 1, 53, 89
3, 20641, Note_on_c, 1, 55, 0
3, 20700, Note_on_c, 1, 55, 93
3, 20709, Note_on_c, 1, 53, 0
3, 20760, Note_on_c, 1, 57, 98
3, 20762, Note_on_c, 1, 55, 0
3, 20936, Note_on_c, 1, 57, 0
3, 20940, Note_on_c, 1, 56, 93
3, 21000, Note_on_c, 1, 55, 76
3, 21011, Note_on_c, 1, 56, 0
3, 21060, Note_on_c, 1, 53, 85
3, 21062, Note_on_c, 1, 55, 0
3, 21120, Note_on_c, 1, 51, 89
3, 21124, Note_on_c, 1, 53, 0
3, 21179, Note_on_c, 1, 51, 0
3, 21180, Note_on_c, 1, 53, 93
3, 21240, Note_on_c, 1, 55, 93
3, 21244, Note_on_c, 1, 53, 0
3, 21417, Note_on_c, 1, 55, 0
3, 21420, Note_on_c, 1, 54, 85
3, 21480, Note_on_c, 1, 55, 89
3, 21489, Note_on_c, 1, 54, 0
3, 21540, Note_on_c, 1, 51, 80
3, 21541, Note_on_c, 1, 55, 0
3, 21600, Note_on_c, 1, 49, 93
3, 21608, Note_on_c, 1, 51, 0
3, 21835, Note_on_c, 1, 49, 0
3, 21840, Note_on_c, 1, 50, 89
3, 22020, Note_on_c, 1, 48, 85
3, 22028, Note_on_c, 1, 50, 0
3, 22080, Note_on_c, 1, 46, 85
3, 22080, Note_on_c, 1, 55, 102
3, 22085, Note_on_c, 1, 48, 0
3, 22137, Note_on_c, 1, 46, 0
3, 22140, Note_on_c, 1, 45, 89
3, 22190, Note_on_c, 1, 45, 0
3, 22200, Note_on_c, 1, 43, 93
3, 22314, Note_on_c, 1, 55, 0
3, 22320, Note_on_c, 1, 55, 102
3, 22320, Note_on_c, 1, 58, 89
3, 22327, Note_on_c, 1, 43, 0
3, 22380, Note_on_c, 1, 53, 89
3, 22390, Note_on_c, 1, 55, 0
3, 22440, Note_on_c, 1, 51, 80
3, 22453, Note_on_c, 1, 53, 0
3, 22500, Note_on_c, 1, 50, 98
3, 22500, Note_on_c, 1, 60, 80
3, 22502, Note_on_c, 1, 51, 0
3, 22505, Note_on_c, 1, 58, 0
3, 22530, Note_on_c, 1, 62, 80
3, 22537, Note_on_c, 1, 60, 0
3, 22560, Note_on_c, 1, 48, 89
3, 22560, Note_on_c, 1, 63, 89
3, 22562, Note_on_c, 1, 50, 0
3, 22563, Note_on_c, 1, 62, 0
3, 22620, Note_on_c, 1, 62, 93
3, 22628, Note_on_c, 1, 63, 0
3, 22680, Note_on_c, 1, 60, 89
3, 22687, Note_on_c, 1, 62, 0
3, 22728, Note_on_c, 1, 48, 0
3, 22740, Note_on_c, 1, 50, 98
3, 22770, Note_on_c, 1, 51, 93
3, 22774, Note_on_c, 1, 50, 0
3, 22800, Note_on_c, 1, 50, 89
3, 22807, Note_on_c, 1, 51, 0
3, 22856, Note_on_c, 1, 60, 0
3, 22860, Note_on_c, 1, 48, 76
3, 22860, Note_on_c, 1, 54, 76
3, 22862, Note_on_c, 1, 50, 0
3, 22920, Note_on_c, 1, 46, 93
3, 22920, Note_on_c, 1, 55, 89
3, 22927, Note_on_c, 1, 54, 0
3, 22931, Note_on_c, 1, 48, 0
3, 22980, Note_on_c, 1, 45, 89
3, 22980, Note_on_c, 1, 57, 89
3, 22983, Note_on_c, 1, 46, 0
3, 22984, Note_on_c, 1, 55, 0
3, 23040, Note_on_c, 1, 43, 93
3, 23040, Note_on_c, 1, 58, 93
3, 23042, Note_on_c, 1, 57, 0
3, 23049, Note_on_c, 1, 45, 0
3, 23160, Note_on_c, 1, 46, 93
3, 23168, Note_on_c, 1, 43, 0
3, 23216, Note_on_c, 1, 58, 0
3, 23220, Note_on_c, 1, 57, 89
3, 23250, Note_on_c, 1, 55, 72
3, 23254, Note_on_c, 1, 57, 0
3, 23279, Note_on_c, 1, 46, 0
3, 23280, Note_on_c, 1, 50, 76
3, 23280, Note_on_c, 1, 57, 80
3, 23285, Note_on_c, 1, 55, 0
3, 23340, Note_on_c, 1, 45, 89
3, 23350, Note_on_c, 1, 50, 0
3, 23400, Note_on_c, 1, 50, 102
3, 23409, Note_on_c, 1, 45, 0
3, 23460, Note_on_c, 1, 55, 80
3, 23467, Note_on_c, 1, 57, 0
3, 23490, Note_on_c, 1, 53, 76
3, 23496, Note_on_c, 1, 55, 0
3, 23520, Note_on_c, 1, 55, 89
3, 23533, Note_on_c, 1, 53, 0
3, 23580, Note_on_c, 1, 50, 0
3, 23580, Note_on_c, 1, 53, 89
3, 23580, Note_on_c, 1, 57, 89
3, 23583, Note_on_c, 1, 55, 0
3, 23640, Note_on_c, 1, 52, 89
3, 23640, Note_on_c, 1, 58, 93
3, 23650, Note_on_c, 1, 57, 0
3, 23651, Note_on_c, 1, 53, 0
3, 23699, Note_on_c, 1, 52, 0
3, 23700, Note_on_c, 1, 50, 80
3, 23760, Note_on_c, 1, 49, 89
3, 23764, Note_on_c, 1, 50, 0
3, 23816, Note_on_c, 1, 58, 0
3, 23820, Note_on_c, 1, 55, 93
3, 23820, Note_on_c, 1, 58, 85
3, 23826, Note_on_c, 1, 49, 0
3, 23880, Note_on_c, 1, 53, 89
3, 23880, Note_on_c, 1, 57, 89
3, 23887, Note_on_c, 1, 58, 0
3, 23895, Note_on_c, 1, 55, 0
3, 23940, Note_on_c, 1, 52, 93
3, 23940, Note_on_c, 1, 55, 89
3, 23941, Note_on_c, 1, 53, 0
3, 23941, Note_on_c, 1, 57, 0
3, 24000, Note_on_c, 1, 50, 93
3, 24000, Note_on_c, 1, 53, 89
3, 24002, Note_on_c, 1, 52, 0
3, 24006, Note_on_c, 1, 55, 0
3, 24135, Note_on_c, 1, 53, 0
3, 24180, Note_on_c, 1, 59, 93
3, 24236, Note_on_c, 1, 59, 0
3, 24240, Note_on_c, 1, 60, 89
3, 24251, Note_on_c, 1, 50, 0
3, 24299, Note_on_c, 1, 60, 0
3, 24300, Note_on_c, 1, 55, 85
3, 24360, Note_on_c, 1, 60, 89
3, 24369, Note_on_c, 1, 55, 0
3, 24420, Note_on_c, 1, 58, 72
3, 24431, Note_on_c, 1, 60, 0
3, 24476, Note_on_c, 1, 58, 0
3, 24480, Note_on_c, 1, 57, 93
3, 24540, Note_on_c, 1, 58, 76
3, 24547, Note_on_c, 1, 57, 0
3, 24570, Note_on_c, 1, 60, 72
3, 24571, Note_on_c, 1, 58, 0
3, 24599, Note_on_c, 1, 60, 0
3, 24600, Note_on_c, 1, 62, 89
3, 24655, Note_on_c, 1, 62, 0
3, 24660, Note_on_c, 1, 60, 85
3, 24720, Note_on_c, 1, 58, 85
3, 24727, Note_on_c, 1, 60, 0
3, 24780, Note_on_c, 1, 57, 85
3, 24785, Note_on_c, 1, 58, 0
3, 24840, Note_on_c, 1, 55, 98
3, 24845, Note_on_c, 1, 57, 0
3, 25019, Note_on_c, 1, 55, 0
3, 25020, Note_on_c, 1, 57, 89
3, 25050, Note_on_c, 1, 58, 80
3, 25052, Note_on_c, 1, 57, 0
3, 25080, Note_on_c, 1, 55, 80
3, 25085, Note_on_c, 1, 58, 0
3, 25200, Note_on_c, 1, 60, 85
3, 25203, Note_on_c, 1, 55, 0
3, 25260, Note_on_c, 1, 62, 89
3, 25263, Note_on_c, 1, 60, 0
3, 25319, Note_on_c, 1, 62, 0
3, 25320, Note_on_c, 1, 63, 80
3, 25440, Note_on_c, 1, 62, 93
3, 25459, Note_on_c, 1, 63, 0
3, 25499, Note_on_c, 1, 62, 0
3, 25500, Note_on_c, 1, 60, 85
3, 25560, Note_on_c, 1, 58, 76
3, 25562, Note_on_c, 1, 60, 0
3, 25615, Note_on_c, 1, 58, 0
3, 25620, Note_on_c, 1, 57, 89
3, 25680, Note_on_c, 1, 55, 89
3, 25680, Note_on_c, 1, 50, 113
3, 25684, Note_on_c, 1, 57, 0
3, 25894, Note_on_c, 1, 55, 0
3, 25912, Note_on_c, 1, 50, 0
3, 25920, Note_on_c, 1, 57, 93
3, 25920, Note_on_c, 1, 53, 93
3, 26091, Note_on_c, 1, 57, 0
3, 26092, Note_on_c, 1, 53, 0
3, 26100, Note_on_c, 1, 58, 76
3, 26100, Note_on_c, 1, 55, 76
3, 26130, Note_on_c, 1, 60, 76
3, 26130, Note_on_c, 1, 57, 80
3, 26138, Note_on_c, 1, 58, 0
3, 26139, Note_on_c, 1, 55, 0
3, 26157, Note_on_c, 1, 60, 0
3, 26160, Note_on_c, 1, 62, 93
3, 26160, Note_on_c, 1, 58, 85
3, 26163, Note_on_c, 1, 57, 0
3, 26220, Note_on_c, 1, 60, 85
3, 26220, Note_on_c, 1, 57, 93
3, 26224, Note_on_c, 1, 58, 0
3, 26231, Note_on_c, 1, 62, 0
3, 26280, Note_on_c, 1, 58, 89
3, 26280, Note_on_c, 1, 55, 93
3, 26284, Note_on_c, 1, 57, 0
3, 26285, Note_on_c, 1, 60, 0
3, 26453, Note_on_c, 1, 55, 0
3, 26455, Note_on_c, 1, 58, 0
3, 26460, Note_on_c, 1, 52, 93
3, 26460, Note_on_c, 1, 49, 93
3, 26520, Note_on_c, 1, 53, 93
3, 26520, Note_on_c, 1, 50, 85
3, 26526, Note_on_c, 1, 49, 0
3, 26528, Note_on_c, 1, 52, 0
3, 26578, Note_on_c, 1, 53, 0
3, 26579, Note_on_c, 1, 50, 0
3, 26580, Note_on_c, 1, 55, 98
3, 26580, Note_on_c, 1, 52, 93
3, 26640, Note_on_c, 1, 54, 93
3, 26640, Note_on_c, 1, 50, 89
3, 26644, Note_on_c, 1, 55, 0
3, 26645, Note_on_c, 1, 52, 0
3, 26768, Note_on_c, 1, 50, 0
3, 26820, Note_on_c, 1, 50, 102
3, 26872, Note_on_c, 1, 50, 0
3, 26880, Note_on_c, 1, 51, 93
3, 26900, Note_on_c, 1, 54, 0
3, 27049, Note_on_c, 1, 51, 0
3, 27060, Note_on_c, 1, 52, 93
3, 27120, Note_on_c, 1, 53, 89
3, 27121, Note_on_c, 1, 52, 0
3, 27180, Note_on_c, 1, 54, 80
3, 27181, Note_on_c, 1, 53, 0
3, 27239, Note_on_c, 1, 54, 0
3, 27240, Note_on_c, 1, 55, 89
3, 27360, Note_on_c, 1, 62, 93
3, 27360, Note_on_c, 1, 50, 98
3, 27363, Note_on_c, 1, 55, 0
3, 27600, Note_on_c, 1, 58, 98
3, 27600, Note_on_c, 1, 55, 85
3, 27602, Note_on_c, 1, 50, 0
3, 27604, Note_on_c, 1, 62, 0
3, 27660, Note_on_c, 1, 53, 85
3, 27665, Note_on_c, 1, 55, 0
3, 27720, Note_on_c, 1, 51, 89
3, 27727, Note_on_c, 1, 53, 0
3, 27780, Note_on_c, 1, 57, 89
3, 27781, Note_on_c, 1, 58, 0
3, 27806, Note_on_c, 1, 57, 0
3, 27810, Note_on_c, 1, 55, 80
3, 27840, Note_on_c, 1, 54, 102
3, 27848, Note_on_c, 1, 55, 0
3, 27896, Note_on_c, 1, 54, 0
3, 27900, Note_on_c, 1, 55, 93
3, 27900, Note_on_c, 1, 50, 93
3, 27903, Note_on_c, 1, 51, 0
3, 27960, Note_on_c, 1, 55, 0
3, 27960, Note_on_c, 1, 57, 98
3, 27960, Note_on_c, 1, 48, 93
3, 27961, Note_on_c, 1, 50, 0
3, 28133, Note_on_c, 1, 57, 0
3, 28140, Note_on_c, 1, 63, 89
3, 28200, Note_on_c, 1, 62, 80
3, 28200, Note_on_c, 1, 50, 102
3, 28202, Note_on_c, 1, 63, 0
3, 28203, Note_on_c, 1, 48, 0
3, 28260, Note_on_c, 1, 60, 93
3, 28262, Note_on_c, 1, 62, 0
3, 28320, Note_on_c, 1, 58, 85
3, 28320, Note_on_c, 1, 51, 85
3, 28324, Note_on_c, 1, 60, 0
3, 28326, Note_on_c, 1, 50, 0
3, 28376, Note_on_c, 1, 58, 0
3, 28380, Note_on_c, 1, 59, 89
3, 28440, Note_on_c, 1, 60, 89
3, 28442, Note_on_c, 1, 59, 0
3, 28500, Note_on_c, 1, 61, 89
3, 28504, Note_on_c, 1, 60, 0
3, 28556, Note_on_c, 1, 61, 0
3, 28560, Note_on_c, 1, 62, 89
3, 28560, Note_on_c, 1, 50, 98
3, 28562, Note_on_c, 1, 51, 0
3, 28669, Note_on_c, 1, 50, 0
3, 28679, Note_on_c, 1, 62, 0
3, 28680, Note_on_c, 1, 56, 93
3, 28680, Note_on_c, 1, 46, 102
3, 28793, Note_on_c, 1, 56, 0
3, 28795, Note_on_c, 1, 46, 0
3, 28800, Note_on_c, 1, 57, 102
3, 28800, Note_on_c, 1, 45, 98
3, 28980, Note_on_c, 1, 57, 0
3, 28980, Note_on_c, 1, 56, 89
3, 28980, Note_on_c, 1, 47, 98
3, 28985, Note_on_c, 1, 45, 0
3, 29038, Note_on_c, 1, 56, 0
3, 29040, Note_on_c, 1, 55, 89
3, 29040, Note_on_c, 1, 49, 93
3, 29043, Note_on_c, 1, 47, 0
3, 29160, Note_on_c, 1, 53, 93
3, 29161, Note_on_c, 1, 55, 0
3, 29220, Note_on_c, 1, 52, 80
3, 29227, Note_on_c, 1, 53, 0
3, 29280, Note_on_c, 1, 50, 98
3, 29280, Note_on_c, 1, 50, 93
3, 29284, Note_on_c, 1, 49, 0
3, 29285, Note_on_c, 1, 52, 0
3, 29518, Note_on_c, 1, 50, 0
3, 29520, Note_on_c, 1, 53, 102
3, 29520, Note_on_c, 1, 46, 93
3, 29523, Note_on_c, 1, 50, 0
3, 29750, Note_on_c, 1, 46, 0
3, 29760, Note_on_c, 1, 48, 93
3, 29820, Note_on_c, 1, 46, 85
3, 29832, Note_on_c, 1, 48, 0
3, 29880, Note_on_c, 1, 45, 93
3, 29884, Note_on_c, 1, 46, 0
3, 29940, Note_on_c, 1, 43, 85
3, 29942, Note_on_c, 1, 45, 0
3, 29993, Note_on_c, 1, 43, 0
3, 30000, Note_on_c, 1, 41, 93
3, 30060, Note_on_c, 1, 63, 89
3, 30072, Note_on_c, 1, 53, 0
3, 30120, Note_on_c, 1, 62, 89
3, 30125, Note_on_c, 1, 63, 0
3, 30180, Note_on_c, 1, 60, 89
3, 30188, Note_on_c, 1, 62, 0
3, 30240, Note_on_c, 1, 58, 89
3, 30240, Note_on_c, 1, 46, 89
3, 30242, Note_on_c, 1, 41, 0
3, 30244, Note_on_c, 1, 60, 0
3, 30355, Note_on_c, 1, 58, 0
3, 30360, Note_on_c, 1, 55, 93
3, 30480, Note_on_c, 1, 52, 93
3, 30484, Note_on_c, 1, 55, 0
3, 30507, Note_on_c, 1, 46, 0
3, 30597, Note_on_c, 1, 52, 0
3, 30600, Note_on_c, 1, 53, 93
3, 30720, Note_on_c, 1, 62, 102
3, 30727, Note_on_c, 1, 53, 0
3, 30839, Note_on_c, 1, 62, 0
3, 30840, Note_on_c, 1, 63, 93
3, 30960, Note_on_c, 1, 60, 93
3, 30970, Note_on_c, 1, 63, 0
3, 31080, Note_on_c, 1, 62, 102
3, 31086, Note_on_c, 1, 60, 0
3, 31200, Note_on_c, 1, 62, 0
3, 31200, Note_on_c, 1, 63, 89
3, 31200, Note_on_c, 1, 51, 93
3, 31320, Note_on_c, 1, 58, 93
3, 31322, Note_on_c, 1, 63, 0
3, 31440, Note_on_c, 1, 51, 0
3, 31440, Note_on_c, 1, 51, 107
3, 31440, Note_on_c, 1, 48, 89
3, 31452, Note_on_c, 1, 58, 0
3, 31619, Note_on_c, 1, 48, 0
3, 31620, Note_on_c, 1, 46, 89
3, 31650, Note_on_c, 1, 44, 72
3, 31659, Note_on_c, 1, 46, 0
3, 31680, Note_on_c, 1, 43, 72
3, 31683, Note_on_c, 1, 44, 0
3, 31700, Note_on_c, 1, 51, 0
3, 31740, Note_on_c, 1, 44, 80
3, 31741, Note_on_c, 1, 43, 0
3, 31800, Note_on_c, 1, 46, 85
3, 31801, Note_on_c, 1, 44, 0
3, 31980, Note_on_c, 1, 49, 85
3, 31989, Note_on_c, 1, 46, 0
3, 32020, Note_on_c, 1, 49, 0
3, 32040, Note_on_c, 1, 48, 85
3, 32100, Note_on_c, 1, 46, 80
3, 32112, Note_on_c, 1, 48, 0
3, 32159, Note_on_c, 1, 46, 0
3, 32160, Note_on_c, 1, 45, 93
3, 32220, Note_on_c, 1, 46, 85
3, 32223, Note_on_c, 1, 45, 0
3, 32277, Note_on_c, 1, 46, 0
3, 32280, Note_on_c, 1, 48, 93
3, 32460, Note_on_c, 1, 51, 89
3, 32467, Note_on_c, 1, 48, 0
3, 32520, Note_on_c, 1, 49, 76
3, 32521, Note_on_c, 1, 51, 0
3, 32580, Note_on_c, 1, 48, 80
3, 32594, Note_on_c, 1, 49, 0
3, 32637, Note_on_c, 1, 48, 0
3, 32640, Note_on_c, 1, 47, 93
3, 32700, Note_on_c, 1, 48, 85
3, 32704, Note_on_c, 1, 47, 0
3, 32760, Note_on_c, 1, 50, 93
3, 32764, Note_on_c, 1, 48, 0
3, 32935, Note_on_c, 1, 50, 0
3, 32940, Note_on_c, 1, 56, 93
3, 33000, Note_on_c, 1, 55, 85
3, 33008, Note_on_c, 1, 56, 0
3, 33057, Note_on_c, 1, 55, 0
3, 33060, Note_on_c, 1, 53, 80
3, 33120, Note_on_c, 1, 55, 93
3, 33120, Note_on_c, 1, 51, 72
3, 33124, Note_on_c, 1, 53, 0
3, 33176, Note_on_c, 1, 51, 0
3, 33180, Note_on_c, 1, 50, 89
3, 33240, Note_on_c, 1, 48, 89
3, 33247, Note_on_c, 1, 50, 0
3, 33300, Note_on_c, 1, 50, 93
3, 33306, Note_on_c, 1, 48, 0
3, 33347, Note_on_c, 1, 55, 0
3, 33360, Note_on_c, 1, 60, 93
3, 33360, Note_on_c, 1, 51, 62
3, 33364, Note_on_c, 1, 50, 0
3, 33420, Note_on_c, 1, 51, 0
3, 33420, Note_on_c, 1, 58, 60
3, 33480, Note_on_c, 1, 57, 93
3, 33482, Note_on_c, 1, 58, 0
3, 33540, Note_on_c, 1, 62, 85
3, 33540, Note_on_c, 1, 55, 76
3, 33546, Note_on_c, 1, 57, 0
3, 33550, Note_on_c, 1, 60, 0
3, 33568, Note_on_c, 1, 62, 0
3, 33570, Note_on_c, 1, 63, 62
3, 33599, Note_on_c, 1, 63, 0
3, 33600, Note_on_c, 1, 62, 93
3, 33600, Note_on_c, 1, 54, 89
3, 33603, Note_on_c, 1, 55, 0
3, 33660, Note_on_c, 1, 60, 80
3, 33663, Note_on_c, 1, 62, 0
3, 33720, Note_on_c, 1, 58, 80
3, 33720, Note_on_c, 1, 55, 93
3, 33723, Note_on_c, 1, 54, 0
3, 33726, Note_on_c, 1, 60, 0
3, 33780, Note_on_c, 1, 53, 72
3, 33782, Note_on_c, 1, 55, 0
3, 33840, Note_on_c, 1, 51, 93
3, 33846, Note_on_c, 1, 53, 0
3, 33900, Note_on_c, 1, 57, 93
3, 33903, Note_on_c, 1, 58, 0
3, 33960, Note_on_c, 1, 58, 80
3, 33963, Note_on_c, 1, 57, 0
3, 34020, Note_on_c, 1, 58, 0
3, 34020, Note_on_c, 1, 60, 89
3, 34078, Note_on_c, 1, 51, 0
3, 34080, Note_on_c, 1, 60, 0
3, 34080, Note_on_c, 1, 62, 89
3, 34080, Note_on_c, 1, 50, 93
3, 34259, Note_on_c, 1, 62, 0
3, 34260, Note_on_c, 1, 60, 85
3, 34317, Note_on_c, 1, 60, 0
3, 34320, Note_on_c, 1, 58, 80
3, 34326, Note_on_c, 1, 50, 0
3, 34494, Note_on_c, 1, 58, 0
3, 34500, Note_on_c, 1, 57, 85
3, 34530, Note_on_c, 1, 55, 72
3, 34532, Note_on_c, 1, 57, 0
3, 34560, Note_on_c, 1, 61, 93
3, 34560, Note_on_c, 1, 57, 102
3, 34570, Note_on_c, 1, 55, 0
3, 34680, Note_on_c, 1, 62, 98
3, 34683, Note_on_c, 1, 61, 0
3, 34740, Note_on_c, 1, 57, 89
3, 34743, Note_on_c, 1, 62, 0
3, 34797, Note_on_c, 1, 57, 0
3, 34797, Note_on_c, 1, 57, 0
3, 34800, Note_on_c, 1, 62, 98
3, 34800, Note_on_c, 1, 53, 89
3, 34978, Note_on_c, 1, 53, 0
3, 34980, Note_on_c, 1, 60, 80
3, 34980, Note_on_c, 1, 52, 93
3, 34986, Note_on_c, 1, 62, 0
3, 35010, Note_on_c, 1, 58, 60
3, 35010, Note_on_c, 1, 50, 89
3, 35011, Note_on_c, 1, 52, 0
3, 35013, Note_on_c, 1, 60, 0
3, 35040, Note_on_c, 1, 57, 89
3, 35040, Note_on_c, 1, 49, 89
3, 35041, Note_on_c, 1, 58, 0
3, 35041, Note_on_c, 1, 50, 0
3, 35242, Note_on_c, 1, 57, 0
3, 35289, Note_on_c, 1, 49, 0
3, 35520, Note_on_c, 1, 60, 93
3, 35757, Note_on_c, 1, 60, 0
3, 35760, Note_on_c, 1, 57, 93
3, 35760, Note_on_c, 1, 50, 102
3, 35937, Note_on_c, 1, 57, 0
3, 35940, Note_on_c, 1, 55, 80
3, 35970, Note_on_c, 1, 53, 89
3, 35974, Note_on_c, 1, 55, 0
3, 36000, Note_on_c, 1, 52, 76
3, 36000, Note_on_c, 1, 48, 93
3, 36001, Note_on_c, 1, 53, 0
3, 36003, Note_on_c, 1, 50, 0
3, 36179, Note_on_c, 1, 48, 0
3, 36180, Note_on_c, 1, 50, 85
3, 36180, Note_on_c, 1, 47, 89
3, 36187, Note_on_c, 1, 52, 0
3, 36208, Note_on_c, 1, 47, 0
3, 36210, Note_on_c, 1, 50, 0
3, 36210, Note_on_c, 1, 48, 72
3, 36210, Note_on_c, 1, 45, 89
3, 36240, Note_on_c, 1, 47, 72
3, 36240, Note_on_c, 1, 44, 93
3, 36247, Note_on_c, 1, 48, 0
3, 36248, Note_on_c, 1, 45, 0
3, 36300, Note_on_c, 1, 48, 93
3, 36300, Note_on_c, 1, 45, 93
3, 36308, Note_on_c, 1, 47, 0
3, 36312, Note_on_c, 1, 44, 0
3, 36358, Note_on_c, 1, 45, 0
3, 36360, Note_on_c, 1, 50, 93
3, 36360, Note_on_c, 1, 47, 98
3, 36361, Note_on_c, 1, 48, 0
3, 36537, Note_on_c, 1, 47, 0
3, 36538, Note_on_c, 1, 50, 0
3, 36540, Note_on_c, 1, 53, 89
3, 36540, Note_on_c, 1, 50, 98
3, 36600, Note_on_c, 1, 52, 89
3, 36600, Note_on_c, 1, 48, 89
3, 36603, Note_on_c, 1, 50, 0
3, 36612, Note_on_c, 1, 53, 0
3, 36657, Note_on_c, 1, 52, 0
3, 36660, Note_on_c, 1, 48, 80
3, 36660, Note_on_c, 1, 45, 93
3, 36663, Note_on_c, 1, 48, 0
3, 36720, Note_on_c, 1, 45, 93
3, 36720, Note_on_c, 1, 42, 80
3, 36721, Note_on_c, 1, 45, 0
3, 36725, Note_on_c, 1, 48, 0
3, 36780, Note_on_c, 1, 46, 93
3, 36780, Note_on_c, 1, 43, 93
3, 36782, Note_on_c, 1, 45, 0
3, 36787, Note_on_c, 1, 42, 0
3, 36840, Note_on_c, 1, 46, 0
3, 36840, Note_on_c, 1, 48, 93
3, 36840, Note_on_c, 1, 45, 93
3, 36851, Note_on_c, 1, 43, 0
3, 37018, Note_on_c, 1, 48, 0
3, 37020, Note_on_c, 1, 51, 85
3, 37020, Note_on_c, 1, 48, 80
3, 37035, Note_on_c, 1, 45, 0
3, 37080, Note_on_c, 1, 50, 93
3, 37080, Note_on_c, 1, 46, 89
3, 37086, Note_on_c, 1, 51, 0
3, 37087, Note_on_c, 1, 48, 0
3, 37140, Note_on_c, 1, 46, 80
3, 37140, Note_on_c, 1, 43, 76
3, 37142, Note_on_c, 1, 46, 0
3, 37148, Note_on_c, 1, 50, 0
3, 37200, Note_on_c, 1, 55, 93
3, 37200, Note_on_c, 1, 51, 93
3, 37202, Note_on_c, 1, 43, 0
3, 37207, Note_on_c, 1, 46, 0
3, 37435, Note_on_c, 1, 55, 0
3, 37438, Note_on_c, 1, 51, 0
3, 37440, Note_on_c, 1, 53, 89
3, 37440, Note_on_c, 1, 50, 93
3, 37500, Note_on_c, 1, 55, 93
3, 37506, Note_on_c, 1, 53, 0
3, 37560, Note_on_c, 1, 56, 72
3, 37568, Note_on_c, 1, 55, 0
3, 37620, Note_on_c, 1, 51, 85
3, 37620, Note_on_c, 1, 48, 76
3, 37623, Note_on_c, 1, 56, 0
3, 37631, Note_on_c, 1, 50, 0
3, 37665, Note_on_c, 1, 51, 0
3, 37678, Note_on_c, 1, 48, 0
3, 37680, Note_on_c, 1, 50, 93
3, 37680, Note_on_c, 1, 47, 93
3, 37740, Note_on_c, 1, 55, 98
3, 37745, Note_on_c, 1, 50, 0
3, 37800, Note_on_c, 1, 48, 85
3, 37804, Note_on_c, 1, 47, 0
3, 37856, Note_on_c, 1, 55, 0
3, 37860, Note_on_c, 1, 56, 98
3, 37920, Note_on_c, 1, 50, 98
3, 37922, Note_on_c, 1, 56, 0
3, 37922, Note_on_c, 1, 48, 0
3, 37980, Note_on_c, 1, 54, 107
3, 38040, Note_on_c, 1, 43, 89
3, 38044, Note_on_c, 1, 50, 0
3, 38083, Note_on_c, 1, 54, 0
3, 38100, Note_on_c, 1, 55, 93
3, 38144, Note_on_c, 1, 55, 0
3, 38160, Note_on_c, 1, 49, 89
3, 38165, Note_on_c, 1, 43, 0
3, 38220, Note_on_c, 1, 55, 102
3, 38280, Note_on_c, 1, 57, 89
3, 38284, Note_on_c, 1, 55, 0
3, 38338, Note_on_c, 1, 57, 0
3, 38340, Note_on_c, 1, 58, 89
3, 38381, Note_on_c, 1, 58, 0
3, 38390, Note_on_c, 1, 49, 0
3, 38400, Note_on_c, 1, 50, 93
3, 38400, Note_on_c, 1, 58, 89
3, 38520, Note_on_c, 1, 57, 93
3, 38530, Note_on_c, 1, 58, 0
3, 38579, Note_on_c, 1, 57, 0
3, 38580, Note_on_c, 1, 55, 89
3, 38632, Note_on_c, 1, 55, 0
3, 38640, Note_on_c, 1, 57, 89
3, 39360, Note_on_c, 1, 57, 0
3, 39360, Note_on_c, 1, 50, 0
3, 39360, Note_on_c, 1, 55, 107
3, 39598, Note_on_c, 1, 55, 0
3, 39600, Note_on_c, 1, 58, 93
3, 39780, Note_on_c, 1, 60, 85
3, 39784, Note_on_c, 1, 58, 0
3, 39810, Note_on_c, 1, 62, 80
3, 39813, Note_on_c, 1, 60, 0
3, 39840, Note_on_c, 1, 63, 85
3, 39845, Note_on_c, 1, 62, 0
3, 39900, Note_on_c, 1, 62, 89
3, 39901, Note_on_c, 1, 63, 0
3, 39960, Note_on_c, 1, 60, 93
3, 39964, Note_on_c, 1, 62, 0
3, 40135, Note_on_c, 1, 60, 0
3, 40140, Note_on_c, 1, 54, 80
3, 40200, Note_on_c, 1, 55, 93
3, 40206, Note_on_c, 1, 54, 0
3, 40260, Note_on_c, 1, 57, 89
3, 40262, Note_on_c, 1, 55, 0
3, 40315, Note_on_c, 1, 57, 0
3, 40320, Note_on_c, 1, 55, 93
3, 40379, Note_on_c, 1, 55, 0
3, 40380, Note_on_c, 1, 57, 89
3, 40440, Note_on_c, 1, 58, 89
3, 40442, Note_on_c, 1, 57, 0
3, 40560, Note_on_c, 1, 58, 0
3, 40560, Note_on_c, 1, 60, 89
3, 40620, Note_on_c, 1, 58, 76
3, 40630, Note_on_c, 1, 60, 0
3, 40680, Note_on_c, 1, 58, 0
3, 40680, Note_on_c, 1, 57, 93
3, 40732, Note_on_c, 1, 57, 0
3, 40740, Note_on_c, 1, 55, 76
3, 40796, Note_on_c, 1, 55, 0
3, 40800, Note_on_c, 1, 54, 80
3, 41040, Note_on_c, 1, 55, 93
3, 41043, Note_on_c, 1, 54, 0
3, 41100, Note_on_c, 1, 57, 93
3, 41101, Note_on_c, 1, 55, 0
3, 41160, Note_on_c, 1, 58, 85
3, 41168, Note_on_c, 1, 57, 0
3, 41220, Note_on_c, 1, 57, 80
3, 41232, Note_on_c, 1, 58, 0
3, 41242, Note_on_c, 1, 57, 0
3, 41250, Note_on_c, 1, 55, 76
3, 41274, Note_on_c, 1, 55, 0
3, 41280, Note_on_c, 1, 50, 107
3, 41454, Note_on_c, 1, 50, 0
3, 41460, Note_on_c, 1, 52, 89
3, 41490, Note_on_c, 1, 53, 85
3, 41497, Note_on_c, 1, 52, 0
3, 41520, Note_on_c, 1, 55, 102
3, 41523, Note_on_c, 1, 53, 0
3, 41580, Note_on_c, 1, 53, 80
3, 41589, Note_on_c, 1, 55, 0
3, 41640, Note_on_c, 1, 52, 89
3, 41647, Note_on_c, 1, 53, 0
3, 41700, Note_on_c, 1, 50, 85
3, 41705, Note_on_c, 1, 52, 0
3, 41730, Note_on_c, 1, 49, 80
3, 41738, Note_on_c, 1, 50, 0
3, 41760, Note_on_c, 1, 50, 93
3, 41760, Note_on_c, 1, 50, 98
3, 41762, Note_on_c, 1, 49, 0
3, 41862, Note_on_c, 1, 50, 0
3, 41880, Note_on_c, 1, 57, 102
3, 41994, Note_on_c, 1, 50, 0
3, 42000, Note_on_c, 1, 53, 93
3, 42060, Note_on_c, 1, 59, 85
3, 42071, Note_on_c, 1, 57, 0
3, 42087, Note_on_c, 1, 59, 0
3, 42090, Note_on_c, 1, 61, 89
3, 42120, Note_on_c, 1, 61, 0
3, 42120, Note_on_c, 1, 62, 85
3, 42180, Note_on_c, 1, 55, 93
3, 42188, Note_on_c, 1, 53, 0
3, 42210, Note_on_c, 1, 57, 85
3, 42218, Note_on_c, 1, 55, 0
3, 42240, Note_on_c, 1, 58, 89
3, 42246, Note_on_c, 1, 57, 0
3, 42300, Note_on_c, 1, 60, 76
3, 42300, Note_on_c, 1, 57, 93
3, 42303, Note_on_c, 1, 58, 0
3, 42315, Note_on_c, 1, 62, 0
3, 42360, Note_on_c, 1, 57, 0
3, 42360, Note_on_c, 1, 58, 93
3, 42360, Note_on_c, 1, 55, 93
3, 42365, Note_on_c, 1, 60, 0
3, 42531, Note_on_c, 1, 58, 0
3, 42537, Note_on_c, 1, 55, 0
3, 42540, Note_on_c, 1, 67, 93
3, 42540, Note_on_c, 1, 49, 89
3, 42600, Note_on_c, 1, 65, 93
3, 42600, Note_on_c, 1, 50, 93
3, 42601, Note_on_c, 1, 49, 0
3, 42602, Note_on_c, 1, 67, 0
3, 42660, Note_on_c, 1, 64, 93
3, 42660, Note_on_c, 1, 52, 89
3, 42664, Note_on_c, 1, 65, 0
3, 42664, Note_on_c, 1, 50, 0
3, 42718, Note_on_c, 1, 52, 0
3, 42720, Note_on_c, 1, 62, 98
3, 42720, Note_on_c, 1, 53, 85
3, 42726, Note_on_c, 1, 64, 0
3, 42780, Note_on_c, 1, 51, 80
3, 42793, Note_on_c, 1, 53, 0
3, 42840, Note_on_c, 1, 50, 98
3, 42850, Note_on_c, 1, 51, 0
3, 42900, Note_on_c, 1, 63, 80
3, 42902, Note_on_c, 1, 62, 0
3, 42960, Note_on_c, 1, 65, 93
3, 42961, Note_on_c, 1, 63, 0
3, 43003, Note_on_c, 1, 50, 0
3, 43020, Note_on_c, 1, 47, 89
3, 43080, Note_on_c, 1, 63, 76
3, 43080, Note_on_c, 1, 48, 85
3, 43087, Note_on_c, 1, 47, 0
3, 43092, Note_on_c, 1, 65, 0
3, 43140, Note_on_c, 1, 62, 93
3, 43140, Note_on_c, 1, 50, 89
3, 43141, Note_on_c, 1, 48, 0
3, 43144, Note_on_c, 1, 63, 0
3, 43196, Note_on_c, 1, 62, 0
3, 43200, Note_on_c, 1, 60, 89
3, 43200, Note_on_c, 1, 51, 80
3, 43208, Note_on_c, 1, 50, 0
3, 43318, Note_on_c, 1, 60, 0
3, 43320, Note_on_c, 1, 55, 85
3, 43380, Note_on_c, 1, 50, 85
3, 43383, Note_on_c, 1, 51, 0
3, 43439, Note_on_c, 1, 50, 0
3, 43440, Note_on_c, 1, 48, 93
3, 43500, Note_on_c, 1, 48, 0
3, 43500, Note_on_c, 1, 58, 80
3, 43560, Note_on_c, 1, 60, 93
3, 43560, Note_on_c, 1, 56, 85
3, 43563, Note_on_c, 1, 55, 0
3, 43579, Note_on_c, 1, 58, 0
3, 43620, Note_on_c, 1, 55, 89
3, 43623, Note_on_c, 1, 56, 0
3, 43680, Note_on_c, 1, 53, 93
3, 43685, Note_on_c, 1, 55, 0
3, 43740, Note_on_c, 1, 62, 89
3, 43743, Note_on_c, 1, 60, 0
3, 43770, Note_on_c, 1, 63, 76
3, 43772, Note_on_c, 1, 62, 0
3, 43800, Note_on_c, 1, 63, 0
3, 43800, Note_on_c, 1, 65, 93
3, 43860, Note_on_c, 1, 63, 89
3, 43874, Note_on_c, 1, 65, 0
3, 43920, Note_on_c, 1, 62, 98
3, 43920, Note_on_c, 1, 55, 89
3, 43926, Note_on_c, 1, 53, 0
3, 43929, Note_on_c, 1, 63, 0
3, 44092, Note_on_c, 1, 62, 0
3, 44100, Note_on_c, 1, 59, 98
3, 44154, Note_on_c, 1, 55, 0
3, 44160, Note_on_c, 1, 60, 93
3, 44160, Note_on_c, 1, 48, 89
3, 44162, Note_on_c, 1, 59, 0
3, 44220, Note_on_c, 1, 55, 85
3, 44225, Note_on_c, 1, 60, 0
3, 44280, Note_on_c, 1, 56, 98
3, 44282, Note_on_c, 1, 55, 0
3, 44397, Note_on_c, 1, 56, 0
3, 44400, Note_on_c, 1, 57, 98
3, 44400, Note_on_c, 1, 50, 93
3, 44404, Note_on_c, 1, 48, 0
3, 44580, Note_on_c, 1, 55, 85
3, 44588, Note_on_c, 1, 57, 0
3, 44610, Note_on_c, 1, 54, 72
3, 44614, Note_on_c, 1, 55, 0
3, 44640, Note_on_c, 1, 55, 62
3, 44645, Note_on_c, 1, 54, 0
3, 44659, Note_on_c, 1, 50, 0
3, 44700, Note_on_c, 1, 57, 93
3, 44708, Note_on_c, 1, 55, 0
3, 44759, Note_on_c, 1, 57, 0
3, 44760, Note_on_c, 1, 58, 76
3, 44820, Note_on_c, 1, 55, 80
3, 44831, Note_on_c, 1, 58, 0
3, 44880, Note_on_c, 1, 51, 89
3, 44882, Note_on_c, 1, 55, 0
3, 45120, Note_on_c, 1, 50, 89
3, 45120, Note_on_c, 1, 50, 93
3, 45124, Note_on_c, 1, 51, 0
3, 45360, Note_on_c, 1, 46, 93
3, 45366, Note_on_c, 1, 50, 0
3, 45375, Note_on_c, 1, 50, 0
3, 45532, Note_on_c, 1, 46, 0
3, 45540, Note_on_c, 1, 45, 89
3, 45570, Note_on_c, 1, 43, 89
3, 45572, Note_on_c, 1, 45, 0
3, 45600, Note_on_c, 1, 63, 93
3, 45600, Note_on_c, 1, 42, 89
3, 45605, Note_on_c, 1, 43, 0
3, 45658, Note_on_c, 1, 42, 0
3, 45660, Note_on_c, 1, 43, 89
3, 45720, Note_on_c, 1, 45, 98
3, 45723, Note_on_c, 1, 43, 0
3, 45840, Note_on_c, 1, 63, 0
3, 45840, Note_on_c, 1, 60, 85
3, 45900, Note_on_c, 1, 51, 80
3, 45907, Note_on_c, 1, 45, 0
3, 45960, Note_on_c, 1, 50, 85
3, 45961, Note_on_c, 1, 51, 0
3, 46020, Note_on_c, 1, 58, 72
3, 46020, Note_on_c, 1, 48, 89
3, 46021, Note_on_c, 1, 50, 0
3, 46031, Note_on_c, 1, 60, 0
3, 46050, Note_on_c, 1, 57, 72
3, 46055, Note_on_c, 1, 58, 0
3, 46076, Note_on_c, 1, 57, 0
3, 46080, Note_on_c, 1, 55, 72
3, 46080, Note_on_c, 1, 46, 93
3, 46084, Note_on_c, 1, 48, 0
3, 46140, Note_on_c, 1, 57, 89
3, 46142, Note_on_c, 1, 55, 0
3, 46200, Note_on_c, 1, 58, 72
3, 46209, Note_on_c, 1, 57, 0
3, 46260, Note_on_c, 1, 45, 98
3, 46273, Note_on_c, 1, 46, 0
3, 46317, Note_on_c, 1, 45, 0
3, 46320, Note_on_c, 1, 43, 89
3, 46379, Note_on_c, 1, 43, 0
3, 46380, Note_on_c, 1, 41, 85
3, 46440, Note_on_c, 1, 39, 107
3, 46444, Note_on_c, 1, 41, 0
3, 46500, Note_on_c, 1, 57, 89
3, 46514, Note_on_c, 1, 58, 0
3, 46526, Note_on_c, 1, 57, 0
3, 46530, Note_on_c, 1, 55, 85
3, 46559, Note_on_c, 1, 55, 0
3, 46560, Note_on_c, 1, 54, 85
3, 46560, Note_on_c, 1, 38, 93
3, 46576, Note_on_c, 1, 39, 0
3, 46740, Note_on_c, 1, 52, 80
3, 46744, Note_on_c, 1, 54, 0
3, 46770, Note_on_c, 1, 54, 76
3, 46775, Note_on_c, 1, 52, 0
3, 46800, Note_on_c, 1, 54, 0
3, 46800, Note_on_c, 1, 55, 85
3, 46980, Note_on_c, 1, 57, 80
3, 46983, Note_on_c, 1, 55, 0
3, 46996, Note_on_c, 1, 38, 0
3, 47010, Note_on_c, 1, 55, 80
3, 47017, Note_on_c, 1, 57, 0
3, 47032, Note_on_c, 1, 55, 0
3, 47040, Note_on_c, 1, 54, 89
3, 47040, Note_on_c, 1, 38, 107
3, 47220, Note_on_c, 1, 55, 98
3, 47236, Note_on_c, 1, 54, 0
3, 47279, Note_on_c, 1, 55, 0
3, 47280, Note_on_c, 1, 60, 93
3, 47460, Note_on_c, 1, 60, 0
3, 47460, Note_on_c, 1, 58, 76
3, 47490, Note_on_c, 1, 57, 93
3, 47493, Note_on_c, 1, 58, 0
3, 47507, Note_on_c, 1, 38, 0
3, 47520, Note_on_c, 1, 57, 0
3, 47520, Note_on_c, 1, 58, 80
3, 47520, Note_on_c, 1, 38, 102
3, 47700, Note_on_c, 1, 57, 93
3, 47719, Note_on_c, 1, 58, 0
3, 47729, Note_on_c, 1, 57, 0
3, 47730, Note_on_c, 1, 55, 93
3, 47760, Note_on_c, 1, 57, 93
3, 47765, Note_on_c, 1, 55, 0
3, 47991, Note_on_c, 1, 38, 0
3, 47999, Note_on_c, 1, 57, 0
3, 48000, Note_on_c, 1, 43, 98
3, 48000, Note_on_c, 1, 55, 89
3, 48110, Note_on_c, 1, 55, 0
3, 48120, Note_on_c, 1, 47, 93
3, 48180, Note_on_c, 1, 45, 76
3, 48201, Note_on_c, 1, 47, 0
3, 48210, Note_on_c, 1, 47, 80
3, 48217, Note_on_c, 1, 45, 0
3, 48240, Note_on_c, 1, 47, 0
3, 48240, Note_on_c, 1, 48, 62
3, 48297, Note_on_c, 1, 48, 0
3, 48300, Note_on_c, 1, 50, 59
3, 48357, Note_on_c, 1, 50, 0
3, 48360, Note_on_c, 1, 51, 89
3, 48420, Note_on_c, 1, 53, 76
3, 48425, Note_on_c, 1, 51, 0
3, 48480, Note_on_c, 1, 55, 93
3, 48484, Note_on_c, 1, 53, 0
3, 48720, Note_on_c, 1, 51, 93
3, 48727, Note_on_c, 1, 55, 0
3, 48900, Note_on_c, 1, 50, 89
3, 48904, Note_on_c, 1, 51, 0
3, 48926, Note_on_c, 1, 50, 0
3, 48930, Note_on_c, 1, 48, 72
3, 48960, Note_on_c, 1, 47, 98
3, 48967, Note_on_c, 1, 48, 0
3, 49197, Note_on_c, 1, 47, 0
3, 49200, Note_on_c, 1, 48, 93
3, 49260, Note_on_c, 1, 50, 89
3, 49265, Note_on_c, 1, 48, 0
3, 49320, Note_on_c, 1, 51, 85
3, 49326, Note_on_c, 1, 50, 0
3, 49380, Note_on_c, 1, 48, 85
3, 49386, Note_on_c, 1, 51, 0
3, 49440, Note_on_c, 1, 55, 93
3, 49444, Note_on_c, 1, 48, 0
3, 49894, Note_on_c, 1, 55, 0
3, 49920, Note_on_c, 1, 55, 98
3, 50399, Note_on_c, 1, 43, 0
3, 50402, Note_on_c, 1, 55, 0
3, 50402, Control_c, 1, 121, 0
3, 50402, End_track
4, 0, Start_track
4, 0, MIDI_port, 0
4, 0, End_track
5, 0, Start_track
5, 0, MIDI_port, 0
5, 0, Title_t, "Title: Fuga in Gmin (K. 401, 1782)"
5, 0, End_track
6, 0, Start_track
6, 0, MIDI_port, 0
6, 0, Title_t, "Composer: W. A. Mozart"
6, 0, End_track
7, 0, Start_track
7, 0, MIDI_port, 0
7, 0, Title_t, "Sequence: Faren Raborn, Copyright 1996"
7, 0, End_track
8, 0, Start_track
8, 0, MIDI_port, 0
8, 0, Title_t, "Email: raborn@dtx.net"
8, 0, End_track
0, 0, End_of_file