0, 0, Header, 1, 2, 480
1, 0, Start_track
1, 0, Sequencer_specific, 09, 43, 7B, 00, 58, 46, 30, 32, 00, 02
1, 0, Title_t, "Ave Verum   "
1, 0, Time_signature, 4, 2, 24, 8
1, 0, Tempo, 882352
1, 80012, Tempo, 845070
1, 80194, Tempo, 857142
1, 80253, Tempo, 869565
1, 80312, Tempo, 882352
1, 80371, Tempo, 895522
1, 80485, Tempo, 909090
1, 81047, Tempo, 923076
1, 81158, Tempo, 937500
1, 82195, Tempo, 923076
1, 82251, Tempo, 909090
1, 82307, Tempo, 895522
1, 82363, Tempo, 882352
1, 82422, Tempo, 869565
1, 82481, Tempo, 857142
1, 82540, Tempo, 845070
1, 82661, Tempo, 833333
1, 86255, Tempo, 845070
1, 86315, Tempo, 857142
1, 86374, Tempo, 869565
1, 86721, Tempo, 1500000
1, 87681, Tempo, 857142
1, 87681, End_track
2, 0, Start_track
2, 0, Title_t, "track 4 "
2, 0, Control_c, 3, 7, 127
2, 0, Control_c, 3, 10, 64
2, 0, Note_on_c, 3, 62, 80
2, 0, Note_on_c, 3, 50, 80
2, 0, Note_on_c, 3, 54, 80
2, 0, Control_c, 3, 0, 0
2, 0, Control_c, 3, 32, 0
2, 0, Program_c, 3, 52
2, 0, Control_c, 3, 0, 0
2, 0, Control_c, 3, 32, 0
2, 0, Program_c, 3, 51
2, 0, Control_c, 3, 0, 0
2, 0, Control_c, 3, 32, 50
2, 0, Program_c, 3, 51
2, 0, Control_c, 3, 0, 0
2, 0, Control_c, 3, 32, 0
2, 0, Program_c, 3, 51
2, 455, Note_off_c, 3, 62, 64
2, 480, Note_on_c, 3, 57, 80
2, 935, Note_off_c, 3, 57, 64
2, 960, Note_on_c, 3, 62, 80
2, 1367, Note_off_c, 3, 54, 64
2, 1415, Note_off_c, 3, 62, 64
2, 1440, Note_on_c, 3, 61, 80
2, 1440, Note_on_c, 3, 64, 80
2, 1440, Note_on_c, 3, 57, 80
2, 1823, Note_off_c, 3, 50, 64
2, 1895, Note_off_c, 3, 57, 64
2, 1895, Note_off_c, 3, 64, 64
2, 1895, Note_off_c, 3, 61, 64
2, 1920, Note_on_c, 3, 62, 80
2, 1920, Note_on_c, 3, 66, 80
2, 1920, Note_on_c, 3, 50, 80
2, 1920, Note_on_c, 3, 57, 80
2, 2375, Note_off_c, 3, 57, 64
2, 2375, Note_off_c, 3, 66, 64
2, 2375, Note_off_c, 3, 62, 64
2, 2400, Note_on_c, 3, 57, 80
2, 2400, Note_on_c, 3, 62, 80
2, 2400, Note_on_c, 3, 54, 80
2, 2855, Note_off_c, 3, 54, 64
2, 2855, Note_off_c, 3, 62, 64
2, 2855, Note_off_c, 3, 57, 64
2, 2880, Note_on_c, 3, 62, 80
2, 2880, Note_on_c, 3, 66, 80
2, 2880, Note_on_c, 3, 57, 80
2, 3335, Note_off_c, 3, 57, 64
2, 3335, Note_off_c, 3, 66, 64
2, 3335, Note_off_c, 3, 62, 64
2, 3360, Note_on_c, 3, 64, 80
2, 3360, Note_on_c, 3, 67, 80
2, 3360, Note_on_c, 3, 57, 80
2, 3743, Note_off_c, 3, 50, 64
2, 3815, Note_off_c, 3, 57, 64
2, 3815, Note_off_c, 3, 67, 64
2, 3815, Note_off_c, 3, 64, 64
2, 3840, Note_on_c, 3, 69, 80
2, 3840, Note_on_c, 3, 50, 80
2, 3840, Note_on_c, 3, 57, 80
2, 3840, Note_on_c, 3, 66, 80
2, 4295, Note_off_c, 3, 69, 64
2, 4320, Note_on_c, 3, 66, 80
2, 4751, Note_off_c, 3, 57, 64
2, 4751, Note_off_c, 3, 50, 64
2, 4775, Note_off_c, 3, 66, 64
2, 4800, Note_on_c, 3, 74, 80
2, 4800, Note_on_c, 3, 50, 80
2, 4800, Note_on_c, 3, 57, 80
2, 5207, Note_off_c, 3, 66, 64
2, 5255, Note_off_c, 3, 74, 64
2, 5280, Note_on_c, 3, 62, 80
2, 5280, Note_on_c, 3, 66, 80
2, 5711, Note_off_c, 3, 57, 64
2, 5711, Note_off_c, 3, 50, 64
2, 5735, Note_off_c, 3, 66, 64
2, 5735, Note_off_c, 3, 62, 64
2, 5760, Note_on_c, 3, 69, 80
2, 5760, Note_on_c, 3, 50, 80
2, 5760, Note_on_c, 3, 59, 80
2, 5760, Note_on_c, 3, 64, 80
2, 6215, Note_off_c, 3, 69, 64
2, 6240, Note_on_c, 3, 68, 80
2, 6671, Note_off_c, 3, 64, 64
2, 6671, Note_off_c, 3, 59, 64
2, 6671, Note_off_c, 3, 50, 64
2, 6695, Note_off_c, 3, 68, 64
2, 6720, Note_on_c, 3, 67, 80
2, 6720, Note_on_c, 3, 50, 80
2, 6720, Note_on_c, 3, 59, 80
2, 6720, Note_on_c, 3, 64, 80
2, 7175, Note_off_c, 3, 67, 64
2, 7200, Note_on_c, 3, 67, 80
2, 7631, Note_off_c, 3, 64, 64
2, 7631, Note_off_c, 3, 59, 64
2, 7631, Note_off_c, 3, 50, 64
2, 7655, Note_off_c, 3, 67, 64
2, 7680, Note_on_c, 3, 64, 80
2, 7680, Note_on_c, 3, 67, 80
2, 7680, Note_on_c, 3, 49, 80
2, 7680, Note_on_c, 3, 57, 80
2, 8135, Note_off_c, 3, 67, 64
2, 8135, Note_off_c, 3, 64, 64
2, 8160, Note_on_c, 3, 67, 80
2, 8160, Note_on_c, 3, 71, 80
2, 8591, Note_off_c, 3, 57, 64
2, 8591, Note_off_c, 3, 49, 64
2, 8615, Note_off_c, 3, 71, 64
2, 8615, Note_off_c, 3, 67, 64
2, 8640, Note_on_c, 3, 66, 80
2, 8640, Note_on_c, 3, 69, 80
2, 8640, Note_on_c, 3, 49, 80
2, 8640, Note_on_c, 3, 57, 80
2, 9095, Note_off_c, 3, 69, 64
2, 9095, Note_off_c, 3, 66, 64
2, 9120, Note_on_c, 3, 64, 80
2, 9120, Note_on_c, 3, 67, 80
2, 9551, Note_off_c, 3, 57, 64
2, 9551, Note_off_c, 3, 49, 64
2, 9575, Note_off_c, 3, 67, 64
2, 9575, Note_off_c, 3, 64, 64
2, 9600, Note_on_c, 3, 64, 80
2, 9600, Note_on_c, 3, 67, 80
2, 9600, Note_on_c, 3, 50, 80
2, 9600, Note_on_c, 3, 57, 80
2, 10055, Note_off_c, 3, 67, 64
2, 10055, Note_off_c, 3, 64, 64
2, 10080, Note_on_c, 3, 62, 80
2, 10080, Note_on_c, 3, 66, 80
2, 10511, Note_off_c, 3, 57, 64
2, 10511, Note_off_c, 3, 50, 64
2, 10535, Note_off_c, 3, 66, 64
2, 10535, Note_off_c, 3, 62, 64
2, 10560, Note_on_c, 3, 66, 80
2, 10560, Note_on_c, 3, 50, 80
2, 10560, Note_on_c, 3, 57, 80
2, 10560, Note_on_c, 3, 62, 80
2, 11015, Note_off_c, 3, 66, 64
2, 11040, Note_on_c, 3, 69, 80
2, 11471, Note_off_c, 3, 62, 64
2, 11471, Note_off_c, 3, 57, 64
2, 11471, Note_off_c, 3, 50, 64
2, 11495, Note_off_c, 3, 69, 64
2, 11520, Note_on_c, 3, 69, 80
2, 11520, Note_on_c, 3, 45, 80
2, 11520, Note_on_c, 3, 57, 80
2, 11520, Note_on_c, 3, 61, 80
2, 11975, Note_off_c, 3, 69, 64
2, 12000, Note_on_c, 3, 64, 80
2, 12431, Note_off_c, 3, 61, 64
2, 12455, Note_off_c, 3, 64, 64
2, 12480, Note_on_c, 3, 64, 80
2, 12887, Note_off_c, 3, 57, 64
2, 12887, Note_off_c, 3, 45, 64
2, 12935, Note_off_c, 3, 64, 64
2, 12960, Note_on_c, 3, 69, 80
2, 12960, Note_on_c, 3, 45, 80
2, 12960, Note_on_c, 3, 61, 80
2, 13415, Note_off_c, 3, 61, 64
2, 13415, Note_off_c, 3, 45, 64
2, 13415, Note_off_c, 3, 69, 64
2, 13440, Note_on_c, 3, 66, 80
2, 13440, Note_on_c, 3, 69, 80
2, 13440, Note_on_c, 3, 50, 80
2, 13440, Note_on_c, 3, 62, 80
2, 13895, Note_off_c, 3, 50, 64
2, 13895, Note_off_c, 3, 69, 64
2, 13895, Note_off_c, 3, 66, 64
2, 13920, Note_on_c, 3, 74, 80
2, 13920, Note_on_c, 3, 78, 80
2, 13920, Note_on_c, 3, 50, 80
2, 14351, Note_off_c, 3, 62, 64
2, 14375, Note_off_c, 3, 50, 64
2, 14375, Note_off_c, 3, 78, 64
2, 14375, Note_off_c, 3, 74, 64
2, 14400, Note_on_c, 3, 76, 80
2, 14400, Note_on_c, 3, 79, 80
2, 14400, Note_on_c, 3, 49, 80
2, 14400, Note_on_c, 3, 57, 80
2, 14855, Note_off_c, 3, 49, 64
2, 14855, Note_off_c, 3, 79, 64
2, 14855, Note_off_c, 3, 76, 64
2, 14880, Note_on_c, 3, 64, 80
2, 14880, Note_on_c, 3, 67, 80
2, 14880, Note_on_c, 3, 49, 80
2, 15311, Note_off_c, 3, 57, 64
2, 15335, Note_off_c, 3, 49, 64
2, 15335, Note_off_c, 3, 67, 64
2, 15335, Note_off_c, 3, 64, 64
2, 15360, Note_on_c, 3, 64, 80
2, 15360, Note_on_c, 3, 67, 80
2, 15360, Note_on_c, 3, 57, 80
2, 15360, Note_on_c, 3, 50, 80
2, 15815, Note_off_c, 3, 50, 64
2, 15840, Note_on_c, 3, 50, 80
2, 16271, Note_off_c, 3, 67, 64
2, 16271, Note_off_c, 3, 64, 64
2, 16295, Note_off_c, 3, 50, 64
2, 16320, Note_on_c, 3, 62, 80
2, 16320, Note_on_c, 3, 66, 80
2, 16320, Note_on_c, 3, 54, 80
2, 16775, Note_off_c, 3, 54, 64
2, 16800, Note_on_c, 3, 50, 80
2, 17183, Note_off_c, 3, 57, 64
2, 17231, Note_off_c, 3, 66, 64
2, 17231, Note_off_c, 3, 62, 64
2, 17255, Note_off_c, 3, 50, 64
2, 17280, Note_on_c, 3, 61, 80
2, 17280, Note_on_c, 3, 64, 80
2, 17280, Note_on_c, 3, 45, 80
2, 17735, Note_off_c, 3, 45, 64
2, 17735, Note_off_c, 3, 64, 64
2, 17735, Note_off_c, 3, 61, 64
2, 17760, Note_on_c, 3, 57, 80
2, 17760, Note_on_c, 3, 61, 80
2, 17760, Note_on_c, 3, 57, 80
2, 18215, Note_off_c, 3, 57, 64
2, 18215, Note_off_c, 3, 61, 64
2, 18215, Note_off_c, 3, 57, 64
2, 18240, Note_on_c, 3, 57, 80
2, 18240, Note_on_c, 3, 61, 80
2, 18240, Note_on_c, 3, 52, 80
2, 18695, Note_off_c, 3, 52, 64
2, 18695, Note_off_c, 3, 61, 64
2, 18695, Note_off_c, 3, 57, 64
2, 18720, Note_on_c, 3, 61, 80
2, 18720, Note_on_c, 3, 64, 80
2, 18720, Note_on_c, 3, 49, 80
2, 19175, Note_off_c, 3, 49, 64
2, 19175, Note_off_c, 3, 64, 64
2, 19175, Note_off_c, 3, 61, 64
2, 19200, Note_on_c, 3, 64, 80
2, 19200, Note_on_c, 3, 45, 80
2, 19200, Note_on_c, 3, 57, 80
2, 19655, Note_off_c, 3, 64, 64
2, 19680, Note_on_c, 3, 76, 80
2, 20111, Note_off_c, 3, 57, 64
2, 20111, Note_off_c, 3, 45, 64
2, 20135, Note_off_c, 3, 76, 64
2, 20160, Note_on_c, 3, 73, 80
2, 20160, Note_on_c, 3, 57, 80
2, 20160, Note_on_c, 3, 64, 80
2, 20615, Note_off_c, 3, 73, 64
2, 20640, Note_on_c, 3, 61, 80
2, 20640, Note_on_c, 3, 69, 80
2, 21071, Note_off_c, 3, 64, 64
2, 21071, Note_off_c, 3, 57, 64
2, 21095, Note_off_c, 3, 69, 64
2, 21095, Note_off_c, 3, 61, 64
2, 21120, Note_on_c, 3, 61, 80
2, 21120, Note_on_c, 3, 69, 80
2, 21120, Note_on_c, 3, 64, 80
2, 21575, Note_off_c, 3, 69, 64
2, 21575, Note_off_c, 3, 61, 64
2, 21600, Note_on_c, 3, 62, 80
2, 21600, Note_on_c, 3, 68, 80
2, 22031, Note_off_c, 3, 64, 64
2, 22055, Note_off_c, 3, 68, 64
2, 22055, Note_off_c, 3, 62, 64
2, 22080, Note_on_c, 3, 68, 80
2, 22080, Note_on_c, 3, 59, 80
2, 22080, Note_on_c, 3, 64, 80
2, 22535, Note_off_c, 3, 68, 64
2, 22560, Note_on_c, 3, 64, 80
2, 22991, Note_off_c, 3, 59, 64
2, 22991, Note_off_c, 3, 64, 64
2, 23015, Note_off_c, 3, 64, 64
2, 23040, Note_on_c, 3, 64, 80
2, 23040, Note_on_c, 3, 56, 80
2, 23040, Note_on_c, 3, 64, 80
2, 23495, Note_off_c, 3, 64, 64
2, 23520, Note_on_c, 3, 76, 80
2, 23951, Note_off_c, 3, 64, 64
2, 23951, Note_off_c, 3, 56, 64
2, 23975, Note_off_c, 3, 76, 64
2, 24000, Note_on_c, 3, 68, 80
2, 24000, Note_on_c, 3, 71, 80
2, 24000, Note_on_c, 3, 52, 80
2, 24455, Note_off_c, 3, 71, 64
2, 24455, Note_off_c, 3, 68, 64
2, 24480, Note_on_c, 3, 68, 80
2, 24480, Note_on_c, 3, 71, 80
2, 24911, Note_off_c, 3, 52, 64
2, 24935, Note_off_c, 3, 71, 64
2, 24935, Note_off_c, 3, 68, 64
2, 24960, Note_on_c, 3, 53, 80
2, 24960, Note_on_c, 3, 62, 80
2, 24960, Note_on_c, 3, 68, 80
2, 24960, Note_on_c, 3, 71, 80
2, 25415, Note_off_c, 3, 71, 64
2, 25415, Note_off_c, 3, 68, 64
2, 25415, Note_off_c, 3, 62, 64
2, 25415, Note_off_c, 3, 53, 64
2, 25440, Note_on_c, 3, 54, 80
2, 25440, Note_on_c, 3, 61, 80
2, 25440, Note_on_c, 3, 69, 80
2, 25895, Note_off_c, 3, 69, 64
2, 25895, Note_off_c, 3, 61, 64
2, 25895, Note_off_c, 3, 54, 64
2, 25920, Note_on_c, 3, 69, 80
2, 25920, Note_on_c, 3, 54, 80
2, 25920, Note_on_c, 3, 61, 80
2, 26375, Note_off_c, 3, 69, 64
2, 26831, Note_off_c, 3, 61, 64
2, 26831, Note_off_c, 3, 54, 64
2, 26880, Note_on_c, 3, 74, 80
2, 27335, Note_off_c, 3, 74, 64
2, 27360, Note_on_c, 3, 57, 80
2, 27360, Note_on_c, 3, 74, 80
2, 27815, Note_off_c, 3, 57, 64
2, 27840, Note_on_c, 3, 56, 80
2, 27840, Note_on_c, 3, 47, 80
2, 28271, Note_off_c, 3, 74, 64
2, 28295, Note_off_c, 3, 56, 64
2, 28320, Note_on_c, 3, 59, 80
2, 28320, Note_on_c, 3, 68, 80
2, 28320, Note_on_c, 3, 74, 80
2, 28751, Note_off_c, 3, 47, 64
2, 28775, Note_off_c, 3, 74, 64
2, 28775, Note_off_c, 3, 68, 64
2, 28775, Note_off_c, 3, 59, 64
2, 28800, Note_on_c, 3, 74, 80
2, 28800, Note_on_c, 3, 49, 80
2, 28800, Note_on_c, 3, 64, 80
2, 28800, Note_on_c, 3, 69, 80
2, 29255, Note_off_c, 3, 74, 64
2, 29280, Note_on_c, 3, 73, 80
2, 29711, Note_off_c, 3, 69, 64
2, 29711, Note_off_c, 3, 64, 64
2, 29711, Note_off_c, 3, 49, 64
2, 29735, Note_off_c, 3, 73, 64
2, 29760, Note_on_c, 3, 71, 80
2, 29760, Note_on_c, 3, 50, 80
2, 29760, Note_on_c, 3, 66, 80
2, 30215, Note_off_c, 3, 71, 64
2, 30240, Note_on_c, 3, 61, 80
2, 30240, Note_on_c, 3, 69, 80
2, 30671, Note_off_c, 3, 66, 64
2, 30671, Note_off_c, 3, 50, 64
2, 30695, Note_off_c, 3, 69, 64
2, 30695, Note_off_c, 3, 61, 64
2, 30720, Note_on_c, 3, 59, 80
2, 30720, Note_on_c, 3, 64, 80
2, 30720, Note_on_c, 3, 52, 80
2, 30720, Note_on_c, 3, 59, 80
2, 31175, Note_off_c, 3, 59, 64
2, 31200, Note_on_c, 3, 69, 80
2, 31631, Note_off_c, 3, 64, 64
2, 31655, Note_off_c, 3, 69, 64
2, 31680, Note_on_c, 3, 59, 80
2, 31680, Note_on_c, 3, 62, 30
2, 32087, Note_off_c, 3, 59, 64
2, 32135, Note_off_c, 3, 59, 64
2, 32160, Note_on_c, 3, 68, 80
2, 32160, Note_on_c, 3, 59, 80
2, 32543, Note_off_c, 3, 52, 64
2, 32591, Note_off_c, 3, 62, 64
2, 32615, Note_off_c, 3, 59, 64
2, 32615, Note_off_c, 3, 68, 64
2, 32640, Note_on_c, 3, 61, 80
2, 32640, Note_on_c, 3, 45, 80
2, 32640, Note_on_c, 3, 57, 80
2, 33120, Note_on_c, 3, 69, 80
2, 33551, Note_off_c, 3, 61, 64
2, 33575, Note_off_c, 3, 69, 64
2, 33600, Note_on_c, 3, 76, 80
2, 34007, Note_off_c, 3, 57, 64
2, 34007, Note_off_c, 3, 45, 64
2, 34080, Note_on_c, 3, 49, 80
2, 34080, Note_on_c, 3, 61, 80
2, 34080, Note_on_c, 3, 64, 80
2, 34511, Note_off_c, 3, 76, 64
2, 34535, Note_off_c, 3, 64, 64
2, 34535, Note_off_c, 3, 61, 64
2, 34535, Note_off_c, 3, 49, 64
2, 34560, Note_on_c, 3, 61, 80
2, 34560, Note_on_c, 3, 69, 80
2, 34560, Note_on_c, 3, 76, 80
2, 34560, Note_on_c, 3, 54, 80
2, 35015, Note_off_c, 3, 76, 64
2, 35015, Note_off_c, 3, 69, 64
2, 35015, Note_off_c, 3, 61, 64
2, 35040, Note_on_c, 3, 62, 80
2, 35040, Note_on_c, 3, 74, 80
2, 35040, Note_on_c, 3, 69, 80
2, 35471, Note_off_c, 3, 54, 64
2, 35495, Note_off_c, 3, 74, 64
2, 35495, Note_off_c, 3, 62, 64
2, 35520, Note_on_c, 3, 52, 80
2, 35520, Note_on_c, 3, 61, 80
2, 35520, Note_on_c, 3, 76, 80
2, 35951, Note_off_c, 3, 69, 64
2, 35975, Note_off_c, 3, 76, 64
2, 35975, Note_off_c, 3, 61, 64
2, 35975, Note_off_c, 3, 52, 64
2, 36000, Note_on_c, 3, 51, 80
2, 36000, Note_on_c, 3, 59, 80
2, 36000, Note_on_c, 3, 69, 80
2, 36000, Note_on_c, 3, 78, 80
2, 36455, Note_off_c, 3, 78, 64
2, 36455, Note_off_c, 3, 69, 64
2, 36455, Note_off_c, 3, 59, 64
2, 36455, Note_off_c, 3, 51, 64
2, 36480, Note_on_c, 3, 61, 80
2, 36480, Note_on_c, 3, 52, 80
2, 36480, Note_on_c, 3, 61, 80
2, 36480, Note_on_c, 3, 69, 80
2, 36935, Note_off_c, 3, 61, 64
2, 36960, Note_on_c, 3, 64, 80
2, 37390, Note_on_c, 3, 73, 80
2, 37391, Note_off_c, 3, 69, 64
2, 37391, Note_off_c, 3, 61, 64
2, 37391, Note_off_c, 3, 52, 64
2, 37415, Note_off_c, 3, 64, 64
2, 37440, Note_on_c, 3, 62, 80
2, 37440, Note_on_c, 3, 40, 80
2, 37440, Note_on_c, 3, 56, 80
2, 37456, Note_on_c, 3, 71, 80
2, 37465, Note_off_c, 3, 73, 64
2, 37895, Note_off_c, 3, 62, 64
2, 37920, Note_on_c, 3, 64, 80
2, 38162, Note_off_c, 3, 71, 64
2, 38178, Note_on_c, 3, 69, 80
2, 38328, Note_off_c, 3, 69, 64
2, 38351, Note_off_c, 3, 56, 64
2, 38351, Note_off_c, 3, 40, 64
2, 38375, Note_off_c, 3, 64, 64
2, 38400, Note_on_c, 3, 69, 80
2, 38400, Note_on_c, 3, 57, 80
2, 38400, Note_on_c, 3, 61, 80
2, 38415, Note_on_c, 3, 69, 80
2, 38855, Note_off_c, 3, 69, 64
2, 38880, Note_on_c, 3, 64, 80
2, 38921, Note_off_c, 3, 57, 64
2, 39311, Note_off_c, 3, 69, 64
2, 39311, Note_off_c, 3, 61, 64
2, 39335, Note_off_c, 3, 64, 64
2, 39360, Note_on_c, 3, 57, 80
2, 39360, Note_on_c, 3, 61, 80
2, 39360, Note_on_c, 3, 52, 80
2, 39815, Note_off_c, 3, 52, 64
2, 39815, Note_off_c, 3, 61, 64
2, 39815, Note_off_c, 3, 57, 64
2, 39840, Note_on_c, 3, 57, 80
2, 39840, Note_on_c, 3, 61, 80
2, 39840, Note_on_c, 3, 64, 80
2, 40295, Note_off_c, 3, 64, 64
2, 40295, Note_off_c, 3, 61, 64
2, 40295, Note_off_c, 3, 57, 64
2, 40320, Note_on_c, 3, 69, 80
2, 40320, Note_on_c, 3, 45, 80
2, 40775, Note_off_c, 3, 69, 64
2, 40800, Note_on_c, 3, 64, 80
2, 41231, Note_off_c, 3, 45, 64
2, 41255, Note_off_c, 3, 64, 64
2, 41280, Note_on_c, 3, 61, 80
2, 41280, Note_on_c, 3, 57, 80
2, 41735, Note_off_c, 3, 61, 64
2, 41760, Note_on_c, 3, 61, 80
2, 41760, Note_on_c, 3, 64, 80
2, 41760, Note_on_c, 3, 69, 80
2, 42191, Note_off_c, 3, 57, 64
2, 42215, Note_off_c, 3, 69, 64
2, 42215, Note_off_c, 3, 64, 64
2, 42215, Note_off_c, 3, 61, 64
2, 42240, Note_on_c, 3, 57, 80
2, 42240, Note_on_c, 3, 69, 80
2, 42240, Note_on_c, 3, 64, 80
2, 42695, Note_off_c, 3, 69, 64
2, 42695, Note_off_c, 3, 57, 64
2, 42720, Note_on_c, 3, 55, 80
2, 42720, Note_on_c, 3, 70, 80
2, 43151, Note_off_c, 3, 64, 64
2, 43175, Note_off_c, 3, 70, 64
2, 43175, Note_off_c, 3, 55, 64
2, 43200, Note_on_c, 3, 55, 80
2, 43200, Note_on_c, 3, 64, 80
2, 43200, Note_on_c, 3, 70, 80
2, 43680, Note_on_c, 3, 60, 80
2, 44111, Note_off_c, 3, 70, 64
2, 44111, Note_off_c, 3, 64, 64
2, 44111, Note_off_c, 3, 55, 64
2, 44135, Note_off_c, 3, 60, 64
2, 44160, Note_on_c, 3, 60, 80
2, 44160, Note_on_c, 3, 70, 80
2, 44160, Note_on_c, 3, 48, 80
2, 44615, Note_off_c, 3, 70, 64
2, 44615, Note_off_c, 3, 60, 64
2, 44640, Note_on_c, 3, 58, 80
2, 44640, Note_on_c, 3, 74, 80
2, 45071, Note_off_c, 3, 48, 64
2, 45095, Note_off_c, 3, 74, 64
2, 45095, Note_off_c, 3, 58, 64
2, 45120, Note_on_c, 3, 57, 80
2, 45120, Note_on_c, 3, 72, 80
2, 45120, Note_on_c, 3, 48, 80
2, 45575, Note_off_c, 3, 72, 64
2, 45575, Note_off_c, 3, 57, 64
2, 45600, Note_on_c, 3, 55, 80
2, 45600, Note_on_c, 3, 64, 80
2, 45600, Note_on_c, 3, 70, 80
2, 46031, Note_off_c, 3, 48, 64
2, 46055, Note_off_c, 3, 70, 64
2, 46055, Note_off_c, 3, 64, 64
2, 46055, Note_off_c, 3, 55, 64
2, 46080, Note_on_c, 3, 48, 80
2, 46080, Note_on_c, 3, 55, 80
2, 46080, Note_on_c, 3, 64, 80
2, 46080, Note_on_c, 3, 70, 80
2, 46535, Note_off_c, 3, 70, 64
2, 46535, Note_off_c, 3, 64, 64
2, 46535, Note_off_c, 3, 55, 64
2, 46535, Note_off_c, 3, 48, 64
2, 46560, Note_on_c, 3, 53, 80
2, 46560, Note_on_c, 3, 57, 80
2, 46560, Note_on_c, 3, 65, 80
2, 46560, Note_on_c, 3, 69, 80
2, 47015, Note_off_c, 3, 69, 64
2, 47015, Note_off_c, 3, 65, 64
2, 47015, Note_off_c, 3, 57, 64
2, 47015, Note_off_c, 3, 53, 64
2, 47040, Note_on_c, 3, 69, 80
2, 47040, Note_on_c, 3, 53, 80
2, 47040, Note_on_c, 3, 57, 80
2, 47040, Note_on_c, 3, 65, 80
2, 47495, Note_off_c, 3, 69, 64
2, 47520, Note_on_c, 3, 57, 80
2, 47951, Note_off_c, 3, 65, 64
2, 47951, Note_off_c, 3, 53, 64
2, 47951, Note_off_c, 3, 57, 64
2, 47975, Note_off_c, 3, 57, 64
2, 48000, Note_on_c, 3, 55, 80
2, 48000, Note_on_c, 3, 53, 80
2, 48455, Note_off_c, 3, 55, 64
2, 48480, Note_on_c, 3, 62, 80
2, 48911, Note_off_c, 3, 53, 64
2, 48935, Note_off_c, 3, 62, 64
2, 48960, Note_on_c, 3, 67, 80
2, 48960, Note_on_c, 3, 53, 80
2, 49415, Note_off_c, 3, 67, 64
2, 49440, Note_on_c, 3, 59, 80
2, 49440, Note_on_c, 3, 67, 80
2, 49871, Note_off_c, 3, 53, 64
2, 49895, Note_off_c, 3, 67, 64
2, 49895, Note_off_c, 3, 59, 64
2, 49920, Note_on_c, 3, 52, 80
2, 49920, Note_on_c, 3, 55, 80
2, 49920, Note_on_c, 3, 61, 80
2, 49920, Note_on_c, 3, 67, 80
2, 50375, Note_off_c, 3, 67, 64
2, 50375, Note_off_c, 3, 61, 64
2, 50375, Note_off_c, 3, 55, 64
2, 50375, Note_off_c, 3, 52, 64
2, 50400, Note_on_c, 3, 50, 80
2, 50400, Note_on_c, 3, 58, 80
2, 50400, Note_on_c, 3, 65, 80
2, 50400, Note_on_c, 3, 70, 80
2, 50855, Note_off_c, 3, 70, 64
2, 50855, Note_off_c, 3, 65, 64
2, 50855, Note_off_c, 3, 58, 64
2, 50855, Note_off_c, 3, 50, 64
2, 50880, Note_on_c, 3, 49, 80
2, 50880, Note_on_c, 3, 52, 80
2, 50880, Note_on_c, 3, 64, 80
2, 50880, Note_on_c, 3, 69, 80
2, 51335, Note_off_c, 3, 69, 64
2, 51335, Note_off_c, 3, 64, 64
2, 51335, Note_off_c, 3, 52, 64
2, 51335, Note_off_c, 3, 49, 64
2, 51360, Note_on_c, 3, 45, 80
2, 51360, Note_on_c, 3, 61, 80
2, 51360, Note_on_c, 3, 64, 80
2, 51360, Note_on_c, 3, 67, 80
2, 51815, Note_off_c, 3, 67, 64
2, 51815, Note_off_c, 3, 64, 64
2, 51815, Note_off_c, 3, 61, 64
2, 51815, Note_off_c, 3, 45, 64
2, 51840, Note_on_c, 3, 46, 80
2, 51840, Note_on_c, 3, 61, 80
2, 51840, Note_on_c, 3, 64, 80
2, 51840, Note_on_c, 3, 67, 80
2, 52295, Note_off_c, 3, 46, 64
2, 52320, Note_on_c, 3, 46, 80
2, 52751, Note_off_c, 3, 67, 64
2, 52751, Note_off_c, 3, 64, 64
2, 52751, Note_off_c, 3, 61, 64
2, 52775, Note_off_c, 3, 46, 64
2, 52800, Note_on_c, 3, 45, 80
2, 52800, Note_on_c, 3, 62, 80
2, 52800, Note_on_c, 3, 62, 80
2, 52800, Note_on_c, 3, 65, 80
2, 53027, Note_off_c, 3, 65, 64
2, 53027, Note_off_c, 3, 62, 64
2, 53040, Note_on_c, 3, 61, 80
2, 53040, Note_on_c, 3, 64, 80
2, 53255, Note_off_c, 3, 62, 64
2, 53255, Note_off_c, 3, 45, 64
2, 53267, Note_off_c, 3, 64, 64
2, 53267, Note_off_c, 3, 61, 64
2, 53280, Note_on_c, 3, 44, 80
2, 53280, Note_on_c, 3, 59, 80
2, 53280, Note_on_c, 3, 62, 80
2, 53280, Note_on_c, 3, 65, 80
2, 53735, Note_off_c, 3, 65, 64
2, 53735, Note_off_c, 3, 62, 64
2, 53735, Note_off_c, 3, 59, 64
2, 53735, Note_off_c, 3, 44, 64
2, 53760, Note_on_c, 3, 45, 80
2, 53760, Note_on_c, 3, 52, 80
2, 53760, Note_on_c, 3, 61, 80
2, 53760, Note_on_c, 3, 64, 80
2, 54215, Note_off_c, 3, 64, 64
2, 54215, Note_off_c, 3, 61, 64
2, 54215, Note_off_c, 3, 52, 64
2, 54215, Note_off_c, 3, 45, 64
2, 54240, Note_on_c, 3, 57, 80
2, 54240, Note_on_c, 3, 61, 80
2, 54240, Note_on_c, 3, 57, 80
2, 54695, Note_off_c, 3, 61, 64
2, 54695, Note_off_c, 3, 57, 64
2, 54720, Note_on_c, 3, 59, 80
2, 54720, Note_on_c, 3, 62, 80
2, 55151, Note_off_c, 3, 57, 64
2, 55175, Note_off_c, 3, 62, 64
2, 55175, Note_off_c, 3, 59, 64
2, 55200, Note_on_c, 3, 57, 80
2, 55200, Note_on_c, 3, 61, 80
2, 55200, Note_on_c, 3, 64, 80
2, 55200, Note_on_c, 3, 57, 80
2, 55427, Note_off_c, 3, 57, 64
2, 55440, Note_on_c, 3, 52, 80
2, 55655, Note_off_c, 3, 57, 64
2, 55655, Note_off_c, 3, 64, 64
2, 55655, Note_off_c, 3, 61, 64
2, 55667, Note_off_c, 3, 52, 64
2, 55680, Note_on_c, 3, 50, 80
2, 55680, Note_on_c, 3, 57, 80
2, 55680, Note_on_c, 3, 62, 80
2, 55680, Note_on_c, 3, 66, 80
2, 56591, Note_off_c, 3, 57, 64
2, 56591, Note_off_c, 3, 50, 64
2, 56640, Note_on_c, 3, 50, 80
2, 57047, Note_off_c, 3, 66, 64
2, 57047, Note_off_c, 3, 62, 64
2, 57120, Note_on_c, 3, 62, 80
2, 57120, Note_on_c, 3, 66, 80
2, 57551, Note_off_c, 3, 50, 64
2, 57575, Note_off_c, 3, 66, 64
2, 57575, Note_off_c, 3, 62, 64
2, 57600, Note_on_c, 3, 62, 80
2, 57600, Note_on_c, 3, 66, 80
2, 57600, Note_on_c, 3, 55, 80
2, 57600, Note_on_c, 3, 59, 80
2, 58055, Note_off_c, 3, 66, 64
2, 58055, Note_off_c, 3, 62, 64
2, 58080, Note_on_c, 3, 61, 80
2, 58080, Note_on_c, 3, 64, 80
2, 58535, Note_off_c, 3, 64, 64
2, 58535, Note_off_c, 3, 61, 64
2, 58560, Note_on_c, 3, 59, 80
2, 58560, Note_on_c, 3, 62, 80
2, 58967, Note_off_c, 3, 55, 64
2, 58967, Note_off_c, 3, 59, 64
2, 59015, Note_off_c, 3, 59, 64
2, 59015, Note_off_c, 3, 62, 64
2, 59040, Note_on_c, 3, 64, 80
2, 59040, Note_on_c, 3, 67, 80
2, 59040, Note_on_c, 3, 55, 80
2, 59040, Note_on_c, 3, 59, 80
2, 59495, Note_off_c, 3, 59, 64
2, 59495, Note_off_c, 3, 55, 64
2, 59495, Note_off_c, 3, 67, 64
2, 59495, Note_off_c, 3, 64, 64
2, 59520, Note_on_c, 3, 55, 80
2, 59520, Note_on_c, 3, 59, 80
2, 59520, Note_on_c, 3, 64, 80
2, 59520, Note_on_c, 3, 67, 80
2, 59975, Note_off_c, 3, 59, 64
2, 59975, Note_off_c, 3, 55, 64
2, 60000, Note_on_c, 3, 54, 80
2, 60000, Note_on_c, 3, 57, 80
2, 60455, Note_off_c, 3, 57, 64
2, 60455, Note_off_c, 3, 54, 64
2, 60480, Note_on_c, 3, 52, 80
2, 60480, Note_on_c, 3, 55, 80
2, 60887, Note_off_c, 3, 67, 64
2, 60887, Note_off_c, 3, 64, 64
2, 60935, Note_off_c, 3, 55, 64
2, 60935, Note_off_c, 3, 52, 64
2, 60960, Note_on_c, 3, 57, 80
2, 60960, Note_on_c, 3, 61, 80
2, 60960, Note_on_c, 3, 64, 80
2, 60960, Note_on_c, 3, 67, 80
2, 61415, Note_off_c, 3, 67, 64
2, 61415, Note_off_c, 3, 64, 64
2, 61415, Note_off_c, 3, 61, 64
2, 61415, Note_off_c, 3, 57, 64
2, 61440, Note_on_c, 3, 64, 80
2, 61440, Note_on_c, 3, 67, 80
2, 61440, Note_on_c, 3, 57, 80
2, 61440, Note_on_c, 3, 61, 80
2, 61895, Note_off_c, 3, 67, 64
2, 61895, Note_off_c, 3, 64, 64
2, 61920, Note_on_c, 3, 62, 80
2, 61920, Note_on_c, 3, 66, 80
2, 62375, Note_off_c, 3, 66, 64
2, 62375, Note_off_c, 3, 62, 64
2, 62400, Note_on_c, 3, 61, 80
2, 62400, Note_on_c, 3, 64, 80
2, 62807, Note_off_c, 3, 57, 64
2, 62807, Note_off_c, 3, 61, 64
2, 62855, Note_off_c, 3, 61, 64
2, 62855, Note_off_c, 3, 64, 64
2, 62880, Note_on_c, 3, 57, 80
2, 62880, Note_on_c, 3, 61, 80
2, 62880, Note_on_c, 3, 66, 80
2, 62880, Note_on_c, 3, 69, 80
2, 63335, Note_off_c, 3, 69, 64
2, 63335, Note_off_c, 3, 66, 64
2, 63335, Note_off_c, 3, 61, 64
2, 63335, Note_off_c, 3, 57, 64
2, 63360, Note_on_c, 3, 57, 80
2, 63360, Note_on_c, 3, 61, 80
2, 63360, Note_on_c, 3, 66, 80
2, 63360, Note_on_c, 3, 69, 80
2, 63815, Note_off_c, 3, 61, 64
2, 63815, Note_off_c, 3, 57, 64
2, 63840, Note_on_c, 3, 55, 80
2, 63840, Note_on_c, 3, 59, 80
2, 64295, Note_off_c, 3, 59, 64
2, 64295, Note_off_c, 3, 55, 64
2, 64320, Note_on_c, 3, 54, 80
2, 64320, Note_on_c, 3, 57, 80
2, 64727, Note_off_c, 3, 69, 64
2, 64727, Note_off_c, 3, 66, 64
2, 64775, Note_off_c, 3, 57, 64
2, 64775, Note_off_c, 3, 54, 64
2, 64800, Note_on_c, 3, 59, 80
2, 64800, Note_on_c, 3, 62, 80
2, 64800, Note_on_c, 3, 66, 80
2, 64800, Note_on_c, 3, 69, 80
2, 65255, Note_off_c, 3, 69, 64
2, 65255, Note_off_c, 3, 66, 64
2, 65255, Note_off_c, 3, 62, 64
2, 65255, Note_off_c, 3, 59, 64
2, 65280, Note_on_c, 3, 66, 80
2, 65280, Note_on_c, 3, 69, 80
2, 65280, Note_on_c, 3, 62, 80
2, 65280, Note_on_c, 3, 59, 80
2, 65735, Note_off_c, 3, 69, 64
2, 65735, Note_off_c, 3, 66, 64
2, 65760, Note_on_c, 3, 67, 80
2, 66191, Note_off_c, 3, 59, 64
2, 66215, Note_off_c, 3, 67, 64
2, 66240, Note_on_c, 3, 57, 80
2, 66240, Note_on_c, 3, 66, 80
2, 66240, Note_on_c, 3, 69, 80
2, 66647, Note_off_c, 3, 62, 64
2, 66695, Note_off_c, 3, 69, 64
2, 66695, Note_off_c, 3, 66, 64
2, 66695, Note_off_c, 3, 57, 64
2, 66720, Note_on_c, 3, 56, 80
2, 66720, Note_on_c, 3, 62, 80
2, 66720, Note_on_c, 3, 64, 80
2, 66720, Note_on_c, 3, 71, 80
2, 67175, Note_off_c, 3, 71, 64
2, 67175, Note_off_c, 3, 64, 64
2, 67175, Note_off_c, 3, 62, 64
2, 67175, Note_off_c, 3, 56, 64
2, 67200, Note_on_c, 3, 57, 80
2, 67200, Note_on_c, 3, 62, 80
2, 67200, Note_on_c, 3, 66, 80
2, 68111, Note_off_c, 3, 66, 64
2, 68111, Note_off_c, 3, 62, 64
2, 68111, Note_off_c, 3, 57, 64
2, 68160, Note_on_c, 3, 45, 80
2, 68160, Note_on_c, 3, 57, 80
2, 68160, Note_on_c, 3, 61, 80
2, 68160, Note_on_c, 3, 64, 80
2, 68843, Note_off_c, 3, 64, 64
2, 68880, Note_on_c, 3, 66, 80
2, 69071, Note_off_c, 3, 61, 64
2, 69071, Note_off_c, 3, 57, 64
2, 69071, Note_off_c, 3, 45, 64
2, 69107, Note_off_c, 3, 66, 64
2, 69120, Note_on_c, 3, 47, 80
2, 69120, Note_on_c, 3, 50, 80
2, 69120, Note_on_c, 3, 67, 80
2, 69575, Note_off_c, 3, 67, 64
2, 69600, Note_on_c, 3, 67, 80
2, 70031, Note_off_c, 3, 50, 64
2, 70031, Note_off_c, 3, 47, 64
2, 70511, Note_off_c, 3, 67, 64
2, 70560, Note_on_c, 3, 67, 80
2, 71015, Note_off_c, 3, 67, 64
2, 71040, Note_on_c, 3, 74, 80
2, 71495, Note_off_c, 3, 74, 64
2, 71520, Note_on_c, 3, 59, 80
2, 71520, Note_on_c, 3, 74, 80
2, 71975, Note_off_c, 3, 59, 64
2, 72000, Note_on_c, 3, 60, 80
2, 72000, Note_on_c, 3, 57, 80
2, 72431, Note_off_c, 3, 74, 64
2, 72455, Note_off_c, 3, 60, 64
2, 72480, Note_on_c, 3, 62, 80
2, 72480, Note_on_c, 3, 66, 80
2, 72480, Note_on_c, 3, 74, 80
2, 72911, Note_off_c, 3, 57, 64
2, 72935, Note_off_c, 3, 74, 64
2, 72935, Note_off_c, 3, 66, 64
2, 72935, Note_off_c, 3, 62, 64
2, 72960, Note_on_c, 3, 67, 80
2, 72960, Note_on_c, 3, 74, 80
2, 72960, Note_on_c, 3, 58, 80
2, 73415, Note_off_c, 3, 74, 64
2, 73415, Note_off_c, 3, 67, 64
2, 73440, Note_on_c, 3, 58, 80
2, 73440, Note_on_c, 3, 74, 80
2, 73871, Note_off_c, 3, 58, 64
2, 73895, Note_off_c, 3, 58, 64
2, 73895, Note_off_c, 3, 74, 64
2, 73920, Note_on_c, 3, 60, 80
2, 73920, Note_on_c, 3, 75, 80
2, 73920, Note_on_c, 3, 57, 80
2, 74375, Note_off_c, 3, 75, 64
2, 74375, Note_off_c, 3, 60, 64
2, 74400, Note_on_c, 3, 66, 80
2, 74400, Note_on_c, 3, 75, 80
2, 74831, Note_off_c, 3, 57, 64
2, 74855, Note_off_c, 3, 75, 64
2, 74855, Note_off_c, 3, 66, 64
2, 74880, Note_on_c, 3, 59, 80
2, 74880, Note_on_c, 3, 76, 80
2, 74880, Note_on_c, 3, 56, 80
2, 75335, Note_off_c, 3, 76, 64
2, 75335, Note_off_c, 3, 59, 64
2, 75360, Note_on_c, 3, 62, 80
2, 75360, Note_on_c, 3, 71, 80
2, 75815, Note_off_c, 3, 71, 64
2, 75815, Note_off_c, 3, 62, 64
2, 75840, Note_on_c, 3, 61, 80
2, 75840, Note_on_c, 3, 73, 80
2, 76295, Note_off_c, 3, 73, 64
2, 76295, Note_off_c, 3, 61, 64
2, 76320, Note_on_c, 3, 59, 80
2, 76320, Note_on_c, 3, 74, 80
2, 76703, Note_off_c, 3, 56, 64
2, 76775, Note_off_c, 3, 74, 64
2, 76775, Note_off_c, 3, 59, 64
2, 76800, Note_on_c, 3, 64, 80
2, 76800, Note_on_c, 3, 73, 80
2, 76800, Note_on_c, 3, 55, 80
2, 76800, Note_on_c, 3, 57, 80
2, 77255, Note_off_c, 3, 73, 64
2, 77255, Note_off_c, 3, 64, 64
2, 77280, Note_on_c, 3, 62, 80
2, 77280, Note_on_c, 3, 71, 80
2, 77507, Note_off_c, 3, 71, 64
2, 77507, Note_off_c, 3, 62, 64
2, 77520, Note_on_c, 3, 61, 80
2, 77520, Note_on_c, 3, 69, 80
2, 77711, Note_off_c, 3, 55, 64
2, 77747, Note_off_c, 3, 69, 64
2, 77747, Note_off_c, 3, 61, 64
2, 77760, Note_on_c, 3, 62, 80
2, 77760, Note_on_c, 3, 54, 80
2, 77760, Note_on_c, 3, 74, 80
2, 78160, Note_off_c, 3, 62, 64
2, 78167, Note_off_c, 3, 57, 64
2, 78215, Note_off_c, 3, 74, 64
2, 78215, Note_off_c, 3, 54, 64
2, 79200, Note_on_c, 3, 47, 80
2, 79200, Note_on_c, 3, 67, 80
2, 79200, Note_on_c, 3, 62, 80
2, 79655, Note_off_c, 3, 62, 64
2, 79655, Note_off_c, 3, 67, 64
2, 79655, Note_off_c, 3, 47, 64
2, 79680, Note_on_c, 3, 57, 80
2, 79680, Note_on_c, 3, 62, 80
2, 79680, Note_on_c, 3, 66, 80
2, 79680, Note_on_c, 3, 45, 80
2, 80591, Note_off_c, 3, 66, 64
2, 80591, Note_off_c, 3, 62, 64
2, 80591, Note_off_c, 3, 57, 64
2, 80640, Note_on_c, 3, 55, 80
2, 80640, Note_on_c, 3, 61, 80
2, 80640, Note_on_c, 3, 64, 80
2, 81503, Note_off_c, 3, 45, 64
2, 81551, Note_off_c, 3, 64, 64
2, 81551, Note_off_c, 3, 61, 64
2, 81551, Note_off_c, 3, 55, 64
2, 81600, Note_on_c, 3, 50, 80
2, 81600, Note_on_c, 3, 54, 80
2, 81600, Note_on_c, 3, 62, 80
2, 82080, Note_on_c, 3, 66, 80
2, 82511, Note_off_c, 3, 62, 64
2, 82511, Note_off_c, 3, 54, 64
2, 82511, Note_off_c, 3, 50, 64
2, 82535, Note_off_c, 3, 66, 64
2, 82560, Note_on_c, 3, 66, 80
2, 82560, Note_on_c, 3, 69, 80
2, 83040, Note_on_c, 3, 42, 80
2, 83040, Note_on_c, 3, 57, 80
2, 83471, Note_off_c, 3, 69, 64
2, 83471, Note_off_c, 3, 66, 64
2, 83495, Note_off_c, 3, 57, 64
2, 83495, Note_off_c, 3, 42, 64
2, 83520, Note_on_c, 3, 47, 80
2, 83520, Note_on_c, 3, 59, 80
2, 84000, Note_on_c, 3, 59, 80
2, 84000, Note_on_c, 3, 62, 80
2, 84455, Note_off_c, 3, 62, 64
2, 84455, Note_off_c, 3, 59, 64
2, 84480, Note_on_c, 3, 67, 80
2, 84480, Note_on_c, 3, 64, 80
2, 84480, Note_off_c, 3, 64, 64
2, 84887, Note_off_c, 3, 59, 64
2, 84887, Note_off_c, 3, 47, 64
2, 84960, Note_on_c, 3, 43, 80
2, 84960, Note_on_c, 3, 59, 80
2, 85391, Note_off_c, 3, 67, 64
2, 85415, Note_off_c, 3, 59, 64
2, 85415, Note_off_c, 3, 43, 64
2, 85440, Note_on_c, 3, 57, 80
2, 85440, Note_on_c, 3, 66, 80
2, 85440, Note_on_c, 3, 45, 80
2, 85920, Note_on_c, 3, 62, 80
2, 86351, Note_off_c, 3, 66, 64
2, 86351, Note_off_c, 3, 57, 64
2, 86400, Note_on_c, 3, 55, 80
2, 86400, Note_on_c, 3, 64, 80
2, 86831, Note_off_c, 3, 62, 64
2, 86880, Note_on_c, 3, 61, 80
2, 87083, Note_off_c, 3, 64, 64
2, 87120, Note_on_c, 3, 62, 80
2, 87233, Note_off_c, 3, 62, 64
2, 87240, Note_on_c, 3, 64, 80
2, 87263, Note_off_c, 3, 45, 64
2, 87311, Note_off_c, 3, 55, 64
2, 87335, Note_off_c, 3, 61, 64
2, 87353, Note_off_c, 3, 64, 64
2, 87360, Note_on_c, 3, 50, 80
2, 87360, Note_on_c, 3, 54, 80
2, 87360, Note_on_c, 3, 62, 80
2, 89183, Note_off_c, 3, 62, 64
2, 89183, Note_off_c, 3, 54, 64
2, 89183, Note_off_c, 3, 50, 64
2, 89183, End_track
0, 0, End_of_file