0, 0, Header, 1, 12, 480
1, 0, Start_track
1, 0, Title_t, "untitled"
1, 0, Time_signature, 4, 2, 24, 8
1, 0, Key_signature, 0, "major"
1, 0, Tempo, 245902
1, 44160, Tempo, 257511
1, 45120, Tempo, 266667
1, 46080, Tempo, 245902
1, 51840, Tempo, 253165
1, 53760, Tempo, 245902
1, 69120, Tempo, 257511
1, 74880, Tempo, 262009
1, 75840, Tempo, 253165
1, 76800, Tempo, 245902
1, 96000, Tempo, 250000
1, 103680, Tempo, 245902
1, 120960, Tempo, 253165
1, 121920, Tempo, 248963
1, 122880, Tempo, 245902
1, 165120, Tempo, 257511
1, 166080, Tempo, 266667
1, 167040, Tempo, 245902
1, 172800, Tempo, 253165
1, 174720, Tempo, 245902
1, 190080, Tempo, 257511
1, 195840, Tempo, 262009
1, 196800, Tempo, 253165
1, 197760, Tempo, 245902
1, 216960, Tempo, 250000
1, 224640, Tempo, 245902
1, 241920, Tempo, 257511
1, 245760, Tempo, 245902
1, 268800, Tempo, 263158
1, 288000, Tempo, 254237
1, 291840, Tempo, 258621
1, 293760, Tempo, 263158
1, 294720, Tempo, 267857
1, 295680, Tempo, 245902
1, 317760, Tempo, 247934
1, 318720, Tempo, 250000
1, 319680, Tempo, 252101
1, 320640, Tempo, 254237
1, 321600, Tempo, 256410
1, 322560, Tempo, 267857
1, 324480, Tempo, 254237
1, 326400, Tempo, 245902
1, 347520, Tempo, 258621
1, 353280, Tempo, 245902
1, 365760, Tempo, 247934
1, 367680, Tempo, 250000
1, 368640, Tempo, 252101
1, 369600, Tempo, 252101
1, 370560, Tempo, 258621
1, 374400, Tempo, 254237
1, 377280, Tempo, 256410
1, 378240, Tempo, 258621
1, 379200, Tempo, 260870
1, 380160, Tempo, 263158
1, 381120, Tempo, 265487
1, 382080, Tempo, 254237
1, 387840, Tempo, 245902
1, 401280, Tempo, 254237
1, 416640, Tempo, 245902
1, 443520, Tempo, 257511
1, 447360, Tempo, 309278
1, 448320, Tempo, 326087
1, 449280, Tempo, 342857
1, 451200, Tempo, 245902
1, 451200, End_track
2, 0, Start_track
2, 0, Program_c, 0, 48
2, 0, Control_c, 0, 7, 127
2, 0, Control_c, 0, 10, 31
2, 0, Control_c, 0, 91, 80
2, 1200, Note_on_c, 0, 74, 72
2, 1344, Note_on_c, 0, 74, 0
2, 1440, Note_on_c, 0, 79, 72
2, 1584, Note_on_c, 0, 79, 0
2, 1680, Note_on_c, 0, 83, 72
2, 1824, Note_on_c, 0, 83, 0
2, 1920, Note_on_c, 0, 86, 72
2, 2208, Note_on_c, 0, 86, 0
2, 2400, Note_on_c, 0, 86, 72
2, 2688, Note_on_c, 0, 86, 0
2, 2880, Note_on_c, 0, 86, 72
2, 3168, Note_on_c, 0, 86, 0
2, 3360, Note_on_c, 0, 86, 72
2, 3648, Note_on_c, 0, 86, 0
2, 3840, Note_on_c, 0, 78, 72
2, 4128, Note_on_c, 0, 78, 0
2, 4320, Note_on_c, 0, 78, 72
2, 4608, Note_on_c, 0, 78, 0
2, 4800, Note_on_c, 0, 79, 72
2, 5088, Note_on_c, 0, 79, 0
2, 5280, Note_on_c, 0, 79, 72
2, 5360, Note_on_c, 0, 79, 0
2, 5360, Note_on_c, 0, 81, 72
2, 5440, Note_on_c, 0, 81, 0
2, 5440, Note_on_c, 0, 79, 72
2, 5520, Note_on_c, 0, 79, 0
2, 5520, Note_on_c, 0, 78, 72
2, 5640, Note_on_c, 0, 78, 0
2, 5640, Note_on_c, 0, 79, 72
2, 5760, Note_on_c, 0, 79, 0
2, 5760, Note_on_c, 0, 84, 72
2, 6048, Note_on_c, 0, 84, 0
2, 6240, Note_on_c, 0, 84, 72
2, 6528, Note_on_c, 0, 84, 0
2, 6720, Note_on_c, 0, 83, 72
2, 7008, Note_on_c, 0, 83, 0
2, 7200, Note_on_c, 0, 83, 72
2, 7488, Note_on_c, 0, 83, 0
2, 7680, Note_on_c, 0, 81, 72
2, 8064, Note_on_c, 0, 81, 0
2, 8880, Note_on_c, 0, 74, 72
2, 9024, Note_on_c, 0, 74, 0
2, 9120, Note_on_c, 0, 79, 72
2, 9264, Note_on_c, 0, 79, 0
2, 9360, Note_on_c, 0, 83, 72
2, 9504, Note_on_c, 0, 83, 0
2, 9600, Note_on_c, 0, 86, 72
2, 9888, Note_on_c, 0, 86, 0
2, 10080, Note_on_c, 0, 86, 72
2, 10368, Note_on_c, 0, 86, 0
2, 10560, Note_on_c, 0, 86, 72
2, 10848, Note_on_c, 0, 86, 0
2, 11040, Note_on_c, 0, 86, 72
2, 11328, Note_on_c, 0, 86, 0
2, 11520, Note_on_c, 0, 78, 72
2, 11808, Note_on_c, 0, 78, 0
2, 12000, Note_on_c, 0, 78, 72
2, 12080, Note_on_c, 0, 78, 0
2, 12080, Note_on_c, 0, 79, 72
2, 12160, Note_on_c, 0, 79, 0
2, 12160, Note_on_c, 0, 78, 72
2, 12240, Note_on_c, 0, 78, 0
2, 12240, Note_on_c, 0, 76, 72
2, 12360, Note_on_c, 0, 76, 0
2, 12360, Note_on_c, 0, 78, 72
2, 12480, Note_on_c, 0, 78, 0
2, 12480, Note_on_c, 0, 79, 72
2, 12768, Note_on_c, 0, 79, 0
2, 12960, Note_on_c, 0, 79, 72
2, 13040, Note_on_c, 0, 79, 0
2, 13040, Note_on_c, 0, 81, 72
2, 13120, Note_on_c, 0, 81, 0
2, 13120, Note_on_c, 0, 79, 72
2, 13200, Note_on_c, 0, 79, 0
2, 13200, Note_on_c, 0, 78, 72
2, 13320, Note_on_c, 0, 78, 0
2, 13320, Note_on_c, 0, 79, 72
2, 13440, Note_on_c, 0, 79, 0
2, 13440, Note_on_c, 0, 81, 72
2, 13728, Note_on_c, 0, 81, 0
2, 13920, Note_on_c, 0, 81, 72
2, 14208, Note_on_c, 0, 81, 0
2, 14400, Note_on_c, 0, 74, 72
2, 14784, Note_on_c, 0, 74, 0
2, 14880, Note_on_c, 0, 76, 72
2, 15072, Note_on_c, 0, 76, 0
2, 15120, Note_on_c, 0, 78, 72
2, 15312, Note_on_c, 0, 78, 0
2, 15360, Note_on_c, 0, 79, 72
2, 15744, Note_on_c, 0, 79, 0
2, 16560, Note_on_c, 0, 74, 72
2, 16704, Note_on_c, 0, 74, 0
2, 16800, Note_on_c, 0, 79, 72
2, 16944, Note_on_c, 0, 79, 0
2, 17040, Note_on_c, 0, 83, 72
2, 17184, Note_on_c, 0, 83, 0
2, 17280, Note_on_c, 0, 86, 72
2, 17568, Note_on_c, 0, 86, 0
2, 17760, Note_on_c, 0, 86, 72
2, 18048, Note_on_c, 0, 86, 0
2, 18240, Note_on_c, 0, 86, 72
2, 18528, Note_on_c, 0, 86, 0
2, 18720, Note_on_c, 0, 86, 72
2, 19008, Note_on_c, 0, 86, 0
2, 19200, Note_on_c, 0, 78, 72
2, 19488, Note_on_c, 0, 78, 0
2, 19680, Note_on_c, 0, 78, 72
2, 19968, Note_on_c, 0, 78, 0
2, 20160, Note_on_c, 0, 79, 72
2, 20448, Note_on_c, 0, 79, 0
2, 20640, Note_on_c, 0, 79, 72
2, 20720, Note_on_c, 0, 79, 0
2, 20720, Note_on_c, 0, 81, 72
2, 20800, Note_on_c, 0, 81, 0
2, 20800, Note_on_c, 0, 79, 72
2, 20880, Note_on_c, 0, 79, 0
2, 20880, Note_on_c, 0, 78, 72
2, 21000, Note_on_c, 0, 78, 0
2, 21000, Note_on_c, 0, 79, 72
2, 21120, Note_on_c, 0, 79, 0
2, 21120, Note_on_c, 0, 84, 72
2, 21408, Note_on_c, 0, 84, 0
2, 21600, Note_on_c, 0, 84, 72
2, 21888, Note_on_c, 0, 84, 0
2, 22080, Note_on_c, 0, 83, 72
2, 22368, Note_on_c, 0, 83, 0
2, 22560, Note_on_c, 0, 83, 72
2, 22848, Note_on_c, 0, 83, 0
2, 23040, Note_on_c, 0, 81, 72
2, 23424, Note_on_c, 0, 81, 0
2, 24240, Note_on_c, 0, 74, 72
2, 24384, Note_on_c, 0, 74, 0
2, 24480, Note_on_c, 0, 79, 72
2, 24624, Note_on_c, 0, 79, 0
2, 24720, Note_on_c, 0, 83, 72
2, 24864, Note_on_c, 0, 83, 0
2, 24960, Note_on_c, 0, 86, 72
2, 25248, Note_on_c, 0, 86, 0
2, 25440, Note_on_c, 0, 86, 72
2, 25728, Note_on_c, 0, 86, 0
2, 25920, Note_on_c, 0, 86, 72
2, 26208, Note_on_c, 0, 86, 0
2, 26400, Note_on_c, 0, 86, 72
2, 26688, Note_on_c, 0, 86, 0
2, 26880, Note_on_c, 0, 78, 72
2, 27168, Note_on_c, 0, 78, 0
2, 27360, Note_on_c, 0, 78, 72
2, 27440, Note_on_c, 0, 78, 0
2, 27440, Note_on_c, 0, 79, 72
2, 27520, Note_on_c, 0, 79, 0
2, 27520, Note_on_c, 0, 78, 72
2, 27600, Note_on_c, 0, 78, 0
2, 27600, Note_on_c, 0, 76, 72
2, 27720, Note_on_c, 0, 76, 0
2, 27720, Note_on_c, 0, 78, 72
2, 27840, Note_on_c, 0, 78, 0
2, 27840, Note_on_c, 0, 79, 72
2, 28128, Note_on_c, 0, 79, 0
2, 28320, Note_on_c, 0, 79, 72
2, 28400, Note_on_c, 0, 79, 0
2, 28400, Note_on_c, 0, 81, 72
2, 28480, Note_on_c, 0, 81, 0
2, 28480, Note_on_c, 0, 79, 72
2, 28560, Note_on_c, 0, 79, 0
2, 28560, Note_on_c, 0, 78, 72
2, 28680, Note_on_c, 0, 78, 0
2, 28680, Note_on_c, 0, 79, 72
2, 28800, Note_on_c, 0, 79, 0
2, 28800, Note_on_c, 0, 81, 72
2, 29088, Note_on_c, 0, 81, 0
2, 29280, Note_on_c, 0, 81, 72
2, 29568, Note_on_c, 0, 81, 0
2, 29760, Note_on_c, 0, 74, 72
2, 30144, Note_on_c, 0, 74, 0
2, 30240, Note_on_c, 0, 76, 72
2, 30432, Note_on_c, 0, 76, 0
2, 30480, Note_on_c, 0, 78, 72
2, 30672, Note_on_c, 0, 78, 0
2, 30720, Note_on_c, 0, 79, 92
2, 31872, Note_on_c, 0, 79, 0
2, 31920, Note_on_c, 0, 81, 116
2, 32112, Note_on_c, 0, 81, 0
2, 32160, Note_on_c, 0, 78, 116
2, 32352, Note_on_c, 0, 78, 0
2, 32400, Note_on_c, 0, 74, 116
2, 32592, Note_on_c, 0, 74, 0
2, 32640, Note_on_c, 0, 83, 116
2, 33792, Note_on_c, 0, 83, 0
2, 33840, Note_on_c, 0, 84, 116
2, 34032, Note_on_c, 0, 84, 0
2, 34080, Note_on_c, 0, 81, 116
2, 34272, Note_on_c, 0, 81, 0
2, 34320, Note_on_c, 0, 78, 116
2, 34512, Note_on_c, 0, 78, 0
2, 34560, Note_on_c, 0, 86, 116
2, 34752, Note_on_c, 0, 86, 0
2, 34800, Note_on_c, 0, 86, 116
2, 35184, Note_on_c, 0, 86, 0
2, 35280, Note_on_c, 0, 86, 116
2, 35664, Note_on_c, 0, 86, 0
2, 35760, Note_on_c, 0, 86, 116
2, 36144, Note_on_c, 0, 86, 0
2, 36240, Note_on_c, 0, 86, 116
2, 36672, Note_on_c, 0, 86, 0
2, 36720, Note_on_c, 0, 86, 116
2, 37104, Note_on_c, 0, 86, 0
2, 37200, Note_on_c, 0, 86, 116
2, 37584, Note_on_c, 0, 86, 0
2, 37680, Note_on_c, 0, 86, 116
2, 38064, Note_on_c, 0, 86, 0
2, 38160, Note_on_c, 0, 86, 116
2, 38640, Note_on_c, 0, 86, 0
2, 38640, Note_on_c, 0, 83, 105
2, 38832, Note_on_c, 0, 83, 0
2, 38880, Note_on_c, 0, 83, 105
2, 39072, Note_on_c, 0, 83, 0
2, 39120, Note_on_c, 0, 83, 105
2, 39312, Note_on_c, 0, 83, 0
2, 39360, Note_on_c, 0, 83, 105
2, 39600, Note_on_c, 0, 83, 0
2, 39600, Note_on_c, 0, 79, 105
2, 39792, Note_on_c, 0, 79, 0
2, 39840, Note_on_c, 0, 79, 105
2, 40032, Note_on_c, 0, 79, 0
2, 40080, Note_on_c, 0, 79, 105
2, 40272, Note_on_c, 0, 79, 0
2, 40320, Note_on_c, 0, 79, 105
2, 40560, Note_on_c, 0, 79, 0
2, 40560, Note_on_c, 0, 74, 105
2, 40752, Note_on_c, 0, 74, 0
2, 40800, Note_on_c, 0, 74, 105
2, 40992, Note_on_c, 0, 74, 0
2, 41040, Note_on_c, 0, 74, 105
2, 41232, Note_on_c, 0, 74, 0
2, 41280, Note_on_c, 0, 74, 105
2, 41520, Note_on_c, 0, 74, 0
2, 41520, Note_on_c, 0, 71, 105
2, 41712, Note_on_c, 0, 71, 0
2, 41760, Note_on_c, 0, 71, 105
2, 42000, Note_on_c, 0, 71, 0
2, 42000, Note_on_c, 0, 67, 105
2, 42192, Note_on_c, 0, 67, 0
2, 42240, Note_on_c, 0, 74, 105
2, 42528, Note_on_c, 0, 74, 0
2, 42720, Note_on_c, 0, 69, 105
2, 42720, Note_on_c, 0, 78, 105
2, 42720, Note_on_c, 0, 62, 105
2, 43008, Note_on_c, 0, 62, 0
2, 43008, Note_on_c, 0, 78, 0
2, 43008, Note_on_c, 0, 69, 0
2, 43200, Note_on_c, 0, 71, 105
2, 43200, Note_on_c, 0, 62, 105
2, 43200, Note_on_c, 0, 79, 105
2, 43488, Note_on_c, 0, 79, 0
2, 43488, Note_on_c, 0, 62, 0
2, 43488, Note_on_c, 0, 71, 0
2, 43680, Note_on_c, 0, 83, 125
2, 43968, Note_on_c, 0, 83, 0
2, 44160, Note_on_c, 0, 86, 125
2, 44544, Note_on_c, 0, 86, 0
2, 44640, Note_on_c, 0, 62, 92
2, 45024, Note_on_c, 0, 62, 0
2, 45120, Note_on_c, 0, 62, 92
2, 45504, Note_on_c, 0, 62, 0
2, 46080, Note_on_c, 0, 81, 112
2, 47040, Note_on_c, 0, 81, 0
2, 47040, Note_on_c, 0, 73, 72
2, 47232, Note_on_c, 0, 73, 0
2, 47520, Note_on_c, 0, 74, 72
2, 47712, Note_on_c, 0, 74, 0
2, 48000, Note_on_c, 0, 76, 72
2, 48192, Note_on_c, 0, 76, 0
2, 48480, Note_on_c, 0, 78, 72
2, 48672, Note_on_c, 0, 78, 0
2, 48960, Note_on_c, 0, 79, 72
2, 49152, Note_on_c, 0, 79, 0
2, 49920, Note_on_c, 0, 78, 72
2, 50160, Note_on_c, 0, 78, 0
2, 50160, Note_on_c, 0, 79, 72
2, 50400, Note_on_c, 0, 79, 0
2, 50400, Note_on_c, 0, 80, 72
2, 50640, Note_on_c, 0, 80, 0
2, 50640, Note_on_c, 0, 81, 72
2, 50880, Note_on_c, 0, 81, 0
2, 50880, Note_on_c, 0, 82, 72
2, 51120, Note_on_c, 0, 82, 0
2, 51120, Note_on_c, 0, 83, 72
2, 51360, Note_on_c, 0, 83, 0
2, 51360, Note_on_c, 0, 79, 72
2, 51600, Note_on_c, 0, 79, 0
2, 51600, Note_on_c, 0, 76, 72
2, 51792, Note_on_c, 0, 76, 0
2, 51840, Note_on_c, 0, 74, 72
2, 52800, Note_on_c, 0, 74, 0
2, 52800, Note_on_c, 0, 73, 58
2, 53184, Note_on_c, 0, 73, 0
2, 53760, Note_on_c, 0, 81, 112
2, 54720, Note_on_c, 0, 81, 0
2, 54720, Note_on_c, 0, 73, 72
2, 54912, Note_on_c, 0, 73, 0
2, 55200, Note_on_c, 0, 74, 72
2, 55392, Note_on_c, 0, 74, 0
2, 55680, Note_on_c, 0, 76, 72
2, 55872, Note_on_c, 0, 76, 0
2, 56160, Note_on_c, 0, 78, 72
2, 56352, Note_on_c, 0, 78, 0
2, 56640, Note_on_c, 0, 79, 72
2, 56832, Note_on_c, 0, 79, 0
2, 57600, Note_on_c, 0, 78, 72
2, 58080, Note_on_c, 0, 78, 0
2, 58080, Note_on_c, 0, 86, 72
2, 59040, Note_on_c, 0, 86, 0
2, 59040, Note_on_c, 0, 80, 72
2, 59424, Note_on_c, 0, 80, 0
2, 59520, Note_on_c, 0, 83, 72
2, 60480, Note_on_c, 0, 83, 0
2, 60480, Note_on_c, 0, 81, 72
2, 60864, Note_on_c, 0, 81, 0
2, 61440, Note_on_c, 0, 83, 72
2, 61680, Note_on_c, 0, 83, 0
2, 61680, Note_on_c, 0, 81, 72
2, 61860, Note_on_c, 0, 81, 0
2, 61920, Note_on_c, 0, 79, 72
2, 62100, Note_on_c, 0, 79, 0
2, 62160, Note_on_c, 0, 78, 72
2, 62340, Note_on_c, 0, 78, 0
2, 62400, Note_on_c, 0, 76, 72
2, 62760, Note_on_c, 0, 76, 0
2, 62880, Note_on_c, 0, 76, 72
2, 63240, Note_on_c, 0, 76, 0
2, 63360, Note_on_c, 0, 79, 72
2, 63600, Note_on_c, 0, 79, 0
2, 63600, Note_on_c, 0, 78, 72
2, 63780, Note_on_c, 0, 78, 0
2, 63840, Note_on_c, 0, 76, 72
2, 64020, Note_on_c, 0, 76, 0
2, 64080, Note_on_c, 0, 74, 72
2, 64260, Note_on_c, 0, 74, 0
2, 64320, Note_on_c, 0, 73, 72
2, 64680, Note_on_c, 0, 73, 0
2, 65280, Note_on_c, 0, 83, 72
2, 65520, Note_on_c, 0, 83, 0
2, 65520, Note_on_c, 0, 81, 72
2, 65700, Note_on_c, 0, 81, 0
2, 65760, Note_on_c, 0, 79, 72
2, 65940, Note_on_c, 0, 79, 0
2, 66000, Note_on_c, 0, 78, 72
2, 66180, Note_on_c, 0, 78, 0
2, 66240, Note_on_c, 0, 76, 72
2, 66420, Note_on_c, 0, 76, 0
2, 66480, Note_on_c, 0, 76, 72
2, 66660, Note_on_c, 0, 76, 0
2, 66720, Note_on_c, 0, 76, 72
2, 66900, Note_on_c, 0, 76, 0
2, 66960, Note_on_c, 0, 76, 72
2, 67140, Note_on_c, 0, 76, 0
2, 67200, Note_on_c, 0, 79, 72
2, 67440, Note_on_c, 0, 79, 0
2, 67440, Note_on_c, 0, 78, 72
2, 67620, Note_on_c, 0, 78, 0
2, 67680, Note_on_c, 0, 76, 72
2, 67860, Note_on_c, 0, 76, 0
2, 67920, Note_on_c, 0, 74, 72
2, 68100, Note_on_c, 0, 74, 0
2, 68160, Note_on_c, 0, 73, 72
2, 68400, Note_on_c, 0, 73, 0
2, 68400, Note_on_c, 0, 76, 72
2, 68640, Note_on_c, 0, 76, 0
2, 68640, Note_on_c, 0, 73, 72
2, 68880, Note_on_c, 0, 73, 0
2, 68880, Note_on_c, 0, 76, 72
2, 69072, Note_on_c, 0, 76, 0
2, 69120, Note_on_c, 0, 79, 72
2, 69360, Note_on_c, 0, 79, 0
2, 69360, Note_on_c, 0, 77, 72
2, 69540, Note_on_c, 0, 77, 0
2, 69600, Note_on_c, 0, 76, 72
2, 69780, Note_on_c, 0, 76, 0
2, 69840, Note_on_c, 0, 74, 72
2, 70020, Note_on_c, 0, 74, 0
2, 70080, Note_on_c, 0, 73, 72
2, 70320, Note_on_c, 0, 73, 0
2, 70320, Note_on_c, 0, 76, 72
2, 70560, Note_on_c, 0, 76, 0
2, 70560, Note_on_c, 0, 73, 72
2, 70800, Note_on_c, 0, 73, 0
2, 70800, Note_on_c, 0, 76, 72
2, 70992, Note_on_c, 0, 76, 0
2, 71040, Note_on_c, 0, 79, 72
2, 71280, Note_on_c, 0, 79, 0
2, 71280, Note_on_c, 0, 77, 72
2, 71460, Note_on_c, 0, 77, 0
2, 71520, Note_on_c, 0, 76, 72
2, 71700, Note_on_c, 0, 76, 0
2, 71760, Note_on_c, 0, 74, 72
2, 71940, Note_on_c, 0, 74, 0
2, 72000, Note_on_c, 0, 73, 72
2, 72240, Note_on_c, 0, 73, 0
2, 72240, Note_on_c, 0, 76, 72
2, 72480, Note_on_c, 0, 76, 0
2, 72480, Note_on_c, 0, 73, 72
2, 72720, Note_on_c, 0, 73, 0
2, 72720, Note_on_c, 0, 76, 72
2, 72912, Note_on_c, 0, 76, 0
2, 72960, Note_on_c, 0, 79, 72
2, 73200, Note_on_c, 0, 79, 0
2, 73200, Note_on_c, 0, 76, 72
2, 73440, Note_on_c, 0, 76, 0
2, 73440, Note_on_c, 0, 79, 72
2, 73680, Note_on_c, 0, 79, 0
2, 73680, Note_on_c, 0, 76, 72
2, 73920, Note_on_c, 0, 76, 0
2, 73920, Note_on_c, 0, 79, 72
2, 74160, Note_on_c, 0, 79, 0
2, 74160, Note_on_c, 0, 76, 72
2, 74400, Note_on_c, 0, 76, 0
2, 74400, Note_on_c, 0, 79, 72
2, 74640, Note_on_c, 0, 79, 0
2, 74640, Note_on_c, 0, 76, 72
2, 74880, Note_on_c, 0, 76, 0
2, 74880, Note_on_c, 0, 79, 58
2, 75264, Note_on_c, 0, 79, 0
2, 76080, Note_on_c, 0, 69, 72
2, 76224, Note_on_c, 0, 69, 0
2, 76320, Note_on_c, 0, 74, 72
2, 76464, Note_on_c, 0, 74, 0
2, 76560, Note_on_c, 0, 78, 72
2, 76704, Note_on_c, 0, 78, 0
2, 76800, Note_on_c, 0, 81, 72
2, 77088, Note_on_c, 0, 81, 0
2, 77280, Note_on_c, 0, 81, 72
2, 77568, Note_on_c, 0, 81, 0
2, 77760, Note_on_c, 0, 81, 72
2, 78048, Note_on_c, 0, 81, 0
2, 78240, Note_on_c, 0, 81, 72
2, 78528, Note_on_c, 0, 81, 0
2, 78720, Note_on_c, 0, 73, 72
2, 79008, Note_on_c, 0, 73, 0
2, 79200, Note_on_c, 0, 73, 72
2, 79488, Note_on_c, 0, 73, 0
2, 79680, Note_on_c, 0, 74, 72
2, 79968, Note_on_c, 0, 74, 0
2, 80160, Note_on_c, 0, 74, 72
2, 80240, Note_on_c, 0, 74, 0
2, 80240, Note_on_c, 0, 76, 72
2, 80320, Note_on_c, 0, 76, 0
2, 80320, Note_on_c, 0, 74, 72
2, 80400, Note_on_c, 0, 74, 0
2, 80400, Note_on_c, 0, 73, 72
2, 80520, Note_on_c, 0, 73, 0
2, 80520, Note_on_c, 0, 74, 72
2, 80640, Note_on_c, 0, 74, 0
2, 80640, Note_on_c, 0, 79, 72
2, 80928, Note_on_c, 0, 79, 0
2, 81120, Note_on_c, 0, 79, 72
2, 81408, Note_on_c, 0, 79, 0
2, 81600, Note_on_c, 0, 78, 72
2, 81888, Note_on_c, 0, 78, 0
2, 82080, Note_on_c, 0, 78, 72
2, 82368, Note_on_c, 0, 78, 0
2, 82560, Note_on_c, 0, 76, 72
2, 82944, Note_on_c, 0, 76, 0
2, 83760, Note_on_c, 0, 69, 72
2, 83904, Note_on_c, 0, 69, 0
2, 84000, Note_on_c, 0, 74, 72
2, 84144, Note_on_c, 0, 74, 0
2, 84240, Note_on_c, 0, 78, 72
2, 84384, Note_on_c, 0, 78, 0
2, 84480, Note_on_c, 0, 81, 72
2, 84768, Note_on_c, 0, 81, 0
2, 84960, Note_on_c, 0, 81, 72
2, 85248, Note_on_c, 0, 81, 0
2, 85440, Note_on_c, 0, 81, 72
2, 85728, Note_on_c, 0, 81, 0
2, 85920, Note_on_c, 0, 81, 72
2, 86208, Note_on_c, 0, 81, 0
2, 86400, Note_on_c, 0, 73, 72
2, 86688, Note_on_c, 0, 73, 0
2, 86880, Note_on_c, 0, 73, 72
2, 86944, Note_on_c, 0, 73, 0
2, 86960, Note_on_c, 0, 74, 72
2, 87024, Note_on_c, 0, 74, 0
2, 87040, Note_on_c, 0, 73, 72
2, 87104, Note_on_c, 0, 73, 0
2, 87120, Note_on_c, 0, 71, 72
2, 87216, Note_on_c, 0, 71, 0
2, 87240, Note_on_c, 0, 73, 72
2, 87336, Note_on_c, 0, 73, 0
2, 87360, Note_on_c, 0, 74, 72
2, 87648, Note_on_c, 0, 74, 0
2, 87840, Note_on_c, 0, 74, 72
2, 87904, Note_on_c, 0, 74, 0
2, 87920, Note_on_c, 0, 76, 72
2, 87984, Note_on_c, 0, 76, 0
2, 88000, Note_on_c, 0, 74, 72
2, 88064, Note_on_c, 0, 74, 0
2, 88080, Note_on_c, 0, 73, 72
2, 88176, Note_on_c, 0, 73, 0
2, 88200, Note_on_c, 0, 74, 72
2, 88296, Note_on_c, 0, 74, 0
2, 88320, Note_on_c, 0, 76, 72
2, 88608, Note_on_c, 0, 76, 0
2, 88800, Note_on_c, 0, 76, 72
2, 88864, Note_on_c, 0, 76, 0
2, 88880, Note_on_c, 0, 78, 72
2, 88944, Note_on_c, 0, 78, 0
2, 88960, Note_on_c, 0, 76, 72
2, 89024, Note_on_c, 0, 76, 0
2, 89040, Note_on_c, 0, 74, 72
2, 89136, Note_on_c, 0, 74, 0
2, 89160, Note_on_c, 0, 76, 72
2, 89256, Note_on_c, 0, 76, 0
2, 89280, Note_on_c, 0, 78, 72
2, 89568, Note_on_c, 0, 78, 0
2, 89760, Note_on_c, 0, 78, 72
2, 89824, Note_on_c, 0, 78, 0
2, 89840, Note_on_c, 0, 79, 72
2, 89904, Note_on_c, 0, 79, 0
2, 89920, Note_on_c, 0, 78, 72
2, 89984, Note_on_c, 0, 78, 0
2, 90000, Note_on_c, 0, 76, 72
2, 90096, Note_on_c, 0, 76, 0
2, 90120, Note_on_c, 0, 78, 72
2, 90216, Note_on_c, 0, 78, 0
2, 90240, Note_on_c, 0, 81, 72
2, 91200, Note_on_c, 0, 81, 0
2, 91200, Note_on_c, 0, 79, 72
2, 91344, Note_on_c, 0, 79, 0
2, 91440, Note_on_c, 0, 71, 72
2, 91584, Note_on_c, 0, 71, 0
2, 91680, Note_on_c, 0, 74, 72
2, 91824, Note_on_c, 0, 74, 0
2, 91920, Note_on_c, 0, 79, 72
2, 92064, Note_on_c, 0, 79, 0
2, 92160, Note_on_c, 0, 83, 72
2, 92448, Note_on_c, 0, 83, 0
2, 92640, Note_on_c, 0, 83, 72
2, 92928, Note_on_c, 0, 83, 0
2, 93120, Note_on_c, 0, 83, 72
2, 93408, Note_on_c, 0, 83, 0
2, 93600, Note_on_c, 0, 83, 72
2, 93888, Note_on_c, 0, 83, 0
2, 94080, Note_on_c, 0, 73, 72
2, 94368, Note_on_c, 0, 73, 0
2, 94560, Note_on_c, 0, 73, 72
2, 94624, Note_on_c, 0, 73, 0
2, 94640, Note_on_c, 0, 74, 72
2, 94704, Note_on_c, 0, 74, 0
2, 94720, Note_on_c, 0, 73, 72
2, 94784, Note_on_c, 0, 73, 0
2, 94800, Note_on_c, 0, 71, 72
2, 94896, Note_on_c, 0, 71, 0
2, 94920, Note_on_c, 0, 73, 72
2, 95016, Note_on_c, 0, 73, 0
2, 95040, Note_on_c, 0, 74, 72
2, 95328, Note_on_c, 0, 74, 0
2, 95520, Note_on_c, 0, 74, 72
2, 95584, Note_on_c, 0, 74, 0
2, 95600, Note_on_c, 0, 76, 72
2, 95664, Note_on_c, 0, 76, 0
2, 95680, Note_on_c, 0, 74, 72
2, 95744, Note_on_c, 0, 74, 0
2, 95760, Note_on_c, 0, 73, 72
2, 95856, Note_on_c, 0, 73, 0
2, 95880, Note_on_c, 0, 74, 72
2, 95976, Note_on_c, 0, 74, 0
2, 96000, Note_on_c, 0, 79, 72
2, 96288, Note_on_c, 0, 79, 0
2, 96480, Note_on_c, 0, 79, 72
2, 96768, Note_on_c, 0, 79, 0
2, 96960, Note_on_c, 0, 76, 72
2, 97248, Note_on_c, 0, 76, 0
2, 97440, Note_on_c, 0, 76, 72
2, 97728, Note_on_c, 0, 76, 0
2, 97920, Note_on_c, 0, 81, 72
2, 99120, Note_on_c, 0, 81, 0
2, 99120, Note_on_c, 0, 83, 72
2, 99360, Note_on_c, 0, 83, 0
2, 99360, Note_on_c, 0, 79, 72
2, 99600, Note_on_c, 0, 79, 0
2, 99600, Note_on_c, 0, 81, 72
2, 99792, Note_on_c, 0, 81, 0
2, 99840, Note_on_c, 0, 78, 72
2, 101040, Note_on_c, 0, 78, 0
2, 101040, Note_on_c, 0, 79, 72
2, 101280, Note_on_c, 0, 79, 0
2, 101280, Note_on_c, 0, 76, 72
2, 101520, Note_on_c, 0, 76, 0
2, 101520, Note_on_c, 0, 78, 72
2, 101712, Note_on_c, 0, 78, 0
2, 101760, Note_on_c, 0, 74, 72
2, 102960, Note_on_c, 0, 74, 0
2, 102960, Note_on_c, 0, 76, 58
2, 103200, Note_on_c, 0, 76, 0
2, 103200, Note_on_c, 0, 73, 58
2, 103440, Note_on_c, 0, 73, 0
2, 103440, Note_on_c, 0, 69, 58
2, 103632, Note_on_c, 0, 69, 0
2, 103680, Note_on_c, 0, 81, 78
2, 103920, Note_on_c, 0, 81, 0
2, 103920, Note_on_c, 0, 83, 116
2, 104076, Note_on_c, 0, 83, 0
2, 104160, Note_on_c, 0, 85, 116
2, 104316, Note_on_c, 0, 85, 0
2, 104400, Note_on_c, 0, 86, 116
2, 104556, Note_on_c, 0, 86, 0
2, 104640, Note_on_c, 0, 85, 116
2, 104880, Note_on_c, 0, 85, 0
2, 104880, Note_on_c, 0, 83, 116
2, 105036, Note_on_c, 0, 83, 0
2, 105120, Note_on_c, 0, 81, 116
2, 105276, Note_on_c, 0, 81, 0
2, 105360, Note_on_c, 0, 79, 116
2, 105516, Note_on_c, 0, 79, 0
2, 105600, Note_on_c, 0, 78, 116
2, 105840, Note_on_c, 0, 78, 0
2, 105840, Note_on_c, 0, 79, 116
2, 105996, Note_on_c, 0, 79, 0
2, 106080, Note_on_c, 0, 81, 116
2, 106236, Note_on_c, 0, 81, 0
2, 106320, Note_on_c, 0, 83, 116
2, 106476, Note_on_c, 0, 83, 0
2, 106560, Note_on_c, 0, 81, 116
2, 106800, Note_on_c, 0, 81, 0
2, 106800, Note_on_c, 0, 79, 116
2, 106956, Note_on_c, 0, 79, 0
2, 107040, Note_on_c, 0, 78, 116
2, 107196, Note_on_c, 0, 78, 0
2, 107280, Note_on_c, 0, 76, 116
2, 107436, Note_on_c, 0, 76, 0
2, 107520, Note_on_c, 0, 76, 116
2, 107760, Note_on_c, 0, 76, 0
2, 107760, Note_on_c, 0, 74, 116
2, 107916, Note_on_c, 0, 74, 0
2, 108000, Note_on_c, 0, 74, 116
2, 108156, Note_on_c, 0, 74, 0
2, 108240, Note_on_c, 0, 74, 116
2, 108396, Note_on_c, 0, 74, 0
2, 108480, Note_on_c, 0, 74, 116
2, 108720, Note_on_c, 0, 74, 0
2, 108720, Note_on_c, 0, 78, 116
2, 108876, Note_on_c, 0, 78, 0
2, 108960, Note_on_c, 0, 76, 116
2, 109116, Note_on_c, 0, 76, 0
2, 109200, Note_on_c, 0, 73, 116
2, 109356, Note_on_c, 0, 73, 0
2, 109440, Note_on_c, 0, 74, 105
2, 109824, Note_on_c, 0, 74, 0
2, 110640, Note_on_c, 0, 69, 72
2, 110832, Note_on_c, 0, 69, 0
2, 110880, Note_on_c, 0, 74, 72
2, 111024, Note_on_c, 0, 74, 0
2, 111120, Note_on_c, 0, 78, 72
2, 111264, Note_on_c, 0, 78, 0
2, 111360, Note_on_c, 0, 81, 72
2, 111648, Note_on_c, 0, 81, 0
2, 111840, Note_on_c, 0, 81, 72
2, 112128, Note_on_c, 0, 81, 0
2, 112320, Note_on_c, 0, 81, 72
2, 112608, Note_on_c, 0, 81, 0
2, 112800, Note_on_c, 0, 81, 72
2, 113088, Note_on_c, 0, 81, 0
2, 113280, Note_on_c, 0, 71, 72
2, 113664, Note_on_c, 0, 71, 0
2, 114480, Note_on_c, 0, 71, 72
2, 114624, Note_on_c, 0, 71, 0
2, 114720, Note_on_c, 0, 74, 72
2, 114864, Note_on_c, 0, 74, 0
2, 114960, Note_on_c, 0, 79, 72
2, 115104, Note_on_c, 0, 79, 0
2, 115200, Note_on_c, 0, 83, 72
2, 115488, Note_on_c, 0, 83, 0
2, 115680, Note_on_c, 0, 83, 72
2, 115968, Note_on_c, 0, 83, 0
2, 116160, Note_on_c, 0, 83, 72
2, 116448, Note_on_c, 0, 83, 0
2, 116640, Note_on_c, 0, 83, 72
2, 116928, Note_on_c, 0, 83, 0
2, 117120, Note_on_c, 0, 72, 72
2, 117504, Note_on_c, 0, 72, 0
2, 118320, Note_on_c, 0, 72, 72
2, 118464, Note_on_c, 0, 72, 0
2, 118560, Note_on_c, 0, 78, 72
2, 118704, Note_on_c, 0, 78, 0
2, 118800, Note_on_c, 0, 81, 72
2, 118944, Note_on_c, 0, 81, 0
2, 119040, Note_on_c, 0, 84, 72
2, 119328, Note_on_c, 0, 84, 0
2, 119520, Note_on_c, 0, 84, 72
2, 119808, Note_on_c, 0, 84, 0
2, 120000, Note_on_c, 0, 84, 72
2, 120288, Note_on_c, 0, 84, 0
2, 120480, Note_on_c, 0, 84, 72
2, 120768, Note_on_c, 0, 84, 0
2, 120960, Note_on_c, 0, 74, 58
2, 121344, Note_on_c, 0, 74, 0
2, 122160, Note_on_c, 0, 74, 58
2, 122352, Note_on_c, 0, 74, 0
2, 122400, Note_on_c, 0, 79, 72
2, 122592, Note_on_c, 0, 79, 0
2, 122640, Note_on_c, 0, 83, 72
2, 122832, Note_on_c, 0, 83, 0
2, 122880, Note_on_c, 0, 86, 72
2, 123168, Note_on_c, 0, 86, 0
2, 123360, Note_on_c, 0, 86, 72
2, 123648, Note_on_c, 0, 86, 0
2, 123840, Note_on_c, 0, 86, 72
2, 124128, Note_on_c, 0, 86, 0
2, 124320, Note_on_c, 0, 86, 72
2, 124608, Note_on_c, 0, 86, 0
2, 124800, Note_on_c, 0, 78, 72
2, 125088, Note_on_c, 0, 78, 0
2, 125280, Note_on_c, 0, 78, 72
2, 125568, Note_on_c, 0, 78, 0
2, 125760, Note_on_c, 0, 79, 72
2, 126048, Note_on_c, 0, 79, 0
2, 126240, Note_on_c, 0, 79, 72
2, 126320, Note_on_c, 0, 79, 0
2, 126320, Note_on_c, 0, 81, 72
2, 126400, Note_on_c, 0, 81, 0
2, 126400, Note_on_c, 0, 79, 72
2, 126480, Note_on_c, 0, 79, 0
2, 126480, Note_on_c, 0, 78, 72
2, 126600, Note_on_c, 0, 78, 0
2, 126600, Note_on_c, 0, 79, 72
2, 126720, Note_on_c, 0, 79, 0
2, 126720, Note_on_c, 0, 84, 72
2, 127008, Note_on_c, 0, 84, 0
2, 127200, Note_on_c, 0, 84, 72
2, 127488, Note_on_c, 0, 84, 0
2, 127680, Note_on_c, 0, 83, 72
2, 127968, Note_on_c, 0, 83, 0
2, 128160, Note_on_c, 0, 83, 72
2, 128448, Note_on_c, 0, 83, 0
2, 128640, Note_on_c, 0, 81, 72
2, 129024, Note_on_c, 0, 81, 0
2, 129840, Note_on_c, 0, 74, 72
2, 129984, Note_on_c, 0, 74, 0
2, 130080, Note_on_c, 0, 79, 72
2, 130224, Note_on_c, 0, 79, 0
2, 130320, Note_on_c, 0, 83, 72
2, 130464, Note_on_c, 0, 83, 0
2, 130560, Note_on_c, 0, 86, 72
2, 130848, Note_on_c, 0, 86, 0
2, 131040, Note_on_c, 0, 86, 72
2, 131328, Note_on_c, 0, 86, 0
2, 131520, Note_on_c, 0, 86, 72
2, 131808, Note_on_c, 0, 86, 0
2, 132000, Note_on_c, 0, 86, 72
2, 132288, Note_on_c, 0, 86, 0
2, 132480, Note_on_c, 0, 78, 72
2, 132768, Note_on_c, 0, 78, 0
2, 132960, Note_on_c, 0, 78, 72
2, 133040, Note_on_c, 0, 78, 0
2, 133040, Note_on_c, 0, 79, 72
2, 133120, Note_on_c, 0, 79, 0
2, 133120, Note_on_c, 0, 78, 72
2, 133200, Note_on_c, 0, 78, 0
2, 133200, Note_on_c, 0, 76, 72
2, 133320, Note_on_c, 0, 76, 0
2, 133320, Note_on_c, 0, 78, 72
2, 133440, Note_on_c, 0, 78, 0
2, 133440, Note_on_c, 0, 79, 72
2, 133728, Note_on_c, 0, 79, 0
2, 133920, Note_on_c, 0, 79, 72
2, 134000, Note_on_c, 0, 79, 0
2, 134000, Note_on_c, 0, 81, 72
2, 134080, Note_on_c, 0, 81, 0
2, 134080, Note_on_c, 0, 79, 72
2, 134160, Note_on_c, 0, 79, 0
2, 134160, Note_on_c, 0, 78, 72
2, 134280, Note_on_c, 0, 78, 0
2, 134280, Note_on_c, 0, 79, 72
2, 134400, Note_on_c, 0, 79, 0
2, 134400, Note_on_c, 0, 81, 72
2, 134688, Note_on_c, 0, 81, 0
2, 134880, Note_on_c, 0, 81, 72
2, 135168, Note_on_c, 0, 81, 0
2, 135360, Note_on_c, 0, 74, 72
2, 135744, Note_on_c, 0, 74, 0
2, 135840, Note_on_c, 0, 76, 72
2, 136032, Note_on_c, 0, 76, 0
2, 136080, Note_on_c, 0, 78, 72
2, 136272, Note_on_c, 0, 78, 0
2, 136320, Note_on_c, 0, 79, 72
2, 136704, Note_on_c, 0, 79, 0
2, 137520, Note_on_c, 0, 74, 72
2, 137664, Note_on_c, 0, 74, 0
2, 137760, Note_on_c, 0, 79, 72
2, 137904, Note_on_c, 0, 79, 0
2, 138000, Note_on_c, 0, 83, 72
2, 138144, Note_on_c, 0, 83, 0
2, 138240, Note_on_c, 0, 86, 72
2, 138528, Note_on_c, 0, 86, 0
2, 138720, Note_on_c, 0, 86, 72
2, 139008, Note_on_c, 0, 86, 0
2, 139200, Note_on_c, 0, 86, 72
2, 139488, Note_on_c, 0, 86, 0
2, 139680, Note_on_c, 0, 86, 72
2, 139968, Note_on_c, 0, 86, 0
2, 140160, Note_on_c, 0, 78, 72
2, 140448, Note_on_c, 0, 78, 0
2, 140640, Note_on_c, 0, 78, 72
2, 140928, Note_on_c, 0, 78, 0
2, 141120, Note_on_c, 0, 79, 72
2, 141408, Note_on_c, 0, 79, 0
2, 141600, Note_on_c, 0, 79, 72
2, 141680, Note_on_c, 0, 79, 0
2, 141680, Note_on_c, 0, 81, 72
2, 141760, Note_on_c, 0, 81, 0
2, 141760, Note_on_c, 0, 79, 72
2, 141840, Note_on_c, 0, 79, 0
2, 141840, Note_on_c, 0, 78, 72
2, 141960, Note_on_c, 0, 78, 0
2, 141960, Note_on_c, 0, 79, 72
2, 142080, Note_on_c, 0, 79, 0
2, 142080, Note_on_c, 0, 84, 72
2, 142368, Note_on_c, 0, 84, 0
2, 142560, Note_on_c, 0, 84, 72
2, 142848, Note_on_c, 0, 84, 0
2, 143040, Note_on_c, 0, 83, 72
2, 143328, Note_on_c, 0, 83, 0
2, 143520, Note_on_c, 0, 83, 72
2, 143808, Note_on_c, 0, 83, 0
2, 144000, Note_on_c, 0, 81, 72
2, 144384, Note_on_c, 0, 81, 0
2, 145200, Note_on_c, 0, 74, 72
2, 145344, Note_on_c, 0, 74, 0
2, 145440, Note_on_c, 0, 79, 72
2, 145584, Note_on_c, 0, 79, 0
2, 145680, Note_on_c, 0, 83, 72
2, 145824, Note_on_c, 0, 83, 0
2, 145920, Note_on_c, 0, 86, 72
2, 146208, Note_on_c, 0, 86, 0
2, 146400, Note_on_c, 0, 86, 72
2, 146688, Note_on_c, 0, 86, 0
2, 146880, Note_on_c, 0, 86, 72
2, 147168, Note_on_c, 0, 86, 0
2, 147360, Note_on_c, 0, 86, 72
2, 147648, Note_on_c, 0, 86, 0
2, 147840, Note_on_c, 0, 78, 72
2, 148128, Note_on_c, 0, 78, 0
2, 148320, Note_on_c, 0, 78, 72
2, 148400, Note_on_c, 0, 78, 0
2, 148400, Note_on_c, 0, 79, 72
2, 148480, Note_on_c, 0, 79, 0
2, 148480, Note_on_c, 0, 78, 72
2, 148560, Note_on_c, 0, 78, 0
2, 148560, Note_on_c, 0, 76, 72
2, 148680, Note_on_c, 0, 76, 0
2, 148680, Note_on_c, 0, 78, 72
2, 148800, Note_on_c, 0, 78, 0
2, 148800, Note_on_c, 0, 79, 72
2, 149088, Note_on_c, 0, 79, 0
2, 149280, Note_on_c, 0, 79, 72
2, 149360, Note_on_c, 0, 79, 0
2, 149360, Note_on_c, 0, 81, 72
2, 149440, Note_on_c, 0, 81, 0
2, 149440, Note_on_c, 0, 79, 72
2, 149520, Note_on_c, 0, 79, 0
2, 149520, Note_on_c, 0, 78, 72
2, 149640, Note_on_c, 0, 78, 0
2, 149640, Note_on_c, 0, 79, 72
2, 149760, Note_on_c, 0, 79, 0
2, 149760, Note_on_c, 0, 81, 72
2, 150048, Note_on_c, 0, 81, 0
2, 150240, Note_on_c, 0, 81, 72
2, 150528, Note_on_c, 0, 81, 0
2, 150720, Note_on_c, 0, 74, 72
2, 151104, Note_on_c, 0, 74, 0
2, 151200, Note_on_c, 0, 76, 72
2, 151392, Note_on_c, 0, 76, 0
2, 151440, Note_on_c, 0, 78, 72
2, 151632, Note_on_c, 0, 78, 0
2, 151680, Note_on_c, 0, 79, 92
2, 152832, Note_on_c, 0, 79, 0
2, 152880, Note_on_c, 0, 81, 116
2, 153072, Note_on_c, 0, 81, 0
2, 153120, Note_on_c, 0, 78, 116
2, 153312, Note_on_c, 0, 78, 0
2, 153360, Note_on_c, 0, 74, 116
2, 153552, Note_on_c, 0, 74, 0
2, 153600, Note_on_c, 0, 83, 116
2, 154752, Note_on_c, 0, 83, 0
2, 154800, Note_on_c, 0, 84, 116
2, 154992, Note_on_c, 0, 84, 0
2, 155040, Note_on_c, 0, 81, 116
2, 155232, Note_on_c, 0, 81, 0
2, 155280, Note_on_c, 0, 78, 116
2, 155472, Note_on_c, 0, 78, 0
2, 155520, Note_on_c, 0, 86, 116
2, 155712, Note_on_c, 0, 86, 0
2, 155760, Note_on_c, 0, 86, 116
2, 156144, Note_on_c, 0, 86, 0
2, 156240, Note_on_c, 0, 86, 116
2, 156624, Note_on_c, 0, 86, 0
2, 156720, Note_on_c, 0, 86, 116
2, 157104, Note_on_c, 0, 86, 0
2, 157200, Note_on_c, 0, 86, 116
2, 157632, Note_on_c, 0, 86, 0
2, 157680, Note_on_c, 0, 86, 116
2, 158064, Note_on_c, 0, 86, 0
2, 158160, Note_on_c, 0, 86, 116
2, 158544, Note_on_c, 0, 86, 0
2, 158640, Note_on_c, 0, 86, 116
2, 159024, Note_on_c, 0, 86, 0
2, 159120, Note_on_c, 0, 86, 116
2, 159600, Note_on_c, 0, 86, 0
2, 159600, Note_on_c, 0, 83, 105
2, 159792, Note_on_c, 0, 83, 0
2, 159840, Note_on_c, 0, 83, 105
2, 160032, Note_on_c, 0, 83, 0
2, 160080, Note_on_c, 0, 83, 105
2, 160272, Note_on_c, 0, 83, 0
2, 160320, Note_on_c, 0, 83, 105
2, 160560, Note_on_c, 0, 83, 0
2, 160560, Note_on_c, 0, 79, 105
2, 160752, Note_on_c, 0, 79, 0
2, 160800, Note_on_c, 0, 79, 105
2, 160992, Note_on_c, 0, 79, 0
2, 161040, Note_on_c, 0, 79, 105
2, 161232, Note_on_c, 0, 79, 0
2, 161280, Note_on_c, 0, 79, 105
2, 161520, Note_on_c, 0, 79, 0
2, 161520, Note_on_c, 0, 74, 105
2, 161712, Note_on_c, 0, 74, 0
2, 161760, Note_on_c, 0, 74, 105
2, 161952, Note_on_c, 0, 74, 0
2, 162000, Note_on_c, 0, 74, 105
2, 162192, Note_on_c, 0, 74, 0
2, 162240, Note_on_c, 0, 74, 105
2, 162480, Note_on_c, 0, 74, 0
2, 162480, Note_on_c, 0, 71, 105
2, 162672, Note_on_c, 0, 71, 0
2, 162720, Note_on_c, 0, 71, 105
2, 162960, Note_on_c, 0, 71, 0
2, 162960, Note_on_c, 0, 67, 105
2, 163152, Note_on_c, 0, 67, 0
2, 163200, Note_on_c, 0, 74, 105
2, 163488, Note_on_c, 0, 74, 0
2, 163680, Note_on_c, 0, 69, 105
2, 163680, Note_on_c, 0, 78, 105
2, 163680, Note_on_c, 0, 62, 105
2, 163968, Note_on_c, 0, 62, 0
2, 163968, Note_on_c, 0, 78, 0
2, 163968, Note_on_c, 0, 69, 0
2, 164160, Note_on_c, 0, 71, 105
2, 164160, Note_on_c, 0, 62, 105
2, 164160, Note_on_c, 0, 79, 105
2, 164448, Note_on_c, 0, 79, 0
2, 164448, Note_on_c, 0, 62, 0
2, 164448, Note_on_c, 0, 71, 0
2, 164640, Note_on_c, 0, 83, 125
2, 164928, Note_on_c, 0, 83, 0
2, 165120, Note_on_c, 0, 86, 125
2, 165504, Note_on_c, 0, 86, 0
2, 165600, Note_on_c, 0, 62, 92
2, 165984, Note_on_c, 0, 62, 0
2, 166080, Note_on_c, 0, 62, 92
2, 166464, Note_on_c, 0, 62, 0
2, 167040, Note_on_c, 0, 81, 112
2, 168000, Note_on_c, 0, 81, 0
2, 168000, Note_on_c, 0, 73, 72
2, 168192, Note_on_c, 0, 73, 0
2, 168480, Note_on_c, 0, 74, 72
2, 168672, Note_on_c, 0, 74, 0
2, 168960, Note_on_c, 0, 76, 72
2, 169152, Note_on_c, 0, 76, 0
2, 169440, Note_on_c, 0, 78, 72
2, 169632, Note_on_c, 0, 78, 0
2, 169920, Note_on_c, 0, 79, 72
2, 170112, Note_on_c, 0, 79, 0
2, 170880, Note_on_c, 0, 78, 72
2, 171120, Note_on_c, 0, 78, 0
2, 171120, Note_on_c, 0, 79, 72
2, 171360, Note_on_c, 0, 79, 0
2, 171360, Note_on_c, 0, 80, 72
2, 171600, Note_on_c, 0, 80, 0
2, 171600, Note_on_c, 0, 81, 72
2, 171840, Note_on_c, 0, 81, 0
2, 171840, Note_on_c, 0, 82, 72
2, 172080, Note_on_c, 0, 82, 0
2, 172080, Note_on_c, 0, 83, 72
2, 172320, Note_on_c, 0, 83, 0
2, 172320, Note_on_c, 0, 79, 72
2, 172560, Note_on_c, 0, 79, 0
2, 172560, Note_on_c, 0, 76, 72
2, 172752, Note_on_c, 0, 76, 0
2, 172800, Note_on_c, 0, 74, 72
2, 173760, Note_on_c, 0, 74, 0
2, 173760, Note_on_c, 0, 73, 58
2, 174144, Note_on_c, 0, 73, 0
2, 174720, Note_on_c, 0, 81, 112
2, 175680, Note_on_c, 0, 81, 0
2, 175680, Note_on_c, 0, 73, 72
2, 175872, Note_on_c, 0, 73, 0
2, 176160, Note_on_c, 0, 74, 72
2, 176352, Note_on_c, 0, 74, 0
2, 176640, Note_on_c, 0, 76, 72
2, 176832, Note_on_c, 0, 76, 0
2, 177120, Note_on_c, 0, 78, 72
2, 177312, Note_on_c, 0, 78, 0
2, 177600, Note_on_c, 0, 79, 72
2, 177792, Note_on_c, 0, 79, 0
2, 178560, Note_on_c, 0, 78, 72
2, 179040, Note_on_c, 0, 78, 0
2, 179040, Note_on_c, 0, 86, 72
2, 180000, Note_on_c, 0, 86, 0
2, 180000, Note_on_c, 0, 80, 72
2, 180384, Note_on_c, 0, 80, 0
2, 180480, Note_on_c, 0, 83, 72
2, 181440, Note_on_c, 0, 83, 0
2, 181440, Note_on_c, 0, 81, 72
2, 181824, Note_on_c, 0, 81, 0
2, 182400, Note_on_c, 0, 83, 72
2, 182640, Note_on_c, 0, 83, 0
2, 182640, Note_on_c, 0, 81, 72
2, 182820, Note_on_c, 0, 81, 0
2, 182880, Note_on_c, 0, 79, 72
2, 183060, Note_on_c, 0, 79, 0
2, 183120, Note_on_c, 0, 78, 72
2, 183300, Note_on_c, 0, 78, 0
2, 183360, Note_on_c, 0, 76, 72
2, 183720, Note_on_c, 0, 76, 0
2, 183840, Note_on_c, 0, 76, 72
2, 184200, Note_on_c, 0, 76, 0
2, 184320, Note_on_c, 0, 79, 72
2, 184560, Note_on_c, 0, 79, 0
2, 184560, Note_on_c, 0, 78, 72
2, 184740, Note_on_c, 0, 78, 0
2, 184800, Note_on_c, 0, 76, 72
2, 184980, Note_on_c, 0, 76, 0
2, 185040, Note_on_c, 0, 74, 72
2, 185220, Note_on_c, 0, 74, 0
2, 185280, Note_on_c, 0, 73, 72
2, 185640, Note_on_c, 0, 73, 0
2, 186240, Note_on_c, 0, 83, 72
2, 186480, Note_on_c, 0, 83, 0
2, 186480, Note_on_c, 0, 81, 72
2, 186660, Note_on_c, 0, 81, 0
2, 186720, Note_on_c, 0, 79, 72
2, 186900, Note_on_c, 0, 79, 0
2, 186960, Note_on_c, 0, 78, 72
2, 187140, Note_on_c, 0, 78, 0
2, 187200, Note_on_c, 0, 76, 72
2, 187380, Note_on_c, 0, 76, 0
2, 187440, Note_on_c, 0, 76, 72
2, 187620, Note_on_c, 0, 76, 0
2, 187680, Note_on_c, 0, 76, 72
2, 187860, Note_on_c, 0, 76, 0
2, 187920, Note_on_c, 0, 76, 72
2, 188100, Note_on_c, 0, 76, 0
2, 188160, Note_on_c, 0, 79, 72
2, 188400, Note_on_c, 0, 79, 0
2, 188400, Note_on_c, 0, 78, 72
2, 188580, Note_on_c, 0, 78, 0
2, 188640, Note_on_c, 0, 76, 72
2, 188820, Note_on_c, 0, 76, 0
2, 188880, Note_on_c, 0, 74, 72
2, 189060, Note_on_c, 0, 74, 0
2, 189120, Note_on_c, 0, 73, 72
2, 189360, Note_on_c, 0, 73, 0
2, 189360, Note_on_c, 0, 76, 72
2, 189600, Note_on_c, 0, 76, 0
2, 189600, Note_on_c, 0, 73, 72
2, 189840, Note_on_c, 0, 73, 0
2, 189840, Note_on_c, 0, 76, 72
2, 190032, Note_on_c, 0, 76, 0
2, 190080, Note_on_c, 0, 79, 72
2, 190320, Note_on_c, 0, 79, 0
2, 190320, Note_on_c, 0, 77, 72
2, 190500, Note_on_c, 0, 77, 0
2, 190560, Note_on_c, 0, 76, 72
2, 190740, Note_on_c, 0, 76, 0
2, 190800, Note_on_c, 0, 74, 72
2, 190980, Note_on_c, 0, 74, 0
2, 191040, Note_on_c, 0, 73, 72
2, 191280, Note_on_c, 0, 73, 0
2, 191280, Note_on_c, 0, 76, 72
2, 191520, Note_on_c, 0, 76, 0
2, 191520, Note_on_c, 0, 73, 72
2, 191760, Note_on_c, 0, 73, 0
2, 191760, Note_on_c, 0, 76, 72
2, 191952, Note_on_c, 0, 76, 0
2, 192000, Note_on_c, 0, 79, 72
2, 192240, Note_on_c, 0, 79, 0
2, 192240, Note_on_c, 0, 77, 72
2, 192420, Note_on_c, 0, 77, 0
2, 192480, Note_on_c, 0, 76, 72
2, 192660, Note_on_c, 0, 76, 0
2, 192720, Note_on_c, 0, 74, 72
2, 192900, Note_on_c, 0, 74, 0
2, 192960, Note_on_c, 0, 73, 72
2, 193200, Note_on_c, 0, 73, 0
2, 193200, Note_on_c, 0, 76, 72
2, 193440, Note_on_c, 0, 76, 0
2, 193440, Note_on_c, 0, 73, 72
2, 193680, Note_on_c, 0, 73, 0
2, 193680, Note_on_c, 0, 76, 72
2, 193872, Note_on_c, 0, 76, 0
2, 193920, Note_on_c, 0, 79, 72
2, 194160, Note_on_c, 0, 79, 0
2, 194160, Note_on_c, 0, 76, 72
2, 194400, Note_on_c, 0, 76, 0
2, 194400, Note_on_c, 0, 79, 72
2, 194640, Note_on_c, 0, 79, 0
2, 194640, Note_on_c, 0, 76, 72
2, 194880, Note_on_c, 0, 76, 0
2, 194880, Note_on_c, 0, 79, 72
2, 195120, Note_on_c, 0, 79, 0
2, 195120, Note_on_c, 0, 76, 72
2, 195360, Note_on_c, 0, 76, 0
2, 195360, Note_on_c, 0, 79, 72
2, 195600, Note_on_c, 0, 79, 0
2, 195600, Note_on_c, 0, 76, 72
2, 195840, Note_on_c, 0, 76, 0
2, 195840, Note_on_c, 0, 79, 58
2, 196224, Note_on_c, 0, 79, 0
2, 197040, Note_on_c, 0, 69, 72
2, 197184, Note_on_c, 0, 69, 0
2, 197280, Note_on_c, 0, 74, 72
2, 197424, Note_on_c, 0, 74, 0
2, 197520, Note_on_c, 0, 78, 72
2, 197664, Note_on_c, 0, 78, 0
2, 197760, Note_on_c, 0, 81, 72
2, 198048, Note_on_c, 0, 81, 0
2, 198240, Note_on_c, 0, 81, 72
2, 198528, Note_on_c, 0, 81, 0
2, 198720, Note_on_c, 0, 81, 72
2, 199008, Note_on_c, 0, 81, 0
2, 199200, Note_on_c, 0, 81, 72
2, 199488, Note_on_c, 0, 81, 0
2, 199680, Note_on_c, 0, 73, 72
2, 199968, Note_on_c, 0, 73, 0
2, 200160, Note_on_c, 0, 73, 72
2, 200448, Note_on_c, 0, 73, 0
2, 200640, Note_on_c, 0, 74, 72
2, 200928, Note_on_c, 0, 74, 0
2, 201120, Note_on_c, 0, 74, 72
2, 201200, Note_on_c, 0, 74, 0
2, 201200, Note_on_c, 0, 76, 72
2, 201280, Note_on_c, 0, 76, 0
2, 201280, Note_on_c, 0, 74, 72
2, 201360, Note_on_c, 0, 74, 0
2, 201360, Note_on_c, 0, 73, 72
2, 201480, Note_on_c, 0, 73, 0
2, 201480, Note_on_c, 0, 74, 72
2, 201600, Note_on_c, 0, 74, 0
2, 201600, Note_on_c, 0, 79, 72
2, 201888, Note_on_c, 0, 79, 0
2, 202080, Note_on_c, 0, 79, 72
2, 202368, Note_on_c, 0, 79, 0
2, 202560, Note_on_c, 0, 78, 72
2, 202848, Note_on_c, 0, 78, 0
2, 203040, Note_on_c, 0, 78, 72
2, 203328, Note_on_c, 0, 78, 0
2, 203520, Note_on_c, 0, 76, 72
2, 203904, Note_on_c, 0, 76, 0
2, 204720, Note_on_c, 0, 69, 72
2, 204864, Note_on_c, 0, 69, 0
2, 204960, Note_on_c, 0, 74, 72
2, 205104, Note_on_c, 0, 74, 0
2, 205200, Note_on_c, 0, 78, 72
2, 205344, Note_on_c, 0, 78, 0
2, 205440, Note_on_c, 0, 81, 72
2, 205728, Note_on_c, 0, 81, 0
2, 205920, Note_on_c, 0, 81, 72
2, 206208, Note_on_c, 0, 81, 0
2, 206400, Note_on_c, 0, 81, 72
2, 206688, Note_on_c, 0, 81, 0
2, 206880, Note_on_c, 0, 81, 72
2, 207168, Note_on_c, 0, 81, 0
2, 207360, Note_on_c, 0, 73, 72
2, 207648, Note_on_c, 0, 73, 0
2, 207840, Note_on_c, 0, 73, 72
2, 207904, Note_on_c, 0, 73, 0
2, 207920, Note_on_c, 0, 74, 72
2, 207984, Note_on_c, 0, 74, 0
2, 208000, Note_on_c, 0, 73, 72
2, 208064, Note_on_c, 0, 73, 0
2, 208080, Note_on_c, 0, 71, 72
2, 208176, Note_on_c, 0, 71, 0
2, 208200, Note_on_c, 0, 73, 72
2, 208296, Note_on_c, 0, 73, 0
2, 208320, Note_on_c, 0, 74, 72
2, 208608, Note_on_c, 0, 74, 0
2, 208800, Note_on_c, 0, 74, 72
2, 208864, Note_on_c, 0, 74, 0
2, 208880, Note_on_c, 0, 76, 72
2, 208944, Note_on_c, 0, 76, 0
2, 208960, Note_on_c, 0, 74, 72
2, 209024, Note_on_c, 0, 74, 0
2, 209040, Note_on_c, 0, 73, 72
2, 209136, Note_on_c, 0, 73, 0
2, 209160, Note_on_c, 0, 74, 72
2, 209256, Note_on_c, 0, 74, 0
2, 209280, Note_on_c, 0, 76, 72
2, 209568, Note_on_c, 0, 76, 0
2, 209760, Note_on_c, 0, 76, 72
2, 209824, Note_on_c, 0, 76, 0
2, 209840, Note_on_c, 0, 78, 72
2, 209904, Note_on_c, 0, 78, 0
2, 209920, Note_on_c, 0, 76, 72
2, 209984, Note_on_c, 0, 76, 0
2, 210000, Note_on_c, 0, 74, 72
2, 210096, Note_on_c, 0, 74, 0
2, 210120, Note_on_c, 0, 76, 72
2, 210216, Note_on_c, 0, 76, 0
2, 210240, Note_on_c, 0, 78, 72
2, 210528, Note_on_c, 0, 78, 0
2, 210720, Note_on_c, 0, 78, 72
2, 210784, Note_on_c, 0, 78, 0
2, 210800, Note_on_c, 0, 79, 72
2, 210864, Note_on_c, 0, 79, 0
2, 210880, Note_on_c, 0, 78, 72
2, 210944, Note_on_c, 0, 78, 0
2, 210960, Note_on_c, 0, 76, 72
2, 211056, Note_on_c, 0, 76, 0
2, 211080, Note_on_c, 0, 78, 72
2, 211176, Note_on_c, 0, 78, 0
2, 211200, Note_on_c, 0, 81, 72
2, 212160, Note_on_c, 0, 81, 0
2, 212160, Note_on_c, 0, 79, 72
2, 212304, Note_on_c, 0, 79, 0
2, 212400, Note_on_c, 0, 71, 72
2, 212544, Note_on_c, 0, 71, 0
2, 212640, Note_on_c, 0, 74, 72
2, 212784, Note_on_c, 0, 74, 0
2, 212880, Note_on_c, 0, 79, 72
2, 213024, Note_on_c, 0, 79, 0
2, 213120, Note_on_c, 0, 83, 72
2, 213408, Note_on_c, 0, 83, 0
2, 213600, Note_on_c, 0, 83, 72
2, 213888, Note_on_c, 0, 83, 0
2, 214080, Note_on_c, 0, 83, 72
2, 214368, Note_on_c, 0, 83, 0
2, 214560, Note_on_c, 0, 83, 72
2, 214848, Note_on_c, 0, 83, 0
2, 215040, Note_on_c, 0, 73, 72
2, 215328, Note_on_c, 0, 73, 0
2, 215520, Note_on_c, 0, 73, 72
2, 215584, Note_on_c, 0, 73, 0
2, 215600, Note_on_c, 0, 74, 72
2, 215664, Note_on_c, 0, 74, 0
2, 215680, Note_on_c, 0, 73, 72
2, 215744, Note_on_c, 0, 73, 0
2, 215760, Note_on_c, 0, 71, 72
2, 215856, Note_on_c, 0, 71, 0
2, 215880, Note_on_c, 0, 73, 72
2, 215976, Note_on_c, 0, 73, 0
2, 216000, Note_on_c, 0, 74, 72
2, 216288, Note_on_c, 0, 74, 0
2, 216480, Note_on_c, 0, 74, 72
2, 216544, Note_on_c, 0, 74, 0
2, 216560, Note_on_c, 0, 76, 72
2, 216624, Note_on_c, 0, 76, 0
2, 216640, Note_on_c, 0, 74, 72
2, 216704, Note_on_c, 0, 74, 0
2, 216720, Note_on_c, 0, 73, 72
2, 216816, Note_on_c, 0, 73, 0
2, 216840, Note_on_c, 0, 74, 72
2, 216936, Note_on_c, 0, 74, 0
2, 216960, Note_on_c, 0, 79, 72
2, 217248, Note_on_c, 0, 79, 0
2, 217440, Note_on_c, 0, 79, 72
2, 217728, Note_on_c, 0, 79, 0
2, 217920, Note_on_c, 0, 76, 72
2, 218208, Note_on_c, 0, 76, 0
2, 218400, Note_on_c, 0, 76, 72
2, 218688, Note_on_c, 0, 76, 0
2, 218880, Note_on_c, 0, 81, 72
2, 220080, Note_on_c, 0, 81, 0
2, 220080, Note_on_c, 0, 83, 72
2, 220320, Note_on_c, 0, 83, 0
2, 220320, Note_on_c, 0, 79, 72
2, 220560, Note_on_c, 0, 79, 0
2, 220560, Note_on_c, 0, 81, 72
2, 220752, Note_on_c, 0, 81, 0
2, 220800, Note_on_c, 0, 78, 72
2, 222000, Note_on_c, 0, 78, 0
2, 222000, Note_on_c, 0, 79, 72
2, 222240, Note_on_c, 0, 79, 0
2, 222240, Note_on_c, 0, 76, 72
2, 222480, Note_on_c, 0, 76, 0
2, 222480, Note_on_c, 0, 78, 72
2, 222672, Note_on_c, 0, 78, 0
2, 222720, Note_on_c, 0, 74, 72
2, 223920, Note_on_c, 0, 74, 0
2, 223920, Note_on_c, 0, 76, 58
2, 224160, Note_on_c, 0, 76, 0
2, 224160, Note_on_c, 0, 73, 58
2, 224400, Note_on_c, 0, 73, 0
2, 224400, Note_on_c, 0, 69, 58
2, 224592, Note_on_c, 0, 69, 0
2, 224640, Note_on_c, 0, 81, 78
2, 224880, Note_on_c, 0, 81, 0
2, 224880, Note_on_c, 0, 83, 116
2, 225036, Note_on_c, 0, 83, 0
2, 225120, Note_on_c, 0, 85, 116
2, 225276, Note_on_c, 0, 85, 0
2, 225360, Note_on_c, 0, 86, 116
2, 225516, Note_on_c, 0, 86, 0
2, 225600, Note_on_c, 0, 85, 116
2, 225840, Note_on_c, 0, 85, 0
2, 225840, Note_on_c, 0, 83, 116
2, 225996, Note_on_c, 0, 83, 0
2, 226080, Note_on_c, 0, 81, 116
2, 226236, Note_on_c, 0, 81, 0
2, 226320, Note_on_c, 0, 79, 116
2, 226476, Note_on_c, 0, 79, 0
2, 226560, Note_on_c, 0, 78, 116
2, 226800, Note_on_c, 0, 78, 0
2, 226800, Note_on_c, 0, 79, 116
2, 226956, Note_on_c, 0, 79, 0
2, 227040, Note_on_c, 0, 81, 116
2, 227196, Note_on_c, 0, 81, 0
2, 227280, Note_on_c, 0, 83, 116
2, 227436, Note_on_c, 0, 83, 0
2, 227520, Note_on_c, 0, 81, 116
2, 227760, Note_on_c, 0, 81, 0
2, 227760, Note_on_c, 0, 79, 116
2, 227916, Note_on_c, 0, 79, 0
2, 228000, Note_on_c, 0, 78, 116
2, 228156, Note_on_c, 0, 78, 0
2, 228240, Note_on_c, 0, 76, 116
2, 228396, Note_on_c, 0, 76, 0
2, 228480, Note_on_c, 0, 76, 116
2, 228720, Note_on_c, 0, 76, 0
2, 228720, Note_on_c, 0, 74, 116
2, 228876, Note_on_c, 0, 74, 0
2, 228960, Note_on_c, 0, 74, 116
2, 229116, Note_on_c, 0, 74, 0
2, 229200, Note_on_c, 0, 74, 116
2, 229356, Note_on_c, 0, 74, 0
2, 229440, Note_on_c, 0, 74, 116
2, 229680, Note_on_c, 0, 74, 0
2, 229680, Note_on_c, 0, 78, 116
2, 229836, Note_on_c, 0, 78, 0
2, 229920, Note_on_c, 0, 76, 116
2, 230076, Note_on_c, 0, 76, 0
2, 230160, Note_on_c, 0, 73, 116
2, 230316, Note_on_c, 0, 73, 0
2, 230400, Note_on_c, 0, 74, 105
2, 230784, Note_on_c, 0, 74, 0
2, 231600, Note_on_c, 0, 69, 72
2, 231792, Note_on_c, 0, 69, 0
2, 231840, Note_on_c, 0, 74, 72
2, 231984, Note_on_c, 0, 74, 0
2, 232080, Note_on_c, 0, 78, 72
2, 232224, Note_on_c, 0, 78, 0
2, 232320, Note_on_c, 0, 81, 72
2, 232608, Note_on_c, 0, 81, 0
2, 232800, Note_on_c, 0, 81, 72
2, 233088, Note_on_c, 0, 81, 0
2, 233280, Note_on_c, 0, 81, 72
2, 233568, Note_on_c, 0, 81, 0
2, 233760, Note_on_c, 0, 81, 72
2, 234048, Note_on_c, 0, 81, 0
2, 234240, Note_on_c, 0, 71, 72
2, 234624, Note_on_c, 0, 71, 0
2, 235440, Note_on_c, 0, 71, 72
2, 235584, Note_on_c, 0, 71, 0
2, 235680, Note_on_c, 0, 74, 72
2, 235824, Note_on_c, 0, 74, 0
2, 235920, Note_on_c, 0, 79, 72
2, 236064, Note_on_c, 0, 79, 0
2, 236160, Note_on_c, 0, 83, 72
2, 236448, Note_on_c, 0, 83, 0
2, 236640, Note_on_c, 0, 83, 72
2, 236928, Note_on_c, 0, 83, 0
2, 237120, Note_on_c, 0, 83, 72
2, 237408, Note_on_c, 0, 83, 0
2, 237600, Note_on_c, 0, 83, 72
2, 237888, Note_on_c, 0, 83, 0
2, 238080, Note_on_c, 0, 72, 72
2, 238464, Note_on_c, 0, 72, 0
2, 239280, Note_on_c, 0, 72, 72
2, 239424, Note_on_c, 0, 72, 0
2, 239520, Note_on_c, 0, 78, 72
2, 239664, Note_on_c, 0, 78, 0
2, 239760, Note_on_c, 0, 81, 72
2, 239904, Note_on_c, 0, 81, 0
2, 240000, Note_on_c, 0, 84, 72
2, 240288, Note_on_c, 0, 84, 0
2, 240480, Note_on_c, 0, 84, 72
2, 240768, Note_on_c, 0, 84, 0
2, 240960, Note_on_c, 0, 84, 72
2, 241248, Note_on_c, 0, 84, 0
2, 241440, Note_on_c, 0, 84, 72
2, 241728, Note_on_c, 0, 84, 0
2, 241920, Note_on_c, 0, 74, 58
2, 242304, Note_on_c, 0, 74, 0
2, 243120, Note_on_c, 0, 62, 105
2, 243276, Note_on_c, 0, 62, 0
2, 243360, Note_on_c, 0, 66, 105
2, 243516, Note_on_c, 0, 66, 0
2, 243600, Note_on_c, 0, 69, 105
2, 243756, Note_on_c, 0, 69, 0
2, 243840, Note_on_c, 0, 72, 105
2, 244152, Note_on_c, 0, 72, 0
2, 244320, Note_on_c, 0, 72, 105
2, 244632, Note_on_c, 0, 72, 0
2, 244800, Note_on_c, 0, 72, 105
2, 245112, Note_on_c, 0, 72, 0
2, 245280, Note_on_c, 0, 72, 105
2, 245592, Note_on_c, 0, 72, 0
2, 245760, Note_on_c, 0, 63, 105
2, 246144, Note_on_c, 0, 63, 0
2, 246960, Note_on_c, 0, 70, 72
2, 247104, Note_on_c, 0, 70, 0
2, 247200, Note_on_c, 0, 75, 72
2, 247344, Note_on_c, 0, 75, 0
2, 247440, Note_on_c, 0, 79, 72
2, 247584, Note_on_c, 0, 79, 0
2, 247680, Note_on_c, 0, 82, 72
2, 247968, Note_on_c, 0, 82, 0
2, 248160, Note_on_c, 0, 82, 72
2, 248448, Note_on_c, 0, 82, 0
2, 248640, Note_on_c, 0, 82, 72
2, 248928, Note_on_c, 0, 82, 0
2, 249120, Note_on_c, 0, 82, 72
2, 249408, Note_on_c, 0, 82, 0
2, 249600, Note_on_c, 0, 74, 72
2, 249888, Note_on_c, 0, 74, 0
2, 250080, Note_on_c, 0, 74, 72
2, 250368, Note_on_c, 0, 74, 0
2, 250560, Note_on_c, 0, 75, 72
2, 250848, Note_on_c, 0, 75, 0
2, 251040, Note_on_c, 0, 75, 72
2, 251120, Note_on_c, 0, 75, 0
2, 251120, Note_on_c, 0, 77, 72
2, 251200, Note_on_c, 0, 77, 0
2, 251200, Note_on_c, 0, 75, 72
2, 251280, Note_on_c, 0, 75, 0
2, 251280, Note_on_c, 0, 74, 72
2, 251400, Note_on_c, 0, 74, 0
2, 251400, Note_on_c, 0, 75, 72
2, 251520, Note_on_c, 0, 75, 0
2, 251520, Note_on_c, 0, 80, 72
2, 251808, Note_on_c, 0, 80, 0
2, 252000, Note_on_c, 0, 80, 72
2, 252288, Note_on_c, 0, 80, 0
2, 252480, Note_on_c, 0, 79, 72
2, 252768, Note_on_c, 0, 79, 0
2, 252960, Note_on_c, 0, 79, 72
2, 253248, Note_on_c, 0, 79, 0
2, 253440, Note_on_c, 0, 77, 72
2, 253824, Note_on_c, 0, 77, 0
2, 254640, Note_on_c, 0, 70, 72
2, 254832, Note_on_c, 0, 70, 0
2, 254880, Note_on_c, 0, 75, 72
2, 255072, Note_on_c, 0, 75, 0
2, 255120, Note_on_c, 0, 79, 72
2, 255312, Note_on_c, 0, 79, 0
2, 255360, Note_on_c, 0, 82, 72
2, 255648, Note_on_c, 0, 82, 0
2, 255840, Note_on_c, 0, 82, 72
2, 256128, Note_on_c, 0, 82, 0
2, 256320, Note_on_c, 0, 82, 72
2, 256608, Note_on_c, 0, 82, 0
2, 256800, Note_on_c, 0, 82, 72
2, 257088, Note_on_c, 0, 82, 0
2, 257280, Note_on_c, 0, 74, 72
2, 257664, Note_on_c, 0, 74, 0
2, 257760, Note_on_c, 0, 74, 72
2, 257824, Note_on_c, 0, 74, 0
2, 257840, Note_on_c, 0, 75, 72
2, 257904, Note_on_c, 0, 75, 0
2, 257920, Note_on_c, 0, 74, 72
2, 257984, Note_on_c, 0, 74, 0
2, 258000, Note_on_c, 0, 72, 72
2, 258096, Note_on_c, 0, 72, 0
2, 258120, Note_on_c, 0, 74, 72
2, 258216, Note_on_c, 0, 74, 0
2, 258240, Note_on_c, 0, 75, 72
2, 258624, Note_on_c, 0, 75, 0
2, 258720, Note_on_c, 0, 75, 72
2, 258784, Note_on_c, 0, 75, 0
2, 258800, Note_on_c, 0, 77, 72
2, 258864, Note_on_c, 0, 77, 0
2, 258880, Note_on_c, 0, 75, 72
2, 258944, Note_on_c, 0, 75, 0
2, 258960, Note_on_c, 0, 74, 72
2, 259056, Note_on_c, 0, 74, 0
2, 259080, Note_on_c, 0, 75, 72
2, 259176, Note_on_c, 0, 75, 0
2, 259200, Note_on_c, 0, 77, 72
2, 259488, Note_on_c, 0, 77, 0
2, 259680, Note_on_c, 0, 77, 72
2, 259968, Note_on_c, 0, 77, 0
2, 260160, Note_on_c, 0, 70, 72
2, 260448, Note_on_c, 0, 70, 0
2, 260640, Note_on_c, 0, 72, 72
2, 260832, Note_on_c, 0, 72, 0
2, 260880, Note_on_c, 0, 74, 72
2, 261072, Note_on_c, 0, 74, 0
2, 261120, Note_on_c, 0, 75, 105
2, 262272, Note_on_c, 0, 75, 0
2, 262320, Note_on_c, 0, 77, 105
2, 262512, Note_on_c, 0, 77, 0
2, 262560, Note_on_c, 0, 74, 105
2, 262752, Note_on_c, 0, 74, 0
2, 262800, Note_on_c, 0, 70, 105
2, 262992, Note_on_c, 0, 70, 0
2, 263040, Note_on_c, 0, 79, 105
2, 264192, Note_on_c, 0, 79, 0
2, 264240, Note_on_c, 0, 80, 105
2, 264432, Note_on_c, 0, 80, 0
2, 264480, Note_on_c, 0, 77, 105
2, 264672, Note_on_c, 0, 77, 0
2, 264720, Note_on_c, 0, 74, 105
2, 264912, Note_on_c, 0, 74, 0
2, 264960, Note_on_c, 0, 82, 105
2, 265152, Note_on_c, 0, 82, 0
2, 265200, Note_on_c, 0, 82, 105
2, 265584, Note_on_c, 0, 82, 0
2, 265680, Note_on_c, 0, 82, 105
2, 266064, Note_on_c, 0, 82, 0
2, 266160, Note_on_c, 0, 82, 105
2, 266544, Note_on_c, 0, 82, 0
2, 266640, Note_on_c, 0, 82, 105
2, 267072, Note_on_c, 0, 82, 0
2, 267120, Note_on_c, 0, 82, 105
2, 267504, Note_on_c, 0, 82, 0
2, 267600, Note_on_c, 0, 82, 105
2, 267984, Note_on_c, 0, 82, 0
2, 268080, Note_on_c, 0, 82, 105
2, 268464, Note_on_c, 0, 82, 0
2, 268560, Note_on_c, 0, 82, 105
2, 269040, Note_on_c, 0, 82, 0
2, 269040, Note_on_c, 0, 79, 116
2, 269232, Note_on_c, 0, 79, 0
2, 269280, Note_on_c, 0, 79, 116
2, 269472, Note_on_c, 0, 79, 0
2, 269520, Note_on_c, 0, 79, 116
2, 269712, Note_on_c, 0, 79, 0
2, 269760, Note_on_c, 0, 79, 116
2, 270000, Note_on_c, 0, 79, 0
2, 270000, Note_on_c, 0, 75, 116
2, 270192, Note_on_c, 0, 75, 0
2, 270240, Note_on_c, 0, 75, 116
2, 270432, Note_on_c, 0, 75, 0
2, 270480, Note_on_c, 0, 75, 116
2, 270672, Note_on_c, 0, 75, 0
2, 270720, Note_on_c, 0, 75, 116
2, 270960, Note_on_c, 0, 75, 0
2, 270960, Note_on_c, 0, 70, 116
2, 271152, Note_on_c, 0, 70, 0
2, 271200, Note_on_c, 0, 70, 116
2, 271392, Note_on_c, 0, 70, 0
2, 271440, Note_on_c, 0, 70, 116
2, 271632, Note_on_c, 0, 70, 0
2, 271680, Note_on_c, 0, 70, 116
2, 271920, Note_on_c, 0, 70, 0
2, 271920, Note_on_c, 0, 67, 116
2, 272064, Note_on_c, 0, 67, 0
2, 272160, Note_on_c, 0, 67, 116
2, 272400, Note_on_c, 0, 67, 0
2, 272400, Note_on_c, 0, 63, 116
2, 272544, Note_on_c, 0, 63, 0
2, 272640, Note_on_c, 0, 83, 116
2, 272880, Note_on_c, 0, 83, 0
2, 272880, Note_on_c, 0, 77, 116
2, 273072, Note_on_c, 0, 77, 0
2, 273120, Note_on_c, 0, 77, 116
2, 273312, Note_on_c, 0, 77, 0
2, 273360, Note_on_c, 0, 77, 116
2, 273552, Note_on_c, 0, 77, 0
2, 273600, Note_on_c, 0, 77, 116
2, 273840, Note_on_c, 0, 77, 0
2, 273840, Note_on_c, 0, 74, 116
2, 274032, Note_on_c, 0, 74, 0
2, 274080, Note_on_c, 0, 74, 116
2, 274272, Note_on_c, 0, 74, 0
2, 274320, Note_on_c, 0, 74, 116
2, 274512, Note_on_c, 0, 74, 0
2, 274560, Note_on_c, 0, 74, 116
2, 274800, Note_on_c, 0, 74, 0
2, 274800, Note_on_c, 0, 71, 116
2, 274992, Note_on_c, 0, 71, 0
2, 275040, Note_on_c, 0, 71, 116
2, 275232, Note_on_c, 0, 71, 0
2, 275280, Note_on_c, 0, 71, 116
2, 275472, Note_on_c, 0, 71, 0
2, 275520, Note_on_c, 0, 71, 116
2, 275760, Note_on_c, 0, 71, 0
2, 275760, Note_on_c, 0, 65, 116
2, 275952, Note_on_c, 0, 65, 0
2, 276000, Note_on_c, 0, 65, 116
2, 276240, Note_on_c, 0, 65, 0
2, 276240, Note_on_c, 0, 62, 116
2, 276432, Note_on_c, 0, 62, 0
2, 276480, Note_on_c, 0, 84, 116
2, 276720, Note_on_c, 0, 84, 0
2, 276720, Note_on_c, 0, 79, 116
2, 276912, Note_on_c, 0, 79, 0
2, 276960, Note_on_c, 0, 79, 116
2, 277152, Note_on_c, 0, 79, 0
2, 277200, Note_on_c, 0, 79, 116
2, 277392, Note_on_c, 0, 79, 0
2, 277440, Note_on_c, 0, 79, 116
2, 277680, Note_on_c, 0, 79, 0
2, 277680, Note_on_c, 0, 75, 116
2, 277872, Note_on_c, 0, 75, 0
2, 277920, Note_on_c, 0, 75, 116
2, 278112, Note_on_c, 0, 75, 0
2, 278160, Note_on_c, 0, 75, 116
2, 278352, Note_on_c, 0, 75, 0
2, 278400, Note_on_c, 0, 75, 116
2, 278640, Note_on_c, 0, 75, 0
2, 278640, Note_on_c, 0, 72, 116
2, 278832, Note_on_c, 0, 72, 0
2, 278880, Note_on_c, 0, 72, 116
2, 279072, Note_on_c, 0, 72, 0
2, 279120, Note_on_c, 0, 72, 116
2, 279312, Note_on_c, 0, 72, 0
2, 279360, Note_on_c, 0, 72, 116
2, 279600, Note_on_c, 0, 72, 0
2, 279600, Note_on_c, 0, 67, 116
2, 279792, Note_on_c, 0, 67, 0
2, 279840, Note_on_c, 0, 67, 116
2, 280080, Note_on_c, 0, 67, 0
2, 280080, Note_on_c, 0, 63, 116
2, 280272, Note_on_c, 0, 63, 0
2, 280320, Note_on_c, 0, 86, 116
2, 280560, Note_on_c, 0, 86, 0
2, 280560, Note_on_c, 0, 83, 116
2, 280752, Note_on_c, 0, 83, 0
2, 280800, Note_on_c, 0, 83, 116
2, 280992, Note_on_c, 0, 83, 0
2, 281040, Note_on_c, 0, 83, 116
2, 281232, Note_on_c, 0, 83, 0
2, 281280, Note_on_c, 0, 83, 116
2, 281520, Note_on_c, 0, 83, 0
2, 281520, Note_on_c, 0, 78, 116
2, 281712, Note_on_c, 0, 78, 0
2, 281760, Note_on_c, 0, 78, 116
2, 281952, Note_on_c, 0, 78, 0
2, 282000, Note_on_c, 0, 78, 116
2, 282192, Note_on_c, 0, 78, 0
2, 282240, Note_on_c, 0, 78, 116
2, 282480, Note_on_c, 0, 78, 0
2, 282480, Note_on_c, 0, 74, 116
2, 282672, Note_on_c, 0, 74, 0
2, 282720, Note_on_c, 0, 74, 116
2, 282912, Note_on_c, 0, 74, 0
2, 282960, Note_on_c, 0, 74, 116
2, 283152, Note_on_c, 0, 74, 0
2, 283200, Note_on_c, 0, 74, 116
2, 283440, Note_on_c, 0, 74, 0
2, 283440, Note_on_c, 0, 69, 116
2, 283632, Note_on_c, 0, 69, 0
2, 283680, Note_on_c, 0, 69, 116
2, 283920, Note_on_c, 0, 69, 0
2, 283920, Note_on_c, 0, 66, 116
2, 284112, Note_on_c, 0, 66, 0
2, 284160, Note_on_c, 0, 82, 116
2, 284400, Note_on_c, 0, 82, 0
2, 284400, Note_on_c, 0, 79, 116
2, 284592, Note_on_c, 0, 79, 0
2, 284640, Note_on_c, 0, 79, 116
2, 284832, Note_on_c, 0, 79, 0
2, 284880, Note_on_c, 0, 79, 116
2, 285072, Note_on_c, 0, 79, 0
2, 285120, Note_on_c, 0, 79, 116
2, 285360, Note_on_c, 0, 79, 0
2, 285360, Note_on_c, 0, 74, 116
2, 285552, Note_on_c, 0, 74, 0
2, 285600, Note_on_c, 0, 74, 116
2, 285792, Note_on_c, 0, 74, 0
2, 285840, Note_on_c, 0, 74, 116
2, 286032, Note_on_c, 0, 74, 0
2, 286080, Note_on_c, 0, 74, 116
2, 286320, Note_on_c, 0, 74, 0
2, 286320, Note_on_c, 0, 70, 116
2, 286512, Note_on_c, 0, 70, 0
2, 286560, Note_on_c, 0, 70, 116
2, 286752, Note_on_c, 0, 70, 0
2, 286800, Note_on_c, 0, 70, 116
2, 286992, Note_on_c, 0, 70, 0
2, 287040, Note_on_c, 0, 70, 116
2, 287280, Note_on_c, 0, 70, 0
2, 287280, Note_on_c, 0, 67, 116
2, 287472, Note_on_c, 0, 67, 0
2, 287520, Note_on_c, 0, 67, 116
2, 287760, Note_on_c, 0, 67, 0
2, 287760, Note_on_c, 0, 62, 116
2, 287952, Note_on_c, 0, 62, 0
2, 288000, Note_on_c, 0, 79, 105
2, 288240, Note_on_c, 0, 79, 0
2, 288240, Note_on_c, 0, 75, 105
2, 288432, Note_on_c, 0, 75, 0
2, 288480, Note_on_c, 0, 75, 105
2, 288672, Note_on_c, 0, 75, 0
2, 288720, Note_on_c, 0, 75, 105
2, 288912, Note_on_c, 0, 75, 0
2, 288960, Note_on_c, 0, 75, 105
2, 289200, Note_on_c, 0, 75, 0
2, 289200, Note_on_c, 0, 70, 105
2, 289392, Note_on_c, 0, 70, 0
2, 289440, Note_on_c, 0, 70, 105
2, 289632, Note_on_c, 0, 70, 0
2, 289680, Note_on_c, 0, 70, 105
2, 289872, Note_on_c, 0, 70, 0
2, 289920, Note_on_c, 0, 70, 105
2, 290160, Note_on_c, 0, 70, 0
2, 290160, Note_on_c, 0, 67, 105
2, 290352, Note_on_c, 0, 67, 0
2, 290400, Note_on_c, 0, 67, 105
2, 290592, Note_on_c, 0, 67, 0
2, 290640, Note_on_c, 0, 67, 105
2, 290832, Note_on_c, 0, 67, 0
2, 290880, Note_on_c, 0, 67, 105
2, 291120, Note_on_c, 0, 67, 0
2, 291120, Note_on_c, 0, 63, 105
2, 291312, Note_on_c, 0, 63, 0
2, 291360, Note_on_c, 0, 63, 105
2, 291600, Note_on_c, 0, 63, 0
2, 291600, Note_on_c, 0, 61, 105
2, 291792, Note_on_c, 0, 61, 0
2, 291840, Note_on_c, 0, 62, 105
2, 292128, Note_on_c, 0, 62, 0
2, 292320, Note_on_c, 0, 62, 105
2, 292320, Note_on_c, 0, 78, 105
2, 292320, Note_on_c, 0, 69, 105
2, 292608, Note_on_c, 0, 78, 0
2, 292704, Note_on_c, 0, 69, 0
2, 292704, Note_on_c, 0, 62, 0
2, 292800, Note_on_c, 0, 70, 105
2, 292800, Note_on_c, 0, 79, 105
2, 292800, Note_on_c, 0, 62, 105
2, 293088, Note_on_c, 0, 79, 0
2, 293184, Note_on_c, 0, 62, 0
2, 293184, Note_on_c, 0, 70, 0
2, 293280, Note_on_c, 0, 82, 125
2, 293664, Note_on_c, 0, 82, 0
2, 293760, Note_on_c, 0, 86, 125
2, 294144, Note_on_c, 0, 86, 0
2, 294240, Note_on_c, 0, 62, 105
2, 294528, Note_on_c, 0, 62, 0
2, 294720, Note_on_c, 0, 62, 105
2, 295008, Note_on_c, 0, 62, 0
2, 295680, Note_on_c, 0, 74, 112
2, 296640, Note_on_c, 0, 74, 0
2, 296640, Note_on_c, 0, 66, 72
2, 296832, Note_on_c, 0, 66, 0
2, 297120, Note_on_c, 0, 67, 72
2, 297312, Note_on_c, 0, 67, 0
2, 297600, Note_on_c, 0, 69, 72
2, 297792, Note_on_c, 0, 69, 0
2, 298080, Note_on_c, 0, 71, 72
2, 298272, Note_on_c, 0, 71, 0
2, 298560, Note_on_c, 0, 72, 72
2, 298752, Note_on_c, 0, 72, 0
2, 299520, Note_on_c, 0, 71, 72
2, 299760, Note_on_c, 0, 71, 0
2, 299760, Note_on_c, 0, 72, 72
2, 300000, Note_on_c, 0, 72, 0
2, 300000, Note_on_c, 0, 73, 72
2, 300240, Note_on_c, 0, 73, 0
2, 300240, Note_on_c, 0, 74, 72
2, 300480, Note_on_c, 0, 74, 0
2, 300480, Note_on_c, 0, 75, 72
2, 300720, Note_on_c, 0, 75, 0
2, 300720, Note_on_c, 0, 76, 72
2, 300960, Note_on_c, 0, 76, 0
2, 300960, Note_on_c, 0, 72, 72
2, 301200, Note_on_c, 0, 72, 0
2, 301200, Note_on_c, 0, 69, 72
2, 301392, Note_on_c, 0, 69, 0
2, 301440, Note_on_c, 0, 67, 72
2, 302400, Note_on_c, 0, 67, 0
2, 302400, Note_on_c, 0, 66, 58
2, 302784, Note_on_c, 0, 66, 0
2, 303360, Note_on_c, 0, 74, 98
2, 304320, Note_on_c, 0, 74, 0
2, 304320, Note_on_c, 0, 66, 72
2, 304512, Note_on_c, 0, 66, 0
2, 304800, Note_on_c, 0, 67, 72
2, 304992, Note_on_c, 0, 67, 0
2, 305280, Note_on_c, 0, 69, 72
2, 305472, Note_on_c, 0, 69, 0
2, 305760, Note_on_c, 0, 71, 72
2, 305952, Note_on_c, 0, 71, 0
2, 306240, Note_on_c, 0, 72, 72
2, 306432, Note_on_c, 0, 72, 0
2, 307200, Note_on_c, 0, 71, 72
2, 307680, Note_on_c, 0, 71, 0
2, 307680, Note_on_c, 0, 79, 72
2, 308640, Note_on_c, 0, 79, 0
2, 308640, Note_on_c, 0, 73, 72
2, 309024, Note_on_c, 0, 73, 0
2, 309120, Note_on_c, 0, 76, 72
2, 310080, Note_on_c, 0, 76, 0
2, 310080, Note_on_c, 0, 74, 30
2, 310464, Note_on_c, 0, 74, 0
2, 311040, Note_on_c, 0, 76, 72
2, 311280, Note_on_c, 0, 76, 0
2, 311280, Note_on_c, 0, 74, 72
2, 311436, Note_on_c, 0, 74, 0
2, 311520, Note_on_c, 0, 72, 72
2, 311676, Note_on_c, 0, 72, 0
2, 311760, Note_on_c, 0, 71, 72
2, 311916, Note_on_c, 0, 71, 0
2, 312000, Note_on_c, 0, 69, 72
2, 312312, Note_on_c, 0, 69, 0
2, 312480, Note_on_c, 0, 69, 72
2, 312792, Note_on_c, 0, 69, 0
2, 312960, Note_on_c, 0, 72, 72
2, 313200, Note_on_c, 0, 72, 0
2, 313200, Note_on_c, 0, 71, 72
2, 313356, Note_on_c, 0, 71, 0
2, 313440, Note_on_c, 0, 69, 72
2, 313596, Note_on_c, 0, 69, 0
2, 313680, Note_on_c, 0, 67, 72
2, 313836, Note_on_c, 0, 67, 0
2, 313920, Note_on_c, 0, 66, 72
2, 314232, Note_on_c, 0, 66, 0
2, 314880, Note_on_c, 0, 76, 72
2, 315120, Note_on_c, 0, 76, 0
2, 315120, Note_on_c, 0, 74, 72
2, 315276, Note_on_c, 0, 74, 0
2, 315360, Note_on_c, 0, 72, 72
2, 315516, Note_on_c, 0, 72, 0
2, 315600, Note_on_c, 0, 71, 72
2, 315756, Note_on_c, 0, 71, 0
2, 315840, Note_on_c, 0, 69, 72
2, 315996, Note_on_c, 0, 69, 0
2, 316080, Note_on_c, 0, 69, 72
2, 316236, Note_on_c, 0, 69, 0
2, 316320, Note_on_c, 0, 69, 72
2, 316476, Note_on_c, 0, 69, 0
2, 316560, Note_on_c, 0, 69, 72
2, 316716, Note_on_c, 0, 69, 0
2, 316800, Note_on_c, 0, 72, 72
2, 317040, Note_on_c, 0, 72, 0
2, 317040, Note_on_c, 0, 71, 72
2, 317232, Note_on_c, 0, 71, 0
2, 317280, Note_on_c, 0, 69, 72
2, 317472, Note_on_c, 0, 69, 0
2, 317520, Note_on_c, 0, 67, 72
2, 317712, Note_on_c, 0, 67, 0
2, 317760, Note_on_c, 0, 66, 72
2, 318000, Note_on_c, 0, 66, 0
2, 318000, Note_on_c, 0, 69, 72
2, 318240, Note_on_c, 0, 69, 0
2, 318240, Note_on_c, 0, 66, 72
2, 318480, Note_on_c, 0, 66, 0
2, 318480, Note_on_c, 0, 69, 72
2, 318672, Note_on_c, 0, 69, 0
2, 318720, Note_on_c, 0, 72, 72
2, 318960, Note_on_c, 0, 72, 0
2, 318960, Note_on_c, 0, 70, 72
2, 319152, Note_on_c, 0, 70, 0
2, 319200, Note_on_c, 0, 69, 72
2, 319392, Note_on_c, 0, 69, 0
2, 319440, Note_on_c, 0, 67, 72
2, 319632, Note_on_c, 0, 67, 0
2, 319680, Note_on_c, 0, 66, 72
2, 319920, Note_on_c, 0, 66, 0
2, 319920, Note_on_c, 0, 69, 72
2, 320160, Note_on_c, 0, 69, 0
2, 320160, Note_on_c, 0, 66, 72
2, 320400, Note_on_c, 0, 66, 0
2, 320400, Note_on_c, 0, 69, 72
2, 320592, Note_on_c, 0, 69, 0
2, 320640, Note_on_c, 0, 72, 72
2, 320880, Note_on_c, 0, 72, 0
2, 320880, Note_on_c, 0, 70, 72
2, 321072, Note_on_c, 0, 70, 0
2, 321120, Note_on_c, 0, 69, 72
2, 321312, Note_on_c, 0, 69, 0
2, 321360, Note_on_c, 0, 67, 72
2, 321552, Note_on_c, 0, 67, 0
2, 321600, Note_on_c, 0, 66, 72
2, 321744, Note_on_c, 0, 66, 0
2, 321840, Note_on_c, 0, 81, 72
2, 322080, Note_on_c, 0, 81, 0
2, 322080, Note_on_c, 0, 78, 72
2, 322320, Note_on_c, 0, 78, 0
2, 322320, Note_on_c, 0, 81, 72
2, 322512, Note_on_c, 0, 81, 0
2, 322560, Note_on_c, 0, 84, 72
2, 322800, Note_on_c, 0, 84, 0
2, 322800, Note_on_c, 0, 81, 72
2, 323040, Note_on_c, 0, 81, 0
2, 323040, Note_on_c, 0, 84, 72
2, 323280, Note_on_c, 0, 84, 0
2, 323280, Note_on_c, 0, 81, 72
2, 323520, Note_on_c, 0, 81, 0
2, 323520, Note_on_c, 0, 84, 72
2, 323760, Note_on_c, 0, 84, 0
2, 323760, Note_on_c, 0, 81, 72
2, 324000, Note_on_c, 0, 81, 0
2, 324000, Note_on_c, 0, 84, 72
2, 324240, Note_on_c, 0, 84, 0
2, 324240, Note_on_c, 0, 81, 72
2, 324480, Note_on_c, 0, 81, 0
2, 324480, Note_on_c, 0, 84, 58
2, 324864, Note_on_c, 0, 84, 0
2, 325680, Note_on_c, 0, 74, 72
2, 325824, Note_on_c, 0, 74, 0
2, 325920, Note_on_c, 0, 79, 72
2, 326064, Note_on_c, 0, 79, 0
2, 326160, Note_on_c, 0, 83, 72
2, 326304, Note_on_c, 0, 83, 0
2, 326400, Note_on_c, 0, 86, 72
2, 326688, Note_on_c, 0, 86, 0
2, 326880, Note_on_c, 0, 86, 72
2, 327168, Note_on_c, 0, 86, 0
2, 327360, Note_on_c, 0, 86, 72
2, 327648, Note_on_c, 0, 86, 0
2, 327840, Note_on_c, 0, 86, 72
2, 328128, Note_on_c, 0, 86, 0
2, 328320, Note_on_c, 0, 78, 72
2, 328608, Note_on_c, 0, 78, 0
2, 328800, Note_on_c, 0, 78, 72
2, 329088, Note_on_c, 0, 78, 0
2, 329280, Note_on_c, 0, 79, 72
2, 329568, Note_on_c, 0, 79, 0
2, 329760, Note_on_c, 0, 79, 72
2, 329840, Note_on_c, 0, 79, 0
2, 329840, Note_on_c, 0, 81, 72
2, 329920, Note_on_c, 0, 81, 0
2, 329920, Note_on_c, 0, 79, 72
2, 330000, Note_on_c, 0, 79, 0
2, 330000, Note_on_c, 0, 78, 72
2, 330120, Note_on_c, 0, 78, 0
2, 330120, Note_on_c, 0, 79, 72
2, 330240, Note_on_c, 0, 79, 0
2, 330240, Note_on_c, 0, 84, 72
2, 330528, Note_on_c, 0, 84, 0
2, 330720, Note_on_c, 0, 84, 72
2, 331008, Note_on_c, 0, 84, 0
2, 331200, Note_on_c, 0, 83, 72
2, 331488, Note_on_c, 0, 83, 0
2, 331680, Note_on_c, 0, 83, 72
2, 331968, Note_on_c, 0, 83, 0
2, 332160, Note_on_c, 0, 81, 72
2, 332544, Note_on_c, 0, 81, 0
2, 333360, Note_on_c, 0, 62, 72
2, 333516, Note_on_c, 0, 62, 0
2, 333600, Note_on_c, 0, 67, 72
2, 333756, Note_on_c, 0, 67, 0
2, 333840, Note_on_c, 0, 71, 72
2, 333996, Note_on_c, 0, 71, 0
2, 334080, Note_on_c, 0, 74, 72
2, 334368, Note_on_c, 0, 74, 0
2, 334560, Note_on_c, 0, 74, 72
2, 334848, Note_on_c, 0, 74, 0
2, 335040, Note_on_c, 0, 74, 72
2, 335328, Note_on_c, 0, 74, 0
2, 335520, Note_on_c, 0, 74, 72
2, 335808, Note_on_c, 0, 74, 0
2, 336000, Note_on_c, 0, 66, 72
2, 336288, Note_on_c, 0, 66, 0
2, 336480, Note_on_c, 0, 66, 72
2, 336560, Note_on_c, 0, 66, 0
2, 336560, Note_on_c, 0, 67, 72
2, 336640, Note_on_c, 0, 67, 0
2, 336640, Note_on_c, 0, 66, 72
2, 336720, Note_on_c, 0, 66, 0
2, 336720, Note_on_c, 0, 64, 72
2, 336840, Note_on_c, 0, 64, 0
2, 336840, Note_on_c, 0, 66, 72
2, 336960, Note_on_c, 0, 66, 0
2, 336960, Note_on_c, 0, 67, 72
2, 337248, Note_on_c, 0, 67, 0
2, 337440, Note_on_c, 0, 67, 72
2, 337520, Note_on_c, 0, 67, 0
2, 337520, Note_on_c, 0, 69, 72
2, 337600, Note_on_c, 0, 69, 0
2, 337600, Note_on_c, 0, 67, 72
2, 337680, Note_on_c, 0, 67, 0
2, 337680, Note_on_c, 0, 66, 72
2, 337800, Note_on_c, 0, 66, 0
2, 337800, Note_on_c, 0, 67, 72
2, 337920, Note_on_c, 0, 67, 0
2, 337920, Note_on_c, 0, 69, 72
2, 338208, Note_on_c, 0, 69, 0
2, 338400, Note_on_c, 0, 69, 72
2, 338480, Note_on_c, 0, 69, 0
2, 338480, Note_on_c, 0, 71, 72
2, 338560, Note_on_c, 0, 71, 0
2, 338560, Note_on_c, 0, 69, 72
2, 338640, Note_on_c, 0, 69, 0
2, 338640, Note_on_c, 0, 67, 72
2, 338760, Note_on_c, 0, 67, 0
2, 338760, Note_on_c, 0, 69, 72
2, 338880, Note_on_c, 0, 69, 0
2, 338880, Note_on_c, 0, 71, 72
2, 339168, Note_on_c, 0, 71, 0
2, 339360, Note_on_c, 0, 71, 72
2, 339440, Note_on_c, 0, 71, 0
2, 339440, Note_on_c, 0, 72, 72
2, 339520, Note_on_c, 0, 72, 0
2, 339520, Note_on_c, 0, 71, 72
2, 339600, Note_on_c, 0, 71, 0
2, 339600, Note_on_c, 0, 69, 72
2, 339720, Note_on_c, 0, 69, 0
2, 339720, Note_on_c, 0, 71, 72
2, 339840, Note_on_c, 0, 71, 0
2, 339840, Note_on_c, 0, 74, 72
2, 340800, Note_on_c, 0, 74, 0
2, 340800, Note_on_c, 0, 72, 72
2, 340944, Note_on_c, 0, 72, 0
2, 341040, Note_on_c, 0, 64, 72
2, 341184, Note_on_c, 0, 64, 0
2, 341280, Note_on_c, 0, 67, 72
2, 341424, Note_on_c, 0, 67, 0
2, 341520, Note_on_c, 0, 72, 72
2, 341664, Note_on_c, 0, 72, 0
2, 341760, Note_on_c, 0, 76, 72
2, 342048, Note_on_c, 0, 76, 0
2, 342240, Note_on_c, 0, 76, 72
2, 342528, Note_on_c, 0, 76, 0
2, 342720, Note_on_c, 0, 76, 72
2, 343008, Note_on_c, 0, 76, 0
2, 343200, Note_on_c, 0, 76, 72
2, 343488, Note_on_c, 0, 76, 0
2, 343680, Note_on_c, 0, 66, 72
2, 343968, Note_on_c, 0, 66, 0
2, 344160, Note_on_c, 0, 66, 72
2, 344240, Note_on_c, 0, 66, 0
2, 344240, Note_on_c, 0, 67, 72
2, 344320, Note_on_c, 0, 67, 0
2, 344320, Note_on_c, 0, 66, 72
2, 344400, Note_on_c, 0, 66, 0
2, 344400, Note_on_c, 0, 64, 72
2, 344520, Note_on_c, 0, 64, 0
2, 344520, Note_on_c, 0, 66, 72
2, 344640, Note_on_c, 0, 66, 0
2, 344640, Note_on_c, 0, 67, 72
2, 344928, Note_on_c, 0, 67, 0
2, 345120, Note_on_c, 0, 67, 72
2, 345200, Note_on_c, 0, 67, 0
2, 345200, Note_on_c, 0, 69, 72
2, 345280, Note_on_c, 0, 69, 0
2, 345280, Note_on_c, 0, 67, 72
2, 345360, Note_on_c, 0, 67, 0
2, 345360, Note_on_c, 0, 66, 72
2, 345480, Note_on_c, 0, 66, 0
2, 345480, Note_on_c, 0, 67, 72
2, 345600, Note_on_c, 0, 67, 0
2, 345600, Note_on_c, 0, 72, 72
2, 345888, Note_on_c, 0, 72, 0
2, 346080, Note_on_c, 0, 72, 72
2, 346368, Note_on_c, 0, 72, 0
2, 346560, Note_on_c, 0, 69, 72
2, 346848, Note_on_c, 0, 69, 0
2, 347040, Note_on_c, 0, 69, 72
2, 347328, Note_on_c, 0, 69, 0
2, 347520, Note_on_c, 0, 74, 72
2, 348720, Note_on_c, 0, 74, 0
2, 348720, Note_on_c, 0, 76, 72
2, 348960, Note_on_c, 0, 76, 0
2, 348960, Note_on_c, 0, 72, 72
2, 349200, Note_on_c, 0, 72, 0
2, 349200, Note_on_c, 0, 74, 72
2, 349392, Note_on_c, 0, 74, 0
2, 349440, Note_on_c, 0, 71, 72
2, 350640, Note_on_c, 0, 71, 0
2, 350640, Note_on_c, 0, 72, 72
2, 350880, Note_on_c, 0, 72, 0
2, 350880, Note_on_c, 0, 69, 72
2, 351120, Note_on_c, 0, 69, 0
2, 351120, Note_on_c, 0, 71, 72
2, 351312, Note_on_c, 0, 71, 0
2, 351360, Note_on_c, 0, 67, 72
2, 352560, Note_on_c, 0, 67, 0
2, 352560, Note_on_c, 0, 69, 72
2, 352800, Note_on_c, 0, 69, 0
2, 352800, Note_on_c, 0, 66, 72
2, 353040, Note_on_c, 0, 66, 0
2, 353040, Note_on_c, 0, 62, 72
2, 353232, Note_on_c, 0, 62, 0
2, 353280, Note_on_c, 0, 74, 92
2, 353520, Note_on_c, 0, 74, 0
2, 353520, Note_on_c, 0, 76, 116
2, 353676, Note_on_c, 0, 76, 0
2, 353760, Note_on_c, 0, 78, 116
2, 353916, Note_on_c, 0, 78, 0
2, 354000, Note_on_c, 0, 79, 116
2, 354156, Note_on_c, 0, 79, 0
2, 354240, Note_on_c, 0, 78, 116
2, 354480, Note_on_c, 0, 78, 0
2, 354480, Note_on_c, 0, 76, 116
2, 354636, Note_on_c, 0, 76, 0
2, 354720, Note_on_c, 0, 74, 116
2, 354876, Note_on_c, 0, 74, 0
2, 354960, Note_on_c, 0, 72, 116
2, 355116, Note_on_c, 0, 72, 0
2, 355200, Note_on_c, 0, 71, 116
2, 355440, Note_on_c, 0, 71, 0
2, 355440, Note_on_c, 0, 74, 116
2, 355596, Note_on_c, 0, 74, 0
2, 355680, Note_on_c, 0, 79, 116
2, 355836, Note_on_c, 0, 79, 0
2, 355920, Note_on_c, 0, 83, 116
2, 356076, Note_on_c, 0, 83, 0
2, 356160, Note_on_c, 0, 86, 116
2, 356400, Note_on_c, 0, 86, 0
2, 356400, Note_on_c, 0, 84, 116
2, 356556, Note_on_c, 0, 84, 0
2, 356640, Note_on_c, 0, 83, 116
2, 356796, Note_on_c, 0, 83, 0
2, 356880, Note_on_c, 0, 81, 116
2, 357036, Note_on_c, 0, 81, 0
2, 357120, Note_on_c, 0, 81, 116
2, 357360, Note_on_c, 0, 81, 0
2, 357360, Note_on_c, 0, 79, 116
2, 357516, Note_on_c, 0, 79, 0
2, 357600, Note_on_c, 0, 79, 116
2, 357756, Note_on_c, 0, 79, 0
2, 357840, Note_on_c, 0, 79, 116
2, 357996, Note_on_c, 0, 79, 0
2, 358080, Note_on_c, 0, 79, 116
2, 358320, Note_on_c, 0, 79, 0
2, 358320, Note_on_c, 0, 83, 116
2, 358476, Note_on_c, 0, 83, 0
2, 358560, Note_on_c, 0, 81, 116
2, 358716, Note_on_c, 0, 81, 0
2, 358800, Note_on_c, 0, 78, 116
2, 358956, Note_on_c, 0, 78, 0
2, 359040, Note_on_c, 0, 79, 105
2, 359424, Note_on_c, 0, 79, 0
2, 360240, Note_on_c, 0, 62, 72
2, 360384, Note_on_c, 0, 62, 0
2, 360480, Note_on_c, 0, 67, 72
2, 360624, Note_on_c, 0, 67, 0
2, 360720, Note_on_c, 0, 71, 72
2, 360864, Note_on_c, 0, 71, 0
2, 360960, Note_on_c, 0, 74, 72
2, 361248, Note_on_c, 0, 74, 0
2, 361440, Note_on_c, 0, 74, 72
2, 361728, Note_on_c, 0, 74, 0
2, 361920, Note_on_c, 0, 74, 72
2, 362208, Note_on_c, 0, 74, 0
2, 362400, Note_on_c, 0, 74, 72
2, 362688, Note_on_c, 0, 74, 0
2, 362880, Note_on_c, 0, 64, 72
2, 363264, Note_on_c, 0, 64, 0
2, 364080, Note_on_c, 0, 64, 72
2, 364224, Note_on_c, 0, 64, 0
2, 364320, Note_on_c, 0, 67, 72
2, 364464, Note_on_c, 0, 67, 0
2, 364560, Note_on_c, 0, 72, 72
2, 364704, Note_on_c, 0, 72, 0
2, 364800, Note_on_c, 0, 76, 72
2, 365088, Note_on_c, 0, 76, 0
2, 365280, Note_on_c, 0, 76, 72
2, 365568, Note_on_c, 0, 76, 0
2, 365760, Note_on_c, 0, 76, 72
2, 366048, Note_on_c, 0, 76, 0
2, 366240, Note_on_c, 0, 76, 72
2, 366528, Note_on_c, 0, 76, 0
2, 366720, Note_on_c, 0, 65, 72
2, 367104, Note_on_c, 0, 65, 0
2, 367920, Note_on_c, 0, 65, 72
2, 368112, Note_on_c, 0, 65, 0
2, 368160, Note_on_c, 0, 71, 72
2, 368352, Note_on_c, 0, 71, 0
2, 368400, Note_on_c, 0, 74, 72
2, 368592, Note_on_c, 0, 74, 0
2, 368640, Note_on_c, 0, 77, 72
2, 368928, Note_on_c, 0, 77, 0
2, 369120, Note_on_c, 0, 77, 72
2, 369408, Note_on_c, 0, 77, 0
2, 369600, Note_on_c, 0, 77, 72
2, 369888, Note_on_c, 0, 77, 0
2, 370080, Note_on_c, 0, 77, 72
2, 370368, Note_on_c, 0, 77, 0
2, 370560, Note_on_c, 0, 67, 58
2, 370944, Note_on_c, 0, 67, 0
2, 371760, Note_on_c, 0, 55, 105
2, 371904, Note_on_c, 0, 55, 0
2, 372000, Note_on_c, 0, 59, 105
2, 372144, Note_on_c, 0, 59, 0
2, 372240, Note_on_c, 0, 62, 105
2, 372384, Note_on_c, 0, 62, 0
2, 372480, Note_on_c, 0, 65, 105
2, 372768, Note_on_c, 0, 65, 0
2, 372960, Note_on_c, 0, 65, 105
2, 373248, Note_on_c, 0, 65, 0
2, 373440, Note_on_c, 0, 65, 105
2, 373728, Note_on_c, 0, 65, 0
2, 373920, Note_on_c, 0, 65, 105
2, 374208, Note_on_c, 0, 65, 0
2, 374400, Note_on_c, 0, 56, 105
2, 374784, Note_on_c, 0, 56, 0
2, 375600, Note_on_c, 0, 64, 72
2, 375744, Note_on_c, 0, 64, 0
2, 375840, Note_on_c, 0, 68, 72
2, 375984, Note_on_c, 0, 68, 0
2, 376080, Note_on_c, 0, 71, 72
2, 376224, Note_on_c, 0, 71, 0
2, 376320, Note_on_c, 0, 76, 72
2, 376608, Note_on_c, 0, 76, 0
2, 376800, Note_on_c, 0, 76, 72
2, 377088, Note_on_c, 0, 76, 0
2, 377280, Note_on_c, 0, 76, 72
2, 377760, Note_on_c, 0, 76, 0
2, 377760, Note_on_c, 0, 81, 72
2, 377952, Note_on_c, 0, 81, 0
2, 378240, Note_on_c, 0, 74, 72
2, 378528, Note_on_c, 0, 74, 0
2, 378720, Note_on_c, 0, 74, 72
2, 379008, Note_on_c, 0, 74, 0
2, 379200, Note_on_c, 0, 74, 72
2, 379680, Note_on_c, 0, 74, 0
2, 379680, Note_on_c, 0, 79, 72
2, 379872, Note_on_c, 0, 79, 0
2, 380160, Note_on_c, 0, 72, 72
2, 380448, Note_on_c, 0, 72, 0
2, 380640, Note_on_c, 0, 72, 72
2, 380928, Note_on_c, 0, 72, 0
2, 381120, Note_on_c, 0, 72, 72
2, 381408, Note_on_c, 0, 72, 0
2, 381600, Note_on_c, 0, 72, 72
2, 381888, Note_on_c, 0, 72, 0
2, 382080, Note_on_c, 0, 72, 72
2, 382464, Note_on_c, 0, 72, 0
2, 383280, Note_on_c, 0, 62, 105
2, 383424, Note_on_c, 0, 62, 0
2, 383520, Note_on_c, 0, 66, 105
2, 383664, Note_on_c, 0, 66, 0
2, 383760, Note_on_c, 0, 69, 105
2, 383904, Note_on_c, 0, 69, 0
2, 384000, Note_on_c, 0, 72, 105
2, 384288, Note_on_c, 0, 72, 0
2, 384480, Note_on_c, 0, 72, 105
2, 384768, Note_on_c, 0, 72, 0
2, 384960, Note_on_c, 0, 72, 105
2, 385248, Note_on_c, 0, 72, 0
2, 385440, Note_on_c, 0, 72, 105
2, 385728, Note_on_c, 0, 72, 0
2, 385920, Note_on_c, 0, 62, 105
2, 386304, Note_on_c, 0, 62, 0
2, 387120, Note_on_c, 0, 74, 72
2, 387312, Note_on_c, 0, 74, 0
2, 387360, Note_on_c, 0, 78, 72
2, 387552, Note_on_c, 0, 78, 0
2, 387600, Note_on_c, 0, 83, 72
2, 387792, Note_on_c, 0, 83, 0
2, 387840, Note_on_c, 0, 86, 72
2, 388128, Note_on_c, 0, 86, 0
2, 388320, Note_on_c, 0, 86, 72
2, 388608, Note_on_c, 0, 86, 0
2, 388800, Note_on_c, 0, 86, 72
2, 389088, Note_on_c, 0, 86, 0
2, 389280, Note_on_c, 0, 86, 72
2, 389568, Note_on_c, 0, 86, 0
2, 389760, Note_on_c, 0, 78, 72
2, 390048, Note_on_c, 0, 78, 0
2, 390240, Note_on_c, 0, 78, 72
2, 390528, Note_on_c, 0, 78, 0
2, 390720, Note_on_c, 0, 79, 72
2, 391008, Note_on_c, 0, 79, 0
2, 391200, Note_on_c, 0, 79, 72
2, 391280, Note_on_c, 0, 79, 0
2, 391280, Note_on_c, 0, 81, 72
2, 391360, Note_on_c, 0, 81, 0
2, 391360, Note_on_c, 0, 79, 72
2, 391440, Note_on_c, 0, 79, 0
2, 391440, Note_on_c, 0, 78, 72
2, 391560, Note_on_c, 0, 78, 0
2, 391560, Note_on_c, 0, 79, 72
2, 391680, Note_on_c, 0, 79, 0
2, 391680, Note_on_c, 0, 84, 72
2, 391968, Note_on_c, 0, 84, 0
2, 392160, Note_on_c, 0, 84, 72
2, 392448, Note_on_c, 0, 84, 0
2, 392640, Note_on_c, 0, 83, 72
2, 392928, Note_on_c, 0, 83, 0
2, 393120, Note_on_c, 0, 83, 72
2, 393408, Note_on_c, 0, 83, 0
2, 393600, Note_on_c, 0, 81, 72
2, 393984, Note_on_c, 0, 81, 0
2, 394800, Note_on_c, 0, 74, 72
2, 394944, Note_on_c, 0, 74, 0
2, 395040, Note_on_c, 0, 79, 72
2, 395184, Note_on_c, 0, 79, 0
2, 395280, Note_on_c, 0, 83, 72
2, 395424, Note_on_c, 0, 83, 0
2, 395520, Note_on_c, 0, 86, 72
2, 395808, Note_on_c, 0, 86, 0
2, 396000, Note_on_c, 0, 86, 72
2, 396288, Note_on_c, 0, 86, 0
2, 396480, Note_on_c, 0, 86, 72
2, 396768, Note_on_c, 0, 86, 0
2, 396960, Note_on_c, 0, 86, 72
2, 397248, Note_on_c, 0, 86, 0
2, 397440, Note_on_c, 0, 78, 72
2, 397728, Note_on_c, 0, 78, 0
2, 397920, Note_on_c, 0, 78, 72
2, 398000, Note_on_c, 0, 78, 0
2, 398000, Note_on_c, 0, 79, 72
2, 398080, Note_on_c, 0, 79, 0
2, 398080, Note_on_c, 0, 78, 72
2, 398160, Note_on_c, 0, 78, 0
2, 398160, Note_on_c, 0, 76, 72
2, 398280, Note_on_c, 0, 76, 0
2, 398280, Note_on_c, 0, 78, 72
2, 398400, Note_on_c, 0, 78, 0
2, 398400, Note_on_c, 0, 79, 72
2, 398688, Note_on_c, 0, 79, 0
2, 398880, Note_on_c, 0, 79, 72
2, 398960, Note_on_c, 0, 79, 0
2, 398960, Note_on_c, 0, 81, 72
2, 399040, Note_on_c, 0, 81, 0
2, 399040, Note_on_c, 0, 79, 72
2, 399120, Note_on_c, 0, 79, 0
2, 399120, Note_on_c, 0, 78, 72
2, 399240, Note_on_c, 0, 78, 0
2, 399240, Note_on_c, 0, 79, 72
2, 399360, Note_on_c, 0, 79, 0
2, 399360, Note_on_c, 0, 81, 72
2, 399648, Note_on_c, 0, 81, 0
2, 399840, Note_on_c, 0, 81, 72
2, 400128, Note_on_c, 0, 81, 0
2, 400320, Note_on_c, 0, 74, 72
2, 400608, Note_on_c, 0, 74, 0
2, 400800, Note_on_c, 0, 76, 72
2, 401040, Note_on_c, 0, 76, 0
2, 401040, Note_on_c, 0, 78, 72
2, 401232, Note_on_c, 0, 78, 0
2, 401280, Note_on_c, 0, 79, 72
2, 401520, Note_on_c, 0, 79, 0
2, 401520, Note_on_c, 0, 78, 72
2, 401760, Note_on_c, 0, 78, 0
2, 401760, Note_on_c, 0, 79, 72
2, 402000, Note_on_c, 0, 79, 0
2, 402000, Note_on_c, 0, 83, 72
2, 402240, Note_on_c, 0, 83, 0
2, 402240, Note_on_c, 0, 81, 72
2, 402480, Note_on_c, 0, 81, 0
2, 402480, Note_on_c, 0, 79, 72
2, 402720, Note_on_c, 0, 79, 0
2, 402720, Note_on_c, 0, 78, 72
2, 402960, Note_on_c, 0, 78, 0
2, 402960, Note_on_c, 0, 76, 72
2, 403152, Note_on_c, 0, 76, 0
2, 403200, Note_on_c, 0, 74, 72
2, 403440, Note_on_c, 0, 74, 0
2, 403440, Note_on_c, 0, 76, 72
2, 403680, Note_on_c, 0, 76, 0
2, 403680, Note_on_c, 0, 78, 72
2, 403920, Note_on_c, 0, 78, 0
2, 403920, Note_on_c, 0, 79, 72
2, 404160, Note_on_c, 0, 79, 0
2, 404160, Note_on_c, 0, 81, 72
2, 404400, Note_on_c, 0, 81, 0
2, 404400, Note_on_c, 0, 83, 72
2, 404640, Note_on_c, 0, 83, 0
2, 404640, Note_on_c, 0, 84, 72
2, 404880, Note_on_c, 0, 84, 0
2, 404880, Note_on_c, 0, 78, 72
2, 405072, Note_on_c, 0, 78, 0
2, 405120, Note_on_c, 0, 81, 72
2, 405180, Note_on_c, 0, 81, 0
2, 405180, Note_on_c, 0, 79, 72
2, 405240, Note_on_c, 0, 79, 0
2, 405240, Note_on_c, 0, 81, 72
2, 405300, Note_on_c, 0, 81, 0
2, 405300, Note_on_c, 0, 79, 72
2, 405360, Note_on_c, 0, 79, 0
2, 405360, Note_on_c, 0, 78, 72
2, 405600, Note_on_c, 0, 78, 0
2, 405600, Note_on_c, 0, 79, 72
2, 405840, Note_on_c, 0, 79, 0
2, 405840, Note_on_c, 0, 83, 72
2, 406080, Note_on_c, 0, 83, 0
2, 406080, Note_on_c, 0, 81, 72
2, 406320, Note_on_c, 0, 81, 0
2, 406320, Note_on_c, 0, 79, 72
2, 406560, Note_on_c, 0, 79, 0
2, 406560, Note_on_c, 0, 78, 72
2, 406800, Note_on_c, 0, 78, 0
2, 406800, Note_on_c, 0, 76, 72
2, 406992, Note_on_c, 0, 76, 0
2, 407040, Note_on_c, 0, 74, 72
2, 407280, Note_on_c, 0, 74, 0
2, 407280, Note_on_c, 0, 76, 72
2, 407520, Note_on_c, 0, 76, 0
2, 407520, Note_on_c, 0, 78, 72
2, 407760, Note_on_c, 0, 78, 0
2, 407760, Note_on_c, 0, 79, 72
2, 408000, Note_on_c, 0, 79, 0
2, 408000, Note_on_c, 0, 81, 72
2, 408240, Note_on_c, 0, 81, 0
2, 408240, Note_on_c, 0, 83, 72
2, 408480, Note_on_c, 0, 83, 0
2, 408480, Note_on_c, 0, 84, 72
2, 408720, Note_on_c, 0, 84, 0
2, 408720, Note_on_c, 0, 78, 72
2, 408912, Note_on_c, 0, 78, 0
2, 408960, Note_on_c, 0, 81, 72
2, 409020, Note_on_c, 0, 81, 0
2, 409020, Note_on_c, 0, 79, 72
2, 409080, Note_on_c, 0, 79, 0
2, 409080, Note_on_c, 0, 81, 72
2, 409140, Note_on_c, 0, 81, 0
2, 409140, Note_on_c, 0, 79, 72
2, 409200, Note_on_c, 0, 79, 0
2, 409200, Note_on_c, 0, 78, 72
2, 409440, Note_on_c, 0, 78, 0
2, 409440, Note_on_c, 0, 79, 72
2, 409680, Note_on_c, 0, 79, 0
2, 409680, Note_on_c, 0, 83, 72
2, 409920, Note_on_c, 0, 83, 0
2, 409920, Note_on_c, 0, 81, 72
2, 410160, Note_on_c, 0, 81, 0
2, 410160, Note_on_c, 0, 79, 72
2, 410400, Note_on_c, 0, 79, 0
2, 410400, Note_on_c, 0, 78, 72
2, 410640, Note_on_c, 0, 78, 0
2, 410640, Note_on_c, 0, 76, 72
2, 410832, Note_on_c, 0, 76, 0
2, 410880, Note_on_c, 0, 74, 72
2, 411120, Note_on_c, 0, 74, 0
2, 411120, Note_on_c, 0, 76, 72
2, 411360, Note_on_c, 0, 76, 0
2, 411360, Note_on_c, 0, 78, 72
2, 411600, Note_on_c, 0, 78, 0
2, 411600, Note_on_c, 0, 79, 72
2, 411840, Note_on_c, 0, 79, 0
2, 411840, Note_on_c, 0, 81, 72
2, 412080, Note_on_c, 0, 81, 0
2, 412080, Note_on_c, 0, 83, 72
2, 412320, Note_on_c, 0, 83, 0
2, 412320, Note_on_c, 0, 84, 72
2, 412560, Note_on_c, 0, 84, 0
2, 412560, Note_on_c, 0, 78, 72
2, 412752, Note_on_c, 0, 78, 0
2, 412800, Note_on_c, 0, 81, 72
2, 413040, Note_on_c, 0, 81, 0
2, 413040, Note_on_c, 0, 79, 72
2, 413280, Note_on_c, 0, 79, 0
2, 413280, Note_on_c, 0, 78, 72
2, 413520, Note_on_c, 0, 78, 0
2, 413520, Note_on_c, 0, 79, 72
2, 413760, Note_on_c, 0, 79, 0
2, 413760, Note_on_c, 0, 78, 72
2, 414000, Note_on_c, 0, 78, 0
2, 414000, Note_on_c, 0, 76, 72
2, 414240, Note_on_c, 0, 76, 0
2, 414240, Note_on_c, 0, 74, 72
2, 414480, Note_on_c, 0, 74, 0
2, 414480, Note_on_c, 0, 72, 72
2, 414672, Note_on_c, 0, 72, 0
2, 414720, Note_on_c, 0, 71, 72
2, 414960, Note_on_c, 0, 71, 0
2, 414960, Note_on_c, 0, 72, 72
2, 415200, Note_on_c, 0, 72, 0
2, 415200, Note_on_c, 0, 73, 72
2, 415440, Note_on_c, 0, 73, 0
2, 415440, Note_on_c, 0, 74, 72
2, 415632, Note_on_c, 0, 74, 0
2, 415680, Note_on_c, 0, 74, 72
2, 415920, Note_on_c, 0, 74, 0
2, 415920, Note_on_c, 0, 72, 72
2, 416160, Note_on_c, 0, 72, 0
2, 416160, Note_on_c, 0, 71, 72
2, 416400, Note_on_c, 0, 71, 0
2, 416400, Note_on_c, 0, 69, 72
2, 416592, Note_on_c, 0, 69, 0
2, 416640, Note_on_c, 0, 67, 72
2, 417096, Note_on_c, 0, 67, 0
2, 417840, Note_on_c, 0, 74, 58
2, 417984, Note_on_c, 0, 74, 0
2, 418080, Note_on_c, 0, 79, 105
2, 418224, Note_on_c, 0, 79, 0
2, 418320, Note_on_c, 0, 83, 105
2, 418464, Note_on_c, 0, 83, 0
2, 418560, Note_on_c, 0, 86, 105
2, 418848, Note_on_c, 0, 86, 0
2, 419040, Note_on_c, 0, 86, 105
2, 419328, Note_on_c, 0, 86, 0
2, 419520, Note_on_c, 0, 86, 105
2, 419808, Note_on_c, 0, 86, 0
2, 420000, Note_on_c, 0, 86, 105
2, 420288, Note_on_c, 0, 86, 0
2, 420480, Note_on_c, 0, 62, 105
2, 420864, Note_on_c, 0, 62, 0
2, 421680, Note_on_c, 0, 74, 105
2, 421824, Note_on_c, 0, 74, 0
2, 421920, Note_on_c, 0, 79, 105
2, 422064, Note_on_c, 0, 79, 0
2, 422160, Note_on_c, 0, 83, 105
2, 422304, Note_on_c, 0, 83, 0
2, 422400, Note_on_c, 0, 86, 105
2, 422688, Note_on_c, 0, 86, 0
2, 422880, Note_on_c, 0, 86, 105
2, 423168, Note_on_c, 0, 86, 0
2, 423360, Note_on_c, 0, 86, 105
2, 423648, Note_on_c, 0, 86, 0
2, 423840, Note_on_c, 0, 86, 105
2, 424128, Note_on_c, 0, 86, 0
2, 424320, Note_on_c, 0, 62, 105
2, 424704, Note_on_c, 0, 62, 0
2, 425520, Note_on_c, 0, 74, 105
2, 425664, Note_on_c, 0, 74, 0
2, 425760, Note_on_c, 0, 79, 105
2, 425904, Note_on_c, 0, 79, 0
2, 426000, Note_on_c, 0, 83, 105
2, 426144, Note_on_c, 0, 83, 0
2, 426240, Note_on_c, 0, 86, 105
2, 426528, Note_on_c, 0, 86, 0
2, 426720, Note_on_c, 0, 86, 105
2, 427008, Note_on_c, 0, 86, 0
2, 427200, Note_on_c, 0, 86, 105
2, 427488, Note_on_c, 0, 86, 0
2, 427680, Note_on_c, 0, 86, 105
2, 427968, Note_on_c, 0, 86, 0
2, 428160, Note_on_c, 0, 86, 105
2, 428400, Note_on_c, 0, 86, 0
2, 428400, Note_on_c, 0, 83, 105
2, 428544, Note_on_c, 0, 83, 0
2, 428640, Note_on_c, 0, 83, 105
2, 428784, Note_on_c, 0, 83, 0
2, 428880, Note_on_c, 0, 83, 105
2, 429024, Note_on_c, 0, 83, 0
2, 429120, Note_on_c, 0, 83, 105
2, 429360, Note_on_c, 0, 83, 0
2, 429360, Note_on_c, 0, 79, 105
2, 429504, Note_on_c, 0, 79, 0
2, 429600, Note_on_c, 0, 79, 105
2, 429744, Note_on_c, 0, 79, 0
2, 429840, Note_on_c, 0, 79, 105
2, 429984, Note_on_c, 0, 79, 0
2, 430080, Note_on_c, 0, 79, 105
2, 430320, Note_on_c, 0, 79, 0
2, 430320, Note_on_c, 0, 76, 105
2, 430464, Note_on_c, 0, 76, 0
2, 430560, Note_on_c, 0, 76, 105
2, 430704, Note_on_c, 0, 76, 0
2, 430800, Note_on_c, 0, 76, 105
2, 430944, Note_on_c, 0, 76, 0
2, 431040, Note_on_c, 0, 74, 105
2, 431280, Note_on_c, 0, 74, 0
2, 431280, Note_on_c, 0, 71, 105
2, 431424, Note_on_c, 0, 71, 0
2, 431520, Note_on_c, 0, 72, 105
2, 431760, Note_on_c, 0, 72, 0
2, 431760, Note_on_c, 0, 69, 105
2, 431904, Note_on_c, 0, 69, 0
2, 432000, Note_on_c, 0, 67, 105
2, 432384, Note_on_c, 0, 67, 0
2, 433200, Note_on_c, 0, 67, 124
2, 433344, Note_on_c, 0, 67, 0
2, 433440, Note_on_c, 0, 71, 124
2, 433584, Note_on_c, 0, 71, 0
2, 433680, Note_on_c, 0, 74, 124
2, 433824, Note_on_c, 0, 74, 0
2, 433920, Note_on_c, 0, 79, 124
2, 434208, Note_on_c, 0, 79, 0
2, 434400, Note_on_c, 0, 79, 124
2, 434688, Note_on_c, 0, 79, 0
2, 434880, Note_on_c, 0, 79, 124
2, 435168, Note_on_c, 0, 79, 0
2, 435360, Note_on_c, 0, 79, 124
2, 435648, Note_on_c, 0, 79, 0
2, 435840, Note_on_c, 0, 55, 124
2, 436224, Note_on_c, 0, 55, 0
2, 437040, Note_on_c, 0, 71, 124
2, 437184, Note_on_c, 0, 71, 0
2, 437280, Note_on_c, 0, 74, 124
2, 437424, Note_on_c, 0, 74, 0
2, 437520, Note_on_c, 0, 79, 124
2, 437664, Note_on_c, 0, 79, 0
2, 437760, Note_on_c, 0, 83, 124
2, 438048, Note_on_c, 0, 83, 0
2, 438240, Note_on_c, 0, 83, 124
2, 438528, Note_on_c, 0, 83, 0
2, 438720, Note_on_c, 0, 83, 124
2, 439008, Note_on_c, 0, 83, 0
2, 439200, Note_on_c, 0, 83, 124
2, 439488, Note_on_c, 0, 83, 0
2, 439680, Note_on_c, 0, 55, 124
2, 440064, Note_on_c, 0, 55, 0
2, 440880, Note_on_c, 0, 74, 124
2, 441024, Note_on_c, 0, 74, 0
2, 441120, Note_on_c, 0, 79, 124
2, 441264, Note_on_c, 0, 79, 0
2, 441360, Note_on_c, 0, 83, 124
2, 441504, Note_on_c, 0, 83, 0
2, 441600, Note_on_c, 0, 86, 124
2, 441888, Note_on_c, 0, 86, 0
2, 442080, Note_on_c, 0, 86, 124
2, 442368, Note_on_c, 0, 86, 0
2, 442560, Note_on_c, 0, 86, 124
2, 442848, Note_on_c, 0, 86, 0
2, 443040, Note_on_c, 0, 86, 124
2, 443328, Note_on_c, 0, 86, 0
2, 443520, Note_on_c, 0, 86, 124
2, 444288, Note_on_c, 0, 86, 0
2, 444480, Note_on_c, 0, 83, 124
2, 444768, Note_on_c, 0, 83, 0
2, 444960, Note_on_c, 0, 79, 124
2, 445248, Note_on_c, 0, 79, 0
2, 445440, Note_on_c, 0, 74, 124
2, 445632, Note_on_c, 0, 74, 0
2, 445680, Note_on_c, 0, 74, 124
2, 445872, Note_on_c, 0, 74, 0
2, 445920, Note_on_c, 0, 79, 124
2, 446112, Note_on_c, 0, 79, 0
2, 446160, Note_on_c, 0, 79, 124
2, 446352, Note_on_c, 0, 79, 0
2, 446400, Note_on_c, 0, 71, 124
2, 446592, Note_on_c, 0, 71, 0
2, 446640, Note_on_c, 0, 71, 124
2, 446832, Note_on_c, 0, 71, 0
2, 446880, Note_on_c, 0, 74, 124
2, 447072, Note_on_c, 0, 74, 0
2, 447120, Note_on_c, 0, 74, 124
2, 447312, Note_on_c, 0, 74, 0
2, 447360, Note_on_c, 0, 67, 127
2, 447792, Note_on_c, 0, 67, 0
2, 448320, Note_on_c, 0, 83, 116
2, 448320, Note_on_c, 0, 74, 116
2, 448320, Note_on_c, 0, 67, 116
2, 448752, Note_on_c, 0, 67, 0
2, 448752, Note_on_c, 0, 74, 0
2, 448752, Note_on_c, 0, 83, 0
2, 449280, Note_on_c, 0, 55, 116
2, 450048, Note_on_c, 0, 55, 0
2, 450048, End_track
3, 0, Start_track
3, 0, Program_c, 1, 48
3, 0, Control_c, 1, 7, 127
3, 0, Control_c, 1, 10, 97
3, 0, Control_c, 1, 91, 85
3, 1920, Note_on_c, 1, 59, 58
3, 2112, Note_on_c, 1, 59, 0
3, 2160, Note_on_c, 1, 59, 58
3, 2352, Note_on_c, 1, 59, 0
3, 2400, Note_on_c, 1, 62, 58
3, 2592, Note_on_c, 1, 62, 0
3, 2640, Note_on_c, 1, 62, 58
3, 2832, Note_on_c, 1, 62, 0
3, 2880, Note_on_c, 1, 67, 58
3, 3072, Note_on_c, 1, 67, 0
3, 3120, Note_on_c, 1, 67, 58
3, 3312, Note_on_c, 1, 67, 0
3, 3360, Note_on_c, 1, 71, 58
3, 3552, Note_on_c, 1, 71, 0
3, 3600, Note_on_c, 1, 71, 58
3, 3792, Note_on_c, 1, 71, 0
3, 3840, Note_on_c, 1, 72, 58
3, 4032, Note_on_c, 1, 72, 0
3, 4080, Note_on_c, 1, 72, 58
3, 4272, Note_on_c, 1, 72, 0
3, 4320, Note_on_c, 1, 72, 58
3, 4512, Note_on_c, 1, 72, 0
3, 4560, Note_on_c, 1, 72, 58
3, 4752, Note_on_c, 1, 72, 0
3, 4800, Note_on_c, 1, 71, 58
3, 4992, Note_on_c, 1, 71, 0
3, 5040, Note_on_c, 1, 71, 58
3, 5232, Note_on_c, 1, 71, 0
3, 5280, Note_on_c, 1, 71, 58
3, 5472, Note_on_c, 1, 71, 0
3, 5520, Note_on_c, 1, 71, 58
3, 5712, Note_on_c, 1, 71, 0
3, 5760, Note_on_c, 1, 69, 58
3, 5952, Note_on_c, 1, 69, 0
3, 6000, Note_on_c, 1, 69, 58
3, 6192, Note_on_c, 1, 69, 0
3, 6240, Note_on_c, 1, 69, 58
3, 6432, Note_on_c, 1, 69, 0
3, 6480, Note_on_c, 1, 69, 58
3, 6672, Note_on_c, 1, 69, 0
3, 6720, Note_on_c, 1, 67, 58
3, 6912, Note_on_c, 1, 67, 0
3, 6960, Note_on_c, 1, 67, 58
3, 7152, Note_on_c, 1, 67, 0
3, 7200, Note_on_c, 1, 67, 58
3, 7392, Note_on_c, 1, 67, 0
3, 7440, Note_on_c, 1, 67, 58
3, 7632, Note_on_c, 1, 67, 0
3, 7680, Note_on_c, 1, 66, 58
3, 7872, Note_on_c, 1, 66, 0
3, 7920, Note_on_c, 1, 71, 58
3, 8112, Note_on_c, 1, 71, 0
3, 8160, Note_on_c, 1, 69, 58
3, 8352, Note_on_c, 1, 69, 0
3, 8400, Note_on_c, 1, 67, 58
3, 8592, Note_on_c, 1, 67, 0
3, 8640, Note_on_c, 1, 66, 58
3, 8832, Note_on_c, 1, 66, 0
3, 8880, Note_on_c, 1, 64, 58
3, 9072, Note_on_c, 1, 64, 0
3, 9120, Note_on_c, 1, 62, 58
3, 9312, Note_on_c, 1, 62, 0
3, 9360, Note_on_c, 1, 60, 58
3, 9552, Note_on_c, 1, 60, 0
3, 9600, Note_on_c, 1, 59, 58
3, 9792, Note_on_c, 1, 59, 0
3, 9840, Note_on_c, 1, 59, 58
3, 10032, Note_on_c, 1, 59, 0
3, 10080, Note_on_c, 1, 62, 58
3, 10272, Note_on_c, 1, 62, 0
3, 10320, Note_on_c, 1, 62, 58
3, 10512, Note_on_c, 1, 62, 0
3, 10560, Note_on_c, 1, 67, 58
3, 10752, Note_on_c, 1, 67, 0
3, 10800, Note_on_c, 1, 67, 58
3, 10992, Note_on_c, 1, 67, 0
3, 11040, Note_on_c, 1, 71, 58
3, 11232, Note_on_c, 1, 71, 0
3, 11280, Note_on_c, 1, 71, 58
3, 11472, Note_on_c, 1, 71, 0
3, 11520, Note_on_c, 1, 72, 58
3, 11712, Note_on_c, 1, 72, 0
3, 11760, Note_on_c, 1, 72, 58
3, 11952, Note_on_c, 1, 72, 0
3, 12000, Note_on_c, 1, 72, 58
3, 12192, Note_on_c, 1, 72, 0
3, 12240, Note_on_c, 1, 72, 58
3, 12432, Note_on_c, 1, 72, 0
3, 12480, Note_on_c, 1, 71, 58
3, 12672, Note_on_c, 1, 71, 0
3, 12720, Note_on_c, 1, 71, 58
3, 12912, Note_on_c, 1, 71, 0
3, 12960, Note_on_c, 1, 71, 58
3, 13152, Note_on_c, 1, 71, 0
3, 13200, Note_on_c, 1, 71, 58
3, 13392, Note_on_c, 1, 71, 0
3, 13440, Note_on_c, 1, 76, 58
3, 13632, Note_on_c, 1, 76, 0
3, 13680, Note_on_c, 1, 76, 58
3, 13872, Note_on_c, 1, 76, 0
3, 13920, Note_on_c, 1, 76, 58
3, 14112, Note_on_c, 1, 76, 0
3, 14160, Note_on_c, 1, 76, 58
3, 14352, Note_on_c, 1, 76, 0
3, 14400, Note_on_c, 1, 72, 58
3, 14592, Note_on_c, 1, 72, 0
3, 14640, Note_on_c, 1, 72, 58
3, 14832, Note_on_c, 1, 72, 0
3, 14880, Note_on_c, 1, 72, 58
3, 15072, Note_on_c, 1, 72, 0
3, 15120, Note_on_c, 1, 72, 58
3, 15312, Note_on_c, 1, 72, 0
3, 15360, Note_on_c, 1, 71, 58
3, 15552, Note_on_c, 1, 71, 0
3, 15600, Note_on_c, 1, 71, 58
3, 15792, Note_on_c, 1, 71, 0
3, 15840, Note_on_c, 1, 69, 58
3, 16032, Note_on_c, 1, 69, 0
3, 16080, Note_on_c, 1, 67, 58
3, 16272, Note_on_c, 1, 67, 0
3, 16320, Note_on_c, 1, 66, 58
3, 16512, Note_on_c, 1, 66, 0
3, 16560, Note_on_c, 1, 64, 58
3, 16752, Note_on_c, 1, 64, 0
3, 16800, Note_on_c, 1, 62, 58
3, 16992, Note_on_c, 1, 62, 0
3, 17040, Note_on_c, 1, 60, 58
3, 17232, Note_on_c, 1, 60, 0
3, 17280, Note_on_c, 1, 59, 58
3, 17472, Note_on_c, 1, 59, 0
3, 17520, Note_on_c, 1, 59, 58
3, 17712, Note_on_c, 1, 59, 0
3, 17760, Note_on_c, 1, 62, 58
3, 17952, Note_on_c, 1, 62, 0
3, 18000, Note_on_c, 1, 62, 58
3, 18192, Note_on_c, 1, 62, 0
3, 18240, Note_on_c, 1, 67, 58
3, 18432, Note_on_c, 1, 67, 0
3, 18480, Note_on_c, 1, 67, 58
3, 18672, Note_on_c, 1, 67, 0
3, 18720, Note_on_c, 1, 71, 58
3, 18912, Note_on_c, 1, 71, 0
3, 18960, Note_on_c, 1, 71, 58
3, 19152, Note_on_c, 1, 71, 0
3, 19200, Note_on_c, 1, 72, 58
3, 19392, Note_on_c, 1, 72, 0
3, 19440, Note_on_c, 1, 72, 58
3, 19632, Note_on_c, 1, 72, 0
3, 19680, Note_on_c, 1, 72, 58
3, 19872, Note_on_c, 1, 72, 0
3, 19920, Note_on_c, 1, 72, 58
3, 20112, Note_on_c, 1, 72, 0
3, 20160, Note_on_c, 1, 71, 58
3, 20352, Note_on_c, 1, 71, 0
3, 20400, Note_on_c, 1, 71, 58
3, 20592, Note_on_c, 1, 71, 0
3, 20640, Note_on_c, 1, 71, 58
3, 20832, Note_on_c, 1, 71, 0
3, 20880, Note_on_c, 1, 71, 58
3, 21072, Note_on_c, 1, 71, 0
3, 21120, Note_on_c, 1, 69, 58
3, 21312, Note_on_c, 1, 69, 0
3, 21360, Note_on_c, 1, 69, 58
3, 21552, Note_on_c, 1, 69, 0
3, 21600, Note_on_c, 1, 69, 58
3, 21792, Note_on_c, 1, 69, 0
3, 21840, Note_on_c, 1, 69, 58
3, 22032, Note_on_c, 1, 69, 0
3, 22080, Note_on_c, 1, 67, 58
3, 22272, Note_on_c, 1, 67, 0
3, 22320, Note_on_c, 1, 67, 58
3, 22512, Note_on_c, 1, 67, 0
3, 22560, Note_on_c, 1, 67, 58
3, 22752, Note_on_c, 1, 67, 0
3, 22800, Note_on_c, 1, 67, 58
3, 22992, Note_on_c, 1, 67, 0
3, 23040, Note_on_c, 1, 66, 58
3, 23232, Note_on_c, 1, 66, 0
3, 23280, Note_on_c, 1, 71, 58
3, 23472, Note_on_c, 1, 71, 0
3, 23520, Note_on_c, 1, 69, 58
3, 23712, Note_on_c, 1, 69, 0
3, 23760, Note_on_c, 1, 67, 58
3, 23952, Note_on_c, 1, 67, 0
3, 24000, Note_on_c, 1, 66, 58
3, 24192, Note_on_c, 1, 66, 0
3, 24240, Note_on_c, 1, 64, 58
3, 24432, Note_on_c, 1, 64, 0
3, 24480, Note_on_c, 1, 62, 58
3, 24672, Note_on_c, 1, 62, 0
3, 24720, Note_on_c, 1, 60, 58
3, 24912, Note_on_c, 1, 60, 0
3, 24960, Note_on_c, 1, 59, 58
3, 25152, Note_on_c, 1, 59, 0
3, 25200, Note_on_c, 1, 59, 58
3, 25392, Note_on_c, 1, 59, 0
3, 25440, Note_on_c, 1, 62, 58
3, 25632, Note_on_c, 1, 62, 0
3, 25680, Note_on_c, 1, 62, 58
3, 25872, Note_on_c, 1, 62, 0
3, 25920, Note_on_c, 1, 67, 58
3, 26112, Note_on_c, 1, 67, 0
3, 26160, Note_on_c, 1, 67, 58
3, 26352, Note_on_c, 1, 67, 0
3, 26400, Note_on_c, 1, 71, 58
3, 26592, Note_on_c, 1, 71, 0
3, 26640, Note_on_c, 1, 71, 58
3, 26832, Note_on_c, 1, 71, 0
3, 26880, Note_on_c, 1, 72, 58
3, 27072, Note_on_c, 1, 72, 0
3, 27120, Note_on_c, 1, 72, 58
3, 27312, Note_on_c, 1, 72, 0
3, 27360, Note_on_c, 1, 72, 58
3, 27552, Note_on_c, 1, 72, 0
3, 27600, Note_on_c, 1, 72, 58
3, 27792, Note_on_c, 1, 72, 0
3, 27840, Note_on_c, 1, 71, 58
3, 28032, Note_on_c, 1, 71, 0
3, 28080, Note_on_c, 1, 71, 58
3, 28272, Note_on_c, 1, 71, 0
3, 28320, Note_on_c, 1, 71, 58
3, 28512, Note_on_c, 1, 71, 0
3, 28560, Note_on_c, 1, 71, 58
3, 28752, Note_on_c, 1, 71, 0
3, 28800, Note_on_c, 1, 76, 58
3, 28992, Note_on_c, 1, 76, 0
3, 29040, Note_on_c, 1, 76, 58
3, 29232, Note_on_c, 1, 76, 0
3, 29280, Note_on_c, 1, 76, 58
3, 29472, Note_on_c, 1, 76, 0
3, 29520, Note_on_c, 1, 76, 58
3, 29712, Note_on_c, 1, 76, 0
3, 29760, Note_on_c, 1, 72, 58
3, 29952, Note_on_c, 1, 72, 0
3, 30000, Note_on_c, 1, 72, 58
3, 30192, Note_on_c, 1, 72, 0
3, 30240, Note_on_c, 1, 72, 58
3, 30432, Note_on_c, 1, 72, 0
3, 30480, Note_on_c, 1, 72, 58
3, 30672, Note_on_c, 1, 72, 0
3, 30720, Note_on_c, 1, 71, 78
3, 31104, Note_on_c, 1, 71, 0
3, 32640, Note_on_c, 1, 79, 105
3, 33792, Note_on_c, 1, 79, 0
3, 33840, Note_on_c, 1, 81, 105
3, 34032, Note_on_c, 1, 81, 0
3, 34080, Note_on_c, 1, 78, 105
3, 34272, Note_on_c, 1, 78, 0
3, 34320, Note_on_c, 1, 74, 105
3, 34512, Note_on_c, 1, 74, 0
3, 34560, Note_on_c, 1, 83, 105
3, 35712, Note_on_c, 1, 83, 0
3, 35760, Note_on_c, 1, 84, 105
3, 35952, Note_on_c, 1, 84, 0
3, 36000, Note_on_c, 1, 81, 105
3, 36192, Note_on_c, 1, 81, 0
3, 36240, Note_on_c, 1, 78, 105
3, 36432, Note_on_c, 1, 78, 0
3, 36480, Note_on_c, 1, 79, 105
3, 37632, Note_on_c, 1, 79, 0
3, 37680, Note_on_c, 1, 81, 105
3, 37872, Note_on_c, 1, 81, 0
3, 37920, Note_on_c, 1, 78, 105
3, 38112, Note_on_c, 1, 78, 0
3, 38160, Note_on_c, 1, 74, 105
3, 38352, Note_on_c, 1, 74, 0
3, 38400, Note_on_c, 1, 83, 105
3, 38688, Note_on_c, 1, 83, 0
3, 38880, Note_on_c, 1, 83, 92
3, 39024, Note_on_c, 1, 83, 0
3, 39120, Note_on_c, 1, 83, 92
3, 39264, Note_on_c, 1, 83, 0
3, 39360, Note_on_c, 1, 83, 92
3, 39600, Note_on_c, 1, 83, 0
3, 39600, Note_on_c, 1, 79, 92
3, 39792, Note_on_c, 1, 79, 0
3, 39840, Note_on_c, 1, 79, 92
3, 40032, Note_on_c, 1, 79, 0
3, 40080, Note_on_c, 1, 79, 92
3, 40272, Note_on_c, 1, 79, 0
3, 40320, Note_on_c, 1, 79, 92
3, 40560, Note_on_c, 1, 79, 0
3, 40560, Note_on_c, 1, 74, 92
3, 40752, Note_on_c, 1, 74, 0
3, 40800, Note_on_c, 1, 74, 92
3, 40992, Note_on_c, 1, 74, 0
3, 41040, Note_on_c, 1, 74, 92
3, 41232, Note_on_c, 1, 74, 0
3, 41280, Note_on_c, 1, 74, 92
3, 41520, Note_on_c, 1, 74, 0
3, 41520, Note_on_c, 1, 71, 92
3, 41712, Note_on_c, 1, 71, 0
3, 41760, Note_on_c, 1, 71, 92
3, 42000, Note_on_c, 1, 71, 0
3, 42000, Note_on_c, 1, 67, 92
3, 42192, Note_on_c, 1, 67, 0
3, 42240, Note_on_c, 1, 74, 92
3, 42528, Note_on_c, 1, 74, 0
3, 42720, Note_on_c, 1, 62, 92
3, 42720, Note_on_c, 1, 78, 92
3, 42720, Note_on_c, 1, 69, 92
3, 43008, Note_on_c, 1, 69, 0
3, 43008, Note_on_c, 1, 78, 0
3, 43008, Note_on_c, 1, 62, 0
3, 43200, Note_on_c, 1, 62, 92
3, 43200, Note_on_c, 1, 79, 92
3, 43200, Note_on_c, 1, 71, 92
3, 43488, Note_on_c, 1, 71, 0
3, 43488, Note_on_c, 1, 79, 0
3, 43488, Note_on_c, 1, 62, 0
3, 43680, Note_on_c, 1, 79, 92
3, 43680, Note_on_c, 1, 71, 92
3, 43680, Note_on_c, 1, 62, 92
3, 43968, Note_on_c, 1, 62, 0
3, 43968, Note_on_c, 1, 71, 0
3, 43968, Note_on_c, 1, 79, 0
3, 44160, Note_on_c, 1, 78, 92
3, 44160, Note_on_c, 1, 62, 92
3, 44160, Note_on_c, 1, 69, 92
3, 44448, Note_on_c, 1, 69, 0
3, 44448, Note_on_c, 1, 62, 0
3, 44448, Note_on_c, 1, 78, 0
3, 44640, Note_on_c, 1, 62, 92
3, 45024, Note_on_c, 1, 62, 0
3, 45120, Note_on_c, 1, 62, 92
3, 45504, Note_on_c, 1, 62, 0
3, 46560, Note_on_c, 1, 66, 98
3, 47040, Note_on_c, 1, 66, 0
3, 47040, Note_on_c, 1, 67, 58
3, 47232, Note_on_c, 1, 67, 0
3, 47520, Note_on_c, 1, 69, 58
3, 47712, Note_on_c, 1, 69, 0
3, 48000, Note_on_c, 1, 71, 58
3, 48192, Note_on_c, 1, 71, 0
3, 48480, Note_on_c, 1, 73, 58
3, 48672, Note_on_c, 1, 73, 0
3, 48960, Note_on_c, 1, 74, 58
3, 49152, Note_on_c, 1, 74, 0
3, 49440, Note_on_c, 1, 76, 58
3, 49632, Note_on_c, 1, 76, 0
3, 49920, Note_on_c, 1, 74, 58
3, 50160, Note_on_c, 1, 74, 0
3, 50160, Note_on_c, 1, 76, 58
3, 50400, Note_on_c, 1, 76, 0
3, 50400, Note_on_c, 1, 77, 58
3, 50640, Note_on_c, 1, 77, 0
3, 50640, Note_on_c, 1, 78, 58
3, 50880, Note_on_c, 1, 78, 0
3, 50880, Note_on_c, 1, 73, 58
3, 51120, Note_on_c, 1, 73, 0
3, 51120, Note_on_c, 1, 74, 58
3, 51360, Note_on_c, 1, 74, 0
3, 51360, Note_on_c, 1, 71, 58
3, 51600, Note_on_c, 1, 71, 0
3, 51600, Note_on_c, 1, 67, 58
3, 51792, Note_on_c, 1, 67, 0
3, 51840, Note_on_c, 1, 66, 58
3, 52800, Note_on_c, 1, 66, 0
3, 52800, Note_on_c, 1, 64, 58
3, 53184, Note_on_c, 1, 64, 0
3, 53760, Note_on_c, 1, 69, 78
3, 54720, Note_on_c, 1, 69, 0
3, 54720, Note_on_c, 1, 61, 58
3, 54912, Note_on_c, 1, 61, 0
3, 55200, Note_on_c, 1, 62, 58
3, 55392, Note_on_c, 1, 62, 0
3, 55680, Note_on_c, 1, 64, 58
3, 55872, Note_on_c, 1, 64, 0
3, 56160, Note_on_c, 1, 66, 58
3, 56352, Note_on_c, 1, 66, 0
3, 56640, Note_on_c, 1, 67, 58
3, 56832, Note_on_c, 1, 67, 0
3, 57600, Note_on_c, 1, 66, 58
3, 58080, Note_on_c, 1, 66, 0
3, 58080, Note_on_c, 1, 78, 58
3, 59040, Note_on_c, 1, 78, 0
3, 59040, Note_on_c, 1, 71, 58
3, 59424, Note_on_c, 1, 71, 0
3, 59520, Note_on_c, 1, 74, 58
3, 60480, Note_on_c, 1, 74, 0
3, 60480, Note_on_c, 1, 73, 58
3, 60864, Note_on_c, 1, 73, 0
3, 63360, Note_on_c, 1, 71, 72
3, 63600, Note_on_c, 1, 71, 0
3, 63600, Note_on_c, 1, 69, 72
3, 63780, Note_on_c, 1, 69, 0
3, 63840, Note_on_c, 1, 67, 72
3, 64020, Note_on_c, 1, 67, 0
3, 64080, Note_on_c, 1, 66, 72
3, 64260, Note_on_c, 1, 66, 0
3, 64320, Note_on_c, 1, 64, 72
3, 64680, Note_on_c, 1, 64, 0
3, 64800, Note_on_c, 1, 64, 72
3, 65160, Note_on_c, 1, 64, 0
3, 65280, Note_on_c, 1, 67, 72
3, 65520, Note_on_c, 1, 67, 0
3, 65520, Note_on_c, 1, 66, 72
3, 65700, Note_on_c, 1, 66, 0
3, 65760, Note_on_c, 1, 64, 72
3, 65940, Note_on_c, 1, 64, 0
3, 66000, Note_on_c, 1, 62, 72
3, 66180, Note_on_c, 1, 62, 0
3, 66240, Note_on_c, 1, 61, 72
3, 66600, Note_on_c, 1, 61, 0
3, 67200, Note_on_c, 1, 71, 72
3, 67440, Note_on_c, 1, 71, 0
3, 67440, Note_on_c, 1, 69, 72
3, 67620, Note_on_c, 1, 69, 0
3, 67680, Note_on_c, 1, 67, 72
3, 67860, Note_on_c, 1, 67, 0
3, 67920, Note_on_c, 1, 66, 72
3, 68100, Note_on_c, 1, 66, 0
3, 68160, Note_on_c, 1, 64, 72
3, 68520, Note_on_c, 1, 64, 0
3, 69120, Note_on_c, 1, 61, 72
3, 69360, Note_on_c, 1, 61, 0
3, 69360, Note_on_c, 1, 62, 72
3, 69552, Note_on_c, 1, 62, 0
3, 69600, Note_on_c, 1, 64, 72
3, 69792, Note_on_c, 1, 64, 0
3, 69840, Note_on_c, 1, 65, 72
3, 70032, Note_on_c, 1, 65, 0
3, 70080, Note_on_c, 1, 67, 72
3, 70464, Note_on_c, 1, 67, 0
3, 71040, Note_on_c, 1, 61, 72
3, 71280, Note_on_c, 1, 61, 0
3, 71280, Note_on_c, 1, 62, 72
3, 71472, Note_on_c, 1, 62, 0
3, 71520, Note_on_c, 1, 64, 72
3, 71712, Note_on_c, 1, 64, 0
3, 71760, Note_on_c, 1, 65, 72
3, 71952, Note_on_c, 1, 65, 0
3, 72000, Note_on_c, 1, 67, 72
3, 72384, Note_on_c, 1, 67, 0
3, 72960, Note_on_c, 1, 76, 58
3, 73200, Note_on_c, 1, 76, 0
3, 73200, Note_on_c, 1, 73, 58
3, 73440, Note_on_c, 1, 73, 0
3, 73440, Note_on_c, 1, 76, 58
3, 73680, Note_on_c, 1, 76, 0
3, 73680, Note_on_c, 1, 73, 58
3, 73920, Note_on_c, 1, 73, 0
3, 73920, Note_on_c, 1, 76, 58
3, 74160, Note_on_c, 1, 76, 0
3, 74160, Note_on_c, 1, 73, 58
3, 74400, Note_on_c, 1, 73, 0
3, 74400, Note_on_c, 1, 76, 58
3, 74640, Note_on_c, 1, 76, 0
3, 74640, Note_on_c, 1, 73, 58
3, 74880, Note_on_c, 1, 73, 0
3, 74880, Note_on_c, 1, 76, 58
3, 75264, Note_on_c, 1, 76, 0
3, 76800, Note_on_c, 1, 66, 58
3, 76992, Note_on_c, 1, 66, 0
3, 77040, Note_on_c, 1, 66, 58
3, 77232, Note_on_c, 1, 66, 0
3, 77280, Note_on_c, 1, 57, 58
3, 77472, Note_on_c, 1, 57, 0
3, 77520, Note_on_c, 1, 57, 58
3, 77712, Note_on_c, 1, 57, 0
3, 77760, Note_on_c, 1, 62, 58
3, 77952, Note_on_c, 1, 62, 0
3, 78000, Note_on_c, 1, 62, 58
3, 78192, Note_on_c, 1, 62, 0
3, 78240, Note_on_c, 1, 66, 58
3, 78432, Note_on_c, 1, 66, 0
3, 78480, Note_on_c, 1, 66, 58
3, 78672, Note_on_c, 1, 66, 0
3, 78720, Note_on_c, 1, 67, 58
3, 78912, Note_on_c, 1, 67, 0
3, 78960, Note_on_c, 1, 67, 58
3, 79152, Note_on_c, 1, 67, 0
3, 79200, Note_on_c, 1, 67, 58
3, 79392, Note_on_c, 1, 67, 0
3, 79440, Note_on_c, 1, 67, 58
3, 79632, Note_on_c, 1, 67, 0
3, 79680, Note_on_c, 1, 66, 58
3, 79872, Note_on_c, 1, 66, 0
3, 79920, Note_on_c, 1, 66, 58
3, 80112, Note_on_c, 1, 66, 0
3, 80160, Note_on_c, 1, 66, 58
3, 80352, Note_on_c, 1, 66, 0
3, 80400, Note_on_c, 1, 66, 58
3, 80592, Note_on_c, 1, 66, 0
3, 80640, Note_on_c, 1, 69, 58
3, 80832, Note_on_c, 1, 69, 0
3, 80880, Note_on_c, 1, 69, 58
3, 81072, Note_on_c, 1, 69, 0
3, 81120, Note_on_c, 1, 69, 58
3, 81312, Note_on_c, 1, 69, 0
3, 81360, Note_on_c, 1, 69, 58
3, 81552, Note_on_c, 1, 69, 0
3, 81600, Note_on_c, 1, 69, 58
3, 81792, Note_on_c, 1, 69, 0
3, 81840, Note_on_c, 1, 69, 58
3, 82032, Note_on_c, 1, 69, 0
3, 82080, Note_on_c, 1, 69, 58
3, 82272, Note_on_c, 1, 69, 0
3, 82320, Note_on_c, 1, 69, 58
3, 82512, Note_on_c, 1, 69, 0
3, 82560, Note_on_c, 1, 69, 58
3, 82716, Note_on_c, 1, 69, 0
3, 82800, Note_on_c, 1, 74, 58
3, 82956, Note_on_c, 1, 74, 0
3, 83040, Note_on_c, 1, 73, 58
3, 83196, Note_on_c, 1, 73, 0
3, 83280, Note_on_c, 1, 71, 58
3, 83436, Note_on_c, 1, 71, 0
3, 83520, Note_on_c, 1, 69, 58
3, 83676, Note_on_c, 1, 69, 0
3, 83760, Note_on_c, 1, 67, 58
3, 83916, Note_on_c, 1, 67, 0
3, 84000, Note_on_c, 1, 66, 58
3, 84156, Note_on_c, 1, 66, 0
3, 84240, Note_on_c, 1, 64, 58
3, 84396, Note_on_c, 1, 64, 0
3, 84480, Note_on_c, 1, 66, 58
3, 84672, Note_on_c, 1, 66, 0
3, 84720, Note_on_c, 1, 66, 58
3, 84912, Note_on_c, 1, 66, 0
3, 84960, Note_on_c, 1, 57, 58
3, 85152, Note_on_c, 1, 57, 0
3, 85200, Note_on_c, 1, 57, 58
3, 85392, Note_on_c, 1, 57, 0
3, 85440, Note_on_c, 1, 62, 58
3, 85632, Note_on_c, 1, 62, 0
3, 85680, Note_on_c, 1, 62, 58
3, 85872, Note_on_c, 1, 62, 0
3, 85920, Note_on_c, 1, 66, 58
3, 86112, Note_on_c, 1, 66, 0
3, 86160, Note_on_c, 1, 66, 58
3, 86352, Note_on_c, 1, 66, 0
3, 86400, Note_on_c, 1, 67, 58
3, 86592, Note_on_c, 1, 67, 0
3, 86640, Note_on_c, 1, 67, 58
3, 86832, Note_on_c, 1, 67, 0
3, 86880, Note_on_c, 1, 67, 58
3, 87072, Note_on_c, 1, 67, 0
3, 87120, Note_on_c, 1, 67, 58
3, 87312, Note_on_c, 1, 67, 0
3, 87360, Note_on_c, 1, 66, 58
3, 87552, Note_on_c, 1, 66, 0
3, 87600, Note_on_c, 1, 66, 58
3, 87792, Note_on_c, 1, 66, 0
3, 87840, Note_on_c, 1, 66, 58
3, 88032, Note_on_c, 1, 66, 0
3, 88080, Note_on_c, 1, 66, 58
3, 88272, Note_on_c, 1, 66, 0
3, 88320, Note_on_c, 1, 71, 58
3, 88512, Note_on_c, 1, 71, 0
3, 88560, Note_on_c, 1, 71, 58
3, 88752, Note_on_c, 1, 71, 0
3, 88800, Note_on_c, 1, 71, 58
3, 88992, Note_on_c, 1, 71, 0
3, 89040, Note_on_c, 1, 71, 58
3, 89232, Note_on_c, 1, 71, 0
3, 89280, Note_on_c, 1, 72, 58
3, 89472, Note_on_c, 1, 72, 0
3, 89520, Note_on_c, 1, 72, 58
3, 89712, Note_on_c, 1, 72, 0
3, 89760, Note_on_c, 1, 72, 58
3, 89952, Note_on_c, 1, 72, 0
3, 90000, Note_on_c, 1, 72, 58
3, 90192, Note_on_c, 1, 72, 0
3, 90240, Note_on_c, 1, 66, 58
3, 91200, Note_on_c, 1, 66, 0
3, 91200, Note_on_c, 1, 67, 58
3, 91584, Note_on_c, 1, 67, 0
3, 92160, Note_on_c, 1, 67, 58
3, 92352, Note_on_c, 1, 67, 0
3, 92400, Note_on_c, 1, 67, 58
3, 92592, Note_on_c, 1, 67, 0
3, 92640, Note_on_c, 1, 66, 58
3, 92832, Note_on_c, 1, 66, 0
3, 92880, Note_on_c, 1, 66, 58
3, 93072, Note_on_c, 1, 66, 0
3, 93120, Note_on_c, 1, 67, 58
3, 93312, Note_on_c, 1, 67, 0
3, 93360, Note_on_c, 1, 67, 58
3, 93552, Note_on_c, 1, 67, 0
3, 93600, Note_on_c, 1, 66, 58
3, 93792, Note_on_c, 1, 66, 0
3, 93840, Note_on_c, 1, 66, 58
3, 94032, Note_on_c, 1, 66, 0
3, 94080, Note_on_c, 1, 67, 58
3, 94272, Note_on_c, 1, 67, 0
3, 94320, Note_on_c, 1, 67, 58
3, 94512, Note_on_c, 1, 67, 0
3, 94560, Note_on_c, 1, 67, 58
3, 94752, Note_on_c, 1, 67, 0
3, 94800, Note_on_c, 1, 67, 58
3, 94992, Note_on_c, 1, 67, 0
3, 95040, Note_on_c, 1, 66, 58
3, 95232, Note_on_c, 1, 66, 0
3, 95280, Note_on_c, 1, 66, 58
3, 95472, Note_on_c, 1, 66, 0
3, 95520, Note_on_c, 1, 66, 58
3, 95712, Note_on_c, 1, 66, 0
3, 95760, Note_on_c, 1, 66, 58
3, 95952, Note_on_c, 1, 66, 0
3, 96000, Note_on_c, 1, 64, 58
3, 96192, Note_on_c, 1, 64, 0
3, 96240, Note_on_c, 1, 64, 58
3, 96432, Note_on_c, 1, 64, 0
3, 96480, Note_on_c, 1, 64, 58
3, 96672, Note_on_c, 1, 64, 0
3, 96720, Note_on_c, 1, 64, 58
3, 96912, Note_on_c, 1, 64, 0
3, 96960, Note_on_c, 1, 61, 58
3, 97152, Note_on_c, 1, 61, 0
3, 97200, Note_on_c, 1, 61, 58
3, 97392, Note_on_c, 1, 61, 0
3, 97440, Note_on_c, 1, 61, 58
3, 97632, Note_on_c, 1, 61, 0
3, 97680, Note_on_c, 1, 61, 58
3, 97872, Note_on_c, 1, 61, 0
3, 97920, Note_on_c, 1, 62, 58
3, 98160, Note_on_c, 1, 62, 0
3, 98160, Note_on_c, 1, 66, 58
3, 98400, Note_on_c, 1, 66, 0
3, 98400, Note_on_c, 1, 69, 58
3, 98640, Note_on_c, 1, 69, 0
3, 98640, Note_on_c, 1, 74, 58
3, 98832, Note_on_c, 1, 74, 0
3, 98880, Note_on_c, 1, 73, 58
3, 99840, Note_on_c, 1, 73, 0
3, 99840, Note_on_c, 1, 74, 58
3, 100080, Note_on_c, 1, 74, 0
3, 100080, Note_on_c, 1, 62, 58
3, 100320, Note_on_c, 1, 62, 0
3, 100320, Note_on_c, 1, 66, 58
3, 100560, Note_on_c, 1, 66, 0
3, 100560, Note_on_c, 1, 69, 58
3, 100752, Note_on_c, 1, 69, 0
3, 100800, Note_on_c, 1, 71, 58
3, 101760, Note_on_c, 1, 71, 0
3, 101760, Note_on_c, 1, 69, 58
3, 102000, Note_on_c, 1, 69, 0
3, 102000, Note_on_c, 1, 57, 58
3, 102240, Note_on_c, 1, 57, 0
3, 102240, Note_on_c, 1, 62, 58
3, 102480, Note_on_c, 1, 62, 0
3, 102480, Note_on_c, 1, 66, 58
3, 102672, Note_on_c, 1, 66, 0
3, 102720, Note_on_c, 1, 67, 58
3, 103488, Note_on_c, 1, 67, 0
3, 103680, Note_on_c, 1, 69, 125
3, 103920, Note_on_c, 1, 69, 0
3, 103920, Note_on_c, 1, 71, 105
3, 104076, Note_on_c, 1, 71, 0
3, 104160, Note_on_c, 1, 73, 105
3, 104316, Note_on_c, 1, 73, 0
3, 104400, Note_on_c, 1, 74, 105
3, 104556, Note_on_c, 1, 74, 0
3, 104640, Note_on_c, 1, 73, 105
3, 104880, Note_on_c, 1, 73, 0
3, 104880, Note_on_c, 1, 71, 105
3, 105036, Note_on_c, 1, 71, 0
3, 105120, Note_on_c, 1, 69, 105
3, 105276, Note_on_c, 1, 69, 0
3, 105360, Note_on_c, 1, 67, 105
3, 105516, Note_on_c, 1, 67, 0
3, 105600, Note_on_c, 1, 66, 105
3, 105840, Note_on_c, 1, 66, 0
3, 105840, Note_on_c, 1, 67, 105
3, 105996, Note_on_c, 1, 67, 0
3, 106080, Note_on_c, 1, 69, 105
3, 106236, Note_on_c, 1, 69, 0
3, 106320, Note_on_c, 1, 71, 105
3, 106476, Note_on_c, 1, 71, 0
3, 106560, Note_on_c, 1, 69, 105
3, 106800, Note_on_c, 1, 69, 0
3, 106800, Note_on_c, 1, 67, 105
3, 106956, Note_on_c, 1, 67, 0
3, 107040, Note_on_c, 1, 66, 105
3, 107196, Note_on_c, 1, 66, 0
3, 107280, Note_on_c, 1, 64, 105
3, 107436, Note_on_c, 1, 64, 0
3, 107520, Note_on_c, 1, 64, 105
3, 107760, Note_on_c, 1, 64, 0
3, 107760, Note_on_c, 1, 62, 105
3, 107916, Note_on_c, 1, 62, 0
3, 108000, Note_on_c, 1, 62, 105
3, 108156, Note_on_c, 1, 62, 0
3, 108240, Note_on_c, 1, 62, 105
3, 108396, Note_on_c, 1, 62, 0
3, 108480, Note_on_c, 1, 62, 105
3, 108720, Note_on_c, 1, 62, 0
3, 108720, Note_on_c, 1, 66, 105
3, 108876, Note_on_c, 1, 66, 0
3, 108960, Note_on_c, 1, 64, 105
3, 109116, Note_on_c, 1, 64, 0
3, 109200, Note_on_c, 1, 61, 105
3, 109356, Note_on_c, 1, 61, 0
3, 109440, Note_on_c, 1, 62, 105
3, 109596, Note_on_c, 1, 62, 0
3, 109680, Note_on_c, 1, 57, 58
3, 109836, Note_on_c, 1, 57, 0
3, 109920, Note_on_c, 1, 57, 58
3, 110076, Note_on_c, 1, 57, 0
3, 110160, Note_on_c, 1, 57, 58
3, 110316, Note_on_c, 1, 57, 0
3, 110400, Note_on_c, 1, 57, 58
3, 110556, Note_on_c, 1, 57, 0
3, 110640, Note_on_c, 1, 57, 58
3, 110796, Note_on_c, 1, 57, 0
3, 110880, Note_on_c, 1, 57, 58
3, 111036, Note_on_c, 1, 57, 0
3, 111120, Note_on_c, 1, 57, 58
3, 111276, Note_on_c, 1, 57, 0
3, 111360, Note_on_c, 1, 57, 58
3, 111516, Note_on_c, 1, 57, 0
3, 111600, Note_on_c, 1, 57, 58
3, 111756, Note_on_c, 1, 57, 0
3, 111840, Note_on_c, 1, 62, 58
3, 111996, Note_on_c, 1, 62, 0
3, 112080, Note_on_c, 1, 62, 58
3, 112236, Note_on_c, 1, 62, 0
3, 112320, Note_on_c, 1, 61, 58
3, 112476, Note_on_c, 1, 61, 0
3, 112560, Note_on_c, 1, 61, 58
3, 112716, Note_on_c, 1, 61, 0
3, 112800, Note_on_c, 1, 60, 58
3, 112956, Note_on_c, 1, 60, 0
3, 113040, Note_on_c, 1, 60, 58
3, 113196, Note_on_c, 1, 60, 0
3, 113280, Note_on_c, 1, 59, 58
3, 113436, Note_on_c, 1, 59, 0
3, 113520, Note_on_c, 1, 59, 58
3, 113676, Note_on_c, 1, 59, 0
3, 113760, Note_on_c, 1, 59, 58
3, 113916, Note_on_c, 1, 59, 0
3, 114000, Note_on_c, 1, 59, 58
3, 114156, Note_on_c, 1, 59, 0
3, 114240, Note_on_c, 1, 59, 58
3, 114396, Note_on_c, 1, 59, 0
3, 114480, Note_on_c, 1, 59, 58
3, 114636, Note_on_c, 1, 59, 0
3, 114720, Note_on_c, 1, 59, 58
3, 114876, Note_on_c, 1, 59, 0
3, 114960, Note_on_c, 1, 59, 58
3, 115116, Note_on_c, 1, 59, 0
3, 115200, Note_on_c, 1, 59, 58
3, 115356, Note_on_c, 1, 59, 0
3, 115440, Note_on_c, 1, 59, 58
3, 115596, Note_on_c, 1, 59, 0
3, 115680, Note_on_c, 1, 71, 58
3, 115836, Note_on_c, 1, 71, 0
3, 115920, Note_on_c, 1, 71, 58
3, 116076, Note_on_c, 1, 71, 0
3, 116160, Note_on_c, 1, 69, 58
3, 116316, Note_on_c, 1, 69, 0
3, 116400, Note_on_c, 1, 69, 58
3, 116556, Note_on_c, 1, 69, 0
3, 116640, Note_on_c, 1, 67, 58
3, 116796, Note_on_c, 1, 67, 0
3, 116880, Note_on_c, 1, 67, 58
3, 117036, Note_on_c, 1, 67, 0
3, 117120, Note_on_c, 1, 66, 58
3, 117276, Note_on_c, 1, 66, 0
3, 117360, Note_on_c, 1, 66, 58
3, 117516, Note_on_c, 1, 66, 0
3, 117600, Note_on_c, 1, 66, 58
3, 117756, Note_on_c, 1, 66, 0
3, 117840, Note_on_c, 1, 66, 58
3, 117996, Note_on_c, 1, 66, 0
3, 118080, Note_on_c, 1, 66, 58
3, 118236, Note_on_c, 1, 66, 0
3, 118320, Note_on_c, 1, 66, 58
3, 118476, Note_on_c, 1, 66, 0
3, 118560, Note_on_c, 1, 66, 58
3, 118716, Note_on_c, 1, 66, 0
3, 118800, Note_on_c, 1, 66, 58
3, 118956, Note_on_c, 1, 66, 0
3, 119040, Note_on_c, 1, 66, 58
3, 119196, Note_on_c, 1, 66, 0
3, 119280, Note_on_c, 1, 66, 58
3, 119436, Note_on_c, 1, 66, 0
3, 119520, Note_on_c, 1, 67, 58
3, 119676, Note_on_c, 1, 67, 0
3, 119760, Note_on_c, 1, 67, 58
3, 119916, Note_on_c, 1, 67, 0
3, 120000, Note_on_c, 1, 69, 58
3, 120156, Note_on_c, 1, 69, 0
3, 120240, Note_on_c, 1, 69, 58
3, 120396, Note_on_c, 1, 69, 0
3, 120480, Note_on_c, 1, 71, 58
3, 120636, Note_on_c, 1, 71, 0
3, 120720, Note_on_c, 1, 71, 58
3, 120876, Note_on_c, 1, 71, 0
3, 120960, Note_on_c, 1, 72, 58
3, 121344, Note_on_c, 1, 72, 0
3, 122880, Note_on_c, 1, 59, 58
3, 123072, Note_on_c, 1, 59, 0
3, 123120, Note_on_c, 1, 59, 58
3, 123312, Note_on_c, 1, 59, 0
3, 123360, Note_on_c, 1, 62, 58
3, 123552, Note_on_c, 1, 62, 0
3, 123600, Note_on_c, 1, 62, 58
3, 123792, Note_on_c, 1, 62, 0
3, 123840, Note_on_c, 1, 67, 58
3, 124032, Note_on_c, 1, 67, 0
3, 124080, Note_on_c, 1, 67, 58
3, 124272, Note_on_c, 1, 67, 0
3, 124320, Note_on_c, 1, 71, 58
3, 124512, Note_on_c, 1, 71, 0
3, 124560, Note_on_c, 1, 71, 58
3, 124752, Note_on_c, 1, 71, 0
3, 124800, Note_on_c, 1, 72, 58
3, 124992, Note_on_c, 1, 72, 0
3, 125040, Note_on_c, 1, 72, 58
3, 125232, Note_on_c, 1, 72, 0
3, 125280, Note_on_c, 1, 72, 58
3, 125472, Note_on_c, 1, 72, 0
3, 125520, Note_on_c, 1, 72, 58
3, 125712, Note_on_c, 1, 72, 0
3, 125760, Note_on_c, 1, 71, 58
3, 125952, Note_on_c, 1, 71, 0
3, 126000, Note_on_c, 1, 71, 58
3, 126192, Note_on_c, 1, 71, 0
3, 126240, Note_on_c, 1, 71, 58
3, 126432, Note_on_c, 1, 71, 0
3, 126480, Note_on_c, 1, 71, 58
3, 126672, Note_on_c, 1, 71, 0
3, 126720, Note_on_c, 1, 69, 58
3, 126912, Note_on_c, 1, 69, 0
3, 126960, Note_on_c, 1, 69, 58
3, 127152, Note_on_c, 1, 69, 0
3, 127200, Note_on_c, 1, 69, 58
3, 127392, Note_on_c, 1, 69, 0
3, 127440, Note_on_c, 1, 69, 58
3, 127632, Note_on_c, 1, 69, 0
3, 127680, Note_on_c, 1, 67, 58
3, 127872, Note_on_c, 1, 67, 0
3, 127920, Note_on_c, 1, 67, 58
3, 128112, Note_on_c, 1, 67, 0
3, 128160, Note_on_c, 1, 67, 58
3, 128352, Note_on_c, 1, 67, 0
3, 128400, Note_on_c, 1, 67, 58
3, 128592, Note_on_c, 1, 67, 0
3, 128640, Note_on_c, 1, 66, 58
3, 128832, Note_on_c, 1, 66, 0
3, 128880, Note_on_c, 1, 71, 58
3, 129072, Note_on_c, 1, 71, 0
3, 129120, Note_on_c, 1, 69, 58
3, 129312, Note_on_c, 1, 69, 0
3, 129360, Note_on_c, 1, 67, 58
3, 129552, Note_on_c, 1, 67, 0
3, 129600, Note_on_c, 1, 66, 58
3, 129792, Note_on_c, 1, 66, 0
3, 129840, Note_on_c, 1, 64, 58
3, 130032, Note_on_c, 1, 64, 0
3, 130080, Note_on_c, 1, 62, 58
3, 130272, Note_on_c, 1, 62, 0
3, 130320, Note_on_c, 1, 60, 58
3, 130512, Note_on_c, 1, 60, 0
3, 130560, Note_on_c, 1, 59, 58
3, 130752, Note_on_c, 1, 59, 0
3, 130800, Note_on_c, 1, 59, 58
3, 130992, Note_on_c, 1, 59, 0
3, 131040, Note_on_c, 1, 62, 58
3, 131232, Note_on_c, 1, 62, 0
3, 131280, Note_on_c, 1, 62, 58
3, 131472, Note_on_c, 1, 62, 0
3, 131520, Note_on_c, 1, 67, 58
3, 131712, Note_on_c, 1, 67, 0
3, 131760, Note_on_c, 1, 67, 58
3, 131952, Note_on_c, 1, 67, 0
3, 132000, Note_on_c, 1, 71, 58
3, 132192, Note_on_c, 1, 71, 0
3, 132240, Note_on_c, 1, 71, 58
3, 132432, Note_on_c, 1, 71, 0
3, 132480, Note_on_c, 1, 72, 58
3, 132672, Note_on_c, 1, 72, 0
3, 132720, Note_on_c, 1, 72, 58
3, 132912, Note_on_c, 1, 72, 0
3, 132960, Note_on_c, 1, 72, 58
3, 133152, Note_on_c, 1, 72, 0
3, 133200, Note_on_c, 1, 72, 58
3, 133392, Note_on_c, 1, 72, 0
3, 133440, Note_on_c, 1, 71, 58
3, 133632, Note_on_c, 1, 71, 0
3, 133680, Note_on_c, 1, 71, 58
3, 133872, Note_on_c, 1, 71, 0
3, 133920, Note_on_c, 1, 71, 58
3, 134112, Note_on_c, 1, 71, 0
3, 134160, Note_on_c, 1, 71, 58
3, 134352, Note_on_c, 1, 71, 0
3, 134400, Note_on_c, 1, 76, 58
3, 134592, Note_on_c, 1, 76, 0
3, 134640, Note_on_c, 1, 76, 58
3, 134832, Note_on_c, 1, 76, 0
3, 134880, Note_on_c, 1, 76, 58
3, 135072, Note_on_c, 1, 76, 0
3, 135120, Note_on_c, 1, 76, 58
3, 135312, Note_on_c, 1, 76, 0
3, 135360, Note_on_c, 1, 72, 58
3, 135552, Note_on_c, 1, 72, 0
3, 135600, Note_on_c, 1, 72, 58
3, 135792, Note_on_c, 1, 72, 0
3, 135840, Note_on_c, 1, 72, 58
3, 136032, Note_on_c, 1, 72, 0
3, 136080, Note_on_c, 1, 72, 58
3, 136272, Note_on_c, 1, 72, 0
3, 136320, Note_on_c, 1, 71, 58
3, 136512, Note_on_c, 1, 71, 0
3, 136560, Note_on_c, 1, 71, 58
3, 136752, Note_on_c, 1, 71, 0
3, 136800, Note_on_c, 1, 69, 58
3, 136992, Note_on_c, 1, 69, 0
3, 137040, Note_on_c, 1, 67, 58
3, 137232, Note_on_c, 1, 67, 0
3, 137280, Note_on_c, 1, 66, 58
3, 137472, Note_on_c, 1, 66, 0
3, 137520, Note_on_c, 1, 64, 58
3, 137712, Note_on_c, 1, 64, 0
3, 137760, Note_on_c, 1, 62, 58
3, 137952, Note_on_c, 1, 62, 0
3, 138000, Note_on_c, 1, 60, 58
3, 138192, Note_on_c, 1, 60, 0
3, 138240, Note_on_c, 1, 59, 58
3, 138432, Note_on_c, 1, 59, 0
3, 138480, Note_on_c, 1, 59, 58
3, 138672, Note_on_c, 1, 59, 0
3, 138720, Note_on_c, 1, 62, 58
3, 138912, Note_on_c, 1, 62, 0
3, 138960, Note_on_c, 1, 62, 58
3, 139152, Note_on_c, 1, 62, 0
3, 139200, Note_on_c, 1, 67, 58
3, 139392, Note_on_c, 1, 67, 0
3, 139440, Note_on_c, 1, 67, 58
3, 139632, Note_on_c, 1, 67, 0
3, 139680, Note_on_c, 1, 71, 58
3, 139872, Note_on_c, 1, 71, 0
3, 139920, Note_on_c, 1, 71, 58
3, 140112, Note_on_c, 1, 71, 0
3, 140160, Note_on_c, 1, 72, 58
3, 140352, Note_on_c, 1, 72, 0
3, 140400, Note_on_c, 1, 72, 58
3, 140592, Note_on_c, 1, 72, 0
3, 140640, Note_on_c, 1, 72, 58
3, 140832, Note_on_c, 1, 72, 0
3, 140880, Note_on_c, 1, 72, 58
3, 141072, Note_on_c, 1, 72, 0
3, 141120, Note_on_c, 1, 71, 58
3, 141312, Note_on_c, 1, 71, 0
3, 141360, Note_on_c, 1, 71, 58
3, 141552, Note_on_c, 1, 71, 0
3, 141600, Note_on_c, 1, 71, 58
3, 141792, Note_on_c, 1, 71, 0
3, 141840, Note_on_c, 1, 71, 58
3, 142032, Note_on_c, 1, 71, 0
3, 142080, Note_on_c, 1, 69, 58
3, 142272, Note_on_c, 1, 69, 0
3, 142320, Note_on_c, 1, 69, 58
3, 142512, Note_on_c, 1, 69, 0
3, 142560, Note_on_c, 1, 69, 58
3, 142752, Note_on_c, 1, 69, 0
3, 142800, Note_on_c, 1, 69, 58
3, 142992, Note_on_c, 1, 69, 0
3, 143040, Note_on_c, 1, 67, 58
3, 143232, Note_on_c, 1, 67, 0
3, 143280, Note_on_c, 1, 67, 58
3, 143472, Note_on_c, 1, 67, 0
3, 143520, Note_on_c, 1, 67, 58
3, 143712, Note_on_c, 1, 67, 0
3, 143760, Note_on_c, 1, 67, 58
3, 143952, Note_on_c, 1, 67, 0
3, 144000, Note_on_c, 1, 66, 58
3, 144192, Note_on_c, 1, 66, 0
3, 144240, Note_on_c, 1, 71, 58
3, 144432, Note_on_c, 1, 71, 0
3, 144480, Note_on_c, 1, 69, 58
3, 144672, Note_on_c, 1, 69, 0
3, 144720, Note_on_c, 1, 67, 58
3, 144912, Note_on_c, 1, 67, 0
3, 144960, Note_on_c, 1, 66, 58
3, 145152, Note_on_c, 1, 66, 0
3, 145200, Note_on_c, 1, 64, 58
3, 145392, Note_on_c, 1, 64, 0
3, 145440, Note_on_c, 1, 62, 58
3, 145632, Note_on_c, 1, 62, 0
3, 145680, Note_on_c, 1, 60, 58
3, 145872, Note_on_c, 1, 60, 0
3, 145920, Note_on_c, 1, 59, 58
3, 146112, Note_on_c, 1, 59, 0
3, 146160, Note_on_c, 1, 59, 58
3, 146352, Note_on_c, 1, 59, 0
3, 146400, Note_on_c, 1, 62, 58
3, 146592, Note_on_c, 1, 62, 0
3, 146640, Note_on_c, 1, 62, 58
3, 146832, Note_on_c, 1, 62, 0
3, 146880, Note_on_c, 1, 67, 58
3, 147072, Note_on_c, 1, 67, 0
3, 147120, Note_on_c, 1, 67, 58
3, 147312, Note_on_c, 1, 67, 0
3, 147360, Note_on_c, 1, 71, 58
3, 147552, Note_on_c, 1, 71, 0
3, 147600, Note_on_c, 1, 71, 58
3, 147792, Note_on_c, 1, 71, 0
3, 147840, Note_on_c, 1, 72, 58
3, 148032, Note_on_c, 1, 72, 0
3, 148080, Note_on_c, 1, 72, 58
3, 148272, Note_on_c, 1, 72, 0
3, 148320, Note_on_c, 1, 72, 58
3, 148512, Note_on_c, 1, 72, 0
3, 148560, Note_on_c, 1, 72, 58
3, 148752, Note_on_c, 1, 72, 0
3, 148800, Note_on_c, 1, 71, 58
3, 148992, Note_on_c, 1, 71, 0
3, 149040, Note_on_c, 1, 71, 58
3, 149232, Note_on_c, 1, 71, 0
3, 149280, Note_on_c, 1, 71, 58
3, 149472, Note_on_c, 1, 71, 0
3, 149520, Note_on_c, 1, 71, 58
3, 149712, Note_on_c, 1, 71, 0
3, 149760, Note_on_c, 1, 76, 58
3, 149952, Note_on_c, 1, 76, 0
3, 150000, Note_on_c, 1, 76, 58
3, 150192, Note_on_c, 1, 76, 0
3, 150240, Note_on_c, 1, 76, 58
3, 150432, Note_on_c, 1, 76, 0
3, 150480, Note_on_c, 1, 76, 58
3, 150672, Note_on_c, 1, 76, 0
3, 150720, Note_on_c, 1, 72, 58
3, 150912, Note_on_c, 1, 72, 0
3, 150960, Note_on_c, 1, 72, 58
3, 151152, Note_on_c, 1, 72, 0
3, 151200, Note_on_c, 1, 72, 58
3, 151392, Note_on_c, 1, 72, 0
3, 151440, Note_on_c, 1, 72, 58
3, 151632, Note_on_c, 1, 72, 0
3, 151680, Note_on_c, 1, 71, 78
3, 152064, Note_on_c, 1, 71, 0
3, 153600, Note_on_c, 1, 79, 105
3, 154752, Note_on_c, 1, 79, 0
3, 154800, Note_on_c, 1, 81, 105
3, 154992, Note_on_c, 1, 81, 0
3, 155040, Note_on_c, 1, 78, 105
3, 155232, Note_on_c, 1, 78, 0
3, 155280, Note_on_c, 1, 74, 105
3, 155472, Note_on_c, 1, 74, 0
3, 155520, Note_on_c, 1, 83, 105
3, 156672, Note_on_c, 1, 83, 0
3, 156720, Note_on_c, 1, 84, 105
3, 156912, Note_on_c, 1, 84, 0
3, 156960, Note_on_c, 1, 81, 105
3, 157152, Note_on_c, 1, 81, 0
3, 157200, Note_on_c, 1, 78, 105
3, 157392, Note_on_c, 1, 78, 0
3, 157440, Note_on_c, 1, 79, 105
3, 158592, Note_on_c, 1, 79, 0
3, 158640, Note_on_c, 1, 81, 105
3, 158832, Note_on_c, 1, 81, 0
3, 158880, Note_on_c, 1, 78, 105
3, 159072, Note_on_c, 1, 78, 0
3, 159120, Note_on_c, 1, 74, 105
3, 159312, Note_on_c, 1, 74, 0
3, 159360, Note_on_c, 1, 83, 105
3, 159648, Note_on_c, 1, 83, 0
3, 159840, Note_on_c, 1, 83, 92
3, 159984, Note_on_c, 1, 83, 0
3, 160080, Note_on_c, 1, 83, 92
3, 160224, Note_on_c, 1, 83, 0
3, 160320, Note_on_c, 1, 83, 92
3, 160560, Note_on_c, 1, 83, 0
3, 160560, Note_on_c, 1, 79, 92
3, 160752, Note_on_c, 1, 79, 0
3, 160800, Note_on_c, 1, 79, 92
3, 160992, Note_on_c, 1, 79, 0
3, 161040, Note_on_c, 1, 79, 92
3, 161232, Note_on_c, 1, 79, 0
3, 161280, Note_on_c, 1, 79, 92
3, 161520, Note_on_c, 1, 79, 0
3, 161520, Note_on_c, 1, 74, 92
3, 161712, Note_on_c, 1, 74, 0
3, 161760, Note_on_c, 1, 74, 92
3, 161952, Note_on_c, 1, 74, 0
3, 162000, Note_on_c, 1, 74, 92
3, 162192, Note_on_c, 1, 74, 0
3, 162240, Note_on_c, 1, 74, 92
3, 162480, Note_on_c, 1, 74, 0
3, 162480, Note_on_c, 1, 71, 92
3, 162672, Note_on_c, 1, 71, 0
3, 162720, Note_on_c, 1, 71, 92
3, 162960, Note_on_c, 1, 71, 0
3, 162960, Note_on_c, 1, 67, 92
3, 163152, Note_on_c, 1, 67, 0
3, 163200, Note_on_c, 1, 74, 92
3, 163488, Note_on_c, 1, 74, 0
3, 163680, Note_on_c, 1, 62, 92
3, 163680, Note_on_c, 1, 78, 92
3, 163680, Note_on_c, 1, 69, 92
3, 163968, Note_on_c, 1, 69, 0
3, 163968, Note_on_c, 1, 78, 0
3, 163968, Note_on_c, 1, 62, 0
3, 164160, Note_on_c, 1, 62, 92
3, 164160, Note_on_c, 1, 79, 92
3, 164160, Note_on_c, 1, 71, 92
3, 164448, Note_on_c, 1, 71, 0
3, 164448, Note_on_c, 1, 79, 0
3, 164448, Note_on_c, 1, 62, 0
3, 164640, Note_on_c, 1, 79, 92
3, 164640, Note_on_c, 1, 71, 92
3, 164640, Note_on_c, 1, 62, 92
3, 164928, Note_on_c, 1, 62, 0
3, 164928, Note_on_c, 1, 71, 0
3, 164928, Note_on_c, 1, 79, 0
3, 165120, Note_on_c, 1, 78, 92
3, 165120, Note_on_c, 1, 62, 92
3, 165120, Note_on_c, 1, 69, 92
3, 165408, Note_on_c, 1, 69, 0
3, 165408, Note_on_c, 1, 62, 0
3, 165408, Note_on_c, 1, 78, 0
3, 165600, Note_on_c, 1, 62, 92
3, 165984, Note_on_c, 1, 62, 0
3, 166080, Note_on_c, 1, 62, 92
3, 166464, Note_on_c, 1, 62, 0
3, 167520, Note_on_c, 1, 66, 98
3, 168000, Note_on_c, 1, 66, 0
3, 168000, Note_on_c, 1, 67, 58
3, 168192, Note_on_c, 1, 67, 0
3, 168480, Note_on_c, 1, 69, 58
3, 168672, Note_on_c, 1, 69, 0
3, 168960, Note_on_c, 1, 71, 58
3, 169152, Note_on_c, 1, 71, 0
3, 169440, Note_on_c, 1, 73, 58
3, 169632, Note_on_c, 1, 73, 0
3, 169920, Note_on_c, 1, 74, 58
3, 170112, Note_on_c, 1, 74, 0
3, 170400, Note_on_c, 1, 76, 58
3, 170592, Note_on_c, 1, 76, 0
3, 170880, Note_on_c, 1, 74, 58
3, 171120, Note_on_c, 1, 74, 0
3, 171120, Note_on_c, 1, 76, 58
3, 171360, Note_on_c, 1, 76, 0
3, 171360, Note_on_c, 1, 77, 58
3, 171600, Note_on_c, 1, 77, 0
3, 171600, Note_on_c, 1, 78, 58
3, 171840, Note_on_c, 1, 78, 0
3, 171840, Note_on_c, 1, 73, 58
3, 172080, Note_on_c, 1, 73, 0
3, 172080, Note_on_c, 1, 74, 58
3, 172320, Note_on_c, 1, 74, 0
3, 172320, Note_on_c, 1, 71, 58
3, 172560, Note_on_c, 1, 71, 0
3, 172560, Note_on_c, 1, 67, 58
3, 172752, Note_on_c, 1, 67, 0
3, 172800, Note_on_c, 1, 66, 58
3, 173760, Note_on_c, 1, 66, 0
3, 173760, Note_on_c, 1, 64, 58
3, 174144, Note_on_c, 1, 64, 0
3, 174720, Note_on_c, 1, 69, 78
3, 175680, Note_on_c, 1, 69, 0
3, 175680, Note_on_c, 1, 61, 58
3, 175872, Note_on_c, 1, 61, 0
3, 176160, Note_on_c, 1, 62, 58
3, 176352, Note_on_c, 1, 62, 0
3, 176640, Note_on_c, 1, 64, 58
3, 176832, Note_on_c, 1, 64, 0
3, 177120, Note_on_c, 1, 66, 58
3, 177312, Note_on_c, 1, 66, 0
3, 177600, Note_on_c, 1, 67, 58
3, 177792, Note_on_c, 1, 67, 0
3, 178560, Note_on_c, 1, 66, 58
3, 179040, Note_on_c, 1, 66, 0
3, 179040, Note_on_c, 1, 78, 58
3, 180000, Note_on_c, 1, 78, 0
3, 180000, Note_on_c, 1, 71, 58
3, 180384, Note_on_c, 1, 71, 0
3, 180480, Note_on_c, 1, 74, 58
3, 181440, Note_on_c, 1, 74, 0
3, 181440, Note_on_c, 1, 73, 58
3, 181824, Note_on_c, 1, 73, 0
3, 184320, Note_on_c, 1, 71, 72
3, 184560, Note_on_c, 1, 71, 0
3, 184560, Note_on_c, 1, 69, 72
3, 184740, Note_on_c, 1, 69, 0
3, 184800, Note_on_c, 1, 67, 72
3, 184980, Note_on_c, 1, 67, 0
3, 185040, Note_on_c, 1, 66, 72
3, 185220, Note_on_c, 1, 66, 0
3, 185280, Note_on_c, 1, 64, 72
3, 185640, Note_on_c, 1, 64, 0
3, 185760, Note_on_c, 1, 64, 72
3, 186120, Note_on_c, 1, 64, 0
3, 186240, Note_on_c, 1, 67, 72
3, 186480, Note_on_c, 1, 67, 0
3, 186480, Note_on_c, 1, 66, 72
3, 186660, Note_on_c, 1, 66, 0
3, 186720, Note_on_c, 1, 64, 72
3, 186900, Note_on_c, 1, 64, 0
3, 186960, Note_on_c, 1, 62, 72
3, 187140, Note_on_c, 1, 62, 0
3, 187200, Note_on_c, 1, 61, 72
3, 187560, Note_on_c, 1, 61, 0
3, 188160, Note_on_c, 1, 71, 72
3, 188400, Note_on_c, 1, 71, 0
3, 188400, Note_on_c, 1, 69, 72
3, 188580, Note_on_c, 1, 69, 0
3, 188640, Note_on_c, 1, 67, 72
3, 188820, Note_on_c, 1, 67, 0
3, 188880, Note_on_c, 1, 66, 72
3, 189060, Note_on_c, 1, 66, 0
3, 189120, Note_on_c, 1, 64, 72
3, 189480, Note_on_c, 1, 64, 0
3, 190080, Note_on_c, 1, 61, 72
3, 190320, Note_on_c, 1, 61, 0
3, 190320, Note_on_c, 1, 62, 72
3, 190512, Note_on_c, 1, 62, 0
3, 190560, Note_on_c, 1, 64, 72
3, 190752, Note_on_c, 1, 64, 0
3, 190800, Note_on_c, 1, 65, 72
3, 190992, Note_on_c, 1, 65, 0
3, 191040, Note_on_c, 1, 67, 72
3, 191424, Note_on_c, 1, 67, 0
3, 192000, Note_on_c, 1, 61, 72
3, 192240, Note_on_c, 1, 61, 0
3, 192240, Note_on_c, 1, 62, 72
3, 192432, Note_on_c, 1, 62, 0
3, 192480, Note_on_c, 1, 64, 72
3, 192672, Note_on_c, 1, 64, 0
3, 192720, Note_on_c, 1, 65, 72
3, 192912, Note_on_c, 1, 65, 0
3, 192960, Note_on_c, 1, 67, 72
3, 193344, Note_on_c, 1, 67, 0
3, 193920, Note_on_c, 1, 76, 58
3, 194160, Note_on_c, 1, 76, 0
3, 194160, Note_on_c, 1, 73, 58
3, 194400, Note_on_c, 1, 73, 0
3, 194400, Note_on_c, 1, 76, 58
3, 194640, Note_on_c, 1, 76, 0
3, 194640, Note_on_c, 1, 73, 58
3, 194880, Note_on_c, 1, 73, 0
3, 194880, Note_on_c, 1, 76, 58
3, 195120, Note_on_c, 1, 76, 0
3, 195120, Note_on_c, 1, 73, 58
3, 195360, Note_on_c, 1, 73, 0
3, 195360, Note_on_c, 1, 76, 58
3, 195600, Note_on_c, 1, 76, 0
3, 195600, Note_on_c, 1, 73, 58
3, 195840, Note_on_c, 1, 73, 0
3, 195840, Note_on_c, 1, 76, 58
3, 196224, Note_on_c, 1, 76, 0
3, 197760, Note_on_c, 1, 66, 58
3, 197952, Note_on_c, 1, 66, 0
3, 198000, Note_on_c, 1, 66, 58
3, 198192, Note_on_c, 1, 66, 0
3, 198240, Note_on_c, 1, 57, 58
3, 198432, Note_on_c, 1, 57, 0
3, 198480, Note_on_c, 1, 57, 58
3, 198672, Note_on_c, 1, 57, 0
3, 198720, Note_on_c, 1, 62, 58
3, 198912, Note_on_c, 1, 62, 0
3, 198960, Note_on_c, 1, 62, 58
3, 199152, Note_on_c, 1, 62, 0
3, 199200, Note_on_c, 1, 66, 58
3, 199392, Note_on_c, 1, 66, 0
3, 199440, Note_on_c, 1, 66, 58
3, 199632, Note_on_c, 1, 66, 0
3, 199680, Note_on_c, 1, 67, 58
3, 199872, Note_on_c, 1, 67, 0
3, 199920, Note_on_c, 1, 67, 58
3, 200112, Note_on_c, 1, 67, 0
3, 200160, Note_on_c, 1, 67, 58
3, 200352, Note_on_c, 1, 67, 0
3, 200400, Note_on_c, 1, 67, 58
3, 200592, Note_on_c, 1, 67, 0
3, 200640, Note_on_c, 1, 66, 58
3, 200832, Note_on_c, 1, 66, 0
3, 200880, Note_on_c, 1, 66, 58
3, 201072, Note_on_c, 1, 66, 0
3, 201120, Note_on_c, 1, 66, 58
3, 201312, Note_on_c, 1, 66, 0
3, 201360, Note_on_c, 1, 66, 58
3, 201552, Note_on_c, 1, 66, 0
3, 201600, Note_on_c, 1, 69, 58
3, 201792, Note_on_c, 1, 69, 0
3, 201840, Note_on_c, 1, 69, 58
3, 202032, Note_on_c, 1, 69, 0
3, 202080, Note_on_c, 1, 69, 58
3, 202272, Note_on_c, 1, 69, 0
3, 202320, Note_on_c, 1, 69, 58
3, 202512, Note_on_c, 1, 69, 0
3, 202560, Note_on_c, 1, 69, 58
3, 202752, Note_on_c, 1, 69, 0
3, 202800, Note_on_c, 1, 69, 58
3, 202992, Note_on_c, 1, 69, 0
3, 203040, Note_on_c, 1, 69, 58
3, 203232, Note_on_c, 1, 69, 0
3, 203280, Note_on_c, 1, 69, 58
3, 203472, Note_on_c, 1, 69, 0
3, 203520, Note_on_c, 1, 69, 58
3, 203676, Note_on_c, 1, 69, 0
3, 203760, Note_on_c, 1, 74, 58
3, 203916, Note_on_c, 1, 74, 0
3, 204000, Note_on_c, 1, 73, 58
3, 204156, Note_on_c, 1, 73, 0
3, 204240, Note_on_c, 1, 71, 58
3, 204396, Note_on_c, 1, 71, 0
3, 204480, Note_on_c, 1, 69, 58
3, 204636, Note_on_c, 1, 69, 0
3, 204720, Note_on_c, 1, 67, 58
3, 204876, Note_on_c, 1, 67, 0
3, 204960, Note_on_c, 1, 66, 58
3, 205116, Note_on_c, 1, 66, 0
3, 205200, Note_on_c, 1, 64, 58
3, 205356, Note_on_c, 1, 64, 0
3, 205440, Note_on_c, 1, 66, 58
3, 205632, Note_on_c, 1, 66, 0
3, 205680, Note_on_c, 1, 66, 58
3, 205872, Note_on_c, 1, 66, 0
3, 205920, Note_on_c, 1, 57, 58
3, 206112, Note_on_c, 1, 57, 0
3, 206160, Note_on_c, 1, 57, 58
3, 206352, Note_on_c, 1, 57, 0
3, 206400, Note_on_c, 1, 62, 58
3, 206592, Note_on_c, 1, 62, 0
3, 206640, Note_on_c, 1, 62, 58
3, 206832, Note_on_c, 1, 62, 0
3, 206880, Note_on_c, 1, 66, 58
3, 207072, Note_on_c, 1, 66, 0
3, 207120, Note_on_c, 1, 66, 58
3, 207312, Note_on_c, 1, 66, 0
3, 207360, Note_on_c, 1, 67, 58
3, 207552, Note_on_c, 1, 67, 0
3, 207600, Note_on_c, 1, 67, 58
3, 207792, Note_on_c, 1, 67, 0
3, 207840, Note_on_c, 1, 67, 58
3, 208032, Note_on_c, 1, 67, 0
3, 208080, Note_on_c, 1, 67, 58
3, 208272, Note_on_c, 1, 67, 0
3, 208320, Note_on_c, 1, 66, 58
3, 208512, Note_on_c, 1, 66, 0
3, 208560, Note_on_c, 1, 66, 58
3, 208752, Note_on_c, 1, 66, 0
3, 208800, Note_on_c, 1, 66, 58
3, 208992, Note_on_c, 1, 66, 0
3, 209040, Note_on_c, 1, 66, 58
3, 209232, Note_on_c, 1, 66, 0
3, 209280, Note_on_c, 1, 71, 58
3, 209472, Note_on_c, 1, 71, 0
3, 209520, Note_on_c, 1, 71, 58
3, 209712, Note_on_c, 1, 71, 0
3, 209760, Note_on_c, 1, 71, 58
3, 209952, Note_on_c, 1, 71, 0
3, 210000, Note_on_c, 1, 71, 58
3, 210192, Note_on_c, 1, 71, 0
3, 210240, Note_on_c, 1, 72, 58
3, 210432, Note_on_c, 1, 72, 0
3, 210480, Note_on_c, 1, 72, 58
3, 210672, Note_on_c, 1, 72, 0
3, 210720, Note_on_c, 1, 72, 58
3, 210912, Note_on_c, 1, 72, 0
3, 210960, Note_on_c, 1, 72, 58
3, 211152, Note_on_c, 1, 72, 0
3, 211200, Note_on_c, 1, 66, 58
3, 212160, Note_on_c, 1, 66, 0
3, 212160, Note_on_c, 1, 67, 58
3, 212544, Note_on_c, 1, 67, 0
3, 213120, Note_on_c, 1, 67, 58
3, 213312, Note_on_c, 1, 67, 0
3, 213360, Note_on_c, 1, 67, 58
3, 213552, Note_on_c, 1, 67, 0
3, 213600, Note_on_c, 1, 66, 58
3, 213792, Note_on_c, 1, 66, 0
3, 213840, Note_on_c, 1, 66, 58
3, 214032, Note_on_c, 1, 66, 0
3, 214080, Note_on_c, 1, 67, 58
3, 214272, Note_on_c, 1, 67, 0
3, 214320, Note_on_c, 1, 67, 58
3, 214512, Note_on_c, 1, 67, 0
3, 214560, Note_on_c, 1, 66, 58
3, 214752, Note_on_c, 1, 66, 0
3, 214800, Note_on_c, 1, 66, 58
3, 214992, Note_on_c, 1, 66, 0
3, 215040, Note_on_c, 1, 67, 58
3, 215232, Note_on_c, 1, 67, 0
3, 215280, Note_on_c, 1, 67, 58
3, 215472, Note_on_c, 1, 67, 0
3, 215520, Note_on_c, 1, 67, 58
3, 215712, Note_on_c, 1, 67, 0
3, 215760, Note_on_c, 1, 67, 58
3, 215952, Note_on_c, 1, 67, 0
3, 216000, Note_on_c, 1, 66, 58
3, 216192, Note_on_c, 1, 66, 0
3, 216240, Note_on_c, 1, 66, 58
3, 216432, Note_on_c, 1, 66, 0
3, 216480, Note_on_c, 1, 66, 58
3, 216672, Note_on_c, 1, 66, 0
3, 216720, Note_on_c, 1, 66, 58
3, 216912, Note_on_c, 1, 66, 0
3, 216960, Note_on_c, 1, 64, 58
3, 217152, Note_on_c, 1, 64, 0
3, 217200, Note_on_c, 1, 64, 58
3, 217392, Note_on_c, 1, 64, 0
3, 217440, Note_on_c, 1, 64, 58
3, 217632, Note_on_c, 1, 64, 0
3, 217680, Note_on_c, 1, 64, 58
3, 217872, Note_on_c, 1, 64, 0
3, 217920, Note_on_c, 1, 61, 58
3, 218112, Note_on_c, 1, 61, 0
3, 218160, Note_on_c, 1, 61, 58
3, 218352, Note_on_c, 1, 61, 0
3, 218400, Note_on_c, 1, 61, 58
3, 218592, Note_on_c, 1, 61, 0
3, 218640, Note_on_c, 1, 61, 58
3, 218832, Note_on_c, 1, 61, 0
3, 218880, Note_on_c, 1, 62, 58
3, 219120, Note_on_c, 1, 62, 0
3, 219120, Note_on_c, 1, 66, 58
3, 219360, Note_on_c, 1, 66, 0
3, 219360, Note_on_c, 1, 69, 58
3, 219600, Note_on_c, 1, 69, 0
3, 219600, Note_on_c, 1, 74, 58
3, 219792, Note_on_c, 1, 74, 0
3, 219840, Note_on_c, 1, 73, 58
3, 220800, Note_on_c, 1, 73, 0
3, 220800, Note_on_c, 1, 74, 58
3, 221040, Note_on_c, 1, 74, 0
3, 221040, Note_on_c, 1, 62, 58
3, 221280, Note_on_c, 1, 62, 0
3, 221280, Note_on_c, 1, 66, 58
3, 221520, Note_on_c, 1, 66, 0
3, 221520, Note_on_c, 1, 69, 58
3, 221712, Note_on_c, 1, 69, 0
3, 221760, Note_on_c, 1, 71, 58
3, 222720, Note_on_c, 1, 71, 0
3, 222720, Note_on_c, 1, 69, 58
3, 222960, Note_on_c, 1, 69, 0
3, 222960, Note_on_c, 1, 57, 58
3, 223200, Note_on_c, 1, 57, 0
3, 223200, Note_on_c, 1, 62, 58
3, 223440, Note_on_c, 1, 62, 0
3, 223440, Note_on_c, 1, 66, 58
3, 223632, Note_on_c, 1, 66, 0
3, 223680, Note_on_c, 1, 67, 58
3, 224448, Note_on_c, 1, 67, 0
3, 224640, Note_on_c, 1, 69, 125
3, 224880, Note_on_c, 1, 69, 0
3, 224880, Note_on_c, 1, 71, 105
3, 225036, Note_on_c, 1, 71, 0
3, 225120, Note_on_c, 1, 73, 105
3, 225276, Note_on_c, 1, 73, 0
3, 225360, Note_on_c, 1, 74, 105
3, 225516, Note_on_c, 1, 74, 0
3, 225600, Note_on_c, 1, 73, 105
3, 225840, Note_on_c, 1, 73, 0
3, 225840, Note_on_c, 1, 71, 105
3, 225996, Note_on_c, 1, 71, 0
3, 226080, Note_on_c, 1, 69, 105
3, 226236, Note_on_c, 1, 69, 0
3, 226320, Note_on_c, 1, 67, 105
3, 226476, Note_on_c, 1, 67, 0
3, 226560, Note_on_c, 1, 66, 105
3, 226800, Note_on_c, 1, 66, 0
3, 226800, Note_on_c, 1, 67, 105
3, 226956, Note_on_c, 1, 67, 0
3, 227040, Note_on_c, 1, 69, 105
3, 227196, Note_on_c, 1, 69, 0
3, 227280, Note_on_c, 1, 71, 105
3, 227436, Note_on_c, 1, 71, 0
3, 227520, Note_on_c, 1, 69, 105
3, 227760, Note_on_c, 1, 69, 0
3, 227760, Note_on_c, 1, 67, 105
3, 227916, Note_on_c, 1, 67, 0
3, 228000, Note_on_c, 1, 66, 105
3, 228156, Note_on_c, 1, 66, 0
3, 228240, Note_on_c, 1, 64, 105
3, 228396, Note_on_c, 1, 64, 0
3, 228480, Note_on_c, 1, 64, 105
3, 228720, Note_on_c, 1, 64, 0
3, 228720, Note_on_c, 1, 62, 105
3, 228876, Note_on_c, 1, 62, 0
3, 228960, Note_on_c, 1, 62, 105
3, 229116, Note_on_c, 1, 62, 0
3, 229200, Note_on_c, 1, 62, 105
3, 229356, Note_on_c, 1, 62, 0
3, 229440, Note_on_c, 1, 62, 105
3, 229680, Note_on_c, 1, 62, 0
3, 229680, Note_on_c, 1, 66, 105
3, 229836, Note_on_c, 1, 66, 0
3, 229920, Note_on_c, 1, 64, 105
3, 230076, Note_on_c, 1, 64, 0
3, 230160, Note_on_c, 1, 61, 105
3, 230316, Note_on_c, 1, 61, 0
3, 230400, Note_on_c, 1, 62, 105
3, 230556, Note_on_c, 1, 62, 0
3, 230640, Note_on_c, 1, 57, 58
3, 230796, Note_on_c, 1, 57, 0
3, 230880, Note_on_c, 1, 57, 58
3, 231036, Note_on_c, 1, 57, 0
3, 231120, Note_on_c, 1, 57, 58
3, 231276, Note_on_c, 1, 57, 0
3, 231360, Note_on_c, 1, 57, 58
3, 231516, Note_on_c, 1, 57, 0
3, 231600, Note_on_c, 1, 57, 58
3, 231756, Note_on_c, 1, 57, 0
3, 231840, Note_on_c, 1, 57, 58
3, 231996, Note_on_c, 1, 57, 0
3, 232080, Note_on_c, 1, 57, 58
3, 232236, Note_on_c, 1, 57, 0
3, 232320, Note_on_c, 1, 57, 58
3, 232476, Note_on_c, 1, 57, 0
3, 232560, Note_on_c, 1, 57, 58
3, 232716, Note_on_c, 1, 57, 0
3, 232800, Note_on_c, 1, 62, 58
3, 232956, Note_on_c, 1, 62, 0
3, 233040, Note_on_c, 1, 62, 58
3, 233196, Note_on_c, 1, 62, 0
3, 233280, Note_on_c, 1, 61, 58
3, 233436, Note_on_c, 1, 61, 0
3, 233520, Note_on_c, 1, 61, 58
3, 233676, Note_on_c, 1, 61, 0
3, 233760, Note_on_c, 1, 60, 58
3, 233916, Note_on_c, 1, 60, 0
3, 234000, Note_on_c, 1, 60, 58
3, 234156, Note_on_c, 1, 60, 0
3, 234240, Note_on_c, 1, 59, 58
3, 234396, Note_on_c, 1, 59, 0
3, 234480, Note_on_c, 1, 59, 58
3, 234636, Note_on_c, 1, 59, 0
3, 234720, Note_on_c, 1, 59, 58
3, 234876, Note_on_c, 1, 59, 0
3, 234960, Note_on_c, 1, 59, 58
3, 235116, Note_on_c, 1, 59, 0
3, 235200, Note_on_c, 1, 59, 58
3, 235356, Note_on_c, 1, 59, 0
3, 235440, Note_on_c, 1, 59, 58
3, 235596, Note_on_c, 1, 59, 0
3, 235680, Note_on_c, 1, 59, 58
3, 235836, Note_on_c, 1, 59, 0
3, 235920, Note_on_c, 1, 59, 58
3, 236076, Note_on_c, 1, 59, 0
3, 236160, Note_on_c, 1, 59, 58
3, 236316, Note_on_c, 1, 59, 0
3, 236400, Note_on_c, 1, 59, 58
3, 236556, Note_on_c, 1, 59, 0
3, 236640, Note_on_c, 1, 71, 58
3, 236796, Note_on_c, 1, 71, 0
3, 236880, Note_on_c, 1, 71, 58
3, 237036, Note_on_c, 1, 71, 0
3, 237120, Note_on_c, 1, 69, 58
3, 237276, Note_on_c, 1, 69, 0
3, 237360, Note_on_c, 1, 69, 58
3, 237516, Note_on_c, 1, 69, 0
3, 237600, Note_on_c, 1, 67, 58
3, 237756, Note_on_c, 1, 67, 0
3, 237840, Note_on_c, 1, 67, 58
3, 237996, Note_on_c, 1, 67, 0
3, 238080, Note_on_c, 1, 66, 58
3, 238236, Note_on_c, 1, 66, 0
3, 238320, Note_on_c, 1, 66, 58
3, 238476, Note_on_c, 1, 66, 0
3, 238560, Note_on_c, 1, 66, 58
3, 238716, Note_on_c, 1, 66, 0
3, 238800, Note_on_c, 1, 66, 58
3, 238956, Note_on_c, 1, 66, 0
3, 239040, Note_on_c, 1, 66, 58
3, 239196, Note_on_c, 1, 66, 0
3, 239280, Note_on_c, 1, 66, 58
3, 239436, Note_on_c, 1, 66, 0
3, 239520, Note_on_c, 1, 66, 58
3, 239676, Note_on_c, 1, 66, 0
3, 239760, Note_on_c, 1, 66, 58
3, 239916, Note_on_c, 1, 66, 0
3, 240000, Note_on_c, 1, 66, 58
3, 240156, Note_on_c, 1, 66, 0
3, 240240, Note_on_c, 1, 66, 58
3, 240396, Note_on_c, 1, 66, 0
3, 240480, Note_on_c, 1, 67, 58
3, 240636, Note_on_c, 1, 67, 0
3, 240720, Note_on_c, 1, 67, 58
3, 240876, Note_on_c, 1, 67, 0
3, 240960, Note_on_c, 1, 69, 58
3, 241116, Note_on_c, 1, 69, 0
3, 241200, Note_on_c, 1, 69, 58
3, 241356, Note_on_c, 1, 69, 0
3, 241440, Note_on_c, 1, 71, 58
3, 241596, Note_on_c, 1, 71, 0
3, 241680, Note_on_c, 1, 71, 58
3, 241836, Note_on_c, 1, 71, 0
3, 241920, Note_on_c, 1, 72, 58
3, 242304, Note_on_c, 1, 72, 0
3, 243120, Note_on_c, 1, 62, 92
3, 243276, Note_on_c, 1, 62, 0
3, 243360, Note_on_c, 1, 66, 92
3, 243516, Note_on_c, 1, 66, 0
3, 243600, Note_on_c, 1, 69, 92
3, 243756, Note_on_c, 1, 69, 0
3, 243840, Note_on_c, 1, 72, 92
3, 244152, Note_on_c, 1, 72, 0
3, 244320, Note_on_c, 1, 72, 92
3, 244632, Note_on_c, 1, 72, 0
3, 244800, Note_on_c, 1, 72, 92
3, 245112, Note_on_c, 1, 72, 0
3, 245280, Note_on_c, 1, 72, 92
3, 245592, Note_on_c, 1, 72, 0
3, 245760, Note_on_c, 1, 63, 92
3, 246144, Note_on_c, 1, 63, 0
3, 247680, Note_on_c, 1, 55, 58
3, 247872, Note_on_c, 1, 55, 0
3, 247920, Note_on_c, 1, 55, 58
3, 248112, Note_on_c, 1, 55, 0
3, 248160, Note_on_c, 1, 58, 58
3, 248352, Note_on_c, 1, 58, 0
3, 248400, Note_on_c, 1, 58, 58
3, 248592, Note_on_c, 1, 58, 0
3, 248640, Note_on_c, 1, 63, 58
3, 248832, Note_on_c, 1, 63, 0
3, 248880, Note_on_c, 1, 63, 58
3, 249072, Note_on_c, 1, 63, 0
3, 249120, Note_on_c, 1, 67, 58
3, 249312, Note_on_c, 1, 67, 0
3, 249360, Note_on_c, 1, 67, 58
3, 249552, Note_on_c, 1, 67, 0
3, 249600, Note_on_c, 1, 68, 58
3, 249792, Note_on_c, 1, 68, 0
3, 249840, Note_on_c, 1, 68, 58
3, 250032, Note_on_c, 1, 68, 0
3, 250080, Note_on_c, 1, 68, 58
3, 250272, Note_on_c, 1, 68, 0
3, 250320, Note_on_c, 1, 68, 58
3, 250512, Note_on_c, 1, 68, 0
3, 250560, Note_on_c, 1, 67, 58
3, 250752, Note_on_c, 1, 67, 0
3, 250800, Note_on_c, 1, 67, 58
3, 250992, Note_on_c, 1, 67, 0
3, 251040, Note_on_c, 1, 67, 58
3, 251232, Note_on_c, 1, 67, 0
3, 251280, Note_on_c, 1, 67, 58
3, 251472, Note_on_c, 1, 67, 0
3, 251520, Note_on_c, 1, 65, 58
3, 251712, Note_on_c, 1, 65, 0
3, 251760, Note_on_c, 1, 65, 58
3, 251952, Note_on_c, 1, 65, 0
3, 252000, Note_on_c, 1, 65, 58
3, 252192, Note_on_c, 1, 65, 0
3, 252240, Note_on_c, 1, 65, 58
3, 252432, Note_on_c, 1, 65, 0
3, 252480, Note_on_c, 1, 63, 58
3, 252672, Note_on_c, 1, 63, 0
3, 252720, Note_on_c, 1, 63, 58
3, 252912, Note_on_c, 1, 63, 0
3, 252960, Note_on_c, 1, 63, 58
3, 253152, Note_on_c, 1, 63, 0
3, 253200, Note_on_c, 1, 63, 58
3, 253392, Note_on_c, 1, 63, 0
3, 253440, Note_on_c, 1, 62, 58
3, 253632, Note_on_c, 1, 62, 0
3, 253680, Note_on_c, 1, 67, 58
3, 253872, Note_on_c, 1, 67, 0
3, 253920, Note_on_c, 1, 65, 58
3, 254112, Note_on_c, 1, 65, 0
3, 254160, Note_on_c, 1, 63, 58
3, 254352, Note_on_c, 1, 63, 0
3, 254400, Note_on_c, 1, 62, 58
3, 254592, Note_on_c, 1, 62, 0
3, 254640, Note_on_c, 1, 60, 58
3, 254832, Note_on_c, 1, 60, 0
3, 254880, Note_on_c, 1, 58, 58
3, 255072, Note_on_c, 1, 58, 0
3, 255120, Note_on_c, 1, 56, 58
3, 255312, Note_on_c, 1, 56, 0
3, 255360, Note_on_c, 1, 55, 58
3, 255552, Note_on_c, 1, 55, 0
3, 255600, Note_on_c, 1, 55, 58
3, 255792, Note_on_c, 1, 55, 0
3, 255840, Note_on_c, 1, 58, 58
3, 256032, Note_on_c, 1, 58, 0
3, 256080, Note_on_c, 1, 58, 58
3, 256272, Note_on_c, 1, 58, 0
3, 256320, Note_on_c, 1, 63, 58
3, 256512, Note_on_c, 1, 63, 0
3, 256560, Note_on_c, 1, 63, 58
3, 256752, Note_on_c, 1, 63, 0
3, 256800, Note_on_c, 1, 67, 58
3, 256992, Note_on_c, 1, 67, 0
3, 257040, Note_on_c, 1, 67, 58
3, 257232, Note_on_c, 1, 67, 0
3, 257280, Note_on_c, 1, 68, 58
3, 257472, Note_on_c, 1, 68, 0
3, 257520, Note_on_c, 1, 68, 58
3, 257712, Note_on_c, 1, 68, 0
3, 257760, Note_on_c, 1, 68, 58
3, 257952, Note_on_c, 1, 68, 0
3, 258000, Note_on_c, 1, 68, 58
3, 258192, Note_on_c, 1, 68, 0
3, 258240, Note_on_c, 1, 67, 58
3, 258432, Note_on_c, 1, 67, 0
3, 258480, Note_on_c, 1, 67, 58
3, 258672, Note_on_c, 1, 67, 0
3, 258720, Note_on_c, 1, 67, 58
3, 258912, Note_on_c, 1, 67, 0
3, 258960, Note_on_c, 1, 67, 58
3, 259152, Note_on_c, 1, 67, 0
3, 259200, Note_on_c, 1, 72, 58
3, 259392, Note_on_c, 1, 72, 0
3, 259440, Note_on_c, 1, 72, 58
3, 259632, Note_on_c, 1, 72, 0
3, 259680, Note_on_c, 1, 72, 58
3, 259872, Note_on_c, 1, 72, 0
3, 259920, Note_on_c, 1, 72, 58
3, 260112, Note_on_c, 1, 72, 0
3, 260160, Note_on_c, 1, 68, 58
3, 260352, Note_on_c, 1, 68, 0
3, 260400, Note_on_c, 1, 68, 58
3, 260592, Note_on_c, 1, 68, 0
3, 260640, Note_on_c, 1, 68, 58
3, 260832, Note_on_c, 1, 68, 0
3, 260880, Note_on_c, 1, 68, 58
3, 261072, Note_on_c, 1, 68, 0
3, 261120, Note_on_c, 1, 67, 92
3, 261504, Note_on_c, 1, 67, 0
3, 263040, Note_on_c, 1, 75, 105
3, 264192, Note_on_c, 1, 75, 0
3, 264240, Note_on_c, 1, 77, 105
3, 264432, Note_on_c, 1, 77, 0
3, 264480, Note_on_c, 1, 74, 105
3, 264672, Note_on_c, 1, 74, 0
3, 264720, Note_on_c, 1, 70, 105
3, 264912, Note_on_c, 1, 70, 0
3, 264960, Note_on_c, 1, 79, 105
3, 266112, Note_on_c, 1, 79, 0
3, 266160, Note_on_c, 1, 80, 105
3, 266352, Note_on_c, 1, 80, 0
3, 266400, Note_on_c, 1, 77, 105
3, 266592, Note_on_c, 1, 77, 0
3, 266640, Note_on_c, 1, 74, 105
3, 266832, Note_on_c, 1, 74, 0
3, 266880, Note_on_c, 1, 75, 105
3, 268080, Note_on_c, 1, 75, 0
3, 268080, Note_on_c, 1, 77, 105
3, 268320, Note_on_c, 1, 77, 0
3, 268320, Note_on_c, 1, 74, 105
3, 268560, Note_on_c, 1, 74, 0
3, 268560, Note_on_c, 1, 70, 105
3, 268752, Note_on_c, 1, 70, 0
3, 268800, Note_on_c, 1, 79, 92
3, 269088, Note_on_c, 1, 79, 0
3, 269280, Note_on_c, 1, 58, 92
3, 269280, Note_on_c, 1, 67, 92
3, 269568, Note_on_c, 1, 67, 0
3, 269568, Note_on_c, 1, 58, 0
3, 270240, Note_on_c, 1, 67, 92
3, 270240, Note_on_c, 1, 58, 92
3, 270528, Note_on_c, 1, 58, 0
3, 270528, Note_on_c, 1, 67, 0
3, 271200, Note_on_c, 1, 58, 92
3, 271200, Note_on_c, 1, 67, 92
3, 271488, Note_on_c, 1, 67, 0
3, 271488, Note_on_c, 1, 58, 0
3, 271680, Note_on_c, 1, 58, 92
3, 271680, Note_on_c, 1, 67, 92
3, 271968, Note_on_c, 1, 67, 0
3, 271968, Note_on_c, 1, 58, 0
3, 272160, Note_on_c, 1, 67, 92
3, 272160, Note_on_c, 1, 58, 92
3, 272448, Note_on_c, 1, 58, 0
3, 272448, Note_on_c, 1, 67, 0
3, 273120, Note_on_c, 1, 67, 92
3, 273120, Note_on_c, 1, 59, 92
3, 273408, Note_on_c, 1, 59, 0
3, 273408, Note_on_c, 1, 67, 0
3, 274080, Note_on_c, 1, 59, 92
3, 274080, Note_on_c, 1, 67, 92
3, 274368, Note_on_c, 1, 67, 0
3, 274368, Note_on_c, 1, 59, 0
3, 275040, Note_on_c, 1, 67, 92
3, 275040, Note_on_c, 1, 59, 92
3, 275328, Note_on_c, 1, 59, 0
3, 275328, Note_on_c, 1, 67, 0
3, 275520, Note_on_c, 1, 59, 92
3, 275520, Note_on_c, 1, 67, 92
3, 275808, Note_on_c, 1, 67, 0
3, 275808, Note_on_c, 1, 59, 0
3, 276000, Note_on_c, 1, 59, 92
3, 276000, Note_on_c, 1, 67, 92
3, 276288, Note_on_c, 1, 67, 0
3, 276288, Note_on_c, 1, 59, 0
3, 276960, Note_on_c, 1, 60, 92
3, 276960, Note_on_c, 1, 63, 92
3, 277248, Note_on_c, 1, 63, 0
3, 277248, Note_on_c, 1, 60, 0
3, 277920, Note_on_c, 1, 60, 92
3, 277920, Note_on_c, 1, 63, 92
3, 278208, Note_on_c, 1, 63, 0
3, 278208, Note_on_c, 1, 60, 0
3, 278880, Note_on_c, 1, 63, 92
3, 278880, Note_on_c, 1, 60, 92
3, 279168, Note_on_c, 1, 60, 0
3, 279168, Note_on_c, 1, 63, 0
3, 279360, Note_on_c, 1, 60, 92
3, 279360, Note_on_c, 1, 63, 92
3, 279648, Note_on_c, 1, 63, 0
3, 279648, Note_on_c, 1, 60, 0
3, 279840, Note_on_c, 1, 60, 92
3, 279840, Note_on_c, 1, 63, 92
3, 280128, Note_on_c, 1, 63, 0
3, 280128, Note_on_c, 1, 60, 0
3, 280800, Note_on_c, 1, 60, 92
3, 280800, Note_on_c, 1, 69, 92
3, 281088, Note_on_c, 1, 69, 0
3, 281088, Note_on_c, 1, 60, 0
3, 281760, Note_on_c, 1, 60, 92
3, 281760, Note_on_c, 1, 69, 92
3, 282048, Note_on_c, 1, 69, 0
3, 282048, Note_on_c, 1, 60, 0
3, 282720, Note_on_c, 1, 69, 92
3, 282720, Note_on_c, 1, 60, 92
3, 283008, Note_on_c, 1, 60, 0
3, 283008, Note_on_c, 1, 69, 0
3, 283200, Note_on_c, 1, 60, 92
3, 283200, Note_on_c, 1, 69, 92
3, 283488, Note_on_c, 1, 69, 0
3, 283488, Note_on_c, 1, 60, 0
3, 283680, Note_on_c, 1, 69, 92
3, 283680, Note_on_c, 1, 60, 92
3, 283968, Note_on_c, 1, 60, 0
3, 283968, Note_on_c, 1, 69, 0
3, 284640, Note_on_c, 1, 62, 92
3, 284640, Note_on_c, 1, 70, 92
3, 284928, Note_on_c, 1, 70, 0
3, 284928, Note_on_c, 1, 62, 0
3, 285600, Note_on_c, 1, 70, 92
3, 285600, Note_on_c, 1, 62, 92
3, 285888, Note_on_c, 1, 62, 0
3, 285888, Note_on_c, 1, 70, 0
3, 286560, Note_on_c, 1, 62, 92
3, 286560, Note_on_c, 1, 70, 92
3, 286848, Note_on_c, 1, 70, 0
3, 286848, Note_on_c, 1, 62, 0
3, 287040, Note_on_c, 1, 62, 92
3, 287040, Note_on_c, 1, 70, 92
3, 287328, Note_on_c, 1, 70, 0
3, 287328, Note_on_c, 1, 62, 0
3, 287520, Note_on_c, 1, 70, 92
3, 287520, Note_on_c, 1, 62, 92
3, 287808, Note_on_c, 1, 62, 0
3, 287808, Note_on_c, 1, 70, 0
3, 288000, Note_on_c, 1, 79, 92
3, 288240, Note_on_c, 1, 79, 0
3, 288240, Note_on_c, 1, 75, 92
3, 288432, Note_on_c, 1, 75, 0
3, 288480, Note_on_c, 1, 75, 92
3, 288672, Note_on_c, 1, 75, 0
3, 288720, Note_on_c, 1, 75, 92
3, 288912, Note_on_c, 1, 75, 0
3, 288960, Note_on_c, 1, 75, 92
3, 289200, Note_on_c, 1, 75, 0
3, 289200, Note_on_c, 1, 70, 92
3, 289392, Note_on_c, 1, 70, 0
3, 289440, Note_on_c, 1, 70, 92
3, 289632, Note_on_c, 1, 70, 0
3, 289680, Note_on_c, 1, 70, 92
3, 289872, Note_on_c, 1, 70, 0
3, 289920, Note_on_c, 1, 70, 92
3, 290160, Note_on_c, 1, 70, 0
3, 290160, Note_on_c, 1, 67, 92
3, 290352, Note_on_c, 1, 67, 0
3, 290400, Note_on_c, 1, 67, 92
3, 290592, Note_on_c, 1, 67, 0
3, 290640, Note_on_c, 1, 67, 92
3, 290832, Note_on_c, 1, 67, 0
3, 290880, Note_on_c, 1, 67, 92
3, 291120, Note_on_c, 1, 67, 0
3, 291120, Note_on_c, 1, 63, 92
3, 291312, Note_on_c, 1, 63, 0
3, 291360, Note_on_c, 1, 63, 92
3, 291600, Note_on_c, 1, 63, 0
3, 291600, Note_on_c, 1, 61, 92
3, 291792, Note_on_c, 1, 61, 0
3, 291840, Note_on_c, 1, 62, 92
3, 292128, Note_on_c, 1, 62, 0
3, 292320, Note_on_c, 1, 78, 92
3, 292320, Note_on_c, 1, 69, 92
3, 292320, Note_on_c, 1, 62, 92
3, 292608, Note_on_c, 1, 62, 0
3, 292608, Note_on_c, 1, 69, 0
3, 292608, Note_on_c, 1, 78, 0
3, 292800, Note_on_c, 1, 79, 92
3, 292800, Note_on_c, 1, 70, 92
3, 292800, Note_on_c, 1, 62, 92
3, 293088, Note_on_c, 1, 62, 0
3, 293088, Note_on_c, 1, 70, 0
3, 293088, Note_on_c, 1, 79, 0
3, 293280, Note_on_c, 1, 70, 92
3, 293280, Note_on_c, 1, 79, 92
3, 293280, Note_on_c, 1, 62, 92
3, 293568, Note_on_c, 1, 62, 0
3, 293568, Note_on_c, 1, 79, 0
3, 293568, Note_on_c, 1, 70, 0
3, 293760, Note_on_c, 1, 78, 92
3, 293760, Note_on_c, 1, 62, 92
3, 293760, Note_on_c, 1, 69, 92
3, 294048, Note_on_c, 1, 69, 0
3, 294048, Note_on_c, 1, 62, 0
3, 294048, Note_on_c, 1, 78, 0
3, 294240, Note_on_c, 1, 62, 92
3, 294528, Note_on_c, 1, 62, 0
3, 294720, Note_on_c, 1, 62, 92
3, 295008, Note_on_c, 1, 62, 0
3, 296160, Note_on_c, 1, 59, 98
3, 296640, Note_on_c, 1, 59, 0
3, 296640, Note_on_c, 1, 60, 72
3, 296832, Note_on_c, 1, 60, 0
3, 297120, Note_on_c, 1, 62, 72
3, 297312, Note_on_c, 1, 62, 0
3, 297600, Note_on_c, 1, 64, 72
3, 297792, Note_on_c, 1, 64, 0
3, 298080, Note_on_c, 1, 66, 72
3, 298272, Note_on_c, 1, 66, 0
3, 298560, Note_on_c, 1, 67, 72
3, 298752, Note_on_c, 1, 67, 0
3, 299040, Note_on_c, 1, 69, 72
3, 299232, Note_on_c, 1, 69, 0
3, 299520, Note_on_c, 1, 67, 72
3, 299760, Note_on_c, 1, 67, 0
3, 299760, Note_on_c, 1, 69, 72
3, 300000, Note_on_c, 1, 69, 0
3, 300000, Note_on_c, 1, 70, 72
3, 300240, Note_on_c, 1, 70, 0
3, 300240, Note_on_c, 1, 71, 72
3, 300480, Note_on_c, 1, 71, 0
3, 300480, Note_on_c, 1, 66, 72
3, 300720, Note_on_c, 1, 66, 0
3, 300720, Note_on_c, 1, 67, 72
3, 300960, Note_on_c, 1, 67, 0
3, 300960, Note_on_c, 1, 64, 72
3, 301200, Note_on_c, 1, 64, 0
3, 301200, Note_on_c, 1, 60, 72
3, 301392, Note_on_c, 1, 60, 0
3, 301440, Note_on_c, 1, 59, 72
3, 302400, Note_on_c, 1, 59, 0
3, 302400, Note_on_c, 1, 57, 72
3, 302784, Note_on_c, 1, 57, 0
3, 303360, Note_on_c, 1, 62, 92
3, 304512, Note_on_c, 1, 62, 0
3, 304800, Note_on_c, 1, 55, 72
3, 304992, Note_on_c, 1, 55, 0
3, 305280, Note_on_c, 1, 57, 72
3, 305472, Note_on_c, 1, 57, 0
3, 305760, Note_on_c, 1, 59, 72
3, 305952, Note_on_c, 1, 59, 0
3, 306240, Note_on_c, 1, 60, 72
3, 306432, Note_on_c, 1, 60, 0
3, 307200, Note_on_c, 1, 59, 72
3, 307680, Note_on_c, 1, 59, 0
3, 307680, Note_on_c, 1, 71, 72
3, 308640, Note_on_c, 1, 71, 0
3, 308640, Note_on_c, 1, 64, 72
3, 309024, Note_on_c, 1, 64, 0
3, 309120, Note_on_c, 1, 67, 72
3, 310080, Note_on_c, 1, 67, 0
3, 310080, Note_on_c, 1, 66, 72
3, 310464, Note_on_c, 1, 66, 0
3, 312960, Note_on_c, 1, 64, 72
3, 313200, Note_on_c, 1, 64, 0
3, 313200, Note_on_c, 1, 62, 72
3, 313392, Note_on_c, 1, 62, 0
3, 313440, Note_on_c, 1, 60, 72
3, 313632, Note_on_c, 1, 60, 0
3, 313680, Note_on_c, 1, 59, 72
3, 313872, Note_on_c, 1, 59, 0
3, 313920, Note_on_c, 1, 57, 72
3, 314208, Note_on_c, 1, 57, 0
3, 314400, Note_on_c, 1, 57, 72
3, 314688, Note_on_c, 1, 57, 0
3, 314880, Note_on_c, 1, 72, 58
3, 315120, Note_on_c, 1, 72, 0
3, 315120, Note_on_c, 1, 71, 58
3, 315312, Note_on_c, 1, 71, 0
3, 315360, Note_on_c, 1, 69, 58
3, 315552, Note_on_c, 1, 69, 0
3, 315600, Note_on_c, 1, 67, 58
3, 315792, Note_on_c, 1, 67, 0
3, 315840, Note_on_c, 1, 66, 58
3, 316224, Note_on_c, 1, 66, 0
3, 316800, Note_on_c, 1, 69, 58
3, 317040, Note_on_c, 1, 69, 0
3, 317040, Note_on_c, 1, 67, 58
3, 317232, Note_on_c, 1, 67, 0
3, 317280, Note_on_c, 1, 66, 58
3, 317472, Note_on_c, 1, 66, 0
3, 317520, Note_on_c, 1, 64, 58
3, 317712, Note_on_c, 1, 64, 0
3, 317760, Note_on_c, 1, 62, 58
3, 318144, Note_on_c, 1, 62, 0
3, 319200, Note_on_c, 1, 60, 58
3, 319488, Note_on_c, 1, 60, 0
3, 319680, Note_on_c, 1, 60, 58
3, 319968, Note_on_c, 1, 60, 0
3, 321120, Note_on_c, 1, 60, 58
3, 321408, Note_on_c, 1, 60, 0
3, 321600, Note_on_c, 1, 60, 58
3, 321744, Note_on_c, 1, 60, 0
3, 321840, Note_on_c, 1, 78, 58
3, 322080, Note_on_c, 1, 78, 0
3, 322080, Note_on_c, 1, 74, 58
3, 322320, Note_on_c, 1, 74, 0
3, 322320, Note_on_c, 1, 78, 58
3, 322512, Note_on_c, 1, 78, 0
3, 322560, Note_on_c, 1, 81, 58
3, 322800, Note_on_c, 1, 81, 0
3, 322800, Note_on_c, 1, 78, 58
3, 323040, Note_on_c, 1, 78, 0
3, 323040, Note_on_c, 1, 81, 58
3, 323280, Note_on_c, 1, 81, 0
3, 323280, Note_on_c, 1, 78, 58
3, 323520, Note_on_c, 1, 78, 0
3, 323520, Note_on_c, 1, 81, 58
3, 323760, Note_on_c, 1, 81, 0
3, 323760, Note_on_c, 1, 78, 58
3, 324000, Note_on_c, 1, 78, 0
3, 324000, Note_on_c, 1, 81, 58
3, 324240, Note_on_c, 1, 81, 0
3, 324240, Note_on_c, 1, 78, 58
3, 324480, Note_on_c, 1, 78, 0
3, 324480, Note_on_c, 1, 81, 58
3, 324864, Note_on_c, 1, 81, 0
3, 326400, Note_on_c, 1, 59, 58
3, 326592, Note_on_c, 1, 59, 0
3, 326640, Note_on_c, 1, 59, 58
3, 326832, Note_on_c, 1, 59, 0
3, 326880, Note_on_c, 1, 62, 58
3, 327072, Note_on_c, 1, 62, 0
3, 327120, Note_on_c, 1, 62, 58
3, 327312, Note_on_c, 1, 62, 0
3, 327360, Note_on_c, 1, 67, 58
3, 327552, Note_on_c, 1, 67, 0
3, 327600, Note_on_c, 1, 67, 58
3, 327792, Note_on_c, 1, 67, 0
3, 327840, Note_on_c, 1, 71, 58
3, 328032, Note_on_c, 1, 71, 0
3, 328080, Note_on_c, 1, 71, 58
3, 328272, Note_on_c, 1, 71, 0
3, 328320, Note_on_c, 1, 72, 58
3, 328512, Note_on_c, 1, 72, 0
3, 328560, Note_on_c, 1, 72, 58
3, 328752, Note_on_c, 1, 72, 0
3, 328800, Note_on_c, 1, 72, 58
3, 328992, Note_on_c, 1, 72, 0
3, 329040, Note_on_c, 1, 72, 58
3, 329232, Note_on_c, 1, 72, 0
3, 329280, Note_on_c, 1, 71, 58
3, 329472, Note_on_c, 1, 71, 0
3, 329520, Note_on_c, 1, 71, 58
3, 329712, Note_on_c, 1, 71, 0
3, 329760, Note_on_c, 1, 71, 58
3, 329952, Note_on_c, 1, 71, 0
3, 330000, Note_on_c, 1, 71, 58
3, 330192, Note_on_c, 1, 71, 0
3, 330240, Note_on_c, 1, 69, 58
3, 330432, Note_on_c, 1, 69, 0
3, 330480, Note_on_c, 1, 69, 58
3, 330672, Note_on_c, 1, 69, 0
3, 330720, Note_on_c, 1, 69, 58
3, 330912, Note_on_c, 1, 69, 0
3, 330960, Note_on_c, 1, 69, 58
3, 331152, Note_on_c, 1, 69, 0
3, 331200, Note_on_c, 1, 67, 58
3, 331392, Note_on_c, 1, 67, 0
3, 331440, Note_on_c, 1, 67, 58
3, 331632, Note_on_c, 1, 67, 0
3, 331680, Note_on_c, 1, 67, 58
3, 331872, Note_on_c, 1, 67, 0
3, 331920, Note_on_c, 1, 67, 58
3, 332112, Note_on_c, 1, 67, 0
3, 332160, Note_on_c, 1, 66, 58
3, 332352, Note_on_c, 1, 66, 0
3, 332400, Note_on_c, 1, 67, 58
3, 332592, Note_on_c, 1, 67, 0
3, 332640, Note_on_c, 1, 66, 58
3, 332832, Note_on_c, 1, 66, 0
3, 332880, Note_on_c, 1, 64, 58
3, 333072, Note_on_c, 1, 64, 0
3, 333120, Note_on_c, 1, 62, 58
3, 333312, Note_on_c, 1, 62, 0
3, 333360, Note_on_c, 1, 60, 58
3, 333552, Note_on_c, 1, 60, 0
3, 333600, Note_on_c, 1, 59, 58
3, 333792, Note_on_c, 1, 59, 0
3, 333840, Note_on_c, 1, 57, 58
3, 334032, Note_on_c, 1, 57, 0
3, 334080, Note_on_c, 1, 59, 58
3, 334272, Note_on_c, 1, 59, 0
3, 334320, Note_on_c, 1, 59, 58
3, 334512, Note_on_c, 1, 59, 0
3, 334560, Note_on_c, 1, 55, 58
3, 334752, Note_on_c, 1, 55, 0
3, 334800, Note_on_c, 1, 55, 58
3, 334992, Note_on_c, 1, 55, 0
3, 335040, Note_on_c, 1, 59, 58
3, 335232, Note_on_c, 1, 59, 0
3, 335280, Note_on_c, 1, 59, 58
3, 335472, Note_on_c, 1, 59, 0
3, 335520, Note_on_c, 1, 62, 58
3, 335712, Note_on_c, 1, 62, 0
3, 335760, Note_on_c, 1, 62, 58
3, 335952, Note_on_c, 1, 62, 0
3, 336000, Note_on_c, 1, 60, 58
3, 336192, Note_on_c, 1, 60, 0
3, 336240, Note_on_c, 1, 60, 58
3, 336432, Note_on_c, 1, 60, 0
3, 336480, Note_on_c, 1, 60, 58
3, 336672, Note_on_c, 1, 60, 0
3, 336720, Note_on_c, 1, 60, 58
3, 336912, Note_on_c, 1, 60, 0
3, 336960, Note_on_c, 1, 59, 58
3, 337152, Note_on_c, 1, 59, 0
3, 337200, Note_on_c, 1, 59, 58
3, 337392, Note_on_c, 1, 59, 0
3, 337440, Note_on_c, 1, 59, 58
3, 337632, Note_on_c, 1, 59, 0
3, 337680, Note_on_c, 1, 59, 58
3, 337872, Note_on_c, 1, 59, 0
3, 337920, Note_on_c, 1, 64, 58
3, 338112, Note_on_c, 1, 64, 0
3, 338160, Note_on_c, 1, 64, 58
3, 338352, Note_on_c, 1, 64, 0
3, 338400, Note_on_c, 1, 64, 58
3, 338592, Note_on_c, 1, 64, 0
3, 338640, Note_on_c, 1, 64, 58
3, 338832, Note_on_c, 1, 64, 0
3, 338880, Note_on_c, 1, 65, 58
3, 339072, Note_on_c, 1, 65, 0
3, 339120, Note_on_c, 1, 65, 58
3, 339312, Note_on_c, 1, 65, 0
3, 339360, Note_on_c, 1, 65, 58
3, 339552, Note_on_c, 1, 65, 0
3, 339600, Note_on_c, 1, 65, 58
3, 339792, Note_on_c, 1, 65, 0
3, 339840, Note_on_c, 1, 59, 58
3, 340800, Note_on_c, 1, 59, 0
3, 340800, Note_on_c, 1, 60, 58
3, 341184, Note_on_c, 1, 60, 0
3, 341760, Note_on_c, 1, 60, 58
3, 341952, Note_on_c, 1, 60, 0
3, 342000, Note_on_c, 1, 60, 58
3, 342192, Note_on_c, 1, 60, 0
3, 342240, Note_on_c, 1, 59, 58
3, 342432, Note_on_c, 1, 59, 0
3, 342480, Note_on_c, 1, 59, 58
3, 342672, Note_on_c, 1, 59, 0
3, 342720, Note_on_c, 1, 60, 58
3, 342912, Note_on_c, 1, 60, 0
3, 342960, Note_on_c, 1, 60, 58
3, 343152, Note_on_c, 1, 60, 0
3, 343200, Note_on_c, 1, 59, 58
3, 343392, Note_on_c, 1, 59, 0
3, 343440, Note_on_c, 1, 59, 58
3, 343632, Note_on_c, 1, 59, 0
3, 343680, Note_on_c, 1, 60, 58
3, 343872, Note_on_c, 1, 60, 0
3, 343920, Note_on_c, 1, 60, 58
3, 344112, Note_on_c, 1, 60, 0
3, 344160, Note_on_c, 1, 60, 58
3, 344352, Note_on_c, 1, 60, 0
3, 344400, Note_on_c, 1, 60, 58
3, 344592, Note_on_c, 1, 60, 0
3, 344640, Note_on_c, 1, 59, 58
3, 344832, Note_on_c, 1, 59, 0
3, 344880, Note_on_c, 1, 59, 58
3, 345072, Note_on_c, 1, 59, 0
3, 345120, Note_on_c, 1, 59, 58
3, 345312, Note_on_c, 1, 59, 0
3, 345360, Note_on_c, 1, 59, 58
3, 345552, Note_on_c, 1, 59, 0
3, 345600, Note_on_c, 1, 64, 58
3, 345792, Note_on_c, 1, 64, 0
3, 345840, Note_on_c, 1, 64, 58
3, 346032, Note_on_c, 1, 64, 0
3, 346080, Note_on_c, 1, 64, 58
3, 346272, Note_on_c, 1, 64, 0
3, 346320, Note_on_c, 1, 64, 58
3, 346512, Note_on_c, 1, 64, 0
3, 346560, Note_on_c, 1, 66, 58
3, 346752, Note_on_c, 1, 66, 0
3, 346800, Note_on_c, 1, 66, 58
3, 346992, Note_on_c, 1, 66, 0
3, 347040, Note_on_c, 1, 66, 58
3, 347232, Note_on_c, 1, 66, 0
3, 347280, Note_on_c, 1, 66, 58
3, 347472, Note_on_c, 1, 66, 0
3, 347520, Note_on_c, 1, 67, 58
3, 347760, Note_on_c, 1, 67, 0
3, 347760, Note_on_c, 1, 59, 58
3, 348000, Note_on_c, 1, 59, 0
3, 348000, Note_on_c, 1, 62, 58
3, 348240, Note_on_c, 1, 62, 0
3, 348240, Note_on_c, 1, 67, 58
3, 348432, Note_on_c, 1, 67, 0
3, 348480, Note_on_c, 1, 66, 58
3, 349440, Note_on_c, 1, 66, 0
3, 349440, Note_on_c, 1, 67, 58
3, 349632, Note_on_c, 1, 67, 0
3, 349680, Note_on_c, 1, 55, 58
3, 349920, Note_on_c, 1, 55, 0
3, 349920, Note_on_c, 1, 59, 58
3, 350160, Note_on_c, 1, 59, 0
3, 350160, Note_on_c, 1, 62, 58
3, 350352, Note_on_c, 1, 62, 0
3, 350400, Note_on_c, 1, 64, 58
3, 351360, Note_on_c, 1, 64, 0
3, 351360, Note_on_c, 1, 62, 58
3, 351552, Note_on_c, 1, 62, 0
3, 351600, Note_on_c, 1, 74, 58
3, 351840, Note_on_c, 1, 74, 0
3, 351840, Note_on_c, 1, 71, 58
3, 352080, Note_on_c, 1, 71, 0
3, 352080, Note_on_c, 1, 67, 58
3, 352272, Note_on_c, 1, 67, 0
3, 352320, Note_on_c, 1, 62, 58
3, 353088, Note_on_c, 1, 62, 0
3, 353280, Note_on_c, 1, 62, 78
3, 353520, Note_on_c, 1, 62, 0
3, 353520, Note_on_c, 1, 64, 105
3, 353676, Note_on_c, 1, 64, 0
3, 353760, Note_on_c, 1, 66, 105
3, 353916, Note_on_c, 1, 66, 0
3, 354000, Note_on_c, 1, 67, 105
3, 354156, Note_on_c, 1, 67, 0
3, 354240, Note_on_c, 1, 66, 105
3, 354480, Note_on_c, 1, 66, 0
3, 354480, Note_on_c, 1, 64, 105
3, 354636, Note_on_c, 1, 64, 0
3, 354720, Note_on_c, 1, 62, 105
3, 354876, Note_on_c, 1, 62, 0
3, 354960, Note_on_c, 1, 60, 105
3, 355116, Note_on_c, 1, 60, 0
3, 355200, Note_on_c, 1, 59, 105
3, 355440, Note_on_c, 1, 59, 0
3, 355440, Note_on_c, 1, 62, 105
3, 355596, Note_on_c, 1, 62, 0
3, 355680, Note_on_c, 1, 67, 105
3, 355836, Note_on_c, 1, 67, 0
3, 355920, Note_on_c, 1, 71, 105
3, 356076, Note_on_c, 1, 71, 0
3, 356160, Note_on_c, 1, 74, 105
3, 356400, Note_on_c, 1, 74, 0
3, 356400, Note_on_c, 1, 72, 105
3, 356556, Note_on_c, 1, 72, 0
3, 356640, Note_on_c, 1, 71, 105
3, 356796, Note_on_c, 1, 71, 0
3, 356880, Note_on_c, 1, 69, 105
3, 357036, Note_on_c, 1, 69, 0
3, 357120, Note_on_c, 1, 69, 105
3, 357360, Note_on_c, 1, 69, 0
3, 357360, Note_on_c, 1, 67, 105
3, 357516, Note_on_c, 1, 67, 0
3, 357600, Note_on_c, 1, 67, 105
3, 357756, Note_on_c, 1, 67, 0
3, 357840, Note_on_c, 1, 67, 105
3, 357996, Note_on_c, 1, 67, 0
3, 358080, Note_on_c, 1, 67, 105
3, 358320, Note_on_c, 1, 67, 0
3, 358320, Note_on_c, 1, 71, 105
3, 358476, Note_on_c, 1, 71, 0
3, 358560, Note_on_c, 1, 69, 105
3, 358716, Note_on_c, 1, 69, 0
3, 358800, Note_on_c, 1, 66, 105
3, 358956, Note_on_c, 1, 66, 0
3, 359040, Note_on_c, 1, 67, 110
3, 359232, Note_on_c, 1, 67, 0
3, 359280, Note_on_c, 1, 59, 58
3, 359472, Note_on_c, 1, 59, 0
3, 359520, Note_on_c, 1, 59, 58
3, 359712, Note_on_c, 1, 59, 0
3, 359760, Note_on_c, 1, 59, 58
3, 359952, Note_on_c, 1, 59, 0
3, 360000, Note_on_c, 1, 59, 58
3, 360192, Note_on_c, 1, 59, 0
3, 360240, Note_on_c, 1, 59, 58
3, 360432, Note_on_c, 1, 59, 0
3, 360480, Note_on_c, 1, 59, 58
3, 360672, Note_on_c, 1, 59, 0
3, 360720, Note_on_c, 1, 59, 58
3, 360912, Note_on_c, 1, 59, 0
3, 360960, Note_on_c, 1, 59, 58
3, 361152, Note_on_c, 1, 59, 0
3, 361200, Note_on_c, 1, 59, 58
3, 361392, Note_on_c, 1, 59, 0
3, 361440, Note_on_c, 1, 59, 58
3, 361632, Note_on_c, 1, 59, 0
3, 361680, Note_on_c, 1, 59, 58
3, 361872, Note_on_c, 1, 59, 0
3, 361920, Note_on_c, 1, 57, 58
3, 362112, Note_on_c, 1, 57, 0
3, 362160, Note_on_c, 1, 57, 58
3, 362352, Note_on_c, 1, 57, 0
3, 362400, Note_on_c, 1, 59, 58
3, 362592, Note_on_c, 1, 59, 0
3, 362640, Note_on_c, 1, 59, 58
3, 362832, Note_on_c, 1, 59, 0
3, 362880, Note_on_c, 1, 60, 58
3, 363072, Note_on_c, 1, 60, 0
3, 363120, Note_on_c, 1, 60, 58
3, 363312, Note_on_c, 1, 60, 0
3, 363360, Note_on_c, 1, 60, 58
3, 363552, Note_on_c, 1, 60, 0
3, 363600, Note_on_c, 1, 60, 58
3, 363792, Note_on_c, 1, 60, 0
3, 363840, Note_on_c, 1, 60, 58
3, 364032, Note_on_c, 1, 60, 0
3, 364080, Note_on_c, 1, 60, 58
3, 364272, Note_on_c, 1, 60, 0
3, 364320, Note_on_c, 1, 60, 58
3, 364512, Note_on_c, 1, 60, 0
3, 364560, Note_on_c, 1, 60, 58
3, 364752, Note_on_c, 1, 60, 0
3, 364800, Note_on_c, 1, 60, 58
3, 364992, Note_on_c, 1, 60, 0
3, 365040, Note_on_c, 1, 60, 58
3, 365232, Note_on_c, 1, 60, 0
3, 365280, Note_on_c, 1, 67, 58
3, 365472, Note_on_c, 1, 67, 0
3, 365520, Note_on_c, 1, 67, 58
3, 365712, Note_on_c, 1, 67, 0
3, 365760, Note_on_c, 1, 65, 58
3, 365952, Note_on_c, 1, 65, 0
3, 366000, Note_on_c, 1, 65, 58
3, 366192, Note_on_c, 1, 65, 0
3, 366240, Note_on_c, 1, 64, 58
3, 366432, Note_on_c, 1, 64, 0
3, 366480, Note_on_c, 1, 64, 58
3, 366672, Note_on_c, 1, 64, 0
3, 366720, Note_on_c, 1, 62, 58
3, 366912, Note_on_c, 1, 62, 0
3, 366960, Note_on_c, 1, 62, 58
3, 367152, Note_on_c, 1, 62, 0
3, 367200, Note_on_c, 1, 62, 58
3, 367392, Note_on_c, 1, 62, 0
3, 367440, Note_on_c, 1, 62, 58
3, 367632, Note_on_c, 1, 62, 0
3, 367680, Note_on_c, 1, 62, 58
3, 367872, Note_on_c, 1, 62, 0
3, 367920, Note_on_c, 1, 62, 58
3, 368112, Note_on_c, 1, 62, 0
3, 368160, Note_on_c, 1, 62, 58
3, 368352, Note_on_c, 1, 62, 0
3, 368400, Note_on_c, 1, 62, 58
3, 368592, Note_on_c, 1, 62, 0
3, 368640, Note_on_c, 1, 59, 58
3, 368832, Note_on_c, 1, 59, 0
3, 368880, Note_on_c, 1, 59, 58
3, 369072, Note_on_c, 1, 59, 0
3, 369120, Note_on_c, 1, 60, 58
3, 369312, Note_on_c, 1, 60, 0
3, 369360, Note_on_c, 1, 60, 58
3, 369552, Note_on_c, 1, 60, 0
3, 369600, Note_on_c, 1, 62, 58
3, 369792, Note_on_c, 1, 62, 0
3, 369840, Note_on_c, 1, 62, 58
3, 370032, Note_on_c, 1, 62, 0
3, 370080, Note_on_c, 1, 64, 58
3, 370272, Note_on_c, 1, 64, 0
3, 370320, Note_on_c, 1, 64, 58
3, 370512, Note_on_c, 1, 64, 0
3, 370560, Note_on_c, 1, 65, 58
3, 370944, Note_on_c, 1, 65, 0
3, 371760, Note_on_c, 1, 55, 92
3, 371904, Note_on_c, 1, 55, 0
3, 372000, Note_on_c, 1, 59, 92
3, 372144, Note_on_c, 1, 59, 0
3, 372240, Note_on_c, 1, 62, 92
3, 372384, Note_on_c, 1, 62, 0
3, 372480, Note_on_c, 1, 65, 92
3, 372768, Note_on_c, 1, 65, 0
3, 372960, Note_on_c, 1, 65, 92
3, 373248, Note_on_c, 1, 65, 0
3, 373440, Note_on_c, 1, 65, 92
3, 373728, Note_on_c, 1, 65, 0
3, 373920, Note_on_c, 1, 65, 92
3, 374208, Note_on_c, 1, 65, 0
3, 374400, Note_on_c, 1, 56, 92
3, 374784, Note_on_c, 1, 56, 0
3, 376320, Note_on_c, 1, 74, 58
3, 376608, Note_on_c, 1, 74, 0
3, 376800, Note_on_c, 1, 74, 58
3, 377088, Note_on_c, 1, 74, 0
3, 377280, Note_on_c, 1, 73, 58
3, 377568, Note_on_c, 1, 73, 0
3, 378240, Note_on_c, 1, 72, 58
3, 378528, Note_on_c, 1, 72, 0
3, 378720, Note_on_c, 1, 72, 58
3, 379008, Note_on_c, 1, 72, 0
3, 379200, Note_on_c, 1, 71, 58
3, 379488, Note_on_c, 1, 71, 0
3, 380160, Note_on_c, 1, 67, 58
3, 380448, Note_on_c, 1, 67, 0
3, 380640, Note_on_c, 1, 67, 58
3, 380928, Note_on_c, 1, 67, 0
3, 381120, Note_on_c, 1, 67, 58
3, 381408, Note_on_c, 1, 67, 0
3, 381600, Note_on_c, 1, 67, 58
3, 381888, Note_on_c, 1, 67, 0
3, 382080, Note_on_c, 1, 66, 58
3, 382464, Note_on_c, 1, 66, 0
3, 383280, Note_on_c, 1, 62, 92
3, 383424, Note_on_c, 1, 62, 0
3, 383520, Note_on_c, 1, 66, 92
3, 383664, Note_on_c, 1, 66, 0
3, 383760, Note_on_c, 1, 69, 92
3, 383904, Note_on_c, 1, 69, 0
3, 384000, Note_on_c, 1, 72, 92
3, 384288, Note_on_c, 1, 72, 0
3, 384480, Note_on_c, 1, 72, 92
3, 384768, Note_on_c, 1, 72, 0
3, 384960, Note_on_c, 1, 72, 92
3, 385248, Note_on_c, 1, 72, 0
3, 385440, Note_on_c, 1, 72, 92
3, 385728, Note_on_c, 1, 72, 0
3, 385920, Note_on_c, 1, 62, 92
3, 386304, Note_on_c, 1, 62, 0
3, 387840, Note_on_c, 1, 59, 58
3, 388032, Note_on_c, 1, 59, 0
3, 388080, Note_on_c, 1, 59, 58
3, 388272, Note_on_c, 1, 59, 0
3, 388320, Note_on_c, 1, 62, 58
3, 388512, Note_on_c, 1, 62, 0
3, 388560, Note_on_c, 1, 62, 58
3, 388752, Note_on_c, 1, 62, 0
3, 388800, Note_on_c, 1, 67, 58
3, 388992, Note_on_c, 1, 67, 0
3, 389040, Note_on_c, 1, 67, 58
3, 389232, Note_on_c, 1, 67, 0
3, 389280, Note_on_c, 1, 71, 58
3, 389472, Note_on_c, 1, 71, 0
3, 389520, Note_on_c, 1, 71, 58
3, 389712, Note_on_c, 1, 71, 0
3, 389760, Note_on_c, 1, 72, 58
3, 389952, Note_on_c, 1, 72, 0
3, 390000, Note_on_c, 1, 72, 58
3, 390192, Note_on_c, 1, 72, 0
3, 390240, Note_on_c, 1, 72, 58
3, 390432, Note_on_c, 1, 72, 0
3, 390480, Note_on_c, 1, 72, 58
3, 390672, Note_on_c, 1, 72, 0
3, 390720, Note_on_c, 1, 71, 58
3, 390912, Note_on_c, 1, 71, 0
3, 390960, Note_on_c, 1, 71, 58
3, 391152, Note_on_c, 1, 71, 0
3, 391200, Note_on_c, 1, 71, 58
3, 391392, Note_on_c, 1, 71, 0
3, 391440, Note_on_c, 1, 71, 58
3, 391632, Note_on_c, 1, 71, 0
3, 391680, Note_on_c, 1, 69, 58
3, 391872, Note_on_c, 1, 69, 0
3, 391920, Note_on_c, 1, 69, 58
3, 392112, Note_on_c, 1, 69, 0
3, 392160, Note_on_c, 1, 69, 58
3, 392352, Note_on_c, 1, 69, 0
3, 392400, Note_on_c, 1, 69, 58
3, 392592, Note_on_c, 1, 69, 0
3, 392640, Note_on_c, 1, 67, 58
3, 392832, Note_on_c, 1, 67, 0
3, 392880, Note_on_c, 1, 67, 58
3, 393072, Note_on_c, 1, 67, 0
3, 393120, Note_on_c, 1, 67, 58
3, 393312, Note_on_c, 1, 67, 0
3, 393360, Note_on_c, 1, 67, 58
3, 393552, Note_on_c, 1, 67, 0
3, 393600, Note_on_c, 1, 66, 58
3, 393792, Note_on_c, 1, 66, 0
3, 393840, Note_on_c, 1, 71, 58
3, 394032, Note_on_c, 1, 71, 0
3, 394080, Note_on_c, 1, 69, 58
3, 394272, Note_on_c, 1, 69, 0
3, 394320, Note_on_c, 1, 67, 58
3, 394512, Note_on_c, 1, 67, 0
3, 394560, Note_on_c, 1, 66, 58
3, 394752, Note_on_c, 1, 66, 0
3, 394800, Note_on_c, 1, 64, 58
3, 394992, Note_on_c, 1, 64, 0
3, 395040, Note_on_c, 1, 62, 58
3, 395232, Note_on_c, 1, 62, 0
3, 395280, Note_on_c, 1, 60, 58
3, 395472, Note_on_c, 1, 60, 0
3, 395520, Note_on_c, 1, 59, 58
3, 395712, Note_on_c, 1, 59, 0
3, 395760, Note_on_c, 1, 59, 58
3, 395952, Note_on_c, 1, 59, 0
3, 396000, Note_on_c, 1, 62, 58
3, 396192, Note_on_c, 1, 62, 0
3, 396240, Note_on_c, 1, 62, 58
3, 396432, Note_on_c, 1, 62, 0
3, 396480, Note_on_c, 1, 67, 58
3, 396672, Note_on_c, 1, 67, 0
3, 396720, Note_on_c, 1, 67, 58
3, 396912, Note_on_c, 1, 67, 0
3, 396960, Note_on_c, 1, 71, 58
3, 397152, Note_on_c, 1, 71, 0
3, 397200, Note_on_c, 1, 71, 58
3, 397392, Note_on_c, 1, 71, 0
3, 397440, Note_on_c, 1, 72, 58
3, 397632, Note_on_c, 1, 72, 0
3, 397680, Note_on_c, 1, 72, 58
3, 397872, Note_on_c, 1, 72, 0
3, 397920, Note_on_c, 1, 72, 58
3, 398112, Note_on_c, 1, 72, 0
3, 398160, Note_on_c, 1, 72, 58
3, 398352, Note_on_c, 1, 72, 0
3, 398400, Note_on_c, 1, 71, 58
3, 398592, Note_on_c, 1, 71, 0
3, 398640, Note_on_c, 1, 71, 58
3, 398832, Note_on_c, 1, 71, 0
3, 398880, Note_on_c, 1, 71, 58
3, 399072, Note_on_c, 1, 71, 0
3, 399120, Note_on_c, 1, 71, 58
3, 399312, Note_on_c, 1, 71, 0
3, 399360, Note_on_c, 1, 76, 58
3, 399552, Note_on_c, 1, 76, 0
3, 399600, Note_on_c, 1, 76, 58
3, 399792, Note_on_c, 1, 76, 0
3, 399840, Note_on_c, 1, 76, 58
3, 400032, Note_on_c, 1, 76, 0
3, 400080, Note_on_c, 1, 76, 58
3, 400272, Note_on_c, 1, 76, 0
3, 400320, Note_on_c, 1, 72, 58
3, 400512, Note_on_c, 1, 72, 0
3, 400560, Note_on_c, 1, 72, 58
3, 400752, Note_on_c, 1, 72, 0
3, 400800, Note_on_c, 1, 72, 58
3, 400992, Note_on_c, 1, 72, 0
3, 401040, Note_on_c, 1, 72, 58
3, 401232, Note_on_c, 1, 72, 0
3, 401280, Note_on_c, 1, 67, 58
3, 401568, Note_on_c, 1, 67, 0
3, 401760, Note_on_c, 1, 67, 58
3, 402240, Note_on_c, 1, 67, 0
3, 402240, Note_on_c, 1, 69, 58
3, 402720, Note_on_c, 1, 69, 0
3, 402720, Note_on_c, 1, 71, 58
3, 403008, Note_on_c, 1, 71, 0
3, 403680, Note_on_c, 1, 69, 58
3, 404160, Note_on_c, 1, 69, 0
3, 404160, Note_on_c, 1, 67, 58
3, 404640, Note_on_c, 1, 67, 0
3, 404640, Note_on_c, 1, 66, 58
3, 404928, Note_on_c, 1, 66, 0
3, 405600, Note_on_c, 1, 67, 58
3, 406080, Note_on_c, 1, 67, 0
3, 406080, Note_on_c, 1, 69, 58
3, 406560, Note_on_c, 1, 69, 0
3, 406560, Note_on_c, 1, 71, 58
3, 406944, Note_on_c, 1, 71, 0
3, 407520, Note_on_c, 1, 69, 58
3, 408000, Note_on_c, 1, 69, 0
3, 408000, Note_on_c, 1, 67, 58
3, 408480, Note_on_c, 1, 67, 0
3, 408480, Note_on_c, 1, 66, 58
3, 408768, Note_on_c, 1, 66, 0
3, 409440, Note_on_c, 1, 67, 58
3, 409920, Note_on_c, 1, 67, 0
3, 409920, Note_on_c, 1, 69, 58
3, 410400, Note_on_c, 1, 69, 0
3, 410400, Note_on_c, 1, 71, 58
3, 410784, Note_on_c, 1, 71, 0
3, 411360, Note_on_c, 1, 69, 58
3, 411840, Note_on_c, 1, 69, 0
3, 411840, Note_on_c, 1, 66, 58
3, 412128, Note_on_c, 1, 66, 0
3, 412320, Note_on_c, 1, 72, 58
3, 412608, Note_on_c, 1, 72, 0
3, 412800, Note_on_c, 1, 71, 58
3, 413568, Note_on_c, 1, 71, 0
3, 413760, Note_on_c, 1, 74, 58
3, 414000, Note_on_c, 1, 74, 0
3, 414000, Note_on_c, 1, 72, 58
3, 414240, Note_on_c, 1, 72, 0
3, 414240, Note_on_c, 1, 71, 58
3, 414480, Note_on_c, 1, 71, 0
3, 414480, Note_on_c, 1, 69, 58
3, 414672, Note_on_c, 1, 69, 0
3, 414720, Note_on_c, 1, 67, 58
3, 414960, Note_on_c, 1, 67, 0
3, 414960, Note_on_c, 1, 69, 58
3, 415200, Note_on_c, 1, 69, 0
3, 415200, Note_on_c, 1, 70, 58
3, 415440, Note_on_c, 1, 70, 0
3, 415440, Note_on_c, 1, 71, 58
3, 415632, Note_on_c, 1, 71, 0
3, 415680, Note_on_c, 1, 71, 58
3, 415920, Note_on_c, 1, 71, 0
3, 415920, Note_on_c, 1, 69, 58
3, 416160, Note_on_c, 1, 69, 0
3, 416160, Note_on_c, 1, 67, 58
3, 416400, Note_on_c, 1, 67, 0
3, 416400, Note_on_c, 1, 66, 58
3, 416592, Note_on_c, 1, 66, 0
3, 416640, Note_on_c, 1, 67, 58
3, 417096, Note_on_c, 1, 67, 0
3, 418080, Note_on_c, 1, 79, 105
3, 418368, Note_on_c, 1, 79, 0
3, 418560, Note_on_c, 1, 78, 105
3, 418848, Note_on_c, 1, 78, 0
3, 419040, Note_on_c, 1, 79, 105
3, 419328, Note_on_c, 1, 79, 0
3, 419520, Note_on_c, 1, 81, 105
3, 420240, Note_on_c, 1, 81, 0
3, 420240, Note_on_c, 1, 83, 105
3, 420360, Note_on_c, 1, 83, 0
3, 420360, Note_on_c, 1, 84, 125
3, 420432, Note_on_c, 1, 84, 0
3, 420480, Note_on_c, 1, 82, 105
3, 420960, Note_on_c, 1, 82, 0
3, 420960, Note_on_c, 1, 83, 105
3, 421344, Note_on_c, 1, 83, 0
3, 421920, Note_on_c, 1, 79, 105
3, 422208, Note_on_c, 1, 79, 0
3, 422400, Note_on_c, 1, 78, 105
3, 422688, Note_on_c, 1, 78, 0
3, 422880, Note_on_c, 1, 79, 105
3, 423168, Note_on_c, 1, 79, 0
3, 423360, Note_on_c, 1, 81, 105
3, 424080, Note_on_c, 1, 81, 0
3, 424080, Note_on_c, 1, 83, 105
3, 424200, Note_on_c, 1, 83, 0
3, 424200, Note_on_c, 1, 84, 125
3, 424272, Note_on_c, 1, 84, 0
3, 424320, Note_on_c, 1, 82, 105
3, 424800, Note_on_c, 1, 82, 0
3, 424800, Note_on_c, 1, 83, 105
3, 425184, Note_on_c, 1, 83, 0
3, 425760, Note_on_c, 1, 79, 105
3, 426048, Note_on_c, 1, 79, 0
3, 426240, Note_on_c, 1, 78, 105
3, 426528, Note_on_c, 1, 78, 0
3, 426720, Note_on_c, 1, 79, 105
3, 427008, Note_on_c, 1, 79, 0
3, 427200, Note_on_c, 1, 81, 105
3, 427920, Note_on_c, 1, 81, 0
3, 427920, Note_on_c, 1, 83, 105
3, 428040, Note_on_c, 1, 83, 0
3, 428040, Note_on_c, 1, 84, 125
3, 428112, Note_on_c, 1, 84, 0
3, 428160, Note_on_c, 1, 83, 105
3, 428400, Note_on_c, 1, 83, 0
3, 428400, Note_on_c, 1, 79, 105
3, 428544, Note_on_c, 1, 79, 0
3, 428640, Note_on_c, 1, 79, 105
3, 428784, Note_on_c, 1, 79, 0
3, 428880, Note_on_c, 1, 79, 105
3, 429024, Note_on_c, 1, 79, 0
3, 429120, Note_on_c, 1, 79, 105
3, 429360, Note_on_c, 1, 79, 0
3, 429360, Note_on_c, 1, 71, 105
3, 429504, Note_on_c, 1, 71, 0
3, 429600, Note_on_c, 1, 71, 105
3, 429744, Note_on_c, 1, 71, 0
3, 429840, Note_on_c, 1, 71, 105
3, 429984, Note_on_c, 1, 71, 0
3, 430080, Note_on_c, 1, 76, 105
3, 430320, Note_on_c, 1, 76, 0
3, 430320, Note_on_c, 1, 72, 105
3, 430464, Note_on_c, 1, 72, 0
3, 430560, Note_on_c, 1, 72, 105
3, 430704, Note_on_c, 1, 72, 0
3, 430800, Note_on_c, 1, 72, 105
3, 430944, Note_on_c, 1, 72, 0
3, 431040, Note_on_c, 1, 71, 105
3, 431280, Note_on_c, 1, 71, 0
3, 431280, Note_on_c, 1, 67, 105
3, 431424, Note_on_c, 1, 67, 0
3, 431520, Note_on_c, 1, 69, 105
3, 431760, Note_on_c, 1, 69, 0
3, 431760, Note_on_c, 1, 66, 105
3, 431904, Note_on_c, 1, 66, 0
3, 432000, Note_on_c, 1, 67, 125
3, 432180, Note_on_c, 1, 67, 0
3, 432240, Note_on_c, 1, 67, 105
3, 432240, Note_on_c, 1, 55, 105
3, 432420, Note_on_c, 1, 55, 0
3, 432420, Note_on_c, 1, 67, 0
3, 432480, Note_on_c, 1, 55, 105
3, 432480, Note_on_c, 1, 67, 105
3, 432660, Note_on_c, 1, 67, 0
3, 432660, Note_on_c, 1, 55, 0
3, 432720, Note_on_c, 1, 67, 105
3, 432720, Note_on_c, 1, 55, 105
3, 432900, Note_on_c, 1, 55, 0
3, 432900, Note_on_c, 1, 67, 0
3, 432960, Note_on_c, 1, 67, 105
3, 432960, Note_on_c, 1, 55, 105
3, 433140, Note_on_c, 1, 55, 0
3, 433140, Note_on_c, 1, 67, 0
3, 433200, Note_on_c, 1, 55, 105
3, 433200, Note_on_c, 1, 67, 105
3, 433380, Note_on_c, 1, 67, 0
3, 433380, Note_on_c, 1, 55, 0
3, 433440, Note_on_c, 1, 67, 105
3, 433440, Note_on_c, 1, 55, 105
3, 433620, Note_on_c, 1, 55, 0
3, 433620, Note_on_c, 1, 67, 0
3, 433680, Note_on_c, 1, 67, 105
3, 433680, Note_on_c, 1, 55, 105
3, 433860, Note_on_c, 1, 55, 0
3, 433860, Note_on_c, 1, 67, 0
3, 433920, Note_on_c, 1, 67, 105
3, 433920, Note_on_c, 1, 55, 105
3, 434100, Note_on_c, 1, 55, 0
3, 434100, Note_on_c, 1, 67, 0
3, 434160, Note_on_c, 1, 55, 105
3, 434160, Note_on_c, 1, 67, 105
3, 434340, Note_on_c, 1, 67, 0
3, 434340, Note_on_c, 1, 55, 0
3, 434400, Note_on_c, 1, 67, 105
3, 434400, Note_on_c, 1, 55, 105
3, 434580, Note_on_c, 1, 55, 0
3, 434580, Note_on_c, 1, 67, 0
3, 434640, Note_on_c, 1, 55, 105
3, 434640, Note_on_c, 1, 67, 105
3, 434820, Note_on_c, 1, 67, 0
3, 434820, Note_on_c, 1, 55, 0
3, 434880, Note_on_c, 1, 55, 105
3, 434880, Note_on_c, 1, 67, 105
3, 435060, Note_on_c, 1, 67, 0
3, 435060, Note_on_c, 1, 55, 0
3, 435120, Note_on_c, 1, 55, 105
3, 435120, Note_on_c, 1, 67, 105
3, 435300, Note_on_c, 1, 67, 0
3, 435300, Note_on_c, 1, 55, 0
3, 435360, Note_on_c, 1, 67, 105
3, 435360, Note_on_c, 1, 55, 105
3, 435540, Note_on_c, 1, 55, 0
3, 435540, Note_on_c, 1, 67, 0
3, 435600, Note_on_c, 1, 55, 105
3, 435600, Note_on_c, 1, 67, 105
3, 435780, Note_on_c, 1, 67, 0
3, 435780, Note_on_c, 1, 55, 0
3, 435840, Note_on_c, 1, 67, 105
3, 435840, Note_on_c, 1, 55, 105
3, 436020, Note_on_c, 1, 55, 0
3, 436020, Note_on_c, 1, 67, 0
3, 436080, Note_on_c, 1, 55, 105
3, 436080, Note_on_c, 1, 67, 105
3, 436260, Note_on_c, 1, 67, 0
3, 436260, Note_on_c, 1, 55, 0
3, 436320, Note_on_c, 1, 55, 105
3, 436320, Note_on_c, 1, 67, 105
3, 436500, Note_on_c, 1, 67, 0
3, 436500, Note_on_c, 1, 55, 0
3, 436560, Note_on_c, 1, 55, 105
3, 436560, Note_on_c, 1, 67, 105
3, 436740, Note_on_c, 1, 67, 0
3, 436740, Note_on_c, 1, 55, 0
3, 436800, Note_on_c, 1, 67, 105
3, 436800, Note_on_c, 1, 55, 105
3, 436980, Note_on_c, 1, 55, 0
3, 436980, Note_on_c, 1, 67, 0
3, 437040, Note_on_c, 1, 55, 105
3, 437040, Note_on_c, 1, 67, 105
3, 437220, Note_on_c, 1, 67, 0
3, 437220, Note_on_c, 1, 55, 0
3, 437280, Note_on_c, 1, 67, 105
3, 437280, Note_on_c, 1, 55, 105
3, 437460, Note_on_c, 1, 55, 0
3, 437460, Note_on_c, 1, 67, 0
3, 437520, Note_on_c, 1, 67, 105
3, 437520, Note_on_c, 1, 55, 105
3, 437700, Note_on_c, 1, 55, 0
3, 437700, Note_on_c, 1, 67, 0
3, 437760, Note_on_c, 1, 67, 105
3, 437760, Note_on_c, 1, 55, 105
3, 437940, Note_on_c, 1, 55, 0
3, 437940, Note_on_c, 1, 67, 0
3, 438000, Note_on_c, 1, 67, 105
3, 438000, Note_on_c, 1, 55, 105
3, 438180, Note_on_c, 1, 55, 0
3, 438180, Note_on_c, 1, 67, 0
3, 438240, Note_on_c, 1, 67, 105
3, 438240, Note_on_c, 1, 55, 105
3, 438420, Note_on_c, 1, 55, 0
3, 438420, Note_on_c, 1, 67, 0
3, 438480, Note_on_c, 1, 55, 105
3, 438480, Note_on_c, 1, 67, 105
3, 438660, Note_on_c, 1, 67, 0
3, 438660, Note_on_c, 1, 55, 0
3, 438720, Note_on_c, 1, 67, 105
3, 438720, Note_on_c, 1, 55, 105
3, 438900, Note_on_c, 1, 55, 0
3, 438900, Note_on_c, 1, 67, 0
3, 438960, Note_on_c, 1, 55, 105
3, 438960, Note_on_c, 1, 67, 105
3, 439140, Note_on_c, 1, 67, 0
3, 439140, Note_on_c, 1, 55, 0
3, 439200, Note_on_c, 1, 55, 105
3, 439200, Note_on_c, 1, 67, 105
3, 439380, Note_on_c, 1, 67, 0
3, 439380, Note_on_c, 1, 55, 0
3, 439440, Note_on_c, 1, 67, 105
3, 439440, Note_on_c, 1, 55, 105
3, 439620, Note_on_c, 1, 55, 0
3, 439620, Note_on_c, 1, 67, 0
3, 439680, Note_on_c, 1, 55, 105
3, 439680, Note_on_c, 1, 67, 105
3, 439860, Note_on_c, 1, 67, 0
3, 439860, Note_on_c, 1, 55, 0
3, 439920, Note_on_c, 1, 55, 105
3, 439920, Note_on_c, 1, 67, 105
3, 440100, Note_on_c, 1, 67, 0
3, 440100, Note_on_c, 1, 55, 0
3, 440160, Note_on_c, 1, 55, 105
3, 440160, Note_on_c, 1, 67, 105
3, 440340, Note_on_c, 1, 67, 0
3, 440340, Note_on_c, 1, 55, 0
3, 440400, Note_on_c, 1, 67, 105
3, 440400, Note_on_c, 1, 55, 105
3, 440580, Note_on_c, 1, 55, 0
3, 440580, Note_on_c, 1, 67, 0
3, 440640, Note_on_c, 1, 67, 105
3, 440640, Note_on_c, 1, 55, 105
3, 440820, Note_on_c, 1, 55, 0
3, 440820, Note_on_c, 1, 67, 0
3, 440880, Note_on_c, 1, 55, 105
3, 440880, Note_on_c, 1, 67, 105
3, 441060, Note_on_c, 1, 67, 0
3, 441060, Note_on_c, 1, 55, 0
3, 441120, Note_on_c, 1, 67, 105
3, 441120, Note_on_c, 1, 55, 105
3, 441300, Note_on_c, 1, 55, 0
3, 441300, Note_on_c, 1, 67, 0
3, 441360, Note_on_c, 1, 55, 105
3, 441360, Note_on_c, 1, 67, 105
3, 441540, Note_on_c, 1, 67, 0
3, 441540, Note_on_c, 1, 55, 0
3, 441600, Note_on_c, 1, 67, 105
3, 441600, Note_on_c, 1, 55, 105
3, 441780, Note_on_c, 1, 55, 0
3, 441780, Note_on_c, 1, 67, 0
3, 441840, Note_on_c, 1, 55, 105
3, 441840, Note_on_c, 1, 67, 105
3, 442020, Note_on_c, 1, 67, 0
3, 442020, Note_on_c, 1, 55, 0
3, 442080, Note_on_c, 1, 55, 105
3, 442080, Note_on_c, 1, 67, 105
3, 442260, Note_on_c, 1, 67, 0
3, 442260, Note_on_c, 1, 55, 0
3, 442320, Note_on_c, 1, 67, 105
3, 442320, Note_on_c, 1, 55, 105
3, 442500, Note_on_c, 1, 55, 0
3, 442500, Note_on_c, 1, 67, 0
3, 442560, Note_on_c, 1, 67, 105
3, 442560, Note_on_c, 1, 55, 105
3, 442740, Note_on_c, 1, 55, 0
3, 442740, Note_on_c, 1, 67, 0
3, 442800, Note_on_c, 1, 67, 105
3, 442800, Note_on_c, 1, 55, 105
3, 442980, Note_on_c, 1, 55, 0
3, 442980, Note_on_c, 1, 67, 0
3, 443040, Note_on_c, 1, 55, 105
3, 443040, Note_on_c, 1, 67, 105
3, 443220, Note_on_c, 1, 67, 0
3, 443220, Note_on_c, 1, 55, 0
3, 443280, Note_on_c, 1, 67, 105
3, 443280, Note_on_c, 1, 55, 105
3, 443460, Note_on_c, 1, 55, 0
3, 443460, Note_on_c, 1, 67, 0
3, 443520, Note_on_c, 1, 67, 105
3, 443520, Note_on_c, 1, 55, 105
3, 443700, Note_on_c, 1, 55, 0
3, 443700, Note_on_c, 1, 67, 0
3, 443760, Note_on_c, 1, 67, 105
3, 443760, Note_on_c, 1, 55, 105
3, 443940, Note_on_c, 1, 55, 0
3, 443940, Note_on_c, 1, 67, 0
3, 444000, Note_on_c, 1, 67, 105
3, 444000, Note_on_c, 1, 55, 105
3, 444180, Note_on_c, 1, 55, 0
3, 444180, Note_on_c, 1, 67, 0
3, 444240, Note_on_c, 1, 67, 105
3, 444240, Note_on_c, 1, 55, 105
3, 444420, Note_on_c, 1, 55, 0
3, 444420, Note_on_c, 1, 67, 0
3, 444480, Note_on_c, 1, 55, 105
3, 444480, Note_on_c, 1, 67, 105
3, 444660, Note_on_c, 1, 67, 0
3, 444660, Note_on_c, 1, 55, 0
3, 444720, Note_on_c, 1, 55, 105
3, 444720, Note_on_c, 1, 67, 105
3, 444900, Note_on_c, 1, 67, 0
3, 444900, Note_on_c, 1, 55, 0
3, 444960, Note_on_c, 1, 55, 105
3, 444960, Note_on_c, 1, 67, 105
3, 445140, Note_on_c, 1, 67, 0
3, 445140, Note_on_c, 1, 55, 0
3, 445200, Note_on_c, 1, 55, 105
3, 445200, Note_on_c, 1, 67, 105
3, 445380, Note_on_c, 1, 67, 0
3, 445380, Note_on_c, 1, 55, 0
3, 445440, Note_on_c, 1, 67, 105
3, 445440, Note_on_c, 1, 55, 105
3, 445620, Note_on_c, 1, 55, 0
3, 445620, Note_on_c, 1, 67, 0
3, 445680, Note_on_c, 1, 55, 105
3, 445680, Note_on_c, 1, 67, 105
3, 445860, Note_on_c, 1, 67, 0
3, 445860, Note_on_c, 1, 55, 0
3, 445920, Note_on_c, 1, 55, 105
3, 445920, Note_on_c, 1, 67, 105
3, 446100, Note_on_c, 1, 67, 0
3, 446100, Note_on_c, 1, 55, 0
3, 446160, Note_on_c, 1, 55, 105
3, 446160, Note_on_c, 1, 67, 105
3, 446340, Note_on_c, 1, 67, 0
3, 446340, Note_on_c, 1, 55, 0
3, 446400, Note_on_c, 1, 55, 105
3, 446400, Note_on_c, 1, 67, 105
3, 446580, Note_on_c, 1, 67, 0
3, 446580, Note_on_c, 1, 55, 0
3, 446640, Note_on_c, 1, 67, 105
3, 446640, Note_on_c, 1, 55, 105
3, 446820, Note_on_c, 1, 55, 0
3, 446820, Note_on_c, 1, 67, 0
3, 446880, Note_on_c, 1, 55, 105
3, 446880, Note_on_c, 1, 67, 105
3, 447060, Note_on_c, 1, 67, 0
3, 447060, Note_on_c, 1, 55, 0
3, 447120, Note_on_c, 1, 55, 105
3, 447120, Note_on_c, 1, 67, 105
3, 447300, Note_on_c, 1, 67, 0
3, 447300, Note_on_c, 1, 55, 0
3, 447360, Note_on_c, 1, 55, 105
3, 447360, Note_on_c, 1, 67, 105
3, 447744, Note_on_c, 1, 67, 0
3, 447744, Note_on_c, 1, 55, 0
3, 448320, Note_on_c, 1, 71, 105
3, 448320, Note_on_c, 1, 79, 105
3, 448320, Note_on_c, 1, 62, 105
3, 448704, Note_on_c, 1, 62, 0
3, 448704, Note_on_c, 1, 79, 0
3, 448704, Note_on_c, 1, 71, 0
3, 449280, Note_on_c, 1, 55, 92
3, 450048, Note_on_c, 1, 55, 0
3, 450048, End_track
4, 0, Start_track
4, 0, Program_c, 2, 48
4, 0, Control_c, 2, 7, 127
4, 0, Control_c, 2, 10, 30
4, 0, Control_c, 2, 91, 85
4, 1920, Note_on_c, 2, 55, 58
4, 2112, Note_on_c, 2, 55, 0
4, 2160, Note_on_c, 2, 55, 58
4, 2352, Note_on_c, 2, 55, 0
4, 2400, Note_on_c, 2, 59, 58
4, 2592, Note_on_c, 2, 59, 0
4, 2640, Note_on_c, 2, 59, 58
4, 2832, Note_on_c, 2, 59, 0
4, 2880, Note_on_c, 2, 62, 58
4, 3072, Note_on_c, 2, 62, 0
4, 3120, Note_on_c, 2, 62, 58
4, 3312, Note_on_c, 2, 62, 0
4, 3360, Note_on_c, 2, 67, 58
4, 3552, Note_on_c, 2, 67, 0
4, 3600, Note_on_c, 2, 67, 58
4, 3792, Note_on_c, 2, 67, 0
4, 3840, Note_on_c, 2, 69, 58
4, 4032, Note_on_c, 2, 69, 0
4, 4080, Note_on_c, 2, 69, 58
4, 4272, Note_on_c, 2, 69, 0
4, 4320, Note_on_c, 2, 69, 58
4, 4512, Note_on_c, 2, 69, 0
4, 4560, Note_on_c, 2, 69, 58
4, 4752, Note_on_c, 2, 69, 0
4, 4800, Note_on_c, 2, 67, 58
4, 4992, Note_on_c, 2, 67, 0
4, 5040, Note_on_c, 2, 67, 58
4, 5232, Note_on_c, 2, 67, 0
4, 5280, Note_on_c, 2, 67, 58
4, 5472, Note_on_c, 2, 67, 0
4, 5520, Note_on_c, 2, 67, 58
4, 5712, Note_on_c, 2, 67, 0
4, 5760, Note_on_c, 2, 62, 58
4, 5952, Note_on_c, 2, 62, 0
4, 6000, Note_on_c, 2, 62, 58
4, 6192, Note_on_c, 2, 62, 0
4, 6240, Note_on_c, 2, 62, 58
4, 6432, Note_on_c, 2, 62, 0
4, 6480, Note_on_c, 2, 62, 58
4, 6672, Note_on_c, 2, 62, 0
4, 6720, Note_on_c, 2, 62, 58
4, 6912, Note_on_c, 2, 62, 0
4, 6960, Note_on_c, 2, 62, 58
4, 7152, Note_on_c, 2, 62, 0
4, 7200, Note_on_c, 2, 62, 58
4, 7392, Note_on_c, 2, 62, 0
4, 7440, Note_on_c, 2, 62, 58
4, 7632, Note_on_c, 2, 62, 0
4, 7680, Note_on_c, 2, 62, 58
4, 7872, Note_on_c, 2, 62, 0
4, 7920, Note_on_c, 2, 67, 58
4, 8112, Note_on_c, 2, 67, 0
4, 8160, Note_on_c, 2, 66, 58
4, 8352, Note_on_c, 2, 66, 0
4, 8400, Note_on_c, 2, 64, 58
4, 8592, Note_on_c, 2, 64, 0
4, 8640, Note_on_c, 2, 62, 58
4, 8832, Note_on_c, 2, 62, 0
4, 8880, Note_on_c, 2, 60, 58
4, 9072, Note_on_c, 2, 60, 0
4, 9120, Note_on_c, 2, 59, 58
4, 9312, Note_on_c, 2, 59, 0
4, 9360, Note_on_c, 2, 57, 58
4, 9552, Note_on_c, 2, 57, 0
4, 9600, Note_on_c, 2, 55, 58
4, 9792, Note_on_c, 2, 55, 0
4, 9840, Note_on_c, 2, 55, 58
4, 10032, Note_on_c, 2, 55, 0
4, 10080, Note_on_c, 2, 59, 58
4, 10272, Note_on_c, 2, 59, 0
4, 10320, Note_on_c, 2, 59, 58
4, 10512, Note_on_c, 2, 59, 0
4, 10560, Note_on_c, 2, 62, 58
4, 10752, Note_on_c, 2, 62, 0
4, 10800, Note_on_c, 2, 62, 58
4, 10992, Note_on_c, 2, 62, 0
4, 11040, Note_on_c, 2, 67, 58
4, 11232, Note_on_c, 2, 67, 0
4, 11280, Note_on_c, 2, 67, 58
4, 11472, Note_on_c, 2, 67, 0
4, 11520, Note_on_c, 2, 69, 58
4, 11712, Note_on_c, 2, 69, 0
4, 11760, Note_on_c, 2, 69, 58
4, 11952, Note_on_c, 2, 69, 0
4, 12000, Note_on_c, 2, 69, 58
4, 12192, Note_on_c, 2, 69, 0
4, 12240, Note_on_c, 2, 69, 58
4, 12432, Note_on_c, 2, 69, 0
4, 12480, Note_on_c, 2, 67, 58
4, 12672, Note_on_c, 2, 67, 0
4, 12720, Note_on_c, 2, 67, 58
4, 12912, Note_on_c, 2, 67, 0
4, 12960, Note_on_c, 2, 67, 58
4, 13152, Note_on_c, 2, 67, 0
4, 13200, Note_on_c, 2, 67, 58
4, 13392, Note_on_c, 2, 67, 0
4, 13440, Note_on_c, 2, 67, 58
4, 13632, Note_on_c, 2, 67, 0
4, 13680, Note_on_c, 2, 67, 58
4, 13872, Note_on_c, 2, 67, 0
4, 13920, Note_on_c, 2, 67, 58
4, 14112, Note_on_c, 2, 67, 0
4, 14160, Note_on_c, 2, 67, 58
4, 14352, Note_on_c, 2, 67, 0
4, 14400, Note_on_c, 2, 66, 58
4, 14592, Note_on_c, 2, 66, 0
4, 14640, Note_on_c, 2, 66, 58
4, 14832, Note_on_c, 2, 66, 0
4, 14880, Note_on_c, 2, 67, 58
4, 15072, Note_on_c, 2, 67, 0
4, 15120, Note_on_c, 2, 69, 58
4, 15312, Note_on_c, 2, 69, 0
4, 15360, Note_on_c, 2, 67, 58
4, 15552, Note_on_c, 2, 67, 0
4, 15600, Note_on_c, 2, 67, 58
4, 15792, Note_on_c, 2, 67, 0
4, 15840, Note_on_c, 2, 66, 58
4, 16032, Note_on_c, 2, 66, 0
4, 16080, Note_on_c, 2, 64, 58
4, 16272, Note_on_c, 2, 64, 0
4, 16320, Note_on_c, 2, 62, 58
4, 16512, Note_on_c, 2, 62, 0
4, 16560, Note_on_c, 2, 60, 58
4, 16752, Note_on_c, 2, 60, 0
4, 16800, Note_on_c, 2, 59, 58
4, 16992, Note_on_c, 2, 59, 0
4, 17040, Note_on_c, 2, 57, 58
4, 17232, Note_on_c, 2, 57, 0
4, 17280, Note_on_c, 2, 55, 58
4, 17472, Note_on_c, 2, 55, 0
4, 17520, Note_on_c, 2, 55, 58
4, 17712, Note_on_c, 2, 55, 0
4, 17760, Note_on_c, 2, 59, 58
4, 17952, Note_on_c, 2, 59, 0
4, 18000, Note_on_c, 2, 59, 58
4, 18192, Note_on_c, 2, 59, 0
4, 18240, Note_on_c, 2, 62, 58
4, 18432, Note_on_c, 2, 62, 0
4, 18480, Note_on_c, 2, 62, 58
4, 18672, Note_on_c, 2, 62, 0
4, 18720, Note_on_c, 2, 67, 58
4, 18912, Note_on_c, 2, 67, 0
4, 18960, Note_on_c, 2, 67, 58
4, 19152, Note_on_c, 2, 67, 0
4, 19200, Note_on_c, 2, 69, 58
4, 19392, Note_on_c, 2, 69, 0
4, 19440, Note_on_c, 2, 69, 58
4, 19632, Note_on_c, 2, 69, 0
4, 19680, Note_on_c, 2, 69, 58
4, 19872, Note_on_c, 2, 69, 0
4, 19920, Note_on_c, 2, 69, 58
4, 20112, Note_on_c, 2, 69, 0
4, 20160, Note_on_c, 2, 67, 58
4, 20352, Note_on_c, 2, 67, 0
4, 20400, Note_on_c, 2, 67, 58
4, 20592, Note_on_c, 2, 67, 0
4, 20640, Note_on_c, 2, 67, 58
4, 20832, Note_on_c, 2, 67, 0
4, 20880, Note_on_c, 2, 67, 58
4, 21072, Note_on_c, 2, 67, 0
4, 21120, Note_on_c, 2, 62, 58
4, 21312, Note_on_c, 2, 62, 0
4, 21360, Note_on_c, 2, 62, 58
4, 21552, Note_on_c, 2, 62, 0
4, 21600, Note_on_c, 2, 62, 58
4, 21792, Note_on_c, 2, 62, 0
4, 21840, Note_on_c, 2, 62, 58
4, 22032, Note_on_c, 2, 62, 0
4, 22080, Note_on_c, 2, 62, 58
4, 22272, Note_on_c, 2, 62, 0
4, 22320, Note_on_c, 2, 62, 58
4, 22512, Note_on_c, 2, 62, 0
4, 22560, Note_on_c, 2, 62, 58
4, 22752, Note_on_c, 2, 62, 0
4, 22800, Note_on_c, 2, 62, 58
4, 22992, Note_on_c, 2, 62, 0
4, 23040, Note_on_c, 2, 62, 58
4, 23232, Note_on_c, 2, 62, 0
4, 23280, Note_on_c, 2, 67, 58
4, 23472, Note_on_c, 2, 67, 0
4, 23520, Note_on_c, 2, 66, 58
4, 23712, Note_on_c, 2, 66, 0
4, 23760, Note_on_c, 2, 64, 58
4, 23952, Note_on_c, 2, 64, 0
4, 24000, Note_on_c, 2, 62, 58
4, 24192, Note_on_c, 2, 62, 0
4, 24240, Note_on_c, 2, 60, 58
4, 24432, Note_on_c, 2, 60, 0
4, 24480, Note_on_c, 2, 59, 58
4, 24672, Note_on_c, 2, 59, 0
4, 24720, Note_on_c, 2, 57, 58
4, 24912, Note_on_c, 2, 57, 0
4, 24960, Note_on_c, 2, 55, 58
4, 25152, Note_on_c, 2, 55, 0
4, 25200, Note_on_c, 2, 55, 58
4, 25392, Note_on_c, 2, 55, 0
4, 25440, Note_on_c, 2, 59, 58
4, 25632, Note_on_c, 2, 59, 0
4, 25680, Note_on_c, 2, 59, 58
4, 25872, Note_on_c, 2, 59, 0
4, 25920, Note_on_c, 2, 62, 58
4, 26112, Note_on_c, 2, 62, 0
4, 26160, Note_on_c, 2, 62, 58
4, 26352, Note_on_c, 2, 62, 0
4, 26400, Note_on_c, 2, 67, 58
4, 26592, Note_on_c, 2, 67, 0
4, 26640, Note_on_c, 2, 67, 58
4, 26832, Note_on_c, 2, 67, 0
4, 26880, Note_on_c, 2, 69, 58
4, 27072, Note_on_c, 2, 69, 0
4, 27120, Note_on_c, 2, 69, 58
4, 27312, Note_on_c, 2, 69, 0
4, 27360, Note_on_c, 2, 69, 58
4, 27552, Note_on_c, 2, 69, 0
4, 27600, Note_on_c, 2, 69, 58
4, 27792, Note_on_c, 2, 69, 0
4, 27840, Note_on_c, 2, 67, 58
4, 28032, Note_on_c, 2, 67, 0
4, 28080, Note_on_c, 2, 67, 58
4, 28272, Note_on_c, 2, 67, 0
4, 28320, Note_on_c, 2, 67, 58
4, 28512, Note_on_c, 2, 67, 0
4, 28560, Note_on_c, 2, 67, 58
4, 28752, Note_on_c, 2, 67, 0
4, 28800, Note_on_c, 2, 67, 58
4, 28992, Note_on_c, 2, 67, 0
4, 29040, Note_on_c, 2, 67, 58
4, 29232, Note_on_c, 2, 67, 0
4, 29280, Note_on_c, 2, 67, 58
4, 29472, Note_on_c, 2, 67, 0
4, 29520, Note_on_c, 2, 67, 58
4, 29712, Note_on_c, 2, 67, 0
4, 29760, Note_on_c, 2, 66, 58
4, 29952, Note_on_c, 2, 66, 0
4, 30000, Note_on_c, 2, 66, 58
4, 30192, Note_on_c, 2, 66, 0
4, 30240, Note_on_c, 2, 67, 58
4, 30432, Note_on_c, 2, 67, 0
4, 30480, Note_on_c, 2, 69, 58
4, 30672, Note_on_c, 2, 69, 0
4, 30720, Note_on_c, 2, 67, 78
4, 30912, Note_on_c, 2, 67, 0
4, 30960, Note_on_c, 2, 62, 105
4, 30960, Note_on_c, 2, 59, 105
4, 31152, Note_on_c, 2, 59, 0
4, 31152, Note_on_c, 2, 62, 0
4, 31200, Note_on_c, 2, 62, 105
4, 31200, Note_on_c, 2, 59, 105
4, 31392, Note_on_c, 2, 59, 0
4, 31392, Note_on_c, 2, 62, 0
4, 31440, Note_on_c, 2, 62, 105
4, 31440, Note_on_c, 2, 59, 105
4, 31632, Note_on_c, 2, 59, 0
4, 31632, Note_on_c, 2, 62, 0
4, 31680, Note_on_c, 2, 62, 105
4, 31680, Note_on_c, 2, 60, 105
4, 31872, Note_on_c, 2, 60, 0
4, 31872, Note_on_c, 2, 62, 0
4, 31920, Note_on_c, 2, 62, 105
4, 31920, Note_on_c, 2, 60, 105
4, 32112, Note_on_c, 2, 60, 0
4, 32112, Note_on_c, 2, 62, 0
4, 32160, Note_on_c, 2, 60, 105
4, 32160, Note_on_c, 2, 62, 105
4, 32352, Note_on_c, 2, 62, 0
4, 32352, Note_on_c, 2, 60, 0
4, 32400, Note_on_c, 2, 62, 105
4, 32400, Note_on_c, 2, 60, 105
4, 32592, Note_on_c, 2, 60, 0
4, 32592, Note_on_c, 2, 62, 0
4, 32640, Note_on_c, 2, 62, 105
4, 32640, Note_on_c, 2, 59, 105
4, 32832, Note_on_c, 2, 59, 0
4, 32832, Note_on_c, 2, 62, 0
4, 32880, Note_on_c, 2, 59, 105
4, 32880, Note_on_c, 2, 62, 105
4, 33072, Note_on_c, 2, 62, 0
4, 33072, Note_on_c, 2, 59, 0
4, 33120, Note_on_c, 2, 59, 105
4, 33120, Note_on_c, 2, 62, 105
4, 33312, Note_on_c, 2, 62, 0
4, 33312, Note_on_c, 2, 59, 0
4, 33360, Note_on_c, 2, 59, 105
4, 33360, Note_on_c, 2, 62, 105
4, 33552, Note_on_c, 2, 62, 0
4, 33552, Note_on_c, 2, 59, 0
4, 33600, Note_on_c, 2, 62, 105
4, 33600, Note_on_c, 2, 60, 105
4, 33792, Note_on_c, 2, 60, 0
4, 33792, Note_on_c, 2, 62, 0
4, 33840, Note_on_c, 2, 60, 105
4, 33840, Note_on_c, 2, 62, 105
4, 34032, Note_on_c, 2, 62, 0
4, 34032, Note_on_c, 2, 60, 0
4, 34080, Note_on_c, 2, 62, 105
4, 34080, Note_on_c, 2, 60, 105
4, 34272, Note_on_c, 2, 60, 0
4, 34272, Note_on_c, 2, 62, 0
4, 34320, Note_on_c, 2, 60, 105
4, 34320, Note_on_c, 2, 62, 105
4, 34512, Note_on_c, 2, 62, 0
4, 34512, Note_on_c, 2, 60, 0
4, 34560, Note_on_c, 2, 59, 105
4, 34560, Note_on_c, 2, 62, 105
4, 34848, Note_on_c, 2, 62, 0
4, 34944, Note_on_c, 2, 59, 0
4, 35040, Note_on_c, 2, 67, 105
4, 35712, Note_on_c, 2, 67, 0
4, 35760, Note_on_c, 2, 69, 105
4, 35952, Note_on_c, 2, 69, 0
4, 36000, Note_on_c, 2, 66, 105
4, 36192, Note_on_c, 2, 66, 0
4, 36240, Note_on_c, 2, 62, 105
4, 36432, Note_on_c, 2, 62, 0
4, 36480, Note_on_c, 2, 71, 105
4, 37632, Note_on_c, 2, 71, 0
4, 37680, Note_on_c, 2, 72, 105
4, 37872, Note_on_c, 2, 72, 0
4, 37920, Note_on_c, 2, 69, 105
4, 38112, Note_on_c, 2, 69, 0
4, 38160, Note_on_c, 2, 66, 105
4, 38352, Note_on_c, 2, 66, 0
4, 38400, Note_on_c, 2, 67, 105
4, 38688, Note_on_c, 2, 67, 0
4, 38880, Note_on_c, 2, 71, 105
4, 39072, Note_on_c, 2, 71, 0
4, 39120, Note_on_c, 2, 71, 105
4, 39312, Note_on_c, 2, 71, 0
4, 39360, Note_on_c, 2, 71, 105
4, 39600, Note_on_c, 2, 71, 0
4, 39600, Note_on_c, 2, 67, 105
4, 39792, Note_on_c, 2, 67, 0
4, 39840, Note_on_c, 2, 67, 105
4, 40032, Note_on_c, 2, 67, 0
4, 40080, Note_on_c, 2, 67, 105
4, 40272, Note_on_c, 2, 67, 0
4, 40320, Note_on_c, 2, 67, 105
4, 40560, Note_on_c, 2, 67, 0
4, 40560, Note_on_c, 2, 62, 105
4, 40752, Note_on_c, 2, 62, 0
4, 40800, Note_on_c, 2, 62, 105
4, 40992, Note_on_c, 2, 62, 0
4, 41040, Note_on_c, 2, 62, 105
4, 41232, Note_on_c, 2, 62, 0
4, 41280, Note_on_c, 2, 62, 105
4, 41520, Note_on_c, 2, 62, 0
4, 41520, Note_on_c, 2, 59, 105
4, 41712, Note_on_c, 2, 59, 0
4, 41760, Note_on_c, 2, 59, 105
4, 42000, Note_on_c, 2, 59, 0
4, 42000, Note_on_c, 2, 55, 105
4, 42192, Note_on_c, 2, 55, 0
4, 42240, Note_on_c, 2, 62, 105
4, 42432, Note_on_c, 2, 62, 0
4, 42480, Note_on_c, 2, 74, 105
4, 42672, Note_on_c, 2, 74, 0
4, 42720, Note_on_c, 2, 72, 105
4, 42912, Note_on_c, 2, 72, 0
4, 42960, Note_on_c, 2, 74, 105
4, 43152, Note_on_c, 2, 74, 0
4, 43200, Note_on_c, 2, 71, 105
4, 43392, Note_on_c, 2, 71, 0
4, 43440, Note_on_c, 2, 74, 105
4, 43632, Note_on_c, 2, 74, 0
4, 43680, Note_on_c, 2, 71, 105
4, 43872, Note_on_c, 2, 71, 0
4, 43920, Note_on_c, 2, 67, 105
4, 44112, Note_on_c, 2, 67, 0
4, 44160, Note_on_c, 2, 62, 105
4, 44544, Note_on_c, 2, 62, 0
4, 44640, Note_on_c, 2, 62, 92
4, 45024, Note_on_c, 2, 62, 0
4, 45120, Note_on_c, 2, 62, 92
4, 45504, Note_on_c, 2, 62, 0
4, 46560, Note_on_c, 2, 62, 78
4, 47040, Note_on_c, 2, 62, 0
4, 47040, Note_on_c, 2, 64, 58
4, 47232, Note_on_c, 2, 64, 0
4, 47520, Note_on_c, 2, 66, 58
4, 47712, Note_on_c, 2, 66, 0
4, 48000, Note_on_c, 2, 67, 58
4, 48192, Note_on_c, 2, 67, 0
4, 48480, Note_on_c, 2, 69, 58
4, 48672, Note_on_c, 2, 69, 0
4, 48960, Note_on_c, 2, 71, 58
4, 49152, Note_on_c, 2, 71, 0
4, 49440, Note_on_c, 2, 73, 58
4, 49632, Note_on_c, 2, 73, 0
4, 49920, Note_on_c, 2, 74, 58
4, 50304, Note_on_c, 2, 74, 0
4, 50880, Note_on_c, 2, 55, 58
4, 51264, Note_on_c, 2, 55, 0
4, 51840, Note_on_c, 2, 57, 72
4, 52032, Note_on_c, 2, 57, 0
4, 52080, Note_on_c, 2, 56, 72
4, 52272, Note_on_c, 2, 56, 0
4, 52320, Note_on_c, 2, 57, 72
4, 52512, Note_on_c, 2, 57, 0
4, 52560, Note_on_c, 2, 56, 72
4, 52752, Note_on_c, 2, 56, 0
4, 52800, Note_on_c, 2, 57, 72
4, 52992, Note_on_c, 2, 57, 0
4, 53040, Note_on_c, 2, 59, 72
4, 53232, Note_on_c, 2, 59, 0
4, 53280, Note_on_c, 2, 55, 72
4, 53472, Note_on_c, 2, 55, 0
4, 53520, Note_on_c, 2, 52, 72
4, 53712, Note_on_c, 2, 52, 0
4, 53760, Note_on_c, 2, 50, 72
4, 53952, Note_on_c, 2, 50, 0
4, 54240, Note_on_c, 2, 54, 98
4, 54720, Note_on_c, 2, 54, 0
4, 54720, Note_on_c, 2, 55, 58
4, 54912, Note_on_c, 2, 55, 0
4, 55200, Note_on_c, 2, 57, 58
4, 55392, Note_on_c, 2, 57, 0
4, 55680, Note_on_c, 2, 59, 58
4, 55872, Note_on_c, 2, 59, 0
4, 56160, Note_on_c, 2, 61, 58
4, 56352, Note_on_c, 2, 61, 0
4, 56640, Note_on_c, 2, 62, 58
4, 56832, Note_on_c, 2, 62, 0
4, 57120, Note_on_c, 2, 64, 58
4, 57312, Note_on_c, 2, 64, 0
4, 57600, Note_on_c, 2, 57, 58
4, 58560, Note_on_c, 2, 57, 0
4, 58560, Note_on_c, 2, 59, 58
4, 59040, Note_on_c, 2, 59, 0
4, 59040, Note_on_c, 2, 62, 58
4, 59424, Note_on_c, 2, 62, 0
4, 59520, Note_on_c, 2, 68, 58
4, 60480, Note_on_c, 2, 68, 0
4, 60480, Note_on_c, 2, 69, 58
4, 60864, Note_on_c, 2, 69, 0
4, 65280, Note_on_c, 2, 49, 58
4, 65520, Note_on_c, 2, 49, 0
4, 65520, Note_on_c, 2, 50, 58
4, 65700, Note_on_c, 2, 50, 0
4, 65760, Note_on_c, 2, 52, 58
4, 65940, Note_on_c, 2, 52, 0
4, 66000, Note_on_c, 2, 54, 58
4, 66180, Note_on_c, 2, 54, 0
4, 66240, Note_on_c, 2, 55, 58
4, 66600, Note_on_c, 2, 55, 0
4, 67200, Note_on_c, 2, 61, 58
4, 67440, Note_on_c, 2, 61, 0
4, 67440, Note_on_c, 2, 62, 58
4, 67620, Note_on_c, 2, 62, 0
4, 67680, Note_on_c, 2, 64, 58
4, 67860, Note_on_c, 2, 64, 0
4, 67920, Note_on_c, 2, 66, 58
4, 68100, Note_on_c, 2, 66, 0
4, 68160, Note_on_c, 2, 67, 58
4, 68520, Note_on_c, 2, 67, 0
4, 69600, Note_on_c, 2, 61, 58
4, 69756, Note_on_c, 2, 61, 0
4, 69840, Note_on_c, 2, 62, 58
4, 69996, Note_on_c, 2, 62, 0
4, 70080, Note_on_c, 2, 64, 58
4, 70392, Note_on_c, 2, 64, 0
4, 71520, Note_on_c, 2, 61, 58
4, 71676, Note_on_c, 2, 61, 0
4, 71760, Note_on_c, 2, 62, 58
4, 71916, Note_on_c, 2, 62, 0
4, 72000, Note_on_c, 2, 64, 58
4, 72312, Note_on_c, 2, 64, 0
4, 72960, Note_on_c, 2, 69, 72
4, 73440, Note_on_c, 2, 69, 0
4, 73440, Note_on_c, 2, 70, 72
4, 73920, Note_on_c, 2, 70, 0
4, 73920, Note_on_c, 2, 69, 72
4, 74400, Note_on_c, 2, 69, 0
4, 74400, Note_on_c, 2, 70, 72
4, 74880, Note_on_c, 2, 70, 0
4, 74880, Note_on_c, 2, 69, 58
4, 75264, Note_on_c, 2, 69, 0
4, 76800, Note_on_c, 2, 62, 58
4, 76992, Note_on_c, 2, 62, 0
4, 77040, Note_on_c, 2, 62, 58
4, 77232, Note_on_c, 2, 62, 0
4, 77280, Note_on_c, 2, 54, 58
4, 77472, Note_on_c, 2, 54, 0
4, 77520, Note_on_c, 2, 54, 58
4, 77712, Note_on_c, 2, 54, 0
4, 77760, Note_on_c, 2, 57, 58
4, 77952, Note_on_c, 2, 57, 0
4, 78000, Note_on_c, 2, 57, 58
4, 78192, Note_on_c, 2, 57, 0
4, 78240, Note_on_c, 2, 62, 58
4, 78432, Note_on_c, 2, 62, 0
4, 78480, Note_on_c, 2, 62, 58
4, 78672, Note_on_c, 2, 62, 0
4, 78720, Note_on_c, 2, 64, 58
4, 78912, Note_on_c, 2, 64, 0
4, 78960, Note_on_c, 2, 64, 58
4, 79152, Note_on_c, 2, 64, 0
4, 79200, Note_on_c, 2, 64, 58
4, 79392, Note_on_c, 2, 64, 0
4, 79440, Note_on_c, 2, 64, 58
4, 79632, Note_on_c, 2, 64, 0
4, 79680, Note_on_c, 2, 62, 58
4, 79872, Note_on_c, 2, 62, 0
4, 79920, Note_on_c, 2, 62, 58
4, 80112, Note_on_c, 2, 62, 0
4, 80160, Note_on_c, 2, 62, 58
4, 80352, Note_on_c, 2, 62, 0
4, 80400, Note_on_c, 2, 62, 58
4, 80592, Note_on_c, 2, 62, 0
4, 80640, Note_on_c, 2, 64, 58
4, 80832, Note_on_c, 2, 64, 0
4, 80880, Note_on_c, 2, 64, 58
4, 81072, Note_on_c, 2, 64, 0
4, 81120, Note_on_c, 2, 64, 58
4, 81312, Note_on_c, 2, 64, 0
4, 81360, Note_on_c, 2, 64, 58
4, 81552, Note_on_c, 2, 64, 0
4, 81600, Note_on_c, 2, 62, 58
4, 81792, Note_on_c, 2, 62, 0
4, 81840, Note_on_c, 2, 62, 58
4, 82032, Note_on_c, 2, 62, 0
4, 82080, Note_on_c, 2, 62, 58
4, 82272, Note_on_c, 2, 62, 0
4, 82320, Note_on_c, 2, 62, 58
4, 82512, Note_on_c, 2, 62, 0
4, 82560, Note_on_c, 2, 61, 58
4, 82716, Note_on_c, 2, 61, 0
4, 82800, Note_on_c, 2, 71, 58
4, 82956, Note_on_c, 2, 71, 0
4, 83040, Note_on_c, 2, 69, 58
4, 83196, Note_on_c, 2, 69, 0
4, 83280, Note_on_c, 2, 67, 58
4, 83436, Note_on_c, 2, 67, 0
4, 83520, Note_on_c, 2, 66, 58
4, 83676, Note_on_c, 2, 66, 0
4, 83760, Note_on_c, 2, 64, 58
4, 83916, Note_on_c, 2, 64, 0
4, 84000, Note_on_c, 2, 62, 58
4, 84156, Note_on_c, 2, 62, 0
4, 84240, Note_on_c, 2, 61, 58
4, 84396, Note_on_c, 2, 61, 0
4, 84480, Note_on_c, 2, 62, 58
4, 84672, Note_on_c, 2, 62, 0
4, 84720, Note_on_c, 2, 62, 58
4, 84912, Note_on_c, 2, 62, 0
4, 84960, Note_on_c, 2, 54, 58
4, 85152, Note_on_c, 2, 54, 0
4, 85200, Note_on_c, 2, 54, 58
4, 85392, Note_on_c, 2, 54, 0
4, 85440, Note_on_c, 2, 57, 58
4, 85632, Note_on_c, 2, 57, 0
4, 85680, Note_on_c, 2, 57, 58
4, 85872, Note_on_c, 2, 57, 0
4, 85920, Note_on_c, 2, 62, 58
4, 86112, Note_on_c, 2, 62, 0
4, 86160, Note_on_c, 2, 62, 58
4, 86352, Note_on_c, 2, 62, 0
4, 86400, Note_on_c, 2, 64, 58
4, 86592, Note_on_c, 2, 64, 0
4, 86640, Note_on_c, 2, 64, 58
4, 86832, Note_on_c, 2, 64, 0
4, 86880, Note_on_c, 2, 64, 58
4, 87072, Note_on_c, 2, 64, 0
4, 87120, Note_on_c, 2, 64, 58
4, 87312, Note_on_c, 2, 64, 0
4, 87360, Note_on_c, 2, 62, 58
4, 87552, Note_on_c, 2, 62, 0
4, 87600, Note_on_c, 2, 62, 58
4, 87792, Note_on_c, 2, 62, 0
4, 87840, Note_on_c, 2, 62, 58
4, 88032, Note_on_c, 2, 62, 0
4, 88080, Note_on_c, 2, 62, 58
4, 88272, Note_on_c, 2, 62, 0
4, 88320, Note_on_c, 2, 62, 58
4, 88512, Note_on_c, 2, 62, 0
4, 88560, Note_on_c, 2, 62, 58
4, 88752, Note_on_c, 2, 62, 0
4, 88800, Note_on_c, 2, 62, 58
4, 88992, Note_on_c, 2, 62, 0
4, 89040, Note_on_c, 2, 62, 58
4, 89232, Note_on_c, 2, 62, 0
4, 89280, Note_on_c, 2, 62, 58
4, 89472, Note_on_c, 2, 62, 0
4, 89520, Note_on_c, 2, 62, 58
4, 89712, Note_on_c, 2, 62, 0
4, 89760, Note_on_c, 2, 62, 58
4, 89952, Note_on_c, 2, 62, 0
4, 90000, Note_on_c, 2, 62, 58
4, 90192, Note_on_c, 2, 62, 0
4, 90240, Note_on_c, 2, 62, 58
4, 91584, Note_on_c, 2, 62, 0
4, 92160, Note_on_c, 2, 64, 58
4, 92352, Note_on_c, 2, 64, 0
4, 92400, Note_on_c, 2, 64, 58
4, 92592, Note_on_c, 2, 64, 0
4, 92640, Note_on_c, 2, 63, 58
4, 92832, Note_on_c, 2, 63, 0
4, 92880, Note_on_c, 2, 63, 58
4, 93072, Note_on_c, 2, 63, 0
4, 93120, Note_on_c, 2, 64, 58
4, 93312, Note_on_c, 2, 64, 0
4, 93360, Note_on_c, 2, 64, 58
4, 93552, Note_on_c, 2, 64, 0
4, 93600, Note_on_c, 2, 63, 58
4, 93792, Note_on_c, 2, 63, 0
4, 93840, Note_on_c, 2, 63, 58
4, 94032, Note_on_c, 2, 63, 0
4, 94080, Note_on_c, 2, 64, 58
4, 94272, Note_on_c, 2, 64, 0
4, 94320, Note_on_c, 2, 64, 58
4, 94512, Note_on_c, 2, 64, 0
4, 94560, Note_on_c, 2, 64, 58
4, 94752, Note_on_c, 2, 64, 0
4, 94800, Note_on_c, 2, 64, 58
4, 94992, Note_on_c, 2, 64, 0
4, 95040, Note_on_c, 2, 62, 58
4, 95232, Note_on_c, 2, 62, 0
4, 95280, Note_on_c, 2, 62, 58
4, 95472, Note_on_c, 2, 62, 0
4, 95520, Note_on_c, 2, 62, 58
4, 95712, Note_on_c, 2, 62, 0
4, 95760, Note_on_c, 2, 62, 58
4, 95952, Note_on_c, 2, 62, 0
4, 96000, Note_on_c, 2, 59, 58
4, 96192, Note_on_c, 2, 59, 0
4, 96240, Note_on_c, 2, 59, 58
4, 96432, Note_on_c, 2, 59, 0
4, 96480, Note_on_c, 2, 59, 58
4, 96672, Note_on_c, 2, 59, 0
4, 96720, Note_on_c, 2, 59, 58
4, 96912, Note_on_c, 2, 59, 0
4, 96960, Note_on_c, 2, 57, 58
4, 97152, Note_on_c, 2, 57, 0
4, 97200, Note_on_c, 2, 57, 58
4, 97392, Note_on_c, 2, 57, 0
4, 97440, Note_on_c, 2, 57, 58
4, 97632, Note_on_c, 2, 57, 0
4, 97680, Note_on_c, 2, 57, 58
4, 97872, Note_on_c, 2, 57, 0
4, 97920, Note_on_c, 2, 57, 58
4, 99120, Note_on_c, 2, 57, 0
4, 99120, Note_on_c, 2, 61, 58
4, 99360, Note_on_c, 2, 61, 0
4, 99360, Note_on_c, 2, 64, 58
4, 99600, Note_on_c, 2, 64, 0
4, 99600, Note_on_c, 2, 57, 58
4, 99792, Note_on_c, 2, 57, 0
4, 99840, Note_on_c, 2, 69, 58
4, 101040, Note_on_c, 2, 69, 0
4, 101040, Note_on_c, 2, 71, 58
4, 101280, Note_on_c, 2, 71, 0
4, 101280, Note_on_c, 2, 67, 58
4, 101520, Note_on_c, 2, 67, 0
4, 101520, Note_on_c, 2, 69, 58
4, 101712, Note_on_c, 2, 69, 0
4, 101760, Note_on_c, 2, 66, 58
4, 102960, Note_on_c, 2, 66, 0
4, 102960, Note_on_c, 2, 67, 58
4, 103200, Note_on_c, 2, 67, 0
4, 103200, Note_on_c, 2, 64, 58
4, 103440, Note_on_c, 2, 64, 0
4, 103440, Note_on_c, 2, 61, 58
4, 103632, Note_on_c, 2, 61, 0
4, 103680, Note_on_c, 2, 62, 105
4, 103920, Note_on_c, 2, 62, 0
4, 103920, Note_on_c, 2, 69, 105
4, 104112, Note_on_c, 2, 69, 0
4, 104160, Note_on_c, 2, 69, 105
4, 104352, Note_on_c, 2, 69, 0
4, 104400, Note_on_c, 2, 69, 105
4, 104592, Note_on_c, 2, 69, 0
4, 104640, Note_on_c, 2, 69, 105
4, 104880, Note_on_c, 2, 69, 0
4, 104880, Note_on_c, 2, 61, 105
4, 105072, Note_on_c, 2, 61, 0
4, 105120, Note_on_c, 2, 61, 105
4, 105312, Note_on_c, 2, 61, 0
4, 105360, Note_on_c, 2, 61, 105
4, 105552, Note_on_c, 2, 61, 0
4, 105600, Note_on_c, 2, 62, 105
4, 105840, Note_on_c, 2, 62, 0
4, 105840, Note_on_c, 2, 64, 105
4, 106032, Note_on_c, 2, 64, 0
4, 106080, Note_on_c, 2, 66, 105
4, 106272, Note_on_c, 2, 66, 0
4, 106320, Note_on_c, 2, 67, 105
4, 106512, Note_on_c, 2, 67, 0
4, 106560, Note_on_c, 2, 66, 105
4, 106800, Note_on_c, 2, 66, 0
4, 106800, Note_on_c, 2, 64, 105
4, 106992, Note_on_c, 2, 64, 0
4, 107040, Note_on_c, 2, 69, 105
4, 107232, Note_on_c, 2, 69, 0
4, 107280, Note_on_c, 2, 67, 105
4, 107472, Note_on_c, 2, 67, 0
4, 107520, Note_on_c, 2, 67, 105
4, 107760, Note_on_c, 2, 67, 0
4, 107760, Note_on_c, 2, 66, 105
4, 107952, Note_on_c, 2, 66, 0
4, 108000, Note_on_c, 2, 66, 105
4, 108192, Note_on_c, 2, 66, 0
4, 108240, Note_on_c, 2, 66, 105
4, 108432, Note_on_c, 2, 66, 0
4, 108480, Note_on_c, 2, 66, 105
4, 108720, Note_on_c, 2, 66, 0
4, 108720, Note_on_c, 2, 69, 105
4, 108912, Note_on_c, 2, 69, 0
4, 108960, Note_on_c, 2, 67, 105
4, 109152, Note_on_c, 2, 67, 0
4, 109200, Note_on_c, 2, 64, 105
4, 109392, Note_on_c, 2, 64, 0
4, 109440, Note_on_c, 2, 62, 105
4, 109632, Note_on_c, 2, 62, 0
4, 109680, Note_on_c, 2, 54, 58
4, 109872, Note_on_c, 2, 54, 0
4, 109920, Note_on_c, 2, 54, 58
4, 110112, Note_on_c, 2, 54, 0
4, 110160, Note_on_c, 2, 54, 58
4, 110352, Note_on_c, 2, 54, 0
4, 110400, Note_on_c, 2, 54, 58
4, 110592, Note_on_c, 2, 54, 0
4, 110640, Note_on_c, 2, 54, 58
4, 110832, Note_on_c, 2, 54, 0
4, 110880, Note_on_c, 2, 54, 58
4, 111072, Note_on_c, 2, 54, 0
4, 111120, Note_on_c, 2, 54, 58
4, 111312, Note_on_c, 2, 54, 0
4, 111360, Note_on_c, 2, 54, 58
4, 111552, Note_on_c, 2, 54, 0
4, 111600, Note_on_c, 2, 54, 58
4, 111792, Note_on_c, 2, 54, 0
4, 111840, Note_on_c, 2, 54, 58
4, 112032, Note_on_c, 2, 54, 0
4, 112080, Note_on_c, 2, 54, 58
4, 112272, Note_on_c, 2, 54, 0
4, 112320, Note_on_c, 2, 54, 58
4, 112512, Note_on_c, 2, 54, 0
4, 112560, Note_on_c, 2, 54, 58
4, 112752, Note_on_c, 2, 54, 0
4, 112800, Note_on_c, 2, 54, 58
4, 112992, Note_on_c, 2, 54, 0
4, 113040, Note_on_c, 2, 54, 58
4, 113232, Note_on_c, 2, 54, 0
4, 113280, Note_on_c, 2, 55, 58
4, 113472, Note_on_c, 2, 55, 0
4, 113520, Note_on_c, 2, 55, 58
4, 113712, Note_on_c, 2, 55, 0
4, 113760, Note_on_c, 2, 55, 58
4, 113952, Note_on_c, 2, 55, 0
4, 114000, Note_on_c, 2, 55, 58
4, 114192, Note_on_c, 2, 55, 0
4, 114240, Note_on_c, 2, 55, 58
4, 114432, Note_on_c, 2, 55, 0
4, 114480, Note_on_c, 2, 55, 58
4, 114672, Note_on_c, 2, 55, 0
4, 114720, Note_on_c, 2, 55, 58
4, 114912, Note_on_c, 2, 55, 0
4, 114960, Note_on_c, 2, 55, 58
4, 115152, Note_on_c, 2, 55, 0
4, 115200, Note_on_c, 2, 55, 58
4, 115392, Note_on_c, 2, 55, 0
4, 115440, Note_on_c, 2, 55, 58
4, 115632, Note_on_c, 2, 55, 0
4, 115680, Note_on_c, 2, 62, 58
4, 115872, Note_on_c, 2, 62, 0
4, 115920, Note_on_c, 2, 62, 58
4, 116112, Note_on_c, 2, 62, 0
4, 116160, Note_on_c, 2, 60, 58
4, 116352, Note_on_c, 2, 60, 0
4, 116400, Note_on_c, 2, 60, 58
4, 116592, Note_on_c, 2, 60, 0
4, 116640, Note_on_c, 2, 59, 58
4, 116832, Note_on_c, 2, 59, 0
4, 116880, Note_on_c, 2, 59, 58
4, 117072, Note_on_c, 2, 59, 0
4, 117120, Note_on_c, 2, 57, 58
4, 117312, Note_on_c, 2, 57, 0
4, 117360, Note_on_c, 2, 57, 58
4, 117552, Note_on_c, 2, 57, 0
4, 117600, Note_on_c, 2, 57, 58
4, 117792, Note_on_c, 2, 57, 0
4, 117840, Note_on_c, 2, 57, 58
4, 118032, Note_on_c, 2, 57, 0
4, 118080, Note_on_c, 2, 57, 58
4, 118272, Note_on_c, 2, 57, 0
4, 118320, Note_on_c, 2, 57, 58
4, 118512, Note_on_c, 2, 57, 0
4, 118560, Note_on_c, 2, 57, 58
4, 118752, Note_on_c, 2, 57, 0
4, 118800, Note_on_c, 2, 57, 58
4, 118992, Note_on_c, 2, 57, 0
4, 119040, Note_on_c, 2, 62, 58
4, 119232, Note_on_c, 2, 62, 0
4, 119280, Note_on_c, 2, 62, 58
4, 119472, Note_on_c, 2, 62, 0
4, 119520, Note_on_c, 2, 64, 58
4, 119712, Note_on_c, 2, 64, 0
4, 119760, Note_on_c, 2, 64, 58
4, 119952, Note_on_c, 2, 64, 0
4, 120000, Note_on_c, 2, 66, 58
4, 120192, Note_on_c, 2, 66, 0
4, 120240, Note_on_c, 2, 66, 58
4, 120432, Note_on_c, 2, 66, 0
4, 120480, Note_on_c, 2, 67, 58
4, 120672, Note_on_c, 2, 67, 0
4, 120720, Note_on_c, 2, 67, 58
4, 120912, Note_on_c, 2, 67, 0
4, 120960, Note_on_c, 2, 66, 58
4, 120960, Note_on_c, 2, 69, 58
4, 121344, Note_on_c, 2, 69, 0
4, 121344, Note_on_c, 2, 66, 0
4, 122880, Note_on_c, 2, 55, 58
4, 123072, Note_on_c, 2, 55, 0
4, 123120, Note_on_c, 2, 55, 58
4, 123312, Note_on_c, 2, 55, 0
4, 123360, Note_on_c, 2, 59, 58
4, 123552, Note_on_c, 2, 59, 0
4, 123600, Note_on_c, 2, 59, 58
4, 123792, Note_on_c, 2, 59, 0
4, 123840, Note_on_c, 2, 62, 58
4, 124032, Note_on_c, 2, 62, 0
4, 124080, Note_on_c, 2, 62, 58
4, 124272, Note_on_c, 2, 62, 0
4, 124320, Note_on_c, 2, 67, 58
4, 124512, Note_on_c, 2, 67, 0
4, 124560, Note_on_c, 2, 67, 58
4, 124752, Note_on_c, 2, 67, 0
4, 124800, Note_on_c, 2, 69, 58
4, 124992, Note_on_c, 2, 69, 0
4, 125040, Note_on_c, 2, 69, 58
4, 125232, Note_on_c, 2, 69, 0
4, 125280, Note_on_c, 2, 69, 58
4, 125472, Note_on_c, 2, 69, 0
4, 125520, Note_on_c, 2, 69, 58
4, 125712, Note_on_c, 2, 69, 0
4, 125760, Note_on_c, 2, 67, 58
4, 125952, Note_on_c, 2, 67, 0
4, 126000, Note_on_c, 2, 67, 58
4, 126192, Note_on_c, 2, 67, 0
4, 126240, Note_on_c, 2, 67, 58
4, 126432, Note_on_c, 2, 67, 0
4, 126480, Note_on_c, 2, 67, 58
4, 126672, Note_on_c, 2, 67, 0
4, 126720, Note_on_c, 2, 62, 58
4, 126912, Note_on_c, 2, 62, 0
4, 126960, Note_on_c, 2, 62, 58
4, 127152, Note_on_c, 2, 62, 0
4, 127200, Note_on_c, 2, 62, 58
4, 127392, Note_on_c, 2, 62, 0
4, 127440, Note_on_c, 2, 62, 58
4, 127632, Note_on_c, 2, 62, 0
4, 127680, Note_on_c, 2, 62, 58
4, 127872, Note_on_c, 2, 62, 0
4, 127920, Note_on_c, 2, 62, 58
4, 128112, Note_on_c, 2, 62, 0
4, 128160, Note_on_c, 2, 62, 58
4, 128352, Note_on_c, 2, 62, 0
4, 128400, Note_on_c, 2, 62, 58
4, 128592, Note_on_c, 2, 62, 0
4, 128640, Note_on_c, 2, 62, 58
4, 128832, Note_on_c, 2, 62, 0
4, 128880, Note_on_c, 2, 67, 58
4, 129072, Note_on_c, 2, 67, 0
4, 129120, Note_on_c, 2, 66, 58
4, 129312, Note_on_c, 2, 66, 0
4, 129360, Note_on_c, 2, 64, 58
4, 129552, Note_on_c, 2, 64, 0
4, 129600, Note_on_c, 2, 62, 58
4, 129792, Note_on_c, 2, 62, 0
4, 129840, Note_on_c, 2, 60, 58
4, 130032, Note_on_c, 2, 60, 0
4, 130080, Note_on_c, 2, 59, 58
4, 130272, Note_on_c, 2, 59, 0
4, 130320, Note_on_c, 2, 57, 58
4, 130512, Note_on_c, 2, 57, 0
4, 130560, Note_on_c, 2, 55, 58
4, 130752, Note_on_c, 2, 55, 0
4, 130800, Note_on_c, 2, 55, 58
4, 130992, Note_on_c, 2, 55, 0
4, 131040, Note_on_c, 2, 59, 58
4, 131232, Note_on_c, 2, 59, 0
4, 131280, Note_on_c, 2, 59, 58
4, 131472, Note_on_c, 2, 59, 0
4, 131520, Note_on_c, 2, 62, 58
4, 131712, Note_on_c, 2, 62, 0
4, 131760, Note_on_c, 2, 62, 58
4, 131952, Note_on_c, 2, 62, 0
4, 132000, Note_on_c, 2, 67, 58
4, 132192, Note_on_c, 2, 67, 0
4, 132240, Note_on_c, 2, 67, 58
4, 132432, Note_on_c, 2, 67, 0
4, 132480, Note_on_c, 2, 69, 58
4, 132672, Note_on_c, 2, 69, 0
4, 132720, Note_on_c, 2, 69, 58
4, 132912, Note_on_c, 2, 69, 0
4, 132960, Note_on_c, 2, 69, 58
4, 133152, Note_on_c, 2, 69, 0
4, 133200, Note_on_c, 2, 69, 58
4, 133392, Note_on_c, 2, 69, 0
4, 133440, Note_on_c, 2, 67, 58
4, 133632, Note_on_c, 2, 67, 0
4, 133680, Note_on_c, 2, 67, 58
4, 133872, Note_on_c, 2, 67, 0
4, 133920, Note_on_c, 2, 67, 58
4, 134112, Note_on_c, 2, 67, 0
4, 134160, Note_on_c, 2, 67, 58
4, 134352, Note_on_c, 2, 67, 0
4, 134400, Note_on_c, 2, 67, 58
4, 134592, Note_on_c, 2, 67, 0
4, 134640, Note_on_c, 2, 67, 58
4, 134832, Note_on_c, 2, 67, 0
4, 134880, Note_on_c, 2, 67, 58
4, 135072, Note_on_c, 2, 67, 0
4, 135120, Note_on_c, 2, 67, 58
4, 135312, Note_on_c, 2, 67, 0
4, 135360, Note_on_c, 2, 66, 58
4, 135552, Note_on_c, 2, 66, 0
4, 135600, Note_on_c, 2, 66, 58
4, 135792, Note_on_c, 2, 66, 0
4, 135840, Note_on_c, 2, 67, 58
4, 136032, Note_on_c, 2, 67, 0
4, 136080, Note_on_c, 2, 69, 58
4, 136272, Note_on_c, 2, 69, 0
4, 136320, Note_on_c, 2, 67, 58
4, 136512, Note_on_c, 2, 67, 0
4, 136560, Note_on_c, 2, 67, 58
4, 136752, Note_on_c, 2, 67, 0
4, 136800, Note_on_c, 2, 66, 58
4, 136992, Note_on_c, 2, 66, 0
4, 137040, Note_on_c, 2, 64, 58
4, 137232, Note_on_c, 2, 64, 0
4, 137280, Note_on_c, 2, 62, 58
4, 137472, Note_on_c, 2, 62, 0
4, 137520, Note_on_c, 2, 60, 58
4, 137712, Note_on_c, 2, 60, 0
4, 137760, Note_on_c, 2, 59, 58
4, 137952, Note_on_c, 2, 59, 0
4, 138000, Note_on_c, 2, 57, 58
4, 138192, Note_on_c, 2, 57, 0
4, 138240, Note_on_c, 2, 55, 58
4, 138432, Note_on_c, 2, 55, 0
4, 138480, Note_on_c, 2, 55, 58
4, 138672, Note_on_c, 2, 55, 0
4, 138720, Note_on_c, 2, 59, 58
4, 138912, Note_on_c, 2, 59, 0
4, 138960, Note_on_c, 2, 59, 58
4, 139152, Note_on_c, 2, 59, 0
4, 139200, Note_on_c, 2, 62, 58
4, 139392, Note_on_c, 2, 62, 0
4, 139440, Note_on_c, 2, 62, 58
4, 139632, Note_on_c, 2, 62, 0
4, 139680, Note_on_c, 2, 67, 58
4, 139872, Note_on_c, 2, 67, 0
4, 139920, Note_on_c, 2, 67, 58
4, 140112, Note_on_c, 2, 67, 0
4, 140160, Note_on_c, 2, 69, 58
4, 140352, Note_on_c, 2, 69, 0
4, 140400, Note_on_c, 2, 69, 58
4, 140592, Note_on_c, 2, 69, 0
4, 140640, Note_on_c, 2, 69, 58
4, 140832, Note_on_c, 2, 69, 0
4, 140880, Note_on_c, 2, 69, 58
4, 141072, Note_on_c, 2, 69, 0
4, 141120, Note_on_c, 2, 67, 58
4, 141312, Note_on_c, 2, 67, 0
4, 141360, Note_on_c, 2, 67, 58
4, 141552, Note_on_c, 2, 67, 0
4, 141600, Note_on_c, 2, 67, 58
4, 141792, Note_on_c, 2, 67, 0
4, 141840, Note_on_c, 2, 67, 58
4, 142032, Note_on_c, 2, 67, 0
4, 142080, Note_on_c, 2, 62, 58
4, 142272, Note_on_c, 2, 62, 0
4, 142320, Note_on_c, 2, 62, 58
4, 142512, Note_on_c, 2, 62, 0
4, 142560, Note_on_c, 2, 62, 58
4, 142752, Note_on_c, 2, 62, 0
4, 142800, Note_on_c, 2, 62, 58
4, 142992, Note_on_c, 2, 62, 0
4, 143040, Note_on_c, 2, 62, 58
4, 143232, Note_on_c, 2, 62, 0
4, 143280, Note_on_c, 2, 62, 58
4, 143472, Note_on_c, 2, 62, 0
4, 143520, Note_on_c, 2, 62, 58
4, 143712, Note_on_c, 2, 62, 0
4, 143760, Note_on_c, 2, 62, 58
4, 143952, Note_on_c, 2, 62, 0
4, 144000, Note_on_c, 2, 62, 58
4, 144192, Note_on_c, 2, 62, 0
4, 144240, Note_on_c, 2, 67, 58
4, 144432, Note_on_c, 2, 67, 0
4, 144480, Note_on_c, 2, 66, 58
4, 144672, Note_on_c, 2, 66, 0
4, 144720, Note_on_c, 2, 64, 58
4, 144912, Note_on_c, 2, 64, 0
4, 144960, Note_on_c, 2, 62, 58
4, 145152, Note_on_c, 2, 62, 0
4, 145200, Note_on_c, 2, 60, 58
4, 145392, Note_on_c, 2, 60, 0
4, 145440, Note_on_c, 2, 59, 58
4, 145632, Note_on_c, 2, 59, 0
4, 145680, Note_on_c, 2, 57, 58
4, 145872, Note_on_c, 2, 57, 0
4, 145920, Note_on_c, 2, 55, 58
4, 146112, Note_on_c, 2, 55, 0
4, 146160, Note_on_c, 2, 55, 58
4, 146352, Note_on_c, 2, 55, 0
4, 146400, Note_on_c, 2, 59, 58
4, 146592, Note_on_c, 2, 59, 0
4, 146640, Note_on_c, 2, 59, 58
4, 146832, Note_on_c, 2, 59, 0
4, 146880, Note_on_c, 2, 62, 58
4, 147072, Note_on_c, 2, 62, 0
4, 147120, Note_on_c, 2, 62, 58
4, 147312, Note_on_c, 2, 62, 0
4, 147360, Note_on_c, 2, 67, 58
4, 147552, Note_on_c, 2, 67, 0
4, 147600, Note_on_c, 2, 67, 58
4, 147792, Note_on_c, 2, 67, 0
4, 147840, Note_on_c, 2, 69, 58
4, 148032, Note_on_c, 2, 69, 0
4, 148080, Note_on_c, 2, 69, 58
4, 148272, Note_on_c, 2, 69, 0
4, 148320, Note_on_c, 2, 69, 58
4, 148512, Note_on_c, 2, 69, 0
4, 148560, Note_on_c, 2, 69, 58
4, 148752, Note_on_c, 2, 69, 0
4, 148800, Note_on_c, 2, 67, 58
4, 148992, Note_on_c, 2, 67, 0
4, 149040, Note_on_c, 2, 67, 58
4, 149232, Note_on_c, 2, 67, 0
4, 149280, Note_on_c, 2, 67, 58
4, 149472, Note_on_c, 2, 67, 0
4, 149520, Note_on_c, 2, 67, 58
4, 149712, Note_on_c, 2, 67, 0
4, 149760, Note_on_c, 2, 67, 58
4, 149952, Note_on_c, 2, 67, 0
4, 150000, Note_on_c, 2, 67, 58
4, 150192, Note_on_c, 2, 67, 0
4, 150240, Note_on_c, 2, 67, 58
4, 150432, Note_on_c, 2, 67, 0
4, 150480, Note_on_c, 2, 67, 58
4, 150672, Note_on_c, 2, 67, 0
4, 150720, Note_on_c, 2, 66, 58
4, 150912, Note_on_c, 2, 66, 0
4, 150960, Note_on_c, 2, 66, 58
4, 151152, Note_on_c, 2, 66, 0
4, 151200, Note_on_c, 2, 67, 58
4, 151392, Note_on_c, 2, 67, 0
4, 151440, Note_on_c, 2, 69, 58
4, 151632, Note_on_c, 2, 69, 0
4, 151680, Note_on_c, 2, 67, 78
4, 151872, Note_on_c, 2, 67, 0
4, 151920, Note_on_c, 2, 62, 105
4, 151920, Note_on_c, 2, 59, 105
4, 152112, Note_on_c, 2, 59, 0
4, 152112, Note_on_c, 2, 62, 0
4, 152160, Note_on_c, 2, 62, 105
4, 152160, Note_on_c, 2, 59, 105
4, 152352, Note_on_c, 2, 59, 0
4, 152352, Note_on_c, 2, 62, 0
4, 152400, Note_on_c, 2, 62, 105
4, 152400, Note_on_c, 2, 59, 105
4, 152592, Note_on_c, 2, 59, 0
4, 152592, Note_on_c, 2, 62, 0
4, 152640, Note_on_c, 2, 62, 105
4, 152640, Note_on_c, 2, 60, 105
4, 152832, Note_on_c, 2, 60, 0
4, 152832, Note_on_c, 2, 62, 0
4, 152880, Note_on_c, 2, 62, 105
4, 152880, Note_on_c, 2, 60, 105
4, 153072, Note_on_c, 2, 60, 0
4, 153072, Note_on_c, 2, 62, 0
4, 153120, Note_on_c, 2, 60, 105
4, 153120, Note_on_c, 2, 62, 105
4, 153312, Note_on_c, 2, 62, 0
4, 153312, Note_on_c, 2, 60, 0
4, 153360, Note_on_c, 2, 62, 105
4, 153360, Note_on_c, 2, 60, 105
4, 153552, Note_on_c, 2, 60, 0
4, 153552, Note_on_c, 2, 62, 0
4, 153600, Note_on_c, 2, 62, 105
4, 153600, Note_on_c, 2, 59, 105
4, 153792, Note_on_c, 2, 59, 0
4, 153792, Note_on_c, 2, 62, 0
4, 153840, Note_on_c, 2, 59, 105
4, 153840, Note_on_c, 2, 62, 105
4, 154032, Note_on_c, 2, 62, 0
4, 154032, Note_on_c, 2, 59, 0
4, 154080, Note_on_c, 2, 59, 105
4, 154080, Note_on_c, 2, 62, 105
4, 154272, Note_on_c, 2, 62, 0
4, 154272, Note_on_c, 2, 59, 0
4, 154320, Note_on_c, 2, 59, 105
4, 154320, Note_on_c, 2, 62, 105
4, 154512, Note_on_c, 2, 62, 0
4, 154512, Note_on_c, 2, 59, 0
4, 154560, Note_on_c, 2, 62, 105
4, 154560, Note_on_c, 2, 60, 105
4, 154752, Note_on_c, 2, 60, 0
4, 154752, Note_on_c, 2, 62, 0
4, 154800, Note_on_c, 2, 60, 105
4, 154800, Note_on_c, 2, 62, 105
4, 154992, Note_on_c, 2, 62, 0
4, 154992, Note_on_c, 2, 60, 0
4, 155040, Note_on_c, 2, 62, 105
4, 155040, Note_on_c, 2, 60, 105
4, 155232, Note_on_c, 2, 60, 0
4, 155232, Note_on_c, 2, 62, 0
4, 155280, Note_on_c, 2, 60, 105
4, 155280, Note_on_c, 2, 62, 105
4, 155472, Note_on_c, 2, 62, 0
4, 155472, Note_on_c, 2, 60, 0
4, 155520, Note_on_c, 2, 59, 105
4, 155520, Note_on_c, 2, 62, 105
4, 155808, Note_on_c, 2, 62, 0
4, 155904, Note_on_c, 2, 59, 0
4, 156000, Note_on_c, 2, 67, 105
4, 156672, Note_on_c, 2, 67, 0
4, 156720, Note_on_c, 2, 69, 105
4, 156912, Note_on_c, 2, 69, 0
4, 156960, Note_on_c, 2, 66, 105
4, 157152, Note_on_c, 2, 66, 0
4, 157200, Note_on_c, 2, 62, 105
4, 157392, Note_on_c, 2, 62, 0
4, 157440, Note_on_c, 2, 71, 105
4, 158592, Note_on_c, 2, 71, 0
4, 158640, Note_on_c, 2, 72, 105
4, 158832, Note_on_c, 2, 72, 0
4, 158880, Note_on_c, 2, 69, 105
4, 159072, Note_on_c, 2, 69, 0
4, 159120, Note_on_c, 2, 66, 105
4, 159312, Note_on_c, 2, 66, 0
4, 159360, Note_on_c, 2, 67, 105
4, 159648, Note_on_c, 2, 67, 0
4, 159840, Note_on_c, 2, 71, 105
4, 160032, Note_on_c, 2, 71, 0
4, 160080, Note_on_c, 2, 71, 105
4, 160272, Note_on_c, 2, 71, 0
4, 160320, Note_on_c, 2, 71, 105
4, 160560, Note_on_c, 2, 71, 0
4, 160560, Note_on_c, 2, 67, 105
4, 160752, Note_on_c, 2, 67, 0
4, 160800, Note_on_c, 2, 67, 105
4, 160992, Note_on_c, 2, 67, 0
4, 161040, Note_on_c, 2, 67, 105
4, 161232, Note_on_c, 2, 67, 0
4, 161280, Note_on_c, 2, 67, 105
4, 161520, Note_on_c, 2, 67, 0
4, 161520, Note_on_c, 2, 62, 105
4, 161712, Note_on_c, 2, 62, 0
4, 161760, Note_on_c, 2, 62, 105
4, 161952, Note_on_c, 2, 62, 0
4, 162000, Note_on_c, 2, 62, 105
4, 162192, Note_on_c, 2, 62, 0
4, 162240, Note_on_c, 2, 62, 105
4, 162480, Note_on_c, 2, 62, 0
4, 162480, Note_on_c, 2, 59, 105
4, 162672, Note_on_c, 2, 59, 0
4, 162720, Note_on_c, 2, 59, 105
4, 162960, Note_on_c, 2, 59, 0
4, 162960, Note_on_c, 2, 55, 105
4, 163152, Note_on_c, 2, 55, 0
4, 163200, Note_on_c, 2, 62, 105
4, 163392, Note_on_c, 2, 62, 0
4, 163440, Note_on_c, 2, 74, 105
4, 163632, Note_on_c, 2, 74, 0
4, 163680, Note_on_c, 2, 72, 105
4, 163872, Note_on_c, 2, 72, 0
4, 163920, Note_on_c, 2, 74, 105
4, 164112, Note_on_c, 2, 74, 0
4, 164160, Note_on_c, 2, 71, 105
4, 164352, Note_on_c, 2, 71, 0
4, 164400, Note_on_c, 2, 74, 105
4, 164592, Note_on_c, 2, 74, 0
4, 164640, Note_on_c, 2, 71, 105
4, 164832, Note_on_c, 2, 71, 0
4, 164880, Note_on_c, 2, 67, 105
4, 165072, Note_on_c, 2, 67, 0
4, 165120, Note_on_c, 2, 62, 105
4, 165504, Note_on_c, 2, 62, 0
4, 165600, Note_on_c, 2, 62, 92
4, 165984, Note_on_c, 2, 62, 0
4, 166080, Note_on_c, 2, 62, 92
4, 166464, Note_on_c, 2, 62, 0
4, 167520, Note_on_c, 2, 62, 78
4, 168000, Note_on_c, 2, 62, 0
4, 168000, Note_on_c, 2, 64, 58
4, 168192, Note_on_c, 2, 64, 0
4, 168480, Note_on_c, 2, 66, 58
4, 168672, Note_on_c, 2, 66, 0
4, 168960, Note_on_c, 2, 67, 58
4, 169152, Note_on_c, 2, 67, 0
4, 169440, Note_on_c, 2, 69, 58
4, 169632, Note_on_c, 2, 69, 0
4, 169920, Note_on_c, 2, 71, 58
4, 170112, Note_on_c, 2, 71, 0
4, 170400, Note_on_c, 2, 73, 58
4, 170592, Note_on_c, 2, 73, 0
4, 170880, Note_on_c, 2, 74, 58
4, 171264, Note_on_c, 2, 74, 0
4, 171840, Note_on_c, 2, 55, 58
4, 172224, Note_on_c, 2, 55, 0
4, 172800, Note_on_c, 2, 57, 72
4, 172992, Note_on_c, 2, 57, 0
4, 173040, Note_on_c, 2, 56, 72
4, 173232, Note_on_c, 2, 56, 0
4, 173280, Note_on_c, 2, 57, 72
4, 173472, Note_on_c, 2, 57, 0
4, 173520, Note_on_c, 2, 56, 72
4, 173712, Note_on_c, 2, 56, 0
4, 173760, Note_on_c, 2, 57, 72
4, 173952, Note_on_c, 2, 57, 0
4, 174000, Note_on_c, 2, 59, 72
4, 174192, Note_on_c, 2, 59, 0
4, 174240, Note_on_c, 2, 55, 72
4, 174432, Note_on_c, 2, 55, 0
4, 174480, Note_on_c, 2, 52, 72
4, 174672, Note_on_c, 2, 52, 0
4, 174720, Note_on_c, 2, 50, 72
4, 174912, Note_on_c, 2, 50, 0
4, 175200, Note_on_c, 2, 54, 98
4, 175680, Note_on_c, 2, 54, 0
4, 175680, Note_on_c, 2, 55, 58
4, 175872, Note_on_c, 2, 55, 0
4, 176160, Note_on_c, 2, 57, 58
4, 176352, Note_on_c, 2, 57, 0
4, 176640, Note_on_c, 2, 59, 58
4, 176832, Note_on_c, 2, 59, 0
4, 177120, Note_on_c, 2, 61, 58
4, 177312, Note_on_c, 2, 61, 0
4, 177600, Note_on_c, 2, 62, 58
4, 177792, Note_on_c, 2, 62, 0
4, 178080, Note_on_c, 2, 64, 58
4, 178272, Note_on_c, 2, 64, 0
4, 178560, Note_on_c, 2, 57, 58
4, 179520, Note_on_c, 2, 57, 0
4, 179520, Note_on_c, 2, 59, 58
4, 180000, Note_on_c, 2, 59, 0
4, 180000, Note_on_c, 2, 62, 58
4, 180384, Note_on_c, 2, 62, 0
4, 180480, Note_on_c, 2, 68, 58
4, 181440, Note_on_c, 2, 68, 0
4, 181440, Note_on_c, 2, 69, 58
4, 181824, Note_on_c, 2, 69, 0
4, 186240, Note_on_c, 2, 49, 58
4, 186480, Note_on_c, 2, 49, 0
4, 186480, Note_on_c, 2, 50, 58
4, 186660, Note_on_c, 2, 50, 0
4, 186720, Note_on_c, 2, 52, 58
4, 186900, Note_on_c, 2, 52, 0
4, 186960, Note_on_c, 2, 54, 58
4, 187140, Note_on_c, 2, 54, 0
4, 187200, Note_on_c, 2, 55, 58
4, 187560, Note_on_c, 2, 55, 0
4, 188160, Note_on_c, 2, 61, 58
4, 188400, Note_on_c, 2, 61, 0
4, 188400, Note_on_c, 2, 62, 58
4, 188580, Note_on_c, 2, 62, 0
4, 188640, Note_on_c, 2, 64, 58
4, 188820, Note_on_c, 2, 64, 0
4, 188880, Note_on_c, 2, 66, 58
4, 189060, Note_on_c, 2, 66, 0
4, 189120, Note_on_c, 2, 67, 58
4, 189480, Note_on_c, 2, 67, 0
4, 190560, Note_on_c, 2, 61, 58
4, 190716, Note_on_c, 2, 61, 0
4, 190800, Note_on_c, 2, 62, 58
4, 190956, Note_on_c, 2, 62, 0
4, 191040, Note_on_c, 2, 64, 58
4, 191352, Note_on_c, 2, 64, 0
4, 192480, Note_on_c, 2, 61, 58
4, 192636, Note_on_c, 2, 61, 0
4, 192720, Note_on_c, 2, 62, 58
4, 192876, Note_on_c, 2, 62, 0
4, 192960, Note_on_c, 2, 64, 58
4, 193272, Note_on_c, 2, 64, 0
4, 193920, Note_on_c, 2, 69, 72
4, 194400, Note_on_c, 2, 69, 0
4, 194400, Note_on_c, 2, 70, 72
4, 194880, Note_on_c, 2, 70, 0
4, 194880, Note_on_c, 2, 69, 72
4, 195360, Note_on_c, 2, 69, 0
4, 195360, Note_on_c, 2, 70, 72
4, 195840, Note_on_c, 2, 70, 0
4, 195840, Note_on_c, 2, 69, 58
4, 196224, Note_on_c, 2, 69, 0
4, 197760, Note_on_c, 2, 62, 58
4, 197952, Note_on_c, 2, 62, 0
4, 198000, Note_on_c, 2, 62, 58
4, 198192, Note_on_c, 2, 62, 0
4, 198240, Note_on_c, 2, 54, 58
4, 198432, Note_on_c, 2, 54, 0
4, 198480, Note_on_c, 2, 54, 58
4, 198672, Note_on_c, 2, 54, 0
4, 198720, Note_on_c, 2, 57, 58
4, 198912, Note_on_c, 2, 57, 0
4, 198960, Note_on_c, 2, 57, 58
4, 199152, Note_on_c, 2, 57, 0
4, 199200, Note_on_c, 2, 62, 58
4, 199392, Note_on_c, 2, 62, 0
4, 199440, Note_on_c, 2, 62, 58
4, 199632, Note_on_c, 2, 62, 0
4, 199680, Note_on_c, 2, 64, 58
4, 199872, Note_on_c, 2, 64, 0
4, 199920, Note_on_c, 2, 64, 58
4, 200112, Note_on_c, 2, 64, 0
4, 200160, Note_on_c, 2, 64, 58
4, 200352, Note_on_c, 2, 64, 0
4, 200400, Note_on_c, 2, 64, 58
4, 200592, Note_on_c, 2, 64, 0
4, 200640, Note_on_c, 2, 62, 58
4, 200832, Note_on_c, 2, 62, 0
4, 200880, Note_on_c, 2, 62, 58
4, 201072, Note_on_c, 2, 62, 0
4, 201120, Note_on_c, 2, 62, 58
4, 201312, Note_on_c, 2, 62, 0
4, 201360, Note_on_c, 2, 62, 58
4, 201552, Note_on_c, 2, 62, 0
4, 201600, Note_on_c, 2, 64, 58
4, 201792, Note_on_c, 2, 64, 0
4, 201840, Note_on_c, 2, 64, 58
4, 202032, Note_on_c, 2, 64, 0
4, 202080, Note_on_c, 2, 64, 58
4, 202272, Note_on_c, 2, 64, 0
4, 202320, Note_on_c, 2, 64, 58
4, 202512, Note_on_c, 2, 64, 0
4, 202560, Note_on_c, 2, 62, 58
4, 202752, Note_on_c, 2, 62, 0
4, 202800, Note_on_c, 2, 62, 58
4, 202992, Note_on_c, 2, 62, 0
4, 203040, Note_on_c, 2, 62, 58
4, 203232, Note_on_c, 2, 62, 0
4, 203280, Note_on_c, 2, 62, 58
4, 203472, Note_on_c, 2, 62, 0
4, 203520, Note_on_c, 2, 61, 58
4, 203676, Note_on_c, 2, 61, 0
4, 203760, Note_on_c, 2, 71, 58
4, 203916, Note_on_c, 2, 71, 0
4, 204000, Note_on_c, 2, 69, 58
4, 204156, Note_on_c, 2, 69, 0
4, 204240, Note_on_c, 2, 67, 58
4, 204396, Note_on_c, 2, 67, 0
4, 204480, Note_on_c, 2, 66, 58
4, 204636, Note_on_c, 2, 66, 0
4, 204720, Note_on_c, 2, 64, 58
4, 204876, Note_on_c, 2, 64, 0
4, 204960, Note_on_c, 2, 62, 58
4, 205116, Note_on_c, 2, 62, 0
4, 205200, Note_on_c, 2, 61, 58
4, 205356, Note_on_c, 2, 61, 0
4, 205440, Note_on_c, 2, 62, 58
4, 205632, Note_on_c, 2, 62, 0
4, 205680, Note_on_c, 2, 62, 58
4, 205872, Note_on_c, 2, 62, 0
4, 205920, Note_on_c, 2, 54, 58
4, 206112, Note_on_c, 2, 54, 0
4, 206160, Note_on_c, 2, 54, 58
4, 206352, Note_on_c, 2, 54, 0
4, 206400, Note_on_c, 2, 57, 58
4, 206592, Note_on_c, 2, 57, 0
4, 206640, Note_on_c, 2, 57, 58
4, 206832, Note_on_c, 2, 57, 0
4, 206880, Note_on_c, 2, 62, 58
4, 207072, Note_on_c, 2, 62, 0
4, 207120, Note_on_c, 2, 62, 58
4, 207312, Note_on_c, 2, 62, 0
4, 207360, Note_on_c, 2, 64, 58
4, 207552, Note_on_c, 2, 64, 0
4, 207600, Note_on_c, 2, 64, 58
4, 207792, Note_on_c, 2, 64, 0
4, 207840, Note_on_c, 2, 64, 58
4, 208032, Note_on_c, 2, 64, 0
4, 208080, Note_on_c, 2, 64, 58
4, 208272, Note_on_c, 2, 64, 0
4, 208320, Note_on_c, 2, 62, 58
4, 208512, Note_on_c, 2, 62, 0
4, 208560, Note_on_c, 2, 62, 58
4, 208752, Note_on_c, 2, 62, 0
4, 208800, Note_on_c, 2, 62, 58
4, 208992, Note_on_c, 2, 62, 0
4, 209040, Note_on_c, 2, 62, 58
4, 209232, Note_on_c, 2, 62, 0
4, 209280, Note_on_c, 2, 62, 58
4, 209472, Note_on_c, 2, 62, 0
4, 209520, Note_on_c, 2, 62, 58
4, 209712, Note_on_c, 2, 62, 0
4, 209760, Note_on_c, 2, 62, 58
4, 209952, Note_on_c, 2, 62, 0
4, 210000, Note_on_c, 2, 62, 58
4, 210192, Note_on_c, 2, 62, 0
4, 210240, Note_on_c, 2, 62, 58
4, 210432, Note_on_c, 2, 62, 0
4, 210480, Note_on_c, 2, 62, 58
4, 210672, Note_on_c, 2, 62, 0
4, 210720, Note_on_c, 2, 62, 58
4, 210912, Note_on_c, 2, 62, 0
4, 210960, Note_on_c, 2, 62, 58
4, 211152, Note_on_c, 2, 62, 0
4, 211200, Note_on_c, 2, 62, 58
4, 212544, Note_on_c, 2, 62, 0
4, 213120, Note_on_c, 2, 64, 58
4, 213312, Note_on_c, 2, 64, 0
4, 213360, Note_on_c, 2, 64, 58
4, 213552, Note_on_c, 2, 64, 0
4, 213600, Note_on_c, 2, 63, 58
4, 213792, Note_on_c, 2, 63, 0
4, 213840, Note_on_c, 2, 63, 58
4, 214032, Note_on_c, 2, 63, 0
4, 214080, Note_on_c, 2, 64, 58
4, 214272, Note_on_c, 2, 64, 0
4, 214320, Note_on_c, 2, 64, 58
4, 214512, Note_on_c, 2, 64, 0
4, 214560, Note_on_c, 2, 63, 58
4, 214752, Note_on_c, 2, 63, 0
4, 214800, Note_on_c, 2, 63, 58
4, 214992, Note_on_c, 2, 63, 0
4, 215040, Note_on_c, 2, 64, 58
4, 215232, Note_on_c, 2, 64, 0
4, 215280, Note_on_c, 2, 64, 58
4, 215472, Note_on_c, 2, 64, 0
4, 215520, Note_on_c, 2, 64, 58
4, 215712, Note_on_c, 2, 64, 0
4, 215760, Note_on_c, 2, 64, 58
4, 215952, Note_on_c, 2, 64, 0
4, 216000, Note_on_c, 2, 62, 58
4, 216192, Note_on_c, 2, 62, 0
4, 216240, Note_on_c, 2, 62, 58
4, 216432, Note_on_c, 2, 62, 0
4, 216480, Note_on_c, 2, 62, 58
4, 216672, Note_on_c, 2, 62, 0
4, 216720, Note_on_c, 2, 62, 58
4, 216912, Note_on_c, 2, 62, 0
4, 216960, Note_on_c, 2, 59, 58
4, 217152, Note_on_c, 2, 59, 0
4, 217200, Note_on_c, 2, 59, 58
4, 217392, Note_on_c, 2, 59, 0
4, 217440, Note_on_c, 2, 59, 58
4, 217632, Note_on_c, 2, 59, 0
4, 217680, Note_on_c, 2, 59, 58
4, 217872, Note_on_c, 2, 59, 0
4, 217920, Note_on_c, 2, 57, 58
4, 218112, Note_on_c, 2, 57, 0
4, 218160, Note_on_c, 2, 57, 58
4, 218352, Note_on_c, 2, 57, 0
4, 218400, Note_on_c, 2, 57, 58
4, 218592, Note_on_c, 2, 57, 0
4, 218640, Note_on_c, 2, 57, 58
4, 218832, Note_on_c, 2, 57, 0
4, 218880, Note_on_c, 2, 57, 58
4, 220080, Note_on_c, 2, 57, 0
4, 220080, Note_on_c, 2, 61, 58
4, 220320, Note_on_c, 2, 61, 0
4, 220320, Note_on_c, 2, 64, 58
4, 220560, Note_on_c, 2, 64, 0
4, 220560, Note_on_c, 2, 57, 58
4, 220752, Note_on_c, 2, 57, 0
4, 220800, Note_on_c, 2, 69, 58
4, 222000, Note_on_c, 2, 69, 0
4, 222000, Note_on_c, 2, 71, 58
4, 222240, Note_on_c, 2, 71, 0
4, 222240, Note_on_c, 2, 67, 58
4, 222480, Note_on_c, 2, 67, 0
4, 222480, Note_on_c, 2, 69, 58
4, 222672, Note_on_c, 2, 69, 0
4, 222720, Note_on_c, 2, 66, 58
4, 223920, Note_on_c, 2, 66, 0
4, 223920, Note_on_c, 2, 67, 58
4, 224160, Note_on_c, 2, 67, 0
4, 224160, Note_on_c, 2, 64, 58
4, 224400, Note_on_c, 2, 64, 0
4, 224400, Note_on_c, 2, 61, 58
4, 224592, Note_on_c, 2, 61, 0
4, 224640, Note_on_c, 2, 62, 105
4, 224880, Note_on_c, 2, 62, 0
4, 224880, Note_on_c, 2, 69, 105
4, 225072, Note_on_c, 2, 69, 0
4, 225120, Note_on_c, 2, 69, 105
4, 225312, Note_on_c, 2, 69, 0
4, 225360, Note_on_c, 2, 69, 105
4, 225552, Note_on_c, 2, 69, 0
4, 225600, Note_on_c, 2, 69, 105
4, 225840, Note_on_c, 2, 69, 0
4, 225840, Note_on_c, 2, 61, 105
4, 226032, Note_on_c, 2, 61, 0
4, 226080, Note_on_c, 2, 61, 105
4, 226272, Note_on_c, 2, 61, 0
4, 226320, Note_on_c, 2, 61, 105
4, 226512, Note_on_c, 2, 61, 0
4, 226560, Note_on_c, 2, 62, 105
4, 226800, Note_on_c, 2, 62, 0
4, 226800, Note_on_c, 2, 64, 105
4, 226992, Note_on_c, 2, 64, 0
4, 227040, Note_on_c, 2, 66, 105
4, 227232, Note_on_c, 2, 66, 0
4, 227280, Note_on_c, 2, 67, 105
4, 227472, Note_on_c, 2, 67, 0
4, 227520, Note_on_c, 2, 66, 105
4, 227760, Note_on_c, 2, 66, 0
4, 227760, Note_on_c, 2, 64, 105
4, 227952, Note_on_c, 2, 64, 0
4, 228000, Note_on_c, 2, 69, 105
4, 228192, Note_on_c, 2, 69, 0
4, 228240, Note_on_c, 2, 67, 105
4, 228432, Note_on_c, 2, 67, 0
4, 228480, Note_on_c, 2, 67, 105
4, 228720, Note_on_c, 2, 67, 0
4, 228720, Note_on_c, 2, 66, 105
4, 228912, Note_on_c, 2, 66, 0
4, 228960, Note_on_c, 2, 66, 105
4, 229152, Note_on_c, 2, 66, 0
4, 229200, Note_on_c, 2, 66, 105
4, 229392, Note_on_c, 2, 66, 0
4, 229440, Note_on_c, 2, 66, 105
4, 229680, Note_on_c, 2, 66, 0
4, 229680, Note_on_c, 2, 69, 105
4, 229872, Note_on_c, 2, 69, 0
4, 229920, Note_on_c, 2, 67, 105
4, 230112, Note_on_c, 2, 67, 0
4, 230160, Note_on_c, 2, 64, 105
4, 230352, Note_on_c, 2, 64, 0
4, 230400, Note_on_c, 2, 62, 105
4, 230592, Note_on_c, 2, 62, 0
4, 230640, Note_on_c, 2, 54, 58
4, 230832, Note_on_c, 2, 54, 0
4, 230880, Note_on_c, 2, 54, 58
4, 231072, Note_on_c, 2, 54, 0
4, 231120, Note_on_c, 2, 54, 58
4, 231312, Note_on_c, 2, 54, 0
4, 231360, Note_on_c, 2, 54, 58
4, 231552, Note_on_c, 2, 54, 0
4, 231600, Note_on_c, 2, 54, 58
4, 231792, Note_on_c, 2, 54, 0
4, 231840, Note_on_c, 2, 54, 58
4, 232032, Note_on_c, 2, 54, 0
4, 232080, Note_on_c, 2, 54, 58
4, 232272, Note_on_c, 2, 54, 0
4, 232320, Note_on_c, 2, 54, 58
4, 232512, Note_on_c, 2, 54, 0
4, 232560, Note_on_c, 2, 54, 58
4, 232752, Note_on_c, 2, 54, 0
4, 232800, Note_on_c, 2, 54, 58
4, 232992, Note_on_c, 2, 54, 0
4, 233040, Note_on_c, 2, 54, 58
4, 233232, Note_on_c, 2, 54, 0
4, 233280, Note_on_c, 2, 54, 58
4, 233472, Note_on_c, 2, 54, 0
4, 233520, Note_on_c, 2, 54, 58
4, 233712, Note_on_c, 2, 54, 0
4, 233760, Note_on_c, 2, 54, 58
4, 233952, Note_on_c, 2, 54, 0
4, 234000, Note_on_c, 2, 54, 58
4, 234192, Note_on_c, 2, 54, 0
4, 234240, Note_on_c, 2, 55, 58
4, 234432, Note_on_c, 2, 55, 0
4, 234480, Note_on_c, 2, 55, 58
4, 234672, Note_on_c, 2, 55, 0
4, 234720, Note_on_c, 2, 55, 58
4, 234912, Note_on_c, 2, 55, 0
4, 234960, Note_on_c, 2, 55, 58
4, 235152, Note_on_c, 2, 55, 0
4, 235200, Note_on_c, 2, 55, 58
4, 235392, Note_on_c, 2, 55, 0
4, 235440, Note_on_c, 2, 55, 58
4, 235632, Note_on_c, 2, 55, 0
4, 235680, Note_on_c, 2, 55, 58
4, 235872, Note_on_c, 2, 55, 0
4, 235920, Note_on_c, 2, 55, 58
4, 236112, Note_on_c, 2, 55, 0
4, 236160, Note_on_c, 2, 55, 58
4, 236352, Note_on_c, 2, 55, 0
4, 236400, Note_on_c, 2, 55, 58
4, 236592, Note_on_c, 2, 55, 0
4, 236640, Note_on_c, 2, 62, 58
4, 236832, Note_on_c, 2, 62, 0
4, 236880, Note_on_c, 2, 62, 58
4, 237072, Note_on_c, 2, 62, 0
4, 237120, Note_on_c, 2, 60, 58
4, 237312, Note_on_c, 2, 60, 0
4, 237360, Note_on_c, 2, 60, 58
4, 237552, Note_on_c, 2, 60, 0
4, 237600, Note_on_c, 2, 59, 58
4, 237792, Note_on_c, 2, 59, 0
4, 237840, Note_on_c, 2, 59, 58
4, 238032, Note_on_c, 2, 59, 0
4, 238080, Note_on_c, 2, 57, 58
4, 238272, Note_on_c, 2, 57, 0
4, 238320, Note_on_c, 2, 57, 58
4, 238512, Note_on_c, 2, 57, 0
4, 238560, Note_on_c, 2, 57, 58
4, 238752, Note_on_c, 2, 57, 0
4, 238800, Note_on_c, 2, 57, 58
4, 238992, Note_on_c, 2, 57, 0
4, 239040, Note_on_c, 2, 57, 58
4, 239232, Note_on_c, 2, 57, 0
4, 239280, Note_on_c, 2, 57, 58
4, 239472, Note_on_c, 2, 57, 0
4, 239520, Note_on_c, 2, 57, 58
4, 239712, Note_on_c, 2, 57, 0
4, 239760, Note_on_c, 2, 57, 58
4, 239952, Note_on_c, 2, 57, 0
4, 240000, Note_on_c, 2, 62, 58
4, 240192, Note_on_c, 2, 62, 0
4, 240240, Note_on_c, 2, 62, 58
4, 240432, Note_on_c, 2, 62, 0
4, 240480, Note_on_c, 2, 64, 58
4, 240672, Note_on_c, 2, 64, 0
4, 240720, Note_on_c, 2, 64, 58
4, 240912, Note_on_c, 2, 64, 0
4, 240960, Note_on_c, 2, 66, 58
4, 241152, Note_on_c, 2, 66, 0
4, 241200, Note_on_c, 2, 66, 58
4, 241392, Note_on_c, 2, 66, 0
4, 241440, Note_on_c, 2, 67, 58
4, 241632, Note_on_c, 2, 67, 0
4, 241680, Note_on_c, 2, 67, 58
4, 241872, Note_on_c, 2, 67, 0
4, 241920, Note_on_c, 2, 66, 58
4, 241920, Note_on_c, 2, 69, 58
4, 242304, Note_on_c, 2, 69, 0
4, 242304, Note_on_c, 2, 66, 0
4, 243120, Note_on_c, 2, 62, 92
4, 243276, Note_on_c, 2, 62, 0
4, 243360, Note_on_c, 2, 66, 92
4, 243516, Note_on_c, 2, 66, 0
4, 243600, Note_on_c, 2, 69, 92
4, 243756, Note_on_c, 2, 69, 0
4, 243840, Note_on_c, 2, 72, 92
4, 244152, Note_on_c, 2, 72, 0
4, 244320, Note_on_c, 2, 72, 92
4, 244632, Note_on_c, 2, 72, 0
4, 244800, Note_on_c, 2, 72, 92
4, 245112, Note_on_c, 2, 72, 0
4, 245280, Note_on_c, 2, 72, 92
4, 245592, Note_on_c, 2, 72, 0
4, 245760, Note_on_c, 2, 63, 92
4, 246144, Note_on_c, 2, 63, 0
4, 247680, Note_on_c, 2, 51, 58
4, 247872, Note_on_c, 2, 51, 0
4, 247920, Note_on_c, 2, 51, 58
4, 248112, Note_on_c, 2, 51, 0
4, 248160, Note_on_c, 2, 55, 58
4, 248352, Note_on_c, 2, 55, 0
4, 248400, Note_on_c, 2, 55, 58
4, 248592, Note_on_c, 2, 55, 0
4, 248640, Note_on_c, 2, 58, 58
4, 248832, Note_on_c, 2, 58, 0
4, 248880, Note_on_c, 2, 58, 58
4, 249072, Note_on_c, 2, 58, 0
4, 249120, Note_on_c, 2, 63, 58
4, 249312, Note_on_c, 2, 63, 0
4, 249360, Note_on_c, 2, 63, 58
4, 249552, Note_on_c, 2, 63, 0
4, 249600, Note_on_c, 2, 65, 58
4, 249792, Note_on_c, 2, 65, 0
4, 249840, Note_on_c, 2, 65, 58
4, 250032, Note_on_c, 2, 65, 0
4, 250080, Note_on_c, 2, 65, 58
4, 250272, Note_on_c, 2, 65, 0
4, 250320, Note_on_c, 2, 65, 58
4, 250512, Note_on_c, 2, 65, 0
4, 250560, Note_on_c, 2, 63, 58
4, 250752, Note_on_c, 2, 63, 0
4, 250800, Note_on_c, 2, 63, 58
4, 250992, Note_on_c, 2, 63, 0
4, 251040, Note_on_c, 2, 63, 58
4, 251232, Note_on_c, 2, 63, 0
4, 251280, Note_on_c, 2, 63, 58
4, 251472, Note_on_c, 2, 63, 0
4, 251520, Note_on_c, 2, 58, 58
4, 251712, Note_on_c, 2, 58, 0
4, 251760, Note_on_c, 2, 58, 58
4, 251952, Note_on_c, 2, 58, 0
4, 252000, Note_on_c, 2, 58, 58
4, 252192, Note_on_c, 2, 58, 0
4, 252240, Note_on_c, 2, 58, 58
4, 252432, Note_on_c, 2, 58, 0
4, 252480, Note_on_c, 2, 58, 58
4, 252672, Note_on_c, 2, 58, 0
4, 252720, Note_on_c, 2, 58, 58
4, 252912, Note_on_c, 2, 58, 0
4, 252960, Note_on_c, 2, 58, 58
4, 253152, Note_on_c, 2, 58, 0
4, 253200, Note_on_c, 2, 58, 58
4, 253392, Note_on_c, 2, 58, 0
4, 253440, Note_on_c, 2, 58, 58
4, 253632, Note_on_c, 2, 58, 0
4, 253680, Note_on_c, 2, 63, 58
4, 253872, Note_on_c, 2, 63, 0
4, 253920, Note_on_c, 2, 62, 58
4, 254112, Note_on_c, 2, 62, 0
4, 254160, Note_on_c, 2, 60, 58
4, 254352, Note_on_c, 2, 60, 0
4, 254400, Note_on_c, 2, 58, 58
4, 254592, Note_on_c, 2, 58, 0
4, 254640, Note_on_c, 2, 56, 58
4, 254832, Note_on_c, 2, 56, 0
4, 254880, Note_on_c, 2, 55, 58
4, 255072, Note_on_c, 2, 55, 0
4, 255120, Note_on_c, 2, 53, 58
4, 255312, Note_on_c, 2, 53, 0
4, 255360, Note_on_c, 2, 51, 58
4, 255552, Note_on_c, 2, 51, 0
4, 255600, Note_on_c, 2, 51, 58
4, 255792, Note_on_c, 2, 51, 0
4, 255840, Note_on_c, 2, 55, 58
4, 256032, Note_on_c, 2, 55, 0
4, 256080, Note_on_c, 2, 55, 58
4, 256272, Note_on_c, 2, 55, 0
4, 256320, Note_on_c, 2, 58, 58
4, 256512, Note_on_c, 2, 58, 0
4, 256560, Note_on_c, 2, 58, 58
4, 256752, Note_on_c, 2, 58, 0
4, 256800, Note_on_c, 2, 63, 58
4, 256992, Note_on_c, 2, 63, 0
4, 257040, Note_on_c, 2, 63, 58
4, 257232, Note_on_c, 2, 63, 0
4, 257280, Note_on_c, 2, 65, 58
4, 257472, Note_on_c, 2, 65, 0
4, 257520, Note_on_c, 2, 65, 58
4, 257712, Note_on_c, 2, 65, 0
4, 257760, Note_on_c, 2, 65, 58
4, 257952, Note_on_c, 2, 65, 0
4, 258000, Note_on_c, 2, 65, 58
4, 258192, Note_on_c, 2, 65, 0
4, 258240, Note_on_c, 2, 63, 58
4, 258432, Note_on_c, 2, 63, 0
4, 258480, Note_on_c, 2, 63, 58
4, 258672, Note_on_c, 2, 63, 0
4, 258720, Note_on_c, 2, 63, 58
4, 258912, Note_on_c, 2, 63, 0
4, 258960, Note_on_c, 2, 63, 58
4, 259152, Note_on_c, 2, 63, 0
4, 259200, Note_on_c, 2, 63, 58
4, 259392, Note_on_c, 2, 63, 0
4, 259440, Note_on_c, 2, 63, 58
4, 259632, Note_on_c, 2, 63, 0
4, 259680, Note_on_c, 2, 63, 58
4, 259872, Note_on_c, 2, 63, 0
4, 259920, Note_on_c, 2, 63, 58
4, 260112, Note_on_c, 2, 63, 0
4, 260160, Note_on_c, 2, 62, 58
4, 260352, Note_on_c, 2, 62, 0
4, 260400, Note_on_c, 2, 62, 58
4, 260592, Note_on_c, 2, 62, 0
4, 260640, Note_on_c, 2, 63, 58
4, 260832, Note_on_c, 2, 63, 0
4, 260880, Note_on_c, 2, 65, 58
4, 261072, Note_on_c, 2, 65, 0
4, 261120, Note_on_c, 2, 63, 105
4, 261360, Note_on_c, 2, 63, 0
4, 261360, Note_on_c, 2, 58, 105
4, 261600, Note_on_c, 2, 58, 0
4, 261600, Note_on_c, 2, 55, 105
4, 261840, Note_on_c, 2, 55, 0
4, 261840, Note_on_c, 2, 58, 105
4, 262080, Note_on_c, 2, 58, 0
4, 262080, Note_on_c, 2, 56, 105
4, 262320, Note_on_c, 2, 56, 0
4, 262320, Note_on_c, 2, 58, 105
4, 262560, Note_on_c, 2, 58, 0
4, 262560, Note_on_c, 2, 56, 105
4, 262800, Note_on_c, 2, 56, 0
4, 262800, Note_on_c, 2, 58, 105
4, 262992, Note_on_c, 2, 58, 0
4, 263040, Note_on_c, 2, 55, 105
4, 263280, Note_on_c, 2, 55, 0
4, 263280, Note_on_c, 2, 58, 105
4, 263520, Note_on_c, 2, 58, 0
4, 263520, Note_on_c, 2, 55, 105
4, 263760, Note_on_c, 2, 55, 0
4, 263760, Note_on_c, 2, 58, 105
4, 264000, Note_on_c, 2, 58, 0
4, 264000, Note_on_c, 2, 56, 105
4, 264240, Note_on_c, 2, 56, 0
4, 264240, Note_on_c, 2, 58, 105
4, 264480, Note_on_c, 2, 58, 0
4, 264480, Note_on_c, 2, 56, 105
4, 264720, Note_on_c, 2, 56, 0
4, 264720, Note_on_c, 2, 58, 105
4, 264912, Note_on_c, 2, 58, 0
4, 264960, Note_on_c, 2, 55, 105
4, 265248, Note_on_c, 2, 55, 0
4, 265440, Note_on_c, 2, 63, 105
4, 266160, Note_on_c, 2, 63, 0
4, 266160, Note_on_c, 2, 65, 105
4, 266400, Note_on_c, 2, 65, 0
4, 266400, Note_on_c, 2, 62, 105
4, 266640, Note_on_c, 2, 62, 0
4, 266640, Note_on_c, 2, 58, 105
4, 266832, Note_on_c, 2, 58, 0
4, 266880, Note_on_c, 2, 67, 105
4, 268080, Note_on_c, 2, 67, 0
4, 268080, Note_on_c, 2, 68, 105
4, 268320, Note_on_c, 2, 68, 0
4, 268320, Note_on_c, 2, 65, 105
4, 268560, Note_on_c, 2, 65, 0
4, 268560, Note_on_c, 2, 62, 105
4, 268752, Note_on_c, 2, 62, 0
4, 268800, Note_on_c, 2, 63, 92
4, 269088, Note_on_c, 2, 63, 0
4, 269280, Note_on_c, 2, 63, 92
4, 269280, Note_on_c, 2, 55, 92
4, 269568, Note_on_c, 2, 55, 0
4, 269568, Note_on_c, 2, 63, 0
4, 270240, Note_on_c, 2, 55, 92
4, 270240, Note_on_c, 2, 63, 92
4, 270528, Note_on_c, 2, 63, 0
4, 270528, Note_on_c, 2, 55, 0
4, 271200, Note_on_c, 2, 55, 92
4, 271200, Note_on_c, 2, 63, 92
4, 271488, Note_on_c, 2, 63, 0
4, 271488, Note_on_c, 2, 55, 0
4, 271680, Note_on_c, 2, 55, 92
4, 271680, Note_on_c, 2, 63, 92
4, 271968, Note_on_c, 2, 63, 0
4, 271968, Note_on_c, 2, 55, 0
4, 272160, Note_on_c, 2, 55, 92
4, 272160, Note_on_c, 2, 63, 92
4, 272448, Note_on_c, 2, 63, 0
4, 272448, Note_on_c, 2, 55, 0
4, 273120, Note_on_c, 2, 55, 92
4, 273120, Note_on_c, 2, 65, 92
4, 273408, Note_on_c, 2, 65, 0
4, 273408, Note_on_c, 2, 55, 0
4, 274080, Note_on_c, 2, 55, 92
4, 274080, Note_on_c, 2, 65, 92
4, 274368, Note_on_c, 2, 65, 0
4, 274368, Note_on_c, 2, 55, 0
4, 275040, Note_on_c, 2, 65, 92
4, 275040, Note_on_c, 2, 55, 92
4, 275328, Note_on_c, 2, 55, 0
4, 275328, Note_on_c, 2, 65, 0
4, 275520, Note_on_c, 2, 55, 92
4, 275520, Note_on_c, 2, 65, 92
4, 275808, Note_on_c, 2, 65, 0
4, 275808, Note_on_c, 2, 55, 0
4, 276000, Note_on_c, 2, 55, 92
4, 276000, Note_on_c, 2, 65, 92
4, 276288, Note_on_c, 2, 65, 0
4, 276288, Note_on_c, 2, 55, 0
4, 276960, Note_on_c, 2, 55, 92
4, 276960, Note_on_c, 2, 67, 92
4, 277248, Note_on_c, 2, 67, 0
4, 277248, Note_on_c, 2, 55, 0
4, 277920, Note_on_c, 2, 55, 92
4, 277920, Note_on_c, 2, 67, 92
4, 278208, Note_on_c, 2, 67, 0
4, 278208, Note_on_c, 2, 55, 0
4, 278880, Note_on_c, 2, 67, 92
4, 278880, Note_on_c, 2, 55, 92
4, 279168, Note_on_c, 2, 55, 0
4, 279168, Note_on_c, 2, 67, 0
4, 279360, Note_on_c, 2, 67, 92
4, 279360, Note_on_c, 2, 55, 92
4, 279648, Note_on_c, 2, 55, 0
4, 279648, Note_on_c, 2, 67, 0
4, 279840, Note_on_c, 2, 67, 92
4, 279840, Note_on_c, 2, 55, 92
4, 280128, Note_on_c, 2, 55, 0
4, 280128, Note_on_c, 2, 67, 0
4, 280800, Note_on_c, 2, 57, 92
4, 280800, Note_on_c, 2, 62, 92
4, 281088, Note_on_c, 2, 62, 0
4, 281088, Note_on_c, 2, 57, 0
4, 281760, Note_on_c, 2, 57, 92
4, 281760, Note_on_c, 2, 62, 92
4, 282048, Note_on_c, 2, 62, 0
4, 282048, Note_on_c, 2, 57, 0
4, 282720, Note_on_c, 2, 62, 92
4, 282720, Note_on_c, 2, 57, 92
4, 283008, Note_on_c, 2, 57, 0
4, 283008, Note_on_c, 2, 62, 0
4, 283200, Note_on_c, 2, 57, 92
4, 283200, Note_on_c, 2, 62, 92
4, 283488, Note_on_c, 2, 62, 0
4, 283488, Note_on_c, 2, 57, 0
4, 283680, Note_on_c, 2, 62, 92
4, 283680, Note_on_c, 2, 57, 92
4, 283968, Note_on_c, 2, 57, 0
4, 283968, Note_on_c, 2, 62, 0
4, 284640, Note_on_c, 2, 58, 92
4, 284640, Note_on_c, 2, 67, 92
4, 284928, Note_on_c, 2, 67, 0
4, 284928, Note_on_c, 2, 58, 0
4, 285600, Note_on_c, 2, 67, 92
4, 285600, Note_on_c, 2, 58, 92
4, 285888, Note_on_c, 2, 58, 0
4, 285888, Note_on_c, 2, 67, 0
4, 286560, Note_on_c, 2, 58, 92
4, 286560, Note_on_c, 2, 67, 92
4, 286848, Note_on_c, 2, 67, 0
4, 286848, Note_on_c, 2, 58, 0
4, 287040, Note_on_c, 2, 58, 92
4, 287040, Note_on_c, 2, 67, 92
4, 287328, Note_on_c, 2, 67, 0
4, 287328, Note_on_c, 2, 58, 0
4, 287520, Note_on_c, 2, 58, 92
4, 287520, Note_on_c, 2, 67, 92
4, 287808, Note_on_c, 2, 67, 0
4, 287808, Note_on_c, 2, 58, 0
4, 288000, Note_on_c, 2, 67, 92
4, 288240, Note_on_c, 2, 67, 0
4, 288240, Note_on_c, 2, 63, 92
4, 288396, Note_on_c, 2, 63, 0
4, 288480, Note_on_c, 2, 63, 92
4, 288636, Note_on_c, 2, 63, 0
4, 288720, Note_on_c, 2, 63, 92
4, 288876, Note_on_c, 2, 63, 0
4, 288960, Note_on_c, 2, 63, 92
4, 289200, Note_on_c, 2, 63, 0
4, 289200, Note_on_c, 2, 58, 92
4, 289356, Note_on_c, 2, 58, 0
4, 289440, Note_on_c, 2, 58, 92
4, 289596, Note_on_c, 2, 58, 0
4, 289680, Note_on_c, 2, 58, 92
4, 289836, Note_on_c, 2, 58, 0
4, 289920, Note_on_c, 2, 58, 92
4, 290160, Note_on_c, 2, 58, 0
4, 290160, Note_on_c, 2, 55, 92
4, 290316, Note_on_c, 2, 55, 0
4, 290400, Note_on_c, 2, 55, 92
4, 290556, Note_on_c, 2, 55, 0
4, 290640, Note_on_c, 2, 55, 92
4, 290796, Note_on_c, 2, 55, 0
4, 290880, Note_on_c, 2, 55, 92
4, 291120, Note_on_c, 2, 55, 0
4, 291120, Note_on_c, 2, 51, 92
4, 291276, Note_on_c, 2, 51, 0
4, 291360, Note_on_c, 2, 51, 92
4, 291516, Note_on_c, 2, 51, 0
4, 291600, Note_on_c, 2, 49, 92
4, 291756, Note_on_c, 2, 49, 0
4, 291840, Note_on_c, 2, 50, 92
4, 291996, Note_on_c, 2, 50, 0
4, 292080, Note_on_c, 2, 62, 92
4, 292236, Note_on_c, 2, 62, 0
4, 292320, Note_on_c, 2, 60, 92
4, 292476, Note_on_c, 2, 60, 0
4, 292560, Note_on_c, 2, 62, 92
4, 292716, Note_on_c, 2, 62, 0
4, 292800, Note_on_c, 2, 58, 92
4, 292956, Note_on_c, 2, 58, 0
4, 293040, Note_on_c, 2, 62, 92
4, 293196, Note_on_c, 2, 62, 0
4, 293280, Note_on_c, 2, 58, 92
4, 293436, Note_on_c, 2, 58, 0
4, 293520, Note_on_c, 2, 55, 92
4, 293676, Note_on_c, 2, 55, 0
4, 293760, Note_on_c, 2, 62, 92
4, 294048, Note_on_c, 2, 62, 0
4, 294240, Note_on_c, 2, 50, 92
4, 294528, Note_on_c, 2, 50, 0
4, 294720, Note_on_c, 2, 50, 92
4, 295008, Note_on_c, 2, 50, 0
4, 296160, Note_on_c, 2, 55, 98
4, 296640, Note_on_c, 2, 55, 0
4, 296640, Note_on_c, 2, 57, 58
4, 296832, Note_on_c, 2, 57, 0
4, 297120, Note_on_c, 2, 59, 58
4, 297312, Note_on_c, 2, 59, 0
4, 297600, Note_on_c, 2, 60, 58
4, 297792, Note_on_c, 2, 60, 0
4, 298080, Note_on_c, 2, 62, 58
4, 298272, Note_on_c, 2, 62, 0
4, 298560, Note_on_c, 2, 64, 58
4, 298752, Note_on_c, 2, 64, 0
4, 299040, Note_on_c, 2, 66, 58
4, 299232, Note_on_c, 2, 66, 0
4, 299520, Note_on_c, 2, 67, 58
4, 299832, Note_on_c, 2, 67, 0
4, 300480, Note_on_c, 2, 48, 58
4, 300792, Note_on_c, 2, 48, 0
4, 301440, Note_on_c, 2, 50, 72
4, 301632, Note_on_c, 2, 50, 0
4, 301680, Note_on_c, 2, 49, 72
4, 301872, Note_on_c, 2, 49, 0
4, 301920, Note_on_c, 2, 50, 72
4, 302112, Note_on_c, 2, 50, 0
4, 302160, Note_on_c, 2, 49, 72
4, 302352, Note_on_c, 2, 49, 0
4, 302400, Note_on_c, 2, 50, 72
4, 302592, Note_on_c, 2, 50, 0
4, 302640, Note_on_c, 2, 51, 72
4, 302832, Note_on_c, 2, 51, 0
4, 302880, Note_on_c, 2, 52, 72
4, 303072, Note_on_c, 2, 52, 0
4, 303120, Note_on_c, 2, 54, 72
4, 303312, Note_on_c, 2, 54, 0
4, 303360, Note_on_c, 2, 55, 58
4, 303552, Note_on_c, 2, 55, 0
4, 303840, Note_on_c, 2, 59, 98
4, 304320, Note_on_c, 2, 59, 0
4, 304320, Note_on_c, 2, 60, 58
4, 304512, Note_on_c, 2, 60, 0
4, 304800, Note_on_c, 2, 50, 58
4, 304992, Note_on_c, 2, 50, 0
4, 305280, Note_on_c, 2, 52, 58
4, 305472, Note_on_c, 2, 52, 0
4, 305760, Note_on_c, 2, 54, 58
4, 305952, Note_on_c, 2, 54, 0
4, 306240, Note_on_c, 2, 55, 58
4, 306432, Note_on_c, 2, 55, 0
4, 306720, Note_on_c, 2, 57, 58
4, 306912, Note_on_c, 2, 57, 0
4, 307200, Note_on_c, 2, 62, 58
4, 307488, Note_on_c, 2, 62, 0
4, 307680, Note_on_c, 2, 64, 58
4, 308640, Note_on_c, 2, 64, 0
4, 308640, Note_on_c, 2, 67, 58
4, 309024, Note_on_c, 2, 67, 0
4, 309120, Note_on_c, 2, 73, 58
4, 310080, Note_on_c, 2, 73, 0
4, 310080, Note_on_c, 2, 74, 58
4, 310392, Note_on_c, 2, 74, 0
4, 314880, Note_on_c, 2, 54, 58
4, 315120, Note_on_c, 2, 54, 0
4, 315120, Note_on_c, 2, 55, 58
4, 315312, Note_on_c, 2, 55, 0
4, 315360, Note_on_c, 2, 57, 58
4, 315552, Note_on_c, 2, 57, 0
4, 315600, Note_on_c, 2, 59, 58
4, 315792, Note_on_c, 2, 59, 0
4, 315840, Note_on_c, 2, 60, 58
4, 316224, Note_on_c, 2, 60, 0
4, 316800, Note_on_c, 2, 54, 58
4, 317040, Note_on_c, 2, 54, 0
4, 317040, Note_on_c, 2, 55, 58
4, 317232, Note_on_c, 2, 55, 0
4, 317280, Note_on_c, 2, 57, 58
4, 317472, Note_on_c, 2, 57, 0
4, 317520, Note_on_c, 2, 59, 58
4, 317712, Note_on_c, 2, 59, 0
4, 317760, Note_on_c, 2, 60, 58
4, 318144, Note_on_c, 2, 60, 0
4, 318720, Note_on_c, 2, 54, 58
4, 318960, Note_on_c, 2, 54, 0
4, 318960, Note_on_c, 2, 55, 58
4, 319152, Note_on_c, 2, 55, 0
4, 319200, Note_on_c, 2, 57, 58
4, 319392, Note_on_c, 2, 57, 0
4, 319440, Note_on_c, 2, 57, 58
4, 319632, Note_on_c, 2, 57, 0
4, 319680, Note_on_c, 2, 57, 58
4, 320064, Note_on_c, 2, 57, 0
4, 320640, Note_on_c, 2, 54, 58
4, 320880, Note_on_c, 2, 54, 0
4, 320880, Note_on_c, 2, 55, 58
4, 321072, Note_on_c, 2, 55, 0
4, 321120, Note_on_c, 2, 57, 58
4, 321312, Note_on_c, 2, 57, 0
4, 321360, Note_on_c, 2, 57, 58
4, 321552, Note_on_c, 2, 57, 0
4, 321600, Note_on_c, 2, 57, 58
4, 321984, Note_on_c, 2, 57, 0
4, 322560, Note_on_c, 2, 74, 58
4, 323040, Note_on_c, 2, 74, 0
4, 323040, Note_on_c, 2, 75, 58
4, 323520, Note_on_c, 2, 75, 0
4, 323520, Note_on_c, 2, 74, 58
4, 324000, Note_on_c, 2, 74, 0
4, 324000, Note_on_c, 2, 75, 58
4, 324480, Note_on_c, 2, 75, 0
4, 324480, Note_on_c, 2, 74, 58
4, 324864, Note_on_c, 2, 74, 0
4, 326400, Note_on_c, 2, 55, 58
4, 326592, Note_on_c, 2, 55, 0
4, 326640, Note_on_c, 2, 55, 58
4, 326832, Note_on_c, 2, 55, 0
4, 326880, Note_on_c, 2, 59, 58
4, 327072, Note_on_c, 2, 59, 0
4, 327120, Note_on_c, 2, 59, 58
4, 327312, Note_on_c, 2, 59, 0
4, 327360, Note_on_c, 2, 62, 58
4, 327552, Note_on_c, 2, 62, 0
4, 327600, Note_on_c, 2, 62, 58
4, 327792, Note_on_c, 2, 62, 0
4, 327840, Note_on_c, 2, 67, 58
4, 328032, Note_on_c, 2, 67, 0
4, 328080, Note_on_c, 2, 67, 58
4, 328272, Note_on_c, 2, 67, 0
4, 328320, Note_on_c, 2, 69, 58
4, 328512, Note_on_c, 2, 69, 0
4, 328560, Note_on_c, 2, 69, 58
4, 328752, Note_on_c, 2, 69, 0
4, 328800, Note_on_c, 2, 69, 58
4, 328992, Note_on_c, 2, 69, 0
4, 329040, Note_on_c, 2, 69, 58
4, 329232, Note_on_c, 2, 69, 0
4, 329280, Note_on_c, 2, 67, 58
4, 329472, Note_on_c, 2, 67, 0
4, 329520, Note_on_c, 2, 67, 58
4, 329712, Note_on_c, 2, 67, 0
4, 329760, Note_on_c, 2, 67, 58
4, 329952, Note_on_c, 2, 67, 0
4, 330000, Note_on_c, 2, 67, 58
4, 330192, Note_on_c, 2, 67, 0
4, 330240, Note_on_c, 2, 62, 58
4, 330432, Note_on_c, 2, 62, 0
4, 330480, Note_on_c, 2, 62, 58
4, 330672, Note_on_c, 2, 62, 0
4, 330720, Note_on_c, 2, 62, 58
4, 330912, Note_on_c, 2, 62, 0
4, 330960, Note_on_c, 2, 62, 58
4, 331152, Note_on_c, 2, 62, 0
4, 331200, Note_on_c, 2, 62, 58
4, 331392, Note_on_c, 2, 62, 0
4, 331440, Note_on_c, 2, 62, 58
4, 331632, Note_on_c, 2, 62, 0
4, 331680, Note_on_c, 2, 62, 58
4, 331872, Note_on_c, 2, 62, 0
4, 331920, Note_on_c, 2, 62, 58
4, 332112, Note_on_c, 2, 62, 0
4, 332160, Note_on_c, 2, 62, 58
4, 332352, Note_on_c, 2, 62, 0
4, 332400, Note_on_c, 2, 64, 58
4, 332592, Note_on_c, 2, 64, 0
4, 332640, Note_on_c, 2, 62, 58
4, 332832, Note_on_c, 2, 62, 0
4, 332880, Note_on_c, 2, 60, 58
4, 333072, Note_on_c, 2, 60, 0
4, 333120, Note_on_c, 2, 59, 58
4, 333312, Note_on_c, 2, 59, 0
4, 333360, Note_on_c, 2, 57, 58
4, 333552, Note_on_c, 2, 57, 0
4, 333600, Note_on_c, 2, 55, 58
4, 333792, Note_on_c, 2, 55, 0
4, 333840, Note_on_c, 2, 54, 58
4, 334032, Note_on_c, 2, 54, 0
4, 334080, Note_on_c, 2, 55, 58
4, 334272, Note_on_c, 2, 55, 0
4, 334320, Note_on_c, 2, 55, 58
4, 334512, Note_on_c, 2, 55, 0
4, 334560, Note_on_c, 2, 50, 58
4, 334752, Note_on_c, 2, 50, 0
4, 334800, Note_on_c, 2, 50, 58
4, 334992, Note_on_c, 2, 50, 0
4, 335040, Note_on_c, 2, 55, 58
4, 335232, Note_on_c, 2, 55, 0
4, 335280, Note_on_c, 2, 55, 58
4, 335472, Note_on_c, 2, 55, 0
4, 335520, Note_on_c, 2, 59, 58
4, 335712, Note_on_c, 2, 59, 0
4, 335760, Note_on_c, 2, 59, 58
4, 335952, Note_on_c, 2, 59, 0
4, 336000, Note_on_c, 2, 57, 58
4, 336192, Note_on_c, 2, 57, 0
4, 336240, Note_on_c, 2, 57, 58
4, 336432, Note_on_c, 2, 57, 0
4, 336480, Note_on_c, 2, 57, 58
4, 336672, Note_on_c, 2, 57, 0
4, 336720, Note_on_c, 2, 57, 58
4, 336912, Note_on_c, 2, 57, 0
4, 336960, Note_on_c, 2, 55, 58
4, 337152, Note_on_c, 2, 55, 0
4, 337200, Note_on_c, 2, 55, 58
4, 337392, Note_on_c, 2, 55, 0
4, 337440, Note_on_c, 2, 55, 58
4, 337632, Note_on_c, 2, 55, 0
4, 337680, Note_on_c, 2, 55, 58
4, 337872, Note_on_c, 2, 55, 0
4, 337920, Note_on_c, 2, 55, 58
4, 338112, Note_on_c, 2, 55, 0
4, 338160, Note_on_c, 2, 55, 58
4, 338352, Note_on_c, 2, 55, 0
4, 338400, Note_on_c, 2, 55, 58
4, 338592, Note_on_c, 2, 55, 0
4, 338640, Note_on_c, 2, 55, 58
4, 338832, Note_on_c, 2, 55, 0
4, 338880, Note_on_c, 2, 55, 58
4, 339072, Note_on_c, 2, 55, 0
4, 339120, Note_on_c, 2, 55, 58
4, 339312, Note_on_c, 2, 55, 0
4, 339360, Note_on_c, 2, 55, 58
4, 339552, Note_on_c, 2, 55, 0
4, 339600, Note_on_c, 2, 55, 58
4, 339792, Note_on_c, 2, 55, 0
4, 339840, Note_on_c, 2, 55, 58
4, 341184, Note_on_c, 2, 55, 0
4, 341760, Note_on_c, 2, 57, 58
4, 341952, Note_on_c, 2, 57, 0
4, 342000, Note_on_c, 2, 57, 58
4, 342192, Note_on_c, 2, 57, 0
4, 342240, Note_on_c, 2, 56, 58
4, 342432, Note_on_c, 2, 56, 0
4, 342480, Note_on_c, 2, 56, 58
4, 342672, Note_on_c, 2, 56, 0
4, 342720, Note_on_c, 2, 57, 58
4, 342912, Note_on_c, 2, 57, 0
4, 342960, Note_on_c, 2, 57, 58
4, 343152, Note_on_c, 2, 57, 0
4, 343200, Note_on_c, 2, 56, 58
4, 343392, Note_on_c, 2, 56, 0
4, 343440, Note_on_c, 2, 56, 58
4, 343632, Note_on_c, 2, 56, 0
4, 343680, Note_on_c, 2, 57, 58
4, 343872, Note_on_c, 2, 57, 0
4, 343920, Note_on_c, 2, 57, 58
4, 344112, Note_on_c, 2, 57, 0
4, 344160, Note_on_c, 2, 57, 58
4, 344352, Note_on_c, 2, 57, 0
4, 344400, Note_on_c, 2, 57, 58
4, 344592, Note_on_c, 2, 57, 0
4, 344640, Note_on_c, 2, 55, 58
4, 344832, Note_on_c, 2, 55, 0
4, 344880, Note_on_c, 2, 55, 58
4, 345072, Note_on_c, 2, 55, 0
4, 345120, Note_on_c, 2, 55, 58
4, 345312, Note_on_c, 2, 55, 0
4, 345360, Note_on_c, 2, 55, 58
4, 345552, Note_on_c, 2, 55, 0
4, 345600, Note_on_c, 2, 57, 58
4, 345792, Note_on_c, 2, 57, 0
4, 345840, Note_on_c, 2, 57, 58
4, 346032, Note_on_c, 2, 57, 0
4, 346080, Note_on_c, 2, 57, 58
4, 346272, Note_on_c, 2, 57, 0
4, 346320, Note_on_c, 2, 57, 58
4, 346512, Note_on_c, 2, 57, 0
4, 346560, Note_on_c, 2, 62, 58
4, 346752, Note_on_c, 2, 62, 0
4, 346800, Note_on_c, 2, 62, 58
4, 346992, Note_on_c, 2, 62, 0
4, 347040, Note_on_c, 2, 62, 58
4, 347232, Note_on_c, 2, 62, 0
4, 347280, Note_on_c, 2, 62, 58
4, 347472, Note_on_c, 2, 62, 0
4, 347520, Note_on_c, 2, 62, 58
4, 348720, Note_on_c, 2, 62, 0
4, 348720, Note_on_c, 2, 64, 58
4, 348960, Note_on_c, 2, 64, 0
4, 348960, Note_on_c, 2, 60, 58
4, 349200, Note_on_c, 2, 60, 0
4, 349200, Note_on_c, 2, 62, 58
4, 349392, Note_on_c, 2, 62, 0
4, 349440, Note_on_c, 2, 59, 58
4, 350640, Note_on_c, 2, 59, 0
4, 350640, Note_on_c, 2, 60, 58
4, 350880, Note_on_c, 2, 60, 0
4, 350880, Note_on_c, 2, 57, 58
4, 351120, Note_on_c, 2, 57, 0
4, 351120, Note_on_c, 2, 59, 58
4, 351312, Note_on_c, 2, 59, 0
4, 351360, Note_on_c, 2, 59, 58
4, 352560, Note_on_c, 2, 59, 0
4, 352560, Note_on_c, 2, 60, 58
4, 352800, Note_on_c, 2, 60, 0
4, 352800, Note_on_c, 2, 57, 58
4, 353040, Note_on_c, 2, 57, 0
4, 353040, Note_on_c, 2, 54, 58
4, 353232, Note_on_c, 2, 54, 0
4, 353280, Note_on_c, 2, 55, 105
4, 353520, Note_on_c, 2, 55, 0
4, 353520, Note_on_c, 2, 62, 105
4, 353676, Note_on_c, 2, 62, 0
4, 353760, Note_on_c, 2, 62, 105
4, 353916, Note_on_c, 2, 62, 0
4, 354000, Note_on_c, 2, 62, 105
4, 354156, Note_on_c, 2, 62, 0
4, 354240, Note_on_c, 2, 62, 105
4, 354480, Note_on_c, 2, 62, 0
4, 354480, Note_on_c, 2, 66, 105
4, 354636, Note_on_c, 2, 66, 0
4, 354720, Note_on_c, 2, 66, 105
4, 354876, Note_on_c, 2, 66, 0
4, 354960, Note_on_c, 2, 66, 105
4, 355116, Note_on_c, 2, 66, 0
4, 355200, Note_on_c, 2, 67, 105
4, 355440, Note_on_c, 2, 67, 0
4, 355440, Note_on_c, 2, 71, 105
4, 355596, Note_on_c, 2, 71, 0
4, 355680, Note_on_c, 2, 59, 105
4, 355836, Note_on_c, 2, 59, 0
4, 355920, Note_on_c, 2, 62, 105
4, 356076, Note_on_c, 2, 62, 0
4, 356160, Note_on_c, 2, 64, 105
4, 356400, Note_on_c, 2, 64, 0
4, 356400, Note_on_c, 2, 76, 105
4, 356556, Note_on_c, 2, 76, 0
4, 356640, Note_on_c, 2, 74, 105
4, 356796, Note_on_c, 2, 74, 0
4, 356880, Note_on_c, 2, 72, 105
4, 357036, Note_on_c, 2, 72, 0
4, 357120, Note_on_c, 2, 72, 105
4, 357360, Note_on_c, 2, 72, 0
4, 357360, Note_on_c, 2, 71, 105
4, 357516, Note_on_c, 2, 71, 0
4, 357600, Note_on_c, 2, 71, 105
4, 357756, Note_on_c, 2, 71, 0
4, 357840, Note_on_c, 2, 71, 105
4, 357996, Note_on_c, 2, 71, 0
4, 358080, Note_on_c, 2, 71, 105
4, 358320, Note_on_c, 2, 71, 0
4, 358320, Note_on_c, 2, 74, 105
4, 358476, Note_on_c, 2, 74, 0
4, 358560, Note_on_c, 2, 72, 105
4, 358716, Note_on_c, 2, 72, 0
4, 358800, Note_on_c, 2, 69, 105
4, 358956, Note_on_c, 2, 69, 0
4, 359040, Note_on_c, 2, 67, 110
4, 359232, Note_on_c, 2, 67, 0
4, 359280, Note_on_c, 2, 55, 58
4, 359472, Note_on_c, 2, 55, 0
4, 359520, Note_on_c, 2, 55, 58
4, 359712, Note_on_c, 2, 55, 0
4, 359760, Note_on_c, 2, 55, 58
4, 359952, Note_on_c, 2, 55, 0
4, 360000, Note_on_c, 2, 55, 58
4, 360192, Note_on_c, 2, 55, 0
4, 360240, Note_on_c, 2, 55, 58
4, 360432, Note_on_c, 2, 55, 0
4, 360480, Note_on_c, 2, 55, 58
4, 360672, Note_on_c, 2, 55, 0
4, 360720, Note_on_c, 2, 55, 58
4, 360912, Note_on_c, 2, 55, 0
4, 360960, Note_on_c, 2, 55, 58
4, 361152, Note_on_c, 2, 55, 0
4, 361200, Note_on_c, 2, 55, 58
4, 361392, Note_on_c, 2, 55, 0
4, 361440, Note_on_c, 2, 55, 58
4, 361632, Note_on_c, 2, 55, 0
4, 361680, Note_on_c, 2, 55, 58
4, 361872, Note_on_c, 2, 55, 0
4, 361920, Note_on_c, 2, 54, 58
4, 362112, Note_on_c, 2, 54, 0
4, 362160, Note_on_c, 2, 54, 58
4, 362352, Note_on_c, 2, 54, 0
4, 362400, Note_on_c, 2, 53, 58
4, 362592, Note_on_c, 2, 53, 0
4, 362640, Note_on_c, 2, 53, 58
4, 362832, Note_on_c, 2, 53, 0
4, 362880, Note_on_c, 2, 52, 58
4, 363072, Note_on_c, 2, 52, 0
4, 363120, Note_on_c, 2, 52, 58
4, 363312, Note_on_c, 2, 52, 0
4, 363360, Note_on_c, 2, 52, 58
4, 363552, Note_on_c, 2, 52, 0
4, 363600, Note_on_c, 2, 52, 58
4, 363792, Note_on_c, 2, 52, 0
4, 363840, Note_on_c, 2, 52, 58
4, 364032, Note_on_c, 2, 52, 0
4, 364080, Note_on_c, 2, 52, 58
4, 364272, Note_on_c, 2, 52, 0
4, 364320, Note_on_c, 2, 52, 58
4, 364512, Note_on_c, 2, 52, 0
4, 364560, Note_on_c, 2, 52, 58
4, 364752, Note_on_c, 2, 52, 0
4, 364800, Note_on_c, 2, 52, 58
4, 364992, Note_on_c, 2, 52, 0
4, 365040, Note_on_c, 2, 52, 58
4, 365232, Note_on_c, 2, 52, 0
4, 365280, Note_on_c, 2, 64, 58
4, 365472, Note_on_c, 2, 64, 0
4, 365520, Note_on_c, 2, 64, 58
4, 365712, Note_on_c, 2, 64, 0
4, 365760, Note_on_c, 2, 62, 58
4, 365952, Note_on_c, 2, 62, 0
4, 366000, Note_on_c, 2, 62, 58
4, 366192, Note_on_c, 2, 62, 0
4, 366240, Note_on_c, 2, 60, 58
4, 366432, Note_on_c, 2, 60, 0
4, 366480, Note_on_c, 2, 60, 58
4, 366672, Note_on_c, 2, 60, 0
4, 366720, Note_on_c, 2, 59, 58
4, 366912, Note_on_c, 2, 59, 0
4, 366960, Note_on_c, 2, 59, 58
4, 367152, Note_on_c, 2, 59, 0
4, 367200, Note_on_c, 2, 59, 58
4, 367392, Note_on_c, 2, 59, 0
4, 367440, Note_on_c, 2, 59, 58
4, 367632, Note_on_c, 2, 59, 0
4, 367680, Note_on_c, 2, 59, 58
4, 367872, Note_on_c, 2, 59, 0
4, 367920, Note_on_c, 2, 59, 58
4, 368112, Note_on_c, 2, 59, 0
4, 368160, Note_on_c, 2, 59, 58
4, 368352, Note_on_c, 2, 59, 0
4, 368400, Note_on_c, 2, 59, 58
4, 368592, Note_on_c, 2, 59, 0
4, 368640, Note_on_c, 2, 55, 58
4, 368832, Note_on_c, 2, 55, 0
4, 368880, Note_on_c, 2, 55, 58
4, 369072, Note_on_c, 2, 55, 0
4, 369120, Note_on_c, 2, 57, 58
4, 369312, Note_on_c, 2, 57, 0
4, 369360, Note_on_c, 2, 57, 58
4, 369552, Note_on_c, 2, 57, 0
4, 369600, Note_on_c, 2, 59, 58
4, 369792, Note_on_c, 2, 59, 0
4, 369840, Note_on_c, 2, 59, 58
4, 370032, Note_on_c, 2, 59, 0
4, 370080, Note_on_c, 2, 60, 58
4, 370272, Note_on_c, 2, 60, 0
4, 370320, Note_on_c, 2, 60, 58
4, 370512, Note_on_c, 2, 60, 0
4, 370560, Note_on_c, 2, 62, 58
4, 370944, Note_on_c, 2, 62, 0
4, 371760, Note_on_c, 2, 55, 58
4, 371904, Note_on_c, 2, 55, 0
4, 372000, Note_on_c, 2, 59, 92
4, 372144, Note_on_c, 2, 59, 0
4, 372240, Note_on_c, 2, 62, 92
4, 372384, Note_on_c, 2, 62, 0
4, 372480, Note_on_c, 2, 65, 92
4, 372768, Note_on_c, 2, 65, 0
4, 372960, Note_on_c, 2, 65, 92
4, 373248, Note_on_c, 2, 65, 0
4, 373440, Note_on_c, 2, 65, 92
4, 373728, Note_on_c, 2, 65, 0
4, 373920, Note_on_c, 2, 65, 92
4, 374208, Note_on_c, 2, 65, 0
4, 374400, Note_on_c, 2, 56, 92
4, 374784, Note_on_c, 2, 56, 0
4, 376320, Note_on_c, 2, 68, 58
4, 376320, Note_on_c, 2, 71, 58
4, 376632, Note_on_c, 2, 71, 0
4, 376632, Note_on_c, 2, 68, 0
4, 376800, Note_on_c, 2, 68, 58
4, 376800, Note_on_c, 2, 71, 58
4, 377112, Note_on_c, 2, 71, 0
4, 377112, Note_on_c, 2, 68, 0
4, 377280, Note_on_c, 2, 69, 58
4, 377592, Note_on_c, 2, 69, 0
4, 378240, Note_on_c, 2, 66, 58
4, 378240, Note_on_c, 2, 69, 58
4, 378552, Note_on_c, 2, 69, 0
4, 378552, Note_on_c, 2, 66, 0
4, 378720, Note_on_c, 2, 66, 58
4, 378720, Note_on_c, 2, 69, 58
4, 379032, Note_on_c, 2, 69, 0
4, 379032, Note_on_c, 2, 66, 0
4, 379200, Note_on_c, 2, 67, 58
4, 379512, Note_on_c, 2, 67, 0
4, 380160, Note_on_c, 2, 64, 58
4, 380472, Note_on_c, 2, 64, 0
4, 380640, Note_on_c, 2, 64, 58
4, 380952, Note_on_c, 2, 64, 0
4, 381120, Note_on_c, 2, 63, 58
4, 381432, Note_on_c, 2, 63, 0
4, 381600, Note_on_c, 2, 63, 58
4, 381912, Note_on_c, 2, 63, 0
4, 382080, Note_on_c, 2, 62, 58
4, 382464, Note_on_c, 2, 62, 0
4, 383280, Note_on_c, 2, 62, 92
4, 383424, Note_on_c, 2, 62, 0
4, 383520, Note_on_c, 2, 66, 92
4, 383664, Note_on_c, 2, 66, 0
4, 383760, Note_on_c, 2, 69, 92
4, 383904, Note_on_c, 2, 69, 0
4, 384000, Note_on_c, 2, 72, 92
4, 384288, Note_on_c, 2, 72, 0
4, 384480, Note_on_c, 2, 72, 92
4, 384768, Note_on_c, 2, 72, 0
4, 384960, Note_on_c, 2, 72, 92
4, 385248, Note_on_c, 2, 72, 0
4, 385440, Note_on_c, 2, 72, 92
4, 385728, Note_on_c, 2, 72, 0
4, 385920, Note_on_c, 2, 62, 92
4, 386304, Note_on_c, 2, 62, 0
4, 387840, Note_on_c, 2, 55, 58
4, 388032, Note_on_c, 2, 55, 0
4, 388080, Note_on_c, 2, 55, 58
4, 388272, Note_on_c, 2, 55, 0
4, 388320, Note_on_c, 2, 59, 58
4, 388512, Note_on_c, 2, 59, 0
4, 388560, Note_on_c, 2, 59, 58
4, 388752, Note_on_c, 2, 59, 0
4, 388800, Note_on_c, 2, 62, 58
4, 388992, Note_on_c, 2, 62, 0
4, 389040, Note_on_c, 2, 62, 58
4, 389232, Note_on_c, 2, 62, 0
4, 389280, Note_on_c, 2, 67, 58
4, 389472, Note_on_c, 2, 67, 0
4, 389520, Note_on_c, 2, 67, 58
4, 389712, Note_on_c, 2, 67, 0
4, 389760, Note_on_c, 2, 69, 58
4, 389952, Note_on_c, 2, 69, 0
4, 390000, Note_on_c, 2, 69, 58
4, 390192, Note_on_c, 2, 69, 0
4, 390240, Note_on_c, 2, 69, 58
4, 390432, Note_on_c, 2, 69, 0
4, 390480, Note_on_c, 2, 69, 58
4, 390672, Note_on_c, 2, 69, 0
4, 390720, Note_on_c, 2, 67, 58
4, 390912, Note_on_c, 2, 67, 0
4, 390960, Note_on_c, 2, 67, 58
4, 391152, Note_on_c, 2, 67, 0
4, 391200, Note_on_c, 2, 67, 58
4, 391392, Note_on_c, 2, 67, 0
4, 391440, Note_on_c, 2, 67, 58
4, 391632, Note_on_c, 2, 67, 0
4, 391680, Note_on_c, 2, 62, 58
4, 391872, Note_on_c, 2, 62, 0
4, 391920, Note_on_c, 2, 62, 58
4, 392112, Note_on_c, 2, 62, 0
4, 392160, Note_on_c, 2, 62, 58
4, 392352, Note_on_c, 2, 62, 0
4, 392400, Note_on_c, 2, 62, 58
4, 392592, Note_on_c, 2, 62, 0
4, 392640, Note_on_c, 2, 62, 58
4, 392832, Note_on_c, 2, 62, 0
4, 392880, Note_on_c, 2, 62, 58
4, 393072, Note_on_c, 2, 62, 0
4, 393120, Note_on_c, 2, 62, 58
4, 393312, Note_on_c, 2, 62, 0
4, 393360, Note_on_c, 2, 62, 58
4, 393552, Note_on_c, 2, 62, 0
4, 393600, Note_on_c, 2, 62, 58
4, 393792, Note_on_c, 2, 62, 0
4, 393840, Note_on_c, 2, 67, 58
4, 394032, Note_on_c, 2, 67, 0
4, 394080, Note_on_c, 2, 66, 58
4, 394272, Note_on_c, 2, 66, 0
4, 394320, Note_on_c, 2, 64, 58
4, 394512, Note_on_c, 2, 64, 0
4, 394560, Note_on_c, 2, 62, 58
4, 394752, Note_on_c, 2, 62, 0
4, 394800, Note_on_c, 2, 60, 58
4, 394992, Note_on_c, 2, 60, 0
4, 395040, Note_on_c, 2, 59, 58
4, 395232, Note_on_c, 2, 59, 0
4, 395280, Note_on_c, 2, 57, 58
4, 395472, Note_on_c, 2, 57, 0
4, 395520, Note_on_c, 2, 55, 58
4, 395712, Note_on_c, 2, 55, 0
4, 395760, Note_on_c, 2, 55, 58
4, 395952, Note_on_c, 2, 55, 0
4, 396000, Note_on_c, 2, 59, 58
4, 396192, Note_on_c, 2, 59, 0
4, 396240, Note_on_c, 2, 59, 58
4, 396432, Note_on_c, 2, 59, 0
4, 396480, Note_on_c, 2, 62, 58
4, 396672, Note_on_c, 2, 62, 0
4, 396720, Note_on_c, 2, 62, 58
4, 396912, Note_on_c, 2, 62, 0
4, 396960, Note_on_c, 2, 67, 58
4, 397152, Note_on_c, 2, 67, 0
4, 397200, Note_on_c, 2, 67, 58
4, 397392, Note_on_c, 2, 67, 0
4, 397440, Note_on_c, 2, 69, 58
4, 397632, Note_on_c, 2, 69, 0
4, 397680, Note_on_c, 2, 69, 58
4, 397872, Note_on_c, 2, 69, 0
4, 397920, Note_on_c, 2, 69, 58
4, 398112, Note_on_c, 2, 69, 0
4, 398160, Note_on_c, 2, 69, 58
4, 398352, Note_on_c, 2, 69, 0
4, 398400, Note_on_c, 2, 67, 58
4, 398592, Note_on_c, 2, 67, 0
4, 398640, Note_on_c, 2, 67, 58
4, 398832, Note_on_c, 2, 67, 0
4, 398880, Note_on_c, 2, 67, 58
4, 399072, Note_on_c, 2, 67, 0
4, 399120, Note_on_c, 2, 67, 58
4, 399312, Note_on_c, 2, 67, 0
4, 399360, Note_on_c, 2, 67, 58
4, 399552, Note_on_c, 2, 67, 0
4, 399600, Note_on_c, 2, 67, 58
4, 399792, Note_on_c, 2, 67, 0
4, 399840, Note_on_c, 2, 67, 58
4, 400032, Note_on_c, 2, 67, 0
4, 400080, Note_on_c, 2, 67, 58
4, 400272, Note_on_c, 2, 67, 0
4, 400320, Note_on_c, 2, 66, 58
4, 400512, Note_on_c, 2, 66, 0
4, 400560, Note_on_c, 2, 66, 58
4, 400752, Note_on_c, 2, 66, 0
4, 400800, Note_on_c, 2, 67, 58
4, 400992, Note_on_c, 2, 67, 0
4, 401040, Note_on_c, 2, 69, 58
4, 401232, Note_on_c, 2, 69, 0
4, 401280, Note_on_c, 2, 67, 58
4, 401568, Note_on_c, 2, 67, 0
4, 401760, Note_on_c, 2, 59, 58
4, 402240, Note_on_c, 2, 59, 0
4, 402240, Note_on_c, 2, 60, 58
4, 402720, Note_on_c, 2, 60, 0
4, 402720, Note_on_c, 2, 62, 58
4, 403104, Note_on_c, 2, 62, 0
4, 403680, Note_on_c, 2, 60, 58
4, 404160, Note_on_c, 2, 60, 0
4, 404160, Note_on_c, 2, 59, 58
4, 404640, Note_on_c, 2, 59, 0
4, 404640, Note_on_c, 2, 57, 58
4, 405024, Note_on_c, 2, 57, 0
4, 405600, Note_on_c, 2, 59, 58
4, 406080, Note_on_c, 2, 59, 0
4, 406080, Note_on_c, 2, 60, 58
4, 406560, Note_on_c, 2, 60, 0
4, 406560, Note_on_c, 2, 62, 58
4, 406944, Note_on_c, 2, 62, 0
4, 407520, Note_on_c, 2, 60, 58
4, 408000, Note_on_c, 2, 60, 0
4, 408000, Note_on_c, 2, 59, 58
4, 408480, Note_on_c, 2, 59, 0
4, 408480, Note_on_c, 2, 57, 58
4, 408864, Note_on_c, 2, 57, 0
4, 409440, Note_on_c, 2, 59, 58
4, 409920, Note_on_c, 2, 59, 0
4, 409920, Note_on_c, 2, 60, 58
4, 410400, Note_on_c, 2, 60, 0
4, 410400, Note_on_c, 2, 62, 58
4, 410784, Note_on_c, 2, 62, 0
4, 411360, Note_on_c, 2, 60, 58
4, 411840, Note_on_c, 2, 60, 0
4, 411840, Note_on_c, 2, 59, 58
4, 412128, Note_on_c, 2, 59, 0
4, 412320, Note_on_c, 2, 69, 58
4, 412608, Note_on_c, 2, 69, 0
4, 412800, Note_on_c, 2, 67, 58
4, 414240, Note_on_c, 2, 67, 0
4, 414240, Note_on_c, 2, 64, 58
4, 414624, Note_on_c, 2, 64, 0
4, 414720, Note_on_c, 2, 62, 58
4, 416160, Note_on_c, 2, 60, 58
4, 416544, Note_on_c, 2, 60, 0
4, 416544, Note_on_c, 2, 62, 0
4, 416640, Note_on_c, 2, 62, 58
4, 416640, Note_on_c, 2, 59, 58
4, 417096, Note_on_c, 2, 59, 0
4, 417096, Note_on_c, 2, 62, 0
4, 419760, Note_on_c, 2, 62, 105
4, 419904, Note_on_c, 2, 62, 0
4, 420000, Note_on_c, 2, 66, 105
4, 420144, Note_on_c, 2, 66, 0
4, 420240, Note_on_c, 2, 69, 105
4, 420384, Note_on_c, 2, 69, 0
4, 420480, Note_on_c, 2, 74, 105
4, 420768, Note_on_c, 2, 74, 0
4, 420960, Note_on_c, 2, 74, 105
4, 421248, Note_on_c, 2, 74, 0
4, 421440, Note_on_c, 2, 74, 105
4, 421728, Note_on_c, 2, 74, 0
4, 421920, Note_on_c, 2, 74, 105
4, 422208, Note_on_c, 2, 74, 0
4, 422400, Note_on_c, 2, 50, 105
4, 422784, Note_on_c, 2, 50, 0
4, 423600, Note_on_c, 2, 62, 105
4, 423744, Note_on_c, 2, 62, 0
4, 423840, Note_on_c, 2, 66, 105
4, 423984, Note_on_c, 2, 66, 0
4, 424080, Note_on_c, 2, 69, 105
4, 424224, Note_on_c, 2, 69, 0
4, 424320, Note_on_c, 2, 74, 105
4, 424608, Note_on_c, 2, 74, 0
4, 424800, Note_on_c, 2, 74, 105
4, 425088, Note_on_c, 2, 74, 0
4, 425280, Note_on_c, 2, 74, 105
4, 425568, Note_on_c, 2, 74, 0
4, 425760, Note_on_c, 2, 74, 105
4, 426048, Note_on_c, 2, 74, 0
4, 426240, Note_on_c, 2, 50, 105
4, 426624, Note_on_c, 2, 50, 0
4, 427440, Note_on_c, 2, 62, 105
4, 427584, Note_on_c, 2, 62, 0
4, 427680, Note_on_c, 2, 66, 105
4, 427824, Note_on_c, 2, 66, 0
4, 427920, Note_on_c, 2, 69, 105
4, 428064, Note_on_c, 2, 69, 0
4, 428160, Note_on_c, 2, 67, 105
4, 428400, Note_on_c, 2, 67, 0
4, 428400, Note_on_c, 2, 62, 105
4, 428556, Note_on_c, 2, 62, 0
4, 428640, Note_on_c, 2, 62, 105
4, 428796, Note_on_c, 2, 62, 0
4, 428880, Note_on_c, 2, 62, 105
4, 429036, Note_on_c, 2, 62, 0
4, 429120, Note_on_c, 2, 62, 105
4, 429276, Note_on_c, 2, 62, 0
4, 429360, Note_on_c, 2, 62, 105
4, 429516, Note_on_c, 2, 62, 0
4, 429600, Note_on_c, 2, 62, 105
4, 429756, Note_on_c, 2, 62, 0
4, 429840, Note_on_c, 2, 62, 105
4, 429996, Note_on_c, 2, 62, 0
4, 430080, Note_on_c, 2, 60, 105
4, 430236, Note_on_c, 2, 60, 0
4, 430320, Note_on_c, 2, 67, 105
4, 430476, Note_on_c, 2, 67, 0
4, 430560, Note_on_c, 2, 67, 105
4, 430716, Note_on_c, 2, 67, 0
4, 430800, Note_on_c, 2, 67, 105
4, 430956, Note_on_c, 2, 67, 0
4, 431040, Note_on_c, 2, 62, 105
4, 431196, Note_on_c, 2, 62, 0
4, 431280, Note_on_c, 2, 62, 105
4, 431436, Note_on_c, 2, 62, 0
4, 431520, Note_on_c, 2, 62, 105
4, 431520, Note_on_c, 2, 60, 105
4, 431676, Note_on_c, 2, 60, 0
4, 431676, Note_on_c, 2, 62, 0
4, 431760, Note_on_c, 2, 60, 105
4, 431760, Note_on_c, 2, 62, 105
4, 431916, Note_on_c, 2, 62, 0
4, 431916, Note_on_c, 2, 60, 0
4, 432000, Note_on_c, 2, 59, 105
4, 432000, Note_on_c, 2, 62, 105
4, 432180, Note_on_c, 2, 62, 0
4, 432180, Note_on_c, 2, 59, 0
4, 432240, Note_on_c, 2, 59, 105
4, 432240, Note_on_c, 2, 62, 105
4, 432420, Note_on_c, 2, 62, 0
4, 432420, Note_on_c, 2, 59, 0
4, 432480, Note_on_c, 2, 59, 105
4, 432480, Note_on_c, 2, 62, 105
4, 432660, Note_on_c, 2, 62, 0
4, 432660, Note_on_c, 2, 59, 0
4, 432720, Note_on_c, 2, 62, 105
4, 432720, Note_on_c, 2, 59, 105
4, 432900, Note_on_c, 2, 59, 0
4, 432900, Note_on_c, 2, 62, 0
4, 432960, Note_on_c, 2, 59, 105
4, 432960, Note_on_c, 2, 62, 105
4, 433140, Note_on_c, 2, 62, 0
4, 433140, Note_on_c, 2, 59, 0
4, 433200, Note_on_c, 2, 62, 105
4, 433200, Note_on_c, 2, 59, 105
4, 433380, Note_on_c, 2, 59, 0
4, 433380, Note_on_c, 2, 62, 0
4, 433440, Note_on_c, 2, 59, 105
4, 433440, Note_on_c, 2, 62, 105
4, 433620, Note_on_c, 2, 62, 0
4, 433620, Note_on_c, 2, 59, 0
4, 433680, Note_on_c, 2, 59, 105
4, 433680, Note_on_c, 2, 62, 105
4, 433860, Note_on_c, 2, 62, 0
4, 433860, Note_on_c, 2, 59, 0
4, 433920, Note_on_c, 2, 59, 105
4, 433920, Note_on_c, 2, 62, 105
4, 434100, Note_on_c, 2, 62, 0
4, 434100, Note_on_c, 2, 59, 0
4, 434160, Note_on_c, 2, 59, 105
4, 434160, Note_on_c, 2, 62, 105
4, 434340, Note_on_c, 2, 62, 0
4, 434340, Note_on_c, 2, 59, 0
4, 434400, Note_on_c, 2, 62, 105
4, 434400, Note_on_c, 2, 59, 105
4, 434580, Note_on_c, 2, 59, 0
4, 434580, Note_on_c, 2, 62, 0
4, 434640, Note_on_c, 2, 62, 105
4, 434640, Note_on_c, 2, 59, 105
4, 434820, Note_on_c, 2, 59, 0
4, 434820, Note_on_c, 2, 62, 0
4, 434880, Note_on_c, 2, 59, 105
4, 434880, Note_on_c, 2, 62, 105
4, 435060, Note_on_c, 2, 62, 0
4, 435060, Note_on_c, 2, 59, 0
4, 435120, Note_on_c, 2, 62, 105
4, 435120, Note_on_c, 2, 59, 105
4, 435300, Note_on_c, 2, 59, 0
4, 435300, Note_on_c, 2, 62, 0
4, 435360, Note_on_c, 2, 62, 105
4, 435360, Note_on_c, 2, 59, 105
4, 435540, Note_on_c, 2, 59, 0
4, 435540, Note_on_c, 2, 62, 0
4, 435600, Note_on_c, 2, 62, 105
4, 435600, Note_on_c, 2, 59, 105
4, 435780, Note_on_c, 2, 59, 0
4, 435780, Note_on_c, 2, 62, 0
4, 435840, Note_on_c, 2, 59, 105
4, 435840, Note_on_c, 2, 62, 105
4, 436020, Note_on_c, 2, 62, 0
4, 436020, Note_on_c, 2, 59, 0
4, 436080, Note_on_c, 2, 62, 105
4, 436080, Note_on_c, 2, 59, 105
4, 436260, Note_on_c, 2, 59, 0
4, 436260, Note_on_c, 2, 62, 0
4, 436320, Note_on_c, 2, 59, 105
4, 436320, Note_on_c, 2, 62, 105
4, 436500, Note_on_c, 2, 62, 0
4, 436500, Note_on_c, 2, 59, 0
4, 436560, Note_on_c, 2, 59, 105
4, 436560, Note_on_c, 2, 62, 105
4, 436740, Note_on_c, 2, 62, 0
4, 436740, Note_on_c, 2, 59, 0
4, 436800, Note_on_c, 2, 59, 105
4, 436800, Note_on_c, 2, 62, 105
4, 436980, Note_on_c, 2, 62, 0
4, 436980, Note_on_c, 2, 59, 0
4, 437040, Note_on_c, 2, 59, 105
4, 437040, Note_on_c, 2, 62, 105
4, 437220, Note_on_c, 2, 62, 0
4, 437220, Note_on_c, 2, 59, 0
4, 437280, Note_on_c, 2, 59, 105
4, 437280, Note_on_c, 2, 62, 105
4, 437460, Note_on_c, 2, 62, 0
4, 437460, Note_on_c, 2, 59, 0
4, 437520, Note_on_c, 2, 59, 105
4, 437520, Note_on_c, 2, 62, 105
4, 437700, Note_on_c, 2, 62, 0
4, 437700, Note_on_c, 2, 59, 0
4, 437760, Note_on_c, 2, 59, 105
4, 437760, Note_on_c, 2, 62, 105
4, 437940, Note_on_c, 2, 62, 0
4, 437940, Note_on_c, 2, 59, 0
4, 438000, Note_on_c, 2, 62, 105
4, 438000, Note_on_c, 2, 59, 105
4, 438180, Note_on_c, 2, 59, 0
4, 438180, Note_on_c, 2, 62, 0
4, 438240, Note_on_c, 2, 62, 105
4, 438240, Note_on_c, 2, 59, 105
4, 438420, Note_on_c, 2, 59, 0
4, 438420, Note_on_c, 2, 62, 0
4, 438480, Note_on_c, 2, 59, 105
4, 438480, Note_on_c, 2, 62, 105
4, 438660, Note_on_c, 2, 62, 0
4, 438660, Note_on_c, 2, 59, 0
4, 438720, Note_on_c, 2, 62, 105
4, 438720, Note_on_c, 2, 59, 105
4, 438900, Note_on_c, 2, 59, 0
4, 438900, Note_on_c, 2, 62, 0
4, 438960, Note_on_c, 2, 59, 105
4, 438960, Note_on_c, 2, 62, 105
4, 439140, Note_on_c, 2, 62, 0
4, 439140, Note_on_c, 2, 59, 0
4, 439200, Note_on_c, 2, 59, 105
4, 439200, Note_on_c, 2, 62, 105
4, 439380, Note_on_c, 2, 62, 0
4, 439380, Note_on_c, 2, 59, 0
4, 439440, Note_on_c, 2, 59, 105
4, 439440, Note_on_c, 2, 62, 105
4, 439620, Note_on_c, 2, 62, 0
4, 439620, Note_on_c, 2, 59, 0
4, 439680, Note_on_c, 2, 62, 105
4, 439680, Note_on_c, 2, 59, 105
4, 439860, Note_on_c, 2, 59, 0
4, 439860, Note_on_c, 2, 62, 0
4, 439920, Note_on_c, 2, 62, 105
4, 439920, Note_on_c, 2, 59, 105
4, 440100, Note_on_c, 2, 59, 0
4, 440100, Note_on_c, 2, 62, 0
4, 440160, Note_on_c, 2, 62, 105
4, 440160, Note_on_c, 2, 59, 105
4, 440340, Note_on_c, 2, 59, 0
4, 440340, Note_on_c, 2, 62, 0
4, 440400, Note_on_c, 2, 62, 105
4, 440400, Note_on_c, 2, 59, 105
4, 440580, Note_on_c, 2, 59, 0
4, 440580, Note_on_c, 2, 62, 0
4, 440640, Note_on_c, 2, 62, 105
4, 440640, Note_on_c, 2, 59, 105
4, 440820, Note_on_c, 2, 59, 0
4, 440820, Note_on_c, 2, 62, 0
4, 440880, Note_on_c, 2, 59, 105
4, 440880, Note_on_c, 2, 62, 105
4, 441060, Note_on_c, 2, 62, 0
4, 441060, Note_on_c, 2, 59, 0
4, 441120, Note_on_c, 2, 62, 105
4, 441120, Note_on_c, 2, 59, 105
4, 441300, Note_on_c, 2, 59, 0
4, 441300, Note_on_c, 2, 62, 0
4, 441360, Note_on_c, 2, 62, 105
4, 441360, Note_on_c, 2, 59, 105
4, 441540, Note_on_c, 2, 59, 0
4, 441540, Note_on_c, 2, 62, 0
4, 441600, Note_on_c, 2, 59, 105
4, 441600, Note_on_c, 2, 62, 105
4, 441780, Note_on_c, 2, 62, 0
4, 441780, Note_on_c, 2, 59, 0
4, 441840, Note_on_c, 2, 62, 105
4, 441840, Note_on_c, 2, 59, 105
4, 442020, Note_on_c, 2, 59, 0
4, 442020, Note_on_c, 2, 62, 0
4, 442080, Note_on_c, 2, 59, 105
4, 442080, Note_on_c, 2, 62, 105
4, 442260, Note_on_c, 2, 62, 0
4, 442260, Note_on_c, 2, 59, 0
4, 442320, Note_on_c, 2, 62, 105
4, 442320, Note_on_c, 2, 59, 105
4, 442500, Note_on_c, 2, 59, 0
4, 442500, Note_on_c, 2, 62, 0
4, 442560, Note_on_c, 2, 62, 105
4, 442560, Note_on_c, 2, 59, 105
4, 442740, Note_on_c, 2, 59, 0
4, 442740, Note_on_c, 2, 62, 0
4, 442800, Note_on_c, 2, 59, 105
4, 442800, Note_on_c, 2, 62, 105
4, 442980, Note_on_c, 2, 62, 0
4, 442980, Note_on_c, 2, 59, 0
4, 443040, Note_on_c, 2, 62, 105
4, 443040, Note_on_c, 2, 59, 105
4, 443220, Note_on_c, 2, 59, 0
4, 443220, Note_on_c, 2, 62, 0
4, 443280, Note_on_c, 2, 62, 105
4, 443280, Note_on_c, 2, 59, 105
4, 443460, Note_on_c, 2, 59, 0
4, 443460, Note_on_c, 2, 62, 0
4, 443520, Note_on_c, 2, 59, 105
4, 443520, Note_on_c, 2, 62, 105
4, 443700, Note_on_c, 2, 62, 0
4, 443700, Note_on_c, 2, 59, 0
4, 443760, Note_on_c, 2, 59, 105
4, 443760, Note_on_c, 2, 62, 105
4, 443940, Note_on_c, 2, 62, 0
4, 443940, Note_on_c, 2, 59, 0
4, 444000, Note_on_c, 2, 62, 105
4, 444000, Note_on_c, 2, 59, 105
4, 444180, Note_on_c, 2, 59, 0
4, 444180, Note_on_c, 2, 62, 0
4, 444240, Note_on_c, 2, 62, 105
4, 444240, Note_on_c, 2, 59, 105
4, 444420, Note_on_c, 2, 59, 0
4, 444420, Note_on_c, 2, 62, 0
4, 444480, Note_on_c, 2, 62, 105
4, 444480, Note_on_c, 2, 59, 105
4, 444660, Note_on_c, 2, 59, 0
4, 444660, Note_on_c, 2, 62, 0
4, 444720, Note_on_c, 2, 59, 105
4, 444720, Note_on_c, 2, 62, 105
4, 444900, Note_on_c, 2, 62, 0
4, 444900, Note_on_c, 2, 59, 0
4, 444960, Note_on_c, 2, 62, 105
4, 444960, Note_on_c, 2, 59, 105
4, 445140, Note_on_c, 2, 59, 0
4, 445140, Note_on_c, 2, 62, 0
4, 445200, Note_on_c, 2, 62, 105
4, 445200, Note_on_c, 2, 59, 105
4, 445380, Note_on_c, 2, 59, 0
4, 445380, Note_on_c, 2, 62, 0
4, 445440, Note_on_c, 2, 59, 105
4, 445440, Note_on_c, 2, 62, 105
4, 445620, Note_on_c, 2, 62, 0
4, 445620, Note_on_c, 2, 59, 0
4, 445680, Note_on_c, 2, 62, 105
4, 445680, Note_on_c, 2, 59, 105
4, 445860, Note_on_c, 2, 59, 0
4, 445860, Note_on_c, 2, 62, 0
4, 445920, Note_on_c, 2, 59, 105
4, 445920, Note_on_c, 2, 62, 105
4, 446100, Note_on_c, 2, 62, 0
4, 446100, Note_on_c, 2, 59, 0
4, 446160, Note_on_c, 2, 59, 105
4, 446160, Note_on_c, 2, 62, 105
4, 446340, Note_on_c, 2, 62, 0
4, 446340, Note_on_c, 2, 59, 0
4, 446400, Note_on_c, 2, 59, 105
4, 446400, Note_on_c, 2, 62, 105
4, 446580, Note_on_c, 2, 62, 0
4, 446580, Note_on_c, 2, 59, 0
4, 446640, Note_on_c, 2, 62, 105
4, 446640, Note_on_c, 2, 59, 105
4, 446820, Note_on_c, 2, 59, 0
4, 446820, Note_on_c, 2, 62, 0
4, 446880, Note_on_c, 2, 59, 105
4, 446880, Note_on_c, 2, 62, 105
4, 447060, Note_on_c, 2, 62, 0
4, 447060, Note_on_c, 2, 59, 0
4, 447120, Note_on_c, 2, 59, 105
4, 447120, Note_on_c, 2, 62, 105
4, 447300, Note_on_c, 2, 62, 0
4, 447300, Note_on_c, 2, 59, 0
4, 447360, Note_on_c, 2, 59, 105
4, 447360, Note_on_c, 2, 62, 105
4, 447744, Note_on_c, 2, 62, 0
4, 447744, Note_on_c, 2, 59, 0
4, 448320, Note_on_c, 2, 67, 105
4, 448704, Note_on_c, 2, 67, 0
4, 449280, Note_on_c, 2, 55, 105
4, 450048, Note_on_c, 2, 55, 0
4, 450048, End_track
5, 0, Start_track
5, 0, Program_c, 3, 48
5, 0, Control_c, 3, 7, 127
5, 0, Control_c, 3, 10, 98
5, 0, Control_c, 3, 91, 85
5, 1920, Note_on_c, 3, 55, 72
5, 2688, Note_on_c, 3, 55, 0
5, 3840, Note_on_c, 3, 50, 72
5, 4224, Note_on_c, 3, 50, 0
5, 4800, Note_on_c, 3, 55, 72
5, 5184, Note_on_c, 3, 55, 0
5, 5760, Note_on_c, 3, 54, 72
5, 6144, Note_on_c, 3, 54, 0
5, 6720, Note_on_c, 3, 55, 72
5, 7104, Note_on_c, 3, 55, 0
5, 7680, Note_on_c, 3, 50, 72
5, 8064, Note_on_c, 3, 50, 0
5, 9600, Note_on_c, 3, 55, 72
5, 10368, Note_on_c, 3, 55, 0
5, 11520, Note_on_c, 3, 50, 72
5, 11904, Note_on_c, 3, 50, 0
5, 12480, Note_on_c, 3, 52, 72
5, 12864, Note_on_c, 3, 52, 0
5, 13440, Note_on_c, 3, 48, 72
5, 13824, Note_on_c, 3, 48, 0
5, 14400, Note_on_c, 3, 50, 72
5, 14784, Note_on_c, 3, 50, 0
5, 15360, Note_on_c, 3, 55, 72
5, 15744, Note_on_c, 3, 55, 0
5, 15840, Note_on_c, 3, 55, 72
5, 16224, Note_on_c, 3, 55, 0
5, 16320, Note_on_c, 3, 47, 72
5, 16704, Note_on_c, 3, 47, 0
5, 16800, Note_on_c, 3, 50, 72
5, 17184, Note_on_c, 3, 50, 0
5, 17280, Note_on_c, 3, 55, 72
5, 18048, Note_on_c, 3, 55, 0
5, 19200, Note_on_c, 3, 50, 72
5, 19584, Note_on_c, 3, 50, 0
5, 20160, Note_on_c, 3, 55, 72
5, 20544, Note_on_c, 3, 55, 0
5, 21120, Note_on_c, 3, 54, 72
5, 21504, Note_on_c, 3, 54, 0
5, 22080, Note_on_c, 3, 55, 72
5, 22464, Note_on_c, 3, 55, 0
5, 23040, Note_on_c, 3, 50, 72
5, 23424, Note_on_c, 3, 50, 0
5, 24960, Note_on_c, 3, 55, 72
5, 25728, Note_on_c, 3, 55, 0
5, 26880, Note_on_c, 3, 50, 72
5, 27264, Note_on_c, 3, 50, 0
5, 27840, Note_on_c, 3, 52, 72
5, 28224, Note_on_c, 3, 52, 0
5, 28800, Note_on_c, 3, 48, 72
5, 29184, Note_on_c, 3, 48, 0
5, 29760, Note_on_c, 3, 50, 58
5, 30144, Note_on_c, 3, 50, 0
5, 30720, Note_on_c, 3, 43, 127
5, 30912, Note_on_c, 3, 43, 0
5, 30960, Note_on_c, 3, 55, 116
5, 31152, Note_on_c, 3, 55, 0
5, 31200, Note_on_c, 3, 55, 116
5, 31392, Note_on_c, 3, 55, 0
5, 31440, Note_on_c, 3, 55, 116
5, 31632, Note_on_c, 3, 55, 0
5, 31680, Note_on_c, 3, 55, 116
5, 31872, Note_on_c, 3, 55, 0
5, 31920, Note_on_c, 3, 55, 116
5, 32112, Note_on_c, 3, 55, 0
5, 32160, Note_on_c, 3, 55, 116
5, 32352, Note_on_c, 3, 55, 0
5, 32400, Note_on_c, 3, 55, 116
5, 32592, Note_on_c, 3, 55, 0
5, 32640, Note_on_c, 3, 43, 116
5, 32832, Note_on_c, 3, 43, 0
5, 32880, Note_on_c, 3, 55, 116
5, 33072, Note_on_c, 3, 55, 0
5, 33120, Note_on_c, 3, 55, 116
5, 33312, Note_on_c, 3, 55, 0
5, 33360, Note_on_c, 3, 55, 116
5, 33552, Note_on_c, 3, 55, 0
5, 33600, Note_on_c, 3, 55, 116
5, 33792, Note_on_c, 3, 55, 0
5, 33840, Note_on_c, 3, 55, 116
5, 34032, Note_on_c, 3, 55, 0
5, 34080, Note_on_c, 3, 55, 116
5, 34272, Note_on_c, 3, 55, 0
5, 34320, Note_on_c, 3, 55, 116
5, 34512, Note_on_c, 3, 55, 0
5, 34560, Note_on_c, 3, 55, 116
5, 35712, Note_on_c, 3, 55, 0
5, 35760, Note_on_c, 3, 57, 116
5, 35952, Note_on_c, 3, 57, 0
5, 36000, Note_on_c, 3, 54, 116
5, 36192, Note_on_c, 3, 54, 0
5, 36240, Note_on_c, 3, 50, 116
5, 36432, Note_on_c, 3, 50, 0
5, 36480, Note_on_c, 3, 59, 116
5, 37632, Note_on_c, 3, 59, 0
5, 37680, Note_on_c, 3, 60, 116
5, 37872, Note_on_c, 3, 60, 0
5, 37920, Note_on_c, 3, 57, 116
5, 38112, Note_on_c, 3, 57, 0
5, 38160, Note_on_c, 3, 54, 116
5, 38352, Note_on_c, 3, 54, 0
5, 38400, Note_on_c, 3, 55, 116
5, 38688, Note_on_c, 3, 55, 0
5, 38880, Note_on_c, 3, 59, 116
5, 39024, Note_on_c, 3, 59, 0
5, 39120, Note_on_c, 3, 59, 116
5, 39264, Note_on_c, 3, 59, 0
5, 39360, Note_on_c, 3, 59, 116
5, 39600, Note_on_c, 3, 59, 0
5, 39600, Note_on_c, 3, 55, 116
5, 39792, Note_on_c, 3, 55, 0
5, 39840, Note_on_c, 3, 55, 116
5, 40032, Note_on_c, 3, 55, 0
5, 40080, Note_on_c, 3, 55, 116
5, 40272, Note_on_c, 3, 55, 0
5, 40320, Note_on_c, 3, 55, 116
5, 40560, Note_on_c, 3, 55, 0
5, 40560, Note_on_c, 3, 50, 116
5, 40752, Note_on_c, 3, 50, 0
5, 40800, Note_on_c, 3, 50, 116
5, 40992, Note_on_c, 3, 50, 0
5, 41040, Note_on_c, 3, 50, 116
5, 41232, Note_on_c, 3, 50, 0
5, 41280, Note_on_c, 3, 50, 116
5, 41520, Note_on_c, 3, 50, 0
5, 41520, Note_on_c, 3, 47, 116
5, 41712, Note_on_c, 3, 47, 0
5, 41760, Note_on_c, 3, 47, 116
5, 41952, Note_on_c, 3, 47, 0
5, 42000, Note_on_c, 3, 43, 116
5, 42192, Note_on_c, 3, 43, 0
5, 42240, Note_on_c, 3, 50, 116
5, 42432, Note_on_c, 3, 50, 0
5, 42480, Note_on_c, 3, 62, 116
5, 42672, Note_on_c, 3, 62, 0
5, 42720, Note_on_c, 3, 60, 116
5, 42912, Note_on_c, 3, 60, 0
5, 42960, Note_on_c, 3, 62, 116
5, 43152, Note_on_c, 3, 62, 0
5, 43200, Note_on_c, 3, 59, 116
5, 43392, Note_on_c, 3, 59, 0
5, 43440, Note_on_c, 3, 62, 116
5, 43632, Note_on_c, 3, 62, 0
5, 43680, Note_on_c, 3, 59, 116
5, 43872, Note_on_c, 3, 59, 0
5, 43920, Note_on_c, 3, 55, 116
5, 44112, Note_on_c, 3, 55, 0
5, 44160, Note_on_c, 3, 50, 105
5, 44544, Note_on_c, 3, 50, 0
5, 44640, Note_on_c, 3, 50, 105
5, 45024, Note_on_c, 3, 50, 0
5, 45120, Note_on_c, 3, 50, 105
5, 45504, Note_on_c, 3, 50, 0
5, 54240, Note_on_c, 3, 50, 92
5, 54720, Note_on_c, 3, 50, 0
5, 54720, Note_on_c, 3, 52, 72
5, 54912, Note_on_c, 3, 52, 0
5, 55200, Note_on_c, 3, 54, 72
5, 55392, Note_on_c, 3, 54, 0
5, 55680, Note_on_c, 3, 55, 72
5, 55872, Note_on_c, 3, 55, 0
5, 56160, Note_on_c, 3, 57, 72
5, 56352, Note_on_c, 3, 57, 0
5, 56640, Note_on_c, 3, 59, 72
5, 56832, Note_on_c, 3, 59, 0
5, 57120, Note_on_c, 3, 61, 72
5, 57312, Note_on_c, 3, 61, 0
5, 57600, Note_on_c, 3, 62, 72
5, 57984, Note_on_c, 3, 62, 0
5, 58080, Note_on_c, 3, 50, 72
5, 58464, Note_on_c, 3, 50, 0
5, 58560, Note_on_c, 3, 47, 72
5, 58944, Note_on_c, 3, 47, 0
5, 59040, Note_on_c, 3, 52, 72
5, 59424, Note_on_c, 3, 52, 0
5, 59520, Note_on_c, 3, 45, 72
5, 59700, Note_on_c, 3, 45, 0
5, 59760, Note_on_c, 3, 57, 72
5, 59940, Note_on_c, 3, 57, 0
5, 60000, Note_on_c, 3, 57, 72
5, 60180, Note_on_c, 3, 57, 0
5, 60240, Note_on_c, 3, 57, 72
5, 60420, Note_on_c, 3, 57, 0
5, 60480, Note_on_c, 3, 57, 72
5, 60660, Note_on_c, 3, 57, 0
5, 60720, Note_on_c, 3, 57, 72
5, 60900, Note_on_c, 3, 57, 0
5, 60960, Note_on_c, 3, 57, 72
5, 61140, Note_on_c, 3, 57, 0
5, 61200, Note_on_c, 3, 57, 72
5, 61380, Note_on_c, 3, 57, 0
5, 61440, Note_on_c, 3, 45, 72
5, 61620, Note_on_c, 3, 45, 0
5, 61680, Note_on_c, 3, 57, 72
5, 61860, Note_on_c, 3, 57, 0
5, 61920, Note_on_c, 3, 57, 72
5, 62100, Note_on_c, 3, 57, 0
5, 62160, Note_on_c, 3, 57, 72
5, 62340, Note_on_c, 3, 57, 0
5, 62400, Note_on_c, 3, 57, 72
5, 62580, Note_on_c, 3, 57, 0
5, 62640, Note_on_c, 3, 57, 72
5, 62820, Note_on_c, 3, 57, 0
5, 62880, Note_on_c, 3, 57, 72
5, 63060, Note_on_c, 3, 57, 0
5, 63120, Note_on_c, 3, 57, 72
5, 63300, Note_on_c, 3, 57, 0
5, 63360, Note_on_c, 3, 45, 72
5, 63540, Note_on_c, 3, 45, 0
5, 63600, Note_on_c, 3, 57, 72
5, 63780, Note_on_c, 3, 57, 0
5, 63840, Note_on_c, 3, 57, 72
5, 64020, Note_on_c, 3, 57, 0
5, 64080, Note_on_c, 3, 57, 72
5, 64260, Note_on_c, 3, 57, 0
5, 64320, Note_on_c, 3, 57, 72
5, 64500, Note_on_c, 3, 57, 0
5, 64560, Note_on_c, 3, 57, 72
5, 64740, Note_on_c, 3, 57, 0
5, 64800, Note_on_c, 3, 57, 72
5, 64980, Note_on_c, 3, 57, 0
5, 65040, Note_on_c, 3, 57, 72
5, 65220, Note_on_c, 3, 57, 0
5, 65280, Note_on_c, 3, 45, 72
5, 65460, Note_on_c, 3, 45, 0
5, 65520, Note_on_c, 3, 57, 72
5, 65700, Note_on_c, 3, 57, 0
5, 65760, Note_on_c, 3, 57, 72
5, 65940, Note_on_c, 3, 57, 0
5, 66000, Note_on_c, 3, 57, 72
5, 66180, Note_on_c, 3, 57, 0
5, 66240, Note_on_c, 3, 57, 72
5, 66420, Note_on_c, 3, 57, 0
5, 66480, Note_on_c, 3, 57, 72
5, 66660, Note_on_c, 3, 57, 0
5, 66720, Note_on_c, 3, 57, 72
5, 66900, Note_on_c, 3, 57, 0
5, 66960, Note_on_c, 3, 57, 72
5, 67140, Note_on_c, 3, 57, 0
5, 67200, Note_on_c, 3, 45, 72
5, 67380, Note_on_c, 3, 45, 0
5, 67440, Note_on_c, 3, 57, 72
5, 67620, Note_on_c, 3, 57, 0
5, 67680, Note_on_c, 3, 57, 72
5, 67860, Note_on_c, 3, 57, 0
5, 67920, Note_on_c, 3, 57, 72
5, 68100, Note_on_c, 3, 57, 0
5, 68160, Note_on_c, 3, 57, 72
5, 68544, Note_on_c, 3, 57, 0
5, 69120, Note_on_c, 3, 58, 72
5, 70080, Note_on_c, 3, 58, 0
5, 70080, Note_on_c, 3, 57, 72
5, 70464, Note_on_c, 3, 57, 0
5, 71040, Note_on_c, 3, 58, 72
5, 72000, Note_on_c, 3, 58, 0
5, 72000, Note_on_c, 3, 57, 72
5, 72384, Note_on_c, 3, 57, 0
5, 76800, Note_on_c, 3, 50, 72
5, 77568, Note_on_c, 3, 50, 0
5, 78720, Note_on_c, 3, 57, 72
5, 79080, Note_on_c, 3, 57, 0
5, 79680, Note_on_c, 3, 62, 72
5, 80040, Note_on_c, 3, 62, 0
5, 80640, Note_on_c, 3, 61, 72
5, 81000, Note_on_c, 3, 61, 0
5, 81600, Note_on_c, 3, 62, 72
5, 81960, Note_on_c, 3, 62, 0
5, 82560, Note_on_c, 3, 57, 72
5, 82920, Note_on_c, 3, 57, 0
5, 84480, Note_on_c, 3, 50, 72
5, 85248, Note_on_c, 3, 50, 0
5, 86400, Note_on_c, 3, 57, 72
5, 86760, Note_on_c, 3, 57, 0
5, 87360, Note_on_c, 3, 59, 72
5, 87720, Note_on_c, 3, 59, 0
5, 88320, Note_on_c, 3, 55, 72
5, 88680, Note_on_c, 3, 55, 0
5, 89280, Note_on_c, 3, 57, 72
5, 89640, Note_on_c, 3, 57, 0
5, 90240, Note_on_c, 3, 60, 72
5, 91200, Note_on_c, 3, 60, 0
5, 91200, Note_on_c, 3, 59, 72
5, 91584, Note_on_c, 3, 59, 0
5, 92160, Note_on_c, 3, 55, 72
5, 92928, Note_on_c, 3, 55, 0
5, 94080, Note_on_c, 3, 57, 72
5, 94440, Note_on_c, 3, 57, 0
5, 95040, Note_on_c, 3, 59, 72
5, 95400, Note_on_c, 3, 59, 0
5, 96000, Note_on_c, 3, 55, 72
5, 96384, Note_on_c, 3, 55, 0
5, 96960, Note_on_c, 3, 57, 72
5, 97344, Note_on_c, 3, 57, 0
5, 97920, Note_on_c, 3, 54, 72
5, 98880, Note_on_c, 3, 54, 0
5, 98880, Note_on_c, 3, 52, 72
5, 99840, Note_on_c, 3, 52, 0
5, 99840, Note_on_c, 3, 50, 72
5, 100800, Note_on_c, 3, 50, 0
5, 100800, Note_on_c, 3, 55, 72
5, 101568, Note_on_c, 3, 55, 0
5, 101760, Note_on_c, 3, 57, 58
5, 102720, Note_on_c, 3, 57, 0
5, 102720, Note_on_c, 3, 45, 58
5, 103488, Note_on_c, 3, 45, 0
5, 103680, Note_on_c, 3, 54, 127
5, 103824, Note_on_c, 3, 54, 0
5, 103920, Note_on_c, 3, 54, 116
5, 104112, Note_on_c, 3, 54, 0
5, 104160, Note_on_c, 3, 54, 116
5, 104352, Note_on_c, 3, 54, 0
5, 104400, Note_on_c, 3, 54, 116
5, 104592, Note_on_c, 3, 54, 0
5, 104640, Note_on_c, 3, 52, 116
5, 104832, Note_on_c, 3, 52, 0
5, 104880, Note_on_c, 3, 52, 116
5, 105072, Note_on_c, 3, 52, 0
5, 105120, Note_on_c, 3, 52, 116
5, 105312, Note_on_c, 3, 52, 0
5, 105360, Note_on_c, 3, 52, 116
5, 105552, Note_on_c, 3, 52, 0
5, 105600, Note_on_c, 3, 50, 116
5, 105792, Note_on_c, 3, 50, 0
5, 105840, Note_on_c, 3, 50, 116
5, 106032, Note_on_c, 3, 50, 0
5, 106080, Note_on_c, 3, 50, 116
5, 106272, Note_on_c, 3, 50, 0
5, 106320, Note_on_c, 3, 50, 116
5, 106512, Note_on_c, 3, 50, 0
5, 106560, Note_on_c, 3, 55, 116
5, 106752, Note_on_c, 3, 55, 0
5, 106800, Note_on_c, 3, 55, 116
5, 106992, Note_on_c, 3, 55, 0
5, 107040, Note_on_c, 3, 55, 116
5, 107232, Note_on_c, 3, 55, 0
5, 107280, Note_on_c, 3, 55, 116
5, 107472, Note_on_c, 3, 55, 0
5, 107520, Note_on_c, 3, 57, 116
5, 107712, Note_on_c, 3, 57, 0
5, 107760, Note_on_c, 3, 57, 116
5, 107952, Note_on_c, 3, 57, 0
5, 108000, Note_on_c, 3, 57, 116
5, 108192, Note_on_c, 3, 57, 0
5, 108240, Note_on_c, 3, 57, 116
5, 108432, Note_on_c, 3, 57, 0
5, 108480, Note_on_c, 3, 45, 116
5, 108672, Note_on_c, 3, 45, 0
5, 108720, Note_on_c, 3, 45, 116
5, 108912, Note_on_c, 3, 45, 0
5, 108960, Note_on_c, 3, 45, 116
5, 109152, Note_on_c, 3, 45, 0
5, 109200, Note_on_c, 3, 45, 116
5, 109392, Note_on_c, 3, 45, 0
5, 109440, Note_on_c, 3, 50, 110
5, 109824, Note_on_c, 3, 50, 0
5, 109920, Note_on_c, 3, 50, 72
5, 110304, Note_on_c, 3, 50, 0
5, 110400, Note_on_c, 3, 54, 72
5, 110784, Note_on_c, 3, 54, 0
5, 110880, Note_on_c, 3, 57, 72
5, 111264, Note_on_c, 3, 57, 0
5, 111360, Note_on_c, 3, 62, 72
5, 111744, Note_on_c, 3, 62, 0
5, 111840, Note_on_c, 3, 50, 72
5, 112224, Note_on_c, 3, 50, 0
5, 113760, Note_on_c, 3, 50, 72
5, 114144, Note_on_c, 3, 50, 0
5, 114240, Note_on_c, 3, 55, 72
5, 114624, Note_on_c, 3, 55, 0
5, 114720, Note_on_c, 3, 59, 72
5, 115104, Note_on_c, 3, 59, 0
5, 115200, Note_on_c, 3, 62, 72
5, 115584, Note_on_c, 3, 62, 0
5, 115680, Note_on_c, 3, 50, 72
5, 116064, Note_on_c, 3, 50, 0
5, 117600, Note_on_c, 3, 50, 72
5, 117984, Note_on_c, 3, 50, 0
5, 118080, Note_on_c, 3, 54, 72
5, 118464, Note_on_c, 3, 54, 0
5, 118560, Note_on_c, 3, 57, 72
5, 118944, Note_on_c, 3, 57, 0
5, 119040, Note_on_c, 3, 62, 72
5, 119424, Note_on_c, 3, 62, 0
5, 119520, Note_on_c, 3, 50, 72
5, 119904, Note_on_c, 3, 50, 0
5, 122880, Note_on_c, 3, 55, 72
5, 123648, Note_on_c, 3, 55, 0
5, 124800, Note_on_c, 3, 50, 72
5, 125184, Note_on_c, 3, 50, 0
5, 125760, Note_on_c, 3, 55, 72
5, 126144, Note_on_c, 3, 55, 0
5, 126720, Note_on_c, 3, 54, 72
5, 127104, Note_on_c, 3, 54, 0
5, 127680, Note_on_c, 3, 55, 72
5, 128064, Note_on_c, 3, 55, 0
5, 128640, Note_on_c, 3, 50, 72
5, 129024, Note_on_c, 3, 50, 0
5, 130560, Note_on_c, 3, 55, 72
5, 131328, Note_on_c, 3, 55, 0
5, 132480, Note_on_c, 3, 50, 72
5, 132864, Note_on_c, 3, 50, 0
5, 133440, Note_on_c, 3, 52, 72
5, 133824, Note_on_c, 3, 52, 0
5, 134400, Note_on_c, 3, 48, 72
5, 134784, Note_on_c, 3, 48, 0
5, 135360, Note_on_c, 3, 50, 72
5, 135744, Note_on_c, 3, 50, 0
5, 136320, Note_on_c, 3, 55, 72
5, 136704, Note_on_c, 3, 55, 0
5, 136800, Note_on_c, 3, 55, 72
5, 137184, Note_on_c, 3, 55, 0
5, 137280, Note_on_c, 3, 47, 72
5, 137664, Note_on_c, 3, 47, 0
5, 137760, Note_on_c, 3, 50, 72
5, 138144, Note_on_c, 3, 50, 0
5, 138240, Note_on_c, 3, 55, 72
5, 139008, Note_on_c, 3, 55, 0
5, 140160, Note_on_c, 3, 50, 72
5, 140544, Note_on_c, 3, 50, 0
5, 141120, Note_on_c, 3, 55, 72
5, 141504, Note_on_c, 3, 55, 0
5, 142080, Note_on_c, 3, 54, 72
5, 142464, Note_on_c, 3, 54, 0
5, 143040, Note_on_c, 3, 55, 72
5, 143424, Note_on_c, 3, 55, 0
5, 144000, Note_on_c, 3, 50, 72
5, 144384, Note_on_c, 3, 50, 0
5, 145920, Note_on_c, 3, 55, 72
5, 146688, Note_on_c, 3, 55, 0
5, 147840, Note_on_c, 3, 50, 72
5, 148224, Note_on_c, 3, 50, 0
5, 148800, Note_on_c, 3, 52, 72
5, 149184, Note_on_c, 3, 52, 0
5, 149760, Note_on_c, 3, 48, 72
5, 150144, Note_on_c, 3, 48, 0
5, 150720, Note_on_c, 3, 50, 58
5, 151104, Note_on_c, 3, 50, 0
5, 151680, Note_on_c, 3, 43, 127
5, 151872, Note_on_c, 3, 43, 0
5, 151920, Note_on_c, 3, 55, 116
5, 152112, Note_on_c, 3, 55, 0
5, 152160, Note_on_c, 3, 55, 116
5, 152352, Note_on_c, 3, 55, 0
5, 152400, Note_on_c, 3, 55, 116
5, 152592, Note_on_c, 3, 55, 0
5, 152640, Note_on_c, 3, 55, 116
5, 152832, Note_on_c, 3, 55, 0
5, 152880, Note_on_c, 3, 55, 116
5, 153072, Note_on_c, 3, 55, 0
5, 153120, Note_on_c, 3, 55, 116
5, 153312, Note_on_c, 3, 55, 0
5, 153360, Note_on_c, 3, 55, 116
5, 153552, Note_on_c, 3, 55, 0
5, 153600, Note_on_c, 3, 43, 116
5, 153792, Note_on_c, 3, 43, 0
5, 153840, Note_on_c, 3, 55, 116
5, 154032, Note_on_c, 3, 55, 0
5, 154080, Note_on_c, 3, 55, 116
5, 154272, Note_on_c, 3, 55, 0
5, 154320, Note_on_c, 3, 55, 116
5, 154512, Note_on_c, 3, 55, 0
5, 154560, Note_on_c, 3, 55, 116
5, 154752, Note_on_c, 3, 55, 0
5, 154800, Note_on_c, 3, 55, 116
5, 154992, Note_on_c, 3, 55, 0
5, 155040, Note_on_c, 3, 55, 116
5, 155232, Note_on_c, 3, 55, 0
5, 155280, Note_on_c, 3, 55, 116
5, 155472, Note_on_c, 3, 55, 0
5, 155520, Note_on_c, 3, 55, 116
5, 156672, Note_on_c, 3, 55, 0
5, 156720, Note_on_c, 3, 57, 116
5, 156912, Note_on_c, 3, 57, 0
5, 156960, Note_on_c, 3, 54, 116
5, 157152, Note_on_c, 3, 54, 0
5, 157200, Note_on_c, 3, 50, 116
5, 157392, Note_on_c, 3, 50, 0
5, 157440, Note_on_c, 3, 59, 116
5, 158592, Note_on_c, 3, 59, 0
5, 158640, Note_on_c, 3, 60, 116
5, 158832, Note_on_c, 3, 60, 0
5, 158880, Note_on_c, 3, 57, 116
5, 159072, Note_on_c, 3, 57, 0
5, 159120, Note_on_c, 3, 54, 116
5, 159312, Note_on_c, 3, 54, 0
5, 159360, Note_on_c, 3, 55, 116
5, 159648, Note_on_c, 3, 55, 0
5, 159840, Note_on_c, 3, 59, 116
5, 159984, Note_on_c, 3, 59, 0
5, 160080, Note_on_c, 3, 59, 116
5, 160224, Note_on_c, 3, 59, 0
5, 160320, Note_on_c, 3, 59, 116
5, 160560, Note_on_c, 3, 59, 0
5, 160560, Note_on_c, 3, 55, 116
5, 160752, Note_on_c, 3, 55, 0
5, 160800, Note_on_c, 3, 55, 116
5, 160992, Note_on_c, 3, 55, 0
5, 161040, Note_on_c, 3, 55, 116
5, 161232, Note_on_c, 3, 55, 0
5, 161280, Note_on_c, 3, 55, 116
5, 161520, Note_on_c, 3, 55, 0
5, 161520, Note_on_c, 3, 50, 116
5, 161712, Note_on_c, 3, 50, 0
5, 161760, Note_on_c, 3, 50, 116
5, 161952, Note_on_c, 3, 50, 0
5, 162000, Note_on_c, 3, 50, 116
5, 162192, Note_on_c, 3, 50, 0
5, 162240, Note_on_c, 3, 50, 116
5, 162480, Note_on_c, 3, 50, 0
5, 162480, Note_on_c, 3, 47, 116
5, 162672, Note_on_c, 3, 47, 0
5, 162720, Note_on_c, 3, 47, 116
5, 162912, Note_on_c, 3, 47, 0
5, 162960, Note_on_c, 3, 43, 116
5, 163152, Note_on_c, 3, 43, 0
5, 163200, Note_on_c, 3, 50, 116
5, 163392, Note_on_c, 3, 50, 0
5, 163440, Note_on_c, 3, 62, 116
5, 163632, Note_on_c, 3, 62, 0
5, 163680, Note_on_c, 3, 60, 116
5, 163872, Note_on_c, 3, 60, 0
5, 163920, Note_on_c, 3, 62, 116
5, 164112, Note_on_c, 3, 62, 0
5, 164160, Note_on_c, 3, 59, 116
5, 164352, Note_on_c, 3, 59, 0
5, 164400, Note_on_c, 3, 62, 116
5, 164592, Note_on_c, 3, 62, 0
5, 164640, Note_on_c, 3, 59, 116
5, 164832, Note_on_c, 3, 59, 0
5, 164880, Note_on_c, 3, 55, 116
5, 165072, Note_on_c, 3, 55, 0
5, 165120, Note_on_c, 3, 50, 105
5, 165504, Note_on_c, 3, 50, 0
5, 165600, Note_on_c, 3, 50, 105
5, 165984, Note_on_c, 3, 50, 0
5, 166080, Note_on_c, 3, 50, 105
5, 166464, Note_on_c, 3, 50, 0
5, 175200, Note_on_c, 3, 50, 92
5, 175680, Note_on_c, 3, 50, 0
5, 175680, Note_on_c, 3, 52, 72
5, 175872, Note_on_c, 3, 52, 0
5, 176160, Note_on_c, 3, 54, 72
5, 176352, Note_on_c, 3, 54, 0
5, 176640, Note_on_c, 3, 55, 72
5, 176832, Note_on_c, 3, 55, 0
5, 177120, Note_on_c, 3, 57, 72
5, 177312, Note_on_c, 3, 57, 0
5, 177600, Note_on_c, 3, 59, 72
5, 177792, Note_on_c, 3, 59, 0
5, 178080, Note_on_c, 3, 61, 72
5, 178272, Note_on_c, 3, 61, 0
5, 178560, Note_on_c, 3, 62, 72
5, 178944, Note_on_c, 3, 62, 0
5, 179040, Note_on_c, 3, 50, 72
5, 179424, Note_on_c, 3, 50, 0
5, 179520, Note_on_c, 3, 47, 72
5, 179904, Note_on_c, 3, 47, 0
5, 180000, Note_on_c, 3, 52, 72
5, 180384, Note_on_c, 3, 52, 0
5, 180480, Note_on_c, 3, 45, 72
5, 180660, Note_on_c, 3, 45, 0
5, 180720, Note_on_c, 3, 57, 72
5, 180900, Note_on_c, 3, 57, 0
5, 180960, Note_on_c, 3, 57, 72
5, 181140, Note_on_c, 3, 57, 0
5, 181200, Note_on_c, 3, 57, 72
5, 181380, Note_on_c, 3, 57, 0
5, 181440, Note_on_c, 3, 57, 72
5, 181620, Note_on_c, 3, 57, 0
5, 181680, Note_on_c, 3, 57, 72
5, 181860, Note_on_c, 3, 57, 0
5, 181920, Note_on_c, 3, 57, 72
5, 182100, Note_on_c, 3, 57, 0
5, 182160, Note_on_c, 3, 57, 72
5, 182340, Note_on_c, 3, 57, 0
5, 182400, Note_on_c, 3, 45, 72
5, 182580, Note_on_c, 3, 45, 0
5, 182640, Note_on_c, 3, 57, 72
5, 182820, Note_on_c, 3, 57, 0
5, 182880, Note_on_c, 3, 57, 72
5, 183060, Note_on_c, 3, 57, 0
5, 183120, Note_on_c, 3, 57, 72
5, 183300, Note_on_c, 3, 57, 0
5, 183360, Note_on_c, 3, 57, 72
5, 183540, Note_on_c, 3, 57, 0
5, 183600, Note_on_c, 3, 57, 72
5, 183780, Note_on_c, 3, 57, 0
5, 183840, Note_on_c, 3, 57, 72
5, 184020, Note_on_c, 3, 57, 0
5, 184080, Note_on_c, 3, 57, 72
5, 184260, Note_on_c, 3, 57, 0
5, 184320, Note_on_c, 3, 45, 72
5, 184500, Note_on_c, 3, 45, 0
5, 184560, Note_on_c, 3, 57, 72
5, 184740, Note_on_c, 3, 57, 0
5, 184800, Note_on_c, 3, 57, 72
5, 184980, Note_on_c, 3, 57, 0
5, 185040, Note_on_c, 3, 57, 72
5, 185220, Note_on_c, 3, 57, 0
5, 185280, Note_on_c, 3, 57, 72
5, 185460, Note_on_c, 3, 57, 0
5, 185520, Note_on_c, 3, 57, 72
5, 185700, Note_on_c, 3, 57, 0
5, 185760, Note_on_c, 3, 57, 72
5, 185940, Note_on_c, 3, 57, 0
5, 186000, Note_on_c, 3, 57, 72
5, 186180, Note_on_c, 3, 57, 0
5, 186240, Note_on_c, 3, 45, 72
5, 186420, Note_on_c, 3, 45, 0
5, 186480, Note_on_c, 3, 57, 72
5, 186660, Note_on_c, 3, 57, 0
5, 186720, Note_on_c, 3, 57, 72
5, 186900, Note_on_c, 3, 57, 0
5, 186960, Note_on_c, 3, 57, 72
5, 187140, Note_on_c, 3, 57, 0
5, 187200, Note_on_c, 3, 57, 72
5, 187380, Note_on_c, 3, 57, 0
5, 187440, Note_on_c, 3, 57, 72
5, 187620, Note_on_c, 3, 57, 0
5, 187680, Note_on_c, 3, 57, 72
5, 187860, Note_on_c, 3, 57, 0
5, 187920, Note_on_c, 3, 57, 72
5, 188100, Note_on_c, 3, 57, 0
5, 188160, Note_on_c, 3, 45, 72
5, 188340, Note_on_c, 3, 45, 0
5, 188400, Note_on_c, 3, 57, 72
5, 188580, Note_on_c, 3, 57, 0
5, 188640, Note_on_c, 3, 57, 72
5, 188820, Note_on_c, 3, 57, 0
5, 188880, Note_on_c, 3, 57, 72
5, 189060, Note_on_c, 3, 57, 0
5, 189120, Note_on_c, 3, 57, 72
5, 189504, Note_on_c, 3, 57, 0
5, 190080, Note_on_c, 3, 58, 72
5, 191040, Note_on_c, 3, 58, 0
5, 191040, Note_on_c, 3, 57, 72
5, 191424, Note_on_c, 3, 57, 0
5, 192000, Note_on_c, 3, 58, 72
5, 192960, Note_on_c, 3, 58, 0
5, 192960, Note_on_c, 3, 57, 72
5, 193344, Note_on_c, 3, 57, 0
5, 197760, Note_on_c, 3, 50, 72
5, 198528, Note_on_c, 3, 50, 0
5, 199680, Note_on_c, 3, 57, 72
5, 200040, Note_on_c, 3, 57, 0
5, 200640, Note_on_c, 3, 62, 72
5, 201000, Note_on_c, 3, 62, 0
5, 201600, Note_on_c, 3, 61, 72
5, 201960, Note_on_c, 3, 61, 0
5, 202560, Note_on_c, 3, 62, 72
5, 202920, Note_on_c, 3, 62, 0
5, 203520, Note_on_c, 3, 57, 72
5, 203880, Note_on_c, 3, 57, 0
5, 205440, Note_on_c, 3, 50, 72
5, 206208, Note_on_c, 3, 50, 0
5, 207360, Note_on_c, 3, 57, 72
5, 207720, Note_on_c, 3, 57, 0
5, 208320, Note_on_c, 3, 59, 72
5, 208680, Note_on_c, 3, 59, 0
5, 209280, Note_on_c, 3, 55, 72
5, 209640, Note_on_c, 3, 55, 0
5, 210240, Note_on_c, 3, 57, 72
5, 210600, Note_on_c, 3, 57, 0
5, 211200, Note_on_c, 3, 60, 72
5, 212160, Note_on_c, 3, 60, 0
5, 212160, Note_on_c, 3, 59, 72
5, 212544, Note_on_c, 3, 59, 0
5, 213120, Note_on_c, 3, 55, 72
5, 213888, Note_on_c, 3, 55, 0
5, 215040, Note_on_c, 3, 57, 72
5, 215400, Note_on_c, 3, 57, 0
5, 216000, Note_on_c, 3, 59, 72
5, 216360, Note_on_c, 3, 59, 0
5, 216960, Note_on_c, 3, 55, 72
5, 217344, Note_on_c, 3, 55, 0
5, 217920, Note_on_c, 3, 57, 72
5, 218304, Note_on_c, 3, 57, 0
5, 218880, Note_on_c, 3, 54, 72
5, 219840, Note_on_c, 3, 54, 0
5, 219840, Note_on_c, 3, 52, 72
5, 220800, Note_on_c, 3, 52, 0
5, 220800, Note_on_c, 3, 50, 72
5, 221760, Note_on_c, 3, 50, 0
5, 221760, Note_on_c, 3, 55, 72
5, 222528, Note_on_c, 3, 55, 0
5, 222720, Note_on_c, 3, 57, 58
5, 223680, Note_on_c, 3, 57, 0
5, 223680, Note_on_c, 3, 45, 58
5, 224448, Note_on_c, 3, 45, 0
5, 224640, Note_on_c, 3, 54, 127
5, 224784, Note_on_c, 3, 54, 0
5, 224880, Note_on_c, 3, 54, 116
5, 225072, Note_on_c, 3, 54, 0
5, 225120, Note_on_c, 3, 54, 116
5, 225312, Note_on_c, 3, 54, 0
5, 225360, Note_on_c, 3, 54, 116
5, 225552, Note_on_c, 3, 54, 0
5, 225600, Note_on_c, 3, 52, 116
5, 225792, Note_on_c, 3, 52, 0
5, 225840, Note_on_c, 3, 52, 116
5, 226032, Note_on_c, 3, 52, 0
5, 226080, Note_on_c, 3, 52, 116
5, 226272, Note_on_c, 3, 52, 0
5, 226320, Note_on_c, 3, 52, 116
5, 226512, Note_on_c, 3, 52, 0
5, 226560, Note_on_c, 3, 50, 116
5, 226752, Note_on_c, 3, 50, 0
5, 226800, Note_on_c, 3, 50, 116
5, 226992, Note_on_c, 3, 50, 0
5, 227040, Note_on_c, 3, 50, 116
5, 227232, Note_on_c, 3, 50, 0
5, 227280, Note_on_c, 3, 50, 116
5, 227472, Note_on_c, 3, 50, 0
5, 227520, Note_on_c, 3, 55, 116
5, 227712, Note_on_c, 3, 55, 0
5, 227760, Note_on_c, 3, 55, 116
5, 227952, Note_on_c, 3, 55, 0
5, 228000, Note_on_c, 3, 55, 116
5, 228192, Note_on_c, 3, 55, 0
5, 228240, Note_on_c, 3, 55, 116
5, 228432, Note_on_c, 3, 55, 0
5, 228480, Note_on_c, 3, 57, 116
5, 228672, Note_on_c, 3, 57, 0
5, 228720, Note_on_c, 3, 57, 116
5, 228912, Note_on_c, 3, 57, 0
5, 228960, Note_on_c, 3, 57, 116
5, 229152, Note_on_c, 3, 57, 0
5, 229200, Note_on_c, 3, 57, 116
5, 229392, Note_on_c, 3, 57, 0
5, 229440, Note_on_c, 3, 45, 116
5, 229632, Note_on_c, 3, 45, 0
5, 229680, Note_on_c, 3, 45, 116
5, 229872, Note_on_c, 3, 45, 0
5, 229920, Note_on_c, 3, 45, 116
5, 230112, Note_on_c, 3, 45, 0
5, 230160, Note_on_c, 3, 45, 116
5, 230352, Note_on_c, 3, 45, 0
5, 230400, Note_on_c, 3, 50, 110
5, 230784, Note_on_c, 3, 50, 0
5, 230880, Note_on_c, 3, 50, 72
5, 231264, Note_on_c, 3, 50, 0
5, 231360, Note_on_c, 3, 54, 72
5, 231744, Note_on_c, 3, 54, 0
5, 231840, Note_on_c, 3, 57, 72
5, 232224, Note_on_c, 3, 57, 0
5, 232320, Note_on_c, 3, 62, 72
5, 232704, Note_on_c, 3, 62, 0
5, 232800, Note_on_c, 3, 50, 72
5, 233184, Note_on_c, 3, 50, 0
5, 234720, Note_on_c, 3, 50, 72
5, 235104, Note_on_c, 3, 50, 0
5, 235200, Note_on_c, 3, 55, 72
5, 235584, Note_on_c, 3, 55, 0
5, 235680, Note_on_c, 3, 59, 72
5, 236064, Note_on_c, 3, 59, 0
5, 236160, Note_on_c, 3, 62, 72
5, 236544, Note_on_c, 3, 62, 0
5, 236640, Note_on_c, 3, 50, 72
5, 237024, Note_on_c, 3, 50, 0
5, 238560, Note_on_c, 3, 50, 72
5, 238944, Note_on_c, 3, 50, 0
5, 239040, Note_on_c, 3, 54, 72
5, 239424, Note_on_c, 3, 54, 0
5, 239520, Note_on_c, 3, 57, 72
5, 239904, Note_on_c, 3, 57, 0
5, 240000, Note_on_c, 3, 62, 72
5, 240384, Note_on_c, 3, 62, 0
5, 240480, Note_on_c, 3, 50, 72
5, 240864, Note_on_c, 3, 50, 0
5, 243120, Note_on_c, 3, 50, 105
5, 243276, Note_on_c, 3, 50, 0
5, 243360, Note_on_c, 3, 54, 105
5, 243516, Note_on_c, 3, 54, 0
5, 243600, Note_on_c, 3, 57, 105
5, 243756, Note_on_c, 3, 57, 0
5, 243840, Note_on_c, 3, 60, 105
5, 244152, Note_on_c, 3, 60, 0
5, 244320, Note_on_c, 3, 60, 105
5, 244632, Note_on_c, 3, 60, 0
5, 244800, Note_on_c, 3, 60, 105
5, 245112, Note_on_c, 3, 60, 0
5, 245280, Note_on_c, 3, 60, 105
5, 245592, Note_on_c, 3, 60, 0
5, 245760, Note_on_c, 3, 51, 105
5, 246144, Note_on_c, 3, 51, 0
5, 247680, Note_on_c, 3, 51, 72
5, 248448, Note_on_c, 3, 51, 0
5, 249600, Note_on_c, 3, 46, 72
5, 249960, Note_on_c, 3, 46, 0
5, 250560, Note_on_c, 3, 51, 72
5, 250920, Note_on_c, 3, 51, 0
5, 251520, Note_on_c, 3, 50, 72
5, 251880, Note_on_c, 3, 50, 0
5, 252480, Note_on_c, 3, 51, 72
5, 252840, Note_on_c, 3, 51, 0
5, 253440, Note_on_c, 3, 46, 72
5, 253824, Note_on_c, 3, 46, 0
5, 255360, Note_on_c, 3, 51, 72
5, 256128, Note_on_c, 3, 51, 0
5, 257280, Note_on_c, 3, 46, 72
5, 257640, Note_on_c, 3, 46, 0
5, 258240, Note_on_c, 3, 48, 72
5, 258600, Note_on_c, 3, 48, 0
5, 259200, Note_on_c, 3, 44, 72
5, 259560, Note_on_c, 3, 44, 0
5, 260160, Note_on_c, 3, 46, 72
5, 260520, Note_on_c, 3, 46, 0
5, 261120, Note_on_c, 3, 39, 105
5, 261288, Note_on_c, 3, 39, 0
5, 261360, Note_on_c, 3, 51, 105
5, 261528, Note_on_c, 3, 51, 0
5, 261600, Note_on_c, 3, 51, 105
5, 261768, Note_on_c, 3, 51, 0
5, 261840, Note_on_c, 3, 51, 105
5, 262008, Note_on_c, 3, 51, 0
5, 262080, Note_on_c, 3, 51, 105
5, 262248, Note_on_c, 3, 51, 0
5, 262320, Note_on_c, 3, 51, 105
5, 262488, Note_on_c, 3, 51, 0
5, 262560, Note_on_c, 3, 51, 105
5, 262728, Note_on_c, 3, 51, 0
5, 262800, Note_on_c, 3, 51, 105
5, 262968, Note_on_c, 3, 51, 0
5, 263040, Note_on_c, 3, 39, 105
5, 263208, Note_on_c, 3, 39, 0
5, 263280, Note_on_c, 3, 51, 105
5, 263448, Note_on_c, 3, 51, 0
5, 263520, Note_on_c, 3, 51, 105
5, 263688, Note_on_c, 3, 51, 0
5, 263760, Note_on_c, 3, 51, 105
5, 263928, Note_on_c, 3, 51, 0
5, 264000, Note_on_c, 3, 51, 105
5, 264168, Note_on_c, 3, 51, 0
5, 264240, Note_on_c, 3, 51, 105
5, 264408, Note_on_c, 3, 51, 0
5, 264480, Note_on_c, 3, 51, 105
5, 264648, Note_on_c, 3, 51, 0
5, 264720, Note_on_c, 3, 51, 105
5, 264888, Note_on_c, 3, 51, 0
5, 264960, Note_on_c, 3, 51, 105
5, 266160, Note_on_c, 3, 51, 0
5, 266160, Note_on_c, 3, 53, 105
5, 266400, Note_on_c, 3, 53, 0
5, 266400, Note_on_c, 3, 50, 105
5, 266640, Note_on_c, 3, 50, 0
5, 266640, Note_on_c, 3, 46, 105
5, 266832, Note_on_c, 3, 46, 0
5, 266880, Note_on_c, 3, 55, 105
5, 268080, Note_on_c, 3, 55, 0
5, 268080, Note_on_c, 3, 56, 105
5, 268320, Note_on_c, 3, 56, 0
5, 268320, Note_on_c, 3, 53, 105
5, 268560, Note_on_c, 3, 53, 0
5, 268560, Note_on_c, 3, 50, 105
5, 268752, Note_on_c, 3, 50, 0
5, 268800, Note_on_c, 3, 51, 92
5, 269112, Note_on_c, 3, 51, 0
5, 269280, Note_on_c, 3, 51, 92
5, 269592, Note_on_c, 3, 51, 0
5, 270240, Note_on_c, 3, 51, 92
5, 270552, Note_on_c, 3, 51, 0
5, 271200, Note_on_c, 3, 51, 92
5, 271512, Note_on_c, 3, 51, 0
5, 271680, Note_on_c, 3, 51, 92
5, 271992, Note_on_c, 3, 51, 0
5, 272160, Note_on_c, 3, 51, 92
5, 272472, Note_on_c, 3, 51, 0
5, 273120, Note_on_c, 3, 50, 92
5, 273432, Note_on_c, 3, 50, 0
5, 274080, Note_on_c, 3, 50, 92
5, 274392, Note_on_c, 3, 50, 0
5, 275040, Note_on_c, 3, 50, 92
5, 275352, Note_on_c, 3, 50, 0
5, 275520, Note_on_c, 3, 50, 92
5, 275832, Note_on_c, 3, 50, 0
5, 276000, Note_on_c, 3, 50, 92
5, 276312, Note_on_c, 3, 50, 0
5, 276960, Note_on_c, 3, 48, 92
5, 277272, Note_on_c, 3, 48, 0
5, 277920, Note_on_c, 3, 48, 92
5, 278232, Note_on_c, 3, 48, 0
5, 278880, Note_on_c, 3, 48, 92
5, 279192, Note_on_c, 3, 48, 0
5, 279360, Note_on_c, 3, 48, 92
5, 279672, Note_on_c, 3, 48, 0
5, 279840, Note_on_c, 3, 48, 92
5, 280152, Note_on_c, 3, 48, 0
5, 280800, Note_on_c, 3, 54, 92
5, 281112, Note_on_c, 3, 54, 0
5, 281760, Note_on_c, 3, 54, 92
5, 282072, Note_on_c, 3, 54, 0
5, 282720, Note_on_c, 3, 54, 92
5, 283104, Note_on_c, 3, 54, 0
5, 283200, Note_on_c, 3, 54, 92
5, 283584, Note_on_c, 3, 54, 0
5, 283680, Note_on_c, 3, 54, 92
5, 284064, Note_on_c, 3, 54, 0
5, 284640, Note_on_c, 3, 55, 92
5, 284952, Note_on_c, 3, 55, 0
5, 285600, Note_on_c, 3, 55, 92
5, 285912, Note_on_c, 3, 55, 0
5, 286560, Note_on_c, 3, 55, 92
5, 286872, Note_on_c, 3, 55, 0
5, 287040, Note_on_c, 3, 55, 92
5, 287352, Note_on_c, 3, 55, 0
5, 287520, Note_on_c, 3, 55, 92
5, 287832, Note_on_c, 3, 55, 0
5, 288000, Note_on_c, 3, 55, 92
5, 288240, Note_on_c, 3, 55, 0
5, 288240, Note_on_c, 3, 63, 92
5, 288396, Note_on_c, 3, 63, 0
5, 288480, Note_on_c, 3, 63, 92
5, 288636, Note_on_c, 3, 63, 0
5, 288720, Note_on_c, 3, 63, 92
5, 288876, Note_on_c, 3, 63, 0
5, 288960, Note_on_c, 3, 63, 92
5, 289200, Note_on_c, 3, 63, 0
5, 289200, Note_on_c, 3, 58, 92
5, 289356, Note_on_c, 3, 58, 0
5, 289440, Note_on_c, 3, 58, 92
5, 289596, Note_on_c, 3, 58, 0
5, 289680, Note_on_c, 3, 58, 92
5, 289836, Note_on_c, 3, 58, 0
5, 289920, Note_on_c, 3, 58, 92
5, 290160, Note_on_c, 3, 58, 0
5, 290160, Note_on_c, 3, 55, 92
5, 290316, Note_on_c, 3, 55, 0
5, 290400, Note_on_c, 3, 55, 92
5, 290556, Note_on_c, 3, 55, 0
5, 290640, Note_on_c, 3, 55, 92
5, 290796, Note_on_c, 3, 55, 0
5, 290880, Note_on_c, 3, 55, 92
5, 291120, Note_on_c, 3, 55, 0
5, 291120, Note_on_c, 3, 51, 92
5, 291276, Note_on_c, 3, 51, 0
5, 291360, Note_on_c, 3, 51, 92
5, 291516, Note_on_c, 3, 51, 0
5, 291600, Note_on_c, 3, 49, 92
5, 291756, Note_on_c, 3, 49, 0
5, 291840, Note_on_c, 3, 50, 92
5, 291996, Note_on_c, 3, 50, 0
5, 292080, Note_on_c, 3, 62, 92
5, 292236, Note_on_c, 3, 62, 0
5, 292320, Note_on_c, 3, 60, 92
5, 292476, Note_on_c, 3, 60, 0
5, 292560, Note_on_c, 3, 62, 92
5, 292716, Note_on_c, 3, 62, 0
5, 292800, Note_on_c, 3, 58, 92
5, 292956, Note_on_c, 3, 58, 0
5, 293040, Note_on_c, 3, 62, 92
5, 293196, Note_on_c, 3, 62, 0
5, 293280, Note_on_c, 3, 58, 92
5, 293436, Note_on_c, 3, 58, 0
5, 293520, Note_on_c, 3, 55, 92
5, 293676, Note_on_c, 3, 55, 0
5, 293760, Note_on_c, 3, 62, 92
5, 294048, Note_on_c, 3, 62, 0
5, 294240, Note_on_c, 3, 50, 92
5, 294528, Note_on_c, 3, 50, 0
5, 294720, Note_on_c, 3, 50, 92
5, 295008, Note_on_c, 3, 50, 0
5, 303840, Note_on_c, 3, 43, 112
5, 304320, Note_on_c, 3, 43, 0
5, 304320, Note_on_c, 3, 45, 72
5, 304512, Note_on_c, 3, 45, 0
5, 304800, Note_on_c, 3, 47, 72
5, 304992, Note_on_c, 3, 47, 0
5, 305280, Note_on_c, 3, 48, 72
5, 305472, Note_on_c, 3, 48, 0
5, 305760, Note_on_c, 3, 50, 72
5, 305952, Note_on_c, 3, 50, 0
5, 306240, Note_on_c, 3, 52, 72
5, 306432, Note_on_c, 3, 52, 0
5, 306720, Note_on_c, 3, 54, 72
5, 306912, Note_on_c, 3, 54, 0
5, 307200, Note_on_c, 3, 55, 72
5, 307488, Note_on_c, 3, 55, 0
5, 307680, Note_on_c, 3, 52, 72
5, 308160, Note_on_c, 3, 52, 0
5, 308160, Note_on_c, 3, 55, 72
5, 308640, Note_on_c, 3, 55, 0
5, 308640, Note_on_c, 3, 57, 72
5, 309024, Note_on_c, 3, 57, 0
5, 309120, Note_on_c, 3, 50, 72
5, 309312, Note_on_c, 3, 50, 0
5, 309360, Note_on_c, 3, 50, 72
5, 309552, Note_on_c, 3, 50, 0
5, 309600, Note_on_c, 3, 50, 72
5, 309792, Note_on_c, 3, 50, 0
5, 309840, Note_on_c, 3, 50, 72
5, 310032, Note_on_c, 3, 50, 0
5, 310080, Note_on_c, 3, 50, 72
5, 310272, Note_on_c, 3, 50, 0
5, 310320, Note_on_c, 3, 50, 72
5, 310512, Note_on_c, 3, 50, 0
5, 310560, Note_on_c, 3, 50, 72
5, 310752, Note_on_c, 3, 50, 0
5, 310800, Note_on_c, 3, 50, 72
5, 310992, Note_on_c, 3, 50, 0
5, 311040, Note_on_c, 3, 50, 72
5, 311232, Note_on_c, 3, 50, 0
5, 311280, Note_on_c, 3, 50, 72
5, 311472, Note_on_c, 3, 50, 0
5, 311520, Note_on_c, 3, 50, 72
5, 311712, Note_on_c, 3, 50, 0
5, 311760, Note_on_c, 3, 50, 72
5, 311952, Note_on_c, 3, 50, 0
5, 312000, Note_on_c, 3, 50, 72
5, 312192, Note_on_c, 3, 50, 0
5, 312240, Note_on_c, 3, 50, 72
5, 312432, Note_on_c, 3, 50, 0
5, 312480, Note_on_c, 3, 50, 72
5, 312672, Note_on_c, 3, 50, 0
5, 312720, Note_on_c, 3, 50, 72
5, 312912, Note_on_c, 3, 50, 0
5, 312960, Note_on_c, 3, 50, 72
5, 313152, Note_on_c, 3, 50, 0
5, 313200, Note_on_c, 3, 50, 72
5, 313392, Note_on_c, 3, 50, 0
5, 313440, Note_on_c, 3, 50, 72
5, 313632, Note_on_c, 3, 50, 0
5, 313680, Note_on_c, 3, 50, 72
5, 313872, Note_on_c, 3, 50, 0
5, 313920, Note_on_c, 3, 50, 72
5, 314112, Note_on_c, 3, 50, 0
5, 314160, Note_on_c, 3, 50, 72
5, 314352, Note_on_c, 3, 50, 0
5, 314400, Note_on_c, 3, 50, 72
5, 314592, Note_on_c, 3, 50, 0
5, 314640, Note_on_c, 3, 50, 72
5, 314832, Note_on_c, 3, 50, 0
5, 314880, Note_on_c, 3, 50, 72
5, 315072, Note_on_c, 3, 50, 0
5, 315120, Note_on_c, 3, 50, 72
5, 315312, Note_on_c, 3, 50, 0
5, 315360, Note_on_c, 3, 50, 72
5, 315552, Note_on_c, 3, 50, 0
5, 315600, Note_on_c, 3, 50, 72
5, 315792, Note_on_c, 3, 50, 0
5, 315840, Note_on_c, 3, 50, 72
5, 316032, Note_on_c, 3, 50, 0
5, 316080, Note_on_c, 3, 50, 72
5, 316272, Note_on_c, 3, 50, 0
5, 316320, Note_on_c, 3, 50, 72
5, 316512, Note_on_c, 3, 50, 0
5, 316560, Note_on_c, 3, 50, 72
5, 316752, Note_on_c, 3, 50, 0
5, 316800, Note_on_c, 3, 50, 58
5, 316992, Note_on_c, 3, 50, 0
5, 317040, Note_on_c, 3, 50, 58
5, 317232, Note_on_c, 3, 50, 0
5, 317280, Note_on_c, 3, 50, 58
5, 317472, Note_on_c, 3, 50, 0
5, 317520, Note_on_c, 3, 50, 58
5, 317712, Note_on_c, 3, 50, 0
5, 317760, Note_on_c, 3, 50, 58
5, 318144, Note_on_c, 3, 50, 0
5, 318720, Note_on_c, 3, 51, 58
5, 319680, Note_on_c, 3, 51, 0
5, 319680, Note_on_c, 3, 50, 58
5, 320064, Note_on_c, 3, 50, 0
5, 320640, Note_on_c, 3, 51, 58
5, 321600, Note_on_c, 3, 51, 0
5, 321600, Note_on_c, 3, 50, 58
5, 321984, Note_on_c, 3, 50, 0
5, 326400, Note_on_c, 3, 55, 72
5, 327168, Note_on_c, 3, 55, 0
5, 328320, Note_on_c, 3, 50, 72
5, 328680, Note_on_c, 3, 50, 0
5, 329280, Note_on_c, 3, 55, 72
5, 329640, Note_on_c, 3, 55, 0
5, 330240, Note_on_c, 3, 54, 72
5, 330600, Note_on_c, 3, 54, 0
5, 331200, Note_on_c, 3, 55, 72
5, 331560, Note_on_c, 3, 55, 0
5, 332160, Note_on_c, 3, 50, 72
5, 332544, Note_on_c, 3, 50, 0
5, 334080, Note_on_c, 3, 43, 72
5, 334848, Note_on_c, 3, 43, 0
5, 336000, Note_on_c, 3, 50, 72
5, 336360, Note_on_c, 3, 50, 0
5, 336960, Note_on_c, 3, 52, 72
5, 337320, Note_on_c, 3, 52, 0
5, 337920, Note_on_c, 3, 48, 72
5, 338280, Note_on_c, 3, 48, 0
5, 338880, Note_on_c, 3, 50, 72
5, 339240, Note_on_c, 3, 50, 0
5, 339840, Note_on_c, 3, 53, 72
5, 340800, Note_on_c, 3, 53, 0
5, 340800, Note_on_c, 3, 52, 72
5, 341184, Note_on_c, 3, 52, 0
5, 341760, Note_on_c, 3, 48, 72
5, 342528, Note_on_c, 3, 48, 0
5, 343680, Note_on_c, 3, 50, 72
5, 344064, Note_on_c, 3, 50, 0
5, 344640, Note_on_c, 3, 52, 72
5, 345024, Note_on_c, 3, 52, 0
5, 345600, Note_on_c, 3, 48, 72
5, 345984, Note_on_c, 3, 48, 0
5, 346560, Note_on_c, 3, 50, 72
5, 346944, Note_on_c, 3, 50, 0
5, 347520, Note_on_c, 3, 47, 58
5, 348480, Note_on_c, 3, 47, 0
5, 348480, Note_on_c, 3, 45, 58
5, 349440, Note_on_c, 3, 45, 0
5, 349440, Note_on_c, 3, 43, 58
5, 350400, Note_on_c, 3, 43, 0
5, 350400, Note_on_c, 3, 48, 58
5, 351360, Note_on_c, 3, 48, 0
5, 351360, Note_on_c, 3, 50, 58
5, 352128, Note_on_c, 3, 50, 0
5, 352320, Note_on_c, 3, 38, 58
5, 353088, Note_on_c, 3, 38, 0
5, 353280, Note_on_c, 3, 47, 105
5, 353472, Note_on_c, 3, 47, 0
5, 353520, Note_on_c, 3, 59, 105
5, 353712, Note_on_c, 3, 59, 0
5, 353760, Note_on_c, 3, 59, 105
5, 353952, Note_on_c, 3, 59, 0
5, 354000, Note_on_c, 3, 59, 105
5, 354192, Note_on_c, 3, 59, 0
5, 354240, Note_on_c, 3, 57, 105
5, 354432, Note_on_c, 3, 57, 0
5, 354480, Note_on_c, 3, 57, 105
5, 354672, Note_on_c, 3, 57, 0
5, 354720, Note_on_c, 3, 57, 105
5, 354912, Note_on_c, 3, 57, 0
5, 354960, Note_on_c, 3, 57, 105
5, 355152, Note_on_c, 3, 57, 0
5, 355200, Note_on_c, 3, 55, 105
5, 355392, Note_on_c, 3, 55, 0
5, 355440, Note_on_c, 3, 55, 105
5, 355632, Note_on_c, 3, 55, 0
5, 355680, Note_on_c, 3, 55, 105
5, 355872, Note_on_c, 3, 55, 0
5, 355920, Note_on_c, 3, 55, 105
5, 356112, Note_on_c, 3, 55, 0
5, 356160, Note_on_c, 3, 48, 105
5, 356352, Note_on_c, 3, 48, 0
5, 356400, Note_on_c, 3, 48, 105
5, 356592, Note_on_c, 3, 48, 0
5, 356640, Note_on_c, 3, 48, 105
5, 356832, Note_on_c, 3, 48, 0
5, 356880, Note_on_c, 3, 48, 105
5, 357072, Note_on_c, 3, 48, 0
5, 357120, Note_on_c, 3, 50, 105
5, 357312, Note_on_c, 3, 50, 0
5, 357360, Note_on_c, 3, 50, 105
5, 357552, Note_on_c, 3, 50, 0
5, 357600, Note_on_c, 3, 50, 105
5, 357792, Note_on_c, 3, 50, 0
5, 357840, Note_on_c, 3, 50, 105
5, 358032, Note_on_c, 3, 50, 0
5, 358080, Note_on_c, 3, 50, 105
5, 358272, Note_on_c, 3, 50, 0
5, 358320, Note_on_c, 3, 50, 105
5, 358512, Note_on_c, 3, 50, 0
5, 358560, Note_on_c, 3, 50, 105
5, 358752, Note_on_c, 3, 50, 0
5, 358800, Note_on_c, 3, 50, 105
5, 358992, Note_on_c, 3, 50, 0
5, 359040, Note_on_c, 3, 55, 110
5, 359352, Note_on_c, 3, 55, 0
5, 359520, Note_on_c, 3, 43, 72
5, 359832, Note_on_c, 3, 43, 0
5, 360000, Note_on_c, 3, 47, 72
5, 360312, Note_on_c, 3, 47, 0
5, 360480, Note_on_c, 3, 50, 72
5, 360792, Note_on_c, 3, 50, 0
5, 360960, Note_on_c, 3, 55, 72
5, 361272, Note_on_c, 3, 55, 0
5, 361440, Note_on_c, 3, 43, 72
5, 361752, Note_on_c, 3, 43, 0
5, 363360, Note_on_c, 3, 43, 72
5, 363672, Note_on_c, 3, 43, 0
5, 363840, Note_on_c, 3, 48, 72
5, 364152, Note_on_c, 3, 48, 0
5, 364320, Note_on_c, 3, 52, 72
5, 364632, Note_on_c, 3, 52, 0
5, 364800, Note_on_c, 3, 55, 72
5, 365112, Note_on_c, 3, 55, 0
5, 365280, Note_on_c, 3, 43, 72
5, 365592, Note_on_c, 3, 43, 0
5, 367200, Note_on_c, 3, 43, 72
5, 367512, Note_on_c, 3, 43, 0
5, 367680, Note_on_c, 3, 47, 72
5, 367992, Note_on_c, 3, 47, 0
5, 368160, Note_on_c, 3, 50, 72
5, 368472, Note_on_c, 3, 50, 0
5, 368640, Note_on_c, 3, 55, 72
5, 368952, Note_on_c, 3, 55, 0
5, 369120, Note_on_c, 3, 43, 72
5, 369432, Note_on_c, 3, 43, 0
5, 371760, Note_on_c, 3, 43, 105
5, 371904, Note_on_c, 3, 43, 0
5, 372000, Note_on_c, 3, 47, 105
5, 372144, Note_on_c, 3, 47, 0
5, 372240, Note_on_c, 3, 50, 105
5, 372384, Note_on_c, 3, 50, 0
5, 372480, Note_on_c, 3, 53, 105
5, 372768, Note_on_c, 3, 53, 0
5, 372960, Note_on_c, 3, 53, 105
5, 373248, Note_on_c, 3, 53, 0
5, 373440, Note_on_c, 3, 53, 105
5, 373728, Note_on_c, 3, 53, 0
5, 373920, Note_on_c, 3, 53, 105
5, 374208, Note_on_c, 3, 53, 0
5, 374400, Note_on_c, 3, 44, 105
5, 374784, Note_on_c, 3, 44, 0
5, 383280, Note_on_c, 3, 50, 105
5, 383424, Note_on_c, 3, 50, 0
5, 383520, Note_on_c, 3, 54, 105
5, 383664, Note_on_c, 3, 54, 0
5, 383760, Note_on_c, 3, 57, 105
5, 383904, Note_on_c, 3, 57, 0
5, 384000, Note_on_c, 3, 60, 105
5, 384288, Note_on_c, 3, 60, 0
5, 384480, Note_on_c, 3, 60, 105
5, 384768, Note_on_c, 3, 60, 0
5, 384960, Note_on_c, 3, 60, 105
5, 385248, Note_on_c, 3, 60, 0
5, 385440, Note_on_c, 3, 60, 105
5, 385728, Note_on_c, 3, 60, 0
5, 385920, Note_on_c, 3, 50, 105
5, 386304, Note_on_c, 3, 50, 0
5, 387840, Note_on_c, 3, 55, 72
5, 388608, Note_on_c, 3, 55, 0
5, 389760, Note_on_c, 3, 50, 72
5, 390120, Note_on_c, 3, 50, 0
5, 390720, Note_on_c, 3, 55, 72
5, 391080, Note_on_c, 3, 55, 0
5, 391680, Note_on_c, 3, 54, 72
5, 392040, Note_on_c, 3, 54, 0
5, 392640, Note_on_c, 3, 55, 72
5, 393000, Note_on_c, 3, 55, 0
5, 393600, Note_on_c, 3, 50, 72
5, 393984, Note_on_c, 3, 50, 0
5, 395520, Note_on_c, 3, 55, 72
5, 396288, Note_on_c, 3, 55, 0
5, 397440, Note_on_c, 3, 50, 72
5, 397824, Note_on_c, 3, 50, 0
5, 398400, Note_on_c, 3, 52, 72
5, 398784, Note_on_c, 3, 52, 0
5, 399360, Note_on_c, 3, 48, 72
5, 399744, Note_on_c, 3, 48, 0
5, 400320, Note_on_c, 3, 50, 72
5, 400704, Note_on_c, 3, 50, 0
5, 401280, Note_on_c, 3, 43, 72
5, 401664, Note_on_c, 3, 43, 0
5, 402480, Note_on_c, 3, 50, 72
5, 402636, Note_on_c, 3, 50, 0
5, 402720, Note_on_c, 3, 55, 72
5, 402876, Note_on_c, 3, 55, 0
5, 402960, Note_on_c, 3, 59, 72
5, 403116, Note_on_c, 3, 59, 0
5, 403200, Note_on_c, 3, 62, 72
5, 403512, Note_on_c, 3, 62, 0
5, 403680, Note_on_c, 3, 62, 72
5, 403992, Note_on_c, 3, 62, 0
5, 404160, Note_on_c, 3, 62, 72
5, 404472, Note_on_c, 3, 62, 0
5, 404640, Note_on_c, 3, 62, 72
5, 404952, Note_on_c, 3, 62, 0
5, 405120, Note_on_c, 3, 59, 72
5, 405504, Note_on_c, 3, 59, 0
5, 406320, Note_on_c, 3, 50, 72
5, 406476, Note_on_c, 3, 50, 0
5, 406560, Note_on_c, 3, 55, 72
5, 406716, Note_on_c, 3, 55, 0
5, 406800, Note_on_c, 3, 59, 72
5, 406956, Note_on_c, 3, 59, 0
5, 407040, Note_on_c, 3, 62, 72
5, 407352, Note_on_c, 3, 62, 0
5, 407520, Note_on_c, 3, 62, 72
5, 407832, Note_on_c, 3, 62, 0
5, 408000, Note_on_c, 3, 62, 72
5, 408312, Note_on_c, 3, 62, 0
5, 408480, Note_on_c, 3, 62, 72
5, 408792, Note_on_c, 3, 62, 0
5, 408960, Note_on_c, 3, 59, 72
5, 409344, Note_on_c, 3, 59, 0
5, 410160, Note_on_c, 3, 50, 72
5, 410316, Note_on_c, 3, 50, 0
5, 410400, Note_on_c, 3, 55, 72
5, 410556, Note_on_c, 3, 55, 0
5, 410640, Note_on_c, 3, 59, 72
5, 410796, Note_on_c, 3, 59, 0
5, 410880, Note_on_c, 3, 62, 72
5, 411192, Note_on_c, 3, 62, 0
5, 411360, Note_on_c, 3, 62, 72
5, 411672, Note_on_c, 3, 62, 0
5, 411840, Note_on_c, 3, 63, 72
5, 412152, Note_on_c, 3, 63, 0
5, 412320, Note_on_c, 3, 63, 72
5, 412632, Note_on_c, 3, 63, 0
5, 412800, Note_on_c, 3, 64, 72
5, 413760, Note_on_c, 3, 64, 0
5, 413760, Note_on_c, 3, 60, 72
5, 414720, Note_on_c, 3, 60, 0
5, 414720, Note_on_c, 3, 62, 72
5, 415488, Note_on_c, 3, 62, 0
5, 415680, Note_on_c, 3, 50, 72
5, 416448, Note_on_c, 3, 50, 0
5, 416640, Note_on_c, 3, 55, 92
5, 416832, Note_on_c, 3, 55, 0
5, 416880, Note_on_c, 3, 62, 116
5, 417072, Note_on_c, 3, 62, 0
5, 417120, Note_on_c, 3, 62, 116
5, 417312, Note_on_c, 3, 62, 0
5, 417360, Note_on_c, 3, 62, 116
5, 417552, Note_on_c, 3, 62, 0
5, 417600, Note_on_c, 3, 60, 116
5, 417792, Note_on_c, 3, 60, 0
5, 417840, Note_on_c, 3, 62, 105
5, 418032, Note_on_c, 3, 62, 0
5, 418080, Note_on_c, 3, 59, 105
5, 418272, Note_on_c, 3, 59, 0
5, 418320, Note_on_c, 3, 62, 105
5, 418512, Note_on_c, 3, 62, 0
5, 418560, Note_on_c, 3, 57, 105
5, 418752, Note_on_c, 3, 57, 0
5, 418800, Note_on_c, 3, 62, 105
5, 418992, Note_on_c, 3, 62, 0
5, 419040, Note_on_c, 3, 55, 105
5, 419232, Note_on_c, 3, 55, 0
5, 419280, Note_on_c, 3, 62, 105
5, 419472, Note_on_c, 3, 62, 0
5, 419520, Note_on_c, 3, 54, 105
5, 419712, Note_on_c, 3, 54, 0
5, 419760, Note_on_c, 3, 62, 105
5, 419952, Note_on_c, 3, 62, 0
5, 420000, Note_on_c, 3, 50, 105
5, 420192, Note_on_c, 3, 50, 0
5, 420240, Note_on_c, 3, 62, 105
5, 420432, Note_on_c, 3, 62, 0
5, 420480, Note_on_c, 3, 55, 105
5, 420672, Note_on_c, 3, 55, 0
5, 420720, Note_on_c, 3, 62, 105
5, 420912, Note_on_c, 3, 62, 0
5, 420960, Note_on_c, 3, 62, 105
5, 421152, Note_on_c, 3, 62, 0
5, 421200, Note_on_c, 3, 62, 105
5, 421392, Note_on_c, 3, 62, 0
5, 421440, Note_on_c, 3, 60, 105
5, 421632, Note_on_c, 3, 60, 0
5, 421680, Note_on_c, 3, 62, 105
5, 421872, Note_on_c, 3, 62, 0
5, 421920, Note_on_c, 3, 59, 105
5, 422112, Note_on_c, 3, 59, 0
5, 422160, Note_on_c, 3, 62, 105
5, 422352, Note_on_c, 3, 62, 0
5, 422400, Note_on_c, 3, 57, 105
5, 422592, Note_on_c, 3, 57, 0
5, 422640, Note_on_c, 3, 62, 105
5, 422832, Note_on_c, 3, 62, 0
5, 422880, Note_on_c, 3, 55, 105
5, 423072, Note_on_c, 3, 55, 0
5, 423120, Note_on_c, 3, 62, 105
5, 423312, Note_on_c, 3, 62, 0
5, 423360, Note_on_c, 3, 54, 105
5, 423552, Note_on_c, 3, 54, 0
5, 423600, Note_on_c, 3, 62, 105
5, 423792, Note_on_c, 3, 62, 0
5, 423840, Note_on_c, 3, 50, 105
5, 424032, Note_on_c, 3, 50, 0
5, 424080, Note_on_c, 3, 62, 105
5, 424272, Note_on_c, 3, 62, 0
5, 424320, Note_on_c, 3, 55, 105
5, 424512, Note_on_c, 3, 55, 0
5, 424560, Note_on_c, 3, 62, 105
5, 424752, Note_on_c, 3, 62, 0
5, 424800, Note_on_c, 3, 62, 105
5, 424992, Note_on_c, 3, 62, 0
5, 425040, Note_on_c, 3, 62, 105
5, 425232, Note_on_c, 3, 62, 0
5, 425280, Note_on_c, 3, 60, 105
5, 425472, Note_on_c, 3, 60, 0
5, 425520, Note_on_c, 3, 62, 105
5, 425712, Note_on_c, 3, 62, 0
5, 425760, Note_on_c, 3, 59, 105
5, 425952, Note_on_c, 3, 59, 0
5, 426000, Note_on_c, 3, 62, 105
5, 426192, Note_on_c, 3, 62, 0
5, 426240, Note_on_c, 3, 57, 105
5, 426432, Note_on_c, 3, 57, 0
5, 426480, Note_on_c, 3, 62, 105
5, 426672, Note_on_c, 3, 62, 0
5, 426720, Note_on_c, 3, 55, 105
5, 426912, Note_on_c, 3, 55, 0
5, 426960, Note_on_c, 3, 62, 105
5, 427152, Note_on_c, 3, 62, 0
5, 427200, Note_on_c, 3, 54, 105
5, 427392, Note_on_c, 3, 54, 0
5, 427440, Note_on_c, 3, 62, 105
5, 427632, Note_on_c, 3, 62, 0
5, 427680, Note_on_c, 3, 50, 105
5, 427872, Note_on_c, 3, 50, 0
5, 427920, Note_on_c, 3, 62, 105
5, 428112, Note_on_c, 3, 62, 0
5, 428160, Note_on_c, 3, 55, 105
5, 428352, Note_on_c, 3, 55, 0
5, 428400, Note_on_c, 3, 55, 105
5, 428592, Note_on_c, 3, 55, 0
5, 428640, Note_on_c, 3, 55, 105
5, 428832, Note_on_c, 3, 55, 0
5, 428880, Note_on_c, 3, 55, 105
5, 429072, Note_on_c, 3, 55, 0
5, 429120, Note_on_c, 3, 55, 105
5, 429312, Note_on_c, 3, 55, 0
5, 429360, Note_on_c, 3, 55, 105
5, 429552, Note_on_c, 3, 55, 0
5, 429600, Note_on_c, 3, 55, 105
5, 429792, Note_on_c, 3, 55, 0
5, 429840, Note_on_c, 3, 55, 105
5, 430032, Note_on_c, 3, 55, 0
5, 430080, Note_on_c, 3, 48, 105
5, 430272, Note_on_c, 3, 48, 0
5, 430320, Note_on_c, 3, 48, 105
5, 430512, Note_on_c, 3, 48, 0
5, 430560, Note_on_c, 3, 48, 105
5, 430752, Note_on_c, 3, 48, 0
5, 430800, Note_on_c, 3, 48, 105
5, 430992, Note_on_c, 3, 48, 0
5, 431040, Note_on_c, 3, 50, 105
5, 431232, Note_on_c, 3, 50, 0
5, 431280, Note_on_c, 3, 50, 105
5, 431472, Note_on_c, 3, 50, 0
5, 431520, Note_on_c, 3, 50, 105
5, 431712, Note_on_c, 3, 50, 0
5, 431760, Note_on_c, 3, 50, 105
5, 431952, Note_on_c, 3, 50, 0
5, 432000, Note_on_c, 3, 43, 105
5, 432384, Note_on_c, 3, 43, 0
5, 435120, Note_on_c, 3, 43, 116
5, 435276, Note_on_c, 3, 43, 0
5, 435360, Note_on_c, 3, 47, 116
5, 435516, Note_on_c, 3, 47, 0
5, 435600, Note_on_c, 3, 50, 116
5, 435756, Note_on_c, 3, 50, 0
5, 435840, Note_on_c, 3, 55, 116
5, 436152, Note_on_c, 3, 55, 0
5, 436320, Note_on_c, 3, 55, 116
5, 436632, Note_on_c, 3, 55, 0
5, 436800, Note_on_c, 3, 55, 116
5, 437112, Note_on_c, 3, 55, 0
5, 437280, Note_on_c, 3, 55, 116
5, 437592, Note_on_c, 3, 55, 0
5, 437760, Note_on_c, 3, 43, 116
5, 438144, Note_on_c, 3, 43, 0
5, 438960, Note_on_c, 3, 43, 116
5, 439116, Note_on_c, 3, 43, 0
5, 439200, Note_on_c, 3, 47, 116
5, 439356, Note_on_c, 3, 47, 0
5, 439440, Note_on_c, 3, 50, 116
5, 439596, Note_on_c, 3, 50, 0
5, 439680, Note_on_c, 3, 55, 116
5, 439992, Note_on_c, 3, 55, 0
5, 440160, Note_on_c, 3, 55, 116
5, 440472, Note_on_c, 3, 55, 0
5, 440640, Note_on_c, 3, 55, 116
5, 440952, Note_on_c, 3, 55, 0
5, 441120, Note_on_c, 3, 55, 116
5, 441432, Note_on_c, 3, 55, 0
5, 441600, Note_on_c, 3, 43, 116
5, 441984, Note_on_c, 3, 43, 0
5, 442800, Note_on_c, 3, 43, 116
5, 442956, Note_on_c, 3, 43, 0
5, 443040, Note_on_c, 3, 47, 116
5, 443196, Note_on_c, 3, 47, 0
5, 443280, Note_on_c, 3, 50, 116
5, 443436, Note_on_c, 3, 50, 0
5, 443520, Note_on_c, 3, 55, 116
5, 443880, Note_on_c, 3, 55, 0
5, 444000, Note_on_c, 3, 62, 116
5, 444360, Note_on_c, 3, 62, 0
5, 444480, Note_on_c, 3, 59, 116
5, 444840, Note_on_c, 3, 59, 0
5, 444960, Note_on_c, 3, 55, 116
5, 445320, Note_on_c, 3, 55, 0
5, 445440, Note_on_c, 3, 50, 116
5, 445800, Note_on_c, 3, 50, 0
5, 445920, Note_on_c, 3, 55, 116
5, 446280, Note_on_c, 3, 55, 0
5, 446400, Note_on_c, 3, 47, 116
5, 446760, Note_on_c, 3, 47, 0
5, 446880, Note_on_c, 3, 50, 116
5, 447240, Note_on_c, 3, 50, 0
5, 447360, Note_on_c, 3, 43, 116
5, 447744, Note_on_c, 3, 43, 0
5, 448320, Note_on_c, 3, 55, 116
5, 448704, Note_on_c, 3, 55, 0
5, 449280, Note_on_c, 3, 43, 116
5, 450048, Note_on_c, 3, 43, 0
5, 450048, End_track
6, 0, Start_track
6, 0, Program_c, 4, 48
6, 0, Control_c, 4, 7, 127
6, 0, Control_c, 4, 10, 64
6, 0, Control_c, 4, 91, 95
6, 1920, Note_on_c, 4, 43, 72
6, 2688, Note_on_c, 4, 43, 0
6, 3840, Note_on_c, 4, 38, 72
6, 4224, Note_on_c, 4, 38, 0
6, 4800, Note_on_c, 4, 43, 72
6, 5184, Note_on_c, 4, 43, 0
6, 5760, Note_on_c, 4, 42, 72
6, 6144, Note_on_c, 4, 42, 0
6, 6720, Note_on_c, 4, 43, 72
6, 7104, Note_on_c, 4, 43, 0
6, 7680, Note_on_c, 4, 38, 72
6, 8064, Note_on_c, 4, 38, 0
6, 9600, Note_on_c, 4, 43, 72
6, 10368, Note_on_c, 4, 43, 0
6, 11520, Note_on_c, 4, 38, 72
6, 11904, Note_on_c, 4, 38, 0
6, 12480, Note_on_c, 4, 40, 72
6, 12864, Note_on_c, 4, 40, 0
6, 13440, Note_on_c, 4, 36, 72
6, 13824, Note_on_c, 4, 36, 0
6, 14400, Note_on_c, 4, 38, 72
6, 14784, Note_on_c, 4, 38, 0
6, 15360, Note_on_c, 4, 43, 72
6, 15744, Note_on_c, 4, 43, 0
6, 15840, Note_on_c, 4, 43, 72
6, 16224, Note_on_c, 4, 43, 0
6, 16320, Note_on_c, 4, 35, 72
6, 16704, Note_on_c, 4, 35, 0
6, 16800, Note_on_c, 4, 38, 72
6, 17184, Note_on_c, 4, 38, 0
6, 17280, Note_on_c, 4, 43, 72
6, 18048, Note_on_c, 4, 43, 0
6, 19200, Note_on_c, 4, 38, 72
6, 19584, Note_on_c, 4, 38, 0
6, 20160, Note_on_c, 4, 43, 72
6, 20544, Note_on_c, 4, 43, 0
6, 21120, Note_on_c, 4, 42, 72
6, 21504, Note_on_c, 4, 42, 0
6, 22080, Note_on_c, 4, 43, 72
6, 22464, Note_on_c, 4, 43, 0
6, 23040, Note_on_c, 4, 38, 72
6, 23424, Note_on_c, 4, 38, 0
6, 24960, Note_on_c, 4, 43, 72
6, 25728, Note_on_c, 4, 43, 0
6, 26880, Note_on_c, 4, 38, 72
6, 27264, Note_on_c, 4, 38, 0
6, 27840, Note_on_c, 4, 40, 72
6, 28224, Note_on_c, 4, 40, 0
6, 28800, Note_on_c, 4, 36, 72
6, 29184, Note_on_c, 4, 36, 0
6, 29760, Note_on_c, 4, 38, 58
6, 30144, Note_on_c, 4, 38, 0
6, 30720, Note_on_c, 4, 31, 127
6, 30912, Note_on_c, 4, 31, 0
6, 30960, Note_on_c, 4, 43, 116
6, 31152, Note_on_c, 4, 43, 0
6, 31200, Note_on_c, 4, 43, 116
6, 31392, Note_on_c, 4, 43, 0
6, 31440, Note_on_c, 4, 43, 116
6, 31632, Note_on_c, 4, 43, 0
6, 31680, Note_on_c, 4, 43, 116
6, 31872, Note_on_c, 4, 43, 0
6, 31920, Note_on_c, 4, 43, 116
6, 32112, Note_on_c, 4, 43, 0
6, 32160, Note_on_c, 4, 43, 116
6, 32352, Note_on_c, 4, 43, 0
6, 32400, Note_on_c, 4, 43, 116
6, 32592, Note_on_c, 4, 43, 0
6, 32640, Note_on_c, 4, 31, 116
6, 32832, Note_on_c, 4, 31, 0
6, 32880, Note_on_c, 4, 43, 116
6, 33072, Note_on_c, 4, 43, 0
6, 33120, Note_on_c, 4, 43, 116
6, 33312, Note_on_c, 4, 43, 0
6, 33360, Note_on_c, 4, 43, 116
6, 33552, Note_on_c, 4, 43, 0
6, 33600, Note_on_c, 4, 43, 116
6, 33792, Note_on_c, 4, 43, 0
6, 33840, Note_on_c, 4, 43, 116
6, 34032, Note_on_c, 4, 43, 0
6, 34080, Note_on_c, 4, 43, 116
6, 34272, Note_on_c, 4, 43, 0
6, 34320, Note_on_c, 4, 43, 116
6, 34512, Note_on_c, 4, 43, 0
6, 34560, Note_on_c, 4, 43, 116
6, 35712, Note_on_c, 4, 43, 0
6, 35760, Note_on_c, 4, 45, 116
6, 35952, Note_on_c, 4, 45, 0
6, 36000, Note_on_c, 4, 42, 116
6, 36192, Note_on_c, 4, 42, 0
6, 36240, Note_on_c, 4, 38, 116
6, 36432, Note_on_c, 4, 38, 0
6, 36480, Note_on_c, 4, 47, 116
6, 37632, Note_on_c, 4, 47, 0
6, 37680, Note_on_c, 4, 48, 116
6, 37872, Note_on_c, 4, 48, 0
6, 37920, Note_on_c, 4, 45, 116
6, 38112, Note_on_c, 4, 45, 0
6, 38160, Note_on_c, 4, 42, 116
6, 38352, Note_on_c, 4, 42, 0
6, 38400, Note_on_c, 4, 43, 116
6, 38688, Note_on_c, 4, 43, 0
6, 38880, Note_on_c, 4, 47, 116
6, 39024, Note_on_c, 4, 47, 0
6, 39120, Note_on_c, 4, 47, 116
6, 39264, Note_on_c, 4, 47, 0
6, 39360, Note_on_c, 4, 47, 116
6, 39600, Note_on_c, 4, 47, 0
6, 39600, Note_on_c, 4, 43, 116
6, 39792, Note_on_c, 4, 43, 0
6, 39840, Note_on_c, 4, 43, 116
6, 40032, Note_on_c, 4, 43, 0
6, 40080, Note_on_c, 4, 43, 116
6, 40272, Note_on_c, 4, 43, 0
6, 40320, Note_on_c, 4, 43, 116
6, 40560, Note_on_c, 4, 43, 0
6, 40560, Note_on_c, 4, 38, 116
6, 40752, Note_on_c, 4, 38, 0
6, 40800, Note_on_c, 4, 38, 116
6, 40992, Note_on_c, 4, 38, 0
6, 41040, Note_on_c, 4, 38, 116
6, 41232, Note_on_c, 4, 38, 0
6, 41280, Note_on_c, 4, 38, 116
6, 41520, Note_on_c, 4, 38, 0
6, 41520, Note_on_c, 4, 35, 116
6, 41712, Note_on_c, 4, 35, 0
6, 41760, Note_on_c, 4, 35, 116
6, 41952, Note_on_c, 4, 35, 0
6, 42000, Note_on_c, 4, 31, 116
6, 42192, Note_on_c, 4, 31, 0
6, 42240, Note_on_c, 4, 38, 116
6, 42432, Note_on_c, 4, 38, 0
6, 42480, Note_on_c, 4, 50, 116
6, 42672, Note_on_c, 4, 50, 0
6, 42720, Note_on_c, 4, 48, 116
6, 42912, Note_on_c, 4, 48, 0
6, 42960, Note_on_c, 4, 50, 116
6, 43152, Note_on_c, 4, 50, 0
6, 43200, Note_on_c, 4, 47, 116
6, 43392, Note_on_c, 4, 47, 0
6, 43440, Note_on_c, 4, 50, 116
6, 43632, Note_on_c, 4, 50, 0
6, 43680, Note_on_c, 4, 47, 116
6, 43872, Note_on_c, 4, 47, 0
6, 43920, Note_on_c, 4, 43, 116
6, 44112, Note_on_c, 4, 43, 0
6, 44160, Note_on_c, 4, 38, 105
6, 44544, Note_on_c, 4, 38, 0
6, 44640, Note_on_c, 4, 38, 105
6, 45024, Note_on_c, 4, 38, 0
6, 45120, Note_on_c, 4, 38, 105
6, 45504, Note_on_c, 4, 38, 0
6, 54240, Note_on_c, 4, 38, 92
6, 54720, Note_on_c, 4, 38, 0
6, 54720, Note_on_c, 4, 40, 72
6, 54912, Note_on_c, 4, 40, 0
6, 55200, Note_on_c, 4, 42, 72
6, 55392, Note_on_c, 4, 42, 0
6, 55680, Note_on_c, 4, 43, 72
6, 55872, Note_on_c, 4, 43, 0
6, 56160, Note_on_c, 4, 45, 72
6, 56352, Note_on_c, 4, 45, 0
6, 56640, Note_on_c, 4, 47, 72
6, 56832, Note_on_c, 4, 47, 0
6, 57120, Note_on_c, 4, 49, 72
6, 57312, Note_on_c, 4, 49, 0
6, 57600, Note_on_c, 4, 50, 72
6, 57984, Note_on_c, 4, 50, 0
6, 58080, Note_on_c, 4, 38, 72
6, 58464, Note_on_c, 4, 38, 0
6, 58560, Note_on_c, 4, 35, 72
6, 58944, Note_on_c, 4, 35, 0
6, 59040, Note_on_c, 4, 40, 72
6, 59424, Note_on_c, 4, 40, 0
6, 59520, Note_on_c, 4, 33, 72
6, 59700, Note_on_c, 4, 33, 0
6, 59760, Note_on_c, 4, 45, 72
6, 59940, Note_on_c, 4, 45, 0
6, 60000, Note_on_c, 4, 45, 72
6, 60180, Note_on_c, 4, 45, 0
6, 60240, Note_on_c, 4, 45, 72
6, 60420, Note_on_c, 4, 45, 0
6, 60480, Note_on_c, 4, 45, 72
6, 60660, Note_on_c, 4, 45, 0
6, 60720, Note_on_c, 4, 45, 72
6, 60900, Note_on_c, 4, 45, 0
6, 60960, Note_on_c, 4, 45, 72
6, 61140, Note_on_c, 4, 45, 0
6, 61200, Note_on_c, 4, 45, 72
6, 61380, Note_on_c, 4, 45, 0
6, 61440, Note_on_c, 4, 33, 72
6, 61620, Note_on_c, 4, 33, 0
6, 61680, Note_on_c, 4, 45, 72
6, 61860, Note_on_c, 4, 45, 0
6, 61920, Note_on_c, 4, 45, 72
6, 62100, Note_on_c, 4, 45, 0
6, 62160, Note_on_c, 4, 45, 72
6, 62340, Note_on_c, 4, 45, 0
6, 62400, Note_on_c, 4, 45, 72
6, 62580, Note_on_c, 4, 45, 0
6, 62640, Note_on_c, 4, 45, 72
6, 62820, Note_on_c, 4, 45, 0
6, 62880, Note_on_c, 4, 45, 72
6, 63060, Note_on_c, 4, 45, 0
6, 63120, Note_on_c, 4, 45, 72
6, 63300, Note_on_c, 4, 45, 0
6, 63360, Note_on_c, 4, 33, 72
6, 63540, Note_on_c, 4, 33, 0
6, 63600, Note_on_c, 4, 45, 72
6, 63780, Note_on_c, 4, 45, 0
6, 63840, Note_on_c, 4, 45, 72
6, 64020, Note_on_c, 4, 45, 0
6, 64080, Note_on_c, 4, 45, 72
6, 64260, Note_on_c, 4, 45, 0
6, 64320, Note_on_c, 4, 45, 72
6, 64500, Note_on_c, 4, 45, 0
6, 64560, Note_on_c, 4, 45, 72
6, 64740, Note_on_c, 4, 45, 0
6, 64800, Note_on_c, 4, 45, 72
6, 64980, Note_on_c, 4, 45, 0
6, 65040, Note_on_c, 4, 45, 72
6, 65220, Note_on_c, 4, 45, 0
6, 65280, Note_on_c, 4, 33, 72
6, 65460, Note_on_c, 4, 33, 0
6, 65520, Note_on_c, 4, 45, 72
6, 65700, Note_on_c, 4, 45, 0
6, 65760, Note_on_c, 4, 45, 72
6, 65940, Note_on_c, 4, 45, 0
6, 66000, Note_on_c, 4, 45, 72
6, 66180, Note_on_c, 4, 45, 0
6, 66240, Note_on_c, 4, 45, 72
6, 66420, Note_on_c, 4, 45, 0
6, 66480, Note_on_c, 4, 45, 72
6, 66660, Note_on_c, 4, 45, 0
6, 66720, Note_on_c, 4, 45, 72
6, 66900, Note_on_c, 4, 45, 0
6, 66960, Note_on_c, 4, 45, 72
6, 67140, Note_on_c, 4, 45, 0
6, 67200, Note_on_c, 4, 33, 72
6, 67380, Note_on_c, 4, 33, 0
6, 67440, Note_on_c, 4, 45, 72
6, 67620, Note_on_c, 4, 45, 0
6, 67680, Note_on_c, 4, 45, 72
6, 67860, Note_on_c, 4, 45, 0
6, 67920, Note_on_c, 4, 45, 72
6, 68100, Note_on_c, 4, 45, 0
6, 68160, Note_on_c, 4, 45, 72
6, 68544, Note_on_c, 4, 45, 0
6, 69120, Note_on_c, 4, 46, 72
6, 70080, Note_on_c, 4, 46, 0
6, 70080, Note_on_c, 4, 45, 72
6, 70464, Note_on_c, 4, 45, 0
6, 71040, Note_on_c, 4, 46, 72
6, 72000, Note_on_c, 4, 46, 0
6, 72000, Note_on_c, 4, 45, 72
6, 72384, Note_on_c, 4, 45, 0
6, 76800, Note_on_c, 4, 38, 72
6, 77568, Note_on_c, 4, 38, 0
6, 78720, Note_on_c, 4, 45, 72
6, 79080, Note_on_c, 4, 45, 0
6, 79680, Note_on_c, 4, 50, 72
6, 80040, Note_on_c, 4, 50, 0
6, 80640, Note_on_c, 4, 49, 72
6, 81000, Note_on_c, 4, 49, 0
6, 81600, Note_on_c, 4, 50, 72
6, 81960, Note_on_c, 4, 50, 0
6, 82560, Note_on_c, 4, 45, 72
6, 82920, Note_on_c, 4, 45, 0
6, 84480, Note_on_c, 4, 38, 72
6, 85248, Note_on_c, 4, 38, 0
6, 86400, Note_on_c, 4, 45, 72
6, 86760, Note_on_c, 4, 45, 0
6, 87360, Note_on_c, 4, 47, 72
6, 87720, Note_on_c, 4, 47, 0
6, 88320, Note_on_c, 4, 43, 72
6, 88680, Note_on_c, 4, 43, 0
6, 89280, Note_on_c, 4, 45, 72
6, 89640, Note_on_c, 4, 45, 0
6, 90240, Note_on_c, 4, 48, 72
6, 91200, Note_on_c, 4, 48, 0
6, 91200, Note_on_c, 4, 47, 72
6, 91584, Note_on_c, 4, 47, 0
6, 92160, Note_on_c, 4, 43, 72
6, 92928, Note_on_c, 4, 43, 0
6, 94080, Note_on_c, 4, 45, 72
6, 94440, Note_on_c, 4, 45, 0
6, 95040, Note_on_c, 4, 47, 72
6, 95400, Note_on_c, 4, 47, 0
6, 96000, Note_on_c, 4, 43, 72
6, 96384, Note_on_c, 4, 43, 0
6, 96960, Note_on_c, 4, 45, 72
6, 97344, Note_on_c, 4, 45, 0
6, 97920, Note_on_c, 4, 42, 72
6, 98880, Note_on_c, 4, 42, 0
6, 98880, Note_on_c, 4, 40, 72
6, 99840, Note_on_c, 4, 40, 0
6, 99840, Note_on_c, 4, 38, 72
6, 100800, Note_on_c, 4, 38, 0
6, 100800, Note_on_c, 4, 43, 72
6, 101568, Note_on_c, 4, 43, 0
6, 101760, Note_on_c, 4, 45, 58
6, 102720, Note_on_c, 4, 45, 0
6, 102720, Note_on_c, 4, 33, 58
6, 103488, Note_on_c, 4, 33, 0
6, 103680, Note_on_c, 4, 42, 127
6, 103824, Note_on_c, 4, 42, 0
6, 103920, Note_on_c, 4, 42, 116
6, 104112, Note_on_c, 4, 42, 0
6, 104160, Note_on_c, 4, 42, 116
6, 104352, Note_on_c, 4, 42, 0
6, 104400, Note_on_c, 4, 42, 116
6, 104592, Note_on_c, 4, 42, 0
6, 104640, Note_on_c, 4, 40, 116
6, 104832, Note_on_c, 4, 40, 0
6, 104880, Note_on_c, 4, 40, 116
6, 105072, Note_on_c, 4, 40, 0
6, 105120, Note_on_c, 4, 40, 116
6, 105312, Note_on_c, 4, 40, 0
6, 105360, Note_on_c, 4, 40, 116
6, 105552, Note_on_c, 4, 40, 0
6, 105600, Note_on_c, 4, 38, 116
6, 105792, Note_on_c, 4, 38, 0
6, 105840, Note_on_c, 4, 38, 116
6, 106032, Note_on_c, 4, 38, 0
6, 106080, Note_on_c, 4, 38, 116
6, 106272, Note_on_c, 4, 38, 0
6, 106320, Note_on_c, 4, 38, 116
6, 106512, Note_on_c, 4, 38, 0
6, 106560, Note_on_c, 4, 43, 116
6, 106752, Note_on_c, 4, 43, 0
6, 106800, Note_on_c, 4, 43, 116
6, 106992, Note_on_c, 4, 43, 0
6, 107040, Note_on_c, 4, 43, 116
6, 107232, Note_on_c, 4, 43, 0
6, 107280, Note_on_c, 4, 43, 116
6, 107472, Note_on_c, 4, 43, 0
6, 107520, Note_on_c, 4, 45, 116
6, 107712, Note_on_c, 4, 45, 0
6, 107760, Note_on_c, 4, 45, 116
6, 107952, Note_on_c, 4, 45, 0
6, 108000, Note_on_c, 4, 45, 116
6, 108192, Note_on_c, 4, 45, 0
6, 108240, Note_on_c, 4, 45, 116
6, 108432, Note_on_c, 4, 45, 0
6, 108480, Note_on_c, 4, 33, 116
6, 108672, Note_on_c, 4, 33, 0
6, 108720, Note_on_c, 4, 33, 116
6, 108912, Note_on_c, 4, 33, 0
6, 108960, Note_on_c, 4, 33, 116
6, 109152, Note_on_c, 4, 33, 0
6, 109200, Note_on_c, 4, 33, 116
6, 109392, Note_on_c, 4, 33, 0
6, 109440, Note_on_c, 4, 38, 110
6, 109824, Note_on_c, 4, 38, 0
6, 109920, Note_on_c, 4, 38, 72
6, 110304, Note_on_c, 4, 38, 0
6, 110400, Note_on_c, 4, 42, 72
6, 110784, Note_on_c, 4, 42, 0
6, 110880, Note_on_c, 4, 45, 72
6, 111264, Note_on_c, 4, 45, 0
6, 111360, Note_on_c, 4, 50, 72
6, 111744, Note_on_c, 4, 50, 0
6, 111840, Note_on_c, 4, 38, 72
6, 112224, Note_on_c, 4, 38, 0
6, 113760, Note_on_c, 4, 38, 72
6, 114144, Note_on_c, 4, 38, 0
6, 114240, Note_on_c, 4, 43, 72
6, 114624, Note_on_c, 4, 43, 0
6, 114720, Note_on_c, 4, 47, 72
6, 115104, Note_on_c, 4, 47, 0
6, 115200, Note_on_c, 4, 50, 72
6, 115584, Note_on_c, 4, 50, 0
6, 115680, Note_on_c, 4, 38, 72
6, 116064, Note_on_c, 4, 38, 0
6, 117600, Note_on_c, 4, 38, 72
6, 117984, Note_on_c, 4, 38, 0
6, 118080, Note_on_c, 4, 42, 72
6, 118464, Note_on_c, 4, 42, 0
6, 118560, Note_on_c, 4, 45, 72
6, 118944, Note_on_c, 4, 45, 0
6, 119040, Note_on_c, 4, 50, 72
6, 119424, Note_on_c, 4, 50, 0
6, 119520, Note_on_c, 4, 38, 72
6, 119904, Note_on_c, 4, 38, 0
6, 122880, Note_on_c, 4, 43, 72
6, 123648, Note_on_c, 4, 43, 0
6, 124800, Note_on_c, 4, 38, 72
6, 125184, Note_on_c, 4, 38, 0
6, 125760, Note_on_c, 4, 43, 72
6, 126144, Note_on_c, 4, 43, 0
6, 126720, Note_on_c, 4, 42, 72
6, 127104, Note_on_c, 4, 42, 0
6, 127680, Note_on_c, 4, 43, 72
6, 128064, Note_on_c, 4, 43, 0
6, 128640, Note_on_c, 4, 38, 72
6, 129024, Note_on_c, 4, 38, 0
6, 130560, Note_on_c, 4, 43, 72
6, 131328, Note_on_c, 4, 43, 0
6, 132480, Note_on_c, 4, 38, 72
6, 132864, Note_on_c, 4, 38, 0
6, 133440, Note_on_c, 4, 40, 72
6, 133824, Note_on_c, 4, 40, 0
6, 134400, Note_on_c, 4, 36, 72
6, 134784, Note_on_c, 4, 36, 0
6, 135360, Note_on_c, 4, 38, 72
6, 135744, Note_on_c, 4, 38, 0
6, 136320, Note_on_c, 4, 43, 72
6, 136704, Note_on_c, 4, 43, 0
6, 136800, Note_on_c, 4, 43, 72
6, 137184, Note_on_c, 4, 43, 0
6, 137280, Note_on_c, 4, 35, 72
6, 137664, Note_on_c, 4, 35, 0
6, 137760, Note_on_c, 4, 38, 72
6, 138144, Note_on_c, 4, 38, 0
6, 138240, Note_on_c, 4, 43, 72
6, 139008, Note_on_c, 4, 43, 0
6, 140160, Note_on_c, 4, 38, 72
6, 140544, Note_on_c, 4, 38, 0
6, 141120, Note_on_c, 4, 43, 72
6, 141504, Note_on_c, 4, 43, 0
6, 142080, Note_on_c, 4, 42, 72
6, 142464, Note_on_c, 4, 42, 0
6, 143040, Note_on_c, 4, 43, 72
6, 143424, Note_on_c, 4, 43, 0
6, 144000, Note_on_c, 4, 38, 72
6, 144384, Note_on_c, 4, 38, 0
6, 145920, Note_on_c, 4, 43, 72
6, 146688, Note_on_c, 4, 43, 0
6, 147840, Note_on_c, 4, 38, 72
6, 148224, Note_on_c, 4, 38, 0
6, 148800, Note_on_c, 4, 40, 72
6, 149184, Note_on_c, 4, 40, 0
6, 149760, Note_on_c, 4, 36, 72
6, 150144, Note_on_c, 4, 36, 0
6, 150720, Note_on_c, 4, 38, 58
6, 151104, Note_on_c, 4, 38, 0
6, 151680, Note_on_c, 4, 31, 127
6, 151872, Note_on_c, 4, 31, 0
6, 151920, Note_on_c, 4, 43, 116
6, 152112, Note_on_c, 4, 43, 0
6, 152160, Note_on_c, 4, 43, 116
6, 152352, Note_on_c, 4, 43, 0
6, 152400, Note_on_c, 4, 43, 116
6, 152592, Note_on_c, 4, 43, 0
6, 152640, Note_on_c, 4, 43, 116
6, 152832, Note_on_c, 4, 43, 0
6, 152880, Note_on_c, 4, 43, 116
6, 153072, Note_on_c, 4, 43, 0
6, 153120, Note_on_c, 4, 43, 116
6, 153312, Note_on_c, 4, 43, 0
6, 153360, Note_on_c, 4, 43, 116
6, 153552, Note_on_c, 4, 43, 0
6, 153600, Note_on_c, 4, 31, 116
6, 153792, Note_on_c, 4, 31, 0
6, 153840, Note_on_c, 4, 43, 116
6, 154032, Note_on_c, 4, 43, 0
6, 154080, Note_on_c, 4, 43, 116
6, 154272, Note_on_c, 4, 43, 0
6, 154320, Note_on_c, 4, 43, 116
6, 154512, Note_on_c, 4, 43, 0
6, 154560, Note_on_c, 4, 43, 116
6, 154752, Note_on_c, 4, 43, 0
6, 154800, Note_on_c, 4, 43, 116
6, 154992, Note_on_c, 4, 43, 0
6, 155040, Note_on_c, 4, 43, 116
6, 155232, Note_on_c, 4, 43, 0
6, 155280, Note_on_c, 4, 43, 116
6, 155472, Note_on_c, 4, 43, 0
6, 155520, Note_on_c, 4, 43, 116
6, 156672, Note_on_c, 4, 43, 0
6, 156720, Note_on_c, 4, 45, 116
6, 156912, Note_on_c, 4, 45, 0
6, 156960, Note_on_c, 4, 42, 116
6, 157152, Note_on_c, 4, 42, 0
6, 157200, Note_on_c, 4, 38, 116
6, 157392, Note_on_c, 4, 38, 0
6, 157440, Note_on_c, 4, 47, 116
6, 158592, Note_on_c, 4, 47, 0
6, 158640, Note_on_c, 4, 48, 116
6, 158832, Note_on_c, 4, 48, 0
6, 158880, Note_on_c, 4, 45, 116
6, 159072, Note_on_c, 4, 45, 0
6, 159120, Note_on_c, 4, 42, 116
6, 159312, Note_on_c, 4, 42, 0
6, 159360, Note_on_c, 4, 43, 116
6, 159648, Note_on_c, 4, 43, 0
6, 159840, Note_on_c, 4, 47, 116
6, 159984, Note_on_c, 4, 47, 0
6, 160080, Note_on_c, 4, 47, 116
6, 160224, Note_on_c, 4, 47, 0
6, 160320, Note_on_c, 4, 47, 116
6, 160560, Note_on_c, 4, 47, 0
6, 160560, Note_on_c, 4, 43, 116
6, 160752, Note_on_c, 4, 43, 0
6, 160800, Note_on_c, 4, 43, 116
6, 160992, Note_on_c, 4, 43, 0
6, 161040, Note_on_c, 4, 43, 116
6, 161232, Note_on_c, 4, 43, 0
6, 161280, Note_on_c, 4, 43, 116
6, 161520, Note_on_c, 4, 43, 0
6, 161520, Note_on_c, 4, 38, 116
6, 161712, Note_on_c, 4, 38, 0
6, 161760, Note_on_c, 4, 38, 116
6, 161952, Note_on_c, 4, 38, 0
6, 162000, Note_on_c, 4, 38, 116
6, 162192, Note_on_c, 4, 38, 0
6, 162240, Note_on_c, 4, 38, 116
6, 162480, Note_on_c, 4, 38, 0
6, 162480, Note_on_c, 4, 35, 116
6, 162672, Note_on_c, 4, 35, 0
6, 162720, Note_on_c, 4, 35, 116
6, 162912, Note_on_c, 4, 35, 0
6, 162960, Note_on_c, 4, 31, 116
6, 163152, Note_on_c, 4, 31, 0
6, 163200, Note_on_c, 4, 38, 116
6, 163392, Note_on_c, 4, 38, 0
6, 163440, Note_on_c, 4, 50, 116
6, 163632, Note_on_c, 4, 50, 0
6, 163680, Note_on_c, 4, 48, 116
6, 163872, Note_on_c, 4, 48, 0
6, 163920, Note_on_c, 4, 50, 116
6, 164112, Note_on_c, 4, 50, 0
6, 164160, Note_on_c, 4, 47, 116
6, 164352, Note_on_c, 4, 47, 0
6, 164400, Note_on_c, 4, 50, 116
6, 164592, Note_on_c, 4, 50, 0
6, 164640, Note_on_c, 4, 47, 116
6, 164832, Note_on_c, 4, 47, 0
6, 164880, Note_on_c, 4, 43, 116
6, 165072, Note_on_c, 4, 43, 0
6, 165120, Note_on_c, 4, 38, 105
6, 165504, Note_on_c, 4, 38, 0
6, 165600, Note_on_c, 4, 38, 105
6, 165984, Note_on_c, 4, 38, 0
6, 166080, Note_on_c, 4, 38, 105
6, 166464, Note_on_c, 4, 38, 0
6, 175200, Note_on_c, 4, 38, 92
6, 175680, Note_on_c, 4, 38, 0
6, 175680, Note_on_c, 4, 40, 72
6, 175872, Note_on_c, 4, 40, 0
6, 176160, Note_on_c, 4, 42, 72
6, 176352, Note_on_c, 4, 42, 0
6, 176640, Note_on_c, 4, 43, 72
6, 176832, Note_on_c, 4, 43, 0
6, 177120, Note_on_c, 4, 45, 72
6, 177312, Note_on_c, 4, 45, 0
6, 177600, Note_on_c, 4, 47, 72
6, 177792, Note_on_c, 4, 47, 0
6, 178080, Note_on_c, 4, 49, 72
6, 178272, Note_on_c, 4, 49, 0
6, 178560, Note_on_c, 4, 50, 72
6, 178944, Note_on_c, 4, 50, 0
6, 179040, Note_on_c, 4, 38, 72
6, 179424, Note_on_c, 4, 38, 0
6, 179520, Note_on_c, 4, 35, 72
6, 179904, Note_on_c, 4, 35, 0
6, 180000, Note_on_c, 4, 40, 72
6, 180384, Note_on_c, 4, 40, 0
6, 180480, Note_on_c, 4, 33, 72
6, 180660, Note_on_c, 4, 33, 0
6, 180720, Note_on_c, 4, 45, 72
6, 180900, Note_on_c, 4, 45, 0
6, 180960, Note_on_c, 4, 45, 72
6, 181140, Note_on_c, 4, 45, 0
6, 181200, Note_on_c, 4, 45, 72
6, 181380, Note_on_c, 4, 45, 0
6, 181440, Note_on_c, 4, 45, 72
6, 181620, Note_on_c, 4, 45, 0
6, 181680, Note_on_c, 4, 45, 72
6, 181860, Note_on_c, 4, 45, 0
6, 181920, Note_on_c, 4, 45, 72
6, 182100, Note_on_c, 4, 45, 0
6, 182160, Note_on_c, 4, 45, 72
6, 182340, Note_on_c, 4, 45, 0
6, 182400, Note_on_c, 4, 33, 72
6, 182580, Note_on_c, 4, 33, 0
6, 182640, Note_on_c, 4, 45, 72
6, 182820, Note_on_c, 4, 45, 0
6, 182880, Note_on_c, 4, 45, 72
6, 183060, Note_on_c, 4, 45, 0
6, 183120, Note_on_c, 4, 45, 72
6, 183300, Note_on_c, 4, 45, 0
6, 183360, Note_on_c, 4, 45, 72
6, 183540, Note_on_c, 4, 45, 0
6, 183600, Note_on_c, 4, 45, 72
6, 183780, Note_on_c, 4, 45, 0
6, 183840, Note_on_c, 4, 45, 72
6, 184020, Note_on_c, 4, 45, 0
6, 184080, Note_on_c, 4, 45, 72
6, 184260, Note_on_c, 4, 45, 0
6, 184320, Note_on_c, 4, 33, 72
6, 184500, Note_on_c, 4, 33, 0
6, 184560, Note_on_c, 4, 45, 72
6, 184740, Note_on_c, 4, 45, 0
6, 184800, Note_on_c, 4, 45, 72
6, 184980, Note_on_c, 4, 45, 0
6, 185040, Note_on_c, 4, 45, 72
6, 185220, Note_on_c, 4, 45, 0
6, 185280, Note_on_c, 4, 45, 72
6, 185460, Note_on_c, 4, 45, 0
6, 185520, Note_on_c, 4, 45, 72
6, 185700, Note_on_c, 4, 45, 0
6, 185760, Note_on_c, 4, 45, 72
6, 185940, Note_on_c, 4, 45, 0
6, 186000, Note_on_c, 4, 45, 72
6, 186180, Note_on_c, 4, 45, 0
6, 186240, Note_on_c, 4, 33, 72
6, 186420, Note_on_c, 4, 33, 0
6, 186480, Note_on_c, 4, 45, 72
6, 186660, Note_on_c, 4, 45, 0
6, 186720, Note_on_c, 4, 45, 72
6, 186900, Note_on_c, 4, 45, 0
6, 186960, Note_on_c, 4, 45, 72
6, 187140, Note_on_c, 4, 45, 0
6, 187200, Note_on_c, 4, 45, 72
6, 187380, Note_on_c, 4, 45, 0
6, 187440, Note_on_c, 4, 45, 72
6, 187620, Note_on_c, 4, 45, 0
6, 187680, Note_on_c, 4, 45, 72
6, 187860, Note_on_c, 4, 45, 0
6, 187920, Note_on_c, 4, 45, 72
6, 188100, Note_on_c, 4, 45, 0
6, 188160, Note_on_c, 4, 33, 72
6, 188340, Note_on_c, 4, 33, 0
6, 188400, Note_on_c, 4, 45, 72
6, 188580, Note_on_c, 4, 45, 0
6, 188640, Note_on_c, 4, 45, 72
6, 188820, Note_on_c, 4, 45, 0
6, 188880, Note_on_c, 4, 45, 72
6, 189060, Note_on_c, 4, 45, 0
6, 189120, Note_on_c, 4, 45, 72
6, 189504, Note_on_c, 4, 45, 0
6, 190080, Note_on_c, 4, 46, 72
6, 191040, Note_on_c, 4, 46, 0
6, 191040, Note_on_c, 4, 45, 72
6, 191424, Note_on_c, 4, 45, 0
6, 192000, Note_on_c, 4, 46, 72
6, 192960, Note_on_c, 4, 46, 0
6, 192960, Note_on_c, 4, 45, 72
6, 193344, Note_on_c, 4, 45, 0
6, 197760, Note_on_c, 4, 38, 72
6, 198528, Note_on_c, 4, 38, 0
6, 199680, Note_on_c, 4, 45, 72
6, 200040, Note_on_c, 4, 45, 0
6, 200640, Note_on_c, 4, 50, 72
6, 201000, Note_on_c, 4, 50, 0
6, 201600, Note_on_c, 4, 49, 72
6, 201960, Note_on_c, 4, 49, 0
6, 202560, Note_on_c, 4, 50, 72
6, 202920, Note_on_c, 4, 50, 0
6, 203520, Note_on_c, 4, 45, 72
6, 203880, Note_on_c, 4, 45, 0
6, 205440, Note_on_c, 4, 38, 72
6, 206208, Note_on_c, 4, 38, 0
6, 207360, Note_on_c, 4, 45, 72
6, 207720, Note_on_c, 4, 45, 0
6, 208320, Note_on_c, 4, 47, 72
6, 208680, Note_on_c, 4, 47, 0
6, 209280, Note_on_c, 4, 43, 72
6, 209640, Note_on_c, 4, 43, 0
6, 210240, Note_on_c, 4, 45, 72
6, 210600, Note_on_c, 4, 45, 0
6, 211200, Note_on_c, 4, 48, 72
6, 212160, Note_on_c, 4, 48, 0
6, 212160, Note_on_c, 4, 47, 72
6, 212544, Note_on_c, 4, 47, 0
6, 213120, Note_on_c, 4, 43, 72
6, 213888, Note_on_c, 4, 43, 0
6, 215040, Note_on_c, 4, 45, 72
6, 215400, Note_on_c, 4, 45, 0
6, 216000, Note_on_c, 4, 47, 72
6, 216360, Note_on_c, 4, 47, 0
6, 216960, Note_on_c, 4, 43, 72
6, 217344, Note_on_c, 4, 43, 0
6, 217920, Note_on_c, 4, 45, 72
6, 218304, Note_on_c, 4, 45, 0
6, 218880, Note_on_c, 4, 42, 72
6, 219840, Note_on_c, 4, 42, 0
6, 219840, Note_on_c, 4, 40, 72
6, 220800, Note_on_c, 4, 40, 0
6, 220800, Note_on_c, 4, 38, 72
6, 221760, Note_on_c, 4, 38, 0
6, 221760, Note_on_c, 4, 43, 72
6, 222528, Note_on_c, 4, 43, 0
6, 222720, Note_on_c, 4, 45, 58
6, 223680, Note_on_c, 4, 45, 0
6, 223680, Note_on_c, 4, 33, 58
6, 224448, Note_on_c, 4, 33, 0
6, 224640, Note_on_c, 4, 42, 127
6, 224784, Note_on_c, 4, 42, 0
6, 224880, Note_on_c, 4, 42, 116
6, 225072, Note_on_c, 4, 42, 0
6, 225120, Note_on_c, 4, 42, 116
6, 225312, Note_on_c, 4, 42, 0
6, 225360, Note_on_c, 4, 42, 116
6, 225552, Note_on_c, 4, 42, 0
6, 225600, Note_on_c, 4, 40, 116
6, 225792, Note_on_c, 4, 40, 0
6, 225840, Note_on_c, 4, 40, 116
6, 226032, Note_on_c, 4, 40, 0
6, 226080, Note_on_c, 4, 40, 116
6, 226272, Note_on_c, 4, 40, 0
6, 226320, Note_on_c, 4, 40, 116
6, 226512, Note_on_c, 4, 40, 0
6, 226560, Note_on_c, 4, 38, 116
6, 226752, Note_on_c, 4, 38, 0
6, 226800, Note_on_c, 4, 38, 116
6, 226992, Note_on_c, 4, 38, 0
6, 227040, Note_on_c, 4, 38, 116
6, 227232, Note_on_c, 4, 38, 0
6, 227280, Note_on_c, 4, 38, 116
6, 227472, Note_on_c, 4, 38, 0
6, 227520, Note_on_c, 4, 43, 116
6, 227712, Note_on_c, 4, 43, 0
6, 227760, Note_on_c, 4, 43, 116
6, 227952, Note_on_c, 4, 43, 0
6, 228000, Note_on_c, 4, 43, 116
6, 228192, Note_on_c, 4, 43, 0
6, 228240, Note_on_c, 4, 43, 116
6, 228432, Note_on_c, 4, 43, 0
6, 228480, Note_on_c, 4, 45, 116
6, 228672, Note_on_c, 4, 45, 0
6, 228720, Note_on_c, 4, 45, 116
6, 228912, Note_on_c, 4, 45, 0
6, 228960, Note_on_c, 4, 45, 116
6, 229152, Note_on_c, 4, 45, 0
6, 229200, Note_on_c, 4, 45, 116
6, 229392, Note_on_c, 4, 45, 0
6, 229440, Note_on_c, 4, 33, 116
6, 229632, Note_on_c, 4, 33, 0
6, 229680, Note_on_c, 4, 33, 116
6, 229872, Note_on_c, 4, 33, 0
6, 229920, Note_on_c, 4, 33, 116
6, 230112, Note_on_c, 4, 33, 0
6, 230160, Note_on_c, 4, 33, 116
6, 230352, Note_on_c, 4, 33, 0
6, 230400, Note_on_c, 4, 38, 110
6, 230784, Note_on_c, 4, 38, 0
6, 230880, Note_on_c, 4, 38, 72
6, 231264, Note_on_c, 4, 38, 0
6, 231360, Note_on_c, 4, 42, 72
6, 231744, Note_on_c, 4, 42, 0
6, 231840, Note_on_c, 4, 45, 72
6, 232224, Note_on_c, 4, 45, 0
6, 232320, Note_on_c, 4, 50, 72
6, 232704, Note_on_c, 4, 50, 0
6, 232800, Note_on_c, 4, 38, 72
6, 233184, Note_on_c, 4, 38, 0
6, 234720, Note_on_c, 4, 38, 72
6, 235104, Note_on_c, 4, 38, 0
6, 235200, Note_on_c, 4, 43, 72
6, 235584, Note_on_c, 4, 43, 0
6, 235680, Note_on_c, 4, 47, 72
6, 236064, Note_on_c, 4, 47, 0
6, 236160, Note_on_c, 4, 50, 72
6, 236544, Note_on_c, 4, 50, 0
6, 236640, Note_on_c, 4, 38, 72
6, 237024, Note_on_c, 4, 38, 0
6, 238560, Note_on_c, 4, 38, 72
6, 238944, Note_on_c, 4, 38, 0
6, 239040, Note_on_c, 4, 42, 72
6, 239424, Note_on_c, 4, 42, 0
6, 239520, Note_on_c, 4, 45, 72
6, 239904, Note_on_c, 4, 45, 0
6, 240000, Note_on_c, 4, 50, 72
6, 240384, Note_on_c, 4, 50, 0
6, 240480, Note_on_c, 4, 38, 72
6, 240864, Note_on_c, 4, 38, 0
6, 243120, Note_on_c, 4, 38, 105
6, 243276, Note_on_c, 4, 38, 0
6, 243360, Note_on_c, 4, 42, 105
6, 243516, Note_on_c, 4, 42, 0
6, 243600, Note_on_c, 4, 45, 105
6, 243756, Note_on_c, 4, 45, 0
6, 243840, Note_on_c, 4, 48, 105
6, 244152, Note_on_c, 4, 48, 0
6, 244320, Note_on_c, 4, 48, 105
6, 244632, Note_on_c, 4, 48, 0
6, 244800, Note_on_c, 4, 48, 105
6, 245112, Note_on_c, 4, 48, 0
6, 245280, Note_on_c, 4, 48, 105
6, 245592, Note_on_c, 4, 48, 0
6, 245760, Note_on_c, 4, 39, 105
6, 246144, Note_on_c, 4, 39, 0
6, 247680, Note_on_c, 4, 39, 72
6, 248448, Note_on_c, 4, 39, 0
6, 249600, Note_on_c, 4, 34, 72
6, 249960, Note_on_c, 4, 34, 0
6, 250560, Note_on_c, 4, 39, 72
6, 250920, Note_on_c, 4, 39, 0
6, 251520, Note_on_c, 4, 38, 72
6, 251880, Note_on_c, 4, 38, 0
6, 252480, Note_on_c, 4, 39, 72
6, 252840, Note_on_c, 4, 39, 0
6, 253440, Note_on_c, 4, 34, 72
6, 253824, Note_on_c, 4, 34, 0
6, 255360, Note_on_c, 4, 39, 72
6, 256128, Note_on_c, 4, 39, 0
6, 257280, Note_on_c, 4, 34, 72
6, 257640, Note_on_c, 4, 34, 0
6, 258240, Note_on_c, 4, 36, 72
6, 258600, Note_on_c, 4, 36, 0
6, 259200, Note_on_c, 4, 32, 72
6, 259560, Note_on_c, 4, 32, 0
6, 260160, Note_on_c, 4, 34, 72
6, 260520, Note_on_c, 4, 34, 0
6, 261120, Note_on_c, 4, 39, 105
6, 261288, Note_on_c, 4, 39, 0
6, 261360, Note_on_c, 4, 39, 105
6, 261528, Note_on_c, 4, 39, 0
6, 261600, Note_on_c, 4, 39, 105
6, 261768, Note_on_c, 4, 39, 0
6, 261840, Note_on_c, 4, 39, 105
6, 262008, Note_on_c, 4, 39, 0
6, 262080, Note_on_c, 4, 39, 105
6, 262248, Note_on_c, 4, 39, 0
6, 262320, Note_on_c, 4, 39, 105
6, 262488, Note_on_c, 4, 39, 0
6, 262560, Note_on_c, 4, 39, 105
6, 262728, Note_on_c, 4, 39, 0
6, 262800, Note_on_c, 4, 39, 105
6, 262968, Note_on_c, 4, 39, 0
6, 263040, Note_on_c, 4, 39, 105
6, 263208, Note_on_c, 4, 39, 0
6, 263280, Note_on_c, 4, 39, 105
6, 263448, Note_on_c, 4, 39, 0
6, 263520, Note_on_c, 4, 39, 105
6, 263688, Note_on_c, 4, 39, 0
6, 263760, Note_on_c, 4, 39, 105
6, 263928, Note_on_c, 4, 39, 0
6, 264000, Note_on_c, 4, 39, 105
6, 264168, Note_on_c, 4, 39, 0
6, 264240, Note_on_c, 4, 39, 105
6, 264408, Note_on_c, 4, 39, 0
6, 264480, Note_on_c, 4, 39, 105
6, 264648, Note_on_c, 4, 39, 0
6, 264720, Note_on_c, 4, 39, 105
6, 264888, Note_on_c, 4, 39, 0
6, 264960, Note_on_c, 4, 39, 105
6, 266160, Note_on_c, 4, 39, 0
6, 266160, Note_on_c, 4, 41, 105
6, 266400, Note_on_c, 4, 41, 0
6, 266400, Note_on_c, 4, 38, 105
6, 266640, Note_on_c, 4, 38, 0
6, 266640, Note_on_c, 4, 34, 105
6, 266832, Note_on_c, 4, 34, 0
6, 266880, Note_on_c, 4, 43, 105
6, 268080, Note_on_c, 4, 43, 0
6, 268080, Note_on_c, 4, 44, 105
6, 268320, Note_on_c, 4, 44, 0
6, 268320, Note_on_c, 4, 41, 105
6, 268560, Note_on_c, 4, 41, 0
6, 268560, Note_on_c, 4, 38, 105
6, 268752, Note_on_c, 4, 38, 0
6, 268800, Note_on_c, 4, 39, 92
6, 269112, Note_on_c, 4, 39, 0
6, 269280, Note_on_c, 4, 39, 92
6, 269592, Note_on_c, 4, 39, 0
6, 270240, Note_on_c, 4, 39, 92
6, 270552, Note_on_c, 4, 39, 0
6, 271200, Note_on_c, 4, 39, 92
6, 271512, Note_on_c, 4, 39, 0
6, 271680, Note_on_c, 4, 39, 92
6, 271992, Note_on_c, 4, 39, 0
6, 272160, Note_on_c, 4, 39, 92
6, 272472, Note_on_c, 4, 39, 0
6, 273120, Note_on_c, 4, 38, 92
6, 273432, Note_on_c, 4, 38, 0
6, 274080, Note_on_c, 4, 38, 92
6, 274392, Note_on_c, 4, 38, 0
6, 275040, Note_on_c, 4, 38, 92
6, 275352, Note_on_c, 4, 38, 0
6, 275520, Note_on_c, 4, 38, 92
6, 275832, Note_on_c, 4, 38, 0
6, 276000, Note_on_c, 4, 38, 92
6, 276312, Note_on_c, 4, 38, 0
6, 276960, Note_on_c, 4, 36, 92
6, 277272, Note_on_c, 4, 36, 0
6, 277920, Note_on_c, 4, 36, 92
6, 278232, Note_on_c, 4, 36, 0
6, 278880, Note_on_c, 4, 36, 92
6, 279192, Note_on_c, 4, 36, 0
6, 279360, Note_on_c, 4, 36, 92
6, 279672, Note_on_c, 4, 36, 0
6, 279840, Note_on_c, 4, 36, 92
6, 280152, Note_on_c, 4, 36, 0
6, 280800, Note_on_c, 4, 42, 92
6, 281112, Note_on_c, 4, 42, 0
6, 281760, Note_on_c, 4, 42, 92
6, 282072, Note_on_c, 4, 42, 0
6, 282720, Note_on_c, 4, 42, 92
6, 283104, Note_on_c, 4, 42, 0
6, 283200, Note_on_c, 4, 42, 92
6, 283584, Note_on_c, 4, 42, 0
6, 283680, Note_on_c, 4, 42, 92
6, 284064, Note_on_c, 4, 42, 0
6, 284640, Note_on_c, 4, 43, 92
6, 284952, Note_on_c, 4, 43, 0
6, 285600, Note_on_c, 4, 43, 92
6, 285912, Note_on_c, 4, 43, 0
6, 286560, Note_on_c, 4, 43, 92
6, 286872, Note_on_c, 4, 43, 0
6, 287040, Note_on_c, 4, 43, 92
6, 287352, Note_on_c, 4, 43, 0
6, 287520, Note_on_c, 4, 43, 92
6, 287832, Note_on_c, 4, 43, 0
6, 288000, Note_on_c, 4, 43, 92
6, 288240, Note_on_c, 4, 43, 0
6, 288240, Note_on_c, 4, 51, 92
6, 288396, Note_on_c, 4, 51, 0
6, 288480, Note_on_c, 4, 51, 92
6, 288636, Note_on_c, 4, 51, 0
6, 288720, Note_on_c, 4, 51, 92
6, 288876, Note_on_c, 4, 51, 0
6, 288960, Note_on_c, 4, 51, 92
6, 289200, Note_on_c, 4, 51, 0
6, 289200, Note_on_c, 4, 46, 92
6, 289356, Note_on_c, 4, 46, 0
6, 289440, Note_on_c, 4, 46, 92
6, 289596, Note_on_c, 4, 46, 0
6, 289680, Note_on_c, 4, 46, 92
6, 289836, Note_on_c, 4, 46, 0
6, 289920, Note_on_c, 4, 46, 92
6, 290160, Note_on_c, 4, 46, 0
6, 290160, Note_on_c, 4, 43, 92
6, 290316, Note_on_c, 4, 43, 0
6, 290400, Note_on_c, 4, 43, 92
6, 290556, Note_on_c, 4, 43, 0
6, 290640, Note_on_c, 4, 43, 92
6, 290796, Note_on_c, 4, 43, 0
6, 290880, Note_on_c, 4, 43, 92
6, 291120, Note_on_c, 4, 43, 0
6, 291120, Note_on_c, 4, 39, 92
6, 291276, Note_on_c, 4, 39, 0
6, 291360, Note_on_c, 4, 39, 92
6, 291516, Note_on_c, 4, 39, 0
6, 291600, Note_on_c, 4, 37, 92
6, 291756, Note_on_c, 4, 37, 0
6, 291840, Note_on_c, 4, 38, 92
6, 291996, Note_on_c, 4, 38, 0
6, 292080, Note_on_c, 4, 50, 92
6, 292236, Note_on_c, 4, 50, 0
6, 292320, Note_on_c, 4, 48, 92
6, 292476, Note_on_c, 4, 48, 0
6, 292560, Note_on_c, 4, 50, 92
6, 292716, Note_on_c, 4, 50, 0
6, 292800, Note_on_c, 4, 46, 92
6, 292956, Note_on_c, 4, 46, 0
6, 293040, Note_on_c, 4, 50, 92
6, 293196, Note_on_c, 4, 50, 0
6, 293280, Note_on_c, 4, 46, 92
6, 293436, Note_on_c, 4, 46, 0
6, 293520, Note_on_c, 4, 43, 92
6, 293676, Note_on_c, 4, 43, 0
6, 293760, Note_on_c, 4, 50, 92
6, 294048, Note_on_c, 4, 50, 0
6, 294240, Note_on_c, 4, 38, 92
6, 294528, Note_on_c, 4, 38, 0
6, 294720, Note_on_c, 4, 38, 92
6, 295008, Note_on_c, 4, 38, 0
6, 303840, Note_on_c, 4, 31, 112
6, 304320, Note_on_c, 4, 31, 0
6, 304320, Note_on_c, 4, 33, 72
6, 304512, Note_on_c, 4, 33, 0
6, 304800, Note_on_c, 4, 35, 72
6, 304992, Note_on_c, 4, 35, 0
6, 305280, Note_on_c, 4, 36, 72
6, 305472, Note_on_c, 4, 36, 0
6, 305760, Note_on_c, 4, 38, 72
6, 305952, Note_on_c, 4, 38, 0
6, 306240, Note_on_c, 4, 40, 72
6, 306432, Note_on_c, 4, 40, 0
6, 306720, Note_on_c, 4, 42, 72
6, 306912, Note_on_c, 4, 42, 0
6, 307200, Note_on_c, 4, 43, 72
6, 307488, Note_on_c, 4, 43, 0
6, 307680, Note_on_c, 4, 40, 72
6, 308160, Note_on_c, 4, 40, 0
6, 308160, Note_on_c, 4, 43, 72
6, 308640, Note_on_c, 4, 43, 0
6, 308640, Note_on_c, 4, 45, 72
6, 309024, Note_on_c, 4, 45, 0
6, 309120, Note_on_c, 4, 38, 72
6, 309312, Note_on_c, 4, 38, 0
6, 309360, Note_on_c, 4, 38, 72
6, 309552, Note_on_c, 4, 38, 0
6, 309600, Note_on_c, 4, 38, 72
6, 309792, Note_on_c, 4, 38, 0
6, 309840, Note_on_c, 4, 38, 72
6, 310032, Note_on_c, 4, 38, 0
6, 310080, Note_on_c, 4, 38, 72
6, 310272, Note_on_c, 4, 38, 0
6, 310320, Note_on_c, 4, 38, 72
6, 310512, Note_on_c, 4, 38, 0
6, 310560, Note_on_c, 4, 38, 72
6, 310752, Note_on_c, 4, 38, 0
6, 310800, Note_on_c, 4, 38, 72
6, 310992, Note_on_c, 4, 38, 0
6, 311040, Note_on_c, 4, 38, 72
6, 311232, Note_on_c, 4, 38, 0
6, 311280, Note_on_c, 4, 38, 72
6, 311472, Note_on_c, 4, 38, 0
6, 311520, Note_on_c, 4, 38, 72
6, 311712, Note_on_c, 4, 38, 0
6, 311760, Note_on_c, 4, 38, 72
6, 311952, Note_on_c, 4, 38, 0
6, 312000, Note_on_c, 4, 38, 72
6, 312192, Note_on_c, 4, 38, 0
6, 312240, Note_on_c, 4, 38, 72
6, 312432, Note_on_c, 4, 38, 0
6, 312480, Note_on_c, 4, 38, 72
6, 312672, Note_on_c, 4, 38, 0
6, 312720, Note_on_c, 4, 38, 72
6, 312912, Note_on_c, 4, 38, 0
6, 312960, Note_on_c, 4, 38, 72
6, 313152, Note_on_c, 4, 38, 0
6, 313200, Note_on_c, 4, 38, 72
6, 313392, Note_on_c, 4, 38, 0
6, 313440, Note_on_c, 4, 38, 72
6, 313632, Note_on_c, 4, 38, 0
6, 313680, Note_on_c, 4, 38, 72
6, 313872, Note_on_c, 4, 38, 0
6, 313920, Note_on_c, 4, 38, 72
6, 314112, Note_on_c, 4, 38, 0
6, 314160, Note_on_c, 4, 38, 72
6, 314352, Note_on_c, 4, 38, 0
6, 314400, Note_on_c, 4, 38, 72
6, 314592, Note_on_c, 4, 38, 0
6, 314640, Note_on_c, 4, 38, 72
6, 314832, Note_on_c, 4, 38, 0
6, 314880, Note_on_c, 4, 38, 72
6, 315072, Note_on_c, 4, 38, 0
6, 315120, Note_on_c, 4, 38, 72
6, 315312, Note_on_c, 4, 38, 0
6, 315360, Note_on_c, 4, 38, 72
6, 315552, Note_on_c, 4, 38, 0
6, 315600, Note_on_c, 4, 38, 72
6, 315792, Note_on_c, 4, 38, 0
6, 315840, Note_on_c, 4, 38, 72
6, 316032, Note_on_c, 4, 38, 0
6, 316080, Note_on_c, 4, 38, 72
6, 316272, Note_on_c, 4, 38, 0
6, 316320, Note_on_c, 4, 38, 72
6, 316512, Note_on_c, 4, 38, 0
6, 316560, Note_on_c, 4, 38, 72
6, 316752, Note_on_c, 4, 38, 0
6, 316800, Note_on_c, 4, 38, 58
6, 316992, Note_on_c, 4, 38, 0
6, 317040, Note_on_c, 4, 38, 58
6, 317232, Note_on_c, 4, 38, 0
6, 317280, Note_on_c, 4, 38, 58
6, 317472, Note_on_c, 4, 38, 0
6, 317520, Note_on_c, 4, 38, 58
6, 317712, Note_on_c, 4, 38, 0
6, 317760, Note_on_c, 4, 38, 58
6, 318144, Note_on_c, 4, 38, 0
6, 318720, Note_on_c, 4, 39, 58
6, 319680, Note_on_c, 4, 39, 0
6, 319680, Note_on_c, 4, 38, 58
6, 320064, Note_on_c, 4, 38, 0
6, 320640, Note_on_c, 4, 39, 58
6, 321600, Note_on_c, 4, 39, 0
6, 321600, Note_on_c, 4, 38, 58
6, 321984, Note_on_c, 4, 38, 0
6, 326400, Note_on_c, 4, 43, 72
6, 327168, Note_on_c, 4, 43, 0
6, 328320, Note_on_c, 4, 38, 72
6, 328680, Note_on_c, 4, 38, 0
6, 329280, Note_on_c, 4, 43, 72
6, 329640, Note_on_c, 4, 43, 0
6, 330240, Note_on_c, 4, 42, 72
6, 330600, Note_on_c, 4, 42, 0
6, 331200, Note_on_c, 4, 43, 72
6, 331560, Note_on_c, 4, 43, 0
6, 332160, Note_on_c, 4, 38, 72
6, 332544, Note_on_c, 4, 38, 0
6, 334080, Note_on_c, 4, 31, 72
6, 334848, Note_on_c, 4, 31, 0
6, 336000, Note_on_c, 4, 38, 72
6, 336360, Note_on_c, 4, 38, 0
6, 336960, Note_on_c, 4, 40, 72
6, 337320, Note_on_c, 4, 40, 0
6, 337920, Note_on_c, 4, 36, 72
6, 338280, Note_on_c, 4, 36, 0
6, 338880, Note_on_c, 4, 38, 72
6, 339240, Note_on_c, 4, 38, 0
6, 339840, Note_on_c, 4, 41, 72
6, 340800, Note_on_c, 4, 41, 0
6, 340800, Note_on_c, 4, 40, 72
6, 341184, Note_on_c, 4, 40, 0
6, 341760, Note_on_c, 4, 36, 72
6, 342528, Note_on_c, 4, 36, 0
6, 343680, Note_on_c, 4, 38, 72
6, 344064, Note_on_c, 4, 38, 0
6, 344640, Note_on_c, 4, 40, 72
6, 345024, Note_on_c, 4, 40, 0
6, 345600, Note_on_c, 4, 36, 72
6, 345984, Note_on_c, 4, 36, 0
6, 346560, Note_on_c, 4, 38, 72
6, 346944, Note_on_c, 4, 38, 0
6, 347520, Note_on_c, 4, 35, 58
6, 348480, Note_on_c, 4, 35, 0
6, 348480, Note_on_c, 4, 33, 58
6, 349440, Note_on_c, 4, 33, 0
6, 349440, Note_on_c, 4, 31, 58
6, 350400, Note_on_c, 4, 31, 0
6, 350400, Note_on_c, 4, 36, 58
6, 351360, Note_on_c, 4, 36, 0
6, 351360, Note_on_c, 4, 38, 58
6, 352128, Note_on_c, 4, 38, 0
6, 352320, Note_on_c, 4, 38, 58
6, 353088, Note_on_c, 4, 38, 0
6, 353280, Note_on_c, 4, 35, 105
6, 353472, Note_on_c, 4, 35, 0
6, 353520, Note_on_c, 4, 47, 105
6, 353712, Note_on_c, 4, 47, 0
6, 353760, Note_on_c, 4, 47, 105
6, 353952, Note_on_c, 4, 47, 0
6, 354000, Note_on_c, 4, 47, 105
6, 354192, Note_on_c, 4, 47, 0
6, 354240, Note_on_c, 4, 45, 105
6, 354432, Note_on_c, 4, 45, 0
6, 354480, Note_on_c, 4, 45, 105
6, 354672, Note_on_c, 4, 45, 0
6, 354720, Note_on_c, 4, 45, 105
6, 354912, Note_on_c, 4, 45, 0
6, 354960, Note_on_c, 4, 45, 105
6, 355152, Note_on_c, 4, 45, 0
6, 355200, Note_on_c, 4, 43, 105
6, 355392, Note_on_c, 4, 43, 0
6, 355440, Note_on_c, 4, 43, 105
6, 355632, Note_on_c, 4, 43, 0
6, 355680, Note_on_c, 4, 43, 105
6, 355872, Note_on_c, 4, 43, 0
6, 355920, Note_on_c, 4, 43, 105
6, 356112, Note_on_c, 4, 43, 0
6, 356160, Note_on_c, 4, 36, 105
6, 356352, Note_on_c, 4, 36, 0
6, 356400, Note_on_c, 4, 36, 105
6, 356592, Note_on_c, 4, 36, 0
6, 356640, Note_on_c, 4, 36, 105
6, 356832, Note_on_c, 4, 36, 0
6, 356880, Note_on_c, 4, 36, 105
6, 357072, Note_on_c, 4, 36, 0
6, 357120, Note_on_c, 4, 38, 105
6, 357312, Note_on_c, 4, 38, 0
6, 357360, Note_on_c, 4, 38, 105
6, 357552, Note_on_c, 4, 38, 0
6, 357600, Note_on_c, 4, 38, 105
6, 357792, Note_on_c, 4, 38, 0
6, 357840, Note_on_c, 4, 38, 105
6, 358032, Note_on_c, 4, 38, 0
6, 358080, Note_on_c, 4, 38, 105
6, 358272, Note_on_c, 4, 38, 0
6, 358320, Note_on_c, 4, 38, 105
6, 358512, Note_on_c, 4, 38, 0
6, 358560, Note_on_c, 4, 38, 105
6, 358752, Note_on_c, 4, 38, 0
6, 358800, Note_on_c, 4, 38, 105
6, 358992, Note_on_c, 4, 38, 0
6, 359040, Note_on_c, 4, 43, 110
6, 359352, Note_on_c, 4, 43, 0
6, 359520, Note_on_c, 4, 31, 72
6, 359832, Note_on_c, 4, 31, 0
6, 360000, Note_on_c, 4, 35, 72
6, 360312, Note_on_c, 4, 35, 0
6, 360480, Note_on_c, 4, 38, 72
6, 360792, Note_on_c, 4, 38, 0
6, 360960, Note_on_c, 4, 43, 72
6, 361272, Note_on_c, 4, 43, 0
6, 361440, Note_on_c, 4, 31, 72
6, 361752, Note_on_c, 4, 31, 0
6, 363360, Note_on_c, 4, 31, 72
6, 363672, Note_on_c, 4, 31, 0
6, 363840, Note_on_c, 4, 36, 72
6, 364152, Note_on_c, 4, 36, 0
6, 364320, Note_on_c, 4, 40, 72
6, 364632, Note_on_c, 4, 40, 0
6, 364800, Note_on_c, 4, 43, 72
6, 365112, Note_on_c, 4, 43, 0
6, 365280, Note_on_c, 4, 31, 72
6, 365592, Note_on_c, 4, 31, 0
6, 367200, Note_on_c, 4, 31, 72
6, 367512, Note_on_c, 4, 31, 0
6, 367680, Note_on_c, 4, 35, 72
6, 367992, Note_on_c, 4, 35, 0
6, 368160, Note_on_c, 4, 38, 72
6, 368472, Note_on_c, 4, 38, 0
6, 368640, Note_on_c, 4, 43, 72
6, 368952, Note_on_c, 4, 43, 0
6, 369120, Note_on_c, 4, 31, 72
6, 369432, Note_on_c, 4, 31, 0
6, 371760, Note_on_c, 4, 31, 105
6, 371904, Note_on_c, 4, 31, 0
6, 372000, Note_on_c, 4, 35, 105
6, 372144, Note_on_c, 4, 35, 0
6, 372240, Note_on_c, 4, 38, 105
6, 372384, Note_on_c, 4, 38, 0
6, 372480, Note_on_c, 4, 41, 105
6, 372768, Note_on_c, 4, 41, 0
6, 372960, Note_on_c, 4, 41, 105
6, 373248, Note_on_c, 4, 41, 0
6, 373440, Note_on_c, 4, 41, 105
6, 373728, Note_on_c, 4, 41, 0
6, 373920, Note_on_c, 4, 41, 105
6, 374208, Note_on_c, 4, 41, 0
6, 374400, Note_on_c, 4, 32, 105
6, 374784, Note_on_c, 4, 32, 0
6, 383280, Note_on_c, 4, 38, 105
6, 383424, Note_on_c, 4, 38, 0
6, 383520, Note_on_c, 4, 42, 105
6, 383664, Note_on_c, 4, 42, 0
6, 383760, Note_on_c, 4, 45, 105
6, 383904, Note_on_c, 4, 45, 0
6, 384000, Note_on_c, 4, 48, 105
6, 384288, Note_on_c, 4, 48, 0
6, 384480, Note_on_c, 4, 48, 105
6, 384768, Note_on_c, 4, 48, 0
6, 384960, Note_on_c, 4, 48, 105
6, 385248, Note_on_c, 4, 48, 0
6, 385440, Note_on_c, 4, 48, 105
6, 385728, Note_on_c, 4, 48, 0
6, 385920, Note_on_c, 4, 38, 105
6, 386304, Note_on_c, 4, 38, 0
6, 387840, Note_on_c, 4, 43, 72
6, 388608, Note_on_c, 4, 43, 0
6, 389760, Note_on_c, 4, 38, 72
6, 390120, Note_on_c, 4, 38, 0
6, 390720, Note_on_c, 4, 43, 72
6, 391080, Note_on_c, 4, 43, 0
6, 391680, Note_on_c, 4, 42, 72
6, 392040, Note_on_c, 4, 42, 0
6, 392640, Note_on_c, 4, 43, 72
6, 393000, Note_on_c, 4, 43, 0
6, 393600, Note_on_c, 4, 38, 72
6, 393984, Note_on_c, 4, 38, 0
6, 395520, Note_on_c, 4, 43, 72
6, 396288, Note_on_c, 4, 43, 0
6, 397440, Note_on_c, 4, 38, 72
6, 397824, Note_on_c, 4, 38, 0
6, 398400, Note_on_c, 4, 40, 72
6, 398784, Note_on_c, 4, 40, 0
6, 399360, Note_on_c, 4, 36, 72
6, 399744, Note_on_c, 4, 36, 0
6, 400320, Note_on_c, 4, 38, 72
6, 400704, Note_on_c, 4, 38, 0
6, 401280, Note_on_c, 4, 31, 72
6, 401664, Note_on_c, 4, 31, 0
6, 402480, Note_on_c, 4, 38, 72
6, 402636, Note_on_c, 4, 38, 0
6, 402720, Note_on_c, 4, 43, 72
6, 402876, Note_on_c, 4, 43, 0
6, 402960, Note_on_c, 4, 47, 72
6, 403116, Note_on_c, 4, 47, 0
6, 403200, Note_on_c, 4, 50, 72
6, 403512, Note_on_c, 4, 50, 0
6, 403680, Note_on_c, 4, 50, 72
6, 403992, Note_on_c, 4, 50, 0
6, 404160, Note_on_c, 4, 50, 72
6, 404472, Note_on_c, 4, 50, 0
6, 404640, Note_on_c, 4, 50, 72
6, 404952, Note_on_c, 4, 50, 0
6, 405120, Note_on_c, 4, 47, 72
6, 405504, Note_on_c, 4, 47, 0
6, 406320, Note_on_c, 4, 38, 72
6, 406476, Note_on_c, 4, 38, 0
6, 406560, Note_on_c, 4, 43, 72
6, 406716, Note_on_c, 4, 43, 0
6, 406800, Note_on_c, 4, 47, 72
6, 406956, Note_on_c, 4, 47, 0
6, 407040, Note_on_c, 4, 50, 72
6, 407352, Note_on_c, 4, 50, 0
6, 407520, Note_on_c, 4, 50, 72
6, 407832, Note_on_c, 4, 50, 0
6, 408000, Note_on_c, 4, 50, 72
6, 408312, Note_on_c, 4, 50, 0
6, 408480, Note_on_c, 4, 50, 72
6, 408792, Note_on_c, 4, 50, 0
6, 408960, Note_on_c, 4, 47, 72
6, 409344, Note_on_c, 4, 47, 0
6, 410160, Note_on_c, 4, 38, 72
6, 410316, Note_on_c, 4, 38, 0
6, 410400, Note_on_c, 4, 43, 72
6, 410556, Note_on_c, 4, 43, 0
6, 410640, Note_on_c, 4, 47, 72
6, 410796, Note_on_c, 4, 47, 0
6, 410880, Note_on_c, 4, 50, 72
6, 411192, Note_on_c, 4, 50, 0
6, 411360, Note_on_c, 4, 50, 72
6, 411672, Note_on_c, 4, 50, 0
6, 411840, Note_on_c, 4, 51, 72
6, 412152, Note_on_c, 4, 51, 0
6, 412320, Note_on_c, 4, 51, 72
6, 412632, Note_on_c, 4, 51, 0
6, 412800, Note_on_c, 4, 52, 72
6, 413760, Note_on_c, 4, 52, 0
6, 413760, Note_on_c, 4, 48, 72
6, 414720, Note_on_c, 4, 48, 0
6, 414720, Note_on_c, 4, 50, 72
6, 415488, Note_on_c, 4, 50, 0
6, 415680, Note_on_c, 4, 38, 72
6, 416448, Note_on_c, 4, 38, 0
6, 416640, Note_on_c, 4, 43, 92
6, 416832, Note_on_c, 4, 43, 0
6, 416880, Note_on_c, 4, 50, 116
6, 417072, Note_on_c, 4, 50, 0
6, 417120, Note_on_c, 4, 50, 116
6, 417312, Note_on_c, 4, 50, 0
6, 417360, Note_on_c, 4, 50, 116
6, 417552, Note_on_c, 4, 50, 0
6, 417600, Note_on_c, 4, 48, 116
6, 417792, Note_on_c, 4, 48, 0
6, 417840, Note_on_c, 4, 50, 105
6, 418032, Note_on_c, 4, 50, 0
6, 418080, Note_on_c, 4, 47, 105
6, 418272, Note_on_c, 4, 47, 0
6, 418320, Note_on_c, 4, 50, 105
6, 418512, Note_on_c, 4, 50, 0
6, 418560, Note_on_c, 4, 45, 105
6, 418752, Note_on_c, 4, 45, 0
6, 418800, Note_on_c, 4, 50, 105
6, 418992, Note_on_c, 4, 50, 0
6, 419040, Note_on_c, 4, 43, 105
6, 419232, Note_on_c, 4, 43, 0
6, 419280, Note_on_c, 4, 50, 105
6, 419472, Note_on_c, 4, 50, 0
6, 419520, Note_on_c, 4, 42, 105
6, 419712, Note_on_c, 4, 42, 0
6, 419760, Note_on_c, 4, 50, 105
6, 419952, Note_on_c, 4, 50, 0
6, 420000, Note_on_c, 4, 38, 105
6, 420192, Note_on_c, 4, 38, 0
6, 420240, Note_on_c, 4, 50, 105
6, 420432, Note_on_c, 4, 50, 0
6, 420480, Note_on_c, 4, 43, 105
6, 420672, Note_on_c, 4, 43, 0
6, 420720, Note_on_c, 4, 50, 105
6, 420912, Note_on_c, 4, 50, 0
6, 420960, Note_on_c, 4, 50, 105
6, 421152, Note_on_c, 4, 50, 0
6, 421200, Note_on_c, 4, 50, 105
6, 421392, Note_on_c, 4, 50, 0
6, 421440, Note_on_c, 4, 48, 105
6, 421632, Note_on_c, 4, 48, 0
6, 421680, Note_on_c, 4, 50, 105
6, 421872, Note_on_c, 4, 50, 0
6, 421920, Note_on_c, 4, 47, 105
6, 422112, Note_on_c, 4, 47, 0
6, 422160, Note_on_c, 4, 50, 105
6, 422352, Note_on_c, 4, 50, 0
6, 422400, Note_on_c, 4, 45, 105
6, 422592, Note_on_c, 4, 45, 0
6, 422640, Note_on_c, 4, 50, 105
6, 422832, Note_on_c, 4, 50, 0
6, 422880, Note_on_c, 4, 43, 105
6, 423072, Note_on_c, 4, 43, 0
6, 423120, Note_on_c, 4, 50, 105
6, 423312, Note_on_c, 4, 50, 0
6, 423360, Note_on_c, 4, 42, 105
6, 423552, Note_on_c, 4, 42, 0
6, 423600, Note_on_c, 4, 50, 105
6, 423792, Note_on_c, 4, 50, 0
6, 423840, Note_on_c, 4, 38, 105
6, 424032, Note_on_c, 4, 38, 0
6, 424080, Note_on_c, 4, 50, 105
6, 424272, Note_on_c, 4, 50, 0
6, 424320, Note_on_c, 4, 43, 105
6, 424512, Note_on_c, 4, 43, 0
6, 424560, Note_on_c, 4, 50, 105
6, 424752, Note_on_c, 4, 50, 0
6, 424800, Note_on_c, 4, 50, 105
6, 424992, Note_on_c, 4, 50, 0
6, 425040, Note_on_c, 4, 50, 105
6, 425232, Note_on_c, 4, 50, 0
6, 425280, Note_on_c, 4, 48, 105
6, 425472, Note_on_c, 4, 48, 0
6, 425520, Note_on_c, 4, 50, 105
6, 425712, Note_on_c, 4, 50, 0
6, 425760, Note_on_c, 4, 47, 105
6, 425952, Note_on_c, 4, 47, 0
6, 426000, Note_on_c, 4, 50, 105
6, 426192, Note_on_c, 4, 50, 0
6, 426240, Note_on_c, 4, 45, 105
6, 426432, Note_on_c, 4, 45, 0
6, 426480, Note_on_c, 4, 50, 105
6, 426672, Note_on_c, 4, 50, 0
6, 426720, Note_on_c, 4, 43, 105
6, 426912, Note_on_c, 4, 43, 0
6, 426960, Note_on_c, 4, 50, 105
6, 427152, Note_on_c, 4, 50, 0
6, 427200, Note_on_c, 4, 42, 105
6, 427392, Note_on_c, 4, 42, 0
6, 427440, Note_on_c, 4, 50, 105
6, 427632, Note_on_c, 4, 50, 0
6, 427680, Note_on_c, 4, 38, 105
6, 427872, Note_on_c, 4, 38, 0
6, 427920, Note_on_c, 4, 50, 105
6, 428112, Note_on_c, 4, 50, 0
6, 428160, Note_on_c, 4, 43, 105
6, 428352, Note_on_c, 4, 43, 0
6, 428400, Note_on_c, 4, 43, 105
6, 428592, Note_on_c, 4, 43, 0
6, 428640, Note_on_c, 4, 43, 105
6, 428832, Note_on_c, 4, 43, 0
6, 428880, Note_on_c, 4, 43, 105
6, 429072, Note_on_c, 4, 43, 0
6, 429120, Note_on_c, 4, 43, 105
6, 429312, Note_on_c, 4, 43, 0
6, 429360, Note_on_c, 4, 43, 105
6, 429552, Note_on_c, 4, 43, 0
6, 429600, Note_on_c, 4, 43, 105
6, 429792, Note_on_c, 4, 43, 0
6, 429840, Note_on_c, 4, 43, 105
6, 430032, Note_on_c, 4, 43, 0
6, 430080, Note_on_c, 4, 36, 105
6, 430272, Note_on_c, 4, 36, 0
6, 430320, Note_on_c, 4, 36, 105
6, 430512, Note_on_c, 4, 36, 0
6, 430560, Note_on_c, 4, 36, 105
6, 430752, Note_on_c, 4, 36, 0
6, 430800, Note_on_c, 4, 36, 105
6, 430992, Note_on_c, 4, 36, 0
6, 431040, Note_on_c, 4, 38, 105
6, 431232, Note_on_c, 4, 38, 0
6, 431280, Note_on_c, 4, 38, 105
6, 431472, Note_on_c, 4, 38, 0
6, 431520, Note_on_c, 4, 38, 105
6, 431712, Note_on_c, 4, 38, 0
6, 431760, Note_on_c, 4, 38, 105
6, 431952, Note_on_c, 4, 38, 0
6, 432000, Note_on_c, 4, 31, 105
6, 432384, Note_on_c, 4, 31, 0
6, 435120, Note_on_c, 4, 31, 116
6, 435276, Note_on_c, 4, 31, 0
6, 435360, Note_on_c, 4, 35, 116
6, 435516, Note_on_c, 4, 35, 0
6, 435600, Note_on_c, 4, 38, 116
6, 435756, Note_on_c, 4, 38, 0
6, 435840, Note_on_c, 4, 43, 116
6, 436152, Note_on_c, 4, 43, 0
6, 436320, Note_on_c, 4, 43, 116
6, 436632, Note_on_c, 4, 43, 0
6, 436800, Note_on_c, 4, 43, 116
6, 437112, Note_on_c, 4, 43, 0
6, 437280, Note_on_c, 4, 43, 116
6, 437592, Note_on_c, 4, 43, 0
6, 437760, Note_on_c, 4, 31, 116
6, 438144, Note_on_c, 4, 31, 0
6, 438960, Note_on_c, 4, 31, 116
6, 439116, Note_on_c, 4, 31, 0
6, 439200, Note_on_c, 4, 35, 116
6, 439356, Note_on_c, 4, 35, 0
6, 439440, Note_on_c, 4, 38, 116
6, 439596, Note_on_c, 4, 38, 0
6, 439680, Note_on_c, 4, 43, 116
6, 439992, Note_on_c, 4, 43, 0
6, 440160, Note_on_c, 4, 43, 116
6, 440472, Note_on_c, 4, 43, 0
6, 440640, Note_on_c, 4, 43, 116
6, 440952, Note_on_c, 4, 43, 0
6, 441120, Note_on_c, 4, 43, 116
6, 441432, Note_on_c, 4, 43, 0
6, 441600, Note_on_c, 4, 31, 116
6, 441984, Note_on_c, 4, 31, 0
6, 442800, Note_on_c, 4, 31, 116
6, 442956, Note_on_c, 4, 31, 0
6, 443040, Note_on_c, 4, 35, 116
6, 443196, Note_on_c, 4, 35, 0
6, 443280, Note_on_c, 4, 38, 116
6, 443436, Note_on_c, 4, 38, 0
6, 443520, Note_on_c, 4, 43, 116
6, 443880, Note_on_c, 4, 43, 0
6, 444000, Note_on_c, 4, 50, 116
6, 444360, Note_on_c, 4, 50, 0
6, 444480, Note_on_c, 4, 47, 116
6, 444840, Note_on_c, 4, 47, 0
6, 444960, Note_on_c, 4, 43, 116
6, 445320, Note_on_c, 4, 43, 0
6, 445440, Note_on_c, 4, 38, 116
6, 445800, Note_on_c, 4, 38, 0
6, 445920, Note_on_c, 4, 43, 116
6, 446280, Note_on_c, 4, 43, 0
6, 446400, Note_on_c, 4, 35, 116
6, 446760, Note_on_c, 4, 35, 0
6, 446880, Note_on_c, 4, 38, 116
6, 447240, Note_on_c, 4, 38, 0
6, 447360, Note_on_c, 4, 31, 116
6, 447744, Note_on_c, 4, 31, 0
6, 448320, Note_on_c, 4, 43, 116
6, 448704, Note_on_c, 4, 43, 0
6, 449280, Note_on_c, 4, 31, 116
6, 450048, Note_on_c, 4, 31, 0
6, 455040, Note_on_c, 4, 31, 1
6, 455808, Note_on_c, 4, 31, 0
6, 455808, End_track
7, 0, Start_track
7, 0, Program_c, 5, 40
7, 0, Control_c, 5, 7, 100
7, 0, Control_c, 5, 10, 31
7, 0, Control_c, 5, 91, 80
7, 1200, Note_on_c, 5, 74, 72
7, 1344, Note_on_c, 5, 74, 0
7, 1440, Note_on_c, 5, 79, 72
7, 1584, Note_on_c, 5, 79, 0
7, 1680, Note_on_c, 5, 83, 72
7, 1824, Note_on_c, 5, 83, 0
7, 1920, Note_on_c, 5, 86, 72
7, 2208, Note_on_c, 5, 86, 0
7, 2400, Note_on_c, 5, 86, 72
7, 2688, Note_on_c, 5, 86, 0
7, 2880, Note_on_c, 5, 86, 72
7, 3168, Note_on_c, 5, 86, 0
7, 3360, Note_on_c, 5, 86, 72
7, 3648, Note_on_c, 5, 86, 0
7, 3840, Note_on_c, 5, 78, 72
7, 4128, Note_on_c, 5, 78, 0
7, 4320, Note_on_c, 5, 78, 72
7, 4608, Note_on_c, 5, 78, 0
7, 4800, Note_on_c, 5, 79, 72
7, 5088, Note_on_c, 5, 79, 0
7, 5280, Note_on_c, 5, 79, 72
7, 5360, Note_on_c, 5, 79, 0
7, 5360, Note_on_c, 5, 81, 72
7, 5440, Note_on_c, 5, 81, 0
7, 5440, Note_on_c, 5, 79, 72
7, 5520, Note_on_c, 5, 79, 0
7, 5520, Note_on_c, 5, 78, 72
7, 5640, Note_on_c, 5, 78, 0
7, 5640, Note_on_c, 5, 79, 72
7, 5760, Note_on_c, 5, 79, 0
7, 5760, Note_on_c, 5, 84, 72
7, 6048, Note_on_c, 5, 84, 0
7, 6240, Note_on_c, 5, 84, 72
7, 6528, Note_on_c, 5, 84, 0
7, 6720, Note_on_c, 5, 83, 72
7, 7008, Note_on_c, 5, 83, 0
7, 7200, Note_on_c, 5, 83, 72
7, 7488, Note_on_c, 5, 83, 0
7, 7680, Note_on_c, 5, 81, 72
7, 8064, Note_on_c, 5, 81, 0
7, 8880, Note_on_c, 5, 74, 72
7, 9024, Note_on_c, 5, 74, 0
7, 9120, Note_on_c, 5, 79, 72
7, 9264, Note_on_c, 5, 79, 0
7, 9360, Note_on_c, 5, 83, 72
7, 9504, Note_on_c, 5, 83, 0
7, 9600, Note_on_c, 5, 86, 72
7, 9888, Note_on_c, 5, 86, 0
7, 10080, Note_on_c, 5, 86, 72
7, 10368, Note_on_c, 5, 86, 0
7, 10560, Note_on_c, 5, 86, 72
7, 10848, Note_on_c, 5, 86, 0
7, 11040, Note_on_c, 5, 86, 72
7, 11328, Note_on_c, 5, 86, 0
7, 11520, Note_on_c, 5, 78, 72
7, 11808, Note_on_c, 5, 78, 0
7, 12000, Note_on_c, 5, 78, 72
7, 12080, Note_on_c, 5, 78, 0
7, 12080, Note_on_c, 5, 79, 72
7, 12160, Note_on_c, 5, 79, 0
7, 12160, Note_on_c, 5, 78, 72
7, 12240, Note_on_c, 5, 78, 0
7, 12240, Note_on_c, 5, 76, 72
7, 12360, Note_on_c, 5, 76, 0
7, 12360, Note_on_c, 5, 78, 72
7, 12480, Note_on_c, 5, 78, 0
7, 12480, Note_on_c, 5, 79, 72
7, 12768, Note_on_c, 5, 79, 0
7, 12960, Note_on_c, 5, 79, 72
7, 13040, Note_on_c, 5, 79, 0
7, 13040, Note_on_c, 5, 81, 72
7, 13120, Note_on_c, 5, 81, 0
7, 13120, Note_on_c, 5, 79, 72
7, 13200, Note_on_c, 5, 79, 0
7, 13200, Note_on_c, 5, 78, 72
7, 13320, Note_on_c, 5, 78, 0
7, 13320, Note_on_c, 5, 79, 72
7, 13440, Note_on_c, 5, 79, 0
7, 13440, Note_on_c, 5, 81, 72
7, 13728, Note_on_c, 5, 81, 0
7, 13920, Note_on_c, 5, 81, 72
7, 14208, Note_on_c, 5, 81, 0
7, 14400, Note_on_c, 5, 74, 72
7, 14784, Note_on_c, 5, 74, 0
7, 14880, Note_on_c, 5, 76, 72
7, 15072, Note_on_c, 5, 76, 0
7, 15120, Note_on_c, 5, 78, 72
7, 15312, Note_on_c, 5, 78, 0
7, 15360, Note_on_c, 5, 79, 72
7, 15744, Note_on_c, 5, 79, 0
7, 16560, Note_on_c, 5, 74, 72
7, 16704, Note_on_c, 5, 74, 0
7, 16800, Note_on_c, 5, 79, 72
7, 16944, Note_on_c, 5, 79, 0
7, 17040, Note_on_c, 5, 83, 72
7, 17184, Note_on_c, 5, 83, 0
7, 17280, Note_on_c, 5, 86, 72
7, 17568, Note_on_c, 5, 86, 0
7, 17760, Note_on_c, 5, 86, 72
7, 18048, Note_on_c, 5, 86, 0
7, 18240, Note_on_c, 5, 86, 72
7, 18528, Note_on_c, 5, 86, 0
7, 18720, Note_on_c, 5, 86, 72
7, 19008, Note_on_c, 5, 86, 0
7, 19200, Note_on_c, 5, 78, 72
7, 19488, Note_on_c, 5, 78, 0
7, 19680, Note_on_c, 5, 78, 72
7, 19968, Note_on_c, 5, 78, 0
7, 20160, Note_on_c, 5, 79, 72
7, 20448, Note_on_c, 5, 79, 0
7, 20640, Note_on_c, 5, 79, 72
7, 20720, Note_on_c, 5, 79, 0
7, 20720, Note_on_c, 5, 81, 72
7, 20800, Note_on_c, 5, 81, 0
7, 20800, Note_on_c, 5, 79, 72
7, 20880, Note_on_c, 5, 79, 0
7, 20880, Note_on_c, 5, 78, 72
7, 21000, Note_on_c, 5, 78, 0
7, 21000, Note_on_c, 5, 79, 72
7, 21120, Note_on_c, 5, 79, 0
7, 21120, Note_on_c, 5, 84, 72
7, 21408, Note_on_c, 5, 84, 0
7, 21600, Note_on_c, 5, 84, 72
7, 21888, Note_on_c, 5, 84, 0
7, 22080, Note_on_c, 5, 83, 72
7, 22368, Note_on_c, 5, 83, 0
7, 22560, Note_on_c, 5, 83, 72
7, 22848, Note_on_c, 5, 83, 0
7, 23040, Note_on_c, 5, 81, 72
7, 23424, Note_on_c, 5, 81, 0
7, 24240, Note_on_c, 5, 74, 72
7, 24384, Note_on_c, 5, 74, 0
7, 24480, Note_on_c, 5, 79, 72
7, 24624, Note_on_c, 5, 79, 0
7, 24720, Note_on_c, 5, 83, 72
7, 24864, Note_on_c, 5, 83, 0
7, 24960, Note_on_c, 5, 86, 72
7, 25248, Note_on_c, 5, 86, 0
7, 25440, Note_on_c, 5, 86, 72
7, 25728, Note_on_c, 5, 86, 0
7, 25920, Note_on_c, 5, 86, 72
7, 26208, Note_on_c, 5, 86, 0
7, 26400, Note_on_c, 5, 86, 72
7, 26688, Note_on_c, 5, 86, 0
7, 26880, Note_on_c, 5, 78, 72
7, 27168, Note_on_c, 5, 78, 0
7, 27360, Note_on_c, 5, 78, 72
7, 27440, Note_on_c, 5, 78, 0
7, 27440, Note_on_c, 5, 79, 72
7, 27520, Note_on_c, 5, 79, 0
7, 27520, Note_on_c, 5, 78, 72
7, 27600, Note_on_c, 5, 78, 0
7, 27600, Note_on_c, 5, 76, 72
7, 27720, Note_on_c, 5, 76, 0
7, 27720, Note_on_c, 5, 78, 72
7, 27840, Note_on_c, 5, 78, 0
7, 27840, Note_on_c, 5, 79, 72
7, 28128, Note_on_c, 5, 79, 0
7, 28320, Note_on_c, 5, 79, 72
7, 28400, Note_on_c, 5, 79, 0
7, 28400, Note_on_c, 5, 81, 72
7, 28480, Note_on_c, 5, 81, 0
7, 28480, Note_on_c, 5, 79, 72
7, 28560, Note_on_c, 5, 79, 0
7, 28560, Note_on_c, 5, 78, 72
7, 28680, Note_on_c, 5, 78, 0
7, 28680, Note_on_c, 5, 79, 72
7, 28800, Note_on_c, 5, 79, 0
7, 28800, Note_on_c, 5, 81, 72
7, 29088, Note_on_c, 5, 81, 0
7, 29280, Note_on_c, 5, 81, 72
7, 29568, Note_on_c, 5, 81, 0
7, 29760, Note_on_c, 5, 74, 72
7, 30144, Note_on_c, 5, 74, 0
7, 30240, Note_on_c, 5, 76, 72
7, 30432, Note_on_c, 5, 76, 0
7, 30480, Note_on_c, 5, 78, 72
7, 30672, Note_on_c, 5, 78, 0
7, 30720, Note_on_c, 5, 79, 92
7, 31872, Note_on_c, 5, 79, 0
7, 31920, Note_on_c, 5, 81, 116
7, 32112, Note_on_c, 5, 81, 0
7, 32160, Note_on_c, 5, 78, 116
7, 32352, Note_on_c, 5, 78, 0
7, 32400, Note_on_c, 5, 74, 116
7, 32592, Note_on_c, 5, 74, 0
7, 32640, Note_on_c, 5, 83, 116
7, 33792, Note_on_c, 5, 83, 0
7, 33840, Note_on_c, 5, 84, 116
7, 34032, Note_on_c, 5, 84, 0
7, 34080, Note_on_c, 5, 81, 116
7, 34272, Note_on_c, 5, 81, 0
7, 34320, Note_on_c, 5, 78, 116
7, 34512, Note_on_c, 5, 78, 0
7, 34560, Note_on_c, 5, 86, 116
7, 34752, Note_on_c, 5, 86, 0
7, 34800, Note_on_c, 5, 86, 116
7, 35184, Note_on_c, 5, 86, 0
7, 35280, Note_on_c, 5, 86, 116
7, 35664, Note_on_c, 5, 86, 0
7, 35760, Note_on_c, 5, 86, 116
7, 36144, Note_on_c, 5, 86, 0
7, 36240, Note_on_c, 5, 86, 116
7, 36672, Note_on_c, 5, 86, 0
7, 36720, Note_on_c, 5, 86, 116
7, 37104, Note_on_c, 5, 86, 0
7, 37200, Note_on_c, 5, 86, 116
7, 37584, Note_on_c, 5, 86, 0
7, 37680, Note_on_c, 5, 86, 116
7, 38064, Note_on_c, 5, 86, 0
7, 38160, Note_on_c, 5, 86, 116
7, 38640, Note_on_c, 5, 86, 0
7, 38640, Note_on_c, 5, 83, 105
7, 38832, Note_on_c, 5, 83, 0
7, 38880, Note_on_c, 5, 83, 105
7, 39072, Note_on_c, 5, 83, 0
7, 39120, Note_on_c, 5, 83, 105
7, 39312, Note_on_c, 5, 83, 0
7, 39360, Note_on_c, 5, 83, 105
7, 39600, Note_on_c, 5, 83, 0
7, 39600, Note_on_c, 5, 79, 105
7, 39792, Note_on_c, 5, 79, 0
7, 39840, Note_on_c, 5, 79, 105
7, 40032, Note_on_c, 5, 79, 0
7, 40080, Note_on_c, 5, 79, 105
7, 40272, Note_on_c, 5, 79, 0
7, 40320, Note_on_c, 5, 79, 105
7, 40560, Note_on_c, 5, 79, 0
7, 40560, Note_on_c, 5, 74, 105
7, 40752, Note_on_c, 5, 74, 0
7, 40800, Note_on_c, 5, 74, 105
7, 40992, Note_on_c, 5, 74, 0
7, 41040, Note_on_c, 5, 74, 105
7, 41232, Note_on_c, 5, 74, 0
7, 41280, Note_on_c, 5, 74, 105
7, 41520, Note_on_c, 5, 74, 0
7, 41520, Note_on_c, 5, 71, 105
7, 41712, Note_on_c, 5, 71, 0
7, 41760, Note_on_c, 5, 71, 105
7, 42000, Note_on_c, 5, 71, 0
7, 42000, Note_on_c, 5, 67, 105
7, 42192, Note_on_c, 5, 67, 0
7, 42240, Note_on_c, 5, 74, 105
7, 42528, Note_on_c, 5, 74, 0
7, 42720, Note_on_c, 5, 69, 105
7, 42720, Note_on_c, 5, 78, 105
7, 42720, Note_on_c, 5, 62, 105
7, 43008, Note_on_c, 5, 62, 0
7, 43008, Note_on_c, 5, 78, 0
7, 43008, Note_on_c, 5, 69, 0
7, 43200, Note_on_c, 5, 71, 105
7, 43200, Note_on_c, 5, 62, 105
7, 43200, Note_on_c, 5, 79, 105
7, 43488, Note_on_c, 5, 79, 0
7, 43488, Note_on_c, 5, 62, 0
7, 43488, Note_on_c, 5, 71, 0
7, 43680, Note_on_c, 5, 83, 125
7, 43968, Note_on_c, 5, 83, 0
7, 44160, Note_on_c, 5, 86, 125
7, 44544, Note_on_c, 5, 86, 0
7, 44640, Note_on_c, 5, 62, 92
7, 45024, Note_on_c, 5, 62, 0
7, 45120, Note_on_c, 5, 62, 92
7, 45504, Note_on_c, 5, 62, 0
7, 46080, Note_on_c, 5, 81, 112
7, 47040, Note_on_c, 5, 81, 0
7, 47040, Note_on_c, 5, 73, 72
7, 47232, Note_on_c, 5, 73, 0
7, 47520, Note_on_c, 5, 74, 72
7, 47712, Note_on_c, 5, 74, 0
7, 48000, Note_on_c, 5, 76, 72
7, 48192, Note_on_c, 5, 76, 0
7, 48480, Note_on_c, 5, 78, 72
7, 48672, Note_on_c, 5, 78, 0
7, 48960, Note_on_c, 5, 79, 72
7, 49152, Note_on_c, 5, 79, 0
7, 49920, Note_on_c, 5, 78, 72
7, 50160, Note_on_c, 5, 78, 0
7, 50160, Note_on_c, 5, 79, 72
7, 50400, Note_on_c, 5, 79, 0
7, 50400, Note_on_c, 5, 80, 72
7, 50640, Note_on_c, 5, 80, 0
7, 50640, Note_on_c, 5, 81, 72
7, 50880, Note_on_c, 5, 81, 0
7, 50880, Note_on_c, 5, 82, 72
7, 51120, Note_on_c, 5, 82, 0
7, 51120, Note_on_c, 5, 83, 72
7, 51360, Note_on_c, 5, 83, 0
7, 51360, Note_on_c, 5, 79, 72
7, 51600, Note_on_c, 5, 79, 0
7, 51600, Note_on_c, 5, 76, 72
7, 51792, Note_on_c, 5, 76, 0
7, 51840, Note_on_c, 5, 74, 72
7, 52800, Note_on_c, 5, 74, 0
7, 52800, Note_on_c, 5, 73, 58
7, 53184, Note_on_c, 5, 73, 0
7, 53760, Note_on_c, 5, 81, 112
7, 54720, Note_on_c, 5, 81, 0
7, 54720, Note_on_c, 5, 73, 72
7, 54912, Note_on_c, 5, 73, 0
7, 55200, Note_on_c, 5, 74, 72
7, 55392, Note_on_c, 5, 74, 0
7, 55680, Note_on_c, 5, 76, 72
7, 55872, Note_on_c, 5, 76, 0
7, 56160, Note_on_c, 5, 78, 72
7, 56352, Note_on_c, 5, 78, 0
7, 56640, Note_on_c, 5, 79, 72
7, 56832, Note_on_c, 5, 79, 0
7, 57600, Note_on_c, 5, 78, 72
7, 58080, Note_on_c, 5, 78, 0
7, 58080, Note_on_c, 5, 86, 72
7, 59040, Note_on_c, 5, 86, 0
7, 59040, Note_on_c, 5, 80, 72
7, 59424, Note_on_c, 5, 80, 0
7, 59520, Note_on_c, 5, 83, 72
7, 60480, Note_on_c, 5, 83, 0
7, 60480, Note_on_c, 5, 81, 72
7, 60864, Note_on_c, 5, 81, 0
7, 61440, Note_on_c, 5, 83, 72
7, 61680, Note_on_c, 5, 83, 0
7, 61680, Note_on_c, 5, 81, 72
7, 61860, Note_on_c, 5, 81, 0
7, 61920, Note_on_c, 5, 79, 72
7, 62100, Note_on_c, 5, 79, 0
7, 62160, Note_on_c, 5, 78, 72
7, 62340, Note_on_c, 5, 78, 0
7, 62400, Note_on_c, 5, 76, 72
7, 62760, Note_on_c, 5, 76, 0
7, 62880, Note_on_c, 5, 76, 72
7, 63240, Note_on_c, 5, 76, 0
7, 63360, Note_on_c, 5, 79, 72
7, 63600, Note_on_c, 5, 79, 0
7, 63600, Note_on_c, 5, 78, 72
7, 63780, Note_on_c, 5, 78, 0
7, 63840, Note_on_c, 5, 76, 72
7, 64020, Note_on_c, 5, 76, 0
7, 64080, Note_on_c, 5, 74, 72
7, 64260, Note_on_c, 5, 74, 0
7, 64320, Note_on_c, 5, 73, 72
7, 64680, Note_on_c, 5, 73, 0
7, 65280, Note_on_c, 5, 83, 72
7, 65520, Note_on_c, 5, 83, 0
7, 65520, Note_on_c, 5, 81, 72
7, 65700, Note_on_c, 5, 81, 0
7, 65760, Note_on_c, 5, 79, 72
7, 65940, Note_on_c, 5, 79, 0
7, 66000, Note_on_c, 5, 78, 72
7, 66180, Note_on_c, 5, 78, 0
7, 66240, Note_on_c, 5, 76, 72
7, 66420, Note_on_c, 5, 76, 0
7, 66480, Note_on_c, 5, 76, 72
7, 66660, Note_on_c, 5, 76, 0
7, 66720, Note_on_c, 5, 76, 72
7, 66900, Note_on_c, 5, 76, 0
7, 66960, Note_on_c, 5, 76, 72
7, 67140, Note_on_c, 5, 76, 0
7, 67200, Note_on_c, 5, 79, 72
7, 67440, Note_on_c, 5, 79, 0
7, 67440, Note_on_c, 5, 78, 72
7, 67620, Note_on_c, 5, 78, 0
7, 67680, Note_on_c, 5, 76, 72
7, 67860, Note_on_c, 5, 76, 0
7, 67920, Note_on_c, 5, 74, 72
7, 68100, Note_on_c, 5, 74, 0
7, 68160, Note_on_c, 5, 73, 72
7, 68400, Note_on_c, 5, 73, 0
7, 68400, Note_on_c, 5, 76, 72
7, 68640, Note_on_c, 5, 76, 0
7, 68640, Note_on_c, 5, 73, 72
7, 68880, Note_on_c, 5, 73, 0
7, 68880, Note_on_c, 5, 76, 72
7, 69072, Note_on_c, 5, 76, 0
7, 69120, Note_on_c, 5, 79, 72
7, 69360, Note_on_c, 5, 79, 0
7, 69360, Note_on_c, 5, 77, 72
7, 69540, Note_on_c, 5, 77, 0
7, 69600, Note_on_c, 5, 76, 72
7, 69780, Note_on_c, 5, 76, 0
7, 69840, Note_on_c, 5, 74, 72
7, 70020, Note_on_c, 5, 74, 0
7, 70080, Note_on_c, 5, 73, 72
7, 70320, Note_on_c, 5, 73, 0
7, 70320, Note_on_c, 5, 76, 72
7, 70560, Note_on_c, 5, 76, 0
7, 70560, Note_on_c, 5, 73, 72
7, 70800, Note_on_c, 5, 73, 0
7, 70800, Note_on_c, 5, 76, 72
7, 70992, Note_on_c, 5, 76, 0
7, 71040, Note_on_c, 5, 79, 72
7, 71280, Note_on_c, 5, 79, 0
7, 71280, Note_on_c, 5, 77, 72
7, 71460, Note_on_c, 5, 77, 0
7, 71520, Note_on_c, 5, 76, 72
7, 71700, Note_on_c, 5, 76, 0
7, 71760, Note_on_c, 5, 74, 72
7, 71940, Note_on_c, 5, 74, 0
7, 72000, Note_on_c, 5, 73, 72
7, 72240, Note_on_c, 5, 73, 0
7, 72240, Note_on_c, 5, 76, 72
7, 72480, Note_on_c, 5, 76, 0
7, 72480, Note_on_c, 5, 73, 72
7, 72720, Note_on_c, 5, 73, 0
7, 72720, Note_on_c, 5, 76, 72
7, 72912, Note_on_c, 5, 76, 0
7, 72960, Note_on_c, 5, 79, 72
7, 73200, Note_on_c, 5, 79, 0
7, 73200, Note_on_c, 5, 76, 72
7, 73440, Note_on_c, 5, 76, 0
7, 73440, Note_on_c, 5, 79, 72
7, 73680, Note_on_c, 5, 79, 0
7, 73680, Note_on_c, 5, 76, 72
7, 73920, Note_on_c, 5, 76, 0
7, 73920, Note_on_c, 5, 79, 72
7, 74160, Note_on_c, 5, 79, 0
7, 74160, Note_on_c, 5, 76, 72
7, 74400, Note_on_c, 5, 76, 0
7, 74400, Note_on_c, 5, 79, 72
7, 74640, Note_on_c, 5, 79, 0
7, 74640, Note_on_c, 5, 76, 72
7, 74880, Note_on_c, 5, 76, 0
7, 74880, Note_on_c, 5, 79, 58
7, 75264, Note_on_c, 5, 79, 0
7, 76080, Note_on_c, 5, 69, 72
7, 76224, Note_on_c, 5, 69, 0
7, 76320, Note_on_c, 5, 74, 72
7, 76464, Note_on_c, 5, 74, 0
7, 76560, Note_on_c, 5, 78, 72
7, 76704, Note_on_c, 5, 78, 0
7, 76800, Note_on_c, 5, 81, 72
7, 77088, Note_on_c, 5, 81, 0
7, 77280, Note_on_c, 5, 81, 72
7, 77568, Note_on_c, 5, 81, 0
7, 77760, Note_on_c, 5, 81, 72
7, 78048, Note_on_c, 5, 81, 0
7, 78240, Note_on_c, 5, 81, 72
7, 78528, Note_on_c, 5, 81, 0
7, 78720, Note_on_c, 5, 73, 72
7, 79008, Note_on_c, 5, 73, 0
7, 79200, Note_on_c, 5, 73, 72
7, 79488, Note_on_c, 5, 73, 0
7, 79680, Note_on_c, 5, 74, 72
7, 79968, Note_on_c, 5, 74, 0
7, 80160, Note_on_c, 5, 74, 72
7, 80240, Note_on_c, 5, 74, 0
7, 80240, Note_on_c, 5, 76, 72
7, 80320, Note_on_c, 5, 76, 0
7, 80320, Note_on_c, 5, 74, 72
7, 80400, Note_on_c, 5, 74, 0
7, 80400, Note_on_c, 5, 73, 72
7, 80520, Note_on_c, 5, 73, 0
7, 80520, Note_on_c, 5, 74, 72
7, 80640, Note_on_c, 5, 74, 0
7, 80640, Note_on_c, 5, 79, 72
7, 80928, Note_on_c, 5, 79, 0
7, 81120, Note_on_c, 5, 79, 72
7, 81408, Note_on_c, 5, 79, 0
7, 81600, Note_on_c, 5, 78, 72
7, 81888, Note_on_c, 5, 78, 0
7, 82080, Note_on_c, 5, 78, 72
7, 82368, Note_on_c, 5, 78, 0
7, 82560, Note_on_c, 5, 76, 72
7, 82944, Note_on_c, 5, 76, 0
7, 83760, Note_on_c, 5, 69, 72
7, 83904, Note_on_c, 5, 69, 0
7, 84000, Note_on_c, 5, 74, 72
7, 84144, Note_on_c, 5, 74, 0
7, 84240, Note_on_c, 5, 78, 72
7, 84384, Note_on_c, 5, 78, 0
7, 84480, Note_on_c, 5, 81, 72
7, 84768, Note_on_c, 5, 81, 0
7, 84960, Note_on_c, 5, 81, 72
7, 85248, Note_on_c, 5, 81, 0
7, 85440, Note_on_c, 5, 81, 72
7, 85728, Note_on_c, 5, 81, 0
7, 85920, Note_on_c, 5, 81, 72
7, 86208, Note_on_c, 5, 81, 0
7, 86400, Note_on_c, 5, 73, 72
7, 86688, Note_on_c, 5, 73, 0
7, 86880, Note_on_c, 5, 73, 72
7, 86944, Note_on_c, 5, 73, 0
7, 86960, Note_on_c, 5, 74, 72
7, 87024, Note_on_c, 5, 74, 0
7, 87040, Note_on_c, 5, 73, 72
7, 87104, Note_on_c, 5, 73, 0
7, 87120, Note_on_c, 5, 71, 72
7, 87216, Note_on_c, 5, 71, 0
7, 87240, Note_on_c, 5, 73, 72
7, 87336, Note_on_c, 5, 73, 0
7, 87360, Note_on_c, 5, 74, 72
7, 87648, Note_on_c, 5, 74, 0
7, 87840, Note_on_c, 5, 74, 72
7, 87904, Note_on_c, 5, 74, 0
7, 87920, Note_on_c, 5, 76, 72
7, 87984, Note_on_c, 5, 76, 0
7, 88000, Note_on_c, 5, 74, 72
7, 88064, Note_on_c, 5, 74, 0
7, 88080, Note_on_c, 5, 73, 72
7, 88176, Note_on_c, 5, 73, 0
7, 88200, Note_on_c, 5, 74, 72
7, 88296, Note_on_c, 5, 74, 0
7, 88320, Note_on_c, 5, 76, 72
7, 88608, Note_on_c, 5, 76, 0
7, 88800, Note_on_c, 5, 76, 72
7, 88864, Note_on_c, 5, 76, 0
7, 88880, Note_on_c, 5, 78, 72
7, 88944, Note_on_c, 5, 78, 0
7, 88960, Note_on_c, 5, 76, 72
7, 89024, Note_on_c, 5, 76, 0
7, 89040, Note_on_c, 5, 74, 72
7, 89136, Note_on_c, 5, 74, 0
7, 89160, Note_on_c, 5, 76, 72
7, 89256, Note_on_c, 5, 76, 0
7, 89280, Note_on_c, 5, 78, 72
7, 89568, Note_on_c, 5, 78, 0
7, 89760, Note_on_c, 5, 78, 72
7, 89824, Note_on_c, 5, 78, 0
7, 89840, Note_on_c, 5, 79, 72
7, 89904, Note_on_c, 5, 79, 0
7, 89920, Note_on_c, 5, 78, 72
7, 89984, Note_on_c, 5, 78, 0
7, 90000, Note_on_c, 5, 76, 72
7, 90096, Note_on_c, 5, 76, 0
7, 90120, Note_on_c, 5, 78, 72
7, 90216, Note_on_c, 5, 78, 0
7, 90240, Note_on_c, 5, 81, 72
7, 91200, Note_on_c, 5, 81, 0
7, 91200, Note_on_c, 5, 79, 72
7, 91344, Note_on_c, 5, 79, 0
7, 91440, Note_on_c, 5, 71, 72
7, 91584, Note_on_c, 5, 71, 0
7, 91680, Note_on_c, 5, 74, 72
7, 91824, Note_on_c, 5, 74, 0
7, 91920, Note_on_c, 5, 79, 72
7, 92064, Note_on_c, 5, 79, 0
7, 92160, Note_on_c, 5, 83, 72
7, 92448, Note_on_c, 5, 83, 0
7, 92640, Note_on_c, 5, 83, 72
7, 92928, Note_on_c, 5, 83, 0
7, 93120, Note_on_c, 5, 83, 72
7, 93408, Note_on_c, 5, 83, 0
7, 93600, Note_on_c, 5, 83, 72
7, 93888, Note_on_c, 5, 83, 0
7, 94080, Note_on_c, 5, 73, 72
7, 94368, Note_on_c, 5, 73, 0
7, 94560, Note_on_c, 5, 73, 72
7, 94624, Note_on_c, 5, 73, 0
7, 94640, Note_on_c, 5, 74, 72
7, 94704, Note_on_c, 5, 74, 0
7, 94720, Note_on_c, 5, 73, 72
7, 94784, Note_on_c, 5, 73, 0
7, 94800, Note_on_c, 5, 71, 72
7, 94896, Note_on_c, 5, 71, 0
7, 94920, Note_on_c, 5, 73, 72
7, 95016, Note_on_c, 5, 73, 0
7, 95040, Note_on_c, 5, 74, 72
7, 95328, Note_on_c, 5, 74, 0
7, 95520, Note_on_c, 5, 74, 72
7, 95584, Note_on_c, 5, 74, 0
7, 95600, Note_on_c, 5, 76, 72
7, 95664, Note_on_c, 5, 76, 0
7, 95680, Note_on_c, 5, 74, 72
7, 95744, Note_on_c, 5, 74, 0
7, 95760, Note_on_c, 5, 73, 72
7, 95856, Note_on_c, 5, 73, 0
7, 95880, Note_on_c, 5, 74, 72
7, 95976, Note_on_c, 5, 74, 0
7, 96000, Note_on_c, 5, 79, 72
7, 96288, Note_on_c, 5, 79, 0
7, 96480, Note_on_c, 5, 79, 72
7, 96768, Note_on_c, 5, 79, 0
7, 96960, Note_on_c, 5, 76, 72
7, 97248, Note_on_c, 5, 76, 0
7, 97440, Note_on_c, 5, 76, 72
7, 97728, Note_on_c, 5, 76, 0
7, 97920, Note_on_c, 5, 81, 72
7, 99120, Note_on_c, 5, 81, 0
7, 99120, Note_on_c, 5, 83, 72
7, 99360, Note_on_c, 5, 83, 0
7, 99360, Note_on_c, 5, 79, 72
7, 99600, Note_on_c, 5, 79, 0
7, 99600, Note_on_c, 5, 81, 72
7, 99792, Note_on_c, 5, 81, 0
7, 99840, Note_on_c, 5, 78, 72
7, 101040, Note_on_c, 5, 78, 0
7, 101040, Note_on_c, 5, 79, 72
7, 101280, Note_on_c, 5, 79, 0
7, 101280, Note_on_c, 5, 76, 72
7, 101520, Note_on_c, 5, 76, 0
7, 101520, Note_on_c, 5, 78, 72
7, 101712, Note_on_c, 5, 78, 0
7, 101760, Note_on_c, 5, 74, 72
7, 102960, Note_on_c, 5, 74, 0
7, 102960, Note_on_c, 5, 76, 58
7, 103200, Note_on_c, 5, 76, 0
7, 103200, Note_on_c, 5, 73, 58
7, 103440, Note_on_c, 5, 73, 0
7, 103440, Note_on_c, 5, 69, 58
7, 103632, Note_on_c, 5, 69, 0
7, 103680, Note_on_c, 5, 81, 78
7, 103920, Note_on_c, 5, 81, 0
7, 103920, Note_on_c, 5, 83, 116
7, 104076, Note_on_c, 5, 83, 0
7, 104160, Note_on_c, 5, 85, 116
7, 104316, Note_on_c, 5, 85, 0
7, 104400, Note_on_c, 5, 86, 116
7, 104556, Note_on_c, 5, 86, 0
7, 104640, Note_on_c, 5, 85, 116
7, 104880, Note_on_c, 5, 85, 0
7, 104880, Note_on_c, 5, 83, 116
7, 105036, Note_on_c, 5, 83, 0
7, 105120, Note_on_c, 5, 81, 116
7, 105276, Note_on_c, 5, 81, 0
7, 105360, Note_on_c, 5, 79, 116
7, 105516, Note_on_c, 5, 79, 0
7, 105600, Note_on_c, 5, 78, 116
7, 105840, Note_on_c, 5, 78, 0
7, 105840, Note_on_c, 5, 79, 116
7, 105996, Note_on_c, 5, 79, 0
7, 106080, Note_on_c, 5, 81, 116
7, 106236, Note_on_c, 5, 81, 0
7, 106320, Note_on_c, 5, 83, 116
7, 106476, Note_on_c, 5, 83, 0
7, 106560, Note_on_c, 5, 81, 116
7, 106800, Note_on_c, 5, 81, 0
7, 106800, Note_on_c, 5, 79, 116
7, 106956, Note_on_c, 5, 79, 0
7, 107040, Note_on_c, 5, 78, 116
7, 107196, Note_on_c, 5, 78, 0
7, 107280, Note_on_c, 5, 76, 116
7, 107436, Note_on_c, 5, 76, 0
7, 107520, Note_on_c, 5, 76, 116
7, 107760, Note_on_c, 5, 76, 0
7, 107760, Note_on_c, 5, 74, 116
7, 107916, Note_on_c, 5, 74, 0
7, 108000, Note_on_c, 5, 74, 116
7, 108156, Note_on_c, 5, 74, 0
7, 108240, Note_on_c, 5, 74, 116
7, 108396, Note_on_c, 5, 74, 0
7, 108480, Note_on_c, 5, 74, 116
7, 108720, Note_on_c, 5, 74, 0
7, 108720, Note_on_c, 5, 78, 116
7, 108876, Note_on_c, 5, 78, 0
7, 108960, Note_on_c, 5, 76, 116
7, 109116, Note_on_c, 5, 76, 0
7, 109200, Note_on_c, 5, 73, 116
7, 109356, Note_on_c, 5, 73, 0
7, 109440, Note_on_c, 5, 74, 105
7, 109824, Note_on_c, 5, 74, 0
7, 110640, Note_on_c, 5, 69, 72
7, 110832, Note_on_c, 5, 69, 0
7, 110880, Note_on_c, 5, 74, 72
7, 111024, Note_on_c, 5, 74, 0
7, 111120, Note_on_c, 5, 78, 72
7, 111264, Note_on_c, 5, 78, 0
7, 111360, Note_on_c, 5, 81, 72
7, 111648, Note_on_c, 5, 81, 0
7, 111840, Note_on_c, 5, 81, 72
7, 112128, Note_on_c, 5, 81, 0
7, 112320, Note_on_c, 5, 81, 72
7, 112608, Note_on_c, 5, 81, 0
7, 112800, Note_on_c, 5, 81, 72
7, 113088, Note_on_c, 5, 81, 0
7, 113280, Note_on_c, 5, 71, 72
7, 113664, Note_on_c, 5, 71, 0
7, 114480, Note_on_c, 5, 71, 72
7, 114624, Note_on_c, 5, 71, 0
7, 114720, Note_on_c, 5, 74, 72
7, 114864, Note_on_c, 5, 74, 0
7, 114960, Note_on_c, 5, 79, 72
7, 115104, Note_on_c, 5, 79, 0
7, 115200, Note_on_c, 5, 83, 72
7, 115488, Note_on_c, 5, 83, 0
7, 115680, Note_on_c, 5, 83, 72
7, 115968, Note_on_c, 5, 83, 0
7, 116160, Note_on_c, 5, 83, 72
7, 116448, Note_on_c, 5, 83, 0
7, 116640, Note_on_c, 5, 83, 72
7, 116928, Note_on_c, 5, 83, 0
7, 117120, Note_on_c, 5, 72, 72
7, 117504, Note_on_c, 5, 72, 0
7, 118320, Note_on_c, 5, 72, 72
7, 118464, Note_on_c, 5, 72, 0
7, 118560, Note_on_c, 5, 78, 72
7, 118704, Note_on_c, 5, 78, 0
7, 118800, Note_on_c, 5, 81, 72
7, 118944, Note_on_c, 5, 81, 0
7, 119040, Note_on_c, 5, 84, 72
7, 119328, Note_on_c, 5, 84, 0
7, 119520, Note_on_c, 5, 84, 72
7, 119808, Note_on_c, 5, 84, 0
7, 120000, Note_on_c, 5, 84, 72
7, 120288, Note_on_c, 5, 84, 0
7, 120480, Note_on_c, 5, 84, 72
7, 120768, Note_on_c, 5, 84, 0
7, 120960, Note_on_c, 5, 74, 58
7, 121344, Note_on_c, 5, 74, 0
7, 122160, Note_on_c, 5, 74, 58
7, 122352, Note_on_c, 5, 74, 0
7, 122400, Note_on_c, 5, 79, 72
7, 122592, Note_on_c, 5, 79, 0
7, 122640, Note_on_c, 5, 83, 72
7, 122832, Note_on_c, 5, 83, 0
7, 122880, Note_on_c, 5, 86, 72
7, 123168, Note_on_c, 5, 86, 0
7, 123360, Note_on_c, 5, 86, 72
7, 123648, Note_on_c, 5, 86, 0
7, 123840, Note_on_c, 5, 86, 72
7, 124128, Note_on_c, 5, 86, 0
7, 124320, Note_on_c, 5, 86, 72
7, 124608, Note_on_c, 5, 86, 0
7, 124800, Note_on_c, 5, 78, 72
7, 125088, Note_on_c, 5, 78, 0
7, 125280, Note_on_c, 5, 78, 72
7, 125568, Note_on_c, 5, 78, 0
7, 125760, Note_on_c, 5, 79, 72
7, 126048, Note_on_c, 5, 79, 0
7, 126240, Note_on_c, 5, 79, 72
7, 126320, Note_on_c, 5, 79, 0
7, 126320, Note_on_c, 5, 81, 72
7, 126400, Note_on_c, 5, 81, 0
7, 126400, Note_on_c, 5, 79, 72
7, 126480, Note_on_c, 5, 79, 0
7, 126480, Note_on_c, 5, 78, 72
7, 126600, Note_on_c, 5, 78, 0
7, 126600, Note_on_c, 5, 79, 72
7, 126720, Note_on_c, 5, 79, 0
7, 126720, Note_on_c, 5, 84, 72
7, 127008, Note_on_c, 5, 84, 0
7, 127200, Note_on_c, 5, 84, 72
7, 127488, Note_on_c, 5, 84, 0
7, 127680, Note_on_c, 5, 83, 72
7, 127968, Note_on_c, 5, 83, 0
7, 128160, Note_on_c, 5, 83, 72
7, 128448, Note_on_c, 5, 83, 0
7, 128640, Note_on_c, 5, 81, 72
7, 129024, Note_on_c, 5, 81, 0
7, 129840, Note_on_c, 5, 74, 72
7, 129984, Note_on_c, 5, 74, 0
7, 130080, Note_on_c, 5, 79, 72
7, 130224, Note_on_c, 5, 79, 0
7, 130320, Note_on_c, 5, 83, 72
7, 130464, Note_on_c, 5, 83, 0
7, 130560, Note_on_c, 5, 86, 72
7, 130848, Note_on_c, 5, 86, 0
7, 131040, Note_on_c, 5, 86, 72
7, 131328, Note_on_c, 5, 86, 0
7, 131520, Note_on_c, 5, 86, 72
7, 131808, Note_on_c, 5, 86, 0
7, 132000, Note_on_c, 5, 86, 72
7, 132288, Note_on_c, 5, 86, 0
7, 132480, Note_on_c, 5, 78, 72
7, 132768, Note_on_c, 5, 78, 0
7, 132960, Note_on_c, 5, 78, 72
7, 133040, Note_on_c, 5, 78, 0
7, 133040, Note_on_c, 5, 79, 72
7, 133120, Note_on_c, 5, 79, 0
7, 133120, Note_on_c, 5, 78, 72
7, 133200, Note_on_c, 5, 78, 0
7, 133200, Note_on_c, 5, 76, 72
7, 133320, Note_on_c, 5, 76, 0
7, 133320, Note_on_c, 5, 78, 72
7, 133440, Note_on_c, 5, 78, 0
7, 133440, Note_on_c, 5, 79, 72
7, 133728, Note_on_c, 5, 79, 0
7, 133920, Note_on_c, 5, 79, 72
7, 134000, Note_on_c, 5, 79, 0
7, 134000, Note_on_c, 5, 81, 72
7, 134080, Note_on_c, 5, 81, 0
7, 134080, Note_on_c, 5, 79, 72
7, 134160, Note_on_c, 5, 79, 0
7, 134160, Note_on_c, 5, 78, 72
7, 134280, Note_on_c, 5, 78, 0
7, 134280, Note_on_c, 5, 79, 72
7, 134400, Note_on_c, 5, 79, 0
7, 134400, Note_on_c, 5, 81, 72
7, 134688, Note_on_c, 5, 81, 0
7, 134880, Note_on_c, 5, 81, 72
7, 135168, Note_on_c, 5, 81, 0
7, 135360, Note_on_c, 5, 74, 72
7, 135744, Note_on_c, 5, 74, 0
7, 135840, Note_on_c, 5, 76, 72
7, 136032, Note_on_c, 5, 76, 0
7, 136080, Note_on_c, 5, 78, 72
7, 136272, Note_on_c, 5, 78, 0
7, 136320, Note_on_c, 5, 79, 72
7, 136704, Note_on_c, 5, 79, 0
7, 137520, Note_on_c, 5, 74, 72
7, 137664, Note_on_c, 5, 74, 0
7, 137760, Note_on_c, 5, 79, 72
7, 137904, Note_on_c, 5, 79, 0
7, 138000, Note_on_c, 5, 83, 72
7, 138144, Note_on_c, 5, 83, 0
7, 138240, Note_on_c, 5, 86, 72
7, 138528, Note_on_c, 5, 86, 0
7, 138720, Note_on_c, 5, 86, 72
7, 139008, Note_on_c, 5, 86, 0
7, 139200, Note_on_c, 5, 86, 72
7, 139488, Note_on_c, 5, 86, 0
7, 139680, Note_on_c, 5, 86, 72
7, 139968, Note_on_c, 5, 86, 0
7, 140160, Note_on_c, 5, 78, 72
7, 140448, Note_on_c, 5, 78, 0
7, 140640, Note_on_c, 5, 78, 72
7, 140928, Note_on_c, 5, 78, 0
7, 141120, Note_on_c, 5, 79, 72
7, 141408, Note_on_c, 5, 79, 0
7, 141600, Note_on_c, 5, 79, 72
7, 141680, Note_on_c, 5, 79, 0
7, 141680, Note_on_c, 5, 81, 72
7, 141760, Note_on_c, 5, 81, 0
7, 141760, Note_on_c, 5, 79, 72
7, 141840, Note_on_c, 5, 79, 0
7, 141840, Note_on_c, 5, 78, 72
7, 141960, Note_on_c, 5, 78, 0
7, 141960, Note_on_c, 5, 79, 72
7, 142080, Note_on_c, 5, 79, 0
7, 142080, Note_on_c, 5, 84, 72
7, 142368, Note_on_c, 5, 84, 0
7, 142560, Note_on_c, 5, 84, 72
7, 142848, Note_on_c, 5, 84, 0
7, 143040, Note_on_c, 5, 83, 72
7, 143328, Note_on_c, 5, 83, 0
7, 143520, Note_on_c, 5, 83, 72
7, 143808, Note_on_c, 5, 83, 0
7, 144000, Note_on_c, 5, 81, 72
7, 144384, Note_on_c, 5, 81, 0
7, 145200, Note_on_c, 5, 74, 72
7, 145344, Note_on_c, 5, 74, 0
7, 145440, Note_on_c, 5, 79, 72
7, 145584, Note_on_c, 5, 79, 0
7, 145680, Note_on_c, 5, 83, 72
7, 145824, Note_on_c, 5, 83, 0
7, 145920, Note_on_c, 5, 86, 72
7, 146208, Note_on_c, 5, 86, 0
7, 146400, Note_on_c, 5, 86, 72
7, 146688, Note_on_c, 5, 86, 0
7, 146880, Note_on_c, 5, 86, 72
7, 147168, Note_on_c, 5, 86, 0
7, 147360, Note_on_c, 5, 86, 72
7, 147648, Note_on_c, 5, 86, 0
7, 147840, Note_on_c, 5, 78, 72
7, 148128, Note_on_c, 5, 78, 0
7, 148320, Note_on_c, 5, 78, 72
7, 148400, Note_on_c, 5, 78, 0
7, 148400, Note_on_c, 5, 79, 72
7, 148480, Note_on_c, 5, 79, 0
7, 148480, Note_on_c, 5, 78, 72
7, 148560, Note_on_c, 5, 78, 0
7, 148560, Note_on_c, 5, 76, 72
7, 148680, Note_on_c, 5, 76, 0
7, 148680, Note_on_c, 5, 78, 72
7, 148800, Note_on_c, 5, 78, 0
7, 148800, Note_on_c, 5, 79, 72
7, 149088, Note_on_c, 5, 79, 0
7, 149280, Note_on_c, 5, 79, 72
7, 149360, Note_on_c, 5, 79, 0
7, 149360, Note_on_c, 5, 81, 72
7, 149440, Note_on_c, 5, 81, 0
7, 149440, Note_on_c, 5, 79, 72
7, 149520, Note_on_c, 5, 79, 0
7, 149520, Note_on_c, 5, 78, 72
7, 149640, Note_on_c, 5, 78, 0
7, 149640, Note_on_c, 5, 79, 72
7, 149760, Note_on_c, 5, 79, 0
7, 149760, Note_on_c, 5, 81, 72
7, 150048, Note_on_c, 5, 81, 0
7, 150240, Note_on_c, 5, 81, 72
7, 150528, Note_on_c, 5, 81, 0
7, 150720, Note_on_c, 5, 74, 72
7, 151104, Note_on_c, 5, 74, 0
7, 151200, Note_on_c, 5, 76, 72
7, 151392, Note_on_c, 5, 76, 0
7, 151440, Note_on_c, 5, 78, 72
7, 151632, Note_on_c, 5, 78, 0
7, 151680, Note_on_c, 5, 79, 92
7, 152832, Note_on_c, 5, 79, 0
7, 152880, Note_on_c, 5, 81, 116
7, 153072, Note_on_c, 5, 81, 0
7, 153120, Note_on_c, 5, 78, 116
7, 153312, Note_on_c, 5, 78, 0
7, 153360, Note_on_c, 5, 74, 116
7, 153552, Note_on_c, 5, 74, 0
7, 153600, Note_on_c, 5, 83, 116
7, 154752, Note_on_c, 5, 83, 0
7, 154800, Note_on_c, 5, 84, 116
7, 154992, Note_on_c, 5, 84, 0
7, 155040, Note_on_c, 5, 81, 116
7, 155232, Note_on_c, 5, 81, 0
7, 155280, Note_on_c, 5, 78, 116
7, 155472, Note_on_c, 5, 78, 0
7, 155520, Note_on_c, 5, 86, 116
7, 155712, Note_on_c, 5, 86, 0
7, 155760, Note_on_c, 5, 86, 116
7, 156144, Note_on_c, 5, 86, 0
7, 156240, Note_on_c, 5, 86, 116
7, 156624, Note_on_c, 5, 86, 0
7, 156720, Note_on_c, 5, 86, 116
7, 157104, Note_on_c, 5, 86, 0
7, 157200, Note_on_c, 5, 86, 116
7, 157632, Note_on_c, 5, 86, 0
7, 157680, Note_on_c, 5, 86, 116
7, 158064, Note_on_c, 5, 86, 0
7, 158160, Note_on_c, 5, 86, 116
7, 158544, Note_on_c, 5, 86, 0
7, 158640, Note_on_c, 5, 86, 116
7, 159024, Note_on_c, 5, 86, 0
7, 159120, Note_on_c, 5, 86, 116
7, 159600, Note_on_c, 5, 86, 0
7, 159600, Note_on_c, 5, 83, 105
7, 159792, Note_on_c, 5, 83, 0
7, 159840, Note_on_c, 5, 83, 105
7, 160032, Note_on_c, 5, 83, 0
7, 160080, Note_on_c, 5, 83, 105
7, 160272, Note_on_c, 5, 83, 0
7, 160320, Note_on_c, 5, 83, 105
7, 160560, Note_on_c, 5, 83, 0
7, 160560, Note_on_c, 5, 79, 105
7, 160752, Note_on_c, 5, 79, 0
7, 160800, Note_on_c, 5, 79, 105
7, 160992, Note_on_c, 5, 79, 0
7, 161040, Note_on_c, 5, 79, 105
7, 161232, Note_on_c, 5, 79, 0
7, 161280, Note_on_c, 5, 79, 105
7, 161520, Note_on_c, 5, 79, 0
7, 161520, Note_on_c, 5, 74, 105
7, 161712, Note_on_c, 5, 74, 0
7, 161760, Note_on_c, 5, 74, 105
7, 161952, Note_on_c, 5, 74, 0
7, 162000, Note_on_c, 5, 74, 105
7, 162192, Note_on_c, 5, 74, 0
7, 162240, Note_on_c, 5, 74, 105
7, 162480, Note_on_c, 5, 74, 0
7, 162480, Note_on_c, 5, 71, 105
7, 162672, Note_on_c, 5, 71, 0
7, 162720, Note_on_c, 5, 71, 105
7, 162960, Note_on_c, 5, 71, 0
7, 162960, Note_on_c, 5, 67, 105
7, 163152, Note_on_c, 5, 67, 0
7, 163200, Note_on_c, 5, 74, 105
7, 163488, Note_on_c, 5, 74, 0
7, 163680, Note_on_c, 5, 69, 105
7, 163680, Note_on_c, 5, 78, 105
7, 163680, Note_on_c, 5, 62, 105
7, 163968, Note_on_c, 5, 62, 0
7, 163968, Note_on_c, 5, 78, 0
7, 163968, Note_on_c, 5, 69, 0
7, 164160, Note_on_c, 5, 71, 105
7, 164160, Note_on_c, 5, 62, 105
7, 164160, Note_on_c, 5, 79, 105
7, 164448, Note_on_c, 5, 79, 0
7, 164448, Note_on_c, 5, 62, 0
7, 164448, Note_on_c, 5, 71, 0
7, 164640, Note_on_c, 5, 83, 125
7, 164928, Note_on_c, 5, 83, 0
7, 165120, Note_on_c, 5, 86, 125
7, 165504, Note_on_c, 5, 86, 0
7, 165600, Note_on_c, 5, 62, 92
7, 165984, Note_on_c, 5, 62, 0
7, 166080, Note_on_c, 5, 62, 92
7, 166464, Note_on_c, 5, 62, 0
7, 167040, Note_on_c, 5, 81, 112
7, 168000, Note_on_c, 5, 81, 0
7, 168000, Note_on_c, 5, 73, 72
7, 168192, Note_on_c, 5, 73, 0
7, 168480, Note_on_c, 5, 74, 72
7, 168672, Note_on_c, 5, 74, 0
7, 168960, Note_on_c, 5, 76, 72
7, 169152, Note_on_c, 5, 76, 0
7, 169440, Note_on_c, 5, 78, 72
7, 169632, Note_on_c, 5, 78, 0
7, 169920, Note_on_c, 5, 79, 72
7, 170112, Note_on_c, 5, 79, 0
7, 170880, Note_on_c, 5, 78, 72
7, 171120, Note_on_c, 5, 78, 0
7, 171120, Note_on_c, 5, 79, 72
7, 171360, Note_on_c, 5, 79, 0
7, 171360, Note_on_c, 5, 80, 72
7, 171600, Note_on_c, 5, 80, 0
7, 171600, Note_on_c, 5, 81, 72
7, 171840, Note_on_c, 5, 81, 0
7, 171840, Note_on_c, 5, 82, 72
7, 172080, Note_on_c, 5, 82, 0
7, 172080, Note_on_c, 5, 83, 72
7, 172320, Note_on_c, 5, 83, 0
7, 172320, Note_on_c, 5, 79, 72
7, 172560, Note_on_c, 5, 79, 0
7, 172560, Note_on_c, 5, 76, 72
7, 172752, Note_on_c, 5, 76, 0
7, 172800, Note_on_c, 5, 74, 72
7, 173760, Note_on_c, 5, 74, 0
7, 173760, Note_on_c, 5, 73, 58
7, 174144, Note_on_c, 5, 73, 0
7, 174720, Note_on_c, 5, 81, 112
7, 175680, Note_on_c, 5, 81, 0
7, 175680, Note_on_c, 5, 73, 72
7, 175872, Note_on_c, 5, 73, 0
7, 176160, Note_on_c, 5, 74, 72
7, 176352, Note_on_c, 5, 74, 0
7, 176640, Note_on_c, 5, 76, 72
7, 176832, Note_on_c, 5, 76, 0
7, 177120, Note_on_c, 5, 78, 72
7, 177312, Note_on_c, 5, 78, 0
7, 177600, Note_on_c, 5, 79, 72
7, 177792, Note_on_c, 5, 79, 0
7, 178560, Note_on_c, 5, 78, 72
7, 179040, Note_on_c, 5, 78, 0
7, 179040, Note_on_c, 5, 86, 72
7, 180000, Note_on_c, 5, 86, 0
7, 180000, Note_on_c, 5, 80, 72
7, 180384, Note_on_c, 5, 80, 0
7, 180480, Note_on_c, 5, 83, 72
7, 181440, Note_on_c, 5, 83, 0
7, 181440, Note_on_c, 5, 81, 72
7, 181824, Note_on_c, 5, 81, 0
7, 182400, Note_on_c, 5, 83, 72
7, 182640, Note_on_c, 5, 83, 0
7, 182640, Note_on_c, 5, 81, 72
7, 182820, Note_on_c, 5, 81, 0
7, 182880, Note_on_c, 5, 79, 72
7, 183060, Note_on_c, 5, 79, 0
7, 183120, Note_on_c, 5, 78, 72
7, 183300, Note_on_c, 5, 78, 0
7, 183360, Note_on_c, 5, 76, 72
7, 183720, Note_on_c, 5, 76, 0
7, 183840, Note_on_c, 5, 76, 72
7, 184200, Note_on_c, 5, 76, 0
7, 184320, Note_on_c, 5, 79, 72
7, 184560, Note_on_c, 5, 79, 0
7, 184560, Note_on_c, 5, 78, 72
7, 184740, Note_on_c, 5, 78, 0
7, 184800, Note_on_c, 5, 76, 72
7, 184980, Note_on_c, 5, 76, 0
7, 185040, Note_on_c, 5, 74, 72
7, 185220, Note_on_c, 5, 74, 0
7, 185280, Note_on_c, 5, 73, 72
7, 185640, Note_on_c, 5, 73, 0
7, 186240, Note_on_c, 5, 83, 72
7, 186480, Note_on_c, 5, 83, 0
7, 186480, Note_on_c, 5, 81, 72
7, 186660, Note_on_c, 5, 81, 0
7, 186720, Note_on_c, 5, 79, 72
7, 186900, Note_on_c, 5, 79, 0
7, 186960, Note_on_c, 5, 78, 72
7, 187140, Note_on_c, 5, 78, 0
7, 187200, Note_on_c, 5, 76, 72
7, 187380, Note_on_c, 5, 76, 0
7, 187440, Note_on_c, 5, 76, 72
7, 187620, Note_on_c, 5, 76, 0
7, 187680, Note_on_c, 5, 76, 72
7, 187860, Note_on_c, 5, 76, 0
7, 187920, Note_on_c, 5, 76, 72
7, 188100, Note_on_c, 5, 76, 0
7, 188160, Note_on_c, 5, 79, 72
7, 188400, Note_on_c, 5, 79, 0
7, 188400, Note_on_c, 5, 78, 72
7, 188580, Note_on_c, 5, 78, 0
7, 188640, Note_on_c, 5, 76, 72
7, 188820, Note_on_c, 5, 76, 0
7, 188880, Note_on_c, 5, 74, 72
7, 189060, Note_on_c, 5, 74, 0
7, 189120, Note_on_c, 5, 73, 72
7, 189360, Note_on_c, 5, 73, 0
7, 189360, Note_on_c, 5, 76, 72
7, 189600, Note_on_c, 5, 76, 0
7, 189600, Note_on_c, 5, 73, 72
7, 189840, Note_on_c, 5, 73, 0
7, 189840, Note_on_c, 5, 76, 72
7, 190032, Note_on_c, 5, 76, 0
7, 190080, Note_on_c, 5, 79, 72
7, 190320, Note_on_c, 5, 79, 0
7, 190320, Note_on_c, 5, 77, 72
7, 190500, Note_on_c, 5, 77, 0
7, 190560, Note_on_c, 5, 76, 72
7, 190740, Note_on_c, 5, 76, 0
7, 190800, Note_on_c, 5, 74, 72
7, 190980, Note_on_c, 5, 74, 0
7, 191040, Note_on_c, 5, 73, 72
7, 191280, Note_on_c, 5, 73, 0
7, 191280, Note_on_c, 5, 76, 72
7, 191520, Note_on_c, 5, 76, 0
7, 191520, Note_on_c, 5, 73, 72
7, 191760, Note_on_c, 5, 73, 0
7, 191760, Note_on_c, 5, 76, 72
7, 191952, Note_on_c, 5, 76, 0
7, 192000, Note_on_c, 5, 79, 72
7, 192240, Note_on_c, 5, 79, 0
7, 192240, Note_on_c, 5, 77, 72
7, 192420, Note_on_c, 5, 77, 0
7, 192480, Note_on_c, 5, 76, 72
7, 192660, Note_on_c, 5, 76, 0
7, 192720, Note_on_c, 5, 74, 72
7, 192900, Note_on_c, 5, 74, 0
7, 192960, Note_on_c, 5, 73, 72
7, 193200, Note_on_c, 5, 73, 0
7, 193200, Note_on_c, 5, 76, 72
7, 193440, Note_on_c, 5, 76, 0
7, 193440, Note_on_c, 5, 73, 72
7, 193680, Note_on_c, 5, 73, 0
7, 193680, Note_on_c, 5, 76, 72
7, 193872, Note_on_c, 5, 76, 0
7, 193920, Note_on_c, 5, 79, 72
7, 194160, Note_on_c, 5, 79, 0
7, 194160, Note_on_c, 5, 76, 72
7, 194400, Note_on_c, 5, 76, 0
7, 194400, Note_on_c, 5, 79, 72
7, 194640, Note_on_c, 5, 79, 0
7, 194640, Note_on_c, 5, 76, 72
7, 194880, Note_on_c, 5, 76, 0
7, 194880, Note_on_c, 5, 79, 72
7, 195120, Note_on_c, 5, 79, 0
7, 195120, Note_on_c, 5, 76, 72
7, 195360, Note_on_c, 5, 76, 0
7, 195360, Note_on_c, 5, 79, 72
7, 195600, Note_on_c, 5, 79, 0
7, 195600, Note_on_c, 5, 76, 72
7, 195840, Note_on_c, 5, 76, 0
7, 195840, Note_on_c, 5, 79, 58
7, 196224, Note_on_c, 5, 79, 0
7, 197040, Note_on_c, 5, 69, 72
7, 197184, Note_on_c, 5, 69, 0
7, 197280, Note_on_c, 5, 74, 72
7, 197424, Note_on_c, 5, 74, 0
7, 197520, Note_on_c, 5, 78, 72
7, 197664, Note_on_c, 5, 78, 0
7, 197760, Note_on_c, 5, 81, 72
7, 198048, Note_on_c, 5, 81, 0
7, 198240, Note_on_c, 5, 81, 72
7, 198528, Note_on_c, 5, 81, 0
7, 198720, Note_on_c, 5, 81, 72
7, 199008, Note_on_c, 5, 81, 0
7, 199200, Note_on_c, 5, 81, 72
7, 199488, Note_on_c, 5, 81, 0
7, 199680, Note_on_c, 5, 73, 72
7, 199968, Note_on_c, 5, 73, 0
7, 200160, Note_on_c, 5, 73, 72
7, 200448, Note_on_c, 5, 73, 0
7, 200640, Note_on_c, 5, 74, 72
7, 200928, Note_on_c, 5, 74, 0
7, 201120, Note_on_c, 5, 74, 72
7, 201200, Note_on_c, 5, 74, 0
7, 201200, Note_on_c, 5, 76, 72
7, 201280, Note_on_c, 5, 76, 0
7, 201280, Note_on_c, 5, 74, 72
7, 201360, Note_on_c, 5, 74, 0
7, 201360, Note_on_c, 5, 73, 72
7, 201480, Note_on_c, 5, 73, 0
7, 201480, Note_on_c, 5, 74, 72
7, 201600, Note_on_c, 5, 74, 0
7, 201600, Note_on_c, 5, 79, 72
7, 201888, Note_on_c, 5, 79, 0
7, 202080, Note_on_c, 5, 79, 72
7, 202368, Note_on_c, 5, 79, 0
7, 202560, Note_on_c, 5, 78, 72
7, 202848, Note_on_c, 5, 78, 0
7, 203040, Note_on_c, 5, 78, 72
7, 203328, Note_on_c, 5, 78, 0
7, 203520, Note_on_c, 5, 76, 72
7, 203904, Note_on_c, 5, 76, 0
7, 204720, Note_on_c, 5, 69, 72
7, 204864, Note_on_c, 5, 69, 0
7, 204960, Note_on_c, 5, 74, 72
7, 205104, Note_on_c, 5, 74, 0
7, 205200, Note_on_c, 5, 78, 72
7, 205344, Note_on_c, 5, 78, 0
7, 205440, Note_on_c, 5, 81, 72
7, 205728, Note_on_c, 5, 81, 0
7, 205920, Note_on_c, 5, 81, 72
7, 206208, Note_on_c, 5, 81, 0
7, 206400, Note_on_c, 5, 81, 72
7, 206688, Note_on_c, 5, 81, 0
7, 206880, Note_on_c, 5, 81, 72
7, 207168, Note_on_c, 5, 81, 0
7, 207360, Note_on_c, 5, 73, 72
7, 207648, Note_on_c, 5, 73, 0
7, 207840, Note_on_c, 5, 73, 72
7, 207904, Note_on_c, 5, 73, 0
7, 207920, Note_on_c, 5, 74, 72
7, 207984, Note_on_c, 5, 74, 0
7, 208000, Note_on_c, 5, 73, 72
7, 208064, Note_on_c, 5, 73, 0
7, 208080, Note_on_c, 5, 71, 72
7, 208176, Note_on_c, 5, 71, 0
7, 208200, Note_on_c, 5, 73, 72
7, 208296, Note_on_c, 5, 73, 0
7, 208320, Note_on_c, 5, 74, 72
7, 208608, Note_on_c, 5, 74, 0
7, 208800, Note_on_c, 5, 74, 72
7, 208864, Note_on_c, 5, 74, 0
7, 208880, Note_on_c, 5, 76, 72
7, 208944, Note_on_c, 5, 76, 0
7, 208960, Note_on_c, 5, 74, 72
7, 209024, Note_on_c, 5, 74, 0
7, 209040, Note_on_c, 5, 73, 72
7, 209136, Note_on_c, 5, 73, 0
7, 209160, Note_on_c, 5, 74, 72
7, 209256, Note_on_c, 5, 74, 0
7, 209280, Note_on_c, 5, 76, 72
7, 209568, Note_on_c, 5, 76, 0
7, 209760, Note_on_c, 5, 76, 72
7, 209824, Note_on_c, 5, 76, 0
7, 209840, Note_on_c, 5, 78, 72
7, 209904, Note_on_c, 5, 78, 0
7, 209920, Note_on_c, 5, 76, 72
7, 209984, Note_on_c, 5, 76, 0
7, 210000, Note_on_c, 5, 74, 72
7, 210096, Note_on_c, 5, 74, 0
7, 210120, Note_on_c, 5, 76, 72
7, 210216, Note_on_c, 5, 76, 0
7, 210240, Note_on_c, 5, 78, 72
7, 210528, Note_on_c, 5, 78, 0
7, 210720, Note_on_c, 5, 78, 72
7, 210784, Note_on_c, 5, 78, 0
7, 210800, Note_on_c, 5, 79, 72
7, 210864, Note_on_c, 5, 79, 0
7, 210880, Note_on_c, 5, 78, 72
7, 210944, Note_on_c, 5, 78, 0
7, 210960, Note_on_c, 5, 76, 72
7, 211056, Note_on_c, 5, 76, 0
7, 211080, Note_on_c, 5, 78, 72
7, 211176, Note_on_c, 5, 78, 0
7, 211200, Note_on_c, 5, 81, 72
7, 212160, Note_on_c, 5, 81, 0
7, 212160, Note_on_c, 5, 79, 72
7, 212304, Note_on_c, 5, 79, 0
7, 212400, Note_on_c, 5, 71, 72
7, 212544, Note_on_c, 5, 71, 0
7, 212640, Note_on_c, 5, 74, 72
7, 212784, Note_on_c, 5, 74, 0
7, 212880, Note_on_c, 5, 79, 72
7, 213024, Note_on_c, 5, 79, 0
7, 213120, Note_on_c, 5, 83, 72
7, 213408, Note_on_c, 5, 83, 0
7, 213600, Note_on_c, 5, 83, 72
7, 213888, Note_on_c, 5, 83, 0
7, 214080, Note_on_c, 5, 83, 72
7, 214368, Note_on_c, 5, 83, 0
7, 214560, Note_on_c, 5, 83, 72
7, 214848, Note_on_c, 5, 83, 0
7, 215040, Note_on_c, 5, 73, 72
7, 215328, Note_on_c, 5, 73, 0
7, 215520, Note_on_c, 5, 73, 72
7, 215584, Note_on_c, 5, 73, 0
7, 215600, Note_on_c, 5, 74, 72
7, 215664, Note_on_c, 5, 74, 0
7, 215680, Note_on_c, 5, 73, 72
7, 215744, Note_on_c, 5, 73, 0
7, 215760, Note_on_c, 5, 71, 72
7, 215856, Note_on_c, 5, 71, 0
7, 215880, Note_on_c, 5, 73, 72
7, 215976, Note_on_c, 5, 73, 0
7, 216000, Note_on_c, 5, 74, 72
7, 216288, Note_on_c, 5, 74, 0
7, 216480, Note_on_c, 5, 74, 72
7, 216544, Note_on_c, 5, 74, 0
7, 216560, Note_on_c, 5, 76, 72
7, 216624, Note_on_c, 5, 76, 0
7, 216640, Note_on_c, 5, 74, 72
7, 216704, Note_on_c, 5, 74, 0
7, 216720, Note_on_c, 5, 73, 72
7, 216816, Note_on_c, 5, 73, 0
7, 216840, Note_on_c, 5, 74, 72
7, 216936, Note_on_c, 5, 74, 0
7, 216960, Note_on_c, 5, 79, 72
7, 217248, Note_on_c, 5, 79, 0
7, 217440, Note_on_c, 5, 79, 72
7, 217728, Note_on_c, 5, 79, 0
7, 217920, Note_on_c, 5, 76, 72
7, 218208, Note_on_c, 5, 76, 0
7, 218400, Note_on_c, 5, 76, 72
7, 218688, Note_on_c, 5, 76, 0
7, 218880, Note_on_c, 5, 81, 72
7, 220080, Note_on_c, 5, 81, 0
7, 220080, Note_on_c, 5, 83, 72
7, 220320, Note_on_c, 5, 83, 0
7, 220320, Note_on_c, 5, 79, 72
7, 220560, Note_on_c, 5, 79, 0
7, 220560, Note_on_c, 5, 81, 72
7, 220752, Note_on_c, 5, 81, 0
7, 220800, Note_on_c, 5, 78, 72
7, 222000, Note_on_c, 5, 78, 0
7, 222000, Note_on_c, 5, 79, 72
7, 222240, Note_on_c, 5, 79, 0
7, 222240, Note_on_c, 5, 76, 72
7, 222480, Note_on_c, 5, 76, 0
7, 222480, Note_on_c, 5, 78, 72
7, 222672, Note_on_c, 5, 78, 0
7, 222720, Note_on_c, 5, 74, 72
7, 223920, Note_on_c, 5, 74, 0
7, 223920, Note_on_c, 5, 76, 58
7, 224160, Note_on_c, 5, 76, 0
7, 224160, Note_on_c, 5, 73, 58
7, 224400, Note_on_c, 5, 73, 0
7, 224400, Note_on_c, 5, 69, 58
7, 224592, Note_on_c, 5, 69, 0
7, 224640, Note_on_c, 5, 81, 78
7, 224880, Note_on_c, 5, 81, 0
7, 224880, Note_on_c, 5, 83, 116
7, 225036, Note_on_c, 5, 83, 0
7, 225120, Note_on_c, 5, 85, 116
7, 225276, Note_on_c, 5, 85, 0
7, 225360, Note_on_c, 5, 86, 116
7, 225516, Note_on_c, 5, 86, 0
7, 225600, Note_on_c, 5, 85, 116
7, 225840, Note_on_c, 5, 85, 0
7, 225840, Note_on_c, 5, 83, 116
7, 225996, Note_on_c, 5, 83, 0
7, 226080, Note_on_c, 5, 81, 116
7, 226236, Note_on_c, 5, 81, 0
7, 226320, Note_on_c, 5, 79, 116
7, 226476, Note_on_c, 5, 79, 0
7, 226560, Note_on_c, 5, 78, 116
7, 226800, Note_on_c, 5, 78, 0
7, 226800, Note_on_c, 5, 79, 116
7, 226956, Note_on_c, 5, 79, 0
7, 227040, Note_on_c, 5, 81, 116
7, 227196, Note_on_c, 5, 81, 0
7, 227280, Note_on_c, 5, 83, 116
7, 227436, Note_on_c, 5, 83, 0
7, 227520, Note_on_c, 5, 81, 116
7, 227760, Note_on_c, 5, 81, 0
7, 227760, Note_on_c, 5, 79, 116
7, 227916, Note_on_c, 5, 79, 0
7, 228000, Note_on_c, 5, 78, 116
7, 228156, Note_on_c, 5, 78, 0
7, 228240, Note_on_c, 5, 76, 116
7, 228396, Note_on_c, 5, 76, 0
7, 228480, Note_on_c, 5, 76, 116
7, 228720, Note_on_c, 5, 76, 0
7, 228720, Note_on_c, 5, 74, 116
7, 228876, Note_on_c, 5, 74, 0
7, 228960, Note_on_c, 5, 74, 116
7, 229116, Note_on_c, 5, 74, 0
7, 229200, Note_on_c, 5, 74, 116
7, 229356, Note_on_c, 5, 74, 0
7, 229440, Note_on_c, 5, 74, 116
7, 229680, Note_on_c, 5, 74, 0
7, 229680, Note_on_c, 5, 78, 116
7, 229836, Note_on_c, 5, 78, 0
7, 229920, Note_on_c, 5, 76, 116
7, 230076, Note_on_c, 5, 76, 0
7, 230160, Note_on_c, 5, 73, 116
7, 230316, Note_on_c, 5, 73, 0
7, 230400, Note_on_c, 5, 74, 105
7, 230784, Note_on_c, 5, 74, 0
7, 231600, Note_on_c, 5, 69, 72
7, 231792, Note_on_c, 5, 69, 0
7, 231840, Note_on_c, 5, 74, 72
7, 231984, Note_on_c, 5, 74, 0
7, 232080, Note_on_c, 5, 78, 72
7, 232224, Note_on_c, 5, 78, 0
7, 232320, Note_on_c, 5, 81, 72
7, 232608, Note_on_c, 5, 81, 0
7, 232800, Note_on_c, 5, 81, 72
7, 233088, Note_on_c, 5, 81, 0
7, 233280, Note_on_c, 5, 81, 72
7, 233568, Note_on_c, 5, 81, 0
7, 233760, Note_on_c, 5, 81, 72
7, 234048, Note_on_c, 5, 81, 0
7, 234240, Note_on_c, 5, 71, 72
7, 234624, Note_on_c, 5, 71, 0
7, 235440, Note_on_c, 5, 71, 72
7, 235584, Note_on_c, 5, 71, 0
7, 235680, Note_on_c, 5, 74, 72
7, 235824, Note_on_c, 5, 74, 0
7, 235920, Note_on_c, 5, 79, 72
7, 236064, Note_on_c, 5, 79, 0
7, 236160, Note_on_c, 5, 83, 72
7, 236448, Note_on_c, 5, 83, 0
7, 236640, Note_on_c, 5, 83, 72
7, 236928, Note_on_c, 5, 83, 0
7, 237120, Note_on_c, 5, 83, 72
7, 237408, Note_on_c, 5, 83, 0
7, 237600, Note_on_c, 5, 83, 72
7, 237888, Note_on_c, 5, 83, 0
7, 238080, Note_on_c, 5, 72, 72
7, 238464, Note_on_c, 5, 72, 0
7, 239280, Note_on_c, 5, 72, 72
7, 239424, Note_on_c, 5, 72, 0
7, 239520, Note_on_c, 5, 78, 72
7, 239664, Note_on_c, 5, 78, 0
7, 239760, Note_on_c, 5, 81, 72
7, 239904, Note_on_c, 5, 81, 0
7, 240000, Note_on_c, 5, 84, 72
7, 240288, Note_on_c, 5, 84, 0
7, 240480, Note_on_c, 5, 84, 72
7, 240768, Note_on_c, 5, 84, 0
7, 240960, Note_on_c, 5, 84, 72
7, 241248, Note_on_c, 5, 84, 0
7, 241440, Note_on_c, 5, 84, 72
7, 241728, Note_on_c, 5, 84, 0
7, 241920, Note_on_c, 5, 74, 58
7, 242304, Note_on_c, 5, 74, 0
7, 243120, Note_on_c, 5, 62, 105
7, 243276, Note_on_c, 5, 62, 0
7, 243360, Note_on_c, 5, 66, 105
7, 243516, Note_on_c, 5, 66, 0
7, 243600, Note_on_c, 5, 69, 105
7, 243756, Note_on_c, 5, 69, 0
7, 243840, Note_on_c, 5, 72, 105
7, 244152, Note_on_c, 5, 72, 0
7, 244320, Note_on_c, 5, 72, 105
7, 244632, Note_on_c, 5, 72, 0
7, 244800, Note_on_c, 5, 72, 105
7, 245112, Note_on_c, 5, 72, 0
7, 245280, Note_on_c, 5, 72, 105
7, 245592, Note_on_c, 5, 72, 0
7, 245760, Note_on_c, 5, 63, 105
7, 246144, Note_on_c, 5, 63, 0
7, 246960, Note_on_c, 5, 70, 72
7, 247104, Note_on_c, 5, 70, 0
7, 247200, Note_on_c, 5, 75, 72
7, 247344, Note_on_c, 5, 75, 0
7, 247440, Note_on_c, 5, 79, 72
7, 247584, Note_on_c, 5, 79, 0
7, 247680, Note_on_c, 5, 82, 72
7, 247968, Note_on_c, 5, 82, 0
7, 248160, Note_on_c, 5, 82, 72
7, 248448, Note_on_c, 5, 82, 0
7, 248640, Note_on_c, 5, 82, 72
7, 248928, Note_on_c, 5, 82, 0
7, 249120, Note_on_c, 5, 82, 72
7, 249408, Note_on_c, 5, 82, 0
7, 249600, Note_on_c, 5, 74, 72
7, 249888, Note_on_c, 5, 74, 0
7, 250080, Note_on_c, 5, 74, 72
7, 250368, Note_on_c, 5, 74, 0
7, 250560, Note_on_c, 5, 75, 72
7, 250848, Note_on_c, 5, 75, 0
7, 251040, Note_on_c, 5, 75, 72
7, 251120, Note_on_c, 5, 75, 0
7, 251120, Note_on_c, 5, 77, 72
7, 251200, Note_on_c, 5, 77, 0
7, 251200, Note_on_c, 5, 75, 72
7, 251280, Note_on_c, 5, 75, 0
7, 251280, Note_on_c, 5, 74, 72
7, 251400, Note_on_c, 5, 74, 0
7, 251400, Note_on_c, 5, 75, 72
7, 251520, Note_on_c, 5, 75, 0
7, 251520, Note_on_c, 5, 80, 72
7, 251808, Note_on_c, 5, 80, 0
7, 252000, Note_on_c, 5, 80, 72
7, 252288, Note_on_c, 5, 80, 0
7, 252480, Note_on_c, 5, 79, 72
7, 252768, Note_on_c, 5, 79, 0
7, 252960, Note_on_c, 5, 79, 72
7, 253248, Note_on_c, 5, 79, 0
7, 253440, Note_on_c, 5, 77, 72
7, 253824, Note_on_c, 5, 77, 0
7, 254640, Note_on_c, 5, 70, 72
7, 254832, Note_on_c, 5, 70, 0
7, 254880, Note_on_c, 5, 75, 72
7, 255072, Note_on_c, 5, 75, 0
7, 255120, Note_on_c, 5, 79, 72
7, 255312, Note_on_c, 5, 79, 0
7, 255360, Note_on_c, 5, 82, 72
7, 255648, Note_on_c, 5, 82, 0
7, 255840, Note_on_c, 5, 82, 72
7, 256128, Note_on_c, 5, 82, 0
7, 256320, Note_on_c, 5, 82, 72
7, 256608, Note_on_c, 5, 82, 0
7, 256800, Note_on_c, 5, 82, 72
7, 257088, Note_on_c, 5, 82, 0
7, 257280, Note_on_c, 5, 74, 72
7, 257664, Note_on_c, 5, 74, 0
7, 257760, Note_on_c, 5, 74, 72
7, 257824, Note_on_c, 5, 74, 0
7, 257840, Note_on_c, 5, 75, 72
7, 257904, Note_on_c, 5, 75, 0
7, 257920, Note_on_c, 5, 74, 72
7, 257984, Note_on_c, 5, 74, 0
7, 258000, Note_on_c, 5, 72, 72
7, 258096, Note_on_c, 5, 72, 0
7, 258120, Note_on_c, 5, 74, 72
7, 258216, Note_on_c, 5, 74, 0
7, 258240, Note_on_c, 5, 75, 72
7, 258624, Note_on_c, 5, 75, 0
7, 258720, Note_on_c, 5, 75, 72
7, 258784, Note_on_c, 5, 75, 0
7, 258800, Note_on_c, 5, 77, 72
7, 258864, Note_on_c, 5, 77, 0
7, 258880, Note_on_c, 5, 75, 72
7, 258944, Note_on_c, 5, 75, 0
7, 258960, Note_on_c, 5, 74, 72
7, 259056, Note_on_c, 5, 74, 0
7, 259080, Note_on_c, 5, 75, 72
7, 259176, Note_on_c, 5, 75, 0
7, 259200, Note_on_c, 5, 77, 72
7, 259488, Note_on_c, 5, 77, 0
7, 259680, Note_on_c, 5, 77, 72
7, 259968, Note_on_c, 5, 77, 0
7, 260160, Note_on_c, 5, 70, 72
7, 260448, Note_on_c, 5, 70, 0
7, 260640, Note_on_c, 5, 72, 72
7, 260832, Note_on_c, 5, 72, 0
7, 260880, Note_on_c, 5, 74, 72
7, 261072, Note_on_c, 5, 74, 0
7, 261120, Note_on_c, 5, 75, 105
7, 262272, Note_on_c, 5, 75, 0
7, 262320, Note_on_c, 5, 77, 105
7, 262512, Note_on_c, 5, 77, 0
7, 262560, Note_on_c, 5, 74, 105
7, 262752, Note_on_c, 5, 74, 0
7, 262800, Note_on_c, 5, 70, 105
7, 262992, Note_on_c, 5, 70, 0
7, 263040, Note_on_c, 5, 79, 105
7, 264192, Note_on_c, 5, 79, 0
7, 264240, Note_on_c, 5, 80, 105
7, 264432, Note_on_c, 5, 80, 0
7, 264480, Note_on_c, 5, 77, 105
7, 264672, Note_on_c, 5, 77, 0
7, 264720, Note_on_c, 5, 74, 105
7, 264912, Note_on_c, 5, 74, 0
7, 264960, Note_on_c, 5, 82, 105
7, 265152, Note_on_c, 5, 82, 0
7, 265200, Note_on_c, 5, 82, 105
7, 265584, Note_on_c, 5, 82, 0
7, 265680, Note_on_c, 5, 82, 105
7, 266064, Note_on_c, 5, 82, 0
7, 266160, Note_on_c, 5, 82, 105
7, 266544, Note_on_c, 5, 82, 0
7, 266640, Note_on_c, 5, 82, 105
7, 267072, Note_on_c, 5, 82, 0
7, 267120, Note_on_c, 5, 82, 105
7, 267504, Note_on_c, 5, 82, 0
7, 267600, Note_on_c, 5, 82, 105
7, 267984, Note_on_c, 5, 82, 0
7, 268080, Note_on_c, 5, 82, 105
7, 268464, Note_on_c, 5, 82, 0
7, 268560, Note_on_c, 5, 82, 105
7, 269040, Note_on_c, 5, 82, 0
7, 269040, Note_on_c, 5, 79, 116
7, 269232, Note_on_c, 5, 79, 0
7, 269280, Note_on_c, 5, 79, 116
7, 269472, Note_on_c, 5, 79, 0
7, 269520, Note_on_c, 5, 79, 116
7, 269712, Note_on_c, 5, 79, 0
7, 269760, Note_on_c, 5, 79, 116
7, 270000, Note_on_c, 5, 79, 0
7, 270000, Note_on_c, 5, 75, 116
7, 270192, Note_on_c, 5, 75, 0
7, 270240, Note_on_c, 5, 75, 116
7, 270432, Note_on_c, 5, 75, 0
7, 270480, Note_on_c, 5, 75, 116
7, 270672, Note_on_c, 5, 75, 0
7, 270720, Note_on_c, 5, 75, 116
7, 270960, Note_on_c, 5, 75, 0
7, 270960, Note_on_c, 5, 70, 116
7, 271152, Note_on_c, 5, 70, 0
7, 271200, Note_on_c, 5, 70, 116
7, 271392, Note_on_c, 5, 70, 0
7, 271440, Note_on_c, 5, 70, 116
7, 271632, Note_on_c, 5, 70, 0
7, 271680, Note_on_c, 5, 70, 116
7, 271920, Note_on_c, 5, 70, 0
7, 271920, Note_on_c, 5, 67, 116
7, 272064, Note_on_c, 5, 67, 0
7, 272160, Note_on_c, 5, 67, 116
7, 272400, Note_on_c, 5, 67, 0
7, 272400, Note_on_c, 5, 63, 116
7, 272544, Note_on_c, 5, 63, 0
7, 272640, Note_on_c, 5, 83, 116
7, 272880, Note_on_c, 5, 83, 0
7, 272880, Note_on_c, 5, 77, 116
7, 273072, Note_on_c, 5, 77, 0
7, 273120, Note_on_c, 5, 77, 116
7, 273312, Note_on_c, 5, 77, 0
7, 273360, Note_on_c, 5, 77, 116
7, 273552, Note_on_c, 5, 77, 0
7, 273600, Note_on_c, 5, 77, 116
7, 273840, Note_on_c, 5, 77, 0
7, 273840, Note_on_c, 5, 74, 116
7, 274032, Note_on_c, 5, 74, 0
7, 274080, Note_on_c, 5, 74, 116
7, 274272, Note_on_c, 5, 74, 0
7, 274320, Note_on_c, 5, 74, 116
7, 274512, Note_on_c, 5, 74, 0
7, 274560, Note_on_c, 5, 74, 116
7, 274800, Note_on_c, 5, 74, 0
7, 274800, Note_on_c, 5, 71, 116
7, 274992, Note_on_c, 5, 71, 0
7, 275040, Note_on_c, 5, 71, 116
7, 275232, Note_on_c, 5, 71, 0
7, 275280, Note_on_c, 5, 71, 116
7, 275472, Note_on_c, 5, 71, 0
7, 275520, Note_on_c, 5, 71, 116
7, 275760, Note_on_c, 5, 71, 0
7, 275760, Note_on_c, 5, 65, 116
7, 275952, Note_on_c, 5, 65, 0
7, 276000, Note_on_c, 5, 65, 116
7, 276240, Note_on_c, 5, 65, 0
7, 276240, Note_on_c, 5, 62, 116
7, 276432, Note_on_c, 5, 62, 0
7, 276480, Note_on_c, 5, 84, 116
7, 276720, Note_on_c, 5, 84, 0
7, 276720, Note_on_c, 5, 79, 116
7, 276912, Note_on_c, 5, 79, 0
7, 276960, Note_on_c, 5, 79, 116
7, 277152, Note_on_c, 5, 79, 0
7, 277200, Note_on_c, 5, 79, 116
7, 277392, Note_on_c, 5, 79, 0
7, 277440, Note_on_c, 5, 79, 116
7, 277680, Note_on_c, 5, 79, 0
7, 277680, Note_on_c, 5, 75, 116
7, 277872, Note_on_c, 5, 75, 0
7, 277920, Note_on_c, 5, 75, 116
7, 278112, Note_on_c, 5, 75, 0
7, 278160, Note_on_c, 5, 75, 116
7, 278352, Note_on_c, 5, 75, 0
7, 278400, Note_on_c, 5, 75, 116
7, 278640, Note_on_c, 5, 75, 0
7, 278640, Note_on_c, 5, 72, 116
7, 278832, Note_on_c, 5, 72, 0
7, 278880, Note_on_c, 5, 72, 116
7, 279072, Note_on_c, 5, 72, 0
7, 279120, Note_on_c, 5, 72, 116
7, 279312, Note_on_c, 5, 72, 0
7, 279360, Note_on_c, 5, 72, 116
7, 279600, Note_on_c, 5, 72, 0
7, 279600, Note_on_c, 5, 67, 116
7, 279792, Note_on_c, 5, 67, 0
7, 279840, Note_on_c, 5, 67, 116
7, 280080, Note_on_c, 5, 67, 0
7, 280080, Note_on_c, 5, 63, 116
7, 280272, Note_on_c, 5, 63, 0
7, 280320, Note_on_c, 5, 86, 116
7, 280560, Note_on_c, 5, 86, 0
7, 280560, Note_on_c, 5, 83, 116
7, 280752, Note_on_c, 5, 83, 0
7, 280800, Note_on_c, 5, 83, 116
7, 280992, Note_on_c, 5, 83, 0
7, 281040, Note_on_c, 5, 83, 116
7, 281232, Note_on_c, 5, 83, 0
7, 281280, Note_on_c, 5, 83, 116
7, 281520, Note_on_c, 5, 83, 0
7, 281520, Note_on_c, 5, 78, 116
7, 281712, Note_on_c, 5, 78, 0
7, 281760, Note_on_c, 5, 78, 116
7, 281952, Note_on_c, 5, 78, 0
7, 282000, Note_on_c, 5, 78, 116
7, 282192, Note_on_c, 5, 78, 0
7, 282240, Note_on_c, 5, 78, 116
7, 282480, Note_on_c, 5, 78, 0
7, 282480, Note_on_c, 5, 74, 116
7, 282672, Note_on_c, 5, 74, 0
7, 282720, Note_on_c, 5, 74, 116
7, 282912, Note_on_c, 5, 74, 0
7, 282960, Note_on_c, 5, 74, 116
7, 283152, Note_on_c, 5, 74, 0
7, 283200, Note_on_c, 5, 74, 116
7, 283440, Note_on_c, 5, 74, 0
7, 283440, Note_on_c, 5, 69, 116
7, 283632, Note_on_c, 5, 69, 0
7, 283680, Note_on_c, 5, 69, 116
7, 283920, Note_on_c, 5, 69, 0
7, 283920, Note_on_c, 5, 66, 116
7, 284112, Note_on_c, 5, 66, 0
7, 284160, Note_on_c, 5, 82, 116
7, 284400, Note_on_c, 5, 82, 0
7, 284400, Note_on_c, 5, 79, 116
7, 284592, Note_on_c, 5, 79, 0
7, 284640, Note_on_c, 5, 79, 116
7, 284832, Note_on_c, 5, 79, 0
7, 284880, Note_on_c, 5, 79, 116
7, 285072, Note_on_c, 5, 79, 0
7, 285120, Note_on_c, 5, 79, 116
7, 285360, Note_on_c, 5, 79, 0
7, 285360, Note_on_c, 5, 74, 116
7, 285552, Note_on_c, 5, 74, 0
7, 285600, Note_on_c, 5, 74, 116
7, 285792, Note_on_c, 5, 74, 0
7, 285840, Note_on_c, 5, 74, 116
7, 286032, Note_on_c, 5, 74, 0
7, 286080, Note_on_c, 5, 74, 116
7, 286320, Note_on_c, 5, 74, 0
7, 286320, Note_on_c, 5, 70, 116
7, 286512, Note_on_c, 5, 70, 0
7, 286560, Note_on_c, 5, 70, 116
7, 286752, Note_on_c, 5, 70, 0
7, 286800, Note_on_c, 5, 70, 116
7, 286992, Note_on_c, 5, 70, 0
7, 287040, Note_on_c, 5, 70, 116
7, 287280, Note_on_c, 5, 70, 0
7, 287280, Note_on_c, 5, 67, 116
7, 287472, Note_on_c, 5, 67, 0
7, 287520, Note_on_c, 5, 67, 116
7, 287760, Note_on_c, 5, 67, 0
7, 287760, Note_on_c, 5, 62, 116
7, 287952, Note_on_c, 5, 62, 0
7, 288000, Note_on_c, 5, 79, 105
7, 288240, Note_on_c, 5, 79, 0
7, 288240, Note_on_c, 5, 75, 105
7, 288432, Note_on_c, 5, 75, 0
7, 288480, Note_on_c, 5, 75, 105
7, 288672, Note_on_c, 5, 75, 0
7, 288720, Note_on_c, 5, 75, 105
7, 288912, Note_on_c, 5, 75, 0
7, 288960, Note_on_c, 5, 75, 105
7, 289200, Note_on_c, 5, 75, 0
7, 289200, Note_on_c, 5, 70, 105
7, 289392, Note_on_c, 5, 70, 0
7, 289440, Note_on_c, 5, 70, 105
7, 289632, Note_on_c, 5, 70, 0
7, 289680, Note_on_c, 5, 70, 105
7, 289872, Note_on_c, 5, 70, 0
7, 289920, Note_on_c, 5, 70, 105
7, 290160, Note_on_c, 5, 70, 0
7, 290160, Note_on_c, 5, 67, 105
7, 290352, Note_on_c, 5, 67, 0
7, 290400, Note_on_c, 5, 67, 105
7, 290592, Note_on_c, 5, 67, 0
7, 290640, Note_on_c, 5, 67, 105
7, 290832, Note_on_c, 5, 67, 0
7, 290880, Note_on_c, 5, 67, 105
7, 291120, Note_on_c, 5, 67, 0
7, 291120, Note_on_c, 5, 63, 105
7, 291312, Note_on_c, 5, 63, 0
7, 291360, Note_on_c, 5, 63, 105
7, 291600, Note_on_c, 5, 63, 0
7, 291600, Note_on_c, 5, 61, 105
7, 291792, Note_on_c, 5, 61, 0
7, 291840, Note_on_c, 5, 62, 105
7, 292128, Note_on_c, 5, 62, 0
7, 292320, Note_on_c, 5, 62, 105
7, 292320, Note_on_c, 5, 78, 105
7, 292320, Note_on_c, 5, 69, 105
7, 292608, Note_on_c, 5, 78, 0
7, 292704, Note_on_c, 5, 69, 0
7, 292704, Note_on_c, 5, 62, 0
7, 292800, Note_on_c, 5, 70, 105
7, 292800, Note_on_c, 5, 79, 105
7, 292800, Note_on_c, 5, 62, 105
7, 293088, Note_on_c, 5, 79, 0
7, 293184, Note_on_c, 5, 62, 0
7, 293184, Note_on_c, 5, 70, 0
7, 293280, Note_on_c, 5, 82, 125
7, 293664, Note_on_c, 5, 82, 0
7, 293760, Note_on_c, 5, 86, 125
7, 294144, Note_on_c, 5, 86, 0
7, 294240, Note_on_c, 5, 62, 105
7, 294528, Note_on_c, 5, 62, 0
7, 294720, Note_on_c, 5, 62, 105
7, 295008, Note_on_c, 5, 62, 0
7, 295680, Note_on_c, 5, 74, 112
7, 296640, Note_on_c, 5, 74, 0
7, 296640, Note_on_c, 5, 66, 72
7, 296832, Note_on_c, 5, 66, 0
7, 297120, Note_on_c, 5, 67, 72
7, 297312, Note_on_c, 5, 67, 0
7, 297600, Note_on_c, 5, 69, 72
7, 297792, Note_on_c, 5, 69, 0
7, 298080, Note_on_c, 5, 71, 72
7, 298272, Note_on_c, 5, 71, 0
7, 298560, Note_on_c, 5, 72, 72
7, 298752, Note_on_c, 5, 72, 0
7, 299520, Note_on_c, 5, 71, 72
7, 299760, Note_on_c, 5, 71, 0
7, 299760, Note_on_c, 5, 72, 72
7, 300000, Note_on_c, 5, 72, 0
7, 300000, Note_on_c, 5, 73, 72
7, 300240, Note_on_c, 5, 73, 0
7, 300240, Note_on_c, 5, 74, 72
7, 300480, Note_on_c, 5, 74, 0
7, 300480, Note_on_c, 5, 75, 72
7, 300720, Note_on_c, 5, 75, 0
7, 300720, Note_on_c, 5, 76, 72
7, 300960, Note_on_c, 5, 76, 0
7, 300960, Note_on_c, 5, 72, 72
7, 301200, Note_on_c, 5, 72, 0
7, 301200, Note_on_c, 5, 69, 72
7, 301392, Note_on_c, 5, 69, 0
7, 301440, Note_on_c, 5, 67, 72
7, 302400, Note_on_c, 5, 67, 0
7, 302400, Note_on_c, 5, 66, 58
7, 302784, Note_on_c, 5, 66, 0
7, 303360, Note_on_c, 5, 74, 98
7, 304320, Note_on_c, 5, 74, 0
7, 304320, Note_on_c, 5, 66, 72
7, 304512, Note_on_c, 5, 66, 0
7, 304800, Note_on_c, 5, 67, 72
7, 304992, Note_on_c, 5, 67, 0
7, 305280, Note_on_c, 5, 69, 72
7, 305472, Note_on_c, 5, 69, 0
7, 305760, Note_on_c, 5, 71, 72
7, 305952, Note_on_c, 5, 71, 0
7, 306240, Note_on_c, 5, 72, 72
7, 306432, Note_on_c, 5, 72, 0
7, 307200, Note_on_c, 5, 71, 72
7, 307680, Note_on_c, 5, 71, 0
7, 307680, Note_on_c, 5, 79, 72
7, 308640, Note_on_c, 5, 79, 0
7, 308640, Note_on_c, 5, 73, 72
7, 309024, Note_on_c, 5, 73, 0
7, 309120, Note_on_c, 5, 76, 72
7, 310080, Note_on_c, 5, 76, 0
7, 310080, Note_on_c, 5, 74, 30
7, 310464, Note_on_c, 5, 74, 0
7, 311040, Note_on_c, 5, 76, 72
7, 311280, Note_on_c, 5, 76, 0
7, 311280, Note_on_c, 5, 74, 72
7, 311436, Note_on_c, 5, 74, 0
7, 311520, Note_on_c, 5, 72, 72
7, 311676, Note_on_c, 5, 72, 0
7, 311760, Note_on_c, 5, 71, 72
7, 311916, Note_on_c, 5, 71, 0
7, 312000, Note_on_c, 5, 69, 72
7, 312312, Note_on_c, 5, 69, 0
7, 312480, Note_on_c, 5, 69, 72
7, 312792, Note_on_c, 5, 69, 0
7, 312960, Note_on_c, 5, 72, 72
7, 313200, Note_on_c, 5, 72, 0
7, 313200, Note_on_c, 5, 71, 72
7, 313356, Note_on_c, 5, 71, 0
7, 313440, Note_on_c, 5, 69, 72
7, 313596, Note_on_c, 5, 69, 0
7, 313680, Note_on_c, 5, 67, 72
7, 313836, Note_on_c, 5, 67, 0
7, 313920, Note_on_c, 5, 66, 72
7, 314232, Note_on_c, 5, 66, 0
7, 314880, Note_on_c, 5, 76, 72
7, 315120, Note_on_c, 5, 76, 0
7, 315120, Note_on_c, 5, 74, 72
7, 315276, Note_on_c, 5, 74, 0
7, 315360, Note_on_c, 5, 72, 72
7, 315516, Note_on_c, 5, 72, 0
7, 315600, Note_on_c, 5, 71, 72
7, 315756, Note_on_c, 5, 71, 0
7, 315840, Note_on_c, 5, 69, 72
7, 315996, Note_on_c, 5, 69, 0
7, 316080, Note_on_c, 5, 69, 72
7, 316236, Note_on_c, 5, 69, 0
7, 316320, Note_on_c, 5, 69, 72
7, 316476, Note_on_c, 5, 69, 0
7, 316560, Note_on_c, 5, 69, 72
7, 316716, Note_on_c, 5, 69, 0
7, 316800, Note_on_c, 5, 72, 72
7, 317040, Note_on_c, 5, 72, 0
7, 317040, Note_on_c, 5, 71, 72
7, 317232, Note_on_c, 5, 71, 0
7, 317280, Note_on_c, 5, 69, 72
7, 317472, Note_on_c, 5, 69, 0
7, 317520, Note_on_c, 5, 67, 72
7, 317712, Note_on_c, 5, 67, 0
7, 317760, Note_on_c, 5, 66, 72
7, 318000, Note_on_c, 5, 66, 0
7, 318000, Note_on_c, 5, 69, 72
7, 318240, Note_on_c, 5, 69, 0
7, 318240, Note_on_c, 5, 66, 72
7, 318480, Note_on_c, 5, 66, 0
7, 318480, Note_on_c, 5, 69, 72
7, 318672, Note_on_c, 5, 69, 0
7, 318720, Note_on_c, 5, 72, 72
7, 318960, Note_on_c, 5, 72, 0
7, 318960, Note_on_c, 5, 70, 72
7, 319152, Note_on_c, 5, 70, 0
7, 319200, Note_on_c, 5, 69, 72
7, 319392, Note_on_c, 5, 69, 0
7, 319440, Note_on_c, 5, 67, 72
7, 319632, Note_on_c, 5, 67, 0
7, 319680, Note_on_c, 5, 66, 72
7, 319920, Note_on_c, 5, 66, 0
7, 319920, Note_on_c, 5, 69, 72
7, 320160, Note_on_c, 5, 69, 0
7, 320160, Note_on_c, 5, 66, 72
7, 320400, Note_on_c, 5, 66, 0
7, 320400, Note_on_c, 5, 69, 72
7, 320592, Note_on_c, 5, 69, 0
7, 320640, Note_on_c, 5, 72, 72
7, 320880, Note_on_c, 5, 72, 0
7, 320880, Note_on_c, 5, 70, 72
7, 321072, Note_on_c, 5, 70, 0
7, 321120, Note_on_c, 5, 69, 72
7, 321312, Note_on_c, 5, 69, 0
7, 321360, Note_on_c, 5, 67, 72
7, 321552, Note_on_c, 5, 67, 0
7, 321600, Note_on_c, 5, 66, 72
7, 321744, Note_on_c, 5, 66, 0
7, 321840, Note_on_c, 5, 81, 72
7, 322080, Note_on_c, 5, 81, 0
7, 322080, Note_on_c, 5, 78, 72
7, 322320, Note_on_c, 5, 78, 0
7, 322320, Note_on_c, 5, 81, 72
7, 322512, Note_on_c, 5, 81, 0
7, 322560, Note_on_c, 5, 84, 72
7, 322800, Note_on_c, 5, 84, 0
7, 322800, Note_on_c, 5, 81, 72
7, 323040, Note_on_c, 5, 81, 0
7, 323040, Note_on_c, 5, 84, 72
7, 323280, Note_on_c, 5, 84, 0
7, 323280, Note_on_c, 5, 81, 72
7, 323520, Note_on_c, 5, 81, 0
7, 323520, Note_on_c, 5, 84, 72
7, 323760, Note_on_c, 5, 84, 0
7, 323760, Note_on_c, 5, 81, 72
7, 324000, Note_on_c, 5, 81, 0
7, 324000, Note_on_c, 5, 84, 72
7, 324240, Note_on_c, 5, 84, 0
7, 324240, Note_on_c, 5, 81, 72
7, 324480, Note_on_c, 5, 81, 0
7, 324480, Note_on_c, 5, 84, 58
7, 324864, Note_on_c, 5, 84, 0
7, 325680, Note_on_c, 5, 74, 72
7, 325824, Note_on_c, 5, 74, 0
7, 325920, Note_on_c, 5, 79, 72
7, 326064, Note_on_c, 5, 79, 0
7, 326160, Note_on_c, 5, 83, 72
7, 326304, Note_on_c, 5, 83, 0
7, 326400, Note_on_c, 5, 86, 72
7, 326688, Note_on_c, 5, 86, 0
7, 326880, Note_on_c, 5, 86, 72
7, 327168, Note_on_c, 5, 86, 0
7, 327360, Note_on_c, 5, 86, 72
7, 327648, Note_on_c, 5, 86, 0
7, 327840, Note_on_c, 5, 86, 72
7, 328128, Note_on_c, 5, 86, 0
7, 328320, Note_on_c, 5, 78, 72
7, 328608, Note_on_c, 5, 78, 0
7, 328800, Note_on_c, 5, 78, 72
7, 329088, Note_on_c, 5, 78, 0
7, 329280, Note_on_c, 5, 79, 72
7, 329568, Note_on_c, 5, 79, 0
7, 329760, Note_on_c, 5, 79, 72
7, 329840, Note_on_c, 5, 79, 0
7, 329840, Note_on_c, 5, 81, 72
7, 329920, Note_on_c, 5, 81, 0
7, 329920, Note_on_c, 5, 79, 72
7, 330000, Note_on_c, 5, 79, 0
7, 330000, Note_on_c, 5, 78, 72
7, 330120, Note_on_c, 5, 78, 0
7, 330120, Note_on_c, 5, 79, 72
7, 330240, Note_on_c, 5, 79, 0
7, 330240, Note_on_c, 5, 84, 72
7, 330528, Note_on_c, 5, 84, 0
7, 330720, Note_on_c, 5, 84, 72
7, 331008, Note_on_c, 5, 84, 0
7, 331200, Note_on_c, 5, 83, 72
7, 331488, Note_on_c, 5, 83, 0
7, 331680, Note_on_c, 5, 83, 72
7, 331968, Note_on_c, 5, 83, 0
7, 332160, Note_on_c, 5, 81, 72
7, 332544, Note_on_c, 5, 81, 0
7, 333360, Note_on_c, 5, 62, 72
7, 333516, Note_on_c, 5, 62, 0
7, 333600, Note_on_c, 5, 67, 72
7, 333756, Note_on_c, 5, 67, 0
7, 333840, Note_on_c, 5, 71, 72
7, 333996, Note_on_c, 5, 71, 0
7, 334080, Note_on_c, 5, 74, 72
7, 334368, Note_on_c, 5, 74, 0
7, 334560, Note_on_c, 5, 74, 72
7, 334848, Note_on_c, 5, 74, 0
7, 335040, Note_on_c, 5, 74, 72
7, 335328, Note_on_c, 5, 74, 0
7, 335520, Note_on_c, 5, 74, 72
7, 335808, Note_on_c, 5, 74, 0
7, 336000, Note_on_c, 5, 66, 72
7, 336288, Note_on_c, 5, 66, 0
7, 336480, Note_on_c, 5, 66, 72
7, 336560, Note_on_c, 5, 66, 0
7, 336560, Note_on_c, 5, 67, 72
7, 336640, Note_on_c, 5, 67, 0
7, 336640, Note_on_c, 5, 66, 72
7, 336720, Note_on_c, 5, 66, 0
7, 336720, Note_on_c, 5, 64, 72
7, 336840, Note_on_c, 5, 64, 0
7, 336840, Note_on_c, 5, 66, 72
7, 336960, Note_on_c, 5, 66, 0
7, 336960, Note_on_c, 5, 67, 72
7, 337248, Note_on_c, 5, 67, 0
7, 337440, Note_on_c, 5, 67, 72
7, 337520, Note_on_c, 5, 67, 0
7, 337520, Note_on_c, 5, 69, 72
7, 337600, Note_on_c, 5, 69, 0
7, 337600, Note_on_c, 5, 67, 72
7, 337680, Note_on_c, 5, 67, 0
7, 337680, Note_on_c, 5, 66, 72
7, 337800, Note_on_c, 5, 66, 0
7, 337800, Note_on_c, 5, 67, 72
7, 337920, Note_on_c, 5, 67, 0
7, 337920, Note_on_c, 5, 69, 72
7, 338208, Note_on_c, 5, 69, 0
7, 338400, Note_on_c, 5, 69, 72
7, 338480, Note_on_c, 5, 69, 0
7, 338480, Note_on_c, 5, 71, 72
7, 338560, Note_on_c, 5, 71, 0
7, 338560, Note_on_c, 5, 69, 72
7, 338640, Note_on_c, 5, 69, 0
7, 338640, Note_on_c, 5, 67, 72
7, 338760, Note_on_c, 5, 67, 0
7, 338760, Note_on_c, 5, 69, 72
7, 338880, Note_on_c, 5, 69, 0
7, 338880, Note_on_c, 5, 71, 72
7, 339168, Note_on_c, 5, 71, 0
7, 339360, Note_on_c, 5, 71, 72
7, 339440, Note_on_c, 5, 71, 0
7, 339440, Note_on_c, 5, 72, 72
7, 339520, Note_on_c, 5, 72, 0
7, 339520, Note_on_c, 5, 71, 72
7, 339600, Note_on_c, 5, 71, 0
7, 339600, Note_on_c, 5, 69, 72
7, 339720, Note_on_c, 5, 69, 0
7, 339720, Note_on_c, 5, 71, 72
7, 339840, Note_on_c, 5, 71, 0
7, 339840, Note_on_c, 5, 74, 72
7, 340800, Note_on_c, 5, 74, 0
7, 340800, Note_on_c, 5, 72, 72
7, 340944, Note_on_c, 5, 72, 0
7, 341040, Note_on_c, 5, 64, 72
7, 341184, Note_on_c, 5, 64, 0
7, 341280, Note_on_c, 5, 67, 72
7, 341424, Note_on_c, 5, 67, 0
7, 341520, Note_on_c, 5, 72, 72
7, 341664, Note_on_c, 5, 72, 0
7, 341760, Note_on_c, 5, 76, 72
7, 342048, Note_on_c, 5, 76, 0
7, 342240, Note_on_c, 5, 76, 72
7, 342528, Note_on_c, 5, 76, 0
7, 342720, Note_on_c, 5, 76, 72
7, 343008, Note_on_c, 5, 76, 0
7, 343200, Note_on_c, 5, 76, 72
7, 343488, Note_on_c, 5, 76, 0
7, 343680, Note_on_c, 5, 66, 72
7, 343968, Note_on_c, 5, 66, 0
7, 344160, Note_on_c, 5, 66, 72
7, 344240, Note_on_c, 5, 66, 0
7, 344240, Note_on_c, 5, 67, 72
7, 344320, Note_on_c, 5, 67, 0
7, 344320, Note_on_c, 5, 66, 72
7, 344400, Note_on_c, 5, 66, 0
7, 344400, Note_on_c, 5, 64, 72
7, 344520, Note_on_c, 5, 64, 0
7, 344520, Note_on_c, 5, 66, 72
7, 344640, Note_on_c, 5, 66, 0
7, 344640, Note_on_c, 5, 67, 72
7, 344928, Note_on_c, 5, 67, 0
7, 345120, Note_on_c, 5, 67, 72
7, 345200, Note_on_c, 5, 67, 0
7, 345200, Note_on_c, 5, 69, 72
7, 345280, Note_on_c, 5, 69, 0
7, 345280, Note_on_c, 5, 67, 72
7, 345360, Note_on_c, 5, 67, 0
7, 345360, Note_on_c, 5, 66, 72
7, 345480, Note_on_c, 5, 66, 0
7, 345480, Note_on_c, 5, 67, 72
7, 345600, Note_on_c, 5, 67, 0
7, 345600, Note_on_c, 5, 72, 72
7, 345888, Note_on_c, 5, 72, 0
7, 346080, Note_on_c, 5, 72, 72
7, 346368, Note_on_c, 5, 72, 0
7, 346560, Note_on_c, 5, 69, 72
7, 346848, Note_on_c, 5, 69, 0
7, 347040, Note_on_c, 5, 69, 72
7, 347328, Note_on_c, 5, 69, 0
7, 347520, Note_on_c, 5, 74, 72
7, 348720, Note_on_c, 5, 74, 0
7, 348720, Note_on_c, 5, 76, 72
7, 348960, Note_on_c, 5, 76, 0
7, 348960, Note_on_c, 5, 72, 72
7, 349200, Note_on_c, 5, 72, 0
7, 349200, Note_on_c, 5, 74, 72
7, 349392, Note_on_c, 5, 74, 0
7, 349440, Note_on_c, 5, 71, 72
7, 350640, Note_on_c, 5, 71, 0
7, 350640, Note_on_c, 5, 72, 72
7, 350880, Note_on_c, 5, 72, 0
7, 350880, Note_on_c, 5, 69, 72
7, 351120, Note_on_c, 5, 69, 0
7, 351120, Note_on_c, 5, 71, 72
7, 351312, Note_on_c, 5, 71, 0
7, 351360, Note_on_c, 5, 67, 72
7, 352560, Note_on_c, 5, 67, 0
7, 352560, Note_on_c, 5, 69, 72
7, 352800, Note_on_c, 5, 69, 0
7, 352800, Note_on_c, 5, 66, 72
7, 353040, Note_on_c, 5, 66, 0
7, 353040, Note_on_c, 5, 62, 72
7, 353232, Note_on_c, 5, 62, 0
7, 353280, Note_on_c, 5, 74, 92
7, 353520, Note_on_c, 5, 74, 0
7, 353520, Note_on_c, 5, 76, 116
7, 353676, Note_on_c, 5, 76, 0
7, 353760, Note_on_c, 5, 78, 116
7, 353916, Note_on_c, 5, 78, 0
7, 354000, Note_on_c, 5, 79, 116
7, 354156, Note_on_c, 5, 79, 0
7, 354240, Note_on_c, 5, 78, 116
7, 354480, Note_on_c, 5, 78, 0
7, 354480, Note_on_c, 5, 76, 116
7, 354636, Note_on_c, 5, 76, 0
7, 354720, Note_on_c, 5, 74, 116
7, 354876, Note_on_c, 5, 74, 0
7, 354960, Note_on_c, 5, 72, 116
7, 355116, Note_on_c, 5, 72, 0
7, 355200, Note_on_c, 5, 71, 116
7, 355440, Note_on_c, 5, 71, 0
7, 355440, Note_on_c, 5, 74, 116
7, 355596, Note_on_c, 5, 74, 0
7, 355680, Note_on_c, 5, 79, 116
7, 355836, Note_on_c, 5, 79, 0
7, 355920, Note_on_c, 5, 83, 116
7, 356076, Note_on_c, 5, 83, 0
7, 356160, Note_on_c, 5, 86, 116
7, 356400, Note_on_c, 5, 86, 0
7, 356400, Note_on_c, 5, 84, 116
7, 356556, Note_on_c, 5, 84, 0
7, 356640, Note_on_c, 5, 83, 116
7, 356796, Note_on_c, 5, 83, 0
7, 356880, Note_on_c, 5, 81, 116
7, 357036, Note_on_c, 5, 81, 0
7, 357120, Note_on_c, 5, 81, 116
7, 357360, Note_on_c, 5, 81, 0
7, 357360, Note_on_c, 5, 79, 116
7, 357516, Note_on_c, 5, 79, 0
7, 357600, Note_on_c, 5, 79, 116
7, 357756, Note_on_c, 5, 79, 0
7, 357840, Note_on_c, 5, 79, 116
7, 357996, Note_on_c, 5, 79, 0
7, 358080, Note_on_c, 5, 79, 116
7, 358320, Note_on_c, 5, 79, 0
7, 358320, Note_on_c, 5, 83, 116
7, 358476, Note_on_c, 5, 83, 0
7, 358560, Note_on_c, 5, 81, 116
7, 358716, Note_on_c, 5, 81, 0
7, 358800, Note_on_c, 5, 78, 116
7, 358956, Note_on_c, 5, 78, 0
7, 359040, Note_on_c, 5, 79, 105
7, 359424, Note_on_c, 5, 79, 0
7, 360240, Note_on_c, 5, 62, 72
7, 360384, Note_on_c, 5, 62, 0
7, 360480, Note_on_c, 5, 67, 72
7, 360624, Note_on_c, 5, 67, 0
7, 360720, Note_on_c, 5, 71, 72
7, 360864, Note_on_c, 5, 71, 0
7, 360960, Note_on_c, 5, 74, 72
7, 361248, Note_on_c, 5, 74, 0
7, 361440, Note_on_c, 5, 74, 72
7, 361728, Note_on_c, 5, 74, 0
7, 361920, Note_on_c, 5, 74, 72
7, 362208, Note_on_c, 5, 74, 0
7, 362400, Note_on_c, 5, 74, 72
7, 362688, Note_on_c, 5, 74, 0
7, 362880, Note_on_c, 5, 64, 72
7, 363264, Note_on_c, 5, 64, 0
7, 364080, Note_on_c, 5, 64, 72
7, 364224, Note_on_c, 5, 64, 0
7, 364320, Note_on_c, 5, 67, 72
7, 364464, Note_on_c, 5, 67, 0
7, 364560, Note_on_c, 5, 72, 72
7, 364704, Note_on_c, 5, 72, 0
7, 364800, Note_on_c, 5, 76, 72
7, 365088, Note_on_c, 5, 76, 0
7, 365280, Note_on_c, 5, 76, 72
7, 365568, Note_on_c, 5, 76, 0
7, 365760, Note_on_c, 5, 76, 72
7, 366048, Note_on_c, 5, 76, 0
7, 366240, Note_on_c, 5, 76, 72
7, 366528, Note_on_c, 5, 76, 0
7, 366720, Note_on_c, 5, 65, 72
7, 367104, Note_on_c, 5, 65, 0
7, 367920, Note_on_c, 5, 65, 72
7, 368112, Note_on_c, 5, 65, 0
7, 368160, Note_on_c, 5, 71, 72
7, 368352, Note_on_c, 5, 71, 0
7, 368400, Note_on_c, 5, 74, 72
7, 368592, Note_on_c, 5, 74, 0
7, 368640, Note_on_c, 5, 77, 72
7, 368928, Note_on_c, 5, 77, 0
7, 369120, Note_on_c, 5, 77, 72
7, 369408, Note_on_c, 5, 77, 0
7, 369600, Note_on_c, 5, 77, 72
7, 369888, Note_on_c, 5, 77, 0
7, 370080, Note_on_c, 5, 77, 72
7, 370368, Note_on_c, 5, 77, 0
7, 370560, Note_on_c, 5, 67, 58
7, 370944, Note_on_c, 5, 67, 0
7, 371760, Note_on_c, 5, 55, 105
7, 371904, Note_on_c, 5, 55, 0
7, 372000, Note_on_c, 5, 59, 105
7, 372144, Note_on_c, 5, 59, 0
7, 372240, Note_on_c, 5, 62, 105
7, 372384, Note_on_c, 5, 62, 0
7, 372480, Note_on_c, 5, 65, 105
7, 372768, Note_on_c, 5, 65, 0
7, 372960, Note_on_c, 5, 65, 105
7, 373248, Note_on_c, 5, 65, 0
7, 373440, Note_on_c, 5, 65, 105
7, 373728, Note_on_c, 5, 65, 0
7, 373920, Note_on_c, 5, 65, 105
7, 374208, Note_on_c, 5, 65, 0
7, 374400, Note_on_c, 5, 56, 105
7, 374784, Note_on_c, 5, 56, 0
7, 375600, Note_on_c, 5, 64, 72
7, 375744, Note_on_c, 5, 64, 0
7, 375840, Note_on_c, 5, 68, 72
7, 375984, Note_on_c, 5, 68, 0
7, 376080, Note_on_c, 5, 71, 72
7, 376224, Note_on_c, 5, 71, 0
7, 376320, Note_on_c, 5, 76, 72
7, 376608, Note_on_c, 5, 76, 0
7, 376800, Note_on_c, 5, 76, 72
7, 377088, Note_on_c, 5, 76, 0
7, 377280, Note_on_c, 5, 76, 72
7, 377760, Note_on_c, 5, 76, 0
7, 377760, Note_on_c, 5, 81, 72
7, 377952, Note_on_c, 5, 81, 0
7, 378240, Note_on_c, 5, 74, 72
7, 378528, Note_on_c, 5, 74, 0
7, 378720, Note_on_c, 5, 74, 72
7, 379008, Note_on_c, 5, 74, 0
7, 379200, Note_on_c, 5, 74, 72
7, 379680, Note_on_c, 5, 74, 0
7, 379680, Note_on_c, 5, 79, 72
7, 379872, Note_on_c, 5, 79, 0
7, 380160, Note_on_c, 5, 72, 72
7, 380448, Note_on_c, 5, 72, 0
7, 380640, Note_on_c, 5, 72, 72
7, 380928, Note_on_c, 5, 72, 0
7, 381120, Note_on_c, 5, 72, 72
7, 381408, Note_on_c, 5, 72, 0
7, 381600, Note_on_c, 5, 72, 72
7, 381888, Note_on_c, 5, 72, 0
7, 382080, Note_on_c, 5, 72, 72
7, 382464, Note_on_c, 5, 72, 0
7, 383280, Note_on_c, 5, 62, 105
7, 383424, Note_on_c, 5, 62, 0
7, 383520, Note_on_c, 5, 66, 105
7, 383664, Note_on_c, 5, 66, 0
7, 383760, Note_on_c, 5, 69, 105
7, 383904, Note_on_c, 5, 69, 0
7, 384000, Note_on_c, 5, 72, 105
7, 384288, Note_on_c, 5, 72, 0
7, 384480, Note_on_c, 5, 72, 105
7, 384768, Note_on_c, 5, 72, 0
7, 384960, Note_on_c, 5, 72, 105
7, 385248, Note_on_c, 5, 72, 0
7, 385440, Note_on_c, 5, 72, 105
7, 385728, Note_on_c, 5, 72, 0
7, 385920, Note_on_c, 5, 62, 105
7, 386304, Note_on_c, 5, 62, 0
7, 387120, Note_on_c, 5, 74, 72
7, 387312, Note_on_c, 5, 74, 0
7, 387360, Note_on_c, 5, 78, 72
7, 387552, Note_on_c, 5, 78, 0
7, 387600, Note_on_c, 5, 83, 72
7, 387792, Note_on_c, 5, 83, 0
7, 387840, Note_on_c, 5, 86, 72
7, 388128, Note_on_c, 5, 86, 0
7, 388320, Note_on_c, 5, 86, 72
7, 388608, Note_on_c, 5, 86, 0
7, 388800, Note_on_c, 5, 86, 72
7, 389088, Note_on_c, 5, 86, 0
7, 389280, Note_on_c, 5, 86, 72
7, 389568, Note_on_c, 5, 86, 0
7, 389760, Note_on_c, 5, 78, 72
7, 390048, Note_on_c, 5, 78, 0
7, 390240, Note_on_c, 5, 78, 72
7, 390528, Note_on_c, 5, 78, 0
7, 390720, Note_on_c, 5, 79, 72
7, 391008, Note_on_c, 5, 79, 0
7, 391200, Note_on_c, 5, 79, 72
7, 391280, Note_on_c, 5, 79, 0
7, 391280, Note_on_c, 5, 81, 72
7, 391360, Note_on_c, 5, 81, 0
7, 391360, Note_on_c, 5, 79, 72
7, 391440, Note_on_c, 5, 79, 0
7, 391440, Note_on_c, 5, 78, 72
7, 391560, Note_on_c, 5, 78, 0
7, 391560, Note_on_c, 5, 79, 72
7, 391680, Note_on_c, 5, 79, 0
7, 391680, Note_on_c, 5, 84, 72
7, 391968, Note_on_c, 5, 84, 0
7, 392160, Note_on_c, 5, 84, 72
7, 392448, Note_on_c, 5, 84, 0
7, 392640, Note_on_c, 5, 83, 72
7, 392928, Note_on_c, 5, 83, 0
7, 393120, Note_on_c, 5, 83, 72
7, 393408, Note_on_c, 5, 83, 0
7, 393600, Note_on_c, 5, 81, 72
7, 393984, Note_on_c, 5, 81, 0
7, 394800, Note_on_c, 5, 74, 72
7, 394944, Note_on_c, 5, 74, 0
7, 395040, Note_on_c, 5, 79, 72
7, 395184, Note_on_c, 5, 79, 0
7, 395280, Note_on_c, 5, 83, 72
7, 395424, Note_on_c, 5, 83, 0
7, 395520, Note_on_c, 5, 86, 72
7, 395808, Note_on_c, 5, 86, 0
7, 396000, Note_on_c, 5, 86, 72
7, 396288, Note_on_c, 5, 86, 0
7, 396480, Note_on_c, 5, 86, 72
7, 396768, Note_on_c, 5, 86, 0
7, 396960, Note_on_c, 5, 86, 72
7, 397248, Note_on_c, 5, 86, 0
7, 397440, Note_on_c, 5, 78, 72
7, 397728, Note_on_c, 5, 78, 0
7, 397920, Note_on_c, 5, 78, 72
7, 398000, Note_on_c, 5, 78, 0
7, 398000, Note_on_c, 5, 79, 72
7, 398080, Note_on_c, 5, 79, 0
7, 398080, Note_on_c, 5, 78, 72
7, 398160, Note_on_c, 5, 78, 0
7, 398160, Note_on_c, 5, 76, 72
7, 398280, Note_on_c, 5, 76, 0
7, 398280, Note_on_c, 5, 78, 72
7, 398400, Note_on_c, 5, 78, 0
7, 398400, Note_on_c, 5, 79, 72
7, 398688, Note_on_c, 5, 79, 0
7, 398880, Note_on_c, 5, 79, 72
7, 398960, Note_on_c, 5, 79, 0
7, 398960, Note_on_c, 5, 81, 72
7, 399040, Note_on_c, 5, 81, 0
7, 399040, Note_on_c, 5, 79, 72
7, 399120, Note_on_c, 5, 79, 0
7, 399120, Note_on_c, 5, 78, 72
7, 399240, Note_on_c, 5, 78, 0
7, 399240, Note_on_c, 5, 79, 72
7, 399360, Note_on_c, 5, 79, 0
7, 399360, Note_on_c, 5, 81, 72
7, 399648, Note_on_c, 5, 81, 0
7, 399840, Note_on_c, 5, 81, 72
7, 400128, Note_on_c, 5, 81, 0
7, 400320, Note_on_c, 5, 74, 72
7, 400608, Note_on_c, 5, 74, 0
7, 400800, Note_on_c, 5, 76, 72
7, 401040, Note_on_c, 5, 76, 0
7, 401040, Note_on_c, 5, 78, 72
7, 401232, Note_on_c, 5, 78, 0
7, 401280, Note_on_c, 5, 79, 72
7, 401520, Note_on_c, 5, 79, 0
7, 401520, Note_on_c, 5, 78, 72
7, 401760, Note_on_c, 5, 78, 0
7, 401760, Note_on_c, 5, 79, 72
7, 402000, Note_on_c, 5, 79, 0
7, 402000, Note_on_c, 5, 83, 72
7, 402240, Note_on_c, 5, 83, 0
7, 402240, Note_on_c, 5, 81, 72
7, 402480, Note_on_c, 5, 81, 0
7, 402480, Note_on_c, 5, 79, 72
7, 402720, Note_on_c, 5, 79, 0
7, 402720, Note_on_c, 5, 78, 72
7, 402960, Note_on_c, 5, 78, 0
7, 402960, Note_on_c, 5, 76, 72
7, 403152, Note_on_c, 5, 76, 0
7, 403200, Note_on_c, 5, 74, 72
7, 403440, Note_on_c, 5, 74, 0
7, 403440, Note_on_c, 5, 76, 72
7, 403680, Note_on_c, 5, 76, 0
7, 403680, Note_on_c, 5, 78, 72
7, 403920, Note_on_c, 5, 78, 0
7, 403920, Note_on_c, 5, 79, 72
7, 404160, Note_on_c, 5, 79, 0
7, 404160, Note_on_c, 5, 81, 72
7, 404400, Note_on_c, 5, 81, 0
7, 404400, Note_on_c, 5, 83, 72
7, 404640, Note_on_c, 5, 83, 0
7, 404640, Note_on_c, 5, 84, 72
7, 404880, Note_on_c, 5, 84, 0
7, 404880, Note_on_c, 5, 78, 72
7, 405072, Note_on_c, 5, 78, 0
7, 405120, Note_on_c, 5, 81, 72
7, 405180, Note_on_c, 5, 81, 0
7, 405180, Note_on_c, 5, 79, 72
7, 405240, Note_on_c, 5, 79, 0
7, 405240, Note_on_c, 5, 81, 72
7, 405300, Note_on_c, 5, 81, 0
7, 405300, Note_on_c, 5, 79, 72
7, 405360, Note_on_c, 5, 79, 0
7, 405360, Note_on_c, 5, 78, 72
7, 405600, Note_on_c, 5, 78, 0
7, 405600, Note_on_c, 5, 79, 72
7, 405840, Note_on_c, 5, 79, 0
7, 405840, Note_on_c, 5, 83, 72
7, 406080, Note_on_c, 5, 83, 0
7, 406080, Note_on_c, 5, 81, 72
7, 406320, Note_on_c, 5, 81, 0
7, 406320, Note_on_c, 5, 79, 72
7, 406560, Note_on_c, 5, 79, 0
7, 406560, Note_on_c, 5, 78, 72
7, 406800, Note_on_c, 5, 78, 0
7, 406800, Note_on_c, 5, 76, 72
7, 406992, Note_on_c, 5, 76, 0
7, 407040, Note_on_c, 5, 74, 72
7, 407280, Note_on_c, 5, 74, 0
7, 407280, Note_on_c, 5, 76, 72
7, 407520, Note_on_c, 5, 76, 0
7, 407520, Note_on_c, 5, 78, 72
7, 407760, Note_on_c, 5, 78, 0
7, 407760, Note_on_c, 5, 79, 72
7, 408000, Note_on_c, 5, 79, 0
7, 408000, Note_on_c, 5, 81, 72
7, 408240, Note_on_c, 5, 81, 0
7, 408240, Note_on_c, 5, 83, 72
7, 408480, Note_on_c, 5, 83, 0
7, 408480, Note_on_c, 5, 84, 72
7, 408720, Note_on_c, 5, 84, 0
7, 408720, Note_on_c, 5, 78, 72
7, 408912, Note_on_c, 5, 78, 0
7, 408960, Note_on_c, 5, 81, 72
7, 409020, Note_on_c, 5, 81, 0
7, 409020, Note_on_c, 5, 79, 72
7, 409080, Note_on_c, 5, 79, 0
7, 409080, Note_on_c, 5, 81, 72
7, 409140, Note_on_c, 5, 81, 0
7, 409140, Note_on_c, 5, 79, 72
7, 409200, Note_on_c, 5, 79, 0
7, 409200, Note_on_c, 5, 78, 72
7, 409440, Note_on_c, 5, 78, 0
7, 409440, Note_on_c, 5, 79, 72
7, 409680, Note_on_c, 5, 79, 0
7, 409680, Note_on_c, 5, 83, 72
7, 409920, Note_on_c, 5, 83, 0
7, 409920, Note_on_c, 5, 81, 72
7, 410160, Note_on_c, 5, 81, 0
7, 410160, Note_on_c, 5, 79, 72
7, 410400, Note_on_c, 5, 79, 0
7, 410400, Note_on_c, 5, 78, 72
7, 410640, Note_on_c, 5, 78, 0
7, 410640, Note_on_c, 5, 76, 72
7, 410832, Note_on_c, 5, 76, 0
7, 410880, Note_on_c, 5, 74, 72
7, 411120, Note_on_c, 5, 74, 0
7, 411120, Note_on_c, 5, 76, 72
7, 411360, Note_on_c, 5, 76, 0
7, 411360, Note_on_c, 5, 78, 72
7, 411600, Note_on_c, 5, 78, 0
7, 411600, Note_on_c, 5, 79, 72
7, 411840, Note_on_c, 5, 79, 0
7, 411840, Note_on_c, 5, 81, 72
7, 412080, Note_on_c, 5, 81, 0
7, 412080, Note_on_c, 5, 83, 72
7, 412320, Note_on_c, 5, 83, 0
7, 412320, Note_on_c, 5, 84, 72
7, 412560, Note_on_c, 5, 84, 0
7, 412560, Note_on_c, 5, 78, 72
7, 412752, Note_on_c, 5, 78, 0
7, 412800, Note_on_c, 5, 81, 72
7, 413040, Note_on_c, 5, 81, 0
7, 413040, Note_on_c, 5, 79, 72
7, 413280, Note_on_c, 5, 79, 0
7, 413280, Note_on_c, 5, 78, 72
7, 413520, Note_on_c, 5, 78, 0
7, 413520, Note_on_c, 5, 79, 72
7, 413760, Note_on_c, 5, 79, 0
7, 413760, Note_on_c, 5, 78, 72
7, 414000, Note_on_c, 5, 78, 0
7, 414000, Note_on_c, 5, 76, 72
7, 414240, Note_on_c, 5, 76, 0
7, 414240, Note_on_c, 5, 74, 72
7, 414480, Note_on_c, 5, 74, 0
7, 414480, Note_on_c, 5, 72, 72
7, 414672, Note_on_c, 5, 72, 0
7, 414720, Note_on_c, 5, 71, 72
7, 414960, Note_on_c, 5, 71, 0
7, 414960, Note_on_c, 5, 72, 72
7, 415200, Note_on_c, 5, 72, 0
7, 415200, Note_on_c, 5, 73, 72
7, 415440, Note_on_c, 5, 73, 0
7, 415440, Note_on_c, 5, 74, 72
7, 415632, Note_on_c, 5, 74, 0
7, 415680, Note_on_c, 5, 74, 72
7, 415920, Note_on_c, 5, 74, 0
7, 415920, Note_on_c, 5, 72, 72
7, 416160, Note_on_c, 5, 72, 0
7, 416160, Note_on_c, 5, 71, 72
7, 416400, Note_on_c, 5, 71, 0
7, 416400, Note_on_c, 5, 69, 72
7, 416592, Note_on_c, 5, 69, 0
7, 416640, Note_on_c, 5, 67, 72
7, 417096, Note_on_c, 5, 67, 0
7, 417840, Note_on_c, 5, 74, 58
7, 417984, Note_on_c, 5, 74, 0
7, 418080, Note_on_c, 5, 79, 105
7, 418224, Note_on_c, 5, 79, 0
7, 418320, Note_on_c, 5, 83, 105
7, 418464, Note_on_c, 5, 83, 0
7, 418560, Note_on_c, 5, 86, 105
7, 418848, Note_on_c, 5, 86, 0
7, 419040, Note_on_c, 5, 86, 105
7, 419328, Note_on_c, 5, 86, 0
7, 419520, Note_on_c, 5, 86, 105
7, 419808, Note_on_c, 5, 86, 0
7, 420000, Note_on_c, 5, 86, 105
7, 420288, Note_on_c, 5, 86, 0
7, 420480, Note_on_c, 5, 62, 105
7, 420864, Note_on_c, 5, 62, 0
7, 421680, Note_on_c, 5, 74, 105
7, 421824, Note_on_c, 5, 74, 0
7, 421920, Note_on_c, 5, 79, 105
7, 422064, Note_on_c, 5, 79, 0
7, 422160, Note_on_c, 5, 83, 105
7, 422304, Note_on_c, 5, 83, 0
7, 422400, Note_on_c, 5, 86, 105
7, 422688, Note_on_c, 5, 86, 0
7, 422880, Note_on_c, 5, 86, 105
7, 423168, Note_on_c, 5, 86, 0
7, 423360, Note_on_c, 5, 86, 105
7, 423648, Note_on_c, 5, 86, 0
7, 423840, Note_on_c, 5, 86, 105
7, 424128, Note_on_c, 5, 86, 0
7, 424320, Note_on_c, 5, 62, 105
7, 424704, Note_on_c, 5, 62, 0
7, 425520, Note_on_c, 5, 74, 105
7, 425664, Note_on_c, 5, 74, 0
7, 425760, Note_on_c, 5, 79, 105
7, 425904, Note_on_c, 5, 79, 0
7, 426000, Note_on_c, 5, 83, 105
7, 426144, Note_on_c, 5, 83, 0
7, 426240, Note_on_c, 5, 86, 105
7, 426528, Note_on_c, 5, 86, 0
7, 426720, Note_on_c, 5, 86, 105
7, 427008, Note_on_c, 5, 86, 0
7, 427200, Note_on_c, 5, 86, 105
7, 427488, Note_on_c, 5, 86, 0
7, 427680, Note_on_c, 5, 86, 105
7, 427968, Note_on_c, 5, 86, 0
7, 428160, Note_on_c, 5, 86, 105
7, 428400, Note_on_c, 5, 86, 0
7, 428400, Note_on_c, 5, 83, 105
7, 428544, Note_on_c, 5, 83, 0
7, 428640, Note_on_c, 5, 83, 105
7, 428784, Note_on_c, 5, 83, 0
7, 428880, Note_on_c, 5, 83, 105
7, 429024, Note_on_c, 5, 83, 0
7, 429120, Note_on_c, 5, 83, 105
7, 429360, Note_on_c, 5, 83, 0
7, 429360, Note_on_c, 5, 79, 105
7, 429504, Note_on_c, 5, 79, 0
7, 429600, Note_on_c, 5, 79, 105
7, 429744, Note_on_c, 5, 79, 0
7, 429840, Note_on_c, 5, 79, 105
7, 429984, Note_on_c, 5, 79, 0
7, 430080, Note_on_c, 5, 79, 105
7, 430320, Note_on_c, 5, 79, 0
7, 430320, Note_on_c, 5, 76, 105
7, 430464, Note_on_c, 5, 76, 0
7, 430560, Note_on_c, 5, 76, 105
7, 430704, Note_on_c, 5, 76, 0
7, 430800, Note_on_c, 5, 76, 105
7, 430944, Note_on_c, 5, 76, 0
7, 431040, Note_on_c, 5, 74, 105
7, 431280, Note_on_c, 5, 74, 0
7, 431280, Note_on_c, 5, 71, 105
7, 431424, Note_on_c, 5, 71, 0
7, 431520, Note_on_c, 5, 72, 105
7, 431760, Note_on_c, 5, 72, 0
7, 431760, Note_on_c, 5, 69, 105
7, 431904, Note_on_c, 5, 69, 0
7, 432000, Note_on_c, 5, 67, 105
7, 432384, Note_on_c, 5, 67, 0
7, 433200, Note_on_c, 5, 67, 124
7, 433344, Note_on_c, 5, 67, 0
7, 433440, Note_on_c, 5, 71, 124
7, 433584, Note_on_c, 5, 71, 0
7, 433680, Note_on_c, 5, 74, 124
7, 433824, Note_on_c, 5, 74, 0
7, 433920, Note_on_c, 5, 79, 124
7, 434208, Note_on_c, 5, 79, 0
7, 434400, Note_on_c, 5, 79, 124
7, 434688, Note_on_c, 5, 79, 0
7, 434880, Note_on_c, 5, 79, 124
7, 435168, Note_on_c, 5, 79, 0
7, 435360, Note_on_c, 5, 79, 124
7, 435648, Note_on_c, 5, 79, 0
7, 435840, Note_on_c, 5, 55, 124
7, 436224, Note_on_c, 5, 55, 0
7, 437040, Note_on_c, 5, 71, 124
7, 437184, Note_on_c, 5, 71, 0
7, 437280, Note_on_c, 5, 74, 124
7, 437424, Note_on_c, 5, 74, 0
7, 437520, Note_on_c, 5, 79, 124
7, 437664, Note_on_c, 5, 79, 0
7, 437760, Note_on_c, 5, 83, 124
7, 438048, Note_on_c, 5, 83, 0
7, 438240, Note_on_c, 5, 83, 124
7, 438528, Note_on_c, 5, 83, 0
7, 438720, Note_on_c, 5, 83, 124
7, 439008, Note_on_c, 5, 83, 0
7, 439200, Note_on_c, 5, 83, 124
7, 439488, Note_on_c, 5, 83, 0
7, 439680, Note_on_c, 5, 55, 124
7, 440064, Note_on_c, 5, 55, 0
7, 440880, Note_on_c, 5, 74, 124
7, 441024, Note_on_c, 5, 74, 0
7, 441120, Note_on_c, 5, 79, 124
7, 441264, Note_on_c, 5, 79, 0
7, 441360, Note_on_c, 5, 83, 124
7, 441504, Note_on_c, 5, 83, 0
7, 441600, Note_on_c, 5, 86, 124
7, 441888, Note_on_c, 5, 86, 0
7, 442080, Note_on_c, 5, 86, 124
7, 442368, Note_on_c, 5, 86, 0
7, 442560, Note_on_c, 5, 86, 124
7, 442848, Note_on_c, 5, 86, 0
7, 443040, Note_on_c, 5, 86, 124
7, 443328, Note_on_c, 5, 86, 0
7, 443520, Note_on_c, 5, 86, 124
7, 444288, Note_on_c, 5, 86, 0
7, 444480, Note_on_c, 5, 83, 124
7, 444768, Note_on_c, 5, 83, 0
7, 444960, Note_on_c, 5, 79, 124
7, 445248, Note_on_c, 5, 79, 0
7, 445440, Note_on_c, 5, 74, 124
7, 445632, Note_on_c, 5, 74, 0
7, 445680, Note_on_c, 5, 74, 124
7, 445872, Note_on_c, 5, 74, 0
7, 445920, Note_on_c, 5, 79, 124
7, 446112, Note_on_c, 5, 79, 0
7, 446160, Note_on_c, 5, 79, 124
7, 446352, Note_on_c, 5, 79, 0
7, 446400, Note_on_c, 5, 71, 124
7, 446592, Note_on_c, 5, 71, 0
7, 446640, Note_on_c, 5, 71, 124
7, 446832, Note_on_c, 5, 71, 0
7, 446880, Note_on_c, 5, 74, 124
7, 447072, Note_on_c, 5, 74, 0
7, 447120, Note_on_c, 5, 74, 124
7, 447312, Note_on_c, 5, 74, 0
7, 447360, Note_on_c, 5, 67, 127
7, 447792, Note_on_c, 5, 67, 0
7, 448320, Note_on_c, 5, 83, 116
7, 448320, Note_on_c, 5, 74, 116
7, 448320, Note_on_c, 5, 67, 116
7, 448752, Note_on_c, 5, 67, 0
7, 448752, Note_on_c, 5, 74, 0
7, 448752, Note_on_c, 5, 83, 0
7, 449280, Note_on_c, 5, 55, 116
7, 450048, Note_on_c, 5, 55, 0
7, 450048, End_track
8, 0, Start_track
8, 0, Program_c, 6, 40
8, 0, Control_c, 6, 7, 100
8, 0, Control_c, 6, 10, 98
8, 0, Control_c, 6, 91, 85
8, 1920, Note_on_c, 6, 59, 58
8, 2112, Note_on_c, 6, 59, 0
8, 2160, Note_on_c, 6, 59, 58
8, 2352, Note_on_c, 6, 59, 0
8, 2400, Note_on_c, 6, 62, 58
8, 2592, Note_on_c, 6, 62, 0
8, 2640, Note_on_c, 6, 62, 58
8, 2832, Note_on_c, 6, 62, 0
8, 2880, Note_on_c, 6, 67, 58
8, 3072, Note_on_c, 6, 67, 0
8, 3120, Note_on_c, 6, 67, 58
8, 3312, Note_on_c, 6, 67, 0
8, 3360, Note_on_c, 6, 71, 58
8, 3552, Note_on_c, 6, 71, 0
8, 3600, Note_on_c, 6, 71, 58
8, 3792, Note_on_c, 6, 71, 0
8, 3840, Note_on_c, 6, 72, 58
8, 4032, Note_on_c, 6, 72, 0
8, 4080, Note_on_c, 6, 72, 58
8, 4272, Note_on_c, 6, 72, 0
8, 4320, Note_on_c, 6, 72, 58
8, 4512, Note_on_c, 6, 72, 0
8, 4560, Note_on_c, 6, 72, 58
8, 4752, Note_on_c, 6, 72, 0
8, 4800, Note_on_c, 6, 71, 58
8, 4992, Note_on_c, 6, 71, 0
8, 5040, Note_on_c, 6, 71, 58
8, 5232, Note_on_c, 6, 71, 0
8, 5280, Note_on_c, 6, 71, 58
8, 5472, Note_on_c, 6, 71, 0
8, 5520, Note_on_c, 6, 71, 58
8, 5712, Note_on_c, 6, 71, 0
8, 5760, Note_on_c, 6, 69, 58
8, 5952, Note_on_c, 6, 69, 0
8, 6000, Note_on_c, 6, 69, 58
8, 6192, Note_on_c, 6, 69, 0
8, 6240, Note_on_c, 6, 69, 58
8, 6432, Note_on_c, 6, 69, 0
8, 6480, Note_on_c, 6, 69, 58
8, 6672, Note_on_c, 6, 69, 0
8, 6720, Note_on_c, 6, 67, 58
8, 6912, Note_on_c, 6, 67, 0
8, 6960, Note_on_c, 6, 67, 58
8, 7152, Note_on_c, 6, 67, 0
8, 7200, Note_on_c, 6, 67, 58
8, 7392, Note_on_c, 6, 67, 0
8, 7440, Note_on_c, 6, 67, 58
8, 7632, Note_on_c, 6, 67, 0
8, 7680, Note_on_c, 6, 66, 58
8, 7872, Note_on_c, 6, 66, 0
8, 7920, Note_on_c, 6, 71, 58
8, 8112, Note_on_c, 6, 71, 0
8, 8160, Note_on_c, 6, 69, 58
8, 8352, Note_on_c, 6, 69, 0
8, 8400, Note_on_c, 6, 67, 58
8, 8592, Note_on_c, 6, 67, 0
8, 8640, Note_on_c, 6, 66, 58
8, 8832, Note_on_c, 6, 66, 0
8, 8880, Note_on_c, 6, 64, 58
8, 9072, Note_on_c, 6, 64, 0
8, 9120, Note_on_c, 6, 62, 58
8, 9312, Note_on_c, 6, 62, 0
8, 9360, Note_on_c, 6, 60, 58
8, 9552, Note_on_c, 6, 60, 0
8, 9600, Note_on_c, 6, 59, 58
8, 9792, Note_on_c, 6, 59, 0
8, 9840, Note_on_c, 6, 59, 58
8, 10032, Note_on_c, 6, 59, 0
8, 10080, Note_on_c, 6, 62, 58
8, 10272, Note_on_c, 6, 62, 0
8, 10320, Note_on_c, 6, 62, 58
8, 10512, Note_on_c, 6, 62, 0
8, 10560, Note_on_c, 6, 67, 58
8, 10752, Note_on_c, 6, 67, 0
8, 10800, Note_on_c, 6, 67, 58
8, 10992, Note_on_c, 6, 67, 0
8, 11040, Note_on_c, 6, 71, 58
8, 11232, Note_on_c, 6, 71, 0
8, 11280, Note_on_c, 6, 71, 58
8, 11472, Note_on_c, 6, 71, 0
8, 11520, Note_on_c, 6, 72, 58
8, 11712, Note_on_c, 6, 72, 0
8, 11760, Note_on_c, 6, 72, 58
8, 11952, Note_on_c, 6, 72, 0
8, 12000, Note_on_c, 6, 72, 58
8, 12192, Note_on_c, 6, 72, 0
8, 12240, Note_on_c, 6, 72, 58
8, 12432, Note_on_c, 6, 72, 0
8, 12480, Note_on_c, 6, 71, 58
8, 12672, Note_on_c, 6, 71, 0
8, 12720, Note_on_c, 6, 71, 58
8, 12912, Note_on_c, 6, 71, 0
8, 12960, Note_on_c, 6, 71, 58
8, 13152, Note_on_c, 6, 71, 0
8, 13200, Note_on_c, 6, 71, 58
8, 13392, Note_on_c, 6, 71, 0
8, 13440, Note_on_c, 6, 76, 58
8, 13632, Note_on_c, 6, 76, 0
8, 13680, Note_on_c, 6, 76, 58
8, 13872, Note_on_c, 6, 76, 0
8, 13920, Note_on_c, 6, 76, 58
8, 14112, Note_on_c, 6, 76, 0
8, 14160, Note_on_c, 6, 76, 58
8, 14352, Note_on_c, 6, 76, 0
8, 14400, Note_on_c, 6, 72, 58
8, 14592, Note_on_c, 6, 72, 0
8, 14640, Note_on_c, 6, 72, 58
8, 14832, Note_on_c, 6, 72, 0
8, 14880, Note_on_c, 6, 72, 58
8, 15072, Note_on_c, 6, 72, 0
8, 15120, Note_on_c, 6, 72, 58
8, 15312, Note_on_c, 6, 72, 0
8, 15360, Note_on_c, 6, 71, 58
8, 15552, Note_on_c, 6, 71, 0
8, 15600, Note_on_c, 6, 71, 58
8, 15792, Note_on_c, 6, 71, 0
8, 15840, Note_on_c, 6, 69, 58
8, 16032, Note_on_c, 6, 69, 0
8, 16080, Note_on_c, 6, 67, 58
8, 16272, Note_on_c, 6, 67, 0
8, 16320, Note_on_c, 6, 66, 58
8, 16512, Note_on_c, 6, 66, 0
8, 16560, Note_on_c, 6, 64, 58
8, 16752, Note_on_c, 6, 64, 0
8, 16800, Note_on_c, 6, 62, 58
8, 16992, Note_on_c, 6, 62, 0
8, 17040, Note_on_c, 6, 60, 58
8, 17232, Note_on_c, 6, 60, 0
8, 17280, Note_on_c, 6, 59, 58
8, 17472, Note_on_c, 6, 59, 0
8, 17520, Note_on_c, 6, 59, 58
8, 17712, Note_on_c, 6, 59, 0
8, 17760, Note_on_c, 6, 62, 58
8, 17952, Note_on_c, 6, 62, 0
8, 18000, Note_on_c, 6, 62, 58
8, 18192, Note_on_c, 6, 62, 0
8, 18240, Note_on_c, 6, 67, 58
8, 18432, Note_on_c, 6, 67, 0
8, 18480, Note_on_c, 6, 67, 58
8, 18672, Note_on_c, 6, 67, 0
8, 18720, Note_on_c, 6, 71, 58
8, 18912, Note_on_c, 6, 71, 0
8, 18960, Note_on_c, 6, 71, 58
8, 19152, Note_on_c, 6, 71, 0
8, 19200, Note_on_c, 6, 72, 58
8, 19392, Note_on_c, 6, 72, 0
8, 19440, Note_on_c, 6, 72, 58
8, 19632, Note_on_c, 6, 72, 0
8, 19680, Note_on_c, 6, 72, 58
8, 19872, Note_on_c, 6, 72, 0
8, 19920, Note_on_c, 6, 72, 58
8, 20112, Note_on_c, 6, 72, 0
8, 20160, Note_on_c, 6, 71, 58
8, 20352, Note_on_c, 6, 71, 0
8, 20400, Note_on_c, 6, 71, 58
8, 20592, Note_on_c, 6, 71, 0
8, 20640, Note_on_c, 6, 71, 58
8, 20832, Note_on_c, 6, 71, 0
8, 20880, Note_on_c, 6, 71, 58
8, 21072, Note_on_c, 6, 71, 0
8, 21120, Note_on_c, 6, 69, 58
8, 21312, Note_on_c, 6, 69, 0
8, 21360, Note_on_c, 6, 69, 58
8, 21552, Note_on_c, 6, 69, 0
8, 21600, Note_on_c, 6, 69, 58
8, 21792, Note_on_c, 6, 69, 0
8, 21840, Note_on_c, 6, 69, 58
8, 22032, Note_on_c, 6, 69, 0
8, 22080, Note_on_c, 6, 67, 58
8, 22272, Note_on_c, 6, 67, 0
8, 22320, Note_on_c, 6, 67, 58
8, 22512, Note_on_c, 6, 67, 0
8, 22560, Note_on_c, 6, 67, 58
8, 22752, Note_on_c, 6, 67, 0
8, 22800, Note_on_c, 6, 67, 58
8, 22992, Note_on_c, 6, 67, 0
8, 23040, Note_on_c, 6, 66, 58
8, 23232, Note_on_c, 6, 66, 0
8, 23280, Note_on_c, 6, 71, 58
8, 23472, Note_on_c, 6, 71, 0
8, 23520, Note_on_c, 6, 69, 58
8, 23712, Note_on_c, 6, 69, 0
8, 23760, Note_on_c, 6, 67, 58
8, 23952, Note_on_c, 6, 67, 0
8, 24000, Note_on_c, 6, 66, 58
8, 24192, Note_on_c, 6, 66, 0
8, 24240, Note_on_c, 6, 64, 58
8, 24432, Note_on_c, 6, 64, 0
8, 24480, Note_on_c, 6, 62, 58
8, 24672, Note_on_c, 6, 62, 0
8, 24720, Note_on_c, 6, 60, 58
8, 24912, Note_on_c, 6, 60, 0
8, 24960, Note_on_c, 6, 59, 58
8, 25152, Note_on_c, 6, 59, 0
8, 25200, Note_on_c, 6, 59, 58
8, 25392, Note_on_c, 6, 59, 0
8, 25440, Note_on_c, 6, 62, 58
8, 25632, Note_on_c, 6, 62, 0
8, 25680, Note_on_c, 6, 62, 58
8, 25872, Note_on_c, 6, 62, 0
8, 25920, Note_on_c, 6, 67, 58
8, 26112, Note_on_c, 6, 67, 0
8, 26160, Note_on_c, 6, 67, 58
8, 26352, Note_on_c, 6, 67, 0
8, 26400, Note_on_c, 6, 71, 58
8, 26592, Note_on_c, 6, 71, 0
8, 26640, Note_on_c, 6, 71, 58
8, 26832, Note_on_c, 6, 71, 0
8, 26880, Note_on_c, 6, 72, 58
8, 27072, Note_on_c, 6, 72, 0
8, 27120, Note_on_c, 6, 72, 58
8, 27312, Note_on_c, 6, 72, 0
8, 27360, Note_on_c, 6, 72, 58
8, 27552, Note_on_c, 6, 72, 0
8, 27600, Note_on_c, 6, 72, 58
8, 27792, Note_on_c, 6, 72, 0
8, 27840, Note_on_c, 6, 71, 58
8, 28032, Note_on_c, 6, 71, 0
8, 28080, Note_on_c, 6, 71, 58
8, 28272, Note_on_c, 6, 71, 0
8, 28320, Note_on_c, 6, 71, 58
8, 28512, Note_on_c, 6, 71, 0
8, 28560, Note_on_c, 6, 71, 58
8, 28752, Note_on_c, 6, 71, 0
8, 28800, Note_on_c, 6, 76, 58
8, 28992, Note_on_c, 6, 76, 0
8, 29040, Note_on_c, 6, 76, 58
8, 29232, Note_on_c, 6, 76, 0
8, 29280, Note_on_c, 6, 76, 58
8, 29472, Note_on_c, 6, 76, 0
8, 29520, Note_on_c, 6, 76, 58
8, 29712, Note_on_c, 6, 76, 0
8, 29760, Note_on_c, 6, 72, 58
8, 29952, Note_on_c, 6, 72, 0
8, 30000, Note_on_c, 6, 72, 58
8, 30192, Note_on_c, 6, 72, 0
8, 30240, Note_on_c, 6, 72, 58
8, 30432, Note_on_c, 6, 72, 0
8, 30480, Note_on_c, 6, 72, 58
8, 30672, Note_on_c, 6, 72, 0
8, 30720, Note_on_c, 6, 71, 78
8, 31104, Note_on_c, 6, 71, 0
8, 32640, Note_on_c, 6, 79, 105
8, 33792, Note_on_c, 6, 79, 0
8, 33840, Note_on_c, 6, 81, 105
8, 34032, Note_on_c, 6, 81, 0
8, 34080, Note_on_c, 6, 78, 105
8, 34272, Note_on_c, 6, 78, 0
8, 34320, Note_on_c, 6, 74, 105
8, 34512, Note_on_c, 6, 74, 0
8, 34560, Note_on_c, 6, 83, 105
8, 35712, Note_on_c, 6, 83, 0
8, 35760, Note_on_c, 6, 84, 105
8, 35952, Note_on_c, 6, 84, 0
8, 36000, Note_on_c, 6, 81, 105
8, 36192, Note_on_c, 6, 81, 0
8, 36240, Note_on_c, 6, 78, 105
8, 36432, Note_on_c, 6, 78, 0
8, 36480, Note_on_c, 6, 79, 105
8, 37632, Note_on_c, 6, 79, 0
8, 37680, Note_on_c, 6, 81, 105
8, 37872, Note_on_c, 6, 81, 0
8, 37920, Note_on_c, 6, 78, 105
8, 38112, Note_on_c, 6, 78, 0
8, 38160, Note_on_c, 6, 74, 105
8, 38352, Note_on_c, 6, 74, 0
8, 38400, Note_on_c, 6, 83, 105
8, 38688, Note_on_c, 6, 83, 0
8, 38880, Note_on_c, 6, 83, 92
8, 39024, Note_on_c, 6, 83, 0
8, 39120, Note_on_c, 6, 83, 92
8, 39264, Note_on_c, 6, 83, 0
8, 39360, Note_on_c, 6, 83, 92
8, 39600, Note_on_c, 6, 83, 0
8, 39600, Note_on_c, 6, 79, 92
8, 39792, Note_on_c, 6, 79, 0
8, 39840, Note_on_c, 6, 79, 92
8, 40032, Note_on_c, 6, 79, 0
8, 40080, Note_on_c, 6, 79, 92
8, 40272, Note_on_c, 6, 79, 0
8, 40320, Note_on_c, 6, 79, 92
8, 40560, Note_on_c, 6, 79, 0
8, 40560, Note_on_c, 6, 74, 92
8, 40752, Note_on_c, 6, 74, 0
8, 40800, Note_on_c, 6, 74, 92
8, 40992, Note_on_c, 6, 74, 0
8, 41040, Note_on_c, 6, 74, 92
8, 41232, Note_on_c, 6, 74, 0
8, 41280, Note_on_c, 6, 74, 92
8, 41520, Note_on_c, 6, 74, 0
8, 41520, Note_on_c, 6, 71, 92
8, 41712, Note_on_c, 6, 71, 0
8, 41760, Note_on_c, 6, 71, 92
8, 42000, Note_on_c, 6, 71, 0
8, 42000, Note_on_c, 6, 67, 92
8, 42192, Note_on_c, 6, 67, 0
8, 42240, Note_on_c, 6, 74, 92
8, 42528, Note_on_c, 6, 74, 0
8, 42720, Note_on_c, 6, 62, 92
8, 42720, Note_on_c, 6, 78, 92
8, 42720, Note_on_c, 6, 69, 92
8, 43008, Note_on_c, 6, 69, 0
8, 43008, Note_on_c, 6, 78, 0
8, 43008, Note_on_c, 6, 62, 0
8, 43200, Note_on_c, 6, 62, 92
8, 43200, Note_on_c, 6, 79, 92
8, 43200, Note_on_c, 6, 71, 92
8, 43488, Note_on_c, 6, 71, 0
8, 43488, Note_on_c, 6, 79, 0
8, 43488, Note_on_c, 6, 62, 0
8, 43680, Note_on_c, 6, 79, 92
8, 43680, Note_on_c, 6, 71, 92
8, 43680, Note_on_c, 6, 62, 92
8, 43968, Note_on_c, 6, 62, 0
8, 43968, Note_on_c, 6, 71, 0
8, 43968, Note_on_c, 6, 79, 0
8, 44160, Note_on_c, 6, 78, 92
8, 44160, Note_on_c, 6, 62, 92
8, 44160, Note_on_c, 6, 69, 92
8, 44448, Note_on_c, 6, 69, 0
8, 44448, Note_on_c, 6, 62, 0
8, 44448, Note_on_c, 6, 78, 0
8, 44640, Note_on_c, 6, 62, 92
8, 45024, Note_on_c, 6, 62, 0
8, 45120, Note_on_c, 6, 62, 92
8, 45504, Note_on_c, 6, 62, 0
8, 46560, Note_on_c, 6, 66, 98
8, 47040, Note_on_c, 6, 66, 0
8, 47040, Note_on_c, 6, 67, 58
8, 47232, Note_on_c, 6, 67, 0
8, 47520, Note_on_c, 6, 69, 58
8, 47712, Note_on_c, 6, 69, 0
8, 48000, Note_on_c, 6, 71, 58
8, 48192, Note_on_c, 6, 71, 0
8, 48480, Note_on_c, 6, 73, 58
8, 48672, Note_on_c, 6, 73, 0
8, 48960, Note_on_c, 6, 74, 58
8, 49152, Note_on_c, 6, 74, 0
8, 49440, Note_on_c, 6, 76, 58
8, 49632, Note_on_c, 6, 76, 0
8, 49920, Note_on_c, 6, 74, 58
8, 50160, Note_on_c, 6, 74, 0
8, 50160, Note_on_c, 6, 76, 58
8, 50400, Note_on_c, 6, 76, 0
8, 50400, Note_on_c, 6, 77, 58
8, 50640, Note_on_c, 6, 77, 0
8, 50640, Note_on_c, 6, 78, 58
8, 50880, Note_on_c, 6, 78, 0
8, 50880, Note_on_c, 6, 73, 58
8, 51120, Note_on_c, 6, 73, 0
8, 51120, Note_on_c, 6, 74, 58
8, 51360, Note_on_c, 6, 74, 0
8, 51360, Note_on_c, 6, 71, 58
8, 51600, Note_on_c, 6, 71, 0
8, 51600, Note_on_c, 6, 67, 58
8, 51792, Note_on_c, 6, 67, 0
8, 51840, Note_on_c, 6, 66, 58
8, 52800, Note_on_c, 6, 66, 0
8, 52800, Note_on_c, 6, 64, 58
8, 53184, Note_on_c, 6, 64, 0
8, 53760, Note_on_c, 6, 69, 78
8, 54720, Note_on_c, 6, 69, 0
8, 54720, Note_on_c, 6, 61, 58
8, 54912, Note_on_c, 6, 61, 0
8, 55200, Note_on_c, 6, 62, 58
8, 55392, Note_on_c, 6, 62, 0
8, 55680, Note_on_c, 6, 64, 58
8, 55872, Note_on_c, 6, 64, 0
8, 56160, Note_on_c, 6, 66, 58
8, 56352, Note_on_c, 6, 66, 0
8, 56640, Note_on_c, 6, 67, 58
8, 56832, Note_on_c, 6, 67, 0
8, 57600, Note_on_c, 6, 66, 58
8, 58080, Note_on_c, 6, 66, 0
8, 58080, Note_on_c, 6, 78, 58
8, 59040, Note_on_c, 6, 78, 0
8, 59040, Note_on_c, 6, 71, 58
8, 59424, Note_on_c, 6, 71, 0
8, 59520, Note_on_c, 6, 74, 58
8, 60480, Note_on_c, 6, 74, 0
8, 60480, Note_on_c, 6, 73, 58
8, 60864, Note_on_c, 6, 73, 0
8, 63360, Note_on_c, 6, 71, 72
8, 63600, Note_on_c, 6, 71, 0
8, 63600, Note_on_c, 6, 69, 72
8, 63780, Note_on_c, 6, 69, 0
8, 63840, Note_on_c, 6, 67, 72
8, 64020, Note_on_c, 6, 67, 0
8, 64080, Note_on_c, 6, 66, 72
8, 64260, Note_on_c, 6, 66, 0
8, 64320, Note_on_c, 6, 64, 72
8, 64680, Note_on_c, 6, 64, 0
8, 64800, Note_on_c, 6, 64, 72
8, 65160, Note_on_c, 6, 64, 0
8, 65280, Note_on_c, 6, 67, 72
8, 65520, Note_on_c, 6, 67, 0
8, 65520, Note_on_c, 6, 66, 72
8, 65700, Note_on_c, 6, 66, 0
8, 65760, Note_on_c, 6, 64, 72
8, 65940, Note_on_c, 6, 64, 0
8, 66000, Note_on_c, 6, 62, 72
8, 66180, Note_on_c, 6, 62, 0
8, 66240, Note_on_c, 6, 61, 72
8, 66600, Note_on_c, 6, 61, 0
8, 67200, Note_on_c, 6, 71, 72
8, 67440, Note_on_c, 6, 71, 0
8, 67440, Note_on_c, 6, 69, 72
8, 67620, Note_on_c, 6, 69, 0
8, 67680, Note_on_c, 6, 67, 72
8, 67860, Note_on_c, 6, 67, 0
8, 67920, Note_on_c, 6, 66, 72
8, 68100, Note_on_c, 6, 66, 0
8, 68160, Note_on_c, 6, 64, 72
8, 68520, Note_on_c, 6, 64, 0
8, 69120, Note_on_c, 6, 61, 72
8, 69360, Note_on_c, 6, 61, 0
8, 69360, Note_on_c, 6, 62, 72
8, 69552, Note_on_c, 6, 62, 0
8, 69600, Note_on_c, 6, 64, 72
8, 69792, Note_on_c, 6, 64, 0
8, 69840, Note_on_c, 6, 65, 72
8, 70032, Note_on_c, 6, 65, 0
8, 70080, Note_on_c, 6, 67, 72
8, 70464, Note_on_c, 6, 67, 0
8, 71040, Note_on_c, 6, 61, 72
8, 71280, Note_on_c, 6, 61, 0
8, 71280, Note_on_c, 6, 62, 72
8, 71472, Note_on_c, 6, 62, 0
8, 71520, Note_on_c, 6, 64, 72
8, 71712, Note_on_c, 6, 64, 0
8, 71760, Note_on_c, 6, 65, 72
8, 71952, Note_on_c, 6, 65, 0
8, 72000, Note_on_c, 6, 67, 72
8, 72384, Note_on_c, 6, 67, 0
8, 72960, Note_on_c, 6, 76, 58
8, 73200, Note_on_c, 6, 76, 0
8, 73200, Note_on_c, 6, 73, 58
8, 73440, Note_on_c, 6, 73, 0
8, 73440, Note_on_c, 6, 76, 58
8, 73680, Note_on_c, 6, 76, 0
8, 73680, Note_on_c, 6, 73, 58
8, 73920, Note_on_c, 6, 73, 0
8, 73920, Note_on_c, 6, 76, 58
8, 74160, Note_on_c, 6, 76, 0
8, 74160, Note_on_c, 6, 73, 58
8, 74400, Note_on_c, 6, 73, 0
8, 74400, Note_on_c, 6, 76, 58
8, 74640, Note_on_c, 6, 76, 0
8, 74640, Note_on_c, 6, 73, 58
8, 74880, Note_on_c, 6, 73, 0
8, 74880, Note_on_c, 6, 76, 58
8, 75264, Note_on_c, 6, 76, 0
8, 76800, Note_on_c, 6, 66, 58
8, 76992, Note_on_c, 6, 66, 0
8, 77040, Note_on_c, 6, 66, 58
8, 77232, Note_on_c, 6, 66, 0
8, 77280, Note_on_c, 6, 57, 58
8, 77472, Note_on_c, 6, 57, 0
8, 77520, Note_on_c, 6, 57, 58
8, 77712, Note_on_c, 6, 57, 0
8, 77760, Note_on_c, 6, 62, 58
8, 77952, Note_on_c, 6, 62, 0
8, 78000, Note_on_c, 6, 62, 58
8, 78192, Note_on_c, 6, 62, 0
8, 78240, Note_on_c, 6, 66, 58
8, 78432, Note_on_c, 6, 66, 0
8, 78480, Note_on_c, 6, 66, 58
8, 78672, Note_on_c, 6, 66, 0
8, 78720, Note_on_c, 6, 67, 58
8, 78912, Note_on_c, 6, 67, 0
8, 78960, Note_on_c, 6, 67, 58
8, 79152, Note_on_c, 6, 67, 0
8, 79200, Note_on_c, 6, 67, 58
8, 79392, Note_on_c, 6, 67, 0
8, 79440, Note_on_c, 6, 67, 58
8, 79632, Note_on_c, 6, 67, 0
8, 79680, Note_on_c, 6, 66, 58
8, 79872, Note_on_c, 6, 66, 0
8, 79920, Note_on_c, 6, 66, 58
8, 80112, Note_on_c, 6, 66, 0
8, 80160, Note_on_c, 6, 66, 58
8, 80352, Note_on_c, 6, 66, 0
8, 80400, Note_on_c, 6, 66, 58
8, 80592, Note_on_c, 6, 66, 0
8, 80640, Note_on_c, 6, 69, 58
8, 80832, Note_on_c, 6, 69, 0
8, 80880, Note_on_c, 6, 69, 58
8, 81072, Note_on_c, 6, 69, 0
8, 81120, Note_on_c, 6, 69, 58
8, 81312, Note_on_c, 6, 69, 0
8, 81360, Note_on_c, 6, 69, 58
8, 81552, Note_on_c, 6, 69, 0
8, 81600, Note_on_c, 6, 69, 58
8, 81792, Note_on_c, 6, 69, 0
8, 81840, Note_on_c, 6, 69, 58
8, 82032, Note_on_c, 6, 69, 0
8, 82080, Note_on_c, 6, 69, 58
8, 82272, Note_on_c, 6, 69, 0
8, 82320, Note_on_c, 6, 69, 58
8, 82512, Note_on_c, 6, 69, 0
8, 82560, Note_on_c, 6, 69, 58
8, 82716, Note_on_c, 6, 69, 0
8, 82800, Note_on_c, 6, 74, 58
8, 82956, Note_on_c, 6, 74, 0
8, 83040, Note_on_c, 6, 73, 58
8, 83196, Note_on_c, 6, 73, 0
8, 83280, Note_on_c, 6, 71, 58
8, 83436, Note_on_c, 6, 71, 0
8, 83520, Note_on_c, 6, 69, 58
8, 83676, Note_on_c, 6, 69, 0
8, 83760, Note_on_c, 6, 67, 58
8, 83916, Note_on_c, 6, 67, 0
8, 84000, Note_on_c, 6, 66, 58
8, 84156, Note_on_c, 6, 66, 0
8, 84240, Note_on_c, 6, 64, 58
8, 84396, Note_on_c, 6, 64, 0
8, 84480, Note_on_c, 6, 66, 58
8, 84672, Note_on_c, 6, 66, 0
8, 84720, Note_on_c, 6, 66, 58
8, 84912, Note_on_c, 6, 66, 0
8, 84960, Note_on_c, 6, 57, 58
8, 85152, Note_on_c, 6, 57, 0
8, 85200, Note_on_c, 6, 57, 58
8, 85392, Note_on_c, 6, 57, 0
8, 85440, Note_on_c, 6, 62, 58
8, 85632, Note_on_c, 6, 62, 0
8, 85680, Note_on_c, 6, 62, 58
8, 85872, Note_on_c, 6, 62, 0
8, 85920, Note_on_c, 6, 66, 58
8, 86112, Note_on_c, 6, 66, 0
8, 86160, Note_on_c, 6, 66, 58
8, 86352, Note_on_c, 6, 66, 0
8, 86400, Note_on_c, 6, 67, 58
8, 86592, Note_on_c, 6, 67, 0
8, 86640, Note_on_c, 6, 67, 58
8, 86832, Note_on_c, 6, 67, 0
8, 86880, Note_on_c, 6, 67, 58
8, 87072, Note_on_c, 6, 67, 0
8, 87120, Note_on_c, 6, 67, 58
8, 87312, Note_on_c, 6, 67, 0
8, 87360, Note_on_c, 6, 66, 58
8, 87552, Note_on_c, 6, 66, 0
8, 87600, Note_on_c, 6, 66, 58
8, 87792, Note_on_c, 6, 66, 0
8, 87840, Note_on_c, 6, 66, 58
8, 88032, Note_on_c, 6, 66, 0
8, 88080, Note_on_c, 6, 66, 58
8, 88272, Note_on_c, 6, 66, 0
8, 88320, Note_on_c, 6, 71, 58
8, 88512, Note_on_c, 6, 71, 0
8, 88560, Note_on_c, 6, 71, 58
8, 88752, Note_on_c, 6, 71, 0
8, 88800, Note_on_c, 6, 71, 58
8, 88992, Note_on_c, 6, 71, 0
8, 89040, Note_on_c, 6, 71, 58
8, 89232, Note_on_c, 6, 71, 0
8, 89280, Note_on_c, 6, 72, 58
8, 89472, Note_on_c, 6, 72, 0
8, 89520, Note_on_c, 6, 72, 58
8, 89712, Note_on_c, 6, 72, 0
8, 89760, Note_on_c, 6, 72, 58
8, 89952, Note_on_c, 6, 72, 0
8, 90000, Note_on_c, 6, 72, 58
8, 90192, Note_on_c, 6, 72, 0
8, 90240, Note_on_c, 6, 66, 58
8, 91200, Note_on_c, 6, 66, 0
8, 91200, Note_on_c, 6, 67, 58
8, 91584, Note_on_c, 6, 67, 0
8, 92160, Note_on_c, 6, 67, 58
8, 92352, Note_on_c, 6, 67, 0
8, 92400, Note_on_c, 6, 67, 58
8, 92592, Note_on_c, 6, 67, 0
8, 92640, Note_on_c, 6, 66, 58
8, 92832, Note_on_c, 6, 66, 0
8, 92880, Note_on_c, 6, 66, 58
8, 93072, Note_on_c, 6, 66, 0
8, 93120, Note_on_c, 6, 67, 58
8, 93312, Note_on_c, 6, 67, 0
8, 93360, Note_on_c, 6, 67, 58
8, 93552, Note_on_c, 6, 67, 0
8, 93600, Note_on_c, 6, 66, 58
8, 93792, Note_on_c, 6, 66, 0
8, 93840, Note_on_c, 6, 66, 58
8, 94032, Note_on_c, 6, 66, 0
8, 94080, Note_on_c, 6, 67, 58
8, 94272, Note_on_c, 6, 67, 0
8, 94320, Note_on_c, 6, 67, 58
8, 94512, Note_on_c, 6, 67, 0
8, 94560, Note_on_c, 6, 67, 58
8, 94752, Note_on_c, 6, 67, 0
8, 94800, Note_on_c, 6, 67, 58
8, 94992, Note_on_c, 6, 67, 0
8, 95040, Note_on_c, 6, 66, 58
8, 95232, Note_on_c, 6, 66, 0
8, 95280, Note_on_c, 6, 66, 58
8, 95472, Note_on_c, 6, 66, 0
8, 95520, Note_on_c, 6, 66, 58
8, 95712, Note_on_c, 6, 66, 0
8, 95760, Note_on_c, 6, 66, 58
8, 95952, Note_on_c, 6, 66, 0
8, 96000, Note_on_c, 6, 64, 58
8, 96192, Note_on_c, 6, 64, 0
8, 96240, Note_on_c, 6, 64, 58
8, 96432, Note_on_c, 6, 64, 0
8, 96480, Note_on_c, 6, 64, 58
8, 96672, Note_on_c, 6, 64, 0
8, 96720, Note_on_c, 6, 64, 58
8, 96912, Note_on_c, 6, 64, 0
8, 96960, Note_on_c, 6, 61, 58
8, 97152, Note_on_c, 6, 61, 0
8, 97200, Note_on_c, 6, 61, 58
8, 97392, Note_on_c, 6, 61, 0
8, 97440, Note_on_c, 6, 61, 58
8, 97632, Note_on_c, 6, 61, 0
8, 97680, Note_on_c, 6, 61, 58
8, 97872, Note_on_c, 6, 61, 0
8, 97920, Note_on_c, 6, 62, 58
8, 98160, Note_on_c, 6, 62, 0
8, 98160, Note_on_c, 6, 66, 58
8, 98400, Note_on_c, 6, 66, 0
8, 98400, Note_on_c, 6, 69, 58
8, 98640, Note_on_c, 6, 69, 0
8, 98640, Note_on_c, 6, 74, 58
8, 98832, Note_on_c, 6, 74, 0
8, 98880, Note_on_c, 6, 73, 58
8, 99840, Note_on_c, 6, 73, 0
8, 99840, Note_on_c, 6, 74, 58
8, 100080, Note_on_c, 6, 74, 0
8, 100080, Note_on_c, 6, 62, 58
8, 100320, Note_on_c, 6, 62, 0
8, 100320, Note_on_c, 6, 66, 58
8, 100560, Note_on_c, 6, 66, 0
8, 100560, Note_on_c, 6, 69, 58
8, 100752, Note_on_c, 6, 69, 0
8, 100800, Note_on_c, 6, 71, 58
8, 101760, Note_on_c, 6, 71, 0
8, 101760, Note_on_c, 6, 69, 58
8, 102000, Note_on_c, 6, 69, 0
8, 102000, Note_on_c, 6, 57, 58
8, 102240, Note_on_c, 6, 57, 0
8, 102240, Note_on_c, 6, 62, 58
8, 102480, Note_on_c, 6, 62, 0
8, 102480, Note_on_c, 6, 66, 58
8, 102672, Note_on_c, 6, 66, 0
8, 102720, Note_on_c, 6, 67, 58
8, 103488, Note_on_c, 6, 67, 0
8, 103680, Note_on_c, 6, 69, 125
8, 103920, Note_on_c, 6, 69, 0
8, 103920, Note_on_c, 6, 71, 105
8, 104076, Note_on_c, 6, 71, 0
8, 104160, Note_on_c, 6, 73, 105
8, 104316, Note_on_c, 6, 73, 0
8, 104400, Note_on_c, 6, 74, 105
8, 104556, Note_on_c, 6, 74, 0
8, 104640, Note_on_c, 6, 73, 105
8, 104880, Note_on_c, 6, 73, 0
8, 104880, Note_on_c, 6, 71, 105
8, 105036, Note_on_c, 6, 71, 0
8, 105120, Note_on_c, 6, 69, 105
8, 105276, Note_on_c, 6, 69, 0
8, 105360, Note_on_c, 6, 67, 105
8, 105516, Note_on_c, 6, 67, 0
8, 105600, Note_on_c, 6, 66, 105
8, 105840, Note_on_c, 6, 66, 0
8, 105840, Note_on_c, 6, 67, 105
8, 105996, Note_on_c, 6, 67, 0
8, 106080, Note_on_c, 6, 69, 105
8, 106236, Note_on_c, 6, 69, 0
8, 106320, Note_on_c, 6, 71, 105
8, 106476, Note_on_c, 6, 71, 0
8, 106560, Note_on_c, 6, 69, 105
8, 106800, Note_on_c, 6, 69, 0
8, 106800, Note_on_c, 6, 67, 105
8, 106956, Note_on_c, 6, 67, 0
8, 107040, Note_on_c, 6, 66, 105
8, 107196, Note_on_c, 6, 66, 0
8, 107280, Note_on_c, 6, 64, 105
8, 107436, Note_on_c, 6, 64, 0
8, 107520, Note_on_c, 6, 64, 105
8, 107760, Note_on_c, 6, 64, 0
8, 107760, Note_on_c, 6, 62, 105
8, 107916, Note_on_c, 6, 62, 0
8, 108000, Note_on_c, 6, 62, 105
8, 108156, Note_on_c, 6, 62, 0
8, 108240, Note_on_c, 6, 62, 105
8, 108396, Note_on_c, 6, 62, 0
8, 108480, Note_on_c, 6, 62, 105
8, 108720, Note_on_c, 6, 62, 0
8, 108720, Note_on_c, 6, 66, 105
8, 108876, Note_on_c, 6, 66, 0
8, 108960, Note_on_c, 6, 64, 105
8, 109116, Note_on_c, 6, 64, 0
8, 109200, Note_on_c, 6, 61, 105
8, 109356, Note_on_c, 6, 61, 0
8, 109440, Note_on_c, 6, 62, 105
8, 109596, Note_on_c, 6, 62, 0
8, 109680, Note_on_c, 6, 57, 58
8, 109836, Note_on_c, 6, 57, 0
8, 109920, Note_on_c, 6, 57, 58
8, 110076, Note_on_c, 6, 57, 0
8, 110160, Note_on_c, 6, 57, 58
8, 110316, Note_on_c, 6, 57, 0
8, 110400, Note_on_c, 6, 57, 58
8, 110556, Note_on_c, 6, 57, 0
8, 110640, Note_on_c, 6, 57, 58
8, 110796, Note_on_c, 6, 57, 0
8, 110880, Note_on_c, 6, 57, 58
8, 111036, Note_on_c, 6, 57, 0
8, 111120, Note_on_c, 6, 57, 58
8, 111276, Note_on_c, 6, 57, 0
8, 111360, Note_on_c, 6, 57, 58
8, 111516, Note_on_c, 6, 57, 0
8, 111600, Note_on_c, 6, 57, 58
8, 111756, Note_on_c, 6, 57, 0
8, 111840, Note_on_c, 6, 62, 58
8, 111996, Note_on_c, 6, 62, 0
8, 112080, Note_on_c, 6, 62, 58
8, 112236, Note_on_c, 6, 62, 0
8, 112320, Note_on_c, 6, 61, 58
8, 112476, Note_on_c, 6, 61, 0
8, 112560, Note_on_c, 6, 61, 58
8, 112716, Note_on_c, 6, 61, 0
8, 112800, Note_on_c, 6, 60, 58
8, 112956, Note_on_c, 6, 60, 0
8, 113040, Note_on_c, 6, 60, 58
8, 113196, Note_on_c, 6, 60, 0
8, 113280, Note_on_c, 6, 59, 58
8, 113436, Note_on_c, 6, 59, 0
8, 113520, Note_on_c, 6, 59, 58
8, 113676, Note_on_c, 6, 59, 0
8, 113760, Note_on_c, 6, 59, 58
8, 113916, Note_on_c, 6, 59, 0
8, 114000, Note_on_c, 6, 59, 58
8, 114156, Note_on_c, 6, 59, 0
8, 114240, Note_on_c, 6, 59, 58
8, 114396, Note_on_c, 6, 59, 0
8, 114480, Note_on_c, 6, 59, 58
8, 114636, Note_on_c, 6, 59, 0
8, 114720, Note_on_c, 6, 59, 58
8, 114876, Note_on_c, 6, 59, 0
8, 114960, Note_on_c, 6, 59, 58
8, 115116, Note_on_c, 6, 59, 0
8, 115200, Note_on_c, 6, 59, 58
8, 115356, Note_on_c, 6, 59, 0
8, 115440, Note_on_c, 6, 59, 58
8, 115596, Note_on_c, 6, 59, 0
8, 115680, Note_on_c, 6, 71, 58
8, 115836, Note_on_c, 6, 71, 0
8, 115920, Note_on_c, 6, 71, 58
8, 116076, Note_on_c, 6, 71, 0
8, 116160, Note_on_c, 6, 69, 58
8, 116316, Note_on_c, 6, 69, 0
8, 116400, Note_on_c, 6, 69, 58
8, 116556, Note_on_c, 6, 69, 0
8, 116640, Note_on_c, 6, 67, 58
8, 116796, Note_on_c, 6, 67, 0
8, 116880, Note_on_c, 6, 67, 58
8, 117036, Note_on_c, 6, 67, 0
8, 117120, Note_on_c, 6, 66, 58
8, 117276, Note_on_c, 6, 66, 0
8, 117360, Note_on_c, 6, 66, 58
8, 117516, Note_on_c, 6, 66, 0
8, 117600, Note_on_c, 6, 66, 58
8, 117756, Note_on_c, 6, 66, 0
8, 117840, Note_on_c, 6, 66, 58
8, 117996, Note_on_c, 6, 66, 0
8, 118080, Note_on_c, 6, 66, 58
8, 118236, Note_on_c, 6, 66, 0
8, 118320, Note_on_c, 6, 66, 58
8, 118476, Note_on_c, 6, 66, 0
8, 118560, Note_on_c, 6, 66, 58
8, 118716, Note_on_c, 6, 66, 0
8, 118800, Note_on_c, 6, 66, 58
8, 118956, Note_on_c, 6, 66, 0
8, 119040, Note_on_c, 6, 66, 58
8, 119196, Note_on_c, 6, 66, 0
8, 119280, Note_on_c, 6, 66, 58
8, 119436, Note_on_c, 6, 66, 0
8, 119520, Note_on_c, 6, 67, 58
8, 119676, Note_on_c, 6, 67, 0
8, 119760, Note_on_c, 6, 67, 58
8, 119916, Note_on_c, 6, 67, 0
8, 120000, Note_on_c, 6, 69, 58
8, 120156, Note_on_c, 6, 69, 0
8, 120240, Note_on_c, 6, 69, 58
8, 120396, Note_on_c, 6, 69, 0
8, 120480, Note_on_c, 6, 71, 58
8, 120636, Note_on_c, 6, 71, 0
8, 120720, Note_on_c, 6, 71, 58
8, 120876, Note_on_c, 6, 71, 0
8, 120960, Note_on_c, 6, 72, 58
8, 121344, Note_on_c, 6, 72, 0
8, 122880, Note_on_c, 6, 59, 58
8, 123072, Note_on_c, 6, 59, 0
8, 123120, Note_on_c, 6, 59, 58
8, 123312, Note_on_c, 6, 59, 0
8, 123360, Note_on_c, 6, 62, 58
8, 123552, Note_on_c, 6, 62, 0
8, 123600, Note_on_c, 6, 62, 58
8, 123792, Note_on_c, 6, 62, 0
8, 123840, Note_on_c, 6, 67, 58
8, 124032, Note_on_c, 6, 67, 0
8, 124080, Note_on_c, 6, 67, 58
8, 124272, Note_on_c, 6, 67, 0
8, 124320, Note_on_c, 6, 71, 58
8, 124512, Note_on_c, 6, 71, 0
8, 124560, Note_on_c, 6, 71, 58
8, 124752, Note_on_c, 6, 71, 0
8, 124800, Note_on_c, 6, 72, 58
8, 124992, Note_on_c, 6, 72, 0
8, 125040, Note_on_c, 6, 72, 58
8, 125232, Note_on_c, 6, 72, 0
8, 125280, Note_on_c, 6, 72, 58
8, 125472, Note_on_c, 6, 72, 0
8, 125520, Note_on_c, 6, 72, 58
8, 125712, Note_on_c, 6, 72, 0
8, 125760, Note_on_c, 6, 71, 58
8, 125952, Note_on_c, 6, 71, 0
8, 126000, Note_on_c, 6, 71, 58
8, 126192, Note_on_c, 6, 71, 0
8, 126240, Note_on_c, 6, 71, 58
8, 126432, Note_on_c, 6, 71, 0
8, 126480, Note_on_c, 6, 71, 58
8, 126672, Note_on_c, 6, 71, 0
8, 126720, Note_on_c, 6, 69, 58
8, 126912, Note_on_c, 6, 69, 0
8, 126960, Note_on_c, 6, 69, 58
8, 127152, Note_on_c, 6, 69, 0
8, 127200, Note_on_c, 6, 69, 58
8, 127392, Note_on_c, 6, 69, 0
8, 127440, Note_on_c, 6, 69, 58
8, 127632, Note_on_c, 6, 69, 0
8, 127680, Note_on_c, 6, 67, 58
8, 127872, Note_on_c, 6, 67, 0
8, 127920, Note_on_c, 6, 67, 58
8, 128112, Note_on_c, 6, 67, 0
8, 128160, Note_on_c, 6, 67, 58
8, 128352, Note_on_c, 6, 67, 0
8, 128400, Note_on_c, 6, 67, 58
8, 128592, Note_on_c, 6, 67, 0
8, 128640, Note_on_c, 6, 66, 58
8, 128832, Note_on_c, 6, 66, 0
8, 128880, Note_on_c, 6, 71, 58
8, 129072, Note_on_c, 6, 71, 0
8, 129120, Note_on_c, 6, 69, 58
8, 129312, Note_on_c, 6, 69, 0
8, 129360, Note_on_c, 6, 67, 58
8, 129552, Note_on_c, 6, 67, 0
8, 129600, Note_on_c, 6, 66, 58
8, 129792, Note_on_c, 6, 66, 0
8, 129840, Note_on_c, 6, 64, 58
8, 130032, Note_on_c, 6, 64, 0
8, 130080, Note_on_c, 6, 62, 58
8, 130272, Note_on_c, 6, 62, 0
8, 130320, Note_on_c, 6, 60, 58
8, 130512, Note_on_c, 6, 60, 0
8, 130560, Note_on_c, 6, 59, 58
8, 130752, Note_on_c, 6, 59, 0
8, 130800, Note_on_c, 6, 59, 58
8, 130992, Note_on_c, 6, 59, 0
8, 131040, Note_on_c, 6, 62, 58
8, 131232, Note_on_c, 6, 62, 0
8, 131280, Note_on_c, 6, 62, 58
8, 131472, Note_on_c, 6, 62, 0
8, 131520, Note_on_c, 6, 67, 58
8, 131712, Note_on_c, 6, 67, 0
8, 131760, Note_on_c, 6, 67, 58
8, 131952, Note_on_c, 6, 67, 0
8, 132000, Note_on_c, 6, 71, 58
8, 132192, Note_on_c, 6, 71, 0
8, 132240, Note_on_c, 6, 71, 58
8, 132432, Note_on_c, 6, 71, 0
8, 132480, Note_on_c, 6, 72, 58
8, 132672, Note_on_c, 6, 72, 0
8, 132720, Note_on_c, 6, 72, 58
8, 132912, Note_on_c, 6, 72, 0
8, 132960, Note_on_c, 6, 72, 58
8, 133152, Note_on_c, 6, 72, 0
8, 133200, Note_on_c, 6, 72, 58
8, 133392, Note_on_c, 6, 72, 0
8, 133440, Note_on_c, 6, 71, 58
8, 133632, Note_on_c, 6, 71, 0
8, 133680, Note_on_c, 6, 71, 58
8, 133872, Note_on_c, 6, 71, 0
8, 133920, Note_on_c, 6, 71, 58
8, 134112, Note_on_c, 6, 71, 0
8, 134160, Note_on_c, 6, 71, 58
8, 134352, Note_on_c, 6, 71, 0
8, 134400, Note_on_c, 6, 76, 58
8, 134592, Note_on_c, 6, 76, 0
8, 134640, Note_on_c, 6, 76, 58
8, 134832, Note_on_c, 6, 76, 0
8, 134880, Note_on_c, 6, 76, 58
8, 135072, Note_on_c, 6, 76, 0
8, 135120, Note_on_c, 6, 76, 58
8, 135312, Note_on_c, 6, 76, 0
8, 135360, Note_on_c, 6, 72, 58
8, 135552, Note_on_c, 6, 72, 0
8, 135600, Note_on_c, 6, 72, 58
8, 135792, Note_on_c, 6, 72, 0
8, 135840, Note_on_c, 6, 72, 58
8, 136032, Note_on_c, 6, 72, 0
8, 136080, Note_on_c, 6, 72, 58
8, 136272, Note_on_c, 6, 72, 0
8, 136320, Note_on_c, 6, 71, 58
8, 136512, Note_on_c, 6, 71, 0
8, 136560, Note_on_c, 6, 71, 58
8, 136752, Note_on_c, 6, 71, 0
8, 136800, Note_on_c, 6, 69, 58
8, 136992, Note_on_c, 6, 69, 0
8, 137040, Note_on_c, 6, 67, 58
8, 137232, Note_on_c, 6, 67, 0
8, 137280, Note_on_c, 6, 66, 58
8, 137472, Note_on_c, 6, 66, 0
8, 137520, Note_on_c, 6, 64, 58
8, 137712, Note_on_c, 6, 64, 0
8, 137760, Note_on_c, 6, 62, 58
8, 137952, Note_on_c, 6, 62, 0
8, 138000, Note_on_c, 6, 60, 58
8, 138192, Note_on_c, 6, 60, 0
8, 138240, Note_on_c, 6, 59, 58
8, 138432, Note_on_c, 6, 59, 0
8, 138480, Note_on_c, 6, 59, 58
8, 138672, Note_on_c, 6, 59, 0
8, 138720, Note_on_c, 6, 62, 58
8, 138912, Note_on_c, 6, 62, 0
8, 138960, Note_on_c, 6, 62, 58
8, 139152, Note_on_c, 6, 62, 0
8, 139200, Note_on_c, 6, 67, 58
8, 139392, Note_on_c, 6, 67, 0
8, 139440, Note_on_c, 6, 67, 58
8, 139632, Note_on_c, 6, 67, 0
8, 139680, Note_on_c, 6, 71, 58
8, 139872, Note_on_c, 6, 71, 0
8, 139920, Note_on_c, 6, 71, 58
8, 140112, Note_on_c, 6, 71, 0
8, 140160, Note_on_c, 6, 72, 58
8, 140352, Note_on_c, 6, 72, 0
8, 140400, Note_on_c, 6, 72, 58
8, 140592, Note_on_c, 6, 72, 0
8, 140640, Note_on_c, 6, 72, 58
8, 140832, Note_on_c, 6, 72, 0
8, 140880, Note_on_c, 6, 72, 58
8, 141072, Note_on_c, 6, 72, 0
8, 141120, Note_on_c, 6, 71, 58
8, 141312, Note_on_c, 6, 71, 0
8, 141360, Note_on_c, 6, 71, 58
8, 141552, Note_on_c, 6, 71, 0
8, 141600, Note_on_c, 6, 71, 58
8, 141792, Note_on_c, 6, 71, 0
8, 141840, Note_on_c, 6, 71, 58
8, 142032, Note_on_c, 6, 71, 0
8, 142080, Note_on_c, 6, 69, 58
8, 142272, Note_on_c, 6, 69, 0
8, 142320, Note_on_c, 6, 69, 58
8, 142512, Note_on_c, 6, 69, 0
8, 142560, Note_on_c, 6, 69, 58
8, 142752, Note_on_c, 6, 69, 0
8, 142800, Note_on_c, 6, 69, 58
8, 142992, Note_on_c, 6, 69, 0
8, 143040, Note_on_c, 6, 67, 58
8, 143232, Note_on_c, 6, 67, 0
8, 143280, Note_on_c, 6, 67, 58
8, 143472, Note_on_c, 6, 67, 0
8, 143520, Note_on_c, 6, 67, 58
8, 143712, Note_on_c, 6, 67, 0
8, 143760, Note_on_c, 6, 67, 58
8, 143952, Note_on_c, 6, 67, 0
8, 144000, Note_on_c, 6, 66, 58
8, 144192, Note_on_c, 6, 66, 0
8, 144240, Note_on_c, 6, 71, 58
8, 144432, Note_on_c, 6, 71, 0
8, 144480, Note_on_c, 6, 69, 58
8, 144672, Note_on_c, 6, 69, 0
8, 144720, Note_on_c, 6, 67, 58
8, 144912, Note_on_c, 6, 67, 0
8, 144960, Note_on_c, 6, 66, 58
8, 145152, Note_on_c, 6, 66, 0
8, 145200, Note_on_c, 6, 64, 58
8, 145392, Note_on_c, 6, 64, 0
8, 145440, Note_on_c, 6, 62, 58
8, 145632, Note_on_c, 6, 62, 0
8, 145680, Note_on_c, 6, 60, 58
8, 145872, Note_on_c, 6, 60, 0
8, 145920, Note_on_c, 6, 59, 58
8, 146112, Note_on_c, 6, 59, 0
8, 146160, Note_on_c, 6, 59, 58
8, 146352, Note_on_c, 6, 59, 0
8, 146400, Note_on_c, 6, 62, 58
8, 146592, Note_on_c, 6, 62, 0
8, 146640, Note_on_c, 6, 62, 58
8, 146832, Note_on_c, 6, 62, 0
8, 146880, Note_on_c, 6, 67, 58
8, 147072, Note_on_c, 6, 67, 0
8, 147120, Note_on_c, 6, 67, 58
8, 147312, Note_on_c, 6, 67, 0
8, 147360, Note_on_c, 6, 71, 58
8, 147552, Note_on_c, 6, 71, 0
8, 147600, Note_on_c, 6, 71, 58
8, 147792, Note_on_c, 6, 71, 0
8, 147840, Note_on_c, 6, 72, 58
8, 148032, Note_on_c, 6, 72, 0
8, 148080, Note_on_c, 6, 72, 58
8, 148272, Note_on_c, 6, 72, 0
8, 148320, Note_on_c, 6, 72, 58
8, 148512, Note_on_c, 6, 72, 0
8, 148560, Note_on_c, 6, 72, 58
8, 148752, Note_on_c, 6, 72, 0
8, 148800, Note_on_c, 6, 71, 58
8, 148992, Note_on_c, 6, 71, 0
8, 149040, Note_on_c, 6, 71, 58
8, 149232, Note_on_c, 6, 71, 0
8, 149280, Note_on_c, 6, 71, 58
8, 149472, Note_on_c, 6, 71, 0
8, 149520, Note_on_c, 6, 71, 58
8, 149712, Note_on_c, 6, 71, 0
8, 149760, Note_on_c, 6, 76, 58
8, 149952, Note_on_c, 6, 76, 0
8, 150000, Note_on_c, 6, 76, 58
8, 150192, Note_on_c, 6, 76, 0
8, 150240, Note_on_c, 6, 76, 58
8, 150432, Note_on_c, 6, 76, 0
8, 150480, Note_on_c, 6, 76, 58
8, 150672, Note_on_c, 6, 76, 0
8, 150720, Note_on_c, 6, 72, 58
8, 150912, Note_on_c, 6, 72, 0
8, 150960, Note_on_c, 6, 72, 58
8, 151152, Note_on_c, 6, 72, 0
8, 151200, Note_on_c, 6, 72, 58
8, 151392, Note_on_c, 6, 72, 0
8, 151440, Note_on_c, 6, 72, 58
8, 151632, Note_on_c, 6, 72, 0
8, 151680, Note_on_c, 6, 71, 78
8, 152064, Note_on_c, 6, 71, 0
8, 153600, Note_on_c, 6, 79, 105
8, 154752, Note_on_c, 6, 79, 0
8, 154800, Note_on_c, 6, 81, 105
8, 154992, Note_on_c, 6, 81, 0
8, 155040, Note_on_c, 6, 78, 105
8, 155232, Note_on_c, 6, 78, 0
8, 155280, Note_on_c, 6, 74, 105
8, 155472, Note_on_c, 6, 74, 0
8, 155520, Note_on_c, 6, 83, 105
8, 156672, Note_on_c, 6, 83, 0
8, 156720, Note_on_c, 6, 84, 105
8, 156912, Note_on_c, 6, 84, 0
8, 156960, Note_on_c, 6, 81, 105
8, 157152, Note_on_c, 6, 81, 0
8, 157200, Note_on_c, 6, 78, 105
8, 157392, Note_on_c, 6, 78, 0
8, 157440, Note_on_c, 6, 79, 105
8, 158592, Note_on_c, 6, 79, 0
8, 158640, Note_on_c, 6, 81, 105
8, 158832, Note_on_c, 6, 81, 0
8, 158880, Note_on_c, 6, 78, 105
8, 159072, Note_on_c, 6, 78, 0
8, 159120, Note_on_c, 6, 74, 105
8, 159312, Note_on_c, 6, 74, 0
8, 159360, Note_on_c, 6, 83, 105
8, 159648, Note_on_c, 6, 83, 0
8, 159840, Note_on_c, 6, 83, 92
8, 159984, Note_on_c, 6, 83, 0
8, 160080, Note_on_c, 6, 83, 92
8, 160224, Note_on_c, 6, 83, 0
8, 160320, Note_on_c, 6, 83, 92
8, 160560, Note_on_c, 6, 83, 0
8, 160560, Note_on_c, 6, 79, 92
8, 160752, Note_on_c, 6, 79, 0
8, 160800, Note_on_c, 6, 79, 92
8, 160992, Note_on_c, 6, 79, 0
8, 161040, Note_on_c, 6, 79, 92
8, 161232, Note_on_c, 6, 79, 0
8, 161280, Note_on_c, 6, 79, 92
8, 161520, Note_on_c, 6, 79, 0
8, 161520, Note_on_c, 6, 74, 92
8, 161712, Note_on_c, 6, 74, 0
8, 161760, Note_on_c, 6, 74, 92
8, 161952, Note_on_c, 6, 74, 0
8, 162000, Note_on_c, 6, 74, 92
8, 162192, Note_on_c, 6, 74, 0
8, 162240, Note_on_c, 6, 74, 92
8, 162480, Note_on_c, 6, 74, 0
8, 162480, Note_on_c, 6, 71, 92
8, 162672, Note_on_c, 6, 71, 0
8, 162720, Note_on_c, 6, 71, 92
8, 162960, Note_on_c, 6, 71, 0
8, 162960, Note_on_c, 6, 67, 92
8, 163152, Note_on_c, 6, 67, 0
8, 163200, Note_on_c, 6, 74, 92
8, 163488, Note_on_c, 6, 74, 0
8, 163680, Note_on_c, 6, 62, 92
8, 163680, Note_on_c, 6, 78, 92
8, 163680, Note_on_c, 6, 69, 92
8, 163968, Note_on_c, 6, 69, 0
8, 163968, Note_on_c, 6, 78, 0
8, 163968, Note_on_c, 6, 62, 0
8, 164160, Note_on_c, 6, 62, 92
8, 164160, Note_on_c, 6, 79, 92
8, 164160, Note_on_c, 6, 71, 92
8, 164448, Note_on_c, 6, 71, 0
8, 164448, Note_on_c, 6, 79, 0
8, 164448, Note_on_c, 6, 62, 0
8, 164640, Note_on_c, 6, 79, 92
8, 164640, Note_on_c, 6, 71, 92
8, 164640, Note_on_c, 6, 62, 92
8, 164928, Note_on_c, 6, 62, 0
8, 164928, Note_on_c, 6, 71, 0
8, 164928, Note_on_c, 6, 79, 0
8, 165120, Note_on_c, 6, 78, 92
8, 165120, Note_on_c, 6, 62, 92
8, 165120, Note_on_c, 6, 69, 92
8, 165408, Note_on_c, 6, 69, 0
8, 165408, Note_on_c, 6, 62, 0
8, 165408, Note_on_c, 6, 78, 0
8, 165600, Note_on_c, 6, 62, 92
8, 165984, Note_on_c, 6, 62, 0
8, 166080, Note_on_c, 6, 62, 92
8, 166464, Note_on_c, 6, 62, 0
8, 167520, Note_on_c, 6, 66, 98
8, 168000, Note_on_c, 6, 66, 0
8, 168000, Note_on_c, 6, 67, 58
8, 168192, Note_on_c, 6, 67, 0
8, 168480, Note_on_c, 6, 69, 58
8, 168672, Note_on_c, 6, 69, 0
8, 168960, Note_on_c, 6, 71, 58
8, 169152, Note_on_c, 6, 71, 0
8, 169440, Note_on_c, 6, 73, 58
8, 169632, Note_on_c, 6, 73, 0
8, 169920, Note_on_c, 6, 74, 58
8, 170112, Note_on_c, 6, 74, 0
8, 170400, Note_on_c, 6, 76, 58
8, 170592, Note_on_c, 6, 76, 0
8, 170880, Note_on_c, 6, 74, 58
8, 171120, Note_on_c, 6, 74, 0
8, 171120, Note_on_c, 6, 76, 58
8, 171360, Note_on_c, 6, 76, 0
8, 171360, Note_on_c, 6, 77, 58
8, 171600, Note_on_c, 6, 77, 0
8, 171600, Note_on_c, 6, 78, 58
8, 171840, Note_on_c, 6, 78, 0
8, 171840, Note_on_c, 6, 73, 58
8, 172080, Note_on_c, 6, 73, 0
8, 172080, Note_on_c, 6, 74, 58
8, 172320, Note_on_c, 6, 74, 0
8, 172320, Note_on_c, 6, 71, 58
8, 172560, Note_on_c, 6, 71, 0
8, 172560, Note_on_c, 6, 67, 58
8, 172752, Note_on_c, 6, 67, 0
8, 172800, Note_on_c, 6, 66, 58
8, 173760, Note_on_c, 6, 66, 0
8, 173760, Note_on_c, 6, 64, 58
8, 174144, Note_on_c, 6, 64, 0
8, 174720, Note_on_c, 6, 69, 78
8, 175680, Note_on_c, 6, 69, 0
8, 175680, Note_on_c, 6, 61, 58
8, 175872, Note_on_c, 6, 61, 0
8, 176160, Note_on_c, 6, 62, 58
8, 176352, Note_on_c, 6, 62, 0
8, 176640, Note_on_c, 6, 64, 58
8, 176832, Note_on_c, 6, 64, 0
8, 177120, Note_on_c, 6, 66, 58
8, 177312, Note_on_c, 6, 66, 0
8, 177600, Note_on_c, 6, 67, 58
8, 177792, Note_on_c, 6, 67, 0
8, 178560, Note_on_c, 6, 66, 58
8, 179040, Note_on_c, 6, 66, 0
8, 179040, Note_on_c, 6, 78, 58
8, 180000, Note_on_c, 6, 78, 0
8, 180000, Note_on_c, 6, 71, 58
8, 180384, Note_on_c, 6, 71, 0
8, 180480, Note_on_c, 6, 74, 58
8, 181440, Note_on_c, 6, 74, 0
8, 181440, Note_on_c, 6, 73, 58
8, 181824, Note_on_c, 6, 73, 0
8, 184320, Note_on_c, 6, 71, 72
8, 184560, Note_on_c, 6, 71, 0
8, 184560, Note_on_c, 6, 69, 72
8, 184740, Note_on_c, 6, 69, 0
8, 184800, Note_on_c, 6, 67, 72
8, 184980, Note_on_c, 6, 67, 0
8, 185040, Note_on_c, 6, 66, 72
8, 185220, Note_on_c, 6, 66, 0
8, 185280, Note_on_c, 6, 64, 72
8, 185640, Note_on_c, 6, 64, 0
8, 185760, Note_on_c, 6, 64, 72
8, 186120, Note_on_c, 6, 64, 0
8, 186240, Note_on_c, 6, 67, 72
8, 186480, Note_on_c, 6, 67, 0
8, 186480, Note_on_c, 6, 66, 72
8, 186660, Note_on_c, 6, 66, 0
8, 186720, Note_on_c, 6, 64, 72
8, 186900, Note_on_c, 6, 64, 0
8, 186960, Note_on_c, 6, 62, 72
8, 187140, Note_on_c, 6, 62, 0
8, 187200, Note_on_c, 6, 61, 72
8, 187560, Note_on_c, 6, 61, 0
8, 188160, Note_on_c, 6, 71, 72
8, 188400, Note_on_c, 6, 71, 0
8, 188400, Note_on_c, 6, 69, 72
8, 188580, Note_on_c, 6, 69, 0
8, 188640, Note_on_c, 6, 67, 72
8, 188820, Note_on_c, 6, 67, 0
8, 188880, Note_on_c, 6, 66, 72
8, 189060, Note_on_c, 6, 66, 0
8, 189120, Note_on_c, 6, 64, 72
8, 189480, Note_on_c, 6, 64, 0
8, 190080, Note_on_c, 6, 61, 72
8, 190320, Note_on_c, 6, 61, 0
8, 190320, Note_on_c, 6, 62, 72
8, 190512, Note_on_c, 6, 62, 0
8, 190560, Note_on_c, 6, 64, 72
8, 190752, Note_on_c, 6, 64, 0
8, 190800, Note_on_c, 6, 65, 72
8, 190992, Note_on_c, 6, 65, 0
8, 191040, Note_on_c, 6, 67, 72
8, 191424, Note_on_c, 6, 67, 0
8, 192000, Note_on_c, 6, 61, 72
8, 192240, Note_on_c, 6, 61, 0
8, 192240, Note_on_c, 6, 62, 72
8, 192432, Note_on_c, 6, 62, 0
8, 192480, Note_on_c, 6, 64, 72
8, 192672, Note_on_c, 6, 64, 0
8, 192720, Note_on_c, 6, 65, 72
8, 192912, Note_on_c, 6, 65, 0
8, 192960, Note_on_c, 6, 67, 72
8, 193344, Note_on_c, 6, 67, 0
8, 193920, Note_on_c, 6, 76, 58
8, 194160, Note_on_c, 6, 76, 0
8, 194160, Note_on_c, 6, 73, 58
8, 194400, Note_on_c, 6, 73, 0
8, 194400, Note_on_c, 6, 76, 58
8, 194640, Note_on_c, 6, 76, 0
8, 194640, Note_on_c, 6, 73, 58
8, 194880, Note_on_c, 6, 73, 0
8, 194880, Note_on_c, 6, 76, 58
8, 195120, Note_on_c, 6, 76, 0
8, 195120, Note_on_c, 6, 73, 58
8, 195360, Note_on_c, 6, 73, 0
8, 195360, Note_on_c, 6, 76, 58
8, 195600, Note_on_c, 6, 76, 0
8, 195600, Note_on_c, 6, 73, 58
8, 195840, Note_on_c, 6, 73, 0
8, 195840, Note_on_c, 6, 76, 58
8, 196224, Note_on_c, 6, 76, 0
8, 197760, Note_on_c, 6, 66, 58
8, 197952, Note_on_c, 6, 66, 0
8, 198000, Note_on_c, 6, 66, 58
8, 198192, Note_on_c, 6, 66, 0
8, 198240, Note_on_c, 6, 57, 58
8, 198432, Note_on_c, 6, 57, 0
8, 198480, Note_on_c, 6, 57, 58
8, 198672, Note_on_c, 6, 57, 0
8, 198720, Note_on_c, 6, 62, 58
8, 198912, Note_on_c, 6, 62, 0
8, 198960, Note_on_c, 6, 62, 58
8, 199152, Note_on_c, 6, 62, 0
8, 199200, Note_on_c, 6, 66, 58
8, 199392, Note_on_c, 6, 66, 0
8, 199440, Note_on_c, 6, 66, 58
8, 199632, Note_on_c, 6, 66, 0
8, 199680, Note_on_c, 6, 67, 58
8, 199872, Note_on_c, 6, 67, 0
8, 199920, Note_on_c, 6, 67, 58
8, 200112, Note_on_c, 6, 67, 0
8, 200160, Note_on_c, 6, 67, 58
8, 200352, Note_on_c, 6, 67, 0
8, 200400, Note_on_c, 6, 67, 58
8, 200592, Note_on_c, 6, 67, 0
8, 200640, Note_on_c, 6, 66, 58
8, 200832, Note_on_c, 6, 66, 0
8, 200880, Note_on_c, 6, 66, 58
8, 201072, Note_on_c, 6, 66, 0
8, 201120, Note_on_c, 6, 66, 58
8, 201312, Note_on_c, 6, 66, 0
8, 201360, Note_on_c, 6, 66, 58
8, 201552, Note_on_c, 6, 66, 0
8, 201600, Note_on_c, 6, 69, 58
8, 201792, Note_on_c, 6, 69, 0
8, 201840, Note_on_c, 6, 69, 58
8, 202032, Note_on_c, 6, 69, 0
8, 202080, Note_on_c, 6, 69, 58
8, 202272, Note_on_c, 6, 69, 0
8, 202320, Note_on_c, 6, 69, 58
8, 202512, Note_on_c, 6, 69, 0
8, 202560, Note_on_c, 6, 69, 58
8, 202752, Note_on_c, 6, 69, 0
8, 202800, Note_on_c, 6, 69, 58
8, 202992, Note_on_c, 6, 69, 0
8, 203040, Note_on_c, 6, 69, 58
8, 203232, Note_on_c, 6, 69, 0
8, 203280, Note_on_c, 6, 69, 58
8, 203472, Note_on_c, 6, 69, 0
8, 203520, Note_on_c, 6, 69, 58
8, 203676, Note_on_c, 6, 69, 0
8, 203760, Note_on_c, 6, 74, 58
8, 203916, Note_on_c, 6, 74, 0
8, 204000, Note_on_c, 6, 73, 58
8, 204156, Note_on_c, 6, 73, 0
8, 204240, Note_on_c, 6, 71, 58
8, 204396, Note_on_c, 6, 71, 0
8, 204480, Note_on_c, 6, 69, 58
8, 204636, Note_on_c, 6, 69, 0
8, 204720, Note_on_c, 6, 67, 58
8, 204876, Note_on_c, 6, 67, 0
8, 204960, Note_on_c, 6, 66, 58
8, 205116, Note_on_c, 6, 66, 0
8, 205200, Note_on_c, 6, 64, 58
8, 205356, Note_on_c, 6, 64, 0
8, 205440, Note_on_c, 6, 66, 58
8, 205632, Note_on_c, 6, 66, 0
8, 205680, Note_on_c, 6, 66, 58
8, 205872, Note_on_c, 6, 66, 0
8, 205920, Note_on_c, 6, 57, 58
8, 206112, Note_on_c, 6, 57, 0
8, 206160, Note_on_c, 6, 57, 58
8, 206352, Note_on_c, 6, 57, 0
8, 206400, Note_on_c, 6, 62, 58
8, 206592, Note_on_c, 6, 62, 0
8, 206640, Note_on_c, 6, 62, 58
8, 206832, Note_on_c, 6, 62, 0
8, 206880, Note_on_c, 6, 66, 58
8, 207072, Note_on_c, 6, 66, 0
8, 207120, Note_on_c, 6, 66, 58
8, 207312, Note_on_c, 6, 66, 0
8, 207360, Note_on_c, 6, 67, 58
8, 207552, Note_on_c, 6, 67, 0
8, 207600, Note_on_c, 6, 67, 58
8, 207792, Note_on_c, 6, 67, 0
8, 207840, Note_on_c, 6, 67, 58
8, 208032, Note_on_c, 6, 67, 0
8, 208080, Note_on_c, 6, 67, 58
8, 208272, Note_on_c, 6, 67, 0
8, 208320, Note_on_c, 6, 66, 58
8, 208512, Note_on_c, 6, 66, 0
8, 208560, Note_on_c, 6, 66, 58
8, 208752, Note_on_c, 6, 66, 0
8, 208800, Note_on_c, 6, 66, 58
8, 208992, Note_on_c, 6, 66, 0
8, 209040, Note_on_c, 6, 66, 58
8, 209232, Note_on_c, 6, 66, 0
8, 209280, Note_on_c, 6, 71, 58
8, 209472, Note_on_c, 6, 71, 0
8, 209520, Note_on_c, 6, 71, 58
8, 209712, Note_on_c, 6, 71, 0
8, 209760, Note_on_c, 6, 71, 58
8, 209952, Note_on_c, 6, 71, 0
8, 210000, Note_on_c, 6, 71, 58
8, 210192, Note_on_c, 6, 71, 0
8, 210240, Note_on_c, 6, 72, 58
8, 210432, Note_on_c, 6, 72, 0
8, 210480, Note_on_c, 6, 72, 58
8, 210672, Note_on_c, 6, 72, 0
8, 210720, Note_on_c, 6, 72, 58
8, 210912, Note_on_c, 6, 72, 0
8, 210960, Note_on_c, 6, 72, 58
8, 211152, Note_on_c, 6, 72, 0
8, 211200, Note_on_c, 6, 66, 58
8, 212160, Note_on_c, 6, 66, 0
8, 212160, Note_on_c, 6, 67, 58
8, 212544, Note_on_c, 6, 67, 0
8, 213120, Note_on_c, 6, 67, 58
8, 213312, Note_on_c, 6, 67, 0
8, 213360, Note_on_c, 6, 67, 58
8, 213552, Note_on_c, 6, 67, 0
8, 213600, Note_on_c, 6, 66, 58
8, 213792, Note_on_c, 6, 66, 0
8, 213840, Note_on_c, 6, 66, 58
8, 214032, Note_on_c, 6, 66, 0
8, 214080, Note_on_c, 6, 67, 58
8, 214272, Note_on_c, 6, 67, 0
8, 214320, Note_on_c, 6, 67, 58
8, 214512, Note_on_c, 6, 67, 0
8, 214560, Note_on_c, 6, 66, 58
8, 214752, Note_on_c, 6, 66, 0
8, 214800, Note_on_c, 6, 66, 58
8, 214992, Note_on_c, 6, 66, 0
8, 215040, Note_on_c, 6, 67, 58
8, 215232, Note_on_c, 6, 67, 0
8, 215280, Note_on_c, 6, 67, 58
8, 215472, Note_on_c, 6, 67, 0
8, 215520, Note_on_c, 6, 67, 58
8, 215712, Note_on_c, 6, 67, 0
8, 215760, Note_on_c, 6, 67, 58
8, 215952, Note_on_c, 6, 67, 0
8, 216000, Note_on_c, 6, 66, 58
8, 216192, Note_on_c, 6, 66, 0
8, 216240, Note_on_c, 6, 66, 58
8, 216432, Note_on_c, 6, 66, 0
8, 216480, Note_on_c, 6, 66, 58
8, 216672, Note_on_c, 6, 66, 0
8, 216720, Note_on_c, 6, 66, 58
8, 216912, Note_on_c, 6, 66, 0
8, 216960, Note_on_c, 6, 64, 58
8, 217152, Note_on_c, 6, 64, 0
8, 217200, Note_on_c, 6, 64, 58
8, 217392, Note_on_c, 6, 64, 0
8, 217440, Note_on_c, 6, 64, 58
8, 217632, Note_on_c, 6, 64, 0
8, 217680, Note_on_c, 6, 64, 58
8, 217872, Note_on_c, 6, 64, 0
8, 217920, Note_on_c, 6, 61, 58
8, 218112, Note_on_c, 6, 61, 0
8, 218160, Note_on_c, 6, 61, 58
8, 218352, Note_on_c, 6, 61, 0
8, 218400, Note_on_c, 6, 61, 58
8, 218592, Note_on_c, 6, 61, 0
8, 218640, Note_on_c, 6, 61, 58
8, 218832, Note_on_c, 6, 61, 0
8, 218880, Note_on_c, 6, 62, 58
8, 219120, Note_on_c, 6, 62, 0
8, 219120, Note_on_c, 6, 66, 58
8, 219360, Note_on_c, 6, 66, 0
8, 219360, Note_on_c, 6, 69, 58
8, 219600, Note_on_c, 6, 69, 0
8, 219600, Note_on_c, 6, 74, 58
8, 219792, Note_on_c, 6, 74, 0
8, 219840, Note_on_c, 6, 73, 58
8, 220800, Note_on_c, 6, 73, 0
8, 220800, Note_on_c, 6, 74, 58
8, 221040, Note_on_c, 6, 74, 0
8, 221040, Note_on_c, 6, 62, 58
8, 221280, Note_on_c, 6, 62, 0
8, 221280, Note_on_c, 6, 66, 58
8, 221520, Note_on_c, 6, 66, 0
8, 221520, Note_on_c, 6, 69, 58
8, 221712, Note_on_c, 6, 69, 0
8, 221760, Note_on_c, 6, 71, 58
8, 222720, Note_on_c, 6, 71, 0
8, 222720, Note_on_c, 6, 69, 58
8, 222960, Note_on_c, 6, 69, 0
8, 222960, Note_on_c, 6, 57, 58
8, 223200, Note_on_c, 6, 57, 0
8, 223200, Note_on_c, 6, 62, 58
8, 223440, Note_on_c, 6, 62, 0
8, 223440, Note_on_c, 6, 66, 58
8, 223632, Note_on_c, 6, 66, 0
8, 223680, Note_on_c, 6, 67, 58
8, 224448, Note_on_c, 6, 67, 0
8, 224640, Note_on_c, 6, 69, 125
8, 224880, Note_on_c, 6, 69, 0
8, 224880, Note_on_c, 6, 71, 105
8, 225036, Note_on_c, 6, 71, 0
8, 225120, Note_on_c, 6, 73, 105
8, 225276, Note_on_c, 6, 73, 0
8, 225360, Note_on_c, 6, 74, 105
8, 225516, Note_on_c, 6, 74, 0
8, 225600, Note_on_c, 6, 73, 105
8, 225840, Note_on_c, 6, 73, 0
8, 225840, Note_on_c, 6, 71, 105
8, 225996, Note_on_c, 6, 71, 0
8, 226080, Note_on_c, 6, 69, 105
8, 226236, Note_on_c, 6, 69, 0
8, 226320, Note_on_c, 6, 67, 105
8, 226476, Note_on_c, 6, 67, 0
8, 226560, Note_on_c, 6, 66, 105
8, 226800, Note_on_c, 6, 66, 0
8, 226800, Note_on_c, 6, 67, 105
8, 226956, Note_on_c, 6, 67, 0
8, 227040, Note_on_c, 6, 69, 105
8, 227196, Note_on_c, 6, 69, 0
8, 227280, Note_on_c, 6, 71, 105
8, 227436, Note_on_c, 6, 71, 0
8, 227520, Note_on_c, 6, 69, 105
8, 227760, Note_on_c, 6, 69, 0
8, 227760, Note_on_c, 6, 67, 105
8, 227916, Note_on_c, 6, 67, 0
8, 228000, Note_on_c, 6, 66, 105
8, 228156, Note_on_c, 6, 66, 0
8, 228240, Note_on_c, 6, 64, 105
8, 228396, Note_on_c, 6, 64, 0
8, 228480, Note_on_c, 6, 64, 105
8, 228720, Note_on_c, 6, 64, 0
8, 228720, Note_on_c, 6, 62, 105
8, 228876, Note_on_c, 6, 62, 0
8, 228960, Note_on_c, 6, 62, 105
8, 229116, Note_on_c, 6, 62, 0
8, 229200, Note_on_c, 6, 62, 105
8, 229356, Note_on_c, 6, 62, 0
8, 229440, Note_on_c, 6, 62, 105
8, 229680, Note_on_c, 6, 62, 0
8, 229680, Note_on_c, 6, 66, 105
8, 229836, Note_on_c, 6, 66, 0
8, 229920, Note_on_c, 6, 64, 105
8, 230076, Note_on_c, 6, 64, 0
8, 230160, Note_on_c, 6, 61, 105
8, 230316, Note_on_c, 6, 61, 0
8, 230400, Note_on_c, 6, 62, 105
8, 230556, Note_on_c, 6, 62, 0
8, 230640, Note_on_c, 6, 57, 58
8, 230796, Note_on_c, 6, 57, 0
8, 230880, Note_on_c, 6, 57, 58
8, 231036, Note_on_c, 6, 57, 0
8, 231120, Note_on_c, 6, 57, 58
8, 231276, Note_on_c, 6, 57, 0
8, 231360, Note_on_c, 6, 57, 58
8, 231516, Note_on_c, 6, 57, 0
8, 231600, Note_on_c, 6, 57, 58
8, 231756, Note_on_c, 6, 57, 0
8, 231840, Note_on_c, 6, 57, 58
8, 231996, Note_on_c, 6, 57, 0
8, 232080, Note_on_c, 6, 57, 58
8, 232236, Note_on_c, 6, 57, 0
8, 232320, Note_on_c, 6, 57, 58
8, 232476, Note_on_c, 6, 57, 0
8, 232560, Note_on_c, 6, 57, 58
8, 232716, Note_on_c, 6, 57, 0
8, 232800, Note_on_c, 6, 62, 58
8, 232956, Note_on_c, 6, 62, 0
8, 233040, Note_on_c, 6, 62, 58
8, 233196, Note_on_c, 6, 62, 0
8, 233280, Note_on_c, 6, 61, 58
8, 233436, Note_on_c, 6, 61, 0
8, 233520, Note_on_c, 6, 61, 58
8, 233676, Note_on_c, 6, 61, 0
8, 233760, Note_on_c, 6, 60, 58
8, 233916, Note_on_c, 6, 60, 0
8, 234000, Note_on_c, 6, 60, 58
8, 234156, Note_on_c, 6, 60, 0
8, 234240, Note_on_c, 6, 59, 58
8, 234396, Note_on_c, 6, 59, 0
8, 234480, Note_on_c, 6, 59, 58
8, 234636, Note_on_c, 6, 59, 0
8, 234720, Note_on_c, 6, 59, 58
8, 234876, Note_on_c, 6, 59, 0
8, 234960, Note_on_c, 6, 59, 58
8, 235116, Note_on_c, 6, 59, 0
8, 235200, Note_on_c, 6, 59, 58
8, 235356, Note_on_c, 6, 59, 0
8, 235440, Note_on_c, 6, 59, 58
8, 235596, Note_on_c, 6, 59, 0
8, 235680, Note_on_c, 6, 59, 58
8, 235836, Note_on_c, 6, 59, 0
8, 235920, Note_on_c, 6, 59, 58
8, 236076, Note_on_c, 6, 59, 0
8, 236160, Note_on_c, 6, 59, 58
8, 236316, Note_on_c, 6, 59, 0
8, 236400, Note_on_c, 6, 59, 58
8, 236556, Note_on_c, 6, 59, 0
8, 236640, Note_on_c, 6, 71, 58
8, 236796, Note_on_c, 6, 71, 0
8, 236880, Note_on_c, 6, 71, 58
8, 237036, Note_on_c, 6, 71, 0
8, 237120, Note_on_c, 6, 69, 58
8, 237276, Note_on_c, 6, 69, 0
8, 237360, Note_on_c, 6, 69, 58
8, 237516, Note_on_c, 6, 69, 0
8, 237600, Note_on_c, 6, 67, 58
8, 237756, Note_on_c, 6, 67, 0
8, 237840, Note_on_c, 6, 67, 58
8, 237996, Note_on_c, 6, 67, 0
8, 238080, Note_on_c, 6, 66, 58
8, 238236, Note_on_c, 6, 66, 0
8, 238320, Note_on_c, 6, 66, 58
8, 238476, Note_on_c, 6, 66, 0
8, 238560, Note_on_c, 6, 66, 58
8, 238716, Note_on_c, 6, 66, 0
8, 238800, Note_on_c, 6, 66, 58
8, 238956, Note_on_c, 6, 66, 0
8, 239040, Note_on_c, 6, 66, 58
8, 239196, Note_on_c, 6, 66, 0
8, 239280, Note_on_c, 6, 66, 58
8, 239436, Note_on_c, 6, 66, 0
8, 239520, Note_on_c, 6, 66, 58
8, 239676, Note_on_c, 6, 66, 0
8, 239760, Note_on_c, 6, 66, 58
8, 239916, Note_on_c, 6, 66, 0
8, 240000, Note_on_c, 6, 66, 58
8, 240156, Note_on_c, 6, 66, 0
8, 240240, Note_on_c, 6, 66, 58
8, 240396, Note_on_c, 6, 66, 0
8, 240480, Note_on_c, 6, 67, 58
8, 240636, Note_on_c, 6, 67, 0
8, 240720, Note_on_c, 6, 67, 58
8, 240876, Note_on_c, 6, 67, 0
8, 240960, Note_on_c, 6, 69, 58
8, 241116, Note_on_c, 6, 69, 0
8, 241200, Note_on_c, 6, 69, 58
8, 241356, Note_on_c, 6, 69, 0
8, 241440, Note_on_c, 6, 71, 58
8, 241596, Note_on_c, 6, 71, 0
8, 241680, Note_on_c, 6, 71, 58
8, 241836, Note_on_c, 6, 71, 0
8, 241920, Note_on_c, 6, 72, 58
8, 242304, Note_on_c, 6, 72, 0
8, 243120, Note_on_c, 6, 62, 92
8, 243276, Note_on_c, 6, 62, 0
8, 243360, Note_on_c, 6, 66, 92
8, 243516, Note_on_c, 6, 66, 0
8, 243600, Note_on_c, 6, 69, 92
8, 243756, Note_on_c, 6, 69, 0
8, 243840, Note_on_c, 6, 72, 92
8, 244152, Note_on_c, 6, 72, 0
8, 244320, Note_on_c, 6, 72, 92
8, 244632, Note_on_c, 6, 72, 0
8, 244800, Note_on_c, 6, 72, 92
8, 245112, Note_on_c, 6, 72, 0
8, 245280, Note_on_c, 6, 72, 92
8, 245592, Note_on_c, 6, 72, 0
8, 245760, Note_on_c, 6, 63, 92
8, 246144, Note_on_c, 6, 63, 0
8, 247680, Note_on_c, 6, 55, 58
8, 247872, Note_on_c, 6, 55, 0
8, 247920, Note_on_c, 6, 55, 58
8, 248112, Note_on_c, 6, 55, 0
8, 248160, Note_on_c, 6, 58, 58
8, 248352, Note_on_c, 6, 58, 0
8, 248400, Note_on_c, 6, 58, 58
8, 248592, Note_on_c, 6, 58, 0
8, 248640, Note_on_c, 6, 63, 58
8, 248832, Note_on_c, 6, 63, 0
8, 248880, Note_on_c, 6, 63, 58
8, 249072, Note_on_c, 6, 63, 0
8, 249120, Note_on_c, 6, 67, 58
8, 249312, Note_on_c, 6, 67, 0
8, 249360, Note_on_c, 6, 67, 58
8, 249552, Note_on_c, 6, 67, 0
8, 249600, Note_on_c, 6, 68, 58
8, 249792, Note_on_c, 6, 68, 0
8, 249840, Note_on_c, 6, 68, 58
8, 250032, Note_on_c, 6, 68, 0
8, 250080, Note_on_c, 6, 68, 58
8, 250272, Note_on_c, 6, 68, 0
8, 250320, Note_on_c, 6, 68, 58
8, 250512, Note_on_c, 6, 68, 0
8, 250560, Note_on_c, 6, 67, 58
8, 250752, Note_on_c, 6, 67, 0
8, 250800, Note_on_c, 6, 67, 58
8, 250992, Note_on_c, 6, 67, 0
8, 251040, Note_on_c, 6, 67, 58
8, 251232, Note_on_c, 6, 67, 0
8, 251280, Note_on_c, 6, 67, 58
8, 251472, Note_on_c, 6, 67, 0
8, 251520, Note_on_c, 6, 65, 58
8, 251712, Note_on_c, 6, 65, 0
8, 251760, Note_on_c, 6, 65, 58
8, 251952, Note_on_c, 6, 65, 0
8, 252000, Note_on_c, 6, 65, 58
8, 252192, Note_on_c, 6, 65, 0
8, 252240, Note_on_c, 6, 65, 58
8, 252432, Note_on_c, 6, 65, 0
8, 252480, Note_on_c, 6, 63, 58
8, 252672, Note_on_c, 6, 63, 0
8, 252720, Note_on_c, 6, 63, 58
8, 252912, Note_on_c, 6, 63, 0
8, 252960, Note_on_c, 6, 63, 58
8, 253152, Note_on_c, 6, 63, 0
8, 253200, Note_on_c, 6, 63, 58
8, 253392, Note_on_c, 6, 63, 0
8, 253440, Note_on_c, 6, 62, 58
8, 253632, Note_on_c, 6, 62, 0
8, 253680, Note_on_c, 6, 67, 58
8, 253872, Note_on_c, 6, 67, 0
8, 253920, Note_on_c, 6, 65, 58
8, 254112, Note_on_c, 6, 65, 0
8, 254160, Note_on_c, 6, 63, 58
8, 254352, Note_on_c, 6, 63, 0
8, 254400, Note_on_c, 6, 62, 58
8, 254592, Note_on_c, 6, 62, 0
8, 254640, Note_on_c, 6, 60, 58
8, 254832, Note_on_c, 6, 60, 0
8, 254880, Note_on_c, 6, 58, 58
8, 255072, Note_on_c, 6, 58, 0
8, 255120, Note_on_c, 6, 56, 58
8, 255312, Note_on_c, 6, 56, 0
8, 255360, Note_on_c, 6, 55, 58
8, 255552, Note_on_c, 6, 55, 0
8, 255600, Note_on_c, 6, 55, 58
8, 255792, Note_on_c, 6, 55, 0
8, 255840, Note_on_c, 6, 58, 58
8, 256032, Note_on_c, 6, 58, 0
8, 256080, Note_on_c, 6, 58, 58
8, 256272, Note_on_c, 6, 58, 0
8, 256320, Note_on_c, 6, 63, 58
8, 256512, Note_on_c, 6, 63, 0
8, 256560, Note_on_c, 6, 63, 58
8, 256752, Note_on_c, 6, 63, 0
8, 256800, Note_on_c, 6, 67, 58
8, 256992, Note_on_c, 6, 67, 0
8, 257040, Note_on_c, 6, 67, 58
8, 257232, Note_on_c, 6, 67, 0
8, 257280, Note_on_c, 6, 68, 58
8, 257472, Note_on_c, 6, 68, 0
8, 257520, Note_on_c, 6, 68, 58
8, 257712, Note_on_c, 6, 68, 0
8, 257760, Note_on_c, 6, 68, 58
8, 257952, Note_on_c, 6, 68, 0
8, 258000, Note_on_c, 6, 68, 58
8, 258192, Note_on_c, 6, 68, 0
8, 258240, Note_on_c, 6, 67, 58
8, 258432, Note_on_c, 6, 67, 0
8, 258480, Note_on_c, 6, 67, 58
8, 258672, Note_on_c, 6, 67, 0
8, 258720, Note_on_c, 6, 67, 58
8, 258912, Note_on_c, 6, 67, 0
8, 258960, Note_on_c, 6, 67, 58
8, 259152, Note_on_c, 6, 67, 0
8, 259200, Note_on_c, 6, 72, 58
8, 259392, Note_on_c, 6, 72, 0
8, 259440, Note_on_c, 6, 72, 58
8, 259632, Note_on_c, 6, 72, 0
8, 259680, Note_on_c, 6, 72, 58
8, 259872, Note_on_c, 6, 72, 0
8, 259920, Note_on_c, 6, 72, 58
8, 260112, Note_on_c, 6, 72, 0
8, 260160, Note_on_c, 6, 68, 58
8, 260352, Note_on_c, 6, 68, 0
8, 260400, Note_on_c, 6, 68, 58
8, 260592, Note_on_c, 6, 68, 0
8, 260640, Note_on_c, 6, 68, 58
8, 260832, Note_on_c, 6, 68, 0
8, 260880, Note_on_c, 6, 68, 58
8, 261072, Note_on_c, 6, 68, 0
8, 261120, Note_on_c, 6, 67, 92
8, 261504, Note_on_c, 6, 67, 0
8, 263040, Note_on_c, 6, 75, 105
8, 264192, Note_on_c, 6, 75, 0
8, 264240, Note_on_c, 6, 77, 105
8, 264432, Note_on_c, 6, 77, 0
8, 264480, Note_on_c, 6, 74, 105
8, 264672, Note_on_c, 6, 74, 0
8, 264720, Note_on_c, 6, 70, 105
8, 264912, Note_on_c, 6, 70, 0
8, 264960, Note_on_c, 6, 79, 105
8, 266112, Note_on_c, 6, 79, 0
8, 266160, Note_on_c, 6, 80, 105
8, 266352, Note_on_c, 6, 80, 0
8, 266400, Note_on_c, 6, 77, 105
8, 266592, Note_on_c, 6, 77, 0
8, 266640, Note_on_c, 6, 74, 105
8, 266832, Note_on_c, 6, 74, 0
8, 266880, Note_on_c, 6, 75, 105
8, 268080, Note_on_c, 6, 75, 0
8, 268080, Note_on_c, 6, 77, 105
8, 268320, Note_on_c, 6, 77, 0
8, 268320, Note_on_c, 6, 74, 105
8, 268560, Note_on_c, 6, 74, 0
8, 268560, Note_on_c, 6, 70, 105
8, 268752, Note_on_c, 6, 70, 0
8, 268800, Note_on_c, 6, 79, 92
8, 269088, Note_on_c, 6, 79, 0
8, 269280, Note_on_c, 6, 58, 92
8, 269280, Note_on_c, 6, 67, 92
8, 269568, Note_on_c, 6, 67, 0
8, 269568, Note_on_c, 6, 58, 0
8, 270240, Note_on_c, 6, 67, 92
8, 270240, Note_on_c, 6, 58, 92
8, 270528, Note_on_c, 6, 58, 0
8, 270528, Note_on_c, 6, 67, 0
8, 271200, Note_on_c, 6, 58, 92
8, 271200, Note_on_c, 6, 67, 92
8, 271488, Note_on_c, 6, 67, 0
8, 271488, Note_on_c, 6, 58, 0
8, 271680, Note_on_c, 6, 58, 92
8, 271680, Note_on_c, 6, 67, 92
8, 271968, Note_on_c, 6, 67, 0
8, 271968, Note_on_c, 6, 58, 0
8, 272160, Note_on_c, 6, 67, 92
8, 272160, Note_on_c, 6, 58, 92
8, 272448, Note_on_c, 6, 58, 0
8, 272448, Note_on_c, 6, 67, 0
8, 273120, Note_on_c, 6, 67, 92
8, 273120, Note_on_c, 6, 59, 92
8, 273408, Note_on_c, 6, 59, 0
8, 273408, Note_on_c, 6, 67, 0
8, 274080, Note_on_c, 6, 59, 92
8, 274080, Note_on_c, 6, 67, 92
8, 274368, Note_on_c, 6, 67, 0
8, 274368, Note_on_c, 6, 59, 0
8, 275040, Note_on_c, 6, 67, 92
8, 275040, Note_on_c, 6, 59, 92
8, 275328, Note_on_c, 6, 59, 0
8, 275328, Note_on_c, 6, 67, 0
8, 275520, Note_on_c, 6, 59, 92
8, 275520, Note_on_c, 6, 67, 92
8, 275808, Note_on_c, 6, 67, 0
8, 275808, Note_on_c, 6, 59, 0
8, 276000, Note_on_c, 6, 59, 92
8, 276000, Note_on_c, 6, 67, 92
8, 276288, Note_on_c, 6, 67, 0
8, 276288, Note_on_c, 6, 59, 0
8, 276960, Note_on_c, 6, 60, 92
8, 276960, Note_on_c, 6, 63, 92
8, 277248, Note_on_c, 6, 63, 0
8, 277248, Note_on_c, 6, 60, 0
8, 277920, Note_on_c, 6, 60, 92
8, 277920, Note_on_c, 6, 63, 92
8, 278208, Note_on_c, 6, 63, 0
8, 278208, Note_on_c, 6, 60, 0
8, 278880, Note_on_c, 6, 63, 92
8, 278880, Note_on_c, 6, 60, 92
8, 279168, Note_on_c, 6, 60, 0
8, 279168, Note_on_c, 6, 63, 0
8, 279360, Note_on_c, 6, 60, 92
8, 279360, Note_on_c, 6, 63, 92
8, 279648, Note_on_c, 6, 63, 0
8, 279648, Note_on_c, 6, 60, 0
8, 279840, Note_on_c, 6, 60, 92
8, 279840, Note_on_c, 6, 63, 92
8, 280128, Note_on_c, 6, 63, 0
8, 280128, Note_on_c, 6, 60, 0
8, 280800, Note_on_c, 6, 60, 92
8, 280800, Note_on_c, 6, 69, 92
8, 281088, Note_on_c, 6, 69, 0
8, 281088, Note_on_c, 6, 60, 0
8, 281760, Note_on_c, 6, 60, 92
8, 281760, Note_on_c, 6, 69, 92
8, 282048, Note_on_c, 6, 69, 0
8, 282048, Note_on_c, 6, 60, 0
8, 282720, Note_on_c, 6, 69, 92
8, 282720, Note_on_c, 6, 60, 92
8, 283008, Note_on_c, 6, 60, 0
8, 283008, Note_on_c, 6, 69, 0
8, 283200, Note_on_c, 6, 60, 92
8, 283200, Note_on_c, 6, 69, 92
8, 283488, Note_on_c, 6, 69, 0
8, 283488, Note_on_c, 6, 60, 0
8, 283680, Note_on_c, 6, 69, 92
8, 283680, Note_on_c, 6, 60, 92
8, 283968, Note_on_c, 6, 60, 0
8, 283968, Note_on_c, 6, 69, 0
8, 284640, Note_on_c, 6, 62, 92
8, 284640, Note_on_c, 6, 70, 92
8, 284928, Note_on_c, 6, 70, 0
8, 284928, Note_on_c, 6, 62, 0
8, 285600, Note_on_c, 6, 70, 92
8, 285600, Note_on_c, 6, 62, 92
8, 285888, Note_on_c, 6, 62, 0
8, 285888, Note_on_c, 6, 70, 0
8, 286560, Note_on_c, 6, 62, 92
8, 286560, Note_on_c, 6, 70, 92
8, 286848, Note_on_c, 6, 70, 0
8, 286848, Note_on_c, 6, 62, 0
8, 287040, Note_on_c, 6, 62, 92
8, 287040, Note_on_c, 6, 70, 92
8, 287328, Note_on_c, 6, 70, 0
8, 287328, Note_on_c, 6, 62, 0
8, 287520, Note_on_c, 6, 70, 92
8, 287520, Note_on_c, 6, 62, 92
8, 287808, Note_on_c, 6, 62, 0
8, 287808, Note_on_c, 6, 70, 0
8, 288000, Note_on_c, 6, 79, 92
8, 288240, Note_on_c, 6, 79, 0
8, 288240, Note_on_c, 6, 75, 92
8, 288432, Note_on_c, 6, 75, 0
8, 288480, Note_on_c, 6, 75, 92
8, 288672, Note_on_c, 6, 75, 0
8, 288720, Note_on_c, 6, 75, 92
8, 288912, Note_on_c, 6, 75, 0
8, 288960, Note_on_c, 6, 75, 92
8, 289200, Note_on_c, 6, 75, 0
8, 289200, Note_on_c, 6, 70, 92
8, 289392, Note_on_c, 6, 70, 0
8, 289440, Note_on_c, 6, 70, 92
8, 289632, Note_on_c, 6, 70, 0
8, 289680, Note_on_c, 6, 70, 92
8, 289872, Note_on_c, 6, 70, 0
8, 289920, Note_on_c, 6, 70, 92
8, 290160, Note_on_c, 6, 70, 0
8, 290160, Note_on_c, 6, 67, 92
8, 290352, Note_on_c, 6, 67, 0
8, 290400, Note_on_c, 6, 67, 92
8, 290592, Note_on_c, 6, 67, 0
8, 290640, Note_on_c, 6, 67, 92
8, 290832, Note_on_c, 6, 67, 0
8, 290880, Note_on_c, 6, 67, 92
8, 291120, Note_on_c, 6, 67, 0
8, 291120, Note_on_c, 6, 63, 92
8, 291312, Note_on_c, 6, 63, 0
8, 291360, Note_on_c, 6, 63, 92
8, 291600, Note_on_c, 6, 63, 0
8, 291600, Note_on_c, 6, 61, 92
8, 291792, Note_on_c, 6, 61, 0
8, 291840, Note_on_c, 6, 62, 92
8, 292128, Note_on_c, 6, 62, 0
8, 292320, Note_on_c, 6, 78, 92
8, 292320, Note_on_c, 6, 69, 92
8, 292320, Note_on_c, 6, 62, 92
8, 292608, Note_on_c, 6, 62, 0
8, 292608, Note_on_c, 6, 69, 0
8, 292608, Note_on_c, 6, 78, 0
8, 292800, Note_on_c, 6, 79, 92
8, 292800, Note_on_c, 6, 70, 92
8, 292800, Note_on_c, 6, 62, 92
8, 293088, Note_on_c, 6, 62, 0
8, 293088, Note_on_c, 6, 70, 0
8, 293088, Note_on_c, 6, 79, 0
8, 293280, Note_on_c, 6, 70, 92
8, 293280, Note_on_c, 6, 79, 92
8, 293280, Note_on_c, 6, 62, 92
8, 293568, Note_on_c, 6, 62, 0
8, 293568, Note_on_c, 6, 79, 0
8, 293568, Note_on_c, 6, 70, 0
8, 293760, Note_on_c, 6, 78, 92
8, 293760, Note_on_c, 6, 62, 92
8, 293760, Note_on_c, 6, 69, 92
8, 294048, Note_on_c, 6, 69, 0
8, 294048, Note_on_c, 6, 62, 0
8, 294048, Note_on_c, 6, 78, 0
8, 294240, Note_on_c, 6, 62, 92
8, 294528, Note_on_c, 6, 62, 0
8, 294720, Note_on_c, 6, 62, 92
8, 295008, Note_on_c, 6, 62, 0
8, 296160, Note_on_c, 6, 59, 98
8, 296640, Note_on_c, 6, 59, 0
8, 296640, Note_on_c, 6, 60, 72
8, 296832, Note_on_c, 6, 60, 0
8, 297120, Note_on_c, 6, 62, 72
8, 297312, Note_on_c, 6, 62, 0
8, 297600, Note_on_c, 6, 64, 72
8, 297792, Note_on_c, 6, 64, 0
8, 298080, Note_on_c, 6, 66, 72
8, 298272, Note_on_c, 6, 66, 0
8, 298560, Note_on_c, 6, 67, 72
8, 298752, Note_on_c, 6, 67, 0
8, 299040, Note_on_c, 6, 69, 72
8, 299232, Note_on_c, 6, 69, 0
8, 299520, Note_on_c, 6, 67, 72
8, 299760, Note_on_c, 6, 67, 0
8, 299760, Note_on_c, 6, 69, 72
8, 300000, Note_on_c, 6, 69, 0
8, 300000, Note_on_c, 6, 70, 72
8, 300240, Note_on_c, 6, 70, 0
8, 300240, Note_on_c, 6, 71, 72
8, 300480, Note_on_c, 6, 71, 0
8, 300480, Note_on_c, 6, 66, 72
8, 300720, Note_on_c, 6, 66, 0
8, 300720, Note_on_c, 6, 67, 72
8, 300960, Note_on_c, 6, 67, 0
8, 300960, Note_on_c, 6, 64, 72
8, 301200, Note_on_c, 6, 64, 0
8, 301200, Note_on_c, 6, 60, 72
8, 301392, Note_on_c, 6, 60, 0
8, 301440, Note_on_c, 6, 59, 72
8, 302400, Note_on_c, 6, 59, 0
8, 302400, Note_on_c, 6, 57, 72
8, 302784, Note_on_c, 6, 57, 0
8, 303360, Note_on_c, 6, 62, 92
8, 304512, Note_on_c, 6, 62, 0
8, 304800, Note_on_c, 6, 55, 72
8, 304992, Note_on_c, 6, 55, 0
8, 305280, Note_on_c, 6, 57, 72
8, 305472, Note_on_c, 6, 57, 0
8, 305760, Note_on_c, 6, 59, 72
8, 305952, Note_on_c, 6, 59, 0
8, 306240, Note_on_c, 6, 60, 72
8, 306432, Note_on_c, 6, 60, 0
8, 307200, Note_on_c, 6, 59, 72
8, 307680, Note_on_c, 6, 59, 0
8, 307680, Note_on_c, 6, 71, 72
8, 308640, Note_on_c, 6, 71, 0
8, 308640, Note_on_c, 6, 64, 72
8, 309024, Note_on_c, 6, 64, 0
8, 309120, Note_on_c, 6, 67, 72
8, 310080, Note_on_c, 6, 67, 0
8, 310080, Note_on_c, 6, 66, 72
8, 310464, Note_on_c, 6, 66, 0
8, 312960, Note_on_c, 6, 64, 72
8, 313200, Note_on_c, 6, 64, 0
8, 313200, Note_on_c, 6, 62, 72
8, 313392, Note_on_c, 6, 62, 0
8, 313440, Note_on_c, 6, 60, 72
8, 313632, Note_on_c, 6, 60, 0
8, 313680, Note_on_c, 6, 59, 72
8, 313872, Note_on_c, 6, 59, 0
8, 313920, Note_on_c, 6, 57, 72
8, 314208, Note_on_c, 6, 57, 0
8, 314400, Note_on_c, 6, 57, 72
8, 314688, Note_on_c, 6, 57, 0
8, 314880, Note_on_c, 6, 72, 58
8, 315120, Note_on_c, 6, 72, 0
8, 315120, Note_on_c, 6, 71, 58
8, 315312, Note_on_c, 6, 71, 0
8, 315360, Note_on_c, 6, 69, 58
8, 315552, Note_on_c, 6, 69, 0
8, 315600, Note_on_c, 6, 67, 58
8, 315792, Note_on_c, 6, 67, 0
8, 315840, Note_on_c, 6, 66, 58
8, 316224, Note_on_c, 6, 66, 0
8, 316800, Note_on_c, 6, 69, 58
8, 317040, Note_on_c, 6, 69, 0
8, 317040, Note_on_c, 6, 67, 58
8, 317232, Note_on_c, 6, 67, 0
8, 317280, Note_on_c, 6, 66, 58
8, 317472, Note_on_c, 6, 66, 0
8, 317520, Note_on_c, 6, 64, 58
8, 317712, Note_on_c, 6, 64, 0
8, 317760, Note_on_c, 6, 62, 58
8, 318144, Note_on_c, 6, 62, 0
8, 319200, Note_on_c, 6, 60, 58
8, 319488, Note_on_c, 6, 60, 0
8, 319680, Note_on_c, 6, 60, 58
8, 319968, Note_on_c, 6, 60, 0
8, 321120, Note_on_c, 6, 60, 58
8, 321408, Note_on_c, 6, 60, 0
8, 321600, Note_on_c, 6, 60, 58
8, 321744, Note_on_c, 6, 60, 0
8, 321840, Note_on_c, 6, 78, 58
8, 322080, Note_on_c, 6, 78, 0
8, 322080, Note_on_c, 6, 74, 58
8, 322320, Note_on_c, 6, 74, 0
8, 322320, Note_on_c, 6, 78, 58
8, 322512, Note_on_c, 6, 78, 0
8, 322560, Note_on_c, 6, 81, 58
8, 322800, Note_on_c, 6, 81, 0
8, 322800, Note_on_c, 6, 78, 58
8, 323040, Note_on_c, 6, 78, 0
8, 323040, Note_on_c, 6, 81, 58
8, 323280, Note_on_c, 6, 81, 0
8, 323280, Note_on_c, 6, 78, 58
8, 323520, Note_on_c, 6, 78, 0
8, 323520, Note_on_c, 6, 81, 58
8, 323760, Note_on_c, 6, 81, 0
8, 323760, Note_on_c, 6, 78, 58
8, 324000, Note_on_c, 6, 78, 0
8, 324000, Note_on_c, 6, 81, 58
8, 324240, Note_on_c, 6, 81, 0
8, 324240, Note_on_c, 6, 78, 58
8, 324480, Note_on_c, 6, 78, 0
8, 324480, Note_on_c, 6, 81, 58
8, 324864, Note_on_c, 6, 81, 0
8, 326400, Note_on_c, 6, 59, 58
8, 326592, Note_on_c, 6, 59, 0
8, 326640, Note_on_c, 6, 59, 58
8, 326832, Note_on_c, 6, 59, 0
8, 326880, Note_on_c, 6, 62, 58
8, 327072, Note_on_c, 6, 62, 0
8, 327120, Note_on_c, 6, 62, 58
8, 327312, Note_on_c, 6, 62, 0
8, 327360, Note_on_c, 6, 67, 58
8, 327552, Note_on_c, 6, 67, 0
8, 327600, Note_on_c, 6, 67, 58
8, 327792, Note_on_c, 6, 67, 0
8, 327840, Note_on_c, 6, 71, 58
8, 328032, Note_on_c, 6, 71, 0
8, 328080, Note_on_c, 6, 71, 58
8, 328272, Note_on_c, 6, 71, 0
8, 328320, Note_on_c, 6, 72, 58
8, 328512, Note_on_c, 6, 72, 0
8, 328560, Note_on_c, 6, 72, 58
8, 328752, Note_on_c, 6, 72, 0
8, 328800, Note_on_c, 6, 72, 58
8, 328992, Note_on_c, 6, 72, 0
8, 329040, Note_on_c, 6, 72, 58
8, 329232, Note_on_c, 6, 72, 0
8, 329280, Note_on_c, 6, 71, 58
8, 329472, Note_on_c, 6, 71, 0
8, 329520, Note_on_c, 6, 71, 58
8, 329712, Note_on_c, 6, 71, 0
8, 329760, Note_on_c, 6, 71, 58
8, 329952, Note_on_c, 6, 71, 0
8, 330000, Note_on_c, 6, 71, 58
8, 330192, Note_on_c, 6, 71, 0
8, 330240, Note_on_c, 6, 69, 58
8, 330432, Note_on_c, 6, 69, 0
8, 330480, Note_on_c, 6, 69, 58
8, 330672, Note_on_c, 6, 69, 0
8, 330720, Note_on_c, 6, 69, 58
8, 330912, Note_on_c, 6, 69, 0
8, 330960, Note_on_c, 6, 69, 58
8, 331152, Note_on_c, 6, 69, 0
8, 331200, Note_on_c, 6, 67, 58
8, 331392, Note_on_c, 6, 67, 0
8, 331440, Note_on_c, 6, 67, 58
8, 331632, Note_on_c, 6, 67, 0
8, 331680, Note_on_c, 6, 67, 58
8, 331872, Note_on_c, 6, 67, 0
8, 331920, Note_on_c, 6, 67, 58
8, 332112, Note_on_c, 6, 67, 0
8, 332160, Note_on_c, 6, 66, 58
8, 332352, Note_on_c, 6, 66, 0
8, 332400, Note_on_c, 6, 67, 58
8, 332592, Note_on_c, 6, 67, 0
8, 332640, Note_on_c, 6, 66, 58
8, 332832, Note_on_c, 6, 66, 0
8, 332880, Note_on_c, 6, 64, 58
8, 333072, Note_on_c, 6, 64, 0
8, 333120, Note_on_c, 6, 62, 58
8, 333312, Note_on_c, 6, 62, 0
8, 333360, Note_on_c, 6, 60, 58
8, 333552, Note_on_c, 6, 60, 0
8, 333600, Note_on_c, 6, 59, 58
8, 333792, Note_on_c, 6, 59, 0
8, 333840, Note_on_c, 6, 57, 58
8, 334032, Note_on_c, 6, 57, 0
8, 334080, Note_on_c, 6, 59, 58
8, 334272, Note_on_c, 6, 59, 0
8, 334320, Note_on_c, 6, 59, 58
8, 334512, Note_on_c, 6, 59, 0
8, 334560, Note_on_c, 6, 55, 58
8, 334752, Note_on_c, 6, 55, 0
8, 334800, Note_on_c, 6, 55, 58
8, 334992, Note_on_c, 6, 55, 0
8, 335040, Note_on_c, 6, 59, 58
8, 335232, Note_on_c, 6, 59, 0
8, 335280, Note_on_c, 6, 59, 58
8, 335472, Note_on_c, 6, 59, 0
8, 335520, Note_on_c, 6, 62, 58
8, 335712, Note_on_c, 6, 62, 0
8, 335760, Note_on_c, 6, 62, 58
8, 335952, Note_on_c, 6, 62, 0
8, 336000, Note_on_c, 6, 60, 58
8, 336192, Note_on_c, 6, 60, 0
8, 336240, Note_on_c, 6, 60, 58
8, 336432, Note_on_c, 6, 60, 0
8, 336480, Note_on_c, 6, 60, 58
8, 336672, Note_on_c, 6, 60, 0
8, 336720, Note_on_c, 6, 60, 58
8, 336912, Note_on_c, 6, 60, 0
8, 336960, Note_on_c, 6, 59, 58
8, 337152, Note_on_c, 6, 59, 0
8, 337200, Note_on_c, 6, 59, 58
8, 337392, Note_on_c, 6, 59, 0
8, 337440, Note_on_c, 6, 59, 58
8, 337632, Note_on_c, 6, 59, 0
8, 337680, Note_on_c, 6, 59, 58
8, 337872, Note_on_c, 6, 59, 0
8, 337920, Note_on_c, 6, 64, 58
8, 338112, Note_on_c, 6, 64, 0
8, 338160, Note_on_c, 6, 64, 58
8, 338352, Note_on_c, 6, 64, 0
8, 338400, Note_on_c, 6, 64, 58
8, 338592, Note_on_c, 6, 64, 0
8, 338640, Note_on_c, 6, 64, 58
8, 338832, Note_on_c, 6, 64, 0
8, 338880, Note_on_c, 6, 65, 58
8, 339072, Note_on_c, 6, 65, 0
8, 339120, Note_on_c, 6, 65, 58
8, 339312, Note_on_c, 6, 65, 0
8, 339360, Note_on_c, 6, 65, 58
8, 339552, Note_on_c, 6, 65, 0
8, 339600, Note_on_c, 6, 65, 58
8, 339792, Note_on_c, 6, 65, 0
8, 339840, Note_on_c, 6, 59, 58
8, 340800, Note_on_c, 6, 59, 0
8, 340800, Note_on_c, 6, 60, 58
8, 341184, Note_on_c, 6, 60, 0
8, 341760, Note_on_c, 6, 60, 58
8, 341952, Note_on_c, 6, 60, 0
8, 342000, Note_on_c, 6, 60, 58
8, 342192, Note_on_c, 6, 60, 0
8, 342240, Note_on_c, 6, 59, 58
8, 342432, Note_on_c, 6, 59, 0
8, 342480, Note_on_c, 6, 59, 58
8, 342672, Note_on_c, 6, 59, 0
8, 342720, Note_on_c, 6, 60, 58
8, 342912, Note_on_c, 6, 60, 0
8, 342960, Note_on_c, 6, 60, 58
8, 343152, Note_on_c, 6, 60, 0
8, 343200, Note_on_c, 6, 59, 58
8, 343392, Note_on_c, 6, 59, 0
8, 343440, Note_on_c, 6, 59, 58
8, 343632, Note_on_c, 6, 59, 0
8, 343680, Note_on_c, 6, 60, 58
8, 343872, Note_on_c, 6, 60, 0
8, 343920, Note_on_c, 6, 60, 58
8, 344112, Note_on_c, 6, 60, 0
8, 344160, Note_on_c, 6, 60, 58
8, 344352, Note_on_c, 6, 60, 0
8, 344400, Note_on_c, 6, 60, 58
8, 344592, Note_on_c, 6, 60, 0
8, 344640, Note_on_c, 6, 59, 58
8, 344832, Note_on_c, 6, 59, 0
8, 344880, Note_on_c, 6, 59, 58
8, 345072, Note_on_c, 6, 59, 0
8, 345120, Note_on_c, 6, 59, 58
8, 345312, Note_on_c, 6, 59, 0
8, 345360, Note_on_c, 6, 59, 58
8, 345552, Note_on_c, 6, 59, 0
8, 345600, Note_on_c, 6, 64, 58
8, 345792, Note_on_c, 6, 64, 0
8, 345840, Note_on_c, 6, 64, 58
8, 346032, Note_on_c, 6, 64, 0
8, 346080, Note_on_c, 6, 64, 58
8, 346272, Note_on_c, 6, 64, 0
8, 346320, Note_on_c, 6, 64, 58
8, 346512, Note_on_c, 6, 64, 0
8, 346560, Note_on_c, 6, 66, 58
8, 346752, Note_on_c, 6, 66, 0
8, 346800, Note_on_c, 6, 66, 58
8, 346992, Note_on_c, 6, 66, 0
8, 347040, Note_on_c, 6, 66, 58
8, 347232, Note_on_c, 6, 66, 0
8, 347280, Note_on_c, 6, 66, 58
8, 347472, Note_on_c, 6, 66, 0
8, 347520, Note_on_c, 6, 67, 58
8, 347760, Note_on_c, 6, 67, 0
8, 347760, Note_on_c, 6, 59, 58
8, 348000, Note_on_c, 6, 59, 0
8, 348000, Note_on_c, 6, 62, 58
8, 348240, Note_on_c, 6, 62, 0
8, 348240, Note_on_c, 6, 67, 58
8, 348432, Note_on_c, 6, 67, 0
8, 348480, Note_on_c, 6, 66, 58
8, 349440, Note_on_c, 6, 66, 0
8, 349440, Note_on_c, 6, 67, 58
8, 349632, Note_on_c, 6, 67, 0
8, 349680, Note_on_c, 6, 55, 58
8, 349920, Note_on_c, 6, 55, 0
8, 349920, Note_on_c, 6, 59, 58
8, 350160, Note_on_c, 6, 59, 0
8, 350160, Note_on_c, 6, 62, 58
8, 350352, Note_on_c, 6, 62, 0
8, 350400, Note_on_c, 6, 64, 58
8, 351360, Note_on_c, 6, 64, 0
8, 351360, Note_on_c, 6, 62, 58
8, 351552, Note_on_c, 6, 62, 0
8, 351600, Note_on_c, 6, 74, 58
8, 351840, Note_on_c, 6, 74, 0
8, 351840, Note_on_c, 6, 71, 58
8, 352080, Note_on_c, 6, 71, 0
8, 352080, Note_on_c, 6, 67, 58
8, 352272, Note_on_c, 6, 67, 0
8, 352320, Note_on_c, 6, 62, 58
8, 353088, Note_on_c, 6, 62, 0
8, 353280, Note_on_c, 6, 62, 78
8, 353520, Note_on_c, 6, 62, 0
8, 353520, Note_on_c, 6, 64, 105
8, 353676, Note_on_c, 6, 64, 0
8, 353760, Note_on_c, 6, 66, 105
8, 353916, Note_on_c, 6, 66, 0
8, 354000, Note_on_c, 6, 67, 105
8, 354156, Note_on_c, 6, 67, 0
8, 354240, Note_on_c, 6, 66, 105
8, 354480, Note_on_c, 6, 66, 0
8, 354480, Note_on_c, 6, 64, 105
8, 354636, Note_on_c, 6, 64, 0
8, 354720, Note_on_c, 6, 62, 105
8, 354876, Note_on_c, 6, 62, 0
8, 354960, Note_on_c, 6, 60, 105
8, 355116, Note_on_c, 6, 60, 0
8, 355200, Note_on_c, 6, 59, 105
8, 355440, Note_on_c, 6, 59, 0
8, 355440, Note_on_c, 6, 62, 105
8, 355596, Note_on_c, 6, 62, 0
8, 355680, Note_on_c, 6, 67, 105
8, 355836, Note_on_c, 6, 67, 0
8, 355920, Note_on_c, 6, 71, 105
8, 356076, Note_on_c, 6, 71, 0
8, 356160, Note_on_c, 6, 74, 105
8, 356400, Note_on_c, 6, 74, 0
8, 356400, Note_on_c, 6, 72, 105
8, 356556, Note_on_c, 6, 72, 0
8, 356640, Note_on_c, 6, 71, 105
8, 356796, Note_on_c, 6, 71, 0
8, 356880, Note_on_c, 6, 69, 105
8, 357036, Note_on_c, 6, 69, 0
8, 357120, Note_on_c, 6, 69, 105
8, 357360, Note_on_c, 6, 69, 0
8, 357360, Note_on_c, 6, 67, 105
8, 357516, Note_on_c, 6, 67, 0
8, 357600, Note_on_c, 6, 67, 105
8, 357756, Note_on_c, 6, 67, 0
8, 357840, Note_on_c, 6, 67, 105
8, 357996, Note_on_c, 6, 67, 0
8, 358080, Note_on_c, 6, 67, 105
8, 358320, Note_on_c, 6, 67, 0
8, 358320, Note_on_c, 6, 71, 105
8, 358476, Note_on_c, 6, 71, 0
8, 358560, Note_on_c, 6, 69, 105
8, 358716, Note_on_c, 6, 69, 0
8, 358800, Note_on_c, 6, 66, 105
8, 358956, Note_on_c, 6, 66, 0
8, 359040, Note_on_c, 6, 67, 110
8, 359232, Note_on_c, 6, 67, 0
8, 359280, Note_on_c, 6, 59, 58
8, 359472, Note_on_c, 6, 59, 0
8, 359520, Note_on_c, 6, 59, 58
8, 359712, Note_on_c, 6, 59, 0
8, 359760, Note_on_c, 6, 59, 58
8, 359952, Note_on_c, 6, 59, 0
8, 360000, Note_on_c, 6, 59, 58
8, 360192, Note_on_c, 6, 59, 0
8, 360240, Note_on_c, 6, 59, 58
8, 360432, Note_on_c, 6, 59, 0
8, 360480, Note_on_c, 6, 59, 58
8, 360672, Note_on_c, 6, 59, 0
8, 360720, Note_on_c, 6, 59, 58
8, 360912, Note_on_c, 6, 59, 0
8, 360960, Note_on_c, 6, 59, 58
8, 361152, Note_on_c, 6, 59, 0
8, 361200, Note_on_c, 6, 59, 58
8, 361392, Note_on_c, 6, 59, 0
8, 361440, Note_on_c, 6, 59, 58
8, 361632, Note_on_c, 6, 59, 0
8, 361680, Note_on_c, 6, 59, 58
8, 361872, Note_on_c, 6, 59, 0
8, 361920, Note_on_c, 6, 57, 58
8, 362112, Note_on_c, 6, 57, 0
8, 362160, Note_on_c, 6, 57, 58
8, 362352, Note_on_c, 6, 57, 0
8, 362400, Note_on_c, 6, 59, 58
8, 362592, Note_on_c, 6, 59, 0
8, 362640, Note_on_c, 6, 59, 58
8, 362832, Note_on_c, 6, 59, 0
8, 362880, Note_on_c, 6, 60, 58
8, 363072, Note_on_c, 6, 60, 0
8, 363120, Note_on_c, 6, 60, 58
8, 363312, Note_on_c, 6, 60, 0
8, 363360, Note_on_c, 6, 60, 58
8, 363552, Note_on_c, 6, 60, 0
8, 363600, Note_on_c, 6, 60, 58
8, 363792, Note_on_c, 6, 60, 0
8, 363840, Note_on_c, 6, 60, 58
8, 364032, Note_on_c, 6, 60, 0
8, 364080, Note_on_c, 6, 60, 58
8, 364272, Note_on_c, 6, 60, 0
8, 364320, Note_on_c, 6, 60, 58
8, 364512, Note_on_c, 6, 60, 0
8, 364560, Note_on_c, 6, 60, 58
8, 364752, Note_on_c, 6, 60, 0
8, 364800, Note_on_c, 6, 60, 58
8, 364992, Note_on_c, 6, 60, 0
8, 365040, Note_on_c, 6, 60, 58
8, 365232, Note_on_c, 6, 60, 0
8, 365280, Note_on_c, 6, 67, 58
8, 365472, Note_on_c, 6, 67, 0
8, 365520, Note_on_c, 6, 67, 58
8, 365712, Note_on_c, 6, 67, 0
8, 365760, Note_on_c, 6, 65, 58
8, 365952, Note_on_c, 6, 65, 0
8, 366000, Note_on_c, 6, 65, 58
8, 366192, Note_on_c, 6, 65, 0
8, 366240, Note_on_c, 6, 64, 58
8, 366432, Note_on_c, 6, 64, 0
8, 366480, Note_on_c, 6, 64, 58
8, 366672, Note_on_c, 6, 64, 0
8, 366720, Note_on_c, 6, 62, 58
8, 366912, Note_on_c, 6, 62, 0
8, 366960, Note_on_c, 6, 62, 58
8, 367152, Note_on_c, 6, 62, 0
8, 367200, Note_on_c, 6, 62, 58
8, 367392, Note_on_c, 6, 62, 0
8, 367440, Note_on_c, 6, 62, 58
8, 367632, Note_on_c, 6, 62, 0
8, 367680, Note_on_c, 6, 62, 58
8, 367872, Note_on_c, 6, 62, 0
8, 367920, Note_on_c, 6, 62, 58
8, 368112, Note_on_c, 6, 62, 0
8, 368160, Note_on_c, 6, 62, 58
8, 368352, Note_on_c, 6, 62, 0
8, 368400, Note_on_c, 6, 62, 58
8, 368592, Note_on_c, 6, 62, 0
8, 368640, Note_on_c, 6, 59, 58
8, 368832, Note_on_c, 6, 59, 0
8, 368880, Note_on_c, 6, 59, 58
8, 369072, Note_on_c, 6, 59, 0
8, 369120, Note_on_c, 6, 60, 58
8, 369312, Note_on_c, 6, 60, 0
8, 369360, Note_on_c, 6, 60, 58
8, 369552, Note_on_c, 6, 60, 0
8, 369600, Note_on_c, 6, 62, 58
8, 369792, Note_on_c, 6, 62, 0
8, 369840, Note_on_c, 6, 62, 58
8, 370032, Note_on_c, 6, 62, 0
8, 370080, Note_on_c, 6, 64, 58
8, 370272, Note_on_c, 6, 64, 0
8, 370320, Note_on_c, 6, 64, 58
8, 370512, Note_on_c, 6, 64, 0
8, 370560, Note_on_c, 6, 65, 58
8, 370944, Note_on_c, 6, 65, 0
8, 371760, Note_on_c, 6, 55, 92
8, 371904, Note_on_c, 6, 55, 0
8, 372000, Note_on_c, 6, 59, 92
8, 372144, Note_on_c, 6, 59, 0
8, 372240, Note_on_c, 6, 62, 92
8, 372384, Note_on_c, 6, 62, 0
8, 372480, Note_on_c, 6, 65, 92
8, 372768, Note_on_c, 6, 65, 0
8, 372960, Note_on_c, 6, 65, 92
8, 373248, Note_on_c, 6, 65, 0
8, 373440, Note_on_c, 6, 65, 92
8, 373728, Note_on_c, 6, 65, 0
8, 373920, Note_on_c, 6, 65, 92
8, 374208, Note_on_c, 6, 65, 0
8, 374400, Note_on_c, 6, 56, 92
8, 374784, Note_on_c, 6, 56, 0
8, 376320, Note_on_c, 6, 74, 58
8, 376608, Note_on_c, 6, 74, 0
8, 376800, Note_on_c, 6, 74, 58
8, 377088, Note_on_c, 6, 74, 0
8, 377280, Note_on_c, 6, 73, 58
8, 377568, Note_on_c, 6, 73, 0
8, 378240, Note_on_c, 6, 72, 58
8, 378528, Note_on_c, 6, 72, 0
8, 378720, Note_on_c, 6, 72, 58
8, 379008, Note_on_c, 6, 72, 0
8, 379200, Note_on_c, 6, 71, 58
8, 379488, Note_on_c, 6, 71, 0
8, 380160, Note_on_c, 6, 67, 58
8, 380448, Note_on_c, 6, 67, 0
8, 380640, Note_on_c, 6, 67, 58
8, 380928, Note_on_c, 6, 67, 0
8, 381120, Note_on_c, 6, 67, 58
8, 381408, Note_on_c, 6, 67, 0
8, 381600, Note_on_c, 6, 67, 58
8, 381888, Note_on_c, 6, 67, 0
8, 382080, Note_on_c, 6, 66, 58
8, 382464, Note_on_c, 6, 66, 0
8, 383280, Note_on_c, 6, 62, 92
8, 383424, Note_on_c, 6, 62, 0
8, 383520, Note_on_c, 6, 66, 92
8, 383664, Note_on_c, 6, 66, 0
8, 383760, Note_on_c, 6, 69, 92
8, 383904, Note_on_c, 6, 69, 0
8, 384000, Note_on_c, 6, 72, 92
8, 384288, Note_on_c, 6, 72, 0
8, 384480, Note_on_c, 6, 72, 92
8, 384768, Note_on_c, 6, 72, 0
8, 384960, Note_on_c, 6, 72, 92
8, 385248, Note_on_c, 6, 72, 0
8, 385440, Note_on_c, 6, 72, 92
8, 385728, Note_on_c, 6, 72, 0
8, 385920, Note_on_c, 6, 62, 92
8, 386304, Note_on_c, 6, 62, 0
8, 387840, Note_on_c, 6, 59, 58
8, 388032, Note_on_c, 6, 59, 0
8, 388080, Note_on_c, 6, 59, 58
8, 388272, Note_on_c, 6, 59, 0
8, 388320, Note_on_c, 6, 62, 58
8, 388512, Note_on_c, 6, 62, 0
8, 388560, Note_on_c, 6, 62, 58
8, 388752, Note_on_c, 6, 62, 0
8, 388800, Note_on_c, 6, 67, 58
8, 388992, Note_on_c, 6, 67, 0
8, 389040, Note_on_c, 6, 67, 58
8, 389232, Note_on_c, 6, 67, 0
8, 389280, Note_on_c, 6, 71, 58
8, 389472, Note_on_c, 6, 71, 0
8, 389520, Note_on_c, 6, 71, 58
8, 389712, Note_on_c, 6, 71, 0
8, 389760, Note_on_c, 6, 72, 58
8, 389952, Note_on_c, 6, 72, 0
8, 390000, Note_on_c, 6, 72, 58
8, 390192, Note_on_c, 6, 72, 0
8, 390240, Note_on_c, 6, 72, 58
8, 390432, Note_on_c, 6, 72, 0
8, 390480, Note_on_c, 6, 72, 58
8, 390672, Note_on_c, 6, 72, 0
8, 390720, Note_on_c, 6, 71, 58
8, 390912, Note_on_c, 6, 71, 0
8, 390960, Note_on_c, 6, 71, 58
8, 391152, Note_on_c, 6, 71, 0
8, 391200, Note_on_c, 6, 71, 58
8, 391392, Note_on_c, 6, 71, 0
8, 391440, Note_on_c, 6, 71, 58
8, 391632, Note_on_c, 6, 71, 0
8, 391680, Note_on_c, 6, 69, 58
8, 391872, Note_on_c, 6, 69, 0
8, 391920, Note_on_c, 6, 69, 58
8, 392112, Note_on_c, 6, 69, 0
8, 392160, Note_on_c, 6, 69, 58
8, 392352, Note_on_c, 6, 69, 0
8, 392400, Note_on_c, 6, 69, 58
8, 392592, Note_on_c, 6, 69, 0
8, 392640, Note_on_c, 6, 67, 58
8, 392832, Note_on_c, 6, 67, 0
8, 392880, Note_on_c, 6, 67, 58
8, 393072, Note_on_c, 6, 67, 0
8, 393120, Note_on_c, 6, 67, 58
8, 393312, Note_on_c, 6, 67, 0
8, 393360, Note_on_c, 6, 67, 58
8, 393552, Note_on_c, 6, 67, 0
8, 393600, Note_on_c, 6, 66, 58
8, 393792, Note_on_c, 6, 66, 0
8, 393840, Note_on_c, 6, 71, 58
8, 394032, Note_on_c, 6, 71, 0
8, 394080, Note_on_c, 6, 69, 58
8, 394272, Note_on_c, 6, 69, 0
8, 394320, Note_on_c, 6, 67, 58
8, 394512, Note_on_c, 6, 67, 0
8, 394560, Note_on_c, 6, 66, 58
8, 394752, Note_on_c, 6, 66, 0
8, 394800, Note_on_c, 6, 64, 58
8, 394992, Note_on_c, 6, 64, 0
8, 395040, Note_on_c, 6, 62, 58
8, 395232, Note_on_c, 6, 62, 0
8, 395280, Note_on_c, 6, 60, 58
8, 395472, Note_on_c, 6, 60, 0
8, 395520, Note_on_c, 6, 59, 58
8, 395712, Note_on_c, 6, 59, 0
8, 395760, Note_on_c, 6, 59, 58
8, 395952, Note_on_c, 6, 59, 0
8, 396000, Note_on_c, 6, 62, 58
8, 396192, Note_on_c, 6, 62, 0
8, 396240, Note_on_c, 6, 62, 58
8, 396432, Note_on_c, 6, 62, 0
8, 396480, Note_on_c, 6, 67, 58
8, 396672, Note_on_c, 6, 67, 0
8, 396720, Note_on_c, 6, 67, 58
8, 396912, Note_on_c, 6, 67, 0
8, 396960, Note_on_c, 6, 71, 58
8, 397152, Note_on_c, 6, 71, 0
8, 397200, Note_on_c, 6, 71, 58
8, 397392, Note_on_c, 6, 71, 0
8, 397440, Note_on_c, 6, 72, 58
8, 397632, Note_on_c, 6, 72, 0
8, 397680, Note_on_c, 6, 72, 58
8, 397872, Note_on_c, 6, 72, 0
8, 397920, Note_on_c, 6, 72, 58
8, 398112, Note_on_c, 6, 72, 0
8, 398160, Note_on_c, 6, 72, 58
8, 398352, Note_on_c, 6, 72, 0
8, 398400, Note_on_c, 6, 71, 58
8, 398592, Note_on_c, 6, 71, 0
8, 398640, Note_on_c, 6, 71, 58
8, 398832, Note_on_c, 6, 71, 0
8, 398880, Note_on_c, 6, 71, 58
8, 399072, Note_on_c, 6, 71, 0
8, 399120, Note_on_c, 6, 71, 58
8, 399312, Note_on_c, 6, 71, 0
8, 399360, Note_on_c, 6, 76, 58
8, 399552, Note_on_c, 6, 76, 0
8, 399600, Note_on_c, 6, 76, 58
8, 399792, Note_on_c, 6, 76, 0
8, 399840, Note_on_c, 6, 76, 58
8, 400032, Note_on_c, 6, 76, 0
8, 400080, Note_on_c, 6, 76, 58
8, 400272, Note_on_c, 6, 76, 0
8, 400320, Note_on_c, 6, 72, 58
8, 400512, Note_on_c, 6, 72, 0
8, 400560, Note_on_c, 6, 72, 58
8, 400752, Note_on_c, 6, 72, 0
8, 400800, Note_on_c, 6, 72, 58
8, 400992, Note_on_c, 6, 72, 0
8, 401040, Note_on_c, 6, 72, 58
8, 401232, Note_on_c, 6, 72, 0
8, 401280, Note_on_c, 6, 67, 58
8, 401568, Note_on_c, 6, 67, 0
8, 401760, Note_on_c, 6, 67, 58
8, 402240, Note_on_c, 6, 67, 0
8, 402240, Note_on_c, 6, 69, 58
8, 402720, Note_on_c, 6, 69, 0
8, 402720, Note_on_c, 6, 71, 58
8, 403008, Note_on_c, 6, 71, 0
8, 403680, Note_on_c, 6, 69, 58
8, 404160, Note_on_c, 6, 69, 0
8, 404160, Note_on_c, 6, 67, 58
8, 404640, Note_on_c, 6, 67, 0
8, 404640, Note_on_c, 6, 66, 58
8, 404928, Note_on_c, 6, 66, 0
8, 405600, Note_on_c, 6, 67, 58
8, 406080, Note_on_c, 6, 67, 0
8, 406080, Note_on_c, 6, 69, 58
8, 406560, Note_on_c, 6, 69, 0
8, 406560, Note_on_c, 6, 71, 58
8, 406944, Note_on_c, 6, 71, 0
8, 407520, Note_on_c, 6, 69, 58
8, 408000, Note_on_c, 6, 69, 0
8, 408000, Note_on_c, 6, 67, 58
8, 408480, Note_on_c, 6, 67, 0
8, 408480, Note_on_c, 6, 66, 58
8, 408768, Note_on_c, 6, 66, 0
8, 409440, Note_on_c, 6, 67, 58
8, 409920, Note_on_c, 6, 67, 0
8, 409920, Note_on_c, 6, 69, 58
8, 410400, Note_on_c, 6, 69, 0
8, 410400, Note_on_c, 6, 71, 58
8, 410784, Note_on_c, 6, 71, 0
8, 411360, Note_on_c, 6, 69, 58
8, 411840, Note_on_c, 6, 69, 0
8, 411840, Note_on_c, 6, 66, 58
8, 412128, Note_on_c, 6, 66, 0
8, 412320, Note_on_c, 6, 72, 58
8, 412608, Note_on_c, 6, 72, 0
8, 412800, Note_on_c, 6, 71, 58
8, 413568, Note_on_c, 6, 71, 0
8, 413760, Note_on_c, 6, 74, 58
8, 414000, Note_on_c, 6, 74, 0
8, 414000, Note_on_c, 6, 72, 58
8, 414240, Note_on_c, 6, 72, 0
8, 414240, Note_on_c, 6, 71, 58
8, 414480, Note_on_c, 6, 71, 0
8, 414480, Note_on_c, 6, 69, 58
8, 414672, Note_on_c, 6, 69, 0
8, 414720, Note_on_c, 6, 67, 58
8, 414960, Note_on_c, 6, 67, 0
8, 414960, Note_on_c, 6, 69, 58
8, 415200, Note_on_c, 6, 69, 0
8, 415200, Note_on_c, 6, 70, 58
8, 415440, Note_on_c, 6, 70, 0
8, 415440, Note_on_c, 6, 71, 58
8, 415632, Note_on_c, 6, 71, 0
8, 415680, Note_on_c, 6, 71, 58
8, 415920, Note_on_c, 6, 71, 0
8, 415920, Note_on_c, 6, 69, 58
8, 416160, Note_on_c, 6, 69, 0
8, 416160, Note_on_c, 6, 67, 58
8, 416400, Note_on_c, 6, 67, 0
8, 416400, Note_on_c, 6, 66, 58
8, 416592, Note_on_c, 6, 66, 0
8, 416640, Note_on_c, 6, 67, 58
8, 417096, Note_on_c, 6, 67, 0
8, 418080, Note_on_c, 6, 79, 105
8, 418368, Note_on_c, 6, 79, 0
8, 418560, Note_on_c, 6, 78, 105
8, 418848, Note_on_c, 6, 78, 0
8, 419040, Note_on_c, 6, 79, 105
8, 419328, Note_on_c, 6, 79, 0
8, 419520, Note_on_c, 6, 81, 105
8, 420240, Note_on_c, 6, 81, 0
8, 420240, Note_on_c, 6, 83, 105
8, 420360, Note_on_c, 6, 83, 0
8, 420360, Note_on_c, 6, 84, 125
8, 420432, Note_on_c, 6, 84, 0
8, 420480, Note_on_c, 6, 82, 105
8, 420960, Note_on_c, 6, 82, 0
8, 420960, Note_on_c, 6, 83, 105
8, 421344, Note_on_c, 6, 83, 0
8, 421920, Note_on_c, 6, 79, 105
8, 422208, Note_on_c, 6, 79, 0
8, 422400, Note_on_c, 6, 78, 105
8, 422688, Note_on_c, 6, 78, 0
8, 422880, Note_on_c, 6, 79, 105
8, 423168, Note_on_c, 6, 79, 0
8, 423360, Note_on_c, 6, 81, 105
8, 424080, Note_on_c, 6, 81, 0
8, 424080, Note_on_c, 6, 83, 105
8, 424200, Note_on_c, 6, 83, 0
8, 424200, Note_on_c, 6, 84, 125
8, 424272, Note_on_c, 6, 84, 0
8, 424320, Note_on_c, 6, 82, 105
8, 424800, Note_on_c, 6, 82, 0
8, 424800, Note_on_c, 6, 83, 105
8, 425184, Note_on_c, 6, 83, 0
8, 425760, Note_on_c, 6, 79, 105
8, 426048, Note_on_c, 6, 79, 0
8, 426240, Note_on_c, 6, 78, 105
8, 426528, Note_on_c, 6, 78, 0
8, 426720, Note_on_c, 6, 79, 105
8, 427008, Note_on_c, 6, 79, 0
8, 427200, Note_on_c, 6, 81, 105
8, 427920, Note_on_c, 6, 81, 0
8, 427920, Note_on_c, 6, 83, 105
8, 428040, Note_on_c, 6, 83, 0
8, 428040, Note_on_c, 6, 84, 125
8, 428112, Note_on_c, 6, 84, 0
8, 428160, Note_on_c, 6, 83, 105
8, 428400, Note_on_c, 6, 83, 0
8, 428400, Note_on_c, 6, 79, 105
8, 428544, Note_on_c, 6, 79, 0
8, 428640, Note_on_c, 6, 79, 105
8, 428784, Note_on_c, 6, 79, 0
8, 428880, Note_on_c, 6, 79, 105
8, 429024, Note_on_c, 6, 79, 0
8, 429120, Note_on_c, 6, 79, 105
8, 429360, Note_on_c, 6, 79, 0
8, 429360, Note_on_c, 6, 71, 105
8, 429504, Note_on_c, 6, 71, 0
8, 429600, Note_on_c, 6, 71, 105
8, 429744, Note_on_c, 6, 71, 0
8, 429840, Note_on_c, 6, 71, 105
8, 429984, Note_on_c, 6, 71, 0
8, 430080, Note_on_c, 6, 76, 105
8, 430320, Note_on_c, 6, 76, 0
8, 430320, Note_on_c, 6, 72, 105
8, 430464, Note_on_c, 6, 72, 0
8, 430560, Note_on_c, 6, 72, 105
8, 430704, Note_on_c, 6, 72, 0
8, 430800, Note_on_c, 6, 72, 105
8, 430944, Note_on_c, 6, 72, 0
8, 431040, Note_on_c, 6, 71, 105
8, 431280, Note_on_c, 6, 71, 0
8, 431280, Note_on_c, 6, 67, 105
8, 431424, Note_on_c, 6, 67, 0
8, 431520, Note_on_c, 6, 69, 105
8, 431760, Note_on_c, 6, 69, 0
8, 431760, Note_on_c, 6, 66, 105
8, 431904, Note_on_c, 6, 66, 0
8, 432000, Note_on_c, 6, 67, 125
8, 432180, Note_on_c, 6, 67, 0
8, 432240, Note_on_c, 6, 67, 105
8, 432240, Note_on_c, 6, 55, 105
8, 432420, Note_on_c, 6, 55, 0
8, 432420, Note_on_c, 6, 67, 0
8, 432480, Note_on_c, 6, 55, 105
8, 432480, Note_on_c, 6, 67, 105
8, 432660, Note_on_c, 6, 67, 0
8, 432660, Note_on_c, 6, 55, 0
8, 432720, Note_on_c, 6, 67, 105
8, 432720, Note_on_c, 6, 55, 105
8, 432900, Note_on_c, 6, 55, 0
8, 432900, Note_on_c, 6, 67, 0
8, 432960, Note_on_c, 6, 67, 105
8, 432960, Note_on_c, 6, 55, 105
8, 433140, Note_on_c, 6, 55, 0
8, 433140, Note_on_c, 6, 67, 0
8, 433200, Note_on_c, 6, 55, 105
8, 433200, Note_on_c, 6, 67, 105
8, 433380, Note_on_c, 6, 67, 0
8, 433380, Note_on_c, 6, 55, 0
8, 433440, Note_on_c, 6, 67, 105
8, 433440, Note_on_c, 6, 55, 105
8, 433620, Note_on_c, 6, 55, 0
8, 433620, Note_on_c, 6, 67, 0
8, 433680, Note_on_c, 6, 67, 105
8, 433680, Note_on_c, 6, 55, 105
8, 433860, Note_on_c, 6, 55, 0
8, 433860, Note_on_c, 6, 67, 0
8, 433920, Note_on_c, 6, 67, 105
8, 433920, Note_on_c, 6, 55, 105
8, 434100, Note_on_c, 6, 55, 0
8, 434100, Note_on_c, 6, 67, 0
8, 434160, Note_on_c, 6, 55, 105
8, 434160, Note_on_c, 6, 67, 105
8, 434340, Note_on_c, 6, 67, 0
8, 434340, Note_on_c, 6, 55, 0
8, 434400, Note_on_c, 6, 67, 105
8, 434400, Note_on_c, 6, 55, 105
8, 434580, Note_on_c, 6, 55, 0
8, 434580, Note_on_c, 6, 67, 0
8, 434640, Note_on_c, 6, 55, 105
8, 434640, Note_on_c, 6, 67, 105
8, 434820, Note_on_c, 6, 67, 0
8, 434820, Note_on_c, 6, 55, 0
8, 434880, Note_on_c, 6, 55, 105
8, 434880, Note_on_c, 6, 67, 105
8, 435060, Note_on_c, 6, 67, 0
8, 435060, Note_on_c, 6, 55, 0
8, 435120, Note_on_c, 6, 55, 105
8, 435120, Note_on_c, 6, 67, 105
8, 435300, Note_on_c, 6, 67, 0
8, 435300, Note_on_c, 6, 55, 0
8, 435360, Note_on_c, 6, 67, 105
8, 435360, Note_on_c, 6, 55, 105
8, 435540, Note_on_c, 6, 55, 0
8, 435540, Note_on_c, 6, 67, 0
8, 435600, Note_on_c, 6, 55, 105
8, 435600, Note_on_c, 6, 67, 105
8, 435780, Note_on_c, 6, 67, 0
8, 435780, Note_on_c, 6, 55, 0
8, 435840, Note_on_c, 6, 67, 105
8, 435840, Note_on_c, 6, 55, 105
8, 436020, Note_on_c, 6, 55, 0
8, 436020, Note_on_c, 6, 67, 0
8, 436080, Note_on_c, 6, 55, 105
8, 436080, Note_on_c, 6, 67, 105
8, 436260, Note_on_c, 6, 67, 0
8, 436260, Note_on_c, 6, 55, 0
8, 436320, Note_on_c, 6, 55, 105
8, 436320, Note_on_c, 6, 67, 105
8, 436500, Note_on_c, 6, 67, 0
8, 436500, Note_on_c, 6, 55, 0
8, 436560, Note_on_c, 6, 55, 105
8, 436560, Note_on_c, 6, 67, 105
8, 436740, Note_on_c, 6, 67, 0
8, 436740, Note_on_c, 6, 55, 0
8, 436800, Note_on_c, 6, 67, 105
8, 436800, Note_on_c, 6, 55, 105
8, 436980, Note_on_c, 6, 55, 0
8, 436980, Note_on_c, 6, 67, 0
8, 437040, Note_on_c, 6, 55, 105
8, 437040, Note_on_c, 6, 67, 105
8, 437220, Note_on_c, 6, 67, 0
8, 437220, Note_on_c, 6, 55, 0
8, 437280, Note_on_c, 6, 67, 105
8, 437280, Note_on_c, 6, 55, 105
8, 437460, Note_on_c, 6, 55, 0
8, 437460, Note_on_c, 6, 67, 0
8, 437520, Note_on_c, 6, 67, 105
8, 437520, Note_on_c, 6, 55, 105
8, 437700, Note_on_c, 6, 55, 0
8, 437700, Note_on_c, 6, 67, 0
8, 437760, Note_on_c, 6, 67, 105
8, 437760, Note_on_c, 6, 55, 105
8, 437940, Note_on_c, 6, 55, 0
8, 437940, Note_on_c, 6, 67, 0
8, 438000, Note_on_c, 6, 67, 105
8, 438000, Note_on_c, 6, 55, 105
8, 438180, Note_on_c, 6, 55, 0
8, 438180, Note_on_c, 6, 67, 0
8, 438240, Note_on_c, 6, 67, 105
8, 438240, Note_on_c, 6, 55, 105
8, 438420, Note_on_c, 6, 55, 0
8, 438420, Note_on_c, 6, 67, 0
8, 438480, Note_on_c, 6, 55, 105
8, 438480, Note_on_c, 6, 67, 105
8, 438660, Note_on_c, 6, 67, 0
8, 438660, Note_on_c, 6, 55, 0
8, 438720, Note_on_c, 6, 67, 105
8, 438720, Note_on_c, 6, 55, 105
8, 438900, Note_on_c, 6, 55, 0
8, 438900, Note_on_c, 6, 67, 0
8, 438960, Note_on_c, 6, 55, 105
8, 438960, Note_on_c, 6, 67, 105
8, 439140, Note_on_c, 6, 67, 0
8, 439140, Note_on_c, 6, 55, 0
8, 439200, Note_on_c, 6, 55, 105
8, 439200, Note_on_c, 6, 67, 105
8, 439380, Note_on_c, 6, 67, 0
8, 439380, Note_on_c, 6, 55, 0
8, 439440, Note_on_c, 6, 67, 105
8, 439440, Note_on_c, 6, 55, 105
8, 439620, Note_on_c, 6, 55, 0
8, 439620, Note_on_c, 6, 67, 0
8, 439680, Note_on_c, 6, 55, 105
8, 439680, Note_on_c, 6, 67, 105
8, 439860, Note_on_c, 6, 67, 0
8, 439860, Note_on_c, 6, 55, 0
8, 439920, Note_on_c, 6, 55, 105
8, 439920, Note_on_c, 6, 67, 105
8, 440100, Note_on_c, 6, 67, 0
8, 440100, Note_on_c, 6, 55, 0
8, 440160, Note_on_c, 6, 55, 105
8, 440160, Note_on_c, 6, 67, 105
8, 440340, Note_on_c, 6, 67, 0
8, 440340, Note_on_c, 6, 55, 0
8, 440400, Note_on_c, 6, 67, 105
8, 440400, Note_on_c, 6, 55, 105
8, 440580, Note_on_c, 6, 55, 0
8, 440580, Note_on_c, 6, 67, 0
8, 440640, Note_on_c, 6, 67, 105
8, 440640, Note_on_c, 6, 55, 105
8, 440820, Note_on_c, 6, 55, 0
8, 440820, Note_on_c, 6, 67, 0
8, 440880, Note_on_c, 6, 55, 105
8, 440880, Note_on_c, 6, 67, 105
8, 441060, Note_on_c, 6, 67, 0
8, 441060, Note_on_c, 6, 55, 0
8, 441120, Note_on_c, 6, 67, 105
8, 441120, Note_on_c, 6, 55, 105
8, 441300, Note_on_c, 6, 55, 0
8, 441300, Note_on_c, 6, 67, 0
8, 441360, Note_on_c, 6, 55, 105
8, 441360, Note_on_c, 6, 67, 105
8, 441540, Note_on_c, 6, 67, 0
8, 441540, Note_on_c, 6, 55, 0
8, 441600, Note_on_c, 6, 67, 105
8, 441600, Note_on_c, 6, 55, 105
8, 441780, Note_on_c, 6, 55, 0
8, 441780, Note_on_c, 6, 67, 0
8, 441840, Note_on_c, 6, 55, 105
8, 441840, Note_on_c, 6, 67, 105
8, 442020, Note_on_c, 6, 67, 0
8, 442020, Note_on_c, 6, 55, 0
8, 442080, Note_on_c, 6, 55, 105
8, 442080, Note_on_c, 6, 67, 105
8, 442260, Note_on_c, 6, 67, 0
8, 442260, Note_on_c, 6, 55, 0
8, 442320, Note_on_c, 6, 67, 105
8, 442320, Note_on_c, 6, 55, 105
8, 442500, Note_on_c, 6, 55, 0
8, 442500, Note_on_c, 6, 67, 0
8, 442560, Note_on_c, 6, 67, 105
8, 442560, Note_on_c, 6, 55, 105
8, 442740, Note_on_c, 6, 55, 0
8, 442740, Note_on_c, 6, 67, 0
8, 442800, Note_on_c, 6, 67, 105
8, 442800, Note_on_c, 6, 55, 105
8, 442980, Note_on_c, 6, 55, 0
8, 442980, Note_on_c, 6, 67, 0
8, 443040, Note_on_c, 6, 55, 105
8, 443040, Note_on_c, 6, 67, 105
8, 443220, Note_on_c, 6, 67, 0
8, 443220, Note_on_c, 6, 55, 0
8, 443280, Note_on_c, 6, 67, 105
8, 443280, Note_on_c, 6, 55, 105
8, 443460, Note_on_c, 6, 55, 0
8, 443460, Note_on_c, 6, 67, 0
8, 443520, Note_on_c, 6, 67, 105
8, 443520, Note_on_c, 6, 55, 105
8, 443700, Note_on_c, 6, 55, 0
8, 443700, Note_on_c, 6, 67, 0
8, 443760, Note_on_c, 6, 67, 105
8, 443760, Note_on_c, 6, 55, 105
8, 443940, Note_on_c, 6, 55, 0
8, 443940, Note_on_c, 6, 67, 0
8, 444000, Note_on_c, 6, 67, 105
8, 444000, Note_on_c, 6, 55, 105
8, 444180, Note_on_c, 6, 55, 0
8, 444180, Note_on_c, 6, 67, 0
8, 444240, Note_on_c, 6, 67, 105
8, 444240, Note_on_c, 6, 55, 105
8, 444420, Note_on_c, 6, 55, 0
8, 444420, Note_on_c, 6, 67, 0
8, 444480, Note_on_c, 6, 55, 105
8, 444480, Note_on_c, 6, 67, 105
8, 444660, Note_on_c, 6, 67, 0
8, 444660, Note_on_c, 6, 55, 0
8, 444720, Note_on_c, 6, 55, 105
8, 444720, Note_on_c, 6, 67, 105
8, 444900, Note_on_c, 6, 67, 0
8, 444900, Note_on_c, 6, 55, 0
8, 444960, Note_on_c, 6, 55, 105
8, 444960, Note_on_c, 6, 67, 105
8, 445140, Note_on_c, 6, 67, 0
8, 445140, Note_on_c, 6, 55, 0
8, 445200, Note_on_c, 6, 55, 105
8, 445200, Note_on_c, 6, 67, 105
8, 445380, Note_on_c, 6, 67, 0
8, 445380, Note_on_c, 6, 55, 0
8, 445440, Note_on_c, 6, 67, 105
8, 445440, Note_on_c, 6, 55, 105
8, 445620, Note_on_c, 6, 55, 0
8, 445620, Note_on_c, 6, 67, 0
8, 445680, Note_on_c, 6, 55, 105
8, 445680, Note_on_c, 6, 67, 105
8, 445860, Note_on_c, 6, 67, 0
8, 445860, Note_on_c, 6, 55, 0
8, 445920, Note_on_c, 6, 55, 105
8, 445920, Note_on_c, 6, 67, 105
8, 446100, Note_on_c, 6, 67, 0
8, 446100, Note_on_c, 6, 55, 0
8, 446160, Note_on_c, 6, 55, 105
8, 446160, Note_on_c, 6, 67, 105
8, 446340, Note_on_c, 6, 67, 0
8, 446340, Note_on_c, 6, 55, 0
8, 446400, Note_on_c, 6, 55, 105
8, 446400, Note_on_c, 6, 67, 105
8, 446580, Note_on_c, 6, 67, 0
8, 446580, Note_on_c, 6, 55, 0
8, 446640, Note_on_c, 6, 67, 105
8, 446640, Note_on_c, 6, 55, 105
8, 446820, Note_on_c, 6, 55, 0
8, 446820, Note_on_c, 6, 67, 0
8, 446880, Note_on_c, 6, 55, 105
8, 446880, Note_on_c, 6, 67, 105
8, 447060, Note_on_c, 6, 67, 0
8, 447060, Note_on_c, 6, 55, 0
8, 447120, Note_on_c, 6, 55, 105
8, 447120, Note_on_c, 6, 67, 105
8, 447300, Note_on_c, 6, 67, 0
8, 447300, Note_on_c, 6, 55, 0
8, 447360, Note_on_c, 6, 55, 105
8, 447360, Note_on_c, 6, 67, 105
8, 447744, Note_on_c, 6, 67, 0
8, 447744, Note_on_c, 6, 55, 0
8, 448320, Note_on_c, 6, 71, 105
8, 448320, Note_on_c, 6, 79, 105
8, 448320, Note_on_c, 6, 62, 105
8, 448704, Note_on_c, 6, 62, 0
8, 448704, Note_on_c, 6, 79, 0
8, 448704, Note_on_c, 6, 71, 0
8, 449280, Note_on_c, 6, 55, 92
8, 450048, Note_on_c, 6, 55, 0
8, 450048, End_track
9, 0, Start_track
9, 0, Program_c, 7, 41
9, 0, Control_c, 7, 7, 100
9, 0, Control_c, 7, 10, 29
9, 0, Control_c, 7, 91, 85
9, 1920, Note_on_c, 7, 55, 58
9, 2112, Note_on_c, 7, 55, 0
9, 2160, Note_on_c, 7, 55, 58
9, 2352, Note_on_c, 7, 55, 0
9, 2400, Note_on_c, 7, 59, 58
9, 2592, Note_on_c, 7, 59, 0
9, 2640, Note_on_c, 7, 59, 58
9, 2832, Note_on_c, 7, 59, 0
9, 2880, Note_on_c, 7, 62, 58
9, 3072, Note_on_c, 7, 62, 0
9, 3120, Note_on_c, 7, 62, 58
9, 3312, Note_on_c, 7, 62, 0
9, 3360, Note_on_c, 7, 67, 58
9, 3552, Note_on_c, 7, 67, 0
9, 3600, Note_on_c, 7, 67, 58
9, 3792, Note_on_c, 7, 67, 0
9, 3840, Note_on_c, 7, 69, 58
9, 4032, Note_on_c, 7, 69, 0
9, 4080, Note_on_c, 7, 69, 58
9, 4272, Note_on_c, 7, 69, 0
9, 4320, Note_on_c, 7, 69, 58
9, 4512, Note_on_c, 7, 69, 0
9, 4560, Note_on_c, 7, 69, 58
9, 4752, Note_on_c, 7, 69, 0
9, 4800, Note_on_c, 7, 67, 58
9, 4992, Note_on_c, 7, 67, 0
9, 5040, Note_on_c, 7, 67, 58
9, 5232, Note_on_c, 7, 67, 0
9, 5280, Note_on_c, 7, 67, 58
9, 5472, Note_on_c, 7, 67, 0
9, 5520, Note_on_c, 7, 67, 58
9, 5712, Note_on_c, 7, 67, 0
9, 5760, Note_on_c, 7, 62, 58
9, 5952, Note_on_c, 7, 62, 0
9, 6000, Note_on_c, 7, 62, 58
9, 6192, Note_on_c, 7, 62, 0
9, 6240, Note_on_c, 7, 62, 58
9, 6432, Note_on_c, 7, 62, 0
9, 6480, Note_on_c, 7, 62, 58
9, 6672, Note_on_c, 7, 62, 0
9, 6720, Note_on_c, 7, 62, 58
9, 6912, Note_on_c, 7, 62, 0
9, 6960, Note_on_c, 7, 62, 58
9, 7152, Note_on_c, 7, 62, 0
9, 7200, Note_on_c, 7, 62, 58
9, 7392, Note_on_c, 7, 62, 0
9, 7440, Note_on_c, 7, 62, 58
9, 7632, Note_on_c, 7, 62, 0
9, 7680, Note_on_c, 7, 62, 58
9, 7872, Note_on_c, 7, 62, 0
9, 7920, Note_on_c, 7, 67, 58
9, 8112, Note_on_c, 7, 67, 0
9, 8160, Note_on_c, 7, 66, 58
9, 8352, Note_on_c, 7, 66, 0
9, 8400, Note_on_c, 7, 64, 58
9, 8592, Note_on_c, 7, 64, 0
9, 8640, Note_on_c, 7, 62, 58
9, 8832, Note_on_c, 7, 62, 0
9, 8880, Note_on_c, 7, 60, 58
9, 9072, Note_on_c, 7, 60, 0
9, 9120, Note_on_c, 7, 59, 58
9, 9312, Note_on_c, 7, 59, 0
9, 9360, Note_on_c, 7, 57, 58
9, 9552, Note_on_c, 7, 57, 0
9, 9600, Note_on_c, 7, 55, 58
9, 9792, Note_on_c, 7, 55, 0
9, 9840, Note_on_c, 7, 55, 58
9, 10032, Note_on_c, 7, 55, 0
9, 10080, Note_on_c, 7, 59, 58
9, 10272, Note_on_c, 7, 59, 0
9, 10320, Note_on_c, 7, 59, 58
9, 10512, Note_on_c, 7, 59, 0
9, 10560, Note_on_c, 7, 62, 58
9, 10752, Note_on_c, 7, 62, 0
9, 10800, Note_on_c, 7, 62, 58
9, 10992, Note_on_c, 7, 62, 0
9, 11040, Note_on_c, 7, 67, 58
9, 11232, Note_on_c, 7, 67, 0
9, 11280, Note_on_c, 7, 67, 58
9, 11472, Note_on_c, 7, 67, 0
9, 11520, Note_on_c, 7, 69, 58
9, 11712, Note_on_c, 7, 69, 0
9, 11760, Note_on_c, 7, 69, 58
9, 11952, Note_on_c, 7, 69, 0
9, 12000, Note_on_c, 7, 69, 58
9, 12192, Note_on_c, 7, 69, 0
9, 12240, Note_on_c, 7, 69, 58
9, 12432, Note_on_c, 7, 69, 0
9, 12480, Note_on_c, 7, 67, 58
9, 12672, Note_on_c, 7, 67, 0
9, 12720, Note_on_c, 7, 67, 58
9, 12912, Note_on_c, 7, 67, 0
9, 12960, Note_on_c, 7, 67, 58
9, 13152, Note_on_c, 7, 67, 0
9, 13200, Note_on_c, 7, 67, 58
9, 13392, Note_on_c, 7, 67, 0
9, 13440, Note_on_c, 7, 67, 58
9, 13632, Note_on_c, 7, 67, 0
9, 13680, Note_on_c, 7, 67, 58
9, 13872, Note_on_c, 7, 67, 0
9, 13920, Note_on_c, 7, 67, 58
9, 14112, Note_on_c, 7, 67, 0
9, 14160, Note_on_c, 7, 67, 58
9, 14352, Note_on_c, 7, 67, 0
9, 14400, Note_on_c, 7, 66, 58
9, 14592, Note_on_c, 7, 66, 0
9, 14640, Note_on_c, 7, 66, 58
9, 14832, Note_on_c, 7, 66, 0
9, 14880, Note_on_c, 7, 67, 58
9, 15072, Note_on_c, 7, 67, 0
9, 15120, Note_on_c, 7, 69, 58
9, 15312, Note_on_c, 7, 69, 0
9, 15360, Note_on_c, 7, 67, 58
9, 15552, Note_on_c, 7, 67, 0
9, 15600, Note_on_c, 7, 67, 58
9, 15792, Note_on_c, 7, 67, 0
9, 15840, Note_on_c, 7, 66, 58
9, 16032, Note_on_c, 7, 66, 0
9, 16080, Note_on_c, 7, 64, 58
9, 16272, Note_on_c, 7, 64, 0
9, 16320, Note_on_c, 7, 62, 58
9, 16512, Note_on_c, 7, 62, 0
9, 16560, Note_on_c, 7, 60, 58
9, 16752, Note_on_c, 7, 60, 0
9, 16800, Note_on_c, 7, 59, 58
9, 16992, Note_on_c, 7, 59, 0
9, 17040, Note_on_c, 7, 57, 58
9, 17232, Note_on_c, 7, 57, 0
9, 17280, Note_on_c, 7, 55, 58
9, 17472, Note_on_c, 7, 55, 0
9, 17520, Note_on_c, 7, 55, 58
9, 17712, Note_on_c, 7, 55, 0
9, 17760, Note_on_c, 7, 59, 58
9, 17952, Note_on_c, 7, 59, 0
9, 18000, Note_on_c, 7, 59, 58
9, 18192, Note_on_c, 7, 59, 0
9, 18240, Note_on_c, 7, 62, 58
9, 18432, Note_on_c, 7, 62, 0
9, 18480, Note_on_c, 7, 62, 58
9, 18672, Note_on_c, 7, 62, 0
9, 18720, Note_on_c, 7, 67, 58
9, 18912, Note_on_c, 7, 67, 0
9, 18960, Note_on_c, 7, 67, 58
9, 19152, Note_on_c, 7, 67, 0
9, 19200, Note_on_c, 7, 69, 58
9, 19392, Note_on_c, 7, 69, 0
9, 19440, Note_on_c, 7, 69, 58
9, 19632, Note_on_c, 7, 69, 0
9, 19680, Note_on_c, 7, 69, 58
9, 19872, Note_on_c, 7, 69, 0
9, 19920, Note_on_c, 7, 69, 58
9, 20112, Note_on_c, 7, 69, 0
9, 20160, Note_on_c, 7, 67, 58
9, 20352, Note_on_c, 7, 67, 0
9, 20400, Note_on_c, 7, 67, 58
9, 20592, Note_on_c, 7, 67, 0
9, 20640, Note_on_c, 7, 67, 58
9, 20832, Note_on_c, 7, 67, 0
9, 20880, Note_on_c, 7, 67, 58
9, 21072, Note_on_c, 7, 67, 0
9, 21120, Note_on_c, 7, 62, 58
9, 21312, Note_on_c, 7, 62, 0
9, 21360, Note_on_c, 7, 62, 58
9, 21552, Note_on_c, 7, 62, 0
9, 21600, Note_on_c, 7, 62, 58
9, 21792, Note_on_c, 7, 62, 0
9, 21840, Note_on_c, 7, 62, 58
9, 22032, Note_on_c, 7, 62, 0
9, 22080, Note_on_c, 7, 62, 58
9, 22272, Note_on_c, 7, 62, 0
9, 22320, Note_on_c, 7, 62, 58
9, 22512, Note_on_c, 7, 62, 0
9, 22560, Note_on_c, 7, 62, 58
9, 22752, Note_on_c, 7, 62, 0
9, 22800, Note_on_c, 7, 62, 58
9, 22992, Note_on_c, 7, 62, 0
9, 23040, Note_on_c, 7, 62, 58
9, 23232, Note_on_c, 7, 62, 0
9, 23280, Note_on_c, 7, 67, 58
9, 23472, Note_on_c, 7, 67, 0
9, 23520, Note_on_c, 7, 66, 58
9, 23712, Note_on_c, 7, 66, 0
9, 23760, Note_on_c, 7, 64, 58
9, 23952, Note_on_c, 7, 64, 0
9, 24000, Note_on_c, 7, 62, 58
9, 24192, Note_on_c, 7, 62, 0
9, 24240, Note_on_c, 7, 60, 58
9, 24432, Note_on_c, 7, 60, 0
9, 24480, Note_on_c, 7, 59, 58
9, 24672, Note_on_c, 7, 59, 0
9, 24720, Note_on_c, 7, 57, 58
9, 24912, Note_on_c, 7, 57, 0
9, 24960, Note_on_c, 7, 55, 58
9, 25152, Note_on_c, 7, 55, 0
9, 25200, Note_on_c, 7, 55, 58
9, 25392, Note_on_c, 7, 55, 0
9, 25440, Note_on_c, 7, 59, 58
9, 25632, Note_on_c, 7, 59, 0
9, 25680, Note_on_c, 7, 59, 58
9, 25872, Note_on_c, 7, 59, 0
9, 25920, Note_on_c, 7, 62, 58
9, 26112, Note_on_c, 7, 62, 0
9, 26160, Note_on_c, 7, 62, 58
9, 26352, Note_on_c, 7, 62, 0
9, 26400, Note_on_c, 7, 67, 58
9, 26592, Note_on_c, 7, 67, 0
9, 26640, Note_on_c, 7, 67, 58
9, 26832, Note_on_c, 7, 67, 0
9, 26880, Note_on_c, 7, 69, 58
9, 27072, Note_on_c, 7, 69, 0
9, 27120, Note_on_c, 7, 69, 58
9, 27312, Note_on_c, 7, 69, 0
9, 27360, Note_on_c, 7, 69, 58
9, 27552, Note_on_c, 7, 69, 0
9, 27600, Note_on_c, 7, 69, 58
9, 27792, Note_on_c, 7, 69, 0
9, 27840, Note_on_c, 7, 67, 58
9, 28032, Note_on_c, 7, 67, 0
9, 28080, Note_on_c, 7, 67, 58
9, 28272, Note_on_c, 7, 67, 0
9, 28320, Note_on_c, 7, 67, 58
9, 28512, Note_on_c, 7, 67, 0
9, 28560, Note_on_c, 7, 67, 58
9, 28752, Note_on_c, 7, 67, 0
9, 28800, Note_on_c, 7, 67, 58
9, 28992, Note_on_c, 7, 67, 0
9, 29040, Note_on_c, 7, 67, 58
9, 29232, Note_on_c, 7, 67, 0
9, 29280, Note_on_c, 7, 67, 58
9, 29472, Note_on_c, 7, 67, 0
9, 29520, Note_on_c, 7, 67, 58
9, 29712, Note_on_c, 7, 67, 0
9, 29760, Note_on_c, 7, 66, 58
9, 29952, Note_on_c, 7, 66, 0
9, 30000, Note_on_c, 7, 66, 58
9, 30192, Note_on_c, 7, 66, 0
9, 30240, Note_on_c, 7, 67, 58
9, 30432, Note_on_c, 7, 67, 0
9, 30480, Note_on_c, 7, 69, 58
9, 30672, Note_on_c, 7, 69, 0
9, 30720, Note_on_c, 7, 67, 78
9, 30912, Note_on_c, 7, 67, 0
9, 30960, Note_on_c, 7, 62, 105
9, 30960, Note_on_c, 7, 59, 105
9, 31152, Note_on_c, 7, 59, 0
9, 31152, Note_on_c, 7, 62, 0
9, 31200, Note_on_c, 7, 62, 105
9, 31200, Note_on_c, 7, 59, 105
9, 31392, Note_on_c, 7, 59, 0
9, 31392, Note_on_c, 7, 62, 0
9, 31440, Note_on_c, 7, 62, 105
9, 31440, Note_on_c, 7, 59, 105
9, 31632, Note_on_c, 7, 59, 0
9, 31632, Note_on_c, 7, 62, 0
9, 31680, Note_on_c, 7, 62, 105
9, 31680, Note_on_c, 7, 60, 105
9, 31872, Note_on_c, 7, 60, 0
9, 31872, Note_on_c, 7, 62, 0
9, 31920, Note_on_c, 7, 62, 105
9, 31920, Note_on_c, 7, 60, 105
9, 32112, Note_on_c, 7, 60, 0
9, 32112, Note_on_c, 7, 62, 0
9, 32160, Note_on_c, 7, 60, 105
9, 32160, Note_on_c, 7, 62, 105
9, 32352, Note_on_c, 7, 62, 0
9, 32352, Note_on_c, 7, 60, 0
9, 32400, Note_on_c, 7, 62, 105
9, 32400, Note_on_c, 7, 60, 105
9, 32592, Note_on_c, 7, 60, 0
9, 32592, Note_on_c, 7, 62, 0
9, 32640, Note_on_c, 7, 62, 105
9, 32640, Note_on_c, 7, 59, 105
9, 32832, Note_on_c, 7, 59, 0
9, 32832, Note_on_c, 7, 62, 0
9, 32880, Note_on_c, 7, 59, 105
9, 32880, Note_on_c, 7, 62, 105
9, 33072, Note_on_c, 7, 62, 0
9, 33072, Note_on_c, 7, 59, 0
9, 33120, Note_on_c, 7, 59, 105
9, 33120, Note_on_c, 7, 62, 105
9, 33312, Note_on_c, 7, 62, 0
9, 33312, Note_on_c, 7, 59, 0
9, 33360, Note_on_c, 7, 59, 105
9, 33360, Note_on_c, 7, 62, 105
9, 33552, Note_on_c, 7, 62, 0
9, 33552, Note_on_c, 7, 59, 0
9, 33600, Note_on_c, 7, 62, 105
9, 33600, Note_on_c, 7, 60, 105
9, 33792, Note_on_c, 7, 60, 0
9, 33792, Note_on_c, 7, 62, 0
9, 33840, Note_on_c, 7, 60, 105
9, 33840, Note_on_c, 7, 62, 105
9, 34032, Note_on_c, 7, 62, 0
9, 34032, Note_on_c, 7, 60, 0
9, 34080, Note_on_c, 7, 62, 105
9, 34080, Note_on_c, 7, 60, 105
9, 34272, Note_on_c, 7, 60, 0
9, 34272, Note_on_c, 7, 62, 0
9, 34320, Note_on_c, 7, 60, 105
9, 34320, Note_on_c, 7, 62, 105
9, 34512, Note_on_c, 7, 62, 0
9, 34512, Note_on_c, 7, 60, 0
9, 34560, Note_on_c, 7, 59, 105
9, 34560, Note_on_c, 7, 62, 105
9, 34848, Note_on_c, 7, 62, 0
9, 34944, Note_on_c, 7, 59, 0
9, 35040, Note_on_c, 7, 67, 105
9, 35712, Note_on_c, 7, 67, 0
9, 35760, Note_on_c, 7, 69, 105
9, 35952, Note_on_c, 7, 69, 0
9, 36000, Note_on_c, 7, 66, 105
9, 36192, Note_on_c, 7, 66, 0
9, 36240, Note_on_c, 7, 62, 105
9, 36432, Note_on_c, 7, 62, 0
9, 36480, Note_on_c, 7, 71, 105
9, 37632, Note_on_c, 7, 71, 0
9, 37680, Note_on_c, 7, 72, 105
9, 37872, Note_on_c, 7, 72, 0
9, 37920, Note_on_c, 7, 69, 105
9, 38112, Note_on_c, 7, 69, 0
9, 38160, Note_on_c, 7, 66, 105
9, 38352, Note_on_c, 7, 66, 0
9, 38400, Note_on_c, 7, 67, 105
9, 38688, Note_on_c, 7, 67, 0
9, 38880, Note_on_c, 7, 71, 105
9, 39072, Note_on_c, 7, 71, 0
9, 39120, Note_on_c, 7, 71, 105
9, 39312, Note_on_c, 7, 71, 0
9, 39360, Note_on_c, 7, 71, 105
9, 39600, Note_on_c, 7, 71, 0
9, 39600, Note_on_c, 7, 67, 105
9, 39792, Note_on_c, 7, 67, 0
9, 39840, Note_on_c, 7, 67, 105
9, 40032, Note_on_c, 7, 67, 0
9, 40080, Note_on_c, 7, 67, 105
9, 40272, Note_on_c, 7, 67, 0
9, 40320, Note_on_c, 7, 67, 105
9, 40560, Note_on_c, 7, 67, 0
9, 40560, Note_on_c, 7, 62, 105
9, 40752, Note_on_c, 7, 62, 0
9, 40800, Note_on_c, 7, 62, 105
9, 40992, Note_on_c, 7, 62, 0
9, 41040, Note_on_c, 7, 62, 105
9, 41232, Note_on_c, 7, 62, 0
9, 41280, Note_on_c, 7, 62, 105
9, 41520, Note_on_c, 7, 62, 0
9, 41520, Note_on_c, 7, 59, 105
9, 41712, Note_on_c, 7, 59, 0
9, 41760, Note_on_c, 7, 59, 105
9, 42000, Note_on_c, 7, 59, 0
9, 42000, Note_on_c, 7, 55, 105
9, 42192, Note_on_c, 7, 55, 0
9, 42240, Note_on_c, 7, 62, 105
9, 42432, Note_on_c, 7, 62, 0
9, 42480, Note_on_c, 7, 74, 105
9, 42672, Note_on_c, 7, 74, 0
9, 42720, Note_on_c, 7, 72, 105
9, 42912, Note_on_c, 7, 72, 0
9, 42960, Note_on_c, 7, 74, 105
9, 43152, Note_on_c, 7, 74, 0
9, 43200, Note_on_c, 7, 71, 105
9, 43392, Note_on_c, 7, 71, 0
9, 43440, Note_on_c, 7, 74, 105
9, 43632, Note_on_c, 7, 74, 0
9, 43680, Note_on_c, 7, 71, 105
9, 43872, Note_on_c, 7, 71, 0
9, 43920, Note_on_c, 7, 67, 105
9, 44112, Note_on_c, 7, 67, 0
9, 44160, Note_on_c, 7, 62, 105
9, 44544, Note_on_c, 7, 62, 0
9, 44640, Note_on_c, 7, 62, 92
9, 45024, Note_on_c, 7, 62, 0
9, 45120, Note_on_c, 7, 62, 92
9, 45504, Note_on_c, 7, 62, 0
9, 46560, Note_on_c, 7, 62, 78
9, 47040, Note_on_c, 7, 62, 0
9, 47040, Note_on_c, 7, 64, 58
9, 47232, Note_on_c, 7, 64, 0
9, 47520, Note_on_c, 7, 66, 58
9, 47712, Note_on_c, 7, 66, 0
9, 48000, Note_on_c, 7, 67, 58
9, 48192, Note_on_c, 7, 67, 0
9, 48480, Note_on_c, 7, 69, 58
9, 48672, Note_on_c, 7, 69, 0
9, 48960, Note_on_c, 7, 71, 58
9, 49152, Note_on_c, 7, 71, 0
9, 49440, Note_on_c, 7, 73, 58
9, 49632, Note_on_c, 7, 73, 0
9, 49920, Note_on_c, 7, 74, 58
9, 50304, Note_on_c, 7, 74, 0
9, 50880, Note_on_c, 7, 55, 58
9, 51264, Note_on_c, 7, 55, 0
9, 51840, Note_on_c, 7, 57, 72
9, 52032, Note_on_c, 7, 57, 0
9, 52080, Note_on_c, 7, 56, 72
9, 52272, Note_on_c, 7, 56, 0
9, 52320, Note_on_c, 7, 57, 72
9, 52512, Note_on_c, 7, 57, 0
9, 52560, Note_on_c, 7, 56, 72
9, 52752, Note_on_c, 7, 56, 0
9, 52800, Note_on_c, 7, 57, 72
9, 52992, Note_on_c, 7, 57, 0
9, 53040, Note_on_c, 7, 59, 72
9, 53232, Note_on_c, 7, 59, 0
9, 53280, Note_on_c, 7, 55, 72
9, 53472, Note_on_c, 7, 55, 0
9, 53520, Note_on_c, 7, 52, 72
9, 53712, Note_on_c, 7, 52, 0
9, 53760, Note_on_c, 7, 50, 72
9, 53952, Note_on_c, 7, 50, 0
9, 54240, Note_on_c, 7, 54, 98
9, 54720, Note_on_c, 7, 54, 0
9, 54720, Note_on_c, 7, 55, 58
9, 54912, Note_on_c, 7, 55, 0
9, 55200, Note_on_c, 7, 57, 58
9, 55392, Note_on_c, 7, 57, 0
9, 55680, Note_on_c, 7, 59, 58
9, 55872, Note_on_c, 7, 59, 0
9, 56160, Note_on_c, 7, 61, 58
9, 56352, Note_on_c, 7, 61, 0
9, 56640, Note_on_c, 7, 62, 58
9, 56832, Note_on_c, 7, 62, 0
9, 57120, Note_on_c, 7, 64, 58
9, 57312, Note_on_c, 7, 64, 0
9, 57600, Note_on_c, 7, 57, 58
9, 58560, Note_on_c, 7, 57, 0
9, 58560, Note_on_c, 7, 59, 58
9, 59040, Note_on_c, 7, 59, 0
9, 59040, Note_on_c, 7, 62, 58
9, 59424, Note_on_c, 7, 62, 0
9, 59520, Note_on_c, 7, 68, 58
9, 60480, Note_on_c, 7, 68, 0
9, 60480, Note_on_c, 7, 69, 58
9, 60864, Note_on_c, 7, 69, 0
9, 65280, Note_on_c, 7, 49, 58
9, 65520, Note_on_c, 7, 49, 0
9, 65520, Note_on_c, 7, 50, 58
9, 65700, Note_on_c, 7, 50, 0
9, 65760, Note_on_c, 7, 52, 58
9, 65940, Note_on_c, 7, 52, 0
9, 66000, Note_on_c, 7, 54, 58
9, 66180, Note_on_c, 7, 54, 0
9, 66240, Note_on_c, 7, 55, 58
9, 66600, Note_on_c, 7, 55, 0
9, 67200, Note_on_c, 7, 61, 58
9, 67440, Note_on_c, 7, 61, 0
9, 67440, Note_on_c, 7, 62, 58
9, 67620, Note_on_c, 7, 62, 0
9, 67680, Note_on_c, 7, 64, 58
9, 67860, Note_on_c, 7, 64, 0
9, 67920, Note_on_c, 7, 66, 58
9, 68100, Note_on_c, 7, 66, 0
9, 68160, Note_on_c, 7, 67, 58
9, 68520, Note_on_c, 7, 67, 0
9, 69600, Note_on_c, 7, 61, 58
9, 69756, Note_on_c, 7, 61, 0
9, 69840, Note_on_c, 7, 62, 58
9, 69996, Note_on_c, 7, 62, 0
9, 70080, Note_on_c, 7, 64, 58
9, 70392, Note_on_c, 7, 64, 0
9, 71520, Note_on_c, 7, 61, 58
9, 71676, Note_on_c, 7, 61, 0
9, 71760, Note_on_c, 7, 62, 58
9, 71916, Note_on_c, 7, 62, 0
9, 72000, Note_on_c, 7, 64, 58
9, 72312, Note_on_c, 7, 64, 0
9, 72960, Note_on_c, 7, 69, 72
9, 73440, Note_on_c, 7, 69, 0
9, 73440, Note_on_c, 7, 70, 72
9, 73920, Note_on_c, 7, 70, 0
9, 73920, Note_on_c, 7, 69, 72
9, 74400, Note_on_c, 7, 69, 0
9, 74400, Note_on_c, 7, 70, 72
9, 74880, Note_on_c, 7, 70, 0
9, 74880, Note_on_c, 7, 69, 58
9, 75264, Note_on_c, 7, 69, 0
9, 76800, Note_on_c, 7, 62, 58
9, 76992, Note_on_c, 7, 62, 0
9, 77040, Note_on_c, 7, 62, 58
9, 77232, Note_on_c, 7, 62, 0
9, 77280, Note_on_c, 7, 54, 58
9, 77472, Note_on_c, 7, 54, 0
9, 77520, Note_on_c, 7, 54, 58
9, 77712, Note_on_c, 7, 54, 0
9, 77760, Note_on_c, 7, 57, 58
9, 77952, Note_on_c, 7, 57, 0
9, 78000, Note_on_c, 7, 57, 58
9, 78192, Note_on_c, 7, 57, 0
9, 78240, Note_on_c, 7, 62, 58
9, 78432, Note_on_c, 7, 62, 0
9, 78480, Note_on_c, 7, 62, 58
9, 78672, Note_on_c, 7, 62, 0
9, 78720, Note_on_c, 7, 64, 58
9, 78912, Note_on_c, 7, 64, 0
9, 78960, Note_on_c, 7, 64, 58
9, 79152, Note_on_c, 7, 64, 0
9, 79200, Note_on_c, 7, 64, 58
9, 79392, Note_on_c, 7, 64, 0
9, 79440, Note_on_c, 7, 64, 58
9, 79632, Note_on_c, 7, 64, 0
9, 79680, Note_on_c, 7, 62, 58
9, 79872, Note_on_c, 7, 62, 0
9, 79920, Note_on_c, 7, 62, 58
9, 80112, Note_on_c, 7, 62, 0
9, 80160, Note_on_c, 7, 62, 58
9, 80352, Note_on_c, 7, 62, 0
9, 80400, Note_on_c, 7, 62, 58
9, 80592, Note_on_c, 7, 62, 0
9, 80640, Note_on_c, 7, 64, 58
9, 80832, Note_on_c, 7, 64, 0
9, 80880, Note_on_c, 7, 64, 58
9, 81072, Note_on_c, 7, 64, 0
9, 81120, Note_on_c, 7, 64, 58
9, 81312, Note_on_c, 7, 64, 0
9, 81360, Note_on_c, 7, 64, 58
9, 81552, Note_on_c, 7, 64, 0
9, 81600, Note_on_c, 7, 62, 58
9, 81792, Note_on_c, 7, 62, 0
9, 81840, Note_on_c, 7, 62, 58
9, 82032, Note_on_c, 7, 62, 0
9, 82080, Note_on_c, 7, 62, 58
9, 82272, Note_on_c, 7, 62, 0
9, 82320, Note_on_c, 7, 62, 58
9, 82512, Note_on_c, 7, 62, 0
9, 82560, Note_on_c, 7, 61, 58
9, 82716, Note_on_c, 7, 61, 0
9, 82800, Note_on_c, 7, 71, 58
9, 82956, Note_on_c, 7, 71, 0
9, 83040, Note_on_c, 7, 69, 58
9, 83196, Note_on_c, 7, 69, 0
9, 83280, Note_on_c, 7, 67, 58
9, 83436, Note_on_c, 7, 67, 0
9, 83520, Note_on_c, 7, 66, 58
9, 83676, Note_on_c, 7, 66, 0
9, 83760, Note_on_c, 7, 64, 58
9, 83916, Note_on_c, 7, 64, 0
9, 84000, Note_on_c, 7, 62, 58
9, 84156, Note_on_c, 7, 62, 0
9, 84240, Note_on_c, 7, 61, 58
9, 84396, Note_on_c, 7, 61, 0
9, 84480, Note_on_c, 7, 62, 58
9, 84672, Note_on_c, 7, 62, 0
9, 84720, Note_on_c, 7, 62, 58
9, 84912, Note_on_c, 7, 62, 0
9, 84960, Note_on_c, 7, 54, 58
9, 85152, Note_on_c, 7, 54, 0
9, 85200, Note_on_c, 7, 54, 58
9, 85392, Note_on_c, 7, 54, 0
9, 85440, Note_on_c, 7, 57, 58
9, 85632, Note_on_c, 7, 57, 0
9, 85680, Note_on_c, 7, 57, 58
9, 85872, Note_on_c, 7, 57, 0
9, 85920, Note_on_c, 7, 62, 58
9, 86112, Note_on_c, 7, 62, 0
9, 86160, Note_on_c, 7, 62, 58
9, 86352, Note_on_c, 7, 62, 0
9, 86400, Note_on_c, 7, 64, 58
9, 86592, Note_on_c, 7, 64, 0
9, 86640, Note_on_c, 7, 64, 58
9, 86832, Note_on_c, 7, 64, 0
9, 86880, Note_on_c, 7, 64, 58
9, 87072, Note_on_c, 7, 64, 0
9, 87120, Note_on_c, 7, 64, 58
9, 87312, Note_on_c, 7, 64, 0
9, 87360, Note_on_c, 7, 62, 58
9, 87552, Note_on_c, 7, 62, 0
9, 87600, Note_on_c, 7, 62, 58
9, 87792, Note_on_c, 7, 62, 0
9, 87840, Note_on_c, 7, 62, 58
9, 88032, Note_on_c, 7, 62, 0
9, 88080, Note_on_c, 7, 62, 58
9, 88272, Note_on_c, 7, 62, 0
9, 88320, Note_on_c, 7, 62, 58
9, 88512, Note_on_c, 7, 62, 0
9, 88560, Note_on_c, 7, 62, 58
9, 88752, Note_on_c, 7, 62, 0
9, 88800, Note_on_c, 7, 62, 58
9, 88992, Note_on_c, 7, 62, 0
9, 89040, Note_on_c, 7, 62, 58
9, 89232, Note_on_c, 7, 62, 0
9, 89280, Note_on_c, 7, 62, 58
9, 89472, Note_on_c, 7, 62, 0
9, 89520, Note_on_c, 7, 62, 58
9, 89712, Note_on_c, 7, 62, 0
9, 89760, Note_on_c, 7, 62, 58
9, 89952, Note_on_c, 7, 62, 0
9, 90000, Note_on_c, 7, 62, 58
9, 90192, Note_on_c, 7, 62, 0
9, 90240, Note_on_c, 7, 62, 58
9, 91584, Note_on_c, 7, 62, 0
9, 92160, Note_on_c, 7, 64, 58
9, 92352, Note_on_c, 7, 64, 0
9, 92400, Note_on_c, 7, 64, 58
9, 92592, Note_on_c, 7, 64, 0
9, 92640, Note_on_c, 7, 63, 58
9, 92832, Note_on_c, 7, 63, 0
9, 92880, Note_on_c, 7, 63, 58
9, 93072, Note_on_c, 7, 63, 0
9, 93120, Note_on_c, 7, 64, 58
9, 93312, Note_on_c, 7, 64, 0
9, 93360, Note_on_c, 7, 64, 58
9, 93552, Note_on_c, 7, 64, 0
9, 93600, Note_on_c, 7, 63, 58
9, 93792, Note_on_c, 7, 63, 0
9, 93840, Note_on_c, 7, 63, 58
9, 94032, Note_on_c, 7, 63, 0
9, 94080, Note_on_c, 7, 64, 58
9, 94272, Note_on_c, 7, 64, 0
9, 94320, Note_on_c, 7, 64, 58
9, 94512, Note_on_c, 7, 64, 0
9, 94560, Note_on_c, 7, 64, 58
9, 94752, Note_on_c, 7, 64, 0
9, 94800, Note_on_c, 7, 64, 58
9, 94992, Note_on_c, 7, 64, 0
9, 95040, Note_on_c, 7, 62, 58
9, 95232, Note_on_c, 7, 62, 0
9, 95280, Note_on_c, 7, 62, 58
9, 95472, Note_on_c, 7, 62, 0
9, 95520, Note_on_c, 7, 62, 58
9, 95712, Note_on_c, 7, 62, 0
9, 95760, Note_on_c, 7, 62, 58
9, 95952, Note_on_c, 7, 62, 0
9, 96000, Note_on_c, 7, 59, 58
9, 96192, Note_on_c, 7, 59, 0
9, 96240, Note_on_c, 7, 59, 58
9, 96432, Note_on_c, 7, 59, 0
9, 96480, Note_on_c, 7, 59, 58
9, 96672, Note_on_c, 7, 59, 0
9, 96720, Note_on_c, 7, 59, 58
9, 96912, Note_on_c, 7, 59, 0
9, 96960, Note_on_c, 7, 57, 58
9, 97152, Note_on_c, 7, 57, 0
9, 97200, Note_on_c, 7, 57, 58
9, 97392, Note_on_c, 7, 57, 0
9, 97440, Note_on_c, 7, 57, 58
9, 97632, Note_on_c, 7, 57, 0
9, 97680, Note_on_c, 7, 57, 58
9, 97872, Note_on_c, 7, 57, 0
9, 97920, Note_on_c, 7, 57, 58
9, 99120, Note_on_c, 7, 57, 0
9, 99120, Note_on_c, 7, 61, 58
9, 99360, Note_on_c, 7, 61, 0
9, 99360, Note_on_c, 7, 64, 58
9, 99600, Note_on_c, 7, 64, 0
9, 99600, Note_on_c, 7, 57, 58
9, 99792, Note_on_c, 7, 57, 0
9, 99840, Note_on_c, 7, 69, 58
9, 101040, Note_on_c, 7, 69, 0
9, 101040, Note_on_c, 7, 71, 58
9, 101280, Note_on_c, 7, 71, 0
9, 101280, Note_on_c, 7, 67, 58
9, 101520, Note_on_c, 7, 67, 0
9, 101520, Note_on_c, 7, 69, 58
9, 101712, Note_on_c, 7, 69, 0
9, 101760, Note_on_c, 7, 66, 58
9, 102960, Note_on_c, 7, 66, 0
9, 102960, Note_on_c, 7, 67, 58
9, 103200, Note_on_c, 7, 67, 0
9, 103200, Note_on_c, 7, 64, 58
9, 103440, Note_on_c, 7, 64, 0
9, 103440, Note_on_c, 7, 61, 58
9, 103632, Note_on_c, 7, 61, 0
9, 103680, Note_on_c, 7, 62, 105
9, 103920, Note_on_c, 7, 62, 0
9, 103920, Note_on_c, 7, 69, 105
9, 104112, Note_on_c, 7, 69, 0
9, 104160, Note_on_c, 7, 69, 105
9, 104352, Note_on_c, 7, 69, 0
9, 104400, Note_on_c, 7, 69, 105
9, 104592, Note_on_c, 7, 69, 0
9, 104640, Note_on_c, 7, 69, 105
9, 104880, Note_on_c, 7, 69, 0
9, 104880, Note_on_c, 7, 61, 105
9, 105072, Note_on_c, 7, 61, 0
9, 105120, Note_on_c, 7, 61, 105
9, 105312, Note_on_c, 7, 61, 0
9, 105360, Note_on_c, 7, 61, 105
9, 105552, Note_on_c, 7, 61, 0
9, 105600, Note_on_c, 7, 62, 105
9, 105840, Note_on_c, 7, 62, 0
9, 105840, Note_on_c, 7, 64, 105
9, 106032, Note_on_c, 7, 64, 0
9, 106080, Note_on_c, 7, 66, 105
9, 106272, Note_on_c, 7, 66, 0
9, 106320, Note_on_c, 7, 67, 105
9, 106512, Note_on_c, 7, 67, 0
9, 106560, Note_on_c, 7, 66, 105
9, 106800, Note_on_c, 7, 66, 0
9, 106800, Note_on_c, 7, 64, 105
9, 106992, Note_on_c, 7, 64, 0
9, 107040, Note_on_c, 7, 69, 105
9, 107232, Note_on_c, 7, 69, 0
9, 107280, Note_on_c, 7, 67, 105
9, 107472, Note_on_c, 7, 67, 0
9, 107520, Note_on_c, 7, 67, 105
9, 107760, Note_on_c, 7, 67, 0
9, 107760, Note_on_c, 7, 66, 105
9, 107952, Note_on_c, 7, 66, 0
9, 108000, Note_on_c, 7, 66, 105
9, 108192, Note_on_c, 7, 66, 0
9, 108240, Note_on_c, 7, 66, 105
9, 108432, Note_on_c, 7, 66, 0
9, 108480, Note_on_c, 7, 66, 105
9, 108720, Note_on_c, 7, 66, 0
9, 108720, Note_on_c, 7, 69, 105
9, 108912, Note_on_c, 7, 69, 0
9, 108960, Note_on_c, 7, 67, 105
9, 109152, Note_on_c, 7, 67, 0
9, 109200, Note_on_c, 7, 64, 105
9, 109392, Note_on_c, 7, 64, 0
9, 109440, Note_on_c, 7, 62, 105
9, 109632, Note_on_c, 7, 62, 0
9, 109680, Note_on_c, 7, 54, 58
9, 109872, Note_on_c, 7, 54, 0
9, 109920, Note_on_c, 7, 54, 58
9, 110112, Note_on_c, 7, 54, 0
9, 110160, Note_on_c, 7, 54, 58
9, 110352, Note_on_c, 7, 54, 0
9, 110400, Note_on_c, 7, 54, 58
9, 110592, Note_on_c, 7, 54, 0
9, 110640, Note_on_c, 7, 54, 58
9, 110832, Note_on_c, 7, 54, 0
9, 110880, Note_on_c, 7, 54, 58
9, 111072, Note_on_c, 7, 54, 0
9, 111120, Note_on_c, 7, 54, 58
9, 111312, Note_on_c, 7, 54, 0
9, 111360, Note_on_c, 7, 54, 58
9, 111552, Note_on_c, 7, 54, 0
9, 111600, Note_on_c, 7, 54, 58
9, 111792, Note_on_c, 7, 54, 0
9, 111840, Note_on_c, 7, 54, 58
9, 112032, Note_on_c, 7, 54, 0
9, 112080, Note_on_c, 7, 54, 58
9, 112272, Note_on_c, 7, 54, 0
9, 112320, Note_on_c, 7, 54, 58
9, 112512, Note_on_c, 7, 54, 0
9, 112560, Note_on_c, 7, 54, 58
9, 112752, Note_on_c, 7, 54, 0
9, 112800, Note_on_c, 7, 54, 58
9, 112992, Note_on_c, 7, 54, 0
9, 113040, Note_on_c, 7, 54, 58
9, 113232, Note_on_c, 7, 54, 0
9, 113280, Note_on_c, 7, 55, 58
9, 113472, Note_on_c, 7, 55, 0
9, 113520, Note_on_c, 7, 55, 58
9, 113712, Note_on_c, 7, 55, 0
9, 113760, Note_on_c, 7, 55, 58
9, 113952, Note_on_c, 7, 55, 0
9, 114000, Note_on_c, 7, 55, 58
9, 114192, Note_on_c, 7, 55, 0
9, 114240, Note_on_c, 7, 55, 58
9, 114432, Note_on_c, 7, 55, 0
9, 114480, Note_on_c, 7, 55, 58
9, 114672, Note_on_c, 7, 55, 0
9, 114720, Note_on_c, 7, 55, 58
9, 114912, Note_on_c, 7, 55, 0
9, 114960, Note_on_c, 7, 55, 58
9, 115152, Note_on_c, 7, 55, 0
9, 115200, Note_on_c, 7, 55, 58
9, 115392, Note_on_c, 7, 55, 0
9, 115440, Note_on_c, 7, 55, 58
9, 115632, Note_on_c, 7, 55, 0
9, 115680, Note_on_c, 7, 62, 58
9, 115872, Note_on_c, 7, 62, 0
9, 115920, Note_on_c, 7, 62, 58
9, 116112, Note_on_c, 7, 62, 0
9, 116160, Note_on_c, 7, 60, 58
9, 116352, Note_on_c, 7, 60, 0
9, 116400, Note_on_c, 7, 60, 58
9, 116592, Note_on_c, 7, 60, 0
9, 116640, Note_on_c, 7, 59, 58
9, 116832, Note_on_c, 7, 59, 0
9, 116880, Note_on_c, 7, 59, 58
9, 117072, Note_on_c, 7, 59, 0
9, 117120, Note_on_c, 7, 57, 58
9, 117312, Note_on_c, 7, 57, 0
9, 117360, Note_on_c, 7, 57, 58
9, 117552, Note_on_c, 7, 57, 0
9, 117600, Note_on_c, 7, 57, 58
9, 117792, Note_on_c, 7, 57, 0
9, 117840, Note_on_c, 7, 57, 58
9, 118032, Note_on_c, 7, 57, 0
9, 118080, Note_on_c, 7, 57, 58
9, 118272, Note_on_c, 7, 57, 0
9, 118320, Note_on_c, 7, 57, 58
9, 118512, Note_on_c, 7, 57, 0
9, 118560, Note_on_c, 7, 57, 58
9, 118752, Note_on_c, 7, 57, 0
9, 118800, Note_on_c, 7, 57, 58
9, 118992, Note_on_c, 7, 57, 0
9, 119040, Note_on_c, 7, 62, 58
9, 119232, Note_on_c, 7, 62, 0
9, 119280, Note_on_c, 7, 62, 58
9, 119472, Note_on_c, 7, 62, 0
9, 119520, Note_on_c, 7, 64, 58
9, 119712, Note_on_c, 7, 64, 0
9, 119760, Note_on_c, 7, 64, 58
9, 119952, Note_on_c, 7, 64, 0
9, 120000, Note_on_c, 7, 66, 58
9, 120192, Note_on_c, 7, 66, 0
9, 120240, Note_on_c, 7, 66, 58
9, 120432, Note_on_c, 7, 66, 0
9, 120480, Note_on_c, 7, 67, 58
9, 120672, Note_on_c, 7, 67, 0
9, 120720, Note_on_c, 7, 67, 58
9, 120912, Note_on_c, 7, 67, 0
9, 120960, Note_on_c, 7, 66, 58
9, 120960, Note_on_c, 7, 69, 58
9, 121344, Note_on_c, 7, 69, 0
9, 121344, Note_on_c, 7, 66, 0
9, 122880, Note_on_c, 7, 55, 58
9, 123072, Note_on_c, 7, 55, 0
9, 123120, Note_on_c, 7, 55, 58
9, 123312, Note_on_c, 7, 55, 0
9, 123360, Note_on_c, 7, 59, 58
9, 123552, Note_on_c, 7, 59, 0
9, 123600, Note_on_c, 7, 59, 58
9, 123792, Note_on_c, 7, 59, 0
9, 123840, Note_on_c, 7, 62, 58
9, 124032, Note_on_c, 7, 62, 0
9, 124080, Note_on_c, 7, 62, 58
9, 124272, Note_on_c, 7, 62, 0
9, 124320, Note_on_c, 7, 67, 58
9, 124512, Note_on_c, 7, 67, 0
9, 124560, Note_on_c, 7, 67, 58
9, 124752, Note_on_c, 7, 67, 0
9, 124800, Note_on_c, 7, 69, 58
9, 124992, Note_on_c, 7, 69, 0
9, 125040, Note_on_c, 7, 69, 58
9, 125232, Note_on_c, 7, 69, 0
9, 125280, Note_on_c, 7, 69, 58
9, 125472, Note_on_c, 7, 69, 0
9, 125520, Note_on_c, 7, 69, 58
9, 125712, Note_on_c, 7, 69, 0
9, 125760, Note_on_c, 7, 67, 58
9, 125952, Note_on_c, 7, 67, 0
9, 126000, Note_on_c, 7, 67, 58
9, 126192, Note_on_c, 7, 67, 0
9, 126240, Note_on_c, 7, 67, 58
9, 126432, Note_on_c, 7, 67, 0
9, 126480, Note_on_c, 7, 67, 58
9, 126672, Note_on_c, 7, 67, 0
9, 126720, Note_on_c, 7, 62, 58
9, 126912, Note_on_c, 7, 62, 0
9, 126960, Note_on_c, 7, 62, 58
9, 127152, Note_on_c, 7, 62, 0
9, 127200, Note_on_c, 7, 62, 58
9, 127392, Note_on_c, 7, 62, 0
9, 127440, Note_on_c, 7, 62, 58
9, 127632, Note_on_c, 7, 62, 0
9, 127680, Note_on_c, 7, 62, 58
9, 127872, Note_on_c, 7, 62, 0
9, 127920, Note_on_c, 7, 62, 58
9, 128112, Note_on_c, 7, 62, 0
9, 128160, Note_on_c, 7, 62, 58
9, 128352, Note_on_c, 7, 62, 0
9, 128400, Note_on_c, 7, 62, 58
9, 128592, Note_on_c, 7, 62, 0
9, 128640, Note_on_c, 7, 62, 58
9, 128832, Note_on_c, 7, 62, 0
9, 128880, Note_on_c, 7, 67, 58
9, 129072, Note_on_c, 7, 67, 0
9, 129120, Note_on_c, 7, 66, 58
9, 129312, Note_on_c, 7, 66, 0
9, 129360, Note_on_c, 7, 64, 58
9, 129552, Note_on_c, 7, 64, 0
9, 129600, Note_on_c, 7, 62, 58
9, 129792, Note_on_c, 7, 62, 0
9, 129840, Note_on_c, 7, 60, 58
9, 130032, Note_on_c, 7, 60, 0
9, 130080, Note_on_c, 7, 59, 58
9, 130272, Note_on_c, 7, 59, 0
9, 130320, Note_on_c, 7, 57, 58
9, 130512, Note_on_c, 7, 57, 0
9, 130560, Note_on_c, 7, 55, 58
9, 130752, Note_on_c, 7, 55, 0
9, 130800, Note_on_c, 7, 55, 58
9, 130992, Note_on_c, 7, 55, 0
9, 131040, Note_on_c, 7, 59, 58
9, 131232, Note_on_c, 7, 59, 0
9, 131280, Note_on_c, 7, 59, 58
9, 131472, Note_on_c, 7, 59, 0
9, 131520, Note_on_c, 7, 62, 58
9, 131712, Note_on_c, 7, 62, 0
9, 131760, Note_on_c, 7, 62, 58
9, 131952, Note_on_c, 7, 62, 0
9, 132000, Note_on_c, 7, 67, 58
9, 132192, Note_on_c, 7, 67, 0
9, 132240, Note_on_c, 7, 67, 58
9, 132432, Note_on_c, 7, 67, 0
9, 132480, Note_on_c, 7, 69, 58
9, 132672, Note_on_c, 7, 69, 0
9, 132720, Note_on_c, 7, 69, 58
9, 132912, Note_on_c, 7, 69, 0
9, 132960, Note_on_c, 7, 69, 58
9, 133152, Note_on_c, 7, 69, 0
9, 133200, Note_on_c, 7, 69, 58
9, 133392, Note_on_c, 7, 69, 0
9, 133440, Note_on_c, 7, 67, 58
9, 133632, Note_on_c, 7, 67, 0
9, 133680, Note_on_c, 7, 67, 58
9, 133872, Note_on_c, 7, 67, 0
9, 133920, Note_on_c, 7, 67, 58
9, 134112, Note_on_c, 7, 67, 0
9, 134160, Note_on_c, 7, 67, 58
9, 134352, Note_on_c, 7, 67, 0
9, 134400, Note_on_c, 7, 67, 58
9, 134592, Note_on_c, 7, 67, 0
9, 134640, Note_on_c, 7, 67, 58
9, 134832, Note_on_c, 7, 67, 0
9, 134880, Note_on_c, 7, 67, 58
9, 135072, Note_on_c, 7, 67, 0
9, 135120, Note_on_c, 7, 67, 58
9, 135312, Note_on_c, 7, 67, 0
9, 135360, Note_on_c, 7, 66, 58
9, 135552, Note_on_c, 7, 66, 0
9, 135600, Note_on_c, 7, 66, 58
9, 135792, Note_on_c, 7, 66, 0
9, 135840, Note_on_c, 7, 67, 58
9, 136032, Note_on_c, 7, 67, 0
9, 136080, Note_on_c, 7, 69, 58
9, 136272, Note_on_c, 7, 69, 0
9, 136320, Note_on_c, 7, 67, 58
9, 136512, Note_on_c, 7, 67, 0
9, 136560, Note_on_c, 7, 67, 58
9, 136752, Note_on_c, 7, 67, 0
9, 136800, Note_on_c, 7, 66, 58
9, 136992, Note_on_c, 7, 66, 0
9, 137040, Note_on_c, 7, 64, 58
9, 137232, Note_on_c, 7, 64, 0
9, 137280, Note_on_c, 7, 62, 58
9, 137472, Note_on_c, 7, 62, 0
9, 137520, Note_on_c, 7, 60, 58
9, 137712, Note_on_c, 7, 60, 0
9, 137760, Note_on_c, 7, 59, 58
9, 137952, Note_on_c, 7, 59, 0
9, 138000, Note_on_c, 7, 57, 58
9, 138192, Note_on_c, 7, 57, 0
9, 138240, Note_on_c, 7, 55, 58
9, 138432, Note_on_c, 7, 55, 0
9, 138480, Note_on_c, 7, 55, 58
9, 138672, Note_on_c, 7, 55, 0
9, 138720, Note_on_c, 7, 59, 58
9, 138912, Note_on_c, 7, 59, 0
9, 138960, Note_on_c, 7, 59, 58
9, 139152, Note_on_c, 7, 59, 0
9, 139200, Note_on_c, 7, 62, 58
9, 139392, Note_on_c, 7, 62, 0
9, 139440, Note_on_c, 7, 62, 58
9, 139632, Note_on_c, 7, 62, 0
9, 139680, Note_on_c, 7, 67, 58
9, 139872, Note_on_c, 7, 67, 0
9, 139920, Note_on_c, 7, 67, 58
9, 140112, Note_on_c, 7, 67, 0
9, 140160, Note_on_c, 7, 69, 58
9, 140352, Note_on_c, 7, 69, 0
9, 140400, Note_on_c, 7, 69, 58
9, 140592, Note_on_c, 7, 69, 0
9, 140640, Note_on_c, 7, 69, 58
9, 140832, Note_on_c, 7, 69, 0
9, 140880, Note_on_c, 7, 69, 58
9, 141072, Note_on_c, 7, 69, 0
9, 141120, Note_on_c, 7, 67, 58
9, 141312, Note_on_c, 7, 67, 0
9, 141360, Note_on_c, 7, 67, 58
9, 141552, Note_on_c, 7, 67, 0
9, 141600, Note_on_c, 7, 67, 58
9, 141792, Note_on_c, 7, 67, 0
9, 141840, Note_on_c, 7, 67, 58
9, 142032, Note_on_c, 7, 67, 0
9, 142080, Note_on_c, 7, 62, 58
9, 142272, Note_on_c, 7, 62, 0
9, 142320, Note_on_c, 7, 62, 58
9, 142512, Note_on_c, 7, 62, 0
9, 142560, Note_on_c, 7, 62, 58
9, 142752, Note_on_c, 7, 62, 0
9, 142800, Note_on_c, 7, 62, 58
9, 142992, Note_on_c, 7, 62, 0
9, 143040, Note_on_c, 7, 62, 58
9, 143232, Note_on_c, 7, 62, 0
9, 143280, Note_on_c, 7, 62, 58
9, 143472, Note_on_c, 7, 62, 0
9, 143520, Note_on_c, 7, 62, 58
9, 143712, Note_on_c, 7, 62, 0
9, 143760, Note_on_c, 7, 62, 58
9, 143952, Note_on_c, 7, 62, 0
9, 144000, Note_on_c, 7, 62, 58
9, 144192, Note_on_c, 7, 62, 0
9, 144240, Note_on_c, 7, 67, 58
9, 144432, Note_on_c, 7, 67, 0
9, 144480, Note_on_c, 7, 66, 58
9, 144672, Note_on_c, 7, 66, 0
9, 144720, Note_on_c, 7, 64, 58
9, 144912, Note_on_c, 7, 64, 0
9, 144960, Note_on_c, 7, 62, 58
9, 145152, Note_on_c, 7, 62, 0
9, 145200, Note_on_c, 7, 60, 58
9, 145392, Note_on_c, 7, 60, 0
9, 145440, Note_on_c, 7, 59, 58
9, 145632, Note_on_c, 7, 59, 0
9, 145680, Note_on_c, 7, 57, 58
9, 145872, Note_on_c, 7, 57, 0
9, 145920, Note_on_c, 7, 55, 58
9, 146112, Note_on_c, 7, 55, 0
9, 146160, Note_on_c, 7, 55, 58
9, 146352, Note_on_c, 7, 55, 0
9, 146400, Note_on_c, 7, 59, 58
9, 146592, Note_on_c, 7, 59, 0
9, 146640, Note_on_c, 7, 59, 58
9, 146832, Note_on_c, 7, 59, 0
9, 146880, Note_on_c, 7, 62, 58
9, 147072, Note_on_c, 7, 62, 0
9, 147120, Note_on_c, 7, 62, 58
9, 147312, Note_on_c, 7, 62, 0
9, 147360, Note_on_c, 7, 67, 58
9, 147552, Note_on_c, 7, 67, 0
9, 147600, Note_on_c, 7, 67, 58
9, 147792, Note_on_c, 7, 67, 0
9, 147840, Note_on_c, 7, 69, 58
9, 148032, Note_on_c, 7, 69, 0
9, 148080, Note_on_c, 7, 69, 58
9, 148272, Note_on_c, 7, 69, 0
9, 148320, Note_on_c, 7, 69, 58
9, 148512, Note_on_c, 7, 69, 0
9, 148560, Note_on_c, 7, 69, 58
9, 148752, Note_on_c, 7, 69, 0
9, 148800, Note_on_c, 7, 67, 58
9, 148992, Note_on_c, 7, 67, 0
9, 149040, Note_on_c, 7, 67, 58
9, 149232, Note_on_c, 7, 67, 0
9, 149280, Note_on_c, 7, 67, 58
9, 149472, Note_on_c, 7, 67, 0
9, 149520, Note_on_c, 7, 67, 58
9, 149712, Note_on_c, 7, 67, 0
9, 149760, Note_on_c, 7, 67, 58
9, 149952, Note_on_c, 7, 67, 0
9, 150000, Note_on_c, 7, 67, 58
9, 150192, Note_on_c, 7, 67, 0
9, 150240, Note_on_c, 7, 67, 58
9, 150432, Note_on_c, 7, 67, 0
9, 150480, Note_on_c, 7, 67, 58
9, 150672, Note_on_c, 7, 67, 0
9, 150720, Note_on_c, 7, 66, 58
9, 150912, Note_on_c, 7, 66, 0
9, 150960, Note_on_c, 7, 66, 58
9, 151152, Note_on_c, 7, 66, 0
9, 151200, Note_on_c, 7, 67, 58
9, 151392, Note_on_c, 7, 67, 0
9, 151440, Note_on_c, 7, 69, 58
9, 151632, Note_on_c, 7, 69, 0
9, 151680, Note_on_c, 7, 67, 78
9, 151872, Note_on_c, 7, 67, 0
9, 151920, Note_on_c, 7, 62, 105
9, 151920, Note_on_c, 7, 59, 105
9, 152112, Note_on_c, 7, 59, 0
9, 152112, Note_on_c, 7, 62, 0
9, 152160, Note_on_c, 7, 62, 105
9, 152160, Note_on_c, 7, 59, 105
9, 152352, Note_on_c, 7, 59, 0
9, 152352, Note_on_c, 7, 62, 0
9, 152400, Note_on_c, 7, 62, 105
9, 152400, Note_on_c, 7, 59, 105
9, 152592, Note_on_c, 7, 59, 0
9, 152592, Note_on_c, 7, 62, 0
9, 152640, Note_on_c, 7, 62, 105
9, 152640, Note_on_c, 7, 60, 105
9, 152832, Note_on_c, 7, 60, 0
9, 152832, Note_on_c, 7, 62, 0
9, 152880, Note_on_c, 7, 62, 105
9, 152880, Note_on_c, 7, 60, 105
9, 153072, Note_on_c, 7, 60, 0
9, 153072, Note_on_c, 7, 62, 0
9, 153120, Note_on_c, 7, 60, 105
9, 153120, Note_on_c, 7, 62, 105
9, 153312, Note_on_c, 7, 62, 0
9, 153312, Note_on_c, 7, 60, 0
9, 153360, Note_on_c, 7, 62, 105
9, 153360, Note_on_c, 7, 60, 105
9, 153552, Note_on_c, 7, 60, 0
9, 153552, Note_on_c, 7, 62, 0
9, 153600, Note_on_c, 7, 62, 105
9, 153600, Note_on_c, 7, 59, 105
9, 153792, Note_on_c, 7, 59, 0
9, 153792, Note_on_c, 7, 62, 0
9, 153840, Note_on_c, 7, 59, 105
9, 153840, Note_on_c, 7, 62, 105
9, 154032, Note_on_c, 7, 62, 0
9, 154032, Note_on_c, 7, 59, 0
9, 154080, Note_on_c, 7, 59, 105
9, 154080, Note_on_c, 7, 62, 105
9, 154272, Note_on_c, 7, 62, 0
9, 154272, Note_on_c, 7, 59, 0
9, 154320, Note_on_c, 7, 59, 105
9, 154320, Note_on_c, 7, 62, 105
9, 154512, Note_on_c, 7, 62, 0
9, 154512, Note_on_c, 7, 59, 0
9, 154560, Note_on_c, 7, 62, 105
9, 154560, Note_on_c, 7, 60, 105
9, 154752, Note_on_c, 7, 60, 0
9, 154752, Note_on_c, 7, 62, 0
9, 154800, Note_on_c, 7, 60, 105
9, 154800, Note_on_c, 7, 62, 105
9, 154992, Note_on_c, 7, 62, 0
9, 154992, Note_on_c, 7, 60, 0
9, 155040, Note_on_c, 7, 62, 105
9, 155040, Note_on_c, 7, 60, 105
9, 155232, Note_on_c, 7, 60, 0
9, 155232, Note_on_c, 7, 62, 0
9, 155280, Note_on_c, 7, 60, 105
9, 155280, Note_on_c, 7, 62, 105
9, 155472, Note_on_c, 7, 62, 0
9, 155472, Note_on_c, 7, 60, 0
9, 155520, Note_on_c, 7, 59, 105
9, 155520, Note_on_c, 7, 62, 105
9, 155808, Note_on_c, 7, 62, 0
9, 155904, Note_on_c, 7, 59, 0
9, 156000, Note_on_c, 7, 67, 105
9, 156672, Note_on_c, 7, 67, 0
9, 156720, Note_on_c, 7, 69, 105
9, 156912, Note_on_c, 7, 69, 0
9, 156960, Note_on_c, 7, 66, 105
9, 157152, Note_on_c, 7, 66, 0
9, 157200, Note_on_c, 7, 62, 105
9, 157392, Note_on_c, 7, 62, 0
9, 157440, Note_on_c, 7, 71, 105
9, 158592, Note_on_c, 7, 71, 0
9, 158640, Note_on_c, 7, 72, 105
9, 158832, Note_on_c, 7, 72, 0
9, 158880, Note_on_c, 7, 69, 105
9, 159072, Note_on_c, 7, 69, 0
9, 159120, Note_on_c, 7, 66, 105
9, 159312, Note_on_c, 7, 66, 0
9, 159360, Note_on_c, 7, 67, 105
9, 159648, Note_on_c, 7, 67, 0
9, 159840, Note_on_c, 7, 71, 105
9, 160032, Note_on_c, 7, 71, 0
9, 160080, Note_on_c, 7, 71, 105
9, 160272, Note_on_c, 7, 71, 0
9, 160320, Note_on_c, 7, 71, 105
9, 160560, Note_on_c, 7, 71, 0
9, 160560, Note_on_c, 7, 67, 105
9, 160752, Note_on_c, 7, 67, 0
9, 160800, Note_on_c, 7, 67, 105
9, 160992, Note_on_c, 7, 67, 0
9, 161040, Note_on_c, 7, 67, 105
9, 161232, Note_on_c, 7, 67, 0
9, 161280, Note_on_c, 7, 67, 105
9, 161520, Note_on_c, 7, 67, 0
9, 161520, Note_on_c, 7, 62, 105
9, 161712, Note_on_c, 7, 62, 0
9, 161760, Note_on_c, 7, 62, 105
9, 161952, Note_on_c, 7, 62, 0
9, 162000, Note_on_c, 7, 62, 105
9, 162192, Note_on_c, 7, 62, 0
9, 162240, Note_on_c, 7, 62, 105
9, 162480, Note_on_c, 7, 62, 0
9, 162480, Note_on_c, 7, 59, 105
9, 162672, Note_on_c, 7, 59, 0
9, 162720, Note_on_c, 7, 59, 105
9, 162960, Note_on_c, 7, 59, 0
9, 162960, Note_on_c, 7, 55, 105
9, 163152, Note_on_c, 7, 55, 0
9, 163200, Note_on_c, 7, 62, 105
9, 163392, Note_on_c, 7, 62, 0
9, 163440, Note_on_c, 7, 74, 105
9, 163632, Note_on_c, 7, 74, 0
9, 163680, Note_on_c, 7, 72, 105
9, 163872, Note_on_c, 7, 72, 0
9, 163920, Note_on_c, 7, 74, 105
9, 164112, Note_on_c, 7, 74, 0
9, 164160, Note_on_c, 7, 71, 105
9, 164352, Note_on_c, 7, 71, 0
9, 164400, Note_on_c, 7, 74, 105
9, 164592, Note_on_c, 7, 74, 0
9, 164640, Note_on_c, 7, 71, 105
9, 164832, Note_on_c, 7, 71, 0
9, 164880, Note_on_c, 7, 67, 105
9, 165072, Note_on_c, 7, 67, 0
9, 165120, Note_on_c, 7, 62, 105
9, 165504, Note_on_c, 7, 62, 0
9, 165600, Note_on_c, 7, 62, 92
9, 165984, Note_on_c, 7, 62, 0
9, 166080, Note_on_c, 7, 62, 92
9, 166464, Note_on_c, 7, 62, 0
9, 167520, Note_on_c, 7, 62, 78
9, 168000, Note_on_c, 7, 62, 0
9, 168000, Note_on_c, 7, 64, 58
9, 168192, Note_on_c, 7, 64, 0
9, 168480, Note_on_c, 7, 66, 58
9, 168672, Note_on_c, 7, 66, 0
9, 168960, Note_on_c, 7, 67, 58
9, 169152, Note_on_c, 7, 67, 0
9, 169440, Note_on_c, 7, 69, 58
9, 169632, Note_on_c, 7, 69, 0
9, 169920, Note_on_c, 7, 71, 58
9, 170112, Note_on_c, 7, 71, 0
9, 170400, Note_on_c, 7, 73, 58
9, 170592, Note_on_c, 7, 73, 0
9, 170880, Note_on_c, 7, 74, 58
9, 171264, Note_on_c, 7, 74, 0
9, 171840, Note_on_c, 7, 55, 58
9, 172224, Note_on_c, 7, 55, 0
9, 172800, Note_on_c, 7, 57, 72
9, 172992, Note_on_c, 7, 57, 0
9, 173040, Note_on_c, 7, 56, 72
9, 173232, Note_on_c, 7, 56, 0
9, 173280, Note_on_c, 7, 57, 72
9, 173472, Note_on_c, 7, 57, 0
9, 173520, Note_on_c, 7, 56, 72
9, 173712, Note_on_c, 7, 56, 0
9, 173760, Note_on_c, 7, 57, 72
9, 173952, Note_on_c, 7, 57, 0
9, 174000, Note_on_c, 7, 59, 72
9, 174192, Note_on_c, 7, 59, 0
9, 174240, Note_on_c, 7, 55, 72
9, 174432, Note_on_c, 7, 55, 0
9, 174480, Note_on_c, 7, 52, 72
9, 174672, Note_on_c, 7, 52, 0
9, 174720, Note_on_c, 7, 50, 72
9, 174912, Note_on_c, 7, 50, 0
9, 175200, Note_on_c, 7, 54, 98
9, 175680, Note_on_c, 7, 54, 0
9, 175680, Note_on_c, 7, 55, 58
9, 175872, Note_on_c, 7, 55, 0
9, 176160, Note_on_c, 7, 57, 58
9, 176352, Note_on_c, 7, 57, 0
9, 176640, Note_on_c, 7, 59, 58
9, 176832, Note_on_c, 7, 59, 0
9, 177120, Note_on_c, 7, 61, 58
9, 177312, Note_on_c, 7, 61, 0
9, 177600, Note_on_c, 7, 62, 58
9, 177792, Note_on_c, 7, 62, 0
9, 178080, Note_on_c, 7, 64, 58
9, 178272, Note_on_c, 7, 64, 0
9, 178560, Note_on_c, 7, 57, 58
9, 179520, Note_on_c, 7, 57, 0
9, 179520, Note_on_c, 7, 59, 58
9, 180000, Note_on_c, 7, 59, 0
9, 180000, Note_on_c, 7, 62, 58
9, 180384, Note_on_c, 7, 62, 0
9, 180480, Note_on_c, 7, 68, 58
9, 181440, Note_on_c, 7, 68, 0
9, 181440, Note_on_c, 7, 69, 58
9, 181824, Note_on_c, 7, 69, 0
9, 186240, Note_on_c, 7, 49, 58
9, 186480, Note_on_c, 7, 49, 0
9, 186480, Note_on_c, 7, 50, 58
9, 186660, Note_on_c, 7, 50, 0
9, 186720, Note_on_c, 7, 52, 58
9, 186900, Note_on_c, 7, 52, 0
9, 186960, Note_on_c, 7, 54, 58
9, 187140, Note_on_c, 7, 54, 0
9, 187200, Note_on_c, 7, 55, 58
9, 187560, Note_on_c, 7, 55, 0
9, 188160, Note_on_c, 7, 61, 58
9, 188400, Note_on_c, 7, 61, 0
9, 188400, Note_on_c, 7, 62, 58
9, 188580, Note_on_c, 7, 62, 0
9, 188640, Note_on_c, 7, 64, 58
9, 188820, Note_on_c, 7, 64, 0
9, 188880, Note_on_c, 7, 66, 58
9, 189060, Note_on_c, 7, 66, 0
9, 189120, Note_on_c, 7, 67, 58
9, 189480, Note_on_c, 7, 67, 0
9, 190560, Note_on_c, 7, 61, 58
9, 190716, Note_on_c, 7, 61, 0
9, 190800, Note_on_c, 7, 62, 58
9, 190956, Note_on_c, 7, 62, 0
9, 191040, Note_on_c, 7, 64, 58
9, 191352, Note_on_c, 7, 64, 0
9, 192480, Note_on_c, 7, 61, 58
9, 192636, Note_on_c, 7, 61, 0
9, 192720, Note_on_c, 7, 62, 58
9, 192876, Note_on_c, 7, 62, 0
9, 192960, Note_on_c, 7, 64, 58
9, 193272, Note_on_c, 7, 64, 0
9, 193920, Note_on_c, 7, 69, 72
9, 194400, Note_on_c, 7, 69, 0
9, 194400, Note_on_c, 7, 70, 72
9, 194880, Note_on_c, 7, 70, 0
9, 194880, Note_on_c, 7, 69, 72
9, 195360, Note_on_c, 7, 69, 0
9, 195360, Note_on_c, 7, 70, 72
9, 195840, Note_on_c, 7, 70, 0
9, 195840, Note_on_c, 7, 69, 58
9, 196224, Note_on_c, 7, 69, 0
9, 197760, Note_on_c, 7, 62, 58
9, 197952, Note_on_c, 7, 62, 0
9, 198000, Note_on_c, 7, 62, 58
9, 198192, Note_on_c, 7, 62, 0
9, 198240, Note_on_c, 7, 54, 58
9, 198432, Note_on_c, 7, 54, 0
9, 198480, Note_on_c, 7, 54, 58
9, 198672, Note_on_c, 7, 54, 0
9, 198720, Note_on_c, 7, 57, 58
9, 198912, Note_on_c, 7, 57, 0
9, 198960, Note_on_c, 7, 57, 58
9, 199152, Note_on_c, 7, 57, 0
9, 199200, Note_on_c, 7, 62, 58
9, 199392, Note_on_c, 7, 62, 0
9, 199440, Note_on_c, 7, 62, 58
9, 199632, Note_on_c, 7, 62, 0
9, 199680, Note_on_c, 7, 64, 58
9, 199872, Note_on_c, 7, 64, 0
9, 199920, Note_on_c, 7, 64, 58
9, 200112, Note_on_c, 7, 64, 0
9, 200160, Note_on_c, 7, 64, 58
9, 200352, Note_on_c, 7, 64, 0
9, 200400, Note_on_c, 7, 64, 58
9, 200592, Note_on_c, 7, 64, 0
9, 200640, Note_on_c, 7, 62, 58
9, 200832, Note_on_c, 7, 62, 0
9, 200880, Note_on_c, 7, 62, 58
9, 201072, Note_on_c, 7, 62, 0
9, 201120, Note_on_c, 7, 62, 58
9, 201312, Note_on_c, 7, 62, 0
9, 201360, Note_on_c, 7, 62, 58
9, 201552, Note_on_c, 7, 62, 0
9, 201600, Note_on_c, 7, 64, 58
9, 201792, Note_on_c, 7, 64, 0
9, 201840, Note_on_c, 7, 64, 58
9, 202032, Note_on_c, 7, 64, 0
9, 202080, Note_on_c, 7, 64, 58
9, 202272, Note_on_c, 7, 64, 0
9, 202320, Note_on_c, 7, 64, 58
9, 202512, Note_on_c, 7, 64, 0
9, 202560, Note_on_c, 7, 62, 58
9, 202752, Note_on_c, 7, 62, 0
9, 202800, Note_on_c, 7, 62, 58
9, 202992, Note_on_c, 7, 62, 0
9, 203040, Note_on_c, 7, 62, 58
9, 203232, Note_on_c, 7, 62, 0
9, 203280, Note_on_c, 7, 62, 58
9, 203472, Note_on_c, 7, 62, 0
9, 203520, Note_on_c, 7, 61, 58
9, 203676, Note_on_c, 7, 61, 0
9, 203760, Note_on_c, 7, 71, 58
9, 203916, Note_on_c, 7, 71, 0
9, 204000, Note_on_c, 7, 69, 58
9, 204156, Note_on_c, 7, 69, 0
9, 204240, Note_on_c, 7, 67, 58
9, 204396, Note_on_c, 7, 67, 0
9, 204480, Note_on_c, 7, 66, 58
9, 204636, Note_on_c, 7, 66, 0
9, 204720, Note_on_c, 7, 64, 58
9, 204876, Note_on_c, 7, 64, 0
9, 204960, Note_on_c, 7, 62, 58
9, 205116, Note_on_c, 7, 62, 0
9, 205200, Note_on_c, 7, 61, 58
9, 205356, Note_on_c, 7, 61, 0
9, 205440, Note_on_c, 7, 62, 58
9, 205632, Note_on_c, 7, 62, 0
9, 205680, Note_on_c, 7, 62, 58
9, 205872, Note_on_c, 7, 62, 0
9, 205920, Note_on_c, 7, 54, 58
9, 206112, Note_on_c, 7, 54, 0
9, 206160, Note_on_c, 7, 54, 58
9, 206352, Note_on_c, 7, 54, 0
9, 206400, Note_on_c, 7, 57, 58
9, 206592, Note_on_c, 7, 57, 0
9, 206640, Note_on_c, 7, 57, 58
9, 206832, Note_on_c, 7, 57, 0
9, 206880, Note_on_c, 7, 62, 58
9, 207072, Note_on_c, 7, 62, 0
9, 207120, Note_on_c, 7, 62, 58
9, 207312, Note_on_c, 7, 62, 0
9, 207360, Note_on_c, 7, 64, 58
9, 207552, Note_on_c, 7, 64, 0
9, 207600, Note_on_c, 7, 64, 58
9, 207792, Note_on_c, 7, 64, 0
9, 207840, Note_on_c, 7, 64, 58
9, 208032, Note_on_c, 7, 64, 0
9, 208080, Note_on_c, 7, 64, 58
9, 208272, Note_on_c, 7, 64, 0
9, 208320, Note_on_c, 7, 62, 58
9, 208512, Note_on_c, 7, 62, 0
9, 208560, Note_on_c, 7, 62, 58
9, 208752, Note_on_c, 7, 62, 0
9, 208800, Note_on_c, 7, 62, 58
9, 208992, Note_on_c, 7, 62, 0
9, 209040, Note_on_c, 7, 62, 58
9, 209232, Note_on_c, 7, 62, 0
9, 209280, Note_on_c, 7, 62, 58
9, 209472, Note_on_c, 7, 62, 0
9, 209520, Note_on_c, 7, 62, 58
9, 209712, Note_on_c, 7, 62, 0
9, 209760, Note_on_c, 7, 62, 58
9, 209952, Note_on_c, 7, 62, 0
9, 210000, Note_on_c, 7, 62, 58
9, 210192, Note_on_c, 7, 62, 0
9, 210240, Note_on_c, 7, 62, 58
9, 210432, Note_on_c, 7, 62, 0
9, 210480, Note_on_c, 7, 62, 58
9, 210672, Note_on_c, 7, 62, 0
9, 210720, Note_on_c, 7, 62, 58
9, 210912, Note_on_c, 7, 62, 0
9, 210960, Note_on_c, 7, 62, 58
9, 211152, Note_on_c, 7, 62, 0
9, 211200, Note_on_c, 7, 62, 58
9, 212544, Note_on_c, 7, 62, 0
9, 213120, Note_on_c, 7, 64, 58
9, 213312, Note_on_c, 7, 64, 0
9, 213360, Note_on_c, 7, 64, 58
9, 213552, Note_on_c, 7, 64, 0
9, 213600, Note_on_c, 7, 63, 58
9, 213792, Note_on_c, 7, 63, 0
9, 213840, Note_on_c, 7, 63, 58
9, 214032, Note_on_c, 7, 63, 0
9, 214080, Note_on_c, 7, 64, 58
9, 214272, Note_on_c, 7, 64, 0
9, 214320, Note_on_c, 7, 64, 58
9, 214512, Note_on_c, 7, 64, 0
9, 214560, Note_on_c, 7, 63, 58
9, 214752, Note_on_c, 7, 63, 0
9, 214800, Note_on_c, 7, 63, 58
9, 214992, Note_on_c, 7, 63, 0
9, 215040, Note_on_c, 7, 64, 58
9, 215232, Note_on_c, 7, 64, 0
9, 215280, Note_on_c, 7, 64, 58
9, 215472, Note_on_c, 7, 64, 0
9, 215520, Note_on_c, 7, 64, 58
9, 215712, Note_on_c, 7, 64, 0
9, 215760, Note_on_c, 7, 64, 58
9, 215952, Note_on_c, 7, 64, 0
9, 216000, Note_on_c, 7, 62, 58
9, 216192, Note_on_c, 7, 62, 0
9, 216240, Note_on_c, 7, 62, 58
9, 216432, Note_on_c, 7, 62, 0
9, 216480, Note_on_c, 7, 62, 58
9, 216672, Note_on_c, 7, 62, 0
9, 216720, Note_on_c, 7, 62, 58
9, 216912, Note_on_c, 7, 62, 0
9, 216960, Note_on_c, 7, 59, 58
9, 217152, Note_on_c, 7, 59, 0
9, 217200, Note_on_c, 7, 59, 58
9, 217392, Note_on_c, 7, 59, 0
9, 217440, Note_on_c, 7, 59, 58
9, 217632, Note_on_c, 7, 59, 0
9, 217680, Note_on_c, 7, 59, 58
9, 217872, Note_on_c, 7, 59, 0
9, 217920, Note_on_c, 7, 57, 58
9, 218112, Note_on_c, 7, 57, 0
9, 218160, Note_on_c, 7, 57, 58
9, 218352, Note_on_c, 7, 57, 0
9, 218400, Note_on_c, 7, 57, 58
9, 218592, Note_on_c, 7, 57, 0
9, 218640, Note_on_c, 7, 57, 58
9, 218832, Note_on_c, 7, 57, 0
9, 218880, Note_on_c, 7, 57, 58
9, 220080, Note_on_c, 7, 57, 0
9, 220080, Note_on_c, 7, 61, 58
9, 220320, Note_on_c, 7, 61, 0
9, 220320, Note_on_c, 7, 64, 58
9, 220560, Note_on_c, 7, 64, 0
9, 220560, Note_on_c, 7, 57, 58
9, 220752, Note_on_c, 7, 57, 0
9, 220800, Note_on_c, 7, 69, 58
9, 222000, Note_on_c, 7, 69, 0
9, 222000, Note_on_c, 7, 71, 58
9, 222240, Note_on_c, 7, 71, 0
9, 222240, Note_on_c, 7, 67, 58
9, 222480, Note_on_c, 7, 67, 0
9, 222480, Note_on_c, 7, 69, 58
9, 222672, Note_on_c, 7, 69, 0
9, 222720, Note_on_c, 7, 66, 58
9, 223920, Note_on_c, 7, 66, 0
9, 223920, Note_on_c, 7, 67, 58
9, 224160, Note_on_c, 7, 67, 0
9, 224160, Note_on_c, 7, 64, 58
9, 224400, Note_on_c, 7, 64, 0
9, 224400, Note_on_c, 7, 61, 58
9, 224592, Note_on_c, 7, 61, 0
9, 224640, Note_on_c, 7, 62, 105
9, 224880, Note_on_c, 7, 62, 0
9, 224880, Note_on_c, 7, 69, 105
9, 225072, Note_on_c, 7, 69, 0
9, 225120, Note_on_c, 7, 69, 105
9, 225312, Note_on_c, 7, 69, 0
9, 225360, Note_on_c, 7, 69, 105
9, 225552, Note_on_c, 7, 69, 0
9, 225600, Note_on_c, 7, 69, 105
9, 225840, Note_on_c, 7, 69, 0
9, 225840, Note_on_c, 7, 61, 105
9, 226032, Note_on_c, 7, 61, 0
9, 226080, Note_on_c, 7, 61, 105
9, 226272, Note_on_c, 7, 61, 0
9, 226320, Note_on_c, 7, 61, 105
9, 226512, Note_on_c, 7, 61, 0
9, 226560, Note_on_c, 7, 62, 105
9, 226800, Note_on_c, 7, 62, 0
9, 226800, Note_on_c, 7, 64, 105
9, 226992, Note_on_c, 7, 64, 0
9, 227040, Note_on_c, 7, 66, 105
9, 227232, Note_on_c, 7, 66, 0
9, 227280, Note_on_c, 7, 67, 105
9, 227472, Note_on_c, 7, 67, 0
9, 227520, Note_on_c, 7, 66, 105
9, 227760, Note_on_c, 7, 66, 0
9, 227760, Note_on_c, 7, 64, 105
9, 227952, Note_on_c, 7, 64, 0
9, 228000, Note_on_c, 7, 69, 105
9, 228192, Note_on_c, 7, 69, 0
9, 228240, Note_on_c, 7, 67, 105
9, 228432, Note_on_c, 7, 67, 0
9, 228480, Note_on_c, 7, 67, 105
9, 228720, Note_on_c, 7, 67, 0
9, 228720, Note_on_c, 7, 66, 105
9, 228912, Note_on_c, 7, 66, 0
9, 228960, Note_on_c, 7, 66, 105
9, 229152, Note_on_c, 7, 66, 0
9, 229200, Note_on_c, 7, 66, 105
9, 229392, Note_on_c, 7, 66, 0
9, 229440, Note_on_c, 7, 66, 105
9, 229680, Note_on_c, 7, 66, 0
9, 229680, Note_on_c, 7, 69, 105
9, 229872, Note_on_c, 7, 69, 0
9, 229920, Note_on_c, 7, 67, 105
9, 230112, Note_on_c, 7, 67, 0
9, 230160, Note_on_c, 7, 64, 105
9, 230352, Note_on_c, 7, 64, 0
9, 230400, Note_on_c, 7, 62, 105
9, 230592, Note_on_c, 7, 62, 0
9, 230640, Note_on_c, 7, 54, 58
9, 230832, Note_on_c, 7, 54, 0
9, 230880, Note_on_c, 7, 54, 58
9, 231072, Note_on_c, 7, 54, 0
9, 231120, Note_on_c, 7, 54, 58
9, 231312, Note_on_c, 7, 54, 0
9, 231360, Note_on_c, 7, 54, 58
9, 231552, Note_on_c, 7, 54, 0
9, 231600, Note_on_c, 7, 54, 58
9, 231792, Note_on_c, 7, 54, 0
9, 231840, Note_on_c, 7, 54, 58
9, 232032, Note_on_c, 7, 54, 0
9, 232080, Note_on_c, 7, 54, 58
9, 232272, Note_on_c, 7, 54, 0
9, 232320, Note_on_c, 7, 54, 58
9, 232512, Note_on_c, 7, 54, 0
9, 232560, Note_on_c, 7, 54, 58
9, 232752, Note_on_c, 7, 54, 0
9, 232800, Note_on_c, 7, 54, 58
9, 232992, Note_on_c, 7, 54, 0
9, 233040, Note_on_c, 7, 54, 58
9, 233232, Note_on_c, 7, 54, 0
9, 233280, Note_on_c, 7, 54, 58
9, 233472, Note_on_c, 7, 54, 0
9, 233520, Note_on_c, 7, 54, 58
9, 233712, Note_on_c, 7, 54, 0
9, 233760, Note_on_c, 7, 54, 58
9, 233952, Note_on_c, 7, 54, 0
9, 234000, Note_on_c, 7, 54, 58
9, 234192, Note_on_c, 7, 54, 0
9, 234240, Note_on_c, 7, 55, 58
9, 234432, Note_on_c, 7, 55, 0
9, 234480, Note_on_c, 7, 55, 58
9, 234672, Note_on_c, 7, 55, 0
9, 234720, Note_on_c, 7, 55, 58
9, 234912, Note_on_c, 7, 55, 0
9, 234960, Note_on_c, 7, 55, 58
9, 235152, Note_on_c, 7, 55, 0
9, 235200, Note_on_c, 7, 55, 58
9, 235392, Note_on_c, 7, 55, 0
9, 235440, Note_on_c, 7, 55, 58
9, 235632, Note_on_c, 7, 55, 0
9, 235680, Note_on_c, 7, 55, 58
9, 235872, Note_on_c, 7, 55, 0
9, 235920, Note_on_c, 7, 55, 58
9, 236112, Note_on_c, 7, 55, 0
9, 236160, Note_on_c, 7, 55, 58
9, 236352, Note_on_c, 7, 55, 0
9, 236400, Note_on_c, 7, 55, 58
9, 236592, Note_on_c, 7, 55, 0
9, 236640, Note_on_c, 7, 62, 58
9, 236832, Note_on_c, 7, 62, 0
9, 236880, Note_on_c, 7, 62, 58
9, 237072, Note_on_c, 7, 62, 0
9, 237120, Note_on_c, 7, 60, 58
9, 237312, Note_on_c, 7, 60, 0
9, 237360, Note_on_c, 7, 60, 58
9, 237552, Note_on_c, 7, 60, 0
9, 237600, Note_on_c, 7, 59, 58
9, 237792, Note_on_c, 7, 59, 0
9, 237840, Note_on_c, 7, 59, 58
9, 238032, Note_on_c, 7, 59, 0
9, 238080, Note_on_c, 7, 57, 58
9, 238272, Note_on_c, 7, 57, 0
9, 238320, Note_on_c, 7, 57, 58
9, 238512, Note_on_c, 7, 57, 0
9, 238560, Note_on_c, 7, 57, 58
9, 238752, Note_on_c, 7, 57, 0
9, 238800, Note_on_c, 7, 57, 58
9, 238992, Note_on_c, 7, 57, 0
9, 239040, Note_on_c, 7, 57, 58
9, 239232, Note_on_c, 7, 57, 0
9, 239280, Note_on_c, 7, 57, 58
9, 239472, Note_on_c, 7, 57, 0
9, 239520, Note_on_c, 7, 57, 58
9, 239712, Note_on_c, 7, 57, 0
9, 239760, Note_on_c, 7, 57, 58
9, 239952, Note_on_c, 7, 57, 0
9, 240000, Note_on_c, 7, 62, 58
9, 240192, Note_on_c, 7, 62, 0
9, 240240, Note_on_c, 7, 62, 58
9, 240432, Note_on_c, 7, 62, 0
9, 240480, Note_on_c, 7, 64, 58
9, 240672, Note_on_c, 7, 64, 0
9, 240720, Note_on_c, 7, 64, 58
9, 240912, Note_on_c, 7, 64, 0
9, 240960, Note_on_c, 7, 66, 58
9, 241152, Note_on_c, 7, 66, 0
9, 241200, Note_on_c, 7, 66, 58
9, 241392, Note_on_c, 7, 66, 0
9, 241440, Note_on_c, 7, 67, 58
9, 241632, Note_on_c, 7, 67, 0
9, 241680, Note_on_c, 7, 67, 58
9, 241872, Note_on_c, 7, 67, 0
9, 241920, Note_on_c, 7, 66, 58
9, 241920, Note_on_c, 7, 69, 58
9, 242304, Note_on_c, 7, 69, 0
9, 242304, Note_on_c, 7, 66, 0
9, 243120, Note_on_c, 7, 62, 92
9, 243276, Note_on_c, 7, 62, 0
9, 243360, Note_on_c, 7, 66, 92
9, 243516, Note_on_c, 7, 66, 0
9, 243600, Note_on_c, 7, 69, 92
9, 243756, Note_on_c, 7, 69, 0
9, 243840, Note_on_c, 7, 72, 92
9, 244152, Note_on_c, 7, 72, 0
9, 244320, Note_on_c, 7, 72, 92
9, 244632, Note_on_c, 7, 72, 0
9, 244800, Note_on_c, 7, 72, 92
9, 245112, Note_on_c, 7, 72, 0
9, 245280, Note_on_c, 7, 72, 92
9, 245592, Note_on_c, 7, 72, 0
9, 245760, Note_on_c, 7, 63, 92
9, 246144, Note_on_c, 7, 63, 0
9, 247680, Note_on_c, 7, 51, 58
9, 247872, Note_on_c, 7, 51, 0
9, 247920, Note_on_c, 7, 51, 58
9, 248112, Note_on_c, 7, 51, 0
9, 248160, Note_on_c, 7, 55, 58
9, 248352, Note_on_c, 7, 55, 0
9, 248400, Note_on_c, 7, 55, 58
9, 248592, Note_on_c, 7, 55, 0
9, 248640, Note_on_c, 7, 58, 58
9, 248832, Note_on_c, 7, 58, 0
9, 248880, Note_on_c, 7, 58, 58
9, 249072, Note_on_c, 7, 58, 0
9, 249120, Note_on_c, 7, 63, 58
9, 249312, Note_on_c, 7, 63, 0
9, 249360, Note_on_c, 7, 63, 58
9, 249552, Note_on_c, 7, 63, 0
9, 249600, Note_on_c, 7, 65, 58
9, 249792, Note_on_c, 7, 65, 0
9, 249840, Note_on_c, 7, 65, 58
9, 250032, Note_on_c, 7, 65, 0
9, 250080, Note_on_c, 7, 65, 58
9, 250272, Note_on_c, 7, 65, 0
9, 250320, Note_on_c, 7, 65, 58
9, 250512, Note_on_c, 7, 65, 0
9, 250560, Note_on_c, 7, 63, 58
9, 250752, Note_on_c, 7, 63, 0
9, 250800, Note_on_c, 7, 63, 58
9, 250992, Note_on_c, 7, 63, 0
9, 251040, Note_on_c, 7, 63, 58
9, 251232, Note_on_c, 7, 63, 0
9, 251280, Note_on_c, 7, 63, 58
9, 251472, Note_on_c, 7, 63, 0
9, 251520, Note_on_c, 7, 58, 58
9, 251712, Note_on_c, 7, 58, 0
9, 251760, Note_on_c, 7, 58, 58
9, 251952, Note_on_c, 7, 58, 0
9, 252000, Note_on_c, 7, 58, 58
9, 252192, Note_on_c, 7, 58, 0
9, 252240, Note_on_c, 7, 58, 58
9, 252432, Note_on_c, 7, 58, 0
9, 252480, Note_on_c, 7, 58, 58
9, 252672, Note_on_c, 7, 58, 0
9, 252720, Note_on_c, 7, 58, 58
9, 252912, Note_on_c, 7, 58, 0
9, 252960, Note_on_c, 7, 58, 58
9, 253152, Note_on_c, 7, 58, 0
9, 253200, Note_on_c, 7, 58, 58
9, 253392, Note_on_c, 7, 58, 0
9, 253440, Note_on_c, 7, 58, 58
9, 253632, Note_on_c, 7, 58, 0
9, 253680, Note_on_c, 7, 63, 58
9, 253872, Note_on_c, 7, 63, 0
9, 253920, Note_on_c, 7, 62, 58
9, 254112, Note_on_c, 7, 62, 0
9, 254160, Note_on_c, 7, 60, 58
9, 254352, Note_on_c, 7, 60, 0
9, 254400, Note_on_c, 7, 58, 58
9, 254592, Note_on_c, 7, 58, 0
9, 254640, Note_on_c, 7, 56, 58
9, 254832, Note_on_c, 7, 56, 0
9, 254880, Note_on_c, 7, 55, 58
9, 255072, Note_on_c, 7, 55, 0
9, 255120, Note_on_c, 7, 53, 58
9, 255312, Note_on_c, 7, 53, 0
9, 255360, Note_on_c, 7, 51, 58
9, 255552, Note_on_c, 7, 51, 0
9, 255600, Note_on_c, 7, 51, 58
9, 255792, Note_on_c, 7, 51, 0
9, 255840, Note_on_c, 7, 55, 58
9, 256032, Note_on_c, 7, 55, 0
9, 256080, Note_on_c, 7, 55, 58
9, 256272, Note_on_c, 7, 55, 0
9, 256320, Note_on_c, 7, 58, 58
9, 256512, Note_on_c, 7, 58, 0
9, 256560, Note_on_c, 7, 58, 58
9, 256752, Note_on_c, 7, 58, 0
9, 256800, Note_on_c, 7, 63, 58
9, 256992, Note_on_c, 7, 63, 0
9, 257040, Note_on_c, 7, 63, 58
9, 257232, Note_on_c, 7, 63, 0
9, 257280, Note_on_c, 7, 65, 58
9, 257472, Note_on_c, 7, 65, 0
9, 257520, Note_on_c, 7, 65, 58
9, 257712, Note_on_c, 7, 65, 0
9, 257760, Note_on_c, 7, 65, 58
9, 257952, Note_on_c, 7, 65, 0
9, 258000, Note_on_c, 7, 65, 58
9, 258192, Note_on_c, 7, 65, 0
9, 258240, Note_on_c, 7, 63, 58
9, 258432, Note_on_c, 7, 63, 0
9, 258480, Note_on_c, 7, 63, 58
9, 258672, Note_on_c, 7, 63, 0
9, 258720, Note_on_c, 7, 63, 58
9, 258912, Note_on_c, 7, 63, 0
9, 258960, Note_on_c, 7, 63, 58
9, 259152, Note_on_c, 7, 63, 0
9, 259200, Note_on_c, 7, 63, 58
9, 259392, Note_on_c, 7, 63, 0
9, 259440, Note_on_c, 7, 63, 58
9, 259632, Note_on_c, 7, 63, 0
9, 259680, Note_on_c, 7, 63, 58
9, 259872, Note_on_c, 7, 63, 0
9, 259920, Note_on_c, 7, 63, 58
9, 260112, Note_on_c, 7, 63, 0
9, 260160, Note_on_c, 7, 62, 58
9, 260352, Note_on_c, 7, 62, 0
9, 260400, Note_on_c, 7, 62, 58
9, 260592, Note_on_c, 7, 62, 0
9, 260640, Note_on_c, 7, 63, 58
9, 260832, Note_on_c, 7, 63, 0
9, 260880, Note_on_c, 7, 65, 58
9, 261072, Note_on_c, 7, 65, 0
9, 261120, Note_on_c, 7, 63, 105
9, 261360, Note_on_c, 7, 63, 0
9, 261360, Note_on_c, 7, 58, 105
9, 261600, Note_on_c, 7, 58, 0
9, 261600, Note_on_c, 7, 55, 105
9, 261840, Note_on_c, 7, 55, 0
9, 261840, Note_on_c, 7, 58, 105
9, 262080, Note_on_c, 7, 58, 0
9, 262080, Note_on_c, 7, 56, 105
9, 262320, Note_on_c, 7, 56, 0
9, 262320, Note_on_c, 7, 58, 105
9, 262560, Note_on_c, 7, 58, 0
9, 262560, Note_on_c, 7, 56, 105
9, 262800, Note_on_c, 7, 56, 0
9, 262800, Note_on_c, 7, 58, 105
9, 262992, Note_on_c, 7, 58, 0
9, 263040, Note_on_c, 7, 55, 105
9, 263280, Note_on_c, 7, 55, 0
9, 263280, Note_on_c, 7, 58, 105
9, 263520, Note_on_c, 7, 58, 0
9, 263520, Note_on_c, 7, 55, 105
9, 263760, Note_on_c, 7, 55, 0
9, 263760, Note_on_c, 7, 58, 105
9, 264000, Note_on_c, 7, 58, 0
9, 264000, Note_on_c, 7, 56, 105
9, 264240, Note_on_c, 7, 56, 0
9, 264240, Note_on_c, 7, 58, 105
9, 264480, Note_on_c, 7, 58, 0
9, 264480, Note_on_c, 7, 56, 105
9, 264720, Note_on_c, 7, 56, 0
9, 264720, Note_on_c, 7, 58, 105
9, 264912, Note_on_c, 7, 58, 0
9, 264960, Note_on_c, 7, 55, 105
9, 265248, Note_on_c, 7, 55, 0
9, 265440, Note_on_c, 7, 63, 105
9, 266160, Note_on_c, 7, 63, 0
9, 266160, Note_on_c, 7, 65, 105
9, 266400, Note_on_c, 7, 65, 0
9, 266400, Note_on_c, 7, 62, 105
9, 266640, Note_on_c, 7, 62, 0
9, 266640, Note_on_c, 7, 58, 105
9, 266832, Note_on_c, 7, 58, 0
9, 266880, Note_on_c, 7, 67, 105
9, 268080, Note_on_c, 7, 67, 0
9, 268080, Note_on_c, 7, 68, 105
9, 268320, Note_on_c, 7, 68, 0
9, 268320, Note_on_c, 7, 65, 105
9, 268560, Note_on_c, 7, 65, 0
9, 268560, Note_on_c, 7, 62, 105
9, 268752, Note_on_c, 7, 62, 0
9, 268800, Note_on_c, 7, 63, 92
9, 269088, Note_on_c, 7, 63, 0
9, 269280, Note_on_c, 7, 63, 92
9, 269280, Note_on_c, 7, 55, 92
9, 269568, Note_on_c, 7, 55, 0
9, 269568, Note_on_c, 7, 63, 0
9, 270240, Note_on_c, 7, 55, 92
9, 270240, Note_on_c, 7, 63, 92
9, 270528, Note_on_c, 7, 63, 0
9, 270528, Note_on_c, 7, 55, 0
9, 271200, Note_on_c, 7, 55, 92
9, 271200, Note_on_c, 7, 63, 92
9, 271488, Note_on_c, 7, 63, 0
9, 271488, Note_on_c, 7, 55, 0
9, 271680, Note_on_c, 7, 55, 92
9, 271680, Note_on_c, 7, 63, 92
9, 271968, Note_on_c, 7, 63, 0
9, 271968, Note_on_c, 7, 55, 0
9, 272160, Note_on_c, 7, 55, 92
9, 272160, Note_on_c, 7, 63, 92
9, 272448, Note_on_c, 7, 63, 0
9, 272448, Note_on_c, 7, 55, 0
9, 273120, Note_on_c, 7, 55, 92
9, 273120, Note_on_c, 7, 65, 92
9, 273408, Note_on_c, 7, 65, 0
9, 273408, Note_on_c, 7, 55, 0
9, 274080, Note_on_c, 7, 55, 92
9, 274080, Note_on_c, 7, 65, 92
9, 274368, Note_on_c, 7, 65, 0
9, 274368, Note_on_c, 7, 55, 0
9, 275040, Note_on_c, 7, 65, 92
9, 275040, Note_on_c, 7, 55, 92
9, 275328, Note_on_c, 7, 55, 0
9, 275328, Note_on_c, 7, 65, 0
9, 275520, Note_on_c, 7, 55, 92
9, 275520, Note_on_c, 7, 65, 92
9, 275808, Note_on_c, 7, 65, 0
9, 275808, Note_on_c, 7, 55, 0
9, 276000, Note_on_c, 7, 55, 92
9, 276000, Note_on_c, 7, 65, 92
9, 276288, Note_on_c, 7, 65, 0
9, 276288, Note_on_c, 7, 55, 0
9, 276960, Note_on_c, 7, 55, 92
9, 276960, Note_on_c, 7, 67, 92
9, 277248, Note_on_c, 7, 67, 0
9, 277248, Note_on_c, 7, 55, 0
9, 277920, Note_on_c, 7, 55, 92
9, 277920, Note_on_c, 7, 67, 92
9, 278208, Note_on_c, 7, 67, 0
9, 278208, Note_on_c, 7, 55, 0
9, 278880, Note_on_c, 7, 67, 92
9, 278880, Note_on_c, 7, 55, 92
9, 279168, Note_on_c, 7, 55, 0
9, 279168, Note_on_c, 7, 67, 0
9, 279360, Note_on_c, 7, 67, 92
9, 279360, Note_on_c, 7, 55, 92
9, 279648, Note_on_c, 7, 55, 0
9, 279648, Note_on_c, 7, 67, 0
9, 279840, Note_on_c, 7, 67, 92
9, 279840, Note_on_c, 7, 55, 92
9, 280128, Note_on_c, 7, 55, 0
9, 280128, Note_on_c, 7, 67, 0
9, 280800, Note_on_c, 7, 57, 92
9, 280800, Note_on_c, 7, 62, 92
9, 281088, Note_on_c, 7, 62, 0
9, 281088, Note_on_c, 7, 57, 0
9, 281760, Note_on_c, 7, 57, 92
9, 281760, Note_on_c, 7, 62, 92
9, 282048, Note_on_c, 7, 62, 0
9, 282048, Note_on_c, 7, 57, 0
9, 282720, Note_on_c, 7, 62, 92
9, 282720, Note_on_c, 7, 57, 92
9, 283008, Note_on_c, 7, 57, 0
9, 283008, Note_on_c, 7, 62, 0
9, 283200, Note_on_c, 7, 57, 92
9, 283200, Note_on_c, 7, 62, 92
9, 283488, Note_on_c, 7, 62, 0
9, 283488, Note_on_c, 7, 57, 0
9, 283680, Note_on_c, 7, 62, 92
9, 283680, Note_on_c, 7, 57, 92
9, 283968, Note_on_c, 7, 57, 0
9, 283968, Note_on_c, 7, 62, 0
9, 284640, Note_on_c, 7, 58, 92
9, 284640, Note_on_c, 7, 67, 92
9, 284928, Note_on_c, 7, 67, 0
9, 284928, Note_on_c, 7, 58, 0
9, 285600, Note_on_c, 7, 67, 92
9, 285600, Note_on_c, 7, 58, 92
9, 285888, Note_on_c, 7, 58, 0
9, 285888, Note_on_c, 7, 67, 0
9, 286560, Note_on_c, 7, 58, 92
9, 286560, Note_on_c, 7, 67, 92
9, 286848, Note_on_c, 7, 67, 0
9, 286848, Note_on_c, 7, 58, 0
9, 287040, Note_on_c, 7, 58, 92
9, 287040, Note_on_c, 7, 67, 92
9, 287328, Note_on_c, 7, 67, 0
9, 287328, Note_on_c, 7, 58, 0
9, 287520, Note_on_c, 7, 58, 92
9, 287520, Note_on_c, 7, 67, 92
9, 287808, Note_on_c, 7, 67, 0
9, 287808, Note_on_c, 7, 58, 0
9, 288000, Note_on_c, 7, 67, 92
9, 288240, Note_on_c, 7, 67, 0
9, 288240, Note_on_c, 7, 63, 92
9, 288396, Note_on_c, 7, 63, 0
9, 288480, Note_on_c, 7, 63, 92
9, 288636, Note_on_c, 7, 63, 0
9, 288720, Note_on_c, 7, 63, 92
9, 288876, Note_on_c, 7, 63, 0
9, 288960, Note_on_c, 7, 63, 92
9, 289200, Note_on_c, 7, 63, 0
9, 289200, Note_on_c, 7, 58, 92
9, 289356, Note_on_c, 7, 58, 0
9, 289440, Note_on_c, 7, 58, 92
9, 289596, Note_on_c, 7, 58, 0
9, 289680, Note_on_c, 7, 58, 92
9, 289836, Note_on_c, 7, 58, 0
9, 289920, Note_on_c, 7, 58, 92
9, 290160, Note_on_c, 7, 58, 0
9, 290160, Note_on_c, 7, 55, 92
9, 290316, Note_on_c, 7, 55, 0
9, 290400, Note_on_c, 7, 55, 92
9, 290556, Note_on_c, 7, 55, 0
9, 290640, Note_on_c, 7, 55, 92
9, 290796, Note_on_c, 7, 55, 0
9, 290880, Note_on_c, 7, 55, 92
9, 291120, Note_on_c, 7, 55, 0
9, 291120, Note_on_c, 7, 51, 92
9, 291276, Note_on_c, 7, 51, 0
9, 291360, Note_on_c, 7, 51, 92
9, 291516, Note_on_c, 7, 51, 0
9, 291600, Note_on_c, 7, 49, 92
9, 291756, Note_on_c, 7, 49, 0
9, 291840, Note_on_c, 7, 50, 92
9, 291996, Note_on_c, 7, 50, 0
9, 292080, Note_on_c, 7, 62, 92
9, 292236, Note_on_c, 7, 62, 0
9, 292320, Note_on_c, 7, 60, 92
9, 292476, Note_on_c, 7, 60, 0
9, 292560, Note_on_c, 7, 62, 92
9, 292716, Note_on_c, 7, 62, 0
9, 292800, Note_on_c, 7, 58, 92
9, 292956, Note_on_c, 7, 58, 0
9, 293040, Note_on_c, 7, 62, 92
9, 293196, Note_on_c, 7, 62, 0
9, 293280, Note_on_c, 7, 58, 92
9, 293436, Note_on_c, 7, 58, 0
9, 293520, Note_on_c, 7, 55, 92
9, 293676, Note_on_c, 7, 55, 0
9, 293760, Note_on_c, 7, 62, 92
9, 294048, Note_on_c, 7, 62, 0
9, 294240, Note_on_c, 7, 50, 92
9, 294528, Note_on_c, 7, 50, 0
9, 294720, Note_on_c, 7, 50, 92
9, 295008, Note_on_c, 7, 50, 0
9, 296160, Note_on_c, 7, 55, 98
9, 296640, Note_on_c, 7, 55, 0
9, 296640, Note_on_c, 7, 57, 58
9, 296832, Note_on_c, 7, 57, 0
9, 297120, Note_on_c, 7, 59, 58
9, 297312, Note_on_c, 7, 59, 0
9, 297600, Note_on_c, 7, 60, 58
9, 297792, Note_on_c, 7, 60, 0
9, 298080, Note_on_c, 7, 62, 58
9, 298272, Note_on_c, 7, 62, 0
9, 298560, Note_on_c, 7, 64, 58
9, 298752, Note_on_c, 7, 64, 0
9, 299040, Note_on_c, 7, 66, 58
9, 299232, Note_on_c, 7, 66, 0
9, 299520, Note_on_c, 7, 67, 58
9, 299832, Note_on_c, 7, 67, 0
9, 300480, Note_on_c, 7, 48, 58
9, 300792, Note_on_c, 7, 48, 0
9, 301440, Note_on_c, 7, 50, 72
9, 301632, Note_on_c, 7, 50, 0
9, 301680, Note_on_c, 7, 49, 72
9, 301872, Note_on_c, 7, 49, 0
9, 301920, Note_on_c, 7, 50, 72
9, 302112, Note_on_c, 7, 50, 0
9, 302160, Note_on_c, 7, 49, 72
9, 302352, Note_on_c, 7, 49, 0
9, 302400, Note_on_c, 7, 50, 72
9, 302592, Note_on_c, 7, 50, 0
9, 302640, Note_on_c, 7, 51, 72
9, 302832, Note_on_c, 7, 51, 0
9, 302880, Note_on_c, 7, 52, 72
9, 303072, Note_on_c, 7, 52, 0
9, 303120, Note_on_c, 7, 54, 72
9, 303312, Note_on_c, 7, 54, 0
9, 303360, Note_on_c, 7, 55, 58
9, 303552, Note_on_c, 7, 55, 0
9, 303840, Note_on_c, 7, 59, 98
9, 304320, Note_on_c, 7, 59, 0
9, 304320, Note_on_c, 7, 60, 58
9, 304512, Note_on_c, 7, 60, 0
9, 304800, Note_on_c, 7, 50, 58
9, 304992, Note_on_c, 7, 50, 0
9, 305280, Note_on_c, 7, 52, 58
9, 305472, Note_on_c, 7, 52, 0
9, 305760, Note_on_c, 7, 54, 58
9, 305952, Note_on_c, 7, 54, 0
9, 306240, Note_on_c, 7, 55, 58
9, 306432, Note_on_c, 7, 55, 0
9, 306720, Note_on_c, 7, 57, 58
9, 306912, Note_on_c, 7, 57, 0
9, 307200, Note_on_c, 7, 62, 58
9, 307488, Note_on_c, 7, 62, 0
9, 307680, Note_on_c, 7, 64, 58
9, 308640, Note_on_c, 7, 64, 0
9, 308640, Note_on_c, 7, 67, 58
9, 309024, Note_on_c, 7, 67, 0
9, 309120, Note_on_c, 7, 73, 58
9, 310080, Note_on_c, 7, 73, 0
9, 310080, Note_on_c, 7, 74, 58
9, 310392, Note_on_c, 7, 74, 0
9, 314880, Note_on_c, 7, 54, 58
9, 315120, Note_on_c, 7, 54, 0
9, 315120, Note_on_c, 7, 55, 58
9, 315312, Note_on_c, 7, 55, 0
9, 315360, Note_on_c, 7, 57, 58
9, 315552, Note_on_c, 7, 57, 0
9, 315600, Note_on_c, 7, 59, 58
9, 315792, Note_on_c, 7, 59, 0
9, 315840, Note_on_c, 7, 60, 58
9, 316224, Note_on_c, 7, 60, 0
9, 316800, Note_on_c, 7, 54, 58
9, 317040, Note_on_c, 7, 54, 0
9, 317040, Note_on_c, 7, 55, 58
9, 317232, Note_on_c, 7, 55, 0
9, 317280, Note_on_c, 7, 57, 58
9, 317472, Note_on_c, 7, 57, 0
9, 317520, Note_on_c, 7, 59, 58
9, 317712, Note_on_c, 7, 59, 0
9, 317760, Note_on_c, 7, 60, 58
9, 318144, Note_on_c, 7, 60, 0
9, 318720, Note_on_c, 7, 54, 58
9, 318960, Note_on_c, 7, 54, 0
9, 318960, Note_on_c, 7, 55, 58
9, 319152, Note_on_c, 7, 55, 0
9, 319200, Note_on_c, 7, 57, 58
9, 319392, Note_on_c, 7, 57, 0
9, 319440, Note_on_c, 7, 57, 58
9, 319632, Note_on_c, 7, 57, 0
9, 319680, Note_on_c, 7, 57, 58
9, 320064, Note_on_c, 7, 57, 0
9, 320640, Note_on_c, 7, 54, 58
9, 320880, Note_on_c, 7, 54, 0
9, 320880, Note_on_c, 7, 55, 58
9, 321072, Note_on_c, 7, 55, 0
9, 321120, Note_on_c, 7, 57, 58
9, 321312, Note_on_c, 7, 57, 0
9, 321360, Note_on_c, 7, 57, 58
9, 321552, Note_on_c, 7, 57, 0
9, 321600, Note_on_c, 7, 57, 58
9, 321984, Note_on_c, 7, 57, 0
9, 322560, Note_on_c, 7, 74, 58
9, 323040, Note_on_c, 7, 74, 0
9, 323040, Note_on_c, 7, 75, 58
9, 323520, Note_on_c, 7, 75, 0
9, 323520, Note_on_c, 7, 74, 58
9, 324000, Note_on_c, 7, 74, 0
9, 324000, Note_on_c, 7, 75, 58
9, 324480, Note_on_c, 7, 75, 0
9, 324480, Note_on_c, 7, 74, 58
9, 324864, Note_on_c, 7, 74, 0
9, 326400, Note_on_c, 7, 55, 58
9, 326592, Note_on_c, 7, 55, 0
9, 326640, Note_on_c, 7, 55, 58
9, 326832, Note_on_c, 7, 55, 0
9, 326880, Note_on_c, 7, 59, 58
9, 327072, Note_on_c, 7, 59, 0
9, 327120, Note_on_c, 7, 59, 58
9, 327312, Note_on_c, 7, 59, 0
9, 327360, Note_on_c, 7, 62, 58
9, 327552, Note_on_c, 7, 62, 0
9, 327600, Note_on_c, 7, 62, 58
9, 327792, Note_on_c, 7, 62, 0
9, 327840, Note_on_c, 7, 67, 58
9, 328032, Note_on_c, 7, 67, 0
9, 328080, Note_on_c, 7, 67, 58
9, 328272, Note_on_c, 7, 67, 0
9, 328320, Note_on_c, 7, 69, 58
9, 328512, Note_on_c, 7, 69, 0
9, 328560, Note_on_c, 7, 69, 58
9, 328752, Note_on_c, 7, 69, 0
9, 328800, Note_on_c, 7, 69, 58
9, 328992, Note_on_c, 7, 69, 0
9, 329040, Note_on_c, 7, 69, 58
9, 329232, Note_on_c, 7, 69, 0
9, 329280, Note_on_c, 7, 67, 58
9, 329472, Note_on_c, 7, 67, 0
9, 329520, Note_on_c, 7, 67, 58
9, 329712, Note_on_c, 7, 67, 0
9, 329760, Note_on_c, 7, 67, 58
9, 329952, Note_on_c, 7, 67, 0
9, 330000, Note_on_c, 7, 67, 58
9, 330192, Note_on_c, 7, 67, 0
9, 330240, Note_on_c, 7, 62, 58
9, 330432, Note_on_c, 7, 62, 0
9, 330480, Note_on_c, 7, 62, 58
9, 330672, Note_on_c, 7, 62, 0
9, 330720, Note_on_c, 7, 62, 58
9, 330912, Note_on_c, 7, 62, 0
9, 330960, Note_on_c, 7, 62, 58
9, 331152, Note_on_c, 7, 62, 0
9, 331200, Note_on_c, 7, 62, 58
9, 331392, Note_on_c, 7, 62, 0
9, 331440, Note_on_c, 7, 62, 58
9, 331632, Note_on_c, 7, 62, 0
9, 331680, Note_on_c, 7, 62, 58
9, 331872, Note_on_c, 7, 62, 0
9, 331920, Note_on_c, 7, 62, 58
9, 332112, Note_on_c, 7, 62, 0
9, 332160, Note_on_c, 7, 62, 58
9, 332352, Note_on_c, 7, 62, 0
9, 332400, Note_on_c, 7, 64, 58
9, 332592, Note_on_c, 7, 64, 0
9, 332640, Note_on_c, 7, 62, 58
9, 332832, Note_on_c, 7, 62, 0
9, 332880, Note_on_c, 7, 60, 58
9, 333072, Note_on_c, 7, 60, 0
9, 333120, Note_on_c, 7, 59, 58
9, 333312, Note_on_c, 7, 59, 0
9, 333360, Note_on_c, 7, 57, 58
9, 333552, Note_on_c, 7, 57, 0
9, 333600, Note_on_c, 7, 55, 58
9, 333792, Note_on_c, 7, 55, 0
9, 333840, Note_on_c, 7, 54, 58
9, 334032, Note_on_c, 7, 54, 0
9, 334080, Note_on_c, 7, 55, 58
9, 334272, Note_on_c, 7, 55, 0
9, 334320, Note_on_c, 7, 55, 58
9, 334512, Note_on_c, 7, 55, 0
9, 334560, Note_on_c, 7, 50, 58
9, 334752, Note_on_c, 7, 50, 0
9, 334800, Note_on_c, 7, 50, 58
9, 334992, Note_on_c, 7, 50, 0
9, 335040, Note_on_c, 7, 55, 58
9, 335232, Note_on_c, 7, 55, 0
9, 335280, Note_on_c, 7, 55, 58
9, 335472, Note_on_c, 7, 55, 0
9, 335520, Note_on_c, 7, 59, 58
9, 335712, Note_on_c, 7, 59, 0
9, 335760, Note_on_c, 7, 59, 58
9, 335952, Note_on_c, 7, 59, 0
9, 336000, Note_on_c, 7, 57, 58
9, 336192, Note_on_c, 7, 57, 0
9, 336240, Note_on_c, 7, 57, 58
9, 336432, Note_on_c, 7, 57, 0
9, 336480, Note_on_c, 7, 57, 58
9, 336672, Note_on_c, 7, 57, 0
9, 336720, Note_on_c, 7, 57, 58
9, 336912, Note_on_c, 7, 57, 0
9, 336960, Note_on_c, 7, 55, 58
9, 337152, Note_on_c, 7, 55, 0
9, 337200, Note_on_c, 7, 55, 58
9, 337392, Note_on_c, 7, 55, 0
9, 337440, Note_on_c, 7, 55, 58
9, 337632, Note_on_c, 7, 55, 0
9, 337680, Note_on_c, 7, 55, 58
9, 337872, Note_on_c, 7, 55, 0
9, 337920, Note_on_c, 7, 55, 58
9, 338112, Note_on_c, 7, 55, 0
9, 338160, Note_on_c, 7, 55, 58
9, 338352, Note_on_c, 7, 55, 0
9, 338400, Note_on_c, 7, 55, 58
9, 338592, Note_on_c, 7, 55, 0
9, 338640, Note_on_c, 7, 55, 58
9, 338832, Note_on_c, 7, 55, 0
9, 338880, Note_on_c, 7, 55, 58
9, 339072, Note_on_c, 7, 55, 0
9, 339120, Note_on_c, 7, 55, 58
9, 339312, Note_on_c, 7, 55, 0
9, 339360, Note_on_c, 7, 55, 58
9, 339552, Note_on_c, 7, 55, 0
9, 339600, Note_on_c, 7, 55, 58
9, 339792, Note_on_c, 7, 55, 0
9, 339840, Note_on_c, 7, 55, 58
9, 341184, Note_on_c, 7, 55, 0
9, 341760, Note_on_c, 7, 57, 58
9, 341952, Note_on_c, 7, 57, 0
9, 342000, Note_on_c, 7, 57, 58
9, 342192, Note_on_c, 7, 57, 0
9, 342240, Note_on_c, 7, 56, 58
9, 342432, Note_on_c, 7, 56, 0
9, 342480, Note_on_c, 7, 56, 58
9, 342672, Note_on_c, 7, 56, 0
9, 342720, Note_on_c, 7, 57, 58
9, 342912, Note_on_c, 7, 57, 0
9, 342960, Note_on_c, 7, 57, 58
9, 343152, Note_on_c, 7, 57, 0
9, 343200, Note_on_c, 7, 56, 58
9, 343392, Note_on_c, 7, 56, 0
9, 343440, Note_on_c, 7, 56, 58
9, 343632, Note_on_c, 7, 56, 0
9, 343680, Note_on_c, 7, 57, 58
9, 343872, Note_on_c, 7, 57, 0
9, 343920, Note_on_c, 7, 57, 58
9, 344112, Note_on_c, 7, 57, 0
9, 344160, Note_on_c, 7, 57, 58
9, 344352, Note_on_c, 7, 57, 0
9, 344400, Note_on_c, 7, 57, 58
9, 344592, Note_on_c, 7, 57, 0
9, 344640, Note_on_c, 7, 55, 58
9, 344832, Note_on_c, 7, 55, 0
9, 344880, Note_on_c, 7, 55, 58
9, 345072, Note_on_c, 7, 55, 0
9, 345120, Note_on_c, 7, 55, 58
9, 345312, Note_on_c, 7, 55, 0
9, 345360, Note_on_c, 7, 55, 58
9, 345552, Note_on_c, 7, 55, 0
9, 345600, Note_on_c, 7, 57, 58
9, 345792, Note_on_c, 7, 57, 0
9, 345840, Note_on_c, 7, 57, 58
9, 346032, Note_on_c, 7, 57, 0
9, 346080, Note_on_c, 7, 57, 58
9, 346272, Note_on_c, 7, 57, 0
9, 346320, Note_on_c, 7, 57, 58
9, 346512, Note_on_c, 7, 57, 0
9, 346560, Note_on_c, 7, 62, 58
9, 346752, Note_on_c, 7, 62, 0
9, 346800, Note_on_c, 7, 62, 58
9, 346992, Note_on_c, 7, 62, 0
9, 347040, Note_on_c, 7, 62, 58
9, 347232, Note_on_c, 7, 62, 0
9, 347280, Note_on_c, 7, 62, 58
9, 347472, Note_on_c, 7, 62, 0
9, 347520, Note_on_c, 7, 62, 58
9, 348720, Note_on_c, 7, 62, 0
9, 348720, Note_on_c, 7, 64, 58
9, 348960, Note_on_c, 7, 64, 0
9, 348960, Note_on_c, 7, 60, 58
9, 349200, Note_on_c, 7, 60, 0
9, 349200, Note_on_c, 7, 62, 58
9, 349392, Note_on_c, 7, 62, 0
9, 349440, Note_on_c, 7, 59, 58
9, 350640, Note_on_c, 7, 59, 0
9, 350640, Note_on_c, 7, 60, 58
9, 350880, Note_on_c, 7, 60, 0
9, 350880, Note_on_c, 7, 57, 58
9, 351120, Note_on_c, 7, 57, 0
9, 351120, Note_on_c, 7, 59, 58
9, 351312, Note_on_c, 7, 59, 0
9, 351360, Note_on_c, 7, 59, 58
9, 352560, Note_on_c, 7, 59, 0
9, 352560, Note_on_c, 7, 60, 58
9, 352800, Note_on_c, 7, 60, 0
9, 352800, Note_on_c, 7, 57, 58
9, 353040, Note_on_c, 7, 57, 0
9, 353040, Note_on_c, 7, 54, 58
9, 353232, Note_on_c, 7, 54, 0
9, 353280, Note_on_c, 7, 55, 105
9, 353520, Note_on_c, 7, 55, 0
9, 353520, Note_on_c, 7, 62, 105
9, 353676, Note_on_c, 7, 62, 0
9, 353760, Note_on_c, 7, 62, 105
9, 353916, Note_on_c, 7, 62, 0
9, 354000, Note_on_c, 7, 62, 105
9, 354156, Note_on_c, 7, 62, 0
9, 354240, Note_on_c, 7, 62, 105
9, 354480, Note_on_c, 7, 62, 0
9, 354480, Note_on_c, 7, 66, 105
9, 354636, Note_on_c, 7, 66, 0
9, 354720, Note_on_c, 7, 66, 105
9, 354876, Note_on_c, 7, 66, 0
9, 354960, Note_on_c, 7, 66, 105
9, 355116, Note_on_c, 7, 66, 0
9, 355200, Note_on_c, 7, 67, 105
9, 355440, Note_on_c, 7, 67, 0
9, 355440, Note_on_c, 7, 71, 105
9, 355596, Note_on_c, 7, 71, 0
9, 355680, Note_on_c, 7, 59, 105
9, 355836, Note_on_c, 7, 59, 0
9, 355920, Note_on_c, 7, 62, 105
9, 356076, Note_on_c, 7, 62, 0
9, 356160, Note_on_c, 7, 64, 105
9, 356400, Note_on_c, 7, 64, 0
9, 356400, Note_on_c, 7, 76, 105
9, 356556, Note_on_c, 7, 76, 0
9, 356640, Note_on_c, 7, 74, 105
9, 356796, Note_on_c, 7, 74, 0
9, 356880, Note_on_c, 7, 72, 105
9, 357036, Note_on_c, 7, 72, 0
9, 357120, Note_on_c, 7, 72, 105
9, 357360, Note_on_c, 7, 72, 0
9, 357360, Note_on_c, 7, 71, 105
9, 357516, Note_on_c, 7, 71, 0
9, 357600, Note_on_c, 7, 71, 105
9, 357756, Note_on_c, 7, 71, 0
9, 357840, Note_on_c, 7, 71, 105
9, 357996, Note_on_c, 7, 71, 0
9, 358080, Note_on_c, 7, 71, 105
9, 358320, Note_on_c, 7, 71, 0
9, 358320, Note_on_c, 7, 74, 105
9, 358476, Note_on_c, 7, 74, 0
9, 358560, Note_on_c, 7, 72, 105
9, 358716, Note_on_c, 7, 72, 0
9, 358800, Note_on_c, 7, 69, 105
9, 358956, Note_on_c, 7, 69, 0
9, 359040, Note_on_c, 7, 67, 110
9, 359232, Note_on_c, 7, 67, 0
9, 359280, Note_on_c, 7, 55, 58
9, 359472, Note_on_c, 7, 55, 0
9, 359520, Note_on_c, 7, 55, 58
9, 359712, Note_on_c, 7, 55, 0
9, 359760, Note_on_c, 7, 55, 58
9, 359952, Note_on_c, 7, 55, 0
9, 360000, Note_on_c, 7, 55, 58
9, 360192, Note_on_c, 7, 55, 0
9, 360240, Note_on_c, 7, 55, 58
9, 360432, Note_on_c, 7, 55, 0
9, 360480, Note_on_c, 7, 55, 58
9, 360672, Note_on_c, 7, 55, 0
9, 360720, Note_on_c, 7, 55, 58
9, 360912, Note_on_c, 7, 55, 0
9, 360960, Note_on_c, 7, 55, 58
9, 361152, Note_on_c, 7, 55, 0
9, 361200, Note_on_c, 7, 55, 58
9, 361392, Note_on_c, 7, 55, 0
9, 361440, Note_on_c, 7, 55, 58
9, 361632, Note_on_c, 7, 55, 0
9, 361680, Note_on_c, 7, 55, 58
9, 361872, Note_on_c, 7, 55, 0
9, 361920, Note_on_c, 7, 54, 58
9, 362112, Note_on_c, 7, 54, 0
9, 362160, Note_on_c, 7, 54, 58
9, 362352, Note_on_c, 7, 54, 0
9, 362400, Note_on_c, 7, 53, 58
9, 362592, Note_on_c, 7, 53, 0
9, 362640, Note_on_c, 7, 53, 58
9, 362832, Note_on_c, 7, 53, 0
9, 362880, Note_on_c, 7, 52, 58
9, 363072, Note_on_c, 7, 52, 0
9, 363120, Note_on_c, 7, 52, 58
9, 363312, Note_on_c, 7, 52, 0
9, 363360, Note_on_c, 7, 52, 58
9, 363552, Note_on_c, 7, 52, 0
9, 363600, Note_on_c, 7, 52, 58
9, 363792, Note_on_c, 7, 52, 0
9, 363840, Note_on_c, 7, 52, 58
9, 364032, Note_on_c, 7, 52, 0
9, 364080, Note_on_c, 7, 52, 58
9, 364272, Note_on_c, 7, 52, 0
9, 364320, Note_on_c, 7, 52, 58
9, 364512, Note_on_c, 7, 52, 0
9, 364560, Note_on_c, 7, 52, 58
9, 364752, Note_on_c, 7, 52, 0
9, 364800, Note_on_c, 7, 52, 58
9, 364992, Note_on_c, 7, 52, 0
9, 365040, Note_on_c, 7, 52, 58
9, 365232, Note_on_c, 7, 52, 0
9, 365280, Note_on_c, 7, 64, 58
9, 365472, Note_on_c, 7, 64, 0
9, 365520, Note_on_c, 7, 64, 58
9, 365712, Note_on_c, 7, 64, 0
9, 365760, Note_on_c, 7, 62, 58
9, 365952, Note_on_c, 7, 62, 0
9, 366000, Note_on_c, 7, 62, 58
9, 366192, Note_on_c, 7, 62, 0
9, 366240, Note_on_c, 7, 60, 58
9, 366432, Note_on_c, 7, 60, 0
9, 366480, Note_on_c, 7, 60, 58
9, 366672, Note_on_c, 7, 60, 0
9, 366720, Note_on_c, 7, 59, 58
9, 366912, Note_on_c, 7, 59, 0
9, 366960, Note_on_c, 7, 59, 58
9, 367152, Note_on_c, 7, 59, 0
9, 367200, Note_on_c, 7, 59, 58
9, 367392, Note_on_c, 7, 59, 0
9, 367440, Note_on_c, 7, 59, 58
9, 367632, Note_on_c, 7, 59, 0
9, 367680, Note_on_c, 7, 59, 58
9, 367872, Note_on_c, 7, 59, 0
9, 367920, Note_on_c, 7, 59, 58
9, 368112, Note_on_c, 7, 59, 0
9, 368160, Note_on_c, 7, 59, 58
9, 368352, Note_on_c, 7, 59, 0
9, 368400, Note_on_c, 7, 59, 58
9, 368592, Note_on_c, 7, 59, 0
9, 368640, Note_on_c, 7, 55, 58
9, 368832, Note_on_c, 7, 55, 0
9, 368880, Note_on_c, 7, 55, 58
9, 369072, Note_on_c, 7, 55, 0
9, 369120, Note_on_c, 7, 57, 58
9, 369312, Note_on_c, 7, 57, 0
9, 369360, Note_on_c, 7, 57, 58
9, 369552, Note_on_c, 7, 57, 0
9, 369600, Note_on_c, 7, 59, 58
9, 369792, Note_on_c, 7, 59, 0
9, 369840, Note_on_c, 7, 59, 58
9, 370032, Note_on_c, 7, 59, 0
9, 370080, Note_on_c, 7, 60, 58
9, 370272, Note_on_c, 7, 60, 0
9, 370320, Note_on_c, 7, 60, 58
9, 370512, Note_on_c, 7, 60, 0
9, 370560, Note_on_c, 7, 62, 58
9, 370944, Note_on_c, 7, 62, 0
9, 371760, Note_on_c, 7, 55, 58
9, 371904, Note_on_c, 7, 55, 0
9, 372000, Note_on_c, 7, 59, 92
9, 372144, Note_on_c, 7, 59, 0
9, 372240, Note_on_c, 7, 62, 92
9, 372384, Note_on_c, 7, 62, 0
9, 372480, Note_on_c, 7, 65, 92
9, 372768, Note_on_c, 7, 65, 0
9, 372960, Note_on_c, 7, 65, 92
9, 373248, Note_on_c, 7, 65, 0
9, 373440, Note_on_c, 7, 65, 92
9, 373728, Note_on_c, 7, 65, 0
9, 373920, Note_on_c, 7, 65, 92
9, 374208, Note_on_c, 7, 65, 0
9, 374400, Note_on_c, 7, 56, 92
9, 374784, Note_on_c, 7, 56, 0
9, 376320, Note_on_c, 7, 68, 58
9, 376320, Note_on_c, 7, 71, 58
9, 376632, Note_on_c, 7, 71, 0
9, 376632, Note_on_c, 7, 68, 0
9, 376800, Note_on_c, 7, 68, 58
9, 376800, Note_on_c, 7, 71, 58
9, 377112, Note_on_c, 7, 71, 0
9, 377112, Note_on_c, 7, 68, 0
9, 377280, Note_on_c, 7, 69, 58
9, 377592, Note_on_c, 7, 69, 0
9, 378240, Note_on_c, 7, 66, 58
9, 378240, Note_on_c, 7, 69, 58
9, 378552, Note_on_c, 7, 69, 0
9, 378552, Note_on_c, 7, 66, 0
9, 378720, Note_on_c, 7, 66, 58
9, 378720, Note_on_c, 7, 69, 58
9, 379032, Note_on_c, 7, 69, 0
9, 379032, Note_on_c, 7, 66, 0
9, 379200, Note_on_c, 7, 67, 58
9, 379512, Note_on_c, 7, 67, 0
9, 380160, Note_on_c, 7, 64, 58
9, 380472, Note_on_c, 7, 64, 0
9, 380640, Note_on_c, 7, 64, 58
9, 380952, Note_on_c, 7, 64, 0
9, 381120, Note_on_c, 7, 63, 58
9, 381432, Note_on_c, 7, 63, 0
9, 381600, Note_on_c, 7, 63, 58
9, 381912, Note_on_c, 7, 63, 0
9, 382080, Note_on_c, 7, 62, 58
9, 382464, Note_on_c, 7, 62, 0
9, 383280, Note_on_c, 7, 62, 92
9, 383424, Note_on_c, 7, 62, 0
9, 383520, Note_on_c, 7, 66, 92
9, 383664, Note_on_c, 7, 66, 0
9, 383760, Note_on_c, 7, 69, 92
9, 383904, Note_on_c, 7, 69, 0
9, 384000, Note_on_c, 7, 72, 92
9, 384288, Note_on_c, 7, 72, 0
9, 384480, Note_on_c, 7, 72, 92
9, 384768, Note_on_c, 7, 72, 0
9, 384960, Note_on_c, 7, 72, 92
9, 385248, Note_on_c, 7, 72, 0
9, 385440, Note_on_c, 7, 72, 92
9, 385728, Note_on_c, 7, 72, 0
9, 385920, Note_on_c, 7, 62, 92
9, 386304, Note_on_c, 7, 62, 0
9, 387840, Note_on_c, 7, 55, 58
9, 388032, Note_on_c, 7, 55, 0
9, 388080, Note_on_c, 7, 55, 58
9, 388272, Note_on_c, 7, 55, 0
9, 388320, Note_on_c, 7, 59, 58
9, 388512, Note_on_c, 7, 59, 0
9, 388560, Note_on_c, 7, 59, 58
9, 388752, Note_on_c, 7, 59, 0
9, 388800, Note_on_c, 7, 62, 58
9, 388992, Note_on_c, 7, 62, 0
9, 389040, Note_on_c, 7, 62, 58
9, 389232, Note_on_c, 7, 62, 0
9, 389280, Note_on_c, 7, 67, 58
9, 389472, Note_on_c, 7, 67, 0
9, 389520, Note_on_c, 7, 67, 58
9, 389712, Note_on_c, 7, 67, 0
9, 389760, Note_on_c, 7, 69, 58
9, 389952, Note_on_c, 7, 69, 0
9, 390000, Note_on_c, 7, 69, 58
9, 390192, Note_on_c, 7, 69, 0
9, 390240, Note_on_c, 7, 69, 58
9, 390432, Note_on_c, 7, 69, 0
9, 390480, Note_on_c, 7, 69, 58
9, 390672, Note_on_c, 7, 69, 0
9, 390720, Note_on_c, 7, 67, 58
9, 390912, Note_on_c, 7, 67, 0
9, 390960, Note_on_c, 7, 67, 58
9, 391152, Note_on_c, 7, 67, 0
9, 391200, Note_on_c, 7, 67, 58
9, 391392, Note_on_c, 7, 67, 0
9, 391440, Note_on_c, 7, 67, 58
9, 391632, Note_on_c, 7, 67, 0
9, 391680, Note_on_c, 7, 62, 58
9, 391872, Note_on_c, 7, 62, 0
9, 391920, Note_on_c, 7, 62, 58
9, 392112, Note_on_c, 7, 62, 0
9, 392160, Note_on_c, 7, 62, 58
9, 392352, Note_on_c, 7, 62, 0
9, 392400, Note_on_c, 7, 62, 58
9, 392592, Note_on_c, 7, 62, 0
9, 392640, Note_on_c, 7, 62, 58
9, 392832, Note_on_c, 7, 62, 0
9, 392880, Note_on_c, 7, 62, 58
9, 393072, Note_on_c, 7, 62, 0
9, 393120, Note_on_c, 7, 62, 58
9, 393312, Note_on_c, 7, 62, 0
9, 393360, Note_on_c, 7, 62, 58
9, 393552, Note_on_c, 7, 62, 0
9, 393600, Note_on_c, 7, 62, 58
9, 393792, Note_on_c, 7, 62, 0
9, 393840, Note_on_c, 7, 67, 58
9, 394032, Note_on_c, 7, 67, 0
9, 394080, Note_on_c, 7, 66, 58
9, 394272, Note_on_c, 7, 66, 0
9, 394320, Note_on_c, 7, 64, 58
9, 394512, Note_on_c, 7, 64, 0
9, 394560, Note_on_c, 7, 62, 58
9, 394752, Note_on_c, 7, 62, 0
9, 394800, Note_on_c, 7, 60, 58
9, 394992, Note_on_c, 7, 60, 0
9, 395040, Note_on_c, 7, 59, 58
9, 395232, Note_on_c, 7, 59, 0
9, 395280, Note_on_c, 7, 57, 58
9, 395472, Note_on_c, 7, 57, 0
9, 395520, Note_on_c, 7, 55, 58
9, 395712, Note_on_c, 7, 55, 0
9, 395760, Note_on_c, 7, 55, 58
9, 395952, Note_on_c, 7, 55, 0
9, 396000, Note_on_c, 7, 59, 58
9, 396192, Note_on_c, 7, 59, 0
9, 396240, Note_on_c, 7, 59, 58
9, 396432, Note_on_c, 7, 59, 0
9, 396480, Note_on_c, 7, 62, 58
9, 396672, Note_on_c, 7, 62, 0
9, 396720, Note_on_c, 7, 62, 58
9, 396912, Note_on_c, 7, 62, 0
9, 396960, Note_on_c, 7, 67, 58
9, 397152, Note_on_c, 7, 67, 0
9, 397200, Note_on_c, 7, 67, 58
9, 397392, Note_on_c, 7, 67, 0
9, 397440, Note_on_c, 7, 69, 58
9, 397632, Note_on_c, 7, 69, 0
9, 397680, Note_on_c, 7, 69, 58
9, 397872, Note_on_c, 7, 69, 0
9, 397920, Note_on_c, 7, 69, 58
9, 398112, Note_on_c, 7, 69, 0
9, 398160, Note_on_c, 7, 69, 58
9, 398352, Note_on_c, 7, 69, 0
9, 398400, Note_on_c, 7, 67, 58
9, 398592, Note_on_c, 7, 67, 0
9, 398640, Note_on_c, 7, 67, 58
9, 398832, Note_on_c, 7, 67, 0
9, 398880, Note_on_c, 7, 67, 58
9, 399072, Note_on_c, 7, 67, 0
9, 399120, Note_on_c, 7, 67, 58
9, 399312, Note_on_c, 7, 67, 0
9, 399360, Note_on_c, 7, 67, 58
9, 399552, Note_on_c, 7, 67, 0
9, 399600, Note_on_c, 7, 67, 58
9, 399792, Note_on_c, 7, 67, 0
9, 399840, Note_on_c, 7, 67, 58
9, 400032, Note_on_c, 7, 67, 0
9, 400080, Note_on_c, 7, 67, 58
9, 400272, Note_on_c, 7, 67, 0
9, 400320, Note_on_c, 7, 66, 58
9, 400512, Note_on_c, 7, 66, 0
9, 400560, Note_on_c, 7, 66, 58
9, 400752, Note_on_c, 7, 66, 0
9, 400800, Note_on_c, 7, 67, 58
9, 400992, Note_on_c, 7, 67, 0
9, 401040, Note_on_c, 7, 69, 58
9, 401232, Note_on_c, 7, 69, 0
9, 401280, Note_on_c, 7, 67, 58
9, 401568, Note_on_c, 7, 67, 0
9, 401760, Note_on_c, 7, 59, 58
9, 402240, Note_on_c, 7, 59, 0
9, 402240, Note_on_c, 7, 60, 58
9, 402720, Note_on_c, 7, 60, 0
9, 402720, Note_on_c, 7, 62, 58
9, 403104, Note_on_c, 7, 62, 0
9, 403680, Note_on_c, 7, 60, 58
9, 404160, Note_on_c, 7, 60, 0
9, 404160, Note_on_c, 7, 59, 58
9, 404640, Note_on_c, 7, 59, 0
9, 404640, Note_on_c, 7, 57, 58
9, 405024, Note_on_c, 7, 57, 0
9, 405600, Note_on_c, 7, 59, 58
9, 406080, Note_on_c, 7, 59, 0
9, 406080, Note_on_c, 7, 60, 58
9, 406560, Note_on_c, 7, 60, 0
9, 406560, Note_on_c, 7, 62, 58
9, 406944, Note_on_c, 7, 62, 0
9, 407520, Note_on_c, 7, 60, 58
9, 408000, Note_on_c, 7, 60, 0
9, 408000, Note_on_c, 7, 59, 58
9, 408480, Note_on_c, 7, 59, 0
9, 408480, Note_on_c, 7, 57, 58
9, 408864, Note_on_c, 7, 57, 0
9, 409440, Note_on_c, 7, 59, 58
9, 409920, Note_on_c, 7, 59, 0
9, 409920, Note_on_c, 7, 60, 58
9, 410400, Note_on_c, 7, 60, 0
9, 410400, Note_on_c, 7, 62, 58
9, 410784, Note_on_c, 7, 62, 0
9, 411360, Note_on_c, 7, 60, 58
9, 411840, Note_on_c, 7, 60, 0
9, 411840, Note_on_c, 7, 59, 58
9, 412128, Note_on_c, 7, 59, 0
9, 412320, Note_on_c, 7, 69, 58
9, 412608, Note_on_c, 7, 69, 0
9, 412800, Note_on_c, 7, 67, 58
9, 414240, Note_on_c, 7, 67, 0
9, 414240, Note_on_c, 7, 64, 58
9, 414624, Note_on_c, 7, 64, 0
9, 414720, Note_on_c, 7, 62, 58
9, 416160, Note_on_c, 7, 60, 58
9, 416544, Note_on_c, 7, 60, 0
9, 416544, Note_on_c, 7, 62, 0
9, 416640, Note_on_c, 7, 62, 58
9, 416640, Note_on_c, 7, 59, 58
9, 417096, Note_on_c, 7, 59, 0
9, 417096, Note_on_c, 7, 62, 0
9, 419760, Note_on_c, 7, 62, 105
9, 419904, Note_on_c, 7, 62, 0
9, 420000, Note_on_c, 7, 66, 105
9, 420144, Note_on_c, 7, 66, 0
9, 420240, Note_on_c, 7, 69, 105
9, 420384, Note_on_c, 7, 69, 0
9, 420480, Note_on_c, 7, 74, 105
9, 420768, Note_on_c, 7, 74, 0
9, 420960, Note_on_c, 7, 74, 105
9, 421248, Note_on_c, 7, 74, 0
9, 421440, Note_on_c, 7, 74, 105
9, 421728, Note_on_c, 7, 74, 0
9, 421920, Note_on_c, 7, 74, 105
9, 422208, Note_on_c, 7, 74, 0
9, 422400, Note_on_c, 7, 50, 105
9, 422784, Note_on_c, 7, 50, 0
9, 423600, Note_on_c, 7, 62, 105
9, 423744, Note_on_c, 7, 62, 0
9, 423840, Note_on_c, 7, 66, 105
9, 423984, Note_on_c, 7, 66, 0
9, 424080, Note_on_c, 7, 69, 105
9, 424224, Note_on_c, 7, 69, 0
9, 424320, Note_on_c, 7, 74, 105
9, 424608, Note_on_c, 7, 74, 0
9, 424800, Note_on_c, 7, 74, 105
9, 425088, Note_on_c, 7, 74, 0
9, 425280, Note_on_c, 7, 74, 105
9, 425568, Note_on_c, 7, 74, 0
9, 425760, Note_on_c, 7, 74, 105
9, 426048, Note_on_c, 7, 74, 0
9, 426240, Note_on_c, 7, 50, 105
9, 426624, Note_on_c, 7, 50, 0
9, 427440, Note_on_c, 7, 62, 105
9, 427584, Note_on_c, 7, 62, 0
9, 427680, Note_on_c, 7, 66, 105
9, 427824, Note_on_c, 7, 66, 0
9, 427920, Note_on_c, 7, 69, 105
9, 428064, Note_on_c, 7, 69, 0
9, 428160, Note_on_c, 7, 67, 105
9, 428400, Note_on_c, 7, 67, 0
9, 428400, Note_on_c, 7, 62, 105
9, 428556, Note_on_c, 7, 62, 0
9, 428640, Note_on_c, 7, 62, 105
9, 428796, Note_on_c, 7, 62, 0
9, 428880, Note_on_c, 7, 62, 105
9, 429036, Note_on_c, 7, 62, 0
9, 429120, Note_on_c, 7, 62, 105
9, 429276, Note_on_c, 7, 62, 0
9, 429360, Note_on_c, 7, 62, 105
9, 429516, Note_on_c, 7, 62, 0
9, 429600, Note_on_c, 7, 62, 105
9, 429756, Note_on_c, 7, 62, 0
9, 429840, Note_on_c, 7, 62, 105
9, 429996, Note_on_c, 7, 62, 0
9, 430080, Note_on_c, 7, 60, 105
9, 430236, Note_on_c, 7, 60, 0
9, 430320, Note_on_c, 7, 67, 105
9, 430476, Note_on_c, 7, 67, 0
9, 430560, Note_on_c, 7, 67, 105
9, 430716, Note_on_c, 7, 67, 0
9, 430800, Note_on_c, 7, 67, 105
9, 430956, Note_on_c, 7, 67, 0
9, 431040, Note_on_c, 7, 62, 105
9, 431196, Note_on_c, 7, 62, 0
9, 431280, Note_on_c, 7, 62, 105
9, 431436, Note_on_c, 7, 62, 0
9, 431520, Note_on_c, 7, 62, 105
9, 431520, Note_on_c, 7, 60, 105
9, 431676, Note_on_c, 7, 60, 0
9, 431676, Note_on_c, 7, 62, 0
9, 431760, Note_on_c, 7, 60, 105
9, 431760, Note_on_c, 7, 62, 105
9, 431916, Note_on_c, 7, 62, 0
9, 431916, Note_on_c, 7, 60, 0
9, 432000, Note_on_c, 7, 59, 105
9, 432000, Note_on_c, 7, 62, 105
9, 432180, Note_on_c, 7, 62, 0
9, 432180, Note_on_c, 7, 59, 0
9, 432240, Note_on_c, 7, 59, 105
9, 432240, Note_on_c, 7, 62, 105
9, 432420, Note_on_c, 7, 62, 0
9, 432420, Note_on_c, 7, 59, 0
9, 432480, Note_on_c, 7, 59, 105
9, 432480, Note_on_c, 7, 62, 105
9, 432660, Note_on_c, 7, 62, 0
9, 432660, Note_on_c, 7, 59, 0
9, 432720, Note_on_c, 7, 62, 105
9, 432720, Note_on_c, 7, 59, 105
9, 432900, Note_on_c, 7, 59, 0
9, 432900, Note_on_c, 7, 62, 0
9, 432960, Note_on_c, 7, 59, 105
9, 432960, Note_on_c, 7, 62, 105
9, 433140, Note_on_c, 7, 62, 0
9, 433140, Note_on_c, 7, 59, 0
9, 433200, Note_on_c, 7, 62, 105
9, 433200, Note_on_c, 7, 59, 105
9, 433380, Note_on_c, 7, 59, 0
9, 433380, Note_on_c, 7, 62, 0
9, 433440, Note_on_c, 7, 59, 105
9, 433440, Note_on_c, 7, 62, 105
9, 433620, Note_on_c, 7, 62, 0
9, 433620, Note_on_c, 7, 59, 0
9, 433680, Note_on_c, 7, 59, 105
9, 433680, Note_on_c, 7, 62, 105
9, 433860, Note_on_c, 7, 62, 0
9, 433860, Note_on_c, 7, 59, 0
9, 433920, Note_on_c, 7, 59, 105
9, 433920, Note_on_c, 7, 62, 105
9, 434100, Note_on_c, 7, 62, 0
9, 434100, Note_on_c, 7, 59, 0
9, 434160, Note_on_c, 7, 59, 105
9, 434160, Note_on_c, 7, 62, 105
9, 434340, Note_on_c, 7, 62, 0
9, 434340, Note_on_c, 7, 59, 0
9, 434400, Note_on_c, 7, 62, 105
9, 434400, Note_on_c, 7, 59, 105
9, 434580, Note_on_c, 7, 59, 0
9, 434580, Note_on_c, 7, 62, 0
9, 434640, Note_on_c, 7, 62, 105
9, 434640, Note_on_c, 7, 59, 105
9, 434820, Note_on_c, 7, 59, 0
9, 434820, Note_on_c, 7, 62, 0
9, 434880, Note_on_c, 7, 59, 105
9, 434880, Note_on_c, 7, 62, 105
9, 435060, Note_on_c, 7, 62, 0
9, 435060, Note_on_c, 7, 59, 0
9, 435120, Note_on_c, 7, 62, 105
9, 435120, Note_on_c, 7, 59, 105
9, 435300, Note_on_c, 7, 59, 0
9, 435300, Note_on_c, 7, 62, 0
9, 435360, Note_on_c, 7, 62, 105
9, 435360, Note_on_c, 7, 59, 105
9, 435540, Note_on_c, 7, 59, 0
9, 435540, Note_on_c, 7, 62, 0
9, 435600, Note_on_c, 7, 62, 105
9, 435600, Note_on_c, 7, 59, 105
9, 435780, Note_on_c, 7, 59, 0
9, 435780, Note_on_c, 7, 62, 0
9, 435840, Note_on_c, 7, 59, 105
9, 435840, Note_on_c, 7, 62, 105
9, 436020, Note_on_c, 7, 62, 0
9, 436020, Note_on_c, 7, 59, 0
9, 436080, Note_on_c, 7, 62, 105
9, 436080, Note_on_c, 7, 59, 105
9, 436260, Note_on_c, 7, 59, 0
9, 436260, Note_on_c, 7, 62, 0
9, 436320, Note_on_c, 7, 59, 105
9, 436320, Note_on_c, 7, 62, 105
9, 436500, Note_on_c, 7, 62, 0
9, 436500, Note_on_c, 7, 59, 0
9, 436560, Note_on_c, 7, 59, 105
9, 436560, Note_on_c, 7, 62, 105
9, 436740, Note_on_c, 7, 62, 0
9, 436740, Note_on_c, 7, 59, 0
9, 436800, Note_on_c, 7, 59, 105
9, 436800, Note_on_c, 7, 62, 105
9, 436980, Note_on_c, 7, 62, 0
9, 436980, Note_on_c, 7, 59, 0
9, 437040, Note_on_c, 7, 59, 105
9, 437040, Note_on_c, 7, 62, 105
9, 437220, Note_on_c, 7, 62, 0
9, 437220, Note_on_c, 7, 59, 0
9, 437280, Note_on_c, 7, 59, 105
9, 437280, Note_on_c, 7, 62, 105
9, 437460, Note_on_c, 7, 62, 0
9, 437460, Note_on_c, 7, 59, 0
9, 437520, Note_on_c, 7, 59, 105
9, 437520, Note_on_c, 7, 62, 105
9, 437700, Note_on_c, 7, 62, 0
9, 437700, Note_on_c, 7, 59, 0
9, 437760, Note_on_c, 7, 59, 105
9, 437760, Note_on_c, 7, 62, 105
9, 437940, Note_on_c, 7, 62, 0
9, 437940, Note_on_c, 7, 59, 0
9, 438000, Note_on_c, 7, 62, 105
9, 438000, Note_on_c, 7, 59, 105
9, 438180, Note_on_c, 7, 59, 0
9, 438180, Note_on_c, 7, 62, 0
9, 438240, Note_on_c, 7, 62, 105
9, 438240, Note_on_c, 7, 59, 105
9, 438420, Note_on_c, 7, 59, 0
9, 438420, Note_on_c, 7, 62, 0
9, 438480, Note_on_c, 7, 59, 105
9, 438480, Note_on_c, 7, 62, 105
9, 438660, Note_on_c, 7, 62, 0
9, 438660, Note_on_c, 7, 59, 0
9, 438720, Note_on_c, 7, 62, 105
9, 438720, Note_on_c, 7, 59, 105
9, 438900, Note_on_c, 7, 59, 0
9, 438900, Note_on_c, 7, 62, 0
9, 438960, Note_on_c, 7, 59, 105
9, 438960, Note_on_c, 7, 62, 105
9, 439140, Note_on_c, 7, 62, 0
9, 439140, Note_on_c, 7, 59, 0
9, 439200, Note_on_c, 7, 59, 105
9, 439200, Note_on_c, 7, 62, 105
9, 439380, Note_on_c, 7, 62, 0
9, 439380, Note_on_c, 7, 59, 0
9, 439440, Note_on_c, 7, 59, 105
9, 439440, Note_on_c, 7, 62, 105
9, 439620, Note_on_c, 7, 62, 0
9, 439620, Note_on_c, 7, 59, 0
9, 439680, Note_on_c, 7, 62, 105
9, 439680, Note_on_c, 7, 59, 105
9, 439860, Note_on_c, 7, 59, 0
9, 439860, Note_on_c, 7, 62, 0
9, 439920, Note_on_c, 7, 62, 105
9, 439920, Note_on_c, 7, 59, 105
9, 440100, Note_on_c, 7, 59, 0
9, 440100, Note_on_c, 7, 62, 0
9, 440160, Note_on_c, 7, 62, 105
9, 440160, Note_on_c, 7, 59, 105
9, 440340, Note_on_c, 7, 59, 0
9, 440340, Note_on_c, 7, 62, 0
9, 440400, Note_on_c, 7, 62, 105
9, 440400, Note_on_c, 7, 59, 105
9, 440580, Note_on_c, 7, 59, 0
9, 440580, Note_on_c, 7, 62, 0
9, 440640, Note_on_c, 7, 62, 105
9, 440640, Note_on_c, 7, 59, 105
9, 440820, Note_on_c, 7, 59, 0
9, 440820, Note_on_c, 7, 62, 0
9, 440880, Note_on_c, 7, 59, 105
9, 440880, Note_on_c, 7, 62, 105
9, 441060, Note_on_c, 7, 62, 0
9, 441060, Note_on_c, 7, 59, 0
9, 441120, Note_on_c, 7, 62, 105
9, 441120, Note_on_c, 7, 59, 105
9, 441300, Note_on_c, 7, 59, 0
9, 441300, Note_on_c, 7, 62, 0
9, 441360, Note_on_c, 7, 62, 105
9, 441360, Note_on_c, 7, 59, 105
9, 441540, Note_on_c, 7, 59, 0
9, 441540, Note_on_c, 7, 62, 0
9, 441600, Note_on_c, 7, 59, 105
9, 441600, Note_on_c, 7, 62, 105
9, 441780, Note_on_c, 7, 62, 0
9, 441780, Note_on_c, 7, 59, 0
9, 441840, Note_on_c, 7, 62, 105
9, 441840, Note_on_c, 7, 59, 105
9, 442020, Note_on_c, 7, 59, 0
9, 442020, Note_on_c, 7, 62, 0
9, 442080, Note_on_c, 7, 59, 105
9, 442080, Note_on_c, 7, 62, 105
9, 442260, Note_on_c, 7, 62, 0
9, 442260, Note_on_c, 7, 59, 0
9, 442320, Note_on_c, 7, 62, 105
9, 442320, Note_on_c, 7, 59, 105
9, 442500, Note_on_c, 7, 59, 0
9, 442500, Note_on_c, 7, 62, 0
9, 442560, Note_on_c, 7, 62, 105
9, 442560, Note_on_c, 7, 59, 105
9, 442740, Note_on_c, 7, 59, 0
9, 442740, Note_on_c, 7, 62, 0
9, 442800, Note_on_c, 7, 59, 105
9, 442800, Note_on_c, 7, 62, 105
9, 442980, Note_on_c, 7, 62, 0
9, 442980, Note_on_c, 7, 59, 0
9, 443040, Note_on_c, 7, 62, 105
9, 443040, Note_on_c, 7, 59, 105
9, 443220, Note_on_c, 7, 59, 0
9, 443220, Note_on_c, 7, 62, 0
9, 443280, Note_on_c, 7, 62, 105
9, 443280, Note_on_c, 7, 59, 105
9, 443460, Note_on_c, 7, 59, 0
9, 443460, Note_on_c, 7, 62, 0
9, 443520, Note_on_c, 7, 59, 105
9, 443520, Note_on_c, 7, 62, 105
9, 443700, Note_on_c, 7, 62, 0
9, 443700, Note_on_c, 7, 59, 0
9, 443760, Note_on_c, 7, 59, 105
9, 443760, Note_on_c, 7, 62, 105
9, 443940, Note_on_c, 7, 62, 0
9, 443940, Note_on_c, 7, 59, 0
9, 444000, Note_on_c, 7, 62, 105
9, 444000, Note_on_c, 7, 59, 105
9, 444180, Note_on_c, 7, 59, 0
9, 444180, Note_on_c, 7, 62, 0
9, 444240, Note_on_c, 7, 62, 105
9, 444240, Note_on_c, 7, 59, 105
9, 444420, Note_on_c, 7, 59, 0
9, 444420, Note_on_c, 7, 62, 0
9, 444480, Note_on_c, 7, 62, 105
9, 444480, Note_on_c, 7, 59, 105
9, 444660, Note_on_c, 7, 59, 0
9, 444660, Note_on_c, 7, 62, 0
9, 444720, Note_on_c, 7, 59, 105
9, 444720, Note_on_c, 7, 62, 105
9, 444900, Note_on_c, 7, 62, 0
9, 444900, Note_on_c, 7, 59, 0
9, 444960, Note_on_c, 7, 62, 105
9, 444960, Note_on_c, 7, 59, 105
9, 445140, Note_on_c, 7, 59, 0
9, 445140, Note_on_c, 7, 62, 0
9, 445200, Note_on_c, 7, 62, 105
9, 445200, Note_on_c, 7, 59, 105
9, 445380, Note_on_c, 7, 59, 0
9, 445380, Note_on_c, 7, 62, 0
9, 445440, Note_on_c, 7, 59, 105
9, 445440, Note_on_c, 7, 62, 105
9, 445620, Note_on_c, 7, 62, 0
9, 445620, Note_on_c, 7, 59, 0
9, 445680, Note_on_c, 7, 62, 105
9, 445680, Note_on_c, 7, 59, 105
9, 445860, Note_on_c, 7, 59, 0
9, 445860, Note_on_c, 7, 62, 0
9, 445920, Note_on_c, 7, 59, 105
9, 445920, Note_on_c, 7, 62, 105
9, 446100, Note_on_c, 7, 62, 0
9, 446100, Note_on_c, 7, 59, 0
9, 446160, Note_on_c, 7, 59, 105
9, 446160, Note_on_c, 7, 62, 105
9, 446340, Note_on_c, 7, 62, 0
9, 446340, Note_on_c, 7, 59, 0
9, 446400, Note_on_c, 7, 59, 105
9, 446400, Note_on_c, 7, 62, 105
9, 446580, Note_on_c, 7, 62, 0
9, 446580, Note_on_c, 7, 59, 0
9, 446640, Note_on_c, 7, 62, 105
9, 446640, Note_on_c, 7, 59, 105
9, 446820, Note_on_c, 7, 59, 0
9, 446820, Note_on_c, 7, 62, 0
9, 446880, Note_on_c, 7, 59, 105
9, 446880, Note_on_c, 7, 62, 105
9, 447060, Note_on_c, 7, 62, 0
9, 447060, Note_on_c, 7, 59, 0
9, 447120, Note_on_c, 7, 59, 105
9, 447120, Note_on_c, 7, 62, 105
9, 447300, Note_on_c, 7, 62, 0
9, 447300, Note_on_c, 7, 59, 0
9, 447360, Note_on_c, 7, 59, 105
9, 447360, Note_on_c, 7, 62, 105
9, 447744, Note_on_c, 7, 62, 0
9, 447744, Note_on_c, 7, 59, 0
9, 448320, Note_on_c, 7, 67, 105
9, 448704, Note_on_c, 7, 67, 0
9, 449280, Note_on_c, 7, 55, 105
9, 450048, Note_on_c, 7, 55, 0
9, 450048, End_track
10, 0, Start_track
10, 0, Program_c, 8, 42
10, 0, Control_c, 8, 7, 100
10, 0, Control_c, 8, 10, 98
10, 0, Control_c, 8, 91, 85
10, 1920, Note_on_c, 8, 55, 72
10, 2688, Note_on_c, 8, 55, 0
10, 3840, Note_on_c, 8, 50, 72
10, 4224, Note_on_c, 8, 50, 0
10, 4800, Note_on_c, 8, 55, 72
10, 5184, Note_on_c, 8, 55, 0
10, 5760, Note_on_c, 8, 54, 72
10, 6144, Note_on_c, 8, 54, 0
10, 6720, Note_on_c, 8, 55, 72
10, 7104, Note_on_c, 8, 55, 0
10, 7680, Note_on_c, 8, 50, 72
10, 8064, Note_on_c, 8, 50, 0
10, 9600, Note_on_c, 8, 55, 72
10, 10368, Note_on_c, 8, 55, 0
10, 11520, Note_on_c, 8, 50, 72
10, 11904, Note_on_c, 8, 50, 0
10, 12480, Note_on_c, 8, 52, 72
10, 12864, Note_on_c, 8, 52, 0
10, 13440, Note_on_c, 8, 48, 72
10, 13824, Note_on_c, 8, 48, 0
10, 14400, Note_on_c, 8, 50, 72
10, 14784, Note_on_c, 8, 50, 0
10, 15360, Note_on_c, 8, 55, 72
10, 15744, Note_on_c, 8, 55, 0
10, 15840, Note_on_c, 8, 55, 72
10, 16224, Note_on_c, 8, 55, 0
10, 16320, Note_on_c, 8, 47, 72
10, 16704, Note_on_c, 8, 47, 0
10, 16800, Note_on_c, 8, 50, 72
10, 17184, Note_on_c, 8, 50, 0
10, 17280, Note_on_c, 8, 55, 72
10, 18048, Note_on_c, 8, 55, 0
10, 19200, Note_on_c, 8, 50, 72
10, 19584, Note_on_c, 8, 50, 0
10, 20160, Note_on_c, 8, 55, 72
10, 20544, Note_on_c, 8, 55, 0
10, 21120, Note_on_c, 8, 54, 72
10, 21504, Note_on_c, 8, 54, 0
10, 22080, Note_on_c, 8, 55, 72
10, 22464, Note_on_c, 8, 55, 0
10, 23040, Note_on_c, 8, 50, 72
10, 23424, Note_on_c, 8, 50, 0
10, 24960, Note_on_c, 8, 55, 72
10, 25728, Note_on_c, 8, 55, 0
10, 26880, Note_on_c, 8, 50, 72
10, 27264, Note_on_c, 8, 50, 0
10, 27840, Note_on_c, 8, 52, 72
10, 28224, Note_on_c, 8, 52, 0
10, 28800, Note_on_c, 8, 48, 72
10, 29184, Note_on_c, 8, 48, 0
10, 29760, Note_on_c, 8, 50, 58
10, 30144, Note_on_c, 8, 50, 0
10, 30720, Note_on_c, 8, 43, 127
10, 30912, Note_on_c, 8, 43, 0
10, 30960, Note_on_c, 8, 55, 116
10, 31152, Note_on_c, 8, 55, 0
10, 31200, Note_on_c, 8, 55, 116
10, 31392, Note_on_c, 8, 55, 0
10, 31440, Note_on_c, 8, 55, 116
10, 31632, Note_on_c, 8, 55, 0
10, 31680, Note_on_c, 8, 55, 116
10, 31872, Note_on_c, 8, 55, 0
10, 31920, Note_on_c, 8, 55, 116
10, 32112, Note_on_c, 8, 55, 0
10, 32160, Note_on_c, 8, 55, 116
10, 32352, Note_on_c, 8, 55, 0
10, 32400, Note_on_c, 8, 55, 116
10, 32592, Note_on_c, 8, 55, 0
10, 32640, Note_on_c, 8, 43, 116
10, 32832, Note_on_c, 8, 43, 0
10, 32880, Note_on_c, 8, 55, 116
10, 33072, Note_on_c, 8, 55, 0
10, 33120, Note_on_c, 8, 55, 116
10, 33312, Note_on_c, 8, 55, 0
10, 33360, Note_on_c, 8, 55, 116
10, 33552, Note_on_c, 8, 55, 0
10, 33600, Note_on_c, 8, 55, 116
10, 33792, Note_on_c, 8, 55, 0
10, 33840, Note_on_c, 8, 55, 116
10, 34032, Note_on_c, 8, 55, 0
10, 34080, Note_on_c, 8, 55, 116
10, 34272, Note_on_c, 8, 55, 0
10, 34320, Note_on_c, 8, 55, 116
10, 34512, Note_on_c, 8, 55, 0
10, 34560, Note_on_c, 8, 55, 116
10, 35712, Note_on_c, 8, 55, 0
10, 35760, Note_on_c, 8, 57, 116
10, 35952, Note_on_c, 8, 57, 0
10, 36000, Note_on_c, 8, 54, 116
10, 36192, Note_on_c, 8, 54, 0
10, 36240, Note_on_c, 8, 50, 116
10, 36432, Note_on_c, 8, 50, 0
10, 36480, Note_on_c, 8, 59, 116
10, 37632, Note_on_c, 8, 59, 0
10, 37680, Note_on_c, 8, 60, 116
10, 37872, Note_on_c, 8, 60, 0
10, 37920, Note_on_c, 8, 57, 116
10, 38112, Note_on_c, 8, 57, 0
10, 38160, Note_on_c, 8, 54, 116
10, 38352, Note_on_c, 8, 54, 0
10, 38400, Note_on_c, 8, 55, 116
10, 38688, Note_on_c, 8, 55, 0
10, 38880, Note_on_c, 8, 59, 116
10, 39024, Note_on_c, 8, 59, 0
10, 39120, Note_on_c, 8, 59, 116
10, 39264, Note_on_c, 8, 59, 0
10, 39360, Note_on_c, 8, 59, 116
10, 39600, Note_on_c, 8, 59, 0
10, 39600, Note_on_c, 8, 55, 116
10, 39792, Note_on_c, 8, 55, 0
10, 39840, Note_on_c, 8, 55, 116
10, 40032, Note_on_c, 8, 55, 0
10, 40080, Note_on_c, 8, 55, 116
10, 40272, Note_on_c, 8, 55, 0
10, 40320, Note_on_c, 8, 55, 116
10, 40560, Note_on_c, 8, 55, 0
10, 40560, Note_on_c, 8, 50, 116
10, 40752, Note_on_c, 8, 50, 0
10, 40800, Note_on_c, 8, 50, 116
10, 40992, Note_on_c, 8, 50, 0
10, 41040, Note_on_c, 8, 50, 116
10, 41232, Note_on_c, 8, 50, 0
10, 41280, Note_on_c, 8, 50, 116
10, 41520, Note_on_c, 8, 50, 0
10, 41520, Note_on_c, 8, 47, 116
10, 41712, Note_on_c, 8, 47, 0
10, 41760, Note_on_c, 8, 47, 116
10, 41952, Note_on_c, 8, 47, 0
10, 42000, Note_on_c, 8, 43, 116
10, 42192, Note_on_c, 8, 43, 0
10, 42240, Note_on_c, 8, 50, 116
10, 42432, Note_on_c, 8, 50, 0
10, 42480, Note_on_c, 8, 62, 116
10, 42672, Note_on_c, 8, 62, 0
10, 42720, Note_on_c, 8, 60, 116
10, 42912, Note_on_c, 8, 60, 0
10, 42960, Note_on_c, 8, 62, 116
10, 43152, Note_on_c, 8, 62, 0
10, 43200, Note_on_c, 8, 59, 116
10, 43392, Note_on_c, 8, 59, 0
10, 43440, Note_on_c, 8, 62, 116
10, 43632, Note_on_c, 8, 62, 0
10, 43680, Note_on_c, 8, 59, 116
10, 43872, Note_on_c, 8, 59, 0
10, 43920, Note_on_c, 8, 55, 116
10, 44112, Note_on_c, 8, 55, 0
10, 44160, Note_on_c, 8, 50, 105
10, 44544, Note_on_c, 8, 50, 0
10, 44640, Note_on_c, 8, 50, 105
10, 45024, Note_on_c, 8, 50, 0
10, 45120, Note_on_c, 8, 50, 105
10, 45504, Note_on_c, 8, 50, 0
10, 54240, Note_on_c, 8, 50, 92
10, 54720, Note_on_c, 8, 50, 0
10, 54720, Note_on_c, 8, 52, 72
10, 54912, Note_on_c, 8, 52, 0
10, 55200, Note_on_c, 8, 54, 72
10, 55392, Note_on_c, 8, 54, 0
10, 55680, Note_on_c, 8, 55, 72
10, 55872, Note_on_c, 8, 55, 0
10, 56160, Note_on_c, 8, 57, 72
10, 56352, Note_on_c, 8, 57, 0
10, 56640, Note_on_c, 8, 59, 72
10, 56832, Note_on_c, 8, 59, 0
10, 57120, Note_on_c, 8, 61, 72
10, 57312, Note_on_c, 8, 61, 0
10, 57600, Note_on_c, 8, 62, 72
10, 57984, Note_on_c, 8, 62, 0
10, 58080, Note_on_c, 8, 50, 72
10, 58464, Note_on_c, 8, 50, 0
10, 58560, Note_on_c, 8, 47, 72
10, 58944, Note_on_c, 8, 47, 0
10, 59040, Note_on_c, 8, 52, 72
10, 59424, Note_on_c, 8, 52, 0
10, 59520, Note_on_c, 8, 45, 72
10, 59700, Note_on_c, 8, 45, 0
10, 59760, Note_on_c, 8, 57, 72
10, 59940, Note_on_c, 8, 57, 0
10, 60000, Note_on_c, 8, 57, 72
10, 60180, Note_on_c, 8, 57, 0
10, 60240, Note_on_c, 8, 57, 72
10, 60420, Note_on_c, 8, 57, 0
10, 60480, Note_on_c, 8, 57, 72
10, 60660, Note_on_c, 8, 57, 0
10, 60720, Note_on_c, 8, 57, 72
10, 60900, Note_on_c, 8, 57, 0
10, 60960, Note_on_c, 8, 57, 72
10, 61140, Note_on_c, 8, 57, 0
10, 61200, Note_on_c, 8, 57, 72
10, 61380, Note_on_c, 8, 57, 0
10, 61440, Note_on_c, 8, 45, 72
10, 61620, Note_on_c, 8, 45, 0
10, 61680, Note_on_c, 8, 57, 72
10, 61860, Note_on_c, 8, 57, 0
10, 61920, Note_on_c, 8, 57, 72
10, 62100, Note_on_c, 8, 57, 0
10, 62160, Note_on_c, 8, 57, 72
10, 62340, Note_on_c, 8, 57, 0
10, 62400, Note_on_c, 8, 57, 72
10, 62580, Note_on_c, 8, 57, 0
10, 62640, Note_on_c, 8, 57, 72
10, 62820, Note_on_c, 8, 57, 0
10, 62880, Note_on_c, 8, 57, 72
10, 63060, Note_on_c, 8, 57, 0
10, 63120, Note_on_c, 8, 57, 72
10, 63300, Note_on_c, 8, 57, 0
10, 63360, Note_on_c, 8, 45, 72
10, 63540, Note_on_c, 8, 45, 0
10, 63600, Note_on_c, 8, 57, 72
10, 63780, Note_on_c, 8, 57, 0
10, 63840, Note_on_c, 8, 57, 72
10, 64020, Note_on_c, 8, 57, 0
10, 64080, Note_on_c, 8, 57, 72
10, 64260, Note_on_c, 8, 57, 0
10, 64320, Note_on_c, 8, 57, 72
10, 64500, Note_on_c, 8, 57, 0
10, 64560, Note_on_c, 8, 57, 72
10, 64740, Note_on_c, 8, 57, 0
10, 64800, Note_on_c, 8, 57, 72
10, 64980, Note_on_c, 8, 57, 0
10, 65040, Note_on_c, 8, 57, 72
10, 65220, Note_on_c, 8, 57, 0
10, 65280, Note_on_c, 8, 45, 72
10, 65460, Note_on_c, 8, 45, 0
10, 65520, Note_on_c, 8, 57, 72
10, 65700, Note_on_c, 8, 57, 0
10, 65760, Note_on_c, 8, 57, 72
10, 65940, Note_on_c, 8, 57, 0
10, 66000, Note_on_c, 8, 57, 72
10, 66180, Note_on_c, 8, 57, 0
10, 66240, Note_on_c, 8, 57, 72
10, 66420, Note_on_c, 8, 57, 0
10, 66480, Note_on_c, 8, 57, 72
10, 66660, Note_on_c, 8, 57, 0
10, 66720, Note_on_c, 8, 57, 72
10, 66900, Note_on_c, 8, 57, 0
10, 66960, Note_on_c, 8, 57, 72
10, 67140, Note_on_c, 8, 57, 0
10, 67200, Note_on_c, 8, 45, 72
10, 67380, Note_on_c, 8, 45, 0
10, 67440, Note_on_c, 8, 57, 72
10, 67620, Note_on_c, 8, 57, 0
10, 67680, Note_on_c, 8, 57, 72
10, 67860, Note_on_c, 8, 57, 0
10, 67920, Note_on_c, 8, 57, 72
10, 68100, Note_on_c, 8, 57, 0
10, 68160, Note_on_c, 8, 57, 72
10, 68544, Note_on_c, 8, 57, 0
10, 69120, Note_on_c, 8, 58, 72
10, 70080, Note_on_c, 8, 58, 0
10, 70080, Note_on_c, 8, 57, 72
10, 70464, Note_on_c, 8, 57, 0
10, 71040, Note_on_c, 8, 58, 72
10, 72000, Note_on_c, 8, 58, 0
10, 72000, Note_on_c, 8, 57, 72
10, 72384, Note_on_c, 8, 57, 0
10, 76800, Note_on_c, 8, 50, 72
10, 77568, Note_on_c, 8, 50, 0
10, 78720, Note_on_c, 8, 57, 72
10, 79080, Note_on_c, 8, 57, 0
10, 79680, Note_on_c, 8, 62, 72
10, 80040, Note_on_c, 8, 62, 0
10, 80640, Note_on_c, 8, 61, 72
10, 81000, Note_on_c, 8, 61, 0
10, 81600, Note_on_c, 8, 62, 72
10, 81960, Note_on_c, 8, 62, 0
10, 82560, Note_on_c, 8, 57, 72
10, 82920, Note_on_c, 8, 57, 0
10, 84480, Note_on_c, 8, 50, 72
10, 85248, Note_on_c, 8, 50, 0
10, 86400, Note_on_c, 8, 57, 72
10, 86760, Note_on_c, 8, 57, 0
10, 87360, Note_on_c, 8, 59, 72
10, 87720, Note_on_c, 8, 59, 0
10, 88320, Note_on_c, 8, 55, 72
10, 88680, Note_on_c, 8, 55, 0
10, 89280, Note_on_c, 8, 57, 72
10, 89640, Note_on_c, 8, 57, 0
10, 90240, Note_on_c, 8, 60, 72
10, 91200, Note_on_c, 8, 60, 0
10, 91200, Note_on_c, 8, 59, 72
10, 91584, Note_on_c, 8, 59, 0
10, 92160, Note_on_c, 8, 55, 72
10, 92928, Note_on_c, 8, 55, 0
10, 94080, Note_on_c, 8, 57, 72
10, 94440, Note_on_c, 8, 57, 0
10, 95040, Note_on_c, 8, 59, 72
10, 95400, Note_on_c, 8, 59, 0
10, 96000, Note_on_c, 8, 55, 72
10, 96384, Note_on_c, 8, 55, 0
10, 96960, Note_on_c, 8, 57, 72
10, 97344, Note_on_c, 8, 57, 0
10, 97920, Note_on_c, 8, 54, 72
10, 98880, Note_on_c, 8, 54, 0
10, 98880, Note_on_c, 8, 52, 72
10, 99840, Note_on_c, 8, 52, 0
10, 99840, Note_on_c, 8, 50, 72
10, 100800, Note_on_c, 8, 50, 0
10, 100800, Note_on_c, 8, 55, 72
10, 101568, Note_on_c, 8, 55, 0
10, 101760, Note_on_c, 8, 57, 58
10, 102720, Note_on_c, 8, 57, 0
10, 102720, Note_on_c, 8, 45, 58
10, 103488, Note_on_c, 8, 45, 0
10, 103680, Note_on_c, 8, 54, 127
10, 103824, Note_on_c, 8, 54, 0
10, 103920, Note_on_c, 8, 54, 116
10, 104112, Note_on_c, 8, 54, 0
10, 104160, Note_on_c, 8, 54, 116
10, 104352, Note_on_c, 8, 54, 0
10, 104400, Note_on_c, 8, 54, 116
10, 104592, Note_on_c, 8, 54, 0
10, 104640, Note_on_c, 8, 52, 116
10, 104832, Note_on_c, 8, 52, 0
10, 104880, Note_on_c, 8, 52, 116
10, 105072, Note_on_c, 8, 52, 0
10, 105120, Note_on_c, 8, 52, 116
10, 105312, Note_on_c, 8, 52, 0
10, 105360, Note_on_c, 8, 52, 116
10, 105552, Note_on_c, 8, 52, 0
10, 105600, Note_on_c, 8, 50, 116
10, 105792, Note_on_c, 8, 50, 0
10, 105840, Note_on_c, 8, 50, 116
10, 106032, Note_on_c, 8, 50, 0
10, 106080, Note_on_c, 8, 50, 116
10, 106272, Note_on_c, 8, 50, 0
10, 106320, Note_on_c, 8, 50, 116
10, 106512, Note_on_c, 8, 50, 0
10, 106560, Note_on_c, 8, 55, 116
10, 106752, Note_on_c, 8, 55, 0
10, 106800, Note_on_c, 8, 55, 116
10, 106992, Note_on_c, 8, 55, 0
10, 107040, Note_on_c, 8, 55, 116
10, 107232, Note_on_c, 8, 55, 0
10, 107280, Note_on_c, 8, 55, 116
10, 107472, Note_on_c, 8, 55, 0
10, 107520, Note_on_c, 8, 57, 116
10, 107712, Note_on_c, 8, 57, 0
10, 107760, Note_on_c, 8, 57, 116
10, 107952, Note_on_c, 8, 57, 0
10, 108000, Note_on_c, 8, 57, 116
10, 108192, Note_on_c, 8, 57, 0
10, 108240, Note_on_c, 8, 57, 116
10, 108432, Note_on_c, 8, 57, 0
10, 108480, Note_on_c, 8, 45, 116
10, 108672, Note_on_c, 8, 45, 0
10, 108720, Note_on_c, 8, 45, 116
10, 108912, Note_on_c, 8, 45, 0
10, 108960, Note_on_c, 8, 45, 116
10, 109152, Note_on_c, 8, 45, 0
10, 109200, Note_on_c, 8, 45, 116
10, 109392, Note_on_c, 8, 45, 0
10, 109440, Note_on_c, 8, 50, 110
10, 109824, Note_on_c, 8, 50, 0
10, 109920, Note_on_c, 8, 50, 72
10, 110304, Note_on_c, 8, 50, 0
10, 110400, Note_on_c, 8, 54, 72
10, 110784, Note_on_c, 8, 54, 0
10, 110880, Note_on_c, 8, 57, 72
10, 111264, Note_on_c, 8, 57, 0
10, 111360, Note_on_c, 8, 62, 72
10, 111744, Note_on_c, 8, 62, 0
10, 111840, Note_on_c, 8, 50, 72
10, 112224, Note_on_c, 8, 50, 0
10, 113760, Note_on_c, 8, 50, 72
10, 114144, Note_on_c, 8, 50, 0
10, 114240, Note_on_c, 8, 55, 72
10, 114624, Note_on_c, 8, 55, 0
10, 114720, Note_on_c, 8, 59, 72
10, 115104, Note_on_c, 8, 59, 0
10, 115200, Note_on_c, 8, 62, 72
10, 115584, Note_on_c, 8, 62, 0
10, 115680, Note_on_c, 8, 50, 72
10, 116064, Note_on_c, 8, 50, 0
10, 117600, Note_on_c, 8, 50, 72
10, 117984, Note_on_c, 8, 50, 0
10, 118080, Note_on_c, 8, 54, 72
10, 118464, Note_on_c, 8, 54, 0
10, 118560, Note_on_c, 8, 57, 72
10, 118944, Note_on_c, 8, 57, 0
10, 119040, Note_on_c, 8, 62, 72
10, 119424, Note_on_c, 8, 62, 0
10, 119520, Note_on_c, 8, 50, 72
10, 119904, Note_on_c, 8, 50, 0
10, 122880, Note_on_c, 8, 55, 72
10, 123648, Note_on_c, 8, 55, 0
10, 124800, Note_on_c, 8, 50, 72
10, 125184, Note_on_c, 8, 50, 0
10, 125760, Note_on_c, 8, 55, 72
10, 126144, Note_on_c, 8, 55, 0
10, 126720, Note_on_c, 8, 54, 72
10, 127104, Note_on_c, 8, 54, 0
10, 127680, Note_on_c, 8, 55, 72
10, 128064, Note_on_c, 8, 55, 0
10, 128640, Note_on_c, 8, 50, 72
10, 129024, Note_on_c, 8, 50, 0
10, 130560, Note_on_c, 8, 55, 72
10, 131328, Note_on_c, 8, 55, 0
10, 132480, Note_on_c, 8, 50, 72
10, 132864, Note_on_c, 8, 50, 0
10, 133440, Note_on_c, 8, 52, 72
10, 133824, Note_on_c, 8, 52, 0
10, 134400, Note_on_c, 8, 48, 72
10, 134784, Note_on_c, 8, 48, 0
10, 135360, Note_on_c, 8, 50, 72
10, 135744, Note_on_c, 8, 50, 0
10, 136320, Note_on_c, 8, 55, 72
10, 136704, Note_on_c, 8, 55, 0
10, 136800, Note_on_c, 8, 55, 72
10, 137184, Note_on_c, 8, 55, 0
10, 137280, Note_on_c, 8, 47, 72
10, 137664, Note_on_c, 8, 47, 0
10, 137760, Note_on_c, 8, 50, 72
10, 138144, Note_on_c, 8, 50, 0
10, 138240, Note_on_c, 8, 55, 72
10, 139008, Note_on_c, 8, 55, 0
10, 140160, Note_on_c, 8, 50, 72
10, 140544, Note_on_c, 8, 50, 0
10, 141120, Note_on_c, 8, 55, 72
10, 141504, Note_on_c, 8, 55, 0
10, 142080, Note_on_c, 8, 54, 72
10, 142464, Note_on_c, 8, 54, 0
10, 143040, Note_on_c, 8, 55, 72
10, 143424, Note_on_c, 8, 55, 0
10, 144000, Note_on_c, 8, 50, 72
10, 144384, Note_on_c, 8, 50, 0
10, 145920, Note_on_c, 8, 55, 72
10, 146688, Note_on_c, 8, 55, 0
10, 147840, Note_on_c, 8, 50, 72
10, 148224, Note_on_c, 8, 50, 0
10, 148800, Note_on_c, 8, 52, 72
10, 149184, Note_on_c, 8, 52, 0
10, 149760, Note_on_c, 8, 48, 72
10, 150144, Note_on_c, 8, 48, 0
10, 150720, Note_on_c, 8, 50, 58
10, 151104, Note_on_c, 8, 50, 0
10, 151680, Note_on_c, 8, 43, 127
10, 151872, Note_on_c, 8, 43, 0
10, 151920, Note_on_c, 8, 55, 116
10, 152112, Note_on_c, 8, 55, 0
10, 152160, Note_on_c, 8, 55, 116
10, 152352, Note_on_c, 8, 55, 0
10, 152400, Note_on_c, 8, 55, 116
10, 152592, Note_on_c, 8, 55, 0
10, 152640, Note_on_c, 8, 55, 116
10, 152832, Note_on_c, 8, 55, 0
10, 152880, Note_on_c, 8, 55, 116
10, 153072, Note_on_c, 8, 55, 0
10, 153120, Note_on_c, 8, 55, 116
10, 153312, Note_on_c, 8, 55, 0
10, 153360, Note_on_c, 8, 55, 116
10, 153552, Note_on_c, 8, 55, 0
10, 153600, Note_on_c, 8, 43, 116
10, 153792, Note_on_c, 8, 43, 0
10, 153840, Note_on_c, 8, 55, 116
10, 154032, Note_on_c, 8, 55, 0
10, 154080, Note_on_c, 8, 55, 116
10, 154272, Note_on_c, 8, 55, 0
10, 154320, Note_on_c, 8, 55, 116
10, 154512, Note_on_c, 8, 55, 0
10, 154560, Note_on_c, 8, 55, 116
10, 154752, Note_on_c, 8, 55, 0
10, 154800, Note_on_c, 8, 55, 116
10, 154992, Note_on_c, 8, 55, 0
10, 155040, Note_on_c, 8, 55, 116
10, 155232, Note_on_c, 8, 55, 0
10, 155280, Note_on_c, 8, 55, 116
10, 155472, Note_on_c, 8, 55, 0
10, 155520, Note_on_c, 8, 55, 116
10, 156672, Note_on_c, 8, 55, 0
10, 156720, Note_on_c, 8, 57, 116
10, 156912, Note_on_c, 8, 57, 0
10, 156960, Note_on_c, 8, 54, 116
10, 157152, Note_on_c, 8, 54, 0
10, 157200, Note_on_c, 8, 50, 116
10, 157392, Note_on_c, 8, 50, 0
10, 157440, Note_on_c, 8, 59, 116
10, 158592, Note_on_c, 8, 59, 0
10, 158640, Note_on_c, 8, 60, 116
10, 158832, Note_on_c, 8, 60, 0
10, 158880, Note_on_c, 8, 57, 116
10, 159072, Note_on_c, 8, 57, 0
10, 159120, Note_on_c, 8, 54, 116
10, 159312, Note_on_c, 8, 54, 0
10, 159360, Note_on_c, 8, 55, 116
10, 159648, Note_on_c, 8, 55, 0
10, 159840, Note_on_c, 8, 59, 116
10, 159984, Note_on_c, 8, 59, 0
10, 160080, Note_on_c, 8, 59, 116
10, 160224, Note_on_c, 8, 59, 0
10, 160320, Note_on_c, 8, 59, 116
10, 160560, Note_on_c, 8, 59, 0
10, 160560, Note_on_c, 8, 55, 116
10, 160752, Note_on_c, 8, 55, 0
10, 160800, Note_on_c, 8, 55, 116
10, 160992, Note_on_c, 8, 55, 0
10, 161040, Note_on_c, 8, 55, 116
10, 161232, Note_on_c, 8, 55, 0
10, 161280, Note_on_c, 8, 55, 116
10, 161520, Note_on_c, 8, 55, 0
10, 161520, Note_on_c, 8, 50, 116
10, 161712, Note_on_c, 8, 50, 0
10, 161760, Note_on_c, 8, 50, 116
10, 161952, Note_on_c, 8, 50, 0
10, 162000, Note_on_c, 8, 50, 116
10, 162192, Note_on_c, 8, 50, 0
10, 162240, Note_on_c, 8, 50, 116
10, 162480, Note_on_c, 8, 50, 0
10, 162480, Note_on_c, 8, 47, 116
10, 162672, Note_on_c, 8, 47, 0
10, 162720, Note_on_c, 8, 47, 116
10, 162912, Note_on_c, 8, 47, 0
10, 162960, Note_on_c, 8, 43, 116
10, 163152, Note_on_c, 8, 43, 0
10, 163200, Note_on_c, 8, 50, 116
10, 163392, Note_on_c, 8, 50, 0
10, 163440, Note_on_c, 8, 62, 116
10, 163632, Note_on_c, 8, 62, 0
10, 163680, Note_on_c, 8, 60, 116
10, 163872, Note_on_c, 8, 60, 0
10, 163920, Note_on_c, 8, 62, 116
10, 164112, Note_on_c, 8, 62, 0
10, 164160, Note_on_c, 8, 59, 116
10, 164352, Note_on_c, 8, 59, 0
10, 164400, Note_on_c, 8, 62, 116
10, 164592, Note_on_c, 8, 62, 0
10, 164640, Note_on_c, 8, 59, 116
10, 164832, Note_on_c, 8, 59, 0
10, 164880, Note_on_c, 8, 55, 116
10, 165072, Note_on_c, 8, 55, 0
10, 165120, Note_on_c, 8, 50, 105
10, 165504, Note_on_c, 8, 50, 0
10, 165600, Note_on_c, 8, 50, 105
10, 165984, Note_on_c, 8, 50, 0
10, 166080, Note_on_c, 8, 50, 105
10, 166464, Note_on_c, 8, 50, 0
10, 175200, Note_on_c, 8, 50, 92
10, 175680, Note_on_c, 8, 50, 0
10, 175680, Note_on_c, 8, 52, 72
10, 175872, Note_on_c, 8, 52, 0
10, 176160, Note_on_c, 8, 54, 72
10, 176352, Note_on_c, 8, 54, 0
10, 176640, Note_on_c, 8, 55, 72
10, 176832, Note_on_c, 8, 55, 0
10, 177120, Note_on_c, 8, 57, 72
10, 177312, Note_on_c, 8, 57, 0
10, 177600, Note_on_c, 8, 59, 72
10, 177792, Note_on_c, 8, 59, 0
10, 178080, Note_on_c, 8, 61, 72
10, 178272, Note_on_c, 8, 61, 0
10, 178560, Note_on_c, 8, 62, 72
10, 178944, Note_on_c, 8, 62, 0
10, 179040, Note_on_c, 8, 50, 72
10, 179424, Note_on_c, 8, 50, 0
10, 179520, Note_on_c, 8, 47, 72
10, 179904, Note_on_c, 8, 47, 0
10, 180000, Note_on_c, 8, 52, 72
10, 180384, Note_on_c, 8, 52, 0
10, 180480, Note_on_c, 8, 45, 72
10, 180660, Note_on_c, 8, 45, 0
10, 180720, Note_on_c, 8, 57, 72
10, 180900, Note_on_c, 8, 57, 0
10, 180960, Note_on_c, 8, 57, 72
10, 181140, Note_on_c, 8, 57, 0
10, 181200, Note_on_c, 8, 57, 72
10, 181380, Note_on_c, 8, 57, 0
10, 181440, Note_on_c, 8, 57, 72
10, 181620, Note_on_c, 8, 57, 0
10, 181680, Note_on_c, 8, 57, 72
10, 181860, Note_on_c, 8, 57, 0
10, 181920, Note_on_c, 8, 57, 72
10, 182100, Note_on_c, 8, 57, 0
10, 182160, Note_on_c, 8, 57, 72
10, 182340, Note_on_c, 8, 57, 0
10, 182400, Note_on_c, 8, 45, 72
10, 182580, Note_on_c, 8, 45, 0
10, 182640, Note_on_c, 8, 57, 72
10, 182820, Note_on_c, 8, 57, 0
10, 182880, Note_on_c, 8, 57, 72
10, 183060, Note_on_c, 8, 57, 0
10, 183120, Note_on_c, 8, 57, 72
10, 183300, Note_on_c, 8, 57, 0
10, 183360, Note_on_c, 8, 57, 72
10, 183540, Note_on_c, 8, 57, 0
10, 183600, Note_on_c, 8, 57, 72
10, 183780, Note_on_c, 8, 57, 0
10, 183840, Note_on_c, 8, 57, 72
10, 184020, Note_on_c, 8, 57, 0
10, 184080, Note_on_c, 8, 57, 72
10, 184260, Note_on_c, 8, 57, 0
10, 184320, Note_on_c, 8, 45, 72
10, 184500, Note_on_c, 8, 45, 0
10, 184560, Note_on_c, 8, 57, 72
10, 184740, Note_on_c, 8, 57, 0
10, 184800, Note_on_c, 8, 57, 72
10, 184980, Note_on_c, 8, 57, 0
10, 185040, Note_on_c, 8, 57, 72
10, 185220, Note_on_c, 8, 57, 0
10, 185280, Note_on_c, 8, 57, 72
10, 185460, Note_on_c, 8, 57, 0
10, 185520, Note_on_c, 8, 57, 72
10, 185700, Note_on_c, 8, 57, 0
10, 185760, Note_on_c, 8, 57, 72
10, 185940, Note_on_c, 8, 57, 0
10, 186000, Note_on_c, 8, 57, 72
10, 186180, Note_on_c, 8, 57, 0
10, 186240, Note_on_c, 8, 45, 72
10, 186420, Note_on_c, 8, 45, 0
10, 186480, Note_on_c, 8, 57, 72
10, 186660, Note_on_c, 8, 57, 0
10, 186720, Note_on_c, 8, 57, 72
10, 186900, Note_on_c, 8, 57, 0
10, 186960, Note_on_c, 8, 57, 72
10, 187140, Note_on_c, 8, 57, 0
10, 187200, Note_on_c, 8, 57, 72
10, 187380, Note_on_c, 8, 57, 0
10, 187440, Note_on_c, 8, 57, 72
10, 187620, Note_on_c, 8, 57, 0
10, 187680, Note_on_c, 8, 57, 72
10, 187860, Note_on_c, 8, 57, 0
10, 187920, Note_on_c, 8, 57, 72
10, 188100, Note_on_c, 8, 57, 0
10, 188160, Note_on_c, 8, 45, 72
10, 188340, Note_on_c, 8, 45, 0
10, 188400, Note_on_c, 8, 57, 72
10, 188580, Note_on_c, 8, 57, 0
10, 188640, Note_on_c, 8, 57, 72
10, 188820, Note_on_c, 8, 57, 0
10, 188880, Note_on_c, 8, 57, 72
10, 189060, Note_on_c, 8, 57, 0
10, 189120, Note_on_c, 8, 57, 72
10, 189504, Note_on_c, 8, 57, 0
10, 190080, Note_on_c, 8, 58, 72
10, 191040, Note_on_c, 8, 58, 0
10, 191040, Note_on_c, 8, 57, 72
10, 191424, Note_on_c, 8, 57, 0
10, 192000, Note_on_c, 8, 58, 72
10, 192960, Note_on_c, 8, 58, 0
10, 192960, Note_on_c, 8, 57, 72
10, 193344, Note_on_c, 8, 57, 0
10, 197760, Note_on_c, 8, 50, 72
10, 198528, Note_on_c, 8, 50, 0
10, 199680, Note_on_c, 8, 57, 72
10, 200040, Note_on_c, 8, 57, 0
10, 200640, Note_on_c, 8, 62, 72
10, 201000, Note_on_c, 8, 62, 0
10, 201600, Note_on_c, 8, 61, 72
10, 201960, Note_on_c, 8, 61, 0
10, 202560, Note_on_c, 8, 62, 72
10, 202920, Note_on_c, 8, 62, 0
10, 203520, Note_on_c, 8, 57, 72
10, 203880, Note_on_c, 8, 57, 0
10, 205440, Note_on_c, 8, 50, 72
10, 206208, Note_on_c, 8, 50, 0
10, 207360, Note_on_c, 8, 57, 72
10, 207720, Note_on_c, 8, 57, 0
10, 208320, Note_on_c, 8, 59, 72
10, 208680, Note_on_c, 8, 59, 0
10, 209280, Note_on_c, 8, 55, 72
10, 209640, Note_on_c, 8, 55, 0
10, 210240, Note_on_c, 8, 57, 72
10, 210600, Note_on_c, 8, 57, 0
10, 211200, Note_on_c, 8, 60, 72
10, 212160, Note_on_c, 8, 60, 0
10, 212160, Note_on_c, 8, 59, 72
10, 212544, Note_on_c, 8, 59, 0
10, 213120, Note_on_c, 8, 55, 72
10, 213888, Note_on_c, 8, 55, 0
10, 215040, Note_on_c, 8, 57, 72
10, 215400, Note_on_c, 8, 57, 0
10, 216000, Note_on_c, 8, 59, 72
10, 216360, Note_on_c, 8, 59, 0
10, 216960, Note_on_c, 8, 55, 72
10, 217344, Note_on_c, 8, 55, 0
10, 217920, Note_on_c, 8, 57, 72
10, 218304, Note_on_c, 8, 57, 0
10, 218880, Note_on_c, 8, 54, 72
10, 219840, Note_on_c, 8, 54, 0
10, 219840, Note_on_c, 8, 52, 72
10, 220800, Note_on_c, 8, 52, 0
10, 220800, Note_on_c, 8, 50, 72
10, 221760, Note_on_c, 8, 50, 0
10, 221760, Note_on_c, 8, 55, 72
10, 222528, Note_on_c, 8, 55, 0
10, 222720, Note_on_c, 8, 57, 58
10, 223680, Note_on_c, 8, 57, 0
10, 223680, Note_on_c, 8, 45, 58
10, 224448, Note_on_c, 8, 45, 0
10, 224640, Note_on_c, 8, 54, 127
10, 224784, Note_on_c, 8, 54, 0
10, 224880, Note_on_c, 8, 54, 116
10, 225072, Note_on_c, 8, 54, 0
10, 225120, Note_on_c, 8, 54, 116
10, 225312, Note_on_c, 8, 54, 0
10, 225360, Note_on_c, 8, 54, 116
10, 225552, Note_on_c, 8, 54, 0
10, 225600, Note_on_c, 8, 52, 116
10, 225792, Note_on_c, 8, 52, 0
10, 225840, Note_on_c, 8, 52, 116
10, 226032, Note_on_c, 8, 52, 0
10, 226080, Note_on_c, 8, 52, 116
10, 226272, Note_on_c, 8, 52, 0
10, 226320, Note_on_c, 8, 52, 116
10, 226512, Note_on_c, 8, 52, 0
10, 226560, Note_on_c, 8, 50, 116
10, 226752, Note_on_c, 8, 50, 0
10, 226800, Note_on_c, 8, 50, 116
10, 226992, Note_on_c, 8, 50, 0
10, 227040, Note_on_c, 8, 50, 116
10, 227232, Note_on_c, 8, 50, 0
10, 227280, Note_on_c, 8, 50, 116
10, 227472, Note_on_c, 8, 50, 0
10, 227520, Note_on_c, 8, 55, 116
10, 227712, Note_on_c, 8, 55, 0
10, 227760, Note_on_c, 8, 55, 116
10, 227952, Note_on_c, 8, 55, 0
10, 228000, Note_on_c, 8, 55, 116
10, 228192, Note_on_c, 8, 55, 0
10, 228240, Note_on_c, 8, 55, 116
10, 228432, Note_on_c, 8, 55, 0
10, 228480, Note_on_c, 8, 57, 116
10, 228672, Note_on_c, 8, 57, 0
10, 228720, Note_on_c, 8, 57, 116
10, 228912, Note_on_c, 8, 57, 0
10, 228960, Note_on_c, 8, 57, 116
10, 229152, Note_on_c, 8, 57, 0
10, 229200, Note_on_c, 8, 57, 116
10, 229392, Note_on_c, 8, 57, 0
10, 229440, Note_on_c, 8, 45, 116
10, 229632, Note_on_c, 8, 45, 0
10, 229680, Note_on_c, 8, 45, 116
10, 229872, Note_on_c, 8, 45, 0
10, 229920, Note_on_c, 8, 45, 116
10, 230112, Note_on_c, 8, 45, 0
10, 230160, Note_on_c, 8, 45, 116
10, 230352, Note_on_c, 8, 45, 0
10, 230400, Note_on_c, 8, 50, 110
10, 230784, Note_on_c, 8, 50, 0
10, 230880, Note_on_c, 8, 50, 72
10, 231264, Note_on_c, 8, 50, 0
10, 231360, Note_on_c, 8, 54, 72
10, 231744, Note_on_c, 8, 54, 0
10, 231840, Note_on_c, 8, 57, 72
10, 232224, Note_on_c, 8, 57, 0
10, 232320, Note_on_c, 8, 62, 72
10, 232704, Note_on_c, 8, 62, 0
10, 232800, Note_on_c, 8, 50, 72
10, 233184, Note_on_c, 8, 50, 0
10, 234720, Note_on_c, 8, 50, 72
10, 235104, Note_on_c, 8, 50, 0
10, 235200, Note_on_c, 8, 55, 72
10, 235584, Note_on_c, 8, 55, 0
10, 235680, Note_on_c, 8, 59, 72
10, 236064, Note_on_c, 8, 59, 0
10, 236160, Note_on_c, 8, 62, 72
10, 236544, Note_on_c, 8, 62, 0
10, 236640, Note_on_c, 8, 50, 72
10, 237024, Note_on_c, 8, 50, 0
10, 238560, Note_on_c, 8, 50, 72
10, 238944, Note_on_c, 8, 50, 0
10, 239040, Note_on_c, 8, 54, 72
10, 239424, Note_on_c, 8, 54, 0
10, 239520, Note_on_c, 8, 57, 72
10, 239904, Note_on_c, 8, 57, 0
10, 240000, Note_on_c, 8, 62, 72
10, 240384, Note_on_c, 8, 62, 0
10, 240480, Note_on_c, 8, 50, 72
10, 240864, Note_on_c, 8, 50, 0
10, 243120, Note_on_c, 8, 50, 105
10, 243276, Note_on_c, 8, 50, 0
10, 243360, Note_on_c, 8, 54, 105
10, 243516, Note_on_c, 8, 54, 0
10, 243600, Note_on_c, 8, 57, 105
10, 243756, Note_on_c, 8, 57, 0
10, 243840, Note_on_c, 8, 60, 105
10, 244152, Note_on_c, 8, 60, 0
10, 244320, Note_on_c, 8, 60, 105
10, 244632, Note_on_c, 8, 60, 0
10, 244800, Note_on_c, 8, 60, 105
10, 245112, Note_on_c, 8, 60, 0
10, 245280, Note_on_c, 8, 60, 105
10, 245592, Note_on_c, 8, 60, 0
10, 245760, Note_on_c, 8, 51, 105
10, 246144, Note_on_c, 8, 51, 0
10, 247680, Note_on_c, 8, 51, 72
10, 248448, Note_on_c, 8, 51, 0
10, 249600, Note_on_c, 8, 46, 72
10, 249960, Note_on_c, 8, 46, 0
10, 250560, Note_on_c, 8, 51, 72
10, 250920, Note_on_c, 8, 51, 0
10, 251520, Note_on_c, 8, 50, 72
10, 251880, Note_on_c, 8, 50, 0
10, 252480, Note_on_c, 8, 51, 72
10, 252840, Note_on_c, 8, 51, 0
10, 253440, Note_on_c, 8, 46, 72
10, 253824, Note_on_c, 8, 46, 0
10, 255360, Note_on_c, 8, 51, 72
10, 256128, Note_on_c, 8, 51, 0
10, 257280, Note_on_c, 8, 46, 72
10, 257640, Note_on_c, 8, 46, 0
10, 258240, Note_on_c, 8, 48, 72
10, 258600, Note_on_c, 8, 48, 0
10, 259200, Note_on_c, 8, 44, 72
10, 259560, Note_on_c, 8, 44, 0
10, 260160, Note_on_c, 8, 46, 72
10, 260520, Note_on_c, 8, 46, 0
10, 261120, Note_on_c, 8, 39, 105
10, 261288, Note_on_c, 8, 39, 0
10, 261360, Note_on_c, 8, 51, 105
10, 261528, Note_on_c, 8, 51, 0
10, 261600, Note_on_c, 8, 51, 105
10, 261768, Note_on_c, 8, 51, 0
10, 261840, Note_on_c, 8, 51, 105
10, 262008, Note_on_c, 8, 51, 0
10, 262080, Note_on_c, 8, 51, 105
10, 262248, Note_on_c, 8, 51, 0
10, 262320, Note_on_c, 8, 51, 105
10, 262488, Note_on_c, 8, 51, 0
10, 262560, Note_on_c, 8, 51, 105
10, 262728, Note_on_c, 8, 51, 0
10, 262800, Note_on_c, 8, 51, 105
10, 262968, Note_on_c, 8, 51, 0
10, 263040, Note_on_c, 8, 39, 105
10, 263208, Note_on_c, 8, 39, 0
10, 263280, Note_on_c, 8, 51, 105
10, 263448, Note_on_c, 8, 51, 0
10, 263520, Note_on_c, 8, 51, 105
10, 263688, Note_on_c, 8, 51, 0
10, 263760, Note_on_c, 8, 51, 105
10, 263928, Note_on_c, 8, 51, 0
10, 264000, Note_on_c, 8, 51, 105
10, 264168, Note_on_c, 8, 51, 0
10, 264240, Note_on_c, 8, 51, 105
10, 264408, Note_on_c, 8, 51, 0
10, 264480, Note_on_c, 8, 51, 105
10, 264648, Note_on_c, 8, 51, 0
10, 264720, Note_on_c, 8, 51, 105
10, 264888, Note_on_c, 8, 51, 0
10, 264960, Note_on_c, 8, 51, 105
10, 266160, Note_on_c, 8, 51, 0
10, 266160, Note_on_c, 8, 53, 105
10, 266400, Note_on_c, 8, 53, 0
10, 266400, Note_on_c, 8, 50, 105
10, 266640, Note_on_c, 8, 50, 0
10, 266640, Note_on_c, 8, 46, 105
10, 266832, Note_on_c, 8, 46, 0
10, 266880, Note_on_c, 8, 55, 105
10, 268080, Note_on_c, 8, 55, 0
10, 268080, Note_on_c, 8, 56, 105
10, 268320, Note_on_c, 8, 56, 0
10, 268320, Note_on_c, 8, 53, 105
10, 268560, Note_on_c, 8, 53, 0
10, 268560, Note_on_c, 8, 50, 105
10, 268752, Note_on_c, 8, 50, 0
10, 268800, Note_on_c, 8, 51, 92
10, 269112, Note_on_c, 8, 51, 0
10, 269280, Note_on_c, 8, 51, 92
10, 269592, Note_on_c, 8, 51, 0
10, 270240, Note_on_c, 8, 51, 92
10, 270552, Note_on_c, 8, 51, 0
10, 271200, Note_on_c, 8, 51, 92
10, 271512, Note_on_c, 8, 51, 0
10, 271680, Note_on_c, 8, 51, 92
10, 271992, Note_on_c, 8, 51, 0
10, 272160, Note_on_c, 8, 51, 92
10, 272472, Note_on_c, 8, 51, 0
10, 273120, Note_on_c, 8, 50, 92
10, 273432, Note_on_c, 8, 50, 0
10, 274080, Note_on_c, 8, 50, 92
10, 274392, Note_on_c, 8, 50, 0
10, 275040, Note_on_c, 8, 50, 92
10, 275352, Note_on_c, 8, 50, 0
10, 275520, Note_on_c, 8, 50, 92
10, 275832, Note_on_c, 8, 50, 0
10, 276000, Note_on_c, 8, 50, 92
10, 276312, Note_on_c, 8, 50, 0
10, 276960, Note_on_c, 8, 48, 92
10, 277272, Note_on_c, 8, 48, 0
10, 277920, Note_on_c, 8, 48, 92
10, 278232, Note_on_c, 8, 48, 0
10, 278880, Note_on_c, 8, 48, 92
10, 279192, Note_on_c, 8, 48, 0
10, 279360, Note_on_c, 8, 48, 92
10, 279672, Note_on_c, 8, 48, 0
10, 279840, Note_on_c, 8, 48, 92
10, 280152, Note_on_c, 8, 48, 0
10, 280800, Note_on_c, 8, 54, 92
10, 281112, Note_on_c, 8, 54, 0
10, 281760, Note_on_c, 8, 54, 92
10, 282072, Note_on_c, 8, 54, 0
10, 282720, Note_on_c, 8, 54, 92
10, 283104, Note_on_c, 8, 54, 0
10, 283200, Note_on_c, 8, 54, 92
10, 283584, Note_on_c, 8, 54, 0
10, 283680, Note_on_c, 8, 54, 92
10, 284064, Note_on_c, 8, 54, 0
10, 284640, Note_on_c, 8, 55, 92
10, 284952, Note_on_c, 8, 55, 0
10, 285600, Note_on_c, 8, 55, 92
10, 285912, Note_on_c, 8, 55, 0
10, 286560, Note_on_c, 8, 55, 92
10, 286872, Note_on_c, 8, 55, 0
10, 287040, Note_on_c, 8, 55, 92
10, 287352, Note_on_c, 8, 55, 0
10, 287520, Note_on_c, 8, 55, 92
10, 287832, Note_on_c, 8, 55, 0
10, 288000, Note_on_c, 8, 55, 92
10, 288240, Note_on_c, 8, 55, 0
10, 288240, Note_on_c, 8, 63, 92
10, 288396, Note_on_c, 8, 63, 0
10, 288480, Note_on_c, 8, 63, 92
10, 288636, Note_on_c, 8, 63, 0
10, 288720, Note_on_c, 8, 63, 92
10, 288876, Note_on_c, 8, 63, 0
10, 288960, Note_on_c, 8, 63, 92
10, 289200, Note_on_c, 8, 63, 0
10, 289200, Note_on_c, 8, 58, 92
10, 289356, Note_on_c, 8, 58, 0
10, 289440, Note_on_c, 8, 58, 92
10, 289596, Note_on_c, 8, 58, 0
10, 289680, Note_on_c, 8, 58, 92
10, 289836, Note_on_c, 8, 58, 0
10, 289920, Note_on_c, 8, 58, 92
10, 290160, Note_on_c, 8, 58, 0
10, 290160, Note_on_c, 8, 55, 92
10, 290316, Note_on_c, 8, 55, 0
10, 290400, Note_on_c, 8, 55, 92
10, 290556, Note_on_c, 8, 55, 0
10, 290640, Note_on_c, 8, 55, 92
10, 290796, Note_on_c, 8, 55, 0
10, 290880, Note_on_c, 8, 55, 92
10, 291120, Note_on_c, 8, 55, 0
10, 291120, Note_on_c, 8, 51, 92
10, 291276, Note_on_c, 8, 51, 0
10, 291360, Note_on_c, 8, 51, 92
10, 291516, Note_on_c, 8, 51, 0
10, 291600, Note_on_c, 8, 49, 92
10, 291756, Note_on_c, 8, 49, 0
10, 291840, Note_on_c, 8, 50, 92
10, 291996, Note_on_c, 8, 50, 0
10, 292080, Note_on_c, 8, 62, 92
10, 292236, Note_on_c, 8, 62, 0
10, 292320, Note_on_c, 8, 60, 92
10, 292476, Note_on_c, 8, 60, 0
10, 292560, Note_on_c, 8, 62, 92
10, 292716, Note_on_c, 8, 62, 0
10, 292800, Note_on_c, 8, 58, 92
10, 292956, Note_on_c, 8, 58, 0
10, 293040, Note_on_c, 8, 62, 92
10, 293196, Note_on_c, 8, 62, 0
10, 293280, Note_on_c, 8, 58, 92
10, 293436, Note_on_c, 8, 58, 0
10, 293520, Note_on_c, 8, 55, 92
10, 293676, Note_on_c, 8, 55, 0
10, 293760, Note_on_c, 8, 62, 92
10, 294048, Note_on_c, 8, 62, 0
10, 294240, Note_on_c, 8, 50, 92
10, 294528, Note_on_c, 8, 50, 0
10, 294720, Note_on_c, 8, 50, 92
10, 295008, Note_on_c, 8, 50, 0
10, 303840, Note_on_c, 8, 43, 112
10, 304320, Note_on_c, 8, 43, 0
10, 304320, Note_on_c, 8, 45, 72
10, 304512, Note_on_c, 8, 45, 0
10, 304800, Note_on_c, 8, 47, 72
10, 304992, Note_on_c, 8, 47, 0
10, 305280, Note_on_c, 8, 48, 72
10, 305472, Note_on_c, 8, 48, 0
10, 305760, Note_on_c, 8, 50, 72
10, 305952, Note_on_c, 8, 50, 0
10, 306240, Note_on_c, 8, 52, 72
10, 306432, Note_on_c, 8, 52, 0
10, 306720, Note_on_c, 8, 54, 72
10, 306912, Note_on_c, 8, 54, 0
10, 307200, Note_on_c, 8, 55, 72
10, 307488, Note_on_c, 8, 55, 0
10, 307680, Note_on_c, 8, 52, 72
10, 308160, Note_on_c, 8, 52, 0
10, 308160, Note_on_c, 8, 55, 72
10, 308640, Note_on_c, 8, 55, 0
10, 308640, Note_on_c, 8, 57, 72
10, 309024, Note_on_c, 8, 57, 0
10, 309120, Note_on_c, 8, 50, 72
10, 309312, Note_on_c, 8, 50, 0
10, 309360, Note_on_c, 8, 50, 72
10, 309552, Note_on_c, 8, 50, 0
10, 309600, Note_on_c, 8, 50, 72
10, 309792, Note_on_c, 8, 50, 0
10, 309840, Note_on_c, 8, 50, 72
10, 310032, Note_on_c, 8, 50, 0
10, 310080, Note_on_c, 8, 50, 72
10, 310272, Note_on_c, 8, 50, 0
10, 310320, Note_on_c, 8, 50, 72
10, 310512, Note_on_c, 8, 50, 0
10, 310560, Note_on_c, 8, 50, 72
10, 310752, Note_on_c, 8, 50, 0
10, 310800, Note_on_c, 8, 50, 72
10, 310992, Note_on_c, 8, 50, 0
10, 311040, Note_on_c, 8, 50, 72
10, 311232, Note_on_c, 8, 50, 0
10, 311280, Note_on_c, 8, 50, 72
10, 311472, Note_on_c, 8, 50, 0
10, 311520, Note_on_c, 8, 50, 72
10, 311712, Note_on_c, 8, 50, 0
10, 311760, Note_on_c, 8, 50, 72
10, 311952, Note_on_c, 8, 50, 0
10, 312000, Note_on_c, 8, 50, 72
10, 312192, Note_on_c, 8, 50, 0
10, 312240, Note_on_c, 8, 50, 72
10, 312432, Note_on_c, 8, 50, 0
10, 312480, Note_on_c, 8, 50, 72
10, 312672, Note_on_c, 8, 50, 0
10, 312720, Note_on_c, 8, 50, 72
10, 312912, Note_on_c, 8, 50, 0
10, 312960, Note_on_c, 8, 50, 72
10, 313152, Note_on_c, 8, 50, 0
10, 313200, Note_on_c, 8, 50, 72
10, 313392, Note_on_c, 8, 50, 0
10, 313440, Note_on_c, 8, 50, 72
10, 313632, Note_on_c, 8, 50, 0
10, 313680, Note_on_c, 8, 50, 72
10, 313872, Note_on_c, 8, 50, 0
10, 313920, Note_on_c, 8, 50, 72
10, 314112, Note_on_c, 8, 50, 0
10, 314160, Note_on_c, 8, 50, 72
10, 314352, Note_on_c, 8, 50, 0
10, 314400, Note_on_c, 8, 50, 72
10, 314592, Note_on_c, 8, 50, 0
10, 314640, Note_on_c, 8, 50, 72
10, 314832, Note_on_c, 8, 50, 0
10, 314880, Note_on_c, 8, 50, 72
10, 315072, Note_on_c, 8, 50, 0
10, 315120, Note_on_c, 8, 50, 72
10, 315312, Note_on_c, 8, 50, 0
10, 315360, Note_on_c, 8, 50, 72
10, 315552, Note_on_c, 8, 50, 0
10, 315600, Note_on_c, 8, 50, 72
10, 315792, Note_on_c, 8, 50, 0
10, 315840, Note_on_c, 8, 50, 72
10, 316032, Note_on_c, 8, 50, 0
10, 316080, Note_on_c, 8, 50, 72
10, 316272, Note_on_c, 8, 50, 0
10, 316320, Note_on_c, 8, 50, 72
10, 316512, Note_on_c, 8, 50, 0
10, 316560, Note_on_c, 8, 50, 72
10, 316752, Note_on_c, 8, 50, 0
10, 316800, Note_on_c, 8, 50, 58
10, 316992, Note_on_c, 8, 50, 0
10, 317040, Note_on_c, 8, 50, 58
10, 317232, Note_on_c, 8, 50, 0
10, 317280, Note_on_c, 8, 50, 58
10, 317472, Note_on_c, 8, 50, 0
10, 317520, Note_on_c, 8, 50, 58
10, 317712, Note_on_c, 8, 50, 0
10, 317760, Note_on_c, 8, 50, 58
10, 318144, Note_on_c, 8, 50, 0
10, 318720, Note_on_c, 8, 51, 58
10, 319680, Note_on_c, 8, 51, 0
10, 319680, Note_on_c, 8, 50, 58
10, 320064, Note_on_c, 8, 50, 0
10, 320640, Note_on_c, 8, 51, 58
10, 321600, Note_on_c, 8, 51, 0
10, 321600, Note_on_c, 8, 50, 58
10, 321984, Note_on_c, 8, 50, 0
10, 326400, Note_on_c, 8, 55, 72
10, 327168, Note_on_c, 8, 55, 0
10, 328320, Note_on_c, 8, 50, 72
10, 328680, Note_on_c, 8, 50, 0
10, 329280, Note_on_c, 8, 55, 72
10, 329640, Note_on_c, 8, 55, 0
10, 330240, Note_on_c, 8, 54, 72
10, 330600, Note_on_c, 8, 54, 0
10, 331200, Note_on_c, 8, 55, 72
10, 331560, Note_on_c, 8, 55, 0
10, 332160, Note_on_c, 8, 50, 72
10, 332544, Note_on_c, 8, 50, 0
10, 334080, Note_on_c, 8, 43, 72
10, 334848, Note_on_c, 8, 43, 0
10, 336000, Note_on_c, 8, 50, 72
10, 336360, Note_on_c, 8, 50, 0
10, 336960, Note_on_c, 8, 52, 72
10, 337320, Note_on_c, 8, 52, 0
10, 337920, Note_on_c, 8, 48, 72
10, 338280, Note_on_c, 8, 48, 0
10, 338880, Note_on_c, 8, 50, 72
10, 339240, Note_on_c, 8, 50, 0
10, 339840, Note_on_c, 8, 53, 72
10, 340800, Note_on_c, 8, 53, 0
10, 340800, Note_on_c, 8, 52, 72
10, 341184, Note_on_c, 8, 52, 0
10, 341760, Note_on_c, 8, 48, 72
10, 342528, Note_on_c, 8, 48, 0
10, 343680, Note_on_c, 8, 50, 72
10, 344064, Note_on_c, 8, 50, 0
10, 344640, Note_on_c, 8, 52, 72
10, 345024, Note_on_c, 8, 52, 0
10, 345600, Note_on_c, 8, 48, 72
10, 345984, Note_on_c, 8, 48, 0
10, 346560, Note_on_c, 8, 50, 72
10, 346944, Note_on_c, 8, 50, 0
10, 347520, Note_on_c, 8, 47, 58
10, 348480, Note_on_c, 8, 47, 0
10, 348480, Note_on_c, 8, 45, 58
10, 349440, Note_on_c, 8, 45, 0
10, 349440, Note_on_c, 8, 43, 58
10, 350400, Note_on_c, 8, 43, 0
10, 350400, Note_on_c, 8, 48, 58
10, 351360, Note_on_c, 8, 48, 0
10, 351360, Note_on_c, 8, 50, 58
10, 352128, Note_on_c, 8, 50, 0
10, 352320, Note_on_c, 8, 38, 58
10, 353088, Note_on_c, 8, 38, 0
10, 353280, Note_on_c, 8, 47, 105
10, 353472, Note_on_c, 8, 47, 0
10, 353520, Note_on_c, 8, 59, 105
10, 353712, Note_on_c, 8, 59, 0
10, 353760, Note_on_c, 8, 59, 105
10, 353952, Note_on_c, 8, 59, 0
10, 354000, Note_on_c, 8, 59, 105
10, 354192, Note_on_c, 8, 59, 0
10, 354240, Note_on_c, 8, 57, 105
10, 354432, Note_on_c, 8, 57, 0
10, 354480, Note_on_c, 8, 57, 105
10, 354672, Note_on_c, 8, 57, 0
10, 354720, Note_on_c, 8, 57, 105
10, 354912, Note_on_c, 8, 57, 0
10, 354960, Note_on_c, 8, 57, 105
10, 355152, Note_on_c, 8, 57, 0
10, 355200, Note_on_c, 8, 55, 105
10, 355392, Note_on_c, 8, 55, 0
10, 355440, Note_on_c, 8, 55, 105
10, 355632, Note_on_c, 8, 55, 0
10, 355680, Note_on_c, 8, 55, 105
10, 355872, Note_on_c, 8, 55, 0
10, 355920, Note_on_c, 8, 55, 105
10, 356112, Note_on_c, 8, 55, 0
10, 356160, Note_on_c, 8, 48, 105
10, 356352, Note_on_c, 8, 48, 0
10, 356400, Note_on_c, 8, 48, 105
10, 356592, Note_on_c, 8, 48, 0
10, 356640, Note_on_c, 8, 48, 105
10, 356832, Note_on_c, 8, 48, 0
10, 356880, Note_on_c, 8, 48, 105
10, 357072, Note_on_c, 8, 48, 0
10, 357120, Note_on_c, 8, 50, 105
10, 357312, Note_on_c, 8, 50, 0
10, 357360, Note_on_c, 8, 50, 105
10, 357552, Note_on_c, 8, 50, 0
10, 357600, Note_on_c, 8, 50, 105
10, 357792, Note_on_c, 8, 50, 0
10, 357840, Note_on_c, 8, 50, 105
10, 358032, Note_on_c, 8, 50, 0
10, 358080, Note_on_c, 8, 50, 105
10, 358272, Note_on_c, 8, 50, 0
10, 358320, Note_on_c, 8, 50, 105
10, 358512, Note_on_c, 8, 50, 0
10, 358560, Note_on_c, 8, 50, 105
10, 358752, Note_on_c, 8, 50, 0
10, 358800, Note_on_c, 8, 50, 105
10, 358992, Note_on_c, 8, 50, 0
10, 359040, Note_on_c, 8, 55, 110
10, 359352, Note_on_c, 8, 55, 0
10, 359520, Note_on_c, 8, 43, 72
10, 359832, Note_on_c, 8, 43, 0
10, 360000, Note_on_c, 8, 47, 72
10, 360312, Note_on_c, 8, 47, 0
10, 360480, Note_on_c, 8, 50, 72
10, 360792, Note_on_c, 8, 50, 0
10, 360960, Note_on_c, 8, 55, 72
10, 361272, Note_on_c, 8, 55, 0
10, 361440, Note_on_c, 8, 43, 72
10, 361752, Note_on_c, 8, 43, 0
10, 363360, Note_on_c, 8, 43, 72
10, 363672, Note_on_c, 8, 43, 0
10, 363840, Note_on_c, 8, 48, 72
10, 364152, Note_on_c, 8, 48, 0
10, 364320, Note_on_c, 8, 52, 72
10, 364632, Note_on_c, 8, 52, 0
10, 364800, Note_on_c, 8, 55, 72
10, 365112, Note_on_c, 8, 55, 0
10, 365280, Note_on_c, 8, 43, 72
10, 365592, Note_on_c, 8, 43, 0
10, 367200, Note_on_c, 8, 43, 72
10, 367512, Note_on_c, 8, 43, 0
10, 367680, Note_on_c, 8, 47, 72
10, 367992, Note_on_c, 8, 47, 0
10, 368160, Note_on_c, 8, 50, 72
10, 368472, Note_on_c, 8, 50, 0
10, 368640, Note_on_c, 8, 55, 72
10, 368952, Note_on_c, 8, 55, 0
10, 369120, Note_on_c, 8, 43, 72
10, 369432, Note_on_c, 8, 43, 0
10, 371760, Note_on_c, 8, 43, 105
10, 371904, Note_on_c, 8, 43, 0
10, 372000, Note_on_c, 8, 47, 105
10, 372144, Note_on_c, 8, 47, 0
10, 372240, Note_on_c, 8, 50, 105
10, 372384, Note_on_c, 8, 50, 0
10, 372480, Note_on_c, 8, 53, 105
10, 372768, Note_on_c, 8, 53, 0
10, 372960, Note_on_c, 8, 53, 105
10, 373248, Note_on_c, 8, 53, 0
10, 373440, Note_on_c, 8, 53, 105
10, 373728, Note_on_c, 8, 53, 0
10, 373920, Note_on_c, 8, 53, 105
10, 374208, Note_on_c, 8, 53, 0
10, 374400, Note_on_c, 8, 44, 105
10, 374784, Note_on_c, 8, 44, 0
10, 383280, Note_on_c, 8, 50, 105
10, 383424, Note_on_c, 8, 50, 0
10, 383520, Note_on_c, 8, 54, 105
10, 383664, Note_on_c, 8, 54, 0
10, 383760, Note_on_c, 8, 57, 105
10, 383904, Note_on_c, 8, 57, 0
10, 384000, Note_on_c, 8, 60, 105
10, 384288, Note_on_c, 8, 60, 0
10, 384480, Note_on_c, 8, 60, 105
10, 384768, Note_on_c, 8, 60, 0
10, 384960, Note_on_c, 8, 60, 105
10, 385248, Note_on_c, 8, 60, 0
10, 385440, Note_on_c, 8, 60, 105
10, 385728, Note_on_c, 8, 60, 0
10, 385920, Note_on_c, 8, 50, 105
10, 386304, Note_on_c, 8, 50, 0
10, 387840, Note_on_c, 8, 55, 72
10, 388608, Note_on_c, 8, 55, 0
10, 389760, Note_on_c, 8, 50, 72
10, 390120, Note_on_c, 8, 50, 0
10, 390720, Note_on_c, 8, 55, 72
10, 391080, Note_on_c, 8, 55, 0
10, 391680, Note_on_c, 8, 54, 72
10, 392040, Note_on_c, 8, 54, 0
10, 392640, Note_on_c, 8, 55, 72
10, 393000, Note_on_c, 8, 55, 0
10, 393600, Note_on_c, 8, 50, 72
10, 393984, Note_on_c, 8, 50, 0
10, 395520, Note_on_c, 8, 55, 72
10, 396288, Note_on_c, 8, 55, 0
10, 397440, Note_on_c, 8, 50, 72
10, 397824, Note_on_c, 8, 50, 0
10, 398400, Note_on_c, 8, 52, 72
10, 398784, Note_on_c, 8, 52, 0
10, 399360, Note_on_c, 8, 48, 72
10, 399744, Note_on_c, 8, 48, 0
10, 400320, Note_on_c, 8, 50, 72
10, 400704, Note_on_c, 8, 50, 0
10, 401280, Note_on_c, 8, 43, 72
10, 401664, Note_on_c, 8, 43, 0
10, 402480, Note_on_c, 8, 50, 72
10, 402636, Note_on_c, 8, 50, 0
10, 402720, Note_on_c, 8, 55, 72
10, 402876, Note_on_c, 8, 55, 0
10, 402960, Note_on_c, 8, 59, 72
10, 403116, Note_on_c, 8, 59, 0
10, 403200, Note_on_c, 8, 62, 72
10, 403512, Note_on_c, 8, 62, 0
10, 403680, Note_on_c, 8, 62, 72
10, 403992, Note_on_c, 8, 62, 0
10, 404160, Note_on_c, 8, 62, 72
10, 404472, Note_on_c, 8, 62, 0
10, 404640, Note_on_c, 8, 62, 72
10, 404952, Note_on_c, 8, 62, 0
10, 405120, Note_on_c, 8, 59, 72
10, 405504, Note_on_c, 8, 59, 0
10, 406320, Note_on_c, 8, 50, 72
10, 406476, Note_on_c, 8, 50, 0
10, 406560, Note_on_c, 8, 55, 72
10, 406716, Note_on_c, 8, 55, 0
10, 406800, Note_on_c, 8, 59, 72
10, 406956, Note_on_c, 8, 59, 0
10, 407040, Note_on_c, 8, 62, 72
10, 407352, Note_on_c, 8, 62, 0
10, 407520, Note_on_c, 8, 62, 72
10, 407832, Note_on_c, 8, 62, 0
10, 408000, Note_on_c, 8, 62, 72
10, 408312, Note_on_c, 8, 62, 0
10, 408480, Note_on_c, 8, 62, 72
10, 408792, Note_on_c, 8, 62, 0
10, 408960, Note_on_c, 8, 59, 72
10, 409344, Note_on_c, 8, 59, 0
10, 410160, Note_on_c, 8, 50, 72
10, 410316, Note_on_c, 8, 50, 0
10, 410400, Note_on_c, 8, 55, 72
10, 410556, Note_on_c, 8, 55, 0
10, 410640, Note_on_c, 8, 59, 72
10, 410796, Note_on_c, 8, 59, 0
10, 410880, Note_on_c, 8, 62, 72
10, 411192, Note_on_c, 8, 62, 0
10, 411360, Note_on_c, 8, 62, 72
10, 411672, Note_on_c, 8, 62, 0
10, 411840, Note_on_c, 8, 63, 72
10, 412152, Note_on_c, 8, 63, 0
10, 412320, Note_on_c, 8, 63, 72
10, 412632, Note_on_c, 8, 63, 0
10, 412800, Note_on_c, 8, 64, 72
10, 413760, Note_on_c, 8, 64, 0
10, 413760, Note_on_c, 8, 60, 72
10, 414720, Note_on_c, 8, 60, 0
10, 414720, Note_on_c, 8, 62, 72
10, 415488, Note_on_c, 8, 62, 0
10, 415680, Note_on_c, 8, 50, 72
10, 416448, Note_on_c, 8, 50, 0
10, 416640, Note_on_c, 8, 55, 92
10, 416832, Note_on_c, 8, 55, 0
10, 416880, Note_on_c, 8, 62, 116
10, 417072, Note_on_c, 8, 62, 0
10, 417120, Note_on_c, 8, 62, 116
10, 417312, Note_on_c, 8, 62, 0
10, 417360, Note_on_c, 8, 62, 116
10, 417552, Note_on_c, 8, 62, 0
10, 417600, Note_on_c, 8, 60, 116
10, 417792, Note_on_c, 8, 60, 0
10, 417840, Note_on_c, 8, 62, 105
10, 418032, Note_on_c, 8, 62, 0
10, 418080, Note_on_c, 8, 59, 105
10, 418272, Note_on_c, 8, 59, 0
10, 418320, Note_on_c, 8, 62, 105
10, 418512, Note_on_c, 8, 62, 0
10, 418560, Note_on_c, 8, 57, 105
10, 418752, Note_on_c, 8, 57, 0
10, 418800, Note_on_c, 8, 62, 105
10, 418992, Note_on_c, 8, 62, 0
10, 419040, Note_on_c, 8, 55, 105
10, 419232, Note_on_c, 8, 55, 0
10, 419280, Note_on_c, 8, 62, 105
10, 419472, Note_on_c, 8, 62, 0
10, 419520, Note_on_c, 8, 54, 105
10, 419712, Note_on_c, 8, 54, 0
10, 419760, Note_on_c, 8, 62, 105
10, 419952, Note_on_c, 8, 62, 0
10, 420000, Note_on_c, 8, 50, 105
10, 420192, Note_on_c, 8, 50, 0
10, 420240, Note_on_c, 8, 62, 105
10, 420432, Note_on_c, 8, 62, 0
10, 420480, Note_on_c, 8, 55, 105
10, 420672, Note_on_c, 8, 55, 0
10, 420720, Note_on_c, 8, 62, 105
10, 420912, Note_on_c, 8, 62, 0
10, 420960, Note_on_c, 8, 62, 105
10, 421152, Note_on_c, 8, 62, 0
10, 421200, Note_on_c, 8, 62, 105
10, 421392, Note_on_c, 8, 62, 0
10, 421440, Note_on_c, 8, 60, 105
10, 421632, Note_on_c, 8, 60, 0
10, 421680, Note_on_c, 8, 62, 105
10, 421872, Note_on_c, 8, 62, 0
10, 421920, Note_on_c, 8, 59, 105
10, 422112, Note_on_c, 8, 59, 0
10, 422160, Note_on_c, 8, 62, 105
10, 422352, Note_on_c, 8, 62, 0
10, 422400, Note_on_c, 8, 57, 105
10, 422592, Note_on_c, 8, 57, 0
10, 422640, Note_on_c, 8, 62, 105
10, 422832, Note_on_c, 8, 62, 0
10, 422880, Note_on_c, 8, 55, 105
10, 423072, Note_on_c, 8, 55, 0
10, 423120, Note_on_c, 8, 62, 105
10, 423312, Note_on_c, 8, 62, 0
10, 423360, Note_on_c, 8, 54, 105
10, 423552, Note_on_c, 8, 54, 0
10, 423600, Note_on_c, 8, 62, 105
10, 423792, Note_on_c, 8, 62, 0
10, 423840, Note_on_c, 8, 50, 105
10, 424032, Note_on_c, 8, 50, 0
10, 424080, Note_on_c, 8, 62, 105
10, 424272, Note_on_c, 8, 62, 0
10, 424320, Note_on_c, 8, 55, 105
10, 424512, Note_on_c, 8, 55, 0
10, 424560, Note_on_c, 8, 62, 105
10, 424752, Note_on_c, 8, 62, 0
10, 424800, Note_on_c, 8, 62, 105
10, 424992, Note_on_c, 8, 62, 0
10, 425040, Note_on_c, 8, 62, 105
10, 425232, Note_on_c, 8, 62, 0
10, 425280, Note_on_c, 8, 60, 105
10, 425472, Note_on_c, 8, 60, 0
10, 425520, Note_on_c, 8, 62, 105
10, 425712, Note_on_c, 8, 62, 0
10, 425760, Note_on_c, 8, 59, 105
10, 425952, Note_on_c, 8, 59, 0
10, 426000, Note_on_c, 8, 62, 105
10, 426192, Note_on_c, 8, 62, 0
10, 426240, Note_on_c, 8, 57, 105
10, 426432, Note_on_c, 8, 57, 0
10, 426480, Note_on_c, 8, 62, 105
10, 426672, Note_on_c, 8, 62, 0
10, 426720, Note_on_c, 8, 55, 105
10, 426912, Note_on_c, 8, 55, 0
10, 426960, Note_on_c, 8, 62, 105
10, 427152, Note_on_c, 8, 62, 0
10, 427200, Note_on_c, 8, 54, 105
10, 427392, Note_on_c, 8, 54, 0
10, 427440, Note_on_c, 8, 62, 105
10, 427632, Note_on_c, 8, 62, 0
10, 427680, Note_on_c, 8, 50, 105
10, 427872, Note_on_c, 8, 50, 0
10, 427920, Note_on_c, 8, 62, 105
10, 428112, Note_on_c, 8, 62, 0
10, 428160, Note_on_c, 8, 55, 105
10, 428352, Note_on_c, 8, 55, 0
10, 428400, Note_on_c, 8, 55, 105
10, 428592, Note_on_c, 8, 55, 0
10, 428640, Note_on_c, 8, 55, 105
10, 428832, Note_on_c, 8, 55, 0
10, 428880, Note_on_c, 8, 55, 105
10, 429072, Note_on_c, 8, 55, 0
10, 429120, Note_on_c, 8, 55, 105
10, 429312, Note_on_c, 8, 55, 0
10, 429360, Note_on_c, 8, 55, 105
10, 429552, Note_on_c, 8, 55, 0
10, 429600, Note_on_c, 8, 55, 105
10, 429792, Note_on_c, 8, 55, 0
10, 429840, Note_on_c, 8, 55, 105
10, 430032, Note_on_c, 8, 55, 0
10, 430080, Note_on_c, 8, 48, 105
10, 430272, Note_on_c, 8, 48, 0
10, 430320, Note_on_c, 8, 48, 105
10, 430512, Note_on_c, 8, 48, 0
10, 430560, Note_on_c, 8, 48, 105
10, 430752, Note_on_c, 8, 48, 0
10, 430800, Note_on_c, 8, 48, 105
10, 430992, Note_on_c, 8, 48, 0
10, 431040, Note_on_c, 8, 50, 105
10, 431232, Note_on_c, 8, 50, 0
10, 431280, Note_on_c, 8, 50, 105
10, 431472, Note_on_c, 8, 50, 0
10, 431520, Note_on_c, 8, 50, 105
10, 431712, Note_on_c, 8, 50, 0
10, 431760, Note_on_c, 8, 50, 105
10, 431952, Note_on_c, 8, 50, 0
10, 432000, Note_on_c, 8, 43, 105
10, 432384, Note_on_c, 8, 43, 0
10, 435120, Note_on_c, 8, 43, 116
10, 435276, Note_on_c, 8, 43, 0
10, 435360, Note_on_c, 8, 47, 116
10, 435516, Note_on_c, 8, 47, 0
10, 435600, Note_on_c, 8, 50, 116
10, 435756, Note_on_c, 8, 50, 0
10, 435840, Note_on_c, 8, 55, 116
10, 436152, Note_on_c, 8, 55, 0
10, 436320, Note_on_c, 8, 55, 116
10, 436632, Note_on_c, 8, 55, 0
10, 436800, Note_on_c, 8, 55, 116
10, 437112, Note_on_c, 8, 55, 0
10, 437280, Note_on_c, 8, 55, 116
10, 437592, Note_on_c, 8, 55, 0
10, 437760, Note_on_c, 8, 43, 116
10, 438144, Note_on_c, 8, 43, 0
10, 438960, Note_on_c, 8, 43, 116
10, 439116, Note_on_c, 8, 43, 0
10, 439200, Note_on_c, 8, 47, 116
10, 439356, Note_on_c, 8, 47, 0
10, 439440, Note_on_c, 8, 50, 116
10, 439596, Note_on_c, 8, 50, 0
10, 439680, Note_on_c, 8, 55, 116
10, 439992, Note_on_c, 8, 55, 0
10, 440160, Note_on_c, 8, 55, 116
10, 440472, Note_on_c, 8, 55, 0
10, 440640, Note_on_c, 8, 55, 116
10, 440952, Note_on_c, 8, 55, 0
10, 441120, Note_on_c, 8, 55, 116
10, 441432, Note_on_c, 8, 55, 0
10, 441600, Note_on_c, 8, 43, 116
10, 441984, Note_on_c, 8, 43, 0
10, 442800, Note_on_c, 8, 43, 116
10, 442956, Note_on_c, 8, 43, 0
10, 443040, Note_on_c, 8, 47, 116
10, 443196, Note_on_c, 8, 47, 0
10, 443280, Note_on_c, 8, 50, 116
10, 443436, Note_on_c, 8, 50, 0
10, 443520, Note_on_c, 8, 55, 116
10, 443880, Note_on_c, 8, 55, 0
10, 444000, Note_on_c, 8, 62, 116
10, 444360, Note_on_c, 8, 62, 0
10, 444480, Note_on_c, 8, 59, 116
10, 444840, Note_on_c, 8, 59, 0
10, 444960, Note_on_c, 8, 55, 116
10, 445320, Note_on_c, 8, 55, 0
10, 445440, Note_on_c, 8, 50, 116
10, 445800, Note_on_c, 8, 50, 0
10, 445920, Note_on_c, 8, 55, 116
10, 446280, Note_on_c, 8, 55, 0
10, 446400, Note_on_c, 8, 47, 116
10, 446760, Note_on_c, 8, 47, 0
10, 446880, Note_on_c, 8, 50, 116
10, 447240, Note_on_c, 8, 50, 0
10, 447360, Note_on_c, 8, 43, 116
10, 447744, Note_on_c, 8, 43, 0
10, 448320, Note_on_c, 8, 55, 116
10, 448704, Note_on_c, 8, 55, 0
10, 449280, Note_on_c, 8, 43, 116
10, 450048, Note_on_c, 8, 43, 0
10, 450048, End_track
11, 0, Start_track
11, 0, Program_c, 10, 43
11, 0, Control_c, 10, 7, 100
11, 0, Control_c, 10, 91, 95
11, 1920, Note_on_c, 10, 43, 72
11, 2688, Note_on_c, 10, 43, 0
11, 3840, Note_on_c, 10, 38, 72
11, 4224, Note_on_c, 10, 38, 0
11, 4800, Note_on_c, 10, 43, 72
11, 5184, Note_on_c, 10, 43, 0
11, 5760, Note_on_c, 10, 42, 72
11, 6144, Note_on_c, 10, 42, 0
11, 6720, Note_on_c, 10, 43, 72
11, 7104, Note_on_c, 10, 43, 0
11, 7680, Note_on_c, 10, 38, 72
11, 8064, Note_on_c, 10, 38, 0
11, 9600, Note_on_c, 10, 43, 72
11, 10368, Note_on_c, 10, 43, 0
11, 11520, Note_on_c, 10, 38, 72
11, 11904, Note_on_c, 10, 38, 0
11, 12480, Note_on_c, 10, 40, 72
11, 12864, Note_on_c, 10, 40, 0
11, 13440, Note_on_c, 10, 36, 72
11, 13824, Note_on_c, 10, 36, 0
11, 14400, Note_on_c, 10, 38, 72
11, 14784, Note_on_c, 10, 38, 0
11, 15360, Note_on_c, 10, 43, 72
11, 15744, Note_on_c, 10, 43, 0
11, 15840, Note_on_c, 10, 43, 72
11, 16224, Note_on_c, 10, 43, 0
11, 16320, Note_on_c, 10, 35, 72
11, 16704, Note_on_c, 10, 35, 0
11, 16800, Note_on_c, 10, 38, 72
11, 17184, Note_on_c, 10, 38, 0
11, 17280, Note_on_c, 10, 43, 72
11, 18048, Note_on_c, 10, 43, 0
11, 19200, Note_on_c, 10, 38, 72
11, 19584, Note_on_c, 10, 38, 0
11, 20160, Note_on_c, 10, 43, 72
11, 20544, Note_on_c, 10, 43, 0
11, 21120, Note_on_c, 10, 42, 72
11, 21504, Note_on_c, 10, 42, 0
11, 22080, Note_on_c, 10, 43, 72
11, 22464, Note_on_c, 10, 43, 0
11, 23040, Note_on_c, 10, 38, 72
11, 23424, Note_on_c, 10, 38, 0
11, 24960, Note_on_c, 10, 43, 72
11, 25728, Note_on_c, 10, 43, 0
11, 26880, Note_on_c, 10, 38, 72
11, 27264, Note_on_c, 10, 38, 0
11, 27840, Note_on_c, 10, 40, 72
11, 28224, Note_on_c, 10, 40, 0
11, 28800, Note_on_c, 10, 36, 72
11, 29184, Note_on_c, 10, 36, 0
11, 29760, Note_on_c, 10, 38, 58
11, 30144, Note_on_c, 10, 38, 0
11, 30720, Note_on_c, 10, 31, 127
11, 30912, Note_on_c, 10, 31, 0
11, 30960, Note_on_c, 10, 43, 116
11, 31152, Note_on_c, 10, 43, 0
11, 31200, Note_on_c, 10, 43, 116
11, 31392, Note_on_c, 10, 43, 0
11, 31440, Note_on_c, 10, 43, 116
11, 31632, Note_on_c, 10, 43, 0
11, 31680, Note_on_c, 10, 43, 116
11, 31872, Note_on_c, 10, 43, 0
11, 31920, Note_on_c, 10, 43, 116
11, 32112, Note_on_c, 10, 43, 0
11, 32160, Note_on_c, 10, 43, 116
11, 32352, Note_on_c, 10, 43, 0
11, 32400, Note_on_c, 10, 43, 116
11, 32592, Note_on_c, 10, 43, 0
11, 32640, Note_on_c, 10, 31, 116
11, 32832, Note_on_c, 10, 31, 0
11, 32880, Note_on_c, 10, 43, 116
11, 33072, Note_on_c, 10, 43, 0
11, 33120, Note_on_c, 10, 43, 116
11, 33312, Note_on_c, 10, 43, 0
11, 33360, Note_on_c, 10, 43, 116
11, 33552, Note_on_c, 10, 43, 0
11, 33600, Note_on_c, 10, 43, 116
11, 33792, Note_on_c, 10, 43, 0
11, 33840, Note_on_c, 10, 43, 116
11, 34032, Note_on_c, 10, 43, 0
11, 34080, Note_on_c, 10, 43, 116
11, 34272, Note_on_c, 10, 43, 0
11, 34320, Note_on_c, 10, 43, 116
11, 34512, Note_on_c, 10, 43, 0
11, 34560, Note_on_c, 10, 43, 116
11, 35712, Note_on_c, 10, 43, 0
11, 35760, Note_on_c, 10, 45, 116
11, 35952, Note_on_c, 10, 45, 0
11, 36000, Note_on_c, 10, 42, 116
11, 36192, Note_on_c, 10, 42, 0
11, 36240, Note_on_c, 10, 38, 116
11, 36432, Note_on_c, 10, 38, 0
11, 36480, Note_on_c, 10, 47, 116
11, 37632, Note_on_c, 10, 47, 0
11, 37680, Note_on_c, 10, 48, 116
11, 37872, Note_on_c, 10, 48, 0
11, 37920, Note_on_c, 10, 45, 116
11, 38112, Note_on_c, 10, 45, 0
11, 38160, Note_on_c, 10, 42, 116
11, 38352, Note_on_c, 10, 42, 0
11, 38400, Note_on_c, 10, 43, 116
11, 38688, Note_on_c, 10, 43, 0
11, 38880, Note_on_c, 10, 47, 116
11, 39024, Note_on_c, 10, 47, 0
11, 39120, Note_on_c, 10, 47, 116
11, 39264, Note_on_c, 10, 47, 0
11, 39360, Note_on_c, 10, 47, 116
11, 39600, Note_on_c, 10, 47, 0
11, 39600, Note_on_c, 10, 43, 116
11, 39792, Note_on_c, 10, 43, 0
11, 39840, Note_on_c, 10, 43, 116
11, 40032, Note_on_c, 10, 43, 0
11, 40080, Note_on_c, 10, 43, 116
11, 40272, Note_on_c, 10, 43, 0
11, 40320, Note_on_c, 10, 43, 116
11, 40560, Note_on_c, 10, 43, 0
11, 40560, Note_on_c, 10, 38, 116
11, 40752, Note_on_c, 10, 38, 0
11, 40800, Note_on_c, 10, 38, 116
11, 40992, Note_on_c, 10, 38, 0
11, 41040, Note_on_c, 10, 38, 116
11, 41232, Note_on_c, 10, 38, 0
11, 41280, Note_on_c, 10, 38, 116
11, 41520, Note_on_c, 10, 38, 0
11, 41520, Note_on_c, 10, 35, 116
11, 41712, Note_on_c, 10, 35, 0
11, 41760, Note_on_c, 10, 35, 116
11, 41952, Note_on_c, 10, 35, 0
11, 42000, Note_on_c, 10, 31, 116
11, 42192, Note_on_c, 10, 31, 0
11, 42240, Note_on_c, 10, 38, 116
11, 42432, Note_on_c, 10, 38, 0
11, 42480, Note_on_c, 10, 50, 116
11, 42672, Note_on_c, 10, 50, 0
11, 42720, Note_on_c, 10, 48, 116
11, 42912, Note_on_c, 10, 48, 0
11, 42960, Note_on_c, 10, 50, 116
11, 43152, Note_on_c, 10, 50, 0
11, 43200, Note_on_c, 10, 47, 116
11, 43392, Note_on_c, 10, 47, 0
11, 43440, Note_on_c, 10, 50, 116
11, 43632, Note_on_c, 10, 50, 0
11, 43680, Note_on_c, 10, 47, 116
11, 43872, Note_on_c, 10, 47, 0
11, 43920, Note_on_c, 10, 43, 116
11, 44112, Note_on_c, 10, 43, 0
11, 44160, Note_on_c, 10, 38, 105
11, 44544, Note_on_c, 10, 38, 0
11, 44640, Note_on_c, 10, 38, 105
11, 45024, Note_on_c, 10, 38, 0
11, 45120, Note_on_c, 10, 38, 105
11, 45504, Note_on_c, 10, 38, 0
11, 54240, Note_on_c, 10, 38, 92
11, 54720, Note_on_c, 10, 38, 0
11, 54720, Note_on_c, 10, 40, 72
11, 54912, Note_on_c, 10, 40, 0
11, 55200, Note_on_c, 10, 42, 72
11, 55392, Note_on_c, 10, 42, 0
11, 55680, Note_on_c, 10, 43, 72
11, 55872, Note_on_c, 10, 43, 0
11, 56160, Note_on_c, 10, 45, 72
11, 56352, Note_on_c, 10, 45, 0
11, 56640, Note_on_c, 10, 47, 72
11, 56832, Note_on_c, 10, 47, 0
11, 57120, Note_on_c, 10, 49, 72
11, 57312, Note_on_c, 10, 49, 0
11, 57600, Note_on_c, 10, 50, 72
11, 57984, Note_on_c, 10, 50, 0
11, 58080, Note_on_c, 10, 38, 72
11, 58464, Note_on_c, 10, 38, 0
11, 58560, Note_on_c, 10, 35, 72
11, 58944, Note_on_c, 10, 35, 0
11, 59040, Note_on_c, 10, 40, 72
11, 59424, Note_on_c, 10, 40, 0
11, 59520, Note_on_c, 10, 33, 72
11, 59700, Note_on_c, 10, 33, 0
11, 59760, Note_on_c, 10, 45, 72
11, 59940, Note_on_c, 10, 45, 0
11, 60000, Note_on_c, 10, 45, 72
11, 60180, Note_on_c, 10, 45, 0
11, 60240, Note_on_c, 10, 45, 72
11, 60420, Note_on_c, 10, 45, 0
11, 60480, Note_on_c, 10, 45, 72
11, 60660, Note_on_c, 10, 45, 0
11, 60720, Note_on_c, 10, 45, 72
11, 60900, Note_on_c, 10, 45, 0
11, 60960, Note_on_c, 10, 45, 72
11, 61140, Note_on_c, 10, 45, 0
11, 61200, Note_on_c, 10, 45, 72
11, 61380, Note_on_c, 10, 45, 0
11, 61440, Note_on_c, 10, 33, 72
11, 61620, Note_on_c, 10, 33, 0
11, 61680, Note_on_c, 10, 45, 72
11, 61860, Note_on_c, 10, 45, 0
11, 61920, Note_on_c, 10, 45, 72
11, 62100, Note_on_c, 10, 45, 0
11, 62160, Note_on_c, 10, 45, 72
11, 62340, Note_on_c, 10, 45, 0
11, 62400, Note_on_c, 10, 45, 72
11, 62580, Note_on_c, 10, 45, 0
11, 62640, Note_on_c, 10, 45, 72
11, 62820, Note_on_c, 10, 45, 0
11, 62880, Note_on_c, 10, 45, 72
11, 63060, Note_on_c, 10, 45, 0
11, 63120, Note_on_c, 10, 45, 72
11, 63300, Note_on_c, 10, 45, 0
11, 63360, Note_on_c, 10, 33, 72
11, 63540, Note_on_c, 10, 33, 0
11, 63600, Note_on_c, 10, 45, 72
11, 63780, Note_on_c, 10, 45, 0
11, 63840, Note_on_c, 10, 45, 72
11, 64020, Note_on_c, 10, 45, 0
11, 64080, Note_on_c, 10, 45, 72
11, 64260, Note_on_c, 10, 45, 0
11, 64320, Note_on_c, 10, 45, 72
11, 64500, Note_on_c, 10, 45, 0
11, 64560, Note_on_c, 10, 45, 72
11, 64740, Note_on_c, 10, 45, 0
11, 64800, Note_on_c, 10, 45, 72
11, 64980, Note_on_c, 10, 45, 0
11, 65040, Note_on_c, 10, 45, 72
11, 65220, Note_on_c, 10, 45, 0
11, 65280, Note_on_c, 10, 33, 72
11, 65460, Note_on_c, 10, 33, 0
11, 65520, Note_on_c, 10, 45, 72
11, 65700, Note_on_c, 10, 45, 0
11, 65760, Note_on_c, 10, 45, 72
11, 65940, Note_on_c, 10, 45, 0
11, 66000, Note_on_c, 10, 45, 72
11, 66180, Note_on_c, 10, 45, 0
11, 66240, Note_on_c, 10, 45, 72
11, 66420, Note_on_c, 10, 45, 0
11, 66480, Note_on_c, 10, 45, 72
11, 66660, Note_on_c, 10, 45, 0
11, 66720, Note_on_c, 10, 45, 72
11, 66900, Note_on_c, 10, 45, 0
11, 66960, Note_on_c, 10, 45, 72
11, 67140, Note_on_c, 10, 45, 0
11, 67200, Note_on_c, 10, 33, 72
11, 67380, Note_on_c, 10, 33, 0
11, 67440, Note_on_c, 10, 45, 72
11, 67620, Note_on_c, 10, 45, 0
11, 67680, Note_on_c, 10, 45, 72
11, 67860, Note_on_c, 10, 45, 0
11, 67920, Note_on_c, 10, 45, 72
11, 68100, Note_on_c, 10, 45, 0
11, 68160, Note_on_c, 10, 45, 72
11, 68544, Note_on_c, 10, 45, 0
11, 69120, Note_on_c, 10, 46, 72
11, 70080, Note_on_c, 10, 46, 0
11, 70080, Note_on_c, 10, 45, 72
11, 70464, Note_on_c, 10, 45, 0
11, 71040, Note_on_c, 10, 46, 72
11, 72000, Note_on_c, 10, 46, 0
11, 72000, Note_on_c, 10, 45, 72
11, 72384, Note_on_c, 10, 45, 0
11, 76800, Note_on_c, 10, 38, 72
11, 77568, Note_on_c, 10, 38, 0
11, 78720, Note_on_c, 10, 45, 72
11, 79080, Note_on_c, 10, 45, 0
11, 79680, Note_on_c, 10, 50, 72
11, 80040, Note_on_c, 10, 50, 0
11, 80640, Note_on_c, 10, 49, 72
11, 81000, Note_on_c, 10, 49, 0
11, 81600, Note_on_c, 10, 50, 72
11, 81960, Note_on_c, 10, 50, 0
11, 82560, Note_on_c, 10, 45, 72
11, 82920, Note_on_c, 10, 45, 0
11, 84480, Note_on_c, 10, 38, 72
11, 85248, Note_on_c, 10, 38, 0
11, 86400, Note_on_c, 10, 45, 72
11, 86760, Note_on_c, 10, 45, 0
11, 87360, Note_on_c, 10, 47, 72
11, 87720, Note_on_c, 10, 47, 0
11, 88320, Note_on_c, 10, 43, 72
11, 88680, Note_on_c, 10, 43, 0
11, 89280, Note_on_c, 10, 45, 72
11, 89640, Note_on_c, 10, 45, 0
11, 90240, Note_on_c, 10, 48, 72
11, 91200, Note_on_c, 10, 48, 0
11, 91200, Note_on_c, 10, 47, 72
11, 91584, Note_on_c, 10, 47, 0
11, 92160, Note_on_c, 10, 43, 72
11, 92928, Note_on_c, 10, 43, 0
11, 94080, Note_on_c, 10, 45, 72
11, 94440, Note_on_c, 10, 45, 0
11, 95040, Note_on_c, 10, 47, 72
11, 95400, Note_on_c, 10, 47, 0
11, 96000, Note_on_c, 10, 43, 72
11, 96384, Note_on_c, 10, 43, 0
11, 96960, Note_on_c, 10, 45, 72
11, 97344, Note_on_c, 10, 45, 0
11, 97920, Note_on_c, 10, 42, 72
11, 98880, Note_on_c, 10, 42, 0
11, 98880, Note_on_c, 10, 40, 72
11, 99840, Note_on_c, 10, 40, 0
11, 99840, Note_on_c, 10, 38, 72
11, 100800, Note_on_c, 10, 38, 0
11, 100800, Note_on_c, 10, 43, 72
11, 101568, Note_on_c, 10, 43, 0
11, 101760, Note_on_c, 10, 45, 58
11, 102720, Note_on_c, 10, 45, 0
11, 102720, Note_on_c, 10, 33, 58
11, 103488, Note_on_c, 10, 33, 0
11, 103680, Note_on_c, 10, 42, 127
11, 103824, Note_on_c, 10, 42, 0
11, 103920, Note_on_c, 10, 42, 116
11, 104112, Note_on_c, 10, 42, 0
11, 104160, Note_on_c, 10, 42, 116
11, 104352, Note_on_c, 10, 42, 0
11, 104400, Note_on_c, 10, 42, 116
11, 104592, Note_on_c, 10, 42, 0
11, 104640, Note_on_c, 10, 40, 116
11, 104832, Note_on_c, 10, 40, 0
11, 104880, Note_on_c, 10, 40, 116
11, 105072, Note_on_c, 10, 40, 0
11, 105120, Note_on_c, 10, 40, 116
11, 105312, Note_on_c, 10, 40, 0
11, 105360, Note_on_c, 10, 40, 116
11, 105552, Note_on_c, 10, 40, 0
11, 105600, Note_on_c, 10, 38, 116
11, 105792, Note_on_c, 10, 38, 0
11, 105840, Note_on_c, 10, 38, 116
11, 106032, Note_on_c, 10, 38, 0
11, 106080, Note_on_c, 10, 38, 116
11, 106272, Note_on_c, 10, 38, 0
11, 106320, Note_on_c, 10, 38, 116
11, 106512, Note_on_c, 10, 38, 0
11, 106560, Note_on_c, 10, 43, 116
11, 106752, Note_on_c, 10, 43, 0
11, 106800, Note_on_c, 10, 43, 116
11, 106992, Note_on_c, 10, 43, 0
11, 107040, Note_on_c, 10, 43, 116
11, 107232, Note_on_c, 10, 43, 0
11, 107280, Note_on_c, 10, 43, 116
11, 107472, Note_on_c, 10, 43, 0
11, 107520, Note_on_c, 10, 45, 116
11, 107712, Note_on_c, 10, 45, 0
11, 107760, Note_on_c, 10, 45, 116
11, 107952, Note_on_c, 10, 45, 0
11, 108000, Note_on_c, 10, 45, 116
11, 108192, Note_on_c, 10, 45, 0
11, 108240, Note_on_c, 10, 45, 116
11, 108432, Note_on_c, 10, 45, 0
11, 108480, Note_on_c, 10, 33, 116
11, 108672, Note_on_c, 10, 33, 0
11, 108720, Note_on_c, 10, 33, 116
11, 108912, Note_on_c, 10, 33, 0
11, 108960, Note_on_c, 10, 33, 116
11, 109152, Note_on_c, 10, 33, 0
11, 109200, Note_on_c, 10, 33, 116
11, 109392, Note_on_c, 10, 33, 0
11, 109440, Note_on_c, 10, 38, 110
11, 109824, Note_on_c, 10, 38, 0
11, 109920, Note_on_c, 10, 38, 72
11, 110304, Note_on_c, 10, 38, 0
11, 110400, Note_on_c, 10, 42, 72
11, 110784, Note_on_c, 10, 42, 0
11, 110880, Note_on_c, 10, 45, 72
11, 111264, Note_on_c, 10, 45, 0
11, 111360, Note_on_c, 10, 50, 72
11, 111744, Note_on_c, 10, 50, 0
11, 111840, Note_on_c, 10, 38, 72
11, 112224, Note_on_c, 10, 38, 0
11, 113760, Note_on_c, 10, 38, 72
11, 114144, Note_on_c, 10, 38, 0
11, 114240, Note_on_c, 10, 43, 72
11, 114624, Note_on_c, 10, 43, 0
11, 114720, Note_on_c, 10, 47, 72
11, 115104, Note_on_c, 10, 47, 0
11, 115200, Note_on_c, 10, 50, 72
11, 115584, Note_on_c, 10, 50, 0
11, 115680, Note_on_c, 10, 38, 72
11, 116064, Note_on_c, 10, 38, 0
11, 117600, Note_on_c, 10, 38, 72
11, 117984, Note_on_c, 10, 38, 0
11, 118080, Note_on_c, 10, 42, 72
11, 118464, Note_on_c, 10, 42, 0
11, 118560, Note_on_c, 10, 45, 72
11, 118944, Note_on_c, 10, 45, 0
11, 119040, Note_on_c, 10, 50, 72
11, 119424, Note_on_c, 10, 50, 0
11, 119520, Note_on_c, 10, 38, 72
11, 119904, Note_on_c, 10, 38, 0
11, 122880, Note_on_c, 10, 43, 72
11, 123648, Note_on_c, 10, 43, 0
11, 124800, Note_on_c, 10, 38, 72
11, 125184, Note_on_c, 10, 38, 0
11, 125760, Note_on_c, 10, 43, 72
11, 126144, Note_on_c, 10, 43, 0
11, 126720, Note_on_c, 10, 42, 72
11, 127104, Note_on_c, 10, 42, 0
11, 127680, Note_on_c, 10, 43, 72
11, 128064, Note_on_c, 10, 43, 0
11, 128640, Note_on_c, 10, 38, 72
11, 129024, Note_on_c, 10, 38, 0
11, 130560, Note_on_c, 10, 43, 72
11, 131328, Note_on_c, 10, 43, 0
11, 132480, Note_on_c, 10, 38, 72
11, 132864, Note_on_c, 10, 38, 0
11, 133440, Note_on_c, 10, 40, 72
11, 133824, Note_on_c, 10, 40, 0
11, 134400, Note_on_c, 10, 36, 72
11, 134784, Note_on_c, 10, 36, 0
11, 135360, Note_on_c, 10, 38, 72
11, 135744, Note_on_c, 10, 38, 0
11, 136320, Note_on_c, 10, 43, 72
11, 136704, Note_on_c, 10, 43, 0
11, 136800, Note_on_c, 10, 43, 72
11, 137184, Note_on_c, 10, 43, 0
11, 137280, Note_on_c, 10, 35, 72
11, 137664, Note_on_c, 10, 35, 0
11, 137760, Note_on_c, 10, 38, 72
11, 138144, Note_on_c, 10, 38, 0
11, 138240, Note_on_c, 10, 43, 72
11, 139008, Note_on_c, 10, 43, 0
11, 140160, Note_on_c, 10, 38, 72
11, 140544, Note_on_c, 10, 38, 0
11, 141120, Note_on_c, 10, 43, 72
11, 141504, Note_on_c, 10, 43, 0
11, 142080, Note_on_c, 10, 42, 72
11, 142464, Note_on_c, 10, 42, 0
11, 143040, Note_on_c, 10, 43, 72
11, 143424, Note_on_c, 10, 43, 0
11, 144000, Note_on_c, 10, 38, 72
11, 144384, Note_on_c, 10, 38, 0
11, 145920, Note_on_c, 10, 43, 72
11, 146688, Note_on_c, 10, 43, 0
11, 147840, Note_on_c, 10, 38, 72
11, 148224, Note_on_c, 10, 38, 0
11, 148800, Note_on_c, 10, 40, 72
11, 149184, Note_on_c, 10, 40, 0
11, 149760, Note_on_c, 10, 36, 72
11, 150144, Note_on_c, 10, 36, 0
11, 150720, Note_on_c, 10, 38, 58
11, 151104, Note_on_c, 10, 38, 0
11, 151680, Note_on_c, 10, 31, 127
11, 151872, Note_on_c, 10, 31, 0
11, 151920, Note_on_c, 10, 43, 116
11, 152112, Note_on_c, 10, 43, 0
11, 152160, Note_on_c, 10, 43, 116
11, 152352, Note_on_c, 10, 43, 0
11, 152400, Note_on_c, 10, 43, 116
11, 152592, Note_on_c, 10, 43, 0
11, 152640, Note_on_c, 10, 43, 116
11, 152832, Note_on_c, 10, 43, 0
11, 152880, Note_on_c, 10, 43, 116
11, 153072, Note_on_c, 10, 43, 0
11, 153120, Note_on_c, 10, 43, 116
11, 153312, Note_on_c, 10, 43, 0
11, 153360, Note_on_c, 10, 43, 116
11, 153552, Note_on_c, 10, 43, 0
11, 153600, Note_on_c, 10, 31, 116
11, 153792, Note_on_c, 10, 31, 0
11, 153840, Note_on_c, 10, 43, 116
11, 154032, Note_on_c, 10, 43, 0
11, 154080, Note_on_c, 10, 43, 116
11, 154272, Note_on_c, 10, 43, 0
11, 154320, Note_on_c, 10, 43, 116
11, 154512, Note_on_c, 10, 43, 0
11, 154560, Note_on_c, 10, 43, 116
11, 154752, Note_on_c, 10, 43, 0
11, 154800, Note_on_c, 10, 43, 116
11, 154992, Note_on_c, 10, 43, 0
11, 155040, Note_on_c, 10, 43, 116
11, 155232, Note_on_c, 10, 43, 0
11, 155280, Note_on_c, 10, 43, 116
11, 155472, Note_on_c, 10, 43, 0
11, 155520, Note_on_c, 10, 43, 116
11, 156672, Note_on_c, 10, 43, 0
11, 156720, Note_on_c, 10, 45, 116
11, 156912, Note_on_c, 10, 45, 0
11, 156960, Note_on_c, 10, 42, 116
11, 157152, Note_on_c, 10, 42, 0
11, 157200, Note_on_c, 10, 38, 116
11, 157392, Note_on_c, 10, 38, 0
11, 157440, Note_on_c, 10, 47, 116
11, 158592, Note_on_c, 10, 47, 0
11, 158640, Note_on_c, 10, 48, 116
11, 158832, Note_on_c, 10, 48, 0
11, 158880, Note_on_c, 10, 45, 116
11, 159072, Note_on_c, 10, 45, 0
11, 159120, Note_on_c, 10, 42, 116
11, 159312, Note_on_c, 10, 42, 0
11, 159360, Note_on_c, 10, 43, 116
11, 159648, Note_on_c, 10, 43, 0
11, 159840, Note_on_c, 10, 47, 116
11, 159984, Note_on_c, 10, 47, 0
11, 160080, Note_on_c, 10, 47, 116
11, 160224, Note_on_c, 10, 47, 0
11, 160320, Note_on_c, 10, 47, 116
11, 160560, Note_on_c, 10, 47, 0
11, 160560, Note_on_c, 10, 43, 116
11, 160752, Note_on_c, 10, 43, 0
11, 160800, Note_on_c, 10, 43, 116
11, 160992, Note_on_c, 10, 43, 0
11, 161040, Note_on_c, 10, 43, 116
11, 161232, Note_on_c, 10, 43, 0
11, 161280, Note_on_c, 10, 43, 116
11, 161520, Note_on_c, 10, 43, 0
11, 161520, Note_on_c, 10, 38, 116
11, 161712, Note_on_c, 10, 38, 0
11, 161760, Note_on_c, 10, 38, 116
11, 161952, Note_on_c, 10, 38, 0
11, 162000, Note_on_c, 10, 38, 116
11, 162192, Note_on_c, 10, 38, 0
11, 162240, Note_on_c, 10, 38, 116
11, 162480, Note_on_c, 10, 38, 0
11, 162480, Note_on_c, 10, 35, 116
11, 162672, Note_on_c, 10, 35, 0
11, 162720, Note_on_c, 10, 35, 116
11, 162912, Note_on_c, 10, 35, 0
11, 162960, Note_on_c, 10, 31, 116
11, 163152, Note_on_c, 10, 31, 0
11, 163200, Note_on_c, 10, 38, 116
11, 163392, Note_on_c, 10, 38, 0
11, 163440, Note_on_c, 10, 50, 116
11, 163632, Note_on_c, 10, 50, 0
11, 163680, Note_on_c, 10, 48, 116
11, 163872, Note_on_c, 10, 48, 0
11, 163920, Note_on_c, 10, 50, 116
11, 164112, Note_on_c, 10, 50, 0
11, 164160, Note_on_c, 10, 47, 116
11, 164352, Note_on_c, 10, 47, 0
11, 164400, Note_on_c, 10, 50, 116
11, 164592, Note_on_c, 10, 50, 0
11, 164640, Note_on_c, 10, 47, 116
11, 164832, Note_on_c, 10, 47, 0
11, 164880, Note_on_c, 10, 43, 116
11, 165072, Note_on_c, 10, 43, 0
11, 165120, Note_on_c, 10, 38, 105
11, 165504, Note_on_c, 10, 38, 0
11, 165600, Note_on_c, 10, 38, 105
11, 165984, Note_on_c, 10, 38, 0
11, 166080, Note_on_c, 10, 38, 105
11, 166464, Note_on_c, 10, 38, 0
11, 175200, Note_on_c, 10, 38, 92
11, 175680, Note_on_c, 10, 38, 0
11, 175680, Note_on_c, 10, 40, 72
11, 175872, Note_on_c, 10, 40, 0
11, 176160, Note_on_c, 10, 42, 72
11, 176352, Note_on_c, 10, 42, 0
11, 176640, Note_on_c, 10, 43, 72
11, 176832, Note_on_c, 10, 43, 0
11, 177120, Note_on_c, 10, 45, 72
11, 177312, Note_on_c, 10, 45, 0
11, 177600, Note_on_c, 10, 47, 72
11, 177792, Note_on_c, 10, 47, 0
11, 178080, Note_on_c, 10, 49, 72
11, 178272, Note_on_c, 10, 49, 0
11, 178560, Note_on_c, 10, 50, 72
11, 178944, Note_on_c, 10, 50, 0
11, 179040, Note_on_c, 10, 38, 72
11, 179424, Note_on_c, 10, 38, 0
11, 179520, Note_on_c, 10, 35, 72
11, 179904, Note_on_c, 10, 35, 0
11, 180000, Note_on_c, 10, 40, 72
11, 180384, Note_on_c, 10, 40, 0
11, 180480, Note_on_c, 10, 33, 72
11, 180660, Note_on_c, 10, 33, 0
11, 180720, Note_on_c, 10, 45, 72
11, 180900, Note_on_c, 10, 45, 0
11, 180960, Note_on_c, 10, 45, 72
11, 181140, Note_on_c, 10, 45, 0
11, 181200, Note_on_c, 10, 45, 72
11, 181380, Note_on_c, 10, 45, 0
11, 181440, Note_on_c, 10, 45, 72
11, 181620, Note_on_c, 10, 45, 0
11, 181680, Note_on_c, 10, 45, 72
11, 181860, Note_on_c, 10, 45, 0
11, 181920, Note_on_c, 10, 45, 72
11, 182100, Note_on_c, 10, 45, 0
11, 182160, Note_on_c, 10, 45, 72
11, 182340, Note_on_c, 10, 45, 0
11, 182400, Note_on_c, 10, 33, 72
11, 182580, Note_on_c, 10, 33, 0
11, 182640, Note_on_c, 10, 45, 72
11, 182820, Note_on_c, 10, 45, 0
11, 182880, Note_on_c, 10, 45, 72
11, 183060, Note_on_c, 10, 45, 0
11, 183120, Note_on_c, 10, 45, 72
11, 183300, Note_on_c, 10, 45, 0
11, 183360, Note_on_c, 10, 45, 72
11, 183540, Note_on_c, 10, 45, 0
11, 183600, Note_on_c, 10, 45, 72
11, 183780, Note_on_c, 10, 45, 0
11, 183840, Note_on_c, 10, 45, 72
11, 184020, Note_on_c, 10, 45, 0
11, 184080, Note_on_c, 10, 45, 72
11, 184260, Note_on_c, 10, 45, 0
11, 184320, Note_on_c, 10, 33, 72
11, 184500, Note_on_c, 10, 33, 0
11, 184560, Note_on_c, 10, 45, 72
11, 184740, Note_on_c, 10, 45, 0
11, 184800, Note_on_c, 10, 45, 72
11, 184980, Note_on_c, 10, 45, 0
11, 185040, Note_on_c, 10, 45, 72
11, 185220, Note_on_c, 10, 45, 0
11, 185280, Note_on_c, 10, 45, 72
11, 185460, Note_on_c, 10, 45, 0
11, 185520, Note_on_c, 10, 45, 72
11, 185700, Note_on_c, 10, 45, 0
11, 185760, Note_on_c, 10, 45, 72
11, 185940, Note_on_c, 10, 45, 0
11, 186000, Note_on_c, 10, 45, 72
11, 186180, Note_on_c, 10, 45, 0
11, 186240, Note_on_c, 10, 33, 72
11, 186420, Note_on_c, 10, 33, 0
11, 186480, Note_on_c, 10, 45, 72
11, 186660, Note_on_c, 10, 45, 0
11, 186720, Note_on_c, 10, 45, 72
11, 186900, Note_on_c, 10, 45, 0
11, 186960, Note_on_c, 10, 45, 72
11, 187140, Note_on_c, 10, 45, 0
11, 187200, Note_on_c, 10, 45, 72
11, 187380, Note_on_c, 10, 45, 0
11, 187440, Note_on_c, 10, 45, 72
11, 187620, Note_on_c, 10, 45, 0
11, 187680, Note_on_c, 10, 45, 72
11, 187860, Note_on_c, 10, 45, 0
11, 187920, Note_on_c, 10, 45, 72
11, 188100, Note_on_c, 10, 45, 0
11, 188160, Note_on_c, 10, 33, 72
11, 188340, Note_on_c, 10, 33, 0
11, 188400, Note_on_c, 10, 45, 72
11, 188580, Note_on_c, 10, 45, 0
11, 188640, Note_on_c, 10, 45, 72
11, 188820, Note_on_c, 10, 45, 0
11, 188880, Note_on_c, 10, 45, 72
11, 189060, Note_on_c, 10, 45, 0
11, 189120, Note_on_c, 10, 45, 72
11, 189504, Note_on_c, 10, 45, 0
11, 190080, Note_on_c, 10, 46, 72
11, 191040, Note_on_c, 10, 46, 0
11, 191040, Note_on_c, 10, 45, 72
11, 191424, Note_on_c, 10, 45, 0
11, 192000, Note_on_c, 10, 46, 72
11, 192960, Note_on_c, 10, 46, 0
11, 192960, Note_on_c, 10, 45, 72
11, 193344, Note_on_c, 10, 45, 0
11, 197760, Note_on_c, 10, 38, 72
11, 198528, Note_on_c, 10, 38, 0
11, 199680, Note_on_c, 10, 45, 72
11, 200040, Note_on_c, 10, 45, 0
11, 200640, Note_on_c, 10, 50, 72
11, 201000, Note_on_c, 10, 50, 0
11, 201600, Note_on_c, 10, 49, 72
11, 201960, Note_on_c, 10, 49, 0
11, 202560, Note_on_c, 10, 50, 72
11, 202920, Note_on_c, 10, 50, 0
11, 203520, Note_on_c, 10, 45, 72
11, 203880, Note_on_c, 10, 45, 0
11, 205440, Note_on_c, 10, 38, 72
11, 206208, Note_on_c, 10, 38, 0
11, 207360, Note_on_c, 10, 45, 72
11, 207720, Note_on_c, 10, 45, 0
11, 208320, Note_on_c, 10, 47, 72
11, 208680, Note_on_c, 10, 47, 0
11, 209280, Note_on_c, 10, 43, 72
11, 209640, Note_on_c, 10, 43, 0
11, 210240, Note_on_c, 10, 45, 72
11, 210600, Note_on_c, 10, 45, 0
11, 211200, Note_on_c, 10, 48, 72
11, 212160, Note_on_c, 10, 48, 0
11, 212160, Note_on_c, 10, 47, 72
11, 212544, Note_on_c, 10, 47, 0
11, 213120, Note_on_c, 10, 43, 72
11, 213888, Note_on_c, 10, 43, 0
11, 215040, Note_on_c, 10, 45, 72
11, 215400, Note_on_c, 10, 45, 0
11, 216000, Note_on_c, 10, 47, 72
11, 216360, Note_on_c, 10, 47, 0
11, 216960, Note_on_c, 10, 43, 72
11, 217344, Note_on_c, 10, 43, 0
11, 217920, Note_on_c, 10, 45, 72
11, 218304, Note_on_c, 10, 45, 0
11, 218880, Note_on_c, 10, 42, 72
11, 219840, Note_on_c, 10, 42, 0
11, 219840, Note_on_c, 10, 40, 72
11, 220800, Note_on_c, 10, 40, 0
11, 220800, Note_on_c, 10, 38, 72
11, 221760, Note_on_c, 10, 38, 0
11, 221760, Note_on_c, 10, 43, 72
11, 222528, Note_on_c, 10, 43, 0
11, 222720, Note_on_c, 10, 45, 58
11, 223680, Note_on_c, 10, 45, 0
11, 223680, Note_on_c, 10, 33, 58
11, 224448, Note_on_c, 10, 33, 0
11, 224640, Note_on_c, 10, 42, 127
11, 224784, Note_on_c, 10, 42, 0
11, 224880, Note_on_c, 10, 42, 116
11, 225072, Note_on_c, 10, 42, 0
11, 225120, Note_on_c, 10, 42, 116
11, 225312, Note_on_c, 10, 42, 0
11, 225360, Note_on_c, 10, 42, 116
11, 225552, Note_on_c, 10, 42, 0
11, 225600, Note_on_c, 10, 40, 116
11, 225792, Note_on_c, 10, 40, 0
11, 225840, Note_on_c, 10, 40, 116
11, 226032, Note_on_c, 10, 40, 0
11, 226080, Note_on_c, 10, 40, 116
11, 226272, Note_on_c, 10, 40, 0
11, 226320, Note_on_c, 10, 40, 116
11, 226512, Note_on_c, 10, 40, 0
11, 226560, Note_on_c, 10, 38, 116
11, 226752, Note_on_c, 10, 38, 0
11, 226800, Note_on_c, 10, 38, 116
11, 226992, Note_on_c, 10, 38, 0
11, 227040, Note_on_c, 10, 38, 116
11, 227232, Note_on_c, 10, 38, 0
11, 227280, Note_on_c, 10, 38, 116
11, 227472, Note_on_c, 10, 38, 0
11, 227520, Note_on_c, 10, 43, 116
11, 227712, Note_on_c, 10, 43, 0
11, 227760, Note_on_c, 10, 43, 116
11, 227952, Note_on_c, 10, 43, 0
11, 228000, Note_on_c, 10, 43, 116
11, 228192, Note_on_c, 10, 43, 0
11, 228240, Note_on_c, 10, 43, 116
11, 228432, Note_on_c, 10, 43, 0
11, 228480, Note_on_c, 10, 45, 116
11, 228672, Note_on_c, 10, 45, 0
11, 228720, Note_on_c, 10, 45, 116
11, 228912, Note_on_c, 10, 45, 0
11, 228960, Note_on_c, 10, 45, 116
11, 229152, Note_on_c, 10, 45, 0
11, 229200, Note_on_c, 10, 45, 116
11, 229392, Note_on_c, 10, 45, 0
11, 229440, Note_on_c, 10, 33, 116
11, 229632, Note_on_c, 10, 33, 0
11, 229680, Note_on_c, 10, 33, 116
11, 229872, Note_on_c, 10, 33, 0
11, 229920, Note_on_c, 10, 33, 116
11, 230112, Note_on_c, 10, 33, 0
11, 230160, Note_on_c, 10, 33, 116
11, 230352, Note_on_c, 10, 33, 0
11, 230400, Note_on_c, 10, 38, 110
11, 230784, Note_on_c, 10, 38, 0
11, 230880, Note_on_c, 10, 38, 72
11, 231264, Note_on_c, 10, 38, 0
11, 231360, Note_on_c, 10, 42, 72
11, 231744, Note_on_c, 10, 42, 0
11, 231840, Note_on_c, 10, 45, 72
11, 232224, Note_on_c, 10, 45, 0
11, 232320, Note_on_c, 10, 50, 72
11, 232704, Note_on_c, 10, 50, 0
11, 232800, Note_on_c, 10, 38, 72
11, 233184, Note_on_c, 10, 38, 0
11, 234720, Note_on_c, 10, 38, 72
11, 235104, Note_on_c, 10, 38, 0
11, 235200, Note_on_c, 10, 43, 72
11, 235584, Note_on_c, 10, 43, 0
11, 235680, Note_on_c, 10, 47, 72
11, 236064, Note_on_c, 10, 47, 0
11, 236160, Note_on_c, 10, 50, 72
11, 236544, Note_on_c, 10, 50, 0
11, 236640, Note_on_c, 10, 38, 72
11, 237024, Note_on_c, 10, 38, 0
11, 238560, Note_on_c, 10, 38, 72
11, 238944, Note_on_c, 10, 38, 0
11, 239040, Note_on_c, 10, 42, 72
11, 239424, Note_on_c, 10, 42, 0
11, 239520, Note_on_c, 10, 45, 72
11, 239904, Note_on_c, 10, 45, 0
11, 240000, Note_on_c, 10, 50, 72
11, 240384, Note_on_c, 10, 50, 0
11, 240480, Note_on_c, 10, 38, 72
11, 240864, Note_on_c, 10, 38, 0
11, 243120, Note_on_c, 10, 38, 105
11, 243276, Note_on_c, 10, 38, 0
11, 243360, Note_on_c, 10, 42, 105
11, 243516, Note_on_c, 10, 42, 0
11, 243600, Note_on_c, 10, 45, 105
11, 243756, Note_on_c, 10, 45, 0
11, 243840, Note_on_c, 10, 48, 105
11, 244152, Note_on_c, 10, 48, 0
11, 244320, Note_on_c, 10, 48, 105
11, 244632, Note_on_c, 10, 48, 0
11, 244800, Note_on_c, 10, 48, 105
11, 245112, Note_on_c, 10, 48, 0
11, 245280, Note_on_c, 10, 48, 105
11, 245592, Note_on_c, 10, 48, 0
11, 245760, Note_on_c, 10, 39, 105
11, 246144, Note_on_c, 10, 39, 0
11, 247680, Note_on_c, 10, 39, 72
11, 248448, Note_on_c, 10, 39, 0
11, 249600, Note_on_c, 10, 34, 72
11, 249960, Note_on_c, 10, 34, 0
11, 250560, Note_on_c, 10, 39, 72
11, 250920, Note_on_c, 10, 39, 0
11, 251520, Note_on_c, 10, 38, 72
11, 251880, Note_on_c, 10, 38, 0
11, 252480, Note_on_c, 10, 39, 72
11, 252840, Note_on_c, 10, 39, 0
11, 253440, Note_on_c, 10, 34, 72
11, 253824, Note_on_c, 10, 34, 0
11, 255360, Note_on_c, 10, 39, 72
11, 256128, Note_on_c, 10, 39, 0
11, 257280, Note_on_c, 10, 34, 72
11, 257640, Note_on_c, 10, 34, 0
11, 258240, Note_on_c, 10, 36, 72
11, 258600, Note_on_c, 10, 36, 0
11, 259200, Note_on_c, 10, 32, 72
11, 259560, Note_on_c, 10, 32, 0
11, 260160, Note_on_c, 10, 34, 72
11, 260520, Note_on_c, 10, 34, 0
11, 261120, Note_on_c, 10, 39, 105
11, 261288, Note_on_c, 10, 39, 0
11, 261360, Note_on_c, 10, 39, 105
11, 261528, Note_on_c, 10, 39, 0
11, 261600, Note_on_c, 10, 39, 105
11, 261768, Note_on_c, 10, 39, 0
11, 261840, Note_on_c, 10, 39, 105
11, 262008, Note_on_c, 10, 39, 0
11, 262080, Note_on_c, 10, 39, 105
11, 262248, Note_on_c, 10, 39, 0
11, 262320, Note_on_c, 10, 39, 105
11, 262488, Note_on_c, 10, 39, 0
11, 262560, Note_on_c, 10, 39, 105
11, 262728, Note_on_c, 10, 39, 0
11, 262800, Note_on_c, 10, 39, 105
11, 262968, Note_on_c, 10, 39, 0
11, 263040, Note_on_c, 10, 39, 105
11, 263208, Note_on_c, 10, 39, 0
11, 263280, Note_on_c, 10, 39, 105
11, 263448, Note_on_c, 10, 39, 0
11, 263520, Note_on_c, 10, 39, 105
11, 263688, Note_on_c, 10, 39, 0
11, 263760, Note_on_c, 10, 39, 105
11, 263928, Note_on_c, 10, 39, 0
11, 264000, Note_on_c, 10, 39, 105
11, 264168, Note_on_c, 10, 39, 0
11, 264240, Note_on_c, 10, 39, 105
11, 264408, Note_on_c, 10, 39, 0
11, 264480, Note_on_c, 10, 39, 105
11, 264648, Note_on_c, 10, 39, 0
11, 264720, Note_on_c, 10, 39, 105
11, 264888, Note_on_c, 10, 39, 0
11, 264960, Note_on_c, 10, 39, 105
11, 266160, Note_on_c, 10, 39, 0
11, 266160, Note_on_c, 10, 41, 105
11, 266400, Note_on_c, 10, 41, 0
11, 266400, Note_on_c, 10, 38, 105
11, 266640, Note_on_c, 10, 38, 0
11, 266640, Note_on_c, 10, 34, 105
11, 266832, Note_on_c, 10, 34, 0
11, 266880, Note_on_c, 10, 43, 105
11, 268080, Note_on_c, 10, 43, 0
11, 268080, Note_on_c, 10, 44, 105
11, 268320, Note_on_c, 10, 44, 0
11, 268320, Note_on_c, 10, 41, 105
11, 268560, Note_on_c, 10, 41, 0
11, 268560, Note_on_c, 10, 38, 105
11, 268752, Note_on_c, 10, 38, 0
11, 268800, Note_on_c, 10, 39, 92
11, 269112, Note_on_c, 10, 39, 0
11, 269280, Note_on_c, 10, 39, 92
11, 269592, Note_on_c, 10, 39, 0
11, 270240, Note_on_c, 10, 39, 92
11, 270552, Note_on_c, 10, 39, 0
11, 271200, Note_on_c, 10, 39, 92
11, 271512, Note_on_c, 10, 39, 0
11, 271680, Note_on_c, 10, 39, 92
11, 271992, Note_on_c, 10, 39, 0
11, 272160, Note_on_c, 10, 39, 92
11, 272472, Note_on_c, 10, 39, 0
11, 273120, Note_on_c, 10, 38, 92
11, 273432, Note_on_c, 10, 38, 0
11, 274080, Note_on_c, 10, 38, 92
11, 274392, Note_on_c, 10, 38, 0
11, 275040, Note_on_c, 10, 38, 92
11, 275352, Note_on_c, 10, 38, 0
11, 275520, Note_on_c, 10, 38, 92
11, 275832, Note_on_c, 10, 38, 0
11, 276000, Note_on_c, 10, 38, 92
11, 276312, Note_on_c, 10, 38, 0
11, 276960, Note_on_c, 10, 36, 92
11, 277272, Note_on_c, 10, 36, 0
11, 277920, Note_on_c, 10, 36, 92
11, 278232, Note_on_c, 10, 36, 0
11, 278880, Note_on_c, 10, 36, 92
11, 279192, Note_on_c, 10, 36, 0
11, 279360, Note_on_c, 10, 36, 92
11, 279672, Note_on_c, 10, 36, 0
11, 279840, Note_on_c, 10, 36, 92
11, 280152, Note_on_c, 10, 36, 0
11, 280800, Note_on_c, 10, 42, 92
11, 281112, Note_on_c, 10, 42, 0
11, 281760, Note_on_c, 10, 42, 92
11, 282072, Note_on_c, 10, 42, 0
11, 282720, Note_on_c, 10, 42, 92
11, 283104, Note_on_c, 10, 42, 0
11, 283200, Note_on_c, 10, 42, 92
11, 283584, Note_on_c, 10, 42, 0
11, 283680, Note_on_c, 10, 42, 92
11, 284064, Note_on_c, 10, 42, 0
11, 284640, Note_on_c, 10, 43, 92
11, 284952, Note_on_c, 10, 43, 0
11, 285600, Note_on_c, 10, 43, 92
11, 285912, Note_on_c, 10, 43, 0
11, 286560, Note_on_c, 10, 43, 92
11, 286872, Note_on_c, 10, 43, 0
11, 287040, Note_on_c, 10, 43, 92
11, 287352, Note_on_c, 10, 43, 0
11, 287520, Note_on_c, 10, 43, 92
11, 287832, Note_on_c, 10, 43, 0
11, 288000, Note_on_c, 10, 43, 92
11, 288240, Note_on_c, 10, 43, 0
11, 288240, Note_on_c, 10, 51, 92
11, 288396, Note_on_c, 10, 51, 0
11, 288480, Note_on_c, 10, 51, 92
11, 288636, Note_on_c, 10, 51, 0
11, 288720, Note_on_c, 10, 51, 92
11, 288876, Note_on_c, 10, 51, 0
11, 288960, Note_on_c, 10, 51, 92
11, 289200, Note_on_c, 10, 51, 0
11, 289200, Note_on_c, 10, 46, 92
11, 289356, Note_on_c, 10, 46, 0
11, 289440, Note_on_c, 10, 46, 92
11, 289596, Note_on_c, 10, 46, 0
11, 289680, Note_on_c, 10, 46, 92
11, 289836, Note_on_c, 10, 46, 0
11, 289920, Note_on_c, 10, 46, 92
11, 290160, Note_on_c, 10, 46, 0
11, 290160, Note_on_c, 10, 43, 92
11, 290316, Note_on_c, 10, 43, 0
11, 290400, Note_on_c, 10, 43, 92
11, 290556, Note_on_c, 10, 43, 0
11, 290640, Note_on_c, 10, 43, 92
11, 290796, Note_on_c, 10, 43, 0
11, 290880, Note_on_c, 10, 43, 92
11, 291120, Note_on_c, 10, 43, 0
11, 291120, Note_on_c, 10, 39, 92
11, 291276, Note_on_c, 10, 39, 0
11, 291360, Note_on_c, 10, 39, 92
11, 291516, Note_on_c, 10, 39, 0
11, 291600, Note_on_c, 10, 37, 92
11, 291756, Note_on_c, 10, 37, 0
11, 291840, Note_on_c, 10, 38, 92
11, 291996, Note_on_c, 10, 38, 0
11, 292080, Note_on_c, 10, 50, 92
11, 292236, Note_on_c, 10, 50, 0
11, 292320, Note_on_c, 10, 48, 92
11, 292476, Note_on_c, 10, 48, 0
11, 292560, Note_on_c, 10, 50, 92
11, 292716, Note_on_c, 10, 50, 0
11, 292800, Note_on_c, 10, 46, 92
11, 292956, Note_on_c, 10, 46, 0
11, 293040, Note_on_c, 10, 50, 92
11, 293196, Note_on_c, 10, 50, 0
11, 293280, Note_on_c, 10, 46, 92
11, 293436, Note_on_c, 10, 46, 0
11, 293520, Note_on_c, 10, 43, 92
11, 293676, Note_on_c, 10, 43, 0
11, 293760, Note_on_c, 10, 50, 92
11, 294048, Note_on_c, 10, 50, 0
11, 294240, Note_on_c, 10, 38, 92
11, 294528, Note_on_c, 10, 38, 0
11, 294720, Note_on_c, 10, 38, 92
11, 295008, Note_on_c, 10, 38, 0
11, 303840, Note_on_c, 10, 31, 112
11, 304320, Note_on_c, 10, 31, 0
11, 304320, Note_on_c, 10, 33, 72
11, 304512, Note_on_c, 10, 33, 0
11, 304800, Note_on_c, 10, 35, 72
11, 304992, Note_on_c, 10, 35, 0
11, 305280, Note_on_c, 10, 36, 72
11, 305472, Note_on_c, 10, 36, 0
11, 305760, Note_on_c, 10, 38, 72
11, 305952, Note_on_c, 10, 38, 0
11, 306240, Note_on_c, 10, 40, 72
11, 306432, Note_on_c, 10, 40, 0
11, 306720, Note_on_c, 10, 42, 72
11, 306912, Note_on_c, 10, 42, 0
11, 307200, Note_on_c, 10, 43, 72
11, 307488, Note_on_c, 10, 43, 0
11, 307680, Note_on_c, 10, 40, 72
11, 308160, Note_on_c, 10, 40, 0
11, 308160, Note_on_c, 10, 43, 72
11, 308640, Note_on_c, 10, 43, 0
11, 308640, Note_on_c, 10, 45, 72
11, 309024, Note_on_c, 10, 45, 0
11, 309120, Note_on_c, 10, 38, 72
11, 309312, Note_on_c, 10, 38, 0
11, 309360, Note_on_c, 10, 38, 72
11, 309552, Note_on_c, 10, 38, 0
11, 309600, Note_on_c, 10, 38, 72
11, 309792, Note_on_c, 10, 38, 0
11, 309840, Note_on_c, 10, 38, 72
11, 310032, Note_on_c, 10, 38, 0
11, 310080, Note_on_c, 10, 38, 72
11, 310272, Note_on_c, 10, 38, 0
11, 310320, Note_on_c, 10, 38, 72
11, 310512, Note_on_c, 10, 38, 0
11, 310560, Note_on_c, 10, 38, 72
11, 310752, Note_on_c, 10, 38, 0
11, 310800, Note_on_c, 10, 38, 72
11, 310992, Note_on_c, 10, 38, 0
11, 311040, Note_on_c, 10, 38, 72
11, 311232, Note_on_c, 10, 38, 0
11, 311280, Note_on_c, 10, 38, 72
11, 311472, Note_on_c, 10, 38, 0
11, 311520, Note_on_c, 10, 38, 72
11, 311712, Note_on_c, 10, 38, 0
11, 311760, Note_on_c, 10, 38, 72
11, 311952, Note_on_c, 10, 38, 0
11, 312000, Note_on_c, 10, 38, 72
11, 312192, Note_on_c, 10, 38, 0
11, 312240, Note_on_c, 10, 38, 72
11, 312432, Note_on_c, 10, 38, 0
11, 312480, Note_on_c, 10, 38, 72
11, 312672, Note_on_c, 10, 38, 0
11, 312720, Note_on_c, 10, 38, 72
11, 312912, Note_on_c, 10, 38, 0
11, 312960, Note_on_c, 10, 38, 72
11, 313152, Note_on_c, 10, 38, 0
11, 313200, Note_on_c, 10, 38, 72
11, 313392, Note_on_c, 10, 38, 0
11, 313440, Note_on_c, 10, 38, 72
11, 313632, Note_on_c, 10, 38, 0
11, 313680, Note_on_c, 10, 38, 72
11, 313872, Note_on_c, 10, 38, 0
11, 313920, Note_on_c, 10, 38, 72
11, 314112, Note_on_c, 10, 38, 0
11, 314160, Note_on_c, 10, 38, 72
11, 314352, Note_on_c, 10, 38, 0
11, 314400, Note_on_c, 10, 38, 72
11, 314592, Note_on_c, 10, 38, 0
11, 314640, Note_on_c, 10, 38, 72
11, 314832, Note_on_c, 10, 38, 0
11, 314880, Note_on_c, 10, 38, 72
11, 315072, Note_on_c, 10, 38, 0
11, 315120, Note_on_c, 10, 38, 72
11, 315312, Note_on_c, 10, 38, 0
11, 315360, Note_on_c, 10, 38, 72
11, 315552, Note_on_c, 10, 38, 0
11, 315600, Note_on_c, 10, 38, 72
11, 315792, Note_on_c, 10, 38, 0
11, 315840, Note_on_c, 10, 38, 72
11, 316032, Note_on_c, 10, 38, 0
11, 316080, Note_on_c, 10, 38, 72
11, 316272, Note_on_c, 10, 38, 0
11, 316320, Note_on_c, 10, 38, 72
11, 316512, Note_on_c, 10, 38, 0
11, 316560, Note_on_c, 10, 38, 72
11, 316752, Note_on_c, 10, 38, 0
11, 316800, Note_on_c, 10, 38, 58
11, 316992, Note_on_c, 10, 38, 0
11, 317040, Note_on_c, 10, 38, 58
11, 317232, Note_on_c, 10, 38, 0
11, 317280, Note_on_c, 10, 38, 58
11, 317472, Note_on_c, 10, 38, 0
11, 317520, Note_on_c, 10, 38, 58
11, 317712, Note_on_c, 10, 38, 0
11, 317760, Note_on_c, 10, 38, 58
11, 318144, Note_on_c, 10, 38, 0
11, 318720, Note_on_c, 10, 39, 58
11, 319680, Note_on_c, 10, 39, 0
11, 319680, Note_on_c, 10, 38, 58
11, 320064, Note_on_c, 10, 38, 0
11, 320640, Note_on_c, 10, 39, 58
11, 321600, Note_on_c, 10, 39, 0
11, 321600, Note_on_c, 10, 38, 58
11, 321984, Note_on_c, 10, 38, 0
11, 326400, Note_on_c, 10, 43, 72
11, 327168, Note_on_c, 10, 43, 0
11, 328320, Note_on_c, 10, 38, 72
11, 328680, Note_on_c, 10, 38, 0
11, 329280, Note_on_c, 10, 43, 72
11, 329640, Note_on_c, 10, 43, 0
11, 330240, Note_on_c, 10, 42, 72
11, 330600, Note_on_c, 10, 42, 0
11, 331200, Note_on_c, 10, 43, 72
11, 331560, Note_on_c, 10, 43, 0
11, 332160, Note_on_c, 10, 38, 72
11, 332544, Note_on_c, 10, 38, 0
11, 334080, Note_on_c, 10, 31, 72
11, 334848, Note_on_c, 10, 31, 0
11, 336000, Note_on_c, 10, 38, 72
11, 336360, Note_on_c, 10, 38, 0
11, 336960, Note_on_c, 10, 40, 72
11, 337320, Note_on_c, 10, 40, 0
11, 337920, Note_on_c, 10, 36, 72
11, 338280, Note_on_c, 10, 36, 0
11, 338880, Note_on_c, 10, 38, 72
11, 339240, Note_on_c, 10, 38, 0
11, 339840, Note_on_c, 10, 41, 72
11, 340800, Note_on_c, 10, 41, 0
11, 340800, Note_on_c, 10, 40, 72
11, 341184, Note_on_c, 10, 40, 0
11, 341760, Note_on_c, 10, 36, 72
11, 342528, Note_on_c, 10, 36, 0
11, 343680, Note_on_c, 10, 38, 72
11, 344064, Note_on_c, 10, 38, 0
11, 344640, Note_on_c, 10, 40, 72
11, 345024, Note_on_c, 10, 40, 0
11, 345600, Note_on_c, 10, 36, 72
11, 345984, Note_on_c, 10, 36, 0
11, 346560, Note_on_c, 10, 38, 72
11, 346944, Note_on_c, 10, 38, 0
11, 347520, Note_on_c, 10, 35, 58
11, 348480, Note_on_c, 10, 35, 0
11, 348480, Note_on_c, 10, 33, 58
11, 349440, Note_on_c, 10, 33, 0
11, 349440, Note_on_c, 10, 31, 58
11, 350400, Note_on_c, 10, 31, 0
11, 350400, Note_on_c, 10, 36, 58
11, 351360, Note_on_c, 10, 36, 0
11, 351360, Note_on_c, 10, 38, 58
11, 352128, Note_on_c, 10, 38, 0
11, 352320, Note_on_c, 10, 38, 58
11, 353088, Note_on_c, 10, 38, 0
11, 353280, Note_on_c, 10, 35, 105
11, 353472, Note_on_c, 10, 35, 0
11, 353520, Note_on_c, 10, 47, 105
11, 353712, Note_on_c, 10, 47, 0
11, 353760, Note_on_c, 10, 47, 105
11, 353952, Note_on_c, 10, 47, 0
11, 354000, Note_on_c, 10, 47, 105
11, 354192, Note_on_c, 10, 47, 0
11, 354240, Note_on_c, 10, 45, 105
11, 354432, Note_on_c, 10, 45, 0
11, 354480, Note_on_c, 10, 45, 105
11, 354672, Note_on_c, 10, 45, 0
11, 354720, Note_on_c, 10, 45, 105
11, 354912, Note_on_c, 10, 45, 0
11, 354960, Note_on_c, 10, 45, 105
11, 355152, Note_on_c, 10, 45, 0
11, 355200, Note_on_c, 10, 43, 105
11, 355392, Note_on_c, 10, 43, 0
11, 355440, Note_on_c, 10, 43, 105
11, 355632, Note_on_c, 10, 43, 0
11, 355680, Note_on_c, 10, 43, 105
11, 355872, Note_on_c, 10, 43, 0
11, 355920, Note_on_c, 10, 43, 105
11, 356112, Note_on_c, 10, 43, 0
11, 356160, Note_on_c, 10, 36, 105
11, 356352, Note_on_c, 10, 36, 0
11, 356400, Note_on_c, 10, 36, 105
11, 356592, Note_on_c, 10, 36, 0
11, 356640, Note_on_c, 10, 36, 105
11, 356832, Note_on_c, 10, 36, 0
11, 356880, Note_on_c, 10, 36, 105
11, 357072, Note_on_c, 10, 36, 0
11, 357120, Note_on_c, 10, 38, 105
11, 357312, Note_on_c, 10, 38, 0
11, 357360, Note_on_c, 10, 38, 105
11, 357552, Note_on_c, 10, 38, 0
11, 357600, Note_on_c, 10, 38, 105
11, 357792, Note_on_c, 10, 38, 0
11, 357840, Note_on_c, 10, 38, 105
11, 358032, Note_on_c, 10, 38, 0
11, 358080, Note_on_c, 10, 38, 105
11, 358272, Note_on_c, 10, 38, 0
11, 358320, Note_on_c, 10, 38, 105
11, 358512, Note_on_c, 10, 38, 0
11, 358560, Note_on_c, 10, 38, 105
11, 358752, Note_on_c, 10, 38, 0
11, 358800, Note_on_c, 10, 38, 105
11, 358992, Note_on_c, 10, 38, 0
11, 359040, Note_on_c, 10, 43, 110
11, 359352, Note_on_c, 10, 43, 0
11, 359520, Note_on_c, 10, 31, 72
11, 359832, Note_on_c, 10, 31, 0
11, 360000, Note_on_c, 10, 35, 72
11, 360312, Note_on_c, 10, 35, 0
11, 360480, Note_on_c, 10, 38, 72
11, 360792, Note_on_c, 10, 38, 0
11, 360960, Note_on_c, 10, 43, 72
11, 361272, Note_on_c, 10, 43, 0
11, 361440, Note_on_c, 10, 31, 72
11, 361752, Note_on_c, 10, 31, 0
11, 363360, Note_on_c, 10, 31, 72
11, 363672, Note_on_c, 10, 31, 0
11, 363840, Note_on_c, 10, 36, 72
11, 364152, Note_on_c, 10, 36, 0
11, 364320, Note_on_c, 10, 40, 72
11, 364632, Note_on_c, 10, 40, 0
11, 364800, Note_on_c, 10, 43, 72
11, 365112, Note_on_c, 10, 43, 0
11, 365280, Note_on_c, 10, 31, 72
11, 365592, Note_on_c, 10, 31, 0
11, 367200, Note_on_c, 10, 31, 72
11, 367512, Note_on_c, 10, 31, 0
11, 367680, Note_on_c, 10, 35, 72
11, 367992, Note_on_c, 10, 35, 0
11, 368160, Note_on_c, 10, 38, 72
11, 368472, Note_on_c, 10, 38, 0
11, 368640, Note_on_c, 10, 43, 72
11, 368952, Note_on_c, 10, 43, 0
11, 369120, Note_on_c, 10, 31, 72
11, 369432, Note_on_c, 10, 31, 0
11, 371760, Note_on_c, 10, 31, 105
11, 371904, Note_on_c, 10, 31, 0
11, 372000, Note_on_c, 10, 35, 105
11, 372144, Note_on_c, 10, 35, 0
11, 372240, Note_on_c, 10, 38, 105
11, 372384, Note_on_c, 10, 38, 0
11, 372480, Note_on_c, 10, 41, 105
11, 372768, Note_on_c, 10, 41, 0
11, 372960, Note_on_c, 10, 41, 105
11, 373248, Note_on_c, 10, 41, 0
11, 373440, Note_on_c, 10, 41, 105
11, 373728, Note_on_c, 10, 41, 0
11, 373920, Note_on_c, 10, 41, 105
11, 374208, Note_on_c, 10, 41, 0
11, 374400, Note_on_c, 10, 32, 105
11, 374784, Note_on_c, 10, 32, 0
11, 383280, Note_on_c, 10, 38, 105
11, 383424, Note_on_c, 10, 38, 0
11, 383520, Note_on_c, 10, 42, 105
11, 383664, Note_on_c, 10, 42, 0
11, 383760, Note_on_c, 10, 45, 105
11, 383904, Note_on_c, 10, 45, 0
11, 384000, Note_on_c, 10, 48, 105
11, 384288, Note_on_c, 10, 48, 0
11, 384480, Note_on_c, 10, 48, 105
11, 384768, Note_on_c, 10, 48, 0
11, 384960, Note_on_c, 10, 48, 105
11, 385248, Note_on_c, 10, 48, 0
11, 385440, Note_on_c, 10, 48, 105
11, 385728, Note_on_c, 10, 48, 0
11, 385920, Note_on_c, 10, 38, 105
11, 386304, Note_on_c, 10, 38, 0
11, 387840, Note_on_c, 10, 43, 72
11, 388608, Note_on_c, 10, 43, 0
11, 389760, Note_on_c, 10, 38, 72
11, 390120, Note_on_c, 10, 38, 0
11, 390720, Note_on_c, 10, 43, 72
11, 391080, Note_on_c, 10, 43, 0
11, 391680, Note_on_c, 10, 42, 72
11, 392040, Note_on_c, 10, 42, 0
11, 392640, Note_on_c, 10, 43, 72
11, 393000, Note_on_c, 10, 43, 0
11, 393600, Note_on_c, 10, 38, 72
11, 393984, Note_on_c, 10, 38, 0
11, 395520, Note_on_c, 10, 43, 72
11, 396288, Note_on_c, 10, 43, 0
11, 397440, Note_on_c, 10, 38, 72
11, 397824, Note_on_c, 10, 38, 0
11, 398400, Note_on_c, 10, 40, 72
11, 398784, Note_on_c, 10, 40, 0
11, 399360, Note_on_c, 10, 36, 72
11, 399744, Note_on_c, 10, 36, 0
11, 400320, Note_on_c, 10, 38, 72
11, 400704, Note_on_c, 10, 38, 0
11, 401280, Note_on_c, 10, 31, 72
11, 401664, Note_on_c, 10, 31, 0
11, 402480, Note_on_c, 10, 38, 72
11, 402636, Note_on_c, 10, 38, 0
11, 402720, Note_on_c, 10, 43, 72
11, 402876, Note_on_c, 10, 43, 0
11, 402960, Note_on_c, 10, 47, 72
11, 403116, Note_on_c, 10, 47, 0
11, 403200, Note_on_c, 10, 50, 72
11, 403512, Note_on_c, 10, 50, 0
11, 403680, Note_on_c, 10, 50, 72
11, 403992, Note_on_c, 10, 50, 0
11, 404160, Note_on_c, 10, 50, 72
11, 404472, Note_on_c, 10, 50, 0
11, 404640, Note_on_c, 10, 50, 72
11, 404952, Note_on_c, 10, 50, 0
11, 405120, Note_on_c, 10, 47, 72
11, 405504, Note_on_c, 10, 47, 0
11, 406320, Note_on_c, 10, 38, 72
11, 406476, Note_on_c, 10, 38, 0
11, 406560, Note_on_c, 10, 43, 72
11, 406716, Note_on_c, 10, 43, 0
11, 406800, Note_on_c, 10, 47, 72
11, 406956, Note_on_c, 10, 47, 0
11, 407040, Note_on_c, 10, 50, 72
11, 407352, Note_on_c, 10, 50, 0
11, 407520, Note_on_c, 10, 50, 72
11, 407832, Note_on_c, 10, 50, 0
11, 408000, Note_on_c, 10, 50, 72
11, 408312, Note_on_c, 10, 50, 0
11, 408480, Note_on_c, 10, 50, 72
11, 408792, Note_on_c, 10, 50, 0
11, 408960, Note_on_c, 10, 47, 72
11, 409344, Note_on_c, 10, 47, 0
11, 410160, Note_on_c, 10, 38, 72
11, 410316, Note_on_c, 10, 38, 0
11, 410400, Note_on_c, 10, 43, 72
11, 410556, Note_on_c, 10, 43, 0
11, 410640, Note_on_c, 10, 47, 72
11, 410796, Note_on_c, 10, 47, 0
11, 410880, Note_on_c, 10, 50, 72
11, 411192, Note_on_c, 10, 50, 0
11, 411360, Note_on_c, 10, 50, 72
11, 411672, Note_on_c, 10, 50, 0
11, 411840, Note_on_c, 10, 51, 72
11, 412152, Note_on_c, 10, 51, 0
11, 412320, Note_on_c, 10, 51, 72
11, 412632, Note_on_c, 10, 51, 0
11, 412800, Note_on_c, 10, 52, 72
11, 413760, Note_on_c, 10, 52, 0
11, 413760, Note_on_c, 10, 48, 72
11, 414720, Note_on_c, 10, 48, 0
11, 414720, Note_on_c, 10, 50, 72
11, 415488, Note_on_c, 10, 50, 0
11, 415680, Note_on_c, 10, 38, 72
11, 416448, Note_on_c, 10, 38, 0
11, 416640, Note_on_c, 10, 43, 92
11, 416832, Note_on_c, 10, 43, 0
11, 416880, Note_on_c, 10, 50, 116
11, 417072, Note_on_c, 10, 50, 0
11, 417120, Note_on_c, 10, 50, 116
11, 417312, Note_on_c, 10, 50, 0
11, 417360, Note_on_c, 10, 50, 116
11, 417552, Note_on_c, 10, 50, 0
11, 417600, Note_on_c, 10, 48, 116
11, 417792, Note_on_c, 10, 48, 0
11, 417840, Note_on_c, 10, 50, 105
11, 418032, Note_on_c, 10, 50, 0
11, 418080, Note_on_c, 10, 47, 105
11, 418272, Note_on_c, 10, 47, 0
11, 418320, Note_on_c, 10, 50, 105
11, 418512, Note_on_c, 10, 50, 0
11, 418560, Note_on_c, 10, 45, 105
11, 418752, Note_on_c, 10, 45, 0
11, 418800, Note_on_c, 10, 50, 105
11, 418992, Note_on_c, 10, 50, 0
11, 419040, Note_on_c, 10, 43, 105
11, 419232, Note_on_c, 10, 43, 0
11, 419280, Note_on_c, 10, 50, 105
11, 419472, Note_on_c, 10, 50, 0
11, 419520, Note_on_c, 10, 42, 105
11, 419712, Note_on_c, 10, 42, 0
11, 419760, Note_on_c, 10, 50, 105
11, 419952, Note_on_c, 10, 50, 0
11, 420000, Note_on_c, 10, 38, 105
11, 420192, Note_on_c, 10, 38, 0
11, 420240, Note_on_c, 10, 50, 105
11, 420432, Note_on_c, 10, 50, 0
11, 420480, Note_on_c, 10, 43, 105
11, 420672, Note_on_c, 10, 43, 0
11, 420720, Note_on_c, 10, 50, 105
11, 420912, Note_on_c, 10, 50, 0
11, 420960, Note_on_c, 10, 50, 105
11, 421152, Note_on_c, 10, 50, 0
11, 421200, Note_on_c, 10, 50, 105
11, 421392, Note_on_c, 10, 50, 0
11, 421440, Note_on_c, 10, 48, 105
11, 421632, Note_on_c, 10, 48, 0
11, 421680, Note_on_c, 10, 50, 105
11, 421872, Note_on_c, 10, 50, 0
11, 421920, Note_on_c, 10, 47, 105
11, 422112, Note_on_c, 10, 47, 0
11, 422160, Note_on_c, 10, 50, 105
11, 422352, Note_on_c, 10, 50, 0
11, 422400, Note_on_c, 10, 45, 105
11, 422592, Note_on_c, 10, 45, 0
11, 422640, Note_on_c, 10, 50, 105
11, 422832, Note_on_c, 10, 50, 0
11, 422880, Note_on_c, 10, 43, 105
11, 423072, Note_on_c, 10, 43, 0
11, 423120, Note_on_c, 10, 50, 105
11, 423312, Note_on_c, 10, 50, 0
11, 423360, Note_on_c, 10, 42, 105
11, 423552, Note_on_c, 10, 42, 0
11, 423600, Note_on_c, 10, 50, 105
11, 423792, Note_on_c, 10, 50, 0
11, 423840, Note_on_c, 10, 38, 105
11, 424032, Note_on_c, 10, 38, 0
11, 424080, Note_on_c, 10, 50, 105
11, 424272, Note_on_c, 10, 50, 0
11, 424320, Note_on_c, 10, 43, 105
11, 424512, Note_on_c, 10, 43, 0
11, 424560, Note_on_c, 10, 50, 105
11, 424752, Note_on_c, 10, 50, 0
11, 424800, Note_on_c, 10, 50, 105
11, 424992, Note_on_c, 10, 50, 0
11, 425040, Note_on_c, 10, 50, 105
11, 425232, Note_on_c, 10, 50, 0
11, 425280, Note_on_c, 10, 48, 105
11, 425472, Note_on_c, 10, 48, 0
11, 425520, Note_on_c, 10, 50, 105
11, 425712, Note_on_c, 10, 50, 0
11, 425760, Note_on_c, 10, 47, 105
11, 425952, Note_on_c, 10, 47, 0
11, 426000, Note_on_c, 10, 50, 105
11, 426192, Note_on_c, 10, 50, 0
11, 426240, Note_on_c, 10, 45, 105
11, 426432, Note_on_c, 10, 45, 0
11, 426480, Note_on_c, 10, 50, 105
11, 426672, Note_on_c, 10, 50, 0
11, 426720, Note_on_c, 10, 43, 105
11, 426912, Note_on_c, 10, 43, 0
11, 426960, Note_on_c, 10, 50, 105
11, 427152, Note_on_c, 10, 50, 0
11, 427200, Note_on_c, 10, 42, 105
11, 427392, Note_on_c, 10, 42, 0
11, 427440, Note_on_c, 10, 50, 105
11, 427632, Note_on_c, 10, 50, 0
11, 427680, Note_on_c, 10, 38, 105
11, 427872, Note_on_c, 10, 38, 0
11, 427920, Note_on_c, 10, 50, 105
11, 428112, Note_on_c, 10, 50, 0
11, 428160, Note_on_c, 10, 43, 105
11, 428352, Note_on_c, 10, 43, 0
11, 428400, Note_on_c, 10, 43, 105
11, 428592, Note_on_c, 10, 43, 0
11, 428640, Note_on_c, 10, 43, 105
11, 428832, Note_on_c, 10, 43, 0
11, 428880, Note_on_c, 10, 43, 105
11, 429072, Note_on_c, 10, 43, 0
11, 429120, Note_on_c, 10, 43, 105
11, 429312, Note_on_c, 10, 43, 0
11, 429360, Note_on_c, 10, 43, 105
11, 429552, Note_on_c, 10, 43, 0
11, 429600, Note_on_c, 10, 43, 105
11, 429792, Note_on_c, 10, 43, 0
11, 429840, Note_on_c, 10, 43, 105
11, 430032, Note_on_c, 10, 43, 0
11, 430080, Note_on_c, 10, 36, 105
11, 430272, Note_on_c, 10, 36, 0
11, 430320, Note_on_c, 10, 36, 105
11, 430512, Note_on_c, 10, 36, 0
11, 430560, Note_on_c, 10, 36, 105
11, 430752, Note_on_c, 10, 36, 0
11, 430800, Note_on_c, 10, 36, 105
11, 430992, Note_on_c, 10, 36, 0
11, 431040, Note_on_c, 10, 38, 105
11, 431232, Note_on_c, 10, 38, 0
11, 431280, Note_on_c, 10, 38, 105
11, 431472, Note_on_c, 10, 38, 0
11, 431520, Note_on_c, 10, 38, 105
11, 431712, Note_on_c, 10, 38, 0
11, 431760, Note_on_c, 10, 38, 105
11, 431952, Note_on_c, 10, 38, 0
11, 432000, Note_on_c, 10, 31, 105
11, 432384, Note_on_c, 10, 31, 0
11, 435120, Note_on_c, 10, 31, 116
11, 435276, Note_on_c, 10, 31, 0
11, 435360, Note_on_c, 10, 35, 116
11, 435516, Note_on_c, 10, 35, 0
11, 435600, Note_on_c, 10, 38, 116
11, 435756, Note_on_c, 10, 38, 0
11, 435840, Note_on_c, 10, 43, 116
11, 436152, Note_on_c, 10, 43, 0
11, 436320, Note_on_c, 10, 43, 116
11, 436632, Note_on_c, 10, 43, 0
11, 436800, Note_on_c, 10, 43, 116
11, 437112, Note_on_c, 10, 43, 0
11, 437280, Note_on_c, 10, 43, 116
11, 437592, Note_on_c, 10, 43, 0
11, 437760, Note_on_c, 10, 31, 116
11, 438144, Note_on_c, 10, 31, 0
11, 438960, Note_on_c, 10, 31, 116
11, 439116, Note_on_c, 10, 31, 0
11, 439200, Note_on_c, 10, 35, 116
11, 439356, Note_on_c, 10, 35, 0
11, 439440, Note_on_c, 10, 38, 116
11, 439596, Note_on_c, 10, 38, 0
11, 439680, Note_on_c, 10, 43, 116
11, 439992, Note_on_c, 10, 43, 0
11, 440160, Note_on_c, 10, 43, 116
11, 440472, Note_on_c, 10, 43, 0
11, 440640, Note_on_c, 10, 43, 116
11, 440952, Note_on_c, 10, 43, 0
11, 441120, Note_on_c, 10, 43, 116
11, 441432, Note_on_c, 10, 43, 0
11, 441600, Note_on_c, 10, 31, 116
11, 441984, Note_on_c, 10, 31, 0
11, 442800, Note_on_c, 10, 31, 116
11, 442956, Note_on_c, 10, 31, 0
11, 443040, Note_on_c, 10, 35, 116
11, 443196, Note_on_c, 10, 35, 0
11, 443280, Note_on_c, 10, 38, 116
11, 443436, Note_on_c, 10, 38, 0
11, 443520, Note_on_c, 10, 43, 116
11, 443880, Note_on_c, 10, 43, 0
11, 444000, Note_on_c, 10, 50, 116
11, 444360, Note_on_c, 10, 50, 0
11, 444480, Note_on_c, 10, 47, 116
11, 444840, Note_on_c, 10, 47, 0
11, 444960, Note_on_c, 10, 43, 116
11, 445320, Note_on_c, 10, 43, 0
11, 445440, Note_on_c, 10, 38, 116
11, 445800, Note_on_c, 10, 38, 0
11, 445920, Note_on_c, 10, 43, 116
11, 446280, Note_on_c, 10, 43, 0
11, 446400, Note_on_c, 10, 35, 116
11, 446760, Note_on_c, 10, 35, 0
11, 446880, Note_on_c, 10, 38, 116
11, 447240, Note_on_c, 10, 38, 0
11, 447360, Note_on_c, 10, 31, 116
11, 447744, Note_on_c, 10, 31, 0
11, 448320, Note_on_c, 10, 43, 116
11, 448704, Note_on_c, 10, 43, 0
11, 449280, Note_on_c, 10, 31, 116
11, 450048, Note_on_c, 10, 31, 0
11, 455040, Note_on_c, 10, 31, 1
11, 455808, Note_on_c, 10, 31, 0
11, 455808, End_track
12, 0, Start_track
12, 0, End_track
0, 0, End_of_file