0, 0, Header, 1, 3, 192
1, 0, Start_track
1, 0, Title_t, "Sonatina 22"
1, 0, Text_t, "By W. A. Mozart"
1, 0, Copyright_t, "Copyright \251 <Year> by <Name>"
1, 0, Copyright_t, "All Rights Reserved"
1, 0, Text_t, "Generated by NoteWorthy Composer"
1, 0, Tempo, 545454
1, 0, Key_signature, 3, "major"
1, 0, Time_signature, 3, 2, 24, 8
1, 4608, Tempo, 545454
1, 23040, Key_signature, 2, "major"
1, 41472, Tempo, 545454
1, 41472, Key_signature, 3, "major"
1, 41472, End_track
2, 0, Start_track
2, 0, MIDI_port, 0
2, 0, Title_t, "Right Hand"
2, 0, Program_c, 0, 0
2, 0, Control_c, 0, 7, 127
2, 0, Control_c, 0, 10, 64
2, 0, Note_on_c, 0, 76, 45
2, 96, Note_on_c, 0, 76, 0
2, 96, Note_on_c, 0, 73, 45
2, 192, Note_on_c, 0, 73, 0
2, 192, Note_on_c, 0, 76, 45
2, 288, Note_on_c, 0, 76, 0
2, 288, Note_on_c, 0, 73, 45
2, 382, Note_on_c, 0, 73, 0
2, 384, Note_on_c, 0, 78, 92
2, 432, Note_on_c, 0, 78, 0
2, 576, Note_on_c, 0, 74, 45
2, 672, Note_on_c, 0, 74, 0
2, 672, Note_on_c, 0, 71, 45
2, 768, Note_on_c, 0, 71, 0
2, 768, Note_on_c, 0, 74, 45
2, 864, Note_on_c, 0, 74, 0
2, 864, Note_on_c, 0, 71, 45
2, 958, Note_on_c, 0, 71, 0
2, 960, Note_on_c, 0, 76, 92
2, 1008, Note_on_c, 0, 76, 0
2, 1152, Note_on_c, 0, 73, 45
2, 1246, Note_on_c, 0, 73, 0
2, 1248, Note_on_c, 0, 69, 45
2, 1342, Note_on_c, 0, 69, 0
2, 1344, Note_on_c, 0, 64, 45
2, 1344, Note_on_c, 0, 73, 45
2, 1438, Note_on_c, 0, 64, 0
2, 1438, Note_on_c, 0, 73, 0
2, 1440, Note_on_c, 0, 69, 45
2, 1534, Note_on_c, 0, 69, 0
2, 1536, Note_on_c, 0, 66, 92
2, 1536, Note_on_c, 0, 76, 92
2, 1632, Note_on_c, 0, 66, 0
2, 1632, Note_on_c, 0, 76, 0
2, 1632, Note_on_c, 0, 71, 92
2, 1632, Note_on_c, 0, 74, 92
2, 1726, Note_on_c, 0, 71, 0
2, 1726, Note_on_c, 0, 74, 0
2, 1728, Note_on_c, 0, 69, 92
2, 1728, Note_on_c, 0, 73, 92
2, 2112, Note_on_c, 0, 69, 0
2, 2112, Note_on_c, 0, 73, 0
2, 2112, Note_on_c, 0, 68, 92
2, 2112, Note_on_c, 0, 71, 92
2, 2272, Note_on_c, 0, 68, 0
2, 2272, Note_on_c, 0, 71, 0
2, 2304, Note_on_c, 0, 69, 92
2, 2304, Note_on_c, 0, 69, 92
2, 2400, Note_on_c, 0, 69, 0
2, 2400, Note_on_c, 0, 71, 92
2, 2464, Note_on_c, 0, 69, 0
2, 2496, Note_on_c, 0, 71, 0
2, 2496, Note_on_c, 0, 64, 92
2, 2496, Note_on_c, 0, 73, 92
2, 2592, Note_on_c, 0, 73, 0
2, 2592, Note_on_c, 0, 71, 92
2, 2688, Note_on_c, 0, 71, 0
2, 2688, Note_on_c, 0, 69, 92
2, 2784, Note_on_c, 0, 69, 0
2, 2784, Note_on_c, 0, 68, 92
2, 2832, Note_on_c, 0, 64, 0
2, 2880, Note_on_c, 0, 68, 0
2, 2880, Note_on_c, 0, 66, 92
2, 2928, Note_on_c, 0, 66, 0
2, 3072, Note_on_c, 0, 68, 92
2, 3072, Note_on_c, 0, 74, 92
2, 3264, Note_on_c, 0, 68, 0
2, 3264, Note_on_c, 0, 74, 0
2, 3264, Note_on_c, 0, 69, 92
2, 3264, Note_on_c, 0, 73, 92
2, 3358, Note_on_c, 0, 69, 0
2, 3360, Note_on_c, 0, 64, 92
2, 3424, Note_on_c, 0, 73, 0
2, 3454, Note_on_c, 0, 64, 0
2, 3456, Note_on_c, 0, 64, 92
2, 3456, Note_on_c, 0, 73, 92
2, 3552, Note_on_c, 0, 64, 0
2, 3552, Note_on_c, 0, 73, 0
2, 3552, Note_on_c, 0, 62, 92
2, 3552, Note_on_c, 0, 71, 92
2, 3648, Note_on_c, 0, 62, 0
2, 3648, Note_on_c, 0, 71, 0
2, 3648, Note_on_c, 0, 61, 92
2, 3648, Note_on_c, 0, 69, 92
2, 3696, Note_on_c, 0, 61, 0
2, 3696, Note_on_c, 0, 69, 0
2, 3840, Note_on_c, 0, 59, 92
2, 3840, Note_on_c, 0, 68, 92
2, 3888, Note_on_c, 0, 59, 0
2, 3888, Note_on_c, 0, 68, 0
2, 4032, Note_on_c, 0, 61, 92
2, 4032, Note_on_c, 0, 69, 92
2, 4368, Note_on_c, 0, 61, 0
2, 4368, Note_on_c, 0, 69, 0
2, 4608, Note_on_c, 0, 76, 45
2, 4704, Note_on_c, 0, 76, 0
2, 4704, Note_on_c, 0, 73, 45
2, 4800, Note_on_c, 0, 73, 0
2, 4800, Note_on_c, 0, 76, 45
2, 4896, Note_on_c, 0, 76, 0
2, 4896, Note_on_c, 0, 73, 45
2, 4990, Note_on_c, 0, 73, 0
2, 4992, Note_on_c, 0, 78, 92
2, 5040, Note_on_c, 0, 78, 0
2, 5184, Note_on_c, 0, 74, 45
2, 5280, Note_on_c, 0, 74, 0
2, 5280, Note_on_c, 0, 71, 45
2, 5376, Note_on_c, 0, 71, 0
2, 5376, Note_on_c, 0, 74, 45
2, 5472, Note_on_c, 0, 74, 0
2, 5472, Note_on_c, 0, 71, 45
2, 5566, Note_on_c, 0, 71, 0
2, 5568, Note_on_c, 0, 76, 92
2, 5616, Note_on_c, 0, 76, 0
2, 5760, Note_on_c, 0, 73, 45
2, 5854, Note_on_c, 0, 73, 0
2, 5856, Note_on_c, 0, 69, 45
2, 5950, Note_on_c, 0, 69, 0
2, 5952, Note_on_c, 0, 64, 45
2, 5952, Note_on_c, 0, 73, 45
2, 6046, Note_on_c, 0, 64, 0
2, 6046, Note_on_c, 0, 73, 0
2, 6048, Note_on_c, 0, 69, 45
2, 6142, Note_on_c, 0, 69, 0
2, 6144, Note_on_c, 0, 66, 92
2, 6144, Note_on_c, 0, 76, 92
2, 6240, Note_on_c, 0, 66, 0
2, 6240, Note_on_c, 0, 76, 0
2, 6240, Note_on_c, 0, 71, 92
2, 6240, Note_on_c, 0, 74, 92
2, 6334, Note_on_c, 0, 71, 0
2, 6334, Note_on_c, 0, 74, 0
2, 6336, Note_on_c, 0, 69, 92
2, 6336, Note_on_c, 0, 73, 92
2, 6720, Note_on_c, 0, 69, 0
2, 6720, Note_on_c, 0, 73, 0
2, 6720, Note_on_c, 0, 68, 92
2, 6720, Note_on_c, 0, 71, 92
2, 6880, Note_on_c, 0, 68, 0
2, 6880, Note_on_c, 0, 71, 0
2, 6912, Note_on_c, 0, 69, 92
2, 6912, Note_on_c, 0, 69, 92
2, 7008, Note_on_c, 0, 69, 0
2, 7008, Note_on_c, 0, 71, 92
2, 7072, Note_on_c, 0, 69, 0
2, 7104, Note_on_c, 0, 71, 0
2, 7104, Note_on_c, 0, 64, 92
2, 7104, Note_on_c, 0, 73, 92
2, 7200, Note_on_c, 0, 73, 0
2, 7200, Note_on_c, 0, 71, 92
2, 7296, Note_on_c, 0, 71, 0
2, 7296, Note_on_c, 0, 69, 92
2, 7392, Note_on_c, 0, 69, 0
2, 7392, Note_on_c, 0, 68, 92
2, 7440, Note_on_c, 0, 64, 0
2, 7488, Note_on_c, 0, 68, 0
2, 7488, Note_on_c, 0, 66, 92
2, 7536, Note_on_c, 0, 66, 0
2, 7680, Note_on_c, 0, 68, 92
2, 7680, Note_on_c, 0, 74, 92
2, 7872, Note_on_c, 0, 68, 0
2, 7872, Note_on_c, 0, 74, 0
2, 7872, Note_on_c, 0, 69, 92
2, 7872, Note_on_c, 0, 73, 92
2, 7966, Note_on_c, 0, 69, 0
2, 7968, Note_on_c, 0, 64, 92
2, 8032, Note_on_c, 0, 73, 0
2, 8062, Note_on_c, 0, 64, 0
2, 8064, Note_on_c, 0, 64, 92
2, 8064, Note_on_c, 0, 73, 92
2, 8160, Note_on_c, 0, 64, 0
2, 8160, Note_on_c, 0, 73, 0
2, 8160, Note_on_c, 0, 62, 92
2, 8160, Note_on_c, 0, 71, 92
2, 8256, Note_on_c, 0, 62, 0
2, 8256, Note_on_c, 0, 71, 0
2, 8256, Note_on_c, 0, 61, 92
2, 8256, Note_on_c, 0, 69, 92
2, 8304, Note_on_c, 0, 61, 0
2, 8304, Note_on_c, 0, 69, 0
2, 8448, Note_on_c, 0, 59, 92
2, 8448, Note_on_c, 0, 68, 92
2, 8496, Note_on_c, 0, 59, 0
2, 8496, Note_on_c, 0, 68, 0
2, 8640, Note_on_c, 0, 61, 92
2, 8640, Note_on_c, 0, 69, 92
2, 8976, Note_on_c, 0, 61, 0
2, 8976, Note_on_c, 0, 69, 0
2, 9216, Note_on_c, 0, 68, 45
2, 9216, Note_on_c, 0, 71, 45
2, 9312, Note_on_c, 0, 68, 0
2, 9312, Note_on_c, 0, 71, 0
2, 9312, Note_on_c, 0, 64, 45
2, 9408, Note_on_c, 0, 64, 0
2, 9408, Note_on_c, 0, 68, 45
2, 9408, Note_on_c, 0, 71, 45
2, 9504, Note_on_c, 0, 68, 0
2, 9504, Note_on_c, 0, 71, 0
2, 9504, Note_on_c, 0, 64, 45
2, 9598, Note_on_c, 0, 64, 0
2, 9600, Note_on_c, 0, 69, 45
2, 9600, Note_on_c, 0, 73, 45
2, 9696, Note_on_c, 0, 69, 0
2, 9696, Note_on_c, 0, 73, 0
2, 9696, Note_on_c, 0, 64, 45
2, 9790, Note_on_c, 0, 64, 0
2, 9792, Note_on_c, 0, 73, 45
2, 9792, Note_on_c, 0, 76, 45
2, 9984, Note_on_c, 0, 73, 0
2, 9984, Note_on_c, 0, 76, 0
2, 9984, Note_on_c, 0, 71, 45
2, 9984, Note_on_c, 0, 74, 45
2, 10144, Note_on_c, 0, 71, 0
2, 10144, Note_on_c, 0, 74, 0
2, 10368, Note_on_c, 0, 73, 45
2, 10464, Note_on_c, 0, 73, 0
2, 10464, Note_on_c, 0, 74, 45
2, 10560, Note_on_c, 0, 74, 0
2, 10560, Note_on_c, 0, 75, 45
2, 10656, Note_on_c, 0, 75, 0
2, 10656, Note_on_c, 0, 76, 45
2, 10752, Note_on_c, 0, 76, 0
2, 10752, Note_on_c, 0, 74, 45
2, 10848, Note_on_c, 0, 74, 0
2, 10848, Note_on_c, 0, 73, 45
2, 10942, Note_on_c, 0, 73, 0
2, 10944, Note_on_c, 0, 73, 45
2, 10944, Note_on_c, 0, 76, 45
2, 11088, Note_on_c, 0, 73, 0
2, 11088, Note_on_c, 0, 76, 0
2, 11088, Note_on_c, 0, 69, 45
2, 11088, Note_on_c, 0, 73, 45
2, 11136, Note_on_c, 0, 69, 0
2, 11136, Note_on_c, 0, 73, 0
2, 11136, Note_on_c, 0, 68, 45
2, 11136, Note_on_c, 0, 71, 45
2, 11296, Note_on_c, 0, 68, 0
2, 11296, Note_on_c, 0, 71, 0
2, 11520, Note_on_c, 0, 76, 45
2, 11616, Note_on_c, 0, 76, 0
2, 11616, Note_on_c, 0, 73, 45
2, 11712, Note_on_c, 0, 73, 0
2, 11712, Note_on_c, 0, 76, 45
2, 11808, Note_on_c, 0, 76, 0
2, 11808, Note_on_c, 0, 73, 45
2, 11902, Note_on_c, 0, 73, 0
2, 11904, Note_on_c, 0, 78, 92
2, 11952, Note_on_c, 0, 78, 0
2, 12096, Note_on_c, 0, 74, 45
2, 12192, Note_on_c, 0, 74, 0
2, 12192, Note_on_c, 0, 71, 45
2, 12288, Note_on_c, 0, 71, 0
2, 12288, Note_on_c, 0, 74, 45
2, 12384, Note_on_c, 0, 74, 0
2, 12384, Note_on_c, 0, 71, 45
2, 12478, Note_on_c, 0, 71, 0
2, 12480, Note_on_c, 0, 76, 92
2, 12528, Note_on_c, 0, 76, 0
2, 12672, Note_on_c, 0, 73, 45
2, 12768, Note_on_c, 0, 73, 0
2, 12768, Note_on_c, 0, 69, 45
2, 12864, Note_on_c, 0, 69, 0
2, 12864, Note_on_c, 0, 73, 45
2, 12960, Note_on_c, 0, 73, 0
2, 12960, Note_on_c, 0, 69, 45
2, 13054, Note_on_c, 0, 69, 0
2, 13056, Note_on_c, 0, 66, 92
2, 13056, Note_on_c, 0, 76, 92
2, 13152, Note_on_c, 0, 66, 0
2, 13152, Note_on_c, 0, 76, 0
2, 13152, Note_on_c, 0, 71, 92
2, 13152, Note_on_c, 0, 74, 92
2, 13246, Note_on_c, 0, 71, 0
2, 13246, Note_on_c, 0, 74, 0
2, 13248, Note_on_c, 0, 69, 92
2, 13248, Note_on_c, 0, 73, 92
2, 13824, Note_on_c, 0, 69, 0
2, 13824, Note_on_c, 0, 73, 0
2, 13824, Note_on_c, 0, 68, 92
2, 13824, Note_on_c, 0, 71, 92
2, 13918, Note_on_c, 0, 68, 0
2, 13918, Note_on_c, 0, 71, 0
2, 13920, Note_on_c, 0, 73, 94
2, 14014, Note_on_c, 0, 73, 0
2, 14016, Note_on_c, 0, 74, 96
2, 14110, Note_on_c, 0, 74, 0
2, 14112, Note_on_c, 0, 76, 99
2, 14206, Note_on_c, 0, 76, 0
2, 14208, Note_on_c, 0, 78, 102
2, 14302, Note_on_c, 0, 78, 0
2, 14304, Note_on_c, 0, 80, 105
2, 14398, Note_on_c, 0, 80, 0
2, 14400, Note_on_c, 0, 81, 108
2, 14560, Note_on_c, 0, 81, 0
2, 14592, Note_on_c, 0, 64, 108
2, 14592, Note_on_c, 0, 74, 108
2, 14640, Note_on_c, 0, 64, 0
2, 14640, Note_on_c, 0, 74, 0
2, 14928, Note_on_c, 0, 64, 45
2, 14928, Note_on_c, 0, 73, 45
2, 14974, Note_on_c, 0, 64, 0
2, 14974, Note_on_c, 0, 73, 0
2, 14976, Note_on_c, 0, 64, 45
2, 14976, Note_on_c, 0, 73, 45
2, 15072, Note_on_c, 0, 64, 0
2, 15072, Note_on_c, 0, 73, 0
2, 15072, Note_on_c, 0, 62, 45
2, 15072, Note_on_c, 0, 71, 45
2, 15168, Note_on_c, 0, 62, 0
2, 15168, Note_on_c, 0, 71, 0
2, 15168, Note_on_c, 0, 61, 45
2, 15168, Note_on_c, 0, 69, 45
2, 15216, Note_on_c, 0, 61, 0
2, 15216, Note_on_c, 0, 69, 0
2, 15360, Note_on_c, 0, 59, 45
2, 15360, Note_on_c, 0, 68, 45
2, 15408, Note_on_c, 0, 59, 0
2, 15408, Note_on_c, 0, 68, 0
2, 15552, Note_on_c, 0, 61, 45
2, 15552, Note_on_c, 0, 69, 45
2, 15888, Note_on_c, 0, 61, 0
2, 15888, Note_on_c, 0, 69, 0
2, 16128, Note_on_c, 0, 68, 45
2, 16128, Note_on_c, 0, 71, 45
2, 16224, Note_on_c, 0, 68, 0
2, 16224, Note_on_c, 0, 71, 0
2, 16224, Note_on_c, 0, 64, 45
2, 16320, Note_on_c, 0, 64, 0
2, 16320, Note_on_c, 0, 68, 45
2, 16320, Note_on_c, 0, 71, 45
2, 16416, Note_on_c, 0, 68, 0
2, 16416, Note_on_c, 0, 71, 0
2, 16416, Note_on_c, 0, 64, 45
2, 16510, Note_on_c, 0, 64, 0
2, 16512, Note_on_c, 0, 69, 45
2, 16512, Note_on_c, 0, 73, 45
2, 16608, Note_on_c, 0, 69, 0
2, 16608, Note_on_c, 0, 73, 0
2, 16608, Note_on_c, 0, 64, 45
2, 16702, Note_on_c, 0, 64, 0
2, 16704, Note_on_c, 0, 73, 45
2, 16704, Note_on_c, 0, 76, 45
2, 16896, Note_on_c, 0, 73, 0
2, 16896, Note_on_c, 0, 76, 0
2, 16896, Note_on_c, 0, 71, 45
2, 16896, Note_on_c, 0, 74, 45
2, 17056, Note_on_c, 0, 71, 0
2, 17056, Note_on_c, 0, 74, 0
2, 17280, Note_on_c, 0, 73, 45
2, 17376, Note_on_c, 0, 73, 0
2, 17376, Note_on_c, 0, 74, 45
2, 17472, Note_on_c, 0, 74, 0
2, 17472, Note_on_c, 0, 75, 45
2, 17568, Note_on_c, 0, 75, 0
2, 17568, Note_on_c, 0, 76, 45
2, 17664, Note_on_c, 0, 76, 0
2, 17664, Note_on_c, 0, 74, 45
2, 17760, Note_on_c, 0, 74, 0
2, 17760, Note_on_c, 0, 73, 45
2, 17854, Note_on_c, 0, 73, 0
2, 17856, Note_on_c, 0, 73, 45
2, 17856, Note_on_c, 0, 76, 45
2, 18000, Note_on_c, 0, 73, 0
2, 18000, Note_on_c, 0, 76, 0
2, 18000, Note_on_c, 0, 69, 45
2, 18000, Note_on_c, 0, 73, 45
2, 18048, Note_on_c, 0, 69, 0
2, 18048, Note_on_c, 0, 73, 0
2, 18048, Note_on_c, 0, 68, 45
2, 18048, Note_on_c, 0, 71, 45
2, 18208, Note_on_c, 0, 68, 0
2, 18208, Note_on_c, 0, 71, 0
2, 18432, Note_on_c, 0, 76, 45
2, 18528, Note_on_c, 0, 76, 0
2, 18528, Note_on_c, 0, 73, 45
2, 18624, Note_on_c, 0, 73, 0
2, 18624, Note_on_c, 0, 76, 45
2, 18720, Note_on_c, 0, 76, 0
2, 18720, Note_on_c, 0, 73, 45
2, 18814, Note_on_c, 0, 73, 0
2, 18816, Note_on_c, 0, 78, 92
2, 18864, Note_on_c, 0, 78, 0
2, 19008, Note_on_c, 0, 74, 45
2, 19104, Note_on_c, 0, 74, 0
2, 19104, Note_on_c, 0, 71, 45
2, 19200, Note_on_c, 0, 71, 0
2, 19200, Note_on_c, 0, 74, 45
2, 19296, Note_on_c, 0, 74, 0
2, 19296, Note_on_c, 0, 71, 45
2, 19390, Note_on_c, 0, 71, 0
2, 19392, Note_on_c, 0, 76, 92
2, 19440, Note_on_c, 0, 76, 0
2, 19584, Note_on_c, 0, 73, 45
2, 19680, Note_on_c, 0, 73, 0
2, 19680, Note_on_c, 0, 69, 45
2, 19776, Note_on_c, 0, 69, 0
2, 19776, Note_on_c, 0, 73, 45
2, 19872, Note_on_c, 0, 73, 0
2, 19872, Note_on_c, 0, 69, 45
2, 19966, Note_on_c, 0, 69, 0
2, 19968, Note_on_c, 0, 66, 92
2, 19968, Note_on_c, 0, 76, 92
2, 20064, Note_on_c, 0, 66, 0
2, 20064, Note_on_c, 0, 76, 0
2, 20064, Note_on_c, 0, 71, 92
2, 20064, Note_on_c, 0, 74, 92
2, 20158, Note_on_c, 0, 71, 0
2, 20158, Note_on_c, 0, 74, 0
2, 20160, Note_on_c, 0, 69, 92
2, 20160, Note_on_c, 0, 73, 92
2, 20736, Note_on_c, 0, 69, 0
2, 20736, Note_on_c, 0, 73, 0
2, 20736, Note_on_c, 0, 68, 92
2, 20736, Note_on_c, 0, 71, 92
2, 20830, Note_on_c, 0, 68, 0
2, 20830, Note_on_c, 0, 71, 0
2, 20832, Note_on_c, 0, 73, 94
2, 20926, Note_on_c, 0, 73, 0
2, 20928, Note_on_c, 0, 74, 96
2, 21022, Note_on_c, 0, 74, 0
2, 21024, Note_on_c, 0, 76, 99
2, 21118, Note_on_c, 0, 76, 0
2, 21120, Note_on_c, 0, 78, 102
2, 21214, Note_on_c, 0, 78, 0
2, 21216, Note_on_c, 0, 80, 105
2, 21310, Note_on_c, 0, 80, 0
2, 21312, Note_on_c, 0, 81, 108
2, 21472, Note_on_c, 0, 81, 0
2, 21504, Note_on_c, 0, 64, 108
2, 21504, Note_on_c, 0, 74, 108
2, 21552, Note_on_c, 0, 64, 0
2, 21552, Note_on_c, 0, 74, 0
2, 21840, Note_on_c, 0, 64, 45
2, 21840, Note_on_c, 0, 73, 45
2, 21886, Note_on_c, 0, 64, 0
2, 21886, Note_on_c, 0, 73, 0
2, 21888, Note_on_c, 0, 64, 45
2, 21888, Note_on_c, 0, 73, 45
2, 21984, Note_on_c, 0, 64, 0
2, 21984, Note_on_c, 0, 73, 0
2, 21984, Note_on_c, 0, 62, 45
2, 21984, Note_on_c, 0, 71, 45
2, 22080, Note_on_c, 0, 62, 0
2, 22080, Note_on_c, 0, 71, 0
2, 22080, Note_on_c, 0, 61, 45
2, 22080, Note_on_c, 0, 69, 45
2, 22128, Note_on_c, 0, 61, 0
2, 22128, Note_on_c, 0, 69, 0
2, 22272, Note_on_c, 0, 59, 45
2, 22272, Note_on_c, 0, 68, 45
2, 22320, Note_on_c, 0, 59, 0
2, 22320, Note_on_c, 0, 68, 0
2, 22464, Note_on_c, 0, 61, 45
2, 22464, Note_on_c, 0, 69, 45
2, 22800, Note_on_c, 0, 61, 0
2, 22800, Note_on_c, 0, 69, 0
2, 23040, Note_on_c, 0, 69, 45
2, 23200, Note_on_c, 0, 69, 0
2, 23232, Note_on_c, 0, 81, 45
2, 23424, Note_on_c, 0, 81, 0
2, 23424, Note_on_c, 0, 78, 45
2, 23584, Note_on_c, 0, 78, 0
2, 23616, Note_on_c, 0, 76, 45
2, 23680, Note_on_c, 0, 76, 0
2, 23680, Note_on_c, 0, 74, 45
2, 23806, Note_on_c, 0, 74, 0
2, 23808, Note_on_c, 0, 74, 45
2, 23856, Note_on_c, 0, 74, 0
2, 24144, Note_on_c, 0, 74, 45
2, 24190, Note_on_c, 0, 74, 0
2, 24192, Note_on_c, 0, 79, 45
2, 24576, Note_on_c, 0, 79, 0
2, 24576, Note_on_c, 0, 73, 45
2, 24736, Note_on_c, 0, 73, 0
2, 24768, Note_on_c, 0, 76, 45
2, 24832, Note_on_c, 0, 76, 0
2, 24832, Note_on_c, 0, 74, 45
2, 24958, Note_on_c, 0, 74, 0
2, 24960, Note_on_c, 0, 74, 45
2, 25008, Note_on_c, 0, 74, 0
2, 25296, Note_on_c, 0, 74, 45
2, 25342, Note_on_c, 0, 74, 0
2, 25344, Note_on_c, 0, 79, 45
2, 25728, Note_on_c, 0, 79, 0
2, 25728, Note_on_c, 0, 73, 45
2, 25888, Note_on_c, 0, 73, 0
2, 25920, Note_on_c, 0, 74, 45
2, 26016, Note_on_c, 0, 74, 0
2, 26016, Note_on_c, 0, 78, 45
2, 26112, Note_on_c, 0, 78, 0
2, 26112, Note_on_c, 0, 76, 45
2, 26208, Note_on_c, 0, 76, 0
2, 26208, Note_on_c, 0, 74, 45
2, 26304, Note_on_c, 0, 74, 0
2, 26304, Note_on_c, 0, 73, 45
2, 26400, Note_on_c, 0, 73, 0
2, 26400, Note_on_c, 0, 71, 45
2, 26494, Note_on_c, 0, 71, 0
2, 26496, Note_on_c, 0, 69, 45
2, 26688, Note_on_c, 0, 69, 0
2, 26688, Note_on_c, 0, 64, 45
2, 26688, Note_on_c, 0, 67, 45
2, 26880, Note_on_c, 0, 64, 0
2, 26880, Note_on_c, 0, 67, 0
2, 26880, Note_on_c, 0, 62, 45
2, 26880, Note_on_c, 0, 66, 45
2, 27040, Note_on_c, 0, 62, 0
2, 27040, Note_on_c, 0, 66, 0
2, 27072, Note_on_c, 0, 62, 45
2, 27072, Note_on_c, 0, 66, 45
2, 27264, Note_on_c, 0, 62, 0
2, 27264, Note_on_c, 0, 66, 0
2, 27264, Note_on_c, 0, 61, 45
2, 27264, Note_on_c, 0, 64, 45
2, 27424, Note_on_c, 0, 61, 0
2, 27424, Note_on_c, 0, 64, 0
2, 27648, Note_on_c, 0, 69, 45
2, 27808, Note_on_c, 0, 69, 0
2, 27840, Note_on_c, 0, 81, 45
2, 28032, Note_on_c, 0, 81, 0
2, 28032, Note_on_c, 0, 78, 45
2, 28192, Note_on_c, 0, 78, 0
2, 28224, Note_on_c, 0, 76, 45
2, 28288, Note_on_c, 0, 76, 0
2, 28288, Note_on_c, 0, 74, 45
2, 28414, Note_on_c, 0, 74, 0
2, 28416, Note_on_c, 0, 74, 45
2, 28464, Note_on_c, 0, 74, 0
2, 28752, Note_on_c, 0, 74, 45
2, 28798, Note_on_c, 0, 74, 0
2, 28800, Note_on_c, 0, 79, 45
2, 29184, Note_on_c, 0, 79, 0
2, 29184, Note_on_c, 0, 73, 45
2, 29344, Note_on_c, 0, 73, 0
2, 29376, Note_on_c, 0, 76, 45
2, 29440, Note_on_c, 0, 76, 0
2, 29440, Note_on_c, 0, 74, 45
2, 29566, Note_on_c, 0, 74, 0
2, 29568, Note_on_c, 0, 74, 45
2, 29616, Note_on_c, 0, 74, 0
2, 29904, Note_on_c, 0, 74, 45
2, 29950, Note_on_c, 0, 74, 0
2, 29952, Note_on_c, 0, 79, 45
2, 30336, Note_on_c, 0, 79, 0
2, 30336, Note_on_c, 0, 73, 45
2, 30496, Note_on_c, 0, 73, 0
2, 30528, Note_on_c, 0, 74, 45
2, 30624, Note_on_c, 0, 74, 0
2, 30624, Note_on_c, 0, 78, 45
2, 30720, Note_on_c, 0, 78, 0
2, 30720, Note_on_c, 0, 76, 45
2, 30816, Note_on_c, 0, 76, 0
2, 30816, Note_on_c, 0, 74, 45
2, 30912, Note_on_c, 0, 74, 0
2, 30912, Note_on_c, 0, 73, 45
2, 31008, Note_on_c, 0, 73, 0
2, 31008, Note_on_c, 0, 71, 45
2, 31102, Note_on_c, 0, 71, 0
2, 31104, Note_on_c, 0, 69, 45
2, 31296, Note_on_c, 0, 69, 0
2, 31296, Note_on_c, 0, 64, 45
2, 31296, Note_on_c, 0, 67, 45
2, 31488, Note_on_c, 0, 64, 0
2, 31488, Note_on_c, 0, 67, 0
2, 31488, Note_on_c, 0, 62, 45
2, 31488, Note_on_c, 0, 66, 45
2, 31648, Note_on_c, 0, 62, 0
2, 31648, Note_on_c, 0, 66, 0
2, 31680, Note_on_c, 0, 62, 45
2, 31680, Note_on_c, 0, 66, 45
2, 31872, Note_on_c, 0, 62, 0
2, 31872, Note_on_c, 0, 66, 0
2, 31872, Note_on_c, 0, 61, 45
2, 31872, Note_on_c, 0, 64, 45
2, 32032, Note_on_c, 0, 61, 0
2, 32032, Note_on_c, 0, 64, 0
2, 32256, Note_on_c, 0, 69, 45
2, 32448, Note_on_c, 0, 69, 0
2, 32448, Note_on_c, 0, 73, 45
2, 32640, Note_on_c, 0, 73, 0
2, 32640, Note_on_c, 0, 76, 60
2, 32800, Note_on_c, 0, 76, 0
2, 32832, Note_on_c, 0, 64, 75
2, 33168, Note_on_c, 0, 64, 0
2, 33216, Note_on_c, 0, 64, 75
2, 33280, Note_on_c, 0, 64, 0
2, 33280, Note_on_c, 0, 66, 75
2, 33344, Note_on_c, 0, 66, 0
2, 33344, Note_on_c, 0, 68, 75
2, 33406, Note_on_c, 0, 68, 0
2, 33408, Note_on_c, 0, 69, 75
2, 33600, Note_on_c, 0, 69, 0
2, 33600, Note_on_c, 0, 73, 75
2, 33792, Note_on_c, 0, 73, 0
2, 33792, Note_on_c, 0, 76, 75
2, 33952, Note_on_c, 0, 76, 0
2, 33984, Note_on_c, 0, 64, 75
2, 34320, Note_on_c, 0, 64, 0
2, 34368, Note_on_c, 0, 64, 75
2, 34432, Note_on_c, 0, 64, 0
2, 34432, Note_on_c, 0, 66, 75
2, 34496, Note_on_c, 0, 66, 0
2, 34496, Note_on_c, 0, 68, 75
2, 34558, Note_on_c, 0, 68, 0
2, 34560, Note_on_c, 0, 69, 75
2, 34752, Note_on_c, 0, 69, 0
2, 34752, Note_on_c, 0, 71, 75
2, 34944, Note_on_c, 0, 71, 0
2, 34944, Note_on_c, 0, 73, 75
2, 35104, Note_on_c, 0, 73, 0
2, 35136, Note_on_c, 0, 74, 75
2, 35328, Note_on_c, 0, 74, 0
2, 35328, Note_on_c, 0, 76, 75
2, 35520, Note_on_c, 0, 76, 0
2, 35520, Note_on_c, 0, 78, 75
2, 35680, Note_on_c, 0, 78, 0
2, 35712, Note_on_c, 0, 76, 75
2, 35856, Note_on_c, 0, 76, 0
2, 35856, Note_on_c, 0, 78, 75
2, 35902, Note_on_c, 0, 78, 0
2, 35904, Note_on_c, 0, 69, 75
2, 36096, Note_on_c, 0, 69, 0
2, 36096, Note_on_c, 0, 68, 75
2, 36256, Note_on_c, 0, 68, 0
2, 36288, Note_on_c, 0, 69, 75
2, 36320, Note_on_c, 0, 69, 0
2, 36384, Note_on_c, 0, 73, 75
2, 36480, Note_on_c, 0, 73, 0
2, 36480, Note_on_c, 0, 74, 69
2, 36576, Note_on_c, 0, 74, 0
2, 36576, Note_on_c, 0, 76, 63
2, 36672, Note_on_c, 0, 76, 0
2, 36672, Note_on_c, 0, 78, 57
2, 36768, Note_on_c, 0, 78, 0
2, 36768, Note_on_c, 0, 79, 51
2, 36862, Note_on_c, 0, 79, 0
2, 36864, Note_on_c, 0, 81, 45
2, 37200, Note_on_c, 0, 81, 0
2, 37248, Note_on_c, 0, 79, 45
2, 37376, Note_on_c, 0, 79, 0
2, 37376, Note_on_c, 0, 78, 45
2, 37438, Note_on_c, 0, 78, 0
2, 37440, Note_on_c, 0, 76, 45
2, 37504, Note_on_c, 0, 76, 0
2, 37504, Note_on_c, 0, 74, 45
2, 37630, Note_on_c, 0, 74, 0
2, 37632, Note_on_c, 0, 74, 45
2, 37680, Note_on_c, 0, 74, 0
2, 37968, Note_on_c, 0, 74, 45
2, 38000, Note_on_c, 0, 74, 0
2, 38016, Note_on_c, 0, 79, 45
2, 38400, Note_on_c, 0, 79, 0
2, 38400, Note_on_c, 0, 73, 45
2, 38560, Note_on_c, 0, 73, 0
2, 38592, Note_on_c, 0, 76, 45
2, 38656, Note_on_c, 0, 76, 0
2, 38656, Note_on_c, 0, 74, 45
2, 38782, Note_on_c, 0, 74, 0
2, 38784, Note_on_c, 0, 74, 45
2, 38832, Note_on_c, 0, 74, 0
2, 39120, Note_on_c, 0, 74, 45
2, 39166, Note_on_c, 0, 74, 0
2, 39168, Note_on_c, 0, 83, 45
2, 39552, Note_on_c, 0, 83, 0
2, 39552, Note_on_c, 0, 73, 45
2, 39712, Note_on_c, 0, 73, 0
2, 39744, Note_on_c, 0, 74, 45
2, 39840, Note_on_c, 0, 74, 0
2, 39840, Note_on_c, 0, 78, 45
2, 39936, Note_on_c, 0, 78, 0
2, 39936, Note_on_c, 0, 76, 45
2, 40032, Note_on_c, 0, 76, 0
2, 40032, Note_on_c, 0, 74, 45
2, 40128, Note_on_c, 0, 74, 0
2, 40128, Note_on_c, 0, 73, 45
2, 40224, Note_on_c, 0, 73, 0
2, 40224, Note_on_c, 0, 71, 45
2, 40318, Note_on_c, 0, 71, 0
2, 40320, Note_on_c, 0, 69, 45
2, 40512, Note_on_c, 0, 69, 0
2, 40512, Note_on_c, 0, 62, 45
2, 40512, Note_on_c, 0, 66, 45
2, 40704, Note_on_c, 0, 62, 0
2, 40704, Note_on_c, 0, 66, 0
2, 40704, Note_on_c, 0, 61, 45
2, 40704, Note_on_c, 0, 64, 45
2, 40864, Note_on_c, 0, 61, 0
2, 40864, Note_on_c, 0, 64, 0
2, 40896, Note_on_c, 0, 62, 45
2, 41232, Note_on_c, 0, 62, 0
2, 41472, Note_on_c, 0, 76, 45
2, 41568, Note_on_c, 0, 76, 0
2, 41568, Note_on_c, 0, 73, 45
2, 41664, Note_on_c, 0, 73, 0
2, 41664, Note_on_c, 0, 76, 45
2, 41760, Note_on_c, 0, 76, 0
2, 41760, Note_on_c, 0, 73, 45
2, 41854, Note_on_c, 0, 73, 0
2, 41856, Note_on_c, 0, 78, 92
2, 41904, Note_on_c, 0, 78, 0
2, 42048, Note_on_c, 0, 74, 45
2, 42144, Note_on_c, 0, 74, 0
2, 42144, Note_on_c, 0, 71, 45
2, 42240, Note_on_c, 0, 71, 0
2, 42240, Note_on_c, 0, 74, 45
2, 42336, Note_on_c, 0, 74, 0
2, 42336, Note_on_c, 0, 71, 45
2, 42430, Note_on_c, 0, 71, 0
2, 42432, Note_on_c, 0, 76, 92
2, 42480, Note_on_c, 0, 76, 0
2, 42624, Note_on_c, 0, 73, 45
2, 42718, Note_on_c, 0, 73, 0
2, 42720, Note_on_c, 0, 69, 45
2, 42814, Note_on_c, 0, 69, 0
2, 42816, Note_on_c, 0, 64, 45
2, 42816, Note_on_c, 0, 73, 45
2, 42910, Note_on_c, 0, 64, 0
2, 42910, Note_on_c, 0, 73, 0
2, 42912, Note_on_c, 0, 69, 45
2, 43006, Note_on_c, 0, 69, 0
2, 43008, Note_on_c, 0, 66, 92
2, 43008, Note_on_c, 0, 76, 92
2, 43104, Note_on_c, 0, 66, 0
2, 43104, Note_on_c, 0, 76, 0
2, 43104, Note_on_c, 0, 71, 92
2, 43104, Note_on_c, 0, 74, 92
2, 43198, Note_on_c, 0, 71, 0
2, 43198, Note_on_c, 0, 74, 0
2, 43200, Note_on_c, 0, 69, 92
2, 43200, Note_on_c, 0, 73, 92
2, 43584, Note_on_c, 0, 69, 0
2, 43584, Note_on_c, 0, 73, 0
2, 43584, Note_on_c, 0, 68, 92
2, 43584, Note_on_c, 0, 71, 92
2, 43744, Note_on_c, 0, 68, 0
2, 43744, Note_on_c, 0, 71, 0
2, 43776, Note_on_c, 0, 69, 92
2, 43776, Note_on_c, 0, 69, 92
2, 43872, Note_on_c, 0, 69, 0
2, 43872, Note_on_c, 0, 71, 92
2, 43936, Note_on_c, 0, 69, 0
2, 43968, Note_on_c, 0, 71, 0
2, 43968, Note_on_c, 0, 64, 92
2, 43968, Note_on_c, 0, 73, 92
2, 44064, Note_on_c, 0, 73, 0
2, 44064, Note_on_c, 0, 71, 92
2, 44160, Note_on_c, 0, 71, 0
2, 44160, Note_on_c, 0, 69, 92
2, 44256, Note_on_c, 0, 69, 0
2, 44256, Note_on_c, 0, 68, 92
2, 44304, Note_on_c, 0, 64, 0
2, 44352, Note_on_c, 0, 68, 0
2, 44352, Note_on_c, 0, 66, 92
2, 44400, Note_on_c, 0, 66, 0
2, 44544, Note_on_c, 0, 68, 92
2, 44544, Note_on_c, 0, 74, 92
2, 44736, Note_on_c, 0, 68, 0
2, 44736, Note_on_c, 0, 74, 0
2, 44736, Note_on_c, 0, 69, 92
2, 44736, Note_on_c, 0, 73, 92
2, 44830, Note_on_c, 0, 69, 0
2, 44832, Note_on_c, 0, 64, 92
2, 44896, Note_on_c, 0, 73, 0
2, 44926, Note_on_c, 0, 64, 0
2, 44928, Note_on_c, 0, 64, 92
2, 44928, Note_on_c, 0, 73, 92
2, 45024, Note_on_c, 0, 64, 0
2, 45024, Note_on_c, 0, 73, 0
2, 45024, Note_on_c, 0, 62, 92
2, 45024, Note_on_c, 0, 71, 92
2, 45120, Note_on_c, 0, 62, 0
2, 45120, Note_on_c, 0, 71, 0
2, 45120, Note_on_c, 0, 61, 92
2, 45120, Note_on_c, 0, 69, 92
2, 45168, Note_on_c, 0, 61, 0
2, 45168, Note_on_c, 0, 69, 0
2, 45312, Note_on_c, 0, 59, 92
2, 45312, Note_on_c, 0, 68, 92
2, 45360, Note_on_c, 0, 59, 0
2, 45360, Note_on_c, 0, 68, 0
2, 45504, Note_on_c, 0, 61, 92
2, 45504, Note_on_c, 0, 69, 92
2, 45840, Note_on_c, 0, 61, 0
2, 45840, Note_on_c, 0, 69, 0
2, 46080, Note_on_c, 0, 68, 45
2, 46080, Note_on_c, 0, 71, 45
2, 46176, Note_on_c, 0, 68, 0
2, 46176, Note_on_c, 0, 71, 0
2, 46176, Note_on_c, 0, 64, 45
2, 46272, Note_on_c, 0, 64, 0
2, 46272, Note_on_c, 0, 68, 45
2, 46272, Note_on_c, 0, 71, 45
2, 46368, Note_on_c, 0, 68, 0
2, 46368, Note_on_c, 0, 71, 0
2, 46368, Note_on_c, 0, 64, 45
2, 46462, Note_on_c, 0, 64, 0
2, 46464, Note_on_c, 0, 69, 45
2, 46464, Note_on_c, 0, 73, 45
2, 46560, Note_on_c, 0, 69, 0
2, 46560, Note_on_c, 0, 73, 0
2, 46560, Note_on_c, 0, 64, 45
2, 46654, Note_on_c, 0, 64, 0
2, 46656, Note_on_c, 0, 73, 45
2, 46656, Note_on_c, 0, 76, 45
2, 46848, Note_on_c, 0, 73, 0
2, 46848, Note_on_c, 0, 76, 0
2, 46848, Note_on_c, 0, 71, 45
2, 46848, Note_on_c, 0, 74, 45
2, 47008, Note_on_c, 0, 71, 0
2, 47008, Note_on_c, 0, 74, 0
2, 47232, Note_on_c, 0, 73, 45
2, 47328, Note_on_c, 0, 73, 0
2, 47328, Note_on_c, 0, 74, 45
2, 47424, Note_on_c, 0, 74, 0
2, 47424, Note_on_c, 0, 75, 45
2, 47520, Note_on_c, 0, 75, 0
2, 47520, Note_on_c, 0, 76, 45
2, 47616, Note_on_c, 0, 76, 0
2, 47616, Note_on_c, 0, 74, 45
2, 47712, Note_on_c, 0, 74, 0
2, 47712, Note_on_c, 0, 73, 45
2, 47806, Note_on_c, 0, 73, 0
2, 47808, Note_on_c, 0, 73, 45
2, 47808, Note_on_c, 0, 76, 45
2, 47952, Note_on_c, 0, 73, 0
2, 47952, Note_on_c, 0, 76, 0
2, 47952, Note_on_c, 0, 69, 45
2, 47952, Note_on_c, 0, 73, 45
2, 48000, Note_on_c, 0, 69, 0
2, 48000, Note_on_c, 0, 73, 0
2, 48000, Note_on_c, 0, 68, 45
2, 48000, Note_on_c, 0, 71, 45
2, 48160, Note_on_c, 0, 68, 0
2, 48160, Note_on_c, 0, 71, 0
2, 48384, Note_on_c, 0, 76, 45
2, 48480, Note_on_c, 0, 76, 0
2, 48480, Note_on_c, 0, 73, 45
2, 48576, Note_on_c, 0, 73, 0
2, 48576, Note_on_c, 0, 76, 45
2, 48672, Note_on_c, 0, 76, 0
2, 48672, Note_on_c, 0, 73, 45
2, 48766, Note_on_c, 0, 73, 0
2, 48768, Note_on_c, 0, 78, 92
2, 48816, Note_on_c, 0, 78, 0
2, 48960, Note_on_c, 0, 74, 45
2, 49056, Note_on_c, 0, 74, 0
2, 49056, Note_on_c, 0, 71, 45
2, 49152, Note_on_c, 0, 71, 0
2, 49152, Note_on_c, 0, 74, 45
2, 49248, Note_on_c, 0, 74, 0
2, 49248, Note_on_c, 0, 71, 45
2, 49342, Note_on_c, 0, 71, 0
2, 49344, Note_on_c, 0, 76, 92
2, 49392, Note_on_c, 0, 76, 0
2, 49536, Note_on_c, 0, 73, 45
2, 49632, Note_on_c, 0, 73, 0
2, 49632, Note_on_c, 0, 69, 45
2, 49728, Note_on_c, 0, 69, 0
2, 49728, Note_on_c, 0, 73, 45
2, 49824, Note_on_c, 0, 73, 0
2, 49824, Note_on_c, 0, 69, 45
2, 49918, Note_on_c, 0, 69, 0
2, 49920, Note_on_c, 0, 66, 92
2, 49920, Note_on_c, 0, 76, 92
2, 50016, Note_on_c, 0, 66, 0
2, 50016, Note_on_c, 0, 76, 0
2, 50016, Note_on_c, 0, 71, 92
2, 50016, Note_on_c, 0, 74, 92
2, 50110, Note_on_c, 0, 71, 0
2, 50110, Note_on_c, 0, 74, 0
2, 50112, Note_on_c, 0, 69, 92
2, 50112, Note_on_c, 0, 73, 92
2, 50688, Note_on_c, 0, 69, 0
2, 50688, Note_on_c, 0, 73, 0
2, 50688, Note_on_c, 0, 68, 92
2, 50688, Note_on_c, 0, 71, 92
2, 50782, Note_on_c, 0, 68, 0
2, 50782, Note_on_c, 0, 71, 0
2, 50784, Note_on_c, 0, 73, 94
2, 50878, Note_on_c, 0, 73, 0
2, 50880, Note_on_c, 0, 74, 96
2, 50974, Note_on_c, 0, 74, 0
2, 50976, Note_on_c, 0, 76, 99
2, 51070, Note_on_c, 0, 76, 0
2, 51072, Note_on_c, 0, 78, 102
2, 51166, Note_on_c, 0, 78, 0
2, 51168, Note_on_c, 0, 80, 105
2, 51262, Note_on_c, 0, 80, 0
2, 51264, Note_on_c, 0, 81, 108
2, 51424, Note_on_c, 0, 81, 0
2, 51456, Note_on_c, 0, 64, 108
2, 51456, Note_on_c, 0, 74, 108
2, 51504, Note_on_c, 0, 64, 0
2, 51504, Note_on_c, 0, 74, 0
2, 51792, Note_on_c, 0, 64, 45
2, 51792, Note_on_c, 0, 73, 45
2, 51838, Note_on_c, 0, 64, 0
2, 51838, Note_on_c, 0, 73, 0
2, 51840, Note_on_c, 0, 64, 45
2, 51840, Note_on_c, 0, 73, 45
2, 51936, Note_on_c, 0, 64, 0
2, 51936, Note_on_c, 0, 73, 0
2, 51936, Note_on_c, 0, 62, 45
2, 51936, Note_on_c, 0, 71, 45
2, 52032, Note_on_c, 0, 62, 0
2, 52032, Note_on_c, 0, 71, 0
2, 52032, Note_on_c, 0, 61, 45
2, 52032, Note_on_c, 0, 69, 45
2, 52080, Note_on_c, 0, 61, 0
2, 52080, Note_on_c, 0, 69, 0
2, 52224, Note_on_c, 0, 59, 45
2, 52224, Note_on_c, 0, 68, 45
2, 52272, Note_on_c, 0, 59, 0
2, 52272, Note_on_c, 0, 68, 0
2, 52416, Note_on_c, 0, 61, 45
2, 52416, Note_on_c, 0, 69, 45
2, 52752, Note_on_c, 0, 61, 0
2, 52752, Note_on_c, 0, 69, 0
2, 52752, End_track
3, 0, Start_track
3, 0, MIDI_port, 0
3, 0, Title_t, "Left Hand"
3, 0, Program_c, 1, 0
3, 0, Control_c, 1, 7, 127
3, 0, Control_c, 1, 10, 64
3, 384, Note_on_c, 1, 58, 92
3, 384, Note_on_c, 1, 61, 92
3, 576, Note_on_c, 1, 58, 0
3, 576, Note_on_c, 1, 61, 0
3, 576, Note_on_c, 1, 59, 45
3, 736, Note_on_c, 1, 59, 0
3, 960, Note_on_c, 1, 56, 92
3, 960, Note_on_c, 1, 59, 92
3, 1152, Note_on_c, 1, 56, 0
3, 1152, Note_on_c, 1, 59, 0
3, 1152, Note_on_c, 1, 57, 45
3, 1488, Note_on_c, 1, 57, 0
3, 1536, Note_on_c, 1, 59, 92
3, 1696, Note_on_c, 1, 59, 0
3, 1728, Note_on_c, 1, 64, 92
3, 1824, Note_on_c, 1, 64, 0
3, 1824, Note_on_c, 1, 63, 92
3, 1920, Note_on_c, 1, 63, 0
3, 1920, Note_on_c, 1, 64, 92
3, 2016, Note_on_c, 1, 64, 0
3, 2016, Note_on_c, 1, 66, 92
3, 2112, Note_on_c, 1, 66, 0
3, 2112, Note_on_c, 1, 62, 92
3, 2208, Note_on_c, 1, 62, 0
3, 2208, Note_on_c, 1, 64, 92
3, 2302, Note_on_c, 1, 64, 0
3, 2304, Note_on_c, 1, 61, 92
3, 2352, Note_on_c, 1, 61, 0
3, 2496, Note_on_c, 1, 57, 92
3, 2688, Note_on_c, 1, 57, 0
3, 2688, Note_on_c, 1, 61, 92
3, 2848, Note_on_c, 1, 61, 0
3, 2880, Note_on_c, 1, 62, 92
3, 2928, Note_on_c, 1, 62, 0
3, 3072, Note_on_c, 1, 59, 92
3, 3264, Note_on_c, 1, 59, 0
3, 3264, Note_on_c, 1, 57, 92
3, 3424, Note_on_c, 1, 57, 0
3, 3456, Note_on_c, 1, 50, 92
3, 3648, Note_on_c, 1, 50, 0
3, 3648, Note_on_c, 1, 52, 92
3, 3696, Note_on_c, 1, 52, 0
3, 3840, Note_on_c, 1, 52, 92
3, 3888, Note_on_c, 1, 52, 0
3, 4032, Note_on_c, 1, 57, 92
3, 4192, Note_on_c, 1, 57, 0
3, 4224, Note_on_c, 1, 52, 92
3, 4384, Note_on_c, 1, 52, 0
3, 4416, Note_on_c, 1, 45, 92
3, 4576, Note_on_c, 1, 45, 0
3, 4992, Note_on_c, 1, 58, 92
3, 4992, Note_on_c, 1, 61, 92
3, 5184, Note_on_c, 1, 58, 0
3, 5184, Note_on_c, 1, 61, 0
3, 5184, Note_on_c, 1, 59, 45
3, 5344, Note_on_c, 1, 59, 0
3, 5568, Note_on_c, 1, 56, 92
3, 5568, Note_on_c, 1, 59, 92
3, 5760, Note_on_c, 1, 56, 0
3, 5760, Note_on_c, 1, 59, 0
3, 5760, Note_on_c, 1, 57, 45
3, 6096, Note_on_c, 1, 57, 0
3, 6144, Note_on_c, 1, 59, 92
3, 6304, Note_on_c, 1, 59, 0
3, 6336, Note_on_c, 1, 64, 92
3, 6432, Note_on_c, 1, 64, 0
3, 6432, Note_on_c, 1, 63, 92
3, 6528, Note_on_c, 1, 63, 0
3, 6528, Note_on_c, 1, 64, 92
3, 6624, Note_on_c, 1, 64, 0
3, 6624, Note_on_c, 1, 66, 92
3, 6720, Note_on_c, 1, 66, 0
3, 6720, Note_on_c, 1, 62, 92
3, 6816, Note_on_c, 1, 62, 0
3, 6816, Note_on_c, 1, 64, 92
3, 6910, Note_on_c, 1, 64, 0
3, 6912, Note_on_c, 1, 61, 92
3, 6960, Note_on_c, 1, 61, 0
3, 7104, Note_on_c, 1, 57, 92
3, 7296, Note_on_c, 1, 57, 0
3, 7296, Note_on_c, 1, 61, 92
3, 7456, Note_on_c, 1, 61, 0
3, 7488, Note_on_c, 1, 62, 92
3, 7536, Note_on_c, 1, 62, 0
3, 7680, Note_on_c, 1, 59, 92
3, 7872, Note_on_c, 1, 59, 0
3, 7872, Note_on_c, 1, 57, 92
3, 8032, Note_on_c, 1, 57, 0
3, 8064, Note_on_c, 1, 50, 92
3, 8256, Note_on_c, 1, 50, 0
3, 8256, Note_on_c, 1, 52, 92
3, 8304, Note_on_c, 1, 52, 0
3, 8448, Note_on_c, 1, 52, 92
3, 8496, Note_on_c, 1, 52, 0
3, 8640, Note_on_c, 1, 57, 92
3, 8800, Note_on_c, 1, 57, 0
3, 8832, Note_on_c, 1, 52, 92
3, 8992, Note_on_c, 1, 52, 0
3, 9024, Note_on_c, 1, 45, 92
3, 9184, Note_on_c, 1, 45, 0
3, 9792, Note_on_c, 1, 52, 45
3, 9888, Note_on_c, 1, 52, 0
3, 9888, Note_on_c, 1, 54, 45
3, 9984, Note_on_c, 1, 54, 0
3, 9984, Note_on_c, 1, 56, 45
3, 10080, Note_on_c, 1, 56, 0
3, 10080, Note_on_c, 1, 54, 45
3, 10176, Note_on_c, 1, 54, 0
3, 10176, Note_on_c, 1, 56, 45
3, 10272, Note_on_c, 1, 56, 0
3, 10272, Note_on_c, 1, 52, 45
3, 10366, Note_on_c, 1, 52, 0
3, 10368, Note_on_c, 1, 57, 45
3, 10464, Note_on_c, 1, 57, 0
3, 10464, Note_on_c, 1, 59, 45
3, 10560, Note_on_c, 1, 59, 0
3, 10560, Note_on_c, 1, 60, 45
3, 10656, Note_on_c, 1, 60, 0
3, 10656, Note_on_c, 1, 61, 45
3, 10752, Note_on_c, 1, 61, 0
3, 10752, Note_on_c, 1, 59, 45
3, 10848, Note_on_c, 1, 59, 0
3, 10848, Note_on_c, 1, 57, 45
3, 10942, Note_on_c, 1, 57, 0
3, 10944, Note_on_c, 1, 64, 45
3, 11040, Note_on_c, 1, 64, 0
3, 11040, Note_on_c, 1, 63, 45
3, 11136, Note_on_c, 1, 63, 0
3, 11136, Note_on_c, 1, 64, 45
3, 11232, Note_on_c, 1, 64, 0
3, 11232, Note_on_c, 1, 66, 45
3, 11328, Note_on_c, 1, 66, 0
3, 11328, Note_on_c, 1, 62, 45
3, 11424, Note_on_c, 1, 62, 0
3, 11424, Note_on_c, 1, 59, 45
3, 11518, Note_on_c, 1, 59, 0
3, 11520, Note_on_c, 1, 57, 45
3, 11520, Note_on_c, 1, 61, 45
3, 11712, Note_on_c, 1, 57, 0
3, 11712, Note_on_c, 1, 61, 0
3, 11712, Note_on_c, 1, 59, 45
3, 11904, Note_on_c, 1, 59, 0
3, 11904, Note_on_c, 1, 54, 92
3, 11904, Note_on_c, 1, 58, 92
3, 12064, Note_on_c, 1, 54, 0
3, 12064, Note_on_c, 1, 58, 0
3, 12096, Note_on_c, 1, 59, 45
3, 12288, Note_on_c, 1, 59, 0
3, 12288, Note_on_c, 1, 57, 45
3, 12480, Note_on_c, 1, 57, 0
3, 12480, Note_on_c, 1, 52, 92
3, 12480, Note_on_c, 1, 56, 92
3, 12640, Note_on_c, 1, 52, 0
3, 12640, Note_on_c, 1, 56, 0
3, 12672, Note_on_c, 1, 57, 45
3, 12864, Note_on_c, 1, 57, 0
3, 12864, Note_on_c, 1, 54, 45
3, 12864, Note_on_c, 1, 57, 45
3, 13024, Note_on_c, 1, 54, 0
3, 13024, Note_on_c, 1, 57, 0
3, 13056, Note_on_c, 1, 50, 92
3, 13216, Note_on_c, 1, 50, 0
3, 13248, Note_on_c, 1, 52, 92
3, 13344, Note_on_c, 1, 52, 0
3, 13344, Note_on_c, 1, 54, 92
3, 13440, Note_on_c, 1, 54, 0
3, 13440, Note_on_c, 1, 56, 92
3, 13536, Note_on_c, 1, 56, 0
3, 13536, Note_on_c, 1, 57, 92
3, 13632, Note_on_c, 1, 57, 0
3, 13632, Note_on_c, 1, 59, 92
3, 13728, Note_on_c, 1, 59, 0
3, 13728, Note_on_c, 1, 61, 92
3, 13822, Note_on_c, 1, 61, 0
3, 13824, Note_on_c, 1, 62, 92
3, 13918, Note_on_c, 1, 62, 0
3, 13920, Note_on_c, 1, 57, 94
3, 14016, Note_on_c, 1, 57, 0
3, 14016, Note_on_c, 1, 59, 96
3, 14112, Note_on_c, 1, 59, 0
3, 14112, Note_on_c, 1, 61, 99
3, 14208, Note_on_c, 1, 61, 0
3, 14208, Note_on_c, 1, 62, 102
3, 14302, Note_on_c, 1, 62, 0
3, 14304, Note_on_c, 1, 59, 105
3, 14398, Note_on_c, 1, 59, 0
3, 14400, Note_on_c, 1, 61, 108
3, 14560, Note_on_c, 1, 61, 0
3, 14592, Note_on_c, 1, 56, 108
3, 14640, Note_on_c, 1, 56, 0
3, 14928, Note_on_c, 1, 57, 45
3, 14974, Note_on_c, 1, 57, 0
3, 14976, Note_on_c, 1, 50, 45
3, 15168, Note_on_c, 1, 50, 0
3, 15168, Note_on_c, 1, 52, 45
3, 15216, Note_on_c, 1, 52, 0
3, 15360, Note_on_c, 1, 52, 45
3, 15408, Note_on_c, 1, 52, 0
3, 15552, Note_on_c, 1, 57, 45
3, 15712, Note_on_c, 1, 57, 0
3, 15744, Note_on_c, 1, 52, 45
3, 15904, Note_on_c, 1, 52, 0
3, 15936, Note_on_c, 1, 45, 45
3, 16096, Note_on_c, 1, 45, 0
3, 16704, Note_on_c, 1, 52, 45
3, 16800, Note_on_c, 1, 52, 0
3, 16800, Note_on_c, 1, 54, 45
3, 16896, Note_on_c, 1, 54, 0
3, 16896, Note_on_c, 1, 56, 45
3, 16992, Note_on_c, 1, 56, 0
3, 16992, Note_on_c, 1, 54, 45
3, 17088, Note_on_c, 1, 54, 0
3, 17088, Note_on_c, 1, 56, 45
3, 17184, Note_on_c, 1, 56, 0
3, 17184, Note_on_c, 1, 52, 45
3, 17278, Note_on_c, 1, 52, 0
3, 17280, Note_on_c, 1, 57, 45
3, 17376, Note_on_c, 1, 57, 0
3, 17376, Note_on_c, 1, 59, 45
3, 17472, Note_on_c, 1, 59, 0
3, 17472, Note_on_c, 1, 60, 45
3, 17568, Note_on_c, 1, 60, 0
3, 17568, Note_on_c, 1, 61, 45
3, 17664, Note_on_c, 1, 61, 0
3, 17664, Note_on_c, 1, 59, 45
3, 17760, Note_on_c, 1, 59, 0
3, 17760, Note_on_c, 1, 57, 45
3, 17854, Note_on_c, 1, 57, 0
3, 17856, Note_on_c, 1, 64, 45
3, 17952, Note_on_c, 1, 64, 0
3, 17952, Note_on_c, 1, 63, 45
3, 18048, Note_on_c, 1, 63, 0
3, 18048, Note_on_c, 1, 64, 45
3, 18144, Note_on_c, 1, 64, 0
3, 18144, Note_on_c, 1, 66, 45
3, 18240, Note_on_c, 1, 66, 0
3, 18240, Note_on_c, 1, 62, 45
3, 18336, Note_on_c, 1, 62, 0
3, 18336, Note_on_c, 1, 59, 45
3, 18430, Note_on_c, 1, 59, 0
3, 18432, Note_on_c, 1, 57, 45
3, 18432, Note_on_c, 1, 61, 45
3, 18624, Note_on_c, 1, 57, 0
3, 18624, Note_on_c, 1, 61, 0
3, 18624, Note_on_c, 1, 59, 45
3, 18816, Note_on_c, 1, 59, 0
3, 18816, Note_on_c, 1, 54, 92
3, 18816, Note_on_c, 1, 58, 92
3, 18976, Note_on_c, 1, 54, 0
3, 18976, Note_on_c, 1, 58, 0
3, 19008, Note_on_c, 1, 59, 45
3, 19200, Note_on_c, 1, 59, 0
3, 19200, Note_on_c, 1, 57, 45
3, 19392, Note_on_c, 1, 57, 0
3, 19392, Note_on_c, 1, 52, 92
3, 19392, Note_on_c, 1, 56, 92
3, 19552, Note_on_c, 1, 52, 0
3, 19552, Note_on_c, 1, 56, 0
3, 19584, Note_on_c, 1, 57, 45
3, 19776, Note_on_c, 1, 57, 0
3, 19776, Note_on_c, 1, 54, 45
3, 19776, Note_on_c, 1, 57, 45
3, 19936, Note_on_c, 1, 54, 0
3, 19936, Note_on_c, 1, 57, 0
3, 19968, Note_on_c, 1, 50, 92
3, 20128, Note_on_c, 1, 50, 0
3, 20160, Note_on_c, 1, 52, 92
3, 20256, Note_on_c, 1, 52, 0
3, 20256, Note_on_c, 1, 54, 92
3, 20352, Note_on_c, 1, 54, 0
3, 20352, Note_on_c, 1, 56, 92
3, 20448, Note_on_c, 1, 56, 0
3, 20448, Note_on_c, 1, 57, 92
3, 20544, Note_on_c, 1, 57, 0
3, 20544, Note_on_c, 1, 59, 92
3, 20640, Note_on_c, 1, 59, 0
3, 20640, Note_on_c, 1, 61, 92
3, 20734, Note_on_c, 1, 61, 0
3, 20736, Note_on_c, 1, 62, 92
3, 20830, Note_on_c, 1, 62, 0
3, 20832, Note_on_c, 1, 57, 94
3, 20928, Note_on_c, 1, 57, 0
3, 20928, Note_on_c, 1, 59, 96
3, 21024, Note_on_c, 1, 59, 0
3, 21024, Note_on_c, 1, 61, 99
3, 21120, Note_on_c, 1, 61, 0
3, 21120, Note_on_c, 1, 62, 102
3, 21214, Note_on_c, 1, 62, 0
3, 21216, Note_on_c, 1, 59, 105
3, 21310, Note_on_c, 1, 59, 0
3, 21312, Note_on_c, 1, 61, 108
3, 21472, Note_on_c, 1, 61, 0
3, 21504, Note_on_c, 1, 56, 108
3, 21552, Note_on_c, 1, 56, 0
3, 21840, Note_on_c, 1, 57, 45
3, 21886, Note_on_c, 1, 57, 0
3, 21888, Note_on_c, 1, 50, 45
3, 22080, Note_on_c, 1, 50, 0
3, 22080, Note_on_c, 1, 52, 45
3, 22128, Note_on_c, 1, 52, 0
3, 22272, Note_on_c, 1, 52, 45
3, 22320, Note_on_c, 1, 52, 0
3, 22464, Note_on_c, 1, 57, 45
3, 22624, Note_on_c, 1, 57, 0
3, 22656, Note_on_c, 1, 52, 45
3, 22816, Note_on_c, 1, 52, 0
3, 22848, Note_on_c, 1, 45, 45
3, 23008, Note_on_c, 1, 45, 0
3, 23616, Note_on_c, 1, 50, 45
3, 23680, Note_on_c, 1, 50, 0
3, 23680, Note_on_c, 1, 54, 45
3, 23744, Note_on_c, 1, 54, 0
3, 23744, Note_on_c, 1, 57, 45
3, 23806, Note_on_c, 1, 57, 0
3, 23808, Note_on_c, 1, 62, 45
3, 23850, Note_on_c, 1, 62, 0
3, 23872, Note_on_c, 1, 57, 45
3, 23914, Note_on_c, 1, 57, 0
3, 23936, Note_on_c, 1, 54, 45
3, 23978, Note_on_c, 1, 54, 0
3, 24000, Note_on_c, 1, 50, 45
3, 24042, Note_on_c, 1, 50, 0
3, 24064, Note_on_c, 1, 54, 45
3, 24106, Note_on_c, 1, 54, 0
3, 24128, Note_on_c, 1, 57, 45
3, 24170, Note_on_c, 1, 57, 0
3, 24192, Note_on_c, 1, 52, 45
3, 24256, Note_on_c, 1, 52, 0
3, 24256, Note_on_c, 1, 55, 45
3, 24320, Note_on_c, 1, 55, 0
3, 24320, Note_on_c, 1, 57, 45
3, 24382, Note_on_c, 1, 57, 0
3, 24384, Note_on_c, 1, 61, 45
3, 24426, Note_on_c, 1, 61, 0
3, 24448, Note_on_c, 1, 57, 45
3, 24490, Note_on_c, 1, 57, 0
3, 24512, Note_on_c, 1, 55, 45
3, 24554, Note_on_c, 1, 55, 0
3, 24576, Note_on_c, 1, 52, 45
3, 24618, Note_on_c, 1, 52, 0
3, 24640, Note_on_c, 1, 55, 45
3, 24682, Note_on_c, 1, 55, 0
3, 24704, Note_on_c, 1, 57, 45
3, 24746, Note_on_c, 1, 57, 0
3, 24768, Note_on_c, 1, 50, 45
3, 24832, Note_on_c, 1, 50, 0
3, 24832, Note_on_c, 1, 54, 45
3, 24896, Note_on_c, 1, 54, 0
3, 24896, Note_on_c, 1, 57, 45
3, 24958, Note_on_c, 1, 57, 0
3, 24960, Note_on_c, 1, 62, 45
3, 25002, Note_on_c, 1, 62, 0
3, 25024, Note_on_c, 1, 57, 45
3, 25066, Note_on_c, 1, 57, 0
3, 25088, Note_on_c, 1, 54, 45
3, 25130, Note_on_c, 1, 54, 0
3, 25152, Note_on_c, 1, 50, 45
3, 25194, Note_on_c, 1, 50, 0
3, 25216, Note_on_c, 1, 54, 45
3, 25258, Note_on_c, 1, 54, 0
3, 25280, Note_on_c, 1, 57, 45
3, 25322, Note_on_c, 1, 57, 0
3, 25344, Note_on_c, 1, 52, 45
3, 25408, Note_on_c, 1, 52, 0
3, 25408, Note_on_c, 1, 55, 45
3, 25472, Note_on_c, 1, 55, 0
3, 25472, Note_on_c, 1, 57, 45
3, 25534, Note_on_c, 1, 57, 0
3, 25536, Note_on_c, 1, 61, 45
3, 25578, Note_on_c, 1, 61, 0
3, 25600, Note_on_c, 1, 57, 45
3, 25642, Note_on_c, 1, 57, 0
3, 25664, Note_on_c, 1, 55, 45
3, 25706, Note_on_c, 1, 55, 0
3, 25728, Note_on_c, 1, 52, 45
3, 25770, Note_on_c, 1, 52, 0
3, 25792, Note_on_c, 1, 55, 45
3, 25834, Note_on_c, 1, 55, 0
3, 25856, Note_on_c, 1, 57, 45
3, 25898, Note_on_c, 1, 57, 0
3, 25920, Note_on_c, 1, 54, 45
3, 26080, Note_on_c, 1, 54, 0
3, 26304, Note_on_c, 1, 55, 45
3, 26464, Note_on_c, 1, 55, 0
3, 26496, Note_on_c, 1, 54, 45
3, 26688, Note_on_c, 1, 54, 0
3, 26688, Note_on_c, 1, 49, 45
3, 26880, Note_on_c, 1, 49, 0
3, 26880, Note_on_c, 1, 50, 45
3, 27040, Note_on_c, 1, 50, 0
3, 27072, Note_on_c, 1, 45, 45
3, 27120, Note_on_c, 1, 45, 0
3, 27264, Note_on_c, 1, 57, 45
3, 27312, Note_on_c, 1, 57, 0
3, 28224, Note_on_c, 1, 50, 45
3, 28288, Note_on_c, 1, 50, 0
3, 28288, Note_on_c, 1, 54, 45
3, 28352, Note_on_c, 1, 54, 0
3, 28352, Note_on_c, 1, 57, 45
3, 28414, Note_on_c, 1, 57, 0
3, 28416, Note_on_c, 1, 62, 45
3, 28458, Note_on_c, 1, 62, 0
3, 28480, Note_on_c, 1, 57, 45
3, 28522, Note_on_c, 1, 57, 0
3, 28544, Note_on_c, 1, 54, 45
3, 28586, Note_on_c, 1, 54, 0
3, 28608, Note_on_c, 1, 50, 45
3, 28650, Note_on_c, 1, 50, 0
3, 28672, Note_on_c, 1, 54, 45
3, 28714, Note_on_c, 1, 54, 0
3, 28736, Note_on_c, 1, 57, 45
3, 28778, Note_on_c, 1, 57, 0
3, 28800, Note_on_c, 1, 52, 45
3, 28864, Note_on_c, 1, 52, 0
3, 28864, Note_on_c, 1, 55, 45
3, 28928, Note_on_c, 1, 55, 0
3, 28928, Note_on_c, 1, 57, 45
3, 28990, Note_on_c, 1, 57, 0
3, 28992, Note_on_c, 1, 61, 45
3, 29034, Note_on_c, 1, 61, 0
3, 29056, Note_on_c, 1, 57, 45
3, 29098, Note_on_c, 1, 57, 0
3, 29120, Note_on_c, 1, 55, 45
3, 29162, Note_on_c, 1, 55, 0
3, 29184, Note_on_c, 1, 52, 45
3, 29226, Note_on_c, 1, 52, 0
3, 29248, Note_on_c, 1, 55, 45
3, 29290, Note_on_c, 1, 55, 0
3, 29312, Note_on_c, 1, 57, 45
3, 29354, Note_on_c, 1, 57, 0
3, 29376, Note_on_c, 1, 50, 45
3, 29440, Note_on_c, 1, 50, 0
3, 29440, Note_on_c, 1, 54, 45
3, 29504, Note_on_c, 1, 54, 0
3, 29504, Note_on_c, 1, 57, 45
3, 29566, Note_on_c, 1, 57, 0
3, 29568, Note_on_c, 1, 62, 45
3, 29610, Note_on_c, 1, 62, 0
3, 29632, Note_on_c, 1, 57, 45
3, 29674, Note_on_c, 1, 57, 0
3, 29696, Note_on_c, 1, 54, 45
3, 29738, Note_on_c, 1, 54, 0
3, 29760, Note_on_c, 1, 50, 45
3, 29802, Note_on_c, 1, 50, 0
3, 29824, Note_on_c, 1, 54, 45
3, 29866, Note_on_c, 1, 54, 0
3, 29888, Note_on_c, 1, 57, 45
3, 29930, Note_on_c, 1, 57, 0
3, 29952, Note_on_c, 1, 52, 45
3, 30016, Note_on_c, 1, 52, 0
3, 30016, Note_on_c, 1, 55, 45
3, 30080, Note_on_c, 1, 55, 0
3, 30080, Note_on_c, 1, 57, 45
3, 30142, Note_on_c, 1, 57, 0
3, 30144, Note_on_c, 1, 61, 45
3, 30186, Note_on_c, 1, 61, 0
3, 30208, Note_on_c, 1, 57, 45
3, 30250, Note_on_c, 1, 57, 0
3, 30272, Note_on_c, 1, 55, 45
3, 30314, Note_on_c, 1, 55, 0
3, 30336, Note_on_c, 1, 52, 45
3, 30378, Note_on_c, 1, 52, 0
3, 30400, Note_on_c, 1, 55, 45
3, 30442, Note_on_c, 1, 55, 0
3, 30464, Note_on_c, 1, 57, 45
3, 30506, Note_on_c, 1, 57, 0
3, 30528, Note_on_c, 1, 54, 45
3, 30688, Note_on_c, 1, 54, 0
3, 30912, Note_on_c, 1, 55, 45
3, 31072, Note_on_c, 1, 55, 0
3, 31104, Note_on_c, 1, 54, 45
3, 31296, Note_on_c, 1, 54, 0
3, 31296, Note_on_c, 1, 49, 45
3, 31488, Note_on_c, 1, 49, 0
3, 31488, Note_on_c, 1, 50, 45
3, 31648, Note_on_c, 1, 50, 0
3, 31680, Note_on_c, 1, 45, 45
3, 31728, Note_on_c, 1, 45, 0
3, 31872, Note_on_c, 1, 57, 45
3, 31920, Note_on_c, 1, 57, 0
3, 32832, Note_on_c, 1, 52, 75
3, 32896, Note_on_c, 1, 52, 0
3, 32896, Note_on_c, 1, 56, 75
3, 32960, Note_on_c, 1, 56, 0
3, 32960, Note_on_c, 1, 59, 75
3, 33022, Note_on_c, 1, 59, 0
3, 33024, Note_on_c, 1, 62, 75
3, 33066, Note_on_c, 1, 62, 0
3, 33088, Note_on_c, 1, 59, 75
3, 33130, Note_on_c, 1, 59, 0
3, 33152, Note_on_c, 1, 56, 75
3, 33194, Note_on_c, 1, 56, 0
3, 33216, Note_on_c, 1, 52, 75
3, 33258, Note_on_c, 1, 52, 0
3, 33280, Note_on_c, 1, 59, 75
3, 33322, Note_on_c, 1, 59, 0
3, 33344, Note_on_c, 1, 62, 75
3, 33386, Note_on_c, 1, 62, 0
3, 33408, Note_on_c, 1, 52, 75
3, 33472, Note_on_c, 1, 52, 0
3, 33472, Note_on_c, 1, 57, 75
3, 33536, Note_on_c, 1, 57, 0
3, 33536, Note_on_c, 1, 61, 75
3, 33598, Note_on_c, 1, 61, 0
3, 33600, Note_on_c, 1, 64, 75
3, 33642, Note_on_c, 1, 64, 0
3, 33664, Note_on_c, 1, 61, 75
3, 33706, Note_on_c, 1, 61, 0
3, 33728, Note_on_c, 1, 57, 75
3, 33770, Note_on_c, 1, 57, 0
3, 33792, Note_on_c, 1, 52, 75
3, 33834, Note_on_c, 1, 52, 0
3, 33856, Note_on_c, 1, 57, 75
3, 33898, Note_on_c, 1, 57, 0
3, 33920, Note_on_c, 1, 61, 75
3, 33962, Note_on_c, 1, 61, 0
3, 33984, Note_on_c, 1, 52, 75
3, 34048, Note_on_c, 1, 52, 0
3, 34048, Note_on_c, 1, 56, 75
3, 34112, Note_on_c, 1, 56, 0
3, 34112, Note_on_c, 1, 59, 75
3, 34174, Note_on_c, 1, 59, 0
3, 34176, Note_on_c, 1, 62, 75
3, 34218, Note_on_c, 1, 62, 0
3, 34240, Note_on_c, 1, 59, 75
3, 34282, Note_on_c, 1, 59, 0
3, 34304, Note_on_c, 1, 56, 75
3, 34346, Note_on_c, 1, 56, 0
3, 34368, Note_on_c, 1, 52, 75
3, 34410, Note_on_c, 1, 52, 0
3, 34432, Note_on_c, 1, 59, 75
3, 34474, Note_on_c, 1, 59, 0
3, 34496, Note_on_c, 1, 62, 75
3, 34538, Note_on_c, 1, 62, 0
3, 34560, Note_on_c, 1, 57, 75
3, 34560, Note_on_c, 1, 61, 75
3, 34622, Note_on_c, 1, 57, 0
3, 34622, Note_on_c, 1, 61, 0
3, 34624, Note_on_c, 1, 59, 75
3, 34686, Note_on_c, 1, 59, 0
3, 34688, Note_on_c, 1, 57, 75
3, 34750, Note_on_c, 1, 57, 0
3, 34752, Note_on_c, 1, 56, 75
3, 34814, Note_on_c, 1, 56, 0
3, 34816, Note_on_c, 1, 57, 75
3, 34878, Note_on_c, 1, 57, 0
3, 34880, Note_on_c, 1, 56, 75
3, 34942, Note_on_c, 1, 56, 0
3, 34944, Note_on_c, 1, 55, 75
3, 35006, Note_on_c, 1, 55, 0
3, 35008, Note_on_c, 1, 57, 75
3, 35070, Note_on_c, 1, 57, 0
3, 35072, Note_on_c, 1, 55, 75
3, 35134, Note_on_c, 1, 55, 0
3, 35136, Note_on_c, 1, 54, 75
3, 35198, Note_on_c, 1, 54, 0
3, 35200, Note_on_c, 1, 55, 75
3, 35262, Note_on_c, 1, 55, 0
3, 35264, Note_on_c, 1, 54, 75
3, 35326, Note_on_c, 1, 54, 0
3, 35328, Note_on_c, 1, 52, 75
3, 35390, Note_on_c, 1, 52, 0
3, 35392, Note_on_c, 1, 54, 75
3, 35454, Note_on_c, 1, 54, 0
3, 35456, Note_on_c, 1, 52, 75
3, 35518, Note_on_c, 1, 52, 0
3, 35520, Note_on_c, 1, 50, 75
3, 35582, Note_on_c, 1, 50, 0
3, 35584, Note_on_c, 1, 52, 75
3, 35646, Note_on_c, 1, 52, 0
3, 35648, Note_on_c, 1, 50, 75
3, 35710, Note_on_c, 1, 50, 0
3, 35712, Note_on_c, 1, 49, 75
3, 35774, Note_on_c, 1, 49, 0
3, 35776, Note_on_c, 1, 47, 75
3, 35838, Note_on_c, 1, 47, 0
3, 35840, Note_on_c, 1, 45, 75
3, 35902, Note_on_c, 1, 45, 0
3, 35904, Note_on_c, 1, 50, 75
3, 35966, Note_on_c, 1, 50, 0
3, 35968, Note_on_c, 1, 49, 75
3, 36030, Note_on_c, 1, 49, 0
3, 36032, Note_on_c, 1, 47, 75
3, 36094, Note_on_c, 1, 47, 0
3, 36096, Note_on_c, 1, 52, 75
3, 36158, Note_on_c, 1, 52, 0
3, 36160, Note_on_c, 1, 50, 75
3, 36222, Note_on_c, 1, 50, 0
3, 36224, Note_on_c, 1, 52, 75
3, 36286, Note_on_c, 1, 52, 0
3, 36288, Note_on_c, 1, 45, 75
3, 36448, Note_on_c, 1, 45, 0
3, 37440, Note_on_c, 1, 50, 45
3, 37504, Note_on_c, 1, 50, 0
3, 37504, Note_on_c, 1, 54, 45
3, 37568, Note_on_c, 1, 54, 0
3, 37568, Note_on_c, 1, 57, 45
3, 37630, Note_on_c, 1, 57, 0
3, 37632, Note_on_c, 1, 62, 45
3, 37674, Note_on_c, 1, 62, 0
3, 37696, Note_on_c, 1, 57, 45
3, 37738, Note_on_c, 1, 57, 0
3, 37760, Note_on_c, 1, 54, 45
3, 37802, Note_on_c, 1, 54, 0
3, 37824, Note_on_c, 1, 50, 45
3, 37866, Note_on_c, 1, 50, 0
3, 37888, Note_on_c, 1, 54, 45
3, 37930, Note_on_c, 1, 54, 0
3, 37952, Note_on_c, 1, 57, 45
3, 37994, Note_on_c, 1, 57, 0
3, 38016, Note_on_c, 1, 52, 45
3, 38080, Note_on_c, 1, 52, 0
3, 38080, Note_on_c, 1, 55, 45
3, 38144, Note_on_c, 1, 55, 0
3, 38144, Note_on_c, 1, 57, 45
3, 38206, Note_on_c, 1, 57, 0
3, 38208, Note_on_c, 1, 61, 45
3, 38250, Note_on_c, 1, 61, 0
3, 38272, Note_on_c, 1, 57, 45
3, 38314, Note_on_c, 1, 57, 0
3, 38336, Note_on_c, 1, 55, 45
3, 38378, Note_on_c, 1, 55, 0
3, 38400, Note_on_c, 1, 52, 45
3, 38442, Note_on_c, 1, 52, 0
3, 38464, Note_on_c, 1, 55, 45
3, 38506, Note_on_c, 1, 55, 0
3, 38528, Note_on_c, 1, 57, 45
3, 38570, Note_on_c, 1, 57, 0
3, 38592, Note_on_c, 1, 50, 45
3, 38656, Note_on_c, 1, 50, 0
3, 38656, Note_on_c, 1, 54, 45
3, 38720, Note_on_c, 1, 54, 0
3, 38720, Note_on_c, 1, 57, 45
3, 38782, Note_on_c, 1, 57, 0
3, 38784, Note_on_c, 1, 62, 45
3, 38826, Note_on_c, 1, 62, 0
3, 38848, Note_on_c, 1, 57, 45
3, 38890, Note_on_c, 1, 57, 0
3, 38912, Note_on_c, 1, 54, 45
3, 38954, Note_on_c, 1, 54, 0
3, 38976, Note_on_c, 1, 50, 45
3, 39018, Note_on_c, 1, 50, 0
3, 39040, Note_on_c, 1, 54, 45
3, 39082, Note_on_c, 1, 54, 0
3, 39104, Note_on_c, 1, 57, 45
3, 39146, Note_on_c, 1, 57, 0
3, 39168, Note_on_c, 1, 52, 45
3, 39232, Note_on_c, 1, 52, 0
3, 39232, Note_on_c, 1, 55, 45
3, 39296, Note_on_c, 1, 55, 0
3, 39296, Note_on_c, 1, 57, 45
3, 39358, Note_on_c, 1, 57, 0
3, 39360, Note_on_c, 1, 61, 45
3, 39402, Note_on_c, 1, 61, 0
3, 39424, Note_on_c, 1, 57, 45
3, 39466, Note_on_c, 1, 57, 0
3, 39488, Note_on_c, 1, 55, 45
3, 39530, Note_on_c, 1, 55, 0
3, 39552, Note_on_c, 1, 52, 45
3, 39594, Note_on_c, 1, 52, 0
3, 39616, Note_on_c, 1, 55, 45
3, 39658, Note_on_c, 1, 55, 0
3, 39680, Note_on_c, 1, 57, 45
3, 39722, Note_on_c, 1, 57, 0
3, 39744, Note_on_c, 1, 50, 45
3, 39744, Note_on_c, 1, 54, 45
3, 39904, Note_on_c, 1, 50, 0
3, 39904, Note_on_c, 1, 54, 0
3, 40128, Note_on_c, 1, 55, 45
3, 40288, Note_on_c, 1, 55, 0
3, 40320, Note_on_c, 1, 54, 45
3, 40368, Note_on_c, 1, 54, 0
3, 40512, Note_on_c, 1, 57, 45
3, 40704, Note_on_c, 1, 57, 0
3, 40704, Note_on_c, 1, 45, 45
3, 40864, Note_on_c, 1, 45, 0
3, 40896, Note_on_c, 1, 50, 45
3, 40944, Note_on_c, 1, 50, 0
3, 41088, Note_on_c, 1, 38, 45
3, 41136, Note_on_c, 1, 38, 0
3, 41856, Note_on_c, 1, 58, 92
3, 41856, Note_on_c, 1, 61, 92
3, 42048, Note_on_c, 1, 58, 0
3, 42048, Note_on_c, 1, 61, 0
3, 42048, Note_on_c, 1, 59, 45
3, 42208, Note_on_c, 1, 59, 0
3, 42432, Note_on_c, 1, 56, 92
3, 42432, Note_on_c, 1, 59, 92
3, 42624, Note_on_c, 1, 56, 0
3, 42624, Note_on_c, 1, 59, 0
3, 42624, Note_on_c, 1, 57, 45
3, 42960, Note_on_c, 1, 57, 0
3, 43008, Note_on_c, 1, 59, 92
3, 43168, Note_on_c, 1, 59, 0
3, 43200, Note_on_c, 1, 64, 92
3, 43296, Note_on_c, 1, 64, 0
3, 43296, Note_on_c, 1, 63, 92
3, 43392, Note_on_c, 1, 63, 0
3, 43392, Note_on_c, 1, 64, 92
3, 43488, Note_on_c, 1, 64, 0
3, 43488, Note_on_c, 1, 66, 92
3, 43584, Note_on_c, 1, 66, 0
3, 43584, Note_on_c, 1, 62, 92
3, 43680, Note_on_c, 1, 62, 0
3, 43680, Note_on_c, 1, 64, 92
3, 43774, Note_on_c, 1, 64, 0
3, 43776, Note_on_c, 1, 61, 92
3, 43824, Note_on_c, 1, 61, 0
3, 43968, Note_on_c, 1, 57, 92
3, 44160, Note_on_c, 1, 57, 0
3, 44160, Note_on_c, 1, 61, 92
3, 44320, Note_on_c, 1, 61, 0
3, 44352, Note_on_c, 1, 62, 92
3, 44400, Note_on_c, 1, 62, 0
3, 44544, Note_on_c, 1, 59, 92
3, 44736, Note_on_c, 1, 59, 0
3, 44736, Note_on_c, 1, 57, 92
3, 44896, Note_on_c, 1, 57, 0
3, 44928, Note_on_c, 1, 50, 92
3, 45120, Note_on_c, 1, 50, 0
3, 45120, Note_on_c, 1, 52, 92
3, 45168, Note_on_c, 1, 52, 0
3, 45312, Note_on_c, 1, 52, 92
3, 45360, Note_on_c, 1, 52, 0
3, 45504, Note_on_c, 1, 57, 92
3, 45664, Note_on_c, 1, 57, 0
3, 45696, Note_on_c, 1, 52, 92
3, 45856, Note_on_c, 1, 52, 0
3, 45888, Note_on_c, 1, 45, 92
3, 46048, Note_on_c, 1, 45, 0
3, 46656, Note_on_c, 1, 52, 45
3, 46752, Note_on_c, 1, 52, 0
3, 46752, Note_on_c, 1, 54, 45
3, 46848, Note_on_c, 1, 54, 0
3, 46848, Note_on_c, 1, 56, 45
3, 46944, Note_on_c, 1, 56, 0
3, 46944, Note_on_c, 1, 54, 45
3, 47040, Note_on_c, 1, 54, 0
3, 47040, Note_on_c, 1, 56, 45
3, 47136, Note_on_c, 1, 56, 0
3, 47136, Note_on_c, 1, 52, 45
3, 47230, Note_on_c, 1, 52, 0
3, 47232, Note_on_c, 1, 57, 45
3, 47328, Note_on_c, 1, 57, 0
3, 47328, Note_on_c, 1, 59, 45
3, 47424, Note_on_c, 1, 59, 0
3, 47424, Note_on_c, 1, 60, 45
3, 47520, Note_on_c, 1, 60, 0
3, 47520, Note_on_c, 1, 61, 45
3, 47616, Note_on_c, 1, 61, 0
3, 47616, Note_on_c, 1, 59, 45
3, 47712, Note_on_c, 1, 59, 0
3, 47712, Note_on_c, 1, 57, 45
3, 47806, Note_on_c, 1, 57, 0
3, 47808, Note_on_c, 1, 64, 45
3, 47904, Note_on_c, 1, 64, 0
3, 47904, Note_on_c, 1, 63, 45
3, 48000, Note_on_c, 1, 63, 0
3, 48000, Note_on_c, 1, 64, 45
3, 48096, Note_on_c, 1, 64, 0
3, 48096, Note_on_c, 1, 66, 45
3, 48192, Note_on_c, 1, 66, 0
3, 48192, Note_on_c, 1, 62, 45
3, 48288, Note_on_c, 1, 62, 0
3, 48288, Note_on_c, 1, 59, 45
3, 48382, Note_on_c, 1, 59, 0
3, 48384, Note_on_c, 1, 57, 45
3, 48384, Note_on_c, 1, 61, 45
3, 48576, Note_on_c, 1, 57, 0
3, 48576, Note_on_c, 1, 61, 0
3, 48576, Note_on_c, 1, 59, 45
3, 48768, Note_on_c, 1, 59, 0
3, 48768, Note_on_c, 1, 54, 92
3, 48768, Note_on_c, 1, 58, 92
3, 48928, Note_on_c, 1, 54, 0
3, 48928, Note_on_c, 1, 58, 0
3, 48960, Note_on_c, 1, 59, 45
3, 49152, Note_on_c, 1, 59, 0
3, 49152, Note_on_c, 1, 57, 45
3, 49344, Note_on_c, 1, 57, 0
3, 49344, Note_on_c, 1, 52, 92
3, 49344, Note_on_c, 1, 56, 92
3, 49504, Note_on_c, 1, 52, 0
3, 49504, Note_on_c, 1, 56, 0
3, 49536, Note_on_c, 1, 57, 45
3, 49728, Note_on_c, 1, 57, 0
3, 49728, Note_on_c, 1, 54, 45
3, 49728, Note_on_c, 1, 57, 45
3, 49888, Note_on_c, 1, 54, 0
3, 49888, Note_on_c, 1, 57, 0
3, 49920, Note_on_c, 1, 50, 92
3, 50080, Note_on_c, 1, 50, 0
3, 50112, Note_on_c, 1, 52, 92
3, 50208, Note_on_c, 1, 52, 0
3, 50208, Note_on_c, 1, 54, 92
3, 50304, Note_on_c, 1, 54, 0
3, 50304, Note_on_c, 1, 56, 92
3, 50400, Note_on_c, 1, 56, 0
3, 50400, Note_on_c, 1, 57, 92
3, 50496, Note_on_c, 1, 57, 0
3, 50496, Note_on_c, 1, 59, 92
3, 50592, Note_on_c, 1, 59, 0
3, 50592, Note_on_c, 1, 61, 92
3, 50686, Note_on_c, 1, 61, 0
3, 50688, Note_on_c, 1, 62, 92
3, 50782, Note_on_c, 1, 62, 0
3, 50784, Note_on_c, 1, 57, 94
3, 50880, Note_on_c, 1, 57, 0
3, 50880, Note_on_c, 1, 59, 96
3, 50976, Note_on_c, 1, 59, 0
3, 50976, Note_on_c, 1, 61, 99
3, 51072, Note_on_c, 1, 61, 0
3, 51072, Note_on_c, 1, 62, 102
3, 51166, Note_on_c, 1, 62, 0
3, 51168, Note_on_c, 1, 59, 105
3, 51262, Note_on_c, 1, 59, 0
3, 51264, Note_on_c, 1, 61, 108
3, 51424, Note_on_c, 1, 61, 0
3, 51456, Note_on_c, 1, 56, 108
3, 51504, Note_on_c, 1, 56, 0
3, 51792, Note_on_c, 1, 57, 45
3, 51838, Note_on_c, 1, 57, 0
3, 51840, Note_on_c, 1, 50, 45
3, 52032, Note_on_c, 1, 50, 0
3, 52032, Note_on_c, 1, 52, 45
3, 52080, Note_on_c, 1, 52, 0
3, 52224, Note_on_c, 1, 52, 45
3, 52272, Note_on_c, 1, 52, 0
3, 52416, Note_on_c, 1, 57, 45
3, 52576, Note_on_c, 1, 57, 0
3, 52608, Note_on_c, 1, 52, 45
3, 52768, Note_on_c, 1, 52, 0
3, 52800, Note_on_c, 1, 45, 45
3, 52960, Note_on_c, 1, 45, 0
3, 52960, End_track
0, 0, End_of_file