0, 0, Header, 0, 1, 120
1, 0, Start_track
1, 0, Tempo, 500000
1, 0, Control_c, 3, 10, 64
1, 0, Copyright_t, "MIDI file built by MUS2MIDI \270 Reinier Bakels 1996"
1, 0, Title_t, "KV622B00"
1, 0, Control_c, 3, 91, 127
1, 0, Time_signature, 3, 2, 24, 8
1, 0, Control_c, 3, 7, 127
1, 0, Control_c, 9, 7, 127
1, 0, Control_c, 4, 10, 0
1, 0, Title_t, "KV622B01"
1, 0, Control_c, 4, 91, 127
1, 0, Control_c, 4, 7, 127
1, 0, Title_t, "KV622B02"
1, 0, Control_c, 5, 10, 42
1, 0, Title_t, "KV622B03"
1, 0, Control_c, 5, 91, 127
1, 0, Control_c, 5, 7, 127
1, 0, Title_t, "KV622B04"
1, 0, Control_c, 6, 10, 85
1, 0, Title_t, "KV622B05"
1, 0, Control_c, 6, 91, 127
1, 0, Control_c, 6, 7, 127
1, 0, Title_t, "KV622B06"
1, 0, Control_c, 7, 10, 127
1, 0, Title_t, "KV622B07"
1, 0, Control_c, 7, 91, 127
1, 0, Control_c, 7, 7, 127
1, 0, Title_t, "KV622B08"
1, 0, Title_t, "KV622B09"
1, 0, Title_t, "KV622B10"
1, 0, Title_t, "KV622B11"
1, 127, Key_signature, 2, "major"
1, 127, Control_c, 3, 0, 0
1, 127, Instrument_name_t, "Clarinet"
1, 127, Program_c, 3, 71
1, 127, Tempo, 1200000
1, 127, Note_on_c, 3, 69, 127
1, 127, Control_c, 4, 0, 0
1, 127, Instrument_name_t, "Flute"
1, 127, Program_c, 4, 73
1, 127, Control_c, 5, 0, 0
1, 127, Instrument_name_t, "Bassoon"
1, 127, Program_c, 5, 70
1, 127, Control_c, 6, 0, 1
1, 127, Instrument_name_t, "French Horn"
1, 127, Program_c, 6, 60
1, 127, Control_c, 7, 0, 0
1, 127, Instrument_name_t, "String Ensemble 1"
1, 127, Program_c, 7, 48
1, 127, Note_on_c, 7, 66, 100
1, 127, Note_on_c, 7, 62, 100
1, 127, Note_on_c, 7, 57, 100
1, 127, Note_on_c, 7, 50, 100
1, 187, Note_on_c, 7, 66, 0
1, 187, Note_on_c, 7, 69, 100
1, 187, Note_on_c, 7, 62, 0
1, 247, Note_on_c, 3, 69, 0
1, 247, Note_on_c, 3, 74, 127
1, 247, Note_on_c, 7, 69, 0
1, 247, Note_on_c, 7, 66, 100
1, 247, Note_on_c, 7, 62, 100
1, 307, Note_on_c, 7, 66, 0
1, 307, Note_on_c, 7, 69, 100
1, 307, Note_on_c, 7, 62, 0
1, 367, Note_on_c, 7, 69, 0
1, 367, Note_on_c, 7, 66, 100
1, 367, Note_on_c, 7, 62, 100
1, 427, Note_on_c, 3, 74, 0
1, 427, Note_on_c, 3, 78, 127
1, 427, Note_on_c, 7, 66, 0
1, 427, Note_on_c, 7, 69, 100
1, 427, Note_on_c, 7, 62, 0
1, 487, Note_on_c, 3, 78, 0
1, 487, Note_on_c, 3, 78, 127
1, 487, Note_on_c, 7, 69, 0
1, 487, Note_on_c, 7, 67, 100
1, 487, Note_on_c, 7, 61, 100
1, 487, Note_on_c, 7, 50, 0
1, 487, Note_on_c, 7, 45, 100
1, 547, Note_on_c, 3, 78, 0
1, 547, Note_on_c, 3, 76, 127
1, 547, Note_on_c, 7, 67, 0
1, 547, Note_on_c, 7, 69, 100
1, 547, Note_on_c, 7, 61, 0
1, 607, Note_on_c, 3, 76, 0
1, 607, Note_on_c, 3, 74, 127
1, 607, Note_on_c, 7, 69, 0
1, 607, Note_on_c, 7, 66, 100
1, 607, Note_on_c, 7, 62, 100
1, 607, Note_on_c, 7, 45, 0
1, 607, Note_on_c, 7, 50, 100
1, 667, Note_on_c, 7, 66, 0
1, 667, Note_on_c, 7, 69, 100
1, 667, Note_on_c, 7, 62, 0
1, 727, Note_on_c, 3, 74, 0
1, 727, Note_on_c, 7, 69, 0
1, 727, Note_on_c, 7, 66, 100
1, 727, Note_on_c, 7, 62, 100
1, 727, Note_on_c, 7, 50, 0
1, 787, Note_on_c, 7, 66, 0
1, 787, Note_on_c, 7, 69, 100
1, 787, Note_on_c, 7, 62, 0
1, 847, Note_on_c, 3, 69, 127
1, 847, Note_on_c, 7, 69, 0
1, 847, Note_on_c, 7, 66, 100
1, 847, Note_on_c, 7, 62, 100
1, 847, Note_on_c, 7, 57, 0
1, 847, Note_on_c, 7, 57, 100
1, 847, Note_on_c, 7, 50, 100
1, 907, Note_on_c, 7, 66, 0
1, 907, Note_on_c, 7, 69, 100
1, 907, Note_on_c, 7, 62, 0
1, 967, Note_on_c, 7, 69, 0
1, 967, Note_on_c, 7, 66, 100
1, 967, Note_on_c, 7, 62, 100
1, 1027, Note_on_c, 3, 69, 0
1, 1027, Note_on_c, 3, 74, 127
1, 1027, Note_on_c, 7, 66, 0
1, 1027, Note_on_c, 7, 69, 100
1, 1027, Note_on_c, 7, 62, 0
1, 1087, Note_on_c, 3, 74, 0
1, 1087, Note_on_c, 3, 78, 127
1, 1087, Note_on_c, 7, 69, 0
1, 1087, Note_on_c, 7, 66, 100
1, 1087, Note_on_c, 7, 62, 100
1, 1147, Note_on_c, 3, 78, 0
1, 1147, Note_on_c, 3, 81, 127
1, 1147, Note_on_c, 7, 66, 0
1, 1147, Note_on_c, 7, 69, 100
1, 1147, Note_on_c, 7, 62, 0
1, 1207, Note_on_c, 3, 81, 0
1, 1207, Note_on_c, 3, 81, 127
1, 1207, Note_on_c, 7, 69, 0
1, 1207, Note_on_c, 7, 64, 100
1, 1207, Note_on_c, 7, 61, 100
1, 1207, Note_on_c, 7, 50, 0
1, 1207, Note_on_c, 7, 45, 100
1, 1267, Note_on_c, 3, 81, 0
1, 1267, Note_on_c, 3, 79, 127
1, 1267, Note_on_c, 7, 64, 0
1, 1267, Note_on_c, 7, 69, 100
1, 1267, Note_on_c, 7, 61, 0
1, 1327, Note_on_c, 3, 79, 0
1, 1327, Note_on_c, 3, 78, 127
1, 1327, Note_on_c, 7, 69, 0
1, 1327, Note_on_c, 7, 66, 100
1, 1327, Note_on_c, 7, 62, 100
1, 1327, Note_on_c, 7, 45, 0
1, 1327, Note_on_c, 7, 50, 100
1, 1387, Note_on_c, 7, 66, 0
1, 1387, Note_on_c, 7, 69, 100
1, 1387, Note_on_c, 7, 62, 0
1, 1447, Note_on_c, 3, 78, 0
1, 1447, Note_on_c, 7, 69, 0
1, 1447, Note_on_c, 7, 66, 100
1, 1447, Note_on_c, 7, 62, 100
1, 1447, Note_on_c, 7, 50, 0
1, 1507, Note_on_c, 7, 66, 0
1, 1507, Note_on_c, 7, 69, 100
1, 1507, Note_on_c, 7, 62, 0
1, 1567, Note_on_c, 3, 76, 127
1, 1567, Note_on_c, 7, 69, 0
1, 1567, Note_on_c, 7, 64, 100
1, 1567, Note_on_c, 7, 61, 100
1, 1567, Note_on_c, 7, 57, 0
1, 1567, Note_on_c, 7, 57, 100
1, 1567, Note_on_c, 7, 45, 100
1, 1627, Note_on_c, 7, 64, 0
1, 1627, Note_on_c, 7, 69, 100
1, 1627, Note_on_c, 7, 61, 0
1, 1687, Note_on_c, 7, 69, 0
1, 1687, Note_on_c, 7, 64, 100
1, 1687, Note_on_c, 7, 61, 100
1, 1747, Note_on_c, 3, 76, 0
1, 1747, Note_on_c, 3, 81, 127
1, 1747, Note_on_c, 7, 64, 0
1, 1747, Note_on_c, 7, 69, 100
1, 1747, Note_on_c, 7, 61, 0
1, 1807, Note_on_c, 3, 81, 0
1, 1807, Note_on_c, 3, 78, 127
1, 1807, Note_on_c, 7, 69, 0
1, 1807, Note_on_c, 7, 66, 100
1, 1807, Note_on_c, 7, 62, 100
1, 1867, Note_on_c, 3, 78, 0
1, 1867, Note_on_c, 3, 81, 127
1, 1867, Note_on_c, 7, 66, 0
1, 1867, Note_on_c, 7, 69, 100
1, 1867, Note_on_c, 7, 62, 0
1, 1927, Note_on_c, 3, 81, 0
1, 1927, Note_on_c, 3, 76, 127
1, 1927, Note_on_c, 7, 69, 0
1, 1927, Note_on_c, 7, 64, 100
1, 1927, Note_on_c, 7, 61, 100
1, 1987, Note_on_c, 7, 64, 0
1, 1987, Note_on_c, 7, 69, 100
1, 1987, Note_on_c, 7, 61, 0
1, 2047, Note_on_c, 7, 69, 0
1, 2047, Note_on_c, 7, 64, 100
1, 2047, Note_on_c, 7, 61, 100
1, 2107, Note_on_c, 3, 76, 0
1, 2107, Note_on_c, 3, 81, 127
1, 2107, Note_on_c, 7, 64, 0
1, 2107, Note_on_c, 7, 69, 100
1, 2107, Note_on_c, 7, 61, 0
1, 2167, Note_on_c, 3, 81, 0
1, 2167, Note_on_c, 3, 71, 127
1, 2167, Note_on_c, 7, 69, 0
1, 2167, Note_on_c, 7, 62, 100
1, 2167, Note_on_c, 7, 59, 100
1, 2167, Note_on_c, 7, 57, 0
1, 2167, Note_on_c, 7, 54, 100
1, 2167, Note_on_c, 7, 45, 0
1, 2167, Note_on_c, 7, 50, 100
1, 2227, Note_on_c, 3, 71, 0
1, 2227, Note_on_c, 3, 78, 127
1, 2227, Note_on_c, 7, 62, 0
1, 2227, Note_on_c, 7, 66, 100
1, 2227, Note_on_c, 7, 59, 0
1, 2227, Note_on_c, 7, 62, 100
1, 2287, Note_on_c, 3, 78, 0
1, 2287, Note_on_c, 3, 69, 127
1, 2287, Note_on_c, 7, 66, 0
1, 2287, Note_on_c, 7, 61, 100
1, 2287, Note_on_c, 7, 62, 0
1, 2287, Note_on_c, 7, 57, 100
1, 2287, Note_on_c, 7, 54, 0
1, 2287, Note_on_c, 7, 52, 100
1, 2287, Note_on_c, 7, 50, 0
1, 2347, Note_on_c, 7, 61, 0
1, 2347, Note_on_c, 7, 64, 100
1, 2347, Note_on_c, 7, 57, 0
1, 2347, Note_on_c, 7, 61, 100
1, 2407, Note_on_c, 7, 64, 0
1, 2407, Note_on_c, 7, 57, 100
1, 2467, Note_on_c, 7, 61, 0
1, 2467, Note_on_c, 7, 64, 100
1, 2467, Note_on_c, 7, 57, 0
1, 2467, Note_on_c, 7, 61, 100
1, 2527, Note_on_c, 3, 69, 0
1, 2527, Note_on_c, 3, 73, 127
1, 2527, Note_on_c, 7, 64, 0
1, 2527, Note_on_c, 7, 62, 100
1, 2527, Note_on_c, 7, 61, 0
1, 2527, Note_on_c, 7, 56, 100
1, 2557, Note_on_c, 3, 73, 0
1, 2557, Note_on_c, 3, 71, 127
1, 2587, Note_on_c, 7, 62, 0
1, 2587, Note_on_c, 7, 64, 100
1, 2587, Note_on_c, 7, 56, 0
1, 2587, Note_on_c, 7, 59, 100
1, 2617, Note_on_c, 3, 71, 0
1, 2617, Note_on_c, 3, 69, 127
1, 2647, Note_on_c, 3, 69, 0
1, 2647, Note_on_c, 3, 69, 127
1, 2647, Note_on_c, 7, 64, 0
1, 2647, Note_on_c, 7, 61, 100
1, 2647, Note_on_c, 7, 59, 0
1, 2647, Note_on_c, 7, 57, 100
1, 2647, Note_on_c, 7, 45, 100
1, 2707, Note_on_c, 7, 57, 0
1, 2707, Note_on_c, 7, 71, 100
1, 2707, Note_on_c, 7, 52, 0
1, 2707, Note_on_c, 7, 67, 100
1, 2767, Note_on_c, 3, 69, 0
1, 2767, Note_on_c, 7, 61, 0
1, 2767, Note_on_c, 7, 71, 0
1, 2767, Note_on_c, 7, 69, 100
1, 2767, Note_on_c, 7, 67, 0
1, 2767, Note_on_c, 7, 66, 100
1, 2767, Note_on_c, 7, 45, 0
1, 2827, Note_on_c, 7, 69, 0
1, 2827, Note_on_c, 7, 67, 100
1, 2827, Note_on_c, 7, 66, 0
1, 2827, Note_on_c, 7, 64, 100
1, 2887, Note_on_c, 7, 67, 0
1, 2887, Note_on_c, 7, 66, 100
1, 2887, Note_on_c, 7, 64, 0
1, 2887, Note_on_c, 7, 62, 100
1, 2947, Note_on_c, 7, 66, 0
1, 2947, Note_on_c, 7, 64, 100
1, 2947, Note_on_c, 7, 62, 0
1, 2947, Note_on_c, 7, 61, 100
1, 3007, Note_on_c, 4, 81, 80
1, 3007, Note_on_c, 4, 69, 80
1, 3007, Note_on_c, 5, 57, 80
1, 3007, Note_on_c, 5, 50, 80
1, 3007, Note_on_c, 6, 57, 80
1, 3007, Note_on_c, 6, 54, 80
1, 3007, Note_on_c, 7, 69, 100
1, 3007, Note_on_c, 7, 64, 0
1, 3007, Note_on_c, 7, 66, 100
1, 3007, Note_on_c, 7, 61, 0
1, 3007, Note_on_c, 7, 62, 100
1, 3007, Note_on_c, 7, 50, 100
1, 3007, Note_on_c, 7, 38, 100
1, 3067, Note_on_c, 7, 66, 0
1, 3067, Note_on_c, 7, 62, 0
1, 3067, Note_on_c, 7, 57, 100
1, 3127, Note_on_c, 4, 69, 0
1, 3127, Note_on_c, 4, 74, 80
1, 3127, Note_on_c, 6, 57, 0
1, 3127, Note_on_c, 6, 62, 80
1, 3127, Note_on_c, 6, 54, 0
1, 3127, Note_on_c, 6, 54, 80
1, 3127, Note_on_c, 7, 74, 100
1, 3127, Note_on_c, 7, 69, 0
1, 3127, Note_on_c, 7, 66, 100
1, 3127, Note_on_c, 7, 57, 0
1, 3127, Note_on_c, 7, 62, 100
1, 3127, Note_on_c, 7, 50, 0
1, 3127, Note_on_c, 7, 38, 0
1, 3187, Note_on_c, 7, 66, 0
1, 3187, Note_on_c, 7, 69, 100
1, 3187, Note_on_c, 7, 62, 0
1, 3187, Note_on_c, 7, 57, 100
1, 3247, Note_on_c, 7, 69, 0
1, 3247, Note_on_c, 7, 66, 100
1, 3247, Note_on_c, 7, 57, 0
1, 3247, Note_on_c, 7, 62, 100
1, 3247, Note_on_c, 7, 50, 100
1, 3247, Note_on_c, 7, 38, 100
1, 3307, Note_on_c, 4, 74, 0
1, 3307, Note_on_c, 4, 78, 80
1, 3307, Note_on_c, 6, 62, 0
1, 3307, Note_on_c, 6, 66, 80
1, 3307, Note_on_c, 6, 54, 0
1, 3307, Note_on_c, 6, 57, 80
1, 3307, Note_on_c, 7, 74, 0
1, 3307, Note_on_c, 7, 78, 100
1, 3307, Note_on_c, 7, 66, 0
1, 3307, Note_on_c, 7, 69, 100
1, 3307, Note_on_c, 7, 62, 0
1, 3307, Note_on_c, 7, 57, 100
1, 3367, Note_on_c, 4, 78, 0
1, 3367, Note_on_c, 4, 78, 80
1, 3367, Note_on_c, 5, 50, 0
1, 3367, Note_on_c, 5, 45, 80
1, 3367, Note_on_c, 6, 66, 0
1, 3367, Note_on_c, 6, 66, 80
1, 3367, Note_on_c, 6, 57, 0
1, 3367, Note_on_c, 6, 57, 80
1, 3367, Note_on_c, 7, 78, 0
1, 3367, Note_on_c, 7, 78, 100
1, 3367, Note_on_c, 7, 69, 0
1, 3367, Note_on_c, 7, 67, 100
1, 3367, Note_on_c, 7, 57, 0
1, 3367, Note_on_c, 7, 61, 100
1, 3367, Note_on_c, 7, 50, 0
1, 3367, Note_on_c, 7, 45, 100
1, 3367, Note_on_c, 7, 38, 0
1, 3367, Note_on_c, 7, 33, 100
1, 3427, Note_on_c, 4, 78, 0
1, 3427, Note_on_c, 4, 76, 80
1, 3427, Note_on_c, 6, 66, 0
1, 3427, Note_on_c, 6, 64, 80
1, 3427, Note_on_c, 7, 78, 0
1, 3427, Note_on_c, 7, 76, 100
1, 3427, Note_on_c, 7, 67, 0
1, 3427, Note_on_c, 7, 69, 100
1, 3427, Note_on_c, 7, 61, 0
1, 3427, Note_on_c, 7, 57, 100
1, 3487, Note_on_c, 4, 76, 0
1, 3487, Note_on_c, 4, 74, 80
1, 3487, Note_on_c, 5, 45, 0
1, 3487, Note_on_c, 5, 50, 80
1, 3487, Note_on_c, 6, 64, 0
1, 3487, Note_on_c, 6, 62, 80
1, 3487, Note_on_c, 6, 57, 0
1, 3487, Note_on_c, 6, 54, 80
1, 3487, Note_on_c, 7, 76, 0
1, 3487, Note_on_c, 7, 74, 100
1, 3487, Note_on_c, 7, 69, 0
1, 3487, Note_on_c, 7, 66, 100
1, 3487, Note_on_c, 7, 57, 0
1, 3487, Note_on_c, 7, 62, 100
1, 3487, Note_on_c, 7, 45, 0
1, 3487, Note_on_c, 7, 50, 100
1, 3487, Note_on_c, 7, 33, 0
1, 3487, Note_on_c, 7, 38, 100
1, 3547, Note_on_c, 7, 66, 0
1, 3547, Note_on_c, 7, 69, 100
1, 3547, Note_on_c, 7, 62, 0
1, 3547, Note_on_c, 7, 57, 100
1, 3607, Note_on_c, 4, 74, 0
1, 3607, Note_on_c, 5, 50, 0
1, 3607, Note_on_c, 6, 62, 0
1, 3607, Note_on_c, 6, 54, 0
1, 3607, Note_on_c, 7, 74, 0
1, 3607, Note_on_c, 7, 69, 0
1, 3607, Note_on_c, 7, 66, 100
1, 3607, Note_on_c, 7, 57, 0
1, 3607, Note_on_c, 7, 62, 100
1, 3607, Note_on_c, 7, 50, 0
1, 3607, Note_on_c, 7, 38, 0
1, 3667, Note_on_c, 7, 66, 0
1, 3667, Note_on_c, 7, 69, 100
1, 3667, Note_on_c, 7, 62, 0
1, 3667, Note_on_c, 7, 57, 100
1, 3727, Note_on_c, 4, 81, 0
1, 3727, Note_on_c, 4, 81, 80
1, 3727, Note_on_c, 4, 78, 80
1, 3727, Note_on_c, 5, 57, 0
1, 3727, Note_on_c, 5, 57, 80
1, 3727, Note_on_c, 5, 50, 80
1, 3727, Note_on_c, 6, 57, 80
1, 3727, Note_on_c, 6, 54, 80
1, 3727, Note_on_c, 7, 66, 100
1, 3727, Note_on_c, 7, 57, 0
1, 3727, Note_on_c, 7, 62, 100
1, 3727, Note_on_c, 7, 50, 100
1, 3727, Note_on_c, 7, 38, 100
1, 3787, Note_on_c, 7, 66, 0
1, 3787, Note_on_c, 7, 62, 0
1, 3787, Note_on_c, 7, 57, 100
1, 3847, Note_on_c, 7, 66, 100
1, 3847, Note_on_c, 7, 57, 0
1, 3847, Note_on_c, 7, 62, 100
1, 3847, Note_on_c, 7, 50, 0
1, 3847, Note_on_c, 7, 38, 0
1, 3907, Note_on_c, 4, 81, 0
1, 3907, Note_on_c, 4, 86, 80
1, 3907, Note_on_c, 6, 57, 0
1, 3907, Note_on_c, 6, 62, 80
1, 3907, Note_on_c, 6, 54, 0
1, 3907, Note_on_c, 6, 57, 80
1, 3907, Note_on_c, 7, 69, 0
1, 3907, Note_on_c, 7, 74, 100
1, 3907, Note_on_c, 7, 66, 0
1, 3907, Note_on_c, 7, 69, 100
1, 3907, Note_on_c, 7, 62, 0
1, 3907, Note_on_c, 7, 57, 100
1, 3967, Note_on_c, 4, 86, 0
1, 3967, Note_on_c, 4, 74, 80
1, 3967, Note_on_c, 6, 62, 0
1, 3967, Note_on_c, 6, 66, 80
1, 3967, Note_on_c, 6, 57, 0
1, 3967, Note_on_c, 6, 62, 80
1, 3967, Note_on_c, 7, 74, 0
1, 3967, Note_on_c, 7, 78, 100
1, 3967, Note_on_c, 7, 69, 0
1, 3967, Note_on_c, 7, 66, 100
1, 3967, Note_on_c, 7, 57, 0
1, 3967, Note_on_c, 7, 62, 100
1, 3967, Note_on_c, 7, 50, 100
1, 3967, Note_on_c, 7, 38, 100
1, 4027, Note_on_c, 4, 78, 0
1, 4027, Note_on_c, 4, 81, 80
1, 4027, Note_on_c, 4, 74, 0
1, 4027, Note_on_c, 4, 78, 80
1, 4027, Note_on_c, 6, 66, 0
1, 4027, Note_on_c, 6, 69, 80
1, 4027, Note_on_c, 6, 62, 0
1, 4027, Note_on_c, 6, 66, 80
1, 4027, Note_on_c, 7, 78, 0
1, 4027, Note_on_c, 7, 81, 100
1, 4027, Note_on_c, 7, 66, 0
1, 4027, Note_on_c, 7, 69, 100
1, 4027, Note_on_c, 7, 62, 0
1, 4027, Note_on_c, 7, 57, 100
1, 4087, Note_on_c, 4, 81, 0
1, 4087, Note_on_c, 4, 81, 80
1, 4087, Note_on_c, 4, 78, 0
1, 4087, Note_on_c, 4, 76, 80
1, 4087, Note_on_c, 5, 50, 0
1, 4087, Note_on_c, 5, 45, 80
1, 4087, Note_on_c, 6, 69, 0
1, 4087, Note_on_c, 6, 69, 80
1, 4087, Note_on_c, 6, 66, 0
1, 4087, Note_on_c, 6, 64, 80
1, 4087, Note_on_c, 7, 81, 0
1, 4087, Note_on_c, 7, 81, 100
1, 4087, Note_on_c, 7, 69, 0
1, 4087, Note_on_c, 7, 64, 100
1, 4087, Note_on_c, 7, 57, 0
1, 4087, Note_on_c, 7, 61, 100
1, 4087, Note_on_c, 7, 50, 0
1, 4087, Note_on_c, 7, 45, 100
1, 4087, Note_on_c, 7, 38, 0
1, 4087, Note_on_c, 7, 33, 100
1, 4147, Note_on_c, 4, 81, 0
1, 4147, Note_on_c, 4, 79, 80
1, 4147, Note_on_c, 6, 69, 0
1, 4147, Note_on_c, 6, 67, 80
1, 4147, Note_on_c, 7, 81, 0
1, 4147, Note_on_c, 7, 79, 100
1, 4147, Note_on_c, 7, 64, 0
1, 4147, Note_on_c, 7, 69, 100
1, 4147, Note_on_c, 7, 61, 0
1, 4147, Note_on_c, 7, 57, 100
1, 4207, Note_on_c, 4, 79, 0
1, 4207, Note_on_c, 4, 78, 80
1, 4207, Note_on_c, 4, 76, 0
1, 4207, Note_on_c, 4, 74, 80
1, 4207, Note_on_c, 5, 45, 0
1, 4207, Note_on_c, 5, 50, 80
1, 4207, Note_on_c, 6, 67, 0
1, 4207, Note_on_c, 6, 66, 80
1, 4207, Note_on_c, 6, 64, 0
1, 4207, Note_on_c, 6, 62, 80
1, 4207, Note_on_c, 7, 79, 0
1, 4207, Note_on_c, 7, 78, 100
1, 4207, Note_on_c, 7, 69, 0
1, 4207, Note_on_c, 7, 66, 100
1, 4207, Note_on_c, 7, 57, 0
1, 4207, Note_on_c, 7, 62, 100
1, 4207, Note_on_c, 7, 45, 0
1, 4207, Note_on_c, 7, 50, 100
1, 4207, Note_on_c, 7, 33, 0
1, 4207, Note_on_c, 7, 38, 100
1, 4267, Note_on_c, 7, 66, 0
1, 4267, Note_on_c, 7, 69, 100
1, 4267, Note_on_c, 7, 62, 0
1, 4267, Note_on_c, 7, 57, 100
1, 4327, Note_on_c, 4, 78, 0
1, 4327, Note_on_c, 4, 74, 0
1, 4327, Note_on_c, 5, 50, 0
1, 4327, Note_on_c, 6, 66, 0
1, 4327, Note_on_c, 6, 62, 0
1, 4327, Note_on_c, 7, 78, 0
1, 4327, Note_on_c, 7, 69, 0
1, 4327, Note_on_c, 7, 66, 100
1, 4327, Note_on_c, 7, 57, 0
1, 4327, Note_on_c, 7, 62, 100
1, 4327, Note_on_c, 7, 50, 0
1, 4327, Note_on_c, 7, 38, 0
1, 4387, Note_on_c, 7, 66, 0
1, 4387, Note_on_c, 7, 69, 100
1, 4387, Note_on_c, 7, 62, 0
1, 4387, Note_on_c, 7, 57, 100
1, 4447, Note_on_c, 4, 76, 80
1, 4447, Note_on_c, 4, 73, 80
1, 4447, Note_on_c, 5, 57, 0
1, 4447, Note_on_c, 5, 57, 80
1, 4447, Note_on_c, 6, 64, 80
1, 4447, Note_on_c, 6, 57, 80
1, 4447, Note_on_c, 7, 76, 100
1, 4447, Note_on_c, 7, 69, 0
1, 4447, Note_on_c, 7, 64, 100
1, 4447, Note_on_c, 7, 57, 0
1, 4447, Note_on_c, 7, 61, 100
1, 4447, Note_on_c, 7, 57, 100
1, 4447, Note_on_c, 7, 45, 100
1, 4507, Note_on_c, 7, 64, 0
1, 4507, Note_on_c, 7, 69, 100
1, 4507, Note_on_c, 7, 61, 0
1, 4567, Note_on_c, 7, 69, 0
1, 4567, Note_on_c, 7, 64, 100
1, 4567, Note_on_c, 7, 61, 100
1, 4567, Note_on_c, 7, 57, 0
1, 4567, Note_on_c, 7, 45, 0
1, 4627, Note_on_c, 7, 76, 0
1, 4627, Note_on_c, 7, 81, 100
1, 4627, Note_on_c, 7, 64, 0
1, 4627, Note_on_c, 7, 69, 100
1, 4627, Note_on_c, 7, 61, 0
1, 4627, Note_on_c, 7, 57, 100
1, 4687, Note_on_c, 4, 76, 0
1, 4687, Note_on_c, 4, 78, 80
1, 4687, Note_on_c, 4, 73, 0
1, 4687, Note_on_c, 4, 74, 80
1, 4687, Note_on_c, 6, 64, 0
1, 4687, Note_on_c, 6, 66, 80
1, 4687, Note_on_c, 6, 57, 0
1, 4687, Note_on_c, 6, 62, 80
1, 4687, Note_on_c, 7, 81, 0
1, 4687, Note_on_c, 7, 78, 100
1, 4687, Note_on_c, 7, 69, 0
1, 4687, Note_on_c, 7, 66, 100
1, 4687, Note_on_c, 7, 57, 0
1, 4687, Note_on_c, 7, 62, 100
1, 4747, Note_on_c, 7, 78, 0
1, 4747, Note_on_c, 7, 81, 100
1, 4747, Note_on_c, 7, 66, 0
1, 4747, Note_on_c, 7, 69, 100
1, 4747, Note_on_c, 7, 62, 0
1, 4747, Note_on_c, 7, 57, 100
1, 4807, Note_on_c, 4, 78, 0
1, 4807, Note_on_c, 4, 76, 80
1, 4807, Note_on_c, 4, 74, 0
1, 4807, Note_on_c, 4, 73, 80
1, 4807, Note_on_c, 6, 66, 0
1, 4807, Note_on_c, 6, 64, 80
1, 4807, Note_on_c, 6, 62, 0
1, 4807, Note_on_c, 6, 57, 80
1, 4807, Note_on_c, 7, 81, 0
1, 4807, Note_on_c, 7, 76, 100
1, 4807, Note_on_c, 7, 69, 0
1, 4807, Note_on_c, 7, 64, 100
1, 4807, Note_on_c, 7, 57, 0
1, 4807, Note_on_c, 7, 61, 100
1, 4807, Note_on_c, 7, 57, 100
1, 4807, Note_on_c, 7, 45, 100
1, 4867, Note_on_c, 7, 64, 0
1, 4867, Note_on_c, 7, 69, 100
1, 4867, Note_on_c, 7, 61, 0
1, 4927, Note_on_c, 4, 76, 0
1, 4927, Note_on_c, 4, 81, 80
1, 4927, Note_on_c, 7, 69, 0
1, 4927, Note_on_c, 7, 64, 100
1, 4927, Note_on_c, 7, 61, 100
1, 4927, Note_on_c, 7, 57, 0
1, 4927, Note_on_c, 7, 45, 0
1, 4987, Note_on_c, 4, 81, 0
1, 4987, Note_on_c, 4, 85, 80
1, 4987, Note_on_c, 4, 73, 0
1, 4987, Note_on_c, 4, 76, 80
1, 4987, Note_on_c, 7, 76, 0
1, 4987, Note_on_c, 7, 81, 100
1, 4987, Note_on_c, 7, 64, 0
1, 4987, Note_on_c, 7, 69, 100
1, 4987, Note_on_c, 7, 61, 0
1, 4987, Note_on_c, 7, 57, 100
1, 5047, Note_on_c, 4, 85, 0
1, 5047, Note_on_c, 4, 83, 80
1, 5047, Note_on_c, 4, 76, 0
1, 5047, Note_on_c, 4, 78, 80
1, 5047, Note_on_c, 5, 62, 80
1, 5047, Note_on_c, 5, 57, 0
1, 5047, Note_on_c, 5, 54, 80
1, 5047, Note_on_c, 6, 64, 0
1, 5047, Note_on_c, 6, 66, 80
1, 5047, Note_on_c, 6, 57, 0
1, 5047, Note_on_c, 6, 62, 80
1, 5047, Note_on_c, 7, 81, 0
1, 5047, Note_on_c, 7, 71, 100
1, 5047, Note_on_c, 7, 69, 0
1, 5047, Note_on_c, 7, 62, 100
1, 5047, Note_on_c, 7, 57, 0
1, 5047, Note_on_c, 7, 59, 100
1, 5047, Note_on_c, 7, 50, 100
1, 5047, Note_on_c, 7, 38, 100
1, 5107, Note_on_c, 4, 83, 0
1, 5107, Note_on_c, 4, 90, 80
1, 5107, Note_on_c, 4, 78, 0
1, 5107, Note_on_c, 4, 74, 80
1, 5107, Note_on_c, 7, 71, 0
1, 5107, Note_on_c, 7, 78, 100
1, 5107, Note_on_c, 7, 62, 0
1, 5107, Note_on_c, 7, 66, 100
1, 5107, Note_on_c, 7, 59, 0
1, 5107, Note_on_c, 7, 62, 100
1, 5167, Note_on_c, 4, 90, 0
1, 5167, Note_on_c, 4, 81, 80
1, 5167, Note_on_c, 4, 74, 0
1, 5167, Note_on_c, 4, 73, 80
1, 5167, Note_on_c, 5, 62, 0
1, 5167, Note_on_c, 5, 61, 80
1, 5167, Note_on_c, 5, 54, 0
1, 5167, Note_on_c, 5, 57, 80
1, 5167, Note_on_c, 6, 66, 0
1, 5167, Note_on_c, 6, 64, 80
1, 5167, Note_on_c, 6, 62, 0
1, 5167, Note_on_c, 7, 78, 0
1, 5167, Note_on_c, 7, 69, 100
1, 5167, Note_on_c, 7, 66, 0
1, 5167, Note_on_c, 7, 61, 100
1, 5167, Note_on_c, 7, 62, 0
1, 5167, Note_on_c, 7, 57, 100
1, 5167, Note_on_c, 7, 50, 0
1, 5167, Note_on_c, 7, 52, 100
1, 5167, Note_on_c, 7, 38, 0
1, 5167, Note_on_c, 7, 40, 100
1, 5227, Note_on_c, 7, 61, 0
1, 5227, Note_on_c, 7, 64, 100
1, 5227, Note_on_c, 7, 57, 0
1, 5227, Note_on_c, 7, 61, 100
1, 5287, Note_on_c, 7, 64, 0
1, 5287, Note_on_c, 7, 57, 100
1, 5287, Note_on_c, 7, 52, 0
1, 5287, Note_on_c, 7, 52, 100
1, 5287, Note_on_c, 7, 40, 0
1, 5287, Note_on_c, 7, 40, 100
1, 5347, Note_on_c, 7, 61, 0
1, 5347, Note_on_c, 7, 64, 100
1, 5347, Note_on_c, 7, 57, 0
1, 5347, Note_on_c, 7, 61, 100
1, 5407, Note_on_c, 4, 81, 0
1, 5407, Note_on_c, 4, 85, 80
1, 5407, Note_on_c, 4, 73, 0
1, 5407, Note_on_c, 4, 76, 80
1, 5407, Note_on_c, 5, 61, 0
1, 5407, Note_on_c, 5, 59, 80
1, 5407, Note_on_c, 5, 57, 0
1, 5407, Note_on_c, 5, 56, 80
1, 5407, Note_on_c, 7, 69, 0
1, 5407, Note_on_c, 7, 73, 100
1, 5407, Note_on_c, 7, 64, 0
1, 5407, Note_on_c, 7, 62, 100
1, 5407, Note_on_c, 7, 61, 0
1, 5407, Note_on_c, 7, 56, 100
1, 5407, Note_on_c, 7, 52, 0
1, 5407, Note_on_c, 7, 52, 100
1, 5407, Note_on_c, 7, 40, 0
1, 5407, Note_on_c, 7, 40, 100
1, 5437, Note_on_c, 4, 85, 0
1, 5437, Note_on_c, 4, 83, 80
1, 5437, Note_on_c, 4, 76, 0
1, 5437, Note_on_c, 4, 74, 80
1, 5437, Note_on_c, 7, 73, 0
1, 5437, Note_on_c, 7, 71, 100
1, 5467, Note_on_c, 7, 62, 0
1, 5467, Note_on_c, 7, 64, 100
1, 5467, Note_on_c, 7, 56, 0
1, 5467, Note_on_c, 7, 59, 100
1, 5497, Note_on_c, 4, 83, 0
1, 5497, Note_on_c, 4, 81, 80
1, 5497, Note_on_c, 4, 74, 0
1, 5497, Note_on_c, 4, 73, 80
1, 5497, Note_on_c, 7, 71, 0
1, 5497, Note_on_c, 7, 69, 100
1, 5527, Note_on_c, 4, 81, 0
1, 5527, Note_on_c, 4, 81, 80
1, 5527, Note_on_c, 4, 73, 0
1, 5527, Note_on_c, 4, 73, 80
1, 5527, Note_on_c, 5, 59, 0
1, 5527, Note_on_c, 5, 57, 80
1, 5527, Note_on_c, 5, 56, 0
1, 5527, Note_on_c, 6, 69, 80
1, 5527, Note_on_c, 7, 69, 0
1, 5527, Note_on_c, 7, 69, 100
1, 5527, Note_on_c, 7, 64, 0
1, 5527, Note_on_c, 7, 61, 100
1, 5527, Note_on_c, 7, 59, 0
1, 5527, Note_on_c, 7, 57, 100
1, 5527, Note_on_c, 7, 52, 0
1, 5527, Note_on_c, 7, 45, 100
1, 5527, Note_on_c, 7, 40, 0
1, 5527, Note_on_c, 7, 33, 100
1, 5587, Note_on_c, 7, 69, 0
1, 5587, Note_on_c, 7, 71, 100
1, 5587, Note_on_c, 7, 61, 0
1, 5587, Note_on_c, 7, 67, 100
1, 5647, Note_on_c, 4, 81, 0
1, 5647, Note_on_c, 4, 73, 0
1, 5647, Note_on_c, 5, 57, 0
1, 5647, Note_on_c, 6, 64, 0
1, 5647, Note_on_c, 6, 69, 0
1, 5647, Note_on_c, 7, 71, 0
1, 5647, Note_on_c, 7, 69, 100
1, 5647, Note_on_c, 7, 67, 0
1, 5647, Note_on_c, 7, 66, 100
1, 5647, Note_on_c, 7, 57, 0
1, 5647, Note_on_c, 7, 45, 0
1, 5647, Note_on_c, 7, 33, 0
1, 5707, Note_on_c, 7, 69, 0
1, 5707, Note_on_c, 7, 67, 100
1, 5707, Note_on_c, 7, 66, 0
1, 5707, Note_on_c, 7, 64, 100
1, 5767, Note_on_c, 7, 67, 0
1, 5767, Note_on_c, 7, 66, 100
1, 5767, Note_on_c, 7, 64, 0
1, 5767, Note_on_c, 7, 62, 100
1, 5827, Note_on_c, 7, 66, 0
1, 5827, Note_on_c, 7, 64, 100
1, 5827, Note_on_c, 7, 62, 0
1, 5827, Note_on_c, 7, 61, 100
1, 5887, Note_on_c, 3, 78, 127
1, 5887, Note_on_c, 7, 64, 0
1, 5887, Note_on_c, 7, 66, 100
1, 5887, Note_on_c, 7, 61, 0
1, 5887, Note_on_c, 7, 62, 100
1, 5887, Note_on_c, 7, 54, 100
1, 5887, Note_on_c, 7, 50, 100
1, 5947, Note_on_c, 7, 66, 0
1, 5947, Note_on_c, 7, 57, 100
1, 6007, Note_on_c, 7, 62, 0
1, 6007, Note_on_c, 7, 66, 100
1, 6007, Note_on_c, 7, 57, 0
1, 6007, Note_on_c, 7, 62, 100
1, 6067, Note_on_c, 3, 78, 0
1, 6067, Note_on_c, 3, 76, 127
1, 6067, Note_on_c, 7, 66, 0
1, 6067, Note_on_c, 7, 57, 100
1, 6127, Note_on_c, 3, 76, 0
1, 6127, Note_on_c, 3, 74, 127
1, 6127, Note_on_c, 7, 62, 0
1, 6127, Note_on_c, 7, 66, 100
1, 6127, Note_on_c, 7, 57, 0
1, 6127, Note_on_c, 7, 62, 100
1, 6187, Note_on_c, 3, 74, 0
1, 6187, Note_on_c, 3, 73, 127
1, 6187, Note_on_c, 7, 66, 0
1, 6187, Note_on_c, 7, 57, 100
1, 6247, Note_on_c, 3, 73, 0
1, 6247, Note_on_c, 3, 71, 127
1, 6247, Note_on_c, 7, 62, 0
1, 6247, Note_on_c, 7, 62, 100
1, 6247, Note_on_c, 7, 57, 0
1, 6247, Note_on_c, 7, 59, 100
1, 6247, Note_on_c, 7, 54, 0
1, 6247, Note_on_c, 7, 55, 100
1, 6247, Note_on_c, 7, 50, 0
1, 6307, Note_on_c, 7, 62, 0
1, 6307, Note_on_c, 7, 71, 100
1, 6307, Note_on_c, 7, 59, 0
1, 6307, Note_on_c, 7, 67, 100
1, 6367, Note_on_c, 3, 71, 0
1, 6367, Note_on_c, 7, 60, 100
1, 6367, Note_on_c, 7, 55, 0
1, 6367, Note_on_c, 7, 57, 100
1, 6427, Note_on_c, 7, 71, 0
1, 6427, Note_on_c, 7, 69, 100
1, 6427, Note_on_c, 7, 67, 0
1, 6427, Note_on_c, 7, 66, 100
1, 6487, Note_on_c, 7, 69, 0
1, 6487, Note_on_c, 7, 67, 100
1, 6487, Note_on_c, 7, 66, 0
1, 6487, Note_on_c, 7, 64, 100
1, 6487, Note_on_c, 7, 60, 0
1, 6487, Note_on_c, 7, 59, 100
1, 6487, Note_on_c, 7, 57, 0
1, 6547, Note_on_c, 7, 67, 0
1, 6547, Note_on_c, 7, 66, 100
1, 6547, Note_on_c, 7, 64, 0
1, 6547, Note_on_c, 7, 63, 100
1, 6547, Note_on_c, 7, 57, 100
1, 6607, Note_on_c, 3, 79, 127
1, 6607, Note_on_c, 7, 66, 0
1, 6607, Note_on_c, 7, 67, 100
1, 6607, Note_on_c, 7, 63, 0
1, 6607, Note_on_c, 7, 64, 100
1, 6607, Note_on_c, 7, 57, 0
1, 6607, Note_on_c, 7, 55, 100
1, 6607, Note_on_c, 7, 59, 0
1, 6607, Note_on_c, 7, 52, 100
1, 6667, Note_on_c, 7, 67, 0
1, 6667, Note_on_c, 7, 59, 100
1, 6727, Note_on_c, 7, 64, 0
1, 6727, Note_on_c, 7, 67, 100
1, 6727, Note_on_c, 7, 59, 0
1, 6727, Note_on_c, 7, 64, 100
1, 6787, Note_on_c, 3, 79, 0
1, 6787, Note_on_c, 3, 78, 127
1, 6787, Note_on_c, 7, 67, 0
1, 6787, Note_on_c, 7, 59, 100
1, 6847, Note_on_c, 3, 78, 0
1, 6847, Note_on_c, 3, 76, 127
1, 6847, Note_on_c, 7, 64, 0
1, 6847, Note_on_c, 7, 67, 100
1, 6847, Note_on_c, 7, 59, 0
1, 6847, Note_on_c, 7, 64, 100
1, 6907, Note_on_c, 3, 76, 0
1, 6907, Note_on_c, 3, 74, 127
1, 6907, Note_on_c, 7, 67, 0
1, 6907, Note_on_c, 7, 59, 100
1, 6967, Note_on_c, 3, 74, 0
1, 6967, Note_on_c, 3, 73, 127
1, 6967, Note_on_c, 7, 64, 0
1, 6967, Note_on_c, 7, 64, 100
1, 6967, Note_on_c, 7, 59, 0
1, 6967, Note_on_c, 7, 61, 100
1, 6967, Note_on_c, 7, 55, 0
1, 6967, Note_on_c, 7, 57, 100
1, 6967, Note_on_c, 7, 52, 0
1, 7027, Note_on_c, 7, 64, 0
1, 7027, Note_on_c, 7, 73, 100
1, 7027, Note_on_c, 7, 61, 0
1, 7027, Note_on_c, 7, 69, 100
1, 7087, Note_on_c, 3, 73, 0
1, 7087, Note_on_c, 7, 62, 100
1, 7087, Note_on_c, 7, 57, 0
1, 7087, Note_on_c, 7, 59, 100
1, 7147, Note_on_c, 7, 73, 0
1, 7147, Note_on_c, 7, 71, 100
1, 7147, Note_on_c, 7, 69, 0
1, 7147, Note_on_c, 7, 68, 100
1, 7207, Note_on_c, 7, 71, 0
1, 7207, Note_on_c, 7, 69, 100
1, 7207, Note_on_c, 7, 68, 0
1, 7207, Note_on_c, 7, 66, 100
1, 7207, Note_on_c, 7, 62, 0
1, 7207, Note_on_c, 7, 61, 100
1, 7207, Note_on_c, 7, 59, 0
1, 7267, Note_on_c, 7, 69, 0
1, 7267, Note_on_c, 7, 68, 100
1, 7267, Note_on_c, 7, 66, 0
1, 7267, Note_on_c, 7, 65, 100
1, 7267, Note_on_c, 7, 59, 100
1, 7327, Note_on_c, 3, 81, 127
1, 7327, Note_on_c, 7, 68, 0
1, 7327, Note_on_c, 7, 69, 100
1, 7327, Note_on_c, 7, 65, 0
1, 7327, Note_on_c, 7, 66, 100
1, 7327, Note_on_c, 7, 59, 0
1, 7327, Note_on_c, 7, 57, 100
1, 7327, Note_on_c, 7, 61, 0
1, 7327, Note_on_c, 7, 54, 100
1, 7387, Note_on_c, 7, 69, 0
1, 7387, Note_on_c, 7, 61, 100
1, 7387, Note_on_c, 7, 66, 0
1, 7447, Note_on_c, 7, 61, 0
1, 7447, Note_on_c, 7, 59, 100
1, 7447, Note_on_c, 7, 57, 0
1, 7447, Note_on_c, 7, 55, 100
1, 7447, Note_on_c, 7, 54, 0
1, 7507, Note_on_c, 3, 81, 0
1, 7507, Note_on_c, 3, 79, 127
1, 7507, Note_on_c, 7, 64, 100
1, 7567, Note_on_c, 3, 79, 0
1, 7567, Note_on_c, 3, 78, 127
1, 7567, Note_on_c, 7, 64, 0
1, 7567, Note_on_c, 7, 61, 100
1, 7567, Note_on_c, 7, 59, 0
1, 7567, Note_on_c, 7, 57, 100
1, 7567, Note_on_c, 7, 55, 0
1, 7627, Note_on_c, 3, 78, 0
1, 7627, Note_on_c, 3, 76, 127
1, 7627, Note_on_c, 7, 61, 0
1, 7627, Note_on_c, 7, 67, 100
1, 7627, Note_on_c, 7, 61, 100
1, 7687, Note_on_c, 3, 76, 0
1, 7687, Note_on_c, 3, 74, 127
1, 7687, Note_on_c, 7, 67, 0
1, 7687, Note_on_c, 7, 66, 100
1, 7687, Note_on_c, 7, 61, 0
1, 7687, Note_on_c, 7, 62, 100
1, 7687, Note_on_c, 7, 59, 100
1, 7687, Note_on_c, 7, 57, 0
1, 7747, Note_on_c, 3, 74, 0
1, 7747, Note_on_c, 3, 79, 127
1, 7747, Note_on_c, 7, 66, 0
1, 7807, Note_on_c, 3, 79, 0
1, 7807, Note_on_c, 3, 79, 127
1, 7807, Note_on_c, 7, 62, 0
1, 7807, Note_on_c, 7, 64, 100
1, 7807, Note_on_c, 7, 57, 100
1, 7807, Note_on_c, 7, 61, 100
1, 7807, Note_on_c, 7, 59, 0
1, 7867, Note_on_c, 7, 64, 0
1, 7867, Note_on_c, 7, 69, 100
1, 7867, Note_on_c, 7, 57, 0
1, 7867, Note_on_c, 7, 64, 100
1, 7927, Note_on_c, 7, 69, 0
1, 7927, Note_on_c, 7, 62, 100
1, 7927, Note_on_c, 7, 64, 0
1, 7927, Note_on_c, 7, 57, 100
1, 7927, Note_on_c, 7, 61, 0
1, 7987, Note_on_c, 3, 79, 0
1, 7987, Note_on_c, 3, 78, 127
1, 7987, Note_on_c, 7, 69, 100
1, 7987, Note_on_c, 7, 57, 0
1, 8047, Note_on_c, 3, 78, 0
1, 8047, Note_on_c, 3, 78, 127
1, 8047, Note_on_c, 7, 69, 0
1, 8047, Note_on_c, 7, 64, 100
1, 8047, Note_on_c, 7, 59, 100
1, 8047, Note_on_c, 7, 55, 100
1, 8047, Note_on_c, 7, 62, 0
1, 8077, Note_on_c, 3, 78, 0
1, 8077, Note_on_c, 3, 76, 127
1, 8107, Note_on_c, 3, 76, 0
1, 8107, Note_on_c, 3, 79, 127
1, 8107, Note_on_c, 7, 64, 0
1, 8107, Note_on_c, 7, 67, 100
1, 8107, Note_on_c, 7, 59, 0
1, 8107, Note_on_c, 7, 64, 100
1, 8107, Note_on_c, 7, 59, 100
1, 8137, Note_on_c, 3, 79, 0
1, 8137, Note_on_c, 3, 76, 127
1, 8167, Note_on_c, 3, 76, 0
1, 8167, Note_on_c, 3, 74, 127
1, 8167, Note_on_c, 7, 67, 0
1, 8167, Note_on_c, 7, 66, 100
1, 8167, Note_on_c, 7, 64, 0
1, 8167, Note_on_c, 7, 62, 100
1, 8167, Note_on_c, 7, 59, 0
1, 8167, Note_on_c, 7, 57, 100
1, 8167, Note_on_c, 7, 55, 0
1, 8227, Note_on_c, 7, 66, 0
1, 8227, Note_on_c, 7, 69, 100
1, 8227, Note_on_c, 7, 62, 0
1, 8227, Note_on_c, 7, 66, 100
1, 8287, Note_on_c, 3, 74, 0
1, 8287, Note_on_c, 3, 78, 127
1, 8287, Note_on_c, 7, 69, 0
1, 8287, Note_on_c, 7, 61, 100
1, 8287, Note_on_c, 7, 66, 0
1, 8287, Note_on_c, 7, 45, 100
1, 8317, Note_on_c, 3, 78, 0
1, 8317, Note_on_c, 3, 76, 127
1, 8347, Note_on_c, 7, 61, 0
1, 8347, Note_on_c, 7, 64, 100
1, 8347, Note_on_c, 7, 61, 100
1, 8347, Note_on_c, 7, 57, 0
1, 8347, Note_on_c, 7, 55, 100
1, 8377, Note_on_c, 3, 76, 0
1, 8377, Note_on_c, 3, 74, 127
1, 8407, Note_on_c, 3, 74, 0
1, 8407, Note_on_c, 3, 74, 127
1, 8407, Note_on_c, 7, 64, 0
1, 8407, Note_on_c, 7, 62, 100
1, 8407, Note_on_c, 7, 61, 0
1, 8407, Note_on_c, 7, 55, 0
1, 8407, Note_on_c, 7, 54, 100
1, 8407, Note_on_c, 7, 45, 0
1, 8407, Note_on_c, 7, 50, 100
1, 8467, Note_on_c, 7, 71, 100
1, 8467, Note_on_c, 7, 54, 0
1, 8467, Note_on_c, 7, 67, 100
1, 8527, Note_on_c, 3, 74, 0
1, 8527, Note_on_c, 7, 62, 0
1, 8527, Note_on_c, 7, 71, 0
1, 8527, Note_on_c, 7, 69, 100
1, 8527, Note_on_c, 7, 67, 0
1, 8527, Note_on_c, 7, 66, 100
1, 8527, Note_on_c, 7, 50, 0
1, 8587, Note_on_c, 7, 69, 0
1, 8587, Note_on_c, 7, 67, 100
1, 8587, Note_on_c, 7, 66, 0
1, 8587, Note_on_c, 7, 64, 100
1, 8647, Note_on_c, 7, 67, 0
1, 8647, Note_on_c, 7, 66, 100
1, 8647, Note_on_c, 7, 64, 0
1, 8647, Note_on_c, 7, 62, 100
1, 8707, Note_on_c, 7, 66, 0
1, 8707, Note_on_c, 7, 64, 100
1, 8707, Note_on_c, 7, 62, 0
1, 8707, Note_on_c, 7, 61, 100
1, 8767, Note_on_c, 5, 57, 80
1, 8767, Note_on_c, 6, 62, 80
1, 8767, Note_on_c, 6, 50, 80
1, 8767, Note_on_c, 7, 78, 100
1, 8767, Note_on_c, 7, 64, 0
1, 8767, Note_on_c, 7, 66, 100
1, 8767, Note_on_c, 7, 61, 0
1, 8767, Note_on_c, 7, 62, 100
1, 8767, Note_on_c, 7, 50, 100
1, 8767, Note_on_c, 7, 26, 100
1, 8827, Note_on_c, 7, 66, 0
1, 8827, Note_on_c, 7, 54, 100
1, 8887, Note_on_c, 7, 62, 0
1, 8887, Note_on_c, 7, 66, 100
1, 8887, Note_on_c, 7, 54, 0
1, 8887, Note_on_c, 7, 62, 100
1, 8947, Note_on_c, 7, 78, 0
1, 8947, Note_on_c, 7, 76, 100
1, 8947, Note_on_c, 7, 66, 0
1, 8947, Note_on_c, 7, 64, 100
1, 8947, Note_on_c, 7, 62, 0
1, 8947, Note_on_c, 7, 61, 100
1, 8947, Note_on_c, 7, 50, 0
1, 8947, Note_on_c, 7, 52, 100
1, 8947, Note_on_c, 7, 26, 0
1, 8947, Note_on_c, 7, 28, 100
1, 9007, Note_on_c, 5, 57, 0
1, 9007, Note_on_c, 7, 76, 0
1, 9007, Note_on_c, 7, 74, 100
1, 9007, Note_on_c, 7, 64, 0
1, 9007, Note_on_c, 7, 62, 100
1, 9007, Note_on_c, 7, 61, 0
1, 9007, Note_on_c, 7, 59, 100
1, 9007, Note_on_c, 7, 52, 0
1, 9007, Note_on_c, 7, 54, 100
1, 9007, Note_on_c, 7, 28, 0
1, 9007, Note_on_c, 7, 30, 100
1, 9067, Note_on_c, 7, 74, 0
1, 9067, Note_on_c, 7, 73, 100
1, 9067, Note_on_c, 7, 62, 0
1, 9067, Note_on_c, 7, 61, 100
1, 9067, Note_on_c, 7, 59, 0
1, 9067, Note_on_c, 7, 57, 100
1, 9127, Note_on_c, 4, 83, 80
1, 9127, Note_on_c, 4, 79, 80
1, 9127, Note_on_c, 7, 73, 0
1, 9127, Note_on_c, 7, 71, 100
1, 9127, Note_on_c, 7, 61, 0
1, 9127, Note_on_c, 7, 59, 100
1, 9127, Note_on_c, 7, 57, 0
1, 9127, Note_on_c, 7, 55, 100
1, 9127, Note_on_c, 7, 54, 0
1, 9127, Note_on_c, 7, 30, 0
1, 9127, Note_on_c, 7, 31, 100
1, 9187, Note_on_c, 7, 59, 0
1, 9187, Note_on_c, 7, 67, 100
1, 9247, Note_on_c, 5, 60, 80
1, 9247, Note_on_c, 6, 62, 0
1, 9247, Note_on_c, 6, 50, 0
1, 9247, Note_on_c, 7, 55, 0
1, 9247, Note_on_c, 7, 57, 100
1, 9247, Note_on_c, 7, 31, 0
1, 9247, Note_on_c, 7, 33, 100
1, 9307, Note_on_c, 4, 83, 0
1, 9307, Note_on_c, 4, 81, 80
1, 9307, Note_on_c, 4, 79, 0
1, 9307, Note_on_c, 4, 78, 80
1, 9307, Note_on_c, 7, 71, 0
1, 9307, Note_on_c, 7, 69, 100
1, 9307, Note_on_c, 7, 67, 0
1, 9307, Note_on_c, 7, 66, 100
1, 9367, Note_on_c, 4, 81, 0
1, 9367, Note_on_c, 4, 79, 80
1, 9367, Note_on_c, 4, 78, 0
1, 9367, Note_on_c, 4, 76, 80
1, 9367, Note_on_c, 5, 59, 80
1, 9367, Note_on_c, 5, 60, 0
1, 9367, Note_on_c, 7, 69, 0
1, 9367, Note_on_c, 7, 67, 100
1, 9367, Note_on_c, 7, 66, 0
1, 9367, Note_on_c, 7, 64, 100
1, 9367, Note_on_c, 7, 57, 0
1, 9367, Note_on_c, 7, 59, 100
1, 9367, Note_on_c, 7, 33, 0
1, 9367, Note_on_c, 7, 35, 100
1, 9427, Note_on_c, 4, 79, 0
1, 9427, Note_on_c, 4, 78, 80
1, 9427, Note_on_c, 4, 76, 0
1, 9427, Note_on_c, 4, 75, 80
1, 9427, Note_on_c, 5, 57, 80
1, 9427, Note_on_c, 7, 67, 0
1, 9427, Note_on_c, 7, 66, 100
1, 9427, Note_on_c, 7, 64, 0
1, 9427, Note_on_c, 7, 63, 100
1, 9487, Note_on_c, 4, 78, 0
1, 9487, Note_on_c, 4, 76, 80
1, 9487, Note_on_c, 4, 75, 0
1, 9487, Note_on_c, 5, 59, 0
1, 9487, Note_on_c, 5, 59, 80
1, 9487, Note_on_c, 5, 57, 0
1, 9487, Note_on_c, 5, 55, 80
1, 9487, Note_on_c, 7, 79, 100
1, 9487, Note_on_c, 7, 66, 0
1, 9487, Note_on_c, 7, 67, 100
1, 9487, Note_on_c, 7, 63, 0
1, 9487, Note_on_c, 7, 64, 100
1, 9487, Note_on_c, 7, 59, 0
1, 9487, Note_on_c, 7, 52, 100
1, 9487, Note_on_c, 7, 35, 0
1, 9487, Note_on_c, 7, 28, 100
1, 9547, Note_on_c, 7, 67, 0
1, 9547, Note_on_c, 7, 55, 100
1, 9607, Note_on_c, 4, 76, 0
1, 9607, Note_on_c, 7, 64, 0
1, 9607, Note_on_c, 7, 67, 100
1, 9607, Note_on_c, 7, 55, 0
1, 9607, Note_on_c, 7, 59, 100
1, 9607, Note_on_c, 7, 52, 0
1, 9607, Note_on_c, 7, 40, 100
1, 9607, Note_on_c, 7, 28, 0
1, 9607, Note_on_c, 7, 28, 100
1, 9667, Note_on_c, 5, 59, 0
1, 9667, Note_on_c, 5, 57, 80
1, 9667, Note_on_c, 5, 55, 0
1, 9667, Note_on_c, 5, 54, 80
1, 9667, Note_on_c, 7, 79, 0
1, 9667, Note_on_c, 7, 78, 100
1, 9667, Note_on_c, 7, 67, 0
1, 9667, Note_on_c, 7, 66, 100
1, 9667, Note_on_c, 7, 59, 0
1, 9667, Note_on_c, 7, 57, 100
1, 9667, Note_on_c, 7, 40, 0
1, 9667, Note_on_c, 7, 42, 100
1, 9667, Note_on_c, 7, 28, 0
1, 9667, Note_on_c, 7, 30, 100
1, 9727, Note_on_c, 5, 57, 0
1, 9727, Note_on_c, 5, 55, 80
1, 9727, Note_on_c, 5, 54, 0
1, 9727, Note_on_c, 5, 52, 80
1, 9727, Note_on_c, 7, 78, 0
1, 9727, Note_on_c, 7, 76, 100
1, 9727, Note_on_c, 7, 66, 0
1, 9727, Note_on_c, 7, 64, 100
1, 9727, Note_on_c, 7, 57, 0
1, 9727, Note_on_c, 7, 55, 100
1, 9727, Note_on_c, 7, 42, 0
1, 9727, Note_on_c, 7, 43, 100
1, 9727, Note_on_c, 7, 30, 0
1, 9727, Note_on_c, 7, 31, 100
1, 9787, Note_on_c, 5, 55, 0
1, 9787, Note_on_c, 5, 54, 80
1, 9787, Note_on_c, 5, 52, 0
1, 9787, Note_on_c, 5, 50, 80
1, 9787, Note_on_c, 7, 76, 0
1, 9787, Note_on_c, 7, 74, 100
1, 9787, Note_on_c, 7, 64, 0
1, 9787, Note_on_c, 7, 62, 100
1, 9787, Note_on_c, 7, 55, 0
1, 9787, Note_on_c, 7, 54, 100
1, 9787, Note_on_c, 7, 43, 0
1, 9787, Note_on_c, 7, 44, 100
1, 9787, Note_on_c, 7, 31, 0
1, 9787, Note_on_c, 7, 32, 100
1, 9847, Note_on_c, 4, 85, 80
1, 9847, Note_on_c, 4, 81, 80
1, 9847, Note_on_c, 5, 54, 0
1, 9847, Note_on_c, 5, 52, 80
1, 9847, Note_on_c, 5, 50, 0
1, 9847, Note_on_c, 5, 49, 80
1, 9847, Note_on_c, 7, 74, 0
1, 9847, Note_on_c, 7, 73, 100
1, 9847, Note_on_c, 7, 62, 0
1, 9847, Note_on_c, 7, 61, 100
1, 9847, Note_on_c, 7, 54, 0
1, 9847, Note_on_c, 7, 52, 100
1, 9847, Note_on_c, 7, 44, 0
1, 9847, Note_on_c, 7, 45, 100
1, 9847, Note_on_c, 7, 32, 0
1, 9847, Note_on_c, 7, 33, 100
1, 9907, Note_on_c, 5, 52, 0
1, 9907, Note_on_c, 5, 49, 0
1, 9907, Note_on_c, 7, 61, 0
1, 9907, Note_on_c, 7, 52, 0
1, 9907, Note_on_c, 7, 69, 100
1, 9967, Note_on_c, 5, 62, 80
1, 9967, Note_on_c, 7, 45, 0
1, 9967, Note_on_c, 7, 47, 100
1, 9967, Note_on_c, 7, 33, 0
1, 9967, Note_on_c, 7, 35, 100
1, 10027, Note_on_c, 4, 85, 0
1, 10027, Note_on_c, 4, 83, 80
1, 10027, Note_on_c, 4, 81, 0
1, 10027, Note_on_c, 4, 80, 80
1, 10027, Note_on_c, 7, 73, 0
1, 10027, Note_on_c, 7, 71, 100
1, 10027, Note_on_c, 7, 69, 0
1, 10027, Note_on_c, 7, 68, 100
1, 10087, Note_on_c, 4, 83, 0
1, 10087, Note_on_c, 4, 81, 80
1, 10087, Note_on_c, 4, 80, 0
1, 10087, Note_on_c, 4, 78, 80
1, 10087, Note_on_c, 5, 61, 80
1, 10087, Note_on_c, 5, 62, 0
1, 10087, Note_on_c, 7, 71, 0
1, 10087, Note_on_c, 7, 69, 100
1, 10087, Note_on_c, 7, 68, 0
1, 10087, Note_on_c, 7, 66, 100
1, 10087, Note_on_c, 7, 47, 0
1, 10087, Note_on_c, 7, 49, 100
1, 10087, Note_on_c, 7, 35, 0
1, 10087, Note_on_c, 7, 37, 100
1, 10147, Note_on_c, 4, 81, 0
1, 10147, Note_on_c, 4, 80, 80
1, 10147, Note_on_c, 4, 78, 0
1, 10147, Note_on_c, 4, 77, 80
1, 10147, Note_on_c, 5, 59, 80
1, 10147, Note_on_c, 7, 69, 0
1, 10147, Note_on_c, 7, 68, 100
1, 10147, Note_on_c, 7, 66, 0
1, 10147, Note_on_c, 7, 65, 100
1, 10207, Note_on_c, 4, 80, 0
1, 10207, Note_on_c, 4, 78, 80
1, 10207, Note_on_c, 4, 77, 0
1, 10207, Note_on_c, 5, 61, 0
1, 10207, Note_on_c, 5, 61, 80
1, 10207, Note_on_c, 5, 59, 0
1, 10207, Note_on_c, 5, 57, 80
1, 10207, Note_on_c, 6, 69, 80
1, 10207, Note_on_c, 6, 66, 80
1, 10207, Note_on_c, 7, 81, 100
1, 10207, Note_on_c, 7, 68, 0
1, 10207, Note_on_c, 7, 69, 100
1, 10207, Note_on_c, 7, 65, 0
1, 10207, Note_on_c, 7, 66, 100
1, 10207, Note_on_c, 7, 49, 0
1, 10207, Note_on_c, 7, 42, 100
1, 10207, Note_on_c, 7, 37, 0
1, 10207, Note_on_c, 7, 30, 100
1, 10267, Note_on_c, 7, 69, 0
1, 10267, Note_on_c, 7, 61, 100
1, 10267, Note_on_c, 7, 66, 0
1, 10267, Note_on_c, 7, 57, 100
1, 10327, Note_on_c, 4, 78, 0
1, 10327, Note_on_c, 7, 61, 0
1, 10327, Note_on_c, 7, 69, 100
1, 10327, Note_on_c, 7, 57, 0
1, 10327, Note_on_c, 7, 61, 100
1, 10387, Note_on_c, 5, 61, 0
1, 10387, Note_on_c, 5, 59, 80
1, 10387, Note_on_c, 5, 57, 0
1, 10387, Note_on_c, 5, 55, 80
1, 10387, Note_on_c, 6, 69, 0
1, 10387, Note_on_c, 6, 67, 80
1, 10387, Note_on_c, 6, 66, 0
1, 10387, Note_on_c, 6, 64, 80
1, 10387, Note_on_c, 7, 81, 0
1, 10387, Note_on_c, 7, 79, 100
1, 10387, Note_on_c, 7, 69, 0
1, 10387, Note_on_c, 7, 67, 100
1, 10387, Note_on_c, 7, 61, 0
1, 10387, Note_on_c, 7, 59, 100
1, 10387, Note_on_c, 7, 42, 0
1, 10387, Note_on_c, 7, 43, 100
1, 10387, Note_on_c, 7, 30, 0
1, 10387, Note_on_c, 7, 31, 100
1, 10447, Note_on_c, 5, 59, 0
1, 10447, Note_on_c, 5, 57, 80
1, 10447, Note_on_c, 5, 55, 0
1, 10447, Note_on_c, 5, 54, 80
1, 10447, Note_on_c, 6, 67, 0
1, 10447, Note_on_c, 6, 66, 80
1, 10447, Note_on_c, 6, 64, 0
1, 10447, Note_on_c, 6, 62, 80
1, 10447, Note_on_c, 7, 79, 0
1, 10447, Note_on_c, 7, 78, 100
1, 10447, Note_on_c, 7, 67, 0
1, 10447, Note_on_c, 7, 66, 100
1, 10447, Note_on_c, 7, 59, 0
1, 10447, Note_on_c, 7, 57, 100
1, 10447, Note_on_c, 7, 43, 0
1, 10447, Note_on_c, 7, 45, 100
1, 10447, Note_on_c, 7, 31, 0
1, 10447, Note_on_c, 7, 33, 100
1, 10507, Note_on_c, 5, 57, 0
1, 10507, Note_on_c, 5, 55, 80
1, 10507, Note_on_c, 5, 54, 0
1, 10507, Note_on_c, 5, 52, 80
1, 10507, Note_on_c, 6, 66, 0
1, 10507, Note_on_c, 6, 67, 80
1, 10507, Note_on_c, 6, 62, 0
1, 10507, Note_on_c, 6, 64, 80
1, 10507, Note_on_c, 7, 78, 0
1, 10507, Note_on_c, 7, 76, 100
1, 10507, Note_on_c, 7, 66, 0
1, 10507, Note_on_c, 7, 64, 100
1, 10507, Note_on_c, 7, 57, 0
1, 10507, Note_on_c, 7, 55, 100
1, 10507, Note_on_c, 7, 45, 0
1, 10507, Note_on_c, 7, 46, 100
1, 10507, Note_on_c, 7, 33, 0
1, 10507, Note_on_c, 7, 34, 100
1, 10567, Note_on_c, 5, 55, 0
1, 10567, Note_on_c, 5, 54, 80
1, 10567, Note_on_c, 5, 52, 0
1, 10567, Note_on_c, 5, 50, 80
1, 10567, Note_on_c, 6, 67, 0
1, 10567, Note_on_c, 6, 66, 80
1, 10567, Note_on_c, 6, 64, 0
1, 10567, Note_on_c, 6, 62, 80
1, 10567, Note_on_c, 7, 76, 0
1, 10567, Note_on_c, 7, 74, 100
1, 10567, Note_on_c, 7, 64, 0
1, 10567, Note_on_c, 7, 62, 100
1, 10567, Note_on_c, 7, 55, 0
1, 10567, Note_on_c, 7, 54, 100
1, 10567, Note_on_c, 7, 46, 0
1, 10567, Note_on_c, 7, 47, 100
1, 10567, Note_on_c, 7, 34, 0
1, 10567, Note_on_c, 7, 35, 100
1, 10627, Note_on_c, 5, 54, 0
1, 10627, Note_on_c, 5, 55, 80
1, 10627, Note_on_c, 6, 66, 0
1, 10627, Note_on_c, 7, 62, 0
1, 10627, Note_on_c, 7, 59, 100
1, 10627, Note_on_c, 7, 54, 0
1, 10627, Note_on_c, 7, 62, 100
1, 10657, Note_on_c, 7, 74, 0
1, 10657, Note_on_c, 7, 79, 100
1, 10687, Note_on_c, 4, 79, 80
1, 10687, Note_on_c, 4, 76, 80
1, 10687, Note_on_c, 5, 55, 0
1, 10687, Note_on_c, 5, 49, 80
1, 10687, Note_on_c, 5, 50, 0
1, 10687, Note_on_c, 6, 64, 80
1, 10687, Note_on_c, 6, 62, 0
1, 10687, Note_on_c, 6, 57, 80
1, 10687, Note_on_c, 7, 79, 0
1, 10687, Note_on_c, 7, 79, 100
1, 10687, Note_on_c, 7, 59, 0
1, 10687, Note_on_c, 7, 64, 100
1, 10687, Note_on_c, 7, 62, 0
1, 10687, Note_on_c, 7, 57, 100
1, 10687, Note_on_c, 7, 47, 0
1, 10687, Note_on_c, 7, 49, 100
1, 10687, Note_on_c, 7, 35, 0
1, 10687, Note_on_c, 7, 37, 100
1, 10747, Note_on_c, 7, 64, 0
1, 10747, Note_on_c, 7, 69, 100
1, 10747, Note_on_c, 7, 57, 0
1, 10747, Note_on_c, 7, 64, 100
1, 10807, Note_on_c, 4, 76, 0
1, 10807, Note_on_c, 4, 74, 80
1, 10807, Note_on_c, 5, 50, 80
1, 10807, Note_on_c, 5, 49, 0
1, 10807, Note_on_c, 6, 64, 0
1, 10807, Note_on_c, 6, 62, 80
1, 10807, Note_on_c, 7, 69, 0
1, 10807, Note_on_c, 7, 62, 100
1, 10807, Note_on_c, 7, 64, 0
1, 10807, Note_on_c, 7, 57, 100
1, 10807, Note_on_c, 7, 49, 0
1, 10807, Note_on_c, 7, 50, 100
1, 10807, Note_on_c, 7, 37, 0
1, 10807, Note_on_c, 7, 38, 100
1, 10867, Note_on_c, 4, 79, 0
1, 10867, Note_on_c, 4, 78, 80
1, 10867, Note_on_c, 7, 79, 0
1, 10867, Note_on_c, 7, 78, 100
1, 10867, Note_on_c, 7, 62, 0
1, 10867, Note_on_c, 7, 69, 100
1, 10867, Note_on_c, 7, 57, 0
1, 10867, Note_on_c, 7, 62, 100
1, 10927, Note_on_c, 4, 78, 0
1, 10927, Note_on_c, 4, 76, 80
1, 10927, Note_on_c, 4, 74, 0
1, 10927, Note_on_c, 4, 71, 80
1, 10927, Note_on_c, 5, 43, 80
1, 10927, Note_on_c, 5, 50, 0
1, 10927, Note_on_c, 6, 62, 0
1, 10927, Note_on_c, 6, 57, 0
1, 10927, Note_on_c, 7, 78, 0
1, 10927, Note_on_c, 7, 76, 100
1, 10927, Note_on_c, 7, 69, 0
1, 10927, Note_on_c, 7, 71, 100
1, 10927, Note_on_c, 7, 62, 0
1, 10927, Note_on_c, 7, 59, 100
1, 10927, Note_on_c, 7, 50, 0
1, 10927, Note_on_c, 7, 43, 100
1, 10927, Note_on_c, 7, 38, 0
1, 10927, Note_on_c, 7, 31, 100
1, 10957, Note_on_c, 4, 76, 0
1, 10957, Note_on_c, 4, 83, 80
1, 10957, Note_on_c, 7, 76, 0
1, 10957, Note_on_c, 7, 83, 100
1, 10987, Note_on_c, 4, 83, 0
1, 10987, Note_on_c, 4, 79, 80
1, 10987, Note_on_c, 7, 83, 0
1, 10987, Note_on_c, 7, 79, 100
1, 10987, Note_on_c, 7, 71, 0
1, 10987, Note_on_c, 7, 67, 100
1, 10987, Note_on_c, 7, 59, 0
1, 10987, Note_on_c, 7, 64, 100
1, 11017, Note_on_c, 4, 79, 0
1, 11017, Note_on_c, 4, 76, 80
1, 11017, Note_on_c, 7, 79, 0
1, 11017, Note_on_c, 7, 76, 100
1, 11047, Note_on_c, 4, 76, 0
1, 11047, Note_on_c, 4, 74, 80
1, 11047, Note_on_c, 4, 71, 0
1, 11047, Note_on_c, 4, 69, 80
1, 11047, Note_on_c, 5, 45, 80
1, 11047, Note_on_c, 5, 43, 0
1, 11047, Note_on_c, 6, 66, 80
1, 11047, Note_on_c, 6, 62, 80
1, 11047, Note_on_c, 7, 76, 0
1, 11047, Note_on_c, 7, 74, 100
1, 11047, Note_on_c, 7, 67, 0
1, 11047, Note_on_c, 7, 66, 100
1, 11047, Note_on_c, 7, 64, 0
1, 11047, Note_on_c, 7, 57, 100
1, 11047, Note_on_c, 7, 43, 0
1, 11047, Note_on_c, 7, 45, 100
1, 11047, Note_on_c, 7, 31, 0
1, 11047, Note_on_c, 7, 33, 100
1, 11107, Note_on_c, 7, 66, 0
1, 11107, Note_on_c, 7, 69, 100
1, 11107, Note_on_c, 7, 57, 0
1, 11107, Note_on_c, 7, 66, 100
1, 11167, Note_on_c, 4, 74, 0
1, 11167, Note_on_c, 4, 78, 80
1, 11167, Note_on_c, 4, 69, 0
1, 11167, Note_on_c, 4, 61, 80
1, 11167, Note_on_c, 6, 66, 0
1, 11167, Note_on_c, 6, 64, 80
1, 11167, Note_on_c, 6, 62, 0
1, 11167, Note_on_c, 6, 57, 80
1, 11167, Note_on_c, 7, 74, 0
1, 11167, Note_on_c, 7, 78, 100
1, 11167, Note_on_c, 7, 69, 0
1, 11167, Note_on_c, 7, 67, 100
1, 11167, Note_on_c, 7, 66, 0
1, 11167, Note_on_c, 7, 61, 100
1, 11167, Note_on_c, 7, 45, 0
1, 11167, Note_on_c, 7, 45, 100
1, 11167, Note_on_c, 7, 33, 0
1, 11167, Note_on_c, 7, 33, 100
1, 11197, Note_on_c, 4, 78, 0
1, 11197, Note_on_c, 4, 76, 80
1, 11197, Note_on_c, 7, 78, 0
1, 11197, Note_on_c, 7, 76, 100
1, 11227, Note_on_c, 7, 67, 0
1, 11227, Note_on_c, 7, 69, 100
1, 11227, Note_on_c, 7, 61, 0
1, 11227, Note_on_c, 7, 64, 100
1, 11257, Note_on_c, 4, 76, 0
1, 11257, Note_on_c, 4, 74, 80
1, 11257, Note_on_c, 7, 76, 0
1, 11257, Note_on_c, 7, 74, 100
1, 11287, Note_on_c, 4, 74, 0
1, 11287, Note_on_c, 4, 74, 80
1, 11287, Note_on_c, 4, 61, 0
1, 11287, Note_on_c, 4, 62, 80
1, 11287, Note_on_c, 5, 50, 80
1, 11287, Note_on_c, 5, 45, 0
1, 11287, Note_on_c, 6, 64, 0
1, 11287, Note_on_c, 6, 62, 80
1, 11287, Note_on_c, 6, 57, 0
1, 11287, Note_on_c, 6, 54, 80
1, 11287, Note_on_c, 7, 74, 0
1, 11287, Note_on_c, 7, 74, 100
1, 11287, Note_on_c, 7, 69, 0
1, 11287, Note_on_c, 7, 66, 100
1, 11287, Note_on_c, 7, 64, 0
1, 11287, Note_on_c, 7, 62, 100
1, 11287, Note_on_c, 7, 45, 0
1, 11287, Note_on_c, 7, 50, 100
1, 11287, Note_on_c, 7, 33, 0
1, 11287, Note_on_c, 7, 38, 100
1, 11347, Note_on_c, 7, 74, 0
1, 11347, Note_on_c, 7, 71, 100
1, 11347, Note_on_c, 7, 66, 0
1, 11347, Note_on_c, 7, 67, 100
1, 11407, Note_on_c, 4, 74, 0
1, 11407, Note_on_c, 4, 62, 0
1, 11407, Note_on_c, 5, 50, 0
1, 11407, Note_on_c, 6, 62, 0
1, 11407, Note_on_c, 6, 54, 0
1, 11407, Note_on_c, 7, 71, 0
1, 11407, Note_on_c, 7, 69, 100
1, 11407, Note_on_c, 7, 67, 0
1, 11407, Note_on_c, 7, 66, 100
1, 11407, Note_on_c, 7, 62, 0
1, 11407, Note_on_c, 7, 50, 0
1, 11407, Note_on_c, 7, 38, 0
1, 11467, Note_on_c, 7, 69, 0
1, 11467, Note_on_c, 7, 67, 100
1, 11467, Note_on_c, 7, 66, 0
1, 11467, Note_on_c, 7, 64, 100
1, 11527, Note_on_c, 7, 67, 0
1, 11527, Note_on_c, 7, 66, 100
1, 11527, Note_on_c, 7, 64, 0
1, 11527, Note_on_c, 7, 62, 100
1, 11587, Note_on_c, 7, 66, 0
1, 11587, Note_on_c, 7, 64, 100
1, 11587, Note_on_c, 7, 62, 0
1, 11587, Note_on_c, 7, 61, 100
1, 11647, Note_on_c, 3, 78, 127
1, 11647, Note_on_c, 7, 64, 0
1, 11647, Note_on_c, 7, 61, 0
1, 11647, Note_on_c, 7, 50, 100
1, 11647, Note_on_c, 7, 38, 100
1, 11707, Note_on_c, 7, 66, 100
1, 11707, Note_on_c, 7, 62, 100
1, 11707, Note_on_c, 7, 57, 100
1, 11737, Note_on_c, 3, 78, 0
1, 11737, Note_on_c, 3, 74, 127
1, 11767, Note_on_c, 3, 74, 0
1, 11767, Note_on_c, 3, 81, 127
1, 11767, Note_on_c, 7, 66, 0
1, 11767, Note_on_c, 7, 66, 100
1, 11767, Note_on_c, 7, 62, 0
1, 11767, Note_on_c, 7, 62, 100
1, 11767, Note_on_c, 7, 57, 0
1, 11767, Note_on_c, 7, 57, 100
1, 11767, Note_on_c, 7, 50, 0
1, 11767, Note_on_c, 7, 38, 0
1, 11827, Note_on_c, 7, 66, 0
1, 11827, Note_on_c, 7, 66, 100
1, 11827, Note_on_c, 7, 62, 0
1, 11827, Note_on_c, 7, 62, 100
1, 11827, Note_on_c, 7, 57, 0
1, 11827, Note_on_c, 7, 57, 100
1, 11887, Note_on_c, 7, 66, 0
1, 11887, Note_on_c, 7, 66, 100
1, 11887, Note_on_c, 7, 62, 0
1, 11887, Note_on_c, 7, 62, 100
1, 11887, Note_on_c, 7, 57, 0
1, 11887, Note_on_c, 7, 57, 100
1, 11947, Note_on_c, 3, 81, 0
1, 11947, Note_on_c, 3, 78, 127
1, 11947, Note_on_c, 7, 66, 0
1, 11947, Note_on_c, 7, 66, 100
1, 11947, Note_on_c, 7, 62, 0
1, 11947, Note_on_c, 7, 62, 100
1, 11947, Note_on_c, 7, 57, 0
1, 11947, Note_on_c, 7, 57, 100
1, 11977, Note_on_c, 3, 78, 0
1, 11977, Note_on_c, 3, 74, 127
1, 12007, Note_on_c, 3, 74, 0
1, 12007, Note_on_c, 3, 73, 127
1, 12007, Note_on_c, 7, 66, 0
1, 12007, Note_on_c, 7, 62, 0
1, 12007, Note_on_c, 7, 57, 0
1, 12007, Note_on_c, 7, 45, 100
1, 12007, Note_on_c, 7, 33, 100
1, 12067, Note_on_c, 7, 64, 100
1, 12067, Note_on_c, 7, 61, 100
1, 12067, Note_on_c, 7, 57, 100
1, 12127, Note_on_c, 3, 73, 0
1, 12127, Note_on_c, 3, 76, 127
1, 12127, Note_on_c, 7, 64, 0
1, 12127, Note_on_c, 7, 64, 100
1, 12127, Note_on_c, 7, 61, 0
1, 12127, Note_on_c, 7, 61, 100
1, 12127, Note_on_c, 7, 57, 0
1, 12127, Note_on_c, 7, 57, 100
1, 12127, Note_on_c, 7, 45, 0
1, 12127, Note_on_c, 7, 33, 0
1, 12187, Note_on_c, 7, 64, 0
1, 12187, Note_on_c, 7, 64, 100
1, 12187, Note_on_c, 7, 61, 0
1, 12187, Note_on_c, 7, 61, 100
1, 12187, Note_on_c, 7, 57, 0
1, 12187, Note_on_c, 7, 57, 100
1, 12247, Note_on_c, 3, 76, 0
1, 12247, Note_on_c, 7, 64, 0
1, 12247, Note_on_c, 7, 64, 100
1, 12247, Note_on_c, 7, 61, 0
1, 12247, Note_on_c, 7, 61, 100
1, 12247, Note_on_c, 7, 57, 0
1, 12247, Note_on_c, 7, 57, 100
1, 12307, Note_on_c, 7, 64, 0
1, 12307, Note_on_c, 7, 64, 100
1, 12307, Note_on_c, 7, 61, 0
1, 12307, Note_on_c, 7, 61, 100
1, 12307, Note_on_c, 7, 57, 0
1, 12307, Note_on_c, 7, 57, 100
1, 12367, Note_on_c, 3, 74, 127
1, 12367, Note_on_c, 7, 64, 0
1, 12367, Note_on_c, 7, 61, 0
1, 12367, Note_on_c, 7, 57, 0
1, 12367, Note_on_c, 7, 52, 100
1, 12367, Note_on_c, 7, 40, 100
1, 12382, Note_on_c, 3, 74, 0
1, 12382, Note_on_c, 3, 71, 127
1, 12397, Note_on_c, 3, 71, 0
1, 12397, Note_on_c, 3, 68, 127
1, 12412, Note_on_c, 3, 68, 0
1, 12412, Note_on_c, 3, 64, 127
1, 12427, Note_on_c, 3, 64, 0
1, 12427, Note_on_c, 3, 62, 127
1, 12427, Note_on_c, 7, 62, 100
1, 12427, Note_on_c, 7, 59, 100
1, 12427, Note_on_c, 7, 56, 100
1, 12442, Note_on_c, 3, 62, 0
1, 12442, Note_on_c, 3, 59, 127
1, 12457, Note_on_c, 3, 59, 0
1, 12457, Note_on_c, 3, 56, 127
1, 12472, Note_on_c, 3, 56, 0
1, 12472, Note_on_c, 3, 52, 127
1, 12487, Note_on_c, 3, 52, 0
1, 12487, Note_on_c, 3, 50, 127
1, 12547, Note_on_c, 3, 50, 0
1, 12547, Note_on_c, 3, 78, 127
1, 12547, Note_on_c, 7, 62, 0
1, 12547, Note_on_c, 7, 66, 100
1, 12547, Note_on_c, 7, 59, 0
1, 12547, Note_on_c, 7, 62, 100
1, 12547, Note_on_c, 7, 56, 0
1, 12547, Note_on_c, 7, 56, 100
1, 12607, Note_on_c, 3, 78, 0
1, 12607, Note_on_c, 3, 76, 127
1, 12607, Note_on_c, 7, 66, 0
1, 12607, Note_on_c, 7, 64, 100
1, 12607, Note_on_c, 7, 62, 0
1, 12607, Note_on_c, 7, 61, 100
1, 12667, Note_on_c, 3, 76, 0
1, 12667, Note_on_c, 3, 74, 127
1, 12667, Note_on_c, 7, 64, 0
1, 12667, Note_on_c, 7, 62, 100
1, 12667, Note_on_c, 7, 61, 0
1, 12667, Note_on_c, 7, 59, 100
1, 12667, Note_on_c, 7, 56, 0
1, 12667, Note_on_c, 7, 56, 100
1, 12727, Note_on_c, 3, 74, 0
1, 12727, Note_on_c, 3, 71, 127
1, 12727, Note_on_c, 7, 62, 0
1, 12727, Note_on_c, 7, 52, 0
1, 12727, Note_on_c, 7, 52, 100
1, 12727, Note_on_c, 7, 40, 0
1, 12727, Note_on_c, 7, 40, 100
1, 12817, Note_on_c, 3, 71, 0
1, 12817, Note_on_c, 3, 72, 127
1, 12817, Note_on_c, 7, 59, 0
1, 12817, Note_on_c, 7, 60, 100
1, 12847, Note_on_c, 3, 72, 0
1, 12847, Note_on_c, 3, 73, 127
1, 12847, Note_on_c, 7, 60, 0
1, 12847, Note_on_c, 7, 61, 100
1, 12847, Note_on_c, 7, 56, 0
1, 12847, Note_on_c, 7, 57, 100
1, 12847, Note_on_c, 7, 45, 100
1, 12847, Note_on_c, 7, 40, 0
1, 12847, Note_on_c, 7, 33, 100
1, 12907, Note_on_c, 7, 45, 0
1, 12907, Note_on_c, 7, 33, 0
1, 12907, Note_on_c, 7, 45, 100
1, 12967, Note_on_c, 3, 73, 0
1, 12967, Note_on_c, 7, 61, 0
1, 12967, Note_on_c, 7, 52, 0
1, 12967, Note_on_c, 7, 57, 0
1, 12967, Note_on_c, 7, 52, 100
1, 12967, Note_on_c, 7, 45, 0
1, 12967, Note_on_c, 7, 40, 100
1, 13027, Note_on_c, 7, 52, 0
1, 13027, Note_on_c, 7, 50, 100
1, 13027, Note_on_c, 7, 40, 0
1, 13027, Note_on_c, 7, 38, 100
1, 13087, Note_on_c, 3, 76, 127
1, 13087, Note_on_c, 7, 57, 100
1, 13087, Note_on_c, 7, 50, 0
1, 13087, Note_on_c, 7, 49, 100
1, 13087, Note_on_c, 7, 38, 0
1, 13087, Note_on_c, 7, 37, 100
1, 13147, Note_on_c, 7, 69, 100
1, 13147, Note_on_c, 7, 64, 100
1, 13177, Note_on_c, 7, 69, 0
1, 13177, Note_on_c, 7, 64, 0
1, 13207, Note_on_c, 7, 64, 100
1, 13207, Note_on_c, 7, 61, 100
1, 13207, Note_on_c, 7, 49, 0
1, 13207, Note_on_c, 7, 37, 0
1, 13237, Note_on_c, 7, 64, 0
1, 13237, Note_on_c, 7, 61, 0
1, 13267, Note_on_c, 3, 76, 0
1, 13267, Note_on_c, 3, 81, 127
1, 13267, Note_on_c, 7, 69, 100
1, 13267, Note_on_c, 7, 64, 100
1, 13297, Note_on_c, 3, 81, 0
1, 13297, Note_on_c, 3, 80, 127
1, 13297, Note_on_c, 7, 69, 0
1, 13297, Note_on_c, 7, 64, 0
1, 13327, Note_on_c, 3, 80, 0
1, 13327, Note_on_c, 3, 78, 127
1, 13327, Note_on_c, 7, 64, 100
1, 13327, Note_on_c, 7, 61, 100
1, 13357, Note_on_c, 3, 78, 0
1, 13357, Note_on_c, 3, 76, 127
1, 13357, Note_on_c, 7, 64, 0
1, 13357, Note_on_c, 7, 61, 0
1, 13387, Note_on_c, 3, 76, 0
1, 13387, Note_on_c, 3, 74, 127
1, 13387, Note_on_c, 7, 69, 100
1, 13387, Note_on_c, 7, 64, 100
1, 13417, Note_on_c, 3, 74, 0
1, 13417, Note_on_c, 3, 73, 127
1, 13417, Note_on_c, 7, 69, 0
1, 13417, Note_on_c, 7, 64, 0
1, 13447, Note_on_c, 3, 73, 0
1, 13447, Note_on_c, 3, 73, 127
1, 13447, Note_on_c, 7, 50, 100
1, 13447, Note_on_c, 7, 38, 100
1, 13477, Note_on_c, 3, 73, 0
1, 13477, Note_on_c, 3, 74, 127
1, 13507, Note_on_c, 3, 74, 0
1, 13507, Note_on_c, 3, 70, 127
1, 13507, Note_on_c, 7, 66, 100
1, 13507, Note_on_c, 7, 62, 100
1, 13537, Note_on_c, 3, 70, 0
1, 13537, Note_on_c, 3, 71, 127
1, 13537, Note_on_c, 7, 66, 0
1, 13537, Note_on_c, 7, 62, 0
1, 13567, Note_on_c, 3, 71, 0
1, 13567, Note_on_c, 3, 71, 127
1, 13567, Note_on_c, 7, 62, 100
1, 13567, Note_on_c, 7, 59, 100
1, 13567, Note_on_c, 7, 50, 0
1, 13567, Note_on_c, 7, 38, 0
1, 13597, Note_on_c, 7, 62, 0
1, 13597, Note_on_c, 7, 59, 0
1, 13627, Note_on_c, 7, 66, 100
1, 13627, Note_on_c, 7, 62, 100
1, 13657, Note_on_c, 7, 66, 0
1, 13657, Note_on_c, 7, 62, 0
1, 13687, Note_on_c, 3, 71, 0
1, 13687, Note_on_c, 7, 62, 100
1, 13687, Note_on_c, 7, 59, 100
1, 13717, Note_on_c, 7, 62, 0
1, 13717, Note_on_c, 7, 59, 0
1, 13747, Note_on_c, 7, 66, 100
1, 13747, Note_on_c, 7, 62, 100
1, 13777, Note_on_c, 7, 66, 0
1, 13777, Note_on_c, 7, 62, 0
1, 13807, Note_on_c, 3, 73, 127
1, 13807, Note_on_c, 7, 57, 0
1, 13807, Note_on_c, 7, 57, 100
1, 13807, Note_on_c, 7, 52, 100
1, 13807, Note_on_c, 7, 40, 100
1, 13837, Note_on_c, 3, 73, 0
1, 13837, Note_on_c, 3, 74, 127
1, 13847, Note_on_c, 3, 74, 0
1, 13847, Note_on_c, 3, 73, 127
1, 13857, Note_on_c, 3, 73, 0
1, 13857, Note_on_c, 3, 71, 127
1, 13867, Note_on_c, 3, 71, 0
1, 13867, Note_on_c, 3, 73, 127
1, 13867, Note_on_c, 7, 67, 100
1, 13897, Note_on_c, 3, 73, 0
1, 13897, Note_on_c, 3, 74, 127
1, 13897, Note_on_c, 7, 67, 0
1, 13927, Note_on_c, 3, 74, 0
1, 13927, Note_on_c, 3, 76, 127
1, 13927, Note_on_c, 7, 64, 100
1, 13927, Note_on_c, 7, 61, 100
1, 13927, Note_on_c, 7, 52, 0
1, 13927, Note_on_c, 7, 40, 0
1, 13957, Note_on_c, 3, 76, 0
1, 13957, Note_on_c, 3, 78, 127
1, 13957, Note_on_c, 7, 64, 0
1, 13957, Note_on_c, 7, 61, 0
1, 13967, Note_on_c, 3, 78, 0
1, 13967, Note_on_c, 3, 76, 127
1, 13977, Note_on_c, 3, 76, 0
1, 13977, Note_on_c, 3, 75, 127
1, 13987, Note_on_c, 3, 75, 0
1, 13987, Note_on_c, 3, 76, 127
1, 13987, Note_on_c, 7, 67, 100
1, 14017, Note_on_c, 3, 76, 0
1, 14017, Note_on_c, 3, 78, 127
1, 14017, Note_on_c, 7, 67, 0
1, 14047, Note_on_c, 3, 78, 0
1, 14047, Note_on_c, 3, 79, 127
1, 14047, Note_on_c, 7, 64, 100
1, 14047, Note_on_c, 7, 61, 100
1, 14077, Note_on_c, 7, 64, 0
1, 14077, Note_on_c, 7, 61, 0
1, 14107, Note_on_c, 3, 79, 0
1, 14107, Note_on_c, 3, 73, 127
1, 14107, Note_on_c, 7, 67, 100
1, 14137, Note_on_c, 7, 67, 0
1, 14167, Note_on_c, 3, 73, 0
1, 14167, Note_on_c, 3, 76, 127
1, 14167, Note_on_c, 7, 54, 100
1, 14167, Note_on_c, 7, 42, 100
1, 14227, Note_on_c, 7, 69, 100
1, 14227, Note_on_c, 7, 66, 100
1, 14257, Note_on_c, 7, 69, 0
1, 14257, Note_on_c, 7, 66, 0
1, 14287, Note_on_c, 3, 76, 0
1, 14287, Note_on_c, 3, 74, 127
1, 14287, Note_on_c, 7, 66, 100
1, 14287, Note_on_c, 7, 62, 100
1, 14287, Note_on_c, 7, 54, 0
1, 14287, Note_on_c, 7, 42, 0
1, 14317, Note_on_c, 7, 66, 0
1, 14317, Note_on_c, 7, 62, 0
1, 14347, Note_on_c, 7, 69, 100
1, 14347, Note_on_c, 7, 66, 100
1, 14377, Note_on_c, 7, 69, 0
1, 14377, Note_on_c, 7, 66, 0
1, 14407, Note_on_c, 3, 74, 0
1, 14407, Note_on_c, 7, 66, 100
1, 14407, Note_on_c, 7, 62, 100
1, 14437, Note_on_c, 7, 66, 0
1, 14437, Note_on_c, 7, 62, 0
1, 14467, Note_on_c, 7, 69, 100
1, 14467, Note_on_c, 7, 66, 100
1, 14497, Note_on_c, 7, 69, 0
1, 14497, Note_on_c, 7, 66, 0
1, 14527, Note_on_c, 3, 52, 127
1, 14527, Note_on_c, 7, 57, 0
1, 14527, Note_on_c, 7, 52, 100
1, 14527, Note_on_c, 7, 44, 100
1, 14527, Note_on_c, 7, 32, 100
1, 14587, Note_on_c, 7, 71, 100
1, 14587, Note_on_c, 7, 62, 100
1, 14617, Note_on_c, 7, 71, 0
1, 14617, Note_on_c, 7, 62, 0
1, 14647, Note_on_c, 3, 52, 0
1, 14647, Note_on_c, 3, 83, 127
1, 14647, Note_on_c, 7, 62, 100
1, 14647, Note_on_c, 7, 59, 100
1, 14677, Note_on_c, 7, 62, 0
1, 14677, Note_on_c, 7, 59, 0
1, 14707, Note_on_c, 7, 71, 100
1, 14707, Note_on_c, 7, 62, 100
1, 14737, Note_on_c, 7, 71, 0
1, 14737, Note_on_c, 7, 62, 0
1, 14767, Note_on_c, 7, 62, 100
1, 14767, Note_on_c, 7, 59, 100
1, 14797, Note_on_c, 3, 83, 0
1, 14797, Note_on_c, 3, 80, 127
1, 14797, Note_on_c, 7, 62, 0
1, 14797, Note_on_c, 7, 59, 0
1, 14827, Note_on_c, 3, 80, 0
1, 14827, Note_on_c, 3, 76, 127
1, 14827, Note_on_c, 7, 71, 100
1, 14827, Note_on_c, 7, 64, 100
1, 14857, Note_on_c, 3, 76, 0
1, 14857, Note_on_c, 3, 74, 127
1, 14857, Note_on_c, 7, 71, 0
1, 14857, Note_on_c, 7, 64, 0
1, 14887, Note_on_c, 3, 74, 0
1, 14887, Note_on_c, 3, 72, 127
1, 14887, Note_on_c, 7, 61, 100
1, 14887, Note_on_c, 7, 57, 100
1, 14887, Note_on_c, 7, 44, 0
1, 14887, Note_on_c, 7, 45, 100
1, 14887, Note_on_c, 7, 32, 0
1, 14887, Note_on_c, 7, 33, 100
1, 14917, Note_on_c, 3, 72, 0
1, 14917, Note_on_c, 3, 73, 127
1, 14947, Note_on_c, 3, 73, 0
1, 14947, Note_on_c, 3, 74, 127
1, 14947, Note_on_c, 7, 61, 0
1, 14947, Note_on_c, 7, 57, 0
1, 14947, Note_on_c, 7, 52, 0
1, 14947, Note_on_c, 7, 45, 0
1, 14947, Note_on_c, 7, 33, 0
1, 14977, Note_on_c, 3, 74, 0
1, 14977, Note_on_c, 3, 75, 127
1, 15007, Note_on_c, 3, 75, 0
1, 15007, Note_on_c, 3, 76, 127
1, 15007, Note_on_c, 7, 69, 100
1, 15007, Note_on_c, 7, 64, 100
1, 15007, Note_on_c, 7, 57, 100
1, 15007, Note_on_c, 7, 49, 100
1, 15007, Note_on_c, 7, 37, 100
1, 15037, Note_on_c, 3, 76, 0
1, 15037, Note_on_c, 3, 78, 127
1, 15067, Note_on_c, 3, 78, 0
1, 15067, Note_on_c, 3, 80, 127
1, 15067, Note_on_c, 7, 69, 0
1, 15067, Note_on_c, 7, 64, 0
1, 15067, Note_on_c, 7, 57, 0
1, 15067, Note_on_c, 7, 49, 0
1, 15067, Note_on_c, 7, 37, 0
1, 15097, Note_on_c, 3, 80, 0
1, 15097, Note_on_c, 3, 81, 127
1, 15127, Note_on_c, 3, 81, 0
1, 15127, Note_on_c, 3, 77, 127
1, 15127, Note_on_c, 7, 66, 100
1, 15127, Note_on_c, 7, 62, 100
1, 15127, Note_on_c, 7, 59, 100
1, 15127, Note_on_c, 7, 50, 100
1, 15127, Note_on_c, 7, 38, 100
1, 15157, Note_on_c, 3, 77, 0
1, 15157, Note_on_c, 3, 78, 127
1, 15187, Note_on_c, 3, 78, 0
1, 15187, Note_on_c, 3, 74, 127
1, 15187, Note_on_c, 7, 66, 0
1, 15187, Note_on_c, 7, 62, 0
1, 15187, Note_on_c, 7, 59, 0
1, 15187, Note_on_c, 7, 50, 0
1, 15187, Note_on_c, 7, 38, 0
1, 15217, Note_on_c, 3, 74, 0
1, 15217, Note_on_c, 3, 71, 127
1, 15247, Note_on_c, 3, 71, 0
1, 15247, Note_on_c, 3, 69, 127
1, 15247, Note_on_c, 7, 52, 100
1, 15247, Note_on_c, 7, 40, 100
1, 15307, Note_on_c, 7, 64, 100
1, 15307, Note_on_c, 7, 61, 100
1, 15367, Note_on_c, 7, 64, 0
1, 15367, Note_on_c, 7, 57, 100
1, 15427, Note_on_c, 3, 69, 0
1, 15427, Note_on_c, 3, 70, 127
1, 15427, Note_on_c, 7, 61, 0
1, 15427, Note_on_c, 7, 64, 100
1, 15427, Note_on_c, 7, 57, 0
1, 15427, Note_on_c, 7, 61, 100
1, 15487, Note_on_c, 3, 70, 0
1, 15487, Note_on_c, 3, 71, 127
1, 15487, Note_on_c, 7, 64, 0
1, 15487, Note_on_c, 7, 62, 100
1, 15487, Note_on_c, 7, 61, 0
1, 15487, Note_on_c, 7, 59, 100
1, 15547, Note_on_c, 3, 71, 0
1, 15547, Note_on_c, 3, 76, 127
1, 15547, Note_on_c, 7, 62, 0
1, 15547, Note_on_c, 7, 56, 100
1, 15607, Note_on_c, 3, 76, 0
1, 15607, Note_on_c, 3, 74, 127
1, 15607, Note_on_c, 7, 59, 0
1, 15607, Note_on_c, 7, 68, 100
1, 15607, Note_on_c, 7, 56, 0
1, 15607, Note_on_c, 7, 62, 100
1, 15607, Note_on_c, 7, 59, 100
1, 15607, Note_on_c, 7, 52, 0
1, 15607, Note_on_c, 7, 53, 100
1, 15607, Note_on_c, 7, 40, 0
1, 15607, Note_on_c, 7, 41, 100
1, 15697, Note_on_c, 3, 74, 0
1, 15697, Note_on_c, 3, 76, 127
1, 15712, Note_on_c, 3, 76, 0
1, 15712, Note_on_c, 3, 74, 127
1, 15727, Note_on_c, 3, 74, 0
1, 15727, Note_on_c, 3, 73, 127
1, 15727, Note_on_c, 7, 68, 0
1, 15727, Note_on_c, 7, 69, 100
1, 15727, Note_on_c, 7, 62, 0
1, 15727, Note_on_c, 7, 61, 100
1, 15727, Note_on_c, 7, 59, 0
1, 15727, Note_on_c, 7, 57, 100
1, 15727, Note_on_c, 7, 53, 0
1, 15727, Note_on_c, 7, 54, 100
1, 15727, Note_on_c, 7, 41, 0
1, 15727, Note_on_c, 7, 42, 100
1, 15787, Note_on_c, 7, 69, 0
1, 15787, Note_on_c, 7, 54, 0
1, 15847, Note_on_c, 3, 73, 0
1, 15847, Note_on_c, 7, 56, 100
1, 15847, Note_on_c, 7, 40, 100
1, 15847, Note_on_c, 7, 42, 0
1, 15907, Note_on_c, 7, 61, 0
1, 15907, Note_on_c, 7, 62, 100
1, 15907, Note_on_c, 7, 57, 0
1, 15907, Note_on_c, 7, 59, 100
1, 15907, Note_on_c, 7, 56, 0
1, 15907, Note_on_c, 7, 54, 100
1, 15907, Note_on_c, 7, 38, 100
1, 15907, Note_on_c, 7, 40, 0
1, 15967, Note_on_c, 3, 52, 127
1, 15967, Note_on_c, 6, 57, 80
1, 15967, Note_on_c, 7, 62, 0
1, 15967, Note_on_c, 7, 64, 100
1, 15967, Note_on_c, 7, 59, 0
1, 15967, Note_on_c, 7, 61, 100
1, 15967, Note_on_c, 7, 54, 0
1, 15967, Note_on_c, 7, 52, 100
1, 15967, Note_on_c, 7, 37, 100
1, 15967, Note_on_c, 7, 38, 0
1, 16027, Note_on_c, 7, 64, 0
1, 16027, Note_on_c, 7, 61, 0
1, 16027, Note_on_c, 7, 69, 100
1, 16027, Note_on_c, 7, 52, 0
1, 16027, Note_on_c, 7, 64, 100
1, 16057, Note_on_c, 7, 69, 0
1, 16057, Note_on_c, 7, 64, 0
1, 16087, Note_on_c, 7, 76, 100
1, 16087, Note_on_c, 7, 64, 100
1, 16087, Note_on_c, 7, 61, 100
1, 16087, Note_on_c, 7, 37, 0
1, 16117, Note_on_c, 3, 52, 0
1, 16117, Note_on_c, 3, 54, 127
1, 16117, Note_on_c, 7, 76, 0
1, 16117, Note_on_c, 7, 64, 0
1, 16117, Note_on_c, 7, 61, 0
1, 16132, Note_on_c, 3, 54, 0
1, 16132, Note_on_c, 3, 56, 127
1, 16147, Note_on_c, 3, 56, 0
1, 16147, Note_on_c, 3, 57, 127
1, 16147, Note_on_c, 7, 69, 100
1, 16147, Note_on_c, 7, 64, 100
1, 16162, Note_on_c, 3, 57, 0
1, 16177, Note_on_c, 3, 56, 127
1, 16177, Note_on_c, 7, 69, 0
1, 16177, Note_on_c, 7, 64, 0
1, 16192, Note_on_c, 3, 56, 0
1, 16207, Note_on_c, 3, 54, 127
1, 16207, Note_on_c, 7, 81, 100
1, 16207, Note_on_c, 7, 64, 100
1, 16207, Note_on_c, 7, 61, 100
1, 16237, Note_on_c, 3, 54, 0
1, 16237, Note_on_c, 3, 52, 127
1, 16237, Note_on_c, 7, 81, 0
1, 16237, Note_on_c, 7, 64, 0
1, 16237, Note_on_c, 7, 61, 0
1, 16267, Note_on_c, 3, 52, 0
1, 16267, Note_on_c, 3, 50, 127
1, 16267, Note_on_c, 7, 69, 100
1, 16267, Note_on_c, 7, 64, 100
1, 16297, Note_on_c, 3, 50, 0
1, 16297, Note_on_c, 3, 49, 127
1, 16297, Note_on_c, 7, 69, 0
1, 16297, Note_on_c, 7, 64, 0
1, 16327, Note_on_c, 3, 49, 0
1, 16327, Note_on_c, 3, 46, 127
1, 16327, Note_on_c, 7, 38, 100
1, 16387, Note_on_c, 7, 66, 100
1, 16387, Note_on_c, 7, 62, 100
1, 16417, Note_on_c, 7, 66, 0
1, 16417, Note_on_c, 7, 62, 0
1, 16447, Note_on_c, 3, 46, 0
1, 16447, Note_on_c, 3, 47, 127
1, 16447, Note_on_c, 7, 78, 100
1, 16447, Note_on_c, 7, 62, 100
1, 16447, Note_on_c, 7, 59, 100
1, 16447, Note_on_c, 7, 38, 0
1, 16477, Note_on_c, 7, 78, 0
1, 16477, Note_on_c, 7, 62, 0
1, 16477, Note_on_c, 7, 59, 0
1, 16507, Note_on_c, 7, 71, 100
1, 16507, Note_on_c, 7, 66, 100
1, 16537, Note_on_c, 7, 71, 0
1, 16537, Note_on_c, 7, 66, 0
1, 16567, Note_on_c, 3, 47, 0
1, 16567, Note_on_c, 7, 83, 100
1, 16567, Note_on_c, 7, 66, 100
1, 16567, Note_on_c, 7, 62, 100
1, 16597, Note_on_c, 7, 83, 0
1, 16597, Note_on_c, 7, 66, 0
1, 16597, Note_on_c, 7, 62, 0
1, 16627, Note_on_c, 7, 71, 100
1, 16627, Note_on_c, 7, 66, 100
1, 16657, Note_on_c, 7, 71, 0
1, 16657, Note_on_c, 7, 66, 0
1, 16687, Note_on_c, 3, 49, 127
1, 16687, Note_on_c, 7, 40, 100
1, 16707, Note_on_c, 3, 49, 0
1, 16707, Note_on_c, 3, 47, 127
1, 16727, Note_on_c, 3, 47, 0
1, 16727, Note_on_c, 3, 45, 127
1, 16747, Note_on_c, 3, 45, 0
1, 16747, Note_on_c, 3, 47, 127
1, 16747, Note_on_c, 7, 67, 100
1, 16747, Note_on_c, 7, 64, 100
1, 16767, Note_on_c, 3, 47, 0
1, 16767, Note_on_c, 3, 49, 127
1, 16777, Note_on_c, 7, 67, 0
1, 16777, Note_on_c, 7, 64, 0
1, 16787, Note_on_c, 3, 49, 0
1, 16787, Note_on_c, 3, 50, 127
1, 16807, Note_on_c, 3, 50, 0
1, 16807, Note_on_c, 3, 52, 127
1, 16807, Note_on_c, 7, 79, 100
1, 16807, Note_on_c, 7, 64, 100
1, 16807, Note_on_c, 7, 61, 100
1, 16807, Note_on_c, 7, 40, 0
1, 16827, Note_on_c, 3, 52, 0
1, 16827, Note_on_c, 3, 50, 127
1, 16837, Note_on_c, 7, 79, 0
1, 16837, Note_on_c, 7, 64, 0
1, 16837, Note_on_c, 7, 61, 0
1, 16847, Note_on_c, 3, 50, 0
1, 16847, Note_on_c, 3, 49, 127
1, 16867, Note_on_c, 3, 49, 0
1, 16867, Note_on_c, 3, 50, 127
1, 16867, Note_on_c, 7, 73, 100
1, 16867, Note_on_c, 7, 67, 100
1, 16887, Note_on_c, 3, 50, 0
1, 16887, Note_on_c, 3, 52, 127
1, 16897, Note_on_c, 7, 73, 0
1, 16897, Note_on_c, 7, 67, 0
1, 16907, Note_on_c, 3, 52, 0
1, 16907, Note_on_c, 3, 54, 127
1, 16927, Note_on_c, 3, 54, 0
1, 16927, Note_on_c, 3, 55, 127
1, 16927, Note_on_c, 7, 85, 100
1, 16927, Note_on_c, 7, 67, 100
1, 16927, Note_on_c, 7, 64, 100
1, 16957, Note_on_c, 3, 55, 0
1, 16957, Note_on_c, 3, 57, 127
1, 16957, Note_on_c, 7, 85, 0
1, 16957, Note_on_c, 7, 67, 0
1, 16957, Note_on_c, 7, 64, 0
1, 16987, Note_on_c, 3, 57, 0
1, 16987, Note_on_c, 3, 59, 127
1, 16987, Note_on_c, 7, 73, 100
1, 16987, Note_on_c, 7, 67, 100
1, 17017, Note_on_c, 3, 59, 0
1, 17017, Note_on_c, 3, 49, 127
1, 17017, Note_on_c, 7, 73, 0
1, 17017, Note_on_c, 7, 67, 0
1, 17047, Note_on_c, 3, 49, 0
1, 17047, Note_on_c, 3, 52, 127
1, 17047, Note_on_c, 7, 42, 100
1, 17107, Note_on_c, 7, 69, 100
1, 17107, Note_on_c, 7, 66, 100
1, 17137, Note_on_c, 7, 69, 0
1, 17137, Note_on_c, 7, 66, 0
1, 17167, Note_on_c, 3, 52, 0
1, 17167, Note_on_c, 3, 50, 127
1, 17167, Note_on_c, 7, 81, 100
1, 17167, Note_on_c, 7, 66, 100
1, 17167, Note_on_c, 7, 62, 100
1, 17167, Note_on_c, 7, 42, 0
1, 17197, Note_on_c, 7, 81, 0
1, 17197, Note_on_c, 7, 66, 0
1, 17197, Note_on_c, 7, 62, 0
1, 17227, Note_on_c, 7, 74, 100
1, 17227, Note_on_c, 7, 69, 100
1, 17257, Note_on_c, 7, 74, 0
1, 17257, Note_on_c, 7, 69, 0
1, 17287, Note_on_c, 3, 50, 0
1, 17287, Note_on_c, 7, 86, 100
1, 17287, Note_on_c, 7, 69, 100
1, 17287, Note_on_c, 7, 66, 100
1, 17317, Note_on_c, 7, 86, 0
1, 17317, Note_on_c, 7, 69, 0
1, 17317, Note_on_c, 7, 66, 0
1, 17347, Note_on_c, 7, 74, 100
1, 17347, Note_on_c, 7, 69, 100
1, 17377, Note_on_c, 7, 74, 0
1, 17377, Note_on_c, 7, 69, 0
1, 17407, Note_on_c, 3, 62, 127
1, 17407, Note_on_c, 6, 57, 0
1, 17407, Note_on_c, 7, 44, 100
1, 17467, Note_on_c, 7, 64, 100
1, 17467, Note_on_c, 7, 59, 100
1, 17497, Note_on_c, 7, 64, 0
1, 17497, Note_on_c, 7, 59, 0
1, 17527, Note_on_c, 7, 74, 100
1, 17527, Note_on_c, 7, 59, 100
1, 17527, Note_on_c, 7, 52, 100
1, 17542, Note_on_c, 3, 62, 0
1, 17542, Note_on_c, 3, 64, 127
1, 17557, Note_on_c, 3, 64, 0
1, 17557, Note_on_c, 3, 66, 127
1, 17557, Note_on_c, 7, 74, 0
1, 17557, Note_on_c, 7, 59, 0
1, 17557, Note_on_c, 7, 52, 0
1, 17572, Note_on_c, 3, 66, 0
1, 17572, Note_on_c, 3, 64, 127
1, 17587, Note_on_c, 3, 64, 0
1, 17587, Note_on_c, 3, 62, 127
1, 17587, Note_on_c, 7, 71, 100
1, 17587, Note_on_c, 7, 64, 100
1, 17602, Note_on_c, 3, 62, 0
1, 17602, Note_on_c, 3, 61, 127
1, 17617, Note_on_c, 3, 61, 0
1, 17617, Note_on_c, 3, 59, 127
1, 17617, Note_on_c, 7, 71, 0
1, 17617, Note_on_c, 7, 64, 0
1, 17632, Note_on_c, 3, 59, 0
1, 17632, Note_on_c, 3, 57, 127
1, 17647, Note_on_c, 3, 57, 0
1, 17647, Note_on_c, 3, 56, 127
1, 17647, Note_on_c, 7, 83, 100
1, 17647, Note_on_c, 7, 64, 100
1, 17647, Note_on_c, 7, 59, 100
1, 17667, Note_on_c, 3, 56, 0
1, 17667, Note_on_c, 3, 54, 127
1, 17677, Note_on_c, 7, 83, 0
1, 17677, Note_on_c, 7, 64, 0
1, 17677, Note_on_c, 7, 59, 0
1, 17687, Note_on_c, 3, 54, 0
1, 17687, Note_on_c, 3, 52, 127
1, 17707, Note_on_c, 3, 52, 0
1, 17707, Note_on_c, 3, 50, 127
1, 17707, Note_on_c, 7, 74, 100
1, 17707, Note_on_c, 7, 71, 100
1, 17727, Note_on_c, 3, 50, 0
1, 17727, Note_on_c, 3, 49, 127
1, 17737, Note_on_c, 7, 74, 0
1, 17737, Note_on_c, 7, 71, 0
1, 17747, Note_on_c, 3, 49, 0
1, 17747, Note_on_c, 3, 47, 127
1, 17767, Note_on_c, 3, 47, 0
1, 17767, Note_on_c, 3, 45, 127
1, 17767, Note_on_c, 7, 57, 100
1, 17767, Note_on_c, 7, 45, 100
1, 17767, Note_on_c, 7, 44, 0
1, 17827, Note_on_c, 3, 45, 0
1, 17827, Note_on_c, 7, 61, 100
1, 17887, Note_on_c, 3, 76, 127
1, 17887, Note_on_c, 7, 61, 0
1, 17887, Note_on_c, 7, 64, 100
1, 17887, Note_on_c, 7, 61, 100
1, 17887, Note_on_c, 7, 57, 0
1, 17887, Note_on_c, 7, 45, 0
1, 17947, Note_on_c, 7, 64, 0
1, 17947, Note_on_c, 7, 69, 100
1, 17947, Note_on_c, 7, 61, 0
1, 17947, Note_on_c, 7, 64, 100
1, 18007, Note_on_c, 7, 69, 0
1, 18007, Note_on_c, 7, 73, 100
1, 18007, Note_on_c, 7, 64, 0
1, 18007, Note_on_c, 7, 69, 100
1, 18067, Note_on_c, 7, 73, 0
1, 18067, Note_on_c, 7, 76, 100
1, 18067, Note_on_c, 7, 69, 0
1, 18067, Note_on_c, 7, 73, 100
1, 18127, Note_on_c, 3, 76, 0
1, 18127, Note_on_c, 3, 47, 127
1, 18127, Note_on_c, 7, 76, 0
1, 18127, Note_on_c, 7, 73, 0
1, 18127, Note_on_c, 7, 54, 100
1, 18127, Note_on_c, 7, 50, 100
1, 18127, Note_on_c, 7, 38, 100
1, 18187, Note_on_c, 3, 47, 0
1, 18187, Note_on_c, 7, 62, 100
1, 18187, Note_on_c, 7, 59, 100
1, 18247, Note_on_c, 3, 78, 127
1, 18247, Note_on_c, 7, 62, 0
1, 18247, Note_on_c, 7, 66, 100
1, 18247, Note_on_c, 7, 59, 0
1, 18247, Note_on_c, 7, 62, 100
1, 18247, Note_on_c, 7, 54, 0
1, 18247, Note_on_c, 7, 50, 0
1, 18247, Note_on_c, 7, 38, 0
1, 18307, Note_on_c, 7, 66, 0
1, 18307, Note_on_c, 7, 71, 100
1, 18307, Note_on_c, 7, 62, 0
1, 18307, Note_on_c, 7, 66, 100
1, 18367, Note_on_c, 7, 71, 0
1, 18367, Note_on_c, 7, 74, 100
1, 18367, Note_on_c, 7, 66, 0
1, 18367, Note_on_c, 7, 71, 100
1, 18427, Note_on_c, 7, 74, 0
1, 18427, Note_on_c, 7, 78, 100
1, 18427, Note_on_c, 7, 71, 0
1, 18427, Note_on_c, 7, 74, 100
1, 18487, Note_on_c, 3, 78, 0
1, 18487, Note_on_c, 3, 64, 127
1, 18487, Note_on_c, 7, 78, 0
1, 18487, Note_on_c, 7, 74, 0
1, 18487, Note_on_c, 7, 52, 100
1, 18487, Note_on_c, 7, 40, 100
1, 18507, Note_on_c, 3, 64, 0
1, 18507, Note_on_c, 3, 65, 127
1, 18527, Note_on_c, 3, 65, 0
1, 18527, Note_on_c, 3, 66, 127
1, 18547, Note_on_c, 3, 66, 0
1, 18547, Note_on_c, 3, 67, 127
1, 18547, Note_on_c, 7, 61, 100
1, 18547, Note_on_c, 7, 57, 100
1, 18567, Note_on_c, 3, 67, 0
1, 18567, Note_on_c, 3, 68, 127
1, 18587, Note_on_c, 3, 68, 0
1, 18587, Note_on_c, 3, 69, 127
1, 18607, Note_on_c, 3, 69, 0
1, 18607, Note_on_c, 3, 70, 127
1, 18607, Note_on_c, 7, 61, 0
1, 18607, Note_on_c, 7, 61, 100
1, 18607, Note_on_c, 7, 57, 0
1, 18607, Note_on_c, 7, 57, 100
1, 18607, Note_on_c, 7, 40, 0
1, 18627, Note_on_c, 3, 70, 0
1, 18627, Note_on_c, 3, 71, 127
1, 18647, Note_on_c, 3, 71, 0
1, 18647, Note_on_c, 3, 72, 127
1, 18667, Note_on_c, 3, 72, 0
1, 18667, Note_on_c, 3, 73, 127
1, 18667, Note_on_c, 7, 61, 0
1, 18667, Note_on_c, 7, 61, 100
1, 18667, Note_on_c, 7, 57, 0
1, 18667, Note_on_c, 7, 57, 100
1, 18667, Note_on_c, 7, 52, 0
1, 18667, Note_on_c, 7, 52, 100
1, 18687, Note_on_c, 3, 73, 0
1, 18687, Note_on_c, 3, 74, 127
1, 18707, Note_on_c, 3, 74, 0
1, 18707, Note_on_c, 3, 75, 127
1, 18727, Note_on_c, 3, 75, 0
1, 18727, Note_on_c, 3, 76, 127
1, 18727, Note_on_c, 7, 61, 0
1, 18727, Note_on_c, 7, 61, 100
1, 18727, Note_on_c, 7, 57, 0
1, 18727, Note_on_c, 7, 57, 100
1, 18727, Note_on_c, 7, 52, 0
1, 18727, Note_on_c, 7, 52, 100
1, 18747, Note_on_c, 3, 76, 0
1, 18747, Note_on_c, 3, 77, 127
1, 18767, Note_on_c, 3, 77, 0
1, 18767, Note_on_c, 3, 78, 127
1, 18787, Note_on_c, 3, 78, 0
1, 18787, Note_on_c, 3, 79, 127
1, 18787, Note_on_c, 7, 61, 0
1, 18787, Note_on_c, 7, 61, 100
1, 18787, Note_on_c, 7, 57, 0
1, 18787, Note_on_c, 7, 57, 100
1, 18787, Note_on_c, 7, 52, 0
1, 18787, Note_on_c, 7, 52, 100
1, 18807, Note_on_c, 3, 79, 0
1, 18807, Note_on_c, 3, 80, 127
1, 18827, Note_on_c, 3, 80, 0
1, 18827, Note_on_c, 3, 81, 127
1, 18847, Note_on_c, 3, 81, 0
1, 18847, Note_on_c, 3, 71, 127
1, 18847, Note_on_c, 7, 61, 0
1, 18847, Note_on_c, 7, 59, 100
1, 18847, Note_on_c, 7, 57, 0
1, 18847, Note_on_c, 7, 57, 100
1, 18847, Note_on_c, 7, 52, 0
1, 18847, Note_on_c, 7, 52, 100
1, 18847, Note_on_c, 7, 40, 100
1, 18855, Note_on_c, 3, 71, 0
1, 18855, Note_on_c, 3, 73, 127
1, 18862, Note_on_c, 3, 73, 0
1, 18862, Note_on_c, 3, 71, 127
1, 18870, Note_on_c, 3, 71, 0
1, 18870, Note_on_c, 3, 73, 127
1, 18877, Note_on_c, 3, 73, 0
1, 18877, Note_on_c, 3, 71, 127
1, 18877, Note_on_c, 7, 59, 0
1, 18877, Note_on_c, 7, 59, 100
1, 18877, Note_on_c, 7, 57, 0
1, 18877, Note_on_c, 7, 57, 100
1, 18885, Note_on_c, 3, 71, 0
1, 18885, Note_on_c, 3, 73, 127
1, 18892, Note_on_c, 3, 73, 0
1, 18892, Note_on_c, 3, 71, 127
1, 18900, Note_on_c, 3, 71, 0
1, 18900, Note_on_c, 3, 73, 127
1, 18907, Note_on_c, 3, 73, 0
1, 18907, Note_on_c, 3, 71, 127
1, 18907, Note_on_c, 7, 59, 0
1, 18907, Note_on_c, 7, 59, 100
1, 18907, Note_on_c, 7, 57, 0
1, 18907, Note_on_c, 7, 57, 100
1, 18915, Note_on_c, 3, 71, 0
1, 18915, Note_on_c, 3, 73, 127
1, 18922, Note_on_c, 3, 73, 0
1, 18922, Note_on_c, 3, 71, 127
1, 18930, Note_on_c, 3, 71, 0
1, 18930, Note_on_c, 3, 73, 127
1, 18937, Note_on_c, 3, 73, 0
1, 18937, Note_on_c, 3, 71, 127
1, 18937, Note_on_c, 7, 59, 0
1, 18937, Note_on_c, 7, 59, 100
1, 18937, Note_on_c, 7, 57, 0
1, 18937, Note_on_c, 7, 57, 100
1, 18945, Note_on_c, 3, 71, 0
1, 18945, Note_on_c, 3, 73, 127
1, 18952, Note_on_c, 3, 73, 0
1, 18952, Note_on_c, 3, 71, 127
1, 18960, Note_on_c, 3, 71, 0
1, 18960, Note_on_c, 3, 73, 127
1, 18967, Note_on_c, 3, 73, 0
1, 18967, Note_on_c, 3, 71, 127
1, 18967, Note_on_c, 7, 59, 0
1, 18967, Note_on_c, 7, 59, 100
1, 18967, Note_on_c, 7, 57, 0
1, 18967, Note_on_c, 7, 56, 100
1, 18967, Note_on_c, 7, 40, 0
1, 18967, Note_on_c, 7, 40, 100
1, 18975, Note_on_c, 3, 71, 0
1, 18975, Note_on_c, 3, 73, 127
1, 18982, Note_on_c, 3, 73, 0
1, 18982, Note_on_c, 3, 71, 127
1, 18990, Note_on_c, 3, 71, 0
1, 18990, Note_on_c, 3, 73, 127
1, 18997, Note_on_c, 3, 73, 0
1, 18997, Note_on_c, 3, 71, 127
1, 18997, Note_on_c, 7, 59, 0
1, 18997, Note_on_c, 7, 59, 100
1, 18997, Note_on_c, 7, 56, 0
1, 18997, Note_on_c, 7, 56, 100
1, 19005, Note_on_c, 3, 71, 0
1, 19005, Note_on_c, 3, 73, 127
1, 19012, Note_on_c, 3, 73, 0
1, 19012, Note_on_c, 3, 71, 127
1, 19020, Note_on_c, 3, 71, 0
1, 19020, Note_on_c, 3, 73, 127
1, 19027, Note_on_c, 3, 73, 0
1, 19027, Note_on_c, 3, 71, 127
1, 19027, Note_on_c, 7, 59, 0
1, 19027, Note_on_c, 7, 59, 100
1, 19027, Note_on_c, 7, 56, 0
1, 19027, Note_on_c, 7, 56, 100
1, 19035, Note_on_c, 3, 71, 0
1, 19035, Note_on_c, 3, 73, 127
1, 19042, Note_on_c, 3, 73, 0
1, 19042, Note_on_c, 3, 71, 127
1, 19050, Note_on_c, 3, 71, 0
1, 19050, Note_on_c, 3, 73, 127
1, 19057, Note_on_c, 3, 73, 0
1, 19057, Note_on_c, 3, 71, 127
1, 19057, Note_on_c, 7, 59, 0
1, 19057, Note_on_c, 7, 59, 100
1, 19057, Note_on_c, 7, 56, 0
1, 19057, Note_on_c, 7, 56, 100
1, 19065, Note_on_c, 3, 71, 0
1, 19065, Note_on_c, 3, 73, 127
1, 19072, Note_on_c, 3, 73, 0
1, 19072, Note_on_c, 3, 71, 127
1, 19080, Note_on_c, 3, 71, 0
1, 19080, Note_on_c, 3, 73, 127
1, 19087, Note_on_c, 3, 73, 0
1, 19087, Note_on_c, 3, 71, 127
1, 19087, Note_on_c, 7, 59, 0
1, 19087, Note_on_c, 7, 59, 100
1, 19087, Note_on_c, 7, 56, 0
1, 19087, Note_on_c, 7, 56, 100
1, 19087, Note_on_c, 7, 50, 100
1, 19087, Note_on_c, 7, 52, 0
1, 19087, Note_on_c, 7, 52, 100
1, 19087, Note_on_c, 7, 40, 0
1, 19087, Note_on_c, 7, 40, 100
1, 19095, Note_on_c, 3, 71, 0
1, 19095, Note_on_c, 3, 73, 127
1, 19102, Note_on_c, 3, 73, 0
1, 19102, Note_on_c, 3, 71, 127
1, 19110, Note_on_c, 3, 71, 0
1, 19110, Note_on_c, 3, 73, 127
1, 19117, Note_on_c, 3, 73, 0
1, 19117, Note_on_c, 3, 71, 127
1, 19117, Note_on_c, 7, 59, 0
1, 19117, Note_on_c, 7, 59, 100
1, 19117, Note_on_c, 7, 56, 0
1, 19117, Note_on_c, 7, 56, 100
1, 19125, Note_on_c, 3, 71, 0
1, 19125, Note_on_c, 3, 73, 127
1, 19132, Note_on_c, 3, 73, 0
1, 19132, Note_on_c, 3, 71, 127
1, 19140, Note_on_c, 3, 71, 0
1, 19140, Note_on_c, 3, 73, 127
1, 19147, Note_on_c, 3, 73, 0
1, 19147, Note_on_c, 3, 71, 127
1, 19147, Note_on_c, 7, 59, 0
1, 19147, Note_on_c, 7, 59, 100
1, 19147, Note_on_c, 7, 56, 0
1, 19147, Note_on_c, 7, 56, 100
1, 19147, Note_on_c, 7, 50, 0
1, 19147, Note_on_c, 7, 50, 100
1, 19155, Note_on_c, 3, 71, 0
1, 19155, Note_on_c, 3, 73, 127
1, 19162, Note_on_c, 3, 73, 0
1, 19162, Note_on_c, 3, 71, 127
1, 19170, Note_on_c, 3, 71, 0
1, 19170, Note_on_c, 3, 73, 127
1, 19177, Note_on_c, 3, 73, 0
1, 19177, Note_on_c, 3, 71, 127
1, 19177, Note_on_c, 7, 59, 0
1, 19177, Note_on_c, 7, 59, 100
1, 19177, Note_on_c, 7, 56, 0
1, 19177, Note_on_c, 7, 56, 100
1, 19185, Note_on_c, 3, 71, 0
1, 19185, Note_on_c, 3, 73, 127
1, 19192, Note_on_c, 3, 73, 0
1, 19192, Note_on_c, 3, 69, 127
1, 19200, Note_on_c, 3, 69, 0
1, 19200, Note_on_c, 3, 71, 127
1, 19207, Note_on_c, 3, 71, 0
1, 19207, Note_on_c, 3, 69, 127
1, 19207, Note_on_c, 4, 81, 80
1, 19207, Note_on_c, 4, 73, 80
1, 19207, Note_on_c, 5, 64, 80
1, 19207, Note_on_c, 5, 61, 80
1, 19207, Note_on_c, 6, 57, 80
1, 19207, Note_on_c, 6, 45, 80
1, 19207, Note_on_c, 7, 59, 0
1, 19207, Note_on_c, 7, 57, 100
1, 19207, Note_on_c, 7, 56, 0
1, 19207, Note_on_c, 7, 50, 0
1, 19207, Note_on_c, 7, 49, 100
1, 19207, Note_on_c, 7, 52, 0
1, 19207, Note_on_c, 7, 40, 0
1, 19207, Note_on_c, 7, 45, 100
1, 19267, Note_on_c, 7, 69, 100
1, 19267, Note_on_c, 7, 64, 100
1, 19267, Note_on_c, 7, 49, 0
1, 19267, Note_on_c, 7, 61, 100
1, 19327, Note_on_c, 3, 69, 0
1, 19327, Note_on_c, 7, 57, 0
1, 19327, Note_on_c, 7, 52, 100
1, 19327, Note_on_c, 7, 45, 0
1, 19327, Note_on_c, 7, 40, 100
1, 19387, Note_on_c, 7, 69, 0
1, 19387, Note_on_c, 7, 73, 100
1, 19387, Note_on_c, 7, 64, 0
1, 19387, Note_on_c, 7, 69, 100
1, 19387, Note_on_c, 7, 61, 0
1, 19387, Note_on_c, 7, 64, 100
1, 19447, Note_on_c, 7, 52, 0
1, 19447, Note_on_c, 7, 49, 100
1, 19447, Note_on_c, 7, 40, 0
1, 19447, Note_on_c, 7, 37, 100
1, 19507, Note_on_c, 7, 73, 0
1, 19507, Note_on_c, 7, 76, 100
1, 19507, Note_on_c, 7, 69, 0
1, 19507, Note_on_c, 7, 73, 100
1, 19507, Note_on_c, 7, 64, 0
1, 19507, Note_on_c, 7, 69, 100
1, 19567, Note_on_c, 3, 45, 127
1, 19567, Note_on_c, 7, 76, 0
1, 19567, Note_on_c, 7, 81, 100
1, 19567, Note_on_c, 7, 73, 0
1, 19567, Note_on_c, 7, 76, 100
1, 19567, Note_on_c, 7, 69, 0
1, 19567, Note_on_c, 7, 73, 100
1, 19567, Note_on_c, 7, 49, 0
1, 19567, Note_on_c, 7, 45, 100
1, 19567, Note_on_c, 7, 37, 0
1, 19567, Note_on_c, 7, 33, 100
1, 19627, Note_on_c, 4, 81, 0
1, 19627, Note_on_c, 4, 73, 0
1, 19627, Note_on_c, 5, 64, 0
1, 19627, Note_on_c, 5, 61, 0
1, 19627, Note_on_c, 6, 57, 0
1, 19627, Note_on_c, 6, 45, 0
1, 19627, Note_on_c, 7, 81, 0
1, 19627, Note_on_c, 7, 61, 100
1, 19627, Note_on_c, 7, 76, 0
1, 19627, Note_on_c, 7, 57, 100
1, 19687, Note_on_c, 7, 61, 0
1, 19687, Note_on_c, 7, 61, 100
1, 19687, Note_on_c, 7, 57, 0
1, 19687, Note_on_c, 7, 57, 100
1, 19687, Note_on_c, 7, 73, 0
1, 19687, Note_on_c, 7, 45, 0
1, 19687, Note_on_c, 7, 33, 0
1, 19702, Note_on_c, 3, 45, 0
1, 19702, Note_on_c, 3, 49, 127
1, 19717, Note_on_c, 3, 49, 0
1, 19717, Note_on_c, 3, 52, 127
1, 19732, Note_on_c, 3, 52, 0
1, 19732, Note_on_c, 3, 57, 127
1, 19747, Note_on_c, 3, 57, 0
1, 19747, Note_on_c, 3, 61, 127
1, 19747, Note_on_c, 7, 61, 0
1, 19747, Note_on_c, 7, 61, 100
1, 19747, Note_on_c, 7, 57, 0
1, 19747, Note_on_c, 7, 57, 100
1, 19762, Note_on_c, 3, 61, 0
1, 19762, Note_on_c, 3, 64, 127
1, 19777, Note_on_c, 3, 64, 0
1, 19777, Note_on_c, 3, 69, 127
1, 19792, Note_on_c, 3, 69, 0
1, 19792, Note_on_c, 3, 73, 127
1, 19807, Note_on_c, 3, 73, 0
1, 19807, Note_on_c, 3, 69, 127
1, 19807, Note_on_c, 7, 61, 0
1, 19807, Note_on_c, 7, 61, 100
1, 19807, Note_on_c, 7, 57, 0
1, 19807, Note_on_c, 7, 57, 100
1, 19822, Note_on_c, 3, 69, 0
1, 19822, Note_on_c, 3, 71, 127
1, 19837, Note_on_c, 3, 71, 0
1, 19837, Note_on_c, 3, 73, 127
1, 19852, Note_on_c, 3, 73, 0
1, 19852, Note_on_c, 3, 74, 127
1, 19867, Note_on_c, 3, 74, 0
1, 19867, Note_on_c, 3, 76, 127
1, 19867, Note_on_c, 7, 61, 0
1, 19867, Note_on_c, 7, 61, 100
1, 19867, Note_on_c, 7, 57, 0
1, 19867, Note_on_c, 7, 57, 100
1, 19882, Note_on_c, 3, 76, 0
1, 19882, Note_on_c, 3, 78, 127
1, 19897, Note_on_c, 3, 78, 0
1, 19897, Note_on_c, 3, 80, 127
1, 19912, Note_on_c, 3, 80, 0
1, 19912, Note_on_c, 3, 81, 127
1, 19927, Note_on_c, 3, 81, 0
1, 19927, Note_on_c, 3, 80, 127
1, 19927, Note_on_c, 4, 86, 80
1, 19927, Note_on_c, 4, 80, 80
1, 19927, Note_on_c, 5, 62, 80
1, 19927, Note_on_c, 5, 59, 80
1, 19927, Note_on_c, 6, 64, 80
1, 19927, Note_on_c, 7, 61, 0
1, 19927, Note_on_c, 7, 62, 100
1, 19927, Note_on_c, 7, 57, 0
1, 19927, Note_on_c, 7, 59, 100
1, 19927, Note_on_c, 7, 56, 100
1, 19927, Note_on_c, 7, 57, 100
1, 19927, Note_on_c, 7, 45, 100
1, 19987, Note_on_c, 7, 62, 0
1, 19987, Note_on_c, 7, 68, 100
1, 19987, Note_on_c, 7, 59, 0
1, 19987, Note_on_c, 7, 62, 100
1, 19987, Note_on_c, 7, 56, 0
1, 19987, Note_on_c, 7, 59, 100
1, 20047, Note_on_c, 3, 80, 0
1, 20047, Note_on_c, 7, 57, 0
1, 20047, Note_on_c, 7, 33, 100
1, 20107, Note_on_c, 7, 68, 0
1, 20107, Note_on_c, 7, 71, 100
1, 20107, Note_on_c, 7, 62, 0
1, 20107, Note_on_c, 7, 68, 100
1, 20107, Note_on_c, 7, 59, 0
1, 20107, Note_on_c, 7, 62, 100
1, 20167, Note_on_c, 7, 45, 0
1, 20167, Note_on_c, 7, 57, 100
1, 20167, Note_on_c, 7, 33, 0
1, 20167, Note_on_c, 7, 45, 100
1, 20227, Note_on_c, 7, 71, 0
1, 20227, Note_on_c, 7, 74, 100
1, 20227, Note_on_c, 7, 68, 0
1, 20227, Note_on_c, 7, 71, 100
1, 20227, Note_on_c, 7, 62, 0
1, 20227, Note_on_c, 7, 68, 100
1, 20287, Note_on_c, 3, 47, 127
1, 20287, Note_on_c, 7, 74, 0
1, 20287, Note_on_c, 7, 80, 100
1, 20287, Note_on_c, 7, 71, 0
1, 20287, Note_on_c, 7, 74, 100
1, 20287, Note_on_c, 7, 68, 0
1, 20287, Note_on_c, 7, 71, 100
1, 20287, Note_on_c, 7, 57, 0
1, 20287, Note_on_c, 7, 33, 100
1, 20347, Note_on_c, 4, 86, 0
1, 20347, Note_on_c, 4, 80, 0
1, 20347, Note_on_c, 5, 62, 0
1, 20347, Note_on_c, 5, 59, 0
1, 20347, Note_on_c, 6, 64, 0
1, 20347, Note_on_c, 7, 80, 0
1, 20347, Note_on_c, 7, 62, 100
1, 20347, Note_on_c, 7, 74, 0
1, 20347, Note_on_c, 7, 56, 100
1, 20407, Note_on_c, 7, 62, 0
1, 20407, Note_on_c, 7, 62, 100
1, 20407, Note_on_c, 7, 56, 0
1, 20407, Note_on_c, 7, 56, 100
1, 20407, Note_on_c, 7, 71, 0
1, 20407, Note_on_c, 7, 45, 0
1, 20407, Note_on_c, 7, 33, 0
1, 20422, Note_on_c, 3, 47, 0
1, 20422, Note_on_c, 3, 50, 127
1, 20437, Note_on_c, 3, 50, 0
1, 20437, Note_on_c, 3, 56, 127
1, 20452, Note_on_c, 3, 56, 0
1, 20452, Note_on_c, 3, 59, 127
1, 20467, Note_on_c, 3, 59, 0
1, 20467, Note_on_c, 3, 62, 127
1, 20467, Note_on_c, 7, 62, 0
1, 20467, Note_on_c, 7, 62, 100
1, 20467, Note_on_c, 7, 56, 0
1, 20467, Note_on_c, 7, 56, 100
1, 20482, Note_on_c, 3, 62, 0
1, 20482, Note_on_c, 3, 64, 127
1, 20497, Note_on_c, 3, 64, 0
1, 20497, Note_on_c, 3, 68, 127
1, 20512, Note_on_c, 3, 68, 0
1, 20512, Note_on_c, 3, 71, 127
1, 20527, Note_on_c, 3, 71, 0
1, 20527, Note_on_c, 3, 68, 127
1, 20527, Note_on_c, 7, 62, 0
1, 20527, Note_on_c, 7, 62, 100
1, 20527, Note_on_c, 7, 56, 0
1, 20527, Note_on_c, 7, 56, 100
1, 20542, Note_on_c, 3, 68, 0
1, 20542, Note_on_c, 3, 69, 127
1, 20557, Note_on_c, 3, 69, 0
1, 20557, Note_on_c, 3, 71, 127
1, 20572, Note_on_c, 3, 71, 0
1, 20572, Note_on_c, 3, 73, 127
1, 20587, Note_on_c, 3, 73, 0
1, 20587, Note_on_c, 3, 74, 127
1, 20587, Note_on_c, 7, 62, 0
1, 20587, Note_on_c, 7, 62, 100
1, 20587, Note_on_c, 7, 56, 0
1, 20587, Note_on_c, 7, 56, 100
1, 20602, Note_on_c, 3, 74, 0
1, 20602, Note_on_c, 3, 76, 127
1, 20617, Note_on_c, 3, 76, 0
1, 20617, Note_on_c, 3, 78, 127
1, 20632, Note_on_c, 3, 78, 0
1, 20632, Note_on_c, 3, 80, 127
1, 20647, Note_on_c, 3, 80, 0
1, 20647, Note_on_c, 3, 79, 127
1, 20647, Note_on_c, 4, 85, 80
1, 20647, Note_on_c, 4, 79, 80
1, 20647, Note_on_c, 5, 64, 80
1, 20647, Note_on_c, 5, 61, 80
1, 20647, Note_on_c, 6, 57, 80
1, 20647, Note_on_c, 6, 45, 80
1, 20647, Note_on_c, 7, 62, 0
1, 20647, Note_on_c, 7, 61, 100
1, 20647, Note_on_c, 7, 56, 0
1, 20647, Note_on_c, 7, 55, 100
1, 20647, Note_on_c, 7, 52, 100
1, 20647, Note_on_c, 7, 57, 100
1, 20647, Note_on_c, 7, 45, 100
1, 20707, Note_on_c, 7, 61, 0
1, 20707, Note_on_c, 7, 67, 100
1, 20707, Note_on_c, 7, 55, 0
1, 20707, Note_on_c, 7, 64, 100
1, 20707, Note_on_c, 7, 52, 0
1, 20707, Note_on_c, 7, 61, 100
1, 20767, Note_on_c, 3, 79, 0
1, 20767, Note_on_c, 7, 57, 0
1, 20767, Note_on_c, 7, 52, 100
1, 20767, Note_on_c, 7, 45, 0
1, 20767, Note_on_c, 7, 40, 100
1, 20827, Note_on_c, 7, 67, 0
1, 20827, Note_on_c, 7, 73, 100
1, 20827, Note_on_c, 7, 64, 0
1, 20827, Note_on_c, 7, 67, 100
1, 20827, Note_on_c, 7, 61, 0
1, 20827, Note_on_c, 7, 64, 100
1, 20887, Note_on_c, 7, 52, 0
1, 20887, Note_on_c, 7, 49, 100
1, 20887, Note_on_c, 7, 40, 0
1, 20887, Note_on_c, 7, 37, 100
1, 20947, Note_on_c, 7, 73, 0
1, 20947, Note_on_c, 7, 76, 100
1, 20947, Note_on_c, 7, 67, 0
1, 20947, Note_on_c, 7, 73, 100
1, 20947, Note_on_c, 7, 64, 0
1, 20947, Note_on_c, 7, 67, 100
1, 21007, Note_on_c, 3, 79, 127
1, 21007, Note_on_c, 7, 76, 0
1, 21007, Note_on_c, 7, 79, 100
1, 21007, Note_on_c, 7, 73, 0
1, 21007, Note_on_c, 7, 76, 100
1, 21007, Note_on_c, 7, 67, 0
1, 21007, Note_on_c, 7, 73, 100
1, 21007, Note_on_c, 7, 49, 0
1, 21007, Note_on_c, 7, 45, 100
1, 21007, Note_on_c, 7, 37, 0
1, 21007, Note_on_c, 7, 33, 100
1, 21127, Note_on_c, 4, 85, 0
1, 21127, Note_on_c, 4, 79, 0
1, 21127, Note_on_c, 5, 64, 0
1, 21127, Note_on_c, 5, 61, 0
1, 21127, Note_on_c, 6, 57, 0
1, 21127, Note_on_c, 6, 45, 0
1, 21127, Note_on_c, 7, 79, 0
1, 21127, Note_on_c, 7, 76, 0
1, 21127, Note_on_c, 7, 73, 0
1, 21127, Note_on_c, 7, 45, 0
1, 21127, Note_on_c, 7, 33, 0
1, 21157, Note_on_c, 3, 79, 0
1, 21157, Note_on_c, 3, 78, 127
1, 21187, Note_on_c, 3, 78, 0
1, 21187, Note_on_c, 3, 81, 127
1, 21217, Note_on_c, 3, 81, 0
1, 21217, Note_on_c, 3, 79, 127
1, 21247, Note_on_c, 3, 79, 0
1, 21247, Note_on_c, 3, 78, 127
1, 21277, Note_on_c, 3, 78, 0
1, 21277, Note_on_c, 3, 76, 127
1, 21307, Note_on_c, 3, 76, 0
1, 21307, Note_on_c, 3, 74, 127
1, 21337, Note_on_c, 3, 74, 0
1, 21337, Note_on_c, 3, 73, 127
1, 21367, Note_on_c, 3, 73, 0
1, 21367, Note_on_c, 3, 76, 127
1, 21367, Note_on_c, 4, 84, 80
1, 21367, Note_on_c, 4, 84, 0
1, 21367, Note_on_c, 4, 72, 80
1, 21367, Note_on_c, 4, 72, 0
1, 21367, Note_on_c, 5, 60, 80
1, 21367, Note_on_c, 5, 60, 0
1, 21367, Note_on_c, 5, 60, 80
1, 21367, Note_on_c, 5, 60, 0
1, 21367, Note_on_c, 6, 50, 80
1, 21367, Note_on_c, 6, 50, 0
1, 21367, Note_on_c, 6, 38, 80
1, 21367, Note_on_c, 6, 38, 0
1, 21367, Note_on_c, 7, 72, 100
1, 21367, Note_on_c, 7, 72, 0
1, 21367, Note_on_c, 7, 72, 100
1, 21367, Note_on_c, 7, 72, 0
1, 21367, Note_on_c, 7, 72, 100
1, 21367, Note_on_c, 7, 72, 0
1, 21367, Note_on_c, 7, 36, 100
1, 21367, Note_on_c, 7, 36, 0
1, 21367, Note_on_c, 7, 24, 100
1, 21367, Note_on_c, 7, 24, 0
1, 21397, Note_on_c, 3, 76, 0
1, 21397, Note_on_c, 3, 75, 127
1, 21427, Note_on_c, 3, 75, 0
1, 21427, Note_on_c, 3, 78, 127
1, 21457, Note_on_c, 3, 78, 0
1, 21457, Note_on_c, 3, 76, 127
1, 21487, Note_on_c, 3, 76, 0
1, 21487, Note_on_c, 3, 74, 127
1, 21517, Note_on_c, 3, 74, 0
1, 21517, Note_on_c, 3, 73, 127
1, 21547, Note_on_c, 3, 73, 0
1, 21547, Note_on_c, 3, 71, 127
1, 21577, Note_on_c, 3, 71, 0
1, 21577, Note_on_c, 3, 69, 127
1, 21607, Note_on_c, 3, 69, 0
1, 21607, Note_on_c, 3, 68, 127
1, 21637, Note_on_c, 3, 68, 0
1, 21637, Note_on_c, 3, 69, 127
1, 21667, Note_on_c, 3, 69, 0
1, 21667, Note_on_c, 3, 71, 127
1, 21697, Note_on_c, 3, 71, 0
1, 21697, Note_on_c, 3, 69, 127
1, 21727, Note_on_c, 3, 69, 0
1, 21727, Note_on_c, 3, 69, 127
1, 21727, Note_on_c, 7, 66, 100
1, 21727, Note_on_c, 7, 62, 100
1, 21727, Note_on_c, 7, 57, 100
1, 21727, Note_on_c, 7, 50, 100
1, 21787, Note_on_c, 7, 66, 0
1, 21787, Note_on_c, 7, 69, 100
1, 21787, Note_on_c, 7, 62, 0
1, 21847, Note_on_c, 3, 69, 0
1, 21847, Note_on_c, 3, 74, 127
1, 21847, Note_on_c, 7, 69, 0
1, 21847, Note_on_c, 7, 66, 100
1, 21847, Note_on_c, 7, 62, 100
1, 21907, Note_on_c, 7, 66, 0
1, 21907, Note_on_c, 7, 69, 100
1, 21907, Note_on_c, 7, 62, 0
1, 21967, Note_on_c, 7, 69, 0
1, 21967, Note_on_c, 7, 66, 100
1, 21967, Note_on_c, 7, 62, 100
1, 22027, Note_on_c, 3, 74, 0
1, 22027, Note_on_c, 3, 78, 127
1, 22027, Note_on_c, 7, 66, 0
1, 22027, Note_on_c, 7, 69, 100
1, 22027, Note_on_c, 7, 62, 0
1, 22087, Note_on_c, 3, 78, 0
1, 22087, Note_on_c, 3, 78, 127
1, 22087, Note_on_c, 7, 69, 0
1, 22087, Note_on_c, 7, 67, 100
1, 22087, Note_on_c, 7, 61, 100
1, 22087, Note_on_c, 7, 50, 0
1, 22087, Note_on_c, 7, 45, 100
1, 22147, Note_on_c, 3, 78, 0
1, 22147, Note_on_c, 3, 76, 127
1, 22147, Note_on_c, 7, 67, 0
1, 22147, Note_on_c, 7, 69, 100
1, 22147, Note_on_c, 7, 61, 0
1, 22207, Note_on_c, 3, 76, 0
1, 22207, Note_on_c, 3, 74, 127
1, 22207, Note_on_c, 7, 69, 0
1, 22207, Note_on_c, 7, 66, 100
1, 22207, Note_on_c, 7, 62, 100
1, 22207, Note_on_c, 7, 45, 0
1, 22207, Note_on_c, 7, 50, 100
1, 22267, Note_on_c, 7, 66, 0
1, 22267, Note_on_c, 7, 69, 100
1, 22267, Note_on_c, 7, 62, 0
1, 22327, Note_on_c, 3, 74, 0
1, 22327, Note_on_c, 7, 69, 0
1, 22327, Note_on_c, 7, 66, 100
1, 22327, Note_on_c, 7, 62, 100
1, 22327, Note_on_c, 7, 50, 0
1, 22387, Note_on_c, 7, 66, 0
1, 22387, Note_on_c, 7, 69, 100
1, 22387, Note_on_c, 7, 62, 0
1, 22447, Note_on_c, 3, 69, 127
1, 22447, Note_on_c, 7, 69, 0
1, 22447, Note_on_c, 7, 66, 100
1, 22447, Note_on_c, 7, 62, 100
1, 22447, Note_on_c, 7, 57, 0
1, 22447, Note_on_c, 7, 57, 100
1, 22447, Note_on_c, 7, 50, 100
1, 22507, Note_on_c, 7, 66, 0
1, 22507, Note_on_c, 7, 69, 100
1, 22507, Note_on_c, 7, 62, 0
1, 22567, Note_on_c, 7, 69, 0
1, 22567, Note_on_c, 7, 66, 100
1, 22567, Note_on_c, 7, 62, 100
1, 22627, Note_on_c, 3, 69, 0
1, 22627, Note_on_c, 3, 74, 127
1, 22627, Note_on_c, 7, 66, 0
1, 22627, Note_on_c, 7, 69, 100
1, 22627, Note_on_c, 7, 62, 0
1, 22687, Note_on_c, 3, 74, 0
1, 22687, Note_on_c, 3, 78, 127
1, 22687, Note_on_c, 7, 69, 0
1, 22687, Note_on_c, 7, 66, 100
1, 22687, Note_on_c, 7, 62, 100
1, 22747, Note_on_c, 3, 78, 0
1, 22747, Note_on_c, 3, 81, 127
1, 22747, Note_on_c, 7, 66, 0
1, 22747, Note_on_c, 7, 69, 100
1, 22747, Note_on_c, 7, 62, 0
1, 22807, Note_on_c, 3, 81, 0
1, 22807, Note_on_c, 3, 81, 127
1, 22807, Note_on_c, 7, 69, 0
1, 22807, Note_on_c, 7, 64, 100
1, 22807, Note_on_c, 7, 61, 100
1, 22807, Note_on_c, 7, 50, 0
1, 22807, Note_on_c, 7, 45, 100
1, 22867, Note_on_c, 3, 81, 0
1, 22867, Note_on_c, 3, 79, 127
1, 22867, Note_on_c, 7, 64, 0
1, 22867, Note_on_c, 7, 69, 100
1, 22867, Note_on_c, 7, 61, 0
1, 22927, Note_on_c, 3, 79, 0
1, 22927, Note_on_c, 3, 78, 127
1, 22927, Note_on_c, 7, 69, 0
1, 22927, Note_on_c, 7, 66, 100
1, 22927, Note_on_c, 7, 62, 100
1, 22927, Note_on_c, 7, 45, 0
1, 22927, Note_on_c, 7, 50, 100
1, 22987, Note_on_c, 7, 66, 0
1, 22987, Note_on_c, 7, 69, 100
1, 22987, Note_on_c, 7, 62, 0
1, 23047, Note_on_c, 3, 78, 0
1, 23047, Note_on_c, 7, 69, 0
1, 23047, Note_on_c, 7, 66, 100
1, 23047, Note_on_c, 7, 62, 100
1, 23047, Note_on_c, 7, 50, 0
1, 23107, Note_on_c, 7, 66, 0
1, 23107, Note_on_c, 7, 69, 100
1, 23107, Note_on_c, 7, 62, 0
1, 23167, Note_on_c, 3, 76, 127
1, 23167, Note_on_c, 7, 69, 0
1, 23167, Note_on_c, 7, 64, 100
1, 23167, Note_on_c, 7, 61, 100
1, 23167, Note_on_c, 7, 57, 0
1, 23167, Note_on_c, 7, 57, 100
1, 23167, Note_on_c, 7, 45, 100
1, 23227, Note_on_c, 7, 64, 0
1, 23227, Note_on_c, 7, 69, 100
1, 23227, Note_on_c, 7, 61, 0
1, 23287, Note_on_c, 7, 69, 0
1, 23287, Note_on_c, 7, 64, 100
1, 23287, Note_on_c, 7, 61, 100
1, 23347, Note_on_c, 3, 76, 0
1, 23347, Note_on_c, 3, 81, 127
1, 23347, Note_on_c, 7, 64, 0
1, 23347, Note_on_c, 7, 69, 100
1, 23347, Note_on_c, 7, 61, 0
1, 23407, Note_on_c, 3, 81, 0
1, 23407, Note_on_c, 3, 78, 127
1, 23407, Note_on_c, 7, 69, 0
1, 23407, Note_on_c, 7, 66, 100
1, 23407, Note_on_c, 7, 62, 100
1, 23467, Note_on_c, 3, 78, 0
1, 23467, Note_on_c, 3, 81, 127
1, 23467, Note_on_c, 7, 66, 0
1, 23467, Note_on_c, 7, 69, 100
1, 23467, Note_on_c, 7, 62, 0
1, 23527, Note_on_c, 3, 81, 0
1, 23527, Note_on_c, 3, 76, 127
1, 23527, Note_on_c, 7, 69, 0
1, 23527, Note_on_c, 7, 64, 100
1, 23527, Note_on_c, 7, 61, 100
1, 23587, Note_on_c, 7, 64, 0
1, 23587, Note_on_c, 7, 69, 100
1, 23587, Note_on_c, 7, 61, 0
1, 23647, Note_on_c, 7, 69, 0
1, 23647, Note_on_c, 7, 64, 100
1, 23647, Note_on_c, 7, 61, 100
1, 23707, Note_on_c, 3, 76, 0
1, 23707, Note_on_c, 3, 81, 127
1, 23707, Note_on_c, 7, 64, 0
1, 23707, Note_on_c, 7, 69, 100
1, 23707, Note_on_c, 7, 61, 0
1, 23767, Note_on_c, 3, 81, 0
1, 23767, Note_on_c, 3, 71, 127
1, 23767, Note_on_c, 7, 69, 0
1, 23767, Note_on_c, 7, 62, 100
1, 23767, Note_on_c, 7, 59, 100
1, 23767, Note_on_c, 7, 57, 0
1, 23767, Note_on_c, 7, 54, 100
1, 23767, Note_on_c, 7, 45, 0
1, 23767, Note_on_c, 7, 50, 100
1, 23827, Note_on_c, 3, 71, 0
1, 23827, Note_on_c, 3, 78, 127
1, 23827, Note_on_c, 7, 62, 0
1, 23827, Note_on_c, 7, 66, 100
1, 23827, Note_on_c, 7, 59, 0
1, 23827, Note_on_c, 7, 62, 100
1, 23887, Note_on_c, 3, 78, 0
1, 23887, Note_on_c, 3, 69, 127
1, 23887, Note_on_c, 7, 66, 0
1, 23887, Note_on_c, 7, 61, 100
1, 23887, Note_on_c, 7, 62, 0
1, 23887, Note_on_c, 7, 57, 100
1, 23887, Note_on_c, 7, 54, 0
1, 23887, Note_on_c, 7, 52, 100
1, 23887, Note_on_c, 7, 50, 0
1, 23947, Note_on_c, 7, 61, 0
1, 23947, Note_on_c, 7, 64, 100
1, 23947, Note_on_c, 7, 57, 0
1, 23947, Note_on_c, 7, 61, 100
1, 24007, Note_on_c, 7, 64, 0
1, 24007, Note_on_c, 7, 57, 100
1, 24067, Note_on_c, 7, 61, 0
1, 24067, Note_on_c, 7, 64, 100
1, 24067, Note_on_c, 7, 57, 0
1, 24067, Note_on_c, 7, 61, 100
1, 24127, Note_on_c, 3, 69, 0
1, 24127, Note_on_c, 3, 73, 127
1, 24127, Note_on_c, 7, 64, 0
1, 24127, Note_on_c, 7, 62, 100
1, 24127, Note_on_c, 7, 61, 0
1, 24127, Note_on_c, 7, 56, 100
1, 24157, Note_on_c, 3, 73, 0
1, 24157, Note_on_c, 3, 71, 127
1, 24187, Note_on_c, 7, 62, 0
1, 24187, Note_on_c, 7, 64, 100
1, 24187, Note_on_c, 7, 56, 0
1, 24187, Note_on_c, 7, 59, 100
1, 24217, Note_on_c, 3, 71, 0
1, 24217, Note_on_c, 3, 69, 127
1, 24247, Note_on_c, 3, 69, 0
1, 24247, Note_on_c, 3, 69, 127
1, 24247, Note_on_c, 7, 64, 0
1, 24247, Note_on_c, 7, 61, 100
1, 24247, Note_on_c, 7, 59, 0
1, 24247, Note_on_c, 7, 57, 100
1, 24247, Note_on_c, 7, 45, 100
1, 24307, Note_on_c, 7, 61, 0
1, 24307, Note_on_c, 7, 71, 100
1, 24307, Note_on_c, 7, 57, 0
1, 24307, Note_on_c, 7, 67, 100
1, 24367, Note_on_c, 3, 69, 0
1, 24367, Note_on_c, 7, 71, 0
1, 24367, Note_on_c, 7, 69, 100
1, 24367, Note_on_c, 7, 67, 0
1, 24367, Note_on_c, 7, 66, 100
1, 24367, Note_on_c, 7, 52, 0
1, 24367, Note_on_c, 7, 45, 0
1, 24427, Note_on_c, 7, 69, 0
1, 24427, Note_on_c, 7, 67, 100
1, 24427, Note_on_c, 7, 66, 0
1, 24427, Note_on_c, 7, 64, 100
1, 24487, Note_on_c, 7, 67, 0
1, 24487, Note_on_c, 7, 66, 100
1, 24487, Note_on_c, 7, 64, 0
1, 24487, Note_on_c, 7, 62, 100
1, 24547, Note_on_c, 7, 66, 0
1, 24547, Note_on_c, 7, 64, 100
1, 24547, Note_on_c, 7, 62, 0
1, 24547, Note_on_c, 7, 61, 100
1, 24607, Note_on_c, 3, 78, 127
1, 24607, Note_on_c, 7, 64, 0
1, 24607, Note_on_c, 7, 66, 100
1, 24607, Note_on_c, 7, 61, 0
1, 24607, Note_on_c, 7, 62, 100
1, 24607, Note_on_c, 7, 54, 100
1, 24607, Note_on_c, 7, 50, 100
1, 24667, Note_on_c, 7, 66, 0
1, 24667, Note_on_c, 7, 57, 100
1, 24727, Note_on_c, 7, 62, 0
1, 24727, Note_on_c, 7, 66, 100
1, 24727, Note_on_c, 7, 57, 0
1, 24727, Note_on_c, 7, 62, 100
1, 24787, Note_on_c, 3, 78, 0
1, 24787, Note_on_c, 3, 76, 127
1, 24787, Note_on_c, 7, 66, 0
1, 24787, Note_on_c, 7, 57, 100
1, 24847, Note_on_c, 3, 76, 0
1, 24847, Note_on_c, 3, 74, 127
1, 24847, Note_on_c, 7, 62, 0
1, 24847, Note_on_c, 7, 66, 100
1, 24847, Note_on_c, 7, 57, 0
1, 24847, Note_on_c, 7, 62, 100
1, 24907, Note_on_c, 3, 74, 0
1, 24907, Note_on_c, 3, 73, 127
1, 24907, Note_on_c, 7, 66, 0
1, 24907, Note_on_c, 7, 57, 100
1, 24967, Note_on_c, 3, 73, 0
1, 24967, Note_on_c, 3, 71, 127
1, 24967, Note_on_c, 7, 62, 0
1, 24967, Note_on_c, 7, 62, 100
1, 24967, Note_on_c, 7, 57, 0
1, 24967, Note_on_c, 7, 59, 100
1, 24967, Note_on_c, 7, 54, 0
1, 24967, Note_on_c, 7, 55, 100
1, 24967, Note_on_c, 7, 50, 0
1, 25027, Note_on_c, 7, 62, 0
1, 25027, Note_on_c, 7, 71, 100
1, 25027, Note_on_c, 7, 59, 0
1, 25027, Note_on_c, 7, 67, 100
1, 25087, Note_on_c, 3, 71, 0
1, 25087, Note_on_c, 7, 60, 100
1, 25087, Note_on_c, 7, 55, 0
1, 25087, Note_on_c, 7, 57, 100
1, 25147, Note_on_c, 7, 71, 0
1, 25147, Note_on_c, 7, 69, 100
1, 25147, Note_on_c, 7, 67, 0
1, 25147, Note_on_c, 7, 66, 100
1, 25207, Note_on_c, 7, 69, 0
1, 25207, Note_on_c, 7, 67, 100
1, 25207, Note_on_c, 7, 66, 0
1, 25207, Note_on_c, 7, 64, 100
1, 25207, Note_on_c, 7, 60, 0
1, 25207, Note_on_c, 7, 59, 100
1, 25207, Note_on_c, 7, 57, 0
1, 25267, Note_on_c, 7, 67, 0
1, 25267, Note_on_c, 7, 66, 100
1, 25267, Note_on_c, 7, 64, 0
1, 25267, Note_on_c, 7, 63, 100
1, 25267, Note_on_c, 7, 57, 100
1, 25327, Note_on_c, 3, 79, 127
1, 25327, Note_on_c, 7, 66, 0
1, 25327, Note_on_c, 7, 67, 100
1, 25327, Note_on_c, 7, 63, 0
1, 25327, Note_on_c, 7, 64, 100
1, 25327, Note_on_c, 7, 57, 0
1, 25327, Note_on_c, 7, 55, 100
1, 25327, Note_on_c, 7, 59, 0
1, 25327, Note_on_c, 7, 52, 100
1, 25387, Note_on_c, 7, 67, 0
1, 25387, Note_on_c, 7, 59, 100
1, 25447, Note_on_c, 7, 64, 0
1, 25447, Note_on_c, 7, 67, 100
1, 25447, Note_on_c, 7, 59, 0
1, 25447, Note_on_c, 7, 64, 100
1, 25507, Note_on_c, 3, 79, 0
1, 25507, Note_on_c, 3, 78, 127
1, 25507, Note_on_c, 7, 67, 0
1, 25507, Note_on_c, 7, 59, 100
1, 25567, Note_on_c, 3, 78, 0
1, 25567, Note_on_c, 3, 76, 127
1, 25567, Note_on_c, 7, 64, 0
1, 25567, Note_on_c, 7, 67, 100
1, 25567, Note_on_c, 7, 59, 0
1, 25567, Note_on_c, 7, 64, 100
1, 25627, Note_on_c, 3, 76, 0
1, 25627, Note_on_c, 3, 74, 127
1, 25627, Note_on_c, 7, 67, 0
1, 25627, Note_on_c, 7, 59, 100
1, 25687, Note_on_c, 3, 74, 0
1, 25687, Note_on_c, 3, 73, 127
1, 25687, Note_on_c, 7, 64, 0
1, 25687, Note_on_c, 7, 64, 100
1, 25687, Note_on_c, 7, 59, 0
1, 25687, Note_on_c, 7, 61, 100
1, 25687, Note_on_c, 7, 55, 0
1, 25687, Note_on_c, 7, 57, 100
1, 25687, Note_on_c, 7, 52, 0
1, 25747, Note_on_c, 7, 64, 0
1, 25747, Note_on_c, 7, 73, 100
1, 25747, Note_on_c, 7, 61, 0
1, 25747, Note_on_c, 7, 69, 100
1, 25807, Note_on_c, 3, 73, 0
1, 25807, Note_on_c, 7, 62, 100
1, 25807, Note_on_c, 7, 57, 0
1, 25807, Note_on_c, 7, 59, 100
1, 25867, Note_on_c, 7, 73, 0
1, 25867, Note_on_c, 7, 71, 100
1, 25867, Note_on_c, 7, 69, 0
1, 25867, Note_on_c, 7, 68, 100
1, 25927, Note_on_c, 7, 71, 0
1, 25927, Note_on_c, 7, 69, 100
1, 25927, Note_on_c, 7, 68, 0
1, 25927, Note_on_c, 7, 66, 100
1, 25927, Note_on_c, 7, 62, 0
1, 25927, Note_on_c, 7, 61, 100
1, 25927, Note_on_c, 7, 59, 0
1, 25987, Note_on_c, 7, 69, 0
1, 25987, Note_on_c, 7, 68, 100
1, 25987, Note_on_c, 7, 66, 0
1, 25987, Note_on_c, 7, 65, 100
1, 25987, Note_on_c, 7, 59, 100
1, 26047, Note_on_c, 3, 81, 127
1, 26047, Note_on_c, 7, 68, 0
1, 26047, Note_on_c, 7, 69, 100
1, 26047, Note_on_c, 7, 65, 0
1, 26047, Note_on_c, 7, 66, 100
1, 26047, Note_on_c, 7, 59, 0
1, 26047, Note_on_c, 7, 57, 100
1, 26047, Note_on_c, 7, 61, 0
1, 26047, Note_on_c, 7, 54, 100
1, 26107, Note_on_c, 7, 69, 0
1, 26107, Note_on_c, 7, 61, 100
1, 26107, Note_on_c, 7, 66, 0
1, 26167, Note_on_c, 7, 61, 0
1, 26167, Note_on_c, 7, 59, 100
1, 26167, Note_on_c, 7, 57, 0
1, 26167, Note_on_c, 7, 55, 100
1, 26167, Note_on_c, 7, 54, 0
1, 26227, Note_on_c, 3, 81, 0
1, 26227, Note_on_c, 3, 79, 127
1, 26227, Note_on_c, 7, 64, 100
1, 26287, Note_on_c, 3, 79, 0
1, 26287, Note_on_c, 3, 78, 127
1, 26287, Note_on_c, 7, 64, 0
1, 26287, Note_on_c, 7, 61, 100
1, 26287, Note_on_c, 7, 59, 0
1, 26287, Note_on_c, 7, 57, 100
1, 26287, Note_on_c, 7, 55, 0
1, 26347, Note_on_c, 3, 78, 0
1, 26347, Note_on_c, 3, 76, 127
1, 26347, Note_on_c, 7, 61, 0
1, 26347, Note_on_c, 7, 67, 100
1, 26347, Note_on_c, 7, 61, 100
1, 26407, Note_on_c, 3, 76, 0
1, 26407, Note_on_c, 3, 74, 127
1, 26407, Note_on_c, 7, 67, 0
1, 26407, Note_on_c, 7, 66, 100
1, 26407, Note_on_c, 7, 61, 0
1, 26407, Note_on_c, 7, 62, 100
1, 26407, Note_on_c, 7, 59, 100
1, 26407, Note_on_c, 7, 57, 0
1, 26467, Note_on_c, 7, 66, 0
1, 26527, Note_on_c, 3, 74, 0
1, 26527, Note_on_c, 3, 79, 127
1, 26527, Note_on_c, 7, 62, 0
1, 26527, Note_on_c, 7, 64, 100
1, 26527, Note_on_c, 7, 57, 100
1, 26527, Note_on_c, 7, 61, 100
1, 26527, Note_on_c, 7, 59, 0
1, 26587, Note_on_c, 7, 64, 0
1, 26587, Note_on_c, 7, 69, 100
1, 26587, Note_on_c, 7, 57, 0
1, 26587, Note_on_c, 7, 64, 100
1, 26647, Note_on_c, 7, 69, 0
1, 26647, Note_on_c, 7, 62, 100
1, 26647, Note_on_c, 7, 64, 0
1, 26647, Note_on_c, 7, 57, 100
1, 26647, Note_on_c, 7, 61, 0
1, 26707, Note_on_c, 3, 79, 0
1, 26707, Note_on_c, 3, 78, 127
1, 26707, Note_on_c, 7, 69, 100
1, 26707, Note_on_c, 7, 57, 0
1, 26767, Note_on_c, 3, 78, 0
1, 26767, Note_on_c, 3, 78, 127
1, 26767, Note_on_c, 7, 69, 0
1, 26767, Note_on_c, 7, 64, 100
1, 26767, Note_on_c, 7, 59, 100
1, 26767, Note_on_c, 7, 55, 100
1, 26767, Note_on_c, 7, 62, 0
1, 26797, Note_on_c, 3, 78, 0
1, 26797, Note_on_c, 3, 76, 127
1, 26827, Note_on_c, 3, 76, 0
1, 26827, Note_on_c, 3, 78, 127
1, 26827, Note_on_c, 7, 64, 0
1, 26827, Note_on_c, 7, 67, 100
1, 26827, Note_on_c, 7, 59, 0
1, 26827, Note_on_c, 7, 64, 100
1, 26827, Note_on_c, 7, 59, 100
1, 26857, Note_on_c, 3, 78, 0
1, 26857, Note_on_c, 3, 79, 127
1, 26887, Note_on_c, 3, 79, 0
1, 26887, Note_on_c, 3, 74, 127
1, 26887, Note_on_c, 7, 67, 0
1, 26887, Note_on_c, 7, 66, 100
1, 26887, Note_on_c, 7, 64, 0
1, 26887, Note_on_c, 7, 62, 100
1, 26887, Note_on_c, 7, 59, 0
1, 26887, Note_on_c, 7, 57, 100
1, 26887, Note_on_c, 7, 55, 0
1, 26947, Note_on_c, 7, 66, 0
1, 26947, Note_on_c, 7, 69, 100
1, 26947, Note_on_c, 7, 62, 0
1, 26947, Note_on_c, 7, 66, 100
1, 27007, Note_on_c, 3, 74, 0
1, 27007, Note_on_c, 3, 78, 127
1, 27007, Note_on_c, 7, 69, 0
1, 27007, Note_on_c, 7, 61, 100
1, 27007, Note_on_c, 7, 66, 0
1, 27007, Note_on_c, 7, 45, 100
1, 27037, Note_on_c, 3, 78, 0
1, 27037, Note_on_c, 3, 76, 127
1, 27067, Note_on_c, 7, 61, 0
1, 27067, Note_on_c, 7, 64, 100
1, 27067, Note_on_c, 7, 61, 100
1, 27067, Note_on_c, 7, 57, 0
1, 27067, Note_on_c, 7, 55, 100
1, 27097, Note_on_c, 3, 76, 0
1, 27097, Note_on_c, 3, 74, 127
1, 27127, Note_on_c, 3, 74, 0
1, 27127, Note_on_c, 3, 74, 127
1, 27127, Note_on_c, 7, 64, 0
1, 27127, Note_on_c, 7, 62, 100
1, 27127, Note_on_c, 7, 61, 0
1, 27127, Note_on_c, 7, 55, 0
1, 27127, Note_on_c, 7, 54, 100
1, 27127, Note_on_c, 7, 45, 0
1, 27127, Note_on_c, 7, 50, 100
1, 27187, Note_on_c, 7, 71, 100
1, 27187, Note_on_c, 7, 54, 0
1, 27187, Note_on_c, 7, 67, 100
1, 27247, Note_on_c, 3, 74, 0
1, 27247, Note_on_c, 7, 62, 0
1, 27247, Note_on_c, 7, 71, 0
1, 27247, Note_on_c, 7, 69, 100
1, 27247, Note_on_c, 7, 67, 0
1, 27247, Note_on_c, 7, 66, 100
1, 27247, Note_on_c, 7, 50, 0
1, 27307, Note_on_c, 7, 69, 0
1, 27307, Note_on_c, 7, 67, 100
1, 27307, Note_on_c, 7, 66, 0
1, 27307, Note_on_c, 7, 64, 100
1, 27367, Note_on_c, 7, 67, 0
1, 27367, Note_on_c, 7, 66, 100
1, 27367, Note_on_c, 7, 64, 0
1, 27367, Note_on_c, 7, 62, 100
1, 27427, Note_on_c, 7, 66, 0
1, 27427, Note_on_c, 7, 64, 100
1, 27427, Note_on_c, 7, 62, 0
1, 27427, Note_on_c, 7, 61, 100
1, 27487, Note_on_c, 5, 66, 80
1, 27487, Note_on_c, 5, 62, 80
1, 27487, Note_on_c, 6, 62, 80
1, 27487, Note_on_c, 6, 50, 80
1, 27487, Note_on_c, 7, 78, 100
1, 27487, Note_on_c, 7, 64, 0
1, 27487, Note_on_c, 7, 66, 100
1, 27487, Note_on_c, 7, 61, 0
1, 27487, Note_on_c, 7, 57, 100
1, 27487, Note_on_c, 7, 50, 100
1, 27487, Note_on_c, 7, 26, 100
1, 27547, Note_on_c, 7, 66, 0
1, 27547, Note_on_c, 7, 66, 100
1, 27547, Note_on_c, 7, 57, 0
1, 27547, Note_on_c, 7, 57, 100
1, 27667, Note_on_c, 5, 66, 0
1, 27667, Note_on_c, 5, 64, 80
1, 27667, Note_on_c, 5, 62, 0
1, 27667, Note_on_c, 5, 61, 80
1, 27667, Note_on_c, 7, 78, 0
1, 27667, Note_on_c, 7, 76, 100
1, 27667, Note_on_c, 7, 66, 0
1, 27667, Note_on_c, 7, 66, 100
1, 27667, Note_on_c, 7, 57, 0
1, 27667, Note_on_c, 7, 57, 100
1, 27667, Note_on_c, 7, 50, 0
1, 27667, Note_on_c, 7, 49, 100
1, 27667, Note_on_c, 7, 26, 0
1, 27667, Note_on_c, 7, 25, 100
1, 27727, Note_on_c, 5, 64, 0
1, 27727, Note_on_c, 5, 62, 80
1, 27727, Note_on_c, 5, 61, 0
1, 27727, Note_on_c, 5, 59, 80
1, 27727, Note_on_c, 6, 62, 0
1, 27727, Note_on_c, 6, 50, 0
1, 27727, Note_on_c, 7, 76, 0
1, 27727, Note_on_c, 7, 74, 100
1, 27727, Note_on_c, 7, 57, 0
1, 27727, Note_on_c, 7, 59, 100
1, 27727, Note_on_c, 7, 49, 0
1, 27727, Note_on_c, 7, 47, 100
1, 27727, Note_on_c, 7, 25, 0
1, 27727, Note_on_c, 7, 35, 100
1, 27787, Note_on_c, 5, 62, 0
1, 27787, Note_on_c, 5, 61, 80
1, 27787, Note_on_c, 5, 59, 0
1, 27787, Note_on_c, 5, 57, 80
1, 27787, Note_on_c, 7, 74, 0
1, 27787, Note_on_c, 7, 73, 100
1, 27787, Note_on_c, 7, 66, 0
1, 27787, Note_on_c, 7, 66, 100
1, 27787, Note_on_c, 7, 59, 0
1, 27787, Note_on_c, 7, 61, 100
1, 27787, Note_on_c, 7, 47, 0
1, 27787, Note_on_c, 7, 45, 100
1, 27787, Note_on_c, 7, 35, 0
1, 27787, Note_on_c, 7, 33, 100
1, 27847, Note_on_c, 4, 83, 80
1, 27847, Note_on_c, 4, 79, 80
1, 27847, Note_on_c, 5, 61, 0
1, 27847, Note_on_c, 5, 59, 80
1, 27847, Note_on_c, 5, 57, 0
1, 27847, Note_on_c, 5, 55, 80
1, 27847, Note_on_c, 7, 73, 0
1, 27847, Note_on_c, 7, 71, 100
1, 27847, Note_on_c, 7, 66, 0
1, 27847, Note_on_c, 7, 67, 100
1, 27847, Note_on_c, 7, 61, 0
1, 27847, Note_on_c, 7, 62, 100
1, 27847, Note_on_c, 7, 45, 0
1, 27847, Note_on_c, 7, 43, 100
1, 27847, Note_on_c, 7, 33, 0
1, 27847, Note_on_c, 7, 31, 100
1, 27907, Note_on_c, 5, 59, 0
1, 27907, Note_on_c, 5, 55, 0
1, 27907, Note_on_c, 7, 67, 0
1, 27907, Note_on_c, 7, 62, 0
1, 27907, Note_on_c, 7, 67, 100
1, 27967, Note_on_c, 5, 60, 80
1, 27967, Note_on_c, 7, 43, 0
1, 27967, Note_on_c, 7, 45, 100
1, 27967, Note_on_c, 7, 31, 0
1, 27967, Note_on_c, 7, 33, 100
1, 28027, Note_on_c, 4, 83, 0
1, 28027, Note_on_c, 4, 81, 80
1, 28027, Note_on_c, 4, 79, 0
1, 28027, Note_on_c, 4, 78, 80
1, 28027, Note_on_c, 7, 71, 0
1, 28027, Note_on_c, 7, 69, 100
1, 28027, Note_on_c, 7, 67, 0
1, 28027, Note_on_c, 7, 66, 100
1, 28087, Note_on_c, 4, 81, 0
1, 28087, Note_on_c, 4, 79, 80
1, 28087, Note_on_c, 4, 78, 0
1, 28087, Note_on_c, 4, 76, 80
1, 28087, Note_on_c, 5, 59, 80
1, 28087, Note_on_c, 5, 60, 0
1, 28087, Note_on_c, 7, 69, 0
1, 28087, Note_on_c, 7, 67, 100
1, 28087, Note_on_c, 7, 66, 0
1, 28087, Note_on_c, 7, 64, 100
1, 28087, Note_on_c, 7, 45, 0
1, 28087, Note_on_c, 7, 47, 100
1, 28087, Note_on_c, 7, 33, 0
1, 28087, Note_on_c, 7, 35, 100
1, 28147, Note_on_c, 4, 79, 0
1, 28147, Note_on_c, 4, 78, 80
1, 28147, Note_on_c, 4, 76, 0
1, 28147, Note_on_c, 4, 75, 80
1, 28147, Note_on_c, 5, 57, 80
1, 28147, Note_on_c, 7, 67, 0
1, 28147, Note_on_c, 7, 66, 100
1, 28147, Note_on_c, 7, 64, 0
1, 28147, Note_on_c, 7, 63, 100
1, 28207, Note_on_c, 4, 78, 0
1, 28207, Note_on_c, 4, 76, 80
1, 28207, Note_on_c, 4, 75, 0
1, 28207, Note_on_c, 5, 59, 0
1, 28207, Note_on_c, 5, 67, 80
1, 28207, Note_on_c, 5, 57, 0
1, 28207, Note_on_c, 5, 55, 80
1, 28207, Note_on_c, 6, 64, 80
1, 28207, Note_on_c, 7, 79, 100
1, 28207, Note_on_c, 7, 66, 0
1, 28207, Note_on_c, 7, 67, 100
1, 28207, Note_on_c, 7, 63, 0
1, 28207, Note_on_c, 7, 64, 100
1, 28207, Note_on_c, 7, 47, 0
1, 28207, Note_on_c, 7, 52, 100
1, 28207, Note_on_c, 7, 35, 0
1, 28207, Note_on_c, 7, 40, 100
1, 28267, Note_on_c, 5, 55, 0
1, 28267, Note_on_c, 5, 59, 80
1, 28267, Note_on_c, 7, 67, 0
1, 28267, Note_on_c, 7, 67, 100
1, 28267, Note_on_c, 7, 64, 0
1, 28267, Note_on_c, 7, 59, 100
1, 28327, Note_on_c, 4, 76, 0
1, 28327, Note_on_c, 5, 59, 0
1, 28327, Note_on_c, 5, 64, 80
1, 28387, Note_on_c, 5, 67, 0
1, 28387, Note_on_c, 5, 66, 80
1, 28387, Note_on_c, 5, 64, 0
1, 28387, Note_on_c, 5, 62, 80
1, 28387, Note_on_c, 7, 79, 0
1, 28387, Note_on_c, 7, 78, 100
1, 28387, Note_on_c, 7, 67, 0
1, 28387, Note_on_c, 7, 67, 100
1, 28387, Note_on_c, 7, 59, 0
1, 28387, Note_on_c, 7, 59, 100
1, 28387, Note_on_c, 7, 52, 0
1, 28387, Note_on_c, 7, 50, 100
1, 28387, Note_on_c, 7, 40, 0
1, 28387, Note_on_c, 7, 38, 100
1, 28447, Note_on_c, 5, 66, 0
1, 28447, Note_on_c, 5, 64, 80
1, 28447, Note_on_c, 5, 62, 0
1, 28447, Note_on_c, 5, 61, 80
1, 28447, Note_on_c, 6, 64, 0
1, 28447, Note_on_c, 7, 78, 0
1, 28447, Note_on_c, 7, 76, 100
1, 28447, Note_on_c, 7, 59, 0
1, 28447, Note_on_c, 7, 61, 100
1, 28447, Note_on_c, 7, 50, 0
1, 28447, Note_on_c, 7, 49, 100
1, 28447, Note_on_c, 7, 38, 0
1, 28447, Note_on_c, 7, 37, 100
1, 28507, Note_on_c, 5, 64, 0
1, 28507, Note_on_c, 5, 62, 80
1, 28507, Note_on_c, 5, 61, 0
1, 28507, Note_on_c, 5, 59, 80
1, 28507, Note_on_c, 7, 76, 0
1, 28507, Note_on_c, 7, 74, 100
1, 28507, Note_on_c, 7, 67, 0
1, 28507, Note_on_c, 7, 68, 100
1, 28507, Note_on_c, 7, 61, 0
1, 28507, Note_on_c, 7, 62, 100
1, 28507, Note_on_c, 7, 49, 0
1, 28507, Note_on_c, 7, 47, 100
1, 28507, Note_on_c, 7, 37, 0
1, 28507, Note_on_c, 7, 35, 100
1, 28567, Note_on_c, 4, 85, 80
1, 28567, Note_on_c, 4, 81, 80
1, 28567, Note_on_c, 5, 62, 0
1, 28567, Note_on_c, 5, 61, 80
1, 28567, Note_on_c, 5, 59, 0
1, 28567, Note_on_c, 5, 57, 80
1, 28567, Note_on_c, 7, 74, 0
1, 28567, Note_on_c, 7, 73, 100
1, 28567, Note_on_c, 7, 68, 0
1, 28567, Note_on_c, 7, 69, 100
1, 28567, Note_on_c, 7, 62, 0
1, 28567, Note_on_c, 7, 64, 100
1, 28567, Note_on_c, 7, 47, 0
1, 28567, Note_on_c, 7, 45, 100
1, 28567, Note_on_c, 7, 35, 0
1, 28567, Note_on_c, 7, 33, 100
1, 28627, Note_on_c, 5, 61, 0
1, 28627, Note_on_c, 5, 57, 0
1, 28627, Note_on_c, 7, 69, 0
1, 28627, Note_on_c, 7, 64, 0
1, 28627, Note_on_c, 7, 69, 100
1, 28687, Note_on_c, 5, 62, 80
1, 28687, Note_on_c, 7, 45, 0
1, 28687, Note_on_c, 7, 47, 100
1, 28687, Note_on_c, 7, 33, 0
1, 28687, Note_on_c, 7, 35, 100
1, 28747, Note_on_c, 4, 85, 0
1, 28747, Note_on_c, 4, 83, 80
1, 28747, Note_on_c, 4, 81, 0
1, 28747, Note_on_c, 4, 80, 80
1, 28747, Note_on_c, 7, 73, 0
1, 28747, Note_on_c, 7, 71, 100
1, 28747, Note_on_c, 7, 69, 0
1, 28747, Note_on_c, 7, 68, 100
1, 28807, Note_on_c, 4, 83, 0
1, 28807, Note_on_c, 4, 81, 80
1, 28807, Note_on_c, 4, 80, 0
1, 28807, Note_on_c, 4, 78, 80
1, 28807, Note_on_c, 5, 61, 80
1, 28807, Note_on_c, 5, 62, 0
1, 28807, Note_on_c, 7, 71, 0
1, 28807, Note_on_c, 7, 69, 100
1, 28807, Note_on_c, 7, 68, 0
1, 28807, Note_on_c, 7, 66, 100
1, 28807, Note_on_c, 7, 47, 0
1, 28807, Note_on_c, 7, 49, 100
1, 28807, Note_on_c, 7, 35, 0
1, 28807, Note_on_c, 7, 37, 100
1, 28867, Note_on_c, 4, 81, 0
1, 28867, Note_on_c, 4, 80, 80
1, 28867, Note_on_c, 4, 78, 0
1, 28867, Note_on_c, 4, 77, 80
1, 28867, Note_on_c, 5, 59, 80
1, 28867, Note_on_c, 7, 69, 0
1, 28867, Note_on_c, 7, 68, 100
1, 28867, Note_on_c, 7, 66, 0
1, 28867, Note_on_c, 7, 65, 100
1, 28927, Note_on_c, 4, 80, 0
1, 28927, Note_on_c, 4, 78, 80
1, 28927, Note_on_c, 4, 77, 0
1, 28927, Note_on_c, 5, 61, 0
1, 28927, Note_on_c, 5, 61, 80
1, 28927, Note_on_c, 5, 59, 0
1, 28927, Note_on_c, 5, 57, 80
1, 28927, Note_on_c, 6, 69, 80
1, 28927, Note_on_c, 6, 57, 80
1, 28927, Note_on_c, 7, 81, 100
1, 28927, Note_on_c, 7, 68, 0
1, 28927, Note_on_c, 7, 69, 100
1, 28927, Note_on_c, 7, 65, 0
1, 28927, Note_on_c, 7, 66, 100
1, 28927, Note_on_c, 7, 49, 0
1, 28927, Note_on_c, 7, 54, 100
1, 28927, Note_on_c, 7, 37, 0
1, 28927, Note_on_c, 7, 42, 100
1, 28987, Note_on_c, 5, 61, 0
1, 28987, Note_on_c, 5, 54, 80
1, 28987, Note_on_c, 7, 69, 0
1, 28987, Note_on_c, 7, 69, 100
1, 28987, Note_on_c, 7, 66, 0
1, 28987, Note_on_c, 7, 61, 100
1, 29047, Note_on_c, 4, 78, 0
1, 29107, Note_on_c, 5, 57, 0
1, 29107, Note_on_c, 5, 67, 80
1, 29107, Note_on_c, 5, 54, 0
1, 29107, Note_on_c, 5, 64, 80
1, 29107, Note_on_c, 7, 81, 0
1, 29107, Note_on_c, 7, 79, 100
1, 29107, Note_on_c, 7, 69, 0
1, 29107, Note_on_c, 7, 69, 100
1, 29107, Note_on_c, 7, 61, 0
1, 29107, Note_on_c, 7, 61, 100
1, 29107, Note_on_c, 7, 54, 0
1, 29107, Note_on_c, 7, 52, 100
1, 29107, Note_on_c, 7, 42, 0
1, 29107, Note_on_c, 7, 40, 100
1, 29167, Note_on_c, 5, 67, 0
1, 29167, Note_on_c, 5, 66, 80
1, 29167, Note_on_c, 5, 64, 0
1, 29167, Note_on_c, 5, 62, 80
1, 29167, Note_on_c, 7, 79, 0
1, 29167, Note_on_c, 7, 78, 100
1, 29167, Note_on_c, 7, 61, 0
1, 29167, Note_on_c, 7, 62, 100
1, 29167, Note_on_c, 7, 52, 0
1, 29167, Note_on_c, 7, 50, 100
1, 29167, Note_on_c, 7, 40, 0
1, 29167, Note_on_c, 7, 38, 100
1, 29227, Note_on_c, 5, 66, 0
1, 29227, Note_on_c, 5, 64, 80
1, 29227, Note_on_c, 5, 62, 0
1, 29227, Note_on_c, 5, 61, 80
1, 29227, Note_on_c, 7, 78, 0
1, 29227, Note_on_c, 7, 76, 100
1, 29227, Note_on_c, 7, 69, 0
1, 29227, Note_on_c, 7, 69, 100
1, 29227, Note_on_c, 7, 62, 0
1, 29227, Note_on_c, 7, 64, 100
1, 29227, Note_on_c, 7, 50, 0
1, 29227, Note_on_c, 7, 49, 100
1, 29227, Note_on_c, 7, 38, 0
1, 29227, Note_on_c, 7, 37, 100
1, 29287, Note_on_c, 5, 64, 0
1, 29287, Note_on_c, 5, 62, 80
1, 29287, Note_on_c, 5, 61, 0
1, 29287, Note_on_c, 5, 59, 80
1, 29287, Note_on_c, 6, 69, 0
1, 29287, Note_on_c, 6, 62, 80
1, 29287, Note_on_c, 6, 57, 0
1, 29287, Note_on_c, 6, 50, 80
1, 29287, Note_on_c, 7, 76, 0
1, 29287, Note_on_c, 7, 74, 100
1, 29287, Note_on_c, 7, 69, 0
1, 29287, Note_on_c, 7, 69, 100
1, 29287, Note_on_c, 7, 64, 0
1, 29287, Note_on_c, 7, 66, 100
1, 29287, Note_on_c, 7, 49, 0
1, 29287, Note_on_c, 7, 47, 100
1, 29287, Note_on_c, 7, 37, 0
1, 29287, Note_on_c, 7, 35, 100
1, 29347, Note_on_c, 7, 69, 0
1, 29347, Note_on_c, 7, 67, 100
1, 29347, Note_on_c, 7, 66, 0
1, 29377, Note_on_c, 5, 62, 0
1, 29377, Note_on_c, 5, 67, 80
1, 29377, Note_on_c, 7, 74, 0
1, 29377, Note_on_c, 7, 79, 100
1, 29407, Note_on_c, 4, 74, 80
1, 29407, Note_on_c, 4, 70, 80
1, 29407, Note_on_c, 5, 67, 0
1, 29407, Note_on_c, 5, 67, 80
1, 29407, Note_on_c, 5, 59, 0
1, 29407, Note_on_c, 5, 58, 80
1, 29407, Note_on_c, 7, 79, 0
1, 29407, Note_on_c, 7, 79, 100
1, 29407, Note_on_c, 7, 74, 100
1, 29407, Note_on_c, 7, 67, 0
1, 29407, Note_on_c, 7, 62, 100
1, 29407, Note_on_c, 7, 47, 0
1, 29407, Note_on_c, 7, 46, 100
1, 29407, Note_on_c, 7, 35, 0
1, 29407, Note_on_c, 7, 34, 100
1, 29467, Note_on_c, 7, 74, 0
1, 29467, Note_on_c, 7, 58, 100
1, 29527, Note_on_c, 4, 74, 0
1, 29527, Note_on_c, 4, 75, 80
1, 29527, Note_on_c, 4, 70, 0
1, 29527, Note_on_c, 4, 72, 80
1, 29527, Note_on_c, 5, 58, 0
1, 29527, Note_on_c, 5, 57, 80
1, 29527, Note_on_c, 6, 62, 0
1, 29527, Note_on_c, 6, 57, 80
1, 29527, Note_on_c, 6, 50, 0
1, 29527, Note_on_c, 7, 62, 0
1, 29527, Note_on_c, 7, 63, 100
1, 29527, Note_on_c, 7, 58, 0
1, 29527, Note_on_c, 7, 60, 100
1, 29527, Note_on_c, 7, 46, 0
1, 29527, Note_on_c, 7, 45, 100
1, 29527, Note_on_c, 7, 34, 0
1, 29527, Note_on_c, 7, 33, 100
1, 29587, Note_on_c, 5, 67, 0
1, 29587, Note_on_c, 5, 66, 80
1, 29587, Note_on_c, 7, 79, 0
1, 29587, Note_on_c, 7, 78, 100
1, 29587, Note_on_c, 7, 63, 0
1, 29587, Note_on_c, 7, 72, 100
1, 29587, Note_on_c, 7, 60, 0
1, 29587, Note_on_c, 7, 57, 100
1, 29647, Note_on_c, 4, 75, 0
1, 29647, Note_on_c, 4, 76, 80
1, 29647, Note_on_c, 4, 72, 0
1, 29647, Note_on_c, 4, 71, 80
1, 29647, Note_on_c, 5, 66, 0
1, 29647, Note_on_c, 5, 64, 80
1, 29647, Note_on_c, 5, 57, 0
1, 29647, Note_on_c, 5, 55, 80
1, 29647, Note_on_c, 6, 57, 0
1, 29647, Note_on_c, 7, 78, 0
1, 29647, Note_on_c, 7, 76, 100
1, 29647, Note_on_c, 7, 72, 0
1, 29647, Note_on_c, 7, 71, 100
1, 29647, Note_on_c, 7, 57, 0
1, 29647, Note_on_c, 7, 55, 100
1, 29647, Note_on_c, 7, 45, 0
1, 29647, Note_on_c, 7, 43, 100
1, 29647, Note_on_c, 7, 33, 0
1, 29647, Note_on_c, 7, 31, 100
1, 29677, Note_on_c, 4, 76, 0
1, 29677, Note_on_c, 4, 83, 80
1, 29677, Note_on_c, 7, 76, 0
1, 29677, Note_on_c, 7, 83, 100
1, 29707, Note_on_c, 4, 83, 0
1, 29707, Note_on_c, 4, 79, 80
1, 29707, Note_on_c, 7, 83, 0
1, 29707, Note_on_c, 7, 79, 100
1, 29707, Note_on_c, 7, 71, 0
1, 29707, Note_on_c, 7, 64, 100
1, 29707, Note_on_c, 7, 55, 0
1, 29707, Note_on_c, 7, 59, 100
1, 29737, Note_on_c, 4, 79, 0
1, 29737, Note_on_c, 4, 76, 80
1, 29737, Note_on_c, 7, 79, 0
1, 29737, Note_on_c, 7, 76, 100
1, 29737, Note_on_c, 7, 64, 0
1, 29737, Note_on_c, 7, 67, 100
1, 29767, Note_on_c, 4, 76, 0
1, 29767, Note_on_c, 4, 74, 80
1, 29767, Note_on_c, 4, 71, 0
1, 29767, Note_on_c, 4, 69, 80
1, 29767, Note_on_c, 5, 64, 0
1, 29767, Note_on_c, 5, 57, 80
1, 29767, Note_on_c, 5, 55, 0
1, 29767, Note_on_c, 6, 66, 80
1, 29767, Note_on_c, 6, 50, 80
1, 29767, Note_on_c, 7, 76, 0
1, 29767, Note_on_c, 7, 74, 100
1, 29767, Note_on_c, 7, 67, 0
1, 29767, Note_on_c, 7, 66, 100
1, 29767, Note_on_c, 7, 59, 0
1, 29767, Note_on_c, 7, 57, 100
1, 29767, Note_on_c, 7, 43, 0
1, 29767, Note_on_c, 7, 45, 100
1, 29767, Note_on_c, 7, 31, 0
1, 29767, Note_on_c, 7, 33, 100
1, 29827, Note_on_c, 7, 66, 0
1, 29827, Note_on_c, 7, 69, 100
1, 29887, Note_on_c, 4, 74, 0
1, 29887, Note_on_c, 4, 78, 80
1, 29887, Note_on_c, 4, 69, 0
1, 29887, Note_on_c, 4, 73, 80
1, 29887, Note_on_c, 5, 61, 80
1, 29887, Note_on_c, 5, 57, 0
1, 29887, Note_on_c, 5, 45, 80
1, 29887, Note_on_c, 6, 66, 0
1, 29887, Note_on_c, 6, 64, 80
1, 29887, Note_on_c, 6, 50, 0
1, 29887, Note_on_c, 6, 57, 80
1, 29887, Note_on_c, 7, 74, 0
1, 29887, Note_on_c, 7, 78, 100
1, 29887, Note_on_c, 7, 69, 0
1, 29887, Note_on_c, 7, 67, 100
1, 29887, Note_on_c, 7, 57, 0
1, 29887, Note_on_c, 7, 61, 100
1, 29887, Note_on_c, 7, 45, 0
1, 29887, Note_on_c, 7, 45, 100
1, 29887, Note_on_c, 7, 33, 0
1, 29887, Note_on_c, 7, 33, 100
1, 29917, Note_on_c, 4, 78, 0
1, 29917, Note_on_c, 4, 76, 80
1, 29917, Note_on_c, 7, 78, 0
1, 29917, Note_on_c, 7, 76, 100
1, 29947, Note_on_c, 7, 67, 0
1, 29947, Note_on_c, 7, 69, 100
1, 29977, Note_on_c, 4, 76, 0
1, 29977, Note_on_c, 4, 74, 80
1, 29977, Note_on_c, 7, 76, 0
1, 29977, Note_on_c, 7, 74, 100
1, 30007, Note_on_c, 4, 74, 0
1, 30007, Note_on_c, 4, 74, 80
1, 30007, Note_on_c, 4, 73, 0
1, 30007, Note_on_c, 5, 61, 0
1, 30007, Note_on_c, 5, 62, 80
1, 30007, Note_on_c, 5, 45, 0
1, 30007, Note_on_c, 5, 50, 80
1, 30007, Note_on_c, 6, 64, 0
1, 30007, Note_on_c, 6, 62, 80
1, 30007, Note_on_c, 6, 57, 0
1, 30007, Note_on_c, 6, 54, 80
1, 30007, Note_on_c, 7, 74, 0
1, 30007, Note_on_c, 7, 66, 100
1, 30007, Note_on_c, 7, 61, 0
1, 30007, Note_on_c, 7, 62, 100
1, 30007, Note_on_c, 7, 45, 0
1, 30007, Note_on_c, 7, 50, 100
1, 30007, Note_on_c, 7, 33, 0
1, 30007, Note_on_c, 7, 38, 100
1, 30067, Note_on_c, 7, 69, 0
1, 30067, Note_on_c, 7, 69, 100
1, 30067, Note_on_c, 7, 66, 0
1, 30067, Note_on_c, 7, 66, 100
1, 30067, Note_on_c, 7, 62, 0
1, 30067, Note_on_c, 7, 62, 100
1, 30127, Note_on_c, 4, 74, 0
1, 30127, Note_on_c, 5, 62, 0
1, 30127, Note_on_c, 5, 50, 0
1, 30127, Note_on_c, 6, 62, 0
1, 30127, Note_on_c, 6, 54, 0
1, 30127, Note_on_c, 7, 69, 0
1, 30127, Note_on_c, 7, 69, 100
1, 30127, Note_on_c, 7, 66, 0
1, 30127, Note_on_c, 7, 66, 100
1, 30127, Note_on_c, 7, 62, 0
1, 30127, Note_on_c, 7, 62, 100
1, 30127, Note_on_c, 7, 50, 0
1, 30127, Note_on_c, 7, 38, 0
1, 30187, Note_on_c, 7, 69, 0
1, 30187, Note_on_c, 7, 69, 100
1, 30187, Note_on_c, 7, 66, 0
1, 30187, Note_on_c, 7, 66, 100
1, 30187, Note_on_c, 7, 62, 0
1, 30187, Note_on_c, 7, 62, 100
1, 30247, Note_on_c, 3, 69, 127
1, 30247, Note_on_c, 7, 69, 0
1, 30247, Note_on_c, 7, 69, 100
1, 30247, Note_on_c, 7, 66, 0
1, 30247, Note_on_c, 7, 66, 100
1, 30247, Note_on_c, 7, 62, 0
1, 30247, Note_on_c, 7, 62, 100
1, 30277, Note_on_c, 3, 69, 0
1, 30277, Note_on_c, 3, 73, 127
1, 30307, Note_on_c, 3, 73, 0
1, 30307, Note_on_c, 3, 74, 127
1, 30307, Note_on_c, 7, 69, 0
1, 30307, Note_on_c, 7, 69, 100
1, 30307, Note_on_c, 7, 66, 0
1, 30307, Note_on_c, 7, 66, 100
1, 30307, Note_on_c, 7, 62, 0
1, 30307, Note_on_c, 7, 62, 100
1, 30337, Note_on_c, 3, 74, 0
1, 30337, Note_on_c, 3, 78, 127
1, 30367, Note_on_c, 3, 78, 0
1, 30367, Note_on_c, 3, 81, 127
1, 30367, Note_on_c, 7, 69, 0
1, 30367, Note_on_c, 7, 66, 0
1, 30367, Note_on_c, 7, 62, 0
1, 30367, Note_on_c, 7, 61, 100
1, 30427, Note_on_c, 7, 69, 100
1, 30427, Note_on_c, 7, 67, 100
1, 30427, Note_on_c, 7, 64, 100
1, 30487, Note_on_c, 7, 69, 0
1, 30487, Note_on_c, 7, 69, 100
1, 30487, Note_on_c, 7, 67, 0
1, 30487, Note_on_c, 7, 67, 100
1, 30487, Note_on_c, 7, 64, 0
1, 30487, Note_on_c, 7, 64, 100
1, 30517, Note_on_c, 3, 81, 0
1, 30517, Note_on_c, 3, 80, 127
1, 30547, Note_on_c, 3, 80, 0
1, 30547, Note_on_c, 3, 79, 127
1, 30547, Note_on_c, 7, 69, 0
1, 30547, Note_on_c, 7, 69, 100
1, 30547, Note_on_c, 7, 67, 0
1, 30547, Note_on_c, 7, 67, 100
1, 30547, Note_on_c, 7, 64, 0
1, 30547, Note_on_c, 7, 64, 100
1, 30577, Note_on_c, 3, 79, 0
1, 30577, Note_on_c, 3, 76, 127
1, 30607, Note_on_c, 3, 76, 0
1, 30607, Note_on_c, 3, 79, 127
1, 30607, Note_on_c, 7, 69, 0
1, 30607, Note_on_c, 7, 69, 100
1, 30607, Note_on_c, 7, 67, 0
1, 30607, Note_on_c, 7, 66, 100
1, 30607, Note_on_c, 7, 64, 0
1, 30607, Note_on_c, 7, 62, 100
1, 30607, Note_on_c, 7, 61, 0
1, 30637, Note_on_c, 3, 79, 0
1, 30637, Note_on_c, 3, 78, 127
1, 30667, Note_on_c, 3, 78, 0
1, 30667, Note_on_c, 3, 78, 127
1, 30667, Note_on_c, 7, 69, 0
1, 30667, Note_on_c, 7, 69, 100
1, 30667, Note_on_c, 7, 66, 0
1, 30667, Note_on_c, 7, 66, 100
1, 30697, Note_on_c, 3, 78, 0
1, 30697, Note_on_c, 3, 74, 127
1, 30727, Note_on_c, 3, 74, 0
1, 30727, Note_on_c, 3, 81, 127
1, 30727, Note_on_c, 7, 69, 0
1, 30727, Note_on_c, 7, 66, 0
1, 30727, Note_on_c, 7, 62, 0
1, 30727, Note_on_c, 7, 61, 100
1, 30787, Note_on_c, 7, 69, 100
1, 30787, Note_on_c, 7, 67, 100
1, 30787, Note_on_c, 7, 64, 100
1, 30847, Note_on_c, 7, 69, 0
1, 30847, Note_on_c, 7, 69, 100
1, 30847, Note_on_c, 7, 67, 0
1, 30847, Note_on_c, 7, 67, 100
1, 30847, Note_on_c, 7, 64, 0
1, 30847, Note_on_c, 7, 64, 100
1, 30877, Note_on_c, 3, 81, 0
1, 30877, Note_on_c, 3, 80, 127
1, 30907, Note_on_c, 3, 80, 0
1, 30907, Note_on_c, 3, 79, 127
1, 30907, Note_on_c, 7, 69, 0
1, 30907, Note_on_c, 7, 69, 100
1, 30907, Note_on_c, 7, 67, 0
1, 30907, Note_on_c, 7, 67, 100
1, 30907, Note_on_c, 7, 64, 0
1, 30907, Note_on_c, 7, 64, 100
1, 30937, Note_on_c, 3, 79, 0
1, 30937, Note_on_c, 3, 76, 127
1, 30967, Note_on_c, 3, 76, 0
1, 30967, Note_on_c, 3, 79, 127
1, 30967, Note_on_c, 7, 69, 0
1, 30967, Note_on_c, 7, 69, 100
1, 30967, Note_on_c, 7, 67, 0
1, 30967, Note_on_c, 7, 66, 100
1, 30967, Note_on_c, 7, 64, 0
1, 30967, Note_on_c, 7, 62, 100
1, 30967, Note_on_c, 7, 61, 0
1, 30997, Note_on_c, 3, 79, 0
1, 30997, Note_on_c, 3, 78, 127
1, 31027, Note_on_c, 3, 78, 0
1, 31027, Note_on_c, 3, 78, 127
1, 31027, Note_on_c, 7, 69, 0
1, 31027, Note_on_c, 7, 69, 100
1, 31027, Note_on_c, 7, 66, 0
1, 31027, Note_on_c, 7, 66, 100
1, 31057, Note_on_c, 3, 78, 0
1, 31057, Note_on_c, 3, 74, 127
1, 31087, Note_on_c, 3, 74, 0
1, 31087, Note_on_c, 3, 71, 127
1, 31087, Note_on_c, 7, 69, 0
1, 31087, Note_on_c, 7, 66, 0
1, 31087, Note_on_c, 7, 62, 0
1, 31087, Note_on_c, 7, 55, 100
1, 31102, Note_on_c, 3, 71, 0
1, 31102, Note_on_c, 3, 75, 127
1, 31117, Note_on_c, 3, 75, 0
1, 31117, Note_on_c, 3, 76, 127
1, 31132, Note_on_c, 3, 76, 0
1, 31132, Note_on_c, 3, 79, 127
1, 31147, Note_on_c, 3, 79, 0
1, 31147, Note_on_c, 3, 82, 127
1, 31147, Note_on_c, 7, 67, 100
1, 31147, Note_on_c, 7, 64, 100
1, 31147, Note_on_c, 7, 59, 100
1, 31162, Note_on_c, 3, 82, 0
1, 31162, Note_on_c, 3, 83, 127
1, 31177, Note_on_c, 3, 83, 0
1, 31177, Note_on_c, 3, 79, 127
1, 31192, Note_on_c, 3, 79, 0
1, 31192, Note_on_c, 3, 76, 127
1, 31207, Note_on_c, 3, 76, 0
1, 31207, Note_on_c, 3, 74, 127
1, 31207, Note_on_c, 7, 67, 0
1, 31207, Note_on_c, 7, 66, 100
1, 31207, Note_on_c, 7, 64, 0
1, 31207, Note_on_c, 7, 62, 100
1, 31207, Note_on_c, 7, 59, 0
1, 31207, Note_on_c, 7, 57, 100
1, 31207, Note_on_c, 7, 55, 0
1, 31267, Note_on_c, 7, 66, 0
1, 31267, Note_on_c, 7, 66, 100
1, 31267, Note_on_c, 7, 62, 0
1, 31267, Note_on_c, 7, 62, 100
1, 31327, Note_on_c, 3, 74, 0
1, 31327, Note_on_c, 3, 78, 127
1, 31327, Note_on_c, 7, 66, 0
1, 31327, Note_on_c, 7, 61, 100
1, 31327, Note_on_c, 7, 62, 0
1, 31327, Note_on_c, 7, 55, 100
1, 31327, Note_on_c, 7, 45, 100
1, 31357, Note_on_c, 3, 78, 0
1, 31357, Note_on_c, 3, 76, 127
1, 31387, Note_on_c, 7, 61, 0
1, 31387, Note_on_c, 7, 61, 100
1, 31387, Note_on_c, 7, 57, 0
1, 31387, Note_on_c, 7, 57, 100
1, 31387, Note_on_c, 7, 55, 0
1, 31387, Note_on_c, 7, 55, 100
1, 31417, Note_on_c, 3, 76, 0
1, 31417, Note_on_c, 3, 74, 127
1, 31447, Note_on_c, 3, 74, 0
1, 31447, Note_on_c, 3, 74, 127
1, 31447, Note_on_c, 7, 61, 0
1, 31447, Note_on_c, 7, 62, 100
1, 31447, Note_on_c, 7, 57, 0
1, 31447, Note_on_c, 7, 57, 100
1, 31447, Note_on_c, 7, 55, 0
1, 31447, Note_on_c, 7, 54, 100
1, 31447, Note_on_c, 7, 45, 0
1, 31447, Note_on_c, 7, 50, 100
1, 31507, Note_on_c, 7, 62, 0
1, 31507, Note_on_c, 7, 62, 100
1, 31507, Note_on_c, 7, 57, 0
1, 31507, Note_on_c, 7, 57, 100
1, 31507, Note_on_c, 7, 54, 0
1, 31507, Note_on_c, 7, 54, 100
1, 31567, Note_on_c, 3, 74, 0
1, 31567, Note_on_c, 7, 62, 0
1, 31567, Note_on_c, 7, 62, 100
1, 31567, Note_on_c, 7, 57, 0
1, 31567, Note_on_c, 7, 57, 100
1, 31567, Note_on_c, 7, 54, 0
1, 31567, Note_on_c, 7, 54, 100
1, 31567, Note_on_c, 7, 50, 0
1, 31627, Note_on_c, 7, 62, 0
1, 31627, Note_on_c, 7, 62, 100
1, 31627, Note_on_c, 7, 57, 0
1, 31627, Note_on_c, 7, 57, 100
1, 31627, Note_on_c, 7, 54, 0
1, 31627, Note_on_c, 7, 54, 100
1, 31687, Note_on_c, 3, 50, 127
1, 31687, Note_on_c, 7, 62, 0
1, 31687, Note_on_c, 7, 62, 100
1, 31687, Note_on_c, 7, 57, 0
1, 31687, Note_on_c, 7, 57, 100
1, 31687, Note_on_c, 7, 54, 0
1, 31687, Note_on_c, 7, 54, 100
1, 31707, Note_on_c, 3, 50, 0
1, 31707, Note_on_c, 3, 54, 127
1, 31727, Note_on_c, 3, 54, 0
1, 31727, Note_on_c, 3, 57, 127
1, 31747, Note_on_c, 3, 57, 0
1, 31747, Note_on_c, 3, 62, 127
1, 31747, Note_on_c, 7, 62, 0
1, 31747, Note_on_c, 7, 62, 100
1, 31747, Note_on_c, 7, 57, 0
1, 31747, Note_on_c, 7, 57, 100
1, 31747, Note_on_c, 7, 54, 0
1, 31747, Note_on_c, 7, 54, 100
1, 31767, Note_on_c, 3, 62, 0
1, 31767, Note_on_c, 3, 66, 127
1, 31787, Note_on_c, 3, 66, 0
1, 31787, Note_on_c, 3, 69, 127
1, 31807, Note_on_c, 3, 69, 0
1, 31807, Note_on_c, 3, 69, 127
1, 31807, Note_on_c, 7, 62, 0
1, 31807, Note_on_c, 7, 57, 0
1, 31807, Note_on_c, 7, 54, 0
1, 31807, Note_on_c, 7, 49, 100
1, 31807, Note_on_c, 7, 37, 100
1, 31867, Note_on_c, 7, 64, 100
1, 31867, Note_on_c, 7, 57, 100
1, 31867, Note_on_c, 7, 55, 100
1, 31927, Note_on_c, 7, 64, 0
1, 31927, Note_on_c, 7, 64, 100
1, 31927, Note_on_c, 7, 57, 0
1, 31927, Note_on_c, 7, 57, 100
1, 31927, Note_on_c, 7, 55, 0
1, 31927, Note_on_c, 7, 55, 100
1, 31957, Note_on_c, 3, 69, 0
1, 31957, Note_on_c, 3, 68, 127
1, 31987, Note_on_c, 3, 68, 0
1, 31987, Note_on_c, 3, 67, 127
1, 31987, Note_on_c, 7, 64, 0
1, 31987, Note_on_c, 7, 64, 100
1, 31987, Note_on_c, 7, 57, 0
1, 31987, Note_on_c, 7, 57, 100
1, 31987, Note_on_c, 7, 55, 0
1, 31987, Note_on_c, 7, 55, 100
1, 32017, Note_on_c, 3, 67, 0
1, 32017, Note_on_c, 3, 64, 127
1, 32047, Note_on_c, 3, 64, 0
1, 32047, Note_on_c, 3, 67, 127
1, 32047, Note_on_c, 7, 64, 0
1, 32047, Note_on_c, 7, 62, 100
1, 32047, Note_on_c, 7, 57, 0
1, 32047, Note_on_c, 7, 57, 100
1, 32047, Note_on_c, 7, 55, 0
1, 32047, Note_on_c, 7, 54, 100
1, 32047, Note_on_c, 7, 49, 0
1, 32047, Note_on_c, 7, 50, 100
1, 32047, Note_on_c, 7, 37, 0
1, 32047, Note_on_c, 7, 38, 100
1, 32077, Note_on_c, 3, 67, 0
1, 32077, Note_on_c, 3, 66, 127
1, 32107, Note_on_c, 3, 66, 0
1, 32107, Note_on_c, 3, 66, 127
1, 32107, Note_on_c, 7, 62, 0
1, 32107, Note_on_c, 7, 62, 100
1, 32107, Note_on_c, 7, 57, 0
1, 32107, Note_on_c, 7, 57, 100
1, 32107, Note_on_c, 7, 54, 0
1, 32107, Note_on_c, 7, 54, 100
1, 32137, Note_on_c, 3, 66, 0
1, 32137, Note_on_c, 3, 62, 127
1, 32167, Note_on_c, 3, 62, 0
1, 32167, Note_on_c, 3, 57, 127
1, 32167, Note_on_c, 7, 62, 0
1, 32167, Note_on_c, 7, 57, 0
1, 32167, Note_on_c, 7, 54, 0
1, 32167, Note_on_c, 7, 50, 0
1, 32167, Note_on_c, 7, 49, 100
1, 32167, Note_on_c, 7, 38, 0
1, 32167, Note_on_c, 7, 37, 100
1, 32227, Note_on_c, 7, 79, 100
1, 32227, Note_on_c, 7, 76, 100
1, 32227, Note_on_c, 7, 69, 100
1, 32287, Note_on_c, 7, 79, 0
1, 32287, Note_on_c, 7, 79, 100
1, 32287, Note_on_c, 7, 76, 0
1, 32287, Note_on_c, 7, 76, 100
1, 32287, Note_on_c, 7, 69, 0
1, 32287, Note_on_c, 7, 69, 100
1, 32317, Note_on_c, 3, 57, 0
1, 32317, Note_on_c, 3, 56, 127
1, 32347, Note_on_c, 3, 56, 0
1, 32347, Note_on_c, 3, 55, 127
1, 32347, Note_on_c, 7, 79, 0
1, 32347, Note_on_c, 7, 79, 100
1, 32347, Note_on_c, 7, 76, 0
1, 32347, Note_on_c, 7, 76, 100
1, 32347, Note_on_c, 7, 69, 0
1, 32347, Note_on_c, 7, 69, 100
1, 32377, Note_on_c, 3, 55, 0
1, 32377, Note_on_c, 3, 52, 127
1, 32407, Note_on_c, 3, 52, 0
1, 32407, Note_on_c, 3, 55, 127
1, 32407, Note_on_c, 7, 79, 0
1, 32407, Note_on_c, 7, 78, 100
1, 32407, Note_on_c, 7, 76, 0
1, 32407, Note_on_c, 7, 74, 100
1, 32407, Note_on_c, 7, 69, 0
1, 32407, Note_on_c, 7, 69, 100
1, 32407, Note_on_c, 7, 49, 0
1, 32407, Note_on_c, 7, 50, 100
1, 32407, Note_on_c, 7, 37, 0
1, 32407, Note_on_c, 7, 38, 100
1, 32437, Note_on_c, 3, 55, 0
1, 32437, Note_on_c, 3, 54, 127
1, 32467, Note_on_c, 3, 54, 0
1, 32467, Note_on_c, 3, 54, 127
1, 32467, Note_on_c, 7, 78, 0
1, 32467, Note_on_c, 7, 78, 100
1, 32467, Note_on_c, 7, 74, 0
1, 32467, Note_on_c, 7, 74, 100
1, 32467, Note_on_c, 7, 69, 0
1, 32467, Note_on_c, 7, 69, 100
1, 32497, Note_on_c, 3, 54, 0
1, 32497, Note_on_c, 3, 50, 127
1, 32527, Note_on_c, 3, 50, 0
1, 32527, Note_on_c, 3, 47, 127
1, 32527, Note_on_c, 7, 78, 0
1, 32527, Note_on_c, 7, 76, 100
1, 32527, Note_on_c, 7, 74, 0
1, 32527, Note_on_c, 7, 71, 100
1, 32527, Note_on_c, 7, 69, 0
1, 32527, Note_on_c, 7, 67, 100
1, 32527, Note_on_c, 7, 50, 0
1, 32527, Note_on_c, 7, 43, 100
1, 32527, Note_on_c, 7, 38, 0
1, 32527, Note_on_c, 7, 31, 100
1, 32587, Note_on_c, 3, 47, 0
1, 32587, Note_on_c, 3, 83, 127
1, 32647, Note_on_c, 3, 83, 0
1, 32647, Note_on_c, 3, 81, 127
1, 32647, Note_on_c, 7, 76, 0
1, 32647, Note_on_c, 7, 71, 0
1, 32647, Note_on_c, 7, 67, 0
1, 32647, Note_on_c, 7, 43, 0
1, 32647, Note_on_c, 7, 31, 0
1, 32707, Note_on_c, 3, 81, 0
1, 32707, Note_on_c, 3, 79, 127
1, 32707, Note_on_c, 7, 67, 100
1, 32707, Note_on_c, 7, 64, 100
1, 32767, Note_on_c, 3, 79, 0
1, 32767, Note_on_c, 3, 78, 127
1, 32767, Note_on_c, 7, 67, 0
1, 32767, Note_on_c, 7, 69, 100
1, 32767, Note_on_c, 7, 64, 0
1, 32767, Note_on_c, 7, 66, 100
1, 32827, Note_on_c, 3, 78, 0
1, 32827, Note_on_c, 3, 76, 127
1, 32827, Note_on_c, 7, 69, 0
1, 32827, Note_on_c, 7, 71, 100
1, 32827, Note_on_c, 7, 66, 0
1, 32827, Note_on_c, 7, 67, 100
1, 32887, Note_on_c, 3, 76, 0
1, 32887, Note_on_c, 3, 74, 127
1, 32887, Note_on_c, 7, 71, 0
1, 32887, Note_on_c, 7, 67, 0
1, 32887, Note_on_c, 7, 45, 100
1, 32887, Note_on_c, 7, 33, 100
1, 32907, Note_on_c, 3, 74, 0
1, 32907, Note_on_c, 3, 69, 127
1, 32927, Note_on_c, 3, 69, 0
1, 32927, Note_on_c, 3, 71, 127
1, 32947, Note_on_c, 3, 71, 0
1, 32947, Note_on_c, 3, 72, 127
1, 32947, Note_on_c, 7, 66, 100
1, 32947, Note_on_c, 7, 62, 100
1, 32947, Note_on_c, 7, 57, 100
1, 32967, Note_on_c, 3, 72, 0
1, 32967, Note_on_c, 3, 73, 127
1, 32987, Note_on_c, 3, 73, 0
1, 32987, Note_on_c, 3, 74, 127
1, 33007, Note_on_c, 3, 74, 0
1, 33007, Note_on_c, 3, 75, 127
1, 33007, Note_on_c, 7, 66, 0
1, 33007, Note_on_c, 7, 66, 100
1, 33007, Note_on_c, 7, 62, 0
1, 33007, Note_on_c, 7, 62, 100
1, 33007, Note_on_c, 7, 57, 0
1, 33007, Note_on_c, 7, 57, 100
1, 33007, Note_on_c, 7, 45, 0
1, 33007, Note_on_c, 7, 33, 0
1, 33027, Note_on_c, 3, 75, 0
1, 33027, Note_on_c, 3, 76, 127
1, 33047, Note_on_c, 3, 76, 0
1, 33047, Note_on_c, 3, 77, 127
1, 33067, Note_on_c, 3, 77, 0
1, 33067, Note_on_c, 3, 78, 127
1, 33067, Note_on_c, 7, 66, 0
1, 33067, Note_on_c, 7, 66, 100
1, 33067, Note_on_c, 7, 62, 0
1, 33067, Note_on_c, 7, 62, 100
1, 33067, Note_on_c, 7, 57, 0
1, 33067, Note_on_c, 7, 57, 100
1, 33087, Note_on_c, 3, 78, 0
1, 33087, Note_on_c, 3, 79, 127
1, 33107, Note_on_c, 3, 79, 0
1, 33107, Note_on_c, 3, 80, 127
1, 33127, Note_on_c, 3, 80, 0
1, 33127, Note_on_c, 3, 81, 127
1, 33127, Note_on_c, 7, 66, 0
1, 33127, Note_on_c, 7, 66, 100
1, 33127, Note_on_c, 7, 62, 0
1, 33127, Note_on_c, 7, 62, 100
1, 33127, Note_on_c, 7, 57, 0
1, 33127, Note_on_c, 7, 57, 100
1, 33157, Note_on_c, 3, 81, 0
1, 33157, Note_on_c, 3, 80, 127
1, 33187, Note_on_c, 3, 80, 0
1, 33187, Note_on_c, 3, 79, 127
1, 33187, Note_on_c, 7, 66, 0
1, 33187, Note_on_c, 7, 66, 100
1, 33187, Note_on_c, 7, 62, 0
1, 33187, Note_on_c, 7, 62, 100
1, 33187, Note_on_c, 7, 57, 0
1, 33187, Note_on_c, 7, 57, 100
1, 33217, Note_on_c, 3, 79, 0
1, 33217, Note_on_c, 3, 78, 127
1, 33247, Note_on_c, 3, 78, 0
1, 33247, Note_on_c, 3, 76, 127
1, 33247, Note_on_c, 7, 66, 0
1, 33247, Note_on_c, 7, 64, 100
1, 33247, Note_on_c, 7, 62, 0
1, 33247, Note_on_c, 7, 62, 100
1, 33247, Note_on_c, 7, 57, 0
1, 33247, Note_on_c, 7, 57, 100
1, 33247, Note_on_c, 7, 45, 100
1, 33247, Note_on_c, 7, 33, 100
1, 33255, Note_on_c, 3, 76, 0
1, 33255, Note_on_c, 3, 78, 127
1, 33262, Note_on_c, 3, 78, 0
1, 33262, Note_on_c, 3, 76, 127
1, 33270, Note_on_c, 3, 76, 0
1, 33270, Note_on_c, 3, 78, 127
1, 33277, Note_on_c, 3, 78, 0
1, 33277, Note_on_c, 3, 76, 127
1, 33277, Note_on_c, 7, 64, 0
1, 33277, Note_on_c, 7, 64, 100
1, 33277, Note_on_c, 7, 62, 0
1, 33277, Note_on_c, 7, 62, 100
1, 33277, Note_on_c, 7, 57, 0
1, 33277, Note_on_c, 7, 57, 100
1, 33285, Note_on_c, 3, 76, 0
1, 33285, Note_on_c, 3, 78, 127
1, 33292, Note_on_c, 3, 78, 0
1, 33292, Note_on_c, 3, 76, 127
1, 33300, Note_on_c, 3, 76, 0
1, 33300, Note_on_c, 3, 78, 127
1, 33307, Note_on_c, 3, 78, 0
1, 33307, Note_on_c, 3, 76, 127
1, 33307, Note_on_c, 7, 64, 0
1, 33307, Note_on_c, 7, 64, 100
1, 33307, Note_on_c, 7, 62, 0
1, 33307, Note_on_c, 7, 62, 100
1, 33307, Note_on_c, 7, 57, 0
1, 33307, Note_on_c, 7, 57, 100
1, 33315, Note_on_c, 3, 76, 0
1, 33315, Note_on_c, 3, 78, 127
1, 33322, Note_on_c, 3, 78, 0
1, 33322, Note_on_c, 3, 76, 127
1, 33330, Note_on_c, 3, 76, 0
1, 33330, Note_on_c, 3, 78, 127
1, 33337, Note_on_c, 3, 78, 0
1, 33337, Note_on_c, 3, 76, 127
1, 33337, Note_on_c, 7, 64, 0
1, 33337, Note_on_c, 7, 64, 100
1, 33337, Note_on_c, 7, 62, 0
1, 33337, Note_on_c, 7, 62, 100
1, 33337, Note_on_c, 7, 57, 0
1, 33337, Note_on_c, 7, 57, 100
1, 33345, Note_on_c, 3, 76, 0
1, 33345, Note_on_c, 3, 78, 127
1, 33352, Note_on_c, 3, 78, 0
1, 33352, Note_on_c, 3, 76, 127
1, 33360, Note_on_c, 3, 76, 0
1, 33360, Note_on_c, 3, 78, 127
1, 33367, Note_on_c, 3, 78, 0
1, 33367, Note_on_c, 3, 76, 127
1, 33367, Note_on_c, 7, 64, 0
1, 33367, Note_on_c, 7, 64, 100
1, 33367, Note_on_c, 7, 62, 0
1, 33367, Note_on_c, 7, 61, 100
1, 33367, Note_on_c, 7, 57, 0
1, 33367, Note_on_c, 7, 57, 100
1, 33367, Note_on_c, 7, 45, 0
1, 33367, Note_on_c, 7, 45, 100
1, 33367, Note_on_c, 7, 33, 0
1, 33367, Note_on_c, 7, 33, 100
1, 33375, Note_on_c, 3, 76, 0
1, 33375, Note_on_c, 3, 78, 127
1, 33382, Note_on_c, 3, 78, 0
1, 33382, Note_on_c, 3, 76, 127
1, 33390, Note_on_c, 3, 76, 0
1, 33390, Note_on_c, 3, 78, 127
1, 33397, Note_on_c, 3, 78, 0
1, 33397, Note_on_c, 3, 76, 127
1, 33397, Note_on_c, 7, 64, 0
1, 33397, Note_on_c, 7, 64, 100
1, 33397, Note_on_c, 7, 61, 0
1, 33397, Note_on_c, 7, 61, 100
1, 33397, Note_on_c, 7, 57, 0
1, 33397, Note_on_c, 7, 57, 100
1, 33405, Note_on_c, 3, 76, 0
1, 33405, Note_on_c, 3, 78, 127
1, 33412, Note_on_c, 3, 78, 0
1, 33412, Note_on_c, 3, 76, 127
1, 33420, Note_on_c, 3, 76, 0
1, 33420, Note_on_c, 3, 78, 127
1, 33427, Note_on_c, 3, 78, 0
1, 33427, Note_on_c, 3, 76, 127
1, 33427, Note_on_c, 7, 64, 0
1, 33427, Note_on_c, 7, 64, 100
1, 33427, Note_on_c, 7, 61, 0
1, 33427, Note_on_c, 7, 61, 100
1, 33427, Note_on_c, 7, 57, 0
1, 33427, Note_on_c, 7, 57, 100
1, 33435, Note_on_c, 3, 76, 0
1, 33435, Note_on_c, 3, 78, 127
1, 33442, Note_on_c, 3, 78, 0
1, 33442, Note_on_c, 3, 76, 127
1, 33450, Note_on_c, 3, 76, 0
1, 33450, Note_on_c, 3, 78, 127
1, 33457, Note_on_c, 3, 78, 0
1, 33457, Note_on_c, 3, 76, 127
1, 33457, Note_on_c, 7, 64, 0
1, 33457, Note_on_c, 7, 64, 100
1, 33457, Note_on_c, 7, 61, 0
1, 33457, Note_on_c, 7, 61, 100
1, 33457, Note_on_c, 7, 57, 0
1, 33457, Note_on_c, 7, 57, 100
1, 33465, Note_on_c, 3, 76, 0
1, 33465, Note_on_c, 3, 78, 127
1, 33472, Note_on_c, 3, 78, 0
1, 33472, Note_on_c, 3, 76, 127
1, 33480, Note_on_c, 3, 76, 0
1, 33480, Note_on_c, 3, 78, 127
1, 33487, Note_on_c, 3, 78, 0
1, 33487, Note_on_c, 3, 76, 127
1, 33487, Note_on_c, 7, 64, 0
1, 33487, Note_on_c, 7, 64, 100
1, 33487, Note_on_c, 7, 61, 0
1, 33487, Note_on_c, 7, 61, 100
1, 33487, Note_on_c, 7, 57, 0
1, 33487, Note_on_c, 7, 55, 100
1, 33487, Note_on_c, 7, 45, 0
1, 33487, Note_on_c, 7, 45, 100
1, 33487, Note_on_c, 7, 33, 0
1, 33487, Note_on_c, 7, 33, 100
1, 33495, Note_on_c, 3, 76, 0
1, 33495, Note_on_c, 3, 78, 127
1, 33502, Note_on_c, 3, 78, 0
1, 33502, Note_on_c, 3, 76, 127
1, 33510, Note_on_c, 3, 76, 0
1, 33510, Note_on_c, 3, 78, 127
1, 33517, Note_on_c, 3, 78, 0
1, 33517, Note_on_c, 3, 76, 127
1, 33517, Note_on_c, 7, 64, 0
1, 33517, Note_on_c, 7, 64, 100
1, 33517, Note_on_c, 7, 61, 0
1, 33517, Note_on_c, 7, 61, 100
1, 33517, Note_on_c, 7, 55, 0
1, 33517, Note_on_c, 7, 55, 100
1, 33525, Note_on_c, 3, 76, 0
1, 33525, Note_on_c, 3, 78, 127
1, 33532, Note_on_c, 3, 78, 0
1, 33532, Note_on_c, 3, 76, 127
1, 33540, Note_on_c, 3, 76, 0
1, 33540, Note_on_c, 3, 78, 127
1, 33547, Note_on_c, 3, 78, 0
1, 33547, Note_on_c, 3, 76, 127
1, 33547, Note_on_c, 7, 64, 0
1, 33547, Note_on_c, 7, 64, 100
1, 33547, Note_on_c, 7, 61, 0
1, 33547, Note_on_c, 7, 61, 100
1, 33547, Note_on_c, 7, 55, 0
1, 33547, Note_on_c, 7, 55, 100
1, 33555, Note_on_c, 3, 76, 0
1, 33555, Note_on_c, 3, 78, 127
1, 33562, Note_on_c, 3, 78, 0
1, 33562, Note_on_c, 3, 76, 127
1, 33570, Note_on_c, 3, 76, 0
1, 33570, Note_on_c, 3, 78, 127
1, 33577, Note_on_c, 3, 78, 0
1, 33577, Note_on_c, 3, 76, 127
1, 33577, Note_on_c, 7, 64, 0
1, 33577, Note_on_c, 7, 64, 100
1, 33577, Note_on_c, 7, 61, 0
1, 33577, Note_on_c, 7, 61, 100
1, 33577, Note_on_c, 7, 55, 0
1, 33577, Note_on_c, 7, 55, 100
1, 33585, Note_on_c, 3, 76, 0
1, 33585, Note_on_c, 3, 78, 127
1, 33592, Note_on_c, 3, 78, 0
1, 33592, Note_on_c, 3, 74, 127
1, 33600, Note_on_c, 3, 74, 0
1, 33600, Note_on_c, 3, 76, 127
1, 33607, Note_on_c, 3, 76, 0
1, 33607, Note_on_c, 3, 74, 127
1, 33607, Note_on_c, 7, 64, 0
1, 33607, Note_on_c, 7, 62, 100
1, 33607, Note_on_c, 7, 61, 0
1, 33607, Note_on_c, 7, 55, 0
1, 33607, Note_on_c, 7, 54, 100
1, 33607, Note_on_c, 7, 45, 0
1, 33607, Note_on_c, 7, 47, 100
1, 33607, Note_on_c, 7, 33, 0
1, 33607, Note_on_c, 7, 35, 100
1, 33727, Note_on_c, 3, 74, 0
1, 33727, Note_on_c, 7, 62, 0
1, 33727, Note_on_c, 7, 54, 0
1, 33727, Note_on_c, 7, 47, 0
1, 33727, Note_on_c, 7, 35, 0
1, 33847, Note_on_c, 3, 74, 127
1, 33847, Note_on_c, 7, 59, 100
1, 33847, Note_on_c, 7, 55, 100
1, 33877, Note_on_c, 3, 74, 0
1, 33877, Note_on_c, 3, 73, 127
1, 33907, Note_on_c, 3, 73, 0
1, 33907, Note_on_c, 3, 76, 127
1, 33927, Note_on_c, 3, 76, 0
1, 33927, Note_on_c, 3, 74, 127
1, 33937, Note_on_c, 7, 59, 0
1, 33937, Note_on_c, 7, 67, 100
1, 33947, Note_on_c, 3, 74, 0
1, 33947, Note_on_c, 3, 71, 127
1, 33967, Note_on_c, 3, 71, 0
1, 33967, Note_on_c, 3, 69, 127
1, 33967, Note_on_c, 7, 67, 0
1, 33967, Note_on_c, 7, 66, 100
1, 33967, Note_on_c, 7, 55, 0
1, 33967, Note_on_c, 7, 57, 100
1, 34207, Note_on_c, 3, 69, 0
1, 34207, Note_on_c, 3, 68, 127
1, 34207, Note_on_c, 7, 66, 0
1, 34207, Note_on_c, 7, 65, 100
1, 34207, Note_on_c, 7, 57, 0
1, 34207, Note_on_c, 7, 57, 100
1, 34267, Note_on_c, 3, 68, 0
1, 34267, Note_on_c, 3, 67, 127
1, 34267, Note_on_c, 7, 57, 0
1, 34267, Note_on_c, 7, 58, 100
1, 34297, Note_on_c, 7, 65, 0
1, 34297, Note_on_c, 7, 64, 100
1, 34327, Note_on_c, 3, 67, 0
1, 34327, Note_on_c, 3, 66, 127
1, 34327, Note_on_c, 7, 64, 0
1, 34327, Note_on_c, 7, 62, 100
1, 34327, Note_on_c, 7, 58, 0
1, 34327, Note_on_c, 7, 59, 100
1, 34447, Note_on_c, 3, 66, 0
1, 34447, Note_on_c, 7, 62, 0
1, 34447, Note_on_c, 7, 59, 0
1, 34567, Note_on_c, 3, 52, 127
1, 34567, Note_on_c, 7, 83, 100
1, 34567, Note_on_c, 7, 79, 100
1, 34567, Note_on_c, 7, 64, 100
1, 34567, Note_on_c, 7, 43, 100
1, 34567, Note_on_c, 7, 31, 100
1, 34587, Note_on_c, 3, 52, 0
1, 34587, Note_on_c, 3, 55, 127
1, 34607, Note_on_c, 3, 55, 0
1, 34607, Note_on_c, 3, 54, 127
1, 34627, Note_on_c, 3, 54, 0
1, 34627, Note_on_c, 3, 52, 127
1, 34627, Note_on_c, 7, 83, 0
1, 34627, Note_on_c, 7, 79, 0
1, 34627, Note_on_c, 7, 64, 0
1, 34647, Note_on_c, 3, 52, 0
1, 34647, Note_on_c, 3, 55, 127
1, 34667, Note_on_c, 3, 55, 0
1, 34667, Note_on_c, 3, 59, 127
1, 34687, Note_on_c, 3, 59, 0
1, 34687, Note_on_c, 3, 57, 127
1, 34687, Note_on_c, 7, 81, 100
1, 34687, Note_on_c, 7, 78, 100
1, 34687, Note_on_c, 7, 66, 100
1, 34687, Note_on_c, 7, 43, 0
1, 34687, Note_on_c, 7, 45, 100
1, 34687, Note_on_c, 7, 31, 0
1, 34687, Note_on_c, 7, 33, 100
1, 34747, Note_on_c, 7, 81, 0
1, 34747, Note_on_c, 7, 78, 0
1, 34747, Note_on_c, 7, 66, 0
1, 34807, Note_on_c, 7, 78, 100
1, 34807, Note_on_c, 7, 74, 100
1, 34807, Note_on_c, 7, 69, 100
1, 34867, Note_on_c, 3, 57, 0
1, 34867, Note_on_c, 3, 57, 127
1, 34867, Note_on_c, 7, 78, 0
1, 34867, Note_on_c, 7, 74, 0
1, 34867, Note_on_c, 7, 69, 0
1, 34927, Note_on_c, 3, 57, 0
1, 34927, Note_on_c, 3, 59, 127
1, 34927, Note_on_c, 7, 76, 100
1, 34927, Note_on_c, 7, 67, 100
1, 34927, Note_on_c, 7, 57, 100
1, 34987, Note_on_c, 3, 59, 0
1, 34987, Note_on_c, 3, 61, 127
1, 34987, Note_on_c, 7, 76, 0
1, 34987, Note_on_c, 7, 67, 0
1, 34987, Note_on_c, 7, 57, 0
1, 35047, Note_on_c, 3, 61, 0
1, 35047, Note_on_c, 3, 62, 127
1, 35047, Note_on_c, 4, 86, 80
1, 35047, Note_on_c, 4, 78, 80
1, 35047, Note_on_c, 5, 57, 80
1, 35047, Note_on_c, 5, 54, 80
1, 35047, Note_on_c, 6, 62, 80
1, 35047, Note_on_c, 6, 50, 80
1, 35047, Note_on_c, 7, 74, 100
1, 35047, Note_on_c, 7, 66, 100
1, 35047, Note_on_c, 7, 62, 100
1, 35047, Note_on_c, 7, 45, 0
1, 35047, Note_on_c, 7, 50, 100
1, 35047, Note_on_c, 7, 33, 0
1, 35047, Note_on_c, 7, 38, 100
1, 35077, Note_on_c, 7, 50, 0
1, 35077, Note_on_c, 7, 38, 0
1, 35107, Note_on_c, 7, 74, 0
1, 35107, Note_on_c, 7, 66, 0
1, 35107, Note_on_c, 7, 62, 0
1, 35167, Note_on_c, 3, 62, 0
1, 35167, Note_on_c, 3, 62, 127
1, 35167, Note_on_c, 7, 62, 100
1, 35167, Note_on_c, 7, 57, 100
1, 35167, Note_on_c, 7, 54, 100
1, 35167, Note_on_c, 7, 45, 100
1, 35167, Note_on_c, 7, 33, 100
1, 35197, Note_on_c, 7, 45, 0
1, 35197, Note_on_c, 7, 33, 0
1, 35227, Note_on_c, 7, 62, 0
1, 35227, Note_on_c, 7, 57, 0
1, 35227, Note_on_c, 7, 54, 0
1, 35287, Note_on_c, 3, 62, 0
1, 35287, Note_on_c, 3, 62, 127
1, 35287, Note_on_c, 7, 62, 100
1, 35287, Note_on_c, 7, 57, 100
1, 35287, Note_on_c, 7, 54, 100
1, 35287, Note_on_c, 7, 42, 100
1, 35287, Note_on_c, 7, 30, 100
1, 35317, Note_on_c, 7, 42, 0
1, 35317, Note_on_c, 7, 30, 0
1, 35347, Note_on_c, 7, 62, 0
1, 35347, Note_on_c, 7, 57, 0
1, 35347, Note_on_c, 7, 54, 0
1, 35407, Note_on_c, 3, 62, 0
1, 35407, Note_on_c, 3, 62, 127
1, 35407, Note_on_c, 7, 62, 100
1, 35407, Note_on_c, 7, 57, 100
1, 35407, Note_on_c, 7, 54, 100
1, 35407, Note_on_c, 7, 38, 100
1, 35407, Note_on_c, 7, 26, 100
1, 35527, Note_on_c, 4, 86, 0
1, 35527, Note_on_c, 4, 78, 0
1, 35527, Note_on_c, 5, 57, 0
1, 35527, Note_on_c, 5, 54, 0
1, 35527, Note_on_c, 6, 62, 0
1, 35527, Note_on_c, 6, 50, 0
1, 35527, Note_on_c, 7, 62, 0
1, 35527, Note_on_c, 7, 57, 0
1, 35527, Note_on_c, 7, 54, 0
1, 35527, Note_on_c, 7, 38, 0
1, 35527, Note_on_c, 7, 26, 0
1, 35647, Note_on_c, 3, 62, 0
1, 35767, End_track
0, 0, End_of_file