0, 0, Header, 1, 16, 480
1, 0, Start_track
1, 0, Title_t, "untitled"
1, 0, SMPTE_offset, 96, 0, 3, 0, 0
1, 0, Time_signature, 4, 2, 24, 8
1, 0, Key_signature, 0, "major"
1, 0, Tempo, 517241
1, 0, Marker_t, "1st Movement,  Allegro"
1, 478560, Tempo, 606061
1, 479480, Tempo, 833333
1, 480000, Tempo, 1481481
1, 480504, Tempo, 3000000
1, 480680, Tempo, 6000000
1, 480784, Tempo, 1188119
1, 480972, Tempo, 869565
1, 481944, Tempo, 521739
1, 507845, Tempo, 603015
1, 508330, Tempo, 710059
1, 508805, Tempo, 1250000
1, 509558, Tempo, 526316
1, 509558, End_track
2, 0, Start_track
2, 0, Title_t, "Oboe"
2, 0, Control_c, 0, 0, 0
2, 0, Control_c, 0, 7, 100
2, 0, Control_c, 0, 10, 50
2, 0, Control_c, 0, 91, 61
2, 0, Control_c, 0, 93, 61
2, 1, Control_c, 0, 32, 1
2, 2, Program_c, 0, 68
2, 1910, Note_on_c, 0, 84, 105
2, 2594, Note_on_c, 0, 84, 0
2, 2630, Note_on_c, 0, 79, 105
2, 2858, Note_on_c, 0, 79, 0
2, 2870, Note_on_c, 0, 76, 105
2, 3098, Note_on_c, 0, 76, 0
2, 3110, Note_on_c, 0, 72, 105
2, 3338, Note_on_c, 0, 72, 0
2, 3350, Note_on_c, 0, 76, 105
2, 3578, Note_on_c, 0, 76, 0
2, 3590, Note_on_c, 0, 79, 105
2, 3818, Note_on_c, 0, 79, 0
2, 3830, Note_on_c, 0, 84, 105
2, 4514, Note_on_c, 0, 84, 0
2, 4550, Note_on_c, 0, 79, 105
2, 4778, Note_on_c, 0, 79, 0
2, 4790, Note_on_c, 0, 76, 105
2, 5018, Note_on_c, 0, 76, 0
2, 5030, Note_on_c, 0, 72, 105
2, 5258, Note_on_c, 0, 72, 0
2, 5270, Note_on_c, 0, 76, 105
2, 5498, Note_on_c, 0, 76, 0
2, 5510, Note_on_c, 0, 79, 105
2, 5738, Note_on_c, 0, 79, 0
2, 5750, Note_on_c, 0, 84, 105
2, 6206, Note_on_c, 0, 84, 0
2, 6230, Note_on_c, 0, 72, 70
2, 6710, Note_on_c, 0, 71, 70
2, 6829, Note_on_c, 0, 72, 0
2, 7190, Note_on_c, 0, 72, 70
2, 7249, Note_on_c, 0, 71, 0
2, 7609, Note_on_c, 0, 72, 0
2, 7670, Note_on_c, 0, 74, 88
2, 7862, Note_on_c, 0, 74, 0
2, 8150, Note_on_c, 0, 74, 70
2, 8630, Note_on_c, 0, 73, 70
2, 8749, Note_on_c, 0, 74, 0
2, 9110, Note_on_c, 0, 74, 70
2, 9169, Note_on_c, 0, 73, 0
2, 9526, Note_on_c, 0, 74, 0
2, 9590, Note_on_c, 0, 76, 89
2, 9782, Note_on_c, 0, 76, 0
2, 10070, Note_on_c, 0, 76, 70
2, 10550, Note_on_c, 0, 75, 70
2, 10622, Note_on_c, 0, 76, 0
2, 11030, Note_on_c, 0, 76, 70
2, 11094, Note_on_c, 0, 75, 0
2, 11438, Note_on_c, 0, 76, 0
2, 11510, Note_on_c, 0, 77, 70
2, 11990, Note_on_c, 0, 79, 77
2, 12054, Note_on_c, 0, 77, 0
2, 12470, Note_on_c, 0, 81, 85
2, 12550, Note_on_c, 0, 79, 0
2, 12950, Note_on_c, 0, 83, 94
2, 13014, Note_on_c, 0, 81, 0
2, 13350, Note_on_c, 0, 83, 0
2, 13430, Note_on_c, 0, 84, 102
2, 16726, Note_on_c, 0, 84, 0
2, 16790, Note_on_c, 0, 76, 103
2, 16910, Note_on_c, 0, 77, 106
2, 16950, Note_on_c, 0, 76, 0
2, 17030, Note_on_c, 0, 76, 105
2, 17030, Note_on_c, 0, 79, 105
2, 17070, Note_on_c, 0, 77, 0
2, 17126, Note_on_c, 0, 76, 0
2, 17150, Note_on_c, 0, 76, 101
2, 17190, Note_on_c, 0, 79, 0
2, 17270, Note_on_c, 0, 76, 0
2, 17270, Note_on_c, 0, 81, 101
2, 17750, Note_on_c, 0, 81, 0
2, 20630, Note_on_c, 0, 72, 94
2, 20750, Note_on_c, 0, 74, 101
2, 20790, Note_on_c, 0, 72, 0
2, 20870, Note_on_c, 0, 76, 99
2, 20910, Note_on_c, 0, 74, 0
2, 20990, Note_on_c, 0, 76, 0
2, 20990, Note_on_c, 0, 76, 96
2, 21110, Note_on_c, 0, 76, 0
2, 21110, Note_on_c, 0, 77, 104
2, 23030, Note_on_c, 0, 77, 0
2, 23030, Note_on_c, 0, 76, 105
2, 24902, Note_on_c, 0, 76, 0
2, 24950, Note_on_c, 0, 74, 105
2, 25670, Note_on_c, 0, 76, 104
2, 25702, Note_on_c, 0, 74, 0
2, 25790, Note_on_c, 0, 77, 108
2, 25830, Note_on_c, 0, 76, 0
2, 25894, Note_on_c, 0, 77, 0
2, 25910, Note_on_c, 0, 72, 102
2, 26390, Note_on_c, 0, 72, 0
2, 26390, Note_on_c, 0, 71, 105
2, 26870, Note_on_c, 0, 71, 0
2, 28790, Note_on_c, 0, 77, 105
2, 30710, Note_on_c, 0, 77, 0
2, 30710, Note_on_c, 0, 76, 105
2, 32630, Note_on_c, 0, 76, 0
2, 32630, Note_on_c, 0, 74, 97
2, 32870, Note_on_c, 0, 74, 0
2, 32870, Note_on_c, 0, 76, 102
2, 33110, Note_on_c, 0, 76, 0
2, 33110, Note_on_c, 0, 77, 106
2, 33350, Note_on_c, 0, 77, 0
2, 33350, Note_on_c, 0, 79, 108
2, 33590, Note_on_c, 0, 79, 0
2, 33590, Note_on_c, 0, 81, 105
2, 33710, Note_on_c, 0, 81, 0
2, 33710, Note_on_c, 0, 79, 105
2, 33830, Note_on_c, 0, 79, 0
2, 33830, Note_on_c, 0, 77, 105
2, 33950, Note_on_c, 0, 77, 0
2, 33950, Note_on_c, 0, 76, 107
2, 34070, Note_on_c, 0, 76, 0
2, 34070, Note_on_c, 0, 74, 106
2, 34190, Note_on_c, 0, 74, 0
2, 34190, Note_on_c, 0, 72, 105
2, 34310, Note_on_c, 0, 72, 0
2, 34310, Note_on_c, 0, 71, 103
2, 34430, Note_on_c, 0, 71, 0
2, 34430, Note_on_c, 0, 72, 103
2, 34550, Note_on_c, 0, 72, 0
2, 34550, Note_on_c, 0, 71, 102
2, 34790, Note_on_c, 0, 74, 105
2, 34838, Note_on_c, 0, 71, 0
2, 34950, Note_on_c, 0, 74, 0
2, 35030, Note_on_c, 0, 77, 105
2, 35126, Note_on_c, 0, 77, 0
2, 35270, Note_on_c, 0, 77, 105
2, 35366, Note_on_c, 0, 77, 0
2, 35510, Note_on_c, 0, 76, 105
2, 35990, Note_on_c, 0, 76, 0
2, 36230, Note_on_c, 0, 76, 105
2, 36470, Note_on_c, 0, 76, 0
2, 36470, Note_on_c, 0, 74, 105
2, 36710, Note_on_c, 0, 74, 0
2, 36710, Note_on_c, 0, 74, 105
2, 36950, Note_on_c, 0, 74, 0
2, 36950, Note_on_c, 0, 77, 105
2, 37046, Note_on_c, 0, 77, 0
2, 37190, Note_on_c, 0, 77, 105
2, 37286, Note_on_c, 0, 77, 0
2, 37430, Note_on_c, 0, 76, 105
2, 37910, Note_on_c, 0, 76, 0
2, 38150, Note_on_c, 0, 76, 105
2, 38390, Note_on_c, 0, 76, 0
2, 38390, Note_on_c, 0, 74, 105
2, 38870, Note_on_c, 0, 74, 0
2, 38870, Note_on_c, 0, 79, 105
2, 39350, Note_on_c, 0, 79, 0
2, 39350, Note_on_c, 0, 67, 105
2, 39830, Note_on_c, 0, 67, 0
2, 44150, Note_on_c, 0, 79, 72
2, 44270, Note_on_c, 0, 81, 75
2, 44310, Note_on_c, 0, 79, 0
2, 44390, Note_on_c, 0, 79, 79
2, 44430, Note_on_c, 0, 81, 0
2, 44510, Note_on_c, 0, 77, 77
2, 44550, Note_on_c, 0, 79, 0
2, 44630, Note_on_c, 0, 77, 0
2, 44630, Note_on_c, 0, 76, 75
2, 45110, Note_on_c, 0, 76, 0
2, 47990, Note_on_c, 0, 79, 76
2, 48110, Note_on_c, 0, 79, 0
2, 48110, Note_on_c, 0, 81, 81
2, 48230, Note_on_c, 0, 81, 0
2, 48230, Note_on_c, 0, 79, 81
2, 48350, Note_on_c, 0, 79, 0
2, 48350, Note_on_c, 0, 77, 81
2, 48470, Note_on_c, 0, 77, 0
2, 48470, Note_on_c, 0, 76, 80
2, 48950, Note_on_c, 0, 76, 0
2, 51830, Note_on_c, 0, 79, 75
2, 51950, Note_on_c, 0, 81, 78
2, 51990, Note_on_c, 0, 79, 0
2, 52070, Note_on_c, 0, 79, 83
2, 52110, Note_on_c, 0, 81, 0
2, 52190, Note_on_c, 0, 77, 82
2, 52230, Note_on_c, 0, 79, 0
2, 52310, Note_on_c, 0, 77, 0
2, 52310, Note_on_c, 0, 76, 78
2, 52790, Note_on_c, 0, 76, 0
2, 53750, Note_on_c, 0, 84, 74
2, 53870, Note_on_c, 0, 86, 77
2, 53910, Note_on_c, 0, 84, 0
2, 53990, Note_on_c, 0, 84, 81
2, 54030, Note_on_c, 0, 86, 0
2, 54110, Note_on_c, 0, 82, 81
2, 54150, Note_on_c, 0, 84, 0
2, 54230, Note_on_c, 0, 82, 0
2, 54230, Note_on_c, 0, 81, 77
2, 54710, Note_on_c, 0, 81, 0
2, 55670, Note_on_c, 0, 82, 75
2, 55790, Note_on_c, 0, 84, 79
2, 55830, Note_on_c, 0, 82, 0
2, 55910, Note_on_c, 0, 82, 79
2, 55950, Note_on_c, 0, 84, 0
2, 56030, Note_on_c, 0, 81, 79
2, 56070, Note_on_c, 0, 82, 0
2, 56150, Note_on_c, 0, 81, 0
2, 56150, Note_on_c, 0, 79, 76
2, 56630, Note_on_c, 0, 79, 0
2, 61430, Note_on_c, 0, 79, 91
2, 61910, Note_on_c, 0, 79, 0
2, 61910, Note_on_c, 0, 79, 91
2, 62630, Note_on_c, 0, 79, 0
2, 62630, Note_on_c, 0, 81, 97
2, 62750, Note_on_c, 0, 81, 0
2, 62750, Note_on_c, 0, 79, 103
2, 62870, Note_on_c, 0, 79, 0
2, 62870, Note_on_c, 0, 77, 97
2, 63110, Note_on_c, 0, 77, 0
2, 63110, Note_on_c, 0, 76, 94
2, 63318, Note_on_c, 0, 76, 0
2, 63350, Note_on_c, 0, 76, 91
2, 63710, Note_on_c, 0, 74, 87
2, 63758, Note_on_c, 0, 76, 0
2, 63810, Note_on_c, 0, 74, 0
2, 63830, Note_on_c, 0, 72, 87
2, 64790, Note_on_c, 0, 72, 0
2, 64790, Note_on_c, 0, 71, 91
2, 65270, Note_on_c, 0, 71, 0
2, 65270, Note_on_c, 0, 72, 91
2, 65750, Note_on_c, 0, 72, 0
2, 70070, Note_on_c, 0, 76, 70
2, 70214, Note_on_c, 0, 76, 0
2, 70550, Note_on_c, 0, 77, 70
2, 70694, Note_on_c, 0, 77, 0
2, 71030, Note_on_c, 0, 79, 70
2, 71174, Note_on_c, 0, 79, 0
2, 71510, Note_on_c, 0, 77, 70
2, 71654, Note_on_c, 0, 77, 0
2, 71990, Note_on_c, 0, 76, 70
2, 72134, Note_on_c, 0, 76, 0
2, 72470, Note_on_c, 0, 74, 70
2, 72614, Note_on_c, 0, 74, 0
2, 72950, Note_on_c, 0, 72, 105
2, 73910, Note_on_c, 0, 72, 0
2, 73910, Note_on_c, 0, 81, 105
2, 74870, Note_on_c, 0, 81, 0
2, 74870, Note_on_c, 0, 76, 105
2, 75590, Note_on_c, 0, 76, 0
2, 75590, Note_on_c, 0, 77, 105
2, 75710, Note_on_c, 0, 77, 0
2, 75710, Note_on_c, 0, 79, 105
2, 75810, Note_on_c, 0, 79, 0
2, 75830, Note_on_c, 0, 79, 105
2, 76070, Note_on_c, 0, 77, 105
2, 76126, Note_on_c, 0, 79, 0
2, 76262, Note_on_c, 0, 77, 0
2, 76310, Note_on_c, 0, 76, 105
2, 76406, Note_on_c, 0, 76, 0
2, 76550, Note_on_c, 0, 74, 105
2, 76646, Note_on_c, 0, 74, 0
2, 76790, Note_on_c, 0, 72, 105
2, 77204, Note_on_c, 0, 72, 0
2, 77270, Note_on_c, 0, 72, 105
2, 77549, Note_on_c, 0, 72, 0
2, 77630, Note_on_c, 0, 72, 105
2, 77719, Note_on_c, 0, 72, 0
2, 77750, Note_on_c, 0, 72, 105
2, 78174, Note_on_c, 0, 72, 0
2, 78230, Note_on_c, 0, 76, 105
2, 78524, Note_on_c, 0, 76, 0
2, 78590, Note_on_c, 0, 76, 105
2, 78684, Note_on_c, 0, 76, 0
2, 78710, Note_on_c, 0, 76, 105
2, 79149, Note_on_c, 0, 76, 0
2, 79190, Note_on_c, 0, 79, 105
2, 79484, Note_on_c, 0, 79, 0
2, 79550, Note_on_c, 0, 79, 105
2, 79639, Note_on_c, 0, 79, 0
2, 79670, Note_on_c, 0, 79, 105
2, 80124, Note_on_c, 0, 79, 0
2, 80150, Note_on_c, 0, 84, 105
2, 80439, Note_on_c, 0, 84, 0
2, 80510, Note_on_c, 0, 84, 105
2, 80604, Note_on_c, 0, 84, 0
2, 80630, Note_on_c, 0, 84, 105
2, 81038, Note_on_c, 0, 84, 0
2, 81110, Note_on_c, 0, 84, 77
2, 81590, Note_on_c, 0, 83, 78
2, 81670, Note_on_c, 0, 84, 0
2, 82070, Note_on_c, 0, 81, 78
2, 82142, Note_on_c, 0, 83, 0
2, 82470, Note_on_c, 0, 81, 0
2, 82550, Note_on_c, 0, 79, 94
2, 82798, Note_on_c, 0, 79, 0
2, 83030, Note_on_c, 0, 77, 82
2, 83510, Note_on_c, 0, 76, 78
2, 83598, Note_on_c, 0, 77, 0
2, 83990, Note_on_c, 0, 74, 70
2, 84054, Note_on_c, 0, 76, 0
2, 84398, Note_on_c, 0, 74, 0
2, 84470, Note_on_c, 0, 72, 92
2, 84950, Note_on_c, 0, 72, 0
2, 165110, Note_on_c, 0, 74, 93
2, 165350, Note_on_c, 0, 81, 93
2, 165390, Note_on_c, 0, 74, 0
2, 165542, Note_on_c, 0, 81, 0
2, 165590, Note_on_c, 0, 84, 98
2, 165830, Note_on_c, 0, 84, 0
2, 165830, Note_on_c, 0, 84, 98
2, 166070, Note_on_c, 0, 84, 0
2, 166070, Note_on_c, 0, 83, 98
2, 166550, Note_on_c, 0, 83, 0
2, 166790, Note_on_c, 0, 83, 98
2, 167030, Note_on_c, 0, 83, 0
2, 167030, Note_on_c, 0, 81, 98
2, 167230, Note_on_c, 0, 81, 0
2, 167278, Note_on_c, 0, 81, 98
2, 167510, Note_on_c, 0, 84, 98
2, 167518, Note_on_c, 0, 81, 0
2, 167638, Note_on_c, 0, 84, 0
2, 167750, Note_on_c, 0, 84, 98
2, 167854, Note_on_c, 0, 84, 0
2, 167990, Note_on_c, 0, 83, 98
2, 168470, Note_on_c, 0, 83, 0
2, 168710, Note_on_c, 0, 83, 98
2, 168950, Note_on_c, 0, 83, 0
2, 168950, Note_on_c, 0, 81, 98
2, 169430, Note_on_c, 0, 81, 0
2, 169430, Note_on_c, 0, 86, 98
2, 169910, Note_on_c, 0, 86, 0
2, 169910, Note_on_c, 0, 74, 98
2, 170390, Note_on_c, 0, 74, 0
2, 230390, Note_on_c, 0, 79, 105
2, 233694, Note_on_c, 0, 79, 0
2, 233750, Note_on_c, 0, 71, 105
2, 233870, Note_on_c, 0, 72, 105
2, 233910, Note_on_c, 0, 71, 0
2, 233990, Note_on_c, 0, 71, 105
2, 233990, Note_on_c, 0, 74, 105
2, 234030, Note_on_c, 0, 72, 0
2, 234096, Note_on_c, 0, 71, 0
2, 234110, Note_on_c, 0, 71, 105
2, 234150, Note_on_c, 0, 74, 0
2, 234230, Note_on_c, 0, 71, 0
2, 234230, Note_on_c, 0, 76, 105
2, 234710, Note_on_c, 0, 76, 0
2, 237590, Note_on_c, 0, 79, 105
2, 237710, Note_on_c, 0, 81, 105
2, 237750, Note_on_c, 0, 79, 0
2, 237830, Note_on_c, 0, 83, 105
2, 237870, Note_on_c, 0, 81, 0
2, 237950, Note_on_c, 0, 83, 0
2, 237950, Note_on_c, 0, 83, 105
2, 238070, Note_on_c, 0, 83, 0
2, 238070, Note_on_c, 0, 84, 105
2, 239990, Note_on_c, 0, 84, 0
2, 239990, Note_on_c, 0, 83, 105
2, 241862, Note_on_c, 0, 83, 0
2, 241910, Note_on_c, 0, 81, 105
2, 242630, Note_on_c, 0, 83, 105
2, 242678, Note_on_c, 0, 81, 0
2, 242750, Note_on_c, 0, 84, 105
2, 242798, Note_on_c, 0, 83, 0
2, 242846, Note_on_c, 0, 84, 0
2, 242870, Note_on_c, 0, 79, 105
2, 243350, Note_on_c, 0, 79, 0
2, 243350, Note_on_c, 0, 78, 105
2, 243830, Note_on_c, 0, 78, 0
2, 243830, Note_on_c, 0, 79, 97
2, 245750, Note_on_c, 0, 79, 0
2, 245750, Note_on_c, 0, 74, 105
2, 246230, Note_on_c, 0, 74, 0
2, 246230, Note_on_c, 0, 74, 105
2, 246950, Note_on_c, 0, 74, 0
2, 246950, Note_on_c, 0, 76, 105
2, 247070, Note_on_c, 0, 76, 0
2, 247070, Note_on_c, 0, 74, 105
2, 247190, Note_on_c, 0, 74, 0
2, 247190, Note_on_c, 0, 72, 105
2, 247430, Note_on_c, 0, 72, 0
2, 247430, Note_on_c, 0, 71, 105
2, 247630, Note_on_c, 0, 71, 0
2, 247670, Note_on_c, 0, 74, 105
2, 248030, Note_on_c, 0, 72, 105
2, 248054, Note_on_c, 0, 74, 0
2, 248118, Note_on_c, 0, 72, 0
2, 248150, Note_on_c, 0, 71, 105
2, 249110, Note_on_c, 0, 71, 0
2, 249110, Note_on_c, 0, 69, 105
2, 249590, Note_on_c, 0, 69, 0
2, 249590, Note_on_c, 0, 67, 105
2, 250070, Note_on_c, 0, 67, 0
2, 324470, Note_on_c, 0, 84, 105
2, 325154, Note_on_c, 0, 84, 0
2, 325190, Note_on_c, 0, 79, 105
2, 325418, Note_on_c, 0, 79, 0
2, 325430, Note_on_c, 0, 76, 105
2, 325658, Note_on_c, 0, 76, 0
2, 325670, Note_on_c, 0, 72, 105
2, 325898, Note_on_c, 0, 72, 0
2, 325910, Note_on_c, 0, 76, 105
2, 326138, Note_on_c, 0, 76, 0
2, 326150, Note_on_c, 0, 79, 105
2, 326378, Note_on_c, 0, 79, 0
2, 326390, Note_on_c, 0, 84, 105
2, 327074, Note_on_c, 0, 84, 0
2, 327110, Note_on_c, 0, 79, 105
2, 327338, Note_on_c, 0, 79, 0
2, 327350, Note_on_c, 0, 76, 105
2, 327578, Note_on_c, 0, 76, 0
2, 327590, Note_on_c, 0, 72, 105
2, 327818, Note_on_c, 0, 72, 0
2, 327830, Note_on_c, 0, 76, 105
2, 328058, Note_on_c, 0, 76, 0
2, 328070, Note_on_c, 0, 79, 105
2, 328298, Note_on_c, 0, 79, 0
2, 328310, Note_on_c, 0, 84, 105
2, 328766, Note_on_c, 0, 84, 0
2, 328790, Note_on_c, 0, 72, 70
2, 329270, Note_on_c, 0, 71, 70
2, 329350, Note_on_c, 0, 72, 0
2, 329750, Note_on_c, 0, 72, 70
2, 329822, Note_on_c, 0, 71, 0
2, 330174, Note_on_c, 0, 72, 0
2, 330230, Note_on_c, 0, 74, 95
2, 330470, Note_on_c, 0, 74, 0
2, 330710, Note_on_c, 0, 74, 70
2, 331190, Note_on_c, 0, 73, 70
2, 331254, Note_on_c, 0, 74, 0
2, 331670, Note_on_c, 0, 74, 70
2, 331750, Note_on_c, 0, 73, 0
2, 332070, Note_on_c, 0, 74, 0
2, 332150, Note_on_c, 0, 76, 92
2, 332390, Note_on_c, 0, 76, 0
2, 332630, Note_on_c, 0, 76, 70
2, 333110, Note_on_c, 0, 75, 70
2, 333182, Note_on_c, 0, 76, 0
2, 333590, Note_on_c, 0, 76, 70
2, 333662, Note_on_c, 0, 75, 0
2, 333998, Note_on_c, 0, 76, 0
2, 334070, Note_on_c, 0, 77, 70
2, 334550, Note_on_c, 0, 79, 80
2, 334622, Note_on_c, 0, 77, 0
2, 335030, Note_on_c, 0, 81, 80
2, 335102, Note_on_c, 0, 79, 0
2, 335510, Note_on_c, 0, 83, 90
2, 335566, Note_on_c, 0, 81, 0
2, 335950, Note_on_c, 0, 83, 0
2, 335990, Note_on_c, 0, 84, 105
2, 336470, Note_on_c, 0, 84, 0
2, 393590, Note_on_c, 0, 77, 70
2, 397430, Note_on_c, 0, 77, 0
2, 397430, Note_on_c, 0, 76, 70
2, 401270, Note_on_c, 0, 76, 0
2, 401270, Note_on_c, 0, 74, 92
2, 401366, Note_on_c, 0, 74, 0
2, 401510, Note_on_c, 0, 74, 91
2, 401750, Note_on_c, 0, 77, 91
2, 401814, Note_on_c, 0, 74, 0
2, 401934, Note_on_c, 0, 77, 0
2, 401990, Note_on_c, 0, 77, 91
2, 402086, Note_on_c, 0, 77, 0
2, 402230, Note_on_c, 0, 76, 91
2, 402710, Note_on_c, 0, 76, 0
2, 402950, Note_on_c, 0, 76, 91
2, 403190, Note_on_c, 0, 76, 0
2, 403190, Note_on_c, 0, 74, 91
2, 403286, Note_on_c, 0, 74, 0
2, 403430, Note_on_c, 0, 74, 91
2, 403670, Note_on_c, 0, 77, 91
2, 403734, Note_on_c, 0, 74, 0
2, 403862, Note_on_c, 0, 77, 0
2, 403910, Note_on_c, 0, 77, 92
2, 404006, Note_on_c, 0, 77, 0
2, 404150, Note_on_c, 0, 76, 92
2, 404630, Note_on_c, 0, 76, 0
2, 404870, Note_on_c, 0, 76, 92
2, 405110, Note_on_c, 0, 76, 0
2, 405110, Note_on_c, 0, 74, 92
2, 405590, Note_on_c, 0, 74, 0
2, 405590, Note_on_c, 0, 79, 92
2, 406070, Note_on_c, 0, 79, 0
2, 406070, Note_on_c, 0, 67, 92
2, 406550, Note_on_c, 0, 67, 0
2, 454070, Note_on_c, 0, 76, 70
2, 454310, Note_on_c, 0, 76, 0
2, 454550, Note_on_c, 0, 77, 70
2, 454790, Note_on_c, 0, 77, 0
2, 455030, Note_on_c, 0, 79, 70
2, 455270, Note_on_c, 0, 79, 0
2, 455510, Note_on_c, 0, 77, 70
2, 455750, Note_on_c, 0, 77, 0
2, 455990, Note_on_c, 0, 76, 70
2, 456230, Note_on_c, 0, 76, 0
2, 456470, Note_on_c, 0, 74, 70
2, 456710, Note_on_c, 0, 74, 0
2, 460790, Note_on_c, 0, 79, 70
2, 461750, Note_on_c, 0, 79, 0
2, 461750, Note_on_c, 0, 77, 70
2, 462710, Note_on_c, 0, 77, 0
2, 462710, Note_on_c, 0, 76, 70
2, 463150, Note_on_c, 0, 76, 0
2, 463190, Note_on_c, 0, 76, 70
2, 463430, Note_on_c, 0, 76, 0
2, 463670, Note_on_c, 0, 79, 70
2, 464150, Note_on_c, 0, 76, 70
2, 464214, Note_on_c, 0, 79, 0
2, 464630, Note_on_c, 0, 76, 0
2, 465110, Note_on_c, 0, 74, 80
2, 465350, Note_on_c, 0, 74, 0
2, 465590, Note_on_c, 0, 77, 80
2, 466070, Note_on_c, 0, 74, 90
2, 466126, Note_on_c, 0, 77, 0
2, 466526, Note_on_c, 0, 74, 0
2, 466550, Note_on_c, 0, 72, 105
2, 467234, Note_on_c, 0, 72, 0
2, 467270, Note_on_c, 0, 79, 105
2, 467498, Note_on_c, 0, 79, 0
2, 467510, Note_on_c, 0, 76, 105
2, 467738, Note_on_c, 0, 76, 0
2, 467750, Note_on_c, 0, 72, 105
2, 467978, Note_on_c, 0, 72, 0
2, 467990, Note_on_c, 0, 76, 105
2, 468218, Note_on_c, 0, 76, 0
2, 468230, Note_on_c, 0, 79, 105
2, 468458, Note_on_c, 0, 79, 0
2, 468470, Note_on_c, 0, 84, 105
2, 469154, Note_on_c, 0, 84, 0
2, 469190, Note_on_c, 0, 79, 105
2, 469418, Note_on_c, 0, 79, 0
2, 469430, Note_on_c, 0, 76, 105
2, 469658, Note_on_c, 0, 76, 0
2, 469670, Note_on_c, 0, 72, 105
2, 469898, Note_on_c, 0, 72, 0
2, 469910, Note_on_c, 0, 76, 105
2, 470138, Note_on_c, 0, 76, 0
2, 470150, Note_on_c, 0, 79, 105
2, 470378, Note_on_c, 0, 79, 0
2, 470390, Note_on_c, 0, 84, 105
2, 471110, Note_on_c, 0, 84, 0
2, 471110, Note_on_c, 0, 83, 105
2, 471350, Note_on_c, 0, 83, 0
2, 471350, Note_on_c, 0, 81, 105
2, 472070, Note_on_c, 0, 81, 0
2, 472070, Note_on_c, 0, 79, 105
2, 472310, Note_on_c, 0, 79, 0
2, 472310, Note_on_c, 0, 77, 105
2, 473030, Note_on_c, 0, 77, 0
2, 473030, Note_on_c, 0, 76, 105
2, 473270, Note_on_c, 0, 76, 0
2, 473270, Note_on_c, 0, 74, 105
2, 473990, Note_on_c, 0, 74, 0
2, 473990, Note_on_c, 0, 73, 105
2, 474230, Note_on_c, 0, 73, 0
2, 474230, Note_on_c, 0, 74, 105
2, 474470, Note_on_c, 0, 74, 0
2, 474470, Note_on_c, 0, 76, 105
2, 474710, Note_on_c, 0, 76, 0
2, 474710, Note_on_c, 0, 77, 105
2, 474950, Note_on_c, 0, 77, 0
2, 474950, Note_on_c, 0, 79, 105
2, 475190, Note_on_c, 0, 79, 0
2, 475190, Note_on_c, 0, 81, 105
2, 475310, Note_on_c, 0, 81, 0
2, 475310, Note_on_c, 0, 79, 105
2, 475430, Note_on_c, 0, 79, 0
2, 475430, Note_on_c, 0, 77, 105
2, 475550, Note_on_c, 0, 77, 0
2, 475550, Note_on_c, 0, 76, 105
2, 475670, Note_on_c, 0, 76, 0
2, 475670, Note_on_c, 0, 74, 105
2, 475790, Note_on_c, 0, 74, 0
2, 475790, Note_on_c, 0, 72, 105
2, 475910, Note_on_c, 0, 72, 0
2, 475910, Note_on_c, 0, 71, 105
2, 476030, Note_on_c, 0, 71, 0
2, 476030, Note_on_c, 0, 72, 105
2, 476150, Note_on_c, 0, 72, 0
2, 476150, Note_on_c, 0, 71, 105
2, 476350, Note_on_c, 0, 71, 0
2, 476390, Note_on_c, 0, 74, 105
2, 476630, Note_on_c, 0, 77, 105
2, 476686, Note_on_c, 0, 74, 0
2, 476846, Note_on_c, 0, 77, 0
2, 476870, Note_on_c, 0, 77, 105
2, 476982, Note_on_c, 0, 77, 0
2, 477110, Note_on_c, 0, 76, 105
2, 477590, Note_on_c, 0, 76, 0
2, 477830, Note_on_c, 0, 76, 105
2, 478070, Note_on_c, 0, 76, 0
2, 478070, Note_on_c, 0, 74, 105
2, 478270, Note_on_c, 0, 74, 0
2, 478310, Note_on_c, 0, 74, 105
2, 478550, Note_on_c, 0, 77, 105
2, 478638, Note_on_c, 0, 74, 0
2, 478750, Note_on_c, 0, 77, 0
2, 478790, Note_on_c, 0, 77, 105
2, 478910, Note_on_c, 0, 77, 0
2, 479030, Note_on_c, 0, 76, 105
2, 479510, Note_on_c, 0, 76, 0
2, 479750, Note_on_c, 0, 84, 105
2, 479990, Note_on_c, 0, 84, 0
2, 479990, Note_on_c, 0, 67, 105
2, 480470, Note_on_c, 0, 67, 0
2, 481910, Note_on_c, 0, 84, 105
2, 485230, Note_on_c, 0, 84, 0
2, 485270, Note_on_c, 0, 76, 105
2, 485390, Note_on_c, 0, 77, 105
2, 485430, Note_on_c, 0, 76, 0
2, 485510, Note_on_c, 0, 76, 105
2, 485510, Note_on_c, 0, 79, 105
2, 485550, Note_on_c, 0, 77, 0
2, 485630, Note_on_c, 0, 76, 0
2, 485670, Note_on_c, 0, 79, 0
2, 485750, Note_on_c, 0, 81, 105
2, 486230, Note_on_c, 0, 81, 0
2, 489110, Note_on_c, 0, 72, 105
2, 489230, Note_on_c, 0, 74, 105
2, 489270, Note_on_c, 0, 72, 0
2, 489350, Note_on_c, 0, 76, 105
2, 489390, Note_on_c, 0, 74, 0
2, 489470, Note_on_c, 0, 76, 0
2, 489470, Note_on_c, 0, 76, 105
2, 489590, Note_on_c, 0, 76, 0
2, 489590, Note_on_c, 0, 77, 105
2, 491510, Note_on_c, 0, 77, 0
2, 491510, Note_on_c, 0, 76, 105
2, 493430, Note_on_c, 0, 76, 0
2, 493430, Note_on_c, 0, 74, 105
2, 494150, Note_on_c, 0, 76, 105
2, 494182, Note_on_c, 0, 74, 0
2, 494270, Note_on_c, 0, 76, 0
2, 494270, Note_on_c, 0, 77, 105
2, 494350, Note_on_c, 0, 77, 0
2, 494390, Note_on_c, 0, 72, 105
2, 494870, Note_on_c, 0, 72, 0
2, 494870, Note_on_c, 0, 71, 98
2, 495350, Note_on_c, 0, 71, 0
2, 495350, Note_on_c, 0, 72, 96
2, 496310, Note_on_c, 0, 72, 0
2, 496310, Note_on_c, 0, 81, 96
2, 497270, Note_on_c, 0, 81, 0
2, 497270, Note_on_c, 0, 76, 105
2, 497990, Note_on_c, 0, 76, 0
2, 497990, Note_on_c, 0, 77, 105
2, 498110, Note_on_c, 0, 77, 0
2, 498110, Note_on_c, 0, 79, 105
2, 498206, Note_on_c, 0, 79, 0
2, 498230, Note_on_c, 0, 79, 105
2, 498470, Note_on_c, 0, 77, 105
2, 498526, Note_on_c, 0, 79, 0
2, 498662, Note_on_c, 0, 77, 0
2, 498710, Note_on_c, 0, 76, 105
2, 498806, Note_on_c, 0, 76, 0
2, 498950, Note_on_c, 0, 74, 105
2, 499046, Note_on_c, 0, 74, 0
2, 499190, Note_on_c, 0, 72, 105
2, 499614, Note_on_c, 0, 72, 0
2, 499670, Note_on_c, 0, 72, 105
2, 499989, Note_on_c, 0, 72, 0
2, 500030, Note_on_c, 0, 72, 105
2, 500119, Note_on_c, 0, 72, 0
2, 500150, Note_on_c, 0, 72, 105
2, 500599, Note_on_c, 0, 72, 0
2, 500630, Note_on_c, 0, 76, 105
2, 500949, Note_on_c, 0, 76, 0
2, 500990, Note_on_c, 0, 76, 105
2, 501079, Note_on_c, 0, 76, 0
2, 501110, Note_on_c, 0, 76, 105
2, 501539, Note_on_c, 0, 76, 0
2, 501590, Note_on_c, 0, 79, 105
2, 501899, Note_on_c, 0, 79, 0
2, 501950, Note_on_c, 0, 79, 105
2, 502044, Note_on_c, 0, 79, 0
2, 502070, Note_on_c, 0, 79, 105
2, 502519, Note_on_c, 0, 79, 0
2, 502550, Note_on_c, 0, 84, 105
2, 502859, Note_on_c, 0, 84, 0
2, 502910, Note_on_c, 0, 84, 105
2, 502999, Note_on_c, 0, 84, 0
2, 503030, Note_on_c, 0, 84, 105
2, 503510, Note_on_c, 0, 84, 0
2, 503990, Note_on_c, 0, 84, 105
2, 504710, Note_on_c, 0, 84, 0
2, 504710, Note_on_c, 0, 79, 105
2, 504950, Note_on_c, 0, 79, 0
2, 504950, Note_on_c, 0, 76, 105
2, 505190, Note_on_c, 0, 76, 0
2, 505190, Note_on_c, 0, 72, 105
2, 505430, Note_on_c, 0, 72, 0
2, 505430, Note_on_c, 0, 76, 105
2, 505670, Note_on_c, 0, 76, 0
2, 505670, Note_on_c, 0, 79, 105
2, 505910, Note_on_c, 0, 79, 0
2, 505910, Note_on_c, 0, 84, 105
2, 506630, Note_on_c, 0, 84, 0
2, 506630, Note_on_c, 0, 79, 105
2, 506870, Note_on_c, 0, 79, 0
2, 506870, Note_on_c, 0, 76, 105
2, 507110, Note_on_c, 0, 76, 0
2, 507110, Note_on_c, 0, 72, 105
2, 507350, Note_on_c, 0, 72, 0
2, 507350, Note_on_c, 0, 76, 105
2, 507590, Note_on_c, 0, 76, 0
2, 507590, Note_on_c, 0, 79, 105
2, 507830, Note_on_c, 0, 79, 0
2, 507830, Note_on_c, 0, 76, 105
2, 508070, Note_on_c, 0, 76, 0
2, 508070, Note_on_c, 0, 72, 105
2, 508310, Note_on_c, 0, 72, 0
2, 508310, Note_on_c, 0, 76, 105
2, 508550, Note_on_c, 0, 76, 0
2, 508550, Note_on_c, 0, 79, 105
2, 508790, Note_on_c, 0, 79, 0
2, 508790, Note_on_c, 0, 72, 105
2, 508790, Note_on_c, 0, 76, 105
2, 509270, Note_on_c, 0, 76, 0
2, 509270, Note_on_c, 0, 72, 0
2, 510710, System_exclusive, 0A, 41, 10, 42, 12, 40, 00, 7F, 00, 41, F7
2, 510710, End_track
3, 0, Start_track
3, 0, Title_t, "Oboe"
3, 0, Control_c, 1, 0, 0
3, 0, Control_c, 1, 7, 100
3, 0, Control_c, 1, 10, 60
3, 0, Control_c, 1, 91, 64
3, 0, Control_c, 1, 93, 64
3, 1, Control_c, 1, 32, 1
3, 2, Program_c, 1, 68
3, 13910, Note_on_c, 1, 72, 105
3, 16734, Note_on_c, 1, 72, 0
3, 16790, Note_on_c, 1, 72, 103
3, 16910, Note_on_c, 1, 74, 106
3, 16950, Note_on_c, 1, 72, 0
3, 17030, Note_on_c, 1, 76, 105
3, 17070, Note_on_c, 1, 74, 0
3, 17126, Note_on_c, 1, 76, 0
3, 17150, Note_on_c, 1, 72, 101
3, 17270, Note_on_c, 1, 72, 0
3, 17270, Note_on_c, 1, 77, 101
3, 17750, Note_on_c, 1, 77, 0
3, 20750, Note_on_c, 1, 71, 101
3, 20870, Note_on_c, 1, 72, 99
3, 20910, Note_on_c, 1, 71, 0
3, 20990, Note_on_c, 1, 72, 0
3, 20990, Note_on_c, 1, 72, 96
3, 21110, Note_on_c, 1, 72, 0
3, 21110, Note_on_c, 1, 74, 104
3, 23030, Note_on_c, 1, 74, 0
3, 23030, Note_on_c, 1, 72, 105
3, 24886, Note_on_c, 1, 72, 0
3, 24950, Note_on_c, 1, 69, 105
3, 25910, Note_on_c, 1, 69, 0
3, 25910, Note_on_c, 1, 64, 102
3, 26390, Note_on_c, 1, 64, 0
3, 26390, Note_on_c, 1, 62, 105
3, 26870, Note_on_c, 1, 62, 0
3, 28790, Note_on_c, 1, 74, 105
3, 30710, Note_on_c, 1, 74, 0
3, 30710, Note_on_c, 1, 72, 105
3, 32630, Note_on_c, 1, 72, 0
3, 32630, Note_on_c, 1, 72, 97
3, 34070, Note_on_c, 1, 72, 0
3, 34070, Note_on_c, 1, 69, 106
3, 34550, Note_on_c, 1, 69, 0
3, 34550, Note_on_c, 1, 67, 102
3, 34790, Note_on_c, 1, 67, 0
3, 35030, Note_on_c, 1, 71, 105
3, 35126, Note_on_c, 1, 71, 0
3, 35270, Note_on_c, 1, 71, 105
3, 35366, Note_on_c, 1, 71, 0
3, 35510, Note_on_c, 1, 72, 105
3, 35990, Note_on_c, 1, 72, 0
3, 36230, Note_on_c, 1, 72, 105
3, 36470, Note_on_c, 1, 72, 0
3, 36470, Note_on_c, 1, 71, 105
3, 36766, Note_on_c, 1, 71, 0
3, 36950, Note_on_c, 1, 71, 105
3, 37046, Note_on_c, 1, 71, 0
3, 37190, Note_on_c, 1, 71, 105
3, 37286, Note_on_c, 1, 71, 0
3, 37430, Note_on_c, 1, 72, 105
3, 37910, Note_on_c, 1, 72, 0
3, 38150, Note_on_c, 1, 72, 105
3, 38390, Note_on_c, 1, 72, 0
3, 38390, Note_on_c, 1, 71, 105
3, 38870, Note_on_c, 1, 71, 0
3, 44150, Note_on_c, 1, 76, 72
3, 44270, Note_on_c, 1, 77, 75
3, 44310, Note_on_c, 1, 76, 0
3, 44390, Note_on_c, 1, 76, 79
3, 44430, Note_on_c, 1, 77, 0
3, 44510, Note_on_c, 1, 74, 77
3, 44550, Note_on_c, 1, 76, 0
3, 44630, Note_on_c, 1, 74, 0
3, 44630, Note_on_c, 1, 72, 75
3, 45110, Note_on_c, 1, 72, 0
3, 47990, Note_on_c, 1, 76, 76
3, 48110, Note_on_c, 1, 76, 0
3, 48110, Note_on_c, 1, 77, 81
3, 48230, Note_on_c, 1, 77, 0
3, 48230, Note_on_c, 1, 76, 81
3, 48350, Note_on_c, 1, 76, 0
3, 48350, Note_on_c, 1, 74, 81
3, 48470, Note_on_c, 1, 74, 0
3, 48470, Note_on_c, 1, 72, 80
3, 48950, Note_on_c, 1, 72, 0
3, 51830, Note_on_c, 1, 76, 75
3, 51950, Note_on_c, 1, 77, 78
3, 51990, Note_on_c, 1, 76, 0
3, 52070, Note_on_c, 1, 76, 83
3, 52110, Note_on_c, 1, 77, 0
3, 52190, Note_on_c, 1, 74, 82
3, 52230, Note_on_c, 1, 76, 0
3, 52310, Note_on_c, 1, 74, 0
3, 52310, Note_on_c, 1, 72, 78
3, 52790, Note_on_c, 1, 72, 0
3, 53750, Note_on_c, 1, 81, 74
3, 53870, Note_on_c, 1, 82, 77
3, 53910, Note_on_c, 1, 81, 0
3, 53990, Note_on_c, 1, 81, 81
3, 54030, Note_on_c, 1, 82, 0
3, 54110, Note_on_c, 1, 79, 81
3, 54150, Note_on_c, 1, 81, 0
3, 54230, Note_on_c, 1, 79, 0
3, 54230, Note_on_c, 1, 77, 77
3, 54710, Note_on_c, 1, 77, 0
3, 55670, Note_on_c, 1, 79, 75
3, 55790, Note_on_c, 1, 81, 79
3, 55830, Note_on_c, 1, 79, 0
3, 55910, Note_on_c, 1, 79, 79
3, 55950, Note_on_c, 1, 81, 0
3, 56030, Note_on_c, 1, 77, 79
3, 56070, Note_on_c, 1, 79, 0
3, 56150, Note_on_c, 1, 77, 0
3, 56150, Note_on_c, 1, 76, 76
3, 56630, Note_on_c, 1, 76, 0
3, 61430, Note_on_c, 1, 76, 91
3, 61910, Note_on_c, 1, 76, 0
3, 61910, Note_on_c, 1, 76, 91
3, 62630, Note_on_c, 1, 76, 0
3, 62630, Note_on_c, 1, 77, 97
3, 62750, Note_on_c, 1, 77, 0
3, 62750, Note_on_c, 1, 76, 103
3, 62870, Note_on_c, 1, 76, 0
3, 62870, Note_on_c, 1, 74, 97
3, 63110, Note_on_c, 1, 74, 0
3, 63110, Note_on_c, 1, 72, 94
3, 63326, Note_on_c, 1, 72, 0
3, 63350, Note_on_c, 1, 67, 91
3, 63710, Note_on_c, 1, 65, 87
3, 63750, Note_on_c, 1, 67, 0
3, 63810, Note_on_c, 1, 65, 0
3, 63830, Note_on_c, 1, 64, 87
3, 64790, Note_on_c, 1, 64, 0
3, 64790, Note_on_c, 1, 62, 91
3, 65270, Note_on_c, 1, 62, 0
3, 65270, Note_on_c, 1, 64, 91
3, 65750, Note_on_c, 1, 64, 0
3, 70070, Note_on_c, 1, 72, 70
3, 70214, Note_on_c, 1, 72, 0
3, 70550, Note_on_c, 1, 74, 70
3, 70694, Note_on_c, 1, 74, 0
3, 71030, Note_on_c, 1, 76, 70
3, 71174, Note_on_c, 1, 76, 0
3, 71510, Note_on_c, 1, 74, 70
3, 71654, Note_on_c, 1, 74, 0
3, 71990, Note_on_c, 1, 72, 70
3, 72134, Note_on_c, 1, 72, 0
3, 72470, Note_on_c, 1, 71, 70
3, 72614, Note_on_c, 1, 71, 0
3, 74870, Note_on_c, 1, 72, 105
3, 75590, Note_on_c, 1, 72, 0
3, 75590, Note_on_c, 1, 74, 105
3, 75710, Note_on_c, 1, 74, 0
3, 75710, Note_on_c, 1, 76, 105
3, 75810, Note_on_c, 1, 76, 0
3, 75830, Note_on_c, 1, 76, 105
3, 76070, Note_on_c, 1, 74, 105
3, 76134, Note_on_c, 1, 76, 0
3, 76246, Note_on_c, 1, 74, 0
3, 76310, Note_on_c, 1, 72, 105
3, 76406, Note_on_c, 1, 72, 0
3, 76550, Note_on_c, 1, 71, 105
3, 76646, Note_on_c, 1, 71, 0
3, 77270, Note_on_c, 1, 67, 105
3, 77549, Note_on_c, 1, 67, 0
3, 77630, Note_on_c, 1, 67, 105
3, 77724, Note_on_c, 1, 67, 0
3, 77750, Note_on_c, 1, 67, 105
3, 78189, Note_on_c, 1, 67, 0
3, 78230, Note_on_c, 1, 72, 105
3, 78534, Note_on_c, 1, 72, 0
3, 78590, Note_on_c, 1, 72, 105
3, 78679, Note_on_c, 1, 72, 0
3, 78710, Note_on_c, 1, 72, 105
3, 79149, Note_on_c, 1, 72, 0
3, 79190, Note_on_c, 1, 76, 105
3, 79479, Note_on_c, 1, 76, 0
3, 79550, Note_on_c, 1, 76, 105
3, 79639, Note_on_c, 1, 76, 0
3, 79670, Note_on_c, 1, 76, 105
3, 80109, Note_on_c, 1, 76, 0
3, 80150, Note_on_c, 1, 76, 105
3, 80444, Note_on_c, 1, 76, 0
3, 80510, Note_on_c, 1, 76, 105
3, 80599, Note_on_c, 1, 76, 0
3, 80630, Note_on_c, 1, 76, 105
3, 81070, Note_on_c, 1, 76, 0
3, 165590, Note_on_c, 1, 78, 98
3, 165830, Note_on_c, 1, 78, 0
3, 165830, Note_on_c, 1, 78, 98
3, 166070, Note_on_c, 1, 78, 0
3, 166070, Note_on_c, 1, 79, 98
3, 166550, Note_on_c, 1, 79, 0
3, 166790, Note_on_c, 1, 79, 98
3, 167030, Note_on_c, 1, 79, 0
3, 167030, Note_on_c, 1, 78, 98
3, 167310, Note_on_c, 1, 78, 0
3, 167510, Note_on_c, 1, 78, 98
3, 167638, Note_on_c, 1, 78, 0
3, 167750, Note_on_c, 1, 78, 98
3, 167870, Note_on_c, 1, 78, 0
3, 167990, Note_on_c, 1, 79, 98
3, 168470, Note_on_c, 1, 79, 0
3, 168710, Note_on_c, 1, 79, 98
3, 168950, Note_on_c, 1, 79, 0
3, 168950, Note_on_c, 1, 78, 98
3, 169430, Note_on_c, 1, 78, 0
3, 169430, Note_on_c, 1, 74, 98
3, 169910, Note_on_c, 1, 74, 0
3, 169910, Note_on_c, 1, 62, 98
3, 170390, Note_on_c, 1, 62, 0
3, 230390, Note_on_c, 1, 67, 105
3, 233678, Note_on_c, 1, 67, 0
3, 233750, Note_on_c, 1, 67, 105
3, 233870, Note_on_c, 1, 69, 105
3, 233910, Note_on_c, 1, 67, 0
3, 233990, Note_on_c, 1, 71, 105
3, 234030, Note_on_c, 1, 69, 0
3, 234096, Note_on_c, 1, 71, 0
3, 234110, Note_on_c, 1, 67, 105
3, 234230, Note_on_c, 1, 67, 0
3, 234230, Note_on_c, 1, 72, 105
3, 234710, Note_on_c, 1, 72, 0
3, 237710, Note_on_c, 1, 78, 105
3, 237830, Note_on_c, 1, 79, 105
3, 237870, Note_on_c, 1, 78, 0
3, 237950, Note_on_c, 1, 79, 0
3, 237950, Note_on_c, 1, 79, 105
3, 238070, Note_on_c, 1, 79, 0
3, 238070, Note_on_c, 1, 81, 105
3, 239990, Note_on_c, 1, 81, 0
3, 239990, Note_on_c, 1, 79, 105
3, 241862, Note_on_c, 1, 79, 0
3, 241910, Note_on_c, 1, 76, 105
3, 242830, Note_on_c, 1, 76, 0
3, 242870, Note_on_c, 1, 71, 105
3, 243350, Note_on_c, 1, 71, 0
3, 243350, Note_on_c, 1, 69, 105
3, 243830, Note_on_c, 1, 69, 0
3, 243830, Note_on_c, 1, 67, 97
3, 244790, Note_on_c, 1, 67, 0
3, 244790, Note_on_c, 1, 76, 96
3, 245750, Note_on_c, 1, 76, 0
3, 246230, Note_on_c, 1, 71, 105
3, 246950, Note_on_c, 1, 71, 0
3, 246950, Note_on_c, 1, 72, 105
3, 247070, Note_on_c, 1, 72, 0
3, 247070, Note_on_c, 1, 71, 105
3, 247190, Note_on_c, 1, 71, 0
3, 247190, Note_on_c, 1, 69, 105
3, 247430, Note_on_c, 1, 69, 0
3, 247430, Note_on_c, 1, 67, 105
3, 247630, Note_on_c, 1, 67, 0
3, 247670, Note_on_c, 1, 71, 105
3, 248030, Note_on_c, 1, 69, 105
3, 248070, Note_on_c, 1, 71, 0
3, 248126, Note_on_c, 1, 69, 0
3, 248150, Note_on_c, 1, 67, 105
3, 249110, Note_on_c, 1, 67, 0
3, 249110, Note_on_c, 1, 66, 105
3, 249590, Note_on_c, 1, 66, 0
3, 393590, Note_on_c, 1, 71, 70
3, 397430, Note_on_c, 1, 71, 0
3, 397430, Note_on_c, 1, 72, 70
3, 401270, Note_on_c, 1, 72, 0
3, 401270, Note_on_c, 1, 71, 92
3, 401366, Note_on_c, 1, 71, 0
3, 401750, Note_on_c, 1, 71, 91
3, 401934, Note_on_c, 1, 71, 0
3, 401990, Note_on_c, 1, 71, 91
3, 402086, Note_on_c, 1, 71, 0
3, 402230, Note_on_c, 1, 72, 91
3, 402710, Note_on_c, 1, 72, 0
3, 402950, Note_on_c, 1, 72, 91
3, 403190, Note_on_c, 1, 72, 0
3, 403190, Note_on_c, 1, 71, 91
3, 403286, Note_on_c, 1, 71, 0
3, 403670, Note_on_c, 1, 71, 91
3, 403862, Note_on_c, 1, 71, 0
3, 403910, Note_on_c, 1, 71, 92
3, 404006, Note_on_c, 1, 71, 0
3, 404150, Note_on_c, 1, 72, 92
3, 404630, Note_on_c, 1, 72, 0
3, 404870, Note_on_c, 1, 72, 92
3, 405110, Note_on_c, 1, 72, 0
3, 405110, Note_on_c, 1, 71, 92
3, 405590, Note_on_c, 1, 71, 0
3, 454070, Note_on_c, 1, 72, 70
3, 454310, Note_on_c, 1, 72, 0
3, 454550, Note_on_c, 1, 74, 70
3, 454790, Note_on_c, 1, 74, 0
3, 455030, Note_on_c, 1, 76, 70
3, 455270, Note_on_c, 1, 76, 0
3, 455510, Note_on_c, 1, 74, 70
3, 455750, Note_on_c, 1, 74, 0
3, 455990, Note_on_c, 1, 72, 70
3, 456230, Note_on_c, 1, 72, 0
3, 456470, Note_on_c, 1, 71, 70
3, 456710, Note_on_c, 1, 71, 0
3, 460790, Note_on_c, 1, 76, 70
3, 461750, Note_on_c, 1, 76, 0
3, 461750, Note_on_c, 1, 74, 70
3, 462710, Note_on_c, 1, 74, 0
3, 462710, Note_on_c, 1, 72, 70
3, 463158, Note_on_c, 1, 72, 0
3, 463190, Note_on_c, 1, 72, 70
3, 463430, Note_on_c, 1, 72, 0
3, 463670, Note_on_c, 1, 76, 70
3, 464150, Note_on_c, 1, 76, 0
3, 464150, Note_on_c, 1, 72, 70
3, 464630, Note_on_c, 1, 72, 0
3, 465110, Note_on_c, 1, 71, 80
3, 465350, Note_on_c, 1, 71, 0
3, 465590, Note_on_c, 1, 74, 80
3, 466070, Note_on_c, 1, 74, 0
3, 466070, Note_on_c, 1, 71, 90
3, 466526, Note_on_c, 1, 71, 0
3, 470390, Note_on_c, 1, 76, 105
3, 471110, Note_on_c, 1, 76, 0
3, 471110, Note_on_c, 1, 74, 105
3, 471350, Note_on_c, 1, 74, 0
3, 471350, Note_on_c, 1, 72, 105
3, 472070, Note_on_c, 1, 72, 0
3, 472070, Note_on_c, 1, 71, 105
3, 472310, Note_on_c, 1, 71, 0
3, 472310, Note_on_c, 1, 69, 105
3, 473030, Note_on_c, 1, 69, 0
3, 473030, Note_on_c, 1, 67, 105
3, 473270, Note_on_c, 1, 67, 0
3, 473270, Note_on_c, 1, 65, 105
3, 473990, Note_on_c, 1, 65, 0
3, 473990, Note_on_c, 1, 64, 105
3, 474230, Note_on_c, 1, 64, 0
3, 474230, Note_on_c, 1, 69, 105
3, 476150, Note_on_c, 1, 69, 0
3, 476150, Note_on_c, 1, 67, 105
3, 476334, Note_on_c, 1, 67, 0
3, 476630, Note_on_c, 1, 71, 105
3, 476830, Note_on_c, 1, 71, 0
3, 476870, Note_on_c, 1, 71, 105
3, 476982, Note_on_c, 1, 71, 0
3, 477110, Note_on_c, 1, 72, 105
3, 477590, Note_on_c, 1, 72, 0
3, 477830, Note_on_c, 1, 72, 105
3, 478070, Note_on_c, 1, 72, 0
3, 478070, Note_on_c, 1, 71, 105
3, 478278, Note_on_c, 1, 71, 0
3, 478550, Note_on_c, 1, 71, 105
3, 478758, Note_on_c, 1, 71, 0
3, 478790, Note_on_c, 1, 71, 105
3, 478918, Note_on_c, 1, 71, 0
3, 479030, Note_on_c, 1, 72, 105
3, 479510, Note_on_c, 1, 72, 0
3, 479750, Note_on_c, 1, 76, 105
3, 479990, Note_on_c, 1, 76, 0
3, 481910, Note_on_c, 1, 72, 105
3, 485214, Note_on_c, 1, 72, 0
3, 485270, Note_on_c, 1, 72, 105
3, 485390, Note_on_c, 1, 74, 105
3, 485430, Note_on_c, 1, 72, 0
3, 485510, Note_on_c, 1, 76, 105
3, 485550, Note_on_c, 1, 74, 0
3, 485630, Note_on_c, 1, 76, 0
3, 485630, Note_on_c, 1, 72, 105
3, 485750, Note_on_c, 1, 72, 0
3, 485750, Note_on_c, 1, 77, 105
3, 486230, Note_on_c, 1, 77, 0
3, 489230, Note_on_c, 1, 71, 105
3, 489350, Note_on_c, 1, 72, 105
3, 489390, Note_on_c, 1, 71, 0
3, 489470, Note_on_c, 1, 72, 0
3, 489470, Note_on_c, 1, 72, 105
3, 489590, Note_on_c, 1, 72, 0
3, 489590, Note_on_c, 1, 74, 105
3, 491510, Note_on_c, 1, 74, 0
3, 491510, Note_on_c, 1, 72, 105
3, 493430, Note_on_c, 1, 72, 0
3, 493430, Note_on_c, 1, 69, 105
3, 494390, Note_on_c, 1, 69, 0
3, 494390, Note_on_c, 1, 64, 105
3, 494870, Note_on_c, 1, 64, 0
3, 494870, Note_on_c, 1, 62, 98
3, 495350, Note_on_c, 1, 62, 0
3, 495350, Note_on_c, 1, 67, 96
3, 496310, Note_on_c, 1, 67, 0
3, 496310, Note_on_c, 1, 72, 96
3, 497270, Note_on_c, 1, 72, 0
3, 497270, Note_on_c, 1, 72, 105
3, 497990, Note_on_c, 1, 72, 0
3, 497990, Note_on_c, 1, 74, 105
3, 498110, Note_on_c, 1, 74, 0
3, 498110, Note_on_c, 1, 76, 105
3, 498206, Note_on_c, 1, 76, 0
3, 498230, Note_on_c, 1, 76, 105
3, 498470, Note_on_c, 1, 74, 105
3, 498526, Note_on_c, 1, 76, 0
3, 498654, Note_on_c, 1, 74, 0
3, 498710, Note_on_c, 1, 72, 105
3, 498806, Note_on_c, 1, 72, 0
3, 498950, Note_on_c, 1, 71, 105
3, 499046, Note_on_c, 1, 71, 0
3, 499670, Note_on_c, 1, 67, 105
3, 499974, Note_on_c, 1, 67, 0
3, 500030, Note_on_c, 1, 67, 105
3, 500119, Note_on_c, 1, 67, 0
3, 500150, Note_on_c, 1, 67, 105
3, 500604, Note_on_c, 1, 67, 0
3, 500630, Note_on_c, 1, 72, 105
3, 500959, Note_on_c, 1, 72, 0
3, 500990, Note_on_c, 1, 72, 105
3, 501084, Note_on_c, 1, 72, 0
3, 501110, Note_on_c, 1, 72, 105
3, 501549, Note_on_c, 1, 72, 0
3, 501590, Note_on_c, 1, 76, 105
3, 501909, Note_on_c, 1, 76, 0
3, 501950, Note_on_c, 1, 76, 105
3, 502044, Note_on_c, 1, 76, 0
3, 502070, Note_on_c, 1, 76, 105
3, 502519, Note_on_c, 1, 76, 0
3, 502550, Note_on_c, 1, 76, 105
3, 502854, Note_on_c, 1, 76, 0
3, 502910, Note_on_c, 1, 76, 105
3, 503004, Note_on_c, 1, 76, 0
3, 503030, Note_on_c, 1, 76, 105
3, 503510, Note_on_c, 1, 76, 0
3, 508790, Note_on_c, 1, 72, 105
3, 509270, Note_on_c, 1, 72, 0
3, 510710, System_exclusive, 0A, 41, 10, 42, 12, 40, 00, 7F, 00, 41, F7
3, 510710, End_track
4, 0, Start_track
4, 0, Title_t, "Corni in C"
4, 0, Control_c, 2, 0, 0
4, 0, Control_c, 2, 7, 100
4, 0, Control_c, 2, 10, 80
4, 0, Control_c, 2, 91, 58
4, 0, Control_c, 2, 93, 49
4, 1, Control_c, 2, 32, 1
4, 2, Program_c, 2, 60
4, 1920, Note_on_c, 2, 60, 105
4, 2604, Note_on_c, 2, 60, 0
4, 2640, Note_on_c, 2, 55, 105
4, 2868, Note_on_c, 2, 55, 0
4, 2880, Note_on_c, 2, 52, 105
4, 3108, Note_on_c, 2, 52, 0
4, 3120, Note_on_c, 2, 48, 105
4, 3348, Note_on_c, 2, 48, 0
4, 3360, Note_on_c, 2, 52, 105
4, 3588, Note_on_c, 2, 52, 0
4, 3600, Note_on_c, 2, 55, 105
4, 3828, Note_on_c, 2, 55, 0
4, 3840, Note_on_c, 2, 60, 105
4, 4524, Note_on_c, 2, 60, 0
4, 4560, Note_on_c, 2, 55, 105
4, 4788, Note_on_c, 2, 55, 0
4, 4800, Note_on_c, 2, 52, 105
4, 5028, Note_on_c, 2, 52, 0
4, 5040, Note_on_c, 2, 48, 105
4, 5268, Note_on_c, 2, 48, 0
4, 5280, Note_on_c, 2, 52, 105
4, 5508, Note_on_c, 2, 52, 0
4, 5520, Note_on_c, 2, 55, 105
4, 5748, Note_on_c, 2, 55, 0
4, 5760, Note_on_c, 2, 60, 105
4, 6216, Note_on_c, 2, 60, 0
4, 7680, Note_on_c, 2, 62, 92
4, 8160, Note_on_c, 2, 62, 0
4, 9600, Note_on_c, 2, 52, 89
4, 9600, Note_on_c, 2, 64, 89
4, 10080, Note_on_c, 2, 64, 0
4, 10080, Note_on_c, 2, 52, 0
4, 13440, Note_on_c, 2, 48, 105
4, 13440, Note_on_c, 2, 60, 105
4, 16739, Note_on_c, 2, 60, 0
4, 16739, Note_on_c, 2, 48, 0
4, 16800, Note_on_c, 2, 48, 105
4, 16800, Note_on_c, 2, 60, 105
4, 17089, Note_on_c, 2, 48, 0
4, 17099, Note_on_c, 2, 60, 0
4, 17160, Note_on_c, 2, 48, 105
4, 17160, Note_on_c, 2, 60, 105
4, 17258, Note_on_c, 2, 60, 0
4, 17259, Note_on_c, 2, 48, 0
4, 17280, Note_on_c, 2, 48, 70
4, 17280, Note_on_c, 2, 60, 70
4, 20509, Note_on_c, 2, 48, 0
4, 20519, Note_on_c, 2, 60, 0
4, 20640, Note_on_c, 2, 48, 105
4, 20640, Note_on_c, 2, 60, 105
4, 20919, Note_on_c, 2, 48, 0
4, 20929, Note_on_c, 2, 60, 0
4, 21000, Note_on_c, 2, 48, 105
4, 21000, Note_on_c, 2, 60, 105
4, 21109, Note_on_c, 2, 60, 0
4, 21109, Note_on_c, 2, 48, 0
4, 21120, Note_on_c, 2, 55, 105
4, 21120, Note_on_c, 2, 62, 105
4, 23040, Note_on_c, 2, 62, 0
4, 23040, Note_on_c, 2, 55, 0
4, 23040, Note_on_c, 2, 60, 105
4, 23040, Note_on_c, 2, 64, 105
4, 24960, Note_on_c, 2, 64, 0
4, 24960, Note_on_c, 2, 60, 0
4, 24960, Note_on_c, 2, 62, 105
4, 24960, Note_on_c, 2, 65, 105
4, 25920, Note_on_c, 2, 65, 0
4, 25920, Note_on_c, 2, 62, 0
4, 25920, Note_on_c, 2, 60, 105
4, 25920, Note_on_c, 2, 64, 105
4, 26400, Note_on_c, 2, 64, 0
4, 26400, Note_on_c, 2, 60, 0
4, 26400, Note_on_c, 2, 55, 105
4, 26400, Note_on_c, 2, 62, 105
4, 26880, Note_on_c, 2, 62, 0
4, 26880, Note_on_c, 2, 55, 0
4, 26880, Note_on_c, 2, 48, 70
4, 26880, Note_on_c, 2, 60, 70
4, 27072, Note_on_c, 2, 60, 0
4, 27072, Note_on_c, 2, 48, 0
4, 27120, Note_on_c, 2, 62, 70
4, 27312, Note_on_c, 2, 62, 0
4, 27360, Note_on_c, 2, 52, 70
4, 27360, Note_on_c, 2, 64, 70
4, 27552, Note_on_c, 2, 64, 0
4, 27552, Note_on_c, 2, 52, 0
4, 27600, Note_on_c, 2, 65, 70
4, 27792, Note_on_c, 2, 65, 0
4, 27840, Note_on_c, 2, 55, 70
4, 27840, Note_on_c, 2, 67, 70
4, 28320, Note_on_c, 2, 67, 0
4, 28320, Note_on_c, 2, 55, 0
4, 28800, Note_on_c, 2, 55, 105
4, 28800, Note_on_c, 2, 62, 105
4, 29760, Note_on_c, 2, 62, 0
4, 29760, Note_on_c, 2, 55, 0
4, 29760, Note_on_c, 2, 55, 105
4, 29760, Note_on_c, 2, 62, 105
4, 30240, Note_on_c, 2, 62, 0
4, 30240, Note_on_c, 2, 55, 0
4, 30240, Note_on_c, 2, 55, 105
4, 30240, Note_on_c, 2, 62, 105
4, 30720, Note_on_c, 2, 62, 0
4, 30720, Note_on_c, 2, 55, 0
4, 30720, Note_on_c, 2, 60, 105
4, 30720, Note_on_c, 2, 64, 105
4, 31680, Note_on_c, 2, 64, 0
4, 31680, Note_on_c, 2, 60, 0
4, 31680, Note_on_c, 2, 60, 105
4, 31680, Note_on_c, 2, 64, 105
4, 32160, Note_on_c, 2, 64, 0
4, 32160, Note_on_c, 2, 60, 0
4, 32160, Note_on_c, 2, 60, 105
4, 32160, Note_on_c, 2, 64, 105
4, 32640, Note_on_c, 2, 64, 0
4, 32640, Note_on_c, 2, 60, 0
4, 32640, Note_on_c, 2, 62, 105
4, 32640, Note_on_c, 2, 60, 105
4, 32880, Note_on_c, 2, 62, 0
4, 32880, Note_on_c, 2, 64, 105
4, 33120, Note_on_c, 2, 64, 0
4, 33120, Note_on_c, 2, 65, 105
4, 33360, Note_on_c, 2, 65, 0
4, 33360, Note_on_c, 2, 67, 105
4, 33600, Note_on_c, 2, 67, 0
4, 33600, Note_on_c, 2, 65, 105
4, 34080, Note_on_c, 2, 65, 0
4, 34080, Note_on_c, 2, 60, 0
4, 34080, Note_on_c, 2, 62, 105
4, 34080, Note_on_c, 2, 60, 105
4, 34560, Note_on_c, 2, 60, 0
4, 34560, Note_on_c, 2, 62, 0
4, 34560, Note_on_c, 2, 55, 105
4, 34560, Note_on_c, 2, 62, 105
4, 35040, Note_on_c, 2, 62, 0
4, 35040, Note_on_c, 2, 55, 0
4, 35280, Note_on_c, 2, 55, 105
4, 35280, Note_on_c, 2, 62, 105
4, 35520, Note_on_c, 2, 62, 0
4, 35520, Note_on_c, 2, 55, 0
4, 35520, Note_on_c, 2, 60, 105
4, 35520, Note_on_c, 2, 64, 105
4, 35760, Note_on_c, 2, 64, 0
4, 35760, Note_on_c, 2, 60, 0
4, 35760, Note_on_c, 2, 60, 105
4, 35760, Note_on_c, 2, 64, 105
4, 36000, Note_on_c, 2, 64, 0
4, 36000, Note_on_c, 2, 60, 0
4, 36000, Note_on_c, 2, 60, 105
4, 36000, Note_on_c, 2, 64, 105
4, 36240, Note_on_c, 2, 64, 0
4, 36240, Note_on_c, 2, 60, 0
4, 36240, Note_on_c, 2, 60, 105
4, 36240, Note_on_c, 2, 64, 105
4, 36480, Note_on_c, 2, 64, 0
4, 36480, Note_on_c, 2, 60, 0
4, 36480, Note_on_c, 2, 55, 105
4, 36480, Note_on_c, 2, 62, 105
4, 36960, Note_on_c, 2, 62, 0
4, 36960, Note_on_c, 2, 55, 0
4, 37200, Note_on_c, 2, 55, 105
4, 37200, Note_on_c, 2, 62, 105
4, 37440, Note_on_c, 2, 62, 0
4, 37440, Note_on_c, 2, 55, 0
4, 37440, Note_on_c, 2, 60, 105
4, 37440, Note_on_c, 2, 64, 105
4, 37680, Note_on_c, 2, 64, 0
4, 37680, Note_on_c, 2, 60, 0
4, 37680, Note_on_c, 2, 60, 105
4, 37680, Note_on_c, 2, 64, 105
4, 37920, Note_on_c, 2, 64, 0
4, 37920, Note_on_c, 2, 60, 0
4, 37920, Note_on_c, 2, 60, 105
4, 37920, Note_on_c, 2, 64, 105
4, 38160, Note_on_c, 2, 64, 0
4, 38160, Note_on_c, 2, 60, 0
4, 38160, Note_on_c, 2, 60, 105
4, 38160, Note_on_c, 2, 64, 105
4, 38400, Note_on_c, 2, 64, 0
4, 38400, Note_on_c, 2, 60, 0
4, 38400, Note_on_c, 2, 55, 105
4, 38400, Note_on_c, 2, 62, 105
4, 38880, Note_on_c, 2, 62, 0
4, 38880, Note_on_c, 2, 55, 0
4, 38880, Note_on_c, 2, 55, 105
4, 38880, Note_on_c, 2, 67, 105
4, 39360, Note_on_c, 2, 67, 0
4, 39360, Note_on_c, 2, 55, 0
4, 39360, Note_on_c, 2, 55, 105
4, 39840, Note_on_c, 2, 55, 0
4, 40320, Note_on_c, 2, 60, 70
4, 42240, Note_on_c, 2, 60, 0
4, 42240, Note_on_c, 2, 55, 70
4, 44160, Note_on_c, 2, 55, 0
4, 44160, Note_on_c, 2, 48, 70
4, 44640, Note_on_c, 2, 48, 0
4, 51840, Note_on_c, 2, 48, 70
4, 51840, Note_on_c, 2, 60, 70
4, 58080, Note_on_c, 2, 60, 0
4, 58080, Note_on_c, 2, 48, 0
4, 61440, Note_on_c, 2, 64, 95
4, 61440, Note_on_c, 2, 67, 95
4, 61920, Note_on_c, 2, 67, 0
4, 61920, Note_on_c, 2, 64, 0
4, 61920, Note_on_c, 2, 64, 95
4, 61920, Note_on_c, 2, 67, 95
4, 62880, Note_on_c, 2, 67, 0
4, 62880, Note_on_c, 2, 64, 0
4, 62880, Note_on_c, 2, 62, 96
4, 62880, Note_on_c, 2, 65, 96
4, 63120, Note_on_c, 2, 65, 0
4, 63120, Note_on_c, 2, 62, 0
4, 63120, Note_on_c, 2, 60, 97
4, 63120, Note_on_c, 2, 64, 97
4, 63360, Note_on_c, 2, 64, 0
4, 63360, Note_on_c, 2, 60, 0
4, 63360, Note_on_c, 2, 64, 97
4, 63360, Note_on_c, 2, 67, 97
4, 63720, Note_on_c, 2, 67, 0
4, 63720, Note_on_c, 2, 64, 0
4, 63720, Note_on_c, 2, 62, 97
4, 63720, Note_on_c, 2, 65, 97
4, 63840, Note_on_c, 2, 65, 0
4, 63840, Note_on_c, 2, 62, 0
4, 63840, Note_on_c, 2, 60, 97
4, 63840, Note_on_c, 2, 64, 97
4, 64800, Note_on_c, 2, 64, 0
4, 64800, Note_on_c, 2, 60, 0
4, 64800, Note_on_c, 2, 55, 105
4, 64800, Note_on_c, 2, 62, 105
4, 65280, Note_on_c, 2, 62, 0
4, 65280, Note_on_c, 2, 55, 0
4, 65280, Note_on_c, 2, 52, 105
4, 65280, Note_on_c, 2, 60, 105
4, 65760, Note_on_c, 2, 60, 0
4, 65760, Note_on_c, 2, 52, 0
4, 66240, Note_on_c, 2, 60, 70
4, 66240, Note_on_c, 2, 64, 70
4, 66480, Note_on_c, 2, 64, 0
4, 66480, Note_on_c, 2, 60, 0
4, 66720, Note_on_c, 2, 55, 70
4, 66720, Note_on_c, 2, 62, 70
4, 66960, Note_on_c, 2, 62, 0
4, 66960, Note_on_c, 2, 55, 0
4, 67200, Note_on_c, 2, 52, 70
4, 67200, Note_on_c, 2, 60, 70
4, 67680, Note_on_c, 2, 60, 0
4, 67680, Note_on_c, 2, 52, 0
4, 68160, Note_on_c, 2, 60, 70
4, 68160, Note_on_c, 2, 64, 70
4, 68400, Note_on_c, 2, 64, 0
4, 68400, Note_on_c, 2, 60, 0
4, 68640, Note_on_c, 2, 55, 70
4, 68640, Note_on_c, 2, 62, 70
4, 68880, Note_on_c, 2, 62, 0
4, 68880, Note_on_c, 2, 55, 0
4, 69120, Note_on_c, 2, 52, 70
4, 69120, Note_on_c, 2, 60, 70
4, 69600, Note_on_c, 2, 60, 0
4, 69600, Note_on_c, 2, 52, 0
4, 70080, Note_on_c, 2, 60, 70
4, 70080, Note_on_c, 2, 64, 70
4, 70320, Note_on_c, 2, 64, 0
4, 70320, Note_on_c, 2, 60, 0
4, 70560, Note_on_c, 2, 55, 70
4, 70560, Note_on_c, 2, 62, 70
4, 70800, Note_on_c, 2, 62, 0
4, 70800, Note_on_c, 2, 55, 0
4, 71040, Note_on_c, 2, 52, 70
4, 71040, Note_on_c, 2, 60, 70
4, 71280, Note_on_c, 2, 60, 0
4, 71280, Note_on_c, 2, 52, 0
4, 71520, Note_on_c, 2, 55, 70
4, 71520, Note_on_c, 2, 62, 70
4, 71760, Note_on_c, 2, 62, 0
4, 71760, Note_on_c, 2, 55, 0
4, 72000, Note_on_c, 2, 60, 70
4, 72000, Note_on_c, 2, 64, 70
4, 72240, Note_on_c, 2, 64, 0
4, 72240, Note_on_c, 2, 60, 0
4, 72480, Note_on_c, 2, 55, 70
4, 72480, Note_on_c, 2, 62, 70
4, 72720, Note_on_c, 2, 62, 0
4, 72720, Note_on_c, 2, 55, 0
4, 72960, Note_on_c, 2, 48, 105
4, 72960, Note_on_c, 2, 60, 105
4, 73440, Note_on_c, 2, 60, 0
4, 73440, Note_on_c, 2, 48, 0
4, 73440, Note_on_c, 2, 60, 105
4, 73680, Note_on_c, 2, 60, 0
4, 73680, Note_on_c, 2, 60, 105
4, 73920, Note_on_c, 2, 60, 0
4, 73920, Note_on_c, 2, 60, 105
4, 73920, Note_on_c, 2, 62, 105
4, 74400, Note_on_c, 2, 62, 0
4, 74400, Note_on_c, 2, 60, 0
4, 74400, Note_on_c, 2, 60, 105
4, 74400, Note_on_c, 2, 62, 105
4, 74640, Note_on_c, 2, 62, 0
4, 74640, Note_on_c, 2, 60, 0
4, 74640, Note_on_c, 2, 60, 105
4, 74640, Note_on_c, 2, 62, 105
4, 74880, Note_on_c, 2, 62, 0
4, 74880, Note_on_c, 2, 60, 0
4, 74880, Note_on_c, 2, 60, 105
4, 74880, Note_on_c, 2, 64, 105
4, 75360, Note_on_c, 2, 64, 0
4, 75360, Note_on_c, 2, 60, 0
4, 75360, Note_on_c, 2, 64, 105
4, 75360, Note_on_c, 2, 60, 105
4, 75600, Note_on_c, 2, 60, 0
4, 75600, Note_on_c, 2, 64, 0
4, 75600, Note_on_c, 2, 60, 105
4, 75600, Note_on_c, 2, 64, 105
4, 75840, Note_on_c, 2, 64, 0
4, 75840, Note_on_c, 2, 60, 0
4, 75840, Note_on_c, 2, 64, 105
4, 75840, Note_on_c, 2, 67, 105
4, 76080, Note_on_c, 2, 67, 0
4, 76080, Note_on_c, 2, 64, 0
4, 76080, Note_on_c, 2, 62, 105
4, 76080, Note_on_c, 2, 65, 105
4, 76320, Note_on_c, 2, 65, 0
4, 76320, Note_on_c, 2, 62, 0
4, 76320, Note_on_c, 2, 60, 105
4, 76320, Note_on_c, 2, 64, 105
4, 76416, Note_on_c, 2, 64, 0
4, 76416, Note_on_c, 2, 60, 0
4, 76560, Note_on_c, 2, 55, 105
4, 76560, Note_on_c, 2, 62, 105
4, 76656, Note_on_c, 2, 62, 0
4, 76656, Note_on_c, 2, 55, 0
4, 76800, Note_on_c, 2, 52, 105
4, 76800, Note_on_c, 2, 60, 105
4, 77224, Note_on_c, 2, 60, 0
4, 77224, Note_on_c, 2, 52, 0
4, 77280, Note_on_c, 2, 52, 105
4, 77280, Note_on_c, 2, 60, 105
4, 77599, Note_on_c, 2, 60, 0
4, 77599, Note_on_c, 2, 52, 0
4, 77640, Note_on_c, 2, 52, 105
4, 77640, Note_on_c, 2, 60, 105
4, 77724, Note_on_c, 2, 52, 0
4, 77729, Note_on_c, 2, 60, 0
4, 77760, Note_on_c, 2, 52, 105
4, 77760, Note_on_c, 2, 60, 105
4, 78189, Note_on_c, 2, 60, 0
4, 78204, Note_on_c, 2, 52, 0
4, 78240, Note_on_c, 2, 60, 105
4, 78240, Note_on_c, 2, 64, 105
4, 78549, Note_on_c, 2, 64, 0
4, 78559, Note_on_c, 2, 60, 0
4, 78600, Note_on_c, 2, 60, 105
4, 78600, Note_on_c, 2, 64, 105
4, 78684, Note_on_c, 2, 64, 0
4, 78684, Note_on_c, 2, 60, 0
4, 78720, Note_on_c, 2, 60, 105
4, 78720, Note_on_c, 2, 64, 105
4, 79159, Note_on_c, 2, 64, 0
4, 79164, Note_on_c, 2, 60, 0
4, 79200, Note_on_c, 2, 64, 105
4, 79200, Note_on_c, 2, 67, 105
4, 79504, Note_on_c, 2, 67, 0
4, 79524, Note_on_c, 2, 64, 0
4, 79560, Note_on_c, 2, 64, 105
4, 79560, Note_on_c, 2, 67, 105
4, 79644, Note_on_c, 2, 67, 0
4, 79649, Note_on_c, 2, 64, 0
4, 79680, Note_on_c, 2, 64, 105
4, 79680, Note_on_c, 2, 67, 105
4, 80109, Note_on_c, 2, 64, 0
4, 80160, Note_on_c, 2, 67, 0
4, 80160, Note_on_c, 2, 60, 105
4, 80160, Note_on_c, 2, 64, 105
4, 80469, Note_on_c, 2, 60, 0
4, 80489, Note_on_c, 2, 64, 0
4, 80520, Note_on_c, 2, 60, 105
4, 80520, Note_on_c, 2, 64, 105
4, 80609, Note_on_c, 2, 60, 0
4, 80624, Note_on_c, 2, 64, 0
4, 80640, Note_on_c, 2, 60, 105
4, 80640, Note_on_c, 2, 64, 105
4, 81120, Note_on_c, 2, 64, 0
4, 81120, Note_on_c, 2, 60, 0
4, 82560, Note_on_c, 2, 55, 70
4, 82560, Note_on_c, 2, 67, 70
4, 83040, Note_on_c, 2, 67, 0
4, 83040, Note_on_c, 2, 55, 0
4, 84480, Note_on_c, 2, 48, 70
4, 84480, Note_on_c, 2, 60, 70
4, 84960, Note_on_c, 2, 60, 0
4, 84960, Note_on_c, 2, 48, 0
4, 165120, Note_on_c, 2, 62, 105
4, 165600, Note_on_c, 2, 62, 0
4, 165840, Note_on_c, 2, 62, 105
4, 166080, Note_on_c, 2, 62, 0
4, 166080, Note_on_c, 2, 55, 105
4, 166080, Note_on_c, 2, 62, 105
4, 166320, Note_on_c, 2, 62, 0
4, 166320, Note_on_c, 2, 55, 0
4, 166320, Note_on_c, 2, 55, 105
4, 166320, Note_on_c, 2, 62, 105
4, 166560, Note_on_c, 2, 62, 0
4, 166560, Note_on_c, 2, 55, 0
4, 166560, Note_on_c, 2, 55, 105
4, 166560, Note_on_c, 2, 62, 105
4, 166800, Note_on_c, 2, 62, 0
4, 166800, Note_on_c, 2, 55, 0
4, 166800, Note_on_c, 2, 55, 105
4, 166800, Note_on_c, 2, 62, 105
4, 167040, Note_on_c, 2, 62, 0
4, 167040, Note_on_c, 2, 55, 0
4, 167040, Note_on_c, 2, 62, 105
4, 167520, Note_on_c, 2, 62, 0
4, 167760, Note_on_c, 2, 62, 105
4, 168000, Note_on_c, 2, 62, 0
4, 168000, Note_on_c, 2, 55, 105
4, 168000, Note_on_c, 2, 62, 105
4, 168240, Note_on_c, 2, 62, 0
4, 168240, Note_on_c, 2, 55, 0
4, 168240, Note_on_c, 2, 55, 105
4, 168240, Note_on_c, 2, 62, 105
4, 168480, Note_on_c, 2, 62, 0
4, 168480, Note_on_c, 2, 55, 0
4, 168480, Note_on_c, 2, 55, 105
4, 168480, Note_on_c, 2, 62, 105
4, 168720, Note_on_c, 2, 62, 0
4, 168720, Note_on_c, 2, 55, 0
4, 168720, Note_on_c, 2, 55, 105
4, 168720, Note_on_c, 2, 62, 105
4, 168960, Note_on_c, 2, 62, 0
4, 168960, Note_on_c, 2, 55, 0
4, 168960, Note_on_c, 2, 62, 105
4, 169440, Note_on_c, 2, 62, 0
4, 169440, Note_on_c, 2, 62, 105
4, 169920, Note_on_c, 2, 62, 0
4, 169920, Note_on_c, 2, 62, 105
4, 170400, Note_on_c, 2, 62, 0
4, 182400, Note_on_c, 2, 55, 70
4, 188160, Note_on_c, 2, 55, 0
4, 230400, Note_on_c, 2, 55, 105
4, 233760, Note_on_c, 2, 55, 0
4, 233760, Note_on_c, 2, 55, 105
4, 234120, Note_on_c, 2, 55, 0
4, 234120, Note_on_c, 2, 55, 105
4, 234240, Note_on_c, 2, 55, 0
4, 234240, Note_on_c, 2, 55, 105
4, 235200, Note_on_c, 2, 55, 0
4, 235200, Note_on_c, 2, 55, 70
4, 237600, Note_on_c, 2, 55, 0
4, 237600, Note_on_c, 2, 55, 105
4, 237600, Note_on_c, 2, 62, 105
4, 237960, Note_on_c, 2, 62, 0
4, 237960, Note_on_c, 2, 55, 0
4, 237960, Note_on_c, 2, 55, 105
4, 237960, Note_on_c, 2, 62, 105
4, 238080, Note_on_c, 2, 62, 0
4, 238080, Note_on_c, 2, 55, 0
4, 238080, Note_on_c, 2, 62, 105
4, 240000, Note_on_c, 2, 62, 0
4, 240000, Note_on_c, 2, 55, 105
4, 240000, Note_on_c, 2, 62, 105
4, 241920, Note_on_c, 2, 62, 0
4, 241920, Note_on_c, 2, 55, 0
4, 241920, Note_on_c, 2, 60, 105
4, 241920, Note_on_c, 2, 64, 105
4, 242880, Note_on_c, 2, 64, 0
4, 242880, Note_on_c, 2, 60, 0
4, 242880, Note_on_c, 2, 62, 105
4, 243360, Note_on_c, 2, 62, 0
4, 243360, Note_on_c, 2, 62, 105
4, 243840, Note_on_c, 2, 62, 0
4, 243840, Note_on_c, 2, 55, 105
4, 243840, Note_on_c, 2, 62, 105
4, 244320, Note_on_c, 2, 62, 0
4, 244320, Note_on_c, 2, 55, 0
4, 244320, Note_on_c, 2, 55, 105
4, 244320, Note_on_c, 2, 62, 105
4, 244560, Note_on_c, 2, 62, 0
4, 244560, Note_on_c, 2, 55, 0
4, 244560, Note_on_c, 2, 55, 105
4, 244560, Note_on_c, 2, 62, 105
4, 244800, Note_on_c, 2, 62, 0
4, 244800, Note_on_c, 2, 55, 0
4, 244800, Note_on_c, 2, 60, 105
4, 244800, Note_on_c, 2, 64, 105
4, 245280, Note_on_c, 2, 64, 0
4, 245280, Note_on_c, 2, 60, 0
4, 245280, Note_on_c, 2, 60, 105
4, 245280, Note_on_c, 2, 64, 105
4, 245520, Note_on_c, 2, 64, 0
4, 245520, Note_on_c, 2, 60, 0
4, 245520, Note_on_c, 2, 60, 105
4, 245520, Note_on_c, 2, 64, 105
4, 245760, Note_on_c, 2, 64, 0
4, 245760, Note_on_c, 2, 60, 0
4, 245760, Note_on_c, 2, 62, 105
4, 248160, Note_on_c, 2, 62, 0
4, 248160, Note_on_c, 2, 62, 105
4, 248520, Note_on_c, 2, 62, 0
4, 248520, Note_on_c, 2, 62, 105
4, 248640, Note_on_c, 2, 62, 0
4, 248640, Note_on_c, 2, 62, 105
4, 249120, Note_on_c, 2, 62, 0
4, 249120, Note_on_c, 2, 62, 105
4, 249600, Note_on_c, 2, 62, 0
4, 249600, Note_on_c, 2, 55, 105
4, 249600, Note_on_c, 2, 62, 105
4, 250080, Note_on_c, 2, 62, 0
4, 250080, Note_on_c, 2, 55, 0
4, 318720, Note_on_c, 2, 55, 70
4, 320640, Note_on_c, 2, 55, 0
4, 320640, Note_on_c, 2, 55, 90
4, 322560, Note_on_c, 2, 55, 0
4, 322560, Note_on_c, 2, 55, 105
4, 324480, Note_on_c, 2, 55, 0
4, 324480, Note_on_c, 2, 60, 105
4, 325164, Note_on_c, 2, 60, 0
4, 325200, Note_on_c, 2, 55, 105
4, 325428, Note_on_c, 2, 55, 0
4, 325440, Note_on_c, 2, 52, 105
4, 325668, Note_on_c, 2, 52, 0
4, 325680, Note_on_c, 2, 48, 105
4, 325908, Note_on_c, 2, 48, 0
4, 325920, Note_on_c, 2, 52, 105
4, 326148, Note_on_c, 2, 52, 0
4, 326160, Note_on_c, 2, 55, 105
4, 326388, Note_on_c, 2, 55, 0
4, 326400, Note_on_c, 2, 60, 105
4, 327084, Note_on_c, 2, 60, 0
4, 327120, Note_on_c, 2, 55, 105
4, 327348, Note_on_c, 2, 55, 0
4, 327360, Note_on_c, 2, 52, 105
4, 327588, Note_on_c, 2, 52, 0
4, 327600, Note_on_c, 2, 48, 105
4, 327828, Note_on_c, 2, 48, 0
4, 327840, Note_on_c, 2, 52, 105
4, 328068, Note_on_c, 2, 52, 0
4, 328080, Note_on_c, 2, 55, 105
4, 328308, Note_on_c, 2, 55, 0
4, 328320, Note_on_c, 2, 60, 105
4, 328776, Note_on_c, 2, 60, 0
4, 330240, Note_on_c, 2, 62, 105
4, 330720, Note_on_c, 2, 62, 0
4, 332160, Note_on_c, 2, 52, 105
4, 332160, Note_on_c, 2, 64, 105
4, 332640, Note_on_c, 2, 64, 0
4, 332640, Note_on_c, 2, 52, 0
4, 393600, Note_on_c, 2, 55, 70
4, 393600, Note_on_c, 2, 62, 70
4, 397440, Note_on_c, 2, 62, 0
4, 397440, Note_on_c, 2, 55, 0
4, 397440, Note_on_c, 2, 60, 70
4, 397440, Note_on_c, 2, 64, 70
4, 401280, Note_on_c, 2, 64, 0
4, 401280, Note_on_c, 2, 60, 0
4, 401280, Note_on_c, 2, 55, 105
4, 401280, Note_on_c, 2, 62, 105
4, 401760, Note_on_c, 2, 62, 0
4, 401760, Note_on_c, 2, 55, 0
4, 402000, Note_on_c, 2, 55, 105
4, 402000, Note_on_c, 2, 62, 105
4, 402240, Note_on_c, 2, 62, 0
4, 402240, Note_on_c, 2, 55, 0
4, 402240, Note_on_c, 2, 60, 105
4, 402240, Note_on_c, 2, 64, 105
4, 402480, Note_on_c, 2, 64, 0
4, 402480, Note_on_c, 2, 60, 0
4, 402480, Note_on_c, 2, 60, 105
4, 402480, Note_on_c, 2, 64, 105
4, 402720, Note_on_c, 2, 64, 0
4, 402720, Note_on_c, 2, 60, 0
4, 402720, Note_on_c, 2, 60, 105
4, 402720, Note_on_c, 2, 64, 105
4, 402960, Note_on_c, 2, 64, 0
4, 402960, Note_on_c, 2, 60, 0
4, 402960, Note_on_c, 2, 60, 105
4, 402960, Note_on_c, 2, 64, 105
4, 403200, Note_on_c, 2, 64, 0
4, 403200, Note_on_c, 2, 60, 0
4, 403200, Note_on_c, 2, 55, 105
4, 403200, Note_on_c, 2, 62, 105
4, 403680, Note_on_c, 2, 62, 0
4, 403680, Note_on_c, 2, 55, 0
4, 403920, Note_on_c, 2, 55, 105
4, 403920, Note_on_c, 2, 62, 105
4, 404160, Note_on_c, 2, 62, 0
4, 404160, Note_on_c, 2, 55, 0
4, 404160, Note_on_c, 2, 60, 105
4, 404160, Note_on_c, 2, 64, 105
4, 404400, Note_on_c, 2, 64, 0
4, 404400, Note_on_c, 2, 60, 0
4, 404400, Note_on_c, 2, 60, 105
4, 404400, Note_on_c, 2, 64, 105
4, 404640, Note_on_c, 2, 64, 0
4, 404640, Note_on_c, 2, 60, 0
4, 404640, Note_on_c, 2, 60, 105
4, 404640, Note_on_c, 2, 64, 105
4, 404880, Note_on_c, 2, 64, 0
4, 404880, Note_on_c, 2, 60, 0
4, 404880, Note_on_c, 2, 60, 105
4, 404880, Note_on_c, 2, 64, 105
4, 405120, Note_on_c, 2, 64, 0
4, 405120, Note_on_c, 2, 60, 0
4, 405120, Note_on_c, 2, 55, 105
4, 405120, Note_on_c, 2, 62, 105
4, 405600, Note_on_c, 2, 62, 0
4, 405600, Note_on_c, 2, 55, 0
4, 405600, Note_on_c, 2, 55, 105
4, 405600, Note_on_c, 2, 67, 105
4, 406080, Note_on_c, 2, 67, 0
4, 406080, Note_on_c, 2, 55, 0
4, 406080, Note_on_c, 2, 55, 105
4, 406560, Note_on_c, 2, 55, 0
4, 407040, Note_on_c, 2, 60, 100
4, 408960, Note_on_c, 2, 60, 0
4, 408960, Note_on_c, 2, 55, 101
4, 410880, Note_on_c, 2, 55, 0
4, 410880, Note_on_c, 2, 48, 99
4, 411360, Note_on_c, 2, 48, 0
4, 418560, Note_on_c, 2, 48, 70
4, 418560, Note_on_c, 2, 60, 70
4, 424320, Note_on_c, 2, 60, 0
4, 424320, Note_on_c, 2, 48, 0
4, 450240, Note_on_c, 2, 60, 70
4, 450240, Note_on_c, 2, 64, 70
4, 450480, Note_on_c, 2, 64, 0
4, 450480, Note_on_c, 2, 60, 0
4, 450720, Note_on_c, 2, 55, 70
4, 450720, Note_on_c, 2, 62, 70
4, 450960, Note_on_c, 2, 62, 0
4, 450960, Note_on_c, 2, 55, 0
4, 451200, Note_on_c, 2, 52, 70
4, 451200, Note_on_c, 2, 60, 70
4, 451680, Note_on_c, 2, 60, 0
4, 451680, Note_on_c, 2, 52, 0
4, 452160, Note_on_c, 2, 60, 70
4, 452160, Note_on_c, 2, 64, 70
4, 452400, Note_on_c, 2, 64, 0
4, 452400, Note_on_c, 2, 60, 0
4, 452640, Note_on_c, 2, 55, 70
4, 452640, Note_on_c, 2, 62, 70
4, 452880, Note_on_c, 2, 62, 0
4, 452880, Note_on_c, 2, 55, 0
4, 453120, Note_on_c, 2, 52, 70
4, 453120, Note_on_c, 2, 60, 70
4, 453600, Note_on_c, 2, 60, 0
4, 453600, Note_on_c, 2, 52, 0
4, 454080, Note_on_c, 2, 60, 70
4, 454080, Note_on_c, 2, 64, 70
4, 454320, Note_on_c, 2, 64, 0
4, 454320, Note_on_c, 2, 60, 0
4, 454560, Note_on_c, 2, 55, 70
4, 454560, Note_on_c, 2, 62, 70
4, 454800, Note_on_c, 2, 62, 0
4, 454800, Note_on_c, 2, 55, 0
4, 455040, Note_on_c, 2, 52, 70
4, 455040, Note_on_c, 2, 60, 70
4, 455280, Note_on_c, 2, 60, 0
4, 455280, Note_on_c, 2, 52, 0
4, 455520, Note_on_c, 2, 55, 70
4, 455520, Note_on_c, 2, 62, 70
4, 455760, Note_on_c, 2, 62, 0
4, 455760, Note_on_c, 2, 55, 0
4, 456000, Note_on_c, 2, 60, 70
4, 456000, Note_on_c, 2, 64, 70
4, 456240, Note_on_c, 2, 64, 0
4, 456240, Note_on_c, 2, 60, 0
4, 456480, Note_on_c, 2, 55, 70
4, 456480, Note_on_c, 2, 62, 70
4, 456720, Note_on_c, 2, 62, 0
4, 456720, Note_on_c, 2, 55, 0
4, 462720, Note_on_c, 2, 55, 70
4, 466560, Note_on_c, 2, 55, 0
4, 466560, Note_on_c, 2, 52, 105
4, 466560, Note_on_c, 2, 60, 105
4, 467016, Note_on_c, 2, 60, 0
4, 467016, Note_on_c, 2, 52, 0
4, 467520, Note_on_c, 2, 60, 105
4, 468204, Note_on_c, 2, 60, 0
4, 468240, Note_on_c, 2, 55, 105
4, 468468, Note_on_c, 2, 55, 0
4, 468480, Note_on_c, 2, 52, 105
4, 468708, Note_on_c, 2, 52, 0
4, 468720, Note_on_c, 2, 48, 105
4, 468948, Note_on_c, 2, 48, 0
4, 468960, Note_on_c, 2, 52, 105
4, 469188, Note_on_c, 2, 52, 0
4, 469200, Note_on_c, 2, 55, 105
4, 469428, Note_on_c, 2, 55, 0
4, 469440, Note_on_c, 2, 60, 105
4, 470124, Note_on_c, 2, 60, 0
4, 470160, Note_on_c, 2, 55, 105
4, 470388, Note_on_c, 2, 55, 0
4, 470400, Note_on_c, 2, 52, 105
4, 470640, Note_on_c, 2, 52, 0
4, 470640, Note_on_c, 2, 48, 105
4, 470880, Note_on_c, 2, 48, 0
4, 470880, Note_on_c, 2, 52, 105
4, 471120, Note_on_c, 2, 52, 0
4, 471120, Note_on_c, 2, 55, 105
4, 471360, Note_on_c, 2, 55, 0
4, 471360, Note_on_c, 2, 52, 105
4, 471360, Note_on_c, 2, 60, 105
4, 472080, Note_on_c, 2, 60, 0
4, 472080, Note_on_c, 2, 64, 105
4, 472320, Note_on_c, 2, 64, 0
4, 472320, Note_on_c, 2, 52, 0
4, 472320, Note_on_c, 2, 48, 105
4, 472320, Note_on_c, 2, 60, 105
4, 472800, Note_on_c, 2, 60, 0
4, 472800, Note_on_c, 2, 48, 0
4, 475440, Note_on_c, 2, 62, 105
4, 475680, Note_on_c, 2, 62, 0
4, 475680, Note_on_c, 2, 62, 105
4, 475920, Note_on_c, 2, 62, 0
4, 475920, Note_on_c, 2, 62, 105
4, 476160, Note_on_c, 2, 62, 0
4, 476160, Note_on_c, 2, 55, 105
4, 476160, Note_on_c, 2, 62, 105
4, 476640, Note_on_c, 2, 62, 0
4, 476640, Note_on_c, 2, 55, 0
4, 476880, Note_on_c, 2, 55, 105
4, 476880, Note_on_c, 2, 62, 105
4, 477120, Note_on_c, 2, 62, 0
4, 477120, Note_on_c, 2, 55, 0
4, 477120, Note_on_c, 2, 60, 105
4, 477120, Note_on_c, 2, 64, 105
4, 477360, Note_on_c, 2, 64, 0
4, 477360, Note_on_c, 2, 60, 0
4, 477360, Note_on_c, 2, 60, 105
4, 477360, Note_on_c, 2, 64, 105
4, 477600, Note_on_c, 2, 64, 0
4, 477600, Note_on_c, 2, 60, 0
4, 477600, Note_on_c, 2, 60, 105
4, 477600, Note_on_c, 2, 64, 105
4, 477840, Note_on_c, 2, 64, 0
4, 477840, Note_on_c, 2, 60, 0
4, 477840, Note_on_c, 2, 60, 105
4, 477840, Note_on_c, 2, 64, 105
4, 478080, Note_on_c, 2, 64, 0
4, 478080, Note_on_c, 2, 60, 0
4, 478080, Note_on_c, 2, 55, 105
4, 478080, Note_on_c, 2, 62, 105
4, 478560, Note_on_c, 2, 62, 0
4, 478560, Note_on_c, 2, 55, 0
4, 478800, Note_on_c, 2, 55, 105
4, 478800, Note_on_c, 2, 62, 105
4, 479040, Note_on_c, 2, 62, 0
4, 479040, Note_on_c, 2, 55, 0
4, 479040, Note_on_c, 2, 60, 105
4, 479040, Note_on_c, 2, 64, 105
4, 479280, Note_on_c, 2, 64, 0
4, 479280, Note_on_c, 2, 60, 0
4, 479280, Note_on_c, 2, 60, 105
4, 479280, Note_on_c, 2, 64, 105
4, 479520, Note_on_c, 2, 64, 0
4, 479520, Note_on_c, 2, 60, 0
4, 479520, Note_on_c, 2, 60, 105
4, 479520, Note_on_c, 2, 64, 105
4, 479760, Note_on_c, 2, 64, 0
4, 479760, Note_on_c, 2, 60, 0
4, 479760, Note_on_c, 2, 60, 105
4, 479760, Note_on_c, 2, 64, 105
4, 480000, Note_on_c, 2, 64, 0
4, 480000, Note_on_c, 2, 60, 0
4, 480000, Note_on_c, 2, 60, 105
4, 480000, Note_on_c, 2, 64, 105
4, 480480, Note_on_c, 2, 64, 0
4, 480480, Note_on_c, 2, 60, 0
4, 481920, Note_on_c, 2, 48, 105
4, 481920, Note_on_c, 2, 60, 105
4, 485280, Note_on_c, 2, 60, 0
4, 485280, Note_on_c, 2, 48, 0
4, 485280, Note_on_c, 2, 48, 105
4, 485280, Note_on_c, 2, 60, 105
4, 485640, Note_on_c, 2, 60, 0
4, 485640, Note_on_c, 2, 48, 0
4, 485640, Note_on_c, 2, 48, 105
4, 485640, Note_on_c, 2, 60, 105
4, 485760, Note_on_c, 2, 60, 0
4, 485760, Note_on_c, 2, 48, 0
4, 485760, Note_on_c, 2, 48, 105
4, 485760, Note_on_c, 2, 60, 105
4, 486720, Note_on_c, 2, 60, 0
4, 486720, Note_on_c, 2, 48, 0
4, 486720, Note_on_c, 2, 48, 70
4, 486720, Note_on_c, 2, 60, 70
4, 489120, Note_on_c, 2, 60, 0
4, 489120, Note_on_c, 2, 48, 0
4, 489120, Note_on_c, 2, 52, 105
4, 489120, Note_on_c, 2, 60, 105
4, 489480, Note_on_c, 2, 60, 0
4, 489480, Note_on_c, 2, 52, 0
4, 489480, Note_on_c, 2, 52, 105
4, 489480, Note_on_c, 2, 60, 105
4, 489600, Note_on_c, 2, 60, 0
4, 489600, Note_on_c, 2, 52, 0
4, 489600, Note_on_c, 2, 55, 105
4, 489600, Note_on_c, 2, 62, 105
4, 491520, Note_on_c, 2, 62, 0
4, 491520, Note_on_c, 2, 55, 0
4, 491520, Note_on_c, 2, 60, 105
4, 491520, Note_on_c, 2, 64, 105
4, 493440, Note_on_c, 2, 64, 0
4, 493440, Note_on_c, 2, 60, 0
4, 493440, Note_on_c, 2, 62, 105
4, 493440, Note_on_c, 2, 65, 105
4, 494400, Note_on_c, 2, 65, 0
4, 494400, Note_on_c, 2, 62, 0
4, 494400, Note_on_c, 2, 60, 105
4, 494400, Note_on_c, 2, 64, 105
4, 494880, Note_on_c, 2, 64, 0
4, 494880, Note_on_c, 2, 60, 0
4, 494880, Note_on_c, 2, 55, 105
4, 494880, Note_on_c, 2, 62, 105
4, 495360, Note_on_c, 2, 62, 0
4, 495360, Note_on_c, 2, 55, 0
4, 495360, Note_on_c, 2, 48, 105
4, 495360, Note_on_c, 2, 60, 105
4, 495840, Note_on_c, 2, 60, 0
4, 495840, Note_on_c, 2, 48, 0
4, 495840, Note_on_c, 2, 60, 105
4, 496080, Note_on_c, 2, 60, 0
4, 496080, Note_on_c, 2, 60, 105
4, 496320, Note_on_c, 2, 60, 0
4, 496320, Note_on_c, 2, 60, 105
4, 496320, Note_on_c, 2, 62, 105
4, 496800, Note_on_c, 2, 62, 0
4, 496800, Note_on_c, 2, 60, 0
4, 496800, Note_on_c, 2, 60, 105
4, 496800, Note_on_c, 2, 62, 105
4, 497040, Note_on_c, 2, 62, 0
4, 497040, Note_on_c, 2, 60, 0
4, 497040, Note_on_c, 2, 60, 105
4, 497040, Note_on_c, 2, 62, 105
4, 497280, Note_on_c, 2, 62, 0
4, 497280, Note_on_c, 2, 60, 0
4, 497280, Note_on_c, 2, 60, 105
4, 497280, Note_on_c, 2, 64, 105
4, 497760, Note_on_c, 2, 64, 0
4, 497760, Note_on_c, 2, 60, 0
4, 497760, Note_on_c, 2, 60, 105
4, 497760, Note_on_c, 2, 64, 105
4, 498000, Note_on_c, 2, 64, 0
4, 498000, Note_on_c, 2, 60, 0
4, 498000, Note_on_c, 2, 60, 105
4, 498000, Note_on_c, 2, 64, 105
4, 498240, Note_on_c, 2, 64, 0
4, 498240, Note_on_c, 2, 60, 0
4, 498240, Note_on_c, 2, 64, 105
4, 498240, Note_on_c, 2, 67, 105
4, 498480, Note_on_c, 2, 67, 0
4, 498480, Note_on_c, 2, 64, 0
4, 498480, Note_on_c, 2, 62, 105
4, 498480, Note_on_c, 2, 65, 105
4, 498720, Note_on_c, 2, 65, 0
4, 498720, Note_on_c, 2, 62, 0
4, 498720, Note_on_c, 2, 60, 105
4, 498720, Note_on_c, 2, 64, 105
4, 498960, Note_on_c, 2, 64, 0
4, 498960, Note_on_c, 2, 60, 0
4, 498960, Note_on_c, 2, 55, 105
4, 498960, Note_on_c, 2, 62, 105
4, 499200, Note_on_c, 2, 62, 0
4, 499200, Note_on_c, 2, 55, 0
4, 499200, Note_on_c, 2, 52, 105
4, 499200, Note_on_c, 2, 60, 105
4, 499629, Note_on_c, 2, 60, 0
4, 499644, Note_on_c, 2, 52, 0
4, 499680, Note_on_c, 2, 52, 105
4, 499680, Note_on_c, 2, 60, 105
4, 499984, Note_on_c, 2, 52, 0
4, 500004, Note_on_c, 2, 60, 0
4, 500040, Note_on_c, 2, 52, 105
4, 500040, Note_on_c, 2, 60, 105
4, 500124, Note_on_c, 2, 52, 0
4, 500129, Note_on_c, 2, 60, 0
4, 500160, Note_on_c, 2, 52, 105
4, 500160, Note_on_c, 2, 60, 105
4, 500604, Note_on_c, 2, 60, 0
4, 500609, Note_on_c, 2, 52, 0
4, 500640, Note_on_c, 2, 60, 105
4, 500640, Note_on_c, 2, 64, 105
4, 500944, Note_on_c, 2, 64, 0
4, 500944, Note_on_c, 2, 60, 0
4, 501000, Note_on_c, 2, 60, 105
4, 501000, Note_on_c, 2, 64, 105
4, 501089, Note_on_c, 2, 60, 0
4, 501099, Note_on_c, 2, 64, 0
4, 501120, Note_on_c, 2, 60, 105
4, 501120, Note_on_c, 2, 64, 105
4, 501549, Note_on_c, 2, 64, 0
4, 501564, Note_on_c, 2, 60, 0
4, 501600, Note_on_c, 2, 64, 105
4, 501600, Note_on_c, 2, 67, 105
4, 501909, Note_on_c, 2, 64, 0
4, 501919, Note_on_c, 2, 67, 0
4, 501960, Note_on_c, 2, 64, 105
4, 501960, Note_on_c, 2, 67, 105
4, 502044, Note_on_c, 2, 64, 0
4, 502049, Note_on_c, 2, 67, 0
4, 502080, Note_on_c, 2, 64, 105
4, 502080, Note_on_c, 2, 67, 105
4, 502519, Note_on_c, 2, 67, 0
4, 502519, Note_on_c, 2, 64, 0
4, 502560, Note_on_c, 2, 60, 105
4, 502560, Note_on_c, 2, 64, 105
4, 502879, Note_on_c, 2, 64, 0
4, 502879, Note_on_c, 2, 60, 0
4, 502920, Note_on_c, 2, 60, 105
4, 502920, Note_on_c, 2, 64, 105
4, 503004, Note_on_c, 2, 64, 0
4, 503004, Note_on_c, 2, 60, 0
4, 503040, Note_on_c, 2, 60, 105
4, 503040, Note_on_c, 2, 64, 105
4, 503520, Note_on_c, 2, 64, 0
4, 503520, Note_on_c, 2, 60, 0
4, 504000, Note_on_c, 2, 60, 105
4, 504720, Note_on_c, 2, 60, 0
4, 504720, Note_on_c, 2, 55, 105
4, 504960, Note_on_c, 2, 55, 0
4, 504960, Note_on_c, 2, 52, 105
4, 505200, Note_on_c, 2, 52, 0
4, 505200, Note_on_c, 2, 48, 105
4, 505440, Note_on_c, 2, 48, 0
4, 505440, Note_on_c, 2, 52, 105
4, 505680, Note_on_c, 2, 52, 0
4, 505680, Note_on_c, 2, 55, 105
4, 505920, Note_on_c, 2, 55, 0
4, 505920, Note_on_c, 2, 60, 105
4, 506640, Note_on_c, 2, 60, 0
4, 506640, Note_on_c, 2, 55, 105
4, 506880, Note_on_c, 2, 55, 0
4, 506880, Note_on_c, 2, 52, 105
4, 507120, Note_on_c, 2, 52, 0
4, 507120, Note_on_c, 2, 48, 105
4, 507360, Note_on_c, 2, 48, 0
4, 507360, Note_on_c, 2, 52, 105
4, 507600, Note_on_c, 2, 52, 0
4, 507600, Note_on_c, 2, 55, 105
4, 507840, Note_on_c, 2, 55, 0
4, 507840, Note_on_c, 2, 52, 105
4, 508080, Note_on_c, 2, 52, 0
4, 508080, Note_on_c, 2, 48, 105
4, 508320, Note_on_c, 2, 48, 0
4, 508320, Note_on_c, 2, 52, 105
4, 508560, Note_on_c, 2, 52, 0
4, 508560, Note_on_c, 2, 55, 105
4, 508800, Note_on_c, 2, 55, 0
4, 508800, Note_on_c, 2, 52, 105
4, 508800, Note_on_c, 2, 60, 105
4, 509280, Note_on_c, 2, 60, 0
4, 509280, Note_on_c, 2, 52, 0
4, 510720, System_exclusive, 0A, 41, 10, 42, 12, 40, 00, 7F, 00, 41, F7
4, 510720, End_track
5, 0, Start_track
5, 0, Title_t, "Flute"
5, 0, Control_c, 3, 0, 0
5, 0, Control_c, 3, 7, 100
5, 0, Control_c, 3, 10, 60
5, 0, Control_c, 3, 91, 76
5, 0, Control_c, 3, 93, 85
5, 1, Control_c, 3, 32, 1
5, 2, Program_c, 3, 73
5, 1920, Note_on_c, 3, 84, 105
5, 2640, Note_on_c, 3, 84, 0
5, 2640, Note_on_c, 3, 79, 105
5, 2880, Note_on_c, 3, 79, 0
5, 2880, Note_on_c, 3, 76, 105
5, 3120, Note_on_c, 3, 76, 0
5, 3120, Note_on_c, 3, 72, 105
5, 3360, Note_on_c, 3, 72, 0
5, 3360, Note_on_c, 3, 76, 105
5, 3600, Note_on_c, 3, 76, 0
5, 3600, Note_on_c, 3, 79, 105
5, 3840, Note_on_c, 3, 79, 0
5, 3840, Note_on_c, 3, 84, 105
5, 4560, Note_on_c, 3, 84, 0
5, 4560, Note_on_c, 3, 79, 105
5, 4800, Note_on_c, 3, 79, 0
5, 4800, Note_on_c, 3, 76, 105
5, 5040, Note_on_c, 3, 76, 0
5, 5040, Note_on_c, 3, 72, 105
5, 5280, Note_on_c, 3, 72, 0
5, 5280, Note_on_c, 3, 76, 105
5, 5520, Note_on_c, 3, 76, 0
5, 5520, Note_on_c, 3, 79, 105
5, 5760, Note_on_c, 3, 79, 0
5, 5760, Note_on_c, 3, 84, 105
5, 6240, Note_on_c, 3, 84, 0
5, 84480, Note_on_c, 3, 84, 105
5, 85200, Note_on_c, 3, 84, 0
5, 85200, Note_on_c, 3, 79, 105
5, 85440, Note_on_c, 3, 79, 0
5, 85440, Note_on_c, 3, 76, 105
5, 85680, Note_on_c, 3, 76, 0
5, 85680, Note_on_c, 3, 72, 105
5, 85920, Note_on_c, 3, 72, 0
5, 85920, Note_on_c, 3, 76, 105
5, 86160, Note_on_c, 3, 76, 0
5, 86160, Note_on_c, 3, 79, 105
5, 86400, Note_on_c, 3, 79, 0
5, 86400, Note_on_c, 3, 84, 105
5, 87120, Note_on_c, 3, 84, 0
5, 87120, Note_on_c, 3, 79, 105
5, 87360, Note_on_c, 3, 79, 0
5, 87360, Note_on_c, 3, 76, 105
5, 87600, Note_on_c, 3, 76, 0
5, 87600, Note_on_c, 3, 72, 105
5, 87840, Note_on_c, 3, 72, 0
5, 87840, Note_on_c, 3, 76, 105
5, 88080, Note_on_c, 3, 76, 0
5, 88080, Note_on_c, 3, 79, 105
5, 88320, Note_on_c, 3, 79, 0
5, 88320, Note_on_c, 3, 84, 105
5, 88759, Note_on_c, 3, 84, 0
5, 88800, Note_on_c, 3, 72, 70
5, 89280, Note_on_c, 3, 71, 70
5, 89349, Note_on_c, 3, 72, 0
5, 89760, Note_on_c, 3, 72, 70
5, 89804, Note_on_c, 3, 71, 0
5, 90199, Note_on_c, 3, 72, 0
5, 90240, Note_on_c, 3, 74, 105
5, 90432, Note_on_c, 3, 74, 0
5, 90720, Note_on_c, 3, 74, 70
5, 91200, Note_on_c, 3, 73, 70
5, 91289, Note_on_c, 3, 74, 0
5, 91680, Note_on_c, 3, 74, 70
5, 91749, Note_on_c, 3, 73, 0
5, 92099, Note_on_c, 3, 74, 0
5, 92160, Note_on_c, 3, 76, 105
5, 92352, Note_on_c, 3, 76, 0
5, 92640, Note_on_c, 3, 76, 70
5, 93120, Note_on_c, 3, 75, 70
5, 93199, Note_on_c, 3, 76, 0
5, 93600, Note_on_c, 3, 76, 70
5, 93689, Note_on_c, 3, 75, 0
5, 94019, Note_on_c, 3, 76, 0
5, 94080, Note_on_c, 3, 77, 80
5, 94560, Note_on_c, 3, 79, 80
5, 94629, Note_on_c, 3, 77, 0
5, 95040, Note_on_c, 3, 81, 90
5, 95159, Note_on_c, 3, 79, 0
5, 95520, Note_on_c, 3, 83, 90
5, 95609, Note_on_c, 3, 81, 0
5, 95899, Note_on_c, 3, 83, 0
5, 96000, Note_on_c, 3, 84, 105
5, 97859, Note_on_c, 3, 84, 0
5, 97920, Note_on_c, 3, 79, 105
5, 99779, Note_on_c, 3, 79, 0
5, 99840, Note_on_c, 3, 72, 105
5, 101689, Note_on_c, 3, 72, 0
5, 101760, Note_on_c, 3, 67, 105
5, 103599, Note_on_c, 3, 67, 0
5, 103680, Note_on_c, 3, 72, 105
5, 103920, Note_on_c, 3, 72, 0
5, 103920, Note_on_c, 3, 74, 105
5, 104040, Note_on_c, 3, 74, 0
5, 104040, Note_on_c, 3, 76, 105
5, 104160, Note_on_c, 3, 76, 0
5, 104160, Note_on_c, 3, 77, 105
5, 104280, Note_on_c, 3, 77, 0
5, 104280, Note_on_c, 3, 79, 105
5, 104400, Note_on_c, 3, 79, 0
5, 104400, Note_on_c, 3, 81, 105
5, 104520, Note_on_c, 3, 81, 0
5, 104520, Note_on_c, 3, 83, 105
5, 104640, Note_on_c, 3, 83, 0
5, 104640, Note_on_c, 3, 84, 105
5, 104760, Note_on_c, 3, 84, 0
5, 104760, Note_on_c, 3, 83, 105
5, 104880, Note_on_c, 3, 83, 0
5, 104880, Note_on_c, 3, 84, 105
5, 105000, Note_on_c, 3, 84, 0
5, 105000, Note_on_c, 3, 83, 105
5, 105120, Note_on_c, 3, 83, 0
5, 105120, Note_on_c, 3, 84, 105
5, 105240, Note_on_c, 3, 84, 0
5, 105240, Note_on_c, 3, 83, 105
5, 105360, Note_on_c, 3, 83, 0
5, 105360, Note_on_c, 3, 81, 105
5, 105480, Note_on_c, 3, 81, 0
5, 105480, Note_on_c, 3, 79, 105
5, 105600, Note_on_c, 3, 79, 0
5, 105600, Note_on_c, 3, 81, 105
5, 105689, Note_on_c, 3, 81, 0
5, 105720, Note_on_c, 3, 72, 105
5, 105840, Note_on_c, 3, 72, 0
5, 105840, Note_on_c, 3, 74, 105
5, 105960, Note_on_c, 3, 74, 0
5, 105960, Note_on_c, 3, 76, 105
5, 106080, Note_on_c, 3, 76, 0
5, 106080, Note_on_c, 3, 77, 105
5, 106200, Note_on_c, 3, 77, 0
5, 106200, Note_on_c, 3, 79, 105
5, 106320, Note_on_c, 3, 79, 0
5, 106320, Note_on_c, 3, 81, 105
5, 106440, Note_on_c, 3, 81, 0
5, 106440, Note_on_c, 3, 83, 105
5, 106560, Note_on_c, 3, 83, 0
5, 106560, Note_on_c, 3, 84, 105
5, 106680, Note_on_c, 3, 84, 0
5, 106680, Note_on_c, 3, 83, 105
5, 106800, Note_on_c, 3, 83, 0
5, 106800, Note_on_c, 3, 84, 105
5, 106920, Note_on_c, 3, 84, 0
5, 106920, Note_on_c, 3, 83, 105
5, 107040, Note_on_c, 3, 83, 0
5, 107040, Note_on_c, 3, 86, 105
5, 107160, Note_on_c, 3, 86, 0
5, 107160, Note_on_c, 3, 84, 105
5, 107280, Note_on_c, 3, 84, 0
5, 107280, Note_on_c, 3, 83, 105
5, 107400, Note_on_c, 3, 83, 0
5, 107400, Note_on_c, 3, 81, 105
5, 107520, Note_on_c, 3, 81, 0
5, 107520, Note_on_c, 3, 79, 105
5, 107604, Note_on_c, 3, 79, 0
5, 107640, Note_on_c, 3, 72, 105
5, 107760, Note_on_c, 3, 72, 0
5, 107760, Note_on_c, 3, 74, 105
5, 107880, Note_on_c, 3, 74, 0
5, 107880, Note_on_c, 3, 76, 105
5, 108000, Note_on_c, 3, 76, 0
5, 108000, Note_on_c, 3, 77, 105
5, 108120, Note_on_c, 3, 77, 0
5, 108120, Note_on_c, 3, 79, 105
5, 108240, Note_on_c, 3, 79, 0
5, 108240, Note_on_c, 3, 81, 105
5, 108360, Note_on_c, 3, 81, 0
5, 108360, Note_on_c, 3, 83, 105
5, 108480, Note_on_c, 3, 83, 0
5, 108480, Note_on_c, 3, 84, 105
5, 108600, Note_on_c, 3, 84, 0
5, 108600, Note_on_c, 3, 86, 105
5, 108720, Note_on_c, 3, 86, 0
5, 108720, Note_on_c, 3, 88, 105
5, 108840, Note_on_c, 3, 88, 0
5, 108840, Note_on_c, 3, 86, 105
5, 108960, Note_on_c, 3, 86, 0
5, 108960, Note_on_c, 3, 84, 105
5, 109080, Note_on_c, 3, 84, 0
5, 109080, Note_on_c, 3, 83, 105
5, 109200, Note_on_c, 3, 83, 0
5, 109200, Note_on_c, 3, 81, 105
5, 109320, Note_on_c, 3, 81, 0
5, 109320, Note_on_c, 3, 79, 105
5, 109404, Note_on_c, 3, 79, 0
5, 109440, Note_on_c, 3, 79, 105
5, 109560, Note_on_c, 3, 77, 105
5, 109589, Note_on_c, 3, 79, 0
5, 109680, Note_on_c, 3, 81, 105
5, 109699, Note_on_c, 3, 77, 0
5, 109800, Note_on_c, 3, 77, 105
5, 109824, Note_on_c, 3, 81, 0
5, 109904, Note_on_c, 3, 77, 0
5, 109920, Note_on_c, 3, 76, 105
5, 110834, Note_on_c, 3, 76, 0
5, 110880, Note_on_c, 3, 76, 105
5, 110950, Note_on_c, 3, 74, 105
5, 110964, Note_on_c, 3, 76, 0
5, 110982, Note_on_c, 3, 74, 0
5, 110990, Note_on_c, 3, 76, 105
5, 111018, Note_on_c, 3, 76, 0
5, 111020, Note_on_c, 3, 74, 105
5, 111052, Note_on_c, 3, 74, 0
5, 111060, Note_on_c, 3, 76, 105
5, 111088, Note_on_c, 3, 76, 0
5, 111088, Note_on_c, 3, 74, 105
5, 111120, Note_on_c, 3, 74, 0
5, 111120, Note_on_c, 3, 72, 105
5, 111240, Note_on_c, 3, 72, 0
5, 111240, Note_on_c, 3, 74, 105
5, 111360, Note_on_c, 3, 74, 0
5, 111360, Note_on_c, 3, 72, 105
5, 111840, Note_on_c, 3, 72, 0
5, 119040, Note_on_c, 3, 72, 105
5, 119280, Note_on_c, 3, 88, 105
5, 119324, Note_on_c, 3, 72, 0
5, 119669, Note_on_c, 3, 88, 0
5, 119760, Note_on_c, 3, 86, 105
5, 119974, Note_on_c, 3, 86, 0
5, 120000, Note_on_c, 3, 69, 105
5, 120240, Note_on_c, 3, 84, 105
5, 120309, Note_on_c, 3, 69, 0
5, 120649, Note_on_c, 3, 84, 0
5, 120720, Note_on_c, 3, 83, 105
5, 120939, Note_on_c, 3, 83, 0
5, 120960, Note_on_c, 3, 65, 105
5, 121200, Note_on_c, 3, 81, 105
5, 121279, Note_on_c, 3, 65, 0
5, 121599, Note_on_c, 3, 81, 0
5, 121680, Note_on_c, 3, 79, 105
5, 121894, Note_on_c, 3, 79, 0
5, 121920, Note_on_c, 3, 77, 105
5, 122049, Note_on_c, 3, 77, 0
5, 122160, Note_on_c, 3, 76, 105
5, 122279, Note_on_c, 3, 76, 0
5, 122400, Note_on_c, 3, 74, 105
5, 122549, Note_on_c, 3, 74, 0
5, 122640, Note_on_c, 3, 72, 105
5, 122769, Note_on_c, 3, 72, 0
5, 122880, Note_on_c, 3, 79, 105
5, 125040, Note_on_c, 3, 79, 0
5, 125040, Note_on_c, 3, 79, 105
5, 125136, Note_on_c, 3, 79, 0
5, 125280, Note_on_c, 3, 81, 105
5, 125376, Note_on_c, 3, 81, 0
5, 125520, Note_on_c, 3, 83, 105
5, 125616, Note_on_c, 3, 83, 0
5, 125760, Note_on_c, 3, 84, 105
5, 125856, Note_on_c, 3, 84, 0
5, 126000, Note_on_c, 3, 86, 105
5, 126096, Note_on_c, 3, 86, 0
5, 126240, Note_on_c, 3, 88, 105
5, 126336, Note_on_c, 3, 88, 0
5, 126480, Note_on_c, 3, 90, 105
5, 126576, Note_on_c, 3, 90, 0
5, 126720, Note_on_c, 3, 91, 105
5, 127200, Note_on_c, 3, 91, 0
5, 130500, Note_on_c, 3, 74, 105
5, 130560, Note_on_c, 3, 86, 105
5, 130609, Note_on_c, 3, 74, 0
5, 131489, Note_on_c, 3, 86, 0
5, 131520, Note_on_c, 3, 83, 105
5, 131760, Note_on_c, 3, 83, 0
5, 131760, Note_on_c, 3, 84, 105
5, 131820, Note_on_c, 3, 84, 0
5, 131820, Note_on_c, 3, 83, 105
5, 131880, Note_on_c, 3, 83, 0
5, 131880, Note_on_c, 3, 81, 105
5, 132000, Note_on_c, 3, 83, 105
5, 132049, Note_on_c, 3, 81, 0
5, 132209, Note_on_c, 3, 83, 0
5, 132240, Note_on_c, 3, 84, 105
5, 132354, Note_on_c, 3, 84, 0
5, 132480, Note_on_c, 3, 88, 105
5, 132720, Note_on_c, 3, 86, 105
5, 132769, Note_on_c, 3, 88, 0
5, 132879, Note_on_c, 3, 86, 0
5, 132960, Note_on_c, 3, 86, 105
5, 133839, Note_on_c, 3, 86, 0
5, 133920, Note_on_c, 3, 84, 105
5, 134040, Note_on_c, 3, 84, 0
5, 134040, Note_on_c, 3, 83, 105
5, 134160, Note_on_c, 3, 83, 0
5, 134160, Note_on_c, 3, 81, 105
5, 134280, Note_on_c, 3, 81, 0
5, 134280, Note_on_c, 3, 79, 105
5, 134379, Note_on_c, 3, 79, 0
5, 134400, Note_on_c, 3, 79, 105
5, 134640, Note_on_c, 3, 88, 105
5, 134694, Note_on_c, 3, 79, 0
5, 134829, Note_on_c, 3, 88, 0
5, 134880, Note_on_c, 3, 88, 105
5, 136320, Note_on_c, 3, 88, 0
5, 136320, Note_on_c, 3, 86, 105
5, 136800, Note_on_c, 3, 86, 0
5, 136800, Note_on_c, 3, 79, 105
5, 137280, Note_on_c, 3, 79, 0
5, 137280, Note_on_c, 3, 81, 105
5, 138000, Note_on_c, 3, 83, 105
5, 138049, Note_on_c, 3, 81, 0
5, 138120, Note_on_c, 3, 84, 105
5, 138164, Note_on_c, 3, 83, 0
5, 138219, Note_on_c, 3, 84, 0
5, 138240, Note_on_c, 3, 83, 105
5, 138720, Note_on_c, 3, 83, 0
5, 140160, Note_on_c, 3, 74, 105
5, 141360, Note_on_c, 3, 74, 0
5, 141360, Note_on_c, 3, 76, 105
5, 141480, Note_on_c, 3, 76, 0
5, 141480, Note_on_c, 3, 74, 105
5, 141600, Note_on_c, 3, 74, 0
5, 141600, Note_on_c, 3, 72, 105
5, 141720, Note_on_c, 3, 72, 0
5, 141720, Note_on_c, 3, 71, 105
5, 141840, Note_on_c, 3, 71, 0
5, 141840, Note_on_c, 3, 69, 105
5, 141960, Note_on_c, 3, 69, 0
5, 141960, Note_on_c, 3, 67, 105
5, 142049, Note_on_c, 3, 67, 0
5, 142080, Note_on_c, 3, 67, 105
5, 142320, Note_on_c, 3, 76, 105
5, 142359, Note_on_c, 3, 67, 0
5, 142539, Note_on_c, 3, 76, 0
5, 142560, Note_on_c, 3, 76, 105
5, 143239, Note_on_c, 3, 76, 0
5, 143280, Note_on_c, 3, 79, 105
5, 143520, Note_on_c, 3, 78, 105
5, 143589, Note_on_c, 3, 79, 0
5, 143760, Note_on_c, 3, 76, 105
5, 143829, Note_on_c, 3, 78, 0
5, 143949, Note_on_c, 3, 76, 0
5, 144000, Note_on_c, 3, 76, 105
5, 144240, Note_on_c, 3, 74, 105
5, 144284, Note_on_c, 3, 76, 0
5, 144449, Note_on_c, 3, 74, 0
5, 144480, Note_on_c, 3, 72, 105
5, 144600, Note_on_c, 3, 71, 105
5, 144654, Note_on_c, 3, 72, 0
5, 144720, Note_on_c, 3, 69, 105
5, 144749, Note_on_c, 3, 71, 0
5, 144840, Note_on_c, 3, 67, 105
5, 144889, Note_on_c, 3, 69, 0
5, 144949, Note_on_c, 3, 67, 0
5, 144960, Note_on_c, 3, 69, 105
5, 145680, Note_on_c, 3, 71, 105
5, 145719, Note_on_c, 3, 69, 0
5, 145800, Note_on_c, 3, 72, 105
5, 145849, Note_on_c, 3, 71, 0
5, 145894, Note_on_c, 3, 72, 0
5, 145920, Note_on_c, 3, 71, 105
5, 146040, Note_on_c, 3, 71, 0
5, 146040, Note_on_c, 3, 74, 105
5, 146160, Note_on_c, 3, 74, 0
5, 146160, Note_on_c, 3, 76, 105
5, 146280, Note_on_c, 3, 76, 0
5, 146280, Note_on_c, 3, 78, 105
5, 146400, Note_on_c, 3, 78, 0
5, 146400, Note_on_c, 3, 79, 105
5, 146520, Note_on_c, 3, 79, 0
5, 146520, Note_on_c, 3, 81, 105
5, 146640, Note_on_c, 3, 81, 0
5, 146640, Note_on_c, 3, 83, 105
5, 146760, Note_on_c, 3, 83, 0
5, 146760, Note_on_c, 3, 84, 105
5, 146880, Note_on_c, 3, 84, 0
5, 146880, Note_on_c, 3, 86, 105
5, 147084, Note_on_c, 3, 86, 0
5, 147120, Note_on_c, 3, 86, 105
5, 147600, Note_on_c, 3, 86, 0
5, 147600, Note_on_c, 3, 84, 105
5, 147714, Note_on_c, 3, 84, 0
5, 147720, Note_on_c, 3, 83, 105
5, 147814, Note_on_c, 3, 83, 0
5, 147840, Note_on_c, 3, 83, 105
5, 148080, Note_on_c, 3, 81, 105
5, 148149, Note_on_c, 3, 83, 0
5, 148289, Note_on_c, 3, 81, 0
5, 148320, Note_on_c, 3, 81, 105
5, 149040, Note_on_c, 3, 81, 0
5, 149040, Note_on_c, 3, 83, 105
5, 149160, Note_on_c, 3, 83, 0
5, 149160, Note_on_c, 3, 81, 105
5, 149280, Note_on_c, 3, 81, 0
5, 149280, Note_on_c, 3, 81, 105
5, 149400, Note_on_c, 3, 81, 0
5, 149400, Note_on_c, 3, 79, 105
5, 149520, Note_on_c, 3, 79, 0
5, 149520, Note_on_c, 3, 78, 105
5, 149640, Note_on_c, 3, 78, 0
5, 149640, Note_on_c, 3, 79, 105
5, 149760, Note_on_c, 3, 79, 0
5, 149760, Note_on_c, 3, 78, 105
5, 150240, Note_on_c, 3, 78, 0
5, 153360, Note_on_c, 3, 62, 105
5, 153574, Note_on_c, 3, 62, 0
5, 153600, Note_on_c, 3, 86, 115
5, 154080, Note_on_c, 3, 83, 105
5, 154149, Note_on_c, 3, 86, 0
5, 154259, Note_on_c, 3, 83, 0
5, 154560, Note_on_c, 3, 83, 117
5, 155040, Note_on_c, 3, 79, 105
5, 155129, Note_on_c, 3, 83, 0
5, 155239, Note_on_c, 3, 79, 0
5, 155520, Note_on_c, 3, 79, 117
5, 156000, Note_on_c, 3, 74, 105
5, 156094, Note_on_c, 3, 79, 0
5, 156179, Note_on_c, 3, 74, 0
5, 156480, Note_on_c, 3, 71, 115
5, 156960, Note_on_c, 3, 67, 105
5, 157044, Note_on_c, 3, 71, 0
5, 157149, Note_on_c, 3, 67, 0
5, 157440, Note_on_c, 3, 62, 105
5, 157920, Note_on_c, 3, 62, 0
5, 159840, Note_on_c, 3, 62, 105
5, 160379, Note_on_c, 3, 62, 0
5, 160440, Note_on_c, 3, 74, 105
5, 160506, Note_on_c, 3, 74, 0
5, 160560, Note_on_c, 3, 76, 105
5, 160626, Note_on_c, 3, 76, 0
5, 160680, Note_on_c, 3, 78, 105
5, 160746, Note_on_c, 3, 78, 0
5, 160800, Note_on_c, 3, 79, 105
5, 160866, Note_on_c, 3, 79, 0
5, 160920, Note_on_c, 3, 81, 105
5, 160986, Note_on_c, 3, 81, 0
5, 161040, Note_on_c, 3, 83, 105
5, 161106, Note_on_c, 3, 83, 0
5, 161160, Note_on_c, 3, 84, 105
5, 161226, Note_on_c, 3, 84, 0
5, 161280, Note_on_c, 3, 86, 121
5, 161760, Note_on_c, 3, 83, 105
5, 161814, Note_on_c, 3, 86, 0
5, 161929, Note_on_c, 3, 83, 0
5, 162240, Note_on_c, 3, 83, 117
5, 162720, Note_on_c, 3, 79, 105
5, 162799, Note_on_c, 3, 83, 0
5, 162909, Note_on_c, 3, 79, 0
5, 163200, Note_on_c, 3, 79, 119
5, 163680, Note_on_c, 3, 74, 105
5, 163759, Note_on_c, 3, 79, 0
5, 163859, Note_on_c, 3, 74, 0
5, 164160, Note_on_c, 3, 71, 120
5, 164640, Note_on_c, 3, 67, 105
5, 164709, Note_on_c, 3, 71, 0
5, 164814, Note_on_c, 3, 67, 0
5, 165120, Note_on_c, 3, 62, 105
5, 165600, Note_on_c, 3, 62, 0
5, 170880, Note_on_c, 3, 79, 105
5, 172744, Note_on_c, 3, 79, 0
5, 172800, Note_on_c, 3, 74, 105
5, 174649, Note_on_c, 3, 74, 0
5, 174720, Note_on_c, 3, 67, 105
5, 175200, Note_on_c, 3, 67, 0
5, 175680, Note_on_c, 3, 74, 105
5, 175776, Note_on_c, 3, 74, 0
5, 175920, Note_on_c, 3, 76, 105
5, 176016, Note_on_c, 3, 76, 0
5, 176160, Note_on_c, 3, 78, 105
5, 176256, Note_on_c, 3, 78, 0
5, 176400, Note_on_c, 3, 79, 105
5, 176496, Note_on_c, 3, 79, 0
5, 176640, Note_on_c, 3, 79, 105
5, 176880, Note_on_c, 3, 78, 105
5, 176959, Note_on_c, 3, 79, 0
5, 177120, Note_on_c, 3, 76, 105
5, 177179, Note_on_c, 3, 78, 0
5, 177360, Note_on_c, 3, 74, 105
5, 177404, Note_on_c, 3, 76, 0
5, 177544, Note_on_c, 3, 74, 0
5, 177600, Note_on_c, 3, 74, 105
5, 177720, Note_on_c, 3, 74, 0
5, 177720, Note_on_c, 3, 72, 105
5, 177840, Note_on_c, 3, 72, 0
5, 177840, Note_on_c, 3, 71, 105
5, 177960, Note_on_c, 3, 71, 0
5, 177960, Note_on_c, 3, 72, 105
5, 178080, Note_on_c, 3, 72, 0
5, 178080, Note_on_c, 3, 76, 105
5, 178320, Note_on_c, 3, 76, 0
5, 178320, Note_on_c, 3, 72, 105
5, 178560, Note_on_c, 3, 72, 0
5, 178560, Note_on_c, 3, 70, 105
5, 178800, Note_on_c, 3, 70, 0
5, 178800, Note_on_c, 3, 71, 105
5, 179040, Note_on_c, 3, 71, 0
5, 179280, Note_on_c, 3, 71, 105
5, 179346, Note_on_c, 3, 71, 0
5, 179400, Note_on_c, 3, 72, 105
5, 179466, Note_on_c, 3, 72, 0
5, 179520, Note_on_c, 3, 74, 105
5, 179616, Note_on_c, 3, 74, 0
5, 179760, Note_on_c, 3, 76, 105
5, 179856, Note_on_c, 3, 76, 0
5, 180000, Note_on_c, 3, 78, 105
5, 180096, Note_on_c, 3, 78, 0
5, 180240, Note_on_c, 3, 79, 105
5, 180336, Note_on_c, 3, 79, 0
5, 180480, Note_on_c, 3, 79, 105
5, 180720, Note_on_c, 3, 78, 105
5, 180779, Note_on_c, 3, 79, 0
5, 180960, Note_on_c, 3, 76, 105
5, 181039, Note_on_c, 3, 78, 0
5, 181200, Note_on_c, 3, 74, 105
5, 181269, Note_on_c, 3, 76, 0
5, 181379, Note_on_c, 3, 74, 0
5, 181440, Note_on_c, 3, 74, 105
5, 181560, Note_on_c, 3, 74, 0
5, 181560, Note_on_c, 3, 72, 105
5, 181680, Note_on_c, 3, 72, 0
5, 181680, Note_on_c, 3, 71, 105
5, 181800, Note_on_c, 3, 71, 0
5, 181800, Note_on_c, 3, 72, 105
5, 181920, Note_on_c, 3, 72, 0
5, 181920, Note_on_c, 3, 76, 105
5, 182160, Note_on_c, 3, 76, 0
5, 182160, Note_on_c, 3, 72, 105
5, 182400, Note_on_c, 3, 72, 0
5, 182400, Note_on_c, 3, 71, 105
5, 182584, Note_on_c, 3, 71, 0
5, 182640, Note_on_c, 3, 79, 105
5, 183120, Note_on_c, 3, 77, 105
5, 183239, Note_on_c, 3, 79, 0
5, 183600, Note_on_c, 3, 76, 105
5, 183704, Note_on_c, 3, 77, 0
5, 184080, Note_on_c, 3, 74, 105
5, 184164, Note_on_c, 3, 76, 0
5, 184469, Note_on_c, 3, 74, 0
5, 184560, Note_on_c, 3, 72, 105
5, 185040, Note_on_c, 3, 79, 105
5, 185099, Note_on_c, 3, 72, 0
5, 185520, Note_on_c, 3, 77, 105
5, 185609, Note_on_c, 3, 79, 0
5, 186000, Note_on_c, 3, 76, 105
5, 186104, Note_on_c, 3, 77, 0
5, 186419, Note_on_c, 3, 76, 0
5, 186480, Note_on_c, 3, 74, 105
5, 186960, Note_on_c, 3, 79, 105
5, 187049, Note_on_c, 3, 74, 0
5, 187440, Note_on_c, 3, 77, 105
5, 187509, Note_on_c, 3, 79, 0
5, 187920, Note_on_c, 3, 75, 105
5, 187969, Note_on_c, 3, 77, 0
5, 188119, Note_on_c, 3, 75, 0
5, 188160, Note_on_c, 3, 76, 111
5, 188220, Note_on_c, 3, 78, 104
5, 188249, Note_on_c, 3, 76, 0
5, 188280, Note_on_c, 3, 79, 101
5, 188319, Note_on_c, 3, 78, 0
5, 188599, Note_on_c, 3, 79, 0
5, 188640, Note_on_c, 3, 79, 105
5, 188736, Note_on_c, 3, 79, 0
5, 188880, Note_on_c, 3, 79, 105
5, 188976, Note_on_c, 3, 79, 0
5, 189120, Note_on_c, 3, 79, 105
5, 189600, Note_on_c, 3, 79, 0
5, 190080, Note_on_c, 3, 76, 114
5, 190140, Note_on_c, 3, 78, 110
5, 190179, Note_on_c, 3, 76, 0
5, 190200, Note_on_c, 3, 79, 105
5, 190244, Note_on_c, 3, 78, 0
5, 190504, Note_on_c, 3, 79, 0
5, 190560, Note_on_c, 3, 79, 105
5, 190656, Note_on_c, 3, 79, 0
5, 190800, Note_on_c, 3, 79, 105
5, 190896, Note_on_c, 3, 79, 0
5, 191040, Note_on_c, 3, 79, 105
5, 191520, Note_on_c, 3, 79, 0
5, 192000, Note_on_c, 3, 69, 105
5, 192960, Note_on_c, 3, 69, 0
5, 192960, Note_on_c, 3, 84, 105
5, 193920, Note_on_c, 3, 84, 0
5, 193920, Note_on_c, 3, 67, 105
5, 194880, Note_on_c, 3, 67, 0
5, 194880, Note_on_c, 3, 83, 105
5, 195840, Note_on_c, 3, 83, 0
5, 195840, Note_on_c, 3, 81, 105
5, 196080, Note_on_c, 3, 81, 0
5, 196080, Note_on_c, 3, 83, 105
5, 196140, Note_on_c, 3, 83, 0
5, 196140, Note_on_c, 3, 81, 105
5, 196200, Note_on_c, 3, 81, 0
5, 196200, Note_on_c, 3, 80, 105
5, 196320, Note_on_c, 3, 80, 0
5, 196320, Note_on_c, 3, 81, 105
5, 196560, Note_on_c, 3, 81, 0
5, 196560, Note_on_c, 3, 84, 105
5, 196800, Note_on_c, 3, 84, 0
5, 196800, Note_on_c, 3, 83, 105
5, 196896, Note_on_c, 3, 83, 0
5, 197040, Note_on_c, 3, 81, 105
5, 197136, Note_on_c, 3, 81, 0
5, 197280, Note_on_c, 3, 79, 105
5, 197376, Note_on_c, 3, 79, 0
5, 197520, Note_on_c, 3, 78, 105
5, 197616, Note_on_c, 3, 78, 0
5, 197760, Note_on_c, 3, 79, 105
5, 197856, Note_on_c, 3, 79, 0
5, 198000, Note_on_c, 3, 81, 105
5, 198096, Note_on_c, 3, 81, 0
5, 198240, Note_on_c, 3, 83, 105
5, 198336, Note_on_c, 3, 83, 0
5, 198480, Note_on_c, 3, 84, 105
5, 198576, Note_on_c, 3, 84, 0
5, 198720, Note_on_c, 3, 86, 105
5, 199200, Note_on_c, 3, 86, 0
5, 199680, Note_on_c, 3, 72, 105
5, 199919, Note_on_c, 3, 72, 0
5, 199920, Note_on_c, 3, 84, 105
5, 200040, Note_on_c, 3, 84, 0
5, 200040, Note_on_c, 3, 86, 105
5, 200160, Note_on_c, 3, 86, 0
5, 200160, Note_on_c, 3, 88, 105
5, 200280, Note_on_c, 3, 88, 0
5, 200280, Note_on_c, 3, 86, 105
5, 200400, Note_on_c, 3, 86, 0
5, 200400, Note_on_c, 3, 84, 105
5, 200520, Note_on_c, 3, 84, 0
5, 200520, Note_on_c, 3, 83, 105
5, 200640, Note_on_c, 3, 83, 0
5, 200640, Note_on_c, 3, 81, 105
5, 200760, Note_on_c, 3, 81, 0
5, 200760, Note_on_c, 3, 80, 105
5, 200880, Note_on_c, 3, 80, 0
5, 200880, Note_on_c, 3, 81, 105
5, 201000, Note_on_c, 3, 81, 0
5, 201000, Note_on_c, 3, 79, 105
5, 201120, Note_on_c, 3, 79, 0
5, 201120, Note_on_c, 3, 78, 105
5, 201240, Note_on_c, 3, 78, 0
5, 201240, Note_on_c, 3, 76, 105
5, 201360, Note_on_c, 3, 76, 0
5, 201360, Note_on_c, 3, 74, 105
5, 201480, Note_on_c, 3, 74, 0
5, 201480, Note_on_c, 3, 72, 105
5, 201600, Note_on_c, 3, 72, 0
5, 201600, Note_on_c, 3, 71, 105
5, 201789, Note_on_c, 3, 71, 0
5, 201840, Note_on_c, 3, 83, 105
5, 201960, Note_on_c, 3, 83, 0
5, 201960, Note_on_c, 3, 84, 105
5, 202080, Note_on_c, 3, 84, 0
5, 202080, Note_on_c, 3, 86, 105
5, 202200, Note_on_c, 3, 86, 0
5, 202200, Note_on_c, 3, 84, 105
5, 202320, Note_on_c, 3, 84, 0
5, 202320, Note_on_c, 3, 83, 105
5, 202440, Note_on_c, 3, 83, 0
5, 202440, Note_on_c, 3, 81, 105
5, 202560, Note_on_c, 3, 81, 0
5, 202560, Note_on_c, 3, 79, 105
5, 202680, Note_on_c, 3, 79, 0
5, 202680, Note_on_c, 3, 78, 105
5, 202800, Note_on_c, 3, 78, 0
5, 202800, Note_on_c, 3, 79, 105
5, 202920, Note_on_c, 3, 79, 0
5, 202920, Note_on_c, 3, 78, 105
5, 203040, Note_on_c, 3, 78, 0
5, 203040, Note_on_c, 3, 76, 105
5, 203160, Note_on_c, 3, 76, 0
5, 203160, Note_on_c, 3, 74, 105
5, 203280, Note_on_c, 3, 74, 0
5, 203280, Note_on_c, 3, 72, 105
5, 203400, Note_on_c, 3, 72, 0
5, 203400, Note_on_c, 3, 71, 105
5, 203489, Note_on_c, 3, 71, 0
5, 203520, Note_on_c, 3, 69, 105
5, 204240, Note_on_c, 3, 84, 105
5, 204324, Note_on_c, 3, 69, 0
5, 204389, Note_on_c, 3, 84, 0
5, 204480, Note_on_c, 3, 83, 105
5, 204576, Note_on_c, 3, 83, 0
5, 204720, Note_on_c, 3, 81, 105
5, 204816, Note_on_c, 3, 81, 0
5, 204960, Note_on_c, 3, 79, 105
5, 205056, Note_on_c, 3, 79, 0
5, 205200, Note_on_c, 3, 78, 105
5, 205296, Note_on_c, 3, 78, 0
5, 205440, Note_on_c, 3, 79, 105
5, 205920, Note_on_c, 3, 79, 0
5, 206400, Note_on_c, 3, 84, 103
5, 206520, Note_on_c, 3, 84, 0
5, 206520, Note_on_c, 3, 83, 105
5, 206640, Note_on_c, 3, 83, 0
5, 206640, Note_on_c, 3, 81, 107
5, 206760, Note_on_c, 3, 81, 0
5, 206760, Note_on_c, 3, 83, 109
5, 206880, Note_on_c, 3, 83, 0
5, 206880, Note_on_c, 3, 86, 111
5, 207000, Note_on_c, 3, 86, 0
5, 207000, Note_on_c, 3, 84, 113
5, 207120, Note_on_c, 3, 84, 0
5, 207120, Note_on_c, 3, 83, 115
5, 207240, Note_on_c, 3, 83, 0
5, 207240, Note_on_c, 3, 84, 117
5, 207360, Note_on_c, 3, 84, 0
5, 207360, Note_on_c, 3, 86, 119
5, 207600, Note_on_c, 3, 83, 105
5, 207649, Note_on_c, 3, 86, 0
5, 207759, Note_on_c, 3, 83, 0
5, 207840, Note_on_c, 3, 79, 105
5, 207936, Note_on_c, 3, 79, 0
5, 208080, Note_on_c, 3, 79, 105
5, 208176, Note_on_c, 3, 79, 0
5, 208320, Note_on_c, 3, 84, 99
5, 208440, Note_on_c, 3, 84, 0
5, 208440, Note_on_c, 3, 83, 101
5, 208560, Note_on_c, 3, 83, 0
5, 208560, Note_on_c, 3, 81, 104
5, 208680, Note_on_c, 3, 81, 0
5, 208680, Note_on_c, 3, 83, 107
5, 208800, Note_on_c, 3, 83, 0
5, 208800, Note_on_c, 3, 86, 110
5, 208920, Note_on_c, 3, 86, 0
5, 208920, Note_on_c, 3, 84, 112
5, 209040, Note_on_c, 3, 84, 0
5, 209040, Note_on_c, 3, 83, 115
5, 209160, Note_on_c, 3, 83, 0
5, 209160, Note_on_c, 3, 84, 118
5, 209280, Note_on_c, 3, 84, 0
5, 209280, Note_on_c, 3, 86, 121
5, 209520, Note_on_c, 3, 83, 105
5, 209584, Note_on_c, 3, 86, 0
5, 209719, Note_on_c, 3, 83, 0
5, 209760, Note_on_c, 3, 79, 105
5, 209856, Note_on_c, 3, 79, 0
5, 210000, Note_on_c, 3, 79, 105
5, 210096, Note_on_c, 3, 79, 0
5, 210240, Note_on_c, 3, 84, 103
5, 210360, Note_on_c, 3, 84, 0
5, 210360, Note_on_c, 3, 83, 105
5, 210480, Note_on_c, 3, 83, 0
5, 210480, Note_on_c, 3, 81, 105
5, 210600, Note_on_c, 3, 81, 0
5, 210600, Note_on_c, 3, 83, 105
5, 210720, Note_on_c, 3, 83, 0
5, 210720, Note_on_c, 3, 86, 105
5, 210840, Note_on_c, 3, 86, 0
5, 210840, Note_on_c, 3, 84, 105
5, 210960, Note_on_c, 3, 84, 0
5, 210960, Note_on_c, 3, 83, 105
5, 211080, Note_on_c, 3, 83, 0
5, 211080, Note_on_c, 3, 84, 105
5, 211200, Note_on_c, 3, 84, 0
5, 211200, Note_on_c, 3, 86, 105
5, 211296, Note_on_c, 3, 86, 0
5, 211440, Note_on_c, 3, 86, 105
5, 211560, Note_on_c, 3, 88, 105
5, 211609, Note_on_c, 3, 86, 0
5, 211664, Note_on_c, 3, 88, 0
5, 211680, Note_on_c, 3, 84, 105
5, 211776, Note_on_c, 3, 84, 0
5, 211920, Note_on_c, 3, 84, 105
5, 212040, Note_on_c, 3, 86, 105
5, 212089, Note_on_c, 3, 84, 0
5, 212144, Note_on_c, 3, 86, 0
5, 212160, Note_on_c, 3, 83, 105
5, 212256, Note_on_c, 3, 83, 0
5, 212400, Note_on_c, 3, 83, 105
5, 212520, Note_on_c, 3, 84, 105
5, 212579, Note_on_c, 3, 83, 0
5, 212609, Note_on_c, 3, 84, 0
5, 212640, Note_on_c, 3, 81, 105
5, 212736, Note_on_c, 3, 81, 0
5, 212880, Note_on_c, 3, 81, 105
5, 213000, Note_on_c, 3, 83, 105
5, 213049, Note_on_c, 3, 81, 0
5, 213099, Note_on_c, 3, 83, 0
5, 213120, Note_on_c, 3, 79, 105
5, 213240, Note_on_c, 3, 79, 0
5, 213240, Note_on_c, 3, 74, 105
5, 213360, Note_on_c, 3, 74, 0
5, 213360, Note_on_c, 3, 76, 105
5, 213480, Note_on_c, 3, 76, 0
5, 213480, Note_on_c, 3, 78, 105
5, 213600, Note_on_c, 3, 78, 0
5, 213600, Note_on_c, 3, 79, 105
5, 213720, Note_on_c, 3, 79, 0
5, 213720, Note_on_c, 3, 81, 105
5, 213840, Note_on_c, 3, 81, 0
5, 213840, Note_on_c, 3, 83, 105
5, 213960, Note_on_c, 3, 83, 0
5, 213960, Note_on_c, 3, 84, 105
5, 214080, Note_on_c, 3, 84, 0
5, 214080, Note_on_c, 3, 86, 105
5, 221104, Note_on_c, 3, 86, 0
5, 221280, Note_on_c, 3, 71, 105
5, 221729, Note_on_c, 3, 71, 0
5, 221760, Note_on_c, 3, 72, 105
5, 222224, Note_on_c, 3, 72, 0
5, 222240, Note_on_c, 3, 88, 105
5, 222689, Note_on_c, 3, 88, 0
5, 222720, Note_on_c, 3, 86, 105
5, 222960, Note_on_c, 3, 86, 0
5, 222960, Note_on_c, 3, 83, 105
5, 223440, Note_on_c, 3, 79, 105
5, 223524, Note_on_c, 3, 83, 0
5, 223644, Note_on_c, 3, 79, 0
5, 223680, Note_on_c, 3, 84, 105
5, 223909, Note_on_c, 3, 84, 0
5, 223920, Note_on_c, 3, 81, 105
5, 224400, Note_on_c, 3, 78, 105
5, 224484, Note_on_c, 3, 81, 0
5, 224549, Note_on_c, 3, 78, 0
5, 224640, Note_on_c, 3, 86, 116
5, 224760, Note_on_c, 3, 86, 0
5, 224760, Note_on_c, 3, 84, 110
5, 224880, Note_on_c, 3, 84, 0
5, 224880, Note_on_c, 3, 83, 106
5, 225000, Note_on_c, 3, 83, 0
5, 225000, Note_on_c, 3, 81, 101
5, 225120, Note_on_c, 3, 81, 0
5, 225120, Note_on_c, 3, 79, 101
5, 225240, Note_on_c, 3, 79, 0
5, 225240, Note_on_c, 3, 78, 98
5, 225360, Note_on_c, 3, 78, 0
5, 225360, Note_on_c, 3, 76, 99
5, 225480, Note_on_c, 3, 76, 0
5, 225480, Note_on_c, 3, 74, 99
5, 225600, Note_on_c, 3, 74, 0
5, 225600, Note_on_c, 3, 76, 93
5, 225720, Note_on_c, 3, 76, 0
5, 225720, Note_on_c, 3, 78, 95
5, 225840, Note_on_c, 3, 78, 0
5, 225840, Note_on_c, 3, 79, 100
5, 225960, Note_on_c, 3, 79, 0
5, 225960, Note_on_c, 3, 81, 105
5, 226080, Note_on_c, 3, 81, 0
5, 226080, Note_on_c, 3, 83, 109
5, 226200, Note_on_c, 3, 83, 0
5, 226200, Note_on_c, 3, 84, 111
5, 226320, Note_on_c, 3, 84, 0
5, 226320, Note_on_c, 3, 86, 114
5, 226440, Note_on_c, 3, 86, 0
5, 226440, Note_on_c, 3, 88, 117
5, 226560, Note_on_c, 3, 88, 0
5, 226560, Note_on_c, 3, 62, 91
5, 226716, Note_on_c, 3, 62, 0
5, 226716, Note_on_c, 3, 67, 98
5, 226880, Note_on_c, 3, 67, 0
5, 226880, Note_on_c, 3, 71, 103
5, 227040, Note_on_c, 3, 71, 0
5, 227040, Note_on_c, 3, 74, 103
5, 227196, Note_on_c, 3, 74, 0
5, 227196, Note_on_c, 3, 79, 100
5, 227360, Note_on_c, 3, 79, 0
5, 227360, Note_on_c, 3, 83, 103
5, 227520, Note_on_c, 3, 83, 0
5, 227520, Note_on_c, 3, 86, 115
5, 228000, Note_on_c, 3, 86, 0
5, 228000, Note_on_c, 3, 84, 104
5, 228120, Note_on_c, 3, 84, 0
5, 228120, Note_on_c, 3, 83, 112
5, 228240, Note_on_c, 3, 83, 0
5, 228240, Note_on_c, 3, 81, 114
5, 228360, Note_on_c, 3, 81, 0
5, 228360, Note_on_c, 3, 79, 105
5, 228469, Note_on_c, 3, 79, 0
5, 228480, Note_on_c, 3, 83, 103
5, 228645, Note_on_c, 3, 81, 116
5, 228674, Note_on_c, 3, 83, 0
5, 228725, Note_on_c, 3, 83, 113
5, 228764, Note_on_c, 3, 81, 0
5, 228785, Note_on_c, 3, 81, 111
5, 228809, Note_on_c, 3, 83, 0
5, 228850, Note_on_c, 3, 83, 109
5, 228879, Note_on_c, 3, 81, 0
5, 228910, Note_on_c, 3, 81, 108
5, 228944, Note_on_c, 3, 83, 0
5, 228960, Note_on_c, 3, 83, 104
5, 229006, Note_on_c, 3, 81, 0
5, 229020, Note_on_c, 3, 81, 103
5, 229044, Note_on_c, 3, 83, 0
5, 229080, Note_on_c, 3, 83, 101
5, 229116, Note_on_c, 3, 81, 0
5, 229135, Note_on_c, 3, 81, 101
5, 229164, Note_on_c, 3, 83, 0
5, 229200, Note_on_c, 3, 83, 101
5, 229231, Note_on_c, 3, 81, 0
5, 229260, Note_on_c, 3, 81, 101
5, 229284, Note_on_c, 3, 83, 0
5, 229320, Note_on_c, 3, 83, 101
5, 229356, Note_on_c, 3, 81, 0
5, 229380, Note_on_c, 3, 81, 102
5, 229404, Note_on_c, 3, 83, 0
5, 229440, Note_on_c, 3, 83, 103
5, 229476, Note_on_c, 3, 81, 0
5, 229500, Note_on_c, 3, 81, 106
5, 229524, Note_on_c, 3, 83, 0
5, 229560, Note_on_c, 3, 83, 107
5, 229596, Note_on_c, 3, 81, 0
5, 229620, Note_on_c, 3, 81, 109
5, 229644, Note_on_c, 3, 83, 0
5, 229680, Note_on_c, 3, 83, 111
5, 229716, Note_on_c, 3, 81, 0
5, 229740, Note_on_c, 3, 81, 111
5, 229764, Note_on_c, 3, 83, 0
5, 229800, Note_on_c, 3, 83, 111
5, 229836, Note_on_c, 3, 81, 0
5, 229860, Note_on_c, 3, 81, 111
5, 229884, Note_on_c, 3, 83, 0
5, 229920, Note_on_c, 3, 83, 111
5, 229956, Note_on_c, 3, 81, 0
5, 229985, Note_on_c, 3, 81, 114
5, 230004, Note_on_c, 3, 83, 0
5, 230040, Note_on_c, 3, 83, 114
5, 230081, Note_on_c, 3, 81, 0
5, 230105, Note_on_c, 3, 81, 113
5, 230124, Note_on_c, 3, 83, 0
5, 230160, Note_on_c, 3, 83, 113
5, 230201, Note_on_c, 3, 81, 0
5, 230225, Note_on_c, 3, 81, 113
5, 230244, Note_on_c, 3, 83, 0
5, 230280, Note_on_c, 3, 79, 112
5, 230321, Note_on_c, 3, 81, 0
5, 230340, Note_on_c, 3, 81, 108
5, 230400, Note_on_c, 3, 79, 123
5, 230460, Note_on_c, 3, 79, 0
5, 230520, Note_on_c, 3, 81, 0
5, 230880, Note_on_c, 3, 79, 0
5, 255360, Note_on_c, 3, 76, 105
5, 256080, Note_on_c, 3, 77, 105
5, 256114, Note_on_c, 3, 76, 0
5, 256200, Note_on_c, 3, 76, 105
5, 256234, Note_on_c, 3, 77, 0
5, 256320, Note_on_c, 3, 71, 105
5, 256354, Note_on_c, 3, 76, 0
5, 257029, Note_on_c, 3, 71, 0
5, 257040, Note_on_c, 3, 74, 105
5, 257254, Note_on_c, 3, 74, 0
5, 257280, Note_on_c, 3, 72, 105
5, 257376, Note_on_c, 3, 72, 0
5, 257520, Note_on_c, 3, 76, 105
5, 257616, Note_on_c, 3, 76, 0
5, 257760, Note_on_c, 3, 81, 105
5, 257856, Note_on_c, 3, 81, 0
5, 258000, Note_on_c, 3, 84, 105
5, 258096, Note_on_c, 3, 84, 0
5, 258240, Note_on_c, 3, 88, 105
5, 258929, Note_on_c, 3, 88, 0
5, 258960, Note_on_c, 3, 88, 105
5, 259159, Note_on_c, 3, 88, 0
5, 259200, Note_on_c, 3, 88, 105
5, 259440, Note_on_c, 3, 80, 105
5, 259489, Note_on_c, 3, 88, 0
5, 259629, Note_on_c, 3, 80, 0
5, 259680, Note_on_c, 3, 80, 105
5, 260339, Note_on_c, 3, 80, 0
5, 260400, Note_on_c, 3, 88, 105
5, 260640, Note_on_c, 3, 87, 105
5, 260674, Note_on_c, 3, 88, 0
5, 260880, Note_on_c, 3, 88, 105
5, 260924, Note_on_c, 3, 87, 0
5, 261089, Note_on_c, 3, 88, 0
5, 261120, Note_on_c, 3, 88, 105
5, 261360, Note_on_c, 3, 81, 105
5, 261424, Note_on_c, 3, 88, 0
5, 261539, Note_on_c, 3, 81, 0
5, 261600, Note_on_c, 3, 81, 105
5, 262320, Note_on_c, 3, 81, 0
5, 262320, Note_on_c, 3, 84, 105
5, 262560, Note_on_c, 3, 80, 105
5, 262609, Note_on_c, 3, 84, 0
5, 262800, Note_on_c, 3, 81, 105
5, 262839, Note_on_c, 3, 80, 0
5, 262999, Note_on_c, 3, 81, 0
5, 263040, Note_on_c, 3, 79, 105
5, 263160, Note_on_c, 3, 77, 105
5, 263189, Note_on_c, 3, 79, 0
5, 263264, Note_on_c, 3, 77, 0
5, 263280, Note_on_c, 3, 76, 105
5, 263400, Note_on_c, 3, 76, 0
5, 263400, Note_on_c, 3, 77, 105
5, 263520, Note_on_c, 3, 77, 0
5, 263520, Note_on_c, 3, 79, 105
5, 263640, Note_on_c, 3, 79, 0
5, 263640, Note_on_c, 3, 77, 105
5, 263760, Note_on_c, 3, 77, 0
5, 263760, Note_on_c, 3, 76, 105
5, 263880, Note_on_c, 3, 76, 0
5, 263880, Note_on_c, 3, 74, 105
5, 264000, Note_on_c, 3, 74, 0
5, 264000, Note_on_c, 3, 72, 105
5, 264439, Note_on_c, 3, 72, 0
5, 264480, Note_on_c, 3, 72, 98
5, 264508, Note_on_c, 3, 71, 100
5, 264536, Note_on_c, 3, 72, 0
5, 264540, Note_on_c, 3, 72, 103
5, 264568, Note_on_c, 3, 71, 103
5, 264572, Note_on_c, 3, 71, 0
5, 264596, Note_on_c, 3, 72, 0
5, 264600, Note_on_c, 3, 72, 106
5, 264628, Note_on_c, 3, 71, 108
5, 264632, Note_on_c, 3, 71, 0
5, 264656, Note_on_c, 3, 72, 0
5, 264660, Note_on_c, 3, 72, 107
5, 264688, Note_on_c, 3, 71, 106
5, 264692, Note_on_c, 3, 71, 0
5, 264716, Note_on_c, 3, 72, 0
5, 264720, Note_on_c, 3, 69, 99
5, 264752, Note_on_c, 3, 71, 0
5, 264840, Note_on_c, 3, 69, 0
5, 264840, Note_on_c, 3, 71, 105
5, 264960, Note_on_c, 3, 71, 0
5, 264960, Note_on_c, 3, 69, 97
5, 265149, Note_on_c, 3, 69, 0
5, 265200, Note_on_c, 3, 84, 114
5, 265404, Note_on_c, 3, 84, 0
5, 265440, Note_on_c, 3, 71, 96
5, 265649, Note_on_c, 3, 71, 0
5, 265680, Note_on_c, 3, 86, 118
5, 265904, Note_on_c, 3, 86, 0
5, 265920, Note_on_c, 3, 72, 95
5, 266139, Note_on_c, 3, 72, 0
5, 266160, Note_on_c, 3, 88, 118
5, 266349, Note_on_c, 3, 88, 0
5, 266400, Note_on_c, 3, 86, 105
5, 266520, Note_on_c, 3, 86, 0
5, 266520, Note_on_c, 3, 84, 105
5, 266640, Note_on_c, 3, 84, 0
5, 266640, Note_on_c, 3, 83, 105
5, 266760, Note_on_c, 3, 83, 0
5, 266760, Note_on_c, 3, 81, 105
5, 266880, Note_on_c, 3, 81, 0
5, 266880, Note_on_c, 3, 80, 105
5, 267000, Note_on_c, 3, 80, 0
5, 267000, Note_on_c, 3, 81, 105
5, 267120, Note_on_c, 3, 81, 0
5, 267120, Note_on_c, 3, 80, 105
5, 267240, Note_on_c, 3, 80, 0
5, 267240, Note_on_c, 3, 81, 105
5, 267360, Note_on_c, 3, 81, 0
5, 267360, Note_on_c, 3, 79, 105
5, 267480, Note_on_c, 3, 79, 0
5, 267480, Note_on_c, 3, 77, 105
5, 267600, Note_on_c, 3, 77, 0
5, 267600, Note_on_c, 3, 76, 105
5, 267720, Note_on_c, 3, 76, 0
5, 267720, Note_on_c, 3, 74, 105
5, 267840, Note_on_c, 3, 74, 0
5, 267840, Note_on_c, 3, 72, 105
5, 268269, Note_on_c, 3, 72, 0
5, 268320, Note_on_c, 3, 72, 92
5, 268348, Note_on_c, 3, 71, 95
5, 268376, Note_on_c, 3, 72, 0
5, 268380, Note_on_c, 3, 72, 102
5, 268408, Note_on_c, 3, 71, 105
5, 268412, Note_on_c, 3, 71, 0
5, 268436, Note_on_c, 3, 72, 0
5, 268440, Note_on_c, 3, 72, 107
5, 268468, Note_on_c, 3, 71, 103
5, 268472, Note_on_c, 3, 71, 0
5, 268496, Note_on_c, 3, 72, 0
5, 268500, Note_on_c, 3, 72, 98
5, 268528, Note_on_c, 3, 71, 98
5, 268532, Note_on_c, 3, 71, 0
5, 268556, Note_on_c, 3, 72, 0
5, 268560, Note_on_c, 3, 69, 98
5, 268592, Note_on_c, 3, 71, 0
5, 268680, Note_on_c, 3, 69, 0
5, 268680, Note_on_c, 3, 71, 106
5, 268800, Note_on_c, 3, 71, 0
5, 268800, Note_on_c, 3, 69, 114
5, 269280, Note_on_c, 3, 69, 0
5, 274560, Note_on_c, 3, 81, 110
5, 275280, Note_on_c, 3, 82, 110
5, 275309, Note_on_c, 3, 81, 0
5, 275400, Note_on_c, 3, 81, 110
5, 275449, Note_on_c, 3, 82, 0
5, 275520, Note_on_c, 3, 76, 110
5, 275569, Note_on_c, 3, 81, 0
5, 276204, Note_on_c, 3, 76, 0
5, 276240, Note_on_c, 3, 79, 110
5, 276454, Note_on_c, 3, 79, 0
5, 276480, Note_on_c, 3, 77, 110
5, 276524, Note_on_c, 3, 77, 0
5, 276600, Note_on_c, 3, 81, 110
5, 276720, Note_on_c, 3, 80, 110
5, 276760, Note_on_c, 3, 81, 0
5, 276840, Note_on_c, 3, 81, 110
5, 276880, Note_on_c, 3, 80, 0
5, 276960, Note_on_c, 3, 80, 110
5, 277000, Note_on_c, 3, 81, 0
5, 277080, Note_on_c, 3, 81, 110
5, 277120, Note_on_c, 3, 80, 0
5, 277200, Note_on_c, 3, 80, 110
5, 277240, Note_on_c, 3, 81, 0
5, 277320, Note_on_c, 3, 81, 110
5, 277360, Note_on_c, 3, 80, 0
5, 277440, Note_on_c, 3, 80, 110
5, 277480, Note_on_c, 3, 81, 0
5, 277560, Note_on_c, 3, 81, 110
5, 277600, Note_on_c, 3, 80, 0
5, 277680, Note_on_c, 3, 80, 110
5, 277720, Note_on_c, 3, 81, 0
5, 277800, Note_on_c, 3, 81, 110
5, 277840, Note_on_c, 3, 80, 0
5, 277920, Note_on_c, 3, 79, 110
5, 277960, Note_on_c, 3, 81, 0
5, 278040, Note_on_c, 3, 79, 0
5, 278040, Note_on_c, 3, 77, 110
5, 278160, Note_on_c, 3, 77, 0
5, 278160, Note_on_c, 3, 76, 110
5, 278280, Note_on_c, 3, 76, 0
5, 278280, Note_on_c, 3, 74, 110
5, 278389, Note_on_c, 3, 74, 0
5, 278400, Note_on_c, 3, 74, 110
5, 278640, Note_on_c, 3, 73, 110
5, 278704, Note_on_c, 3, 74, 0
5, 278824, Note_on_c, 3, 73, 0
5, 278880, Note_on_c, 3, 73, 110
5, 279600, Note_on_c, 3, 82, 110
5, 279639, Note_on_c, 3, 73, 0
5, 279840, Note_on_c, 3, 81, 110
5, 279904, Note_on_c, 3, 82, 0
5, 280080, Note_on_c, 3, 73, 110
5, 280134, Note_on_c, 3, 81, 0
5, 280264, Note_on_c, 3, 73, 0
5, 280320, Note_on_c, 3, 74, 110
5, 280560, Note_on_c, 3, 74, 0
5, 280560, Note_on_c, 3, 76, 110
5, 280680, Note_on_c, 3, 76, 0
5, 280680, Note_on_c, 3, 77, 110
5, 280800, Note_on_c, 3, 77, 0
5, 280800, Note_on_c, 3, 79, 110
5, 280920, Note_on_c, 3, 79, 0
5, 280920, Note_on_c, 3, 81, 110
5, 281040, Note_on_c, 3, 81, 0
5, 281040, Note_on_c, 3, 83, 110
5, 281160, Note_on_c, 3, 83, 0
5, 281160, Note_on_c, 3, 85, 110
5, 281280, Note_on_c, 3, 85, 0
5, 281280, Note_on_c, 3, 86, 110
5, 281479, Note_on_c, 3, 86, 0
5, 281520, Note_on_c, 3, 86, 109
5, 281729, Note_on_c, 3, 86, 0
5, 281760, Note_on_c, 3, 86, 109
5, 281959, Note_on_c, 3, 86, 0
5, 282000, Note_on_c, 3, 86, 109
5, 282240, Note_on_c, 3, 86, 0
5, 282240, Note_on_c, 3, 76, 109
5, 282720, Note_on_c, 3, 76, 0
5, 282720, Note_on_c, 3, 81, 109
5, 282840, Note_on_c, 3, 81, 0
5, 282840, Note_on_c, 3, 79, 109
5, 282960, Note_on_c, 3, 79, 0
5, 282960, Note_on_c, 3, 77, 109
5, 283080, Note_on_c, 3, 77, 0
5, 283080, Note_on_c, 3, 76, 109
5, 283200, Note_on_c, 3, 76, 0
5, 283200, Note_on_c, 3, 74, 109
5, 283680, Note_on_c, 3, 74, 0
5, 283680, Note_on_c, 3, 73, 109
5, 284114, Note_on_c, 3, 73, 0
5, 284160, Note_on_c, 3, 62, 109
5, 284359, Note_on_c, 3, 62, 0
5, 284400, Note_on_c, 3, 77, 109
5, 284599, Note_on_c, 3, 77, 0
5, 284640, Note_on_c, 3, 64, 109
5, 284859, Note_on_c, 3, 64, 0
5, 284880, Note_on_c, 3, 79, 109
5, 285069, Note_on_c, 3, 79, 0
5, 285120, Note_on_c, 3, 65, 109
5, 285309, Note_on_c, 3, 65, 0
5, 285360, Note_on_c, 3, 81, 109
5, 285600, Note_on_c, 3, 81, 0
5, 285600, Note_on_c, 3, 79, 109
5, 285720, Note_on_c, 3, 79, 0
5, 285720, Note_on_c, 3, 77, 109
5, 285840, Note_on_c, 3, 77, 0
5, 285840, Note_on_c, 3, 76, 109
5, 285960, Note_on_c, 3, 76, 0
5, 285960, Note_on_c, 3, 74, 109
5, 286080, Note_on_c, 3, 74, 0
5, 286080, Note_on_c, 3, 67, 109
5, 286269, Note_on_c, 3, 67, 0
5, 286320, Note_on_c, 3, 86, 109
5, 286519, Note_on_c, 3, 86, 0
5, 286560, Note_on_c, 3, 84, 109
5, 286680, Note_on_c, 3, 84, 0
5, 286680, Note_on_c, 3, 82, 109
5, 286800, Note_on_c, 3, 82, 0
5, 286800, Note_on_c, 3, 81, 109
5, 286920, Note_on_c, 3, 81, 0
5, 286920, Note_on_c, 3, 79, 109
5, 287040, Note_on_c, 3, 79, 0
5, 287040, Note_on_c, 3, 77, 109
5, 287449, Note_on_c, 3, 77, 0
5, 287520, Note_on_c, 3, 77, 98
5, 287548, Note_on_c, 3, 76, 101
5, 287576, Note_on_c, 3, 77, 0
5, 287580, Note_on_c, 3, 77, 105
5, 287608, Note_on_c, 3, 76, 106
5, 287612, Note_on_c, 3, 76, 0
5, 287636, Note_on_c, 3, 77, 0
5, 287640, Note_on_c, 3, 77, 112
5, 287668, Note_on_c, 3, 76, 114
5, 287672, Note_on_c, 3, 76, 0
5, 287696, Note_on_c, 3, 77, 0
5, 287700, Note_on_c, 3, 77, 112
5, 287728, Note_on_c, 3, 76, 107
5, 287732, Note_on_c, 3, 76, 0
5, 287756, Note_on_c, 3, 77, 0
5, 287760, Note_on_c, 3, 74, 102
5, 287792, Note_on_c, 3, 76, 0
5, 287880, Note_on_c, 3, 74, 0
5, 287880, Note_on_c, 3, 76, 101
5, 288000, Note_on_c, 3, 76, 0
5, 288000, Note_on_c, 3, 74, 113
5, 288960, Note_on_c, 3, 74, 0
5, 288960, Note_on_c, 3, 62, 89
5, 290880, Note_on_c, 3, 62, 0
5, 290880, Note_on_c, 3, 61, 99
5, 291840, Note_on_c, 3, 61, 0
5, 291840, Note_on_c, 3, 60, 105
5, 293760, Note_on_c, 3, 60, 0
5, 294000, Note_on_c, 3, 81, 88
5, 294209, Note_on_c, 3, 81, 0
5, 294240, Note_on_c, 3, 81, 88
5, 294449, Note_on_c, 3, 81, 0
5, 294480, Note_on_c, 3, 81, 88
5, 294704, Note_on_c, 3, 81, 0
5, 294720, Note_on_c, 3, 83, 88
5, 294840, Note_on_c, 3, 83, 0
5, 294840, Note_on_c, 3, 81, 88
5, 294960, Note_on_c, 3, 81, 0
5, 294960, Note_on_c, 3, 80, 88
5, 295080, Note_on_c, 3, 80, 0
5, 295080, Note_on_c, 3, 81, 88
5, 295200, Note_on_c, 3, 81, 0
5, 295200, Note_on_c, 3, 83, 88
5, 295320, Note_on_c, 3, 83, 0
5, 295320, Note_on_c, 3, 81, 88
5, 295440, Note_on_c, 3, 81, 0
5, 295440, Note_on_c, 3, 80, 88
5, 295560, Note_on_c, 3, 80, 0
5, 295560, Note_on_c, 3, 81, 88
5, 295680, Note_on_c, 3, 81, 0
5, 295680, Note_on_c, 3, 80, 88
5, 295776, Note_on_c, 3, 80, 0
5, 295920, Note_on_c, 3, 80, 87
5, 296016, Note_on_c, 3, 80, 0
5, 296160, Note_on_c, 3, 80, 90
5, 296256, Note_on_c, 3, 80, 0
5, 296400, Note_on_c, 3, 80, 93
5, 296496, Note_on_c, 3, 80, 0
5, 296640, Note_on_c, 3, 80, 96
5, 296760, Note_on_c, 3, 80, 0
5, 296760, Note_on_c, 3, 81, 97
5, 296880, Note_on_c, 3, 81, 0
5, 296880, Note_on_c, 3, 83, 98
5, 297000, Note_on_c, 3, 83, 0
5, 297000, Note_on_c, 3, 81, 100
5, 297120, Note_on_c, 3, 81, 0
5, 297120, Note_on_c, 3, 80, 101
5, 297240, Note_on_c, 3, 80, 0
5, 297240, Note_on_c, 3, 81, 103
5, 297360, Note_on_c, 3, 81, 0
5, 297360, Note_on_c, 3, 83, 104
5, 297480, Note_on_c, 3, 83, 0
5, 297480, Note_on_c, 3, 81, 105
5, 297600, Note_on_c, 3, 81, 0
5, 297600, Note_on_c, 3, 80, 105
5, 297840, Note_on_c, 3, 80, 0
5, 297840, Note_on_c, 3, 86, 105
5, 297936, Note_on_c, 3, 86, 0
5, 298080, Note_on_c, 3, 86, 105
5, 298176, Note_on_c, 3, 86, 0
5, 298320, Note_on_c, 3, 86, 105
5, 298416, Note_on_c, 3, 86, 0
5, 298560, Note_on_c, 3, 86, 105
5, 298680, Note_on_c, 3, 86, 0
5, 298680, Note_on_c, 3, 85, 105
5, 298800, Note_on_c, 3, 85, 0
5, 298800, Note_on_c, 3, 86, 105
5, 298920, Note_on_c, 3, 86, 0
5, 298920, Note_on_c, 3, 85, 105
5, 299040, Note_on_c, 3, 85, 0
5, 299040, Note_on_c, 3, 86, 105
5, 299160, Note_on_c, 3, 86, 0
5, 299160, Note_on_c, 3, 83, 105
5, 299280, Note_on_c, 3, 83, 0
5, 299280, Note_on_c, 3, 81, 105
5, 299400, Note_on_c, 3, 81, 0
5, 299400, Note_on_c, 3, 80, 105
5, 299520, Note_on_c, 3, 80, 0
5, 299520, Note_on_c, 3, 81, 105
5, 300480, Note_on_c, 3, 81, 0
5, 300480, Note_on_c, 3, 69, 70
5, 302400, Note_on_c, 3, 69, 0
5, 302400, Note_on_c, 3, 68, 90
5, 303360, Note_on_c, 3, 68, 0
5, 303360, Note_on_c, 3, 67, 105
5, 306964, Note_on_c, 3, 67, 0
5, 307140, Note_on_c, 3, 67, 105
5, 307200, Note_on_c, 3, 79, 105
5, 307229, Note_on_c, 3, 67, 0
5, 311040, Note_on_c, 3, 79, 0
5, 311160, Note_on_c, 3, 79, 80
5, 311280, Note_on_c, 3, 78, 80
5, 311320, Note_on_c, 3, 79, 0
5, 311400, Note_on_c, 3, 79, 80
5, 311440, Note_on_c, 3, 78, 0
5, 311520, Note_on_c, 3, 80, 80
5, 311560, Note_on_c, 3, 79, 0
5, 311640, Note_on_c, 3, 79, 80
5, 311680, Note_on_c, 3, 80, 0
5, 311760, Note_on_c, 3, 78, 80
5, 311800, Note_on_c, 3, 79, 0
5, 311880, Note_on_c, 3, 79, 80
5, 311920, Note_on_c, 3, 78, 0
5, 312000, Note_on_c, 3, 77, 80
5, 312040, Note_on_c, 3, 79, 0
5, 312120, Note_on_c, 3, 75, 80
5, 312160, Note_on_c, 3, 77, 0
5, 312240, Note_on_c, 3, 74, 80
5, 312280, Note_on_c, 3, 75, 0
5, 312360, Note_on_c, 3, 75, 80
5, 312400, Note_on_c, 3, 74, 0
5, 312480, Note_on_c, 3, 74, 80
5, 312520, Note_on_c, 3, 75, 0
5, 312600, Note_on_c, 3, 72, 80
5, 312640, Note_on_c, 3, 74, 0
5, 312720, Note_on_c, 3, 71, 80
5, 312760, Note_on_c, 3, 72, 0
5, 312840, Note_on_c, 3, 72, 80
5, 312880, Note_on_c, 3, 71, 0
5, 312929, Note_on_c, 3, 72, 0
5, 312960, Note_on_c, 3, 71, 80
5, 313044, Note_on_c, 3, 71, 0
5, 313080, Note_on_c, 3, 79, 81
5, 313200, Note_on_c, 3, 78, 81
5, 313240, Note_on_c, 3, 79, 0
5, 313320, Note_on_c, 3, 79, 81
5, 313360, Note_on_c, 3, 78, 0
5, 313440, Note_on_c, 3, 80, 81
5, 313480, Note_on_c, 3, 79, 0
5, 313560, Note_on_c, 3, 79, 81
5, 313600, Note_on_c, 3, 80, 0
5, 313680, Note_on_c, 3, 78, 81
5, 313720, Note_on_c, 3, 79, 0
5, 313800, Note_on_c, 3, 79, 81
5, 313840, Note_on_c, 3, 78, 0
5, 313920, Note_on_c, 3, 77, 81
5, 313960, Note_on_c, 3, 79, 0
5, 314040, Note_on_c, 3, 75, 81
5, 314080, Note_on_c, 3, 77, 0
5, 314160, Note_on_c, 3, 74, 81
5, 314200, Note_on_c, 3, 75, 0
5, 314280, Note_on_c, 3, 75, 81
5, 314320, Note_on_c, 3, 74, 0
5, 314400, Note_on_c, 3, 74, 81
5, 314440, Note_on_c, 3, 75, 0
5, 314520, Note_on_c, 3, 72, 81
5, 314560, Note_on_c, 3, 74, 0
5, 314640, Note_on_c, 3, 71, 81
5, 314680, Note_on_c, 3, 72, 0
5, 314760, Note_on_c, 3, 72, 81
5, 314800, Note_on_c, 3, 71, 0
5, 314859, Note_on_c, 3, 72, 0
5, 314880, Note_on_c, 3, 71, 81
5, 315360, Note_on_c, 3, 71, 0
5, 315780, Note_on_c, 3, 72, 112
5, 315840, Note_on_c, 3, 84, 118
5, 315904, Note_on_c, 3, 72, 0
5, 316560, Note_on_c, 3, 75, 105
5, 316619, Note_on_c, 3, 84, 0
5, 316769, Note_on_c, 3, 75, 0
5, 316800, Note_on_c, 3, 74, 105
5, 317280, Note_on_c, 3, 74, 0
5, 317700, Note_on_c, 3, 72, 115
5, 317760, Note_on_c, 3, 84, 119
5, 317829, Note_on_c, 3, 72, 0
5, 318480, Note_on_c, 3, 75, 70
5, 318559, Note_on_c, 3, 84, 0
5, 318679, Note_on_c, 3, 75, 0
5, 318720, Note_on_c, 3, 75, 70
5, 318780, Note_on_c, 3, 74, 70
5, 318800, Note_on_c, 3, 75, 0
5, 318840, Note_on_c, 3, 75, 70
5, 318860, Note_on_c, 3, 74, 0
5, 318900, Note_on_c, 3, 74, 71
5, 318920, Note_on_c, 3, 75, 0
5, 318960, Note_on_c, 3, 75, 71
5, 318980, Note_on_c, 3, 74, 0
5, 319020, Note_on_c, 3, 74, 72
5, 319040, Note_on_c, 3, 75, 0
5, 319080, Note_on_c, 3, 75, 72
5, 319100, Note_on_c, 3, 74, 0
5, 319140, Note_on_c, 3, 74, 73
5, 319160, Note_on_c, 3, 75, 0
5, 319200, Note_on_c, 3, 75, 73
5, 319220, Note_on_c, 3, 74, 0
5, 319260, Note_on_c, 3, 74, 74
5, 319280, Note_on_c, 3, 75, 0
5, 319320, Note_on_c, 3, 75, 75
5, 319340, Note_on_c, 3, 74, 0
5, 319380, Note_on_c, 3, 74, 75
5, 319400, Note_on_c, 3, 75, 0
5, 319440, Note_on_c, 3, 72, 76
5, 319460, Note_on_c, 3, 74, 0
5, 319560, Note_on_c, 3, 74, 77
5, 319619, Note_on_c, 3, 72, 0
5, 319659, Note_on_c, 3, 74, 0
5, 319680, Note_on_c, 3, 77, 78
5, 319740, Note_on_c, 3, 76, 78
5, 319760, Note_on_c, 3, 77, 0
5, 319800, Note_on_c, 3, 77, 79
5, 319820, Note_on_c, 3, 76, 0
5, 319860, Note_on_c, 3, 76, 79
5, 319880, Note_on_c, 3, 77, 0
5, 319920, Note_on_c, 3, 77, 80
5, 319940, Note_on_c, 3, 76, 0
5, 319980, Note_on_c, 3, 76, 80
5, 320000, Note_on_c, 3, 77, 0
5, 320040, Note_on_c, 3, 77, 81
5, 320060, Note_on_c, 3, 76, 0
5, 320100, Note_on_c, 3, 76, 81
5, 320120, Note_on_c, 3, 77, 0
5, 320160, Note_on_c, 3, 77, 82
5, 320180, Note_on_c, 3, 76, 0
5, 320220, Note_on_c, 3, 76, 83
5, 320240, Note_on_c, 3, 77, 0
5, 320280, Note_on_c, 3, 77, 83
5, 320300, Note_on_c, 3, 76, 0
5, 320340, Note_on_c, 3, 76, 84
5, 320360, Note_on_c, 3, 77, 0
5, 320400, Note_on_c, 3, 74, 84
5, 320420, Note_on_c, 3, 76, 0
5, 320520, Note_on_c, 3, 76, 85
5, 320579, Note_on_c, 3, 74, 0
5, 320609, Note_on_c, 3, 76, 0
5, 320640, Note_on_c, 3, 79, 86
5, 320700, Note_on_c, 3, 79, 0
5, 320700, Note_on_c, 3, 77, 87
5, 320760, Note_on_c, 3, 79, 87
5, 320780, Note_on_c, 3, 77, 0
5, 320820, Note_on_c, 3, 77, 88
5, 320840, Note_on_c, 3, 79, 0
5, 320880, Note_on_c, 3, 79, 88
5, 320900, Note_on_c, 3, 77, 0
5, 320940, Note_on_c, 3, 77, 89
5, 320960, Note_on_c, 3, 79, 0
5, 321000, Note_on_c, 3, 79, 90
5, 321020, Note_on_c, 3, 77, 0
5, 321060, Note_on_c, 3, 77, 90
5, 321080, Note_on_c, 3, 79, 0
5, 321120, Note_on_c, 3, 79, 91
5, 321140, Note_on_c, 3, 77, 0
5, 321180, Note_on_c, 3, 77, 91
5, 321200, Note_on_c, 3, 79, 0
5, 321240, Note_on_c, 3, 79, 92
5, 321260, Note_on_c, 3, 77, 0
5, 321300, Note_on_c, 3, 77, 92
5, 321320, Note_on_c, 3, 79, 0
5, 321360, Note_on_c, 3, 76, 93
5, 321380, Note_on_c, 3, 77, 0
5, 321480, Note_on_c, 3, 77, 94
5, 321539, Note_on_c, 3, 76, 0
5, 321564, Note_on_c, 3, 77, 0
5, 321600, Note_on_c, 3, 81, 95
5, 321660, Note_on_c, 3, 79, 95
5, 321680, Note_on_c, 3, 81, 0
5, 321720, Note_on_c, 3, 81, 96
5, 321740, Note_on_c, 3, 79, 0
5, 321780, Note_on_c, 3, 79, 96
5, 321800, Note_on_c, 3, 81, 0
5, 321840, Note_on_c, 3, 81, 97
5, 321860, Note_on_c, 3, 79, 0
5, 321900, Note_on_c, 3, 79, 98
5, 321920, Note_on_c, 3, 81, 0
5, 321960, Note_on_c, 3, 81, 98
5, 321980, Note_on_c, 3, 79, 0
5, 322020, Note_on_c, 3, 79, 99
5, 322040, Note_on_c, 3, 81, 0
5, 322080, Note_on_c, 3, 81, 99
5, 322100, Note_on_c, 3, 79, 0
5, 322140, Note_on_c, 3, 79, 100
5, 322160, Note_on_c, 3, 81, 0
5, 322200, Note_on_c, 3, 81, 100
5, 322220, Note_on_c, 3, 79, 0
5, 322260, Note_on_c, 3, 79, 101
5, 322280, Note_on_c, 3, 81, 0
5, 322320, Note_on_c, 3, 77, 101
5, 322340, Note_on_c, 3, 79, 0
5, 322440, Note_on_c, 3, 79, 102
5, 322479, Note_on_c, 3, 77, 0
5, 322524, Note_on_c, 3, 79, 0
5, 322560, Note_on_c, 3, 83, 103
5, 322620, Note_on_c, 3, 81, 104
5, 322640, Note_on_c, 3, 83, 0
5, 322680, Note_on_c, 3, 83, 105
5, 322700, Note_on_c, 3, 81, 0
5, 322740, Note_on_c, 3, 81, 105
5, 322760, Note_on_c, 3, 83, 0
5, 322800, Note_on_c, 3, 83, 105
5, 322820, Note_on_c, 3, 81, 0
5, 322860, Note_on_c, 3, 81, 105
5, 322880, Note_on_c, 3, 83, 0
5, 322920, Note_on_c, 3, 83, 105
5, 322940, Note_on_c, 3, 81, 0
5, 322980, Note_on_c, 3, 81, 105
5, 323000, Note_on_c, 3, 83, 0
5, 323040, Note_on_c, 3, 83, 105
5, 323060, Note_on_c, 3, 81, 0
5, 323100, Note_on_c, 3, 81, 105
5, 323120, Note_on_c, 3, 83, 0
5, 323160, Note_on_c, 3, 83, 105
5, 323180, Note_on_c, 3, 81, 0
5, 323220, Note_on_c, 3, 81, 105
5, 323240, Note_on_c, 3, 83, 0
5, 323280, Note_on_c, 3, 79, 105
5, 323300, Note_on_c, 3, 81, 0
5, 323400, Note_on_c, 3, 81, 105
5, 323444, Note_on_c, 3, 79, 0
5, 323489, Note_on_c, 3, 81, 0
5, 323520, Note_on_c, 3, 84, 105
5, 323580, Note_on_c, 3, 83, 105
5, 323600, Note_on_c, 3, 84, 0
5, 323640, Note_on_c, 3, 84, 105
5, 323660, Note_on_c, 3, 83, 0
5, 323700, Note_on_c, 3, 83, 105
5, 323720, Note_on_c, 3, 84, 0
5, 323760, Note_on_c, 3, 84, 105
5, 323780, Note_on_c, 3, 83, 0
5, 323820, Note_on_c, 3, 83, 105
5, 323840, Note_on_c, 3, 84, 0
5, 323880, Note_on_c, 3, 84, 105
5, 323900, Note_on_c, 3, 83, 0
5, 323940, Note_on_c, 3, 83, 105
5, 323960, Note_on_c, 3, 84, 0
5, 324000, Note_on_c, 3, 84, 105
5, 324020, Note_on_c, 3, 83, 0
5, 324060, Note_on_c, 3, 83, 105
5, 324080, Note_on_c, 3, 84, 0
5, 324120, Note_on_c, 3, 84, 105
5, 324140, Note_on_c, 3, 83, 0
5, 324180, Note_on_c, 3, 83, 105
5, 324200, Note_on_c, 3, 84, 0
5, 324240, Note_on_c, 3, 81, 105
5, 324260, Note_on_c, 3, 83, 0
5, 324360, Note_on_c, 3, 83, 105
5, 324409, Note_on_c, 3, 81, 0
5, 324449, Note_on_c, 3, 83, 0
5, 324480, Note_on_c, 3, 84, 117
5, 324960, Note_on_c, 3, 84, 0
5, 336480, Note_on_c, 3, 72, 82
5, 336720, Note_on_c, 3, 84, 82
5, 336769, Note_on_c, 3, 72, 0
5, 336919, Note_on_c, 3, 84, 0
5, 336960, Note_on_c, 3, 71, 82
5, 337200, Note_on_c, 3, 83, 82
5, 337269, Note_on_c, 3, 71, 0
5, 337379, Note_on_c, 3, 83, 0
5, 337440, Note_on_c, 3, 72, 82
5, 337680, Note_on_c, 3, 84, 82
5, 337739, Note_on_c, 3, 72, 0
5, 337859, Note_on_c, 3, 84, 0
5, 337920, Note_on_c, 3, 86, 105
5, 338400, Note_on_c, 3, 86, 0
5, 338400, Note_on_c, 3, 74, 83
5, 338640, Note_on_c, 3, 86, 83
5, 338729, Note_on_c, 3, 74, 0
5, 338839, Note_on_c, 3, 86, 0
5, 338880, Note_on_c, 3, 73, 83
5, 339120, Note_on_c, 3, 85, 82
5, 339179, Note_on_c, 3, 73, 0
5, 339279, Note_on_c, 3, 85, 0
5, 339360, Note_on_c, 3, 74, 82
5, 339600, Note_on_c, 3, 86, 82
5, 339669, Note_on_c, 3, 74, 0
5, 339789, Note_on_c, 3, 86, 0
5, 339840, Note_on_c, 3, 88, 105
5, 340320, Note_on_c, 3, 88, 0
5, 340320, Note_on_c, 3, 64, 81
5, 340560, Note_on_c, 3, 76, 81
5, 340609, Note_on_c, 3, 64, 0
5, 340729, Note_on_c, 3, 76, 0
5, 340800, Note_on_c, 3, 63, 81
5, 341040, Note_on_c, 3, 75, 81
5, 341139, Note_on_c, 3, 63, 0
5, 341229, Note_on_c, 3, 75, 0
5, 341280, Note_on_c, 3, 64, 81
5, 341520, Note_on_c, 3, 76, 81
5, 341589, Note_on_c, 3, 64, 0
5, 341699, Note_on_c, 3, 76, 0
5, 341760, Note_on_c, 3, 65, 80
5, 341888, Note_on_c, 3, 65, 0
5, 342000, Note_on_c, 3, 77, 83
5, 342128, Note_on_c, 3, 77, 0
5, 342240, Note_on_c, 3, 67, 86
5, 342368, Note_on_c, 3, 67, 0
5, 342480, Note_on_c, 3, 79, 89
5, 342608, Note_on_c, 3, 79, 0
5, 342720, Note_on_c, 3, 69, 93
5, 342848, Note_on_c, 3, 69, 0
5, 342960, Note_on_c, 3, 81, 96
5, 343088, Note_on_c, 3, 81, 0
5, 343200, Note_on_c, 3, 71, 99
5, 343328, Note_on_c, 3, 71, 0
5, 343440, Note_on_c, 3, 83, 102
5, 343568, Note_on_c, 3, 83, 0
5, 343680, Note_on_c, 3, 84, 105
5, 345549, Note_on_c, 3, 84, 0
5, 345600, Note_on_c, 3, 79, 105
5, 347459, Note_on_c, 3, 79, 0
5, 347520, Note_on_c, 3, 72, 105
5, 349389, Note_on_c, 3, 72, 0
5, 349440, Note_on_c, 3, 67, 105
5, 351279, Note_on_c, 3, 67, 0
5, 351360, Note_on_c, 3, 72, 105
5, 351600, Note_on_c, 3, 88, 105
5, 351739, Note_on_c, 3, 72, 0
5, 351989, Note_on_c, 3, 88, 0
5, 352080, Note_on_c, 3, 86, 105
5, 352269, Note_on_c, 3, 86, 0
5, 352320, Note_on_c, 3, 69, 105
5, 352560, Note_on_c, 3, 84, 105
5, 352649, Note_on_c, 3, 69, 0
5, 352929, Note_on_c, 3, 84, 0
5, 353040, Note_on_c, 3, 83, 105
5, 353249, Note_on_c, 3, 83, 0
5, 353280, Note_on_c, 3, 65, 105
5, 353520, Note_on_c, 3, 81, 105
5, 353679, Note_on_c, 3, 65, 0
5, 353899, Note_on_c, 3, 81, 0
5, 354000, Note_on_c, 3, 79, 105
5, 354149, Note_on_c, 3, 79, 0
5, 354240, Note_on_c, 3, 77, 105
5, 354409, Note_on_c, 3, 77, 0
5, 354480, Note_on_c, 3, 76, 105
5, 354629, Note_on_c, 3, 76, 0
5, 354720, Note_on_c, 3, 74, 105
5, 354869, Note_on_c, 3, 74, 0
5, 354960, Note_on_c, 3, 72, 105
5, 355089, Note_on_c, 3, 72, 0
5, 355200, Note_on_c, 3, 79, 105
5, 357299, Note_on_c, 3, 79, 0
5, 357360, Note_on_c, 3, 79, 104
5, 357488, Note_on_c, 3, 79, 0
5, 357600, Note_on_c, 3, 81, 104
5, 357728, Note_on_c, 3, 81, 0
5, 357840, Note_on_c, 3, 83, 106
5, 357968, Note_on_c, 3, 83, 0
5, 358080, Note_on_c, 3, 84, 108
5, 358208, Note_on_c, 3, 84, 0
5, 358320, Note_on_c, 3, 86, 114
5, 358448, Note_on_c, 3, 86, 0
5, 358560, Note_on_c, 3, 88, 117
5, 358688, Note_on_c, 3, 88, 0
5, 358800, Note_on_c, 3, 90, 115
5, 358928, Note_on_c, 3, 90, 0
5, 359040, Note_on_c, 3, 91, 110
5, 359520, Note_on_c, 3, 91, 0
5, 362820, Note_on_c, 3, 67, 115
5, 362880, Note_on_c, 3, 79, 122
5, 362969, Note_on_c, 3, 67, 0
5, 363819, Note_on_c, 3, 79, 0
5, 363840, Note_on_c, 3, 76, 105
5, 364080, Note_on_c, 3, 77, 105
5, 364119, Note_on_c, 3, 76, 0
5, 364140, Note_on_c, 3, 76, 105
5, 364169, Note_on_c, 3, 77, 0
5, 364200, Note_on_c, 3, 74, 105
5, 364219, Note_on_c, 3, 76, 0
5, 364320, Note_on_c, 3, 76, 105
5, 364359, Note_on_c, 3, 74, 0
5, 364519, Note_on_c, 3, 76, 0
5, 364560, Note_on_c, 3, 77, 105
5, 364679, Note_on_c, 3, 77, 0
5, 364800, Note_on_c, 3, 81, 105
5, 365040, Note_on_c, 3, 79, 105
5, 365089, Note_on_c, 3, 81, 0
5, 365219, Note_on_c, 3, 79, 0
5, 365280, Note_on_c, 3, 79, 105
5, 366240, Note_on_c, 3, 79, 0
5, 366240, Note_on_c, 3, 77, 105
5, 366360, Note_on_c, 3, 77, 0
5, 366360, Note_on_c, 3, 76, 105
5, 366480, Note_on_c, 3, 76, 0
5, 366480, Note_on_c, 3, 74, 105
5, 366600, Note_on_c, 3, 74, 0
5, 366600, Note_on_c, 3, 72, 105
5, 366684, Note_on_c, 3, 72, 0
5, 366720, Note_on_c, 3, 72, 105
5, 366960, Note_on_c, 3, 81, 105
5, 367029, Note_on_c, 3, 72, 0
5, 367129, Note_on_c, 3, 81, 0
5, 367200, Note_on_c, 3, 81, 105
5, 367920, Note_on_c, 3, 83, 105
5, 367949, Note_on_c, 3, 81, 0
5, 368040, Note_on_c, 3, 84, 105
5, 368089, Note_on_c, 3, 83, 0
5, 368160, Note_on_c, 3, 83, 105
5, 368209, Note_on_c, 3, 84, 0
5, 368364, Note_on_c, 3, 83, 0
5, 368400, Note_on_c, 3, 81, 105
5, 368524, Note_on_c, 3, 81, 0
5, 368640, Note_on_c, 3, 79, 105
5, 369109, Note_on_c, 3, 79, 0
5, 369120, Note_on_c, 3, 72, 105
5, 369579, Note_on_c, 3, 72, 0
5, 369600, Note_on_c, 3, 74, 105
5, 370320, Note_on_c, 3, 76, 105
5, 370369, Note_on_c, 3, 74, 0
5, 370440, Note_on_c, 3, 77, 105
5, 370489, Note_on_c, 3, 76, 0
5, 370539, Note_on_c, 3, 77, 0
5, 370560, Note_on_c, 3, 76, 105
5, 371040, Note_on_c, 3, 76, 0
5, 372480, Note_on_c, 3, 79, 105
5, 373680, Note_on_c, 3, 79, 0
5, 373680, Note_on_c, 3, 81, 105
5, 373800, Note_on_c, 3, 81, 0
5, 373800, Note_on_c, 3, 79, 105
5, 373920, Note_on_c, 3, 79, 0
5, 373920, Note_on_c, 3, 77, 105
5, 374040, Note_on_c, 3, 77, 0
5, 374040, Note_on_c, 3, 76, 105
5, 374160, Note_on_c, 3, 76, 0
5, 374160, Note_on_c, 3, 74, 105
5, 374280, Note_on_c, 3, 74, 0
5, 374280, Note_on_c, 3, 72, 105
5, 374400, Note_on_c, 3, 72, 0
5, 374400, Note_on_c, 3, 72, 105
5, 374640, Note_on_c, 3, 72, 0
5, 374640, Note_on_c, 3, 74, 105
5, 374760, Note_on_c, 3, 74, 0
5, 374760, Note_on_c, 3, 76, 105
5, 374880, Note_on_c, 3, 76, 0
5, 374880, Note_on_c, 3, 77, 105
5, 375000, Note_on_c, 3, 77, 0
5, 375000, Note_on_c, 3, 79, 105
5, 375120, Note_on_c, 3, 79, 0
5, 375120, Note_on_c, 3, 81, 105
5, 375240, Note_on_c, 3, 81, 0
5, 375240, Note_on_c, 3, 83, 105
5, 375360, Note_on_c, 3, 83, 0
5, 375360, Note_on_c, 3, 84, 105
5, 375480, Note_on_c, 3, 84, 0
5, 375480, Note_on_c, 3, 83, 105
5, 375600, Note_on_c, 3, 83, 0
5, 375600, Note_on_c, 3, 84, 105
5, 375720, Note_on_c, 3, 84, 0
5, 375720, Note_on_c, 3, 83, 105
5, 375840, Note_on_c, 3, 83, 0
5, 375840, Note_on_c, 3, 86, 105
5, 375960, Note_on_c, 3, 86, 0
5, 375960, Note_on_c, 3, 84, 105
5, 376080, Note_on_c, 3, 84, 0
5, 376080, Note_on_c, 3, 83, 105
5, 376200, Note_on_c, 3, 83, 0
5, 376200, Note_on_c, 3, 81, 105
5, 376320, Note_on_c, 3, 81, 0
5, 376320, Note_on_c, 3, 79, 105
5, 376800, Note_on_c, 3, 79, 0
5, 376800, Note_on_c, 3, 84, 105
5, 377280, Note_on_c, 3, 84, 0
5, 377280, Note_on_c, 3, 86, 105
5, 378000, Note_on_c, 3, 88, 105
5, 378044, Note_on_c, 3, 86, 0
5, 378120, Note_on_c, 3, 89, 105
5, 378169, Note_on_c, 3, 88, 0
5, 378224, Note_on_c, 3, 89, 0
5, 378240, Note_on_c, 3, 88, 105
5, 378360, Note_on_c, 3, 88, 0
5, 378360, Note_on_c, 3, 84, 105
5, 378480, Note_on_c, 3, 84, 0
5, 378480, Note_on_c, 3, 79, 105
5, 378600, Note_on_c, 3, 79, 0
5, 378600, Note_on_c, 3, 76, 105
5, 378720, Note_on_c, 3, 76, 0
5, 378720, Note_on_c, 3, 72, 105
5, 378840, Note_on_c, 3, 72, 0
5, 378840, Note_on_c, 3, 76, 105
5, 378960, Note_on_c, 3, 76, 0
5, 378960, Note_on_c, 3, 79, 105
5, 379080, Note_on_c, 3, 79, 0
5, 379080, Note_on_c, 3, 84, 105
5, 379200, Note_on_c, 3, 84, 0
5, 379200, Note_on_c, 3, 88, 105
5, 379440, Note_on_c, 3, 88, 0
5, 379440, Note_on_c, 3, 72, 105
5, 379680, Note_on_c, 3, 72, 0
5, 379680, Note_on_c, 3, 71, 105
5, 379920, Note_on_c, 3, 71, 0
5, 379920, Note_on_c, 3, 86, 105
5, 380160, Note_on_c, 3, 86, 0
5, 380160, Note_on_c, 3, 84, 105
5, 380280, Note_on_c, 3, 84, 0
5, 380280, Note_on_c, 3, 81, 105
5, 380400, Note_on_c, 3, 81, 0
5, 380400, Note_on_c, 3, 76, 105
5, 380520, Note_on_c, 3, 76, 0
5, 380520, Note_on_c, 3, 72, 105
5, 380640, Note_on_c, 3, 72, 0
5, 380640, Note_on_c, 3, 69, 105
5, 380760, Note_on_c, 3, 69, 0
5, 380760, Note_on_c, 3, 72, 105
5, 380880, Note_on_c, 3, 72, 0
5, 380880, Note_on_c, 3, 76, 105
5, 381000, Note_on_c, 3, 76, 0
5, 381000, Note_on_c, 3, 81, 105
5, 381120, Note_on_c, 3, 81, 0
5, 381120, Note_on_c, 3, 84, 105
5, 381360, Note_on_c, 3, 84, 0
5, 381360, Note_on_c, 3, 69, 105
5, 381600, Note_on_c, 3, 69, 0
5, 381600, Note_on_c, 3, 67, 105
5, 381840, Note_on_c, 3, 67, 0
5, 381840, Note_on_c, 3, 82, 105
5, 382080, Note_on_c, 3, 82, 0
5, 382080, Note_on_c, 3, 81, 105
5, 382200, Note_on_c, 3, 81, 0
5, 382200, Note_on_c, 3, 77, 105
5, 382320, Note_on_c, 3, 77, 0
5, 382320, Note_on_c, 3, 72, 105
5, 382440, Note_on_c, 3, 72, 0
5, 382440, Note_on_c, 3, 69, 105
5, 382560, Note_on_c, 3, 69, 0
5, 382560, Note_on_c, 3, 65, 105
5, 382680, Note_on_c, 3, 65, 0
5, 382680, Note_on_c, 3, 69, 105
5, 382800, Note_on_c, 3, 69, 0
5, 382800, Note_on_c, 3, 72, 105
5, 382920, Note_on_c, 3, 72, 0
5, 382920, Note_on_c, 3, 77, 105
5, 383040, Note_on_c, 3, 77, 0
5, 383040, Note_on_c, 3, 81, 105
5, 383280, Note_on_c, 3, 81, 0
5, 383280, Note_on_c, 3, 65, 105
5, 383520, Note_on_c, 3, 65, 0
5, 383520, Note_on_c, 3, 64, 105
5, 383760, Note_on_c, 3, 64, 0
5, 383760, Note_on_c, 3, 79, 105
5, 384000, Note_on_c, 3, 79, 0
5, 384000, Note_on_c, 3, 79, 105
5, 384120, Note_on_c, 3, 79, 0
5, 384120, Note_on_c, 3, 77, 105
5, 384240, Note_on_c, 3, 77, 0
5, 384240, Note_on_c, 3, 76, 105
5, 384360, Note_on_c, 3, 76, 0
5, 384360, Note_on_c, 3, 77, 105
5, 384480, Note_on_c, 3, 77, 0
5, 384480, Note_on_c, 3, 77, 105
5, 384600, Note_on_c, 3, 77, 0
5, 384600, Note_on_c, 3, 76, 105
5, 384720, Note_on_c, 3, 76, 0
5, 384720, Note_on_c, 3, 74, 105
5, 384840, Note_on_c, 3, 74, 0
5, 384840, Note_on_c, 3, 76, 105
5, 384960, Note_on_c, 3, 76, 0
5, 384960, Note_on_c, 3, 76, 105
5, 385080, Note_on_c, 3, 76, 0
5, 385080, Note_on_c, 3, 74, 105
5, 385200, Note_on_c, 3, 74, 0
5, 385200, Note_on_c, 3, 73, 105
5, 385320, Note_on_c, 3, 73, 0
5, 385320, Note_on_c, 3, 74, 105
5, 385440, Note_on_c, 3, 74, 0
5, 385440, Note_on_c, 3, 74, 105
5, 385560, Note_on_c, 3, 74, 0
5, 385560, Note_on_c, 3, 72, 105
5, 385680, Note_on_c, 3, 72, 0
5, 385680, Note_on_c, 3, 71, 105
5, 385800, Note_on_c, 3, 71, 0
5, 385800, Note_on_c, 3, 72, 105
5, 385920, Note_on_c, 3, 72, 0
5, 385920, Note_on_c, 3, 71, 105
5, 386400, Note_on_c, 3, 71, 0
5, 389520, Note_on_c, 3, 67, 121
5, 389709, Note_on_c, 3, 67, 0
5, 389760, Note_on_c, 3, 88, 116
5, 390240, Note_on_c, 3, 84, 105
5, 390329, Note_on_c, 3, 88, 0
5, 390429, Note_on_c, 3, 84, 0
5, 390720, Note_on_c, 3, 84, 116
5, 391200, Note_on_c, 3, 79, 105
5, 391289, Note_on_c, 3, 84, 0
5, 391389, Note_on_c, 3, 79, 0
5, 391680, Note_on_c, 3, 79, 117
5, 392160, Note_on_c, 3, 76, 105
5, 392229, Note_on_c, 3, 79, 0
5, 392329, Note_on_c, 3, 76, 0
5, 392640, Note_on_c, 3, 76, 121
5, 393120, Note_on_c, 3, 72, 105
5, 393204, Note_on_c, 3, 76, 0
5, 393309, Note_on_c, 3, 72, 0
5, 393600, Note_on_c, 3, 67, 105
5, 394080, Note_on_c, 3, 67, 0
5, 395520, Note_on_c, 3, 67, 105
5, 395760, Note_on_c, 3, 67, 0
5, 395760, Note_on_c, 3, 69, 105
5, 395880, Note_on_c, 3, 69, 0
5, 395880, Note_on_c, 3, 71, 105
5, 396000, Note_on_c, 3, 71, 0
5, 396000, Note_on_c, 3, 72, 105
5, 396120, Note_on_c, 3, 72, 0
5, 396120, Note_on_c, 3, 74, 105
5, 396240, Note_on_c, 3, 74, 0
5, 396240, Note_on_c, 3, 76, 105
5, 396360, Note_on_c, 3, 76, 0
5, 396360, Note_on_c, 3, 77, 105
5, 396480, Note_on_c, 3, 77, 0
5, 396480, Note_on_c, 3, 79, 105
5, 396600, Note_on_c, 3, 79, 0
5, 396600, Note_on_c, 3, 81, 105
5, 396720, Note_on_c, 3, 81, 0
5, 396720, Note_on_c, 3, 83, 105
5, 396840, Note_on_c, 3, 83, 0
5, 396840, Note_on_c, 3, 84, 105
5, 396960, Note_on_c, 3, 84, 0
5, 396960, Note_on_c, 3, 86, 105
5, 397149, Note_on_c, 3, 86, 0
5, 397200, Note_on_c, 3, 86, 105
5, 397389, Note_on_c, 3, 86, 0
5, 397440, Note_on_c, 3, 88, 120
5, 397920, Note_on_c, 3, 84, 105
5, 398009, Note_on_c, 3, 88, 0
5, 398109, Note_on_c, 3, 84, 0
5, 398400, Note_on_c, 3, 84, 121
5, 398880, Note_on_c, 3, 79, 105
5, 398949, Note_on_c, 3, 84, 0
5, 399049, Note_on_c, 3, 79, 0
5, 399360, Note_on_c, 3, 79, 117
5, 399840, Note_on_c, 3, 76, 105
5, 399929, Note_on_c, 3, 79, 0
5, 400029, Note_on_c, 3, 76, 0
5, 400320, Note_on_c, 3, 76, 120
5, 400800, Note_on_c, 3, 72, 105
5, 400909, Note_on_c, 3, 76, 0
5, 400969, Note_on_c, 3, 72, 0
5, 401280, Note_on_c, 3, 79, 105
5, 401760, Note_on_c, 3, 79, 0
5, 407040, Note_on_c, 3, 84, 105
5, 408960, Note_on_c, 3, 84, 0
5, 408960, Note_on_c, 3, 79, 105
5, 410880, Note_on_c, 3, 79, 0
5, 410880, Note_on_c, 3, 72, 105
5, 411360, Note_on_c, 3, 72, 0
5, 411840, Note_on_c, 3, 79, 105
5, 411936, Note_on_c, 3, 79, 0
5, 412080, Note_on_c, 3, 81, 105
5, 412176, Note_on_c, 3, 81, 0
5, 412320, Note_on_c, 3, 83, 105
5, 412416, Note_on_c, 3, 83, 0
5, 412560, Note_on_c, 3, 84, 105
5, 412656, Note_on_c, 3, 84, 0
5, 412800, Note_on_c, 3, 84, 105
5, 413040, Note_on_c, 3, 83, 105
5, 413099, Note_on_c, 3, 84, 0
5, 413280, Note_on_c, 3, 81, 105
5, 413329, Note_on_c, 3, 83, 0
5, 413520, Note_on_c, 3, 79, 105
5, 413569, Note_on_c, 3, 81, 0
5, 413719, Note_on_c, 3, 79, 0
5, 413760, Note_on_c, 3, 79, 105
5, 413880, Note_on_c, 3, 79, 0
5, 413880, Note_on_c, 3, 77, 105
5, 414000, Note_on_c, 3, 77, 0
5, 414000, Note_on_c, 3, 76, 105
5, 414120, Note_on_c, 3, 76, 0
5, 414120, Note_on_c, 3, 77, 105
5, 414240, Note_on_c, 3, 77, 0
5, 414240, Note_on_c, 3, 81, 105
5, 414480, Note_on_c, 3, 81, 0
5, 414480, Note_on_c, 3, 77, 105
5, 414720, Note_on_c, 3, 77, 0
5, 414720, Note_on_c, 3, 75, 105
5, 414960, Note_on_c, 3, 75, 0
5, 414960, Note_on_c, 3, 76, 105
5, 415200, Note_on_c, 3, 76, 0
5, 415440, Note_on_c, 3, 76, 105
5, 415484, Note_on_c, 3, 76, 0
5, 415560, Note_on_c, 3, 77, 105
5, 415604, Note_on_c, 3, 77, 0
5, 415680, Note_on_c, 3, 79, 105
5, 415776, Note_on_c, 3, 79, 0
5, 415920, Note_on_c, 3, 81, 105
5, 416016, Note_on_c, 3, 81, 0
5, 416160, Note_on_c, 3, 83, 105
5, 416256, Note_on_c, 3, 83, 0
5, 416400, Note_on_c, 3, 84, 105
5, 416496, Note_on_c, 3, 84, 0
5, 416640, Note_on_c, 3, 84, 105
5, 416890, Note_on_c, 3, 83, 105
5, 416949, Note_on_c, 3, 84, 0
5, 417120, Note_on_c, 3, 81, 105
5, 417219, Note_on_c, 3, 83, 0
5, 417360, Note_on_c, 3, 79, 105
5, 417399, Note_on_c, 3, 81, 0
5, 417544, Note_on_c, 3, 79, 0
5, 417600, Note_on_c, 3, 79, 105
5, 417720, Note_on_c, 3, 79, 0
5, 417720, Note_on_c, 3, 77, 105
5, 417840, Note_on_c, 3, 77, 0
5, 417840, Note_on_c, 3, 76, 105
5, 417960, Note_on_c, 3, 76, 0
5, 417960, Note_on_c, 3, 77, 105
5, 418080, Note_on_c, 3, 77, 0
5, 418080, Note_on_c, 3, 81, 105
5, 418289, Note_on_c, 3, 81, 0
5, 418320, Note_on_c, 3, 77, 105
5, 418529, Note_on_c, 3, 77, 0
5, 418560, Note_on_c, 3, 76, 105
5, 418764, Note_on_c, 3, 76, 0
5, 418800, Note_on_c, 3, 84, 105
5, 419280, Note_on_c, 3, 82, 105
5, 419339, Note_on_c, 3, 84, 0
5, 419760, Note_on_c, 3, 81, 105
5, 419824, Note_on_c, 3, 82, 0
5, 420240, Note_on_c, 3, 79, 105
5, 420309, Note_on_c, 3, 81, 0
5, 420659, Note_on_c, 3, 79, 0
5, 420720, Note_on_c, 3, 77, 105
5, 421200, Note_on_c, 3, 84, 105
5, 421274, Note_on_c, 3, 77, 0
5, 421680, Note_on_c, 3, 82, 105
5, 421754, Note_on_c, 3, 84, 0
5, 422160, Note_on_c, 3, 81, 105
5, 422269, Note_on_c, 3, 82, 0
5, 422574, Note_on_c, 3, 81, 0
5, 422640, Note_on_c, 3, 79, 105
5, 423120, Note_on_c, 3, 84, 105
5, 423224, Note_on_c, 3, 79, 0
5, 423600, Note_on_c, 3, 82, 105
5, 423674, Note_on_c, 3, 84, 0
5, 424080, Note_on_c, 3, 80, 105
5, 424154, Note_on_c, 3, 82, 0
5, 424269, Note_on_c, 3, 80, 0
5, 424320, Note_on_c, 3, 81, 110
5, 424380, Note_on_c, 3, 83, 115
5, 424414, Note_on_c, 3, 81, 0
5, 424440, Note_on_c, 3, 84, 123
5, 424474, Note_on_c, 3, 83, 0
5, 424749, Note_on_c, 3, 84, 0
5, 424800, Note_on_c, 3, 84, 105
5, 424896, Note_on_c, 3, 84, 0
5, 425040, Note_on_c, 3, 84, 105
5, 425136, Note_on_c, 3, 84, 0
5, 425280, Note_on_c, 3, 84, 105
5, 425760, Note_on_c, 3, 84, 0
5, 426240, Note_on_c, 3, 81, 104
5, 426300, Note_on_c, 3, 83, 107
5, 426354, Note_on_c, 3, 81, 0
5, 426360, Note_on_c, 3, 84, 114
5, 426414, Note_on_c, 3, 83, 0
5, 426669, Note_on_c, 3, 84, 0
5, 426720, Note_on_c, 3, 84, 105
5, 426816, Note_on_c, 3, 84, 0
5, 426960, Note_on_c, 3, 84, 105
5, 427056, Note_on_c, 3, 84, 0
5, 427200, Note_on_c, 3, 84, 105
5, 427680, Note_on_c, 3, 84, 0
5, 428160, Note_on_c, 3, 74, 105
5, 429120, Note_on_c, 3, 74, 0
5, 429120, Note_on_c, 3, 89, 105
5, 430080, Note_on_c, 3, 89, 0
5, 430080, Note_on_c, 3, 72, 105
5, 431040, Note_on_c, 3, 72, 0
5, 431040, Note_on_c, 3, 88, 105
5, 432000, Note_on_c, 3, 88, 0
5, 432000, Note_on_c, 3, 74, 105
5, 432240, Note_on_c, 3, 74, 0
5, 432240, Note_on_c, 3, 79, 105
5, 432300, Note_on_c, 3, 79, 0
5, 432300, Note_on_c, 3, 77, 105
5, 432360, Note_on_c, 3, 77, 0
5, 432360, Note_on_c, 3, 76, 105
5, 432480, Note_on_c, 3, 76, 0
5, 432480, Note_on_c, 3, 77, 105
5, 432720, Note_on_c, 3, 77, 0
5, 432720, Note_on_c, 3, 81, 105
5, 432960, Note_on_c, 3, 81, 0
5, 432960, Note_on_c, 3, 79, 105
5, 433056, Note_on_c, 3, 79, 0
5, 433200, Note_on_c, 3, 77, 105
5, 433296, Note_on_c, 3, 77, 0
5, 433440, Note_on_c, 3, 76, 105
5, 433536, Note_on_c, 3, 76, 0
5, 433680, Note_on_c, 3, 74, 105
5, 433776, Note_on_c, 3, 74, 0
5, 433920, Note_on_c, 3, 72, 105
5, 434016, Note_on_c, 3, 72, 0
5, 434160, Note_on_c, 3, 74, 105
5, 434256, Note_on_c, 3, 74, 0
5, 434400, Note_on_c, 3, 76, 105
5, 434496, Note_on_c, 3, 76, 0
5, 434640, Note_on_c, 3, 77, 105
5, 434736, Note_on_c, 3, 77, 0
5, 434880, Note_on_c, 3, 79, 105
5, 435360, Note_on_c, 3, 79, 0
5, 435840, Note_on_c, 3, 74, 105
5, 436080, Note_on_c, 3, 74, 0
5, 436080, Note_on_c, 3, 86, 105
5, 436200, Note_on_c, 3, 86, 0
5, 436200, Note_on_c, 3, 88, 105
5, 436320, Note_on_c, 3, 88, 0
5, 436320, Note_on_c, 3, 89, 105
5, 436440, Note_on_c, 3, 89, 0
5, 436440, Note_on_c, 3, 88, 105
5, 436560, Note_on_c, 3, 88, 0
5, 436560, Note_on_c, 3, 86, 105
5, 436680, Note_on_c, 3, 86, 0
5, 436680, Note_on_c, 3, 84, 105
5, 436800, Note_on_c, 3, 84, 0
5, 436800, Note_on_c, 3, 83, 105
5, 436920, Note_on_c, 3, 83, 0
5, 436920, Note_on_c, 3, 84, 105
5, 437040, Note_on_c, 3, 84, 0
5, 437040, Note_on_c, 3, 86, 105
5, 437160, Note_on_c, 3, 86, 0
5, 437160, Note_on_c, 3, 84, 105
5, 437280, Note_on_c, 3, 84, 0
5, 437280, Note_on_c, 3, 83, 105
5, 437400, Note_on_c, 3, 83, 0
5, 437400, Note_on_c, 3, 81, 105
5, 437520, Note_on_c, 3, 81, 0
5, 437520, Note_on_c, 3, 79, 105
5, 437640, Note_on_c, 3, 79, 0
5, 437640, Note_on_c, 3, 77, 105
5, 437760, Note_on_c, 3, 77, 0
5, 437760, Note_on_c, 3, 76, 105
5, 438000, Note_on_c, 3, 76, 0
5, 438000, Note_on_c, 3, 88, 105
5, 438120, Note_on_c, 3, 88, 0
5, 438120, Note_on_c, 3, 87, 105
5, 438240, Note_on_c, 3, 87, 0
5, 438240, Note_on_c, 3, 88, 105
5, 438360, Note_on_c, 3, 88, 0
5, 438360, Note_on_c, 3, 86, 105
5, 438480, Note_on_c, 3, 86, 0
5, 438480, Note_on_c, 3, 84, 105
5, 438600, Note_on_c, 3, 84, 0
5, 438600, Note_on_c, 3, 83, 105
5, 438720, Note_on_c, 3, 83, 0
5, 438720, Note_on_c, 3, 81, 105
5, 438840, Note_on_c, 3, 81, 0
5, 438840, Note_on_c, 3, 83, 105
5, 438960, Note_on_c, 3, 83, 0
5, 438960, Note_on_c, 3, 84, 105
5, 439080, Note_on_c, 3, 84, 0
5, 439080, Note_on_c, 3, 83, 105
5, 439200, Note_on_c, 3, 83, 0
5, 439200, Note_on_c, 3, 81, 105
5, 439320, Note_on_c, 3, 81, 0
5, 439320, Note_on_c, 3, 79, 105
5, 439440, Note_on_c, 3, 79, 0
5, 439440, Note_on_c, 3, 77, 105
5, 439560, Note_on_c, 3, 77, 0
5, 439560, Note_on_c, 3, 76, 105
5, 439680, Note_on_c, 3, 76, 0
5, 439680, Note_on_c, 3, 74, 105
5, 440400, Note_on_c, 3, 89, 105
5, 440469, Note_on_c, 3, 74, 0
5, 440589, Note_on_c, 3, 89, 0
5, 440640, Note_on_c, 3, 88, 105
5, 440736, Note_on_c, 3, 88, 0
5, 440880, Note_on_c, 3, 86, 105
5, 440976, Note_on_c, 3, 86, 0
5, 441120, Note_on_c, 3, 84, 105
5, 441216, Note_on_c, 3, 84, 0
5, 441360, Note_on_c, 3, 83, 105
5, 441456, Note_on_c, 3, 83, 0
5, 441600, Note_on_c, 3, 84, 105
5, 442080, Note_on_c, 3, 84, 0
5, 442560, Note_on_c, 3, 77, 105
5, 442680, Note_on_c, 3, 77, 0
5, 442680, Note_on_c, 3, 76, 105
5, 442800, Note_on_c, 3, 76, 0
5, 442800, Note_on_c, 3, 74, 105
5, 442920, Note_on_c, 3, 74, 0
5, 442920, Note_on_c, 3, 76, 105
5, 443040, Note_on_c, 3, 76, 0
5, 443040, Note_on_c, 3, 79, 105
5, 443160, Note_on_c, 3, 79, 0
5, 443160, Note_on_c, 3, 77, 105
5, 443280, Note_on_c, 3, 77, 0
5, 443280, Note_on_c, 3, 76, 105
5, 443400, Note_on_c, 3, 76, 0
5, 443400, Note_on_c, 3, 77, 105
5, 443520, Note_on_c, 3, 77, 0
5, 443520, Note_on_c, 3, 79, 105
5, 443760, Note_on_c, 3, 84, 105
5, 443844, Note_on_c, 3, 79, 0
5, 443944, Note_on_c, 3, 84, 0
5, 444000, Note_on_c, 3, 79, 105
5, 444129, Note_on_c, 3, 79, 0
5, 444240, Note_on_c, 3, 79, 105
5, 444369, Note_on_c, 3, 79, 0
5, 444480, Note_on_c, 3, 77, 105
5, 444600, Note_on_c, 3, 77, 0
5, 444600, Note_on_c, 3, 76, 105
5, 444720, Note_on_c, 3, 76, 0
5, 444720, Note_on_c, 3, 74, 105
5, 444840, Note_on_c, 3, 74, 0
5, 444840, Note_on_c, 3, 76, 105
5, 444960, Note_on_c, 3, 76, 0
5, 444960, Note_on_c, 3, 79, 105
5, 445080, Note_on_c, 3, 79, 0
5, 445080, Note_on_c, 3, 77, 105
5, 445200, Note_on_c, 3, 77, 0
5, 445200, Note_on_c, 3, 76, 105
5, 445320, Note_on_c, 3, 76, 0
5, 445320, Note_on_c, 3, 77, 105
5, 445440, Note_on_c, 3, 77, 0
5, 445440, Note_on_c, 3, 79, 105
5, 445680, Note_on_c, 3, 84, 105
5, 445749, Note_on_c, 3, 79, 0
5, 445824, Note_on_c, 3, 84, 0
5, 445920, Note_on_c, 3, 79, 105
5, 446016, Note_on_c, 3, 79, 0
5, 446160, Note_on_c, 3, 79, 105
5, 446256, Note_on_c, 3, 79, 0
5, 446400, Note_on_c, 3, 77, 105
5, 446520, Note_on_c, 3, 77, 0
5, 446520, Note_on_c, 3, 76, 105
5, 446640, Note_on_c, 3, 76, 0
5, 446640, Note_on_c, 3, 74, 105
5, 446760, Note_on_c, 3, 74, 0
5, 446760, Note_on_c, 3, 76, 105
5, 446880, Note_on_c, 3, 76, 0
5, 446880, Note_on_c, 3, 79, 105
5, 447000, Note_on_c, 3, 79, 0
5, 447000, Note_on_c, 3, 77, 105
5, 447120, Note_on_c, 3, 77, 0
5, 447120, Note_on_c, 3, 76, 105
5, 447240, Note_on_c, 3, 76, 0
5, 447240, Note_on_c, 3, 77, 105
5, 447360, Note_on_c, 3, 77, 0
5, 447360, Note_on_c, 3, 79, 105
5, 447456, Note_on_c, 3, 79, 0
5, 447600, Note_on_c, 3, 79, 105
5, 447720, Note_on_c, 3, 81, 105
5, 447764, Note_on_c, 3, 79, 0
5, 447804, Note_on_c, 3, 81, 0
5, 447840, Note_on_c, 3, 77, 105
5, 447936, Note_on_c, 3, 77, 0
5, 448080, Note_on_c, 3, 77, 105
5, 448200, Note_on_c, 3, 79, 105
5, 448249, Note_on_c, 3, 77, 0
5, 448289, Note_on_c, 3, 79, 0
5, 448320, Note_on_c, 3, 76, 105
5, 448416, Note_on_c, 3, 76, 0
5, 448560, Note_on_c, 3, 76, 105
5, 448680, Note_on_c, 3, 77, 105
5, 448724, Note_on_c, 3, 76, 0
5, 448769, Note_on_c, 3, 77, 0
5, 448800, Note_on_c, 3, 74, 105
5, 448896, Note_on_c, 3, 74, 0
5, 449040, Note_on_c, 3, 74, 105
5, 449160, Note_on_c, 3, 76, 105
5, 449204, Note_on_c, 3, 74, 0
5, 449249, Note_on_c, 3, 76, 0
5, 449280, Note_on_c, 3, 72, 105
5, 449400, Note_on_c, 3, 72, 0
5, 449400, Note_on_c, 3, 67, 105
5, 449520, Note_on_c, 3, 67, 0
5, 449520, Note_on_c, 3, 69, 105
5, 449640, Note_on_c, 3, 69, 0
5, 449640, Note_on_c, 3, 71, 105
5, 449760, Note_on_c, 3, 71, 0
5, 449760, Note_on_c, 3, 72, 105
5, 449880, Note_on_c, 3, 72, 0
5, 449880, Note_on_c, 3, 74, 105
5, 450000, Note_on_c, 3, 74, 0
5, 450000, Note_on_c, 3, 76, 105
5, 450120, Note_on_c, 3, 76, 0
5, 450120, Note_on_c, 3, 77, 105
5, 450240, Note_on_c, 3, 77, 0
5, 450240, Note_on_c, 3, 79, 105
5, 454999, Note_on_c, 3, 79, 0
5, 455040, Note_on_c, 3, 91, 105
5, 455484, Note_on_c, 3, 91, 0
5, 455520, Note_on_c, 3, 89, 105
5, 455979, Note_on_c, 3, 89, 0
5, 456000, Note_on_c, 3, 88, 105
5, 456449, Note_on_c, 3, 88, 0
5, 456480, Note_on_c, 3, 86, 105
5, 456944, Note_on_c, 3, 86, 0
5, 456960, Note_on_c, 3, 84, 105
5, 457399, Note_on_c, 3, 84, 0
5, 457440, Note_on_c, 3, 64, 105
5, 457889, Note_on_c, 3, 64, 0
5, 457920, Note_on_c, 3, 65, 105
5, 458369, Note_on_c, 3, 65, 0
5, 458400, Note_on_c, 3, 81, 105
5, 458859, Note_on_c, 3, 81, 0
5, 458880, Note_on_c, 3, 79, 105
5, 459069, Note_on_c, 3, 79, 0
5, 459120, Note_on_c, 3, 76, 105
5, 459600, Note_on_c, 3, 72, 105
5, 459659, Note_on_c, 3, 76, 0
5, 459789, Note_on_c, 3, 72, 0
5, 459840, Note_on_c, 3, 77, 105
5, 460049, Note_on_c, 3, 77, 0
5, 460080, Note_on_c, 3, 74, 105
5, 460560, Note_on_c, 3, 71, 105
5, 460629, Note_on_c, 3, 74, 0
5, 460749, Note_on_c, 3, 71, 0
5, 460800, Note_on_c, 3, 84, 105
5, 460920, Note_on_c, 3, 84, 0
5, 460920, Note_on_c, 3, 83, 105
5, 461040, Note_on_c, 3, 83, 0
5, 461040, Note_on_c, 3, 81, 105
5, 461160, Note_on_c, 3, 81, 0
5, 461160, Note_on_c, 3, 79, 105
5, 461280, Note_on_c, 3, 79, 0
5, 461280, Note_on_c, 3, 77, 105
5, 461400, Note_on_c, 3, 77, 0
5, 461400, Note_on_c, 3, 76, 105
5, 461520, Note_on_c, 3, 76, 0
5, 461520, Note_on_c, 3, 74, 105
5, 461640, Note_on_c, 3, 74, 0
5, 461640, Note_on_c, 3, 72, 105
5, 461744, Note_on_c, 3, 72, 0
5, 461760, Note_on_c, 3, 81, 105
5, 461880, Note_on_c, 3, 81, 0
5, 461880, Note_on_c, 3, 79, 105
5, 462000, Note_on_c, 3, 79, 0
5, 462000, Note_on_c, 3, 77, 105
5, 462120, Note_on_c, 3, 77, 0
5, 462120, Note_on_c, 3, 76, 105
5, 462240, Note_on_c, 3, 76, 0
5, 462240, Note_on_c, 3, 74, 105
5, 462360, Note_on_c, 3, 74, 0
5, 462360, Note_on_c, 3, 72, 105
5, 462480, Note_on_c, 3, 72, 0
5, 462480, Note_on_c, 3, 71, 105
5, 462600, Note_on_c, 3, 71, 0
5, 462600, Note_on_c, 3, 69, 105
5, 462699, Note_on_c, 3, 69, 0
5, 462720, Note_on_c, 3, 67, 105
5, 463344, Note_on_c, 3, 67, 0
5, 463440, Note_on_c, 3, 69, 105
5, 463560, Note_on_c, 3, 69, 0
5, 463560, Note_on_c, 3, 71, 105
5, 463680, Note_on_c, 3, 71, 0
5, 463680, Note_on_c, 3, 72, 105
5, 463800, Note_on_c, 3, 72, 0
5, 463800, Note_on_c, 3, 74, 105
5, 463920, Note_on_c, 3, 74, 0
5, 463920, Note_on_c, 3, 76, 105
5, 464040, Note_on_c, 3, 76, 0
5, 464040, Note_on_c, 3, 77, 105
5, 464160, Note_on_c, 3, 77, 0
5, 464160, Note_on_c, 3, 79, 105
5, 464280, Note_on_c, 3, 79, 0
5, 464280, Note_on_c, 3, 81, 105
5, 464400, Note_on_c, 3, 81, 0
5, 464400, Note_on_c, 3, 83, 105
5, 464520, Note_on_c, 3, 83, 0
5, 464520, Note_on_c, 3, 84, 105
5, 464604, Note_on_c, 3, 84, 0
5, 464640, Note_on_c, 3, 88, 105
5, 464820, Note_on_c, 3, 86, 108
5, 464849, Note_on_c, 3, 88, 0
5, 464910, Note_on_c, 3, 88, 107
5, 464934, Note_on_c, 3, 86, 0
5, 464990, Note_on_c, 3, 86, 103
5, 465014, Note_on_c, 3, 88, 0
5, 465090, Note_on_c, 3, 88, 94
5, 465104, Note_on_c, 3, 86, 0
5, 465165, Note_on_c, 3, 86, 91
5, 465199, Note_on_c, 3, 88, 0
5, 465220, Note_on_c, 3, 88, 91
5, 465249, Note_on_c, 3, 86, 0
5, 465280, Note_on_c, 3, 86, 89
5, 465316, Note_on_c, 3, 88, 0
5, 465340, Note_on_c, 3, 88, 89
5, 465364, Note_on_c, 3, 86, 0
5, 465400, Note_on_c, 3, 86, 90
5, 465436, Note_on_c, 3, 88, 0
5, 465455, Note_on_c, 3, 88, 90
5, 465484, Note_on_c, 3, 86, 0
5, 465505, Note_on_c, 3, 86, 92
5, 465539, Note_on_c, 3, 88, 0
5, 465565, Note_on_c, 3, 88, 92
5, 465601, Note_on_c, 3, 86, 0
5, 465620, Note_on_c, 3, 86, 100
5, 465649, Note_on_c, 3, 88, 0
5, 465670, Note_on_c, 3, 88, 101
5, 465710, Note_on_c, 3, 86, 101
5, 465716, Note_on_c, 3, 86, 0
5, 465754, Note_on_c, 3, 88, 0
5, 465755, Note_on_c, 3, 88, 103
5, 465806, Note_on_c, 3, 86, 0
5, 465810, Note_on_c, 3, 86, 105
5, 465839, Note_on_c, 3, 88, 0
5, 465860, Note_on_c, 3, 88, 106
5, 465906, Note_on_c, 3, 86, 0
5, 465910, Note_on_c, 3, 86, 108
5, 465944, Note_on_c, 3, 88, 0
5, 465960, Note_on_c, 3, 88, 110
5, 466006, Note_on_c, 3, 86, 0
5, 466010, Note_on_c, 3, 86, 113
5, 466044, Note_on_c, 3, 88, 0
5, 466065, Note_on_c, 3, 88, 117
5, 466106, Note_on_c, 3, 86, 0
5, 466115, Note_on_c, 3, 86, 118
5, 466149, Note_on_c, 3, 88, 0
5, 466170, Note_on_c, 3, 88, 122
5, 466211, Note_on_c, 3, 86, 0
5, 466220, Note_on_c, 3, 86, 123
5, 466266, Note_on_c, 3, 88, 0
5, 466320, Note_on_c, 3, 84, 127
5, 466359, Note_on_c, 3, 86, 0
5, 466440, Note_on_c, 3, 86, 119
5, 466479, Note_on_c, 3, 84, 0
5, 466560, Note_on_c, 3, 84, 124
5, 466594, Note_on_c, 3, 86, 0
5, 467040, Note_on_c, 3, 84, 0
5, 480000, Note_on_c, 3, 84, 105
5, 480480, Note_on_c, 3, 84, 0
5, 480720, Note_on_c, 3, 81, 105
5, 480960, Note_on_c, 3, 81, 0
5, 480960, Note_on_c, 3, 84, 105
5, 481080, Note_on_c, 3, 84, 0
5, 481080, Note_on_c, 3, 83, 105
5, 481200, Note_on_c, 3, 83, 0
5, 481200, Note_on_c, 3, 84, 105
5, 481260, Note_on_c, 3, 84, 0
5, 481260, Note_on_c, 3, 83, 105
5, 481320, Note_on_c, 3, 83, 0
5, 481320, Note_on_c, 3, 84, 105
5, 481348, Note_on_c, 3, 84, 0
5, 481348, Note_on_c, 3, 83, 105
5, 481380, Note_on_c, 3, 83, 0
5, 481380, Note_on_c, 3, 84, 105
5, 481408, Note_on_c, 3, 84, 0
5, 481408, Note_on_c, 3, 83, 105
5, 481440, Note_on_c, 3, 83, 0
5, 481440, Note_on_c, 3, 84, 105
5, 481468, Note_on_c, 3, 84, 0
5, 481468, Note_on_c, 3, 83, 105
5, 481500, Note_on_c, 3, 83, 0
5, 481500, Note_on_c, 3, 84, 105
5, 481528, Note_on_c, 3, 84, 0
5, 481528, Note_on_c, 3, 83, 105
5, 481560, Note_on_c, 3, 83, 0
5, 481560, Note_on_c, 3, 84, 105
5, 481588, Note_on_c, 3, 84, 0
5, 481588, Note_on_c, 3, 83, 105
5, 481620, Note_on_c, 3, 83, 0
5, 481620, Note_on_c, 3, 84, 105
5, 481648, Note_on_c, 3, 84, 0
5, 481648, Note_on_c, 3, 83, 105
5, 481680, Note_on_c, 3, 83, 0
5, 481680, Note_on_c, 3, 81, 105
5, 481800, Note_on_c, 3, 81, 0
5, 481800, Note_on_c, 3, 83, 105
5, 481920, Note_on_c, 3, 83, 0
5, 481920, Note_on_c, 3, 84, 105
5, 482400, Note_on_c, 3, 84, 0
5, 503040, Note_on_c, 3, 84, 123
5, 507344, Note_on_c, 3, 84, 0
5, 507360, Note_on_c, 3, 84, 127
5, 507809, Note_on_c, 3, 84, 0
5, 507840, Note_on_c, 3, 84, 127
5, 508284, Note_on_c, 3, 84, 0
5, 508320, Note_on_c, 3, 84, 126
5, 508769, Note_on_c, 3, 84, 0
5, 508800, Note_on_c, 3, 84, 126
5, 509280, Note_on_c, 3, 84, 0
5, 510720, System_exclusive, 0A, 41, 10, 42, 12, 40, 00, 7F, 00, 41, F7
5, 510720, End_track
6, 0, Start_track
6, 0, Title_t, "Harp"
6, 0, Control_c, 4, 0, 0
6, 0, Control_c, 4, 7, 90
6, 0, Control_c, 4, 10, 70
6, 0, Control_c, 4, 91, 88
6, 0, Control_c, 4, 93, 67
6, 1, Control_c, 4, 32, 1
6, 2, Program_c, 4, 46
6, 1805, Note_on_c, 4, 60, 105
6, 1830, Note_on_c, 4, 64, 105
6, 1860, Note_on_c, 4, 67, 105
6, 1865, Note_on_c, 4, 60, 0
6, 1890, Note_on_c, 4, 64, 0
6, 1920, Note_on_c, 4, 67, 0
6, 1920, Note_on_c, 4, 72, 105
6, 1920, Note_on_c, 4, 48, 105
6, 2640, Note_on_c, 4, 48, 0
6, 2640, Note_on_c, 4, 72, 0
6, 2640, Note_on_c, 4, 67, 105
6, 2640, Note_on_c, 4, 43, 105
6, 2880, Note_on_c, 4, 43, 0
6, 2880, Note_on_c, 4, 67, 0
6, 2880, Note_on_c, 4, 64, 105
6, 2880, Note_on_c, 4, 40, 105
6, 3120, Note_on_c, 4, 40, 0
6, 3120, Note_on_c, 4, 64, 0
6, 3120, Note_on_c, 4, 60, 105
6, 3120, Note_on_c, 4, 36, 105
6, 3360, Note_on_c, 4, 36, 0
6, 3360, Note_on_c, 4, 60, 0
6, 3360, Note_on_c, 4, 64, 105
6, 3360, Note_on_c, 4, 40, 105
6, 3600, Note_on_c, 4, 40, 0
6, 3600, Note_on_c, 4, 64, 0
6, 3600, Note_on_c, 4, 67, 105
6, 3600, Note_on_c, 4, 43, 105
6, 3840, Note_on_c, 4, 43, 0
6, 3840, Note_on_c, 4, 67, 0
6, 3840, Note_on_c, 4, 72, 105
6, 3840, Note_on_c, 4, 48, 105
6, 4560, Note_on_c, 4, 48, 0
6, 4560, Note_on_c, 4, 72, 0
6, 4560, Note_on_c, 4, 67, 105
6, 4560, Note_on_c, 4, 43, 105
6, 4800, Note_on_c, 4, 43, 0
6, 4800, Note_on_c, 4, 67, 0
6, 4800, Note_on_c, 4, 64, 105
6, 4800, Note_on_c, 4, 40, 105
6, 5040, Note_on_c, 4, 40, 0
6, 5040, Note_on_c, 4, 64, 0
6, 5040, Note_on_c, 4, 60, 105
6, 5040, Note_on_c, 4, 36, 105
6, 5280, Note_on_c, 4, 36, 0
6, 5280, Note_on_c, 4, 60, 0
6, 5280, Note_on_c, 4, 64, 105
6, 5280, Note_on_c, 4, 40, 105
6, 5520, Note_on_c, 4, 40, 0
6, 5520, Note_on_c, 4, 64, 0
6, 5520, Note_on_c, 4, 67, 105
6, 5520, Note_on_c, 4, 43, 105
6, 5760, Note_on_c, 4, 43, 0
6, 5760, Note_on_c, 4, 67, 0
6, 5760, Note_on_c, 4, 72, 105
6, 5760, Note_on_c, 4, 48, 105
6, 6240, Note_on_c, 4, 48, 0
6, 6240, Note_on_c, 4, 72, 0
6, 84300, Note_on_c, 4, 72, 105
6, 84300, Note_on_c, 4, 48, 105
6, 84360, Note_on_c, 4, 48, 0
6, 84360, Note_on_c, 4, 72, 0
6, 84360, Note_on_c, 4, 76, 105
6, 84360, Note_on_c, 4, 52, 105
6, 84420, Note_on_c, 4, 52, 0
6, 84420, Note_on_c, 4, 76, 0
6, 84420, Note_on_c, 4, 79, 105
6, 84420, Note_on_c, 4, 55, 105
6, 84480, Note_on_c, 4, 55, 0
6, 84480, Note_on_c, 4, 79, 0
6, 84480, Note_on_c, 4, 84, 105
6, 84480, Note_on_c, 4, 60, 105
6, 85200, Note_on_c, 4, 60, 0
6, 85200, Note_on_c, 4, 84, 0
6, 85200, Note_on_c, 4, 79, 105
6, 85200, Note_on_c, 4, 55, 105
6, 85440, Note_on_c, 4, 55, 0
6, 85440, Note_on_c, 4, 79, 0
6, 85440, Note_on_c, 4, 76, 105
6, 85440, Note_on_c, 4, 52, 105
6, 85680, Note_on_c, 4, 52, 0
6, 85680, Note_on_c, 4, 76, 0
6, 85680, Note_on_c, 4, 72, 105
6, 85680, Note_on_c, 4, 48, 105
6, 85920, Note_on_c, 4, 48, 0
6, 85920, Note_on_c, 4, 72, 0
6, 85920, Note_on_c, 4, 76, 105
6, 85920, Note_on_c, 4, 52, 105
6, 86160, Note_on_c, 4, 52, 0
6, 86160, Note_on_c, 4, 76, 0
6, 86160, Note_on_c, 4, 79, 105
6, 86160, Note_on_c, 4, 55, 105
6, 86400, Note_on_c, 4, 55, 0
6, 86400, Note_on_c, 4, 79, 0
6, 86400, Note_on_c, 4, 84, 105
6, 86400, Note_on_c, 4, 60, 105
6, 87120, Note_on_c, 4, 60, 0
6, 87120, Note_on_c, 4, 84, 0
6, 87120, Note_on_c, 4, 79, 105
6, 87120, Note_on_c, 4, 55, 105
6, 87360, Note_on_c, 4, 55, 0
6, 87360, Note_on_c, 4, 79, 0
6, 87360, Note_on_c, 4, 76, 105
6, 87360, Note_on_c, 4, 52, 105
6, 87600, Note_on_c, 4, 52, 0
6, 87600, Note_on_c, 4, 76, 0
6, 87600, Note_on_c, 4, 72, 105
6, 87600, Note_on_c, 4, 48, 105
6, 87840, Note_on_c, 4, 48, 0
6, 87840, Note_on_c, 4, 72, 0
6, 87840, Note_on_c, 4, 76, 105
6, 87840, Note_on_c, 4, 52, 105
6, 88080, Note_on_c, 4, 52, 0
6, 88080, Note_on_c, 4, 76, 0
6, 88080, Note_on_c, 4, 79, 105
6, 88080, Note_on_c, 4, 55, 105
6, 88320, Note_on_c, 4, 55, 0
6, 88320, Note_on_c, 4, 79, 0
6, 88320, Note_on_c, 4, 84, 105
6, 88320, Note_on_c, 4, 60, 105
6, 88800, Note_on_c, 4, 60, 0
6, 88800, Note_on_c, 4, 84, 0
6, 88800, Note_on_c, 4, 48, 70
6, 88920, Note_on_c, 4, 60, 70
6, 89040, Note_on_c, 4, 60, 0
6, 89040, Note_on_c, 4, 72, 70
6, 89160, Note_on_c, 4, 72, 0
6, 89160, Note_on_c, 4, 60, 70
6, 89280, Note_on_c, 4, 60, 0
6, 89280, Note_on_c, 4, 48, 0
6, 89280, Note_on_c, 4, 47, 70
6, 89400, Note_on_c, 4, 59, 70
6, 89520, Note_on_c, 4, 59, 0
6, 89520, Note_on_c, 4, 71, 70
6, 89640, Note_on_c, 4, 71, 0
6, 89640, Note_on_c, 4, 59, 70
6, 89760, Note_on_c, 4, 59, 0
6, 89760, Note_on_c, 4, 47, 0
6, 89760, Note_on_c, 4, 48, 70
6, 89880, Note_on_c, 4, 60, 70
6, 90000, Note_on_c, 4, 60, 0
6, 90000, Note_on_c, 4, 72, 70
6, 90120, Note_on_c, 4, 72, 0
6, 90120, Note_on_c, 4, 60, 70
6, 90240, Note_on_c, 4, 60, 0
6, 90240, Note_on_c, 4, 48, 0
6, 90240, Note_on_c, 4, 38, 105
6, 90240, Note_on_c, 4, 50, 105
6, 90360, Note_on_c, 4, 62, 105
6, 90480, Note_on_c, 4, 62, 0
6, 90480, Note_on_c, 4, 74, 105
6, 90600, Note_on_c, 4, 74, 0
6, 90600, Note_on_c, 4, 62, 105
6, 90720, Note_on_c, 4, 62, 0
6, 90720, Note_on_c, 4, 50, 0
6, 90720, Note_on_c, 4, 38, 0
6, 90720, Note_on_c, 4, 50, 70
6, 90840, Note_on_c, 4, 62, 70
6, 90960, Note_on_c, 4, 62, 0
6, 90960, Note_on_c, 4, 74, 70
6, 91080, Note_on_c, 4, 74, 0
6, 91080, Note_on_c, 4, 62, 70
6, 91200, Note_on_c, 4, 62, 0
6, 91200, Note_on_c, 4, 50, 0
6, 91200, Note_on_c, 4, 49, 70
6, 91320, Note_on_c, 4, 61, 70
6, 91440, Note_on_c, 4, 61, 0
6, 91440, Note_on_c, 4, 73, 70
6, 91560, Note_on_c, 4, 73, 0
6, 91560, Note_on_c, 4, 61, 70
6, 91680, Note_on_c, 4, 61, 0
6, 91680, Note_on_c, 4, 49, 0
6, 91680, Note_on_c, 4, 50, 70
6, 91800, Note_on_c, 4, 62, 70
6, 91920, Note_on_c, 4, 62, 0
6, 91920, Note_on_c, 4, 74, 70
6, 92040, Note_on_c, 4, 74, 0
6, 92040, Note_on_c, 4, 62, 70
6, 92160, Note_on_c, 4, 62, 0
6, 92160, Note_on_c, 4, 50, 0
6, 92160, Note_on_c, 4, 40, 105
6, 92160, Note_on_c, 4, 52, 105
6, 92280, Note_on_c, 4, 64, 105
6, 92400, Note_on_c, 4, 64, 0
6, 92400, Note_on_c, 4, 76, 105
6, 92520, Note_on_c, 4, 76, 0
6, 92520, Note_on_c, 4, 64, 105
6, 92640, Note_on_c, 4, 64, 0
6, 92640, Note_on_c, 4, 52, 0
6, 92640, Note_on_c, 4, 40, 0
6, 92640, Note_on_c, 4, 52, 70
6, 92760, Note_on_c, 4, 64, 70
6, 92880, Note_on_c, 4, 64, 0
6, 92880, Note_on_c, 4, 76, 70
6, 93000, Note_on_c, 4, 76, 0
6, 93000, Note_on_c, 4, 64, 70
6, 93120, Note_on_c, 4, 64, 0
6, 93120, Note_on_c, 4, 52, 0
6, 93120, Note_on_c, 4, 51, 70
6, 93240, Note_on_c, 4, 63, 70
6, 93360, Note_on_c, 4, 63, 0
6, 93360, Note_on_c, 4, 75, 70
6, 93480, Note_on_c, 4, 75, 0
6, 93480, Note_on_c, 4, 63, 70
6, 93600, Note_on_c, 4, 63, 0
6, 93600, Note_on_c, 4, 51, 0
6, 93600, Note_on_c, 4, 52, 70
6, 93720, Note_on_c, 4, 64, 70
6, 93840, Note_on_c, 4, 64, 0
6, 93840, Note_on_c, 4, 76, 70
6, 93960, Note_on_c, 4, 76, 0
6, 93960, Note_on_c, 4, 64, 70
6, 94080, Note_on_c, 4, 64, 0
6, 94080, Note_on_c, 4, 52, 0
6, 94080, Note_on_c, 4, 53, 80
6, 94200, Note_on_c, 4, 65, 80
6, 94320, Note_on_c, 4, 65, 0
6, 94320, Note_on_c, 4, 77, 80
6, 94440, Note_on_c, 4, 77, 0
6, 94440, Note_on_c, 4, 65, 80
6, 94560, Note_on_c, 4, 65, 0
6, 94560, Note_on_c, 4, 53, 0
6, 94560, Note_on_c, 4, 43, 80
6, 94560, Note_on_c, 4, 55, 80
6, 94680, Note_on_c, 4, 67, 80
6, 94800, Note_on_c, 4, 67, 0
6, 94800, Note_on_c, 4, 79, 80
6, 94920, Note_on_c, 4, 79, 0
6, 94920, Note_on_c, 4, 67, 80
6, 95040, Note_on_c, 4, 67, 0
6, 95040, Note_on_c, 4, 55, 0
6, 95040, Note_on_c, 4, 43, 0
6, 95040, Note_on_c, 4, 45, 90
6, 95040, Note_on_c, 4, 57, 90
6, 95160, Note_on_c, 4, 69, 90
6, 95280, Note_on_c, 4, 69, 0
6, 95280, Note_on_c, 4, 81, 90
6, 95400, Note_on_c, 4, 81, 0
6, 95400, Note_on_c, 4, 69, 90
6, 95520, Note_on_c, 4, 69, 0
6, 95520, Note_on_c, 4, 57, 0
6, 95520, Note_on_c, 4, 45, 0
6, 95520, Note_on_c, 4, 47, 90
6, 95520, Note_on_c, 4, 59, 90
6, 95640, Note_on_c, 4, 71, 90
6, 95760, Note_on_c, 4, 71, 0
6, 95760, Note_on_c, 4, 83, 90
6, 95880, Note_on_c, 4, 83, 0
6, 95880, Note_on_c, 4, 71, 90
6, 96000, Note_on_c, 4, 71, 0
6, 96000, Note_on_c, 4, 59, 0
6, 96000, Note_on_c, 4, 47, 0
6, 96000, Note_on_c, 4, 48, 105
6, 96120, Note_on_c, 4, 48, 0
6, 96120, Note_on_c, 4, 52, 105
6, 96240, Note_on_c, 4, 52, 0
6, 96240, Note_on_c, 4, 55, 105
6, 96360, Note_on_c, 4, 55, 0
6, 96360, Note_on_c, 4, 60, 105
6, 96480, Note_on_c, 4, 60, 0
6, 96480, Note_on_c, 4, 72, 105
6, 96600, Note_on_c, 4, 72, 0
6, 96600, Note_on_c, 4, 76, 105
6, 96720, Note_on_c, 4, 76, 0
6, 96720, Note_on_c, 4, 79, 105
6, 96840, Note_on_c, 4, 79, 0
6, 96840, Note_on_c, 4, 84, 105
6, 96960, Note_on_c, 4, 84, 0
6, 96960, Note_on_c, 4, 76, 105
6, 97080, Note_on_c, 4, 76, 0
6, 97080, Note_on_c, 4, 79, 105
6, 97200, Note_on_c, 4, 79, 0
6, 97200, Note_on_c, 4, 84, 105
6, 97320, Note_on_c, 4, 84, 0
6, 97320, Note_on_c, 4, 88, 105
6, 97440, Note_on_c, 4, 88, 0
6, 97440, Note_on_c, 4, 86, 105
6, 97560, Note_on_c, 4, 86, 0
6, 97560, Note_on_c, 4, 84, 105
6, 97680, Note_on_c, 4, 84, 0
6, 97680, Note_on_c, 4, 83, 105
6, 97800, Note_on_c, 4, 83, 0
6, 97800, Note_on_c, 4, 84, 105
6, 97920, Note_on_c, 4, 84, 0
6, 97920, Note_on_c, 4, 86, 105
6, 97920, Note_on_c, 4, 71, 105
6, 98040, Note_on_c, 4, 86, 0
6, 98040, Note_on_c, 4, 83, 105
6, 98160, Note_on_c, 4, 83, 0
6, 98160, Note_on_c, 4, 71, 0
6, 98160, Note_on_c, 4, 84, 105
6, 98160, Note_on_c, 4, 69, 105
6, 98280, Note_on_c, 4, 84, 0
6, 98280, Note_on_c, 4, 81, 105
6, 98400, Note_on_c, 4, 81, 0
6, 98400, Note_on_c, 4, 69, 0
6, 98400, Note_on_c, 4, 83, 105
6, 98400, Note_on_c, 4, 67, 105
6, 98520, Note_on_c, 4, 83, 0
6, 98520, Note_on_c, 4, 79, 105
6, 98640, Note_on_c, 4, 79, 0
6, 98640, Note_on_c, 4, 67, 0
6, 98640, Note_on_c, 4, 81, 105
6, 98640, Note_on_c, 4, 65, 105
6, 98760, Note_on_c, 4, 81, 0
6, 98760, Note_on_c, 4, 77, 105
6, 98880, Note_on_c, 4, 77, 0
6, 98880, Note_on_c, 4, 65, 0
6, 98880, Note_on_c, 4, 79, 105
6, 98880, Note_on_c, 4, 64, 105
6, 99000, Note_on_c, 4, 79, 0
6, 99000, Note_on_c, 4, 76, 105
6, 99120, Note_on_c, 4, 76, 0
6, 99120, Note_on_c, 4, 64, 0
6, 99120, Note_on_c, 4, 77, 105
6, 99120, Note_on_c, 4, 62, 105
6, 99240, Note_on_c, 4, 77, 0
6, 99240, Note_on_c, 4, 74, 105
6, 99360, Note_on_c, 4, 74, 0
6, 99360, Note_on_c, 4, 62, 0
6, 99360, Note_on_c, 4, 76, 105
6, 99360, Note_on_c, 4, 60, 105
6, 99480, Note_on_c, 4, 76, 0
6, 99480, Note_on_c, 4, 72, 105
6, 99600, Note_on_c, 4, 72, 0
6, 99600, Note_on_c, 4, 60, 0
6, 99600, Note_on_c, 4, 74, 105
6, 99600, Note_on_c, 4, 59, 105
6, 99720, Note_on_c, 4, 74, 0
6, 99720, Note_on_c, 4, 71, 105
6, 99840, Note_on_c, 4, 71, 0
6, 99840, Note_on_c, 4, 59, 0
6, 99840, Note_on_c, 4, 48, 105
6, 99960, Note_on_c, 4, 48, 0
6, 99960, Note_on_c, 4, 52, 105
6, 100080, Note_on_c, 4, 52, 0
6, 100080, Note_on_c, 4, 55, 105
6, 100200, Note_on_c, 4, 55, 0
6, 100200, Note_on_c, 4, 60, 105
6, 100320, Note_on_c, 4, 60, 0
6, 100320, Note_on_c, 4, 72, 105
6, 100440, Note_on_c, 4, 72, 0
6, 100440, Note_on_c, 4, 76, 105
6, 100560, Note_on_c, 4, 76, 0
6, 100560, Note_on_c, 4, 79, 105
6, 100680, Note_on_c, 4, 79, 0
6, 100680, Note_on_c, 4, 84, 105
6, 100800, Note_on_c, 4, 84, 0
6, 100800, Note_on_c, 4, 76, 105
6, 100920, Note_on_c, 4, 76, 0
6, 100920, Note_on_c, 4, 79, 105
6, 101040, Note_on_c, 4, 79, 0
6, 101040, Note_on_c, 4, 84, 105
6, 101160, Note_on_c, 4, 84, 0
6, 101160, Note_on_c, 4, 88, 105
6, 101280, Note_on_c, 4, 88, 0
6, 101280, Note_on_c, 4, 86, 105
6, 101400, Note_on_c, 4, 86, 0
6, 101400, Note_on_c, 4, 84, 105
6, 101520, Note_on_c, 4, 84, 0
6, 101520, Note_on_c, 4, 83, 105
6, 101640, Note_on_c, 4, 83, 0
6, 101640, Note_on_c, 4, 84, 105
6, 101760, Note_on_c, 4, 84, 0
6, 101760, Note_on_c, 4, 86, 105
6, 101760, Note_on_c, 4, 71, 105
6, 101880, Note_on_c, 4, 86, 0
6, 101880, Note_on_c, 4, 83, 105
6, 102000, Note_on_c, 4, 83, 0
6, 102000, Note_on_c, 4, 71, 0
6, 102000, Note_on_c, 4, 84, 105
6, 102000, Note_on_c, 4, 69, 105
6, 102120, Note_on_c, 4, 84, 0
6, 102120, Note_on_c, 4, 81, 105
6, 102240, Note_on_c, 4, 81, 0
6, 102240, Note_on_c, 4, 69, 0
6, 102240, Note_on_c, 4, 83, 105
6, 102240, Note_on_c, 4, 67, 105
6, 102360, Note_on_c, 4, 83, 0
6, 102360, Note_on_c, 4, 79, 105
6, 102480, Note_on_c, 4, 79, 0
6, 102480, Note_on_c, 4, 67, 0
6, 102480, Note_on_c, 4, 81, 105
6, 102480, Note_on_c, 4, 65, 105
6, 102600, Note_on_c, 4, 81, 0
6, 102600, Note_on_c, 4, 77, 105
6, 102720, Note_on_c, 4, 77, 0
6, 102720, Note_on_c, 4, 65, 0
6, 102720, Note_on_c, 4, 79, 105
6, 102720, Note_on_c, 4, 64, 105
6, 102840, Note_on_c, 4, 79, 0
6, 102840, Note_on_c, 4, 76, 105
6, 102960, Note_on_c, 4, 76, 0
6, 102960, Note_on_c, 4, 64, 0
6, 102960, Note_on_c, 4, 77, 105
6, 102960, Note_on_c, 4, 62, 105
6, 103080, Note_on_c, 4, 77, 0
6, 103080, Note_on_c, 4, 74, 105
6, 103200, Note_on_c, 4, 74, 0
6, 103200, Note_on_c, 4, 62, 0
6, 103200, Note_on_c, 4, 76, 105
6, 103200, Note_on_c, 4, 60, 105
6, 103320, Note_on_c, 4, 76, 0
6, 103320, Note_on_c, 4, 72, 105
6, 103440, Note_on_c, 4, 72, 0
6, 103440, Note_on_c, 4, 60, 0
6, 103440, Note_on_c, 4, 74, 105
6, 103440, Note_on_c, 4, 59, 105
6, 103560, Note_on_c, 4, 74, 0
6, 103560, Note_on_c, 4, 71, 105
6, 103680, Note_on_c, 4, 71, 0
6, 103680, Note_on_c, 4, 59, 0
6, 103680, Note_on_c, 4, 72, 105
6, 103680, Note_on_c, 4, 60, 105
6, 104160, Note_on_c, 4, 60, 0
6, 104160, Note_on_c, 4, 72, 0
6, 111360, Note_on_c, 4, 72, 105
6, 111360, Note_on_c, 4, 60, 105
6, 111600, Note_on_c, 4, 60, 0
6, 111600, Note_on_c, 4, 72, 0
6, 111600, Note_on_c, 4, 74, 105
6, 111600, Note_on_c, 4, 67, 105
6, 111720, Note_on_c, 4, 74, 0
6, 111720, Note_on_c, 4, 76, 105
6, 111840, Note_on_c, 4, 76, 0
6, 111840, Note_on_c, 4, 67, 0
6, 111840, Note_on_c, 4, 77, 105
6, 111840, Note_on_c, 4, 64, 105
6, 111960, Note_on_c, 4, 77, 0
6, 111960, Note_on_c, 4, 79, 105
6, 112080, Note_on_c, 4, 79, 0
6, 112080, Note_on_c, 4, 64, 0
6, 112080, Note_on_c, 4, 81, 105
6, 112080, Note_on_c, 4, 67, 105
6, 112200, Note_on_c, 4, 81, 0
6, 112200, Note_on_c, 4, 83, 105
6, 112320, Note_on_c, 4, 83, 0
6, 112320, Note_on_c, 4, 67, 0
6, 112320, Note_on_c, 4, 84, 105
6, 112320, Note_on_c, 4, 60, 105
6, 112440, Note_on_c, 4, 84, 0
6, 112440, Note_on_c, 4, 83, 105
6, 112560, Note_on_c, 4, 83, 0
6, 112560, Note_on_c, 4, 60, 0
6, 112560, Note_on_c, 4, 84, 105
6, 112560, Note_on_c, 4, 67, 105
6, 112680, Note_on_c, 4, 84, 0
6, 112680, Note_on_c, 4, 83, 105
6, 112800, Note_on_c, 4, 83, 0
6, 112800, Note_on_c, 4, 67, 0
6, 112800, Note_on_c, 4, 84, 105
6, 112800, Note_on_c, 4, 64, 105
6, 112920, Note_on_c, 4, 84, 0
6, 112920, Note_on_c, 4, 83, 105
6, 113040, Note_on_c, 4, 83, 0
6, 113040, Note_on_c, 4, 64, 0
6, 113040, Note_on_c, 4, 81, 105
6, 113040, Note_on_c, 4, 67, 105
6, 113160, Note_on_c, 4, 81, 0
6, 113160, Note_on_c, 4, 79, 105
6, 113280, Note_on_c, 4, 79, 0
6, 113280, Note_on_c, 4, 67, 0
6, 113280, Note_on_c, 4, 81, 105
6, 113280, Note_on_c, 4, 60, 105
6, 113400, Note_on_c, 4, 81, 0
6, 113400, Note_on_c, 4, 72, 105
6, 113520, Note_on_c, 4, 72, 0
6, 113520, Note_on_c, 4, 60, 0
6, 113520, Note_on_c, 4, 74, 105
6, 113520, Note_on_c, 4, 69, 105
6, 113640, Note_on_c, 4, 74, 0
6, 113640, Note_on_c, 4, 76, 105
6, 113760, Note_on_c, 4, 76, 0
6, 113760, Note_on_c, 4, 69, 0
6, 113760, Note_on_c, 4, 77, 105
6, 113760, Note_on_c, 4, 65, 105
6, 113880, Note_on_c, 4, 77, 0
6, 113880, Note_on_c, 4, 79, 105
6, 114000, Note_on_c, 4, 79, 0
6, 114000, Note_on_c, 4, 65, 0
6, 114000, Note_on_c, 4, 81, 105
6, 114000, Note_on_c, 4, 69, 105
6, 114120, Note_on_c, 4, 81, 0
6, 114120, Note_on_c, 4, 83, 105
6, 114240, Note_on_c, 4, 83, 0
6, 114240, Note_on_c, 4, 69, 0
6, 114240, Note_on_c, 4, 84, 105
6, 114240, Note_on_c, 4, 60, 105
6, 114360, Note_on_c, 4, 84, 0
6, 114360, Note_on_c, 4, 83, 105
6, 114480, Note_on_c, 4, 83, 0
6, 114480, Note_on_c, 4, 60, 0
6, 114480, Note_on_c, 4, 84, 105
6, 114480, Note_on_c, 4, 69, 105
6, 114600, Note_on_c, 4, 84, 0
6, 114600, Note_on_c, 4, 83, 105
6, 114720, Note_on_c, 4, 83, 0
6, 114720, Note_on_c, 4, 69, 0
6, 114720, Note_on_c, 4, 86, 105
6, 114720, Note_on_c, 4, 65, 105
6, 114840, Note_on_c, 4, 86, 0
6, 114840, Note_on_c, 4, 84, 105
6, 114960, Note_on_c, 4, 84, 0
6, 114960, Note_on_c, 4, 65, 0
6, 114960, Note_on_c, 4, 83, 105
6, 114960, Note_on_c, 4, 69, 105
6, 115080, Note_on_c, 4, 83, 0
6, 115080, Note_on_c, 4, 81, 105
6, 115200, Note_on_c, 4, 81, 0
6, 115200, Note_on_c, 4, 69, 0
6, 115200, Note_on_c, 4, 79, 105
6, 115200, Note_on_c, 4, 60, 105
6, 115320, Note_on_c, 4, 79, 0
6, 115320, Note_on_c, 4, 72, 105
6, 115440, Note_on_c, 4, 72, 0
6, 115440, Note_on_c, 4, 60, 0
6, 115440, Note_on_c, 4, 74, 105
6, 115440, Note_on_c, 4, 67, 105
6, 115560, Note_on_c, 4, 74, 0
6, 115560, Note_on_c, 4, 76, 105
6, 115680, Note_on_c, 4, 76, 0
6, 115680, Note_on_c, 4, 67, 0
6, 115680, Note_on_c, 4, 77, 105
6, 115680, Note_on_c, 4, 64, 105
6, 115800, Note_on_c, 4, 77, 0
6, 115800, Note_on_c, 4, 79, 105
6, 115920, Note_on_c, 4, 79, 0
6, 115920, Note_on_c, 4, 64, 0
6, 115920, Note_on_c, 4, 81, 105
6, 115920, Note_on_c, 4, 67, 105
6, 116040, Note_on_c, 4, 81, 0
6, 116040, Note_on_c, 4, 83, 105
6, 116160, Note_on_c, 4, 83, 0
6, 116160, Note_on_c, 4, 67, 0
6, 116160, Note_on_c, 4, 84, 105
6, 116160, Note_on_c, 4, 60, 105
6, 116280, Note_on_c, 4, 84, 0
6, 116280, Note_on_c, 4, 86, 105
6, 116400, Note_on_c, 4, 86, 0
6, 116400, Note_on_c, 4, 60, 0
6, 116400, Note_on_c, 4, 88, 105
6, 116400, Note_on_c, 4, 67, 105
6, 116520, Note_on_c, 4, 88, 0
6, 116520, Note_on_c, 4, 86, 105
6, 116640, Note_on_c, 4, 86, 0
6, 116640, Note_on_c, 4, 67, 0
6, 116640, Note_on_c, 4, 84, 105
6, 116640, Note_on_c, 4, 64, 105
6, 116760, Note_on_c, 4, 84, 0
6, 116760, Note_on_c, 4, 83, 105
6, 116880, Note_on_c, 4, 83, 0
6, 116880, Note_on_c, 4, 64, 0
6, 116880, Note_on_c, 4, 81, 105
6, 116880, Note_on_c, 4, 67, 105
6, 117000, Note_on_c, 4, 81, 0
6, 117000, Note_on_c, 4, 79, 105
6, 117120, Note_on_c, 4, 79, 0
6, 117120, Note_on_c, 4, 67, 0
6, 117120, Note_on_c, 4, 79, 105
6, 117120, Note_on_c, 4, 55, 105
6, 117360, Note_on_c, 4, 55, 0
6, 117360, Note_on_c, 4, 64, 105
6, 117480, Note_on_c, 4, 79, 0
6, 117480, Note_on_c, 4, 77, 105
6, 117600, Note_on_c, 4, 77, 0
6, 117600, Note_on_c, 4, 64, 0
6, 117600, Note_on_c, 4, 76, 105
6, 117600, Note_on_c, 4, 60, 105
6, 117840, Note_on_c, 4, 60, 0
6, 117840, Note_on_c, 4, 64, 105
6, 118080, Note_on_c, 4, 64, 0
6, 118080, Note_on_c, 4, 55, 105
6, 118200, Note_on_c, 4, 76, 0
6, 118200, Note_on_c, 4, 72, 105
6, 118320, Note_on_c, 4, 72, 0
6, 118320, Note_on_c, 4, 55, 0
6, 118320, Note_on_c, 4, 76, 105
6, 118320, Note_on_c, 4, 60, 105
6, 118440, Note_on_c, 4, 76, 0
6, 118440, Note_on_c, 4, 79, 105
6, 118560, Note_on_c, 4, 79, 0
6, 118560, Note_on_c, 4, 60, 0
6, 118560, Note_on_c, 4, 79, 105
6, 118560, Note_on_c, 4, 55, 105
6, 118680, Note_on_c, 4, 79, 0
6, 118680, Note_on_c, 4, 77, 105
6, 118800, Note_on_c, 4, 77, 0
6, 118800, Note_on_c, 4, 55, 0
6, 118800, Note_on_c, 4, 76, 105
6, 118800, Note_on_c, 4, 59, 105
6, 118920, Note_on_c, 4, 76, 0
6, 118920, Note_on_c, 4, 74, 105
6, 119040, Note_on_c, 4, 74, 0
6, 119040, Note_on_c, 4, 59, 0
6, 119040, Note_on_c, 4, 72, 105
6, 119040, Note_on_c, 4, 60, 105
6, 119160, Note_on_c, 4, 72, 0
6, 119160, Note_on_c, 4, 76, 105
6, 119280, Note_on_c, 4, 76, 0
6, 119280, Note_on_c, 4, 79, 105
6, 119400, Note_on_c, 4, 79, 0
6, 119400, Note_on_c, 4, 84, 105
6, 119520, Note_on_c, 4, 84, 0
6, 119520, Note_on_c, 4, 60, 0
6, 119520, Note_on_c, 4, 72, 105
6, 119520, Note_on_c, 4, 48, 105
6, 119520, Note_on_c, 4, 60, 105
6, 119640, Note_on_c, 4, 72, 0
6, 119640, Note_on_c, 4, 84, 105
6, 119760, Note_on_c, 4, 84, 0
6, 119760, Note_on_c, 4, 60, 0
6, 119760, Note_on_c, 4, 48, 0
6, 119760, Note_on_c, 4, 71, 105
6, 119760, Note_on_c, 4, 47, 105
6, 119760, Note_on_c, 4, 59, 105
6, 119880, Note_on_c, 4, 71, 0
6, 119880, Note_on_c, 4, 83, 105
6, 120000, Note_on_c, 4, 83, 0
6, 120000, Note_on_c, 4, 59, 0
6, 120000, Note_on_c, 4, 47, 0
6, 120000, Note_on_c, 4, 69, 105
6, 120000, Note_on_c, 4, 45, 105
6, 120000, Note_on_c, 4, 57, 105
6, 120120, Note_on_c, 4, 69, 0
6, 120120, Note_on_c, 4, 72, 105
6, 120240, Note_on_c, 4, 72, 0
6, 120240, Note_on_c, 4, 76, 105
6, 120360, Note_on_c, 4, 76, 0
6, 120360, Note_on_c, 4, 81, 105
6, 120480, Note_on_c, 4, 81, 0
6, 120480, Note_on_c, 4, 57, 0
6, 120480, Note_on_c, 4, 45, 0
6, 120480, Note_on_c, 4, 69, 105
6, 120480, Note_on_c, 4, 45, 105
6, 120480, Note_on_c, 4, 57, 105
6, 120600, Note_on_c, 4, 69, 0
6, 120600, Note_on_c, 4, 81, 105
6, 120720, Note_on_c, 4, 81, 0
6, 120720, Note_on_c, 4, 57, 0
6, 120720, Note_on_c, 4, 45, 0
6, 120720, Note_on_c, 4, 67, 105
6, 120720, Note_on_c, 4, 43, 105
6, 120720, Note_on_c, 4, 55, 105
6, 120840, Note_on_c, 4, 67, 0
6, 120840, Note_on_c, 4, 79, 105
6, 120960, Note_on_c, 4, 79, 0
6, 120960, Note_on_c, 4, 55, 0
6, 120960, Note_on_c, 4, 43, 0
6, 120960, Note_on_c, 4, 65, 105
6, 120960, Note_on_c, 4, 41, 105
6, 120960, Note_on_c, 4, 53, 105
6, 121080, Note_on_c, 4, 65, 0
6, 121080, Note_on_c, 4, 69, 105
6, 121200, Note_on_c, 4, 69, 0
6, 121200, Note_on_c, 4, 72, 105
6, 121320, Note_on_c, 4, 72, 0
6, 121320, Note_on_c, 4, 77, 105
6, 121440, Note_on_c, 4, 77, 0
6, 121440, Note_on_c, 4, 53, 0
6, 121440, Note_on_c, 4, 41, 0
6, 121440, Note_on_c, 4, 65, 105
6, 121440, Note_on_c, 4, 41, 105
6, 121440, Note_on_c, 4, 53, 105
6, 121560, Note_on_c, 4, 65, 0
6, 121560, Note_on_c, 4, 77, 105
6, 121680, Note_on_c, 4, 77, 0
6, 121680, Note_on_c, 4, 53, 0
6, 121680, Note_on_c, 4, 41, 0
6, 121680, Note_on_c, 4, 64, 105
6, 121680, Note_on_c, 4, 40, 105
6, 121680, Note_on_c, 4, 52, 105
6, 121800, Note_on_c, 4, 64, 0
6, 121800, Note_on_c, 4, 76, 105
6, 121920, Note_on_c, 4, 76, 0
6, 121920, Note_on_c, 4, 52, 0
6, 121920, Note_on_c, 4, 40, 0
6, 121920, Note_on_c, 4, 62, 105
6, 121920, Note_on_c, 4, 38, 105
6, 121920, Note_on_c, 4, 50, 105
6, 122040, Note_on_c, 4, 62, 0
6, 122040, Note_on_c, 4, 74, 105
6, 122160, Note_on_c, 4, 74, 0
6, 122160, Note_on_c, 4, 50, 0
6, 122160, Note_on_c, 4, 38, 0
6, 122160, Note_on_c, 4, 60, 105
6, 122160, Note_on_c, 4, 48, 105
6, 122256, Note_on_c, 4, 48, 0
6, 122280, Note_on_c, 4, 60, 0
6, 122280, Note_on_c, 4, 72, 105
6, 122400, Note_on_c, 4, 72, 0
6, 122400, Note_on_c, 4, 59, 105
6, 122400, Note_on_c, 4, 47, 105
6, 122496, Note_on_c, 4, 47, 0
6, 122520, Note_on_c, 4, 59, 0
6, 122520, Note_on_c, 4, 71, 105
6, 122640, Note_on_c, 4, 71, 0
6, 122640, Note_on_c, 4, 57, 105
6, 122640, Note_on_c, 4, 45, 105
6, 122736, Note_on_c, 4, 45, 0
6, 122760, Note_on_c, 4, 57, 0
6, 122760, Note_on_c, 4, 69, 105
6, 122880, Note_on_c, 4, 69, 0
6, 122880, Note_on_c, 4, 55, 105
6, 122880, Note_on_c, 4, 43, 105
6, 123120, Note_on_c, 4, 43, 0
6, 123120, Note_on_c, 4, 55, 0
6, 123120, Note_on_c, 4, 55, 105
6, 123120, Note_on_c, 4, 43, 105
6, 123240, Note_on_c, 4, 55, 0
6, 123240, Note_on_c, 4, 59, 105
6, 123360, Note_on_c, 4, 59, 0
6, 123360, Note_on_c, 4, 43, 0
6, 123360, Note_on_c, 4, 57, 105
6, 123360, Note_on_c, 4, 45, 105
6, 123480, Note_on_c, 4, 57, 0
6, 123480, Note_on_c, 4, 60, 105
6, 123600, Note_on_c, 4, 60, 0
6, 123600, Note_on_c, 4, 45, 0
6, 123600, Note_on_c, 4, 59, 105
6, 123600, Note_on_c, 4, 47, 105
6, 123720, Note_on_c, 4, 59, 0
6, 123720, Note_on_c, 4, 62, 105
6, 123840, Note_on_c, 4, 62, 0
6, 123840, Note_on_c, 4, 47, 0
6, 123840, Note_on_c, 4, 60, 105
6, 123840, Note_on_c, 4, 48, 105
6, 123960, Note_on_c, 4, 60, 0
6, 123960, Note_on_c, 4, 64, 105
6, 124080, Note_on_c, 4, 64, 0
6, 124080, Note_on_c, 4, 48, 0
6, 124080, Note_on_c, 4, 62, 105
6, 124080, Note_on_c, 4, 50, 105
6, 124200, Note_on_c, 4, 62, 0
6, 124200, Note_on_c, 4, 65, 105
6, 124320, Note_on_c, 4, 65, 0
6, 124320, Note_on_c, 4, 50, 0
6, 124320, Note_on_c, 4, 64, 105
6, 124320, Note_on_c, 4, 52, 105
6, 124440, Note_on_c, 4, 64, 0
6, 124440, Note_on_c, 4, 67, 105
6, 124560, Note_on_c, 4, 67, 0
6, 124560, Note_on_c, 4, 52, 0
6, 124560, Note_on_c, 4, 66, 105
6, 124560, Note_on_c, 4, 54, 105
6, 124680, Note_on_c, 4, 66, 0
6, 124680, Note_on_c, 4, 69, 105
6, 124800, Note_on_c, 4, 69, 0
6, 124800, Note_on_c, 4, 54, 0
6, 124800, Note_on_c, 4, 67, 105
6, 124800, Note_on_c, 4, 55, 105
6, 125040, Note_on_c, 4, 55, 0
6, 125040, Note_on_c, 4, 67, 0
6, 125040, Note_on_c, 4, 67, 105
6, 125040, Note_on_c, 4, 43, 105
6, 125160, Note_on_c, 4, 43, 0
6, 125160, Note_on_c, 4, 67, 0
6, 125160, Note_on_c, 4, 71, 105
6, 125160, Note_on_c, 4, 55, 105
6, 125280, Note_on_c, 4, 55, 0
6, 125280, Note_on_c, 4, 71, 0
6, 125280, Note_on_c, 4, 69, 105
6, 125280, Note_on_c, 4, 45, 105
6, 125400, Note_on_c, 4, 45, 0
6, 125400, Note_on_c, 4, 69, 0
6, 125400, Note_on_c, 4, 72, 105
6, 125400, Note_on_c, 4, 57, 105
6, 125520, Note_on_c, 4, 57, 0
6, 125520, Note_on_c, 4, 72, 0
6, 125520, Note_on_c, 4, 71, 105
6, 125520, Note_on_c, 4, 47, 105
6, 125640, Note_on_c, 4, 47, 0
6, 125640, Note_on_c, 4, 71, 0
6, 125640, Note_on_c, 4, 74, 105
6, 125640, Note_on_c, 4, 59, 105
6, 125760, Note_on_c, 4, 59, 0
6, 125760, Note_on_c, 4, 74, 0
6, 125760, Note_on_c, 4, 72, 105
6, 125760, Note_on_c, 4, 48, 105
6, 125880, Note_on_c, 4, 48, 0
6, 125880, Note_on_c, 4, 72, 0
6, 125880, Note_on_c, 4, 76, 105
6, 125880, Note_on_c, 4, 60, 105
6, 126000, Note_on_c, 4, 60, 0
6, 126000, Note_on_c, 4, 76, 0
6, 126000, Note_on_c, 4, 74, 105
6, 126000, Note_on_c, 4, 50, 105
6, 126120, Note_on_c, 4, 50, 0
6, 126120, Note_on_c, 4, 74, 0
6, 126120, Note_on_c, 4, 77, 105
6, 126120, Note_on_c, 4, 62, 105
6, 126240, Note_on_c, 4, 62, 0
6, 126240, Note_on_c, 4, 77, 0
6, 126240, Note_on_c, 4, 76, 105
6, 126240, Note_on_c, 4, 52, 105
6, 126360, Note_on_c, 4, 52, 0
6, 126360, Note_on_c, 4, 76, 0
6, 126360, Note_on_c, 4, 79, 105
6, 126360, Note_on_c, 4, 64, 105
6, 126480, Note_on_c, 4, 64, 0
6, 126480, Note_on_c, 4, 79, 0
6, 126480, Note_on_c, 4, 78, 105
6, 126480, Note_on_c, 4, 54, 105
6, 126600, Note_on_c, 4, 54, 0
6, 126600, Note_on_c, 4, 78, 0
6, 126600, Note_on_c, 4, 81, 105
6, 126600, Note_on_c, 4, 66, 105
6, 126720, Note_on_c, 4, 66, 0
6, 126720, Note_on_c, 4, 81, 0
6, 126720, Note_on_c, 4, 79, 105
6, 126720, Note_on_c, 4, 55, 105
6, 126720, Note_on_c, 4, 67, 105
6, 127200, Note_on_c, 4, 67, 0
6, 127200, Note_on_c, 4, 55, 0
6, 127200, Note_on_c, 4, 79, 0
6, 132480, Note_on_c, 4, 43, 105
6, 132600, Note_on_c, 4, 43, 0
6, 132600, Note_on_c, 4, 47, 105
6, 132720, Note_on_c, 4, 47, 0
6, 132720, Note_on_c, 4, 50, 105
6, 132840, Note_on_c, 4, 50, 0
6, 132840, Note_on_c, 4, 55, 105
6, 132960, Note_on_c, 4, 55, 0
6, 132960, Note_on_c, 4, 71, 105
6, 133080, Note_on_c, 4, 71, 0
6, 133080, Note_on_c, 4, 74, 105
6, 133200, Note_on_c, 4, 74, 0
6, 133200, Note_on_c, 4, 71, 105
6, 133320, Note_on_c, 4, 71, 0
6, 133320, Note_on_c, 4, 67, 105
6, 133440, Note_on_c, 4, 67, 0
6, 133440, Note_on_c, 4, 43, 105
6, 133560, Note_on_c, 4, 43, 0
6, 133560, Note_on_c, 4, 47, 105
6, 133680, Note_on_c, 4, 47, 0
6, 133680, Note_on_c, 4, 50, 105
6, 133800, Note_on_c, 4, 50, 0
6, 133800, Note_on_c, 4, 55, 105
6, 133920, Note_on_c, 4, 55, 0
6, 133920, Note_on_c, 4, 71, 105
6, 134040, Note_on_c, 4, 71, 0
6, 134040, Note_on_c, 4, 74, 105
6, 134160, Note_on_c, 4, 74, 0
6, 134160, Note_on_c, 4, 71, 105
6, 134280, Note_on_c, 4, 71, 0
6, 134280, Note_on_c, 4, 67, 105
6, 134400, Note_on_c, 4, 67, 0
6, 134400, Note_on_c, 4, 43, 105
6, 134520, Note_on_c, 4, 43, 0
6, 134520, Note_on_c, 4, 48, 105
6, 134640, Note_on_c, 4, 48, 0
6, 134640, Note_on_c, 4, 52, 105
6, 134760, Note_on_c, 4, 52, 0
6, 134760, Note_on_c, 4, 55, 105
6, 134880, Note_on_c, 4, 55, 0
6, 134880, Note_on_c, 4, 72, 105
6, 135000, Note_on_c, 4, 72, 0
6, 135000, Note_on_c, 4, 76, 105
6, 135120, Note_on_c, 4, 76, 0
6, 135120, Note_on_c, 4, 72, 105
6, 135240, Note_on_c, 4, 72, 0
6, 135240, Note_on_c, 4, 67, 105
6, 135360, Note_on_c, 4, 67, 0
6, 135360, Note_on_c, 4, 43, 105
6, 135480, Note_on_c, 4, 43, 0
6, 135480, Note_on_c, 4, 48, 105
6, 135600, Note_on_c, 4, 48, 0
6, 135600, Note_on_c, 4, 52, 105
6, 135720, Note_on_c, 4, 52, 0
6, 135720, Note_on_c, 4, 55, 105
6, 135840, Note_on_c, 4, 55, 0
6, 135840, Note_on_c, 4, 72, 105
6, 135960, Note_on_c, 4, 72, 0
6, 135960, Note_on_c, 4, 76, 105
6, 136080, Note_on_c, 4, 76, 0
6, 136080, Note_on_c, 4, 72, 105
6, 136200, Note_on_c, 4, 72, 0
6, 136200, Note_on_c, 4, 67, 105
6, 136320, Note_on_c, 4, 67, 0
6, 136320, Note_on_c, 4, 43, 105
6, 136440, Note_on_c, 4, 43, 0
6, 136440, Note_on_c, 4, 71, 105
6, 136440, Note_on_c, 4, 55, 105
6, 136560, Note_on_c, 4, 55, 0
6, 136560, Note_on_c, 4, 71, 0
6, 136560, Note_on_c, 4, 67, 105
6, 136680, Note_on_c, 4, 67, 0
6, 136680, Note_on_c, 4, 62, 105
6, 136800, Note_on_c, 4, 62, 0
6, 136800, Note_on_c, 4, 40, 105
6, 136920, Note_on_c, 4, 40, 0
6, 136920, Note_on_c, 4, 67, 105
6, 136920, Note_on_c, 4, 52, 105
6, 137040, Note_on_c, 4, 52, 0
6, 137040, Note_on_c, 4, 67, 0
6, 137040, Note_on_c, 4, 62, 105
6, 137160, Note_on_c, 4, 62, 0
6, 137160, Note_on_c, 4, 59, 105
6, 137280, Note_on_c, 4, 59, 0
6, 137280, Note_on_c, 4, 36, 105
6, 137400, Note_on_c, 4, 36, 0
6, 137400, Note_on_c, 4, 69, 105
6, 137400, Note_on_c, 4, 48, 105
6, 137520, Note_on_c, 4, 48, 0
6, 137520, Note_on_c, 4, 69, 0
6, 137520, Note_on_c, 4, 67, 105
6, 137640, Note_on_c, 4, 67, 0
6, 137640, Note_on_c, 4, 64, 105
6, 137760, Note_on_c, 4, 64, 0
6, 137760, Note_on_c, 4, 38, 105
6, 137880, Note_on_c, 4, 38, 0
6, 137880, Note_on_c, 4, 69, 105
6, 137880, Note_on_c, 4, 50, 105
6, 138000, Note_on_c, 4, 50, 0
6, 138000, Note_on_c, 4, 69, 0
6, 138000, Note_on_c, 4, 66, 105
6, 138120, Note_on_c, 4, 66, 0
6, 138120, Note_on_c, 4, 62, 105
6, 138240, Note_on_c, 4, 62, 0
6, 138240, Note_on_c, 4, 43, 105
6, 138360, Note_on_c, 4, 86, 105
6, 138480, Note_on_c, 4, 86, 0
6, 138480, Note_on_c, 4, 83, 105
6, 138600, Note_on_c, 4, 83, 0
6, 138600, Note_on_c, 4, 79, 105
6, 138720, Note_on_c, 4, 79, 0
6, 138720, Note_on_c, 4, 43, 0
6, 138720, Note_on_c, 4, 74, 105
6, 138840, Note_on_c, 4, 74, 0
6, 138840, Note_on_c, 4, 83, 105
6, 138960, Note_on_c, 4, 83, 0
6, 138960, Note_on_c, 4, 79, 105
6, 139080, Note_on_c, 4, 79, 0
6, 139080, Note_on_c, 4, 74, 105
6, 139200, Note_on_c, 4, 74, 0
6, 139200, Note_on_c, 4, 71, 105
6, 139320, Note_on_c, 4, 71, 0
6, 139320, Note_on_c, 4, 79, 105
6, 139440, Note_on_c, 4, 79, 0
6, 139440, Note_on_c, 4, 74, 105
6, 139560, Note_on_c, 4, 74, 0
6, 139560, Note_on_c, 4, 71, 105
6, 139680, Note_on_c, 4, 71, 0
6, 139680, Note_on_c, 4, 67, 105
6, 139800, Note_on_c, 4, 67, 0
6, 139800, Note_on_c, 4, 74, 105
6, 139920, Note_on_c, 4, 74, 0
6, 139920, Note_on_c, 4, 71, 105
6, 140040, Note_on_c, 4, 71, 0
6, 140040, Note_on_c, 4, 67, 105
6, 140160, Note_on_c, 4, 67, 0
6, 140160, Note_on_c, 4, 43, 105
6, 140280, Note_on_c, 4, 43, 0
6, 140280, Note_on_c, 4, 47, 105
6, 140400, Note_on_c, 4, 47, 0
6, 140400, Note_on_c, 4, 50, 105
6, 140520, Note_on_c, 4, 50, 0
6, 140520, Note_on_c, 4, 55, 105
6, 140640, Note_on_c, 4, 55, 0
6, 140640, Note_on_c, 4, 62, 105
6, 140760, Note_on_c, 4, 62, 0
6, 140760, Note_on_c, 4, 67, 105
6, 140880, Note_on_c, 4, 67, 0
6, 140880, Note_on_c, 4, 62, 105
6, 141000, Note_on_c, 4, 62, 0
6, 141000, Note_on_c, 4, 59, 105
6, 141120, Note_on_c, 4, 59, 0
6, 141120, Note_on_c, 4, 43, 105
6, 141240, Note_on_c, 4, 43, 0
6, 141240, Note_on_c, 4, 47, 105
6, 141360, Note_on_c, 4, 47, 0
6, 141360, Note_on_c, 4, 50, 105
6, 141480, Note_on_c, 4, 50, 0
6, 141480, Note_on_c, 4, 55, 105
6, 141600, Note_on_c, 4, 55, 0
6, 141600, Note_on_c, 4, 62, 105
6, 141720, Note_on_c, 4, 62, 0
6, 141720, Note_on_c, 4, 67, 105
6, 141840, Note_on_c, 4, 67, 0
6, 141840, Note_on_c, 4, 62, 105
6, 141960, Note_on_c, 4, 62, 0
6, 141960, Note_on_c, 4, 59, 105
6, 142080, Note_on_c, 4, 59, 0
6, 142080, Note_on_c, 4, 43, 105
6, 142200, Note_on_c, 4, 43, 0
6, 142200, Note_on_c, 4, 48, 105
6, 142320, Note_on_c, 4, 48, 0
6, 142320, Note_on_c, 4, 52, 105
6, 142440, Note_on_c, 4, 52, 0
6, 142440, Note_on_c, 4, 55, 105
6, 142560, Note_on_c, 4, 55, 0
6, 142560, Note_on_c, 4, 64, 105
6, 142680, Note_on_c, 4, 64, 0
6, 142680, Note_on_c, 4, 67, 105
6, 142800, Note_on_c, 4, 67, 0
6, 142800, Note_on_c, 4, 64, 105
6, 142920, Note_on_c, 4, 64, 0
6, 142920, Note_on_c, 4, 60, 105
6, 143040, Note_on_c, 4, 60, 0
6, 143040, Note_on_c, 4, 43, 105
6, 143160, Note_on_c, 4, 43, 0
6, 143160, Note_on_c, 4, 48, 105
6, 143280, Note_on_c, 4, 48, 0
6, 143280, Note_on_c, 4, 52, 105
6, 143400, Note_on_c, 4, 52, 0
6, 143400, Note_on_c, 4, 55, 105
6, 143520, Note_on_c, 4, 55, 0
6, 143520, Note_on_c, 4, 64, 105
6, 143640, Note_on_c, 4, 64, 0
6, 143640, Note_on_c, 4, 67, 105
6, 143760, Note_on_c, 4, 67, 0
6, 143760, Note_on_c, 4, 64, 105
6, 143880, Note_on_c, 4, 64, 0
6, 143880, Note_on_c, 4, 60, 105
6, 144000, Note_on_c, 4, 60, 0
6, 144000, Note_on_c, 4, 43, 105
6, 144120, Note_on_c, 4, 43, 0
6, 144120, Note_on_c, 4, 59, 105
6, 144120, Note_on_c, 4, 55, 105
6, 144240, Note_on_c, 4, 55, 0
6, 144240, Note_on_c, 4, 59, 0
6, 144240, Note_on_c, 4, 62, 105
6, 144360, Note_on_c, 4, 62, 0
6, 144360, Note_on_c, 4, 67, 105
6, 144480, Note_on_c, 4, 67, 0
6, 144480, Note_on_c, 4, 40, 105
6, 144600, Note_on_c, 4, 40, 0
6, 144600, Note_on_c, 4, 59, 105
6, 144600, Note_on_c, 4, 52, 105
6, 144720, Note_on_c, 4, 52, 0
6, 144720, Note_on_c, 4, 59, 0
6, 144720, Note_on_c, 4, 64, 105
6, 144840, Note_on_c, 4, 64, 0
6, 144840, Note_on_c, 4, 67, 105
6, 144960, Note_on_c, 4, 67, 0
6, 144960, Note_on_c, 4, 36, 105
6, 145080, Note_on_c, 4, 36, 0
6, 145080, Note_on_c, 4, 57, 105
6, 145080, Note_on_c, 4, 48, 105
6, 145200, Note_on_c, 4, 48, 0
6, 145200, Note_on_c, 4, 57, 0
6, 145200, Note_on_c, 4, 64, 105
6, 145320, Note_on_c, 4, 64, 0
6, 145320, Note_on_c, 4, 67, 105
6, 145440, Note_on_c, 4, 67, 0
6, 145440, Note_on_c, 4, 38, 105
6, 145560, Note_on_c, 4, 38, 0
6, 145560, Note_on_c, 4, 57, 105
6, 145560, Note_on_c, 4, 50, 105
6, 145680, Note_on_c, 4, 50, 0
6, 145680, Note_on_c, 4, 57, 0
6, 145680, Note_on_c, 4, 62, 105
6, 145800, Note_on_c, 4, 62, 0
6, 145800, Note_on_c, 4, 66, 105
6, 145920, Note_on_c, 4, 66, 0
6, 145920, Note_on_c, 4, 67, 105
6, 145920, Note_on_c, 4, 43, 105
6, 146400, Note_on_c, 4, 43, 0
6, 146400, Note_on_c, 4, 67, 0
6, 149760, Note_on_c, 4, 38, 105
6, 149760, Note_on_c, 4, 50, 105
6, 149880, Note_on_c, 4, 84, 105
6, 150000, Note_on_c, 4, 84, 0
6, 150000, Note_on_c, 4, 50, 0
6, 150000, Note_on_c, 4, 38, 0
6, 150000, Note_on_c, 4, 81, 105
6, 150120, Note_on_c, 4, 81, 0
6, 150120, Note_on_c, 4, 78, 105
6, 150240, Note_on_c, 4, 78, 0
6, 150240, Note_on_c, 4, 72, 105
6, 150360, Note_on_c, 4, 81, 105
6, 150480, Note_on_c, 4, 81, 0
6, 150480, Note_on_c, 4, 72, 0
6, 150480, Note_on_c, 4, 78, 105
6, 150600, Note_on_c, 4, 78, 0
6, 150600, Note_on_c, 4, 74, 105
6, 150720, Note_on_c, 4, 74, 0
6, 150720, Note_on_c, 4, 69, 105
6, 150840, Note_on_c, 4, 78, 105
6, 150960, Note_on_c, 4, 78, 0
6, 150960, Note_on_c, 4, 69, 0
6, 150960, Note_on_c, 4, 74, 105
6, 151080, Note_on_c, 4, 74, 0
6, 151080, Note_on_c, 4, 72, 105
6, 151200, Note_on_c, 4, 72, 0
6, 151200, Note_on_c, 4, 66, 105
6, 151320, Note_on_c, 4, 74, 105
6, 151440, Note_on_c, 4, 74, 0
6, 151440, Note_on_c, 4, 66, 0
6, 151440, Note_on_c, 4, 72, 105
6, 151560, Note_on_c, 4, 72, 0
6, 151560, Note_on_c, 4, 69, 105
6, 151680, Note_on_c, 4, 69, 0
6, 151680, Note_on_c, 4, 62, 105
6, 151800, Note_on_c, 4, 72, 105
6, 151920, Note_on_c, 4, 72, 0
6, 151920, Note_on_c, 4, 62, 0
6, 151920, Note_on_c, 4, 69, 105
6, 152040, Note_on_c, 4, 69, 0
6, 152040, Note_on_c, 4, 66, 105
6, 152160, Note_on_c, 4, 66, 0
6, 152160, Note_on_c, 4, 60, 105
6, 152280, Note_on_c, 4, 69, 105
6, 152400, Note_on_c, 4, 69, 0
6, 152400, Note_on_c, 4, 60, 0
6, 152400, Note_on_c, 4, 66, 105
6, 152520, Note_on_c, 4, 66, 0
6, 152520, Note_on_c, 4, 62, 105
6, 152640, Note_on_c, 4, 62, 0
6, 152640, Note_on_c, 4, 57, 105
6, 152760, Note_on_c, 4, 66, 105
6, 152880, Note_on_c, 4, 66, 0
6, 152880, Note_on_c, 4, 57, 0
6, 152880, Note_on_c, 4, 62, 105
6, 153000, Note_on_c, 4, 62, 0
6, 153000, Note_on_c, 4, 60, 105
6, 153120, Note_on_c, 4, 60, 0
6, 153120, Note_on_c, 4, 54, 105
6, 153240, Note_on_c, 4, 62, 105
6, 153360, Note_on_c, 4, 62, 0
6, 153360, Note_on_c, 4, 54, 0
6, 153360, Note_on_c, 4, 60, 105
6, 153480, Note_on_c, 4, 60, 0
6, 153480, Note_on_c, 4, 57, 105
6, 153600, Note_on_c, 4, 57, 0
6, 153600, Note_on_c, 4, 43, 105
6, 153600, Note_on_c, 4, 55, 105
6, 153720, Note_on_c, 4, 59, 105
6, 153840, Note_on_c, 4, 59, 0
6, 153840, Note_on_c, 4, 55, 0
6, 153840, Note_on_c, 4, 43, 0
6, 153840, Note_on_c, 4, 62, 105
6, 153960, Note_on_c, 4, 62, 0
6, 153960, Note_on_c, 4, 59, 105
6, 154080, Note_on_c, 4, 59, 0
6, 154080, Note_on_c, 4, 67, 105
6, 154200, Note_on_c, 4, 67, 0
6, 154200, Note_on_c, 4, 62, 105
6, 154320, Note_on_c, 4, 62, 0
6, 154320, Note_on_c, 4, 71, 105
6, 154440, Note_on_c, 4, 71, 0
6, 154440, Note_on_c, 4, 67, 105
6, 154560, Note_on_c, 4, 67, 0
6, 154560, Note_on_c, 4, 74, 105
6, 154680, Note_on_c, 4, 62, 105
6, 154800, Note_on_c, 4, 62, 0
6, 154800, Note_on_c, 4, 74, 0
6, 154800, Note_on_c, 4, 67, 105
6, 154920, Note_on_c, 4, 67, 0
6, 154920, Note_on_c, 4, 62, 105
6, 155040, Note_on_c, 4, 62, 0
6, 155040, Note_on_c, 4, 71, 105
6, 155160, Note_on_c, 4, 71, 0
6, 155160, Note_on_c, 4, 67, 105
6, 155280, Note_on_c, 4, 67, 0
6, 155280, Note_on_c, 4, 74, 105
6, 155400, Note_on_c, 4, 74, 0
6, 155400, Note_on_c, 4, 71, 105
6, 155520, Note_on_c, 4, 71, 0
6, 155520, Note_on_c, 4, 79, 105
6, 155640, Note_on_c, 4, 67, 105
6, 155760, Note_on_c, 4, 67, 0
6, 155760, Note_on_c, 4, 79, 0
6, 155760, Note_on_c, 4, 71, 105
6, 155880, Note_on_c, 4, 71, 0
6, 155880, Note_on_c, 4, 67, 105
6, 156000, Note_on_c, 4, 67, 0
6, 156000, Note_on_c, 4, 74, 105
6, 156120, Note_on_c, 4, 74, 0
6, 156120, Note_on_c, 4, 71, 105
6, 156240, Note_on_c, 4, 71, 0
6, 156240, Note_on_c, 4, 79, 105
6, 156360, Note_on_c, 4, 79, 0
6, 156360, Note_on_c, 4, 74, 105
6, 156480, Note_on_c, 4, 74, 0
6, 156480, Note_on_c, 4, 83, 105
6, 156600, Note_on_c, 4, 74, 105
6, 156720, Note_on_c, 4, 74, 0
6, 156720, Note_on_c, 4, 83, 0
6, 156720, Note_on_c, 4, 79, 105
6, 156840, Note_on_c, 4, 79, 0
6, 156840, Note_on_c, 4, 74, 105
6, 156960, Note_on_c, 4, 74, 0
6, 156960, Note_on_c, 4, 83, 105
6, 157080, Note_on_c, 4, 83, 0
6, 157080, Note_on_c, 4, 79, 105
6, 157200, Note_on_c, 4, 79, 0
6, 157200, Note_on_c, 4, 86, 105
6, 157320, Note_on_c, 4, 86, 0
6, 157320, Note_on_c, 4, 83, 105
6, 157440, Note_on_c, 4, 83, 0
6, 157440, Note_on_c, 4, 38, 105
6, 157440, Note_on_c, 4, 50, 105
6, 157560, Note_on_c, 4, 84, 105
6, 157680, Note_on_c, 4, 84, 0
6, 157680, Note_on_c, 4, 50, 0
6, 157680, Note_on_c, 4, 38, 0
6, 157680, Note_on_c, 4, 81, 105
6, 157800, Note_on_c, 4, 81, 0
6, 157800, Note_on_c, 4, 78, 105
6, 157920, Note_on_c, 4, 78, 0
6, 157920, Note_on_c, 4, 72, 105
6, 158040, Note_on_c, 4, 81, 105
6, 158160, Note_on_c, 4, 81, 0
6, 158160, Note_on_c, 4, 72, 0
6, 158160, Note_on_c, 4, 78, 105
6, 158280, Note_on_c, 4, 78, 0
6, 158280, Note_on_c, 4, 74, 105
6, 158400, Note_on_c, 4, 74, 0
6, 158400, Note_on_c, 4, 69, 105
6, 158520, Note_on_c, 4, 78, 105
6, 158640, Note_on_c, 4, 78, 0
6, 158640, Note_on_c, 4, 69, 0
6, 158640, Note_on_c, 4, 74, 105
6, 158760, Note_on_c, 4, 74, 0
6, 158760, Note_on_c, 4, 72, 105
6, 158880, Note_on_c, 4, 72, 0
6, 158880, Note_on_c, 4, 66, 105
6, 159000, Note_on_c, 4, 74, 105
6, 159120, Note_on_c, 4, 74, 0
6, 159120, Note_on_c, 4, 66, 0
6, 159120, Note_on_c, 4, 72, 105
6, 159240, Note_on_c, 4, 72, 0
6, 159240, Note_on_c, 4, 69, 105
6, 159360, Note_on_c, 4, 69, 0
6, 159360, Note_on_c, 4, 62, 105
6, 159480, Note_on_c, 4, 72, 105
6, 159600, Note_on_c, 4, 72, 0
6, 159600, Note_on_c, 4, 62, 0
6, 159600, Note_on_c, 4, 69, 105
6, 159720, Note_on_c, 4, 69, 0
6, 159720, Note_on_c, 4, 66, 105
6, 159840, Note_on_c, 4, 66, 0
6, 159840, Note_on_c, 4, 60, 105
6, 159960, Note_on_c, 4, 69, 105
6, 160080, Note_on_c, 4, 69, 0
6, 160080, Note_on_c, 4, 60, 0
6, 160080, Note_on_c, 4, 66, 105
6, 160200, Note_on_c, 4, 66, 0
6, 160200, Note_on_c, 4, 62, 105
6, 160320, Note_on_c, 4, 62, 0
6, 160320, Note_on_c, 4, 57, 105
6, 160440, Note_on_c, 4, 66, 105
6, 160560, Note_on_c, 4, 66, 0
6, 160560, Note_on_c, 4, 57, 0
6, 160560, Note_on_c, 4, 62, 105
6, 160680, Note_on_c, 4, 62, 0
6, 160680, Note_on_c, 4, 60, 105
6, 160800, Note_on_c, 4, 60, 0
6, 160800, Note_on_c, 4, 54, 105
6, 160920, Note_on_c, 4, 62, 105
6, 161040, Note_on_c, 4, 62, 0
6, 161040, Note_on_c, 4, 54, 0
6, 161040, Note_on_c, 4, 60, 105
6, 161160, Note_on_c, 4, 60, 0
6, 161160, Note_on_c, 4, 57, 105
6, 161280, Note_on_c, 4, 57, 0
6, 161280, Note_on_c, 4, 43, 105
6, 161280, Note_on_c, 4, 55, 105
6, 161400, Note_on_c, 4, 59, 105
6, 161520, Note_on_c, 4, 59, 0
6, 161520, Note_on_c, 4, 55, 0
6, 161520, Note_on_c, 4, 43, 0
6, 161520, Note_on_c, 4, 62, 105
6, 161640, Note_on_c, 4, 62, 0
6, 161640, Note_on_c, 4, 59, 105
6, 161760, Note_on_c, 4, 59, 0
6, 161760, Note_on_c, 4, 67, 105
6, 161880, Note_on_c, 4, 67, 0
6, 161880, Note_on_c, 4, 62, 105
6, 162000, Note_on_c, 4, 62, 0
6, 162000, Note_on_c, 4, 71, 105
6, 162120, Note_on_c, 4, 71, 0
6, 162120, Note_on_c, 4, 67, 105
6, 162240, Note_on_c, 4, 67, 0
6, 162240, Note_on_c, 4, 74, 105
6, 162360, Note_on_c, 4, 62, 105
6, 162480, Note_on_c, 4, 62, 0
6, 162480, Note_on_c, 4, 74, 0
6, 162480, Note_on_c, 4, 67, 105
6, 162600, Note_on_c, 4, 67, 0
6, 162600, Note_on_c, 4, 62, 105
6, 162720, Note_on_c, 4, 62, 0
6, 162720, Note_on_c, 4, 71, 105
6, 162840, Note_on_c, 4, 71, 0
6, 162840, Note_on_c, 4, 67, 105
6, 162960, Note_on_c, 4, 67, 0
6, 162960, Note_on_c, 4, 74, 105
6, 163080, Note_on_c, 4, 74, 0
6, 163080, Note_on_c, 4, 71, 105
6, 163200, Note_on_c, 4, 71, 0
6, 163200, Note_on_c, 4, 79, 105
6, 163320, Note_on_c, 4, 67, 105
6, 163440, Note_on_c, 4, 67, 0
6, 163440, Note_on_c, 4, 79, 0
6, 163440, Note_on_c, 4, 71, 105
6, 163560, Note_on_c, 4, 71, 0
6, 163560, Note_on_c, 4, 67, 105
6, 163680, Note_on_c, 4, 67, 0
6, 163680, Note_on_c, 4, 74, 105
6, 163800, Note_on_c, 4, 74, 0
6, 163800, Note_on_c, 4, 71, 105
6, 163920, Note_on_c, 4, 71, 0
6, 163920, Note_on_c, 4, 79, 105
6, 164040, Note_on_c, 4, 79, 0
6, 164040, Note_on_c, 4, 74, 105
6, 164160, Note_on_c, 4, 74, 0
6, 164160, Note_on_c, 4, 83, 105
6, 164280, Note_on_c, 4, 74, 105
6, 164400, Note_on_c, 4, 74, 0
6, 164400, Note_on_c, 4, 83, 0
6, 164400, Note_on_c, 4, 79, 105
6, 164520, Note_on_c, 4, 79, 0
6, 164520, Note_on_c, 4, 74, 105
6, 164640, Note_on_c, 4, 74, 0
6, 164640, Note_on_c, 4, 83, 105
6, 164760, Note_on_c, 4, 83, 0
6, 164760, Note_on_c, 4, 79, 105
6, 164880, Note_on_c, 4, 79, 0
6, 164880, Note_on_c, 4, 86, 105
6, 165000, Note_on_c, 4, 86, 0
6, 165000, Note_on_c, 4, 83, 105
6, 165120, Note_on_c, 4, 83, 0
6, 165120, Note_on_c, 4, 78, 105
6, 165120, Note_on_c, 4, 81, 105
6, 165120, Note_on_c, 4, 50, 105
6, 165120, Note_on_c, 4, 62, 105
6, 165600, Note_on_c, 4, 62, 0
6, 165600, Note_on_c, 4, 78, 0
6, 165600, Note_on_c, 4, 81, 0
6, 165600, Note_on_c, 4, 50, 0
6, 174720, Note_on_c, 4, 74, 105
6, 174720, Note_on_c, 4, 59, 105
6, 174840, Note_on_c, 4, 59, 0
6, 174840, Note_on_c, 4, 74, 0
6, 174840, Note_on_c, 4, 76, 105
6, 174840, Note_on_c, 4, 60, 105
6, 174960, Note_on_c, 4, 60, 0
6, 174960, Note_on_c, 4, 76, 0
6, 174960, Note_on_c, 4, 74, 105
6, 174960, Note_on_c, 4, 59, 105
6, 175080, Note_on_c, 4, 59, 0
6, 175080, Note_on_c, 4, 74, 0
6, 175080, Note_on_c, 4, 72, 105
6, 175080, Note_on_c, 4, 57, 105
6, 175200, Note_on_c, 4, 57, 0
6, 175200, Note_on_c, 4, 72, 0
6, 175200, Note_on_c, 4, 71, 105
6, 175200, Note_on_c, 4, 55, 105
6, 175680, Note_on_c, 4, 55, 0
6, 175680, Note_on_c, 4, 71, 0
6, 178560, Note_on_c, 4, 86, 105
6, 178560, Note_on_c, 4, 71, 105
6, 178680, Note_on_c, 4, 71, 0
6, 178680, Note_on_c, 4, 86, 0
6, 178680, Note_on_c, 4, 88, 105
6, 178680, Note_on_c, 4, 72, 105
6, 178800, Note_on_c, 4, 72, 0
6, 178800, Note_on_c, 4, 88, 0
6, 178800, Note_on_c, 4, 86, 105
6, 178800, Note_on_c, 4, 71, 105
6, 178920, Note_on_c, 4, 71, 0
6, 178920, Note_on_c, 4, 86, 0
6, 178920, Note_on_c, 4, 84, 105
6, 178920, Note_on_c, 4, 69, 105
6, 179040, Note_on_c, 4, 69, 0
6, 179040, Note_on_c, 4, 84, 0
6, 179040, Note_on_c, 4, 83, 105
6, 179040, Note_on_c, 4, 67, 105
6, 179520, Note_on_c, 4, 67, 0
6, 179520, Note_on_c, 4, 83, 0
6, 182400, Note_on_c, 4, 74, 105
6, 182400, Note_on_c, 4, 59, 105
6, 182520, Note_on_c, 4, 59, 0
6, 182520, Note_on_c, 4, 74, 0
6, 182520, Note_on_c, 4, 76, 105
6, 182520, Note_on_c, 4, 60, 105
6, 182640, Note_on_c, 4, 60, 0
6, 182640, Note_on_c, 4, 76, 0
6, 182640, Note_on_c, 4, 74, 105
6, 182640, Note_on_c, 4, 59, 105
6, 182760, Note_on_c, 4, 59, 0
6, 182760, Note_on_c, 4, 74, 0
6, 182760, Note_on_c, 4, 72, 105
6, 182760, Note_on_c, 4, 57, 105
6, 182880, Note_on_c, 4, 57, 0
6, 182880, Note_on_c, 4, 72, 0
6, 182880, Note_on_c, 4, 71, 105
6, 182880, Note_on_c, 4, 55, 105
6, 183360, Note_on_c, 4, 55, 0
6, 183360, Note_on_c, 4, 71, 0
6, 184320, Note_on_c, 4, 79, 105
6, 184320, Note_on_c, 4, 64, 105
6, 184440, Note_on_c, 4, 64, 0
6, 184440, Note_on_c, 4, 79, 0
6, 184440, Note_on_c, 4, 81, 105
6, 184440, Note_on_c, 4, 65, 105
6, 184560, Note_on_c, 4, 65, 0
6, 184560, Note_on_c, 4, 81, 0
6, 184560, Note_on_c, 4, 79, 105
6, 184560, Note_on_c, 4, 64, 105
6, 184680, Note_on_c, 4, 64, 0
6, 184680, Note_on_c, 4, 79, 0
6, 184680, Note_on_c, 4, 77, 105
6, 184680, Note_on_c, 4, 62, 105
6, 184800, Note_on_c, 4, 62, 0
6, 184800, Note_on_c, 4, 77, 0
6, 184800, Note_on_c, 4, 76, 105
6, 184800, Note_on_c, 4, 60, 105
6, 185280, Note_on_c, 4, 60, 0
6, 185280, Note_on_c, 4, 76, 0
6, 186240, Note_on_c, 4, 77, 105
6, 186240, Note_on_c, 4, 62, 105
6, 186360, Note_on_c, 4, 62, 0
6, 186360, Note_on_c, 4, 77, 0
6, 186360, Note_on_c, 4, 79, 105
6, 186360, Note_on_c, 4, 64, 105
6, 186480, Note_on_c, 4, 64, 0
6, 186480, Note_on_c, 4, 79, 0
6, 186480, Note_on_c, 4, 77, 105
6, 186480, Note_on_c, 4, 62, 105
6, 186600, Note_on_c, 4, 62, 0
6, 186600, Note_on_c, 4, 77, 0
6, 186600, Note_on_c, 4, 76, 105
6, 186600, Note_on_c, 4, 60, 105
6, 186720, Note_on_c, 4, 60, 0
6, 186720, Note_on_c, 4, 76, 0
6, 186720, Note_on_c, 4, 74, 105
6, 186720, Note_on_c, 4, 59, 105
6, 187200, Note_on_c, 4, 59, 0
6, 187200, Note_on_c, 4, 74, 0
6, 188160, Note_on_c, 4, 76, 105
6, 188160, Note_on_c, 4, 60, 105
6, 188280, Note_on_c, 4, 76, 0
6, 188280, Note_on_c, 4, 79, 105
6, 188400, Note_on_c, 4, 79, 0
6, 188400, Note_on_c, 4, 60, 0
6, 188400, Note_on_c, 4, 84, 105
6, 188400, Note_on_c, 4, 64, 105
6, 188520, Note_on_c, 4, 84, 0
6, 188520, Note_on_c, 4, 79, 105
6, 188640, Note_on_c, 4, 79, 0
6, 188640, Note_on_c, 4, 64, 0
6, 188640, Note_on_c, 4, 88, 105
6, 188640, Note_on_c, 4, 67, 105
6, 188760, Note_on_c, 4, 88, 0
6, 188760, Note_on_c, 4, 84, 105
6, 188880, Note_on_c, 4, 84, 0
6, 188880, Note_on_c, 4, 67, 0
6, 188880, Note_on_c, 4, 79, 105
6, 188880, Note_on_c, 4, 60, 105
6, 189000, Note_on_c, 4, 79, 0
6, 189000, Note_on_c, 4, 76, 105
6, 189120, Note_on_c, 4, 76, 0
6, 189120, Note_on_c, 4, 60, 0
6, 189120, Note_on_c, 4, 74, 105
6, 189120, Note_on_c, 4, 59, 105
6, 189240, Note_on_c, 4, 74, 0
6, 189240, Note_on_c, 4, 79, 105
6, 189360, Note_on_c, 4, 79, 0
6, 189360, Note_on_c, 4, 59, 0
6, 189360, Note_on_c, 4, 83, 105
6, 189360, Note_on_c, 4, 62, 105
6, 189480, Note_on_c, 4, 83, 0
6, 189480, Note_on_c, 4, 79, 105
6, 189600, Note_on_c, 4, 79, 0
6, 189600, Note_on_c, 4, 62, 0
6, 189600, Note_on_c, 4, 86, 105
6, 189600, Note_on_c, 4, 67, 105
6, 189720, Note_on_c, 4, 86, 0
6, 189720, Note_on_c, 4, 83, 105
6, 189840, Note_on_c, 4, 83, 0
6, 189840, Note_on_c, 4, 67, 0
6, 189840, Note_on_c, 4, 79, 105
6, 189840, Note_on_c, 4, 59, 105
6, 189960, Note_on_c, 4, 79, 0
6, 189960, Note_on_c, 4, 74, 105
6, 190080, Note_on_c, 4, 74, 0
6, 190080, Note_on_c, 4, 59, 0
6, 190080, Note_on_c, 4, 76, 105
6, 190080, Note_on_c, 4, 60, 105
6, 190200, Note_on_c, 4, 76, 0
6, 190200, Note_on_c, 4, 79, 105
6, 190320, Note_on_c, 4, 79, 0
6, 190320, Note_on_c, 4, 60, 0
6, 190320, Note_on_c, 4, 84, 105
6, 190320, Note_on_c, 4, 64, 105
6, 190440, Note_on_c, 4, 84, 0
6, 190440, Note_on_c, 4, 79, 105
6, 190560, Note_on_c, 4, 79, 0
6, 190560, Note_on_c, 4, 64, 0
6, 190560, Note_on_c, 4, 88, 105
6, 190560, Note_on_c, 4, 67, 105
6, 190680, Note_on_c, 4, 88, 0
6, 190680, Note_on_c, 4, 84, 105
6, 190800, Note_on_c, 4, 84, 0
6, 190800, Note_on_c, 4, 67, 0
6, 190800, Note_on_c, 4, 79, 105
6, 190800, Note_on_c, 4, 60, 105
6, 190920, Note_on_c, 4, 79, 0
6, 190920, Note_on_c, 4, 76, 105
6, 191040, Note_on_c, 4, 76, 0
6, 191040, Note_on_c, 4, 60, 0
6, 191040, Note_on_c, 4, 74, 105
6, 191040, Note_on_c, 4, 59, 105
6, 191160, Note_on_c, 4, 74, 0
6, 191160, Note_on_c, 4, 79, 105
6, 191280, Note_on_c, 4, 79, 0
6, 191280, Note_on_c, 4, 59, 0
6, 191280, Note_on_c, 4, 83, 105
6, 191280, Note_on_c, 4, 62, 105
6, 191400, Note_on_c, 4, 83, 0
6, 191400, Note_on_c, 4, 79, 105
6, 191520, Note_on_c, 4, 79, 0
6, 191520, Note_on_c, 4, 62, 0
6, 191520, Note_on_c, 4, 86, 105
6, 191520, Note_on_c, 4, 67, 105
6, 191640, Note_on_c, 4, 86, 0
6, 191640, Note_on_c, 4, 83, 105
6, 191760, Note_on_c, 4, 83, 0
6, 191760, Note_on_c, 4, 67, 0
6, 191760, Note_on_c, 4, 79, 105
6, 191760, Note_on_c, 4, 59, 105
6, 191880, Note_on_c, 4, 79, 0
6, 191880, Note_on_c, 4, 74, 105
6, 192000, Note_on_c, 4, 74, 0
6, 192000, Note_on_c, 4, 59, 0
6, 192000, Note_on_c, 4, 72, 105
6, 192000, Note_on_c, 4, 60, 105
6, 192240, Note_on_c, 4, 60, 0
6, 192240, Note_on_c, 4, 72, 0
6, 192240, Note_on_c, 4, 84, 105
6, 192240, Note_on_c, 4, 69, 105
6, 192360, Note_on_c, 4, 69, 0
6, 192360, Note_on_c, 4, 84, 0
6, 192360, Note_on_c, 4, 86, 105
6, 192360, Note_on_c, 4, 71, 105
6, 192480, Note_on_c, 4, 71, 0
6, 192480, Note_on_c, 4, 86, 0
6, 192480, Note_on_c, 4, 88, 105
6, 192480, Note_on_c, 4, 72, 105
6, 192600, Note_on_c, 4, 72, 0
6, 192600, Note_on_c, 4, 88, 0
6, 192600, Note_on_c, 4, 86, 105
6, 192600, Note_on_c, 4, 71, 105
6, 192720, Note_on_c, 4, 71, 0
6, 192720, Note_on_c, 4, 86, 0
6, 192720, Note_on_c, 4, 84, 105
6, 192720, Note_on_c, 4, 69, 105
6, 192840, Note_on_c, 4, 69, 0
6, 192840, Note_on_c, 4, 84, 0
6, 192840, Note_on_c, 4, 83, 105
6, 192840, Note_on_c, 4, 67, 105
6, 192960, Note_on_c, 4, 67, 0
6, 192960, Note_on_c, 4, 83, 0
6, 192960, Note_on_c, 4, 81, 105
6, 192960, Note_on_c, 4, 66, 105
6, 193080, Note_on_c, 4, 66, 0
6, 193080, Note_on_c, 4, 81, 0
6, 193080, Note_on_c, 4, 83, 105
6, 193080, Note_on_c, 4, 67, 105
6, 193200, Note_on_c, 4, 67, 0
6, 193200, Note_on_c, 4, 83, 0
6, 193200, Note_on_c, 4, 81, 105
6, 193200, Note_on_c, 4, 66, 105
6, 193320, Note_on_c, 4, 66, 0
6, 193320, Note_on_c, 4, 81, 0
6, 193320, Note_on_c, 4, 79, 105
6, 193320, Note_on_c, 4, 64, 105
6, 193440, Note_on_c, 4, 64, 0
6, 193440, Note_on_c, 4, 79, 0
6, 193440, Note_on_c, 4, 78, 105
6, 193440, Note_on_c, 4, 62, 105
6, 193560, Note_on_c, 4, 62, 0
6, 193560, Note_on_c, 4, 78, 0
6, 193560, Note_on_c, 4, 76, 105
6, 193560, Note_on_c, 4, 60, 105
6, 193680, Note_on_c, 4, 60, 0
6, 193680, Note_on_c, 4, 76, 0
6, 193680, Note_on_c, 4, 74, 105
6, 193680, Note_on_c, 4, 59, 105
6, 193800, Note_on_c, 4, 59, 0
6, 193800, Note_on_c, 4, 74, 0
6, 193800, Note_on_c, 4, 72, 105
6, 193800, Note_on_c, 4, 57, 105
6, 193920, Note_on_c, 4, 57, 0
6, 193920, Note_on_c, 4, 72, 0
6, 193920, Note_on_c, 4, 71, 105
6, 193920, Note_on_c, 4, 55, 105
6, 194160, Note_on_c, 4, 55, 0
6, 194160, Note_on_c, 4, 71, 0
6, 194160, Note_on_c, 4, 83, 105
6, 194160, Note_on_c, 4, 67, 105
6, 194280, Note_on_c, 4, 67, 0
6, 194280, Note_on_c, 4, 83, 0
6, 194280, Note_on_c, 4, 84, 105
6, 194280, Note_on_c, 4, 69, 105
6, 194400, Note_on_c, 4, 69, 0
6, 194400, Note_on_c, 4, 84, 0
6, 194400, Note_on_c, 4, 86, 105
6, 194400, Note_on_c, 4, 71, 105
6, 194520, Note_on_c, 4, 71, 0
6, 194520, Note_on_c, 4, 86, 0
6, 194520, Note_on_c, 4, 84, 105
6, 194520, Note_on_c, 4, 69, 105
6, 194640, Note_on_c, 4, 69, 0
6, 194640, Note_on_c, 4, 84, 0
6, 194640, Note_on_c, 4, 83, 105
6, 194640, Note_on_c, 4, 67, 105
6, 194760, Note_on_c, 4, 67, 0
6, 194760, Note_on_c, 4, 83, 0
6, 194760, Note_on_c, 4, 81, 105
6, 194760, Note_on_c, 4, 66, 105
6, 194880, Note_on_c, 4, 66, 0
6, 194880, Note_on_c, 4, 81, 0
6, 194880, Note_on_c, 4, 79, 105
6, 194880, Note_on_c, 4, 64, 105
6, 195000, Note_on_c, 4, 64, 0
6, 195000, Note_on_c, 4, 79, 0
6, 195000, Note_on_c, 4, 81, 105
6, 195000, Note_on_c, 4, 66, 105
6, 195120, Note_on_c, 4, 66, 0
6, 195120, Note_on_c, 4, 81, 0
6, 195120, Note_on_c, 4, 79, 105
6, 195120, Note_on_c, 4, 64, 105
6, 195240, Note_on_c, 4, 64, 0
6, 195240, Note_on_c, 4, 79, 0
6, 195240, Note_on_c, 4, 78, 105
6, 195240, Note_on_c, 4, 62, 105
6, 195360, Note_on_c, 4, 62, 0
6, 195360, Note_on_c, 4, 78, 0
6, 195360, Note_on_c, 4, 76, 105
6, 195360, Note_on_c, 4, 60, 105
6, 195480, Note_on_c, 4, 60, 0
6, 195480, Note_on_c, 4, 76, 0
6, 195480, Note_on_c, 4, 74, 105
6, 195480, Note_on_c, 4, 59, 105
6, 195600, Note_on_c, 4, 59, 0
6, 195600, Note_on_c, 4, 74, 0
6, 195600, Note_on_c, 4, 72, 105
6, 195600, Note_on_c, 4, 57, 105
6, 195720, Note_on_c, 4, 57, 0
6, 195720, Note_on_c, 4, 72, 0
6, 195720, Note_on_c, 4, 71, 105
6, 195720, Note_on_c, 4, 55, 105
6, 195840, Note_on_c, 4, 55, 0
6, 195840, Note_on_c, 4, 71, 0
6, 195840, Note_on_c, 4, 76, 105
6, 195840, Note_on_c, 4, 48, 105
6, 195960, Note_on_c, 4, 76, 0
6, 195960, Note_on_c, 4, 72, 105
6, 196080, Note_on_c, 4, 72, 0
6, 196080, Note_on_c, 4, 48, 0
6, 196080, Note_on_c, 4, 76, 105
6, 196080, Note_on_c, 4, 60, 105
6, 196200, Note_on_c, 4, 76, 0
6, 196200, Note_on_c, 4, 72, 105
6, 196320, Note_on_c, 4, 72, 0
6, 196320, Note_on_c, 4, 60, 0
6, 196320, Note_on_c, 4, 69, 105
6, 196320, Note_on_c, 4, 48, 105
6, 196560, Note_on_c, 4, 48, 0
6, 196560, Note_on_c, 4, 69, 0
6, 196560, Note_on_c, 4, 76, 105
6, 196560, Note_on_c, 4, 60, 105
6, 196800, Note_on_c, 4, 60, 0
6, 196800, Note_on_c, 4, 76, 0
6, 196800, Note_on_c, 4, 74, 105
6, 196800, Note_on_c, 4, 50, 105
6, 197040, Note_on_c, 4, 50, 0
6, 197040, Note_on_c, 4, 74, 0
6, 197040, Note_on_c, 4, 72, 105
6, 197040, Note_on_c, 4, 62, 105
6, 197136, Note_on_c, 4, 72, 0
6, 197280, Note_on_c, 4, 62, 0
6, 197280, Note_on_c, 4, 71, 105
6, 197280, Note_on_c, 4, 50, 105
6, 197376, Note_on_c, 4, 71, 0
6, 197520, Note_on_c, 4, 50, 0
6, 197520, Note_on_c, 4, 69, 105
6, 197520, Note_on_c, 4, 62, 105
6, 197616, Note_on_c, 4, 69, 0
6, 197760, Note_on_c, 4, 62, 0
6, 197760, Note_on_c, 4, 67, 105
6, 197760, Note_on_c, 4, 43, 105
6, 197760, Note_on_c, 4, 55, 105
6, 197880, Note_on_c, 4, 67, 0
6, 197880, Note_on_c, 4, 71, 105
6, 198000, Note_on_c, 4, 71, 0
6, 198000, Note_on_c, 4, 55, 0
6, 198000, Note_on_c, 4, 43, 0
6, 198000, Note_on_c, 4, 69, 105
6, 198000, Note_on_c, 4, 45, 105
6, 198000, Note_on_c, 4, 57, 105
6, 198120, Note_on_c, 4, 69, 0
6, 198120, Note_on_c, 4, 72, 105
6, 198240, Note_on_c, 4, 72, 0
6, 198240, Note_on_c, 4, 57, 0
6, 198240, Note_on_c, 4, 45, 0
6, 198240, Note_on_c, 4, 71, 105
6, 198240, Note_on_c, 4, 47, 105
6, 198240, Note_on_c, 4, 59, 105
6, 198360, Note_on_c, 4, 71, 0
6, 198360, Note_on_c, 4, 74, 105
6, 198480, Note_on_c, 4, 74, 0
6, 198480, Note_on_c, 4, 59, 0
6, 198480, Note_on_c, 4, 47, 0
6, 198480, Note_on_c, 4, 72, 105
6, 198480, Note_on_c, 4, 48, 105
6, 198480, Note_on_c, 4, 60, 105
6, 198600, Note_on_c, 4, 72, 0
6, 198600, Note_on_c, 4, 76, 105
6, 198720, Note_on_c, 4, 76, 0
6, 198720, Note_on_c, 4, 60, 0
6, 198720, Note_on_c, 4, 48, 0
6, 198720, Note_on_c, 4, 74, 105
6, 198720, Note_on_c, 4, 50, 105
6, 198720, Note_on_c, 4, 62, 105
6, 198816, Note_on_c, 4, 74, 0
6, 198960, Note_on_c, 4, 76, 105
6, 199056, Note_on_c, 4, 76, 0
6, 199200, Note_on_c, 4, 62, 0
6, 199200, Note_on_c, 4, 50, 0
6, 199200, Note_on_c, 4, 78, 105
6, 199296, Note_on_c, 4, 78, 0
6, 199440, Note_on_c, 4, 79, 105
6, 199536, Note_on_c, 4, 79, 0
6, 199680, Note_on_c, 4, 69, 105
6, 199800, Note_on_c, 4, 69, 0
6, 199800, Note_on_c, 4, 71, 105
6, 199920, Note_on_c, 4, 71, 0
6, 199920, Note_on_c, 4, 69, 105
6, 200040, Note_on_c, 4, 69, 0
6, 200040, Note_on_c, 4, 71, 105
6, 200160, Note_on_c, 4, 71, 0
6, 200160, Note_on_c, 4, 69, 105
6, 200160, Note_on_c, 4, 60, 105
6, 200280, Note_on_c, 4, 60, 0
6, 200280, Note_on_c, 4, 59, 105
6, 200400, Note_on_c, 4, 59, 0
6, 200400, Note_on_c, 4, 57, 105
6, 200520, Note_on_c, 4, 57, 0
6, 200520, Note_on_c, 4, 55, 105
6, 200640, Note_on_c, 4, 55, 0
6, 200640, Note_on_c, 4, 69, 0
6, 200640, Note_on_c, 4, 84, 105
6, 200640, Note_on_c, 4, 54, 105
6, 200760, Note_on_c, 4, 84, 0
6, 200760, Note_on_c, 4, 83, 105
6, 200880, Note_on_c, 4, 83, 0
6, 200880, Note_on_c, 4, 84, 105
6, 201000, Note_on_c, 4, 84, 0
6, 201000, Note_on_c, 4, 83, 105
6, 201120, Note_on_c, 4, 83, 0
6, 201120, Note_on_c, 4, 54, 0
6, 201120, Note_on_c, 4, 84, 105
6, 201120, Note_on_c, 4, 50, 105
6, 201240, Note_on_c, 4, 50, 0
6, 201240, Note_on_c, 4, 48, 105
6, 201360, Note_on_c, 4, 48, 0
6, 201360, Note_on_c, 4, 47, 105
6, 201480, Note_on_c, 4, 47, 0
6, 201480, Note_on_c, 4, 45, 105
6, 201600, Note_on_c, 4, 45, 0
6, 201600, Note_on_c, 4, 84, 0
6, 201600, Note_on_c, 4, 67, 105
6, 201600, Note_on_c, 4, 43, 105
6, 201720, Note_on_c, 4, 67, 0
6, 201720, Note_on_c, 4, 69, 105
6, 201840, Note_on_c, 4, 69, 0
6, 201840, Note_on_c, 4, 67, 105
6, 201960, Note_on_c, 4, 67, 0
6, 201960, Note_on_c, 4, 69, 105
6, 202080, Note_on_c, 4, 69, 0
6, 202080, Note_on_c, 4, 43, 0
6, 202080, Note_on_c, 4, 67, 105
6, 202080, Note_on_c, 4, 59, 105
6, 202200, Note_on_c, 4, 59, 0
6, 202200, Note_on_c, 4, 57, 105
6, 202320, Note_on_c, 4, 57, 0
6, 202320, Note_on_c, 4, 55, 105
6, 202440, Note_on_c, 4, 55, 0
6, 202440, Note_on_c, 4, 54, 105
6, 202560, Note_on_c, 4, 54, 0
6, 202560, Note_on_c, 4, 67, 0
6, 202560, Note_on_c, 4, 83, 105
6, 202560, Note_on_c, 4, 52, 105
6, 202680, Note_on_c, 4, 83, 0
6, 202680, Note_on_c, 4, 82, 105
6, 202800, Note_on_c, 4, 82, 0
6, 202800, Note_on_c, 4, 83, 105
6, 202920, Note_on_c, 4, 83, 0
6, 202920, Note_on_c, 4, 82, 105
6, 203040, Note_on_c, 4, 82, 0
6, 203040, Note_on_c, 4, 52, 0
6, 203040, Note_on_c, 4, 83, 105
6, 203040, Note_on_c, 4, 67, 105
6, 203160, Note_on_c, 4, 67, 0
6, 203160, Note_on_c, 4, 66, 105
6, 203280, Note_on_c, 4, 66, 0
6, 203280, Note_on_c, 4, 64, 105
6, 203400, Note_on_c, 4, 64, 0
6, 203400, Note_on_c, 4, 62, 105
6, 203520, Note_on_c, 4, 62, 0
6, 203520, Note_on_c, 4, 83, 0
6, 203520, Note_on_c, 4, 60, 105
6, 203640, Note_on_c, 4, 60, 0
6, 203640, Note_on_c, 4, 64, 105
6, 203760, Note_on_c, 4, 64, 0
6, 203760, Note_on_c, 4, 69, 105
6, 203880, Note_on_c, 4, 69, 0
6, 203880, Note_on_c, 4, 72, 105
6, 204000, Note_on_c, 4, 72, 0
6, 204000, Note_on_c, 4, 76, 105
6, 204120, Note_on_c, 4, 76, 0
6, 204120, Note_on_c, 4, 81, 105
6, 204240, Note_on_c, 4, 81, 0
6, 204240, Note_on_c, 4, 84, 105
6, 204360, Note_on_c, 4, 84, 0
6, 204360, Note_on_c, 4, 88, 105
6, 204480, Note_on_c, 4, 88, 0
6, 204480, Note_on_c, 4, 86, 105
6, 204480, Note_on_c, 4, 74, 105
6, 204600, Note_on_c, 4, 86, 0
6, 204600, Note_on_c, 4, 83, 105
6, 204720, Note_on_c, 4, 83, 0
6, 204720, Note_on_c, 4, 74, 0
6, 204720, Note_on_c, 4, 84, 105
6, 204840, Note_on_c, 4, 84, 0
6, 204840, Note_on_c, 4, 81, 105
6, 204960, Note_on_c, 4, 81, 0
6, 204960, Note_on_c, 4, 83, 105
6, 204960, Note_on_c, 4, 62, 105
6, 205080, Note_on_c, 4, 83, 0
6, 205080, Note_on_c, 4, 79, 105
6, 205200, Note_on_c, 4, 79, 0
6, 205200, Note_on_c, 4, 62, 0
6, 205200, Note_on_c, 4, 81, 105
6, 205320, Note_on_c, 4, 81, 0
6, 205320, Note_on_c, 4, 78, 105
6, 205440, Note_on_c, 4, 78, 0
6, 205440, Note_on_c, 4, 79, 105
6, 205440, Note_on_c, 4, 67, 105
6, 205560, Note_on_c, 4, 79, 0
6, 205560, Note_on_c, 4, 74, 105
6, 205680, Note_on_c, 4, 74, 0
6, 205680, Note_on_c, 4, 76, 105
6, 205800, Note_on_c, 4, 76, 0
6, 205800, Note_on_c, 4, 72, 105
6, 205920, Note_on_c, 4, 72, 0
6, 205920, Note_on_c, 4, 67, 0
6, 205920, Note_on_c, 4, 74, 105
6, 206040, Note_on_c, 4, 74, 0
6, 206040, Note_on_c, 4, 71, 105
6, 206160, Note_on_c, 4, 71, 0
6, 206160, Note_on_c, 4, 72, 105
6, 206280, Note_on_c, 4, 72, 0
6, 206280, Note_on_c, 4, 69, 105
6, 206400, Note_on_c, 4, 69, 0
6, 206400, Note_on_c, 4, 67, 105
6, 206640, Note_on_c, 4, 67, 0
6, 206640, Note_on_c, 4, 62, 105
6, 206880, Note_on_c, 4, 62, 0
6, 206880, Note_on_c, 4, 69, 105
6, 207120, Note_on_c, 4, 69, 0
6, 207120, Note_on_c, 4, 62, 105
6, 207360, Note_on_c, 4, 62, 0
6, 207360, Note_on_c, 4, 71, 105
6, 207600, Note_on_c, 4, 71, 0
6, 207600, Note_on_c, 4, 62, 105
6, 207840, Note_on_c, 4, 62, 0
6, 207840, Note_on_c, 4, 71, 105
6, 208080, Note_on_c, 4, 71, 0
6, 208080, Note_on_c, 4, 62, 105
6, 208320, Note_on_c, 4, 62, 0
6, 208320, Note_on_c, 4, 67, 105
6, 208560, Note_on_c, 4, 67, 0
6, 208560, Note_on_c, 4, 62, 105
6, 208800, Note_on_c, 4, 62, 0
6, 208800, Note_on_c, 4, 69, 105
6, 209040, Note_on_c, 4, 69, 0
6, 209040, Note_on_c, 4, 62, 105
6, 209280, Note_on_c, 4, 62, 0
6, 209280, Note_on_c, 4, 71, 105
6, 209520, Note_on_c, 4, 71, 0
6, 209520, Note_on_c, 4, 62, 105
6, 209760, Note_on_c, 4, 62, 0
6, 209760, Note_on_c, 4, 71, 105
6, 210000, Note_on_c, 4, 71, 0
6, 210000, Note_on_c, 4, 62, 105
6, 210240, Note_on_c, 4, 62, 0
6, 210240, Note_on_c, 4, 67, 105
6, 210480, Note_on_c, 4, 67, 0
6, 210480, Note_on_c, 4, 62, 105
6, 210720, Note_on_c, 4, 62, 0
6, 210720, Note_on_c, 4, 69, 105
6, 210960, Note_on_c, 4, 69, 0
6, 210960, Note_on_c, 4, 62, 105
6, 211200, Note_on_c, 4, 62, 0
6, 211200, Note_on_c, 4, 71, 105
6, 211440, Note_on_c, 4, 71, 0
6, 211440, Note_on_c, 4, 62, 105
6, 211680, Note_on_c, 4, 62, 0
6, 211680, Note_on_c, 4, 69, 105
6, 211920, Note_on_c, 4, 69, 0
6, 211920, Note_on_c, 4, 62, 105
6, 212160, Note_on_c, 4, 62, 0
6, 212160, Note_on_c, 4, 67, 105
6, 212400, Note_on_c, 4, 67, 0
6, 212400, Note_on_c, 4, 62, 105
6, 212640, Note_on_c, 4, 62, 0
6, 212640, Note_on_c, 4, 66, 105
6, 212880, Note_on_c, 4, 66, 0
6, 212880, Note_on_c, 4, 62, 105
6, 213120, Note_on_c, 4, 62, 0
6, 213120, Note_on_c, 4, 67, 105
6, 213240, Note_on_c, 4, 50, 105
6, 213360, Note_on_c, 4, 50, 0
6, 213360, Note_on_c, 4, 52, 105
6, 213480, Note_on_c, 4, 52, 0
6, 213480, Note_on_c, 4, 54, 105
6, 213600, Note_on_c, 4, 54, 0
6, 213600, Note_on_c, 4, 67, 0
6, 213600, Note_on_c, 4, 55, 105
6, 213720, Note_on_c, 4, 55, 0
6, 213720, Note_on_c, 4, 57, 105
6, 213840, Note_on_c, 4, 57, 0
6, 213840, Note_on_c, 4, 59, 105
6, 213960, Note_on_c, 4, 59, 0
6, 213960, Note_on_c, 4, 57, 105
6, 214080, Note_on_c, 4, 57, 0
6, 214080, Note_on_c, 4, 72, 105
6, 214080, Note_on_c, 4, 55, 105
6, 214200, Note_on_c, 4, 72, 0
6, 214200, Note_on_c, 4, 71, 105
6, 214320, Note_on_c, 4, 71, 0
6, 214320, Note_on_c, 4, 55, 0
6, 214320, Note_on_c, 4, 69, 105
6, 214320, Note_on_c, 4, 50, 105
6, 214440, Note_on_c, 4, 69, 0
6, 214440, Note_on_c, 4, 71, 105
6, 214560, Note_on_c, 4, 71, 0
6, 214560, Note_on_c, 4, 50, 0
6, 214560, Note_on_c, 4, 74, 105
6, 214560, Note_on_c, 4, 57, 105
6, 214680, Note_on_c, 4, 74, 0
6, 214680, Note_on_c, 4, 72, 105
6, 214800, Note_on_c, 4, 72, 0
6, 214800, Note_on_c, 4, 57, 0
6, 214800, Note_on_c, 4, 71, 105
6, 214800, Note_on_c, 4, 50, 105
6, 214920, Note_on_c, 4, 71, 0
6, 214920, Note_on_c, 4, 72, 105
6, 215040, Note_on_c, 4, 72, 0
6, 215040, Note_on_c, 4, 50, 0
6, 215040, Note_on_c, 4, 74, 105
6, 215040, Note_on_c, 4, 59, 105
6, 215280, Note_on_c, 4, 59, 0
6, 215280, Note_on_c, 4, 74, 0
6, 215280, Note_on_c, 4, 79, 105
6, 215280, Note_on_c, 4, 50, 105
6, 215520, Note_on_c, 4, 50, 0
6, 215520, Note_on_c, 4, 79, 0
6, 215520, Note_on_c, 4, 74, 105
6, 215520, Note_on_c, 4, 59, 105
6, 215616, Note_on_c, 4, 74, 0
6, 215760, Note_on_c, 4, 59, 0
6, 215760, Note_on_c, 4, 74, 105
6, 215760, Note_on_c, 4, 50, 105
6, 215856, Note_on_c, 4, 74, 0
6, 216000, Note_on_c, 4, 50, 0
6, 216000, Note_on_c, 4, 72, 105
6, 216000, Note_on_c, 4, 55, 105
6, 216120, Note_on_c, 4, 72, 0
6, 216120, Note_on_c, 4, 71, 105
6, 216240, Note_on_c, 4, 71, 0
6, 216240, Note_on_c, 4, 55, 0
6, 216240, Note_on_c, 4, 69, 105
6, 216240, Note_on_c, 4, 50, 105
6, 216360, Note_on_c, 4, 69, 0
6, 216360, Note_on_c, 4, 71, 105
6, 216480, Note_on_c, 4, 71, 0
6, 216480, Note_on_c, 4, 50, 0
6, 216480, Note_on_c, 4, 74, 105
6, 216480, Note_on_c, 4, 57, 105
6, 216600, Note_on_c, 4, 74, 0
6, 216600, Note_on_c, 4, 72, 105
6, 216720, Note_on_c, 4, 72, 0
6, 216720, Note_on_c, 4, 57, 0
6, 216720, Note_on_c, 4, 71, 105
6, 216720, Note_on_c, 4, 50, 105
6, 216840, Note_on_c, 4, 71, 0
6, 216840, Note_on_c, 4, 72, 105
6, 216960, Note_on_c, 4, 72, 0
6, 216960, Note_on_c, 4, 50, 0
6, 216960, Note_on_c, 4, 74, 105
6, 216960, Note_on_c, 4, 59, 105
6, 217080, Note_on_c, 4, 74, 0
6, 217080, Note_on_c, 4, 79, 105
6, 217200, Note_on_c, 4, 79, 0
6, 217200, Note_on_c, 4, 59, 0
6, 217200, Note_on_c, 4, 83, 105
6, 217200, Note_on_c, 4, 50, 105
6, 217320, Note_on_c, 4, 83, 0
6, 217320, Note_on_c, 4, 79, 105
6, 217440, Note_on_c, 4, 79, 0
6, 217440, Note_on_c, 4, 50, 0
6, 217440, Note_on_c, 4, 74, 105
6, 217440, Note_on_c, 4, 59, 105
6, 217536, Note_on_c, 4, 74, 0
6, 217680, Note_on_c, 4, 59, 0
6, 217680, Note_on_c, 4, 74, 105
6, 217680, Note_on_c, 4, 50, 105
6, 217776, Note_on_c, 4, 74, 0
6, 217920, Note_on_c, 4, 50, 0
6, 217920, Note_on_c, 4, 84, 105
6, 217920, Note_on_c, 4, 67, 105
6, 218040, Note_on_c, 4, 84, 0
6, 218040, Note_on_c, 4, 83, 105
6, 218160, Note_on_c, 4, 83, 0
6, 218160, Note_on_c, 4, 67, 0
6, 218160, Note_on_c, 4, 81, 105
6, 218160, Note_on_c, 4, 62, 105
6, 218280, Note_on_c, 4, 81, 0
6, 218280, Note_on_c, 4, 83, 105
6, 218400, Note_on_c, 4, 83, 0
6, 218400, Note_on_c, 4, 62, 0
6, 218400, Note_on_c, 4, 86, 105
6, 218400, Note_on_c, 4, 69, 105
6, 218520, Note_on_c, 4, 86, 0
6, 218520, Note_on_c, 4, 84, 105
6, 218640, Note_on_c, 4, 84, 0
6, 218640, Note_on_c, 4, 69, 0
6, 218640, Note_on_c, 4, 83, 105
6, 218640, Note_on_c, 4, 62, 105
6, 218760, Note_on_c, 4, 83, 0
6, 218760, Note_on_c, 4, 84, 105
6, 218880, Note_on_c, 4, 84, 0
6, 218880, Note_on_c, 4, 62, 0
6, 218880, Note_on_c, 4, 86, 105
6, 218880, Note_on_c, 4, 71, 105
6, 219000, Note_on_c, 4, 86, 0
6, 219000, Note_on_c, 4, 83, 105
6, 219120, Note_on_c, 4, 83, 0
6, 219120, Note_on_c, 4, 71, 0
6, 219120, Note_on_c, 4, 86, 105
6, 219120, Note_on_c, 4, 62, 105
6, 219240, Note_on_c, 4, 86, 0
6, 219240, Note_on_c, 4, 83, 105
6, 219360, Note_on_c, 4, 83, 0
6, 219360, Note_on_c, 4, 62, 0
6, 219360, Note_on_c, 4, 84, 105
6, 219360, Note_on_c, 4, 69, 105
6, 219480, Note_on_c, 4, 84, 0
6, 219480, Note_on_c, 4, 81, 105
6, 219600, Note_on_c, 4, 81, 0
6, 219600, Note_on_c, 4, 69, 0
6, 219600, Note_on_c, 4, 84, 105
6, 219600, Note_on_c, 4, 62, 105
6, 219720, Note_on_c, 4, 84, 0
6, 219720, Note_on_c, 4, 81, 105
6, 219840, Note_on_c, 4, 81, 0
6, 219840, Note_on_c, 4, 62, 0
6, 219840, Note_on_c, 4, 83, 105
6, 219840, Note_on_c, 4, 67, 105
6, 219960, Note_on_c, 4, 83, 0
6, 219960, Note_on_c, 4, 79, 105
6, 220080, Note_on_c, 4, 79, 0
6, 220080, Note_on_c, 4, 67, 0
6, 220080, Note_on_c, 4, 83, 105
6, 220080, Note_on_c, 4, 62, 105
6, 220200, Note_on_c, 4, 83, 0
6, 220200, Note_on_c, 4, 79, 105
6, 220320, Note_on_c, 4, 79, 0
6, 220320, Note_on_c, 4, 62, 0
6, 220320, Note_on_c, 4, 81, 105
6, 220320, Note_on_c, 4, 66, 105
6, 220440, Note_on_c, 4, 81, 0
6, 220440, Note_on_c, 4, 78, 105
6, 220560, Note_on_c, 4, 78, 0
6, 220560, Note_on_c, 4, 66, 0
6, 220560, Note_on_c, 4, 81, 105
6, 220560, Note_on_c, 4, 62, 105
6, 220680, Note_on_c, 4, 81, 0
6, 220680, Note_on_c, 4, 78, 105
6, 220800, Note_on_c, 4, 78, 0
6, 220800, Note_on_c, 4, 62, 0
6, 220800, Note_on_c, 4, 74, 105
6, 220800, Note_on_c, 4, 47, 105
6, 220920, Note_on_c, 4, 47, 0
6, 220920, Note_on_c, 4, 74, 0
6, 220920, Note_on_c, 4, 79, 105
6, 220920, Note_on_c, 4, 50, 105
6, 221040, Note_on_c, 4, 50, 0
6, 221040, Note_on_c, 4, 79, 0
6, 221040, Note_on_c, 4, 83, 105
6, 221040, Note_on_c, 4, 55, 105
6, 221160, Note_on_c, 4, 55, 0
6, 221160, Note_on_c, 4, 83, 0
6, 221160, Note_on_c, 4, 86, 105
6, 221160, Note_on_c, 4, 59, 105
6, 221280, Note_on_c, 4, 59, 0
6, 221280, Note_on_c, 4, 86, 0
6, 221280, Note_on_c, 4, 84, 105
6, 221400, Note_on_c, 4, 84, 0
6, 221400, Note_on_c, 4, 83, 105
6, 221520, Note_on_c, 4, 83, 0
6, 221520, Note_on_c, 4, 81, 105
6, 221640, Note_on_c, 4, 81, 0
6, 221640, Note_on_c, 4, 79, 105
6, 221760, Note_on_c, 4, 79, 0
6, 221760, Note_on_c, 4, 76, 105
6, 221760, Note_on_c, 4, 48, 105
6, 221880, Note_on_c, 4, 48, 0
6, 221880, Note_on_c, 4, 76, 0
6, 221880, Note_on_c, 4, 81, 105
6, 221880, Note_on_c, 4, 52, 105
6, 222000, Note_on_c, 4, 52, 0
6, 222000, Note_on_c, 4, 81, 0
6, 222000, Note_on_c, 4, 84, 105
6, 222000, Note_on_c, 4, 57, 105
6, 222120, Note_on_c, 4, 57, 0
6, 222120, Note_on_c, 4, 84, 0
6, 222120, Note_on_c, 4, 88, 105
6, 222120, Note_on_c, 4, 60, 105
6, 222240, Note_on_c, 4, 60, 0
6, 222240, Note_on_c, 4, 88, 0
6, 222240, Note_on_c, 4, 86, 105
6, 222360, Note_on_c, 4, 86, 0
6, 222360, Note_on_c, 4, 84, 105
6, 222480, Note_on_c, 4, 84, 0
6, 222480, Note_on_c, 4, 83, 105
6, 222600, Note_on_c, 4, 83, 0
6, 222600, Note_on_c, 4, 81, 105
6, 222720, Note_on_c, 4, 81, 0
6, 222720, Note_on_c, 4, 50, 105
6, 222840, Note_on_c, 4, 83, 105
6, 222960, Note_on_c, 4, 83, 0
6, 222960, Note_on_c, 4, 50, 0
6, 222960, Note_on_c, 4, 86, 105
6, 223080, Note_on_c, 4, 86, 0
6, 223080, Note_on_c, 4, 83, 105
6, 223200, Note_on_c, 4, 83, 0
6, 223200, Note_on_c, 4, 62, 105
6, 223200, Note_on_c, 4, 71, 105
6, 223320, Note_on_c, 4, 79, 105
6, 223440, Note_on_c, 4, 79, 0
6, 223440, Note_on_c, 4, 71, 0
6, 223440, Note_on_c, 4, 62, 0
6, 223440, Note_on_c, 4, 83, 105
6, 223560, Note_on_c, 4, 83, 0
6, 223560, Note_on_c, 4, 79, 105
6, 223680, Note_on_c, 4, 79, 0
6, 223680, Note_on_c, 4, 62, 105
6, 223680, Note_on_c, 4, 72, 105
6, 223800, Note_on_c, 4, 81, 105
6, 223920, Note_on_c, 4, 81, 0
6, 223920, Note_on_c, 4, 72, 0
6, 223920, Note_on_c, 4, 62, 0
6, 223920, Note_on_c, 4, 84, 105
6, 224040, Note_on_c, 4, 84, 0
6, 224040, Note_on_c, 4, 81, 105
6, 224160, Note_on_c, 4, 81, 0
6, 224160, Note_on_c, 4, 62, 105
6, 224160, Note_on_c, 4, 69, 105
6, 224280, Note_on_c, 4, 78, 105
6, 224400, Note_on_c, 4, 78, 0
6, 224400, Note_on_c, 4, 69, 0
6, 224400, Note_on_c, 4, 62, 0
6, 224400, Note_on_c, 4, 81, 105
6, 224520, Note_on_c, 4, 81, 0
6, 224520, Note_on_c, 4, 78, 105
6, 224548, Note_on_c, 4, 67, 105
6, 224548, Note_on_c, 4, 47, 105
6, 224580, Note_on_c, 4, 71, 105
6, 224580, Note_on_c, 4, 50, 105
6, 224608, Note_on_c, 4, 74, 105
6, 224608, Note_on_c, 4, 55, 105
6, 224640, Note_on_c, 4, 78, 0
6, 224640, Note_on_c, 4, 79, 105
6, 224640, Note_on_c, 4, 59, 105
6, 225120, Note_on_c, 4, 59, 0
6, 225120, Note_on_c, 4, 67, 0
6, 225120, Note_on_c, 4, 55, 0
6, 225120, Note_on_c, 4, 47, 0
6, 225120, Note_on_c, 4, 71, 0
6, 225120, Note_on_c, 4, 50, 0
6, 225120, Note_on_c, 4, 74, 0
6, 225120, Note_on_c, 4, 79, 0
6, 225508, Note_on_c, 4, 67, 105
6, 225508, Note_on_c, 4, 48, 105
6, 225540, Note_on_c, 4, 72, 105
6, 225540, Note_on_c, 4, 52, 105
6, 225568, Note_on_c, 4, 76, 105
6, 225568, Note_on_c, 4, 55, 105
6, 225600, Note_on_c, 4, 79, 105
6, 225600, Note_on_c, 4, 60, 105
6, 226080, Note_on_c, 4, 60, 0
6, 226080, Note_on_c, 4, 67, 0
6, 226080, Note_on_c, 4, 76, 0
6, 226080, Note_on_c, 4, 48, 0
6, 226080, Note_on_c, 4, 72, 0
6, 226080, Note_on_c, 4, 52, 0
6, 226080, Note_on_c, 4, 55, 0
6, 226080, Note_on_c, 4, 79, 0
6, 226560, Note_on_c, 4, 47, 105
6, 226680, Note_on_c, 4, 47, 0
6, 226680, Note_on_c, 4, 55, 105
6, 226800, Note_on_c, 4, 55, 0
6, 226800, Note_on_c, 4, 59, 105
6, 226920, Note_on_c, 4, 59, 0
6, 226920, Note_on_c, 4, 62, 105
6, 227040, Note_on_c, 4, 62, 0
6, 227040, Note_on_c, 4, 62, 105
6, 227160, Note_on_c, 4, 62, 0
6, 227160, Note_on_c, 4, 67, 105
6, 227280, Note_on_c, 4, 67, 0
6, 227280, Note_on_c, 4, 71, 105
6, 227400, Note_on_c, 4, 71, 0
6, 227400, Note_on_c, 4, 74, 105
6, 227520, Note_on_c, 4, 74, 0
6, 227520, Note_on_c, 4, 62, 105
6, 227640, Note_on_c, 4, 62, 0
6, 227640, Note_on_c, 4, 67, 105
6, 227760, Note_on_c, 4, 67, 0
6, 227760, Note_on_c, 4, 71, 105
6, 227880, Note_on_c, 4, 71, 0
6, 227880, Note_on_c, 4, 74, 105
6, 228000, Note_on_c, 4, 74, 0
6, 228000, Note_on_c, 4, 74, 105
6, 228120, Note_on_c, 4, 74, 0
6, 228120, Note_on_c, 4, 79, 105
6, 228240, Note_on_c, 4, 79, 0
6, 228240, Note_on_c, 4, 83, 105
6, 228360, Note_on_c, 4, 83, 0
6, 228360, Note_on_c, 4, 86, 105
6, 228480, Note_on_c, 4, 86, 0
6, 228480, Note_on_c, 4, 84, 105
6, 228600, Note_on_c, 4, 84, 0
6, 228600, Note_on_c, 4, 81, 105
6, 228720, Note_on_c, 4, 81, 0
6, 228720, Note_on_c, 4, 78, 105
6, 228840, Note_on_c, 4, 78, 0
6, 228840, Note_on_c, 4, 74, 105
6, 228960, Note_on_c, 4, 74, 0
6, 228960, Note_on_c, 4, 72, 105
6, 229080, Note_on_c, 4, 72, 0
6, 229080, Note_on_c, 4, 69, 105
6, 229200, Note_on_c, 4, 69, 0
6, 229200, Note_on_c, 4, 66, 105
6, 229320, Note_on_c, 4, 66, 0
6, 229320, Note_on_c, 4, 62, 105
6, 229440, Note_on_c, 4, 62, 0
6, 229440, Note_on_c, 4, 72, 105
6, 229560, Note_on_c, 4, 72, 0
6, 229560, Note_on_c, 4, 69, 105
6, 229680, Note_on_c, 4, 69, 0
6, 229680, Note_on_c, 4, 66, 105
6, 229800, Note_on_c, 4, 66, 0
6, 229800, Note_on_c, 4, 62, 105
6, 229920, Note_on_c, 4, 62, 0
6, 229920, Note_on_c, 4, 60, 105
6, 230040, Note_on_c, 4, 60, 0
6, 230040, Note_on_c, 4, 57, 105
6, 230160, Note_on_c, 4, 57, 0
6, 230160, Note_on_c, 4, 54, 105
6, 230280, Note_on_c, 4, 54, 0
6, 230280, Note_on_c, 4, 50, 105
6, 230400, Note_on_c, 4, 50, 0
6, 230400, Note_on_c, 4, 59, 105
6, 230400, Note_on_c, 4, 62, 105
6, 230400, Note_on_c, 4, 67, 105
6, 230400, Note_on_c, 4, 43, 105
6, 230400, Note_on_c, 4, 55, 105
6, 230880, Note_on_c, 4, 55, 0
6, 230880, Note_on_c, 4, 67, 0
6, 230880, Note_on_c, 4, 59, 0
6, 230880, Note_on_c, 4, 62, 0
6, 230880, Note_on_c, 4, 43, 0
6, 268800, Note_on_c, 4, 69, 105
6, 268800, Note_on_c, 4, 45, 105
6, 268800, Note_on_c, 4, 57, 105
6, 268920, Note_on_c, 4, 69, 0
6, 268920, Note_on_c, 4, 72, 105
6, 269040, Note_on_c, 4, 72, 0
6, 269040, Note_on_c, 4, 76, 105
6, 269160, Note_on_c, 4, 76, 0
6, 269160, Note_on_c, 4, 81, 105
6, 269280, Note_on_c, 4, 81, 0
6, 269280, Note_on_c, 4, 57, 0
6, 269280, Note_on_c, 4, 45, 0
6, 269280, Note_on_c, 4, 60, 70
6, 269400, Note_on_c, 4, 72, 70
6, 269520, Note_on_c, 4, 72, 0
6, 269520, Note_on_c, 4, 84, 70
6, 269640, Note_on_c, 4, 84, 0
6, 269640, Note_on_c, 4, 72, 70
6, 269760, Note_on_c, 4, 72, 0
6, 269760, Note_on_c, 4, 60, 0
6, 269760, Note_on_c, 4, 59, 70
6, 269880, Note_on_c, 4, 71, 70
6, 270000, Note_on_c, 4, 71, 0
6, 270000, Note_on_c, 4, 83, 70
6, 270120, Note_on_c, 4, 83, 0
6, 270120, Note_on_c, 4, 71, 70
6, 270240, Note_on_c, 4, 71, 0
6, 270240, Note_on_c, 4, 59, 0
6, 270240, Note_on_c, 4, 57, 70
6, 270360, Note_on_c, 4, 69, 70
6, 270480, Note_on_c, 4, 69, 0
6, 270480, Note_on_c, 4, 81, 70
6, 270600, Note_on_c, 4, 81, 0
6, 270600, Note_on_c, 4, 69, 70
6, 270720, Note_on_c, 4, 69, 0
6, 270720, Note_on_c, 4, 57, 0
6, 270720, Note_on_c, 4, 44, 105
6, 270720, Note_on_c, 4, 56, 105
6, 270840, Note_on_c, 4, 68, 105
6, 270960, Note_on_c, 4, 68, 0
6, 270960, Note_on_c, 4, 80, 105
6, 271080, Note_on_c, 4, 80, 0
6, 271080, Note_on_c, 4, 68, 105
6, 271200, Note_on_c, 4, 68, 0
6, 271200, Note_on_c, 4, 56, 0
6, 271200, Note_on_c, 4, 44, 0
6, 271200, Note_on_c, 4, 45, 70
6, 271200, Note_on_c, 4, 57, 70
6, 271320, Note_on_c, 4, 69, 70
6, 271440, Note_on_c, 4, 69, 0
6, 271440, Note_on_c, 4, 81, 70
6, 271560, Note_on_c, 4, 81, 0
6, 271560, Note_on_c, 4, 69, 70
6, 271680, Note_on_c, 4, 69, 0
6, 271680, Note_on_c, 4, 57, 0
6, 271680, Note_on_c, 4, 45, 0
6, 271680, Note_on_c, 4, 43, 70
6, 271680, Note_on_c, 4, 55, 70
6, 271800, Note_on_c, 4, 67, 70
6, 271920, Note_on_c, 4, 67, 0
6, 271920, Note_on_c, 4, 79, 70
6, 272040, Note_on_c, 4, 79, 0
6, 272040, Note_on_c, 4, 67, 70
6, 272160, Note_on_c, 4, 67, 0
6, 272160, Note_on_c, 4, 55, 0
6, 272160, Note_on_c, 4, 43, 0
6, 272160, Note_on_c, 4, 41, 70
6, 272160, Note_on_c, 4, 53, 70
6, 272280, Note_on_c, 4, 65, 70
6, 272400, Note_on_c, 4, 65, 0
6, 272400, Note_on_c, 4, 77, 70
6, 272520, Note_on_c, 4, 77, 0
6, 272520, Note_on_c, 4, 65, 70
6, 272640, Note_on_c, 4, 65, 0
6, 272640, Note_on_c, 4, 53, 0
6, 272640, Note_on_c, 4, 41, 0
6, 272640, Note_on_c, 4, 40, 105
6, 272640, Note_on_c, 4, 52, 105
6, 272760, Note_on_c, 4, 64, 105
6, 272880, Note_on_c, 4, 64, 0
6, 272880, Note_on_c, 4, 76, 105
6, 273000, Note_on_c, 4, 76, 0
6, 273000, Note_on_c, 4, 64, 105
6, 273120, Note_on_c, 4, 64, 0
6, 273120, Note_on_c, 4, 52, 0
6, 273120, Note_on_c, 4, 40, 0
6, 273120, Note_on_c, 4, 53, 70
6, 273240, Note_on_c, 4, 65, 70
6, 273360, Note_on_c, 4, 65, 0
6, 273360, Note_on_c, 4, 77, 70
6, 273480, Note_on_c, 4, 77, 0
6, 273480, Note_on_c, 4, 65, 70
6, 273600, Note_on_c, 4, 65, 0
6, 273600, Note_on_c, 4, 53, 0
6, 273600, Note_on_c, 4, 52, 70
6, 273720, Note_on_c, 4, 64, 70
6, 273840, Note_on_c, 4, 64, 0
6, 273840, Note_on_c, 4, 76, 70
6, 273960, Note_on_c, 4, 76, 0
6, 273960, Note_on_c, 4, 64, 70
6, 274080, Note_on_c, 4, 64, 0
6, 274080, Note_on_c, 4, 52, 0
6, 274080, Note_on_c, 4, 50, 70
6, 274200, Note_on_c, 4, 62, 70
6, 274320, Note_on_c, 4, 62, 0
6, 274320, Note_on_c, 4, 74, 70
6, 274440, Note_on_c, 4, 74, 0
6, 274440, Note_on_c, 4, 62, 70
6, 274560, Note_on_c, 4, 62, 0
6, 274560, Note_on_c, 4, 50, 0
6, 274560, Note_on_c, 4, 61, 105
6, 274560, Note_on_c, 4, 73, 105
6, 274560, Note_on_c, 4, 37, 105
6, 274560, Note_on_c, 4, 49, 105
6, 275040, Note_on_c, 4, 49, 0
6, 275040, Note_on_c, 4, 61, 0
6, 275040, Note_on_c, 4, 73, 0
6, 275040, Note_on_c, 4, 37, 0
6, 288000, Note_on_c, 4, 74, 70
6, 288000, Note_on_c, 4, 62, 70
6, 288120, Note_on_c, 4, 62, 0
6, 288120, Note_on_c, 4, 65, 70
6, 288240, Note_on_c, 4, 65, 0
6, 288240, Note_on_c, 4, 74, 0
6, 288240, Note_on_c, 4, 77, 70
6, 288240, Note_on_c, 4, 69, 70
6, 288336, Note_on_c, 4, 77, 0
6, 288360, Note_on_c, 4, 69, 0
6, 288360, Note_on_c, 4, 65, 70
6, 288480, Note_on_c, 4, 65, 0
6, 288480, Note_on_c, 4, 77, 70
6, 288480, Note_on_c, 4, 62, 70
6, 288576, Note_on_c, 4, 77, 0
6, 288600, Note_on_c, 4, 62, 0
6, 288600, Note_on_c, 4, 65, 70
6, 288720, Note_on_c, 4, 65, 0
6, 288720, Note_on_c, 4, 77, 70
6, 288720, Note_on_c, 4, 69, 70
6, 288816, Note_on_c, 4, 77, 0
6, 288840, Note_on_c, 4, 69, 0
6, 288840, Note_on_c, 4, 65, 70
6, 288960, Note_on_c, 4, 65, 0
6, 288960, Note_on_c, 4, 79, 70
6, 288960, Note_on_c, 4, 62, 70
6, 289080, Note_on_c, 4, 62, 0
6, 289080, Note_on_c, 4, 79, 0
6, 289080, Note_on_c, 4, 77, 70
6, 289080, Note_on_c, 4, 65, 70
6, 289200, Note_on_c, 4, 65, 0
6, 289200, Note_on_c, 4, 77, 0
6, 289200, Note_on_c, 4, 76, 70
6, 289200, Note_on_c, 4, 69, 70
6, 289320, Note_on_c, 4, 69, 0
6, 289320, Note_on_c, 4, 76, 0
6, 289320, Note_on_c, 4, 77, 70
6, 289320, Note_on_c, 4, 65, 70
6, 289440, Note_on_c, 4, 65, 0
6, 289440, Note_on_c, 4, 77, 0
6, 289440, Note_on_c, 4, 79, 70
6, 289440, Note_on_c, 4, 62, 70
6, 289560, Note_on_c, 4, 62, 0
6, 289560, Note_on_c, 4, 79, 0
6, 289560, Note_on_c, 4, 77, 70
6, 289560, Note_on_c, 4, 65, 70
6, 289680, Note_on_c, 4, 65, 0
6, 289680, Note_on_c, 4, 77, 0
6, 289680, Note_on_c, 4, 76, 70
6, 289680, Note_on_c, 4, 69, 70
6, 289800, Note_on_c, 4, 69, 0
6, 289800, Note_on_c, 4, 76, 0
6, 289800, Note_on_c, 4, 77, 70
6, 289800, Note_on_c, 4, 65, 70
6, 289920, Note_on_c, 4, 65, 0
6, 289920, Note_on_c, 4, 77, 0
6, 289920, Note_on_c, 4, 76, 70
6, 289920, Note_on_c, 4, 62, 70
6, 290016, Note_on_c, 4, 76, 0
6, 290040, Note_on_c, 4, 62, 0
6, 290040, Note_on_c, 4, 67, 70
6, 290160, Note_on_c, 4, 67, 0
6, 290160, Note_on_c, 4, 76, 70
6, 290160, Note_on_c, 4, 70, 70
6, 290256, Note_on_c, 4, 76, 0
6, 290280, Note_on_c, 4, 70, 0
6, 290280, Note_on_c, 4, 67, 70
6, 290400, Note_on_c, 4, 67, 0
6, 290400, Note_on_c, 4, 76, 70
6, 290400, Note_on_c, 4, 62, 70
6, 290496, Note_on_c, 4, 76, 0
6, 290520, Note_on_c, 4, 62, 0
6, 290520, Note_on_c, 4, 67, 70
6, 290640, Note_on_c, 4, 67, 0
6, 290640, Note_on_c, 4, 76, 70
6, 290640, Note_on_c, 4, 70, 70
6, 290736, Note_on_c, 4, 76, 0
6, 290760, Note_on_c, 4, 70, 0
6, 290760, Note_on_c, 4, 67, 68
6, 290880, Note_on_c, 4, 67, 0
6, 290880, Note_on_c, 4, 76, 72
6, 290880, Note_on_c, 4, 61, 72
6, 291000, Note_on_c, 4, 61, 0
6, 291000, Note_on_c, 4, 76, 0
6, 291000, Note_on_c, 4, 77, 76
6, 291000, Note_on_c, 4, 67, 76
6, 291120, Note_on_c, 4, 67, 0
6, 291120, Note_on_c, 4, 77, 0
6, 291120, Note_on_c, 4, 79, 79
6, 291120, Note_on_c, 4, 70, 79
6, 291240, Note_on_c, 4, 70, 0
6, 291240, Note_on_c, 4, 79, 0
6, 291240, Note_on_c, 4, 77, 83
6, 291240, Note_on_c, 4, 67, 83
6, 291360, Note_on_c, 4, 67, 0
6, 291360, Note_on_c, 4, 77, 0
6, 291360, Note_on_c, 4, 76, 87
6, 291360, Note_on_c, 4, 61, 87
6, 291480, Note_on_c, 4, 61, 0
6, 291480, Note_on_c, 4, 76, 0
6, 291480, Note_on_c, 4, 77, 91
6, 291480, Note_on_c, 4, 67, 91
6, 291600, Note_on_c, 4, 67, 0
6, 291600, Note_on_c, 4, 77, 0
6, 291600, Note_on_c, 4, 79, 95
6, 291600, Note_on_c, 4, 70, 95
6, 291720, Note_on_c, 4, 70, 0
6, 291720, Note_on_c, 4, 79, 0
6, 291720, Note_on_c, 4, 77, 99
6, 291720, Note_on_c, 4, 67, 99
6, 291840, Note_on_c, 4, 67, 0
6, 291840, Note_on_c, 4, 77, 0
6, 291840, Note_on_c, 4, 76, 105
6, 291840, Note_on_c, 4, 60, 105
6, 291960, Note_on_c, 4, 60, 0
6, 291960, Note_on_c, 4, 67, 105
6, 292080, Note_on_c, 4, 67, 0
6, 292080, Note_on_c, 4, 76, 0
6, 292080, Note_on_c, 4, 82, 105
6, 292080, Note_on_c, 4, 70, 105
6, 292176, Note_on_c, 4, 82, 0
6, 292200, Note_on_c, 4, 70, 0
6, 292200, Note_on_c, 4, 67, 105
6, 292320, Note_on_c, 4, 67, 0
6, 292320, Note_on_c, 4, 82, 105
6, 292320, Note_on_c, 4, 60, 105
6, 292416, Note_on_c, 4, 82, 0
6, 292440, Note_on_c, 4, 60, 0
6, 292440, Note_on_c, 4, 67, 105
6, 292560, Note_on_c, 4, 67, 0
6, 292560, Note_on_c, 4, 82, 105
6, 292560, Note_on_c, 4, 70, 105
6, 292656, Note_on_c, 4, 82, 0
6, 292680, Note_on_c, 4, 70, 0
6, 292680, Note_on_c, 4, 67, 105
6, 292800, Note_on_c, 4, 67, 0
6, 292800, Note_on_c, 4, 82, 105
6, 292800, Note_on_c, 4, 60, 105
6, 292920, Note_on_c, 4, 60, 0
6, 292920, Note_on_c, 4, 82, 0
6, 292920, Note_on_c, 4, 81, 105
6, 292920, Note_on_c, 4, 67, 105
6, 293040, Note_on_c, 4, 67, 0
6, 293040, Note_on_c, 4, 81, 0
6, 293040, Note_on_c, 4, 82, 105
6, 293040, Note_on_c, 4, 70, 105
6, 293160, Note_on_c, 4, 70, 0
6, 293160, Note_on_c, 4, 82, 0
6, 293160, Note_on_c, 4, 81, 105
6, 293160, Note_on_c, 4, 67, 105
6, 293280, Note_on_c, 4, 67, 0
6, 293280, Note_on_c, 4, 81, 0
6, 293280, Note_on_c, 4, 82, 105
6, 293280, Note_on_c, 4, 60, 105
6, 293400, Note_on_c, 4, 60, 0
6, 293400, Note_on_c, 4, 82, 0
6, 293400, Note_on_c, 4, 79, 105
6, 293400, Note_on_c, 4, 67, 105
6, 293520, Note_on_c, 4, 67, 0
6, 293520, Note_on_c, 4, 79, 0
6, 293520, Note_on_c, 4, 77, 105
6, 293520, Note_on_c, 4, 70, 105
6, 293640, Note_on_c, 4, 70, 0
6, 293640, Note_on_c, 4, 77, 0
6, 293640, Note_on_c, 4, 76, 105
6, 293640, Note_on_c, 4, 67, 105
6, 293760, Note_on_c, 4, 67, 0
6, 293760, Note_on_c, 4, 76, 0
6, 293760, Note_on_c, 4, 77, 105
6, 293760, Note_on_c, 4, 65, 105
6, 293880, Note_on_c, 4, 77, 0
6, 293880, Note_on_c, 4, 69, 92
6, 294000, Note_on_c, 4, 69, 0
6, 294000, Note_on_c, 4, 72, 85
6, 294120, Note_on_c, 4, 72, 0
6, 294120, Note_on_c, 4, 69, 82
6, 294240, Note_on_c, 4, 69, 0
6, 294240, Note_on_c, 4, 65, 0
6, 294240, Note_on_c, 4, 65, 79
6, 294360, Note_on_c, 4, 65, 0
6, 294360, Note_on_c, 4, 69, 77
6, 294480, Note_on_c, 4, 69, 0
6, 294480, Note_on_c, 4, 72, 77
6, 294600, Note_on_c, 4, 72, 0
6, 294600, Note_on_c, 4, 69, 77
6, 294720, Note_on_c, 4, 69, 0
6, 294720, Note_on_c, 4, 65, 77
6, 294840, Note_on_c, 4, 65, 0
6, 294840, Note_on_c, 4, 69, 77
6, 294960, Note_on_c, 4, 69, 0
6, 294960, Note_on_c, 4, 72, 77
6, 295080, Note_on_c, 4, 72, 0
6, 295080, Note_on_c, 4, 69, 77
6, 295200, Note_on_c, 4, 69, 0
6, 295200, Note_on_c, 4, 65, 77
6, 295320, Note_on_c, 4, 65, 0
6, 295320, Note_on_c, 4, 69, 77
6, 295440, Note_on_c, 4, 69, 0
6, 295440, Note_on_c, 4, 72, 77
6, 295560, Note_on_c, 4, 72, 0
6, 295560, Note_on_c, 4, 69, 77
6, 295680, Note_on_c, 4, 69, 0
6, 295680, Note_on_c, 4, 65, 77
6, 295680, Note_on_c, 4, 53, 77
6, 295800, Note_on_c, 4, 65, 0
6, 295800, Note_on_c, 4, 71, 77
6, 295920, Note_on_c, 4, 71, 0
6, 295920, Note_on_c, 4, 74, 77
6, 296040, Note_on_c, 4, 74, 0
6, 296040, Note_on_c, 4, 71, 77
6, 296160, Note_on_c, 4, 71, 0
6, 296160, Note_on_c, 4, 53, 0
6, 296160, Note_on_c, 4, 65, 77
6, 296280, Note_on_c, 4, 65, 0
6, 296280, Note_on_c, 4, 71, 78
6, 296400, Note_on_c, 4, 71, 0
6, 296400, Note_on_c, 4, 74, 81
6, 296520, Note_on_c, 4, 74, 0
6, 296520, Note_on_c, 4, 71, 83
6, 296640, Note_on_c, 4, 71, 0
6, 296640, Note_on_c, 4, 65, 86
6, 296760, Note_on_c, 4, 65, 0
6, 296760, Note_on_c, 4, 71, 89
6, 296880, Note_on_c, 4, 71, 0
6, 296880, Note_on_c, 4, 74, 92
6, 297000, Note_on_c, 4, 74, 0
6, 297000, Note_on_c, 4, 71, 94
6, 297120, Note_on_c, 4, 71, 0
6, 297120, Note_on_c, 4, 65, 97
6, 297240, Note_on_c, 4, 65, 0
6, 297240, Note_on_c, 4, 71, 100
6, 297360, Note_on_c, 4, 71, 0
6, 297360, Note_on_c, 4, 74, 102
6, 297480, Note_on_c, 4, 74, 0
6, 297480, Note_on_c, 4, 71, 105
6, 297600, Note_on_c, 4, 71, 0
6, 297600, Note_on_c, 4, 64, 105
6, 297600, Note_on_c, 4, 52, 105
6, 297720, Note_on_c, 4, 64, 0
6, 297720, Note_on_c, 4, 71, 105
6, 297840, Note_on_c, 4, 71, 0
6, 297840, Note_on_c, 4, 74, 105
6, 297960, Note_on_c, 4, 74, 0
6, 297960, Note_on_c, 4, 71, 105
6, 298080, Note_on_c, 4, 71, 0
6, 298080, Note_on_c, 4, 52, 0
6, 298080, Note_on_c, 4, 64, 105
6, 298200, Note_on_c, 4, 64, 0
6, 298200, Note_on_c, 4, 71, 105
6, 298320, Note_on_c, 4, 71, 0
6, 298320, Note_on_c, 4, 74, 105
6, 298440, Note_on_c, 4, 74, 0
6, 298440, Note_on_c, 4, 71, 105
6, 298560, Note_on_c, 4, 71, 0
6, 298560, Note_on_c, 4, 64, 105
6, 298680, Note_on_c, 4, 64, 0
6, 298680, Note_on_c, 4, 71, 105
6, 298800, Note_on_c, 4, 71, 0
6, 298800, Note_on_c, 4, 74, 105
6, 298920, Note_on_c, 4, 74, 0
6, 298920, Note_on_c, 4, 71, 105
6, 299040, Note_on_c, 4, 71, 0
6, 299040, Note_on_c, 4, 64, 105
6, 299160, Note_on_c, 4, 64, 0
6, 299160, Note_on_c, 4, 71, 105
6, 299280, Note_on_c, 4, 71, 0
6, 299280, Note_on_c, 4, 74, 105
6, 299400, Note_on_c, 4, 74, 0
6, 299400, Note_on_c, 4, 71, 105
6, 299520, Note_on_c, 4, 71, 0
6, 299520, Note_on_c, 4, 69, 105
6, 299520, Note_on_c, 4, 57, 70
6, 299640, Note_on_c, 4, 57, 0
6, 299640, Note_on_c, 4, 60, 87
6, 299760, Note_on_c, 4, 60, 0
6, 299760, Note_on_c, 4, 69, 0
6, 299760, Note_on_c, 4, 84, 83
6, 299760, Note_on_c, 4, 64, 83
6, 299880, Note_on_c, 4, 64, 0
6, 299880, Note_on_c, 4, 60, 82
6, 300000, Note_on_c, 4, 60, 0
6, 300000, Note_on_c, 4, 84, 0
6, 300000, Note_on_c, 4, 84, 77
6, 300000, Note_on_c, 4, 57, 77
6, 300120, Note_on_c, 4, 57, 0
6, 300120, Note_on_c, 4, 60, 70
6, 300240, Note_on_c, 4, 60, 0
6, 300240, Note_on_c, 4, 84, 0
6, 300240, Note_on_c, 4, 84, 70
6, 300240, Note_on_c, 4, 64, 70
6, 300360, Note_on_c, 4, 64, 0
6, 300360, Note_on_c, 4, 60, 70
6, 300480, Note_on_c, 4, 60, 0
6, 300480, Note_on_c, 4, 84, 0
6, 300480, Note_on_c, 4, 86, 70
6, 300480, Note_on_c, 4, 57, 70
6, 300600, Note_on_c, 4, 57, 0
6, 300600, Note_on_c, 4, 86, 0
6, 300600, Note_on_c, 4, 84, 70
6, 300600, Note_on_c, 4, 60, 70
6, 300720, Note_on_c, 4, 60, 0
6, 300720, Note_on_c, 4, 84, 0
6, 300720, Note_on_c, 4, 83, 70
6, 300720, Note_on_c, 4, 64, 70
6, 300840, Note_on_c, 4, 64, 0
6, 300840, Note_on_c, 4, 83, 0
6, 300840, Note_on_c, 4, 84, 70
6, 300840, Note_on_c, 4, 60, 70
6, 300960, Note_on_c, 4, 60, 0
6, 300960, Note_on_c, 4, 84, 0
6, 300960, Note_on_c, 4, 86, 70
6, 300960, Note_on_c, 4, 57, 70
6, 301080, Note_on_c, 4, 57, 0
6, 301080, Note_on_c, 4, 86, 0
6, 301080, Note_on_c, 4, 84, 70
6, 301080, Note_on_c, 4, 60, 70
6, 301200, Note_on_c, 4, 60, 0
6, 301200, Note_on_c, 4, 84, 0
6, 301200, Note_on_c, 4, 83, 70
6, 301200, Note_on_c, 4, 64, 70
6, 301320, Note_on_c, 4, 64, 0
6, 301320, Note_on_c, 4, 83, 0
6, 301320, Note_on_c, 4, 84, 70
6, 301320, Note_on_c, 4, 60, 70
6, 301440, Note_on_c, 4, 60, 0
6, 301440, Note_on_c, 4, 84, 0
6, 301440, Note_on_c, 4, 83, 70
6, 301440, Note_on_c, 4, 57, 70
6, 301560, Note_on_c, 4, 57, 0
6, 301560, Note_on_c, 4, 62, 74
6, 301680, Note_on_c, 4, 62, 0
6, 301680, Note_on_c, 4, 83, 0
6, 301680, Note_on_c, 4, 83, 76
6, 301680, Note_on_c, 4, 65, 76
6, 301800, Note_on_c, 4, 65, 0
6, 301800, Note_on_c, 4, 62, 78
6, 301920, Note_on_c, 4, 62, 0
6, 301920, Note_on_c, 4, 83, 0
6, 301920, Note_on_c, 4, 83, 80
6, 301920, Note_on_c, 4, 57, 80
6, 302040, Note_on_c, 4, 57, 0
6, 302040, Note_on_c, 4, 62, 82
6, 302160, Note_on_c, 4, 62, 0
6, 302160, Note_on_c, 4, 83, 0
6, 302160, Note_on_c, 4, 83, 84
6, 302160, Note_on_c, 4, 65, 84
6, 302280, Note_on_c, 4, 65, 0
6, 302280, Note_on_c, 4, 62, 86
6, 302400, Note_on_c, 4, 62, 0
6, 302400, Note_on_c, 4, 83, 0
6, 302400, Note_on_c, 4, 83, 88
6, 302400, Note_on_c, 4, 56, 88
6, 302520, Note_on_c, 4, 56, 0
6, 302520, Note_on_c, 4, 83, 0
6, 302520, Note_on_c, 4, 84, 89
6, 302520, Note_on_c, 4, 62, 89
6, 302640, Note_on_c, 4, 62, 0
6, 302640, Note_on_c, 4, 84, 0
6, 302640, Note_on_c, 4, 86, 91
6, 302640, Note_on_c, 4, 65, 91
6, 302760, Note_on_c, 4, 65, 0
6, 302760, Note_on_c, 4, 86, 0
6, 302760, Note_on_c, 4, 84, 93
6, 302760, Note_on_c, 4, 62, 93
6, 302880, Note_on_c, 4, 62, 0
6, 302880, Note_on_c, 4, 84, 0
6, 302880, Note_on_c, 4, 83, 95
6, 302880, Note_on_c, 4, 56, 95
6, 303000, Note_on_c, 4, 56, 0
6, 303000, Note_on_c, 4, 83, 0
6, 303000, Note_on_c, 4, 84, 97
6, 303000, Note_on_c, 4, 62, 97
6, 303120, Note_on_c, 4, 62, 0
6, 303120, Note_on_c, 4, 84, 0
6, 303120, Note_on_c, 4, 86, 99
6, 303120, Note_on_c, 4, 65, 99
6, 303240, Note_on_c, 4, 65, 0
6, 303240, Note_on_c, 4, 86, 0
6, 303240, Note_on_c, 4, 84, 101
6, 303240, Note_on_c, 4, 62, 101
6, 303360, Note_on_c, 4, 62, 0
6, 303360, Note_on_c, 4, 84, 0
6, 303360, Note_on_c, 4, 83, 105
6, 303360, Note_on_c, 4, 55, 105
6, 303480, Note_on_c, 4, 55, 0
6, 303480, Note_on_c, 4, 62, 105
6, 303600, Note_on_c, 4, 62, 0
6, 303600, Note_on_c, 4, 83, 0
6, 303600, Note_on_c, 4, 89, 105
6, 303600, Note_on_c, 4, 65, 105
6, 303696, Note_on_c, 4, 89, 0
6, 303720, Note_on_c, 4, 65, 0
6, 303720, Note_on_c, 4, 62, 105
6, 303840, Note_on_c, 4, 62, 0
6, 303840, Note_on_c, 4, 89, 105
6, 303840, Note_on_c, 4, 55, 105
6, 303936, Note_on_c, 4, 89, 0
6, 303960, Note_on_c, 4, 55, 0
6, 303960, Note_on_c, 4, 62, 105
6, 304080, Note_on_c, 4, 62, 0
6, 304080, Note_on_c, 4, 89, 105
6, 304080, Note_on_c, 4, 65, 105
6, 304176, Note_on_c, 4, 89, 0
6, 304200, Note_on_c, 4, 65, 0
6, 304200, Note_on_c, 4, 62, 105
6, 304320, Note_on_c, 4, 62, 0
6, 304320, Note_on_c, 4, 89, 105
6, 304320, Note_on_c, 4, 55, 105
6, 304440, Note_on_c, 4, 55, 0
6, 304440, Note_on_c, 4, 89, 0
6, 304440, Note_on_c, 4, 88, 105
6, 304440, Note_on_c, 4, 62, 105
6, 304560, Note_on_c, 4, 62, 0
6, 304560, Note_on_c, 4, 88, 0
6, 304560, Note_on_c, 4, 89, 105
6, 304560, Note_on_c, 4, 65, 105
6, 304680, Note_on_c, 4, 65, 0
6, 304680, Note_on_c, 4, 89, 0
6, 304680, Note_on_c, 4, 88, 105
6, 304680, Note_on_c, 4, 62, 105
6, 304800, Note_on_c, 4, 62, 0
6, 304800, Note_on_c, 4, 88, 0
6, 304800, Note_on_c, 4, 89, 105
6, 304800, Note_on_c, 4, 55, 105
6, 304920, Note_on_c, 4, 55, 0
6, 304920, Note_on_c, 4, 89, 0
6, 304920, Note_on_c, 4, 86, 105
6, 304920, Note_on_c, 4, 62, 105
6, 305040, Note_on_c, 4, 62, 0
6, 305040, Note_on_c, 4, 86, 0
6, 305040, Note_on_c, 4, 84, 105
6, 305040, Note_on_c, 4, 65, 105
6, 305160, Note_on_c, 4, 65, 0
6, 305160, Note_on_c, 4, 84, 0
6, 305160, Note_on_c, 4, 83, 105
6, 305160, Note_on_c, 4, 62, 105
6, 305280, Note_on_c, 4, 62, 0
6, 305280, Note_on_c, 4, 83, 0
6, 305280, Note_on_c, 4, 84, 105
6, 305280, Note_on_c, 4, 55, 70
6, 305400, Note_on_c, 4, 55, 0
6, 305400, Note_on_c, 4, 60, 84
6, 305520, Note_on_c, 4, 60, 0
6, 305520, Note_on_c, 4, 84, 0
6, 305520, Note_on_c, 4, 79, 74
6, 305520, Note_on_c, 4, 63, 74
6, 305640, Note_on_c, 4, 63, 0
6, 305640, Note_on_c, 4, 60, 69
6, 305760, Note_on_c, 4, 60, 0
6, 305760, Note_on_c, 4, 79, 0
6, 305760, Note_on_c, 4, 79, 70
6, 305760, Note_on_c, 4, 55, 70
6, 305880, Note_on_c, 4, 55, 0
6, 305880, Note_on_c, 4, 60, 70
6, 306000, Note_on_c, 4, 60, 0
6, 306000, Note_on_c, 4, 79, 0
6, 306000, Note_on_c, 4, 79, 70
6, 306000, Note_on_c, 4, 63, 70
6, 306120, Note_on_c, 4, 63, 0
6, 306120, Note_on_c, 4, 60, 70
6, 306240, Note_on_c, 4, 60, 0
6, 306240, Note_on_c, 4, 79, 0
6, 306240, Note_on_c, 4, 78, 70
6, 306240, Note_on_c, 4, 55, 70
6, 306360, Note_on_c, 4, 55, 0
6, 306360, Note_on_c, 4, 78, 0
6, 306360, Note_on_c, 4, 79, 70
6, 306360, Note_on_c, 4, 60, 70
6, 306480, Note_on_c, 4, 60, 0
6, 306480, Note_on_c, 4, 79, 0
6, 306480, Note_on_c, 4, 78, 70
6, 306480, Note_on_c, 4, 63, 70
6, 306600, Note_on_c, 4, 63, 0
6, 306600, Note_on_c, 4, 78, 0
6, 306600, Note_on_c, 4, 79, 70
6, 306600, Note_on_c, 4, 60, 70
6, 306720, Note_on_c, 4, 60, 0
6, 306720, Note_on_c, 4, 79, 0
6, 306720, Note_on_c, 4, 77, 70
6, 306720, Note_on_c, 4, 55, 70
6, 306840, Note_on_c, 4, 55, 0
6, 306840, Note_on_c, 4, 77, 0
6, 306840, Note_on_c, 4, 75, 70
6, 306840, Note_on_c, 4, 60, 70
6, 306960, Note_on_c, 4, 60, 0
6, 306960, Note_on_c, 4, 75, 0
6, 306960, Note_on_c, 4, 74, 72
6, 306960, Note_on_c, 4, 63, 72
6, 307080, Note_on_c, 4, 63, 0
6, 307080, Note_on_c, 4, 74, 0
6, 307080, Note_on_c, 4, 72, 75
6, 307080, Note_on_c, 4, 60, 75
6, 307200, Note_on_c, 4, 60, 0
6, 307200, Note_on_c, 4, 72, 0
6, 307200, Note_on_c, 4, 71, 70
6, 307200, Note_on_c, 4, 55, 105
6, 307320, Note_on_c, 4, 55, 0
6, 307320, Note_on_c, 4, 62, 105
6, 307440, Note_on_c, 4, 62, 0
6, 307440, Note_on_c, 4, 71, 0
6, 307440, Note_on_c, 4, 89, 105
6, 307440, Note_on_c, 4, 65, 105
6, 307536, Note_on_c, 4, 89, 0
6, 307560, Note_on_c, 4, 65, 0
6, 307560, Note_on_c, 4, 62, 105
6, 307680, Note_on_c, 4, 62, 0
6, 307680, Note_on_c, 4, 89, 105
6, 307680, Note_on_c, 4, 55, 105
6, 307776, Note_on_c, 4, 89, 0
6, 307800, Note_on_c, 4, 55, 0
6, 307800, Note_on_c, 4, 62, 105
6, 307920, Note_on_c, 4, 62, 0
6, 307920, Note_on_c, 4, 89, 105
6, 307920, Note_on_c, 4, 65, 105
6, 308016, Note_on_c, 4, 89, 0
6, 308040, Note_on_c, 4, 65, 0
6, 308040, Note_on_c, 4, 62, 105
6, 308160, Note_on_c, 4, 62, 0
6, 308160, Note_on_c, 4, 89, 105
6, 308160, Note_on_c, 4, 55, 105
6, 308280, Note_on_c, 4, 55, 0
6, 308280, Note_on_c, 4, 89, 0
6, 308280, Note_on_c, 4, 88, 105
6, 308280, Note_on_c, 4, 62, 105
6, 308400, Note_on_c, 4, 62, 0
6, 308400, Note_on_c, 4, 88, 0
6, 308400, Note_on_c, 4, 89, 105
6, 308400, Note_on_c, 4, 65, 105
6, 308520, Note_on_c, 4, 65, 0
6, 308520, Note_on_c, 4, 89, 0
6, 308520, Note_on_c, 4, 88, 105
6, 308520, Note_on_c, 4, 62, 105
6, 308640, Note_on_c, 4, 62, 0
6, 308640, Note_on_c, 4, 88, 0
6, 308640, Note_on_c, 4, 89, 105
6, 308640, Note_on_c, 4, 55, 105
6, 308760, Note_on_c, 4, 55, 0
6, 308760, Note_on_c, 4, 89, 0
6, 308760, Note_on_c, 4, 86, 105
6, 308760, Note_on_c, 4, 62, 105
6, 308880, Note_on_c, 4, 62, 0
6, 308880, Note_on_c, 4, 86, 0
6, 308880, Note_on_c, 4, 84, 105
6, 308880, Note_on_c, 4, 65, 105
6, 309000, Note_on_c, 4, 65, 0
6, 309000, Note_on_c, 4, 84, 0
6, 309000, Note_on_c, 4, 83, 105
6, 309000, Note_on_c, 4, 62, 105
6, 309120, Note_on_c, 4, 62, 0
6, 309120, Note_on_c, 4, 83, 0
6, 309120, Note_on_c, 4, 84, 105
6, 309120, Note_on_c, 4, 55, 70
6, 309240, Note_on_c, 4, 55, 0
6, 309240, Note_on_c, 4, 60, 89
6, 309360, Note_on_c, 4, 60, 0
6, 309360, Note_on_c, 4, 84, 0
6, 309360, Note_on_c, 4, 79, 88
6, 309360, Note_on_c, 4, 63, 88
6, 309456, Note_on_c, 4, 79, 0
6, 309480, Note_on_c, 4, 63, 0
6, 309480, Note_on_c, 4, 60, 86
6, 309600, Note_on_c, 4, 60, 0
6, 309600, Note_on_c, 4, 79, 84
6, 309600, Note_on_c, 4, 55, 84
6, 309696, Note_on_c, 4, 79, 0
6, 309720, Note_on_c, 4, 55, 0
6, 309720, Note_on_c, 4, 60, 81
6, 309840, Note_on_c, 4, 60, 0
6, 309840, Note_on_c, 4, 79, 81
6, 309840, Note_on_c, 4, 63, 81
6, 309936, Note_on_c, 4, 79, 0
6, 309960, Note_on_c, 4, 63, 0
6, 309960, Note_on_c, 4, 60, 81
6, 310080, Note_on_c, 4, 60, 0
6, 310080, Note_on_c, 4, 78, 81
6, 310080, Note_on_c, 4, 55, 81
6, 310200, Note_on_c, 4, 55, 0
6, 310200, Note_on_c, 4, 78, 0
6, 310200, Note_on_c, 4, 79, 81
6, 310200, Note_on_c, 4, 60, 81
6, 310320, Note_on_c, 4, 60, 0
6, 310320, Note_on_c, 4, 79, 0
6, 310320, Note_on_c, 4, 78, 81
6, 310320, Note_on_c, 4, 63, 81
6, 310440, Note_on_c, 4, 63, 0
6, 310440, Note_on_c, 4, 78, 0
6, 310440, Note_on_c, 4, 79, 81
6, 310440, Note_on_c, 4, 60, 81
6, 310560, Note_on_c, 4, 60, 0
6, 310560, Note_on_c, 4, 79, 0
6, 310560, Note_on_c, 4, 77, 81
6, 310560, Note_on_c, 4, 55, 81
6, 310680, Note_on_c, 4, 55, 0
6, 310680, Note_on_c, 4, 77, 0
6, 310680, Note_on_c, 4, 75, 81
6, 310680, Note_on_c, 4, 60, 81
6, 310800, Note_on_c, 4, 60, 0
6, 310800, Note_on_c, 4, 75, 0
6, 310800, Note_on_c, 4, 74, 79
6, 310800, Note_on_c, 4, 63, 79
6, 310920, Note_on_c, 4, 63, 0
6, 310920, Note_on_c, 4, 74, 0
6, 310920, Note_on_c, 4, 72, 79
6, 310920, Note_on_c, 4, 60, 79
6, 311040, Note_on_c, 4, 60, 0
6, 311040, Note_on_c, 4, 72, 0
6, 311040, Note_on_c, 4, 71, 79
6, 311040, Note_on_c, 4, 55, 79
6, 311280, Note_on_c, 4, 55, 0
6, 311280, Note_on_c, 4, 47, 77
6, 311520, Note_on_c, 4, 47, 0
6, 311520, Note_on_c, 4, 71, 0
6, 311520, Note_on_c, 4, 48, 77
6, 311760, Note_on_c, 4, 48, 0
6, 311760, Note_on_c, 4, 50, 76
6, 312000, Note_on_c, 4, 50, 0
6, 312000, Note_on_c, 4, 51, 74
6, 312240, Note_on_c, 4, 51, 0
6, 312240, Note_on_c, 4, 52, 78
6, 312480, Note_on_c, 4, 52, 0
6, 312480, Note_on_c, 4, 53, 80
6, 312720, Note_on_c, 4, 53, 0
6, 312720, Note_on_c, 4, 54, 82
6, 312960, Note_on_c, 4, 54, 0
6, 312960, Note_on_c, 4, 55, 83
6, 313200, Note_on_c, 4, 59, 78
6, 313440, Note_on_c, 4, 59, 0
6, 313440, Note_on_c, 4, 55, 0
6, 313440, Note_on_c, 4, 60, 79
6, 313680, Note_on_c, 4, 60, 0
6, 313680, Note_on_c, 4, 62, 80
6, 313920, Note_on_c, 4, 62, 0
6, 313920, Note_on_c, 4, 63, 81
6, 314160, Note_on_c, 4, 63, 0
6, 314160, Note_on_c, 4, 64, 83
6, 314400, Note_on_c, 4, 64, 0
6, 314400, Note_on_c, 4, 65, 84
6, 314640, Note_on_c, 4, 65, 0
6, 314640, Note_on_c, 4, 66, 85
6, 314880, Note_on_c, 4, 66, 0
6, 314880, Note_on_c, 4, 67, 86
6, 315360, Note_on_c, 4, 67, 0
6, 315840, Note_on_c, 4, 54, 104
6, 315900, Note_on_c, 4, 54, 0
6, 315900, Note_on_c, 4, 57, 106
6, 315960, Note_on_c, 4, 57, 0
6, 315960, Note_on_c, 4, 60, 108
6, 316020, Note_on_c, 4, 60, 0
6, 316020, Note_on_c, 4, 63, 110
6, 316080, Note_on_c, 4, 63, 0
6, 316080, Note_on_c, 4, 72, 112
6, 316140, Note_on_c, 4, 72, 0
6, 316140, Note_on_c, 4, 75, 114
6, 316200, Note_on_c, 4, 75, 0
6, 316200, Note_on_c, 4, 78, 116
6, 316260, Note_on_c, 4, 78, 0
6, 316260, Note_on_c, 4, 81, 118
6, 316320, Note_on_c, 4, 81, 0
6, 316320, Note_on_c, 4, 84, 121
6, 316560, Note_on_c, 4, 84, 0
6, 316560, Note_on_c, 4, 72, 70
6, 316800, Note_on_c, 4, 72, 0
6, 316800, Note_on_c, 4, 71, 70
6, 316800, Note_on_c, 4, 55, 70
6, 317280, Note_on_c, 4, 55, 0
6, 317280, Note_on_c, 4, 71, 0
6, 317760, Note_on_c, 4, 54, 100
6, 317820, Note_on_c, 4, 54, 0
6, 317820, Note_on_c, 4, 57, 102
6, 317880, Note_on_c, 4, 57, 0
6, 317880, Note_on_c, 4, 60, 105
6, 317940, Note_on_c, 4, 60, 0
6, 317940, Note_on_c, 4, 63, 108
6, 318000, Note_on_c, 4, 63, 0
6, 318000, Note_on_c, 4, 72, 110
6, 318060, Note_on_c, 4, 72, 0
6, 318060, Note_on_c, 4, 75, 113
6, 318120, Note_on_c, 4, 75, 0
6, 318120, Note_on_c, 4, 78, 116
6, 318180, Note_on_c, 4, 78, 0
6, 318180, Note_on_c, 4, 81, 118
6, 318240, Note_on_c, 4, 81, 0
6, 318240, Note_on_c, 4, 84, 121
6, 318480, Note_on_c, 4, 84, 0
6, 318480, Note_on_c, 4, 72, 70
6, 318720, Note_on_c, 4, 72, 0
6, 318720, Note_on_c, 4, 71, 70
6, 318720, Note_on_c, 4, 74, 70
6, 318960, Note_on_c, 4, 74, 0
6, 318960, Note_on_c, 4, 71, 0
6, 318960, Note_on_c, 4, 59, 70
6, 318960, Note_on_c, 4, 62, 70
6, 318960, Note_on_c, 4, 55, 70
6, 319200, Note_on_c, 4, 55, 0
6, 319200, Note_on_c, 4, 62, 0
6, 319200, Note_on_c, 4, 59, 0
6, 319200, Note_on_c, 4, 43, 70
6, 319440, Note_on_c, 4, 43, 0
6, 319440, Note_on_c, 4, 71, 70
6, 319440, Note_on_c, 4, 74, 70
6, 319680, Note_on_c, 4, 74, 0
6, 319680, Note_on_c, 4, 71, 0
6, 319680, Note_on_c, 4, 72, 70
6, 319680, Note_on_c, 4, 76, 70
6, 319920, Note_on_c, 4, 76, 0
6, 319920, Note_on_c, 4, 72, 0
6, 319920, Note_on_c, 4, 60, 70
6, 319920, Note_on_c, 4, 64, 70
6, 319920, Note_on_c, 4, 55, 70
6, 320160, Note_on_c, 4, 55, 0
6, 320160, Note_on_c, 4, 64, 0
6, 320160, Note_on_c, 4, 60, 0
6, 320160, Note_on_c, 4, 43, 70
6, 320400, Note_on_c, 4, 43, 0
6, 320400, Note_on_c, 4, 72, 70
6, 320400, Note_on_c, 4, 76, 70
6, 320640, Note_on_c, 4, 76, 0
6, 320640, Note_on_c, 4, 72, 0
6, 320640, Note_on_c, 4, 74, 72
6, 320640, Note_on_c, 4, 77, 72
6, 320880, Note_on_c, 4, 77, 0
6, 320880, Note_on_c, 4, 74, 0
6, 320880, Note_on_c, 4, 62, 75
6, 320880, Note_on_c, 4, 65, 75
6, 320880, Note_on_c, 4, 55, 75
6, 321120, Note_on_c, 4, 55, 0
6, 321120, Note_on_c, 4, 65, 0
6, 321120, Note_on_c, 4, 62, 0
6, 321120, Note_on_c, 4, 43, 78
6, 321360, Note_on_c, 4, 43, 0
6, 321360, Note_on_c, 4, 74, 80
6, 321360, Note_on_c, 4, 77, 80
6, 321600, Note_on_c, 4, 77, 0
6, 321600, Note_on_c, 4, 74, 0
6, 321600, Note_on_c, 4, 76, 83
6, 321600, Note_on_c, 4, 79, 83
6, 321840, Note_on_c, 4, 79, 0
6, 321840, Note_on_c, 4, 76, 0
6, 321840, Note_on_c, 4, 64, 86
6, 321840, Note_on_c, 4, 67, 86
6, 321840, Note_on_c, 4, 55, 86
6, 322080, Note_on_c, 4, 55, 0
6, 322080, Note_on_c, 4, 67, 0
6, 322080, Note_on_c, 4, 64, 0
6, 322080, Note_on_c, 4, 43, 88
6, 322320, Note_on_c, 4, 43, 0
6, 322320, Note_on_c, 4, 76, 91
6, 322320, Note_on_c, 4, 79, 91
6, 322560, Note_on_c, 4, 79, 0
6, 322560, Note_on_c, 4, 76, 0
6, 322560, Note_on_c, 4, 77, 93
6, 322560, Note_on_c, 4, 81, 93
6, 322800, Note_on_c, 4, 81, 0
6, 322800, Note_on_c, 4, 77, 0
6, 322800, Note_on_c, 4, 65, 96
6, 322800, Note_on_c, 4, 69, 96
6, 322800, Note_on_c, 4, 55, 96
6, 323040, Note_on_c, 4, 55, 0
6, 323040, Note_on_c, 4, 69, 0
6, 323040, Note_on_c, 4, 65, 0
6, 323040, Note_on_c, 4, 43, 99
6, 323280, Note_on_c, 4, 43, 0
6, 323280, Note_on_c, 4, 77, 101
6, 323280, Note_on_c, 4, 81, 101
6, 323520, Note_on_c, 4, 81, 0
6, 323520, Note_on_c, 4, 77, 0
6, 323520, Note_on_c, 4, 74, 104
6, 323520, Note_on_c, 4, 77, 104
6, 323520, Note_on_c, 4, 83, 104
6, 323760, Note_on_c, 4, 83, 0
6, 323760, Note_on_c, 4, 77, 0
6, 323760, Note_on_c, 4, 74, 0
6, 323760, Note_on_c, 4, 62, 106
6, 323760, Note_on_c, 4, 65, 106
6, 323760, Note_on_c, 4, 71, 106
6, 323760, Note_on_c, 4, 55, 106
6, 324000, Note_on_c, 4, 55, 0
6, 324000, Note_on_c, 4, 62, 0
6, 324000, Note_on_c, 4, 65, 0
6, 324000, Note_on_c, 4, 71, 0
6, 324000, Note_on_c, 4, 43, 109
6, 324240, Note_on_c, 4, 43, 0
6, 324240, Note_on_c, 4, 74, 112
6, 324240, Note_on_c, 4, 77, 112
6, 324240, Note_on_c, 4, 83, 112
6, 324359, Note_on_c, 4, 74, 0
6, 324364, Note_on_c, 4, 77, 0
6, 324379, Note_on_c, 4, 83, 0
6, 324388, Note_on_c, 4, 72, 113
6, 324388, Note_on_c, 4, 48, 113
6, 324420, Note_on_c, 4, 76, 114
6, 324420, Note_on_c, 4, 52, 114
6, 324448, Note_on_c, 4, 79, 114
6, 324448, Note_on_c, 4, 55, 114
6, 324480, Note_on_c, 4, 84, 114
6, 324480, Note_on_c, 4, 60, 114
6, 324960, Note_on_c, 4, 60, 0
6, 324960, Note_on_c, 4, 72, 0
6, 324960, Note_on_c, 4, 79, 0
6, 324960, Note_on_c, 4, 48, 0
6, 324960, Note_on_c, 4, 76, 0
6, 324960, Note_on_c, 4, 52, 0
6, 324960, Note_on_c, 4, 55, 0
6, 324960, Note_on_c, 4, 84, 0
6, 336000, Note_on_c, 4, 67, 105
6, 336120, Note_on_c, 4, 67, 0
6, 336120, Note_on_c, 4, 79, 105
6, 336240, Note_on_c, 4, 79, 0
6, 336240, Note_on_c, 4, 67, 105
6, 336360, Note_on_c, 4, 67, 0
6, 336360, Note_on_c, 4, 79, 105
6, 336480, Note_on_c, 4, 79, 0
6, 336480, Note_on_c, 4, 67, 70
6, 336480, Note_on_c, 4, 60, 70
6, 336600, Note_on_c, 4, 67, 0
6, 336600, Note_on_c, 4, 79, 70
6, 336720, Note_on_c, 4, 79, 0
6, 336720, Note_on_c, 4, 60, 0
6, 336720, Note_on_c, 4, 67, 70
6, 336720, Note_on_c, 4, 64, 70
6, 336840, Note_on_c, 4, 67, 0
6, 336840, Note_on_c, 4, 79, 70
6, 336960, Note_on_c, 4, 79, 0
6, 336960, Note_on_c, 4, 64, 0
6, 336960, Note_on_c, 4, 67, 70
6, 336960, Note_on_c, 4, 62, 70
6, 337080, Note_on_c, 4, 67, 0
6, 337080, Note_on_c, 4, 79, 70
6, 337200, Note_on_c, 4, 79, 0
6, 337200, Note_on_c, 4, 62, 0
6, 337200, Note_on_c, 4, 67, 70
6, 337200, Note_on_c, 4, 65, 70
6, 337320, Note_on_c, 4, 67, 0
6, 337320, Note_on_c, 4, 79, 70
6, 337440, Note_on_c, 4, 79, 0
6, 337440, Note_on_c, 4, 65, 0
6, 337440, Note_on_c, 4, 67, 70
6, 337440, Note_on_c, 4, 60, 70
6, 337560, Note_on_c, 4, 67, 0
6, 337560, Note_on_c, 4, 79, 70
6, 337680, Note_on_c, 4, 79, 0
6, 337680, Note_on_c, 4, 60, 0
6, 337680, Note_on_c, 4, 67, 70
6, 337680, Note_on_c, 4, 64, 70
6, 337800, Note_on_c, 4, 67, 0
6, 337800, Note_on_c, 4, 79, 70
6, 337920, Note_on_c, 4, 79, 0
6, 337920, Note_on_c, 4, 64, 0
6, 337920, Note_on_c, 4, 67, 105
6, 337920, Note_on_c, 4, 59, 105
6, 338040, Note_on_c, 4, 67, 0
6, 338040, Note_on_c, 4, 79, 105
6, 338160, Note_on_c, 4, 79, 0
6, 338160, Note_on_c, 4, 67, 105
6, 338280, Note_on_c, 4, 67, 0
6, 338280, Note_on_c, 4, 79, 105
6, 338400, Note_on_c, 4, 79, 0
6, 338400, Note_on_c, 4, 59, 0
6, 338400, Note_on_c, 4, 67, 70
6, 338400, Note_on_c, 4, 59, 70
6, 338520, Note_on_c, 4, 67, 0
6, 338520, Note_on_c, 4, 79, 70
6, 338640, Note_on_c, 4, 79, 0
6, 338640, Note_on_c, 4, 59, 0
6, 338640, Note_on_c, 4, 67, 70
6, 338640, Note_on_c, 4, 62, 70
6, 338760, Note_on_c, 4, 67, 0
6, 338760, Note_on_c, 4, 79, 70
6, 338880, Note_on_c, 4, 79, 0
6, 338880, Note_on_c, 4, 62, 0
6, 338880, Note_on_c, 4, 67, 70
6, 338880, Note_on_c, 4, 58, 70
6, 339000, Note_on_c, 4, 67, 0
6, 339000, Note_on_c, 4, 79, 70
6, 339120, Note_on_c, 4, 79, 0
6, 339120, Note_on_c, 4, 58, 0
6, 339120, Note_on_c, 4, 67, 70
6, 339120, Note_on_c, 4, 61, 70
6, 339240, Note_on_c, 4, 67, 0
6, 339240, Note_on_c, 4, 79, 70
6, 339360, Note_on_c, 4, 79, 0
6, 339360, Note_on_c, 4, 61, 0
6, 339360, Note_on_c, 4, 67, 70
6, 339360, Note_on_c, 4, 59, 70
6, 339480, Note_on_c, 4, 67, 0
6, 339480, Note_on_c, 4, 79, 70
6, 339600, Note_on_c, 4, 79, 0
6, 339600, Note_on_c, 4, 59, 0
6, 339600, Note_on_c, 4, 67, 70
6, 339600, Note_on_c, 4, 62, 70
6, 339720, Note_on_c, 4, 67, 0
6, 339720, Note_on_c, 4, 79, 70
6, 339840, Note_on_c, 4, 79, 0
6, 339840, Note_on_c, 4, 62, 0
6, 339840, Note_on_c, 4, 67, 105
6, 339840, Note_on_c, 4, 60, 105
6, 339840, Note_on_c, 4, 64, 105
6, 339960, Note_on_c, 4, 67, 0
6, 339960, Note_on_c, 4, 79, 105
6, 340080, Note_on_c, 4, 79, 0
6, 340080, Note_on_c, 4, 67, 105
6, 340200, Note_on_c, 4, 67, 0
6, 340200, Note_on_c, 4, 79, 105
6, 340320, Note_on_c, 4, 79, 0
6, 340320, Note_on_c, 4, 64, 0
6, 340320, Note_on_c, 4, 60, 0
6, 340320, Note_on_c, 4, 67, 70
6, 340320, Note_on_c, 4, 60, 70
6, 340440, Note_on_c, 4, 67, 0
6, 340440, Note_on_c, 4, 79, 70
6, 340560, Note_on_c, 4, 79, 0
6, 340560, Note_on_c, 4, 60, 0
6, 340560, Note_on_c, 4, 67, 70
6, 340560, Note_on_c, 4, 64, 70
6, 340680, Note_on_c, 4, 67, 0
6, 340680, Note_on_c, 4, 79, 70
6, 340800, Note_on_c, 4, 79, 0
6, 340800, Note_on_c, 4, 64, 0
6, 340800, Note_on_c, 4, 67, 70
6, 340800, Note_on_c, 4, 59, 70
6, 340920, Note_on_c, 4, 67, 0
6, 340920, Note_on_c, 4, 79, 70
6, 341040, Note_on_c, 4, 79, 0
6, 341040, Note_on_c, 4, 59, 0
6, 341040, Note_on_c, 4, 67, 70
6, 341040, Note_on_c, 4, 63, 70
6, 341160, Note_on_c, 4, 67, 0
6, 341160, Note_on_c, 4, 79, 70
6, 341280, Note_on_c, 4, 79, 0
6, 341280, Note_on_c, 4, 63, 0
6, 341280, Note_on_c, 4, 67, 70
6, 341280, Note_on_c, 4, 60, 70
6, 341400, Note_on_c, 4, 67, 0
6, 341400, Note_on_c, 4, 79, 70
6, 341520, Note_on_c, 4, 79, 0
6, 341520, Note_on_c, 4, 60, 0
6, 341520, Note_on_c, 4, 67, 70
6, 341520, Note_on_c, 4, 64, 70
6, 341640, Note_on_c, 4, 67, 0
6, 341640, Note_on_c, 4, 79, 70
6, 341760, Note_on_c, 4, 79, 0
6, 341760, Note_on_c, 4, 64, 0
6, 341760, Note_on_c, 4, 65, 69
6, 341760, Note_on_c, 4, 57, 69
6, 341880, Note_on_c, 4, 65, 0
6, 341880, Note_on_c, 4, 69, 71
6, 342000, Note_on_c, 4, 69, 0
6, 342000, Note_on_c, 4, 57, 0
6, 342000, Note_on_c, 4, 72, 73
6, 342000, Note_on_c, 4, 60, 73
6, 342120, Note_on_c, 4, 72, 0
6, 342120, Note_on_c, 4, 77, 75
6, 342240, Note_on_c, 4, 77, 0
6, 342240, Note_on_c, 4, 60, 0
6, 342240, Note_on_c, 4, 67, 77
6, 342240, Note_on_c, 4, 52, 77
6, 342360, Note_on_c, 4, 67, 0
6, 342360, Note_on_c, 4, 72, 80
6, 342480, Note_on_c, 4, 72, 0
6, 342480, Note_on_c, 4, 52, 0
6, 342480, Note_on_c, 4, 76, 82
6, 342480, Note_on_c, 4, 60, 82
6, 342600, Note_on_c, 4, 76, 0
6, 342600, Note_on_c, 4, 79, 84
6, 342720, Note_on_c, 4, 79, 0
6, 342720, Note_on_c, 4, 60, 0
6, 342720, Note_on_c, 4, 69, 86
6, 342720, Note_on_c, 4, 53, 86
6, 342840, Note_on_c, 4, 69, 0
6, 342840, Note_on_c, 4, 72, 89
6, 342960, Note_on_c, 4, 72, 0
6, 342960, Note_on_c, 4, 53, 0
6, 342960, Note_on_c, 4, 77, 91
6, 342960, Note_on_c, 4, 60, 91
6, 343080, Note_on_c, 4, 77, 0
6, 343080, Note_on_c, 4, 81, 93
6, 343200, Note_on_c, 4, 81, 0
6, 343200, Note_on_c, 4, 60, 0
6, 343200, Note_on_c, 4, 71, 95
6, 343200, Note_on_c, 4, 50, 95
6, 343320, Note_on_c, 4, 71, 0
6, 343320, Note_on_c, 4, 74, 97
6, 343440, Note_on_c, 4, 74, 0
6, 343440, Note_on_c, 4, 50, 0
6, 343440, Note_on_c, 4, 77, 100
6, 343440, Note_on_c, 4, 59, 100
6, 343560, Note_on_c, 4, 77, 0
6, 343560, Note_on_c, 4, 83, 102
6, 343680, Note_on_c, 4, 83, 0
6, 343680, Note_on_c, 4, 59, 0
6, 343680, Note_on_c, 4, 48, 104
6, 343800, Note_on_c, 4, 48, 0
6, 343800, Note_on_c, 4, 52, 106
6, 343920, Note_on_c, 4, 52, 0
6, 343920, Note_on_c, 4, 55, 105
6, 344040, Note_on_c, 4, 55, 0
6, 344040, Note_on_c, 4, 60, 105
6, 344160, Note_on_c, 4, 60, 0
6, 344160, Note_on_c, 4, 72, 105
6, 344280, Note_on_c, 4, 72, 0
6, 344280, Note_on_c, 4, 76, 105
6, 344400, Note_on_c, 4, 76, 0
6, 344400, Note_on_c, 4, 79, 105
6, 344520, Note_on_c, 4, 79, 0
6, 344520, Note_on_c, 4, 84, 105
6, 344640, Note_on_c, 4, 84, 0
6, 344640, Note_on_c, 4, 76, 105
6, 344760, Note_on_c, 4, 76, 0
6, 344760, Note_on_c, 4, 79, 105
6, 344880, Note_on_c, 4, 79, 0
6, 344880, Note_on_c, 4, 84, 105
6, 345000, Note_on_c, 4, 84, 0
6, 345000, Note_on_c, 4, 88, 105
6, 345120, Note_on_c, 4, 88, 0
6, 345120, Note_on_c, 4, 86, 105
6, 345240, Note_on_c, 4, 86, 0
6, 345240, Note_on_c, 4, 84, 105
6, 345360, Note_on_c, 4, 84, 0
6, 345360, Note_on_c, 4, 83, 105
6, 345480, Note_on_c, 4, 83, 0
6, 345480, Note_on_c, 4, 84, 105
6, 345600, Note_on_c, 4, 84, 0
6, 345600, Note_on_c, 4, 86, 105
6, 345600, Note_on_c, 4, 71, 105
6, 345720, Note_on_c, 4, 86, 0
6, 345720, Note_on_c, 4, 83, 105
6, 345840, Note_on_c, 4, 83, 0
6, 345840, Note_on_c, 4, 71, 0
6, 345840, Note_on_c, 4, 84, 105
6, 345840, Note_on_c, 4, 69, 105
6, 345960, Note_on_c, 4, 84, 0
6, 345960, Note_on_c, 4, 81, 105
6, 346080, Note_on_c, 4, 81, 0
6, 346080, Note_on_c, 4, 69, 0
6, 346080, Note_on_c, 4, 83, 105
6, 346080, Note_on_c, 4, 67, 105
6, 346200, Note_on_c, 4, 83, 0
6, 346200, Note_on_c, 4, 79, 105
6, 346320, Note_on_c, 4, 79, 0
6, 346320, Note_on_c, 4, 67, 0
6, 346320, Note_on_c, 4, 81, 105
6, 346320, Note_on_c, 4, 65, 105
6, 346440, Note_on_c, 4, 81, 0
6, 346440, Note_on_c, 4, 77, 105
6, 346560, Note_on_c, 4, 77, 0
6, 346560, Note_on_c, 4, 65, 0
6, 346560, Note_on_c, 4, 79, 105
6, 346560, Note_on_c, 4, 64, 105
6, 346680, Note_on_c, 4, 79, 0
6, 346680, Note_on_c, 4, 76, 105
6, 346800, Note_on_c, 4, 76, 0
6, 346800, Note_on_c, 4, 64, 0
6, 346800, Note_on_c, 4, 77, 105
6, 346800, Note_on_c, 4, 62, 105
6, 346920, Note_on_c, 4, 77, 0
6, 346920, Note_on_c, 4, 74, 105
6, 347040, Note_on_c, 4, 74, 0
6, 347040, Note_on_c, 4, 62, 0
6, 347040, Note_on_c, 4, 76, 105
6, 347040, Note_on_c, 4, 60, 105
6, 347160, Note_on_c, 4, 76, 0
6, 347160, Note_on_c, 4, 72, 105
6, 347280, Note_on_c, 4, 72, 0
6, 347280, Note_on_c, 4, 60, 0
6, 347280, Note_on_c, 4, 74, 105
6, 347280, Note_on_c, 4, 59, 105
6, 347400, Note_on_c, 4, 74, 0
6, 347400, Note_on_c, 4, 71, 105
6, 347520, Note_on_c, 4, 71, 0
6, 347520, Note_on_c, 4, 59, 0
6, 347520, Note_on_c, 4, 48, 105
6, 347640, Note_on_c, 4, 48, 0
6, 347640, Note_on_c, 4, 52, 105
6, 347760, Note_on_c, 4, 52, 0
6, 347760, Note_on_c, 4, 55, 105
6, 347880, Note_on_c, 4, 55, 0
6, 347880, Note_on_c, 4, 60, 105
6, 348000, Note_on_c, 4, 60, 0
6, 348000, Note_on_c, 4, 72, 105
6, 348120, Note_on_c, 4, 72, 0
6, 348120, Note_on_c, 4, 76, 105
6, 348240, Note_on_c, 4, 76, 0
6, 348240, Note_on_c, 4, 79, 105
6, 348360, Note_on_c, 4, 79, 0
6, 348360, Note_on_c, 4, 84, 105
6, 348480, Note_on_c, 4, 84, 0
6, 348480, Note_on_c, 4, 76, 105
6, 348600, Note_on_c, 4, 76, 0
6, 348600, Note_on_c, 4, 79, 105
6, 348720, Note_on_c, 4, 79, 0
6, 348720, Note_on_c, 4, 84, 105
6, 348840, Note_on_c, 4, 84, 0
6, 348840, Note_on_c, 4, 88, 105
6, 348960, Note_on_c, 4, 88, 0
6, 348960, Note_on_c, 4, 86, 105
6, 349080, Note_on_c, 4, 86, 0
6, 349080, Note_on_c, 4, 84, 105
6, 349200, Note_on_c, 4, 84, 0
6, 349200, Note_on_c, 4, 83, 105
6, 349320, Note_on_c, 4, 83, 0
6, 349320, Note_on_c, 4, 84, 105
6, 349440, Note_on_c, 4, 84, 0
6, 349440, Note_on_c, 4, 89, 105
6, 349440, Note_on_c, 4, 74, 105
6, 349560, Note_on_c, 4, 89, 0
6, 349560, Note_on_c, 4, 86, 105
6, 349680, Note_on_c, 4, 86, 0
6, 349680, Note_on_c, 4, 74, 0
6, 349680, Note_on_c, 4, 88, 105
6, 349680, Note_on_c, 4, 72, 105
6, 349800, Note_on_c, 4, 88, 0
6, 349800, Note_on_c, 4, 84, 105
6, 349920, Note_on_c, 4, 84, 0
6, 349920, Note_on_c, 4, 72, 0
6, 349920, Note_on_c, 4, 86, 105
6, 349920, Note_on_c, 4, 71, 105
6, 350040, Note_on_c, 4, 86, 0
6, 350040, Note_on_c, 4, 83, 105
6, 350160, Note_on_c, 4, 83, 0
6, 350160, Note_on_c, 4, 71, 0
6, 350160, Note_on_c, 4, 84, 105
6, 350160, Note_on_c, 4, 69, 105
6, 350280, Note_on_c, 4, 84, 0
6, 350280, Note_on_c, 4, 81, 105
6, 350400, Note_on_c, 4, 81, 0
6, 350400, Note_on_c, 4, 69, 0
6, 350400, Note_on_c, 4, 83, 105
6, 350400, Note_on_c, 4, 67, 105
6, 350520, Note_on_c, 4, 83, 0
6, 350520, Note_on_c, 4, 79, 105
6, 350640, Note_on_c, 4, 79, 0
6, 350640, Note_on_c, 4, 67, 0
6, 350640, Note_on_c, 4, 81, 105
6, 350640, Note_on_c, 4, 65, 105
6, 350760, Note_on_c, 4, 81, 0
6, 350760, Note_on_c, 4, 77, 105
6, 350880, Note_on_c, 4, 77, 0
6, 350880, Note_on_c, 4, 65, 0
6, 350880, Note_on_c, 4, 79, 105
6, 350880, Note_on_c, 4, 64, 105
6, 351000, Note_on_c, 4, 79, 0
6, 351000, Note_on_c, 4, 76, 105
6, 351120, Note_on_c, 4, 76, 0
6, 351120, Note_on_c, 4, 64, 0
6, 351120, Note_on_c, 4, 77, 105
6, 351120, Note_on_c, 4, 62, 105
6, 351240, Note_on_c, 4, 77, 0
6, 351240, Note_on_c, 4, 74, 105
6, 351360, Note_on_c, 4, 74, 0
6, 351360, Note_on_c, 4, 62, 0
6, 351360, Note_on_c, 4, 72, 105
6, 351360, Note_on_c, 4, 60, 105
6, 351480, Note_on_c, 4, 72, 0
6, 351480, Note_on_c, 4, 76, 105
6, 351600, Note_on_c, 4, 76, 0
6, 351600, Note_on_c, 4, 79, 105
6, 351720, Note_on_c, 4, 79, 0
6, 351720, Note_on_c, 4, 84, 105
6, 351840, Note_on_c, 4, 84, 0
6, 351840, Note_on_c, 4, 60, 0
6, 351840, Note_on_c, 4, 72, 105
6, 351840, Note_on_c, 4, 48, 105
6, 351840, Note_on_c, 4, 60, 105
6, 351960, Note_on_c, 4, 72, 0
6, 351960, Note_on_c, 4, 84, 105
6, 352080, Note_on_c, 4, 84, 0
6, 352080, Note_on_c, 4, 60, 0
6, 352080, Note_on_c, 4, 48, 0
6, 352080, Note_on_c, 4, 71, 105
6, 352080, Note_on_c, 4, 47, 105
6, 352080, Note_on_c, 4, 59, 105
6, 352200, Note_on_c, 4, 71, 0
6, 352200, Note_on_c, 4, 83, 105
6, 352320, Note_on_c, 4, 83, 0
6, 352320, Note_on_c, 4, 59, 0
6, 352320, Note_on_c, 4, 47, 0
6, 352320, Note_on_c, 4, 69, 105
6, 352320, Note_on_c, 4, 45, 105
6, 352320, Note_on_c, 4, 57, 105
6, 352440, Note_on_c, 4, 69, 0
6, 352440, Note_on_c, 4, 72, 105
6, 352560, Note_on_c, 4, 72, 0
6, 352560, Note_on_c, 4, 76, 105
6, 352680, Note_on_c, 4, 76, 0
6, 352680, Note_on_c, 4, 81, 105
6, 352800, Note_on_c, 4, 81, 0
6, 352800, Note_on_c, 4, 57, 0
6, 352800, Note_on_c, 4, 45, 0
6, 352800, Note_on_c, 4, 69, 105
6, 352800, Note_on_c, 4, 45, 105
6, 352800, Note_on_c, 4, 57, 105
6, 352920, Note_on_c, 4, 69, 0
6, 352920, Note_on_c, 4, 81, 105
6, 353040, Note_on_c, 4, 81, 0
6, 353040, Note_on_c, 4, 57, 0
6, 353040, Note_on_c, 4, 45, 0
6, 353040, Note_on_c, 4, 67, 105
6, 353040, Note_on_c, 4, 43, 105
6, 353040, Note_on_c, 4, 55, 105
6, 353160, Note_on_c, 4, 67, 0
6, 353160, Note_on_c, 4, 79, 105
6, 353280, Note_on_c, 4, 79, 0
6, 353280, Note_on_c, 4, 55, 0
6, 353280, Note_on_c, 4, 43, 0
6, 353280, Note_on_c, 4, 65, 105
6, 353280, Note_on_c, 4, 41, 105
6, 353280, Note_on_c, 4, 53, 105
6, 353400, Note_on_c, 4, 65, 0
6, 353400, Note_on_c, 4, 69, 105
6, 353520, Note_on_c, 4, 69, 0
6, 353520, Note_on_c, 4, 72, 105
6, 353640, Note_on_c, 4, 72, 0
6, 353640, Note_on_c, 4, 77, 105
6, 353760, Note_on_c, 4, 77, 0
6, 353760, Note_on_c, 4, 53, 0
6, 353760, Note_on_c, 4, 41, 0
6, 353760, Note_on_c, 4, 65, 105
6, 353760, Note_on_c, 4, 41, 105
6, 353760, Note_on_c, 4, 53, 105
6, 353880, Note_on_c, 4, 65, 0
6, 353880, Note_on_c, 4, 77, 105
6, 354000, Note_on_c, 4, 77, 0
6, 354000, Note_on_c, 4, 53, 0
6, 354000, Note_on_c, 4, 41, 0
6, 354000, Note_on_c, 4, 64, 105
6, 354000, Note_on_c, 4, 40, 105
6, 354000, Note_on_c, 4, 52, 105
6, 354120, Note_on_c, 4, 64, 0
6, 354120, Note_on_c, 4, 76, 105
6, 354240, Note_on_c, 4, 76, 0
6, 354240, Note_on_c, 4, 52, 0
6, 354240, Note_on_c, 4, 40, 0
6, 354240, Note_on_c, 4, 62, 105
6, 354240, Note_on_c, 4, 38, 105
6, 354240, Note_on_c, 4, 50, 105
6, 354360, Note_on_c, 4, 62, 0
6, 354360, Note_on_c, 4, 74, 105
6, 354480, Note_on_c, 4, 74, 0
6, 354480, Note_on_c, 4, 50, 0
6, 354480, Note_on_c, 4, 38, 0
6, 354480, Note_on_c, 4, 60, 105
6, 354480, Note_on_c, 4, 48, 105
6, 354600, Note_on_c, 4, 60, 0
6, 354600, Note_on_c, 4, 72, 105
6, 354720, Note_on_c, 4, 72, 0
6, 354720, Note_on_c, 4, 48, 0
6, 354720, Note_on_c, 4, 59, 105
6, 354720, Note_on_c, 4, 47, 105
6, 354840, Note_on_c, 4, 59, 0
6, 354840, Note_on_c, 4, 71, 105
6, 354960, Note_on_c, 4, 71, 0
6, 354960, Note_on_c, 4, 47, 0
6, 354960, Note_on_c, 4, 57, 105
6, 354960, Note_on_c, 4, 45, 105
6, 355080, Note_on_c, 4, 57, 0
6, 355080, Note_on_c, 4, 69, 105
6, 355200, Note_on_c, 4, 69, 0
6, 355200, Note_on_c, 4, 45, 0
6, 355200, Note_on_c, 4, 55, 105
6, 355200, Note_on_c, 4, 43, 105
6, 355440, Note_on_c, 4, 43, 0
6, 355440, Note_on_c, 4, 55, 0
6, 355440, Note_on_c, 4, 55, 105
6, 355440, Note_on_c, 4, 43, 105
6, 355560, Note_on_c, 4, 55, 0
6, 355560, Note_on_c, 4, 59, 105
6, 355680, Note_on_c, 4, 59, 0
6, 355680, Note_on_c, 4, 43, 0
6, 355680, Note_on_c, 4, 57, 105
6, 355680, Note_on_c, 4, 45, 105
6, 355800, Note_on_c, 4, 57, 0
6, 355800, Note_on_c, 4, 60, 105
6, 355920, Note_on_c, 4, 60, 0
6, 355920, Note_on_c, 4, 45, 0
6, 355920, Note_on_c, 4, 59, 105
6, 355920, Note_on_c, 4, 47, 105
6, 356040, Note_on_c, 4, 59, 0
6, 356040, Note_on_c, 4, 62, 105
6, 356160, Note_on_c, 4, 62, 0
6, 356160, Note_on_c, 4, 47, 0
6, 356160, Note_on_c, 4, 60, 105
6, 356160, Note_on_c, 4, 48, 105
6, 356280, Note_on_c, 4, 60, 0
6, 356280, Note_on_c, 4, 64, 105
6, 356400, Note_on_c, 4, 64, 0
6, 356400, Note_on_c, 4, 48, 0
6, 356400, Note_on_c, 4, 62, 105
6, 356400, Note_on_c, 4, 50, 105
6, 356520, Note_on_c, 4, 62, 0
6, 356520, Note_on_c, 4, 65, 105
6, 356640, Note_on_c, 4, 65, 0
6, 356640, Note_on_c, 4, 50, 0
6, 356640, Note_on_c, 4, 64, 105
6, 356640, Note_on_c, 4, 52, 105
6, 356760, Note_on_c, 4, 64, 0
6, 356760, Note_on_c, 4, 67, 105
6, 356880, Note_on_c, 4, 67, 0
6, 356880, Note_on_c, 4, 52, 0
6, 356880, Note_on_c, 4, 66, 105
6, 356880, Note_on_c, 4, 54, 105
6, 357000, Note_on_c, 4, 66, 0
6, 357000, Note_on_c, 4, 69, 105
6, 357120, Note_on_c, 4, 69, 0
6, 357120, Note_on_c, 4, 54, 0
6, 357120, Note_on_c, 4, 67, 105
6, 357120, Note_on_c, 4, 55, 105
6, 357360, Note_on_c, 4, 55, 0
6, 357360, Note_on_c, 4, 67, 0
6, 357360, Note_on_c, 4, 67, 105
6, 357360, Note_on_c, 4, 43, 105
6, 357480, Note_on_c, 4, 43, 0
6, 357480, Note_on_c, 4, 67, 0
6, 357480, Note_on_c, 4, 71, 105
6, 357480, Note_on_c, 4, 55, 105
6, 357600, Note_on_c, 4, 55, 0
6, 357600, Note_on_c, 4, 71, 0
6, 357600, Note_on_c, 4, 69, 105
6, 357600, Note_on_c, 4, 45, 105
6, 357720, Note_on_c, 4, 45, 0
6, 357720, Note_on_c, 4, 69, 0
6, 357720, Note_on_c, 4, 72, 105
6, 357720, Note_on_c, 4, 57, 105
6, 357840, Note_on_c, 4, 57, 0
6, 357840, Note_on_c, 4, 72, 0
6, 357840, Note_on_c, 4, 71, 105
6, 357840, Note_on_c, 4, 47, 105
6, 357960, Note_on_c, 4, 47, 0
6, 357960, Note_on_c, 4, 71, 0
6, 357960, Note_on_c, 4, 74, 105
6, 357960, Note_on_c, 4, 59, 105
6, 358080, Note_on_c, 4, 59, 0
6, 358080, Note_on_c, 4, 74, 0
6, 358080, Note_on_c, 4, 72, 105
6, 358080, Note_on_c, 4, 48, 105
6, 358200, Note_on_c, 4, 48, 0
6, 358200, Note_on_c, 4, 72, 0
6, 358200, Note_on_c, 4, 76, 105
6, 358200, Note_on_c, 4, 60, 105
6, 358320, Note_on_c, 4, 60, 0
6, 358320, Note_on_c, 4, 76, 0
6, 358320, Note_on_c, 4, 74, 105
6, 358320, Note_on_c, 4, 50, 105
6, 358440, Note_on_c, 4, 50, 0
6, 358440, Note_on_c, 4, 74, 0
6, 358440, Note_on_c, 4, 77, 105
6, 358440, Note_on_c, 4, 62, 105
6, 358560, Note_on_c, 4, 62, 0
6, 358560, Note_on_c, 4, 77, 0
6, 358560, Note_on_c, 4, 76, 105
6, 358560, Note_on_c, 4, 52, 105
6, 358680, Note_on_c, 4, 52, 0
6, 358680, Note_on_c, 4, 76, 0
6, 358680, Note_on_c, 4, 79, 105
6, 358680, Note_on_c, 4, 64, 105
6, 358800, Note_on_c, 4, 64, 0
6, 358800, Note_on_c, 4, 79, 0
6, 358800, Note_on_c, 4, 78, 105
6, 358800, Note_on_c, 4, 54, 105
6, 358920, Note_on_c, 4, 54, 0
6, 358920, Note_on_c, 4, 78, 0
6, 358920, Note_on_c, 4, 81, 105
6, 358920, Note_on_c, 4, 66, 105
6, 359040, Note_on_c, 4, 66, 0
6, 359040, Note_on_c, 4, 81, 0
6, 359040, Note_on_c, 4, 79, 105
6, 359040, Note_on_c, 4, 55, 105
6, 359040, Note_on_c, 4, 67, 105
6, 359520, Note_on_c, 4, 67, 0
6, 359520, Note_on_c, 4, 55, 0
6, 359520, Note_on_c, 4, 79, 0
6, 364800, Note_on_c, 4, 48, 105
6, 364920, Note_on_c, 4, 48, 0
6, 364920, Note_on_c, 4, 52, 105
6, 365040, Note_on_c, 4, 52, 0
6, 365040, Note_on_c, 4, 55, 105
6, 365160, Note_on_c, 4, 55, 0
6, 365160, Note_on_c, 4, 60, 105
6, 365280, Note_on_c, 4, 60, 0
6, 365280, Note_on_c, 4, 64, 105
6, 365400, Note_on_c, 4, 64, 0
6, 365400, Note_on_c, 4, 67, 105
6, 365520, Note_on_c, 4, 67, 0
6, 365520, Note_on_c, 4, 64, 105
6, 365640, Note_on_c, 4, 64, 0
6, 365640, Note_on_c, 4, 60, 105
6, 365760, Note_on_c, 4, 60, 0
6, 365760, Note_on_c, 4, 48, 105
6, 365880, Note_on_c, 4, 48, 0
6, 365880, Note_on_c, 4, 52, 105
6, 366000, Note_on_c, 4, 52, 0
6, 366000, Note_on_c, 4, 55, 105
6, 366120, Note_on_c, 4, 55, 0
6, 366120, Note_on_c, 4, 60, 105
6, 366240, Note_on_c, 4, 60, 0
6, 366240, Note_on_c, 4, 64, 105
6, 366360, Note_on_c, 4, 64, 0
6, 366360, Note_on_c, 4, 67, 105
6, 366480, Note_on_c, 4, 67, 0
6, 366480, Note_on_c, 4, 64, 105
6, 366600, Note_on_c, 4, 64, 0
6, 366600, Note_on_c, 4, 60, 105
6, 366720, Note_on_c, 4, 60, 0
6, 366720, Note_on_c, 4, 48, 105
6, 366840, Note_on_c, 4, 48, 0
6, 366840, Note_on_c, 4, 53, 105
6, 366960, Note_on_c, 4, 53, 0
6, 366960, Note_on_c, 4, 57, 105
6, 367080, Note_on_c, 4, 57, 0
6, 367080, Note_on_c, 4, 60, 105
6, 367200, Note_on_c, 4, 60, 0
6, 367200, Note_on_c, 4, 65, 105
6, 367320, Note_on_c, 4, 65, 0
6, 367320, Note_on_c, 4, 69, 105
6, 367440, Note_on_c, 4, 69, 0
6, 367440, Note_on_c, 4, 65, 105
6, 367560, Note_on_c, 4, 65, 0
6, 367560, Note_on_c, 4, 60, 105
6, 367680, Note_on_c, 4, 60, 0
6, 367680, Note_on_c, 4, 48, 105
6, 367800, Note_on_c, 4, 48, 0
6, 367800, Note_on_c, 4, 53, 105
6, 367920, Note_on_c, 4, 53, 0
6, 367920, Note_on_c, 4, 57, 105
6, 368040, Note_on_c, 4, 57, 0
6, 368040, Note_on_c, 4, 60, 105
6, 368160, Note_on_c, 4, 60, 0
6, 368160, Note_on_c, 4, 65, 105
6, 368280, Note_on_c, 4, 65, 0
6, 368280, Note_on_c, 4, 69, 105
6, 368400, Note_on_c, 4, 69, 0
6, 368400, Note_on_c, 4, 65, 105
6, 368520, Note_on_c, 4, 65, 0
6, 368520, Note_on_c, 4, 60, 105
6, 368640, Note_on_c, 4, 60, 0
6, 368640, Note_on_c, 4, 48, 105
6, 368760, Note_on_c, 4, 64, 105
6, 368880, Note_on_c, 4, 64, 0
6, 368880, Note_on_c, 4, 48, 0
6, 368880, Note_on_c, 4, 60, 105
6, 369000, Note_on_c, 4, 60, 0
6, 369000, Note_on_c, 4, 55, 105
6, 369120, Note_on_c, 4, 55, 0
6, 369120, Note_on_c, 4, 45, 105
6, 369240, Note_on_c, 4, 64, 105
6, 369360, Note_on_c, 4, 64, 0
6, 369360, Note_on_c, 4, 45, 0
6, 369360, Note_on_c, 4, 60, 105
6, 369480, Note_on_c, 4, 60, 0
6, 369480, Note_on_c, 4, 57, 105
6, 369600, Note_on_c, 4, 57, 0
6, 369600, Note_on_c, 4, 41, 105
6, 369720, Note_on_c, 4, 62, 105
6, 369840, Note_on_c, 4, 62, 0
6, 369840, Note_on_c, 4, 41, 0
6, 369840, Note_on_c, 4, 60, 105
6, 369960, Note_on_c, 4, 60, 0
6, 369960, Note_on_c, 4, 57, 105
6, 370080, Note_on_c, 4, 57, 0
6, 370080, Note_on_c, 4, 43, 105
6, 370200, Note_on_c, 4, 62, 105
6, 370320, Note_on_c, 4, 62, 0
6, 370320, Note_on_c, 4, 43, 0
6, 370320, Note_on_c, 4, 59, 105
6, 370440, Note_on_c, 4, 59, 0
6, 370440, Note_on_c, 4, 55, 105
6, 370560, Note_on_c, 4, 55, 0
6, 370560, Note_on_c, 4, 36, 105
6, 370680, Note_on_c, 4, 84, 105
6, 370800, Note_on_c, 4, 84, 0
6, 370800, Note_on_c, 4, 79, 105
6, 370920, Note_on_c, 4, 79, 0
6, 370920, Note_on_c, 4, 76, 105
6, 371040, Note_on_c, 4, 76, 0
6, 371040, Note_on_c, 4, 36, 0
6, 371040, Note_on_c, 4, 72, 105
6, 371160, Note_on_c, 4, 72, 0
6, 371160, Note_on_c, 4, 79, 105
6, 371280, Note_on_c, 4, 79, 0
6, 371280, Note_on_c, 4, 76, 105
6, 371400, Note_on_c, 4, 76, 0
6, 371400, Note_on_c, 4, 72, 105
6, 371520, Note_on_c, 4, 72, 0
6, 371520, Note_on_c, 4, 67, 105
6, 371640, Note_on_c, 4, 67, 0
6, 371640, Note_on_c, 4, 76, 105
6, 371760, Note_on_c, 4, 76, 0
6, 371760, Note_on_c, 4, 72, 105
6, 371880, Note_on_c, 4, 72, 0
6, 371880, Note_on_c, 4, 67, 105
6, 372000, Note_on_c, 4, 67, 0
6, 372000, Note_on_c, 4, 64, 105
6, 372120, Note_on_c, 4, 64, 0
6, 372120, Note_on_c, 4, 72, 105
6, 372240, Note_on_c, 4, 72, 0
6, 372240, Note_on_c, 4, 67, 105
6, 372360, Note_on_c, 4, 67, 0
6, 372360, Note_on_c, 4, 64, 105
6, 372480, Note_on_c, 4, 64, 0
6, 372480, Note_on_c, 4, 36, 105
6, 372600, Note_on_c, 4, 36, 0
6, 372600, Note_on_c, 4, 40, 105
6, 372720, Note_on_c, 4, 40, 0
6, 372720, Note_on_c, 4, 43, 105
6, 372840, Note_on_c, 4, 43, 0
6, 372840, Note_on_c, 4, 48, 105
6, 372960, Note_on_c, 4, 48, 0
6, 372960, Note_on_c, 4, 60, 105
6, 373080, Note_on_c, 4, 60, 0
6, 373080, Note_on_c, 4, 64, 105
6, 373200, Note_on_c, 4, 64, 0
6, 373200, Note_on_c, 4, 60, 105
6, 373320, Note_on_c, 4, 60, 0
6, 373320, Note_on_c, 4, 55, 105
6, 373440, Note_on_c, 4, 55, 0
6, 373440, Note_on_c, 4, 36, 105
6, 373560, Note_on_c, 4, 36, 0
6, 373560, Note_on_c, 4, 40, 105
6, 373680, Note_on_c, 4, 40, 0
6, 373680, Note_on_c, 4, 43, 105
6, 373800, Note_on_c, 4, 43, 0
6, 373800, Note_on_c, 4, 48, 105
6, 373920, Note_on_c, 4, 48, 0
6, 373920, Note_on_c, 4, 60, 105
6, 374040, Note_on_c, 4, 60, 0
6, 374040, Note_on_c, 4, 64, 105
6, 374160, Note_on_c, 4, 64, 0
6, 374160, Note_on_c, 4, 60, 105
6, 374280, Note_on_c, 4, 60, 0
6, 374280, Note_on_c, 4, 55, 105
6, 374400, Note_on_c, 4, 55, 0
6, 374400, Note_on_c, 4, 36, 105
6, 374520, Note_on_c, 4, 36, 0
6, 374520, Note_on_c, 4, 41, 105
6, 374640, Note_on_c, 4, 41, 0
6, 374640, Note_on_c, 4, 45, 105
6, 374760, Note_on_c, 4, 45, 0
6, 374760, Note_on_c, 4, 48, 105
6, 374880, Note_on_c, 4, 48, 0
6, 374880, Note_on_c, 4, 60, 105
6, 375000, Note_on_c, 4, 60, 0
6, 375000, Note_on_c, 4, 65, 105
6, 375120, Note_on_c, 4, 65, 0
6, 375120, Note_on_c, 4, 60, 105
6, 375240, Note_on_c, 4, 60, 0
6, 375240, Note_on_c, 4, 57, 105
6, 375360, Note_on_c, 4, 57, 0
6, 375360, Note_on_c, 4, 36, 105
6, 375480, Note_on_c, 4, 36, 0
6, 375480, Note_on_c, 4, 41, 105
6, 375600, Note_on_c, 4, 41, 0
6, 375600, Note_on_c, 4, 45, 105
6, 375720, Note_on_c, 4, 45, 0
6, 375720, Note_on_c, 4, 48, 105
6, 375840, Note_on_c, 4, 48, 0
6, 375840, Note_on_c, 4, 60, 105
6, 375960, Note_on_c, 4, 60, 0
6, 375960, Note_on_c, 4, 65, 105
6, 376080, Note_on_c, 4, 65, 0
6, 376080, Note_on_c, 4, 60, 105
6, 376200, Note_on_c, 4, 60, 0
6, 376200, Note_on_c, 4, 57, 105
6, 376260, Note_on_c, 4, 36, 105
6, 376320, Note_on_c, 4, 36, 0
6, 376320, Note_on_c, 4, 57, 0
6, 376320, Note_on_c, 4, 48, 105
6, 376440, Note_on_c, 4, 64, 105
6, 376560, Note_on_c, 4, 64, 0
6, 376560, Note_on_c, 4, 48, 0
6, 376560, Note_on_c, 4, 60, 105
6, 376680, Note_on_c, 4, 60, 0
6, 376680, Note_on_c, 4, 55, 105
6, 376740, Note_on_c, 4, 45, 105
6, 376800, Note_on_c, 4, 45, 0
6, 376800, Note_on_c, 4, 55, 0
6, 376800, Note_on_c, 4, 57, 105
6, 376920, Note_on_c, 4, 72, 105
6, 377040, Note_on_c, 4, 72, 0
6, 377040, Note_on_c, 4, 57, 0
6, 377040, Note_on_c, 4, 69, 105
6, 377160, Note_on_c, 4, 69, 0
6, 377160, Note_on_c, 4, 64, 105
6, 377220, Note_on_c, 4, 41, 105
6, 377280, Note_on_c, 4, 41, 0
6, 377280, Note_on_c, 4, 64, 0
6, 377280, Note_on_c, 4, 53, 105
6, 377400, Note_on_c, 4, 72, 105
6, 377520, Note_on_c, 4, 72, 0
6, 377520, Note_on_c, 4, 53, 0
6, 377520, Note_on_c, 4, 69, 105
6, 377640, Note_on_c, 4, 69, 0
6, 377640, Note_on_c, 4, 62, 105
6, 377700, Note_on_c, 4, 43, 105
6, 377760, Note_on_c, 4, 43, 0
6, 377760, Note_on_c, 4, 62, 0
6, 377760, Note_on_c, 4, 55, 105
6, 377880, Note_on_c, 4, 71, 105
6, 378000, Note_on_c, 4, 71, 0
6, 378000, Note_on_c, 4, 55, 0
6, 378000, Note_on_c, 4, 67, 105
6, 378120, Note_on_c, 4, 67, 0
6, 378120, Note_on_c, 4, 62, 105
6, 378240, Note_on_c, 4, 62, 0
6, 378240, Note_on_c, 4, 64, 105
6, 378240, Note_on_c, 4, 67, 105
6, 378240, Note_on_c, 4, 72, 105
6, 378240, Note_on_c, 4, 48, 105
6, 378720, Note_on_c, 4, 48, 0
6, 378720, Note_on_c, 4, 64, 0
6, 378720, Note_on_c, 4, 67, 0
6, 378720, Note_on_c, 4, 72, 0
6, 385920, Note_on_c, 4, 43, 105
6, 385920, Note_on_c, 4, 55, 105
6, 386040, Note_on_c, 4, 89, 105
6, 386160, Note_on_c, 4, 89, 0
6, 386160, Note_on_c, 4, 55, 0
6, 386160, Note_on_c, 4, 43, 0
6, 386160, Note_on_c, 4, 86, 105
6, 386280, Note_on_c, 4, 86, 0
6, 386280, Note_on_c, 4, 83, 105
6, 386400, Note_on_c, 4, 83, 0
6, 386400, Note_on_c, 4, 77, 105
6, 386520, Note_on_c, 4, 86, 105
6, 386640, Note_on_c, 4, 86, 0
6, 386640, Note_on_c, 4, 77, 0
6, 386640, Note_on_c, 4, 83, 105
6, 386760, Note_on_c, 4, 83, 0
6, 386760, Note_on_c, 4, 79, 105
6, 386880, Note_on_c, 4, 79, 0
6, 386880, Note_on_c, 4, 74, 105
6, 387000, Note_on_c, 4, 83, 105
6, 387120, Note_on_c, 4, 83, 0
6, 387120, Note_on_c, 4, 74, 0
6, 387120, Note_on_c, 4, 79, 105
6, 387240, Note_on_c, 4, 79, 0
6, 387240, Note_on_c, 4, 77, 105
6, 387360, Note_on_c, 4, 77, 0
6, 387360, Note_on_c, 4, 71, 105
6, 387480, Note_on_c, 4, 79, 105
6, 387600, Note_on_c, 4, 79, 0
6, 387600, Note_on_c, 4, 71, 0
6, 387600, Note_on_c, 4, 77, 105
6, 387720, Note_on_c, 4, 77, 0
6, 387720, Note_on_c, 4, 74, 105
6, 387840, Note_on_c, 4, 74, 0
6, 387840, Note_on_c, 4, 67, 105
6, 387960, Note_on_c, 4, 77, 105
6, 388080, Note_on_c, 4, 77, 0
6, 388080, Note_on_c, 4, 67, 0
6, 388080, Note_on_c, 4, 74, 105
6, 388200, Note_on_c, 4, 74, 0
6, 388200, Note_on_c, 4, 71, 105
6, 388320, Note_on_c, 4, 71, 0
6, 388320, Note_on_c, 4, 65, 105
6, 388440, Note_on_c, 4, 74, 105
6, 388560, Note_on_c, 4, 74, 0
6, 388560, Note_on_c, 4, 65, 0
6, 388560, Note_on_c, 4, 71, 105
6, 388680, Note_on_c, 4, 71, 0
6, 388680, Note_on_c, 4, 67, 105
6, 388800, Note_on_c, 4, 67, 0
6, 388800, Note_on_c, 4, 62, 105
6, 388920, Note_on_c, 4, 71, 105
6, 389040, Note_on_c, 4, 71, 0
6, 389040, Note_on_c, 4, 62, 0
6, 389040, Note_on_c, 4, 67, 105
6, 389160, Note_on_c, 4, 67, 0
6, 389160, Note_on_c, 4, 65, 105
6, 389280, Note_on_c, 4, 65, 0
6, 389280, Note_on_c, 4, 59, 105
6, 389400, Note_on_c, 4, 67, 105
6, 389520, Note_on_c, 4, 67, 0
6, 389520, Note_on_c, 4, 59, 0
6, 389520, Note_on_c, 4, 65, 105
6, 389640, Note_on_c, 4, 65, 0
6, 389640, Note_on_c, 4, 62, 105
6, 389760, Note_on_c, 4, 62, 0
6, 389760, Note_on_c, 4, 36, 105
6, 389760, Note_on_c, 4, 48, 105
6, 389880, Note_on_c, 4, 55, 105
6, 390000, Note_on_c, 4, 55, 0
6, 390000, Note_on_c, 4, 48, 0
6, 390000, Note_on_c, 4, 36, 0
6, 390000, Note_on_c, 4, 60, 105
6, 390120, Note_on_c, 4, 60, 0
6, 390120, Note_on_c, 4, 55, 105
6, 390240, Note_on_c, 4, 55, 0
6, 390240, Note_on_c, 4, 64, 105
6, 390360, Note_on_c, 4, 64, 0
6, 390360, Note_on_c, 4, 60, 105
6, 390480, Note_on_c, 4, 60, 0
6, 390480, Note_on_c, 4, 67, 105
6, 390600, Note_on_c, 4, 67, 0
6, 390600, Note_on_c, 4, 64, 105
6, 390720, Note_on_c, 4, 64, 0
6, 390720, Note_on_c, 4, 72, 105
6, 390840, Note_on_c, 4, 60, 105
6, 390960, Note_on_c, 4, 60, 0
6, 390960, Note_on_c, 4, 72, 0
6, 390960, Note_on_c, 4, 64, 105
6, 391080, Note_on_c, 4, 64, 0
6, 391080, Note_on_c, 4, 60, 105
6, 391200, Note_on_c, 4, 60, 0
6, 391200, Note_on_c, 4, 67, 105
6, 391320, Note_on_c, 4, 67, 0
6, 391320, Note_on_c, 4, 64, 105
6, 391440, Note_on_c, 4, 64, 0
6, 391440, Note_on_c, 4, 72, 105
6, 391560, Note_on_c, 4, 72, 0
6, 391560, Note_on_c, 4, 67, 105
6, 391680, Note_on_c, 4, 67, 0
6, 391680, Note_on_c, 4, 76, 105
6, 391800, Note_on_c, 4, 64, 105
6, 391920, Note_on_c, 4, 64, 0
6, 391920, Note_on_c, 4, 76, 0
6, 391920, Note_on_c, 4, 67, 105
6, 392040, Note_on_c, 4, 67, 0
6, 392040, Note_on_c, 4, 64, 105
6, 392160, Note_on_c, 4, 64, 0
6, 392160, Note_on_c, 4, 72, 105
6, 392280, Note_on_c, 4, 72, 0
6, 392280, Note_on_c, 4, 67, 105
6, 392400, Note_on_c, 4, 67, 0
6, 392400, Note_on_c, 4, 76, 105
6, 392520, Note_on_c, 4, 76, 0
6, 392520, Note_on_c, 4, 72, 105
6, 392640, Note_on_c, 4, 72, 0
6, 392640, Note_on_c, 4, 79, 105
6, 392760, Note_on_c, 4, 67, 105
6, 392880, Note_on_c, 4, 67, 0
6, 392880, Note_on_c, 4, 79, 0
6, 392880, Note_on_c, 4, 72, 105
6, 393000, Note_on_c, 4, 72, 0
6, 393000, Note_on_c, 4, 67, 105
6, 393120, Note_on_c, 4, 67, 0
6, 393120, Note_on_c, 4, 76, 105
6, 393240, Note_on_c, 4, 76, 0
6, 393240, Note_on_c, 4, 72, 105
6, 393360, Note_on_c, 4, 72, 0
6, 393360, Note_on_c, 4, 79, 105
6, 393480, Note_on_c, 4, 79, 0
6, 393480, Note_on_c, 4, 76, 105
6, 393600, Note_on_c, 4, 76, 0
6, 393600, Note_on_c, 4, 43, 105
6, 393600, Note_on_c, 4, 55, 105
6, 393720, Note_on_c, 4, 77, 105
6, 393840, Note_on_c, 4, 77, 0
6, 393840, Note_on_c, 4, 55, 0
6, 393840, Note_on_c, 4, 43, 0
6, 393840, Note_on_c, 4, 74, 105
6, 393960, Note_on_c, 4, 74, 0
6, 393960, Note_on_c, 4, 71, 105
6, 394080, Note_on_c, 4, 71, 0
6, 394080, Note_on_c, 4, 65, 105
6, 394200, Note_on_c, 4, 74, 105
6, 394320, Note_on_c, 4, 74, 0
6, 394320, Note_on_c, 4, 65, 0
6, 394320, Note_on_c, 4, 71, 105
6, 394440, Note_on_c, 4, 71, 0
6, 394440, Note_on_c, 4, 67, 105
6, 394560, Note_on_c, 4, 67, 0
6, 394560, Note_on_c, 4, 62, 105
6, 394680, Note_on_c, 4, 71, 105
6, 394800, Note_on_c, 4, 71, 0
6, 394800, Note_on_c, 4, 62, 0
6, 394800, Note_on_c, 4, 67, 105
6, 394920, Note_on_c, 4, 67, 0
6, 394920, Note_on_c, 4, 65, 105
6, 395040, Note_on_c, 4, 65, 0
6, 395040, Note_on_c, 4, 59, 105
6, 395160, Note_on_c, 4, 67, 105
6, 395280, Note_on_c, 4, 67, 0
6, 395280, Note_on_c, 4, 59, 0
6, 395280, Note_on_c, 4, 65, 105
6, 395400, Note_on_c, 4, 65, 0
6, 395400, Note_on_c, 4, 62, 105
6, 395520, Note_on_c, 4, 62, 0
6, 395520, Note_on_c, 4, 55, 105
6, 395640, Note_on_c, 4, 65, 105
6, 395760, Note_on_c, 4, 65, 0
6, 395760, Note_on_c, 4, 55, 0
6, 395760, Note_on_c, 4, 62, 105
6, 395880, Note_on_c, 4, 62, 0
6, 395880, Note_on_c, 4, 59, 105
6, 396000, Note_on_c, 4, 59, 0
6, 396000, Note_on_c, 4, 53, 105
6, 396120, Note_on_c, 4, 62, 105
6, 396240, Note_on_c, 4, 62, 0
6, 396240, Note_on_c, 4, 53, 0
6, 396240, Note_on_c, 4, 59, 105
6, 396360, Note_on_c, 4, 59, 0
6, 396360, Note_on_c, 4, 55, 105
6, 396480, Note_on_c, 4, 55, 0
6, 396480, Note_on_c, 4, 50, 105
6, 396600, Note_on_c, 4, 59, 105
6, 396720, Note_on_c, 4, 59, 0
6, 396720, Note_on_c, 4, 50, 0
6, 396720, Note_on_c, 4, 55, 105
6, 396840, Note_on_c, 4, 55, 0
6, 396840, Note_on_c, 4, 53, 105
6, 396960, Note_on_c, 4, 53, 0
6, 396960, Note_on_c, 4, 47, 105
6, 397080, Note_on_c, 4, 55, 105
6, 397200, Note_on_c, 4, 55, 0
6, 397200, Note_on_c, 4, 47, 0
6, 397200, Note_on_c, 4, 53, 105
6, 397320, Note_on_c, 4, 53, 0
6, 397320, Note_on_c, 4, 50, 105
6, 397440, Note_on_c, 4, 50, 0
6, 397440, Note_on_c, 4, 36, 105
6, 397440, Note_on_c, 4, 48, 105
6, 397560, Note_on_c, 4, 52, 105
6, 397680, Note_on_c, 4, 52, 0
6, 397680, Note_on_c, 4, 48, 0
6, 397680, Note_on_c, 4, 36, 0
6, 397680, Note_on_c, 4, 55, 105
6, 397800, Note_on_c, 4, 55, 0
6, 397800, Note_on_c, 4, 52, 105
6, 397920, Note_on_c, 4, 52, 0
6, 397920, Note_on_c, 4, 60, 105
6, 398040, Note_on_c, 4, 60, 0
6, 398040, Note_on_c, 4, 55, 105
6, 398160, Note_on_c, 4, 55, 0
6, 398160, Note_on_c, 4, 64, 105
6, 398280, Note_on_c, 4, 64, 0
6, 398280, Note_on_c, 4, 60, 105
6, 398400, Note_on_c, 4, 60, 0
6, 398400, Note_on_c, 4, 72, 105
6, 398520, Note_on_c, 4, 60, 105
6, 398640, Note_on_c, 4, 60, 0
6, 398640, Note_on_c, 4, 72, 0
6, 398640, Note_on_c, 4, 64, 105
6, 398760, Note_on_c, 4, 64, 0
6, 398760, Note_on_c, 4, 60, 105
6, 398880, Note_on_c, 4, 60, 0
6, 398880, Note_on_c, 4, 67, 105
6, 399000, Note_on_c, 4, 67, 0
6, 399000, Note_on_c, 4, 64, 105
6, 399120, Note_on_c, 4, 64, 0
6, 399120, Note_on_c, 4, 72, 105
6, 399240, Note_on_c, 4, 72, 0
6, 399240, Note_on_c, 4, 67, 105
6, 399360, Note_on_c, 4, 67, 0
6, 399360, Note_on_c, 4, 76, 105
6, 399480, Note_on_c, 4, 64, 105
6, 399600, Note_on_c, 4, 64, 0
6, 399600, Note_on_c, 4, 76, 0
6, 399600, Note_on_c, 4, 67, 105
6, 399720, Note_on_c, 4, 67, 0
6, 399720, Note_on_c, 4, 64, 105
6, 399840, Note_on_c, 4, 64, 0
6, 399840, Note_on_c, 4, 72, 105
6, 399960, Note_on_c, 4, 72, 0
6, 399960, Note_on_c, 4, 67, 105
6, 400080, Note_on_c, 4, 67, 0
6, 400080, Note_on_c, 4, 76, 105
6, 400200, Note_on_c, 4, 76, 0
6, 400200, Note_on_c, 4, 72, 105
6, 400320, Note_on_c, 4, 72, 0
6, 400320, Note_on_c, 4, 79, 105
6, 400440, Note_on_c, 4, 67, 105
6, 400560, Note_on_c, 4, 67, 0
6, 400560, Note_on_c, 4, 79, 0
6, 400560, Note_on_c, 4, 72, 105
6, 400680, Note_on_c, 4, 72, 0
6, 400680, Note_on_c, 4, 67, 105
6, 400800, Note_on_c, 4, 67, 0
6, 400800, Note_on_c, 4, 76, 105
6, 400920, Note_on_c, 4, 76, 0
6, 400920, Note_on_c, 4, 72, 105
6, 401040, Note_on_c, 4, 72, 0
6, 401040, Note_on_c, 4, 79, 105
6, 401160, Note_on_c, 4, 79, 0
6, 401160, Note_on_c, 4, 76, 105
6, 401280, Note_on_c, 4, 76, 0
6, 401280, Note_on_c, 4, 71, 105
6, 401280, Note_on_c, 4, 74, 105
6, 401280, Note_on_c, 4, 43, 105
6, 401280, Note_on_c, 4, 55, 105
6, 401760, Note_on_c, 4, 55, 0
6, 401760, Note_on_c, 4, 71, 0
6, 401760, Note_on_c, 4, 74, 0
6, 401760, Note_on_c, 4, 43, 0
6, 410880, Note_on_c, 4, 79, 105
6, 410880, Note_on_c, 4, 64, 105
6, 411000, Note_on_c, 4, 64, 0
6, 411000, Note_on_c, 4, 79, 0
6, 411000, Note_on_c, 4, 81, 105
6, 411000, Note_on_c, 4, 65, 105
6, 411120, Note_on_c, 4, 65, 0
6, 411120, Note_on_c, 4, 81, 0
6, 411120, Note_on_c, 4, 79, 105
6, 411120, Note_on_c, 4, 64, 105
6, 411240, Note_on_c, 4, 64, 0
6, 411240, Note_on_c, 4, 79, 0
6, 411240, Note_on_c, 4, 77, 105
6, 411240, Note_on_c, 4, 62, 105
6, 411360, Note_on_c, 4, 62, 0
6, 411360, Note_on_c, 4, 77, 0
6, 411360, Note_on_c, 4, 76, 105
6, 411360, Note_on_c, 4, 60, 105
6, 411840, Note_on_c, 4, 60, 0
6, 411840, Note_on_c, 4, 76, 0
6, 414720, Note_on_c, 4, 79, 105
6, 414720, Note_on_c, 4, 64, 105
6, 414840, Note_on_c, 4, 64, 0
6, 414840, Note_on_c, 4, 79, 0
6, 414840, Note_on_c, 4, 81, 105
6, 414840, Note_on_c, 4, 65, 105
6, 414960, Note_on_c, 4, 65, 0
6, 414960, Note_on_c, 4, 81, 0
6, 414960, Note_on_c, 4, 79, 105
6, 414960, Note_on_c, 4, 64, 105
6, 415080, Note_on_c, 4, 64, 0
6, 415080, Note_on_c, 4, 79, 0
6, 415080, Note_on_c, 4, 77, 105
6, 415080, Note_on_c, 4, 62, 105
6, 415200, Note_on_c, 4, 62, 0
6, 415200, Note_on_c, 4, 77, 0
6, 415200, Note_on_c, 4, 76, 105
6, 415200, Note_on_c, 4, 60, 105
6, 415680, Note_on_c, 4, 60, 0
6, 415680, Note_on_c, 4, 76, 0
6, 418560, Note_on_c, 4, 79, 105
6, 418560, Note_on_c, 4, 64, 105
6, 418680, Note_on_c, 4, 64, 0
6, 418680, Note_on_c, 4, 79, 0
6, 418680, Note_on_c, 4, 81, 105
6, 418680, Note_on_c, 4, 65, 105
6, 418800, Note_on_c, 4, 65, 0
6, 418800, Note_on_c, 4, 81, 0
6, 418800, Note_on_c, 4, 79, 105
6, 418800, Note_on_c, 4, 64, 105
6, 418920, Note_on_c, 4, 64, 0
6, 418920, Note_on_c, 4, 79, 0
6, 418920, Note_on_c, 4, 77, 105
6, 418920, Note_on_c, 4, 62, 105
6, 419040, Note_on_c, 4, 62, 0
6, 419040, Note_on_c, 4, 77, 0
6, 419040, Note_on_c, 4, 76, 105
6, 419040, Note_on_c, 4, 60, 105
6, 419520, Note_on_c, 4, 60, 0
6, 419520, Note_on_c, 4, 76, 0
6, 420480, Note_on_c, 4, 84, 105
6, 420480, Note_on_c, 4, 69, 105
6, 420600, Note_on_c, 4, 69, 0
6, 420600, Note_on_c, 4, 84, 0
6, 420600, Note_on_c, 4, 86, 105
6, 420600, Note_on_c, 4, 70, 105
6, 420720, Note_on_c, 4, 70, 0
6, 420720, Note_on_c, 4, 86, 0
6, 420720, Note_on_c, 4, 84, 105
6, 420720, Note_on_c, 4, 69, 105
6, 420840, Note_on_c, 4, 69, 0
6, 420840, Note_on_c, 4, 84, 0
6, 420840, Note_on_c, 4, 82, 105
6, 420840, Note_on_c, 4, 67, 105
6, 420960, Note_on_c, 4, 67, 0
6, 420960, Note_on_c, 4, 82, 0
6, 420960, Note_on_c, 4, 81, 105
6, 420960, Note_on_c, 4, 65, 105
6, 421440, Note_on_c, 4, 65, 0
6, 421440, Note_on_c, 4, 81, 0
6, 422400, Note_on_c, 4, 82, 105
6, 422400, Note_on_c, 4, 67, 105
6, 422520, Note_on_c, 4, 67, 0
6, 422520, Note_on_c, 4, 82, 0
6, 422520, Note_on_c, 4, 84, 105
6, 422520, Note_on_c, 4, 69, 105
6, 422640, Note_on_c, 4, 69, 0
6, 422640, Note_on_c, 4, 84, 0
6, 422640, Note_on_c, 4, 82, 105
6, 422640, Note_on_c, 4, 67, 105
6, 422760, Note_on_c, 4, 67, 0
6, 422760, Note_on_c, 4, 82, 0
6, 422760, Note_on_c, 4, 81, 105
6, 422760, Note_on_c, 4, 65, 105
6, 422880, Note_on_c, 4, 65, 0
6, 422880, Note_on_c, 4, 81, 0
6, 422880, Note_on_c, 4, 79, 105
6, 422880, Note_on_c, 4, 64, 105
6, 423360, Note_on_c, 4, 64, 0
6, 423360, Note_on_c, 4, 79, 0
6, 424320, Note_on_c, 4, 69, 105
6, 424320, Note_on_c, 4, 53, 105
6, 424440, Note_on_c, 4, 69, 0
6, 424440, Note_on_c, 4, 72, 105
6, 424560, Note_on_c, 4, 72, 0
6, 424560, Note_on_c, 4, 53, 0
6, 424560, Note_on_c, 4, 77, 105
6, 424560, Note_on_c, 4, 57, 105
6, 424680, Note_on_c, 4, 77, 0
6, 424680, Note_on_c, 4, 72, 105
6, 424800, Note_on_c, 4, 72, 0
6, 424800, Note_on_c, 4, 57, 0
6, 424800, Note_on_c, 4, 81, 105
6, 424800, Note_on_c, 4, 60, 105
6, 424920, Note_on_c, 4, 81, 0
6, 424920, Note_on_c, 4, 77, 105
6, 425040, Note_on_c, 4, 77, 0
6, 425040, Note_on_c, 4, 60, 0
6, 425040, Note_on_c, 4, 72, 105
6, 425040, Note_on_c, 4, 53, 105
6, 425160, Note_on_c, 4, 72, 0
6, 425160, Note_on_c, 4, 69, 105
6, 425280, Note_on_c, 4, 69, 0
6, 425280, Note_on_c, 4, 53, 0
6, 425280, Note_on_c, 4, 67, 105
6, 425280, Note_on_c, 4, 52, 105
6, 425400, Note_on_c, 4, 67, 0
6, 425400, Note_on_c, 4, 72, 105
6, 425520, Note_on_c, 4, 72, 0
6, 425520, Note_on_c, 4, 52, 0
6, 425520, Note_on_c, 4, 76, 105
6, 425520, Note_on_c, 4, 55, 105
6, 425640, Note_on_c, 4, 76, 0
6, 425640, Note_on_c, 4, 72, 105
6, 425760, Note_on_c, 4, 72, 0
6, 425760, Note_on_c, 4, 55, 0
6, 425760, Note_on_c, 4, 79, 105
6, 425760, Note_on_c, 4, 60, 105
6, 425880, Note_on_c, 4, 79, 0
6, 425880, Note_on_c, 4, 76, 105
6, 426000, Note_on_c, 4, 76, 0
6, 426000, Note_on_c, 4, 60, 0
6, 426000, Note_on_c, 4, 72, 105
6, 426000, Note_on_c, 4, 52, 105
6, 426120, Note_on_c, 4, 72, 0
6, 426120, Note_on_c, 4, 67, 105
6, 426240, Note_on_c, 4, 67, 0
6, 426240, Note_on_c, 4, 52, 0
6, 426240, Note_on_c, 4, 69, 105
6, 426240, Note_on_c, 4, 53, 105
6, 426360, Note_on_c, 4, 69, 0
6, 426360, Note_on_c, 4, 72, 105
6, 426480, Note_on_c, 4, 72, 0
6, 426480, Note_on_c, 4, 53, 0
6, 426480, Note_on_c, 4, 77, 105
6, 426480, Note_on_c, 4, 57, 105
6, 426600, Note_on_c, 4, 77, 0
6, 426600, Note_on_c, 4, 72, 105
6, 426720, Note_on_c, 4, 72, 0
6, 426720, Note_on_c, 4, 57, 0
6, 426720, Note_on_c, 4, 81, 105
6, 426720, Note_on_c, 4, 60, 105
6, 426840, Note_on_c, 4, 81, 0
6, 426840, Note_on_c, 4, 77, 105
6, 426960, Note_on_c, 4, 77, 0
6, 426960, Note_on_c, 4, 60, 0
6, 426960, Note_on_c, 4, 72, 105
6, 426960, Note_on_c, 4, 53, 105
6, 427080, Note_on_c, 4, 72, 0
6, 427080, Note_on_c, 4, 69, 105
6, 427200, Note_on_c, 4, 69, 0
6, 427200, Note_on_c, 4, 53, 0
6, 427200, Note_on_c, 4, 67, 105
6, 427200, Note_on_c, 4, 52, 105
6, 427320, Note_on_c, 4, 67, 0
6, 427320, Note_on_c, 4, 72, 105
6, 427440, Note_on_c, 4, 72, 0
6, 427440, Note_on_c, 4, 52, 0
6, 427440, Note_on_c, 4, 76, 105
6, 427440, Note_on_c, 4, 55, 105
6, 427560, Note_on_c, 4, 76, 0
6, 427560, Note_on_c, 4, 72, 105
6, 427680, Note_on_c, 4, 72, 0
6, 427680, Note_on_c, 4, 55, 0
6, 427680, Note_on_c, 4, 79, 105
6, 427680, Note_on_c, 4, 60, 105
6, 427800, Note_on_c, 4, 79, 0
6, 427800, Note_on_c, 4, 76, 105
6, 427920, Note_on_c, 4, 76, 0
6, 427920, Note_on_c, 4, 60, 0
6, 427920, Note_on_c, 4, 72, 105
6, 427920, Note_on_c, 4, 52, 105
6, 428040, Note_on_c, 4, 72, 0
6, 428040, Note_on_c, 4, 67, 105
6, 428160, Note_on_c, 4, 67, 0
6, 428160, Note_on_c, 4, 52, 0
6, 428160, Note_on_c, 4, 65, 105
6, 428160, Note_on_c, 4, 50, 105
6, 428400, Note_on_c, 4, 50, 0
6, 428400, Note_on_c, 4, 65, 0
6, 428400, Note_on_c, 4, 77, 105
6, 428400, Note_on_c, 4, 62, 105
6, 428520, Note_on_c, 4, 62, 0
6, 428520, Note_on_c, 4, 77, 0
6, 428520, Note_on_c, 4, 79, 105
6, 428520, Note_on_c, 4, 64, 105
6, 428640, Note_on_c, 4, 64, 0
6, 428640, Note_on_c, 4, 79, 0
6, 428640, Note_on_c, 4, 81, 105
6, 428640, Note_on_c, 4, 65, 105
6, 428760, Note_on_c, 4, 65, 0
6, 428760, Note_on_c, 4, 81, 0
6, 428760, Note_on_c, 4, 79, 105
6, 428760, Note_on_c, 4, 64, 105
6, 428880, Note_on_c, 4, 64, 0
6, 428880, Note_on_c, 4, 79, 0
6, 428880, Note_on_c, 4, 77, 105
6, 428880, Note_on_c, 4, 62, 105
6, 429000, Note_on_c, 4, 62, 0
6, 429000, Note_on_c, 4, 77, 0
6, 429000, Note_on_c, 4, 76, 105
6, 429000, Note_on_c, 4, 60, 105
6, 429120, Note_on_c, 4, 60, 0
6, 429120, Note_on_c, 4, 76, 0
6, 429120, Note_on_c, 4, 74, 105
6, 429120, Note_on_c, 4, 59, 105
6, 429240, Note_on_c, 4, 59, 0
6, 429240, Note_on_c, 4, 74, 0
6, 429240, Note_on_c, 4, 76, 105
6, 429240, Note_on_c, 4, 60, 105
6, 429360, Note_on_c, 4, 60, 0
6, 429360, Note_on_c, 4, 76, 0
6, 429360, Note_on_c, 4, 74, 105
6, 429360, Note_on_c, 4, 59, 105
6, 429480, Note_on_c, 4, 59, 0
6, 429480, Note_on_c, 4, 74, 0
6, 429480, Note_on_c, 4, 72, 105
6, 429480, Note_on_c, 4, 57, 105
6, 429600, Note_on_c, 4, 57, 0
6, 429600, Note_on_c, 4, 72, 0
6, 429600, Note_on_c, 4, 71, 105
6, 429600, Note_on_c, 4, 55, 105
6, 429720, Note_on_c, 4, 55, 0
6, 429720, Note_on_c, 4, 71, 0
6, 429720, Note_on_c, 4, 69, 105
6, 429720, Note_on_c, 4, 53, 105
6, 429840, Note_on_c, 4, 53, 0
6, 429840, Note_on_c, 4, 69, 0
6, 429840, Note_on_c, 4, 67, 105
6, 429840, Note_on_c, 4, 52, 105
6, 429960, Note_on_c, 4, 52, 0
6, 429960, Note_on_c, 4, 67, 0
6, 429960, Note_on_c, 4, 65, 105
6, 429960, Note_on_c, 4, 50, 105
6, 430080, Note_on_c, 4, 50, 0
6, 430080, Note_on_c, 4, 65, 0
6, 430080, Note_on_c, 4, 64, 105
6, 430080, Note_on_c, 4, 48, 105
6, 430320, Note_on_c, 4, 48, 0
6, 430320, Note_on_c, 4, 64, 0
6, 430320, Note_on_c, 4, 76, 105
6, 430320, Note_on_c, 4, 60, 105
6, 430440, Note_on_c, 4, 60, 0
6, 430440, Note_on_c, 4, 76, 0
6, 430440, Note_on_c, 4, 77, 105
6, 430440, Note_on_c, 4, 62, 105
6, 430560, Note_on_c, 4, 62, 0
6, 430560, Note_on_c, 4, 77, 0
6, 430560, Note_on_c, 4, 79, 105
6, 430560, Note_on_c, 4, 64, 105
6, 430680, Note_on_c, 4, 64, 0
6, 430680, Note_on_c, 4, 79, 0
6, 430680, Note_on_c, 4, 77, 105
6, 430680, Note_on_c, 4, 62, 105
6, 430800, Note_on_c, 4, 62, 0
6, 430800, Note_on_c, 4, 77, 0
6, 430800, Note_on_c, 4, 76, 105
6, 430800, Note_on_c, 4, 60, 105
6, 430920, Note_on_c, 4, 60, 0
6, 430920, Note_on_c, 4, 76, 0
6, 430920, Note_on_c, 4, 74, 105
6, 430920, Note_on_c, 4, 59, 105
6, 431040, Note_on_c, 4, 59, 0
6, 431040, Note_on_c, 4, 74, 0
6, 431040, Note_on_c, 4, 72, 105
6, 431040, Note_on_c, 4, 57, 105
6, 431160, Note_on_c, 4, 57, 0
6, 431160, Note_on_c, 4, 72, 0
6, 431160, Note_on_c, 4, 74, 105
6, 431160, Note_on_c, 4, 59, 105
6, 431280, Note_on_c, 4, 59, 0
6, 431280, Note_on_c, 4, 74, 0
6, 431280, Note_on_c, 4, 72, 105
6, 431280, Note_on_c, 4, 57, 105
6, 431400, Note_on_c, 4, 57, 0
6, 431400, Note_on_c, 4, 72, 0
6, 431400, Note_on_c, 4, 71, 105
6, 431400, Note_on_c, 4, 55, 105
6, 431520, Note_on_c, 4, 55, 0
6, 431520, Note_on_c, 4, 71, 0
6, 431520, Note_on_c, 4, 69, 105
6, 431520, Note_on_c, 4, 53, 105
6, 431640, Note_on_c, 4, 53, 0
6, 431640, Note_on_c, 4, 69, 0
6, 431640, Note_on_c, 4, 67, 105
6, 431640, Note_on_c, 4, 52, 105
6, 431760, Note_on_c, 4, 52, 0
6, 431760, Note_on_c, 4, 67, 0
6, 431760, Note_on_c, 4, 65, 105
6, 431760, Note_on_c, 4, 50, 105
6, 431880, Note_on_c, 4, 50, 0
6, 431880, Note_on_c, 4, 65, 0
6, 431880, Note_on_c, 4, 64, 105
6, 431880, Note_on_c, 4, 48, 105
6, 432000, Note_on_c, 4, 48, 0
6, 432000, Note_on_c, 4, 64, 0
6, 432000, Note_on_c, 4, 69, 105
6, 432000, Note_on_c, 4, 53, 105
6, 432240, Note_on_c, 4, 53, 0
6, 432240, Note_on_c, 4, 69, 0
6, 432240, Note_on_c, 4, 76, 105
6, 432240, Note_on_c, 4, 65, 105
6, 432300, Note_on_c, 4, 76, 0
6, 432300, Note_on_c, 4, 74, 105
6, 432360, Note_on_c, 4, 74, 0
6, 432360, Note_on_c, 4, 73, 105
6, 432480, Note_on_c, 4, 73, 0
6, 432480, Note_on_c, 4, 65, 0
6, 432480, Note_on_c, 4, 74, 105
6, 432480, Note_on_c, 4, 53, 105
6, 432720, Note_on_c, 4, 53, 0
6, 432720, Note_on_c, 4, 74, 0
6, 432720, Note_on_c, 4, 77, 105
6, 432720, Note_on_c, 4, 65, 105
6, 432960, Note_on_c, 4, 65, 0
6, 432960, Note_on_c, 4, 77, 0
6, 432960, Note_on_c, 4, 76, 105
6, 432960, Note_on_c, 4, 55, 105
6, 433200, Note_on_c, 4, 55, 0
6, 433200, Note_on_c, 4, 76, 0
6, 433200, Note_on_c, 4, 74, 105
6, 433200, Note_on_c, 4, 67, 105
6, 433440, Note_on_c, 4, 67, 0
6, 433440, Note_on_c, 4, 74, 0
6, 433440, Note_on_c, 4, 72, 105
6, 433440, Note_on_c, 4, 55, 105
6, 433680, Note_on_c, 4, 55, 0
6, 433680, Note_on_c, 4, 72, 0
6, 433680, Note_on_c, 4, 71, 105
6, 433680, Note_on_c, 4, 67, 105
6, 433920, Note_on_c, 4, 67, 0
6, 433920, Note_on_c, 4, 71, 0
6, 433920, Note_on_c, 4, 72, 105
6, 433920, Note_on_c, 4, 48, 105
6, 433920, Note_on_c, 4, 60, 105
6, 434040, Note_on_c, 4, 72, 0
6, 434040, Note_on_c, 4, 76, 105
6, 434160, Note_on_c, 4, 76, 0
6, 434160, Note_on_c, 4, 60, 0
6, 434160, Note_on_c, 4, 48, 0
6, 434160, Note_on_c, 4, 74, 105
6, 434160, Note_on_c, 4, 50, 105
6, 434160, Note_on_c, 4, 62, 105
6, 434280, Note_on_c, 4, 74, 0
6, 434280, Note_on_c, 4, 77, 105
6, 434400, Note_on_c, 4, 77, 0
6, 434400, Note_on_c, 4, 62, 0
6, 434400, Note_on_c, 4, 50, 0
6, 434400, Note_on_c, 4, 76, 105
6, 434400, Note_on_c, 4, 52, 105
6, 434400, Note_on_c, 4, 64, 105
6, 434520, Note_on_c, 4, 76, 0
6, 434520, Note_on_c, 4, 79, 105
6, 434640, Note_on_c, 4, 79, 0
6, 434640, Note_on_c, 4, 64, 0
6, 434640, Note_on_c, 4, 52, 0
6, 434640, Note_on_c, 4, 77, 105
6, 434640, Note_on_c, 4, 53, 105
6, 434640, Note_on_c, 4, 65, 105
6, 434760, Note_on_c, 4, 77, 0
6, 434760, Note_on_c, 4, 81, 105
6, 434880, Note_on_c, 4, 81, 0
6, 434880, Note_on_c, 4, 65, 0
6, 434880, Note_on_c, 4, 53, 0
6, 434880, Note_on_c, 4, 79, 105
6, 434880, Note_on_c, 4, 55, 105
6, 434880, Note_on_c, 4, 67, 105
6, 435120, Note_on_c, 4, 79, 0
6, 435120, Note_on_c, 4, 81, 105
6, 435360, Note_on_c, 4, 81, 0
6, 435360, Note_on_c, 4, 67, 0
6, 435360, Note_on_c, 4, 55, 0
6, 435360, Note_on_c, 4, 83, 105
6, 435600, Note_on_c, 4, 83, 0
6, 435600, Note_on_c, 4, 84, 105
6, 435840, Note_on_c, 4, 84, 0
6, 435840, Note_on_c, 4, 77, 105
6, 435960, Note_on_c, 4, 77, 0
6, 435960, Note_on_c, 4, 79, 105
6, 436080, Note_on_c, 4, 79, 0
6, 436080, Note_on_c, 4, 77, 105
6, 436200, Note_on_c, 4, 77, 0
6, 436200, Note_on_c, 4, 79, 105
6, 436320, Note_on_c, 4, 79, 0
6, 436320, Note_on_c, 4, 77, 105
6, 436320, Note_on_c, 4, 62, 105
6, 436440, Note_on_c, 4, 62, 0
6, 436440, Note_on_c, 4, 60, 105
6, 436560, Note_on_c, 4, 60, 0
6, 436560, Note_on_c, 4, 59, 105
6, 436680, Note_on_c, 4, 59, 0
6, 436680, Note_on_c, 4, 57, 105
6, 436800, Note_on_c, 4, 57, 0
6, 436800, Note_on_c, 4, 77, 0
6, 436800, Note_on_c, 4, 89, 105
6, 436800, Note_on_c, 4, 55, 105
6, 436920, Note_on_c, 4, 89, 0
6, 436920, Note_on_c, 4, 88, 105
6, 437040, Note_on_c, 4, 88, 0
6, 437040, Note_on_c, 4, 89, 105
6, 437160, Note_on_c, 4, 89, 0
6, 437160, Note_on_c, 4, 88, 105
6, 437280, Note_on_c, 4, 88, 0
6, 437280, Note_on_c, 4, 55, 0
6, 437280, Note_on_c, 4, 89, 105
6, 437280, Note_on_c, 4, 67, 105
6, 437400, Note_on_c, 4, 67, 0
6, 437400, Note_on_c, 4, 65, 105
6, 437520, Note_on_c, 4, 65, 0
6, 437520, Note_on_c, 4, 64, 105
6, 437640, Note_on_c, 4, 64, 0
6, 437640, Note_on_c, 4, 62, 105
6, 437760, Note_on_c, 4, 62, 0
6, 437760, Note_on_c, 4, 89, 0
6, 437760, Note_on_c, 4, 79, 105
6, 437760, Note_on_c, 4, 60, 105
6, 437880, Note_on_c, 4, 79, 0
6, 437880, Note_on_c, 4, 78, 105
6, 438000, Note_on_c, 4, 78, 0
6, 438000, Note_on_c, 4, 79, 105
6, 438120, Note_on_c, 4, 79, 0
6, 438120, Note_on_c, 4, 78, 105
6, 438240, Note_on_c, 4, 78, 0
6, 438240, Note_on_c, 4, 60, 0
6, 438240, Note_on_c, 4, 79, 105
6, 438240, Note_on_c, 4, 55, 105
6, 438360, Note_on_c, 4, 55, 0
6, 438360, Note_on_c, 4, 53, 105
6, 438480, Note_on_c, 4, 53, 0
6, 438480, Note_on_c, 4, 52, 105
6, 438600, Note_on_c, 4, 52, 0
6, 438600, Note_on_c, 4, 50, 105
6, 438720, Note_on_c, 4, 50, 0
6, 438720, Note_on_c, 4, 79, 0
6, 438720, Note_on_c, 4, 88, 105
6, 438720, Note_on_c, 4, 48, 105
6, 438840, Note_on_c, 4, 88, 0
6, 438840, Note_on_c, 4, 87, 105
6, 438960, Note_on_c, 4, 87, 0
6, 438960, Note_on_c, 4, 88, 105
6, 439080, Note_on_c, 4, 88, 0
6, 439080, Note_on_c, 4, 87, 105
6, 439200, Note_on_c, 4, 87, 0
6, 439200, Note_on_c, 4, 48, 0
6, 439200, Note_on_c, 4, 88, 105
6, 439200, Note_on_c, 4, 60, 105
6, 439320, Note_on_c, 4, 60, 0
6, 439320, Note_on_c, 4, 59, 105
6, 439440, Note_on_c, 4, 59, 0
6, 439440, Note_on_c, 4, 57, 105
6, 439560, Note_on_c, 4, 57, 0
6, 439560, Note_on_c, 4, 55, 105
6, 439680, Note_on_c, 4, 55, 0
6, 439680, Note_on_c, 4, 88, 0
6, 439680, Note_on_c, 4, 53, 105
6, 439800, Note_on_c, 4, 53, 0
6, 439800, Note_on_c, 4, 57, 105
6, 439920, Note_on_c, 4, 57, 0
6, 439920, Note_on_c, 4, 62, 105
6, 440040, Note_on_c, 4, 62, 0
6, 440040, Note_on_c, 4, 65, 105
6, 440160, Note_on_c, 4, 65, 0
6, 440160, Note_on_c, 4, 69, 105
6, 440280, Note_on_c, 4, 69, 0
6, 440280, Note_on_c, 4, 74, 105
6, 440400, Note_on_c, 4, 74, 0
6, 440400, Note_on_c, 4, 77, 105
6, 440520, Note_on_c, 4, 77, 0
6, 440520, Note_on_c, 4, 81, 105
6, 440640, Note_on_c, 4, 81, 0
6, 440640, Note_on_c, 4, 79, 105
6, 440640, Note_on_c, 4, 67, 105
6, 440760, Note_on_c, 4, 79, 0
6, 440760, Note_on_c, 4, 76, 105
6, 440880, Note_on_c, 4, 76, 0
6, 440880, Note_on_c, 4, 67, 0
6, 440880, Note_on_c, 4, 77, 105
6, 441000, Note_on_c, 4, 77, 0
6, 441000, Note_on_c, 4, 74, 105
6, 441120, Note_on_c, 4, 74, 0
6, 441120, Note_on_c, 4, 76, 105
6, 441120, Note_on_c, 4, 55, 105
6, 441240, Note_on_c, 4, 76, 0
6, 441240, Note_on_c, 4, 72, 105
6, 441360, Note_on_c, 4, 72, 0
6, 441360, Note_on_c, 4, 55, 0
6, 441360, Note_on_c, 4, 74, 105
6, 441480, Note_on_c, 4, 74, 0
6, 441480, Note_on_c, 4, 71, 105
6, 441600, Note_on_c, 4, 71, 0
6, 441600, Note_on_c, 4, 72, 105
6, 441600, Note_on_c, 4, 60, 105
6, 441720, Note_on_c, 4, 72, 0
6, 441720, Note_on_c, 4, 67, 105
6, 441840, Note_on_c, 4, 67, 0
6, 441840, Note_on_c, 4, 69, 105
6, 441960, Note_on_c, 4, 69, 0
6, 441960, Note_on_c, 4, 65, 105
6, 442080, Note_on_c, 4, 65, 0
6, 442080, Note_on_c, 4, 60, 0
6, 442080, Note_on_c, 4, 67, 105
6, 442200, Note_on_c, 4, 67, 0
6, 442200, Note_on_c, 4, 64, 105
6, 442320, Note_on_c, 4, 64, 0
6, 442320, Note_on_c, 4, 65, 105
6, 442440, Note_on_c, 4, 65, 0
6, 442440, Note_on_c, 4, 62, 105
6, 442560, Note_on_c, 4, 62, 0
6, 442560, Note_on_c, 4, 60, 105
6, 442800, Note_on_c, 4, 60, 0
6, 442800, Note_on_c, 4, 55, 105
6, 443040, Note_on_c, 4, 55, 0
6, 443040, Note_on_c, 4, 62, 105
6, 443280, Note_on_c, 4, 62, 0
6, 443280, Note_on_c, 4, 55, 105
6, 443520, Note_on_c, 4, 55, 0
6, 443520, Note_on_c, 4, 64, 105
6, 443760, Note_on_c, 4, 64, 0
6, 443760, Note_on_c, 4, 55, 105
6, 444000, Note_on_c, 4, 55, 0
6, 444000, Note_on_c, 4, 64, 105
6, 444240, Note_on_c, 4, 64, 0
6, 444240, Note_on_c, 4, 55, 105
6, 444480, Note_on_c, 4, 55, 0
6, 444480, Note_on_c, 4, 60, 105
6, 444720, Note_on_c, 4, 60, 0
6, 444720, Note_on_c, 4, 55, 105
6, 444960, Note_on_c, 4, 55, 0
6, 444960, Note_on_c, 4, 62, 105
6, 445200, Note_on_c, 4, 62, 0
6, 445200, Note_on_c, 4, 55, 105
6, 445440, Note_on_c, 4, 55, 0
6, 445440, Note_on_c, 4, 64, 105
6, 445680, Note_on_c, 4, 64, 0
6, 445680, Note_on_c, 4, 55, 105
6, 445920, Note_on_c, 4, 55, 0
6, 445920, Note_on_c, 4, 64, 105
6, 446160, Note_on_c, 4, 64, 0
6, 446160, Note_on_c, 4, 55, 105
6, 446400, Note_on_c, 4, 55, 0
6, 446400, Note_on_c, 4, 60, 105
6, 446640, Note_on_c, 4, 60, 0
6, 446640, Note_on_c, 4, 55, 105
6, 446880, Note_on_c, 4, 55, 0
6, 446880, Note_on_c, 4, 62, 105
6, 447120, Note_on_c, 4, 62, 0
6, 447120, Note_on_c, 4, 55, 105
6, 447360, Note_on_c, 4, 55, 0
6, 447360, Note_on_c, 4, 64, 105
6, 447600, Note_on_c, 4, 64, 0
6, 447600, Note_on_c, 4, 55, 105
6, 447840, Note_on_c, 4, 55, 0
6, 447840, Note_on_c, 4, 62, 105
6, 448080, Note_on_c, 4, 62, 0
6, 448080, Note_on_c, 4, 55, 105
6, 448320, Note_on_c, 4, 55, 0
6, 448320, Note_on_c, 4, 60, 105
6, 448560, Note_on_c, 4, 60, 0
6, 448560, Note_on_c, 4, 55, 105
6, 448800, Note_on_c, 4, 55, 0
6, 448800, Note_on_c, 4, 59, 105
6, 449040, Note_on_c, 4, 59, 0
6, 449040, Note_on_c, 4, 55, 105
6, 449280, Note_on_c, 4, 55, 0
6, 449280, Note_on_c, 4, 60, 105
6, 449400, Note_on_c, 4, 60, 0
6, 449400, Note_on_c, 4, 55, 105
6, 449520, Note_on_c, 4, 55, 0
6, 449520, Note_on_c, 4, 57, 105
6, 449640, Note_on_c, 4, 57, 0
6, 449640, Note_on_c, 4, 59, 105
6, 449760, Note_on_c, 4, 59, 0
6, 449760, Note_on_c, 4, 60, 105
6, 449880, Note_on_c, 4, 60, 0
6, 449880, Note_on_c, 4, 62, 105
6, 450000, Note_on_c, 4, 62, 0
6, 450000, Note_on_c, 4, 64, 105
6, 450120, Note_on_c, 4, 64, 0
6, 450120, Note_on_c, 4, 62, 105
6, 450240, Note_on_c, 4, 62, 0
6, 450240, Note_on_c, 4, 77, 105
6, 450240, Note_on_c, 4, 60, 105
6, 450360, Note_on_c, 4, 77, 0
6, 450360, Note_on_c, 4, 76, 105
6, 450480, Note_on_c, 4, 76, 0
6, 450480, Note_on_c, 4, 60, 0
6, 450480, Note_on_c, 4, 74, 105
6, 450480, Note_on_c, 4, 55, 105
6, 450600, Note_on_c, 4, 74, 0
6, 450600, Note_on_c, 4, 76, 105
6, 450720, Note_on_c, 4, 76, 0
6, 450720, Note_on_c, 4, 55, 0
6, 450720, Note_on_c, 4, 79, 105
6, 450720, Note_on_c, 4, 62, 105
6, 450840, Note_on_c, 4, 79, 0
6, 450840, Note_on_c, 4, 77, 105
6, 450960, Note_on_c, 4, 77, 0
6, 450960, Note_on_c, 4, 62, 0
6, 450960, Note_on_c, 4, 76, 105
6, 450960, Note_on_c, 4, 55, 105
6, 451080, Note_on_c, 4, 76, 0
6, 451080, Note_on_c, 4, 77, 105
6, 451200, Note_on_c, 4, 77, 0
6, 451200, Note_on_c, 4, 55, 0
6, 451200, Note_on_c, 4, 79, 105
6, 451200, Note_on_c, 4, 64, 105
6, 451440, Note_on_c, 4, 64, 0
6, 451440, Note_on_c, 4, 79, 0
6, 451440, Note_on_c, 4, 84, 105
6, 451440, Note_on_c, 4, 55, 105
6, 451680, Note_on_c, 4, 55, 0
6, 451680, Note_on_c, 4, 84, 0
6, 451680, Note_on_c, 4, 79, 105
6, 451680, Note_on_c, 4, 64, 105
6, 451920, Note_on_c, 4, 64, 0
6, 451920, Note_on_c, 4, 79, 0
6, 451920, Note_on_c, 4, 79, 105
6, 451920, Note_on_c, 4, 55, 105
6, 452160, Note_on_c, 4, 55, 0
6, 452160, Note_on_c, 4, 79, 0
6, 452160, Note_on_c, 4, 77, 105
6, 452160, Note_on_c, 4, 60, 105
6, 452280, Note_on_c, 4, 77, 0
6, 452280, Note_on_c, 4, 76, 105
6, 452400, Note_on_c, 4, 76, 0
6, 452400, Note_on_c, 4, 60, 0
6, 452400, Note_on_c, 4, 74, 105
6, 452400, Note_on_c, 4, 55, 105
6, 452520, Note_on_c, 4, 74, 0
6, 452520, Note_on_c, 4, 76, 105
6, 452640, Note_on_c, 4, 76, 0
6, 452640, Note_on_c, 4, 55, 0
6, 452640, Note_on_c, 4, 79, 105
6, 452640, Note_on_c, 4, 62, 105
6, 452760, Note_on_c, 4, 79, 0
6, 452760, Note_on_c, 4, 77, 105
6, 452880, Note_on_c, 4, 77, 0
6, 452880, Note_on_c, 4, 62, 0
6, 452880, Note_on_c, 4, 76, 105
6, 452880, Note_on_c, 4, 55, 105
6, 453000, Note_on_c, 4, 76, 0
6, 453000, Note_on_c, 4, 77, 105
6, 453120, Note_on_c, 4, 77, 0
6, 453120, Note_on_c, 4, 55, 0
6, 453120, Note_on_c, 4, 79, 105
6, 453120, Note_on_c, 4, 64, 105
6, 453240, Note_on_c, 4, 79, 0
6, 453240, Note_on_c, 4, 84, 105
6, 453360, Note_on_c, 4, 84, 0
6, 453360, Note_on_c, 4, 64, 0
6, 453360, Note_on_c, 4, 88, 105
6, 453360, Note_on_c, 4, 55, 105
6, 453480, Note_on_c, 4, 88, 0
6, 453480, Note_on_c, 4, 84, 105
6, 453600, Note_on_c, 4, 84, 0
6, 453600, Note_on_c, 4, 55, 0
6, 453600, Note_on_c, 4, 79, 105
6, 453600, Note_on_c, 4, 64, 105
6, 453840, Note_on_c, 4, 64, 0
6, 453840, Note_on_c, 4, 79, 0
6, 453840, Note_on_c, 4, 79, 105
6, 453840, Note_on_c, 4, 55, 105
6, 454080, Note_on_c, 4, 55, 0
6, 454080, Note_on_c, 4, 79, 0
6, 454080, Note_on_c, 4, 77, 105
6, 454080, Note_on_c, 4, 60, 105
6, 454200, Note_on_c, 4, 77, 0
6, 454200, Note_on_c, 4, 76, 105
6, 454320, Note_on_c, 4, 76, 0
6, 454320, Note_on_c, 4, 60, 0
6, 454320, Note_on_c, 4, 74, 105
6, 454320, Note_on_c, 4, 55, 105
6, 454440, Note_on_c, 4, 74, 0
6, 454440, Note_on_c, 4, 76, 105
6, 454560, Note_on_c, 4, 76, 0
6, 454560, Note_on_c, 4, 55, 0
6, 454560, Note_on_c, 4, 79, 105
6, 454560, Note_on_c, 4, 62, 105
6, 454680, Note_on_c, 4, 79, 0
6, 454680, Note_on_c, 4, 77, 105
6, 454800, Note_on_c, 4, 77, 0
6, 454800, Note_on_c, 4, 62, 0
6, 454800, Note_on_c, 4, 76, 105
6, 454800, Note_on_c, 4, 55, 105
6, 454920, Note_on_c, 4, 76, 0
6, 454920, Note_on_c, 4, 77, 105
6, 455040, Note_on_c, 4, 77, 0
6, 455040, Note_on_c, 4, 55, 0
6, 455040, Note_on_c, 4, 79, 105
6, 455040, Note_on_c, 4, 64, 105
6, 455160, Note_on_c, 4, 79, 0
6, 455160, Note_on_c, 4, 76, 105
6, 455280, Note_on_c, 4, 76, 0
6, 455280, Note_on_c, 4, 64, 0
6, 455280, Note_on_c, 4, 79, 105
6, 455280, Note_on_c, 4, 55, 105
6, 455400, Note_on_c, 4, 79, 0
6, 455400, Note_on_c, 4, 76, 105
6, 455520, Note_on_c, 4, 76, 0
6, 455520, Note_on_c, 4, 55, 0
6, 455520, Note_on_c, 4, 77, 105
6, 455520, Note_on_c, 4, 62, 105
6, 455640, Note_on_c, 4, 77, 0
6, 455640, Note_on_c, 4, 74, 105
6, 455760, Note_on_c, 4, 74, 0
6, 455760, Note_on_c, 4, 62, 0
6, 455760, Note_on_c, 4, 77, 105
6, 455760, Note_on_c, 4, 55, 105
6, 455880, Note_on_c, 4, 77, 0
6, 455880, Note_on_c, 4, 74, 105
6, 456000, Note_on_c, 4, 74, 0
6, 456000, Note_on_c, 4, 55, 0
6, 456000, Note_on_c, 4, 76, 105
6, 456000, Note_on_c, 4, 60, 105
6, 456120, Note_on_c, 4, 76, 0
6, 456120, Note_on_c, 4, 72, 105
6, 456240, Note_on_c, 4, 72, 0
6, 456240, Note_on_c, 4, 60, 0
6, 456240, Note_on_c, 4, 76, 105
6, 456240, Note_on_c, 4, 55, 105
6, 456360, Note_on_c, 4, 76, 0
6, 456360, Note_on_c, 4, 72, 105
6, 456480, Note_on_c, 4, 72, 0
6, 456480, Note_on_c, 4, 55, 0
6, 456480, Note_on_c, 4, 74, 105
6, 456480, Note_on_c, 4, 59, 105
6, 456600, Note_on_c, 4, 74, 0
6, 456600, Note_on_c, 4, 71, 105
6, 456720, Note_on_c, 4, 71, 0
6, 456720, Note_on_c, 4, 59, 0
6, 456720, Note_on_c, 4, 74, 105
6, 456720, Note_on_c, 4, 55, 105
6, 456840, Note_on_c, 4, 74, 0
6, 456840, Note_on_c, 4, 71, 105
6, 456960, Note_on_c, 4, 71, 0
6, 456960, Note_on_c, 4, 55, 0
6, 456960, Note_on_c, 4, 67, 105
6, 456960, Note_on_c, 4, 52, 105
6, 457080, Note_on_c, 4, 52, 0
6, 457080, Note_on_c, 4, 67, 0
6, 457080, Note_on_c, 4, 72, 105
6, 457080, Note_on_c, 4, 55, 105
6, 457200, Note_on_c, 4, 55, 0
6, 457200, Note_on_c, 4, 72, 0
6, 457200, Note_on_c, 4, 76, 105
6, 457200, Note_on_c, 4, 60, 105
6, 457320, Note_on_c, 4, 60, 0
6, 457320, Note_on_c, 4, 76, 0
6, 457320, Note_on_c, 4, 79, 105
6, 457320, Note_on_c, 4, 64, 105
6, 457440, Note_on_c, 4, 64, 0
6, 457440, Note_on_c, 4, 79, 0
6, 457440, Note_on_c, 4, 77, 105
6, 457560, Note_on_c, 4, 77, 0
6, 457560, Note_on_c, 4, 76, 105
6, 457680, Note_on_c, 4, 76, 0
6, 457680, Note_on_c, 4, 74, 105
6, 457800, Note_on_c, 4, 74, 0
6, 457800, Note_on_c, 4, 72, 105
6, 457920, Note_on_c, 4, 72, 0
6, 457920, Note_on_c, 4, 69, 105
6, 457920, Note_on_c, 4, 53, 105
6, 458040, Note_on_c, 4, 53, 0
6, 458040, Note_on_c, 4, 69, 0
6, 458040, Note_on_c, 4, 74, 105
6, 458040, Note_on_c, 4, 57, 105
6, 458160, Note_on_c, 4, 57, 0
6, 458160, Note_on_c, 4, 74, 0
6, 458160, Note_on_c, 4, 77, 105
6, 458160, Note_on_c, 4, 62, 105
6, 458280, Note_on_c, 4, 62, 0
6, 458280, Note_on_c, 4, 77, 0
6, 458280, Note_on_c, 4, 81, 105
6, 458280, Note_on_c, 4, 65, 105
6, 458400, Note_on_c, 4, 65, 0
6, 458400, Note_on_c, 4, 81, 0
6, 458400, Note_on_c, 4, 79, 105
6, 458520, Note_on_c, 4, 79, 0
6, 458520, Note_on_c, 4, 77, 105
6, 458640, Note_on_c, 4, 77, 0
6, 458640, Note_on_c, 4, 76, 105
6, 458760, Note_on_c, 4, 76, 0
6, 458760, Note_on_c, 4, 74, 105
6, 458880, Note_on_c, 4, 74, 0
6, 458880, Note_on_c, 4, 43, 105
6, 459000, Note_on_c, 4, 76, 105
6, 459120, Note_on_c, 4, 76, 0
6, 459120, Note_on_c, 4, 43, 0
6, 459120, Note_on_c, 4, 79, 105
6, 459240, Note_on_c, 4, 79, 0
6, 459240, Note_on_c, 4, 76, 105
6, 459360, Note_on_c, 4, 76, 0
6, 459360, Note_on_c, 4, 55, 105
6, 459360, Note_on_c, 4, 64, 105
6, 459480, Note_on_c, 4, 72, 105
6, 459600, Note_on_c, 4, 72, 0
6, 459600, Note_on_c, 4, 64, 0
6, 459600, Note_on_c, 4, 55, 0
6, 459600, Note_on_c, 4, 76, 105
6, 459720, Note_on_c, 4, 76, 0
6, 459720, Note_on_c, 4, 72, 105
6, 459840, Note_on_c, 4, 72, 0
6, 459840, Note_on_c, 4, 55, 105
6, 459840, Note_on_c, 4, 65, 105
6, 459960, Note_on_c, 4, 74, 105
6, 460080, Note_on_c, 4, 74, 0
6, 460080, Note_on_c, 4, 65, 0
6, 460080, Note_on_c, 4, 55, 0
6, 460080, Note_on_c, 4, 77, 105
6, 460200, Note_on_c, 4, 77, 0
6, 460200, Note_on_c, 4, 74, 105
6, 460320, Note_on_c, 4, 74, 0
6, 460320, Note_on_c, 4, 55, 105
6, 460320, Note_on_c, 4, 62, 105
6, 460440, Note_on_c, 4, 71, 105
6, 460560, Note_on_c, 4, 71, 0
6, 460560, Note_on_c, 4, 62, 0
6, 460560, Note_on_c, 4, 55, 0
6, 460560, Note_on_c, 4, 74, 105
6, 460680, Note_on_c, 4, 74, 0
6, 460680, Note_on_c, 4, 71, 113
6, 460720, Note_on_c, 4, 52, 115
6, 460739, Note_on_c, 4, 71, 0
6, 460740, Note_on_c, 4, 55, 117
6, 460760, Note_on_c, 4, 60, 120
6, 460780, Note_on_c, 4, 64, 120
6, 460800, Note_on_c, 4, 67, 122
6, 460820, Note_on_c, 4, 72, 123
6, 460840, Note_on_c, 4, 76, 125
6, 460860, Note_on_c, 4, 79, 125
6, 461260, Note_on_c, 4, 64, 0
6, 461279, Note_on_c, 4, 76, 0
6, 461280, Note_on_c, 4, 67, 0
6, 461284, Note_on_c, 4, 79, 0
6, 461289, Note_on_c, 4, 60, 0
6, 461289, Note_on_c, 4, 72, 0
6, 461289, Note_on_c, 4, 52, 0
6, 461289, Note_on_c, 4, 55, 0
6, 461680, Note_on_c, 4, 53, 115
6, 461700, Note_on_c, 4, 57, 116
6, 461720, Note_on_c, 4, 60, 118
6, 461740, Note_on_c, 4, 65, 124
6, 461760, Note_on_c, 4, 69, 125
6, 461780, Note_on_c, 4, 72, 125
6, 461800, Note_on_c, 4, 77, 127
6, 461820, Note_on_c, 4, 81, 127
6, 462239, Note_on_c, 4, 77, 0
6, 462239, Note_on_c, 4, 57, 0
6, 462240, Note_on_c, 4, 69, 0
6, 462249, Note_on_c, 4, 53, 0
6, 462249, Note_on_c, 4, 65, 0
6, 462249, Note_on_c, 4, 60, 0
6, 462254, Note_on_c, 4, 72, 0
6, 462264, Note_on_c, 4, 81, 0
6, 462720, Note_on_c, 4, 43, 105
6, 462840, Note_on_c, 4, 43, 0
6, 462840, Note_on_c, 4, 48, 105
6, 462960, Note_on_c, 4, 48, 0
6, 462960, Note_on_c, 4, 52, 105
6, 463080, Note_on_c, 4, 52, 0
6, 463080, Note_on_c, 4, 55, 105
6, 463200, Note_on_c, 4, 55, 0
6, 463200, Note_on_c, 4, 64, 105
6, 463320, Note_on_c, 4, 64, 0
6, 463320, Note_on_c, 4, 67, 105
6, 463440, Note_on_c, 4, 67, 0
6, 463440, Note_on_c, 4, 72, 105
6, 463560, Note_on_c, 4, 72, 0
6, 463560, Note_on_c, 4, 76, 105
6, 463680, Note_on_c, 4, 76, 0
6, 463680, Note_on_c, 4, 55, 105
6, 463800, Note_on_c, 4, 55, 0
6, 463800, Note_on_c, 4, 60, 105
6, 463920, Note_on_c, 4, 60, 0
6, 463920, Note_on_c, 4, 64, 105
6, 464040, Note_on_c, 4, 64, 0
6, 464040, Note_on_c, 4, 67, 105
6, 464160, Note_on_c, 4, 67, 0
6, 464160, Note_on_c, 4, 72, 105
6, 464280, Note_on_c, 4, 72, 0
6, 464280, Note_on_c, 4, 76, 105
6, 464400, Note_on_c, 4, 76, 0
6, 464400, Note_on_c, 4, 79, 105
6, 464520, Note_on_c, 4, 79, 0
6, 464520, Note_on_c, 4, 84, 105
6, 464640, Note_on_c, 4, 84, 0
6, 464640, Note_on_c, 4, 83, 105
6, 464760, Note_on_c, 4, 83, 0
6, 464760, Note_on_c, 4, 79, 105
6, 464880, Note_on_c, 4, 79, 0
6, 464880, Note_on_c, 4, 77, 105
6, 465000, Note_on_c, 4, 77, 0
6, 465000, Note_on_c, 4, 74, 105
6, 465120, Note_on_c, 4, 74, 0
6, 465120, Note_on_c, 4, 65, 105
6, 465240, Note_on_c, 4, 65, 0
6, 465240, Note_on_c, 4, 62, 105
6, 465360, Note_on_c, 4, 62, 0
6, 465360, Note_on_c, 4, 59, 105
6, 465480, Note_on_c, 4, 59, 0
6, 465480, Note_on_c, 4, 55, 105
6, 465600, Note_on_c, 4, 55, 0
6, 465600, Note_on_c, 4, 77, 105
6, 465720, Note_on_c, 4, 77, 0
6, 465720, Note_on_c, 4, 74, 105
6, 465840, Note_on_c, 4, 74, 0
6, 465840, Note_on_c, 4, 71, 105
6, 465960, Note_on_c, 4, 71, 0
6, 465960, Note_on_c, 4, 67, 105
6, 466080, Note_on_c, 4, 67, 0
6, 466080, Note_on_c, 4, 53, 105
6, 466200, Note_on_c, 4, 53, 0
6, 466200, Note_on_c, 4, 50, 105
6, 466320, Note_on_c, 4, 50, 0
6, 466320, Note_on_c, 4, 47, 105
6, 466440, Note_on_c, 4, 47, 0
6, 466440, Note_on_c, 4, 43, 105
6, 466560, Note_on_c, 4, 43, 0
6, 466560, Note_on_c, 4, 64, 105
6, 466560, Note_on_c, 4, 67, 105
6, 466560, Note_on_c, 4, 72, 105
6, 466560, Note_on_c, 4, 36, 105
6, 466560, Note_on_c, 4, 48, 105
6, 467040, Note_on_c, 4, 48, 0
6, 467040, Note_on_c, 4, 72, 0
6, 467040, Note_on_c, 4, 64, 0
6, 467040, Note_on_c, 4, 67, 0
6, 467040, Note_on_c, 4, 36, 0
6, 480000, Note_on_c, 4, 76, 105
6, 480000, Note_on_c, 4, 43, 105
6, 480000, Note_on_c, 4, 55, 105
6, 480480, Note_on_c, 4, 55, 0
6, 480480, Note_on_c, 4, 43, 0
6, 480480, Note_on_c, 4, 76, 0
6, 480720, Note_on_c, 4, 72, 105
6, 480960, Note_on_c, 4, 72, 0
6, 480960, Note_on_c, 4, 76, 105
6, 481080, Note_on_c, 4, 76, 0
6, 481080, Note_on_c, 4, 74, 105
6, 481200, Note_on_c, 4, 74, 0
6, 481200, Note_on_c, 4, 76, 105
6, 481260, Note_on_c, 4, 76, 0
6, 481260, Note_on_c, 4, 74, 105
6, 481320, Note_on_c, 4, 74, 0
6, 481320, Note_on_c, 4, 76, 105
6, 481348, Note_on_c, 4, 76, 0
6, 481348, Note_on_c, 4, 74, 105
6, 481380, Note_on_c, 4, 74, 0
6, 481380, Note_on_c, 4, 76, 105
6, 481408, Note_on_c, 4, 76, 0
6, 481408, Note_on_c, 4, 74, 105
6, 481440, Note_on_c, 4, 74, 0
6, 481440, Note_on_c, 4, 76, 105
6, 481468, Note_on_c, 4, 76, 0
6, 481468, Note_on_c, 4, 74, 105
6, 481500, Note_on_c, 4, 74, 0
6, 481500, Note_on_c, 4, 76, 105
6, 481528, Note_on_c, 4, 76, 0
6, 481528, Note_on_c, 4, 74, 105
6, 481560, Note_on_c, 4, 74, 0
6, 481560, Note_on_c, 4, 76, 105
6, 481588, Note_on_c, 4, 76, 0
6, 481588, Note_on_c, 4, 74, 105
6, 481620, Note_on_c, 4, 74, 0
6, 481620, Note_on_c, 4, 76, 105
6, 481648, Note_on_c, 4, 76, 0
6, 481648, Note_on_c, 4, 74, 105
6, 481680, Note_on_c, 4, 74, 0
6, 481680, Note_on_c, 4, 72, 105
6, 481800, Note_on_c, 4, 72, 0
6, 481800, Note_on_c, 4, 74, 105
6, 481828, Note_on_c, 4, 48, 105
6, 481860, Note_on_c, 4, 52, 105
6, 481888, Note_on_c, 4, 55, 105
6, 481920, Note_on_c, 4, 74, 0
6, 481920, Note_on_c, 4, 72, 105
6, 481920, Note_on_c, 4, 60, 105
6, 482400, Note_on_c, 4, 60, 0
6, 482400, Note_on_c, 4, 48, 0
6, 482400, Note_on_c, 4, 55, 0
6, 482400, Note_on_c, 4, 52, 0
6, 482400, Note_on_c, 4, 72, 0
6, 503040, Note_on_c, 4, 79, 89
6, 503040, Note_on_c, 4, 72, 89
6, 503040, Note_on_c, 4, 76, 89
6, 503040, Note_on_c, 4, 64, 89
6, 503040, Note_on_c, 4, 60, 89
6, 503160, Note_on_c, 4, 64, 0
6, 503160, Note_on_c, 4, 79, 0
6, 503160, Note_on_c, 4, 84, 89
6, 503160, Note_on_c, 4, 67, 89
6, 503280, Note_on_c, 4, 67, 0
6, 503280, Note_on_c, 4, 72, 0
6, 503280, Note_on_c, 4, 60, 0
6, 503280, Note_on_c, 4, 76, 0
6, 503280, Note_on_c, 4, 84, 0
6, 503280, Note_on_c, 4, 79, 89
6, 503280, Note_on_c, 4, 72, 89
6, 503280, Note_on_c, 4, 76, 89
6, 503280, Note_on_c, 4, 64, 89
6, 503280, Note_on_c, 4, 60, 89
6, 503400, Note_on_c, 4, 64, 0
6, 503400, Note_on_c, 4, 79, 0
6, 503400, Note_on_c, 4, 84, 89
6, 503400, Note_on_c, 4, 67, 89
6, 503520, Note_on_c, 4, 67, 0
6, 503520, Note_on_c, 4, 72, 0
6, 503520, Note_on_c, 4, 60, 0
6, 503520, Note_on_c, 4, 76, 0
6, 503520, Note_on_c, 4, 84, 0
6, 503520, Note_on_c, 4, 79, 89
6, 503520, Note_on_c, 4, 72, 89
6, 503520, Note_on_c, 4, 76, 89
6, 503520, Note_on_c, 4, 64, 89
6, 503520, Note_on_c, 4, 60, 89
6, 503640, Note_on_c, 4, 64, 0
6, 503640, Note_on_c, 4, 79, 0
6, 503640, Note_on_c, 4, 84, 89
6, 503640, Note_on_c, 4, 67, 89
6, 503760, Note_on_c, 4, 67, 0
6, 503760, Note_on_c, 4, 72, 0
6, 503760, Note_on_c, 4, 60, 0
6, 503760, Note_on_c, 4, 76, 0
6, 503760, Note_on_c, 4, 84, 0
6, 503760, Note_on_c, 4, 79, 89
6, 503760, Note_on_c, 4, 72, 89
6, 503760, Note_on_c, 4, 76, 89
6, 503760, Note_on_c, 4, 64, 89
6, 503760, Note_on_c, 4, 60, 89
6, 503880, Note_on_c, 4, 64, 0
6, 503880, Note_on_c, 4, 79, 0
6, 503880, Note_on_c, 4, 84, 89
6, 503880, Note_on_c, 4, 67, 89
6, 504000, Note_on_c, 4, 67, 0
6, 504000, Note_on_c, 4, 72, 0
6, 504000, Note_on_c, 4, 60, 0
6, 504000, Note_on_c, 4, 76, 0
6, 504000, Note_on_c, 4, 84, 0
6, 504000, Note_on_c, 4, 79, 89
6, 504000, Note_on_c, 4, 72, 89
6, 504000, Note_on_c, 4, 76, 89
6, 504000, Note_on_c, 4, 64, 89
6, 504000, Note_on_c, 4, 60, 89
6, 504120, Note_on_c, 4, 64, 0
6, 504120, Note_on_c, 4, 79, 0
6, 504120, Note_on_c, 4, 84, 89
6, 504120, Note_on_c, 4, 67, 89
6, 504240, Note_on_c, 4, 67, 0
6, 504240, Note_on_c, 4, 72, 0
6, 504240, Note_on_c, 4, 60, 0
6, 504240, Note_on_c, 4, 76, 0
6, 504240, Note_on_c, 4, 84, 0
6, 504240, Note_on_c, 4, 79, 89
6, 504240, Note_on_c, 4, 72, 89
6, 504240, Note_on_c, 4, 76, 89
6, 504240, Note_on_c, 4, 64, 89
6, 504240, Note_on_c, 4, 60, 89
6, 504360, Note_on_c, 4, 64, 0
6, 504360, Note_on_c, 4, 79, 0
6, 504360, Note_on_c, 4, 84, 90
6, 504360, Note_on_c, 4, 67, 90
6, 504480, Note_on_c, 4, 67, 0
6, 504480, Note_on_c, 4, 72, 0
6, 504480, Note_on_c, 4, 60, 0
6, 504480, Note_on_c, 4, 76, 0
6, 504480, Note_on_c, 4, 84, 0
6, 504480, Note_on_c, 4, 79, 90
6, 504480, Note_on_c, 4, 72, 90
6, 504480, Note_on_c, 4, 76, 90
6, 504480, Note_on_c, 4, 64, 90
6, 504480, Note_on_c, 4, 60, 90
6, 504600, Note_on_c, 4, 64, 0
6, 504600, Note_on_c, 4, 79, 0
6, 504600, Note_on_c, 4, 84, 90
6, 504600, Note_on_c, 4, 67, 90
6, 504720, Note_on_c, 4, 67, 0
6, 504720, Note_on_c, 4, 72, 0
6, 504720, Note_on_c, 4, 60, 0
6, 504720, Note_on_c, 4, 76, 0
6, 504720, Note_on_c, 4, 84, 0
6, 504720, Note_on_c, 4, 79, 90
6, 504720, Note_on_c, 4, 72, 90
6, 504720, Note_on_c, 4, 76, 90
6, 504720, Note_on_c, 4, 64, 90
6, 504720, Note_on_c, 4, 60, 90
6, 504840, Note_on_c, 4, 64, 0
6, 504840, Note_on_c, 4, 79, 0
6, 504840, Note_on_c, 4, 84, 90
6, 504840, Note_on_c, 4, 67, 90
6, 504960, Note_on_c, 4, 67, 0
6, 504960, Note_on_c, 4, 72, 0
6, 504960, Note_on_c, 4, 60, 0
6, 504960, Note_on_c, 4, 76, 0
6, 504960, Note_on_c, 4, 84, 0
6, 504960, Note_on_c, 4, 79, 90
6, 504960, Note_on_c, 4, 72, 90
6, 504960, Note_on_c, 4, 76, 90
6, 504960, Note_on_c, 4, 64, 90
6, 504960, Note_on_c, 4, 60, 90
6, 505080, Note_on_c, 4, 64, 0
6, 505080, Note_on_c, 4, 79, 0
6, 505080, Note_on_c, 4, 84, 90
6, 505080, Note_on_c, 4, 67, 90
6, 505200, Note_on_c, 4, 67, 0
6, 505200, Note_on_c, 4, 72, 0
6, 505200, Note_on_c, 4, 60, 0
6, 505200, Note_on_c, 4, 76, 0
6, 505200, Note_on_c, 4, 84, 0
6, 505200, Note_on_c, 4, 79, 90
6, 505200, Note_on_c, 4, 72, 90
6, 505200, Note_on_c, 4, 76, 90
6, 505200, Note_on_c, 4, 64, 90
6, 505200, Note_on_c, 4, 60, 90
6, 505320, Note_on_c, 4, 64, 0
6, 505320, Note_on_c, 4, 79, 0
6, 505320, Note_on_c, 4, 84, 90
6, 505320, Note_on_c, 4, 67, 90
6, 505440, Note_on_c, 4, 67, 0
6, 505440, Note_on_c, 4, 72, 0
6, 505440, Note_on_c, 4, 60, 0
6, 505440, Note_on_c, 4, 76, 0
6, 505440, Note_on_c, 4, 84, 0
6, 505440, Note_on_c, 4, 79, 90
6, 505440, Note_on_c, 4, 72, 90
6, 505440, Note_on_c, 4, 76, 90
6, 505440, Note_on_c, 4, 64, 90
6, 505440, Note_on_c, 4, 60, 90
6, 505560, Note_on_c, 4, 64, 0
6, 505560, Note_on_c, 4, 79, 0
6, 505560, Note_on_c, 4, 84, 90
6, 505560, Note_on_c, 4, 67, 90
6, 505680, Note_on_c, 4, 67, 0
6, 505680, Note_on_c, 4, 72, 0
6, 505680, Note_on_c, 4, 60, 0
6, 505680, Note_on_c, 4, 76, 0
6, 505680, Note_on_c, 4, 84, 0
6, 505680, Note_on_c, 4, 79, 91
6, 505680, Note_on_c, 4, 72, 91
6, 505680, Note_on_c, 4, 76, 91
6, 505680, Note_on_c, 4, 64, 91
6, 505680, Note_on_c, 4, 60, 91
6, 505800, Note_on_c, 4, 64, 0
6, 505800, Note_on_c, 4, 79, 0
6, 505800, Note_on_c, 4, 84, 91
6, 505800, Note_on_c, 4, 67, 91
6, 505920, Note_on_c, 4, 67, 0
6, 505920, Note_on_c, 4, 72, 0
6, 505920, Note_on_c, 4, 60, 0
6, 505920, Note_on_c, 4, 76, 0
6, 505920, Note_on_c, 4, 84, 0
6, 505920, Note_on_c, 4, 79, 91
6, 505920, Note_on_c, 4, 72, 91
6, 505920, Note_on_c, 4, 76, 91
6, 505920, Note_on_c, 4, 64, 91
6, 505920, Note_on_c, 4, 60, 91
6, 506040, Note_on_c, 4, 64, 0
6, 506040, Note_on_c, 4, 79, 0
6, 506040, Note_on_c, 4, 84, 91
6, 506040, Note_on_c, 4, 67, 91
6, 506160, Note_on_c, 4, 67, 0
6, 506160, Note_on_c, 4, 72, 0
6, 506160, Note_on_c, 4, 60, 0
6, 506160, Note_on_c, 4, 76, 0
6, 506160, Note_on_c, 4, 84, 0
6, 506160, Note_on_c, 4, 79, 91
6, 506160, Note_on_c, 4, 72, 91
6, 506160, Note_on_c, 4, 76, 91
6, 506160, Note_on_c, 4, 64, 91
6, 506160, Note_on_c, 4, 60, 91
6, 506280, Note_on_c, 4, 64, 0
6, 506280, Note_on_c, 4, 79, 0
6, 506280, Note_on_c, 4, 84, 91
6, 506280, Note_on_c, 4, 67, 91
6, 506400, Note_on_c, 4, 67, 0
6, 506400, Note_on_c, 4, 72, 0
6, 506400, Note_on_c, 4, 60, 0
6, 506400, Note_on_c, 4, 76, 0
6, 506400, Note_on_c, 4, 84, 0
6, 506400, Note_on_c, 4, 79, 91
6, 506400, Note_on_c, 4, 72, 91
6, 506400, Note_on_c, 4, 76, 91
6, 506400, Note_on_c, 4, 64, 91
6, 506400, Note_on_c, 4, 60, 91
6, 506520, Note_on_c, 4, 64, 0
6, 506520, Note_on_c, 4, 79, 0
6, 506520, Note_on_c, 4, 84, 91
6, 506520, Note_on_c, 4, 67, 91
6, 506640, Note_on_c, 4, 67, 0
6, 506640, Note_on_c, 4, 72, 0
6, 506640, Note_on_c, 4, 60, 0
6, 506640, Note_on_c, 4, 76, 0
6, 506640, Note_on_c, 4, 84, 0
6, 506640, Note_on_c, 4, 79, 91
6, 506640, Note_on_c, 4, 72, 91
6, 506640, Note_on_c, 4, 76, 91
6, 506640, Note_on_c, 4, 64, 91
6, 506640, Note_on_c, 4, 60, 91
6, 506760, Note_on_c, 4, 64, 0
6, 506760, Note_on_c, 4, 79, 0
6, 506760, Note_on_c, 4, 84, 91
6, 506760, Note_on_c, 4, 67, 91
6, 506880, Note_on_c, 4, 67, 0
6, 506880, Note_on_c, 4, 72, 0
6, 506880, Note_on_c, 4, 60, 0
6, 506880, Note_on_c, 4, 76, 0
6, 506880, Note_on_c, 4, 84, 0
6, 506880, Note_on_c, 4, 72, 91
6, 506880, Note_on_c, 4, 76, 91
6, 506880, Note_on_c, 4, 79, 91
6, 506880, Note_on_c, 4, 60, 91
6, 506880, Note_on_c, 4, 64, 91
6, 507360, Note_on_c, 4, 64, 0
6, 507360, Note_on_c, 4, 79, 0
6, 507360, Note_on_c, 4, 72, 0
6, 507360, Note_on_c, 4, 76, 0
6, 507360, Note_on_c, 4, 60, 0
6, 507360, Note_on_c, 4, 72, 105
6, 507360, Note_on_c, 4, 76, 105
6, 507360, Note_on_c, 4, 79, 105
6, 507360, Note_on_c, 4, 84, 105
6, 507360, Note_on_c, 4, 48, 105
6, 507360, Note_on_c, 4, 60, 105
6, 507840, Note_on_c, 4, 60, 0
6, 507840, Note_on_c, 4, 76, 0
6, 507840, Note_on_c, 4, 79, 0
6, 507840, Note_on_c, 4, 72, 0
6, 507840, Note_on_c, 4, 48, 0
6, 507840, Note_on_c, 4, 84, 0
6, 507840, Note_on_c, 4, 72, 105
6, 507840, Note_on_c, 4, 76, 105
6, 507840, Note_on_c, 4, 79, 105
6, 507840, Note_on_c, 4, 84, 105
6, 507840, Note_on_c, 4, 43, 105
6, 507840, Note_on_c, 4, 55, 105
6, 508320, Note_on_c, 4, 55, 0
6, 508320, Note_on_c, 4, 76, 0
6, 508320, Note_on_c, 4, 79, 0
6, 508320, Note_on_c, 4, 72, 0
6, 508320, Note_on_c, 4, 43, 0
6, 508320, Note_on_c, 4, 84, 0
6, 508320, Note_on_c, 4, 72, 105
6, 508320, Note_on_c, 4, 76, 105
6, 508320, Note_on_c, 4, 79, 105
6, 508320, Note_on_c, 4, 84, 105
6, 508320, Note_on_c, 4, 40, 105
6, 508320, Note_on_c, 4, 52, 105
6, 508800, Note_on_c, 4, 52, 0
6, 508800, Note_on_c, 4, 76, 0
6, 508800, Note_on_c, 4, 79, 0
6, 508800, Note_on_c, 4, 72, 0
6, 508800, Note_on_c, 4, 40, 0
6, 508800, Note_on_c, 4, 84, 0
6, 508800, Note_on_c, 4, 72, 105
6, 508800, Note_on_c, 4, 76, 105
6, 508800, Note_on_c, 4, 79, 105
6, 508800, Note_on_c, 4, 84, 105
6, 508800, Note_on_c, 4, 36, 105
6, 508800, Note_on_c, 4, 48, 105
6, 509280, Note_on_c, 4, 48, 0
6, 509280, Note_on_c, 4, 76, 0
6, 509280, Note_on_c, 4, 79, 0
6, 509280, Note_on_c, 4, 72, 0
6, 509280, Note_on_c, 4, 36, 0
6, 509280, Note_on_c, 4, 84, 0
6, 510720, System_exclusive, 0A, 41, 10, 42, 12, 40, 00, 7F, 00, 41, F7
6, 510720, End_track
7, 0, Start_track
7, 0, Title_t, "Violin I"
7, 0, Control_c, 5, 0, 0
7, 0, Control_c, 5, 7, 100
7, 0, Control_c, 5, 10, 30
7, 0, Control_c, 5, 91, 79
7, 0, Control_c, 5, 93, 91
7, 1, Control_c, 5, 32, 1
7, 2, Program_c, 5, 48
7, 1900, Note_on_c, 5, 84, 105
7, 2584, Note_on_c, 5, 84, 0
7, 2620, Note_on_c, 5, 79, 105
7, 2848, Note_on_c, 5, 79, 0
7, 2860, Note_on_c, 5, 76, 105
7, 3088, Note_on_c, 5, 76, 0
7, 3100, Note_on_c, 5, 72, 105
7, 3328, Note_on_c, 5, 72, 0
7, 3340, Note_on_c, 5, 76, 105
7, 3568, Note_on_c, 5, 76, 0
7, 3580, Note_on_c, 5, 79, 105
7, 3808, Note_on_c, 5, 79, 0
7, 3820, Note_on_c, 5, 84, 105
7, 4504, Note_on_c, 5, 84, 0
7, 4540, Note_on_c, 5, 79, 105
7, 4768, Note_on_c, 5, 79, 0
7, 4780, Note_on_c, 5, 76, 105
7, 5008, Note_on_c, 5, 76, 0
7, 5020, Note_on_c, 5, 72, 105
7, 5248, Note_on_c, 5, 72, 0
7, 5260, Note_on_c, 5, 76, 105
7, 5488, Note_on_c, 5, 76, 0
7, 5500, Note_on_c, 5, 79, 105
7, 5728, Note_on_c, 5, 79, 0
7, 5740, Note_on_c, 5, 84, 105
7, 6196, Note_on_c, 5, 84, 0
7, 6460, Note_on_c, 5, 60, 70
7, 6700, Note_on_c, 5, 60, 0
7, 6940, Note_on_c, 5, 59, 70
7, 7180, Note_on_c, 5, 59, 0
7, 7420, Note_on_c, 5, 60, 70
7, 7660, Note_on_c, 5, 60, 0
7, 7660, Note_on_c, 5, 62, 105
7, 7756, Note_on_c, 5, 62, 0
7, 7900, Note_on_c, 5, 62, 105
7, 7996, Note_on_c, 5, 62, 0
7, 8380, Note_on_c, 5, 62, 70
7, 8620, Note_on_c, 5, 62, 0
7, 8860, Note_on_c, 5, 61, 70
7, 9100, Note_on_c, 5, 61, 0
7, 9340, Note_on_c, 5, 62, 70
7, 9580, Note_on_c, 5, 62, 0
7, 9580, Note_on_c, 5, 64, 105
7, 9676, Note_on_c, 5, 64, 0
7, 9820, Note_on_c, 5, 64, 105
7, 9916, Note_on_c, 5, 64, 0
7, 10300, Note_on_c, 5, 64, 70
7, 10540, Note_on_c, 5, 64, 0
7, 10780, Note_on_c, 5, 63, 70
7, 11020, Note_on_c, 5, 63, 0
7, 11260, Note_on_c, 5, 64, 70
7, 11500, Note_on_c, 5, 64, 0
7, 11740, Note_on_c, 5, 65, 71
7, 11980, Note_on_c, 5, 65, 0
7, 12220, Note_on_c, 5, 67, 79
7, 12460, Note_on_c, 5, 67, 0
7, 12700, Note_on_c, 5, 69, 87
7, 12940, Note_on_c, 5, 69, 0
7, 13180, Note_on_c, 5, 71, 95
7, 13420, Note_on_c, 5, 71, 0
7, 13420, Note_on_c, 5, 72, 100
7, 13900, Note_on_c, 5, 72, 0
7, 13900, Note_on_c, 5, 84, 105
7, 13996, Note_on_c, 5, 84, 0
7, 14380, Note_on_c, 5, 83, 105
7, 14476, Note_on_c, 5, 83, 0
7, 14860, Note_on_c, 5, 81, 105
7, 14956, Note_on_c, 5, 81, 0
7, 15340, Note_on_c, 5, 79, 105
7, 16060, Note_on_c, 5, 79, 0
7, 16060, Note_on_c, 5, 77, 105
7, 16300, Note_on_c, 5, 77, 0
7, 16300, Note_on_c, 5, 76, 105
7, 16780, Note_on_c, 5, 76, 0
7, 17740, Note_on_c, 5, 81, 70
7, 17836, Note_on_c, 5, 81, 0
7, 18220, Note_on_c, 5, 79, 70
7, 18316, Note_on_c, 5, 79, 0
7, 18700, Note_on_c, 5, 77, 70
7, 18796, Note_on_c, 5, 77, 0
7, 19180, Note_on_c, 5, 76, 70
7, 19900, Note_on_c, 5, 76, 0
7, 19900, Note_on_c, 5, 74, 70
7, 20140, Note_on_c, 5, 74, 0
7, 20140, Note_on_c, 5, 72, 70
7, 20620, Note_on_c, 5, 72, 0
7, 21100, Note_on_c, 5, 74, 105
7, 21100, Note_on_c, 5, 77, 105
7, 21580, Note_on_c, 5, 77, 0
7, 21580, Note_on_c, 5, 74, 0
7, 21580, Note_on_c, 5, 77, 105
7, 21580, Note_on_c, 5, 86, 105
7, 22540, Note_on_c, 5, 86, 0
7, 22540, Note_on_c, 5, 77, 0
7, 22540, Note_on_c, 5, 74, 105
7, 22540, Note_on_c, 5, 77, 105
7, 23020, Note_on_c, 5, 77, 0
7, 23020, Note_on_c, 5, 74, 0
7, 23020, Note_on_c, 5, 72, 105
7, 23020, Note_on_c, 5, 76, 105
7, 23500, Note_on_c, 5, 76, 0
7, 23500, Note_on_c, 5, 72, 0
7, 23500, Note_on_c, 5, 76, 105
7, 23500, Note_on_c, 5, 84, 105
7, 24460, Note_on_c, 5, 84, 0
7, 24460, Note_on_c, 5, 76, 0
7, 24460, Note_on_c, 5, 72, 105
7, 24460, Note_on_c, 5, 76, 105
7, 24940, Note_on_c, 5, 76, 0
7, 24940, Note_on_c, 5, 72, 0
7, 24940, Note_on_c, 5, 74, 105
7, 25420, Note_on_c, 5, 74, 0
7, 25420, Note_on_c, 5, 79, 105
7, 25540, Note_on_c, 5, 79, 0
7, 25540, Note_on_c, 5, 77, 105
7, 25660, Note_on_c, 5, 77, 0
7, 25660, Note_on_c, 5, 76, 105
7, 25780, Note_on_c, 5, 76, 0
7, 25780, Note_on_c, 5, 74, 105
7, 25900, Note_on_c, 5, 74, 0
7, 25900, Note_on_c, 5, 72, 105
7, 26380, Note_on_c, 5, 72, 0
7, 26380, Note_on_c, 5, 71, 105
7, 26860, Note_on_c, 5, 71, 0
7, 26860, Note_on_c, 5, 72, 79
7, 26948, Note_on_c, 5, 72, 0
7, 26980, Note_on_c, 5, 76, 72
7, 27068, Note_on_c, 5, 76, 0
7, 27100, Note_on_c, 5, 74, 79
7, 27188, Note_on_c, 5, 74, 0
7, 27220, Note_on_c, 5, 77, 71
7, 27308, Note_on_c, 5, 77, 0
7, 27340, Note_on_c, 5, 76, 79
7, 27428, Note_on_c, 5, 76, 0
7, 27460, Note_on_c, 5, 79, 72
7, 27548, Note_on_c, 5, 79, 0
7, 27580, Note_on_c, 5, 77, 80
7, 27668, Note_on_c, 5, 77, 0
7, 27700, Note_on_c, 5, 81, 75
7, 27788, Note_on_c, 5, 81, 0
7, 27820, Note_on_c, 5, 79, 78
7, 27916, Note_on_c, 5, 79, 0
7, 28060, Note_on_c, 5, 81, 80
7, 28156, Note_on_c, 5, 81, 0
7, 28300, Note_on_c, 5, 83, 83
7, 28396, Note_on_c, 5, 83, 0
7, 28540, Note_on_c, 5, 84, 88
7, 28636, Note_on_c, 5, 84, 0
7, 28780, Note_on_c, 5, 74, 105
7, 28780, Note_on_c, 5, 77, 105
7, 29260, Note_on_c, 5, 77, 0
7, 29260, Note_on_c, 5, 74, 0
7, 29260, Note_on_c, 5, 77, 105
7, 29260, Note_on_c, 5, 86, 105
7, 30220, Note_on_c, 5, 86, 0
7, 30220, Note_on_c, 5, 77, 0
7, 30220, Note_on_c, 5, 74, 105
7, 30220, Note_on_c, 5, 77, 105
7, 30700, Note_on_c, 5, 77, 0
7, 30700, Note_on_c, 5, 74, 0
7, 30700, Note_on_c, 5, 72, 105
7, 30700, Note_on_c, 5, 76, 105
7, 31180, Note_on_c, 5, 76, 0
7, 31180, Note_on_c, 5, 72, 0
7, 31180, Note_on_c, 5, 76, 105
7, 31180, Note_on_c, 5, 84, 105
7, 32140, Note_on_c, 5, 84, 0
7, 32140, Note_on_c, 5, 76, 0
7, 32140, Note_on_c, 5, 72, 105
7, 32140, Note_on_c, 5, 76, 105
7, 32620, Note_on_c, 5, 76, 0
7, 32620, Note_on_c, 5, 72, 0
7, 32620, Note_on_c, 5, 74, 105
7, 32740, Note_on_c, 5, 74, 0
7, 32740, Note_on_c, 5, 77, 105
7, 32860, Note_on_c, 5, 77, 0
7, 32860, Note_on_c, 5, 76, 105
7, 32980, Note_on_c, 5, 76, 0
7, 32980, Note_on_c, 5, 79, 105
7, 33100, Note_on_c, 5, 79, 0
7, 33100, Note_on_c, 5, 77, 105
7, 33220, Note_on_c, 5, 77, 0
7, 33220, Note_on_c, 5, 81, 105
7, 33340, Note_on_c, 5, 81, 0
7, 33340, Note_on_c, 5, 79, 105
7, 33460, Note_on_c, 5, 79, 0
7, 33460, Note_on_c, 5, 82, 105
7, 33580, Note_on_c, 5, 82, 0
7, 33580, Note_on_c, 5, 81, 105
7, 33700, Note_on_c, 5, 81, 0
7, 33700, Note_on_c, 5, 79, 105
7, 33820, Note_on_c, 5, 79, 0
7, 33820, Note_on_c, 5, 77, 105
7, 33940, Note_on_c, 5, 77, 0
7, 33940, Note_on_c, 5, 76, 105
7, 34060, Note_on_c, 5, 76, 0
7, 34060, Note_on_c, 5, 74, 105
7, 34180, Note_on_c, 5, 74, 0
7, 34180, Note_on_c, 5, 72, 105
7, 34300, Note_on_c, 5, 72, 0
7, 34300, Note_on_c, 5, 71, 105
7, 34420, Note_on_c, 5, 71, 0
7, 34420, Note_on_c, 5, 72, 105
7, 34540, Note_on_c, 5, 72, 0
7, 34540, Note_on_c, 5, 62, 105
7, 34540, Note_on_c, 5, 71, 105
7, 34540, Note_on_c, 5, 79, 105
7, 35020, Note_on_c, 5, 79, 0
7, 35020, Note_on_c, 5, 71, 0
7, 35020, Note_on_c, 5, 62, 0
7, 35260, Note_on_c, 5, 74, 105
7, 35260, Note_on_c, 5, 83, 105
7, 35428, Note_on_c, 5, 83, 0
7, 35428, Note_on_c, 5, 74, 0
7, 35500, Note_on_c, 5, 76, 113
7, 35500, Note_on_c, 5, 84, 113
7, 35668, Note_on_c, 5, 84, 0
7, 35668, Note_on_c, 5, 76, 0
7, 35740, Note_on_c, 5, 76, 103
7, 35740, Note_on_c, 5, 84, 103
7, 35908, Note_on_c, 5, 84, 0
7, 35908, Note_on_c, 5, 76, 0
7, 35980, Note_on_c, 5, 76, 105
7, 35980, Note_on_c, 5, 84, 105
7, 36148, Note_on_c, 5, 84, 0
7, 36148, Note_on_c, 5, 76, 0
7, 36220, Note_on_c, 5, 76, 105
7, 36220, Note_on_c, 5, 84, 105
7, 36388, Note_on_c, 5, 84, 0
7, 36388, Note_on_c, 5, 76, 0
7, 36460, Note_on_c, 5, 74, 97
7, 36460, Note_on_c, 5, 83, 97
7, 36940, Note_on_c, 5, 83, 0
7, 36940, Note_on_c, 5, 74, 0
7, 37180, Note_on_c, 5, 74, 105
7, 37180, Note_on_c, 5, 83, 105
7, 37348, Note_on_c, 5, 83, 0
7, 37348, Note_on_c, 5, 74, 0
7, 37420, Note_on_c, 5, 76, 111
7, 37420, Note_on_c, 5, 84, 111
7, 37588, Note_on_c, 5, 84, 0
7, 37588, Note_on_c, 5, 76, 0
7, 37660, Note_on_c, 5, 76, 105
7, 37660, Note_on_c, 5, 84, 105
7, 37828, Note_on_c, 5, 84, 0
7, 37828, Note_on_c, 5, 76, 0
7, 37900, Note_on_c, 5, 76, 105
7, 37900, Note_on_c, 5, 84, 105
7, 38068, Note_on_c, 5, 84, 0
7, 38068, Note_on_c, 5, 76, 0
7, 38140, Note_on_c, 5, 76, 105
7, 38140, Note_on_c, 5, 84, 105
7, 38308, Note_on_c, 5, 84, 0
7, 38308, Note_on_c, 5, 76, 0
7, 38380, Note_on_c, 5, 74, 94
7, 38380, Note_on_c, 5, 83, 94
7, 38739, Note_on_c, 5, 83, 0
7, 38769, Note_on_c, 5, 74, 0
7, 38780, Note_on_c, 5, 62, 105
7, 38860, Note_on_c, 5, 79, 105
7, 38949, Note_on_c, 5, 62, 0
7, 39289, Note_on_c, 5, 79, 0
7, 39340, Note_on_c, 5, 55, 105
7, 39820, Note_on_c, 5, 55, 0
7, 40300, Note_on_c, 5, 64, 70
7, 40540, Note_on_c, 5, 60, 70
7, 40619, Note_on_c, 5, 64, 0
7, 40780, Note_on_c, 5, 64, 70
7, 40859, Note_on_c, 5, 60, 0
7, 41020, Note_on_c, 5, 60, 70
7, 41099, Note_on_c, 5, 64, 0
7, 41260, Note_on_c, 5, 64, 70
7, 41339, Note_on_c, 5, 60, 0
7, 41500, Note_on_c, 5, 60, 70
7, 41579, Note_on_c, 5, 64, 0
7, 41740, Note_on_c, 5, 64, 70
7, 41819, Note_on_c, 5, 60, 0
7, 41980, Note_on_c, 5, 60, 70
7, 42059, Note_on_c, 5, 64, 0
7, 42184, Note_on_c, 5, 60, 0
7, 42220, Note_on_c, 5, 65, 70
7, 42460, Note_on_c, 5, 62, 70
7, 42539, Note_on_c, 5, 65, 0
7, 42700, Note_on_c, 5, 65, 70
7, 42779, Note_on_c, 5, 62, 0
7, 42940, Note_on_c, 5, 62, 70
7, 43019, Note_on_c, 5, 65, 0
7, 43180, Note_on_c, 5, 65, 70
7, 43259, Note_on_c, 5, 62, 0
7, 43420, Note_on_c, 5, 62, 70
7, 43499, Note_on_c, 5, 65, 0
7, 43660, Note_on_c, 5, 65, 70
7, 43739, Note_on_c, 5, 62, 0
7, 43900, Note_on_c, 5, 62, 70
7, 43979, Note_on_c, 5, 65, 0
7, 44104, Note_on_c, 5, 62, 0
7, 44140, Note_on_c, 5, 67, 70
7, 44620, Note_on_c, 5, 67, 0
7, 45100, Note_on_c, 5, 79, 70
7, 45196, Note_on_c, 5, 79, 0
7, 45340, Note_on_c, 5, 81, 70
7, 45436, Note_on_c, 5, 81, 0
7, 45580, Note_on_c, 5, 83, 70
7, 45676, Note_on_c, 5, 83, 0
7, 45820, Note_on_c, 5, 84, 70
7, 45916, Note_on_c, 5, 84, 0
7, 46060, Note_on_c, 5, 84, 70
7, 46300, Note_on_c, 5, 83, 70
7, 46355, Note_on_c, 5, 84, 0
7, 46540, Note_on_c, 5, 81, 70
7, 46595, Note_on_c, 5, 83, 0
7, 46780, Note_on_c, 5, 79, 70
7, 46835, Note_on_c, 5, 81, 0
7, 46984, Note_on_c, 5, 79, 0
7, 47020, Note_on_c, 5, 79, 70
7, 47140, Note_on_c, 5, 79, 0
7, 47140, Note_on_c, 5, 77, 70
7, 47260, Note_on_c, 5, 77, 0
7, 47260, Note_on_c, 5, 76, 70
7, 47380, Note_on_c, 5, 76, 0
7, 47380, Note_on_c, 5, 77, 70
7, 47500, Note_on_c, 5, 77, 0
7, 47500, Note_on_c, 5, 81, 70
7, 47740, Note_on_c, 5, 81, 0
7, 47740, Note_on_c, 5, 77, 70
7, 47980, Note_on_c, 5, 77, 0
7, 47980, Note_on_c, 5, 75, 70
7, 48220, Note_on_c, 5, 75, 0
7, 48220, Note_on_c, 5, 76, 70
7, 48460, Note_on_c, 5, 76, 0
7, 48700, Note_on_c, 5, 76, 70
7, 48744, Note_on_c, 5, 76, 0
7, 48820, Note_on_c, 5, 77, 70
7, 48864, Note_on_c, 5, 77, 0
7, 48940, Note_on_c, 5, 79, 70
7, 49036, Note_on_c, 5, 79, 0
7, 49180, Note_on_c, 5, 81, 70
7, 49276, Note_on_c, 5, 81, 0
7, 49420, Note_on_c, 5, 83, 70
7, 49516, Note_on_c, 5, 83, 0
7, 49660, Note_on_c, 5, 84, 70
7, 49756, Note_on_c, 5, 84, 0
7, 49900, Note_on_c, 5, 84, 70
7, 50140, Note_on_c, 5, 83, 70
7, 50195, Note_on_c, 5, 84, 0
7, 50380, Note_on_c, 5, 81, 70
7, 50435, Note_on_c, 5, 83, 0
7, 50620, Note_on_c, 5, 79, 70
7, 50675, Note_on_c, 5, 81, 0
7, 50809, Note_on_c, 5, 79, 0
7, 50860, Note_on_c, 5, 79, 74
7, 50980, Note_on_c, 5, 79, 0
7, 50980, Note_on_c, 5, 77, 78
7, 51100, Note_on_c, 5, 77, 0
7, 51100, Note_on_c, 5, 76, 78
7, 51220, Note_on_c, 5, 76, 0
7, 51220, Note_on_c, 5, 77, 75
7, 51340, Note_on_c, 5, 77, 0
7, 51340, Note_on_c, 5, 81, 80
7, 51580, Note_on_c, 5, 81, 0
7, 51580, Note_on_c, 5, 77, 70
7, 51820, Note_on_c, 5, 77, 0
7, 51820, Note_on_c, 5, 76, 70
7, 52009, Note_on_c, 5, 76, 0
7, 52060, Note_on_c, 5, 84, 70
7, 52540, Note_on_c, 5, 82, 70
7, 52612, Note_on_c, 5, 84, 0
7, 53020, Note_on_c, 5, 81, 70
7, 53092, Note_on_c, 5, 82, 0
7, 53500, Note_on_c, 5, 79, 70
7, 53572, Note_on_c, 5, 81, 0
7, 53909, Note_on_c, 5, 79, 0
7, 53980, Note_on_c, 5, 77, 70
7, 54460, Note_on_c, 5, 84, 70
7, 54532, Note_on_c, 5, 77, 0
7, 54940, Note_on_c, 5, 82, 70
7, 55012, Note_on_c, 5, 84, 0
7, 55420, Note_on_c, 5, 81, 70
7, 55492, Note_on_c, 5, 82, 0
7, 55814, Note_on_c, 5, 81, 0
7, 55900, Note_on_c, 5, 79, 70
7, 56380, Note_on_c, 5, 84, 70
7, 56452, Note_on_c, 5, 79, 0
7, 56860, Note_on_c, 5, 82, 70
7, 56932, Note_on_c, 5, 84, 0
7, 57340, Note_on_c, 5, 80, 70
7, 57412, Note_on_c, 5, 82, 0
7, 57734, Note_on_c, 5, 80, 0
7, 57820, Note_on_c, 5, 81, 70
7, 57916, Note_on_c, 5, 81, 0
7, 58060, Note_on_c, 5, 83, 70
7, 58156, Note_on_c, 5, 83, 0
7, 58300, Note_on_c, 5, 84, 70
7, 58396, Note_on_c, 5, 84, 0
7, 58540, Note_on_c, 5, 76, 70
7, 58636, Note_on_c, 5, 76, 0
7, 58780, Note_on_c, 5, 77, 70
7, 58876, Note_on_c, 5, 77, 0
7, 59020, Note_on_c, 5, 80, 70
7, 59116, Note_on_c, 5, 80, 0
7, 59260, Note_on_c, 5, 81, 70
7, 59356, Note_on_c, 5, 81, 0
7, 59500, Note_on_c, 5, 73, 70
7, 59596, Note_on_c, 5, 73, 0
7, 59740, Note_on_c, 5, 74, 70
7, 59836, Note_on_c, 5, 74, 0
7, 59980, Note_on_c, 5, 76, 70
7, 60076, Note_on_c, 5, 76, 0
7, 60220, Note_on_c, 5, 77, 70
7, 60316, Note_on_c, 5, 77, 0
7, 60460, Note_on_c, 5, 76, 70
7, 60556, Note_on_c, 5, 76, 0
7, 60700, Note_on_c, 5, 77, 70
7, 60796, Note_on_c, 5, 77, 0
7, 60940, Note_on_c, 5, 79, 70
7, 61036, Note_on_c, 5, 79, 0
7, 61180, Note_on_c, 5, 81, 70
7, 61276, Note_on_c, 5, 81, 0
7, 61340, Note_on_c, 5, 64, 105
7, 61400, Note_on_c, 5, 72, 105
7, 61420, Note_on_c, 5, 79, 105
7, 61444, Note_on_c, 5, 64, 0
7, 61814, Note_on_c, 5, 72, 0
7, 61829, Note_on_c, 5, 79, 0
7, 61900, Note_on_c, 5, 79, 105
7, 62620, Note_on_c, 5, 79, 0
7, 62620, Note_on_c, 5, 81, 105
7, 62740, Note_on_c, 5, 81, 0
7, 62740, Note_on_c, 5, 79, 105
7, 62860, Note_on_c, 5, 79, 0
7, 62860, Note_on_c, 5, 77, 105
7, 63100, Note_on_c, 5, 77, 0
7, 63100, Note_on_c, 5, 76, 105
7, 63289, Note_on_c, 5, 76, 0
7, 63345, Note_on_c, 5, 76, 105
7, 63700, Note_on_c, 5, 74, 105
7, 63705, Note_on_c, 5, 76, 0
7, 63820, Note_on_c, 5, 74, 0
7, 63820, Note_on_c, 5, 72, 105
7, 64780, Note_on_c, 5, 72, 0
7, 64780, Note_on_c, 5, 71, 105
7, 65260, Note_on_c, 5, 71, 0
7, 65260, Note_on_c, 5, 72, 105
7, 65740, Note_on_c, 5, 72, 0
7, 66220, Note_on_c, 5, 77, 70
7, 66340, Note_on_c, 5, 77, 0
7, 66340, Note_on_c, 5, 76, 70
7, 66460, Note_on_c, 5, 76, 0
7, 66460, Note_on_c, 5, 74, 70
7, 66580, Note_on_c, 5, 74, 0
7, 66580, Note_on_c, 5, 76, 70
7, 66700, Note_on_c, 5, 76, 0
7, 66700, Note_on_c, 5, 79, 70
7, 66820, Note_on_c, 5, 79, 0
7, 66820, Note_on_c, 5, 77, 70
7, 66940, Note_on_c, 5, 77, 0
7, 66940, Note_on_c, 5, 76, 70
7, 67060, Note_on_c, 5, 76, 0
7, 67060, Note_on_c, 5, 77, 70
7, 67180, Note_on_c, 5, 77, 0
7, 67180, Note_on_c, 5, 79, 70
7, 67420, Note_on_c, 5, 84, 70
7, 67474, Note_on_c, 5, 79, 0
7, 67599, Note_on_c, 5, 84, 0
7, 67660, Note_on_c, 5, 79, 70
7, 67774, Note_on_c, 5, 79, 0
7, 67900, Note_on_c, 5, 79, 70
7, 68004, Note_on_c, 5, 79, 0
7, 68140, Note_on_c, 5, 77, 70
7, 68260, Note_on_c, 5, 77, 0
7, 68260, Note_on_c, 5, 76, 70
7, 68380, Note_on_c, 5, 76, 0
7, 68380, Note_on_c, 5, 74, 70
7, 68500, Note_on_c, 5, 74, 0
7, 68500, Note_on_c, 5, 76, 70
7, 68620, Note_on_c, 5, 76, 0
7, 68620, Note_on_c, 5, 79, 70
7, 68740, Note_on_c, 5, 79, 0
7, 68740, Note_on_c, 5, 77, 70
7, 68860, Note_on_c, 5, 77, 0
7, 68860, Note_on_c, 5, 76, 70
7, 68980, Note_on_c, 5, 76, 0
7, 68980, Note_on_c, 5, 77, 70
7, 69100, Note_on_c, 5, 77, 0
7, 69100, Note_on_c, 5, 79, 70
7, 69340, Note_on_c, 5, 84, 70
7, 69389, Note_on_c, 5, 79, 0
7, 69504, Note_on_c, 5, 84, 0
7, 69580, Note_on_c, 5, 79, 70
7, 69709, Note_on_c, 5, 79, 0
7, 69820, Note_on_c, 5, 79, 70
7, 69929, Note_on_c, 5, 79, 0
7, 70060, Note_on_c, 5, 77, 70
7, 70180, Note_on_c, 5, 77, 0
7, 70180, Note_on_c, 5, 76, 70
7, 70300, Note_on_c, 5, 76, 0
7, 70300, Note_on_c, 5, 74, 70
7, 70420, Note_on_c, 5, 74, 0
7, 70420, Note_on_c, 5, 76, 70
7, 70540, Note_on_c, 5, 76, 0
7, 70540, Note_on_c, 5, 79, 70
7, 70660, Note_on_c, 5, 79, 0
7, 70660, Note_on_c, 5, 77, 70
7, 70780, Note_on_c, 5, 77, 0
7, 70780, Note_on_c, 5, 76, 70
7, 70900, Note_on_c, 5, 76, 0
7, 70900, Note_on_c, 5, 77, 70
7, 71020, Note_on_c, 5, 77, 0
7, 71020, Note_on_c, 5, 79, 70
7, 71140, Note_on_c, 5, 81, 70
7, 71180, Note_on_c, 5, 79, 0
7, 71260, Note_on_c, 5, 79, 70
7, 71300, Note_on_c, 5, 81, 0
7, 71380, Note_on_c, 5, 81, 70
7, 71420, Note_on_c, 5, 79, 0
7, 71500, Note_on_c, 5, 77, 70
7, 71540, Note_on_c, 5, 81, 0
7, 71620, Note_on_c, 5, 79, 70
7, 71660, Note_on_c, 5, 77, 0
7, 71740, Note_on_c, 5, 77, 70
7, 71780, Note_on_c, 5, 79, 0
7, 71860, Note_on_c, 5, 79, 70
7, 71900, Note_on_c, 5, 77, 0
7, 71980, Note_on_c, 5, 76, 70
7, 72020, Note_on_c, 5, 79, 0
7, 72100, Note_on_c, 5, 77, 70
7, 72140, Note_on_c, 5, 76, 0
7, 72220, Note_on_c, 5, 76, 70
7, 72260, Note_on_c, 5, 77, 0
7, 72340, Note_on_c, 5, 77, 70
7, 72380, Note_on_c, 5, 76, 0
7, 72460, Note_on_c, 5, 74, 70
7, 72500, Note_on_c, 5, 77, 0
7, 72580, Note_on_c, 5, 76, 70
7, 72620, Note_on_c, 5, 74, 0
7, 72700, Note_on_c, 5, 74, 70
7, 72740, Note_on_c, 5, 76, 0
7, 72820, Note_on_c, 5, 76, 70
7, 72860, Note_on_c, 5, 74, 0
7, 72940, Note_on_c, 5, 76, 0
7, 72940, Note_on_c, 5, 72, 105
7, 73060, Note_on_c, 5, 72, 0
7, 73060, Note_on_c, 5, 74, 105
7, 73180, Note_on_c, 5, 74, 0
7, 73180, Note_on_c, 5, 76, 105
7, 73300, Note_on_c, 5, 76, 0
7, 73300, Note_on_c, 5, 77, 105
7, 73420, Note_on_c, 5, 77, 0
7, 73420, Note_on_c, 5, 79, 105
7, 73540, Note_on_c, 5, 79, 0
7, 73540, Note_on_c, 5, 81, 105
7, 73660, Note_on_c, 5, 81, 0
7, 73660, Note_on_c, 5, 83, 105
7, 73780, Note_on_c, 5, 83, 0
7, 73780, Note_on_c, 5, 84, 105
7, 73900, Note_on_c, 5, 84, 0
7, 73900, Note_on_c, 5, 69, 105
7, 74020, Note_on_c, 5, 69, 0
7, 74020, Note_on_c, 5, 71, 105
7, 74140, Note_on_c, 5, 71, 0
7, 74140, Note_on_c, 5, 72, 105
7, 74260, Note_on_c, 5, 72, 0
7, 74260, Note_on_c, 5, 74, 105
7, 74380, Note_on_c, 5, 74, 0
7, 74380, Note_on_c, 5, 76, 105
7, 74500, Note_on_c, 5, 76, 0
7, 74500, Note_on_c, 5, 77, 105
7, 74620, Note_on_c, 5, 77, 0
7, 74620, Note_on_c, 5, 79, 105
7, 74740, Note_on_c, 5, 79, 0
7, 74740, Note_on_c, 5, 81, 105
7, 74860, Note_on_c, 5, 81, 0
7, 74860, Note_on_c, 5, 67, 105
7, 74980, Note_on_c, 5, 67, 0
7, 74980, Note_on_c, 5, 69, 105
7, 75100, Note_on_c, 5, 69, 0
7, 75100, Note_on_c, 5, 71, 105
7, 75220, Note_on_c, 5, 71, 0
7, 75220, Note_on_c, 5, 72, 105
7, 75340, Note_on_c, 5, 72, 0
7, 75340, Note_on_c, 5, 74, 105
7, 75460, Note_on_c, 5, 74, 0
7, 75460, Note_on_c, 5, 76, 105
7, 75580, Note_on_c, 5, 76, 0
7, 75580, Note_on_c, 5, 77, 105
7, 75700, Note_on_c, 5, 77, 0
7, 75700, Note_on_c, 5, 79, 105
7, 75820, Note_on_c, 5, 79, 0
7, 75820, Note_on_c, 5, 79, 105
7, 76060, Note_on_c, 5, 77, 105
7, 76109, Note_on_c, 5, 79, 0
7, 76229, Note_on_c, 5, 77, 0
7, 76300, Note_on_c, 5, 76, 105
7, 76396, Note_on_c, 5, 76, 0
7, 76540, Note_on_c, 5, 74, 105
7, 76636, Note_on_c, 5, 74, 0
7, 76780, Note_on_c, 5, 55, 105
7, 76780, Note_on_c, 5, 64, 105
7, 76780, Note_on_c, 5, 72, 105
7, 77260, Note_on_c, 5, 72, 0
7, 77260, Note_on_c, 5, 64, 0
7, 77260, Note_on_c, 5, 55, 0
7, 77500, Note_on_c, 5, 79, 98
7, 77580, Note_on_c, 5, 81, 100
7, 77606, Note_on_c, 5, 79, 0
7, 77656, Note_on_c, 5, 83, 101
7, 77681, Note_on_c, 5, 81, 0
7, 77740, Note_on_c, 5, 84, 105
7, 77768, Note_on_c, 5, 83, 0
7, 78220, Note_on_c, 5, 84, 0
7, 78460, Note_on_c, 5, 79, 100
7, 78540, Note_on_c, 5, 81, 103
7, 78566, Note_on_c, 5, 79, 0
7, 78616, Note_on_c, 5, 83, 105
7, 78641, Note_on_c, 5, 81, 0
7, 78700, Note_on_c, 5, 84, 108
7, 78728, Note_on_c, 5, 83, 0
7, 79180, Note_on_c, 5, 84, 0
7, 79420, Note_on_c, 5, 79, 97
7, 79500, Note_on_c, 5, 81, 101
7, 79526, Note_on_c, 5, 79, 0
7, 79576, Note_on_c, 5, 83, 103
7, 79601, Note_on_c, 5, 81, 0
7, 79660, Note_on_c, 5, 84, 106
7, 79688, Note_on_c, 5, 83, 0
7, 79900, Note_on_c, 5, 84, 0
7, 79900, Note_on_c, 5, 79, 102
7, 79980, Note_on_c, 5, 81, 104
7, 80006, Note_on_c, 5, 79, 0
7, 80056, Note_on_c, 5, 83, 106
7, 80081, Note_on_c, 5, 81, 0
7, 80140, Note_on_c, 5, 84, 109
7, 80168, Note_on_c, 5, 83, 0
7, 80380, Note_on_c, 5, 84, 0
7, 80380, Note_on_c, 5, 79, 103
7, 80460, Note_on_c, 5, 81, 108
7, 80486, Note_on_c, 5, 79, 0
7, 80536, Note_on_c, 5, 83, 108
7, 80561, Note_on_c, 5, 81, 0
7, 80620, Note_on_c, 5, 84, 114
7, 80648, Note_on_c, 5, 83, 0
7, 81100, Note_on_c, 5, 84, 0
7, 81340, Note_on_c, 5, 72, 79
7, 81580, Note_on_c, 5, 72, 0
7, 81820, Note_on_c, 5, 71, 70
7, 82060, Note_on_c, 5, 71, 0
7, 82300, Note_on_c, 5, 69, 70
7, 82540, Note_on_c, 5, 69, 0
7, 82540, Note_on_c, 5, 67, 105
7, 82780, Note_on_c, 5, 67, 0
7, 82780, Note_on_c, 5, 67, 105
7, 83020, Note_on_c, 5, 67, 0
7, 83260, Note_on_c, 5, 65, 70
7, 83500, Note_on_c, 5, 65, 0
7, 83740, Note_on_c, 5, 64, 70
7, 83980, Note_on_c, 5, 64, 0
7, 84220, Note_on_c, 5, 62, 70
7, 84460, Note_on_c, 5, 62, 0
7, 84460, Note_on_c, 5, 60, 105
7, 85144, Note_on_c, 5, 60, 0
7, 85180, Note_on_c, 5, 67, 105
7, 85408, Note_on_c, 5, 67, 0
7, 85420, Note_on_c, 5, 64, 105
7, 85648, Note_on_c, 5, 64, 0
7, 85660, Note_on_c, 5, 60, 105
7, 85888, Note_on_c, 5, 60, 0
7, 85900, Note_on_c, 5, 64, 105
7, 86128, Note_on_c, 5, 64, 0
7, 86140, Note_on_c, 5, 67, 105
7, 86368, Note_on_c, 5, 67, 0
7, 86380, Note_on_c, 5, 72, 105
7, 87064, Note_on_c, 5, 72, 0
7, 87100, Note_on_c, 5, 67, 105
7, 87328, Note_on_c, 5, 67, 0
7, 87340, Note_on_c, 5, 64, 105
7, 87568, Note_on_c, 5, 64, 0
7, 87580, Note_on_c, 5, 60, 105
7, 87808, Note_on_c, 5, 60, 0
7, 87820, Note_on_c, 5, 64, 105
7, 88048, Note_on_c, 5, 64, 0
7, 88060, Note_on_c, 5, 67, 105
7, 88288, Note_on_c, 5, 67, 0
7, 88300, Note_on_c, 5, 72, 105
7, 88780, Note_on_c, 5, 72, 0
7, 89020, Note_on_c, 5, 60, 70
7, 89260, Note_on_c, 5, 60, 0
7, 89500, Note_on_c, 5, 59, 70
7, 89740, Note_on_c, 5, 59, 0
7, 89980, Note_on_c, 5, 60, 70
7, 90220, Note_on_c, 5, 60, 0
7, 90220, Note_on_c, 5, 62, 70
7, 90316, Note_on_c, 5, 62, 0
7, 90460, Note_on_c, 5, 62, 70
7, 90556, Note_on_c, 5, 62, 0
7, 90940, Note_on_c, 5, 62, 70
7, 91180, Note_on_c, 5, 62, 0
7, 91420, Note_on_c, 5, 61, 70
7, 91660, Note_on_c, 5, 61, 0
7, 91900, Note_on_c, 5, 62, 70
7, 92140, Note_on_c, 5, 62, 0
7, 92140, Note_on_c, 5, 64, 70
7, 92236, Note_on_c, 5, 64, 0
7, 92380, Note_on_c, 5, 64, 70
7, 92476, Note_on_c, 5, 64, 0
7, 92860, Note_on_c, 5, 64, 70
7, 93100, Note_on_c, 5, 64, 0
7, 93340, Note_on_c, 5, 63, 70
7, 93580, Note_on_c, 5, 63, 0
7, 93820, Note_on_c, 5, 64, 70
7, 94060, Note_on_c, 5, 64, 0
7, 94300, Note_on_c, 5, 65, 70
7, 94540, Note_on_c, 5, 65, 0
7, 94780, Note_on_c, 5, 67, 70
7, 95020, Note_on_c, 5, 67, 0
7, 95260, Note_on_c, 5, 69, 70
7, 95500, Note_on_c, 5, 69, 0
7, 95740, Note_on_c, 5, 71, 70
7, 95980, Note_on_c, 5, 71, 0
7, 95980, Note_on_c, 5, 72, 70
7, 96460, Note_on_c, 5, 72, 0
7, 103900, Note_on_c, 5, 67, 70
7, 104068, Note_on_c, 5, 67, 0
7, 104140, Note_on_c, 5, 67, 70
7, 104308, Note_on_c, 5, 67, 0
7, 104380, Note_on_c, 5, 67, 70
7, 104548, Note_on_c, 5, 67, 0
7, 104620, Note_on_c, 5, 67, 70
7, 104788, Note_on_c, 5, 67, 0
7, 104860, Note_on_c, 5, 67, 70
7, 105028, Note_on_c, 5, 67, 0
7, 105100, Note_on_c, 5, 67, 70
7, 105268, Note_on_c, 5, 67, 0
7, 105340, Note_on_c, 5, 67, 70
7, 105508, Note_on_c, 5, 67, 0
7, 105820, Note_on_c, 5, 69, 70
7, 105988, Note_on_c, 5, 69, 0
7, 106060, Note_on_c, 5, 69, 70
7, 106228, Note_on_c, 5, 69, 0
7, 106300, Note_on_c, 5, 69, 70
7, 106468, Note_on_c, 5, 69, 0
7, 106540, Note_on_c, 5, 69, 70
7, 106708, Note_on_c, 5, 69, 0
7, 106780, Note_on_c, 5, 69, 70
7, 106948, Note_on_c, 5, 69, 0
7, 107020, Note_on_c, 5, 69, 70
7, 107188, Note_on_c, 5, 69, 0
7, 107260, Note_on_c, 5, 69, 70
7, 107428, Note_on_c, 5, 69, 0
7, 107740, Note_on_c, 5, 67, 70
7, 107908, Note_on_c, 5, 67, 0
7, 107980, Note_on_c, 5, 67, 70
7, 108148, Note_on_c, 5, 67, 0
7, 108220, Note_on_c, 5, 67, 70
7, 108388, Note_on_c, 5, 67, 0
7, 108460, Note_on_c, 5, 67, 70
7, 108628, Note_on_c, 5, 67, 0
7, 108700, Note_on_c, 5, 67, 70
7, 108868, Note_on_c, 5, 67, 0
7, 108940, Note_on_c, 5, 67, 70
7, 109108, Note_on_c, 5, 67, 0
7, 109180, Note_on_c, 5, 67, 70
7, 109348, Note_on_c, 5, 67, 0
7, 109420, Note_on_c, 5, 67, 70
7, 109660, Note_on_c, 5, 65, 70
7, 109704, Note_on_c, 5, 67, 0
7, 109849, Note_on_c, 5, 65, 0
7, 109900, Note_on_c, 5, 64, 70
7, 109996, Note_on_c, 5, 64, 0
7, 110140, Note_on_c, 5, 64, 70
7, 110236, Note_on_c, 5, 64, 0
7, 110380, Note_on_c, 5, 64, 70
7, 110620, Note_on_c, 5, 67, 70
7, 110678, Note_on_c, 5, 64, 0
7, 110860, Note_on_c, 5, 65, 70
7, 110918, Note_on_c, 5, 67, 0
7, 111100, Note_on_c, 5, 62, 70
7, 111158, Note_on_c, 5, 65, 0
7, 111289, Note_on_c, 5, 62, 0
7, 111340, Note_on_c, 5, 60, 70
7, 111580, Note_on_c, 5, 60, 0
7, 111820, Note_on_c, 5, 72, 68
7, 112060, Note_on_c, 5, 72, 0
7, 112300, Note_on_c, 5, 76, 71
7, 112540, Note_on_c, 5, 76, 0
7, 112780, Note_on_c, 5, 79, 74
7, 113020, Note_on_c, 5, 79, 0
7, 113260, Note_on_c, 5, 81, 77
7, 113500, Note_on_c, 5, 81, 0
7, 113740, Note_on_c, 5, 72, 64
7, 113980, Note_on_c, 5, 72, 0
7, 114220, Note_on_c, 5, 77, 68
7, 114460, Note_on_c, 5, 77, 0
7, 114700, Note_on_c, 5, 81, 73
7, 114940, Note_on_c, 5, 81, 0
7, 115180, Note_on_c, 5, 79, 77
7, 115420, Note_on_c, 5, 79, 0
7, 115660, Note_on_c, 5, 72, 68
7, 115900, Note_on_c, 5, 72, 0
7, 116140, Note_on_c, 5, 76, 74
7, 116380, Note_on_c, 5, 76, 0
7, 116620, Note_on_c, 5, 79, 80
7, 116860, Note_on_c, 5, 79, 0
7, 117340, Note_on_c, 5, 67, 72
7, 117436, Note_on_c, 5, 67, 0
7, 117580, Note_on_c, 5, 72, 75
7, 117676, Note_on_c, 5, 72, 0
7, 117820, Note_on_c, 5, 76, 79
7, 117916, Note_on_c, 5, 76, 0
7, 118060, Note_on_c, 5, 79, 82
7, 118156, Note_on_c, 5, 79, 0
7, 118300, Note_on_c, 5, 76, 81
7, 118396, Note_on_c, 5, 76, 0
7, 118540, Note_on_c, 5, 77, 78
7, 118636, Note_on_c, 5, 77, 0
7, 118780, Note_on_c, 5, 74, 75
7, 118876, Note_on_c, 5, 74, 0
7, 119020, Note_on_c, 5, 72, 72
7, 119500, Note_on_c, 5, 72, 0
7, 125020, Note_on_c, 5, 67, 70
7, 125116, Note_on_c, 5, 67, 0
7, 125260, Note_on_c, 5, 69, 70
7, 125356, Note_on_c, 5, 69, 0
7, 125500, Note_on_c, 5, 71, 70
7, 125596, Note_on_c, 5, 71, 0
7, 125740, Note_on_c, 5, 72, 70
7, 125836, Note_on_c, 5, 72, 0
7, 125980, Note_on_c, 5, 74, 68
7, 126076, Note_on_c, 5, 74, 0
7, 126220, Note_on_c, 5, 76, 69
7, 126316, Note_on_c, 5, 76, 0
7, 126460, Note_on_c, 5, 78, 71
7, 126556, Note_on_c, 5, 78, 0
7, 126700, Note_on_c, 5, 79, 85
7, 126940, Note_on_c, 5, 79, 0
7, 126940, Note_on_c, 5, 81, 97
7, 126968, Note_on_c, 5, 81, 0
7, 126968, Note_on_c, 5, 79, 97
7, 127000, Note_on_c, 5, 79, 0
7, 127000, Note_on_c, 5, 81, 99
7, 127028, Note_on_c, 5, 81, 0
7, 127028, Note_on_c, 5, 79, 99
7, 127060, Note_on_c, 5, 79, 0
7, 127060, Note_on_c, 5, 78, 99
7, 127120, Note_on_c, 5, 78, 0
7, 127120, Note_on_c, 5, 79, 101
7, 127180, Note_on_c, 5, 79, 0
7, 127180, Note_on_c, 5, 83, 103
7, 127420, Note_on_c, 5, 83, 0
7, 127420, Note_on_c, 5, 79, 105
7, 127516, Note_on_c, 5, 79, 0
7, 127660, Note_on_c, 5, 74, 105
7, 127756, Note_on_c, 5, 74, 0
7, 127900, Note_on_c, 5, 79, 105
7, 127996, Note_on_c, 5, 79, 0
7, 128140, Note_on_c, 5, 71, 105
7, 128236, Note_on_c, 5, 71, 0
7, 128380, Note_on_c, 5, 74, 105
7, 128476, Note_on_c, 5, 74, 0
7, 128620, Note_on_c, 5, 67, 105
7, 128860, Note_on_c, 5, 69, 105
7, 128879, Note_on_c, 5, 67, 0
7, 128920, Note_on_c, 5, 67, 106
7, 128942, Note_on_c, 5, 69, 0
7, 128980, Note_on_c, 5, 66, 102
7, 129002, Note_on_c, 5, 67, 0
7, 129040, Note_on_c, 5, 67, 102
7, 129062, Note_on_c, 5, 66, 0
7, 129100, Note_on_c, 5, 71, 108
7, 129122, Note_on_c, 5, 67, 0
7, 129289, Note_on_c, 5, 71, 0
7, 129340, Note_on_c, 5, 67, 105
7, 129436, Note_on_c, 5, 67, 0
7, 129580, Note_on_c, 5, 62, 105
7, 129676, Note_on_c, 5, 62, 0
7, 129820, Note_on_c, 5, 67, 105
7, 129916, Note_on_c, 5, 67, 0
7, 130060, Note_on_c, 5, 59, 105
7, 130156, Note_on_c, 5, 59, 0
7, 130300, Note_on_c, 5, 62, 105
7, 130396, Note_on_c, 5, 62, 0
7, 130540, Note_on_c, 5, 55, 105
7, 131020, Note_on_c, 5, 55, 0
7, 145900, Note_on_c, 5, 67, 70
7, 146068, Note_on_c, 5, 67, 0
7, 146140, Note_on_c, 5, 67, 70
7, 146308, Note_on_c, 5, 67, 0
7, 146380, Note_on_c, 5, 67, 70
7, 146548, Note_on_c, 5, 67, 0
7, 146620, Note_on_c, 5, 67, 70
7, 146788, Note_on_c, 5, 67, 0
7, 146860, Note_on_c, 5, 67, 70
7, 147028, Note_on_c, 5, 67, 0
7, 147100, Note_on_c, 5, 67, 70
7, 147268, Note_on_c, 5, 67, 0
7, 147340, Note_on_c, 5, 67, 70
7, 147508, Note_on_c, 5, 67, 0
7, 147580, Note_on_c, 5, 67, 70
7, 147748, Note_on_c, 5, 67, 0
7, 147820, Note_on_c, 5, 64, 70
7, 147988, Note_on_c, 5, 64, 0
7, 148060, Note_on_c, 5, 64, 70
7, 148228, Note_on_c, 5, 64, 0
7, 148300, Note_on_c, 5, 64, 70
7, 148468, Note_on_c, 5, 64, 0
7, 148540, Note_on_c, 5, 64, 70
7, 148708, Note_on_c, 5, 64, 0
7, 148780, Note_on_c, 5, 76, 70
7, 148948, Note_on_c, 5, 76, 0
7, 149020, Note_on_c, 5, 76, 70
7, 149188, Note_on_c, 5, 76, 0
7, 149260, Note_on_c, 5, 76, 70
7, 149428, Note_on_c, 5, 76, 0
7, 149500, Note_on_c, 5, 76, 70
7, 149668, Note_on_c, 5, 76, 0
7, 149740, Note_on_c, 5, 84, 70
7, 150220, Note_on_c, 5, 81, 70
7, 150279, Note_on_c, 5, 84, 0
7, 150404, Note_on_c, 5, 81, 0
7, 150700, Note_on_c, 5, 81, 70
7, 151180, Note_on_c, 5, 78, 70
7, 151249, Note_on_c, 5, 81, 0
7, 151389, Note_on_c, 5, 78, 0
7, 151660, Note_on_c, 5, 78, 70
7, 152140, Note_on_c, 5, 74, 70
7, 152199, Note_on_c, 5, 78, 0
7, 152339, Note_on_c, 5, 74, 0
7, 152620, Note_on_c, 5, 72, 70
7, 153100, Note_on_c, 5, 69, 70
7, 153149, Note_on_c, 5, 72, 0
7, 153299, Note_on_c, 5, 69, 0
7, 153580, Note_on_c, 5, 71, 70
7, 154060, Note_on_c, 5, 71, 0
7, 154060, Note_on_c, 5, 72, 78
7, 154088, Note_on_c, 5, 72, 0
7, 154088, Note_on_c, 5, 71, 78
7, 154120, Note_on_c, 5, 71, 0
7, 154120, Note_on_c, 5, 72, 78
7, 154148, Note_on_c, 5, 72, 0
7, 154148, Note_on_c, 5, 71, 75
7, 154180, Note_on_c, 5, 71, 0
7, 154180, Note_on_c, 5, 69, 74
7, 154300, Note_on_c, 5, 71, 75
7, 154334, Note_on_c, 5, 69, 0
7, 154420, Note_on_c, 5, 72, 78
7, 154469, Note_on_c, 5, 71, 0
7, 154540, Note_on_c, 5, 74, 83
7, 154594, Note_on_c, 5, 72, 0
7, 155020, Note_on_c, 5, 74, 0
7, 155500, Note_on_c, 5, 83, 70
7, 155980, Note_on_c, 5, 83, 0
7, 155980, Note_on_c, 5, 84, 85
7, 156008, Note_on_c, 5, 84, 0
7, 156008, Note_on_c, 5, 83, 86
7, 156040, Note_on_c, 5, 83, 0
7, 156040, Note_on_c, 5, 84, 89
7, 156068, Note_on_c, 5, 84, 0
7, 156068, Note_on_c, 5, 83, 89
7, 156100, Note_on_c, 5, 83, 0
7, 156100, Note_on_c, 5, 81, 87
7, 156220, Note_on_c, 5, 83, 83
7, 156264, Note_on_c, 5, 81, 0
7, 156340, Note_on_c, 5, 84, 84
7, 156389, Note_on_c, 5, 83, 0
7, 156460, Note_on_c, 5, 84, 0
7, 156460, Note_on_c, 5, 86, 92
7, 156940, Note_on_c, 5, 86, 0
7, 157420, Note_on_c, 5, 84, 70
7, 157900, Note_on_c, 5, 81, 70
7, 157959, Note_on_c, 5, 84, 0
7, 158069, Note_on_c, 5, 81, 0
7, 158380, Note_on_c, 5, 81, 70
7, 158860, Note_on_c, 5, 78, 70
7, 158929, Note_on_c, 5, 81, 0
7, 159029, Note_on_c, 5, 78, 0
7, 159340, Note_on_c, 5, 78, 70
7, 159820, Note_on_c, 5, 74, 70
7, 159879, Note_on_c, 5, 78, 0
7, 160014, Note_on_c, 5, 74, 0
7, 160300, Note_on_c, 5, 72, 70
7, 160780, Note_on_c, 5, 69, 70
7, 160834, Note_on_c, 5, 72, 0
7, 160959, Note_on_c, 5, 69, 0
7, 161260, Note_on_c, 5, 71, 70
7, 161740, Note_on_c, 5, 71, 0
7, 161740, Note_on_c, 5, 72, 83
7, 161768, Note_on_c, 5, 72, 0
7, 161768, Note_on_c, 5, 71, 83
7, 161800, Note_on_c, 5, 71, 0
7, 161800, Note_on_c, 5, 72, 85
7, 161828, Note_on_c, 5, 72, 0
7, 161828, Note_on_c, 5, 71, 85
7, 161860, Note_on_c, 5, 71, 0
7, 161860, Note_on_c, 5, 69, 80
7, 161980, Note_on_c, 5, 71, 80
7, 162004, Note_on_c, 5, 69, 0
7, 162100, Note_on_c, 5, 72, 82
7, 162134, Note_on_c, 5, 71, 0
7, 162220, Note_on_c, 5, 74, 90
7, 162269, Note_on_c, 5, 72, 0
7, 162700, Note_on_c, 5, 74, 0
7, 163180, Note_on_c, 5, 83, 70
7, 163660, Note_on_c, 5, 83, 0
7, 163660, Note_on_c, 5, 84, 84
7, 163688, Note_on_c, 5, 84, 0
7, 163688, Note_on_c, 5, 83, 83
7, 163720, Note_on_c, 5, 83, 0
7, 163720, Note_on_c, 5, 84, 82
7, 163748, Note_on_c, 5, 84, 0
7, 163748, Note_on_c, 5, 83, 80
7, 163780, Note_on_c, 5, 83, 0
7, 163780, Note_on_c, 5, 81, 79
7, 163900, Note_on_c, 5, 83, 78
7, 163949, Note_on_c, 5, 81, 0
7, 164020, Note_on_c, 5, 84, 80
7, 164059, Note_on_c, 5, 83, 0
7, 164140, Note_on_c, 5, 84, 0
7, 164140, Note_on_c, 5, 86, 86
7, 164620, Note_on_c, 5, 86, 0
7, 165100, Note_on_c, 5, 62, 105
7, 165580, Note_on_c, 5, 62, 0
7, 165820, Note_on_c, 5, 74, 105
7, 165820, Note_on_c, 5, 81, 105
7, 165988, Note_on_c, 5, 81, 0
7, 165988, Note_on_c, 5, 74, 0
7, 166060, Note_on_c, 5, 74, 105
7, 166060, Note_on_c, 5, 83, 105
7, 166228, Note_on_c, 5, 83, 0
7, 166228, Note_on_c, 5, 74, 0
7, 166300, Note_on_c, 5, 74, 105
7, 166300, Note_on_c, 5, 83, 105
7, 166468, Note_on_c, 5, 83, 0
7, 166468, Note_on_c, 5, 74, 0
7, 166540, Note_on_c, 5, 74, 105
7, 166540, Note_on_c, 5, 83, 105
7, 166708, Note_on_c, 5, 83, 0
7, 166708, Note_on_c, 5, 74, 0
7, 166780, Note_on_c, 5, 74, 105
7, 166780, Note_on_c, 5, 83, 105
7, 166948, Note_on_c, 5, 83, 0
7, 166948, Note_on_c, 5, 74, 0
7, 167020, Note_on_c, 5, 74, 105
7, 167020, Note_on_c, 5, 81, 105
7, 167500, Note_on_c, 5, 81, 0
7, 167500, Note_on_c, 5, 74, 0
7, 167740, Note_on_c, 5, 74, 105
7, 167740, Note_on_c, 5, 81, 105
7, 167908, Note_on_c, 5, 81, 0
7, 167908, Note_on_c, 5, 74, 0
7, 167980, Note_on_c, 5, 74, 105
7, 167980, Note_on_c, 5, 83, 105
7, 168148, Note_on_c, 5, 83, 0
7, 168148, Note_on_c, 5, 74, 0
7, 168220, Note_on_c, 5, 74, 105
7, 168220, Note_on_c, 5, 83, 105
7, 168388, Note_on_c, 5, 83, 0
7, 168388, Note_on_c, 5, 74, 0
7, 168460, Note_on_c, 5, 74, 105
7, 168460, Note_on_c, 5, 83, 105
7, 168628, Note_on_c, 5, 83, 0
7, 168628, Note_on_c, 5, 74, 0
7, 168700, Note_on_c, 5, 74, 105
7, 168700, Note_on_c, 5, 83, 105
7, 168868, Note_on_c, 5, 83, 0
7, 168868, Note_on_c, 5, 74, 0
7, 168940, Note_on_c, 5, 74, 105
7, 168940, Note_on_c, 5, 81, 105
7, 169329, Note_on_c, 5, 74, 0
7, 169340, Note_on_c, 5, 62, 105
7, 169400, Note_on_c, 5, 74, 105
7, 169420, Note_on_c, 5, 81, 0
7, 169420, Note_on_c, 5, 86, 105
7, 169460, Note_on_c, 5, 62, 0
7, 169844, Note_on_c, 5, 86, 0
7, 169869, Note_on_c, 5, 74, 0
7, 169900, Note_on_c, 5, 62, 105
7, 170380, Note_on_c, 5, 62, 0
7, 170860, Note_on_c, 5, 71, 70
7, 171100, Note_on_c, 5, 67, 70
7, 171155, Note_on_c, 5, 71, 0
7, 171340, Note_on_c, 5, 71, 70
7, 171395, Note_on_c, 5, 67, 0
7, 171580, Note_on_c, 5, 67, 70
7, 171635, Note_on_c, 5, 71, 0
7, 171820, Note_on_c, 5, 71, 70
7, 171875, Note_on_c, 5, 67, 0
7, 172060, Note_on_c, 5, 67, 70
7, 172115, Note_on_c, 5, 71, 0
7, 172300, Note_on_c, 5, 71, 70
7, 172355, Note_on_c, 5, 67, 0
7, 172540, Note_on_c, 5, 67, 70
7, 172595, Note_on_c, 5, 71, 0
7, 172744, Note_on_c, 5, 67, 0
7, 172780, Note_on_c, 5, 72, 70
7, 173020, Note_on_c, 5, 69, 70
7, 173075, Note_on_c, 5, 72, 0
7, 173260, Note_on_c, 5, 72, 70
7, 173315, Note_on_c, 5, 69, 0
7, 173500, Note_on_c, 5, 69, 70
7, 173555, Note_on_c, 5, 72, 0
7, 173740, Note_on_c, 5, 72, 70
7, 173795, Note_on_c, 5, 69, 0
7, 173980, Note_on_c, 5, 69, 70
7, 174035, Note_on_c, 5, 72, 0
7, 174220, Note_on_c, 5, 72, 70
7, 174275, Note_on_c, 5, 69, 0
7, 174460, Note_on_c, 5, 69, 70
7, 174515, Note_on_c, 5, 72, 0
7, 174664, Note_on_c, 5, 69, 0
7, 174700, Note_on_c, 5, 74, 70
7, 175180, Note_on_c, 5, 74, 0
7, 175660, Note_on_c, 5, 62, 70
7, 175756, Note_on_c, 5, 62, 0
7, 175900, Note_on_c, 5, 64, 70
7, 175996, Note_on_c, 5, 64, 0
7, 176140, Note_on_c, 5, 66, 70
7, 176236, Note_on_c, 5, 66, 0
7, 176380, Note_on_c, 5, 67, 70
7, 176476, Note_on_c, 5, 67, 0
7, 176620, Note_on_c, 5, 67, 70
7, 176860, Note_on_c, 5, 66, 70
7, 176915, Note_on_c, 5, 67, 0
7, 177100, Note_on_c, 5, 64, 70
7, 177155, Note_on_c, 5, 66, 0
7, 177340, Note_on_c, 5, 62, 70
7, 177395, Note_on_c, 5, 64, 0
7, 177509, Note_on_c, 5, 62, 0
7, 177580, Note_on_c, 5, 62, 72
7, 177700, Note_on_c, 5, 62, 0
7, 177700, Note_on_c, 5, 60, 76
7, 177820, Note_on_c, 5, 60, 0
7, 177820, Note_on_c, 5, 59, 76
7, 177940, Note_on_c, 5, 59, 0
7, 177940, Note_on_c, 5, 60, 74
7, 178060, Note_on_c, 5, 60, 0
7, 178060, Note_on_c, 5, 64, 74
7, 178300, Note_on_c, 5, 64, 0
7, 178300, Note_on_c, 5, 60, 70
7, 178540, Note_on_c, 5, 60, 0
7, 178540, Note_on_c, 5, 58, 70
7, 178780, Note_on_c, 5, 58, 0
7, 178780, Note_on_c, 5, 59, 70
7, 179020, Note_on_c, 5, 59, 0
7, 179260, Note_on_c, 5, 59, 70
7, 179304, Note_on_c, 5, 59, 0
7, 179380, Note_on_c, 5, 60, 70
7, 179424, Note_on_c, 5, 60, 0
7, 179500, Note_on_c, 5, 62, 70
7, 179596, Note_on_c, 5, 62, 0
7, 179740, Note_on_c, 5, 64, 70
7, 179836, Note_on_c, 5, 64, 0
7, 179980, Note_on_c, 5, 66, 70
7, 180076, Note_on_c, 5, 66, 0
7, 180220, Note_on_c, 5, 67, 70
7, 180316, Note_on_c, 5, 67, 0
7, 180460, Note_on_c, 5, 67, 70
7, 180700, Note_on_c, 5, 66, 70
7, 180755, Note_on_c, 5, 67, 0
7, 180940, Note_on_c, 5, 64, 70
7, 180995, Note_on_c, 5, 66, 0
7, 181180, Note_on_c, 5, 62, 70
7, 181235, Note_on_c, 5, 64, 0
7, 181359, Note_on_c, 5, 62, 0
7, 181420, Note_on_c, 5, 62, 75
7, 181540, Note_on_c, 5, 62, 0
7, 181540, Note_on_c, 5, 60, 80
7, 181660, Note_on_c, 5, 60, 0
7, 181660, Note_on_c, 5, 59, 80
7, 181780, Note_on_c, 5, 59, 0
7, 181780, Note_on_c, 5, 60, 76
7, 181900, Note_on_c, 5, 60, 0
7, 181900, Note_on_c, 5, 64, 75
7, 182140, Note_on_c, 5, 64, 0
7, 182140, Note_on_c, 5, 60, 70
7, 182380, Note_on_c, 5, 60, 0
7, 182380, Note_on_c, 5, 59, 70
7, 182579, Note_on_c, 5, 59, 0
7, 182620, Note_on_c, 5, 67, 70
7, 183100, Note_on_c, 5, 65, 70
7, 183177, Note_on_c, 5, 67, 0
7, 183580, Note_on_c, 5, 64, 70
7, 183657, Note_on_c, 5, 65, 0
7, 184060, Note_on_c, 5, 62, 70
7, 184137, Note_on_c, 5, 64, 0
7, 184454, Note_on_c, 5, 62, 0
7, 184540, Note_on_c, 5, 60, 70
7, 185020, Note_on_c, 5, 67, 70
7, 185097, Note_on_c, 5, 60, 0
7, 185500, Note_on_c, 5, 65, 70
7, 185577, Note_on_c, 5, 67, 0
7, 185980, Note_on_c, 5, 64, 70
7, 186057, Note_on_c, 5, 65, 0
7, 186369, Note_on_c, 5, 64, 0
7, 186460, Note_on_c, 5, 62, 70
7, 186940, Note_on_c, 5, 67, 70
7, 187017, Note_on_c, 5, 62, 0
7, 187420, Note_on_c, 5, 65, 70
7, 187497, Note_on_c, 5, 67, 0
7, 187900, Note_on_c, 5, 63, 70
7, 187977, Note_on_c, 5, 65, 0
7, 188084, Note_on_c, 5, 63, 0
7, 188140, Note_on_c, 5, 64, 73
7, 188236, Note_on_c, 5, 64, 0
7, 188380, Note_on_c, 5, 67, 74
7, 188476, Note_on_c, 5, 67, 0
7, 188620, Note_on_c, 5, 72, 76
7, 188716, Note_on_c, 5, 72, 0
7, 188860, Note_on_c, 5, 76, 79
7, 188956, Note_on_c, 5, 76, 0
7, 189100, Note_on_c, 5, 74, 81
7, 189580, Note_on_c, 5, 74, 0
7, 190060, Note_on_c, 5, 64, 68
7, 190156, Note_on_c, 5, 64, 0
7, 190300, Note_on_c, 5, 67, 70
7, 190396, Note_on_c, 5, 67, 0
7, 190540, Note_on_c, 5, 72, 72
7, 190636, Note_on_c, 5, 72, 0
7, 190780, Note_on_c, 5, 76, 74
7, 190876, Note_on_c, 5, 76, 0
7, 191020, Note_on_c, 5, 74, 76
7, 191500, Note_on_c, 5, 74, 0
7, 192460, Note_on_c, 5, 64, 70
7, 192460, Note_on_c, 5, 72, 70
7, 192940, Note_on_c, 5, 72, 0
7, 192940, Note_on_c, 5, 64, 0
7, 193420, Note_on_c, 5, 62, 70
7, 193420, Note_on_c, 5, 72, 70
7, 193900, Note_on_c, 5, 72, 0
7, 193900, Note_on_c, 5, 62, 0
7, 194380, Note_on_c, 5, 62, 70
7, 194380, Note_on_c, 5, 71, 70
7, 194860, Note_on_c, 5, 71, 0
7, 194860, Note_on_c, 5, 62, 0
7, 195340, Note_on_c, 5, 64, 70
7, 195340, Note_on_c, 5, 71, 70
7, 195820, Note_on_c, 5, 71, 0
7, 195820, Note_on_c, 5, 64, 0
7, 195820, Note_on_c, 5, 69, 70
7, 196540, Note_on_c, 5, 69, 0
7, 196540, Note_on_c, 5, 76, 76
7, 196780, Note_on_c, 5, 76, 0
7, 196780, Note_on_c, 5, 74, 75
7, 196876, Note_on_c, 5, 74, 0
7, 197020, Note_on_c, 5, 72, 74
7, 197116, Note_on_c, 5, 72, 0
7, 197260, Note_on_c, 5, 71, 70
7, 197356, Note_on_c, 5, 71, 0
7, 197500, Note_on_c, 5, 69, 69
7, 197596, Note_on_c, 5, 69, 0
7, 197740, Note_on_c, 5, 67, 69
7, 197836, Note_on_c, 5, 67, 0
7, 197980, Note_on_c, 5, 69, 69
7, 198076, Note_on_c, 5, 69, 0
7, 198220, Note_on_c, 5, 71, 71
7, 198316, Note_on_c, 5, 71, 0
7, 198460, Note_on_c, 5, 72, 73
7, 198556, Note_on_c, 5, 72, 0
7, 198700, Note_on_c, 5, 74, 78
7, 199180, Note_on_c, 5, 74, 0
7, 203500, Note_on_c, 5, 76, 76
7, 204460, Note_on_c, 5, 74, 77
7, 204504, Note_on_c, 5, 76, 0
7, 204556, Note_on_c, 5, 74, 0
7, 204700, Note_on_c, 5, 72, 75
7, 204796, Note_on_c, 5, 72, 0
7, 204940, Note_on_c, 5, 71, 72
7, 205036, Note_on_c, 5, 71, 0
7, 205180, Note_on_c, 5, 69, 69
7, 205276, Note_on_c, 5, 69, 0
7, 205420, Note_on_c, 5, 67, 67
7, 205900, Note_on_c, 5, 67, 0
7, 213099, Control_c, 5, 0, 0
7, 213100, Program_c, 5, 45
7, 214060, Note_on_c, 5, 79, 70
7, 214300, Note_on_c, 5, 79, 0
7, 214540, Note_on_c, 5, 78, 70
7, 214780, Note_on_c, 5, 78, 0
7, 215020, Note_on_c, 5, 79, 70
7, 215500, Note_on_c, 5, 79, 0
7, 215980, Note_on_c, 5, 79, 70
7, 216148, Note_on_c, 5, 79, 0
7, 216220, Note_on_c, 5, 79, 70
7, 216388, Note_on_c, 5, 79, 0
7, 216460, Note_on_c, 5, 78, 70
7, 216628, Note_on_c, 5, 78, 0
7, 216700, Note_on_c, 5, 78, 70
7, 216868, Note_on_c, 5, 78, 0
7, 216940, Note_on_c, 5, 79, 70
7, 217420, Note_on_c, 5, 79, 0
7, 217900, Note_on_c, 5, 79, 70
7, 218140, Note_on_c, 5, 79, 0
7, 218380, Note_on_c, 5, 78, 70
7, 218620, Note_on_c, 5, 78, 0
7, 218860, Note_on_c, 5, 79, 70
7, 219100, Note_on_c, 5, 79, 0
7, 219340, Note_on_c, 5, 81, 70
7, 219580, Note_on_c, 5, 81, 0
7, 219820, Note_on_c, 5, 83, 70
7, 220060, Note_on_c, 5, 83, 0
7, 220300, Note_on_c, 5, 81, 70
7, 220540, Note_on_c, 5, 81, 0
7, 220780, Note_on_c, 5, 79, 70
7, 221260, Note_on_c, 5, 79, 0
7, 221740, Note_on_c, 5, 76, 70
7, 222220, Note_on_c, 5, 76, 0
7, 222700, Note_on_c, 5, 74, 70
7, 222940, Note_on_c, 5, 74, 0
7, 223180, Note_on_c, 5, 71, 70
7, 223420, Note_on_c, 5, 71, 0
7, 223660, Note_on_c, 5, 69, 70
7, 223900, Note_on_c, 5, 69, 0
7, 224140, Note_on_c, 5, 72, 70
7, 224380, Note_on_c, 5, 72, 0
7, 226539, Control_c, 5, 0, 0
7, 226540, Program_c, 5, 48
7, 226780, Note_on_c, 5, 71, 70
7, 226948, Note_on_c, 5, 71, 0
7, 227020, Note_on_c, 5, 71, 70
7, 227188, Note_on_c, 5, 71, 0
7, 227260, Note_on_c, 5, 71, 70
7, 227428, Note_on_c, 5, 71, 0
7, 227500, Note_on_c, 5, 71, 70
7, 227668, Note_on_c, 5, 71, 0
7, 227740, Note_on_c, 5, 71, 70
7, 227908, Note_on_c, 5, 71, 0
7, 227980, Note_on_c, 5, 71, 70
7, 228148, Note_on_c, 5, 71, 0
7, 228220, Note_on_c, 5, 71, 70
7, 228388, Note_on_c, 5, 71, 0
7, 228460, Note_on_c, 5, 69, 73
7, 228580, Note_on_c, 5, 69, 0
7, 228580, Note_on_c, 5, 69, 74
7, 228700, Note_on_c, 5, 69, 0
7, 228700, Note_on_c, 5, 69, 76
7, 228820, Note_on_c, 5, 69, 0
7, 228820, Note_on_c, 5, 69, 76
7, 228940, Note_on_c, 5, 69, 0
7, 228940, Note_on_c, 5, 69, 78
7, 229060, Note_on_c, 5, 69, 0
7, 229060, Note_on_c, 5, 69, 81
7, 229180, Note_on_c, 5, 69, 0
7, 229180, Note_on_c, 5, 69, 83
7, 229300, Note_on_c, 5, 69, 0
7, 229300, Note_on_c, 5, 69, 84
7, 229420, Note_on_c, 5, 69, 0
7, 229420, Note_on_c, 5, 72, 88
7, 229540, Note_on_c, 5, 72, 0
7, 229540, Note_on_c, 5, 72, 90
7, 229660, Note_on_c, 5, 72, 0
7, 229660, Note_on_c, 5, 72, 91
7, 229780, Note_on_c, 5, 72, 0
7, 229780, Note_on_c, 5, 72, 93
7, 229900, Note_on_c, 5, 72, 0
7, 229900, Note_on_c, 5, 78, 96
7, 230020, Note_on_c, 5, 78, 0
7, 230020, Note_on_c, 5, 78, 96
7, 230140, Note_on_c, 5, 78, 0
7, 230140, Note_on_c, 5, 78, 98
7, 230260, Note_on_c, 5, 78, 0
7, 230260, Note_on_c, 5, 78, 98
7, 230380, Note_on_c, 5, 78, 0
7, 230380, Note_on_c, 5, 79, 105
7, 230860, Note_on_c, 5, 79, 0
7, 230860, Note_on_c, 5, 79, 105
7, 230956, Note_on_c, 5, 79, 0
7, 231340, Note_on_c, 5, 78, 105
7, 231436, Note_on_c, 5, 78, 0
7, 231820, Note_on_c, 5, 76, 105
7, 231916, Note_on_c, 5, 76, 0
7, 232300, Note_on_c, 5, 74, 105
7, 233020, Note_on_c, 5, 74, 0
7, 233020, Note_on_c, 5, 72, 105
7, 233260, Note_on_c, 5, 72, 0
7, 233260, Note_on_c, 5, 71, 105
7, 233740, Note_on_c, 5, 71, 0
7, 234700, Note_on_c, 5, 76, 70
7, 234796, Note_on_c, 5, 76, 0
7, 235180, Note_on_c, 5, 74, 70
7, 235276, Note_on_c, 5, 74, 0
7, 235660, Note_on_c, 5, 72, 70
7, 235756, Note_on_c, 5, 72, 0
7, 236140, Note_on_c, 5, 71, 70
7, 236860, Note_on_c, 5, 71, 0
7, 236860, Note_on_c, 5, 69, 70
7, 237100, Note_on_c, 5, 69, 0
7, 237100, Note_on_c, 5, 67, 70
7, 237580, Note_on_c, 5, 67, 0
7, 238060, Note_on_c, 5, 62, 105
7, 238060, Note_on_c, 5, 72, 105
7, 238540, Note_on_c, 5, 72, 0
7, 238540, Note_on_c, 5, 62, 0
7, 238540, Note_on_c, 5, 74, 105
7, 238540, Note_on_c, 5, 84, 105
7, 239500, Note_on_c, 5, 84, 0
7, 239500, Note_on_c, 5, 74, 0
7, 239500, Note_on_c, 5, 62, 105
7, 239500, Note_on_c, 5, 72, 105
7, 239980, Note_on_c, 5, 72, 0
7, 239980, Note_on_c, 5, 62, 0
7, 239980, Note_on_c, 5, 62, 105
7, 239980, Note_on_c, 5, 71, 105
7, 240460, Note_on_c, 5, 71, 0
7, 240460, Note_on_c, 5, 62, 0
7, 240460, Note_on_c, 5, 74, 105
7, 240460, Note_on_c, 5, 83, 105
7, 241420, Note_on_c, 5, 83, 0
7, 241420, Note_on_c, 5, 74, 0
7, 241420, Note_on_c, 5, 62, 105
7, 241420, Note_on_c, 5, 71, 105
7, 241900, Note_on_c, 5, 71, 0
7, 241900, Note_on_c, 5, 62, 0
7, 241900, Note_on_c, 5, 69, 105
7, 242380, Note_on_c, 5, 69, 0
7, 242380, Note_on_c, 5, 78, 105
7, 242500, Note_on_c, 5, 78, 0
7, 242500, Note_on_c, 5, 76, 105
7, 242620, Note_on_c, 5, 76, 0
7, 242620, Note_on_c, 5, 74, 105
7, 242740, Note_on_c, 5, 74, 0
7, 242740, Note_on_c, 5, 72, 105
7, 242860, Note_on_c, 5, 72, 0
7, 242860, Note_on_c, 5, 71, 105
7, 243340, Note_on_c, 5, 71, 0
7, 243340, Note_on_c, 5, 69, 105
7, 243820, Note_on_c, 5, 69, 0
7, 243820, Note_on_c, 5, 86, 121
7, 243940, Note_on_c, 5, 86, 0
7, 243940, Note_on_c, 5, 84, 120
7, 244060, Note_on_c, 5, 84, 0
7, 244060, Note_on_c, 5, 83, 119
7, 244180, Note_on_c, 5, 83, 0
7, 244180, Note_on_c, 5, 81, 117
7, 244300, Note_on_c, 5, 81, 0
7, 244300, Note_on_c, 5, 79, 115
7, 244420, Note_on_c, 5, 79, 0
7, 244420, Note_on_c, 5, 78, 111
7, 244540, Note_on_c, 5, 78, 0
7, 244540, Note_on_c, 5, 76, 109
7, 244660, Note_on_c, 5, 76, 0
7, 244660, Note_on_c, 5, 74, 109
7, 244780, Note_on_c, 5, 74, 0
7, 244780, Note_on_c, 5, 76, 113
7, 244876, Note_on_c, 5, 76, 0
7, 245020, Note_on_c, 5, 79, 105
7, 245116, Note_on_c, 5, 79, 0
7, 245260, Note_on_c, 5, 84, 105
7, 245356, Note_on_c, 5, 84, 0
7, 245500, Note_on_c, 5, 88, 105
7, 245596, Note_on_c, 5, 88, 0
7, 245740, Note_on_c, 5, 62, 105
7, 246220, Note_on_c, 5, 62, 0
7, 246220, Note_on_c, 5, 86, 105
7, 246940, Note_on_c, 5, 86, 0
7, 246940, Note_on_c, 5, 88, 105
7, 247060, Note_on_c, 5, 88, 0
7, 247060, Note_on_c, 5, 86, 105
7, 247180, Note_on_c, 5, 86, 0
7, 247180, Note_on_c, 5, 84, 105
7, 247420, Note_on_c, 5, 84, 0
7, 247420, Note_on_c, 5, 83, 105
7, 247660, Note_on_c, 5, 83, 0
7, 247660, Note_on_c, 5, 83, 105
7, 248020, Note_on_c, 5, 81, 105
7, 248059, Note_on_c, 5, 83, 0
7, 248114, Note_on_c, 5, 81, 0
7, 248140, Note_on_c, 5, 79, 105
7, 249100, Note_on_c, 5, 79, 0
7, 249100, Note_on_c, 5, 78, 105
7, 249580, Note_on_c, 5, 78, 0
7, 249580, Note_on_c, 5, 79, 105
7, 250060, Note_on_c, 5, 79, 0
7, 250300, Note_on_c, 5, 67, 70
7, 250540, Note_on_c, 5, 67, 0
7, 250780, Note_on_c, 5, 66, 70
7, 251020, Note_on_c, 5, 66, 0
7, 251260, Note_on_c, 5, 64, 70
7, 251500, Note_on_c, 5, 64, 0
7, 251500, Note_on_c, 5, 63, 105
7, 251596, Note_on_c, 5, 63, 0
7, 251740, Note_on_c, 5, 63, 105
7, 251836, Note_on_c, 5, 63, 0
7, 252220, Note_on_c, 5, 64, 70
7, 252460, Note_on_c, 5, 64, 0
7, 252700, Note_on_c, 5, 62, 70
7, 252940, Note_on_c, 5, 62, 0
7, 253180, Note_on_c, 5, 60, 70
7, 253420, Note_on_c, 5, 60, 0
7, 253420, Note_on_c, 5, 59, 105
7, 253516, Note_on_c, 5, 59, 0
7, 253660, Note_on_c, 5, 59, 105
7, 253756, Note_on_c, 5, 59, 0
7, 254140, Note_on_c, 5, 60, 70
7, 254380, Note_on_c, 5, 60, 0
7, 254620, Note_on_c, 5, 59, 70
7, 254860, Note_on_c, 5, 59, 0
7, 255100, Note_on_c, 5, 57, 70
7, 255340, Note_on_c, 5, 57, 0
7, 255580, Note_on_c, 5, 56, 70
7, 255820, Note_on_c, 5, 59, 70
7, 255874, Note_on_c, 5, 56, 0
7, 256060, Note_on_c, 5, 64, 70
7, 256114, Note_on_c, 5, 59, 0
7, 256300, Note_on_c, 5, 64, 0
7, 256540, Note_on_c, 5, 56, 70
7, 256780, Note_on_c, 5, 59, 70
7, 256824, Note_on_c, 5, 56, 0
7, 257020, Note_on_c, 5, 64, 70
7, 257064, Note_on_c, 5, 59, 0
7, 257260, Note_on_c, 5, 64, 0
7, 257500, Note_on_c, 5, 57, 70
7, 257740, Note_on_c, 5, 60, 70
7, 257824, Note_on_c, 5, 57, 0
7, 257980, Note_on_c, 5, 64, 70
7, 258034, Note_on_c, 5, 60, 0
7, 258220, Note_on_c, 5, 64, 0
7, 258460, Note_on_c, 5, 57, 70
7, 258700, Note_on_c, 5, 60, 70
7, 258739, Note_on_c, 5, 57, 0
7, 258940, Note_on_c, 5, 64, 70
7, 258999, Note_on_c, 5, 60, 0
7, 259180, Note_on_c, 5, 64, 0
7, 259420, Note_on_c, 5, 59, 70
7, 259660, Note_on_c, 5, 62, 70
7, 259709, Note_on_c, 5, 59, 0
7, 259900, Note_on_c, 5, 64, 70
7, 259949, Note_on_c, 5, 62, 0
7, 260140, Note_on_c, 5, 64, 0
7, 260380, Note_on_c, 5, 59, 70
7, 260620, Note_on_c, 5, 64, 70
7, 260679, Note_on_c, 5, 59, 0
7, 260860, Note_on_c, 5, 68, 70
7, 260899, Note_on_c, 5, 64, 0
7, 261100, Note_on_c, 5, 68, 0
7, 261340, Note_on_c, 5, 60, 70
7, 261580, Note_on_c, 5, 64, 70
7, 261634, Note_on_c, 5, 60, 0
7, 261820, Note_on_c, 5, 69, 70
7, 261864, Note_on_c, 5, 64, 0
7, 262060, Note_on_c, 5, 69, 0
7, 262300, Note_on_c, 5, 60, 70
7, 262540, Note_on_c, 5, 64, 70
7, 262589, Note_on_c, 5, 60, 0
7, 262780, Note_on_c, 5, 69, 70
7, 262829, Note_on_c, 5, 64, 0
7, 263020, Note_on_c, 5, 69, 0
7, 263500, Note_on_c, 5, 74, 70
7, 263980, Note_on_c, 5, 72, 70
7, 264029, Note_on_c, 5, 74, 0
7, 264460, Note_on_c, 5, 71, 70
7, 264509, Note_on_c, 5, 72, 0
7, 264899, Note_on_c, 5, 71, 0
7, 264940, Note_on_c, 5, 72, 70
7, 265132, Note_on_c, 5, 72, 0
7, 265420, Note_on_c, 5, 68, 70
7, 265612, Note_on_c, 5, 68, 0
7, 265900, Note_on_c, 5, 69, 70
7, 266092, Note_on_c, 5, 69, 0
7, 266860, Note_on_c, 5, 65, 70
7, 267580, Note_on_c, 5, 74, 70
7, 267629, Note_on_c, 5, 65, 0
7, 267764, Note_on_c, 5, 74, 0
7, 267820, Note_on_c, 5, 72, 70
7, 268300, Note_on_c, 5, 71, 70
7, 268379, Note_on_c, 5, 72, 0
7, 268734, Note_on_c, 5, 71, 0
7, 268780, Note_on_c, 5, 69, 105
7, 268876, Note_on_c, 5, 69, 0
7, 269020, Note_on_c, 5, 69, 105
7, 269116, Note_on_c, 5, 69, 0
7, 269500, Note_on_c, 5, 72, 70
7, 269740, Note_on_c, 5, 72, 0
7, 269980, Note_on_c, 5, 71, 70
7, 270220, Note_on_c, 5, 71, 0
7, 270460, Note_on_c, 5, 69, 70
7, 270700, Note_on_c, 5, 69, 0
7, 270700, Note_on_c, 5, 68, 105
7, 270796, Note_on_c, 5, 68, 0
7, 270940, Note_on_c, 5, 68, 105
7, 271036, Note_on_c, 5, 68, 0
7, 271420, Note_on_c, 5, 69, 70
7, 271660, Note_on_c, 5, 69, 0
7, 271900, Note_on_c, 5, 67, 70
7, 272140, Note_on_c, 5, 67, 0
7, 272380, Note_on_c, 5, 65, 70
7, 272620, Note_on_c, 5, 65, 0
7, 272620, Note_on_c, 5, 64, 105
7, 272716, Note_on_c, 5, 64, 0
7, 272860, Note_on_c, 5, 64, 105
7, 272956, Note_on_c, 5, 64, 0
7, 273340, Note_on_c, 5, 65, 70
7, 273580, Note_on_c, 5, 65, 0
7, 273820, Note_on_c, 5, 64, 70
7, 274060, Note_on_c, 5, 64, 0
7, 274300, Note_on_c, 5, 62, 70
7, 274540, Note_on_c, 5, 62, 0
7, 274780, Note_on_c, 5, 61, 70
7, 275020, Note_on_c, 5, 64, 70
7, 275069, Note_on_c, 5, 61, 0
7, 275260, Note_on_c, 5, 69, 70
7, 275304, Note_on_c, 5, 64, 0
7, 275500, Note_on_c, 5, 69, 0
7, 275740, Note_on_c, 5, 61, 70
7, 275980, Note_on_c, 5, 64, 70
7, 276044, Note_on_c, 5, 61, 0
7, 276220, Note_on_c, 5, 69, 70
7, 276279, Note_on_c, 5, 64, 0
7, 276460, Note_on_c, 5, 69, 0
7, 276700, Note_on_c, 5, 62, 70
7, 276940, Note_on_c, 5, 65, 70
7, 276989, Note_on_c, 5, 62, 0
7, 277180, Note_on_c, 5, 69, 70
7, 277229, Note_on_c, 5, 65, 0
7, 277420, Note_on_c, 5, 69, 0
7, 277660, Note_on_c, 5, 62, 70
7, 277900, Note_on_c, 5, 65, 70
7, 277949, Note_on_c, 5, 62, 0
7, 278140, Note_on_c, 5, 69, 70
7, 278204, Note_on_c, 5, 65, 0
7, 278380, Note_on_c, 5, 69, 0
7, 278620, Note_on_c, 5, 64, 70
7, 278860, Note_on_c, 5, 67, 70
7, 278909, Note_on_c, 5, 64, 0
7, 279100, Note_on_c, 5, 70, 70
7, 279149, Note_on_c, 5, 67, 0
7, 279340, Note_on_c, 5, 70, 0
7, 279580, Note_on_c, 5, 64, 70
7, 279820, Note_on_c, 5, 73, 70
7, 279884, Note_on_c, 5, 64, 0
7, 280060, Note_on_c, 5, 76, 70
7, 280109, Note_on_c, 5, 73, 0
7, 280300, Note_on_c, 5, 76, 0
7, 280540, Note_on_c, 5, 73, 70
7, 280664, Note_on_c, 5, 73, 0
7, 280780, Note_on_c, 5, 81, 70
7, 280894, Note_on_c, 5, 81, 0
7, 281020, Note_on_c, 5, 77, 70
7, 281124, Note_on_c, 5, 77, 0
7, 281260, Note_on_c, 5, 74, 70
7, 281389, Note_on_c, 5, 74, 0
7, 281500, Note_on_c, 5, 69, 70
7, 281629, Note_on_c, 5, 69, 0
7, 281740, Note_on_c, 5, 65, 70
7, 281889, Note_on_c, 5, 65, 0
7, 281980, Note_on_c, 5, 62, 70
7, 282104, Note_on_c, 5, 62, 0
7, 282700, Note_on_c, 5, 70, 70
7, 283180, Note_on_c, 5, 69, 70
7, 283244, Note_on_c, 5, 70, 0
7, 283660, Note_on_c, 5, 67, 70
7, 283719, Note_on_c, 5, 69, 0
7, 284079, Note_on_c, 5, 67, 0
7, 284140, Note_on_c, 5, 65, 70
7, 284332, Note_on_c, 5, 65, 0
7, 284620, Note_on_c, 5, 61, 70
7, 284812, Note_on_c, 5, 61, 0
7, 285100, Note_on_c, 5, 62, 70
7, 285292, Note_on_c, 5, 62, 0
7, 286060, Note_on_c, 5, 67, 70
7, 286780, Note_on_c, 5, 69, 74
7, 286819, Note_on_c, 5, 67, 0
7, 286900, Note_on_c, 5, 70, 72
7, 286939, Note_on_c, 5, 69, 0
7, 287020, Note_on_c, 5, 65, 69
7, 287069, Note_on_c, 5, 70, 0
7, 287434, Note_on_c, 5, 65, 0
7, 287500, Note_on_c, 5, 65, 80
7, 287528, Note_on_c, 5, 65, 0
7, 287528, Note_on_c, 5, 64, 82
7, 287560, Note_on_c, 5, 64, 0
7, 287560, Note_on_c, 5, 65, 82
7, 287588, Note_on_c, 5, 65, 0
7, 287588, Note_on_c, 5, 64, 84
7, 287620, Note_on_c, 5, 64, 0
7, 287620, Note_on_c, 5, 65, 84
7, 287648, Note_on_c, 5, 65, 0
7, 287648, Note_on_c, 5, 64, 83
7, 287680, Note_on_c, 5, 64, 0
7, 287680, Note_on_c, 5, 65, 77
7, 287708, Note_on_c, 5, 65, 0
7, 287708, Note_on_c, 5, 64, 77
7, 287740, Note_on_c, 5, 64, 0
7, 287740, Note_on_c, 5, 62, 75
7, 287860, Note_on_c, 5, 62, 0
7, 287860, Note_on_c, 5, 64, 75
7, 287980, Note_on_c, 5, 64, 0
7, 287980, Note_on_c, 5, 62, 76
7, 288460, Note_on_c, 5, 62, 0
7, 293740, Note_on_c, 5, 65, 70
7, 297580, Note_on_c, 5, 65, 0
7, 297580, Note_on_c, 5, 64, 105
7, 299500, Note_on_c, 5, 64, 0
7, 299500, Note_on_c, 5, 69, 105
7, 299980, Note_on_c, 5, 69, 0
7, 305260, Note_on_c, 5, 79, 70
7, 305980, Note_on_c, 5, 75, 70
7, 306054, Note_on_c, 5, 79, 0
7, 306220, Note_on_c, 5, 79, 70
7, 306279, Note_on_c, 5, 75, 0
7, 306389, Note_on_c, 5, 79, 0
7, 306700, Note_on_c, 5, 75, 70
7, 306814, Note_on_c, 5, 75, 0
7, 307180, Note_on_c, 5, 74, 70
7, 307660, Note_on_c, 5, 74, 0
7, 309100, Note_on_c, 5, 79, 70
7, 309820, Note_on_c, 5, 75, 70
7, 309904, Note_on_c, 5, 79, 0
7, 310060, Note_on_c, 5, 79, 70
7, 310139, Note_on_c, 5, 75, 0
7, 310249, Note_on_c, 5, 79, 0
7, 310540, Note_on_c, 5, 75, 70
7, 310636, Note_on_c, 5, 75, 0
7, 311020, Note_on_c, 5, 74, 70
7, 311500, Note_on_c, 5, 74, 0
7, 315100, Note_on_c, 5, 79, 70
7, 315340, Note_on_c, 5, 78, 70
7, 315409, Note_on_c, 5, 79, 0
7, 315580, Note_on_c, 5, 79, 70
7, 315639, Note_on_c, 5, 78, 0
7, 315764, Note_on_c, 5, 79, 0
7, 317020, Note_on_c, 5, 79, 70
7, 317260, Note_on_c, 5, 78, 70
7, 317304, Note_on_c, 5, 79, 0
7, 317500, Note_on_c, 5, 79, 70
7, 317564, Note_on_c, 5, 78, 0
7, 317689, Note_on_c, 5, 79, 0
7, 318940, Note_on_c, 5, 62, 70
7, 319180, Note_on_c, 5, 62, 0
7, 319180, Note_on_c, 5, 62, 70
7, 319420, Note_on_c, 5, 62, 0
7, 319420, Note_on_c, 5, 62, 70
7, 319660, Note_on_c, 5, 62, 0
7, 319900, Note_on_c, 5, 64, 70
7, 320140, Note_on_c, 5, 64, 0
7, 320140, Note_on_c, 5, 64, 70
7, 320380, Note_on_c, 5, 64, 0
7, 320380, Note_on_c, 5, 64, 70
7, 320620, Note_on_c, 5, 64, 0
7, 320860, Note_on_c, 5, 65, 80
7, 321100, Note_on_c, 5, 65, 0
7, 321100, Note_on_c, 5, 65, 80
7, 321340, Note_on_c, 5, 65, 0
7, 321340, Note_on_c, 5, 65, 80
7, 321580, Note_on_c, 5, 65, 0
7, 321820, Note_on_c, 5, 67, 90
7, 322060, Note_on_c, 5, 67, 0
7, 322060, Note_on_c, 5, 67, 90
7, 322300, Note_on_c, 5, 67, 0
7, 322300, Note_on_c, 5, 67, 90
7, 322540, Note_on_c, 5, 67, 0
7, 322780, Note_on_c, 5, 69, 105
7, 323020, Note_on_c, 5, 69, 0
7, 323020, Note_on_c, 5, 69, 105
7, 323260, Note_on_c, 5, 69, 0
7, 323260, Note_on_c, 5, 69, 105
7, 323500, Note_on_c, 5, 69, 0
7, 323740, Note_on_c, 5, 62, 105
7, 323740, Note_on_c, 5, 71, 105
7, 323980, Note_on_c, 5, 71, 0
7, 323980, Note_on_c, 5, 62, 0
7, 323980, Note_on_c, 5, 62, 105
7, 323980, Note_on_c, 5, 71, 105
7, 324220, Note_on_c, 5, 71, 0
7, 324220, Note_on_c, 5, 62, 0
7, 324220, Note_on_c, 5, 62, 105
7, 324220, Note_on_c, 5, 71, 105
7, 324389, Note_on_c, 5, 62, 0
7, 324399, Note_on_c, 5, 71, 0
7, 324400, Note_on_c, 5, 55, 105
7, 324430, Note_on_c, 5, 64, 105
7, 324460, Note_on_c, 5, 72, 105
7, 324539, Note_on_c, 5, 55, 0
7, 325142, Note_on_c, 5, 64, 0
7, 325144, Note_on_c, 5, 72, 0
7, 325180, Note_on_c, 5, 79, 105
7, 325408, Note_on_c, 5, 79, 0
7, 325420, Note_on_c, 5, 76, 105
7, 325648, Note_on_c, 5, 76, 0
7, 325660, Note_on_c, 5, 72, 105
7, 325888, Note_on_c, 5, 72, 0
7, 325900, Note_on_c, 5, 76, 105
7, 326128, Note_on_c, 5, 76, 0
7, 326140, Note_on_c, 5, 79, 105
7, 326368, Note_on_c, 5, 79, 0
7, 326380, Note_on_c, 5, 84, 105
7, 327064, Note_on_c, 5, 84, 0
7, 327100, Note_on_c, 5, 79, 105
7, 327328, Note_on_c, 5, 79, 0
7, 327340, Note_on_c, 5, 76, 105
7, 327568, Note_on_c, 5, 76, 0
7, 327580, Note_on_c, 5, 72, 105
7, 327808, Note_on_c, 5, 72, 0
7, 327820, Note_on_c, 5, 76, 105
7, 328048, Note_on_c, 5, 76, 0
7, 328060, Note_on_c, 5, 79, 105
7, 328288, Note_on_c, 5, 79, 0
7, 328300, Note_on_c, 5, 84, 105
7, 328780, Note_on_c, 5, 84, 0
7, 329020, Note_on_c, 5, 60, 70
7, 329260, Note_on_c, 5, 60, 0
7, 329500, Note_on_c, 5, 59, 70
7, 329740, Note_on_c, 5, 59, 0
7, 329980, Note_on_c, 5, 60, 70
7, 330220, Note_on_c, 5, 60, 0
7, 330220, Note_on_c, 5, 62, 105
7, 330316, Note_on_c, 5, 62, 0
7, 330460, Note_on_c, 5, 62, 105
7, 330556, Note_on_c, 5, 62, 0
7, 330940, Note_on_c, 5, 62, 70
7, 331180, Note_on_c, 5, 62, 0
7, 331420, Note_on_c, 5, 61, 70
7, 331660, Note_on_c, 5, 61, 0
7, 331900, Note_on_c, 5, 62, 70
7, 332140, Note_on_c, 5, 62, 0
7, 332140, Note_on_c, 5, 64, 105
7, 332236, Note_on_c, 5, 64, 0
7, 332380, Note_on_c, 5, 64, 105
7, 332476, Note_on_c, 5, 64, 0
7, 332860, Note_on_c, 5, 64, 70
7, 333100, Note_on_c, 5, 64, 0
7, 333340, Note_on_c, 5, 63, 70
7, 333580, Note_on_c, 5, 63, 0
7, 333820, Note_on_c, 5, 64, 70
7, 334060, Note_on_c, 5, 64, 0
7, 334300, Note_on_c, 5, 65, 80
7, 334540, Note_on_c, 5, 65, 0
7, 334780, Note_on_c, 5, 67, 80
7, 335020, Note_on_c, 5, 67, 0
7, 335260, Note_on_c, 5, 69, 90
7, 335500, Note_on_c, 5, 69, 0
7, 335740, Note_on_c, 5, 71, 90
7, 335980, Note_on_c, 5, 71, 0
7, 335980, Note_on_c, 5, 72, 105
7, 336460, Note_on_c, 5, 72, 0
7, 357340, Note_on_c, 5, 67, 70
7, 357436, Note_on_c, 5, 67, 0
7, 357580, Note_on_c, 5, 69, 72
7, 357676, Note_on_c, 5, 69, 0
7, 357820, Note_on_c, 5, 71, 74
7, 357916, Note_on_c, 5, 71, 0
7, 358060, Note_on_c, 5, 72, 76
7, 358156, Note_on_c, 5, 72, 0
7, 358300, Note_on_c, 5, 74, 78
7, 358396, Note_on_c, 5, 74, 0
7, 358540, Note_on_c, 5, 76, 80
7, 358636, Note_on_c, 5, 76, 0
7, 358780, Note_on_c, 5, 78, 82
7, 358876, Note_on_c, 5, 78, 0
7, 359020, Note_on_c, 5, 79, 85
7, 359214, Note_on_c, 5, 79, 0
7, 359260, Note_on_c, 5, 81, 111
7, 359288, Note_on_c, 5, 81, 0
7, 359288, Note_on_c, 5, 79, 111
7, 359320, Note_on_c, 5, 79, 0
7, 359320, Note_on_c, 5, 81, 113
7, 359348, Note_on_c, 5, 81, 0
7, 359348, Note_on_c, 5, 79, 113
7, 359380, Note_on_c, 5, 79, 0
7, 359380, Note_on_c, 5, 78, 111
7, 359440, Note_on_c, 5, 79, 111
7, 359464, Note_on_c, 5, 78, 0
7, 359500, Note_on_c, 5, 83, 116
7, 359539, Note_on_c, 5, 79, 0
7, 359740, Note_on_c, 5, 83, 0
7, 359740, Note_on_c, 5, 79, 105
7, 359836, Note_on_c, 5, 79, 0
7, 359980, Note_on_c, 5, 74, 105
7, 360076, Note_on_c, 5, 74, 0
7, 360220, Note_on_c, 5, 79, 105
7, 360316, Note_on_c, 5, 79, 0
7, 360460, Note_on_c, 5, 71, 105
7, 360556, Note_on_c, 5, 71, 0
7, 360700, Note_on_c, 5, 74, 105
7, 360796, Note_on_c, 5, 74, 0
7, 360940, Note_on_c, 5, 67, 105
7, 361180, Note_on_c, 5, 67, 0
7, 361180, Note_on_c, 5, 69, 113
7, 361240, Note_on_c, 5, 67, 116
7, 361262, Note_on_c, 5, 69, 0
7, 361300, Note_on_c, 5, 66, 113
7, 361322, Note_on_c, 5, 67, 0
7, 361360, Note_on_c, 5, 67, 111
7, 361382, Note_on_c, 5, 66, 0
7, 361420, Note_on_c, 5, 71, 112
7, 361442, Note_on_c, 5, 67, 0
7, 361660, Note_on_c, 5, 71, 0
7, 361660, Note_on_c, 5, 67, 105
7, 361756, Note_on_c, 5, 67, 0
7, 361900, Note_on_c, 5, 62, 105
7, 361996, Note_on_c, 5, 62, 0
7, 362140, Note_on_c, 5, 67, 105
7, 362236, Note_on_c, 5, 67, 0
7, 362380, Note_on_c, 5, 59, 105
7, 362476, Note_on_c, 5, 59, 0
7, 362620, Note_on_c, 5, 62, 105
7, 362716, Note_on_c, 5, 62, 0
7, 362860, Note_on_c, 5, 55, 105
7, 363340, Note_on_c, 5, 55, 0
7, 378460, Note_on_c, 5, 76, 70
7, 378700, Note_on_c, 5, 76, 0
7, 378700, Note_on_c, 5, 76, 70
7, 378940, Note_on_c, 5, 76, 0
7, 378940, Note_on_c, 5, 76, 70
7, 379180, Note_on_c, 5, 76, 0
7, 379180, Note_on_c, 5, 76, 70
7, 379420, Note_on_c, 5, 76, 0
7, 379420, Note_on_c, 5, 76, 70
7, 379624, Note_on_c, 5, 76, 0
7, 379660, Note_on_c, 5, 74, 70
7, 379900, Note_on_c, 5, 71, 70
7, 379959, Note_on_c, 5, 74, 0
7, 380064, Note_on_c, 5, 71, 0
7, 380140, Note_on_c, 5, 69, 70
7, 380380, Note_on_c, 5, 69, 0
7, 380380, Note_on_c, 5, 72, 70
7, 380620, Note_on_c, 5, 72, 0
7, 380620, Note_on_c, 5, 72, 70
7, 380860, Note_on_c, 5, 72, 0
7, 380860, Note_on_c, 5, 72, 70
7, 381100, Note_on_c, 5, 72, 0
7, 381100, Note_on_c, 5, 72, 70
7, 381340, Note_on_c, 5, 72, 0
7, 381340, Note_on_c, 5, 72, 70
7, 381549, Note_on_c, 5, 72, 0
7, 381580, Note_on_c, 5, 70, 70
7, 381820, Note_on_c, 5, 67, 70
7, 381884, Note_on_c, 5, 70, 0
7, 382009, Note_on_c, 5, 67, 0
7, 382060, Note_on_c, 5, 65, 70
7, 382300, Note_on_c, 5, 65, 0
7, 382300, Note_on_c, 5, 69, 70
7, 382540, Note_on_c, 5, 69, 0
7, 382540, Note_on_c, 5, 69, 70
7, 382780, Note_on_c, 5, 69, 0
7, 382780, Note_on_c, 5, 69, 70
7, 383020, Note_on_c, 5, 69, 0
7, 383020, Note_on_c, 5, 69, 70
7, 383260, Note_on_c, 5, 69, 0
7, 383260, Note_on_c, 5, 69, 70
7, 383459, Note_on_c, 5, 69, 0
7, 383500, Note_on_c, 5, 67, 70
7, 383740, Note_on_c, 5, 64, 70
7, 383799, Note_on_c, 5, 67, 0
7, 383939, Note_on_c, 5, 64, 0
7, 383980, Note_on_c, 5, 62, 70
7, 384460, Note_on_c, 5, 61, 70
7, 384539, Note_on_c, 5, 62, 0
7, 384874, Note_on_c, 5, 61, 0
7, 384940, Note_on_c, 5, 69, 70
7, 385420, Note_on_c, 5, 62, 70
7, 385494, Note_on_c, 5, 69, 0
7, 385834, Note_on_c, 5, 62, 0
7, 385900, Note_on_c, 5, 77, 70
7, 386380, Note_on_c, 5, 74, 70
7, 386449, Note_on_c, 5, 77, 0
7, 386554, Note_on_c, 5, 74, 0
7, 386860, Note_on_c, 5, 74, 70
7, 387340, Note_on_c, 5, 71, 70
7, 387404, Note_on_c, 5, 74, 0
7, 387514, Note_on_c, 5, 71, 0
7, 387820, Note_on_c, 5, 71, 70
7, 388300, Note_on_c, 5, 67, 70
7, 388379, Note_on_c, 5, 71, 0
7, 388474, Note_on_c, 5, 67, 0
7, 388780, Note_on_c, 5, 65, 70
7, 389260, Note_on_c, 5, 62, 70
7, 389334, Note_on_c, 5, 65, 0
7, 389419, Note_on_c, 5, 62, 0
7, 389740, Note_on_c, 5, 64, 77
7, 390154, Note_on_c, 5, 64, 0
7, 390220, Note_on_c, 5, 65, 81
7, 390248, Note_on_c, 5, 65, 0
7, 390248, Note_on_c, 5, 64, 81
7, 390280, Note_on_c, 5, 64, 0
7, 390280, Note_on_c, 5, 65, 83
7, 390308, Note_on_c, 5, 65, 0
7, 390308, Note_on_c, 5, 64, 85
7, 390340, Note_on_c, 5, 62, 81
7, 390382, Note_on_c, 5, 64, 0
7, 390460, Note_on_c, 5, 64, 78
7, 390499, Note_on_c, 5, 62, 0
7, 390580, Note_on_c, 5, 65, 78
7, 390629, Note_on_c, 5, 64, 0
7, 390700, Note_on_c, 5, 67, 79
7, 390744, Note_on_c, 5, 65, 0
7, 391180, Note_on_c, 5, 67, 0
7, 391660, Note_on_c, 5, 76, 78
7, 392064, Note_on_c, 5, 76, 0
7, 392140, Note_on_c, 5, 77, 89
7, 392168, Note_on_c, 5, 77, 0
7, 392168, Note_on_c, 5, 76, 89
7, 392200, Note_on_c, 5, 76, 0
7, 392200, Note_on_c, 5, 77, 91
7, 392228, Note_on_c, 5, 77, 0
7, 392228, Note_on_c, 5, 76, 93
7, 392260, Note_on_c, 5, 74, 89
7, 392312, Note_on_c, 5, 76, 0
7, 392380, Note_on_c, 5, 76, 82
7, 392419, Note_on_c, 5, 74, 0
7, 392500, Note_on_c, 5, 77, 82
7, 392544, Note_on_c, 5, 76, 0
7, 392620, Note_on_c, 5, 79, 88
7, 392659, Note_on_c, 5, 77, 0
7, 393100, Note_on_c, 5, 79, 0
7, 393580, Note_on_c, 5, 77, 70
7, 394060, Note_on_c, 5, 74, 70
7, 394124, Note_on_c, 5, 77, 0
7, 394229, Note_on_c, 5, 74, 0
7, 394540, Note_on_c, 5, 74, 70
7, 395020, Note_on_c, 5, 71, 70
7, 395099, Note_on_c, 5, 74, 0
7, 395199, Note_on_c, 5, 71, 0
7, 395500, Note_on_c, 5, 71, 70
7, 395980, Note_on_c, 5, 67, 70
7, 396064, Note_on_c, 5, 71, 0
7, 396149, Note_on_c, 5, 67, 0
7, 396460, Note_on_c, 5, 65, 70
7, 396940, Note_on_c, 5, 62, 70
7, 397009, Note_on_c, 5, 65, 0
7, 397114, Note_on_c, 5, 62, 0
7, 397420, Note_on_c, 5, 64, 82
7, 397829, Note_on_c, 5, 64, 0
7, 397900, Note_on_c, 5, 65, 85
7, 397928, Note_on_c, 5, 65, 0
7, 397928, Note_on_c, 5, 64, 85
7, 397960, Note_on_c, 5, 64, 0
7, 397960, Note_on_c, 5, 65, 86
7, 397988, Note_on_c, 5, 65, 0
7, 397988, Note_on_c, 5, 64, 84
7, 398020, Note_on_c, 5, 62, 84
7, 398072, Note_on_c, 5, 64, 0
7, 398140, Note_on_c, 5, 64, 83
7, 398184, Note_on_c, 5, 62, 0
7, 398260, Note_on_c, 5, 65, 86
7, 398309, Note_on_c, 5, 64, 0
7, 398380, Note_on_c, 5, 67, 93
7, 398439, Note_on_c, 5, 65, 0
7, 398860, Note_on_c, 5, 67, 0
7, 399340, Note_on_c, 5, 76, 79
7, 399764, Note_on_c, 5, 76, 0
7, 399820, Note_on_c, 5, 77, 86
7, 399848, Note_on_c, 5, 77, 0
7, 399848, Note_on_c, 5, 76, 87
7, 399880, Note_on_c, 5, 76, 0
7, 399880, Note_on_c, 5, 77, 87
7, 399908, Note_on_c, 5, 77, 0
7, 399908, Note_on_c, 5, 76, 86
7, 399940, Note_on_c, 5, 74, 83
7, 400007, Note_on_c, 5, 76, 0
7, 400060, Note_on_c, 5, 76, 83
7, 400089, Note_on_c, 5, 74, 0
7, 400180, Note_on_c, 5, 77, 85
7, 400219, Note_on_c, 5, 76, 0
7, 400300, Note_on_c, 5, 79, 90
7, 400339, Note_on_c, 5, 77, 0
7, 400780, Note_on_c, 5, 79, 0
7, 401260, Note_on_c, 5, 55, 103
7, 401260, Note_on_c, 5, 67, 103
7, 401740, Note_on_c, 5, 67, 0
7, 401740, Note_on_c, 5, 55, 0
7, 401980, Note_on_c, 5, 74, 103
7, 401980, Note_on_c, 5, 83, 103
7, 402220, Note_on_c, 5, 83, 0
7, 402220, Note_on_c, 5, 74, 0
7, 402220, Note_on_c, 5, 76, 103
7, 402220, Note_on_c, 5, 84, 103
7, 402460, Note_on_c, 5, 84, 0
7, 402460, Note_on_c, 5, 76, 0
7, 402460, Note_on_c, 5, 76, 103
7, 402460, Note_on_c, 5, 84, 103
7, 402700, Note_on_c, 5, 84, 0
7, 402700, Note_on_c, 5, 76, 0
7, 402700, Note_on_c, 5, 76, 103
7, 402700, Note_on_c, 5, 84, 103
7, 402940, Note_on_c, 5, 84, 0
7, 402940, Note_on_c, 5, 76, 0
7, 402940, Note_on_c, 5, 76, 103
7, 402940, Note_on_c, 5, 84, 103
7, 403180, Note_on_c, 5, 84, 0
7, 403180, Note_on_c, 5, 76, 0
7, 403180, Note_on_c, 5, 74, 103
7, 403180, Note_on_c, 5, 83, 103
7, 403660, Note_on_c, 5, 83, 0
7, 403660, Note_on_c, 5, 74, 0
7, 403900, Note_on_c, 5, 74, 104
7, 403900, Note_on_c, 5, 83, 104
7, 404140, Note_on_c, 5, 83, 0
7, 404140, Note_on_c, 5, 74, 0
7, 404140, Note_on_c, 5, 76, 104
7, 404140, Note_on_c, 5, 84, 104
7, 404380, Note_on_c, 5, 84, 0
7, 404380, Note_on_c, 5, 76, 0
7, 404380, Note_on_c, 5, 76, 104
7, 404380, Note_on_c, 5, 84, 104
7, 404620, Note_on_c, 5, 84, 0
7, 404620, Note_on_c, 5, 76, 0
7, 404620, Note_on_c, 5, 76, 104
7, 404620, Note_on_c, 5, 84, 104
7, 404860, Note_on_c, 5, 84, 0
7, 404860, Note_on_c, 5, 76, 0
7, 404860, Note_on_c, 5, 76, 104
7, 404860, Note_on_c, 5, 84, 104
7, 405100, Note_on_c, 5, 84, 0
7, 405100, Note_on_c, 5, 76, 0
7, 405100, Note_on_c, 5, 74, 104
7, 405100, Note_on_c, 5, 83, 104
7, 405429, Note_on_c, 5, 74, 0
7, 405520, Note_on_c, 5, 62, 104
7, 405580, Note_on_c, 5, 83, 0
7, 405580, Note_on_c, 5, 79, 104
7, 405674, Note_on_c, 5, 62, 0
7, 406060, Note_on_c, 5, 79, 0
7, 406060, Note_on_c, 5, 55, 104
7, 406540, Note_on_c, 5, 55, 0
7, 407020, Note_on_c, 5, 64, 70
7, 407260, Note_on_c, 5, 60, 70
7, 407320, Note_on_c, 5, 64, 0
7, 407500, Note_on_c, 5, 64, 70
7, 407560, Note_on_c, 5, 60, 0
7, 407740, Note_on_c, 5, 60, 70
7, 407800, Note_on_c, 5, 64, 0
7, 407980, Note_on_c, 5, 64, 70
7, 408040, Note_on_c, 5, 60, 0
7, 408220, Note_on_c, 5, 60, 70
7, 408280, Note_on_c, 5, 64, 0
7, 408460, Note_on_c, 5, 64, 70
7, 408520, Note_on_c, 5, 60, 0
7, 408700, Note_on_c, 5, 60, 70
7, 408760, Note_on_c, 5, 64, 0
7, 408869, Note_on_c, 5, 60, 0
7, 408940, Note_on_c, 5, 65, 70
7, 409180, Note_on_c, 5, 62, 70
7, 409240, Note_on_c, 5, 65, 0
7, 409420, Note_on_c, 5, 65, 70
7, 409480, Note_on_c, 5, 62, 0
7, 409660, Note_on_c, 5, 62, 70
7, 409720, Note_on_c, 5, 65, 0
7, 409900, Note_on_c, 5, 65, 70
7, 409960, Note_on_c, 5, 62, 0
7, 410140, Note_on_c, 5, 62, 70
7, 410200, Note_on_c, 5, 65, 0
7, 410380, Note_on_c, 5, 65, 70
7, 410440, Note_on_c, 5, 62, 0
7, 410620, Note_on_c, 5, 62, 70
7, 410680, Note_on_c, 5, 65, 0
7, 410789, Note_on_c, 5, 62, 0
7, 410860, Note_on_c, 5, 64, 70
7, 411340, Note_on_c, 5, 64, 0
7, 411820, Note_on_c, 5, 67, 68
7, 411916, Note_on_c, 5, 67, 0
7, 412060, Note_on_c, 5, 69, 71
7, 412156, Note_on_c, 5, 69, 0
7, 412300, Note_on_c, 5, 71, 74
7, 412396, Note_on_c, 5, 71, 0
7, 412540, Note_on_c, 5, 72, 76
7, 412636, Note_on_c, 5, 72, 0
7, 412780, Note_on_c, 5, 72, 79
7, 413020, Note_on_c, 5, 71, 75
7, 413089, Note_on_c, 5, 72, 0
7, 413260, Note_on_c, 5, 69, 75
7, 413314, Note_on_c, 5, 71, 0
7, 413500, Note_on_c, 5, 67, 75
7, 413564, Note_on_c, 5, 69, 0
7, 413679, Note_on_c, 5, 67, 0
7, 413740, Note_on_c, 5, 67, 78
7, 413860, Note_on_c, 5, 67, 0
7, 413860, Note_on_c, 5, 65, 81
7, 413980, Note_on_c, 5, 65, 0
7, 413980, Note_on_c, 5, 64, 80
7, 414100, Note_on_c, 5, 64, 0
7, 414100, Note_on_c, 5, 65, 73
7, 414220, Note_on_c, 5, 65, 0
7, 414220, Note_on_c, 5, 69, 76
7, 414460, Note_on_c, 5, 69, 0
7, 414460, Note_on_c, 5, 65, 76
7, 414700, Note_on_c, 5, 65, 0
7, 414700, Note_on_c, 5, 63, 72
7, 414940, Note_on_c, 5, 64, 68
7, 414994, Note_on_c, 5, 63, 0
7, 415129, Note_on_c, 5, 64, 0
7, 415420, Note_on_c, 5, 64, 68
7, 415464, Note_on_c, 5, 64, 0
7, 415540, Note_on_c, 5, 65, 69
7, 415584, Note_on_c, 5, 65, 0
7, 415660, Note_on_c, 5, 67, 70
7, 415756, Note_on_c, 5, 67, 0
7, 415900, Note_on_c, 5, 69, 72
7, 415996, Note_on_c, 5, 69, 0
7, 416140, Note_on_c, 5, 71, 74
7, 416236, Note_on_c, 5, 71, 0
7, 416380, Note_on_c, 5, 72, 76
7, 416476, Note_on_c, 5, 72, 0
7, 416620, Note_on_c, 5, 72, 78
7, 416860, Note_on_c, 5, 71, 79
7, 416914, Note_on_c, 5, 72, 0
7, 417100, Note_on_c, 5, 69, 79
7, 417139, Note_on_c, 5, 71, 0
7, 417340, Note_on_c, 5, 67, 79
7, 417394, Note_on_c, 5, 69, 0
7, 417524, Note_on_c, 5, 67, 0
7, 417580, Note_on_c, 5, 67, 87
7, 417700, Note_on_c, 5, 67, 0
7, 417700, Note_on_c, 5, 65, 89
7, 417820, Note_on_c, 5, 65, 0
7, 417820, Note_on_c, 5, 64, 88
7, 417940, Note_on_c, 5, 64, 0
7, 417940, Note_on_c, 5, 65, 83
7, 418029, Note_on_c, 5, 65, 0
7, 418060, Note_on_c, 5, 69, 83
7, 418299, Note_on_c, 5, 69, 0
7, 418300, Note_on_c, 5, 65, 77
7, 418540, Note_on_c, 5, 64, 73
7, 418554, Note_on_c, 5, 65, 0
7, 418744, Note_on_c, 5, 64, 0
7, 418780, Note_on_c, 5, 72, 68
7, 419260, Note_on_c, 5, 70, 70
7, 419349, Note_on_c, 5, 72, 0
7, 419740, Note_on_c, 5, 69, 70
7, 419804, Note_on_c, 5, 70, 0
7, 420220, Note_on_c, 5, 67, 70
7, 420289, Note_on_c, 5, 69, 0
7, 420609, Note_on_c, 5, 67, 0
7, 420700, Note_on_c, 5, 65, 70
7, 421180, Note_on_c, 5, 72, 70
7, 421229, Note_on_c, 5, 65, 0
7, 421660, Note_on_c, 5, 70, 70
7, 421729, Note_on_c, 5, 72, 0
7, 422140, Note_on_c, 5, 69, 70
7, 422224, Note_on_c, 5, 70, 0
7, 422569, Note_on_c, 5, 69, 0
7, 422620, Note_on_c, 5, 67, 70
7, 423100, Note_on_c, 5, 72, 70
7, 423169, Note_on_c, 5, 67, 0
7, 423580, Note_on_c, 5, 70, 70
7, 423634, Note_on_c, 5, 72, 0
7, 424060, Note_on_c, 5, 68, 67
7, 424149, Note_on_c, 5, 70, 0
7, 424254, Note_on_c, 5, 68, 0
7, 424300, Note_on_c, 5, 69, 68
7, 424396, Note_on_c, 5, 69, 0
7, 424540, Note_on_c, 5, 72, 70
7, 424636, Note_on_c, 5, 72, 0
7, 424780, Note_on_c, 5, 77, 71
7, 424876, Note_on_c, 5, 77, 0
7, 425020, Note_on_c, 5, 81, 73
7, 425116, Note_on_c, 5, 81, 0
7, 425260, Note_on_c, 5, 79, 74
7, 425740, Note_on_c, 5, 79, 0
7, 426220, Note_on_c, 5, 69, 66
7, 426316, Note_on_c, 5, 69, 0
7, 426460, Note_on_c, 5, 72, 69
7, 426556, Note_on_c, 5, 72, 0
7, 426700, Note_on_c, 5, 77, 72
7, 426796, Note_on_c, 5, 77, 0
7, 426940, Note_on_c, 5, 81, 74
7, 427036, Note_on_c, 5, 81, 0
7, 427180, Note_on_c, 5, 79, 77
7, 427660, Note_on_c, 5, 79, 0
7, 428620, Note_on_c, 5, 69, 70
7, 428620, Note_on_c, 5, 77, 70
7, 429100, Note_on_c, 5, 77, 0
7, 429100, Note_on_c, 5, 69, 0
7, 429580, Note_on_c, 5, 67, 70
7, 429580, Note_on_c, 5, 77, 70
7, 430060, Note_on_c, 5, 77, 0
7, 430060, Note_on_c, 5, 67, 0
7, 430540, Note_on_c, 5, 67, 70
7, 430540, Note_on_c, 5, 76, 70
7, 431020, Note_on_c, 5, 76, 0
7, 431020, Note_on_c, 5, 67, 0
7, 431500, Note_on_c, 5, 69, 70
7, 431500, Note_on_c, 5, 76, 70
7, 431980, Note_on_c, 5, 76, 0
7, 431980, Note_on_c, 5, 69, 0
7, 431980, Note_on_c, 5, 74, 70
7, 432700, Note_on_c, 5, 77, 78
7, 432749, Note_on_c, 5, 74, 0
7, 432889, Note_on_c, 5, 77, 0
7, 432940, Note_on_c, 5, 76, 76
7, 433036, Note_on_c, 5, 76, 0
7, 433180, Note_on_c, 5, 74, 73
7, 433276, Note_on_c, 5, 74, 0
7, 433420, Note_on_c, 5, 72, 70
7, 433516, Note_on_c, 5, 72, 0
7, 433660, Note_on_c, 5, 71, 68
7, 433756, Note_on_c, 5, 71, 0
7, 433900, Note_on_c, 5, 72, 68
7, 433996, Note_on_c, 5, 72, 0
7, 434140, Note_on_c, 5, 74, 71
7, 434236, Note_on_c, 5, 74, 0
7, 434380, Note_on_c, 5, 76, 73
7, 434476, Note_on_c, 5, 76, 0
7, 434620, Note_on_c, 5, 77, 76
7, 434716, Note_on_c, 5, 77, 0
7, 434860, Note_on_c, 5, 79, 78
7, 435340, Note_on_c, 5, 79, 0
7, 439660, Note_on_c, 5, 69, 79
7, 440620, Note_on_c, 5, 67, 79
7, 440669, Note_on_c, 5, 69, 0
7, 440716, Note_on_c, 5, 67, 0
7, 440860, Note_on_c, 5, 65, 77
7, 440956, Note_on_c, 5, 65, 0
7, 441100, Note_on_c, 5, 64, 75
7, 441196, Note_on_c, 5, 64, 0
7, 441340, Note_on_c, 5, 62, 73
7, 441436, Note_on_c, 5, 62, 0
7, 441580, Note_on_c, 5, 60, 71
7, 442060, Note_on_c, 5, 60, 0
7, 449259, Control_c, 5, 0, 0
7, 449260, Program_c, 5, 45
7, 450220, Note_on_c, 5, 84, 70
7, 450460, Note_on_c, 5, 84, 0
7, 450700, Note_on_c, 5, 83, 70
7, 450940, Note_on_c, 5, 83, 0
7, 451180, Note_on_c, 5, 84, 70
7, 451660, Note_on_c, 5, 84, 0
7, 452140, Note_on_c, 5, 84, 70
7, 452380, Note_on_c, 5, 84, 0
7, 452380, Note_on_c, 5, 84, 70
7, 452620, Note_on_c, 5, 84, 0
7, 452620, Note_on_c, 5, 83, 70
7, 452860, Note_on_c, 5, 83, 0
7, 452860, Note_on_c, 5, 83, 70
7, 453100, Note_on_c, 5, 83, 0
7, 453100, Note_on_c, 5, 84, 70
7, 453580, Note_on_c, 5, 84, 0
7, 454060, Note_on_c, 5, 84, 70
7, 454300, Note_on_c, 5, 84, 0
7, 454540, Note_on_c, 5, 83, 70
7, 454780, Note_on_c, 5, 83, 0
7, 455020, Note_on_c, 5, 84, 70
7, 455260, Note_on_c, 5, 84, 0
7, 455500, Note_on_c, 5, 79, 70
7, 455740, Note_on_c, 5, 79, 0
7, 455980, Note_on_c, 5, 84, 70
7, 456220, Note_on_c, 5, 84, 0
7, 456460, Note_on_c, 5, 79, 70
7, 456700, Note_on_c, 5, 79, 0
7, 456940, Note_on_c, 5, 64, 70
7, 456940, Note_on_c, 5, 72, 70
7, 456940, Note_on_c, 5, 79, 70
7, 457420, Note_on_c, 5, 79, 0
7, 457420, Note_on_c, 5, 72, 0
7, 457420, Note_on_c, 5, 64, 0
7, 457900, Note_on_c, 5, 65, 70
7, 457900, Note_on_c, 5, 72, 70
7, 457900, Note_on_c, 5, 81, 70
7, 458380, Note_on_c, 5, 81, 0
7, 458380, Note_on_c, 5, 72, 0
7, 458380, Note_on_c, 5, 65, 0
7, 458860, Note_on_c, 5, 79, 70
7, 459100, Note_on_c, 5, 79, 0
7, 459340, Note_on_c, 5, 76, 70
7, 459580, Note_on_c, 5, 76, 0
7, 459820, Note_on_c, 5, 74, 70
7, 460060, Note_on_c, 5, 74, 0
7, 460300, Note_on_c, 5, 77, 70
7, 460540, Note_on_c, 5, 77, 0
7, 460780, Control_c, 5, 0, 0
7, 460780, Control_c, 5, 0, 0
7, 460780, Control_c, 5, 0, 0
7, 460780, Control_c, 5, 0, 0
7, 460780, Control_c, 5, 0, 0
7, 460780, Control_c, 5, 0, 0
7, 460780, Control_c, 5, 0, 0
7, 460780, Control_c, 5, 0, 0
7, 460780, Control_c, 5, 0, 0
7, 460780, Control_c, 5, 0, 0
7, 460780, Control_c, 5, 0, 0
7, 460780, Control_c, 5, 0, 0
7, 460780, Control_c, 5, 0, 0
7, 460780, Control_c, 5, 0, 0
7, 460780, Control_c, 5, 0, 0
7, 460780, Program_c, 5, 48
7, 462940, Note_on_c, 5, 76, 70
7, 463108, Note_on_c, 5, 76, 0
7, 463180, Note_on_c, 5, 76, 70
7, 463348, Note_on_c, 5, 76, 0
7, 463420, Note_on_c, 5, 76, 70
7, 463588, Note_on_c, 5, 76, 0
7, 463660, Note_on_c, 5, 76, 70
7, 463828, Note_on_c, 5, 76, 0
7, 463900, Note_on_c, 5, 76, 70
7, 464068, Note_on_c, 5, 76, 0
7, 464140, Note_on_c, 5, 76, 70
7, 464308, Note_on_c, 5, 76, 0
7, 464380, Note_on_c, 5, 76, 70
7, 464548, Note_on_c, 5, 76, 0
7, 464620, Note_on_c, 5, 74, 71
7, 464740, Note_on_c, 5, 74, 0
7, 464740, Note_on_c, 5, 74, 73
7, 464860, Note_on_c, 5, 74, 0
7, 464860, Note_on_c, 5, 74, 75
7, 464980, Note_on_c, 5, 74, 0
7, 464980, Note_on_c, 5, 74, 77
7, 465100, Note_on_c, 5, 74, 0
7, 465100, Note_on_c, 5, 74, 79
7, 465220, Note_on_c, 5, 74, 0
7, 465220, Note_on_c, 5, 74, 81
7, 465340, Note_on_c, 5, 74, 0
7, 465340, Note_on_c, 5, 74, 82
7, 465460, Note_on_c, 5, 74, 0
7, 465460, Note_on_c, 5, 74, 84
7, 465580, Note_on_c, 5, 74, 0
7, 465580, Note_on_c, 5, 77, 86
7, 465700, Note_on_c, 5, 77, 0
7, 465700, Note_on_c, 5, 77, 88
7, 465820, Note_on_c, 5, 77, 0
7, 465820, Note_on_c, 5, 77, 90
7, 465940, Note_on_c, 5, 77, 0
7, 465940, Note_on_c, 5, 77, 92
7, 466060, Note_on_c, 5, 77, 0
7, 466060, Note_on_c, 5, 83, 94
7, 466180, Note_on_c, 5, 83, 0
7, 466180, Note_on_c, 5, 83, 96
7, 466300, Note_on_c, 5, 83, 0
7, 466300, Note_on_c, 5, 83, 98
7, 466420, Note_on_c, 5, 83, 0
7, 466420, Note_on_c, 5, 83, 100
7, 466540, Note_on_c, 5, 83, 0
7, 466540, Note_on_c, 5, 76, 102
7, 466540, Note_on_c, 5, 84, 102
7, 467224, Note_on_c, 5, 84, 0
7, 467224, Note_on_c, 5, 76, 0
7, 467260, Note_on_c, 5, 79, 105
7, 467488, Note_on_c, 5, 79, 0
7, 467500, Note_on_c, 5, 76, 105
7, 467728, Note_on_c, 5, 76, 0
7, 467740, Note_on_c, 5, 72, 105
7, 467968, Note_on_c, 5, 72, 0
7, 467980, Note_on_c, 5, 76, 105
7, 468208, Note_on_c, 5, 76, 0
7, 468220, Note_on_c, 5, 79, 105
7, 468448, Note_on_c, 5, 79, 0
7, 468460, Note_on_c, 5, 84, 105
7, 469144, Note_on_c, 5, 84, 0
7, 469180, Note_on_c, 5, 79, 105
7, 469408, Note_on_c, 5, 79, 0
7, 469420, Note_on_c, 5, 76, 105
7, 469648, Note_on_c, 5, 76, 0
7, 469660, Note_on_c, 5, 72, 105
7, 469888, Note_on_c, 5, 72, 0
7, 469900, Note_on_c, 5, 76, 105
7, 470128, Note_on_c, 5, 76, 0
7, 470140, Note_on_c, 5, 79, 105
7, 470368, Note_on_c, 5, 79, 0
7, 470380, Note_on_c, 5, 84, 105
7, 471100, Note_on_c, 5, 84, 0
7, 471100, Note_on_c, 5, 83, 105
7, 471340, Note_on_c, 5, 83, 0
7, 471340, Note_on_c, 5, 81, 105
7, 472060, Note_on_c, 5, 81, 0
7, 472060, Note_on_c, 5, 79, 105
7, 472300, Note_on_c, 5, 79, 0
7, 472300, Note_on_c, 5, 77, 105
7, 473020, Note_on_c, 5, 77, 0
7, 473020, Note_on_c, 5, 76, 105
7, 473260, Note_on_c, 5, 76, 0
7, 473260, Note_on_c, 5, 74, 105
7, 473980, Note_on_c, 5, 74, 0
7, 473980, Note_on_c, 5, 73, 105
7, 474220, Note_on_c, 5, 73, 0
7, 474220, Note_on_c, 5, 74, 106
7, 474340, Note_on_c, 5, 74, 0
7, 474340, Note_on_c, 5, 77, 107
7, 474460, Note_on_c, 5, 77, 0
7, 474460, Note_on_c, 5, 76, 107
7, 474580, Note_on_c, 5, 76, 0
7, 474580, Note_on_c, 5, 79, 109
7, 474700, Note_on_c, 5, 79, 0
7, 474700, Note_on_c, 5, 77, 111
7, 474820, Note_on_c, 5, 77, 0
7, 474820, Note_on_c, 5, 81, 111
7, 474940, Note_on_c, 5, 81, 0
7, 474940, Note_on_c, 5, 79, 110
7, 475060, Note_on_c, 5, 79, 0
7, 475060, Note_on_c, 5, 82, 108
7, 475180, Note_on_c, 5, 82, 0
7, 475180, Note_on_c, 5, 81, 107
7, 475300, Note_on_c, 5, 81, 0
7, 475300, Note_on_c, 5, 79, 105
7, 475420, Note_on_c, 5, 79, 0
7, 475420, Note_on_c, 5, 77, 105
7, 475540, Note_on_c, 5, 77, 0
7, 475540, Note_on_c, 5, 76, 103
7, 475660, Note_on_c, 5, 76, 0
7, 475660, Note_on_c, 5, 74, 103
7, 475780, Note_on_c, 5, 74, 0
7, 475780, Note_on_c, 5, 72, 103
7, 475900, Note_on_c, 5, 72, 0
7, 475900, Note_on_c, 5, 71, 104
7, 476020, Note_on_c, 5, 71, 0
7, 476020, Note_on_c, 5, 72, 106
7, 476140, Note_on_c, 5, 72, 0
7, 476140, Note_on_c, 5, 71, 109
7, 476140, Note_on_c, 5, 79, 109
7, 476620, Note_on_c, 5, 79, 0
7, 476620, Note_on_c, 5, 71, 0
7, 476860, Note_on_c, 5, 74, 105
7, 476860, Note_on_c, 5, 83, 105
7, 477028, Note_on_c, 5, 83, 0
7, 477028, Note_on_c, 5, 74, 0
7, 477100, Note_on_c, 5, 76, 105
7, 477100, Note_on_c, 5, 84, 105
7, 477268, Note_on_c, 5, 84, 0
7, 477268, Note_on_c, 5, 76, 0
7, 477340, Note_on_c, 5, 76, 105
7, 477340, Note_on_c, 5, 84, 105
7, 477508, Note_on_c, 5, 84, 0
7, 477508, Note_on_c, 5, 76, 0
7, 477580, Note_on_c, 5, 76, 105
7, 477580, Note_on_c, 5, 84, 105
7, 477748, Note_on_c, 5, 84, 0
7, 477748, Note_on_c, 5, 76, 0
7, 477820, Note_on_c, 5, 76, 105
7, 477820, Note_on_c, 5, 84, 105
7, 477988, Note_on_c, 5, 84, 0
7, 477988, Note_on_c, 5, 76, 0
7, 478060, Note_on_c, 5, 74, 105
7, 478060, Note_on_c, 5, 83, 105
7, 478540, Note_on_c, 5, 83, 0
7, 478540, Note_on_c, 5, 74, 0
7, 478780, Note_on_c, 5, 74, 105
7, 478780, Note_on_c, 5, 83, 105
7, 478948, Note_on_c, 5, 83, 0
7, 478948, Note_on_c, 5, 74, 0
7, 479020, Note_on_c, 5, 76, 105
7, 479020, Note_on_c, 5, 84, 105
7, 479188, Note_on_c, 5, 84, 0
7, 479188, Note_on_c, 5, 76, 0
7, 479260, Note_on_c, 5, 76, 105
7, 479260, Note_on_c, 5, 84, 105
7, 479428, Note_on_c, 5, 84, 0
7, 479428, Note_on_c, 5, 76, 0
7, 479500, Note_on_c, 5, 76, 105
7, 479500, Note_on_c, 5, 84, 105
7, 479668, Note_on_c, 5, 84, 0
7, 479668, Note_on_c, 5, 76, 0
7, 479740, Note_on_c, 5, 76, 105
7, 479740, Note_on_c, 5, 84, 105
7, 479908, Note_on_c, 5, 84, 0
7, 479908, Note_on_c, 5, 76, 0
7, 479980, Note_on_c, 5, 55, 120
7, 480460, Note_on_c, 5, 55, 0
7, 481875, Note_on_c, 5, 55, 105
7, 481900, Note_on_c, 5, 72, 105
7, 481969, Note_on_c, 5, 55, 0
7, 482380, Note_on_c, 5, 72, 0
7, 482380, Note_on_c, 5, 84, 105
7, 482476, Note_on_c, 5, 84, 0
7, 482860, Note_on_c, 5, 83, 105
7, 482956, Note_on_c, 5, 83, 0
7, 483340, Note_on_c, 5, 81, 105
7, 483436, Note_on_c, 5, 81, 0
7, 483820, Note_on_c, 5, 79, 105
7, 484540, Note_on_c, 5, 79, 0
7, 484540, Note_on_c, 5, 77, 105
7, 484780, Note_on_c, 5, 77, 0
7, 484780, Note_on_c, 5, 76, 105
7, 485260, Note_on_c, 5, 76, 0
7, 486220, Note_on_c, 5, 81, 70
7, 486316, Note_on_c, 5, 81, 0
7, 486700, Note_on_c, 5, 79, 70
7, 486796, Note_on_c, 5, 79, 0
7, 487180, Note_on_c, 5, 77, 70
7, 487276, Note_on_c, 5, 77, 0
7, 487660, Note_on_c, 5, 76, 70
7, 488380, Note_on_c, 5, 76, 0
7, 488380, Note_on_c, 5, 74, 70
7, 488620, Note_on_c, 5, 74, 0
7, 488620, Note_on_c, 5, 72, 70
7, 489100, Note_on_c, 5, 72, 0
7, 489580, Note_on_c, 5, 74, 105
7, 489580, Note_on_c, 5, 77, 105
7, 490060, Note_on_c, 5, 77, 0
7, 490060, Note_on_c, 5, 74, 0
7, 490060, Note_on_c, 5, 77, 105
7, 490060, Note_on_c, 5, 86, 105
7, 491020, Note_on_c, 5, 86, 0
7, 491020, Note_on_c, 5, 77, 0
7, 491020, Note_on_c, 5, 74, 105
7, 491020, Note_on_c, 5, 77, 105
7, 491500, Note_on_c, 5, 77, 0
7, 491500, Note_on_c, 5, 74, 0
7, 491500, Note_on_c, 5, 72, 105
7, 491500, Note_on_c, 5, 76, 105
7, 491980, Note_on_c, 5, 76, 0
7, 491980, Note_on_c, 5, 72, 0
7, 491980, Note_on_c, 5, 76, 105
7, 491980, Note_on_c, 5, 84, 105
7, 492940, Note_on_c, 5, 84, 0
7, 492940, Note_on_c, 5, 76, 0
7, 492940, Note_on_c, 5, 72, 105
7, 492940, Note_on_c, 5, 76, 105
7, 493420, Note_on_c, 5, 76, 0
7, 493420, Note_on_c, 5, 72, 0
7, 493420, Note_on_c, 5, 74, 105
7, 493900, Note_on_c, 5, 74, 0
7, 493900, Note_on_c, 5, 79, 105
7, 494020, Note_on_c, 5, 79, 0
7, 494020, Note_on_c, 5, 77, 105
7, 494140, Note_on_c, 5, 77, 0
7, 494140, Note_on_c, 5, 76, 105
7, 494260, Note_on_c, 5, 76, 0
7, 494260, Note_on_c, 5, 74, 105
7, 494380, Note_on_c, 5, 74, 0
7, 494380, Note_on_c, 5, 72, 105
7, 494860, Note_on_c, 5, 72, 0
7, 494860, Note_on_c, 5, 71, 105
7, 495340, Note_on_c, 5, 71, 0
7, 495340, Note_on_c, 5, 72, 105
7, 495460, Note_on_c, 5, 72, 0
7, 495460, Note_on_c, 5, 74, 105
7, 495580, Note_on_c, 5, 74, 0
7, 495580, Note_on_c, 5, 76, 105
7, 495700, Note_on_c, 5, 76, 0
7, 495700, Note_on_c, 5, 77, 105
7, 495820, Note_on_c, 5, 77, 0
7, 495820, Note_on_c, 5, 79, 105
7, 495940, Note_on_c, 5, 79, 0
7, 495940, Note_on_c, 5, 81, 105
7, 496060, Note_on_c, 5, 81, 0
7, 496060, Note_on_c, 5, 83, 105
7, 496180, Note_on_c, 5, 83, 0
7, 496180, Note_on_c, 5, 84, 105
7, 496300, Note_on_c, 5, 84, 0
7, 496300, Note_on_c, 5, 69, 105
7, 496420, Note_on_c, 5, 69, 0
7, 496420, Note_on_c, 5, 71, 105
7, 496540, Note_on_c, 5, 71, 0
7, 496540, Note_on_c, 5, 72, 105
7, 496660, Note_on_c, 5, 72, 0
7, 496660, Note_on_c, 5, 74, 105
7, 496780, Note_on_c, 5, 74, 0
7, 496780, Note_on_c, 5, 76, 105
7, 496900, Note_on_c, 5, 76, 0
7, 496900, Note_on_c, 5, 77, 105
7, 497020, Note_on_c, 5, 77, 0
7, 497020, Note_on_c, 5, 79, 105
7, 497140, Note_on_c, 5, 79, 0
7, 497140, Note_on_c, 5, 81, 105
7, 497260, Note_on_c, 5, 81, 0
7, 497260, Note_on_c, 5, 67, 105
7, 497380, Note_on_c, 5, 67, 0
7, 497380, Note_on_c, 5, 69, 105
7, 497500, Note_on_c, 5, 69, 0
7, 497500, Note_on_c, 5, 71, 105
7, 497620, Note_on_c, 5, 71, 0
7, 497620, Note_on_c, 5, 72, 105
7, 497740, Note_on_c, 5, 72, 0
7, 497740, Note_on_c, 5, 74, 105
7, 497860, Note_on_c, 5, 74, 0
7, 497860, Note_on_c, 5, 76, 105
7, 497980, Note_on_c, 5, 76, 0
7, 497980, Note_on_c, 5, 77, 105
7, 498100, Note_on_c, 5, 77, 0
7, 498100, Note_on_c, 5, 79, 105
7, 498220, Note_on_c, 5, 79, 0
7, 498220, Note_on_c, 5, 79, 105
7, 498460, Note_on_c, 5, 77, 105
7, 498514, Note_on_c, 5, 79, 0
7, 498639, Note_on_c, 5, 77, 0
7, 498700, Note_on_c, 5, 76, 105
7, 498796, Note_on_c, 5, 76, 0
7, 498940, Note_on_c, 5, 74, 105
7, 499036, Note_on_c, 5, 74, 0
7, 499180, Note_on_c, 5, 55, 105
7, 499180, Note_on_c, 5, 64, 105
7, 499180, Note_on_c, 5, 72, 105
7, 499660, Note_on_c, 5, 72, 0
7, 499660, Note_on_c, 5, 64, 0
7, 499660, Note_on_c, 5, 55, 0
7, 499900, Note_on_c, 5, 79, 105
7, 499980, Note_on_c, 5, 81, 103
7, 500006, Note_on_c, 5, 79, 0
7, 500056, Note_on_c, 5, 83, 105
7, 500081, Note_on_c, 5, 81, 0
7, 500140, Note_on_c, 5, 84, 107
7, 500168, Note_on_c, 5, 83, 0
7, 500620, Note_on_c, 5, 84, 0
7, 500860, Note_on_c, 5, 79, 104
7, 500940, Note_on_c, 5, 81, 106
7, 500966, Note_on_c, 5, 79, 0
7, 501016, Note_on_c, 5, 83, 108
7, 501041, Note_on_c, 5, 81, 0
7, 501100, Note_on_c, 5, 84, 111
7, 501128, Note_on_c, 5, 83, 0
7, 501580, Note_on_c, 5, 84, 0
7, 501820, Note_on_c, 5, 79, 103
7, 501900, Note_on_c, 5, 81, 105
7, 501926, Note_on_c, 5, 79, 0
7, 501976, Note_on_c, 5, 83, 106
7, 502001, Note_on_c, 5, 81, 0
7, 502060, Note_on_c, 5, 84, 110
7, 502088, Note_on_c, 5, 83, 0
7, 502300, Note_on_c, 5, 84, 0
7, 502300, Note_on_c, 5, 79, 102
7, 502380, Note_on_c, 5, 81, 102
7, 502406, Note_on_c, 5, 79, 0
7, 502456, Note_on_c, 5, 83, 107
7, 502481, Note_on_c, 5, 81, 0
7, 502540, Note_on_c, 5, 84, 112
7, 502568, Note_on_c, 5, 83, 0
7, 502780, Note_on_c, 5, 84, 0
7, 502780, Note_on_c, 5, 79, 109
7, 502860, Note_on_c, 5, 81, 112
7, 502886, Note_on_c, 5, 79, 0
7, 502936, Note_on_c, 5, 83, 112
7, 502961, Note_on_c, 5, 81, 0
7, 503020, Note_on_c, 5, 84, 114
7, 503048, Note_on_c, 5, 83, 0
7, 503704, Note_on_c, 5, 84, 0
7, 503740, Note_on_c, 5, 79, 105
7, 503968, Note_on_c, 5, 79, 0
7, 503980, Note_on_c, 5, 76, 105
7, 504208, Note_on_c, 5, 76, 0
7, 504220, Note_on_c, 5, 72, 105
7, 504448, Note_on_c, 5, 72, 0
7, 504460, Note_on_c, 5, 76, 105
7, 504688, Note_on_c, 5, 76, 0
7, 504700, Note_on_c, 5, 79, 105
7, 504928, Note_on_c, 5, 79, 0
7, 504940, Note_on_c, 5, 84, 105
7, 505624, Note_on_c, 5, 84, 0
7, 505660, Note_on_c, 5, 79, 105
7, 505888, Note_on_c, 5, 79, 0
7, 505900, Note_on_c, 5, 76, 105
7, 506128, Note_on_c, 5, 76, 0
7, 506140, Note_on_c, 5, 72, 105
7, 506368, Note_on_c, 5, 72, 0
7, 506380, Note_on_c, 5, 76, 105
7, 506608, Note_on_c, 5, 76, 0
7, 506620, Note_on_c, 5, 79, 105
7, 506848, Note_on_c, 5, 79, 0
7, 506860, Note_on_c, 5, 84, 105
7, 507340, Note_on_c, 5, 84, 0
7, 507340, Note_on_c, 5, 76, 105
7, 507340, Note_on_c, 5, 84, 105
7, 507820, Note_on_c, 5, 84, 0
7, 507820, Note_on_c, 5, 76, 0
7, 507820, Note_on_c, 5, 76, 105
7, 507820, Note_on_c, 5, 84, 105
7, 508300, Note_on_c, 5, 84, 0
7, 508300, Note_on_c, 5, 76, 0
7, 508300, Note_on_c, 5, 76, 105
7, 508300, Note_on_c, 5, 84, 105
7, 508780, Note_on_c, 5, 84, 0
7, 508780, Note_on_c, 5, 76, 0
7, 508780, Note_on_c, 5, 76, 105
7, 508780, Note_on_c, 5, 84, 105
7, 509260, Note_on_c, 5, 84, 0
7, 509260, Note_on_c, 5, 76, 0
7, 510720, System_exclusive, 0A, 41, 10, 42, 12, 40, 00, 7F, 00, 41, F7
7, 510720, End_track
8, 0, Start_track
8, 0, Title_t, "Violin II"
8, 0, Control_c, 6, 0, 0
8, 0, Control_c, 6, 7, 100
8, 0, Control_c, 6, 10, 100
8, 0, Control_c, 6, 91, 79
8, 0, Control_c, 6, 93, 94
8, 1, Control_c, 6, 32, 1
8, 2, Program_c, 6, 48
8, 1904, Note_on_c, 6, 72, 105
8, 2588, Note_on_c, 6, 72, 0
8, 2624, Note_on_c, 6, 67, 105
8, 2852, Note_on_c, 6, 67, 0
8, 2864, Note_on_c, 6, 64, 105
8, 3092, Note_on_c, 6, 64, 0
8, 3104, Note_on_c, 6, 60, 105
8, 3332, Note_on_c, 6, 60, 0
8, 3344, Note_on_c, 6, 64, 105
8, 3572, Note_on_c, 6, 64, 0
8, 3584, Note_on_c, 6, 67, 105
8, 3812, Note_on_c, 6, 67, 0
8, 3824, Note_on_c, 6, 72, 105
8, 4508, Note_on_c, 6, 72, 0
8, 4544, Note_on_c, 6, 67, 105
8, 4772, Note_on_c, 6, 67, 0
8, 4784, Note_on_c, 6, 64, 105
8, 5012, Note_on_c, 6, 64, 0
8, 5024, Note_on_c, 6, 60, 105
8, 5252, Note_on_c, 6, 60, 0
8, 5264, Note_on_c, 6, 64, 105
8, 5492, Note_on_c, 6, 64, 0
8, 5504, Note_on_c, 6, 67, 105
8, 5732, Note_on_c, 6, 67, 0
8, 5744, Note_on_c, 6, 72, 105
8, 6200, Note_on_c, 6, 72, 0
8, 13904, Note_on_c, 6, 81, 105
8, 14000, Note_on_c, 6, 81, 0
8, 14384, Note_on_c, 6, 79, 105
8, 14480, Note_on_c, 6, 79, 0
8, 14864, Note_on_c, 6, 77, 105
8, 14960, Note_on_c, 6, 77, 0
8, 15344, Note_on_c, 6, 76, 105
8, 16064, Note_on_c, 6, 76, 0
8, 16064, Note_on_c, 6, 74, 105
8, 16304, Note_on_c, 6, 74, 0
8, 16304, Note_on_c, 6, 72, 105
8, 16784, Note_on_c, 6, 72, 0
8, 17744, Note_on_c, 6, 72, 70
8, 17840, Note_on_c, 6, 72, 0
8, 18224, Note_on_c, 6, 71, 70
8, 18320, Note_on_c, 6, 71, 0
8, 18704, Note_on_c, 6, 69, 70
8, 18800, Note_on_c, 6, 69, 0
8, 19184, Note_on_c, 6, 67, 70
8, 19904, Note_on_c, 6, 67, 0
8, 19904, Note_on_c, 6, 65, 70
8, 20144, Note_on_c, 6, 65, 0
8, 20144, Note_on_c, 6, 64, 70
8, 20624, Note_on_c, 6, 64, 0
8, 21104, Note_on_c, 6, 67, 105
8, 21224, Note_on_c, 6, 67, 0
8, 21224, Note_on_c, 6, 62, 105
8, 21344, Note_on_c, 6, 62, 0
8, 21344, Note_on_c, 6, 59, 105
8, 21464, Note_on_c, 6, 59, 0
8, 21464, Note_on_c, 6, 55, 105
8, 21584, Note_on_c, 6, 55, 0
8, 21584, Note_on_c, 6, 67, 105
8, 21704, Note_on_c, 6, 67, 0
8, 21704, Note_on_c, 6, 67, 105
8, 21824, Note_on_c, 6, 67, 0
8, 21824, Note_on_c, 6, 67, 105
8, 21944, Note_on_c, 6, 67, 0
8, 21944, Note_on_c, 6, 67, 105
8, 22064, Note_on_c, 6, 67, 0
8, 22064, Note_on_c, 6, 67, 105
8, 22184, Note_on_c, 6, 67, 0
8, 22184, Note_on_c, 6, 62, 105
8, 22304, Note_on_c, 6, 62, 0
8, 22304, Note_on_c, 6, 59, 105
8, 22424, Note_on_c, 6, 59, 0
8, 22424, Note_on_c, 6, 55, 105
8, 22544, Note_on_c, 6, 55, 0
8, 22544, Note_on_c, 6, 67, 105
8, 22664, Note_on_c, 6, 67, 0
8, 22664, Note_on_c, 6, 67, 105
8, 22784, Note_on_c, 6, 67, 0
8, 22784, Note_on_c, 6, 67, 105
8, 22904, Note_on_c, 6, 67, 0
8, 22904, Note_on_c, 6, 67, 105
8, 23024, Note_on_c, 6, 67, 0
8, 23024, Note_on_c, 6, 67, 105
8, 23144, Note_on_c, 6, 67, 0
8, 23144, Note_on_c, 6, 64, 105
8, 23264, Note_on_c, 6, 64, 0
8, 23264, Note_on_c, 6, 60, 105
8, 23384, Note_on_c, 6, 60, 0
8, 23384, Note_on_c, 6, 55, 105
8, 23504, Note_on_c, 6, 55, 0
8, 23504, Note_on_c, 6, 67, 105
8, 23624, Note_on_c, 6, 67, 0
8, 23624, Note_on_c, 6, 67, 105
8, 23744, Note_on_c, 6, 67, 0
8, 23744, Note_on_c, 6, 67, 105
8, 23864, Note_on_c, 6, 67, 0
8, 23864, Note_on_c, 6, 67, 105
8, 23984, Note_on_c, 6, 67, 0
8, 23984, Note_on_c, 6, 67, 105
8, 24104, Note_on_c, 6, 67, 0
8, 24104, Note_on_c, 6, 64, 105
8, 24224, Note_on_c, 6, 64, 0
8, 24224, Note_on_c, 6, 60, 105
8, 24344, Note_on_c, 6, 60, 0
8, 24344, Note_on_c, 6, 55, 105
8, 24464, Note_on_c, 6, 55, 0
8, 24464, Note_on_c, 6, 67, 105
8, 24584, Note_on_c, 6, 67, 0
8, 24584, Note_on_c, 6, 67, 105
8, 24704, Note_on_c, 6, 67, 0
8, 24704, Note_on_c, 6, 67, 105
8, 24824, Note_on_c, 6, 67, 0
8, 24824, Note_on_c, 6, 67, 105
8, 24944, Note_on_c, 6, 67, 0
8, 24944, Note_on_c, 6, 69, 105
8, 25424, Note_on_c, 6, 69, 0
8, 25424, Note_on_c, 6, 71, 105
8, 25544, Note_on_c, 6, 71, 0
8, 25544, Note_on_c, 6, 69, 105
8, 25664, Note_on_c, 6, 69, 0
8, 25664, Note_on_c, 6, 67, 105
8, 25784, Note_on_c, 6, 67, 0
8, 25784, Note_on_c, 6, 65, 105
8, 25904, Note_on_c, 6, 65, 0
8, 25904, Note_on_c, 6, 64, 105
8, 26384, Note_on_c, 6, 64, 0
8, 26384, Note_on_c, 6, 62, 105
8, 26864, Note_on_c, 6, 62, 0
8, 26864, Note_on_c, 6, 60, 75
8, 26952, Note_on_c, 6, 60, 0
8, 26984, Note_on_c, 6, 64, 59
8, 27072, Note_on_c, 6, 64, 0
8, 27104, Note_on_c, 6, 62, 75
8, 27192, Note_on_c, 6, 62, 0
8, 27224, Note_on_c, 6, 65, 59
8, 27312, Note_on_c, 6, 65, 0
8, 27344, Note_on_c, 6, 64, 74
8, 27432, Note_on_c, 6, 64, 0
8, 27464, Note_on_c, 6, 67, 67
8, 27552, Note_on_c, 6, 67, 0
8, 27584, Note_on_c, 6, 65, 81
8, 27672, Note_on_c, 6, 65, 0
8, 27704, Note_on_c, 6, 69, 67
8, 27792, Note_on_c, 6, 69, 0
8, 27824, Note_on_c, 6, 67, 85
8, 27920, Note_on_c, 6, 67, 0
8, 28064, Note_on_c, 6, 69, 71
8, 28160, Note_on_c, 6, 69, 0
8, 28304, Note_on_c, 6, 71, 72
8, 28400, Note_on_c, 6, 71, 0
8, 28544, Note_on_c, 6, 72, 78
8, 28640, Note_on_c, 6, 72, 0
8, 28784, Note_on_c, 6, 67, 105
8, 28904, Note_on_c, 6, 67, 0
8, 28904, Note_on_c, 6, 62, 105
8, 29024, Note_on_c, 6, 62, 0
8, 29024, Note_on_c, 6, 59, 105
8, 29144, Note_on_c, 6, 59, 0
8, 29144, Note_on_c, 6, 55, 105
8, 29264, Note_on_c, 6, 55, 0
8, 29264, Note_on_c, 6, 67, 105
8, 29384, Note_on_c, 6, 67, 0
8, 29384, Note_on_c, 6, 67, 105
8, 29504, Note_on_c, 6, 67, 0
8, 29504, Note_on_c, 6, 67, 105
8, 29624, Note_on_c, 6, 67, 0
8, 29624, Note_on_c, 6, 67, 105
8, 29744, Note_on_c, 6, 67, 0
8, 29744, Note_on_c, 6, 67, 105
8, 29864, Note_on_c, 6, 67, 0
8, 29864, Note_on_c, 6, 62, 105
8, 29984, Note_on_c, 6, 62, 0
8, 29984, Note_on_c, 6, 59, 105
8, 30104, Note_on_c, 6, 59, 0
8, 30104, Note_on_c, 6, 55, 105
8, 30224, Note_on_c, 6, 55, 0
8, 30224, Note_on_c, 6, 67, 105
8, 30344, Note_on_c, 6, 67, 0
8, 30344, Note_on_c, 6, 67, 105
8, 30464, Note_on_c, 6, 67, 0
8, 30464, Note_on_c, 6, 67, 105
8, 30584, Note_on_c, 6, 67, 0
8, 30584, Note_on_c, 6, 67, 105
8, 30704, Note_on_c, 6, 67, 0
8, 30704, Note_on_c, 6, 67, 105
8, 30824, Note_on_c, 6, 67, 0
8, 30824, Note_on_c, 6, 64, 105
8, 30944, Note_on_c, 6, 64, 0
8, 30944, Note_on_c, 6, 60, 105
8, 31064, Note_on_c, 6, 60, 0
8, 31064, Note_on_c, 6, 55, 105
8, 31184, Note_on_c, 6, 55, 0
8, 31184, Note_on_c, 6, 72, 105
8, 31304, Note_on_c, 6, 72, 0
8, 31304, Note_on_c, 6, 72, 105
8, 31424, Note_on_c, 6, 72, 0
8, 31424, Note_on_c, 6, 72, 105
8, 31544, Note_on_c, 6, 72, 0
8, 31544, Note_on_c, 6, 72, 105
8, 31664, Note_on_c, 6, 72, 0
8, 31664, Note_on_c, 6, 72, 105
8, 31784, Note_on_c, 6, 72, 0
8, 31784, Note_on_c, 6, 69, 105
8, 31904, Note_on_c, 6, 69, 0
8, 31904, Note_on_c, 6, 64, 105
8, 32024, Note_on_c, 6, 64, 0
8, 32024, Note_on_c, 6, 60, 105
8, 32144, Note_on_c, 6, 60, 0
8, 32144, Note_on_c, 6, 72, 105
8, 32264, Note_on_c, 6, 72, 0
8, 32264, Note_on_c, 6, 72, 105
8, 32384, Note_on_c, 6, 72, 0
8, 32384, Note_on_c, 6, 72, 105
8, 32504, Note_on_c, 6, 72, 0
8, 32504, Note_on_c, 6, 72, 105
8, 32624, Note_on_c, 6, 72, 0
8, 34544, Note_on_c, 6, 71, 105
8, 34664, Note_on_c, 6, 71, 0
8, 34664, Note_on_c, 6, 74, 105
8, 34784, Note_on_c, 6, 74, 0
8, 34784, Note_on_c, 6, 79, 105
8, 34828, Note_on_c, 6, 79, 0
8, 34904, Note_on_c, 6, 79, 105
8, 34948, Note_on_c, 6, 79, 0
8, 35024, Note_on_c, 6, 79, 105
8, 35144, Note_on_c, 6, 79, 0
8, 35144, Note_on_c, 6, 79, 105
8, 35264, Note_on_c, 6, 79, 0
8, 35264, Note_on_c, 6, 79, 105
8, 35384, Note_on_c, 6, 79, 0
8, 35384, Note_on_c, 6, 79, 105
8, 35504, Note_on_c, 6, 79, 0
8, 35504, Note_on_c, 6, 72, 105
8, 35624, Note_on_c, 6, 72, 0
8, 35624, Note_on_c, 6, 76, 105
8, 35744, Note_on_c, 6, 76, 0
8, 35744, Note_on_c, 6, 79, 105
8, 35788, Note_on_c, 6, 79, 0
8, 35864, Note_on_c, 6, 79, 105
8, 35908, Note_on_c, 6, 79, 0
8, 35984, Note_on_c, 6, 79, 105
8, 36104, Note_on_c, 6, 79, 0
8, 36104, Note_on_c, 6, 79, 105
8, 36224, Note_on_c, 6, 79, 0
8, 36224, Note_on_c, 6, 79, 105
8, 36344, Note_on_c, 6, 79, 0
8, 36344, Note_on_c, 6, 79, 105
8, 36464, Note_on_c, 6, 79, 0
8, 36464, Note_on_c, 6, 71, 105
8, 36584, Note_on_c, 6, 71, 0
8, 36584, Note_on_c, 6, 74, 105
8, 36704, Note_on_c, 6, 74, 0
8, 36704, Note_on_c, 6, 79, 105
8, 36748, Note_on_c, 6, 79, 0
8, 36824, Note_on_c, 6, 79, 105
8, 36868, Note_on_c, 6, 79, 0
8, 36944, Note_on_c, 6, 79, 105
8, 37064, Note_on_c, 6, 79, 0
8, 37064, Note_on_c, 6, 79, 105
8, 37184, Note_on_c, 6, 79, 0
8, 37184, Note_on_c, 6, 79, 105
8, 37304, Note_on_c, 6, 79, 0
8, 37304, Note_on_c, 6, 79, 105
8, 37424, Note_on_c, 6, 79, 0
8, 37424, Note_on_c, 6, 72, 105
8, 37544, Note_on_c, 6, 72, 0
8, 37544, Note_on_c, 6, 76, 105
8, 37664, Note_on_c, 6, 76, 0
8, 37664, Note_on_c, 6, 79, 105
8, 37708, Note_on_c, 6, 79, 0
8, 37784, Note_on_c, 6, 79, 105
8, 37828, Note_on_c, 6, 79, 0
8, 37904, Note_on_c, 6, 79, 105
8, 38024, Note_on_c, 6, 79, 0
8, 38024, Note_on_c, 6, 79, 105
8, 38144, Note_on_c, 6, 79, 0
8, 38144, Note_on_c, 6, 79, 105
8, 38264, Note_on_c, 6, 79, 0
8, 38264, Note_on_c, 6, 79, 105
8, 38384, Note_on_c, 6, 79, 0
8, 38384, Note_on_c, 6, 79, 105
8, 38803, Note_on_c, 6, 79, 0
8, 38864, Note_on_c, 6, 71, 105
8, 39323, Note_on_c, 6, 71, 0
8, 39344, Note_on_c, 6, 55, 105
8, 39824, Note_on_c, 6, 55, 0
8, 40304, Note_on_c, 6, 60, 70
8, 40544, Note_on_c, 6, 55, 70
8, 40623, Note_on_c, 6, 60, 0
8, 40784, Note_on_c, 6, 60, 70
8, 40863, Note_on_c, 6, 55, 0
8, 41024, Note_on_c, 6, 55, 70
8, 41103, Note_on_c, 6, 60, 0
8, 41264, Note_on_c, 6, 60, 70
8, 41343, Note_on_c, 6, 55, 0
8, 41504, Note_on_c, 6, 55, 70
8, 41583, Note_on_c, 6, 60, 0
8, 41744, Note_on_c, 6, 60, 70
8, 41823, Note_on_c, 6, 55, 0
8, 41984, Note_on_c, 6, 55, 70
8, 42063, Note_on_c, 6, 60, 0
8, 42188, Note_on_c, 6, 55, 0
8, 42224, Note_on_c, 6, 62, 70
8, 42464, Note_on_c, 6, 55, 70
8, 42543, Note_on_c, 6, 62, 0
8, 42704, Note_on_c, 6, 62, 70
8, 42783, Note_on_c, 6, 55, 0
8, 42944, Note_on_c, 6, 55, 70
8, 43023, Note_on_c, 6, 62, 0
8, 43184, Note_on_c, 6, 62, 70
8, 43263, Note_on_c, 6, 55, 0
8, 43424, Note_on_c, 6, 55, 70
8, 43503, Note_on_c, 6, 62, 0
8, 43664, Note_on_c, 6, 62, 70
8, 43743, Note_on_c, 6, 55, 0
8, 43904, Note_on_c, 6, 55, 70
8, 43983, Note_on_c, 6, 62, 0
8, 44098, Note_on_c, 6, 55, 0
8, 44144, Note_on_c, 6, 64, 70
8, 44624, Note_on_c, 6, 64, 0
8, 45104, Note_on_c, 6, 67, 70
8, 45200, Note_on_c, 6, 67, 0
8, 45344, Note_on_c, 6, 69, 70
8, 45440, Note_on_c, 6, 69, 0
8, 45584, Note_on_c, 6, 71, 70
8, 45680, Note_on_c, 6, 71, 0
8, 45824, Note_on_c, 6, 72, 70
8, 45920, Note_on_c, 6, 72, 0
8, 46064, Note_on_c, 6, 72, 70
8, 46304, Note_on_c, 6, 71, 70
8, 46359, Note_on_c, 6, 72, 0
8, 46544, Note_on_c, 6, 69, 70
8, 46599, Note_on_c, 6, 71, 0
8, 46784, Note_on_c, 6, 67, 70
8, 46839, Note_on_c, 6, 69, 0
8, 47024, Note_on_c, 6, 67, 0
8, 47024, Note_on_c, 6, 67, 70
8, 47144, Note_on_c, 6, 67, 0
8, 47144, Note_on_c, 6, 65, 70
8, 47264, Note_on_c, 6, 65, 0
8, 47264, Note_on_c, 6, 64, 70
8, 47384, Note_on_c, 6, 64, 0
8, 47384, Note_on_c, 6, 65, 70
8, 47504, Note_on_c, 6, 65, 0
8, 47504, Note_on_c, 6, 69, 70
8, 47744, Note_on_c, 6, 69, 0
8, 47744, Note_on_c, 6, 65, 70
8, 47984, Note_on_c, 6, 65, 0
8, 47984, Note_on_c, 6, 63, 70
8, 48224, Note_on_c, 6, 63, 0
8, 48224, Note_on_c, 6, 64, 70
8, 48464, Note_on_c, 6, 64, 0
8, 48704, Note_on_c, 6, 64, 70
8, 48748, Note_on_c, 6, 64, 0
8, 48824, Note_on_c, 6, 65, 70
8, 48868, Note_on_c, 6, 65, 0
8, 48944, Note_on_c, 6, 67, 70
8, 49040, Note_on_c, 6, 67, 0
8, 49184, Note_on_c, 6, 69, 70
8, 49280, Note_on_c, 6, 69, 0
8, 49424, Note_on_c, 6, 71, 70
8, 49520, Note_on_c, 6, 71, 0
8, 49664, Note_on_c, 6, 72, 70
8, 49760, Note_on_c, 6, 72, 0
8, 49904, Note_on_c, 6, 72, 70
8, 50144, Note_on_c, 6, 71, 70
8, 50199, Note_on_c, 6, 72, 0
8, 50384, Note_on_c, 6, 69, 70
8, 50439, Note_on_c, 6, 71, 0
8, 50624, Note_on_c, 6, 67, 70
8, 50679, Note_on_c, 6, 69, 0
8, 50828, Note_on_c, 6, 67, 0
8, 50864, Note_on_c, 6, 67, 75
8, 50984, Note_on_c, 6, 67, 0
8, 50984, Note_on_c, 6, 65, 79
8, 51104, Note_on_c, 6, 65, 0
8, 51104, Note_on_c, 6, 64, 79
8, 51224, Note_on_c, 6, 64, 0
8, 51224, Note_on_c, 6, 65, 76
8, 51344, Note_on_c, 6, 65, 0
8, 51344, Note_on_c, 6, 69, 76
8, 51584, Note_on_c, 6, 69, 0
8, 51584, Note_on_c, 6, 65, 70
8, 51824, Note_on_c, 6, 65, 0
8, 51824, Note_on_c, 6, 64, 70
8, 52013, Note_on_c, 6, 64, 0
8, 52064, Note_on_c, 6, 72, 70
8, 52544, Note_on_c, 6, 70, 70
8, 52616, Note_on_c, 6, 72, 0
8, 53024, Note_on_c, 6, 69, 70
8, 53096, Note_on_c, 6, 70, 0
8, 53504, Note_on_c, 6, 67, 70
8, 53576, Note_on_c, 6, 69, 0
8, 53903, Note_on_c, 6, 67, 0
8, 53984, Note_on_c, 6, 65, 70
8, 54464, Note_on_c, 6, 72, 70
8, 54536, Note_on_c, 6, 65, 0
8, 54944, Note_on_c, 6, 70, 70
8, 55016, Note_on_c, 6, 72, 0
8, 55424, Note_on_c, 6, 69, 70
8, 55496, Note_on_c, 6, 70, 0
8, 55833, Note_on_c, 6, 69, 0
8, 55904, Note_on_c, 6, 67, 70
8, 56384, Note_on_c, 6, 72, 70
8, 56456, Note_on_c, 6, 67, 0
8, 56864, Note_on_c, 6, 70, 70
8, 56936, Note_on_c, 6, 72, 0
8, 57344, Note_on_c, 6, 68, 70
8, 57432, Note_on_c, 6, 70, 0
8, 57743, Note_on_c, 6, 68, 0
8, 57824, Note_on_c, 6, 69, 70
8, 57920, Note_on_c, 6, 69, 0
8, 58064, Note_on_c, 6, 71, 70
8, 58160, Note_on_c, 6, 71, 0
8, 58304, Note_on_c, 6, 72, 70
8, 58400, Note_on_c, 6, 72, 0
8, 58544, Note_on_c, 6, 64, 70
8, 58640, Note_on_c, 6, 64, 0
8, 58784, Note_on_c, 6, 65, 70
8, 58880, Note_on_c, 6, 65, 0
8, 59024, Note_on_c, 6, 68, 70
8, 59120, Note_on_c, 6, 68, 0
8, 59264, Note_on_c, 6, 69, 70
8, 59360, Note_on_c, 6, 69, 0
8, 59504, Note_on_c, 6, 61, 70
8, 59600, Note_on_c, 6, 61, 0
8, 59744, Note_on_c, 6, 62, 70
8, 59840, Note_on_c, 6, 62, 0
8, 59984, Note_on_c, 6, 61, 70
8, 60080, Note_on_c, 6, 61, 0
8, 60224, Note_on_c, 6, 62, 70
8, 60320, Note_on_c, 6, 62, 0
8, 60464, Note_on_c, 6, 61, 70
8, 60560, Note_on_c, 6, 61, 0
8, 60704, Note_on_c, 6, 62, 70
8, 60800, Note_on_c, 6, 62, 0
8, 60944, Note_on_c, 6, 64, 70
8, 61040, Note_on_c, 6, 64, 0
8, 61184, Note_on_c, 6, 65, 70
8, 61280, Note_on_c, 6, 65, 0
8, 61344, Note_on_c, 6, 64, 105
8, 61404, Note_on_c, 6, 72, 105
8, 61424, Note_on_c, 6, 76, 105
8, 61448, Note_on_c, 6, 64, 0
8, 61903, Note_on_c, 6, 72, 0
8, 61904, Note_on_c, 6, 76, 0
8, 61904, Note_on_c, 6, 76, 105
8, 62624, Note_on_c, 6, 76, 0
8, 62624, Note_on_c, 6, 77, 105
8, 62744, Note_on_c, 6, 77, 0
8, 62744, Note_on_c, 6, 76, 105
8, 62864, Note_on_c, 6, 76, 0
8, 62864, Note_on_c, 6, 74, 105
8, 63104, Note_on_c, 6, 74, 0
8, 63104, Note_on_c, 6, 72, 105
8, 63344, Note_on_c, 6, 72, 0
8, 63344, Note_on_c, 6, 67, 105
8, 63704, Note_on_c, 6, 67, 0
8, 63704, Note_on_c, 6, 65, 105
8, 63824, Note_on_c, 6, 65, 0
8, 63824, Note_on_c, 6, 64, 105
8, 64784, Note_on_c, 6, 64, 0
8, 64784, Note_on_c, 6, 62, 105
8, 65264, Note_on_c, 6, 62, 0
8, 65264, Note_on_c, 6, 60, 105
8, 65308, Note_on_c, 6, 60, 0
8, 65384, Note_on_c, 6, 55, 105
8, 65428, Note_on_c, 6, 55, 0
8, 65504, Note_on_c, 6, 57, 105
8, 65548, Note_on_c, 6, 57, 0
8, 65624, Note_on_c, 6, 59, 105
8, 65668, Note_on_c, 6, 59, 0
8, 65744, Note_on_c, 6, 60, 105
8, 65788, Note_on_c, 6, 60, 0
8, 65864, Note_on_c, 6, 62, 105
8, 65908, Note_on_c, 6, 62, 0
8, 65984, Note_on_c, 6, 64, 105
8, 66028, Note_on_c, 6, 64, 0
8, 66104, Note_on_c, 6, 62, 105
8, 66148, Note_on_c, 6, 62, 0
8, 66224, Note_on_c, 6, 60, 70
8, 66320, Note_on_c, 6, 60, 0
8, 66464, Note_on_c, 6, 55, 70
8, 66560, Note_on_c, 6, 55, 0
8, 66704, Note_on_c, 6, 62, 70
8, 66800, Note_on_c, 6, 62, 0
8, 66944, Note_on_c, 6, 55, 70
8, 67040, Note_on_c, 6, 55, 0
8, 67184, Note_on_c, 6, 64, 70
8, 67280, Note_on_c, 6, 64, 0
8, 67424, Note_on_c, 6, 55, 70
8, 67520, Note_on_c, 6, 55, 0
8, 67664, Note_on_c, 6, 64, 70
8, 67760, Note_on_c, 6, 64, 0
8, 67904, Note_on_c, 6, 55, 70
8, 68000, Note_on_c, 6, 55, 0
8, 68144, Note_on_c, 6, 60, 70
8, 68240, Note_on_c, 6, 60, 0
8, 68384, Note_on_c, 6, 55, 70
8, 68480, Note_on_c, 6, 55, 0
8, 68624, Note_on_c, 6, 62, 70
8, 68720, Note_on_c, 6, 62, 0
8, 68864, Note_on_c, 6, 55, 70
8, 68960, Note_on_c, 6, 55, 0
8, 69104, Note_on_c, 6, 64, 70
8, 69200, Note_on_c, 6, 64, 0
8, 69344, Note_on_c, 6, 55, 70
8, 69440, Note_on_c, 6, 55, 0
8, 69584, Note_on_c, 6, 64, 70
8, 69680, Note_on_c, 6, 64, 0
8, 69824, Note_on_c, 6, 55, 70
8, 69920, Note_on_c, 6, 55, 0
8, 70064, Note_on_c, 6, 60, 70
8, 70160, Note_on_c, 6, 60, 0
8, 70304, Note_on_c, 6, 55, 70
8, 70400, Note_on_c, 6, 55, 0
8, 70544, Note_on_c, 6, 62, 70
8, 70640, Note_on_c, 6, 62, 0
8, 70784, Note_on_c, 6, 55, 70
8, 70880, Note_on_c, 6, 55, 0
8, 71024, Note_on_c, 6, 64, 70
8, 71120, Note_on_c, 6, 64, 0
8, 71264, Note_on_c, 6, 55, 70
8, 71360, Note_on_c, 6, 55, 0
8, 71504, Note_on_c, 6, 62, 70
8, 71600, Note_on_c, 6, 62, 0
8, 71744, Note_on_c, 6, 55, 70
8, 71840, Note_on_c, 6, 55, 0
8, 71984, Note_on_c, 6, 60, 70
8, 72080, Note_on_c, 6, 60, 0
8, 72224, Note_on_c, 6, 55, 70
8, 72320, Note_on_c, 6, 55, 0
8, 72464, Note_on_c, 6, 59, 70
8, 72560, Note_on_c, 6, 59, 0
8, 72704, Note_on_c, 6, 55, 70
8, 72800, Note_on_c, 6, 55, 0
8, 72944, Note_on_c, 6, 60, 105
8, 73064, Note_on_c, 6, 60, 0
8, 73064, Note_on_c, 6, 62, 105
8, 73184, Note_on_c, 6, 62, 0
8, 73184, Note_on_c, 6, 64, 105
8, 73304, Note_on_c, 6, 64, 0
8, 73304, Note_on_c, 6, 65, 105
8, 73424, Note_on_c, 6, 65, 0
8, 73424, Note_on_c, 6, 67, 105
8, 73544, Note_on_c, 6, 67, 0
8, 73544, Note_on_c, 6, 69, 105
8, 73664, Note_on_c, 6, 69, 0
8, 73664, Note_on_c, 6, 71, 105
8, 73784, Note_on_c, 6, 71, 0
8, 73784, Note_on_c, 6, 72, 105
8, 73904, Note_on_c, 6, 72, 0
8, 73904, Note_on_c, 6, 57, 105
8, 74024, Note_on_c, 6, 57, 0
8, 74024, Note_on_c, 6, 59, 105
8, 74144, Note_on_c, 6, 59, 0
8, 74144, Note_on_c, 6, 60, 105
8, 74264, Note_on_c, 6, 60, 0
8, 74264, Note_on_c, 6, 62, 105
8, 74384, Note_on_c, 6, 62, 0
8, 74384, Note_on_c, 6, 64, 105
8, 74504, Note_on_c, 6, 64, 0
8, 74504, Note_on_c, 6, 65, 105
8, 74624, Note_on_c, 6, 65, 0
8, 74624, Note_on_c, 6, 67, 105
8, 74744, Note_on_c, 6, 67, 0
8, 74744, Note_on_c, 6, 69, 105
8, 74864, Note_on_c, 6, 69, 0
8, 74864, Note_on_c, 6, 55, 105
8, 74984, Note_on_c, 6, 55, 0
8, 74984, Note_on_c, 6, 57, 105
8, 75104, Note_on_c, 6, 57, 0
8, 75104, Note_on_c, 6, 59, 105
8, 75224, Note_on_c, 6, 59, 0
8, 75224, Note_on_c, 6, 60, 105
8, 75344, Note_on_c, 6, 60, 0
8, 75344, Note_on_c, 6, 62, 105
8, 75464, Note_on_c, 6, 62, 0
8, 75464, Note_on_c, 6, 64, 105
8, 75584, Note_on_c, 6, 64, 0
8, 75584, Note_on_c, 6, 65, 105
8, 75704, Note_on_c, 6, 65, 0
8, 75704, Note_on_c, 6, 67, 105
8, 75824, Note_on_c, 6, 67, 0
8, 75824, Note_on_c, 6, 67, 105
8, 76064, Note_on_c, 6, 65, 105
8, 76133, Note_on_c, 6, 67, 0
8, 76253, Note_on_c, 6, 65, 0
8, 76304, Note_on_c, 6, 64, 105
8, 76400, Note_on_c, 6, 64, 0
8, 76544, Note_on_c, 6, 62, 105
8, 76640, Note_on_c, 6, 62, 0
8, 76784, Note_on_c, 6, 60, 105
8, 77264, Note_on_c, 6, 60, 0
8, 77504, Note_on_c, 6, 67, 103
8, 77584, Note_on_c, 6, 69, 107
8, 77610, Note_on_c, 6, 67, 0
8, 77660, Note_on_c, 6, 71, 108
8, 77685, Note_on_c, 6, 69, 0
8, 77744, Note_on_c, 6, 72, 110
8, 77772, Note_on_c, 6, 71, 0
8, 78224, Note_on_c, 6, 72, 0
8, 78464, Note_on_c, 6, 67, 100
8, 78544, Note_on_c, 6, 69, 102
8, 78570, Note_on_c, 6, 67, 0
8, 78620, Note_on_c, 6, 71, 105
8, 78645, Note_on_c, 6, 69, 0
8, 78704, Note_on_c, 6, 72, 109
8, 78732, Note_on_c, 6, 71, 0
8, 79184, Note_on_c, 6, 72, 0
8, 79424, Note_on_c, 6, 67, 102
8, 79504, Note_on_c, 6, 69, 105
8, 79530, Note_on_c, 6, 67, 0
8, 79580, Note_on_c, 6, 71, 107
8, 79605, Note_on_c, 6, 69, 0
8, 79664, Note_on_c, 6, 72, 109
8, 79692, Note_on_c, 6, 71, 0
8, 79904, Note_on_c, 6, 72, 0
8, 79904, Note_on_c, 6, 67, 102
8, 79984, Note_on_c, 6, 69, 103
8, 80010, Note_on_c, 6, 67, 0
8, 80060, Note_on_c, 6, 71, 106
8, 80085, Note_on_c, 6, 69, 0
8, 80144, Note_on_c, 6, 72, 109
8, 80172, Note_on_c, 6, 71, 0
8, 80384, Note_on_c, 6, 72, 0
8, 80384, Note_on_c, 6, 67, 100
8, 80464, Note_on_c, 6, 69, 102
8, 80490, Note_on_c, 6, 67, 0
8, 80540, Note_on_c, 6, 71, 103
8, 80565, Note_on_c, 6, 69, 0
8, 80624, Note_on_c, 6, 72, 107
8, 80652, Note_on_c, 6, 71, 0
8, 81104, Note_on_c, 6, 72, 0
8, 103904, Note_on_c, 6, 64, 70
8, 104072, Note_on_c, 6, 64, 0
8, 104144, Note_on_c, 6, 64, 70
8, 104312, Note_on_c, 6, 64, 0
8, 104384, Note_on_c, 6, 64, 70
8, 104552, Note_on_c, 6, 64, 0
8, 104624, Note_on_c, 6, 64, 70
8, 104792, Note_on_c, 6, 64, 0
8, 104864, Note_on_c, 6, 64, 70
8, 105032, Note_on_c, 6, 64, 0
8, 105104, Note_on_c, 6, 64, 70
8, 105272, Note_on_c, 6, 64, 0
8, 105344, Note_on_c, 6, 64, 70
8, 105512, Note_on_c, 6, 64, 0
8, 105824, Note_on_c, 6, 65, 70
8, 105992, Note_on_c, 6, 65, 0
8, 106064, Note_on_c, 6, 65, 70
8, 106232, Note_on_c, 6, 65, 0
8, 106304, Note_on_c, 6, 65, 70
8, 106472, Note_on_c, 6, 65, 0
8, 106544, Note_on_c, 6, 65, 70
8, 106712, Note_on_c, 6, 65, 0
8, 106784, Note_on_c, 6, 65, 70
8, 106952, Note_on_c, 6, 65, 0
8, 107024, Note_on_c, 6, 65, 70
8, 107192, Note_on_c, 6, 65, 0
8, 107264, Note_on_c, 6, 65, 70
8, 107432, Note_on_c, 6, 65, 0
8, 107744, Note_on_c, 6, 64, 70
8, 107912, Note_on_c, 6, 64, 0
8, 107984, Note_on_c, 6, 64, 70
8, 108152, Note_on_c, 6, 64, 0
8, 108224, Note_on_c, 6, 64, 70
8, 108392, Note_on_c, 6, 64, 0
8, 108464, Note_on_c, 6, 64, 70
8, 108632, Note_on_c, 6, 64, 0
8, 108704, Note_on_c, 6, 64, 70
8, 108872, Note_on_c, 6, 64, 0
8, 108944, Note_on_c, 6, 64, 70
8, 109112, Note_on_c, 6, 64, 0
8, 109184, Note_on_c, 6, 64, 70
8, 109352, Note_on_c, 6, 64, 0
8, 109424, Note_on_c, 6, 64, 70
8, 109664, Note_on_c, 6, 62, 70
8, 109733, Note_on_c, 6, 64, 0
8, 109853, Note_on_c, 6, 62, 0
8, 109904, Note_on_c, 6, 60, 70
8, 110000, Note_on_c, 6, 60, 0
8, 110144, Note_on_c, 6, 60, 70
8, 110240, Note_on_c, 6, 60, 0
8, 110384, Note_on_c, 6, 60, 70
8, 110624, Note_on_c, 6, 64, 70
8, 110682, Note_on_c, 6, 60, 0
8, 110864, Note_on_c, 6, 62, 70
8, 110922, Note_on_c, 6, 64, 0
8, 111104, Note_on_c, 6, 59, 70
8, 111162, Note_on_c, 6, 62, 0
8, 111303, Note_on_c, 6, 59, 0
8, 111344, Note_on_c, 6, 60, 70
8, 111584, Note_on_c, 6, 60, 0
8, 111824, Note_on_c, 6, 67, 70
8, 112064, Note_on_c, 6, 67, 0
8, 112304, Note_on_c, 6, 72, 70
8, 112544, Note_on_c, 6, 72, 0
8, 112784, Note_on_c, 6, 76, 70
8, 113024, Note_on_c, 6, 76, 0
8, 113264, Note_on_c, 6, 77, 70
8, 113504, Note_on_c, 6, 77, 0
8, 113744, Note_on_c, 6, 69, 70
8, 113984, Note_on_c, 6, 69, 0
8, 114224, Note_on_c, 6, 72, 70
8, 114464, Note_on_c, 6, 72, 0
8, 114704, Note_on_c, 6, 77, 70
8, 114944, Note_on_c, 6, 77, 0
8, 115184, Note_on_c, 6, 79, 70
8, 115424, Note_on_c, 6, 79, 0
8, 115664, Note_on_c, 6, 72, 70
8, 115904, Note_on_c, 6, 72, 0
8, 116144, Note_on_c, 6, 76, 70
8, 116384, Note_on_c, 6, 76, 0
8, 116624, Note_on_c, 6, 79, 70
8, 116864, Note_on_c, 6, 79, 0
8, 117344, Note_on_c, 6, 64, 70
8, 117440, Note_on_c, 6, 64, 0
8, 117584, Note_on_c, 6, 67, 70
8, 117680, Note_on_c, 6, 67, 0
8, 117824, Note_on_c, 6, 72, 70
8, 117920, Note_on_c, 6, 72, 0
8, 118064, Note_on_c, 6, 76, 70
8, 118160, Note_on_c, 6, 76, 0
8, 118304, Note_on_c, 6, 72, 70
8, 118400, Note_on_c, 6, 72, 0
8, 118544, Note_on_c, 6, 74, 70
8, 118640, Note_on_c, 6, 74, 0
8, 118784, Note_on_c, 6, 71, 70
8, 118880, Note_on_c, 6, 71, 0
8, 119024, Note_on_c, 6, 72, 70
8, 119504, Note_on_c, 6, 72, 0
8, 125024, Note_on_c, 6, 55, 70
8, 125120, Note_on_c, 6, 55, 0
8, 125264, Note_on_c, 6, 57, 70
8, 125360, Note_on_c, 6, 57, 0
8, 125504, Note_on_c, 6, 59, 70
8, 125600, Note_on_c, 6, 59, 0
8, 125744, Note_on_c, 6, 60, 70
8, 125840, Note_on_c, 6, 60, 0
8, 125984, Note_on_c, 6, 62, 70
8, 126080, Note_on_c, 6, 62, 0
8, 126224, Note_on_c, 6, 64, 70
8, 126320, Note_on_c, 6, 64, 0
8, 126464, Note_on_c, 6, 66, 73
8, 126560, Note_on_c, 6, 66, 0
8, 126704, Note_on_c, 6, 67, 80
8, 126944, Note_on_c, 6, 67, 0
8, 145904, Note_on_c, 6, 55, 70
8, 146072, Note_on_c, 6, 55, 0
8, 146144, Note_on_c, 6, 55, 70
8, 146312, Note_on_c, 6, 55, 0
8, 146384, Note_on_c, 6, 55, 70
8, 146552, Note_on_c, 6, 55, 0
8, 146624, Note_on_c, 6, 55, 70
8, 146792, Note_on_c, 6, 55, 0
8, 146864, Note_on_c, 6, 59, 70
8, 147032, Note_on_c, 6, 59, 0
8, 147104, Note_on_c, 6, 59, 70
8, 147272, Note_on_c, 6, 59, 0
8, 147344, Note_on_c, 6, 59, 70
8, 147512, Note_on_c, 6, 59, 0
8, 147584, Note_on_c, 6, 59, 70
8, 147752, Note_on_c, 6, 59, 0
8, 147824, Note_on_c, 6, 60, 70
8, 147992, Note_on_c, 6, 60, 0
8, 148064, Note_on_c, 6, 60, 70
8, 148232, Note_on_c, 6, 60, 0
8, 148304, Note_on_c, 6, 60, 70
8, 148472, Note_on_c, 6, 60, 0
8, 148544, Note_on_c, 6, 60, 70
8, 148712, Note_on_c, 6, 60, 0
8, 148784, Note_on_c, 6, 60, 70
8, 148952, Note_on_c, 6, 60, 0
8, 149024, Note_on_c, 6, 60, 70
8, 149192, Note_on_c, 6, 60, 0
8, 149264, Note_on_c, 6, 61, 70
8, 149432, Note_on_c, 6, 61, 0
8, 149504, Note_on_c, 6, 61, 70
8, 149672, Note_on_c, 6, 61, 0
8, 149744, Note_on_c, 6, 62, 70
8, 149984, Note_on_c, 6, 66, 70
8, 150039, Note_on_c, 6, 62, 0
8, 150224, Note_on_c, 6, 69, 70
8, 150279, Note_on_c, 6, 66, 0
8, 150464, Note_on_c, 6, 66, 70
8, 150519, Note_on_c, 6, 69, 0
8, 150704, Note_on_c, 6, 62, 70
8, 150759, Note_on_c, 6, 66, 0
8, 150944, Note_on_c, 6, 66, 70
8, 150999, Note_on_c, 6, 62, 0
8, 151184, Note_on_c, 6, 69, 70
8, 151239, Note_on_c, 6, 66, 0
8, 151424, Note_on_c, 6, 66, 70
8, 151479, Note_on_c, 6, 69, 0
8, 151593, Note_on_c, 6, 66, 0
8, 151664, Note_on_c, 6, 62, 70
8, 151904, Note_on_c, 6, 66, 70
8, 151959, Note_on_c, 6, 62, 0
8, 152144, Note_on_c, 6, 69, 70
8, 152199, Note_on_c, 6, 66, 0
8, 152384, Note_on_c, 6, 66, 70
8, 152439, Note_on_c, 6, 69, 0
8, 152624, Note_on_c, 6, 62, 70
8, 152679, Note_on_c, 6, 66, 0
8, 152864, Note_on_c, 6, 66, 70
8, 152919, Note_on_c, 6, 62, 0
8, 153104, Note_on_c, 6, 69, 70
8, 153159, Note_on_c, 6, 66, 0
8, 153344, Note_on_c, 6, 66, 70
8, 153399, Note_on_c, 6, 69, 0
8, 153533, Note_on_c, 6, 66, 0
8, 153584, Note_on_c, 6, 67, 70
8, 154064, Note_on_c, 6, 67, 0
8, 154064, Note_on_c, 6, 69, 80
8, 154092, Note_on_c, 6, 69, 0
8, 154092, Note_on_c, 6, 67, 81
8, 154124, Note_on_c, 6, 67, 0
8, 154124, Note_on_c, 6, 69, 81
8, 154152, Note_on_c, 6, 69, 0
8, 154152, Note_on_c, 6, 67, 81
8, 154184, Note_on_c, 6, 67, 0
8, 154184, Note_on_c, 6, 66, 78
8, 154304, Note_on_c, 6, 67, 74
8, 154353, Note_on_c, 6, 66, 0
8, 154424, Note_on_c, 6, 69, 75
8, 154458, Note_on_c, 6, 67, 0
8, 154544, Note_on_c, 6, 71, 83
8, 154593, Note_on_c, 6, 69, 0
8, 155024, Note_on_c, 6, 71, 0
8, 155504, Note_on_c, 6, 79, 70
8, 155984, Note_on_c, 6, 79, 0
8, 155984, Note_on_c, 6, 81, 86
8, 156012, Note_on_c, 6, 81, 0
8, 156012, Note_on_c, 6, 79, 86
8, 156044, Note_on_c, 6, 79, 0
8, 156044, Note_on_c, 6, 81, 86
8, 156072, Note_on_c, 6, 81, 0
8, 156072, Note_on_c, 6, 79, 87
8, 156104, Note_on_c, 6, 79, 0
8, 156104, Note_on_c, 6, 78, 84
8, 156224, Note_on_c, 6, 79, 80
8, 156273, Note_on_c, 6, 78, 0
8, 156344, Note_on_c, 6, 81, 81
8, 156373, Note_on_c, 6, 79, 0
8, 156464, Note_on_c, 6, 81, 0
8, 156464, Note_on_c, 6, 83, 88
8, 156944, Note_on_c, 6, 83, 0
8, 157424, Note_on_c, 6, 62, 70
8, 157664, Note_on_c, 6, 66, 70
8, 157719, Note_on_c, 6, 62, 0
8, 157904, Note_on_c, 6, 69, 70
8, 157959, Note_on_c, 6, 66, 0
8, 158144, Note_on_c, 6, 66, 70
8, 158199, Note_on_c, 6, 69, 0
8, 158384, Note_on_c, 6, 62, 70
8, 158439, Note_on_c, 6, 66, 0
8, 158624, Note_on_c, 6, 66, 70
8, 158679, Note_on_c, 6, 62, 0
8, 158864, Note_on_c, 6, 69, 70
8, 158919, Note_on_c, 6, 66, 0
8, 159104, Note_on_c, 6, 66, 70
8, 159159, Note_on_c, 6, 69, 0
8, 159298, Note_on_c, 6, 66, 0
8, 159344, Note_on_c, 6, 62, 70
8, 159584, Note_on_c, 6, 66, 70
8, 159639, Note_on_c, 6, 62, 0
8, 159824, Note_on_c, 6, 69, 70
8, 159879, Note_on_c, 6, 66, 0
8, 160064, Note_on_c, 6, 66, 70
8, 160119, Note_on_c, 6, 69, 0
8, 160304, Note_on_c, 6, 62, 70
8, 160359, Note_on_c, 6, 66, 0
8, 160544, Note_on_c, 6, 66, 70
8, 160599, Note_on_c, 6, 62, 0
8, 160784, Note_on_c, 6, 69, 70
8, 160839, Note_on_c, 6, 66, 0
8, 161024, Note_on_c, 6, 66, 70
8, 161079, Note_on_c, 6, 69, 0
8, 161213, Note_on_c, 6, 66, 0
8, 161264, Note_on_c, 6, 67, 70
8, 161744, Note_on_c, 6, 67, 0
8, 161744, Note_on_c, 6, 69, 83
8, 161772, Note_on_c, 6, 69, 0
8, 161772, Note_on_c, 6, 67, 84
8, 161804, Note_on_c, 6, 67, 0
8, 161804, Note_on_c, 6, 69, 82
8, 161832, Note_on_c, 6, 69, 0
8, 161832, Note_on_c, 6, 67, 81
8, 161864, Note_on_c, 6, 67, 0
8, 161864, Note_on_c, 6, 66, 80
8, 161984, Note_on_c, 6, 67, 79
8, 162038, Note_on_c, 6, 66, 0
8, 162104, Note_on_c, 6, 69, 79
8, 162138, Note_on_c, 6, 67, 0
8, 162224, Note_on_c, 6, 71, 79
8, 162263, Note_on_c, 6, 69, 0
8, 162704, Note_on_c, 6, 71, 0
8, 163184, Note_on_c, 6, 79, 70
8, 163664, Note_on_c, 6, 79, 0
8, 163664, Note_on_c, 6, 81, 81
8, 163692, Note_on_c, 6, 81, 0
8, 163692, Note_on_c, 6, 79, 81
8, 163724, Note_on_c, 6, 79, 0
8, 163724, Note_on_c, 6, 81, 85
8, 163752, Note_on_c, 6, 81, 0
8, 163752, Note_on_c, 6, 79, 85
8, 163784, Note_on_c, 6, 79, 0
8, 163784, Note_on_c, 6, 78, 84
8, 163904, Note_on_c, 6, 79, 75
8, 163933, Note_on_c, 6, 78, 0
8, 164024, Note_on_c, 6, 81, 75
8, 164063, Note_on_c, 6, 79, 0
8, 164144, Note_on_c, 6, 81, 0
8, 164144, Note_on_c, 6, 83, 82
8, 164624, Note_on_c, 6, 83, 0
8, 165104, Note_on_c, 6, 62, 105
8, 165584, Note_on_c, 6, 62, 0
8, 165824, Note_on_c, 6, 69, 105
8, 165824, Note_on_c, 6, 78, 105
8, 165992, Note_on_c, 6, 78, 0
8, 165992, Note_on_c, 6, 69, 0
8, 166064, Note_on_c, 6, 71, 105
8, 166064, Note_on_c, 6, 79, 105
8, 166232, Note_on_c, 6, 79, 0
8, 166232, Note_on_c, 6, 71, 0
8, 166304, Note_on_c, 6, 71, 105
8, 166304, Note_on_c, 6, 79, 105
8, 166472, Note_on_c, 6, 79, 0
8, 166472, Note_on_c, 6, 71, 0
8, 166544, Note_on_c, 6, 71, 105
8, 166544, Note_on_c, 6, 79, 105
8, 166712, Note_on_c, 6, 79, 0
8, 166712, Note_on_c, 6, 71, 0
8, 166784, Note_on_c, 6, 71, 105
8, 166784, Note_on_c, 6, 79, 105
8, 166952, Note_on_c, 6, 79, 0
8, 166952, Note_on_c, 6, 71, 0
8, 167024, Note_on_c, 6, 69, 105
8, 167024, Note_on_c, 6, 78, 105
8, 167504, Note_on_c, 6, 78, 0
8, 167504, Note_on_c, 6, 69, 0
8, 167744, Note_on_c, 6, 69, 105
8, 167744, Note_on_c, 6, 78, 105
8, 167912, Note_on_c, 6, 78, 0
8, 167912, Note_on_c, 6, 69, 0
8, 167984, Note_on_c, 6, 71, 105
8, 167984, Note_on_c, 6, 79, 105
8, 168152, Note_on_c, 6, 79, 0
8, 168152, Note_on_c, 6, 71, 0
8, 168224, Note_on_c, 6, 71, 105
8, 168224, Note_on_c, 6, 79, 105
8, 168392, Note_on_c, 6, 79, 0
8, 168392, Note_on_c, 6, 71, 0
8, 168464, Note_on_c, 6, 71, 105
8, 168464, Note_on_c, 6, 79, 105
8, 168632, Note_on_c, 6, 79, 0
8, 168632, Note_on_c, 6, 71, 0
8, 168704, Note_on_c, 6, 71, 105
8, 168704, Note_on_c, 6, 79, 105
8, 168872, Note_on_c, 6, 79, 0
8, 168872, Note_on_c, 6, 71, 0
8, 168944, Note_on_c, 6, 69, 105
8, 168944, Note_on_c, 6, 78, 105
8, 169327, Note_on_c, 6, 69, 0
8, 169393, Note_on_c, 6, 78, 0
8, 170864, Note_on_c, 6, 67, 70
8, 171104, Note_on_c, 6, 62, 70
8, 171159, Note_on_c, 6, 67, 0
8, 171344, Note_on_c, 6, 67, 70
8, 171399, Note_on_c, 6, 62, 0
8, 171584, Note_on_c, 6, 62, 70
8, 171639, Note_on_c, 6, 67, 0
8, 171824, Note_on_c, 6, 67, 70
8, 171879, Note_on_c, 6, 62, 0
8, 172064, Note_on_c, 6, 62, 70
8, 172119, Note_on_c, 6, 67, 0
8, 172304, Note_on_c, 6, 67, 70
8, 172359, Note_on_c, 6, 62, 0
8, 172544, Note_on_c, 6, 62, 70
8, 172599, Note_on_c, 6, 67, 0
8, 172733, Note_on_c, 6, 62, 0
8, 172784, Note_on_c, 6, 69, 70
8, 173024, Note_on_c, 6, 62, 70
8, 173079, Note_on_c, 6, 69, 0
8, 173264, Note_on_c, 6, 69, 70
8, 173319, Note_on_c, 6, 62, 0
8, 173504, Note_on_c, 6, 62, 70
8, 173559, Note_on_c, 6, 69, 0
8, 173744, Note_on_c, 6, 69, 70
8, 173799, Note_on_c, 6, 62, 0
8, 173984, Note_on_c, 6, 62, 70
8, 174039, Note_on_c, 6, 69, 0
8, 174224, Note_on_c, 6, 69, 70
8, 174279, Note_on_c, 6, 62, 0
8, 174464, Note_on_c, 6, 62, 70
8, 174519, Note_on_c, 6, 69, 0
8, 174653, Note_on_c, 6, 62, 0
8, 174704, Note_on_c, 6, 71, 70
8, 175184, Note_on_c, 6, 71, 0
8, 177584, Note_on_c, 6, 57, 70
8, 177584, Note_on_c, 6, 66, 70
8, 178544, Note_on_c, 6, 66, 0
8, 178544, Note_on_c, 6, 55, 70
8, 178544, Note_on_c, 6, 67, 70
8, 178613, Note_on_c, 6, 57, 0
8, 179024, Note_on_c, 6, 67, 0
8, 179024, Note_on_c, 6, 55, 0
8, 181424, Note_on_c, 6, 57, 70
8, 181424, Note_on_c, 6, 66, 70
8, 182384, Note_on_c, 6, 66, 0
8, 182384, Note_on_c, 6, 55, 70
8, 182384, Note_on_c, 6, 67, 70
8, 182453, Note_on_c, 6, 57, 0
8, 182864, Note_on_c, 6, 67, 0
8, 182864, Note_on_c, 6, 55, 0
8, 188864, Note_on_c, 6, 67, 69
8, 188960, Note_on_c, 6, 67, 0
8, 189104, Note_on_c, 6, 67, 71
8, 189200, Note_on_c, 6, 67, 0
8, 189344, Note_on_c, 6, 71, 73
8, 189440, Note_on_c, 6, 71, 0
8, 189584, Note_on_c, 6, 67, 75
8, 189680, Note_on_c, 6, 67, 0
8, 189824, Note_on_c, 6, 62, 76
8, 189920, Note_on_c, 6, 62, 0
8, 190064, Note_on_c, 6, 67, 78
8, 190544, Note_on_c, 6, 67, 0
8, 190784, Note_on_c, 6, 67, 69
8, 190880, Note_on_c, 6, 67, 0
8, 191024, Note_on_c, 6, 67, 70
8, 191120, Note_on_c, 6, 67, 0
8, 191264, Note_on_c, 6, 71, 71
8, 191360, Note_on_c, 6, 71, 0
8, 191504, Note_on_c, 6, 67, 73
8, 191600, Note_on_c, 6, 67, 0
8, 191744, Note_on_c, 6, 62, 74
8, 191840, Note_on_c, 6, 62, 0
8, 191984, Note_on_c, 6, 64, 75
8, 192464, Note_on_c, 6, 64, 0
8, 192464, Note_on_c, 6, 67, 70
8, 192464, Note_on_c, 6, 69, 70
8, 192944, Note_on_c, 6, 69, 0
8, 192944, Note_on_c, 6, 67, 0
8, 193424, Note_on_c, 6, 66, 70
8, 193424, Note_on_c, 6, 69, 70
8, 193904, Note_on_c, 6, 69, 0
8, 193904, Note_on_c, 6, 66, 0
8, 194384, Note_on_c, 6, 59, 70
8, 194384, Note_on_c, 6, 67, 70
8, 194864, Note_on_c, 6, 67, 0
8, 194864, Note_on_c, 6, 59, 0
8, 195344, Note_on_c, 6, 59, 70
8, 195344, Note_on_c, 6, 67, 70
8, 195824, Note_on_c, 6, 67, 0
8, 195824, Note_on_c, 6, 59, 0
8, 195824, Note_on_c, 6, 64, 70
8, 196544, Note_on_c, 6, 64, 0
8, 196544, Note_on_c, 6, 72, 78
8, 196784, Note_on_c, 6, 72, 0
8, 196784, Note_on_c, 6, 71, 76
8, 196880, Note_on_c, 6, 71, 0
8, 197024, Note_on_c, 6, 69, 72
8, 197120, Note_on_c, 6, 69, 0
8, 197264, Note_on_c, 6, 67, 72
8, 197360, Note_on_c, 6, 67, 0
8, 197504, Note_on_c, 6, 66, 71
8, 197600, Note_on_c, 6, 66, 0
8, 203504, Note_on_c, 6, 72, 77
8, 204464, Note_on_c, 6, 71, 78
8, 204498, Note_on_c, 6, 72, 0
8, 204560, Note_on_c, 6, 71, 0
8, 204704, Note_on_c, 6, 69, 76
8, 204800, Note_on_c, 6, 69, 0
8, 204944, Note_on_c, 6, 67, 73
8, 205040, Note_on_c, 6, 67, 0
8, 205184, Note_on_c, 6, 66, 71
8, 205280, Note_on_c, 6, 66, 0
8, 205424, Note_on_c, 6, 67, 69
8, 205904, Note_on_c, 6, 67, 0
8, 213103, Control_c, 6, 0, 0
8, 213104, Program_c, 6, 45
8, 214064, Note_on_c, 6, 71, 70
8, 214304, Note_on_c, 6, 71, 0
8, 214544, Note_on_c, 6, 69, 70
8, 214784, Note_on_c, 6, 69, 0
8, 215024, Note_on_c, 6, 67, 70
8, 215504, Note_on_c, 6, 67, 0
8, 215984, Note_on_c, 6, 71, 70
8, 216152, Note_on_c, 6, 71, 0
8, 216224, Note_on_c, 6, 71, 70
8, 216392, Note_on_c, 6, 71, 0
8, 216464, Note_on_c, 6, 69, 70
8, 216632, Note_on_c, 6, 69, 0
8, 216704, Note_on_c, 6, 69, 70
8, 216872, Note_on_c, 6, 69, 0
8, 216944, Note_on_c, 6, 67, 70
8, 217424, Note_on_c, 6, 67, 0
8, 217904, Note_on_c, 6, 71, 70
8, 218144, Note_on_c, 6, 71, 0
8, 218384, Note_on_c, 6, 69, 70
8, 218624, Note_on_c, 6, 69, 0
8, 218864, Note_on_c, 6, 67, 70
8, 219104, Note_on_c, 6, 67, 0
8, 219344, Note_on_c, 6, 66, 70
8, 219584, Note_on_c, 6, 66, 0
8, 219824, Note_on_c, 6, 74, 70
8, 220064, Note_on_c, 6, 74, 0
8, 220304, Note_on_c, 6, 72, 70
8, 220544, Note_on_c, 6, 72, 0
8, 220784, Note_on_c, 6, 71, 70
8, 221264, Note_on_c, 6, 71, 0
8, 221744, Note_on_c, 6, 69, 70
8, 221744, Note_on_c, 6, 67, 70
8, 222224, Note_on_c, 6, 67, 0
8, 222224, Note_on_c, 6, 69, 0
8, 222704, Note_on_c, 6, 71, 70
8, 222944, Note_on_c, 6, 71, 0
8, 223184, Note_on_c, 6, 67, 70
8, 223424, Note_on_c, 6, 67, 0
8, 223664, Note_on_c, 6, 66, 70
8, 223904, Note_on_c, 6, 66, 0
8, 224144, Note_on_c, 6, 66, 70
8, 224384, Note_on_c, 6, 66, 0
8, 226543, Control_c, 6, 0, 0
8, 226544, Program_c, 6, 48
8, 226784, Note_on_c, 6, 67, 70
8, 226952, Note_on_c, 6, 67, 0
8, 227024, Note_on_c, 6, 67, 70
8, 227192, Note_on_c, 6, 67, 0
8, 227264, Note_on_c, 6, 67, 70
8, 227432, Note_on_c, 6, 67, 0
8, 227504, Note_on_c, 6, 67, 70
8, 227672, Note_on_c, 6, 67, 0
8, 227744, Note_on_c, 6, 67, 70
8, 227912, Note_on_c, 6, 67, 0
8, 227984, Note_on_c, 6, 67, 70
8, 228152, Note_on_c, 6, 67, 0
8, 228224, Note_on_c, 6, 67, 70
8, 228392, Note_on_c, 6, 67, 0
8, 228464, Note_on_c, 6, 66, 71
8, 228584, Note_on_c, 6, 66, 0
8, 228584, Note_on_c, 6, 66, 73
8, 228704, Note_on_c, 6, 66, 0
8, 228704, Note_on_c, 6, 66, 75
8, 228824, Note_on_c, 6, 66, 0
8, 228824, Note_on_c, 6, 66, 77
8, 228944, Note_on_c, 6, 66, 0
8, 228944, Note_on_c, 6, 66, 79
8, 229064, Note_on_c, 6, 66, 0
8, 229064, Note_on_c, 6, 66, 81
8, 229184, Note_on_c, 6, 66, 0
8, 229184, Note_on_c, 6, 66, 83
8, 229304, Note_on_c, 6, 66, 0
8, 229304, Note_on_c, 6, 66, 85
8, 229424, Note_on_c, 6, 66, 0
8, 229424, Note_on_c, 6, 69, 87
8, 229544, Note_on_c, 6, 69, 0
8, 229544, Note_on_c, 6, 69, 88
8, 229664, Note_on_c, 6, 69, 0
8, 229664, Note_on_c, 6, 69, 90
8, 229784, Note_on_c, 6, 69, 0
8, 229784, Note_on_c, 6, 69, 92
8, 229904, Note_on_c, 6, 69, 0
8, 229904, Note_on_c, 6, 72, 94
8, 230024, Note_on_c, 6, 72, 0
8, 230024, Note_on_c, 6, 72, 96
8, 230144, Note_on_c, 6, 72, 0
8, 230144, Note_on_c, 6, 72, 98
8, 230264, Note_on_c, 6, 72, 0
8, 230264, Note_on_c, 6, 72, 100
8, 230384, Note_on_c, 6, 72, 0
8, 230384, Note_on_c, 6, 71, 102
8, 230864, Note_on_c, 6, 71, 0
8, 230864, Note_on_c, 6, 76, 105
8, 230960, Note_on_c, 6, 76, 0
8, 231344, Note_on_c, 6, 74, 105
8, 231440, Note_on_c, 6, 74, 0
8, 231824, Note_on_c, 6, 72, 105
8, 231920, Note_on_c, 6, 72, 0
8, 232304, Note_on_c, 6, 71, 105
8, 233024, Note_on_c, 6, 71, 0
8, 233024, Note_on_c, 6, 69, 105
8, 233264, Note_on_c, 6, 69, 0
8, 233264, Note_on_c, 6, 67, 105
8, 233744, Note_on_c, 6, 67, 0
8, 234704, Note_on_c, 6, 67, 70
8, 234800, Note_on_c, 6, 67, 0
8, 235184, Note_on_c, 6, 66, 70
8, 235280, Note_on_c, 6, 66, 0
8, 235664, Note_on_c, 6, 64, 70
8, 235760, Note_on_c, 6, 64, 0
8, 236144, Note_on_c, 6, 62, 70
8, 236864, Note_on_c, 6, 62, 0
8, 236864, Note_on_c, 6, 60, 70
8, 237104, Note_on_c, 6, 60, 0
8, 237104, Note_on_c, 6, 59, 70
8, 237584, Note_on_c, 6, 59, 0
8, 238064, Note_on_c, 6, 74, 105
8, 238184, Note_on_c, 6, 74, 0
8, 238184, Note_on_c, 6, 69, 105
8, 238304, Note_on_c, 6, 69, 0
8, 238304, Note_on_c, 6, 66, 105
8, 238424, Note_on_c, 6, 66, 0
8, 238424, Note_on_c, 6, 62, 105
8, 238544, Note_on_c, 6, 62, 0
8, 238544, Note_on_c, 6, 74, 105
8, 238664, Note_on_c, 6, 74, 0
8, 238664, Note_on_c, 6, 74, 105
8, 238784, Note_on_c, 6, 74, 0
8, 238784, Note_on_c, 6, 74, 105
8, 238904, Note_on_c, 6, 74, 0
8, 238904, Note_on_c, 6, 74, 105
8, 239024, Note_on_c, 6, 74, 0
8, 239024, Note_on_c, 6, 74, 105
8, 239144, Note_on_c, 6, 74, 0
8, 239144, Note_on_c, 6, 69, 105
8, 239264, Note_on_c, 6, 69, 0
8, 239264, Note_on_c, 6, 66, 105
8, 239384, Note_on_c, 6, 66, 0
8, 239384, Note_on_c, 6, 62, 105
8, 239504, Note_on_c, 6, 62, 0
8, 239504, Note_on_c, 6, 74, 105
8, 239624, Note_on_c, 6, 74, 0
8, 239624, Note_on_c, 6, 74, 105
8, 239744, Note_on_c, 6, 74, 0
8, 239744, Note_on_c, 6, 74, 105
8, 239864, Note_on_c, 6, 74, 0
8, 239864, Note_on_c, 6, 74, 105
8, 239984, Note_on_c, 6, 74, 0
8, 239984, Note_on_c, 6, 74, 105
8, 240104, Note_on_c, 6, 74, 0
8, 240104, Note_on_c, 6, 71, 105
8, 240224, Note_on_c, 6, 71, 0
8, 240224, Note_on_c, 6, 67, 105
8, 240344, Note_on_c, 6, 67, 0
8, 240344, Note_on_c, 6, 62, 105
8, 240464, Note_on_c, 6, 62, 0
8, 240464, Note_on_c, 6, 74, 105
8, 240584, Note_on_c, 6, 74, 0
8, 240584, Note_on_c, 6, 74, 105
8, 240704, Note_on_c, 6, 74, 0
8, 240704, Note_on_c, 6, 74, 105
8, 240824, Note_on_c, 6, 74, 0
8, 240824, Note_on_c, 6, 74, 105
8, 240944, Note_on_c, 6, 74, 0
8, 240944, Note_on_c, 6, 74, 105
8, 241064, Note_on_c, 6, 74, 0
8, 241064, Note_on_c, 6, 71, 105
8, 241184, Note_on_c, 6, 71, 0
8, 241184, Note_on_c, 6, 67, 105
8, 241304, Note_on_c, 6, 67, 0
8, 241304, Note_on_c, 6, 62, 105
8, 241424, Note_on_c, 6, 62, 0
8, 241424, Note_on_c, 6, 74, 105
8, 241544, Note_on_c, 6, 74, 0
8, 241544, Note_on_c, 6, 74, 105
8, 241664, Note_on_c, 6, 74, 0
8, 241664, Note_on_c, 6, 74, 105
8, 241784, Note_on_c, 6, 74, 0
8, 241784, Note_on_c, 6, 74, 105
8, 241904, Note_on_c, 6, 74, 0
8, 241904, Note_on_c, 6, 62, 105
8, 242384, Note_on_c, 6, 62, 0
8, 242384, Note_on_c, 6, 74, 105
8, 242504, Note_on_c, 6, 74, 0
8, 242504, Note_on_c, 6, 72, 105
8, 242624, Note_on_c, 6, 72, 0
8, 242624, Note_on_c, 6, 71, 105
8, 242744, Note_on_c, 6, 71, 0
8, 242744, Note_on_c, 6, 69, 105
8, 242864, Note_on_c, 6, 69, 0
8, 242864, Note_on_c, 6, 67, 105
8, 243344, Note_on_c, 6, 67, 0
8, 243344, Note_on_c, 6, 66, 105
8, 243824, Note_on_c, 6, 66, 0
8, 243824, Note_on_c, 6, 74, 115
8, 243944, Note_on_c, 6, 74, 0
8, 243944, Note_on_c, 6, 72, 112
8, 244064, Note_on_c, 6, 72, 0
8, 244064, Note_on_c, 6, 71, 110
8, 244184, Note_on_c, 6, 71, 0
8, 244184, Note_on_c, 6, 69, 108
8, 244304, Note_on_c, 6, 69, 0
8, 244304, Note_on_c, 6, 67, 108
8, 244424, Note_on_c, 6, 67, 0
8, 244424, Note_on_c, 6, 66, 107
8, 244544, Note_on_c, 6, 66, 0
8, 244544, Note_on_c, 6, 64, 107
8, 244664, Note_on_c, 6, 64, 0
8, 244664, Note_on_c, 6, 62, 107
8, 244784, Note_on_c, 6, 62, 0
8, 244784, Note_on_c, 6, 64, 109
8, 244880, Note_on_c, 6, 64, 0
8, 245024, Note_on_c, 6, 67, 105
8, 245120, Note_on_c, 6, 67, 0
8, 245264, Note_on_c, 6, 72, 105
8, 245360, Note_on_c, 6, 72, 0
8, 245504, Note_on_c, 6, 76, 105
8, 245600, Note_on_c, 6, 76, 0
8, 245744, Note_on_c, 6, 62, 105
8, 246224, Note_on_c, 6, 62, 0
8, 246224, Note_on_c, 6, 83, 105
8, 246944, Note_on_c, 6, 83, 0
8, 246944, Note_on_c, 6, 84, 105
8, 247064, Note_on_c, 6, 84, 0
8, 247064, Note_on_c, 6, 83, 105
8, 247184, Note_on_c, 6, 83, 0
8, 247184, Note_on_c, 6, 81, 105
8, 247424, Note_on_c, 6, 81, 0
8, 247424, Note_on_c, 6, 79, 105
8, 247664, Note_on_c, 6, 79, 0
8, 247664, Note_on_c, 6, 74, 105
8, 248024, Note_on_c, 6, 72, 105
8, 248068, Note_on_c, 6, 74, 0
8, 248108, Note_on_c, 6, 72, 0
8, 248144, Note_on_c, 6, 71, 105
8, 249104, Note_on_c, 6, 71, 0
8, 249104, Note_on_c, 6, 69, 105
8, 249533, Note_on_c, 6, 69, 0
8, 249549, Note_on_c, 6, 55, 105
8, 249574, Note_on_c, 6, 62, 105
8, 249584, Note_on_c, 6, 71, 105
8, 249653, Note_on_c, 6, 55, 0
8, 250064, Note_on_c, 6, 71, 0
8, 250068, Note_on_c, 6, 62, 0
8, 253904, Note_on_c, 6, 60, 70
8, 254144, Note_on_c, 6, 60, 0
8, 254384, Note_on_c, 6, 59, 70
8, 254624, Note_on_c, 6, 59, 0
8, 254864, Note_on_c, 6, 57, 70
8, 255104, Note_on_c, 6, 57, 0
8, 255344, Note_on_c, 6, 56, 105
8, 255824, Note_on_c, 6, 56, 0
8, 259184, Note_on_c, 6, 59, 70
8, 259184, Note_on_c, 6, 68, 70
8, 261104, Note_on_c, 6, 68, 0
8, 261104, Note_on_c, 6, 59, 0
8, 261104, Note_on_c, 6, 57, 70
8, 261104, Note_on_c, 6, 69, 70
8, 263024, Note_on_c, 6, 69, 0
8, 263024, Note_on_c, 6, 57, 0
8, 263024, Note_on_c, 6, 69, 70
8, 264464, Note_on_c, 6, 68, 70
8, 264523, Note_on_c, 6, 69, 0
8, 264908, Note_on_c, 6, 68, 0
8, 264944, Note_on_c, 6, 69, 70
8, 265136, Note_on_c, 6, 69, 0
8, 265424, Note_on_c, 6, 62, 70
8, 265616, Note_on_c, 6, 62, 0
8, 265904, Note_on_c, 6, 60, 70
8, 266096, Note_on_c, 6, 60, 0
8, 266864, Note_on_c, 6, 59, 70
8, 267584, Note_on_c, 6, 71, 70
8, 267618, Note_on_c, 6, 59, 0
8, 267783, Note_on_c, 6, 71, 0
8, 267824, Note_on_c, 6, 69, 70
8, 268304, Note_on_c, 6, 68, 70
8, 268373, Note_on_c, 6, 69, 0
8, 268743, Note_on_c, 6, 68, 0
8, 274544, Note_on_c, 6, 61, 105
8, 275024, Note_on_c, 6, 61, 0
8, 278384, Note_on_c, 6, 58, 70
8, 278384, Note_on_c, 6, 67, 70
8, 279824, Note_on_c, 6, 67, 0
8, 279824, Note_on_c, 6, 58, 0
8, 279824, Note_on_c, 6, 57, 70
8, 279824, Note_on_c, 6, 67, 70
8, 280304, Note_on_c, 6, 67, 0
8, 280304, Note_on_c, 6, 57, 0
8, 280304, Note_on_c, 6, 57, 70
8, 280304, Note_on_c, 6, 65, 70
8, 282224, Note_on_c, 6, 65, 0
8, 282224, Note_on_c, 6, 57, 0
8, 282224, Note_on_c, 6, 62, 70
8, 282944, Note_on_c, 6, 64, 70
8, 283003, Note_on_c, 6, 62, 0
8, 283123, Note_on_c, 6, 64, 0
8, 283184, Note_on_c, 6, 65, 70
8, 283664, Note_on_c, 6, 64, 70
8, 283733, Note_on_c, 6, 65, 0
8, 284078, Note_on_c, 6, 64, 0
8, 284144, Note_on_c, 6, 62, 70
8, 284336, Note_on_c, 6, 62, 0
8, 284624, Note_on_c, 6, 55, 70
8, 284816, Note_on_c, 6, 55, 0
8, 285104, Note_on_c, 6, 57, 70
8, 285296, Note_on_c, 6, 57, 0
8, 286064, Note_on_c, 6, 62, 70
8, 287504, Note_on_c, 6, 62, 0
8, 287504, Note_on_c, 6, 61, 70
8, 287984, Note_on_c, 6, 61, 0
8, 287984, Note_on_c, 6, 62, 70
8, 288464, Note_on_c, 6, 62, 0
8, 299504, Note_on_c, 6, 57, 105
8, 299984, Note_on_c, 6, 57, 0
8, 305264, Note_on_c, 6, 75, 70
8, 305984, Note_on_c, 6, 72, 70
8, 306043, Note_on_c, 6, 75, 0
8, 306224, Note_on_c, 6, 75, 70
8, 306303, Note_on_c, 6, 72, 0
8, 306393, Note_on_c, 6, 75, 0
8, 306704, Note_on_c, 6, 72, 70
8, 306833, Note_on_c, 6, 72, 0
8, 307184, Note_on_c, 6, 71, 70
8, 307664, Note_on_c, 6, 71, 0
8, 309104, Note_on_c, 6, 75, 70
8, 309824, Note_on_c, 6, 72, 70
8, 309913, Note_on_c, 6, 75, 0
8, 310064, Note_on_c, 6, 75, 70
8, 310133, Note_on_c, 6, 72, 0
8, 310253, Note_on_c, 6, 75, 0
8, 310544, Note_on_c, 6, 72, 70
8, 310640, Note_on_c, 6, 72, 0
8, 311024, Note_on_c, 6, 71, 70
8, 311504, Note_on_c, 6, 71, 0
8, 315104, Note_on_c, 6, 67, 70
8, 315344, Note_on_c, 6, 66, 70
8, 315403, Note_on_c, 6, 67, 0
8, 315584, Note_on_c, 6, 67, 70
8, 315638, Note_on_c, 6, 66, 0
8, 315768, Note_on_c, 6, 67, 0
8, 317024, Note_on_c, 6, 67, 70
8, 317264, Note_on_c, 6, 66, 70
8, 317323, Note_on_c, 6, 67, 0
8, 317504, Note_on_c, 6, 67, 70
8, 317573, Note_on_c, 6, 66, 0
8, 317713, Note_on_c, 6, 67, 0
8, 318944, Note_on_c, 6, 59, 70
8, 319184, Note_on_c, 6, 59, 0
8, 319184, Note_on_c, 6, 59, 70
8, 319424, Note_on_c, 6, 59, 0
8, 319424, Note_on_c, 6, 59, 70
8, 319664, Note_on_c, 6, 59, 0
8, 319904, Note_on_c, 6, 60, 70
8, 320144, Note_on_c, 6, 60, 0
8, 320144, Note_on_c, 6, 60, 70
8, 320384, Note_on_c, 6, 60, 0
8, 320384, Note_on_c, 6, 60, 70
8, 320624, Note_on_c, 6, 60, 0
8, 320864, Note_on_c, 6, 62, 80
8, 321104, Note_on_c, 6, 62, 0
8, 321104, Note_on_c, 6, 62, 80
8, 321344, Note_on_c, 6, 62, 0
8, 321344, Note_on_c, 6, 62, 80
8, 321584, Note_on_c, 6, 62, 0
8, 321824, Note_on_c, 6, 64, 90
8, 322064, Note_on_c, 6, 64, 0
8, 322064, Note_on_c, 6, 64, 90
8, 322304, Note_on_c, 6, 64, 0
8, 322304, Note_on_c, 6, 64, 90
8, 322544, Note_on_c, 6, 64, 0
8, 322784, Note_on_c, 6, 65, 105
8, 323024, Note_on_c, 6, 65, 0
8, 323024, Note_on_c, 6, 65, 105
8, 323264, Note_on_c, 6, 65, 0
8, 323264, Note_on_c, 6, 65, 105
8, 323504, Note_on_c, 6, 65, 0
8, 323744, Note_on_c, 6, 65, 105
8, 323984, Note_on_c, 6, 65, 0
8, 323984, Note_on_c, 6, 65, 105
8, 324224, Note_on_c, 6, 65, 0
8, 324224, Note_on_c, 6, 65, 105
8, 324464, Note_on_c, 6, 65, 0
8, 324464, Note_on_c, 6, 55, 105
8, 324464, Note_on_c, 6, 64, 105
8, 325148, Note_on_c, 6, 64, 0
8, 325148, Note_on_c, 6, 55, 0
8, 325184, Note_on_c, 6, 67, 105
8, 325412, Note_on_c, 6, 67, 0
8, 325424, Note_on_c, 6, 64, 105
8, 325652, Note_on_c, 6, 64, 0
8, 325664, Note_on_c, 6, 60, 105
8, 325892, Note_on_c, 6, 60, 0
8, 325904, Note_on_c, 6, 64, 105
8, 326132, Note_on_c, 6, 64, 0
8, 326144, Note_on_c, 6, 67, 105
8, 326372, Note_on_c, 6, 67, 0
8, 326384, Note_on_c, 6, 72, 105
8, 327068, Note_on_c, 6, 72, 0
8, 327104, Note_on_c, 6, 67, 105
8, 327332, Note_on_c, 6, 67, 0
8, 327344, Note_on_c, 6, 64, 105
8, 327572, Note_on_c, 6, 64, 0
8, 327584, Note_on_c, 6, 60, 105
8, 327812, Note_on_c, 6, 60, 0
8, 327824, Note_on_c, 6, 64, 105
8, 328052, Note_on_c, 6, 64, 0
8, 328064, Note_on_c, 6, 67, 105
8, 328292, Note_on_c, 6, 67, 0
8, 328304, Note_on_c, 6, 72, 105
8, 328784, Note_on_c, 6, 72, 0
8, 357344, Note_on_c, 6, 55, 69
8, 357440, Note_on_c, 6, 55, 0
8, 357584, Note_on_c, 6, 57, 71
8, 357680, Note_on_c, 6, 57, 0
8, 357824, Note_on_c, 6, 59, 73
8, 357920, Note_on_c, 6, 59, 0
8, 358064, Note_on_c, 6, 60, 74
8, 358160, Note_on_c, 6, 60, 0
8, 358304, Note_on_c, 6, 62, 76
8, 358400, Note_on_c, 6, 62, 0
8, 358544, Note_on_c, 6, 64, 78
8, 358640, Note_on_c, 6, 64, 0
8, 358784, Note_on_c, 6, 66, 80
8, 358880, Note_on_c, 6, 66, 0
8, 359024, Note_on_c, 6, 67, 82
8, 359213, Note_on_c, 6, 67, 0
8, 378464, Note_on_c, 6, 67, 70
8, 378704, Note_on_c, 6, 67, 0
8, 378704, Note_on_c, 6, 67, 70
8, 378944, Note_on_c, 6, 67, 0
8, 378944, Note_on_c, 6, 67, 70
8, 379184, Note_on_c, 6, 67, 0
8, 379184, Note_on_c, 6, 67, 70
8, 379424, Note_on_c, 6, 67, 0
8, 379424, Note_on_c, 6, 67, 70
8, 379664, Note_on_c, 6, 67, 0
8, 379664, Note_on_c, 6, 64, 70
8, 380384, Note_on_c, 6, 64, 0
8, 380384, Note_on_c, 6, 64, 70
8, 380624, Note_on_c, 6, 64, 0
8, 380624, Note_on_c, 6, 64, 70
8, 380864, Note_on_c, 6, 64, 0
8, 380864, Note_on_c, 6, 64, 70
8, 381104, Note_on_c, 6, 64, 0
8, 381104, Note_on_c, 6, 64, 70
8, 381344, Note_on_c, 6, 64, 0
8, 381344, Note_on_c, 6, 64, 70
8, 381584, Note_on_c, 6, 64, 0
8, 381584, Note_on_c, 6, 60, 70
8, 382304, Note_on_c, 6, 60, 0
8, 382304, Note_on_c, 6, 60, 70
8, 382544, Note_on_c, 6, 60, 0
8, 382544, Note_on_c, 6, 60, 70
8, 382784, Note_on_c, 6, 60, 0
8, 382784, Note_on_c, 6, 60, 70
8, 383024, Note_on_c, 6, 60, 0
8, 383024, Note_on_c, 6, 60, 70
8, 383264, Note_on_c, 6, 60, 0
8, 383264, Note_on_c, 6, 60, 70
8, 383504, Note_on_c, 6, 60, 0
8, 383504, Note_on_c, 6, 57, 70
8, 384464, Note_on_c, 6, 57, 0
8, 384464, Note_on_c, 6, 55, 70
8, 384944, Note_on_c, 6, 55, 0
8, 384944, Note_on_c, 6, 57, 70
8, 385904, Note_on_c, 6, 57, 0
8, 385904, Note_on_c, 6, 55, 70
8, 386144, Note_on_c, 6, 59, 70
8, 386204, Note_on_c, 6, 55, 0
8, 386384, Note_on_c, 6, 62, 70
8, 386444, Note_on_c, 6, 59, 0
8, 386624, Note_on_c, 6, 59, 70
8, 386684, Note_on_c, 6, 62, 0
8, 386864, Note_on_c, 6, 55, 70
8, 386924, Note_on_c, 6, 59, 0
8, 387104, Note_on_c, 6, 59, 70
8, 387164, Note_on_c, 6, 55, 0
8, 387344, Note_on_c, 6, 62, 70
8, 387404, Note_on_c, 6, 59, 0
8, 387584, Note_on_c, 6, 59, 70
8, 387644, Note_on_c, 6, 62, 0
8, 387763, Note_on_c, 6, 59, 0
8, 387824, Note_on_c, 6, 55, 70
8, 388064, Note_on_c, 6, 59, 70
8, 388124, Note_on_c, 6, 55, 0
8, 388304, Note_on_c, 6, 62, 70
8, 388364, Note_on_c, 6, 59, 0
8, 388544, Note_on_c, 6, 59, 70
8, 388604, Note_on_c, 6, 62, 0
8, 388784, Note_on_c, 6, 55, 70
8, 388844, Note_on_c, 6, 59, 0
8, 389024, Note_on_c, 6, 59, 70
8, 389084, Note_on_c, 6, 55, 0
8, 389264, Note_on_c, 6, 62, 70
8, 389324, Note_on_c, 6, 59, 0
8, 389504, Note_on_c, 6, 59, 70
8, 389564, Note_on_c, 6, 62, 0
8, 389688, Note_on_c, 6, 59, 0
8, 389744, Note_on_c, 6, 60, 75
8, 390158, Note_on_c, 6, 60, 0
8, 390224, Note_on_c, 6, 62, 82
8, 390252, Note_on_c, 6, 62, 0
8, 390252, Note_on_c, 6, 60, 82
8, 390284, Note_on_c, 6, 60, 0
8, 390284, Note_on_c, 6, 62, 85
8, 390312, Note_on_c, 6, 62, 0
8, 390312, Note_on_c, 6, 60, 85
8, 390344, Note_on_c, 6, 59, 84
8, 390401, Note_on_c, 6, 60, 0
8, 390464, Note_on_c, 6, 60, 78
8, 390503, Note_on_c, 6, 59, 0
8, 390584, Note_on_c, 6, 62, 77
8, 390633, Note_on_c, 6, 60, 0
8, 390704, Note_on_c, 6, 64, 84
8, 390773, Note_on_c, 6, 62, 0
8, 391184, Note_on_c, 6, 64, 0
8, 391664, Note_on_c, 6, 72, 77
8, 392053, Note_on_c, 6, 72, 0
8, 392144, Note_on_c, 6, 74, 85
8, 392172, Note_on_c, 6, 74, 0
8, 392172, Note_on_c, 6, 72, 85
8, 392204, Note_on_c, 6, 72, 0
8, 392204, Note_on_c, 6, 74, 86
8, 392232, Note_on_c, 6, 74, 0
8, 392232, Note_on_c, 6, 72, 86
8, 392264, Note_on_c, 6, 71, 90
8, 392321, Note_on_c, 6, 72, 0
8, 392384, Note_on_c, 6, 72, 85
8, 392423, Note_on_c, 6, 71, 0
8, 392504, Note_on_c, 6, 74, 87
8, 392548, Note_on_c, 6, 72, 0
8, 392624, Note_on_c, 6, 76, 94
8, 392683, Note_on_c, 6, 74, 0
8, 393104, Note_on_c, 6, 76, 0
8, 393584, Note_on_c, 6, 55, 70
8, 393824, Note_on_c, 6, 59, 70
8, 393884, Note_on_c, 6, 55, 0
8, 394064, Note_on_c, 6, 62, 70
8, 394124, Note_on_c, 6, 59, 0
8, 394304, Note_on_c, 6, 59, 70
8, 394364, Note_on_c, 6, 62, 0
8, 394544, Note_on_c, 6, 55, 70
8, 394604, Note_on_c, 6, 59, 0
8, 394784, Note_on_c, 6, 59, 70
8, 394844, Note_on_c, 6, 55, 0
8, 395024, Note_on_c, 6, 62, 70
8, 395084, Note_on_c, 6, 59, 0
8, 395264, Note_on_c, 6, 59, 70
8, 395324, Note_on_c, 6, 62, 0
8, 395433, Note_on_c, 6, 59, 0
8, 395504, Note_on_c, 6, 55, 70
8, 395744, Note_on_c, 6, 59, 70
8, 395804, Note_on_c, 6, 55, 0
8, 395984, Note_on_c, 6, 62, 70
8, 396044, Note_on_c, 6, 59, 0
8, 396224, Note_on_c, 6, 59, 70
8, 396284, Note_on_c, 6, 62, 0
8, 396464, Note_on_c, 6, 55, 70
8, 396524, Note_on_c, 6, 59, 0
8, 396704, Note_on_c, 6, 59, 70
8, 396764, Note_on_c, 6, 55, 0
8, 396944, Note_on_c, 6, 62, 70
8, 397004, Note_on_c, 6, 59, 0
8, 397184, Note_on_c, 6, 59, 70
8, 397244, Note_on_c, 6, 62, 0
8, 397373, Note_on_c, 6, 59, 0
8, 397424, Note_on_c, 6, 60, 76
8, 397823, Note_on_c, 6, 60, 0
8, 397904, Note_on_c, 6, 62, 87
8, 397932, Note_on_c, 6, 62, 0
8, 397932, Note_on_c, 6, 60, 87
8, 397964, Note_on_c, 6, 60, 0
8, 397964, Note_on_c, 6, 62, 87
8, 397992, Note_on_c, 6, 62, 0
8, 397992, Note_on_c, 6, 60, 87
8, 398024, Note_on_c, 6, 59, 83
8, 398071, Note_on_c, 6, 60, 0
8, 398144, Note_on_c, 6, 60, 83
8, 398183, Note_on_c, 6, 59, 0
8, 398264, Note_on_c, 6, 62, 85
8, 398303, Note_on_c, 6, 60, 0
8, 398384, Note_on_c, 6, 64, 90
8, 398438, Note_on_c, 6, 62, 0
8, 398864, Note_on_c, 6, 64, 0
8, 399344, Note_on_c, 6, 72, 80
8, 399763, Note_on_c, 6, 72, 0
8, 399824, Note_on_c, 6, 74, 84
8, 399852, Note_on_c, 6, 74, 0
8, 399852, Note_on_c, 6, 72, 85
8, 399884, Note_on_c, 6, 72, 0
8, 399884, Note_on_c, 6, 74, 85
8, 399912, Note_on_c, 6, 74, 0
8, 399912, Note_on_c, 6, 72, 85
8, 399944, Note_on_c, 6, 71, 82
8, 399996, Note_on_c, 6, 72, 0
8, 400064, Note_on_c, 6, 72, 82
8, 400103, Note_on_c, 6, 71, 0
8, 400184, Note_on_c, 6, 74, 87
8, 400223, Note_on_c, 6, 72, 0
8, 400304, Note_on_c, 6, 74, 0
8, 400304, Note_on_c, 6, 76, 91
8, 400784, Note_on_c, 6, 76, 0
8, 401264, Note_on_c, 6, 71, 105
8, 401384, Note_on_c, 6, 74, 105
8, 401418, Note_on_c, 6, 71, 0
8, 401458, Note_on_c, 6, 74, 0
8, 401504, Note_on_c, 6, 79, 105
8, 401548, Note_on_c, 6, 79, 0
8, 401624, Note_on_c, 6, 79, 105
8, 401668, Note_on_c, 6, 79, 0
8, 401744, Note_on_c, 6, 79, 105
8, 401864, Note_on_c, 6, 79, 0
8, 401864, Note_on_c, 6, 79, 105
8, 401984, Note_on_c, 6, 79, 0
8, 401984, Note_on_c, 6, 79, 105
8, 402104, Note_on_c, 6, 79, 0
8, 402104, Note_on_c, 6, 79, 105
8, 402224, Note_on_c, 6, 79, 0
8, 402224, Note_on_c, 6, 72, 105
8, 402344, Note_on_c, 6, 76, 105
8, 402378, Note_on_c, 6, 72, 0
8, 402428, Note_on_c, 6, 76, 0
8, 402464, Note_on_c, 6, 79, 105
8, 402508, Note_on_c, 6, 79, 0
8, 402584, Note_on_c, 6, 79, 105
8, 402628, Note_on_c, 6, 79, 0
8, 402704, Note_on_c, 6, 79, 105
8, 402824, Note_on_c, 6, 79, 0
8, 402824, Note_on_c, 6, 79, 105
8, 402944, Note_on_c, 6, 79, 0
8, 402944, Note_on_c, 6, 79, 105
8, 403064, Note_on_c, 6, 79, 0
8, 403064, Note_on_c, 6, 79, 105
8, 403184, Note_on_c, 6, 79, 0
8, 403184, Note_on_c, 6, 71, 105
8, 403304, Note_on_c, 6, 74, 105
8, 403343, Note_on_c, 6, 71, 0
8, 403383, Note_on_c, 6, 74, 0
8, 403424, Note_on_c, 6, 79, 105
8, 403468, Note_on_c, 6, 79, 0
8, 403544, Note_on_c, 6, 79, 105
8, 403588, Note_on_c, 6, 79, 0
8, 403664, Note_on_c, 6, 79, 105
8, 403784, Note_on_c, 6, 79, 0
8, 403784, Note_on_c, 6, 79, 105
8, 403904, Note_on_c, 6, 79, 0
8, 403904, Note_on_c, 6, 79, 105
8, 404024, Note_on_c, 6, 79, 0
8, 404024, Note_on_c, 6, 79, 105
8, 404144, Note_on_c, 6, 79, 0
8, 404144, Note_on_c, 6, 72, 105
8, 404264, Note_on_c, 6, 76, 105
8, 404313, Note_on_c, 6, 72, 0
8, 404363, Note_on_c, 6, 76, 0
8, 404384, Note_on_c, 6, 79, 105
8, 404428, Note_on_c, 6, 79, 0
8, 404504, Note_on_c, 6, 79, 105
8, 404548, Note_on_c, 6, 79, 0
8, 404624, Note_on_c, 6, 79, 105
8, 404744, Note_on_c, 6, 79, 0
8, 404744, Note_on_c, 6, 79, 105
8, 404864, Note_on_c, 6, 79, 0
8, 404864, Note_on_c, 6, 79, 105
8, 404984, Note_on_c, 6, 79, 0
8, 404984, Note_on_c, 6, 79, 105
8, 405104, Note_on_c, 6, 79, 0
8, 405104, Note_on_c, 6, 79, 105
8, 405398, Note_on_c, 6, 79, 0
8, 405559, Note_on_c, 6, 71, 105
8, 406073, Note_on_c, 6, 71, 0
8, 407024, Note_on_c, 6, 60, 70
8, 407264, Note_on_c, 6, 55, 70
8, 407324, Note_on_c, 6, 60, 0
8, 407504, Note_on_c, 6, 60, 70
8, 407564, Note_on_c, 6, 55, 0
8, 407744, Note_on_c, 6, 55, 70
8, 407804, Note_on_c, 6, 60, 0
8, 407984, Note_on_c, 6, 60, 70
8, 408044, Note_on_c, 6, 55, 0
8, 408224, Note_on_c, 6, 55, 70
8, 408284, Note_on_c, 6, 60, 0
8, 408464, Note_on_c, 6, 60, 70
8, 408524, Note_on_c, 6, 55, 0
8, 408704, Note_on_c, 6, 55, 70
8, 408764, Note_on_c, 6, 60, 0
8, 408893, Note_on_c, 6, 55, 0
8, 408944, Note_on_c, 6, 62, 70
8, 409184, Note_on_c, 6, 55, 70
8, 409244, Note_on_c, 6, 62, 0
8, 409424, Note_on_c, 6, 62, 70
8, 409484, Note_on_c, 6, 55, 0
8, 409664, Note_on_c, 6, 55, 70
8, 409724, Note_on_c, 6, 62, 0
8, 409904, Note_on_c, 6, 62, 70
8, 409964, Note_on_c, 6, 55, 0
8, 410144, Note_on_c, 6, 55, 70
8, 410204, Note_on_c, 6, 62, 0
8, 410384, Note_on_c, 6, 62, 70
8, 410444, Note_on_c, 6, 55, 0
8, 410624, Note_on_c, 6, 55, 70
8, 410684, Note_on_c, 6, 62, 0
8, 410798, Note_on_c, 6, 55, 0
8, 410864, Note_on_c, 6, 60, 70
8, 411344, Note_on_c, 6, 60, 0
8, 413744, Note_on_c, 6, 59, 70
8, 413744, Note_on_c, 6, 62, 70
8, 414704, Note_on_c, 6, 62, 0
8, 414704, Note_on_c, 6, 59, 0
8, 414704, Note_on_c, 6, 60, 70
8, 415184, Note_on_c, 6, 60, 0
8, 417584, Note_on_c, 6, 59, 70
8, 417584, Note_on_c, 6, 62, 70
8, 418544, Note_on_c, 6, 62, 0
8, 418544, Note_on_c, 6, 60, 70
8, 418608, Note_on_c, 6, 59, 0
8, 419024, Note_on_c, 6, 60, 0
8, 425024, Note_on_c, 6, 72, 67
8, 425120, Note_on_c, 6, 72, 0
8, 425264, Note_on_c, 6, 72, 69
8, 425360, Note_on_c, 6, 72, 0
8, 425504, Note_on_c, 6, 76, 72
8, 425600, Note_on_c, 6, 76, 0
8, 425744, Note_on_c, 6, 72, 74
8, 425840, Note_on_c, 6, 72, 0
8, 425984, Note_on_c, 6, 67, 77
8, 426080, Note_on_c, 6, 67, 0
8, 426224, Note_on_c, 6, 72, 78
8, 426704, Note_on_c, 6, 72, 0
8, 426944, Note_on_c, 6, 60, 68
8, 427040, Note_on_c, 6, 60, 0
8, 427184, Note_on_c, 6, 60, 70
8, 427280, Note_on_c, 6, 60, 0
8, 427424, Note_on_c, 6, 64, 72
8, 427520, Note_on_c, 6, 64, 0
8, 427664, Note_on_c, 6, 60, 74
8, 427760, Note_on_c, 6, 60, 0
8, 427904, Note_on_c, 6, 55, 76
8, 428000, Note_on_c, 6, 55, 0
8, 428144, Note_on_c, 6, 60, 78
8, 428624, Note_on_c, 6, 60, 0
8, 428624, Note_on_c, 6, 62, 70
8, 428624, Note_on_c, 6, 72, 70
8, 429104, Note_on_c, 6, 72, 0
8, 429104, Note_on_c, 6, 62, 0
8, 429584, Note_on_c, 6, 62, 70
8, 429584, Note_on_c, 6, 71, 70
8, 430064, Note_on_c, 6, 71, 0
8, 430064, Note_on_c, 6, 62, 0
8, 430544, Note_on_c, 6, 64, 70
8, 430544, Note_on_c, 6, 72, 70
8, 431024, Note_on_c, 6, 72, 0
8, 431024, Note_on_c, 6, 64, 0
8, 431504, Note_on_c, 6, 64, 70
8, 431504, Note_on_c, 6, 72, 70
8, 431984, Note_on_c, 6, 72, 0
8, 431984, Note_on_c, 6, 64, 0
8, 431984, Note_on_c, 6, 69, 70
8, 432944, Note_on_c, 6, 69, 0
8, 432944, Note_on_c, 6, 67, 74
8, 433040, Note_on_c, 6, 67, 0
8, 433184, Note_on_c, 6, 65, 72
8, 433280, Note_on_c, 6, 65, 0
8, 433424, Note_on_c, 6, 64, 71
8, 433520, Note_on_c, 6, 64, 0
8, 433664, Note_on_c, 6, 62, 69
8, 433760, Note_on_c, 6, 62, 0
8, 433904, Note_on_c, 6, 60, 67
8, 434000, Note_on_c, 6, 60, 0
8, 434144, Note_on_c, 6, 62, 68
8, 434240, Note_on_c, 6, 62, 0
8, 434384, Note_on_c, 6, 64, 71
8, 434480, Note_on_c, 6, 64, 0
8, 434624, Note_on_c, 6, 65, 75
8, 434720, Note_on_c, 6, 65, 0
8, 434864, Note_on_c, 6, 67, 78
8, 435344, Note_on_c, 6, 67, 0
8, 439664, Note_on_c, 6, 65, 78
8, 440624, Note_on_c, 6, 65, 0
8, 440624, Note_on_c, 6, 64, 79
8, 440720, Note_on_c, 6, 64, 0
8, 440864, Note_on_c, 6, 62, 77
8, 440960, Note_on_c, 6, 62, 0
8, 441104, Note_on_c, 6, 60, 75
8, 441200, Note_on_c, 6, 60, 0
8, 441344, Note_on_c, 6, 59, 73
8, 441440, Note_on_c, 6, 59, 0
8, 449263, Control_c, 6, 0, 0
8, 449264, Program_c, 6, 45
8, 450224, Note_on_c, 6, 72, 70
8, 450464, Note_on_c, 6, 72, 0
8, 450704, Note_on_c, 6, 71, 70
8, 450944, Note_on_c, 6, 71, 0
8, 451184, Note_on_c, 6, 72, 70
8, 451664, Note_on_c, 6, 72, 0
8, 452144, Note_on_c, 6, 72, 70
8, 452384, Note_on_c, 6, 72, 0
8, 452384, Note_on_c, 6, 72, 70
8, 452624, Note_on_c, 6, 72, 0
8, 452624, Note_on_c, 6, 71, 70
8, 452864, Note_on_c, 6, 71, 0
8, 452864, Note_on_c, 6, 71, 70
8, 453104, Note_on_c, 6, 71, 0
8, 453104, Note_on_c, 6, 72, 70
8, 453584, Note_on_c, 6, 72, 0
8, 454064, Note_on_c, 6, 72, 70
8, 454304, Note_on_c, 6, 72, 0
8, 454544, Note_on_c, 6, 71, 70
8, 454784, Note_on_c, 6, 71, 0
8, 455024, Note_on_c, 6, 72, 70
8, 455264, Note_on_c, 6, 72, 0
8, 455504, Note_on_c, 6, 67, 70
8, 455744, Note_on_c, 6, 67, 0
8, 455984, Note_on_c, 6, 72, 70
8, 456224, Note_on_c, 6, 72, 0
8, 456464, Note_on_c, 6, 67, 70
8, 456704, Note_on_c, 6, 67, 0
8, 456944, Note_on_c, 6, 67, 70
8, 457424, Note_on_c, 6, 67, 0
8, 457904, Note_on_c, 6, 62, 70
8, 458384, Note_on_c, 6, 62, 0
8, 458864, Note_on_c, 6, 64, 70
8, 458864, Note_on_c, 6, 72, 70
8, 459104, Note_on_c, 6, 72, 0
8, 459104, Note_on_c, 6, 64, 0
8, 459344, Note_on_c, 6, 72, 70
8, 459584, Note_on_c, 6, 72, 0
8, 459824, Note_on_c, 6, 71, 70
8, 460064, Note_on_c, 6, 71, 0
8, 460304, Note_on_c, 6, 71, 70
8, 460544, Note_on_c, 6, 71, 0
8, 460784, Control_c, 6, 0, 0
8, 460784, Control_c, 6, 0, 0
8, 460784, Control_c, 6, 0, 0
8, 460784, Control_c, 6, 0, 0
8, 460784, Control_c, 6, 0, 0
8, 460784, Control_c, 6, 0, 0
8, 460784, Control_c, 6, 0, 0
8, 460784, Control_c, 6, 0, 0
8, 460784, Control_c, 6, 0, 0
8, 460784, Control_c, 6, 0, 0
8, 460784, Control_c, 6, 0, 0
8, 460784, Control_c, 6, 0, 0
8, 460784, Control_c, 6, 0, 0
8, 460784, Control_c, 6, 0, 0
8, 460784, Control_c, 6, 0, 0
8, 460784, Program_c, 6, 48
8, 462944, Note_on_c, 6, 72, 70
8, 463112, Note_on_c, 6, 72, 0
8, 463184, Note_on_c, 6, 72, 70
8, 463352, Note_on_c, 6, 72, 0
8, 463424, Note_on_c, 6, 72, 70
8, 463592, Note_on_c, 6, 72, 0
8, 463664, Note_on_c, 6, 72, 70
8, 463832, Note_on_c, 6, 72, 0
8, 463904, Note_on_c, 6, 72, 70
8, 464072, Note_on_c, 6, 72, 0
8, 464144, Note_on_c, 6, 72, 70
8, 464312, Note_on_c, 6, 72, 0
8, 464384, Note_on_c, 6, 72, 70
8, 464552, Note_on_c, 6, 72, 0
8, 464624, Note_on_c, 6, 71, 69
8, 464744, Note_on_c, 6, 71, 0
8, 464744, Note_on_c, 6, 71, 71
8, 464864, Note_on_c, 6, 71, 0
8, 464864, Note_on_c, 6, 71, 73
8, 464984, Note_on_c, 6, 71, 0
8, 464984, Note_on_c, 6, 71, 75
8, 465104, Note_on_c, 6, 71, 0
8, 465104, Note_on_c, 6, 71, 77
8, 465224, Note_on_c, 6, 71, 0
8, 465224, Note_on_c, 6, 71, 80
8, 465344, Note_on_c, 6, 71, 0
8, 465344, Note_on_c, 6, 71, 82
8, 465464, Note_on_c, 6, 71, 0
8, 465464, Note_on_c, 6, 71, 84
8, 465584, Note_on_c, 6, 71, 0
8, 465584, Note_on_c, 6, 74, 86
8, 465704, Note_on_c, 6, 74, 0
8, 465704, Note_on_c, 6, 74, 88
8, 465824, Note_on_c, 6, 74, 0
8, 465824, Note_on_c, 6, 74, 90
8, 465944, Note_on_c, 6, 74, 0
8, 465944, Note_on_c, 6, 74, 92
8, 466064, Note_on_c, 6, 74, 0
8, 466064, Note_on_c, 6, 77, 94
8, 466184, Note_on_c, 6, 77, 0
8, 466184, Note_on_c, 6, 77, 96
8, 466304, Note_on_c, 6, 77, 0
8, 466304, Note_on_c, 6, 77, 98
8, 466424, Note_on_c, 6, 77, 0
8, 466424, Note_on_c, 6, 77, 100
8, 466544, Note_on_c, 6, 77, 0
8, 466544, Note_on_c, 6, 72, 102
8, 467228, Note_on_c, 6, 72, 0
8, 467264, Note_on_c, 6, 67, 105
8, 467492, Note_on_c, 6, 67, 0
8, 467504, Note_on_c, 6, 64, 105
8, 467732, Note_on_c, 6, 64, 0
8, 467744, Note_on_c, 6, 60, 105
8, 467972, Note_on_c, 6, 60, 0
8, 467984, Note_on_c, 6, 64, 105
8, 468212, Note_on_c, 6, 64, 0
8, 468224, Note_on_c, 6, 67, 105
8, 468452, Note_on_c, 6, 67, 0
8, 468464, Note_on_c, 6, 72, 105
8, 469148, Note_on_c, 6, 72, 0
8, 469184, Note_on_c, 6, 67, 105
8, 469412, Note_on_c, 6, 67, 0
8, 469424, Note_on_c, 6, 64, 105
8, 469652, Note_on_c, 6, 64, 0
8, 469664, Note_on_c, 6, 60, 105
8, 469892, Note_on_c, 6, 60, 0
8, 469904, Note_on_c, 6, 64, 105
8, 470132, Note_on_c, 6, 64, 0
8, 470144, Note_on_c, 6, 67, 105
8, 470372, Note_on_c, 6, 67, 0
8, 470384, Note_on_c, 6, 72, 105
8, 470384, Note_on_c, 6, 76, 105
8, 471104, Note_on_c, 6, 76, 0
8, 471104, Note_on_c, 6, 72, 0
8, 471104, Note_on_c, 6, 74, 105
8, 471344, Note_on_c, 6, 74, 0
8, 471344, Note_on_c, 6, 64, 105
8, 471344, Note_on_c, 6, 72, 105
8, 472064, Note_on_c, 6, 72, 0
8, 472064, Note_on_c, 6, 64, 0
8, 472064, Note_on_c, 6, 71, 105
8, 472304, Note_on_c, 6, 71, 0
8, 472304, Note_on_c, 6, 65, 105
8, 472304, Note_on_c, 6, 69, 105
8, 473024, Note_on_c, 6, 69, 0
8, 473024, Note_on_c, 6, 65, 0
8, 473024, Note_on_c, 6, 67, 105
8, 473264, Note_on_c, 6, 67, 0
8, 473264, Note_on_c, 6, 57, 105
8, 473264, Note_on_c, 6, 65, 105
8, 473984, Note_on_c, 6, 65, 0
8, 473984, Note_on_c, 6, 57, 0
8, 473984, Note_on_c, 6, 64, 105
8, 474224, Note_on_c, 6, 64, 0
8, 474224, Note_on_c, 6, 69, 105
8, 474464, Note_on_c, 6, 69, 0
8, 476144, Note_on_c, 6, 71, 109
8, 476264, Note_on_c, 6, 74, 105
8, 476288, Note_on_c, 6, 71, 0
8, 476353, Note_on_c, 6, 74, 0
8, 476384, Note_on_c, 6, 79, 105
8, 476428, Note_on_c, 6, 79, 0
8, 476504, Note_on_c, 6, 79, 105
8, 476548, Note_on_c, 6, 79, 0
8, 476624, Note_on_c, 6, 79, 105
8, 476744, Note_on_c, 6, 79, 0
8, 476744, Note_on_c, 6, 79, 105
8, 476864, Note_on_c, 6, 79, 0
8, 476864, Note_on_c, 6, 79, 105
8, 476984, Note_on_c, 6, 79, 0
8, 476984, Note_on_c, 6, 79, 105
8, 477104, Note_on_c, 6, 79, 0
8, 477104, Note_on_c, 6, 72, 105
8, 477224, Note_on_c, 6, 76, 105
8, 477263, Note_on_c, 6, 72, 0
8, 477323, Note_on_c, 6, 76, 0
8, 477344, Note_on_c, 6, 79, 105
8, 477388, Note_on_c, 6, 79, 0
8, 477464, Note_on_c, 6, 79, 105
8, 477508, Note_on_c, 6, 79, 0
8, 477584, Note_on_c, 6, 79, 105
8, 477704, Note_on_c, 6, 79, 0
8, 477704, Note_on_c, 6, 79, 105
8, 477824, Note_on_c, 6, 79, 0
8, 477824, Note_on_c, 6, 79, 105
8, 477944, Note_on_c, 6, 79, 0
8, 477944, Note_on_c, 6, 79, 105
8, 478064, Note_on_c, 6, 79, 0
8, 478064, Note_on_c, 6, 71, 105
8, 478184, Note_on_c, 6, 74, 105
8, 478228, Note_on_c, 6, 71, 0
8, 478283, Note_on_c, 6, 74, 0
8, 478304, Note_on_c, 6, 79, 105
8, 478348, Note_on_c, 6, 79, 0
8, 478424, Note_on_c, 6, 79, 105
8, 478468, Note_on_c, 6, 79, 0
8, 478544, Note_on_c, 6, 79, 105
8, 478664, Note_on_c, 6, 79, 0
8, 478664, Note_on_c, 6, 79, 105
8, 478784, Note_on_c, 6, 79, 0
8, 478784, Note_on_c, 6, 79, 105
8, 478904, Note_on_c, 6, 79, 0
8, 478904, Note_on_c, 6, 79, 105
8, 479024, Note_on_c, 6, 79, 0
8, 479024, Note_on_c, 6, 72, 105
8, 479144, Note_on_c, 6, 76, 105
8, 479193, Note_on_c, 6, 72, 0
8, 479233, Note_on_c, 6, 76, 0
8, 479264, Note_on_c, 6, 79, 105
8, 479308, Note_on_c, 6, 79, 0
8, 479384, Note_on_c, 6, 79, 105
8, 479428, Note_on_c, 6, 79, 0
8, 479504, Note_on_c, 6, 79, 105
8, 479624, Note_on_c, 6, 79, 0
8, 479624, Note_on_c, 6, 79, 105
8, 479744, Note_on_c, 6, 79, 0
8, 479744, Note_on_c, 6, 79, 105
8, 479864, Note_on_c, 6, 79, 0
8, 479864, Note_on_c, 6, 79, 105
8, 479984, Note_on_c, 6, 79, 0
8, 481904, Note_on_c, 6, 64, 105
8, 482384, Note_on_c, 6, 64, 0
8, 482384, Note_on_c, 6, 81, 105
8, 482480, Note_on_c, 6, 81, 0
8, 482864, Note_on_c, 6, 79, 105
8, 482960, Note_on_c, 6, 79, 0
8, 483344, Note_on_c, 6, 77, 105
8, 483440, Note_on_c, 6, 77, 0
8, 483824, Note_on_c, 6, 76, 105
8, 484544, Note_on_c, 6, 76, 0
8, 484544, Note_on_c, 6, 74, 105
8, 484784, Note_on_c, 6, 74, 0
8, 484784, Note_on_c, 6, 72, 105
8, 485264, Note_on_c, 6, 72, 0
8, 486224, Note_on_c, 6, 72, 70
8, 486320, Note_on_c, 6, 72, 0
8, 486704, Note_on_c, 6, 71, 70
8, 486800, Note_on_c, 6, 71, 0
8, 487184, Note_on_c, 6, 69, 70
8, 487280, Note_on_c, 6, 69, 0
8, 487664, Note_on_c, 6, 67, 70
8, 488384, Note_on_c, 6, 67, 0
8, 488384, Note_on_c, 6, 65, 70
8, 488624, Note_on_c, 6, 65, 0
8, 488624, Note_on_c, 6, 64, 70
8, 489104, Note_on_c, 6, 64, 0
8, 489584, Note_on_c, 6, 67, 105
8, 489704, Note_on_c, 6, 67, 0
8, 489704, Note_on_c, 6, 62, 105
8, 489824, Note_on_c, 6, 62, 0
8, 489824, Note_on_c, 6, 59, 105
8, 489944, Note_on_c, 6, 59, 0
8, 489944, Note_on_c, 6, 55, 105
8, 490064, Note_on_c, 6, 55, 0
8, 490064, Note_on_c, 6, 67, 105
8, 490184, Note_on_c, 6, 67, 0
8, 490184, Note_on_c, 6, 67, 105
8, 490304, Note_on_c, 6, 67, 0
8, 490304, Note_on_c, 6, 67, 105
8, 490424, Note_on_c, 6, 67, 0
8, 490424, Note_on_c, 6, 67, 105
8, 490544, Note_on_c, 6, 67, 0
8, 490544, Note_on_c, 6, 67, 105
8, 490664, Note_on_c, 6, 67, 0
8, 490664, Note_on_c, 6, 62, 105
8, 490784, Note_on_c, 6, 62, 0
8, 490784, Note_on_c, 6, 59, 105
8, 490904, Note_on_c, 6, 59, 0
8, 490904, Note_on_c, 6, 55, 105
8, 491024, Note_on_c, 6, 55, 0
8, 491024, Note_on_c, 6, 67, 105
8, 491144, Note_on_c, 6, 67, 0
8, 491144, Note_on_c, 6, 67, 105
8, 491264, Note_on_c, 6, 67, 0
8, 491264, Note_on_c, 6, 67, 105
8, 491384, Note_on_c, 6, 67, 0
8, 491384, Note_on_c, 6, 67, 105
8, 491504, Note_on_c, 6, 67, 0
8, 491504, Note_on_c, 6, 67, 105
8, 491624, Note_on_c, 6, 67, 0
8, 491624, Note_on_c, 6, 64, 105
8, 491744, Note_on_c, 6, 64, 0
8, 491744, Note_on_c, 6, 60, 105
8, 491864, Note_on_c, 6, 60, 0
8, 491864, Note_on_c, 6, 55, 105
8, 491984, Note_on_c, 6, 55, 0
8, 491984, Note_on_c, 6, 72, 105
8, 492104, Note_on_c, 6, 72, 0
8, 492104, Note_on_c, 6, 72, 105
8, 492224, Note_on_c, 6, 72, 0
8, 492224, Note_on_c, 6, 72, 105
8, 492344, Note_on_c, 6, 72, 0
8, 492344, Note_on_c, 6, 72, 105
8, 492464, Note_on_c, 6, 72, 0
8, 492464, Note_on_c, 6, 72, 105
8, 492584, Note_on_c, 6, 72, 0
8, 492584, Note_on_c, 6, 69, 105
8, 492704, Note_on_c, 6, 69, 0
8, 492704, Note_on_c, 6, 64, 105
8, 492824, Note_on_c, 6, 64, 0
8, 492824, Note_on_c, 6, 60, 105
8, 492944, Note_on_c, 6, 60, 0
8, 492944, Note_on_c, 6, 72, 105
8, 493064, Note_on_c, 6, 72, 0
8, 493064, Note_on_c, 6, 72, 105
8, 493184, Note_on_c, 6, 72, 0
8, 493184, Note_on_c, 6, 72, 105
8, 493304, Note_on_c, 6, 72, 0
8, 493304, Note_on_c, 6, 72, 105
8, 493424, Note_on_c, 6, 72, 0
8, 493424, Note_on_c, 6, 69, 105
8, 493904, Note_on_c, 6, 69, 0
8, 493904, Note_on_c, 6, 71, 105
8, 494024, Note_on_c, 6, 71, 0
8, 494024, Note_on_c, 6, 69, 105
8, 494144, Note_on_c, 6, 69, 0
8, 494144, Note_on_c, 6, 67, 105
8, 494264, Note_on_c, 6, 67, 0
8, 494264, Note_on_c, 6, 65, 105
8, 494384, Note_on_c, 6, 65, 0
8, 494384, Note_on_c, 6, 64, 105
8, 494864, Note_on_c, 6, 64, 0
8, 494864, Note_on_c, 6, 62, 105
8, 495344, Note_on_c, 6, 62, 0
8, 495344, Note_on_c, 6, 60, 105
8, 495464, Note_on_c, 6, 60, 0
8, 495464, Note_on_c, 6, 62, 105
8, 495584, Note_on_c, 6, 62, 0
8, 495584, Note_on_c, 6, 64, 105
8, 495704, Note_on_c, 6, 64, 0
8, 495704, Note_on_c, 6, 65, 105
8, 495824, Note_on_c, 6, 65, 0
8, 495824, Note_on_c, 6, 67, 105
8, 495944, Note_on_c, 6, 67, 0
8, 495944, Note_on_c, 6, 69, 105
8, 496064, Note_on_c, 6, 69, 0
8, 496064, Note_on_c, 6, 71, 105
8, 496184, Note_on_c, 6, 71, 0
8, 496184, Note_on_c, 6, 72, 105
8, 496304, Note_on_c, 6, 72, 0
8, 496304, Note_on_c, 6, 57, 105
8, 496424, Note_on_c, 6, 57, 0
8, 496424, Note_on_c, 6, 59, 105
8, 496544, Note_on_c, 6, 59, 0
8, 496544, Note_on_c, 6, 60, 105
8, 496664, Note_on_c, 6, 60, 0
8, 496664, Note_on_c, 6, 62, 105
8, 496784, Note_on_c, 6, 62, 0
8, 496784, Note_on_c, 6, 64, 105
8, 496904, Note_on_c, 6, 64, 0
8, 496904, Note_on_c, 6, 65, 105
8, 497024, Note_on_c, 6, 65, 0
8, 497024, Note_on_c, 6, 67, 105
8, 497144, Note_on_c, 6, 67, 0
8, 497144, Note_on_c, 6, 69, 105
8, 497264, Note_on_c, 6, 69, 0
8, 497264, Note_on_c, 6, 55, 105
8, 497384, Note_on_c, 6, 55, 0
8, 497384, Note_on_c, 6, 57, 105
8, 497504, Note_on_c, 6, 57, 0
8, 497504, Note_on_c, 6, 59, 105
8, 497624, Note_on_c, 6, 59, 0
8, 497624, Note_on_c, 6, 60, 105
8, 497744, Note_on_c, 6, 60, 0
8, 497744, Note_on_c, 6, 62, 105
8, 497864, Note_on_c, 6, 62, 0
8, 497864, Note_on_c, 6, 64, 105
8, 497984, Note_on_c, 6, 64, 0
8, 497984, Note_on_c, 6, 65, 105
8, 498104, Note_on_c, 6, 65, 0
8, 498104, Note_on_c, 6, 67, 105
8, 498224, Note_on_c, 6, 67, 0
8, 498224, Note_on_c, 6, 67, 105
8, 498464, Note_on_c, 6, 65, 105
8, 498523, Note_on_c, 6, 67, 0
8, 498633, Note_on_c, 6, 65, 0
8, 498704, Note_on_c, 6, 64, 105
8, 498800, Note_on_c, 6, 64, 0
8, 498944, Note_on_c, 6, 62, 105
8, 499040, Note_on_c, 6, 62, 0
8, 499184, Note_on_c, 6, 60, 105
8, 499664, Note_on_c, 6, 60, 0
8, 499904, Note_on_c, 6, 67, 106
8, 499984, Note_on_c, 6, 69, 107
8, 500010, Note_on_c, 6, 67, 0
8, 500060, Note_on_c, 6, 71, 107
8, 500085, Note_on_c, 6, 69, 0
8, 500144, Note_on_c, 6, 72, 109
8, 500172, Note_on_c, 6, 71, 0
8, 500624, Note_on_c, 6, 72, 0
8, 500864, Note_on_c, 6, 67, 105
8, 500944, Note_on_c, 6, 69, 109
8, 500970, Note_on_c, 6, 67, 0
8, 501020, Note_on_c, 6, 71, 110
8, 501045, Note_on_c, 6, 69, 0
8, 501104, Note_on_c, 6, 72, 114
8, 501132, Note_on_c, 6, 71, 0
8, 501584, Note_on_c, 6, 72, 0
8, 501824, Note_on_c, 6, 67, 107
8, 501904, Note_on_c, 6, 69, 111
8, 501930, Note_on_c, 6, 67, 0
8, 501980, Note_on_c, 6, 71, 113
8, 502005, Note_on_c, 6, 69, 0
8, 502064, Note_on_c, 6, 72, 114
8, 502092, Note_on_c, 6, 71, 0
8, 502304, Note_on_c, 6, 72, 0
8, 502304, Note_on_c, 6, 67, 105
8, 502384, Note_on_c, 6, 69, 108
8, 502410, Note_on_c, 6, 67, 0
8, 502460, Note_on_c, 6, 71, 111
8, 502485, Note_on_c, 6, 69, 0
8, 502544, Note_on_c, 6, 72, 113
8, 502572, Note_on_c, 6, 71, 0
8, 502784, Note_on_c, 6, 72, 0
8, 502784, Note_on_c, 6, 67, 107
8, 502864, Note_on_c, 6, 69, 109
8, 502890, Note_on_c, 6, 67, 0
8, 502940, Note_on_c, 6, 71, 111
8, 502965, Note_on_c, 6, 69, 0
8, 503024, Note_on_c, 6, 72, 114
8, 503052, Note_on_c, 6, 71, 0
8, 503708, Note_on_c, 6, 72, 0
8, 503744, Note_on_c, 6, 67, 105
8, 503972, Note_on_c, 6, 67, 0
8, 503984, Note_on_c, 6, 64, 105
8, 504212, Note_on_c, 6, 64, 0
8, 504224, Note_on_c, 6, 60, 105
8, 504452, Note_on_c, 6, 60, 0
8, 504464, Note_on_c, 6, 64, 105
8, 504692, Note_on_c, 6, 64, 0
8, 504704, Note_on_c, 6, 67, 105
8, 504932, Note_on_c, 6, 67, 0
8, 504944, Note_on_c, 6, 72, 105
8, 505628, Note_on_c, 6, 72, 0
8, 505664, Note_on_c, 6, 67, 105
8, 505892, Note_on_c, 6, 67, 0
8, 505904, Note_on_c, 6, 64, 105
8, 506132, Note_on_c, 6, 64, 0
8, 506144, Note_on_c, 6, 60, 105
8, 506372, Note_on_c, 6, 60, 0
8, 506384, Note_on_c, 6, 64, 105
8, 506612, Note_on_c, 6, 64, 0
8, 506624, Note_on_c, 6, 67, 105
8, 506852, Note_on_c, 6, 67, 0
8, 506864, Note_on_c, 6, 72, 105
8, 507344, Note_on_c, 6, 72, 0
8, 507344, Note_on_c, 6, 67, 105
8, 507344, Note_on_c, 6, 72, 105
8, 507344, Note_on_c, 6, 76, 105
8, 507824, Note_on_c, 6, 76, 0
8, 507824, Note_on_c, 6, 72, 0
8, 507824, Note_on_c, 6, 67, 0
8, 507824, Note_on_c, 6, 67, 105
8, 507824, Note_on_c, 6, 72, 105
8, 507824, Note_on_c, 6, 76, 105
8, 508304, Note_on_c, 6, 76, 0
8, 508304, Note_on_c, 6, 72, 0
8, 508304, Note_on_c, 6, 67, 0
8, 508304, Note_on_c, 6, 67, 105
8, 508304, Note_on_c, 6, 72, 105
8, 508304, Note_on_c, 6, 76, 105
8, 508784, Note_on_c, 6, 76, 0
8, 508784, Note_on_c, 6, 72, 0
8, 508784, Note_on_c, 6, 67, 0
8, 508784, Note_on_c, 6, 67, 105
8, 508784, Note_on_c, 6, 72, 105
8, 508784, Note_on_c, 6, 76, 105
8, 509264, Note_on_c, 6, 76, 0
8, 509264, Note_on_c, 6, 72, 0
8, 509264, Note_on_c, 6, 67, 0
8, 510720, System_exclusive, 0A, 41, 10, 42, 12, 40, 00, 7F, 00, 41, F7
8, 510720, End_track
9, 0, Start_track
9, 0, Title_t, "Viola"
9, 0, Control_c, 7, 0, 0
9, 0, Control_c, 7, 7, 100
9, 0, Control_c, 7, 10, 45
9, 0, Control_c, 7, 91, 76
9, 0, Control_c, 7, 93, 67
9, 1, Control_c, 7, 32, 1
9, 2, Program_c, 7, 48
9, 1908, Note_on_c, 7, 60, 105
9, 2592, Note_on_c, 7, 60, 0
9, 2628, Note_on_c, 7, 55, 105
9, 2856, Note_on_c, 7, 55, 0
9, 2868, Note_on_c, 7, 52, 105
9, 3096, Note_on_c, 7, 52, 0
9, 3108, Note_on_c, 7, 48, 105
9, 3336, Note_on_c, 7, 48, 0
9, 3348, Note_on_c, 7, 52, 105
9, 3576, Note_on_c, 7, 52, 0
9, 3588, Note_on_c, 7, 55, 105
9, 3816, Note_on_c, 7, 55, 0
9, 3828, Note_on_c, 7, 60, 105
9, 4512, Note_on_c, 7, 60, 0
9, 4548, Note_on_c, 7, 55, 105
9, 4776, Note_on_c, 7, 55, 0
9, 4788, Note_on_c, 7, 52, 105
9, 5016, Note_on_c, 7, 52, 0
9, 5028, Note_on_c, 7, 48, 105
9, 5256, Note_on_c, 7, 48, 0
9, 5268, Note_on_c, 7, 52, 105
9, 5496, Note_on_c, 7, 52, 0
9, 5508, Note_on_c, 7, 55, 105
9, 5736, Note_on_c, 7, 55, 0
9, 5748, Note_on_c, 7, 60, 105
9, 6204, Note_on_c, 7, 60, 0
9, 13908, Note_on_c, 7, 69, 105
9, 13908, Note_on_c, 7, 72, 105
9, 14004, Note_on_c, 7, 72, 0
9, 14004, Note_on_c, 7, 69, 0
9, 14388, Note_on_c, 7, 67, 105
9, 14388, Note_on_c, 7, 71, 105
9, 14484, Note_on_c, 7, 71, 0
9, 14484, Note_on_c, 7, 67, 0
9, 14868, Note_on_c, 7, 65, 105
9, 14868, Note_on_c, 7, 69, 105
9, 14964, Note_on_c, 7, 69, 0
9, 14964, Note_on_c, 7, 65, 0
9, 15348, Note_on_c, 7, 64, 105
9, 15348, Note_on_c, 7, 67, 105
9, 16068, Note_on_c, 7, 67, 0
9, 16068, Note_on_c, 7, 64, 0
9, 16068, Note_on_c, 7, 62, 105
9, 16068, Note_on_c, 7, 65, 105
9, 16308, Note_on_c, 7, 65, 0
9, 16308, Note_on_c, 7, 62, 0
9, 16308, Note_on_c, 7, 60, 105
9, 16308, Note_on_c, 7, 64, 105
9, 16737, Note_on_c, 7, 60, 0
9, 16757, Note_on_c, 7, 64, 0
9, 16788, Note_on_c, 7, 60, 111
9, 16788, Note_on_c, 7, 64, 111
9, 16908, Note_on_c, 7, 62, 112
9, 16908, Note_on_c, 7, 65, 112
9, 16948, Note_on_c, 7, 64, 0
9, 16948, Note_on_c, 7, 60, 0
9, 17028, Note_on_c, 7, 64, 110
9, 17028, Note_on_c, 7, 67, 110
9, 17068, Note_on_c, 7, 62, 0
9, 17068, Note_on_c, 7, 65, 0
9, 17133, Note_on_c, 7, 64, 0
9, 17148, Note_on_c, 7, 60, 107
9, 17148, Note_on_c, 7, 64, 107
9, 17188, Note_on_c, 7, 67, 0
9, 17268, Note_on_c, 7, 64, 0
9, 17268, Note_on_c, 7, 60, 0
9, 17268, Note_on_c, 7, 65, 103
9, 17268, Note_on_c, 7, 69, 103
9, 17748, Note_on_c, 7, 69, 0
9, 17748, Note_on_c, 7, 65, 0
9, 17748, Note_on_c, 7, 60, 78
9, 17748, Note_on_c, 7, 69, 78
9, 17844, Note_on_c, 7, 69, 0
9, 17844, Note_on_c, 7, 60, 0
9, 18228, Note_on_c, 7, 59, 70
9, 18228, Note_on_c, 7, 67, 70
9, 18324, Note_on_c, 7, 67, 0
9, 18324, Note_on_c, 7, 59, 0
9, 18708, Note_on_c, 7, 57, 70
9, 18708, Note_on_c, 7, 65, 70
9, 18804, Note_on_c, 7, 65, 0
9, 18804, Note_on_c, 7, 57, 0
9, 19188, Note_on_c, 7, 55, 70
9, 19188, Note_on_c, 7, 64, 70
9, 19908, Note_on_c, 7, 64, 0
9, 19908, Note_on_c, 7, 55, 0
9, 19908, Note_on_c, 7, 53, 70
9, 19908, Note_on_c, 7, 62, 70
9, 20148, Note_on_c, 7, 62, 0
9, 20148, Note_on_c, 7, 53, 0
9, 20148, Note_on_c, 7, 52, 70
9, 20148, Note_on_c, 7, 60, 70
9, 20628, Note_on_c, 7, 60, 0
9, 20628, Note_on_c, 7, 52, 0
9, 20628, Note_on_c, 7, 60, 105
9, 20748, Note_on_c, 7, 60, 0
9, 20748, Note_on_c, 7, 59, 105
9, 20748, Note_on_c, 7, 62, 105
9, 20868, Note_on_c, 7, 62, 0
9, 20868, Note_on_c, 7, 59, 0
9, 20868, Note_on_c, 7, 60, 105
9, 20868, Note_on_c, 7, 64, 105
9, 20988, Note_on_c, 7, 64, 0
9, 20988, Note_on_c, 7, 60, 0
9, 20988, Note_on_c, 7, 55, 105
9, 20988, Note_on_c, 7, 60, 105
9, 21108, Note_on_c, 7, 60, 0
9, 21108, Note_on_c, 7, 55, 0
9, 21108, Note_on_c, 7, 59, 105
9, 21348, Note_on_c, 7, 59, 0
9, 21348, Note_on_c, 7, 74, 105
9, 21588, Note_on_c, 7, 74, 0
9, 21588, Note_on_c, 7, 71, 105
9, 21828, Note_on_c, 7, 71, 0
9, 21828, Note_on_c, 7, 67, 105
9, 22068, Note_on_c, 7, 67, 0
9, 22068, Note_on_c, 7, 65, 105
9, 22308, Note_on_c, 7, 65, 0
9, 22308, Note_on_c, 7, 62, 105
9, 22548, Note_on_c, 7, 62, 0
9, 22548, Note_on_c, 7, 59, 105
9, 22788, Note_on_c, 7, 59, 0
9, 22788, Note_on_c, 7, 55, 105
9, 23028, Note_on_c, 7, 55, 0
9, 23028, Note_on_c, 7, 60, 105
9, 23268, Note_on_c, 7, 60, 0
9, 23268, Note_on_c, 7, 76, 105
9, 23508, Note_on_c, 7, 76, 0
9, 23508, Note_on_c, 7, 72, 105
9, 23748, Note_on_c, 7, 72, 0
9, 23748, Note_on_c, 7, 67, 105
9, 23988, Note_on_c, 7, 67, 0
9, 23988, Note_on_c, 7, 64, 105
9, 24228, Note_on_c, 7, 64, 0
9, 24228, Note_on_c, 7, 67, 105
9, 24468, Note_on_c, 7, 67, 0
9, 24468, Note_on_c, 7, 64, 105
9, 24708, Note_on_c, 7, 64, 0
9, 24708, Note_on_c, 7, 60, 105
9, 24948, Note_on_c, 7, 60, 0
9, 24948, Note_on_c, 7, 65, 105
9, 25188, Note_on_c, 7, 65, 0
9, 25188, Note_on_c, 7, 65, 105
9, 25428, Note_on_c, 7, 65, 0
9, 25428, Note_on_c, 7, 65, 105
9, 25668, Note_on_c, 7, 65, 0
9, 25668, Note_on_c, 7, 65, 105
9, 25908, Note_on_c, 7, 65, 0
9, 25908, Note_on_c, 7, 67, 105
9, 26148, Note_on_c, 7, 67, 0
9, 26148, Note_on_c, 7, 67, 105
9, 26388, Note_on_c, 7, 67, 0
9, 26388, Note_on_c, 7, 67, 105
9, 26628, Note_on_c, 7, 67, 0
9, 26628, Note_on_c, 7, 67, 105
9, 26868, Note_on_c, 7, 67, 0
9, 26868, Note_on_c, 7, 60, 79
9, 26964, Note_on_c, 7, 60, 0
9, 27108, Note_on_c, 7, 62, 75
9, 27204, Note_on_c, 7, 62, 0
9, 27348, Note_on_c, 7, 64, 74
9, 27444, Note_on_c, 7, 64, 0
9, 27588, Note_on_c, 7, 65, 74
9, 27684, Note_on_c, 7, 65, 0
9, 27828, Note_on_c, 7, 67, 80
9, 28308, Note_on_c, 7, 67, 0
9, 28788, Note_on_c, 7, 71, 105
9, 29028, Note_on_c, 7, 71, 0
9, 29028, Note_on_c, 7, 74, 105
9, 29268, Note_on_c, 7, 74, 0
9, 29268, Note_on_c, 7, 71, 105
9, 29508, Note_on_c, 7, 71, 0
9, 29508, Note_on_c, 7, 67, 105
9, 29748, Note_on_c, 7, 67, 0
9, 29748, Note_on_c, 7, 65, 105
9, 29988, Note_on_c, 7, 65, 0
9, 29988, Note_on_c, 7, 62, 105
9, 30228, Note_on_c, 7, 62, 0
9, 30228, Note_on_c, 7, 59, 105
9, 30468, Note_on_c, 7, 59, 0
9, 30468, Note_on_c, 7, 55, 105
9, 30708, Note_on_c, 7, 55, 0
9, 30708, Note_on_c, 7, 60, 105
9, 30948, Note_on_c, 7, 60, 0
9, 30948, Note_on_c, 7, 76, 105
9, 31188, Note_on_c, 7, 76, 0
9, 31188, Note_on_c, 7, 72, 105
9, 31428, Note_on_c, 7, 72, 0
9, 31428, Note_on_c, 7, 68, 105
9, 31668, Note_on_c, 7, 68, 0
9, 31668, Note_on_c, 7, 69, 105
9, 31908, Note_on_c, 7, 69, 0
9, 31908, Note_on_c, 7, 72, 105
9, 32148, Note_on_c, 7, 72, 0
9, 32148, Note_on_c, 7, 69, 105
9, 32388, Note_on_c, 7, 69, 0
9, 32388, Note_on_c, 7, 64, 105
9, 32628, Note_on_c, 7, 64, 0
9, 32628, Note_on_c, 7, 69, 105
9, 32868, Note_on_c, 7, 69, 0
9, 32868, Note_on_c, 7, 67, 105
9, 33108, Note_on_c, 7, 67, 0
9, 33108, Note_on_c, 7, 72, 105
9, 33348, Note_on_c, 7, 72, 0
9, 33348, Note_on_c, 7, 60, 105
9, 33588, Note_on_c, 7, 60, 0
9, 33588, Note_on_c, 7, 60, 105
9, 33828, Note_on_c, 7, 60, 0
9, 33828, Note_on_c, 7, 69, 105
9, 34308, Note_on_c, 7, 69, 0
9, 34308, Note_on_c, 7, 69, 105
9, 34548, Note_on_c, 7, 69, 0
9, 34548, Note_on_c, 7, 67, 105
9, 34788, Note_on_c, 7, 67, 0
9, 34788, Note_on_c, 7, 71, 105
9, 35028, Note_on_c, 7, 71, 0
9, 35028, Note_on_c, 7, 74, 105
9, 35268, Note_on_c, 7, 74, 0
9, 35268, Note_on_c, 7, 67, 105
9, 35508, Note_on_c, 7, 67, 0
9, 35508, Note_on_c, 7, 72, 111
9, 35748, Note_on_c, 7, 72, 0
9, 35748, Note_on_c, 7, 67, 105
9, 35988, Note_on_c, 7, 67, 0
9, 35988, Note_on_c, 7, 64, 105
9, 36228, Note_on_c, 7, 64, 0
9, 36228, Note_on_c, 7, 60, 105
9, 36468, Note_on_c, 7, 60, 0
9, 36468, Note_on_c, 7, 67, 97
9, 36708, Note_on_c, 7, 67, 0
9, 36708, Note_on_c, 7, 71, 105
9, 36948, Note_on_c, 7, 71, 0
9, 36948, Note_on_c, 7, 74, 105
9, 37188, Note_on_c, 7, 74, 0
9, 37188, Note_on_c, 7, 67, 105
9, 37428, Note_on_c, 7, 67, 0
9, 37428, Note_on_c, 7, 72, 112
9, 37668, Note_on_c, 7, 72, 0
9, 37668, Note_on_c, 7, 67, 105
9, 37908, Note_on_c, 7, 67, 0
9, 37908, Note_on_c, 7, 64, 105
9, 38148, Note_on_c, 7, 64, 0
9, 38148, Note_on_c, 7, 60, 105
9, 38388, Note_on_c, 7, 60, 0
9, 38388, Note_on_c, 7, 55, 94
9, 38868, Note_on_c, 7, 55, 0
9, 38868, Note_on_c, 7, 67, 105
9, 39348, Note_on_c, 7, 67, 0
9, 39348, Note_on_c, 7, 55, 105
9, 39828, Note_on_c, 7, 55, 0
9, 44148, Note_on_c, 7, 64, 80
9, 44148, Note_on_c, 7, 67, 80
9, 44268, Note_on_c, 7, 65, 83
9, 44268, Note_on_c, 7, 69, 83
9, 44308, Note_on_c, 7, 67, 0
9, 44308, Note_on_c, 7, 64, 0
9, 44388, Note_on_c, 7, 64, 83
9, 44388, Note_on_c, 7, 67, 83
9, 44428, Note_on_c, 7, 65, 0
9, 44428, Note_on_c, 7, 69, 0
9, 44508, Note_on_c, 7, 62, 78
9, 44508, Note_on_c, 7, 65, 78
9, 44548, Note_on_c, 7, 64, 0
9, 44548, Note_on_c, 7, 67, 0
9, 44628, Note_on_c, 7, 62, 0
9, 44628, Note_on_c, 7, 65, 0
9, 44628, Note_on_c, 7, 60, 90
9, 44628, Note_on_c, 7, 64, 90
9, 45108, Note_on_c, 7, 64, 0
9, 45108, Note_on_c, 7, 60, 0
9, 47988, Note_on_c, 7, 64, 81
9, 47988, Note_on_c, 7, 67, 81
9, 48108, Note_on_c, 7, 65, 85
9, 48108, Note_on_c, 7, 69, 85
9, 48148, Note_on_c, 7, 67, 0
9, 48148, Note_on_c, 7, 64, 0
9, 48228, Note_on_c, 7, 64, 85
9, 48228, Note_on_c, 7, 67, 85
9, 48268, Note_on_c, 7, 65, 0
9, 48268, Note_on_c, 7, 69, 0
9, 48348, Note_on_c, 7, 62, 78
9, 48348, Note_on_c, 7, 65, 78
9, 48388, Note_on_c, 7, 64, 0
9, 48388, Note_on_c, 7, 67, 0
9, 48468, Note_on_c, 7, 62, 0
9, 48468, Note_on_c, 7, 65, 0
9, 48468, Note_on_c, 7, 60, 80
9, 48468, Note_on_c, 7, 64, 80
9, 48948, Note_on_c, 7, 64, 0
9, 48948, Note_on_c, 7, 60, 0
9, 51828, Note_on_c, 7, 64, 82
9, 51828, Note_on_c, 7, 67, 82
9, 51948, Note_on_c, 7, 65, 88
9, 51948, Note_on_c, 7, 69, 88
9, 51988, Note_on_c, 7, 67, 0
9, 51988, Note_on_c, 7, 64, 0
9, 52068, Note_on_c, 7, 64, 90
9, 52068, Note_on_c, 7, 67, 90
9, 52108, Note_on_c, 7, 65, 0
9, 52108, Note_on_c, 7, 69, 0
9, 52188, Note_on_c, 7, 62, 84
9, 52188, Note_on_c, 7, 65, 84
9, 52228, Note_on_c, 7, 64, 0
9, 52228, Note_on_c, 7, 67, 0
9, 52308, Note_on_c, 7, 62, 0
9, 52308, Note_on_c, 7, 65, 0
9, 52308, Note_on_c, 7, 60, 87
9, 52308, Note_on_c, 7, 64, 87
9, 52788, Note_on_c, 7, 64, 0
9, 52788, Note_on_c, 7, 60, 0
9, 53748, Note_on_c, 7, 57, 91
9, 53748, Note_on_c, 7, 60, 91
9, 53868, Note_on_c, 7, 58, 96
9, 53868, Note_on_c, 7, 62, 96
9, 53908, Note_on_c, 7, 60, 0
9, 53908, Note_on_c, 7, 57, 0
9, 53988, Note_on_c, 7, 57, 96
9, 53988, Note_on_c, 7, 60, 96
9, 54028, Note_on_c, 7, 58, 0
9, 54028, Note_on_c, 7, 62, 0
9, 54108, Note_on_c, 7, 55, 88
9, 54108, Note_on_c, 7, 58, 88
9, 54148, Note_on_c, 7, 57, 0
9, 54148, Note_on_c, 7, 60, 0
9, 54228, Note_on_c, 7, 55, 0
9, 54228, Note_on_c, 7, 58, 0
9, 54228, Note_on_c, 7, 53, 89
9, 54228, Note_on_c, 7, 57, 89
9, 54708, Note_on_c, 7, 57, 0
9, 54708, Note_on_c, 7, 53, 0
9, 55668, Note_on_c, 7, 55, 100
9, 55668, Note_on_c, 7, 58, 100
9, 55788, Note_on_c, 7, 57, 109
9, 55788, Note_on_c, 7, 60, 109
9, 55828, Note_on_c, 7, 58, 0
9, 55828, Note_on_c, 7, 55, 0
9, 55908, Note_on_c, 7, 55, 109
9, 55908, Note_on_c, 7, 58, 109
9, 55948, Note_on_c, 7, 57, 0
9, 55948, Note_on_c, 7, 60, 0
9, 56028, Note_on_c, 7, 53, 99
9, 56028, Note_on_c, 7, 57, 99
9, 56068, Note_on_c, 7, 55, 0
9, 56068, Note_on_c, 7, 58, 0
9, 56148, Note_on_c, 7, 53, 0
9, 56148, Note_on_c, 7, 57, 0
9, 56148, Note_on_c, 7, 52, 103
9, 56148, Note_on_c, 7, 55, 103
9, 56628, Note_on_c, 7, 55, 0
9, 56628, Note_on_c, 7, 52, 0
9, 61428, Note_on_c, 7, 55, 105
9, 61428, Note_on_c, 7, 67, 105
9, 61596, Note_on_c, 7, 67, 0
9, 61596, Note_on_c, 7, 55, 0
9, 61668, Note_on_c, 7, 55, 105
9, 61668, Note_on_c, 7, 67, 105
9, 61836, Note_on_c, 7, 67, 0
9, 61836, Note_on_c, 7, 55, 0
9, 61908, Note_on_c, 7, 55, 105
9, 61908, Note_on_c, 7, 67, 105
9, 62076, Note_on_c, 7, 67, 0
9, 62076, Note_on_c, 7, 55, 0
9, 62148, Note_on_c, 7, 55, 105
9, 62148, Note_on_c, 7, 67, 105
9, 62316, Note_on_c, 7, 67, 0
9, 62316, Note_on_c, 7, 55, 0
9, 62388, Note_on_c, 7, 55, 105
9, 62388, Note_on_c, 7, 67, 105
9, 62556, Note_on_c, 7, 67, 0
9, 62556, Note_on_c, 7, 55, 0
9, 62628, Note_on_c, 7, 55, 105
9, 62628, Note_on_c, 7, 67, 105
9, 62796, Note_on_c, 7, 67, 0
9, 62796, Note_on_c, 7, 55, 0
9, 62868, Note_on_c, 7, 55, 105
9, 62868, Note_on_c, 7, 67, 105
9, 63036, Note_on_c, 7, 67, 0
9, 63036, Note_on_c, 7, 55, 0
9, 63108, Note_on_c, 7, 55, 105
9, 63108, Note_on_c, 7, 67, 105
9, 63276, Note_on_c, 7, 67, 0
9, 63276, Note_on_c, 7, 55, 0
9, 63348, Note_on_c, 7, 55, 105
9, 63348, Note_on_c, 7, 67, 105
9, 63516, Note_on_c, 7, 67, 0
9, 63516, Note_on_c, 7, 55, 0
9, 63588, Note_on_c, 7, 55, 105
9, 63588, Note_on_c, 7, 67, 105
9, 63756, Note_on_c, 7, 67, 0
9, 63756, Note_on_c, 7, 55, 0
9, 63828, Note_on_c, 7, 55, 105
9, 63828, Note_on_c, 7, 67, 105
9, 63996, Note_on_c, 7, 67, 0
9, 63996, Note_on_c, 7, 55, 0
9, 64068, Note_on_c, 7, 55, 105
9, 64068, Note_on_c, 7, 67, 105
9, 64236, Note_on_c, 7, 67, 0
9, 64236, Note_on_c, 7, 55, 0
9, 64308, Note_on_c, 7, 55, 105
9, 64308, Note_on_c, 7, 67, 105
9, 64476, Note_on_c, 7, 67, 0
9, 64476, Note_on_c, 7, 55, 0
9, 64548, Note_on_c, 7, 55, 105
9, 64548, Note_on_c, 7, 67, 105
9, 64716, Note_on_c, 7, 67, 0
9, 64716, Note_on_c, 7, 55, 0
9, 64788, Note_on_c, 7, 55, 105
9, 64788, Note_on_c, 7, 67, 105
9, 64956, Note_on_c, 7, 67, 0
9, 64956, Note_on_c, 7, 55, 0
9, 65028, Note_on_c, 7, 55, 105
9, 65028, Note_on_c, 7, 67, 105
9, 65196, Note_on_c, 7, 67, 0
9, 65196, Note_on_c, 7, 55, 0
9, 65268, Note_on_c, 7, 55, 105
9, 65268, Note_on_c, 7, 67, 105
9, 65748, Note_on_c, 7, 67, 0
9, 65748, Note_on_c, 7, 55, 0
9, 72948, Note_on_c, 7, 64, 105
9, 73116, Note_on_c, 7, 64, 0
9, 73188, Note_on_c, 7, 64, 105
9, 73356, Note_on_c, 7, 64, 0
9, 73428, Note_on_c, 7, 64, 105
9, 73596, Note_on_c, 7, 64, 0
9, 73668, Note_on_c, 7, 64, 105
9, 73836, Note_on_c, 7, 64, 0
9, 73908, Note_on_c, 7, 65, 105
9, 74076, Note_on_c, 7, 65, 0
9, 74148, Note_on_c, 7, 65, 105
9, 74316, Note_on_c, 7, 65, 0
9, 74388, Note_on_c, 7, 65, 105
9, 74556, Note_on_c, 7, 65, 0
9, 74628, Note_on_c, 7, 65, 105
9, 74796, Note_on_c, 7, 65, 0
9, 74868, Note_on_c, 7, 67, 105
9, 75036, Note_on_c, 7, 67, 0
9, 75108, Note_on_c, 7, 67, 105
9, 75276, Note_on_c, 7, 67, 0
9, 75348, Note_on_c, 7, 67, 105
9, 75516, Note_on_c, 7, 67, 0
9, 75588, Note_on_c, 7, 67, 105
9, 75756, Note_on_c, 7, 67, 0
9, 75828, Note_on_c, 7, 67, 105
9, 75996, Note_on_c, 7, 67, 0
9, 76068, Note_on_c, 7, 67, 105
9, 76236, Note_on_c, 7, 67, 0
9, 76308, Note_on_c, 7, 55, 105
9, 76476, Note_on_c, 7, 55, 0
9, 76548, Note_on_c, 7, 55, 105
9, 76716, Note_on_c, 7, 55, 0
9, 76788, Note_on_c, 7, 60, 105
9, 77028, Note_on_c, 7, 60, 0
9, 77028, Note_on_c, 7, 64, 105
9, 77268, Note_on_c, 7, 64, 0
9, 77268, Note_on_c, 7, 67, 105
9, 77508, Note_on_c, 7, 67, 0
9, 77508, Note_on_c, 7, 64, 105
9, 77748, Note_on_c, 7, 64, 0
9, 77748, Note_on_c, 7, 60, 105
9, 77988, Note_on_c, 7, 60, 0
9, 77988, Note_on_c, 7, 64, 105
9, 78228, Note_on_c, 7, 64, 0
9, 78228, Note_on_c, 7, 67, 105
9, 78468, Note_on_c, 7, 67, 0
9, 78468, Note_on_c, 7, 64, 105
9, 78708, Note_on_c, 7, 64, 0
9, 78708, Note_on_c, 7, 60, 105
9, 78948, Note_on_c, 7, 60, 0
9, 78948, Note_on_c, 7, 64, 105
9, 79188, Note_on_c, 7, 64, 0
9, 79188, Note_on_c, 7, 67, 105
9, 79428, Note_on_c, 7, 67, 0
9, 79428, Note_on_c, 7, 64, 105
9, 79668, Note_on_c, 7, 64, 0
9, 79668, Note_on_c, 7, 60, 105
9, 79908, Note_on_c, 7, 60, 0
9, 79908, Note_on_c, 7, 64, 105
9, 80148, Note_on_c, 7, 64, 0
9, 80148, Note_on_c, 7, 67, 105
9, 80388, Note_on_c, 7, 67, 0
9, 80388, Note_on_c, 7, 64, 105
9, 80628, Note_on_c, 7, 64, 0
9, 80628, Note_on_c, 7, 60, 105
9, 81062, Note_on_c, 7, 60, 0
9, 103908, Note_on_c, 7, 60, 70
9, 104076, Note_on_c, 7, 60, 0
9, 104148, Note_on_c, 7, 60, 70
9, 104316, Note_on_c, 7, 60, 0
9, 104388, Note_on_c, 7, 60, 70
9, 104556, Note_on_c, 7, 60, 0
9, 104628, Note_on_c, 7, 60, 70
9, 104796, Note_on_c, 7, 60, 0
9, 104868, Note_on_c, 7, 60, 70
9, 105036, Note_on_c, 7, 60, 0
9, 105108, Note_on_c, 7, 60, 70
9, 105276, Note_on_c, 7, 60, 0
9, 105348, Note_on_c, 7, 60, 70
9, 105516, Note_on_c, 7, 60, 0
9, 105828, Note_on_c, 7, 60, 70
9, 105996, Note_on_c, 7, 60, 0
9, 106068, Note_on_c, 7, 60, 70
9, 106236, Note_on_c, 7, 60, 0
9, 106308, Note_on_c, 7, 60, 70
9, 106476, Note_on_c, 7, 60, 0
9, 106548, Note_on_c, 7, 60, 70
9, 106716, Note_on_c, 7, 60, 0
9, 106788, Note_on_c, 7, 60, 70
9, 106956, Note_on_c, 7, 60, 0
9, 107028, Note_on_c, 7, 60, 70
9, 107196, Note_on_c, 7, 60, 0
9, 107268, Note_on_c, 7, 60, 70
9, 107436, Note_on_c, 7, 60, 0
9, 107748, Note_on_c, 7, 60, 70
9, 107916, Note_on_c, 7, 60, 0
9, 107988, Note_on_c, 7, 60, 70
9, 108156, Note_on_c, 7, 60, 0
9, 108228, Note_on_c, 7, 60, 70
9, 108396, Note_on_c, 7, 60, 0
9, 108468, Note_on_c, 7, 60, 70
9, 108636, Note_on_c, 7, 60, 0
9, 108708, Note_on_c, 7, 60, 70
9, 108876, Note_on_c, 7, 60, 0
9, 108948, Note_on_c, 7, 60, 70
9, 109116, Note_on_c, 7, 60, 0
9, 109188, Note_on_c, 7, 60, 70
9, 109356, Note_on_c, 7, 60, 0
9, 109428, Note_on_c, 7, 57, 70
9, 110388, Note_on_c, 7, 55, 70
9, 110507, Note_on_c, 7, 57, 0
9, 111292, Note_on_c, 7, 55, 0
9, 111348, Note_on_c, 7, 55, 70
9, 111767, Note_on_c, 7, 55, 0
9, 113268, Note_on_c, 7, 72, 70
9, 117588, Note_on_c, 7, 72, 0
9, 117588, Note_on_c, 7, 67, 70
9, 118548, Note_on_c, 7, 67, 0
9, 118548, Note_on_c, 7, 67, 70
9, 119028, Note_on_c, 7, 67, 0
9, 119028, Note_on_c, 7, 67, 70
9, 119508, Note_on_c, 7, 67, 0
9, 125028, Note_on_c, 7, 55, 70
9, 125124, Note_on_c, 7, 55, 0
9, 125268, Note_on_c, 7, 57, 70
9, 125364, Note_on_c, 7, 57, 0
9, 125508, Note_on_c, 7, 59, 70
9, 125604, Note_on_c, 7, 59, 0
9, 125748, Note_on_c, 7, 60, 70
9, 125844, Note_on_c, 7, 60, 0
9, 125988, Note_on_c, 7, 62, 70
9, 126084, Note_on_c, 7, 62, 0
9, 126228, Note_on_c, 7, 64, 70
9, 126324, Note_on_c, 7, 64, 0
9, 126468, Note_on_c, 7, 66, 74
9, 126564, Note_on_c, 7, 66, 0
9, 126708, Note_on_c, 7, 67, 82
9, 127188, Note_on_c, 7, 67, 0
9, 128868, Note_on_c, 7, 67, 105
9, 128964, Note_on_c, 7, 67, 0
9, 129108, Note_on_c, 7, 71, 105
9, 129204, Note_on_c, 7, 71, 0
9, 129348, Note_on_c, 7, 67, 105
9, 129444, Note_on_c, 7, 67, 0
9, 129588, Note_on_c, 7, 62, 105
9, 129684, Note_on_c, 7, 62, 0
9, 129828, Note_on_c, 7, 67, 105
9, 129924, Note_on_c, 7, 67, 0
9, 130068, Note_on_c, 7, 59, 105
9, 130164, Note_on_c, 7, 59, 0
9, 130308, Note_on_c, 7, 62, 105
9, 130404, Note_on_c, 7, 62, 0
9, 130548, Note_on_c, 7, 55, 105
9, 131028, Note_on_c, 7, 55, 0
9, 147827, Control_c, 7, 0, 0
9, 147828, Program_c, 7, 45
9, 149748, Note_on_c, 7, 50, 70
9, 149988, Note_on_c, 7, 50, 0
9, 150228, Note_on_c, 7, 62, 70
9, 150468, Note_on_c, 7, 62, 0
9, 150708, Note_on_c, 7, 66, 70
9, 150948, Note_on_c, 7, 66, 0
9, 151188, Note_on_c, 7, 62, 70
9, 151428, Note_on_c, 7, 62, 0
9, 151668, Note_on_c, 7, 60, 70
9, 151908, Note_on_c, 7, 60, 0
9, 152148, Note_on_c, 7, 57, 70
9, 152388, Note_on_c, 7, 57, 0
9, 152628, Note_on_c, 7, 54, 70
9, 152868, Note_on_c, 7, 54, 0
9, 153108, Note_on_c, 7, 62, 70
9, 153348, Note_on_c, 7, 62, 0
9, 153588, Note_on_c, 7, 55, 70
9, 153588, Note_on_c, 7, 62, 70
9, 154068, Note_on_c, 7, 62, 0
9, 154068, Note_on_c, 7, 55, 0
9, 157428, Note_on_c, 7, 50, 70
9, 157668, Note_on_c, 7, 50, 0
9, 157908, Note_on_c, 7, 62, 70
9, 158148, Note_on_c, 7, 62, 0
9, 158388, Note_on_c, 7, 66, 70
9, 158628, Note_on_c, 7, 66, 0
9, 158868, Note_on_c, 7, 62, 70
9, 159108, Note_on_c, 7, 62, 0
9, 159348, Note_on_c, 7, 60, 70
9, 159588, Note_on_c, 7, 60, 0
9, 159828, Note_on_c, 7, 57, 70
9, 160068, Note_on_c, 7, 57, 0
9, 160308, Note_on_c, 7, 54, 70
9, 160548, Note_on_c, 7, 54, 0
9, 160788, Note_on_c, 7, 62, 70
9, 161028, Note_on_c, 7, 62, 0
9, 161268, Note_on_c, 7, 55, 70
9, 161748, Note_on_c, 7, 55, 0
9, 162707, Control_c, 7, 0, 0
9, 162708, Program_c, 7, 48
9, 165108, Note_on_c, 7, 62, 105
9, 165348, Note_on_c, 7, 62, 0
9, 165348, Note_on_c, 7, 66, 105
9, 165588, Note_on_c, 7, 66, 0
9, 165588, Note_on_c, 7, 69, 105
9, 165828, Note_on_c, 7, 69, 0
9, 165828, Note_on_c, 7, 62, 105
9, 166068, Note_on_c, 7, 62, 0
9, 166068, Note_on_c, 7, 67, 105
9, 166308, Note_on_c, 7, 67, 0
9, 166308, Note_on_c, 7, 62, 105
9, 166548, Note_on_c, 7, 62, 0
9, 166548, Note_on_c, 7, 59, 105
9, 166788, Note_on_c, 7, 59, 0
9, 166788, Note_on_c, 7, 55, 105
9, 167028, Note_on_c, 7, 55, 0
9, 167028, Note_on_c, 7, 62, 105
9, 167268, Note_on_c, 7, 62, 0
9, 167268, Note_on_c, 7, 66, 105
9, 167508, Note_on_c, 7, 66, 0
9, 167508, Note_on_c, 7, 69, 105
9, 167748, Note_on_c, 7, 69, 0
9, 167748, Note_on_c, 7, 62, 105
9, 167988, Note_on_c, 7, 62, 0
9, 167988, Note_on_c, 7, 67, 105
9, 168228, Note_on_c, 7, 67, 0
9, 168228, Note_on_c, 7, 74, 105
9, 168468, Note_on_c, 7, 74, 0
9, 168468, Note_on_c, 7, 71, 105
9, 168708, Note_on_c, 7, 71, 0
9, 168708, Note_on_c, 7, 67, 105
9, 168948, Note_on_c, 7, 67, 0
9, 168948, Note_on_c, 7, 62, 105
9, 169428, Note_on_c, 7, 62, 0
9, 174708, Note_on_c, 7, 67, 70
9, 175668, Note_on_c, 7, 71, 70
9, 175782, Note_on_c, 7, 67, 0
9, 176547, Note_on_c, 7, 71, 0
9, 176628, Note_on_c, 7, 69, 70
9, 177588, Note_on_c, 7, 62, 70
9, 177657, Note_on_c, 7, 69, 0
9, 178457, Note_on_c, 7, 62, 0
9, 178548, Note_on_c, 7, 67, 70
9, 179508, Note_on_c, 7, 71, 70
9, 179572, Note_on_c, 7, 67, 0
9, 180392, Note_on_c, 7, 71, 0
9, 180468, Note_on_c, 7, 69, 70
9, 181428, Note_on_c, 7, 62, 70
9, 181492, Note_on_c, 7, 69, 0
9, 182327, Note_on_c, 7, 62, 0
9, 182388, Note_on_c, 7, 55, 70
9, 183348, Note_on_c, 7, 53, 70
9, 183432, Note_on_c, 7, 55, 0
9, 184232, Note_on_c, 7, 53, 0
9, 184308, Note_on_c, 7, 52, 70
9, 185268, Note_on_c, 7, 60, 70
9, 185337, Note_on_c, 7, 52, 0
9, 186167, Note_on_c, 7, 60, 0
9, 186228, Note_on_c, 7, 59, 70
9, 187188, Note_on_c, 7, 59, 0
9, 187188, Note_on_c, 7, 71, 70
9, 188148, Note_on_c, 7, 72, 70
9, 188227, Note_on_c, 7, 71, 0
9, 188628, Note_on_c, 7, 72, 0
9, 189348, Note_on_c, 7, 67, 75
9, 189444, Note_on_c, 7, 67, 0
9, 189588, Note_on_c, 7, 62, 72
9, 189684, Note_on_c, 7, 62, 0
9, 189828, Note_on_c, 7, 59, 70
9, 189924, Note_on_c, 7, 59, 0
9, 190068, Note_on_c, 7, 60, 67
9, 190548, Note_on_c, 7, 60, 0
9, 191268, Note_on_c, 7, 67, 80
9, 191364, Note_on_c, 7, 67, 0
9, 191508, Note_on_c, 7, 62, 77
9, 191604, Note_on_c, 7, 62, 0
9, 191748, Note_on_c, 7, 59, 74
9, 191844, Note_on_c, 7, 59, 0
9, 191988, Note_on_c, 7, 57, 71
9, 192468, Note_on_c, 7, 57, 0
9, 192468, Note_on_c, 7, 57, 70
9, 192948, Note_on_c, 7, 57, 0
9, 193428, Note_on_c, 7, 50, 70
9, 193908, Note_on_c, 7, 50, 0
9, 194388, Note_on_c, 7, 55, 70
9, 194868, Note_on_c, 7, 55, 0
9, 195348, Note_on_c, 7, 52, 70
9, 195828, Note_on_c, 7, 52, 0
9, 195828, Note_on_c, 7, 60, 70
9, 196788, Note_on_c, 7, 60, 0
9, 196788, Note_on_c, 7, 62, 70
9, 197508, Note_on_c, 7, 62, 0
9, 197508, Note_on_c, 7, 60, 77
9, 197748, Note_on_c, 7, 60, 0
9, 197748, Note_on_c, 7, 59, 70
9, 197844, Note_on_c, 7, 59, 0
9, 197988, Note_on_c, 7, 57, 72
9, 198084, Note_on_c, 7, 57, 0
9, 198228, Note_on_c, 7, 59, 75
9, 198324, Note_on_c, 7, 59, 0
9, 198468, Note_on_c, 7, 60, 77
9, 198564, Note_on_c, 7, 60, 0
9, 198708, Note_on_c, 7, 62, 80
9, 199188, Note_on_c, 7, 62, 0
9, 203508, Note_on_c, 7, 60, 70
9, 204468, Note_on_c, 7, 62, 70
9, 204547, Note_on_c, 7, 60, 0
9, 205367, Note_on_c, 7, 62, 0
9, 205428, Note_on_c, 7, 55, 70
9, 205908, Note_on_c, 7, 55, 0
9, 213107, Control_c, 7, 0, 0
9, 213108, Program_c, 7, 45
9, 214068, Note_on_c, 7, 67, 70
9, 214308, Note_on_c, 7, 67, 0
9, 214548, Note_on_c, 7, 62, 70
9, 214788, Note_on_c, 7, 62, 0
9, 215028, Note_on_c, 7, 59, 70
9, 215508, Note_on_c, 7, 59, 0
9, 215988, Note_on_c, 7, 67, 70
9, 216156, Note_on_c, 7, 67, 0
9, 216228, Note_on_c, 7, 67, 70
9, 216396, Note_on_c, 7, 67, 0
9, 216468, Note_on_c, 7, 62, 70
9, 216636, Note_on_c, 7, 62, 0
9, 216708, Note_on_c, 7, 62, 70
9, 216876, Note_on_c, 7, 62, 0
9, 216948, Note_on_c, 7, 59, 70
9, 217428, Note_on_c, 7, 59, 0
9, 217908, Note_on_c, 7, 67, 70
9, 218148, Note_on_c, 7, 67, 0
9, 218388, Note_on_c, 7, 62, 70
9, 218628, Note_on_c, 7, 62, 0
9, 218868, Note_on_c, 7, 59, 70
9, 219108, Note_on_c, 7, 59, 0
9, 219348, Note_on_c, 7, 62, 70
9, 219588, Note_on_c, 7, 62, 0
9, 219828, Note_on_c, 7, 67, 70
9, 220068, Note_on_c, 7, 67, 0
9, 220308, Note_on_c, 7, 62, 70
9, 220548, Note_on_c, 7, 62, 0
9, 220788, Note_on_c, 7, 55, 70
9, 221268, Note_on_c, 7, 55, 0
9, 221748, Note_on_c, 7, 60, 70
9, 221748, Note_on_c, 7, 64, 70
9, 222228, Note_on_c, 7, 64, 0
9, 222228, Note_on_c, 7, 60, 0
9, 222708, Note_on_c, 7, 62, 70
9, 223188, Note_on_c, 7, 62, 0
9, 223668, Note_on_c, 7, 62, 70
9, 224148, Note_on_c, 7, 62, 0
9, 224267, Control_c, 7, 0, 0
9, 224268, Program_c, 7, 48
9, 224628, Note_on_c, 7, 59, 70
9, 225588, Note_on_c, 7, 60, 70
9, 225667, Note_on_c, 7, 59, 0
9, 226482, Note_on_c, 7, 60, 0
9, 226548, Note_on_c, 7, 62, 70
9, 226716, Note_on_c, 7, 62, 0
9, 226788, Note_on_c, 7, 62, 70
9, 226956, Note_on_c, 7, 62, 0
9, 227028, Note_on_c, 7, 62, 70
9, 227196, Note_on_c, 7, 62, 0
9, 227268, Note_on_c, 7, 62, 70
9, 227436, Note_on_c, 7, 62, 0
9, 227508, Note_on_c, 7, 62, 70
9, 227676, Note_on_c, 7, 62, 0
9, 227748, Note_on_c, 7, 62, 70
9, 227916, Note_on_c, 7, 62, 0
9, 227988, Note_on_c, 7, 62, 70
9, 228156, Note_on_c, 7, 62, 0
9, 228228, Note_on_c, 7, 62, 70
9, 228396, Note_on_c, 7, 62, 0
9, 228468, Note_on_c, 7, 62, 70
9, 228636, Note_on_c, 7, 62, 0
9, 228708, Note_on_c, 7, 62, 73
9, 228876, Note_on_c, 7, 62, 0
9, 228948, Note_on_c, 7, 62, 77
9, 229116, Note_on_c, 7, 62, 0
9, 229188, Note_on_c, 7, 62, 81
9, 229356, Note_on_c, 7, 62, 0
9, 229428, Note_on_c, 7, 62, 85
9, 229596, Note_on_c, 7, 62, 0
9, 229668, Note_on_c, 7, 62, 89
9, 229836, Note_on_c, 7, 62, 0
9, 229908, Note_on_c, 7, 62, 93
9, 230076, Note_on_c, 7, 62, 0
9, 230148, Note_on_c, 7, 62, 97
9, 230316, Note_on_c, 7, 62, 0
9, 230388, Note_on_c, 7, 62, 102
9, 230868, Note_on_c, 7, 62, 0
9, 230868, Note_on_c, 7, 64, 105
9, 230868, Note_on_c, 7, 67, 105
9, 230964, Note_on_c, 7, 67, 0
9, 230964, Note_on_c, 7, 64, 0
9, 231348, Note_on_c, 7, 62, 105
9, 231348, Note_on_c, 7, 66, 105
9, 231444, Note_on_c, 7, 66, 0
9, 231444, Note_on_c, 7, 62, 0
9, 231828, Note_on_c, 7, 60, 105
9, 231828, Note_on_c, 7, 64, 105
9, 231924, Note_on_c, 7, 64, 0
9, 231924, Note_on_c, 7, 60, 0
9, 232308, Note_on_c, 7, 59, 105
9, 232308, Note_on_c, 7, 62, 105
9, 233028, Note_on_c, 7, 62, 0
9, 233028, Note_on_c, 7, 59, 0
9, 233028, Note_on_c, 7, 57, 105
9, 233028, Note_on_c, 7, 60, 105
9, 233268, Note_on_c, 7, 60, 0
9, 233268, Note_on_c, 7, 57, 0
9, 233268, Note_on_c, 7, 55, 105
9, 233268, Note_on_c, 7, 59, 105
9, 233748, Note_on_c, 7, 59, 0
9, 233748, Note_on_c, 7, 55, 0
9, 233748, Note_on_c, 7, 55, 108
9, 233748, Note_on_c, 7, 59, 108
9, 233868, Note_on_c, 7, 57, 114
9, 233868, Note_on_c, 7, 60, 114
9, 233908, Note_on_c, 7, 59, 0
9, 233908, Note_on_c, 7, 55, 0
9, 233988, Note_on_c, 7, 59, 117
9, 233988, Note_on_c, 7, 62, 117
9, 234028, Note_on_c, 7, 57, 0
9, 234028, Note_on_c, 7, 60, 0
9, 234080, Note_on_c, 7, 59, 0
9, 234108, Note_on_c, 7, 55, 109
9, 234108, Note_on_c, 7, 59, 109
9, 234148, Note_on_c, 7, 62, 0
9, 234228, Note_on_c, 7, 59, 0
9, 234228, Note_on_c, 7, 55, 0
9, 234228, Note_on_c, 7, 60, 114
9, 234228, Note_on_c, 7, 64, 114
9, 234708, Note_on_c, 7, 64, 0
9, 234708, Note_on_c, 7, 60, 0
9, 234708, Note_on_c, 7, 64, 70
9, 234708, Note_on_c, 7, 67, 70
9, 234804, Note_on_c, 7, 67, 0
9, 234804, Note_on_c, 7, 64, 0
9, 235188, Note_on_c, 7, 62, 70
9, 235188, Note_on_c, 7, 66, 70
9, 235284, Note_on_c, 7, 66, 0
9, 235284, Note_on_c, 7, 62, 0
9, 235668, Note_on_c, 7, 60, 70
9, 235668, Note_on_c, 7, 64, 70
9, 235764, Note_on_c, 7, 64, 0
9, 235764, Note_on_c, 7, 60, 0
9, 236148, Note_on_c, 7, 59, 70
9, 236148, Note_on_c, 7, 62, 70
9, 236868, Note_on_c, 7, 62, 0
9, 236868, Note_on_c, 7, 59, 0
9, 236868, Note_on_c, 7, 57, 70
9, 236868, Note_on_c, 7, 60, 70
9, 237108, Note_on_c, 7, 60, 0
9, 237108, Note_on_c, 7, 57, 0
9, 237108, Note_on_c, 7, 55, 70
9, 237108, Note_on_c, 7, 59, 70
9, 237588, Note_on_c, 7, 59, 0
9, 237588, Note_on_c, 7, 55, 0
9, 237588, Note_on_c, 7, 67, 110
9, 237708, Note_on_c, 7, 66, 103
9, 237708, Note_on_c, 7, 69, 103
9, 237748, Note_on_c, 7, 67, 0
9, 237828, Note_on_c, 7, 67, 106
9, 237828, Note_on_c, 7, 71, 106
9, 237868, Note_on_c, 7, 69, 0
9, 237868, Note_on_c, 7, 66, 0
9, 237920, Note_on_c, 7, 67, 0
9, 237948, Note_on_c, 7, 62, 110
9, 237948, Note_on_c, 7, 67, 110
9, 237988, Note_on_c, 7, 71, 0
9, 238068, Note_on_c, 7, 67, 0
9, 238068, Note_on_c, 7, 62, 0
9, 238068, Note_on_c, 7, 66, 104
9, 238308, Note_on_c, 7, 66, 0
9, 238308, Note_on_c, 7, 69, 105
9, 238548, Note_on_c, 7, 69, 0
9, 238548, Note_on_c, 7, 66, 105
9, 238788, Note_on_c, 7, 66, 0
9, 238788, Note_on_c, 7, 62, 105
9, 239028, Note_on_c, 7, 62, 0
9, 239028, Note_on_c, 7, 66, 105
9, 239268, Note_on_c, 7, 66, 0
9, 239268, Note_on_c, 7, 69, 105
9, 239508, Note_on_c, 7, 69, 0
9, 239508, Note_on_c, 7, 66, 105
9, 239748, Note_on_c, 7, 66, 0
9, 239748, Note_on_c, 7, 62, 105
9, 239988, Note_on_c, 7, 62, 0
9, 239988, Note_on_c, 7, 67, 105
9, 240228, Note_on_c, 7, 67, 0
9, 240228, Note_on_c, 7, 71, 105
9, 240468, Note_on_c, 7, 71, 0
9, 240468, Note_on_c, 7, 67, 105
9, 240708, Note_on_c, 7, 67, 0
9, 240708, Note_on_c, 7, 62, 105
9, 240948, Note_on_c, 7, 62, 0
9, 240948, Note_on_c, 7, 59, 105
9, 241188, Note_on_c, 7, 59, 0
9, 241188, Note_on_c, 7, 62, 105
9, 241428, Note_on_c, 7, 62, 0
9, 241428, Note_on_c, 7, 59, 105
9, 241668, Note_on_c, 7, 59, 0
9, 241668, Note_on_c, 7, 55, 105
9, 241908, Note_on_c, 7, 55, 0
9, 241908, Note_on_c, 7, 60, 105
9, 242076, Note_on_c, 7, 60, 0
9, 242148, Note_on_c, 7, 60, 105
9, 242316, Note_on_c, 7, 60, 0
9, 242388, Note_on_c, 7, 60, 105
9, 242556, Note_on_c, 7, 60, 0
9, 242628, Note_on_c, 7, 60, 105
9, 242796, Note_on_c, 7, 60, 0
9, 242868, Note_on_c, 7, 62, 105
9, 243036, Note_on_c, 7, 62, 0
9, 243108, Note_on_c, 7, 62, 105
9, 243276, Note_on_c, 7, 62, 0
9, 243348, Note_on_c, 7, 62, 105
9, 243516, Note_on_c, 7, 62, 0
9, 243588, Note_on_c, 7, 62, 105
9, 243756, Note_on_c, 7, 62, 0
9, 243828, Note_on_c, 7, 59, 105
9, 243996, Note_on_c, 7, 59, 0
9, 244068, Note_on_c, 7, 59, 105
9, 244236, Note_on_c, 7, 59, 0
9, 244308, Note_on_c, 7, 59, 105
9, 244476, Note_on_c, 7, 59, 0
9, 244548, Note_on_c, 7, 59, 105
9, 244716, Note_on_c, 7, 59, 0
9, 244788, Note_on_c, 7, 60, 105
9, 244956, Note_on_c, 7, 60, 0
9, 245028, Note_on_c, 7, 60, 105
9, 245196, Note_on_c, 7, 60, 0
9, 245268, Note_on_c, 7, 60, 105
9, 245436, Note_on_c, 7, 60, 0
9, 245508, Note_on_c, 7, 60, 105
9, 245676, Note_on_c, 7, 60, 0
9, 245748, Note_on_c, 7, 62, 105
9, 245916, Note_on_c, 7, 62, 0
9, 245988, Note_on_c, 7, 62, 105
9, 246156, Note_on_c, 7, 62, 0
9, 246228, Note_on_c, 7, 62, 105
9, 246396, Note_on_c, 7, 62, 0
9, 246468, Note_on_c, 7, 62, 105
9, 246636, Note_on_c, 7, 62, 0
9, 246708, Note_on_c, 7, 62, 105
9, 246876, Note_on_c, 7, 62, 0
9, 246948, Note_on_c, 7, 62, 105
9, 247116, Note_on_c, 7, 62, 0
9, 247188, Note_on_c, 7, 62, 105
9, 247356, Note_on_c, 7, 62, 0
9, 247428, Note_on_c, 7, 62, 105
9, 247596, Note_on_c, 7, 62, 0
9, 247668, Note_on_c, 7, 62, 105
9, 247836, Note_on_c, 7, 62, 0
9, 247908, Note_on_c, 7, 62, 105
9, 248076, Note_on_c, 7, 62, 0
9, 248148, Note_on_c, 7, 62, 105
9, 248316, Note_on_c, 7, 62, 0
9, 248388, Note_on_c, 7, 62, 105
9, 248556, Note_on_c, 7, 62, 0
9, 248628, Note_on_c, 7, 62, 105
9, 248796, Note_on_c, 7, 62, 0
9, 248868, Note_on_c, 7, 62, 105
9, 249036, Note_on_c, 7, 62, 0
9, 249108, Note_on_c, 7, 62, 105
9, 249276, Note_on_c, 7, 62, 0
9, 249348, Note_on_c, 7, 62, 105
9, 249516, Note_on_c, 7, 62, 0
9, 249588, Note_on_c, 7, 55, 105
9, 250068, Note_on_c, 7, 55, 0
9, 250068, Note_on_c, 7, 67, 70
9, 250548, Note_on_c, 7, 66, 70
9, 250617, Note_on_c, 7, 67, 0
9, 251028, Note_on_c, 7, 64, 70
9, 251092, Note_on_c, 7, 66, 0
9, 251452, Note_on_c, 7, 64, 0
9, 251508, Note_on_c, 7, 63, 105
9, 251732, Note_on_c, 7, 63, 0
9, 251988, Note_on_c, 7, 64, 70
9, 252468, Note_on_c, 7, 62, 70
9, 252522, Note_on_c, 7, 64, 0
9, 252948, Note_on_c, 7, 60, 70
9, 253002, Note_on_c, 7, 62, 0
9, 253392, Note_on_c, 7, 60, 0
9, 253428, Note_on_c, 7, 59, 105
9, 253682, Note_on_c, 7, 59, 0
9, 253908, Note_on_c, 7, 60, 70
9, 254388, Note_on_c, 7, 59, 70
9, 254452, Note_on_c, 7, 60, 0
9, 254868, Note_on_c, 7, 57, 70
9, 254947, Note_on_c, 7, 59, 0
9, 255287, Note_on_c, 7, 57, 0
9, 255348, Note_on_c, 7, 56, 105
9, 255828, Note_on_c, 7, 56, 0
9, 259188, Note_on_c, 7, 62, 70
9, 259188, Note_on_c, 7, 64, 70
9, 261108, Note_on_c, 7, 62, 0
9, 261108, Note_on_c, 7, 60, 70
9, 263028, Note_on_c, 7, 60, 0
9, 263028, Note_on_c, 7, 64, 0
9, 263028, Note_on_c, 7, 59, 70
9, 263988, Note_on_c, 7, 59, 0
9, 263988, Note_on_c, 7, 64, 70
9, 264948, Note_on_c, 7, 64, 0
9, 264948, Note_on_c, 7, 64, 70
9, 265140, Note_on_c, 7, 64, 0
9, 265428, Note_on_c, 7, 64, 70
9, 265620, Note_on_c, 7, 64, 0
9, 265908, Note_on_c, 7, 64, 70
9, 266100, Note_on_c, 7, 64, 0
9, 266868, Note_on_c, 7, 62, 70
9, 267588, Note_on_c, 7, 65, 70
9, 267647, Note_on_c, 7, 62, 0
9, 267772, Note_on_c, 7, 65, 0
9, 267828, Note_on_c, 7, 64, 70
9, 268308, Note_on_c, 7, 62, 70
9, 268372, Note_on_c, 7, 64, 0
9, 268717, Note_on_c, 7, 62, 0
9, 268788, Note_on_c, 7, 60, 105
9, 268980, Note_on_c, 7, 60, 0
9, 278388, Note_on_c, 7, 52, 70
9, 278388, Note_on_c, 7, 61, 70
9, 280308, Note_on_c, 7, 61, 0
9, 280308, Note_on_c, 7, 52, 0
9, 280308, Note_on_c, 7, 53, 70
9, 280308, Note_on_c, 7, 62, 70
9, 282228, Note_on_c, 7, 62, 0
9, 282228, Note_on_c, 7, 53, 0
9, 282228, Note_on_c, 7, 58, 70
9, 282708, Note_on_c, 7, 55, 70
9, 282777, Note_on_c, 7, 58, 0
9, 283117, Note_on_c, 7, 55, 0
9, 283188, Note_on_c, 7, 57, 70
9, 284148, Note_on_c, 7, 57, 0
9, 284148, Note_on_c, 7, 57, 70
9, 284340, Note_on_c, 7, 57, 0
9, 284628, Note_on_c, 7, 57, 70
9, 284820, Note_on_c, 7, 57, 0
9, 285108, Note_on_c, 7, 57, 70
9, 285300, Note_on_c, 7, 57, 0
9, 286068, Note_on_c, 7, 58, 70
9, 287028, Note_on_c, 7, 57, 70
9, 287112, Note_on_c, 7, 58, 0
9, 287922, Note_on_c, 7, 57, 0
9, 287988, Note_on_c, 7, 57, 70
9, 288468, Note_on_c, 7, 57, 0
9, 293748, Note_on_c, 7, 53, 70
9, 297588, Note_on_c, 7, 53, 0
9, 297588, Note_on_c, 7, 52, 105
9, 299508, Note_on_c, 7, 52, 0
9, 299508, Note_on_c, 7, 57, 105
9, 299988, Note_on_c, 7, 57, 0
9, 305268, Note_on_c, 7, 67, 70
9, 307668, Note_on_c, 7, 67, 0
9, 309108, Note_on_c, 7, 67, 70
9, 311508, Note_on_c, 7, 67, 0
9, 315828, Note_on_c, 7, 66, 70
9, 316788, Note_on_c, 7, 66, 0
9, 316788, Note_on_c, 7, 67, 70
9, 317268, Note_on_c, 7, 67, 0
9, 317748, Note_on_c, 7, 66, 70
9, 318708, Note_on_c, 7, 66, 0
9, 318708, Note_on_c, 7, 67, 70
9, 319188, Note_on_c, 7, 67, 0
9, 319428, Note_on_c, 7, 67, 70
9, 319668, Note_on_c, 7, 67, 0
9, 319668, Note_on_c, 7, 55, 70
9, 320148, Note_on_c, 7, 55, 0
9, 320388, Note_on_c, 7, 67, 70
9, 320628, Note_on_c, 7, 67, 0
9, 320628, Note_on_c, 7, 55, 80
9, 321108, Note_on_c, 7, 55, 0
9, 321348, Note_on_c, 7, 67, 80
9, 321588, Note_on_c, 7, 67, 0
9, 321588, Note_on_c, 7, 55, 90
9, 322068, Note_on_c, 7, 55, 0
9, 322308, Note_on_c, 7, 67, 90
9, 322548, Note_on_c, 7, 67, 0
9, 322548, Note_on_c, 7, 55, 105
9, 323028, Note_on_c, 7, 55, 0
9, 323268, Note_on_c, 7, 67, 105
9, 323508, Note_on_c, 7, 67, 0
9, 323508, Note_on_c, 7, 55, 105
9, 323988, Note_on_c, 7, 55, 0
9, 324228, Note_on_c, 7, 67, 105
9, 324468, Note_on_c, 7, 67, 0
9, 357348, Note_on_c, 7, 55, 71
9, 357444, Note_on_c, 7, 55, 0
9, 357588, Note_on_c, 7, 57, 73
9, 357684, Note_on_c, 7, 57, 0
9, 357828, Note_on_c, 7, 59, 76
9, 357924, Note_on_c, 7, 59, 0
9, 358068, Note_on_c, 7, 60, 78
9, 358164, Note_on_c, 7, 60, 0
9, 358308, Note_on_c, 7, 62, 80
9, 358404, Note_on_c, 7, 62, 0
9, 358548, Note_on_c, 7, 64, 83
9, 358644, Note_on_c, 7, 64, 0
9, 358788, Note_on_c, 7, 66, 85
9, 358884, Note_on_c, 7, 66, 0
9, 359028, Note_on_c, 7, 67, 88
9, 359508, Note_on_c, 7, 67, 0
9, 378228, Note_on_c, 7, 60, 70
9, 379668, Note_on_c, 7, 60, 0
9, 379668, Note_on_c, 7, 56, 70
9, 380148, Note_on_c, 7, 56, 0
9, 380148, Note_on_c, 7, 57, 70
9, 381588, Note_on_c, 7, 57, 0
9, 381588, Note_on_c, 7, 52, 70
9, 382068, Note_on_c, 7, 52, 0
9, 382068, Note_on_c, 7, 53, 70
9, 383508, Note_on_c, 7, 52, 70
9, 383577, Note_on_c, 7, 53, 0
9, 383927, Note_on_c, 7, 52, 0
9, 383988, Note_on_c, 7, 50, 70
9, 384468, Note_on_c, 7, 58, 70
9, 384562, Note_on_c, 7, 50, 0
9, 384857, Note_on_c, 7, 58, 0
9, 384948, Note_on_c, 7, 57, 70
9, 385428, Note_on_c, 7, 60, 70
9, 385507, Note_on_c, 7, 57, 0
9, 385812, Note_on_c, 7, 60, 0
9, 385908, Note_on_c, 7, 59, 70
9, 386148, Note_on_c, 7, 59, 0
9, 386388, Note_on_c, 7, 67, 70
9, 386628, Note_on_c, 7, 67, 0
9, 386868, Note_on_c, 7, 71, 70
9, 387108, Note_on_c, 7, 71, 0
9, 387348, Note_on_c, 7, 67, 70
9, 387588, Note_on_c, 7, 67, 0
9, 387828, Note_on_c, 7, 65, 70
9, 388068, Note_on_c, 7, 65, 0
9, 388308, Note_on_c, 7, 62, 70
9, 388548, Note_on_c, 7, 62, 0
9, 388788, Note_on_c, 7, 59, 70
9, 389028, Note_on_c, 7, 59, 0
9, 389268, Note_on_c, 7, 67, 70
9, 389508, Note_on_c, 7, 67, 0
9, 389748, Note_on_c, 7, 60, 70
9, 389748, Note_on_c, 7, 67, 70
9, 390228, Note_on_c, 7, 67, 0
9, 390228, Note_on_c, 7, 60, 0
9, 393588, Note_on_c, 7, 55, 70
9, 393828, Note_on_c, 7, 55, 0
9, 394068, Note_on_c, 7, 67, 70
9, 394308, Note_on_c, 7, 67, 0
9, 394548, Note_on_c, 7, 71, 70
9, 394788, Note_on_c, 7, 71, 0
9, 395028, Note_on_c, 7, 67, 70
9, 395268, Note_on_c, 7, 67, 0
9, 395508, Note_on_c, 7, 65, 70
9, 395748, Note_on_c, 7, 65, 0
9, 395988, Note_on_c, 7, 62, 70
9, 396228, Note_on_c, 7, 62, 0
9, 396468, Note_on_c, 7, 59, 70
9, 396708, Note_on_c, 7, 59, 0
9, 396948, Note_on_c, 7, 67, 70
9, 397188, Note_on_c, 7, 67, 0
9, 397428, Note_on_c, 7, 60, 70
9, 397428, Note_on_c, 7, 67, 70
9, 397908, Note_on_c, 7, 67, 0
9, 397908, Note_on_c, 7, 60, 0
9, 401268, Note_on_c, 7, 67, 105
9, 401508, Note_on_c, 7, 67, 0
9, 401508, Note_on_c, 7, 71, 105
9, 401748, Note_on_c, 7, 71, 0
9, 401748, Note_on_c, 7, 74, 105
9, 401988, Note_on_c, 7, 74, 0
9, 401988, Note_on_c, 7, 67, 105
9, 402228, Note_on_c, 7, 67, 0
9, 402228, Note_on_c, 7, 72, 105
9, 402468, Note_on_c, 7, 72, 0
9, 402468, Note_on_c, 7, 67, 105
9, 402708, Note_on_c, 7, 67, 0
9, 402708, Note_on_c, 7, 64, 105
9, 402948, Note_on_c, 7, 64, 0
9, 402948, Note_on_c, 7, 60, 105
9, 403188, Note_on_c, 7, 60, 0
9, 403188, Note_on_c, 7, 67, 105
9, 403428, Note_on_c, 7, 67, 0
9, 403428, Note_on_c, 7, 71, 105
9, 403668, Note_on_c, 7, 71, 0
9, 403668, Note_on_c, 7, 74, 105
9, 403908, Note_on_c, 7, 74, 0
9, 403908, Note_on_c, 7, 67, 105
9, 404148, Note_on_c, 7, 67, 0
9, 404148, Note_on_c, 7, 72, 105
9, 404388, Note_on_c, 7, 72, 0
9, 404388, Note_on_c, 7, 67, 105
9, 404628, Note_on_c, 7, 67, 0
9, 404628, Note_on_c, 7, 64, 105
9, 404868, Note_on_c, 7, 64, 0
9, 404868, Note_on_c, 7, 60, 105
9, 405108, Note_on_c, 7, 60, 0
9, 405108, Note_on_c, 7, 55, 105
9, 405588, Note_on_c, 7, 55, 0
9, 405588, Note_on_c, 7, 67, 105
9, 406068, Note_on_c, 7, 67, 0
9, 406068, Note_on_c, 7, 55, 105
9, 406548, Note_on_c, 7, 55, 0
9, 410868, Note_on_c, 7, 60, 70
9, 411828, Note_on_c, 7, 64, 70
9, 411917, Note_on_c, 7, 60, 0
9, 412687, Note_on_c, 7, 64, 0
9, 412788, Note_on_c, 7, 62, 70
9, 413748, Note_on_c, 7, 55, 70
9, 413842, Note_on_c, 7, 62, 0
9, 414647, Note_on_c, 7, 55, 0
9, 414708, Note_on_c, 7, 60, 70
9, 415668, Note_on_c, 7, 64, 70
9, 415782, Note_on_c, 7, 60, 0
9, 416547, Note_on_c, 7, 64, 0
9, 416628, Note_on_c, 7, 62, 70
9, 417588, Note_on_c, 7, 55, 70
9, 417707, Note_on_c, 7, 62, 0
9, 418487, Note_on_c, 7, 55, 0
9, 418548, Note_on_c, 7, 60, 70
9, 419508, Note_on_c, 7, 58, 70
9, 419612, Note_on_c, 7, 60, 0
9, 420392, Note_on_c, 7, 58, 0
9, 420468, Note_on_c, 7, 57, 70
9, 421428, Note_on_c, 7, 53, 70
9, 421527, Note_on_c, 7, 57, 0
9, 422277, Note_on_c, 7, 53, 0
9, 422388, Note_on_c, 7, 52, 70
9, 423348, Note_on_c, 7, 64, 70
9, 423457, Note_on_c, 7, 52, 0
9, 424192, Note_on_c, 7, 64, 0
9, 424308, Note_on_c, 7, 65, 70
9, 424788, Note_on_c, 7, 65, 0
9, 425508, Note_on_c, 7, 72, 70
9, 425604, Note_on_c, 7, 72, 0
9, 425748, Note_on_c, 7, 67, 70
9, 425844, Note_on_c, 7, 67, 0
9, 425988, Note_on_c, 7, 64, 70
9, 426084, Note_on_c, 7, 64, 0
9, 426228, Note_on_c, 7, 65, 70
9, 426708, Note_on_c, 7, 65, 0
9, 427428, Note_on_c, 7, 60, 70
9, 427524, Note_on_c, 7, 60, 0
9, 427668, Note_on_c, 7, 55, 70
9, 427764, Note_on_c, 7, 55, 0
9, 427908, Note_on_c, 7, 52, 70
9, 428004, Note_on_c, 7, 52, 0
9, 428148, Note_on_c, 7, 50, 70
9, 428628, Note_on_c, 7, 50, 0
9, 428628, Note_on_c, 7, 62, 70
9, 429108, Note_on_c, 7, 62, 0
9, 429588, Note_on_c, 7, 67, 70
9, 430068, Note_on_c, 7, 67, 0
9, 430548, Note_on_c, 7, 60, 70
9, 431028, Note_on_c, 7, 60, 0
9, 431508, Note_on_c, 7, 57, 70
9, 431988, Note_on_c, 7, 57, 0
9, 431988, Note_on_c, 7, 53, 70
9, 432948, Note_on_c, 7, 53, 0
9, 432948, Note_on_c, 7, 55, 70
9, 433668, Note_on_c, 7, 55, 0
9, 433668, Note_on_c, 7, 53, 73
9, 433908, Note_on_c, 7, 53, 0
9, 433908, Note_on_c, 7, 52, 68
9, 434004, Note_on_c, 7, 52, 0
9, 439668, Note_on_c, 7, 53, 70
9, 440628, Note_on_c, 7, 55, 70
9, 440707, Note_on_c, 7, 53, 0
9, 441512, Note_on_c, 7, 55, 0
9, 449267, Control_c, 7, 0, 0
9, 449268, Program_c, 7, 45
9, 450228, Note_on_c, 7, 60, 70
9, 450228, Note_on_c, 7, 64, 70
9, 450468, Note_on_c, 7, 64, 0
9, 450468, Note_on_c, 7, 60, 0
9, 450708, Note_on_c, 7, 62, 70
9, 450708, Note_on_c, 7, 65, 70
9, 450948, Note_on_c, 7, 65, 0
9, 450948, Note_on_c, 7, 62, 0
9, 451188, Note_on_c, 7, 64, 70
9, 451188, Note_on_c, 7, 67, 70
9, 451668, Note_on_c, 7, 67, 0
9, 451668, Note_on_c, 7, 64, 0
9, 452148, Note_on_c, 7, 60, 70
9, 452148, Note_on_c, 7, 64, 70
9, 452388, Note_on_c, 7, 64, 0
9, 452388, Note_on_c, 7, 60, 0
9, 452388, Note_on_c, 7, 60, 70
9, 452388, Note_on_c, 7, 64, 70
9, 452628, Note_on_c, 7, 64, 0
9, 452628, Note_on_c, 7, 60, 0
9, 452628, Note_on_c, 7, 62, 70
9, 452628, Note_on_c, 7, 65, 70
9, 452868, Note_on_c, 7, 65, 0
9, 452868, Note_on_c, 7, 62, 0
9, 452868, Note_on_c, 7, 62, 70
9, 452868, Note_on_c, 7, 65, 70
9, 453108, Note_on_c, 7, 65, 0
9, 453108, Note_on_c, 7, 62, 0
9, 453108, Note_on_c, 7, 64, 70
9, 453108, Note_on_c, 7, 67, 70
9, 453588, Note_on_c, 7, 67, 0
9, 453588, Note_on_c, 7, 64, 0
9, 454068, Note_on_c, 7, 60, 70
9, 454068, Note_on_c, 7, 64, 70
9, 454308, Note_on_c, 7, 64, 0
9, 454308, Note_on_c, 7, 60, 0
9, 454548, Note_on_c, 7, 62, 70
9, 454548, Note_on_c, 7, 65, 70
9, 454788, Note_on_c, 7, 65, 0
9, 454788, Note_on_c, 7, 62, 0
9, 455028, Note_on_c, 7, 64, 70
9, 455028, Note_on_c, 7, 67, 70
9, 455268, Note_on_c, 7, 67, 0
9, 455268, Note_on_c, 7, 64, 0
9, 455508, Note_on_c, 7, 62, 70
9, 455508, Note_on_c, 7, 65, 70
9, 455748, Note_on_c, 7, 65, 0
9, 455748, Note_on_c, 7, 62, 0
9, 455988, Note_on_c, 7, 60, 70
9, 455988, Note_on_c, 7, 64, 70
9, 456228, Note_on_c, 7, 64, 0
9, 456228, Note_on_c, 7, 60, 0
9, 456468, Note_on_c, 7, 59, 70
9, 456468, Note_on_c, 7, 62, 70
9, 456708, Note_on_c, 7, 62, 0
9, 456708, Note_on_c, 7, 59, 0
9, 456948, Note_on_c, 7, 60, 70
9, 456948, Note_on_c, 7, 64, 70
9, 457428, Note_on_c, 7, 64, 0
9, 457428, Note_on_c, 7, 60, 0
9, 457908, Note_on_c, 7, 65, 70
9, 458388, Note_on_c, 7, 65, 0
9, 458868, Note_on_c, 7, 67, 70
9, 459348, Note_on_c, 7, 67, 0
9, 459828, Note_on_c, 7, 55, 70
9, 460308, Note_on_c, 7, 55, 0
9, 460427, Control_c, 7, 0, 0
9, 460428, Program_c, 7, 48
9, 460788, Note_on_c, 7, 52, 70
9, 461748, Note_on_c, 7, 53, 70
9, 461832, Note_on_c, 7, 52, 0
9, 462657, Note_on_c, 7, 53, 0
9, 462708, Note_on_c, 7, 55, 70
9, 462876, Note_on_c, 7, 55, 0
9, 462948, Note_on_c, 7, 67, 70
9, 463116, Note_on_c, 7, 67, 0
9, 463188, Note_on_c, 7, 67, 70
9, 463356, Note_on_c, 7, 67, 0
9, 463428, Note_on_c, 7, 67, 70
9, 463596, Note_on_c, 7, 67, 0
9, 463668, Note_on_c, 7, 67, 70
9, 463836, Note_on_c, 7, 67, 0
9, 463908, Note_on_c, 7, 67, 70
9, 464076, Note_on_c, 7, 67, 0
9, 464148, Note_on_c, 7, 67, 70
9, 464316, Note_on_c, 7, 67, 0
9, 464388, Note_on_c, 7, 67, 70
9, 464556, Note_on_c, 7, 67, 0
9, 464628, Note_on_c, 7, 67, 70
9, 464796, Note_on_c, 7, 67, 0
9, 464868, Note_on_c, 7, 67, 74
9, 465036, Note_on_c, 7, 67, 0
9, 465108, Note_on_c, 7, 67, 78
9, 465276, Note_on_c, 7, 67, 0
9, 465348, Note_on_c, 7, 67, 83
9, 465516, Note_on_c, 7, 67, 0
9, 465588, Note_on_c, 7, 67, 87
9, 465756, Note_on_c, 7, 67, 0
9, 465828, Note_on_c, 7, 67, 91
9, 465996, Note_on_c, 7, 67, 0
9, 466068, Note_on_c, 7, 67, 96
9, 466236, Note_on_c, 7, 67, 0
9, 466308, Note_on_c, 7, 67, 100
9, 466476, Note_on_c, 7, 67, 0
9, 466548, Note_on_c, 7, 67, 105
9, 467004, Note_on_c, 7, 67, 0
9, 467508, Note_on_c, 7, 72, 105
9, 468192, Note_on_c, 7, 72, 0
9, 468228, Note_on_c, 7, 67, 105
9, 468456, Note_on_c, 7, 67, 0
9, 468468, Note_on_c, 7, 64, 105
9, 468696, Note_on_c, 7, 64, 0
9, 468708, Note_on_c, 7, 60, 105
9, 468936, Note_on_c, 7, 60, 0
9, 468948, Note_on_c, 7, 64, 105
9, 469176, Note_on_c, 7, 64, 0
9, 469188, Note_on_c, 7, 67, 105
9, 469416, Note_on_c, 7, 67, 0
9, 469428, Note_on_c, 7, 72, 105
9, 470112, Note_on_c, 7, 72, 0
9, 470148, Note_on_c, 7, 67, 105
9, 470376, Note_on_c, 7, 67, 0
9, 470388, Note_on_c, 7, 67, 105
9, 471108, Note_on_c, 7, 67, 0
9, 471108, Note_on_c, 7, 67, 105
9, 471348, Note_on_c, 7, 67, 0
9, 471348, Note_on_c, 7, 64, 105
9, 472068, Note_on_c, 7, 64, 0
9, 472068, Note_on_c, 7, 64, 105
9, 472308, Note_on_c, 7, 64, 0
9, 472308, Note_on_c, 7, 60, 105
9, 473028, Note_on_c, 7, 60, 0
9, 473028, Note_on_c, 7, 60, 105
9, 473268, Note_on_c, 7, 60, 0
9, 473268, Note_on_c, 7, 57, 105
9, 473988, Note_on_c, 7, 57, 0
9, 473988, Note_on_c, 7, 57, 105
9, 474228, Note_on_c, 7, 57, 0
9, 474228, Note_on_c, 7, 57, 105
9, 474468, Note_on_c, 7, 57, 0
9, 474468, Note_on_c, 7, 61, 105
9, 474708, Note_on_c, 7, 61, 0
9, 474708, Note_on_c, 7, 62, 105
9, 474948, Note_on_c, 7, 62, 0
9, 474948, Note_on_c, 7, 64, 105
9, 475188, Note_on_c, 7, 64, 0
9, 475188, Note_on_c, 7, 65, 105
9, 475428, Note_on_c, 7, 65, 0
9, 475428, Note_on_c, 7, 65, 105
9, 475668, Note_on_c, 7, 65, 0
9, 475668, Note_on_c, 7, 66, 105
9, 475908, Note_on_c, 7, 66, 0
9, 475908, Note_on_c, 7, 66, 105
9, 476148, Note_on_c, 7, 66, 0
9, 476148, Note_on_c, 7, 67, 105
9, 476388, Note_on_c, 7, 67, 0
9, 476388, Note_on_c, 7, 71, 105
9, 476628, Note_on_c, 7, 71, 0
9, 476628, Note_on_c, 7, 74, 105
9, 476868, Note_on_c, 7, 74, 0
9, 476868, Note_on_c, 7, 67, 105
9, 477108, Note_on_c, 7, 67, 0
9, 477108, Note_on_c, 7, 72, 105
9, 477348, Note_on_c, 7, 72, 0
9, 477348, Note_on_c, 7, 67, 105
9, 477588, Note_on_c, 7, 67, 0
9, 477588, Note_on_c, 7, 64, 105
9, 477828, Note_on_c, 7, 64, 0
9, 477828, Note_on_c, 7, 60, 105
9, 478068, Note_on_c, 7, 60, 0
9, 478068, Note_on_c, 7, 67, 105
9, 478308, Note_on_c, 7, 67, 0
9, 478308, Note_on_c, 7, 71, 105
9, 478548, Note_on_c, 7, 71, 0
9, 478548, Note_on_c, 7, 74, 105
9, 478788, Note_on_c, 7, 74, 0
9, 478788, Note_on_c, 7, 67, 105
9, 479028, Note_on_c, 7, 67, 0
9, 479028, Note_on_c, 7, 72, 105
9, 479268, Note_on_c, 7, 72, 0
9, 479268, Note_on_c, 7, 67, 105
9, 479508, Note_on_c, 7, 67, 0
9, 479508, Note_on_c, 7, 64, 105
9, 479748, Note_on_c, 7, 64, 0
9, 479748, Note_on_c, 7, 60, 105
9, 479988, Note_on_c, 7, 60, 0
9, 479988, Note_on_c, 7, 55, 119
9, 480468, Note_on_c, 7, 55, 0
9, 481908, Note_on_c, 7, 48, 105
9, 481908, Note_on_c, 7, 60, 105
9, 482388, Note_on_c, 7, 60, 0
9, 482388, Note_on_c, 7, 48, 0
9, 482388, Note_on_c, 7, 69, 105
9, 482388, Note_on_c, 7, 72, 105
9, 482484, Note_on_c, 7, 72, 0
9, 482484, Note_on_c, 7, 69, 0
9, 482868, Note_on_c, 7, 67, 105
9, 482868, Note_on_c, 7, 71, 105
9, 482964, Note_on_c, 7, 71, 0
9, 482964, Note_on_c, 7, 67, 0
9, 483348, Note_on_c, 7, 65, 105
9, 483348, Note_on_c, 7, 69, 105
9, 483444, Note_on_c, 7, 69, 0
9, 483444, Note_on_c, 7, 65, 0
9, 483828, Note_on_c, 7, 64, 105
9, 483828, Note_on_c, 7, 67, 105
9, 484548, Note_on_c, 7, 67, 0
9, 484548, Note_on_c, 7, 64, 0
9, 484548, Note_on_c, 7, 62, 105
9, 484548, Note_on_c, 7, 65, 105
9, 484788, Note_on_c, 7, 65, 0
9, 484788, Note_on_c, 7, 62, 0
9, 484788, Note_on_c, 7, 60, 105
9, 484788, Note_on_c, 7, 64, 105
9, 485268, Note_on_c, 7, 64, 0
9, 485268, Note_on_c, 7, 60, 0
9, 485268, Note_on_c, 7, 60, 111
9, 485268, Note_on_c, 7, 64, 111
9, 485388, Note_on_c, 7, 62, 114
9, 485388, Note_on_c, 7, 65, 114
9, 485428, Note_on_c, 7, 64, 0
9, 485428, Note_on_c, 7, 60, 0
9, 485508, Note_on_c, 7, 64, 114
9, 485508, Note_on_c, 7, 67, 114
9, 485548, Note_on_c, 7, 62, 0
9, 485548, Note_on_c, 7, 65, 0
9, 485600, Note_on_c, 7, 64, 0
9, 485628, Note_on_c, 7, 60, 113
9, 485628, Note_on_c, 7, 64, 113
9, 485668, Note_on_c, 7, 67, 0
9, 485748, Note_on_c, 7, 64, 0
9, 485748, Note_on_c, 7, 60, 0
9, 485748, Note_on_c, 7, 65, 114
9, 485748, Note_on_c, 7, 69, 114
9, 486228, Note_on_c, 7, 69, 0
9, 486228, Note_on_c, 7, 65, 0
9, 486228, Note_on_c, 7, 60, 70
9, 486228, Note_on_c, 7, 69, 70
9, 486324, Note_on_c, 7, 69, 0
9, 486324, Note_on_c, 7, 60, 0
9, 486708, Note_on_c, 7, 59, 70
9, 486708, Note_on_c, 7, 67, 70
9, 486804, Note_on_c, 7, 67, 0
9, 486804, Note_on_c, 7, 59, 0
9, 487188, Note_on_c, 7, 57, 70
9, 487188, Note_on_c, 7, 65, 70
9, 487284, Note_on_c, 7, 65, 0
9, 487284, Note_on_c, 7, 57, 0
9, 487668, Note_on_c, 7, 55, 70
9, 487668, Note_on_c, 7, 64, 70
9, 488388, Note_on_c, 7, 64, 0
9, 488388, Note_on_c, 7, 55, 0
9, 488388, Note_on_c, 7, 53, 70
9, 488388, Note_on_c, 7, 62, 70
9, 488628, Note_on_c, 7, 62, 0
9, 488628, Note_on_c, 7, 53, 0
9, 488628, Note_on_c, 7, 52, 70
9, 488628, Note_on_c, 7, 60, 70
9, 489108, Note_on_c, 7, 60, 0
9, 489108, Note_on_c, 7, 52, 0
9, 489108, Note_on_c, 7, 60, 114
9, 489228, Note_on_c, 7, 59, 119
9, 489228, Note_on_c, 7, 62, 119
9, 489268, Note_on_c, 7, 60, 0
9, 489348, Note_on_c, 7, 60, 116
9, 489348, Note_on_c, 7, 64, 116
9, 489388, Note_on_c, 7, 62, 0
9, 489388, Note_on_c, 7, 59, 0
9, 489453, Note_on_c, 7, 60, 0
9, 489468, Note_on_c, 7, 55, 113
9, 489468, Note_on_c, 7, 60, 113
9, 489508, Note_on_c, 7, 64, 0
9, 489588, Note_on_c, 7, 60, 0
9, 489588, Note_on_c, 7, 55, 0
9, 489588, Note_on_c, 7, 59, 113
9, 489828, Note_on_c, 7, 59, 0
9, 489828, Note_on_c, 7, 74, 105
9, 490068, Note_on_c, 7, 74, 0
9, 490068, Note_on_c, 7, 71, 105
9, 490308, Note_on_c, 7, 71, 0
9, 490308, Note_on_c, 7, 67, 105
9, 490548, Note_on_c, 7, 67, 0
9, 490548, Note_on_c, 7, 65, 105
9, 490788, Note_on_c, 7, 65, 0
9, 490788, Note_on_c, 7, 62, 105
9, 491028, Note_on_c, 7, 62, 0
9, 491028, Note_on_c, 7, 59, 105
9, 491268, Note_on_c, 7, 59, 0
9, 491268, Note_on_c, 7, 55, 105
9, 491508, Note_on_c, 7, 55, 0
9, 491508, Note_on_c, 7, 60, 105
9, 491748, Note_on_c, 7, 60, 0
9, 491748, Note_on_c, 7, 76, 105
9, 491988, Note_on_c, 7, 76, 0
9, 491988, Note_on_c, 7, 72, 105
9, 492228, Note_on_c, 7, 72, 0
9, 492228, Note_on_c, 7, 68, 105
9, 492468, Note_on_c, 7, 68, 0
9, 492468, Note_on_c, 7, 69, 105
9, 492708, Note_on_c, 7, 69, 0
9, 492708, Note_on_c, 7, 72, 105
9, 492948, Note_on_c, 7, 72, 0
9, 492948, Note_on_c, 7, 69, 105
9, 493188, Note_on_c, 7, 69, 0
9, 493188, Note_on_c, 7, 64, 105
9, 493428, Note_on_c, 7, 64, 0
9, 493428, Note_on_c, 7, 65, 105
9, 493596, Note_on_c, 7, 65, 0
9, 493668, Note_on_c, 7, 65, 105
9, 493836, Note_on_c, 7, 65, 0
9, 493908, Note_on_c, 7, 65, 105
9, 494076, Note_on_c, 7, 65, 0
9, 494148, Note_on_c, 7, 65, 105
9, 494316, Note_on_c, 7, 65, 0
9, 494388, Note_on_c, 7, 67, 105
9, 494556, Note_on_c, 7, 67, 0
9, 494628, Note_on_c, 7, 67, 105
9, 494796, Note_on_c, 7, 67, 0
9, 494868, Note_on_c, 7, 67, 105
9, 495036, Note_on_c, 7, 67, 0
9, 495108, Note_on_c, 7, 67, 105
9, 495276, Note_on_c, 7, 67, 0
9, 495348, Note_on_c, 7, 64, 105
9, 495516, Note_on_c, 7, 64, 0
9, 495588, Note_on_c, 7, 64, 105
9, 495756, Note_on_c, 7, 64, 0
9, 495828, Note_on_c, 7, 64, 105
9, 495996, Note_on_c, 7, 64, 0
9, 496068, Note_on_c, 7, 64, 105
9, 496236, Note_on_c, 7, 64, 0
9, 496308, Note_on_c, 7, 65, 105
9, 496476, Note_on_c, 7, 65, 0
9, 496548, Note_on_c, 7, 65, 105
9, 496716, Note_on_c, 7, 65, 0
9, 496788, Note_on_c, 7, 65, 105
9, 496956, Note_on_c, 7, 65, 0
9, 497028, Note_on_c, 7, 65, 105
9, 497196, Note_on_c, 7, 65, 0
9, 497268, Note_on_c, 7, 67, 105
9, 497436, Note_on_c, 7, 67, 0
9, 497508, Note_on_c, 7, 67, 105
9, 497676, Note_on_c, 7, 67, 0
9, 497748, Note_on_c, 7, 67, 105
9, 497916, Note_on_c, 7, 67, 0
9, 497988, Note_on_c, 7, 67, 105
9, 498156, Note_on_c, 7, 67, 0
9, 498228, Note_on_c, 7, 67, 105
9, 498396, Note_on_c, 7, 67, 0
9, 498468, Note_on_c, 7, 67, 105
9, 498636, Note_on_c, 7, 67, 0
9, 498708, Note_on_c, 7, 55, 105
9, 498876, Note_on_c, 7, 55, 0
9, 498948, Note_on_c, 7, 55, 105
9, 499116, Note_on_c, 7, 55, 0
9, 499188, Note_on_c, 7, 60, 105
9, 499428, Note_on_c, 7, 60, 0
9, 499428, Note_on_c, 7, 64, 105
9, 499668, Note_on_c, 7, 64, 0
9, 499668, Note_on_c, 7, 67, 105
9, 499908, Note_on_c, 7, 67, 0
9, 499908, Note_on_c, 7, 64, 105
9, 500148, Note_on_c, 7, 64, 0
9, 500148, Note_on_c, 7, 60, 105
9, 500388, Note_on_c, 7, 60, 0
9, 500388, Note_on_c, 7, 64, 105
9, 500628, Note_on_c, 7, 64, 0
9, 500628, Note_on_c, 7, 67, 105
9, 500868, Note_on_c, 7, 67, 0
9, 500868, Note_on_c, 7, 64, 105
9, 501108, Note_on_c, 7, 64, 0
9, 501108, Note_on_c, 7, 60, 105
9, 501348, Note_on_c, 7, 60, 0
9, 501348, Note_on_c, 7, 64, 105
9, 501588, Note_on_c, 7, 64, 0
9, 501588, Note_on_c, 7, 67, 105
9, 501828, Note_on_c, 7, 67, 0
9, 501828, Note_on_c, 7, 64, 105
9, 502068, Note_on_c, 7, 64, 0
9, 502068, Note_on_c, 7, 60, 105
9, 502308, Note_on_c, 7, 60, 0
9, 502308, Note_on_c, 7, 64, 105
9, 502548, Note_on_c, 7, 64, 0
9, 502548, Note_on_c, 7, 67, 105
9, 502788, Note_on_c, 7, 67, 0
9, 502788, Note_on_c, 7, 64, 105
9, 503028, Note_on_c, 7, 64, 0
9, 503028, Note_on_c, 7, 60, 105
9, 503484, Note_on_c, 7, 60, 0
9, 503988, Note_on_c, 7, 72, 105
9, 504672, Note_on_c, 7, 72, 0
9, 504708, Note_on_c, 7, 67, 105
9, 504936, Note_on_c, 7, 67, 0
9, 504948, Note_on_c, 7, 64, 105
9, 505176, Note_on_c, 7, 64, 0
9, 505188, Note_on_c, 7, 60, 105
9, 505416, Note_on_c, 7, 60, 0
9, 505428, Note_on_c, 7, 64, 105
9, 505656, Note_on_c, 7, 64, 0
9, 505668, Note_on_c, 7, 67, 105
9, 505896, Note_on_c, 7, 67, 0
9, 505908, Note_on_c, 7, 72, 105
9, 506592, Note_on_c, 7, 72, 0
9, 506628, Note_on_c, 7, 67, 105
9, 506856, Note_on_c, 7, 67, 0
9, 506868, Note_on_c, 7, 64, 105
9, 507108, Note_on_c, 7, 64, 0
9, 507108, Note_on_c, 7, 60, 105
9, 507348, Note_on_c, 7, 60, 0
9, 507348, Note_on_c, 7, 64, 105
9, 507588, Note_on_c, 7, 64, 0
9, 507588, Note_on_c, 7, 67, 105
9, 507828, Note_on_c, 7, 67, 0
9, 507828, Note_on_c, 7, 64, 105
9, 508068, Note_on_c, 7, 64, 0
9, 508068, Note_on_c, 7, 60, 105
9, 508308, Note_on_c, 7, 60, 0
9, 508308, Note_on_c, 7, 64, 105
9, 508548, Note_on_c, 7, 64, 0
9, 508548, Note_on_c, 7, 67, 105
9, 508788, Note_on_c, 7, 67, 0
9, 508788, Note_on_c, 7, 48, 105
9, 508788, Note_on_c, 7, 55, 105
9, 508788, Note_on_c, 7, 64, 105
9, 509268, Note_on_c, 7, 64, 0
9, 509268, Note_on_c, 7, 55, 0
9, 509268, Note_on_c, 7, 48, 0
9, 510720, System_exclusive, 0A, 41, 10, 42, 12, 40, 00, 7F, 00, 41, F7
9, 510720, End_track
10, 0, Start_track
10, 0, Title_t, "Celli e K. Bass"
10, 0, Control_c, 8, 0, 0
10, 0, Control_c, 8, 7, 90
10, 0, Control_c, 8, 10, 85
10, 0, Control_c, 8, 91, 82
10, 0, Control_c, 8, 93, 58
10, 1, Control_c, 8, 32, 1
10, 2, Program_c, 8, 48
10, 1912, Note_on_c, 8, 60, 105
10, 2596, Note_on_c, 8, 60, 0
10, 2632, Note_on_c, 8, 55, 105
10, 2860, Note_on_c, 8, 55, 0
10, 2872, Note_on_c, 8, 52, 105
10, 3100, Note_on_c, 8, 52, 0
10, 3112, Note_on_c, 8, 48, 105
10, 3340, Note_on_c, 8, 48, 0
10, 3352, Note_on_c, 8, 52, 105
10, 3580, Note_on_c, 8, 52, 0
10, 3592, Note_on_c, 8, 55, 105
10, 3820, Note_on_c, 8, 55, 0
10, 3832, Note_on_c, 8, 60, 105
10, 4516, Note_on_c, 8, 60, 0
10, 4552, Note_on_c, 8, 55, 105
10, 4780, Note_on_c, 8, 55, 0
10, 4792, Note_on_c, 8, 52, 105
10, 5020, Note_on_c, 8, 52, 0
10, 5032, Note_on_c, 8, 48, 105
10, 5260, Note_on_c, 8, 48, 0
10, 5272, Note_on_c, 8, 52, 105
10, 5500, Note_on_c, 8, 52, 0
10, 5512, Note_on_c, 8, 55, 105
10, 5740, Note_on_c, 8, 55, 0
10, 5752, Note_on_c, 8, 60, 105
10, 6208, Note_on_c, 8, 60, 0
10, 6232, Note_on_c, 8, 48, 70
10, 6712, Note_on_c, 8, 47, 70
10, 6776, Note_on_c, 8, 48, 0
10, 7192, Note_on_c, 8, 48, 70
10, 7251, Note_on_c, 8, 47, 0
10, 7611, Note_on_c, 8, 48, 0
10, 7672, Note_on_c, 8, 50, 105
10, 7864, Note_on_c, 8, 50, 0
10, 8152, Note_on_c, 8, 50, 70
10, 8632, Note_on_c, 8, 49, 70
10, 8716, Note_on_c, 8, 50, 0
10, 9112, Note_on_c, 8, 50, 70
10, 9196, Note_on_c, 8, 49, 0
10, 9521, Note_on_c, 8, 50, 0
10, 9592, Note_on_c, 8, 52, 105
10, 9784, Note_on_c, 8, 52, 0
10, 10072, Note_on_c, 8, 52, 70
10, 10552, Note_on_c, 8, 51, 70
10, 10646, Note_on_c, 8, 52, 0
10, 11032, Note_on_c, 8, 52, 70
10, 11121, Note_on_c, 8, 51, 0
10, 11441, Note_on_c, 8, 52, 0
10, 11512, Note_on_c, 8, 53, 71
10, 11992, Note_on_c, 8, 55, 79
10, 12086, Note_on_c, 8, 53, 0
10, 12472, Note_on_c, 8, 57, 88
10, 12556, Note_on_c, 8, 55, 0
10, 12952, Note_on_c, 8, 59, 97
10, 13001, Note_on_c, 8, 57, 0
10, 13351, Note_on_c, 8, 59, 0
10, 13432, Note_on_c, 8, 60, 105
10, 13672, Note_on_c, 8, 60, 0
10, 13672, Note_on_c, 8, 60, 105
10, 13912, Note_on_c, 8, 60, 0
10, 13912, Note_on_c, 8, 60, 105
10, 14152, Note_on_c, 8, 60, 0
10, 14152, Note_on_c, 8, 60, 105
10, 14392, Note_on_c, 8, 60, 0
10, 14392, Note_on_c, 8, 60, 105
10, 14632, Note_on_c, 8, 60, 0
10, 14632, Note_on_c, 8, 60, 105
10, 14872, Note_on_c, 8, 60, 0
10, 14872, Note_on_c, 8, 60, 105
10, 15112, Note_on_c, 8, 60, 0
10, 15112, Note_on_c, 8, 60, 105
10, 15352, Note_on_c, 8, 60, 0
10, 15352, Note_on_c, 8, 60, 105
10, 15592, Note_on_c, 8, 60, 0
10, 15592, Note_on_c, 8, 60, 105
10, 15832, Note_on_c, 8, 60, 0
10, 15832, Note_on_c, 8, 60, 105
10, 16072, Note_on_c, 8, 60, 0
10, 16072, Note_on_c, 8, 60, 105
10, 16312, Note_on_c, 8, 60, 0
10, 16312, Note_on_c, 8, 60, 105
10, 16552, Note_on_c, 8, 60, 0
10, 16552, Note_on_c, 8, 60, 105
10, 16792, Note_on_c, 8, 60, 0
10, 16792, Note_on_c, 8, 60, 105
10, 17032, Note_on_c, 8, 60, 0
10, 17032, Note_on_c, 8, 60, 105
10, 17272, Note_on_c, 8, 60, 0
10, 17272, Note_on_c, 8, 60, 105
10, 17368, Note_on_c, 8, 60, 0
10, 17512, Note_on_c, 8, 48, 77
10, 17752, Note_on_c, 8, 48, 0
10, 17752, Note_on_c, 8, 48, 74
10, 17992, Note_on_c, 8, 48, 0
10, 17992, Note_on_c, 8, 48, 70
10, 18232, Note_on_c, 8, 48, 0
10, 18232, Note_on_c, 8, 48, 70
10, 18472, Note_on_c, 8, 48, 0
10, 18472, Note_on_c, 8, 48, 70
10, 18712, Note_on_c, 8, 48, 0
10, 18712, Note_on_c, 8, 48, 70
10, 18952, Note_on_c, 8, 48, 0
10, 18952, Note_on_c, 8, 48, 70
10, 19192, Note_on_c, 8, 48, 0
10, 19192, Note_on_c, 8, 48, 70
10, 19432, Note_on_c, 8, 48, 0
10, 19432, Note_on_c, 8, 48, 70
10, 19672, Note_on_c, 8, 48, 0
10, 19672, Note_on_c, 8, 48, 70
10, 19912, Note_on_c, 8, 48, 0
10, 19912, Note_on_c, 8, 48, 70
10, 20152, Note_on_c, 8, 48, 0
10, 20152, Note_on_c, 8, 48, 70
10, 20392, Note_on_c, 8, 48, 0
10, 20392, Note_on_c, 8, 60, 70
10, 20632, Note_on_c, 8, 60, 0
10, 20632, Note_on_c, 8, 60, 105
10, 20872, Note_on_c, 8, 60, 0
10, 20872, Note_on_c, 8, 60, 105
10, 21112, Note_on_c, 8, 60, 0
10, 21112, Note_on_c, 8, 59, 105
10, 21352, Note_on_c, 8, 59, 0
10, 21352, Note_on_c, 8, 62, 105
10, 21592, Note_on_c, 8, 62, 0
10, 21592, Note_on_c, 8, 59, 105
10, 21832, Note_on_c, 8, 59, 0
10, 21832, Note_on_c, 8, 55, 105
10, 22072, Note_on_c, 8, 55, 0
10, 22072, Note_on_c, 8, 53, 105
10, 22312, Note_on_c, 8, 53, 0
10, 22312, Note_on_c, 8, 50, 105
10, 22552, Note_on_c, 8, 50, 0
10, 22552, Note_on_c, 8, 47, 105
10, 22792, Note_on_c, 8, 47, 0
10, 22792, Note_on_c, 8, 43, 105
10, 23032, Note_on_c, 8, 43, 0
10, 23032, Note_on_c, 8, 48, 105
10, 23272, Note_on_c, 8, 48, 0
10, 23272, Note_on_c, 8, 64, 105
10, 23512, Note_on_c, 8, 64, 0
10, 23512, Note_on_c, 8, 60, 105
10, 23752, Note_on_c, 8, 60, 0
10, 23752, Note_on_c, 8, 55, 105
10, 23992, Note_on_c, 8, 55, 0
10, 23992, Note_on_c, 8, 52, 105
10, 24232, Note_on_c, 8, 52, 0
10, 24232, Note_on_c, 8, 55, 105
10, 24472, Note_on_c, 8, 55, 0
10, 24472, Note_on_c, 8, 52, 105
10, 24712, Note_on_c, 8, 52, 0
10, 24712, Note_on_c, 8, 48, 105
10, 24952, Note_on_c, 8, 48, 0
10, 24952, Note_on_c, 8, 53, 105
10, 25192, Note_on_c, 8, 53, 0
10, 25192, Note_on_c, 8, 53, 105
10, 25432, Note_on_c, 8, 53, 0
10, 25432, Note_on_c, 8, 53, 105
10, 25672, Note_on_c, 8, 53, 0
10, 25672, Note_on_c, 8, 53, 105
10, 25912, Note_on_c, 8, 53, 0
10, 25912, Note_on_c, 8, 55, 105
10, 26152, Note_on_c, 8, 55, 0
10, 26152, Note_on_c, 8, 55, 105
10, 26392, Note_on_c, 8, 55, 0
10, 26392, Note_on_c, 8, 55, 105
10, 26632, Note_on_c, 8, 55, 0
10, 26632, Note_on_c, 8, 55, 105
10, 26872, Note_on_c, 8, 55, 0
10, 26872, Note_on_c, 8, 48, 80
10, 26968, Note_on_c, 8, 48, 0
10, 27112, Note_on_c, 8, 50, 76
10, 27208, Note_on_c, 8, 50, 0
10, 27352, Note_on_c, 8, 52, 76
10, 27448, Note_on_c, 8, 52, 0
10, 27592, Note_on_c, 8, 53, 77
10, 27688, Note_on_c, 8, 53, 0
10, 27832, Note_on_c, 8, 55, 80
10, 28312, Note_on_c, 8, 55, 0
10, 28792, Note_on_c, 8, 59, 105
10, 29032, Note_on_c, 8, 59, 0
10, 29032, Note_on_c, 8, 62, 105
10, 29272, Note_on_c, 8, 62, 0
10, 29272, Note_on_c, 8, 59, 105
10, 29512, Note_on_c, 8, 59, 0
10, 29512, Note_on_c, 8, 55, 105
10, 29752, Note_on_c, 8, 55, 0
10, 29752, Note_on_c, 8, 53, 105
10, 29992, Note_on_c, 8, 53, 0
10, 29992, Note_on_c, 8, 50, 105
10, 30232, Note_on_c, 8, 50, 0
10, 30232, Note_on_c, 8, 47, 105
10, 30472, Note_on_c, 8, 47, 0
10, 30472, Note_on_c, 8, 43, 105
10, 30712, Note_on_c, 8, 43, 0
10, 30712, Note_on_c, 8, 48, 105
10, 30952, Note_on_c, 8, 48, 0
10, 30952, Note_on_c, 8, 64, 105
10, 31192, Note_on_c, 8, 64, 0
10, 31192, Note_on_c, 8, 60, 105
10, 31432, Note_on_c, 8, 60, 0
10, 31432, Note_on_c, 8, 56, 105
10, 31672, Note_on_c, 8, 56, 0
10, 31672, Note_on_c, 8, 57, 105
10, 31912, Note_on_c, 8, 57, 0
10, 31912, Note_on_c, 8, 60, 105
10, 32152, Note_on_c, 8, 60, 0
10, 32152, Note_on_c, 8, 57, 105
10, 32392, Note_on_c, 8, 57, 0
10, 32392, Note_on_c, 8, 52, 105
10, 32632, Note_on_c, 8, 52, 0
10, 32632, Note_on_c, 8, 53, 105
10, 32872, Note_on_c, 8, 53, 0
10, 32872, Note_on_c, 8, 55, 105
10, 33112, Note_on_c, 8, 55, 0
10, 33112, Note_on_c, 8, 57, 105
10, 33352, Note_on_c, 8, 57, 0
10, 33352, Note_on_c, 8, 52, 105
10, 33592, Note_on_c, 8, 52, 0
10, 33592, Note_on_c, 8, 53, 105
10, 33832, Note_on_c, 8, 53, 0
10, 33832, Note_on_c, 8, 53, 105
10, 34072, Note_on_c, 8, 53, 0
10, 34072, Note_on_c, 8, 54, 105
10, 34312, Note_on_c, 8, 54, 0
10, 34312, Note_on_c, 8, 54, 105
10, 34552, Note_on_c, 8, 54, 0
10, 34552, Note_on_c, 8, 55, 105
10, 34792, Note_on_c, 8, 55, 0
10, 34792, Note_on_c, 8, 59, 105
10, 35032, Note_on_c, 8, 59, 0
10, 35032, Note_on_c, 8, 62, 105
10, 35272, Note_on_c, 8, 62, 0
10, 35272, Note_on_c, 8, 55, 105
10, 35512, Note_on_c, 8, 55, 0
10, 35512, Note_on_c, 8, 60, 109
10, 35752, Note_on_c, 8, 60, 0
10, 35752, Note_on_c, 8, 55, 105
10, 35992, Note_on_c, 8, 55, 0
10, 35992, Note_on_c, 8, 52, 105
10, 36232, Note_on_c, 8, 52, 0
10, 36232, Note_on_c, 8, 48, 105
10, 36472, Note_on_c, 8, 48, 0
10, 36472, Note_on_c, 8, 55, 97
10, 36712, Note_on_c, 8, 55, 0
10, 36712, Note_on_c, 8, 59, 105
10, 36952, Note_on_c, 8, 59, 0
10, 36952, Note_on_c, 8, 62, 105
10, 37192, Note_on_c, 8, 62, 0
10, 37192, Note_on_c, 8, 55, 105
10, 37432, Note_on_c, 8, 55, 0
10, 37432, Note_on_c, 8, 60, 109
10, 37672, Note_on_c, 8, 60, 0
10, 37672, Note_on_c, 8, 55, 105
10, 37912, Note_on_c, 8, 55, 0
10, 37912, Note_on_c, 8, 52, 105
10, 38152, Note_on_c, 8, 52, 0
10, 38152, Note_on_c, 8, 48, 105
10, 38392, Note_on_c, 8, 48, 0
10, 38392, Note_on_c, 8, 43, 96
10, 38872, Note_on_c, 8, 43, 0
10, 38872, Note_on_c, 8, 55, 105
10, 39352, Note_on_c, 8, 55, 0
10, 39352, Note_on_c, 8, 43, 105
10, 39832, Note_on_c, 8, 43, 0
10, 44152, Note_on_c, 8, 60, 70
10, 45112, Note_on_c, 8, 64, 70
10, 45221, Note_on_c, 8, 60, 0
10, 45976, Note_on_c, 8, 64, 0
10, 46072, Note_on_c, 8, 62, 70
10, 47032, Note_on_c, 8, 55, 70
10, 47121, Note_on_c, 8, 62, 0
10, 47901, Note_on_c, 8, 55, 0
10, 47992, Note_on_c, 8, 60, 70
10, 48952, Note_on_c, 8, 64, 70
10, 49036, Note_on_c, 8, 60, 0
10, 49831, Note_on_c, 8, 64, 0
10, 49912, Note_on_c, 8, 62, 70
10, 50872, Note_on_c, 8, 55, 70
10, 50956, Note_on_c, 8, 62, 0
10, 51736, Note_on_c, 8, 55, 0
10, 51832, Note_on_c, 8, 60, 70
10, 52792, Note_on_c, 8, 58, 70
10, 52896, Note_on_c, 8, 60, 0
10, 53676, Note_on_c, 8, 58, 0
10, 53752, Note_on_c, 8, 57, 70
10, 54712, Note_on_c, 8, 53, 70
10, 54801, Note_on_c, 8, 57, 0
10, 55591, Note_on_c, 8, 53, 0
10, 55672, Note_on_c, 8, 52, 70
10, 56632, Note_on_c, 8, 64, 70
10, 56726, Note_on_c, 8, 52, 0
10, 57521, Note_on_c, 8, 64, 0
10, 57592, Note_on_c, 8, 65, 70
10, 58072, Note_on_c, 8, 65, 0
10, 61432, Note_on_c, 8, 55, 105
10, 61600, Note_on_c, 8, 55, 0
10, 61672, Note_on_c, 8, 55, 105
10, 61840, Note_on_c, 8, 55, 0
10, 61912, Note_on_c, 8, 55, 105
10, 62080, Note_on_c, 8, 55, 0
10, 62152, Note_on_c, 8, 55, 105
10, 62320, Note_on_c, 8, 55, 0
10, 62392, Note_on_c, 8, 55, 105
10, 62560, Note_on_c, 8, 55, 0
10, 62632, Note_on_c, 8, 55, 105
10, 62800, Note_on_c, 8, 55, 0
10, 62872, Note_on_c, 8, 55, 105
10, 63040, Note_on_c, 8, 55, 0
10, 63112, Note_on_c, 8, 55, 105
10, 63280, Note_on_c, 8, 55, 0
10, 63352, Note_on_c, 8, 55, 105
10, 63520, Note_on_c, 8, 55, 0
10, 63592, Note_on_c, 8, 55, 105
10, 63760, Note_on_c, 8, 55, 0
10, 63832, Note_on_c, 8, 55, 105
10, 64000, Note_on_c, 8, 55, 0
10, 64072, Note_on_c, 8, 55, 105
10, 64240, Note_on_c, 8, 55, 0
10, 64312, Note_on_c, 8, 55, 105
10, 64480, Note_on_c, 8, 55, 0
10, 64552, Note_on_c, 8, 55, 105
10, 64720, Note_on_c, 8, 55, 0
10, 64792, Note_on_c, 8, 55, 105
10, 64960, Note_on_c, 8, 55, 0
10, 65032, Note_on_c, 8, 55, 105
10, 65200, Note_on_c, 8, 55, 0
10, 65272, Note_on_c, 8, 48, 105
10, 65752, Note_on_c, 8, 48, 0
10, 72952, Note_on_c, 8, 52, 105
10, 73120, Note_on_c, 8, 52, 0
10, 73192, Note_on_c, 8, 52, 105
10, 73360, Note_on_c, 8, 52, 0
10, 73432, Note_on_c, 8, 52, 105
10, 73600, Note_on_c, 8, 52, 0
10, 73672, Note_on_c, 8, 52, 105
10, 73840, Note_on_c, 8, 52, 0
10, 73912, Note_on_c, 8, 53, 105
10, 74080, Note_on_c, 8, 53, 0
10, 74152, Note_on_c, 8, 53, 105
10, 74320, Note_on_c, 8, 53, 0
10, 74392, Note_on_c, 8, 53, 105
10, 74560, Note_on_c, 8, 53, 0
10, 74632, Note_on_c, 8, 53, 105
10, 74800, Note_on_c, 8, 53, 0
10, 74872, Note_on_c, 8, 55, 105
10, 75040, Note_on_c, 8, 55, 0
10, 75112, Note_on_c, 8, 55, 105
10, 75280, Note_on_c, 8, 55, 0
10, 75352, Note_on_c, 8, 55, 105
10, 75520, Note_on_c, 8, 55, 0
10, 75592, Note_on_c, 8, 55, 105
10, 75760, Note_on_c, 8, 55, 0
10, 75832, Note_on_c, 8, 55, 105
10, 76000, Note_on_c, 8, 55, 0
10, 76072, Note_on_c, 8, 55, 105
10, 76240, Note_on_c, 8, 55, 0
10, 76312, Note_on_c, 8, 43, 105
10, 76480, Note_on_c, 8, 43, 0
10, 76552, Note_on_c, 8, 43, 105
10, 76720, Note_on_c, 8, 43, 0
10, 76792, Note_on_c, 8, 48, 105
10, 77032, Note_on_c, 8, 48, 0
10, 77032, Note_on_c, 8, 52, 105
10, 77272, Note_on_c, 8, 52, 0
10, 77272, Note_on_c, 8, 55, 105
10, 77512, Note_on_c, 8, 55, 0
10, 77512, Note_on_c, 8, 52, 105
10, 77752, Note_on_c, 8, 52, 0
10, 77752, Note_on_c, 8, 48, 105
10, 77992, Note_on_c, 8, 48, 0
10, 77992, Note_on_c, 8, 52, 105
10, 78232, Note_on_c, 8, 52, 0
10, 78232, Note_on_c, 8, 55, 105
10, 78472, Note_on_c, 8, 55, 0
10, 78472, Note_on_c, 8, 52, 105
10, 78712, Note_on_c, 8, 52, 0
10, 78712, Note_on_c, 8, 48, 105
10, 78952, Note_on_c, 8, 48, 0
10, 78952, Note_on_c, 8, 52, 105
10, 79192, Note_on_c, 8, 52, 0
10, 79192, Note_on_c, 8, 55, 105
10, 79432, Note_on_c, 8, 55, 0
10, 79432, Note_on_c, 8, 52, 105
10, 79672, Note_on_c, 8, 52, 0
10, 79672, Note_on_c, 8, 48, 105
10, 79912, Note_on_c, 8, 48, 0
10, 79912, Note_on_c, 8, 52, 105
10, 80152, Note_on_c, 8, 52, 0
10, 80152, Note_on_c, 8, 55, 105
10, 80392, Note_on_c, 8, 55, 0
10, 80392, Note_on_c, 8, 52, 105
10, 80632, Note_on_c, 8, 52, 0
10, 80632, Note_on_c, 8, 48, 105
10, 81071, Note_on_c, 8, 48, 0
10, 81112, Note_on_c, 8, 60, 81
10, 81592, Note_on_c, 8, 59, 70
10, 81666, Note_on_c, 8, 60, 0
10, 82072, Note_on_c, 8, 57, 70
10, 82141, Note_on_c, 8, 59, 0
10, 82481, Note_on_c, 8, 57, 0
10, 82552, Note_on_c, 8, 55, 105
10, 82786, Note_on_c, 8, 55, 0
10, 83032, Note_on_c, 8, 53, 70
10, 83512, Note_on_c, 8, 52, 70
10, 83561, Note_on_c, 8, 53, 0
10, 83992, Note_on_c, 8, 50, 70
10, 84066, Note_on_c, 8, 52, 0
10, 84421, Note_on_c, 8, 50, 0
10, 84472, Note_on_c, 8, 48, 105
10, 85156, Note_on_c, 8, 48, 0
10, 85192, Note_on_c, 8, 55, 105
10, 85420, Note_on_c, 8, 55, 0
10, 85432, Note_on_c, 8, 52, 105
10, 85660, Note_on_c, 8, 52, 0
10, 85672, Note_on_c, 8, 48, 105
10, 85900, Note_on_c, 8, 48, 0
10, 85912, Note_on_c, 8, 52, 105
10, 86140, Note_on_c, 8, 52, 0
10, 86152, Note_on_c, 8, 55, 105
10, 86380, Note_on_c, 8, 55, 0
10, 86392, Note_on_c, 8, 60, 105
10, 87076, Note_on_c, 8, 60, 0
10, 87112, Note_on_c, 8, 55, 105
10, 87340, Note_on_c, 8, 55, 0
10, 87352, Note_on_c, 8, 52, 105
10, 87580, Note_on_c, 8, 52, 0
10, 87592, Note_on_c, 8, 48, 105
10, 87820, Note_on_c, 8, 48, 0
10, 87832, Note_on_c, 8, 52, 105
10, 88060, Note_on_c, 8, 52, 0
10, 88072, Note_on_c, 8, 55, 105
10, 88300, Note_on_c, 8, 55, 0
10, 88312, Note_on_c, 8, 60, 105
10, 88792, Note_on_c, 8, 60, 0
10, 88792, Note_on_c, 8, 48, 70
10, 89272, Note_on_c, 8, 47, 70
10, 89341, Note_on_c, 8, 48, 0
10, 89752, Note_on_c, 8, 48, 70
10, 89831, Note_on_c, 8, 47, 0
10, 90161, Note_on_c, 8, 48, 0
10, 90232, Note_on_c, 8, 50, 70
10, 90424, Note_on_c, 8, 50, 0
10, 90712, Note_on_c, 8, 50, 70
10, 91192, Note_on_c, 8, 49, 70
10, 91271, Note_on_c, 8, 50, 0
10, 91672, Note_on_c, 8, 50, 70
10, 91756, Note_on_c, 8, 49, 0
10, 92081, Note_on_c, 8, 50, 0
10, 92152, Note_on_c, 8, 52, 70
10, 92344, Note_on_c, 8, 52, 0
10, 92632, Note_on_c, 8, 52, 70
10, 93112, Note_on_c, 8, 51, 70
10, 93191, Note_on_c, 8, 52, 0
10, 93592, Note_on_c, 8, 52, 70
10, 93681, Note_on_c, 8, 51, 0
10, 94011, Note_on_c, 8, 52, 0
10, 94072, Note_on_c, 8, 53, 70
10, 94552, Note_on_c, 8, 55, 70
10, 94606, Note_on_c, 8, 53, 0
10, 95032, Note_on_c, 8, 57, 70
10, 95111, Note_on_c, 8, 55, 0
10, 95512, Note_on_c, 8, 59, 70
10, 95586, Note_on_c, 8, 57, 0
10, 95931, Note_on_c, 8, 59, 0
10, 95992, Note_on_c, 8, 60, 70
10, 96472, Note_on_c, 8, 60, 0
10, 103672, Note_on_c, 8, 48, 70
10, 104152, Note_on_c, 8, 48, 0
10, 105592, Note_on_c, 8, 48, 70
10, 106072, Note_on_c, 8, 48, 0
10, 107512, Note_on_c, 8, 48, 70
10, 107992, Note_on_c, 8, 48, 0
10, 109432, Note_on_c, 8, 53, 70
10, 110392, Note_on_c, 8, 55, 70
10, 110491, Note_on_c, 8, 53, 0
10, 111286, Note_on_c, 8, 55, 0
10, 111352, Note_on_c, 8, 48, 70
10, 111832, Note_on_c, 8, 48, 0
10, 113272, Note_on_c, 8, 48, 70
10, 113752, Note_on_c, 8, 48, 0
10, 115192, Note_on_c, 8, 48, 70
10, 115672, Note_on_c, 8, 48, 0
10, 117112, Note_on_c, 8, 55, 70
10, 118072, Note_on_c, 8, 55, 0
10, 118072, Note_on_c, 8, 43, 70
10, 119032, Note_on_c, 8, 43, 0
10, 119032, Note_on_c, 8, 48, 70
10, 119512, Note_on_c, 8, 48, 0
10, 128872, Note_on_c, 8, 55, 105
10, 128968, Note_on_c, 8, 55, 0
10, 129112, Note_on_c, 8, 59, 105
10, 129208, Note_on_c, 8, 59, 0
10, 129352, Note_on_c, 8, 55, 105
10, 129448, Note_on_c, 8, 55, 0
10, 129592, Note_on_c, 8, 50, 105
10, 129688, Note_on_c, 8, 50, 0
10, 129832, Note_on_c, 8, 55, 105
10, 129928, Note_on_c, 8, 55, 0
10, 130072, Note_on_c, 8, 47, 105
10, 130168, Note_on_c, 8, 47, 0
10, 130312, Note_on_c, 8, 50, 105
10, 130408, Note_on_c, 8, 50, 0
10, 130552, Note_on_c, 8, 43, 105
10, 131032, Note_on_c, 8, 43, 0
10, 147831, Control_c, 8, 0, 0
10, 147832, Program_c, 8, 45
10, 153592, Note_on_c, 8, 43, 70
10, 153832, Note_on_c, 8, 43, 0
10, 154072, Note_on_c, 8, 55, 70
10, 154312, Note_on_c, 8, 55, 0
10, 154552, Note_on_c, 8, 62, 70
10, 154792, Note_on_c, 8, 62, 0
10, 155032, Note_on_c, 8, 59, 70
10, 155272, Note_on_c, 8, 59, 0
10, 155512, Note_on_c, 8, 55, 70
10, 155752, Note_on_c, 8, 55, 0
10, 155992, Note_on_c, 8, 59, 70
10, 156232, Note_on_c, 8, 59, 0
10, 156472, Note_on_c, 8, 55, 70
10, 156712, Note_on_c, 8, 55, 0
10, 156952, Note_on_c, 8, 43, 70
10, 157192, Note_on_c, 8, 43, 0
10, 157432, Note_on_c, 8, 50, 70
10, 157912, Note_on_c, 8, 50, 0
10, 161272, Note_on_c, 8, 43, 70
10, 161512, Note_on_c, 8, 43, 0
10, 161752, Note_on_c, 8, 55, 70
10, 161992, Note_on_c, 8, 55, 0
10, 162232, Note_on_c, 8, 62, 70
10, 162472, Note_on_c, 8, 62, 0
10, 162712, Note_on_c, 8, 59, 70
10, 162952, Note_on_c, 8, 59, 0
10, 163192, Note_on_c, 8, 55, 70
10, 163432, Note_on_c, 8, 55, 0
10, 163672, Note_on_c, 8, 59, 70
10, 163912, Note_on_c, 8, 59, 0
10, 164152, Note_on_c, 8, 55, 70
10, 164392, Note_on_c, 8, 55, 0
10, 164632, Note_on_c, 8, 43, 70
10, 164872, Note_on_c, 8, 43, 0
10, 164872, Control_c, 8, 0, 0
10, 164872, Control_c, 8, 0, 0
10, 164872, Control_c, 8, 0, 0
10, 164872, Control_c, 8, 0, 0
10, 164872, Control_c, 8, 0, 0
10, 164872, Control_c, 8, 0, 0
10, 164872, Control_c, 8, 0, 0
10, 164872, Control_c, 8, 0, 0
10, 164872, Control_c, 8, 0, 0
10, 164872, Control_c, 8, 0, 0
10, 164872, Control_c, 8, 0, 0
10, 164872, Control_c, 8, 0, 0
10, 164872, Control_c, 8, 0, 0
10, 164872, Control_c, 8, 0, 0
10, 164872, Control_c, 8, 0, 0
10, 164872, Program_c, 8, 48
10, 165112, Note_on_c, 8, 50, 105
10, 165352, Note_on_c, 8, 50, 0
10, 165352, Note_on_c, 8, 54, 105
10, 165592, Note_on_c, 8, 54, 0
10, 165592, Note_on_c, 8, 57, 105
10, 165832, Note_on_c, 8, 57, 0
10, 165832, Note_on_c, 8, 50, 105
10, 166072, Note_on_c, 8, 50, 0
10, 166072, Note_on_c, 8, 55, 105
10, 166312, Note_on_c, 8, 55, 0
10, 166312, Note_on_c, 8, 50, 105
10, 166552, Note_on_c, 8, 50, 0
10, 166552, Note_on_c, 8, 47, 105
10, 166792, Note_on_c, 8, 47, 0
10, 166792, Note_on_c, 8, 43, 105
10, 167032, Note_on_c, 8, 43, 0
10, 167032, Note_on_c, 8, 50, 105
10, 167272, Note_on_c, 8, 50, 0
10, 167272, Note_on_c, 8, 54, 105
10, 167512, Note_on_c, 8, 54, 0
10, 167512, Note_on_c, 8, 57, 105
10, 167752, Note_on_c, 8, 57, 0
10, 167752, Note_on_c, 8, 50, 105
10, 167992, Note_on_c, 8, 50, 0
10, 167992, Note_on_c, 8, 55, 105
10, 168232, Note_on_c, 8, 55, 0
10, 168232, Note_on_c, 8, 62, 105
10, 168472, Note_on_c, 8, 62, 0
10, 168472, Note_on_c, 8, 59, 105
10, 168712, Note_on_c, 8, 59, 0
10, 168712, Note_on_c, 8, 55, 105
10, 168952, Note_on_c, 8, 55, 0
10, 168952, Note_on_c, 8, 50, 105
10, 169432, Note_on_c, 8, 50, 0
10, 169432, Note_on_c, 8, 62, 105
10, 169912, Note_on_c, 8, 62, 0
10, 169912, Note_on_c, 8, 50, 105
10, 170392, Note_on_c, 8, 50, 0
10, 172791, Control_c, 8, 0, 0
10, 172792, Program_c, 8, 45
10, 174712, Note_on_c, 8, 55, 70
10, 175192, Note_on_c, 8, 55, 0
10, 175672, Note_on_c, 8, 59, 70
10, 176152, Note_on_c, 8, 59, 0
10, 176632, Note_on_c, 8, 57, 70
10, 177112, Note_on_c, 8, 57, 0
10, 177592, Note_on_c, 8, 50, 70
10, 178072, Note_on_c, 8, 50, 0
10, 178552, Note_on_c, 8, 55, 70
10, 179032, Note_on_c, 8, 55, 0
10, 179512, Note_on_c, 8, 59, 70
10, 179992, Note_on_c, 8, 59, 0
10, 180472, Note_on_c, 8, 57, 70
10, 180952, Note_on_c, 8, 57, 0
10, 181432, Note_on_c, 8, 50, 70
10, 181912, Note_on_c, 8, 50, 0
10, 182392, Note_on_c, 8, 55, 70
10, 182872, Note_on_c, 8, 55, 0
10, 183352, Note_on_c, 8, 55, 70
10, 183832, Note_on_c, 8, 55, 0
10, 184312, Note_on_c, 8, 55, 70
10, 184792, Note_on_c, 8, 55, 0
10, 185272, Note_on_c, 8, 55, 70
10, 185752, Note_on_c, 8, 55, 0
10, 186232, Note_on_c, 8, 55, 70
10, 186712, Note_on_c, 8, 55, 0
10, 187192, Note_on_c, 8, 55, 70
10, 187672, Note_on_c, 8, 55, 0
10, 190071, Control_c, 8, 0, 0
10, 190072, Program_c, 8, 48
10, 191992, Note_on_c, 8, 57, 70
10, 192472, Note_on_c, 8, 57, 0
10, 192952, Note_on_c, 8, 50, 70
10, 193432, Note_on_c, 8, 50, 0
10, 193912, Note_on_c, 8, 55, 70
10, 194392, Note_on_c, 8, 55, 0
10, 194872, Note_on_c, 8, 52, 70
10, 195352, Note_on_c, 8, 52, 0
10, 195832, Note_on_c, 8, 48, 70
10, 196792, Note_on_c, 8, 50, 70
10, 196881, Note_on_c, 8, 48, 0
10, 197681, Note_on_c, 8, 50, 0
10, 197752, Note_on_c, 8, 55, 70
10, 197848, Note_on_c, 8, 55, 0
10, 197992, Note_on_c, 8, 57, 72
10, 198088, Note_on_c, 8, 57, 0
10, 198232, Note_on_c, 8, 59, 74
10, 198328, Note_on_c, 8, 59, 0
10, 198472, Note_on_c, 8, 60, 76
10, 198568, Note_on_c, 8, 60, 0
10, 198712, Note_on_c, 8, 62, 78
10, 199192, Note_on_c, 8, 62, 0
10, 224632, Note_on_c, 8, 47, 70
10, 225592, Note_on_c, 8, 48, 70
10, 225686, Note_on_c, 8, 47, 0
10, 226486, Note_on_c, 8, 48, 0
10, 226552, Note_on_c, 8, 50, 70
10, 227032, Note_on_c, 8, 50, 0
10, 227512, Note_on_c, 8, 50, 70
10, 227992, Note_on_c, 8, 50, 0
10, 228472, Note_on_c, 8, 50, 70
10, 228640, Note_on_c, 8, 50, 0
10, 228712, Note_on_c, 8, 50, 73
10, 228880, Note_on_c, 8, 50, 0
10, 228952, Note_on_c, 8, 50, 77
10, 229120, Note_on_c, 8, 50, 0
10, 229192, Note_on_c, 8, 50, 81
10, 229360, Note_on_c, 8, 50, 0
10, 229432, Note_on_c, 8, 50, 85
10, 229600, Note_on_c, 8, 50, 0
10, 229672, Note_on_c, 8, 50, 89
10, 229840, Note_on_c, 8, 50, 0
10, 229912, Note_on_c, 8, 50, 93
10, 230080, Note_on_c, 8, 50, 0
10, 230152, Note_on_c, 8, 50, 97
10, 230320, Note_on_c, 8, 50, 0
10, 230392, Note_on_c, 8, 55, 101
10, 230560, Note_on_c, 8, 55, 0
10, 230632, Note_on_c, 8, 55, 105
10, 230800, Note_on_c, 8, 55, 0
10, 230872, Note_on_c, 8, 55, 105
10, 231040, Note_on_c, 8, 55, 0
10, 231112, Note_on_c, 8, 55, 105
10, 231280, Note_on_c, 8, 55, 0
10, 231352, Note_on_c, 8, 55, 105
10, 231520, Note_on_c, 8, 55, 0
10, 231592, Note_on_c, 8, 55, 105
10, 231760, Note_on_c, 8, 55, 0
10, 231832, Note_on_c, 8, 55, 105
10, 232000, Note_on_c, 8, 55, 0
10, 232072, Note_on_c, 8, 55, 105
10, 232240, Note_on_c, 8, 55, 0
10, 232312, Note_on_c, 8, 55, 105
10, 232480, Note_on_c, 8, 55, 0
10, 232552, Note_on_c, 8, 55, 105
10, 232720, Note_on_c, 8, 55, 0
10, 232792, Note_on_c, 8, 55, 105
10, 232960, Note_on_c, 8, 55, 0
10, 233032, Note_on_c, 8, 55, 105
10, 233200, Note_on_c, 8, 55, 0
10, 233272, Note_on_c, 8, 55, 105
10, 233440, Note_on_c, 8, 55, 0
10, 233512, Note_on_c, 8, 55, 105
10, 233680, Note_on_c, 8, 55, 0
10, 233752, Note_on_c, 8, 55, 105
10, 233920, Note_on_c, 8, 55, 0
10, 233992, Note_on_c, 8, 55, 105
10, 234160, Note_on_c, 8, 55, 0
10, 234232, Note_on_c, 8, 55, 105
10, 234400, Note_on_c, 8, 55, 0
10, 234472, Note_on_c, 8, 55, 105
10, 234640, Note_on_c, 8, 55, 0
10, 234712, Note_on_c, 8, 55, 70
10, 234880, Note_on_c, 8, 55, 0
10, 234952, Note_on_c, 8, 55, 70
10, 235120, Note_on_c, 8, 55, 0
10, 235192, Note_on_c, 8, 55, 70
10, 235360, Note_on_c, 8, 55, 0
10, 235432, Note_on_c, 8, 55, 70
10, 235600, Note_on_c, 8, 55, 0
10, 235672, Note_on_c, 8, 55, 70
10, 235840, Note_on_c, 8, 55, 0
10, 235912, Note_on_c, 8, 55, 70
10, 236080, Note_on_c, 8, 55, 0
10, 236152, Note_on_c, 8, 55, 70
10, 236320, Note_on_c, 8, 55, 0
10, 236392, Note_on_c, 8, 55, 70
10, 236560, Note_on_c, 8, 55, 0
10, 236632, Note_on_c, 8, 55, 70
10, 236800, Note_on_c, 8, 55, 0
10, 236872, Note_on_c, 8, 55, 70
10, 237040, Note_on_c, 8, 55, 0
10, 237112, Note_on_c, 8, 55, 70
10, 237280, Note_on_c, 8, 55, 0
10, 237352, Note_on_c, 8, 55, 70
10, 237520, Note_on_c, 8, 55, 0
10, 237592, Note_on_c, 8, 55, 105
10, 237760, Note_on_c, 8, 55, 0
10, 237832, Note_on_c, 8, 55, 105
10, 238000, Note_on_c, 8, 55, 0
10, 238072, Note_on_c, 8, 54, 105
10, 238312, Note_on_c, 8, 54, 0
10, 238312, Note_on_c, 8, 57, 105
10, 238552, Note_on_c, 8, 57, 0
10, 238552, Note_on_c, 8, 54, 105
10, 238792, Note_on_c, 8, 54, 0
10, 238792, Note_on_c, 8, 50, 105
10, 239032, Note_on_c, 8, 50, 0
10, 239032, Note_on_c, 8, 54, 105
10, 239272, Note_on_c, 8, 54, 0
10, 239272, Note_on_c, 8, 57, 105
10, 239512, Note_on_c, 8, 57, 0
10, 239512, Note_on_c, 8, 54, 105
10, 239752, Note_on_c, 8, 54, 0
10, 239752, Note_on_c, 8, 50, 105
10, 239992, Note_on_c, 8, 50, 0
10, 239992, Note_on_c, 8, 55, 105
10, 240232, Note_on_c, 8, 55, 0
10, 240232, Note_on_c, 8, 59, 105
10, 240472, Note_on_c, 8, 59, 0
10, 240472, Note_on_c, 8, 55, 105
10, 240712, Note_on_c, 8, 55, 0
10, 240712, Note_on_c, 8, 50, 105
10, 240952, Note_on_c, 8, 50, 0
10, 240952, Note_on_c, 8, 47, 105
10, 241192, Note_on_c, 8, 47, 0
10, 241192, Note_on_c, 8, 50, 105
10, 241432, Note_on_c, 8, 50, 0
10, 241432, Note_on_c, 8, 47, 105
10, 241672, Note_on_c, 8, 47, 0
10, 241672, Note_on_c, 8, 43, 105
10, 241912, Note_on_c, 8, 43, 0
10, 241912, Note_on_c, 8, 48, 105
10, 242080, Note_on_c, 8, 48, 0
10, 242152, Note_on_c, 8, 48, 105
10, 242320, Note_on_c, 8, 48, 0
10, 242392, Note_on_c, 8, 48, 105
10, 242560, Note_on_c, 8, 48, 0
10, 242632, Note_on_c, 8, 48, 105
10, 242800, Note_on_c, 8, 48, 0
10, 242872, Note_on_c, 8, 50, 105
10, 243040, Note_on_c, 8, 50, 0
10, 243112, Note_on_c, 8, 50, 105
10, 243280, Note_on_c, 8, 50, 0
10, 243352, Note_on_c, 8, 50, 105
10, 243520, Note_on_c, 8, 50, 0
10, 243592, Note_on_c, 8, 50, 105
10, 243760, Note_on_c, 8, 50, 0
10, 243832, Note_on_c, 8, 47, 105
10, 244000, Note_on_c, 8, 47, 0
10, 244072, Note_on_c, 8, 47, 105
10, 244240, Note_on_c, 8, 47, 0
10, 244312, Note_on_c, 8, 47, 105
10, 244480, Note_on_c, 8, 47, 0
10, 244552, Note_on_c, 8, 47, 105
10, 244720, Note_on_c, 8, 47, 0
10, 244792, Note_on_c, 8, 48, 105
10, 244960, Note_on_c, 8, 48, 0
10, 245032, Note_on_c, 8, 48, 105
10, 245200, Note_on_c, 8, 48, 0
10, 245272, Note_on_c, 8, 48, 105
10, 245440, Note_on_c, 8, 48, 0
10, 245512, Note_on_c, 8, 48, 105
10, 245680, Note_on_c, 8, 48, 0
10, 245752, Note_on_c, 8, 50, 105
10, 245920, Note_on_c, 8, 50, 0
10, 245992, Note_on_c, 8, 50, 105
10, 246160, Note_on_c, 8, 50, 0
10, 246232, Note_on_c, 8, 50, 105
10, 246400, Note_on_c, 8, 50, 0
10, 246472, Note_on_c, 8, 50, 105
10, 246640, Note_on_c, 8, 50, 0
10, 246712, Note_on_c, 8, 50, 105
10, 246880, Note_on_c, 8, 50, 0
10, 246952, Note_on_c, 8, 50, 105
10, 247120, Note_on_c, 8, 50, 0
10, 247192, Note_on_c, 8, 50, 105
10, 247360, Note_on_c, 8, 50, 0
10, 247432, Note_on_c, 8, 50, 105
10, 247600, Note_on_c, 8, 50, 0
10, 247672, Note_on_c, 8, 50, 105
10, 247840, Note_on_c, 8, 50, 0
10, 247912, Note_on_c, 8, 50, 105
10, 248080, Note_on_c, 8, 50, 0
10, 248152, Note_on_c, 8, 50, 105
10, 248320, Note_on_c, 8, 50, 0
10, 248392, Note_on_c, 8, 50, 105
10, 248560, Note_on_c, 8, 50, 0
10, 248632, Note_on_c, 8, 50, 105
10, 248800, Note_on_c, 8, 50, 0
10, 248872, Note_on_c, 8, 50, 105
10, 249040, Note_on_c, 8, 50, 0
10, 249112, Note_on_c, 8, 50, 105
10, 249280, Note_on_c, 8, 50, 0
10, 249352, Note_on_c, 8, 50, 105
10, 249520, Note_on_c, 8, 50, 0
10, 249592, Note_on_c, 8, 43, 105
10, 250072, Note_on_c, 8, 43, 0
10, 250072, Note_on_c, 8, 55, 70
10, 250552, Note_on_c, 8, 54, 70
10, 250626, Note_on_c, 8, 55, 0
10, 251032, Note_on_c, 8, 52, 70
10, 251101, Note_on_c, 8, 54, 0
10, 251471, Note_on_c, 8, 52, 0
10, 251512, Note_on_c, 8, 51, 105
10, 251756, Note_on_c, 8, 51, 0
10, 251992, Note_on_c, 8, 52, 70
10, 252472, Note_on_c, 8, 50, 70
10, 252541, Note_on_c, 8, 52, 0
10, 252952, Note_on_c, 8, 48, 70
10, 253021, Note_on_c, 8, 50, 0
10, 253381, Note_on_c, 8, 48, 0
10, 253432, Note_on_c, 8, 47, 105
10, 253681, Note_on_c, 8, 47, 0
10, 253912, Note_on_c, 8, 48, 70
10, 254392, Note_on_c, 8, 47, 70
10, 254456, Note_on_c, 8, 48, 0
10, 254872, Note_on_c, 8, 45, 70
10, 254951, Note_on_c, 8, 47, 0
10, 255296, Note_on_c, 8, 45, 0
10, 255352, Note_on_c, 8, 44, 105
10, 255832, Note_on_c, 8, 44, 0
10, 256312, Note_on_c, 8, 44, 70
10, 256792, Note_on_c, 8, 44, 0
10, 257272, Note_on_c, 8, 45, 70
10, 257752, Note_on_c, 8, 45, 0
10, 258232, Note_on_c, 8, 45, 70
10, 258712, Note_on_c, 8, 45, 0
10, 259192, Note_on_c, 8, 47, 70
10, 259672, Note_on_c, 8, 47, 0
10, 260152, Note_on_c, 8, 47, 70
10, 260632, Note_on_c, 8, 47, 0
10, 261112, Note_on_c, 8, 48, 70
10, 261592, Note_on_c, 8, 48, 0
10, 262072, Note_on_c, 8, 48, 70
10, 262552, Note_on_c, 8, 48, 0
10, 263032, Note_on_c, 8, 50, 70
10, 263992, Note_on_c, 8, 50, 0
10, 263992, Note_on_c, 8, 52, 70
10, 264472, Note_on_c, 8, 52, 0
10, 264472, Note_on_c, 8, 52, 70
10, 264952, Note_on_c, 8, 52, 0
10, 264952, Note_on_c, 8, 57, 70
10, 265144, Note_on_c, 8, 57, 0
10, 265432, Note_on_c, 8, 59, 70
10, 265624, Note_on_c, 8, 59, 0
10, 265912, Note_on_c, 8, 60, 70
10, 266104, Note_on_c, 8, 60, 0
10, 266872, Note_on_c, 8, 62, 70
10, 267832, Note_on_c, 8, 62, 0
10, 267832, Note_on_c, 8, 64, 70
10, 268312, Note_on_c, 8, 64, 0
10, 268312, Note_on_c, 8, 52, 70
10, 268792, Note_on_c, 8, 52, 0
10, 268792, Note_on_c, 8, 57, 105
10, 268984, Note_on_c, 8, 57, 0
10, 269272, Note_on_c, 8, 60, 70
10, 269752, Note_on_c, 8, 59, 70
10, 269846, Note_on_c, 8, 60, 0
10, 270232, Note_on_c, 8, 57, 70
10, 270301, Note_on_c, 8, 59, 0
10, 270676, Note_on_c, 8, 57, 0
10, 270712, Note_on_c, 8, 56, 105
10, 270904, Note_on_c, 8, 56, 0
10, 271192, Note_on_c, 8, 57, 70
10, 271672, Note_on_c, 8, 55, 70
10, 271741, Note_on_c, 8, 57, 0
10, 272152, Note_on_c, 8, 53, 70
10, 272221, Note_on_c, 8, 55, 0
10, 272591, Note_on_c, 8, 53, 0
10, 272632, Note_on_c, 8, 52, 105
10, 272824, Note_on_c, 8, 52, 0
10, 273112, Note_on_c, 8, 53, 70
10, 273592, Note_on_c, 8, 52, 70
10, 273676, Note_on_c, 8, 53, 0
10, 274072, Note_on_c, 8, 50, 70
10, 274141, Note_on_c, 8, 52, 0
10, 274516, Note_on_c, 8, 50, 0
10, 274552, Note_on_c, 8, 49, 105
10, 275032, Note_on_c, 8, 49, 0
10, 275512, Note_on_c, 8, 49, 70
10, 275992, Note_on_c, 8, 49, 0
10, 276472, Note_on_c, 8, 50, 70
10, 276952, Note_on_c, 8, 50, 0
10, 277432, Note_on_c, 8, 50, 70
10, 277912, Note_on_c, 8, 50, 0
10, 278392, Note_on_c, 8, 52, 70
10, 278872, Note_on_c, 8, 52, 0
10, 279352, Note_on_c, 8, 52, 70
10, 279832, Note_on_c, 8, 52, 0
10, 280312, Note_on_c, 8, 53, 70
10, 280792, Note_on_c, 8, 53, 0
10, 281272, Note_on_c, 8, 53, 70
10, 281752, Note_on_c, 8, 53, 0
10, 282232, Note_on_c, 8, 55, 70
10, 283192, Note_on_c, 8, 55, 0
10, 283192, Note_on_c, 8, 57, 70
10, 283672, Note_on_c, 8, 57, 0
10, 283672, Note_on_c, 8, 57, 70
10, 284152, Note_on_c, 8, 57, 0
10, 284152, Note_on_c, 8, 50, 70
10, 284344, Note_on_c, 8, 50, 0
10, 284632, Note_on_c, 8, 52, 70
10, 284824, Note_on_c, 8, 52, 0
10, 285112, Note_on_c, 8, 53, 70
10, 285304, Note_on_c, 8, 53, 0
10, 286072, Note_on_c, 8, 58, 70
10, 287032, Note_on_c, 8, 58, 0
10, 287032, Note_on_c, 8, 57, 70
10, 287512, Note_on_c, 8, 57, 0
10, 287512, Note_on_c, 8, 45, 70
10, 287992, Note_on_c, 8, 45, 0
10, 287992, Note_on_c, 8, 50, 70
10, 288472, Note_on_c, 8, 50, 0
10, 318712, Note_on_c, 8, 55, 70
10, 319192, Note_on_c, 8, 55, 0
10, 319672, Note_on_c, 8, 55, 70
10, 320152, Note_on_c, 8, 55, 0
10, 320632, Note_on_c, 8, 55, 80
10, 321112, Note_on_c, 8, 55, 0
10, 321592, Note_on_c, 8, 55, 90
10, 322072, Note_on_c, 8, 55, 0
10, 322552, Note_on_c, 8, 55, 105
10, 323032, Note_on_c, 8, 55, 0
10, 323512, Note_on_c, 8, 55, 105
10, 323992, Note_on_c, 8, 55, 0
10, 324472, Note_on_c, 8, 60, 105
10, 325156, Note_on_c, 8, 60, 0
10, 325192, Note_on_c, 8, 55, 105
10, 325420, Note_on_c, 8, 55, 0
10, 325432, Note_on_c, 8, 52, 105
10, 325660, Note_on_c, 8, 52, 0
10, 325672, Note_on_c, 8, 48, 105
10, 325900, Note_on_c, 8, 48, 0
10, 325912, Note_on_c, 8, 52, 105
10, 326140, Note_on_c, 8, 52, 0
10, 326152, Note_on_c, 8, 55, 105
10, 326380, Note_on_c, 8, 55, 0
10, 326392, Note_on_c, 8, 60, 105
10, 327076, Note_on_c, 8, 60, 0
10, 327112, Note_on_c, 8, 55, 105
10, 327340, Note_on_c, 8, 55, 0
10, 327352, Note_on_c, 8, 52, 105
10, 327580, Note_on_c, 8, 52, 0
10, 327592, Note_on_c, 8, 48, 105
10, 327820, Note_on_c, 8, 48, 0
10, 327832, Note_on_c, 8, 52, 105
10, 328060, Note_on_c, 8, 52, 0
10, 328072, Note_on_c, 8, 55, 105
10, 328300, Note_on_c, 8, 55, 0
10, 328312, Note_on_c, 8, 60, 105
10, 328792, Note_on_c, 8, 60, 0
10, 328792, Note_on_c, 8, 48, 70
10, 329272, Note_on_c, 8, 47, 70
10, 329341, Note_on_c, 8, 48, 0
10, 329752, Note_on_c, 8, 48, 70
10, 329821, Note_on_c, 8, 47, 0
10, 330196, Note_on_c, 8, 48, 0
10, 330232, Note_on_c, 8, 50, 105
10, 330424, Note_on_c, 8, 50, 0
10, 330712, Note_on_c, 8, 50, 70
10, 331192, Note_on_c, 8, 49, 70
10, 331261, Note_on_c, 8, 50, 0
10, 331672, Note_on_c, 8, 50, 70
10, 331741, Note_on_c, 8, 49, 0
10, 332106, Note_on_c, 8, 50, 0
10, 332152, Note_on_c, 8, 52, 105
10, 332344, Note_on_c, 8, 52, 0
10, 332632, Note_on_c, 8, 52, 70
10, 333112, Note_on_c, 8, 51, 70
10, 333171, Note_on_c, 8, 52, 0
10, 333592, Note_on_c, 8, 52, 70
10, 333671, Note_on_c, 8, 51, 0
10, 334026, Note_on_c, 8, 52, 0
10, 334072, Note_on_c, 8, 53, 70
10, 334552, Note_on_c, 8, 55, 80
10, 334611, Note_on_c, 8, 53, 0
10, 335032, Note_on_c, 8, 57, 90
10, 335091, Note_on_c, 8, 55, 0
10, 335512, Note_on_c, 8, 59, 90
10, 335591, Note_on_c, 8, 57, 0
10, 335951, Note_on_c, 8, 59, 0
10, 335992, Note_on_c, 8, 60, 105
10, 336472, Note_on_c, 8, 60, 0
10, 361192, Note_on_c, 8, 55, 105
10, 361288, Note_on_c, 8, 55, 0
10, 361432, Note_on_c, 8, 59, 105
10, 361528, Note_on_c, 8, 59, 0
10, 361672, Note_on_c, 8, 55, 105
10, 361768, Note_on_c, 8, 55, 0
10, 361912, Note_on_c, 8, 50, 105
10, 362008, Note_on_c, 8, 50, 0
10, 362152, Note_on_c, 8, 55, 105
10, 362248, Note_on_c, 8, 55, 0
10, 362392, Note_on_c, 8, 47, 105
10, 362488, Note_on_c, 8, 47, 0
10, 362632, Note_on_c, 8, 50, 105
10, 362728, Note_on_c, 8, 50, 0
10, 362872, Note_on_c, 8, 43, 105
10, 363352, Note_on_c, 8, 43, 0
10, 382072, Note_on_c, 8, 53, 70
10, 383471, Note_on_c, 8, 53, 0
10, 383512, Note_on_c, 8, 49, 70
10, 383971, Note_on_c, 8, 49, 0
10, 383992, Note_on_c, 8, 50, 70
10, 384472, Note_on_c, 8, 52, 70
10, 384531, Note_on_c, 8, 50, 0
10, 384952, Note_on_c, 8, 53, 70
10, 385041, Note_on_c, 8, 52, 0
10, 385432, Note_on_c, 8, 54, 70
10, 385511, Note_on_c, 8, 53, 0
10, 385846, Note_on_c, 8, 54, 0
10, 385912, Note_on_c, 8, 55, 70
10, 386392, Note_on_c, 8, 55, 0
10, 387831, Control_c, 8, 0, 0
10, 387832, Program_c, 8, 45
10, 389752, Note_on_c, 8, 48, 70
10, 389992, Note_on_c, 8, 48, 0
10, 390232, Note_on_c, 8, 60, 70
10, 390472, Note_on_c, 8, 60, 0
10, 390712, Note_on_c, 8, 55, 70
10, 390952, Note_on_c, 8, 55, 0
10, 391192, Note_on_c, 8, 52, 70
10, 391432, Note_on_c, 8, 52, 0
10, 391672, Note_on_c, 8, 48, 70
10, 391912, Note_on_c, 8, 48, 0
10, 392152, Note_on_c, 8, 52, 70
10, 392392, Note_on_c, 8, 52, 0
10, 392632, Note_on_c, 8, 55, 70
10, 392872, Note_on_c, 8, 55, 0
10, 393112, Note_on_c, 8, 60, 70
10, 393352, Note_on_c, 8, 60, 0
10, 393592, Note_on_c, 8, 55, 70
10, 394072, Note_on_c, 8, 55, 0
10, 397432, Note_on_c, 8, 48, 70
10, 397672, Note_on_c, 8, 48, 0
10, 397912, Note_on_c, 8, 60, 70
10, 398152, Note_on_c, 8, 60, 0
10, 398392, Note_on_c, 8, 55, 70
10, 398632, Note_on_c, 8, 55, 0
10, 398872, Note_on_c, 8, 52, 70
10, 399112, Note_on_c, 8, 52, 0
10, 399352, Note_on_c, 8, 48, 70
10, 399592, Note_on_c, 8, 48, 0
10, 399832, Note_on_c, 8, 52, 70
10, 400072, Note_on_c, 8, 52, 0
10, 400312, Note_on_c, 8, 55, 70
10, 400552, Note_on_c, 8, 55, 0
10, 400792, Note_on_c, 8, 60, 70
10, 401032, Note_on_c, 8, 60, 0
10, 401037, Control_c, 8, 0, 0
10, 401037, Control_c, 8, 0, 0
10, 401037, Control_c, 8, 0, 0
10, 401037, Control_c, 8, 0, 0
10, 401037, Control_c, 8, 0, 0
10, 401037, Control_c, 8, 0, 0
10, 401037, Control_c, 8, 0, 0
10, 401037, Control_c, 8, 0, 0
10, 401037, Control_c, 8, 0, 0
10, 401037, Control_c, 8, 0, 0
10, 401037, Control_c, 8, 0, 0
10, 401037, Control_c, 8, 0, 0
10, 401037, Control_c, 8, 0, 0
10, 401037, Control_c, 8, 0, 0
10, 401037, Control_c, 8, 0, 0
10, 401037, Program_c, 8, 48
10, 401272, Note_on_c, 8, 55, 105
10, 401512, Note_on_c, 8, 55, 0
10, 401512, Note_on_c, 8, 59, 105
10, 401752, Note_on_c, 8, 59, 0
10, 401752, Note_on_c, 8, 62, 105
10, 401992, Note_on_c, 8, 62, 0
10, 401992, Note_on_c, 8, 55, 105
10, 402232, Note_on_c, 8, 55, 0
10, 402232, Note_on_c, 8, 60, 105
10, 402472, Note_on_c, 8, 60, 0
10, 402472, Note_on_c, 8, 55, 105
10, 402712, Note_on_c, 8, 55, 0
10, 402712, Note_on_c, 8, 52, 105
10, 402952, Note_on_c, 8, 52, 0
10, 402952, Note_on_c, 8, 48, 105
10, 403192, Note_on_c, 8, 48, 0
10, 403192, Note_on_c, 8, 55, 105
10, 403432, Note_on_c, 8, 55, 0
10, 403432, Note_on_c, 8, 59, 105
10, 403672, Note_on_c, 8, 59, 0
10, 403672, Note_on_c, 8, 62, 105
10, 403912, Note_on_c, 8, 62, 0
10, 403912, Note_on_c, 8, 55, 105
10, 404152, Note_on_c, 8, 55, 0
10, 404152, Note_on_c, 8, 60, 105
10, 404392, Note_on_c, 8, 60, 0
10, 404392, Note_on_c, 8, 55, 105
10, 404632, Note_on_c, 8, 55, 0
10, 404632, Note_on_c, 8, 52, 105
10, 404872, Note_on_c, 8, 52, 0
10, 404872, Note_on_c, 8, 48, 105
10, 405112, Note_on_c, 8, 48, 0
10, 405112, Note_on_c, 8, 43, 105
10, 405592, Note_on_c, 8, 43, 0
10, 405592, Note_on_c, 8, 55, 105
10, 406072, Note_on_c, 8, 55, 0
10, 406072, Note_on_c, 8, 43, 105
10, 406552, Note_on_c, 8, 43, 0
10, 408951, Control_c, 8, 0, 0
10, 408952, Program_c, 8, 45
10, 410872, Note_on_c, 8, 48, 70
10, 411352, Note_on_c, 8, 48, 0
10, 411832, Note_on_c, 8, 52, 70
10, 412312, Note_on_c, 8, 52, 0
10, 412792, Note_on_c, 8, 50, 70
10, 413272, Note_on_c, 8, 50, 0
10, 413752, Note_on_c, 8, 43, 70
10, 414232, Note_on_c, 8, 43, 0
10, 414712, Note_on_c, 8, 48, 70
10, 415192, Note_on_c, 8, 48, 0
10, 415672, Note_on_c, 8, 52, 70
10, 416152, Note_on_c, 8, 52, 0
10, 416632, Note_on_c, 8, 50, 70
10, 417112, Note_on_c, 8, 50, 0
10, 417592, Note_on_c, 8, 43, 70
10, 418072, Note_on_c, 8, 43, 0
10, 418552, Note_on_c, 8, 48, 70
10, 419032, Note_on_c, 8, 48, 0
10, 419512, Note_on_c, 8, 48, 70
10, 419992, Note_on_c, 8, 48, 0
10, 420472, Note_on_c, 8, 48, 70
10, 420952, Note_on_c, 8, 48, 0
10, 421432, Note_on_c, 8, 48, 70
10, 421912, Note_on_c, 8, 48, 0
10, 422392, Note_on_c, 8, 48, 70
10, 422872, Note_on_c, 8, 48, 0
10, 423352, Note_on_c, 8, 48, 70
10, 423832, Note_on_c, 8, 48, 0
10, 424311, Control_c, 8, 0, 0
10, 424312, Program_c, 8, 48
10, 428152, Note_on_c, 8, 50, 70
10, 429112, Note_on_c, 8, 55, 70
10, 429186, Note_on_c, 8, 50, 0
10, 429991, Note_on_c, 8, 55, 0
10, 430072, Note_on_c, 8, 48, 70
10, 431032, Note_on_c, 8, 57, 70
10, 431116, Note_on_c, 8, 48, 0
10, 431921, Note_on_c, 8, 57, 0
10, 431992, Note_on_c, 8, 53, 70
10, 432952, Note_on_c, 8, 55, 70
10, 433036, Note_on_c, 8, 53, 0
10, 433846, Note_on_c, 8, 55, 0
10, 433912, Note_on_c, 8, 48, 69
10, 434008, Note_on_c, 8, 48, 0
10, 434152, Note_on_c, 8, 50, 72
10, 434248, Note_on_c, 8, 50, 0
10, 434392, Note_on_c, 8, 52, 75
10, 434488, Note_on_c, 8, 52, 0
10, 434632, Note_on_c, 8, 53, 79
10, 434728, Note_on_c, 8, 53, 0
10, 434872, Note_on_c, 8, 55, 82
10, 435352, Note_on_c, 8, 55, 0
10, 441592, Note_on_c, 8, 48, 70
10, 442072, Note_on_c, 8, 48, 0
10, 462712, Note_on_c, 8, 55, 70
10, 463192, Note_on_c, 8, 55, 0
10, 463672, Note_on_c, 8, 55, 70
10, 464152, Note_on_c, 8, 55, 0
10, 464632, Note_on_c, 8, 55, 71
10, 464800, Note_on_c, 8, 55, 0
10, 464872, Note_on_c, 8, 55, 75
10, 465040, Note_on_c, 8, 55, 0
10, 465112, Note_on_c, 8, 55, 79
10, 465280, Note_on_c, 8, 55, 0
10, 465352, Note_on_c, 8, 55, 84
10, 465520, Note_on_c, 8, 55, 0
10, 465592, Note_on_c, 8, 55, 88
10, 465760, Note_on_c, 8, 55, 0
10, 465832, Note_on_c, 8, 55, 92
10, 466000, Note_on_c, 8, 55, 0
10, 466072, Note_on_c, 8, 55, 97
10, 466240, Note_on_c, 8, 55, 0
10, 466312, Note_on_c, 8, 55, 101
10, 466480, Note_on_c, 8, 55, 0
10, 466552, Note_on_c, 8, 48, 105
10, 467008, Note_on_c, 8, 48, 0
10, 467512, Note_on_c, 8, 60, 105
10, 468196, Note_on_c, 8, 60, 0
10, 468232, Note_on_c, 8, 55, 105
10, 468460, Note_on_c, 8, 55, 0
10, 468472, Note_on_c, 8, 52, 105
10, 468700, Note_on_c, 8, 52, 0
10, 468712, Note_on_c, 8, 48, 105
10, 468940, Note_on_c, 8, 48, 0
10, 468952, Note_on_c, 8, 52, 105
10, 469180, Note_on_c, 8, 52, 0
10, 469192, Note_on_c, 8, 55, 105
10, 469420, Note_on_c, 8, 55, 0
10, 469432, Note_on_c, 8, 60, 105
10, 470116, Note_on_c, 8, 60, 0
10, 470152, Note_on_c, 8, 55, 105
10, 470380, Note_on_c, 8, 55, 0
10, 470392, Note_on_c, 8, 52, 105
10, 470632, Note_on_c, 8, 52, 0
10, 470632, Note_on_c, 8, 48, 105
10, 470872, Note_on_c, 8, 48, 0
10, 470872, Note_on_c, 8, 52, 105
10, 471112, Note_on_c, 8, 52, 0
10, 471112, Note_on_c, 8, 55, 105
10, 471352, Note_on_c, 8, 55, 0
10, 471352, Note_on_c, 8, 60, 105
10, 471592, Note_on_c, 8, 60, 0
10, 471592, Note_on_c, 8, 57, 105
10, 471832, Note_on_c, 8, 57, 0
10, 471832, Note_on_c, 8, 60, 105
10, 472072, Note_on_c, 8, 60, 0
10, 472072, Note_on_c, 8, 64, 105
10, 472312, Note_on_c, 8, 64, 0
10, 472312, Note_on_c, 8, 57, 105
10, 472552, Note_on_c, 8, 57, 0
10, 472552, Note_on_c, 8, 53, 105
10, 472792, Note_on_c, 8, 53, 0
10, 472792, Note_on_c, 8, 57, 105
10, 473032, Note_on_c, 8, 57, 0
10, 473032, Note_on_c, 8, 60, 105
10, 473272, Note_on_c, 8, 60, 0
10, 473272, Note_on_c, 8, 53, 105
10, 473512, Note_on_c, 8, 53, 0
10, 473512, Note_on_c, 8, 50, 105
10, 473752, Note_on_c, 8, 50, 0
10, 473752, Note_on_c, 8, 53, 105
10, 473992, Note_on_c, 8, 53, 0
10, 473992, Note_on_c, 8, 57, 105
10, 474232, Note_on_c, 8, 57, 0
10, 474232, Note_on_c, 8, 53, 105
10, 474472, Note_on_c, 8, 53, 0
10, 474472, Note_on_c, 8, 49, 105
10, 474712, Note_on_c, 8, 49, 0
10, 474712, Note_on_c, 8, 50, 105
10, 474952, Note_on_c, 8, 50, 0
10, 474952, Note_on_c, 8, 52, 105
10, 475192, Note_on_c, 8, 52, 0
10, 475192, Note_on_c, 8, 53, 105
10, 475432, Note_on_c, 8, 53, 0
10, 475432, Note_on_c, 8, 53, 105
10, 475672, Note_on_c, 8, 53, 0
10, 475672, Note_on_c, 8, 54, 105
10, 475912, Note_on_c, 8, 54, 0
10, 475912, Note_on_c, 8, 54, 105
10, 476152, Note_on_c, 8, 54, 0
10, 476152, Note_on_c, 8, 55, 105
10, 476392, Note_on_c, 8, 55, 0
10, 476392, Note_on_c, 8, 59, 105
10, 476632, Note_on_c, 8, 59, 0
10, 476632, Note_on_c, 8, 62, 105
10, 476872, Note_on_c, 8, 62, 0
10, 476872, Note_on_c, 8, 55, 105
10, 477112, Note_on_c, 8, 55, 0
10, 477112, Note_on_c, 8, 60, 105
10, 477352, Note_on_c, 8, 60, 0
10, 477352, Note_on_c, 8, 55, 105
10, 477592, Note_on_c, 8, 55, 0
10, 477592, Note_on_c, 8, 52, 105
10, 477832, Note_on_c, 8, 52, 0
10, 477832, Note_on_c, 8, 48, 105
10, 478072, Note_on_c, 8, 48, 0
10, 478072, Note_on_c, 8, 55, 105
10, 478312, Note_on_c, 8, 55, 0
10, 478312, Note_on_c, 8, 59, 105
10, 478552, Note_on_c, 8, 59, 0
10, 478552, Note_on_c, 8, 62, 105
10, 478792, Note_on_c, 8, 62, 0
10, 478792, Note_on_c, 8, 55, 105
10, 479032, Note_on_c, 8, 55, 0
10, 479032, Note_on_c, 8, 60, 105
10, 479272, Note_on_c, 8, 60, 0
10, 479272, Note_on_c, 8, 55, 105
10, 479512, Note_on_c, 8, 55, 0
10, 479512, Note_on_c, 8, 52, 105
10, 479752, Note_on_c, 8, 52, 0
10, 479752, Note_on_c, 8, 48, 105
10, 479992, Note_on_c, 8, 48, 0
10, 479992, Note_on_c, 8, 43, 119
10, 480472, Note_on_c, 8, 43, 0
10, 481912, Note_on_c, 8, 48, 105
10, 482080, Note_on_c, 8, 48, 0
10, 482152, Note_on_c, 8, 60, 105
10, 482320, Note_on_c, 8, 60, 0
10, 482392, Note_on_c, 8, 60, 105
10, 482560, Note_on_c, 8, 60, 0
10, 482632, Note_on_c, 8, 60, 105
10, 482800, Note_on_c, 8, 60, 0
10, 482872, Note_on_c, 8, 60, 105
10, 483040, Note_on_c, 8, 60, 0
10, 483112, Note_on_c, 8, 60, 105
10, 483280, Note_on_c, 8, 60, 0
10, 483352, Note_on_c, 8, 60, 105
10, 483520, Note_on_c, 8, 60, 0
10, 483592, Note_on_c, 8, 60, 105
10, 483760, Note_on_c, 8, 60, 0
10, 483832, Note_on_c, 8, 60, 105
10, 484000, Note_on_c, 8, 60, 0
10, 484072, Note_on_c, 8, 60, 105
10, 484240, Note_on_c, 8, 60, 0
10, 484312, Note_on_c, 8, 60, 105
10, 484480, Note_on_c, 8, 60, 0
10, 484552, Note_on_c, 8, 60, 105
10, 484720, Note_on_c, 8, 60, 0
10, 484792, Note_on_c, 8, 60, 105
10, 484960, Note_on_c, 8, 60, 0
10, 485032, Note_on_c, 8, 60, 105
10, 485200, Note_on_c, 8, 60, 0
10, 485272, Note_on_c, 8, 60, 105
10, 485440, Note_on_c, 8, 60, 0
10, 485512, Note_on_c, 8, 60, 105
10, 485680, Note_on_c, 8, 60, 0
10, 485752, Note_on_c, 8, 60, 105
10, 485920, Note_on_c, 8, 60, 0
10, 485992, Note_on_c, 8, 48, 70
10, 486160, Note_on_c, 8, 48, 0
10, 486232, Note_on_c, 8, 48, 70
10, 486400, Note_on_c, 8, 48, 0
10, 486472, Note_on_c, 8, 48, 70
10, 486640, Note_on_c, 8, 48, 0
10, 486712, Note_on_c, 8, 48, 70
10, 486880, Note_on_c, 8, 48, 0
10, 486952, Note_on_c, 8, 48, 70
10, 487120, Note_on_c, 8, 48, 0
10, 487192, Note_on_c, 8, 48, 70
10, 487360, Note_on_c, 8, 48, 0
10, 487432, Note_on_c, 8, 48, 70
10, 487600, Note_on_c, 8, 48, 0
10, 487672, Note_on_c, 8, 48, 70
10, 487840, Note_on_c, 8, 48, 0
10, 487912, Note_on_c, 8, 48, 70
10, 488080, Note_on_c, 8, 48, 0
10, 488152, Note_on_c, 8, 48, 70
10, 488320, Note_on_c, 8, 48, 0
10, 488392, Note_on_c, 8, 48, 70
10, 488560, Note_on_c, 8, 48, 0
10, 488632, Note_on_c, 8, 48, 70
10, 488800, Note_on_c, 8, 48, 0
10, 488872, Note_on_c, 8, 60, 105
10, 489040, Note_on_c, 8, 60, 0
10, 489112, Note_on_c, 8, 60, 105
10, 489280, Note_on_c, 8, 60, 0
10, 489352, Note_on_c, 8, 60, 105
10, 489520, Note_on_c, 8, 60, 0
10, 489592, Note_on_c, 8, 59, 105
10, 489832, Note_on_c, 8, 59, 0
10, 489832, Note_on_c, 8, 62, 105
10, 490072, Note_on_c, 8, 62, 0
10, 490072, Note_on_c, 8, 59, 105
10, 490312, Note_on_c, 8, 59, 0
10, 490312, Note_on_c, 8, 55, 105
10, 490552, Note_on_c, 8, 55, 0
10, 490552, Note_on_c, 8, 53, 105
10, 490792, Note_on_c, 8, 53, 0
10, 490792, Note_on_c, 8, 50, 105
10, 491032, Note_on_c, 8, 50, 0
10, 491032, Note_on_c, 8, 47, 105
10, 491272, Note_on_c, 8, 47, 0
10, 491272, Note_on_c, 8, 43, 105
10, 491512, Note_on_c, 8, 43, 0
10, 491512, Note_on_c, 8, 48, 105
10, 491752, Note_on_c, 8, 48, 0
10, 491752, Note_on_c, 8, 64, 105
10, 491992, Note_on_c, 8, 64, 0
10, 491992, Note_on_c, 8, 60, 105
10, 492232, Note_on_c, 8, 60, 0
10, 492232, Note_on_c, 8, 56, 105
10, 492472, Note_on_c, 8, 56, 0
10, 492472, Note_on_c, 8, 57, 105
10, 492712, Note_on_c, 8, 57, 0
10, 492712, Note_on_c, 8, 60, 105
10, 492952, Note_on_c, 8, 60, 0
10, 492952, Note_on_c, 8, 57, 105
10, 493192, Note_on_c, 8, 57, 0
10, 493192, Note_on_c, 8, 52, 105
10, 493432, Note_on_c, 8, 52, 0
10, 493432, Note_on_c, 8, 53, 105
10, 493600, Note_on_c, 8, 53, 0
10, 493672, Note_on_c, 8, 53, 105
10, 493840, Note_on_c, 8, 53, 0
10, 493912, Note_on_c, 8, 53, 105
10, 494080, Note_on_c, 8, 53, 0
10, 494152, Note_on_c, 8, 53, 105
10, 494320, Note_on_c, 8, 53, 0
10, 494392, Note_on_c, 8, 55, 105
10, 494560, Note_on_c, 8, 55, 0
10, 494632, Note_on_c, 8, 55, 105
10, 494800, Note_on_c, 8, 55, 0
10, 494872, Note_on_c, 8, 55, 105
10, 495040, Note_on_c, 8, 55, 0
10, 495112, Note_on_c, 8, 55, 105
10, 495280, Note_on_c, 8, 55, 0
10, 495352, Note_on_c, 8, 52, 105
10, 495520, Note_on_c, 8, 52, 0
10, 495592, Note_on_c, 8, 52, 105
10, 495760, Note_on_c, 8, 52, 0
10, 495832, Note_on_c, 8, 52, 105
10, 496000, Note_on_c, 8, 52, 0
10, 496072, Note_on_c, 8, 52, 105
10, 496240, Note_on_c, 8, 52, 0
10, 496312, Note_on_c, 8, 53, 105
10, 496480, Note_on_c, 8, 53, 0
10, 496552, Note_on_c, 8, 53, 105
10, 496720, Note_on_c, 8, 53, 0
10, 496792, Note_on_c, 8, 53, 105
10, 496960, Note_on_c, 8, 53, 0
10, 497032, Note_on_c, 8, 53, 105
10, 497200, Note_on_c, 8, 53, 0
10, 497272, Note_on_c, 8, 55, 105
10, 497440, Note_on_c, 8, 55, 0
10, 497512, Note_on_c, 8, 55, 105
10, 497680, Note_on_c, 8, 55, 0
10, 497752, Note_on_c, 8, 55, 105
10, 497920, Note_on_c, 8, 55, 0
10, 497992, Note_on_c, 8, 55, 105
10, 498160, Note_on_c, 8, 55, 0
10, 498232, Note_on_c, 8, 55, 105
10, 498400, Note_on_c, 8, 55, 0
10, 498472, Note_on_c, 8, 55, 105
10, 498640, Note_on_c, 8, 55, 0
10, 498712, Note_on_c, 8, 43, 105
10, 498880, Note_on_c, 8, 43, 0
10, 498952, Note_on_c, 8, 43, 105
10, 499120, Note_on_c, 8, 43, 0
10, 499192, Note_on_c, 8, 48, 105
10, 499432, Note_on_c, 8, 48, 0
10, 499432, Note_on_c, 8, 52, 105
10, 499672, Note_on_c, 8, 52, 0
10, 499672, Note_on_c, 8, 55, 105
10, 499912, Note_on_c, 8, 55, 0
10, 499912, Note_on_c, 8, 52, 105
10, 500152, Note_on_c, 8, 52, 0
10, 500152, Note_on_c, 8, 48, 105
10, 500392, Note_on_c, 8, 48, 0
10, 500392, Note_on_c, 8, 52, 105
10, 500632, Note_on_c, 8, 52, 0
10, 500632, Note_on_c, 8, 55, 105
10, 500872, Note_on_c, 8, 55, 0
10, 500872, Note_on_c, 8, 52, 105
10, 501112, Note_on_c, 8, 52, 0
10, 501112, Note_on_c, 8, 48, 105
10, 501352, Note_on_c, 8, 48, 0
10, 501352, Note_on_c, 8, 52, 105
10, 501592, Note_on_c, 8, 52, 0
10, 501592, Note_on_c, 8, 55, 105
10, 501832, Note_on_c, 8, 55, 0
10, 501832, Note_on_c, 8, 52, 105
10, 502072, Note_on_c, 8, 52, 0
10, 502072, Note_on_c, 8, 48, 105
10, 502312, Note_on_c, 8, 48, 0
10, 502312, Note_on_c, 8, 52, 105
10, 502552, Note_on_c, 8, 52, 0
10, 502552, Note_on_c, 8, 55, 105
10, 502792, Note_on_c, 8, 55, 0
10, 502792, Note_on_c, 8, 52, 105
10, 503032, Note_on_c, 8, 52, 0
10, 503032, Note_on_c, 8, 60, 105
10, 503716, Note_on_c, 8, 60, 0
10, 503752, Note_on_c, 8, 55, 105
10, 503980, Note_on_c, 8, 55, 0
10, 503992, Note_on_c, 8, 52, 105
10, 504220, Note_on_c, 8, 52, 0
10, 504232, Note_on_c, 8, 48, 105
10, 504460, Note_on_c, 8, 48, 0
10, 504472, Note_on_c, 8, 52, 105
10, 504700, Note_on_c, 8, 52, 0
10, 504712, Note_on_c, 8, 55, 105
10, 504940, Note_on_c, 8, 55, 0
10, 504952, Note_on_c, 8, 60, 105
10, 505636, Note_on_c, 8, 60, 0
10, 505672, Note_on_c, 8, 55, 105
10, 505900, Note_on_c, 8, 55, 0
10, 505912, Note_on_c, 8, 52, 105
10, 506140, Note_on_c, 8, 52, 0
10, 506152, Note_on_c, 8, 48, 105
10, 506380, Note_on_c, 8, 48, 0
10, 506392, Note_on_c, 8, 52, 105
10, 506620, Note_on_c, 8, 52, 0
10, 506632, Note_on_c, 8, 55, 105
10, 506860, Note_on_c, 8, 55, 0
10, 506872, Note_on_c, 8, 60, 105
10, 507352, Note_on_c, 8, 60, 0
10, 507352, Note_on_c, 8, 60, 105
10, 507832, Note_on_c, 8, 60, 0
10, 507832, Note_on_c, 8, 55, 105
10, 508312, Note_on_c, 8, 55, 0
10, 508312, Note_on_c, 8, 52, 105
10, 508792, Note_on_c, 8, 52, 0
10, 508792, Note_on_c, 8, 48, 105
10, 509272, Note_on_c, 8, 48, 0
10, 510720, System_exclusive, 0A, 41, 10, 42, 12, 40, 00, 7F, 00, 41, F7
10, 510720, End_track
11, 0, Start_track
11, 0, Title_t, "K. Bass"
11, 0, Control_c, 10, 0, 0
11, 0, Control_c, 10, 7, 70
11, 0, Control_c, 10, 10, 100
11, 0, Control_c, 10, 91, 91
11, 0, Control_c, 10, 93, 82
11, 1, Control_c, 10, 32, 1
11, 2, Program_c, 10, 48
11, 1920, Note_on_c, 10, 48, 105
11, 2604, Note_on_c, 10, 48, 0
11, 2640, Note_on_c, 10, 43, 105
11, 2868, Note_on_c, 10, 43, 0
11, 2880, Note_on_c, 10, 40, 105
11, 3108, Note_on_c, 10, 40, 0
11, 3120, Note_on_c, 10, 36, 105
11, 3348, Note_on_c, 10, 36, 0
11, 3360, Note_on_c, 10, 40, 105
11, 3588, Note_on_c, 10, 40, 0
11, 3600, Note_on_c, 10, 43, 105
11, 3828, Note_on_c, 10, 43, 0
11, 3840, Note_on_c, 10, 48, 105
11, 4524, Note_on_c, 10, 48, 0
11, 4560, Note_on_c, 10, 43, 105
11, 4788, Note_on_c, 10, 43, 0
11, 4800, Note_on_c, 10, 40, 105
11, 5028, Note_on_c, 10, 40, 0
11, 5040, Note_on_c, 10, 36, 105
11, 5268, Note_on_c, 10, 36, 0
11, 5280, Note_on_c, 10, 40, 105
11, 5508, Note_on_c, 10, 40, 0
11, 5520, Note_on_c, 10, 43, 105
11, 5748, Note_on_c, 10, 43, 0
11, 5760, Note_on_c, 10, 48, 105
11, 6216, Note_on_c, 10, 48, 0
11, 6240, Note_on_c, 10, 36, 70
11, 6720, Note_on_c, 10, 35, 70
11, 6784, Note_on_c, 10, 36, 0
11, 7200, Note_on_c, 10, 36, 70
11, 7259, Note_on_c, 10, 35, 0
11, 7619, Note_on_c, 10, 36, 0
11, 7680, Note_on_c, 10, 38, 105
11, 7872, Note_on_c, 10, 38, 0
11, 8160, Note_on_c, 10, 38, 70
11, 8640, Note_on_c, 10, 37, 70
11, 8724, Note_on_c, 10, 38, 0
11, 9120, Note_on_c, 10, 38, 70
11, 9204, Note_on_c, 10, 37, 0
11, 9529, Note_on_c, 10, 38, 0
11, 9600, Note_on_c, 10, 40, 105
11, 9792, Note_on_c, 10, 40, 0
11, 10080, Note_on_c, 10, 40, 70
11, 10560, Note_on_c, 10, 39, 70
11, 10654, Note_on_c, 10, 40, 0
11, 11040, Note_on_c, 10, 40, 70
11, 11129, Note_on_c, 10, 39, 0
11, 11449, Note_on_c, 10, 40, 0
11, 11520, Note_on_c, 10, 41, 71
11, 12000, Note_on_c, 10, 43, 79
11, 12094, Note_on_c, 10, 41, 0
11, 12480, Note_on_c, 10, 45, 88
11, 12564, Note_on_c, 10, 43, 0
11, 12960, Note_on_c, 10, 47, 97
11, 13009, Note_on_c, 10, 45, 0
11, 13359, Note_on_c, 10, 47, 0
11, 13440, Note_on_c, 10, 48, 105
11, 13680, Note_on_c, 10, 48, 0
11, 13680, Note_on_c, 10, 48, 105
11, 13920, Note_on_c, 10, 48, 0
11, 13920, Note_on_c, 10, 48, 105
11, 14160, Note_on_c, 10, 48, 0
11, 14160, Note_on_c, 10, 48, 105
11, 14400, Note_on_c, 10, 48, 0
11, 14400, Note_on_c, 10, 48, 105
11, 14640, Note_on_c, 10, 48, 0
11, 14640, Note_on_c, 10, 48, 105
11, 14880, Note_on_c, 10, 48, 0
11, 14880, Note_on_c, 10, 48, 105
11, 15120, Note_on_c, 10, 48, 0
11, 15120, Note_on_c, 10, 48, 105
11, 15360, Note_on_c, 10, 48, 0
11, 15360, Note_on_c, 10, 48, 105
11, 15600, Note_on_c, 10, 48, 0
11, 15600, Note_on_c, 10, 48, 105
11, 15840, Note_on_c, 10, 48, 0
11, 15840, Note_on_c, 10, 48, 105
11, 16080, Note_on_c, 10, 48, 0
11, 16080, Note_on_c, 10, 48, 105
11, 16320, Note_on_c, 10, 48, 0
11, 16320, Note_on_c, 10, 48, 105
11, 16560, Note_on_c, 10, 48, 0
11, 16560, Note_on_c, 10, 48, 105
11, 16800, Note_on_c, 10, 48, 0
11, 16800, Note_on_c, 10, 48, 105
11, 17040, Note_on_c, 10, 48, 0
11, 17040, Note_on_c, 10, 48, 105
11, 17280, Note_on_c, 10, 48, 0
11, 17280, Note_on_c, 10, 48, 105
11, 17376, Note_on_c, 10, 48, 0
11, 17520, Note_on_c, 10, 36, 77
11, 17760, Note_on_c, 10, 36, 0
11, 17760, Note_on_c, 10, 36, 74
11, 18000, Note_on_c, 10, 36, 0
11, 18000, Note_on_c, 10, 36, 70
11, 18240, Note_on_c, 10, 36, 0
11, 18240, Note_on_c, 10, 36, 70
11, 18480, Note_on_c, 10, 36, 0
11, 18480, Note_on_c, 10, 36, 70
11, 18720, Note_on_c, 10, 36, 0
11, 18720, Note_on_c, 10, 36, 70
11, 18960, Note_on_c, 10, 36, 0
11, 18960, Note_on_c, 10, 36, 70
11, 19200, Note_on_c, 10, 36, 0
11, 19200, Note_on_c, 10, 36, 70
11, 19440, Note_on_c, 10, 36, 0
11, 19440, Note_on_c, 10, 36, 70
11, 19680, Note_on_c, 10, 36, 0
11, 19680, Note_on_c, 10, 36, 70
11, 19920, Note_on_c, 10, 36, 0
11, 19920, Note_on_c, 10, 36, 70
11, 20160, Note_on_c, 10, 36, 0
11, 20160, Note_on_c, 10, 36, 70
11, 20400, Note_on_c, 10, 36, 0
11, 20400, Note_on_c, 10, 48, 70
11, 20640, Note_on_c, 10, 48, 0
11, 20640, Note_on_c, 10, 48, 105
11, 20880, Note_on_c, 10, 48, 0
11, 20880, Note_on_c, 10, 48, 105
11, 21120, Note_on_c, 10, 48, 0
11, 21120, Note_on_c, 10, 47, 105
11, 21360, Note_on_c, 10, 47, 0
11, 21360, Note_on_c, 10, 50, 105
11, 21600, Note_on_c, 10, 50, 0
11, 21600, Note_on_c, 10, 47, 105
11, 21840, Note_on_c, 10, 47, 0
11, 21840, Note_on_c, 10, 43, 105
11, 22080, Note_on_c, 10, 43, 0
11, 22080, Note_on_c, 10, 41, 105
11, 22320, Note_on_c, 10, 41, 0
11, 22320, Note_on_c, 10, 38, 105
11, 22560, Note_on_c, 10, 38, 0
11, 22560, Note_on_c, 10, 35, 105
11, 22800, Note_on_c, 10, 35, 0
11, 22800, Note_on_c, 10, 31, 105
11, 23040, Note_on_c, 10, 31, 0
11, 23040, Note_on_c, 10, 36, 105
11, 23280, Note_on_c, 10, 36, 0
11, 23280, Note_on_c, 10, 52, 105
11, 23520, Note_on_c, 10, 52, 0
11, 23520, Note_on_c, 10, 48, 105
11, 23760, Note_on_c, 10, 48, 0
11, 23760, Note_on_c, 10, 43, 105
11, 24000, Note_on_c, 10, 43, 0
11, 24000, Note_on_c, 10, 40, 105
11, 24240, Note_on_c, 10, 40, 0
11, 24240, Note_on_c, 10, 43, 105
11, 24480, Note_on_c, 10, 43, 0
11, 24480, Note_on_c, 10, 40, 105
11, 24720, Note_on_c, 10, 40, 0
11, 24720, Note_on_c, 10, 36, 105
11, 24960, Note_on_c, 10, 36, 0
11, 24960, Note_on_c, 10, 41, 105
11, 25200, Note_on_c, 10, 41, 0
11, 25200, Note_on_c, 10, 41, 105
11, 25440, Note_on_c, 10, 41, 0
11, 25440, Note_on_c, 10, 41, 105
11, 25680, Note_on_c, 10, 41, 0
11, 25680, Note_on_c, 10, 41, 105
11, 25920, Note_on_c, 10, 41, 0
11, 25920, Note_on_c, 10, 43, 105
11, 26160, Note_on_c, 10, 43, 0
11, 26160, Note_on_c, 10, 43, 105
11, 26400, Note_on_c, 10, 43, 0
11, 26400, Note_on_c, 10, 43, 105
11, 26640, Note_on_c, 10, 43, 0
11, 26640, Note_on_c, 10, 43, 105
11, 26880, Note_on_c, 10, 43, 0
11, 26880, Note_on_c, 10, 36, 80
11, 26976, Note_on_c, 10, 36, 0
11, 27120, Note_on_c, 10, 38, 76
11, 27216, Note_on_c, 10, 38, 0
11, 27360, Note_on_c, 10, 40, 76
11, 27456, Note_on_c, 10, 40, 0
11, 27600, Note_on_c, 10, 41, 77
11, 27696, Note_on_c, 10, 41, 0
11, 27840, Note_on_c, 10, 43, 80
11, 28320, Note_on_c, 10, 43, 0
11, 28800, Note_on_c, 10, 47, 105
11, 29040, Note_on_c, 10, 47, 0
11, 29040, Note_on_c, 10, 50, 105
11, 29280, Note_on_c, 10, 50, 0
11, 29280, Note_on_c, 10, 47, 105
11, 29520, Note_on_c, 10, 47, 0
11, 29520, Note_on_c, 10, 43, 105
11, 29760, Note_on_c, 10, 43, 0
11, 29760, Note_on_c, 10, 41, 105
11, 30000, Note_on_c, 10, 41, 0
11, 30000, Note_on_c, 10, 38, 105
11, 30240, Note_on_c, 10, 38, 0
11, 30240, Note_on_c, 10, 35, 105
11, 30480, Note_on_c, 10, 35, 0
11, 30480, Note_on_c, 10, 31, 105
11, 30720, Note_on_c, 10, 31, 0
11, 30720, Note_on_c, 10, 36, 105
11, 30960, Note_on_c, 10, 36, 0
11, 30960, Note_on_c, 10, 52, 105
11, 31200, Note_on_c, 10, 52, 0
11, 31200, Note_on_c, 10, 48, 105
11, 31440, Note_on_c, 10, 48, 0
11, 31440, Note_on_c, 10, 44, 105
11, 31680, Note_on_c, 10, 44, 0
11, 31680, Note_on_c, 10, 45, 105
11, 31920, Note_on_c, 10, 45, 0
11, 31920, Note_on_c, 10, 48, 105
11, 32160, Note_on_c, 10, 48, 0
11, 32160, Note_on_c, 10, 45, 105
11, 32400, Note_on_c, 10, 45, 0
11, 32400, Note_on_c, 10, 40, 105
11, 32640, Note_on_c, 10, 40, 0
11, 32640, Note_on_c, 10, 41, 105
11, 32880, Note_on_c, 10, 41, 0
11, 32880, Note_on_c, 10, 43, 105
11, 33120, Note_on_c, 10, 43, 0
11, 33120, Note_on_c, 10, 45, 105
11, 33360, Note_on_c, 10, 45, 0
11, 33360, Note_on_c, 10, 40, 105
11, 33600, Note_on_c, 10, 40, 0
11, 33600, Note_on_c, 10, 41, 105
11, 33840, Note_on_c, 10, 41, 0
11, 33840, Note_on_c, 10, 41, 105
11, 34080, Note_on_c, 10, 41, 0
11, 34080, Note_on_c, 10, 42, 105
11, 34320, Note_on_c, 10, 42, 0
11, 34320, Note_on_c, 10, 42, 105
11, 34560, Note_on_c, 10, 42, 0
11, 34560, Note_on_c, 10, 43, 105
11, 34800, Note_on_c, 10, 43, 0
11, 34800, Note_on_c, 10, 47, 105
11, 35040, Note_on_c, 10, 47, 0
11, 35040, Note_on_c, 10, 50, 105
11, 35280, Note_on_c, 10, 50, 0
11, 35280, Note_on_c, 10, 43, 105
11, 35520, Note_on_c, 10, 43, 0
11, 35520, Note_on_c, 10, 48, 109
11, 35760, Note_on_c, 10, 48, 0
11, 35760, Note_on_c, 10, 43, 105
11, 36000, Note_on_c, 10, 43, 0
11, 36000, Note_on_c, 10, 40, 105
11, 36240, Note_on_c, 10, 40, 0
11, 36240, Note_on_c, 10, 36, 105
11, 36480, Note_on_c, 10, 36, 0
11, 36480, Note_on_c, 10, 43, 97
11, 36720, Note_on_c, 10, 43, 0
11, 36720, Note_on_c, 10, 47, 105
11, 36960, Note_on_c, 10, 47, 0
11, 36960, Note_on_c, 10, 50, 105
11, 37200, Note_on_c, 10, 50, 0
11, 37200, Note_on_c, 10, 43, 105
11, 37440, Note_on_c, 10, 43, 0
11, 37440, Note_on_c, 10, 48, 109
11, 37680, Note_on_c, 10, 48, 0
11, 37680, Note_on_c, 10, 43, 105
11, 37920, Note_on_c, 10, 43, 0
11, 37920, Note_on_c, 10, 40, 105
11, 38160, Note_on_c, 10, 40, 0
11, 38160, Note_on_c, 10, 36, 105
11, 38400, Note_on_c, 10, 36, 0
11, 38400, Note_on_c, 10, 31, 96
11, 38880, Note_on_c, 10, 31, 0
11, 38880, Note_on_c, 10, 43, 105
11, 39360, Note_on_c, 10, 43, 0
11, 39360, Note_on_c, 10, 31, 105
11, 39840, Note_on_c, 10, 31, 0
11, 42239, Control_c, 10, 0, 0
11, 42240, Program_c, 10, 45
11, 44160, Note_on_c, 10, 36, 105
11, 44640, Note_on_c, 10, 36, 0
11, 45120, Note_on_c, 10, 40, 105
11, 45600, Note_on_c, 10, 40, 0
11, 46080, Note_on_c, 10, 38, 105
11, 46560, Note_on_c, 10, 38, 0
11, 47040, Note_on_c, 10, 31, 105
11, 47520, Note_on_c, 10, 31, 0
11, 48000, Note_on_c, 10, 36, 105
11, 48480, Note_on_c, 10, 36, 0
11, 48960, Note_on_c, 10, 40, 105
11, 49440, Note_on_c, 10, 40, 0
11, 49920, Note_on_c, 10, 38, 105
11, 50400, Note_on_c, 10, 38, 0
11, 50880, Note_on_c, 10, 31, 105
11, 51360, Note_on_c, 10, 31, 0
11, 51840, Note_on_c, 10, 36, 105
11, 52320, Note_on_c, 10, 36, 0
11, 52800, Note_on_c, 10, 36, 105
11, 53280, Note_on_c, 10, 36, 0
11, 53760, Note_on_c, 10, 36, 105
11, 54240, Note_on_c, 10, 36, 0
11, 54720, Note_on_c, 10, 36, 105
11, 55200, Note_on_c, 10, 36, 0
11, 55680, Note_on_c, 10, 36, 105
11, 56160, Note_on_c, 10, 36, 0
11, 56640, Note_on_c, 10, 36, 105
11, 57120, Note_on_c, 10, 36, 0
11, 57600, Note_on_c, 10, 41, 105
11, 58080, Note_on_c, 10, 41, 0
11, 59519, Control_c, 10, 0, 0
11, 59520, Program_c, 10, 48
11, 61440, Note_on_c, 10, 43, 105
11, 61608, Note_on_c, 10, 43, 0
11, 61680, Note_on_c, 10, 43, 105
11, 61848, Note_on_c, 10, 43, 0
11, 61920, Note_on_c, 10, 43, 105
11, 62088, Note_on_c, 10, 43, 0
11, 62160, Note_on_c, 10, 43, 105
11, 62328, Note_on_c, 10, 43, 0
11, 62400, Note_on_c, 10, 43, 105
11, 62568, Note_on_c, 10, 43, 0
11, 62640, Note_on_c, 10, 43, 105
11, 62808, Note_on_c, 10, 43, 0
11, 62880, Note_on_c, 10, 43, 105
11, 63048, Note_on_c, 10, 43, 0
11, 63120, Note_on_c, 10, 43, 105
11, 63288, Note_on_c, 10, 43, 0
11, 63360, Note_on_c, 10, 43, 105
11, 63528, Note_on_c, 10, 43, 0
11, 63600, Note_on_c, 10, 43, 105
11, 63768, Note_on_c, 10, 43, 0
11, 63840, Note_on_c, 10, 43, 105
11, 64008, Note_on_c, 10, 43, 0
11, 64080, Note_on_c, 10, 43, 105
11, 64248, Note_on_c, 10, 43, 0
11, 64320, Note_on_c, 10, 43, 105
11, 64488, Note_on_c, 10, 43, 0
11, 64560, Note_on_c, 10, 43, 105
11, 64728, Note_on_c, 10, 43, 0
11, 64800, Note_on_c, 10, 43, 105
11, 64968, Note_on_c, 10, 43, 0
11, 65040, Note_on_c, 10, 43, 105
11, 65208, Note_on_c, 10, 43, 0
11, 65280, Note_on_c, 10, 36, 105
11, 65760, Note_on_c, 10, 36, 0
11, 72960, Note_on_c, 10, 40, 105
11, 73128, Note_on_c, 10, 40, 0
11, 73200, Note_on_c, 10, 40, 105
11, 73368, Note_on_c, 10, 40, 0
11, 73440, Note_on_c, 10, 40, 105
11, 73608, Note_on_c, 10, 40, 0
11, 73680, Note_on_c, 10, 40, 105
11, 73848, Note_on_c, 10, 40, 0
11, 73920, Note_on_c, 10, 41, 105
11, 74088, Note_on_c, 10, 41, 0
11, 74160, Note_on_c, 10, 41, 105
11, 74328, Note_on_c, 10, 41, 0
11, 74400, Note_on_c, 10, 41, 105
11, 74568, Note_on_c, 10, 41, 0
11, 74640, Note_on_c, 10, 41, 105
11, 74808, Note_on_c, 10, 41, 0
11, 74880, Note_on_c, 10, 43, 105
11, 75048, Note_on_c, 10, 43, 0
11, 75120, Note_on_c, 10, 43, 105
11, 75288, Note_on_c, 10, 43, 0
11, 75360, Note_on_c, 10, 43, 105
11, 75528, Note_on_c, 10, 43, 0
11, 75600, Note_on_c, 10, 43, 105
11, 75768, Note_on_c, 10, 43, 0
11, 75840, Note_on_c, 10, 43, 105
11, 76008, Note_on_c, 10, 43, 0
11, 76080, Note_on_c, 10, 43, 105
11, 76248, Note_on_c, 10, 43, 0
11, 76320, Note_on_c, 10, 31, 105
11, 76488, Note_on_c, 10, 31, 0
11, 76560, Note_on_c, 10, 31, 105
11, 76728, Note_on_c, 10, 31, 0
11, 76800, Note_on_c, 10, 36, 105
11, 77040, Note_on_c, 10, 36, 0
11, 77040, Note_on_c, 10, 40, 105
11, 77280, Note_on_c, 10, 40, 0
11, 77280, Note_on_c, 10, 43, 105
11, 77520, Note_on_c, 10, 43, 0
11, 77520, Note_on_c, 10, 40, 105
11, 77760, Note_on_c, 10, 40, 0
11, 77760, Note_on_c, 10, 36, 105
11, 78000, Note_on_c, 10, 36, 0
11, 78000, Note_on_c, 10, 40, 105
11, 78240, Note_on_c, 10, 40, 0
11, 78240, Note_on_c, 10, 43, 105
11, 78480, Note_on_c, 10, 43, 0
11, 78480, Note_on_c, 10, 40, 105
11, 78720, Note_on_c, 10, 40, 0
11, 78720, Note_on_c, 10, 36, 105
11, 78960, Note_on_c, 10, 36, 0
11, 78960, Note_on_c, 10, 40, 105
11, 79200, Note_on_c, 10, 40, 0
11, 79200, Note_on_c, 10, 43, 105
11, 79440, Note_on_c, 10, 43, 0
11, 79440, Note_on_c, 10, 40, 105
11, 79680, Note_on_c, 10, 40, 0
11, 79680, Note_on_c, 10, 36, 105
11, 79920, Note_on_c, 10, 36, 0
11, 79920, Note_on_c, 10, 40, 105
11, 80160, Note_on_c, 10, 40, 0
11, 80160, Note_on_c, 10, 43, 105
11, 80400, Note_on_c, 10, 43, 0
11, 80400, Note_on_c, 10, 40, 105
11, 80640, Note_on_c, 10, 40, 0
11, 80640, Note_on_c, 10, 36, 105
11, 81079, Note_on_c, 10, 36, 0
11, 81120, Note_on_c, 10, 48, 81
11, 81600, Note_on_c, 10, 47, 70
11, 81674, Note_on_c, 10, 48, 0
11, 82080, Note_on_c, 10, 45, 70
11, 82149, Note_on_c, 10, 47, 0
11, 82489, Note_on_c, 10, 45, 0
11, 82560, Note_on_c, 10, 43, 105
11, 82794, Note_on_c, 10, 43, 0
11, 83040, Note_on_c, 10, 41, 70
11, 83520, Note_on_c, 10, 40, 70
11, 83569, Note_on_c, 10, 41, 0
11, 84000, Note_on_c, 10, 38, 70
11, 84074, Note_on_c, 10, 40, 0
11, 84429, Note_on_c, 10, 38, 0
11, 84480, Note_on_c, 10, 36, 105
11, 85164, Note_on_c, 10, 36, 0
11, 85200, Note_on_c, 10, 43, 105
11, 85428, Note_on_c, 10, 43, 0
11, 85440, Note_on_c, 10, 40, 105
11, 85668, Note_on_c, 10, 40, 0
11, 85680, Note_on_c, 10, 36, 105
11, 85908, Note_on_c, 10, 36, 0
11, 85920, Note_on_c, 10, 40, 105
11, 86148, Note_on_c, 10, 40, 0
11, 86160, Note_on_c, 10, 43, 105
11, 86388, Note_on_c, 10, 43, 0
11, 86400, Note_on_c, 10, 48, 105
11, 87084, Note_on_c, 10, 48, 0
11, 87120, Note_on_c, 10, 43, 105
11, 87348, Note_on_c, 10, 43, 0
11, 87360, Note_on_c, 10, 40, 105
11, 87588, Note_on_c, 10, 40, 0
11, 87600, Note_on_c, 10, 36, 105
11, 87828, Note_on_c, 10, 36, 0
11, 87840, Note_on_c, 10, 40, 105
11, 88068, Note_on_c, 10, 40, 0
11, 88080, Note_on_c, 10, 43, 105
11, 88308, Note_on_c, 10, 43, 0
11, 88320, Note_on_c, 10, 48, 105
11, 88800, Note_on_c, 10, 48, 0
11, 88800, Note_on_c, 10, 36, 70
11, 89280, Note_on_c, 10, 35, 70
11, 89349, Note_on_c, 10, 36, 0
11, 89760, Note_on_c, 10, 36, 70
11, 89839, Note_on_c, 10, 35, 0
11, 90169, Note_on_c, 10, 36, 0
11, 90240, Note_on_c, 10, 38, 70
11, 90432, Note_on_c, 10, 38, 0
11, 90720, Note_on_c, 10, 38, 70
11, 91200, Note_on_c, 10, 37, 70
11, 91279, Note_on_c, 10, 38, 0
11, 91680, Note_on_c, 10, 38, 70
11, 91764, Note_on_c, 10, 37, 0
11, 92089, Note_on_c, 10, 38, 0
11, 92160, Note_on_c, 10, 40, 70
11, 92352, Note_on_c, 10, 40, 0
11, 92640, Note_on_c, 10, 40, 70
11, 93120, Note_on_c, 10, 39, 70
11, 93199, Note_on_c, 10, 40, 0
11, 93600, Note_on_c, 10, 40, 70
11, 93689, Note_on_c, 10, 39, 0
11, 94019, Note_on_c, 10, 40, 0
11, 94080, Note_on_c, 10, 41, 70
11, 94560, Note_on_c, 10, 43, 70
11, 94614, Note_on_c, 10, 41, 0
11, 95040, Note_on_c, 10, 45, 70
11, 95119, Note_on_c, 10, 43, 0
11, 95520, Note_on_c, 10, 47, 70
11, 95594, Note_on_c, 10, 45, 0
11, 95939, Note_on_c, 10, 47, 0
11, 96000, Note_on_c, 10, 48, 70
11, 96480, Note_on_c, 10, 48, 0
11, 103680, Note_on_c, 10, 36, 70
11, 104160, Note_on_c, 10, 36, 0
11, 105600, Note_on_c, 10, 36, 70
11, 106080, Note_on_c, 10, 36, 0
11, 107520, Note_on_c, 10, 36, 70
11, 108000, Note_on_c, 10, 36, 0
11, 109440, Note_on_c, 10, 41, 70
11, 110400, Note_on_c, 10, 43, 70
11, 110499, Note_on_c, 10, 41, 0
11, 111294, Note_on_c, 10, 43, 0
11, 111360, Note_on_c, 10, 36, 70
11, 111840, Note_on_c, 10, 36, 0
11, 113280, Note_on_c, 10, 36, 70
11, 113760, Note_on_c, 10, 36, 0
11, 115200, Note_on_c, 10, 36, 70
11, 115680, Note_on_c, 10, 36, 0
11, 117120, Note_on_c, 10, 43, 70
11, 118080, Note_on_c, 10, 43, 0
11, 118080, Note_on_c, 10, 31, 70
11, 119040, Note_on_c, 10, 31, 0
11, 119040, Note_on_c, 10, 36, 70
11, 119520, Note_on_c, 10, 36, 0
11, 128880, Note_on_c, 10, 43, 105
11, 128976, Note_on_c, 10, 43, 0
11, 129120, Note_on_c, 10, 47, 105
11, 129216, Note_on_c, 10, 47, 0
11, 129360, Note_on_c, 10, 43, 105
11, 129456, Note_on_c, 10, 43, 0
11, 129600, Note_on_c, 10, 38, 105
11, 129696, Note_on_c, 10, 38, 0
11, 129840, Note_on_c, 10, 43, 105
11, 129936, Note_on_c, 10, 43, 0
11, 130080, Note_on_c, 10, 35, 105
11, 130176, Note_on_c, 10, 35, 0
11, 130320, Note_on_c, 10, 38, 105
11, 130416, Note_on_c, 10, 38, 0
11, 130560, Note_on_c, 10, 31, 105
11, 131040, Note_on_c, 10, 31, 0
11, 147839, Control_c, 10, 0, 0
11, 147840, Program_c, 10, 45
11, 153600, Note_on_c, 10, 31, 70
11, 153840, Note_on_c, 10, 31, 0
11, 154080, Note_on_c, 10, 43, 70
11, 154320, Note_on_c, 10, 43, 0
11, 154560, Note_on_c, 10, 50, 70
11, 154800, Note_on_c, 10, 50, 0
11, 155040, Note_on_c, 10, 47, 70
11, 155280, Note_on_c, 10, 47, 0
11, 155520, Note_on_c, 10, 43, 70
11, 155760, Note_on_c, 10, 43, 0
11, 156000, Note_on_c, 10, 47, 70
11, 156240, Note_on_c, 10, 47, 0
11, 156480, Note_on_c, 10, 43, 70
11, 156720, Note_on_c, 10, 43, 0
11, 156960, Note_on_c, 10, 31, 70
11, 157200, Note_on_c, 10, 31, 0
11, 157440, Note_on_c, 10, 38, 70
11, 157920, Note_on_c, 10, 38, 0
11, 161280, Note_on_c, 10, 31, 70
11, 161520, Note_on_c, 10, 31, 0
11, 161760, Note_on_c, 10, 43, 70
11, 162000, Note_on_c, 10, 43, 0
11, 162240, Note_on_c, 10, 50, 70
11, 162480, Note_on_c, 10, 50, 0
11, 162720, Note_on_c, 10, 47, 70
11, 162960, Note_on_c, 10, 47, 0
11, 163200, Note_on_c, 10, 43, 70
11, 163440, Note_on_c, 10, 43, 0
11, 163680, Note_on_c, 10, 47, 70
11, 163920, Note_on_c, 10, 47, 0
11, 164160, Note_on_c, 10, 43, 70
11, 164400, Note_on_c, 10, 43, 0
11, 164640, Note_on_c, 10, 31, 70
11, 164880, Note_on_c, 10, 31, 0
11, 164880, Control_c, 10, 0, 0
11, 164880, Control_c, 10, 0, 0
11, 164880, Control_c, 10, 0, 0
11, 164880, Control_c, 10, 0, 0
11, 164880, Control_c, 10, 0, 0
11, 164880, Control_c, 10, 0, 0
11, 164880, Control_c, 10, 0, 0
11, 164880, Control_c, 10, 0, 0
11, 164880, Control_c, 10, 0, 0
11, 164880, Control_c, 10, 0, 0
11, 164880, Control_c, 10, 0, 0
11, 164880, Control_c, 10, 0, 0
11, 164880, Control_c, 10, 0, 0
11, 164880, Control_c, 10, 0, 0
11, 164880, Control_c, 10, 0, 0
11, 164880, Program_c, 10, 48
11, 165120, Note_on_c, 10, 38, 105
11, 165360, Note_on_c, 10, 38, 0
11, 165360, Note_on_c, 10, 42, 105
11, 165600, Note_on_c, 10, 42, 0
11, 165600, Note_on_c, 10, 45, 105
11, 165840, Note_on_c, 10, 45, 0
11, 165840, Note_on_c, 10, 38, 105
11, 166080, Note_on_c, 10, 38, 0
11, 166080, Note_on_c, 10, 43, 105
11, 166320, Note_on_c, 10, 43, 0
11, 166320, Note_on_c, 10, 38, 105
11, 166560, Note_on_c, 10, 38, 0
11, 166560, Note_on_c, 10, 35, 105
11, 166800, Note_on_c, 10, 35, 0
11, 166800, Note_on_c, 10, 31, 105
11, 167040, Note_on_c, 10, 31, 0
11, 167040, Note_on_c, 10, 38, 105
11, 167280, Note_on_c, 10, 38, 0
11, 167280, Note_on_c, 10, 42, 105
11, 167520, Note_on_c, 10, 42, 0
11, 167520, Note_on_c, 10, 45, 105
11, 167760, Note_on_c, 10, 45, 0
11, 167760, Note_on_c, 10, 38, 105
11, 168000, Note_on_c, 10, 38, 0
11, 168000, Note_on_c, 10, 43, 105
11, 168240, Note_on_c, 10, 43, 0
11, 168240, Note_on_c, 10, 50, 105
11, 168480, Note_on_c, 10, 50, 0
11, 168480, Note_on_c, 10, 47, 105
11, 168720, Note_on_c, 10, 47, 0
11, 168720, Note_on_c, 10, 43, 105
11, 168960, Note_on_c, 10, 43, 0
11, 168960, Note_on_c, 10, 38, 105
11, 169440, Note_on_c, 10, 38, 0
11, 169440, Note_on_c, 10, 50, 105
11, 169920, Note_on_c, 10, 50, 0
11, 169920, Note_on_c, 10, 38, 105
11, 170400, Note_on_c, 10, 38, 0
11, 172799, Control_c, 10, 0, 0
11, 172800, Program_c, 10, 45
11, 174720, Note_on_c, 10, 43, 70
11, 175200, Note_on_c, 10, 43, 0
11, 175680, Note_on_c, 10, 47, 70
11, 176160, Note_on_c, 10, 47, 0
11, 176640, Note_on_c, 10, 45, 70
11, 177120, Note_on_c, 10, 45, 0
11, 177600, Note_on_c, 10, 38, 70
11, 178080, Note_on_c, 10, 38, 0
11, 178560, Note_on_c, 10, 43, 70
11, 179040, Note_on_c, 10, 43, 0
11, 179520, Note_on_c, 10, 47, 70
11, 180000, Note_on_c, 10, 47, 0
11, 180480, Note_on_c, 10, 45, 70
11, 180960, Note_on_c, 10, 45, 0
11, 181440, Note_on_c, 10, 38, 70
11, 181920, Note_on_c, 10, 38, 0
11, 182400, Note_on_c, 10, 43, 70
11, 182880, Note_on_c, 10, 43, 0
11, 183360, Note_on_c, 10, 43, 70
11, 183840, Note_on_c, 10, 43, 0
11, 184320, Note_on_c, 10, 43, 70
11, 184800, Note_on_c, 10, 43, 0
11, 185280, Note_on_c, 10, 43, 70
11, 185760, Note_on_c, 10, 43, 0
11, 186240, Note_on_c, 10, 43, 70
11, 186720, Note_on_c, 10, 43, 0
11, 187200, Note_on_c, 10, 43, 70
11, 187680, Note_on_c, 10, 43, 0
11, 190079, Control_c, 10, 0, 0
11, 190080, Program_c, 10, 48
11, 192000, Note_on_c, 10, 45, 70
11, 192480, Note_on_c, 10, 45, 0
11, 192960, Note_on_c, 10, 38, 70
11, 193440, Note_on_c, 10, 38, 0
11, 193920, Note_on_c, 10, 43, 70
11, 194400, Note_on_c, 10, 43, 0
11, 194880, Note_on_c, 10, 40, 70
11, 195360, Note_on_c, 10, 40, 0
11, 195840, Note_on_c, 10, 36, 70
11, 196800, Note_on_c, 10, 38, 70
11, 196889, Note_on_c, 10, 36, 0
11, 197689, Note_on_c, 10, 38, 0
11, 197760, Note_on_c, 10, 43, 70
11, 197856, Note_on_c, 10, 43, 0
11, 198000, Note_on_c, 10, 45, 72
11, 198096, Note_on_c, 10, 45, 0
11, 198240, Note_on_c, 10, 47, 74
11, 198336, Note_on_c, 10, 47, 0
11, 198480, Note_on_c, 10, 48, 76
11, 198576, Note_on_c, 10, 48, 0
11, 198720, Note_on_c, 10, 50, 78
11, 199200, Note_on_c, 10, 50, 0
11, 224640, Note_on_c, 10, 35, 70
11, 225600, Note_on_c, 10, 36, 70
11, 225694, Note_on_c, 10, 35, 0
11, 226494, Note_on_c, 10, 36, 0
11, 226560, Note_on_c, 10, 38, 70
11, 227040, Note_on_c, 10, 38, 0
11, 227520, Note_on_c, 10, 38, 70
11, 228000, Note_on_c, 10, 38, 0
11, 228480, Note_on_c, 10, 38, 70
11, 228648, Note_on_c, 10, 38, 0
11, 228720, Note_on_c, 10, 38, 73
11, 228888, Note_on_c, 10, 38, 0
11, 228960, Note_on_c, 10, 38, 77
11, 229128, Note_on_c, 10, 38, 0
11, 229200, Note_on_c, 10, 38, 81
11, 229368, Note_on_c, 10, 38, 0
11, 229440, Note_on_c, 10, 38, 85
11, 229608, Note_on_c, 10, 38, 0
11, 229680, Note_on_c, 10, 38, 89
11, 229848, Note_on_c, 10, 38, 0
11, 229920, Note_on_c, 10, 38, 93
11, 230088, Note_on_c, 10, 38, 0
11, 230160, Note_on_c, 10, 38, 97
11, 230328, Note_on_c, 10, 38, 0
11, 230400, Note_on_c, 10, 43, 101
11, 230568, Note_on_c, 10, 43, 0
11, 230640, Note_on_c, 10, 43, 105
11, 230808, Note_on_c, 10, 43, 0
11, 230880, Note_on_c, 10, 43, 105
11, 231048, Note_on_c, 10, 43, 0
11, 231120, Note_on_c, 10, 43, 105
11, 231288, Note_on_c, 10, 43, 0
11, 231360, Note_on_c, 10, 43, 105
11, 231528, Note_on_c, 10, 43, 0
11, 231600, Note_on_c, 10, 43, 105
11, 231768, Note_on_c, 10, 43, 0
11, 231840, Note_on_c, 10, 43, 105
11, 232008, Note_on_c, 10, 43, 0
11, 232080, Note_on_c, 10, 43, 105
11, 232248, Note_on_c, 10, 43, 0
11, 232320, Note_on_c, 10, 43, 105
11, 232488, Note_on_c, 10, 43, 0
11, 232560, Note_on_c, 10, 43, 105
11, 232728, Note_on_c, 10, 43, 0
11, 232800, Note_on_c, 10, 43, 105
11, 232968, Note_on_c, 10, 43, 0
11, 233040, Note_on_c, 10, 43, 105
11, 233208, Note_on_c, 10, 43, 0
11, 233280, Note_on_c, 10, 43, 105
11, 233448, Note_on_c, 10, 43, 0
11, 233520, Note_on_c, 10, 43, 105
11, 233688, Note_on_c, 10, 43, 0
11, 233760, Note_on_c, 10, 43, 105
11, 233928, Note_on_c, 10, 43, 0
11, 234000, Note_on_c, 10, 43, 105
11, 234168, Note_on_c, 10, 43, 0
11, 234240, Note_on_c, 10, 43, 105
11, 234408, Note_on_c, 10, 43, 0
11, 234480, Note_on_c, 10, 43, 105
11, 234648, Note_on_c, 10, 43, 0
11, 234720, Note_on_c, 10, 43, 70
11, 234888, Note_on_c, 10, 43, 0
11, 234960, Note_on_c, 10, 43, 70
11, 235128, Note_on_c, 10, 43, 0
11, 235200, Note_on_c, 10, 43, 70
11, 235368, Note_on_c, 10, 43, 0
11, 235440, Note_on_c, 10, 43, 70
11, 235608, Note_on_c, 10, 43, 0
11, 235680, Note_on_c, 10, 43, 70
11, 235848, Note_on_c, 10, 43, 0
11, 235920, Note_on_c, 10, 43, 70
11, 236088, Note_on_c, 10, 43, 0
11, 236160, Note_on_c, 10, 43, 70
11, 236328, Note_on_c, 10, 43, 0
11, 236400, Note_on_c, 10, 43, 70
11, 236568, Note_on_c, 10, 43, 0
11, 236640, Note_on_c, 10, 43, 70
11, 236808, Note_on_c, 10, 43, 0
11, 236880, Note_on_c, 10, 43, 70
11, 237048, Note_on_c, 10, 43, 0
11, 237120, Note_on_c, 10, 43, 70
11, 237288, Note_on_c, 10, 43, 0
11, 237360, Note_on_c, 10, 43, 70
11, 237528, Note_on_c, 10, 43, 0
11, 237600, Note_on_c, 10, 43, 105
11, 237768, Note_on_c, 10, 43, 0
11, 237840, Note_on_c, 10, 43, 105
11, 238008, Note_on_c, 10, 43, 0
11, 238080, Note_on_c, 10, 42, 105
11, 238320, Note_on_c, 10, 42, 0
11, 238320, Note_on_c, 10, 45, 105
11, 238560, Note_on_c, 10, 45, 0
11, 238560, Note_on_c, 10, 42, 105
11, 238800, Note_on_c, 10, 42, 0
11, 238800, Note_on_c, 10, 38, 105
11, 239040, Note_on_c, 10, 38, 0
11, 239040, Note_on_c, 10, 42, 105
11, 239280, Note_on_c, 10, 42, 0
11, 239280, Note_on_c, 10, 45, 105
11, 239520, Note_on_c, 10, 45, 0
11, 239520, Note_on_c, 10, 42, 105
11, 239760, Note_on_c, 10, 42, 0
11, 239760, Note_on_c, 10, 38, 105
11, 240000, Note_on_c, 10, 38, 0
11, 240000, Note_on_c, 10, 43, 105
11, 240240, Note_on_c, 10, 43, 0
11, 240240, Note_on_c, 10, 47, 105
11, 240480, Note_on_c, 10, 47, 0
11, 240480, Note_on_c, 10, 43, 105
11, 240720, Note_on_c, 10, 43, 0
11, 240720, Note_on_c, 10, 38, 105
11, 240960, Note_on_c, 10, 38, 0
11, 240960, Note_on_c, 10, 35, 105
11, 241200, Note_on_c, 10, 35, 0
11, 241200, Note_on_c, 10, 38, 105
11, 241440, Note_on_c, 10, 38, 0
11, 241440, Note_on_c, 10, 35, 105
11, 241680, Note_on_c, 10, 35, 0
11, 241680, Note_on_c, 10, 31, 105
11, 241920, Note_on_c, 10, 31, 0
11, 241920, Note_on_c, 10, 36, 105
11, 242088, Note_on_c, 10, 36, 0
11, 242160, Note_on_c, 10, 36, 105
11, 242328, Note_on_c, 10, 36, 0
11, 242400, Note_on_c, 10, 36, 105
11, 242568, Note_on_c, 10, 36, 0
11, 242640, Note_on_c, 10, 36, 105
11, 242808, Note_on_c, 10, 36, 0
11, 242880, Note_on_c, 10, 38, 105
11, 243048, Note_on_c, 10, 38, 0
11, 243120, Note_on_c, 10, 38, 105
11, 243288, Note_on_c, 10, 38, 0
11, 243360, Note_on_c, 10, 38, 105
11, 243528, Note_on_c, 10, 38, 0
11, 243600, Note_on_c, 10, 38, 105
11, 243768, Note_on_c, 10, 38, 0
11, 243840, Note_on_c, 10, 35, 105
11, 244008, Note_on_c, 10, 35, 0
11, 244080, Note_on_c, 10, 35, 105
11, 244248, Note_on_c, 10, 35, 0
11, 244320, Note_on_c, 10, 35, 105
11, 244488, Note_on_c, 10, 35, 0
11, 244560, Note_on_c, 10, 35, 105
11, 244728, Note_on_c, 10, 35, 0
11, 244800, Note_on_c, 10, 36, 105
11, 244968, Note_on_c, 10, 36, 0
11, 245040, Note_on_c, 10, 36, 105
11, 245208, Note_on_c, 10, 36, 0
11, 245280, Note_on_c, 10, 36, 105
11, 245448, Note_on_c, 10, 36, 0
11, 245520, Note_on_c, 10, 36, 105
11, 245688, Note_on_c, 10, 36, 0
11, 245760, Note_on_c, 10, 38, 105
11, 245928, Note_on_c, 10, 38, 0
11, 246000, Note_on_c, 10, 38, 105
11, 246168, Note_on_c, 10, 38, 0
11, 246240, Note_on_c, 10, 38, 105
11, 246408, Note_on_c, 10, 38, 0
11, 246480, Note_on_c, 10, 38, 105
11, 246648, Note_on_c, 10, 38, 0
11, 246720, Note_on_c, 10, 38, 105
11, 246888, Note_on_c, 10, 38, 0
11, 246960, Note_on_c, 10, 38, 105
11, 247128, Note_on_c, 10, 38, 0
11, 247200, Note_on_c, 10, 38, 105
11, 247368, Note_on_c, 10, 38, 0
11, 247440, Note_on_c, 10, 38, 105
11, 247608, Note_on_c, 10, 38, 0
11, 247680, Note_on_c, 10, 38, 105
11, 247848, Note_on_c, 10, 38, 0
11, 247920, Note_on_c, 10, 38, 105
11, 248088, Note_on_c, 10, 38, 0
11, 248160, Note_on_c, 10, 38, 105
11, 248328, Note_on_c, 10, 38, 0
11, 248400, Note_on_c, 10, 38, 105
11, 248568, Note_on_c, 10, 38, 0
11, 248640, Note_on_c, 10, 38, 105
11, 248808, Note_on_c, 10, 38, 0
11, 248880, Note_on_c, 10, 38, 105
11, 249048, Note_on_c, 10, 38, 0
11, 249120, Note_on_c, 10, 38, 105
11, 249288, Note_on_c, 10, 38, 0
11, 249360, Note_on_c, 10, 38, 105
11, 249528, Note_on_c, 10, 38, 0
11, 249600, Note_on_c, 10, 31, 105
11, 250080, Note_on_c, 10, 31, 0
11, 250080, Note_on_c, 10, 43, 70
11, 250560, Note_on_c, 10, 42, 70
11, 250634, Note_on_c, 10, 43, 0
11, 251040, Note_on_c, 10, 40, 70
11, 251109, Note_on_c, 10, 42, 0
11, 251479, Note_on_c, 10, 40, 0
11, 251520, Note_on_c, 10, 39, 105
11, 251764, Note_on_c, 10, 39, 0
11, 252000, Note_on_c, 10, 40, 70
11, 252480, Note_on_c, 10, 38, 70
11, 252549, Note_on_c, 10, 40, 0
11, 252960, Note_on_c, 10, 36, 70
11, 253029, Note_on_c, 10, 38, 0
11, 253389, Note_on_c, 10, 36, 0
11, 253440, Note_on_c, 10, 35, 105
11, 253689, Note_on_c, 10, 35, 0
11, 253920, Note_on_c, 10, 36, 70
11, 254400, Note_on_c, 10, 35, 70
11, 254464, Note_on_c, 10, 36, 0
11, 254880, Note_on_c, 10, 33, 70
11, 254959, Note_on_c, 10, 35, 0
11, 255304, Note_on_c, 10, 33, 0
11, 255360, Note_on_c, 10, 32, 105
11, 255840, Note_on_c, 10, 32, 0
11, 256320, Note_on_c, 10, 32, 70
11, 256800, Note_on_c, 10, 32, 0
11, 257280, Note_on_c, 10, 33, 70
11, 257760, Note_on_c, 10, 33, 0
11, 258240, Note_on_c, 10, 33, 70
11, 258720, Note_on_c, 10, 33, 0
11, 259200, Note_on_c, 10, 35, 70
11, 259680, Note_on_c, 10, 35, 0
11, 260160, Note_on_c, 10, 35, 70
11, 260640, Note_on_c, 10, 35, 0
11, 261120, Note_on_c, 10, 36, 70
11, 261600, Note_on_c, 10, 36, 0
11, 262080, Note_on_c, 10, 36, 70
11, 262560, Note_on_c, 10, 36, 0
11, 263040, Note_on_c, 10, 38, 70
11, 264000, Note_on_c, 10, 38, 0
11, 264000, Note_on_c, 10, 40, 70
11, 264480, Note_on_c, 10, 40, 0
11, 264480, Note_on_c, 10, 40, 70
11, 264960, Note_on_c, 10, 40, 0
11, 264960, Note_on_c, 10, 45, 70
11, 265152, Note_on_c, 10, 45, 0
11, 265440, Note_on_c, 10, 47, 70
11, 265632, Note_on_c, 10, 47, 0
11, 265920, Note_on_c, 10, 48, 70
11, 266112, Note_on_c, 10, 48, 0
11, 266880, Note_on_c, 10, 50, 70
11, 267840, Note_on_c, 10, 50, 0
11, 267840, Note_on_c, 10, 52, 70
11, 268320, Note_on_c, 10, 52, 0
11, 268320, Note_on_c, 10, 40, 70
11, 268800, Note_on_c, 10, 40, 0
11, 268800, Note_on_c, 10, 45, 105
11, 268992, Note_on_c, 10, 45, 0
11, 269280, Note_on_c, 10, 48, 70
11, 269760, Note_on_c, 10, 47, 70
11, 269854, Note_on_c, 10, 48, 0
11, 270240, Note_on_c, 10, 45, 70
11, 270309, Note_on_c, 10, 47, 0
11, 270684, Note_on_c, 10, 45, 0
11, 270720, Note_on_c, 10, 44, 105
11, 270912, Note_on_c, 10, 44, 0
11, 271200, Note_on_c, 10, 45, 70
11, 271680, Note_on_c, 10, 43, 70
11, 271749, Note_on_c, 10, 45, 0
11, 272160, Note_on_c, 10, 41, 70
11, 272229, Note_on_c, 10, 43, 0
11, 272599, Note_on_c, 10, 41, 0
11, 272640, Note_on_c, 10, 40, 105
11, 272832, Note_on_c, 10, 40, 0
11, 273120, Note_on_c, 10, 41, 70
11, 273600, Note_on_c, 10, 40, 70
11, 273684, Note_on_c, 10, 41, 0
11, 274080, Note_on_c, 10, 38, 70
11, 274149, Note_on_c, 10, 40, 0
11, 274524, Note_on_c, 10, 38, 0
11, 274560, Note_on_c, 10, 37, 105
11, 275040, Note_on_c, 10, 37, 0
11, 275520, Note_on_c, 10, 37, 70
11, 276000, Note_on_c, 10, 37, 0
11, 276480, Note_on_c, 10, 38, 70
11, 276960, Note_on_c, 10, 38, 0
11, 277440, Note_on_c, 10, 38, 70
11, 277920, Note_on_c, 10, 38, 0
11, 278400, Note_on_c, 10, 40, 70
11, 278880, Note_on_c, 10, 40, 0
11, 279360, Note_on_c, 10, 40, 70
11, 279840, Note_on_c, 10, 40, 0
11, 280320, Note_on_c, 10, 41, 70
11, 280800, Note_on_c, 10, 41, 0
11, 281280, Note_on_c, 10, 41, 70
11, 281760, Note_on_c, 10, 41, 0
11, 282240, Note_on_c, 10, 43, 70
11, 283200, Note_on_c, 10, 43, 0
11, 283200, Note_on_c, 10, 45, 70
11, 283680, Note_on_c, 10, 45, 0
11, 283680, Note_on_c, 10, 45, 70
11, 284160, Note_on_c, 10, 45, 0
11, 284160, Note_on_c, 10, 38, 70
11, 284352, Note_on_c, 10, 38, 0
11, 284640, Note_on_c, 10, 40, 70
11, 284832, Note_on_c, 10, 40, 0
11, 285120, Note_on_c, 10, 41, 70
11, 285312, Note_on_c, 10, 41, 0
11, 286080, Note_on_c, 10, 46, 70
11, 287040, Note_on_c, 10, 46, 0
11, 287040, Note_on_c, 10, 45, 70
11, 287520, Note_on_c, 10, 45, 0
11, 287520, Note_on_c, 10, 33, 70
11, 288000, Note_on_c, 10, 33, 0
11, 288000, Note_on_c, 10, 38, 70
11, 288480, Note_on_c, 10, 38, 0
11, 318720, Note_on_c, 10, 43, 70
11, 319200, Note_on_c, 10, 43, 0
11, 319680, Note_on_c, 10, 43, 70
11, 320160, Note_on_c, 10, 43, 0
11, 320640, Note_on_c, 10, 43, 80
11, 321120, Note_on_c, 10, 43, 0
11, 321600, Note_on_c, 10, 43, 90
11, 322080, Note_on_c, 10, 43, 0
11, 322560, Note_on_c, 10, 43, 105
11, 323040, Note_on_c, 10, 43, 0
11, 323520, Note_on_c, 10, 43, 105
11, 324000, Note_on_c, 10, 43, 0
11, 324480, Note_on_c, 10, 48, 105
11, 325164, Note_on_c, 10, 48, 0
11, 325200, Note_on_c, 10, 43, 105
11, 325428, Note_on_c, 10, 43, 0
11, 325440, Note_on_c, 10, 40, 105
11, 325668, Note_on_c, 10, 40, 0
11, 325680, Note_on_c, 10, 36, 105
11, 325908, Note_on_c, 10, 36, 0
11, 325920, Note_on_c, 10, 40, 105
11, 326148, Note_on_c, 10, 40, 0
11, 326160, Note_on_c, 10, 43, 105
11, 326388, Note_on_c, 10, 43, 0
11, 326400, Note_on_c, 10, 48, 105
11, 327084, Note_on_c, 10, 48, 0
11, 327120, Note_on_c, 10, 43, 105
11, 327348, Note_on_c, 10, 43, 0
11, 327360, Note_on_c, 10, 40, 105
11, 327588, Note_on_c, 10, 40, 0
11, 327600, Note_on_c, 10, 36, 105
11, 327828, Note_on_c, 10, 36, 0
11, 327840, Note_on_c, 10, 40, 105
11, 328068, Note_on_c, 10, 40, 0
11, 328080, Note_on_c, 10, 43, 105
11, 328308, Note_on_c, 10, 43, 0
11, 328320, Note_on_c, 10, 48, 105
11, 328800, Note_on_c, 10, 48, 0
11, 328800, Note_on_c, 10, 36, 70
11, 329280, Note_on_c, 10, 35, 70
11, 329349, Note_on_c, 10, 36, 0
11, 329760, Note_on_c, 10, 36, 70
11, 329829, Note_on_c, 10, 35, 0
11, 330204, Note_on_c, 10, 36, 0
11, 330240, Note_on_c, 10, 38, 105
11, 330432, Note_on_c, 10, 38, 0
11, 330720, Note_on_c, 10, 38, 70
11, 331200, Note_on_c, 10, 37, 70
11, 331269, Note_on_c, 10, 38, 0
11, 331680, Note_on_c, 10, 38, 70
11, 331749, Note_on_c, 10, 37, 0
11, 332114, Note_on_c, 10, 38, 0
11, 332160, Note_on_c, 10, 40, 105
11, 332352, Note_on_c, 10, 40, 0
11, 332640, Note_on_c, 10, 40, 70
11, 333120, Note_on_c, 10, 39, 70
11, 333179, Note_on_c, 10, 40, 0
11, 333600, Note_on_c, 10, 40, 70
11, 333679, Note_on_c, 10, 39, 0
11, 334034, Note_on_c, 10, 40, 0
11, 334080, Note_on_c, 10, 41, 70
11, 334560, Note_on_c, 10, 43, 80
11, 334619, Note_on_c, 10, 41, 0
11, 335040, Note_on_c, 10, 45, 90
11, 335099, Note_on_c, 10, 43, 0
11, 335520, Note_on_c, 10, 47, 90
11, 335599, Note_on_c, 10, 45, 0
11, 335959, Note_on_c, 10, 47, 0
11, 336000, Note_on_c, 10, 48, 105
11, 336480, Note_on_c, 10, 48, 0
11, 361200, Note_on_c, 10, 43, 105
11, 361296, Note_on_c, 10, 43, 0
11, 361440, Note_on_c, 10, 47, 105
11, 361536, Note_on_c, 10, 47, 0
11, 361680, Note_on_c, 10, 43, 105
11, 361776, Note_on_c, 10, 43, 0
11, 361920, Note_on_c, 10, 38, 105
11, 362016, Note_on_c, 10, 38, 0
11, 362160, Note_on_c, 10, 43, 105
11, 362256, Note_on_c, 10, 43, 0
11, 362400, Note_on_c, 10, 35, 105
11, 362496, Note_on_c, 10, 35, 0
11, 362640, Note_on_c, 10, 38, 105
11, 362736, Note_on_c, 10, 38, 0
11, 362880, Note_on_c, 10, 31, 105
11, 363360, Note_on_c, 10, 31, 0
11, 382080, Note_on_c, 10, 41, 70
11, 383479, Note_on_c, 10, 41, 0
11, 383520, Note_on_c, 10, 37, 70
11, 383979, Note_on_c, 10, 37, 0
11, 384000, Note_on_c, 10, 38, 70
11, 384480, Note_on_c, 10, 40, 70
11, 384539, Note_on_c, 10, 38, 0
11, 384960, Note_on_c, 10, 41, 70
11, 385049, Note_on_c, 10, 40, 0
11, 385440, Note_on_c, 10, 42, 70
11, 385519, Note_on_c, 10, 41, 0
11, 385854, Note_on_c, 10, 42, 0
11, 385920, Note_on_c, 10, 43, 70
11, 386400, Note_on_c, 10, 43, 0
11, 387839, Control_c, 10, 0, 0
11, 387840, Program_c, 10, 45
11, 389760, Note_on_c, 10, 36, 70
11, 390000, Note_on_c, 10, 36, 0
11, 390240, Note_on_c, 10, 48, 70
11, 390480, Note_on_c, 10, 48, 0
11, 390720, Note_on_c, 10, 43, 70
11, 390960, Note_on_c, 10, 43, 0
11, 391200, Note_on_c, 10, 40, 70
11, 391440, Note_on_c, 10, 40, 0
11, 391680, Note_on_c, 10, 36, 70
11, 391920, Note_on_c, 10, 36, 0
11, 392160, Note_on_c, 10, 40, 70
11, 392400, Note_on_c, 10, 40, 0
11, 392640, Note_on_c, 10, 43, 70
11, 392880, Note_on_c, 10, 43, 0
11, 393120, Note_on_c, 10, 48, 70
11, 393360, Note_on_c, 10, 48, 0
11, 393600, Note_on_c, 10, 43, 70
11, 394080, Note_on_c, 10, 43, 0
11, 397440, Note_on_c, 10, 36, 70
11, 397680, Note_on_c, 10, 36, 0
11, 397920, Note_on_c, 10, 48, 70
11, 398160, Note_on_c, 10, 48, 0
11, 398400, Note_on_c, 10, 43, 70
11, 398640, Note_on_c, 10, 43, 0
11, 398880, Note_on_c, 10, 40, 70
11, 399120, Note_on_c, 10, 40, 0
11, 399360, Note_on_c, 10, 36, 70
11, 399600, Note_on_c, 10, 36, 0
11, 399840, Note_on_c, 10, 40, 70
11, 400080, Note_on_c, 10, 40, 0
11, 400320, Note_on_c, 10, 43, 70
11, 400560, Note_on_c, 10, 43, 0
11, 400800, Note_on_c, 10, 48, 70
11, 401040, Note_on_c, 10, 48, 0
11, 401045, Control_c, 10, 0, 0
11, 401045, Control_c, 10, 0, 0
11, 401045, Control_c, 10, 0, 0
11, 401045, Control_c, 10, 0, 0
11, 401045, Control_c, 10, 0, 0
11, 401045, Control_c, 10, 0, 0
11, 401045, Control_c, 10, 0, 0
11, 401045, Control_c, 10, 0, 0
11, 401045, Control_c, 10, 0, 0
11, 401045, Control_c, 10, 0, 0
11, 401045, Control_c, 10, 0, 0
11, 401045, Control_c, 10, 0, 0
11, 401045, Control_c, 10, 0, 0
11, 401045, Control_c, 10, 0, 0
11, 401045, Control_c, 10, 0, 0
11, 401045, Program_c, 10, 48
11, 401280, Note_on_c, 10, 43, 105
11, 401520, Note_on_c, 10, 43, 0
11, 401520, Note_on_c, 10, 47, 105
11, 401760, Note_on_c, 10, 47, 0
11, 401760, Note_on_c, 10, 50, 105
11, 402000, Note_on_c, 10, 50, 0
11, 402000, Note_on_c, 10, 43, 105
11, 402240, Note_on_c, 10, 43, 0
11, 402240, Note_on_c, 10, 48, 105
11, 402480, Note_on_c, 10, 48, 0
11, 402480, Note_on_c, 10, 43, 105
11, 402720, Note_on_c, 10, 43, 0
11, 402720, Note_on_c, 10, 40, 105
11, 402960, Note_on_c, 10, 40, 0
11, 402960, Note_on_c, 10, 36, 105
11, 403200, Note_on_c, 10, 36, 0
11, 403200, Note_on_c, 10, 43, 105
11, 403440, Note_on_c, 10, 43, 0
11, 403440, Note_on_c, 10, 47, 105
11, 403680, Note_on_c, 10, 47, 0
11, 403680, Note_on_c, 10, 50, 105
11, 403920, Note_on_c, 10, 50, 0
11, 403920, Note_on_c, 10, 43, 105
11, 404160, Note_on_c, 10, 43, 0
11, 404160, Note_on_c, 10, 48, 105
11, 404400, Note_on_c, 10, 48, 0
11, 404400, Note_on_c, 10, 43, 105
11, 404640, Note_on_c, 10, 43, 0
11, 404640, Note_on_c, 10, 40, 105
11, 404880, Note_on_c, 10, 40, 0
11, 404880, Note_on_c, 10, 36, 105
11, 405120, Note_on_c, 10, 36, 0
11, 405120, Note_on_c, 10, 31, 105
11, 405600, Note_on_c, 10, 31, 0
11, 405600, Note_on_c, 10, 43, 105
11, 406080, Note_on_c, 10, 43, 0
11, 406080, Note_on_c, 10, 31, 105
11, 406560, Note_on_c, 10, 31, 0
11, 408959, Control_c, 10, 0, 0
11, 408960, Program_c, 10, 45
11, 410880, Note_on_c, 10, 36, 70
11, 411360, Note_on_c, 10, 36, 0
11, 411840, Note_on_c, 10, 40, 70
11, 412320, Note_on_c, 10, 40, 0
11, 412800, Note_on_c, 10, 38, 70
11, 413280, Note_on_c, 10, 38, 0
11, 413760, Note_on_c, 10, 31, 70
11, 414240, Note_on_c, 10, 31, 0
11, 414720, Note_on_c, 10, 36, 70
11, 415200, Note_on_c, 10, 36, 0
11, 415680, Note_on_c, 10, 40, 70
11, 416160, Note_on_c, 10, 40, 0
11, 416640, Note_on_c, 10, 38, 70
11, 417120, Note_on_c, 10, 38, 0
11, 417600, Note_on_c, 10, 31, 70
11, 418080, Note_on_c, 10, 31, 0
11, 418560, Note_on_c, 10, 36, 70
11, 419040, Note_on_c, 10, 36, 0
11, 419520, Note_on_c, 10, 36, 70
11, 420000, Note_on_c, 10, 36, 0
11, 420480, Note_on_c, 10, 36, 70
11, 420960, Note_on_c, 10, 36, 0
11, 421440, Note_on_c, 10, 36, 70
11, 421920, Note_on_c, 10, 36, 0
11, 422400, Note_on_c, 10, 36, 70
11, 422880, Note_on_c, 10, 36, 0
11, 423360, Note_on_c, 10, 36, 70
11, 423840, Note_on_c, 10, 36, 0
11, 424319, Control_c, 10, 0, 0
11, 424320, Program_c, 10, 48
11, 428160, Note_on_c, 10, 38, 70
11, 429120, Note_on_c, 10, 43, 70
11, 429194, Note_on_c, 10, 38, 0
11, 429999, Note_on_c, 10, 43, 0
11, 430080, Note_on_c, 10, 36, 70
11, 431040, Note_on_c, 10, 45, 70
11, 431124, Note_on_c, 10, 36, 0
11, 431929, Note_on_c, 10, 45, 0
11, 432000, Note_on_c, 10, 41, 70
11, 432960, Note_on_c, 10, 43, 70
11, 433044, Note_on_c, 10, 41, 0
11, 433854, Note_on_c, 10, 43, 0
11, 433920, Note_on_c, 10, 36, 69
11, 434016, Note_on_c, 10, 36, 0
11, 434160, Note_on_c, 10, 38, 72
11, 434256, Note_on_c, 10, 38, 0
11, 434400, Note_on_c, 10, 40, 75
11, 434496, Note_on_c, 10, 40, 0
11, 434640, Note_on_c, 10, 41, 79
11, 434736, Note_on_c, 10, 41, 0
11, 434880, Note_on_c, 10, 43, 82
11, 435360, Note_on_c, 10, 43, 0
11, 441600, Note_on_c, 10, 36, 70
11, 442080, Note_on_c, 10, 36, 0
11, 462720, Note_on_c, 10, 43, 70
11, 463200, Note_on_c, 10, 43, 0
11, 463680, Note_on_c, 10, 43, 70
11, 464160, Note_on_c, 10, 43, 0
11, 464640, Note_on_c, 10, 43, 71
11, 464808, Note_on_c, 10, 43, 0
11, 464880, Note_on_c, 10, 43, 75
11, 465048, Note_on_c, 10, 43, 0
11, 465120, Note_on_c, 10, 43, 79
11, 465288, Note_on_c, 10, 43, 0
11, 465360, Note_on_c, 10, 43, 84
11, 465528, Note_on_c, 10, 43, 0
11, 465600, Note_on_c, 10, 43, 88
11, 465768, Note_on_c, 10, 43, 0
11, 465840, Note_on_c, 10, 43, 92
11, 466008, Note_on_c, 10, 43, 0
11, 466080, Note_on_c, 10, 43, 97
11, 466248, Note_on_c, 10, 43, 0
11, 466320, Note_on_c, 10, 43, 101
11, 466488, Note_on_c, 10, 43, 0
11, 466560, Note_on_c, 10, 36, 105
11, 467016, Note_on_c, 10, 36, 0
11, 467520, Note_on_c, 10, 48, 105
11, 468204, Note_on_c, 10, 48, 0
11, 468240, Note_on_c, 10, 43, 105
11, 468468, Note_on_c, 10, 43, 0
11, 468480, Note_on_c, 10, 40, 105
11, 468708, Note_on_c, 10, 40, 0
11, 468720, Note_on_c, 10, 36, 105
11, 468948, Note_on_c, 10, 36, 0
11, 468960, Note_on_c, 10, 40, 105
11, 469188, Note_on_c, 10, 40, 0
11, 469200, Note_on_c, 10, 43, 105
11, 469428, Note_on_c, 10, 43, 0
11, 469440, Note_on_c, 10, 48, 105
11, 470124, Note_on_c, 10, 48, 0
11, 470160, Note_on_c, 10, 43, 105
11, 470388, Note_on_c, 10, 43, 0
11, 470400, Note_on_c, 10, 40, 105
11, 470640, Note_on_c, 10, 40, 0
11, 470640, Note_on_c, 10, 36, 105
11, 470880, Note_on_c, 10, 36, 0
11, 470880, Note_on_c, 10, 40, 105
11, 471120, Note_on_c, 10, 40, 0
11, 471120, Note_on_c, 10, 43, 105
11, 471360, Note_on_c, 10, 43, 0
11, 471360, Note_on_c, 10, 48, 105
11, 471600, Note_on_c, 10, 48, 0
11, 471600, Note_on_c, 10, 45, 105
11, 471840, Note_on_c, 10, 45, 0
11, 471840, Note_on_c, 10, 48, 105
11, 472080, Note_on_c, 10, 48, 0
11, 472080, Note_on_c, 10, 52, 105
11, 472320, Note_on_c, 10, 52, 0
11, 472320, Note_on_c, 10, 45, 105
11, 472560, Note_on_c, 10, 45, 0
11, 472560, Note_on_c, 10, 41, 105
11, 472800, Note_on_c, 10, 41, 0
11, 472800, Note_on_c, 10, 45, 105
11, 473040, Note_on_c, 10, 45, 0
11, 473040, Note_on_c, 10, 48, 105
11, 473280, Note_on_c, 10, 48, 0
11, 473280, Note_on_c, 10, 41, 105
11, 473520, Note_on_c, 10, 41, 0
11, 473520, Note_on_c, 10, 38, 105
11, 473760, Note_on_c, 10, 38, 0
11, 473760, Note_on_c, 10, 41, 105
11, 474000, Note_on_c, 10, 41, 0
11, 474000, Note_on_c, 10, 45, 105
11, 474240, Note_on_c, 10, 45, 0
11, 474240, Note_on_c, 10, 41, 105
11, 474480, Note_on_c, 10, 41, 0
11, 474480, Note_on_c, 10, 37, 105
11, 474720, Note_on_c, 10, 37, 0
11, 474720, Note_on_c, 10, 38, 105
11, 474960, Note_on_c, 10, 38, 0
11, 474960, Note_on_c, 10, 40, 105
11, 475200, Note_on_c, 10, 40, 0
11, 475200, Note_on_c, 10, 41, 105
11, 475440, Note_on_c, 10, 41, 0
11, 475440, Note_on_c, 10, 41, 105
11, 475680, Note_on_c, 10, 41, 0
11, 475680, Note_on_c, 10, 42, 105
11, 475920, Note_on_c, 10, 42, 0
11, 475920, Note_on_c, 10, 42, 105
11, 476160, Note_on_c, 10, 42, 0
11, 476160, Note_on_c, 10, 43, 105
11, 476400, Note_on_c, 10, 43, 0
11, 476400, Note_on_c, 10, 47, 105
11, 476640, Note_on_c, 10, 47, 0
11, 476640, Note_on_c, 10, 50, 105
11, 476880, Note_on_c, 10, 50, 0
11, 476880, Note_on_c, 10, 43, 105
11, 477120, Note_on_c, 10, 43, 0
11, 477120, Note_on_c, 10, 48, 105
11, 477360, Note_on_c, 10, 48, 0
11, 477360, Note_on_c, 10, 43, 105
11, 477600, Note_on_c, 10, 43, 0
11, 477600, Note_on_c, 10, 40, 105
11, 477840, Note_on_c, 10, 40, 0
11, 477840, Note_on_c, 10, 36, 105
11, 478080, Note_on_c, 10, 36, 0
11, 478080, Note_on_c, 10, 43, 105
11, 478320, Note_on_c, 10, 43, 0
11, 478320, Note_on_c, 10, 47, 105
11, 478560, Note_on_c, 10, 47, 0
11, 478560, Note_on_c, 10, 50, 105
11, 478800, Note_on_c, 10, 50, 0
11, 478800, Note_on_c, 10, 43, 105
11, 479040, Note_on_c, 10, 43, 0
11, 479040, Note_on_c, 10, 48, 105
11, 479280, Note_on_c, 10, 48, 0
11, 479280, Note_on_c, 10, 43, 105
11, 479520, Note_on_c, 10, 43, 0
11, 479520, Note_on_c, 10, 40, 105
11, 479760, Note_on_c, 10, 40, 0
11, 479760, Note_on_c, 10, 36, 105
11, 480000, Note_on_c, 10, 36, 0
11, 480000, Note_on_c, 10, 31, 119
11, 480480, Note_on_c, 10, 31, 0
11, 481920, Note_on_c, 10, 36, 105
11, 482088, Note_on_c, 10, 36, 0
11, 482160, Note_on_c, 10, 48, 105
11, 482328, Note_on_c, 10, 48, 0
11, 482400, Note_on_c, 10, 48, 105
11, 482568, Note_on_c, 10, 48, 0
11, 482640, Note_on_c, 10, 48, 105
11, 482808, Note_on_c, 10, 48, 0
11, 482880, Note_on_c, 10, 48, 105
11, 483048, Note_on_c, 10, 48, 0
11, 483120, Note_on_c, 10, 48, 105
11, 483288, Note_on_c, 10, 48, 0
11, 483360, Note_on_c, 10, 48, 105
11, 483528, Note_on_c, 10, 48, 0
11, 483600, Note_on_c, 10, 48, 105
11, 483768, Note_on_c, 10, 48, 0
11, 483840, Note_on_c, 10, 48, 105
11, 484008, Note_on_c, 10, 48, 0
11, 484080, Note_on_c, 10, 48, 105
11, 484248, Note_on_c, 10, 48, 0
11, 484320, Note_on_c, 10, 48, 105
11, 484488, Note_on_c, 10, 48, 0
11, 484560, Note_on_c, 10, 48, 105
11, 484728, Note_on_c, 10, 48, 0
11, 484800, Note_on_c, 10, 48, 105
11, 484968, Note_on_c, 10, 48, 0
11, 485040, Note_on_c, 10, 48, 105
11, 485208, Note_on_c, 10, 48, 0
11, 485280, Note_on_c, 10, 48, 105
11, 485448, Note_on_c, 10, 48, 0
11, 485520, Note_on_c, 10, 48, 105
11, 485688, Note_on_c, 10, 48, 0
11, 485760, Note_on_c, 10, 48, 105
11, 485928, Note_on_c, 10, 48, 0
11, 486000, Note_on_c, 10, 36, 70
11, 486168, Note_on_c, 10, 36, 0
11, 486240, Note_on_c, 10, 36, 70
11, 486408, Note_on_c, 10, 36, 0
11, 486480, Note_on_c, 10, 36, 70
11, 486648, Note_on_c, 10, 36, 0
11, 486720, Note_on_c, 10, 36, 70
11, 486888, Note_on_c, 10, 36, 0
11, 486960, Note_on_c, 10, 36, 70
11, 487128, Note_on_c, 10, 36, 0
11, 487200, Note_on_c, 10, 36, 70
11, 487368, Note_on_c, 10, 36, 0
11, 487440, Note_on_c, 10, 36, 70
11, 487608, Note_on_c, 10, 36, 0
11, 487680, Note_on_c, 10, 36, 70
11, 487848, Note_on_c, 10, 36, 0
11, 487920, Note_on_c, 10, 36, 70
11, 488088, Note_on_c, 10, 36, 0
11, 488160, Note_on_c, 10, 36, 70
11, 488328, Note_on_c, 10, 36, 0
11, 488400, Note_on_c, 10, 36, 70
11, 488568, Note_on_c, 10, 36, 0
11, 488640, Note_on_c, 10, 36, 70
11, 488808, Note_on_c, 10, 36, 0
11, 488880, Note_on_c, 10, 48, 105
11, 489048, Note_on_c, 10, 48, 0
11, 489120, Note_on_c, 10, 48, 105
11, 489288, Note_on_c, 10, 48, 0
11, 489360, Note_on_c, 10, 48, 105
11, 489528, Note_on_c, 10, 48, 0
11, 489600, Note_on_c, 10, 47, 105
11, 489840, Note_on_c, 10, 47, 0
11, 489840, Note_on_c, 10, 50, 105
11, 490080, Note_on_c, 10, 50, 0
11, 490080, Note_on_c, 10, 47, 105
11, 490320, Note_on_c, 10, 47, 0
11, 490320, Note_on_c, 10, 43, 105
11, 490560, Note_on_c, 10, 43, 0
11, 490560, Note_on_c, 10, 41, 105
11, 490800, Note_on_c, 10, 41, 0
11, 490800, Note_on_c, 10, 38, 105
11, 491040, Note_on_c, 10, 38, 0
11, 491040, Note_on_c, 10, 35, 105
11, 491280, Note_on_c, 10, 35, 0
11, 491280, Note_on_c, 10, 31, 105
11, 491520, Note_on_c, 10, 31, 0
11, 491520, Note_on_c, 10, 36, 105
11, 491760, Note_on_c, 10, 36, 0
11, 491760, Note_on_c, 10, 52, 105
11, 492000, Note_on_c, 10, 52, 0
11, 492000, Note_on_c, 10, 48, 105
11, 492240, Note_on_c, 10, 48, 0
11, 492240, Note_on_c, 10, 44, 105
11, 492480, Note_on_c, 10, 44, 0
11, 492480, Note_on_c, 10, 45, 105
11, 492720, Note_on_c, 10, 45, 0
11, 492720, Note_on_c, 10, 48, 105
11, 492960, Note_on_c, 10, 48, 0
11, 492960, Note_on_c, 10, 45, 105
11, 493200, Note_on_c, 10, 45, 0
11, 493200, Note_on_c, 10, 40, 105
11, 493440, Note_on_c, 10, 40, 0
11, 493440, Note_on_c, 10, 41, 105
11, 493608, Note_on_c, 10, 41, 0
11, 493680, Note_on_c, 10, 41, 105
11, 493848, Note_on_c, 10, 41, 0
11, 493920, Note_on_c, 10, 41, 105
11, 494088, Note_on_c, 10, 41, 0
11, 494160, Note_on_c, 10, 41, 105
11, 494328, Note_on_c, 10, 41, 0
11, 494400, Note_on_c, 10, 43, 105
11, 494568, Note_on_c, 10, 43, 0
11, 494640, Note_on_c, 10, 43, 105
11, 494808, Note_on_c, 10, 43, 0
11, 494880, Note_on_c, 10, 43, 105
11, 495048, Note_on_c, 10, 43, 0
11, 495120, Note_on_c, 10, 43, 105
11, 495288, Note_on_c, 10, 43, 0
11, 495360, Note_on_c, 10, 40, 105
11, 495528, Note_on_c, 10, 40, 0
11, 495600, Note_on_c, 10, 40, 105
11, 495768, Note_on_c, 10, 40, 0
11, 495840, Note_on_c, 10, 40, 105
11, 496008, Note_on_c, 10, 40, 0
11, 496080, Note_on_c, 10, 40, 105
11, 496248, Note_on_c, 10, 40, 0
11, 496320, Note_on_c, 10, 41, 105
11, 496488, Note_on_c, 10, 41, 0
11, 496560, Note_on_c, 10, 41, 105
11, 496728, Note_on_c, 10, 41, 0
11, 496800, Note_on_c, 10, 41, 105
11, 496968, Note_on_c, 10, 41, 0
11, 497040, Note_on_c, 10, 41, 105
11, 497208, Note_on_c, 10, 41, 0
11, 497280, Note_on_c, 10, 43, 105
11, 497448, Note_on_c, 10, 43, 0
11, 497520, Note_on_c, 10, 43, 105
11, 497688, Note_on_c, 10, 43, 0
11, 497760, Note_on_c, 10, 43, 105
11, 497928, Note_on_c, 10, 43, 0
11, 498000, Note_on_c, 10, 43, 105
11, 498168, Note_on_c, 10, 43, 0
11, 498240, Note_on_c, 10, 43, 105
11, 498408, Note_on_c, 10, 43, 0
11, 498480, Note_on_c, 10, 43, 105
11, 498648, Note_on_c, 10, 43, 0
11, 498720, Note_on_c, 10, 31, 105
11, 498888, Note_on_c, 10, 31, 0
11, 498960, Note_on_c, 10, 31, 105
11, 499128, Note_on_c, 10, 31, 0
11, 499200, Note_on_c, 10, 36, 105
11, 499440, Note_on_c, 10, 36, 0
11, 499440, Note_on_c, 10, 40, 105
11, 499680, Note_on_c, 10, 40, 0
11, 499680, Note_on_c, 10, 43, 105
11, 499920, Note_on_c, 10, 43, 0
11, 499920, Note_on_c, 10, 40, 105
11, 500160, Note_on_c, 10, 40, 0
11, 500160, Note_on_c, 10, 36, 105
11, 500400, Note_on_c, 10, 36, 0
11, 500400, Note_on_c, 10, 40, 105
11, 500640, Note_on_c, 10, 40, 0
11, 500640, Note_on_c, 10, 43, 105
11, 500880, Note_on_c, 10, 43, 0
11, 500880, Note_on_c, 10, 40, 105
11, 501120, Note_on_c, 10, 40, 0
11, 501120, Note_on_c, 10, 36, 105
11, 501360, Note_on_c, 10, 36, 0
11, 501360, Note_on_c, 10, 40, 105
11, 501600, Note_on_c, 10, 40, 0
11, 501600, Note_on_c, 10, 43, 105
11, 501840, Note_on_c, 10, 43, 0
11, 501840, Note_on_c, 10, 40, 105
11, 502080, Note_on_c, 10, 40, 0
11, 502080, Note_on_c, 10, 36, 105
11, 502320, Note_on_c, 10, 36, 0
11, 502320, Note_on_c, 10, 40, 105
11, 502560, Note_on_c, 10, 40, 0
11, 502560, Note_on_c, 10, 43, 105
11, 502800, Note_on_c, 10, 43, 0
11, 502800, Note_on_c, 10, 40, 105
11, 503040, Note_on_c, 10, 40, 0
11, 503040, Note_on_c, 10, 48, 105
11, 503724, Note_on_c, 10, 48, 0
11, 503760, Note_on_c, 10, 43, 105
11, 503988, Note_on_c, 10, 43, 0
11, 504000, Note_on_c, 10, 40, 105
11, 504228, Note_on_c, 10, 40, 0
11, 504240, Note_on_c, 10, 36, 105
11, 504468, Note_on_c, 10, 36, 0
11, 504480, Note_on_c, 10, 40, 105
11, 504708, Note_on_c, 10, 40, 0
11, 504720, Note_on_c, 10, 43, 105
11, 504948, Note_on_c, 10, 43, 0
11, 504960, Note_on_c, 10, 48, 105
11, 505644, Note_on_c, 10, 48, 0
11, 505680, Note_on_c, 10, 43, 105
11, 505908, Note_on_c, 10, 43, 0
11, 505920, Note_on_c, 10, 40, 105
11, 506148, Note_on_c, 10, 40, 0
11, 506160, Note_on_c, 10, 36, 105
11, 506388, Note_on_c, 10, 36, 0
11, 506400, Note_on_c, 10, 40, 105
11, 506628, Note_on_c, 10, 40, 0
11, 506640, Note_on_c, 10, 43, 105
11, 506868, Note_on_c, 10, 43, 0
11, 506880, Note_on_c, 10, 48, 105
11, 507360, Note_on_c, 10, 48, 0
11, 507360, Note_on_c, 10, 48, 105
11, 507840, Note_on_c, 10, 48, 0
11, 507840, Note_on_c, 10, 43, 105
11, 508320, Note_on_c, 10, 43, 0
11, 508320, Note_on_c, 10, 40, 105
11, 508800, Note_on_c, 10, 40, 0
11, 508800, Note_on_c, 10, 36, 105
11, 509280, Note_on_c, 10, 36, 0
11, 510720, System_exclusive, 0A, 41, 10, 42, 12, 40, 00, 7F, 00, 41, F7
11, 510720, End_track
12, 0, Start_track
12, 0, Title_t, "Mozart Concerto for Flute and Harp in C,"
12, 0, Control_c, 0, 91, 0
12, 0, Control_c, 0, 93, 0
12, 0, End_track
13, 0, Start_track
13, 0, Title_t, "K.299 (1778)"
13, 0, Control_c, 0, 91, 0
13, 0, Control_c, 0, 93, 0
13, 0, End_track
14, 0, Start_track
14, 0, Title_t, "Sequenced by Randy Reid, 1996"
14, 0, Control_c, 0, 91, 0
14, 0, Control_c, 0, 93, 0
14, 0, End_track
15, 0, Start_track
15, 0, Title_t, "Troppo@msn.com"
15, 0, Control_c, 0, 91, 0
15, 0, Control_c, 0, 93, 0
15, 0, End_track
16, 0, Start_track
16, 0, Title_t, "Console Automation Data"
16, 0, Control_c, 1, 40, 103
16, 0, Control_c, 0, 40, 103
16, 0, Control_c, 1, 93, 64
16, 0, Control_c, 1, 92, 0
16, 0, Control_c, 1, 96, 64
16, 0, Control_c, 1, 95, 127
16, 0, Control_c, 0, 93, 64
16, 0, Control_c, 0, 92, 0
16, 0, Control_c, 0, 96, 64
16, 0, Control_c, 0, 95, 127
16, 0, Control_c, 0, 91, 0
16, 0, End_track
0, 0, End_of_file