0, 0, Header, 0, 1, 480
1, 0, Start_track
1, 0, SMPTE_offset, 96, 0, 0, 0, 0
1, 0, Time_signature, 4, 2, 24, 8
1, 0, Key_signature, 0, "major"
1, 0, Tempo, 500000
1, 0, Note_on_c, 0, 60, 102
1, 10, Note_on_c, 0, 48, 92
1, 12, Note_on_c, 0, 36, 85
1, 236, Control_c, 0, 64, 127
1, 836, Control_c, 0, 64, 0
1, 1436, Control_c, 0, 64, 127
1, 2014, Note_off_c, 0, 48, 64
1, 2186, Note_off_c, 0, 36, 64
1, 3492, Note_on_c, 0, 63, 38
1, 3518, Note_on_c, 0, 51, 24
1, 3524, Note_on_c, 0, 39, 26
1, 3552, Note_off_c, 0, 60, 64
1, 3632, Control_c, 0, 64, 0
1, 3940, Control_c, 0, 64, 127
1, 4038, Note_off_c, 0, 51, 64
1, 4052, Note_off_c, 0, 39, 64
1, 4364, Note_on_c, 0, 42, 35
1, 4366, Note_on_c, 0, 66, 52
1, 4366, Note_on_c, 0, 54, 27
1, 4510, Note_off_c, 0, 63, 64
1, 4586, Control_c, 0, 64, 0
1, 4846, Control_c, 0, 64, 127
1, 4962, Note_off_c, 0, 42, 64
1, 4978, Note_off_c, 0, 54, 64
1, 5104, Note_on_c, 0, 67, 68
1, 5142, Note_on_c, 0, 55, 38
1, 5142, Note_on_c, 0, 43, 42
1, 5232, Note_off_c, 0, 66, 64
1, 5322, Control_c, 0, 64, 0
1, 5568, Control_c, 0, 64, 127
1, 5588, Note_off_c, 0, 55, 64
1, 5686, Note_off_c, 0, 43, 64
1, 5844, Note_on_c, 0, 68, 68
1, 5852, Note_on_c, 0, 56, 35
1, 5876, Note_on_c, 0, 44, 33
1, 5958, Note_off_c, 0, 67, 64
1, 5984, Control_c, 0, 64, 0
1, 6260, Control_c, 0, 64, 127
1, 6284, Note_off_c, 0, 56, 64
1, 6446, Note_off_c, 0, 44, 64
1, 6702, Note_on_c, 0, 60, 44
1, 6746, Note_on_c, 0, 48, 29
1, 6752, Note_on_c, 0, 36, 26
1, 6874, Note_off_c, 0, 68, 64
1, 6950, Control_c, 0, 64, 0
1, 7228, Note_off_c, 0, 36, 64
1, 7258, Control_c, 0, 64, 127
1, 7270, Note_off_c, 0, 48, 64
1, 7656, Note_off_c, 0, 60, 64
1, 7659, Note_on_c, 0, 59, 34
1, 7700, Note_on_c, 0, 47, 17
1, 7712, Note_on_c, 0, 35, 14
1, 7842, Control_c, 0, 64, 0
1, 8334, Note_off_c, 0, 35, 64
1, 8366, Note_off_c, 0, 47, 64
1, 8380, Control_c, 0, 64, 127
1, 8440, Note_off_c, 0, 59, 64
1, 9072, Control_c, 0, 64, 0
1, 9176, Note_on_c, 0, 75, 65
1, 9186, Note_on_c, 0, 72, 59
1, 9200, Note_on_c, 0, 66, 40
1, 9716, Control_c, 0, 64, 127
1, 9920, Note_off_c, 0, 66, 64
1, 9925, Note_off_c, 0, 72, 64
1, 9936, Note_on_c, 0, 74, 46
1, 9938, Note_off_c, 0, 75, 64
1, 9944, Note_on_c, 0, 67, 37
1, 9956, Note_on_c, 0, 71, 31
1, 9964, Control_c, 0, 64, 0
1, 10198, Note_off_c, 0, 71, 64
1, 10214, Note_off_c, 0, 67, 64
1, 10230, Note_off_c, 0, 74, 64
1, 10254, Control_c, 0, 64, 127
1, 10608, Control_c, 0, 64, 0
1, 10680, Note_on_c, 0, 78, 43
1, 10716, Note_on_c, 0, 68, 31
1, 10730, Note_on_c, 0, 72, 29
1, 11056, Note_off_c, 0, 68, 64
1, 11162, Control_c, 0, 64, 127
1, 11182, Note_off_c, 0, 72, 64
1, 11378, Note_off_c, 0, 78, 64
1, 11668, Note_on_c, 0, 79, 14
1, 11688, Note_on_c, 0, 71, 14
1, 11722, Note_on_c, 0, 67, 12
1, 11946, Control_c, 0, 64, 0
1, 12282, Control_c, 0, 64, 127
1, 12348, Note_off_c, 0, 71, 64
1, 12350, Note_off_c, 0, 79, 64
1, 12374, Note_off_c, 0, 67, 64
1, 12912, Control_c, 0, 64, 0
1, 14854, Note_on_c, 0, 58, 112
1, 14862, Note_on_c, 0, 46, 106
1, 14864, Note_on_c, 0, 34, 105
1, 15724, Control_c, 0, 64, 127
1, 16002, Control_c, 0, 64, 0
1, 16364, Note_off_c, 0, 46, 64
1, 16369, Control_c, 0, 64, 127
1, 16994, Note_off_c, 0, 34, 64
1, 17934, Note_on_c, 0, 61, 65
1, 17956, Note_on_c, 0, 49, 40
1, 17974, Note_on_c, 0, 37, 39
1, 18030, Control_c, 0, 64, 0
1, 18076, Note_off_c, 0, 58, 64
1, 18368, Control_c, 0, 64, 127
1, 18436, Note_off_c, 0, 37, 64
1, 18448, Note_off_c, 0, 49, 64
1, 18680, Note_on_c, 0, 64, 75
1, 18698, Note_on_c, 0, 40, 45
1, 18698, Note_on_c, 0, 52, 46
1, 18746, Note_off_c, 0, 61, 64
1, 18766, Control_c, 0, 64, 0
1, 19044, Control_c, 0, 64, 127
1, 19066, Note_on_c, 0, 65, 77
1, 19069, Note_off_c, 0, 64, 64
1, 19238, Note_on_c, 0, 64, 73
1, 19276, Note_off_c, 0, 65, 64
1, 19340, Note_on_c, 0, 62, 78
1, 19350, Note_off_c, 0, 64, 64
1, 19458, Control_c, 0, 64, 0
1, 19466, Note_on_c, 0, 64, 69
1, 19478, Note_off_c, 0, 62, 64
1, 19674, Note_off_c, 0, 40, 64
1, 19674, Control_c, 0, 64, 127
1, 19688, Note_off_c, 0, 52, 64
1, 19822, Note_on_c, 0, 65, 63
1, 19824, Note_on_c, 0, 41, 51
1, 19842, Control_c, 0, 64, 0
1, 19848, Note_on_c, 0, 53, 26
1, 19884, Note_off_c, 0, 64, 64
1, 20042, Control_c, 0, 64, 127
1, 20064, Note_off_c, 0, 53, 64
1, 20066, Note_off_c, 0, 41, 64
1, 20248, Note_on_c, 0, 67, 64
1, 20270, Note_on_c, 0, 43, 34
1, 20334, Control_c, 0, 64, 0
1, 20358, Note_off_c, 0, 65, 64
1, 20610, Control_c, 0, 64, 127
1, 20762, Note_off_c, 0, 43, 64
1, 21050, Note_on_c, 0, 58, 52
1, 21088, Note_on_c, 0, 34, 33
1, 21092, Note_on_c, 0, 46, 28
1, 21274, Note_off_c, 0, 67, 64
1, 21380, Control_c, 0, 64, 0
1, 21552, Note_off_c, 0, 46, 64
1, 21610, Control_c, 0, 64, 127
1, 21664, Note_off_c, 0, 34, 64
1, 21970, Note_on_c, 0, 45, 32
1, 21970, Note_on_c, 0, 33, 42
1, 21984, Note_on_c, 0, 57, 33
1, 22090, Note_off_c, 0, 58, 64
1, 22148, Control_c, 0, 64, 0
1, 22700, Control_c, 0, 64, 127
1, 22728, Note_off_c, 0, 45, 64
1, 22796, Note_off_c, 0, 57, 64
1, 22916, Note_off_c, 0, 33, 64
1, 23618, Note_on_c, 0, 73, 44
1, 23632, Note_on_c, 0, 70, 42
1, 23652, Control_c, 0, 64, 0
1, 23654, Note_on_c, 0, 64, 48
1, 24252, Control_c, 0, 64, 127
1, 24378, Note_off_c, 0, 64, 64
1, 24396, Note_off_c, 0, 73, 64
1, 24404, Note_on_c, 0, 72, 49
1, 24416, Note_on_c, 0, 69, 27
1, 24430, Note_off_c, 0, 70, 64
1, 24446, Note_on_c, 0, 65, 8
1, 24482, Control_c, 0, 64, 0
1, 24738, Note_off_c, 0, 69, 64
1, 24760, Control_c, 0, 64, 127
1, 24768, Note_off_c, 0, 65, 64
1, 24788, Note_off_c, 0, 72, 64
1, 25066, Control_c, 0, 64, 0
1, 25250, Note_on_c, 0, 73, 41
1, 25250, Note_on_c, 0, 76, 51
1, 25264, Note_on_c, 0, 70, 35
1, 25666, Control_c, 0, 64, 127
1, 25684, Note_off_c, 0, 73, 64
1, 25688, Note_off_c, 0, 70, 64
1, 25808, Note_off_c, 0, 76, 64
1, 26182, Note_on_c, 0, 77, 31
1, 26184, Note_on_c, 0, 72, 28
1, 26206, Note_on_c, 0, 69, 13
1, 26280, Control_c, 0, 64, 0
1, 26732, Note_off_c, 0, 72, 64
1, 26752, Note_off_c, 0, 77, 64
1, 26755, Control_c, 0, 64, 127
1, 26862, Note_off_c, 0, 69, 64
1, 27064, Control_c, 0, 64, 0
1, 29470, Note_on_c, 0, 56, 103
1, 29476, Note_on_c, 0, 44, 85
1, 29478, Note_on_c, 0, 32, 83
1, 30520, Control_c, 0, 64, 127
1, 30706, Control_c, 0, 64, 0
1, 31058, Control_c, 0, 64, 127
1, 31212, Note_off_c, 0, 32, 64
1, 32608, Note_on_c, 0, 60, 55
1, 32611, Note_off_c, 0, 44, 64
1, 32616, Note_on_c, 0, 48, 29
1, 32630, Note_on_c, 0, 36, 30
1, 32720, Note_off_c, 0, 56, 64
1, 32764, Control_c, 0, 64, 0
1, 33026, Control_c, 0, 64, 127
1, 33029, Note_off_c, 0, 48, 64
1, 33306, Note_off_c, 0, 36, 64
1, 33314, Note_on_c, 0, 61, 68
1, 33332, Note_on_c, 0, 49, 50
1, 33332, Note_on_c, 0, 37, 43
1, 33394, Note_off_c, 0, 60, 64
1, 33548, Control_c, 0, 64, 0
1, 33762, Control_c, 0, 64, 127
1, 33806, Note_off_c, 0, 37, 64
1, 33838, Note_off_c, 0, 49, 64
1, 34030, Note_on_c, 0, 65, 80
1, 34036, Note_on_c, 0, 53, 44
1, 34046, Note_on_c, 0, 41, 32
1, 34248, Note_off_c, 0, 61, 64
1, 34270, Control_c, 0, 64, 0
1, 34454, Control_c, 0, 64, 127
1, 34457, Note_off_c, 0, 53, 64
1, 34470, Note_off_c, 0, 41, 64
1, 34676, Note_on_c, 0, 68, 65
1, 34684, Note_on_c, 0, 56, 38
1, 34716, Note_on_c, 0, 44, 24
1, 34794, Note_off_c, 0, 65, 64
1, 34900, Control_c, 0, 64, 0
1, 35160, Control_c, 0, 64, 127
1, 35380, Note_on_c, 0, 61, 50
1, 35430, Note_off_c, 0, 44, 64
1, 35522, Note_off_c, 0, 68, 64
1, 35522, Note_off_c, 0, 56, 64
1, 35668, Control_c, 0, 64, 0
1, 35914, Control_c, 0, 64, 127
1, 36238, Note_on_c, 0, 60, 45
1, 36250, Note_on_c, 0, 44, 21
1, 36254, Note_off_c, 0, 61, 64
1, 36452, Control_c, 0, 64, 0
1, 36498, Control_c, 0, 64, 127
1, 36620, Control_c, 0, 64, 0
1, 36648, Note_on_c, 0, 54, 28
1, 36836, Control_c, 0, 64, 127
1, 36940, Note_off_c, 0, 54, 64
1, 37008, Note_on_c, 0, 51, 18
1, 37018, Note_off_c, 0, 44, 64
1, 37130, Note_off_c, 0, 51, 64
1, 37328, Note_on_c, 0, 54, 32
1, 37554, Note_off_c, 0, 54, 64
1, 37654, Note_on_c, 0, 44, 34
1, 37966, Note_on_c, 0, 54, 32
1, 38024, Note_off_c, 0, 44, 64
1, 38140, Note_off_c, 0, 54, 64
1, 38278, Note_on_c, 0, 62, 63
1, 38332, Note_on_c, 0, 51, 21
1, 38408, Note_off_c, 0, 60, 64
1, 38556, Note_on_c, 0, 54, 37
1, 38570, Note_off_c, 0, 51, 64
1, 38770, Note_off_c, 0, 54, 64
1, 38912, Note_on_c, 0, 63, 70
1, 38942, Note_on_c, 0, 44, 29
1, 39088, Note_off_c, 0, 62, 64
1, 39204, Note_on_c, 0, 54, 42
1, 39204, Control_c, 0, 64, 0
1, 39416, Control_c, 0, 64, 127
1, 39526, Note_off_c, 0, 54, 64
1, 39544, Note_on_c, 0, 66, 83
1, 39580, Note_on_c, 0, 51, 35
1, 39690, Note_off_c, 0, 63, 64
1, 39856, Note_on_c, 0, 54, 48
1, 39872, Note_off_c, 0, 44, 64
1, 40052, Note_off_c, 0, 54, 64
1, 40176, Note_off_c, 0, 51, 64
1, 40188, Note_on_c, 0, 70, 88
1, 40226, Note_on_c, 0, 44, 38
1, 40368, Note_off_c, 0, 66, 64
1, 40506, Note_on_c, 0, 54, 41
1, 40806, Note_off_c, 0, 54, 64
1, 40816, Note_on_c, 0, 60, 78
1, 40838, Note_on_c, 0, 51, 37
1, 40938, Control_c, 0, 64, 0
1, 40990, Note_off_c, 0, 70, 64
1, 41154, Note_on_c, 0, 54, 43
1, 41168, Control_c, 0, 64, 127
1, 41240, Note_off_c, 0, 44, 64
1, 41380, Note_off_c, 0, 51, 64
1, 41436, Note_off_c, 0, 54, 64
1, 41552, Control_c, 0, 64, 0
1, 41554, Note_on_c, 0, 61, 58
1, 41590, Note_on_c, 0, 44, 36
1, 41678, Note_off_c, 0, 60, 64
1, 41912, Note_on_c, 0, 53, 37
1, 42030, Control_c, 0, 64, 127
1, 42130, Note_off_c, 0, 53, 64
1, 42190, Note_on_c, 0, 49, 37
1, 42250, Note_off_c, 0, 44, 64
1, 42426, Note_off_c, 0, 49, 64
1, 42508, Note_on_c, 0, 53, 28
1, 42640, Note_off_c, 0, 53, 64
1, 42792, Note_on_c, 0, 44, 29
1, 43090, Note_on_c, 0, 53, 33
1, 43100, Note_off_c, 0, 44, 64
1, 43364, Note_off_c, 0, 53, 64
1, 43424, Note_on_c, 0, 64, 61
1, 43440, Note_on_c, 0, 49, 25
1, 43572, Note_off_c, 0, 61, 64
1, 43734, Note_on_c, 0, 53, 36
1, 43828, Note_off_c, 0, 49, 64
1, 43894, Note_off_c, 0, 53, 64
1, 44030, Note_on_c, 0, 65, 79
1, 44042, Note_on_c, 0, 44, 33
1, 44074, Note_off_c, 0, 64, 64
1, 44336, Note_on_c, 0, 53, 41
1, 44364, Control_c, 0, 64, 0
1, 44564, Control_c, 0, 64, 127
1, 44616, Note_on_c, 0, 68, 78
1, 44622, Note_off_c, 0, 53, 64
1, 44644, Note_on_c, 0, 49, 41
1, 44684, Note_off_c, 0, 65, 64
1, 44748, Control_c, 0, 64, 0
1, 44948, Control_c, 0, 64, 127
1, 44978, Note_off_c, 0, 44, 64
1, 44986, Note_on_c, 0, 53, 32
1, 45136, Note_off_c, 0, 53, 64
1, 45246, Note_off_c, 0, 49, 64
1, 45258, Note_on_c, 0, 73, 64
1, 45258, Note_on_c, 0, 44, 33
1, 45346, Note_off_c, 0, 68, 64
1, 45508, Control_c, 0, 64, 0
1, 45582, Note_on_c, 0, 53, 44
1, 45670, Control_c, 0, 64, 127
1, 45840, Note_off_c, 0, 53, 64
1, 45850, Note_on_c, 0, 61, 74
1, 45874, Note_on_c, 0, 49, 39
1, 45900, Note_off_c, 0, 73, 64
1, 46106, Note_off_c, 0, 44, 64
1, 46170, Note_off_c, 0, 49, 64
1, 46210, Note_on_c, 0, 53, 37
1, 46260, Note_off_c, 0, 61, 64
1, 46330, Note_off_c, 0, 53, 64
1, 46580, Note_on_c, 0, 60, 80
1, 46590, Note_on_c, 0, 45, 72
1, 46946, Control_c, 0, 64, 0
1, 46954, Note_on_c, 0, 54, 46
1, 47208, Control_c, 0, 64, 127
1, 47238, Note_off_c, 0, 54, 64
1, 47258, Note_on_c, 0, 51, 47
1, 47400, Note_off_c, 0, 45, 64
1, 47462, Note_off_c, 0, 51, 64
1, 47542, Note_on_c, 0, 54, 47
1, 47766, Note_off_c, 0, 54, 64
1, 47894, Note_on_c, 0, 45, 33
1, 47916, Note_off_c, 0, 60, 64
1, 48182, Note_on_c, 0, 54, 36
1, 48458, Note_off_c, 0, 54, 64
1, 48526, Note_on_c, 0, 75, 59
1, 48534, Note_off_c, 0, 45, 64
1, 48570, Note_on_c, 0, 51, 21
1, 48784, Note_off_c, 0, 51, 64
1, 48832, Note_on_c, 0, 54, 36
1, 49086, Note_off_c, 0, 54, 64
1, 49152, Note_on_c, 0, 72, 75
1, 49188, Note_on_c, 0, 45, 38
1, 49328, Control_c, 0, 64, 0
1, 49344, Note_off_c, 0, 75, 64
1, 49458, Note_on_c, 0, 54, 44
1, 49542, Control_c, 0, 64, 127
1, 49702, Note_off_c, 0, 54, 64
1, 49756, Note_on_c, 0, 69, 78
1, 49776, Note_on_c, 0, 51, 37
1, 49792, Note_off_c, 0, 45, 64
1, 49866, Note_off_c, 0, 72, 64
1, 50034, Note_off_c, 0, 51, 64
1, 50056, Note_on_c, 0, 54, 46
1, 50328, Note_off_c, 0, 54, 64
1, 50332, Note_on_c, 0, 66, 79
1, 50352, Note_on_c, 0, 45, 57
1, 50448, Note_off_c, 0, 69, 64
1, 50496, Control_c, 0, 64, 0
1, 50646, Note_on_c, 0, 54, 52
1, 50710, Control_c, 0, 64, 127
1, 50868, Note_off_c, 0, 54, 64
1, 50910, Note_on_c, 0, 63, 80
1, 50944, Note_on_c, 0, 51, 48
1, 50990, Note_off_c, 0, 66, 64
1, 51080, Note_off_c, 0, 45, 64
1, 51194, Note_off_c, 0, 51, 64
1, 51218, Note_off_c, 0, 63, 64
1, 51224, Note_on_c, 0, 54, 42
1, 51396, Note_off_c, 0, 54, 64
1, 51562, Note_on_c, 0, 58, 103
1, 51578, Note_on_c, 0, 46, 96
1, 51910, Note_on_c, 0, 54, 62
1, 52032, Control_c, 0, 64, 0
1, 52208, Note_on_c, 0, 51, 56
1, 52220, Note_off_c, 0, 54, 64
1, 52246, Control_c, 0, 64, 127
1, 52440, Note_off_c, 0, 51, 64
1, 52488, Note_off_c, 0, 46, 64
1, 52504, Note_on_c, 0, 54, 50
1, 52760, Note_off_c, 0, 54, 64
1, 52814, Note_off_c, 0, 58, 64
1, 52817, Note_on_c, 0, 46, 65
1, 53122, Note_on_c, 0, 54, 52
1, 53422, Note_off_c, 0, 54, 64
1, 53446, Note_off_c, 0, 46, 64
1, 53466, Note_on_c, 0, 78, 76
1, 53474, Note_on_c, 0, 51, 42
1, 53750, Note_off_c, 0, 51, 64
1, 53788, Note_on_c, 0, 54, 35
1, 54046, Note_off_c, 0, 54, 64
1, 54128, Note_on_c, 0, 75, 68
1, 54140, Note_on_c, 0, 46, 42
1, 54234, Note_off_c, 0, 78, 64
1, 54430, Note_on_c, 0, 54, 34
1, 54474, Control_c, 0, 64, 0
1, 54674, Control_c, 0, 64, 127
1, 54732, Note_off_c, 0, 54, 64
1, 54740, Note_on_c, 0, 70, 65
1, 54766, Note_on_c, 0, 51, 31
1, 54910, Note_off_c, 0, 75, 64
1, 54928, Note_off_c, 0, 46, 64
1, 55046, Note_off_c, 0, 51, 64
1, 55048, Note_on_c, 0, 54, 37
1, 55284, Note_off_c, 0, 54, 64
1, 55344, Note_on_c, 0, 66, 49
1, 55380, Note_on_c, 0, 46, 39
1, 55428, Control_c, 0, 64, 0
1, 55446, Note_off_c, 0, 70, 64
1, 55640, Note_on_c, 0, 54, 35
1, 55658, Control_c, 0, 64, 127
1, 55914, Note_off_c, 0, 54, 64
1, 55964, Note_on_c, 0, 63, 34
1, 55988, Note_on_c, 0, 51, 22
1, 56014, Note_off_c, 0, 66, 64
1, 56026, Control_c, 0, 64, 0
1, 56242, Control_c, 0, 64, 127
1, 56264, Note_off_c, 0, 51, 64
1, 56288, Note_on_c, 0, 54, 29
1, 56416, Note_off_c, 0, 46, 64
1, 56436, Note_off_c, 0, 54, 64
1, 56672, Control_c, 0, 64, 0
1, 56728, Note_on_c, 0, 59, 26
1, 56730, Note_on_c, 0, 47, 37
1, 56736, Note_off_c, 0, 63, 64
1, 57070, Note_on_c, 0, 63, 41
1, 57070, Note_on_c, 0, 66, 33
1, 57168, Note_off_c, 0, 63, 64
1, 57174, Note_off_c, 0, 66, 64
1, 57362, Note_on_c, 0, 63, 36
1, 57366, Note_on_c, 0, 66, 42
1, 57380, Note_off_c, 0, 59, 64
1, 57432, Note_off_c, 0, 66, 64
1, 57438, Note_off_c, 0, 63, 64
1, 57642, Note_on_c, 0, 63, 42
1, 57646, Note_on_c, 0, 66, 32
1, 57716, Note_off_c, 0, 63, 64
1, 57738, Note_off_c, 0, 66, 64
1, 57746, Control_c, 0, 64, 127
1, 57938, Note_on_c, 0, 63, 34
1, 57956, Note_on_c, 0, 66, 31
1, 57962, Control_c, 0, 64, 0
1, 58030, Note_off_c, 0, 63, 64
1, 58052, Note_off_c, 0, 66, 64
1, 58240, Note_on_c, 0, 63, 48
1, 58243, Note_on_c, 0, 66, 36
1, 58320, Note_off_c, 0, 63, 64
1, 58332, Control_c, 0, 64, 127
1, 58378, Note_off_c, 0, 66, 64
1, 58484, Control_c, 0, 64, 0
1, 58518, Note_on_c, 0, 66, 31
1, 58530, Note_on_c, 0, 63, 39
1, 58533, Note_on_c, 0, 51, 62
1, 58604, Note_off_c, 0, 47, 64
1, 58622, Note_off_c, 0, 63, 64
1, 58678, Note_off_c, 0, 66, 64
1, 58700, Control_c, 0, 64, 127
1, 58746, Control_c, 0, 64, 0
1, 58808, Note_on_c, 0, 66, 38
1, 58824, Note_on_c, 0, 63, 48
1, 58912, Note_off_c, 0, 63, 64
1, 58960, Control_c, 0, 64, 127
1, 58962, Note_off_c, 0, 66, 64
1, 59118, Note_on_c, 0, 54, 74
1, 59126, Note_on_c, 0, 66, 46
1, 59128, Note_on_c, 0, 63, 34
1, 59146, Control_c, 0, 64, 0
1, 59194, Note_off_c, 0, 51, 64
1, 59220, Note_off_c, 0, 63, 64
1, 59256, Note_off_c, 0, 66, 64
1, 59376, Control_c, 0, 64, 127
1, 59406, Control_c, 0, 64, 0
1, 59420, Note_on_c, 0, 66, 55
1, 59426, Note_on_c, 0, 63, 38
1, 59518, Note_off_c, 0, 63, 64
1, 59572, Note_off_c, 0, 66, 64
1, 59622, Control_c, 0, 64, 127
1, 59700, Note_on_c, 0, 66, 30
1, 59702, Note_on_c, 0, 63, 42
1, 59712, Note_on_c, 0, 58, 81
1, 59730, Control_c, 0, 64, 0
1, 59786, Note_off_c, 0, 63, 64
1, 59808, Note_off_c, 0, 54, 64
1, 59832, Note_off_c, 0, 66, 64
1, 59944, Control_c, 0, 64, 127
1, 60000, Note_on_c, 0, 63, 47
1, 60006, Control_c, 0, 64, 0
1, 60014, Note_on_c, 0, 66, 50
1, 60076, Note_off_c, 0, 63, 64
1, 60088, Note_off_c, 0, 66, 64
1, 60174, Control_c, 0, 64, 127
1, 60278, Note_on_c, 0, 66, 36
1, 60280, Note_off_c, 0, 58, 64
1, 60294, Note_on_c, 0, 63, 18
1, 60302, Note_on_c, 0, 59, 53
1, 60374, Control_c, 0, 64, 0
1, 60392, Note_off_c, 0, 63, 64
1, 60416, Note_off_c, 0, 66, 64
1, 60568, Note_on_c, 0, 66, 28
1, 60582, Note_on_c, 0, 63, 29
1, 60590, Control_c, 0, 64, 127
1, 60662, Note_off_c, 0, 63, 64
1, 60700, Note_off_c, 0, 66, 64
1, 60876, Note_on_c, 0, 63, 26
1, 60884, Note_on_c, 0, 66, 38
1, 60916, Note_on_c, 0, 47, 49
1, 60942, Control_c, 0, 64, 0
1, 60966, Note_off_c, 0, 63, 64
1, 60968, Note_off_c, 0, 66, 64
1, 60996, Note_off_c, 0, 59, 64
1, 61128, Control_c, 0, 64, 127
1, 61196, Note_on_c, 0, 63, 31
1, 61196, Note_on_c, 0, 66, 40
1, 61250, Note_off_c, 0, 47, 64
1, 61278, Note_off_c, 0, 63, 64
1, 61310, Note_off_c, 0, 66, 64
1, 61498, Note_on_c, 0, 46, 103
1, 61501, Note_on_c, 0, 66, 65
1, 61506, Note_on_c, 0, 34, 104
1, 61512, Note_on_c, 0, 64, 71
1, 61638, Note_off_c, 0, 64, 64
1, 61680, Note_off_c, 0, 66, 64
1, 61828, Note_on_c, 0, 64, 68
1, 61830, Note_on_c, 0, 66, 68
1, 61850, Control_c, 0, 64, 0
1, 61994, Note_off_c, 0, 64, 64
1, 62016, Note_off_c, 0, 66, 64
1, 62034, Control_c, 0, 64, 127
1, 62098, Note_on_c, 0, 66, 65
1, 62112, Note_on_c, 0, 64, 51
1, 62156, Control_c, 0, 64, 0
1, 62252, Note_off_c, 0, 64, 64
1, 62278, Note_off_c, 0, 66, 64
1, 62312, Control_c, 0, 64, 127
1, 62372, Note_on_c, 0, 66, 51
1, 62390, Note_on_c, 0, 64, 55
1, 62404, Control_c, 0, 64, 0
1, 62524, Note_off_c, 0, 64, 64
1, 62540, Control_c, 0, 64, 127
1, 62550, Note_off_c, 0, 66, 64
1, 62620, Note_off_c, 0, 46, 64
1, 62658, Note_on_c, 0, 66, 37
1, 62678, Control_c, 0, 64, 0
1, 62684, Note_on_c, 0, 64, 51
1, 62804, Note_off_c, 0, 64, 64
1, 62830, Note_off_c, 0, 66, 64
1, 62848, Control_c, 0, 64, 127
1, 62948, Note_off_c, 0, 34, 64
1, 62962, Note_on_c, 0, 66, 22
1, 62986, Note_on_c, 0, 64, 38
1, 63064, Note_off_c, 0, 64, 64
1, 63100, Note_off_c, 0, 66, 64
1, 63298, Note_on_c, 0, 66, 45
1, 63304, Note_on_c, 0, 49, 58
1, 63318, Note_on_c, 0, 64, 23
1, 63390, Note_off_c, 0, 64, 64
1, 63418, Note_off_c, 0, 66, 64
1, 63494, Control_c, 0, 64, 0
1, 63596, Note_on_c, 0, 66, 59
1, 63599, Note_on_c, 0, 64, 49
1, 63694, Control_c, 0, 64, 127
1, 63697, Note_off_c, 0, 64, 64
1, 63728, Note_off_c, 0, 66, 64
1, 63882, Note_on_c, 0, 54, 86
1, 63894, Note_on_c, 0, 66, 50
1, 63896, Note_on_c, 0, 64, 48
1, 63978, Note_off_c, 0, 64, 64
1, 63986, Control_c, 0, 64, 0
1, 64026, Note_off_c, 0, 66, 64
1, 64150, Note_off_c, 0, 49, 64
1, 64153, Control_c, 0, 64, 127
1, 64166, Note_on_c, 0, 66, 55
1, 64176, Note_on_c, 0, 64, 54
1, 64266, Note_off_c, 0, 64, 64
1, 64304, Note_off_c, 0, 66, 64
1, 64448, Note_on_c, 0, 58, 92
1, 64458, Note_on_c, 0, 66, 46
1, 64468, Note_on_c, 0, 64, 44
1, 64508, Control_c, 0, 64, 0
1, 64530, Note_off_c, 0, 64, 64
1, 64564, Note_off_c, 0, 54, 64
1, 64588, Note_off_c, 0, 66, 64
1, 64692, Control_c, 0, 64, 127
1, 64722, Note_on_c, 0, 66, 48
1, 64740, Note_on_c, 0, 64, 47
1, 64816, Note_off_c, 0, 64, 64
1, 64860, Note_off_c, 0, 66, 64
1, 65010, Note_on_c, 0, 66, 32
1, 65022, Note_on_c, 0, 64, 39
1, 65028, Note_on_c, 0, 61, 59
1, 65076, Control_c, 0, 64, 0
1, 65092, Note_off_c, 0, 58, 64
1, 65095, Note_off_c, 0, 64, 64
1, 65152, Note_off_c, 0, 66, 64
1, 65292, Control_c, 0, 64, 127
1, 65324, Note_on_c, 0, 66, 43
1, 65346, Note_on_c, 0, 64, 35
1, 65412, Note_off_c, 0, 64, 64
1, 65454, Note_off_c, 0, 66, 64
1, 65504, Note_off_c, 0, 61, 64
1, 65620, Note_on_c, 0, 46, 76
1, 65634, Note_on_c, 0, 66, 52
1, 65637, Note_on_c, 0, 64, 34
1, 65704, Note_off_c, 0, 64, 64
1, 65709, Note_off_c, 0, 66, 64
1, 65752, Control_c, 0, 64, 0
1, 65922, Control_c, 0, 64, 127
1, 65925, Note_on_c, 0, 66, 53
1, 65930, Note_on_c, 0, 64, 54
1, 65958, Note_off_c, 0, 46, 64
1, 65988, Note_off_c, 0, 64, 64
1, 66062, Note_off_c, 0, 66, 64
1, 66228, Note_on_c, 0, 45, 102
1, 66228, Note_on_c, 0, 61, 85
1, 66231, Note_on_c, 0, 33, 95
1, 66238, Note_on_c, 0, 67, 94
1, 66238, Note_on_c, 0, 64, 92
1, 66406, Note_off_c, 0, 64, 64
1, 66408, Note_off_c, 0, 61, 64
1, 66432, Note_off_c, 0, 67, 64
1, 66526, Note_on_c, 0, 67, 58
1, 66536, Note_on_c, 0, 61, 60
1, 66542, Note_on_c, 0, 64, 59
1, 66552, Control_c, 0, 64, 0
1, 66710, Note_off_c, 0, 64, 64
1, 66720, Note_off_c, 0, 61, 64
1, 66730, Note_off_c, 0, 67, 64
1, 66750, Control_c, 0, 64, 127
1, 66812, Note_on_c, 0, 61, 55
1, 66812, Note_on_c, 0, 64, 61
1, 66815, Note_on_c, 0, 67, 72
1, 66948, Note_off_c, 0, 64, 64
1, 66950, Note_off_c, 0, 61, 64
1, 66972, Note_off_c, 0, 67, 64
1, 67098, Note_on_c, 0, 61, 47
1, 67108, Note_on_c, 0, 67, 41
1, 67112, Note_on_c, 0, 64, 38
1, 67176, Note_off_c, 0, 45, 64
1, 67224, Note_off_c, 0, 64, 64
1, 67232, Note_off_c, 0, 61, 64
1, 67242, Note_off_c, 0, 67, 64
1, 67412, Control_c, 0, 64, 0
1, 67426, Note_on_c, 0, 61, 46
1, 67434, Note_on_c, 0, 67, 63
1, 67440, Note_on_c, 0, 64, 49
1, 67516, Note_off_c, 0, 64, 64
1, 67532, Note_off_c, 0, 67, 64
1, 67536, Note_off_c, 0, 61, 64
1, 67580, Control_c, 0, 64, 127
1, 67628, Note_off_c, 0, 33, 64
1, 67750, Note_on_c, 0, 61, 36
1, 67750, Note_on_c, 0, 64, 46
1, 67770, Note_on_c, 0, 67, 47
1, 67834, Note_off_c, 0, 67, 64
1, 67844, Note_off_c, 0, 64, 64
1, 67850, Note_off_c, 0, 61, 64
1, 68050, Note_on_c, 0, 61, 42
1, 68056, Note_on_c, 0, 64, 47
1, 68062, Note_on_c, 0, 67, 44
1, 68066, Note_on_c, 0, 49, 56
1, 68122, Note_off_c, 0, 61, 64
1, 68124, Note_off_c, 0, 64, 64
1, 68127, Note_off_c, 0, 67, 64
1, 68332, Note_on_c, 0, 67, 51
1, 68344, Note_on_c, 0, 61, 44
1, 68354, Note_on_c, 0, 64, 47
1, 68406, Note_off_c, 0, 61, 64
1, 68408, Note_off_c, 0, 64, 64
1, 68430, Note_off_c, 0, 67, 64
1, 68618, Note_on_c, 0, 52, 83
1, 68620, Note_on_c, 0, 67, 59
1, 68620, Note_on_c, 0, 61, 55
1, 68622, Note_on_c, 0, 64, 51
1, 68626, Control_c, 0, 64, 0
1, 68716, Note_off_c, 0, 49, 64
1, 68720, Note_off_c, 0, 67, 64
1, 68742, Note_off_c, 0, 64, 64
1, 68764, Note_off_c, 0, 61, 64
1, 68840, Control_c, 0, 64, 127
1, 68880, Note_on_c, 0, 61, 48
1, 68890, Note_on_c, 0, 64, 50
1, 68906, Note_on_c, 0, 67, 74
1, 69000, Note_off_c, 0, 61, 64
1, 69012, Note_off_c, 0, 64, 64
1, 69022, Note_off_c, 0, 67, 64
1, 69184, Note_on_c, 0, 61, 52
1, 69194, Note_on_c, 0, 56, 73
1, 69200, Note_on_c, 0, 64, 60
1, 69208, Note_on_c, 0, 67, 52
1, 69230, Note_off_c, 0, 52, 64
1, 69256, Control_c, 0, 64, 0
1, 69264, Note_off_c, 0, 64, 64
1, 69267, Note_off_c, 0, 67, 64
1, 69290, Note_off_c, 0, 61, 64
1, 69456, Control_c, 0, 64, 127
1, 69478, Note_on_c, 0, 61, 55
1, 69481, Note_on_c, 0, 64, 50
1, 69490, Note_on_c, 0, 67, 58
1, 69548, Note_off_c, 0, 67, 64
1, 69550, Note_off_c, 0, 61, 64
1, 69550, Note_off_c, 0, 64, 64
1, 69742, Note_off_c, 0, 56, 64
1, 69776, Note_on_c, 0, 57, 58
1, 69782, Control_c, 0, 64, 0
1, 69788, Note_on_c, 0, 61, 47
1, 69796, Note_on_c, 0, 64, 37
1, 69800, Note_on_c, 0, 67, 39
1, 69868, Note_off_c, 0, 64, 64
1, 69868, Note_off_c, 0, 67, 64
1, 69876, Note_off_c, 0, 61, 64
1, 69992, Control_c, 0, 64, 127
1, 70084, Note_on_c, 0, 61, 46
1, 70087, Note_on_c, 0, 67, 39
1, 70096, Note_on_c, 0, 64, 33
1, 70150, Note_off_c, 0, 61, 64
1, 70156, Note_off_c, 0, 67, 64
1, 70158, Note_off_c, 0, 64, 64
1, 70362, Control_c, 0, 64, 0
1, 70380, Note_on_c, 0, 61, 44
1, 70382, Note_off_c, 0, 57, 64
1, 70392, Note_on_c, 0, 64, 30
1, 70404, Note_on_c, 0, 67, 39
1, 70406, Note_on_c, 0, 45, 66
1, 70480, Note_off_c, 0, 64, 64
1, 70494, Note_off_c, 0, 67, 64
1, 70506, Note_off_c, 0, 61, 64
1, 70560, Control_c, 0, 64, 127
1, 70628, Note_off_c, 0, 45, 64
1, 70692, Note_on_c, 0, 61, 47
1, 70718, Note_on_c, 0, 67, 38
1, 70730, Note_on_c, 0, 64, 38
1, 70790, Note_off_c, 0, 64, 64
1, 70798, Note_off_c, 0, 61, 64
1, 70802, Note_off_c, 0, 67, 64
1, 71068, Note_on_c, 0, 44, 84
1, 71072, Note_on_c, 0, 65, 89
1, 71074, Note_on_c, 0, 32, 91
1, 71076, Note_on_c, 0, 60, 88
1, 71230, Note_off_c, 0, 60, 64
1, 71232, Note_off_c, 0, 65, 64
1, 71404, Note_on_c, 0, 60, 64
1, 71407, Control_c, 0, 64, 0
1, 71410, Note_on_c, 0, 65, 62
1, 71564, Note_off_c, 0, 60, 64
1, 71592, Note_off_c, 0, 65, 64
1, 71606, Control_c, 0, 64, 127
1, 71674, Note_on_c, 0, 65, 68
1, 71686, Note_on_c, 0, 60, 45
1, 71814, Note_off_c, 0, 65, 64
1, 71820, Note_off_c, 0, 60, 64
1, 71968, Note_on_c, 0, 60, 47
1, 71988, Note_on_c, 0, 65, 68
1, 71990, Control_c, 0, 64, 0
1, 72074, Note_off_c, 0, 65, 64
1, 72102, Note_off_c, 0, 60, 64
1, 72136, Note_off_c, 0, 44, 64
1, 72144, Control_c, 0, 64, 127
1, 72264, Note_on_c, 0, 65, 58
1, 72270, Note_off_c, 0, 32, 64
1, 72272, Note_on_c, 0, 60, 53
1, 72336, Note_off_c, 0, 60, 64
1, 72342, Note_off_c, 0, 65, 64
1, 72550, Note_on_c, 0, 60, 44
1, 72566, Note_on_c, 0, 65, 43
1, 72638, Note_off_c, 0, 60, 64
1, 72648, Note_off_c, 0, 65, 64
1, 72876, Note_on_c, 0, 60, 50
1, 72888, Note_on_c, 0, 65, 52
1, 72912, Note_on_c, 0, 48, 73
1, 72970, Note_off_c, 0, 60, 64
1, 72988, Note_off_c, 0, 65, 64
1, 73112, Control_c, 0, 64, 0
1, 73168, Note_on_c, 0, 60, 45
1, 73184, Note_on_c, 0, 65, 64
1, 73256, Note_off_c, 0, 65, 64
1, 73262, Note_off_c, 0, 60, 64
1, 73296, Control_c, 0, 64, 127
1, 73484, Note_on_c, 0, 53, 78
1, 73488, Note_on_c, 0, 60, 47
1, 73496, Note_on_c, 0, 65, 53
1, 73542, Note_off_c, 0, 48, 64
1, 73558, Control_c, 0, 64, 0
1, 73562, Note_off_c, 0, 60, 64
1, 73570, Note_off_c, 0, 65, 64
1, 73758, Control_c, 0, 64, 127
1, 73780, Note_on_c, 0, 60, 54
1, 73784, Note_on_c, 0, 65, 50
1, 73852, Note_off_c, 0, 60, 64
1, 73872, Note_off_c, 0, 65, 64
1, 74040, Note_on_c, 0, 60, 47
1, 74060, Note_on_c, 0, 65, 66
1, 74068, Note_on_c, 0, 55, 80
1, 74070, Note_off_c, 0, 53, 64
1, 74126, Note_off_c, 0, 65, 64
1, 74126, Control_c, 0, 64, 0
1, 74160, Note_off_c, 0, 60, 64
1, 74326, Control_c, 0, 64, 127
1, 74340, Note_on_c, 0, 60, 52
1, 74350, Note_on_c, 0, 65, 55
1, 74412, Note_off_c, 0, 60, 64
1, 74424, Note_off_c, 0, 65, 64
1, 74634, Note_off_c, 0, 55, 64
1, 74644, Note_on_c, 0, 60, 47
1, 74656, Note_on_c, 0, 65, 43
1, 74660, Note_on_c, 0, 56, 56
1, 74680, Control_c, 0, 64, 0
1, 74730, Note_off_c, 0, 60, 64
1, 74742, Note_off_c, 0, 65, 64
1, 74878, Control_c, 0, 64, 127
1, 74942, Note_on_c, 0, 65, 55
1, 74958, Note_on_c, 0, 60, 43
1, 75034, Note_off_c, 0, 60, 64
1, 75046, Note_off_c, 0, 65, 64
1, 75232, Control_c, 0, 64, 0
1, 75248, Note_on_c, 0, 44, 52
1, 75250, Note_on_c, 0, 60, 54
1, 75264, Note_on_c, 0, 65, 44
1, 75340, Note_off_c, 0, 65, 64
1, 75350, Note_off_c, 0, 60, 64
1, 75357, Note_off_c, 0, 56, 64
1, 75418, Control_c, 0, 64, 127
1, 75508, Note_off_c, 0, 44, 64
1, 75558, Note_on_c, 0, 60, 50
1, 75574, Note_on_c, 0, 65, 44
1, 75658, Note_off_c, 0, 65, 64
1, 75686, Note_off_c, 0, 60, 64
1, 75922, Note_on_c, 0, 65, 97
1, 75922, Note_on_c, 0, 62, 87
1, 75926, Note_on_c, 0, 59, 81
1, 75928, Note_on_c, 0, 43, 96
1, 75930, Note_on_c, 0, 31, 101
1, 76134, Note_off_c, 0, 62, 64
1, 76134, Note_off_c, 0, 59, 64
1, 76137, Note_off_c, 0, 65, 64
1, 76256, Note_on_c, 0, 65, 53
1, 76256, Note_on_c, 0, 59, 50
1, 76260, Note_on_c, 0, 62, 51
1, 76338, Control_c, 0, 64, 0
1, 76466, Note_off_c, 0, 62, 64
1, 76474, Note_off_c, 0, 59, 64
1, 76482, Note_off_c, 0, 65, 64
1, 76538, Control_c, 0, 64, 127
1, 76546, Note_on_c, 0, 62, 65
1, 76556, Note_on_c, 0, 59, 66
1, 76556, Note_on_c, 0, 65, 84
1, 76694, Note_off_c, 0, 59, 64
1, 76696, Note_off_c, 0, 65, 64
1, 76700, Note_off_c, 0, 62, 64
1, 76724, Note_off_c, 0, 43, 64
1, 76822, Note_on_c, 0, 59, 39
1, 76822, Note_on_c, 0, 62, 43
1, 76840, Note_on_c, 0, 65, 63
1, 76876, Control_c, 0, 64, 0
1, 76958, Note_off_c, 0, 59, 64
1, 76960, Note_off_c, 0, 62, 64
1, 76974, Note_off_c, 0, 65, 64
1, 76985, Control_c, 0, 64, 127
1, 77122, Note_off_c, 0, 31, 64
1, 77150, Note_on_c, 0, 59, 34
1, 77162, Note_on_c, 0, 65, 42
1, 77164, Note_on_c, 0, 62, 34
1, 77232, Note_off_c, 0, 59, 64
1, 77232, Note_off_c, 0, 65, 64
1, 77235, Note_off_c, 0, 62, 64
1, 77464, Note_on_c, 0, 59, 23
1, 77472, Note_on_c, 0, 65, 44
1, 77476, Note_on_c, 0, 62, 37
1, 77538, Note_off_c, 0, 59, 64
1, 77541, Note_off_c, 0, 65, 64
1, 77550, Note_off_c, 0, 62, 64
1, 77776, Note_on_c, 0, 65, 51
1, 77779, Note_on_c, 0, 62, 51
1, 77786, Note_on_c, 0, 47, 47
1, 77789, Note_on_c, 0, 59, 36
1, 77860, Note_off_c, 0, 59, 64
1, 77866, Note_off_c, 0, 65, 64
1, 77870, Note_off_c, 0, 62, 64
1, 78044, Control_c, 0, 64, 0
1, 78056, Note_on_c, 0, 62, 54
1, 78056, Note_on_c, 0, 65, 53
1, 78062, Note_on_c, 0, 59, 40
1, 78160, Note_off_c, 0, 59, 64
1, 78164, Note_off_c, 0, 65, 64
1, 78166, Control_c, 0, 64, 127
1, 78168, Note_off_c, 0, 62, 64
1, 78360, Note_on_c, 0, 59, 37
1, 78364, Note_on_c, 0, 62, 37
1, 78368, Note_on_c, 0, 50, 77
1, 78384, Note_on_c, 0, 65, 29
1, 78462, Note_off_c, 0, 65, 64
1, 78466, Note_off_c, 0, 62, 64
1, 78468, Note_off_c, 0, 59, 64
1, 78582, Control_c, 0, 64, 0
1, 78658, Note_on_c, 0, 62, 40
1, 78668, Note_on_c, 0, 59, 39
1, 78670, Note_on_c, 0, 65, 29
1, 78676, Note_off_c, 0, 47, 64
1, 78736, Control_c, 0, 64, 127
1, 78742, Note_off_c, 0, 59, 64
1, 78746, Note_off_c, 0, 62, 64
1, 78748, Note_off_c, 0, 65, 64
1, 78964, Note_on_c, 0, 65, 42
1, 78972, Note_on_c, 0, 59, 23
1, 78974, Note_on_c, 0, 54, 53
1, 78976, Note_off_c, 0, 50, 64
1, 78986, Note_on_c, 0, 62, 30
1, 79050, Note_off_c, 0, 59, 64
1, 79058, Note_off_c, 0, 65, 64
1, 79061, Note_off_c, 0, 62, 64
1, 79120, Control_c, 0, 64, 0
1, 79242, Control_c, 0, 64, 127
1, 79256, Note_on_c, 0, 62, 42
1, 79272, Note_on_c, 0, 65, 34
1, 79274, Note_on_c, 0, 59, 23
1, 79344, Note_off_c, 0, 59, 64
1, 79347, Note_off_c, 0, 65, 64
1, 79362, Note_off_c, 0, 62, 64
1, 79518, Note_off_c, 0, 54, 64
1, 79554, Note_on_c, 0, 59, 29
1, 79556, Note_on_c, 0, 55, 60
1, 79564, Note_on_c, 0, 62, 31
1, 79576, Note_on_c, 0, 65, 28
1, 79626, Note_off_c, 0, 59, 64
1, 79640, Note_off_c, 0, 62, 64
1, 79650, Note_off_c, 0, 65, 64
1, 79750, Control_c, 0, 64, 0
1, 79846, Note_on_c, 0, 62, 35
1, 79852, Note_on_c, 0, 65, 47
1, 79854, Note_on_c, 0, 59, 25
1, 79920, Note_off_c, 0, 65, 64
1, 79920, Control_c, 0, 64, 127
1, 79926, Note_off_c, 0, 59, 64
1, 79934, Note_off_c, 0, 62, 64
1, 80146, Note_on_c, 0, 59, 26
1, 80149, Note_on_c, 0, 62, 41
1, 80164, Note_on_c, 0, 65, 46
1, 80168, Note_on_c, 0, 43, 74
1, 80180, Control_c, 0, 64, 0
1, 80238, Note_off_c, 0, 65, 64
1, 80260, Note_off_c, 0, 62, 64
1, 80280, Note_off_c, 0, 59, 64
1, 80344, Note_off_c, 0, 55, 64
1, 80364, Control_c, 0, 64, 127
1, 80456, Note_off_c, 0, 43, 64
1, 80488, Note_on_c, 0, 65, 54
1, 80491, Note_on_c, 0, 59, 46
1, 80500, Note_on_c, 0, 62, 41
1, 80578, Note_off_c, 0, 65, 64
1, 80582, Note_off_c, 0, 62, 64
1, 80592, Note_off_c, 0, 59, 64
1, 80896, Note_on_c, 0, 58, 62
1, 80898, Note_on_c, 0, 42, 71
1, 80908, Note_on_c, 0, 63, 52
1, 80912, Note_on_c, 0, 30, 66
1, 81071, Note_off_c, 0, 58, 64
1, 81096, Note_off_c, 0, 63, 64
1, 81210, Control_c, 0, 64, 0
1, 81248, Note_on_c, 0, 58, 64
1, 81260, Note_on_c, 0, 63, 55
1, 81394, Control_c, 0, 64, 127
1, 81402, Note_off_c, 0, 58, 64
1, 81414, Note_off_c, 0, 63, 64
1, 81518, Note_on_c, 0, 63, 41
1, 81528, Note_on_c, 0, 58, 47
1, 81564, Control_c, 0, 64, 0
1, 81684, Note_off_c, 0, 58, 64
1, 81696, Note_off_c, 0, 63, 64
1, 81732, Control_c, 0, 64, 127
1, 81800, Note_on_c, 0, 63, 35
1, 81802, Note_on_c, 0, 58, 46
1, 81914, Note_off_c, 0, 58, 64
1, 81940, Note_off_c, 0, 63, 64
1, 82112, Note_off_c, 0, 30, 64
1, 82117, Note_on_c, 0, 58, 33
1, 82138, Note_off_c, 0, 42, 64
1, 82141, Note_on_c, 0, 63, 38
1, 82200, Note_off_c, 0, 58, 64
1, 82204, Note_off_c, 0, 63, 64
1, 82420, Note_on_c, 0, 63, 35
1, 82434, Note_on_c, 0, 58, 39
1, 82502, Note_off_c, 0, 63, 64
1, 82508, Note_off_c, 0, 58, 64
1, 82699, Note_on_c, 0, 58, 42
1, 82712, Note_on_c, 0, 63, 38
1, 82712, Note_on_c, 0, 46, 72
1, 82792, Note_off_c, 0, 63, 64
1, 82798, Note_off_c, 0, 58, 64
1, 82990, Note_on_c, 0, 63, 42
1, 82995, Note_on_c, 0, 58, 45
1, 83072, Note_off_c, 0, 58, 64
1, 83076, Note_off_c, 0, 63, 64
1, 83270, Note_on_c, 0, 58, 49
1, 83276, Note_on_c, 0, 51, 70
1, 83278, Note_on_c, 0, 63, 35
1, 83368, Note_off_c, 0, 58, 64
1, 83374, Note_off_c, 0, 63, 64
1, 83440, Note_off_c, 0, 46, 64
1, 83546, Control_c, 0, 64, 0
1, 83572, Note_on_c, 0, 58, 55
1, 83574, Note_on_c, 0, 63, 42
1, 83674, Note_off_c, 0, 58, 64
1, 83690, Note_off_c, 0, 63, 64
1, 83714, Control_c, 0, 64, 127
1, 83854, Note_on_c, 0, 58, 45
1, 83870, Note_on_c, 0, 63, 32
1, 83880, Note_on_c, 0, 53, 59
1, 83906, Note_off_c, 0, 51, 64
1, 83946, Note_off_c, 0, 58, 64
1, 83952, Note_off_c, 0, 63, 64
1, 84144, Note_on_c, 0, 63, 46
1, 84152, Note_on_c, 0, 58, 45
1, 84234, Note_off_c, 0, 58, 64
1, 84256, Note_off_c, 0, 63, 64
1, 84448, Note_on_c, 0, 58, 39
1, 84450, Note_on_c, 0, 63, 39
1, 84466, Note_on_c, 0, 54, 50
1, 84480, Note_off_c, 0, 53, 64
1, 84482, Control_c, 0, 64, 0
1, 84574, Note_off_c, 0, 58, 64
1, 84576, Note_off_c, 0, 63, 64
1, 84696, Control_c, 0, 64, 127
1, 84770, Note_on_c, 0, 58, 44
1, 84784, Note_on_c, 0, 63, 31
1, 84864, Note_off_c, 0, 58, 64
1, 84864, Note_off_c, 0, 63, 64
1, 85120, Note_on_c, 0, 63, 37
1, 85128, Control_c, 0, 64, 0
1, 85128, Note_on_c, 0, 58, 27
1, 85131, Note_on_c, 0, 42, 43
1, 85228, Note_off_c, 0, 58, 64
1, 85246, Note_off_c, 0, 63, 64
1, 85296, Control_c, 0, 64, 127
1, 85302, Note_off_c, 0, 54, 64
1, 85376, Note_off_c, 0, 42, 64
1, 85422, Note_on_c, 0, 58, 40
1, 85446, Note_on_c, 0, 63, 36
1, 85500, Note_off_c, 0, 58, 64
1, 85510, Note_off_c, 0, 63, 64
1, 85884, Note_on_c, 0, 63, 53
1, 85890, Note_on_c, 0, 52, 43
1, 85896, Note_on_c, 0, 42, 37
1, 85898, Note_on_c, 0, 58, 47
1, 85906, Note_on_c, 0, 54, 11
1, 86172, Control_c, 0, 64, 0
1, 86262, Note_on_c, 0, 61, 59
1, 86282, Note_off_c, 0, 63, 64
1, 86388, Control_c, 0, 64, 127
1, 86426, Note_off_c, 0, 61, 64
1, 86510, Control_c, 0, 64, 0
1, 86522, Note_on_c, 0, 61, 53
1, 86648, Control_c, 0, 64, 127
1, 86666, Note_off_c, 0, 61, 64
1, 86785, Note_on_c, 0, 61, 41
1, 86844, Note_off_c, 0, 52, 64
1, 86908, Note_off_c, 0, 61, 64
1, 87092, Note_on_c, 0, 61, 50
1, 87130, Note_on_c, 0, 51, 38
1, 87132, Note_off_c, 0, 58, 64
1, 87310, Control_c, 0, 64, 0
1, 87420, Note_on_c, 0, 59, 49
1, 87462, Note_off_c, 0, 61, 64
1, 87508, Control_c, 0, 64, 127
1, 87576, Note_off_c, 0, 59, 64
1, 87674, Note_on_c, 0, 59, 45
1, 87818, Note_off_c, 0, 59, 64
1, 87876, Note_off_c, 0, 54, 64
1, 87938, Note_off_c, 0, 51, 64
1, 87946, Note_off_c, 0, 42, 64
1, 87974, Note_on_c, 0, 59, 44
1, 88052, Note_off_c, 0, 59, 64
1, 88288, Note_on_c, 0, 58, 73
1, 88300, Note_on_c, 0, 54, 22
1, 88300, Note_on_c, 0, 49, 31
1, 88304, Note_on_c, 0, 66, 61
1, 88304, Note_on_c, 0, 42, 26
1, 88462, Control_c, 0, 64, 0
1, 88628, Note_on_c, 0, 64, 75
1, 88650, Note_off_c, 0, 66, 64
1, 88708, Control_c, 0, 64, 127
1, 88764, Note_off_c, 0, 64, 64
1, 88862, Control_c, 0, 64, 0
1, 88886, Note_on_c, 0, 64, 47
1, 89014, Note_off_c, 0, 64, 64
1, 89014, Control_c, 0, 64, 127
1, 89184, Note_on_c, 0, 64, 46
1, 89254, Note_off_c, 0, 64, 64
1, 89316, Note_off_c, 0, 58, 64
1, 89478, Note_off_c, 0, 49, 64
1, 89478, Note_on_c, 0, 59, 30
1, 89498, Note_on_c, 0, 64, 46
1, 89504, Note_on_c, 0, 47, 39
1, 89552, Control_c, 0, 64, 0
1, 89782, Note_off_c, 0, 64, 64
1, 89794, Note_on_c, 0, 63, 48
1, 89890, Note_off_c, 0, 59, 64
1, 89890, Control_c, 0, 64, 127
1, 89956, Note_off_c, 0, 63, 64
1, 90066, Note_on_c, 0, 63, 41
1, 90126, Note_off_c, 0, 42, 64
1, 90146, Note_off_c, 0, 54, 64
1, 90168, Note_off_c, 0, 47, 64
1, 90190, Note_off_c, 0, 63, 64
1, 90354, Note_on_c, 0, 63, 44
1, 90432, Note_off_c, 0, 63, 64
1, 90684, Note_on_c, 0, 63, 45
1, 90696, Note_on_c, 0, 58, 42
1, 90702, Note_on_c, 0, 52, 60
1, 90702, Note_on_c, 0, 54, 20
1, 90702, Note_on_c, 0, 42, 27
1, 90704, Control_c, 0, 64, 0
1, 91024, Note_off_c, 0, 63, 64
1, 91027, Note_on_c, 0, 61, 51
1, 91074, Control_c, 0, 64, 127
1, 91102, Note_off_c, 0, 61, 64
1, 91274, Control_c, 0, 64, 0
1, 91284, Note_on_c, 0, 61, 52
1, 91352, Note_off_c, 0, 58, 64
1, 91378, Note_off_c, 0, 61, 64
1, 91428, Control_c, 0, 64, 127
1, 91514, Note_off_c, 0, 52, 64
1, 91566, Note_on_c, 0, 61, 44
1, 91630, Note_off_c, 0, 61, 64
1, 91882, Note_on_c, 0, 61, 40
1, 91916, Note_on_c, 0, 50, 42
1, 92010, Control_c, 0, 64, 0
1, 92200, Note_off_c, 0, 61, 64
1, 92214, Note_on_c, 0, 59, 42
1, 92256, Control_c, 0, 64, 127
1, 92306, Note_off_c, 0, 59, 64
1, 92488, Note_off_c, 0, 54, 64
1, 92528, Note_on_c, 0, 59, 20
1, 92558, Note_off_c, 0, 42, 64
1, 92568, Note_off_c, 0, 50, 64
1, 92588, Note_off_c, 0, 59, 64
1, 92802, Note_on_c, 0, 59, 42
1, 92862, Note_off_c, 0, 59, 64
1, 93132, Control_c, 0, 64, 0
1, 93142, Note_on_c, 0, 54, 20
1, 93142, Note_on_c, 0, 58, 67
1, 93146, Note_on_c, 0, 42, 25
1, 93150, Note_on_c, 0, 49, 36
1, 93152, Note_on_c, 0, 66, 44
1, 93414, Note_off_c, 0, 66, 64
1, 93454, Note_on_c, 0, 64, 64
1, 93532, Control_c, 0, 64, 127
1, 93568, Note_off_c, 0, 64, 64
1, 93750, Note_on_c, 0, 64, 50
1, 93798, Note_off_c, 0, 64, 64
1, 93830, Note_off_c, 0, 58, 64
1, 94018, Note_on_c, 0, 64, 56
1, 94090, Note_off_c, 0, 64, 64
1, 94300, Control_c, 0, 64, 0
1, 94330, Note_on_c, 0, 64, 49
1, 94332, Note_off_c, 0, 49, 64
1, 94344, Note_on_c, 0, 59, 34
1, 94390, Note_on_c, 0, 47, 29
1, 94624, Note_on_c, 0, 62, 46
1, 94626, Note_off_c, 0, 64, 64
1, 94684, Control_c, 0, 64, 127
1, 94768, Note_off_c, 0, 62, 64
1, 94896, Note_on_c, 0, 62, 29
1, 95008, Note_off_c, 0, 62, 64
1, 95122, Note_off_c, 0, 42, 64
1, 95192, Note_off_c, 0, 54, 64
1, 95206, Note_on_c, 0, 62, 46
1, 95222, Note_off_c, 0, 59, 64
1, 95306, Note_off_c, 0, 62, 64
1, 95368, Note_off_c, 0, 47, 64
1, 95578, Note_on_c, 0, 62, 50
1, 95592, Control_c, 0, 64, 0
1, 95598, Note_on_c, 0, 59, 40
1, 95614, Note_on_c, 0, 43, 29
1, 95617, Note_on_c, 0, 55, 25
1, 95814, Note_off_c, 0, 62, 64
1, 95852, Control_c, 0, 64, 127
1, 95928, Note_on_c, 0, 62, 31
1, 96068, Note_off_c, 0, 62, 64
1, 96218, Note_off_c, 0, 59, 64
1, 96240, Note_on_c, 0, 62, 28
1, 96322, Note_off_c, 0, 62, 64
1, 96522, Note_on_c, 0, 62, 38
1, 96576, Note_off_c, 0, 55, 64
1, 96610, Note_off_c, 0, 62, 64
1, 96618, Note_off_c, 0, 43, 64
1, 96818, Note_on_c, 0, 62, 46
1, 96850, Control_c, 0, 64, 0
1, 96974, Note_off_c, 0, 62, 64
1, 97052, Control_c, 0, 64, 127
1, 97076, Note_on_c, 0, 62, 51
1, 97200, Note_off_c, 0, 62, 64
1, 97332, Note_on_c, 0, 62, 38
1, 97444, Note_off_c, 0, 62, 64
1, 97626, Note_on_c, 0, 62, 48
1, 97694, Note_off_c, 0, 62, 64
1, 97880, Control_c, 0, 64, 0
1, 97914, Note_on_c, 0, 62, 45
1, 97920, Note_on_c, 0, 60, 45
1, 98014, Note_off_c, 0, 60, 64
1, 98042, Note_off_c, 0, 62, 64
1, 98080, Control_c, 0, 64, 127
1, 98182, Note_on_c, 0, 62, 33
1, 98190, Note_on_c, 0, 60, 51
1, 98266, Note_off_c, 0, 60, 64
1, 98288, Note_off_c, 0, 62, 64
1, 98456, Note_on_c, 0, 62, 39
1, 98464, Note_on_c, 0, 60, 43
1, 98532, Note_off_c, 0, 60, 64
1, 98544, Note_off_c, 0, 62, 64
1, 98734, Note_on_c, 0, 62, 41
1, 98738, Note_on_c, 0, 60, 44
1, 98806, Note_off_c, 0, 60, 64
1, 98818, Note_off_c, 0, 62, 64
1, 99014, Note_on_c, 0, 62, 41
1, 99020, Note_on_c, 0, 60, 44
1, 99088, Note_off_c, 0, 60, 64
1, 99098, Note_off_c, 0, 62, 64
1, 99278, Control_c, 0, 64, 0
1, 99282, Note_on_c, 0, 38, 65
1, 99282, Note_on_c, 0, 62, 42
1, 99286, Note_on_c, 0, 60, 39
1, 99356, Note_off_c, 0, 60, 64
1, 99359, Note_off_c, 0, 62, 64
1, 99408, Note_on_c, 0, 40, 81
1, 99412, Note_off_c, 0, 38, 64
1, 99512, Note_on_c, 0, 42, 78
1, 99524, Note_on_c, 0, 62, 36
1, 99544, Note_on_c, 0, 60, 36
1, 99558, Note_off_c, 0, 40, 64
1, 99608, Note_off_c, 0, 62, 64
1, 99608, Note_off_c, 0, 60, 64
1, 99656, Note_on_c, 0, 43, 81
1, 99676, Note_off_c, 0, 42, 64
1, 99756, Note_on_c, 0, 62, 42
1, 99762, Note_on_c, 0, 60, 31
1, 99766, Note_off_c, 0, 43, 64
1, 99786, Note_on_c, 0, 45, 78
1, 99830, Note_off_c, 0, 60, 64
1, 99854, Note_off_c, 0, 62, 64
1, 99900, Note_on_c, 0, 42, 68
1, 99908, Note_off_c, 0, 45, 64
1, 100048, Note_off_c, 0, 42, 64
1, 100054, Note_on_c, 0, 62, 41
1, 100054, Note_on_c, 0, 59, 37
1, 100064, Note_on_c, 0, 43, 71
1, 100180, Note_off_c, 0, 59, 64
1, 100198, Note_off_c, 0, 62, 64
1, 100294, Control_c, 0, 64, 127
1, 100366, Note_on_c, 0, 59, 32
1, 100382, Note_on_c, 0, 62, 42
1, 100458, Note_off_c, 0, 59, 64
1, 100458, Note_off_c, 0, 62, 64
1, 100461, Control_c, 0, 64, 0
1, 100600, Control_c, 0, 64, 127
1, 100655, Note_on_c, 0, 62, 52
1, 100655, Note_on_c, 0, 59, 50
1, 100726, Note_off_c, 0, 43, 64
1, 100726, Note_off_c, 0, 59, 64
1, 100729, Note_off_c, 0, 62, 64
1, 100916, Note_on_c, 0, 59, 48
1, 100916, Note_on_c, 0, 62, 49
1, 101034, Note_off_c, 0, 59, 64
1, 101058, Note_off_c, 0, 62, 64
1, 101184, Control_c, 0, 64, 0
1, 101188, Note_on_c, 0, 62, 42
1, 101196, Note_on_c, 0, 60, 65
1, 101360, Note_off_c, 0, 60, 64
1, 101370, Note_off_c, 0, 62, 64
1, 101384, Control_c, 0, 64, 127
1, 101462, Note_on_c, 0, 60, 60
1, 101464, Note_on_c, 0, 62, 52
1, 101472, Note_on_c, 0, 38, 69
1, 101564, Note_off_c, 0, 62, 64
1, 101584, Note_off_c, 0, 60, 64
1, 101602, Note_off_c, 0, 38, 64
1, 101606, Note_on_c, 0, 40, 74
1, 101702, Note_on_c, 0, 42, 67
1, 101724, Note_on_c, 0, 60, 55
1, 101734, Note_off_c, 0, 40, 64
1, 101740, Note_on_c, 0, 62, 57
1, 101798, Note_off_c, 0, 62, 64
1, 101814, Note_off_c, 0, 60, 64
1, 101856, Note_on_c, 0, 43, 78
1, 101870, Note_off_c, 0, 42, 64
1, 101964, Note_on_c, 0, 62, 58
1, 101966, Note_on_c, 0, 60, 80
1, 101968, Note_off_c, 0, 43, 64
1, 101970, Note_on_c, 0, 45, 85
1, 102064, Note_off_c, 0, 62, 64
1, 102074, Note_off_c, 0, 60, 64
1, 102092, Note_on_c, 0, 42, 79
1, 102108, Note_off_c, 0, 45, 64
1, 102182, Control_c, 0, 64, 0
1, 102210, Note_off_c, 0, 42, 64
1, 102236, Note_on_c, 0, 62, 71
1, 102244, Note_on_c, 0, 59, 70
1, 102250, Note_on_c, 0, 43, 84
1, 102402, Note_off_c, 0, 43, 64
1, 102412, Note_off_c, 0, 59, 64
1, 102424, Note_off_c, 0, 62, 64
1, 102440, Control_c, 0, 64, 127
1, 102536, Control_c, 0, 64, 0
1, 102562, Note_on_c, 0, 38, 70
1, 102562, Note_on_c, 0, 62, 43
1, 102564, Note_on_c, 0, 60, 57
1, 102672, Note_off_c, 0, 60, 64
1, 102696, Note_on_c, 0, 40, 79
1, 102706, Note_off_c, 0, 38, 64
1, 102708, Note_off_c, 0, 62, 64
1, 102766, Control_c, 0, 64, 127
1, 102804, Note_on_c, 0, 62, 64
1, 102816, Note_on_c, 0, 42, 62
1, 102824, Note_on_c, 0, 60, 79
1, 102856, Note_off_c, 0, 40, 64
1, 102906, Note_off_c, 0, 60, 64
1, 102926, Note_off_c, 0, 62, 64
1, 102944, Note_on_c, 0, 43, 83
1, 102958, Note_off_c, 0, 42, 64
1, 103052, Note_off_c, 0, 43, 64
1, 103064, Note_on_c, 0, 60, 83
1, 103068, Note_on_c, 0, 62, 78
1, 103068, Note_on_c, 0, 45, 90
1, 103168, Note_off_c, 0, 60, 64
1, 103178, Note_off_c, 0, 62, 64
1, 103184, Note_on_c, 0, 42, 87
1, 103208, Note_off_c, 0, 45, 64
1, 103276, Note_off_c, 0, 42, 64
1, 103304, Control_c, 0, 64, 0
1, 103336, Note_on_c, 0, 59, 81
1, 103338, Note_on_c, 0, 62, 93
1, 103352, Note_on_c, 0, 43, 99
1, 103540, Note_off_c, 0, 59, 64
1, 103544, Note_off_c, 0, 43, 64
1, 103550, Note_off_c, 0, 62, 64
1, 103550, Control_c, 0, 64, 127
1, 103642, Control_c, 0, 64, 0
1, 103652, Note_on_c, 0, 62, 57
1, 103654, Note_on_c, 0, 38, 82
1, 103662, Note_on_c, 0, 60, 75
1, 103792, Note_off_c, 0, 60, 64
1, 103792, Note_on_c, 0, 40, 89
1, 103802, Note_off_c, 0, 62, 64
1, 103854, Note_off_c, 0, 38, 64
1, 103858, Control_c, 0, 64, 127
1, 103900, Note_on_c, 0, 62, 64
1, 103914, Note_on_c, 0, 60, 70
1, 103920, Note_on_c, 0, 42, 73
1, 103934, Control_c, 0, 64, 0
1, 103986, Note_off_c, 0, 40, 64
1, 104020, Note_off_c, 0, 62, 64
1, 104028, Note_off_c, 0, 60, 64
1, 104044, Note_on_c, 0, 43, 89
1, 104074, Note_off_c, 0, 42, 64
1, 104158, Note_on_c, 0, 60, 72
1, 104164, Note_off_c, 0, 43, 64
1, 104166, Note_on_c, 0, 45, 91
1, 104168, Note_on_c, 0, 62, 70
1, 104270, Note_off_c, 0, 60, 64
1, 104290, Note_off_c, 0, 62, 64
1, 104293, Note_off_c, 0, 45, 64
1, 104298, Note_on_c, 0, 42, 80
1, 104301, Control_c, 0, 64, 127
1, 104380, Control_c, 0, 64, 0
1, 104442, Note_off_c, 0, 42, 64
1, 104458, Note_on_c, 0, 59, 65
1, 104468, Note_on_c, 0, 62, 57
1, 104478, Note_on_c, 0, 43, 65
1, 104698, Note_off_c, 0, 59, 64
1, 104776, Note_off_c, 0, 62, 64
1, 104779, Control_c, 0, 64, 127
1, 104796, Note_on_c, 0, 55, 68
1, 104928, Note_off_c, 0, 43, 64
1, 104934, Note_on_c, 0, 57, 73
1, 104948, Note_off_c, 0, 55, 64
1, 105040, Control_c, 0, 64, 0
1, 105048, Note_on_c, 0, 59, 70
1, 105084, Note_off_c, 0, 57, 64
1, 105182, Note_on_c, 0, 60, 77
1, 105240, Note_off_c, 0, 59, 64
1, 105302, Note_on_c, 0, 62, 71
1, 105318, Note_off_c, 0, 60, 64
1, 105414, Note_on_c, 0, 60, 59
1, 105454, Note_off_c, 0, 62, 64
1, 105572, Note_off_c, 0, 60, 64
1, 105596, Note_on_c, 0, 59, 50
1, 105720, Note_off_c, 0, 59, 64
1, 105748, Control_c, 0, 64, 127
1, 105892, Note_on_c, 0, 67, 62
1, 105900, Control_c, 0, 64, 0
1, 106020, Note_on_c, 0, 69, 62
1, 106048, Note_off_c, 0, 67, 64
1, 106130, Note_on_c, 0, 71, 67
1, 106164, Note_off_c, 0, 69, 64
1, 106272, Note_on_c, 0, 72, 85
1, 106306, Note_off_c, 0, 71, 64
1, 106390, Note_on_c, 0, 74, 85
1, 106408, Note_off_c, 0, 72, 64
1, 106514, Note_on_c, 0, 72, 69
1, 106542, Note_off_c, 0, 74, 64
1, 106682, Note_off_c, 0, 72, 64
1, 106688, Note_on_c, 0, 71, 67
1, 106808, Note_off_c, 0, 71, 64
1, 106824, Control_c, 0, 64, 127
1, 106962, Control_c, 0, 64, 0
1, 106965, Note_on_c, 0, 79, 94
1, 107100, Note_on_c, 0, 81, 89
1, 107126, Note_off_c, 0, 79, 64
1, 107210, Note_on_c, 0, 83, 86
1, 107262, Note_off_c, 0, 81, 64
1, 107334, Note_on_c, 0, 84, 99
1, 107390, Note_off_c, 0, 83, 64
1, 107462, Note_on_c, 0, 86, 100
1, 107492, Note_off_c, 0, 84, 64
1, 107594, Note_on_c, 0, 84, 92
1, 107646, Note_off_c, 0, 86, 64
1, 107756, Note_on_c, 0, 83, 85
1, 107758, Note_off_c, 0, 84, 64
1, 107836, Control_c, 0, 64, 127
1, 107914, Control_c, 0, 64, 0
1, 107932, Note_off_c, 0, 83, 64
1, 108056, Note_on_c, 0, 81, 90
1, 108144, Control_c, 0, 64, 127
1, 108222, Control_c, 0, 64, 0
1, 108264, Note_off_c, 0, 81, 64
1, 108390, Control_c, 0, 64, 127
1, 108400, Note_on_c, 0, 79, 89
1, 108528, Control_c, 0, 64, 0
1, 108656, Note_off_c, 0, 79, 64
1, 108698, Control_c, 0, 64, 127
1, 108722, Note_on_c, 0, 78, 84
1, 108790, Control_c, 0, 64, 0
1, 108944, Control_c, 0, 64, 127
1, 108988, Note_off_c, 0, 78, 64
1, 109160, Note_on_c, 0, 77, 94
1, 109170, Note_on_c, 0, 55, 61
1, 109486, Note_on_c, 0, 71, 60
1, 109558, Control_c, 0, 64, 0
1, 109608, Note_on_c, 0, 70, 76
1, 109616, Note_off_c, 0, 71, 64
1, 109774, Note_on_c, 0, 71, 76
1, 109777, Note_off_c, 0, 70, 64
1, 109834, Control_c, 0, 64, 127
1, 109896, Control_c, 0, 64, 0
1, 109904, Note_on_c, 0, 73, 84
1, 109928, Note_off_c, 0, 71, 64
1, 110032, Note_on_c, 0, 74, 92
1, 110044, Note_off_c, 0, 73, 64
1, 110066, Control_c, 0, 64, 127
1, 110168, Note_off_c, 0, 74, 64
1, 110178, Note_on_c, 0, 73, 84
1, 110280, Control_c, 0, 64, 0
1, 110346, Note_off_c, 0, 73, 64
1, 110346, Note_on_c, 0, 74, 85
1, 110572, Control_c, 0, 64, 127
1, 110672, Note_on_c, 0, 73, 72
1, 110694, Note_on_c, 0, 59, 51
1, 110696, Control_c, 0, 64, 0
1, 110704, Note_off_c, 0, 74, 64
1, 110808, Note_on_c, 0, 58, 79
1, 110830, Note_off_c, 0, 59, 64
1, 110952, Note_off_c, 0, 58, 64
1, 110954, Note_on_c, 0, 59, 67
1, 110968, Note_on_c, 0, 71, 66
1, 110974, Note_off_c, 0, 73, 64
1, 111078, Note_off_c, 0, 59, 64
1, 111082, Note_on_c, 0, 61, 78
1, 111192, Note_off_c, 0, 71, 64
1, 111195, Note_on_c, 0, 70, 75
1, 111210, Note_off_c, 0, 61, 64
1, 111218, Note_on_c, 0, 62, 70
1, 111350, Note_off_c, 0, 62, 64
1, 111382, Note_on_c, 0, 61, 64
1, 111464, Note_off_c, 0, 70, 64
1, 111530, Note_on_c, 0, 62, 48
1, 111534, Note_off_c, 0, 61, 64
1, 111556, Note_on_c, 0, 71, 47
1, 111756, Control_c, 0, 64, 127
1, 111810, Note_off_c, 0, 62, 64
1, 111816, Control_c, 0, 64, 0
1, 111822, Note_off_c, 0, 71, 64
1, 111880, Note_on_c, 0, 69, 47
1, 111882, Note_on_c, 0, 61, 46
1, 111956, Note_off_c, 0, 61, 64
1, 111994, Note_off_c, 0, 77, 64
1, 112000, Control_c, 0, 64, 127
1, 112158, Note_off_c, 0, 69, 64
1, 112208, Note_on_c, 0, 59, 40
1, 112210, Note_on_c, 0, 71, 54
1, 112216, Control_c, 0, 64, 0
1, 112226, Note_on_c, 0, 67, 44
1, 112376, Note_off_c, 0, 55, 64
1, 112416, Control_c, 0, 64, 127
1, 112442, Note_off_c, 0, 67, 64
1, 112492, Note_off_c, 0, 59, 64
1, 112522, Note_on_c, 0, 66, 48
1, 112522, Control_c, 0, 64, 0
1, 112548, Note_on_c, 0, 57, 38
1, 112692, Control_c, 0, 64, 127
1, 112806, Note_off_c, 0, 57, 64
1, 112816, Note_off_c, 0, 66, 64
1, 112870, Note_on_c, 0, 65, 48
1, 112880, Note_on_c, 0, 55, 45
1, 112908, Control_c, 0, 64, 0
1, 113154, Control_c, 0, 64, 127
1, 113206, Note_on_c, 0, 59, 30
1, 113214, Note_on_c, 0, 74, 66
1, 113230, Control_c, 0, 64, 0
1, 113240, Note_off_c, 0, 71, 64
1, 113360, Note_off_c, 0, 55, 64
1, 113460, Control_c, 0, 64, 127
1, 113506, Control_c, 0, 64, 0
1, 113528, Note_off_c, 0, 59, 64
1, 113528, Note_on_c, 0, 58, 49
1, 113531, Note_on_c, 0, 73, 48
1, 113558, Note_off_c, 0, 74, 64
1, 113752, Control_c, 0, 64, 127
1, 113876, Control_c, 0, 64, 0
1, 113926, Note_on_c, 0, 71, 40
1, 113936, Note_off_c, 0, 73, 64
1, 113956, Note_off_c, 0, 58, 64
1, 113956, Note_on_c, 0, 59, 18
1, 114136, Control_c, 0, 64, 127
1, 114186, Note_off_c, 0, 65, 64
1, 114348, Note_off_c, 0, 59, 64
1, 114430, Note_off_c, 0, 71, 64
1, 114458, Control_c, 0, 64, 0
1, 114460, Note_on_c, 0, 70, 38
1, 114462, Note_on_c, 0, 66, 24
1, 114500, Note_on_c, 0, 61, 24
1, 114512, Note_on_c, 0, 54, 21
1, 115166, Control_c, 0, 64, 127
1, 115364, Note_off_c, 0, 61, 64
1, 115404, Note_off_c, 0, 66, 64
1, 115408, Note_off_c, 0, 70, 64
1, 115418, Note_off_c, 0, 54, 64
1, 115566, Control_c, 0, 64, 0
1, 116230, Note_on_c, 0, 66, 90
1, 116230, Note_on_c, 0, 78, 103
1, 116238, Note_on_c, 0, 47, 73
1, 116240, Note_on_c, 0, 35, 76
1, 116240, Note_on_c, 0, 71, 86
1, 116242, Note_on_c, 0, 74, 98
1, 116350, Control_c, 0, 64, 127
1, 116688, Note_off_c, 0, 35, 64
1, 116752, Note_off_c, 0, 47, 64
1, 117076, Note_on_c, 0, 38, 67
1, 117076, Note_on_c, 0, 50, 58
1, 117148, Control_c, 0, 64, 0
1, 117412, Note_off_c, 0, 71, 64
1, 117470, Control_c, 0, 64, 127
1, 117524, Note_off_c, 0, 74, 64
1, 117576, Note_off_c, 0, 50, 64
1, 117668, Note_off_c, 0, 66, 64
1, 117682, Note_off_c, 0, 38, 64
1, 117686, Note_on_c, 0, 76, 56
1, 117772, Note_off_c, 0, 78, 64
1, 117836, Note_off_c, 0, 76, 64
1, 117839, Note_on_c, 0, 74, 56
1, 117974, Note_on_c, 0, 70, 57
1, 117986, Note_on_c, 0, 73, 61
1, 117996, Note_off_c, 0, 74, 64
1, 117996, Note_on_c, 0, 54, 29
1, 118010, Note_on_c, 0, 42, 29
1, 118070, Control_c, 0, 64, 0
1, 118562, Control_c, 0, 64, 127
1, 118764, Note_off_c, 0, 70, 64
1, 118776, Note_off_c, 0, 42, 64
1, 118792, Note_off_c, 0, 73, 64
1, 118826, Note_off_c, 0, 54, 64
1, 119006, Control_c, 0, 64, 0
1, 119704, Note_on_c, 0, 74, 80
1, 119709, Note_on_c, 0, 68, 47
1, 119732, Note_on_c, 0, 53, 47
1, 119732, Note_on_c, 0, 59, 38
1, 120190, Control_c, 0, 64, 127
1, 120418, Note_on_c, 0, 71, 57
1, 120426, Note_off_c, 0, 59, 64
1, 120438, Note_on_c, 0, 62, 46
1, 120442, Note_off_c, 0, 74, 64
1, 120528, Control_c, 0, 64, 0
1, 120628, Note_on_c, 0, 74, 71
1, 120631, Note_on_c, 0, 59, 47
1, 120634, Note_off_c, 0, 62, 64
1, 120660, Note_off_c, 0, 71, 64
1, 121218, Control_c, 0, 64, 127
1, 121416, Note_off_c, 0, 59, 64
1, 121438, Note_off_c, 0, 53, 64
1, 121480, Note_off_c, 0, 74, 64
1, 121480, Note_on_c, 0, 71, 34
1, 121486, Note_on_c, 0, 62, 29
1, 121680, Control_c, 0, 64, 0
1, 121710, Note_on_c, 0, 70, 50
1, 121724, Note_on_c, 0, 66, 32
1, 121754, Note_off_c, 0, 71, 64
1, 121756, Note_off_c, 0, 62, 64
1, 121762, Note_on_c, 0, 54, 39
1, 121765, Note_on_c, 0, 61, 38
1, 121784, Note_off_c, 0, 68, 64
1, 122432, Control_c, 0, 64, 127
1, 122566, Note_off_c, 0, 54, 64
1, 122566, Note_off_c, 0, 61, 64
1, 122574, Note_off_c, 0, 66, 64
1, 122616, Note_off_c, 0, 70, 64
1, 122910, Control_c, 0, 64, 0
1, 123402, Note_on_c, 0, 66, 58
1, 123616, Control_c, 0, 64, 127
1, 123662, Note_off_c, 0, 66, 64
1, 124046, Control_c, 0, 64, 0
1, 124196, Note_on_c, 0, 66, 81
1, 124492, Control_c, 0, 64, 127
1, 124506, Note_off_c, 0, 66, 64
1, 124954, Control_c, 0, 64, 0
1, 125126, Note_on_c, 0, 71, 62
1, 125536, Control_c, 0, 64, 127
1, 125806, Note_off_c, 0, 71, 64
1, 126336, Control_c, 0, 64, 0
1, 126606, Note_on_c, 0, 54, 51
1, 126618, Note_on_c, 0, 59, 55
1, 126624, Note_on_c, 0, 50, 45
1, 126624, Note_on_c, 0, 38, 44
1, 126828, Note_off_c, 0, 59, 64
1, 126842, Control_c, 0, 64, 127
1, 126944, Note_off_c, 0, 50, 64
1, 126968, Note_on_c, 0, 59, 50
1, 127032, Note_off_c, 0, 38, 64
1, 127058, Note_off_c, 0, 54, 64
1, 127138, Note_off_c, 0, 59, 64
1, 127304, Control_c, 0, 64, 0
1, 127326, Note_on_c, 0, 62, 57
1, 127328, Note_on_c, 0, 59, 46
1, 127336, Note_on_c, 0, 47, 30
1, 127344, Note_on_c, 0, 35, 36
1, 127562, Note_off_c, 0, 62, 64
1, 127580, Control_c, 0, 64, 127
1, 127596, Note_off_c, 0, 47, 64
1, 127599, Note_off_c, 0, 35, 64
1, 127682, Note_on_c, 0, 62, 50
1, 127806, Note_off_c, 0, 59, 64
1, 127886, Note_off_c, 0, 62, 64
1, 128026, Control_c, 0, 64, 0
1, 128058, Note_on_c, 0, 58, 57
1, 128066, Note_on_c, 0, 54, 37
1, 128072, Note_on_c, 0, 66, 51
1, 128078, Note_on_c, 0, 61, 45
1, 128092, Note_on_c, 0, 42, 41
1, 128518, Control_c, 0, 64, 127
1, 128570, Note_off_c, 0, 54, 64
1, 128614, Note_off_c, 0, 58, 64
1, 128666, Note_off_c, 0, 42, 64
1, 128676, Note_off_c, 0, 66, 64
1, 128692, Note_off_c, 0, 61, 64
1, 129164, Control_c, 0, 64, 0
1, 129494, Note_on_c, 0, 54, 48
1, 129504, Note_on_c, 0, 59, 49
1, 129514, Note_on_c, 0, 38, 36
1, 129520, Note_on_c, 0, 50, 36
1, 129654, Control_c, 0, 64, 127
1, 129662, Note_off_c, 0, 59, 64
1, 129764, Note_off_c, 0, 50, 64
1, 129854, Note_on_c, 0, 59, 62
1, 129860, Note_off_c, 0, 38, 64
1, 129890, Note_off_c, 0, 54, 64
1, 129958, Note_off_c, 0, 59, 64
1, 130176, Control_c, 0, 64, 0
1, 130190, Note_on_c, 0, 62, 64
1, 130194, Note_on_c, 0, 59, 39
1, 130210, Note_on_c, 0, 47, 31
1, 130210, Note_on_c, 0, 35, 33
1, 130412, Note_off_c, 0, 62, 64
1, 130438, Control_c, 0, 64, 127
1, 130440, Note_off_c, 0, 35, 64
1, 130512, Note_off_c, 0, 47, 64
1, 130542, Note_on_c, 0, 62, 41
1, 130554, Note_off_c, 0, 59, 64
1, 130692, Note_off_c, 0, 62, 64
1, 130896, Note_on_c, 0, 66, 41
1, 130898, Control_c, 0, 64, 0
1, 130906, Note_on_c, 0, 58, 42
1, 130924, Note_on_c, 0, 54, 23
1, 130926, Note_on_c, 0, 61, 28
1, 130932, Note_on_c, 0, 42, 28
1, 131356, Note_off_c, 0, 61, 64
1, 131368, Note_off_c, 0, 54, 64
1, 131376, Control_c, 0, 64, 127
1, 131384, Note_off_c, 0, 58, 64
1, 131494, Note_off_c, 0, 66, 64
1, 131584, Note_off_c, 0, 42, 64
1, 131820, Control_c, 0, 64, 0
1, 132246, Note_on_c, 0, 54, 30
1, 132284, Note_on_c, 0, 38, 25
1, 132284, Note_on_c, 0, 59, 21
1, 132294, Note_on_c, 0, 50, 23
1, 132406, Control_c, 0, 64, 127
1, 132446, Note_off_c, 0, 59, 64
1, 132492, Note_off_c, 0, 50, 64
1, 132510, Note_off_c, 0, 54, 64
1, 132574, Note_off_c, 0, 38, 64
1, 132670, Note_on_c, 0, 59, 43
1, 132722, Note_off_c, 0, 59, 64
1, 132988, Control_c, 0, 64, 0
1, 133002, Note_on_c, 0, 62, 42
1, 133024, Note_on_c, 0, 59, 28
1, 133036, Note_on_c, 0, 35, 23
1, 133036, Note_on_c, 0, 47, 15
1, 133190, Note_off_c, 0, 62, 64
1, 133240, Note_off_c, 0, 35, 64
1, 133250, Control_c, 0, 64, 127
1, 133272, Note_off_c, 0, 47, 64
1, 133354, Note_off_c, 0, 59, 64
1, 133404, Note_on_c, 0, 62, 33
1, 133492, Note_off_c, 0, 62, 64
1, 133878, Note_on_c, 0, 58, 37
1, 133878, Note_on_c, 0, 66, 27
1, 133901, Note_on_c, 0, 61, 21
1, 133901, Note_on_c, 0, 54, 16
1, 133906, Note_on_c, 0, 42, 18
1, 133958, Control_c, 0, 64, 0
1, 134418, Note_off_c, 0, 58, 64
1, 134418, Control_c, 0, 64, 127
1, 134428, Note_off_c, 0, 54, 64
1, 134452, Note_off_c, 0, 66, 64
1, 134455, Note_off_c, 0, 61, 64
1, 134460, Note_off_c, 0, 42, 64
1, 134864, Control_c, 0, 64, 0
1, 135246, Note_on_c, 0, 66, 25
1, 135252, Note_on_c, 0, 54, 17
1, 135256, Note_on_c, 0, 42, 19
1, 135262, Note_on_c, 0, 61, 25
1, 135262, Note_on_c, 0, 58, 30
1, 135478, Control_c, 0, 64, 127
1, 135520, Note_off_c, 0, 54, 64
1, 135540, Note_off_c, 0, 58, 64
1, 135548, Note_off_c, 0, 61, 64
1, 135572, Note_off_c, 0, 42, 64
1, 135604, Note_off_c, 0, 66, 64
1, 136092, Control_c, 0, 64, 0
1, 136666, Note_on_c, 0, 42, 17
1, 136669, Note_on_c, 0, 54, 18
1, 136669, Note_on_c, 0, 66, 23
1, 136672, Note_on_c, 0, 61, 23
1, 136672, Note_on_c, 0, 58, 32
1, 136862, Control_c, 0, 64, 127
1, 136904, Note_off_c, 0, 54, 64
1, 136918, Note_off_c, 0, 42, 64
1, 136936, Note_off_c, 0, 58, 64
1, 136944, Note_off_c, 0, 61, 64
1, 137044, Note_off_c, 0, 66, 64
1, 137614, Note_on_c, 0, 66, 42
1, 137996, Note_off_c, 0, 66, 64
1, 138286, Note_on_c, 0, 66, 52
1, 138850, Note_off_c, 0, 66, 64
1, 139092, Note_on_c, 0, 66, 36
1, 139166, Control_c, 0, 64, 0
1, 139458, Control_c, 0, 64, 127
1, 139598, Note_off_c, 0, 66, 64
1, 140212, Note_on_c, 0, 66, 51
1, 140256, Note_on_c, 0, 50, 24
1, 140702, Note_off_c, 0, 50, 64
1, 140740, Note_on_c, 0, 57, 21
1, 141028, Note_off_c, 0, 57, 64
1, 141070, Note_on_c, 0, 54, 22
1, 141304, Note_off_c, 0, 54, 64
1, 141308, Note_off_c, 0, 66, 64
1, 141430, Note_on_c, 0, 57, 25
1, 141596, Note_off_c, 0, 57, 64
1, 141772, Note_on_c, 0, 66, 76
1, 141810, Note_on_c, 0, 50, 24
1, 142132, Note_on_c, 0, 57, 34
1, 142174, Note_off_c, 0, 66, 64
1, 142346, Note_off_c, 0, 57, 64
1, 142412, Note_off_c, 0, 50, 64
1, 142438, Note_on_c, 0, 66, 90
1, 142450, Note_on_c, 0, 54, 34
1, 142654, Note_off_c, 0, 54, 64
1, 142724, Note_off_c, 0, 66, 64
1, 142760, Note_on_c, 0, 57, 44
1, 142871, Note_off_c, 0, 57, 64
1, 143170, Note_on_c, 0, 64, 80
1, 143186, Note_on_c, 0, 55, 28
1, 143189, Note_on_c, 0, 50, 18
1, 143314, Control_c, 0, 64, 0
1, 143560, Control_c, 0, 64, 127
1, 143576, Note_on_c, 0, 69, 75
1, 143576, Note_on_c, 0, 61, 39
1, 143602, Note_off_c, 0, 64, 64
1, 143740, Note_on_c, 0, 67, 84
1, 143770, Note_off_c, 0, 69, 64
1, 143788, Note_off_c, 0, 67, 64
1, 143796, Note_off_c, 0, 61, 64
1, 143874, Note_on_c, 0, 67, 71
1, 143900, Note_on_c, 0, 52, 44
1, 143914, Control_c, 0, 64, 0
1, 144174, Control_c, 0, 64, 127
1, 144212, Note_on_c, 0, 61, 37
1, 144218, Note_off_c, 0, 52, 64
1, 144474, Note_off_c, 0, 61, 64
1, 144538, Note_on_c, 0, 52, 42
1, 144834, Note_on_c, 0, 61, 40
1, 144874, Note_off_c, 0, 55, 64
1, 144932, Note_off_c, 0, 52, 64
1, 145068, Note_off_c, 0, 61, 64
1, 145122, Note_on_c, 0, 66, 52
1, 145138, Note_on_c, 0, 54, 41
1, 145232, Note_off_c, 0, 67, 64
1, 145250, Control_c, 0, 64, 0
1, 145448, Note_on_c, 0, 62, 41
1, 145466, Control_c, 0, 64, 127
1, 145514, Note_off_c, 0, 62, 64
1, 145528, Note_off_c, 0, 66, 64
1, 145546, Note_off_c, 0, 54, 64
1, 145562, Note_off_c, 0, 50, 64
1, 145854, Note_on_c, 0, 64, 67
1, 145894, Note_on_c, 0, 43, 25
1, 146094, Control_c, 0, 64, 0
1, 146206, Note_on_c, 0, 55, 46
1, 146310, Control_c, 0, 64, 127
1, 146458, Note_off_c, 0, 55, 64
1, 146540, Note_on_c, 0, 52, 45
1, 146678, Note_on_c, 0, 67, 66
1, 146680, Note_off_c, 0, 52, 64
1, 146804, Note_off_c, 0, 64, 64
1, 146826, Note_off_c, 0, 43, 64
1, 146874, Note_off_c, 0, 67, 64
1, 146886, Note_on_c, 0, 71, 60
1, 146912, Note_on_c, 0, 55, 39
1, 147018, Note_on_c, 0, 67, 62
1, 147028, Note_off_c, 0, 71, 64
1, 147114, Note_off_c, 0, 55, 64
1, 147146, Note_on_c, 0, 64, 70
1, 147180, Note_off_c, 0, 67, 64
1, 147282, Note_on_c, 0, 45, 64
1, 147298, Note_on_c, 0, 54, 19
1, 147308, Note_on_c, 0, 62, 71
1, 147324, Note_off_c, 0, 64, 64
1, 147354, Control_c, 0, 64, 0
1, 147594, Note_on_c, 0, 57, 42
1, 147648, Note_off_c, 0, 54, 64
1, 147678, Control_c, 0, 64, 127
1, 147800, Note_off_c, 0, 57, 64
1, 147904, Note_on_c, 0, 47, 7
1, 147914, Note_on_c, 0, 61, 70
1, 147944, Note_on_c, 0, 55, 36
1, 147986, Note_off_c, 0, 62, 64
1, 148000, Control_c, 0, 64, 0
1, 148016, Note_off_c, 0, 45, 64
1, 148046, Note_off_c, 0, 47, 64
1, 148186, Control_c, 0, 64, 127
1, 148208, Note_off_c, 0, 55, 64
1, 148260, Note_on_c, 0, 52, 51
1, 148306, Note_off_c, 0, 52, 64
1, 148678, Note_on_c, 0, 62, 56
1, 148690, Note_on_c, 0, 54, 32
1, 148718, Note_on_c, 0, 45, 34
1, 148750, Note_off_c, 0, 61, 64
1, 148768, Control_c, 0, 64, 0
1, 149038, Note_off_c, 0, 45, 64
1, 149060, Control_c, 0, 64, 127
1, 149144, Note_off_c, 0, 54, 64
1, 149304, Note_off_c, 0, 62, 64
1, 149326, Note_on_c, 0, 64, 40
1, 149390, Note_off_c, 0, 64, 64
1, 149424, Note_on_c, 0, 66, 51
1, 149568, Note_off_c, 0, 66, 64
1, 149602, Note_on_c, 0, 52, 31
1, 149606, Note_on_c, 0, 64, 59
1, 149608, Note_on_c, 0, 49, 29
1, 149616, Note_on_c, 0, 45, 27
1, 149630, Control_c, 0, 64, 0
1, 150178, Note_off_c, 0, 64, 64
1, 150181, Control_c, 0, 64, 127
1, 150186, Note_off_c, 0, 52, 64
1, 150190, Note_off_c, 0, 49, 64
1, 150330, Note_off_c, 0, 45, 64
1, 150428, Control_c, 0, 64, 0
1, 150544, Note_on_c, 0, 69, 79
1, 150694, Note_off_c, 0, 69, 64
1, 150786, Note_on_c, 0, 71, 83
1, 150890, Note_off_c, 0, 71, 64
1, 150992, Note_on_c, 0, 73, 83
1, 151142, Note_off_c, 0, 73, 64
1, 151206, Note_on_c, 0, 74, 89
1, 151338, Note_off_c, 0, 74, 64
1, 151452, Note_on_c, 0, 76, 92
1, 151612, Control_c, 0, 64, 127
1, 151642, Note_off_c, 0, 76, 64
1, 151734, Control_c, 0, 64, 0
1, 151776, Note_on_c, 0, 62, 34
1, 151800, Note_on_c, 0, 78, 79
1, 152160, Note_on_c, 0, 69, 41
1, 152240, Control_c, 0, 64, 127
1, 152400, Note_off_c, 0, 69, 64
1, 152448, Note_off_c, 0, 62, 64
1, 152472, Note_on_c, 0, 66, 33
1, 152548, Note_off_c, 0, 78, 64
1, 152716, Note_off_c, 0, 66, 64
1, 152812, Note_on_c, 0, 69, 30
1, 152958, Note_off_c, 0, 69, 64
1, 153098, Note_on_c, 0, 78, 64
1, 153114, Note_on_c, 0, 62, 23
1, 153286, Control_c, 0, 64, 0
1, 153470, Note_on_c, 0, 69, 37
1, 153472, Control_c, 0, 64, 127
1, 153536, Note_off_c, 0, 78, 64
1, 153646, Note_off_c, 0, 62, 64
1, 153664, Note_off_c, 0, 69, 64
1, 153760, Note_on_c, 0, 78, 88
1, 153768, Note_on_c, 0, 66, 36
1, 153954, Note_off_c, 0, 66, 64
1, 153988, Note_off_c, 0, 78, 64
1, 154090, Note_on_c, 0, 69, 47
1, 154192, Note_off_c, 0, 69, 64
1, 154378, Note_on_c, 0, 76, 89
1, 154410, Note_on_c, 0, 62, 41
1, 154446, Note_on_c, 0, 67, 25
1, 154484, Control_c, 0, 64, 0
1, 154694, Note_on_c, 0, 81, 88
1, 154716, Control_c, 0, 64, 127
1, 154719, Note_off_c, 0, 76, 64
1, 154722, Note_on_c, 0, 73, 43
1, 154850, Note_on_c, 0, 79, 90
1, 154878, Note_off_c, 0, 81, 64
1, 154888, Note_off_c, 0, 73, 64
1, 154892, Note_off_c, 0, 79, 64
1, 154990, Note_off_c, 0, 67, 64
1, 155016, Note_on_c, 0, 79, 79
1, 155022, Note_on_c, 0, 64, 41
1, 155262, Note_off_c, 0, 64, 64
1, 155272, Note_on_c, 0, 73, 39
1, 155586, Note_on_c, 0, 64, 51
1, 155591, Control_c, 0, 64, 0
1, 155596, Note_off_c, 0, 73, 64
1, 155774, Control_c, 0, 64, 127
1, 155894, Note_on_c, 0, 73, 53
1, 155976, Note_off_c, 0, 64, 64
1, 156096, Note_off_c, 0, 73, 64
1, 156190, Note_on_c, 0, 78, 76
1, 156226, Note_on_c, 0, 66, 47
1, 156298, Control_c, 0, 64, 0
1, 156301, Note_off_c, 0, 79, 64
1, 156482, Control_c, 0, 64, 127
1, 156504, Note_on_c, 0, 74, 67
1, 156544, Note_off_c, 0, 74, 64
1, 156562, Note_off_c, 0, 62, 64
1, 156566, Note_off_c, 0, 66, 64
1, 156644, Note_off_c, 0, 78, 64
1, 156858, Note_on_c, 0, 71, 71
1, 156868, Note_on_c, 0, 55, 38
1, 157126, Control_c, 0, 64, 0
1, 157160, Note_on_c, 0, 67, 57
1, 157372, Control_c, 0, 64, 127
1, 157446, Note_off_c, 0, 67, 64
1, 157522, Note_on_c, 0, 64, 43
1, 157636, Note_off_c, 0, 71, 64
1, 157644, Note_on_c, 0, 76, 73
1, 157658, Note_off_c, 0, 55, 64
1, 157742, Note_off_c, 0, 76, 64
1, 157760, Note_on_c, 0, 79, 69
1, 157798, Note_off_c, 0, 64, 64
1, 157878, Note_on_c, 0, 83, 62
1, 157880, Note_off_c, 0, 79, 64
1, 157894, Note_on_c, 0, 67, 36
1, 157962, Note_on_c, 0, 79, 84
1, 157992, Note_off_c, 0, 83, 64
1, 158080, Note_on_c, 0, 76, 82
1, 158084, Note_off_c, 0, 67, 64
1, 158100, Note_off_c, 0, 79, 64
1, 158124, Note_on_c, 0, 66, 39
1, 158156, Note_on_c, 0, 57, 34
1, 158172, Control_c, 0, 64, 0
1, 158190, Note_off_c, 0, 76, 64
1, 158198, Note_on_c, 0, 74, 83
1, 158478, Note_on_c, 0, 69, 46
1, 158510, Note_off_c, 0, 66, 64
1, 158556, Control_c, 0, 64, 127
1, 158682, Note_off_c, 0, 69, 64
1, 158800, Note_on_c, 0, 73, 43
1, 158816, Note_on_c, 0, 78, 60
1, 158842, Note_off_c, 0, 74, 64
1, 158858, Note_on_c, 0, 67, 36
1, 158880, Control_c, 0, 64, 0
1, 159164, Note_on_c, 0, 76, 60
1, 159174, Note_off_c, 0, 67, 64
1, 159174, Note_on_c, 0, 69, 38
1, 159216, Note_off_c, 0, 78, 64
1, 159386, Control_c, 0, 64, 127
1, 159532, Note_off_c, 0, 69, 64
1, 159554, Control_c, 0, 64, 0
1, 159558, Note_off_c, 0, 73, 64
1, 159572, Note_off_c, 0, 76, 64
1, 159578, Note_on_c, 0, 74, 44
1, 159590, Note_on_c, 0, 66, 34
1, 159600, Note_on_c, 0, 62, 25
1, 159726, Note_off_c, 0, 57, 64
1, 160138, Control_c, 0, 64, 127
1, 160240, Note_off_c, 0, 74, 64
1, 160256, Note_off_c, 0, 66, 64
1, 160296, Note_off_c, 0, 62, 64
1, 160446, Control_c, 0, 64, 0
1, 160684, Note_on_c, 0, 71, 31
1, 160752, Note_on_c, 0, 74, 64
1, 160752, Control_c, 0, 64, 127
1, 160794, Note_off_c, 0, 71, 64
1, 160800, Control_c, 0, 64, 0
1, 160954, Control_c, 0, 64, 127
1, 161000, Control_c, 0, 64, 0
1, 161006, Note_on_c, 0, 69, 52
1, 161048, Note_on_c, 0, 73, 75
1, 161058, Note_off_c, 0, 74, 64
1, 161078, Note_off_c, 0, 69, 64
1, 161198, Control_c, 0, 64, 127
1, 161218, Note_off_c, 0, 73, 64
1, 161300, Note_on_c, 0, 67, 56
1, 161306, Control_c, 0, 64, 0
1, 161348, Note_on_c, 0, 71, 46
1, 161360, Note_off_c, 0, 67, 64
1, 161506, Control_c, 0, 64, 127
1, 161566, Note_on_c, 0, 66, 47
1, 161568, Control_c, 0, 64, 0
1, 161588, Note_off_c, 0, 71, 64
1, 161604, Note_on_c, 0, 69, 57
1, 161714, Note_off_c, 0, 66, 64
1, 161782, Control_c, 0, 64, 127
1, 161860, Control_c, 0, 64, 0
1, 161916, Note_on_c, 0, 64, 35
1, 161920, Note_off_c, 0, 69, 64
1, 161952, Note_on_c, 0, 67, 45
1, 161982, Note_off_c, 0, 64, 64
1, 162152, Control_c, 0, 64, 127
1, 162320, Control_c, 0, 64, 0
1, 162338, Note_off_c, 0, 67, 64
1, 162338, Note_on_c, 0, 66, 48
1, 162370, Note_on_c, 0, 50, 35
1, 162722, Note_on_c, 0, 57, 29
1, 162904, Control_c, 0, 64, 127
1, 162946, Note_off_c, 0, 57, 64
1, 162988, Note_off_c, 0, 50, 64
1, 162998, Note_on_c, 0, 54, 29
1, 163008, Note_off_c, 0, 66, 64
1, 163130, Note_off_c, 0, 54, 64
1, 163324, Note_on_c, 0, 57, 32
1, 163468, Note_off_c, 0, 57, 64
1, 163624, Note_on_c, 0, 66, 73
1, 163672, Note_on_c, 0, 50, 39
1, 163984, Note_off_c, 0, 66, 64
1, 163994, Note_on_c, 0, 57, 26
1, 164142, Note_off_c, 0, 57, 64
1, 164256, Note_off_c, 0, 50, 64
1, 164288, Note_on_c, 0, 66, 81
1, 164318, Note_on_c, 0, 54, 35
1, 164476, Note_off_c, 0, 54, 64
1, 164482, Note_off_c, 0, 66, 64
1, 164592, Note_on_c, 0, 57, 41
1, 164678, Note_off_c, 0, 57, 64
1, 164910, Note_on_c, 0, 64, 76
1, 164922, Note_on_c, 0, 50, 42
1, 164934, Note_on_c, 0, 55, 26
1, 165070, Control_c, 0, 64, 0
1, 165242, Note_on_c, 0, 69, 81
1, 165252, Note_off_c, 0, 64, 64
1, 165256, Note_on_c, 0, 61, 37
1, 165300, Control_c, 0, 64, 127
1, 165418, Note_on_c, 0, 67, 82
1, 165458, Note_off_c, 0, 69, 64
1, 165461, Note_off_c, 0, 61, 64
1, 165474, Note_off_c, 0, 67, 64
1, 165554, Note_on_c, 0, 67, 82
1, 165562, Control_c, 0, 64, 0
1, 165592, Note_on_c, 0, 52, 40
1, 165848, Note_off_c, 0, 52, 64
1, 165864, Note_on_c, 0, 61, 35
1, 165870, Control_c, 0, 64, 127
1, 166086, Note_off_c, 0, 61, 64
1, 166178, Note_on_c, 0, 52, 36
1, 166432, Note_off_c, 0, 52, 64
1, 166476, Note_off_c, 0, 55, 64
1, 166506, Note_on_c, 0, 61, 33
1, 166636, Note_off_c, 0, 61, 64
1, 166842, Note_on_c, 0, 66, 52
1, 166864, Note_on_c, 0, 54, 33
1, 166904, Note_off_c, 0, 67, 64
1, 166914, Control_c, 0, 64, 0
1, 167158, Note_off_c, 0, 50, 64
1, 167160, Note_on_c, 0, 62, 34
1, 167160, Control_c, 0, 64, 127
1, 167180, Note_off_c, 0, 54, 64
1, 167218, Note_off_c, 0, 66, 64
1, 167221, Note_off_c, 0, 62, 64
1, 167478, Note_on_c, 0, 64, 64
1, 167544, Note_on_c, 0, 43, 39
1, 167636, Control_c, 0, 64, 0
1, 167850, Note_on_c, 0, 55, 40
1, 167928, Control_c, 0, 64, 127
1, 168038, Note_off_c, 0, 55, 64
1, 168198, Note_on_c, 0, 52, 41
1, 168244, Note_off_c, 0, 43, 64
1, 168334, Note_on_c, 0, 67, 49
1, 168384, Note_off_c, 0, 64, 64
1, 168448, Note_off_c, 0, 52, 64
1, 168478, Note_off_c, 0, 67, 64
1, 168498, Note_on_c, 0, 71, 59
1, 168548, Note_on_c, 0, 55, 39
1, 168624, Note_on_c, 0, 67, 41
1, 168630, Note_off_c, 0, 71, 64
1, 168726, Note_on_c, 0, 64, 68
1, 168758, Note_off_c, 0, 55, 64
1, 168812, Note_off_c, 0, 67, 64
1, 168850, Note_on_c, 0, 54, 31
1, 168874, Note_on_c, 0, 62, 72
1, 168886, Note_off_c, 0, 64, 64
1, 168902, Note_on_c, 0, 45, 40
1, 169036, Control_c, 0, 64, 0
1, 169180, Note_on_c, 0, 57, 46
1, 169218, Note_off_c, 0, 54, 64
1, 169296, Control_c, 0, 64, 127
1, 169338, Note_off_c, 0, 57, 64
1, 169514, Note_on_c, 0, 61, 63
1, 169536, Note_on_c, 0, 55, 34
1, 169630, Note_off_c, 0, 62, 64
1, 169726, Control_c, 0, 64, 0
1, 169872, Note_on_c, 0, 52, 45
1, 169912, Note_off_c, 0, 55, 64
1, 169912, Control_c, 0, 64, 127
1, 169942, Note_off_c, 0, 45, 64
1, 170050, Note_off_c, 0, 52, 64
1, 170278, Note_on_c, 0, 54, 26
1, 170280, Note_on_c, 0, 62, 46
1, 170282, Note_on_c, 0, 45, 26
1, 170320, Note_off_c, 0, 61, 64
1, 170388, Control_c, 0, 64, 0
1, 170680, Control_c, 0, 64, 127
1, 170738, Note_off_c, 0, 45, 64
1, 170824, Note_off_c, 0, 54, 64
1, 170900, Note_on_c, 0, 64, 35
1, 170908, Note_off_c, 0, 62, 64
1, 171028, Note_on_c, 0, 66, 35
1, 171062, Note_off_c, 0, 64, 64
1, 171110, Note_off_c, 0, 66, 64
1, 171172, Note_on_c, 0, 64, 32
1, 171246, Note_on_c, 0, 52, 26
1, 171256, Note_on_c, 0, 45, 31
1, 171268, Note_on_c, 0, 49, 15
1, 171354, Control_c, 0, 64, 0
1, 171724, Note_off_c, 0, 52, 64
1, 171800, Note_off_c, 0, 49, 64
1, 171814, Note_off_c, 0, 64, 64
1, 171848, Control_c, 0, 64, 127
1, 171922, Note_off_c, 0, 45, 64
1, 172124, Control_c, 0, 64, 0
1, 172332, Note_on_c, 0, 69, 47
1, 172422, Note_off_c, 0, 69, 64
1, 172508, Control_c, 0, 64, 127
1, 172586, Note_on_c, 0, 71, 64
1, 172646, Control_c, 0, 64, 0
1, 172692, Note_off_c, 0, 71, 64
1, 172804, Note_on_c, 0, 73, 74
1, 172926, Note_off_c, 0, 73, 64
1, 173018, Note_on_c, 0, 74, 86
1, 173030, Control_c, 0, 64, 127
1, 173060, Control_c, 0, 64, 0
1, 173146, Note_off_c, 0, 74, 64
1, 173240, Note_on_c, 0, 76, 85
1, 173368, Control_c, 0, 64, 127
1, 173392, Note_off_c, 0, 76, 64
1, 173520, Note_on_c, 0, 78, 75
1, 173536, Note_on_c, 0, 62, 38
1, 173568, Control_c, 0, 64, 0
1, 173920, Note_on_c, 0, 69, 38
1, 173968, Control_c, 0, 64, 127
1, 174094, Note_off_c, 0, 62, 64
1, 174126, Note_off_c, 0, 69, 64
1, 174248, Note_on_c, 0, 66, 39
1, 174282, Note_off_c, 0, 78, 64
1, 174376, Note_off_c, 0, 66, 64
1, 174566, Note_on_c, 0, 69, 44
1, 174752, Note_off_c, 0, 69, 64
1, 174846, Note_on_c, 0, 78, 68
1, 174884, Note_on_c, 0, 62, 30
1, 175010, Note_off_c, 0, 62, 64
1, 175164, Note_off_c, 0, 78, 64
1, 175216, Note_on_c, 0, 69, 34
1, 175314, Note_off_c, 0, 69, 64
1, 175484, Note_on_c, 0, 78, 83
1, 175496, Note_on_c, 0, 66, 40
1, 175714, Note_off_c, 0, 66, 64
1, 175746, Note_off_c, 0, 78, 64
1, 175804, Note_on_c, 0, 69, 56
1, 175880, Note_off_c, 0, 69, 64
1, 176096, Note_on_c, 0, 76, 94
1, 176116, Note_on_c, 0, 62, 31
1, 176180, Note_on_c, 0, 67, 21
1, 176380, Control_c, 0, 64, 0
1, 176408, Note_on_c, 0, 81, 94
1, 176422, Note_on_c, 0, 73, 45
1, 176448, Note_off_c, 0, 76, 64
1, 176548, Control_c, 0, 64, 127
1, 176566, Note_on_c, 0, 79, 97
1, 176618, Note_off_c, 0, 81, 64
1, 176644, Note_off_c, 0, 73, 64
1, 176670, Note_off_c, 0, 79, 64
1, 176750, Note_on_c, 0, 64, 36
1, 176758, Note_on_c, 0, 79, 73
1, 176856, Control_c, 0, 64, 0
1, 177086, Note_off_c, 0, 64, 64
1, 177086, Control_c, 0, 64, 127
1, 177104, Note_on_c, 0, 73, 41
1, 177352, Note_off_c, 0, 73, 64
1, 177428, Note_on_c, 0, 64, 44
1, 177714, Note_off_c, 0, 67, 64
1, 177720, Note_on_c, 0, 73, 39
1, 177722, Note_off_c, 0, 64, 64
1, 177862, Note_off_c, 0, 73, 64
1, 178034, Note_on_c, 0, 78, 54
1, 178054, Note_on_c, 0, 66, 37
1, 178114, Note_off_c, 0, 79, 64
1, 178116, Control_c, 0, 64, 0
1, 178330, Control_c, 0, 64, 127
1, 178358, Note_on_c, 0, 74, 40
1, 178404, Note_off_c, 0, 66, 64
1, 178410, Note_off_c, 0, 78, 64
1, 178410, Note_off_c, 0, 74, 64
1, 178430, Note_off_c, 0, 62, 64
1, 178732, Note_on_c, 0, 71, 47
1, 178746, Note_on_c, 0, 55, 35
1, 178946, Control_c, 0, 64, 0
1, 179078, Note_on_c, 0, 67, 45
1, 179190, Control_c, 0, 64, 127
1, 179290, Note_off_c, 0, 67, 64
1, 179432, Note_on_c, 0, 64, 33
1, 179504, Note_off_c, 0, 55, 64
1, 179542, Note_off_c, 0, 71, 64
1, 179542, Note_on_c, 0, 76, 57
1, 179612, Note_off_c, 0, 76, 64
1, 179634, Note_off_c, 0, 64, 64
1, 179658, Note_on_c, 0, 79, 57
1, 179738, Note_off_c, 0, 79, 64
1, 179774, Note_on_c, 0, 83, 51
1, 179796, Note_on_c, 0, 67, 34
1, 179844, Note_off_c, 0, 83, 64
1, 179896, Note_on_c, 0, 79, 63
1, 179950, Note_off_c, 0, 67, 64
1, 179956, Note_off_c, 0, 79, 64
1, 179990, Note_on_c, 0, 76, 51
1, 180068, Control_c, 0, 64, 0
1, 180078, Note_on_c, 0, 57, 22
1, 180090, Note_off_c, 0, 76, 64
1, 180090, Note_on_c, 0, 66, 21
1, 180128, Note_on_c, 0, 74, 72
1, 180440, Note_off_c, 0, 66, 64
1, 180442, Note_on_c, 0, 69, 36
1, 180528, Control_c, 0, 64, 127
1, 180590, Note_off_c, 0, 69, 64
1, 180728, Note_on_c, 0, 78, 50
1, 180758, Note_off_c, 0, 74, 64
1, 180758, Note_on_c, 0, 73, 35
1, 180798, Note_on_c, 0, 67, 28
1, 180852, Control_c, 0, 64, 0
1, 181098, Note_on_c, 0, 76, 50
1, 181130, Note_off_c, 0, 78, 64
1, 181133, Note_on_c, 0, 69, 34
1, 181152, Note_off_c, 0, 67, 64
1, 181312, Control_c, 0, 64, 127
1, 181326, Note_off_c, 0, 57, 64
1, 181384, Note_off_c, 0, 69, 64
1, 181556, Note_off_c, 0, 73, 64
1, 181584, Note_off_c, 0, 76, 64
1, 181626, Note_on_c, 0, 74, 34
1, 181642, Note_on_c, 0, 66, 18
1, 181666, Note_on_c, 0, 62, 22
1, 181696, Control_c, 0, 64, 0
1, 182172, Control_c, 0, 64, 127
1, 182198, Note_off_c, 0, 66, 64
1, 182298, Note_off_c, 0, 74, 64
1, 182301, Note_off_c, 0, 62, 64
1, 182496, Control_c, 0, 64, 0
1, 182948, Note_on_c, 0, 69, 40
1, 183262, Control_c, 0, 64, 127
1, 183276, Note_on_c, 0, 68, 50
1, 183296, Note_off_c, 0, 69, 64
1, 183310, Control_c, 0, 64, 0
1, 183592, Note_on_c, 0, 69, 78
1, 183666, Note_off_c, 0, 68, 64
1, 183816, Control_c, 0, 64, 127
1, 183890, Note_on_c, 0, 71, 65
1, 183938, Control_c, 0, 64, 0
1, 183952, Note_off_c, 0, 69, 64
1, 184154, Control_c, 0, 64, 127
1, 184176, Note_on_c, 0, 69, 81
1, 184194, Note_off_c, 0, 71, 64
1, 184200, Control_c, 0, 64, 0
1, 184354, Control_c, 0, 64, 127
1, 184360, Note_off_c, 0, 69, 64
1, 184506, Note_on_c, 0, 76, 73
1, 184509, Control_c, 0, 64, 0
1, 184509, Note_on_c, 0, 79, 84
1, 184516, Note_on_c, 0, 69, 47
1, 184520, Note_on_c, 0, 61, 52
1, 184680, Note_off_c, 0, 69, 64
1, 184688, Note_off_c, 0, 61, 64
1, 184696, Note_off_c, 0, 76, 64
1, 184724, Note_off_c, 0, 79, 64
1, 184738, Control_c, 0, 64, 127
1, 184846, Control_c, 0, 64, 0
1, 184866, Note_on_c, 0, 79, 60
1, 184868, Note_on_c, 0, 61, 52
1, 184872, Note_on_c, 0, 76, 70
1, 184878, Note_on_c, 0, 69, 43
1, 185030, Note_off_c, 0, 69, 64
1, 185076, Control_c, 0, 64, 127
1, 185092, Note_off_c, 0, 76, 64
1, 185102, Note_off_c, 0, 61, 64
1, 185120, Note_off_c, 0, 79, 64
1, 185198, Control_c, 0, 64, 0
1, 185502, Note_on_c, 0, 69, 79
1, 185614, Control_c, 0, 64, 127
1, 185642, Note_off_c, 0, 69, 64
1, 185798, Control_c, 0, 64, 0
1, 185822, Note_on_c, 0, 78, 82
1, 185825, Note_on_c, 0, 69, 61
1, 185832, Note_on_c, 0, 62, 55
1, 185836, Note_on_c, 0, 74, 77
1, 185972, Note_off_c, 0, 69, 64
1, 185980, Note_off_c, 0, 74, 64
1, 185986, Note_off_c, 0, 62, 64
1, 186014, Control_c, 0, 64, 127
1, 186024, Note_off_c, 0, 78, 64
1, 186120, Control_c, 0, 64, 0
1, 186182, Note_on_c, 0, 78, 60
1, 186182, Note_on_c, 0, 74, 48
1, 186196, Note_on_c, 0, 62, 41
1, 186202, Note_on_c, 0, 69, 48
1, 186338, Note_off_c, 0, 69, 64
1, 186390, Note_off_c, 0, 74, 64
1, 186398, Control_c, 0, 64, 127
1, 186402, Note_off_c, 0, 62, 64
1, 186442, Note_off_c, 0, 78, 64
1, 186536, Control_c, 0, 64, 0
1, 186820, Note_on_c, 0, 69, 31
1, 186874, Control_c, 0, 64, 127
1, 186916, Note_off_c, 0, 69, 64
1, 187134, Control_c, 0, 64, 0
1, 187160, Note_on_c, 0, 73, 46
1, 187162, Note_on_c, 0, 76, 46
1, 187164, Note_on_c, 0, 69, 28
1, 187182, Note_on_c, 0, 57, 32
1, 187266, Note_off_c, 0, 57, 64
1, 187304, Note_off_c, 0, 73, 64
1, 187304, Note_off_c, 0, 69, 64
1, 187344, Note_off_c, 0, 76, 64
1, 187350, Control_c, 0, 64, 127
1, 187474, Control_c, 0, 64, 0
1, 187544, Note_on_c, 0, 73, 36
1, 187556, Note_on_c, 0, 76, 37
1, 187572, Note_on_c, 0, 69, 38
1, 187592, Note_on_c, 0, 57, 17
1, 187740, Note_off_c, 0, 69, 64
1, 187766, Control_c, 0, 64, 127
1, 187798, Note_off_c, 0, 76, 64
1, 187804, Note_off_c, 0, 73, 64
1, 187816, Note_off_c, 0, 57, 64
1, 188010, Control_c, 0, 64, 0
1, 188422, Note_on_c, 0, 69, 40
1, 188548, Control_c, 0, 64, 127
1, 188728, Note_on_c, 0, 68, 60
1, 188733, Note_off_c, 0, 69, 64
1, 188794, Control_c, 0, 64, 0
1, 188994, Control_c, 0, 64, 127
1, 189026, Control_c, 0, 64, 0
1, 189038, Note_on_c, 0, 69, 64
1, 189142, Note_off_c, 0, 68, 64
1, 189286, Control_c, 0, 64, 127
1, 189348, Control_c, 0, 64, 0
1, 189366, Note_on_c, 0, 71, 35
1, 189386, Note_off_c, 0, 69, 64
1, 189548, Control_c, 0, 64, 127
1, 189608, Control_c, 0, 64, 0
1, 189678, Note_off_c, 0, 71, 64
1, 189678, Note_on_c, 0, 69, 42
1, 189762, Control_c, 0, 64, 127
1, 189992, Control_c, 0, 64, 0
1, 190014, Note_off_c, 0, 69, 64
1, 190036, Note_on_c, 0, 49, 33
1, 190041, Note_on_c, 0, 57, 31
1, 190041, Note_on_c, 0, 67, 41
1, 190060, Note_on_c, 0, 64, 41
1, 190224, Control_c, 0, 64, 127
1, 190232, Note_off_c, 0, 57, 64
1, 190236, Note_off_c, 0, 49, 64
1, 190262, Note_off_c, 0, 67, 64
1, 190262, Note_off_c, 0, 64, 64
1, 190346, Control_c, 0, 64, 0
1, 190412, Note_on_c, 0, 67, 31
1, 190426, Note_on_c, 0, 49, 41
1, 190432, Note_on_c, 0, 57, 41
1, 190434, Note_on_c, 0, 64, 26
1, 190616, Note_off_c, 0, 64, 64
1, 190624, Note_off_c, 0, 49, 64
1, 190628, Note_off_c, 0, 57, 64
1, 190638, Control_c, 0, 64, 127
1, 190670, Note_off_c, 0, 67, 64
1, 190746, Control_c, 0, 64, 0
1, 191080, Note_on_c, 0, 69, 47
1, 191268, Control_c, 0, 64, 127
1, 191344, Control_c, 0, 64, 0
1, 191396, Note_on_c, 0, 66, 50
1, 191406, Note_off_c, 0, 69, 64
1, 191408, Note_on_c, 0, 57, 42
1, 191422, Note_on_c, 0, 62, 41
1, 191432, Note_on_c, 0, 50, 41
1, 191552, Note_off_c, 0, 50, 64
1, 191558, Note_off_c, 0, 57, 64
1, 191576, Control_c, 0, 64, 127
1, 191582, Note_off_c, 0, 62, 64
1, 191600, Note_off_c, 0, 66, 64
1, 191682, Control_c, 0, 64, 0
1, 191772, Note_on_c, 0, 62, 41
1, 191784, Note_on_c, 0, 66, 50
1, 191794, Note_on_c, 0, 57, 30
1, 191802, Note_on_c, 0, 50, 34
1, 191944, Control_c, 0, 64, 127
1, 191946, Note_off_c, 0, 57, 64
1, 191954, Note_off_c, 0, 62, 64
1, 191978, Note_off_c, 0, 50, 64
1, 192014, Note_off_c, 0, 66, 64
1, 192114, Control_c, 0, 64, 0
1, 192508, Note_on_c, 0, 69, 42
1, 192682, Control_c, 0, 64, 127
1, 192756, Note_off_c, 0, 69, 64
1, 192836, Control_c, 0, 64, 0
1, 192880, Note_on_c, 0, 61, 35
1, 192888, Note_on_c, 0, 57, 29
1, 192898, Note_on_c, 0, 64, 53
1, 192908, Note_on_c, 0, 45, 36
1, 193034, Note_off_c, 0, 45, 64
1, 193037, Note_off_c, 0, 57, 64
1, 193050, Control_c, 0, 64, 127
1, 193068, Note_off_c, 0, 61, 64
1, 193074, Note_off_c, 0, 64, 64
1, 193204, Control_c, 0, 64, 0
1, 193326, Note_on_c, 0, 57, 34
1, 193328, Note_on_c, 0, 45, 33
1, 193336, Note_on_c, 0, 61, 35
1, 193336, Note_on_c, 0, 64, 42
1, 193504, Note_off_c, 0, 57, 64
1, 193506, Note_off_c, 0, 61, 64
1, 193512, Control_c, 0, 64, 127
1, 193520, Note_off_c, 0, 64, 64
1, 193538, Note_off_c, 0, 45, 64
1, 193880, Control_c, 0, 64, 0
1, 193962, Note_on_c, 0, 68, 52
1, 194156, Control_c, 0, 64, 127
1, 194174, Note_on_c, 0, 71, 57
1, 194196, Note_off_c, 0, 68, 64
1, 194338, Note_off_c, 0, 71, 64
1, 194342, Note_on_c, 0, 69, 73
1, 194434, Control_c, 0, 64, 0
1, 194482, Note_on_c, 0, 73, 84
1, 194494, Note_off_c, 0, 69, 64
1, 194634, Note_on_c, 0, 71, 78
1, 194658, Note_off_c, 0, 73, 64
1, 194664, Control_c, 0, 64, 127
1, 194780, Note_on_c, 0, 74, 92
1, 194818, Control_c, 0, 64, 0
1, 194821, Note_off_c, 0, 71, 64
1, 194908, Note_on_c, 0, 73, 90
1, 194940, Note_off_c, 0, 74, 64
1, 195002, Control_c, 0, 64, 127
1, 195032, Control_c, 0, 64, 0
1, 195072, Note_on_c, 0, 76, 91
1, 195102, Note_off_c, 0, 73, 64
1, 195208, Note_on_c, 0, 74, 88
1, 195218, Note_off_c, 0, 76, 64
1, 195356, Note_on_c, 0, 78, 77
1, 195382, Note_off_c, 0, 74, 64
1, 195506, Note_on_c, 0, 76, 88
1, 195526, Note_off_c, 0, 78, 64
1, 195710, Note_on_c, 0, 79, 71
1, 195712, Note_off_c, 0, 76, 64
1, 195766, Note_on_c, 0, 62, 32
1, 195908, Control_c, 0, 64, 127
1, 195962, Note_on_c, 0, 78, 60
1, 196000, Control_c, 0, 64, 0
1, 196034, Note_off_c, 0, 79, 64
1, 196180, Note_on_c, 0, 69, 33
1, 196492, Note_off_c, 0, 69, 64
1, 196494, Note_on_c, 0, 66, 31
1, 196558, Note_off_c, 0, 62, 64
1, 196568, Control_c, 0, 64, 127
1, 196678, Note_off_c, 0, 66, 64
1, 196780, Note_off_c, 0, 78, 64
1, 196852, Note_on_c, 0, 69, 17
1, 196960, Note_off_c, 0, 69, 64
1, 197168, Note_on_c, 0, 78, 55
1, 197214, Note_on_c, 0, 62, 22
1, 197502, Note_off_c, 0, 78, 64
1, 197530, Note_on_c, 0, 69, 29
1, 197620, Note_off_c, 0, 62, 64
1, 197746, Note_off_c, 0, 69, 64
1, 197818, Note_on_c, 0, 78, 85
1, 197846, Note_on_c, 0, 66, 32
1, 197940, Note_off_c, 0, 66, 64
1, 198046, Note_off_c, 0, 78, 64
1, 198138, Note_on_c, 0, 69, 47
1, 198238, Note_off_c, 0, 69, 64
1, 198438, Note_on_c, 0, 76, 92
1, 198484, Note_on_c, 0, 62, 26
1, 198514, Note_on_c, 0, 67, 19
1, 198628, Control_c, 0, 64, 0
1, 198744, Note_on_c, 0, 81, 82
1, 198760, Note_on_c, 0, 73, 41
1, 198764, Note_off_c, 0, 76, 64
1, 198826, Control_c, 0, 64, 127
1, 198918, Note_on_c, 0, 79, 89
1, 198954, Note_off_c, 0, 81, 64
1, 198954, Note_off_c, 0, 73, 64
1, 198970, Note_off_c, 0, 79, 64
1, 199104, Note_on_c, 0, 79, 73
1, 199116, Note_on_c, 0, 64, 33
1, 199342, Note_off_c, 0, 64, 64
1, 199402, Note_on_c, 0, 73, 38
1, 199648, Note_off_c, 0, 73, 64
1, 199722, Note_on_c, 0, 64, 41
1, 199734, Control_c, 0, 64, 0
1, 199948, Control_c, 0, 64, 127
1, 200028, Note_on_c, 0, 73, 43
1, 200062, Note_off_c, 0, 64, 64
1, 200066, Note_off_c, 0, 67, 64
1, 200182, Note_off_c, 0, 73, 64
1, 200348, Note_on_c, 0, 78, 56
1, 200376, Note_on_c, 0, 66, 36
1, 200442, Note_off_c, 0, 79, 64
1, 200472, Control_c, 0, 64, 0
1, 200670, Note_on_c, 0, 74, 41
1, 200670, Control_c, 0, 64, 127
1, 200722, Note_off_c, 0, 78, 64
1, 200744, Note_off_c, 0, 66, 64
1, 200744, Note_off_c, 0, 74, 64
1, 200758, Note_off_c, 0, 62, 64
1, 201010, Note_on_c, 0, 76, 73
1, 201030, Note_on_c, 0, 55, 41
1, 201240, Control_c, 0, 64, 0
1, 201336, Note_on_c, 0, 67, 53
1, 201454, Control_c, 0, 64, 127
1, 201506, Note_off_c, 0, 67, 64
1, 201688, Note_off_c, 0, 55, 64
1, 201708, Note_on_c, 0, 64, 47
1, 201840, Note_on_c, 0, 79, 71
1, 201872, Note_off_c, 0, 76, 64
1, 201902, Note_off_c, 0, 64, 64
1, 202014, Note_off_c, 0, 79, 64
1, 202024, Note_on_c, 0, 83, 72
1, 202040, Note_on_c, 0, 67, 46
1, 202142, Note_off_c, 0, 83, 64
1, 202144, Note_on_c, 0, 79, 69
1, 202264, Note_on_c, 0, 76, 85
1, 202302, Note_off_c, 0, 79, 64
1, 202318, Note_off_c, 0, 67, 64
1, 202404, Note_on_c, 0, 74, 85
1, 202434, Note_on_c, 0, 57, 33
1, 202440, Note_off_c, 0, 76, 64
1, 202576, Control_c, 0, 64, 0
1, 202704, Note_on_c, 0, 66, 45
1, 202822, Control_c, 0, 64, 127
1, 202944, Note_off_c, 0, 66, 64
1, 202988, Note_off_c, 0, 57, 64
1, 203040, Note_on_c, 0, 78, 65
1, 203046, Note_on_c, 0, 73, 52
1, 203084, Note_on_c, 0, 58, 41
1, 203094, Note_off_c, 0, 74, 64
1, 203114, Control_c, 0, 64, 0
1, 203452, Note_on_c, 0, 76, 65
1, 203474, Note_on_c, 0, 67, 41
1, 203496, Note_off_c, 0, 78, 64
1, 203652, Control_c, 0, 64, 127
1, 203666, Note_off_c, 0, 58, 64
1, 203708, Note_off_c, 0, 67, 64
1, 204012, Note_on_c, 0, 66, 26
1, 204016, Note_on_c, 0, 59, 22
1, 204020, Note_on_c, 0, 74, 36
1, 204036, Note_off_c, 0, 73, 64
1, 204052, Control_c, 0, 64, 0
1, 204068, Note_off_c, 0, 76, 64
1, 204542, Control_c, 0, 64, 127
1, 204598, Note_off_c, 0, 66, 64
1, 204606, Note_off_c, 0, 59, 64
1, 204638, Note_off_c, 0, 74, 64
1, 205188, Control_c, 0, 64, 0
1, 205318, Note_on_c, 0, 78, 46
1, 205526, Control_c, 0, 64, 127
1, 205554, Note_off_c, 0, 78, 64
1, 205554, Note_on_c, 0, 76, 57
1, 205664, Control_c, 0, 64, 0
1, 205688, Note_off_c, 0, 76, 64
1, 205708, Note_on_c, 0, 74, 72
1, 205870, Note_on_c, 0, 73, 72
1, 205888, Note_off_c, 0, 74, 64
1, 206036, Note_off_c, 0, 73, 64
1, 206044, Note_on_c, 0, 76, 70
1, 206208, Note_on_c, 0, 74, 67
1, 206211, Note_off_c, 0, 76, 64
1, 206342, Note_off_c, 0, 74, 64
1, 206370, Note_on_c, 0, 71, 53
1, 206516, Note_off_c, 0, 71, 64
1, 206522, Note_on_c, 0, 70, 59
1, 206686, Note_on_c, 0, 73, 55
1, 206691, Note_off_c, 0, 70, 64
1, 206892, Note_off_c, 0, 73, 64
1, 206894, Note_on_c, 0, 71, 48
1, 207016, Control_c, 0, 64, 127
1, 207062, Control_c, 0, 64, 0
1, 207108, Note_on_c, 0, 67, 51
1, 207126, Note_off_c, 0, 71, 64
1, 207248, Control_c, 0, 64, 127
1, 207432, Control_c, 0, 64, 0
1, 207456, Note_on_c, 0, 66, 47
1, 207492, Note_on_c, 0, 50, 30
1, 207552, Note_off_c, 0, 67, 64
1, 207804, Note_on_c, 0, 57, 37
1, 207986, Control_c, 0, 64, 127
1, 208076, Note_off_c, 0, 57, 64
1, 208102, Note_off_c, 0, 50, 64
1, 208124, Note_on_c, 0, 54, 29
1, 208126, Note_off_c, 0, 66, 64
1, 208318, Note_off_c, 0, 54, 64
1, 208460, Note_on_c, 0, 57, 26
1, 208582, Note_off_c, 0, 57, 64
1, 208798, Note_on_c, 0, 66, 44
1, 208808, Note_on_c, 0, 50, 33
1, 208978, Note_off_c, 0, 66, 64
1, 209108, Note_off_c, 0, 50, 64
1, 209142, Note_on_c, 0, 66, 68
1, 209158, Note_on_c, 0, 57, 30
1, 209264, Note_off_c, 0, 66, 64
1, 209288, Note_off_c, 0, 57, 64
1, 209428, Note_on_c, 0, 66, 72
1, 209442, Note_on_c, 0, 54, 41
1, 209558, Note_off_c, 0, 66, 64
1, 209640, Note_off_c, 0, 54, 64
1, 209740, Note_on_c, 0, 66, 72
1, 209750, Note_on_c, 0, 57, 46
1, 209862, Note_off_c, 0, 66, 64
1, 209862, Note_off_c, 0, 57, 64
1, 210046, Note_on_c, 0, 50, 39
1, 210050, Note_on_c, 0, 55, 34
1, 210080, Note_on_c, 0, 64, 75
1, 210152, Control_c, 0, 64, 0
1, 210350, Note_off_c, 0, 64, 64
1, 210372, Note_on_c, 0, 69, 72
1, 210384, Note_on_c, 0, 61, 38
1, 210412, Control_c, 0, 64, 127
1, 210512, Note_on_c, 0, 67, 81
1, 210528, Note_off_c, 0, 69, 64
1, 210556, Note_off_c, 0, 61, 64
1, 210559, Note_off_c, 0, 67, 64
1, 210704, Note_on_c, 0, 67, 73
1, 210734, Control_c, 0, 64, 0
1, 210760, Note_on_c, 0, 52, 33
1, 211012, Control_c, 0, 64, 127
1, 211054, Note_off_c, 0, 52, 64
1, 211054, Note_on_c, 0, 61, 31
1, 211288, Note_off_c, 0, 61, 64
1, 211384, Note_on_c, 0, 52, 37
1, 211584, Note_off_c, 0, 52, 64
1, 211640, Note_off_c, 0, 55, 64
1, 211688, Note_on_c, 0, 61, 36
1, 211810, Note_off_c, 0, 61, 64
1, 212014, Note_on_c, 0, 66, 54
1, 212029, Note_on_c, 0, 54, 32
1, 212048, Note_off_c, 0, 67, 64
1, 212056, Control_c, 0, 64, 0
1, 212302, Control_c, 0, 64, 127
1, 212328, Note_on_c, 0, 62, 34
1, 212390, Note_off_c, 0, 62, 64
1, 212404, Note_off_c, 0, 54, 64
1, 212406, Note_off_c, 0, 50, 64
1, 212436, Note_off_c, 0, 66, 64
1, 212764, Note_on_c, 0, 59, 55
1, 212788, Note_on_c, 0, 43, 30
1, 212794, Control_c, 0, 64, 0
1, 213096, Note_on_c, 0, 55, 33
1, 213240, Control_c, 0, 64, 127
1, 213288, Note_off_c, 0, 55, 64
1, 213294, Note_off_c, 0, 43, 64
1, 213396, Note_on_c, 0, 52, 41
1, 213442, Note_off_c, 0, 59, 64
1, 213462, Note_off_c, 0, 52, 64
1, 213484, Note_on_c, 0, 64, 60
1, 213558, Note_off_c, 0, 64, 64
1, 213592, Note_on_c, 0, 67, 66
1, 213688, Note_off_c, 0, 67, 64
1, 213688, Note_on_c, 0, 55, 48
1, 213706, Note_on_c, 0, 71, 55
1, 213786, Note_off_c, 0, 71, 64
1, 213798, Note_on_c, 0, 67, 49
1, 213904, Note_on_c, 0, 64, 68
1, 213926, Note_off_c, 0, 55, 64
1, 213976, Control_c, 0, 64, 0
1, 213986, Note_off_c, 0, 67, 64
1, 214016, Note_on_c, 0, 54, 28
1, 214030, Note_on_c, 0, 45, 33
1, 214080, Note_on_c, 0, 62, 71
1, 214166, Note_off_c, 0, 64, 64
1, 214398, Note_on_c, 0, 57, 41
1, 214464, Note_off_c, 0, 54, 64
1, 214484, Control_c, 0, 64, 127
1, 214578, Note_off_c, 0, 57, 64
1, 214706, Note_on_c, 0, 66, 44
1, 214742, Note_on_c, 0, 61, 32
1, 214752, Note_on_c, 0, 55, 34
1, 214762, Note_off_c, 0, 62, 64
1, 214792, Control_c, 0, 64, 0
1, 215076, Note_on_c, 0, 64, 43
1, 215096, Note_on_c, 0, 57, 42
1, 215118, Note_off_c, 0, 66, 64
1, 215152, Note_off_c, 0, 55, 64
1, 215330, Control_c, 0, 64, 127
1, 215556, Note_off_c, 0, 57, 64
1, 215566, Note_on_c, 0, 62, 34
1, 215568, Note_off_c, 0, 64, 64
1, 215574, Control_c, 0, 64, 0
1, 215590, Note_off_c, 0, 61, 64
1, 215596, Note_on_c, 0, 54, 24
1, 215612, Note_on_c, 0, 50, 36
1, 215794, Note_off_c, 0, 45, 64
1, 216160, Control_c, 0, 64, 127
1, 216204, Note_off_c, 0, 62, 64
1, 216204, Note_off_c, 0, 50, 64
1, 216222, Note_off_c, 0, 54, 64
1, 216358, Control_c, 0, 64, 0
1, 216572, Note_on_c, 0, 69, 38
1, 216804, Control_c, 0, 64, 127
1, 216876, Note_off_c, 0, 69, 64
1, 216888, Note_on_c, 0, 68, 54
1, 216896, Control_c, 0, 64, 0
1, 217126, Control_c, 0, 64, 127
1, 217172, Control_c, 0, 64, 0
1, 217196, Note_on_c, 0, 69, 73
1, 217318, Note_off_c, 0, 68, 64
1, 217420, Control_c, 0, 64, 127
1, 217506, Note_on_c, 0, 71, 69
1, 217526, Control_c, 0, 64, 0
1, 217548, Note_off_c, 0, 69, 64
1, 217740, Control_c, 0, 64, 127
1, 217798, Note_off_c, 0, 71, 64
1, 217800, Note_on_c, 0, 69, 84
1, 217804, Control_c, 0, 64, 0
1, 217942, Note_off_c, 0, 69, 64
1, 217942, Control_c, 0, 64, 127
1, 218080, Control_c, 0, 64, 0
1, 218108, Note_on_c, 0, 79, 83
1, 218122, Note_on_c, 0, 76, 66
1, 218125, Note_on_c, 0, 61, 47
1, 218125, Note_on_c, 0, 69, 56
1, 218256, Note_off_c, 0, 61, 64
1, 218256, Note_off_c, 0, 69, 64
1, 218272, Note_off_c, 0, 76, 64
1, 218304, Note_off_c, 0, 79, 64
1, 218310, Control_c, 0, 64, 127
1, 218418, Control_c, 0, 64, 0
1, 218440, Note_on_c, 0, 76, 71
1, 218446, Note_on_c, 0, 79, 64
1, 218462, Note_on_c, 0, 61, 35
1, 218462, Note_on_c, 0, 69, 46
1, 218608, Note_off_c, 0, 69, 64
1, 218648, Control_c, 0, 64, 127
1, 218662, Note_off_c, 0, 76, 64
1, 218672, Note_off_c, 0, 61, 64
1, 218680, Note_off_c, 0, 79, 64
1, 218740, Control_c, 0, 64, 0
1, 219020, Note_on_c, 0, 69, 69
1, 219140, Control_c, 0, 64, 127
1, 219174, Note_off_c, 0, 69, 64
1, 219338, Control_c, 0, 64, 0
1, 219344, Note_on_c, 0, 78, 70
1, 219362, Note_on_c, 0, 74, 67
1, 219364, Note_on_c, 0, 62, 48
1, 219366, Note_on_c, 0, 69, 50
1, 219504, Note_off_c, 0, 69, 64
1, 219510, Note_off_c, 0, 74, 64
1, 219516, Note_off_c, 0, 62, 64
1, 219552, Note_off_c, 0, 78, 64
1, 219554, Control_c, 0, 64, 127
1, 219646, Control_c, 0, 64, 0
1, 219718, Note_on_c, 0, 78, 65
1, 219726, Note_on_c, 0, 69, 45
1, 219736, Note_on_c, 0, 74, 25
1, 219742, Note_on_c, 0, 62, 26
1, 219882, Note_off_c, 0, 69, 64
1, 219924, Control_c, 0, 64, 127
1, 219934, Note_off_c, 0, 74, 64
1, 219936, Note_off_c, 0, 62, 64
1, 219974, Note_off_c, 0, 78, 64
1, 220046, Control_c, 0, 64, 0
1, 220328, Note_on_c, 0, 69, 44
1, 220368, Control_c, 0, 64, 127
1, 220408, Note_off_c, 0, 69, 64
1, 220630, Control_c, 0, 64, 0
1, 220676, Note_on_c, 0, 73, 39
1, 220676, Note_on_c, 0, 76, 55
1, 220682, Note_on_c, 0, 69, 29
1, 220694, Note_on_c, 0, 57, 18
1, 220776, Note_off_c, 0, 57, 64
1, 220810, Note_off_c, 0, 69, 64
1, 220834, Note_off_c, 0, 73, 64
1, 220837, Note_off_c, 0, 76, 64
1, 220846, Control_c, 0, 64, 127
1, 220952, Control_c, 0, 64, 0
1, 221038, Note_on_c, 0, 73, 42
1, 221062, Note_on_c, 0, 76, 42
1, 221066, Note_on_c, 0, 69, 29
1, 221076, Note_on_c, 0, 57, 23
1, 221228, Note_off_c, 0, 69, 64
1, 221250, Note_off_c, 0, 76, 64
1, 221253, Note_off_c, 0, 73, 64
1, 221258, Note_off_c, 0, 57, 64
1, 221260, Control_c, 0, 64, 127
1, 221430, Control_c, 0, 64, 0
1, 221804, Note_on_c, 0, 69, 41
1, 222044, Control_c, 0, 64, 127
1, 222120, Note_on_c, 0, 68, 55
1, 222134, Note_off_c, 0, 69, 64
1, 222136, Control_c, 0, 64, 0
1, 222416, Note_on_c, 0, 69, 62
1, 222464, Note_off_c, 0, 68, 64
1, 222762, Note_on_c, 0, 71, 30
1, 222770, Note_off_c, 0, 69, 64
1, 223120, Note_on_c, 0, 69, 28
1, 223148, Note_off_c, 0, 71, 64
1, 223272, Control_c, 0, 64, 127
1, 223364, Control_c, 0, 64, 0
1, 223442, Note_off_c, 0, 69, 64
1, 223462, Note_on_c, 0, 67, 35
1, 223480, Note_on_c, 0, 49, 28
1, 223488, Note_on_c, 0, 57, 30
1, 223510, Note_on_c, 0, 64, 25
1, 223636, Note_off_c, 0, 57, 64
1, 223642, Control_c, 0, 64, 127
1, 223650, Note_off_c, 0, 49, 64
1, 223668, Note_off_c, 0, 64, 64
1, 223676, Note_off_c, 0, 67, 64
1, 223734, Control_c, 0, 64, 0
1, 223850, Note_on_c, 0, 57, 39
1, 223850, Note_on_c, 0, 49, 30
1, 223854, Note_on_c, 0, 67, 28
1, 223870, Note_on_c, 0, 64, 25
1, 223996, Control_c, 0, 64, 127
1, 224046, Note_off_c, 0, 57, 64
1, 224066, Note_off_c, 0, 49, 64
1, 224066, Note_off_c, 0, 64, 64
1, 224116, Note_off_c, 0, 67, 64
1, 224180, Control_c, 0, 64, 0
1, 224484, Note_on_c, 0, 69, 52
1, 224670, Control_c, 0, 64, 127
1, 224778, Control_c, 0, 64, 0
1, 224812, Note_off_c, 0, 69, 64
1, 224812, Note_on_c, 0, 66, 45
1, 224814, Note_on_c, 0, 57, 41
1, 224822, Note_on_c, 0, 62, 37
1, 224824, Note_on_c, 0, 50, 45
1, 224974, Note_off_c, 0, 57, 64
1, 224990, Note_off_c, 0, 62, 64
1, 224990, Note_off_c, 0, 50, 64
1, 225008, Control_c, 0, 64, 127
1, 225013, Note_off_c, 0, 66, 64
1, 225085, Control_c, 0, 64, 0
1, 225206, Note_on_c, 0, 66, 40
1, 225212, Note_on_c, 0, 50, 27
1, 225216, Note_on_c, 0, 62, 36
1, 225238, Note_on_c, 0, 57, 26
1, 225386, Note_off_c, 0, 57, 64
1, 225402, Note_off_c, 0, 50, 64
1, 225402, Note_off_c, 0, 62, 64
1, 225438, Control_c, 0, 64, 127
1, 225450, Note_off_c, 0, 66, 64
1, 225484, Control_c, 0, 64, 0
1, 225868, Note_on_c, 0, 69, 34
1, 225992, Control_c, 0, 64, 127
1, 226082, Note_off_c, 0, 69, 64
1, 226176, Control_c, 0, 64, 0
1, 226244, Note_on_c, 0, 61, 30
1, 226254, Note_on_c, 0, 45, 27
1, 226270, Note_on_c, 0, 57, 19
1, 226272, Note_on_c, 0, 64, 36
1, 226402, Note_off_c, 0, 61, 64
1, 226404, Note_off_c, 0, 45, 64
1, 226406, Note_off_c, 0, 57, 64
1, 226420, Note_off_c, 0, 64, 64
1, 226422, Control_c, 0, 64, 127
1, 226560, Control_c, 0, 64, 0
1, 226702, Note_on_c, 0, 57, 13
1, 226702, Note_on_c, 0, 45, 30
1, 226708, Note_on_c, 0, 61, 23
1, 226716, Note_on_c, 0, 64, 27
1, 226822, Control_c, 0, 64, 127
1, 226860, Note_off_c, 0, 61, 64
1, 226866, Note_off_c, 0, 57, 64
1, 226888, Note_off_c, 0, 64, 64
1, 226910, Note_off_c, 0, 45, 64
1, 227192, Control_c, 0, 64, 0
1, 227340, Note_on_c, 0, 68, 32
1, 227572, Note_off_c, 0, 68, 64
1, 227582, Note_on_c, 0, 71, 45
1, 227732, Note_off_c, 0, 71, 64
1, 227746, Note_on_c, 0, 69, 57
1, 227896, Note_off_c, 0, 69, 64
1, 227896, Note_on_c, 0, 73, 73
1, 228048, Note_on_c, 0, 71, 72
1, 228074, Note_off_c, 0, 73, 64
1, 228192, Note_on_c, 0, 74, 85
1, 228224, Note_off_c, 0, 71, 64
1, 228332, Note_on_c, 0, 73, 84
1, 228357, Note_off_c, 0, 74, 64
1, 228494, Note_on_c, 0, 76, 88
1, 228524, Note_off_c, 0, 73, 64
1, 228652, Note_on_c, 0, 74, 87
1, 228656, Note_off_c, 0, 76, 64
1, 228822, Note_on_c, 0, 78, 79
1, 228864, Note_off_c, 0, 74, 64
1, 228992, Note_on_c, 0, 76, 84
1, 229028, Note_off_c, 0, 78, 64
1, 229050, Control_c, 0, 64, 127
1, 229080, Control_c, 0, 64, 0
1, 229202, Note_on_c, 0, 79, 75
1, 229228, Note_off_c, 0, 76, 64
1, 229252, Note_on_c, 0, 62, 34
1, 229476, Note_on_c, 0, 78, 53
1, 229582, Note_off_c, 0, 79, 64
1, 229710, Note_on_c, 0, 69, 31
1, 229956, Control_c, 0, 64, 127
1, 229992, Note_off_c, 0, 69, 64
1, 230030, Note_off_c, 0, 62, 64
1, 230032, Note_on_c, 0, 66, 34
1, 230244, Note_off_c, 0, 66, 64
1, 230252, Note_off_c, 0, 78, 64
1, 230374, Note_on_c, 0, 69, 34
1, 230564, Note_off_c, 0, 69, 64
1, 230714, Note_on_c, 0, 78, 62
1, 230758, Note_on_c, 0, 62, 29
1, 230854, Note_off_c, 0, 62, 64
1, 231006, Note_off_c, 0, 78, 64
1, 231068, Note_on_c, 0, 69, 39
1, 231258, Note_off_c, 0, 69, 64
1, 231372, Note_on_c, 0, 78, 88
1, 231386, Note_on_c, 0, 66, 32
1, 231568, Note_off_c, 0, 66, 64
1, 231582, Note_off_c, 0, 78, 64
1, 231694, Note_on_c, 0, 69, 43
1, 231776, Note_off_c, 0, 69, 64
1, 232000, Note_on_c, 0, 76, 85
1, 232024, Note_on_c, 0, 62, 28
1, 232042, Note_on_c, 0, 67, 26
1, 232170, Control_c, 0, 64, 0
1, 232322, Note_on_c, 0, 81, 79
1, 232344, Note_off_c, 0, 76, 64
1, 232360, Note_on_c, 0, 73, 30
1, 232384, Control_c, 0, 64, 127
1, 232496, Note_on_c, 0, 79, 88
1, 232516, Note_off_c, 0, 73, 64
1, 232538, Note_off_c, 0, 81, 64
1, 232564, Note_off_c, 0, 79, 64
1, 232700, Note_on_c, 0, 79, 84
1, 232718, Note_on_c, 0, 64, 39
1, 232784, Control_c, 0, 64, 0
1, 232984, Control_c, 0, 64, 127
1, 232998, Note_off_c, 0, 64, 64
1, 233012, Note_on_c, 0, 73, 39
1, 233196, Note_off_c, 0, 73, 64
1, 233330, Note_on_c, 0, 64, 46
1, 233416, Note_off_c, 0, 67, 64
1, 233592, Note_off_c, 0, 64, 64
1, 233598, Note_on_c, 0, 73, 47
1, 233790, Note_off_c, 0, 73, 64
1, 233914, Note_on_c, 0, 78, 68
1, 233932, Note_on_c, 0, 66, 42
1, 234010, Note_off_c, 0, 79, 64
1, 234044, Control_c, 0, 64, 0
1, 234228, Control_c, 0, 64, 127
1, 234238, Note_on_c, 0, 74, 56
1, 234288, Note_off_c, 0, 78, 64
1, 234290, Note_off_c, 0, 74, 64
1, 234296, Note_off_c, 0, 62, 64
1, 234306, Note_off_c, 0, 66, 64
1, 234588, Note_on_c, 0, 76, 86
1, 234602, Note_on_c, 0, 55, 38
1, 234940, Note_on_c, 0, 67, 40
1, 235058, Control_c, 0, 64, 0
1, 235212, Note_off_c, 0, 67, 64
1, 235242, Control_c, 0, 64, 127
1, 235245, Note_on_c, 0, 64, 51
1, 235358, Note_on_c, 0, 79, 73
1, 235422, Note_off_c, 0, 55, 64
1, 235454, Note_off_c, 0, 76, 64
1, 235558, Note_off_c, 0, 64, 64
1, 235560, Note_on_c, 0, 83, 76
1, 235570, Note_off_c, 0, 79, 64
1, 235610, Note_on_c, 0, 67, 54
1, 235674, Note_on_c, 0, 79, 68
1, 235730, Note_off_c, 0, 83, 64
1, 235776, Note_off_c, 0, 67, 64
1, 235818, Note_on_c, 0, 76, 94
1, 235880, Note_off_c, 0, 79, 64
1, 235972, Note_on_c, 0, 57, 42
1, 236004, Note_on_c, 0, 74, 91
1, 236098, Note_off_c, 0, 76, 64
1, 236164, Control_c, 0, 64, 0
1, 236306, Note_on_c, 0, 66, 43
1, 236410, Control_c, 0, 64, 127
1, 236640, Note_off_c, 0, 66, 64
1, 236656, Note_on_c, 0, 78, 69
1, 236659, Note_off_c, 0, 57, 64
1, 236668, Note_on_c, 0, 73, 46
1, 236720, Note_off_c, 0, 74, 64
1, 236720, Note_on_c, 0, 58, 35
1, 236810, Control_c, 0, 64, 0
1, 237050, Note_on_c, 0, 76, 65
1, 237080, Note_on_c, 0, 67, 37
1, 237102, Note_off_c, 0, 78, 64
1, 237270, Control_c, 0, 64, 127
1, 237302, Note_off_c, 0, 67, 64
1, 237306, Note_off_c, 0, 58, 64
1, 237588, Note_on_c, 0, 74, 41
1, 237612, Note_on_c, 0, 66, 19
1, 237618, Note_off_c, 0, 73, 64
1, 237618, Note_on_c, 0, 59, 18
1, 237654, Control_c, 0, 64, 0
1, 237660, Note_off_c, 0, 76, 64
1, 238208, Control_c, 0, 64, 127
1, 238328, Note_off_c, 0, 59, 64
1, 238356, Note_off_c, 0, 66, 64
1, 238408, Note_off_c, 0, 74, 64
1, 238746, Control_c, 0, 64, 0
1, 238932, Note_on_c, 0, 78, 45
1, 239202, Note_on_c, 0, 76, 58
1, 239210, Note_off_c, 0, 78, 64
1, 239368, Note_off_c, 0, 76, 64
1, 239378, Note_on_c, 0, 74, 64
1, 239556, Note_on_c, 0, 73, 69
1, 239586, Note_off_c, 0, 74, 64
1, 239742, Note_off_c, 0, 73, 64
1, 239748, Note_on_c, 0, 76, 75
1, 239910, Note_on_c, 0, 74, 74
1, 239932, Note_off_c, 0, 76, 64
1, 240056, Note_off_c, 0, 74, 64
1, 240078, Note_on_c, 0, 71, 55
1, 240242, Note_on_c, 0, 70, 66
1, 240258, Note_off_c, 0, 71, 64
1, 240434, Note_off_c, 0, 70, 64
1, 240437, Note_on_c, 0, 73, 50
1, 240656, Note_on_c, 0, 71, 47
1, 240668, Note_off_c, 0, 73, 64
1, 240858, Note_on_c, 0, 67, 50
1, 240870, Note_off_c, 0, 71, 64
1, 241224, Note_on_c, 0, 66, 46
1, 241254, Note_off_c, 0, 67, 64
1, 241262, Note_on_c, 0, 50, 26
1, 241614, Note_on_c, 0, 57, 36
1, 241756, Control_c, 0, 64, 127
1, 241882, Note_off_c, 0, 57, 64
1, 241900, Note_off_c, 0, 66, 64
1, 241916, Note_off_c, 0, 50, 64
1, 241946, Note_on_c, 0, 54, 28
1, 242122, Note_off_c, 0, 54, 64
1, 242280, Note_on_c, 0, 57, 35
1, 242422, Note_off_c, 0, 57, 64
1, 242624, Note_on_c, 0, 66, 45
1, 242662, Note_on_c, 0, 50, 38
1, 242768, Note_off_c, 0, 50, 64
1, 242802, Note_off_c, 0, 66, 64
1, 242954, Note_on_c, 0, 66, 73
1, 242996, Note_on_c, 0, 57, 37
1, 243076, Note_off_c, 0, 66, 64
1, 243120, Note_off_c, 0, 57, 64
1, 243262, Note_on_c, 0, 66, 80
1, 243288, Note_on_c, 0, 54, 40
1, 243370, Note_off_c, 0, 54, 64
1, 243380, Note_off_c, 0, 66, 64
1, 243556, Note_on_c, 0, 66, 83
1, 243578, Note_on_c, 0, 57, 51
1, 243632, Note_off_c, 0, 57, 64
1, 243658, Note_off_c, 0, 66, 64
1, 243870, Note_on_c, 0, 55, 49
1, 243882, Note_on_c, 0, 50, 39
1, 243886, Note_on_c, 0, 64, 84
1, 243890, Note_on_c, 0, 61, 43
1, 244046, Control_c, 0, 64, 0
1, 244370, Control_c, 0, 64, 127
1, 244436, Note_off_c, 0, 61, 64
1, 244446, Note_off_c, 0, 50, 64
1, 244474, Note_off_c, 0, 64, 64
1, 244480, Note_on_c, 0, 69, 75
1, 244550, Note_off_c, 0, 55, 64
1, 244672, Note_on_c, 0, 67, 80
1, 244702, Note_off_c, 0, 69, 64
1, 244716, Note_off_c, 0, 67, 64
1, 244754, Control_c, 0, 64, 0
1, 244850, Note_on_c, 0, 67, 63
1, 244856, Note_on_c, 0, 61, 34
1, 244870, Note_on_c, 0, 50, 33
1, 244872, Note_on_c, 0, 52, 46
1, 245184, Control_c, 0, 64, 127
1, 245206, Note_off_c, 0, 50, 64
1, 245272, Note_off_c, 0, 61, 64
1, 245300, Note_off_c, 0, 52, 64
1, 245458, Note_off_c, 0, 67, 64
1, 245598, Control_c, 0, 64, 0
1, 246644, Note_on_c, 0, 66, 81
1, 246668, Note_on_c, 0, 62, 52
1, 246674, Note_on_c, 0, 50, 48
1, 246686, Note_on_c, 0, 57, 54
1, 246920, Control_c, 0, 64, 127
1, 246992, Note_on_c, 0, 74, 89
1, 247020, Note_off_c, 0, 62, 64
1, 247026, Note_off_c, 0, 57, 64
1, 247072, Note_off_c, 0, 66, 64
1, 247108, Note_off_c, 0, 50, 64
1, 247184, Note_on_c, 0, 72, 97
1, 247252, Note_off_c, 0, 74, 64
1, 247282, Note_off_c, 0, 72, 64
1, 247406, Note_on_c, 0, 57, 47
1, 247410, Note_on_c, 0, 72, 64
1, 247424, Note_on_c, 0, 50, 52
1, 247424, Note_on_c, 0, 54, 39
1, 247427, Control_c, 0, 64, 0
1, 247734, Control_c, 0, 64, 127
1, 247768, Note_off_c, 0, 54, 64
1, 247778, Note_off_c, 0, 57, 64
1, 247904, Note_off_c, 0, 50, 64
1, 247910, Note_off_c, 0, 72, 64
1, 248164, Control_c, 0, 64, 0
1, 249292, Note_on_c, 0, 63, 23
1, 249304, Note_on_c, 0, 71, 35
1, 249310, Note_on_c, 0, 66, 28
1, 249562, Control_c, 0, 64, 127
1, 249592, Note_off_c, 0, 66, 64
1, 249638, Note_off_c, 0, 63, 64
1, 249894, Note_off_c, 0, 71, 64
1, 249948, Note_on_c, 0, 83, 22
1, 249986, Note_on_c, 0, 66, 7
1, 250008, Control_c, 0, 64, 0
1, 250108, Note_off_c, 0, 66, 64
1, 250116, Control_c, 0, 64, 127
1, 250228, Note_off_c, 0, 83, 64
1, 250262, Note_on_c, 0, 81, 34
1, 250440, Note_off_c, 0, 81, 64
1, 250790, Note_on_c, 0, 81, 21
1, 250798, Note_on_c, 0, 71, 8
1, 250816, Note_on_c, 0, 66, 17
1, 250830, Note_on_c, 0, 63, 18
1, 250970, Note_off_c, 0, 63, 64
1, 251010, Note_off_c, 0, 66, 64
1, 251034, Note_off_c, 0, 71, 64
1, 251148, Note_off_c, 0, 81, 64
1, 251774, Control_c, 0, 64, 0
1, 254528, Note_on_c, 0, 52, 107
1, 254528, Note_on_c, 0, 40, 101
1, 254802, Control_c, 0, 64, 127
1, 255288, Note_off_c, 0, 40, 64
1, 255326, Note_off_c, 0, 52, 64
1, 255494, Control_c, 0, 64, 0
1, 255500, Note_on_c, 0, 53, 106
1, 255508, Note_on_c, 0, 41, 98
1, 255708, Control_c, 0, 64, 127
1, 255716, Note_off_c, 0, 53, 64
1, 255740, Note_off_c, 0, 41, 64
1, 255840, Note_on_c, 0, 52, 112
1, 255842, Note_on_c, 0, 40, 112
1, 255908, Control_c, 0, 64, 0
1, 256522, Control_c, 0, 64, 127
1, 256590, Note_off_c, 0, 40, 64
1, 256618, Note_off_c, 0, 52, 64
1, 256752, Control_c, 0, 64, 0
1, 256776, Note_on_c, 0, 53, 110
1, 256781, Note_on_c, 0, 41, 104
1, 256922, Control_c, 0, 64, 127
1, 256980, Note_off_c, 0, 53, 64
1, 257018, Note_off_c, 0, 41, 64
1, 257106, Note_on_c, 0, 52, 113
1, 257110, Note_on_c, 0, 40, 111
1, 257114, Note_on_c, 0, 71, 90
1, 257116, Note_on_c, 0, 74, 97
1, 257138, Control_c, 0, 64, 0
1, 257150, Note_off_c, 0, 71, 64
1, 257152, Note_off_c, 0, 74, 64
1, 257176, Note_on_c, 0, 80, 91
1, 257244, Note_off_c, 0, 80, 64
1, 257258, Note_on_c, 0, 71, 65
1, 257264, Note_on_c, 0, 74, 72
1, 257308, Note_off_c, 0, 71, 64
1, 257308, Note_off_c, 0, 74, 64
1, 257334, Note_on_c, 0, 80, 78
1, 257402, Note_on_c, 0, 71, 71
1, 257414, Note_on_c, 0, 74, 74
1, 257434, Note_off_c, 0, 80, 64
1, 257466, Note_off_c, 0, 74, 64
1, 257498, Note_off_c, 0, 71, 64
1, 257498, Note_on_c, 0, 80, 87
1, 257546, Note_off_c, 0, 80, 64
1, 257562, Note_on_c, 0, 74, 62
1, 257566, Note_on_c, 0, 71, 60
1, 257616, Note_off_c, 0, 71, 64
1, 257618, Note_off_c, 0, 74, 64
1, 257632, Note_on_c, 0, 80, 70
1, 257710, Note_on_c, 0, 71, 77
1, 257712, Note_on_c, 0, 74, 84
1, 257726, Note_off_c, 0, 80, 64
1, 257762, Note_off_c, 0, 74, 64
1, 257764, Note_off_c, 0, 71, 64
1, 257794, Note_on_c, 0, 80, 88
1, 257814, Control_c, 0, 64, 127
1, 257848, Note_off_c, 0, 80, 64
1, 257852, Note_on_c, 0, 71, 66
1, 257852, Note_on_c, 0, 74, 78
1, 257894, Note_off_c, 0, 40, 64
1, 257898, Note_off_c, 0, 71, 64
1, 257906, Note_off_c, 0, 74, 64
1, 257906, Control_c, 0, 64, 0
1, 257909, Note_off_c, 0, 52, 64
1, 257928, Note_on_c, 0, 80, 69
1, 257978, Note_off_c, 0, 80, 64
1, 257978, Note_on_c, 0, 71, 73
1, 257986, Note_on_c, 0, 74, 87
1, 257992, Note_on_c, 0, 53, 100
1, 257998, Note_on_c, 0, 41, 97
1, 258028, Note_off_c, 0, 74, 64
1, 258034, Note_off_c, 0, 71, 64
1, 258054, Note_on_c, 0, 80, 72
1, 258090, Control_c, 0, 64, 127
1, 258116, Note_on_c, 0, 71, 66
1, 258118, Note_on_c, 0, 74, 71
1, 258122, Note_off_c, 0, 80, 64
1, 258186, Note_off_c, 0, 71, 64
1, 258196, Note_off_c, 0, 53, 64
1, 258204, Note_off_c, 0, 74, 64
1, 258210, Note_on_c, 0, 80, 75
1, 258212, Control_c, 0, 64, 0
1, 258228, Note_off_c, 0, 41, 64
1, 258294, Note_on_c, 0, 74, 79
1, 258302, Note_on_c, 0, 52, 106
1, 258302, Note_on_c, 0, 40, 107
1, 258308, Note_on_c, 0, 71, 52
1, 258316, Note_off_c, 0, 80, 64
1, 258354, Note_off_c, 0, 71, 64
1, 258374, Note_off_c, 0, 74, 64
1, 258386, Note_on_c, 0, 80, 90
1, 258428, Control_c, 0, 64, 127
1, 258452, Note_off_c, 0, 80, 64
1, 258462, Note_on_c, 0, 71, 63
1, 258466, Note_on_c, 0, 74, 77
1, 258508, Note_off_c, 0, 40, 64
1, 258522, Note_off_c, 0, 71, 64
1, 258526, Note_off_c, 0, 74, 64
1, 258534, Note_off_c, 0, 52, 64
1, 258548, Note_on_c, 0, 80, 76
1, 258551, Control_c, 0, 64, 0
1, 258616, Note_on_c, 0, 53, 95
1, 258616, Note_on_c, 0, 71, 73
1, 258616, Note_on_c, 0, 74, 87
1, 258622, Note_off_c, 0, 80, 64
1, 258622, Note_on_c, 0, 41, 92
1, 258674, Note_off_c, 0, 74, 64
1, 258690, Note_off_c, 0, 71, 64
1, 258690, Control_c, 0, 64, 127
1, 258693, Note_on_c, 0, 80, 86
1, 258770, Note_on_c, 0, 71, 70
1, 258773, Note_on_c, 0, 74, 77
1, 258802, Note_off_c, 0, 80, 64
1, 258838, Note_off_c, 0, 53, 64
1, 258844, Note_off_c, 0, 74, 64
1, 258852, Note_off_c, 0, 71, 64
1, 258858, Control_c, 0, 64, 0
1, 258860, Note_on_c, 0, 80, 95
1, 258866, Note_off_c, 0, 41, 64
1, 258926, Note_on_c, 0, 40, 106
1, 258926, Note_on_c, 0, 52, 106
1, 258930, Note_on_c, 0, 71, 89
1, 258936, Note_on_c, 0, 74, 92
1, 258964, Note_off_c, 0, 80, 64
1, 258992, Note_off_c, 0, 74, 64
1, 259012, Control_c, 0, 64, 127
1, 259016, Note_off_c, 0, 71, 64
1, 259024, Note_on_c, 0, 80, 96
1, 259076, Note_off_c, 0, 80, 64
1, 259079, Note_on_c, 0, 74, 92
1, 259082, Note_on_c, 0, 71, 86
1, 259130, Note_off_c, 0, 40, 64
1, 259136, Note_off_c, 0, 74, 64
1, 259136, Note_off_c, 0, 71, 64
1, 259146, Note_off_c, 0, 52, 64
1, 259156, Note_on_c, 0, 80, 86
1, 259210, Note_on_c, 0, 71, 80
1, 259218, Note_on_c, 0, 74, 90
1, 259222, Note_on_c, 0, 53, 101
1, 259228, Note_on_c, 0, 41, 98
1, 259254, Note_off_c, 0, 80, 64
1, 259288, Control_c, 0, 64, 0
1, 259294, Note_off_c, 0, 74, 64
1, 259296, Note_off_c, 0, 71, 64
1, 259310, Note_on_c, 0, 80, 100
1, 259380, Note_on_c, 0, 74, 92
1, 259382, Note_on_c, 0, 71, 78
1, 259410, Note_off_c, 0, 80, 64
1, 259412, Control_c, 0, 64, 127
1, 259422, Note_off_c, 0, 53, 64
1, 259466, Note_off_c, 0, 41, 64
1, 259472, Note_off_c, 0, 71, 64
1, 259474, Note_off_c, 0, 74, 64
1, 259476, Note_on_c, 0, 80, 95
1, 259504, Control_c, 0, 64, 0
1, 259538, Note_on_c, 0, 40, 108
1, 259538, Note_on_c, 0, 52, 106
1, 259541, Note_on_c, 0, 74, 108
1, 259546, Note_on_c, 0, 71, 84
1, 259594, Note_off_c, 0, 74, 64
1, 259598, Note_off_c, 0, 80, 64
1, 259628, Note_off_c, 0, 71, 64
1, 259690, Note_on_c, 0, 74, 96
1, 259692, Note_on_c, 0, 71, 100
1, 259728, Note_off_c, 0, 71, 64
1, 259731, Note_off_c, 0, 74, 64
1, 259870, Note_on_c, 0, 83, 105
1, 259870, Note_on_c, 0, 80, 108
1, 259910, Note_off_c, 0, 40, 64
1, 259920, Note_off_c, 0, 52, 64
1, 260022, Note_on_c, 0, 53, 97
1, 260026, Note_on_c, 0, 41, 95
1, 260040, Control_c, 0, 64, 127
1, 260092, Note_off_c, 0, 53, 64
1, 260104, Note_off_c, 0, 41, 64
1, 260196, Control_c, 0, 64, 0
1, 260199, Note_off_c, 0, 80, 64
1, 260210, Note_on_c, 0, 52, 111
1, 260218, Note_on_c, 0, 40, 108
1, 260268, Note_off_c, 0, 83, 64
1, 260380, Note_on_c, 0, 80, 106
1, 260384, Note_on_c, 0, 74, 104
1, 260422, Note_off_c, 0, 74, 64
1, 260468, Note_off_c, 0, 80, 64
1, 260556, Note_on_c, 0, 86, 113
1, 260564, Note_on_c, 0, 83, 103
1, 260616, Note_off_c, 0, 40, 64
1, 260626, Note_off_c, 0, 52, 64
1, 260710, Note_on_c, 0, 53, 99
1, 260713, Note_on_c, 0, 41, 92
1, 260758, Note_off_c, 0, 53, 64
1, 260766, Note_off_c, 0, 41, 64
1, 260906, Note_on_c, 0, 52, 108
1, 260906, Note_on_c, 0, 40, 101
1, 261020, Note_off_c, 0, 83, 64
1, 261056, Note_off_c, 0, 86, 64
1, 261074, Note_on_c, 0, 81, 92
1, 261074, Note_on_c, 0, 84, 98
1, 261114, Note_off_c, 0, 84, 64
1, 261117, Note_off_c, 0, 81, 64
1, 261234, Note_on_c, 0, 83, 92
1, 261234, Note_on_c, 0, 80, 97
1, 261292, Note_off_c, 0, 80, 64
1, 261328, Note_off_c, 0, 83, 64
1, 261334, Note_off_c, 0, 52, 64
1, 261338, Note_off_c, 0, 40, 64
1, 261396, Note_on_c, 0, 81, 101
1, 261400, Note_on_c, 0, 77, 100
1, 261444, Note_off_c, 0, 77, 64
1, 261508, Note_off_c, 0, 81, 64
1, 261560, Note_on_c, 0, 80, 96
1, 261564, Note_on_c, 0, 76, 97
1, 261616, Note_off_c, 0, 80, 64
1, 261619, Note_off_c, 0, 76, 64
1, 261728, Note_on_c, 0, 74, 97
1, 261728, Note_on_c, 0, 77, 93
1, 261766, Note_off_c, 0, 74, 64
1, 261780, Note_off_c, 0, 77, 64
1, 261892, Note_on_c, 0, 72, 95
1, 261896, Note_on_c, 0, 76, 97
1, 261928, Note_off_c, 0, 76, 64
1, 261936, Note_off_c, 0, 72, 64
1, 262052, Note_on_c, 0, 71, 87
1, 262054, Note_on_c, 0, 74, 97
1, 262088, Note_off_c, 0, 71, 64
1, 262110, Note_off_c, 0, 74, 64
1, 262242, Note_on_c, 0, 57, 56
1, 262245, Note_on_c, 0, 45, 58
1, 262248, Note_on_c, 0, 72, 93
1, 262248, Note_on_c, 0, 69, 83
1, 262310, Note_off_c, 0, 72, 64
1, 262422, Note_on_c, 0, 74, 80
1, 262442, Note_off_c, 0, 69, 64
1, 262468, Note_on_c, 0, 72, 94
1, 262471, Note_off_c, 0, 74, 64
1, 262512, Note_off_c, 0, 72, 64
1, 262524, Note_on_c, 0, 71, 68
1, 262572, Note_off_c, 0, 71, 64
1, 262590, Note_on_c, 0, 72, 98
1, 262660, Note_off_c, 0, 72, 64
1, 262772, Note_on_c, 0, 74, 93
1, 262812, Note_off_c, 0, 74, 64
1, 262840, Note_off_c, 0, 57, 64
1, 262872, Note_off_c, 0, 45, 64
1, 262978, Note_on_c, 0, 76, 85
1, 263334, Note_off_c, 0, 76, 64
1, 263562, Note_on_c, 0, 69, 61
1, 263562, Note_on_c, 0, 64, 44
1, 263570, Note_on_c, 0, 60, 43
1, 263606, Note_off_c, 0, 69, 64
1, 263612, Note_off_c, 0, 64, 64
1, 263626, Note_off_c, 0, 60, 64
1, 263658, Note_on_c, 0, 65, 76
1, 263661, Note_on_c, 0, 62, 55
1, 263664, Note_on_c, 0, 70, 91
1, 263916, Note_on_c, 0, 68, 67
1, 263936, Note_off_c, 0, 70, 64
1, 263982, Note_off_c, 0, 68, 64
1, 264000, Note_off_c, 0, 62, 64
1, 264006, Note_on_c, 0, 69, 89
1, 264018, Note_on_c, 0, 60, 61
1, 264022, Note_off_c, 0, 65, 64
1, 264024, Note_on_c, 0, 64, 67
1, 264068, Note_off_c, 0, 69, 64
1, 264248, Note_on_c, 0, 69, 84
1, 264312, Note_off_c, 0, 69, 64
1, 264316, Note_off_c, 0, 60, 64
1, 264334, Note_off_c, 0, 64, 64
1, 264344, Note_on_c, 0, 70, 88
1, 264362, Note_on_c, 0, 65, 72
1, 264374, Note_on_c, 0, 62, 50
1, 264586, Note_on_c, 0, 68, 62
1, 264618, Note_off_c, 0, 70, 64
1, 264664, Note_off_c, 0, 62, 64
1, 264664, Note_off_c, 0, 68, 64
1, 264692, Note_off_c, 0, 65, 64
1, 264694, Note_on_c, 0, 69, 87
1, 264714, Note_on_c, 0, 64, 69
1, 264718, Note_on_c, 0, 60, 59
1, 264734, Note_off_c, 0, 69, 64
1, 264752, Note_off_c, 0, 64, 64
1, 264768, Note_off_c, 0, 60, 64
1, 264942, Note_on_c, 0, 69, 67
1, 264984, Note_off_c, 0, 69, 64
1, 265056, Note_on_c, 0, 68, 72
1, 265067, Note_on_c, 0, 64, 59
1, 265072, Note_on_c, 0, 74, 78
1, 265076, Note_on_c, 0, 59, 46
1, 265128, Note_off_c, 0, 64, 64
1, 265160, Note_off_c, 0, 68, 64
1, 265168, Note_off_c, 0, 59, 64
1, 265188, Note_off_c, 0, 74, 64
1, 265492, Note_on_c, 0, 72, 50
1, 265522, Note_on_c, 0, 57, 27
1, 265522, Note_on_c, 0, 64, 34
1, 265525, Note_on_c, 0, 69, 32
1, 265596, Note_off_c, 0, 69, 64
1, 265618, Note_off_c, 0, 64, 64
1, 265660, Note_off_c, 0, 72, 64
1, 265710, Note_off_c, 0, 57, 64
1, 266912, Note_on_c, 0, 38, 105
1, 266914, Note_on_c, 0, 50, 109
1, 267692, Control_c, 0, 64, 127
1, 267792, Note_off_c, 0, 50, 64
1, 267850, Note_off_c, 0, 38, 64
1, 267954, Note_on_c, 0, 51, 103
1, 267957, Note_on_c, 0, 39, 100
1, 268000, Control_c, 0, 64, 0
1, 268196, Note_off_c, 0, 51, 64
1, 268214, Control_c, 0, 64, 127
1, 268224, Note_off_c, 0, 39, 64
1, 268328, Note_on_c, 0, 38, 110
1, 268330, Note_on_c, 0, 50, 109
1, 268554, Control_c, 0, 64, 0
1, 269136, Control_c, 0, 64, 127
1, 269264, Note_off_c, 0, 50, 64
1, 269384, Note_off_c, 0, 38, 64
1, 269418, Note_on_c, 0, 39, 92
1, 269420, Note_on_c, 0, 51, 102
1, 269460, Control_c, 0, 64, 0
1, 269630, Control_c, 0, 64, 127
1, 269696, Note_off_c, 0, 51, 64
1, 269746, Note_off_c, 0, 39, 64
1, 269756, Note_on_c, 0, 50, 108
1, 269759, Note_on_c, 0, 72, 103
1, 269759, Note_on_c, 0, 38, 105
1, 269759, Note_on_c, 0, 69, 100
1, 269768, Control_c, 0, 64, 0
1, 269816, Note_off_c, 0, 72, 64
1, 269826, Note_off_c, 0, 69, 64
1, 269840, Note_on_c, 0, 78, 87
1, 269904, Note_off_c, 0, 78, 64
1, 269906, Note_on_c, 0, 69, 86
1, 269912, Note_on_c, 0, 72, 84
1, 269967, Note_off_c, 0, 72, 64
1, 269992, Note_off_c, 0, 69, 64
1, 269998, Note_on_c, 0, 78, 67
1, 270028, Control_c, 0, 64, 127
1, 270048, Note_off_c, 0, 78, 64
1, 270066, Note_on_c, 0, 72, 64
1, 270072, Note_on_c, 0, 69, 86
1, 270132, Note_off_c, 0, 72, 64
1, 270132, Note_off_c, 0, 69, 64
1, 270152, Note_on_c, 0, 78, 64
1, 270214, Note_off_c, 0, 78, 64
1, 270228, Note_on_c, 0, 69, 71
1, 270240, Note_on_c, 0, 72, 64
1, 270288, Note_off_c, 0, 72, 64
1, 270296, Note_off_c, 0, 69, 64
1, 270304, Control_c, 0, 64, 0
1, 270316, Note_on_c, 0, 78, 62
1, 270380, Note_off_c, 0, 78, 64
1, 270384, Note_on_c, 0, 69, 77
1, 270396, Note_on_c, 0, 72, 60
1, 270446, Note_off_c, 0, 72, 64
1, 270460, Note_off_c, 0, 69, 64
1, 270478, Note_on_c, 0, 78, 56
1, 270490, Control_c, 0, 64, 127
1, 270536, Note_off_c, 0, 78, 64
1, 270539, Note_off_c, 0, 50, 64
1, 270552, Note_on_c, 0, 69, 59
1, 270555, Note_on_c, 0, 72, 55
1, 270604, Note_off_c, 0, 69, 64
1, 270607, Note_off_c, 0, 72, 64
1, 270628, Note_on_c, 0, 78, 51
1, 270642, Control_c, 0, 64, 0
1, 270696, Note_off_c, 0, 38, 64
1, 270696, Note_off_c, 0, 78, 64
1, 270704, Note_on_c, 0, 51, 90
1, 270710, Note_on_c, 0, 39, 79
1, 270712, Note_on_c, 0, 72, 58
1, 270712, Note_on_c, 0, 69, 57
1, 270770, Note_off_c, 0, 72, 64
1, 270790, Note_off_c, 0, 69, 64
1, 270804, Note_on_c, 0, 78, 56
1, 270812, Control_c, 0, 64, 127
1, 270866, Note_off_c, 0, 78, 64
1, 270882, Note_on_c, 0, 72, 50
1, 270884, Note_on_c, 0, 69, 67
1, 270938, Note_off_c, 0, 72, 64
1, 270938, Note_off_c, 0, 69, 64
1, 270964, Note_on_c, 0, 78, 50
1, 270964, Control_c, 0, 64, 0
1, 270970, Note_off_c, 0, 51, 64
1, 271036, Note_off_c, 0, 39, 64
1, 271039, Note_off_c, 0, 78, 64
1, 271042, Note_on_c, 0, 69, 66
1, 271044, Note_on_c, 0, 72, 66
1, 271044, Note_on_c, 0, 50, 97
1, 271050, Note_on_c, 0, 38, 90
1, 271102, Note_off_c, 0, 72, 64
1, 271114, Note_off_c, 0, 69, 64
1, 271124, Note_on_c, 0, 78, 64
1, 271150, Control_c, 0, 64, 127
1, 271204, Note_on_c, 0, 69, 69
1, 271207, Note_off_c, 0, 78, 64
1, 271207, Note_on_c, 0, 72, 66
1, 271268, Note_off_c, 0, 72, 64
1, 271270, Note_off_c, 0, 50, 64
1, 271286, Note_off_c, 0, 69, 64
1, 271292, Note_on_c, 0, 78, 65
1, 271364, Note_on_c, 0, 51, 100
1, 271370, Note_on_c, 0, 69, 80
1, 271376, Note_on_c, 0, 72, 73
1, 271376, Note_on_c, 0, 39, 88
1, 271386, Note_off_c, 0, 78, 64
1, 271396, Note_off_c, 0, 38, 64
1, 271448, Note_off_c, 0, 72, 64
1, 271460, Note_off_c, 0, 69, 64
1, 271462, Note_on_c, 0, 78, 76
1, 271538, Note_on_c, 0, 69, 83
1, 271540, Note_on_c, 0, 72, 76
1, 271548, Note_off_c, 0, 78, 64
1, 271604, Note_off_c, 0, 72, 64
1, 271620, Note_off_c, 0, 69, 64
1, 271626, Note_on_c, 0, 78, 79
1, 271642, Control_c, 0, 64, 0
1, 271676, Note_off_c, 0, 51, 64
1, 271694, Note_on_c, 0, 50, 105
1, 271698, Note_on_c, 0, 38, 103
1, 271702, Note_on_c, 0, 69, 85
1, 271704, Note_on_c, 0, 72, 88
1, 271724, Note_off_c, 0, 78, 64
1, 271732, Note_off_c, 0, 39, 64
1, 271764, Control_c, 0, 64, 127
1, 271780, Note_off_c, 0, 69, 64
1, 271784, Note_off_c, 0, 72, 64
1, 271790, Note_on_c, 0, 78, 86
1, 271842, Control_c, 0, 64, 0
1, 271862, Note_on_c, 0, 69, 88
1, 271864, Note_on_c, 0, 72, 92
1, 271892, Note_off_c, 0, 78, 64
1, 271900, Note_off_c, 0, 50, 64
1, 271944, Note_off_c, 0, 72, 64
1, 271946, Note_off_c, 0, 69, 64
1, 271952, Note_on_c, 0, 78, 90
1, 271964, Control_c, 0, 64, 127
1, 272002, Note_on_c, 0, 51, 100
1, 272014, Note_on_c, 0, 39, 87
1, 272018, Note_on_c, 0, 69, 95
1, 272020, Note_on_c, 0, 72, 97
1, 272032, Note_off_c, 0, 38, 64
1, 272046, Note_off_c, 0, 78, 64
1, 272088, Note_off_c, 0, 72, 64
1, 272088, Control_c, 0, 64, 0
1, 272091, Note_off_c, 0, 69, 64
1, 272106, Note_on_c, 0, 78, 95
1, 272148, Control_c, 0, 64, 127
1, 272170, Note_on_c, 0, 69, 89
1, 272176, Note_on_c, 0, 72, 90
1, 272212, Note_off_c, 0, 78, 64
1, 272244, Note_off_c, 0, 72, 64
1, 272262, Note_off_c, 0, 69, 64
1, 272272, Note_on_c, 0, 78, 100
1, 272284, Note_off_c, 0, 51, 64
1, 272286, Control_c, 0, 64, 0
1, 272326, Note_on_c, 0, 50, 105
1, 272326, Note_on_c, 0, 38, 101
1, 272330, Note_on_c, 0, 72, 101
1, 272334, Note_off_c, 0, 39, 64
1, 272334, Note_on_c, 0, 69, 97
1, 272364, Note_off_c, 0, 78, 64
1, 272425, Note_off_c, 0, 69, 64
1, 272434, Note_off_c, 0, 72, 64
1, 272492, Note_on_c, 0, 72, 110
1, 272494, Note_on_c, 0, 69, 98
1, 272558, Note_off_c, 0, 69, 64
1, 272586, Note_off_c, 0, 72, 64
1, 272680, Note_on_c, 0, 78, 103
1, 272682, Note_on_c, 0, 81, 113
1, 272712, Note_off_c, 0, 50, 64
1, 272804, Note_off_c, 0, 38, 64
1, 272808, Control_c, 0, 64, 127
1, 272842, Note_on_c, 0, 51, 96
1, 272847, Note_on_c, 0, 39, 85
1, 272984, Note_off_c, 0, 51, 64
1, 272992, Note_off_c, 0, 78, 64
1, 273028, Note_on_c, 0, 50, 108
1, 273028, Note_on_c, 0, 38, 103
1, 273038, Note_off_c, 0, 81, 64
1, 273041, Note_off_c, 0, 39, 64
1, 273102, Control_c, 0, 64, 0
1, 273196, Note_on_c, 0, 78, 97
1, 273202, Note_on_c, 0, 72, 105
1, 273248, Note_off_c, 0, 72, 64
1, 273286, Note_off_c, 0, 78, 64
1, 273380, Note_on_c, 0, 84, 113
1, 273383, Note_on_c, 0, 81, 110
1, 273450, Note_off_c, 0, 50, 64
1, 273474, Note_off_c, 0, 38, 64
1, 273548, Note_on_c, 0, 51, 100
1, 273560, Note_on_c, 0, 39, 85
1, 273592, Control_c, 0, 64, 127
1, 273648, Note_off_c, 0, 51, 64
1, 273674, Note_off_c, 0, 39, 64
1, 273734, Note_on_c, 0, 50, 97
1, 273740, Note_on_c, 0, 38, 95
1, 273762, Control_c, 0, 64, 0
1, 273782, Note_off_c, 0, 81, 64
1, 273848, Note_off_c, 0, 84, 64
1, 273890, Note_on_c, 0, 82, 100
1, 273894, Note_on_c, 0, 79, 94
1, 273940, Note_off_c, 0, 79, 64
1, 273958, Note_off_c, 0, 82, 64
1, 274030, Note_off_c, 0, 50, 64
1, 274050, Note_off_c, 0, 38, 64
1, 274053, Note_on_c, 0, 81, 100
1, 274056, Note_on_c, 0, 78, 92
1, 274106, Note_off_c, 0, 78, 64
1, 274134, Note_off_c, 0, 81, 64
1, 274216, Note_on_c, 0, 75, 90
1, 274216, Note_on_c, 0, 79, 99
1, 274260, Note_off_c, 0, 75, 64
1, 274296, Note_off_c, 0, 79, 64
1, 274384, Note_on_c, 0, 78, 90
1, 274394, Note_on_c, 0, 74, 93
1, 274440, Note_off_c, 0, 74, 64
1, 274464, Note_off_c, 0, 78, 64
1, 274556, Note_on_c, 0, 72, 91
1, 274556, Note_on_c, 0, 75, 83
1, 274592, Note_off_c, 0, 75, 64
1, 274610, Note_off_c, 0, 72, 64
1, 274712, Note_on_c, 0, 70, 91
1, 274714, Note_on_c, 0, 74, 88
1, 274756, Note_off_c, 0, 70, 64
1, 274762, Note_off_c, 0, 74, 64
1, 274874, Note_on_c, 0, 72, 89
1, 274876, Note_on_c, 0, 69, 85
1, 274916, Note_off_c, 0, 69, 64
1, 274918, Note_off_c, 0, 72, 64
1, 275042, Note_on_c, 0, 70, 94
1, 275046, Note_on_c, 0, 67, 86
1, 275046, Note_on_c, 0, 55, 49
1, 275064, Note_on_c, 0, 43, 37
1, 275136, Note_off_c, 0, 70, 64
1, 275206, Note_on_c, 0, 72, 81
1, 275240, Note_off_c, 0, 67, 64
1, 275244, Note_on_c, 0, 70, 80
1, 275252, Note_off_c, 0, 72, 64
1, 275306, Note_off_c, 0, 70, 64
1, 275306, Note_on_c, 0, 69, 77
1, 275372, Note_on_c, 0, 70, 93
1, 275404, Note_off_c, 0, 69, 64
1, 275446, Note_off_c, 0, 70, 64
1, 275554, Note_on_c, 0, 72, 78
1, 275594, Note_off_c, 0, 72, 64
1, 275596, Note_off_c, 0, 55, 64
1, 275688, Note_off_c, 0, 43, 64
1, 275778, Note_on_c, 0, 74, 66
1, 275954, Note_off_c, 0, 74, 64
1, 276364, Note_on_c, 0, 67, 62
1, 276366, Note_on_c, 0, 58, 52
1, 276392, Note_on_c, 0, 62, 26
1, 276428, Note_off_c, 0, 67, 64
1, 276436, Note_off_c, 0, 58, 64
1, 276462, Note_off_c, 0, 62, 64
1, 276476, Note_on_c, 0, 68, 62
1, 276488, Note_on_c, 0, 63, 56
1, 276490, Note_on_c, 0, 60, 52
1, 276754, Note_on_c, 0, 66, 66
1, 276800, Note_off_c, 0, 68, 64
1, 276816, Note_off_c, 0, 66, 64
1, 276842, Note_off_c, 0, 63, 64
1, 276846, Note_off_c, 0, 60, 64
1, 276858, Note_on_c, 0, 58, 59
1, 276858, Note_on_c, 0, 67, 58
1, 276884, Note_on_c, 0, 62, 35
1, 276918, Note_off_c, 0, 67, 64
1, 277102, Note_on_c, 0, 67, 81
1, 277164, Note_off_c, 0, 67, 64
1, 277188, Note_off_c, 0, 58, 64
1, 277194, Note_on_c, 0, 68, 84
1, 277214, Note_on_c, 0, 63, 67
1, 277222, Note_off_c, 0, 62, 64
1, 277222, Note_on_c, 0, 60, 63
1, 277442, Note_on_c, 0, 66, 74
1, 277504, Note_off_c, 0, 68, 64
1, 277538, Note_off_c, 0, 60, 64
1, 277554, Note_off_c, 0, 63, 64
1, 277554, Note_on_c, 0, 67, 93
1, 277574, Note_on_c, 0, 58, 66
1, 277574, Note_on_c, 0, 62, 63
1, 277590, Note_off_c, 0, 66, 64
1, 277646, Note_off_c, 0, 67, 64
1, 277674, Note_off_c, 0, 62, 64
1, 277780, Note_off_c, 0, 58, 64
1, 277790, Note_on_c, 0, 67, 91
1, 277830, Note_off_c, 0, 67, 64
1, 277898, Note_on_c, 0, 72, 102
1, 277902, Note_on_c, 0, 66, 80
1, 277918, Note_on_c, 0, 62, 70
1, 277924, Note_on_c, 0, 57, 72
1, 278042, Note_off_c, 0, 62, 64
1, 278052, Note_off_c, 0, 57, 64
1, 278060, Note_off_c, 0, 66, 64
1, 278070, Note_off_c, 0, 72, 64
1, 278298, Note_on_c, 0, 70, 75
1, 278318, Note_on_c, 0, 67, 57
1, 278326, Note_on_c, 0, 55, 45
1, 278334, Note_on_c, 0, 62, 33
1, 278394, Note_off_c, 0, 67, 64
1, 278504, Note_off_c, 0, 55, 64
1, 278504, Note_off_c, 0, 62, 64
1, 278524, Note_off_c, 0, 70, 64
1, 279226, Note_on_c, 0, 67, 72
1, 279276, Note_off_c, 0, 67, 64
1, 279360, Note_on_c, 0, 64, 80
1, 279362, Note_on_c, 0, 60, 64
1, 279366, Note_on_c, 0, 58, 69
1, 279370, Note_on_c, 0, 74, 89
1, 279524, Note_off_c, 0, 64, 64
1, 279526, Note_off_c, 0, 60, 64
1, 279530, Note_off_c, 0, 58, 64
1, 279566, Note_off_c, 0, 74, 64
1, 279788, Note_on_c, 0, 72, 73
1, 279791, Note_on_c, 0, 60, 41
1, 279800, Note_on_c, 0, 65, 61
1, 279816, Note_on_c, 0, 57, 46
1, 279994, Note_off_c, 0, 60, 64
1, 280046, Note_off_c, 0, 57, 64
1, 280062, Note_off_c, 0, 65, 64
1, 280062, Control_c, 0, 64, 127
1, 280096, Note_off_c, 0, 72, 64
1, 280108, Control_c, 0, 64, 0
1, 280942, Note_on_c, 0, 72, 100
1, 280986, Note_off_c, 0, 72, 64
1, 281098, Note_on_c, 0, 77, 115
1, 281100, Note_on_c, 0, 71, 93
1, 281102, Note_on_c, 0, 62, 105
1, 281104, Note_on_c, 0, 50, 102
1, 281106, Note_on_c, 0, 65, 104
1, 281230, Control_c, 0, 64, 127
1, 281306, Note_off_c, 0, 62, 64
1, 281314, Note_off_c, 0, 50, 64
1, 281320, Note_off_c, 0, 65, 64
1, 281356, Note_off_c, 0, 77, 64
1, 281362, Note_off_c, 0, 71, 64
1, 281444, Control_c, 0, 64, 0
1, 281668, Note_on_c, 0, 76, 112
1, 281670, Note_on_c, 0, 67, 105
1, 281670, Note_on_c, 0, 72, 107
1, 281682, Note_on_c, 0, 60, 105
1, 281682, Note_on_c, 0, 48, 106
1, 281838, Note_off_c, 0, 60, 64
1, 281860, Control_c, 0, 64, 127
1, 281880, Note_off_c, 0, 67, 64
1, 281880, Note_off_c, 0, 48, 64
1, 281912, Note_off_c, 0, 72, 64
1, 281964, Note_off_c, 0, 76, 64
1, 282104, Control_c, 0, 64, 0
1, 282950, Control_c, 0, 64, 127
1, 283670, Note_on_c, 0, 53, 16
1, 283898, Note_off_c, 0, 53, 64
1, 283944, Note_on_c, 0, 57, 35
1, 284034, Note_off_c, 0, 57, 64
1, 284154, Note_on_c, 0, 60, 38
1, 284266, Note_off_c, 0, 60, 64
1, 284374, Note_on_c, 0, 57, 36
1, 284442, Note_off_c, 0, 57, 64
1, 284590, Note_on_c, 0, 53, 32
1, 284682, Note_off_c, 0, 53, 64
1, 284750, Note_on_c, 0, 57, 32
1, 284822, Note_off_c, 0, 57, 64
1, 284942, Note_on_c, 0, 60, 49
1, 285026, Note_off_c, 0, 60, 64
1, 285128, Note_on_c, 0, 57, 42
1, 285222, Note_off_c, 0, 57, 64
1, 285342, Note_on_c, 0, 52, 50
1, 285408, Control_c, 0, 64, 0
1, 285542, Note_on_c, 0, 58, 66
1, 285702, Note_off_c, 0, 58, 64
1, 285716, Control_c, 0, 64, 127
1, 285740, Note_on_c, 0, 60, 54
1, 285806, Note_off_c, 0, 52, 64
1, 285898, Note_off_c, 0, 60, 64
1, 285934, Note_on_c, 0, 58, 61
1, 286004, Note_off_c, 0, 58, 64
1, 286154, Note_on_c, 0, 52, 39
1, 286310, Note_off_c, 0, 52, 64
1, 286338, Note_on_c, 0, 58, 50
1, 286414, Note_off_c, 0, 58, 64
1, 286516, Note_on_c, 0, 60, 44
1, 286628, Note_off_c, 0, 60, 64
1, 286712, Note_on_c, 0, 58, 59
1, 286812, Note_off_c, 0, 58, 64
1, 286926, Note_on_c, 0, 72, 88
1, 286960, Note_on_c, 0, 53, 35
1, 286976, Control_c, 0, 64, 0
1, 287168, Note_on_c, 0, 57, 44
1, 287344, Note_off_c, 0, 57, 64
1, 287344, Control_c, 0, 64, 127
1, 287362, Note_on_c, 0, 60, 45
1, 287428, Note_off_c, 0, 53, 64
1, 287556, Note_off_c, 0, 60, 64
1, 287580, Note_on_c, 0, 57, 38
1, 287654, Note_off_c, 0, 57, 64
1, 287790, Note_on_c, 0, 53, 39
1, 287862, Note_off_c, 0, 72, 64
1, 287938, Note_on_c, 0, 74, 64
1, 288030, Note_off_c, 0, 74, 64
1, 288030, Note_on_c, 0, 72, 75
1, 288052, Note_on_c, 0, 57, 28
1, 288084, Note_off_c, 0, 72, 64
1, 288118, Note_on_c, 0, 71, 69
1, 288140, Note_off_c, 0, 57, 64
1, 288238, Note_on_c, 0, 72, 93
1, 288241, Note_on_c, 0, 60, 41
1, 288256, Note_off_c, 0, 71, 64
1, 288312, Control_c, 0, 64, 0
1, 288432, Note_on_c, 0, 74, 85
1, 288460, Note_on_c, 0, 57, 44
1, 288472, Note_off_c, 0, 72, 64
1, 288486, Note_off_c, 0, 60, 64
1, 288526, Control_c, 0, 64, 127
1, 288660, Note_off_c, 0, 57, 64
1, 288676, Note_on_c, 0, 65, 74
1, 288692, Note_off_c, 0, 53, 64
1, 288695, Control_c, 0, 64, 0
1, 288708, Note_on_c, 0, 55, 31
1, 288804, Note_off_c, 0, 74, 64
1, 288896, Note_on_c, 0, 58, 55
1, 289074, Note_off_c, 0, 58, 64
1, 289080, Control_c, 0, 64, 127
1, 289094, Note_off_c, 0, 55, 64
1, 289112, Note_on_c, 0, 60, 41
1, 289310, Note_off_c, 0, 60, 64
1, 289310, Note_on_c, 0, 58, 52
1, 289424, Note_off_c, 0, 58, 64
1, 289480, Control_c, 0, 64, 0
1, 289524, Note_on_c, 0, 64, 51
1, 289554, Note_on_c, 0, 55, 34
1, 289556, Note_off_c, 0, 65, 64
1, 289736, Note_on_c, 0, 58, 56
1, 289834, Control_c, 0, 64, 127
1, 289837, Note_off_c, 0, 58, 64
1, 289912, Note_off_c, 0, 64, 64
1, 289930, Note_on_c, 0, 60, 47
1, 290086, Note_off_c, 0, 60, 64
1, 290130, Note_on_c, 0, 58, 58
1, 290258, Note_off_c, 0, 55, 64
1, 290294, Note_off_c, 0, 58, 64
1, 290358, Note_on_c, 0, 53, 32
1, 290494, Control_c, 0, 64, 0
1, 290544, Note_on_c, 0, 65, 63
1, 290596, Note_on_c, 0, 57, 45
1, 290688, Note_off_c, 0, 57, 64
1, 290740, Control_c, 0, 64, 127
1, 290758, Note_on_c, 0, 69, 75
1, 290774, Note_off_c, 0, 65, 64
1, 290798, Note_on_c, 0, 60, 41
1, 290832, Note_off_c, 0, 53, 64
1, 290892, Note_off_c, 0, 69, 64
1, 290946, Note_on_c, 0, 72, 100
1, 290960, Note_off_c, 0, 60, 64
1, 290982, Note_off_c, 0, 72, 64
1, 291002, Note_on_c, 0, 57, 35
1, 291078, Note_off_c, 0, 57, 64
1, 291152, Note_on_c, 0, 77, 98
1, 291158, Note_on_c, 0, 53, 52
1, 291292, Control_c, 0, 64, 0
1, 291358, Note_on_c, 0, 81, 98
1, 291376, Note_off_c, 0, 77, 64
1, 291394, Note_on_c, 0, 57, 57
1, 291508, Control_c, 0, 64, 127
1, 291510, Note_off_c, 0, 57, 64
1, 291534, Note_off_c, 0, 81, 64
1, 291544, Note_on_c, 0, 84, 103
1, 291584, Note_on_c, 0, 60, 50
1, 291628, Note_off_c, 0, 84, 64
1, 291736, Note_on_c, 0, 84, 95
1, 291746, Note_off_c, 0, 60, 64
1, 291794, Note_on_c, 0, 57, 36
1, 291820, Note_off_c, 0, 84, 64
1, 291900, Note_off_c, 0, 53, 64
1, 291922, Note_off_c, 0, 57, 64
1, 291942, Note_on_c, 0, 83, 79
1, 292044, Note_on_c, 0, 84, 87
1, 292052, Note_on_c, 0, 52, 31
1, 292056, Note_off_c, 0, 83, 64
1, 292146, Note_off_c, 0, 84, 64
1, 292154, Note_on_c, 0, 86, 68
1, 292262, Note_on_c, 0, 84, 64
1, 292276, Note_off_c, 0, 86, 64
1, 292308, Control_c, 0, 64, 0
1, 292384, Note_on_c, 0, 55, 29
1, 292588, Note_off_c, 0, 55, 64
1, 292598, Control_c, 0, 64, 127
1, 292632, Note_on_c, 0, 60, 35
1, 292800, Note_off_c, 0, 60, 64
1, 292810, Note_off_c, 0, 52, 64
1, 292838, Note_on_c, 0, 82, 62
1, 292864, Note_off_c, 0, 84, 64
1, 292914, Note_on_c, 0, 55, 24
1, 292946, Note_off_c, 0, 82, 64
1, 292972, Note_on_c, 0, 81, 50
1, 293008, Note_off_c, 0, 55, 64
1, 293082, Note_off_c, 0, 81, 64
1, 293104, Note_on_c, 0, 79, 59
1, 293120, Note_on_c, 0, 52, 34
1, 293122, Control_c, 0, 64, 0
1, 293334, Note_on_c, 0, 58, 45
1, 293352, Control_c, 0, 64, 127
1, 293396, Note_off_c, 0, 79, 64
1, 293450, Note_off_c, 0, 52, 64
1, 293454, Note_off_c, 0, 58, 64
1, 293544, Note_on_c, 0, 60, 28
1, 293676, Note_off_c, 0, 60, 64
1, 293776, Note_on_c, 0, 58, 43
1, 293854, Note_off_c, 0, 58, 64
1, 294068, Note_on_c, 0, 72, 71
1, 294114, Note_on_c, 0, 53, 34
1, 294120, Control_c, 0, 64, 0
1, 294360, Note_on_c, 0, 56, 41
1, 294566, Note_off_c, 0, 56, 64
1, 294590, Note_on_c, 0, 60, 40
1, 294612, Control_c, 0, 64, 127
1, 294686, Note_off_c, 0, 53, 64
1, 294768, Note_off_c, 0, 60, 64
1, 294818, Note_on_c, 0, 56, 33
1, 294914, Note_off_c, 0, 56, 64
1, 295020, Note_on_c, 0, 53, 34
1, 295070, Note_off_c, 0, 72, 64
1, 295192, Note_on_c, 0, 73, 50
1, 295252, Note_on_c, 0, 56, 39
1, 295262, Note_off_c, 0, 73, 64
1, 295288, Note_on_c, 0, 72, 36
1, 295350, Note_off_c, 0, 72, 64
1, 295352, Note_on_c, 0, 71, 43
1, 295426, Note_off_c, 0, 71, 64
1, 295426, Control_c, 0, 64, 0
1, 295434, Note_on_c, 0, 72, 64
1, 295480, Note_off_c, 0, 56, 64
1, 295502, Note_on_c, 0, 60, 39
1, 295610, Control_c, 0, 64, 127
1, 295680, Note_on_c, 0, 73, 60
1, 295696, Note_off_c, 0, 60, 64
1, 295700, Note_off_c, 0, 72, 64
1, 295732, Note_on_c, 0, 56, 42
1, 295800, Note_off_c, 0, 56, 64
1, 295972, Note_on_c, 0, 65, 67
1, 295980, Note_off_c, 0, 53, 64
1, 295980, Control_c, 0, 64, 0
1, 296026, Note_on_c, 0, 55, 24
1, 296152, Note_off_c, 0, 73, 64
1, 296212, Note_on_c, 0, 58, 49
1, 296308, Note_off_c, 0, 58, 64
1, 296348, Control_c, 0, 64, 127
1, 296418, Note_on_c, 0, 60, 38
1, 296460, Note_off_c, 0, 55, 64
1, 296612, Note_off_c, 0, 60, 64
1, 296644, Note_on_c, 0, 58, 38
1, 296784, Note_off_c, 0, 58, 64
1, 296866, Note_on_c, 0, 64, 47
1, 296884, Note_off_c, 0, 65, 64
1, 296896, Note_on_c, 0, 55, 22
1, 296948, Control_c, 0, 64, 0
1, 297092, Note_on_c, 0, 58, 52
1, 297162, Control_c, 0, 64, 127
1, 297218, Note_off_c, 0, 58, 64
1, 297222, Note_off_c, 0, 64, 64
1, 297292, Note_on_c, 0, 60, 38
1, 297464, Note_off_c, 0, 60, 64
1, 297478, Note_on_c, 0, 58, 61
1, 297564, Note_off_c, 0, 58, 64
1, 297594, Note_off_c, 0, 55, 64
1, 297696, Note_on_c, 0, 53, 52
1, 297854, Control_c, 0, 64, 0
1, 297884, Note_on_c, 0, 65, 80
1, 297908, Note_on_c, 0, 56, 43
1, 298066, Note_off_c, 0, 56, 64
1, 298070, Note_on_c, 0, 68, 83
1, 298092, Note_on_c, 0, 60, 55
1, 298130, Note_off_c, 0, 65, 64
1, 298130, Control_c, 0, 64, 127
1, 298184, Note_off_c, 0, 53, 64
1, 298240, Note_off_c, 0, 68, 64
1, 298276, Note_on_c, 0, 72, 101
1, 298288, Note_off_c, 0, 60, 64
1, 298294, Note_on_c, 0, 56, 52
1, 298320, Note_off_c, 0, 72, 64
1, 298374, Note_off_c, 0, 56, 64
1, 298476, Note_on_c, 0, 77, 102
1, 298520, Note_on_c, 0, 53, 48
1, 298592, Control_c, 0, 64, 0
1, 298666, Note_on_c, 0, 80, 94
1, 298696, Note_on_c, 0, 56, 50
1, 298744, Note_off_c, 0, 77, 64
1, 298814, Note_off_c, 0, 56, 64
1, 298822, Control_c, 0, 64, 127
1, 298866, Note_off_c, 0, 80, 64
1, 298866, Note_on_c, 0, 84, 102
1, 298904, Note_on_c, 0, 60, 46
1, 298952, Note_off_c, 0, 84, 64
1, 299066, Note_off_c, 0, 60, 64
1, 299088, Note_on_c, 0, 84, 97
1, 299114, Note_on_c, 0, 56, 46
1, 299224, Note_off_c, 0, 84, 64
1, 299254, Note_off_c, 0, 53, 64
1, 299322, Note_off_c, 0, 56, 64
1, 299384, Note_on_c, 0, 51, 46
1, 299394, Note_on_c, 0, 84, 95
1, 299420, Control_c, 0, 64, 0
1, 299634, Note_on_c, 0, 54, 39
1, 299740, Note_off_c, 0, 54, 64
1, 299790, Control_c, 0, 64, 127
1, 299818, Note_on_c, 0, 56, 45
1, 299958, Note_off_c, 0, 51, 64
1, 300004, Note_off_c, 0, 56, 64
1, 300046, Note_on_c, 0, 54, 37
1, 300208, Note_off_c, 0, 54, 64
1, 300242, Note_off_c, 0, 84, 64
1, 300248, Note_on_c, 0, 51, 43
1, 300428, Note_on_c, 0, 80, 79
1, 300478, Note_on_c, 0, 54, 31
1, 300532, Note_off_c, 0, 80, 64
1, 300576, Note_off_c, 0, 54, 64
1, 300620, Note_on_c, 0, 82, 95
1, 300642, Note_on_c, 0, 56, 44
1, 300730, Note_off_c, 0, 82, 64
1, 300796, Note_off_c, 0, 56, 64
1, 300808, Note_on_c, 0, 84, 98
1, 300828, Note_on_c, 0, 54, 49
1, 300898, Note_off_c, 0, 84, 64
1, 300948, Note_off_c, 0, 54, 64
1, 301014, Note_off_c, 0, 51, 64
1, 301026, Note_on_c, 0, 85, 82
1, 301034, Note_on_c, 0, 49, 48
1, 301034, Control_c, 0, 64, 0
1, 301256, Note_on_c, 0, 53, 43
1, 301296, Control_c, 0, 64, 127
1, 301352, Note_off_c, 0, 53, 64
1, 301438, Note_on_c, 0, 56, 46
1, 301508, Note_off_c, 0, 49, 64
1, 301588, Note_off_c, 0, 56, 64
1, 301614, Note_off_c, 0, 85, 64
1, 301662, Note_on_c, 0, 53, 41
1, 301738, Note_off_c, 0, 53, 64
1, 301830, Note_on_c, 0, 49, 55
1, 302012, Note_off_c, 0, 49, 64
1, 302012, Note_on_c, 0, 80, 85
1, 302046, Note_on_c, 0, 53, 38
1, 302114, Note_off_c, 0, 53, 64
1, 302120, Note_off_c, 0, 80, 64
1, 302202, Note_on_c, 0, 84, 102
1, 302205, Note_on_c, 0, 56, 54
1, 302300, Note_off_c, 0, 84, 64
1, 302358, Note_off_c, 0, 56, 64
1, 302390, Note_on_c, 0, 85, 100
1, 302402, Note_on_c, 0, 53, 62
1, 302514, Note_off_c, 0, 85, 64
1, 302534, Note_off_c, 0, 53, 64
1, 302602, Note_on_c, 0, 87, 92
1, 302604, Note_on_c, 0, 48, 61
1, 302694, Control_c, 0, 64, 0
1, 302790, Note_on_c, 0, 51, 58
1, 302954, Control_c, 0, 64, 127
1, 302956, Note_off_c, 0, 51, 64
1, 302962, Note_on_c, 0, 56, 59
1, 303028, Note_off_c, 0, 87, 64
1, 303068, Note_off_c, 0, 48, 64
1, 303164, Note_off_c, 0, 56, 64
1, 303182, Note_on_c, 0, 51, 62
1, 303360, Note_off_c, 0, 51, 64
1, 303396, Note_on_c, 0, 48, 73
1, 303564, Note_on_c, 0, 80, 88
1, 303588, Note_on_c, 0, 54, 61
1, 303682, Note_off_c, 0, 80, 64
1, 303690, Note_off_c, 0, 54, 64
1, 303746, Note_on_c, 0, 56, 66
1, 303749, Note_on_c, 0, 85, 97
1, 303866, Note_off_c, 0, 85, 64
1, 303924, Note_on_c, 0, 87, 101
1, 303932, Note_off_c, 0, 56, 64
1, 303940, Note_on_c, 0, 54, 67
1, 304062, Note_off_c, 0, 54, 64
1, 304126, Note_on_c, 0, 89, 104
1, 304128, Note_on_c, 0, 49, 69
1, 304144, Note_off_c, 0, 87, 64
1, 304152, Note_off_c, 0, 48, 64
1, 304200, Control_c, 0, 64, 0
1, 304342, Note_on_c, 0, 53, 60
1, 304476, Control_c, 0, 64, 127
1, 304480, Note_off_c, 0, 53, 64
1, 304508, Note_on_c, 0, 56, 62
1, 304574, Note_off_c, 0, 89, 64
1, 304790, Note_off_c, 0, 56, 64
1, 304802, Note_on_c, 0, 89, 97
1, 304812, Note_on_c, 0, 53, 53
1, 304988, Note_off_c, 0, 53, 64
1, 305010, Note_off_c, 0, 49, 64
1, 305034, Note_on_c, 0, 87, 80
1, 305040, Note_on_c, 0, 47, 44
1, 305112, Note_off_c, 0, 89, 64
1, 305136, Control_c, 0, 64, 0
1, 305272, Note_on_c, 0, 53, 52
1, 305354, Note_off_c, 0, 53, 64
1, 305398, Control_c, 0, 64, 127
1, 305418, Note_off_c, 0, 87, 64
1, 305418, Note_on_c, 0, 56, 54
1, 305596, Note_on_c, 0, 87, 80
1, 305604, Note_off_c, 0, 56, 64
1, 305658, Note_on_c, 0, 53, 38
1, 305668, Note_off_c, 0, 47, 64
1, 305746, Note_off_c, 0, 53, 64
1, 305820, Note_on_c, 0, 46, 68
1, 305828, Control_c, 0, 64, 0
1, 305840, Note_on_c, 0, 86, 71
1, 305912, Note_off_c, 0, 87, 64
1, 306054, Note_on_c, 0, 53, 53
1, 306126, Note_off_c, 0, 53, 64
1, 306212, Note_on_c, 0, 56, 56
1, 306212, Control_c, 0, 64, 127
1, 306224, Note_off_c, 0, 86, 64
1, 306312, Note_off_c, 0, 46, 64
1, 306408, Note_off_c, 0, 56, 64
1, 306432, Note_on_c, 0, 53, 58
1, 306506, Note_off_c, 0, 53, 64
1, 306630, Note_on_c, 0, 46, 78
1, 306802, Note_on_c, 0, 82, 104
1, 306856, Note_on_c, 0, 53, 48
1, 306886, Note_off_c, 0, 46, 64
1, 306934, Note_off_c, 0, 53, 64
1, 307002, Note_on_c, 0, 84, 108
1, 307008, Note_on_c, 0, 56, 64
1, 307070, Note_off_c, 0, 82, 64
1, 307166, Note_off_c, 0, 56, 64
1, 307190, Note_on_c, 0, 86, 107
1, 307218, Note_on_c, 0, 53, 61
1, 307272, Note_off_c, 0, 84, 64
1, 307382, Note_off_c, 0, 53, 64
1, 307382, Note_on_c, 0, 87, 95
1, 307390, Note_on_c, 0, 46, 83
1, 307434, Note_off_c, 0, 86, 64
1, 307456, Control_c, 0, 64, 0
1, 307592, Note_on_c, 0, 51, 58
1, 307594, Note_on_c, 0, 78, 80
1, 307664, Note_off_c, 0, 87, 64
1, 307718, Control_c, 0, 64, 127
1, 307768, Note_on_c, 0, 54, 59
1, 307774, Note_off_c, 0, 51, 64
1, 307780, Note_off_c, 0, 78, 64
1, 307938, Note_on_c, 0, 78, 94
1, 307956, Note_off_c, 0, 54, 64
1, 307974, Note_on_c, 0, 51, 61
1, 308146, Note_on_c, 0, 85, 95
1, 308158, Note_on_c, 0, 45, 85
1, 308176, Note_off_c, 0, 51, 64
1, 308178, Note_off_c, 0, 46, 64
1, 308182, Note_off_c, 0, 78, 64
1, 308256, Control_c, 0, 64, 0
1, 308382, Note_on_c, 0, 78, 79
1, 308414, Note_on_c, 0, 51, 63
1, 308424, Note_off_c, 0, 85, 64
1, 308502, Control_c, 0, 64, 127
1, 308538, Note_off_c, 0, 51, 64
1, 308588, Note_off_c, 0, 78, 64
1, 308594, Note_on_c, 0, 54, 59
1, 308748, Note_on_c, 0, 78, 88
1, 308751, Note_off_c, 0, 54, 64
1, 308814, Note_on_c, 0, 51, 53
1, 308888, Note_off_c, 0, 51, 64
1, 308966, Note_off_c, 0, 45, 64
1, 308974, Note_on_c, 0, 44, 54
1, 308978, Note_on_c, 0, 84, 91
1, 308994, Control_c, 0, 64, 0
1, 308996, Note_off_c, 0, 78, 64
1, 309236, Note_on_c, 0, 51, 51
1, 309236, Note_on_c, 0, 78, 73
1, 309282, Note_off_c, 0, 84, 64
1, 309330, Control_c, 0, 64, 127
1, 309378, Note_off_c, 0, 51, 64
1, 309416, Note_on_c, 0, 54, 53
1, 309444, Note_off_c, 0, 78, 64
1, 309468, Note_off_c, 0, 44, 64
1, 309600, Note_off_c, 0, 54, 64
1, 309618, Note_on_c, 0, 51, 64
1, 309800, Note_off_c, 0, 51, 64
1, 309802, Note_on_c, 0, 44, 67
1, 309990, Note_on_c, 0, 80, 95
1, 309996, Note_on_c, 0, 51, 65
1, 310122, Note_off_c, 0, 51, 64
1, 310186, Note_on_c, 0, 54, 68
1, 310190, Note_on_c, 0, 82, 111
1, 310252, Note_off_c, 0, 44, 64
1, 310258, Note_off_c, 0, 80, 64
1, 310368, Note_on_c, 0, 84, 108
1, 310394, Note_on_c, 0, 51, 70
1, 310420, Note_off_c, 0, 82, 64
1, 310434, Note_off_c, 0, 54, 64
1, 310544, Note_off_c, 0, 51, 64
1, 310556, Note_on_c, 0, 85, 100
1, 310556, Note_on_c, 0, 44, 76
1, 310566, Note_off_c, 0, 84, 64
1, 310576, Control_c, 0, 64, 0
1, 310740, Note_on_c, 0, 76, 103
1, 310754, Note_off_c, 0, 85, 64
1, 310760, Note_on_c, 0, 49, 73
1, 310790, Control_c, 0, 64, 127
1, 310834, Note_off_c, 0, 76, 64
1, 310918, Note_on_c, 0, 78, 86
1, 310922, Note_off_c, 0, 49, 64
1, 310948, Note_on_c, 0, 52, 65
1, 310980, Note_off_c, 0, 78, 64
1, 310996, Note_on_c, 0, 76, 78
1, 311048, Note_off_c, 0, 76, 64
1, 311064, Note_on_c, 0, 78, 88
1, 311138, Note_on_c, 0, 76, 87
1, 311162, Note_off_c, 0, 78, 64
1, 311180, Note_on_c, 0, 49, 58
1, 311204, Note_on_c, 0, 75, 83
1, 311206, Note_off_c, 0, 76, 64
1, 311266, Note_off_c, 0, 52, 64
1, 311274, Note_on_c, 0, 76, 107
1, 311276, Note_off_c, 0, 44, 64
1, 311302, Note_off_c, 0, 75, 64
1, 311382, Note_on_c, 0, 83, 96
1, 311385, Note_on_c, 0, 43, 83
1, 311392, Note_off_c, 0, 49, 64
1, 311406, Control_c, 0, 64, 0
1, 311416, Note_off_c, 0, 76, 64
1, 311578, Note_on_c, 0, 76, 102
1, 311594, Note_on_c, 0, 49, 81
1, 311616, Note_off_c, 0, 83, 64
1, 311636, Control_c, 0, 64, 127
1, 311668, Note_off_c, 0, 76, 64
1, 311742, Note_off_c, 0, 49, 64
1, 311752, Note_on_c, 0, 78, 90
1, 311784, Note_on_c, 0, 52, 77
1, 311828, Note_off_c, 0, 78, 64
1, 311828, Note_on_c, 0, 76, 82
1, 311876, Note_off_c, 0, 76, 64
1, 311900, Note_on_c, 0, 78, 83
1, 311974, Note_on_c, 0, 76, 92
1, 311978, Note_off_c, 0, 52, 64
1, 312010, Note_off_c, 0, 78, 64
1, 312024, Note_on_c, 0, 49, 82
1, 312046, Note_off_c, 0, 76, 64
1, 312048, Note_on_c, 0, 75, 83
1, 312094, Note_off_c, 0, 43, 64
1, 312132, Note_on_c, 0, 76, 103
1, 312150, Note_off_c, 0, 49, 64
1, 312162, Note_off_c, 0, 75, 64
1, 312230, Note_on_c, 0, 54, 95
1, 312240, Note_on_c, 0, 42, 90
1, 312250, Note_off_c, 0, 76, 64
1, 312328, Control_c, 0, 64, 0
1, 312370, Note_on_c, 0, 73, 92
1, 312498, Note_on_c, 0, 76, 100
1, 312536, Note_off_c, 0, 73, 64
1, 312636, Control_c, 0, 64, 127
1, 312652, Note_on_c, 0, 82, 107
1, 312670, Note_off_c, 0, 76, 64
1, 312808, Note_on_c, 0, 76, 93
1, 312928, Note_on_c, 0, 73, 92
1, 312944, Note_off_c, 0, 76, 64
1, 313024, Note_off_c, 0, 82, 64
1, 313038, Note_off_c, 0, 73, 64
1, 313136, Note_on_c, 0, 83, 90
1, 313204, Control_c, 0, 64, 0
1, 313280, Note_on_c, 0, 74, 84
1, 313410, Note_off_c, 0, 83, 64
1, 313418, Control_c, 0, 64, 127
1, 313428, Note_on_c, 0, 71, 71
1, 313480, Note_off_c, 0, 74, 64
1, 313498, Note_off_c, 0, 54, 64
1, 313536, Note_off_c, 0, 42, 64
1, 313536, Note_off_c, 0, 71, 64
1, 313556, Note_on_c, 0, 53, 88
1, 313558, Note_on_c, 0, 41, 87
1, 313570, Note_on_c, 0, 81, 101
1, 313618, Control_c, 0, 64, 0
1, 313718, Note_on_c, 0, 74, 89
1, 313834, Control_c, 0, 64, 127
1, 313848, Note_on_c, 0, 71, 81
1, 313866, Note_off_c, 0, 81, 64
1, 313882, Note_off_c, 0, 53, 64
1, 313888, Note_off_c, 0, 74, 64
1, 313898, Note_off_c, 0, 41, 64
1, 313956, Note_off_c, 0, 71, 64
1, 313982, Note_on_c, 0, 52, 104
1, 313982, Note_on_c, 0, 40, 105
1, 314048, Control_c, 0, 64, 0
1, 314130, Note_on_c, 0, 71, 84
1, 314264, Note_on_c, 0, 74, 100
1, 314294, Control_c, 0, 64, 127
1, 314322, Note_off_c, 0, 71, 64
1, 314406, Note_on_c, 0, 80, 103
1, 314408, Note_off_c, 0, 74, 64
1, 314418, Control_c, 0, 64, 0
1, 314564, Note_on_c, 0, 74, 100
1, 314632, Control_c, 0, 64, 127
1, 314680, Note_on_c, 0, 71, 90
1, 314718, Note_off_c, 0, 80, 64
1, 314726, Note_off_c, 0, 74, 64
1, 314802, Note_off_c, 0, 71, 64
1, 314870, Note_on_c, 0, 81, 102
1, 314924, Control_c, 0, 64, 0
1, 315028, Note_on_c, 0, 72, 80
1, 315118, Note_off_c, 0, 81, 64
1, 315154, Control_c, 0, 64, 127
1, 315159, Note_off_c, 0, 52, 64
1, 315164, Note_on_c, 0, 69, 68
1, 315208, Note_off_c, 0, 72, 64
1, 315262, Note_off_c, 0, 40, 64
1, 315286, Note_off_c, 0, 69, 64
1, 315288, Note_on_c, 0, 51, 101
1, 315292, Note_on_c, 0, 39, 92
1, 315306, Note_on_c, 0, 79, 98
1, 315354, Control_c, 0, 64, 0
1, 315440, Note_on_c, 0, 72, 92
1, 315524, Control_c, 0, 64, 127
1, 315556, Note_on_c, 0, 69, 85
1, 315584, Note_off_c, 0, 79, 64
1, 315626, Note_off_c, 0, 72, 64
1, 315632, Note_off_c, 0, 51, 64
1, 315664, Note_off_c, 0, 69, 64
1, 315684, Note_off_c, 0, 39, 64
1, 315706, Note_on_c, 0, 50, 100
1, 315706, Note_on_c, 0, 38, 99
1, 315768, Control_c, 0, 64, 0
1, 315846, Note_on_c, 0, 69, 93
1, 315980, Note_on_c, 0, 72, 100
1, 316016, Note_off_c, 0, 69, 64
1, 316016, Control_c, 0, 64, 127
1, 316130, Note_off_c, 0, 72, 64
1, 316140, Note_on_c, 0, 78, 99
1, 316168, Control_c, 0, 64, 0
1, 316290, Note_on_c, 0, 72, 92
1, 316400, Control_c, 0, 64, 127
1, 316414, Note_on_c, 0, 69, 90
1, 316440, Note_off_c, 0, 72, 64
1, 316516, Note_off_c, 0, 78, 64
1, 316534, Note_off_c, 0, 69, 64
1, 316630, Note_on_c, 0, 79, 97
1, 316692, Control_c, 0, 64, 0
1, 316776, Note_on_c, 0, 70, 81
1, 316868, Note_off_c, 0, 50, 64
1, 316890, Control_c, 0, 64, 127
1, 316902, Note_off_c, 0, 79, 64
1, 316910, Note_on_c, 0, 67, 75
1, 316956, Note_off_c, 0, 70, 64
1, 317028, Note_on_c, 0, 49, 79
1, 317030, Note_on_c, 0, 37, 81
1, 317036, Note_off_c, 0, 67, 64
1, 317040, Note_off_c, 0, 38, 64
1, 317040, Note_on_c, 0, 77, 100
1, 317044, Control_c, 0, 64, 0
1, 317178, Note_on_c, 0, 70, 76
1, 317244, Control_c, 0, 64, 127
1, 317280, Note_off_c, 0, 77, 64
1, 317290, Note_on_c, 0, 67, 81
1, 317340, Note_off_c, 0, 70, 64
1, 317352, Note_off_c, 0, 49, 64
1, 317382, Note_off_c, 0, 37, 64
1, 317412, Note_off_c, 0, 67, 64
1, 317438, Note_on_c, 0, 36, 97
1, 317438, Note_on_c, 0, 48, 96
1, 317438, Note_on_c, 0, 76, 103
1, 317444, Control_c, 0, 64, 0
1, 317576, Note_on_c, 0, 70, 85
1, 317674, Control_c, 0, 64, 127
1, 317700, Note_on_c, 0, 67, 77
1, 317732, Note_off_c, 0, 76, 64
1, 317752, Note_off_c, 0, 70, 64
1, 317816, Note_off_c, 0, 67, 64
1, 317844, Control_c, 0, 64, 0
1, 317847, Note_on_c, 0, 77, 100
1, 317992, Note_on_c, 0, 69, 74
1, 318044, Control_c, 0, 64, 127
1, 318050, Note_off_c, 0, 77, 64
1, 318092, Note_on_c, 0, 65, 79
1, 318130, Note_off_c, 0, 48, 64
1, 318142, Note_off_c, 0, 69, 64
1, 318146, Note_off_c, 0, 36, 64
1, 318208, Note_off_c, 0, 65, 64
1, 318232, Note_on_c, 0, 47, 85
1, 318235, Note_on_c, 0, 35, 86
1, 318240, Note_on_c, 0, 75, 97
1, 318320, Control_c, 0, 64, 0
1, 318390, Note_on_c, 0, 69, 84
1, 318506, Note_on_c, 0, 66, 81
1, 318534, Control_c, 0, 64, 127
1, 318570, Note_off_c, 0, 69, 64
1, 318588, Note_off_c, 0, 75, 64
1, 318614, Note_off_c, 0, 66, 64
1, 318650, Note_on_c, 0, 76, 107
1, 318672, Control_c, 0, 64, 0
1, 318786, Note_on_c, 0, 67, 88
1, 318798, Note_off_c, 0, 76, 64
1, 318874, Control_c, 0, 64, 127
1, 318888, Note_on_c, 0, 64, 92
1, 318934, Note_off_c, 0, 47, 64
1, 318940, Note_off_c, 0, 35, 64
1, 318958, Note_off_c, 0, 67, 64
1, 319010, Note_on_c, 0, 73, 100
1, 319012, Note_on_c, 0, 33, 107
1, 319014, Note_on_c, 0, 45, 106
1, 319022, Note_off_c, 0, 64, 64
1, 319058, Control_c, 0, 64, 0
1, 319160, Note_on_c, 0, 67, 89
1, 319272, Control_c, 0, 64, 127
1, 319282, Note_on_c, 0, 64, 85
1, 319318, Note_off_c, 0, 67, 64
1, 319342, Note_off_c, 0, 73, 64
1, 319380, Note_off_c, 0, 64, 64
1, 319420, Note_on_c, 0, 74, 106
1, 319442, Control_c, 0, 64, 0
1, 319554, Note_on_c, 0, 65, 91
1, 319594, Note_off_c, 0, 74, 64
1, 319626, Control_c, 0, 64, 127
1, 319660, Note_on_c, 0, 62, 84
1, 319686, Note_off_c, 0, 45, 64
1, 319712, Note_off_c, 0, 33, 64
1, 319746, Note_off_c, 0, 65, 64
1, 319788, Note_on_c, 0, 31, 107
1, 319788, Note_on_c, 0, 71, 93
1, 319790, Note_on_c, 0, 43, 101
1, 319818, Note_off_c, 0, 62, 64
1, 319856, Control_c, 0, 64, 0
1, 319908, Note_on_c, 0, 65, 90
1, 320024, Note_on_c, 0, 62, 89
1, 320040, Control_c, 0, 64, 127
1, 320074, Note_off_c, 0, 71, 64
1, 320096, Note_off_c, 0, 65, 64
1, 320172, Note_on_c, 0, 72, 106
1, 320210, Note_off_c, 0, 62, 64
1, 320210, Control_c, 0, 64, 0
1, 320312, Note_on_c, 0, 64, 98
1, 320388, Note_off_c, 0, 72, 64
1, 320394, Control_c, 0, 64, 127
1, 320434, Note_on_c, 0, 60, 97
1, 320474, Note_off_c, 0, 43, 64
1, 320516, Note_off_c, 0, 31, 64
1, 320524, Note_off_c, 0, 64, 64
1, 320536, Note_off_c, 0, 60, 64
1, 320662, Note_on_c, 0, 42, 108
1, 320666, Note_on_c, 0, 30, 108
1, 320916, Note_on_c, 0, 84, 113
1, 320962, Control_c, 0, 64, 0
1, 321238, Note_on_c, 0, 87, 109
1, 321270, Control_c, 0, 64, 127
1, 321284, Note_off_c, 0, 84, 64
1, 321356, Note_off_c, 0, 87, 64
1, 321470, Note_on_c, 0, 81, 113
1, 321684, Note_off_c, 0, 81, 64
1, 321686, Note_on_c, 0, 84, 110
1, 321772, Note_off_c, 0, 84, 64
1, 321888, Note_on_c, 0, 78, 100
1, 322080, Note_on_c, 0, 81, 107
1, 322114, Note_off_c, 0, 78, 64
1, 322186, Note_off_c, 0, 81, 64
1, 322260, Note_on_c, 0, 75, 98
1, 322468, Note_on_c, 0, 78, 102
1, 322492, Note_off_c, 0, 75, 64
1, 322660, Note_off_c, 0, 78, 64
1, 322686, Note_on_c, 0, 72, 101
1, 322820, Note_off_c, 0, 72, 64
1, 322892, Note_on_c, 0, 75, 95
1, 322976, Note_off_c, 0, 75, 64
1, 323076, Note_on_c, 0, 69, 100
1, 323174, Note_off_c, 0, 69, 64
1, 323274, Note_on_c, 0, 72, 100
1, 323360, Note_off_c, 0, 72, 64
1, 323462, Note_on_c, 0, 66, 90
1, 323638, Note_off_c, 0, 66, 64
1, 323642, Note_on_c, 0, 69, 98
1, 323722, Note_off_c, 0, 69, 64
1, 323810, Note_on_c, 0, 63, 86
1, 323950, Note_off_c, 0, 63, 64
1, 324008, Note_on_c, 0, 66, 95
1, 324128, Control_c, 0, 64, 0
1, 324164, Note_on_c, 0, 60, 90
1, 324196, Note_off_c, 0, 66, 64
1, 324278, Note_off_c, 0, 60, 64
1, 324294, Note_on_c, 0, 63, 88
1, 324358, Control_c, 0, 64, 127
1, 324400, Note_off_c, 0, 63, 64
1, 324414, Note_on_c, 0, 57, 95
1, 324478, Note_off_c, 0, 42, 64
1, 324502, Note_off_c, 0, 30, 64
1, 324520, Note_off_c, 0, 57, 64
1, 324538, Note_on_c, 0, 60, 92
1, 324646, Note_on_c, 0, 54, 91
1, 324670, Note_off_c, 0, 60, 64
1, 324742, Control_c, 0, 64, 0
1, 324780, Note_on_c, 0, 57, 98
1, 324806, Note_off_c, 0, 54, 64
1, 324892, Note_on_c, 0, 51, 95
1, 324928, Note_off_c, 0, 57, 64
1, 325022, Note_on_c, 0, 54, 88
1, 325060, Note_off_c, 0, 51, 64
1, 325152, Note_on_c, 0, 48, 95
1, 325194, Note_off_c, 0, 54, 64
1, 325260, Note_off_c, 0, 48, 64
1, 325262, Note_on_c, 0, 51, 92
1, 325342, Control_c, 0, 64, 127
1, 325390, Note_on_c, 0, 45, 103
1, 325394, Note_off_c, 0, 51, 64
1, 325510, Control_c, 0, 64, 0
1, 325524, Note_on_c, 0, 48, 103
1, 325544, Note_off_c, 0, 45, 64
1, 325696, Control_c, 0, 64, 127
1, 325730, Note_on_c, 0, 42, 95
1, 325766, Note_off_c, 0, 48, 64
1, 325940, Note_on_c, 0, 45, 105
1, 325972, Control_c, 0, 64, 0
1, 326010, Note_off_c, 0, 42, 64
1, 326164, Note_on_c, 0, 39, 99
1, 326190, Note_off_c, 0, 45, 64
1, 326202, Control_c, 0, 64, 127
1, 326386, Control_c, 0, 64, 0
1, 326408, Note_on_c, 0, 42, 100
1, 326482, Note_off_c, 0, 39, 64
1, 326618, Control_c, 0, 64, 127
1, 326682, Note_on_c, 0, 36, 105
1, 326704, Note_off_c, 0, 42, 64
1, 326754, Control_c, 0, 64, 0
1, 326924, Control_c, 0, 64, 127
1, 327010, Note_on_c, 0, 39, 103
1, 327032, Control_c, 0, 64, 0
1, 327078, Note_off_c, 0, 36, 64
1, 327216, Control_c, 0, 64, 127
1, 327378, Note_on_c, 0, 34, 114
1, 327496, Note_off_c, 0, 39, 64
1, 328042, Note_on_c, 0, 33, 106
1, 328045, Note_on_c, 0, 29, 110
1, 328148, Note_off_c, 0, 34, 64
1, 328246, Control_c, 0, 64, 0
1, 328938, Control_c, 0, 64, 127
1, 329898, Note_on_c, 0, 36, 92
1, 329974, Note_off_c, 0, 33, 64
1, 330174, Note_on_c, 0, 39, 85
1, 330200, Note_off_c, 0, 36, 64
1, 330370, Note_on_c, 0, 41, 94
1, 330390, Note_off_c, 0, 39, 64
1, 330538, Note_on_c, 0, 45, 103
1, 330564, Note_off_c, 0, 41, 64
1, 330704, Note_on_c, 0, 48, 97
1, 330714, Note_off_c, 0, 45, 64
1, 330844, Note_on_c, 0, 51, 88
1, 330866, Note_off_c, 0, 48, 64
1, 330952, Note_off_c, 0, 51, 64
1, 330962, Note_on_c, 0, 53, 92
1, 331070, Note_on_c, 0, 57, 97
1, 331073, Note_off_c, 0, 29, 64
1, 331088, Note_off_c, 0, 53, 64
1, 331176, Note_on_c, 0, 60, 94
1, 331180, Note_off_c, 0, 57, 64
1, 331270, Note_on_c, 0, 63, 91
1, 331288, Note_off_c, 0, 60, 64
1, 331362, Note_off_c, 0, 63, 64
1, 331372, Note_on_c, 0, 65, 101
1, 331456, Note_on_c, 0, 69, 100
1, 331466, Note_off_c, 0, 65, 64
1, 331548, Note_on_c, 0, 72, 101
1, 331564, Note_off_c, 0, 69, 64
1, 331638, Note_on_c, 0, 75, 95
1, 331666, Note_off_c, 0, 72, 64
1, 331704, Note_off_c, 0, 75, 64
1, 331742, Note_on_c, 0, 77, 103
1, 331858, Note_on_c, 0, 81, 96
1, 331962, Note_on_c, 0, 84, 90
1, 332060, Note_on_c, 0, 87, 104
1, 332064, Note_on_c, 0, 63, 86
1, 332080, Note_on_c, 0, 53, 75
1, 332082, Note_on_c, 0, 60, 79
1, 332088, Note_on_c, 0, 57, 75
1, 332182, Note_off_c, 0, 81, 64
1, 332210, Control_c, 0, 64, 0
1, 332218, Note_off_c, 0, 77, 64
1, 332240, Note_off_c, 0, 84, 64
1, 332808, Control_c, 0, 64, 127
1, 333638, Note_on_c, 0, 86, 72
1, 333862, Note_off_c, 0, 87, 64
1, 333868, Note_on_c, 0, 84, 83
1, 333928, Note_off_c, 0, 86, 64
1, 334032, Note_on_c, 0, 82, 97
1, 334072, Note_off_c, 0, 84, 64
1, 334202, Note_off_c, 0, 82, 64
1, 334207, Note_on_c, 0, 81, 92
1, 334336, Note_on_c, 0, 79, 94
1, 334354, Note_off_c, 0, 81, 64
1, 334444, Note_on_c, 0, 77, 95
1, 334456, Note_off_c, 0, 79, 64
1, 334536, Note_off_c, 0, 77, 64
1, 334548, Note_on_c, 0, 76, 93
1, 334656, Note_on_c, 0, 75, 87
1, 334680, Note_off_c, 0, 76, 64
1, 334762, Note_on_c, 0, 74, 91
1, 334794, Note_off_c, 0, 57, 64
1, 334804, Note_off_c, 0, 75, 64
1, 334816, Note_off_c, 0, 60, 64
1, 334850, Note_off_c, 0, 53, 64
1, 334850, Note_off_c, 0, 74, 64
1, 334856, Note_on_c, 0, 72, 95
1, 334874, Note_off_c, 0, 63, 64
1, 334962, Note_on_c, 0, 70, 101
1, 334986, Note_off_c, 0, 72, 64
1, 335068, Note_on_c, 0, 69, 95
1, 335136, Note_off_c, 0, 70, 64
1, 335174, Note_on_c, 0, 67, 97
1, 335222, Note_off_c, 0, 69, 64
1, 335270, Note_on_c, 0, 65, 95
1, 335273, Note_off_c, 0, 67, 64
1, 335374, Note_on_c, 0, 64, 103
1, 335386, Note_off_c, 0, 65, 64
1, 335402, Note_off_c, 0, 64, 64
1, 335532, Note_on_c, 0, 75, 102
1, 335534, Note_on_c, 0, 63, 98
1, 335546, Note_on_c, 0, 48, 75
1, 335548, Note_on_c, 0, 41, 62
1, 335550, Note_on_c, 0, 45, 65
1, 335682, Control_c, 0, 64, 0
1, 336436, Control_c, 0, 64, 127
1, 336576, Note_off_c, 0, 41, 64
1, 336594, Note_off_c, 0, 45, 64
1, 336640, Note_off_c, 0, 48, 64
1, 336898, Note_off_c, 0, 75, 64
1, 336928, Note_on_c, 0, 74, 77
1, 336942, Note_on_c, 0, 62, 54
1, 336954, Note_off_c, 0, 63, 64
1, 337046, Note_off_c, 0, 62, 64
1, 337086, Note_on_c, 0, 60, 63
1, 337089, Note_on_c, 0, 72, 78
1, 337106, Note_off_c, 0, 74, 64
1, 337184, Note_off_c, 0, 60, 64
1, 337208, Note_on_c, 0, 70, 85
1, 337220, Note_on_c, 0, 58, 79
1, 337232, Note_off_c, 0, 72, 64
1, 337320, Note_off_c, 0, 58, 64
1, 337348, Note_on_c, 0, 57, 76
1, 337348, Note_on_c, 0, 69, 81
1, 337364, Note_off_c, 0, 70, 64
1, 337454, Note_off_c, 0, 57, 64
1, 337466, Note_off_c, 0, 69, 64
1, 337476, Note_on_c, 0, 55, 80
1, 337482, Note_on_c, 0, 67, 83
1, 337600, Note_on_c, 0, 53, 86
1, 337602, Note_on_c, 0, 65, 91
1, 337616, Note_off_c, 0, 55, 64
1, 337618, Note_off_c, 0, 67, 64
1, 337712, Note_off_c, 0, 53, 64
1, 337724, Note_on_c, 0, 64, 89
1, 337726, Note_on_c, 0, 52, 79
1, 337764, Note_off_c, 0, 65, 64
1, 337844, Note_on_c, 0, 63, 87
1, 337858, Note_on_c, 0, 51, 76
1, 337861, Note_off_c, 0, 64, 64
1, 337872, Note_off_c, 0, 52, 64
1, 337950, Note_off_c, 0, 51, 64
1, 337986, Note_on_c, 0, 62, 87
1, 337989, Note_off_c, 0, 63, 64
1, 337996, Note_on_c, 0, 50, 93
1, 338108, Note_on_c, 0, 60, 94
1, 338130, Note_off_c, 0, 50, 64
1, 338133, Note_off_c, 0, 62, 64
1, 338133, Note_on_c, 0, 48, 92
1, 338258, Note_on_c, 0, 58, 101
1, 338264, Note_on_c, 0, 46, 100
1, 338276, Note_off_c, 0, 48, 64
1, 338294, Note_off_c, 0, 60, 64
1, 338414, Note_on_c, 0, 57, 95
1, 338420, Note_on_c, 0, 45, 93
1, 338422, Note_off_c, 0, 46, 64
1, 338456, Note_off_c, 0, 58, 64
1, 338568, Note_on_c, 0, 55, 97
1, 338578, Note_on_c, 0, 43, 93
1, 338580, Note_off_c, 0, 57, 64
1, 338586, Note_off_c, 0, 45, 64
1, 338742, Note_on_c, 0, 53, 97
1, 338750, Note_on_c, 0, 41, 92
1, 338770, Note_off_c, 0, 43, 64
1, 338782, Note_off_c, 0, 55, 64
1, 338874, Note_off_c, 0, 41, 64
1, 338922, Note_off_c, 0, 53, 64
1, 338946, Note_on_c, 0, 52, 105
1, 338956, Note_on_c, 0, 40, 106
1, 339028, Note_off_c, 0, 40, 64
1, 339350, Note_on_c, 0, 51, 95
1, 339362, Note_on_c, 0, 29, 106
1, 339366, Note_on_c, 0, 33, 79
1, 339366, Note_on_c, 0, 36, 87
1, 339368, Note_on_c, 0, 39, 97
1, 339432, Note_off_c, 0, 52, 64
1, 339446, Control_c, 0, 64, 0
1, 339862, Control_c, 0, 64, 127
1, 341172, Note_on_c, 0, 53, 76
1, 341272, Note_off_c, 0, 51, 64
1, 341472, Note_on_c, 0, 51, 78
1, 341558, Note_off_c, 0, 53, 64
1, 341662, Note_on_c, 0, 50, 84
1, 341708, Note_off_c, 0, 51, 64
1, 341862, Note_on_c, 0, 51, 79
1, 341898, Note_off_c, 0, 50, 64
1, 341904, Control_c, 0, 64, 0
1, 342044, Note_on_c, 0, 52, 84
1, 342070, Note_off_c, 0, 51, 64
1, 342186, Note_on_c, 0, 53, 76
1, 342196, Control_c, 0, 64, 127
1, 342232, Note_off_c, 0, 52, 64
1, 342326, Note_on_c, 0, 54, 70
1, 342348, Note_off_c, 0, 53, 64
1, 342468, Note_off_c, 0, 54, 64
1, 342472, Note_on_c, 0, 55, 73
1, 342582, Note_on_c, 0, 56, 70
1, 342582, Control_c, 0, 64, 0
1, 342598, Note_off_c, 0, 55, 64
1, 342684, Note_on_c, 0, 57, 81
1, 342704, Note_off_c, 0, 56, 64
1, 342790, Note_on_c, 0, 58, 88
1, 342796, Control_c, 0, 64, 127
1, 342814, Note_off_c, 0, 57, 64
1, 342840, Note_off_c, 0, 58, 64
1, 342870, Note_on_c, 0, 59, 69
1, 342936, Note_off_c, 0, 59, 64
1, 342958, Note_on_c, 0, 60, 83
1, 343026, Note_off_c, 0, 60, 64
1, 343038, Note_on_c, 0, 61, 79
1, 343080, Note_off_c, 0, 61, 64
1, 343118, Note_on_c, 0, 62, 71
1, 343160, Note_off_c, 0, 62, 64
1, 343190, Note_on_c, 0, 63, 83
1, 343226, Note_off_c, 0, 63, 64
1, 343270, Note_on_c, 0, 64, 84
1, 343304, Control_c, 0, 64, 0
1, 343334, Note_off_c, 0, 64, 64
1, 343350, Note_on_c, 0, 65, 87
1, 343406, Note_on_c, 0, 66, 71
1, 343408, Note_off_c, 0, 65, 64
1, 343448, Note_off_c, 0, 66, 64
1, 343456, Control_c, 0, 64, 127
1, 343472, Note_on_c, 0, 67, 85
1, 343518, Control_c, 0, 64, 0
1, 343544, Note_off_c, 0, 67, 64
1, 343547, Note_on_c, 0, 68, 78
1, 343630, Note_on_c, 0, 69, 70
1, 343658, Note_off_c, 0, 68, 64
1, 343674, Note_off_c, 0, 69, 64
1, 343674, Note_on_c, 0, 70, 91
1, 343688, Control_c, 0, 64, 127
1, 343718, Note_off_c, 0, 70, 64
1, 343748, Note_on_c, 0, 71, 70
1, 343798, Note_off_c, 0, 71, 64
1, 343830, Note_on_c, 0, 72, 84
1, 343878, Note_off_c, 0, 72, 64
1, 343886, Control_c, 0, 64, 0
1, 343892, Note_on_c, 0, 73, 70
1, 343934, Note_off_c, 0, 73, 64
1, 343970, Note_on_c, 0, 74, 76
1, 343970, Control_c, 0, 64, 127
1, 344008, Note_off_c, 0, 74, 64
1, 344040, Note_on_c, 0, 75, 75
1, 344078, Note_off_c, 0, 75, 64
1, 344088, Control_c, 0, 64, 0
1, 344110, Note_off_c, 0, 39, 64
1, 344116, Note_off_c, 0, 36, 64
1, 344118, Note_off_c, 0, 33, 64
1, 344124, Note_on_c, 0, 76, 78
1, 344164, Control_c, 0, 64, 127
1, 344176, Note_off_c, 0, 76, 64
1, 344202, Note_on_c, 0, 77, 84
1, 344256, Control_c, 0, 64, 0
1, 344266, Note_off_c, 0, 77, 64
1, 344272, Note_on_c, 0, 78, 67
1, 344318, Note_off_c, 0, 78, 64
1, 344342, Note_off_c, 0, 29, 64
1, 344354, Note_on_c, 0, 79, 76
1, 344354, Control_c, 0, 64, 127
1, 344414, Note_off_c, 0, 79, 64
1, 344430, Note_on_c, 0, 80, 75
1, 344520, Note_on_c, 0, 81, 76
1, 344540, Note_off_c, 0, 80, 64
1, 344598, Note_off_c, 0, 81, 64
1, 344604, Note_on_c, 0, 82, 74
1, 344654, Note_off_c, 0, 82, 64
1, 344678, Note_on_c, 0, 83, 57
1, 344778, Note_on_c, 0, 84, 71
1, 344781, Note_off_c, 0, 83, 64
1, 344794, Control_c, 0, 64, 0
1, 344882, Note_on_c, 0, 85, 65
1, 344892, Note_off_c, 0, 84, 64
1, 344992, Note_on_c, 0, 86, 57
1, 345000, Note_off_c, 0, 85, 64
1, 345100, Control_c, 0, 64, 127
1, 345146, Control_c, 0, 64, 0
1, 345212, Note_off_c, 0, 86, 64
1, 345218, Note_on_c, 0, 87, 62
1, 345224, Control_c, 0, 64, 127
1, 345256, Control_c, 0, 64, 0
1, 345653, Control_c, 0, 64, 127
1, 345904, Note_on_c, 0, 84, 54
1, 345994, Note_off_c, 0, 87, 64
1, 346116, Control_c, 0, 64, 0
1, 346284, Control_c, 0, 64, 127
1, 346306, Note_off_c, 0, 84, 64
1, 346420, Note_on_c, 0, 81, 58
1, 346467, Control_c, 0, 64, 0
1, 346638, Control_c, 0, 64, 127
1, 346710, Note_off_c, 0, 81, 64
1, 346936, Note_on_c, 0, 77, 65
1, 347128, Control_c, 0, 64, 0
1, 347360, Control_c, 0, 64, 127
1, 347408, Note_off_c, 0, 77, 64
1, 347646, Note_on_c, 0, 76, 55
1, 347898, Control_c, 0, 64, 0
1, 348818, Control_c, 0, 64, 127
1, 349526, Note_off_c, 0, 76, 64
1, 349806, Note_on_c, 0, 75, 22
1, 349972, Control_c, 0, 64, 0
1, 350248, Control_c, 0, 64, 127
1, 351798, Note_off_c, 0, 75, 64
1, 352726, Note_on_c, 0, 74, 55
1, 352748, Note_on_c, 0, 65, 28
1, 352752, Note_on_c, 0, 58, 34
1, 352756, Note_on_c, 0, 62, 23
1, 353060, Control_c, 0, 64, 0
1, 353382, Control_c, 0, 64, 127
1, 353570, Note_on_c, 0, 72, 41
1, 353592, Note_off_c, 0, 74, 64
1, 353704, Note_on_c, 0, 70, 60
1, 353726, Note_off_c, 0, 72, 64
1, 353840, Note_off_c, 0, 62, 64
1, 353896, Note_on_c, 0, 63, 31
1, 353902, Note_off_c, 0, 70, 64
1, 353904, Note_on_c, 0, 60, 28
1, 353906, Note_on_c, 0, 69, 52
1, 353920, Control_c, 0, 64, 0
1, 353942, Note_off_c, 0, 58, 64
1, 354458, Control_c, 0, 64, 127
1, 354460, Note_off_c, 0, 60, 64
1, 354486, Note_off_c, 0, 65, 64
1, 354536, Note_off_c, 0, 69, 64
1, 354556, Note_off_c, 0, 63, 64
1, 354750, Control_c, 0, 64, 0
1, 355272, Control_c, 0, 64, 127
1, 355712, Note_on_c, 0, 72, 63
1, 355790, Note_off_c, 0, 72, 64
1, 355924, Note_on_c, 0, 75, 75
1, 355948, Note_on_c, 0, 65, 38
1, 355950, Note_on_c, 0, 69, 45
1, 355956, Note_on_c, 0, 60, 34
1, 356026, Control_c, 0, 64, 0
1, 356440, Control_c, 0, 64, 127
1, 356470, Note_off_c, 0, 65, 64
1, 356744, Note_on_c, 0, 74, 37
1, 356788, Note_off_c, 0, 75, 64
1, 356820, Note_off_c, 0, 74, 64
1, 356862, Note_on_c, 0, 72, 41
1, 357018, Note_off_c, 0, 60, 64
1, 357034, Note_off_c, 0, 72, 64
1, 357034, Note_on_c, 0, 70, 57
1, 357038, Note_on_c, 0, 65, 36
1, 357060, Note_on_c, 0, 62, 23
1, 357102, Control_c, 0, 64, 0
1, 357162, Note_off_c, 0, 69, 64
1, 357412, Note_off_c, 0, 65, 64
1, 357436, Note_off_c, 0, 62, 64
1, 357466, Note_off_c, 0, 70, 64
1, 357500, Control_c, 0, 64, 127
1, 357578, Control_c, 0, 64, 0
1, 358130, Note_on_c, 0, 74, 72
1, 358182, Note_off_c, 0, 74, 64
1, 358192, Control_c, 0, 64, 127
1, 358308, Note_on_c, 0, 77, 111
1, 358312, Note_on_c, 0, 65, 95
1, 358312, Note_on_c, 0, 62, 97
1, 358312, Note_on_c, 0, 71, 86
1, 358318, Note_on_c, 0, 50, 92
1, 358500, Control_c, 0, 64, 0
1, 358868, Control_c, 0, 64, 127
1, 358994, Note_off_c, 0, 65, 64
1, 359012, Note_off_c, 0, 71, 64
1, 359148, Note_on_c, 0, 75, 81
1, 359204, Note_off_c, 0, 77, 64
1, 359224, Note_off_c, 0, 62, 64
1, 359224, Note_off_c, 0, 50, 64
1, 359278, Note_on_c, 0, 74, 101
1, 359342, Note_off_c, 0, 75, 64
1, 359374, Control_c, 0, 64, 0
1, 359410, Note_on_c, 0, 72, 115
1, 359413, Note_on_c, 0, 67, 104
1, 359413, Note_on_c, 0, 63, 99
1, 359422, Note_on_c, 0, 51, 97
1, 359462, Note_off_c, 0, 74, 64
1, 359560, Note_off_c, 0, 63, 64
1, 359586, Note_off_c, 0, 67, 64
1, 359594, Note_off_c, 0, 51, 64
1, 359606, Control_c, 0, 64, 127
1, 359654, Note_off_c, 0, 72, 64
1, 359758, Control_c, 0, 64, 0
1, 359970, Note_on_c, 0, 79, 108
1, 359970, Note_on_c, 0, 67, 96
1, 359973, Note_on_c, 0, 74, 100
1, 359978, Note_on_c, 0, 59, 80
1, 359978, Note_on_c, 0, 47, 83
1, 360142, Note_off_c, 0, 47, 64
1, 360142, Control_c, 0, 64, 127
1, 360148, Note_off_c, 0, 59, 64
1, 360178, Note_off_c, 0, 67, 64
1, 360240, Note_off_c, 0, 79, 64
1, 360282, Note_off_c, 0, 74, 64
1, 360450, Control_c, 0, 64, 0
1, 361184, Note_on_c, 0, 77, 64
1, 361188, Note_on_c, 0, 67, 45
1, 361218, Note_on_c, 0, 48, 40
1, 361402, Control_c, 0, 64, 127
1, 361496, Note_on_c, 0, 75, 59
1, 361534, Note_off_c, 0, 77, 64
1, 361580, Note_off_c, 0, 75, 64
1, 361584, Note_off_c, 0, 67, 64
1, 361768, Note_on_c, 0, 50, 40
1, 361780, Note_on_c, 0, 75, 66
1, 361804, Note_on_c, 0, 65, 44
1, 361822, Note_off_c, 0, 48, 64
1, 361848, Control_c, 0, 64, 0
1, 362068, Note_on_c, 0, 74, 80
1, 362080, Control_c, 0, 64, 127
1, 362084, Note_off_c, 0, 65, 64
1, 362094, Note_off_c, 0, 75, 64
1, 362122, Note_off_c, 0, 74, 64
1, 362334, Note_off_c, 0, 50, 64
1, 362350, Note_on_c, 0, 51, 40
1, 362362, Note_on_c, 0, 74, 66
1, 362364, Note_on_c, 0, 63, 36
1, 362402, Control_c, 0, 64, 0
1, 362632, Control_c, 0, 64, 127
1, 362652, Note_off_c, 0, 74, 64
1, 362660, Note_on_c, 0, 72, 67
1, 362702, Note_off_c, 0, 63, 64
1, 362728, Note_off_c, 0, 51, 64
1, 362822, Note_off_c, 0, 72, 64
1, 363052, Note_on_c, 0, 70, 54
1, 363072, Note_on_c, 0, 62, 34
1, 363124, Control_c, 0, 64, 0
1, 363144, Note_on_c, 0, 53, 13
1, 363508, Control_c, 0, 64, 127
1, 363570, Control_c, 0, 64, 0
1, 363830, Control_c, 0, 64, 127
1, 364158, Note_off_c, 0, 62, 64
1, 364284, Note_on_c, 0, 69, 24
1, 364334, Note_off_c, 0, 70, 64
1, 364336, Note_on_c, 0, 60, 14
1, 364339, Control_c, 0, 64, 0
1, 364768, Control_c, 0, 64, 127
1, 364780, Note_off_c, 0, 69, 64
1, 364940, Note_off_c, 0, 60, 64
1, 365002, Note_off_c, 0, 53, 64
1, 365122, Control_c, 0, 64, 0
1, 365564, Note_on_c, 0, 65, 38
1, 365720, Control_c, 0, 64, 127
1, 365882, Note_on_c, 0, 67, 49
1, 365888, Note_off_c, 0, 65, 64
1, 365890, Control_c, 0, 64, 0
1, 366154, Note_on_c, 0, 69, 73
1, 366178, Note_off_c, 0, 67, 64
1, 366398, Note_on_c, 0, 70, 87
1, 366456, Note_off_c, 0, 69, 64
1, 366642, Note_on_c, 0, 72, 93
1, 366692, Note_off_c, 0, 70, 64
1, 367010, Note_on_c, 0, 58, 49
1, 367016, Note_on_c, 0, 65, 50
1, 367020, Note_on_c, 0, 74, 80
1, 367090, Note_off_c, 0, 72, 64
1, 367750, Control_c, 0, 64, 127
1, 367982, Note_off_c, 0, 58, 64
1, 368000, Note_on_c, 0, 72, 36
1, 368004, Note_on_c, 0, 60, 25
1, 368038, Note_off_c, 0, 74, 64
1, 368098, Note_off_c, 0, 60, 64
1, 368106, Note_on_c, 0, 70, 59
1, 368122, Note_off_c, 0, 72, 64
1, 368172, Note_on_c, 0, 62, 39
1, 368194, Control_c, 0, 64, 0
1, 368310, Note_off_c, 0, 70, 64
1, 368320, Note_on_c, 0, 69, 50
1, 368348, Note_on_c, 0, 63, 32
1, 368352, Note_off_c, 0, 62, 64
1, 368762, Control_c, 0, 64, 127
1, 368844, Note_off_c, 0, 65, 64
1, 368868, Note_off_c, 0, 63, 64
1, 368894, Note_off_c, 0, 69, 64
1, 369100, Control_c, 0, 64, 0
1, 369474, Note_on_c, 0, 72, 48
1, 369516, Control_c, 0, 64, 127
1, 369578, Note_off_c, 0, 72, 64
1, 369666, Note_on_c, 0, 75, 64
1, 369702, Note_on_c, 0, 65, 16
1, 369706, Note_on_c, 0, 57, 27
1, 369884, Control_c, 0, 64, 0
1, 370160, Control_c, 0, 64, 127
1, 370410, Note_off_c, 0, 57, 64
1, 370526, Note_off_c, 0, 75, 64
1, 370529, Note_on_c, 0, 58, 45
1, 370552, Note_on_c, 0, 74, 42
1, 370570, Note_off_c, 0, 65, 64
1, 370662, Note_off_c, 0, 58, 64
1, 370668, Note_off_c, 0, 74, 64
1, 370682, Note_on_c, 0, 72, 70
1, 370692, Note_on_c, 0, 60, 52
1, 370768, Note_off_c, 0, 60, 64
1, 370836, Note_off_c, 0, 72, 64
1, 370840, Note_on_c, 0, 77, 92
1, 370856, Note_on_c, 0, 50, 62
1, 370868, Note_on_c, 0, 65, 28
1, 370876, Note_on_c, 0, 71, 43
1, 370914, Control_c, 0, 64, 0
1, 371406, Control_c, 0, 64, 127
1, 371420, Note_off_c, 0, 71, 64
1, 371430, Note_off_c, 0, 65, 64
1, 371694, Note_on_c, 0, 75, 72
1, 371706, Note_on_c, 0, 51, 60
1, 371710, Note_off_c, 0, 50, 64
1, 371788, Note_off_c, 0, 77, 64
1, 371788, Note_off_c, 0, 51, 64
1, 371840, Note_on_c, 0, 74, 94
1, 371862, Note_on_c, 0, 53, 47
1, 371868, Note_off_c, 0, 75, 64
1, 371948, Note_off_c, 0, 53, 64
1, 372076, Note_on_c, 0, 78, 85
1, 372112, Note_on_c, 0, 51, 42
1, 372150, Note_off_c, 0, 74, 64
1, 372174, Control_c, 0, 64, 0
1, 372988, Control_c, 0, 64, 127
1, 373314, Note_on_c, 0, 60, 37
1, 373674, Note_on_c, 0, 79, 74
1, 373714, Note_off_c, 0, 78, 64
1, 373726, Control_c, 0, 64, 0
1, 373894, Control_c, 0, 64, 127
1, 374020, Note_on_c, 0, 75, 64
1, 374052, Note_on_c, 0, 63, 27
1, 374055, Note_off_c, 0, 60, 64
1, 374080, Control_c, 0, 64, 0
1, 374132, Note_off_c, 0, 79, 64
1, 374262, Control_c, 0, 64, 127
1, 374322, Note_on_c, 0, 72, 84
1, 374326, Note_off_c, 0, 75, 64
1, 374332, Note_off_c, 0, 51, 64
1, 374362, Note_off_c, 0, 63, 64
1, 374444, Note_off_c, 0, 72, 64
1, 374562, Note_on_c, 0, 53, 33
1, 374676, Note_on_c, 0, 72, 76
1, 374680, Note_on_c, 0, 62, 25
1, 374690, Note_on_c, 0, 65, 50
1, 374786, Control_c, 0, 64, 0
1, 374992, Note_on_c, 0, 70, 76
1, 375016, Control_c, 0, 64, 127
1, 375024, Note_off_c, 0, 72, 64
1, 375204, Note_off_c, 0, 70, 64
1, 375370, Control_c, 0, 64, 0
1, 375392, Note_on_c, 0, 70, 66
1, 375722, Control_c, 0, 64, 127
1, 375736, Note_off_c, 0, 53, 64
1, 375750, Note_off_c, 0, 62, 64
1, 376158, Note_on_c, 0, 58, 51
1, 376158, Note_on_c, 0, 53, 34
1, 376488, Note_off_c, 0, 65, 64
1, 376498, Note_on_c, 0, 74, 74
1, 376696, Note_off_c, 0, 70, 64
1, 376808, Note_on_c, 0, 62, 49
1, 376810, Note_off_c, 0, 58, 64
1, 377066, Note_off_c, 0, 53, 64
1, 377126, Note_on_c, 0, 77, 56
1, 377154, Note_off_c, 0, 62, 64
1, 377188, Note_off_c, 0, 74, 64
1, 377446, Note_on_c, 0, 60, 30
1, 377454, Note_on_c, 0, 53, 35
1, 377490, Control_c, 0, 64, 0
1, 377752, Control_c, 0, 64, 127
1, 377780, Note_on_c, 0, 75, 47
1, 377842, Note_off_c, 0, 77, 64
1, 377874, Control_c, 0, 64, 0
1, 378028, Control_c, 0, 64, 127
1, 378106, Note_off_c, 0, 60, 64
1, 378132, Note_on_c, 0, 57, 34
1, 378166, Control_c, 0, 64, 0
1, 378304, Control_c, 0, 64, 127
1, 378420, Note_off_c, 0, 53, 64
1, 378448, Note_off_c, 0, 57, 64
1, 378522, Note_off_c, 0, 75, 64
1, 378528, Note_on_c, 0, 72, 53
1, 378620, Note_off_c, 0, 72, 64
1, 378912, Note_on_c, 0, 63, 32
1, 378914, Note_on_c, 0, 72, 51
1, 378914, Note_on_c, 0, 46, 38
1, 378922, Note_on_c, 0, 57, 22
1, 378950, Control_c, 0, 64, 0
1, 379180, Control_c, 0, 64, 127
1, 379224, Note_off_c, 0, 57, 64
1, 379430, Note_off_c, 0, 63, 64
1, 379540, Note_off_c, 0, 72, 64
1, 379562, Note_on_c, 0, 70, 39
1, 379564, Control_c, 0, 64, 0
1, 379584, Note_on_c, 0, 58, 31
1, 379600, Note_on_c, 0, 62, 15
1, 379810, Note_off_c, 0, 58, 64
1, 379822, Note_off_c, 0, 62, 64
1, 379844, Note_off_c, 0, 46, 64
1, 379868, Note_off_c, 0, 70, 64
1, 379872, Control_c, 0, 64, 127
1, 380282, Note_on_c, 0, 70, 28
1, 380326, Note_on_c, 0, 62, 16
1, 380334, Note_on_c, 0, 58, 16
1, 380344, Note_on_c, 0, 46, 17
1, 380578, Control_c, 0, 64, 0
1, 380870, Control_c, 0, 64, 127
1, 381194, Note_off_c, 0, 58, 64
1, 381248, Note_off_c, 0, 46, 64
1, 381276, Note_off_c, 0, 62, 64
1, 381304, Note_off_c, 0, 70, 64
1, 381470, Control_c, 0, 64, 0
1, 382486, Note_on_c, 0, 62, 51
1, 382486, Note_on_c, 0, 46, 42
1, 382489, Note_on_c, 0, 53, 29
1, 382504, Note_on_c, 0, 50, 33
1, 382684, Control_c, 0, 64, 127
1, 383458, Note_on_c, 0, 60, 34
1, 383496, Note_off_c, 0, 62, 64
1, 383598, Note_off_c, 0, 60, 64
1, 383598, Note_on_c, 0, 58, 54
1, 383658, Note_off_c, 0, 50, 64
1, 383724, Note_off_c, 0, 58, 64
1, 383742, Control_c, 0, 64, 0
1, 383770, Note_on_c, 0, 51, 33
1, 383784, Note_on_c, 0, 57, 47
1, 383836, Note_on_c, 0, 48, 25
1, 383892, Note_off_c, 0, 46, 64
1, 384358, Control_c, 0, 64, 127
1, 384506, Note_off_c, 0, 48, 64
1, 384524, Note_off_c, 0, 53, 64
1, 384548, Note_off_c, 0, 51, 64
1, 384632, Note_off_c, 0, 57, 64
1, 384696, Control_c, 0, 64, 0
1, 385818, Control_c, 0, 64, 127
1, 385874, Note_on_c, 0, 60, 41
1, 386070, Note_on_c, 0, 63, 64
1, 386102, Note_on_c, 0, 57, 52
1, 386108, Note_on_c, 0, 53, 38
1, 386126, Note_off_c, 0, 60, 64
1, 386126, Note_on_c, 0, 48, 43
1, 386140, Control_c, 0, 64, 0
1, 386664, Control_c, 0, 64, 127
1, 387044, Note_on_c, 0, 62, 41
1, 387162, Note_off_c, 0, 63, 64
1, 387188, Note_on_c, 0, 60, 47
1, 387226, Note_off_c, 0, 62, 64
1, 387338, Control_c, 0, 64, 0
1, 387376, Note_on_c, 0, 58, 70
1, 387394, Note_off_c, 0, 60, 64
1, 387408, Note_on_c, 0, 50, 33
1, 387416, Note_off_c, 0, 48, 64
1, 387510, Note_off_c, 0, 57, 64
1, 387740, Note_off_c, 0, 53, 64
1, 387770, Note_off_c, 0, 58, 64
1, 387782, Note_off_c, 0, 50, 64
1, 387830, Control_c, 0, 64, 127
1, 387876, Control_c, 0, 64, 0
1, 388494, Note_on_c, 0, 62, 82
1, 388690, Note_on_c, 0, 65, 106
1, 388692, Note_on_c, 0, 59, 87
1, 388698, Note_on_c, 0, 53, 93
1, 388700, Note_on_c, 0, 50, 91
1, 388702, Note_on_c, 0, 38, 90
1, 388760, Note_off_c, 0, 62, 64
1, 389214, Control_c, 0, 64, 127
1, 389306, Note_off_c, 0, 50, 64
1, 389442, Note_off_c, 0, 53, 64
1, 389626, Note_on_c, 0, 63, 71
1, 389634, Note_off_c, 0, 59, 64
1, 389784, Note_on_c, 0, 62, 92
1, 389826, Note_off_c, 0, 65, 64
1, 389934, Note_on_c, 0, 60, 108
1, 389936, Note_on_c, 0, 39, 97
1, 389936, Note_on_c, 0, 51, 100
1, 389938, Note_on_c, 0, 55, 103
1, 389940, Note_off_c, 0, 63, 64
1, 389950, Note_off_c, 0, 38, 64
1, 389952, Control_c, 0, 64, 0
1, 389986, Note_off_c, 0, 62, 64
1, 390086, Note_off_c, 0, 51, 64
1, 390094, Note_off_c, 0, 55, 64
1, 390144, Note_off_c, 0, 60, 64
1, 390144, Note_off_c, 0, 39, 64
1, 390166, Control_c, 0, 64, 127
1, 390272, Control_c, 0, 64, 0
1, 390536, Note_on_c, 0, 47, 70
1, 390538, Note_on_c, 0, 67, 103
1, 390540, Note_on_c, 0, 55, 93
1, 390542, Note_on_c, 0, 35, 72
1, 390544, Note_on_c, 0, 62, 88
1, 390704, Control_c, 0, 64, 127
1, 390754, Note_off_c, 0, 55, 64
1, 390762, Note_off_c, 0, 47, 64
1, 390798, Note_off_c, 0, 35, 64
1, 390826, Note_off_c, 0, 67, 64
1, 390838, Note_off_c, 0, 62, 64
1, 391010, Control_c, 0, 64, 0
1, 391922, Note_on_c, 0, 65, 43
1, 391950, Note_on_c, 0, 55, 36
1, 391952, Note_on_c, 0, 36, 34
1, 392210, Control_c, 0, 64, 127
1, 392256, Note_on_c, 0, 63, 50
1, 392284, Note_off_c, 0, 65, 64
1, 392298, Note_off_c, 0, 55, 64
1, 392326, Note_off_c, 0, 63, 64
1, 392516, Control_c, 0, 64, 0
1, 392552, Note_on_c, 0, 63, 64
1, 392560, Note_on_c, 0, 53, 38
1, 392578, Note_on_c, 0, 38, 38
1, 392590, Note_off_c, 0, 36, 64
1, 392824, Note_off_c, 0, 53, 64
1, 392840, Control_c, 0, 64, 127
1, 392860, Note_on_c, 0, 62, 60
1, 392884, Note_off_c, 0, 63, 64
1, 392932, Note_off_c, 0, 62, 64
1, 393140, Note_on_c, 0, 62, 42
1, 393156, Note_on_c, 0, 51, 47
1, 393168, Note_on_c, 0, 39, 28
1, 393176, Control_c, 0, 64, 0
1, 393234, Note_off_c, 0, 38, 64
1, 393470, Note_off_c, 0, 62, 64
1, 393490, Note_on_c, 0, 60, 54
1, 393576, Control_c, 0, 64, 127
1, 393678, Note_off_c, 0, 60, 64
1, 393762, Note_off_c, 0, 51, 64
1, 393924, Note_on_c, 0, 58, 53
1, 393954, Note_on_c, 0, 50, 34
1, 393954, Note_on_c, 0, 41, 25
1, 394002, Note_off_c, 0, 39, 64
1, 394022, Control_c, 0, 64, 0
1, 394714, Control_c, 0, 64, 127
1, 394840, Note_off_c, 0, 50, 64
1, 395304, Note_on_c, 0, 57, 35
1, 395320, Note_on_c, 0, 48, 10
1, 395324, Note_on_c, 0, 29, 24
1, 395340, Note_off_c, 0, 58, 64
1, 395400, Note_off_c, 0, 41, 64
1, 395436, Control_c, 0, 64, 0
1, 395774, Control_c, 0, 64, 127
1, 395784, Note_off_c, 0, 57, 64
1, 395794, Note_off_c, 0, 48, 64
1, 396004, Note_off_c, 0, 29, 64
1, 396266, Note_on_c, 0, 41, 34
1, 396616, Note_on_c, 0, 43, 47
1, 396620, Control_c, 0, 64, 0
1, 396682, Note_off_c, 0, 41, 64
1, 396912, Control_c, 0, 64, 127
1, 396912, Note_on_c, 0, 45, 69
1, 396972, Note_off_c, 0, 43, 64
1, 396972, Control_c, 0, 64, 0
1, 397142, Control_c, 0, 64, 127
1, 397210, Note_on_c, 0, 46, 73
1, 397218, Control_c, 0, 64, 0
1, 397328, Note_off_c, 0, 45, 64
1, 397536, Note_on_c, 0, 48, 66
1, 397644, Note_off_c, 0, 46, 64
1, 397954, Note_on_c, 0, 50, 56
1, 397972, Note_on_c, 0, 34, 49
1, 398084, Note_off_c, 0, 48, 64
1, 398678, Control_c, 0, 64, 127
1, 398958, Note_on_c, 0, 48, 35
1, 398972, Note_off_c, 0, 34, 64
1, 398992, Note_on_c, 0, 36, 33
1, 399056, Note_off_c, 0, 36, 64
1, 399080, Note_on_c, 0, 46, 57
1, 399086, Note_off_c, 0, 50, 64
1, 399130, Note_on_c, 0, 38, 35
1, 399172, Note_off_c, 0, 48, 64
1, 399230, Control_c, 0, 64, 0
1, 399252, Note_on_c, 0, 39, 39
1, 399254, Note_off_c, 0, 38, 64
1, 399262, Note_on_c, 0, 45, 54
1, 399316, Note_off_c, 0, 46, 64
1, 399770, Control_c, 0, 64, 127
1, 399918, Note_off_c, 0, 45, 64
1, 399920, Note_off_c, 0, 39, 64
1, 400184, Control_c, 0, 64, 0
1, 400520, Note_on_c, 0, 48, 58
1, 400552, Control_c, 0, 64, 127
1, 400730, Note_on_c, 0, 51, 58
1, 400752, Control_c, 0, 64, 0
1, 400754, Note_on_c, 0, 36, 45
1, 400778, Note_off_c, 0, 48, 64
1, 401428, Control_c, 0, 64, 127
1, 401656, Note_off_c, 0, 36, 64
1, 401736, Note_on_c, 0, 50, 46
1, 401758, Note_on_c, 0, 38, 35
1, 401796, Note_off_c, 0, 51, 64
1, 401896, Note_off_c, 0, 50, 64
1, 401902, Note_on_c, 0, 39, 48
1, 401906, Note_off_c, 0, 38, 64
1, 401908, Note_on_c, 0, 48, 59
1, 402028, Control_c, 0, 64, 0
1, 402140, Note_on_c, 0, 46, 46
1, 402156, Note_off_c, 0, 39, 64
1, 402156, Note_on_c, 0, 38, 45
1, 402164, Note_on_c, 0, 53, 66
1, 402194, Note_off_c, 0, 48, 64
1, 402546, Note_on_c, 0, 58, 81
1, 402596, Control_c, 0, 64, 127
1, 402618, Note_off_c, 0, 53, 64
1, 402642, Control_c, 0, 64, 0
1, 402888, Control_c, 0, 64, 127
1, 402934, Note_on_c, 0, 57, 65
1, 403016, Note_off_c, 0, 58, 64
1, 403042, Control_c, 0, 64, 0
1, 403272, Control_c, 0, 64, 127
1, 403312, Note_on_c, 0, 56, 61
1, 403410, Control_c, 0, 64, 0
1, 403432, Note_off_c, 0, 57, 64
1, 403626, Control_c, 0, 64, 127
1, 403752, Note_on_c, 0, 54, 48
1, 403794, Control_c, 0, 64, 0
1, 403796, Note_on_c, 0, 39, 43
1, 403828, Note_off_c, 0, 38, 64
1, 403900, Note_off_c, 0, 56, 64
1, 404486, Control_c, 0, 64, 127
1, 404712, Note_on_c, 0, 55, 45
1, 404748, Control_c, 0, 64, 0
1, 404754, Note_off_c, 0, 54, 64
1, 405162, Control_c, 0, 64, 127
1, 405232, Note_off_c, 0, 46, 64
1, 405484, Note_on_c, 0, 49, 41
1, 405498, Note_off_c, 0, 39, 64
1, 405512, Note_on_c, 0, 40, 53
1, 405764, Note_off_c, 0, 55, 64
1, 405782, Note_on_c, 0, 57, 48
1, 405890, Note_on_c, 0, 55, 48
1, 405910, Note_off_c, 0, 57, 64
1, 406016, Note_off_c, 0, 55, 64
1, 406024, Note_on_c, 0, 54, 60
1, 406148, Note_off_c, 0, 54, 64
1, 406148, Note_on_c, 0, 55, 51
1, 406222, Control_c, 0, 64, 0
1, 406314, Note_on_c, 0, 57, 69
1, 406336, Note_off_c, 0, 55, 64
1, 406636, Control_c, 0, 64, 127
1, 406694, Note_on_c, 0, 58, 73
1, 406724, Note_off_c, 0, 57, 64
1, 406962, Note_off_c, 0, 58, 64
1, 406992, Note_off_c, 0, 49, 64
1, 407102, Note_on_c, 0, 50, 43
1, 407114, Note_on_c, 0, 58, 54
1, 407117, Note_on_c, 0, 41, 33
1, 407190, Control_c, 0, 64, 0
1, 407234, Note_off_c, 0, 40, 64
1, 407744, Control_c, 0, 64, 127
1, 408020, Note_on_c, 0, 53, 52
1, 408022, Control_c, 0, 64, 0
1, 408208, Note_off_c, 0, 58, 64
1, 408388, Control_c, 0, 64, 127
1, 408434, Note_off_c, 0, 41, 64
1, 408724, Note_off_c, 0, 50, 64
1, 408796, Note_on_c, 0, 41, 39
1, 408812, Note_off_c, 0, 53, 64
1, 409154, Note_on_c, 0, 50, 50
1, 409158, Note_on_c, 0, 53, 54
1, 409476, Note_off_c, 0, 53, 64
1, 409478, Note_on_c, 0, 51, 67
1, 409482, Note_off_c, 0, 50, 64
1, 409488, Note_on_c, 0, 55, 65
1, 409542, Control_c, 0, 64, 0
1, 409740, Control_c, 0, 64, 127
1, 409770, Note_off_c, 0, 51, 64
1, 409794, Note_off_c, 0, 55, 64
1, 409810, Note_on_c, 0, 50, 59
1, 409814, Note_on_c, 0, 53, 61
1, 409856, Note_off_c, 0, 41, 64
1, 409996, Note_off_c, 0, 50, 64
1, 410002, Note_off_c, 0, 53, 64
1, 410124, Control_c, 0, 64, 0
1, 410142, Note_on_c, 0, 53, 42
1, 410166, Note_on_c, 0, 29, 40
1, 410166, Note_on_c, 0, 50, 43
1, 410169, Note_on_c, 0, 41, 38
1, 410460, Note_off_c, 0, 50, 64
1, 410464, Note_off_c, 0, 53, 64
1, 410466, Note_on_c, 0, 51, 65
1, 410476, Note_on_c, 0, 48, 49
1, 410646, Control_c, 0, 64, 127
1, 410648, Note_off_c, 0, 51, 64
1, 410780, Note_off_c, 0, 41, 64
1, 410810, Note_on_c, 0, 46, 58
1, 410813, Note_on_c, 0, 50, 56
1, 410816, Control_c, 0, 64, 0
1, 410832, Note_off_c, 0, 48, 64
1, 411038, Note_off_c, 0, 46, 64
1, 411062, Control_c, 0, 64, 127
1, 411170, Control_c, 0, 64, 0
1, 411174, Note_off_c, 0, 50, 64
1, 411178, Note_on_c, 0, 48, 59
1, 411192, Note_on_c, 0, 45, 46
1, 411392, Note_off_c, 0, 45, 64
1, 411400, Control_c, 0, 64, 127
1, 411434, Note_off_c, 0, 48, 64
1, 411584, Control_c, 0, 64, 0
1, 411636, Note_on_c, 0, 39, 38
1, 411640, Note_on_c, 0, 48, 44
1, 411646, Note_on_c, 0, 34, 39
1, 411652, Note_on_c, 0, 45, 19
1, 411782, Note_off_c, 0, 29, 64
1, 412092, Control_c, 0, 64, 127
1, 412300, Note_off_c, 0, 45, 64
1, 412330, Note_off_c, 0, 39, 64
1, 412369, Control_c, 0, 64, 0
1, 412414, Note_on_c, 0, 46, 37
1, 412416, Note_on_c, 0, 38, 24
1, 412476, Note_off_c, 0, 48, 64
1, 412714, Note_off_c, 0, 34, 64
1, 412760, Note_off_c, 0, 38, 64
1, 412798, Control_c, 0, 64, 127
1, 412852, Note_off_c, 0, 46, 64
1, 413106, Control_c, 0, 64, 0
1, 413172, Note_on_c, 0, 46, 39
1, 413190, Note_on_c, 0, 38, 32
1, 413194, Note_on_c, 0, 34, 29
1, 413674, Control_c, 0, 64, 127
1, 413856, Note_off_c, 0, 38, 64
1, 413952, Note_off_c, 0, 34, 64
1, 413994, Note_off_c, 0, 46, 64
1, 415242, Control_c, 0, 64, 0
1, 416090, Note_on_c, 0, 72, 51
1, 416090, Note_on_c, 0, 53, 37
1, 416106, Note_on_c, 0, 69, 29
1, 416346, Note_off_c, 0, 53, 64
1, 416404, Note_on_c, 0, 65, 41
1, 416534, Note_off_c, 0, 65, 64
1, 416710, Note_on_c, 0, 65, 32
1, 416794, Note_off_c, 0, 65, 64
1, 417022, Note_on_c, 0, 65, 31
1, 417112, Note_off_c, 0, 65, 64
1, 417318, Note_on_c, 0, 65, 32
1, 417418, Note_off_c, 0, 65, 64
1, 417600, Note_off_c, 0, 69, 64
1, 417600, Note_on_c, 0, 70, 65
1, 417604, Note_on_c, 0, 74, 75
1, 417612, Note_off_c, 0, 72, 64
1, 417612, Note_on_c, 0, 65, 38
1, 417718, Note_off_c, 0, 65, 64
1, 417746, Note_off_c, 0, 70, 64
1, 417874, Note_on_c, 0, 72, 90
1, 417878, Note_on_c, 0, 75, 78
1, 417892, Note_off_c, 0, 74, 64
1, 417902, Note_on_c, 0, 65, 43
1, 417974, Note_off_c, 0, 65, 64
1, 418132, Note_off_c, 0, 72, 64
1, 418142, Note_on_c, 0, 77, 94
1, 418144, Note_on_c, 0, 74, 75
1, 418156, Note_on_c, 0, 65, 51
1, 418172, Note_off_c, 0, 75, 64
1, 418218, Note_off_c, 0, 65, 64
1, 418316, Note_off_c, 0, 74, 64
1, 418404, Note_on_c, 0, 65, 49
1, 418416, Note_off_c, 0, 77, 64
1, 418420, Note_on_c, 0, 79, 72
1, 418424, Note_on_c, 0, 75, 55
1, 418522, Note_off_c, 0, 65, 64
1, 418668, Note_off_c, 0, 75, 64
1, 418682, Note_off_c, 0, 79, 64
1, 418698, Note_on_c, 0, 65, 43
1, 418812, Note_off_c, 0, 65, 64
1, 418988, Note_on_c, 0, 74, 36
1, 418988, Note_on_c, 0, 77, 56
1, 418994, Note_on_c, 0, 65, 27
1, 419092, Note_off_c, 0, 65, 64
1, 419200, Note_off_c, 0, 74, 64
1, 419234, Note_off_c, 0, 77, 64
1, 419274, Note_on_c, 0, 65, 32
1, 419374, Note_off_c, 0, 65, 64
1, 419512, Note_on_c, 0, 73, 46
1, 419526, Note_on_c, 0, 76, 53
1, 419566, Note_on_c, 0, 65, 29
1, 419674, Note_off_c, 0, 65, 64
1, 419740, Note_off_c, 0, 73, 64
1, 419756, Note_off_c, 0, 76, 64
1, 419832, Note_on_c, 0, 65, 35
1, 419952, Note_off_c, 0, 65, 64
1, 420084, Note_on_c, 0, 75, 42
1, 420084, Note_on_c, 0, 72, 53
1, 420114, Note_on_c, 0, 65, 31
1, 420232, Note_off_c, 0, 65, 64
1, 420268, Note_off_c, 0, 72, 64
1, 420300, Note_off_c, 0, 75, 64
1, 420390, Note_on_c, 0, 65, 37
1, 420494, Note_off_c, 0, 65, 64
1, 420642, Note_on_c, 0, 65, 40
1, 420656, Note_on_c, 0, 71, 34
1, 420658, Note_on_c, 0, 74, 46
1, 420756, Note_off_c, 0, 65, 64
1, 420800, Note_off_c, 0, 71, 64
1, 420860, Note_off_c, 0, 74, 64
1, 420934, Note_on_c, 0, 65, 42
1, 421044, Note_off_c, 0, 65, 64
1, 421186, Note_on_c, 0, 70, 51
1, 421194, Note_on_c, 0, 73, 41
1, 421212, Note_on_c, 0, 65, 39
1, 421306, Note_off_c, 0, 65, 64
1, 421398, Note_off_c, 0, 73, 64
1, 421406, Note_off_c, 0, 70, 64
1, 421474, Note_on_c, 0, 65, 44
1, 421568, Note_off_c, 0, 65, 64
1, 421746, Note_on_c, 0, 72, 39
1, 421752, Note_on_c, 0, 65, 32
1, 421770, Note_on_c, 0, 69, 25
1, 421854, Note_off_c, 0, 65, 64
1, 422008, Note_on_c, 0, 65, 44
1, 422034, Note_off_c, 0, 72, 64
1, 422044, Note_off_c, 0, 69, 64
1, 422104, Note_off_c, 0, 65, 64
1, 422186, Control_c, 0, 64, 127
1, 422248, Control_c, 0, 64, 0
1, 422278, Note_on_c, 0, 65, 45
1, 422382, Note_off_c, 0, 65, 64
1, 422532, Note_on_c, 0, 65, 49
1, 422672, Note_off_c, 0, 65, 64
1, 422814, Note_on_c, 0, 60, 58
1, 422828, Note_on_c, 0, 69, 60
1, 422828, Note_on_c, 0, 41, 37
1, 423028, Note_off_c, 0, 41, 64
1, 423078, Note_on_c, 0, 53, 49
1, 423158, Note_off_c, 0, 53, 64
1, 423328, Note_on_c, 0, 53, 51
1, 423392, Note_off_c, 0, 53, 64
1, 423578, Note_on_c, 0, 53, 54
1, 423666, Note_off_c, 0, 53, 64
1, 423860, Note_on_c, 0, 53, 62
1, 423918, Note_off_c, 0, 53, 64
1, 423934, Note_off_c, 0, 60, 64
1, 424030, Control_c, 0, 64, 127
1, 424102, Note_on_c, 0, 70, 86
1, 424116, Note_on_c, 0, 62, 51
1, 424122, Note_on_c, 0, 53, 49
1, 424142, Note_off_c, 0, 69, 64
1, 424194, Note_off_c, 0, 53, 64
1, 424210, Note_off_c, 0, 62, 64
1, 424338, Control_c, 0, 64, 0
1, 424354, Note_on_c, 0, 63, 78
1, 424364, Note_on_c, 0, 72, 95
1, 424378, Note_on_c, 0, 53, 54
1, 424436, Note_off_c, 0, 70, 64
1, 424436, Note_off_c, 0, 53, 64
1, 424482, Note_off_c, 0, 63, 64
1, 424522, Control_c, 0, 64, 127
1, 424582, Control_c, 0, 64, 0
1, 424608, Note_on_c, 0, 74, 89
1, 424616, Note_on_c, 0, 53, 57
1, 424624, Note_on_c, 0, 65, 81
1, 424658, Note_off_c, 0, 72, 64
1, 424700, Note_off_c, 0, 53, 64
1, 424736, Note_off_c, 0, 65, 64
1, 424782, Control_c, 0, 64, 127
1, 424844, Control_c, 0, 64, 0
1, 424898, Note_on_c, 0, 75, 70
1, 424916, Note_off_c, 0, 74, 64
1, 424920, Note_on_c, 0, 53, 52
1, 424922, Note_on_c, 0, 67, 58
1, 424984, Note_off_c, 0, 53, 64
1, 425122, Control_c, 0, 64, 127
1, 425125, Note_off_c, 0, 67, 64
1, 425172, Note_on_c, 0, 53, 49
1, 425182, Note_off_c, 0, 75, 64
1, 425244, Note_off_c, 0, 53, 64
1, 425274, Control_c, 0, 64, 0
1, 425422, Note_on_c, 0, 74, 66
1, 425425, Note_on_c, 0, 65, 62
1, 425432, Note_on_c, 0, 53, 44
1, 425502, Note_off_c, 0, 53, 64
1, 425624, Note_off_c, 0, 65, 64
1, 425642, Note_off_c, 0, 74, 64
1, 425644, Control_c, 0, 64, 127
1, 425694, Note_on_c, 0, 53, 52
1, 425760, Note_off_c, 0, 53, 64
1, 425766, Control_c, 0, 64, 0
1, 425930, Note_on_c, 0, 73, 61
1, 425950, Note_on_c, 0, 64, 45
1, 425966, Note_on_c, 0, 53, 40
1, 426030, Note_off_c, 0, 53, 64
1, 426134, Control_c, 0, 64, 127
1, 426136, Note_off_c, 0, 64, 64
1, 426194, Note_off_c, 0, 73, 64
1, 426208, Note_on_c, 0, 53, 49
1, 426274, Note_off_c, 0, 53, 64
1, 426274, Control_c, 0, 64, 0
1, 426442, Note_on_c, 0, 63, 50
1, 426464, Note_on_c, 0, 53, 51
1, 426464, Note_on_c, 0, 72, 7
1, 426528, Note_off_c, 0, 53, 64
1, 426704, Note_off_c, 0, 72, 64
1, 426737, Note_on_c, 0, 53, 36
1, 426744, Note_off_c, 0, 63, 64
1, 426814, Note_off_c, 0, 53, 64
1, 427000, Note_on_c, 0, 62, 39
1, 427002, Note_on_c, 0, 71, 32
1, 427018, Note_on_c, 0, 53, 34
1, 427104, Note_off_c, 0, 53, 64
1, 427220, Note_off_c, 0, 62, 64
1, 427220, Note_off_c, 0, 71, 64
1, 427242, Control_c, 0, 64, 127
1, 427288, Control_c, 0, 64, 0
1, 427288, Note_on_c, 0, 53, 37
1, 427362, Note_off_c, 0, 53, 64
1, 427532, Note_on_c, 0, 70, 50
1, 427544, Note_on_c, 0, 61, 36
1, 427568, Note_on_c, 0, 53, 37
1, 427634, Note_off_c, 0, 53, 64
1, 427722, Note_off_c, 0, 70, 64
1, 427740, Note_off_c, 0, 61, 64
1, 427822, Note_on_c, 0, 53, 41
1, 427900, Note_off_c, 0, 53, 64
1, 428206, Note_on_c, 0, 69, 28
1, 428218, Note_on_c, 0, 60, 27
1, 428224, Note_on_c, 0, 53, 32
1, 428348, Control_c, 0, 64, 127
1, 428384, Note_off_c, 0, 53, 64
1, 428442, Note_off_c, 0, 60, 64
1, 428526, Note_off_c, 0, 69, 64
1, 429162, Control_c, 0, 64, 0
1, 429910, Note_on_c, 0, 74, 73
1, 429912, Note_on_c, 0, 58, 35
1, 429915, Note_on_c, 0, 65, 47
1, 430038, Control_c, 0, 64, 127
1, 430884, Note_off_c, 0, 58, 64
1, 430962, Note_on_c, 0, 72, 30
1, 431004, Note_on_c, 0, 60, 10
1, 431020, Note_off_c, 0, 74, 64
1, 431072, Note_on_c, 0, 70, 56
1, 431075, Note_off_c, 0, 60, 64
1, 431094, Note_on_c, 0, 62, 34
1, 431130, Note_off_c, 0, 72, 64
1, 431266, Note_off_c, 0, 62, 64
1, 431274, Note_on_c, 0, 63, 32
1, 431280, Note_on_c, 0, 69, 45
1, 431282, Control_c, 0, 64, 0
1, 431304, Note_off_c, 0, 70, 64
1, 431578, Note_off_c, 0, 65, 64
1, 431618, Note_off_c, 0, 63, 64
1, 431636, Control_c, 0, 64, 127
1, 431654, Note_off_c, 0, 69, 64
1, 431882, Control_c, 0, 64, 0
1, 432446, Note_on_c, 0, 81, 70
1, 432496, Control_c, 0, 64, 127
1, 432654, Note_on_c, 0, 87, 78
1, 432680, Control_c, 0, 64, 0
1, 432732, Note_off_c, 0, 81, 64
1, 433080, Control_c, 0, 64, 127
1, 433486, Note_on_c, 0, 84, 72
1, 433584, Note_off_c, 0, 87, 64
1, 433616, Note_on_c, 0, 81, 91
1, 433674, Note_off_c, 0, 84, 64
1, 433798, Note_on_c, 0, 70, 62
1, 433800, Note_on_c, 0, 89, 94
1, 433810, Note_on_c, 0, 62, 42
1, 433818, Control_c, 0, 64, 0
1, 433848, Note_off_c, 0, 81, 64
1, 434216, Control_c, 0, 64, 127
1, 434418, Note_on_c, 0, 86, 51
1, 434466, Note_off_c, 0, 89, 64
1, 434578, Note_off_c, 0, 86, 64
1, 434594, Note_on_c, 0, 82, 79
1, 434648, Control_c, 0, 64, 0
1, 434908, Control_c, 0, 64, 127
1, 435072, Note_off_c, 0, 82, 64
1, 435144, Note_off_c, 0, 62, 64
1, 435254, Note_on_c, 0, 63, 49
1, 435402, Note_on_c, 0, 81, 61
1, 435446, Note_off_c, 0, 81, 64
1, 435462, Note_on_c, 0, 82, 73
1, 435516, Note_on_c, 0, 81, 88
1, 435544, Note_off_c, 0, 82, 64
1, 435608, Note_on_c, 0, 79, 79
1, 435616, Note_off_c, 0, 81, 64
1, 435690, Note_on_c, 0, 81, 98
1, 435712, Note_off_c, 0, 79, 64
1, 435784, Control_c, 0, 64, 0
1, 435830, Note_on_c, 0, 84, 85
1, 435840, Note_off_c, 0, 81, 64
1, 436062, Control_c, 0, 64, 127
1, 436120, Note_on_c, 0, 82, 86
1, 436200, Note_off_c, 0, 84, 64
1, 436458, Note_on_c, 0, 81, 73
1, 436492, Note_off_c, 0, 63, 64
1, 436538, Control_c, 0, 64, 0
1, 436546, Note_on_c, 0, 67, 29
1, 436564, Note_off_c, 0, 82, 64
1, 436764, Note_on_c, 0, 79, 70
1, 436782, Control_c, 0, 64, 127
1, 436828, Note_off_c, 0, 81, 64
1, 436998, Control_c, 0, 64, 0
1, 437052, Note_on_c, 0, 77, 79
1, 437088, Note_off_c, 0, 79, 64
1, 437228, Control_c, 0, 64, 127
1, 437356, Note_on_c, 0, 75, 73
1, 437370, Note_off_c, 0, 70, 64
1, 437414, Note_off_c, 0, 77, 64
1, 437634, Note_off_c, 0, 67, 64
1, 437686, Note_on_c, 0, 74, 64
1, 437720, Note_on_c, 0, 70, 25
1, 437736, Control_c, 0, 64, 0
1, 437774, Note_on_c, 0, 65, 26
1, 437830, Note_off_c, 0, 75, 64
1, 438070, Note_on_c, 0, 77, 65
1, 438108, Note_off_c, 0, 74, 64
1, 438242, Control_c, 0, 64, 127
1, 438316, Note_off_c, 0, 77, 64
1, 438384, Note_off_c, 0, 70, 64
1, 438384, Note_off_c, 0, 65, 64
1, 438465, Note_on_c, 0, 77, 60
1, 438626, Control_c, 0, 64, 0
1, 439172, Note_on_c, 0, 58, 41
1, 439186, Note_on_c, 0, 53, 26
1, 439210, Control_c, 0, 64, 127
1, 439524, Note_on_c, 0, 76, 49
1, 439620, Note_off_c, 0, 77, 64
1, 439654, Note_off_c, 0, 53, 64
1, 439716, Note_off_c, 0, 58, 64
1, 439818, Note_on_c, 0, 75, 56
1, 439846, Note_off_c, 0, 76, 64
1, 440086, Control_c, 0, 64, 0
1, 440092, Note_on_c, 0, 74, 78
1, 440202, Note_off_c, 0, 75, 64
1, 440302, Control_c, 0, 64, 127
1, 440386, Note_on_c, 0, 77, 55
1, 440394, Control_c, 0, 64, 0
1, 440418, Note_off_c, 0, 74, 64
1, 440428, Note_on_c, 0, 57, 27
1, 440436, Note_on_c, 0, 53, 19
1, 440686, Control_c, 0, 64, 127
1, 440692, Note_on_c, 0, 75, 45
1, 440736, Note_off_c, 0, 77, 64
1, 440932, Control_c, 0, 64, 0
1, 440996, Note_off_c, 0, 75, 64
1, 441002, Note_off_c, 0, 57, 64
1, 441012, Note_on_c, 0, 74, 44
1, 441012, Note_on_c, 0, 63, 31
1, 441048, Note_on_c, 0, 69, 30
1, 441236, Note_off_c, 0, 53, 64
1, 441292, Note_off_c, 0, 74, 64
1, 441300, Control_c, 0, 64, 127
1, 441330, Note_on_c, 0, 72, 48
1, 441334, Note_off_c, 0, 63, 64
1, 441388, Note_off_c, 0, 69, 64
1, 441474, Note_off_c, 0, 72, 64
1, 441772, Note_on_c, 0, 72, 47
1, 441780, Note_on_c, 0, 63, 25
1, 441790, Note_on_c, 0, 58, 30
1, 441802, Note_on_c, 0, 69, 12
1, 441854, Control_c, 0, 64, 0
1, 442176, Control_c, 0, 64, 127
1, 442260, Note_off_c, 0, 63, 64
1, 442464, Note_on_c, 0, 70, 39
1, 442469, Note_off_c, 0, 69, 64
1, 442506, Note_on_c, 0, 62, 27
1, 442514, Control_c, 0, 64, 0
1, 442528, Note_off_c, 0, 72, 64
1, 442754, Note_off_c, 0, 62, 64
1, 442760, Control_c, 0, 64, 127
1, 442778, Note_off_c, 0, 58, 64
1, 442810, Note_off_c, 0, 70, 64
1, 443242, Note_on_c, 0, 70, 34
1, 443276, Note_on_c, 0, 58, 14
1, 443294, Note_on_c, 0, 62, 9
1, 444340, Note_off_c, 0, 62, 64
1, 444356, Note_off_c, 0, 58, 64
1, 444466, Control_c, 0, 64, 0
1, 444788, Control_c, 0, 64, 127
1, 445148, Note_on_c, 0, 71, 27
1, 445162, Note_off_c, 0, 70, 64
1, 445356, Control_c, 0, 64, 0
1, 445542, Control_c, 0, 64, 127
1, 445580, Note_off_c, 0, 71, 64
1, 446110, Note_on_c, 0, 53, 32
1, 446110, Control_c, 0, 64, 0
1, 446113, Note_on_c, 0, 72, 45
1, 446138, Note_on_c, 0, 69, 29
1, 446362, Note_off_c, 0, 53, 64
1, 446402, Control_c, 0, 64, 127
1, 446458, Note_on_c, 0, 65, 52
1, 446478, Control_c, 0, 64, 0
1, 446516, Note_off_c, 0, 65, 64
1, 446736, Note_on_c, 0, 65, 36
1, 446738, Control_c, 0, 64, 127
1, 446814, Note_off_c, 0, 65, 64
1, 446848, Control_c, 0, 64, 0
1, 447022, Note_on_c, 0, 65, 31
1, 447096, Note_off_c, 0, 65, 64
1, 447294, Note_on_c, 0, 65, 36
1, 447374, Note_off_c, 0, 65, 64
1, 447518, Note_off_c, 0, 69, 64
1, 447530, Note_off_c, 0, 72, 64
1, 447542, Note_on_c, 0, 70, 72
1, 447545, Note_on_c, 0, 65, 41
1, 447552, Note_on_c, 0, 74, 62
1, 447624, Note_off_c, 0, 70, 64
1, 447656, Note_off_c, 0, 65, 64
1, 447798, Note_on_c, 0, 75, 79
1, 447804, Note_on_c, 0, 72, 86
1, 447810, Note_off_c, 0, 74, 64
1, 447812, Note_on_c, 0, 65, 43
1, 447900, Note_off_c, 0, 65, 64
1, 448026, Note_off_c, 0, 72, 64
1, 448060, Note_on_c, 0, 74, 79
1, 448063, Note_on_c, 0, 77, 92
1, 448082, Note_on_c, 0, 65, 42
1, 448090, Note_off_c, 0, 75, 64
1, 448146, Note_off_c, 0, 65, 64
1, 448238, Note_off_c, 0, 74, 64
1, 448314, Note_on_c, 0, 79, 81
1, 448316, Note_on_c, 0, 75, 66
1, 448318, Note_off_c, 0, 77, 64
1, 448330, Note_on_c, 0, 65, 43
1, 448386, Note_off_c, 0, 75, 64
1, 448410, Note_off_c, 0, 65, 64
1, 448426, Note_off_c, 0, 79, 64
1, 448576, Note_on_c, 0, 75, 75
1, 448584, Note_on_c, 0, 79, 75
1, 448588, Note_on_c, 0, 65, 45
1, 448688, Note_off_c, 0, 65, 64
1, 448762, Note_off_c, 0, 75, 64
1, 448836, Note_off_c, 0, 79, 64
1, 448839, Note_on_c, 0, 74, 71
1, 448842, Note_on_c, 0, 65, 46
1, 448844, Note_on_c, 0, 77, 76
1, 448920, Note_off_c, 0, 74, 64
1, 448934, Note_off_c, 0, 65, 64
1, 448962, Note_off_c, 0, 77, 64
1, 449098, Note_on_c, 0, 77, 72
1, 449100, Note_on_c, 0, 65, 49
1, 449118, Note_on_c, 0, 74, 53
1, 449190, Note_off_c, 0, 65, 64
1, 449318, Note_off_c, 0, 74, 64
1, 449358, Note_off_c, 0, 77, 64
1, 449361, Note_on_c, 0, 73, 61
1, 449366, Note_on_c, 0, 65, 47
1, 449368, Note_on_c, 0, 76, 74
1, 449426, Note_off_c, 0, 73, 64
1, 449452, Note_off_c, 0, 65, 64
1, 449470, Note_off_c, 0, 76, 64
1, 449628, Note_on_c, 0, 73, 68
1, 449631, Note_on_c, 0, 65, 43
1, 449640, Note_on_c, 0, 76, 75
1, 449700, Note_off_c, 0, 73, 64
1, 449708, Note_off_c, 0, 65, 64
1, 449878, Note_on_c, 0, 75, 74
1, 449884, Note_off_c, 0, 76, 64
1, 449886, Note_on_c, 0, 65, 44
1, 449888, Note_on_c, 0, 72, 67
1, 449954, Note_off_c, 0, 75, 64
1, 449960, Note_off_c, 0, 72, 64
1, 449964, Note_off_c, 0, 65, 64
1, 450130, Note_on_c, 0, 75, 68
1, 450138, Note_on_c, 0, 72, 72
1, 450140, Note_on_c, 0, 65, 44
1, 450220, Note_off_c, 0, 65, 64
1, 450236, Note_off_c, 0, 72, 64
1, 450388, Note_off_c, 0, 75, 64
1, 450388, Note_on_c, 0, 71, 51
1, 450396, Note_on_c, 0, 65, 45
1, 450402, Note_on_c, 0, 74, 65
1, 450446, Note_off_c, 0, 74, 64
1, 450482, Note_off_c, 0, 71, 64
1, 450488, Note_off_c, 0, 65, 64
1, 450654, Note_on_c, 0, 74, 48
1, 450664, Note_on_c, 0, 71, 41
1, 450666, Note_on_c, 0, 65, 46
1, 450746, Note_off_c, 0, 65, 64
1, 450786, Note_off_c, 0, 71, 64
1, 450890, Note_off_c, 0, 74, 64
1, 450900, Note_on_c, 0, 70, 52
1, 450910, Note_on_c, 0, 73, 52
1, 450938, Note_on_c, 0, 65, 30
1, 451004, Note_off_c, 0, 70, 64
1, 451008, Note_off_c, 0, 65, 64
1, 451028, Note_off_c, 0, 73, 64
1, 451166, Note_on_c, 0, 73, 48
1, 451178, Note_on_c, 0, 70, 49
1, 451180, Note_on_c, 0, 65, 35
1, 451266, Note_off_c, 0, 65, 64
1, 451418, Note_off_c, 0, 73, 64
1, 451446, Note_off_c, 0, 70, 64
1, 451458, Note_on_c, 0, 65, 37
1, 451480, Note_on_c, 0, 72, 36
1, 451496, Note_on_c, 0, 69, 23
1, 451546, Note_off_c, 0, 65, 64
1, 451710, Note_on_c, 0, 65, 37
1, 451796, Note_off_c, 0, 72, 64
1, 451800, Note_off_c, 0, 69, 64
1, 451808, Note_off_c, 0, 65, 64
1, 451972, Note_on_c, 0, 65, 40
1, 452042, Note_off_c, 0, 65, 64
1, 452216, Note_on_c, 0, 65, 41
1, 452322, Note_off_c, 0, 65, 64
1, 452492, Note_on_c, 0, 69, 66
1, 452500, Note_on_c, 0, 60, 50
1, 452534, Note_on_c, 0, 41, 17
1, 452594, Control_c, 0, 64, 127
1, 452712, Note_off_c, 0, 41, 64
1, 452758, Note_on_c, 0, 53, 42
1, 452826, Note_off_c, 0, 53, 64
1, 453010, Note_on_c, 0, 53, 29
1, 453076, Note_off_c, 0, 53, 64
1, 453262, Note_on_c, 0, 53, 53
1, 453328, Note_off_c, 0, 53, 64
1, 453470, Control_c, 0, 64, 0
1, 453494, Note_off_c, 0, 60, 64
1, 453532, Note_on_c, 0, 53, 55
1, 453592, Note_off_c, 0, 53, 64
1, 453592, Control_c, 0, 64, 127
1, 453756, Note_on_c, 0, 70, 80
1, 453766, Note_on_c, 0, 62, 49
1, 453771, Note_off_c, 0, 69, 64
1, 453776, Note_on_c, 0, 53, 56
1, 453838, Note_off_c, 0, 53, 64
1, 453841, Note_off_c, 0, 62, 64
1, 453884, Control_c, 0, 64, 0
1, 454006, Note_on_c, 0, 72, 94
1, 454006, Note_on_c, 0, 63, 72
1, 454032, Note_on_c, 0, 53, 45
1, 454042, Note_off_c, 0, 70, 64
1, 454110, Note_off_c, 0, 53, 64
1, 454162, Note_off_c, 0, 63, 64
1, 454222, Control_c, 0, 64, 127
1, 454278, Note_on_c, 0, 74, 83
1, 454281, Note_on_c, 0, 65, 77
1, 454281, Note_on_c, 0, 53, 55
1, 454281, Control_c, 0, 64, 0
1, 454306, Note_off_c, 0, 72, 64
1, 454344, Note_off_c, 0, 53, 64
1, 454378, Note_off_c, 0, 65, 64
1, 454422, Control_c, 0, 64, 127
1, 454482, Control_c, 0, 64, 0
1, 454556, Note_on_c, 0, 75, 66
1, 454572, Note_off_c, 0, 74, 64
1, 454572, Note_on_c, 0, 53, 48
1, 454585, Note_on_c, 0, 67, 53
1, 454636, Note_off_c, 0, 53, 64
1, 454652, Control_c, 0, 64, 127
1, 454670, Note_off_c, 0, 67, 64
1, 454702, Note_off_c, 0, 75, 64
1, 454760, Control_c, 0, 64, 0
1, 454824, Note_on_c, 0, 53, 52
1, 454828, Note_on_c, 0, 75, 58
1, 454842, Note_on_c, 0, 67, 57
1, 454906, Note_off_c, 0, 53, 64
1, 454912, Control_c, 0, 64, 127
1, 454932, Note_off_c, 0, 67, 64
1, 455006, Control_c, 0, 64, 0
1, 455066, Note_off_c, 0, 75, 64
1, 455074, Note_on_c, 0, 65, 69
1, 455078, Note_on_c, 0, 74, 69
1, 455106, Note_on_c, 0, 53, 47
1, 455160, Control_c, 0, 64, 127
1, 455166, Note_off_c, 0, 53, 64
1, 455178, Note_off_c, 0, 74, 64
1, 455186, Note_off_c, 0, 65, 64
1, 455252, Control_c, 0, 64, 0
1, 455316, Note_on_c, 0, 74, 69
1, 455350, Note_on_c, 0, 53, 47
1, 455362, Note_on_c, 0, 65, 31
1, 455414, Note_off_c, 0, 53, 64
1, 455436, Control_c, 0, 64, 127
1, 455476, Note_off_c, 0, 65, 64
1, 455528, Control_c, 0, 64, 0
1, 455584, Note_on_c, 0, 73, 62
1, 455592, Note_off_c, 0, 74, 64
1, 455610, Note_on_c, 0, 53, 48
1, 455612, Note_on_c, 0, 64, 45
1, 455670, Note_off_c, 0, 53, 64
1, 455706, Note_off_c, 0, 64, 64
1, 455712, Control_c, 0, 64, 127
1, 455728, Note_off_c, 0, 73, 64
1, 455804, Control_c, 0, 64, 0
1, 455834, Note_on_c, 0, 73, 63
1, 455864, Note_on_c, 0, 53, 51
1, 455876, Note_on_c, 0, 64, 25
1, 455930, Note_off_c, 0, 53, 64
1, 455970, Note_off_c, 0, 64, 64
1, 456004, Control_c, 0, 64, 127
1, 456080, Control_c, 0, 64, 0
1, 456100, Note_off_c, 0, 73, 64
1, 456106, Note_on_c, 0, 63, 59
1, 456128, Note_on_c, 0, 72, 62
1, 456128, Note_on_c, 0, 53, 46
1, 456194, Note_off_c, 0, 53, 64
1, 456204, Note_off_c, 0, 63, 64
1, 456206, Note_off_c, 0, 72, 64
1, 456250, Control_c, 0, 64, 127
1, 456326, Control_c, 0, 64, 0
1, 456366, Note_on_c, 0, 72, 81
1, 456380, Note_on_c, 0, 63, 58
1, 456384, Note_on_c, 0, 53, 38
1, 456456, Note_off_c, 0, 53, 64
1, 456496, Control_c, 0, 64, 127
1, 456534, Note_off_c, 0, 63, 64
1, 456572, Control_c, 0, 64, 0
1, 456612, Note_off_c, 0, 72, 64
1, 456628, Note_on_c, 0, 62, 54
1, 456632, Note_on_c, 0, 71, 55
1, 456654, Note_on_c, 0, 53, 40
1, 456716, Note_off_c, 0, 53, 64
1, 456736, Note_off_c, 0, 62, 64
1, 456744, Note_off_c, 0, 71, 64
1, 456758, Control_c, 0, 64, 127
1, 456834, Control_c, 0, 64, 0
1, 456904, Note_on_c, 0, 53, 48
1, 456912, Note_on_c, 0, 62, 51
1, 456936, Note_on_c, 0, 71, 28
1, 456978, Note_off_c, 0, 53, 64
1, 456981, Note_off_c, 0, 62, 64
1, 457002, Control_c, 0, 64, 127
1, 457126, Control_c, 0, 64, 0
1, 457154, Note_off_c, 0, 71, 64
1, 457166, Note_on_c, 0, 70, 58
1, 457176, Note_on_c, 0, 61, 49
1, 457200, Note_on_c, 0, 53, 37
1, 457274, Note_off_c, 0, 53, 64
1, 457298, Note_off_c, 0, 61, 64
1, 457310, Control_c, 0, 64, 127
1, 457322, Note_off_c, 0, 70, 64
1, 457418, Control_c, 0, 64, 0
1, 457490, Note_on_c, 0, 53, 31
1, 457494, Note_on_c, 0, 70, 43
1, 457496, Note_on_c, 0, 61, 38
1, 457586, Note_off_c, 0, 53, 64
1, 457664, Control_c, 0, 64, 127
1, 457746, Note_off_c, 0, 61, 64
1, 457786, Control_c, 0, 64, 0
1, 457900, Note_off_c, 0, 70, 64
1, 457900, Note_on_c, 0, 69, 26
1, 457906, Note_on_c, 0, 60, 26
1, 457934, Note_on_c, 0, 53, 25
1, 458432, Control_c, 0, 64, 127
1, 458522, Note_off_c, 0, 53, 64
1, 458566, Note_off_c, 0, 69, 64
1, 458572, Note_off_c, 0, 60, 64
1, 458694, Control_c, 0, 64, 0
1, 459170, Control_c, 0, 64, 127
1, 459414, Note_on_c, 0, 62, 51
1, 459417, Note_on_c, 0, 53, 30
1, 459420, Note_on_c, 0, 46, 49
1, 460536, Note_on_c, 0, 60, 32
1, 460564, Note_off_c, 0, 46, 64
1, 460566, Note_on_c, 0, 48, 31
1, 460614, Note_off_c, 0, 62, 64
1, 460702, Note_on_c, 0, 58, 42
1, 460720, Note_on_c, 0, 50, 51
1, 460734, Note_off_c, 0, 48, 64
1, 460738, Note_off_c, 0, 60, 64
1, 460810, Note_off_c, 0, 50, 64
1, 460838, Note_off_c, 0, 58, 64
1, 460860, Control_c, 0, 64, 0
1, 460860, Note_on_c, 0, 51, 45
1, 460872, Note_on_c, 0, 57, 47
1, 461350, Control_c, 0, 64, 127
1, 461355, Note_off_c, 0, 57, 64
1, 461448, Note_off_c, 0, 51, 64
1, 461464, Note_off_c, 0, 53, 64
1, 461658, Control_c, 0, 64, 0
1, 461972, Note_on_c, 0, 69, 65
1, 461982, Control_c, 0, 64, 127
1, 462158, Note_on_c, 0, 75, 81
1, 462192, Note_off_c, 0, 69, 64
1, 462366, Control_c, 0, 64, 0
1, 462718, Control_c, 0, 64, 127
1, 463006, Note_on_c, 0, 72, 63
1, 463128, Note_off_c, 0, 75, 64
1, 463142, Note_on_c, 0, 69, 71
1, 463168, Note_off_c, 0, 72, 64
1, 463322, Note_on_c, 0, 58, 61
1, 463325, Note_on_c, 0, 50, 58
1, 463325, Note_on_c, 0, 77, 85
1, 463338, Note_off_c, 0, 69, 64
1, 463364, Control_c, 0, 64, 0
1, 463824, Control_c, 0, 64, 127
1, 463978, Control_c, 0, 64, 0
1, 463984, Note_on_c, 0, 74, 58
1, 464016, Note_off_c, 0, 77, 64
1, 464162, Note_on_c, 0, 70, 65
1, 464164, Note_off_c, 0, 74, 64
1, 464608, Control_c, 0, 64, 127
1, 464754, Note_on_c, 0, 51, 29
1, 464768, Note_off_c, 0, 50, 64
1, 464832, Note_off_c, 0, 70, 64
1, 464894, Note_on_c, 0, 69, 43
1, 464966, Note_off_c, 0, 69, 64
1, 464978, Control_c, 0, 64, 0
1, 464984, Note_on_c, 0, 70, 64
1, 465058, Note_on_c, 0, 69, 71
1, 465132, Note_off_c, 0, 70, 64
1, 465176, Note_off_c, 0, 69, 64
1, 465176, Note_on_c, 0, 67, 74
1, 465260, Note_on_c, 0, 69, 77
1, 465312, Note_off_c, 0, 67, 64
1, 465442, Note_on_c, 0, 72, 71
1, 465456, Note_off_c, 0, 69, 64
1, 465766, Note_on_c, 0, 70, 68
1, 465776, Control_c, 0, 64, 127
1, 465806, Control_c, 0, 64, 0
1, 465828, Note_off_c, 0, 72, 64
1, 465944, Control_c, 0, 64, 127
1, 466116, Note_on_c, 0, 69, 45
1, 466176, Control_c, 0, 64, 0
1, 466184, Note_on_c, 0, 55, 43
1, 466236, Note_off_c, 0, 70, 64
1, 466308, Note_off_c, 0, 51, 64
1, 466442, Note_on_c, 0, 67, 52
1, 466474, Note_off_c, 0, 69, 64
1, 466514, Control_c, 0, 64, 127
1, 466762, Note_on_c, 0, 65, 53
1, 466784, Note_off_c, 0, 67, 64
1, 466990, Control_c, 0, 64, 0
1, 467076, Note_on_c, 0, 63, 54
1, 467152, Note_off_c, 0, 65, 64
1, 467190, Control_c, 0, 64, 127
1, 467256, Note_off_c, 0, 58, 64
1, 467444, Note_off_c, 0, 55, 64
1, 467466, Note_on_c, 0, 58, 36
1, 467466, Note_on_c, 0, 62, 42
1, 467466, Control_c, 0, 64, 0
1, 467504, Note_on_c, 0, 53, 41
1, 467512, Note_off_c, 0, 63, 64
1, 467816, Note_on_c, 0, 65, 51
1, 467860, Note_off_c, 0, 62, 64
1, 467958, Control_c, 0, 64, 127
1, 468042, Note_off_c, 0, 65, 64
1, 468134, Note_off_c, 0, 58, 64
1, 468152, Note_off_c, 0, 53, 64
1, 468238, Note_on_c, 0, 65, 53
1, 469050, Note_on_c, 0, 58, 51
1, 469076, Note_on_c, 0, 50, 31
1, 469086, Note_on_c, 0, 41, 31
1, 469224, Note_off_c, 0, 65, 64
1, 469412, Note_on_c, 0, 65, 60
1, 469770, Note_on_c, 0, 67, 59
1, 469776, Note_off_c, 0, 65, 64
1, 470062, Note_on_c, 0, 65, 73
1, 470078, Note_off_c, 0, 67, 64
1, 470204, Note_off_c, 0, 65, 64
1, 470228, Note_off_c, 0, 58, 64
1, 470318, Note_off_c, 0, 50, 64
1, 470386, Note_on_c, 0, 65, 52
1, 470402, Note_on_c, 0, 57, 48
1, 470434, Note_on_c, 0, 48, 43
1, 470462, Control_c, 0, 64, 0
1, 470744, Note_on_c, 0, 63, 53
1, 470828, Note_off_c, 0, 65, 64
1, 471092, Control_c, 0, 64, 127
1, 471102, Note_on_c, 0, 62, 49
1, 471124, Control_c, 0, 64, 0
1, 471130, Note_off_c, 0, 63, 64
1, 471338, Control_c, 0, 64, 127
1, 471476, Control_c, 0, 64, 0
1, 471540, Note_off_c, 0, 62, 64
1, 471542, Note_on_c, 0, 63, 48
1, 471676, Control_c, 0, 64, 127
1, 471722, Note_off_c, 0, 48, 64
1, 471748, Note_off_c, 0, 41, 64
1, 471794, Note_off_c, 0, 63, 64
1, 471814, Note_off_c, 0, 57, 64
1, 472150, Note_on_c, 0, 63, 48
1, 472158, Note_on_c, 0, 42, 38
1, 472172, Note_on_c, 0, 57, 31
1, 472208, Note_on_c, 0, 48, 20
1, 472490, Control_c, 0, 64, 0
1, 472906, Control_c, 0, 64, 127
1, 473214, Note_off_c, 0, 48, 64
1, 473426, Note_off_c, 0, 42, 64
1, 473430, Note_off_c, 0, 57, 64
1, 474046, Note_on_c, 0, 62, 21
1, 474052, Note_on_c, 0, 58, 20
1, 474082, Note_on_c, 0, 43, 21
1, 474084, Note_on_c, 0, 46, 27
1, 474244, Note_off_c, 0, 63, 64
1, 474380, Control_c, 0, 64, 0
1, 474796, Control_c, 0, 64, 127
1, 474964, Note_off_c, 0, 46, 64
1, 475012, Note_off_c, 0, 62, 64
1, 475024, Note_off_c, 0, 43, 64
1, 475032, Note_off_c, 0, 58, 64
1, 475226, Control_c, 0, 64, 0
1, 475918, Control_c, 0, 64, 127
1, 476750, Note_on_c, 0, 34, 34
1, 476768, Note_on_c, 0, 50, 49
1, 476778, Note_on_c, 0, 41, 22
1, 477518, Note_off_c, 0, 34, 64
1, 477866, Note_off_c, 0, 50, 64
1, 477880, Note_on_c, 0, 48, 34
1, 477900, Note_on_c, 0, 36, 24
1, 477980, Note_off_c, 0, 36, 64
1, 478032, Note_on_c, 0, 46, 49
1, 478038, Note_on_c, 0, 38, 20
1, 478084, Note_off_c, 0, 48, 64
1, 478110, Note_off_c, 0, 38, 64
1, 478130, Control_c, 0, 64, 0
1, 478142, Note_off_c, 0, 46, 64
1, 478144, Note_on_c, 0, 39, 25
1, 478204, Note_on_c, 0, 45, 52
1, 478574, Control_c, 0, 64, 127
1, 478612, Note_off_c, 0, 45, 64
1, 478674, Note_off_c, 0, 41, 64
1, 478706, Note_off_c, 0, 39, 64
1, 478898, Control_c, 0, 64, 0
1, 479190, Control_c, 0, 64, 127
1, 479386, Note_on_c, 0, 57, 58
1, 479572, Note_on_c, 0, 63, 64
1, 479592, Note_off_c, 0, 57, 64
1, 479728, Control_c, 0, 64, 0
1, 480050, Control_c, 0, 64, 127
1, 480430, Note_on_c, 0, 60, 32
1, 480512, Note_off_c, 0, 60, 64
1, 480520, Note_off_c, 0, 63, 64
1, 480542, Note_on_c, 0, 57, 65
1, 480697, Note_off_c, 0, 57, 64
1, 480704, Note_on_c, 0, 50, 41
1, 480710, Note_on_c, 0, 53, 34
1, 480714, Note_on_c, 0, 65, 69
1, 480726, Control_c, 0, 64, 0
1, 481002, Control_c, 0, 64, 127
1, 481136, Note_on_c, 0, 62, 52
1, 481160, Note_off_c, 0, 65, 64
1, 481188, Control_c, 0, 64, 0
1, 481280, Note_on_c, 0, 58, 83
1, 481292, Note_off_c, 0, 62, 64
1, 481352, Note_off_c, 0, 50, 64
1, 481360, Note_off_c, 0, 53, 64
1, 481402, Control_c, 0, 64, 127
1, 481414, Note_off_c, 0, 58, 64
1, 481802, Control_c, 0, 64, 0
1, 481824, Note_on_c, 0, 77, 83
1, 481846, Note_on_c, 0, 65, 45
1, 481849, Note_on_c, 0, 62, 35
1, 482310, Note_on_c, 0, 74, 53
1, 482338, Note_off_c, 0, 77, 64
1, 482486, Note_off_c, 0, 74, 64
1, 482532, Note_off_c, 0, 65, 64
1, 482552, Note_on_c, 0, 71, 27
1, 482554, Note_off_c, 0, 62, 64
1, 482984, Note_off_c, 0, 71, 64
1, 484218, Note_on_c, 0, 51, 76
1, 484228, Note_on_c, 0, 43, 61
1, 484238, Note_on_c, 0, 36, 65
1, 484460, Control_c, 0, 64, 127
1, 485382, Note_on_c, 0, 50, 60
1, 485404, Note_on_c, 0, 38, 42
1, 485494, Note_on_c, 0, 39, 64
1, 485500, Note_off_c, 0, 36, 64
1, 485510, Note_on_c, 0, 48, 70
1, 485626, Note_off_c, 0, 38, 64
1, 485638, Note_on_c, 0, 41, 57
1, 485662, Note_on_c, 0, 47, 66
1, 485710, Note_off_c, 0, 39, 64
1, 485736, Control_c, 0, 64, 0
1, 485820, Note_off_c, 0, 48, 64
1, 485822, Note_off_c, 0, 50, 64
1, 485832, Note_off_c, 0, 51, 64
1, 486166, Control_c, 0, 64, 127
1, 486228, Note_off_c, 0, 47, 64
1, 486260, Note_off_c, 0, 43, 64
1, 486280, Note_off_c, 0, 41, 64
1, 486504, Control_c, 0, 64, 0
1, 486734, Note_on_c, 0, 59, 64
1, 486780, Control_c, 0, 64, 127
1, 486918, Note_on_c, 0, 65, 89
1, 486992, Note_off_c, 0, 59, 64
1, 487010, Control_c, 0, 64, 0
1, 487380, Control_c, 0, 64, 127
1, 487734, Note_on_c, 0, 62, 77
1, 487784, Note_off_c, 0, 65, 64
1, 487880, Note_on_c, 0, 59, 79
1, 487992, Note_off_c, 0, 62, 64
1, 488046, Note_on_c, 0, 51, 58
1, 488049, Note_on_c, 0, 67, 79
1, 488052, Note_on_c, 0, 55, 57
1, 488070, Note_off_c, 0, 59, 64
1, 488072, Control_c, 0, 64, 0
1, 488362, Control_c, 0, 64, 127
1, 488466, Note_on_c, 0, 63, 72
1, 488546, Note_off_c, 0, 67, 64
1, 488558, Note_off_c, 0, 55, 64
1, 488610, Note_off_c, 0, 51, 64
1, 488640, Note_on_c, 0, 60, 84
1, 488696, Note_off_c, 0, 63, 64
1, 488864, Note_off_c, 0, 60, 64
1, 489242, Note_on_c, 0, 79, 73
1, 489280, Note_on_c, 0, 67, 36
1, 489294, Note_on_c, 0, 64, 25
1, 489362, Control_c, 0, 64, 0
1, 489716, Control_c, 0, 64, 127
1, 489870, Note_on_c, 0, 76, 44
1, 489900, Note_off_c, 0, 79, 64
1, 489976, Control_c, 0, 64, 0
1, 490016, Note_off_c, 0, 76, 64
1, 490064, Note_on_c, 0, 73, 45
1, 490176, Note_off_c, 0, 64, 64
1, 490194, Note_off_c, 0, 67, 64
1, 490452, Control_c, 0, 64, 127
1, 490478, Note_off_c, 0, 73, 64
1, 490606, Control_c, 0, 64, 0
1, 491976, Note_on_c, 0, 53, 95
1, 491980, Note_on_c, 0, 45, 78
1, 491984, Note_on_c, 0, 38, 72
1, 492312, Control_c, 0, 64, 127
1, 493126, Note_on_c, 0, 52, 70
1, 493128, Note_on_c, 0, 40, 64
1, 493240, Note_off_c, 0, 38, 64
1, 493262, Note_on_c, 0, 50, 80
1, 493270, Note_on_c, 0, 41, 66
1, 493302, Note_off_c, 0, 53, 64
1, 493374, Note_off_c, 0, 40, 64
1, 493396, Note_off_c, 0, 52, 64
1, 493406, Note_on_c, 0, 49, 74
1, 493414, Note_on_c, 0, 43, 69
1, 493464, Control_c, 0, 64, 0
1, 493520, Note_off_c, 0, 41, 64
1, 493550, Note_off_c, 0, 50, 64
1, 493940, Control_c, 0, 64, 127
1, 494020, Note_off_c, 0, 49, 64
1, 494060, Note_off_c, 0, 45, 64
1, 494063, Note_off_c, 0, 43, 64
1, 494232, Control_c, 0, 64, 0
1, 494484, Note_on_c, 0, 61, 84
1, 494492, Control_c, 0, 64, 127
1, 494674, Note_on_c, 0, 67, 90
1, 494710, Note_off_c, 0, 61, 64
1, 494770, Control_c, 0, 64, 0
1, 495138, Control_c, 0, 64, 127
1, 495504, Note_on_c, 0, 64, 76
1, 495542, Note_off_c, 0, 67, 64
1, 495626, Note_on_c, 0, 61, 85
1, 495720, Note_off_c, 0, 64, 64
1, 495784, Note_on_c, 0, 69, 94
1, 495792, Note_on_c, 0, 57, 67
1, 495796, Note_on_c, 0, 53, 59
1, 495800, Control_c, 0, 64, 0
1, 495816, Note_off_c, 0, 61, 64
1, 496076, Control_c, 0, 64, 127
1, 496216, Note_on_c, 0, 65, 88
1, 496272, Note_off_c, 0, 69, 64
1, 496276, Control_c, 0, 64, 0
1, 496334, Note_off_c, 0, 65, 64
1, 496348, Note_on_c, 0, 62, 93
1, 496390, Note_off_c, 0, 57, 64
1, 496398, Note_off_c, 0, 53, 64
1, 496444, Control_c, 0, 64, 127
1, 496474, Note_off_c, 0, 62, 64
1, 496736, Control_c, 0, 64, 0
1, 496876, Note_on_c, 0, 81, 83
1, 496876, Note_on_c, 0, 69, 51
1, 496888, Note_on_c, 0, 65, 44
1, 497136, Control_c, 0, 64, 127
1, 497318, Note_on_c, 0, 77, 68
1, 497320, Control_c, 0, 64, 0
1, 497352, Note_off_c, 0, 81, 64
1, 497478, Note_off_c, 0, 77, 64
1, 497512, Note_on_c, 0, 74, 52
1, 497734, Control_c, 0, 64, 127
1, 497752, Note_off_c, 0, 65, 64
1, 497766, Note_off_c, 0, 69, 64
1, 497860, Note_off_c, 0, 74, 64
1, 498042, Control_c, 0, 64, 0
1, 498946, Note_on_c, 0, 72, 66
1, 498954, Note_on_c, 0, 62, 29
1, 498957, Note_on_c, 0, 54, 33
1, 499240, Control_c, 0, 64, 127
1, 499256, Note_off_c, 0, 62, 64
1, 499482, Note_on_c, 0, 69, 38
1, 499518, Note_off_c, 0, 72, 64
1, 499626, Control_c, 0, 64, 0
1, 499640, Note_off_c, 0, 69, 64
1, 499674, Note_on_c, 0, 62, 37
1, 499748, Note_off_c, 0, 54, 64
1, 499810, Control_c, 0, 64, 127
1, 499836, Note_off_c, 0, 62, 64
1, 500362, Control_c, 0, 64, 0
1, 500364, Note_on_c, 0, 84, 45
1, 500380, Note_on_c, 0, 74, 25
1, 500426, Note_on_c, 0, 66, 32
1, 500840, Control_c, 0, 64, 127
1, 500884, Note_off_c, 0, 74, 64
1, 501148, Note_on_c, 0, 81, 30
1, 501172, Note_off_c, 0, 84, 64
1, 501324, Note_off_c, 0, 81, 64
1, 501386, Note_on_c, 0, 74, 25
1, 501438, Control_c, 0, 64, 0
1, 501466, Note_off_c, 0, 66, 64
1, 501806, Note_off_c, 0, 74, 64
1, 503154, Note_on_c, 0, 74, 110
1, 503156, Note_on_c, 0, 55, 110
1, 503158, Note_on_c, 0, 43, 108
1, 503220, Control_c, 0, 64, 127
1, 503292, Note_on_c, 0, 82, 101
1, 503332, Note_off_c, 0, 74, 64
1, 503408, Note_on_c, 0, 81, 101
1, 503436, Note_off_c, 0, 82, 64
1, 503512, Note_on_c, 0, 82, 94
1, 503556, Note_off_c, 0, 81, 64
1, 503606, Note_on_c, 0, 74, 101
1, 503634, Note_off_c, 0, 82, 64
1, 503688, Note_off_c, 0, 43, 64
1, 503696, Note_off_c, 0, 74, 64
1, 503698, Note_on_c, 0, 82, 104
1, 503744, Note_off_c, 0, 55, 64
1, 503798, Note_on_c, 0, 81, 101
1, 503822, Note_off_c, 0, 82, 64
1, 503904, Note_on_c, 0, 82, 96
1, 503956, Note_off_c, 0, 81, 64
1, 503959, Control_c, 0, 64, 0
1, 503994, Note_on_c, 0, 74, 101
1, 504028, Note_off_c, 0, 82, 64
1, 504092, Note_on_c, 0, 82, 105
1, 504108, Note_off_c, 0, 74, 64
1, 504192, Note_on_c, 0, 79, 97
1, 504220, Note_off_c, 0, 82, 64
1, 504296, Note_on_c, 0, 82, 98
1, 504334, Note_off_c, 0, 79, 64
1, 504412, Note_on_c, 0, 74, 105
1, 504412, Note_on_c, 0, 43, 97
1, 504422, Note_off_c, 0, 82, 64
1, 504510, Note_on_c, 0, 55, 100
1, 504513, Note_on_c, 0, 82, 94
1, 504520, Note_off_c, 0, 43, 64
1, 504522, Note_off_c, 0, 74, 64
1, 504588, Note_off_c, 0, 55, 64
1, 504588, Control_c, 0, 64, 127
1, 504624, Note_on_c, 0, 54, 86
1, 504626, Note_on_c, 0, 79, 95
1, 504646, Note_off_c, 0, 82, 64
1, 504740, Note_on_c, 0, 55, 97
1, 504742, Note_on_c, 0, 82, 95
1, 504764, Note_off_c, 0, 79, 64
1, 504770, Note_off_c, 0, 54, 64
1, 504804, Control_c, 0, 64, 0
1, 504852, Note_off_c, 0, 55, 64
1, 504854, Note_on_c, 0, 74, 101
1, 504866, Note_on_c, 0, 45, 110
1, 504872, Note_off_c, 0, 82, 64
1, 504954, Note_on_c, 0, 82, 93
1, 504958, Note_on_c, 0, 57, 101
1, 504962, Note_off_c, 0, 74, 64
1, 504974, Note_off_c, 0, 45, 64
1, 505016, Note_off_c, 0, 57, 64
1, 505019, Control_c, 0, 64, 127
1, 505060, Note_on_c, 0, 55, 101
1, 505066, Note_on_c, 0, 77, 92
1, 505088, Note_off_c, 0, 82, 64
1, 505138, Note_on_c, 0, 57, 82
1, 505152, Note_on_c, 0, 82, 100
1, 505155, Note_off_c, 0, 55, 64
1, 505155, Control_c, 0, 64, 0
1, 505192, Note_off_c, 0, 77, 64
1, 505194, Note_off_c, 0, 57, 64
1, 505240, Note_on_c, 0, 46, 117
1, 505246, Note_on_c, 0, 74, 101
1, 505284, Note_off_c, 0, 82, 64
1, 505336, Note_on_c, 0, 58, 114
1, 505340, Note_on_c, 0, 82, 108
1, 505356, Note_off_c, 0, 46, 64
1, 505356, Note_off_c, 0, 74, 64
1, 505372, Control_c, 0, 64, 127
1, 505434, Note_on_c, 0, 57, 99
1, 505437, Note_off_c, 0, 58, 64
1, 505462, Note_on_c, 0, 77, 98
1, 505484, Note_off_c, 0, 82, 64
1, 505548, Note_off_c, 0, 57, 64
1, 505551, Note_on_c, 0, 82, 99
1, 505554, Note_on_c, 0, 58, 107
1, 505598, Note_off_c, 0, 77, 64
1, 505664, Note_off_c, 0, 58, 64
1, 505700, Note_on_c, 0, 72, 108
1, 505700, Note_on_c, 0, 60, 112
1, 505704, Note_off_c, 0, 82, 64
1, 505716, Note_on_c, 0, 48, 105
1, 505726, Control_c, 0, 64, 0
1, 505816, Note_on_c, 0, 82, 90
1, 505934, Note_on_c, 0, 77, 99
1, 505960, Note_off_c, 0, 72, 64
1, 505963, Note_off_c, 0, 82, 64
1, 506032, Note_on_c, 0, 82, 94
1, 506048, Control_c, 0, 64, 127
1, 506066, Note_off_c, 0, 77, 64
1, 506074, Note_off_c, 0, 48, 64
1, 506142, Note_off_c, 0, 60, 64
1, 506145, Note_on_c, 0, 72, 103
1, 506164, Note_off_c, 0, 82, 64
1, 506244, Note_off_c, 0, 72, 64
1, 506244, Note_on_c, 0, 82, 92
1, 506342, Note_on_c, 0, 77, 100
1, 506362, Note_off_c, 0, 82, 64
1, 506432, Control_c, 0, 64, 0
1, 506438, Note_on_c, 0, 82, 92
1, 506468, Note_off_c, 0, 77, 64
1, 506544, Note_on_c, 0, 72, 92
1, 506568, Note_off_c, 0, 82, 64
1, 506628, Note_on_c, 0, 82, 95
1, 506630, Note_off_c, 0, 72, 64
1, 506724, Control_c, 0, 64, 127
1, 506730, Note_on_c, 0, 76, 92
1, 506750, Note_off_c, 0, 82, 64
1, 506812, Note_on_c, 0, 82, 100
1, 506844, Note_off_c, 0, 76, 64
1, 506930, Note_on_c, 0, 72, 97
1, 506938, Note_on_c, 0, 36, 101
1, 506940, Note_off_c, 0, 82, 64
1, 507002, Note_off_c, 0, 36, 64
1, 507014, Note_on_c, 0, 48, 105
1, 507022, Note_on_c, 0, 82, 89
1, 507026, Note_off_c, 0, 72, 64
1, 507114, Note_off_c, 0, 48, 64
1, 507126, Note_on_c, 0, 76, 96
1, 507136, Note_on_c, 0, 47, 86
1, 507142, Note_off_c, 0, 82, 64
1, 507218, Note_on_c, 0, 82, 88
1, 507224, Note_off_c, 0, 76, 64
1, 507230, Note_on_c, 0, 48, 89
1, 507244, Note_off_c, 0, 47, 64
1, 507278, Control_c, 0, 64, 0
1, 507316, Note_off_c, 0, 48, 64
1, 507332, Note_on_c, 0, 72, 97
1, 507338, Note_on_c, 0, 38, 108
1, 507346, Note_off_c, 0, 82, 64
1, 507420, Note_off_c, 0, 38, 64
1, 507420, Note_on_c, 0, 82, 91
1, 507432, Note_on_c, 0, 50, 103
1, 507442, Note_off_c, 0, 72, 64
1, 507476, Control_c, 0, 64, 127
1, 507532, Note_off_c, 0, 50, 64
1, 507534, Note_on_c, 0, 77, 93
1, 507536, Note_on_c, 0, 48, 98
1, 507552, Note_off_c, 0, 82, 64
1, 507630, Note_on_c, 0, 50, 84
1, 507630, Note_on_c, 0, 82, 92
1, 507654, Note_off_c, 0, 77, 64
1, 507660, Note_off_c, 0, 48, 64
1, 507692, Control_c, 0, 64, 0
1, 507722, Note_off_c, 0, 50, 64
1, 507738, Note_on_c, 0, 40, 106
1, 507740, Note_on_c, 0, 72, 100
1, 507760, Note_off_c, 0, 82, 64
1, 507830, Note_on_c, 0, 82, 99
1, 507838, Note_off_c, 0, 72, 64
1, 507840, Note_off_c, 0, 40, 64
1, 507840, Note_on_c, 0, 52, 106
1, 507892, Control_c, 0, 64, 127
1, 507934, Note_off_c, 0, 52, 64
1, 507948, Note_on_c, 0, 50, 98
1, 507951, Note_on_c, 0, 79, 95
1, 507964, Note_off_c, 0, 82, 64
1, 508046, Note_on_c, 0, 52, 89
1, 508049, Note_off_c, 0, 50, 64
1, 508052, Note_on_c, 0, 82, 87
1, 508096, Note_off_c, 0, 79, 64
1, 508130, Note_off_c, 0, 52, 64
1, 508198, Note_on_c, 0, 72, 102
1, 508206, Note_on_c, 0, 53, 108
1, 508210, Note_on_c, 0, 41, 101
1, 508218, Note_off_c, 0, 82, 64
1, 508230, Control_c, 0, 64, 0
1, 508346, Note_on_c, 0, 80, 92
1, 508437, Note_off_c, 0, 72, 64
1, 508462, Note_on_c, 0, 79, 98
1, 508496, Note_off_c, 0, 80, 64
1, 508506, Control_c, 0, 64, 127
1, 508584, Note_on_c, 0, 80, 84
1, 508618, Note_off_c, 0, 79, 64
1, 508698, Note_on_c, 0, 72, 101
1, 508716, Note_off_c, 0, 80, 64
1, 508744, Note_off_c, 0, 41, 64
1, 508784, Note_off_c, 0, 53, 64
1, 508804, Note_off_c, 0, 72, 64
1, 508806, Note_on_c, 0, 80, 84
1, 508910, Note_on_c, 0, 79, 95
1, 508926, Note_off_c, 0, 80, 64
1, 509010, Note_on_c, 0, 80, 87
1, 509044, Control_c, 0, 64, 0
1, 509052, Note_off_c, 0, 79, 64
1, 509098, Note_on_c, 0, 72, 97
1, 509138, Note_off_c, 0, 80, 64
1, 509208, Note_on_c, 0, 80, 89
1, 509226, Note_off_c, 0, 72, 64
1, 509244, Control_c, 0, 64, 127
1, 509314, Note_on_c, 0, 77, 97
1, 509338, Note_off_c, 0, 80, 64
1, 509404, Note_on_c, 0, 80, 93
1, 509436, Note_off_c, 0, 77, 64
1, 509516, Note_on_c, 0, 72, 104
1, 509516, Note_on_c, 0, 41, 103
1, 509544, Note_off_c, 0, 80, 64
1, 509614, Note_on_c, 0, 53, 88
1, 509616, Note_off_c, 0, 41, 64
1, 509616, Note_on_c, 0, 80, 88
1, 509624, Note_off_c, 0, 72, 64
1, 509672, Note_off_c, 0, 53, 64
1, 509724, Note_on_c, 0, 77, 93
1, 509728, Note_on_c, 0, 52, 95
1, 509742, Note_off_c, 0, 80, 64
1, 509820, Note_on_c, 0, 53, 95
1, 509822, Note_on_c, 0, 80, 88
1, 509836, Note_off_c, 0, 52, 64
1, 509852, Note_off_c, 0, 77, 64
1, 509918, Note_off_c, 0, 53, 64
1, 509918, Control_c, 0, 64, 0
1, 509934, Note_on_c, 0, 72, 100
1, 509942, Note_on_c, 0, 43, 108
1, 509954, Note_off_c, 0, 80, 64
1, 510038, Note_on_c, 0, 80, 87
1, 510044, Note_on_c, 0, 55, 102
1, 510048, Note_off_c, 0, 43, 64
1, 510080, Note_off_c, 0, 72, 64
1, 510120, Control_c, 0, 64, 127
1, 510142, Note_off_c, 0, 55, 64
1, 510146, Note_on_c, 0, 53, 94
1, 510152, Note_on_c, 0, 75, 87
1, 510176, Note_off_c, 0, 80, 64
1, 510240, Note_on_c, 0, 80, 90
1, 510244, Note_on_c, 0, 55, 84
1, 510252, Note_off_c, 0, 53, 64
1, 510280, Note_off_c, 0, 75, 64
1, 510304, Note_off_c, 0, 55, 64
1, 510362, Note_on_c, 0, 72, 101
1, 510364, Note_on_c, 0, 44, 101
1, 510384, Note_off_c, 0, 80, 64
1, 510438, Note_off_c, 0, 44, 64
1, 510460, Note_on_c, 0, 56, 100
1, 510462, Note_on_c, 0, 80, 88
1, 510480, Note_off_c, 0, 72, 64
1, 510562, Note_off_c, 0, 56, 64
1, 510572, Note_on_c, 0, 55, 97
1, 510584, Note_on_c, 0, 75, 88
1, 510608, Note_off_c, 0, 80, 64
1, 510674, Note_off_c, 0, 55, 64
1, 510682, Note_on_c, 0, 56, 97
1, 510686, Note_on_c, 0, 80, 84
1, 510722, Note_off_c, 0, 75, 64
1, 510760, Note_off_c, 0, 56, 64
1, 510834, Note_on_c, 0, 70, 107
1, 510842, Note_on_c, 0, 58, 116
1, 510852, Note_on_c, 0, 46, 110
1, 510855, Note_off_c, 0, 80, 64
1, 510855, Control_c, 0, 64, 0
1, 510970, Note_on_c, 0, 80, 81
1, 511062, Note_off_c, 0, 70, 64
1, 511098, Note_on_c, 0, 75, 90
1, 511101, Control_c, 0, 64, 127
1, 511122, Note_off_c, 0, 80, 64
1, 511196, Note_on_c, 0, 80, 83
1, 511232, Note_off_c, 0, 75, 64
1, 511258, Note_off_c, 0, 58, 64
1, 511288, Note_off_c, 0, 46, 64
1, 511322, Note_on_c, 0, 70, 104
1, 511346, Note_off_c, 0, 80, 64
1, 511432, Note_on_c, 0, 80, 79
1, 511448, Note_off_c, 0, 70, 64
1, 511558, Note_on_c, 0, 75, 90
1, 511576, Note_off_c, 0, 80, 64
1, 511652, Note_on_c, 0, 80, 82
1, 511670, Note_off_c, 0, 75, 64
1, 511766, Note_on_c, 0, 70, 105
1, 511792, Note_off_c, 0, 80, 64
1, 511868, Note_on_c, 0, 80, 84
1, 511872, Control_c, 0, 64, 0
1, 511878, Note_off_c, 0, 70, 64
1, 511982, Note_on_c, 0, 74, 97
1, 512004, Note_off_c, 0, 80, 64
1, 512078, Note_on_c, 0, 80, 86
1, 512086, Control_c, 0, 64, 127
1, 512108, Note_off_c, 0, 74, 64
1, 512170, Note_on_c, 0, 34, 110
1, 512176, Note_on_c, 0, 70, 100
1, 512214, Note_off_c, 0, 80, 64
1, 512274, Note_off_c, 0, 34, 64
1, 512278, Note_on_c, 0, 80, 88
1, 512278, Note_on_c, 0, 46, 100
1, 512286, Note_off_c, 0, 70, 64
1, 512332, Note_off_c, 0, 46, 64
1, 512350, Note_on_c, 0, 44, 84
1, 512392, Note_on_c, 0, 74, 87
1, 512398, Note_off_c, 0, 44, 64
1, 512404, Note_off_c, 0, 80, 64
1, 512414, Note_on_c, 0, 45, 78
1, 512456, Note_off_c, 0, 45, 64
1, 512462, Note_on_c, 0, 46, 103
1, 512482, Note_on_c, 0, 80, 83
1, 512502, Note_off_c, 0, 74, 64
1, 512558, Note_off_c, 0, 46, 64
1, 512582, Note_on_c, 0, 70, 99
1, 512586, Note_on_c, 0, 36, 108
1, 512614, Note_off_c, 0, 80, 64
1, 512624, Control_c, 0, 64, 0
1, 512664, Note_off_c, 0, 36, 64
1, 512670, Note_on_c, 0, 48, 103
1, 512676, Note_on_c, 0, 80, 92
1, 512720, Note_off_c, 0, 70, 64
1, 512746, Control_c, 0, 64, 127
1, 512760, Note_on_c, 0, 46, 105
1, 512780, Note_on_c, 0, 75, 83
1, 512786, Note_off_c, 0, 48, 64
1, 512802, Note_off_c, 0, 80, 64
1, 512854, Note_on_c, 0, 48, 96
1, 512878, Note_on_c, 0, 80, 85
1, 512904, Note_off_c, 0, 46, 64
1, 512908, Note_off_c, 0, 75, 64
1, 512946, Control_c, 0, 64, 0
1, 512956, Note_off_c, 0, 48, 64
1, 512982, Note_on_c, 0, 38, 106
1, 512985, Note_on_c, 0, 70, 101
1, 513012, Note_off_c, 0, 80, 64
1, 513078, Note_on_c, 0, 50, 105
1, 513080, Note_off_c, 0, 38, 64
1, 513084, Note_on_c, 0, 80, 88
1, 513106, Note_off_c, 0, 70, 64
1, 513130, Control_c, 0, 64, 127
1, 513166, Note_off_c, 0, 50, 64
1, 513194, Note_on_c, 0, 48, 101
1, 513198, Note_on_c, 0, 77, 98
1, 513208, Note_off_c, 0, 80, 64
1, 513278, Note_on_c, 0, 50, 79
1, 513288, Note_off_c, 0, 48, 64
1, 513296, Note_on_c, 0, 80, 83
1, 513316, Note_off_c, 0, 77, 64
1, 513316, Note_off_c, 0, 50, 64
1, 513408, Note_on_c, 0, 70, 103
1, 513428, Note_on_c, 0, 51, 101
1, 513430, Note_on_c, 0, 39, 97
1, 513440, Note_off_c, 0, 80, 64
1, 513470, Control_c, 0, 64, 0
1, 513536, Note_on_c, 0, 78, 92
1, 513558, Note_off_c, 0, 70, 64
1, 513646, Note_off_c, 0, 78, 64
1, 513646, Note_on_c, 0, 77, 85
1, 513698, Control_c, 0, 64, 127
1, 513746, Note_on_c, 0, 78, 78
1, 513768, Note_off_c, 0, 77, 64
1, 513814, Note_off_c, 0, 78, 64
1, 513824, Note_on_c, 0, 70, 98
1, 513842, Note_off_c, 0, 51, 64
1, 513870, Note_off_c, 0, 39, 64
1, 513936, Note_off_c, 0, 70, 64
1, 513942, Note_on_c, 0, 78, 87
1, 514028, Note_on_c, 0, 77, 98
1, 514050, Note_off_c, 0, 78, 64
1, 514114, Control_c, 0, 64, 0
1, 514118, Note_on_c, 0, 78, 90
1, 514144, Note_off_c, 0, 77, 64
1, 514208, Note_on_c, 0, 70, 104
1, 514222, Note_off_c, 0, 78, 64
1, 514314, Note_off_c, 0, 70, 64
1, 514314, Note_on_c, 0, 78, 87
1, 514344, Control_c, 0, 64, 127
1, 514426, Note_on_c, 0, 75, 83
1, 514436, Note_off_c, 0, 78, 64
1, 514510, Note_on_c, 0, 78, 84
1, 514546, Note_off_c, 0, 75, 64
1, 514620, Note_off_c, 0, 78, 64
1, 514623, Note_on_c, 0, 70, 100
1, 514630, Note_on_c, 0, 39, 105
1, 514722, Note_on_c, 0, 78, 77
1, 514734, Note_off_c, 0, 70, 64
1, 514737, Note_on_c, 0, 51, 88
1, 514740, Note_off_c, 0, 39, 64
1, 514822, Note_on_c, 0, 50, 96
1, 514825, Note_off_c, 0, 51, 64
1, 514828, Note_on_c, 0, 75, 83
1, 514846, Note_off_c, 0, 78, 64
1, 514912, Note_on_c, 0, 51, 92
1, 514926, Note_on_c, 0, 78, 76
1, 514936, Note_off_c, 0, 50, 64
1, 514950, Note_off_c, 0, 75, 64
1, 515016, Note_off_c, 0, 51, 64
1, 515028, Note_on_c, 0, 70, 100
1, 515040, Note_on_c, 0, 41, 110
1, 515044, Note_off_c, 0, 78, 64
1, 515082, Control_c, 0, 64, 0
1, 515120, Note_off_c, 0, 41, 64
1, 515122, Note_on_c, 0, 53, 105
1, 515128, Note_on_c, 0, 78, 77
1, 515142, Note_off_c, 0, 70, 64
1, 515206, Control_c, 0, 64, 127
1, 515220, Note_on_c, 0, 51, 98
1, 515222, Note_off_c, 0, 53, 64
1, 515224, Note_on_c, 0, 73, 83
1, 515250, Note_off_c, 0, 78, 64
1, 515300, Note_on_c, 0, 53, 75
1, 515316, Note_on_c, 0, 78, 82
1, 515338, Note_off_c, 0, 73, 64
1, 515350, Note_off_c, 0, 51, 64
1, 515386, Note_off_c, 0, 53, 64
1, 515389, Control_c, 0, 64, 0
1, 515420, Note_on_c, 0, 70, 106
1, 515430, Note_on_c, 0, 42, 101
1, 515442, Note_off_c, 0, 78, 64
1, 515518, Note_on_c, 0, 78, 79
1, 515524, Note_off_c, 0, 42, 64
1, 515526, Note_off_c, 0, 70, 64
1, 515528, Note_on_c, 0, 54, 102
1, 515544, Control_c, 0, 64, 127
1, 515614, Note_off_c, 0, 54, 64
1, 515630, Note_on_c, 0, 53, 97
1, 515632, Note_on_c, 0, 73, 79
1, 515656, Note_off_c, 0, 78, 64
1, 515722, Note_on_c, 0, 78, 81
1, 515728, Note_on_c, 0, 54, 101
1, 515736, Note_off_c, 0, 53, 64
1, 515760, Note_off_c, 0, 73, 64
1, 515806, Note_off_c, 0, 54, 64
1, 515874, Note_off_c, 0, 78, 64
1, 515876, Note_on_c, 0, 68, 87
1, 515904, Note_on_c, 0, 56, 106
1, 515907, Note_on_c, 0, 44, 103
1, 515958, Control_c, 0, 64, 0
1, 516016, Note_on_c, 0, 78, 84
1, 516030, Note_off_c, 0, 68, 64
1, 516136, Note_on_c, 0, 73, 81
1, 516160, Note_off_c, 0, 78, 64
1, 516224, Note_on_c, 0, 78, 82
1, 516234, Control_c, 0, 64, 127
1, 516250, Note_off_c, 0, 73, 64
1, 516318, Note_off_c, 0, 56, 64
1, 516342, Note_on_c, 0, 68, 81
1, 516350, Note_off_c, 0, 78, 64
1, 516398, Note_off_c, 0, 44, 64
1, 516410, Note_off_c, 0, 68, 64
1, 516440, Note_on_c, 0, 78, 75
1, 516556, Note_on_c, 0, 73, 79
1, 516568, Note_off_c, 0, 78, 64
1, 516628, Note_off_c, 0, 73, 64
1, 516640, Note_on_c, 0, 78, 81
1, 516738, Note_on_c, 0, 68, 86
1, 516744, Note_off_c, 0, 78, 64
1, 516790, Note_off_c, 0, 68, 64
1, 516830, Note_on_c, 0, 78, 77
1, 516934, Note_on_c, 0, 72, 95
1, 516942, Note_off_c, 0, 78, 64
1, 517020, Note_on_c, 0, 78, 83
1, 517050, Control_c, 0, 64, 0
1, 517053, Note_off_c, 0, 72, 64
1, 517120, Note_on_c, 0, 32, 113
1, 517120, Note_on_c, 0, 68, 92
1, 517150, Note_off_c, 0, 78, 64
1, 517212, Note_off_c, 0, 32, 64
1, 517212, Note_on_c, 0, 44, 94
1, 517215, Note_on_c, 0, 78, 83
1, 517230, Note_off_c, 0, 68, 64
1, 517248, Control_c, 0, 64, 127
1, 517278, Note_off_c, 0, 44, 64
1, 517320, Note_on_c, 0, 43, 92
1, 517326, Note_on_c, 0, 72, 83
1, 517338, Note_off_c, 0, 78, 64
1, 517390, Note_off_c, 0, 72, 64
1, 517408, Note_on_c, 0, 44, 88
1, 517416, Note_on_c, 0, 78, 77
1, 517423, Note_off_c, 0, 43, 64
1, 517494, Control_c, 0, 64, 0
1, 517499, Note_off_c, 0, 44, 64
1, 517510, Note_on_c, 0, 68, 84
1, 517510, Note_on_c, 0, 34, 121
1, 517526, Note_off_c, 0, 78, 64
1, 517602, Note_on_c, 0, 78, 76
1, 517605, Note_on_c, 0, 46, 117
1, 517614, Note_off_c, 0, 68, 64
1, 517624, Note_off_c, 0, 34, 64
1, 517678, Control_c, 0, 64, 127
1, 517702, Note_off_c, 0, 46, 64
1, 517705, Note_on_c, 0, 44, 88
1, 517708, Note_off_c, 0, 78, 64
1, 517714, Note_on_c, 0, 73, 72
1, 517784, Note_on_c, 0, 46, 91
1, 517806, Note_on_c, 0, 78, 68
1, 517828, Note_off_c, 0, 73, 64
1, 517830, Note_off_c, 0, 44, 64
1, 517878, Control_c, 0, 64, 0
1, 517882, Note_off_c, 0, 46, 64
1, 517900, Note_on_c, 0, 36, 111
1, 517908, Note_on_c, 0, 68, 84
1, 517922, Note_off_c, 0, 78, 64
1, 517986, Note_on_c, 0, 48, 108
1, 518004, Note_on_c, 0, 78, 73
1, 518007, Note_off_c, 0, 36, 64
1, 518034, Note_off_c, 0, 68, 64
1, 518062, Control_c, 0, 64, 127
1, 518072, Note_on_c, 0, 46, 101
1, 518076, Note_off_c, 0, 48, 64
1, 518106, Note_off_c, 0, 78, 64
1, 518106, Note_on_c, 0, 75, 78
1, 518164, Note_on_c, 0, 48, 87
1, 518204, Note_off_c, 0, 46, 64
1, 518210, Note_on_c, 0, 78, 78
1, 518220, Note_off_c, 0, 48, 64
1, 518230, Note_off_c, 0, 75, 64
1, 518304, Note_on_c, 0, 68, 87
1, 518316, Note_on_c, 0, 49, 113
1, 518322, Note_on_c, 0, 37, 101
1, 518346, Note_off_c, 0, 78, 64
1, 518356, Control_c, 0, 64, 0
1, 518432, Note_on_c, 0, 77, 89
1, 518458, Note_off_c, 0, 68, 64
1, 518522, Note_on_c, 0, 75, 84
1, 518540, Note_off_c, 0, 77, 64
1, 518586, Note_off_c, 0, 37, 64
1, 518600, Control_c, 0, 64, 127
1, 518614, Note_on_c, 0, 77, 96
1, 518642, Note_off_c, 0, 49, 64
1, 518658, Note_off_c, 0, 75, 64
1, 518710, Note_on_c, 0, 68, 94
1, 518724, Note_off_c, 0, 77, 64
1, 518816, Control_c, 0, 64, 0
1, 518836, Note_on_c, 0, 77, 74
1, 518862, Note_off_c, 0, 68, 64
1, 518916, Note_on_c, 0, 49, 100
1, 518918, Note_on_c, 0, 73, 80
1, 518926, Note_off_c, 0, 77, 64
1, 518970, Note_on_c, 0, 51, 89
1, 519008, Note_on_c, 0, 77, 80
1, 519040, Note_on_c, 0, 53, 98
1, 519066, Note_off_c, 0, 49, 64
1, 519066, Note_off_c, 0, 73, 64
1, 519118, Note_off_c, 0, 51, 64
1, 519118, Note_on_c, 0, 70, 103
1, 519128, Note_off_c, 0, 77, 64
1, 519128, Note_on_c, 0, 55, 108
1, 519164, Note_off_c, 0, 53, 64
1, 519228, Note_on_c, 0, 75, 80
1, 519236, Note_off_c, 0, 70, 64
1, 519334, Note_on_c, 0, 73, 84
1, 519338, Control_c, 0, 64, 127
1, 519356, Note_off_c, 0, 75, 64
1, 519390, Note_off_c, 0, 55, 64
1, 519428, Note_on_c, 0, 75, 83
1, 519472, Note_off_c, 0, 73, 64
1, 519526, Note_on_c, 0, 70, 92
1, 519532, Note_off_c, 0, 75, 64
1, 519584, Control_c, 0, 64, 0
1, 519604, Note_off_c, 0, 70, 64
1, 519624, Note_on_c, 0, 75, 73
1, 519734, Note_on_c, 0, 51, 97
1, 519736, Note_on_c, 0, 73, 81
1, 519740, Note_off_c, 0, 75, 64
1, 519798, Note_on_c, 0, 53, 93
1, 519798, Control_c, 0, 64, 127
1, 519822, Note_on_c, 0, 75, 70
1, 519830, Control_c, 0, 64, 0
1, 519870, Note_on_c, 0, 55, 97
1, 519878, Note_off_c, 0, 73, 64
1, 519886, Note_off_c, 0, 51, 64
1, 519928, Note_off_c, 0, 53, 64
1, 519944, Note_off_c, 0, 75, 64
1, 519954, Note_on_c, 0, 57, 105
1, 519960, Note_on_c, 0, 65, 93
1, 520014, Note_off_c, 0, 55, 64
1, 520050, Note_on_c, 0, 75, 72
1, 520078, Note_off_c, 0, 65, 64
1, 520160, Note_on_c, 0, 72, 89
1, 520168, Control_c, 0, 64, 127
1, 520174, Note_off_c, 0, 75, 64
1, 520178, Note_off_c, 0, 57, 64
1, 520244, Note_on_c, 0, 75, 81
1, 520280, Note_off_c, 0, 72, 64
1, 520348, Note_off_c, 0, 75, 64
1, 520348, Note_on_c, 0, 65, 89
1, 520420, Note_on_c, 0, 75, 75
1, 520422, Note_off_c, 0, 65, 64
1, 520430, Control_c, 0, 64, 0
1, 520522, Note_on_c, 0, 53, 95
1, 520526, Note_off_c, 0, 75, 64
1, 520526, Note_on_c, 0, 72, 92
1, 520578, Note_on_c, 0, 55, 97
1, 520610, Note_on_c, 0, 75, 75
1, 520646, Note_off_c, 0, 53, 64
1, 520651, Note_off_c, 0, 72, 64
1, 520656, Note_on_c, 0, 57, 101
1, 520710, Note_off_c, 0, 55, 64
1, 520722, Note_on_c, 0, 65, 89
1, 520740, Note_off_c, 0, 75, 64
1, 520740, Note_on_c, 0, 58, 109
1, 520794, Note_off_c, 0, 57, 64
1, 520834, Note_on_c, 0, 73, 83
1, 520844, Note_off_c, 0, 65, 64
1, 520940, Note_on_c, 0, 72, 92
1, 520948, Note_off_c, 0, 73, 64
1, 520951, Note_off_c, 0, 58, 64
1, 520982, Control_c, 0, 64, 127
1, 521034, Note_on_c, 0, 73, 79
1, 521066, Note_off_c, 0, 72, 64
1, 521128, Note_on_c, 0, 65, 92
1, 521154, Note_off_c, 0, 73, 64
1, 521224, Note_on_c, 0, 73, 84
1, 521242, Note_off_c, 0, 65, 64
1, 521242, Control_c, 0, 64, 0
1, 521326, Note_on_c, 0, 46, 104
1, 521328, Note_on_c, 0, 70, 95
1, 521350, Note_off_c, 0, 73, 64
1, 521404, Note_on_c, 0, 48, 82
1, 521422, Note_on_c, 0, 73, 83
1, 521440, Note_off_c, 0, 70, 64
1, 521464, Note_on_c, 0, 49, 91
1, 521470, Note_off_c, 0, 46, 64
1, 521490, Note_off_c, 0, 48, 64
1, 521512, Note_on_c, 0, 66, 85
1, 521538, Note_on_c, 0, 51, 94
1, 521548, Note_off_c, 0, 73, 64
1, 521556, Note_off_c, 0, 49, 64
1, 521624, Note_on_c, 0, 71, 76
1, 521627, Note_off_c, 0, 66, 64
1, 521720, Control_c, 0, 64, 127
1, 521722, Note_off_c, 0, 71, 64
1, 521724, Note_on_c, 0, 70, 84
1, 521740, Note_off_c, 0, 51, 64
1, 521804, Note_on_c, 0, 71, 77
1, 521850, Note_off_c, 0, 70, 64
1, 521896, Note_on_c, 0, 66, 90
1, 521914, Note_off_c, 0, 71, 64
1, 521984, Note_off_c, 0, 66, 64
1, 521987, Note_on_c, 0, 71, 81
1, 521996, Control_c, 0, 64, 0
1, 522072, Note_on_c, 0, 47, 83
1, 522092, Note_on_c, 0, 70, 94
1, 522095, Note_off_c, 0, 71, 64
1, 522146, Note_on_c, 0, 49, 95
1, 522172, Note_on_c, 0, 71, 75
1, 522208, Note_off_c, 0, 47, 64
1, 522218, Note_on_c, 0, 51, 95
1, 522228, Note_off_c, 0, 70, 64
1, 522274, Note_off_c, 0, 71, 64
1, 522276, Note_off_c, 0, 49, 64
1, 522278, Note_on_c, 0, 61, 94
1, 522298, Note_on_c, 0, 53, 100
1, 522364, Note_off_c, 0, 51, 64
1, 522384, Note_on_c, 0, 71, 60
1, 522426, Note_off_c, 0, 61, 64
1, 522476, Note_on_c, 0, 68, 82
1, 522486, Note_off_c, 0, 71, 64
1, 522530, Note_off_c, 0, 53, 64
1, 522564, Note_on_c, 0, 71, 79
1, 522566, Control_c, 0, 64, 127
1, 522586, Note_off_c, 0, 68, 64
1, 522668, Note_on_c, 0, 61, 93
1, 522690, Note_off_c, 0, 71, 64
1, 522766, Note_on_c, 0, 71, 79
1, 522768, Note_off_c, 0, 61, 64
1, 522796, Control_c, 0, 64, 0
1, 522868, Note_on_c, 0, 49, 93
1, 522868, Note_on_c, 0, 68, 84
1, 522882, Note_off_c, 0, 71, 64
1, 522920, Note_on_c, 0, 51, 92
1, 522960, Note_on_c, 0, 71, 76
1, 522980, Note_off_c, 0, 49, 64
1, 522980, Note_off_c, 0, 68, 64
1, 522994, Note_on_c, 0, 53, 98
1, 523038, Note_off_c, 0, 51, 64
1, 523068, Note_on_c, 0, 61, 92
1, 523074, Note_on_c, 0, 54, 97
1, 523106, Note_off_c, 0, 71, 64
1, 523126, Note_off_c, 0, 53, 64
1, 523198, Note_on_c, 0, 70, 91
1, 523236, Note_off_c, 0, 61, 64
1, 523292, Note_on_c, 0, 68, 85
1, 523298, Note_off_c, 0, 54, 64
1, 523302, Control_c, 0, 64, 127
1, 523320, Note_off_c, 0, 70, 64
1, 523390, Note_on_c, 0, 70, 89
1, 523418, Note_off_c, 0, 68, 64
1, 523480, Note_on_c, 0, 61, 90
1, 523518, Note_off_c, 0, 70, 64
1, 523548, Control_c, 0, 64, 0
1, 523580, Note_on_c, 0, 70, 94
1, 523598, Note_off_c, 0, 61, 64
1, 523648, Note_on_c, 0, 42, 92
1, 523674, Note_on_c, 0, 66, 77
1, 523704, Note_off_c, 0, 70, 64
1, 523734, Note_on_c, 0, 44, 95
1, 523762, Note_on_c, 0, 70, 97
1, 523790, Note_off_c, 0, 66, 64
1, 523794, Note_on_c, 0, 46, 106
1, 523824, Note_off_c, 0, 42, 64
1, 523824, Control_c, 0, 64, 127
1, 523870, Note_off_c, 0, 44, 64
1, 523870, Note_on_c, 0, 48, 108
1, 523870, Control_c, 0, 64, 0
1, 523873, Note_on_c, 0, 63, 88
1, 523882, Note_off_c, 0, 70, 64
1, 523944, Note_off_c, 0, 46, 64
1, 523990, Note_on_c, 0, 68, 78
1, 524030, Note_off_c, 0, 63, 64
1, 524084, Note_on_c, 0, 66, 78
1, 524094, Note_off_c, 0, 68, 64
1, 524162, Control_c, 0, 64, 127
1, 524164, Note_off_c, 0, 48, 64
1, 524172, Note_off_c, 0, 66, 64
1, 524192, Note_on_c, 0, 68, 68
1, 524254, Note_off_c, 0, 68, 64
1, 524278, Note_on_c, 0, 63, 74
1, 524380, Note_on_c, 0, 68, 69
1, 524394, Control_c, 0, 64, 0
1, 524396, Note_off_c, 0, 63, 64
1, 524466, Note_on_c, 0, 44, 91
1, 524469, Note_off_c, 0, 68, 64
1, 524474, Note_on_c, 0, 66, 76
1, 524520, Note_on_c, 0, 46, 103
1, 524556, Note_on_c, 0, 68, 70
1, 524602, Note_on_c, 0, 48, 99
1, 524604, Note_off_c, 0, 66, 64
1, 524622, Note_off_c, 0, 44, 64
1, 524658, Note_on_c, 0, 58, 103
1, 524674, Note_off_c, 0, 68, 64
1, 524678, Note_on_c, 0, 50, 106
1, 524682, Note_off_c, 0, 46, 64
1, 524742, Note_off_c, 0, 48, 64
1, 524752, Note_on_c, 0, 68, 69
1, 524774, Note_off_c, 0, 58, 64
1, 524866, Note_off_c, 0, 68, 64
1, 524874, Note_on_c, 0, 65, 80
1, 524900, Control_c, 0, 64, 127
1, 524902, Note_off_c, 0, 50, 64
1, 524954, Note_on_c, 0, 68, 67
1, 524962, Note_off_c, 0, 65, 64
1, 525038, Note_on_c, 0, 58, 101
1, 525064, Note_off_c, 0, 68, 64
1, 525136, Note_on_c, 0, 68, 79
1, 525154, Note_off_c, 0, 58, 64
1, 525176, Control_c, 0, 64, 0
1, 525198, Note_on_c, 0, 46, 107
1, 525246, Note_on_c, 0, 65, 84
1, 525254, Note_off_c, 0, 68, 64
1, 525268, Note_on_c, 0, 48, 98
1, 525330, Note_on_c, 0, 68, 72
1, 525342, Note_off_c, 0, 46, 64
1, 525348, Note_on_c, 0, 50, 103
1, 525368, Note_off_c, 0, 65, 64
1, 525412, Note_off_c, 0, 48, 64
1, 525444, Note_on_c, 0, 51, 100
1, 525446, Note_off_c, 0, 68, 64
1, 525450, Note_on_c, 0, 58, 98
1, 525504, Note_off_c, 0, 50, 64
1, 525576, Note_on_c, 0, 68, 67
1, 525694, Note_off_c, 0, 68, 64
1, 525694, Note_on_c, 0, 65, 74
1, 525700, Control_c, 0, 64, 127
1, 525734, Note_off_c, 0, 58, 64
1, 525766, Note_on_c, 0, 68, 68
1, 525770, Note_off_c, 0, 65, 64
1, 525886, Note_off_c, 0, 68, 64
1, 525888, Note_on_c, 0, 58, 88
1, 525914, Control_c, 0, 64, 0
1, 525980, Note_on_c, 0, 68, 62
1, 526096, Note_off_c, 0, 68, 64
1, 526100, Control_c, 0, 64, 127
1, 526108, Note_on_c, 0, 65, 79
1, 526168, Note_off_c, 0, 58, 64
1, 526182, Note_on_c, 0, 68, 65
1, 526190, Note_off_c, 0, 65, 64
1, 526274, Note_on_c, 0, 39, 103
1, 526302, Note_off_c, 0, 68, 64
1, 526314, Note_on_c, 0, 60, 73
1, 526398, Note_on_c, 0, 66, 65
1, 526456, Note_off_c, 0, 60, 64
1, 526459, Note_off_c, 0, 66, 64
1, 526490, Note_on_c, 0, 63, 72
1, 526574, Note_off_c, 0, 63, 64
1, 526608, Note_on_c, 0, 66, 78
1, 526622, Control_c, 0, 64, 0
1, 526664, Note_off_c, 0, 66, 64
1, 526706, Note_on_c, 0, 60, 74
1, 526816, Note_on_c, 0, 66, 64
1, 526836, Control_c, 0, 64, 127
1, 526838, Note_off_c, 0, 60, 64
1, 526902, Note_off_c, 0, 66, 64
1, 526924, Note_on_c, 0, 63, 66
1, 527000, Note_off_c, 0, 63, 64
1, 527028, Note_on_c, 0, 66, 60
1, 527102, Note_off_c, 0, 66, 64
1, 527122, Note_on_c, 0, 41, 101
1, 527130, Note_on_c, 0, 56, 88
1, 527194, Note_off_c, 0, 51, 64
1, 527242, Note_off_c, 0, 39, 64
1, 527250, Note_on_c, 0, 65, 76
1, 527316, Note_off_c, 0, 65, 64
1, 527354, Note_on_c, 0, 61, 62
1, 527382, Note_off_c, 0, 56, 64
1, 527426, Note_off_c, 0, 61, 64
1, 527440, Note_on_c, 0, 65, 54
1, 527534, Note_on_c, 0, 56, 79
1, 527537, Note_off_c, 0, 65, 64
1, 527620, Control_c, 0, 64, 0
1, 527638, Note_on_c, 0, 65, 64
1, 527714, Note_off_c, 0, 56, 64
1, 527744, Note_on_c, 0, 61, 73
1, 527752, Note_off_c, 0, 65, 64
1, 527758, Control_c, 0, 64, 127
1, 527832, Note_on_c, 0, 65, 85
1, 527856, Note_off_c, 0, 61, 64
1, 527922, Note_off_c, 0, 65, 64
1, 527940, Note_on_c, 0, 42, 97
1, 527945, Note_on_c, 0, 56, 78
1, 528018, Note_off_c, 0, 41, 64
1, 528080, Note_on_c, 0, 65, 67
1, 528142, Control_c, 0, 64, 0
1, 528172, Note_off_c, 0, 65, 64
1, 528178, Note_on_c, 0, 58, 83
1, 528230, Note_off_c, 0, 56, 64
1, 528262, Note_on_c, 0, 65, 74
1, 528308, Note_off_c, 0, 58, 64
1, 528358, Control_c, 0, 64, 127
1, 528358, Note_on_c, 0, 56, 67
1, 528384, Note_off_c, 0, 65, 64
1, 528464, Note_on_c, 0, 65, 77
1, 528474, Note_off_c, 0, 56, 64
1, 528538, Note_off_c, 0, 65, 64
1, 528566, Note_on_c, 0, 58, 74
1, 528636, Note_on_c, 0, 65, 65
1, 528676, Note_off_c, 0, 58, 64
1, 528752, Note_on_c, 0, 54, 79
1, 528768, Note_on_c, 0, 30, 108
1, 528820, Note_off_c, 0, 65, 64
1, 528868, Note_on_c, 0, 63, 67
1, 528956, Note_off_c, 0, 63, 64
1, 528974, Note_on_c, 0, 58, 81
1, 529008, Note_off_c, 0, 54, 64
1, 529054, Note_off_c, 0, 58, 64
1, 529062, Note_on_c, 0, 63, 58
1, 529162, Note_on_c, 0, 54, 75
1, 529168, Note_off_c, 0, 63, 64
1, 529218, Control_c, 0, 64, 0
1, 529246, Note_on_c, 0, 63, 68
1, 529346, Note_off_c, 0, 63, 64
1, 529370, Note_on_c, 0, 58, 78
1, 529388, Control_c, 0, 64, 127
1, 529450, Note_on_c, 0, 63, 64
1, 529460, Note_off_c, 0, 54, 64
1, 529480, Note_off_c, 0, 42, 64
1, 529488, Note_off_c, 0, 58, 64
1, 529524, Note_off_c, 0, 30, 64
1, 529570, Note_on_c, 0, 31, 112
1, 529584, Note_on_c, 0, 53, 61
1, 529632, Note_off_c, 0, 63, 64
1, 529694, Note_on_c, 0, 61, 73
1, 529780, Note_off_c, 0, 53, 64
1, 529802, Note_on_c, 0, 58, 85
1, 529822, Note_off_c, 0, 61, 64
1, 529900, Note_on_c, 0, 61, 71
1, 529948, Note_off_c, 0, 58, 64
1, 530016, Control_c, 0, 64, 0
1, 530018, Note_on_c, 0, 53, 80
1, 530026, Note_off_c, 0, 61, 64
1, 530126, Note_on_c, 0, 61, 61
1, 530184, Note_off_c, 0, 53, 64
1, 530202, Control_c, 0, 64, 127
1, 530240, Note_on_c, 0, 58, 88
1, 530246, Note_off_c, 0, 61, 64
1, 530332, Note_on_c, 0, 61, 62
1, 530374, Note_off_c, 0, 58, 64
1, 530476, Note_off_c, 0, 61, 64
1, 530490, Note_on_c, 0, 32, 102
1, 530498, Note_on_c, 0, 53, 72
1, 530542, Note_on_c, 0, 34, 30
1, 530572, Note_off_c, 0, 31, 64
1, 530596, Note_off_c, 0, 34, 64
1, 530630, Control_c, 0, 64, 0
1, 530652, Note_on_c, 0, 61, 70
1, 530778, Note_on_c, 0, 56, 69
1, 530796, Note_off_c, 0, 61, 64
1, 530860, Note_off_c, 0, 53, 64
1, 530862, Control_c, 0, 64, 127
1, 530874, Note_on_c, 0, 61, 68
1, 530916, Note_off_c, 0, 56, 64
1, 531002, Note_off_c, 0, 61, 64
1, 531024, Note_on_c, 0, 53, 74
1, 531088, Note_off_c, 0, 53, 64
1, 531118, Note_on_c, 0, 61, 44
1, 531232, Note_off_c, 0, 61, 64
1, 531235, Note_on_c, 0, 56, 66
1, 531318, Note_on_c, 0, 61, 60
1, 531348, Note_off_c, 0, 56, 64
1, 531444, Note_off_c, 0, 61, 64
1, 531448, Note_on_c, 0, 51, 80
1, 531522, Control_c, 0, 64, 0
1, 531572, Note_on_c, 0, 60, 75
1, 531646, Note_off_c, 0, 60, 64
1, 531682, Note_on_c, 0, 56, 65
1, 531692, Control_c, 0, 64, 127
1, 531714, Note_off_c, 0, 51, 64
1, 531750, Note_off_c, 0, 56, 64
1, 531762, Note_on_c, 0, 60, 59
1, 531860, Note_off_c, 0, 60, 64
1, 531868, Note_on_c, 0, 51, 73
1, 531944, Note_off_c, 0, 51, 64
1, 531964, Note_on_c, 0, 60, 57
1, 532036, Note_off_c, 0, 60, 64
1, 532068, Note_on_c, 0, 56, 66
1, 532136, Note_off_c, 0, 56, 64
1, 532154, Note_on_c, 0, 60, 54
1, 532266, Note_on_c, 0, 49, 79
1, 532286, Note_off_c, 0, 60, 64
1, 532352, Control_c, 0, 64, 0
1, 532386, Note_on_c, 0, 58, 84
1, 532476, Note_off_c, 0, 58, 64
1, 532492, Note_on_c, 0, 53, 66
1, 532510, Note_off_c, 0, 49, 64
1, 532538, Control_c, 0, 64, 127
1, 532582, Note_off_c, 0, 53, 64
1, 532584, Note_on_c, 0, 58, 69
1, 532692, Note_on_c, 0, 49, 74
1, 532706, Note_off_c, 0, 58, 64
1, 532790, Note_on_c, 0, 58, 71
1, 532826, Note_off_c, 0, 49, 64
1, 532908, Note_off_c, 0, 58, 64
1, 532921, Note_on_c, 0, 53, 59
1, 532934, Note_off_c, 0, 32, 64
1, 532996, Note_off_c, 0, 53, 64
1, 532996, Note_on_c, 0, 58, 69
1, 533108, Note_off_c, 0, 58, 64
1, 533128, Note_on_c, 0, 49, 70
1, 533162, Note_on_c, 0, 32, 81
1, 533172, Note_on_c, 0, 30, 63
1, 533204, Note_on_c, 0, 31, 66
1, 533260, Note_on_c, 0, 58, 56
1, 533274, Note_off_c, 0, 30, 64
1, 533290, Note_off_c, 0, 31, 64
1, 533372, Note_off_c, 0, 58, 64
1, 533400, Note_on_c, 0, 53, 54
1, 533458, Note_off_c, 0, 49, 64
1, 533464, Note_on_c, 0, 58, 64
1, 533492, Note_off_c, 0, 53, 64
1, 533504, Control_c, 0, 64, 0
1, 533574, Note_on_c, 0, 49, 56
1, 533598, Note_off_c, 0, 58, 64
1, 533670, Note_on_c, 0, 58, 76
1, 533704, Control_c, 0, 64, 127
1, 533806, Note_off_c, 0, 58, 64
1, 533816, Note_on_c, 0, 53, 50
1, 533860, Note_off_c, 0, 49, 64
1, 533874, Note_on_c, 0, 58, 88
1, 533922, Note_off_c, 0, 53, 64
1, 533982, Control_c, 0, 64, 0
1, 534016, Note_on_c, 0, 48, 83
1, 534100, Note_off_c, 0, 58, 64
1, 534126, Note_on_c, 0, 56, 69
1, 534190, Note_off_c, 0, 48, 64
1, 534210, Control_c, 0, 64, 127
1, 534222, Note_on_c, 0, 51, 74
1, 534250, Note_off_c, 0, 56, 64
1, 534328, Note_on_c, 0, 56, 75
1, 534357, Note_off_c, 0, 51, 64
1, 534446, Note_off_c, 0, 56, 64
1, 534449, Note_on_c, 0, 48, 70
1, 534532, Note_on_c, 0, 56, 57
1, 534596, Note_off_c, 0, 48, 64
1, 534652, Note_off_c, 0, 56, 64
1, 534652, Note_on_c, 0, 51, 69
1, 534736, Note_on_c, 0, 56, 61
1, 534792, Note_off_c, 0, 51, 64
1, 534868, Note_on_c, 0, 46, 94
1, 534888, Control_c, 0, 64, 0
1, 534934, Note_off_c, 0, 56, 64
1, 535004, Note_on_c, 0, 55, 69
1, 535058, Note_off_c, 0, 46, 64
1, 535072, Control_c, 0, 64, 127
1, 535118, Note_on_c, 0, 49, 73
1, 535126, Note_off_c, 0, 55, 64
1, 535198, Note_off_c, 0, 49, 64
1, 535218, Note_on_c, 0, 55, 61
1, 535328, Note_on_c, 0, 46, 94
1, 535332, Note_off_c, 0, 55, 64
1, 535450, Note_off_c, 0, 46, 64
1, 535452, Note_off_c, 0, 32, 64
1, 535452, Note_on_c, 0, 55, 51
1, 535586, Note_on_c, 0, 49, 76
1, 535591, Note_off_c, 0, 55, 64
1, 535706, Note_on_c, 0, 55, 50
1, 535748, Note_off_c, 0, 49, 64
1, 535882, Note_off_c, 0, 55, 64
1, 535898, Note_on_c, 0, 48, 80
1, 535898, Note_on_c, 0, 32, 91
1, 536104, Control_c, 0, 64, 0
1, 536230, Note_on_c, 0, 56, 75
1, 536510, Note_on_c, 0, 51, 68
1, 536532, Control_c, 0, 64, 127
1, 536564, Note_off_c, 0, 48, 64
1, 536584, Note_off_c, 0, 56, 64
1, 536738, Note_on_c, 0, 48, 81
1, 536780, Note_off_c, 0, 51, 64
1, 536886, Note_off_c, 0, 48, 64
1, 536944, Note_on_c, 0, 44, 73
1, 537152, Note_off_c, 0, 44, 64
1, 537152, Note_on_c, 0, 51, 81
1, 537210, Note_off_c, 0, 32, 64
1, 537348, Note_off_c, 0, 51, 64
1, 537366, Note_on_c, 0, 48, 80
1, 537528, Note_off_c, 0, 48, 64
1, 537558, Note_on_c, 0, 44, 75
1, 537674, Note_off_c, 0, 44, 64
1, 537750, Note_on_c, 0, 39, 76
1, 537960, Note_on_c, 0, 48, 91
1, 538130, Control_c, 0, 64, 0
1, 538180, Note_on_c, 0, 44, 82
1, 538206, Note_off_c, 0, 39, 64
1, 538344, Control_c, 0, 64, 127
1, 538396, Note_on_c, 0, 39, 90
1, 538410, Note_off_c, 0, 48, 64
1, 538452, Note_off_c, 0, 44, 64
1, 538658, Note_on_c, 0, 36, 91
1, 538712, Control_c, 0, 64, 0
1, 538714, Note_off_c, 0, 39, 64
1, 538900, Note_on_c, 0, 44, 79
1, 538960, Control_c, 0, 64, 127
1, 539058, Note_off_c, 0, 36, 64
1, 539124, Note_on_c, 0, 39, 79
1, 539194, Note_off_c, 0, 44, 64
1, 539328, Note_on_c, 0, 48, 88
1, 539458, Note_off_c, 0, 39, 64
1, 539516, Note_off_c, 0, 48, 64
1, 539524, Note_on_c, 0, 44, 78
1, 539712, Note_off_c, 0, 44, 64
1, 539744, Note_on_c, 0, 51, 86
1, 539938, Note_off_c, 0, 51, 64
1, 539941, Note_on_c, 0, 48, 95
1, 540034, Control_c, 0, 64, 0
1, 540132, Note_on_c, 0, 56, 84
1, 540190, Note_off_c, 0, 48, 64
1, 540218, Control_c, 0, 64, 127
1, 540340, Note_on_c, 0, 51, 84
1, 540356, Control_c, 0, 64, 0
1, 540444, Note_off_c, 0, 56, 64
1, 540512, Control_c, 0, 64, 127
1, 540548, Note_on_c, 0, 60, 84
1, 540634, Note_off_c, 0, 51, 64
1, 540742, Control_c, 0, 64, 0
1, 540742, Note_on_c, 0, 56, 84
1, 540790, Note_off_c, 0, 60, 64
1, 540878, Control_c, 0, 64, 127
1, 540942, Note_on_c, 0, 63, 90
1, 540964, Note_off_c, 0, 56, 64
1, 541000, Note_off_c, 0, 63, 64
1, 541128, Note_on_c, 0, 60, 100
1, 541320, Note_on_c, 0, 68, 93
1, 541436, Note_off_c, 0, 60, 64
1, 541494, Control_c, 0, 64, 0
1, 541512, Note_on_c, 0, 63, 90
1, 541616, Control_c, 0, 64, 127
1, 541626, Note_off_c, 0, 68, 64
1, 541684, Note_off_c, 0, 63, 64
1, 541710, Note_on_c, 0, 72, 103
1, 541758, Note_off_c, 0, 72, 64
1, 541904, Note_on_c, 0, 68, 100
1, 542062, Control_c, 0, 64, 0
1, 542102, Note_on_c, 0, 75, 98
1, 542120, Note_off_c, 0, 68, 64
1, 542124, Control_c, 0, 64, 127
1, 542298, Note_on_c, 0, 72, 107
1, 542308, Control_c, 0, 64, 0
1, 542372, Note_off_c, 0, 75, 64
1, 542462, Control_c, 0, 64, 127
1, 542490, Note_on_c, 0, 80, 100
1, 542590, Note_off_c, 0, 72, 64
1, 542690, Note_on_c, 0, 75, 99
1, 542708, Control_c, 0, 64, 0
1, 542782, Note_off_c, 0, 80, 64
1, 542892, Note_off_c, 0, 75, 64
1, 542892, Control_c, 0, 64, 127
1, 542914, Note_on_c, 0, 84, 108
1, 542982, Note_off_c, 0, 84, 64
1, 543142, Note_on_c, 0, 80, 100
1, 543398, Note_on_c, 0, 87, 102
1, 543450, Note_off_c, 0, 80, 64
1, 543644, Note_off_c, 0, 87, 64
1, 543758, Note_on_c, 0, 61, 73
1, 543760, Note_on_c, 0, 88, 107
1, 543768, Note_on_c, 0, 58, 79
1, 543776, Note_on_c, 0, 55, 66
1, 544030, Control_c, 0, 64, 0
1, 544660, Control_c, 0, 64, 127
1, 545000, Note_off_c, 0, 88, 64
1, 545058, Note_off_c, 0, 61, 64
1, 545142, Note_off_c, 0, 58, 64
1, 545160, Note_on_c, 0, 82, 104
1, 545186, Note_off_c, 0, 55, 64
1, 545448, Note_on_c, 0, 85, 100
1, 545474, Control_c, 0, 64, 0
1, 545522, Note_off_c, 0, 82, 64
1, 545596, Control_c, 0, 64, 127
1, 545654, Note_off_c, 0, 85, 64
1, 545680, Note_on_c, 0, 79, 98
1, 545898, Note_on_c, 0, 82, 110
1, 545908, Note_off_c, 0, 79, 64
1, 545998, Note_off_c, 0, 82, 64
1, 546088, Note_on_c, 0, 76, 103
1, 546270, Note_off_c, 0, 76, 64
1, 546288, Note_on_c, 0, 79, 101
1, 546380, Note_off_c, 0, 79, 64
1, 546478, Note_on_c, 0, 73, 97
1, 546580, Control_c, 0, 64, 0
1, 546680, Note_on_c, 0, 76, 108
1, 546718, Control_c, 0, 64, 127
1, 546720, Note_off_c, 0, 73, 64
1, 546788, Note_off_c, 0, 76, 64
1, 546866, Note_on_c, 0, 70, 104
1, 546918, Control_c, 0, 64, 0
1, 547062, Note_on_c, 0, 73, 97
1, 547088, Control_c, 0, 64, 127
1, 547112, Note_off_c, 0, 70, 64
1, 547214, Note_off_c, 0, 73, 64
1, 547252, Note_on_c, 0, 67, 103
1, 547482, Note_on_c, 0, 70, 105
1, 547494, Note_off_c, 0, 67, 64
1, 547688, Note_off_c, 0, 70, 64
1, 547840, Control_c, 0, 64, 0
1, 547870, Note_on_c, 0, 73, 99
1, 547876, Note_on_c, 0, 64, 101
1, 547876, Note_on_c, 0, 55, 103
1, 547876, Note_on_c, 0, 70, 101
1, 547882, Note_on_c, 0, 43, 96
1, 548048, Note_off_c, 0, 55, 64
1, 548050, Note_off_c, 0, 43, 64
1, 548054, Control_c, 0, 64, 127
1, 548076, Note_off_c, 0, 64, 64
1, 548086, Note_off_c, 0, 73, 64
1, 548102, Note_off_c, 0, 70, 64
1, 548192, Control_c, 0, 64, 0
1, 548264, Note_on_c, 0, 73, 102
1, 548264, Note_on_c, 0, 55, 97
1, 548268, Note_on_c, 0, 70, 101
1, 548270, Note_on_c, 0, 43, 92
1, 548272, Note_on_c, 0, 64, 101
1, 548414, Note_off_c, 0, 55, 64
1, 548414, Note_off_c, 0, 43, 64
1, 548424, Control_c, 0, 64, 127
1, 548442, Note_off_c, 0, 64, 64
1, 548480, Note_off_c, 0, 73, 64
1, 548504, Note_off_c, 0, 70, 64
1, 548576, Control_c, 0, 64, 0
1, 548664, Note_on_c, 0, 73, 100
1, 548667, Note_on_c, 0, 70, 99
1, 548667, Note_on_c, 0, 65, 100
1, 548678, Note_on_c, 0, 53, 97
1, 548684, Note_on_c, 0, 41, 92
1, 548812, Note_off_c, 0, 53, 64
1, 548824, Control_c, 0, 64, 127
1, 548842, Note_off_c, 0, 41, 64
1, 548888, Note_off_c, 0, 70, 64
1, 548892, Note_off_c, 0, 65, 64
1, 548912, Note_off_c, 0, 73, 64
1, 549022, Control_c, 0, 64, 0
1, 549126, Note_on_c, 0, 67, 100
1, 549126, Note_on_c, 0, 70, 97
1, 549129, Note_on_c, 0, 72, 107
1, 549142, Note_on_c, 0, 52, 98
1, 549146, Note_on_c, 0, 40, 97
1, 549406, Control_c, 0, 64, 127
1, 549440, Note_off_c, 0, 40, 64
1, 549445, Note_off_c, 0, 52, 64
1, 549492, Note_off_c, 0, 67, 64
1, 549538, Note_off_c, 0, 72, 64
1, 549566, Note_off_c, 0, 70, 64
1, 549930, Control_c, 0, 64, 0
1, 550016, Note_on_c, 0, 48, 86
1, 550190, Control_c, 0, 64, 127
1, 550214, Note_on_c, 0, 55, 87
1, 550224, Note_off_c, 0, 48, 64
1, 550296, Note_off_c, 0, 55, 64
1, 550400, Note_on_c, 0, 52, 102
1, 550422, Control_c, 0, 64, 0
1, 550566, Note_off_c, 0, 52, 64
1, 550584, Note_on_c, 0, 58, 108
1, 550606, Control_c, 0, 64, 127
1, 550720, Note_off_c, 0, 58, 64
1, 550768, Note_on_c, 0, 55, 97
1, 550790, Control_c, 0, 64, 0
1, 550932, Note_off_c, 0, 55, 64
1, 550940, Note_on_c, 0, 61, 97
1, 551004, Control_c, 0, 64, 127
1, 551120, Note_on_c, 0, 58, 107
1, 551168, Note_off_c, 0, 61, 64
1, 551174, Control_c, 0, 64, 0
1, 551314, Note_on_c, 0, 64, 105
1, 551320, Note_off_c, 0, 58, 64
1, 551388, Control_c, 0, 64, 127
1, 551490, Note_on_c, 0, 61, 98
1, 551514, Note_off_c, 0, 64, 64
1, 551528, Control_c, 0, 64, 0
1, 551674, Note_on_c, 0, 67, 105
1, 551696, Control_c, 0, 64, 127
1, 551760, Note_off_c, 0, 61, 64
1, 551848, Note_on_c, 0, 64, 105
1, 551868, Note_off_c, 0, 67, 64
1, 551988, Control_c, 0, 64, 0
1, 552080, Note_on_c, 0, 70, 113
1, 552142, Note_off_c, 0, 64, 64
1, 552172, Control_c, 0, 64, 127
1, 552190, Note_off_c, 0, 70, 64
1, 552388, Control_c, 0, 64, 0
1, 552406, Note_on_c, 0, 58, 106
1, 552408, Note_on_c, 0, 73, 96
1, 552410, Note_on_c, 0, 76, 111
1, 552412, Note_on_c, 0, 46, 105
1, 552412, Note_on_c, 0, 67, 106
1, 552536, Note_off_c, 0, 58, 64
1, 552562, Note_off_c, 0, 46, 64
1, 552572, Control_c, 0, 64, 127
1, 552578, Note_off_c, 0, 73, 64
1, 552582, Note_off_c, 0, 67, 64
1, 552630, Note_off_c, 0, 76, 64
1, 552742, Control_c, 0, 64, 0
1, 552802, Note_on_c, 0, 77, 110
1, 552804, Note_on_c, 0, 68, 97
1, 552804, Note_on_c, 0, 56, 94
1, 552814, Note_on_c, 0, 44, 86
1, 552820, Note_on_c, 0, 72, 101
1, 552938, Note_off_c, 0, 56, 64
1, 552956, Control_c, 0, 64, 127
1, 552970, Note_off_c, 0, 44, 64
1, 552982, Note_off_c, 0, 72, 64
1, 552990, Note_off_c, 0, 77, 64
1, 552996, Note_off_c, 0, 68, 64
1, 553124, Control_c, 0, 64, 0
1, 553188, Note_on_c, 0, 79, 106
1, 553190, Note_on_c, 0, 70, 105
1, 553198, Note_on_c, 0, 76, 105
1, 553200, Note_on_c, 0, 55, 98
1, 553204, Note_on_c, 0, 43, 91
1, 553306, Note_off_c, 0, 55, 64
1, 553362, Note_off_c, 0, 43, 64
1, 553372, Control_c, 0, 64, 127
1, 553414, Note_off_c, 0, 76, 64
1, 553432, Note_off_c, 0, 70, 64
1, 553436, Note_off_c, 0, 79, 64
1, 553586, Control_c, 0, 64, 0
1, 553656, Note_on_c, 0, 80, 107
1, 553659, Note_on_c, 0, 72, 107
1, 553659, Note_on_c, 0, 53, 95
1, 553663, Note_on_c, 0, 41, 93
1, 553663, Note_on_c, 0, 77, 103
1, 553924, Control_c, 0, 64, 127
1, 553938, Note_off_c, 0, 53, 64
1, 554010, Note_off_c, 0, 41, 64
1, 554018, Note_off_c, 0, 80, 64
1, 554024, Note_off_c, 0, 77, 64
1, 554062, Note_off_c, 0, 72, 64
1, 554478, Control_c, 0, 64, 0
1, 554706, Note_on_c, 0, 56, 52
1, 554954, Control_c, 0, 64, 127
1, 554956, Note_on_c, 0, 65, 64
1, 554984, Note_off_c, 0, 56, 64
1, 555108, Note_off_c, 0, 65, 64
1, 555154, Control_c, 0, 64, 0
1, 555172, Note_on_c, 0, 60, 70
1, 555314, Note_off_c, 0, 60, 64
1, 555338, Control_c, 0, 64, 127
1, 555350, Note_on_c, 0, 68, 82
1, 555428, Note_off_c, 0, 68, 64
1, 555540, Note_on_c, 0, 65, 98
1, 555569, Control_c, 0, 64, 0
1, 555722, Note_on_c, 0, 72, 105
1, 555750, Note_off_c, 0, 65, 64
1, 555752, Control_c, 0, 64, 127
1, 555860, Control_c, 0, 64, 0
1, 555892, Note_off_c, 0, 72, 64
1, 555892, Note_on_c, 0, 68, 103
1, 556044, Control_c, 0, 64, 127
1, 556064, Note_off_c, 0, 68, 64
1, 556074, Note_on_c, 0, 77, 111
1, 556150, Note_off_c, 0, 77, 64
1, 556198, Control_c, 0, 64, 0
1, 556258, Note_on_c, 0, 72, 111
1, 556366, Control_c, 0, 64, 127
1, 556426, Note_on_c, 0, 80, 106
1, 556446, Note_off_c, 0, 72, 64
1, 556506, Control_c, 0, 64, 0
1, 556604, Note_on_c, 0, 77, 112
1, 556658, Note_off_c, 0, 80, 64
1, 556860, Note_on_c, 0, 84, 107
1, 556874, Note_off_c, 0, 77, 64
1, 556978, Note_off_c, 0, 84, 64
1, 556981, Control_c, 0, 64, 127
1, 557320, Note_on_c, 0, 72, 106
1, 557322, Note_on_c, 0, 53, 93
1, 557324, Note_on_c, 0, 68, 88
1, 557326, Note_on_c, 0, 65, 97
1, 557328, Note_on_c, 0, 41, 84
1, 557510, Note_off_c, 0, 65, 64
1, 557532, Note_off_c, 0, 53, 64
1, 557552, Note_off_c, 0, 72, 64
1, 557558, Note_off_c, 0, 41, 64
1, 557566, Note_off_c, 0, 68, 64
1, 557704, Control_c, 0, 64, 0
1, 557740, Note_on_c, 0, 72, 110
1, 557750, Note_on_c, 0, 65, 97
1, 557750, Note_on_c, 0, 68, 92
1, 557750, Note_on_c, 0, 53, 100
1, 557758, Note_on_c, 0, 41, 94
1, 557904, Control_c, 0, 64, 127
1, 557956, Note_off_c, 0, 65, 64
1, 557956, Note_off_c, 0, 53, 64
1, 557966, Note_off_c, 0, 72, 64
1, 557976, Note_off_c, 0, 41, 64
1, 558044, Note_off_c, 0, 68, 64
1, 558104, Control_c, 0, 64, 0
1, 558160, Note_on_c, 0, 72, 109
1, 558160, Note_on_c, 0, 51, 99
1, 558163, Note_on_c, 0, 67, 104
1, 558166, Note_on_c, 0, 39, 97
1, 558364, Control_c, 0, 64, 127
1, 558374, Note_off_c, 0, 51, 64
1, 558396, Note_off_c, 0, 39, 64
1, 558406, Note_off_c, 0, 67, 64
1, 558418, Note_off_c, 0, 72, 64
1, 558642, Control_c, 0, 64, 0
1, 558724, Note_on_c, 0, 50, 102
1, 558724, Note_on_c, 0, 72, 108
1, 558724, Note_on_c, 0, 66, 95
1, 558727, Note_on_c, 0, 38, 101
1, 558732, Note_on_c, 0, 69, 101
1, 559086, Control_c, 0, 64, 127
1, 559160, Note_off_c, 0, 38, 64
1, 559194, Note_off_c, 0, 66, 64
1, 559270, Note_off_c, 0, 50, 64
1, 559290, Note_off_c, 0, 69, 64
1, 559376, Note_off_c, 0, 72, 64
1, 559736, Note_on_c, 0, 69, 92
1, 559764, Control_c, 0, 64, 0
1, 559964, Note_off_c, 0, 69, 64
1, 559972, Note_on_c, 0, 72, 94
1, 560024, Control_c, 0, 64, 127
1, 560152, Note_off_c, 0, 72, 64
1, 560178, Control_c, 0, 64, 0
1, 560180, Note_on_c, 0, 66, 84
1, 560370, Note_off_c, 0, 66, 64
1, 560392, Control_c, 0, 64, 127
1, 560420, Note_on_c, 0, 69, 71
1, 560469, Control_c, 0, 64, 0
1, 560554, Note_off_c, 0, 69, 64
1, 560586, Note_on_c, 0, 63, 63
1, 560638, Control_c, 0, 64, 127
1, 560762, Control_c, 0, 64, 0
1, 560770, Note_off_c, 0, 63, 64
1, 560773, Note_on_c, 0, 66, 76
1, 560946, Control_c, 0, 64, 127
1, 560960, Note_on_c, 0, 60, 80
1, 560964, Note_off_c, 0, 66, 64
1, 561084, Control_c, 0, 64, 0
1, 561142, Note_on_c, 0, 63, 85
1, 561166, Note_off_c, 0, 60, 64
1, 561268, Control_c, 0, 64, 127
1, 561326, Note_on_c, 0, 57, 97
1, 561362, Note_off_c, 0, 63, 64
1, 561444, Note_off_c, 0, 57, 64
1, 561508, Note_on_c, 0, 60, 98
1, 561640, Note_off_c, 0, 60, 64
1, 561662, Note_on_c, 0, 54, 81
1, 561852, Control_c, 0, 64, 0
1, 561884, Note_off_c, 0, 54, 64
1, 561892, Note_on_c, 0, 57, 105
1, 562052, Control_c, 0, 64, 127
1, 562054, Note_off_c, 0, 57, 64
1, 562190, Control_c, 0, 64, 0
1, 562252, Note_on_c, 0, 78, 103
1, 562258, Note_on_c, 0, 75, 94
1, 562258, Note_on_c, 0, 69, 105
1, 562258, Note_on_c, 0, 60, 97
1, 562261, Note_on_c, 0, 48, 96
1, 562420, Control_c, 0, 64, 127
1, 562422, Note_off_c, 0, 69, 64
1, 562422, Note_off_c, 0, 60, 64
1, 562432, Note_off_c, 0, 75, 64
1, 562432, Note_off_c, 0, 48, 64
1, 562480, Note_off_c, 0, 78, 64
1, 562560, Control_c, 0, 64, 0
1, 562612, Note_on_c, 0, 79, 107
1, 562617, Note_on_c, 0, 70, 101
1, 562620, Note_on_c, 0, 58, 106
1, 562626, Note_on_c, 0, 74, 93
1, 562626, Note_on_c, 0, 46, 104
1, 562764, Note_off_c, 0, 58, 64
1, 562774, Control_c, 0, 64, 127
1, 562790, Note_off_c, 0, 46, 64
1, 562798, Note_off_c, 0, 74, 64
1, 562812, Note_off_c, 0, 70, 64
1, 562840, Note_off_c, 0, 79, 64
1, 562928, Control_c, 0, 64, 0
1, 562996, Note_on_c, 0, 81, 110
1, 563006, Note_on_c, 0, 72, 105
1, 563008, Note_on_c, 0, 57, 104
1, 563010, Note_on_c, 0, 78, 91
1, 563013, Note_on_c, 0, 45, 101
1, 563134, Note_off_c, 0, 57, 64
1, 563174, Control_c, 0, 64, 127
1, 563198, Note_off_c, 0, 78, 64
1, 563202, Note_off_c, 0, 72, 64
1, 563202, Note_off_c, 0, 45, 64
1, 563218, Note_off_c, 0, 81, 64
1, 563344, Control_c, 0, 64, 0
1, 563458, Note_on_c, 0, 82, 113
1, 563460, Note_on_c, 0, 74, 102
1, 563466, Note_on_c, 0, 79, 98
1, 563468, Note_on_c, 0, 43, 94
1, 563468, Note_on_c, 0, 55, 95
1, 563710, Note_off_c, 0, 55, 64
1, 563728, Control_c, 0, 64, 127
1, 563802, Note_off_c, 0, 43, 64
1, 563864, Note_off_c, 0, 79, 64
1, 563894, Note_off_c, 0, 82, 64
1, 563980, Note_off_c, 0, 74, 64
1, 564372, Control_c, 0, 64, 0
1, 564388, Note_on_c, 0, 62, 85
1, 564612, Note_off_c, 0, 62, 64
1, 564617, Control_c, 0, 64, 127
1, 564636, Note_on_c, 0, 70, 96
1, 564700, Note_off_c, 0, 70, 64
1, 564828, Note_on_c, 0, 67, 94
1, 564894, Control_c, 0, 64, 0
1, 565010, Note_on_c, 0, 74, 99
1, 565038, Note_off_c, 0, 67, 64
1, 565126, Control_c, 0, 64, 127
1, 565156, Note_off_c, 0, 74, 64
1, 565180, Note_on_c, 0, 70, 103
1, 565218, Control_c, 0, 64, 0
1, 565350, Note_off_c, 0, 70, 64
1, 565372, Note_on_c, 0, 79, 100
1, 565402, Control_c, 0, 64, 127
1, 565448, Control_c, 0, 64, 0
1, 565538, Note_off_c, 0, 79, 64
1, 565550, Note_on_c, 0, 74, 98
1, 565602, Control_c, 0, 64, 127
1, 565798, Note_on_c, 0, 82, 98
1, 565810, Note_off_c, 0, 74, 64
1, 565832, Control_c, 0, 64, 0
1, 566268, Note_on_c, 0, 58, 52
1, 566270, Note_on_c, 0, 62, 39
1, 566282, Note_on_c, 0, 55, 42
1, 566370, Control_c, 0, 64, 127
1, 566468, Note_off_c, 0, 62, 64
1, 566480, Note_off_c, 0, 55, 64
1, 566486, Note_off_c, 0, 82, 64
1, 566492, Note_off_c, 0, 58, 64
1, 566780, Note_on_c, 0, 62, 41
1, 566790, Note_on_c, 0, 58, 44
1, 566818, Note_on_c, 0, 55, 35
1, 566846, Control_c, 0, 64, 0
1, 567000, Note_on_c, 0, 67, 70
1, 567016, Control_c, 0, 64, 127
1, 567062, Control_c, 0, 64, 0
1, 567204, Note_on_c, 0, 74, 86
1, 567216, Note_off_c, 0, 67, 64
1, 567218, Note_off_c, 0, 58, 64
1, 567246, Control_c, 0, 64, 127
1, 567290, Note_off_c, 0, 62, 64
1, 567346, Note_off_c, 0, 74, 64
1, 567362, Note_off_c, 0, 55, 64
1, 567374, Note_on_c, 0, 70, 97
1, 567528, Note_off_c, 0, 70, 64
1, 567538, Control_c, 0, 64, 0
1, 567568, Note_on_c, 0, 79, 97
1, 567682, Note_off_c, 0, 79, 64
1, 567706, Control_c, 0, 64, 127
1, 567750, Note_on_c, 0, 74, 87
1, 567860, Control_c, 0, 64, 0
1, 567898, Note_off_c, 0, 74, 64
1, 567926, Note_on_c, 0, 82, 100
1, 568060, Control_c, 0, 64, 127
1, 568122, Control_c, 0, 64, 0
1, 568138, Note_on_c, 0, 79, 91
1, 568156, Note_off_c, 0, 82, 64
1, 568290, Control_c, 0, 64, 127
1, 568432, Note_on_c, 0, 86, 74
1, 568472, Note_off_c, 0, 79, 64
1, 568475, Control_c, 0, 64, 0
1, 568884, Note_on_c, 0, 65, 41
1, 568889, Control_c, 0, 64, 127
1, 568892, Note_on_c, 0, 59, 31
1, 568900, Note_on_c, 0, 55, 29
1, 569096, Note_off_c, 0, 59, 64
1, 569096, Note_off_c, 0, 55, 64
1, 569112, Note_off_c, 0, 65, 64
1, 569328, Note_off_c, 0, 86, 64
1, 569400, Note_on_c, 0, 65, 42
1, 569418, Note_on_c, 0, 59, 29
1, 569428, Note_on_c, 0, 55, 39
1, 569602, Note_on_c, 0, 86, 92
1, 569642, Control_c, 0, 64, 0
1, 569886, Note_on_c, 0, 89, 93
1, 569888, Control_c, 0, 64, 127
1, 569900, Note_off_c, 0, 86, 64
1, 569990, Note_off_c, 0, 65, 64
1, 570018, Note_off_c, 0, 59, 64
1, 570084, Note_off_c, 0, 89, 64
1, 570160, Note_on_c, 0, 83, 84
1, 570166, Note_off_c, 0, 55, 64
1, 570364, Control_c, 0, 64, 0
1, 570394, Note_on_c, 0, 86, 92
1, 570399, Note_off_c, 0, 83, 64
1, 570518, Control_c, 0, 64, 127
1, 570526, Note_off_c, 0, 86, 64
1, 570600, Note_on_c, 0, 80, 83
1, 570796, Control_c, 0, 64, 0
1, 570799, Note_off_c, 0, 80, 64
1, 570808, Note_on_c, 0, 83, 80
1, 570932, Note_off_c, 0, 83, 64
1, 570948, Control_c, 0, 64, 127
1, 571004, Note_on_c, 0, 77, 92
1, 571056, Control_c, 0, 64, 0
1, 571200, Note_off_c, 0, 77, 64
1, 571210, Control_c, 0, 64, 127
1, 571220, Note_on_c, 0, 80, 91
1, 571328, Note_off_c, 0, 80, 64
1, 571420, Note_on_c, 0, 74, 93
1, 571588, Note_off_c, 0, 74, 64
1, 571618, Note_on_c, 0, 77, 101
1, 571704, Note_off_c, 0, 77, 64
1, 571810, Note_on_c, 0, 71, 86
1, 571870, Control_c, 0, 64, 0
1, 571994, Control_c, 0, 64, 127
1, 572008, Note_on_c, 0, 74, 101
1, 572012, Note_off_c, 0, 71, 64
1, 572102, Note_off_c, 0, 74, 64
1, 572212, Note_on_c, 0, 68, 90
1, 572284, Control_c, 0, 64, 0
1, 572408, Control_c, 0, 64, 127
1, 572418, Note_on_c, 0, 71, 85
1, 572440, Note_off_c, 0, 68, 64
1, 572516, Control_c, 0, 64, 0
1, 572588, Note_off_c, 0, 71, 64
1, 572626, Note_on_c, 0, 65, 96
1, 572700, Control_c, 0, 64, 127
1, 572876, Note_off_c, 0, 65, 64
1, 572916, Control_c, 0, 64, 0
1, 572916, Note_on_c, 0, 68, 92
1, 573092, Note_off_c, 0, 68, 64
1, 573100, Control_c, 0, 64, 127
1, 573364, Note_on_c, 0, 56, 90
1, 573374, Note_on_c, 0, 48, 85
1, 573380, Note_on_c, 0, 36, 78
1, 573380, Note_on_c, 0, 50, 67
1, 573394, Note_on_c, 0, 53, 56
1, 573468, Control_c, 0, 64, 0
1, 573618, Note_off_c, 0, 48, 64
1, 573622, Control_c, 0, 64, 127
1, 573632, Note_off_c, 0, 50, 64
1, 573634, Note_off_c, 0, 36, 64
1, 573640, Note_off_c, 0, 53, 64
1, 573684, Note_off_c, 0, 56, 64
1, 573970, Note_on_c, 0, 56, 85
1, 573980, Note_on_c, 0, 50, 72
1, 573990, Note_on_c, 0, 47, 59
1, 573990, Note_on_c, 0, 53, 67
1, 574000, Note_on_c, 0, 35, 48
1, 574084, Control_c, 0, 64, 0
1, 575110, Note_on_c, 0, 55, 79
1, 575176, Note_off_c, 0, 56, 64
1, 575370, Note_off_c, 0, 47, 64
1, 575392, Note_off_c, 0, 53, 64
1, 575400, Note_off_c, 0, 50, 64
1, 575408, Note_off_c, 0, 35, 64
1, 575420, Control_c, 0, 64, 127
1, 575422, Note_off_c, 0, 55, 64
1, 575558, Control_c, 0, 64, 0
1, 575562, Note_on_c, 0, 44, 67
1, 575568, Note_on_c, 0, 60, 82
1, 575571, Note_on_c, 0, 32, 62
1, 575576, Note_on_c, 0, 50, 82
1, 575578, Note_on_c, 0, 53, 65
1, 575758, Control_c, 0, 64, 127
1, 575770, Note_off_c, 0, 44, 64
1, 575788, Note_off_c, 0, 50, 64
1, 575794, Note_off_c, 0, 32, 64
1, 575798, Note_off_c, 0, 53, 64
1, 575814, Note_off_c, 0, 60, 64
1, 575896, Control_c, 0, 64, 0
1, 575978, Note_on_c, 0, 60, 91
1, 575984, Note_on_c, 0, 50, 76
1, 575990, Note_on_c, 0, 53, 69
1, 575992, Note_on_c, 0, 44, 67
1, 576002, Note_on_c, 0, 32, 65
1, 576126, Control_c, 0, 64, 127
1, 576136, Note_off_c, 0, 44, 64
1, 576148, Note_off_c, 0, 32, 64
1, 576174, Note_off_c, 0, 50, 64
1, 576192, Note_off_c, 0, 60, 64
1, 576198, Note_off_c, 0, 53, 64
1, 576326, Control_c, 0, 64, 0
1, 576386, Note_on_c, 0, 60, 83
1, 576392, Note_on_c, 0, 53, 74
1, 576394, Note_on_c, 0, 50, 80
1, 576402, Note_on_c, 0, 44, 69
1, 576406, Note_on_c, 0, 32, 69
1, 576572, Control_c, 0, 64, 127
1, 576600, Note_off_c, 0, 50, 64
1, 576606, Note_off_c, 0, 60, 64
1, 576628, Note_off_c, 0, 32, 64
1, 576630, Note_off_c, 0, 53, 64
1, 576650, Note_off_c, 0, 44, 64
1, 576894, Note_on_c, 0, 60, 90
1, 576894, Note_on_c, 0, 50, 76
1, 576897, Note_on_c, 0, 53, 73
1, 576906, Note_on_c, 0, 31, 70
1, 576910, Control_c, 0, 64, 0
1, 576912, Note_on_c, 0, 43, 59
1, 578088, Note_on_c, 0, 59, 62
1, 578142, Note_off_c, 0, 60, 64
1, 578262, Note_off_c, 0, 31, 64
1, 578292, Note_off_c, 0, 50, 64
1, 578308, Note_off_c, 0, 43, 64
1, 578308, Control_c, 0, 64, 127
1, 578320, Note_off_c, 0, 53, 64
1, 578350, Note_off_c, 0, 59, 64
1, 578530, Note_on_c, 0, 36, 53
1, 578533, Note_on_c, 0, 63, 81
1, 578537, Note_on_c, 0, 48, 37
1, 578540, Control_c, 0, 64, 0
1, 578542, Note_on_c, 0, 54, 60
1, 578738, Control_c, 0, 64, 127
1, 578776, Note_off_c, 0, 63, 64
1, 578782, Note_off_c, 0, 36, 64
1, 578784, Note_off_c, 0, 54, 64
1, 578790, Note_off_c, 0, 48, 64
1, 578892, Control_c, 0, 64, 0
1, 578952, Note_on_c, 0, 54, 72
1, 578954, Note_on_c, 0, 63, 83
1, 578968, Note_on_c, 0, 48, 70
1, 578976, Note_on_c, 0, 36, 55
1, 579122, Control_c, 0, 64, 127
1, 579180, Note_off_c, 0, 54, 64
1, 579180, Note_off_c, 0, 48, 64
1, 579188, Note_off_c, 0, 36, 64
1, 579206, Note_off_c, 0, 63, 64
1, 579338, Control_c, 0, 64, 0
1, 579382, Note_on_c, 0, 63, 88
1, 579384, Note_on_c, 0, 54, 74
1, 579398, Note_on_c, 0, 36, 61
1, 579398, Note_on_c, 0, 48, 73
1, 579598, Control_c, 0, 64, 127
1, 579622, Note_off_c, 0, 48, 64
1, 579632, Note_off_c, 0, 36, 64
1, 579648, Note_off_c, 0, 54, 64
1, 579670, Note_off_c, 0, 63, 64
1, 579906, Note_on_c, 0, 54, 57
1, 579908, Note_on_c, 0, 63, 69
1, 579922, Control_c, 0, 64, 0
1, 579934, Note_on_c, 0, 36, 52
1, 579934, Note_on_c, 0, 48, 50
1, 580552, Control_c, 0, 64, 127
1, 580642, Note_off_c, 0, 48, 64
1, 580645, Note_off_c, 0, 36, 64
1, 580748, Note_off_c, 0, 54, 64
1, 580898, Note_on_c, 0, 55, 36
1, 580926, Note_on_c, 0, 62, 44
1, 580930, Note_on_c, 0, 47, 31
1, 580936, Control_c, 0, 64, 0
1, 580946, Note_on_c, 0, 35, 31
1, 580988, Note_off_c, 0, 63, 64
1, 581206, Note_off_c, 0, 35, 64
1, 581236, Note_off_c, 0, 47, 64
1, 581240, Note_off_c, 0, 55, 64
1, 581242, Control_c, 0, 64, 127
1, 581254, Note_off_c, 0, 62, 64
1, 581412, Control_c, 0, 64, 0
1, 581420, Note_on_c, 0, 67, 78
1, 581423, Note_on_c, 0, 51, 59
1, 581423, Note_on_c, 0, 55, 56
1, 581434, Note_on_c, 0, 39, 50
1, 581440, Note_on_c, 0, 60, 57
1, 581642, Note_off_c, 0, 51, 64
1, 581647, Note_off_c, 0, 55, 64
1, 581654, Note_off_c, 0, 39, 64
1, 581654, Note_off_c, 0, 60, 64
1, 581657, Control_c, 0, 64, 127
1, 581664, Note_off_c, 0, 67, 64
1, 581812, Control_c, 0, 64, 0
1, 581850, Note_on_c, 0, 67, 85
1, 581858, Note_on_c, 0, 51, 64
1, 581864, Note_on_c, 0, 60, 65
1, 581866, Note_on_c, 0, 55, 61
1, 581880, Note_on_c, 0, 39, 53
1, 582058, Control_c, 0, 64, 127
1, 582061, Note_off_c, 0, 51, 64
1, 582072, Note_off_c, 0, 39, 64
1, 582074, Note_off_c, 0, 55, 64
1, 582092, Note_off_c, 0, 67, 64
1, 582098, Note_off_c, 0, 60, 64
1, 582300, Note_on_c, 0, 67, 88
1, 582303, Note_on_c, 0, 55, 78
1, 582303, Control_c, 0, 64, 0
1, 582307, Note_on_c, 0, 51, 61
1, 582310, Note_on_c, 0, 60, 70
1, 582318, Note_on_c, 0, 39, 55
1, 582516, Note_off_c, 0, 51, 64
1, 582530, Note_off_c, 0, 39, 64
1, 582534, Control_c, 0, 64, 127
1, 582544, Note_off_c, 0, 55, 64
1, 582556, Note_off_c, 0, 67, 64
1, 582556, Note_off_c, 0, 60, 64
1, 582872, Control_c, 0, 64, 0
1, 582886, Note_on_c, 0, 67, 69
1, 582896, Note_on_c, 0, 60, 64
1, 582900, Note_on_c, 0, 55, 48
1, 582908, Note_on_c, 0, 39, 54
1, 582908, Note_on_c, 0, 51, 47
1, 583426, Control_c, 0, 64, 127
1, 583540, Note_off_c, 0, 60, 64
1, 583826, Note_off_c, 0, 51, 64
1, 583828, Note_off_c, 0, 39, 64
1, 584010, Note_on_c, 0, 65, 52
1, 584042, Note_on_c, 0, 59, 34
1, 584050, Note_on_c, 0, 50, 34
1, 584062, Note_on_c, 0, 38, 32
1, 584070, Control_c, 0, 64, 0
1, 584114, Note_off_c, 0, 67, 64
1, 584268, Note_off_c, 0, 55, 64
1, 584298, Note_off_c, 0, 59, 64
1, 584298, Note_off_c, 0, 50, 64
1, 584316, Control_c, 0, 64, 127
1, 584318, Note_off_c, 0, 38, 64
1, 584336, Note_off_c, 0, 65, 64
1, 584546, Note_on_c, 0, 63, 47
1, 584551, Note_on_c, 0, 68, 68
1, 584562, Control_c, 0, 64, 0
1, 584566, Note_on_c, 0, 65, 49
1, 584580, Note_on_c, 0, 36, 41
1, 584582, Note_on_c, 0, 48, 34
1, 584762, Control_c, 0, 64, 127
1, 584782, Note_off_c, 0, 48, 64
1, 584785, Note_off_c, 0, 63, 64
1, 584788, Note_off_c, 0, 65, 64
1, 584794, Note_off_c, 0, 36, 64
1, 584804, Note_off_c, 0, 68, 64
1, 584992, Control_c, 0, 64, 0
1, 585006, Note_on_c, 0, 63, 68
1, 585008, Note_on_c, 0, 68, 78
1, 585016, Note_on_c, 0, 36, 50
1, 585020, Note_on_c, 0, 48, 57
1, 585026, Note_on_c, 0, 65, 62
1, 585208, Control_c, 0, 64, 127
1, 585258, Note_off_c, 0, 65, 64
1, 585260, Note_off_c, 0, 63, 64
1, 585260, Note_off_c, 0, 48, 64
1, 585270, Note_off_c, 0, 36, 64
1, 585290, Note_off_c, 0, 68, 64
1, 585468, Control_c, 0, 64, 0
1, 585492, Note_on_c, 0, 63, 62
1, 585500, Note_on_c, 0, 68, 80
1, 585510, Note_on_c, 0, 48, 68
1, 585512, Note_on_c, 0, 36, 66
1, 585512, Note_on_c, 0, 65, 61
1, 585760, Note_off_c, 0, 48, 64
1, 585760, Control_c, 0, 64, 127
1, 585804, Note_off_c, 0, 65, 64
1, 585818, Note_off_c, 0, 36, 64
1, 585826, Note_off_c, 0, 63, 64
1, 585828, Note_off_c, 0, 68, 64
1, 586160, Control_c, 0, 64, 0
1, 586174, Note_on_c, 0, 68, 72
1, 586184, Note_on_c, 0, 65, 58
1, 586192, Note_on_c, 0, 62, 52
1, 586200, Note_on_c, 0, 47, 43
1, 586208, Note_on_c, 0, 35, 36
1, 587266, Control_c, 0, 64, 127
1, 587538, Note_on_c, 0, 67, 40
1, 587588, Control_c, 0, 64, 0
1, 587596, Note_off_c, 0, 68, 64
1, 587846, Note_off_c, 0, 62, 64
1, 587849, Control_c, 0, 64, 127
1, 587872, Note_off_c, 0, 65, 64
1, 587882, Note_off_c, 0, 67, 64
1, 588136, Note_on_c, 0, 74, 53
1, 588146, Note_on_c, 0, 71, 37
1, 588198, Note_off_c, 0, 35, 64
1, 588242, Note_off_c, 0, 47, 64
1, 588396, Note_off_c, 0, 71, 64
1, 588404, Note_off_c, 0, 74, 64
1, 588556, Control_c, 0, 64, 0
1, 588590, Note_on_c, 0, 74, 70
1, 588596, Note_on_c, 0, 71, 46
1, 588788, Control_c, 0, 64, 127
1, 588830, Note_off_c, 0, 71, 64
1, 588850, Note_off_c, 0, 74, 64
1, 589002, Control_c, 0, 64, 0
1, 589023, Note_on_c, 0, 71, 43
1, 589026, Note_on_c, 0, 74, 73
1, 589232, Control_c, 0, 64, 127
1, 589246, Note_off_c, 0, 71, 64
1, 589270, Note_off_c, 0, 74, 64
1, 589416, Control_c, 0, 64, 0
1, 589476, Note_on_c, 0, 77, 69
1, 589502, Note_on_c, 0, 74, 37
1, 589756, Control_c, 0, 64, 127
1, 589914, Note_on_c, 0, 56, 49
1, 589924, Control_c, 0, 64, 0
1, 590170, Control_c, 0, 64, 127
1, 590264, Note_off_c, 0, 74, 64
1, 590304, Note_off_c, 0, 77, 64
1, 590410, Note_on_c, 0, 55, 45
1, 590413, Note_off_c, 0, 56, 64
1, 590446, Control_c, 0, 64, 0
1, 590870, Note_on_c, 0, 83, 55
1, 590876, Note_on_c, 0, 74, 50
1, 591008, Note_off_c, 0, 55, 64
1, 591046, Control_c, 0, 64, 127
1, 591092, Note_off_c, 0, 74, 64
1, 591116, Note_off_c, 0, 83, 64
1, 591276, Control_c, 0, 64, 0
1, 591314, Note_on_c, 0, 83, 50
1, 591344, Note_on_c, 0, 74, 41
1, 591508, Control_c, 0, 64, 127
1, 591538, Note_off_c, 0, 74, 64
1, 591552, Note_off_c, 0, 83, 64
1, 591722, Control_c, 0, 64, 0
1, 591760, Note_on_c, 0, 83, 50
1, 591784, Note_on_c, 0, 74, 46
1, 591920, Note_off_c, 0, 74, 64
1, 591952, Control_c, 0, 64, 127
1, 592038, Note_off_c, 0, 83, 64
1, 592244, Control_c, 0, 64, 0
1, 592268, Note_on_c, 0, 86, 44
1, 592295, Note_on_c, 0, 77, 34
1, 592566, Control_c, 0, 64, 127
1, 592710, Note_on_c, 0, 68, 44
1, 592874, Control_c, 0, 64, 0
1, 593012, Control_c, 0, 64, 127
1, 593044, Note_off_c, 0, 77, 64
1, 593074, Note_off_c, 0, 86, 64
1, 593326, Note_on_c, 0, 67, 32
1, 593328, Note_off_c, 0, 68, 64
1, 593488, Control_c, 0, 64, 0
1, 593766, Control_c, 0, 64, 127
1, 593810, Note_on_c, 0, 86, 31
1, 593812, Control_c, 0, 64, 0
1, 593820, Note_on_c, 0, 83, 37
1, 593923, Note_off_c, 0, 83, 64
1, 593966, Control_c, 0, 64, 127
1, 593994, Note_off_c, 0, 86, 64
1, 594180, Control_c, 0, 64, 0
1, 594244, Note_off_c, 0, 67, 64
1, 594302, Note_on_c, 0, 86, 26
1, 594324, Note_on_c, 0, 83, 21
1, 594380, Control_c, 0, 64, 127
1, 594434, Note_off_c, 0, 83, 64
1, 594436, Note_off_c, 0, 86, 64
1, 594796, Control_c, 0, 64, 0
1, 594830, Note_on_c, 0, 86, 31
1, 594848, Note_on_c, 0, 83, 22
1, 594918, Control_c, 0, 64, 127
1, 594992, Note_off_c, 0, 83, 64
1, 595024, Note_off_c, 0, 86, 64
1, 595454, Note_on_c, 0, 89, 28
1, 595456, Control_c, 0, 64, 0
1, 595462, Note_on_c, 0, 86, 33
1, 595778, Control_c, 0, 64, 127
1, 596188, Note_on_c, 0, 80, 33
1, 596486, Control_c, 0, 64, 0
1, 596608, Control_c, 0, 64, 127
1, 597208, Note_on_c, 0, 79, 11
1, 597228, Note_off_c, 0, 80, 64
1, 597590, Control_c, 0, 64, 0
1, 597610, Note_off_c, 0, 86, 64
1, 597682, Note_off_c, 0, 89, 64
1, 597884, Control_c, 0, 64, 127
1, 599220, Control_c, 0, 64, 0
1, 599776, Note_off_c, 0, 79, 64
1, 602286, Note_on_c, 0, 60, 110
1, 602298, Note_on_c, 0, 48, 101
1, 602298, Note_on_c, 0, 36, 98
1, 602386, Control_c, 0, 64, 127
1, 603876, Control_c, 0, 64, 0
1, 604090, Control_c, 0, 64, 127
1, 604218, Note_off_c, 0, 48, 64
1, 604426, Note_off_c, 0, 36, 64
1, 605556, Note_on_c, 0, 63, 56
1, 605558, Note_on_c, 0, 51, 34
1, 605578, Note_on_c, 0, 39, 38
1, 605690, Note_off_c, 0, 60, 64
1, 605828, Control_c, 0, 64, 0
1, 606088, Control_c, 0, 64, 127
1, 606238, Note_off_c, 0, 51, 64
1, 606274, Note_off_c, 0, 39, 64
1, 606452, Note_on_c, 0, 66, 62
1, 606460, Note_on_c, 0, 54, 44
1, 606462, Note_on_c, 0, 42, 41
1, 606698, Note_off_c, 0, 63, 64
1, 606780, Control_c, 0, 64, 0
1, 607010, Control_c, 0, 64, 127
1, 607166, Note_off_c, 0, 42, 64
1, 607168, Note_off_c, 0, 54, 64
1, 607320, Note_on_c, 0, 67, 77
1, 607330, Note_on_c, 0, 55, 54
1, 607336, Note_on_c, 0, 43, 49
1, 607528, Note_off_c, 0, 66, 64
1, 607610, Control_c, 0, 64, 0
1, 607810, Control_c, 0, 64, 127
1, 607896, Note_off_c, 0, 55, 64
1, 608120, Note_on_c, 0, 68, 70
1, 608138, Note_off_c, 0, 43, 64
1, 608138, Note_on_c, 0, 56, 51
1, 608150, Note_on_c, 0, 44, 50
1, 608266, Note_off_c, 0, 67, 64
1, 608302, Control_c, 0, 64, 0
1, 608546, Control_c, 0, 64, 127
1, 608594, Note_off_c, 0, 56, 64
1, 608766, Note_off_c, 0, 44, 64
1, 608934, Note_on_c, 0, 60, 62
1, 608940, Note_on_c, 0, 36, 46
1, 608948, Note_on_c, 0, 48, 38
1, 609130, Note_off_c, 0, 68, 64
1, 609222, Control_c, 0, 64, 0
1, 609468, Control_c, 0, 64, 127
1, 609526, Note_off_c, 0, 48, 64
1, 609862, Note_on_c, 0, 59, 36
1, 609894, Note_on_c, 0, 47, 23
1, 609900, Control_c, 0, 64, 0
1, 609902, Note_off_c, 0, 36, 64
1, 609906, Note_on_c, 0, 35, 22
1, 610210, Note_off_c, 0, 60, 64
1, 610652, Control_c, 0, 64, 127
1, 610766, Note_off_c, 0, 35, 64
1, 610850, Note_off_c, 0, 59, 64
1, 610856, Note_off_c, 0, 47, 64
1, 611466, Control_c, 0, 64, 0
1, 611542, Note_on_c, 0, 75, 52
1, 611562, Note_on_c, 0, 66, 40
1, 611572, Note_on_c, 0, 72, 42
1, 611988, Control_c, 0, 64, 127
1, 612322, Note_on_c, 0, 71, 28
1, 612324, Note_off_c, 0, 72, 64
1, 612332, Note_on_c, 0, 74, 39
1, 612334, Note_on_c, 0, 67, 34
1, 612358, Note_off_c, 0, 75, 64
1, 612376, Note_off_c, 0, 66, 64
1, 612388, Control_c, 0, 64, 0
1, 612628, Note_off_c, 0, 71, 64
1, 612628, Note_off_c, 0, 67, 64
1, 612634, Control_c, 0, 64, 127
1, 612654, Note_off_c, 0, 74, 64
1, 613018, Control_c, 0, 64, 0
1, 613082, Note_on_c, 0, 78, 42
1, 613118, Note_on_c, 0, 68, 36
1, 613121, Note_on_c, 0, 72, 40
1, 613462, Control_c, 0, 64, 127
1, 613558, Note_off_c, 0, 72, 64
1, 613656, Note_off_c, 0, 68, 64
1, 613970, Note_on_c, 0, 79, 29
1, 613975, Note_off_c, 0, 78, 64
1, 613990, Note_on_c, 0, 71, 17
1, 614004, Note_on_c, 0, 67, 23
1, 614186, Control_c, 0, 64, 0
1, 614424, Note_off_c, 0, 67, 64
1, 614524, Control_c, 0, 64, 127
1, 614694, Note_off_c, 0, 71, 64
1, 614706, Note_off_c, 0, 79, 64
1, 614860, Control_c, 0, 64, 0
1, 616628, Note_on_c, 0, 56, 106
1, 616636, Note_on_c, 0, 32, 86
1, 616638, Note_on_c, 0, 44, 87
1, 616690, Control_c, 0, 64, 127
1, 618738, Note_off_c, 0, 32, 64
1, 618850, Note_off_c, 0, 44, 64
1, 619284, Note_on_c, 0, 59, 62
1, 619300, Note_on_c, 0, 47, 36
1, 619303, Note_on_c, 0, 35, 39
1, 619438, Note_off_c, 0, 56, 64
1, 619516, Control_c, 0, 64, 0
1, 619746, Control_c, 0, 64, 127
1, 619774, Note_off_c, 0, 35, 64
1, 619802, Note_off_c, 0, 47, 64
1, 619934, Note_off_c, 0, 59, 64
1, 620012, Note_on_c, 0, 60, 83
1, 620026, Note_on_c, 0, 36, 59
1, 620028, Note_on_c, 0, 48, 56
1, 620370, Note_on_c, 0, 61, 70
1, 620410, Note_off_c, 0, 60, 64
1, 620552, Note_on_c, 0, 60, 74
1, 620616, Note_off_c, 0, 61, 64
1, 620672, Note_on_c, 0, 59, 78
1, 620684, Note_off_c, 0, 60, 64
1, 620812, Note_on_c, 0, 60, 76
1, 620836, Note_off_c, 0, 59, 64
1, 620842, Control_c, 0, 64, 0
1, 620990, Note_off_c, 0, 48, 64
1, 621022, Control_c, 0, 64, 127
1, 621164, Note_on_c, 0, 61, 81
1, 621172, Note_on_c, 0, 49, 69
1, 621188, Note_on_c, 0, 37, 60
1, 621212, Note_off_c, 0, 36, 64
1, 621254, Note_off_c, 0, 60, 64
1, 621314, Control_c, 0, 64, 0
1, 621484, Control_c, 0, 64, 127
1, 621486, Note_off_c, 0, 49, 64
1, 621582, Note_on_c, 0, 63, 81
1, 621594, Note_on_c, 0, 39, 65
1, 621596, Note_on_c, 0, 51, 62
1, 621638, Note_off_c, 0, 37, 64
1, 621730, Control_c, 0, 64, 0
1, 621736, Note_off_c, 0, 61, 64
1, 622046, Note_off_c, 0, 51, 64
1, 622068, Control_c, 0, 64, 127
1, 622292, Note_off_c, 0, 39, 64
1, 622406, Note_on_c, 0, 56, 66
1, 622418, Note_on_c, 0, 32, 62
1, 622424, Note_on_c, 0, 44, 49
1, 622682, Control_c, 0, 64, 0
1, 622698, Note_off_c, 0, 63, 64
1, 623004, Control_c, 0, 64, 127
1, 623106, Note_off_c, 0, 44, 64
1, 623356, Note_on_c, 0, 55, 50
1, 623368, Note_on_c, 0, 31, 42
1, 623380, Note_on_c, 0, 43, 37
1, 623402, Note_off_c, 0, 32, 64
1, 623450, Control_c, 0, 64, 0
1, 623614, Note_off_c, 0, 56, 64
1, 624080, Control_c, 0, 64, 127
1, 624156, Note_off_c, 0, 31, 64
1, 624280, Note_off_c, 0, 43, 64
1, 624310, Note_off_c, 0, 55, 64
1, 624940, Control_c, 0, 64, 0
1, 625092, Note_on_c, 0, 68, 36
1, 625095, Note_on_c, 0, 71, 47
1, 625106, Note_on_c, 0, 62, 36
1, 625602, Control_c, 0, 64, 127
1, 625842, Note_off_c, 0, 62, 64
1, 625864, Note_on_c, 0, 70, 49
1, 625902, Note_on_c, 0, 67, 27
1, 625906, Note_on_c, 0, 63, 17
1, 625932, Note_off_c, 0, 71, 64
1, 625978, Note_off_c, 0, 68, 64
1, 626002, Control_c, 0, 64, 0
1, 626230, Note_off_c, 0, 67, 64
1, 626232, Control_c, 0, 64, 127
1, 626274, Note_off_c, 0, 70, 64
1, 626274, Note_off_c, 0, 63, 64
1, 626584, Control_c, 0, 64, 0
1, 626656, Note_on_c, 0, 74, 58
1, 626656, Note_on_c, 0, 68, 38
1, 626680, Note_on_c, 0, 71, 35
1, 627106, Control_c, 0, 64, 127
1, 627212, Note_off_c, 0, 68, 64
1, 627458, Note_off_c, 0, 71, 64
1, 627524, Note_off_c, 0, 74, 64
1, 627536, Note_on_c, 0, 75, 25
1, 627568, Note_on_c, 0, 67, 21
1, 627584, Note_on_c, 0, 70, 20
1, 627660, Control_c, 0, 64, 0
1, 627983, Note_off_c, 0, 67, 64
1, 628076, Control_c, 0, 64, 127
1, 628198, Note_off_c, 0, 70, 64
1, 628334, Note_off_c, 0, 75, 64
1, 628444, Control_c, 0, 64, 0
1, 629244, Control_c, 0, 64, 127
1, 630488, Note_on_c, 0, 61, 83
1, 630512, Note_on_c, 0, 41, 63
1, 630934, Note_on_c, 0, 49, 46
1, 631250, Note_off_c, 0, 49, 64
1, 631276, Note_on_c, 0, 44, 34
1, 631342, Note_off_c, 0, 41, 64
1, 631588, Note_off_c, 0, 44, 64
1, 631612, Note_on_c, 0, 49, 34
1, 631850, Note_off_c, 0, 49, 64
1, 631936, Note_on_c, 0, 41, 42
1, 631978, Control_c, 0, 64, 0
1, 632146, Control_c, 0, 64, 127
1, 632170, Note_off_c, 0, 61, 64
1, 632228, Note_on_c, 0, 49, 38
1, 632522, Note_off_c, 0, 49, 64
1, 632568, Note_on_c, 0, 85, 61
1, 632584, Note_on_c, 0, 44, 31
1, 632618, Note_off_c, 0, 41, 64
1, 632864, Note_off_c, 0, 44, 64
1, 632880, Note_on_c, 0, 49, 39
1, 633098, Note_off_c, 0, 49, 64
1, 633234, Note_on_c, 0, 80, 64
1, 633260, Note_on_c, 0, 41, 44
1, 633432, Note_off_c, 0, 85, 64
1, 633484, Control_c, 0, 64, 0
1, 633540, Note_on_c, 0, 49, 53
1, 633636, Control_c, 0, 64, 127
1, 633842, Note_off_c, 0, 49, 64
1, 633882, Note_on_c, 0, 77, 83
1, 633885, Note_on_c, 0, 44, 39
1, 633928, Note_off_c, 0, 41, 64
1, 633982, Note_off_c, 0, 80, 64
1, 634198, Note_on_c, 0, 49, 53
1, 634486, Note_off_c, 0, 49, 64
1, 634500, Note_on_c, 0, 73, 85
1, 634502, Note_off_c, 0, 44, 64
1, 634524, Note_on_c, 0, 41, 48
1, 634628, Note_off_c, 0, 77, 64
1, 634798, Note_on_c, 0, 49, 58
1, 635130, Note_off_c, 0, 49, 64
1, 635148, Note_on_c, 0, 68, 79
1, 635174, Note_on_c, 0, 44, 52
1, 635222, Note_off_c, 0, 73, 64
1, 635256, Note_off_c, 0, 41, 64
1, 635386, Note_off_c, 0, 68, 64
1, 635432, Note_off_c, 0, 44, 64
1, 635472, Note_on_c, 0, 49, 71
1, 635552, Note_off_c, 0, 49, 64
1, 635940, Note_on_c, 0, 63, 97
1, 635944, Note_on_c, 0, 57, 95
1, 635946, Note_on_c, 0, 60, 92
1, 635950, Note_on_c, 0, 42, 95
1, 636264, Control_c, 0, 64, 0
1, 636338, Note_on_c, 0, 48, 75
1, 636556, Control_c, 0, 64, 127
1, 636636, Note_off_c, 0, 48, 64
1, 636674, Note_on_c, 0, 45, 61
1, 636752, Note_off_c, 0, 42, 64
1, 636992, Note_off_c, 0, 45, 64
1, 636992, Note_on_c, 0, 48, 64
1, 637314, Note_on_c, 0, 42, 62
1, 637320, Note_off_c, 0, 48, 64
1, 637372, Control_c, 0, 64, 0
1, 637556, Control_c, 0, 64, 127
1, 637608, Note_off_c, 0, 57, 64
1, 637642, Note_off_c, 0, 60, 64
1, 637642, Note_on_c, 0, 48, 53
1, 637692, Note_off_c, 0, 63, 64
1, 637938, Note_off_c, 0, 48, 64
1, 638012, Note_on_c, 0, 84, 69
1, 638032, Note_off_c, 0, 42, 64
1, 638052, Note_on_c, 0, 45, 33
1, 638300, Note_off_c, 0, 45, 64
1, 638330, Note_on_c, 0, 48, 41
1, 638610, Note_off_c, 0, 48, 64
1, 638658, Note_on_c, 0, 81, 78
1, 638674, Note_on_c, 0, 42, 34
1, 638864, Note_off_c, 0, 84, 64
1, 638982, Note_on_c, 0, 48, 45
1, 639244, Note_off_c, 0, 48, 64
1, 639288, Note_on_c, 0, 78, 59
1, 639322, Note_on_c, 0, 45, 44
1, 639458, Note_off_c, 0, 81, 64
1, 639544, Note_off_c, 0, 42, 64
1, 639618, Note_on_c, 0, 48, 37
1, 639806, Note_off_c, 0, 48, 64
1, 639870, Note_off_c, 0, 45, 64
1, 639934, Note_on_c, 0, 75, 48
1, 639952, Note_on_c, 0, 42, 28
1, 640126, Note_off_c, 0, 78, 64
1, 640198, Control_c, 0, 64, 0
1, 640260, Note_on_c, 0, 48, 38
1, 640360, Control_c, 0, 64, 127
1, 640528, Note_off_c, 0, 48, 64
1, 640610, Note_on_c, 0, 72, 44
1, 640616, Note_on_c, 0, 45, 36
1, 640644, Control_c, 0, 64, 0
1, 640688, Note_off_c, 0, 75, 64
1, 640858, Control_c, 0, 64, 127
1, 640914, Note_off_c, 0, 45, 64
1, 640958, Note_on_c, 0, 48, 37
1, 641012, Note_off_c, 0, 72, 64
1, 641032, Note_off_c, 0, 42, 64
1, 641256, Note_off_c, 0, 48, 64
1, 641304, Note_on_c, 0, 43, 36
1, 641366, Control_c, 0, 64, 0
1, 641598, Note_on_c, 0, 63, 42
1, 641620, Note_on_c, 0, 60, 44
1, 641734, Control_c, 0, 64, 127
1, 641746, Note_off_c, 0, 63, 64
1, 641754, Note_off_c, 0, 60, 64
1, 641902, Note_on_c, 0, 60, 36
1, 641920, Note_on_c, 0, 63, 32
1, 642024, Note_off_c, 0, 63, 64
1, 642032, Note_off_c, 0, 60, 64
1, 642164, Control_c, 0, 64, 0
1, 642222, Note_on_c, 0, 63, 40
1, 642232, Note_on_c, 0, 60, 39
1, 642324, Note_off_c, 0, 43, 64
1, 642336, Note_off_c, 0, 60, 64
1, 642350, Control_c, 0, 64, 127
1, 642410, Note_off_c, 0, 63, 64
1, 642456, Control_c, 0, 64, 0
1, 642510, Note_on_c, 0, 44, 60
1, 642818, Note_on_c, 0, 60, 48
1, 642818, Note_on_c, 0, 63, 42
1, 642826, Control_c, 0, 64, 127
1, 642932, Note_off_c, 0, 60, 64
1, 642934, Note_off_c, 0, 63, 64
1, 643024, Control_c, 0, 64, 0
1, 643120, Note_on_c, 0, 60, 52
1, 643120, Note_on_c, 0, 63, 50
1, 643168, Note_off_c, 0, 44, 64
1, 643194, Control_c, 0, 64, 127
1, 643224, Note_off_c, 0, 60, 64
1, 643244, Note_off_c, 0, 63, 64
1, 643394, Control_c, 0, 64, 0
1, 643424, Note_on_c, 0, 60, 37
1, 643432, Note_on_c, 0, 63, 28
1, 643548, Control_c, 0, 64, 127
1, 643628, Note_off_c, 0, 60, 64
1, 643636, Note_off_c, 0, 63, 64
1, 643702, Control_c, 0, 64, 0
1, 643732, Note_on_c, 0, 41, 47
1, 644040, Note_on_c, 0, 62, 34
1, 644054, Note_on_c, 0, 60, 37
1, 644146, Control_c, 0, 64, 127
1, 644166, Note_off_c, 0, 62, 64
1, 644168, Note_off_c, 0, 60, 64
1, 644300, Control_c, 0, 64, 0
1, 644338, Note_on_c, 0, 60, 32
1, 644356, Note_on_c, 0, 62, 35
1, 644448, Note_off_c, 0, 62, 64
1, 644454, Control_c, 0, 64, 127
1, 644466, Note_off_c, 0, 60, 64
1, 644508, Note_off_c, 0, 41, 64
1, 644562, Control_c, 0, 64, 0
1, 644652, Note_on_c, 0, 60, 32
1, 644654, Note_on_c, 0, 62, 25
1, 644746, Control_c, 0, 64, 127
1, 644804, Note_off_c, 0, 60, 64
1, 644804, Note_off_c, 0, 62, 64
1, 644930, Control_c, 0, 64, 0
1, 644948, Note_on_c, 0, 43, 25
1, 645130, Control_c, 0, 64, 127
1, 645176, Control_c, 0, 64, 0
1, 645256, Note_on_c, 0, 62, 37
1, 645288, Note_on_c, 0, 59, 18
1, 645360, Control_c, 0, 64, 127
1, 645370, Note_off_c, 0, 62, 64
1, 645382, Note_off_c, 0, 59, 64
1, 645484, Control_c, 0, 64, 0
1, 645552, Note_on_c, 0, 59, 22
1, 645576, Note_on_c, 0, 62, 32
1, 645622, Control_c, 0, 64, 127
1, 645658, Note_off_c, 0, 62, 64
1, 645664, Note_off_c, 0, 59, 64
1, 645750, Note_off_c, 0, 43, 64
1, 645790, Control_c, 0, 64, 0
1, 645872, Note_on_c, 0, 62, 31
1, 645880, Note_on_c, 0, 59, 25
1, 645898, Control_c, 0, 64, 127
1, 645954, Note_off_c, 0, 59, 64
1, 646000, Note_off_c, 0, 62, 64
1, 646082, Control_c, 0, 64, 0
1, 646168, Note_on_c, 0, 36, 44
1, 646184, Note_on_c, 0, 60, 37
1, 646510, Note_on_c, 0, 67, 42
1, 646512, Control_c, 0, 64, 127
1, 646558, Note_off_c, 0, 60, 64
1, 646632, Note_off_c, 0, 67, 64
1, 646806, Note_on_c, 0, 67, 48
1, 646878, Note_off_c, 0, 67, 64
1, 647094, Note_on_c, 0, 67, 53
1, 647150, Note_off_c, 0, 36, 64
1, 647174, Note_off_c, 0, 67, 64
1, 647312, Control_c, 0, 64, 0
1, 647370, Note_on_c, 0, 67, 62
1, 647376, Note_on_c, 0, 65, 54
1, 647468, Note_off_c, 0, 65, 64
1, 647480, Control_c, 0, 64, 127
1, 647508, Note_off_c, 0, 67, 64
1, 647634, Control_c, 0, 64, 0
1, 647654, Note_on_c, 0, 67, 41
1, 647662, Note_on_c, 0, 43, 61
1, 647676, Note_on_c, 0, 65, 48
1, 647742, Note_off_c, 0, 65, 64
1, 647770, Note_off_c, 0, 67, 64
1, 647773, Control_c, 0, 64, 127
1, 647788, Note_on_c, 0, 45, 79
1, 647796, Note_off_c, 0, 43, 64
1, 647850, Control_c, 0, 64, 0
1, 647904, Note_on_c, 0, 47, 59
1, 647928, Note_on_c, 0, 67, 45
1, 647931, Note_off_c, 0, 45, 64
1, 647934, Note_on_c, 0, 65, 54
1, 647988, Control_c, 0, 64, 127
1, 647994, Note_off_c, 0, 65, 64
1, 648002, Note_off_c, 0, 67, 64
1, 648048, Note_off_c, 0, 47, 64
1, 648050, Note_on_c, 0, 48, 78
1, 648066, Control_c, 0, 64, 0
1, 648164, Note_off_c, 0, 48, 64
1, 648170, Note_on_c, 0, 67, 37
1, 648182, Note_on_c, 0, 65, 56
1, 648185, Note_on_c, 0, 50, 70
1, 648234, Control_c, 0, 64, 127
1, 648262, Note_off_c, 0, 65, 64
1, 648267, Note_off_c, 0, 67, 64
1, 648302, Note_off_c, 0, 50, 64
1, 648305, Note_on_c, 0, 47, 59
1, 648372, Control_c, 0, 64, 0
1, 648416, Note_off_c, 0, 47, 64
1, 648448, Note_on_c, 0, 63, 50
1, 648460, Note_on_c, 0, 67, 62
1, 648468, Note_on_c, 0, 48, 65
1, 648586, Note_off_c, 0, 67, 64
1, 648606, Note_off_c, 0, 63, 64
1, 648618, Control_c, 0, 64, 127
1, 648710, Control_c, 0, 64, 0
1, 648762, Note_on_c, 0, 63, 37
1, 648776, Note_on_c, 0, 67, 51
1, 648854, Note_off_c, 0, 63, 64
1, 648864, Control_c, 0, 64, 127
1, 648880, Note_off_c, 0, 67, 64
1, 648986, Control_c, 0, 64, 0
1, 649034, Note_on_c, 0, 67, 44
1, 649050, Note_on_c, 0, 63, 39
1, 649124, Control_c, 0, 64, 127
1, 649128, Note_off_c, 0, 63, 64
1, 649178, Note_off_c, 0, 67, 64
1, 649232, Control_c, 0, 64, 0
1, 649272, Note_off_c, 0, 48, 64
1, 649314, Note_on_c, 0, 67, 41
1, 649324, Note_on_c, 0, 63, 47
1, 649370, Control_c, 0, 64, 127
1, 649406, Note_off_c, 0, 63, 64
1, 649466, Note_off_c, 0, 67, 64
1, 649524, Control_c, 0, 64, 0
1, 649592, Note_on_c, 0, 67, 39
1, 649610, Note_on_c, 0, 65, 61
1, 649694, Control_c, 0, 64, 127
1, 649716, Note_off_c, 0, 65, 64
1, 649752, Note_off_c, 0, 67, 64
1, 649816, Control_c, 0, 64, 0
1, 649880, Note_on_c, 0, 67, 41
1, 649884, Note_on_c, 0, 43, 58
1, 649890, Note_on_c, 0, 65, 59
1, 649960, Note_off_c, 0, 65, 64
1, 649970, Control_c, 0, 64, 127
1, 649973, Note_off_c, 0, 67, 64
1, 650000, Note_on_c, 0, 45, 78
1, 650002, Note_off_c, 0, 43, 64
1, 650062, Control_c, 0, 64, 0
1, 650130, Note_on_c, 0, 67, 58
1, 650132, Note_on_c, 0, 47, 67
1, 650142, Note_on_c, 0, 65, 66
1, 650150, Note_off_c, 0, 45, 64
1, 650202, Note_off_c, 0, 65, 64
1, 650218, Note_off_c, 0, 67, 64
1, 650232, Control_c, 0, 64, 127
1, 650266, Note_off_c, 0, 47, 64
1, 650268, Note_on_c, 0, 48, 87
1, 650324, Control_c, 0, 64, 0
1, 650390, Note_off_c, 0, 48, 64
1, 650393, Note_on_c, 0, 65, 63
1, 650400, Note_on_c, 0, 67, 74
1, 650402, Note_on_c, 0, 50, 81
1, 650478, Control_c, 0, 64, 127
1, 650514, Note_off_c, 0, 65, 64
1, 650516, Note_off_c, 0, 67, 64
1, 650518, Note_off_c, 0, 50, 64
1, 650538, Note_on_c, 0, 47, 80
1, 650600, Control_c, 0, 64, 0
1, 650602, Note_off_c, 0, 47, 64
1, 650670, Note_on_c, 0, 63, 73
1, 650682, Note_on_c, 0, 67, 86
1, 650690, Note_on_c, 0, 48, 96
1, 650794, Note_off_c, 0, 48, 64
1, 650814, Control_c, 0, 64, 127
1, 650826, Note_off_c, 0, 63, 64
1, 650832, Note_off_c, 0, 67, 64
1, 650922, Control_c, 0, 64, 0
1, 650978, Note_on_c, 0, 43, 73
1, 650978, Note_on_c, 0, 67, 57
1, 650981, Note_on_c, 0, 65, 68
1, 651064, Note_off_c, 0, 65, 64
1, 651102, Note_on_c, 0, 45, 87
1, 651114, Note_off_c, 0, 67, 64
1, 651118, Note_off_c, 0, 43, 64
1, 651138, Control_c, 0, 64, 127
1, 651184, Control_c, 0, 64, 0
1, 651244, Note_on_c, 0, 67, 57
1, 651247, Note_on_c, 0, 47, 68
1, 651252, Note_on_c, 0, 65, 71
1, 651262, Note_off_c, 0, 45, 64
1, 651326, Note_off_c, 0, 65, 64
1, 651360, Note_off_c, 0, 67, 64
1, 651374, Note_on_c, 0, 48, 88
1, 651382, Note_off_c, 0, 47, 64
1, 651384, Control_c, 0, 64, 127
1, 651430, Control_c, 0, 64, 0
1, 651492, Note_off_c, 0, 48, 64
1, 651502, Note_on_c, 0, 50, 85
1, 651524, Note_on_c, 0, 65, 68
1, 651528, Note_on_c, 0, 67, 75
1, 651598, Control_c, 0, 64, 127
1, 651616, Note_off_c, 0, 50, 64
1, 651628, Note_off_c, 0, 65, 64
1, 651636, Note_on_c, 0, 47, 81
1, 651658, Note_off_c, 0, 67, 64
1, 651706, Control_c, 0, 64, 0
1, 651708, Note_off_c, 0, 47, 64
1, 651762, Note_on_c, 0, 67, 78
1, 651768, Note_on_c, 0, 63, 82
1, 651780, Note_on_c, 0, 48, 101
1, 651882, Note_off_c, 0, 48, 64
1, 651900, Note_off_c, 0, 63, 64
1, 651906, Control_c, 0, 64, 127
1, 651926, Note_off_c, 0, 67, 64
1, 651998, Control_c, 0, 64, 0
1, 652056, Note_on_c, 0, 67, 60
1, 652059, Note_on_c, 0, 43, 78
1, 652072, Note_on_c, 0, 65, 73
1, 652136, Note_off_c, 0, 65, 64
1, 652180, Note_off_c, 0, 67, 64
1, 652184, Note_on_c, 0, 45, 93
1, 652214, Control_c, 0, 64, 127
1, 652217, Note_off_c, 0, 43, 64
1, 652290, Control_c, 0, 64, 0
1, 652310, Note_on_c, 0, 67, 70
1, 652322, Note_on_c, 0, 47, 76
1, 652322, Note_on_c, 0, 65, 79
1, 652372, Note_off_c, 0, 45, 64
1, 652416, Note_off_c, 0, 65, 64
1, 652434, Note_off_c, 0, 67, 64
1, 652442, Note_on_c, 0, 48, 92
1, 652458, Control_c, 0, 64, 127
1, 652472, Note_off_c, 0, 47, 64
1, 652536, Control_c, 0, 64, 0
1, 652570, Note_on_c, 0, 67, 73
1, 652572, Note_off_c, 0, 48, 64
1, 652580, Note_on_c, 0, 50, 87
1, 652584, Note_on_c, 0, 65, 83
1, 652646, Note_off_c, 0, 65, 64
1, 652658, Control_c, 0, 64, 127
1, 652686, Note_off_c, 0, 50, 64
1, 652691, Note_off_c, 0, 67, 64
1, 652706, Note_on_c, 0, 47, 71
1, 652736, Control_c, 0, 64, 0
1, 652756, Note_off_c, 0, 47, 64
1, 652838, Note_on_c, 0, 63, 73
1, 652842, Note_on_c, 0, 67, 79
1, 652846, Note_on_c, 0, 48, 91
1, 652890, Note_off_c, 0, 48, 64
1, 652952, Note_off_c, 0, 63, 64
1, 652952, Control_c, 0, 64, 127
1, 652974, Note_off_c, 0, 67, 64
1, 653058, Control_c, 0, 64, 0
1, 653124, Note_on_c, 0, 72, 108
1, 653126, Note_on_c, 0, 58, 111
1, 653132, Note_on_c, 0, 64, 101
1, 653132, Note_on_c, 0, 46, 106
1, 653236, Note_off_c, 0, 58, 64
1, 653238, Note_off_c, 0, 46, 64
1, 653258, Control_c, 0, 64, 127
1, 653276, Note_off_c, 0, 64, 64
1, 653294, Note_off_c, 0, 72, 64
1, 653366, Control_c, 0, 64, 0
1, 653426, Note_on_c, 0, 65, 104
1, 653429, Note_on_c, 0, 56, 90
1, 653429, Note_on_c, 0, 72, 110
1, 653436, Note_on_c, 0, 44, 85
1, 653550, Note_off_c, 0, 56, 64
1, 653550, Control_c, 0, 64, 127
1, 653566, Note_off_c, 0, 44, 64
1, 653569, Note_off_c, 0, 65, 64
1, 653588, Note_off_c, 0, 72, 64
1, 653672, Control_c, 0, 64, 0
1, 653716, Note_on_c, 0, 72, 99
1, 653718, Note_on_c, 0, 64, 99
1, 653722, Note_on_c, 0, 67, 94
1, 653724, Note_on_c, 0, 55, 95
1, 653730, Note_on_c, 0, 43, 92
1, 653856, Note_off_c, 0, 55, 64
1, 653856, Control_c, 0, 64, 127
1, 653864, Note_off_c, 0, 43, 64
1, 653872, Note_off_c, 0, 64, 64
1, 653890, Note_off_c, 0, 72, 64
1, 653898, Note_off_c, 0, 67, 64
1, 653964, Control_c, 0, 64, 0
1, 654024, Note_on_c, 0, 72, 98
1, 654024, Note_on_c, 0, 68, 86
1, 654026, Note_on_c, 0, 65, 97
1, 654032, Note_on_c, 0, 53, 87
1, 654034, Note_on_c, 0, 41, 92
1, 654174, Note_off_c, 0, 65, 64
1, 654196, Note_off_c, 0, 53, 64
1, 654196, Control_c, 0, 64, 127
1, 654212, Note_off_c, 0, 72, 64
1, 654220, Note_off_c, 0, 68, 64
1, 654234, Note_off_c, 0, 41, 64
1, 654288, Control_c, 0, 64, 0
1, 654340, Note_on_c, 0, 70, 92
1, 654342, Note_on_c, 0, 67, 94
1, 654345, Note_on_c, 0, 72, 97
1, 654352, Note_on_c, 0, 52, 89
1, 654356, Note_on_c, 0, 40, 87
1, 654502, Control_c, 0, 64, 127
1, 654524, Note_off_c, 0, 72, 64
1, 654526, Note_off_c, 0, 40, 64
1, 654542, Note_off_c, 0, 67, 64
1, 654556, Note_off_c, 0, 52, 64
1, 654568, Note_off_c, 0, 70, 64
1, 654626, Control_c, 0, 64, 0
1, 654646, Note_on_c, 0, 68, 90
1, 654651, Note_on_c, 0, 72, 102
1, 654654, Note_on_c, 0, 65, 95
1, 654662, Note_on_c, 0, 53, 93
1, 654668, Note_on_c, 0, 41, 83
1, 654818, Note_off_c, 0, 65, 64
1, 654824, Note_off_c, 0, 53, 64
1, 654824, Control_c, 0, 64, 127
1, 654840, Note_off_c, 0, 72, 64
1, 654856, Note_off_c, 0, 41, 64
1, 654858, Note_off_c, 0, 68, 64
1, 654948, Control_c, 0, 64, 0
1, 654964, Note_on_c, 0, 72, 105
1, 654966, Note_on_c, 0, 52, 89
1, 654970, Note_on_c, 0, 40, 89
1, 654972, Note_on_c, 0, 67, 91
1, 654974, Note_on_c, 0, 70, 89
1, 655030, Note_off_c, 0, 67, 64
1, 655102, Note_off_c, 0, 52, 64
1, 655104, Note_off_c, 0, 40, 64
1, 655146, Note_off_c, 0, 72, 64
1, 655148, Control_c, 0, 64, 127
1, 655151, Note_off_c, 0, 70, 64
1, 655348, Control_c, 0, 64, 0
1, 655390, Note_on_c, 0, 72, 103
1, 655406, Note_on_c, 0, 65, 67
1, 655406, Note_on_c, 0, 68, 64
1, 655412, Note_on_c, 0, 53, 51
1, 655416, Note_on_c, 0, 41, 50
1, 655748, Control_c, 0, 64, 127
1, 655798, Note_off_c, 0, 41, 64
1, 655848, Note_off_c, 0, 53, 64
1, 655936, Note_off_c, 0, 68, 64
1, 655940, Note_off_c, 0, 65, 64
1, 656078, Note_on_c, 0, 70, 79
1, 656092, Note_on_c, 0, 67, 66
1, 656108, Note_on_c, 0, 53, 52
1, 656130, Control_c, 0, 64, 0
1, 656152, Note_off_c, 0, 67, 64
1, 656174, Note_off_c, 0, 72, 64
1, 656208, Control_c, 0, 64, 127
1, 656222, Note_on_c, 0, 68, 69
1, 656242, Note_on_c, 0, 65, 59
1, 656244, Note_off_c, 0, 70, 64
1, 656266, Note_off_c, 0, 68, 64
1, 656306, Note_off_c, 0, 65, 64
1, 656376, Note_on_c, 0, 67, 79
1, 656379, Note_on_c, 0, 63, 63
1, 656436, Note_off_c, 0, 63, 64
1, 656502, Note_off_c, 0, 67, 64
1, 656508, Note_on_c, 0, 65, 88
1, 656526, Note_on_c, 0, 62, 63
1, 656548, Note_off_c, 0, 65, 64
1, 656646, Note_off_c, 0, 53, 64
1, 656692, Note_off_c, 0, 62, 64
1, 656700, Note_on_c, 0, 63, 70
1, 656706, Note_on_c, 0, 60, 59
1, 656716, Control_c, 0, 64, 0
1, 656719, Note_on_c, 0, 55, 44
1, 657384, Note_off_c, 0, 55, 64
1, 657414, Note_off_c, 0, 60, 64
1, 657452, Note_on_c, 0, 43, 36
1, 657458, Note_on_c, 0, 62, 37
1, 657460, Note_off_c, 0, 63, 64
1, 657468, Note_on_c, 0, 59, 25
1, 657792, Note_off_c, 0, 59, 64
1, 657868, Control_c, 0, 64, 127
1, 657972, Note_off_c, 0, 62, 64
1, 658020, Note_off_c, 0, 43, 64
1, 658190, Control_c, 0, 64, 0
1, 658216, Note_on_c, 0, 60, 42
1, 658244, Note_on_c, 0, 48, 24
1, 658482, Control_c, 0, 64, 127
1, 658528, Control_c, 0, 64, 0
1, 658550, Note_off_c, 0, 60, 64
1, 658596, Note_on_c, 0, 67, 35
1, 658698, Control_c, 0, 64, 127
1, 658756, Note_off_c, 0, 48, 64
1, 658756, Note_off_c, 0, 67, 64
1, 658820, Control_c, 0, 64, 0
1, 658876, Note_on_c, 0, 67, 31
1, 658958, Control_c, 0, 64, 127
1, 659040, Note_off_c, 0, 67, 64
1, 659112, Control_c, 0, 64, 0
1, 659156, Note_on_c, 0, 67, 44
1, 659266, Control_c, 0, 64, 127
1, 659306, Note_off_c, 0, 67, 64
1, 659420, Control_c, 0, 64, 0
1, 659458, Note_on_c, 0, 67, 39
1, 659558, Control_c, 0, 64, 127
1, 659594, Note_off_c, 0, 67, 64
1, 659680, Control_c, 0, 64, 0
1, 659754, Note_on_c, 0, 67, 40
1, 659768, Note_on_c, 0, 66, 31
1, 659850, Control_c, 0, 64, 127
1, 659880, Note_off_c, 0, 66, 64
1, 659898, Note_off_c, 0, 67, 64
1, 659958, Control_c, 0, 64, 0
1, 660054, Note_on_c, 0, 67, 46
1, 660066, Note_on_c, 0, 66, 45
1, 660110, Control_c, 0, 64, 127
1, 660122, Note_off_c, 0, 67, 64
1, 660136, Note_off_c, 0, 66, 64
1, 660250, Control_c, 0, 64, 0
1, 660342, Control_c, 0, 64, 127
1, 660342, Note_on_c, 0, 67, 66
1, 660352, Note_on_c, 0, 66, 50
1, 660402, Note_off_c, 0, 67, 64
1, 660428, Note_off_c, 0, 66, 64
1, 660586, Control_c, 0, 64, 0
1, 660632, Note_on_c, 0, 66, 53
1, 660644, Note_on_c, 0, 67, 59
1, 660698, Note_off_c, 0, 67, 64
1, 660726, Control_c, 0, 64, 127
1, 660734, Note_off_c, 0, 66, 64
1, 660848, Control_c, 0, 64, 0
1, 660928, Note_on_c, 0, 67, 48
1, 660950, Note_on_c, 0, 65, 48
1, 661016, Control_c, 0, 64, 127
1, 661021, Note_off_c, 0, 65, 64
1, 661028, Note_off_c, 0, 67, 64
1, 661126, Control_c, 0, 64, 0
1, 661218, Note_on_c, 0, 67, 52
1, 661228, Note_on_c, 0, 65, 36
1, 661248, Control_c, 0, 64, 127
1, 661278, Note_off_c, 0, 67, 64
1, 661294, Note_off_c, 0, 65, 64
1, 661370, Control_c, 0, 64, 0
1, 661494, Note_on_c, 0, 65, 42
1, 661494, Note_on_c, 0, 67, 53
1, 661496, Control_c, 0, 64, 127
1, 661552, Note_off_c, 0, 67, 64
1, 661564, Note_off_c, 0, 65, 64
1, 661754, Control_c, 0, 64, 0
1, 661778, Note_on_c, 0, 65, 41
1, 661790, Note_on_c, 0, 67, 49
1, 661862, Note_off_c, 0, 67, 64
1, 661876, Note_off_c, 0, 65, 64
1, 661878, Control_c, 0, 64, 127
1, 662046, Note_on_c, 0, 79, 80
1, 662066, Note_on_c, 0, 67, 39
1, 662080, Note_on_c, 0, 65, 41
1, 662136, Note_off_c, 0, 67, 64
1, 662148, Note_off_c, 0, 65, 64
1, 662190, Note_off_c, 0, 79, 64
1, 662194, Note_on_c, 0, 81, 88
1, 662320, Note_on_c, 0, 83, 83
1, 662336, Note_on_c, 0, 67, 51
1, 662338, Note_off_c, 0, 81, 64
1, 662340, Note_on_c, 0, 65, 51
1, 662370, Control_c, 0, 64, 0
1, 662394, Note_off_c, 0, 67, 64
1, 662402, Note_off_c, 0, 65, 64
1, 662454, Note_on_c, 0, 84, 94
1, 662458, Note_off_c, 0, 83, 64
1, 662492, Control_c, 0, 64, 127
1, 662590, Note_on_c, 0, 67, 55
1, 662596, Note_on_c, 0, 65, 59
1, 662596, Note_on_c, 0, 86, 88
1, 662608, Note_off_c, 0, 84, 64
1, 662652, Note_off_c, 0, 67, 64
1, 662660, Note_off_c, 0, 65, 64
1, 662708, Note_on_c, 0, 83, 84
1, 662738, Note_off_c, 0, 86, 64
1, 662800, Control_c, 0, 64, 0
1, 662856, Note_off_c, 0, 83, 64
1, 662860, Note_on_c, 0, 63, 47
1, 662870, Note_on_c, 0, 84, 83
1, 662874, Note_on_c, 0, 67, 54
1, 662968, Control_c, 0, 64, 127
1, 662978, Note_off_c, 0, 67, 64
1, 662990, Note_off_c, 0, 63, 64
1, 663076, Control_c, 0, 64, 0
1, 663180, Note_on_c, 0, 63, 35
1, 663182, Note_on_c, 0, 67, 45
1, 663246, Control_c, 0, 64, 127
1, 663254, Note_off_c, 0, 67, 64
1, 663270, Note_off_c, 0, 63, 64
1, 663464, Note_on_c, 0, 63, 36
1, 663476, Note_on_c, 0, 67, 48
1, 663542, Note_off_c, 0, 63, 64
1, 663544, Note_off_c, 0, 67, 64
1, 663614, Control_c, 0, 64, 0
1, 663660, Control_c, 0, 64, 127
1, 663748, Note_on_c, 0, 67, 51
1, 663750, Note_on_c, 0, 63, 41
1, 663808, Note_off_c, 0, 67, 64
1, 663811, Note_off_c, 0, 63, 64
1, 663998, Control_c, 0, 64, 0
1, 664012, Note_off_c, 0, 84, 64
1, 664058, Note_on_c, 0, 65, 43
1, 664062, Note_on_c, 0, 67, 47
1, 664136, Note_off_c, 0, 67, 64
1, 664152, Control_c, 0, 64, 127
1, 664158, Note_off_c, 0, 65, 64
1, 664306, Control_c, 0, 64, 0
1, 664332, Note_on_c, 0, 79, 63
1, 664348, Note_on_c, 0, 67, 40
1, 664364, Note_on_c, 0, 65, 36
1, 664398, Control_c, 0, 64, 127
1, 664414, Note_off_c, 0, 67, 64
1, 664432, Note_off_c, 0, 65, 64
1, 664448, Note_off_c, 0, 79, 64
1, 664472, Note_on_c, 0, 81, 73
1, 664600, Note_on_c, 0, 67, 55
1, 664614, Note_on_c, 0, 83, 74
1, 664626, Note_off_c, 0, 81, 64
1, 664634, Note_on_c, 0, 65, 42
1, 664662, Note_off_c, 0, 67, 64
1, 664694, Note_off_c, 0, 65, 64
1, 664748, Note_off_c, 0, 83, 64
1, 664748, Note_on_c, 0, 84, 94
1, 664866, Note_on_c, 0, 67, 58
1, 664876, Note_on_c, 0, 65, 73
1, 664879, Note_on_c, 0, 86, 95
1, 664904, Note_off_c, 0, 84, 64
1, 664922, Note_off_c, 0, 67, 64
1, 664924, Note_off_c, 0, 65, 64
1, 665000, Note_on_c, 0, 83, 93
1, 665012, Control_c, 0, 64, 0
1, 665034, Note_off_c, 0, 86, 64
1, 665134, Note_on_c, 0, 63, 66
1, 665138, Note_on_c, 0, 67, 75
1, 665144, Note_on_c, 0, 84, 103
1, 665150, Note_off_c, 0, 83, 64
1, 665196, Control_c, 0, 64, 127
1, 665204, Note_off_c, 0, 67, 64
1, 665224, Note_off_c, 0, 63, 64
1, 665266, Note_off_c, 0, 84, 64
1, 665320, Control_c, 0, 64, 0
1, 665426, Note_on_c, 0, 79, 76
1, 665436, Note_on_c, 0, 67, 57
1, 665444, Note_on_c, 0, 65, 49
1, 665496, Note_off_c, 0, 67, 64
1, 665504, Control_c, 0, 64, 127
1, 665510, Note_off_c, 0, 65, 64
1, 665576, Note_off_c, 0, 79, 64
1, 665579, Note_on_c, 0, 81, 79
1, 665700, Note_on_c, 0, 83, 72
1, 665720, Note_on_c, 0, 67, 50
1, 665730, Note_on_c, 0, 65, 41
1, 665733, Note_off_c, 0, 81, 64
1, 665733, Control_c, 0, 64, 0
1, 665786, Note_off_c, 0, 67, 64
1, 665802, Note_off_c, 0, 65, 64
1, 665822, Note_on_c, 0, 84, 93
1, 665826, Control_c, 0, 64, 127
1, 665838, Note_off_c, 0, 83, 64
1, 665958, Note_on_c, 0, 86, 96
1, 665974, Note_on_c, 0, 67, 52
1, 665982, Note_off_c, 0, 84, 64
1, 665982, Note_on_c, 0, 65, 65
1, 666034, Note_off_c, 0, 67, 64
1, 666038, Note_off_c, 0, 65, 64
1, 666076, Note_on_c, 0, 83, 94
1, 666106, Note_off_c, 0, 86, 64
1, 666150, Control_c, 0, 64, 0
1, 666170, Note_off_c, 0, 83, 64
1, 666214, Note_on_c, 0, 84, 112
1, 666218, Note_on_c, 0, 67, 85
1, 666224, Note_on_c, 0, 63, 83
1, 666278, Note_off_c, 0, 67, 64
1, 666296, Note_off_c, 0, 63, 64
1, 666334, Control_c, 0, 64, 127
1, 666350, Note_off_c, 0, 84, 64
1, 666410, Control_c, 0, 64, 0
1, 666496, Note_on_c, 0, 79, 95
1, 666510, Note_on_c, 0, 67, 74
1, 666530, Note_on_c, 0, 65, 58
1, 666586, Note_off_c, 0, 65, 64
1, 666590, Note_off_c, 0, 67, 64
1, 666594, Control_c, 0, 64, 127
1, 666648, Note_on_c, 0, 81, 94
1, 666664, Note_off_c, 0, 79, 64
1, 666702, Control_c, 0, 64, 0
1, 666778, Note_on_c, 0, 67, 57
1, 666781, Note_on_c, 0, 83, 91
1, 666794, Control_c, 0, 64, 127
1, 666796, Note_on_c, 0, 65, 63
1, 666818, Note_off_c, 0, 81, 64
1, 666866, Note_off_c, 0, 65, 64
1, 666882, Note_off_c, 0, 67, 64
1, 666908, Note_on_c, 0, 84, 104
1, 666932, Control_c, 0, 64, 0
1, 666962, Note_off_c, 0, 83, 64
1, 667010, Control_c, 0, 64, 127
1, 667046, Note_on_c, 0, 86, 100
1, 667070, Note_off_c, 0, 84, 64
1, 667092, Note_on_c, 0, 67, 57
1, 667098, Note_on_c, 0, 65, 69
1, 667148, Note_off_c, 0, 67, 64
1, 667151, Note_off_c, 0, 65, 64
1, 667178, Note_on_c, 0, 83, 97
1, 667230, Note_off_c, 0, 86, 64
1, 667272, Control_c, 0, 64, 0
1, 667292, Note_off_c, 0, 83, 64
1, 667344, Note_on_c, 0, 84, 108
1, 667346, Note_on_c, 0, 67, 80
1, 667348, Note_on_c, 0, 63, 84
1, 667382, Note_off_c, 0, 67, 64
1, 667386, Note_off_c, 0, 63, 64
1, 667394, Control_c, 0, 64, 127
1, 667518, Note_off_c, 0, 84, 64
1, 667716, Note_on_c, 0, 48, 97
1, 667718, Note_on_c, 0, 82, 94
1, 667718, Control_c, 0, 64, 0
1, 667730, Note_on_c, 0, 84, 91
1, 667844, Note_on_c, 0, 50, 94
1, 667876, Note_off_c, 0, 84, 64
1, 667886, Control_c, 0, 64, 127
1, 667892, Note_off_c, 0, 82, 64
1, 667942, Note_off_c, 0, 48, 64
1, 667962, Control_c, 0, 64, 0
1, 667992, Note_on_c, 0, 52, 98
1, 667996, Note_on_c, 0, 82, 95
1, 667998, Note_on_c, 0, 84, 88
1, 668074, Note_off_c, 0, 50, 64
1, 668100, Control_c, 0, 64, 127
1, 668106, Note_off_c, 0, 82, 64
1, 668118, Note_off_c, 0, 84, 64
1, 668124, Note_on_c, 0, 53, 101
1, 668152, Note_off_c, 0, 52, 64
1, 668208, Control_c, 0, 64, 0
1, 668246, Note_on_c, 0, 82, 103
1, 668250, Note_on_c, 0, 55, 104
1, 668252, Note_on_c, 0, 84, 97
1, 668266, Note_off_c, 0, 53, 64
1, 668346, Control_c, 0, 64, 127
1, 668376, Note_off_c, 0, 55, 64
1, 668384, Note_off_c, 0, 84, 64
1, 668386, Note_on_c, 0, 52, 109
1, 668394, Note_off_c, 0, 82, 64
1, 668470, Control_c, 0, 64, 0
1, 668496, Note_off_c, 0, 52, 64
1, 668516, Note_on_c, 0, 80, 97
1, 668516, Note_on_c, 0, 84, 105
1, 668526, Note_on_c, 0, 53, 110
1, 668652, Note_off_c, 0, 53, 64
1, 668662, Note_off_c, 0, 84, 64
1, 668668, Control_c, 0, 64, 127
1, 668678, Note_off_c, 0, 80, 64
1, 668796, Note_on_c, 0, 48, 109
1, 668818, Note_on_c, 0, 82, 84
1, 668821, Note_on_c, 0, 84, 87
1, 668926, Note_on_c, 0, 50, 105
1, 668954, Note_off_c, 0, 84, 64
1, 668956, Note_off_c, 0, 82, 64
1, 668998, Note_off_c, 0, 48, 64
1, 669022, Control_c, 0, 64, 0
1, 669068, Note_on_c, 0, 84, 94
1, 669068, Note_on_c, 0, 52, 108
1, 669074, Note_on_c, 0, 82, 105
1, 669144, Note_off_c, 0, 50, 64
1, 669204, Note_on_c, 0, 53, 109
1, 669208, Note_off_c, 0, 82, 64
1, 669208, Control_c, 0, 64, 127
1, 669212, Note_off_c, 0, 84, 64
1, 669236, Note_off_c, 0, 52, 64
1, 669346, Note_on_c, 0, 55, 107
1, 669350, Note_on_c, 0, 82, 109
1, 669366, Note_off_c, 0, 53, 64
1, 669366, Note_on_c, 0, 84, 108
1, 669490, Note_off_c, 0, 82, 64
1, 669496, Note_off_c, 0, 84, 64
1, 669504, Note_on_c, 0, 52, 112
1, 669514, Control_c, 0, 64, 0
1, 669542, Note_off_c, 0, 55, 64
1, 669590, Control_c, 0, 64, 127
1, 669638, Control_c, 0, 64, 0
1, 669744, Note_on_c, 0, 84, 110
1, 669750, Note_on_c, 0, 80, 92
1, 669766, Note_on_c, 0, 53, 92
1, 669780, Note_off_c, 0, 52, 64
1, 670312, Control_c, 0, 64, 127
1, 670317, Note_off_c, 0, 53, 64
1, 670362, Note_off_c, 0, 80, 64
1, 670420, Note_on_c, 0, 82, 97
1, 670430, Note_on_c, 0, 79, 80
1, 670430, Note_on_c, 0, 53, 55
1, 670436, Control_c, 0, 64, 0
1, 670558, Note_on_c, 0, 80, 89
1, 670561, Note_off_c, 0, 84, 64
1, 670561, Note_off_c, 0, 79, 64
1, 670572, Note_on_c, 0, 77, 81
1, 670602, Note_off_c, 0, 80, 64
1, 670606, Note_off_c, 0, 82, 64
1, 670606, Control_c, 0, 64, 127
1, 670672, Note_off_c, 0, 77, 64
1, 670698, Note_on_c, 0, 75, 88
1, 670716, Note_on_c, 0, 79, 97
1, 670830, Note_off_c, 0, 75, 64
1, 670840, Note_on_c, 0, 77, 94
1, 670848, Note_on_c, 0, 74, 91
1, 670868, Note_off_c, 0, 79, 64
1, 670880, Note_off_c, 0, 77, 64
1, 671010, Note_on_c, 0, 75, 92
1, 671013, Note_on_c, 0, 72, 92
1, 671026, Note_off_c, 0, 74, 64
1, 671034, Note_off_c, 0, 53, 64
1, 671040, Note_on_c, 0, 55, 47
1, 671112, Control_c, 0, 64, 0
1, 671450, Control_c, 0, 64, 127
1, 671536, Note_off_c, 0, 55, 64
1, 671764, Note_on_c, 0, 71, 39
1, 671776, Note_on_c, 0, 74, 75
1, 671808, Note_on_c, 0, 55, 34
1, 671824, Note_off_c, 0, 72, 64
1, 671866, Control_c, 0, 64, 0
1, 671888, Note_off_c, 0, 75, 64
1, 672126, Control_c, 0, 64, 127
1, 672174, Note_off_c, 0, 55, 64
1, 672526, Note_on_c, 0, 72, 71
1, 672530, Note_on_c, 0, 56, 48
1, 672560, Note_off_c, 0, 71, 64
1, 672762, Note_off_c, 0, 74, 64
1, 672912, Note_on_c, 0, 59, 55
1, 673248, Note_on_c, 0, 60, 72
1, 673330, Note_off_c, 0, 59, 64
1, 673536, Note_on_c, 0, 62, 74
1, 673550, Note_off_c, 0, 60, 64
1, 673668, Note_off_c, 0, 72, 64
1, 673884, Note_on_c, 0, 63, 67
1, 673887, Note_on_c, 0, 72, 81
1, 673952, Note_off_c, 0, 62, 64
1, 674094, Control_c, 0, 64, 0
1, 674238, Note_on_c, 0, 64, 87
1, 674300, Note_off_c, 0, 63, 64
1, 674308, Control_c, 0, 64, 127
1, 674362, Note_off_c, 0, 72, 64
1, 674532, Note_on_c, 0, 72, 102
1, 674537, Note_on_c, 0, 65, 79
1, 674582, Note_off_c, 0, 64, 64
1, 674722, Control_c, 0, 64, 0
1, 674832, Note_on_c, 0, 66, 79
1, 674886, Note_off_c, 0, 65, 64
1, 674892, Control_c, 0, 64, 127
1, 675042, Note_off_c, 0, 72, 64
1, 675058, Note_off_c, 0, 56, 64
1, 675058, Note_off_c, 0, 66, 64
1, 675164, Note_on_c, 0, 72, 79
1, 675170, Note_on_c, 0, 67, 81
1, 675204, Note_on_c, 0, 55, 48
1, 675322, Control_c, 0, 64, 0
1, 675552, Control_c, 0, 64, 127
1, 675614, Note_off_c, 0, 72, 64
1, 675614, Note_on_c, 0, 74, 76
1, 675690, Note_on_c, 0, 72, 88
1, 675736, Note_off_c, 0, 74, 64
1, 675788, Note_on_c, 0, 71, 78
1, 675808, Note_off_c, 0, 72, 64
1, 675896, Note_on_c, 0, 72, 88
1, 675906, Control_c, 0, 64, 0
1, 675928, Note_off_c, 0, 71, 64
1, 676060, Control_c, 0, 64, 127
1, 676066, Note_off_c, 0, 67, 64
1, 676182, Note_on_c, 0, 74, 91
1, 676256, Note_off_c, 0, 72, 64
1, 676528, Note_on_c, 0, 75, 76
1, 676528, Note_on_c, 0, 43, 56
1, 676552, Control_c, 0, 64, 0
1, 676582, Note_off_c, 0, 55, 64
1, 676602, Note_off_c, 0, 74, 64
1, 676951, Control_c, 0, 64, 127
1, 677308, Note_on_c, 0, 65, 49
1, 677314, Note_on_c, 0, 71, 54
1, 677334, Control_c, 0, 64, 0
1, 677372, Note_off_c, 0, 75, 64
1, 677658, Control_c, 0, 64, 127
1, 678036, Note_off_c, 0, 65, 64
1, 678040, Note_off_c, 0, 43, 64
1, 678044, Note_on_c, 0, 72, 57
1, 678050, Note_on_c, 0, 44, 35
1, 678056, Note_on_c, 0, 63, 22
1, 678058, Control_c, 0, 64, 0
1, 678222, Note_off_c, 0, 71, 64
1, 678562, Note_on_c, 0, 47, 44
1, 678910, Note_on_c, 0, 48, 62
1, 678924, Note_off_c, 0, 47, 64
1, 679190, Note_off_c, 0, 48, 64
1, 679195, Note_on_c, 0, 50, 70
1, 679302, Control_c, 0, 64, 127
1, 679476, Note_off_c, 0, 72, 64
1, 679486, Note_on_c, 0, 51, 73
1, 679496, Note_off_c, 0, 50, 64
1, 679496, Note_on_c, 0, 60, 59
1, 679568, Note_off_c, 0, 63, 64
1, 679700, Control_c, 0, 64, 0
1, 679784, Note_on_c, 0, 52, 78
1, 679816, Note_off_c, 0, 51, 64
1, 679902, Control_c, 0, 64, 127
1, 679942, Note_off_c, 0, 60, 64
1, 680096, Note_on_c, 0, 60, 97
1, 680108, Note_on_c, 0, 53, 66
1, 680118, Note_off_c, 0, 52, 64
1, 680286, Control_c, 0, 64, 0
1, 680418, Note_on_c, 0, 54, 79
1, 680438, Control_c, 0, 64, 127
1, 680442, Note_off_c, 0, 53, 64
1, 680456, Note_off_c, 0, 60, 64
1, 680700, Note_off_c, 0, 54, 64
1, 680720, Note_off_c, 0, 44, 64
1, 680864, Note_on_c, 0, 60, 79
1, 680869, Note_on_c, 0, 55, 68
1, 680896, Note_on_c, 0, 43, 46
1, 680930, Control_c, 0, 64, 0
1, 681252, Control_c, 0, 64, 127
1, 681382, Note_off_c, 0, 60, 64
1, 681390, Note_on_c, 0, 62, 66
1, 681456, Note_on_c, 0, 60, 72
1, 681502, Note_off_c, 0, 62, 64
1, 681536, Note_off_c, 0, 60, 64
1, 681556, Note_on_c, 0, 59, 65
1, 681638, Control_c, 0, 64, 0
1, 681664, Note_on_c, 0, 60, 75
1, 681672, Note_off_c, 0, 59, 64
1, 681838, Control_c, 0, 64, 127
1, 681868, Note_off_c, 0, 55, 64
1, 682030, Note_on_c, 0, 62, 80
1, 682108, Note_off_c, 0, 60, 64
1, 682452, Control_c, 0, 64, 0
1, 682466, Note_on_c, 0, 63, 68
1, 682482, Note_on_c, 0, 31, 59
1, 682546, Note_off_c, 0, 62, 64
1, 682850, Note_off_c, 0, 43, 64
1, 683336, Note_on_c, 0, 53, 43
1, 683342, Note_on_c, 0, 59, 57
1, 683384, Note_off_c, 0, 63, 64
1, 684230, Note_on_c, 0, 60, 51
1, 684236, Note_on_c, 0, 51, 37
1, 684250, Note_on_c, 0, 36, 39
1, 684256, Note_off_c, 0, 53, 64
1, 684352, Note_off_c, 0, 31, 64
1, 684438, Note_off_c, 0, 59, 64
1, 685386, Control_c, 0, 64, 127
1, 685658, Note_off_c, 0, 60, 64
1, 685700, Note_off_c, 0, 36, 64
1, 685744, Note_off_c, 0, 51, 64
1, 686108, Control_c, 0, 64, 0
1, 686506, Note_on_c, 0, 51, 44
1, 686509, Note_on_c, 0, 43, 41
1, 686528, Note_on_c, 0, 48, 37
1, 686532, Note_on_c, 0, 31, 41
1, 686816, Control_c, 0, 64, 127
1, 686858, Note_off_c, 0, 43, 64
1, 687374, Note_on_c, 0, 50, 49
1, 687376, Note_on_c, 0, 47, 29
1, 687384, Note_on_c, 0, 41, 39
1, 687414, Control_c, 0, 64, 0
1, 687424, Note_off_c, 0, 48, 64
1, 687492, Note_off_c, 0, 51, 64
1, 687814, Control_c, 0, 64, 127
1, 687844, Note_off_c, 0, 41, 64
1, 687856, Note_off_c, 0, 31, 64
1, 687876, Note_off_c, 0, 47, 64
1, 688526, Note_on_c, 0, 48, 111
1, 688531, Note_on_c, 0, 39, 111
1, 688536, Note_on_c, 0, 36, 113
1, 688802, Note_off_c, 0, 50, 64
1, 688874, Control_c, 0, 64, 0
1, 689366, Control_c, 0, 64, 127
1, 689648, Note_off_c, 0, 48, 64
1, 689666, Note_on_c, 0, 50, 78
1, 689740, Note_off_c, 0, 50, 64
1, 689748, Note_on_c, 0, 51, 85
1, 689786, Note_off_c, 0, 51, 64
1, 689828, Note_on_c, 0, 53, 97
1, 689902, Note_on_c, 0, 55, 101
1, 689928, Note_off_c, 0, 53, 64
1, 689966, Note_on_c, 0, 57, 99
1, 690010, Note_off_c, 0, 55, 64
1, 690038, Note_on_c, 0, 59, 88
1, 690074, Note_off_c, 0, 57, 64
1, 690110, Note_on_c, 0, 60, 117
1, 690134, Control_c, 0, 64, 0
1, 690154, Note_off_c, 0, 59, 64
1, 690348, Control_c, 0, 64, 127
1, 690392, Note_off_c, 0, 39, 64
1, 690392, Note_on_c, 0, 62, 72
1, 690426, Note_off_c, 0, 60, 64
1, 690432, Note_off_c, 0, 36, 64
1, 690454, Note_on_c, 0, 63, 89
1, 690488, Note_off_c, 0, 63, 64
1, 690496, Note_off_c, 0, 62, 64
1, 690532, Note_on_c, 0, 65, 101
1, 690606, Note_on_c, 0, 67, 108
1, 690626, Note_off_c, 0, 65, 64
1, 690666, Note_on_c, 0, 69, 99
1, 690716, Note_off_c, 0, 67, 64
1, 690748, Note_on_c, 0, 71, 87
1, 690778, Note_off_c, 0, 69, 64
1, 690808, Note_off_c, 0, 71, 64
1, 690824, Note_on_c, 0, 72, 122
1, 690888, Control_c, 0, 64, 0
1, 691086, Control_c, 0, 64, 127
1, 691088, Note_on_c, 0, 74, 103
1, 691116, Note_off_c, 0, 72, 64
1, 691168, Note_on_c, 0, 75, 98
1, 691200, Note_off_c, 0, 74, 64
1, 691220, Note_off_c, 0, 75, 64
1, 691250, Note_on_c, 0, 77, 109
1, 691320, Note_on_c, 0, 79, 111
1, 691370, Note_off_c, 0, 77, 64
1, 691396, Note_on_c, 0, 81, 107
1, 691484, Note_on_c, 0, 83, 97
1, 691498, Note_off_c, 0, 79, 64
1, 691548, Note_on_c, 0, 60, 115
1, 691548, Note_on_c, 0, 48, 112
1, 691551, Note_on_c, 0, 84, 124
1, 691554, Note_on_c, 0, 51, 100
1, 691560, Note_on_c, 0, 55, 106
1, 691628, Note_off_c, 0, 81, 64
1, 691676, Note_off_c, 0, 83, 64
1, 691716, Control_c, 0, 64, 0
1, 692132, Control_c, 0, 64, 127
1, 692232, Note_off_c, 0, 60, 64
1, 692238, Note_off_c, 0, 48, 64
1, 692240, Note_off_c, 0, 55, 64
1, 692256, Note_off_c, 0, 51, 64
1, 692286, Note_off_c, 0, 84, 64
1, 693422, Control_c, 0, 64, 0
1, 695040, Control_c, 0, 64, 0
1, 698880, Control_c, 0, 64, 0
1, 698880, End_track
0, 0, End_of_file