0, 0, Header, 1, 13, 384
1, 0, Start_track
1, 0, Sequencer_specific, 03, 00, 00, 41
1, 0, Time_signature, 2, 2, 24, 8
1, 0, Key_signature, -3, "major"
1, 0, Tempo, 461538
1, 0, Marker_t, "Horn Concerto Nr4 Mov3 (Mozart) MIDI J.E. Taylor"
1, 49140, Tempo, 461538
1, 49156, Tempo, 461538
1, 52996, Tempo, 458015
1, 127840, Tempo, 461538
1, 128000, Tempo, 465116
1, 128160, Tempo, 468750
1, 128320, Tempo, 472440
1, 128480, Tempo, 476190
1, 128640, Tempo, 480000
1, 128800, Tempo, 483870
1, 128960, Tempo, 487804
1, 129120, Tempo, 491803
1, 129264, Tempo, 495867
1, 129424, Tempo, 500000
1, 129584, Tempo, 504201
1, 129744, Tempo, 508474
1, 129904, Tempo, 512820
1, 130064, Tempo, 517241
1, 130224, Tempo, 521739
1, 130384, Tempo, 526315
1, 130544, Tempo, 530973
1, 130688, Tempo, 535714
1, 130848, Tempo, 540540
1, 131008, Tempo, 545454
1, 131168, Tempo, 550458
1, 131328, Tempo, 555555
1, 131488, Tempo, 560747
1, 131648, Tempo, 566037
1, 131808, Tempo, 571428
1, 131968, Tempo, 576923
1, 132112, Tempo, 582524
1, 132464, Tempo, 458015
1, 133696, Tempo, 454545
1, 158192, Tempo, 451127
1, 158208, Tempo, 454545
1, 158224, Tempo, 458015
1, 158240, Tempo, 461538
1, 158256, Tempo, 468750
1, 158272, Tempo, 472440
1, 158288, Tempo, 476190
1, 158304, Tempo, 483870
1, 158320, Tempo, 487804
1, 158336, Tempo, 491803
1, 158352, Tempo, 495867
1, 158368, Tempo, 504201
1, 158384, Tempo, 508474
1, 158400, Tempo, 512820
1, 158416, Tempo, 521739
1, 158432, Tempo, 526315
1, 158448, Tempo, 530973
1, 158464, Tempo, 535714
1, 158480, Tempo, 545454
1, 158496, Tempo, 550458
1, 158512, Tempo, 555555
1, 158528, Tempo, 566037
1, 158544, Tempo, 571428
1, 158560, Tempo, 576923
1, 158576, Tempo, 582524
1, 158592, Tempo, 594059
1, 158608, Tempo, 600000
1, 158624, Tempo, 606060
1, 158640, Tempo, 618556
1, 158656, Tempo, 625000
1, 158672, Tempo, 631578
1, 158688, Tempo, 638297
1, 158704, Tempo, 652173
1, 158720, Tempo, 659340
1, 158736, Tempo, 666666
1, 158752, Tempo, 681818
1, 158768, Tempo, 689655
1, 158784, Tempo, 697674
1, 158800, Tempo, 705882
1, 158816, Tempo, 722891
1, 158832, Tempo, 731707
1, 158848, Tempo, 740740
1, 158864, Tempo, 759493
1, 158880, Tempo, 769230
1, 158896, Tempo, 779220
1, 158912, Tempo, 789473
1, 158928, Tempo, 810810
1, 158944, Tempo, 821917
1, 158960, Tempo, 833333
1, 158976, Tempo, 857142
1, 158976, End_track
2, 0, Start_track
2, 0, MIDI_port, 0
2, 0, Title_t, "Oboe"
2, 0, Program_c, 0, 68
2, 0, Control_c, 0, 7, 127
2, 0, Control_c, 0, 10, 20
2, 0, Control_c, 0, 0, 0
2, 0, Control_c, 0, 32, 0
2, 20, Control_c, 0, 121, 0
2, 42, Control_c, 0, 7, 127
2, 55, Control_c, 0, 91, 100
2, 73, Control_c, 0, 93, 20
2, 114, Control_c, 0, 1, 25
2, 384, Program_c, 0, 68
2, 6912, Note_on_c, 0, 75, 58
2, 6912, Note_on_c, 0, 67, 58
2, 7196, Note_on_c, 0, 67, 0
2, 7296, Note_on_c, 0, 70, 58
2, 7580, Note_on_c, 0, 70, 0
2, 7676, Note_on_c, 0, 75, 0
2, 7680, Note_on_c, 0, 68, 58
2, 7680, Note_on_c, 0, 74, 58
2, 7964, Note_on_c, 0, 74, 0
2, 8064, Note_on_c, 0, 77, 58
2, 8348, Note_on_c, 0, 77, 0
2, 8444, Note_on_c, 0, 68, 0
2, 8448, Note_on_c, 0, 79, 58
2, 8448, Note_on_c, 0, 67, 58
2, 8732, Note_on_c, 0, 67, 0
2, 8732, Note_on_c, 0, 79, 0
2, 8832, Note_on_c, 0, 81, 58
2, 8832, Note_on_c, 0, 75, 58
2, 9116, Note_on_c, 0, 75, 0
2, 9116, Note_on_c, 0, 81, 0
2, 9216, Note_on_c, 0, 82, 58
2, 9216, Note_on_c, 0, 74, 58
2, 9276, Note_on_c, 0, 74, 0
2, 9276, Note_on_c, 0, 82, 0
2, 9344, Note_on_c, 0, 82, 58
2, 9344, Note_on_c, 0, 74, 58
2, 9404, Note_on_c, 0, 74, 0
2, 9404, Note_on_c, 0, 82, 0
2, 9472, Note_on_c, 0, 82, 58
2, 9472, Note_on_c, 0, 74, 58
2, 9532, Note_on_c, 0, 74, 0
2, 9532, Note_on_c, 0, 82, 0
2, 9600, Note_on_c, 0, 82, 58
2, 9600, Note_on_c, 0, 74, 58
2, 9724, Note_on_c, 0, 74, 0
2, 9724, Note_on_c, 0, 82, 0
2, 9984, Note_on_c, 0, 75, 58
2, 9984, Note_on_c, 0, 67, 58
2, 10236, Note_on_c, 0, 67, 0
2, 10368, Note_on_c, 0, 70, 58
2, 10620, Note_on_c, 0, 70, 0
2, 10748, Note_on_c, 0, 75, 0
2, 10752, Note_on_c, 0, 74, 58
2, 10752, Note_on_c, 0, 68, 58
2, 11004, Note_on_c, 0, 74, 0
2, 11136, Note_on_c, 0, 77, 58
2, 11388, Note_on_c, 0, 77, 0
2, 11516, Note_on_c, 0, 68, 0
2, 11520, Note_on_c, 0, 75, 58
2, 11520, Note_on_c, 0, 67, 58
2, 11644, Note_on_c, 0, 67, 0
2, 11644, Note_on_c, 0, 75, 0
2, 11776, Note_on_c, 0, 79, 58
2, 11776, Note_on_c, 0, 75, 58
2, 11836, Note_on_c, 0, 75, 0
2, 11836, Note_on_c, 0, 79, 0
2, 11876, Note_on_c, 0, 75, 58
2, 11876, Note_on_c, 0, 79, 58
2, 11892, Note_on_c, 0, 79, 0
2, 11892, Note_on_c, 0, 75, 0
2, 11904, Note_on_c, 0, 77, 58
2, 11904, Note_on_c, 0, 74, 58
2, 11964, Note_on_c, 0, 74, 0
2, 11964, Note_on_c, 0, 77, 0
2, 12032, Note_on_c, 0, 75, 58
2, 12032, Note_on_c, 0, 72, 58
2, 12092, Note_on_c, 0, 72, 0
2, 12092, Note_on_c, 0, 75, 0
2, 12160, Note_on_c, 0, 77, 58
2, 12160, Note_on_c, 0, 74, 58
2, 12220, Note_on_c, 0, 74, 0
2, 12220, Note_on_c, 0, 77, 0
2, 12288, Note_on_c, 0, 75, 58
2, 12348, Note_on_c, 0, 75, 0
2, 12416, Note_on_c, 0, 75, 58
2, 12416, Note_on_c, 0, 67, 58
2, 12476, Note_on_c, 0, 67, 0
2, 12476, Note_on_c, 0, 75, 0
2, 12544, Note_on_c, 0, 75, 58
2, 12544, Note_on_c, 0, 67, 58
2, 12604, Note_on_c, 0, 67, 0
2, 12604, Note_on_c, 0, 75, 0
2, 12672, Note_on_c, 0, 75, 58
2, 12672, Note_on_c, 0, 67, 58
2, 12796, Note_on_c, 0, 67, 0
2, 12796, Note_on_c, 0, 75, 0
2, 27648, Note_on_c, 0, 77, 58
2, 27708, Note_on_c, 0, 77, 0
2, 27776, Note_on_c, 0, 79, 58
2, 27836, Note_on_c, 0, 79, 0
2, 27904, Note_on_c, 0, 77, 58
2, 27964, Note_on_c, 0, 77, 0
2, 28032, Note_on_c, 0, 75, 58
2, 28092, Note_on_c, 0, 75, 0
2, 28160, Note_on_c, 0, 77, 58
2, 28220, Note_on_c, 0, 77, 0
2, 28288, Note_on_c, 0, 75, 58
2, 28348, Note_on_c, 0, 75, 0
2, 28416, Note_on_c, 0, 74, 58
2, 28476, Note_on_c, 0, 74, 0
2, 28544, Note_on_c, 0, 75, 58
2, 28604, Note_on_c, 0, 75, 0
2, 28672, Note_on_c, 0, 74, 58
2, 28732, Note_on_c, 0, 74, 0
2, 28800, Note_on_c, 0, 72, 58
2, 28860, Note_on_c, 0, 72, 0
2, 28928, Note_on_c, 0, 74, 58
2, 28988, Note_on_c, 0, 74, 0
2, 29056, Note_on_c, 0, 72, 58
2, 29116, Note_on_c, 0, 72, 0
2, 29184, Note_on_c, 0, 70, 58
2, 29436, Note_on_c, 0, 70, 0
2, 35712, Note_on_c, 0, 74, 58
2, 35712, Note_on_c, 0, 70, 58
2, 35836, Note_on_c, 0, 70, 0
2, 35836, Note_on_c, 0, 74, 0
2, 36096, Note_on_c, 0, 75, 58
2, 36096, Note_on_c, 0, 70, 58
2, 36220, Note_on_c, 0, 70, 0
2, 36220, Note_on_c, 0, 75, 0
2, 36480, Note_on_c, 0, 77, 58
2, 36480, Note_on_c, 0, 74, 58
2, 36604, Note_on_c, 0, 74, 0
2, 36604, Note_on_c, 0, 77, 0
2, 36864, Note_on_c, 0, 79, 58
2, 36864, Note_on_c, 0, 75, 58
2, 37116, Note_on_c, 0, 75, 0
2, 37116, Note_on_c, 0, 79, 0
2, 40320, Note_on_c, 0, 74, 58
2, 40320, Note_on_c, 0, 70, 58
2, 40444, Note_on_c, 0, 70, 0
2, 40444, Note_on_c, 0, 74, 0
2, 40704, Note_on_c, 0, 75, 58
2, 40704, Note_on_c, 0, 70, 58
2, 40828, Note_on_c, 0, 70, 0
2, 40828, Note_on_c, 0, 75, 0
2, 41088, Note_on_c, 0, 77, 58
2, 41088, Note_on_c, 0, 74, 58
2, 41212, Note_on_c, 0, 74, 0
2, 41212, Note_on_c, 0, 77, 0
2, 41472, Note_on_c, 0, 79, 58
2, 41472, Note_on_c, 0, 75, 58
2, 41724, Note_on_c, 0, 75, 0
2, 41724, Note_on_c, 0, 79, 0
2, 58368, Note_on_c, 0, 75, 58
2, 58368, Note_on_c, 0, 67, 58
2, 58652, Note_on_c, 0, 67, 0
2, 58752, Note_on_c, 0, 70, 58
2, 59036, Note_on_c, 0, 70, 0
2, 59132, Note_on_c, 0, 75, 0
2, 59136, Note_on_c, 0, 68, 58
2, 59136, Note_on_c, 0, 74, 58
2, 59420, Note_on_c, 0, 74, 0
2, 59520, Note_on_c, 0, 77, 58
2, 59804, Note_on_c, 0, 77, 0
2, 59900, Note_on_c, 0, 68, 0
2, 59904, Note_on_c, 0, 79, 58
2, 59904, Note_on_c, 0, 67, 58
2, 60188, Note_on_c, 0, 67, 0
2, 60188, Note_on_c, 0, 79, 0
2, 60288, Note_on_c, 0, 81, 58
2, 60288, Note_on_c, 0, 75, 58
2, 60572, Note_on_c, 0, 75, 0
2, 60572, Note_on_c, 0, 81, 0
2, 60672, Note_on_c, 0, 82, 58
2, 60672, Note_on_c, 0, 74, 58
2, 60732, Note_on_c, 0, 74, 0
2, 60732, Note_on_c, 0, 82, 0
2, 60800, Note_on_c, 0, 82, 58
2, 60800, Note_on_c, 0, 74, 58
2, 60860, Note_on_c, 0, 74, 0
2, 60860, Note_on_c, 0, 82, 0
2, 60928, Note_on_c, 0, 82, 58
2, 60928, Note_on_c, 0, 74, 58
2, 60988, Note_on_c, 0, 74, 0
2, 60988, Note_on_c, 0, 82, 0
2, 61056, Note_on_c, 0, 82, 58
2, 61056, Note_on_c, 0, 74, 58
2, 61180, Note_on_c, 0, 74, 0
2, 61180, Note_on_c, 0, 82, 0
2, 61440, Note_on_c, 0, 75, 58
2, 61440, Note_on_c, 0, 67, 58
2, 61692, Note_on_c, 0, 67, 0
2, 61824, Note_on_c, 0, 70, 58
2, 62076, Note_on_c, 0, 70, 0
2, 62204, Note_on_c, 0, 75, 0
2, 62208, Note_on_c, 0, 74, 58
2, 62208, Note_on_c, 0, 68, 58
2, 62460, Note_on_c, 0, 74, 0
2, 62592, Note_on_c, 0, 77, 58
2, 62844, Note_on_c, 0, 77, 0
2, 62972, Note_on_c, 0, 68, 0
2, 62976, Note_on_c, 0, 75, 58
2, 62976, Note_on_c, 0, 67, 58
2, 63100, Note_on_c, 0, 67, 0
2, 63100, Note_on_c, 0, 75, 0
2, 63232, Note_on_c, 0, 79, 58
2, 63232, Note_on_c, 0, 75, 58
2, 63292, Note_on_c, 0, 75, 0
2, 63292, Note_on_c, 0, 79, 0
2, 63332, Note_on_c, 0, 75, 58
2, 63332, Note_on_c, 0, 79, 58
2, 63348, Note_on_c, 0, 79, 0
2, 63348, Note_on_c, 0, 75, 0
2, 63360, Note_on_c, 0, 77, 58
2, 63360, Note_on_c, 0, 74, 58
2, 63420, Note_on_c, 0, 74, 0
2, 63420, Note_on_c, 0, 77, 0
2, 63488, Note_on_c, 0, 75, 58
2, 63488, Note_on_c, 0, 72, 58
2, 63548, Note_on_c, 0, 72, 0
2, 63548, Note_on_c, 0, 75, 0
2, 63616, Note_on_c, 0, 77, 58
2, 63616, Note_on_c, 0, 74, 58
2, 63676, Note_on_c, 0, 74, 0
2, 63676, Note_on_c, 0, 77, 0
2, 63744, Note_on_c, 0, 75, 58
2, 63804, Note_on_c, 0, 75, 0
2, 63872, Note_on_c, 0, 75, 58
2, 63872, Note_on_c, 0, 67, 58
2, 63932, Note_on_c, 0, 67, 0
2, 63932, Note_on_c, 0, 75, 0
2, 64000, Note_on_c, 0, 75, 58
2, 64000, Note_on_c, 0, 67, 58
2, 64060, Note_on_c, 0, 67, 0
2, 64060, Note_on_c, 0, 75, 0
2, 64128, Note_on_c, 0, 75, 58
2, 64128, Note_on_c, 0, 67, 58
2, 64252, Note_on_c, 0, 67, 0
2, 64252, Note_on_c, 0, 75, 0
2, 99072, Note_on_c, 0, 75, 58
2, 99072, Note_on_c, 0, 67, 58
2, 99356, Note_on_c, 0, 67, 0
2, 99456, Note_on_c, 0, 70, 58
2, 99740, Note_on_c, 0, 70, 0
2, 99836, Note_on_c, 0, 75, 0
2, 99840, Note_on_c, 0, 68, 58
2, 99840, Note_on_c, 0, 74, 58
2, 100124, Note_on_c, 0, 74, 0
2, 100224, Note_on_c, 0, 77, 58
2, 100508, Note_on_c, 0, 77, 0
2, 100604, Note_on_c, 0, 68, 0
2, 100608, Note_on_c, 0, 79, 58
2, 100608, Note_on_c, 0, 67, 58
2, 100892, Note_on_c, 0, 67, 0
2, 100892, Note_on_c, 0, 79, 0
2, 100992, Note_on_c, 0, 81, 58
2, 100992, Note_on_c, 0, 75, 58
2, 101276, Note_on_c, 0, 75, 0
2, 101276, Note_on_c, 0, 81, 0
2, 101376, Note_on_c, 0, 82, 58
2, 101376, Note_on_c, 0, 74, 58
2, 101436, Note_on_c, 0, 74, 0
2, 101436, Note_on_c, 0, 82, 0
2, 101504, Note_on_c, 0, 82, 58
2, 101504, Note_on_c, 0, 74, 58
2, 101564, Note_on_c, 0, 74, 0
2, 101564, Note_on_c, 0, 82, 0
2, 101632, Note_on_c, 0, 82, 58
2, 101632, Note_on_c, 0, 74, 58
2, 101692, Note_on_c, 0, 74, 0
2, 101692, Note_on_c, 0, 82, 0
2, 101760, Note_on_c, 0, 82, 58
2, 101760, Note_on_c, 0, 74, 58
2, 101884, Note_on_c, 0, 74, 0
2, 101884, Note_on_c, 0, 82, 0
2, 102144, Note_on_c, 0, 75, 58
2, 102144, Note_on_c, 0, 67, 58
2, 102396, Note_on_c, 0, 67, 0
2, 102528, Note_on_c, 0, 70, 58
2, 102780, Note_on_c, 0, 70, 0
2, 102908, Note_on_c, 0, 75, 0
2, 102912, Note_on_c, 0, 74, 58
2, 102912, Note_on_c, 0, 68, 58
2, 103164, Note_on_c, 0, 74, 0
2, 103296, Note_on_c, 0, 77, 58
2, 103548, Note_on_c, 0, 77, 0
2, 103676, Note_on_c, 0, 68, 0
2, 103680, Note_on_c, 0, 75, 58
2, 103680, Note_on_c, 0, 67, 58
2, 103804, Note_on_c, 0, 67, 0
2, 103804, Note_on_c, 0, 75, 0
2, 103936, Note_on_c, 0, 79, 58
2, 103936, Note_on_c, 0, 75, 58
2, 103996, Note_on_c, 0, 75, 0
2, 103996, Note_on_c, 0, 79, 0
2, 104036, Note_on_c, 0, 75, 58
2, 104036, Note_on_c, 0, 79, 58
2, 104052, Note_on_c, 0, 79, 0
2, 104052, Note_on_c, 0, 75, 0
2, 104064, Note_on_c, 0, 77, 58
2, 104064, Note_on_c, 0, 74, 58
2, 104124, Note_on_c, 0, 74, 0
2, 104124, Note_on_c, 0, 77, 0
2, 104192, Note_on_c, 0, 75, 58
2, 104192, Note_on_c, 0, 72, 58
2, 104252, Note_on_c, 0, 72, 0
2, 104252, Note_on_c, 0, 75, 0
2, 104320, Note_on_c, 0, 77, 58
2, 104320, Note_on_c, 0, 74, 58
2, 104380, Note_on_c, 0, 74, 0
2, 104380, Note_on_c, 0, 77, 0
2, 104448, Note_on_c, 0, 75, 58
2, 104508, Note_on_c, 0, 75, 0
2, 104576, Note_on_c, 0, 75, 58
2, 104576, Note_on_c, 0, 67, 58
2, 104636, Note_on_c, 0, 67, 0
2, 104636, Note_on_c, 0, 75, 0
2, 104704, Note_on_c, 0, 75, 58
2, 104704, Note_on_c, 0, 67, 58
2, 104764, Note_on_c, 0, 67, 0
2, 104764, Note_on_c, 0, 75, 0
2, 104832, Note_on_c, 0, 75, 58
2, 104832, Note_on_c, 0, 67, 58
2, 104956, Note_on_c, 0, 67, 0
2, 104956, Note_on_c, 0, 75, 0
2, 115968, Note_on_c, 0, 82, 58
2, 116028, Note_on_c, 0, 82, 0
2, 116096, Note_on_c, 0, 84, 58
2, 116156, Note_on_c, 0, 84, 0
2, 116224, Note_on_c, 0, 82, 58
2, 116284, Note_on_c, 0, 82, 0
2, 116352, Note_on_c, 0, 80, 58
2, 116412, Note_on_c, 0, 80, 0
2, 116480, Note_on_c, 0, 82, 58
2, 116540, Note_on_c, 0, 82, 0
2, 116608, Note_on_c, 0, 80, 58
2, 116668, Note_on_c, 0, 80, 0
2, 116736, Note_on_c, 0, 79, 58
2, 116796, Note_on_c, 0, 79, 0
2, 116864, Note_on_c, 0, 80, 58
2, 116924, Note_on_c, 0, 80, 0
2, 116992, Note_on_c, 0, 79, 58
2, 117052, Note_on_c, 0, 79, 0
2, 117120, Note_on_c, 0, 77, 58
2, 117180, Note_on_c, 0, 77, 0
2, 117248, Note_on_c, 0, 79, 58
2, 117308, Note_on_c, 0, 79, 0
2, 117376, Note_on_c, 0, 77, 58
2, 117436, Note_on_c, 0, 77, 0
2, 117504, Note_on_c, 0, 75, 58
2, 117756, Note_on_c, 0, 75, 0
2, 124032, Note_on_c, 0, 70, 58
2, 124032, Note_on_c, 0, 77, 58
2, 124156, Note_on_c, 0, 77, 0
2, 124156, Note_on_c, 0, 70, 0
2, 124416, Note_on_c, 0, 79, 58
2, 124416, Note_on_c, 0, 70, 58
2, 124540, Note_on_c, 0, 70, 0
2, 124540, Note_on_c, 0, 79, 0
2, 124800, Note_on_c, 0, 74, 58
2, 124800, Note_on_c, 0, 68, 58
2, 124924, Note_on_c, 0, 68, 0
2, 124924, Note_on_c, 0, 74, 0
2, 125184, Note_on_c, 0, 75, 58
2, 125184, Note_on_c, 0, 70, 58
2, 125308, Note_on_c, 0, 70, 0
2, 125308, Note_on_c, 0, 75, 0
2, 130560, Note_on_c, 0, 80, 58
2, 130560, Note_on_c, 0, 74, 58
2, 132092, Note_on_c, 0, 74, 0
2, 132092, Note_on_c, 0, 80, 0
2, 138112, Note_on_c, 0, 70, 58
2, 138172, Note_on_c, 0, 70, 0
2, 138240, Note_on_c, 0, 75, 58
2, 138300, Note_on_c, 0, 75, 0
2, 138368, Note_on_c, 0, 75, 58
2, 138428, Note_on_c, 0, 75, 0
2, 138496, Note_on_c, 0, 75, 58
2, 138556, Note_on_c, 0, 75, 0
2, 138624, Note_on_c, 0, 75, 58
2, 138684, Note_on_c, 0, 75, 0
2, 138752, Note_on_c, 0, 75, 58
2, 138812, Note_on_c, 0, 75, 0
2, 138880, Note_on_c, 0, 75, 58
2, 138940, Note_on_c, 0, 75, 0
2, 139008, Note_on_c, 0, 74, 58
2, 139132, Note_on_c, 0, 74, 0
2, 139136, Note_on_c, 0, 77, 58
2, 139260, Note_on_c, 0, 77, 0
2, 139264, Note_on_c, 0, 82, 58
2, 139360, Note_on_c, 0, 82, 0
2, 139392, Note_on_c, 0, 82, 58
2, 139516, Note_on_c, 0, 82, 0
2, 139520, Note_on_c, 0, 80, 58
2, 139644, Note_on_c, 0, 80, 0
2, 139648, Note_on_c, 0, 77, 58
2, 139744, Note_on_c, 0, 77, 0
2, 139776, Note_on_c, 0, 76, 58
2, 139900, Note_on_c, 0, 76, 0
2, 139904, Note_on_c, 0, 79, 58
2, 140028, Note_on_c, 0, 79, 0
2, 140032, Note_on_c, 0, 84, 58
2, 140128, Note_on_c, 0, 84, 0
2, 140160, Note_on_c, 0, 84, 58
2, 140284, Note_on_c, 0, 84, 0
2, 140288, Note_on_c, 0, 82, 58
2, 140412, Note_on_c, 0, 82, 0
2, 140416, Note_on_c, 0, 79, 58
2, 140512, Note_on_c, 0, 79, 0
2, 140544, Note_on_c, 0, 80, 58
2, 140604, Note_on_c, 0, 80, 0
2, 140672, Note_on_c, 0, 84, 58
2, 140732, Note_on_c, 0, 84, 0
2, 140800, Note_on_c, 0, 76, 58
2, 140860, Note_on_c, 0, 76, 0
2, 140928, Note_on_c, 0, 77, 58
2, 140988, Note_on_c, 0, 77, 0
2, 141056, Note_on_c, 0, 80, 58
2, 141116, Note_on_c, 0, 80, 0
2, 141184, Note_on_c, 0, 72, 58
2, 141244, Note_on_c, 0, 72, 0
2, 141312, Note_on_c, 0, 74, 58
2, 141372, Note_on_c, 0, 74, 0
2, 141440, Note_on_c, 0, 77, 58
2, 141500, Note_on_c, 0, 77, 0
2, 141568, Note_on_c, 0, 69, 58
2, 141628, Note_on_c, 0, 69, 0
2, 141696, Note_on_c, 0, 70, 58
2, 141756, Note_on_c, 0, 70, 0
2, 141824, Note_on_c, 0, 77, 58
2, 141884, Note_on_c, 0, 77, 0
2, 141952, Note_on_c, 0, 80, 58
2, 141952, Note_on_c, 0, 77, 58
2, 142012, Note_on_c, 0, 77, 0
2, 142012, Note_on_c, 0, 80, 0
2, 142080, Note_on_c, 0, 79, 58
2, 142080, Note_on_c, 0, 75, 58
2, 142844, Note_on_c, 0, 79, 0
2, 142848, Note_on_c, 0, 77, 58
2, 143228, Note_on_c, 0, 75, 0
2, 143232, Note_on_c, 0, 74, 58
2, 143612, Note_on_c, 0, 74, 0
2, 143612, Note_on_c, 0, 77, 0
2, 143616, Note_on_c, 0, 79, 58
2, 143616, Note_on_c, 0, 75, 58
2, 144380, Note_on_c, 0, 79, 0
2, 144384, Note_on_c, 0, 77, 58
2, 144764, Note_on_c, 0, 75, 0
2, 144768, Note_on_c, 0, 74, 58
2, 145148, Note_on_c, 0, 74, 0
2, 145148, Note_on_c, 0, 77, 0
2, 145152, Note_on_c, 0, 79, 58
2, 145152, Note_on_c, 0, 75, 58
2, 145916, Note_on_c, 0, 79, 0
2, 145920, Note_on_c, 0, 77, 58
2, 146300, Note_on_c, 0, 75, 0
2, 146304, Note_on_c, 0, 74, 58
2, 146684, Note_on_c, 0, 74, 0
2, 146684, Note_on_c, 0, 77, 0
2, 146688, Note_on_c, 0, 84, 58
2, 146688, Note_on_c, 0, 75, 58
2, 147452, Note_on_c, 0, 75, 0
2, 147452, Note_on_c, 0, 84, 0
2, 153600, Note_on_c, 0, 74, 39
2, 153600, Note_on_c, 0, 68, 39
2, 154364, Note_on_c, 0, 68, 0
2, 154364, Note_on_c, 0, 74, 0
2, 154368, Note_on_c, 0, 75, 39
2, 154368, Note_on_c, 0, 67, 39
2, 154620, Note_on_c, 0, 67, 0
2, 154620, Note_on_c, 0, 75, 0
2, 155136, Note_on_c, 0, 74, 58
2, 155136, Note_on_c, 0, 68, 58
2, 155900, Note_on_c, 0, 68, 0
2, 155900, Note_on_c, 0, 74, 0
2, 155904, Note_on_c, 0, 75, 58
2, 155904, Note_on_c, 0, 67, 58
2, 156028, Note_on_c, 0, 67, 0
2, 156028, Note_on_c, 0, 75, 0
2, 156672, Note_on_c, 0, 80, 58
2, 156672, Note_on_c, 0, 74, 58
2, 157436, Note_on_c, 0, 74, 0
2, 157436, Note_on_c, 0, 80, 0
2, 157440, Note_on_c, 0, 79, 58
2, 157440, Note_on_c, 0, 75, 58
2, 157500, Note_on_c, 0, 75, 0
2, 157500, Note_on_c, 0, 79, 0
2, 157568, Note_on_c, 0, 75, 58
2, 157568, Note_on_c, 0, 67, 58
2, 157628, Note_on_c, 0, 67, 0
2, 157628, Note_on_c, 0, 75, 0
2, 157696, Note_on_c, 0, 75, 58
2, 157696, Note_on_c, 0, 67, 58
2, 157756, Note_on_c, 0, 67, 0
2, 157756, Note_on_c, 0, 75, 0
2, 157824, Note_on_c, 0, 75, 58
2, 157824, Note_on_c, 0, 67, 58
2, 157884, Note_on_c, 0, 67, 0
2, 157884, Note_on_c, 0, 75, 0
2, 157952, Note_on_c, 0, 75, 58
2, 157952, Note_on_c, 0, 67, 58
2, 158012, Note_on_c, 0, 67, 0
2, 158012, Note_on_c, 0, 75, 0
2, 158080, Note_on_c, 0, 75, 58
2, 158080, Note_on_c, 0, 67, 58
2, 158140, Note_on_c, 0, 67, 0
2, 158140, Note_on_c, 0, 75, 0
2, 158208, Note_on_c, 0, 75, 58
2, 158208, Note_on_c, 0, 67, 58
2, 158332, Note_on_c, 0, 67, 0
2, 158332, Note_on_c, 0, 75, 0
2, 158592, Note_on_c, 0, 79, 58
2, 158592, Note_on_c, 0, 70, 58
2, 158716, Note_on_c, 0, 70, 0
2, 158716, Note_on_c, 0, 79, 0
2, 158976, Note_on_c, 0, 75, 58
2, 158976, Note_on_c, 0, 67, 58
2, 159100, Note_on_c, 0, 67, 0
2, 159100, Note_on_c, 0, 75, 0
2, 159100, End_track
3, 0, Start_track
3, 0, MIDI_port, 0
3, 0, Title_t, "Horns Tutti"
3, 0, Program_c, 1, 60
3, 0, Control_c, 1, 7, 127
3, 0, Control_c, 1, 10, 30
3, 0, Control_c, 1, 0, 0
3, 0, Control_c, 1, 32, 0
3, 16, Control_c, 1, 121, 0
3, 30, Control_c, 1, 7, 127
3, 51, Control_c, 1, 91, 100
3, 66, Control_c, 1, 93, 10
3, 384, Program_c, 1, 60
3, 6912, Note_on_c, 1, 63, 60
3, 6912, Note_on_c, 1, 55, 60
3, 7676, Note_on_c, 1, 55, 0
3, 7676, Note_on_c, 1, 63, 0
3, 7680, Note_on_c, 1, 65, 60
3, 7680, Note_on_c, 1, 58, 60
3, 7740, Note_on_c, 1, 58, 0
3, 7740, Note_on_c, 1, 65, 0
3, 7808, Note_on_c, 1, 58, 60
3, 7808, Note_on_c, 1, 65, 60
3, 7868, Note_on_c, 1, 65, 0
3, 7868, Note_on_c, 1, 58, 0
3, 7936, Note_on_c, 1, 65, 60
3, 7936, Note_on_c, 1, 58, 60
3, 7996, Note_on_c, 1, 58, 0
3, 7996, Note_on_c, 1, 65, 0
3, 8064, Note_on_c, 1, 65, 60
3, 8064, Note_on_c, 1, 58, 60
3, 8124, Note_on_c, 1, 58, 0
3, 8124, Note_on_c, 1, 65, 0
3, 8192, Note_on_c, 1, 65, 60
3, 8192, Note_on_c, 1, 58, 60
3, 8252, Note_on_c, 1, 58, 0
3, 8252, Note_on_c, 1, 65, 0
3, 8320, Note_on_c, 1, 65, 60
3, 8320, Note_on_c, 1, 58, 60
3, 8380, Note_on_c, 1, 58, 0
3, 8380, Note_on_c, 1, 65, 0
3, 8448, Note_on_c, 1, 63, 60
3, 8700, Note_on_c, 1, 63, 0
3, 8832, Note_on_c, 1, 63, 60
3, 8832, Note_on_c, 1, 51, 60
3, 9084, Note_on_c, 1, 51, 0
3, 9084, Note_on_c, 1, 63, 0
3, 9216, Note_on_c, 1, 65, 60
3, 9216, Note_on_c, 1, 58, 60
3, 9276, Note_on_c, 1, 58, 0
3, 9276, Note_on_c, 1, 65, 0
3, 9344, Note_on_c, 1, 65, 60
3, 9344, Note_on_c, 1, 58, 60
3, 9404, Note_on_c, 1, 58, 0
3, 9404, Note_on_c, 1, 65, 0
3, 9472, Note_on_c, 1, 65, 60
3, 9472, Note_on_c, 1, 58, 60
3, 9532, Note_on_c, 1, 58, 0
3, 9532, Note_on_c, 1, 65, 0
3, 9600, Note_on_c, 1, 58, 60
3, 9600, Note_on_c, 1, 65, 60
3, 9724, Note_on_c, 1, 65, 0
3, 9724, Note_on_c, 1, 58, 0
3, 9984, Note_on_c, 1, 55, 60
3, 9984, Note_on_c, 1, 63, 60
3, 10748, Note_on_c, 1, 63, 0
3, 10748, Note_on_c, 1, 55, 0
3, 10752, Note_on_c, 1, 65, 60
3, 10752, Note_on_c, 1, 58, 60
3, 10812, Note_on_c, 1, 58, 0
3, 10812, Note_on_c, 1, 65, 0
3, 10880, Note_on_c, 1, 65, 60
3, 10880, Note_on_c, 1, 58, 60
3, 10940, Note_on_c, 1, 58, 0
3, 10940, Note_on_c, 1, 65, 0
3, 11008, Note_on_c, 1, 65, 60
3, 11008, Note_on_c, 1, 58, 60
3, 11068, Note_on_c, 1, 58, 0
3, 11068, Note_on_c, 1, 65, 0
3, 11136, Note_on_c, 1, 65, 60
3, 11136, Note_on_c, 1, 58, 60
3, 11196, Note_on_c, 1, 58, 0
3, 11196, Note_on_c, 1, 65, 0
3, 11264, Note_on_c, 1, 65, 60
3, 11264, Note_on_c, 1, 58, 60
3, 11324, Note_on_c, 1, 58, 0
3, 11324, Note_on_c, 1, 65, 0
3, 11392, Note_on_c, 1, 65, 60
3, 11392, Note_on_c, 1, 58, 60
3, 11452, Note_on_c, 1, 58, 0
3, 11452, Note_on_c, 1, 65, 0
3, 11520, Note_on_c, 1, 67, 60
3, 11520, Note_on_c, 1, 63, 60
3, 11644, Note_on_c, 1, 63, 0
3, 11644, Note_on_c, 1, 67, 0
3, 11776, Note_on_c, 1, 67, 60
3, 11776, Note_on_c, 1, 63, 60
3, 11836, Note_on_c, 1, 63, 0
3, 11836, Note_on_c, 1, 67, 0
3, 11904, Note_on_c, 1, 65, 60
3, 11904, Note_on_c, 1, 58, 60
3, 11964, Note_on_c, 1, 58, 0
3, 11964, Note_on_c, 1, 65, 0
3, 12032, Note_on_c, 1, 63, 60
3, 12032, Note_on_c, 1, 58, 60
3, 12092, Note_on_c, 1, 58, 0
3, 12092, Note_on_c, 1, 63, 0
3, 12160, Note_on_c, 1, 65, 60
3, 12160, Note_on_c, 1, 58, 60
3, 12220, Note_on_c, 1, 58, 0
3, 12220, Note_on_c, 1, 65, 0
3, 12288, Note_on_c, 1, 55, 60
3, 12288, Note_on_c, 1, 63, 60
3, 12348, Note_on_c, 1, 63, 0
3, 12348, Note_on_c, 1, 55, 0
3, 12416, Note_on_c, 1, 63, 60
3, 12416, Note_on_c, 1, 51, 60
3, 12476, Note_on_c, 1, 51, 0
3, 12476, Note_on_c, 1, 63, 0
3, 12544, Note_on_c, 1, 63, 60
3, 12544, Note_on_c, 1, 51, 60
3, 12604, Note_on_c, 1, 51, 0
3, 12604, Note_on_c, 1, 63, 0
3, 12672, Note_on_c, 1, 63, 60
3, 12672, Note_on_c, 1, 51, 60
3, 12796, Note_on_c, 1, 51, 0
3, 12796, Note_on_c, 1, 63, 0
3, 27648, Note_on_c, 1, 65, 60
3, 28412, Note_on_c, 1, 65, 0
3, 28416, Note_on_c, 1, 65, 60
3, 28796, Note_on_c, 1, 65, 0
3, 28800, Note_on_c, 1, 65, 60
3, 29180, Note_on_c, 1, 65, 0
3, 29184, Note_on_c, 1, 58, 60
3, 29436, Note_on_c, 1, 58, 0
3, 35456, Note_on_c, 1, 58, 60
3, 35516, Note_on_c, 1, 58, 0
3, 35584, Note_on_c, 1, 58, 60
3, 35644, Note_on_c, 1, 58, 0
3, 35712, Note_on_c, 1, 58, 60
3, 35772, Note_on_c, 1, 58, 0
3, 35840, Note_on_c, 1, 58, 60
3, 35900, Note_on_c, 1, 58, 0
3, 35968, Note_on_c, 1, 58, 60
3, 36028, Note_on_c, 1, 58, 0
3, 36096, Note_on_c, 1, 58, 60
3, 36156, Note_on_c, 1, 58, 0
3, 36224, Note_on_c, 1, 58, 60
3, 36284, Note_on_c, 1, 58, 0
3, 36352, Note_on_c, 1, 58, 60
3, 36412, Note_on_c, 1, 58, 0
3, 36480, Note_on_c, 1, 58, 60
3, 36540, Note_on_c, 1, 58, 0
3, 36608, Note_on_c, 1, 58, 60
3, 36668, Note_on_c, 1, 58, 0
3, 36736, Note_on_c, 1, 58, 60
3, 36796, Note_on_c, 1, 58, 0
3, 36864, Note_on_c, 1, 58, 60
3, 36988, Note_on_c, 1, 58, 0
3, 40064, Note_on_c, 1, 58, 60
3, 40124, Note_on_c, 1, 58, 0
3, 40192, Note_on_c, 1, 58, 60
3, 40252, Note_on_c, 1, 58, 0
3, 40320, Note_on_c, 1, 58, 60
3, 40380, Note_on_c, 1, 58, 0
3, 40448, Note_on_c, 1, 58, 60
3, 40508, Note_on_c, 1, 58, 0
3, 40576, Note_on_c, 1, 58, 60
3, 40636, Note_on_c, 1, 58, 0
3, 40704, Note_on_c, 1, 58, 60
3, 40764, Note_on_c, 1, 58, 0
3, 40832, Note_on_c, 1, 58, 60
3, 40892, Note_on_c, 1, 58, 0
3, 40960, Note_on_c, 1, 58, 60
3, 41020, Note_on_c, 1, 58, 0
3, 41088, Note_on_c, 1, 58, 60
3, 41148, Note_on_c, 1, 58, 0
3, 41216, Note_on_c, 1, 58, 60
3, 41276, Note_on_c, 1, 58, 0
3, 41344, Note_on_c, 1, 58, 60
3, 41404, Note_on_c, 1, 58, 0
3, 41472, Note_on_c, 1, 58, 60
3, 41596, Note_on_c, 1, 58, 0
3, 58368, Note_on_c, 1, 63, 60
3, 58368, Note_on_c, 1, 55, 60
3, 59132, Note_on_c, 1, 55, 0
3, 59132, Note_on_c, 1, 63, 0
3, 59136, Note_on_c, 1, 65, 60
3, 59136, Note_on_c, 1, 58, 60
3, 59196, Note_on_c, 1, 58, 0
3, 59196, Note_on_c, 1, 65, 0
3, 59264, Note_on_c, 1, 58, 60
3, 59264, Note_on_c, 1, 65, 60
3, 59324, Note_on_c, 1, 65, 0
3, 59324, Note_on_c, 1, 58, 0
3, 59392, Note_on_c, 1, 65, 60
3, 59392, Note_on_c, 1, 58, 60
3, 59452, Note_on_c, 1, 58, 0
3, 59452, Note_on_c, 1, 65, 0
3, 59520, Note_on_c, 1, 65, 60
3, 59520, Note_on_c, 1, 58, 60
3, 59580, Note_on_c, 1, 58, 0
3, 59580, Note_on_c, 1, 65, 0
3, 59648, Note_on_c, 1, 65, 60
3, 59648, Note_on_c, 1, 58, 60
3, 59708, Note_on_c, 1, 58, 0
3, 59708, Note_on_c, 1, 65, 0
3, 59776, Note_on_c, 1, 65, 60
3, 59776, Note_on_c, 1, 58, 60
3, 59836, Note_on_c, 1, 58, 0
3, 59836, Note_on_c, 1, 65, 0
3, 59904, Note_on_c, 1, 63, 60
3, 60156, Note_on_c, 1, 63, 0
3, 60288, Note_on_c, 1, 63, 60
3, 60288, Note_on_c, 1, 51, 60
3, 60540, Note_on_c, 1, 51, 0
3, 60540, Note_on_c, 1, 63, 0
3, 60672, Note_on_c, 1, 65, 60
3, 60672, Note_on_c, 1, 58, 60
3, 60732, Note_on_c, 1, 58, 0
3, 60732, Note_on_c, 1, 65, 0
3, 60800, Note_on_c, 1, 65, 60
3, 60800, Note_on_c, 1, 58, 60
3, 60860, Note_on_c, 1, 58, 0
3, 60860, Note_on_c, 1, 65, 0
3, 60928, Note_on_c, 1, 65, 60
3, 60928, Note_on_c, 1, 58, 60
3, 60988, Note_on_c, 1, 58, 0
3, 60988, Note_on_c, 1, 65, 0
3, 61056, Note_on_c, 1, 58, 60
3, 61056, Note_on_c, 1, 65, 60
3, 61180, Note_on_c, 1, 65, 0
3, 61180, Note_on_c, 1, 58, 0
3, 61440, Note_on_c, 1, 55, 60
3, 61440, Note_on_c, 1, 63, 60
3, 62204, Note_on_c, 1, 63, 0
3, 62204, Note_on_c, 1, 55, 0
3, 62208, Note_on_c, 1, 65, 60
3, 62208, Note_on_c, 1, 58, 60
3, 62268, Note_on_c, 1, 58, 0
3, 62268, Note_on_c, 1, 65, 0
3, 62336, Note_on_c, 1, 65, 60
3, 62336, Note_on_c, 1, 58, 60
3, 62396, Note_on_c, 1, 58, 0
3, 62396, Note_on_c, 1, 65, 0
3, 62464, Note_on_c, 1, 65, 60
3, 62464, Note_on_c, 1, 58, 60
3, 62524, Note_on_c, 1, 58, 0
3, 62524, Note_on_c, 1, 65, 0
3, 62592, Note_on_c, 1, 65, 60
3, 62592, Note_on_c, 1, 58, 60
3, 62652, Note_on_c, 1, 58, 0
3, 62652, Note_on_c, 1, 65, 0
3, 62720, Note_on_c, 1, 65, 60
3, 62720, Note_on_c, 1, 58, 60
3, 62780, Note_on_c, 1, 58, 0
3, 62780, Note_on_c, 1, 65, 0
3, 62848, Note_on_c, 1, 65, 60
3, 62848, Note_on_c, 1, 58, 60
3, 62908, Note_on_c, 1, 58, 0
3, 62908, Note_on_c, 1, 65, 0
3, 62976, Note_on_c, 1, 67, 60
3, 62976, Note_on_c, 1, 63, 60
3, 63100, Note_on_c, 1, 63, 0
3, 63100, Note_on_c, 1, 67, 0
3, 63232, Note_on_c, 1, 67, 60
3, 63232, Note_on_c, 1, 63, 60
3, 63292, Note_on_c, 1, 63, 0
3, 63292, Note_on_c, 1, 67, 0
3, 63360, Note_on_c, 1, 65, 60
3, 63360, Note_on_c, 1, 58, 60
3, 63420, Note_on_c, 1, 58, 0
3, 63420, Note_on_c, 1, 65, 0
3, 63488, Note_on_c, 1, 63, 60
3, 63488, Note_on_c, 1, 58, 60
3, 63548, Note_on_c, 1, 58, 0
3, 63548, Note_on_c, 1, 63, 0
3, 63616, Note_on_c, 1, 65, 60
3, 63616, Note_on_c, 1, 58, 60
3, 63676, Note_on_c, 1, 58, 0
3, 63676, Note_on_c, 1, 65, 0
3, 63744, Note_on_c, 1, 55, 60
3, 63744, Note_on_c, 1, 63, 60
3, 63804, Note_on_c, 1, 63, 0
3, 63804, Note_on_c, 1, 55, 0
3, 63872, Note_on_c, 1, 63, 60
3, 63872, Note_on_c, 1, 51, 60
3, 63932, Note_on_c, 1, 51, 0
3, 63932, Note_on_c, 1, 63, 0
3, 64000, Note_on_c, 1, 63, 60
3, 64000, Note_on_c, 1, 51, 60
3, 64060, Note_on_c, 1, 51, 0
3, 64060, Note_on_c, 1, 63, 0
3, 64128, Note_on_c, 1, 63, 60
3, 64128, Note_on_c, 1, 51, 60
3, 64252, Note_on_c, 1, 51, 0
3, 64252, Note_on_c, 1, 63, 0
3, 99072, Note_on_c, 1, 63, 60
3, 99072, Note_on_c, 1, 55, 60
3, 99836, Note_on_c, 1, 55, 0
3, 99836, Note_on_c, 1, 63, 0
3, 99840, Note_on_c, 1, 65, 60
3, 99840, Note_on_c, 1, 58, 60
3, 99900, Note_on_c, 1, 58, 0
3, 99900, Note_on_c, 1, 65, 0
3, 99968, Note_on_c, 1, 58, 60
3, 99968, Note_on_c, 1, 65, 60
3, 100028, Note_on_c, 1, 65, 0
3, 100028, Note_on_c, 1, 58, 0
3, 100096, Note_on_c, 1, 65, 60
3, 100096, Note_on_c, 1, 58, 60
3, 100156, Note_on_c, 1, 58, 0
3, 100156, Note_on_c, 1, 65, 0
3, 100224, Note_on_c, 1, 65, 60
3, 100224, Note_on_c, 1, 58, 60
3, 100284, Note_on_c, 1, 58, 0
3, 100284, Note_on_c, 1, 65, 0
3, 100352, Note_on_c, 1, 65, 60
3, 100352, Note_on_c, 1, 58, 60
3, 100412, Note_on_c, 1, 58, 0
3, 100412, Note_on_c, 1, 65, 0
3, 100480, Note_on_c, 1, 65, 60
3, 100480, Note_on_c, 1, 58, 60
3, 100540, Note_on_c, 1, 58, 0
3, 100540, Note_on_c, 1, 65, 0
3, 100608, Note_on_c, 1, 63, 60
3, 100860, Note_on_c, 1, 63, 0
3, 100992, Note_on_c, 1, 63, 60
3, 100992, Note_on_c, 1, 51, 60
3, 101244, Note_on_c, 1, 51, 0
3, 101244, Note_on_c, 1, 63, 0
3, 101376, Note_on_c, 1, 65, 60
3, 101376, Note_on_c, 1, 58, 60
3, 101436, Note_on_c, 1, 58, 0
3, 101436, Note_on_c, 1, 65, 0
3, 101504, Note_on_c, 1, 65, 60
3, 101504, Note_on_c, 1, 58, 60
3, 101564, Note_on_c, 1, 58, 0
3, 101564, Note_on_c, 1, 65, 0
3, 101632, Note_on_c, 1, 65, 60
3, 101632, Note_on_c, 1, 58, 60
3, 101692, Note_on_c, 1, 58, 0
3, 101692, Note_on_c, 1, 65, 0
3, 101760, Note_on_c, 1, 58, 60
3, 101760, Note_on_c, 1, 65, 60
3, 101884, Note_on_c, 1, 65, 0
3, 101884, Note_on_c, 1, 58, 0
3, 102144, Note_on_c, 1, 55, 60
3, 102144, Note_on_c, 1, 63, 60
3, 102908, Note_on_c, 1, 63, 0
3, 102908, Note_on_c, 1, 55, 0
3, 102912, Note_on_c, 1, 65, 60
3, 102912, Note_on_c, 1, 58, 60
3, 102972, Note_on_c, 1, 58, 0
3, 102972, Note_on_c, 1, 65, 0
3, 103040, Note_on_c, 1, 65, 60
3, 103040, Note_on_c, 1, 58, 60
3, 103100, Note_on_c, 1, 58, 0
3, 103100, Note_on_c, 1, 65, 0
3, 103168, Note_on_c, 1, 65, 60
3, 103168, Note_on_c, 1, 58, 60
3, 103228, Note_on_c, 1, 58, 0
3, 103228, Note_on_c, 1, 65, 0
3, 103296, Note_on_c, 1, 65, 60
3, 103296, Note_on_c, 1, 58, 60
3, 103356, Note_on_c, 1, 58, 0
3, 103356, Note_on_c, 1, 65, 0
3, 103424, Note_on_c, 1, 65, 60
3, 103424, Note_on_c, 1, 58, 60
3, 103484, Note_on_c, 1, 58, 0
3, 103484, Note_on_c, 1, 65, 0
3, 103552, Note_on_c, 1, 65, 60
3, 103552, Note_on_c, 1, 58, 60
3, 103612, Note_on_c, 1, 58, 0
3, 103612, Note_on_c, 1, 65, 0
3, 103680, Note_on_c, 1, 67, 60
3, 103680, Note_on_c, 1, 63, 60
3, 103804, Note_on_c, 1, 63, 0
3, 103804, Note_on_c, 1, 67, 0
3, 103936, Note_on_c, 1, 67, 60
3, 103936, Note_on_c, 1, 63, 60
3, 103996, Note_on_c, 1, 63, 0
3, 103996, Note_on_c, 1, 67, 0
3, 104064, Note_on_c, 1, 65, 60
3, 104064, Note_on_c, 1, 58, 60
3, 104124, Note_on_c, 1, 58, 0
3, 104124, Note_on_c, 1, 65, 0
3, 104192, Note_on_c, 1, 63, 60
3, 104192, Note_on_c, 1, 58, 60
3, 104252, Note_on_c, 1, 58, 0
3, 104252, Note_on_c, 1, 63, 0
3, 104320, Note_on_c, 1, 65, 60
3, 104320, Note_on_c, 1, 58, 60
3, 104380, Note_on_c, 1, 58, 0
3, 104380, Note_on_c, 1, 65, 0
3, 104448, Note_on_c, 1, 55, 60
3, 104448, Note_on_c, 1, 63, 60
3, 104508, Note_on_c, 1, 63, 0
3, 104508, Note_on_c, 1, 55, 0
3, 104576, Note_on_c, 1, 63, 60
3, 104576, Note_on_c, 1, 51, 60
3, 104636, Note_on_c, 1, 51, 0
3, 104636, Note_on_c, 1, 63, 0
3, 104704, Note_on_c, 1, 63, 60
3, 104704, Note_on_c, 1, 51, 60
3, 104764, Note_on_c, 1, 51, 0
3, 104764, Note_on_c, 1, 63, 0
3, 104832, Note_on_c, 1, 63, 60
3, 104832, Note_on_c, 1, 51, 60
3, 104956, Note_on_c, 1, 51, 0
3, 104956, Note_on_c, 1, 63, 0
3, 115968, Note_on_c, 1, 58, 60
3, 116028, Note_on_c, 1, 58, 0
3, 116096, Note_on_c, 1, 58, 60
3, 116156, Note_on_c, 1, 58, 0
3, 116224, Note_on_c, 1, 58, 60
3, 116284, Note_on_c, 1, 58, 0
3, 116352, Note_on_c, 1, 58, 60
3, 116412, Note_on_c, 1, 58, 0
3, 116480, Note_on_c, 1, 58, 60
3, 116540, Note_on_c, 1, 58, 0
3, 116608, Note_on_c, 1, 58, 60
3, 116668, Note_on_c, 1, 58, 0
3, 116736, Note_on_c, 1, 58, 60
3, 116796, Note_on_c, 1, 58, 0
3, 116864, Note_on_c, 1, 58, 60
3, 116924, Note_on_c, 1, 58, 0
3, 116992, Note_on_c, 1, 58, 60
3, 117052, Note_on_c, 1, 58, 0
3, 117120, Note_on_c, 1, 58, 60
3, 117180, Note_on_c, 1, 58, 0
3, 117248, Note_on_c, 1, 58, 60
3, 117308, Note_on_c, 1, 58, 0
3, 117376, Note_on_c, 1, 58, 60
3, 117436, Note_on_c, 1, 58, 0
3, 117504, Note_on_c, 1, 63, 60
3, 117504, Note_on_c, 1, 51, 60
3, 117756, Note_on_c, 1, 51, 0
3, 117756, Note_on_c, 1, 63, 0
3, 123776, Note_on_c, 1, 58, 60
3, 123836, Note_on_c, 1, 58, 0
3, 123904, Note_on_c, 1, 58, 60
3, 123964, Note_on_c, 1, 58, 0
3, 124032, Note_on_c, 1, 58, 60
3, 124092, Note_on_c, 1, 58, 0
3, 124160, Note_on_c, 1, 58, 60
3, 124220, Note_on_c, 1, 58, 0
3, 124288, Note_on_c, 1, 58, 60
3, 124348, Note_on_c, 1, 58, 0
3, 124416, Note_on_c, 1, 58, 60
3, 124476, Note_on_c, 1, 58, 0
3, 124544, Note_on_c, 1, 58, 60
3, 124604, Note_on_c, 1, 58, 0
3, 124672, Note_on_c, 1, 58, 60
3, 124732, Note_on_c, 1, 58, 0
3, 124800, Note_on_c, 1, 58, 60
3, 124860, Note_on_c, 1, 58, 0
3, 124928, Note_on_c, 1, 58, 60
3, 124988, Note_on_c, 1, 58, 0
3, 125056, Note_on_c, 1, 58, 60
3, 125116, Note_on_c, 1, 58, 0
3, 125184, Note_on_c, 1, 58, 60
3, 125308, Note_on_c, 1, 58, 0
3, 130560, Note_on_c, 1, 58, 60
3, 130560, Note_on_c, 1, 46, 60
3, 132092, Note_on_c, 1, 46, 0
3, 132092, Note_on_c, 1, 58, 0
3, 138112, Note_on_c, 1, 58, 60
3, 138172, Note_on_c, 1, 58, 0
3, 138240, Note_on_c, 1, 63, 60
3, 138240, Note_on_c, 1, 51, 60
3, 138300, Note_on_c, 1, 51, 0
3, 138300, Note_on_c, 1, 63, 0
3, 138368, Note_on_c, 1, 63, 60
3, 138368, Note_on_c, 1, 51, 60
3, 138428, Note_on_c, 1, 51, 0
3, 138428, Note_on_c, 1, 63, 0
3, 138496, Note_on_c, 1, 63, 60
3, 138496, Note_on_c, 1, 51, 60
3, 138556, Note_on_c, 1, 51, 0
3, 138556, Note_on_c, 1, 63, 0
3, 138624, Note_on_c, 1, 63, 60
3, 138624, Note_on_c, 1, 51, 60
3, 138684, Note_on_c, 1, 51, 0
3, 138684, Note_on_c, 1, 63, 0
3, 138752, Note_on_c, 1, 63, 60
3, 138752, Note_on_c, 1, 51, 60
3, 138812, Note_on_c, 1, 51, 0
3, 138812, Note_on_c, 1, 63, 0
3, 138880, Note_on_c, 1, 63, 60
3, 138880, Note_on_c, 1, 51, 60
3, 138940, Note_on_c, 1, 51, 0
3, 138940, Note_on_c, 1, 63, 0
3, 139008, Note_on_c, 1, 58, 60
3, 139008, Note_on_c, 1, 46, 60
3, 139260, Note_on_c, 1, 46, 0
3, 139260, Note_on_c, 1, 58, 0
3, 141952, Note_on_c, 1, 58, 60
3, 141952, Note_on_c, 1, 65, 60
3, 142012, Note_on_c, 1, 65, 0
3, 142012, Note_on_c, 1, 58, 0
3, 142080, Note_on_c, 1, 67, 60
3, 142080, Note_on_c, 1, 63, 60
3, 142844, Note_on_c, 1, 67, 0
3, 142848, Note_on_c, 1, 65, 60
3, 143228, Note_on_c, 1, 63, 0
3, 143232, Note_on_c, 1, 58, 60
3, 143612, Note_on_c, 1, 58, 0
3, 143612, Note_on_c, 1, 65, 0
3, 143616, Note_on_c, 1, 67, 60
3, 143616, Note_on_c, 1, 63, 60
3, 144380, Note_on_c, 1, 67, 0
3, 144384, Note_on_c, 1, 65, 60
3, 144764, Note_on_c, 1, 63, 0
3, 144768, Note_on_c, 1, 58, 60
3, 145148, Note_on_c, 1, 58, 0
3, 145148, Note_on_c, 1, 65, 0
3, 145152, Note_on_c, 1, 67, 60
3, 145152, Note_on_c, 1, 63, 60
3, 145916, Note_on_c, 1, 67, 0
3, 145920, Note_on_c, 1, 65, 60
3, 146300, Note_on_c, 1, 63, 0
3, 146304, Note_on_c, 1, 58, 60
3, 146684, Note_on_c, 1, 58, 0
3, 146684, Note_on_c, 1, 65, 0
3, 152832, Note_on_c, 1, 63, 40
3, 152832, Note_on_c, 1, 51, 40
3, 157540, Note_on_c, 1, 51, 0
3, 157540, Note_on_c, 1, 63, 0
3, 157568, Note_on_c, 1, 63, 60
3, 157568, Note_on_c, 1, 51, 60
3, 157628, Note_on_c, 1, 51, 0
3, 157628, Note_on_c, 1, 63, 0
3, 157696, Note_on_c, 1, 63, 60
3, 157696, Note_on_c, 1, 51, 60
3, 157756, Note_on_c, 1, 51, 0
3, 157756, Note_on_c, 1, 63, 0
3, 157824, Note_on_c, 1, 63, 60
3, 157824, Note_on_c, 1, 51, 60
3, 157884, Note_on_c, 1, 51, 0
3, 157884, Note_on_c, 1, 63, 0
3, 157952, Note_on_c, 1, 63, 60
3, 157952, Note_on_c, 1, 51, 60
3, 158012, Note_on_c, 1, 51, 0
3, 158012, Note_on_c, 1, 63, 0
3, 158080, Note_on_c, 1, 63, 60
3, 158080, Note_on_c, 1, 51, 60
3, 158140, Note_on_c, 1, 51, 0
3, 158140, Note_on_c, 1, 63, 0
3, 158208, Note_on_c, 1, 63, 60
3, 158208, Note_on_c, 1, 51, 60
3, 158332, Note_on_c, 1, 51, 0
3, 158332, Note_on_c, 1, 63, 0
3, 158592, Note_on_c, 1, 51, 60
3, 158592, Note_on_c, 1, 58, 60
3, 158716, Note_on_c, 1, 58, 0
3, 158716, Note_on_c, 1, 51, 0
3, 158976, Note_on_c, 1, 58, 60
3, 158976, Note_on_c, 1, 51, 60
3, 159100, Note_on_c, 1, 51, 0
3, 159100, Note_on_c, 1, 58, 0
3, 159100, End_track
4, 0, Start_track
4, 0, MIDI_port, 0
4, 0, Title_t, "Solo Horn"
4, 0, Program_c, 2, 60
4, 0, Control_c, 2, 7, 127
4, 0, Control_c, 2, 10, 67
4, 0, Control_c, 2, 0, 0
4, 0, Control_c, 2, 32, 0
4, 30, Control_c, 2, 121, 0
4, 41, Control_c, 2, 7, 127
4, 72, Control_c, 2, 93, 0
4, 92, Control_c, 2, 91, 100
4, 384, Program_c, 2, 60
4, 640, Note_on_c, 2, 58, 90
4, 700, Note_on_c, 2, 58, 0
4, 768, Note_on_c, 2, 63, 90
4, 828, Note_on_c, 2, 63, 0
4, 896, Note_on_c, 2, 63, 90
4, 956, Note_on_c, 2, 63, 0
4, 1024, Note_on_c, 2, 63, 90
4, 1084, Note_on_c, 2, 63, 0
4, 1152, Note_on_c, 2, 63, 90
4, 1212, Note_on_c, 2, 63, 0
4, 1280, Note_on_c, 2, 63, 90
4, 1340, Note_on_c, 2, 63, 0
4, 1408, Note_on_c, 2, 63, 90
4, 1468, Note_on_c, 2, 63, 0
4, 1536, Note_on_c, 2, 62, 90
4, 1596, Note_on_c, 2, 62, 0
4, 1664, Note_on_c, 2, 65, 90
4, 1724, Note_on_c, 2, 65, 0
4, 1792, Note_on_c, 2, 70, 90
4, 1852, Note_on_c, 2, 70, 0
4, 1920, Note_on_c, 2, 70, 90
4, 2044, Note_on_c, 2, 70, 0
4, 2048, Note_on_c, 2, 68, 90
4, 2108, Note_on_c, 2, 68, 0
4, 2176, Note_on_c, 2, 65, 90
4, 2236, Note_on_c, 2, 65, 0
4, 2304, Note_on_c, 2, 63, 90
4, 2364, Note_on_c, 2, 63, 0
4, 2432, Note_on_c, 2, 63, 90
4, 2492, Note_on_c, 2, 63, 0
4, 2560, Note_on_c, 2, 63, 90
4, 2620, Note_on_c, 2, 63, 0
4, 2688, Note_on_c, 2, 63, 90
4, 2748, Note_on_c, 2, 63, 0
4, 2816, Note_on_c, 2, 62, 90
4, 2876, Note_on_c, 2, 62, 0
4, 2944, Note_on_c, 2, 63, 90
4, 3004, Note_on_c, 2, 63, 0
4, 3072, Note_on_c, 2, 65, 90
4, 3196, Note_on_c, 2, 65, 0
4, 3200, Note_on_c, 2, 58, 90
4, 3260, Note_on_c, 2, 58, 0
4, 3328, Note_on_c, 2, 58, 90
4, 3388, Note_on_c, 2, 58, 0
4, 3456, Note_on_c, 2, 58, 90
4, 3580, Note_on_c, 2, 58, 0
4, 3712, Note_on_c, 2, 58, 90
4, 3772, Note_on_c, 2, 58, 0
4, 3840, Note_on_c, 2, 63, 90
4, 3900, Note_on_c, 2, 63, 0
4, 3968, Note_on_c, 2, 63, 90
4, 4028, Note_on_c, 2, 63, 0
4, 4096, Note_on_c, 2, 63, 90
4, 4156, Note_on_c, 2, 63, 0
4, 4224, Note_on_c, 2, 63, 90
4, 4284, Note_on_c, 2, 63, 0
4, 4352, Note_on_c, 2, 63, 90
4, 4412, Note_on_c, 2, 63, 0
4, 4480, Note_on_c, 2, 63, 90
4, 4540, Note_on_c, 2, 63, 0
4, 4608, Note_on_c, 2, 62, 90
4, 4732, Note_on_c, 2, 62, 0
4, 4736, Note_on_c, 2, 65, 90
4, 4796, Note_on_c, 2, 65, 0
4, 4864, Note_on_c, 2, 70, 90
4, 4924, Note_on_c, 2, 70, 0
4, 4992, Note_on_c, 2, 70, 90
4, 5116, Note_on_c, 2, 70, 0
4, 5120, Note_on_c, 2, 68, 108
4, 5180, Note_on_c, 2, 68, 0
4, 5248, Note_on_c, 2, 65, 108
4, 5308, Note_on_c, 2, 65, 0
4, 5376, Note_on_c, 2, 67, 108
4, 5436, Note_on_c, 2, 67, 0
4, 5504, Note_on_c, 2, 70, 108
4, 5564, Note_on_c, 2, 70, 0
4, 5632, Note_on_c, 2, 63, 108
4, 5692, Note_on_c, 2, 63, 0
4, 5760, Note_on_c, 2, 65, 108
4, 5820, Note_on_c, 2, 65, 0
4, 5888, Note_on_c, 2, 63, 108
4, 5948, Note_on_c, 2, 63, 0
4, 6016, Note_on_c, 2, 65, 108
4, 6076, Note_on_c, 2, 65, 0
4, 6144, Note_on_c, 2, 63, 108
4, 6204, Note_on_c, 2, 63, 0
4, 6272, Note_on_c, 2, 51, 108
4, 6332, Note_on_c, 2, 51, 0
4, 6400, Note_on_c, 2, 51, 108
4, 6460, Note_on_c, 2, 51, 0
4, 6528, Note_on_c, 2, 51, 108
4, 6780, Note_on_c, 2, 51, 0
4, 9642, Control_c, 2, 1, 0
4, 12928, Note_on_c, 2, 58, 108
4, 12988, Note_on_c, 2, 58, 0
4, 13056, Note_on_c, 2, 63, 108
4, 13308, Note_on_c, 2, 63, 0
4, 13440, Note_on_c, 2, 67, 108
4, 13692, Note_on_c, 2, 67, 0
4, 13824, Note_on_c, 2, 70, 108
4, 14396, Note_on_c, 2, 70, 0
4, 14464, Note_on_c, 2, 67, 108
4, 14524, Note_on_c, 2, 67, 0
4, 14592, Note_on_c, 2, 68, 108
4, 14652, Note_on_c, 2, 68, 0
4, 14720, Note_on_c, 2, 65, 108
4, 14780, Note_on_c, 2, 65, 0
4, 14848, Note_on_c, 2, 63, 108
4, 14908, Note_on_c, 2, 63, 0
4, 14976, Note_on_c, 2, 62, 108
4, 15036, Note_on_c, 2, 62, 0
4, 15104, Note_on_c, 2, 60, 108
4, 15164, Note_on_c, 2, 60, 0
4, 15232, Note_on_c, 2, 62, 108
4, 15292, Note_on_c, 2, 62, 0
4, 15360, Note_on_c, 2, 63, 108
4, 15612, Note_on_c, 2, 63, 0
4, 15616, Note_on_c, 2, 67, 108
4, 15676, Note_on_c, 2, 67, 0
4, 15744, Note_on_c, 2, 58, 108
4, 15868, Note_on_c, 2, 58, 0
4, 16000, Note_on_c, 2, 58, 108
4, 16060, Note_on_c, 2, 58, 0
4, 16128, Note_on_c, 2, 63, 108
4, 16380, Note_on_c, 2, 63, 0
4, 16512, Note_on_c, 2, 67, 108
4, 16764, Note_on_c, 2, 67, 0
4, 16896, Note_on_c, 2, 70, 108
4, 17408, Note_on_c, 2, 67, 108
4, 17468, Note_on_c, 2, 67, 0
4, 17468, Note_on_c, 2, 70, 0
4, 17536, Note_on_c, 2, 63, 108
4, 17596, Note_on_c, 2, 63, 0
4, 17664, Note_on_c, 2, 68, 108
4, 17724, Note_on_c, 2, 68, 0
4, 17792, Note_on_c, 2, 65, 108
4, 17852, Note_on_c, 2, 65, 0
4, 17920, Note_on_c, 2, 63, 108
4, 17980, Note_on_c, 2, 63, 0
4, 18048, Note_on_c, 2, 62, 108
4, 18108, Note_on_c, 2, 62, 0
4, 18176, Note_on_c, 2, 60, 108
4, 18236, Note_on_c, 2, 60, 0
4, 18304, Note_on_c, 2, 62, 108
4, 18364, Note_on_c, 2, 62, 0
4, 18432, Note_on_c, 2, 63, 108
4, 18684, Note_on_c, 2, 63, 0
4, 19456, Note_on_c, 2, 67, 108
4, 19516, Note_on_c, 2, 67, 0
4, 19584, Note_on_c, 2, 67, 108
4, 19708, Note_on_c, 2, 67, 0
4, 19712, Note_on_c, 2, 68, 108
4, 19772, Note_on_c, 2, 68, 0
4, 19840, Note_on_c, 2, 67, 108
4, 19900, Note_on_c, 2, 67, 0
4, 19968, Note_on_c, 2, 67, 108
4, 20220, Note_on_c, 2, 67, 0
4, 20992, Note_on_c, 2, 65, 108
4, 21052, Note_on_c, 2, 65, 0
4, 21120, Note_on_c, 2, 65, 108
4, 21180, Note_on_c, 2, 65, 0
4, 21248, Note_on_c, 2, 67, 108
4, 21308, Note_on_c, 2, 67, 0
4, 21376, Note_on_c, 2, 65, 108
4, 21436, Note_on_c, 2, 65, 0
4, 21504, Note_on_c, 2, 65, 108
4, 21628, Note_on_c, 2, 65, 0
4, 21760, Note_on_c, 2, 65, 108
4, 21820, Note_on_c, 2, 65, 0
4, 21888, Note_on_c, 2, 65, 108
4, 21948, Note_on_c, 2, 65, 0
4, 22016, Note_on_c, 2, 67, 108
4, 22076, Note_on_c, 2, 67, 0
4, 22144, Note_on_c, 2, 69, 108
4, 22204, Note_on_c, 2, 69, 0
4, 22272, Note_on_c, 2, 70, 108
4, 22396, Note_on_c, 2, 70, 0
4, 22528, Note_on_c, 2, 67, 108
4, 22588, Note_on_c, 2, 67, 0
4, 22656, Note_on_c, 2, 62, 108
4, 22780, Note_on_c, 2, 62, 0
4, 22912, Note_on_c, 2, 64, 108
4, 22972, Note_on_c, 2, 64, 0
4, 23040, Note_on_c, 2, 65, 108
4, 23292, Note_on_c, 2, 65, 0
4, 24576, Note_on_c, 2, 65, 108
4, 25088, Note_on_c, 2, 64, 108
4, 25148, Note_on_c, 2, 64, 0
4, 25148, Note_on_c, 2, 65, 0
4, 25216, Note_on_c, 2, 65, 108
4, 25276, Note_on_c, 2, 65, 0
4, 25344, Note_on_c, 2, 67, 108
4, 25468, Note_on_c, 2, 67, 0
4, 25600, Note_on_c, 2, 67, 108
4, 25660, Note_on_c, 2, 67, 0
4, 25728, Note_on_c, 2, 67, 108
4, 25788, Note_on_c, 2, 67, 0
4, 25856, Note_on_c, 2, 69, 108
4, 25916, Note_on_c, 2, 69, 0
4, 25984, Note_on_c, 2, 67, 108
4, 26044, Note_on_c, 2, 67, 0
4, 26112, Note_on_c, 2, 65, 108
4, 26236, Note_on_c, 2, 65, 0
4, 26368, Note_on_c, 2, 65, 108
4, 26428, Note_on_c, 2, 65, 0
4, 26496, Note_on_c, 2, 65, 108
4, 26556, Note_on_c, 2, 65, 0
4, 26624, Note_on_c, 2, 64, 108
4, 26684, Note_on_c, 2, 64, 0
4, 26752, Note_on_c, 2, 65, 108
4, 26812, Note_on_c, 2, 65, 0
4, 26880, Note_on_c, 2, 67, 108
4, 27004, Note_on_c, 2, 67, 0
4, 27136, Note_on_c, 2, 67, 108
4, 27196, Note_on_c, 2, 67, 0
4, 27264, Note_on_c, 2, 67, 108
4, 27324, Note_on_c, 2, 67, 0
4, 27392, Note_on_c, 2, 69, 108
4, 27452, Note_on_c, 2, 69, 0
4, 27520, Note_on_c, 2, 67, 108
4, 27580, Note_on_c, 2, 67, 0
4, 27648, Note_on_c, 2, 65, 108
4, 27900, Note_on_c, 2, 65, 0
4, 29440, Note_on_c, 2, 65, 108
4, 29500, Note_on_c, 2, 65, 0
4, 29568, Note_on_c, 2, 62, 108
4, 29692, Note_on_c, 2, 62, 0
4, 29824, Note_on_c, 2, 70, 108
4, 29884, Note_on_c, 2, 70, 0
4, 29952, Note_on_c, 2, 67, 108
4, 30076, Note_on_c, 2, 67, 0
4, 30208, Note_on_c, 2, 63, 108
4, 30268, Note_on_c, 2, 63, 0
4, 30336, Note_on_c, 2, 58, 108
4, 30460, Note_on_c, 2, 58, 0
4, 30592, Note_on_c, 2, 70, 108
4, 30652, Note_on_c, 2, 70, 0
4, 30720, Note_on_c, 2, 65, 108
4, 30844, Note_on_c, 2, 65, 0
4, 30976, Note_on_c, 2, 62, 108
4, 31036, Note_on_c, 2, 62, 0
4, 31104, Note_on_c, 2, 58, 108
4, 31228, Note_on_c, 2, 58, 0
4, 31360, Note_on_c, 2, 70, 108
4, 31420, Note_on_c, 2, 70, 0
4, 31488, Note_on_c, 2, 70, 108
4, 31548, Note_on_c, 2, 70, 0
4, 31616, Note_on_c, 2, 69, 108
4, 31676, Note_on_c, 2, 69, 0
4, 31744, Note_on_c, 2, 67, 108
4, 31804, Note_on_c, 2, 67, 0
4, 31872, Note_on_c, 2, 65, 108
4, 31932, Note_on_c, 2, 65, 0
4, 32000, Note_on_c, 2, 67, 108
4, 32060, Note_on_c, 2, 67, 0
4, 32128, Note_on_c, 2, 69, 108
4, 32188, Note_on_c, 2, 69, 0
4, 32256, Note_on_c, 2, 70, 108
4, 32508, Note_on_c, 2, 70, 0
4, 33024, Note_on_c, 2, 58, 108
4, 33276, Note_on_c, 2, 58, 0
4, 33408, Note_on_c, 2, 63, 108
4, 33532, Note_on_c, 2, 63, 0
4, 33664, Note_on_c, 2, 67, 108
4, 33724, Note_on_c, 2, 67, 0
4, 33792, Note_on_c, 2, 58, 108
4, 34044, Note_on_c, 2, 58, 0
4, 34176, Note_on_c, 2, 62, 108
4, 34300, Note_on_c, 2, 62, 0
4, 34432, Note_on_c, 2, 65, 108
4, 34492, Note_on_c, 2, 65, 0
4, 34560, Note_on_c, 2, 63, 108
4, 34812, Note_on_c, 2, 63, 0
4, 34816, Note_on_c, 2, 60, 108
4, 34876, Note_on_c, 2, 60, 0
4, 34944, Note_on_c, 2, 65, 108
4, 35068, Note_on_c, 2, 65, 0
4, 35200, Note_on_c, 2, 63, 108
4, 35260, Note_on_c, 2, 63, 0
4, 35328, Note_on_c, 2, 62, 108
4, 35452, Note_on_c, 2, 62, 0
4, 36992, Note_on_c, 2, 51, 108
4, 37052, Note_on_c, 2, 51, 0
4, 37120, Note_on_c, 2, 55, 108
4, 37180, Note_on_c, 2, 55, 0
4, 37248, Note_on_c, 2, 58, 108
4, 37308, Note_on_c, 2, 58, 0
4, 37376, Note_on_c, 2, 63, 108
4, 37436, Note_on_c, 2, 63, 0
4, 37504, Note_on_c, 2, 67, 108
4, 37564, Note_on_c, 2, 67, 0
4, 37632, Note_on_c, 2, 70, 108
4, 38144, Note_on_c, 2, 69, 108
4, 38204, Note_on_c, 2, 69, 0
4, 38204, Note_on_c, 2, 70, 0
4, 38272, Note_on_c, 2, 67, 108
4, 38332, Note_on_c, 2, 67, 0
4, 38400, Note_on_c, 2, 65, 108
4, 38460, Note_on_c, 2, 65, 0
4, 38528, Note_on_c, 2, 70, 108
4, 38588, Note_on_c, 2, 70, 0
4, 38656, Note_on_c, 2, 69, 108
4, 38716, Note_on_c, 2, 69, 0
4, 38784, Note_on_c, 2, 67, 108
4, 38844, Note_on_c, 2, 67, 0
4, 38912, Note_on_c, 2, 65, 108
4, 38972, Note_on_c, 2, 65, 0
4, 39040, Note_on_c, 2, 63, 108
4, 39100, Note_on_c, 2, 63, 0
4, 39168, Note_on_c, 2, 62, 108
4, 39420, Note_on_c, 2, 62, 0
4, 39552, Note_on_c, 2, 60, 108
4, 39804, Note_on_c, 2, 60, 0
4, 39936, Note_on_c, 2, 58, 108
4, 40188, Note_on_c, 2, 58, 0
4, 41600, Note_on_c, 2, 51, 108
4, 41660, Note_on_c, 2, 51, 0
4, 41728, Note_on_c, 2, 55, 108
4, 41788, Note_on_c, 2, 55, 0
4, 41856, Note_on_c, 2, 58, 108
4, 41916, Note_on_c, 2, 58, 0
4, 41984, Note_on_c, 2, 63, 108
4, 42044, Note_on_c, 2, 63, 0
4, 42112, Note_on_c, 2, 67, 108
4, 42172, Note_on_c, 2, 67, 0
4, 42240, Note_on_c, 2, 70, 108
4, 42752, Note_on_c, 2, 69, 108
4, 42812, Note_on_c, 2, 69, 0
4, 42812, Note_on_c, 2, 70, 0
4, 42880, Note_on_c, 2, 67, 108
4, 42940, Note_on_c, 2, 67, 0
4, 43008, Note_on_c, 2, 65, 108
4, 43520, Note_on_c, 2, 67, 108
4, 43580, Note_on_c, 2, 67, 0
4, 43580, Note_on_c, 2, 65, 0
4, 43648, Note_on_c, 2, 64, 108
4, 43708, Note_on_c, 2, 64, 0
4, 43776, Note_on_c, 2, 65, 108
4, 44288, Note_on_c, 2, 67, 108
4, 44348, Note_on_c, 2, 67, 0
4, 44348, Note_on_c, 2, 65, 0
4, 44416, Note_on_c, 2, 64, 108
4, 44476, Note_on_c, 2, 64, 0
4, 44544, Note_on_c, 2, 65, 108
4, 44604, Note_on_c, 2, 65, 0
4, 44672, Note_on_c, 2, 67, 108
4, 44732, Note_on_c, 2, 67, 0
4, 44800, Note_on_c, 2, 64, 108
4, 44860, Note_on_c, 2, 64, 0
4, 44928, Note_on_c, 2, 65, 108
4, 44988, Note_on_c, 2, 65, 0
4, 45056, Note_on_c, 2, 67, 108
4, 45116, Note_on_c, 2, 67, 0
4, 45184, Note_on_c, 2, 64, 108
4, 45244, Note_on_c, 2, 64, 0
4, 45312, Note_on_c, 2, 65, 108
4, 46076, Note_on_c, 2, 65, 0
4, 46080, Note_on_c, 2, 58, 108
4, 46332, Note_on_c, 2, 58, 0
4, 47616, Note_on_c, 2, 70, 80
4, 48264, Note_on_c, 2, 70, 0
4, 48384, Note_on_c, 2, 69, 90
4, 49032, Note_on_c, 2, 69, 0
4, 49152, Note_on_c, 2, 68, 95
4, 49800, Note_on_c, 2, 68, 0
4, 49920, Note_on_c, 2, 67, 108
4, 50044, Note_on_c, 2, 67, 0
4, 50176, Note_on_c, 2, 65, 108
4, 50236, Note_on_c, 2, 65, 0
4, 50304, Note_on_c, 2, 63, 108
4, 50364, Note_on_c, 2, 63, 0
4, 50432, Note_on_c, 2, 65, 108
4, 50492, Note_on_c, 2, 65, 0
4, 50560, Note_on_c, 2, 67, 108
4, 50620, Note_on_c, 2, 67, 0
4, 50688, Note_on_c, 2, 68, 108
4, 50940, Note_on_c, 2, 68, 0
4, 51072, Note_on_c, 2, 65, 108
4, 51132, Note_on_c, 2, 65, 0
4, 51200, Note_on_c, 2, 67, 108
4, 51260, Note_on_c, 2, 67, 0
4, 51328, Note_on_c, 2, 68, 108
4, 51388, Note_on_c, 2, 68, 0
4, 51456, Note_on_c, 2, 70, 108
4, 51708, Note_on_c, 2, 70, 0
4, 51840, Note_on_c, 2, 58, 108
4, 51900, Note_on_c, 2, 58, 0
4, 51968, Note_on_c, 2, 60, 108
4, 52028, Note_on_c, 2, 60, 0
4, 52096, Note_on_c, 2, 62, 108
4, 52156, Note_on_c, 2, 62, 0
4, 52224, Note_on_c, 2, 63, 108
4, 52284, Note_on_c, 2, 63, 0
4, 52352, Note_on_c, 2, 63, 108
4, 52412, Note_on_c, 2, 63, 0
4, 52480, Note_on_c, 2, 63, 108
4, 52540, Note_on_c, 2, 63, 0
4, 52608, Note_on_c, 2, 63, 108
4, 52668, Note_on_c, 2, 63, 0
4, 52736, Note_on_c, 2, 63, 108
4, 52796, Note_on_c, 2, 63, 0
4, 52864, Note_on_c, 2, 63, 108
4, 52924, Note_on_c, 2, 63, 0
4, 52992, Note_on_c, 2, 62, 108
4, 53052, Note_on_c, 2, 62, 0
4, 53120, Note_on_c, 2, 65, 108
4, 53180, Note_on_c, 2, 65, 0
4, 53248, Note_on_c, 2, 70, 108
4, 53308, Note_on_c, 2, 70, 0
4, 53376, Note_on_c, 2, 70, 108
4, 53500, Note_on_c, 2, 70, 0
4, 53504, Note_on_c, 2, 68, 108
4, 53564, Note_on_c, 2, 68, 0
4, 53632, Note_on_c, 2, 65, 108
4, 53692, Note_on_c, 2, 65, 0
4, 53760, Note_on_c, 2, 63, 108
4, 53820, Note_on_c, 2, 63, 0
4, 53888, Note_on_c, 2, 63, 108
4, 53948, Note_on_c, 2, 63, 0
4, 54016, Note_on_c, 2, 63, 108
4, 54076, Note_on_c, 2, 63, 0
4, 54144, Note_on_c, 2, 63, 108
4, 54204, Note_on_c, 2, 63, 0
4, 54272, Note_on_c, 2, 62, 108
4, 54332, Note_on_c, 2, 62, 0
4, 54400, Note_on_c, 2, 63, 108
4, 54460, Note_on_c, 2, 63, 0
4, 54528, Note_on_c, 2, 65, 108
4, 54652, Note_on_c, 2, 65, 0
4, 54656, Note_on_c, 2, 58, 108
4, 54716, Note_on_c, 2, 58, 0
4, 54784, Note_on_c, 2, 58, 108
4, 54844, Note_on_c, 2, 58, 0
4, 54912, Note_on_c, 2, 58, 108
4, 55036, Note_on_c, 2, 58, 0
4, 55168, Note_on_c, 2, 58, 108
4, 55228, Note_on_c, 2, 58, 0
4, 55296, Note_on_c, 2, 63, 108
4, 55356, Note_on_c, 2, 63, 0
4, 55424, Note_on_c, 2, 63, 108
4, 55484, Note_on_c, 2, 63, 0
4, 55552, Note_on_c, 2, 63, 108
4, 55612, Note_on_c, 2, 63, 0
4, 55680, Note_on_c, 2, 63, 108
4, 55740, Note_on_c, 2, 63, 0
4, 55808, Note_on_c, 2, 63, 108
4, 55868, Note_on_c, 2, 63, 0
4, 55936, Note_on_c, 2, 63, 108
4, 55996, Note_on_c, 2, 63, 0
4, 56064, Note_on_c, 2, 62, 108
4, 56188, Note_on_c, 2, 62, 0
4, 56192, Note_on_c, 2, 65, 108
4, 56252, Note_on_c, 2, 65, 0
4, 56320, Note_on_c, 2, 70, 108
4, 56380, Note_on_c, 2, 70, 0
4, 56448, Note_on_c, 2, 70, 108
4, 56572, Note_on_c, 2, 70, 0
4, 56576, Note_on_c, 2, 68, 108
4, 56636, Note_on_c, 2, 68, 0
4, 56704, Note_on_c, 2, 65, 108
4, 56764, Note_on_c, 2, 65, 0
4, 56832, Note_on_c, 2, 67, 108
4, 56892, Note_on_c, 2, 67, 0
4, 56960, Note_on_c, 2, 70, 108
4, 57020, Note_on_c, 2, 70, 0
4, 57088, Note_on_c, 2, 63, 108
4, 57148, Note_on_c, 2, 63, 0
4, 57216, Note_on_c, 2, 65, 108
4, 57276, Note_on_c, 2, 65, 0
4, 57344, Note_on_c, 2, 63, 108
4, 57404, Note_on_c, 2, 63, 0
4, 57472, Note_on_c, 2, 65, 108
4, 57532, Note_on_c, 2, 65, 0
4, 57600, Note_on_c, 2, 63, 108
4, 57660, Note_on_c, 2, 63, 0
4, 57728, Note_on_c, 2, 51, 108
4, 57788, Note_on_c, 2, 51, 0
4, 57856, Note_on_c, 2, 51, 108
4, 57916, Note_on_c, 2, 51, 0
4, 57984, Note_on_c, 2, 51, 108
4, 58236, Note_on_c, 2, 51, 0
4, 64512, Note_on_c, 2, 67, 70
4, 64764, Note_on_c, 2, 67, 0
4, 64896, Note_on_c, 2, 67, 77
4, 65148, Note_on_c, 2, 67, 0
4, 65280, Note_on_c, 2, 67, 83
4, 65792, Note_on_c, 2, 63, 69
4, 65852, Note_on_c, 2, 63, 0
4, 65852, Note_on_c, 2, 67, 0
4, 65920, Note_on_c, 2, 60, 72
4, 65980, Note_on_c, 2, 60, 0
4, 66048, Note_on_c, 2, 68, 74
4, 66172, Note_on_c, 2, 68, 0
4, 66304, Note_on_c, 2, 68, 80
4, 66364, Note_on_c, 2, 68, 0
4, 66432, Note_on_c, 2, 68, 82
4, 66556, Note_on_c, 2, 68, 0
4, 66688, Note_on_c, 2, 68, 79
4, 66748, Note_on_c, 2, 68, 0
4, 66816, Note_on_c, 2, 68, 83
4, 67068, Note_on_c, 2, 68, 0
4, 67072, Note_on_c, 2, 67, 80
4, 67132, Note_on_c, 2, 67, 0
4, 67200, Note_on_c, 2, 67, 79
4, 67324, Note_on_c, 2, 67, 0
4, 67584, Note_on_c, 2, 63, 81
4, 67836, Note_on_c, 2, 63, 0
4, 67968, Note_on_c, 2, 62, 84
4, 68092, Note_on_c, 2, 62, 0
4, 68224, Note_on_c, 2, 59, 85
4, 68284, Note_on_c, 2, 59, 0
4, 68352, Note_on_c, 2, 67, 86
4, 68924, Note_on_c, 2, 67, 0
4, 68992, Note_on_c, 2, 65, 83
4, 69052, Note_on_c, 2, 65, 0
4, 69120, Note_on_c, 2, 63, 79
4, 69180, Note_on_c, 2, 63, 0
4, 69248, Note_on_c, 2, 60, 75
4, 69308, Note_on_c, 2, 60, 0
4, 69376, Note_on_c, 2, 62, 76
4, 69436, Note_on_c, 2, 62, 0
4, 69504, Note_on_c, 2, 63, 79
4, 69564, Note_on_c, 2, 63, 0
4, 69632, Note_on_c, 2, 63, 82
4, 69692, Note_on_c, 2, 63, 0
4, 69760, Note_on_c, 2, 65, 86
4, 69820, Note_on_c, 2, 65, 0
4, 69888, Note_on_c, 2, 67, 89
4, 70268, Note_on_c, 2, 67, 0
4, 70656, Note_on_c, 2, 67, 95
4, 70908, Note_on_c, 2, 67, 0
4, 71040, Note_on_c, 2, 67, 90
4, 71292, Note_on_c, 2, 67, 0
4, 71424, Note_on_c, 2, 67, 95
4, 71936, Note_on_c, 2, 63, 89
4, 71996, Note_on_c, 2, 63, 0
4, 71996, Note_on_c, 2, 67, 0
4, 72064, Note_on_c, 2, 60, 89
4, 72124, Note_on_c, 2, 60, 0
4, 72192, Note_on_c, 2, 68, 90
4, 72316, Note_on_c, 2, 68, 0
4, 72448, Note_on_c, 2, 68, 91
4, 72508, Note_on_c, 2, 68, 0
4, 72576, Note_on_c, 2, 68, 92
4, 72700, Note_on_c, 2, 68, 0
4, 72832, Note_on_c, 2, 68, 93
4, 72892, Note_on_c, 2, 68, 0
4, 72960, Note_on_c, 2, 68, 93
4, 73696, Note_on_c, 2, 68, 0
4, 73728, Note_on_c, 2, 67, 96
4, 73984, Note_on_c, 2, 70, 89
4, 73984, Note_on_c, 2, 67, 0
4, 74044, Note_on_c, 2, 70, 0
4, 74112, Note_on_c, 2, 61, 86
4, 74492, Note_on_c, 2, 61, 0
4, 74496, Note_on_c, 2, 60, 94
4, 74748, Note_on_c, 2, 60, 0
4, 74752, Note_on_c, 2, 63, 90
4, 74812, Note_on_c, 2, 63, 0
4, 74880, Note_on_c, 2, 66, 88
4, 75132, Note_on_c, 2, 66, 0
4, 75264, Note_on_c, 2, 65, 89
4, 75516, Note_on_c, 2, 65, 0
4, 75520, Note_on_c, 2, 70, 89
4, 75580, Note_on_c, 2, 70, 0
4, 75648, Note_on_c, 2, 68, 90
4, 75900, Note_on_c, 2, 68, 0
4, 75904, Note_on_c, 2, 67, 94
4, 75964, Note_on_c, 2, 67, 0
4, 76032, Note_on_c, 2, 68, 96
4, 76284, Note_on_c, 2, 68, 0
4, 77056, Note_on_c, 2, 63, 81
4, 77116, Note_on_c, 2, 63, 0
4, 77184, Note_on_c, 2, 63, 82
4, 77244, Note_on_c, 2, 63, 0
4, 77312, Note_on_c, 2, 65, 82
4, 77372, Note_on_c, 2, 65, 0
4, 77440, Note_on_c, 2, 63, 82
4, 77500, Note_on_c, 2, 63, 0
4, 77568, Note_on_c, 2, 63, 82
4, 77820, Note_on_c, 2, 63, 0
4, 78592, Note_on_c, 2, 65, 88
4, 78652, Note_on_c, 2, 65, 0
4, 78720, Note_on_c, 2, 65, 88
4, 78780, Note_on_c, 2, 65, 0
4, 78848, Note_on_c, 2, 66, 88
4, 78908, Note_on_c, 2, 66, 0
4, 78976, Note_on_c, 2, 65, 88
4, 79036, Note_on_c, 2, 65, 0
4, 79104, Note_on_c, 2, 65, 88
4, 79356, Note_on_c, 2, 65, 0
4, 80128, Note_on_c, 2, 67, 88
4, 80188, Note_on_c, 2, 67, 0
4, 80256, Note_on_c, 2, 67, 91
4, 80316, Note_on_c, 2, 67, 0
4, 80384, Note_on_c, 2, 68, 91
4, 80444, Note_on_c, 2, 68, 0
4, 80512, Note_on_c, 2, 67, 90
4, 80572, Note_on_c, 2, 67, 0
4, 80640, Note_on_c, 2, 67, 91
4, 80764, Note_on_c, 2, 67, 0
4, 80896, Note_on_c, 2, 67, 95
4, 80956, Note_on_c, 2, 67, 0
4, 81024, Note_on_c, 2, 67, 97
4, 81084, Note_on_c, 2, 67, 0
4, 81152, Note_on_c, 2, 66, 98
4, 81212, Note_on_c, 2, 66, 0
4, 81280, Note_on_c, 2, 67, 100
4, 81340, Note_on_c, 2, 67, 0
4, 81408, Note_on_c, 2, 68, 105
4, 81980, Note_on_c, 2, 68, 0
4, 82048, Note_on_c, 2, 67, 108
4, 82108, Note_on_c, 2, 67, 0
4, 82176, Note_on_c, 2, 66, 108
4, 82300, Note_on_c, 2, 66, 0
4, 82560, Note_on_c, 2, 67, 108
4, 82684, Note_on_c, 2, 67, 0
4, 82944, Note_on_c, 2, 69, 108
4, 83068, Note_on_c, 2, 69, 0
4, 83328, Note_on_c, 2, 66, 108
4, 83452, Note_on_c, 2, 66, 0
4, 83712, Note_on_c, 2, 67, 108
4, 83964, Note_on_c, 2, 67, 0
4, 86016, Note_on_c, 2, 66, 90
4, 86780, Note_on_c, 2, 66, 0
4, 86784, Note_on_c, 2, 67, 95
4, 87036, Note_on_c, 2, 67, 0
4, 89088, Note_on_c, 2, 64, 90
4, 89852, Note_on_c, 2, 64, 0
4, 89856, Note_on_c, 2, 65, 95
4, 90108, Note_on_c, 2, 65, 0
4, 92160, Note_on_c, 2, 62, 97
4, 92924, Note_on_c, 2, 62, 0
4, 92928, Note_on_c, 2, 63, 102
4, 92988, Note_on_c, 2, 63, 0
4, 93056, Note_on_c, 2, 63, 108
4, 93116, Note_on_c, 2, 63, 0
4, 93184, Note_on_c, 2, 63, 108
4, 93244, Note_on_c, 2, 63, 0
4, 93312, Note_on_c, 2, 63, 108
4, 93372, Note_on_c, 2, 63, 0
4, 93440, Note_on_c, 2, 63, 108
4, 93500, Note_on_c, 2, 63, 0
4, 93568, Note_on_c, 2, 63, 108
4, 93628, Note_on_c, 2, 63, 0
4, 93696, Note_on_c, 2, 62, 108
4, 93756, Note_on_c, 2, 62, 0
4, 93824, Note_on_c, 2, 65, 108
4, 93884, Note_on_c, 2, 65, 0
4, 93952, Note_on_c, 2, 70, 108
4, 94012, Note_on_c, 2, 70, 0
4, 94080, Note_on_c, 2, 70, 108
4, 94204, Note_on_c, 2, 70, 0
4, 94208, Note_on_c, 2, 68, 108
4, 94268, Note_on_c, 2, 68, 0
4, 94336, Note_on_c, 2, 65, 108
4, 94396, Note_on_c, 2, 65, 0
4, 94464, Note_on_c, 2, 63, 108
4, 94524, Note_on_c, 2, 63, 0
4, 94592, Note_on_c, 2, 63, 108
4, 94652, Note_on_c, 2, 63, 0
4, 94720, Note_on_c, 2, 63, 108
4, 94780, Note_on_c, 2, 63, 0
4, 94848, Note_on_c, 2, 63, 108
4, 94908, Note_on_c, 2, 63, 0
4, 94976, Note_on_c, 2, 62, 108
4, 95036, Note_on_c, 2, 62, 0
4, 95104, Note_on_c, 2, 63, 108
4, 95164, Note_on_c, 2, 63, 0
4, 95232, Note_on_c, 2, 65, 108
4, 95356, Note_on_c, 2, 65, 0
4, 95360, Note_on_c, 2, 58, 108
4, 95420, Note_on_c, 2, 58, 0
4, 95488, Note_on_c, 2, 58, 108
4, 95548, Note_on_c, 2, 58, 0
4, 95616, Note_on_c, 2, 58, 108
4, 95740, Note_on_c, 2, 58, 0
4, 95872, Note_on_c, 2, 58, 108
4, 95932, Note_on_c, 2, 58, 0
4, 96000, Note_on_c, 2, 63, 108
4, 96060, Note_on_c, 2, 63, 0
4, 96128, Note_on_c, 2, 63, 108
4, 96188, Note_on_c, 2, 63, 0
4, 96256, Note_on_c, 2, 63, 108
4, 96316, Note_on_c, 2, 63, 0
4, 96384, Note_on_c, 2, 63, 108
4, 96444, Note_on_c, 2, 63, 0
4, 96512, Note_on_c, 2, 63, 108
4, 96572, Note_on_c, 2, 63, 0
4, 96640, Note_on_c, 2, 63, 108
4, 96700, Note_on_c, 2, 63, 0
4, 96768, Note_on_c, 2, 62, 108
4, 96892, Note_on_c, 2, 62, 0
4, 96896, Note_on_c, 2, 65, 108
4, 96956, Note_on_c, 2, 65, 0
4, 97024, Note_on_c, 2, 70, 108
4, 97084, Note_on_c, 2, 70, 0
4, 97152, Note_on_c, 2, 70, 108
4, 97276, Note_on_c, 2, 70, 0
4, 97280, Note_on_c, 2, 68, 108
4, 97340, Note_on_c, 2, 68, 0
4, 97408, Note_on_c, 2, 65, 108
4, 97468, Note_on_c, 2, 65, 0
4, 97536, Note_on_c, 2, 67, 108
4, 97596, Note_on_c, 2, 67, 0
4, 97664, Note_on_c, 2, 70, 108
4, 97724, Note_on_c, 2, 70, 0
4, 97792, Note_on_c, 2, 63, 108
4, 97852, Note_on_c, 2, 63, 0
4, 97920, Note_on_c, 2, 65, 108
4, 97980, Note_on_c, 2, 65, 0
4, 98048, Note_on_c, 2, 63, 108
4, 98108, Note_on_c, 2, 63, 0
4, 98176, Note_on_c, 2, 65, 108
4, 98236, Note_on_c, 2, 65, 0
4, 98304, Note_on_c, 2, 63, 108
4, 98364, Note_on_c, 2, 63, 0
4, 98432, Note_on_c, 2, 51, 108
4, 98492, Note_on_c, 2, 51, 0
4, 98560, Note_on_c, 2, 51, 108
4, 98620, Note_on_c, 2, 51, 0
4, 98688, Note_on_c, 2, 51, 108
4, 98940, Note_on_c, 2, 51, 0
4, 105088, Note_on_c, 2, 58, 108
4, 105148, Note_on_c, 2, 58, 0
4, 105216, Note_on_c, 2, 63, 108
4, 105468, Note_on_c, 2, 63, 0
4, 105600, Note_on_c, 2, 67, 108
4, 105852, Note_on_c, 2, 67, 0
4, 105984, Note_on_c, 2, 70, 108
4, 106556, Note_on_c, 2, 70, 0
4, 106624, Note_on_c, 2, 67, 108
4, 106684, Note_on_c, 2, 67, 0
4, 106752, Note_on_c, 2, 68, 108
4, 106812, Note_on_c, 2, 68, 0
4, 106880, Note_on_c, 2, 65, 108
4, 106940, Note_on_c, 2, 65, 0
4, 107008, Note_on_c, 2, 63, 108
4, 107068, Note_on_c, 2, 63, 0
4, 107136, Note_on_c, 2, 62, 108
4, 107196, Note_on_c, 2, 62, 0
4, 107264, Note_on_c, 2, 60, 108
4, 107324, Note_on_c, 2, 60, 0
4, 107392, Note_on_c, 2, 62, 108
4, 107452, Note_on_c, 2, 62, 0
4, 107520, Note_on_c, 2, 63, 108
4, 107772, Note_on_c, 2, 63, 0
4, 107776, Note_on_c, 2, 67, 108
4, 107836, Note_on_c, 2, 67, 0
4, 107904, Note_on_c, 2, 58, 108
4, 108028, Note_on_c, 2, 58, 0
4, 108160, Note_on_c, 2, 58, 108
4, 108220, Note_on_c, 2, 58, 0
4, 108288, Note_on_c, 2, 63, 108
4, 108540, Note_on_c, 2, 63, 0
4, 108672, Note_on_c, 2, 66, 108
4, 108924, Note_on_c, 2, 66, 0
4, 109056, Note_on_c, 2, 70, 108
4, 109820, Note_on_c, 2, 70, 0
4, 109824, Note_on_c, 2, 63, 108
4, 110076, Note_on_c, 2, 63, 0
4, 110208, Note_on_c, 2, 66, 108
4, 110460, Note_on_c, 2, 66, 0
4, 110592, Note_on_c, 2, 71, 108
4, 111356, Note_on_c, 2, 71, 0
4, 111360, Note_on_c, 2, 63, 108
4, 111612, Note_on_c, 2, 63, 0
4, 111744, Note_on_c, 2, 66, 108
4, 111996, Note_on_c, 2, 66, 0
4, 112128, Note_on_c, 2, 69, 108
4, 112892, Note_on_c, 2, 69, 0
4, 112896, Note_on_c, 2, 70, 108
4, 113148, Note_on_c, 2, 70, 0
4, 113536, Note_on_c, 2, 65, 108
4, 113596, Note_on_c, 2, 65, 0
4, 113664, Note_on_c, 2, 65, 108
4, 113788, Note_on_c, 2, 65, 0
4, 113920, Note_on_c, 2, 65, 108
4, 113980, Note_on_c, 2, 65, 0
4, 114048, Note_on_c, 2, 65, 108
4, 114172, Note_on_c, 2, 65, 0
4, 114304, Note_on_c, 2, 65, 108
4, 114364, Note_on_c, 2, 65, 0
4, 114432, Note_on_c, 2, 65, 108
4, 114556, Note_on_c, 2, 65, 0
4, 114560, Note_on_c, 2, 70, 108
4, 114620, Note_on_c, 2, 70, 0
4, 114688, Note_on_c, 2, 65, 108
4, 114748, Note_on_c, 2, 65, 0
4, 114816, Note_on_c, 2, 65, 108
4, 114876, Note_on_c, 2, 65, 0
4, 114944, Note_on_c, 2, 65, 108
4, 115004, Note_on_c, 2, 65, 0
4, 115072, Note_on_c, 2, 65, 108
4, 115132, Note_on_c, 2, 65, 0
4, 115200, Note_on_c, 2, 65, 108
4, 115260, Note_on_c, 2, 65, 0
4, 115328, Note_on_c, 2, 65, 108
4, 115388, Note_on_c, 2, 65, 0
4, 115456, Note_on_c, 2, 65, 108
4, 115516, Note_on_c, 2, 65, 0
4, 115584, Note_on_c, 2, 65, 108
4, 115644, Note_on_c, 2, 65, 0
4, 115712, Note_on_c, 2, 65, 108
4, 115772, Note_on_c, 2, 65, 0
4, 115840, Note_on_c, 2, 65, 108
4, 115900, Note_on_c, 2, 65, 0
4, 115968, Note_on_c, 2, 58, 108
4, 116220, Note_on_c, 2, 58, 0
4, 117760, Note_on_c, 2, 63, 108
4, 117820, Note_on_c, 2, 63, 0
4, 117888, Note_on_c, 2, 67, 108
4, 118012, Note_on_c, 2, 67, 0
4, 118144, Note_on_c, 2, 70, 108
4, 118204, Note_on_c, 2, 70, 0
4, 118272, Note_on_c, 2, 60, 108
4, 118396, Note_on_c, 2, 60, 0
4, 118528, Note_on_c, 2, 63, 108
4, 118588, Note_on_c, 2, 63, 0
4, 118656, Note_on_c, 2, 68, 108
4, 118780, Note_on_c, 2, 68, 0
4, 118912, Note_on_c, 2, 72, 108
4, 118972, Note_on_c, 2, 72, 0
4, 119040, Note_on_c, 2, 70, 108
4, 119164, Note_on_c, 2, 70, 0
4, 119296, Note_on_c, 2, 67, 108
4, 119356, Note_on_c, 2, 67, 0
4, 119424, Note_on_c, 2, 63, 108
4, 119548, Note_on_c, 2, 63, 0
4, 119680, Note_on_c, 2, 67, 108
4, 119740, Note_on_c, 2, 67, 0
4, 119808, Note_on_c, 2, 68, 108
4, 119868, Note_on_c, 2, 68, 0
4, 119936, Note_on_c, 2, 65, 108
4, 119996, Note_on_c, 2, 65, 0
4, 120064, Note_on_c, 2, 63, 108
4, 120124, Note_on_c, 2, 63, 0
4, 120192, Note_on_c, 2, 62, 108
4, 120252, Note_on_c, 2, 62, 0
4, 120320, Note_on_c, 2, 60, 108
4, 120380, Note_on_c, 2, 60, 0
4, 120448, Note_on_c, 2, 62, 108
4, 120508, Note_on_c, 2, 62, 0
4, 120576, Note_on_c, 2, 63, 108
4, 120828, Note_on_c, 2, 63, 0
4, 121216, Note_on_c, 2, 51, 108
4, 121256, Note_on_c, 2, 51, 0
4, 121280, Note_on_c, 2, 51, 108
4, 121320, Note_on_c, 2, 51, 0
4, 121344, Note_on_c, 2, 51, 108
4, 121916, Note_on_c, 2, 51, 0
4, 121984, Note_on_c, 2, 51, 108
4, 122024, Note_on_c, 2, 51, 0
4, 122048, Note_on_c, 2, 51, 108
4, 122088, Note_on_c, 2, 51, 0
4, 122112, Note_on_c, 2, 51, 108
4, 122684, Note_on_c, 2, 51, 0
4, 122752, Note_on_c, 2, 51, 108
4, 122792, Note_on_c, 2, 51, 0
4, 122820, Note_on_c, 2, 51, 108
4, 122860, Note_on_c, 2, 51, 0
4, 122880, Note_on_c, 2, 51, 108
4, 123068, Note_on_c, 2, 51, 0
4, 123136, Note_on_c, 2, 51, 108
4, 123176, Note_on_c, 2, 51, 0
4, 123200, Note_on_c, 2, 51, 108
4, 123240, Note_on_c, 2, 51, 0
4, 123264, Note_on_c, 2, 51, 108
4, 123452, Note_on_c, 2, 51, 0
4, 123520, Note_on_c, 2, 51, 108
4, 123560, Note_on_c, 2, 51, 0
4, 123584, Note_on_c, 2, 51, 108
4, 123624, Note_on_c, 2, 51, 0
4, 123648, Note_on_c, 2, 51, 108
4, 123836, Note_on_c, 2, 51, 0
4, 125312, Note_on_c, 2, 51, 86
4, 125372, Note_on_c, 2, 51, 0
4, 125440, Note_on_c, 2, 55, 91
4, 125500, Note_on_c, 2, 55, 0
4, 125568, Note_on_c, 2, 58, 93
4, 125628, Note_on_c, 2, 58, 0
4, 125696, Note_on_c, 2, 63, 96
4, 125756, Note_on_c, 2, 63, 0
4, 125824, Note_on_c, 2, 67, 99
4, 125884, Note_on_c, 2, 67, 0
4, 125952, Note_on_c, 2, 70, 105
4, 126716, Note_on_c, 2, 70, 0
4, 126720, Note_on_c, 2, 69, 108
4, 127484, Note_on_c, 2, 69, 0
4, 127488, Note_on_c, 2, 68, 108
4, 128252, Note_on_c, 2, 68, 0
4, 128256, Note_on_c, 2, 66, 108
4, 128508, Note_on_c, 2, 66, 0
4, 129024, Note_on_c, 2, 64, 108
4, 129276, Note_on_c, 2, 64, 0
4, 129792, Note_on_c, 2, 63, 108
4, 130044, Note_on_c, 2, 63, 0
4, 130560, Note_on_c, 2, 62, 108
4, 132092, Note_on_c, 2, 62, 0
4, 132736, Note_on_c, 2, 58, 108
4, 132796, Note_on_c, 2, 58, 0
4, 132864, Note_on_c, 2, 63, 108
4, 132924, Note_on_c, 2, 63, 0
4, 132992, Note_on_c, 2, 63, 108
4, 133052, Note_on_c, 2, 63, 0
4, 133120, Note_on_c, 2, 63, 108
4, 133180, Note_on_c, 2, 63, 0
4, 133248, Note_on_c, 2, 63, 108
4, 133308, Note_on_c, 2, 63, 0
4, 133376, Note_on_c, 2, 63, 108
4, 133436, Note_on_c, 2, 63, 0
4, 133504, Note_on_c, 2, 63, 108
4, 133564, Note_on_c, 2, 63, 0
4, 133632, Note_on_c, 2, 62, 108
4, 133692, Note_on_c, 2, 62, 0
4, 133760, Note_on_c, 2, 65, 108
4, 133820, Note_on_c, 2, 65, 0
4, 133888, Note_on_c, 2, 70, 108
4, 133948, Note_on_c, 2, 70, 0
4, 134016, Note_on_c, 2, 70, 108
4, 134140, Note_on_c, 2, 70, 0
4, 134144, Note_on_c, 2, 68, 108
4, 134204, Note_on_c, 2, 68, 0
4, 134272, Note_on_c, 2, 65, 108
4, 134332, Note_on_c, 2, 65, 0
4, 134400, Note_on_c, 2, 63, 108
4, 134460, Note_on_c, 2, 63, 0
4, 134528, Note_on_c, 2, 63, 108
4, 134588, Note_on_c, 2, 63, 0
4, 134656, Note_on_c, 2, 63, 108
4, 134716, Note_on_c, 2, 63, 0
4, 134784, Note_on_c, 2, 63, 108
4, 134844, Note_on_c, 2, 63, 0
4, 134912, Note_on_c, 2, 62, 108
4, 134972, Note_on_c, 2, 62, 0
4, 135040, Note_on_c, 2, 63, 108
4, 135100, Note_on_c, 2, 63, 0
4, 135168, Note_on_c, 2, 65, 108
4, 135292, Note_on_c, 2, 65, 0
4, 135296, Note_on_c, 2, 58, 108
4, 135356, Note_on_c, 2, 58, 0
4, 135424, Note_on_c, 2, 58, 108
4, 135484, Note_on_c, 2, 58, 0
4, 135552, Note_on_c, 2, 58, 108
4, 135676, Note_on_c, 2, 58, 0
4, 135808, Note_on_c, 2, 58, 108
4, 135868, Note_on_c, 2, 58, 0
4, 135936, Note_on_c, 2, 63, 108
4, 135996, Note_on_c, 2, 63, 0
4, 136064, Note_on_c, 2, 63, 108
4, 136124, Note_on_c, 2, 63, 0
4, 136192, Note_on_c, 2, 63, 108
4, 136252, Note_on_c, 2, 63, 0
4, 136320, Note_on_c, 2, 63, 108
4, 136380, Note_on_c, 2, 63, 0
4, 136448, Note_on_c, 2, 63, 108
4, 136508, Note_on_c, 2, 63, 0
4, 136576, Note_on_c, 2, 63, 108
4, 136636, Note_on_c, 2, 63, 0
4, 136704, Note_on_c, 2, 62, 108
4, 136828, Note_on_c, 2, 62, 0
4, 136832, Note_on_c, 2, 65, 108
4, 136892, Note_on_c, 2, 65, 0
4, 136960, Note_on_c, 2, 70, 108
4, 137020, Note_on_c, 2, 70, 0
4, 137088, Note_on_c, 2, 70, 108
4, 137212, Note_on_c, 2, 70, 0
4, 137216, Note_on_c, 2, 68, 108
4, 137276, Note_on_c, 2, 68, 0
4, 137344, Note_on_c, 2, 65, 108
4, 137404, Note_on_c, 2, 65, 0
4, 137472, Note_on_c, 2, 67, 108
4, 137532, Note_on_c, 2, 67, 0
4, 137600, Note_on_c, 2, 70, 108
4, 137660, Note_on_c, 2, 70, 0
4, 137728, Note_on_c, 2, 63, 108
4, 137788, Note_on_c, 2, 63, 0
4, 137856, Note_on_c, 2, 65, 108
4, 137916, Note_on_c, 2, 65, 0
4, 137984, Note_on_c, 2, 63, 108
4, 138044, Note_on_c, 2, 63, 0
4, 138112, Note_on_c, 2, 65, 108
4, 138172, Note_on_c, 2, 65, 0
4, 138240, Note_on_c, 2, 63, 108
4, 138492, Note_on_c, 2, 63, 0
4, 147328, Note_on_c, 2, 63, 108
4, 147388, Note_on_c, 2, 63, 0
4, 147456, Note_on_c, 2, 63, 108
4, 147516, Note_on_c, 2, 63, 0
4, 147584, Note_on_c, 2, 63, 108
4, 147644, Note_on_c, 2, 63, 0
4, 147712, Note_on_c, 2, 63, 108
4, 147772, Note_on_c, 2, 63, 0
4, 147840, Note_on_c, 2, 63, 108
4, 147900, Note_on_c, 2, 63, 0
4, 147968, Note_on_c, 2, 63, 108
4, 148028, Note_on_c, 2, 63, 0
4, 148096, Note_on_c, 2, 63, 108
4, 148156, Note_on_c, 2, 63, 0
4, 148224, Note_on_c, 2, 62, 108
4, 148284, Note_on_c, 2, 62, 0
4, 148352, Note_on_c, 2, 65, 108
4, 148412, Note_on_c, 2, 65, 0
4, 148480, Note_on_c, 2, 70, 108
4, 148540, Note_on_c, 2, 70, 0
4, 148608, Note_on_c, 2, 70, 108
4, 148668, Note_on_c, 2, 70, 0
4, 148736, Note_on_c, 2, 68, 108
4, 148796, Note_on_c, 2, 68, 0
4, 148864, Note_on_c, 2, 65, 108
4, 148924, Note_on_c, 2, 65, 0
4, 148992, Note_on_c, 2, 67, 108
4, 149052, Note_on_c, 2, 67, 0
4, 149120, Note_on_c, 2, 70, 108
4, 149180, Note_on_c, 2, 70, 0
4, 149248, Note_on_c, 2, 63, 108
4, 149308, Note_on_c, 2, 63, 0
4, 149376, Note_on_c, 2, 65, 108
4, 149436, Note_on_c, 2, 65, 0
4, 149504, Note_on_c, 2, 63, 108
4, 149564, Note_on_c, 2, 63, 0
4, 149632, Note_on_c, 2, 65, 108
4, 149692, Note_on_c, 2, 65, 0
4, 149760, Note_on_c, 2, 63, 108
4, 150332, Note_on_c, 2, 63, 0
4, 150400, Note_on_c, 2, 51, 108
4, 150460, Note_on_c, 2, 51, 0
4, 150528, Note_on_c, 2, 63, 108
4, 150588, Note_on_c, 2, 63, 0
4, 150656, Note_on_c, 2, 63, 108
4, 150716, Note_on_c, 2, 63, 0
4, 150784, Note_on_c, 2, 63, 108
4, 150844, Note_on_c, 2, 63, 0
4, 150912, Note_on_c, 2, 63, 108
4, 150972, Note_on_c, 2, 63, 0
4, 151040, Note_on_c, 2, 63, 108
4, 151100, Note_on_c, 2, 63, 0
4, 151168, Note_on_c, 2, 63, 108
4, 151228, Note_on_c, 2, 63, 0
4, 151296, Note_on_c, 2, 62, 108
4, 151356, Note_on_c, 2, 62, 0
4, 151424, Note_on_c, 2, 65, 108
4, 151484, Note_on_c, 2, 65, 0
4, 151552, Note_on_c, 2, 70, 108
4, 151612, Note_on_c, 2, 70, 0
4, 151680, Note_on_c, 2, 70, 108
4, 151740, Note_on_c, 2, 70, 0
4, 151808, Note_on_c, 2, 68, 108
4, 151868, Note_on_c, 2, 68, 0
4, 151936, Note_on_c, 2, 65, 108
4, 151996, Note_on_c, 2, 65, 0
4, 152064, Note_on_c, 2, 67, 108
4, 152124, Note_on_c, 2, 67, 0
4, 152192, Note_on_c, 2, 70, 108
4, 152252, Note_on_c, 2, 70, 0
4, 152320, Note_on_c, 2, 63, 108
4, 152380, Note_on_c, 2, 63, 0
4, 152448, Note_on_c, 2, 65, 108
4, 152508, Note_on_c, 2, 65, 0
4, 152576, Note_on_c, 2, 63, 108
4, 152636, Note_on_c, 2, 63, 0
4, 152704, Note_on_c, 2, 65, 108
4, 152764, Note_on_c, 2, 65, 0
4, 152832, Note_on_c, 2, 63, 108
4, 153084, Note_on_c, 2, 63, 0
4, 154240, Note_on_c, 2, 58, 108
4, 154300, Note_on_c, 2, 58, 0
4, 154368, Note_on_c, 2, 70, 108
4, 154428, Note_on_c, 2, 70, 0
4, 154496, Note_on_c, 2, 67, 108
4, 154556, Note_on_c, 2, 67, 0
4, 154624, Note_on_c, 2, 63, 108
4, 154684, Note_on_c, 2, 63, 0
4, 154752, Note_on_c, 2, 58, 108
4, 154812, Note_on_c, 2, 58, 0
4, 154880, Note_on_c, 2, 55, 108
4, 154940, Note_on_c, 2, 55, 0
4, 155008, Note_on_c, 2, 51, 108
4, 155068, Note_on_c, 2, 51, 0
4, 155136, Note_on_c, 2, 46, 80
4, 155388, Note_on_c, 2, 46, 0
4, 155776, Note_on_c, 2, 58, 108
4, 155836, Note_on_c, 2, 58, 0
4, 155904, Note_on_c, 2, 70, 108
4, 155964, Note_on_c, 2, 70, 0
4, 156032, Note_on_c, 2, 67, 108
4, 156092, Note_on_c, 2, 67, 0
4, 156160, Note_on_c, 2, 63, 108
4, 156220, Note_on_c, 2, 63, 0
4, 156288, Note_on_c, 2, 58, 108
4, 156348, Note_on_c, 2, 58, 0
4, 156416, Note_on_c, 2, 55, 108
4, 156476, Note_on_c, 2, 55, 0
4, 156544, Note_on_c, 2, 51, 108
4, 156604, Note_on_c, 2, 51, 0
4, 156672, Note_on_c, 2, 46, 80
4, 156924, Note_on_c, 2, 46, 0
4, 157312, Note_on_c, 2, 58, 108
4, 157372, Note_on_c, 2, 58, 0
4, 157440, Note_on_c, 2, 63, 108
4, 157500, Note_on_c, 2, 63, 0
4, 157568, Note_on_c, 2, 70, 108
4, 157628, Note_on_c, 2, 70, 0
4, 157696, Note_on_c, 2, 67, 108
4, 157756, Note_on_c, 2, 67, 0
4, 157824, Note_on_c, 2, 63, 108
4, 157884, Note_on_c, 2, 63, 0
4, 157952, Note_on_c, 2, 58, 108
4, 158012, Note_on_c, 2, 58, 0
4, 158080, Note_on_c, 2, 55, 108
4, 158140, Note_on_c, 2, 55, 0
4, 158208, Note_on_c, 2, 51, 108
4, 158460, Note_on_c, 2, 51, 0
4, 158592, Note_on_c, 2, 51, 108
4, 158844, Note_on_c, 2, 51, 0
4, 158976, Note_on_c, 2, 51, 108
4, 159228, Note_on_c, 2, 51, 0
4, 159228, End_track
5, 0, Start_track
5, 0, MIDI_port, 0
5, 0, Title_t, "Violin 1"
5, 0, Program_c, 3, 48
5, 0, Control_c, 3, 7, 127
5, 0, Control_c, 3, 10, 20
5, 0, Control_c, 3, 0, 0
5, 0, Control_c, 3, 32, 0
5, 15, Control_c, 3, 121, 0
5, 33, Control_c, 3, 7, 127
5, 50, Control_c, 3, 91, 110
5, 70, Control_c, 3, 93, 20
5, 384, Program_c, 3, 48
5, 768, Note_on_c, 3, 63, 62
5, 1020, Note_on_c, 3, 63, 0
5, 1152, Note_on_c, 3, 63, 62
5, 1404, Note_on_c, 3, 63, 0
5, 1536, Note_on_c, 3, 62, 62
5, 1788, Note_on_c, 3, 62, 0
5, 1920, Note_on_c, 3, 65, 62
5, 2044, Note_on_c, 3, 65, 0
5, 2304, Note_on_c, 3, 63, 62
5, 2556, Note_on_c, 3, 63, 0
5, 2688, Note_on_c, 3, 63, 62
5, 2940, Note_on_c, 3, 63, 0
5, 3072, Note_on_c, 3, 62, 62
5, 3324, Note_on_c, 3, 62, 0
5, 3840, Note_on_c, 3, 63, 62
5, 4092, Note_on_c, 3, 63, 0
5, 4224, Note_on_c, 3, 63, 62
5, 4476, Note_on_c, 3, 63, 0
5, 4608, Note_on_c, 3, 62, 62
5, 4860, Note_on_c, 3, 62, 0
5, 4992, Note_on_c, 3, 65, 62
5, 5244, Note_on_c, 3, 65, 0
5, 5376, Note_on_c, 3, 63, 62
5, 5628, Note_on_c, 3, 63, 0
5, 5760, Note_on_c, 3, 62, 62
5, 5820, Note_on_c, 3, 62, 0
5, 5888, Note_on_c, 3, 60, 62
5, 5948, Note_on_c, 3, 60, 0
5, 6016, Note_on_c, 3, 62, 62
5, 6076, Note_on_c, 3, 62, 0
5, 6144, Note_on_c, 3, 63, 62
5, 6204, Note_on_c, 3, 63, 0
5, 6272, Note_on_c, 3, 63, 62
5, 6332, Note_on_c, 3, 63, 0
5, 6400, Note_on_c, 3, 63, 62
5, 6460, Note_on_c, 3, 63, 0
5, 6528, Note_on_c, 3, 63, 62
5, 6652, Note_on_c, 3, 63, 0
5, 6784, Note_on_c, 3, 70, 62
5, 6844, Note_on_c, 3, 70, 0
5, 6912, Note_on_c, 3, 75, 92
5, 6972, Note_on_c, 3, 75, 0
5, 7040, Note_on_c, 3, 75, 92
5, 7100, Note_on_c, 3, 75, 0
5, 7168, Note_on_c, 3, 75, 92
5, 7228, Note_on_c, 3, 75, 0
5, 7296, Note_on_c, 3, 75, 92
5, 7356, Note_on_c, 3, 75, 0
5, 7424, Note_on_c, 3, 75, 92
5, 7484, Note_on_c, 3, 75, 0
5, 7552, Note_on_c, 3, 75, 92
5, 7612, Note_on_c, 3, 75, 0
5, 7680, Note_on_c, 3, 74, 92
5, 7804, Note_on_c, 3, 74, 0
5, 7808, Note_on_c, 3, 77, 92
5, 7932, Note_on_c, 3, 77, 0
5, 7936, Note_on_c, 3, 82, 92
5, 7996, Note_on_c, 3, 82, 0
5, 8064, Note_on_c, 3, 82, 92
5, 8188, Note_on_c, 3, 82, 0
5, 8192, Note_on_c, 3, 80, 92
5, 8316, Note_on_c, 3, 80, 0
5, 8320, Note_on_c, 3, 77, 92
5, 8380, Note_on_c, 3, 77, 0
5, 8448, Note_on_c, 3, 75, 92
5, 8508, Note_on_c, 3, 75, 0
5, 8576, Note_on_c, 3, 75, 92
5, 8636, Note_on_c, 3, 75, 0
5, 8704, Note_on_c, 3, 75, 92
5, 8764, Note_on_c, 3, 75, 0
5, 8832, Note_on_c, 3, 75, 92
5, 8892, Note_on_c, 3, 75, 0
5, 8960, Note_on_c, 3, 74, 92
5, 9020, Note_on_c, 3, 74, 0
5, 9088, Note_on_c, 3, 75, 92
5, 9148, Note_on_c, 3, 75, 0
5, 9216, Note_on_c, 3, 77, 92
5, 9340, Note_on_c, 3, 77, 0
5, 9344, Note_on_c, 3, 70, 92
5, 9404, Note_on_c, 3, 70, 0
5, 9472, Note_on_c, 3, 70, 92
5, 9532, Note_on_c, 3, 70, 0
5, 9600, Note_on_c, 3, 70, 92
5, 9852, Note_on_c, 3, 70, 0
5, 9856, Note_on_c, 3, 70, 92
5, 9916, Note_on_c, 3, 70, 0
5, 9984, Note_on_c, 3, 75, 92
5, 10044, Note_on_c, 3, 75, 0
5, 10112, Note_on_c, 3, 75, 92
5, 10172, Note_on_c, 3, 75, 0
5, 10240, Note_on_c, 3, 75, 92
5, 10300, Note_on_c, 3, 75, 0
5, 10368, Note_on_c, 3, 75, 92
5, 10428, Note_on_c, 3, 75, 0
5, 10496, Note_on_c, 3, 75, 92
5, 10556, Note_on_c, 3, 75, 0
5, 10624, Note_on_c, 3, 75, 92
5, 10684, Note_on_c, 3, 75, 0
5, 10752, Note_on_c, 3, 74, 92
5, 10876, Note_on_c, 3, 74, 0
5, 10880, Note_on_c, 3, 77, 92
5, 10940, Note_on_c, 3, 77, 0
5, 11008, Note_on_c, 3, 82, 92
5, 11068, Note_on_c, 3, 82, 0
5, 11136, Note_on_c, 3, 82, 92
5, 11260, Note_on_c, 3, 82, 0
5, 11264, Note_on_c, 3, 80, 92
5, 11324, Note_on_c, 3, 80, 0
5, 11392, Note_on_c, 3, 77, 92
5, 11452, Note_on_c, 3, 77, 0
5, 11520, Note_on_c, 3, 79, 92
5, 11644, Note_on_c, 3, 79, 0
5, 11648, Note_on_c, 3, 82, 92
5, 11708, Note_on_c, 3, 82, 0
5, 11776, Note_on_c, 3, 75, 92
5, 11836, Note_on_c, 3, 75, 0
5, 11904, Note_on_c, 3, 77, 92
5, 11964, Note_on_c, 3, 77, 0
5, 12032, Note_on_c, 3, 75, 92
5, 12092, Note_on_c, 3, 75, 0
5, 12160, Note_on_c, 3, 77, 92
5, 12220, Note_on_c, 3, 77, 0
5, 12288, Note_on_c, 3, 75, 92
5, 12348, Note_on_c, 3, 75, 0
5, 12416, Note_on_c, 3, 63, 92
5, 12416, Note_on_c, 3, 55, 92
5, 12476, Note_on_c, 3, 55, 0
5, 12476, Note_on_c, 3, 63, 0
5, 12544, Note_on_c, 3, 63, 92
5, 12544, Note_on_c, 3, 55, 92
5, 12604, Note_on_c, 3, 55, 0
5, 12604, Note_on_c, 3, 63, 0
5, 12672, Note_on_c, 3, 63, 92
5, 12672, Note_on_c, 3, 55, 92
5, 12796, Note_on_c, 3, 55, 0
5, 12796, Note_on_c, 3, 63, 0
5, 13184, Note_on_c, 3, 63, 62
5, 13244, Note_on_c, 3, 63, 0
5, 13312, Note_on_c, 3, 63, 62
5, 13372, Note_on_c, 3, 63, 0
5, 13440, Note_on_c, 3, 63, 62
5, 13500, Note_on_c, 3, 63, 0
5, 13568, Note_on_c, 3, 63, 62
5, 13628, Note_on_c, 3, 63, 0
5, 13696, Note_on_c, 3, 63, 62
5, 13756, Note_on_c, 3, 63, 0
5, 13952, Note_on_c, 3, 63, 62
5, 14012, Note_on_c, 3, 63, 0
5, 14080, Note_on_c, 3, 63, 62
5, 14140, Note_on_c, 3, 63, 0
5, 14208, Note_on_c, 3, 63, 62
5, 14268, Note_on_c, 3, 63, 0
5, 14336, Note_on_c, 3, 63, 62
5, 14396, Note_on_c, 3, 63, 0
5, 14464, Note_on_c, 3, 63, 62
5, 14524, Note_on_c, 3, 63, 0
5, 14720, Note_on_c, 3, 60, 62
5, 14780, Note_on_c, 3, 60, 0
5, 14848, Note_on_c, 3, 60, 62
5, 14908, Note_on_c, 3, 60, 0
5, 15104, Note_on_c, 3, 58, 62
5, 15164, Note_on_c, 3, 58, 0
5, 15232, Note_on_c, 3, 58, 62
5, 15292, Note_on_c, 3, 58, 0
5, 15488, Note_on_c, 3, 58, 62
5, 15548, Note_on_c, 3, 58, 0
5, 15616, Note_on_c, 3, 58, 62
5, 15676, Note_on_c, 3, 58, 0
5, 15744, Note_on_c, 3, 58, 62
5, 15804, Note_on_c, 3, 58, 0
5, 15872, Note_on_c, 3, 58, 62
5, 15932, Note_on_c, 3, 58, 0
5, 16000, Note_on_c, 3, 58, 62
5, 16060, Note_on_c, 3, 58, 0
5, 16256, Note_on_c, 3, 63, 62
5, 16316, Note_on_c, 3, 63, 0
5, 16384, Note_on_c, 3, 63, 62
5, 16444, Note_on_c, 3, 63, 0
5, 16512, Note_on_c, 3, 63, 62
5, 16572, Note_on_c, 3, 63, 0
5, 16640, Note_on_c, 3, 63, 62
5, 16700, Note_on_c, 3, 63, 0
5, 16768, Note_on_c, 3, 63, 62
5, 16828, Note_on_c, 3, 63, 0
5, 17024, Note_on_c, 3, 63, 62
5, 17084, Note_on_c, 3, 63, 0
5, 17152, Note_on_c, 3, 63, 62
5, 17212, Note_on_c, 3, 63, 0
5, 17280, Note_on_c, 3, 63, 62
5, 17340, Note_on_c, 3, 63, 0
5, 17408, Note_on_c, 3, 63, 62
5, 17468, Note_on_c, 3, 63, 0
5, 17536, Note_on_c, 3, 63, 62
5, 17596, Note_on_c, 3, 63, 0
5, 17792, Note_on_c, 3, 62, 62
5, 17852, Note_on_c, 3, 62, 0
5, 17920, Note_on_c, 3, 62, 62
5, 17980, Note_on_c, 3, 62, 0
5, 18048, Note_on_c, 3, 62, 62
5, 18108, Note_on_c, 3, 62, 0
5, 18176, Note_on_c, 3, 63, 62
5, 18236, Note_on_c, 3, 63, 0
5, 18304, Note_on_c, 3, 65, 62
5, 18364, Note_on_c, 3, 65, 0
5, 18432, Note_on_c, 3, 63, 62
5, 18556, Note_on_c, 3, 63, 0
5, 18688, Note_on_c, 3, 79, 62
5, 18812, Note_on_c, 3, 79, 0
5, 18816, Note_on_c, 3, 77, 62
5, 19068, Note_on_c, 3, 77, 0
5, 19072, Note_on_c, 3, 75, 62
5, 19196, Note_on_c, 3, 75, 0
5, 19200, Note_on_c, 3, 74, 62
5, 19452, Note_on_c, 3, 74, 0
5, 19456, Note_on_c, 3, 75, 62
5, 19580, Note_on_c, 3, 75, 0
5, 19584, Note_on_c, 3, 77, 62
5, 19836, Note_on_c, 3, 77, 0
5, 19840, Note_on_c, 3, 79, 62
5, 19964, Note_on_c, 3, 79, 0
5, 19968, Note_on_c, 3, 75, 62
5, 20220, Note_on_c, 3, 75, 0
5, 20224, Note_on_c, 3, 77, 62
5, 20348, Note_on_c, 3, 77, 0
5, 20352, Note_on_c, 3, 75, 62
5, 20604, Note_on_c, 3, 75, 0
5, 20608, Note_on_c, 3, 74, 62
5, 20732, Note_on_c, 3, 74, 0
5, 20736, Note_on_c, 3, 72, 62
5, 20988, Note_on_c, 3, 72, 0
5, 20992, Note_on_c, 3, 74, 62
5, 21116, Note_on_c, 3, 74, 0
5, 21120, Note_on_c, 3, 75, 62
5, 21372, Note_on_c, 3, 75, 0
5, 21376, Note_on_c, 3, 77, 62
5, 21500, Note_on_c, 3, 77, 0
5, 21504, Note_on_c, 3, 74, 62
5, 21756, Note_on_c, 3, 74, 0
5, 22272, Note_on_c, 3, 70, 62
5, 23036, Note_on_c, 3, 70, 0
5, 23040, Note_on_c, 3, 69, 62
5, 23164, Note_on_c, 3, 69, 0
5, 23296, Note_on_c, 3, 77, 62
5, 23356, Note_on_c, 3, 77, 0
5, 23424, Note_on_c, 3, 77, 62
5, 23484, Note_on_c, 3, 77, 0
5, 23552, Note_on_c, 3, 79, 62
5, 23612, Note_on_c, 3, 79, 0
5, 23680, Note_on_c, 3, 81, 62
5, 23740, Note_on_c, 3, 81, 0
5, 23808, Note_on_c, 3, 82, 62
5, 23932, Note_on_c, 3, 82, 0
5, 24064, Note_on_c, 3, 79, 62
5, 24124, Note_on_c, 3, 79, 0
5, 24192, Note_on_c, 3, 74, 62
5, 24316, Note_on_c, 3, 74, 0
5, 24448, Note_on_c, 3, 76, 62
5, 24508, Note_on_c, 3, 76, 0
5, 24576, Note_on_c, 3, 77, 62
5, 24700, Note_on_c, 3, 77, 0
5, 24832, Note_on_c, 3, 60, 62
5, 24892, Note_on_c, 3, 60, 0
5, 25152, Note_on_c, 3, 60, 62
5, 25212, Note_on_c, 3, 60, 0
5, 25344, Note_on_c, 3, 60, 62
5, 25468, Note_on_c, 3, 60, 0
5, 25600, Note_on_c, 3, 60, 62
5, 25660, Note_on_c, 3, 60, 0
5, 25728, Note_on_c, 3, 60, 62
5, 25852, Note_on_c, 3, 60, 0
5, 25984, Note_on_c, 3, 60, 62
5, 26044, Note_on_c, 3, 60, 0
5, 26112, Note_on_c, 3, 60, 62
5, 26236, Note_on_c, 3, 60, 0
5, 26368, Note_on_c, 3, 60, 62
5, 26428, Note_on_c, 3, 60, 0
5, 26496, Note_on_c, 3, 60, 62
5, 26620, Note_on_c, 3, 60, 0
5, 26752, Note_on_c, 3, 60, 62
5, 26812, Note_on_c, 3, 60, 0
5, 26880, Note_on_c, 3, 60, 62
5, 27004, Note_on_c, 3, 60, 0
5, 27136, Note_on_c, 3, 60, 62
5, 27196, Note_on_c, 3, 60, 0
5, 27264, Note_on_c, 3, 60, 62
5, 27388, Note_on_c, 3, 60, 0
5, 27520, Note_on_c, 3, 60, 62
5, 27580, Note_on_c, 3, 60, 0
5, 27648, Note_on_c, 3, 65, 92
5, 27708, Note_on_c, 3, 65, 0
5, 27776, Note_on_c, 3, 67, 92
5, 27836, Note_on_c, 3, 67, 0
5, 27904, Note_on_c, 3, 65, 92
5, 27964, Note_on_c, 3, 65, 0
5, 28032, Note_on_c, 3, 63, 92
5, 28092, Note_on_c, 3, 63, 0
5, 28160, Note_on_c, 3, 65, 92
5, 28220, Note_on_c, 3, 65, 0
5, 28288, Note_on_c, 3, 63, 92
5, 28348, Note_on_c, 3, 63, 0
5, 28416, Note_on_c, 3, 62, 92
5, 28476, Note_on_c, 3, 62, 0
5, 28544, Note_on_c, 3, 63, 92
5, 28604, Note_on_c, 3, 63, 0
5, 28672, Note_on_c, 3, 62, 92
5, 28732, Note_on_c, 3, 62, 0
5, 28800, Note_on_c, 3, 60, 92
5, 28860, Note_on_c, 3, 60, 0
5, 28928, Note_on_c, 3, 62, 92
5, 28988, Note_on_c, 3, 62, 0
5, 29056, Note_on_c, 3, 60, 92
5, 29116, Note_on_c, 3, 60, 0
5, 29184, Note_on_c, 3, 58, 62
5, 29564, Note_on_c, 3, 58, 0
5, 29568, Note_on_c, 3, 65, 62
5, 29948, Note_on_c, 3, 65, 0
5, 29952, Note_on_c, 3, 67, 62
5, 30716, Note_on_c, 3, 67, 0
5, 30720, Note_on_c, 3, 65, 62
5, 32252, Note_on_c, 3, 65, 0
5, 32256, Note_on_c, 3, 65, 62
5, 32508, Note_on_c, 3, 65, 0
5, 32512, Note_on_c, 3, 77, 62
5, 32636, Note_on_c, 3, 77, 0
5, 32640, Note_on_c, 3, 74, 62
5, 32892, Note_on_c, 3, 74, 0
5, 32896, Note_on_c, 3, 82, 62
5, 33020, Note_on_c, 3, 82, 0
5, 33024, Note_on_c, 3, 79, 62
5, 33276, Note_on_c, 3, 79, 0
5, 33280, Note_on_c, 3, 75, 62
5, 33404, Note_on_c, 3, 75, 0
5, 33408, Note_on_c, 3, 70, 62
5, 33660, Note_on_c, 3, 70, 0
5, 33664, Note_on_c, 3, 82, 62
5, 33788, Note_on_c, 3, 82, 0
5, 33792, Note_on_c, 3, 77, 62
5, 34044, Note_on_c, 3, 77, 0
5, 34048, Note_on_c, 3, 74, 62
5, 34172, Note_on_c, 3, 74, 0
5, 34176, Note_on_c, 3, 70, 62
5, 34428, Note_on_c, 3, 70, 0
5, 34432, Note_on_c, 3, 82, 62
5, 34556, Note_on_c, 3, 82, 0
5, 34560, Note_on_c, 3, 82, 62
5, 34684, Note_on_c, 3, 82, 0
5, 34688, Note_on_c, 3, 81, 62
5, 34812, Note_on_c, 3, 81, 0
5, 34816, Note_on_c, 3, 79, 62
5, 34940, Note_on_c, 3, 79, 0
5, 34944, Note_on_c, 3, 77, 62
5, 35068, Note_on_c, 3, 77, 0
5, 35072, Note_on_c, 3, 79, 62
5, 35196, Note_on_c, 3, 79, 0
5, 35200, Note_on_c, 3, 81, 62
5, 35324, Note_on_c, 3, 81, 0
5, 35328, Note_on_c, 3, 82, 62
5, 35452, Note_on_c, 3, 82, 0
5, 35712, Note_on_c, 3, 74, 92
5, 35712, Note_on_c, 3, 65, 92
5, 35836, Note_on_c, 3, 65, 0
5, 35836, Note_on_c, 3, 74, 0
5, 36096, Note_on_c, 3, 75, 92
5, 36096, Note_on_c, 3, 67, 92
5, 36220, Note_on_c, 3, 67, 0
5, 36220, Note_on_c, 3, 75, 0
5, 36480, Note_on_c, 3, 77, 92
5, 36480, Note_on_c, 3, 70, 92
5, 36604, Note_on_c, 3, 70, 0
5, 36604, Note_on_c, 3, 77, 0
5, 36864, Note_on_c, 3, 79, 92
5, 36864, Note_on_c, 3, 70, 92
5, 36864, Note_on_c, 3, 63, 92
5, 37116, Note_on_c, 3, 63, 0
5, 37116, Note_on_c, 3, 70, 0
5, 37116, Note_on_c, 3, 79, 0
5, 37760, Note_on_c, 3, 67, 62
5, 37820, Note_on_c, 3, 67, 0
5, 37888, Note_on_c, 3, 67, 62
5, 37948, Note_on_c, 3, 67, 0
5, 38016, Note_on_c, 3, 67, 62
5, 38140, Note_on_c, 3, 67, 0
5, 38144, Note_on_c, 3, 69, 62
5, 38268, Note_on_c, 3, 69, 0
5, 38272, Note_on_c, 3, 70, 62
5, 38396, Note_on_c, 3, 70, 0
5, 38400, Note_on_c, 3, 70, 62
5, 38972, Note_on_c, 3, 70, 0
5, 39040, Note_on_c, 3, 75, 62
5, 39100, Note_on_c, 3, 75, 0
5, 39296, Note_on_c, 3, 74, 62
5, 39356, Note_on_c, 3, 74, 0
5, 39424, Note_on_c, 3, 74, 62
5, 39484, Note_on_c, 3, 74, 0
5, 39680, Note_on_c, 3, 72, 62
5, 39740, Note_on_c, 3, 72, 0
5, 39808, Note_on_c, 3, 72, 62
5, 39868, Note_on_c, 3, 72, 0
5, 39936, Note_on_c, 3, 70, 92
5, 39996, Note_on_c, 3, 70, 0
5, 40320, Note_on_c, 3, 74, 92
5, 40320, Note_on_c, 3, 65, 92
5, 40444, Note_on_c, 3, 65, 0
5, 40444, Note_on_c, 3, 74, 0
5, 40704, Note_on_c, 3, 75, 92
5, 40704, Note_on_c, 3, 67, 92
5, 40828, Note_on_c, 3, 67, 0
5, 40828, Note_on_c, 3, 75, 0
5, 41088, Note_on_c, 3, 77, 92
5, 41088, Note_on_c, 3, 70, 92
5, 41212, Note_on_c, 3, 70, 0
5, 41212, Note_on_c, 3, 77, 0
5, 41472, Note_on_c, 3, 79, 92
5, 41472, Note_on_c, 3, 70, 92
5, 41472, Note_on_c, 3, 63, 92
5, 41724, Note_on_c, 3, 63, 0
5, 41724, Note_on_c, 3, 70, 0
5, 41724, Note_on_c, 3, 79, 0
5, 42368, Note_on_c, 3, 67, 62
5, 42396, Note_on_c, 3, 67, 0
5, 42496, Note_on_c, 3, 67, 62
5, 42524, Note_on_c, 3, 67, 0
5, 42624, Note_on_c, 3, 67, 62
5, 42748, Note_on_c, 3, 67, 0
5, 42752, Note_on_c, 3, 68, 62
5, 42876, Note_on_c, 3, 68, 0
5, 42880, Note_on_c, 3, 70, 62
5, 42908, Note_on_c, 3, 70, 0
5, 43008, Note_on_c, 3, 70, 62
5, 43036, Note_on_c, 3, 70, 0
5, 43136, Note_on_c, 3, 62, 62
5, 43164, Note_on_c, 3, 62, 0
5, 43264, Note_on_c, 3, 62, 62
5, 43292, Note_on_c, 3, 62, 0
5, 43392, Note_on_c, 3, 62, 62
5, 43420, Note_on_c, 3, 62, 0
5, 43776, Note_on_c, 3, 62, 62
5, 43836, Note_on_c, 3, 62, 0
5, 43904, Note_on_c, 3, 62, 62
5, 43964, Note_on_c, 3, 62, 0
5, 44032, Note_on_c, 3, 62, 62
5, 44092, Note_on_c, 3, 62, 0
5, 44160, Note_on_c, 3, 62, 62
5, 44220, Note_on_c, 3, 62, 0
5, 44544, Note_on_c, 3, 74, 62
5, 44668, Note_on_c, 3, 74, 0
5, 44672, Note_on_c, 3, 75, 62
5, 44796, Note_on_c, 3, 75, 0
5, 44800, Note_on_c, 3, 73, 62
5, 44924, Note_on_c, 3, 73, 0
5, 44928, Note_on_c, 3, 74, 62
5, 45052, Note_on_c, 3, 74, 0
5, 45056, Note_on_c, 3, 75, 62
5, 45180, Note_on_c, 3, 75, 0
5, 45184, Note_on_c, 3, 73, 62
5, 45308, Note_on_c, 3, 73, 0
5, 45312, Note_on_c, 3, 74, 62
5, 45372, Note_on_c, 3, 74, 0
5, 45440, Note_on_c, 3, 74, 62
5, 45500, Note_on_c, 3, 74, 0
5, 45568, Note_on_c, 3, 74, 62
5, 45628, Note_on_c, 3, 74, 0
5, 45696, Note_on_c, 3, 72, 62
5, 45756, Note_on_c, 3, 72, 0
5, 45824, Note_on_c, 3, 72, 62
5, 45884, Note_on_c, 3, 72, 0
5, 45952, Note_on_c, 3, 72, 62
5, 46012, Note_on_c, 3, 72, 0
5, 46080, Note_on_c, 3, 70, 62
5, 46140, Note_on_c, 3, 70, 0
5, 46208, Note_on_c, 3, 70, 62
5, 46268, Note_on_c, 3, 70, 0
5, 46336, Note_on_c, 3, 70, 62
5, 46396, Note_on_c, 3, 70, 0
5, 46464, Note_on_c, 3, 70, 62
5, 46524, Note_on_c, 3, 70, 0
5, 46592, Note_on_c, 3, 70, 62
5, 46652, Note_on_c, 3, 70, 0
5, 46720, Note_on_c, 3, 70, 62
5, 46780, Note_on_c, 3, 70, 0
5, 46848, Note_on_c, 3, 69, 62
5, 46972, Note_on_c, 3, 69, 0
5, 46976, Note_on_c, 3, 72, 62
5, 47100, Note_on_c, 3, 72, 0
5, 47104, Note_on_c, 3, 74, 62
5, 47228, Note_on_c, 3, 74, 0
5, 47232, Note_on_c, 3, 77, 62
5, 47356, Note_on_c, 3, 77, 0
5, 47360, Note_on_c, 3, 75, 62
5, 47484, Note_on_c, 3, 75, 0
5, 47488, Note_on_c, 3, 72, 62
5, 47612, Note_on_c, 3, 72, 0
5, 47616, Note_on_c, 3, 74, 62
5, 47676, Note_on_c, 3, 74, 0
5, 47744, Note_on_c, 3, 74, 62
5, 47804, Note_on_c, 3, 74, 0
5, 47872, Note_on_c, 3, 74, 62
5, 47932, Note_on_c, 3, 74, 0
5, 48000, Note_on_c, 3, 74, 62
5, 48060, Note_on_c, 3, 74, 0
5, 48128, Note_on_c, 3, 74, 62
5, 48188, Note_on_c, 3, 74, 0
5, 48256, Note_on_c, 3, 74, 62
5, 48316, Note_on_c, 3, 74, 0
5, 48384, Note_on_c, 3, 72, 62
5, 48508, Note_on_c, 3, 72, 0
5, 48512, Note_on_c, 3, 75, 62
5, 48636, Note_on_c, 3, 75, 0
5, 48640, Note_on_c, 3, 77, 62
5, 48764, Note_on_c, 3, 77, 0
5, 48768, Note_on_c, 3, 79, 62
5, 48892, Note_on_c, 3, 79, 0
5, 48896, Note_on_c, 3, 77, 62
5, 49020, Note_on_c, 3, 77, 0
5, 49024, Note_on_c, 3, 75, 62
5, 49148, Note_on_c, 3, 75, 0
5, 49152, Note_on_c, 3, 77, 62
5, 49212, Note_on_c, 3, 77, 0
5, 49280, Note_on_c, 3, 77, 62
5, 49340, Note_on_c, 3, 77, 0
5, 49408, Note_on_c, 3, 77, 62
5, 49468, Note_on_c, 3, 77, 0
5, 49536, Note_on_c, 3, 77, 62
5, 49596, Note_on_c, 3, 77, 0
5, 49664, Note_on_c, 3, 77, 62
5, 49724, Note_on_c, 3, 77, 0
5, 49792, Note_on_c, 3, 77, 62
5, 49852, Note_on_c, 3, 77, 0
5, 49920, Note_on_c, 3, 75, 62
5, 50044, Note_on_c, 3, 75, 0
5, 50048, Note_on_c, 3, 79, 62
5, 50172, Note_on_c, 3, 79, 0
5, 50176, Note_on_c, 3, 80, 62
5, 50300, Note_on_c, 3, 80, 0
5, 50304, Note_on_c, 3, 82, 62
5, 50428, Note_on_c, 3, 82, 0
5, 50432, Note_on_c, 3, 80, 62
5, 50556, Note_on_c, 3, 80, 0
5, 50560, Note_on_c, 3, 79, 62
5, 50684, Note_on_c, 3, 79, 0
5, 50688, Note_on_c, 3, 80, 62
5, 50748, Note_on_c, 3, 80, 0
5, 50816, Note_on_c, 3, 82, 62
5, 50876, Note_on_c, 3, 82, 0
5, 50944, Note_on_c, 3, 80, 62
5, 51004, Note_on_c, 3, 80, 0
5, 51072, Note_on_c, 3, 79, 62
5, 51132, Note_on_c, 3, 79, 0
5, 51200, Note_on_c, 3, 77, 62
5, 51260, Note_on_c, 3, 77, 0
5, 51328, Note_on_c, 3, 75, 62
5, 51388, Note_on_c, 3, 75, 0
5, 51456, Note_on_c, 3, 74, 62
5, 51516, Note_on_c, 3, 74, 0
5, 51584, Note_on_c, 3, 72, 62
5, 51644, Note_on_c, 3, 72, 0
5, 51712, Note_on_c, 3, 70, 62
5, 51772, Note_on_c, 3, 70, 0
5, 51840, Note_on_c, 3, 68, 62
5, 51900, Note_on_c, 3, 68, 0
5, 51968, Note_on_c, 3, 67, 62
5, 52028, Note_on_c, 3, 67, 0
5, 52096, Note_on_c, 3, 65, 62
5, 52156, Note_on_c, 3, 65, 0
5, 52224, Note_on_c, 3, 63, 62
5, 52476, Note_on_c, 3, 63, 0
5, 52608, Note_on_c, 3, 63, 62
5, 52860, Note_on_c, 3, 63, 0
5, 52992, Note_on_c, 3, 62, 62
5, 53244, Note_on_c, 3, 62, 0
5, 53376, Note_on_c, 3, 65, 62
5, 53500, Note_on_c, 3, 65, 0
5, 53760, Note_on_c, 3, 63, 62
5, 54012, Note_on_c, 3, 63, 0
5, 54144, Note_on_c, 3, 63, 62
5, 54396, Note_on_c, 3, 63, 0
5, 54528, Note_on_c, 3, 62, 62
5, 54780, Note_on_c, 3, 62, 0
5, 55296, Note_on_c, 3, 63, 62
5, 55548, Note_on_c, 3, 63, 0
5, 55680, Note_on_c, 3, 63, 62
5, 55932, Note_on_c, 3, 63, 0
5, 56064, Note_on_c, 3, 62, 62
5, 56316, Note_on_c, 3, 62, 0
5, 56448, Note_on_c, 3, 65, 62
5, 56700, Note_on_c, 3, 65, 0
5, 56832, Note_on_c, 3, 63, 62
5, 57084, Note_on_c, 3, 63, 0
5, 57216, Note_on_c, 3, 62, 62
5, 57276, Note_on_c, 3, 62, 0
5, 57344, Note_on_c, 3, 60, 62
5, 57404, Note_on_c, 3, 60, 0
5, 57472, Note_on_c, 3, 62, 62
5, 57532, Note_on_c, 3, 62, 0
5, 57600, Note_on_c, 3, 63, 62
5, 57660, Note_on_c, 3, 63, 0
5, 57728, Note_on_c, 3, 63, 62
5, 57788, Note_on_c, 3, 63, 0
5, 57856, Note_on_c, 3, 63, 62
5, 57916, Note_on_c, 3, 63, 0
5, 57984, Note_on_c, 3, 63, 62
5, 58108, Note_on_c, 3, 63, 0
5, 58240, Note_on_c, 3, 70, 62
5, 58300, Note_on_c, 3, 70, 0
5, 58368, Note_on_c, 3, 75, 92
5, 58428, Note_on_c, 3, 75, 0
5, 58496, Note_on_c, 3, 75, 92
5, 58556, Note_on_c, 3, 75, 0
5, 58624, Note_on_c, 3, 75, 92
5, 58684, Note_on_c, 3, 75, 0
5, 58752, Note_on_c, 3, 75, 92
5, 58812, Note_on_c, 3, 75, 0
5, 58880, Note_on_c, 3, 75, 92
5, 58940, Note_on_c, 3, 75, 0
5, 59008, Note_on_c, 3, 75, 92
5, 59068, Note_on_c, 3, 75, 0
5, 59136, Note_on_c, 3, 74, 92
5, 59260, Note_on_c, 3, 74, 0
5, 59264, Note_on_c, 3, 77, 92
5, 59388, Note_on_c, 3, 77, 0
5, 59392, Note_on_c, 3, 82, 92
5, 59452, Note_on_c, 3, 82, 0
5, 59520, Note_on_c, 3, 82, 92
5, 59644, Note_on_c, 3, 82, 0
5, 59648, Note_on_c, 3, 80, 92
5, 59772, Note_on_c, 3, 80, 0
5, 59776, Note_on_c, 3, 77, 92
5, 59836, Note_on_c, 3, 77, 0
5, 59904, Note_on_c, 3, 75, 92
5, 59964, Note_on_c, 3, 75, 0
5, 60032, Note_on_c, 3, 75, 92
5, 60092, Note_on_c, 3, 75, 0
5, 60160, Note_on_c, 3, 75, 92
5, 60220, Note_on_c, 3, 75, 0
5, 60288, Note_on_c, 3, 75, 92
5, 60348, Note_on_c, 3, 75, 0
5, 60416, Note_on_c, 3, 74, 92
5, 60476, Note_on_c, 3, 74, 0
5, 60544, Note_on_c, 3, 75, 92
5, 60604, Note_on_c, 3, 75, 0
5, 60672, Note_on_c, 3, 77, 92
5, 60796, Note_on_c, 3, 77, 0
5, 60800, Note_on_c, 3, 70, 92
5, 60860, Note_on_c, 3, 70, 0
5, 60928, Note_on_c, 3, 70, 92
5, 60988, Note_on_c, 3, 70, 0
5, 61056, Note_on_c, 3, 70, 92
5, 61308, Note_on_c, 3, 70, 0
5, 61312, Note_on_c, 3, 70, 92
5, 61372, Note_on_c, 3, 70, 0
5, 61440, Note_on_c, 3, 75, 92
5, 61500, Note_on_c, 3, 75, 0
5, 61568, Note_on_c, 3, 75, 92
5, 61628, Note_on_c, 3, 75, 0
5, 61696, Note_on_c, 3, 75, 92
5, 61756, Note_on_c, 3, 75, 0
5, 61824, Note_on_c, 3, 75, 92
5, 61884, Note_on_c, 3, 75, 0
5, 61952, Note_on_c, 3, 75, 92
5, 62012, Note_on_c, 3, 75, 0
5, 62080, Note_on_c, 3, 75, 92
5, 62140, Note_on_c, 3, 75, 0
5, 62208, Note_on_c, 3, 74, 92
5, 62332, Note_on_c, 3, 74, 0
5, 62336, Note_on_c, 3, 77, 92
5, 62396, Note_on_c, 3, 77, 0
5, 62464, Note_on_c, 3, 82, 92
5, 62524, Note_on_c, 3, 82, 0
5, 62592, Note_on_c, 3, 82, 92
5, 62716, Note_on_c, 3, 82, 0
5, 62720, Note_on_c, 3, 80, 92
5, 62780, Note_on_c, 3, 80, 0
5, 62848, Note_on_c, 3, 77, 92
5, 62908, Note_on_c, 3, 77, 0
5, 62976, Note_on_c, 3, 79, 92
5, 63100, Note_on_c, 3, 79, 0
5, 63104, Note_on_c, 3, 82, 92
5, 63164, Note_on_c, 3, 82, 0
5, 63232, Note_on_c, 3, 75, 92
5, 63292, Note_on_c, 3, 75, 0
5, 63360, Note_on_c, 3, 77, 92
5, 63420, Note_on_c, 3, 77, 0
5, 63488, Note_on_c, 3, 75, 92
5, 63548, Note_on_c, 3, 75, 0
5, 63616, Note_on_c, 3, 77, 92
5, 63676, Note_on_c, 3, 77, 0
5, 63744, Note_on_c, 3, 75, 92
5, 63804, Note_on_c, 3, 75, 0
5, 63872, Note_on_c, 3, 63, 92
5, 63872, Note_on_c, 3, 55, 92
5, 63932, Note_on_c, 3, 55, 0
5, 63932, Note_on_c, 3, 63, 0
5, 64000, Note_on_c, 3, 63, 92
5, 64000, Note_on_c, 3, 55, 92
5, 64060, Note_on_c, 3, 55, 0
5, 64060, Note_on_c, 3, 63, 0
5, 64128, Note_on_c, 3, 63, 92
5, 64128, Note_on_c, 3, 55, 92
5, 64252, Note_on_c, 3, 55, 0
5, 64252, Note_on_c, 3, 63, 0
5, 65408, Note_on_c, 3, 63, 47
5, 65468, Note_on_c, 3, 63, 0
5, 65536, Note_on_c, 3, 63, 47
5, 65596, Note_on_c, 3, 63, 0
5, 65664, Note_on_c, 3, 63, 47
5, 65724, Note_on_c, 3, 63, 0
5, 65792, Note_on_c, 3, 63, 47
5, 65852, Note_on_c, 3, 63, 0
5, 65920, Note_on_c, 3, 63, 47
5, 65980, Note_on_c, 3, 63, 0
5, 66176, Note_on_c, 3, 65, 47
5, 66236, Note_on_c, 3, 65, 0
5, 66304, Note_on_c, 3, 65, 47
5, 66364, Note_on_c, 3, 65, 0
5, 66432, Note_on_c, 3, 65, 47
5, 66492, Note_on_c, 3, 65, 0
5, 66560, Note_on_c, 3, 65, 47
5, 66620, Note_on_c, 3, 65, 0
5, 66688, Note_on_c, 3, 65, 48
5, 66748, Note_on_c, 3, 65, 0
5, 66944, Note_on_c, 3, 65, 48
5, 67068, Note_on_c, 3, 65, 0
5, 67072, Note_on_c, 3, 63, 48
5, 67132, Note_on_c, 3, 63, 0
5, 67200, Note_on_c, 3, 63, 48
5, 67260, Note_on_c, 3, 63, 0
5, 67328, Note_on_c, 3, 63, 48
5, 67388, Note_on_c, 3, 63, 0
5, 67456, Note_on_c, 3, 63, 48
5, 67516, Note_on_c, 3, 63, 0
5, 67712, Note_on_c, 3, 60, 48
5, 67772, Note_on_c, 3, 60, 0
5, 67840, Note_on_c, 3, 60, 48
5, 67900, Note_on_c, 3, 60, 0
5, 67968, Note_on_c, 3, 59, 49
5, 68092, Note_on_c, 3, 59, 0
5, 68096, Note_on_c, 3, 55, 49
5, 68220, Note_on_c, 3, 55, 0
5, 68224, Note_on_c, 3, 62, 49
5, 68348, Note_on_c, 3, 62, 0
5, 68480, Note_on_c, 3, 60, 49
5, 68540, Note_on_c, 3, 60, 0
5, 68608, Note_on_c, 3, 60, 49
5, 68668, Note_on_c, 3, 60, 0
5, 68736, Note_on_c, 3, 65, 49
5, 68860, Note_on_c, 3, 65, 0
5, 68864, Note_on_c, 3, 55, 49
5, 68988, Note_on_c, 3, 55, 0
5, 68992, Note_on_c, 3, 62, 49
5, 69116, Note_on_c, 3, 62, 0
5, 69120, Note_on_c, 3, 60, 49
5, 69372, Note_on_c, 3, 60, 0
5, 69504, Note_on_c, 3, 72, 46
5, 69756, Note_on_c, 3, 72, 0
5, 69888, Note_on_c, 3, 71, 46
5, 70012, Note_on_c, 3, 71, 0
5, 70016, Note_on_c, 3, 68, 46
5, 70140, Note_on_c, 3, 68, 0
5, 70144, Note_on_c, 3, 67, 46
5, 70268, Note_on_c, 3, 67, 0
5, 70272, Note_on_c, 3, 65, 46
5, 70396, Note_on_c, 3, 65, 0
5, 70400, Note_on_c, 3, 63, 46
5, 70524, Note_on_c, 3, 63, 0
5, 70528, Note_on_c, 3, 62, 46
5, 70652, Note_on_c, 3, 62, 0
5, 70656, Note_on_c, 3, 63, 46
5, 70908, Note_on_c, 3, 63, 0
5, 71552, Note_on_c, 3, 63, 47
5, 71612, Note_on_c, 3, 63, 0
5, 71680, Note_on_c, 3, 63, 47
5, 71740, Note_on_c, 3, 63, 0
5, 71808, Note_on_c, 3, 63, 47
5, 71868, Note_on_c, 3, 63, 0
5, 71936, Note_on_c, 3, 63, 47
5, 71996, Note_on_c, 3, 63, 0
5, 72064, Note_on_c, 3, 63, 47
5, 72124, Note_on_c, 3, 63, 0
5, 72320, Note_on_c, 3, 65, 47
5, 72380, Note_on_c, 3, 65, 0
5, 72448, Note_on_c, 3, 65, 47
5, 72508, Note_on_c, 3, 65, 0
5, 72576, Note_on_c, 3, 65, 47
5, 72636, Note_on_c, 3, 65, 0
5, 72704, Note_on_c, 3, 65, 47
5, 72764, Note_on_c, 3, 65, 0
5, 72832, Note_on_c, 3, 65, 47
5, 72892, Note_on_c, 3, 65, 0
5, 72960, Note_on_c, 3, 65, 47
5, 73472, Note_on_c, 3, 63, 48
5, 73532, Note_on_c, 3, 65, 0
5, 73596, Note_on_c, 3, 63, 0
5, 73600, Note_on_c, 3, 62, 48
5, 73724, Note_on_c, 3, 62, 0
5, 73856, Note_on_c, 3, 63, 48
5, 73916, Note_on_c, 3, 63, 0
5, 73984, Note_on_c, 3, 63, 48
5, 74044, Note_on_c, 3, 63, 0
5, 74240, Note_on_c, 3, 61, 48
5, 74300, Note_on_c, 3, 61, 0
5, 74368, Note_on_c, 3, 61, 48
5, 74428, Note_on_c, 3, 61, 0
5, 74624, Note_on_c, 3, 60, 48
5, 74684, Note_on_c, 3, 60, 0
5, 74752, Note_on_c, 3, 60, 48
5, 74812, Note_on_c, 3, 60, 0
5, 75008, Note_on_c, 3, 66, 49
5, 75068, Note_on_c, 3, 66, 0
5, 75136, Note_on_c, 3, 66, 49
5, 75196, Note_on_c, 3, 66, 0
5, 75392, Note_on_c, 3, 65, 49
5, 75516, Note_on_c, 3, 65, 0
5, 75520, Note_on_c, 3, 61, 50
5, 75580, Note_on_c, 3, 61, 0
5, 75776, Note_on_c, 3, 60, 50
5, 75836, Note_on_c, 3, 60, 0
5, 75904, Note_on_c, 3, 58, 52
5, 75964, Note_on_c, 3, 58, 0
5, 76032, Note_on_c, 3, 56, 54
5, 76156, Note_on_c, 3, 56, 0
5, 76288, Note_on_c, 3, 75, 57
5, 76412, Note_on_c, 3, 75, 0
5, 76416, Note_on_c, 3, 73, 58
5, 76668, Note_on_c, 3, 73, 0
5, 76672, Note_on_c, 3, 72, 61
5, 76796, Note_on_c, 3, 72, 0
5, 76800, Note_on_c, 3, 70, 62
5, 77052, Note_on_c, 3, 70, 0
5, 77056, Note_on_c, 3, 72, 62
5, 77180, Note_on_c, 3, 72, 0
5, 77184, Note_on_c, 3, 73, 62
5, 77436, Note_on_c, 3, 73, 0
5, 77440, Note_on_c, 3, 75, 62
5, 77564, Note_on_c, 3, 75, 0
5, 77568, Note_on_c, 3, 72, 62
5, 77820, Note_on_c, 3, 72, 0
5, 77824, Note_on_c, 3, 77, 62
5, 77884, Note_on_c, 3, 77, 0
5, 77952, Note_on_c, 3, 77, 62
5, 78076, Note_on_c, 3, 77, 0
5, 78080, Note_on_c, 3, 75, 62
5, 78204, Note_on_c, 3, 75, 0
5, 78208, Note_on_c, 3, 73, 62
5, 78332, Note_on_c, 3, 73, 0
5, 78336, Note_on_c, 3, 72, 62
5, 78588, Note_on_c, 3, 72, 0
5, 78592, Note_on_c, 3, 73, 62
5, 78716, Note_on_c, 3, 73, 0
5, 78720, Note_on_c, 3, 75, 62
5, 78972, Note_on_c, 3, 75, 0
5, 78976, Note_on_c, 3, 77, 62
5, 79100, Note_on_c, 3, 77, 0
5, 79104, Note_on_c, 3, 74, 62
5, 79356, Note_on_c, 3, 74, 0
5, 79360, Note_on_c, 3, 79, 62
5, 79420, Note_on_c, 3, 79, 0
5, 79488, Note_on_c, 3, 79, 62
5, 79612, Note_on_c, 3, 79, 0
5, 79616, Note_on_c, 3, 77, 62
5, 79740, Note_on_c, 3, 77, 0
5, 79744, Note_on_c, 3, 75, 62
5, 79868, Note_on_c, 3, 75, 0
5, 79872, Note_on_c, 3, 74, 62
5, 80124, Note_on_c, 3, 74, 0
5, 80128, Note_on_c, 3, 75, 62
5, 80252, Note_on_c, 3, 75, 0
5, 80256, Note_on_c, 3, 77, 62
5, 80508, Note_on_c, 3, 77, 0
5, 80512, Note_on_c, 3, 79, 62
5, 80636, Note_on_c, 3, 79, 0
5, 80640, Note_on_c, 3, 75, 62
5, 80892, Note_on_c, 3, 75, 0
5, 81664, Note_on_c, 3, 60, 62
5, 81724, Note_on_c, 3, 60, 0
5, 81792, Note_on_c, 3, 60, 62
5, 81916, Note_on_c, 3, 60, 0
5, 81920, Note_on_c, 3, 58, 62
5, 82044, Note_on_c, 3, 58, 0
5, 82048, Note_on_c, 3, 60, 62
5, 82172, Note_on_c, 3, 60, 0
5, 82176, Note_on_c, 3, 62, 62
5, 82300, Note_on_c, 3, 62, 0
5, 82304, Note_on_c, 3, 60, 62
5, 82428, Note_on_c, 3, 60, 0
5, 82432, Note_on_c, 3, 62, 62
5, 82556, Note_on_c, 3, 62, 0
5, 82560, Note_on_c, 3, 63, 62
5, 82684, Note_on_c, 3, 63, 0
5, 82688, Note_on_c, 3, 62, 62
5, 82812, Note_on_c, 3, 62, 0
5, 82816, Note_on_c, 3, 63, 62
5, 82940, Note_on_c, 3, 63, 0
5, 82944, Note_on_c, 3, 60, 62
5, 83068, Note_on_c, 3, 60, 0
5, 83072, Note_on_c, 3, 58, 62
5, 83196, Note_on_c, 3, 58, 0
5, 83200, Note_on_c, 3, 60, 62
5, 83324, Note_on_c, 3, 60, 0
5, 83328, Note_on_c, 3, 62, 62
5, 83452, Note_on_c, 3, 62, 0
5, 83456, Note_on_c, 3, 60, 62
5, 83580, Note_on_c, 3, 60, 0
5, 83584, Note_on_c, 3, 62, 62
5, 83708, Note_on_c, 3, 62, 0
5, 83712, Note_on_c, 3, 55, 62
5, 83964, Note_on_c, 3, 55, 0
5, 84480, Note_on_c, 3, 78, 62
5, 85244, Note_on_c, 3, 78, 0
5, 85248, Note_on_c, 3, 79, 62
5, 85308, Note_on_c, 3, 79, 0
5, 85376, Note_on_c, 3, 79, 62
5, 85436, Note_on_c, 3, 79, 0
5, 85504, Note_on_c, 3, 79, 62
5, 85564, Note_on_c, 3, 79, 0
5, 85632, Note_on_c, 3, 79, 62
5, 85692, Note_on_c, 3, 79, 0
5, 85760, Note_on_c, 3, 79, 62
5, 85820, Note_on_c, 3, 79, 0
5, 85888, Note_on_c, 3, 79, 62
5, 85948, Note_on_c, 3, 79, 0
5, 86016, Note_on_c, 3, 81, 62
5, 86140, Note_on_c, 3, 81, 0
5, 86144, Note_on_c, 3, 82, 62
5, 86268, Note_on_c, 3, 82, 0
5, 86272, Note_on_c, 3, 84, 62
5, 86396, Note_on_c, 3, 84, 0
5, 86400, Note_on_c, 3, 86, 62
5, 86524, Note_on_c, 3, 86, 0
5, 86528, Note_on_c, 3, 84, 62
5, 86652, Note_on_c, 3, 84, 0
5, 86656, Note_on_c, 3, 81, 62
5, 86780, Note_on_c, 3, 81, 0
5, 86784, Note_on_c, 3, 79, 62
5, 87036, Note_on_c, 3, 79, 0
5, 87552, Note_on_c, 3, 76, 62
5, 88316, Note_on_c, 3, 76, 0
5, 88320, Note_on_c, 3, 77, 62
5, 88380, Note_on_c, 3, 77, 0
5, 88448, Note_on_c, 3, 77, 62
5, 88508, Note_on_c, 3, 77, 0
5, 88576, Note_on_c, 3, 77, 62
5, 88636, Note_on_c, 3, 77, 0
5, 88704, Note_on_c, 3, 77, 62
5, 88764, Note_on_c, 3, 77, 0
5, 88832, Note_on_c, 3, 77, 62
5, 88892, Note_on_c, 3, 77, 0
5, 88960, Note_on_c, 3, 77, 62
5, 89020, Note_on_c, 3, 77, 0
5, 89088, Note_on_c, 3, 79, 62
5, 89212, Note_on_c, 3, 79, 0
5, 89216, Note_on_c, 3, 80, 62
5, 89340, Note_on_c, 3, 80, 0
5, 89344, Note_on_c, 3, 82, 62
5, 89468, Note_on_c, 3, 82, 0
5, 89472, Note_on_c, 3, 84, 62
5, 89596, Note_on_c, 3, 84, 0
5, 89600, Note_on_c, 3, 80, 62
5, 89724, Note_on_c, 3, 80, 0
5, 89728, Note_on_c, 3, 79, 62
5, 89852, Note_on_c, 3, 79, 0
5, 89856, Note_on_c, 3, 77, 62
5, 90108, Note_on_c, 3, 77, 0
5, 90624, Note_on_c, 3, 74, 62
5, 91388, Note_on_c, 3, 74, 0
5, 91392, Note_on_c, 3, 75, 62
5, 91452, Note_on_c, 3, 75, 0
5, 91520, Note_on_c, 3, 75, 62
5, 91580, Note_on_c, 3, 75, 0
5, 91648, Note_on_c, 3, 75, 62
5, 91708, Note_on_c, 3, 75, 0
5, 91776, Note_on_c, 3, 75, 62
5, 91836, Note_on_c, 3, 75, 0
5, 91904, Note_on_c, 3, 75, 62
5, 91964, Note_on_c, 3, 75, 0
5, 92032, Note_on_c, 3, 75, 62
5, 92092, Note_on_c, 3, 75, 0
5, 92160, Note_on_c, 3, 77, 62
5, 92284, Note_on_c, 3, 77, 0
5, 92288, Note_on_c, 3, 79, 62
5, 92412, Note_on_c, 3, 79, 0
5, 92416, Note_on_c, 3, 80, 62
5, 92540, Note_on_c, 3, 80, 0
5, 92544, Note_on_c, 3, 82, 62
5, 92668, Note_on_c, 3, 82, 0
5, 92672, Note_on_c, 3, 80, 62
5, 92796, Note_on_c, 3, 80, 0
5, 92800, Note_on_c, 3, 77, 62
5, 92924, Note_on_c, 3, 77, 0
5, 92928, Note_on_c, 3, 75, 62
5, 93180, Note_on_c, 3, 75, 0
5, 93312, Note_on_c, 3, 63, 62
5, 93564, Note_on_c, 3, 63, 0
5, 93696, Note_on_c, 3, 62, 62
5, 93948, Note_on_c, 3, 62, 0
5, 94080, Note_on_c, 3, 65, 62
5, 94204, Note_on_c, 3, 65, 0
5, 94464, Note_on_c, 3, 63, 62
5, 94716, Note_on_c, 3, 63, 0
5, 94848, Note_on_c, 3, 63, 62
5, 95100, Note_on_c, 3, 63, 0
5, 95232, Note_on_c, 3, 62, 62
5, 95484, Note_on_c, 3, 62, 0
5, 96000, Note_on_c, 3, 63, 62
5, 96252, Note_on_c, 3, 63, 0
5, 96384, Note_on_c, 3, 63, 62
5, 96636, Note_on_c, 3, 63, 0
5, 96768, Note_on_c, 3, 62, 62
5, 97020, Note_on_c, 3, 62, 0
5, 97152, Note_on_c, 3, 65, 62
5, 97404, Note_on_c, 3, 65, 0
5, 97536, Note_on_c, 3, 63, 62
5, 97788, Note_on_c, 3, 63, 0
5, 97920, Note_on_c, 3, 62, 62
5, 97980, Note_on_c, 3, 62, 0
5, 98048, Note_on_c, 3, 60, 62
5, 98108, Note_on_c, 3, 60, 0
5, 98176, Note_on_c, 3, 62, 62
5, 98236, Note_on_c, 3, 62, 0
5, 98304, Note_on_c, 3, 63, 62
5, 98364, Note_on_c, 3, 63, 0
5, 98432, Note_on_c, 3, 63, 62
5, 98492, Note_on_c, 3, 63, 0
5, 98560, Note_on_c, 3, 63, 62
5, 98620, Note_on_c, 3, 63, 0
5, 98688, Note_on_c, 3, 63, 62
5, 98812, Note_on_c, 3, 63, 0
5, 98944, Note_on_c, 3, 70, 62
5, 99004, Note_on_c, 3, 70, 0
5, 99072, Note_on_c, 3, 75, 92
5, 99132, Note_on_c, 3, 75, 0
5, 99200, Note_on_c, 3, 75, 92
5, 99260, Note_on_c, 3, 75, 0
5, 99328, Note_on_c, 3, 75, 92
5, 99388, Note_on_c, 3, 75, 0
5, 99456, Note_on_c, 3, 75, 92
5, 99516, Note_on_c, 3, 75, 0
5, 99584, Note_on_c, 3, 75, 92
5, 99644, Note_on_c, 3, 75, 0
5, 99712, Note_on_c, 3, 75, 92
5, 99772, Note_on_c, 3, 75, 0
5, 99840, Note_on_c, 3, 74, 92
5, 99964, Note_on_c, 3, 74, 0
5, 99968, Note_on_c, 3, 77, 92
5, 100092, Note_on_c, 3, 77, 0
5, 100096, Note_on_c, 3, 82, 92
5, 100156, Note_on_c, 3, 82, 0
5, 100224, Note_on_c, 3, 82, 92
5, 100348, Note_on_c, 3, 82, 0
5, 100352, Note_on_c, 3, 80, 92
5, 100476, Note_on_c, 3, 80, 0
5, 100480, Note_on_c, 3, 77, 92
5, 100540, Note_on_c, 3, 77, 0
5, 100608, Note_on_c, 3, 75, 92
5, 100668, Note_on_c, 3, 75, 0
5, 100736, Note_on_c, 3, 75, 92
5, 100796, Note_on_c, 3, 75, 0
5, 100864, Note_on_c, 3, 75, 92
5, 100924, Note_on_c, 3, 75, 0
5, 100992, Note_on_c, 3, 75, 92
5, 101052, Note_on_c, 3, 75, 0
5, 101120, Note_on_c, 3, 74, 92
5, 101180, Note_on_c, 3, 74, 0
5, 101248, Note_on_c, 3, 75, 92
5, 101308, Note_on_c, 3, 75, 0
5, 101376, Note_on_c, 3, 77, 92
5, 101500, Note_on_c, 3, 77, 0
5, 101504, Note_on_c, 3, 70, 92
5, 101564, Note_on_c, 3, 70, 0
5, 101632, Note_on_c, 3, 70, 92
5, 101692, Note_on_c, 3, 70, 0
5, 101760, Note_on_c, 3, 70, 92
5, 102012, Note_on_c, 3, 70, 0
5, 102016, Note_on_c, 3, 70, 92
5, 102076, Note_on_c, 3, 70, 0
5, 102144, Note_on_c, 3, 75, 92
5, 102204, Note_on_c, 3, 75, 0
5, 102272, Note_on_c, 3, 75, 92
5, 102332, Note_on_c, 3, 75, 0
5, 102400, Note_on_c, 3, 75, 92
5, 102460, Note_on_c, 3, 75, 0
5, 102528, Note_on_c, 3, 75, 92
5, 102588, Note_on_c, 3, 75, 0
5, 102656, Note_on_c, 3, 75, 92
5, 102716, Note_on_c, 3, 75, 0
5, 102784, Note_on_c, 3, 75, 92
5, 102844, Note_on_c, 3, 75, 0
5, 102912, Note_on_c, 3, 74, 92
5, 103036, Note_on_c, 3, 74, 0
5, 103040, Note_on_c, 3, 77, 92
5, 103100, Note_on_c, 3, 77, 0
5, 103168, Note_on_c, 3, 82, 92
5, 103228, Note_on_c, 3, 82, 0
5, 103296, Note_on_c, 3, 82, 92
5, 103420, Note_on_c, 3, 82, 0
5, 103424, Note_on_c, 3, 80, 92
5, 103484, Note_on_c, 3, 80, 0
5, 103552, Note_on_c, 3, 77, 92
5, 103612, Note_on_c, 3, 77, 0
5, 103680, Note_on_c, 3, 79, 92
5, 103804, Note_on_c, 3, 79, 0
5, 103808, Note_on_c, 3, 82, 92
5, 103868, Note_on_c, 3, 82, 0
5, 103936, Note_on_c, 3, 75, 92
5, 103996, Note_on_c, 3, 75, 0
5, 104064, Note_on_c, 3, 77, 92
5, 104124, Note_on_c, 3, 77, 0
5, 104192, Note_on_c, 3, 75, 92
5, 104252, Note_on_c, 3, 75, 0
5, 104320, Note_on_c, 3, 77, 92
5, 104380, Note_on_c, 3, 77, 0
5, 104448, Note_on_c, 3, 75, 92
5, 104508, Note_on_c, 3, 75, 0
5, 104576, Note_on_c, 3, 63, 92
5, 104576, Note_on_c, 3, 55, 92
5, 104636, Note_on_c, 3, 55, 0
5, 104636, Note_on_c, 3, 63, 0
5, 104704, Note_on_c, 3, 63, 92
5, 104704, Note_on_c, 3, 55, 92
5, 104764, Note_on_c, 3, 55, 0
5, 104764, Note_on_c, 3, 63, 0
5, 104832, Note_on_c, 3, 63, 92
5, 104832, Note_on_c, 3, 55, 92
5, 104956, Note_on_c, 3, 55, 0
5, 104956, Note_on_c, 3, 63, 0
5, 105344, Note_on_c, 3, 63, 62
5, 105404, Note_on_c, 3, 63, 0
5, 105472, Note_on_c, 3, 63, 62
5, 105532, Note_on_c, 3, 63, 0
5, 105600, Note_on_c, 3, 63, 62
5, 105660, Note_on_c, 3, 63, 0
5, 105728, Note_on_c, 3, 63, 62
5, 105788, Note_on_c, 3, 63, 0
5, 105856, Note_on_c, 3, 63, 62
5, 105916, Note_on_c, 3, 63, 0
5, 106112, Note_on_c, 3, 63, 62
5, 106172, Note_on_c, 3, 63, 0
5, 106240, Note_on_c, 3, 63, 62
5, 106300, Note_on_c, 3, 63, 0
5, 106368, Note_on_c, 3, 63, 62
5, 106428, Note_on_c, 3, 63, 0
5, 106496, Note_on_c, 3, 63, 62
5, 106556, Note_on_c, 3, 63, 0
5, 106624, Note_on_c, 3, 63, 62
5, 106684, Note_on_c, 3, 63, 0
5, 106880, Note_on_c, 3, 60, 62
5, 106940, Note_on_c, 3, 60, 0
5, 107008, Note_on_c, 3, 60, 62
5, 107068, Note_on_c, 3, 60, 0
5, 107264, Note_on_c, 3, 58, 62
5, 107324, Note_on_c, 3, 58, 0
5, 107392, Note_on_c, 3, 58, 62
5, 107452, Note_on_c, 3, 58, 0
5, 107648, Note_on_c, 3, 58, 62
5, 107708, Note_on_c, 3, 58, 0
5, 107776, Note_on_c, 3, 58, 62
5, 107836, Note_on_c, 3, 58, 0
5, 107904, Note_on_c, 3, 58, 62
5, 107964, Note_on_c, 3, 58, 0
5, 108032, Note_on_c, 3, 58, 62
5, 108092, Note_on_c, 3, 58, 0
5, 108160, Note_on_c, 3, 58, 62
5, 108220, Note_on_c, 3, 58, 0
5, 108416, Note_on_c, 3, 63, 62
5, 108476, Note_on_c, 3, 63, 0
5, 108544, Note_on_c, 3, 63, 62
5, 108604, Note_on_c, 3, 63, 0
5, 108672, Note_on_c, 3, 63, 62
5, 108732, Note_on_c, 3, 63, 0
5, 108800, Note_on_c, 3, 63, 62
5, 108860, Note_on_c, 3, 63, 0
5, 108928, Note_on_c, 3, 63, 62
5, 108988, Note_on_c, 3, 63, 0
5, 109056, Note_on_c, 3, 63, 62
5, 109820, Note_on_c, 3, 63, 0
5, 109952, Note_on_c, 3, 63, 62
5, 110012, Note_on_c, 3, 63, 0
5, 110080, Note_on_c, 3, 63, 62
5, 110140, Note_on_c, 3, 63, 0
5, 110208, Note_on_c, 3, 63, 62
5, 110268, Note_on_c, 3, 63, 0
5, 110336, Note_on_c, 3, 63, 62
5, 110396, Note_on_c, 3, 63, 0
5, 110464, Note_on_c, 3, 63, 62
5, 110524, Note_on_c, 3, 63, 0
5, 110592, Note_on_c, 3, 63, 62
5, 111356, Note_on_c, 3, 63, 0
5, 111488, Note_on_c, 3, 63, 62
5, 111548, Note_on_c, 3, 63, 0
5, 111616, Note_on_c, 3, 63, 62
5, 111676, Note_on_c, 3, 63, 0
5, 111744, Note_on_c, 3, 63, 62
5, 111804, Note_on_c, 3, 63, 0
5, 111872, Note_on_c, 3, 63, 62
5, 111932, Note_on_c, 3, 63, 0
5, 112000, Note_on_c, 3, 63, 62
5, 112060, Note_on_c, 3, 63, 0
5, 112128, Note_on_c, 3, 63, 62
5, 112252, Note_on_c, 3, 63, 0
5, 112256, Note_on_c, 3, 66, 62
5, 112380, Note_on_c, 3, 66, 0
5, 112384, Note_on_c, 3, 65, 62
5, 112508, Note_on_c, 3, 65, 0
5, 112512, Note_on_c, 3, 66, 62
5, 112636, Note_on_c, 3, 66, 0
5, 112640, Note_on_c, 3, 65, 62
5, 112764, Note_on_c, 3, 65, 0
5, 112768, Note_on_c, 3, 63, 62
5, 112892, Note_on_c, 3, 63, 0
5, 112896, Note_on_c, 3, 70, 62
5, 113408, Note_on_c, 3, 69, 62
5, 113468, Note_on_c, 3, 69, 0
5, 113468, Note_on_c, 3, 70, 0
5, 113536, Note_on_c, 3, 70, 62
5, 113596, Note_on_c, 3, 70, 0
5, 113664, Note_on_c, 3, 72, 62
5, 113788, Note_on_c, 3, 72, 0
5, 113920, Note_on_c, 3, 72, 62
5, 113980, Note_on_c, 3, 72, 0
5, 114048, Note_on_c, 3, 72, 62
5, 114172, Note_on_c, 3, 72, 0
5, 114176, Note_on_c, 3, 74, 62
5, 114300, Note_on_c, 3, 74, 0
5, 114304, Note_on_c, 3, 72, 62
5, 114428, Note_on_c, 3, 72, 0
5, 114432, Note_on_c, 3, 70, 62
5, 114684, Note_on_c, 3, 70, 0
5, 114688, Note_on_c, 3, 70, 62
5, 114748, Note_on_c, 3, 70, 0
5, 114816, Note_on_c, 3, 70, 62
5, 114940, Note_on_c, 3, 70, 0
5, 114944, Note_on_c, 3, 69, 62
5, 115068, Note_on_c, 3, 69, 0
5, 115072, Note_on_c, 3, 70, 62
5, 115196, Note_on_c, 3, 70, 0
5, 115200, Note_on_c, 3, 72, 62
5, 115452, Note_on_c, 3, 72, 0
5, 115456, Note_on_c, 3, 72, 62
5, 115456, Note_on_c, 3, 72, 62
5, 115580, Note_on_c, 3, 72, 0
5, 115580, Note_on_c, 3, 72, 0
5, 115584, Note_on_c, 3, 72, 62
5, 115708, Note_on_c, 3, 72, 0
5, 115712, Note_on_c, 3, 74, 62
5, 115836, Note_on_c, 3, 74, 0
5, 115840, Note_on_c, 3, 72, 62
5, 115964, Note_on_c, 3, 72, 0
5, 115968, Note_on_c, 3, 70, 92
5, 116028, Note_on_c, 3, 70, 0
5, 116096, Note_on_c, 3, 72, 92
5, 116156, Note_on_c, 3, 72, 0
5, 116224, Note_on_c, 3, 70, 92
5, 116284, Note_on_c, 3, 70, 0
5, 116352, Note_on_c, 3, 68, 92
5, 116412, Note_on_c, 3, 68, 0
5, 116480, Note_on_c, 3, 70, 92
5, 116540, Note_on_c, 3, 70, 0
5, 116608, Note_on_c, 3, 68, 92
5, 116668, Note_on_c, 3, 68, 0
5, 116736, Note_on_c, 3, 67, 92
5, 116796, Note_on_c, 3, 67, 0
5, 116864, Note_on_c, 3, 68, 92
5, 116924, Note_on_c, 3, 68, 0
5, 116992, Note_on_c, 3, 67, 92
5, 117052, Note_on_c, 3, 67, 0
5, 117120, Note_on_c, 3, 65, 92
5, 117180, Note_on_c, 3, 65, 0
5, 117248, Note_on_c, 3, 67, 92
5, 117308, Note_on_c, 3, 67, 0
5, 117376, Note_on_c, 3, 65, 92
5, 117436, Note_on_c, 3, 65, 0
5, 117504, Note_on_c, 3, 63, 92
5, 117756, Note_on_c, 3, 63, 0
5, 117888, Note_on_c, 3, 58, 62
5, 118268, Note_on_c, 3, 58, 0
5, 118272, Note_on_c, 3, 60, 62
5, 119036, Note_on_c, 3, 60, 0
5, 119040, Note_on_c, 3, 58, 62
5, 120776, Note_on_c, 3, 58, 0
5, 120832, Note_on_c, 3, 70, 62
5, 120956, Note_on_c, 3, 70, 0
5, 120960, Note_on_c, 3, 67, 62
5, 121212, Note_on_c, 3, 67, 0
5, 121216, Note_on_c, 3, 75, 62
5, 121340, Note_on_c, 3, 75, 0
5, 121344, Note_on_c, 3, 72, 62
5, 121596, Note_on_c, 3, 72, 0
5, 121600, Note_on_c, 3, 68, 62
5, 121724, Note_on_c, 3, 68, 0
5, 121728, Note_on_c, 3, 63, 62
5, 121980, Note_on_c, 3, 63, 0
5, 121984, Note_on_c, 3, 75, 62
5, 122108, Note_on_c, 3, 75, 0
5, 122112, Note_on_c, 3, 70, 62
5, 122364, Note_on_c, 3, 70, 0
5, 122368, Note_on_c, 3, 67, 62
5, 122492, Note_on_c, 3, 67, 0
5, 122496, Note_on_c, 3, 63, 62
5, 122748, Note_on_c, 3, 63, 0
5, 122752, Note_on_c, 3, 75, 62
5, 122876, Note_on_c, 3, 75, 0
5, 122880, Note_on_c, 3, 75, 62
5, 123004, Note_on_c, 3, 75, 0
5, 123008, Note_on_c, 3, 74, 62
5, 123132, Note_on_c, 3, 74, 0
5, 123136, Note_on_c, 3, 72, 62
5, 123260, Note_on_c, 3, 72, 0
5, 123264, Note_on_c, 3, 70, 62
5, 123388, Note_on_c, 3, 70, 0
5, 123392, Note_on_c, 3, 72, 62
5, 123516, Note_on_c, 3, 72, 0
5, 123520, Note_on_c, 3, 74, 62
5, 123644, Note_on_c, 3, 74, 0
5, 123648, Note_on_c, 3, 75, 62
5, 123772, Note_on_c, 3, 75, 0
5, 124032, Note_on_c, 3, 77, 92
5, 124032, Note_on_c, 3, 70, 92
5, 124032, Note_on_c, 3, 62, 92
5, 124156, Note_on_c, 3, 62, 0
5, 124156, Note_on_c, 3, 70, 0
5, 124156, Note_on_c, 3, 77, 0
5, 124416, Note_on_c, 3, 79, 92
5, 124416, Note_on_c, 3, 70, 92
5, 124416, Note_on_c, 3, 63, 92
5, 124540, Note_on_c, 3, 63, 0
5, 124540, Note_on_c, 3, 70, 0
5, 124540, Note_on_c, 3, 79, 0
5, 124800, Note_on_c, 3, 80, 92
5, 124800, Note_on_c, 3, 70, 92
5, 124800, Note_on_c, 3, 62, 92
5, 124924, Note_on_c, 3, 62, 0
5, 124924, Note_on_c, 3, 70, 0
5, 124924, Note_on_c, 3, 80, 0
5, 125184, Note_on_c, 3, 82, 92
5, 125184, Note_on_c, 3, 70, 92
5, 125184, Note_on_c, 3, 63, 92
5, 125436, Note_on_c, 3, 63, 0
5, 125436, Note_on_c, 3, 70, 0
5, 125436, Note_on_c, 3, 82, 0
5, 126080, Note_on_c, 3, 64, 62
5, 126140, Note_on_c, 3, 64, 0
5, 126208, Note_on_c, 3, 64, 62
5, 126268, Note_on_c, 3, 64, 0
5, 126336, Note_on_c, 3, 64, 62
5, 126396, Note_on_c, 3, 64, 0
5, 126464, Note_on_c, 3, 64, 62
5, 126524, Note_on_c, 3, 64, 0
5, 126592, Note_on_c, 3, 64, 62
5, 126652, Note_on_c, 3, 64, 0
5, 126848, Note_on_c, 3, 63, 62
5, 126908, Note_on_c, 3, 63, 0
5, 126976, Note_on_c, 3, 63, 62
5, 127036, Note_on_c, 3, 63, 0
5, 127104, Note_on_c, 3, 63, 62
5, 127164, Note_on_c, 3, 63, 0
5, 127232, Note_on_c, 3, 63, 62
5, 127292, Note_on_c, 3, 63, 0
5, 127360, Note_on_c, 3, 63, 62
5, 127420, Note_on_c, 3, 63, 0
5, 127616, Note_on_c, 3, 62, 62
5, 127676, Note_on_c, 3, 62, 0
5, 127744, Note_on_c, 3, 62, 62
5, 127804, Note_on_c, 3, 62, 0
5, 127872, Note_on_c, 3, 62, 62
5, 127932, Note_on_c, 3, 62, 0
5, 128000, Note_on_c, 3, 62, 62
5, 128060, Note_on_c, 3, 62, 0
5, 128128, Note_on_c, 3, 62, 62
5, 128188, Note_on_c, 3, 62, 0
5, 128256, Note_on_c, 3, 63, 62
5, 128508, Note_on_c, 3, 63, 0
5, 129024, Note_on_c, 3, 59, 62
5, 129276, Note_on_c, 3, 59, 0
5, 129792, Note_on_c, 3, 66, 62
5, 130044, Note_on_c, 3, 66, 0
5, 130560, Note_on_c, 3, 65, 92
5, 130560, Note_on_c, 3, 56, 92
5, 132092, Note_on_c, 3, 56, 0
5, 132092, Note_on_c, 3, 65, 0
5, 132864, Note_on_c, 3, 63, 62
5, 133116, Note_on_c, 3, 63, 0
5, 133248, Note_on_c, 3, 63, 62
5, 133500, Note_on_c, 3, 63, 0
5, 133632, Note_on_c, 3, 62, 62
5, 133884, Note_on_c, 3, 62, 0
5, 134016, Note_on_c, 3, 65, 62
5, 134140, Note_on_c, 3, 65, 0
5, 134400, Note_on_c, 3, 63, 62
5, 134652, Note_on_c, 3, 63, 0
5, 134784, Note_on_c, 3, 63, 62
5, 135036, Note_on_c, 3, 63, 0
5, 135168, Note_on_c, 3, 62, 62
5, 135420, Note_on_c, 3, 62, 0
5, 135936, Note_on_c, 3, 63, 62
5, 136188, Note_on_c, 3, 63, 0
5, 136320, Note_on_c, 3, 63, 62
5, 136572, Note_on_c, 3, 63, 0
5, 136704, Note_on_c, 3, 62, 62
5, 136956, Note_on_c, 3, 62, 0
5, 137088, Note_on_c, 3, 65, 62
5, 137340, Note_on_c, 3, 65, 0
5, 137472, Note_on_c, 3, 63, 62
5, 137724, Note_on_c, 3, 63, 0
5, 138112, Note_on_c, 3, 70, 92
5, 138172, Note_on_c, 3, 70, 0
5, 138240, Note_on_c, 3, 75, 92
5, 138300, Note_on_c, 3, 75, 0
5, 138368, Note_on_c, 3, 75, 92
5, 138428, Note_on_c, 3, 75, 0
5, 138496, Note_on_c, 3, 75, 92
5, 138556, Note_on_c, 3, 75, 0
5, 138624, Note_on_c, 3, 75, 92
5, 138684, Note_on_c, 3, 75, 0
5, 138752, Note_on_c, 3, 75, 92
5, 138812, Note_on_c, 3, 75, 0
5, 138880, Note_on_c, 3, 75, 92
5, 138940, Note_on_c, 3, 75, 0
5, 139008, Note_on_c, 3, 74, 92
5, 139132, Note_on_c, 3, 74, 0
5, 139136, Note_on_c, 3, 77, 92
5, 139260, Note_on_c, 3, 77, 0
5, 139264, Note_on_c, 3, 82, 92
5, 139360, Note_on_c, 3, 82, 0
5, 139392, Note_on_c, 3, 82, 92
5, 139516, Note_on_c, 3, 82, 0
5, 139520, Note_on_c, 3, 80, 92
5, 139644, Note_on_c, 3, 80, 0
5, 139648, Note_on_c, 3, 77, 92
5, 139744, Note_on_c, 3, 77, 0
5, 139776, Note_on_c, 3, 76, 92
5, 139900, Note_on_c, 3, 76, 0
5, 139904, Note_on_c, 3, 79, 92
5, 140028, Note_on_c, 3, 79, 0
5, 140032, Note_on_c, 3, 84, 92
5, 140128, Note_on_c, 3, 84, 0
5, 140160, Note_on_c, 3, 84, 92
5, 140284, Note_on_c, 3, 84, 0
5, 140288, Note_on_c, 3, 82, 92
5, 140412, Note_on_c, 3, 82, 0
5, 140416, Note_on_c, 3, 79, 92
5, 140512, Note_on_c, 3, 79, 0
5, 140544, Note_on_c, 3, 80, 92
5, 140604, Note_on_c, 3, 80, 0
5, 140672, Note_on_c, 3, 84, 92
5, 140732, Note_on_c, 3, 84, 0
5, 140800, Note_on_c, 3, 76, 92
5, 140860, Note_on_c, 3, 76, 0
5, 140928, Note_on_c, 3, 77, 92
5, 140988, Note_on_c, 3, 77, 0
5, 141056, Note_on_c, 3, 80, 92
5, 141116, Note_on_c, 3, 80, 0
5, 141184, Note_on_c, 3, 72, 92
5, 141244, Note_on_c, 3, 72, 0
5, 141312, Note_on_c, 3, 74, 92
5, 141372, Note_on_c, 3, 74, 0
5, 141440, Note_on_c, 3, 77, 92
5, 141500, Note_on_c, 3, 77, 0
5, 141568, Note_on_c, 3, 69, 92
5, 141628, Note_on_c, 3, 69, 0
5, 141696, Note_on_c, 3, 70, 92
5, 141756, Note_on_c, 3, 70, 0
5, 141824, Note_on_c, 3, 77, 92
5, 141884, Note_on_c, 3, 77, 0
5, 141952, Note_on_c, 3, 68, 92
5, 142012, Note_on_c, 3, 68, 0
5, 142052, Program_c, 3, 44
5, 142080, Note_on_c, 3, 67, 92
5, 142460, Note_on_c, 3, 67, 0
5, 142464, Note_on_c, 3, 75, 92
5, 142844, Note_on_c, 3, 75, 0
5, 142848, Note_on_c, 3, 75, 92
5, 143228, Note_on_c, 3, 75, 0
5, 143232, Note_on_c, 3, 74, 92
5, 143612, Note_on_c, 3, 74, 0
5, 143616, Note_on_c, 3, 79, 92
5, 144380, Note_on_c, 3, 79, 0
5, 144384, Note_on_c, 3, 77, 92
5, 145148, Note_on_c, 3, 77, 0
5, 145152, Note_on_c, 3, 87, 92
5, 145916, Note_on_c, 3, 87, 0
5, 145920, Note_on_c, 3, 87, 92
5, 146300, Note_on_c, 3, 87, 0
5, 146304, Note_on_c, 3, 86, 92
5, 146660, Program_c, 3, 48
5, 146684, Note_on_c, 3, 86, 0
5, 146688, Note_on_c, 3, 87, 92
5, 147452, Note_on_c, 3, 87, 0
5, 147456, Note_on_c, 3, 65, 62
5, 148220, Note_on_c, 3, 65, 0
5, 148224, Note_on_c, 3, 68, 62
5, 148988, Note_on_c, 3, 68, 0
5, 148992, Note_on_c, 3, 67, 62
5, 149372, Note_on_c, 3, 67, 0
5, 149376, Note_on_c, 3, 70, 62
5, 150140, Note_on_c, 3, 70, 0
5, 150144, Note_on_c, 3, 68, 62
5, 150524, Note_on_c, 3, 68, 0
5, 150528, Note_on_c, 3, 67, 62
5, 150908, Note_on_c, 3, 67, 0
5, 150912, Note_on_c, 3, 66, 62
5, 151292, Note_on_c, 3, 66, 0
5, 151296, Note_on_c, 3, 65, 62
5, 151420, Note_on_c, 3, 65, 0
5, 151680, Note_on_c, 3, 68, 62
5, 151804, Note_on_c, 3, 68, 0
5, 152064, Note_on_c, 3, 67, 62
5, 152188, Note_on_c, 3, 67, 0
5, 152448, Note_on_c, 3, 65, 62
5, 152572, Note_on_c, 3, 65, 0
5, 152832, Note_on_c, 3, 63, 62
5, 153084, Note_on_c, 3, 63, 0
5, 153472, Note_on_c, 3, 75, 62
5, 153596, Note_on_c, 3, 75, 0
5, 153600, Note_on_c, 3, 74, 62
5, 153724, Note_on_c, 3, 74, 0
5, 153728, Note_on_c, 3, 77, 62
5, 153852, Note_on_c, 3, 77, 0
5, 153856, Note_on_c, 3, 82, 62
5, 153980, Note_on_c, 3, 82, 0
5, 153984, Note_on_c, 3, 82, 62
5, 154108, Note_on_c, 3, 82, 0
5, 154112, Note_on_c, 3, 80, 62
5, 154236, Note_on_c, 3, 80, 0
5, 154240, Note_on_c, 3, 77, 62
5, 154364, Note_on_c, 3, 77, 0
5, 154368, Note_on_c, 3, 75, 62
5, 154620, Note_on_c, 3, 75, 0
5, 155008, Note_on_c, 3, 75, 62
5, 155132, Note_on_c, 3, 75, 0
5, 155136, Note_on_c, 3, 74, 62
5, 155260, Note_on_c, 3, 74, 0
5, 155264, Note_on_c, 3, 77, 62
5, 155388, Note_on_c, 3, 77, 0
5, 155392, Note_on_c, 3, 82, 62
5, 155516, Note_on_c, 3, 82, 0
5, 155520, Note_on_c, 3, 82, 62
5, 155644, Note_on_c, 3, 82, 0
5, 155648, Note_on_c, 3, 80, 62
5, 155772, Note_on_c, 3, 80, 0
5, 155776, Note_on_c, 3, 77, 62
5, 155900, Note_on_c, 3, 77, 0
5, 155904, Note_on_c, 3, 75, 62
5, 156156, Note_on_c, 3, 75, 0
5, 156416, Note_on_c, 3, 75, 62
5, 156540, Note_on_c, 3, 75, 0
5, 156672, Note_on_c, 3, 74, 62
5, 156796, Note_on_c, 3, 74, 0
5, 156800, Note_on_c, 3, 77, 62
5, 156924, Note_on_c, 3, 77, 0
5, 156928, Note_on_c, 3, 82, 62
5, 157052, Note_on_c, 3, 82, 0
5, 157056, Note_on_c, 3, 82, 62
5, 157180, Note_on_c, 3, 82, 0
5, 157184, Note_on_c, 3, 80, 62
5, 157308, Note_on_c, 3, 80, 0
5, 157312, Note_on_c, 3, 77, 62
5, 157436, Note_on_c, 3, 77, 0
5, 157440, Note_on_c, 3, 75, 62
5, 157564, Note_on_c, 3, 75, 0
5, 157568, Note_on_c, 3, 63, 92
5, 157568, Note_on_c, 3, 55, 92
5, 157628, Note_on_c, 3, 55, 0
5, 157628, Note_on_c, 3, 63, 0
5, 157696, Note_on_c, 3, 63, 92
5, 157696, Note_on_c, 3, 55, 92
5, 157756, Note_on_c, 3, 55, 0
5, 157756, Note_on_c, 3, 63, 0
5, 157824, Note_on_c, 3, 63, 92
5, 157824, Note_on_c, 3, 55, 92
5, 157884, Note_on_c, 3, 55, 0
5, 157884, Note_on_c, 3, 63, 0
5, 157952, Note_on_c, 3, 63, 92
5, 157952, Note_on_c, 3, 55, 92
5, 158012, Note_on_c, 3, 55, 0
5, 158012, Note_on_c, 3, 63, 0
5, 158080, Note_on_c, 3, 63, 92
5, 158080, Note_on_c, 3, 55, 92
5, 158140, Note_on_c, 3, 55, 0
5, 158140, Note_on_c, 3, 63, 0
5, 158208, Note_on_c, 3, 63, 92
5, 158208, Note_on_c, 3, 55, 92
5, 158332, Note_on_c, 3, 55, 0
5, 158332, Note_on_c, 3, 63, 0
5, 158592, Note_on_c, 3, 79, 92
5, 158592, Note_on_c, 3, 70, 92
5, 158592, Note_on_c, 3, 63, 92
5, 158716, Note_on_c, 3, 63, 0
5, 158716, Note_on_c, 3, 70, 0
5, 158716, Note_on_c, 3, 79, 0
5, 158976, Note_on_c, 3, 63, 92
5, 158976, Note_on_c, 3, 55, 92
5, 159100, Note_on_c, 3, 55, 0
5, 159100, Note_on_c, 3, 63, 0
5, 159100, End_track
6, 0, Start_track
6, 0, MIDI_port, 0
6, 0, Title_t, "Violin 2"
6, 0, Program_c, 4, 48
6, 0, Control_c, 4, 7, 127
6, 0, Control_c, 4, 10, 40
6, 0, Control_c, 4, 0, 0
6, 0, Control_c, 4, 32, 0
6, 18, Control_c, 4, 121, 0
6, 42, Control_c, 4, 7, 127
6, 61, Control_c, 4, 91, 100
6, 71, Control_c, 4, 93, 10
6, 384, Program_c, 4, 48
6, 768, Note_on_c, 4, 55, 43
6, 1020, Note_on_c, 4, 55, 0
6, 1152, Note_on_c, 4, 58, 43
6, 1404, Note_on_c, 4, 58, 0
6, 1536, Note_on_c, 4, 56, 43
6, 1788, Note_on_c, 4, 56, 0
6, 1920, Note_on_c, 4, 56, 43
6, 2044, Note_on_c, 4, 56, 0
6, 2304, Note_on_c, 4, 55, 43
6, 2556, Note_on_c, 4, 55, 0
6, 2688, Note_on_c, 4, 57, 43
6, 2940, Note_on_c, 4, 57, 0
6, 3072, Note_on_c, 4, 58, 43
6, 3324, Note_on_c, 4, 58, 0
6, 3840, Note_on_c, 4, 55, 43
6, 4092, Note_on_c, 4, 55, 0
6, 4224, Note_on_c, 4, 58, 43
6, 4476, Note_on_c, 4, 58, 0
6, 4608, Note_on_c, 4, 56, 43
6, 4860, Note_on_c, 4, 56, 0
6, 4992, Note_on_c, 4, 56, 43
6, 5244, Note_on_c, 4, 56, 0
6, 5376, Note_on_c, 4, 55, 43
6, 5628, Note_on_c, 4, 55, 0
6, 5760, Note_on_c, 4, 56, 43
6, 6012, Note_on_c, 4, 56, 0
6, 6144, Note_on_c, 4, 55, 43
6, 6204, Note_on_c, 4, 55, 0
6, 6272, Note_on_c, 4, 55, 43
6, 6332, Note_on_c, 4, 55, 0
6, 6400, Note_on_c, 4, 55, 43
6, 6460, Note_on_c, 4, 55, 0
6, 6528, Note_on_c, 4, 55, 43
6, 6652, Note_on_c, 4, 55, 0
6, 6784, Note_on_c, 4, 58, 43
6, 6844, Note_on_c, 4, 58, 0
6, 6912, Note_on_c, 4, 63, 64
6, 6972, Note_on_c, 4, 63, 0
6, 7040, Note_on_c, 4, 63, 64
6, 7100, Note_on_c, 4, 63, 0
6, 7168, Note_on_c, 4, 63, 64
6, 7228, Note_on_c, 4, 63, 0
6, 7296, Note_on_c, 4, 63, 64
6, 7356, Note_on_c, 4, 63, 0
6, 7424, Note_on_c, 4, 63, 64
6, 7484, Note_on_c, 4, 63, 0
6, 7552, Note_on_c, 4, 63, 64
6, 7612, Note_on_c, 4, 63, 0
6, 7680, Note_on_c, 4, 62, 64
6, 7804, Note_on_c, 4, 62, 0
6, 7808, Note_on_c, 4, 65, 64
6, 7932, Note_on_c, 4, 65, 0
6, 7936, Note_on_c, 4, 70, 64
6, 7996, Note_on_c, 4, 70, 0
6, 8064, Note_on_c, 4, 70, 64
6, 8188, Note_on_c, 4, 70, 0
6, 8192, Note_on_c, 4, 68, 64
6, 8252, Note_on_c, 4, 68, 0
6, 8320, Note_on_c, 4, 65, 64
6, 8380, Note_on_c, 4, 65, 0
6, 8448, Note_on_c, 4, 63, 64
6, 8508, Note_on_c, 4, 63, 0
6, 8576, Note_on_c, 4, 63, 64
6, 8636, Note_on_c, 4, 63, 0
6, 8704, Note_on_c, 4, 63, 64
6, 8764, Note_on_c, 4, 63, 0
6, 8832, Note_on_c, 4, 63, 64
6, 8892, Note_on_c, 4, 63, 0
6, 8960, Note_on_c, 4, 62, 64
6, 9020, Note_on_c, 4, 62, 0
6, 9088, Note_on_c, 4, 63, 64
6, 9148, Note_on_c, 4, 63, 0
6, 9216, Note_on_c, 4, 65, 64
6, 9340, Note_on_c, 4, 65, 0
6, 9344, Note_on_c, 4, 58, 64
6, 9404, Note_on_c, 4, 58, 0
6, 9472, Note_on_c, 4, 58, 64
6, 9532, Note_on_c, 4, 58, 0
6, 9600, Note_on_c, 4, 58, 64
6, 9852, Note_on_c, 4, 58, 0
6, 9856, Note_on_c, 4, 58, 64
6, 9916, Note_on_c, 4, 58, 0
6, 9984, Note_on_c, 4, 63, 64
6, 10044, Note_on_c, 4, 63, 0
6, 10112, Note_on_c, 4, 63, 64
6, 10172, Note_on_c, 4, 63, 0
6, 10240, Note_on_c, 4, 63, 64
6, 10300, Note_on_c, 4, 63, 0
6, 10368, Note_on_c, 4, 63, 64
6, 10428, Note_on_c, 4, 63, 0
6, 10496, Note_on_c, 4, 63, 64
6, 10556, Note_on_c, 4, 63, 0
6, 10624, Note_on_c, 4, 63, 64
6, 10684, Note_on_c, 4, 63, 0
6, 10752, Note_on_c, 4, 62, 64
6, 10876, Note_on_c, 4, 62, 0
6, 10880, Note_on_c, 4, 65, 64
6, 10940, Note_on_c, 4, 65, 0
6, 11008, Note_on_c, 4, 70, 64
6, 11068, Note_on_c, 4, 70, 0
6, 11136, Note_on_c, 4, 70, 64
6, 11260, Note_on_c, 4, 70, 0
6, 11264, Note_on_c, 4, 68, 64
6, 11324, Note_on_c, 4, 68, 0
6, 11392, Note_on_c, 4, 65, 64
6, 11452, Note_on_c, 4, 65, 0
6, 11520, Note_on_c, 4, 67, 64
6, 11644, Note_on_c, 4, 67, 0
6, 11648, Note_on_c, 4, 70, 64
6, 11708, Note_on_c, 4, 70, 0
6, 11776, Note_on_c, 4, 75, 64
6, 11836, Note_on_c, 4, 75, 0
6, 11904, Note_on_c, 4, 77, 64
6, 11964, Note_on_c, 4, 77, 0
6, 12032, Note_on_c, 4, 75, 64
6, 12092, Note_on_c, 4, 75, 0
6, 12160, Note_on_c, 4, 77, 64
6, 12220, Note_on_c, 4, 77, 0
6, 12288, Note_on_c, 4, 75, 64
6, 12348, Note_on_c, 4, 75, 0
6, 12416, Note_on_c, 4, 63, 64
6, 12416, Note_on_c, 4, 55, 64
6, 12476, Note_on_c, 4, 55, 0
6, 12476, Note_on_c, 4, 63, 0
6, 12544, Note_on_c, 4, 63, 64
6, 12544, Note_on_c, 4, 55, 64
6, 12604, Note_on_c, 4, 55, 0
6, 12604, Note_on_c, 4, 63, 0
6, 12672, Note_on_c, 4, 63, 64
6, 12672, Note_on_c, 4, 55, 64
6, 12796, Note_on_c, 4, 55, 0
6, 12796, Note_on_c, 4, 63, 0
6, 13184, Note_on_c, 4, 55, 43
6, 13244, Note_on_c, 4, 55, 0
6, 13312, Note_on_c, 4, 55, 43
6, 13372, Note_on_c, 4, 55, 0
6, 13440, Note_on_c, 4, 55, 43
6, 13500, Note_on_c, 4, 55, 0
6, 13568, Note_on_c, 4, 55, 43
6, 13628, Note_on_c, 4, 55, 0
6, 13696, Note_on_c, 4, 55, 43
6, 13756, Note_on_c, 4, 55, 0
6, 13952, Note_on_c, 4, 55, 43
6, 14012, Note_on_c, 4, 55, 0
6, 14080, Note_on_c, 4, 55, 43
6, 14140, Note_on_c, 4, 55, 0
6, 14208, Note_on_c, 4, 55, 43
6, 14268, Note_on_c, 4, 55, 0
6, 14336, Note_on_c, 4, 55, 43
6, 14396, Note_on_c, 4, 55, 0
6, 14464, Note_on_c, 4, 55, 43
6, 14524, Note_on_c, 4, 55, 0
6, 14720, Note_on_c, 4, 56, 43
6, 14780, Note_on_c, 4, 56, 0
6, 14848, Note_on_c, 4, 56, 43
6, 14908, Note_on_c, 4, 56, 0
6, 15104, Note_on_c, 4, 56, 43
6, 15164, Note_on_c, 4, 56, 0
6, 15232, Note_on_c, 4, 56, 43
6, 15292, Note_on_c, 4, 56, 0
6, 15488, Note_on_c, 4, 55, 43
6, 15548, Note_on_c, 4, 55, 0
6, 15616, Note_on_c, 4, 55, 43
6, 15676, Note_on_c, 4, 55, 0
6, 15744, Note_on_c, 4, 55, 43
6, 15804, Note_on_c, 4, 55, 0
6, 15872, Note_on_c, 4, 55, 43
6, 15932, Note_on_c, 4, 55, 0
6, 16000, Note_on_c, 4, 55, 43
6, 16060, Note_on_c, 4, 55, 0
6, 16256, Note_on_c, 4, 55, 43
6, 16316, Note_on_c, 4, 55, 0
6, 16384, Note_on_c, 4, 55, 43
6, 16444, Note_on_c, 4, 55, 0
6, 16512, Note_on_c, 4, 55, 43
6, 16572, Note_on_c, 4, 55, 0
6, 16640, Note_on_c, 4, 55, 43
6, 16700, Note_on_c, 4, 55, 0
6, 16768, Note_on_c, 4, 55, 43
6, 16828, Note_on_c, 4, 55, 0
6, 17024, Note_on_c, 4, 55, 43
6, 17084, Note_on_c, 4, 55, 0
6, 17152, Note_on_c, 4, 55, 43
6, 17212, Note_on_c, 4, 55, 0
6, 17280, Note_on_c, 4, 55, 43
6, 17340, Note_on_c, 4, 55, 0
6, 17408, Note_on_c, 4, 55, 43
6, 17468, Note_on_c, 4, 55, 0
6, 17536, Note_on_c, 4, 55, 43
6, 17596, Note_on_c, 4, 55, 0
6, 17792, Note_on_c, 4, 56, 43
6, 17852, Note_on_c, 4, 56, 0
6, 17920, Note_on_c, 4, 56, 43
6, 17980, Note_on_c, 4, 56, 0
6, 18048, Note_on_c, 4, 56, 43
6, 18108, Note_on_c, 4, 56, 0
6, 18176, Note_on_c, 4, 56, 43
6, 18236, Note_on_c, 4, 56, 0
6, 18304, Note_on_c, 4, 56, 43
6, 18364, Note_on_c, 4, 56, 0
6, 18432, Note_on_c, 4, 55, 43
6, 18556, Note_on_c, 4, 55, 0
6, 18688, Note_on_c, 4, 75, 43
6, 18812, Note_on_c, 4, 75, 0
6, 18816, Note_on_c, 4, 74, 43
6, 19068, Note_on_c, 4, 74, 0
6, 19072, Note_on_c, 4, 72, 43
6, 19196, Note_on_c, 4, 72, 0
6, 19200, Note_on_c, 4, 71, 43
6, 19452, Note_on_c, 4, 71, 0
6, 19456, Note_on_c, 4, 72, 43
6, 19580, Note_on_c, 4, 72, 0
6, 19584, Note_on_c, 4, 74, 43
6, 19836, Note_on_c, 4, 74, 0
6, 19840, Note_on_c, 4, 71, 43
6, 19964, Note_on_c, 4, 71, 0
6, 19968, Note_on_c, 4, 72, 43
6, 20220, Note_on_c, 4, 72, 0
6, 20224, Note_on_c, 4, 74, 43
6, 20348, Note_on_c, 4, 74, 0
6, 20352, Note_on_c, 4, 72, 43
6, 20604, Note_on_c, 4, 72, 0
6, 20608, Note_on_c, 4, 70, 43
6, 20732, Note_on_c, 4, 70, 0
6, 20736, Note_on_c, 4, 69, 43
6, 20988, Note_on_c, 4, 69, 0
6, 20992, Note_on_c, 4, 70, 43
6, 21116, Note_on_c, 4, 70, 0
6, 21120, Note_on_c, 4, 72, 43
6, 21372, Note_on_c, 4, 72, 0
6, 21376, Note_on_c, 4, 69, 43
6, 21500, Note_on_c, 4, 69, 0
6, 21504, Note_on_c, 4, 70, 43
6, 21756, Note_on_c, 4, 70, 0
6, 22272, Note_on_c, 4, 62, 43
6, 22844, Note_on_c, 4, 62, 0
6, 22912, Note_on_c, 4, 64, 43
6, 22972, Note_on_c, 4, 64, 0
6, 23040, Note_on_c, 4, 65, 43
6, 23164, Note_on_c, 4, 65, 0
6, 23808, Note_on_c, 4, 70, 43
6, 24572, Note_on_c, 4, 70, 0
6, 24576, Note_on_c, 4, 69, 43
6, 24700, Note_on_c, 4, 69, 0
6, 24832, Note_on_c, 4, 57, 43
6, 24892, Note_on_c, 4, 57, 0
6, 24960, Note_on_c, 4, 57, 43
6, 25084, Note_on_c, 4, 57, 0
6, 25088, Note_on_c, 4, 58, 43
6, 25212, Note_on_c, 4, 58, 0
6, 25216, Note_on_c, 4, 57, 43
6, 25340, Note_on_c, 4, 57, 0
6, 25344, Note_on_c, 4, 58, 43
6, 25468, Note_on_c, 4, 58, 0
6, 25600, Note_on_c, 4, 58, 43
6, 25660, Note_on_c, 4, 58, 0
6, 25728, Note_on_c, 4, 58, 43
6, 25852, Note_on_c, 4, 58, 0
6, 25984, Note_on_c, 4, 58, 43
6, 26044, Note_on_c, 4, 58, 0
6, 26112, Note_on_c, 4, 57, 43
6, 26236, Note_on_c, 4, 57, 0
6, 26368, Note_on_c, 4, 57, 43
6, 26428, Note_on_c, 4, 57, 0
6, 26496, Note_on_c, 4, 57, 43
6, 26620, Note_on_c, 4, 57, 0
6, 26624, Note_on_c, 4, 58, 43
6, 26748, Note_on_c, 4, 58, 0
6, 26752, Note_on_c, 4, 57, 43
6, 26876, Note_on_c, 4, 57, 0
6, 26880, Note_on_c, 4, 58, 43
6, 27004, Note_on_c, 4, 58, 0
6, 27136, Note_on_c, 4, 58, 43
6, 27196, Note_on_c, 4, 58, 0
6, 27264, Note_on_c, 4, 58, 43
6, 27388, Note_on_c, 4, 58, 0
6, 27520, Note_on_c, 4, 58, 43
6, 27580, Note_on_c, 4, 58, 0
6, 27648, Note_on_c, 4, 57, 64
6, 27648, Note_on_c, 4, 65, 64
6, 27708, Note_on_c, 4, 65, 0
6, 27708, Note_on_c, 4, 57, 0
6, 27776, Note_on_c, 4, 67, 64
6, 27836, Note_on_c, 4, 67, 0
6, 27904, Note_on_c, 4, 65, 64
6, 27964, Note_on_c, 4, 65, 0
6, 28032, Note_on_c, 4, 63, 64
6, 28092, Note_on_c, 4, 63, 0
6, 28160, Note_on_c, 4, 65, 64
6, 28220, Note_on_c, 4, 65, 0
6, 28288, Note_on_c, 4, 63, 64
6, 28348, Note_on_c, 4, 63, 0
6, 28416, Note_on_c, 4, 62, 64
6, 28476, Note_on_c, 4, 62, 0
6, 28544, Note_on_c, 4, 63, 64
6, 28604, Note_on_c, 4, 63, 0
6, 28672, Note_on_c, 4, 62, 64
6, 28732, Note_on_c, 4, 62, 0
6, 28800, Note_on_c, 4, 60, 64
6, 28860, Note_on_c, 4, 60, 0
6, 28928, Note_on_c, 4, 62, 64
6, 28988, Note_on_c, 4, 62, 0
6, 29056, Note_on_c, 4, 60, 64
6, 29116, Note_on_c, 4, 60, 0
6, 29184, Note_on_c, 4, 58, 43
6, 29564, Note_on_c, 4, 58, 0
6, 29568, Note_on_c, 4, 62, 43
6, 29948, Note_on_c, 4, 62, 0
6, 29952, Note_on_c, 4, 63, 43
6, 30716, Note_on_c, 4, 63, 0
6, 30784, Note_on_c, 4, 62, 43
6, 31488, Note_on_c, 4, 63, 43
6, 31548, Note_on_c, 4, 62, 0
6, 32252, Note_on_c, 4, 63, 0
6, 32256, Note_on_c, 4, 62, 43
6, 32508, Note_on_c, 4, 62, 0
6, 32512, Note_on_c, 4, 74, 43
6, 32636, Note_on_c, 4, 74, 0
6, 32640, Note_on_c, 4, 70, 43
6, 32892, Note_on_c, 4, 70, 0
6, 32896, Note_on_c, 4, 74, 43
6, 33020, Note_on_c, 4, 74, 0
6, 33024, Note_on_c, 4, 75, 43
6, 33276, Note_on_c, 4, 75, 0
6, 33280, Note_on_c, 4, 70, 43
6, 33404, Note_on_c, 4, 70, 0
6, 33408, Note_on_c, 4, 67, 43
6, 33660, Note_on_c, 4, 67, 0
6, 33664, Note_on_c, 4, 79, 43
6, 33788, Note_on_c, 4, 79, 0
6, 33792, Note_on_c, 4, 74, 43
6, 34044, Note_on_c, 4, 74, 0
6, 34048, Note_on_c, 4, 70, 43
6, 34172, Note_on_c, 4, 70, 0
6, 34176, Note_on_c, 4, 62, 43
6, 34428, Note_on_c, 4, 62, 0
6, 34432, Note_on_c, 4, 74, 43
6, 34556, Note_on_c, 4, 74, 0
6, 34560, Note_on_c, 4, 72, 43
6, 34812, Note_on_c, 4, 72, 0
6, 34816, Note_on_c, 4, 75, 43
6, 34940, Note_on_c, 4, 75, 0
6, 34944, Note_on_c, 4, 69, 43
6, 35068, Note_on_c, 4, 69, 0
6, 35072, Note_on_c, 4, 70, 43
6, 35196, Note_on_c, 4, 70, 0
6, 35200, Note_on_c, 4, 72, 43
6, 35324, Note_on_c, 4, 72, 0
6, 35328, Note_on_c, 4, 74, 43
6, 35452, Note_on_c, 4, 74, 0
6, 35712, Note_on_c, 4, 74, 64
6, 35712, Note_on_c, 4, 58, 64
6, 35712, Note_on_c, 4, 65, 64
6, 35836, Note_on_c, 4, 65, 0
6, 35836, Note_on_c, 4, 58, 0
6, 35836, Note_on_c, 4, 74, 0
6, 36096, Note_on_c, 4, 75, 64
6, 36096, Note_on_c, 4, 58, 64
6, 36096, Note_on_c, 4, 67, 64
6, 36220, Note_on_c, 4, 67, 0
6, 36220, Note_on_c, 4, 58, 0
6, 36220, Note_on_c, 4, 75, 0
6, 36480, Note_on_c, 4, 77, 64
6, 36480, Note_on_c, 4, 62, 64
6, 36480, Note_on_c, 4, 70, 64
6, 36604, Note_on_c, 4, 70, 0
6, 36604, Note_on_c, 4, 62, 0
6, 36604, Note_on_c, 4, 77, 0
6, 36864, Note_on_c, 4, 79, 64
6, 36864, Note_on_c, 4, 70, 64
6, 36864, Note_on_c, 4, 63, 64
6, 37116, Note_on_c, 4, 63, 0
6, 37116, Note_on_c, 4, 70, 0
6, 37116, Note_on_c, 4, 79, 0
6, 37760, Note_on_c, 4, 58, 43
6, 37820, Note_on_c, 4, 58, 0
6, 37888, Note_on_c, 4, 58, 43
6, 37948, Note_on_c, 4, 58, 0
6, 38016, Note_on_c, 4, 58, 43
6, 38076, Note_on_c, 4, 58, 0
6, 38144, Note_on_c, 4, 58, 43
6, 38204, Note_on_c, 4, 58, 0
6, 38272, Note_on_c, 4, 58, 43
6, 38332, Note_on_c, 4, 58, 0
6, 38400, Note_on_c, 4, 58, 43
6, 38652, Note_on_c, 4, 58, 0
6, 38656, Note_on_c, 4, 65, 43
6, 38780, Note_on_c, 4, 65, 0
6, 38784, Note_on_c, 4, 63, 43
6, 39036, Note_on_c, 4, 63, 0
6, 39040, Note_on_c, 4, 72, 43
6, 39164, Note_on_c, 4, 72, 0
6, 39296, Note_on_c, 4, 70, 43
6, 39356, Note_on_c, 4, 70, 0
6, 39424, Note_on_c, 4, 70, 43
6, 39484, Note_on_c, 4, 70, 0
6, 39680, Note_on_c, 4, 69, 43
6, 39740, Note_on_c, 4, 69, 0
6, 39808, Note_on_c, 4, 69, 43
6, 39868, Note_on_c, 4, 69, 0
6, 39936, Note_on_c, 4, 70, 64
6, 39996, Note_on_c, 4, 70, 0
6, 40320, Note_on_c, 4, 74, 64
6, 40320, Note_on_c, 4, 65, 64
6, 40320, Note_on_c, 4, 58, 64
6, 40444, Note_on_c, 4, 58, 0
6, 40444, Note_on_c, 4, 65, 0
6, 40444, Note_on_c, 4, 74, 0
6, 40704, Note_on_c, 4, 75, 64
6, 40704, Note_on_c, 4, 67, 64
6, 40704, Note_on_c, 4, 58, 64
6, 40828, Note_on_c, 4, 58, 0
6, 40828, Note_on_c, 4, 67, 0
6, 40828, Note_on_c, 4, 75, 0
6, 41088, Note_on_c, 4, 77, 64
6, 41088, Note_on_c, 4, 70, 64
6, 41088, Note_on_c, 4, 62, 64
6, 41212, Note_on_c, 4, 62, 0
6, 41212, Note_on_c, 4, 70, 0
6, 41212, Note_on_c, 4, 77, 0
6, 41472, Note_on_c, 4, 79, 64
6, 41472, Note_on_c, 4, 70, 64
6, 41472, Note_on_c, 4, 63, 64
6, 41724, Note_on_c, 4, 63, 0
6, 41724, Note_on_c, 4, 70, 0
6, 41724, Note_on_c, 4, 79, 0
6, 42368, Note_on_c, 4, 60, 43
6, 42428, Note_on_c, 4, 60, 0
6, 42496, Note_on_c, 4, 60, 43
6, 42556, Note_on_c, 4, 60, 0
6, 42624, Note_on_c, 4, 60, 43
6, 42684, Note_on_c, 4, 60, 0
6, 42752, Note_on_c, 4, 60, 43
6, 42812, Note_on_c, 4, 60, 0
6, 42880, Note_on_c, 4, 60, 43
6, 43004, Note_on_c, 4, 60, 0
6, 43008, Note_on_c, 4, 62, 43
6, 43068, Note_on_c, 4, 62, 0
6, 43136, Note_on_c, 4, 58, 43
6, 43196, Note_on_c, 4, 58, 0
6, 43264, Note_on_c, 4, 58, 43
6, 43324, Note_on_c, 4, 58, 0
6, 43392, Note_on_c, 4, 58, 43
6, 43452, Note_on_c, 4, 58, 0
6, 43776, Note_on_c, 4, 58, 43
6, 43836, Note_on_c, 4, 58, 0
6, 43904, Note_on_c, 4, 58, 43
6, 43964, Note_on_c, 4, 58, 0
6, 44032, Note_on_c, 4, 58, 43
6, 44092, Note_on_c, 4, 58, 0
6, 44160, Note_on_c, 4, 58, 43
6, 44220, Note_on_c, 4, 58, 0
6, 44544, Note_on_c, 4, 70, 43
6, 45308, Note_on_c, 4, 70, 0
6, 45312, Note_on_c, 4, 70, 43
6, 45372, Note_on_c, 4, 70, 0
6, 45440, Note_on_c, 4, 70, 43
6, 45500, Note_on_c, 4, 70, 0
6, 45568, Note_on_c, 4, 70, 43
6, 45628, Note_on_c, 4, 70, 0
6, 45696, Note_on_c, 4, 69, 43
6, 45756, Note_on_c, 4, 69, 0
6, 45824, Note_on_c, 4, 69, 43
6, 45884, Note_on_c, 4, 69, 0
6, 45952, Note_on_c, 4, 69, 43
6, 46012, Note_on_c, 4, 69, 0
6, 46080, Note_on_c, 4, 70, 43
6, 46204, Note_on_c, 4, 70, 0
6, 47616, Note_on_c, 4, 70, 43
6, 47676, Note_on_c, 4, 70, 0
6, 47744, Note_on_c, 4, 70, 43
6, 47804, Note_on_c, 4, 70, 0
6, 47872, Note_on_c, 4, 70, 43
6, 47932, Note_on_c, 4, 70, 0
6, 48000, Note_on_c, 4, 70, 43
6, 48060, Note_on_c, 4, 70, 0
6, 48128, Note_on_c, 4, 70, 43
6, 48188, Note_on_c, 4, 70, 0
6, 48256, Note_on_c, 4, 70, 43
6, 48316, Note_on_c, 4, 70, 0
6, 48384, Note_on_c, 4, 69, 43
6, 48508, Note_on_c, 4, 69, 0
6, 48512, Note_on_c, 4, 72, 43
6, 48636, Note_on_c, 4, 72, 0
6, 48640, Note_on_c, 4, 74, 43
6, 48764, Note_on_c, 4, 74, 0
6, 48768, Note_on_c, 4, 75, 43
6, 48892, Note_on_c, 4, 75, 0
6, 48896, Note_on_c, 4, 74, 43
6, 49020, Note_on_c, 4, 74, 0
6, 49024, Note_on_c, 4, 72, 43
6, 49148, Note_on_c, 4, 72, 0
6, 49152, Note_on_c, 4, 74, 43
6, 49212, Note_on_c, 4, 74, 0
6, 49280, Note_on_c, 4, 74, 43
6, 49340, Note_on_c, 4, 74, 0
6, 49408, Note_on_c, 4, 74, 43
6, 49468, Note_on_c, 4, 74, 0
6, 49536, Note_on_c, 4, 74, 43
6, 49596, Note_on_c, 4, 74, 0
6, 49664, Note_on_c, 4, 74, 43
6, 49724, Note_on_c, 4, 74, 0
6, 49792, Note_on_c, 4, 74, 43
6, 49852, Note_on_c, 4, 74, 0
6, 49920, Note_on_c, 4, 75, 43
6, 49980, Note_on_c, 4, 75, 0
6, 50048, Note_on_c, 4, 75, 43
6, 50172, Note_on_c, 4, 75, 0
6, 50176, Note_on_c, 4, 77, 43
6, 50300, Note_on_c, 4, 77, 0
6, 50304, Note_on_c, 4, 79, 43
6, 50428, Note_on_c, 4, 79, 0
6, 50432, Note_on_c, 4, 77, 43
6, 50556, Note_on_c, 4, 77, 0
6, 50560, Note_on_c, 4, 75, 43
6, 50684, Note_on_c, 4, 75, 0
6, 50688, Note_on_c, 4, 77, 43
6, 50748, Note_on_c, 4, 77, 0
6, 50816, Note_on_c, 4, 79, 43
6, 50876, Note_on_c, 4, 79, 0
6, 50944, Note_on_c, 4, 77, 43
6, 51004, Note_on_c, 4, 77, 0
6, 51072, Note_on_c, 4, 75, 43
6, 51132, Note_on_c, 4, 75, 0
6, 51200, Note_on_c, 4, 74, 43
6, 51260, Note_on_c, 4, 74, 0
6, 51328, Note_on_c, 4, 72, 43
6, 51388, Note_on_c, 4, 72, 0
6, 51456, Note_on_c, 4, 70, 43
6, 51516, Note_on_c, 4, 70, 0
6, 51584, Note_on_c, 4, 68, 43
6, 51644, Note_on_c, 4, 68, 0
6, 51712, Note_on_c, 4, 67, 43
6, 51772, Note_on_c, 4, 67, 0
6, 51840, Note_on_c, 4, 65, 43
6, 51900, Note_on_c, 4, 65, 0
6, 51968, Note_on_c, 4, 63, 43
6, 52028, Note_on_c, 4, 63, 0
6, 52096, Note_on_c, 4, 62, 43
6, 52156, Note_on_c, 4, 62, 0
6, 52224, Note_on_c, 4, 55, 43
6, 52476, Note_on_c, 4, 55, 0
6, 52608, Note_on_c, 4, 58, 43
6, 52860, Note_on_c, 4, 58, 0
6, 52992, Note_on_c, 4, 56, 43
6, 53244, Note_on_c, 4, 56, 0
6, 53376, Note_on_c, 4, 56, 43
6, 53500, Note_on_c, 4, 56, 0
6, 53760, Note_on_c, 4, 55, 43
6, 54012, Note_on_c, 4, 55, 0
6, 54144, Note_on_c, 4, 57, 43
6, 54396, Note_on_c, 4, 57, 0
6, 54528, Note_on_c, 4, 58, 43
6, 54780, Note_on_c, 4, 58, 0
6, 55296, Note_on_c, 4, 55, 43
6, 55548, Note_on_c, 4, 55, 0
6, 55680, Note_on_c, 4, 58, 43
6, 55932, Note_on_c, 4, 58, 0
6, 56064, Note_on_c, 4, 56, 43
6, 56316, Note_on_c, 4, 56, 0
6, 56448, Note_on_c, 4, 56, 43
6, 56700, Note_on_c, 4, 56, 0
6, 56832, Note_on_c, 4, 55, 43
6, 57084, Note_on_c, 4, 55, 0
6, 57216, Note_on_c, 4, 56, 43
6, 57468, Note_on_c, 4, 56, 0
6, 57600, Note_on_c, 4, 55, 43
6, 57660, Note_on_c, 4, 55, 0
6, 57728, Note_on_c, 4, 55, 43
6, 57788, Note_on_c, 4, 55, 0
6, 57856, Note_on_c, 4, 55, 43
6, 57916, Note_on_c, 4, 55, 0
6, 57984, Note_on_c, 4, 55, 43
6, 58108, Note_on_c, 4, 55, 0
6, 58240, Note_on_c, 4, 58, 43
6, 58300, Note_on_c, 4, 58, 0
6, 58368, Note_on_c, 4, 63, 64
6, 58428, Note_on_c, 4, 63, 0
6, 58496, Note_on_c, 4, 63, 64
6, 58556, Note_on_c, 4, 63, 0
6, 58624, Note_on_c, 4, 63, 64
6, 58684, Note_on_c, 4, 63, 0
6, 58752, Note_on_c, 4, 63, 64
6, 58812, Note_on_c, 4, 63, 0
6, 58880, Note_on_c, 4, 63, 64
6, 58940, Note_on_c, 4, 63, 0
6, 59008, Note_on_c, 4, 63, 64
6, 59068, Note_on_c, 4, 63, 0
6, 59136, Note_on_c, 4, 62, 64
6, 59260, Note_on_c, 4, 62, 0
6, 59264, Note_on_c, 4, 65, 64
6, 59388, Note_on_c, 4, 65, 0
6, 59392, Note_on_c, 4, 70, 64
6, 59452, Note_on_c, 4, 70, 0
6, 59520, Note_on_c, 4, 70, 64
6, 59644, Note_on_c, 4, 70, 0
6, 59648, Note_on_c, 4, 68, 64
6, 59708, Note_on_c, 4, 68, 0
6, 59776, Note_on_c, 4, 65, 64
6, 59836, Note_on_c, 4, 65, 0
6, 59904, Note_on_c, 4, 63, 64
6, 59964, Note_on_c, 4, 63, 0
6, 60032, Note_on_c, 4, 63, 64
6, 60092, Note_on_c, 4, 63, 0
6, 60160, Note_on_c, 4, 63, 64
6, 60220, Note_on_c, 4, 63, 0
6, 60288, Note_on_c, 4, 63, 64
6, 60348, Note_on_c, 4, 63, 0
6, 60416, Note_on_c, 4, 62, 64
6, 60476, Note_on_c, 4, 62, 0
6, 60544, Note_on_c, 4, 63, 64
6, 60604, Note_on_c, 4, 63, 0
6, 60672, Note_on_c, 4, 65, 64
6, 60796, Note_on_c, 4, 65, 0
6, 60800, Note_on_c, 4, 58, 64
6, 60860, Note_on_c, 4, 58, 0
6, 60928, Note_on_c, 4, 58, 64
6, 60988, Note_on_c, 4, 58, 0
6, 61056, Note_on_c, 4, 58, 64
6, 61308, Note_on_c, 4, 58, 0
6, 61312, Note_on_c, 4, 58, 64
6, 61372, Note_on_c, 4, 58, 0
6, 61440, Note_on_c, 4, 63, 64
6, 61500, Note_on_c, 4, 63, 0
6, 61568, Note_on_c, 4, 63, 64
6, 61628, Note_on_c, 4, 63, 0
6, 61696, Note_on_c, 4, 63, 64
6, 61756, Note_on_c, 4, 63, 0
6, 61824, Note_on_c, 4, 63, 64
6, 61884, Note_on_c, 4, 63, 0
6, 61952, Note_on_c, 4, 63, 64
6, 62012, Note_on_c, 4, 63, 0
6, 62080, Note_on_c, 4, 63, 64
6, 62140, Note_on_c, 4, 63, 0
6, 62208, Note_on_c, 4, 62, 64
6, 62332, Note_on_c, 4, 62, 0
6, 62336, Note_on_c, 4, 65, 64
6, 62396, Note_on_c, 4, 65, 0
6, 62464, Note_on_c, 4, 70, 64
6, 62524, Note_on_c, 4, 70, 0
6, 62592, Note_on_c, 4, 70, 64
6, 62716, Note_on_c, 4, 70, 0
6, 62720, Note_on_c, 4, 68, 64
6, 62780, Note_on_c, 4, 68, 0
6, 62848, Note_on_c, 4, 65, 64
6, 62908, Note_on_c, 4, 65, 0
6, 62976, Note_on_c, 4, 67, 64
6, 63100, Note_on_c, 4, 67, 0
6, 63104, Note_on_c, 4, 70, 64
6, 63164, Note_on_c, 4, 70, 0
6, 63232, Note_on_c, 4, 75, 64
6, 63292, Note_on_c, 4, 75, 0
6, 63360, Note_on_c, 4, 77, 64
6, 63420, Note_on_c, 4, 77, 0
6, 63488, Note_on_c, 4, 75, 64
6, 63548, Note_on_c, 4, 75, 0
6, 63616, Note_on_c, 4, 77, 64
6, 63676, Note_on_c, 4, 77, 0
6, 63744, Note_on_c, 4, 75, 64
6, 63804, Note_on_c, 4, 75, 0
6, 63872, Note_on_c, 4, 63, 64
6, 63872, Note_on_c, 4, 55, 64
6, 63932, Note_on_c, 4, 55, 0
6, 63932, Note_on_c, 4, 63, 0
6, 64000, Note_on_c, 4, 63, 64
6, 64000, Note_on_c, 4, 55, 64
6, 64060, Note_on_c, 4, 55, 0
6, 64060, Note_on_c, 4, 63, 0
6, 64128, Note_on_c, 4, 63, 64
6, 64128, Note_on_c, 4, 55, 64
6, 64252, Note_on_c, 4, 55, 0
6, 64252, Note_on_c, 4, 63, 0
6, 65408, Note_on_c, 4, 55, 43
6, 65468, Note_on_c, 4, 55, 0
6, 65536, Note_on_c, 4, 55, 43
6, 65596, Note_on_c, 4, 55, 0
6, 65664, Note_on_c, 4, 55, 43
6, 65724, Note_on_c, 4, 55, 0
6, 65792, Note_on_c, 4, 55, 43
6, 65852, Note_on_c, 4, 55, 0
6, 65920, Note_on_c, 4, 55, 43
6, 65980, Note_on_c, 4, 55, 0
6, 66176, Note_on_c, 4, 56, 43
6, 66236, Note_on_c, 4, 56, 0
6, 66304, Note_on_c, 4, 56, 43
6, 66364, Note_on_c, 4, 56, 0
6, 66432, Note_on_c, 4, 56, 43
6, 66492, Note_on_c, 4, 56, 0
6, 66560, Note_on_c, 4, 56, 43
6, 66620, Note_on_c, 4, 56, 0
6, 66688, Note_on_c, 4, 56, 43
6, 66748, Note_on_c, 4, 56, 0
6, 66944, Note_on_c, 4, 56, 43
6, 67068, Note_on_c, 4, 56, 0
6, 67072, Note_on_c, 4, 55, 43
6, 67132, Note_on_c, 4, 55, 0
6, 67200, Note_on_c, 4, 55, 43
6, 67260, Note_on_c, 4, 55, 0
6, 67328, Note_on_c, 4, 55, 43
6, 67388, Note_on_c, 4, 55, 0
6, 67456, Note_on_c, 4, 55, 43
6, 67516, Note_on_c, 4, 55, 0
6, 67584, Note_on_c, 4, 55, 43
6, 69500, Note_on_c, 4, 55, 0
6, 69504, Note_on_c, 4, 60, 43
6, 69884, Note_on_c, 4, 60, 0
6, 69888, Note_on_c, 4, 62, 43
6, 70012, Note_on_c, 4, 62, 0
6, 70016, Note_on_c, 4, 65, 43
6, 70140, Note_on_c, 4, 65, 0
6, 70144, Note_on_c, 4, 63, 43
6, 70268, Note_on_c, 4, 63, 0
6, 70272, Note_on_c, 4, 62, 43
6, 70396, Note_on_c, 4, 62, 0
6, 70400, Note_on_c, 4, 60, 43
6, 70524, Note_on_c, 4, 60, 0
6, 70528, Note_on_c, 4, 59, 43
6, 70652, Note_on_c, 4, 59, 0
6, 70656, Note_on_c, 4, 60, 43
6, 70908, Note_on_c, 4, 60, 0
6, 71552, Note_on_c, 4, 55, 43
6, 71612, Note_on_c, 4, 55, 0
6, 71680, Note_on_c, 4, 55, 43
6, 71740, Note_on_c, 4, 55, 0
6, 71808, Note_on_c, 4, 55, 43
6, 71868, Note_on_c, 4, 55, 0
6, 71936, Note_on_c, 4, 55, 43
6, 71996, Note_on_c, 4, 55, 0
6, 72064, Note_on_c, 4, 55, 43
6, 72124, Note_on_c, 4, 55, 0
6, 72320, Note_on_c, 4, 56, 43
6, 72380, Note_on_c, 4, 56, 0
6, 72448, Note_on_c, 4, 56, 43
6, 72508, Note_on_c, 4, 56, 0
6, 72576, Note_on_c, 4, 56, 43
6, 72636, Note_on_c, 4, 56, 0
6, 72704, Note_on_c, 4, 56, 43
6, 72764, Note_on_c, 4, 56, 0
6, 72832, Note_on_c, 4, 56, 43
6, 72892, Note_on_c, 4, 56, 0
6, 72960, Note_on_c, 4, 56, 43
6, 73724, Note_on_c, 4, 56, 0
6, 73856, Note_on_c, 4, 55, 43
6, 73916, Note_on_c, 4, 55, 0
6, 73984, Note_on_c, 4, 55, 43
6, 74044, Note_on_c, 4, 55, 0
6, 74240, Note_on_c, 4, 58, 43
6, 74300, Note_on_c, 4, 58, 0
6, 74368, Note_on_c, 4, 58, 43
6, 74428, Note_on_c, 4, 58, 0
6, 74624, Note_on_c, 4, 56, 43
6, 74684, Note_on_c, 4, 56, 0
6, 74752, Note_on_c, 4, 56, 43
6, 74812, Note_on_c, 4, 56, 0
6, 75008, Note_on_c, 4, 63, 43
6, 75068, Note_on_c, 4, 63, 0
6, 75136, Note_on_c, 4, 63, 43
6, 75196, Note_on_c, 4, 63, 0
6, 75392, Note_on_c, 4, 61, 43
6, 75516, Note_on_c, 4, 61, 0
6, 75520, Note_on_c, 4, 58, 43
6, 75580, Note_on_c, 4, 58, 0
6, 75776, Note_on_c, 4, 56, 43
6, 75836, Note_on_c, 4, 56, 0
6, 75904, Note_on_c, 4, 55, 43
6, 75964, Note_on_c, 4, 55, 0
6, 76032, Note_on_c, 4, 56, 43
6, 76156, Note_on_c, 4, 56, 0
6, 76288, Note_on_c, 4, 72, 43
6, 76412, Note_on_c, 4, 72, 0
6, 76416, Note_on_c, 4, 70, 43
6, 76668, Note_on_c, 4, 70, 0
6, 76672, Note_on_c, 4, 68, 43
6, 76796, Note_on_c, 4, 68, 0
6, 76800, Note_on_c, 4, 67, 43
6, 77052, Note_on_c, 4, 67, 0
6, 77056, Note_on_c, 4, 68, 43
6, 77180, Note_on_c, 4, 68, 0
6, 77184, Note_on_c, 4, 70, 43
6, 77436, Note_on_c, 4, 70, 0
6, 77440, Note_on_c, 4, 67, 43
6, 77564, Note_on_c, 4, 67, 0
6, 77568, Note_on_c, 4, 68, 43
6, 77820, Note_on_c, 4, 68, 0
6, 77824, Note_on_c, 4, 75, 43
6, 77884, Note_on_c, 4, 75, 0
6, 77952, Note_on_c, 4, 73, 43
6, 78076, Note_on_c, 4, 73, 0
6, 78080, Note_on_c, 4, 72, 43
6, 78204, Note_on_c, 4, 72, 0
6, 78208, Note_on_c, 4, 70, 43
6, 78332, Note_on_c, 4, 70, 0
6, 78336, Note_on_c, 4, 69, 43
6, 78588, Note_on_c, 4, 69, 0
6, 78592, Note_on_c, 4, 70, 43
6, 78716, Note_on_c, 4, 70, 0
6, 78720, Note_on_c, 4, 72, 43
6, 78972, Note_on_c, 4, 72, 0
6, 78976, Note_on_c, 4, 69, 43
6, 79100, Note_on_c, 4, 69, 0
6, 79104, Note_on_c, 4, 70, 43
6, 79356, Note_on_c, 4, 70, 0
6, 79360, Note_on_c, 4, 77, 43
6, 79420, Note_on_c, 4, 77, 0
6, 79488, Note_on_c, 4, 75, 43
6, 79612, Note_on_c, 4, 75, 0
6, 79616, Note_on_c, 4, 74, 43
6, 79740, Note_on_c, 4, 74, 0
6, 79744, Note_on_c, 4, 72, 43
6, 79868, Note_on_c, 4, 72, 0
6, 79872, Note_on_c, 4, 71, 43
6, 80124, Note_on_c, 4, 71, 0
6, 80128, Note_on_c, 4, 72, 43
6, 80252, Note_on_c, 4, 72, 0
6, 80256, Note_on_c, 4, 74, 43
6, 80508, Note_on_c, 4, 74, 0
6, 80512, Note_on_c, 4, 71, 43
6, 80636, Note_on_c, 4, 71, 0
6, 80640, Note_on_c, 4, 72, 43
6, 80892, Note_on_c, 4, 72, 0
6, 81664, Note_on_c, 4, 60, 43
6, 81724, Note_on_c, 4, 60, 0
6, 81792, Note_on_c, 4, 60, 43
6, 81916, Note_on_c, 4, 60, 0
6, 81920, Note_on_c, 4, 58, 43
6, 82044, Note_on_c, 4, 58, 0
6, 82048, Note_on_c, 4, 60, 43
6, 82172, Note_on_c, 4, 60, 0
6, 82176, Note_on_c, 4, 62, 43
6, 82300, Note_on_c, 4, 62, 0
6, 82304, Note_on_c, 4, 60, 43
6, 82428, Note_on_c, 4, 60, 0
6, 82432, Note_on_c, 4, 62, 43
6, 82556, Note_on_c, 4, 62, 0
6, 82560, Note_on_c, 4, 63, 43
6, 82684, Note_on_c, 4, 63, 0
6, 82688, Note_on_c, 4, 62, 43
6, 82812, Note_on_c, 4, 62, 0
6, 82816, Note_on_c, 4, 63, 43
6, 82940, Note_on_c, 4, 63, 0
6, 82944, Note_on_c, 4, 60, 43
6, 83068, Note_on_c, 4, 60, 0
6, 83072, Note_on_c, 4, 58, 43
6, 83196, Note_on_c, 4, 58, 0
6, 83200, Note_on_c, 4, 60, 43
6, 83324, Note_on_c, 4, 60, 0
6, 83328, Note_on_c, 4, 62, 43
6, 83452, Note_on_c, 4, 62, 0
6, 83456, Note_on_c, 4, 60, 43
6, 83580, Note_on_c, 4, 60, 0
6, 83584, Note_on_c, 4, 62, 43
6, 83708, Note_on_c, 4, 62, 0
6, 83712, Note_on_c, 4, 55, 43
6, 83772, Note_on_c, 4, 55, 0
6, 83840, Note_on_c, 4, 67, 43
6, 83900, Note_on_c, 4, 67, 0
6, 83968, Note_on_c, 4, 67, 43
6, 84028, Note_on_c, 4, 67, 0
6, 84096, Note_on_c, 4, 67, 43
6, 84156, Note_on_c, 4, 67, 0
6, 84224, Note_on_c, 4, 67, 43
6, 84284, Note_on_c, 4, 67, 0
6, 84352, Note_on_c, 4, 67, 43
6, 84412, Note_on_c, 4, 67, 0
6, 84480, Note_on_c, 4, 69, 43
6, 84604, Note_on_c, 4, 69, 0
6, 84608, Note_on_c, 4, 70, 43
6, 84732, Note_on_c, 4, 70, 0
6, 84736, Note_on_c, 4, 72, 43
6, 84860, Note_on_c, 4, 72, 0
6, 84864, Note_on_c, 4, 74, 43
6, 84988, Note_on_c, 4, 74, 0
6, 84992, Note_on_c, 4, 72, 43
6, 85116, Note_on_c, 4, 72, 0
6, 85120, Note_on_c, 4, 69, 43
6, 85244, Note_on_c, 4, 69, 0
6, 85248, Note_on_c, 4, 70, 43
6, 85500, Note_on_c, 4, 70, 0
6, 85504, Note_on_c, 4, 74, 43
6, 85628, Note_on_c, 4, 74, 0
6, 85632, Note_on_c, 4, 70, 43
6, 85884, Note_on_c, 4, 70, 0
6, 85888, Note_on_c, 4, 67, 43
6, 86012, Note_on_c, 4, 67, 0
6, 86016, Note_on_c, 4, 63, 43
6, 86396, Note_on_c, 4, 63, 0
6, 86400, Note_on_c, 4, 62, 43
6, 86652, Note_on_c, 4, 62, 0
6, 86656, Note_on_c, 4, 60, 43
6, 86780, Note_on_c, 4, 60, 0
6, 86784, Note_on_c, 4, 58, 43
6, 86784, Note_on_c, 4, 58, 43
6, 86844, Note_on_c, 4, 58, 0
6, 86844, Note_on_c, 4, 58, 0
6, 86912, Note_on_c, 4, 67, 43
6, 86972, Note_on_c, 4, 67, 0
6, 87040, Note_on_c, 4, 67, 43
6, 87100, Note_on_c, 4, 67, 0
6, 87168, Note_on_c, 4, 67, 43
6, 87228, Note_on_c, 4, 67, 0
6, 87296, Note_on_c, 4, 67, 43
6, 87356, Note_on_c, 4, 67, 0
6, 87424, Note_on_c, 4, 67, 43
6, 87484, Note_on_c, 4, 67, 0
6, 87552, Note_on_c, 4, 67, 43
6, 87676, Note_on_c, 4, 67, 0
6, 87680, Note_on_c, 4, 68, 43
6, 87804, Note_on_c, 4, 68, 0
6, 87808, Note_on_c, 4, 70, 43
6, 87932, Note_on_c, 4, 70, 0
6, 87936, Note_on_c, 4, 72, 43
6, 88060, Note_on_c, 4, 72, 0
6, 88064, Note_on_c, 4, 70, 43
6, 88188, Note_on_c, 4, 70, 0
6, 88192, Note_on_c, 4, 67, 43
6, 88316, Note_on_c, 4, 67, 0
6, 88320, Note_on_c, 4, 68, 43
6, 88572, Note_on_c, 4, 68, 0
6, 88576, Note_on_c, 4, 72, 43
6, 88700, Note_on_c, 4, 72, 0
6, 88704, Note_on_c, 4, 68, 43
6, 88956, Note_on_c, 4, 68, 0
6, 88960, Note_on_c, 4, 65, 43
6, 89084, Note_on_c, 4, 65, 0
6, 89088, Note_on_c, 4, 61, 43
6, 89468, Note_on_c, 4, 61, 0
6, 89472, Note_on_c, 4, 60, 43
6, 89724, Note_on_c, 4, 60, 0
6, 89728, Note_on_c, 4, 58, 43
6, 89852, Note_on_c, 4, 58, 0
6, 89856, Note_on_c, 4, 56, 43
6, 89916, Note_on_c, 4, 56, 0
6, 89984, Note_on_c, 4, 68, 43
6, 90044, Note_on_c, 4, 68, 0
6, 90112, Note_on_c, 4, 68, 43
6, 90172, Note_on_c, 4, 68, 0
6, 90240, Note_on_c, 4, 68, 43
6, 90300, Note_on_c, 4, 68, 0
6, 90368, Note_on_c, 4, 68, 43
6, 90428, Note_on_c, 4, 68, 0
6, 90496, Note_on_c, 4, 68, 43
6, 90556, Note_on_c, 4, 68, 0
6, 90624, Note_on_c, 4, 65, 43
6, 90748, Note_on_c, 4, 65, 0
6, 90752, Note_on_c, 4, 67, 43
6, 90876, Note_on_c, 4, 67, 0
6, 90880, Note_on_c, 4, 68, 43
6, 91004, Note_on_c, 4, 68, 0
6, 91008, Note_on_c, 4, 70, 43
6, 91132, Note_on_c, 4, 70, 0
6, 91136, Note_on_c, 4, 68, 43
6, 91260, Note_on_c, 4, 68, 0
6, 91264, Note_on_c, 4, 65, 43
6, 91388, Note_on_c, 4, 65, 0
6, 91392, Note_on_c, 4, 67, 43
6, 91644, Note_on_c, 4, 67, 0
6, 91648, Note_on_c, 4, 70, 43
6, 91772, Note_on_c, 4, 70, 0
6, 91776, Note_on_c, 4, 67, 43
6, 92028, Note_on_c, 4, 67, 0
6, 92032, Note_on_c, 4, 63, 43
6, 92156, Note_on_c, 4, 63, 0
6, 92160, Note_on_c, 4, 59, 43
6, 92540, Note_on_c, 4, 59, 0
6, 92544, Note_on_c, 4, 58, 43
6, 92796, Note_on_c, 4, 58, 0
6, 92800, Note_on_c, 4, 56, 43
6, 92924, Note_on_c, 4, 56, 0
6, 92928, Note_on_c, 4, 55, 43
6, 93180, Note_on_c, 4, 55, 0
6, 93312, Note_on_c, 4, 58, 43
6, 93564, Note_on_c, 4, 58, 0
6, 93696, Note_on_c, 4, 56, 43
6, 93948, Note_on_c, 4, 56, 0
6, 94080, Note_on_c, 4, 56, 43
6, 94204, Note_on_c, 4, 56, 0
6, 94464, Note_on_c, 4, 55, 43
6, 94716, Note_on_c, 4, 55, 0
6, 94848, Note_on_c, 4, 57, 43
6, 95100, Note_on_c, 4, 57, 0
6, 95232, Note_on_c, 4, 58, 43
6, 95484, Note_on_c, 4, 58, 0
6, 96000, Note_on_c, 4, 55, 43
6, 96252, Note_on_c, 4, 55, 0
6, 96384, Note_on_c, 4, 58, 43
6, 96636, Note_on_c, 4, 58, 0
6, 96768, Note_on_c, 4, 56, 43
6, 97020, Note_on_c, 4, 56, 0
6, 97152, Note_on_c, 4, 56, 43
6, 97404, Note_on_c, 4, 56, 0
6, 97536, Note_on_c, 4, 55, 43
6, 97788, Note_on_c, 4, 55, 0
6, 97920, Note_on_c, 4, 56, 43
6, 98172, Note_on_c, 4, 56, 0
6, 98304, Note_on_c, 4, 55, 43
6, 98364, Note_on_c, 4, 55, 0
6, 98432, Note_on_c, 4, 55, 43
6, 98492, Note_on_c, 4, 55, 0
6, 98560, Note_on_c, 4, 55, 43
6, 98620, Note_on_c, 4, 55, 0
6, 98688, Note_on_c, 4, 55, 43
6, 98812, Note_on_c, 4, 55, 0
6, 98944, Note_on_c, 4, 58, 43
6, 99004, Note_on_c, 4, 58, 0
6, 99072, Note_on_c, 4, 63, 64
6, 99132, Note_on_c, 4, 63, 0
6, 99200, Note_on_c, 4, 63, 64
6, 99260, Note_on_c, 4, 63, 0
6, 99328, Note_on_c, 4, 63, 64
6, 99388, Note_on_c, 4, 63, 0
6, 99456, Note_on_c, 4, 63, 64
6, 99516, Note_on_c, 4, 63, 0
6, 99584, Note_on_c, 4, 63, 64
6, 99644, Note_on_c, 4, 63, 0
6, 99712, Note_on_c, 4, 63, 64
6, 99772, Note_on_c, 4, 63, 0
6, 99840, Note_on_c, 4, 62, 64
6, 99964, Note_on_c, 4, 62, 0
6, 99968, Note_on_c, 4, 65, 64
6, 100092, Note_on_c, 4, 65, 0
6, 100096, Note_on_c, 4, 70, 64
6, 100156, Note_on_c, 4, 70, 0
6, 100224, Note_on_c, 4, 70, 64
6, 100348, Note_on_c, 4, 70, 0
6, 100352, Note_on_c, 4, 68, 64
6, 100412, Note_on_c, 4, 68, 0
6, 100480, Note_on_c, 4, 65, 64
6, 100540, Note_on_c, 4, 65, 0
6, 100608, Note_on_c, 4, 63, 64
6, 100668, Note_on_c, 4, 63, 0
6, 100736, Note_on_c, 4, 63, 64
6, 100796, Note_on_c, 4, 63, 0
6, 100864, Note_on_c, 4, 63, 64
6, 100924, Note_on_c, 4, 63, 0
6, 100992, Note_on_c, 4, 63, 64
6, 101052, Note_on_c, 4, 63, 0
6, 101120, Note_on_c, 4, 62, 64
6, 101180, Note_on_c, 4, 62, 0
6, 101248, Note_on_c, 4, 63, 64
6, 101308, Note_on_c, 4, 63, 0
6, 101376, Note_on_c, 4, 65, 64
6, 101500, Note_on_c, 4, 65, 0
6, 101504, Note_on_c, 4, 58, 64
6, 101564, Note_on_c, 4, 58, 0
6, 101632, Note_on_c, 4, 58, 64
6, 101692, Note_on_c, 4, 58, 0
6, 101760, Note_on_c, 4, 58, 64
6, 102012, Note_on_c, 4, 58, 0
6, 102016, Note_on_c, 4, 58, 64
6, 102076, Note_on_c, 4, 58, 0
6, 102144, Note_on_c, 4, 63, 64
6, 102204, Note_on_c, 4, 63, 0
6, 102272, Note_on_c, 4, 63, 64
6, 102332, Note_on_c, 4, 63, 0
6, 102400, Note_on_c, 4, 63, 64
6, 102460, Note_on_c, 4, 63, 0
6, 102528, Note_on_c, 4, 63, 64
6, 102588, Note_on_c, 4, 63, 0
6, 102656, Note_on_c, 4, 63, 64
6, 102716, Note_on_c, 4, 63, 0
6, 102784, Note_on_c, 4, 63, 64
6, 102844, Note_on_c, 4, 63, 0
6, 102912, Note_on_c, 4, 62, 64
6, 103036, Note_on_c, 4, 62, 0
6, 103040, Note_on_c, 4, 65, 64
6, 103100, Note_on_c, 4, 65, 0
6, 103168, Note_on_c, 4, 70, 64
6, 103228, Note_on_c, 4, 70, 0
6, 103296, Note_on_c, 4, 70, 64
6, 103420, Note_on_c, 4, 70, 0
6, 103424, Note_on_c, 4, 68, 64
6, 103484, Note_on_c, 4, 68, 0
6, 103552, Note_on_c, 4, 65, 64
6, 103612, Note_on_c, 4, 65, 0
6, 103680, Note_on_c, 4, 67, 64
6, 103804, Note_on_c, 4, 67, 0
6, 103808, Note_on_c, 4, 70, 64
6, 103868, Note_on_c, 4, 70, 0
6, 103936, Note_on_c, 4, 75, 64
6, 103996, Note_on_c, 4, 75, 0
6, 104064, Note_on_c, 4, 77, 64
6, 104124, Note_on_c, 4, 77, 0
6, 104192, Note_on_c, 4, 75, 64
6, 104252, Note_on_c, 4, 75, 0
6, 104320, Note_on_c, 4, 77, 64
6, 104380, Note_on_c, 4, 77, 0
6, 104448, Note_on_c, 4, 75, 64
6, 104508, Note_on_c, 4, 75, 0
6, 104576, Note_on_c, 4, 63, 64
6, 104576, Note_on_c, 4, 55, 64
6, 104636, Note_on_c, 4, 55, 0
6, 104636, Note_on_c, 4, 63, 0
6, 104704, Note_on_c, 4, 63, 64
6, 104704, Note_on_c, 4, 55, 64
6, 104764, Note_on_c, 4, 55, 0
6, 104764, Note_on_c, 4, 63, 0
6, 104832, Note_on_c, 4, 63, 64
6, 104832, Note_on_c, 4, 55, 64
6, 104956, Note_on_c, 4, 55, 0
6, 104956, Note_on_c, 4, 63, 0
6, 105344, Note_on_c, 4, 55, 43
6, 105404, Note_on_c, 4, 55, 0
6, 105472, Note_on_c, 4, 55, 43
6, 105532, Note_on_c, 4, 55, 0
6, 105600, Note_on_c, 4, 55, 43
6, 105660, Note_on_c, 4, 55, 0
6, 105728, Note_on_c, 4, 55, 43
6, 105788, Note_on_c, 4, 55, 0
6, 105856, Note_on_c, 4, 55, 43
6, 105916, Note_on_c, 4, 55, 0
6, 106112, Note_on_c, 4, 55, 43
6, 106172, Note_on_c, 4, 55, 0
6, 106240, Note_on_c, 4, 55, 43
6, 106300, Note_on_c, 4, 55, 0
6, 106368, Note_on_c, 4, 55, 43
6, 106428, Note_on_c, 4, 55, 0
6, 106496, Note_on_c, 4, 55, 43
6, 106556, Note_on_c, 4, 55, 0
6, 106624, Note_on_c, 4, 55, 43
6, 106684, Note_on_c, 4, 55, 0
6, 106880, Note_on_c, 4, 56, 43
6, 106940, Note_on_c, 4, 56, 0
6, 107008, Note_on_c, 4, 56, 43
6, 107068, Note_on_c, 4, 56, 0
6, 107264, Note_on_c, 4, 56, 43
6, 107324, Note_on_c, 4, 56, 0
6, 107392, Note_on_c, 4, 56, 43
6, 107452, Note_on_c, 4, 56, 0
6, 107648, Note_on_c, 4, 55, 43
6, 107708, Note_on_c, 4, 55, 0
6, 107776, Note_on_c, 4, 55, 43
6, 107836, Note_on_c, 4, 55, 0
6, 107904, Note_on_c, 4, 55, 43
6, 107964, Note_on_c, 4, 55, 0
6, 108032, Note_on_c, 4, 55, 43
6, 108092, Note_on_c, 4, 55, 0
6, 108160, Note_on_c, 4, 55, 43
6, 108220, Note_on_c, 4, 55, 0
6, 108416, Note_on_c, 4, 58, 43
6, 108476, Note_on_c, 4, 58, 0
6, 108544, Note_on_c, 4, 58, 43
6, 108604, Note_on_c, 4, 58, 0
6, 108672, Note_on_c, 4, 58, 43
6, 108732, Note_on_c, 4, 58, 0
6, 108800, Note_on_c, 4, 58, 43
6, 108860, Note_on_c, 4, 58, 0
6, 108928, Note_on_c, 4, 58, 43
6, 108988, Note_on_c, 4, 58, 0
6, 109056, Note_on_c, 4, 58, 43
6, 109820, Note_on_c, 4, 58, 0
6, 109824, Note_on_c, 4, 59, 43
6, 109852, Note_on_c, 4, 59, 0
6, 109952, Note_on_c, 4, 59, 43
6, 109980, Note_on_c, 4, 59, 0
6, 110080, Note_on_c, 4, 59, 43
6, 110108, Note_on_c, 4, 59, 0
6, 110208, Note_on_c, 4, 59, 43
6, 110236, Note_on_c, 4, 59, 0
6, 110336, Note_on_c, 4, 59, 43
6, 110364, Note_on_c, 4, 59, 0
6, 110464, Note_on_c, 4, 59, 43
6, 110492, Note_on_c, 4, 59, 0
6, 110592, Note_on_c, 4, 59, 43
6, 111356, Note_on_c, 4, 59, 0
6, 111488, Note_on_c, 4, 57, 43
6, 111548, Note_on_c, 4, 57, 0
6, 111616, Note_on_c, 4, 57, 43
6, 111676, Note_on_c, 4, 57, 0
6, 111744, Note_on_c, 4, 57, 43
6, 111804, Note_on_c, 4, 57, 0
6, 111872, Note_on_c, 4, 57, 43
6, 111932, Note_on_c, 4, 57, 0
6, 112000, Note_on_c, 4, 57, 43
6, 112060, Note_on_c, 4, 57, 0
6, 112128, Note_on_c, 4, 57, 43
6, 112892, Note_on_c, 4, 57, 0
6, 112896, Note_on_c, 4, 58, 43
6, 112896, Note_on_c, 4, 62, 43
6, 112956, Note_on_c, 4, 62, 0
6, 112956, Note_on_c, 4, 58, 0
6, 113024, Note_on_c, 4, 62, 43
6, 113084, Note_on_c, 4, 62, 0
6, 113152, Note_on_c, 4, 62, 43
6, 113212, Note_on_c, 4, 62, 0
6, 113280, Note_on_c, 4, 62, 43
6, 113404, Note_on_c, 4, 62, 0
6, 113408, Note_on_c, 4, 63, 43
6, 113532, Note_on_c, 4, 63, 0
6, 113536, Note_on_c, 4, 62, 43
6, 113660, Note_on_c, 4, 62, 0
6, 113664, Note_on_c, 4, 63, 43
6, 113724, Note_on_c, 4, 63, 0
6, 113792, Note_on_c, 4, 63, 43
6, 113852, Note_on_c, 4, 63, 0
6, 113920, Note_on_c, 4, 63, 43
6, 113980, Note_on_c, 4, 63, 0
6, 114048, Note_on_c, 4, 63, 43
6, 114172, Note_on_c, 4, 63, 0
6, 114176, Note_on_c, 4, 65, 43
6, 114300, Note_on_c, 4, 65, 0
6, 114304, Note_on_c, 4, 63, 43
6, 114428, Note_on_c, 4, 63, 0
6, 114432, Note_on_c, 4, 62, 43
6, 114492, Note_on_c, 4, 62, 0
6, 114560, Note_on_c, 4, 62, 43
6, 114620, Note_on_c, 4, 62, 0
6, 114688, Note_on_c, 4, 62, 43
6, 114748, Note_on_c, 4, 62, 0
6, 114816, Note_on_c, 4, 62, 43
6, 114940, Note_on_c, 4, 62, 0
6, 114944, Note_on_c, 4, 63, 43
6, 115068, Note_on_c, 4, 63, 0
6, 115072, Note_on_c, 4, 62, 43
6, 115196, Note_on_c, 4, 62, 0
6, 115200, Note_on_c, 4, 63, 43
6, 115260, Note_on_c, 4, 63, 0
6, 115328, Note_on_c, 4, 63, 43
6, 115388, Note_on_c, 4, 63, 0
6, 115456, Note_on_c, 4, 63, 43
6, 115516, Note_on_c, 4, 63, 0
6, 115584, Note_on_c, 4, 63, 43
6, 115708, Note_on_c, 4, 63, 0
6, 115712, Note_on_c, 4, 65, 43
6, 115836, Note_on_c, 4, 65, 0
6, 115840, Note_on_c, 4, 63, 43
6, 115964, Note_on_c, 4, 63, 0
6, 115968, Note_on_c, 4, 70, 64
6, 115968, Note_on_c, 4, 62, 64
6, 116028, Note_on_c, 4, 62, 0
6, 116028, Note_on_c, 4, 70, 0
6, 116096, Note_on_c, 4, 72, 64
6, 116156, Note_on_c, 4, 72, 0
6, 116224, Note_on_c, 4, 70, 64
6, 116284, Note_on_c, 4, 70, 0
6, 116352, Note_on_c, 4, 68, 64
6, 116412, Note_on_c, 4, 68, 0
6, 116480, Note_on_c, 4, 70, 64
6, 116540, Note_on_c, 4, 70, 0
6, 116608, Note_on_c, 4, 68, 64
6, 116668, Note_on_c, 4, 68, 0
6, 116736, Note_on_c, 4, 67, 64
6, 116796, Note_on_c, 4, 67, 0
6, 116864, Note_on_c, 4, 68, 64
6, 116924, Note_on_c, 4, 68, 0
6, 116992, Note_on_c, 4, 67, 64
6, 117052, Note_on_c, 4, 67, 0
6, 117120, Note_on_c, 4, 65, 64
6, 117180, Note_on_c, 4, 65, 0
6, 117248, Note_on_c, 4, 67, 64
6, 117308, Note_on_c, 4, 67, 0
6, 117376, Note_on_c, 4, 65, 64
6, 117436, Note_on_c, 4, 65, 0
6, 117504, Note_on_c, 4, 63, 64
6, 117756, Note_on_c, 4, 63, 0
6, 117888, Note_on_c, 4, 55, 43
6, 118268, Note_on_c, 4, 55, 0
6, 118272, Note_on_c, 4, 56, 43
6, 119036, Note_on_c, 4, 56, 0
6, 119040, Note_on_c, 4, 55, 43
6, 119804, Note_on_c, 4, 55, 0
6, 119808, Note_on_c, 4, 56, 43
6, 120572, Note_on_c, 4, 56, 0
6, 120576, Note_on_c, 4, 55, 43
6, 120828, Note_on_c, 4, 55, 0
6, 120832, Note_on_c, 4, 67, 43
6, 120956, Note_on_c, 4, 67, 0
6, 120960, Note_on_c, 4, 63, 43
6, 121212, Note_on_c, 4, 63, 0
6, 121216, Note_on_c, 4, 67, 43
6, 121340, Note_on_c, 4, 67, 0
6, 121344, Note_on_c, 4, 68, 43
6, 121596, Note_on_c, 4, 68, 0
6, 121600, Note_on_c, 4, 63, 43
6, 121724, Note_on_c, 4, 63, 0
6, 121728, Note_on_c, 4, 60, 43
6, 121980, Note_on_c, 4, 60, 0
6, 121984, Note_on_c, 4, 72, 43
6, 122108, Note_on_c, 4, 72, 0
6, 122112, Note_on_c, 4, 67, 43
6, 122364, Note_on_c, 4, 67, 0
6, 122368, Note_on_c, 4, 63, 43
6, 122492, Note_on_c, 4, 63, 0
6, 122496, Note_on_c, 4, 55, 43
6, 122748, Note_on_c, 4, 55, 0
6, 122752, Note_on_c, 4, 67, 43
6, 122876, Note_on_c, 4, 67, 0
6, 122880, Note_on_c, 4, 68, 43
6, 123644, Note_on_c, 4, 68, 0
6, 123648, Note_on_c, 4, 67, 43
6, 123772, Note_on_c, 4, 67, 0
6, 124032, Note_on_c, 4, 77, 64
6, 124032, Note_on_c, 4, 70, 64
6, 124032, Note_on_c, 4, 62, 64
6, 124156, Note_on_c, 4, 62, 0
6, 124156, Note_on_c, 4, 70, 0
6, 124156, Note_on_c, 4, 77, 0
6, 124416, Note_on_c, 4, 79, 64
6, 124416, Note_on_c, 4, 70, 64
6, 124416, Note_on_c, 4, 63, 64
6, 124540, Note_on_c, 4, 63, 0
6, 124540, Note_on_c, 4, 70, 0
6, 124540, Note_on_c, 4, 79, 0
6, 124800, Note_on_c, 4, 80, 64
6, 124800, Note_on_c, 4, 70, 64
6, 124800, Note_on_c, 4, 62, 64
6, 124924, Note_on_c, 4, 62, 0
6, 124924, Note_on_c, 4, 70, 0
6, 124924, Note_on_c, 4, 80, 0
6, 125184, Note_on_c, 4, 82, 64
6, 125184, Note_on_c, 4, 70, 64
6, 125184, Note_on_c, 4, 63, 64
6, 125436, Note_on_c, 4, 63, 0
6, 125436, Note_on_c, 4, 70, 0
6, 125436, Note_on_c, 4, 82, 0
6, 126080, Note_on_c, 4, 60, 43
6, 126140, Note_on_c, 4, 60, 0
6, 126208, Note_on_c, 4, 60, 43
6, 126268, Note_on_c, 4, 60, 0
6, 126336, Note_on_c, 4, 60, 43
6, 126396, Note_on_c, 4, 60, 0
6, 126464, Note_on_c, 4, 60, 43
6, 126524, Note_on_c, 4, 60, 0
6, 126592, Note_on_c, 4, 60, 43
6, 126652, Note_on_c, 4, 60, 0
6, 126848, Note_on_c, 4, 60, 43
6, 126908, Note_on_c, 4, 60, 0
6, 126976, Note_on_c, 4, 60, 43
6, 127036, Note_on_c, 4, 60, 0
6, 127104, Note_on_c, 4, 60, 43
6, 127164, Note_on_c, 4, 60, 0
6, 127232, Note_on_c, 4, 60, 43
6, 127292, Note_on_c, 4, 60, 0
6, 127360, Note_on_c, 4, 60, 43
6, 127420, Note_on_c, 4, 60, 0
6, 127616, Note_on_c, 4, 58, 43
6, 127676, Note_on_c, 4, 58, 0
6, 127744, Note_on_c, 4, 58, 43
6, 127804, Note_on_c, 4, 58, 0
6, 127872, Note_on_c, 4, 58, 43
6, 127932, Note_on_c, 4, 58, 0
6, 128000, Note_on_c, 4, 58, 43
6, 128060, Note_on_c, 4, 58, 0
6, 128128, Note_on_c, 4, 58, 43
6, 128188, Note_on_c, 4, 58, 0
6, 128256, Note_on_c, 4, 63, 43
6, 128508, Note_on_c, 4, 63, 0
6, 129024, Note_on_c, 4, 56, 43
6, 129276, Note_on_c, 4, 56, 0
6, 129792, Note_on_c, 4, 63, 43
6, 130044, Note_on_c, 4, 63, 0
6, 130560, Note_on_c, 4, 62, 64
6, 130560, Note_on_c, 4, 56, 64
6, 132092, Note_on_c, 4, 56, 0
6, 132092, Note_on_c, 4, 62, 0
6, 132864, Note_on_c, 4, 55, 43
6, 133116, Note_on_c, 4, 55, 0
6, 133248, Note_on_c, 4, 58, 43
6, 133500, Note_on_c, 4, 58, 0
6, 133632, Note_on_c, 4, 56, 43
6, 133884, Note_on_c, 4, 56, 0
6, 134016, Note_on_c, 4, 56, 43
6, 134140, Note_on_c, 4, 56, 0
6, 134400, Note_on_c, 4, 55, 43
6, 134652, Note_on_c, 4, 55, 0
6, 134784, Note_on_c, 4, 57, 43
6, 135036, Note_on_c, 4, 57, 0
6, 135168, Note_on_c, 4, 58, 43
6, 135420, Note_on_c, 4, 58, 0
6, 135936, Note_on_c, 4, 55, 43
6, 136188, Note_on_c, 4, 55, 0
6, 136320, Note_on_c, 4, 58, 43
6, 136572, Note_on_c, 4, 58, 0
6, 136704, Note_on_c, 4, 56, 43
6, 136956, Note_on_c, 4, 56, 0
6, 137088, Note_on_c, 4, 56, 43
6, 137340, Note_on_c, 4, 56, 0
6, 137472, Note_on_c, 4, 55, 43
6, 137724, Note_on_c, 4, 55, 0
6, 137728, Note_on_c, 4, 58, 64
6, 137788, Note_on_c, 4, 58, 0
6, 137856, Note_on_c, 4, 62, 64
6, 137916, Note_on_c, 4, 62, 0
6, 137984, Note_on_c, 4, 60, 64
6, 138044, Note_on_c, 4, 60, 0
6, 138112, Note_on_c, 4, 62, 64
6, 138172, Note_on_c, 4, 62, 0
6, 138240, Note_on_c, 4, 63, 64
6, 138300, Note_on_c, 4, 63, 0
6, 138368, Note_on_c, 4, 63, 64
6, 138428, Note_on_c, 4, 63, 0
6, 138496, Note_on_c, 4, 63, 64
6, 138556, Note_on_c, 4, 63, 0
6, 138624, Note_on_c, 4, 63, 64
6, 138684, Note_on_c, 4, 63, 0
6, 138752, Note_on_c, 4, 63, 64
6, 138812, Note_on_c, 4, 63, 0
6, 138880, Note_on_c, 4, 63, 64
6, 138940, Note_on_c, 4, 63, 0
6, 139008, Note_on_c, 4, 62, 64
6, 139132, Note_on_c, 4, 62, 0
6, 139136, Note_on_c, 4, 65, 64
6, 139260, Note_on_c, 4, 65, 0
6, 139264, Note_on_c, 4, 70, 64
6, 139360, Note_on_c, 4, 70, 0
6, 139392, Note_on_c, 4, 70, 64
6, 139516, Note_on_c, 4, 70, 0
6, 139520, Note_on_c, 4, 68, 64
6, 139644, Note_on_c, 4, 68, 0
6, 139648, Note_on_c, 4, 65, 64
6, 139744, Note_on_c, 4, 65, 0
6, 139776, Note_on_c, 4, 64, 64
6, 139900, Note_on_c, 4, 64, 0
6, 139904, Note_on_c, 4, 67, 64
6, 140028, Note_on_c, 4, 67, 0
6, 140032, Note_on_c, 4, 72, 64
6, 140128, Note_on_c, 4, 72, 0
6, 140160, Note_on_c, 4, 72, 64
6, 140284, Note_on_c, 4, 72, 0
6, 140288, Note_on_c, 4, 70, 64
6, 140412, Note_on_c, 4, 70, 0
6, 140416, Note_on_c, 4, 67, 64
6, 140512, Note_on_c, 4, 67, 0
6, 140544, Note_on_c, 4, 68, 64
6, 140604, Note_on_c, 4, 68, 0
6, 140672, Note_on_c, 4, 72, 64
6, 140732, Note_on_c, 4, 72, 0
6, 140800, Note_on_c, 4, 64, 64
6, 140860, Note_on_c, 4, 64, 0
6, 140928, Note_on_c, 4, 65, 64
6, 140988, Note_on_c, 4, 65, 0
6, 141056, Note_on_c, 4, 68, 64
6, 141116, Note_on_c, 4, 68, 0
6, 141184, Note_on_c, 4, 60, 64
6, 141244, Note_on_c, 4, 60, 0
6, 141312, Note_on_c, 4, 62, 64
6, 141372, Note_on_c, 4, 62, 0
6, 141440, Note_on_c, 4, 65, 64
6, 141500, Note_on_c, 4, 65, 0
6, 141568, Note_on_c, 4, 69, 64
6, 141628, Note_on_c, 4, 69, 0
6, 141696, Note_on_c, 4, 70, 64
6, 141756, Note_on_c, 4, 70, 0
6, 141824, Note_on_c, 4, 77, 64
6, 141884, Note_on_c, 4, 77, 0
6, 141952, Note_on_c, 4, 65, 64
6, 142012, Note_on_c, 4, 65, 0
6, 142052, Program_c, 4, 44
6, 142080, Note_on_c, 4, 63, 64
6, 142460, Note_on_c, 4, 63, 0
6, 142464, Note_on_c, 4, 67, 64
6, 142844, Note_on_c, 4, 67, 0
6, 142848, Note_on_c, 4, 65, 64
6, 143612, Note_on_c, 4, 65, 0
6, 143616, Note_on_c, 4, 75, 64
6, 144380, Note_on_c, 4, 75, 0
6, 144384, Note_on_c, 4, 75, 64
6, 144764, Note_on_c, 4, 75, 0
6, 144768, Note_on_c, 4, 74, 64
6, 145148, Note_on_c, 4, 74, 0
6, 145152, Note_on_c, 4, 79, 64
6, 145892, Program_c, 4, 48
6, 145916, Note_on_c, 4, 79, 0
6, 145920, Note_on_c, 4, 77, 64
6, 146684, Note_on_c, 4, 77, 0
6, 146688, Note_on_c, 4, 77, 64
6, 147452, Note_on_c, 4, 77, 0
6, 147456, Note_on_c, 4, 63, 43
6, 148220, Note_on_c, 4, 63, 0
6, 148224, Note_on_c, 4, 62, 43
6, 148988, Note_on_c, 4, 62, 0
6, 148992, Note_on_c, 4, 63, 43
6, 149372, Note_on_c, 4, 63, 0
6, 149376, Note_on_c, 4, 62, 43
6, 149756, Note_on_c, 4, 62, 0
6, 149760, Note_on_c, 4, 63, 43
6, 151292, Note_on_c, 4, 63, 0
6, 151296, Note_on_c, 4, 62, 43
6, 151420, Note_on_c, 4, 62, 0
6, 151680, Note_on_c, 4, 65, 43
6, 151804, Note_on_c, 4, 65, 0
6, 152064, Note_on_c, 4, 63, 43
6, 152188, Note_on_c, 4, 63, 0
6, 152448, Note_on_c, 4, 62, 43
6, 152572, Note_on_c, 4, 62, 0
6, 152832, Note_on_c, 4, 63, 43
6, 152956, Note_on_c, 4, 63, 0
6, 152960, Note_on_c, 4, 67, 43
6, 153084, Note_on_c, 4, 67, 0
6, 153088, Note_on_c, 4, 70, 43
6, 153212, Note_on_c, 4, 70, 0
6, 153216, Note_on_c, 4, 63, 43
6, 153340, Note_on_c, 4, 63, 0
6, 153344, Note_on_c, 4, 67, 43
6, 153468, Note_on_c, 4, 67, 0
6, 153472, Note_on_c, 4, 70, 43
6, 153596, Note_on_c, 4, 70, 0
6, 153600, Note_on_c, 4, 65, 43
6, 153724, Note_on_c, 4, 65, 0
6, 153728, Note_on_c, 4, 68, 43
6, 153852, Note_on_c, 4, 68, 0
6, 153856, Note_on_c, 4, 70, 43
6, 153980, Note_on_c, 4, 70, 0
6, 153984, Note_on_c, 4, 65, 43
6, 154108, Note_on_c, 4, 65, 0
6, 154112, Note_on_c, 4, 68, 43
6, 154236, Note_on_c, 4, 68, 0
6, 154240, Note_on_c, 4, 70, 43
6, 154364, Note_on_c, 4, 70, 0
6, 154368, Note_on_c, 4, 63, 43
6, 154492, Note_on_c, 4, 63, 0
6, 154496, Note_on_c, 4, 67, 43
6, 154620, Note_on_c, 4, 67, 0
6, 154624, Note_on_c, 4, 70, 43
6, 154748, Note_on_c, 4, 70, 0
6, 154752, Note_on_c, 4, 63, 43
6, 154876, Note_on_c, 4, 63, 0
6, 154880, Note_on_c, 4, 67, 43
6, 155004, Note_on_c, 4, 67, 0
6, 155008, Note_on_c, 4, 70, 43
6, 155132, Note_on_c, 4, 70, 0
6, 155136, Note_on_c, 4, 65, 43
6, 155260, Note_on_c, 4, 65, 0
6, 155264, Note_on_c, 4, 68, 43
6, 155388, Note_on_c, 4, 68, 0
6, 155392, Note_on_c, 4, 70, 43
6, 155516, Note_on_c, 4, 70, 0
6, 155520, Note_on_c, 4, 65, 43
6, 155644, Note_on_c, 4, 65, 0
6, 155648, Note_on_c, 4, 68, 43
6, 155772, Note_on_c, 4, 68, 0
6, 155776, Note_on_c, 4, 70, 43
6, 155900, Note_on_c, 4, 70, 0
6, 155904, Note_on_c, 4, 63, 43
6, 156028, Note_on_c, 4, 63, 0
6, 156032, Note_on_c, 4, 67, 43
6, 156156, Note_on_c, 4, 67, 0
6, 156160, Note_on_c, 4, 70, 43
6, 156284, Note_on_c, 4, 70, 0
6, 156288, Note_on_c, 4, 63, 43
6, 156412, Note_on_c, 4, 63, 0
6, 156416, Note_on_c, 4, 67, 43
6, 156540, Note_on_c, 4, 67, 0
6, 156544, Note_on_c, 4, 70, 43
6, 156668, Note_on_c, 4, 70, 0
6, 156672, Note_on_c, 4, 65, 43
6, 156796, Note_on_c, 4, 65, 0
6, 156800, Note_on_c, 4, 68, 43
6, 156924, Note_on_c, 4, 68, 0
6, 156928, Note_on_c, 4, 70, 43
6, 157052, Note_on_c, 4, 70, 0
6, 157056, Note_on_c, 4, 65, 43
6, 157180, Note_on_c, 4, 65, 0
6, 157184, Note_on_c, 4, 68, 43
6, 157308, Note_on_c, 4, 68, 0
6, 157312, Note_on_c, 4, 70, 43
6, 157436, Note_on_c, 4, 70, 0
6, 157440, Note_on_c, 4, 67, 64
6, 157500, Note_on_c, 4, 67, 0
6, 157568, Note_on_c, 4, 63, 64
6, 157568, Note_on_c, 4, 55, 64
6, 157628, Note_on_c, 4, 55, 0
6, 157628, Note_on_c, 4, 63, 0
6, 157696, Note_on_c, 4, 63, 64
6, 157696, Note_on_c, 4, 55, 64
6, 157756, Note_on_c, 4, 55, 0
6, 157756, Note_on_c, 4, 63, 0
6, 157824, Note_on_c, 4, 63, 64
6, 157824, Note_on_c, 4, 55, 64
6, 157884, Note_on_c, 4, 55, 0
6, 157884, Note_on_c, 4, 63, 0
6, 157952, Note_on_c, 4, 63, 64
6, 157952, Note_on_c, 4, 55, 64
6, 158012, Note_on_c, 4, 55, 0
6, 158012, Note_on_c, 4, 63, 0
6, 158080, Note_on_c, 4, 63, 64
6, 158080, Note_on_c, 4, 55, 64
6, 158140, Note_on_c, 4, 55, 0
6, 158140, Note_on_c, 4, 63, 0
6, 158208, Note_on_c, 4, 63, 64
6, 158208, Note_on_c, 4, 55, 64
6, 158332, Note_on_c, 4, 55, 0
6, 158332, Note_on_c, 4, 63, 0
6, 158592, Note_on_c, 4, 79, 64
6, 158592, Note_on_c, 4, 70, 64
6, 158592, Note_on_c, 4, 63, 64
6, 158716, Note_on_c, 4, 63, 0
6, 158716, Note_on_c, 4, 70, 0
6, 158716, Note_on_c, 4, 79, 0
6, 158976, Note_on_c, 4, 63, 64
6, 158976, Note_on_c, 4, 55, 64
6, 159100, Note_on_c, 4, 55, 0
6, 159100, Note_on_c, 4, 63, 0
6, 159100, End_track
7, 0, Start_track
7, 0, MIDI_port, 0
7, 0, Title_t, "Viola"
7, 0, Program_c, 5, 48
7, 0, Control_c, 5, 7, 127
7, 0, Control_c, 5, 10, 85
7, 0, Control_c, 5, 0, 0
7, 0, Control_c, 5, 32, 0
7, 17, Control_c, 5, 121, 0
7, 26, Control_c, 5, 7, 127
7, 51, Control_c, 5, 91, 100
7, 67, Control_c, 5, 93, 10
7, 384, Program_c, 5, 48
7, 768, Note_on_c, 5, 58, 34
7, 1020, Note_on_c, 5, 58, 0
7, 1152, Note_on_c, 5, 51, 34
7, 1404, Note_on_c, 5, 51, 0
7, 1536, Note_on_c, 5, 58, 34
7, 1788, Note_on_c, 5, 58, 0
7, 1920, Note_on_c, 5, 58, 34
7, 2172, Note_on_c, 5, 58, 0
7, 2304, Note_on_c, 5, 58, 34
7, 2556, Note_on_c, 5, 58, 0
7, 2688, Note_on_c, 5, 51, 34
7, 2940, Note_on_c, 5, 51, 0
7, 3072, Note_on_c, 5, 58, 34
7, 3324, Note_on_c, 5, 58, 0
7, 3840, Note_on_c, 5, 58, 34
7, 4092, Note_on_c, 5, 58, 0
7, 4224, Note_on_c, 5, 58, 34
7, 4476, Note_on_c, 5, 58, 0
7, 4608, Note_on_c, 5, 58, 34
7, 4860, Note_on_c, 5, 58, 0
7, 4992, Note_on_c, 5, 58, 34
7, 5244, Note_on_c, 5, 58, 0
7, 5376, Note_on_c, 5, 58, 34
7, 5628, Note_on_c, 5, 58, 0
7, 5760, Note_on_c, 5, 58, 34
7, 6012, Note_on_c, 5, 58, 0
7, 6144, Note_on_c, 5, 58, 34
7, 6204, Note_on_c, 5, 58, 0
7, 6272, Note_on_c, 5, 58, 34
7, 6332, Note_on_c, 5, 58, 0
7, 6400, Note_on_c, 5, 58, 34
7, 6460, Note_on_c, 5, 58, 0
7, 6528, Note_on_c, 5, 58, 34
7, 6652, Note_on_c, 5, 58, 0
7, 6912, Note_on_c, 5, 67, 51
7, 7164, Note_on_c, 5, 67, 0
7, 7296, Note_on_c, 5, 70, 51
7, 7548, Note_on_c, 5, 70, 0
7, 7680, Note_on_c, 5, 68, 51
7, 7932, Note_on_c, 5, 68, 0
7, 8064, Note_on_c, 5, 65, 51
7, 8316, Note_on_c, 5, 65, 0
7, 8448, Note_on_c, 5, 67, 51
7, 8700, Note_on_c, 5, 67, 0
7, 8832, Note_on_c, 5, 69, 51
7, 8832, Note_on_c, 5, 60, 51
7, 9084, Note_on_c, 5, 60, 0
7, 9084, Note_on_c, 5, 69, 0
7, 9216, Note_on_c, 5, 70, 51
7, 9216, Note_on_c, 5, 62, 51
7, 9468, Note_on_c, 5, 62, 0
7, 9468, Note_on_c, 5, 70, 0
7, 9600, Note_on_c, 5, 70, 51
7, 9660, Note_on_c, 5, 70, 0
7, 9664, Note_on_c, 5, 72, 51
7, 9724, Note_on_c, 5, 72, 0
7, 9728, Note_on_c, 5, 70, 51
7, 9788, Note_on_c, 5, 70, 0
7, 9792, Note_on_c, 5, 68, 51
7, 9852, Note_on_c, 5, 68, 0
7, 9856, Note_on_c, 5, 67, 51
7, 9916, Note_on_c, 5, 67, 0
7, 9920, Note_on_c, 5, 65, 51
7, 9980, Note_on_c, 5, 65, 0
7, 9984, Note_on_c, 5, 67, 51
7, 10236, Note_on_c, 5, 67, 0
7, 10368, Note_on_c, 5, 70, 51
7, 10620, Note_on_c, 5, 70, 0
7, 10752, Note_on_c, 5, 68, 51
7, 11004, Note_on_c, 5, 68, 0
7, 11136, Note_on_c, 5, 65, 51
7, 11388, Note_on_c, 5, 65, 0
7, 11520, Note_on_c, 5, 63, 51
7, 11644, Note_on_c, 5, 63, 0
7, 11776, Note_on_c, 5, 70, 51
7, 11836, Note_on_c, 5, 70, 0
7, 11904, Note_on_c, 5, 68, 51
7, 11964, Note_on_c, 5, 68, 0
7, 12032, Note_on_c, 5, 67, 51
7, 12092, Note_on_c, 5, 67, 0
7, 12160, Note_on_c, 5, 68, 51
7, 12220, Note_on_c, 5, 68, 0
7, 12288, Note_on_c, 5, 67, 51
7, 12348, Note_on_c, 5, 67, 0
7, 12416, Note_on_c, 5, 58, 51
7, 12476, Note_on_c, 5, 58, 0
7, 12544, Note_on_c, 5, 58, 51
7, 12604, Note_on_c, 5, 58, 0
7, 12672, Note_on_c, 5, 58, 51
7, 12796, Note_on_c, 5, 58, 0
7, 13184, Note_on_c, 5, 58, 34
7, 13244, Note_on_c, 5, 58, 0
7, 13312, Note_on_c, 5, 58, 34
7, 13372, Note_on_c, 5, 58, 0
7, 13440, Note_on_c, 5, 58, 34
7, 13500, Note_on_c, 5, 58, 0
7, 13568, Note_on_c, 5, 58, 34
7, 13628, Note_on_c, 5, 58, 0
7, 13696, Note_on_c, 5, 58, 34
7, 13756, Note_on_c, 5, 58, 0
7, 13952, Note_on_c, 5, 58, 34
7, 14012, Note_on_c, 5, 58, 0
7, 14080, Note_on_c, 5, 58, 34
7, 14140, Note_on_c, 5, 58, 0
7, 14208, Note_on_c, 5, 58, 34
7, 14268, Note_on_c, 5, 58, 0
7, 14336, Note_on_c, 5, 58, 34
7, 14396, Note_on_c, 5, 58, 0
7, 14464, Note_on_c, 5, 58, 34
7, 14524, Note_on_c, 5, 58, 0
7, 14720, Note_on_c, 5, 53, 34
7, 14780, Note_on_c, 5, 53, 0
7, 14848, Note_on_c, 5, 53, 34
7, 14908, Note_on_c, 5, 53, 0
7, 15104, Note_on_c, 5, 53, 34
7, 15164, Note_on_c, 5, 53, 0
7, 15232, Note_on_c, 5, 53, 34
7, 15292, Note_on_c, 5, 53, 0
7, 15488, Note_on_c, 5, 51, 34
7, 15548, Note_on_c, 5, 51, 0
7, 15616, Note_on_c, 5, 51, 34
7, 15676, Note_on_c, 5, 51, 0
7, 15744, Note_on_c, 5, 51, 34
7, 15804, Note_on_c, 5, 51, 0
7, 15872, Note_on_c, 5, 51, 34
7, 15932, Note_on_c, 5, 51, 0
7, 16000, Note_on_c, 5, 51, 34
7, 16060, Note_on_c, 5, 51, 0
7, 16256, Note_on_c, 5, 58, 34
7, 16316, Note_on_c, 5, 58, 0
7, 16384, Note_on_c, 5, 58, 34
7, 16444, Note_on_c, 5, 58, 0
7, 16512, Note_on_c, 5, 58, 34
7, 16572, Note_on_c, 5, 58, 0
7, 16640, Note_on_c, 5, 58, 34
7, 16700, Note_on_c, 5, 58, 0
7, 16768, Note_on_c, 5, 58, 34
7, 16828, Note_on_c, 5, 58, 0
7, 17024, Note_on_c, 5, 58, 34
7, 17084, Note_on_c, 5, 58, 0
7, 17152, Note_on_c, 5, 58, 34
7, 17212, Note_on_c, 5, 58, 0
7, 17280, Note_on_c, 5, 58, 34
7, 17340, Note_on_c, 5, 58, 0
7, 17408, Note_on_c, 5, 58, 34
7, 17468, Note_on_c, 5, 58, 0
7, 17536, Note_on_c, 5, 58, 34
7, 17596, Note_on_c, 5, 58, 0
7, 17792, Note_on_c, 5, 58, 34
7, 17852, Note_on_c, 5, 58, 0
7, 17920, Note_on_c, 5, 58, 34
7, 17980, Note_on_c, 5, 58, 0
7, 18048, Note_on_c, 5, 58, 34
7, 18108, Note_on_c, 5, 58, 0
7, 18176, Note_on_c, 5, 58, 34
7, 18236, Note_on_c, 5, 58, 0
7, 18304, Note_on_c, 5, 58, 34
7, 18364, Note_on_c, 5, 58, 0
7, 18432, Note_on_c, 5, 58, 34
7, 18556, Note_on_c, 5, 58, 0
7, 18688, Note_on_c, 5, 67, 34
7, 18688, Note_on_c, 5, 63, 34
7, 18812, Note_on_c, 5, 63, 0
7, 18812, Note_on_c, 5, 67, 0
7, 18816, Note_on_c, 5, 65, 34
7, 18816, Note_on_c, 5, 62, 34
7, 19068, Note_on_c, 5, 62, 0
7, 19068, Note_on_c, 5, 65, 0
7, 19072, Note_on_c, 5, 63, 34
7, 19072, Note_on_c, 5, 60, 34
7, 19196, Note_on_c, 5, 60, 0
7, 19196, Note_on_c, 5, 63, 0
7, 19200, Note_on_c, 5, 62, 34
7, 19200, Note_on_c, 5, 59, 34
7, 19452, Note_on_c, 5, 59, 0
7, 19452, Note_on_c, 5, 62, 0
7, 19456, Note_on_c, 5, 63, 34
7, 19456, Note_on_c, 5, 60, 34
7, 19580, Note_on_c, 5, 60, 0
7, 19580, Note_on_c, 5, 63, 0
7, 19584, Note_on_c, 5, 65, 34
7, 19584, Note_on_c, 5, 62, 34
7, 19836, Note_on_c, 5, 62, 0
7, 19836, Note_on_c, 5, 65, 0
7, 19840, Note_on_c, 5, 67, 34
7, 19840, Note_on_c, 5, 63, 34
7, 19964, Note_on_c, 5, 63, 0
7, 19964, Note_on_c, 5, 67, 0
7, 19968, Note_on_c, 5, 63, 34
7, 19968, Note_on_c, 5, 60, 34
7, 20220, Note_on_c, 5, 60, 0
7, 20220, Note_on_c, 5, 63, 0
7, 20224, Note_on_c, 5, 65, 34
7, 20224, Note_on_c, 5, 62, 34
7, 20348, Note_on_c, 5, 62, 0
7, 20348, Note_on_c, 5, 65, 0
7, 20352, Note_on_c, 5, 63, 34
7, 20352, Note_on_c, 5, 60, 34
7, 20604, Note_on_c, 5, 60, 0
7, 20604, Note_on_c, 5, 63, 0
7, 20608, Note_on_c, 5, 62, 34
7, 20608, Note_on_c, 5, 58, 34
7, 20732, Note_on_c, 5, 58, 0
7, 20732, Note_on_c, 5, 62, 0
7, 20736, Note_on_c, 5, 60, 34
7, 20736, Note_on_c, 5, 57, 34
7, 20988, Note_on_c, 5, 57, 0
7, 20988, Note_on_c, 5, 60, 0
7, 20992, Note_on_c, 5, 62, 34
7, 20992, Note_on_c, 5, 58, 34
7, 21116, Note_on_c, 5, 58, 0
7, 21116, Note_on_c, 5, 62, 0
7, 21120, Note_on_c, 5, 63, 34
7, 21120, Note_on_c, 5, 60, 34
7, 21372, Note_on_c, 5, 60, 0
7, 21372, Note_on_c, 5, 63, 0
7, 21376, Note_on_c, 5, 65, 34
7, 21376, Note_on_c, 5, 57, 34
7, 21500, Note_on_c, 5, 57, 0
7, 21500, Note_on_c, 5, 65, 0
7, 21504, Note_on_c, 5, 62, 34
7, 21504, Note_on_c, 5, 58, 34
7, 21756, Note_on_c, 5, 58, 0
7, 21756, Note_on_c, 5, 62, 0
7, 22272, Note_on_c, 5, 58, 34
7, 23036, Note_on_c, 5, 58, 0
7, 23040, Note_on_c, 5, 60, 34
7, 23164, Note_on_c, 5, 60, 0
7, 23808, Note_on_c, 5, 62, 34
7, 24188, Note_on_c, 5, 62, 0
7, 24192, Note_on_c, 5, 58, 34
7, 24572, Note_on_c, 5, 58, 0
7, 24576, Note_on_c, 5, 60, 34
7, 24700, Note_on_c, 5, 60, 0
7, 24832, Note_on_c, 5, 53, 34
7, 24892, Note_on_c, 5, 53, 0
7, 24960, Note_on_c, 5, 53, 34
7, 25084, Note_on_c, 5, 53, 0
7, 25088, Note_on_c, 5, 55, 34
7, 25212, Note_on_c, 5, 55, 0
7, 25216, Note_on_c, 5, 53, 34
7, 25340, Note_on_c, 5, 53, 0
7, 25344, Note_on_c, 5, 52, 34
7, 25468, Note_on_c, 5, 52, 0
7, 25600, Note_on_c, 5, 52, 34
7, 25660, Note_on_c, 5, 52, 0
7, 25728, Note_on_c, 5, 52, 34
7, 25852, Note_on_c, 5, 52, 0
7, 25984, Note_on_c, 5, 52, 34
7, 26044, Note_on_c, 5, 52, 0
7, 26112, Note_on_c, 5, 53, 34
7, 26236, Note_on_c, 5, 53, 0
7, 26368, Note_on_c, 5, 53, 34
7, 26428, Note_on_c, 5, 53, 0
7, 26496, Note_on_c, 5, 53, 34
7, 26620, Note_on_c, 5, 53, 0
7, 26624, Note_on_c, 5, 55, 34
7, 26748, Note_on_c, 5, 55, 0
7, 26752, Note_on_c, 5, 53, 34
7, 26876, Note_on_c, 5, 53, 0
7, 26880, Note_on_c, 5, 52, 34
7, 27004, Note_on_c, 5, 52, 0
7, 27136, Note_on_c, 5, 52, 34
7, 27196, Note_on_c, 5, 52, 0
7, 27264, Note_on_c, 5, 52, 34
7, 27388, Note_on_c, 5, 52, 0
7, 27520, Note_on_c, 5, 52, 34
7, 27580, Note_on_c, 5, 52, 0
7, 27648, Note_on_c, 5, 65, 51
7, 27708, Note_on_c, 5, 65, 0
7, 27776, Note_on_c, 5, 67, 51
7, 27836, Note_on_c, 5, 67, 0
7, 27904, Note_on_c, 5, 65, 51
7, 27964, Note_on_c, 5, 65, 0
7, 28032, Note_on_c, 5, 63, 51
7, 28092, Note_on_c, 5, 63, 0
7, 28160, Note_on_c, 5, 65, 51
7, 28220, Note_on_c, 5, 65, 0
7, 28288, Note_on_c, 5, 63, 51
7, 28348, Note_on_c, 5, 63, 0
7, 28416, Note_on_c, 5, 62, 51
7, 28476, Note_on_c, 5, 62, 0
7, 28544, Note_on_c, 5, 63, 51
7, 28604, Note_on_c, 5, 63, 0
7, 28672, Note_on_c, 5, 62, 51
7, 28732, Note_on_c, 5, 62, 0
7, 28800, Note_on_c, 5, 60, 51
7, 28860, Note_on_c, 5, 60, 0
7, 28928, Note_on_c, 5, 62, 51
7, 28988, Note_on_c, 5, 62, 0
7, 29056, Note_on_c, 5, 60, 51
7, 29116, Note_on_c, 5, 60, 0
7, 29184, Note_on_c, 5, 58, 34
7, 29564, Note_on_c, 5, 58, 0
7, 29568, Note_on_c, 5, 58, 34
7, 31484, Note_on_c, 5, 58, 0
7, 31488, Note_on_c, 5, 60, 34
7, 32252, Note_on_c, 5, 60, 0
7, 32256, Note_on_c, 5, 58, 34
7, 34556, Note_on_c, 5, 58, 0
7, 34560, Note_on_c, 5, 53, 34
7, 35324, Note_on_c, 5, 53, 0
7, 35456, Note_on_c, 5, 70, 51
7, 35516, Note_on_c, 5, 70, 0
7, 35584, Note_on_c, 5, 70, 51
7, 35644, Note_on_c, 5, 70, 0
7, 35712, Note_on_c, 5, 68, 51
7, 35772, Note_on_c, 5, 68, 0
7, 35840, Note_on_c, 5, 70, 51
7, 35900, Note_on_c, 5, 70, 0
7, 35968, Note_on_c, 5, 68, 51
7, 36028, Note_on_c, 5, 68, 0
7, 36096, Note_on_c, 5, 67, 51
7, 36156, Note_on_c, 5, 67, 0
7, 36224, Note_on_c, 5, 65, 51
7, 36284, Note_on_c, 5, 65, 0
7, 36352, Note_on_c, 5, 63, 51
7, 36412, Note_on_c, 5, 63, 0
7, 36480, Note_on_c, 5, 62, 51
7, 36540, Note_on_c, 5, 62, 0
7, 36608, Note_on_c, 5, 60, 51
7, 36668, Note_on_c, 5, 60, 0
7, 36736, Note_on_c, 5, 58, 51
7, 36796, Note_on_c, 5, 58, 0
7, 36864, Note_on_c, 5, 63, 51
7, 37116, Note_on_c, 5, 63, 0
7, 37632, Note_on_c, 5, 51, 34
7, 38396, Note_on_c, 5, 51, 0
7, 38400, Note_on_c, 5, 53, 34
7, 38652, Note_on_c, 5, 53, 0
7, 38784, Note_on_c, 5, 55, 34
7, 39036, Note_on_c, 5, 55, 0
7, 39040, Note_on_c, 5, 67, 34
7, 39100, Note_on_c, 5, 67, 0
7, 39296, Note_on_c, 5, 65, 34
7, 39356, Note_on_c, 5, 65, 0
7, 39424, Note_on_c, 5, 65, 34
7, 39484, Note_on_c, 5, 65, 0
7, 39680, Note_on_c, 5, 65, 34
7, 39740, Note_on_c, 5, 65, 0
7, 39808, Note_on_c, 5, 65, 34
7, 39868, Note_on_c, 5, 65, 0
7, 40064, Note_on_c, 5, 70, 51
7, 40124, Note_on_c, 5, 70, 0
7, 40192, Note_on_c, 5, 70, 51
7, 40252, Note_on_c, 5, 70, 0
7, 40320, Note_on_c, 5, 68, 51
7, 40380, Note_on_c, 5, 68, 0
7, 40448, Note_on_c, 5, 70, 51
7, 40508, Note_on_c, 5, 70, 0
7, 40576, Note_on_c, 5, 68, 51
7, 40636, Note_on_c, 5, 68, 0
7, 40704, Note_on_c, 5, 67, 51
7, 40764, Note_on_c, 5, 67, 0
7, 40832, Note_on_c, 5, 65, 51
7, 40892, Note_on_c, 5, 65, 0
7, 40960, Note_on_c, 5, 63, 51
7, 41020, Note_on_c, 5, 63, 0
7, 41088, Note_on_c, 5, 62, 51
7, 41148, Note_on_c, 5, 62, 0
7, 41216, Note_on_c, 5, 60, 51
7, 41276, Note_on_c, 5, 60, 0
7, 41344, Note_on_c, 5, 58, 51
7, 41404, Note_on_c, 5, 58, 0
7, 41472, Note_on_c, 5, 63, 51
7, 41724, Note_on_c, 5, 63, 0
7, 42368, Note_on_c, 5, 58, 34
7, 42428, Note_on_c, 5, 58, 0
7, 42496, Note_on_c, 5, 58, 34
7, 42556, Note_on_c, 5, 58, 0
7, 42624, Note_on_c, 5, 58, 34
7, 43136, Note_on_c, 5, 53, 34
7, 43196, Note_on_c, 5, 53, 0
7, 43196, Note_on_c, 5, 58, 0
7, 43264, Note_on_c, 5, 53, 34
7, 43324, Note_on_c, 5, 53, 0
7, 43392, Note_on_c, 5, 53, 34
7, 43452, Note_on_c, 5, 53, 0
7, 43776, Note_on_c, 5, 53, 34
7, 43836, Note_on_c, 5, 53, 0
7, 43904, Note_on_c, 5, 53, 34
7, 43964, Note_on_c, 5, 53, 0
7, 44032, Note_on_c, 5, 53, 34
7, 44092, Note_on_c, 5, 53, 0
7, 44160, Note_on_c, 5, 53, 34
7, 44220, Note_on_c, 5, 53, 0
7, 44544, Note_on_c, 5, 65, 34
7, 44668, Note_on_c, 5, 65, 0
7, 44672, Note_on_c, 5, 67, 34
7, 44796, Note_on_c, 5, 67, 0
7, 44800, Note_on_c, 5, 64, 34
7, 44924, Note_on_c, 5, 64, 0
7, 44928, Note_on_c, 5, 65, 34
7, 45052, Note_on_c, 5, 65, 0
7, 45056, Note_on_c, 5, 67, 34
7, 45180, Note_on_c, 5, 67, 0
7, 45184, Note_on_c, 5, 64, 34
7, 45308, Note_on_c, 5, 64, 0
7, 45312, Note_on_c, 5, 65, 34
7, 45372, Note_on_c, 5, 65, 0
7, 45440, Note_on_c, 5, 65, 34
7, 45500, Note_on_c, 5, 65, 0
7, 45568, Note_on_c, 5, 65, 34
7, 45628, Note_on_c, 5, 65, 0
7, 45696, Note_on_c, 5, 63, 34
7, 45756, Note_on_c, 5, 63, 0
7, 45824, Note_on_c, 5, 63, 34
7, 45884, Note_on_c, 5, 63, 0
7, 45952, Note_on_c, 5, 63, 34
7, 46012, Note_on_c, 5, 63, 0
7, 46080, Note_on_c, 5, 62, 34
7, 46332, Note_on_c, 5, 62, 0
7, 46848, Note_on_c, 5, 65, 34
7, 47100, Note_on_c, 5, 65, 0
7, 47232, Note_on_c, 5, 60, 34
7, 47484, Note_on_c, 5, 60, 0
7, 47488, Note_on_c, 5, 57, 34
7, 47548, Note_on_c, 5, 57, 0
7, 47616, Note_on_c, 5, 65, 34
7, 48380, Note_on_c, 5, 65, 0
7, 48384, Note_on_c, 5, 63, 34
7, 48636, Note_on_c, 5, 63, 0
7, 48768, Note_on_c, 5, 60, 34
7, 49020, Note_on_c, 5, 60, 0
7, 49024, Note_on_c, 5, 65, 34
7, 49084, Note_on_c, 5, 65, 0
7, 49152, Note_on_c, 5, 65, 34
7, 49404, Note_on_c, 5, 65, 0
7, 49536, Note_on_c, 5, 62, 34
7, 49660, Note_on_c, 5, 62, 0
7, 49792, Note_on_c, 5, 58, 34
7, 49852, Note_on_c, 5, 58, 0
7, 49920, Note_on_c, 5, 70, 34
7, 50172, Note_on_c, 5, 70, 0
7, 50176, Note_on_c, 5, 68, 34
7, 50300, Note_on_c, 5, 68, 0
7, 50304, Note_on_c, 5, 67, 34
7, 50428, Note_on_c, 5, 67, 0
7, 50432, Note_on_c, 5, 68, 34
7, 50556, Note_on_c, 5, 68, 0
7, 50560, Note_on_c, 5, 70, 34
7, 50684, Note_on_c, 5, 70, 0
7, 50688, Note_on_c, 5, 58, 34
7, 52220, Note_on_c, 5, 58, 0
7, 52224, Note_on_c, 5, 58, 34
7, 52476, Note_on_c, 5, 58, 0
7, 52608, Note_on_c, 5, 51, 34
7, 52860, Note_on_c, 5, 51, 0
7, 52992, Note_on_c, 5, 58, 34
7, 53244, Note_on_c, 5, 58, 0
7, 53376, Note_on_c, 5, 58, 34
7, 53628, Note_on_c, 5, 58, 0
7, 53760, Note_on_c, 5, 58, 34
7, 54012, Note_on_c, 5, 58, 0
7, 54144, Note_on_c, 5, 51, 34
7, 54396, Note_on_c, 5, 51, 0
7, 54528, Note_on_c, 5, 58, 34
7, 54780, Note_on_c, 5, 58, 0
7, 55296, Note_on_c, 5, 58, 34
7, 55548, Note_on_c, 5, 58, 0
7, 55680, Note_on_c, 5, 58, 34
7, 55932, Note_on_c, 5, 58, 0
7, 56064, Note_on_c, 5, 58, 34
7, 56316, Note_on_c, 5, 58, 0
7, 56448, Note_on_c, 5, 58, 34
7, 56700, Note_on_c, 5, 58, 0
7, 56832, Note_on_c, 5, 58, 34
7, 57084, Note_on_c, 5, 58, 0
7, 57216, Note_on_c, 5, 58, 34
7, 57468, Note_on_c, 5, 58, 0
7, 57600, Note_on_c, 5, 58, 34
7, 57660, Note_on_c, 5, 58, 0
7, 57728, Note_on_c, 5, 58, 34
7, 57788, Note_on_c, 5, 58, 0
7, 57856, Note_on_c, 5, 58, 34
7, 57916, Note_on_c, 5, 58, 0
7, 57984, Note_on_c, 5, 58, 34
7, 58108, Note_on_c, 5, 58, 0
7, 58368, Note_on_c, 5, 67, 51
7, 58620, Note_on_c, 5, 67, 0
7, 58752, Note_on_c, 5, 70, 51
7, 59004, Note_on_c, 5, 70, 0
7, 59136, Note_on_c, 5, 68, 51
7, 59388, Note_on_c, 5, 68, 0
7, 59520, Note_on_c, 5, 65, 51
7, 59772, Note_on_c, 5, 65, 0
7, 59904, Note_on_c, 5, 67, 51
7, 60156, Note_on_c, 5, 67, 0
7, 60288, Note_on_c, 5, 69, 51
7, 60288, Note_on_c, 5, 60, 51
7, 60540, Note_on_c, 5, 60, 0
7, 60540, Note_on_c, 5, 69, 0
7, 60672, Note_on_c, 5, 70, 51
7, 60672, Note_on_c, 5, 62, 51
7, 60924, Note_on_c, 5, 62, 0
7, 60924, Note_on_c, 5, 70, 0
7, 61056, Note_on_c, 5, 70, 51
7, 61116, Note_on_c, 5, 70, 0
7, 61120, Note_on_c, 5, 72, 51
7, 61180, Note_on_c, 5, 72, 0
7, 61184, Note_on_c, 5, 70, 51
7, 61244, Note_on_c, 5, 70, 0
7, 61248, Note_on_c, 5, 68, 51
7, 61308, Note_on_c, 5, 68, 0
7, 61312, Note_on_c, 5, 67, 51
7, 61372, Note_on_c, 5, 67, 0
7, 61376, Note_on_c, 5, 65, 51
7, 61436, Note_on_c, 5, 65, 0
7, 61440, Note_on_c, 5, 67, 51
7, 61692, Note_on_c, 5, 67, 0
7, 61824, Note_on_c, 5, 70, 51
7, 62076, Note_on_c, 5, 70, 0
7, 62208, Note_on_c, 5, 68, 51
7, 62460, Note_on_c, 5, 68, 0
7, 62592, Note_on_c, 5, 65, 51
7, 62844, Note_on_c, 5, 65, 0
7, 62976, Note_on_c, 5, 63, 51
7, 63100, Note_on_c, 5, 63, 0
7, 63232, Note_on_c, 5, 70, 51
7, 63292, Note_on_c, 5, 70, 0
7, 63360, Note_on_c, 5, 68, 51
7, 63420, Note_on_c, 5, 68, 0
7, 63488, Note_on_c, 5, 67, 51
7, 63548, Note_on_c, 5, 67, 0
7, 63616, Note_on_c, 5, 68, 51
7, 63676, Note_on_c, 5, 68, 0
7, 63744, Note_on_c, 5, 67, 51
7, 63804, Note_on_c, 5, 67, 0
7, 63872, Note_on_c, 5, 58, 51
7, 63932, Note_on_c, 5, 58, 0
7, 64000, Note_on_c, 5, 58, 51
7, 64060, Note_on_c, 5, 58, 0
7, 64128, Note_on_c, 5, 58, 51
7, 64252, Note_on_c, 5, 58, 0
7, 65408, Note_on_c, 5, 60, 34
7, 65468, Note_on_c, 5, 60, 0
7, 65536, Note_on_c, 5, 60, 34
7, 65596, Note_on_c, 5, 60, 0
7, 65664, Note_on_c, 5, 60, 34
7, 65724, Note_on_c, 5, 60, 0
7, 65792, Note_on_c, 5, 60, 34
7, 65852, Note_on_c, 5, 60, 0
7, 65920, Note_on_c, 5, 60, 34
7, 65980, Note_on_c, 5, 60, 0
7, 66176, Note_on_c, 5, 62, 34
7, 66236, Note_on_c, 5, 62, 0
7, 66304, Note_on_c, 5, 62, 34
7, 66364, Note_on_c, 5, 62, 0
7, 66432, Note_on_c, 5, 62, 34
7, 66492, Note_on_c, 5, 62, 0
7, 66560, Note_on_c, 5, 62, 34
7, 66620, Note_on_c, 5, 62, 0
7, 66688, Note_on_c, 5, 62, 34
7, 66748, Note_on_c, 5, 62, 0
7, 66944, Note_on_c, 5, 60, 34
7, 67004, Note_on_c, 5, 60, 0
7, 67072, Note_on_c, 5, 60, 34
7, 67132, Note_on_c, 5, 60, 0
7, 67200, Note_on_c, 5, 60, 34
7, 67260, Note_on_c, 5, 60, 0
7, 67328, Note_on_c, 5, 60, 34
7, 67388, Note_on_c, 5, 60, 0
7, 67456, Note_on_c, 5, 60, 34
7, 67516, Note_on_c, 5, 60, 0
7, 67584, Note_on_c, 5, 48, 34
7, 67964, Note_on_c, 5, 48, 0
7, 67968, Note_on_c, 5, 53, 34
7, 68348, Note_on_c, 5, 53, 0
7, 68352, Note_on_c, 5, 51, 34
7, 68732, Note_on_c, 5, 51, 0
7, 68736, Note_on_c, 5, 59, 34
7, 69116, Note_on_c, 5, 59, 0
7, 69120, Note_on_c, 5, 60, 34
7, 69500, Note_on_c, 5, 60, 0
7, 69504, Note_on_c, 5, 56, 34
7, 69884, Note_on_c, 5, 56, 0
7, 69888, Note_on_c, 5, 55, 34
7, 70140, Note_on_c, 5, 55, 0
7, 71552, Note_on_c, 5, 60, 34
7, 71612, Note_on_c, 5, 60, 0
7, 71680, Note_on_c, 5, 60, 34
7, 71740, Note_on_c, 5, 60, 0
7, 71808, Note_on_c, 5, 60, 34
7, 71868, Note_on_c, 5, 60, 0
7, 71936, Note_on_c, 5, 60, 34
7, 71996, Note_on_c, 5, 60, 0
7, 72064, Note_on_c, 5, 60, 34
7, 72124, Note_on_c, 5, 60, 0
7, 72320, Note_on_c, 5, 62, 34
7, 72380, Note_on_c, 5, 62, 0
7, 72448, Note_on_c, 5, 62, 34
7, 72508, Note_on_c, 5, 62, 0
7, 72576, Note_on_c, 5, 62, 34
7, 72636, Note_on_c, 5, 62, 0
7, 72704, Note_on_c, 5, 62, 34
7, 72764, Note_on_c, 5, 62, 0
7, 72832, Note_on_c, 5, 62, 34
7, 72892, Note_on_c, 5, 62, 0
7, 73088, Note_on_c, 5, 62, 34
7, 73212, Note_on_c, 5, 62, 0
7, 73216, Note_on_c, 5, 63, 34
7, 73340, Note_on_c, 5, 63, 0
7, 73344, Note_on_c, 5, 62, 34
7, 73468, Note_on_c, 5, 62, 0
7, 73472, Note_on_c, 5, 60, 34
7, 73596, Note_on_c, 5, 60, 0
7, 73600, Note_on_c, 5, 58, 34
7, 73724, Note_on_c, 5, 58, 0
7, 73856, Note_on_c, 5, 58, 34
7, 73916, Note_on_c, 5, 58, 0
7, 73984, Note_on_c, 5, 58, 34
7, 74044, Note_on_c, 5, 58, 0
7, 74240, Note_on_c, 5, 51, 34
7, 74300, Note_on_c, 5, 51, 0
7, 74368, Note_on_c, 5, 51, 34
7, 74428, Note_on_c, 5, 51, 0
7, 74624, Note_on_c, 5, 51, 34
7, 74684, Note_on_c, 5, 51, 0
7, 74752, Note_on_c, 5, 51, 34
7, 74812, Note_on_c, 5, 51, 0
7, 75008, Note_on_c, 5, 56, 34
7, 75068, Note_on_c, 5, 56, 0
7, 75136, Note_on_c, 5, 56, 34
7, 75196, Note_on_c, 5, 56, 0
7, 75392, Note_on_c, 5, 56, 34
7, 75516, Note_on_c, 5, 56, 0
7, 75520, Note_on_c, 5, 53, 34
7, 75580, Note_on_c, 5, 53, 0
7, 75776, Note_on_c, 5, 51, 34
7, 75900, Note_on_c, 5, 51, 0
7, 75904, Note_on_c, 5, 49, 34
7, 75964, Note_on_c, 5, 49, 0
7, 76032, Note_on_c, 5, 48, 34
7, 76156, Note_on_c, 5, 48, 0
7, 76288, Note_on_c, 5, 63, 34
7, 76288, Note_on_c, 5, 60, 34
7, 76412, Note_on_c, 5, 60, 0
7, 76412, Note_on_c, 5, 63, 0
7, 76416, Note_on_c, 5, 61, 34
7, 76416, Note_on_c, 5, 58, 34
7, 76668, Note_on_c, 5, 58, 0
7, 76668, Note_on_c, 5, 61, 0
7, 76672, Note_on_c, 5, 60, 34
7, 76672, Note_on_c, 5, 56, 34
7, 76796, Note_on_c, 5, 56, 0
7, 76796, Note_on_c, 5, 60, 0
7, 76800, Note_on_c, 5, 58, 34
7, 76800, Note_on_c, 5, 55, 34
7, 77052, Note_on_c, 5, 55, 0
7, 77052, Note_on_c, 5, 58, 0
7, 77056, Note_on_c, 5, 60, 34
7, 77056, Note_on_c, 5, 56, 34
7, 77180, Note_on_c, 5, 56, 0
7, 77180, Note_on_c, 5, 60, 0
7, 77184, Note_on_c, 5, 61, 34
7, 77184, Note_on_c, 5, 58, 34
7, 77436, Note_on_c, 5, 58, 0
7, 77436, Note_on_c, 5, 61, 0
7, 77440, Note_on_c, 5, 63, 34
7, 77440, Note_on_c, 5, 55, 34
7, 77564, Note_on_c, 5, 55, 0
7, 77564, Note_on_c, 5, 63, 0
7, 77568, Note_on_c, 5, 60, 34
7, 77568, Note_on_c, 5, 56, 34
7, 77820, Note_on_c, 5, 56, 0
7, 77820, Note_on_c, 5, 60, 0
7, 77824, Note_on_c, 5, 65, 34
7, 77824, Note_on_c, 5, 63, 34
7, 77884, Note_on_c, 5, 63, 0
7, 77884, Note_on_c, 5, 65, 0
7, 77952, Note_on_c, 5, 65, 34
7, 77952, Note_on_c, 5, 61, 34
7, 78076, Note_on_c, 5, 61, 0
7, 78076, Note_on_c, 5, 65, 0
7, 78080, Note_on_c, 5, 63, 34
7, 78080, Note_on_c, 5, 60, 34
7, 78204, Note_on_c, 5, 60, 0
7, 78204, Note_on_c, 5, 63, 0
7, 78208, Note_on_c, 5, 61, 34
7, 78208, Note_on_c, 5, 58, 34
7, 78332, Note_on_c, 5, 58, 0
7, 78332, Note_on_c, 5, 61, 0
7, 78336, Note_on_c, 5, 60, 34
7, 78336, Note_on_c, 5, 57, 34
7, 78588, Note_on_c, 5, 57, 0
7, 78588, Note_on_c, 5, 60, 0
7, 78592, Note_on_c, 5, 62, 34
7, 78592, Note_on_c, 5, 58, 34
7, 78716, Note_on_c, 5, 58, 0
7, 78716, Note_on_c, 5, 62, 0
7, 78720, Note_on_c, 5, 63, 34
7, 78720, Note_on_c, 5, 60, 34
7, 78972, Note_on_c, 5, 60, 0
7, 78972, Note_on_c, 5, 63, 0
7, 78976, Note_on_c, 5, 65, 34
7, 78976, Note_on_c, 5, 57, 34
7, 79100, Note_on_c, 5, 57, 0
7, 79100, Note_on_c, 5, 65, 0
7, 79104, Note_on_c, 5, 62, 34
7, 79104, Note_on_c, 5, 58, 34
7, 79356, Note_on_c, 5, 58, 0
7, 79356, Note_on_c, 5, 62, 0
7, 79360, Note_on_c, 5, 67, 34
7, 79360, Note_on_c, 5, 65, 34
7, 79420, Note_on_c, 5, 65, 0
7, 79420, Note_on_c, 5, 67, 0
7, 79488, Note_on_c, 5, 67, 34
7, 79488, Note_on_c, 5, 63, 34
7, 79612, Note_on_c, 5, 63, 0
7, 79612, Note_on_c, 5, 67, 0
7, 79616, Note_on_c, 5, 65, 34
7, 79616, Note_on_c, 5, 62, 34
7, 79740, Note_on_c, 5, 62, 0
7, 79740, Note_on_c, 5, 65, 0
7, 79744, Note_on_c, 5, 63, 34
7, 79744, Note_on_c, 5, 60, 34
7, 79868, Note_on_c, 5, 60, 0
7, 79868, Note_on_c, 5, 63, 0
7, 79872, Note_on_c, 5, 62, 34
7, 79872, Note_on_c, 5, 59, 34
7, 80124, Note_on_c, 5, 59, 0
7, 80124, Note_on_c, 5, 62, 0
7, 80128, Note_on_c, 5, 63, 34
7, 80128, Note_on_c, 5, 60, 34
7, 80252, Note_on_c, 5, 60, 0
7, 80252, Note_on_c, 5, 63, 0
7, 80256, Note_on_c, 5, 65, 34
7, 80256, Note_on_c, 5, 62, 34
7, 80508, Note_on_c, 5, 62, 0
7, 80508, Note_on_c, 5, 65, 0
7, 80512, Note_on_c, 5, 67, 34
7, 80512, Note_on_c, 5, 59, 34
7, 80636, Note_on_c, 5, 59, 0
7, 80636, Note_on_c, 5, 67, 0
7, 80640, Note_on_c, 5, 63, 34
7, 80640, Note_on_c, 5, 60, 34
7, 80892, Note_on_c, 5, 60, 0
7, 80892, Note_on_c, 5, 63, 0
7, 81664, Note_on_c, 5, 60, 34
7, 81724, Note_on_c, 5, 60, 0
7, 81792, Note_on_c, 5, 60, 34
7, 81916, Note_on_c, 5, 60, 0
7, 81920, Note_on_c, 5, 58, 34
7, 82044, Note_on_c, 5, 58, 0
7, 82048, Note_on_c, 5, 60, 34
7, 82172, Note_on_c, 5, 60, 0
7, 82176, Note_on_c, 5, 62, 34
7, 82300, Note_on_c, 5, 62, 0
7, 82304, Note_on_c, 5, 60, 34
7, 82428, Note_on_c, 5, 60, 0
7, 82432, Note_on_c, 5, 62, 34
7, 82556, Note_on_c, 5, 62, 0
7, 82560, Note_on_c, 5, 63, 34
7, 82684, Note_on_c, 5, 63, 0
7, 82688, Note_on_c, 5, 62, 34
7, 82812, Note_on_c, 5, 62, 0
7, 82816, Note_on_c, 5, 63, 34
7, 82940, Note_on_c, 5, 63, 0
7, 82944, Note_on_c, 5, 60, 34
7, 83068, Note_on_c, 5, 60, 0
7, 83072, Note_on_c, 5, 58, 34
7, 83196, Note_on_c, 5, 58, 0
7, 83200, Note_on_c, 5, 60, 34
7, 83324, Note_on_c, 5, 60, 0
7, 83328, Note_on_c, 5, 62, 34
7, 83452, Note_on_c, 5, 62, 0
7, 83456, Note_on_c, 5, 60, 34
7, 83580, Note_on_c, 5, 60, 0
7, 83584, Note_on_c, 5, 62, 34
7, 83708, Note_on_c, 5, 62, 0
7, 83712, Note_on_c, 5, 55, 34
7, 83964, Note_on_c, 5, 55, 0
7, 84480, Note_on_c, 5, 63, 44
7, 84860, Note_on_c, 5, 63, 0
7, 84864, Note_on_c, 5, 62, 44
7, 85116, Note_on_c, 5, 62, 0
7, 85120, Note_on_c, 5, 60, 43
7, 85244, Note_on_c, 5, 60, 0
7, 85248, Note_on_c, 5, 58, 42
7, 85500, Note_on_c, 5, 58, 0
7, 87552, Note_on_c, 5, 61, 40
7, 87932, Note_on_c, 5, 61, 0
7, 87936, Note_on_c, 5, 60, 41
7, 88188, Note_on_c, 5, 60, 0
7, 88192, Note_on_c, 5, 58, 41
7, 88316, Note_on_c, 5, 58, 0
7, 88320, Note_on_c, 5, 56, 41
7, 88572, Note_on_c, 5, 56, 0
7, 90624, Note_on_c, 5, 59, 48
7, 91004, Note_on_c, 5, 59, 0
7, 91008, Note_on_c, 5, 58, 48
7, 91260, Note_on_c, 5, 58, 0
7, 91264, Note_on_c, 5, 56, 48
7, 91388, Note_on_c, 5, 56, 0
7, 91392, Note_on_c, 5, 55, 48
7, 91644, Note_on_c, 5, 55, 0
7, 93696, Note_on_c, 5, 58, 34
7, 93948, Note_on_c, 5, 58, 0
7, 94080, Note_on_c, 5, 58, 34
7, 94332, Note_on_c, 5, 58, 0
7, 94464, Note_on_c, 5, 58, 34
7, 94716, Note_on_c, 5, 58, 0
7, 94848, Note_on_c, 5, 51, 34
7, 95100, Note_on_c, 5, 51, 0
7, 95232, Note_on_c, 5, 58, 34
7, 95484, Note_on_c, 5, 58, 0
7, 96000, Note_on_c, 5, 58, 34
7, 96252, Note_on_c, 5, 58, 0
7, 96384, Note_on_c, 5, 58, 34
7, 96636, Note_on_c, 5, 58, 0
7, 96768, Note_on_c, 5, 58, 34
7, 97020, Note_on_c, 5, 58, 0
7, 97152, Note_on_c, 5, 58, 34
7, 97404, Note_on_c, 5, 58, 0
7, 97536, Note_on_c, 5, 58, 34
7, 97788, Note_on_c, 5, 58, 0
7, 97920, Note_on_c, 5, 58, 34
7, 98172, Note_on_c, 5, 58, 0
7, 98304, Note_on_c, 5, 58, 34
7, 98364, Note_on_c, 5, 58, 0
7, 98432, Note_on_c, 5, 58, 34
7, 98492, Note_on_c, 5, 58, 0
7, 98560, Note_on_c, 5, 58, 34
7, 98620, Note_on_c, 5, 58, 0
7, 98688, Note_on_c, 5, 58, 34
7, 98812, Note_on_c, 5, 58, 0
7, 99072, Note_on_c, 5, 67, 51
7, 99324, Note_on_c, 5, 67, 0
7, 99456, Note_on_c, 5, 70, 51
7, 99708, Note_on_c, 5, 70, 0
7, 99840, Note_on_c, 5, 68, 51
7, 100092, Note_on_c, 5, 68, 0
7, 100224, Note_on_c, 5, 65, 51
7, 100476, Note_on_c, 5, 65, 0
7, 100608, Note_on_c, 5, 67, 51
7, 100860, Note_on_c, 5, 67, 0
7, 100992, Note_on_c, 5, 69, 51
7, 100992, Note_on_c, 5, 60, 51
7, 101244, Note_on_c, 5, 60, 0
7, 101244, Note_on_c, 5, 69, 0
7, 101376, Note_on_c, 5, 70, 51
7, 101376, Note_on_c, 5, 62, 51
7, 101628, Note_on_c, 5, 62, 0
7, 101628, Note_on_c, 5, 70, 0
7, 101760, Note_on_c, 5, 70, 51
7, 101820, Note_on_c, 5, 70, 0
7, 101824, Note_on_c, 5, 72, 51
7, 101884, Note_on_c, 5, 72, 0
7, 101888, Note_on_c, 5, 70, 51
7, 101948, Note_on_c, 5, 70, 0
7, 101952, Note_on_c, 5, 68, 51
7, 102012, Note_on_c, 5, 68, 0
7, 102016, Note_on_c, 5, 67, 51
7, 102076, Note_on_c, 5, 67, 0
7, 102080, Note_on_c, 5, 65, 51
7, 102140, Note_on_c, 5, 65, 0
7, 102144, Note_on_c, 5, 67, 51
7, 102396, Note_on_c, 5, 67, 0
7, 102528, Note_on_c, 5, 70, 51
7, 102780, Note_on_c, 5, 70, 0
7, 102912, Note_on_c, 5, 68, 51
7, 103164, Note_on_c, 5, 68, 0
7, 103296, Note_on_c, 5, 65, 51
7, 103548, Note_on_c, 5, 65, 0
7, 103680, Note_on_c, 5, 63, 51
7, 103804, Note_on_c, 5, 63, 0
7, 103936, Note_on_c, 5, 70, 51
7, 103996, Note_on_c, 5, 70, 0
7, 104064, Note_on_c, 5, 68, 51
7, 104124, Note_on_c, 5, 68, 0
7, 104192, Note_on_c, 5, 67, 51
7, 104252, Note_on_c, 5, 67, 0
7, 104320, Note_on_c, 5, 68, 51
7, 104380, Note_on_c, 5, 68, 0
7, 104448, Note_on_c, 5, 67, 51
7, 104508, Note_on_c, 5, 67, 0
7, 104576, Note_on_c, 5, 58, 51
7, 104636, Note_on_c, 5, 58, 0
7, 104704, Note_on_c, 5, 58, 51
7, 104764, Note_on_c, 5, 58, 0
7, 104832, Note_on_c, 5, 58, 51
7, 104956, Note_on_c, 5, 58, 0
7, 105344, Note_on_c, 5, 58, 34
7, 105404, Note_on_c, 5, 58, 0
7, 105472, Note_on_c, 5, 58, 34
7, 105532, Note_on_c, 5, 58, 0
7, 105600, Note_on_c, 5, 58, 34
7, 105660, Note_on_c, 5, 58, 0
7, 105728, Note_on_c, 5, 58, 34
7, 105788, Note_on_c, 5, 58, 0
7, 105856, Note_on_c, 5, 58, 34
7, 105916, Note_on_c, 5, 58, 0
7, 106112, Note_on_c, 5, 58, 34
7, 106172, Note_on_c, 5, 58, 0
7, 106240, Note_on_c, 5, 58, 34
7, 106300, Note_on_c, 5, 58, 0
7, 106368, Note_on_c, 5, 58, 34
7, 106428, Note_on_c, 5, 58, 0
7, 106496, Note_on_c, 5, 58, 34
7, 106556, Note_on_c, 5, 58, 0
7, 106624, Note_on_c, 5, 58, 34
7, 106684, Note_on_c, 5, 58, 0
7, 106880, Note_on_c, 5, 53, 34
7, 106940, Note_on_c, 5, 53, 0
7, 107008, Note_on_c, 5, 53, 34
7, 107068, Note_on_c, 5, 53, 0
7, 107264, Note_on_c, 5, 53, 34
7, 107324, Note_on_c, 5, 53, 0
7, 107392, Note_on_c, 5, 53, 34
7, 107452, Note_on_c, 5, 53, 0
7, 107648, Note_on_c, 5, 51, 34
7, 107708, Note_on_c, 5, 51, 0
7, 107776, Note_on_c, 5, 51, 34
7, 107836, Note_on_c, 5, 51, 0
7, 107904, Note_on_c, 5, 51, 34
7, 107964, Note_on_c, 5, 51, 0
7, 108032, Note_on_c, 5, 51, 34
7, 108092, Note_on_c, 5, 51, 0
7, 108160, Note_on_c, 5, 51, 34
7, 108220, Note_on_c, 5, 51, 0
7, 108416, Note_on_c, 5, 54, 34
7, 108476, Note_on_c, 5, 54, 0
7, 108544, Note_on_c, 5, 54, 34
7, 108604, Note_on_c, 5, 54, 0
7, 108672, Note_on_c, 5, 54, 34
7, 108732, Note_on_c, 5, 54, 0
7, 108800, Note_on_c, 5, 54, 34
7, 108860, Note_on_c, 5, 54, 0
7, 108928, Note_on_c, 5, 54, 34
7, 108988, Note_on_c, 5, 54, 0
7, 109056, Note_on_c, 5, 54, 34
7, 109820, Note_on_c, 5, 54, 0
7, 109952, Note_on_c, 5, 54, 34
7, 110012, Note_on_c, 5, 54, 0
7, 110080, Note_on_c, 5, 54, 34
7, 110140, Note_on_c, 5, 54, 0
7, 110208, Note_on_c, 5, 54, 34
7, 110268, Note_on_c, 5, 54, 0
7, 110336, Note_on_c, 5, 54, 34
7, 110396, Note_on_c, 5, 54, 0
7, 110464, Note_on_c, 5, 54, 34
7, 110524, Note_on_c, 5, 54, 0
7, 110592, Note_on_c, 5, 54, 34
7, 111356, Note_on_c, 5, 54, 0
7, 111488, Note_on_c, 5, 54, 34
7, 111548, Note_on_c, 5, 54, 0
7, 111616, Note_on_c, 5, 54, 34
7, 111676, Note_on_c, 5, 54, 0
7, 111744, Note_on_c, 5, 54, 34
7, 111804, Note_on_c, 5, 54, 0
7, 111872, Note_on_c, 5, 54, 34
7, 111932, Note_on_c, 5, 54, 0
7, 112000, Note_on_c, 5, 54, 34
7, 112060, Note_on_c, 5, 54, 0
7, 112128, Note_on_c, 5, 54, 34
7, 112508, Note_on_c, 5, 54, 0
7, 112512, Note_on_c, 5, 51, 34
7, 112892, Note_on_c, 5, 51, 0
7, 112896, Note_on_c, 5, 53, 34
7, 112956, Note_on_c, 5, 53, 0
7, 113024, Note_on_c, 5, 58, 34
7, 113084, Note_on_c, 5, 58, 0
7, 113152, Note_on_c, 5, 58, 34
7, 113212, Note_on_c, 5, 58, 0
7, 113280, Note_on_c, 5, 58, 34
7, 113404, Note_on_c, 5, 58, 0
7, 113408, Note_on_c, 5, 60, 34
7, 113532, Note_on_c, 5, 60, 0
7, 113536, Note_on_c, 5, 58, 34
7, 113660, Note_on_c, 5, 58, 0
7, 113664, Note_on_c, 5, 57, 34
7, 113664, Note_on_c, 5, 57, 34
7, 113724, Note_on_c, 5, 57, 0
7, 113724, Note_on_c, 5, 57, 0
7, 113792, Note_on_c, 5, 57, 34
7, 113852, Note_on_c, 5, 57, 0
7, 113920, Note_on_c, 5, 57, 34
7, 113980, Note_on_c, 5, 57, 0
7, 114048, Note_on_c, 5, 57, 34
7, 114172, Note_on_c, 5, 57, 0
7, 114176, Note_on_c, 5, 55, 34
7, 114300, Note_on_c, 5, 55, 0
7, 114304, Note_on_c, 5, 57, 34
7, 114428, Note_on_c, 5, 57, 0
7, 114432, Note_on_c, 5, 58, 34
7, 114492, Note_on_c, 5, 58, 0
7, 114560, Note_on_c, 5, 58, 34
7, 114620, Note_on_c, 5, 58, 0
7, 114688, Note_on_c, 5, 58, 34
7, 114748, Note_on_c, 5, 58, 0
7, 114816, Note_on_c, 5, 58, 34
7, 114940, Note_on_c, 5, 58, 0
7, 114944, Note_on_c, 5, 60, 34
7, 115068, Note_on_c, 5, 60, 0
7, 115072, Note_on_c, 5, 58, 34
7, 115196, Note_on_c, 5, 58, 0
7, 115200, Note_on_c, 5, 57, 34
7, 115260, Note_on_c, 5, 57, 0
7, 115328, Note_on_c, 5, 57, 34
7, 115388, Note_on_c, 5, 57, 0
7, 115456, Note_on_c, 5, 57, 34
7, 115516, Note_on_c, 5, 57, 0
7, 115584, Note_on_c, 5, 57, 34
7, 115708, Note_on_c, 5, 57, 0
7, 115712, Note_on_c, 5, 55, 34
7, 115836, Note_on_c, 5, 55, 0
7, 115840, Note_on_c, 5, 57, 34
7, 115964, Note_on_c, 5, 57, 0
7, 115968, Note_on_c, 5, 58, 51
7, 116028, Note_on_c, 5, 58, 0
7, 116096, Note_on_c, 5, 60, 51
7, 116156, Note_on_c, 5, 60, 0
7, 116224, Note_on_c, 5, 58, 51
7, 116284, Note_on_c, 5, 58, 0
7, 116352, Note_on_c, 5, 56, 51
7, 116412, Note_on_c, 5, 56, 0
7, 116480, Note_on_c, 5, 58, 51
7, 116540, Note_on_c, 5, 58, 0
7, 116608, Note_on_c, 5, 56, 51
7, 116668, Note_on_c, 5, 56, 0
7, 116736, Note_on_c, 5, 55, 51
7, 116796, Note_on_c, 5, 55, 0
7, 116864, Note_on_c, 5, 56, 51
7, 116924, Note_on_c, 5, 56, 0
7, 116992, Note_on_c, 5, 55, 51
7, 117052, Note_on_c, 5, 55, 0
7, 117120, Note_on_c, 5, 53, 51
7, 117180, Note_on_c, 5, 53, 0
7, 117248, Note_on_c, 5, 55, 51
7, 117308, Note_on_c, 5, 55, 0
7, 117376, Note_on_c, 5, 53, 51
7, 117436, Note_on_c, 5, 53, 0
7, 117504, Note_on_c, 5, 51, 51
7, 117756, Note_on_c, 5, 51, 0
7, 117888, Note_on_c, 5, 51, 34
7, 119804, Note_on_c, 5, 51, 0
7, 119808, Note_on_c, 5, 53, 34
7, 120572, Note_on_c, 5, 53, 0
7, 120576, Note_on_c, 5, 51, 34
7, 122352, Note_on_c, 5, 51, 0
7, 122368, Note_on_c, 5, 55, 34
7, 122492, Note_on_c, 5, 55, 0
7, 122496, Note_on_c, 5, 58, 34
7, 122748, Note_on_c, 5, 58, 0
7, 122752, Note_on_c, 5, 63, 34
7, 122876, Note_on_c, 5, 63, 0
7, 122880, Note_on_c, 5, 65, 34
7, 123132, Note_on_c, 5, 65, 0
7, 123136, Note_on_c, 5, 63, 34
7, 123260, Note_on_c, 5, 63, 0
7, 123264, Note_on_c, 5, 62, 34
7, 123388, Note_on_c, 5, 62, 0
7, 123392, Note_on_c, 5, 63, 34
7, 123516, Note_on_c, 5, 63, 0
7, 123520, Note_on_c, 5, 65, 34
7, 123644, Note_on_c, 5, 65, 0
7, 123776, Note_on_c, 5, 63, 51
7, 123900, Note_on_c, 5, 63, 0
7, 123904, Note_on_c, 5, 63, 51
7, 124028, Note_on_c, 5, 63, 0
7, 124032, Note_on_c, 5, 62, 51
7, 124156, Note_on_c, 5, 62, 0
7, 124160, Note_on_c, 5, 58, 51
7, 124284, Note_on_c, 5, 58, 0
7, 124288, Note_on_c, 5, 62, 51
7, 124412, Note_on_c, 5, 62, 0
7, 124416, Note_on_c, 5, 63, 51
7, 124540, Note_on_c, 5, 63, 0
7, 124544, Note_on_c, 5, 58, 51
7, 124668, Note_on_c, 5, 58, 0
7, 124672, Note_on_c, 5, 63, 51
7, 124796, Note_on_c, 5, 63, 0
7, 124800, Note_on_c, 5, 65, 51
7, 124924, Note_on_c, 5, 65, 0
7, 124928, Note_on_c, 5, 58, 51
7, 125052, Note_on_c, 5, 58, 0
7, 125056, Note_on_c, 5, 65, 51
7, 125180, Note_on_c, 5, 65, 0
7, 125184, Note_on_c, 5, 67, 51
7, 125436, Note_on_c, 5, 67, 0
7, 126080, Note_on_c, 5, 55, 34
7, 126140, Note_on_c, 5, 55, 0
7, 126208, Note_on_c, 5, 55, 34
7, 126268, Note_on_c, 5, 55, 0
7, 126336, Note_on_c, 5, 55, 34
7, 126396, Note_on_c, 5, 55, 0
7, 126464, Note_on_c, 5, 55, 34
7, 126524, Note_on_c, 5, 55, 0
7, 126592, Note_on_c, 5, 55, 34
7, 126652, Note_on_c, 5, 55, 0
7, 126848, Note_on_c, 5, 53, 34
7, 126908, Note_on_c, 5, 53, 0
7, 126976, Note_on_c, 5, 53, 34
7, 127036, Note_on_c, 5, 53, 0
7, 127104, Note_on_c, 5, 53, 34
7, 127164, Note_on_c, 5, 53, 0
7, 127232, Note_on_c, 5, 53, 34
7, 127292, Note_on_c, 5, 53, 0
7, 127360, Note_on_c, 5, 53, 34
7, 127420, Note_on_c, 5, 53, 0
7, 127616, Note_on_c, 5, 53, 34
7, 127676, Note_on_c, 5, 53, 0
7, 127744, Note_on_c, 5, 53, 34
7, 127804, Note_on_c, 5, 53, 0
7, 127872, Note_on_c, 5, 53, 34
7, 127932, Note_on_c, 5, 53, 0
7, 128000, Note_on_c, 5, 53, 34
7, 128060, Note_on_c, 5, 53, 0
7, 128128, Note_on_c, 5, 53, 34
7, 128188, Note_on_c, 5, 53, 0
7, 128256, Note_on_c, 5, 51, 34
7, 128508, Note_on_c, 5, 51, 0
7, 129024, Note_on_c, 5, 56, 34
7, 129276, Note_on_c, 5, 56, 0
7, 129792, Note_on_c, 5, 58, 34
7, 130044, Note_on_c, 5, 58, 0
7, 130560, Note_on_c, 5, 58, 51
7, 132092, Note_on_c, 5, 58, 0
7, 132864, Note_on_c, 5, 58, 34
7, 133116, Note_on_c, 5, 58, 0
7, 133248, Note_on_c, 5, 51, 34
7, 133500, Note_on_c, 5, 51, 0
7, 133632, Note_on_c, 5, 58, 34
7, 133884, Note_on_c, 5, 58, 0
7, 134016, Note_on_c, 5, 58, 34
7, 134268, Note_on_c, 5, 58, 0
7, 134400, Note_on_c, 5, 58, 34
7, 134652, Note_on_c, 5, 58, 0
7, 134784, Note_on_c, 5, 51, 34
7, 135036, Note_on_c, 5, 51, 0
7, 135168, Note_on_c, 5, 58, 34
7, 135420, Note_on_c, 5, 58, 0
7, 135936, Note_on_c, 5, 58, 34
7, 136188, Note_on_c, 5, 58, 0
7, 136320, Note_on_c, 5, 58, 34
7, 136572, Note_on_c, 5, 58, 0
7, 136704, Note_on_c, 5, 58, 34
7, 136956, Note_on_c, 5, 58, 0
7, 137088, Note_on_c, 5, 58, 34
7, 137340, Note_on_c, 5, 58, 0
7, 137472, Note_on_c, 5, 58, 34
7, 137724, Note_on_c, 5, 58, 0
7, 137728, Note_on_c, 5, 55, 51
7, 137788, Note_on_c, 5, 55, 0
7, 137856, Note_on_c, 5, 56, 51
7, 137916, Note_on_c, 5, 56, 0
7, 137984, Note_on_c, 5, 55, 51
7, 138044, Note_on_c, 5, 55, 0
7, 138112, Note_on_c, 5, 56, 51
7, 138172, Note_on_c, 5, 56, 0
7, 138240, Note_on_c, 5, 55, 51
7, 138300, Note_on_c, 5, 55, 0
7, 138368, Note_on_c, 5, 63, 51
7, 138428, Note_on_c, 5, 63, 0
7, 138496, Note_on_c, 5, 63, 51
7, 138556, Note_on_c, 5, 63, 0
7, 138624, Note_on_c, 5, 63, 51
7, 138684, Note_on_c, 5, 63, 0
7, 138752, Note_on_c, 5, 63, 51
7, 138812, Note_on_c, 5, 63, 0
7, 138880, Note_on_c, 5, 63, 51
7, 138940, Note_on_c, 5, 63, 0
7, 139008, Note_on_c, 5, 62, 51
7, 139132, Note_on_c, 5, 62, 0
7, 139136, Note_on_c, 5, 65, 51
7, 139260, Note_on_c, 5, 65, 0
7, 139264, Note_on_c, 5, 70, 51
7, 139360, Note_on_c, 5, 70, 0
7, 139392, Note_on_c, 5, 70, 51
7, 139516, Note_on_c, 5, 70, 0
7, 139520, Note_on_c, 5, 68, 51
7, 139644, Note_on_c, 5, 68, 0
7, 139648, Note_on_c, 5, 65, 51
7, 139744, Note_on_c, 5, 65, 0
7, 139776, Note_on_c, 5, 64, 51
7, 139900, Note_on_c, 5, 64, 0
7, 139904, Note_on_c, 5, 67, 51
7, 140028, Note_on_c, 5, 67, 0
7, 140032, Note_on_c, 5, 72, 51
7, 140128, Note_on_c, 5, 72, 0
7, 140160, Note_on_c, 5, 72, 51
7, 140284, Note_on_c, 5, 72, 0
7, 140288, Note_on_c, 5, 70, 51
7, 140412, Note_on_c, 5, 70, 0
7, 140416, Note_on_c, 5, 67, 51
7, 140512, Note_on_c, 5, 67, 0
7, 140544, Note_on_c, 5, 68, 51
7, 140604, Note_on_c, 5, 68, 0
7, 140672, Note_on_c, 5, 72, 51
7, 140732, Note_on_c, 5, 72, 0
7, 140800, Note_on_c, 5, 64, 51
7, 140860, Note_on_c, 5, 64, 0
7, 140928, Note_on_c, 5, 65, 51
7, 140988, Note_on_c, 5, 65, 0
7, 141056, Note_on_c, 5, 68, 51
7, 141116, Note_on_c, 5, 68, 0
7, 141184, Note_on_c, 5, 60, 51
7, 141244, Note_on_c, 5, 60, 0
7, 141312, Note_on_c, 5, 62, 51
7, 141372, Note_on_c, 5, 62, 0
7, 141440, Note_on_c, 5, 65, 51
7, 141500, Note_on_c, 5, 65, 0
7, 141568, Note_on_c, 5, 57, 51
7, 141628, Note_on_c, 5, 57, 0
7, 141696, Note_on_c, 5, 58, 51
7, 141756, Note_on_c, 5, 58, 0
7, 141824, Note_on_c, 5, 62, 51
7, 141884, Note_on_c, 5, 62, 0
7, 141952, Note_on_c, 5, 58, 51
7, 142012, Note_on_c, 5, 58, 0
7, 142080, Note_on_c, 5, 63, 51
7, 142204, Note_on_c, 5, 63, 0
7, 142208, Note_on_c, 5, 62, 51
7, 142332, Note_on_c, 5, 62, 0
7, 142336, Note_on_c, 5, 63, 51
7, 142460, Note_on_c, 5, 63, 0
7, 142464, Note_on_c, 5, 60, 51
7, 142588, Note_on_c, 5, 60, 0
7, 142592, Note_on_c, 5, 58, 51
7, 142716, Note_on_c, 5, 58, 0
7, 142720, Note_on_c, 5, 60, 51
7, 142844, Note_on_c, 5, 60, 0
7, 142848, Note_on_c, 5, 56, 51
7, 142972, Note_on_c, 5, 56, 0
7, 142976, Note_on_c, 5, 55, 51
7, 143100, Note_on_c, 5, 55, 0
7, 143104, Note_on_c, 5, 56, 51
7, 143228, Note_on_c, 5, 56, 0
7, 143232, Note_on_c, 5, 58, 51
7, 143356, Note_on_c, 5, 58, 0
7, 143360, Note_on_c, 5, 56, 51
7, 143484, Note_on_c, 5, 56, 0
7, 143488, Note_on_c, 5, 58, 51
7, 143612, Note_on_c, 5, 58, 0
7, 143616, Note_on_c, 5, 63, 51
7, 143740, Note_on_c, 5, 63, 0
7, 143744, Note_on_c, 5, 62, 51
7, 143868, Note_on_c, 5, 62, 0
7, 143872, Note_on_c, 5, 63, 51
7, 143996, Note_on_c, 5, 63, 0
7, 144000, Note_on_c, 5, 72, 51
7, 144124, Note_on_c, 5, 72, 0
7, 144128, Note_on_c, 5, 70, 51
7, 144252, Note_on_c, 5, 70, 0
7, 144256, Note_on_c, 5, 72, 51
7, 144380, Note_on_c, 5, 72, 0
7, 144384, Note_on_c, 5, 68, 51
7, 144508, Note_on_c, 5, 68, 0
7, 144512, Note_on_c, 5, 67, 51
7, 144636, Note_on_c, 5, 67, 0
7, 144640, Note_on_c, 5, 68, 51
7, 144764, Note_on_c, 5, 68, 0
7, 144768, Note_on_c, 5, 70, 51
7, 144892, Note_on_c, 5, 70, 0
7, 144896, Note_on_c, 5, 68, 51
7, 145020, Note_on_c, 5, 68, 0
7, 145024, Note_on_c, 5, 70, 51
7, 145148, Note_on_c, 5, 70, 0
7, 145152, Note_on_c, 5, 75, 51
7, 145276, Note_on_c, 5, 75, 0
7, 145280, Note_on_c, 5, 74, 51
7, 145404, Note_on_c, 5, 74, 0
7, 145408, Note_on_c, 5, 75, 51
7, 145532, Note_on_c, 5, 75, 0
7, 145536, Note_on_c, 5, 72, 51
7, 145660, Note_on_c, 5, 72, 0
7, 145664, Note_on_c, 5, 70, 51
7, 145788, Note_on_c, 5, 70, 0
7, 145792, Note_on_c, 5, 72, 51
7, 145916, Note_on_c, 5, 72, 0
7, 145920, Note_on_c, 5, 68, 51
7, 146044, Note_on_c, 5, 68, 0
7, 146048, Note_on_c, 5, 67, 51
7, 146172, Note_on_c, 5, 67, 0
7, 146176, Note_on_c, 5, 68, 51
7, 146300, Note_on_c, 5, 68, 0
7, 146304, Note_on_c, 5, 70, 51
7, 146428, Note_on_c, 5, 70, 0
7, 146432, Note_on_c, 5, 69, 51
7, 146556, Note_on_c, 5, 69, 0
7, 146560, Note_on_c, 5, 70, 51
7, 146684, Note_on_c, 5, 70, 0
7, 146688, Note_on_c, 5, 72, 51
7, 147452, Note_on_c, 5, 72, 0
7, 147456, Note_on_c, 5, 57, 34
7, 148220, Note_on_c, 5, 57, 0
7, 148224, Note_on_c, 5, 65, 34
7, 148988, Note_on_c, 5, 65, 0
7, 148992, Note_on_c, 5, 58, 34
7, 149756, Note_on_c, 5, 58, 0
7, 149760, Note_on_c, 5, 51, 34
7, 150140, Note_on_c, 5, 51, 0
7, 150144, Note_on_c, 5, 56, 34
7, 150524, Note_on_c, 5, 56, 0
7, 150528, Note_on_c, 5, 58, 34
7, 150908, Note_on_c, 5, 58, 0
7, 150912, Note_on_c, 5, 60, 34
7, 151292, Note_on_c, 5, 60, 0
7, 151296, Note_on_c, 5, 59, 34
7, 151420, Note_on_c, 5, 59, 0
7, 151680, Note_on_c, 5, 58, 34
7, 151804, Note_on_c, 5, 58, 0
7, 152064, Note_on_c, 5, 58, 34
7, 152188, Note_on_c, 5, 58, 0
7, 152448, Note_on_c, 5, 58, 34
7, 152572, Note_on_c, 5, 58, 0
7, 152832, Note_on_c, 5, 51, 34
7, 152956, Note_on_c, 5, 51, 0
7, 152960, Note_on_c, 5, 55, 34
7, 153084, Note_on_c, 5, 55, 0
7, 153088, Note_on_c, 5, 58, 34
7, 153212, Note_on_c, 5, 58, 0
7, 153216, Note_on_c, 5, 51, 34
7, 153340, Note_on_c, 5, 51, 0
7, 153344, Note_on_c, 5, 55, 34
7, 153468, Note_on_c, 5, 55, 0
7, 153472, Note_on_c, 5, 58, 34
7, 153596, Note_on_c, 5, 58, 0
7, 153600, Note_on_c, 5, 53, 34
7, 153724, Note_on_c, 5, 53, 0
7, 153728, Note_on_c, 5, 56, 34
7, 153852, Note_on_c, 5, 56, 0
7, 153856, Note_on_c, 5, 58, 34
7, 153980, Note_on_c, 5, 58, 0
7, 153984, Note_on_c, 5, 53, 34
7, 154108, Note_on_c, 5, 53, 0
7, 154112, Note_on_c, 5, 56, 34
7, 154236, Note_on_c, 5, 56, 0
7, 154240, Note_on_c, 5, 58, 34
7, 154364, Note_on_c, 5, 58, 0
7, 154368, Note_on_c, 5, 51, 34
7, 154492, Note_on_c, 5, 51, 0
7, 154496, Note_on_c, 5, 55, 34
7, 154620, Note_on_c, 5, 55, 0
7, 154624, Note_on_c, 5, 58, 34
7, 154748, Note_on_c, 5, 58, 0
7, 154752, Note_on_c, 5, 51, 34
7, 154876, Note_on_c, 5, 51, 0
7, 154880, Note_on_c, 5, 55, 34
7, 155004, Note_on_c, 5, 55, 0
7, 155008, Note_on_c, 5, 58, 34
7, 155132, Note_on_c, 5, 58, 0
7, 155136, Note_on_c, 5, 53, 34
7, 155260, Note_on_c, 5, 53, 0
7, 155264, Note_on_c, 5, 56, 34
7, 155388, Note_on_c, 5, 56, 0
7, 155392, Note_on_c, 5, 58, 34
7, 155516, Note_on_c, 5, 58, 0
7, 155520, Note_on_c, 5, 53, 34
7, 155644, Note_on_c, 5, 53, 0
7, 155648, Note_on_c, 5, 56, 34
7, 155772, Note_on_c, 5, 56, 0
7, 155776, Note_on_c, 5, 58, 34
7, 155900, Note_on_c, 5, 58, 0
7, 155904, Note_on_c, 5, 51, 34
7, 156028, Note_on_c, 5, 51, 0
7, 156032, Note_on_c, 5, 55, 34
7, 156156, Note_on_c, 5, 55, 0
7, 156160, Note_on_c, 5, 58, 34
7, 156284, Note_on_c, 5, 58, 0
7, 156288, Note_on_c, 5, 51, 34
7, 156412, Note_on_c, 5, 51, 0
7, 156416, Note_on_c, 5, 55, 34
7, 156540, Note_on_c, 5, 55, 0
7, 156544, Note_on_c, 5, 58, 34
7, 156668, Note_on_c, 5, 58, 0
7, 156672, Note_on_c, 5, 53, 34
7, 156796, Note_on_c, 5, 53, 0
7, 156800, Note_on_c, 5, 56, 34
7, 156924, Note_on_c, 5, 56, 0
7, 156928, Note_on_c, 5, 58, 34
7, 157052, Note_on_c, 5, 58, 0
7, 157056, Note_on_c, 5, 53, 34
7, 157180, Note_on_c, 5, 53, 0
7, 157184, Note_on_c, 5, 56, 34
7, 157308, Note_on_c, 5, 56, 0
7, 157312, Note_on_c, 5, 58, 34
7, 157436, Note_on_c, 5, 58, 0
7, 157440, Note_on_c, 5, 58, 51
7, 157500, Note_on_c, 5, 58, 0
7, 157568, Note_on_c, 5, 58, 51
7, 157628, Note_on_c, 5, 58, 0
7, 157696, Note_on_c, 5, 58, 51
7, 157756, Note_on_c, 5, 58, 0
7, 157824, Note_on_c, 5, 58, 51
7, 157884, Note_on_c, 5, 58, 0
7, 157952, Note_on_c, 5, 58, 51
7, 158012, Note_on_c, 5, 58, 0
7, 158080, Note_on_c, 5, 58, 51
7, 158140, Note_on_c, 5, 58, 0
7, 158208, Note_on_c, 5, 58, 51
7, 158332, Note_on_c, 5, 58, 0
7, 158592, Note_on_c, 5, 63, 51
7, 158716, Note_on_c, 5, 63, 0
7, 158976, Note_on_c, 5, 51, 51
7, 159100, Note_on_c, 5, 51, 0
7, 159100, End_track
8, 0, Start_track
8, 0, MIDI_port, 0
8, 0, Title_t, "Cello"
8, 0, Program_c, 6, 48
8, 0, Control_c, 6, 7, 127
8, 0, Control_c, 6, 10, 95
8, 0, Control_c, 6, 0, 0
8, 0, Control_c, 6, 32, 0
8, 15, Control_c, 6, 12, 0
8, 30, Control_c, 6, 7, 127
8, 50, Control_c, 6, 91, 100
8, 61, Control_c, 6, 93, 10
8, 384, Program_c, 6, 48
8, 768, Note_on_c, 6, 51, 47
8, 1020, Note_on_c, 6, 51, 0
8, 1152, Note_on_c, 6, 55, 47
8, 1404, Note_on_c, 6, 55, 0
8, 1536, Note_on_c, 6, 53, 47
8, 1788, Note_on_c, 6, 53, 0
8, 1920, Note_on_c, 6, 50, 47
8, 2172, Note_on_c, 6, 50, 0
8, 2304, Note_on_c, 6, 51, 47
8, 2556, Note_on_c, 6, 51, 0
8, 2688, Note_on_c, 6, 48, 47
8, 2940, Note_on_c, 6, 48, 0
8, 3072, Note_on_c, 6, 46, 47
8, 3324, Note_on_c, 6, 46, 0
8, 3456, Note_on_c, 6, 58, 47
8, 3516, Note_on_c, 6, 58, 0
8, 3520, Note_on_c, 6, 60, 47
8, 3580, Note_on_c, 6, 60, 0
8, 3584, Note_on_c, 6, 58, 47
8, 3644, Note_on_c, 6, 58, 0
8, 3648, Note_on_c, 6, 56, 47
8, 3708, Note_on_c, 6, 56, 0
8, 3712, Note_on_c, 6, 55, 47
8, 3772, Note_on_c, 6, 55, 0
8, 3776, Note_on_c, 6, 53, 47
8, 3836, Note_on_c, 6, 53, 0
8, 3840, Note_on_c, 6, 51, 47
8, 4092, Note_on_c, 6, 51, 0
8, 4224, Note_on_c, 6, 55, 47
8, 4476, Note_on_c, 6, 55, 0
8, 4608, Note_on_c, 6, 53, 47
8, 4860, Note_on_c, 6, 53, 0
8, 4992, Note_on_c, 6, 50, 47
8, 5244, Note_on_c, 6, 50, 0
8, 5376, Note_on_c, 6, 51, 47
8, 5628, Note_on_c, 6, 51, 0
8, 5760, Note_on_c, 6, 46, 47
8, 5820, Note_on_c, 6, 46, 0
8, 5888, Note_on_c, 6, 46, 47
8, 5948, Note_on_c, 6, 46, 0
8, 6016, Note_on_c, 6, 46, 47
8, 6076, Note_on_c, 6, 46, 0
8, 6144, Note_on_c, 6, 51, 47
8, 6204, Note_on_c, 6, 51, 0
8, 6272, Note_on_c, 6, 51, 47
8, 6332, Note_on_c, 6, 51, 0
8, 6400, Note_on_c, 6, 51, 47
8, 6460, Note_on_c, 6, 51, 0
8, 6528, Note_on_c, 6, 51, 47
8, 6652, Note_on_c, 6, 51, 0
8, 6912, Note_on_c, 6, 51, 71
8, 7164, Note_on_c, 6, 51, 0
8, 7296, Note_on_c, 6, 55, 71
8, 7548, Note_on_c, 6, 55, 0
8, 7680, Note_on_c, 6, 53, 71
8, 7932, Note_on_c, 6, 53, 0
8, 8064, Note_on_c, 6, 50, 71
8, 8316, Note_on_c, 6, 50, 0
8, 8448, Note_on_c, 6, 51, 71
8, 8700, Note_on_c, 6, 51, 0
8, 8832, Note_on_c, 6, 48, 71
8, 9084, Note_on_c, 6, 48, 0
8, 9216, Note_on_c, 6, 46, 71
8, 9468, Note_on_c, 6, 46, 0
8, 9600, Note_on_c, 6, 58, 71
8, 9660, Note_on_c, 6, 58, 0
8, 9664, Note_on_c, 6, 60, 71
8, 9724, Note_on_c, 6, 60, 0
8, 9728, Note_on_c, 6, 58, 71
8, 9788, Note_on_c, 6, 58, 0
8, 9792, Note_on_c, 6, 56, 71
8, 9852, Note_on_c, 6, 56, 0
8, 9856, Note_on_c, 6, 55, 71
8, 9916, Note_on_c, 6, 55, 0
8, 9920, Note_on_c, 6, 53, 71
8, 9980, Note_on_c, 6, 53, 0
8, 9984, Note_on_c, 6, 51, 71
8, 10236, Note_on_c, 6, 51, 0
8, 10368, Note_on_c, 6, 55, 71
8, 10620, Note_on_c, 6, 55, 0
8, 10752, Note_on_c, 6, 53, 71
8, 11004, Note_on_c, 6, 53, 0
8, 11136, Note_on_c, 6, 50, 71
8, 11388, Note_on_c, 6, 50, 0
8, 11520, Note_on_c, 6, 51, 71
8, 11772, Note_on_c, 6, 51, 0
8, 11904, Note_on_c, 6, 46, 71
8, 12156, Note_on_c, 6, 46, 0
8, 12288, Note_on_c, 6, 51, 71
8, 12348, Note_on_c, 6, 51, 0
8, 12416, Note_on_c, 6, 51, 71
8, 12476, Note_on_c, 6, 51, 0
8, 12544, Note_on_c, 6, 51, 71
8, 12604, Note_on_c, 6, 51, 0
8, 12672, Note_on_c, 6, 51, 71
8, 12796, Note_on_c, 6, 51, 0
8, 13056, Note_on_c, 6, 51, 47
8, 13436, Note_on_c, 6, 51, 0
8, 13824, Note_on_c, 6, 51, 47
8, 14204, Note_on_c, 6, 51, 0
8, 14592, Note_on_c, 6, 44, 47
8, 14972, Note_on_c, 6, 44, 0
8, 14976, Note_on_c, 6, 46, 47
8, 15356, Note_on_c, 6, 46, 0
8, 15360, Note_on_c, 6, 39, 47
8, 15740, Note_on_c, 6, 39, 0
8, 16128, Note_on_c, 6, 51, 47
8, 16508, Note_on_c, 6, 51, 0
8, 16896, Note_on_c, 6, 51, 47
8, 17276, Note_on_c, 6, 51, 0
8, 17664, Note_on_c, 6, 46, 47
8, 18428, Note_on_c, 6, 46, 0
8, 18432, Note_on_c, 6, 51, 47
8, 18684, Note_on_c, 6, 51, 0
8, 19200, Note_on_c, 6, 55, 47
8, 19964, Note_on_c, 6, 55, 0
8, 19968, Note_on_c, 6, 48, 47
8, 20220, Note_on_c, 6, 48, 0
8, 20736, Note_on_c, 6, 53, 47
8, 21500, Note_on_c, 6, 53, 0
8, 21504, Note_on_c, 6, 46, 47
8, 21756, Note_on_c, 6, 46, 0
8, 22272, Note_on_c, 6, 55, 47
8, 23036, Note_on_c, 6, 55, 0
8, 23040, Note_on_c, 6, 53, 47
8, 23164, Note_on_c, 6, 53, 0
8, 23808, Note_on_c, 6, 55, 47
8, 24572, Note_on_c, 6, 55, 0
8, 24576, Note_on_c, 6, 53, 47
8, 24828, Note_on_c, 6, 53, 0
8, 25344, Note_on_c, 6, 48, 47
8, 25724, Note_on_c, 6, 48, 0
8, 26112, Note_on_c, 6, 53, 47
8, 26492, Note_on_c, 6, 53, 0
8, 26880, Note_on_c, 6, 48, 47
8, 27260, Note_on_c, 6, 48, 0
8, 27648, Note_on_c, 6, 53, 71
8, 27708, Note_on_c, 6, 53, 0
8, 27776, Note_on_c, 6, 55, 71
8, 27836, Note_on_c, 6, 55, 0
8, 27904, Note_on_c, 6, 53, 71
8, 27964, Note_on_c, 6, 53, 0
8, 28032, Note_on_c, 6, 51, 71
8, 28092, Note_on_c, 6, 51, 0
8, 28160, Note_on_c, 6, 53, 71
8, 28220, Note_on_c, 6, 53, 0
8, 28288, Note_on_c, 6, 51, 71
8, 28348, Note_on_c, 6, 51, 0
8, 28416, Note_on_c, 6, 50, 71
8, 28476, Note_on_c, 6, 50, 0
8, 28544, Note_on_c, 6, 51, 71
8, 28604, Note_on_c, 6, 51, 0
8, 28672, Note_on_c, 6, 50, 71
8, 28732, Note_on_c, 6, 50, 0
8, 28800, Note_on_c, 6, 48, 71
8, 28860, Note_on_c, 6, 48, 0
8, 28928, Note_on_c, 6, 50, 71
8, 28988, Note_on_c, 6, 50, 0
8, 29056, Note_on_c, 6, 48, 71
8, 29116, Note_on_c, 6, 48, 0
8, 29184, Note_on_c, 6, 46, 47
8, 29564, Note_on_c, 6, 46, 0
8, 29568, Note_on_c, 6, 46, 47
8, 31484, Note_on_c, 6, 46, 0
8, 31488, Note_on_c, 6, 53, 47
8, 32252, Note_on_c, 6, 53, 0
8, 32256, Note_on_c, 6, 46, 47
8, 34556, Note_on_c, 6, 46, 0
8, 34560, Note_on_c, 6, 53, 47
8, 35324, Note_on_c, 6, 53, 0
8, 35456, Note_on_c, 6, 58, 71
8, 35516, Note_on_c, 6, 58, 0
8, 35584, Note_on_c, 6, 58, 71
8, 35644, Note_on_c, 6, 58, 0
8, 35712, Note_on_c, 6, 56, 71
8, 35772, Note_on_c, 6, 56, 0
8, 35840, Note_on_c, 6, 58, 71
8, 35900, Note_on_c, 6, 58, 0
8, 35968, Note_on_c, 6, 56, 71
8, 36028, Note_on_c, 6, 56, 0
8, 36096, Note_on_c, 6, 55, 71
8, 36156, Note_on_c, 6, 55, 0
8, 36224, Note_on_c, 6, 53, 71
8, 36284, Note_on_c, 6, 53, 0
8, 36352, Note_on_c, 6, 51, 71
8, 36412, Note_on_c, 6, 51, 0
8, 36480, Note_on_c, 6, 50, 71
8, 36540, Note_on_c, 6, 50, 0
8, 36608, Note_on_c, 6, 48, 71
8, 36668, Note_on_c, 6, 48, 0
8, 36736, Note_on_c, 6, 46, 71
8, 36796, Note_on_c, 6, 46, 0
8, 36864, Note_on_c, 6, 51, 71
8, 37116, Note_on_c, 6, 51, 0
8, 37632, Note_on_c, 6, 51, 47
8, 38396, Note_on_c, 6, 51, 0
8, 38400, Note_on_c, 6, 50, 47
8, 38652, Note_on_c, 6, 50, 0
8, 38784, Note_on_c, 6, 51, 47
8, 39036, Note_on_c, 6, 51, 0
8, 39168, Note_on_c, 6, 53, 47
8, 39292, Note_on_c, 6, 53, 0
8, 39552, Note_on_c, 6, 41, 47
8, 39676, Note_on_c, 6, 41, 0
8, 40064, Note_on_c, 6, 58, 71
8, 40124, Note_on_c, 6, 58, 0
8, 40192, Note_on_c, 6, 58, 71
8, 40252, Note_on_c, 6, 58, 0
8, 40320, Note_on_c, 6, 56, 71
8, 40380, Note_on_c, 6, 56, 0
8, 40448, Note_on_c, 6, 58, 71
8, 40508, Note_on_c, 6, 58, 0
8, 40576, Note_on_c, 6, 56, 71
8, 40636, Note_on_c, 6, 56, 0
8, 40704, Note_on_c, 6, 55, 71
8, 40764, Note_on_c, 6, 55, 0
8, 40832, Note_on_c, 6, 53, 71
8, 40892, Note_on_c, 6, 53, 0
8, 40960, Note_on_c, 6, 51, 71
8, 41020, Note_on_c, 6, 51, 0
8, 41088, Note_on_c, 6, 50, 71
8, 41148, Note_on_c, 6, 50, 0
8, 41216, Note_on_c, 6, 48, 71
8, 41276, Note_on_c, 6, 48, 0
8, 41344, Note_on_c, 6, 46, 71
8, 41404, Note_on_c, 6, 46, 0
8, 41472, Note_on_c, 6, 51, 71
8, 41724, Note_on_c, 6, 51, 0
8, 42240, Note_on_c, 6, 51, 47
8, 42620, Note_on_c, 6, 51, 0
8, 42624, Note_on_c, 6, 52, 47
8, 43004, Note_on_c, 6, 52, 0
8, 43008, Note_on_c, 6, 53, 47
8, 43260, Note_on_c, 6, 53, 0
8, 43776, Note_on_c, 6, 53, 47
8, 44028, Note_on_c, 6, 53, 0
8, 45312, Note_on_c, 6, 53, 47
8, 45692, Note_on_c, 6, 53, 0
8, 45696, Note_on_c, 6, 41, 47
8, 46076, Note_on_c, 6, 41, 0
8, 46080, Note_on_c, 6, 46, 47
8, 51068, Note_on_c, 6, 46, 0
8, 52224, Note_on_c, 6, 51, 47
8, 52476, Note_on_c, 6, 51, 0
8, 52608, Note_on_c, 6, 55, 47
8, 52860, Note_on_c, 6, 55, 0
8, 52992, Note_on_c, 6, 53, 47
8, 53244, Note_on_c, 6, 53, 0
8, 53376, Note_on_c, 6, 50, 47
8, 53628, Note_on_c, 6, 50, 0
8, 53760, Note_on_c, 6, 51, 47
8, 54012, Note_on_c, 6, 51, 0
8, 54144, Note_on_c, 6, 48, 47
8, 54396, Note_on_c, 6, 48, 0
8, 54528, Note_on_c, 6, 46, 47
8, 54780, Note_on_c, 6, 46, 0
8, 54912, Note_on_c, 6, 58, 47
8, 54972, Note_on_c, 6, 58, 0
8, 54976, Note_on_c, 6, 60, 47
8, 55036, Note_on_c, 6, 60, 0
8, 55040, Note_on_c, 6, 58, 47
8, 55100, Note_on_c, 6, 58, 0
8, 55104, Note_on_c, 6, 56, 47
8, 55164, Note_on_c, 6, 56, 0
8, 55168, Note_on_c, 6, 55, 47
8, 55228, Note_on_c, 6, 55, 0
8, 55232, Note_on_c, 6, 53, 47
8, 55292, Note_on_c, 6, 53, 0
8, 55296, Note_on_c, 6, 51, 47
8, 55548, Note_on_c, 6, 51, 0
8, 55680, Note_on_c, 6, 55, 47
8, 55932, Note_on_c, 6, 55, 0
8, 56064, Note_on_c, 6, 53, 47
8, 56316, Note_on_c, 6, 53, 0
8, 56448, Note_on_c, 6, 50, 47
8, 56700, Note_on_c, 6, 50, 0
8, 56832, Note_on_c, 6, 51, 47
8, 57084, Note_on_c, 6, 51, 0
8, 57216, Note_on_c, 6, 46, 47
8, 57276, Note_on_c, 6, 46, 0
8, 57344, Note_on_c, 6, 46, 47
8, 57404, Note_on_c, 6, 46, 0
8, 57472, Note_on_c, 6, 46, 47
8, 57532, Note_on_c, 6, 46, 0
8, 57600, Note_on_c, 6, 51, 47
8, 57660, Note_on_c, 6, 51, 0
8, 57728, Note_on_c, 6, 51, 47
8, 57788, Note_on_c, 6, 51, 0
8, 57856, Note_on_c, 6, 51, 47
8, 57916, Note_on_c, 6, 51, 0
8, 57984, Note_on_c, 6, 51, 47
8, 58108, Note_on_c, 6, 51, 0
8, 58368, Note_on_c, 6, 51, 71
8, 58620, Note_on_c, 6, 51, 0
8, 58752, Note_on_c, 6, 55, 71
8, 59004, Note_on_c, 6, 55, 0
8, 59136, Note_on_c, 6, 53, 71
8, 59388, Note_on_c, 6, 53, 0
8, 59520, Note_on_c, 6, 50, 71
8, 59772, Note_on_c, 6, 50, 0
8, 59904, Note_on_c, 6, 51, 71
8, 60156, Note_on_c, 6, 51, 0
8, 60288, Note_on_c, 6, 48, 71
8, 60540, Note_on_c, 6, 48, 0
8, 60672, Note_on_c, 6, 46, 71
8, 60924, Note_on_c, 6, 46, 0
8, 61056, Note_on_c, 6, 58, 71
8, 61116, Note_on_c, 6, 58, 0
8, 61120, Note_on_c, 6, 60, 71
8, 61180, Note_on_c, 6, 60, 0
8, 61184, Note_on_c, 6, 58, 71
8, 61244, Note_on_c, 6, 58, 0
8, 61248, Note_on_c, 6, 56, 71
8, 61308, Note_on_c, 6, 56, 0
8, 61312, Note_on_c, 6, 55, 71
8, 61372, Note_on_c, 6, 55, 0
8, 61376, Note_on_c, 6, 53, 71
8, 61436, Note_on_c, 6, 53, 0
8, 61440, Note_on_c, 6, 51, 71
8, 61692, Note_on_c, 6, 51, 0
8, 61824, Note_on_c, 6, 55, 71
8, 62076, Note_on_c, 6, 55, 0
8, 62208, Note_on_c, 6, 53, 71
8, 62460, Note_on_c, 6, 53, 0
8, 62592, Note_on_c, 6, 50, 71
8, 62844, Note_on_c, 6, 50, 0
8, 62976, Note_on_c, 6, 51, 71
8, 63228, Note_on_c, 6, 51, 0
8, 63360, Note_on_c, 6, 46, 71
8, 63612, Note_on_c, 6, 46, 0
8, 63744, Note_on_c, 6, 51, 71
8, 63804, Note_on_c, 6, 51, 0
8, 63872, Note_on_c, 6, 51, 71
8, 63932, Note_on_c, 6, 51, 0
8, 64000, Note_on_c, 6, 51, 71
8, 64060, Note_on_c, 6, 51, 0
8, 64128, Note_on_c, 6, 51, 71
8, 64252, Note_on_c, 6, 51, 0
8, 65280, Note_on_c, 6, 48, 37
8, 66044, Note_on_c, 6, 48, 0
8, 66048, Note_on_c, 6, 47, 37
8, 66812, Note_on_c, 6, 47, 0
8, 66816, Note_on_c, 6, 48, 37
8, 67580, Note_on_c, 6, 48, 0
8, 67584, Note_on_c, 6, 48, 37
8, 67964, Note_on_c, 6, 48, 0
8, 67968, Note_on_c, 6, 53, 37
8, 68348, Note_on_c, 6, 53, 0
8, 68352, Note_on_c, 6, 51, 37
8, 68732, Note_on_c, 6, 51, 0
8, 68736, Note_on_c, 6, 47, 37
8, 69116, Note_on_c, 6, 47, 0
8, 69120, Note_on_c, 6, 48, 37
8, 69500, Note_on_c, 6, 48, 0
8, 69504, Note_on_c, 6, 56, 37
8, 69884, Note_on_c, 6, 56, 0
8, 69888, Note_on_c, 6, 55, 37
8, 70140, Note_on_c, 6, 55, 0
8, 71424, Note_on_c, 6, 48, 37
8, 72188, Note_on_c, 6, 48, 0
8, 72192, Note_on_c, 6, 47, 37
8, 72956, Note_on_c, 6, 47, 0
8, 73088, Note_on_c, 6, 46, 35
8, 73212, Note_on_c, 6, 46, 0
8, 73216, Note_on_c, 6, 48, 35
8, 73340, Note_on_c, 6, 48, 0
8, 73344, Note_on_c, 6, 50, 35
8, 73468, Note_on_c, 6, 50, 0
8, 73472, Note_on_c, 6, 51, 35
8, 73596, Note_on_c, 6, 51, 0
8, 73600, Note_on_c, 6, 53, 35
8, 73724, Note_on_c, 6, 53, 0
8, 73728, Note_on_c, 6, 51, 35
8, 73980, Note_on_c, 6, 51, 0
8, 74112, Note_on_c, 6, 43, 35
8, 74364, Note_on_c, 6, 43, 0
8, 74496, Note_on_c, 6, 44, 36
8, 74748, Note_on_c, 6, 44, 0
8, 74880, Note_on_c, 6, 48, 36
8, 75132, Note_on_c, 6, 48, 0
8, 75264, Note_on_c, 6, 49, 36
8, 75644, Note_on_c, 6, 49, 0
8, 75648, Note_on_c, 6, 51, 36
8, 76028, Note_on_c, 6, 51, 0
8, 76032, Note_on_c, 6, 44, 36
8, 76284, Note_on_c, 6, 44, 0
8, 77184, Note_on_c, 6, 51, 47
8, 77564, Note_on_c, 6, 51, 0
8, 77568, Note_on_c, 6, 44, 47
8, 77820, Note_on_c, 6, 44, 0
8, 77824, Note_on_c, 6, 45, 47
8, 77948, Note_on_c, 6, 45, 0
8, 77952, Note_on_c, 6, 46, 47
8, 78076, Note_on_c, 6, 46, 0
8, 78720, Note_on_c, 6, 53, 47
8, 79100, Note_on_c, 6, 53, 0
8, 79104, Note_on_c, 6, 46, 47
8, 79356, Note_on_c, 6, 46, 0
8, 79360, Note_on_c, 6, 47, 47
8, 79484, Note_on_c, 6, 47, 0
8, 79488, Note_on_c, 6, 48, 47
8, 79612, Note_on_c, 6, 48, 0
8, 80256, Note_on_c, 6, 55, 47
8, 80636, Note_on_c, 6, 55, 0
8, 80640, Note_on_c, 6, 48, 47
8, 80892, Note_on_c, 6, 48, 0
8, 81664, Note_on_c, 6, 48, 47
8, 81724, Note_on_c, 6, 48, 0
8, 81792, Note_on_c, 6, 48, 47
8, 81916, Note_on_c, 6, 48, 0
8, 81920, Note_on_c, 6, 46, 47
8, 82044, Note_on_c, 6, 46, 0
8, 82048, Note_on_c, 6, 48, 47
8, 82172, Note_on_c, 6, 48, 0
8, 82176, Note_on_c, 6, 50, 47
8, 82300, Note_on_c, 6, 50, 0
8, 82304, Note_on_c, 6, 48, 47
8, 82428, Note_on_c, 6, 48, 0
8, 82432, Note_on_c, 6, 50, 47
8, 82556, Note_on_c, 6, 50, 0
8, 82560, Note_on_c, 6, 51, 47
8, 82684, Note_on_c, 6, 51, 0
8, 82688, Note_on_c, 6, 50, 47
8, 82812, Note_on_c, 6, 50, 0
8, 82816, Note_on_c, 6, 51, 47
8, 82940, Note_on_c, 6, 51, 0
8, 82944, Note_on_c, 6, 48, 47
8, 83068, Note_on_c, 6, 48, 0
8, 83072, Note_on_c, 6, 46, 47
8, 83196, Note_on_c, 6, 46, 0
8, 83200, Note_on_c, 6, 48, 47
8, 83324, Note_on_c, 6, 48, 0
8, 83328, Note_on_c, 6, 50, 47
8, 83452, Note_on_c, 6, 50, 0
8, 83456, Note_on_c, 6, 48, 47
8, 83580, Note_on_c, 6, 48, 0
8, 83584, Note_on_c, 6, 50, 47
8, 83708, Note_on_c, 6, 50, 0
8, 83712, Note_on_c, 6, 43, 47
8, 83964, Note_on_c, 6, 43, 0
8, 84480, Note_on_c, 6, 50, 47
8, 85244, Note_on_c, 6, 50, 0
8, 85248, Note_on_c, 6, 55, 47
8, 85500, Note_on_c, 6, 55, 0
8, 86016, Note_on_c, 6, 50, 47
8, 86780, Note_on_c, 6, 50, 0
8, 86784, Note_on_c, 6, 43, 47
8, 87036, Note_on_c, 6, 43, 0
8, 87552, Note_on_c, 6, 48, 47
8, 88316, Note_on_c, 6, 48, 0
8, 88320, Note_on_c, 6, 53, 47
8, 88572, Note_on_c, 6, 53, 0
8, 89088, Note_on_c, 6, 48, 47
8, 89852, Note_on_c, 6, 48, 0
8, 89856, Note_on_c, 6, 41, 47
8, 90108, Note_on_c, 6, 41, 0
8, 90624, Note_on_c, 6, 46, 47
8, 91388, Note_on_c, 6, 46, 0
8, 91392, Note_on_c, 6, 51, 47
8, 91644, Note_on_c, 6, 51, 0
8, 92160, Note_on_c, 6, 46, 47
8, 92924, Note_on_c, 6, 46, 0
8, 92928, Note_on_c, 6, 39, 47
8, 93180, Note_on_c, 6, 39, 0
8, 93312, Note_on_c, 6, 55, 47
8, 93564, Note_on_c, 6, 55, 0
8, 93696, Note_on_c, 6, 53, 47
8, 93948, Note_on_c, 6, 53, 0
8, 94080, Note_on_c, 6, 50, 47
8, 94332, Note_on_c, 6, 50, 0
8, 94464, Note_on_c, 6, 51, 47
8, 94716, Note_on_c, 6, 51, 0
8, 94848, Note_on_c, 6, 48, 47
8, 95100, Note_on_c, 6, 48, 0
8, 95232, Note_on_c, 6, 46, 47
8, 95484, Note_on_c, 6, 46, 0
8, 95616, Note_on_c, 6, 58, 47
8, 95676, Note_on_c, 6, 58, 0
8, 95680, Note_on_c, 6, 60, 47
8, 95740, Note_on_c, 6, 60, 0
8, 95744, Note_on_c, 6, 58, 47
8, 95804, Note_on_c, 6, 58, 0
8, 95808, Note_on_c, 6, 56, 47
8, 95868, Note_on_c, 6, 56, 0
8, 95872, Note_on_c, 6, 55, 47
8, 95932, Note_on_c, 6, 55, 0
8, 95936, Note_on_c, 6, 53, 47
8, 95996, Note_on_c, 6, 53, 0
8, 96000, Note_on_c, 6, 51, 47
8, 96252, Note_on_c, 6, 51, 0
8, 96384, Note_on_c, 6, 55, 47
8, 96636, Note_on_c, 6, 55, 0
8, 96768, Note_on_c, 6, 53, 47
8, 97020, Note_on_c, 6, 53, 0
8, 97152, Note_on_c, 6, 50, 47
8, 97404, Note_on_c, 6, 50, 0
8, 97536, Note_on_c, 6, 51, 47
8, 97788, Note_on_c, 6, 51, 0
8, 97920, Note_on_c, 6, 46, 47
8, 97980, Note_on_c, 6, 46, 0
8, 98048, Note_on_c, 6, 46, 47
8, 98108, Note_on_c, 6, 46, 0
8, 98176, Note_on_c, 6, 46, 47
8, 98236, Note_on_c, 6, 46, 0
8, 98304, Note_on_c, 6, 51, 47
8, 98364, Note_on_c, 6, 51, 0
8, 98432, Note_on_c, 6, 51, 47
8, 98492, Note_on_c, 6, 51, 0
8, 98560, Note_on_c, 6, 51, 47
8, 98620, Note_on_c, 6, 51, 0
8, 98688, Note_on_c, 6, 51, 47
8, 98812, Note_on_c, 6, 51, 0
8, 99072, Note_on_c, 6, 51, 71
8, 99324, Note_on_c, 6, 51, 0
8, 99456, Note_on_c, 6, 55, 71
8, 99708, Note_on_c, 6, 55, 0
8, 99840, Note_on_c, 6, 53, 71
8, 100092, Note_on_c, 6, 53, 0
8, 100224, Note_on_c, 6, 50, 71
8, 100476, Note_on_c, 6, 50, 0
8, 100608, Note_on_c, 6, 51, 71
8, 100860, Note_on_c, 6, 51, 0
8, 100992, Note_on_c, 6, 48, 71
8, 101244, Note_on_c, 6, 48, 0
8, 101376, Note_on_c, 6, 46, 71
8, 101628, Note_on_c, 6, 46, 0
8, 101760, Note_on_c, 6, 58, 71
8, 101820, Note_on_c, 6, 58, 0
8, 101824, Note_on_c, 6, 60, 71
8, 101884, Note_on_c, 6, 60, 0
8, 101888, Note_on_c, 6, 58, 71
8, 101948, Note_on_c, 6, 58, 0
8, 101952, Note_on_c, 6, 56, 71
8, 102012, Note_on_c, 6, 56, 0
8, 102016, Note_on_c, 6, 55, 71
8, 102076, Note_on_c, 6, 55, 0
8, 102080, Note_on_c, 6, 53, 71
8, 102140, Note_on_c, 6, 53, 0
8, 102144, Note_on_c, 6, 51, 71
8, 102396, Note_on_c, 6, 51, 0
8, 102528, Note_on_c, 6, 55, 71
8, 102780, Note_on_c, 6, 55, 0
8, 102912, Note_on_c, 6, 53, 71
8, 103164, Note_on_c, 6, 53, 0
8, 103296, Note_on_c, 6, 50, 71
8, 103548, Note_on_c, 6, 50, 0
8, 103680, Note_on_c, 6, 51, 71
8, 103932, Note_on_c, 6, 51, 0
8, 104064, Note_on_c, 6, 46, 71
8, 104316, Note_on_c, 6, 46, 0
8, 104448, Note_on_c, 6, 51, 71
8, 104508, Note_on_c, 6, 51, 0
8, 104576, Note_on_c, 6, 51, 71
8, 104636, Note_on_c, 6, 51, 0
8, 104704, Note_on_c, 6, 51, 71
8, 104764, Note_on_c, 6, 51, 0
8, 104832, Note_on_c, 6, 51, 71
8, 104956, Note_on_c, 6, 51, 0
8, 105216, Note_on_c, 6, 51, 47
8, 105596, Note_on_c, 6, 51, 0
8, 105984, Note_on_c, 6, 51, 47
8, 106364, Note_on_c, 6, 51, 0
8, 106752, Note_on_c, 6, 44, 47
8, 107132, Note_on_c, 6, 44, 0
8, 107136, Note_on_c, 6, 46, 47
8, 107516, Note_on_c, 6, 46, 0
8, 107520, Note_on_c, 6, 39, 47
8, 107900, Note_on_c, 6, 39, 0
8, 108288, Note_on_c, 6, 51, 47
8, 109052, Note_on_c, 6, 51, 0
8, 109184, Note_on_c, 6, 51, 47
8, 109308, Note_on_c, 6, 51, 0
8, 109312, Note_on_c, 6, 51, 47
8, 109436, Note_on_c, 6, 51, 0
8, 109440, Note_on_c, 6, 51, 47
8, 109564, Note_on_c, 6, 51, 0
8, 109568, Note_on_c, 6, 51, 47
8, 109692, Note_on_c, 6, 51, 0
8, 109696, Note_on_c, 6, 51, 47
8, 109820, Note_on_c, 6, 51, 0
8, 109824, Note_on_c, 6, 47, 47
8, 110588, Note_on_c, 6, 47, 0
8, 110720, Note_on_c, 6, 47, 47
8, 110844, Note_on_c, 6, 47, 0
8, 110848, Note_on_c, 6, 47, 47
8, 110972, Note_on_c, 6, 47, 0
8, 110976, Note_on_c, 6, 47, 47
8, 111100, Note_on_c, 6, 47, 0
8, 111104, Note_on_c, 6, 47, 47
8, 111228, Note_on_c, 6, 47, 0
8, 111232, Note_on_c, 6, 47, 47
8, 111356, Note_on_c, 6, 47, 0
8, 111360, Note_on_c, 6, 47, 47
8, 112892, Note_on_c, 6, 47, 0
8, 112896, Note_on_c, 6, 46, 47
8, 113148, Note_on_c, 6, 46, 0
8, 113664, Note_on_c, 6, 53, 47
8, 113916, Note_on_c, 6, 53, 0
8, 114432, Note_on_c, 6, 46, 47
8, 114684, Note_on_c, 6, 46, 0
8, 115200, Note_on_c, 6, 53, 47
8, 115452, Note_on_c, 6, 53, 0
8, 115968, Note_on_c, 6, 58, 71
8, 116028, Note_on_c, 6, 58, 0
8, 116096, Note_on_c, 6, 60, 71
8, 116156, Note_on_c, 6, 60, 0
8, 116224, Note_on_c, 6, 58, 71
8, 116284, Note_on_c, 6, 58, 0
8, 116352, Note_on_c, 6, 56, 71
8, 116412, Note_on_c, 6, 56, 0
8, 116480, Note_on_c, 6, 58, 71
8, 116540, Note_on_c, 6, 58, 0
8, 116608, Note_on_c, 6, 56, 71
8, 116668, Note_on_c, 6, 56, 0
8, 116736, Note_on_c, 6, 55, 71
8, 116796, Note_on_c, 6, 55, 0
8, 116864, Note_on_c, 6, 56, 71
8, 116924, Note_on_c, 6, 56, 0
8, 116992, Note_on_c, 6, 55, 71
8, 117052, Note_on_c, 6, 55, 0
8, 117120, Note_on_c, 6, 53, 71
8, 117180, Note_on_c, 6, 53, 0
8, 117248, Note_on_c, 6, 55, 71
8, 117308, Note_on_c, 6, 55, 0
8, 117376, Note_on_c, 6, 53, 71
8, 117436, Note_on_c, 6, 53, 0
8, 117504, Note_on_c, 6, 51, 71
8, 117756, Note_on_c, 6, 51, 0
8, 117888, Note_on_c, 6, 51, 47
8, 119804, Note_on_c, 6, 51, 0
8, 119808, Note_on_c, 6, 46, 47
8, 120572, Note_on_c, 6, 46, 0
8, 120576, Note_on_c, 6, 51, 47
8, 123644, Note_on_c, 6, 51, 0
8, 123776, Note_on_c, 6, 51, 71
8, 123900, Note_on_c, 6, 51, 0
8, 123904, Note_on_c, 6, 51, 71
8, 124028, Note_on_c, 6, 51, 0
8, 124032, Note_on_c, 6, 50, 71
8, 124156, Note_on_c, 6, 50, 0
8, 124160, Note_on_c, 6, 46, 71
8, 124284, Note_on_c, 6, 46, 0
8, 124288, Note_on_c, 6, 50, 71
8, 124412, Note_on_c, 6, 50, 0
8, 124416, Note_on_c, 6, 51, 71
8, 124540, Note_on_c, 6, 51, 0
8, 124544, Note_on_c, 6, 46, 71
8, 124668, Note_on_c, 6, 46, 0
8, 124672, Note_on_c, 6, 51, 71
8, 124796, Note_on_c, 6, 51, 0
8, 124800, Note_on_c, 6, 53, 71
8, 124924, Note_on_c, 6, 53, 0
8, 124928, Note_on_c, 6, 46, 71
8, 125052, Note_on_c, 6, 46, 0
8, 125056, Note_on_c, 6, 53, 71
8, 125180, Note_on_c, 6, 53, 0
8, 125184, Note_on_c, 6, 55, 71
8, 125436, Note_on_c, 6, 55, 0
8, 125952, Note_on_c, 6, 48, 47
8, 126716, Note_on_c, 6, 48, 0
8, 126720, Note_on_c, 6, 53, 47
8, 127484, Note_on_c, 6, 53, 0
8, 127488, Note_on_c, 6, 46, 47
8, 128252, Note_on_c, 6, 46, 0
8, 128256, Note_on_c, 6, 48, 47
8, 128508, Note_on_c, 6, 48, 0
8, 129024, Note_on_c, 6, 44, 47
8, 129276, Note_on_c, 6, 44, 0
8, 129792, Note_on_c, 6, 46, 47
8, 130044, Note_on_c, 6, 46, 0
8, 130560, Note_on_c, 6, 46, 71
8, 132092, Note_on_c, 6, 46, 0
8, 132864, Note_on_c, 6, 51, 47
8, 133116, Note_on_c, 6, 51, 0
8, 133248, Note_on_c, 6, 55, 47
8, 133500, Note_on_c, 6, 55, 0
8, 133632, Note_on_c, 6, 53, 47
8, 133884, Note_on_c, 6, 53, 0
8, 134016, Note_on_c, 6, 50, 47
8, 134268, Note_on_c, 6, 50, 0
8, 134400, Note_on_c, 6, 51, 47
8, 134652, Note_on_c, 6, 51, 0
8, 134784, Note_on_c, 6, 48, 47
8, 135036, Note_on_c, 6, 48, 0
8, 135168, Note_on_c, 6, 46, 47
8, 135420, Note_on_c, 6, 46, 0
8, 135552, Note_on_c, 6, 58, 47
8, 135612, Note_on_c, 6, 58, 0
8, 135616, Note_on_c, 6, 60, 47
8, 135676, Note_on_c, 6, 60, 0
8, 135680, Note_on_c, 6, 58, 47
8, 135740, Note_on_c, 6, 58, 0
8, 135744, Note_on_c, 6, 56, 47
8, 135804, Note_on_c, 6, 56, 0
8, 135808, Note_on_c, 6, 55, 47
8, 135868, Note_on_c, 6, 55, 0
8, 135872, Note_on_c, 6, 53, 47
8, 135932, Note_on_c, 6, 53, 0
8, 135936, Note_on_c, 6, 51, 47
8, 136188, Note_on_c, 6, 51, 0
8, 136320, Note_on_c, 6, 55, 47
8, 136572, Note_on_c, 6, 55, 0
8, 136704, Note_on_c, 6, 53, 47
8, 136956, Note_on_c, 6, 53, 0
8, 137088, Note_on_c, 6, 50, 47
8, 137340, Note_on_c, 6, 50, 0
8, 137472, Note_on_c, 6, 51, 47
8, 137724, Note_on_c, 6, 51, 0
8, 137856, Note_on_c, 6, 46, 47
8, 137916, Note_on_c, 6, 46, 0
8, 137984, Note_on_c, 6, 46, 47
8, 138044, Note_on_c, 6, 46, 0
8, 138112, Note_on_c, 6, 46, 47
8, 138172, Note_on_c, 6, 46, 0
8, 138240, Note_on_c, 6, 51, 71
8, 138300, Note_on_c, 6, 51, 0
8, 138368, Note_on_c, 6, 51, 71
8, 138428, Note_on_c, 6, 51, 0
8, 138496, Note_on_c, 6, 51, 71
8, 138556, Note_on_c, 6, 51, 0
8, 138624, Note_on_c, 6, 51, 71
8, 138684, Note_on_c, 6, 51, 0
8, 138752, Note_on_c, 6, 51, 71
8, 138812, Note_on_c, 6, 51, 0
8, 138880, Note_on_c, 6, 51, 71
8, 138940, Note_on_c, 6, 51, 0
8, 139008, Note_on_c, 6, 50, 71
8, 139132, Note_on_c, 6, 50, 0
8, 139136, Note_on_c, 6, 53, 71
8, 139260, Note_on_c, 6, 53, 0
8, 139264, Note_on_c, 6, 58, 71
8, 139360, Note_on_c, 6, 58, 0
8, 139392, Note_on_c, 6, 58, 71
8, 139516, Note_on_c, 6, 58, 0
8, 139520, Note_on_c, 6, 56, 71
8, 139644, Note_on_c, 6, 56, 0
8, 139648, Note_on_c, 6, 53, 71
8, 139744, Note_on_c, 6, 53, 0
8, 139776, Note_on_c, 6, 52, 71
8, 139900, Note_on_c, 6, 52, 0
8, 139904, Note_on_c, 6, 55, 71
8, 140028, Note_on_c, 6, 55, 0
8, 140032, Note_on_c, 6, 60, 71
8, 140128, Note_on_c, 6, 60, 0
8, 140160, Note_on_c, 6, 60, 71
8, 140284, Note_on_c, 6, 60, 0
8, 140288, Note_on_c, 6, 58, 71
8, 140412, Note_on_c, 6, 58, 0
8, 140416, Note_on_c, 6, 55, 71
8, 140512, Note_on_c, 6, 55, 0
8, 140544, Note_on_c, 6, 56, 71
8, 140604, Note_on_c, 6, 56, 0
8, 140672, Note_on_c, 6, 60, 71
8, 140732, Note_on_c, 6, 60, 0
8, 140800, Note_on_c, 6, 52, 71
8, 140860, Note_on_c, 6, 52, 0
8, 140928, Note_on_c, 6, 53, 71
8, 140988, Note_on_c, 6, 53, 0
8, 141056, Note_on_c, 6, 56, 71
8, 141116, Note_on_c, 6, 56, 0
8, 141184, Note_on_c, 6, 48, 71
8, 141244, Note_on_c, 6, 48, 0
8, 141312, Note_on_c, 6, 50, 71
8, 141372, Note_on_c, 6, 50, 0
8, 141440, Note_on_c, 6, 53, 71
8, 141500, Note_on_c, 6, 53, 0
8, 141568, Note_on_c, 6, 45, 71
8, 141628, Note_on_c, 6, 45, 0
8, 141696, Note_on_c, 6, 46, 71
8, 141756, Note_on_c, 6, 46, 0
8, 141824, Note_on_c, 6, 50, 71
8, 141884, Note_on_c, 6, 50, 0
8, 141952, Note_on_c, 6, 46, 71
8, 142012, Note_on_c, 6, 46, 0
8, 142080, Note_on_c, 6, 51, 71
8, 142204, Note_on_c, 6, 51, 0
8, 142208, Note_on_c, 6, 50, 71
8, 142332, Note_on_c, 6, 50, 0
8, 142336, Note_on_c, 6, 51, 71
8, 142460, Note_on_c, 6, 51, 0
8, 142464, Note_on_c, 6, 48, 71
8, 142588, Note_on_c, 6, 48, 0
8, 142592, Note_on_c, 6, 46, 71
8, 142716, Note_on_c, 6, 46, 0
8, 142720, Note_on_c, 6, 48, 71
8, 142844, Note_on_c, 6, 48, 0
8, 142848, Note_on_c, 6, 44, 71
8, 142972, Note_on_c, 6, 44, 0
8, 142976, Note_on_c, 6, 43, 71
8, 143100, Note_on_c, 6, 43, 0
8, 143104, Note_on_c, 6, 44, 71
8, 143228, Note_on_c, 6, 44, 0
8, 143232, Note_on_c, 6, 46, 71
8, 143356, Note_on_c, 6, 46, 0
8, 143360, Note_on_c, 6, 44, 71
8, 143484, Note_on_c, 6, 44, 0
8, 143488, Note_on_c, 6, 46, 71
8, 143612, Note_on_c, 6, 46, 0
8, 143616, Note_on_c, 6, 51, 71
8, 143740, Note_on_c, 6, 51, 0
8, 143744, Note_on_c, 6, 50, 71
8, 143868, Note_on_c, 6, 50, 0
8, 143872, Note_on_c, 6, 51, 71
8, 143996, Note_on_c, 6, 51, 0
8, 144000, Note_on_c, 6, 60, 71
8, 144124, Note_on_c, 6, 60, 0
8, 144128, Note_on_c, 6, 58, 71
8, 144252, Note_on_c, 6, 58, 0
8, 144256, Note_on_c, 6, 60, 71
8, 144380, Note_on_c, 6, 60, 0
8, 144384, Note_on_c, 6, 56, 71
8, 144508, Note_on_c, 6, 56, 0
8, 144512, Note_on_c, 6, 55, 71
8, 144636, Note_on_c, 6, 55, 0
8, 144640, Note_on_c, 6, 56, 71
8, 144764, Note_on_c, 6, 56, 0
8, 144768, Note_on_c, 6, 58, 71
8, 144892, Note_on_c, 6, 58, 0
8, 144896, Note_on_c, 6, 56, 71
8, 145020, Note_on_c, 6, 56, 0
8, 145024, Note_on_c, 6, 58, 71
8, 145148, Note_on_c, 6, 58, 0
8, 145152, Note_on_c, 6, 63, 71
8, 145276, Note_on_c, 6, 63, 0
8, 145280, Note_on_c, 6, 62, 71
8, 145404, Note_on_c, 6, 62, 0
8, 145408, Note_on_c, 6, 63, 71
8, 145532, Note_on_c, 6, 63, 0
8, 145536, Note_on_c, 6, 60, 71
8, 145660, Note_on_c, 6, 60, 0
8, 145664, Note_on_c, 6, 58, 71
8, 145788, Note_on_c, 6, 58, 0
8, 145792, Note_on_c, 6, 60, 71
8, 145916, Note_on_c, 6, 60, 0
8, 145920, Note_on_c, 6, 56, 71
8, 146044, Note_on_c, 6, 56, 0
8, 146048, Note_on_c, 6, 55, 71
8, 146172, Note_on_c, 6, 55, 0
8, 146176, Note_on_c, 6, 56, 71
8, 146300, Note_on_c, 6, 56, 0
8, 146304, Note_on_c, 6, 58, 71
8, 146428, Note_on_c, 6, 58, 0
8, 146432, Note_on_c, 6, 60, 71
8, 146556, Note_on_c, 6, 60, 0
8, 146560, Note_on_c, 6, 58, 71
8, 146684, Note_on_c, 6, 58, 0
8, 146688, Note_on_c, 6, 57, 71
8, 147452, Note_on_c, 6, 57, 0
8, 147456, Note_on_c, 6, 60, 47
8, 148220, Note_on_c, 6, 60, 0
8, 148224, Note_on_c, 6, 58, 47
8, 148988, Note_on_c, 6, 58, 0
8, 148992, Note_on_c, 6, 46, 47
8, 149756, Note_on_c, 6, 46, 0
8, 149760, Note_on_c, 6, 47, 47
8, 150524, Note_on_c, 6, 47, 0
8, 150528, Note_on_c, 6, 46, 47
8, 150908, Note_on_c, 6, 46, 0
8, 150912, Note_on_c, 6, 45, 47
8, 151292, Note_on_c, 6, 45, 0
8, 151296, Note_on_c, 6, 44, 47
8, 151420, Note_on_c, 6, 44, 0
8, 151680, Note_on_c, 6, 50, 47
8, 151804, Note_on_c, 6, 50, 0
8, 152064, Note_on_c, 6, 51, 47
8, 152188, Note_on_c, 6, 51, 0
8, 152448, Note_on_c, 6, 46, 47
8, 152572, Note_on_c, 6, 46, 0
8, 152832, Note_on_c, 6, 51, 47
8, 157540, Note_on_c, 6, 51, 0
8, 157568, Note_on_c, 6, 51, 71
8, 157628, Note_on_c, 6, 51, 0
8, 157696, Note_on_c, 6, 51, 71
8, 157756, Note_on_c, 6, 51, 0
8, 157824, Note_on_c, 6, 51, 71
8, 157884, Note_on_c, 6, 51, 0
8, 157952, Note_on_c, 6, 51, 71
8, 158012, Note_on_c, 6, 51, 0
8, 158080, Note_on_c, 6, 51, 71
8, 158140, Note_on_c, 6, 51, 0
8, 158208, Note_on_c, 6, 51, 71
8, 158332, Note_on_c, 6, 51, 0
8, 158592, Note_on_c, 6, 51, 71
8, 158716, Note_on_c, 6, 51, 0
8, 158976, Note_on_c, 6, 51, 71
8, 159100, Note_on_c, 6, 51, 0
8, 159100, End_track
9, 0, Start_track
9, 0, MIDI_port, 0
9, 0, Title_t, "Bass"
9, 0, Program_c, 7, 48
9, 0, Control_c, 7, 7, 127
9, 0, Control_c, 7, 10, 120
9, 0, Control_c, 7, 0, 0
9, 0, Control_c, 7, 32, 0
9, 17, Control_c, 7, 121, 0
9, 32, Control_c, 7, 7, 127
9, 51, Control_c, 7, 91, 100
9, 68, Control_c, 7, 93, 10
9, 384, Program_c, 7, 48
9, 768, Note_on_c, 7, 39, 39
9, 1020, Note_on_c, 7, 39, 0
9, 1152, Note_on_c, 7, 43, 39
9, 1404, Note_on_c, 7, 43, 0
9, 1536, Note_on_c, 7, 41, 39
9, 1788, Note_on_c, 7, 41, 0
9, 1920, Note_on_c, 7, 38, 39
9, 2172, Note_on_c, 7, 38, 0
9, 2304, Note_on_c, 7, 39, 39
9, 2556, Note_on_c, 7, 39, 0
9, 2688, Note_on_c, 7, 36, 39
9, 2940, Note_on_c, 7, 36, 0
9, 3072, Note_on_c, 7, 34, 39
9, 3324, Note_on_c, 7, 34, 0
9, 3456, Note_on_c, 7, 46, 39
9, 3516, Note_on_c, 7, 46, 0
9, 3520, Note_on_c, 7, 48, 39
9, 3580, Note_on_c, 7, 48, 0
9, 3584, Note_on_c, 7, 46, 39
9, 3644, Note_on_c, 7, 46, 0
9, 3648, Note_on_c, 7, 44, 39
9, 3708, Note_on_c, 7, 44, 0
9, 3712, Note_on_c, 7, 43, 39
9, 3772, Note_on_c, 7, 43, 0
9, 3776, Note_on_c, 7, 41, 39
9, 3836, Note_on_c, 7, 41, 0
9, 3840, Note_on_c, 7, 39, 39
9, 4092, Note_on_c, 7, 39, 0
9, 4224, Note_on_c, 7, 43, 39
9, 4476, Note_on_c, 7, 43, 0
9, 4608, Note_on_c, 7, 41, 39
9, 4860, Note_on_c, 7, 41, 0
9, 4992, Note_on_c, 7, 38, 39
9, 5244, Note_on_c, 7, 38, 0
9, 5376, Note_on_c, 7, 39, 39
9, 5628, Note_on_c, 7, 39, 0
9, 5760, Note_on_c, 7, 34, 39
9, 5820, Note_on_c, 7, 34, 0
9, 5888, Note_on_c, 7, 34, 39
9, 5948, Note_on_c, 7, 34, 0
9, 6016, Note_on_c, 7, 34, 39
9, 6076, Note_on_c, 7, 34, 0
9, 6144, Note_on_c, 7, 39, 39
9, 6204, Note_on_c, 7, 39, 0
9, 6272, Note_on_c, 7, 39, 39
9, 6332, Note_on_c, 7, 39, 0
9, 6400, Note_on_c, 7, 39, 39
9, 6460, Note_on_c, 7, 39, 0
9, 6528, Note_on_c, 7, 39, 39
9, 6652, Note_on_c, 7, 39, 0
9, 6912, Note_on_c, 7, 39, 59
9, 7164, Note_on_c, 7, 39, 0
9, 7296, Note_on_c, 7, 43, 59
9, 7548, Note_on_c, 7, 43, 0
9, 7680, Note_on_c, 7, 41, 59
9, 7932, Note_on_c, 7, 41, 0
9, 8064, Note_on_c, 7, 38, 59
9, 8316, Note_on_c, 7, 38, 0
9, 8448, Note_on_c, 7, 39, 59
9, 8700, Note_on_c, 7, 39, 0
9, 8832, Note_on_c, 7, 36, 59
9, 9084, Note_on_c, 7, 36, 0
9, 9216, Note_on_c, 7, 34, 59
9, 9468, Note_on_c, 7, 34, 0
9, 9600, Note_on_c, 7, 46, 59
9, 9660, Note_on_c, 7, 46, 0
9, 9664, Note_on_c, 7, 48, 59
9, 9724, Note_on_c, 7, 48, 0
9, 9728, Note_on_c, 7, 46, 59
9, 9788, Note_on_c, 7, 46, 0
9, 9792, Note_on_c, 7, 44, 59
9, 9852, Note_on_c, 7, 44, 0
9, 9856, Note_on_c, 7, 43, 59
9, 9916, Note_on_c, 7, 43, 0
9, 9920, Note_on_c, 7, 41, 59
9, 9980, Note_on_c, 7, 41, 0
9, 9984, Note_on_c, 7, 39, 59
9, 10236, Note_on_c, 7, 39, 0
9, 10368, Note_on_c, 7, 43, 59
9, 10620, Note_on_c, 7, 43, 0
9, 10752, Note_on_c, 7, 41, 59
9, 11004, Note_on_c, 7, 41, 0
9, 11136, Note_on_c, 7, 38, 59
9, 11388, Note_on_c, 7, 38, 0
9, 11520, Note_on_c, 7, 39, 59
9, 11772, Note_on_c, 7, 39, 0
9, 11904, Note_on_c, 7, 34, 59
9, 12156, Note_on_c, 7, 34, 0
9, 12288, Note_on_c, 7, 39, 59
9, 12348, Note_on_c, 7, 39, 0
9, 12416, Note_on_c, 7, 39, 59
9, 12476, Note_on_c, 7, 39, 0
9, 12544, Note_on_c, 7, 39, 59
9, 12604, Note_on_c, 7, 39, 0
9, 12672, Note_on_c, 7, 39, 59
9, 12796, Note_on_c, 7, 39, 0
9, 13056, Note_on_c, 7, 39, 39
9, 13436, Note_on_c, 7, 39, 0
9, 13824, Note_on_c, 7, 39, 39
9, 14204, Note_on_c, 7, 39, 0
9, 14592, Note_on_c, 7, 32, 39
9, 14972, Note_on_c, 7, 32, 0
9, 14976, Note_on_c, 7, 34, 39
9, 15356, Note_on_c, 7, 34, 0
9, 15360, Note_on_c, 7, 27, 39
9, 15740, Note_on_c, 7, 27, 0
9, 16128, Note_on_c, 7, 39, 39
9, 16508, Note_on_c, 7, 39, 0
9, 16896, Note_on_c, 7, 39, 39
9, 17276, Note_on_c, 7, 39, 0
9, 17664, Note_on_c, 7, 34, 39
9, 18428, Note_on_c, 7, 34, 0
9, 18432, Note_on_c, 7, 39, 39
9, 18684, Note_on_c, 7, 39, 0
9, 19200, Note_on_c, 7, 43, 39
9, 19964, Note_on_c, 7, 43, 0
9, 19968, Note_on_c, 7, 34, 39
9, 20220, Note_on_c, 7, 34, 0
9, 20736, Note_on_c, 7, 41, 39
9, 21500, Note_on_c, 7, 41, 0
9, 21504, Note_on_c, 7, 34, 39
9, 21756, Note_on_c, 7, 34, 0
9, 22272, Note_on_c, 7, 43, 39
9, 23036, Note_on_c, 7, 43, 0
9, 23040, Note_on_c, 7, 41, 39
9, 23164, Note_on_c, 7, 41, 0
9, 23808, Note_on_c, 7, 43, 39
9, 24572, Note_on_c, 7, 43, 0
9, 24576, Note_on_c, 7, 41, 39
9, 24828, Note_on_c, 7, 41, 0
9, 25344, Note_on_c, 7, 36, 39
9, 25724, Note_on_c, 7, 36, 0
9, 26112, Note_on_c, 7, 41, 39
9, 26492, Note_on_c, 7, 41, 0
9, 26880, Note_on_c, 7, 36, 39
9, 27260, Note_on_c, 7, 36, 0
9, 27648, Note_on_c, 7, 41, 59
9, 27708, Note_on_c, 7, 41, 0
9, 27776, Note_on_c, 7, 43, 59
9, 27836, Note_on_c, 7, 43, 0
9, 27904, Note_on_c, 7, 41, 59
9, 27964, Note_on_c, 7, 41, 0
9, 28032, Note_on_c, 7, 39, 59
9, 28092, Note_on_c, 7, 39, 0
9, 28160, Note_on_c, 7, 41, 59
9, 28220, Note_on_c, 7, 41, 0
9, 28288, Note_on_c, 7, 39, 59
9, 28348, Note_on_c, 7, 39, 0
9, 28416, Note_on_c, 7, 38, 59
9, 28476, Note_on_c, 7, 38, 0
9, 28544, Note_on_c, 7, 39, 59
9, 28604, Note_on_c, 7, 39, 0
9, 28672, Note_on_c, 7, 38, 59
9, 28732, Note_on_c, 7, 38, 0
9, 28800, Note_on_c, 7, 36, 59
9, 28860, Note_on_c, 7, 36, 0
9, 28928, Note_on_c, 7, 38, 59
9, 28988, Note_on_c, 7, 38, 0
9, 29056, Note_on_c, 7, 36, 59
9, 29116, Note_on_c, 7, 36, 0
9, 29184, Note_on_c, 7, 34, 39
9, 29564, Note_on_c, 7, 34, 0
9, 29568, Note_on_c, 7, 34, 39
9, 31484, Note_on_c, 7, 34, 0
9, 31488, Note_on_c, 7, 41, 39
9, 32252, Note_on_c, 7, 41, 0
9, 32256, Note_on_c, 7, 34, 39
9, 34556, Note_on_c, 7, 34, 0
9, 34560, Note_on_c, 7, 41, 39
9, 35324, Note_on_c, 7, 41, 0
9, 35456, Note_on_c, 7, 46, 59
9, 35516, Note_on_c, 7, 46, 0
9, 35584, Note_on_c, 7, 46, 59
9, 35644, Note_on_c, 7, 46, 0
9, 35712, Note_on_c, 7, 44, 59
9, 35772, Note_on_c, 7, 44, 0
9, 35840, Note_on_c, 7, 46, 59
9, 35900, Note_on_c, 7, 46, 0
9, 35968, Note_on_c, 7, 44, 59
9, 36028, Note_on_c, 7, 44, 0
9, 36096, Note_on_c, 7, 43, 59
9, 36156, Note_on_c, 7, 43, 0
9, 36224, Note_on_c, 7, 41, 59
9, 36284, Note_on_c, 7, 41, 0
9, 36352, Note_on_c, 7, 39, 59
9, 36412, Note_on_c, 7, 39, 0
9, 36480, Note_on_c, 7, 38, 59
9, 36540, Note_on_c, 7, 38, 0
9, 36608, Note_on_c, 7, 36, 59
9, 36668, Note_on_c, 7, 36, 0
9, 36736, Note_on_c, 7, 34, 59
9, 36796, Note_on_c, 7, 34, 0
9, 36864, Note_on_c, 7, 39, 59
9, 37116, Note_on_c, 7, 39, 0
9, 37632, Note_on_c, 7, 39, 39
9, 38396, Note_on_c, 7, 39, 0
9, 38400, Note_on_c, 7, 38, 39
9, 38652, Note_on_c, 7, 38, 0
9, 38784, Note_on_c, 7, 39, 39
9, 39036, Note_on_c, 7, 39, 0
9, 39168, Note_on_c, 7, 41, 39
9, 39292, Note_on_c, 7, 41, 0
9, 39552, Note_on_c, 7, 29, 39
9, 39676, Note_on_c, 7, 29, 0
9, 40064, Note_on_c, 7, 46, 59
9, 40124, Note_on_c, 7, 46, 0
9, 40192, Note_on_c, 7, 46, 59
9, 40252, Note_on_c, 7, 46, 0
9, 40320, Note_on_c, 7, 44, 59
9, 40380, Note_on_c, 7, 44, 0
9, 40448, Note_on_c, 7, 46, 59
9, 40508, Note_on_c, 7, 46, 0
9, 40576, Note_on_c, 7, 44, 59
9, 40636, Note_on_c, 7, 44, 0
9, 40704, Note_on_c, 7, 43, 59
9, 40764, Note_on_c, 7, 43, 0
9, 40832, Note_on_c, 7, 41, 59
9, 40892, Note_on_c, 7, 41, 0
9, 40960, Note_on_c, 7, 39, 59
9, 41020, Note_on_c, 7, 39, 0
9, 41088, Note_on_c, 7, 38, 59
9, 41148, Note_on_c, 7, 38, 0
9, 41216, Note_on_c, 7, 36, 59
9, 41276, Note_on_c, 7, 36, 0
9, 41344, Note_on_c, 7, 34, 59
9, 41404, Note_on_c, 7, 34, 0
9, 41472, Note_on_c, 7, 39, 59
9, 41724, Note_on_c, 7, 39, 0
9, 42240, Note_on_c, 7, 39, 39
9, 42620, Note_on_c, 7, 39, 0
9, 42624, Note_on_c, 7, 40, 39
9, 43004, Note_on_c, 7, 40, 0
9, 43008, Note_on_c, 7, 41, 39
9, 43260, Note_on_c, 7, 41, 0
9, 43776, Note_on_c, 7, 41, 39
9, 44028, Note_on_c, 7, 41, 0
9, 45312, Note_on_c, 7, 41, 39
9, 45692, Note_on_c, 7, 41, 0
9, 45696, Note_on_c, 7, 29, 39
9, 46076, Note_on_c, 7, 29, 0
9, 46080, Note_on_c, 7, 34, 39
9, 51068, Note_on_c, 7, 34, 0
9, 52224, Note_on_c, 7, 39, 39
9, 52476, Note_on_c, 7, 39, 0
9, 52608, Note_on_c, 7, 43, 39
9, 52860, Note_on_c, 7, 43, 0
9, 52992, Note_on_c, 7, 41, 39
9, 53244, Note_on_c, 7, 41, 0
9, 53376, Note_on_c, 7, 38, 39
9, 53628, Note_on_c, 7, 38, 0
9, 53760, Note_on_c, 7, 39, 39
9, 54012, Note_on_c, 7, 39, 0
9, 54144, Note_on_c, 7, 36, 39
9, 54396, Note_on_c, 7, 36, 0
9, 54528, Note_on_c, 7, 34, 39
9, 54780, Note_on_c, 7, 34, 0
9, 54912, Note_on_c, 7, 46, 39
9, 54972, Note_on_c, 7, 46, 0
9, 54976, Note_on_c, 7, 48, 39
9, 55036, Note_on_c, 7, 48, 0
9, 55040, Note_on_c, 7, 46, 39
9, 55100, Note_on_c, 7, 46, 0
9, 55104, Note_on_c, 7, 44, 39
9, 55164, Note_on_c, 7, 44, 0
9, 55168, Note_on_c, 7, 43, 39
9, 55228, Note_on_c, 7, 43, 0
9, 55232, Note_on_c, 7, 41, 39
9, 55292, Note_on_c, 7, 41, 0
9, 55296, Note_on_c, 7, 39, 39
9, 55548, Note_on_c, 7, 39, 0
9, 55680, Note_on_c, 7, 43, 39
9, 55932, Note_on_c, 7, 43, 0
9, 56064, Note_on_c, 7, 41, 39
9, 56316, Note_on_c, 7, 41, 0
9, 56448, Note_on_c, 7, 38, 39
9, 56700, Note_on_c, 7, 38, 0
9, 56832, Note_on_c, 7, 39, 39
9, 57084, Note_on_c, 7, 39, 0
9, 57216, Note_on_c, 7, 34, 39
9, 57276, Note_on_c, 7, 34, 0
9, 57344, Note_on_c, 7, 34, 39
9, 57404, Note_on_c, 7, 34, 0
9, 57472, Note_on_c, 7, 34, 39
9, 57532, Note_on_c, 7, 34, 0
9, 57600, Note_on_c, 7, 39, 39
9, 57660, Note_on_c, 7, 39, 0
9, 57728, Note_on_c, 7, 39, 39
9, 57788, Note_on_c, 7, 39, 0
9, 57856, Note_on_c, 7, 39, 39
9, 57916, Note_on_c, 7, 39, 0
9, 57984, Note_on_c, 7, 39, 39
9, 58108, Note_on_c, 7, 39, 0
9, 58368, Note_on_c, 7, 39, 59
9, 58620, Note_on_c, 7, 39, 0
9, 58752, Note_on_c, 7, 43, 59
9, 59004, Note_on_c, 7, 43, 0
9, 59136, Note_on_c, 7, 41, 59
9, 59388, Note_on_c, 7, 41, 0
9, 59520, Note_on_c, 7, 38, 59
9, 59772, Note_on_c, 7, 38, 0
9, 59904, Note_on_c, 7, 39, 59
9, 60156, Note_on_c, 7, 39, 0
9, 60288, Note_on_c, 7, 36, 59
9, 60540, Note_on_c, 7, 36, 0
9, 60672, Note_on_c, 7, 34, 59
9, 60924, Note_on_c, 7, 34, 0
9, 61056, Note_on_c, 7, 46, 59
9, 61116, Note_on_c, 7, 46, 0
9, 61120, Note_on_c, 7, 48, 59
9, 61180, Note_on_c, 7, 48, 0
9, 61184, Note_on_c, 7, 46, 59
9, 61244, Note_on_c, 7, 46, 0
9, 61248, Note_on_c, 7, 44, 59
9, 61308, Note_on_c, 7, 44, 0
9, 61312, Note_on_c, 7, 43, 59
9, 61372, Note_on_c, 7, 43, 0
9, 61376, Note_on_c, 7, 41, 59
9, 61436, Note_on_c, 7, 41, 0
9, 61440, Note_on_c, 7, 39, 59
9, 61692, Note_on_c, 7, 39, 0
9, 61824, Note_on_c, 7, 43, 59
9, 62076, Note_on_c, 7, 43, 0
9, 62208, Note_on_c, 7, 41, 59
9, 62460, Note_on_c, 7, 41, 0
9, 62592, Note_on_c, 7, 38, 59
9, 62844, Note_on_c, 7, 38, 0
9, 62976, Note_on_c, 7, 39, 59
9, 63228, Note_on_c, 7, 39, 0
9, 63360, Note_on_c, 7, 34, 59
9, 63612, Note_on_c, 7, 34, 0
9, 63744, Note_on_c, 7, 39, 59
9, 63804, Note_on_c, 7, 39, 0
9, 63872, Note_on_c, 7, 39, 59
9, 63932, Note_on_c, 7, 39, 0
9, 64000, Note_on_c, 7, 39, 59
9, 64060, Note_on_c, 7, 39, 0
9, 64128, Note_on_c, 7, 39, 59
9, 64252, Note_on_c, 7, 39, 0
9, 65280, Note_on_c, 7, 36, 39
9, 66044, Note_on_c, 7, 36, 0
9, 66048, Note_on_c, 7, 35, 39
9, 66812, Note_on_c, 7, 35, 0
9, 66816, Note_on_c, 7, 36, 39
9, 67580, Note_on_c, 7, 36, 0
9, 67584, Note_on_c, 7, 36, 39
9, 67964, Note_on_c, 7, 36, 0
9, 67968, Note_on_c, 7, 41, 39
9, 68348, Note_on_c, 7, 41, 0
9, 68352, Note_on_c, 7, 39, 39
9, 68732, Note_on_c, 7, 39, 0
9, 68736, Note_on_c, 7, 35, 39
9, 69116, Note_on_c, 7, 35, 0
9, 69120, Note_on_c, 7, 36, 39
9, 69500, Note_on_c, 7, 36, 0
9, 69504, Note_on_c, 7, 44, 39
9, 69884, Note_on_c, 7, 44, 0
9, 69888, Note_on_c, 7, 43, 39
9, 70140, Note_on_c, 7, 43, 0
9, 71424, Note_on_c, 7, 36, 39
9, 72188, Note_on_c, 7, 36, 0
9, 72192, Note_on_c, 7, 35, 39
9, 72956, Note_on_c, 7, 35, 0
9, 73088, Note_on_c, 7, 34, 39
9, 73212, Note_on_c, 7, 34, 0
9, 73216, Note_on_c, 7, 36, 39
9, 73340, Note_on_c, 7, 36, 0
9, 73344, Note_on_c, 7, 38, 39
9, 73468, Note_on_c, 7, 38, 0
9, 73472, Note_on_c, 7, 39, 39
9, 73596, Note_on_c, 7, 39, 0
9, 73600, Note_on_c, 7, 41, 39
9, 73724, Note_on_c, 7, 41, 0
9, 73728, Note_on_c, 7, 39, 39
9, 73980, Note_on_c, 7, 39, 0
9, 74112, Note_on_c, 7, 31, 39
9, 74364, Note_on_c, 7, 31, 0
9, 74496, Note_on_c, 7, 32, 39
9, 74748, Note_on_c, 7, 32, 0
9, 74880, Note_on_c, 7, 36, 39
9, 75132, Note_on_c, 7, 36, 0
9, 75264, Note_on_c, 7, 37, 39
9, 75644, Note_on_c, 7, 37, 0
9, 75648, Note_on_c, 7, 39, 39
9, 76028, Note_on_c, 7, 39, 0
9, 76032, Note_on_c, 7, 32, 39
9, 76284, Note_on_c, 7, 32, 0
9, 77184, Note_on_c, 7, 39, 39
9, 77564, Note_on_c, 7, 39, 0
9, 77568, Note_on_c, 7, 32, 39
9, 77820, Note_on_c, 7, 32, 0
9, 77824, Note_on_c, 7, 33, 39
9, 77948, Note_on_c, 7, 33, 0
9, 77952, Note_on_c, 7, 34, 39
9, 78076, Note_on_c, 7, 34, 0
9, 78720, Note_on_c, 7, 41, 39
9, 79100, Note_on_c, 7, 41, 0
9, 79104, Note_on_c, 7, 34, 39
9, 79356, Note_on_c, 7, 34, 0
9, 79360, Note_on_c, 7, 35, 39
9, 79484, Note_on_c, 7, 35, 0
9, 79488, Note_on_c, 7, 36, 39
9, 79612, Note_on_c, 7, 36, 0
9, 80256, Note_on_c, 7, 43, 39
9, 80636, Note_on_c, 7, 43, 0
9, 80640, Note_on_c, 7, 36, 39
9, 80892, Note_on_c, 7, 36, 0
9, 81664, Note_on_c, 7, 36, 39
9, 81724, Note_on_c, 7, 36, 0
9, 81792, Note_on_c, 7, 36, 39
9, 81916, Note_on_c, 7, 36, 0
9, 81920, Note_on_c, 7, 34, 39
9, 82044, Note_on_c, 7, 34, 0
9, 82048, Note_on_c, 7, 36, 39
9, 82172, Note_on_c, 7, 36, 0
9, 82176, Note_on_c, 7, 38, 39
9, 82300, Note_on_c, 7, 38, 0
9, 82304, Note_on_c, 7, 36, 39
9, 82428, Note_on_c, 7, 36, 0
9, 82432, Note_on_c, 7, 38, 39
9, 82556, Note_on_c, 7, 38, 0
9, 82560, Note_on_c, 7, 39, 39
9, 82684, Note_on_c, 7, 39, 0
9, 82688, Note_on_c, 7, 38, 39
9, 82812, Note_on_c, 7, 38, 0
9, 82816, Note_on_c, 7, 39, 39
9, 82940, Note_on_c, 7, 39, 0
9, 82944, Note_on_c, 7, 36, 39
9, 83068, Note_on_c, 7, 36, 0
9, 83072, Note_on_c, 7, 34, 39
9, 83196, Note_on_c, 7, 34, 0
9, 83200, Note_on_c, 7, 36, 39
9, 83324, Note_on_c, 7, 36, 0
9, 83328, Note_on_c, 7, 38, 39
9, 83452, Note_on_c, 7, 38, 0
9, 83456, Note_on_c, 7, 36, 39
9, 83580, Note_on_c, 7, 36, 0
9, 83584, Note_on_c, 7, 38, 39
9, 83708, Note_on_c, 7, 38, 0
9, 83712, Note_on_c, 7, 31, 39
9, 83964, Note_on_c, 7, 31, 0
9, 84480, Note_on_c, 7, 38, 39
9, 85244, Note_on_c, 7, 38, 0
9, 85248, Note_on_c, 7, 43, 39
9, 85500, Note_on_c, 7, 43, 0
9, 86016, Note_on_c, 7, 38, 39
9, 86780, Note_on_c, 7, 38, 0
9, 86784, Note_on_c, 7, 31, 39
9, 87036, Note_on_c, 7, 31, 0
9, 87552, Note_on_c, 7, 36, 39
9, 88316, Note_on_c, 7, 36, 0
9, 88320, Note_on_c, 7, 41, 39
9, 88572, Note_on_c, 7, 41, 0
9, 89088, Note_on_c, 7, 36, 39
9, 89852, Note_on_c, 7, 36, 0
9, 89856, Note_on_c, 7, 29, 39
9, 90108, Note_on_c, 7, 29, 0
9, 90624, Note_on_c, 7, 34, 39
9, 91388, Note_on_c, 7, 34, 0
9, 91392, Note_on_c, 7, 39, 39
9, 91644, Note_on_c, 7, 39, 0
9, 92160, Note_on_c, 7, 34, 39
9, 92924, Note_on_c, 7, 34, 0
9, 92928, Note_on_c, 7, 27, 39
9, 93180, Note_on_c, 7, 27, 0
9, 93312, Note_on_c, 7, 43, 39
9, 93564, Note_on_c, 7, 43, 0
9, 93696, Note_on_c, 7, 41, 39
9, 93948, Note_on_c, 7, 41, 0
9, 94080, Note_on_c, 7, 38, 39
9, 94332, Note_on_c, 7, 38, 0
9, 94464, Note_on_c, 7, 39, 39
9, 94716, Note_on_c, 7, 39, 0
9, 94848, Note_on_c, 7, 36, 39
9, 95100, Note_on_c, 7, 36, 0
9, 95232, Note_on_c, 7, 34, 39
9, 95484, Note_on_c, 7, 34, 0
9, 95616, Note_on_c, 7, 46, 39
9, 95676, Note_on_c, 7, 46, 0
9, 95680, Note_on_c, 7, 48, 39
9, 95740, Note_on_c, 7, 48, 0
9, 95744, Note_on_c, 7, 46, 39
9, 95804, Note_on_c, 7, 46, 0
9, 95808, Note_on_c, 7, 44, 39
9, 95868, Note_on_c, 7, 44, 0
9, 95872, Note_on_c, 7, 43, 39
9, 95932, Note_on_c, 7, 43, 0
9, 95936, Note_on_c, 7, 41, 39
9, 95996, Note_on_c, 7, 41, 0
9, 96000, Note_on_c, 7, 39, 39
9, 96252, Note_on_c, 7, 39, 0
9, 96384, Note_on_c, 7, 43, 39
9, 96636, Note_on_c, 7, 43, 0
9, 96768, Note_on_c, 7, 41, 39
9, 97020, Note_on_c, 7, 41, 0
9, 97152, Note_on_c, 7, 38, 39
9, 97404, Note_on_c, 7, 38, 0
9, 97536, Note_on_c, 7, 39, 39
9, 97788, Note_on_c, 7, 39, 0
9, 97920, Note_on_c, 7, 34, 39
9, 97980, Note_on_c, 7, 34, 0
9, 98048, Note_on_c, 7, 34, 39
9, 98108, Note_on_c, 7, 34, 0
9, 98176, Note_on_c, 7, 34, 39
9, 98236, Note_on_c, 7, 34, 0
9, 98304, Note_on_c, 7, 39, 39
9, 98364, Note_on_c, 7, 39, 0
9, 98432, Note_on_c, 7, 39, 39
9, 98492, Note_on_c, 7, 39, 0
9, 98560, Note_on_c, 7, 39, 39
9, 98620, Note_on_c, 7, 39, 0
9, 98688, Note_on_c, 7, 39, 39
9, 98812, Note_on_c, 7, 39, 0
9, 99072, Note_on_c, 7, 39, 59
9, 99324, Note_on_c, 7, 39, 0
9, 99456, Note_on_c, 7, 43, 59
9, 99708, Note_on_c, 7, 43, 0
9, 99840, Note_on_c, 7, 41, 59
9, 100092, Note_on_c, 7, 41, 0
9, 100224, Note_on_c, 7, 38, 59
9, 100476, Note_on_c, 7, 38, 0
9, 100608, Note_on_c, 7, 39, 59
9, 100860, Note_on_c, 7, 39, 0
9, 100992, Note_on_c, 7, 36, 59
9, 101244, Note_on_c, 7, 36, 0
9, 101376, Note_on_c, 7, 34, 59
9, 101628, Note_on_c, 7, 34, 0
9, 101760, Note_on_c, 7, 46, 59
9, 101820, Note_on_c, 7, 46, 0
9, 101824, Note_on_c, 7, 48, 59
9, 101884, Note_on_c, 7, 48, 0
9, 101888, Note_on_c, 7, 46, 59
9, 101948, Note_on_c, 7, 46, 0
9, 101952, Note_on_c, 7, 44, 59
9, 102012, Note_on_c, 7, 44, 0
9, 102016, Note_on_c, 7, 43, 59
9, 102076, Note_on_c, 7, 43, 0
9, 102080, Note_on_c, 7, 41, 59
9, 102140, Note_on_c, 7, 41, 0
9, 102144, Note_on_c, 7, 39, 59
9, 102396, Note_on_c, 7, 39, 0
9, 102528, Note_on_c, 7, 43, 59
9, 102780, Note_on_c, 7, 43, 0
9, 102912, Note_on_c, 7, 41, 59
9, 103164, Note_on_c, 7, 41, 0
9, 103296, Note_on_c, 7, 38, 59
9, 103548, Note_on_c, 7, 38, 0
9, 103680, Note_on_c, 7, 39, 59
9, 103932, Note_on_c, 7, 39, 0
9, 104064, Note_on_c, 7, 34, 59
9, 104316, Note_on_c, 7, 34, 0
9, 104448, Note_on_c, 7, 39, 59
9, 104508, Note_on_c, 7, 39, 0
9, 104576, Note_on_c, 7, 39, 59
9, 104636, Note_on_c, 7, 39, 0
9, 104704, Note_on_c, 7, 39, 59
9, 104764, Note_on_c, 7, 39, 0
9, 104832, Note_on_c, 7, 39, 59
9, 104956, Note_on_c, 7, 39, 0
9, 105216, Note_on_c, 7, 39, 39
9, 105596, Note_on_c, 7, 39, 0
9, 105984, Note_on_c, 7, 39, 39
9, 106364, Note_on_c, 7, 39, 0
9, 106752, Note_on_c, 7, 32, 39
9, 107132, Note_on_c, 7, 32, 0
9, 107136, Note_on_c, 7, 34, 39
9, 107516, Note_on_c, 7, 34, 0
9, 107520, Note_on_c, 7, 27, 39
9, 107900, Note_on_c, 7, 27, 0
9, 108288, Note_on_c, 7, 39, 39
9, 109052, Note_on_c, 7, 39, 0
9, 109184, Note_on_c, 7, 39, 39
9, 109308, Note_on_c, 7, 39, 0
9, 109312, Note_on_c, 7, 39, 39
9, 109436, Note_on_c, 7, 39, 0
9, 109440, Note_on_c, 7, 39, 39
9, 109564, Note_on_c, 7, 39, 0
9, 109568, Note_on_c, 7, 39, 39
9, 109692, Note_on_c, 7, 39, 0
9, 109696, Note_on_c, 7, 39, 39
9, 109820, Note_on_c, 7, 39, 0
9, 109824, Note_on_c, 7, 35, 39
9, 110588, Note_on_c, 7, 35, 0
9, 110720, Note_on_c, 7, 35, 39
9, 110844, Note_on_c, 7, 35, 0
9, 110848, Note_on_c, 7, 35, 39
9, 110972, Note_on_c, 7, 35, 0
9, 110976, Note_on_c, 7, 35, 39
9, 111100, Note_on_c, 7, 35, 0
9, 111104, Note_on_c, 7, 35, 39
9, 111228, Note_on_c, 7, 35, 0
9, 111232, Note_on_c, 7, 35, 39
9, 111356, Note_on_c, 7, 35, 0
9, 111360, Note_on_c, 7, 35, 39
9, 112892, Note_on_c, 7, 35, 0
9, 112896, Note_on_c, 7, 34, 39
9, 113148, Note_on_c, 7, 34, 0
9, 113664, Note_on_c, 7, 41, 39
9, 113916, Note_on_c, 7, 41, 0
9, 114432, Note_on_c, 7, 34, 39
9, 114684, Note_on_c, 7, 34, 0
9, 115200, Note_on_c, 7, 41, 39
9, 115452, Note_on_c, 7, 41, 0
9, 115968, Note_on_c, 7, 46, 59
9, 116028, Note_on_c, 7, 46, 0
9, 116096, Note_on_c, 7, 48, 59
9, 116156, Note_on_c, 7, 48, 0
9, 116224, Note_on_c, 7, 46, 59
9, 116284, Note_on_c, 7, 46, 0
9, 116352, Note_on_c, 7, 44, 59
9, 116412, Note_on_c, 7, 44, 0
9, 116480, Note_on_c, 7, 46, 59
9, 116540, Note_on_c, 7, 46, 0
9, 116608, Note_on_c, 7, 44, 59
9, 116668, Note_on_c, 7, 44, 0
9, 116736, Note_on_c, 7, 43, 59
9, 116796, Note_on_c, 7, 43, 0
9, 116864, Note_on_c, 7, 44, 59
9, 116924, Note_on_c, 7, 44, 0
9, 116992, Note_on_c, 7, 43, 59
9, 117052, Note_on_c, 7, 43, 0
9, 117120, Note_on_c, 7, 41, 59
9, 117180, Note_on_c, 7, 41, 0
9, 117248, Note_on_c, 7, 43, 59
9, 117308, Note_on_c, 7, 43, 0
9, 117376, Note_on_c, 7, 41, 59
9, 117436, Note_on_c, 7, 41, 0
9, 117504, Note_on_c, 7, 39, 59
9, 117756, Note_on_c, 7, 39, 0
9, 117888, Note_on_c, 7, 39, 39
9, 119804, Note_on_c, 7, 39, 0
9, 119808, Note_on_c, 7, 34, 39
9, 120572, Note_on_c, 7, 34, 0
9, 120576, Note_on_c, 7, 39, 39
9, 123644, Note_on_c, 7, 39, 0
9, 123776, Note_on_c, 7, 39, 59
9, 123900, Note_on_c, 7, 39, 0
9, 123904, Note_on_c, 7, 39, 59
9, 124028, Note_on_c, 7, 39, 0
9, 124032, Note_on_c, 7, 38, 59
9, 124156, Note_on_c, 7, 38, 0
9, 124160, Note_on_c, 7, 34, 59
9, 124284, Note_on_c, 7, 34, 0
9, 124288, Note_on_c, 7, 38, 59
9, 124412, Note_on_c, 7, 38, 0
9, 124416, Note_on_c, 7, 39, 59
9, 124540, Note_on_c, 7, 39, 0
9, 124544, Note_on_c, 7, 34, 59
9, 124668, Note_on_c, 7, 34, 0
9, 124672, Note_on_c, 7, 39, 59
9, 124796, Note_on_c, 7, 39, 0
9, 124800, Note_on_c, 7, 41, 59
9, 124924, Note_on_c, 7, 41, 0
9, 124928, Note_on_c, 7, 34, 59
9, 125052, Note_on_c, 7, 34, 0
9, 125056, Note_on_c, 7, 41, 59
9, 125180, Note_on_c, 7, 41, 0
9, 125184, Note_on_c, 7, 43, 59
9, 125436, Note_on_c, 7, 43, 0
9, 125952, Note_on_c, 7, 36, 39
9, 126716, Note_on_c, 7, 36, 0
9, 126720, Note_on_c, 7, 41, 39
9, 127484, Note_on_c, 7, 41, 0
9, 127488, Note_on_c, 7, 34, 39
9, 128252, Note_on_c, 7, 34, 0
9, 128256, Note_on_c, 7, 36, 39
9, 128508, Note_on_c, 7, 36, 0
9, 129024, Note_on_c, 7, 32, 39
9, 129276, Note_on_c, 7, 32, 0
9, 129792, Note_on_c, 7, 34, 39
9, 130044, Note_on_c, 7, 34, 0
9, 130560, Note_on_c, 7, 34, 59
9, 132092, Note_on_c, 7, 34, 0
9, 132864, Note_on_c, 7, 39, 39
9, 133116, Note_on_c, 7, 39, 0
9, 133248, Note_on_c, 7, 43, 39
9, 133500, Note_on_c, 7, 43, 0
9, 133632, Note_on_c, 7, 41, 39
9, 133884, Note_on_c, 7, 41, 0
9, 134016, Note_on_c, 7, 38, 39
9, 134268, Note_on_c, 7, 38, 0
9, 134400, Note_on_c, 7, 39, 39
9, 134652, Note_on_c, 7, 39, 0
9, 134784, Note_on_c, 7, 36, 39
9, 135036, Note_on_c, 7, 36, 0
9, 135168, Note_on_c, 7, 34, 39
9, 135420, Note_on_c, 7, 34, 0
9, 135552, Note_on_c, 7, 46, 39
9, 135612, Note_on_c, 7, 46, 0
9, 135616, Note_on_c, 7, 48, 39
9, 135676, Note_on_c, 7, 48, 0
9, 135680, Note_on_c, 7, 46, 39
9, 135740, Note_on_c, 7, 46, 0
9, 135744, Note_on_c, 7, 44, 39
9, 135804, Note_on_c, 7, 44, 0
9, 135808, Note_on_c, 7, 43, 39
9, 135868, Note_on_c, 7, 43, 0
9, 135872, Note_on_c, 7, 41, 39
9, 135932, Note_on_c, 7, 41, 0
9, 135936, Note_on_c, 7, 39, 39
9, 136188, Note_on_c, 7, 39, 0
9, 136320, Note_on_c, 7, 43, 39
9, 136572, Note_on_c, 7, 43, 0
9, 136704, Note_on_c, 7, 41, 39
9, 136956, Note_on_c, 7, 41, 0
9, 137088, Note_on_c, 7, 38, 39
9, 137340, Note_on_c, 7, 38, 0
9, 137472, Note_on_c, 7, 39, 39
9, 137724, Note_on_c, 7, 39, 0
9, 137856, Note_on_c, 7, 34, 39
9, 137916, Note_on_c, 7, 34, 0
9, 137984, Note_on_c, 7, 34, 39
9, 138044, Note_on_c, 7, 34, 0
9, 138112, Note_on_c, 7, 34, 39
9, 138172, Note_on_c, 7, 34, 0
9, 138240, Note_on_c, 7, 39, 59
9, 138300, Note_on_c, 7, 39, 0
9, 138368, Note_on_c, 7, 39, 59
9, 138428, Note_on_c, 7, 39, 0
9, 138496, Note_on_c, 7, 39, 59
9, 138556, Note_on_c, 7, 39, 0
9, 138624, Note_on_c, 7, 39, 59
9, 138684, Note_on_c, 7, 39, 0
9, 138752, Note_on_c, 7, 39, 59
9, 138812, Note_on_c, 7, 39, 0
9, 138880, Note_on_c, 7, 39, 59
9, 138940, Note_on_c, 7, 39, 0
9, 139008, Note_on_c, 7, 38, 59
9, 139132, Note_on_c, 7, 38, 0
9, 139136, Note_on_c, 7, 41, 59
9, 139260, Note_on_c, 7, 41, 0
9, 139264, Note_on_c, 7, 46, 59
9, 139360, Note_on_c, 7, 46, 0
9, 139392, Note_on_c, 7, 46, 59
9, 139516, Note_on_c, 7, 46, 0
9, 139520, Note_on_c, 7, 44, 59
9, 139644, Note_on_c, 7, 44, 0
9, 139648, Note_on_c, 7, 41, 59
9, 139744, Note_on_c, 7, 41, 0
9, 139776, Note_on_c, 7, 40, 59
9, 139900, Note_on_c, 7, 40, 0
9, 139904, Note_on_c, 7, 43, 59
9, 140028, Note_on_c, 7, 43, 0
9, 140032, Note_on_c, 7, 48, 59
9, 140128, Note_on_c, 7, 48, 0
9, 140160, Note_on_c, 7, 48, 59
9, 140284, Note_on_c, 7, 48, 0
9, 140288, Note_on_c, 7, 46, 59
9, 140412, Note_on_c, 7, 46, 0
9, 140416, Note_on_c, 7, 43, 59
9, 140512, Note_on_c, 7, 43, 0
9, 140544, Note_on_c, 7, 44, 59
9, 140604, Note_on_c, 7, 44, 0
9, 140672, Note_on_c, 7, 48, 59
9, 140732, Note_on_c, 7, 48, 0
9, 140800, Note_on_c, 7, 40, 59
9, 140860, Note_on_c, 7, 40, 0
9, 140928, Note_on_c, 7, 41, 59
9, 140988, Note_on_c, 7, 41, 0
9, 141056, Note_on_c, 7, 44, 59
9, 141116, Note_on_c, 7, 44, 0
9, 141184, Note_on_c, 7, 36, 59
9, 141244, Note_on_c, 7, 36, 0
9, 141312, Note_on_c, 7, 38, 59
9, 141372, Note_on_c, 7, 38, 0
9, 141440, Note_on_c, 7, 41, 59
9, 141500, Note_on_c, 7, 41, 0
9, 141568, Note_on_c, 7, 33, 59
9, 141628, Note_on_c, 7, 33, 0
9, 141696, Note_on_c, 7, 34, 59
9, 141756, Note_on_c, 7, 34, 0
9, 141824, Note_on_c, 7, 38, 59
9, 141884, Note_on_c, 7, 38, 0
9, 141952, Note_on_c, 7, 34, 59
9, 142012, Note_on_c, 7, 34, 0
9, 142080, Note_on_c, 7, 39, 59
9, 142204, Note_on_c, 7, 39, 0
9, 142208, Note_on_c, 7, 38, 59
9, 142332, Note_on_c, 7, 38, 0
9, 142336, Note_on_c, 7, 39, 59
9, 142460, Note_on_c, 7, 39, 0
9, 142464, Note_on_c, 7, 36, 59
9, 142588, Note_on_c, 7, 36, 0
9, 142592, Note_on_c, 7, 34, 59
9, 142716, Note_on_c, 7, 34, 0
9, 142720, Note_on_c, 7, 36, 59
9, 142844, Note_on_c, 7, 36, 0
9, 142848, Note_on_c, 7, 32, 59
9, 142972, Note_on_c, 7, 32, 0
9, 142976, Note_on_c, 7, 31, 59
9, 143100, Note_on_c, 7, 31, 0
9, 143104, Note_on_c, 7, 32, 59
9, 143228, Note_on_c, 7, 32, 0
9, 143232, Note_on_c, 7, 34, 59
9, 143356, Note_on_c, 7, 34, 0
9, 143360, Note_on_c, 7, 32, 59
9, 143484, Note_on_c, 7, 32, 0
9, 143488, Note_on_c, 7, 34, 59
9, 143612, Note_on_c, 7, 34, 0
9, 143616, Note_on_c, 7, 39, 59
9, 143740, Note_on_c, 7, 39, 0
9, 143744, Note_on_c, 7, 38, 59
9, 143868, Note_on_c, 7, 38, 0
9, 143872, Note_on_c, 7, 39, 59
9, 143996, Note_on_c, 7, 39, 0
9, 144000, Note_on_c, 7, 48, 59
9, 144124, Note_on_c, 7, 48, 0
9, 144128, Note_on_c, 7, 46, 59
9, 144252, Note_on_c, 7, 46, 0
9, 144256, Note_on_c, 7, 48, 59
9, 144380, Note_on_c, 7, 48, 0
9, 144384, Note_on_c, 7, 44, 59
9, 144508, Note_on_c, 7, 44, 0
9, 144512, Note_on_c, 7, 43, 59
9, 144636, Note_on_c, 7, 43, 0
9, 144640, Note_on_c, 7, 44, 59
9, 144764, Note_on_c, 7, 44, 0
9, 144768, Note_on_c, 7, 46, 59
9, 144892, Note_on_c, 7, 46, 0
9, 144896, Note_on_c, 7, 44, 59
9, 145020, Note_on_c, 7, 44, 0
9, 145024, Note_on_c, 7, 46, 59
9, 145148, Note_on_c, 7, 46, 0
9, 145152, Note_on_c, 7, 51, 59
9, 145276, Note_on_c, 7, 51, 0
9, 145280, Note_on_c, 7, 50, 59
9, 145404, Note_on_c, 7, 50, 0
9, 145408, Note_on_c, 7, 51, 59
9, 145532, Note_on_c, 7, 51, 0
9, 145536, Note_on_c, 7, 48, 59
9, 145660, Note_on_c, 7, 48, 0
9, 145664, Note_on_c, 7, 46, 59
9, 145788, Note_on_c, 7, 46, 0
9, 145792, Note_on_c, 7, 48, 59
9, 145916, Note_on_c, 7, 48, 0
9, 145920, Note_on_c, 7, 44, 59
9, 146044, Note_on_c, 7, 44, 0
9, 146048, Note_on_c, 7, 43, 59
9, 146172, Note_on_c, 7, 43, 0
9, 146176, Note_on_c, 7, 44, 59
9, 146300, Note_on_c, 7, 44, 0
9, 146304, Note_on_c, 7, 46, 59
9, 146428, Note_on_c, 7, 46, 0
9, 146432, Note_on_c, 7, 48, 59
9, 146556, Note_on_c, 7, 48, 0
9, 146560, Note_on_c, 7, 46, 59
9, 146684, Note_on_c, 7, 46, 0
9, 146688, Note_on_c, 7, 45, 59
9, 147452, Note_on_c, 7, 45, 0
9, 147456, Note_on_c, 7, 48, 39
9, 148220, Note_on_c, 7, 48, 0
9, 148224, Note_on_c, 7, 46, 39
9, 148988, Note_on_c, 7, 46, 0
9, 148992, Note_on_c, 7, 34, 39
9, 149756, Note_on_c, 7, 34, 0
9, 149760, Note_on_c, 7, 35, 39
9, 150524, Note_on_c, 7, 35, 0
9, 150528, Note_on_c, 7, 34, 39
9, 150908, Note_on_c, 7, 34, 0
9, 150912, Note_on_c, 7, 33, 39
9, 151292, Note_on_c, 7, 33, 0
9, 151296, Note_on_c, 7, 32, 39
9, 151420, Note_on_c, 7, 32, 0
9, 151680, Note_on_c, 7, 38, 39
9, 151804, Note_on_c, 7, 38, 0
9, 152064, Note_on_c, 7, 39, 39
9, 152188, Note_on_c, 7, 39, 0
9, 152448, Note_on_c, 7, 34, 39
9, 152572, Note_on_c, 7, 34, 0
9, 152832, Note_on_c, 7, 39, 39
9, 157540, Note_on_c, 7, 39, 0
9, 157568, Note_on_c, 7, 39, 59
9, 157628, Note_on_c, 7, 39, 0
9, 157696, Note_on_c, 7, 39, 59
9, 157756, Note_on_c, 7, 39, 0
9, 157824, Note_on_c, 7, 39, 59
9, 157884, Note_on_c, 7, 39, 0
9, 157952, Note_on_c, 7, 39, 59
9, 158012, Note_on_c, 7, 39, 0
9, 158080, Note_on_c, 7, 39, 59
9, 158140, Note_on_c, 7, 39, 0
9, 158208, Note_on_c, 7, 39, 59
9, 158332, Note_on_c, 7, 39, 0
9, 158592, Note_on_c, 7, 39, 59
9, 158716, Note_on_c, 7, 39, 0
9, 158976, Note_on_c, 7, 39, 59
9, 159100, Note_on_c, 7, 39, 0
9, 159100, End_track
10, 0, Start_track
10, 0, MIDI_port, 0
10, 0, Title_t, "Horn Concerto "
10, 0, End_track
11, 0, Start_track
11, 0, MIDI_port, 0
11, 0, Title_t, "Nr4 Mov3"
11, 0, End_track
12, 0, Start_track
12, 0, MIDI_port, 0
12, 0, Title_t, "Mozart"
12, 0, End_track
13, 0, Start_track
13, 0, MIDI_port, 0
13, 0, Title_t, "Midi J.E. Taylor"
13, 0, End_track
0, 0, End_of_file