0, 0, Header, 1, 21, 480
1, 0, Start_track
1, 0, Title_t, "untitled"
1, 0, Time_signature, 3, 2, 24, 8
1, 0, Key_signature, -1, "major"
1, 0, Tempo, 441176
1, 0, Marker_t, "K.242 3rd Movement, Rondo"
1, 480, Tempo, 428571
1, 980, Tempo, 458015
1, 1440, Tempo, 433213
1, 1900, Tempo, 444444
1, 2400, Tempo, 410959
1, 2880, Tempo, 433213
1, 3340, Tempo, 421053
1, 3800, Tempo, 451128
1, 3820, Tempo, 452830
1, 4320, Tempo, 428571
1, 4780, Tempo, 451128
1, 5280, Tempo, 409556
1, 5740, Tempo, 433213
1, 6220, Tempo, 419580
1, 6720, Tempo, 459770
1, 7200, Tempo, 421053
1, 7660, Tempo, 439560
1, 8140, Tempo, 408163
1, 8160, Tempo, 409556
1, 8620, Tempo, 454545
1, 9140, Tempo, 424028
1, 9580, Tempo, 442804
1, 10060, Tempo, 409556
1, 10580, Tempo, 451128
1, 11060, Tempo, 419580
1, 11540, Tempo, 442804
1, 11960, Tempo, 408163
1, 12520, Tempo, 446097
1, 12940, Tempo, 421053
1, 13420, Tempo, 452830
1, 13920, Tempo, 410959
1, 14400, Tempo, 441176
1, 14880, Tempo, 428571
1, 15380, Tempo, 458015
1, 15840, Tempo, 433213
1, 16300, Tempo, 444444
1, 16800, Tempo, 410959
1, 17280, Tempo, 433213
1, 17740, Tempo, 421053
1, 18200, Tempo, 451128
1, 18220, Tempo, 452830
1, 18720, Tempo, 428571
1, 19180, Tempo, 451128
1, 19680, Tempo, 409556
1, 20140, Tempo, 433213
1, 20620, Tempo, 419580
1, 21120, Tempo, 459770
1, 21600, Tempo, 421053
1, 22060, Tempo, 439560
1, 22540, Tempo, 408163
1, 22560, Tempo, 409556
1, 23020, Tempo, 454545
1, 23540, Tempo, 424028
1, 23980, Tempo, 442804
1, 24460, Tempo, 409556
1, 24980, Tempo, 451128
1, 25460, Tempo, 419580
1, 25940, Tempo, 442804
1, 26360, Tempo, 408163
1, 26920, Tempo, 446097
1, 27340, Tempo, 421053
1, 27820, Tempo, 452830
1, 28320, Tempo, 410959
1, 28800, Tempo, 441176
1, 29280, Tempo, 428571
1, 29780, Tempo, 458015
1, 30240, Tempo, 433213
1, 30700, Tempo, 444444
1, 31200, Tempo, 410959
1, 31680, Tempo, 433213
1, 32140, Tempo, 421053
1, 32600, Tempo, 451128
1, 32620, Tempo, 452830
1, 33120, Tempo, 428571
1, 33580, Tempo, 451128
1, 34080, Tempo, 409556
1, 34540, Tempo, 433213
1, 35020, Tempo, 419580
1, 35520, Tempo, 459770
1, 36000, Tempo, 421053
1, 36460, Tempo, 439560
1, 36940, Tempo, 408163
1, 36960, Tempo, 409556
1, 37420, Tempo, 454545
1, 37940, Tempo, 424028
1, 38380, Tempo, 442804
1, 38860, Tempo, 409556
1, 39380, Tempo, 451128
1, 39860, Tempo, 419580
1, 40340, Tempo, 442804
1, 40760, Tempo, 408163
1, 41320, Tempo, 446097
1, 41740, Tempo, 421053
1, 42220, Tempo, 452830
1, 42720, Tempo, 410959
1, 43200, Tempo, 441176
1, 43680, Tempo, 428571
1, 44180, Tempo, 458015
1, 44640, Tempo, 433213
1, 45100, Tempo, 444444
1, 45600, Tempo, 410959
1, 46080, Tempo, 433213
1, 46540, Tempo, 421053
1, 47000, Tempo, 451128
1, 47020, Tempo, 452830
1, 47520, Tempo, 428571
1, 47980, Tempo, 451128
1, 48480, Tempo, 409556
1, 48940, Tempo, 433213
1, 49420, Tempo, 419580
1, 49920, Tempo, 459770
1, 50400, Tempo, 421053
1, 50860, Tempo, 439560
1, 51340, Tempo, 408163
1, 51360, Tempo, 409556
1, 51820, Tempo, 454545
1, 52340, Tempo, 424028
1, 52780, Tempo, 442804
1, 53260, Tempo, 409556
1, 53780, Tempo, 451128
1, 54260, Tempo, 419580
1, 54740, Tempo, 442804
1, 55160, Tempo, 408163
1, 55720, Tempo, 446097
1, 56140, Tempo, 421053
1, 56620, Tempo, 452830
1, 57120, Tempo, 410959
1, 57600, Tempo, 441176
1, 58080, Tempo, 428571
1, 58580, Tempo, 458015
1, 59040, Tempo, 433213
1, 59500, Tempo, 444444
1, 60000, Tempo, 410959
1, 60480, Tempo, 433213
1, 60940, Tempo, 421053
1, 61400, Tempo, 451128
1, 61420, Tempo, 452830
1, 61920, Tempo, 428571
1, 62380, Tempo, 451128
1, 62880, Tempo, 409556
1, 63340, Tempo, 433213
1, 63820, Tempo, 419580
1, 64320, Tempo, 459770
1, 64800, Tempo, 421053
1, 65260, Tempo, 439560
1, 65740, Tempo, 408163
1, 65760, Tempo, 409556
1, 66220, Tempo, 454545
1, 66740, Tempo, 424028
1, 67180, Tempo, 442804
1, 67660, Tempo, 409556
1, 68180, Tempo, 451128
1, 68660, Tempo, 419580
1, 69140, Tempo, 442804
1, 69560, Tempo, 408163
1, 70120, Tempo, 446097
1, 70540, Tempo, 421053
1, 71020, Tempo, 452830
1, 71520, Tempo, 410959
1, 71980, Tempo, 437956
1, 72500, Tempo, 409556
1, 72960, Tempo, 452830
1, 73440, Tempo, 424028
1, 73900, Tempo, 459770
1, 74380, Tempo, 412371
1, 74880, Tempo, 439560
1, 75340, Tempo, 419580
1, 75840, Tempo, 458015
1, 76320, Tempo, 419580
1, 76340, Tempo, 421053
1, 76780, Tempo, 444444
1, 77300, Tempo, 415225
1, 77740, Tempo, 459770
1, 78240, Tempo, 419580
1, 78700, Tempo, 454545
1, 79200, Tempo, 415225
1, 79680, Tempo, 436364
1, 80140, Tempo, 409556
1, 80600, Tempo, 451128
1, 81080, Tempo, 431655
1, 81600, Tempo, 447761
1, 82060, Tempo, 412371
1, 82540, Tempo, 447761
1, 83020, Tempo, 436364
1, 83514, Tempo, 606061
1, 83520, Marker_t, "Cadenza 1"
1, 83994, Tempo, 674157
1, 84474, Tempo, 1016949
1, 84954, Tempo, 674157
1, 85170, Tempo, 465116
1, 85450, Tempo, 497925
1, 85890, Tempo, 542986
1, 86402, Tempo, 579710
1, 86874, Tempo, 662983
1, 87354, Tempo, 722892
1, 87834, Tempo, 750000
1, 89274, Tempo, 1518987
1, 89754, Tempo, 1212121
1, 90234, Tempo, 1071429
1, 90490, Tempo, 882353
1, 90720, Tempo, 521739
1, 91194, Tempo, 600000
1, 91674, Tempo, 754717
1, 91890, Tempo, 1111111
1, 92010, Tempo, 3076923
1, 92154, Tempo, 441176
1, 92160, Tempo, 441176
1, 92640, Tempo, 428571
1, 93140, Tempo, 458015
1, 93600, Tempo, 433213
1, 94060, Tempo, 444444
1, 94560, Tempo, 410959
1, 95040, Tempo, 433213
1, 95500, Tempo, 421053
1, 95960, Tempo, 451128
1, 95980, Tempo, 452830
1, 96480, Tempo, 428571
1, 96940, Tempo, 451128
1, 97440, Tempo, 409556
1, 97900, Tempo, 433213
1, 98380, Tempo, 419580
1, 98880, Tempo, 459770
1, 99360, Tempo, 421053
1, 99820, Tempo, 439560
1, 100300, Tempo, 408163
1, 100320, Tempo, 409556
1, 100780, Tempo, 454545
1, 101300, Tempo, 424028
1, 101740, Tempo, 442804
1, 102220, Tempo, 409556
1, 102740, Tempo, 451128
1, 103220, Tempo, 419580
1, 103700, Tempo, 442804
1, 104120, Tempo, 408163
1, 104680, Tempo, 446097
1, 105100, Tempo, 421053
1, 105580, Tempo, 452830
1, 106080, Tempo, 410959
1, 106560, Tempo, 441176
1, 107040, Tempo, 428571
1, 107540, Tempo, 458015
1, 108000, Tempo, 433213
1, 108460, Tempo, 444444
1, 108960, Tempo, 410959
1, 109440, Tempo, 433213
1, 109900, Tempo, 421053
1, 110360, Tempo, 451128
1, 110380, Tempo, 452830
1, 110880, Tempo, 428571
1, 111340, Tempo, 451128
1, 111840, Tempo, 409556
1, 112300, Tempo, 433213
1, 112780, Tempo, 419580
1, 113280, Tempo, 459770
1, 113760, Tempo, 421053
1, 114220, Tempo, 439560
1, 114700, Tempo, 408163
1, 114720, Tempo, 409556
1, 115180, Tempo, 454545
1, 115700, Tempo, 424028
1, 116140, Tempo, 442804
1, 116620, Tempo, 409556
1, 117140, Tempo, 451128
1, 117620, Tempo, 419580
1, 118100, Tempo, 442804
1, 118520, Tempo, 408163
1, 119080, Tempo, 446097
1, 119500, Tempo, 421053
1, 119980, Tempo, 452830
1, 120480, Tempo, 410959
1, 120960, Tempo, 441176
1, 121440, Tempo, 428571
1, 121940, Tempo, 458015
1, 122400, Tempo, 433213
1, 122860, Tempo, 444444
1, 123360, Tempo, 410959
1, 123840, Tempo, 433213
1, 124300, Tempo, 421053
1, 124760, Tempo, 451128
1, 124780, Tempo, 452830
1, 125280, Tempo, 428571
1, 125740, Tempo, 451128
1, 126240, Tempo, 409556
1, 126700, Tempo, 433213
1, 127180, Tempo, 419580
1, 127680, Tempo, 459770
1, 128160, Tempo, 421053
1, 128620, Tempo, 439560
1, 129100, Tempo, 408163
1, 129120, Tempo, 409556
1, 129580, Tempo, 454545
1, 130100, Tempo, 424028
1, 130540, Tempo, 442804
1, 131020, Tempo, 409556
1, 131540, Tempo, 451128
1, 132020, Tempo, 419580
1, 132500, Tempo, 442804
1, 132920, Tempo, 408163
1, 133480, Tempo, 446097
1, 133900, Tempo, 421053
1, 134380, Tempo, 452830
1, 134880, Tempo, 410959
1, 135360, Tempo, 441176
1, 135840, Tempo, 428571
1, 136340, Tempo, 458015
1, 136800, Tempo, 433213
1, 137260, Tempo, 444444
1, 137760, Tempo, 410959
1, 138240, Tempo, 433213
1, 138700, Tempo, 421053
1, 139160, Tempo, 451128
1, 139180, Tempo, 452830
1, 139680, Tempo, 428571
1, 140140, Tempo, 451128
1, 140640, Tempo, 409556
1, 141100, Tempo, 433213
1, 141580, Tempo, 419580
1, 142080, Tempo, 459770
1, 142560, Tempo, 421053
1, 143020, Tempo, 439560
1, 143500, Tempo, 408163
1, 143520, Tempo, 409556
1, 143980, Tempo, 454545
1, 144500, Tempo, 424028
1, 144940, Tempo, 442804
1, 145420, Tempo, 409556
1, 145940, Tempo, 451128
1, 146420, Tempo, 419580
1, 146900, Tempo, 442804
1, 147320, Tempo, 408163
1, 147880, Tempo, 446097
1, 148300, Tempo, 421053
1, 148780, Tempo, 452830
1, 149280, Tempo, 410959
1, 149780, Tempo, 424028
1, 150260, Tempo, 409556
1, 150720, Tempo, 454545
1, 151180, Tempo, 421053
1, 151700, Tempo, 451128
1, 152180, Tempo, 439560
1, 152620, Tempo, 459770
1, 153080, Tempo, 425532
1, 153580, Tempo, 449438
1, 154100, Tempo, 431655
1, 154600, Tempo, 465116
1, 155040, Tempo, 400000
1, 155520, Marker_t, "Cadenza 2"
1, 155532, Tempo, 662983
1, 157440, Tempo, 502092
1, 158872, Tempo, 545455
1, 159352, Tempo, 674157
1, 159832, Tempo, 1008403
1, 160480, Tempo, 2033898
1, 160800, Tempo, 1016949
1, 161272, Tempo, 666667
1, 161364, Tempo, 603015
1, 161512, Tempo, 545455
1, 162420, Tempo, 597015
1, 162734, Tempo, 666667
1, 163704, Tempo, 1481481
1, 164152, Tempo, 1052632
1, 164640, Tempo, 2926829
1, 164800, Tempo, 1188119
1, 165104, Tempo, 3000000
1, 165372, Tempo, 1538462
1, 165600, Tempo, 2068966
1, 166072, Tempo, 759494
1, 166552, Tempo, 612245
1, 167524, Tempo, 571429
1, 167992, Tempo, 510638
1, 169032, Tempo, 441176
1, 169920, Tempo, 441176
1, 170400, Tempo, 428571
1, 170900, Tempo, 458015
1, 171360, Tempo, 433213
1, 171820, Tempo, 444444
1, 172320, Tempo, 410959
1, 172800, Tempo, 433213
1, 173260, Tempo, 421053
1, 173720, Tempo, 451128
1, 173740, Tempo, 452830
1, 174240, Tempo, 428571
1, 174700, Tempo, 451128
1, 175200, Tempo, 409556
1, 175660, Tempo, 433213
1, 176140, Tempo, 419580
1, 176640, Tempo, 459770
1, 177120, Tempo, 421053
1, 177580, Tempo, 439560
1, 178060, Tempo, 408163
1, 178080, Tempo, 409556
1, 178540, Tempo, 454545
1, 179060, Tempo, 424028
1, 179500, Tempo, 442804
1, 179980, Tempo, 409556
1, 180500, Tempo, 451128
1, 180980, Tempo, 419580
1, 181460, Tempo, 442804
1, 181880, Tempo, 408163
1, 182440, Tempo, 446097
1, 182860, Tempo, 421053
1, 183340, Tempo, 452830
1, 183840, Tempo, 410959
1, 184320, Tempo, 441176
1, 184800, Tempo, 428571
1, 185300, Tempo, 458015
1, 185760, Tempo, 433213
1, 186220, Tempo, 444444
1, 186720, Tempo, 410959
1, 187200, Tempo, 433213
1, 187660, Tempo, 421053
1, 188120, Tempo, 451128
1, 188140, Tempo, 452830
1, 188640, Tempo, 428571
1, 189100, Tempo, 451128
1, 189600, Tempo, 409556
1, 190060, Tempo, 433213
1, 190540, Tempo, 419580
1, 191040, Tempo, 459770
1, 191520, Tempo, 421053
1, 191980, Tempo, 439560
1, 192460, Tempo, 408163
1, 192480, Tempo, 409556
1, 192940, Tempo, 454545
1, 193460, Tempo, 424028
1, 193900, Tempo, 442804
1, 194380, Tempo, 409556
1, 194900, Tempo, 451128
1, 195380, Tempo, 419580
1, 195860, Tempo, 442804
1, 196280, Tempo, 408163
1, 196840, Tempo, 446097
1, 197260, Tempo, 421053
1, 197740, Tempo, 452830
1, 198240, Tempo, 410959
1, 198720, Tempo, 441176
1, 199200, Tempo, 428571
1, 199700, Tempo, 458015
1, 200160, Tempo, 433213
1, 200620, Tempo, 444444
1, 201120, Tempo, 410959
1, 201600, Tempo, 433213
1, 202060, Tempo, 421053
1, 202520, Tempo, 451128
1, 202540, Tempo, 452830
1, 203040, Tempo, 428571
1, 203500, Tempo, 451128
1, 204000, Tempo, 409556
1, 204460, Tempo, 433213
1, 204940, Tempo, 419580
1, 205440, Tempo, 459770
1, 205920, Tempo, 421053
1, 206380, Tempo, 439560
1, 206860, Tempo, 408163
1, 206880, Tempo, 409556
1, 207340, Tempo, 454545
1, 207860, Tempo, 424028
1, 208300, Tempo, 442804
1, 208780, Tempo, 409556
1, 209300, Tempo, 451128
1, 209780, Tempo, 419580
1, 210260, Tempo, 442804
1, 210680, Tempo, 408163
1, 211240, Tempo, 446097
1, 211660, Tempo, 421053
1, 212140, Tempo, 452830
1, 212640, Tempo, 410959
1, 213120, Tempo, 441176
1, 213600, Tempo, 428571
1, 214100, Tempo, 458015
1, 214560, Tempo, 433213
1, 215020, Tempo, 444444
1, 215520, Tempo, 410959
1, 216000, Tempo, 433213
1, 216460, Tempo, 421053
1, 216920, Tempo, 451128
1, 216940, Tempo, 452830
1, 217440, Tempo, 428571
1, 217900, Tempo, 451128
1, 218400, Tempo, 409556
1, 218860, Tempo, 433213
1, 219340, Tempo, 419580
1, 219840, Tempo, 459770
1, 220320, Tempo, 421053
1, 220780, Tempo, 439560
1, 221260, Tempo, 408163
1, 221280, Tempo, 409556
1, 221740, Tempo, 454545
1, 222260, Tempo, 424028
1, 222700, Tempo, 442804
1, 223180, Tempo, 409556
1, 223700, Tempo, 451128
1, 224180, Tempo, 419580
1, 224660, Tempo, 442804
1, 225080, Tempo, 408163
1, 225640, Tempo, 446097
1, 226060, Tempo, 421053
1, 226540, Tempo, 452830
1, 227040, Tempo, 410959
1, 227520, Tempo, 441176
1, 228000, Tempo, 428571
1, 228500, Tempo, 458015
1, 228960, Tempo, 433213
1, 229420, Tempo, 444444
1, 229920, Tempo, 410959
1, 230400, Tempo, 433213
1, 230860, Tempo, 421053
1, 231320, Tempo, 451128
1, 231340, Tempo, 452830
1, 231840, Tempo, 428571
1, 232300, Tempo, 451128
1, 232800, Tempo, 409556
1, 233260, Tempo, 433213
1, 233740, Tempo, 419580
1, 234240, Tempo, 459770
1, 234720, Tempo, 421053
1, 235180, Tempo, 439560
1, 235660, Tempo, 408163
1, 235680, Tempo, 409556
1, 236140, Tempo, 454545
1, 236660, Tempo, 424028
1, 237100, Tempo, 442804
1, 237580, Tempo, 409556
1, 238100, Tempo, 451128
1, 238580, Tempo, 419580
1, 239060, Tempo, 442804
1, 239480, Tempo, 408163
1, 240040, Tempo, 446097
1, 240460, Tempo, 421053
1, 240940, Tempo, 452830
1, 241440, Tempo, 410959
1, 241920, Tempo, 441176
1, 242400, Tempo, 428571
1, 242900, Tempo, 458015
1, 243360, Tempo, 433213
1, 243820, Tempo, 444444
1, 244320, Tempo, 410959
1, 244800, Tempo, 433213
1, 245260, Tempo, 421053
1, 245720, Tempo, 451128
1, 245740, Tempo, 452830
1, 246240, Tempo, 428571
1, 246700, Tempo, 451128
1, 247200, Tempo, 409556
1, 247660, Tempo, 433213
1, 248140, Tempo, 419580
1, 248640, Tempo, 459770
1, 249120, Tempo, 421053
1, 249580, Tempo, 439560
1, 250060, Tempo, 408163
1, 250080, Tempo, 409556
1, 250540, Tempo, 454545
1, 251060, Tempo, 424028
1, 251500, Tempo, 442804
1, 251980, Tempo, 409556
1, 252500, Tempo, 451128
1, 252980, Tempo, 419580
1, 253460, Tempo, 442804
1, 253880, Tempo, 408163
1, 254440, Tempo, 446097
1, 254860, Tempo, 421053
1, 255340, Tempo, 452830
1, 255840, Tempo, 410959
1, 256320, Tempo, 441176
1, 256800, Tempo, 428571
1, 257300, Tempo, 458015
1, 257760, Tempo, 433213
1, 258220, Tempo, 444444
1, 258720, Tempo, 410959
1, 259200, Tempo, 433213
1, 259660, Tempo, 421053
1, 260120, Tempo, 451128
1, 260140, Tempo, 452830
1, 260640, Tempo, 428571
1, 261100, Tempo, 451128
1, 261600, Tempo, 409556
1, 262060, Tempo, 433213
1, 262540, Tempo, 419580
1, 263040, Tempo, 459770
1, 263520, Tempo, 421053
1, 263980, Tempo, 439560
1, 264460, Tempo, 408163
1, 264480, Tempo, 409556
1, 264940, Tempo, 454545
1, 265460, Tempo, 424028
1, 265900, Tempo, 442804
1, 266380, Tempo, 409556
1, 266900, Tempo, 451128
1, 267380, Tempo, 419580
1, 267860, Tempo, 442804
1, 268280, Tempo, 408163
1, 268840, Tempo, 446097
1, 269260, Tempo, 421053
1, 269740, Tempo, 452830
1, 270240, Tempo, 410959
1, 270720, Tempo, 441176
1, 271200, Tempo, 428571
1, 271700, Tempo, 458015
1, 272160, Tempo, 433213
1, 272620, Tempo, 444444
1, 273120, Tempo, 410959
1, 273600, Tempo, 433213
1, 274060, Tempo, 421053
1, 274520, Tempo, 451128
1, 274540, Tempo, 452830
1, 275040, Tempo, 428571
1, 275500, Tempo, 451128
1, 276000, Tempo, 409556
1, 276460, Tempo, 433213
1, 276940, Tempo, 419580
1, 277440, Tempo, 459770
1, 277920, Tempo, 421053
1, 278380, Tempo, 439560
1, 278860, Tempo, 408163
1, 278880, Tempo, 409556
1, 279340, Tempo, 454545
1, 279860, Tempo, 424028
1, 280300, Tempo, 442804
1, 280780, Tempo, 409556
1, 281300, Tempo, 451128
1, 281780, Tempo, 419580
1, 282260, Tempo, 442804
1, 282680, Tempo, 408163
1, 283240, Tempo, 446097
1, 283660, Tempo, 421053
1, 284140, Tempo, 452830
1, 284640, Tempo, 410959
1, 285040, Tempo, 441176
1, 285620, Tempo, 416667
1, 286060, Tempo, 463320
1, 286580, Tempo, 436364
1, 287060, Tempo, 452830
1, 287540, Tempo, 416667
1, 287980, Tempo, 446097
1, 288480, Tempo, 415225
1, 288940, Tempo, 463320
1, 289440, Tempo, 428571
1, 289880, Tempo, 451128
1, 290400, Tempo, 409556
1, 290880, Tempo, 452830
1, 291380, Tempo, 418118
1, 291800, Tempo, 463320
1, 292320, Tempo, 430108
1, 292820, Tempo, 442804
1, 293260, Tempo, 410959
1, 293760, Marker_t, "Cadenza 3"
1, 293780, Tempo, 442804
1, 294244, Tempo, 603015
1, 295192, Tempo, 550459
1, 295660, Tempo, 504202
1, 296180, Tempo, 555556
1, 296644, Tempo, 606061
1, 298072, Tempo, 857143
1, 299042, Tempo, 1578947
1, 299282, Tempo, 1016949
1, 299562, Tempo, 882353
1, 299950, Tempo, 967742
1, 300482, Tempo, 1034483
1, 301430, Tempo, 1363636
1, 301442, Tempo, 1176471
1, 302214, Tempo, 3157895
1, 302390, Tempo, 895522
1, 302870, Tempo, 800000
1, 303824, Tempo, 882353
1, 307200, Tempo, 612245
1, 307680, Tempo, 681818
1, 308132, Tempo, 606061
1, 308624, Tempo, 545455
1, 309132, Tempo, 483871
1, 309600, Tempo, 441176
1, 310080, Tempo, 428571
1, 310580, Tempo, 458015
1, 311040, Tempo, 433213
1, 311500, Tempo, 444444
1, 312000, Tempo, 410959
1, 312480, Tempo, 433213
1, 312940, Tempo, 421053
1, 313400, Tempo, 451128
1, 313420, Tempo, 452830
1, 313920, Tempo, 428571
1, 314380, Tempo, 451128
1, 314880, Tempo, 409556
1, 315340, Tempo, 433213
1, 315820, Tempo, 419580
1, 316320, Tempo, 459770
1, 316800, Tempo, 421053
1, 317260, Tempo, 439560
1, 317740, Tempo, 408163
1, 317760, Tempo, 409556
1, 318220, Tempo, 454545
1, 318740, Tempo, 424028
1, 319180, Tempo, 442804
1, 319660, Tempo, 409556
1, 320180, Tempo, 451128
1, 320660, Tempo, 419580
1, 321140, Tempo, 442804
1, 321560, Tempo, 408163
1, 322120, Tempo, 446097
1, 322540, Tempo, 421053
1, 323020, Tempo, 452830
1, 323520, Tempo, 410959
1, 324000, Tempo, 441176
1, 324480, Tempo, 428571
1, 324980, Tempo, 458015
1, 325440, Tempo, 433213
1, 325900, Tempo, 444444
1, 326400, Tempo, 410959
1, 326880, Tempo, 433213
1, 327340, Tempo, 421053
1, 327800, Tempo, 451128
1, 327820, Tempo, 452830
1, 328320, Tempo, 428571
1, 328780, Tempo, 451128
1, 329280, Tempo, 409556
1, 329740, Tempo, 433213
1, 330220, Tempo, 419580
1, 330720, Tempo, 459770
1, 331200, Tempo, 421053
1, 331660, Tempo, 439560
1, 332140, Tempo, 408163
1, 332160, Tempo, 409556
1, 332620, Tempo, 454545
1, 333140, Tempo, 424028
1, 333580, Tempo, 442804
1, 334060, Tempo, 409556
1, 334580, Tempo, 451128
1, 335060, Tempo, 419580
1, 335540, Tempo, 442804
1, 335960, Tempo, 434783
1, 336520, Tempo, 446097
1, 336940, Tempo, 463320
1, 337420, Tempo, 552995
1, 337420, End_track
2, 0, Start_track
2, 0, Title_t, "Oboi I & II"
2, 0, Control_c, 0, 0, 0
2, 0, Control_c, 0, 7, 90
2, 0, Control_c, 0, 10, 40
2, 0, Control_c, 0, 91, 76
2, 0, Control_c, 0, 93, 76
2, 1, Control_c, 0, 32, 1
2, 2, Program_c, 0, 68
2, 11520, Note_on_c, 0, 72, 88
2, 12000, Note_on_c, 0, 72, 88
2, 12159, Note_on_c, 0, 74, 88
2, 12200, Note_on_c, 0, 72, 0
2, 12320, Note_on_c, 0, 76, 88
2, 12359, Note_on_c, 0, 74, 0
2, 12440, Note_on_c, 0, 76, 0
2, 12480, Note_on_c, 0, 72, 0
2, 12480, Note_on_c, 0, 77, 88
2, 12480, Note_on_c, 0, 69, 88
2, 12639, Note_on_c, 0, 79, 88
2, 12639, Note_on_c, 0, 67, 88
2, 12680, Note_on_c, 0, 69, 0
2, 12680, Note_on_c, 0, 77, 0
2, 12800, Note_on_c, 0, 81, 88
2, 12800, Note_on_c, 0, 65, 88
2, 12839, Note_on_c, 0, 79, 0
2, 12839, Note_on_c, 0, 67, 0
2, 12920, Note_on_c, 0, 81, 0
2, 12920, Note_on_c, 0, 65, 0
2, 12960, Note_on_c, 0, 82, 88
2, 12960, Note_on_c, 0, 64, 88
2, 13440, Note_on_c, 0, 76, 88
2, 13440, Note_on_c, 0, 70, 88
2, 13480, Note_on_c, 0, 64, 0
2, 13480, Note_on_c, 0, 82, 0
2, 13840, Note_on_c, 0, 76, 0
2, 13840, Note_on_c, 0, 70, 0
2, 13920, Note_on_c, 0, 77, 88
2, 13920, Note_on_c, 0, 69, 88
2, 14400, Note_on_c, 0, 69, 0
2, 14400, Note_on_c, 0, 77, 0
2, 15360, Note_on_c, 0, 74, 88
2, 15360, Note_on_c, 0, 70, 88
2, 15840, Note_on_c, 0, 70, 0
2, 15840, Note_on_c, 0, 74, 0
2, 15840, Note_on_c, 0, 72, 88
2, 15840, Note_on_c, 0, 69, 88
2, 16320, Note_on_c, 0, 69, 0
2, 16320, Note_on_c, 0, 72, 0
2, 16320, Note_on_c, 0, 72, 86
2, 16320, Note_on_c, 0, 69, 86
2, 16380, Note_on_c, 0, 70, 86
2, 16380, Note_on_c, 0, 67, 86
2, 16421, Note_on_c, 0, 69, 0
2, 16421, Note_on_c, 0, 72, 0
2, 16440, Note_on_c, 0, 72, 90
2, 16440, Note_on_c, 0, 69, 90
2, 16481, Note_on_c, 0, 70, 0
2, 16481, Note_on_c, 0, 67, 0
2, 16500, Note_on_c, 0, 70, 90
2, 16500, Note_on_c, 0, 67, 90
2, 16541, Note_on_c, 0, 72, 0
2, 16541, Note_on_c, 0, 69, 0
2, 16560, Note_on_c, 0, 69, 89
2, 16560, Note_on_c, 0, 65, 89
2, 16560, Note_on_c, 0, 69, 89
2, 16601, Note_on_c, 0, 70, 0
2, 16601, Note_on_c, 0, 67, 0
2, 16680, Note_on_c, 0, 70, 85
2, 16680, Note_on_c, 0, 67, 85
2, 16716, Note_on_c, 0, 65, 0
2, 16716, Note_on_c, 0, 69, 0
2, 16716, Note_on_c, 0, 69, 0
2, 16800, Note_on_c, 0, 69, 88
2, 16800, Note_on_c, 0, 65, 88
2, 16836, Note_on_c, 0, 70, 0
2, 16836, Note_on_c, 0, 67, 0
2, 17280, Note_on_c, 0, 69, 0
2, 17280, Note_on_c, 0, 65, 0
2, 17280, Note_on_c, 0, 67, 88
2, 17760, Note_on_c, 0, 67, 0
2, 19200, Note_on_c, 0, 82, 88
2, 19200, Note_on_c, 0, 79, 88
2, 19680, Note_on_c, 0, 81, 88
2, 19680, Note_on_c, 0, 77, 88
2, 19720, Note_on_c, 0, 79, 0
2, 19720, Note_on_c, 0, 82, 0
2, 19880, Note_on_c, 0, 81, 0
2, 19880, Note_on_c, 0, 77, 0
2, 20160, Note_on_c, 0, 79, 88
2, 20160, Note_on_c, 0, 74, 88
2, 20520, Note_on_c, 0, 74, 0
2, 20520, Note_on_c, 0, 70, 88
2, 20640, Note_on_c, 0, 70, 0
2, 20640, Note_on_c, 0, 79, 0
2, 20640, Note_on_c, 0, 77, 88
2, 20640, Note_on_c, 0, 69, 88
2, 21120, Note_on_c, 0, 69, 0
2, 21120, Note_on_c, 0, 77, 0
2, 21120, Note_on_c, 0, 76, 88
2, 21120, Note_on_c, 0, 67, 88
2, 21600, Note_on_c, 0, 67, 0
2, 21600, Note_on_c, 0, 76, 0
2, 21600, Note_on_c, 0, 77, 88
2, 21600, Note_on_c, 0, 69, 88
2, 22080, Note_on_c, 0, 69, 0
2, 22080, Note_on_c, 0, 77, 0
2, 29280, Note_on_c, 0, 81, 88
2, 29280, Note_on_c, 0, 77, 88
2, 29760, Note_on_c, 0, 77, 0
2, 29760, Note_on_c, 0, 81, 0
2, 29760, Note_on_c, 0, 79, 88
2, 29760, Note_on_c, 0, 76, 88
2, 30240, Note_on_c, 0, 76, 0
2, 30240, Note_on_c, 0, 79, 0
2, 30240, Note_on_c, 0, 77, 88
2, 30720, Note_on_c, 0, 77, 0
2, 30720, Note_on_c, 0, 65, 88
2, 31200, Note_on_c, 0, 65, 0
2, 74880, Note_on_c, 0, 79, 75
2, 74880, Note_on_c, 0, 76, 75
2, 77760, Note_on_c, 0, 76, 0
2, 77760, Note_on_c, 0, 79, 0
2, 77760, Note_on_c, 0, 81, 75
2, 77760, Note_on_c, 0, 77, 75
2, 79200, Note_on_c, 0, 77, 0
2, 79200, Note_on_c, 0, 81, 0
2, 79200, Note_on_c, 0, 83, 75
2, 79200, Note_on_c, 0, 77, 75
2, 80640, Note_on_c, 0, 77, 0
2, 80640, Note_on_c, 0, 83, 0
2, 80640, Note_on_c, 0, 84, 75
2, 80640, Note_on_c, 0, 76, 75
2, 81120, Note_on_c, 0, 76, 0
2, 81120, Note_on_c, 0, 84, 0
2, 82080, Note_on_c, 0, 76, 88
2, 82080, Note_on_c, 0, 72, 88
2, 82280, Note_on_c, 0, 72, 0
2, 82280, Note_on_c, 0, 76, 0
2, 82560, Note_on_c, 0, 76, 88
2, 82560, Note_on_c, 0, 72, 88
2, 82760, Note_on_c, 0, 72, 0
2, 82760, Note_on_c, 0, 76, 0
2, 83040, Note_on_c, 0, 76, 88
2, 83040, Note_on_c, 0, 72, 88
2, 83240, Note_on_c, 0, 72, 0
2, 83240, Note_on_c, 0, 76, 0
2, 83520, Note_on_c, 0, 76, 88
2, 83520, Note_on_c, 0, 72, 88
2, 84000, Note_on_c, 0, 72, 0
2, 84000, Note_on_c, 0, 76, 0
2, 103680, Note_on_c, 0, 84, 71
2, 103680, Note_on_c, 0, 72, 71
2, 104640, Note_on_c, 0, 72, 0
2, 104640, Note_on_c, 0, 84, 0
2, 104640, Note_on_c, 0, 81, 77
2, 104640, Note_on_c, 0, 77, 77
2, 105120, Note_on_c, 0, 77, 0
2, 105120, Note_on_c, 0, 81, 0
2, 105120, Note_on_c, 0, 82, 77
2, 105120, Note_on_c, 0, 76, 77
2, 105600, Note_on_c, 0, 76, 0
2, 105600, Note_on_c, 0, 76, 67
2, 105600, Note_on_c, 0, 70, 67
2, 105664, Note_on_c, 0, 82, 0
2, 105880, Note_on_c, 0, 76, 0
2, 105904, Note_on_c, 0, 70, 0
2, 106080, Note_on_c, 0, 77, 77
2, 106080, Note_on_c, 0, 69, 77
2, 106560, Note_on_c, 0, 69, 0
2, 106560, Note_on_c, 0, 77, 0
2, 107520, Note_on_c, 0, 74, 76
2, 107520, Note_on_c, 0, 70, 76
2, 108000, Note_on_c, 0, 70, 0
2, 108000, Note_on_c, 0, 74, 0
2, 108000, Note_on_c, 0, 72, 76
2, 108000, Note_on_c, 0, 69, 76
2, 108480, Note_on_c, 0, 69, 0
2, 108480, Note_on_c, 0, 72, 0
2, 108480, Note_on_c, 0, 72, 66
2, 108480, Note_on_c, 0, 69, 66
2, 108540, Note_on_c, 0, 70, 66
2, 108540, Note_on_c, 0, 67, 66
2, 108581, Note_on_c, 0, 69, 0
2, 108581, Note_on_c, 0, 72, 0
2, 108600, Note_on_c, 0, 72, 72
2, 108600, Note_on_c, 0, 69, 72
2, 108641, Note_on_c, 0, 70, 0
2, 108641, Note_on_c, 0, 67, 0
2, 108660, Note_on_c, 0, 70, 73
2, 108660, Note_on_c, 0, 67, 73
2, 108701, Note_on_c, 0, 72, 0
2, 108701, Note_on_c, 0, 69, 0
2, 108720, Note_on_c, 0, 69, 73
2, 108720, Note_on_c, 0, 65, 73
2, 108761, Note_on_c, 0, 70, 0
2, 108761, Note_on_c, 0, 67, 0
2, 108840, Note_on_c, 0, 70, 65
2, 108840, Note_on_c, 0, 67, 65
2, 108876, Note_on_c, 0, 69, 0
2, 108876, Note_on_c, 0, 65, 0
2, 108960, Note_on_c, 0, 69, 65
2, 108960, Note_on_c, 0, 65, 65
2, 108996, Note_on_c, 0, 70, 0
2, 108996, Note_on_c, 0, 67, 0
2, 109440, Note_on_c, 0, 69, 0
2, 109440, Note_on_c, 0, 65, 0
2, 109440, Note_on_c, 0, 67, 76
2, 109440, Note_on_c, 0, 67, 76
2, 109920, Note_on_c, 0, 67, 0
2, 109920, Note_on_c, 0, 67, 0
2, 111360, Note_on_c, 0, 82, 74
2, 111360, Note_on_c, 0, 79, 74
2, 111840, Note_on_c, 0, 81, 65
2, 111840, Note_on_c, 0, 77, 65
2, 111880, Note_on_c, 0, 79, 0
2, 111880, Note_on_c, 0, 82, 0
2, 112240, Note_on_c, 0, 81, 0
2, 112240, Note_on_c, 0, 77, 0
2, 112320, Note_on_c, 0, 79, 74
2, 112320, Note_on_c, 0, 74, 74
2, 112680, Note_on_c, 0, 74, 0
2, 112680, Note_on_c, 0, 70, 79
2, 112800, Note_on_c, 0, 70, 0
2, 112800, Note_on_c, 0, 79, 0
2, 112800, Note_on_c, 0, 77, 79
2, 112800, Note_on_c, 0, 69, 79
2, 113280, Note_on_c, 0, 69, 0
2, 113280, Note_on_c, 0, 77, 0
2, 113280, Note_on_c, 0, 76, 77
2, 113280, Note_on_c, 0, 67, 77
2, 113760, Note_on_c, 0, 67, 0
2, 113760, Note_on_c, 0, 76, 0
2, 113760, Note_on_c, 0, 77, 76
2, 113760, Note_on_c, 0, 65, 76
2, 114240, Note_on_c, 0, 65, 0
2, 114240, Note_on_c, 0, 77, 0
2, 121440, Note_on_c, 0, 81, 79
2, 121440, Note_on_c, 0, 77, 79
2, 121920, Note_on_c, 0, 79, 77
2, 121920, Note_on_c, 0, 73, 77
2, 121960, Note_on_c, 0, 77, 0
2, 121960, Note_on_c, 0, 81, 0
2, 122360, Note_on_c, 0, 79, 0
2, 122360, Note_on_c, 0, 73, 0
2, 122400, Note_on_c, 0, 77, 74
2, 122400, Note_on_c, 0, 74, 74
2, 122880, Note_on_c, 0, 74, 0
2, 122880, Note_on_c, 0, 77, 0
2, 133200, Note_on_c, 0, 81, 78
2, 133200, Note_on_c, 0, 69, 78
2, 133440, Note_on_c, 0, 69, 0
2, 133440, Note_on_c, 0, 81, 0
2, 133440, Note_on_c, 0, 81, 77
2, 133440, Note_on_c, 0, 69, 77
2, 133680, Note_on_c, 0, 69, 0
2, 133680, Note_on_c, 0, 81, 0
2, 133680, Note_on_c, 0, 81, 76
2, 133680, Note_on_c, 0, 69, 76
2, 133920, Note_on_c, 0, 69, 0
2, 133920, Note_on_c, 0, 81, 0
2, 133920, Note_on_c, 0, 81, 75
2, 133920, Note_on_c, 0, 69, 75
2, 134400, Note_on_c, 0, 69, 0
2, 134400, Note_on_c, 0, 81, 0
2, 136800, Note_on_c, 0, 81, 75
2, 136800, Note_on_c, 0, 69, 75
2, 137280, Note_on_c, 0, 80, 75
2, 137280, Note_on_c, 0, 71, 75
2, 137320, Note_on_c, 0, 69, 0
2, 137320, Note_on_c, 0, 81, 0
2, 137760, Note_on_c, 0, 79, 75
2, 137760, Note_on_c, 0, 73, 75
2, 137800, Note_on_c, 0, 80, 0
2, 137800, Note_on_c, 0, 71, 0
2, 138200, Note_on_c, 0, 79, 0
2, 138200, Note_on_c, 0, 73, 0
2, 138240, Note_on_c, 0, 78, 75
2, 138240, Note_on_c, 0, 74, 75
2, 138720, Note_on_c, 0, 77, 75
2, 138760, Note_on_c, 0, 78, 0
2, 139200, Note_on_c, 0, 76, 75
2, 139200, Note_on_c, 0, 73, 75
2, 139240, Note_on_c, 0, 77, 0
2, 139240, Note_on_c, 0, 74, 0
2, 139640, Note_on_c, 0, 76, 0
2, 139640, Note_on_c, 0, 73, 0
2, 140130, Control_c, 0, 7, 86
2, 140130, Control_c, 0, 7, 86
2, 140158, Control_c, 0, 7, 87
2, 140158, Control_c, 0, 7, 87
2, 140160, Note_on_c, 0, 81, 101
2, 140160, Note_on_c, 0, 77, 101
2, 140190, Control_c, 0, 7, 86
2, 140190, Control_c, 0, 7, 86
2, 140210, Control_c, 0, 7, 84
2, 140210, Control_c, 0, 7, 84
2, 140218, Control_c, 0, 7, 83
2, 140218, Control_c, 0, 7, 83
2, 140230, Control_c, 0, 7, 81
2, 140230, Control_c, 0, 7, 81
2, 140238, Control_c, 0, 7, 79
2, 140238, Control_c, 0, 7, 79
2, 140250, Control_c, 0, 7, 78
2, 140250, Control_c, 0, 7, 78
2, 140258, Control_c, 0, 7, 76
2, 140258, Control_c, 0, 7, 76
2, 140278, Control_c, 0, 7, 74
2, 140278, Control_c, 0, 7, 74
2, 140298, Control_c, 0, 7, 72
2, 140298, Control_c, 0, 7, 72
2, 140330, Control_c, 0, 7, 71
2, 140330, Control_c, 0, 7, 71
2, 140350, Control_c, 0, 7, 69
2, 140350, Control_c, 0, 7, 69
2, 140402, Control_c, 0, 7, 68
2, 140402, Control_c, 0, 7, 68
2, 140640, Note_on_c, 0, 77, 100
2, 140640, Note_on_c, 0, 74, 100
2, 140680, Note_on_c, 0, 81, 0
2, 140720, Note_on_c, 0, 77, 0
2, 140880, Note_on_c, 0, 77, 0
2, 140880, Note_on_c, 0, 74, 0
2, 141334, Control_c, 0, 7, 86
2, 141334, Control_c, 0, 7, 86
2, 141570, Control_c, 0, 7, 86
2, 141570, Control_c, 0, 7, 86
2, 141590, Control_c, 0, 7, 85
2, 141590, Control_c, 0, 7, 85
2, 141600, Note_on_c, 0, 82, 100
2, 141600, Note_on_c, 0, 79, 100
2, 141610, Control_c, 0, 7, 83
2, 141610, Control_c, 0, 7, 83
2, 141630, Control_c, 0, 7, 80
2, 141630, Control_c, 0, 7, 80
2, 141642, Control_c, 0, 7, 76
2, 141642, Control_c, 0, 7, 76
2, 141650, Control_c, 0, 7, 74
2, 141650, Control_c, 0, 7, 74
2, 141658, Control_c, 0, 7, 73
2, 141658, Control_c, 0, 7, 73
2, 141670, Control_c, 0, 7, 71
2, 141670, Control_c, 0, 7, 71
2, 141678, Control_c, 0, 7, 70
2, 141678, Control_c, 0, 7, 70
2, 141694, Control_c, 0, 7, 68
2, 141694, Control_c, 0, 7, 68
2, 141718, Control_c, 0, 7, 67
2, 141718, Control_c, 0, 7, 67
2, 142080, Note_on_c, 0, 79, 101
2, 142080, Note_on_c, 0, 76, 101
2, 142120, Note_on_c, 0, 79, 0
2, 142120, Note_on_c, 0, 82, 0
2, 142320, Note_on_c, 0, 79, 0
2, 142320, Note_on_c, 0, 76, 0
2, 142774, Control_c, 0, 7, 86
2, 142774, Control_c, 0, 7, 86
2, 143014, Control_c, 0, 7, 85
2, 143014, Control_c, 0, 7, 85
2, 143040, Note_on_c, 0, 81, 100
2, 143040, Note_on_c, 0, 77, 100
2, 143090, Control_c, 0, 7, 84
2, 143090, Control_c, 0, 7, 84
2, 143106, Control_c, 0, 7, 83
2, 143106, Control_c, 0, 7, 83
2, 143130, Control_c, 0, 7, 79
2, 143130, Control_c, 0, 7, 79
2, 143134, Control_c, 0, 7, 78
2, 143134, Control_c, 0, 7, 78
2, 143146, Control_c, 0, 7, 76
2, 143146, Control_c, 0, 7, 76
2, 143158, Control_c, 0, 7, 74
2, 143158, Control_c, 0, 7, 74
2, 143170, Control_c, 0, 7, 72
2, 143170, Control_c, 0, 7, 72
2, 143174, Control_c, 0, 7, 71
2, 143174, Control_c, 0, 7, 71
2, 143190, Control_c, 0, 7, 70
2, 143190, Control_c, 0, 7, 70
2, 143202, Control_c, 0, 7, 68
2, 143202, Control_c, 0, 7, 68
2, 143520, Note_on_c, 0, 77, 96
2, 143520, Note_on_c, 0, 74, 96
2, 143560, Note_on_c, 0, 77, 0
2, 143560, Note_on_c, 0, 81, 0
2, 143760, Note_on_c, 0, 77, 0
2, 143760, Note_on_c, 0, 74, 0
2, 144210, Control_c, 0, 7, 85
2, 144210, Control_c, 0, 7, 85
2, 144450, Control_c, 0, 7, 86
2, 144450, Control_c, 0, 7, 86
2, 144480, Note_on_c, 0, 82, 100
2, 144480, Note_on_c, 0, 79, 100
2, 144506, Control_c, 0, 7, 85
2, 144506, Control_c, 0, 7, 85
2, 144522, Control_c, 0, 7, 83
2, 144522, Control_c, 0, 7, 83
2, 144534, Control_c, 0, 7, 81
2, 144534, Control_c, 0, 7, 81
2, 144546, Control_c, 0, 7, 78
2, 144546, Control_c, 0, 7, 78
2, 144550, Control_c, 0, 7, 76
2, 144550, Control_c, 0, 7, 76
2, 144562, Control_c, 0, 7, 74
2, 144562, Control_c, 0, 7, 74
2, 144574, Control_c, 0, 7, 73
2, 144574, Control_c, 0, 7, 73
2, 144586, Control_c, 0, 7, 71
2, 144586, Control_c, 0, 7, 71
2, 144598, Control_c, 0, 7, 69
2, 144598, Control_c, 0, 7, 69
2, 144602, Control_c, 0, 7, 67
2, 144602, Control_c, 0, 7, 67
2, 144626, Control_c, 0, 7, 66
2, 144626, Control_c, 0, 7, 66
2, 144960, Note_on_c, 0, 79, 100
2, 144960, Note_on_c, 0, 76, 100
2, 145000, Note_on_c, 0, 79, 0
2, 145000, Note_on_c, 0, 82, 0
2, 145200, Note_on_c, 0, 79, 0
2, 145200, Note_on_c, 0, 76, 0
2, 145530, Control_c, 0, 7, 86
2, 145530, Control_c, 0, 7, 86
2, 152640, Note_on_c, 0, 76, 88
2, 152640, Note_on_c, 0, 73, 88
2, 154560, Note_on_c, 0, 73, 0
2, 154560, Note_on_c, 0, 76, 0
2, 154560, Note_on_c, 0, 76, 88
2, 154560, Note_on_c, 0, 73, 88
2, 155040, Note_on_c, 0, 73, 0
2, 155040, Note_on_c, 0, 76, 0
2, 155040, Note_on_c, 0, 76, 88
2, 155040, Note_on_c, 0, 73, 88
2, 155520, Note_on_c, 0, 73, 0
2, 155520, Note_on_c, 0, 76, 0
2, 155520, Note_on_c, 0, 76, 88
2, 155520, Note_on_c, 0, 73, 88
2, 156000, Note_on_c, 0, 73, 0
2, 156000, Note_on_c, 0, 76, 0
2, 180000, Note_on_c, 0, 72, 69
2, 180000, Note_on_c, 0, 69, 69
2, 180639, Note_on_c, 0, 74, 80
2, 180639, Note_on_c, 0, 70, 80
2, 180680, Note_on_c, 0, 69, 0
2, 180680, Note_on_c, 0, 72, 0
2, 180800, Note_on_c, 0, 76, 80
2, 180800, Note_on_c, 0, 67, 80
2, 180839, Note_on_c, 0, 74, 0
2, 180839, Note_on_c, 0, 70, 0
2, 180920, Note_on_c, 0, 76, 0
2, 180920, Note_on_c, 0, 67, 0
2, 180960, Note_on_c, 0, 77, 80
2, 180960, Note_on_c, 0, 69, 80
2, 181119, Note_on_c, 0, 79, 80
2, 181119, Note_on_c, 0, 76, 80
2, 181160, Note_on_c, 0, 69, 0
2, 181160, Note_on_c, 0, 77, 0
2, 181280, Note_on_c, 0, 81, 80
2, 181280, Note_on_c, 0, 77, 80
2, 181319, Note_on_c, 0, 79, 0
2, 181319, Note_on_c, 0, 76, 0
2, 181400, Note_on_c, 0, 81, 0
2, 181400, Note_on_c, 0, 77, 0
2, 181440, Note_on_c, 0, 82, 80
2, 181440, Note_on_c, 0, 79, 80
2, 182400, Note_on_c, 0, 79, 0
2, 182400, Note_on_c, 0, 82, 0
2, 182400, Note_on_c, 0, 81, 80
2, 182400, Note_on_c, 0, 77, 80
2, 182880, Note_on_c, 0, 77, 0
2, 182880, Note_on_c, 0, 81, 0
2, 185760, Note_on_c, 0, 82, 79
2, 185760, Note_on_c, 0, 74, 79
2, 187160, Note_on_c, 0, 74, 0
2, 187160, Note_on_c, 0, 82, 0
2, 187200, Note_on_c, 0, 84, 79
2, 187200, Note_on_c, 0, 72, 79
2, 187440, Note_on_c, 0, 83, 79
2, 187440, Note_on_c, 0, 71, 79
2, 187480, Note_on_c, 0, 72, 0
2, 187480, Note_on_c, 0, 84, 0
2, 187520, Note_on_c, 0, 71, 0
2, 187536, Note_on_c, 0, 83, 0
2, 187680, Note_on_c, 0, 82, 79
2, 187680, Note_on_c, 0, 70, 79
2, 188160, Note_on_c, 0, 81, 79
2, 188160, Note_on_c, 0, 69, 79
2, 188200, Note_on_c, 0, 70, 0
2, 188200, Note_on_c, 0, 82, 0
2, 188560, Note_on_c, 0, 81, 0
2, 188560, Note_on_c, 0, 69, 0
2, 188640, Note_on_c, 0, 79, 79
2, 188640, Note_on_c, 0, 74, 79
2, 189000, Note_on_c, 0, 74, 0
2, 189000, Note_on_c, 0, 70, 79
2, 189120, Note_on_c, 0, 70, 0
2, 189120, Note_on_c, 0, 79, 0
2, 189120, Note_on_c, 0, 77, 79
2, 189120, Note_on_c, 0, 69, 79
2, 189600, Note_on_c, 0, 69, 0
2, 189600, Note_on_c, 0, 77, 0
2, 189600, Note_on_c, 0, 76, 79
2, 189600, Note_on_c, 0, 67, 79
2, 190080, Note_on_c, 0, 67, 0
2, 190080, Note_on_c, 0, 76, 0
2, 190080, Note_on_c, 0, 77, 79
2, 190080, Note_on_c, 0, 69, 79
2, 190560, Note_on_c, 0, 69, 0
2, 190560, Note_on_c, 0, 77, 0
2, 190560, Note_on_c, 0, 79, 79
2, 190560, Note_on_c, 0, 70, 79
2, 191040, Note_on_c, 0, 70, 0
2, 191040, Note_on_c, 0, 79, 0
2, 191040, Note_on_c, 0, 81, 79
2, 191040, Note_on_c, 0, 72, 79
2, 191520, Note_on_c, 0, 72, 0
2, 191520, Note_on_c, 0, 81, 0
2, 191520, Note_on_c, 0, 82, 79
2, 191520, Note_on_c, 0, 74, 79
2, 191551, Note_on_c, 0, 74, 0
2, 191583, Note_on_c, 0, 82, 0
2, 191679, Note_on_c, 0, 81, 79
2, 191679, Note_on_c, 0, 75, 79
2, 191711, Note_on_c, 0, 75, 0
2, 191744, Note_on_c, 0, 81, 0
2, 191840, Note_on_c, 0, 82, 79
2, 191840, Note_on_c, 0, 74, 79
2, 191872, Note_on_c, 0, 74, 0
2, 191903, Note_on_c, 0, 82, 0
2, 192000, Note_on_c, 0, 75, 79
2, 192000, Note_on_c, 0, 72, 79
2, 192480, Note_on_c, 0, 72, 0
2, 192480, Note_on_c, 0, 75, 0
2, 194400, Note_on_c, 0, 79, 77
2, 194400, Note_on_c, 0, 75, 77
2, 194880, Note_on_c, 0, 77, 73
2, 194880, Note_on_c, 0, 74, 73
2, 194920, Note_on_c, 0, 75, 0
2, 194920, Note_on_c, 0, 79, 0
2, 195360, Note_on_c, 0, 75, 64
2, 195360, Note_on_c, 0, 72, 64
2, 195400, Note_on_c, 0, 77, 0
2, 195400, Note_on_c, 0, 74, 0
2, 195800, Note_on_c, 0, 75, 0
2, 195800, Note_on_c, 0, 72, 0
2, 195840, Note_on_c, 0, 74, 56
2, 195840, Note_on_c, 0, 70, 56
2, 196320, Note_on_c, 0, 70, 0
2, 196320, Note_on_c, 0, 74, 0
2, 197280, Note_on_c, 0, 77, 64
2, 200600, Note_on_c, 0, 77, 0
2, 200640, Note_on_c, 0, 72, 68
2, 200640, Note_on_c, 0, 69, 68
2, 201120, Note_on_c, 0, 77, 68
2, 201120, Note_on_c, 0, 65, 68
2, 201160, Note_on_c, 0, 69, 0
2, 201160, Note_on_c, 0, 72, 0
2, 201560, Note_on_c, 0, 77, 0
2, 201560, Note_on_c, 0, 65, 0
2, 205920, Note_on_c, 0, 77, 66
2, 205920, Note_on_c, 0, 69, 66
2, 206400, Note_on_c, 0, 76, 66
2, 206400, Note_on_c, 0, 70, 66
2, 206440, Note_on_c, 0, 69, 0
2, 206440, Note_on_c, 0, 77, 0
2, 206880, Note_on_c, 0, 75, 66
2, 206880, Note_on_c, 0, 72, 66
2, 206920, Note_on_c, 0, 76, 0
2, 206920, Note_on_c, 0, 70, 0
2, 207320, Note_on_c, 0, 75, 0
2, 207320, Note_on_c, 0, 72, 0
2, 207360, Note_on_c, 0, 74, 66
2, 207360, Note_on_c, 0, 70, 66
2, 207840, Note_on_c, 0, 70, 0
2, 207840, Note_on_c, 0, 74, 0
2, 208800, Note_on_c, 0, 77, 66
2, 212120, Note_on_c, 0, 77, 0
2, 212160, Note_on_c, 0, 72, 66
2, 212160, Note_on_c, 0, 69, 66
2, 212640, Note_on_c, 0, 77, 66
2, 212640, Note_on_c, 0, 65, 66
2, 212680, Note_on_c, 0, 69, 0
2, 212680, Note_on_c, 0, 72, 0
2, 213120, Note_on_c, 0, 77, 0
2, 213120, Note_on_c, 0, 65, 0
2, 222240, Note_on_c, 0, 77, 88
2, 222240, Note_on_c, 0, 74, 88
2, 222720, Note_on_c, 0, 81, 88
2, 222720, Note_on_c, 0, 75, 88
2, 222760, Note_on_c, 0, 74, 0
2, 222760, Note_on_c, 0, 77, 0
2, 223160, Note_on_c, 0, 81, 0
2, 223160, Note_on_c, 0, 75, 0
2, 223200, Note_on_c, 0, 82, 88
2, 223200, Note_on_c, 0, 74, 88
2, 223680, Note_on_c, 0, 74, 0
2, 223680, Note_on_c, 0, 82, 0
2, 223680, Note_on_c, 0, 70, 88
2, 223680, Note_on_c, 0, 62, 88
2, 224160, Note_on_c, 0, 62, 0
2, 224160, Note_on_c, 0, 70, 0
2, 267840, Note_on_c, 0, 72, 75
2, 267840, Note_on_c, 0, 69, 75
2, 270720, Note_on_c, 0, 69, 0
2, 270720, Note_on_c, 0, 72, 0
2, 270720, Note_on_c, 0, 74, 75
2, 270720, Note_on_c, 0, 70, 75
2, 272160, Note_on_c, 0, 70, 0
2, 272160, Note_on_c, 0, 74, 0
2, 272160, Note_on_c, 0, 82, 75
2, 272160, Note_on_c, 0, 76, 75
2, 273600, Note_on_c, 0, 76, 0
2, 273600, Note_on_c, 0, 82, 0
2, 273600, Note_on_c, 0, 81, 75
2, 273600, Note_on_c, 0, 77, 75
2, 274080, Note_on_c, 0, 77, 0
2, 274080, Note_on_c, 0, 81, 0
2, 285120, Note_on_c, 0, 72, 75
2, 285120, Note_on_c, 0, 69, 75
2, 285600, Note_on_c, 0, 77, 75
2, 285600, Note_on_c, 0, 72, 75
2, 285640, Note_on_c, 0, 69, 0
2, 285680, Note_on_c, 0, 72, 0
2, 286080, Note_on_c, 0, 81, 75
2, 286080, Note_on_c, 0, 77, 75
2, 286120, Note_on_c, 0, 77, 0
2, 286120, Note_on_c, 0, 72, 0
2, 286480, Note_on_c, 0, 81, 0
2, 286480, Note_on_c, 0, 77, 0
2, 286560, Note_on_c, 0, 82, 75
2, 286560, Note_on_c, 0, 74, 75
2, 287520, Note_on_c, 0, 79, 75
2, 287520, Note_on_c, 0, 76, 75
2, 287560, Note_on_c, 0, 74, 0
2, 287560, Note_on_c, 0, 82, 0
2, 287920, Note_on_c, 0, 79, 0
2, 287920, Note_on_c, 0, 76, 0
2, 288000, Note_on_c, 0, 84, 75
2, 288000, Note_on_c, 0, 72, 75
2, 288960, Note_on_c, 0, 81, 75
2, 288960, Note_on_c, 0, 77, 75
2, 289000, Note_on_c, 0, 72, 0
2, 289000, Note_on_c, 0, 84, 0
2, 289400, Note_on_c, 0, 81, 0
2, 289400, Note_on_c, 0, 77, 0
2, 289440, Note_on_c, 0, 82, 75
2, 289440, Note_on_c, 0, 74, 75
2, 290400, Note_on_c, 0, 79, 75
2, 290400, Note_on_c, 0, 76, 75
2, 290440, Note_on_c, 0, 74, 0
2, 290440, Note_on_c, 0, 82, 0
2, 290840, Note_on_c, 0, 79, 0
2, 290840, Note_on_c, 0, 76, 0
2, 290880, Note_on_c, 0, 77, 75
2, 291360, Note_on_c, 0, 77, 0
2, 292320, Note_on_c, 0, 77, 88
2, 292320, Note_on_c, 0, 69, 88
2, 292800, Note_on_c, 0, 69, 0
2, 292800, Note_on_c, 0, 77, 0
2, 292800, Note_on_c, 0, 77, 88
2, 292800, Note_on_c, 0, 69, 88
2, 293280, Note_on_c, 0, 69, 0
2, 293280, Note_on_c, 0, 77, 0
2, 293280, Note_on_c, 0, 77, 88
2, 293280, Note_on_c, 0, 69, 88
2, 293760, Note_on_c, 0, 69, 0
2, 293760, Note_on_c, 0, 77, 0
2, 293760, Note_on_c, 0, 77, 88
2, 293760, Note_on_c, 0, 69, 88
2, 294240, Note_on_c, 0, 69, 0
2, 294240, Note_on_c, 0, 77, 0
2, 321120, Note_on_c, 0, 84, 76
2, 321120, Note_on_c, 0, 72, 76
2, 322080, Note_on_c, 0, 72, 0
2, 322080, Note_on_c, 0, 84, 0
2, 322080, Note_on_c, 0, 81, 82
2, 322080, Note_on_c, 0, 77, 82
2, 322560, Note_on_c, 0, 77, 0
2, 322560, Note_on_c, 0, 81, 0
2, 322560, Note_on_c, 0, 82, 81
2, 322560, Note_on_c, 0, 76, 81
2, 323040, Note_on_c, 0, 76, 0
2, 323040, Note_on_c, 0, 82, 0
2, 323040, Note_on_c, 0, 76, 81
2, 323040, Note_on_c, 0, 70, 81
2, 323520, Note_on_c, 0, 70, 0
2, 323520, Note_on_c, 0, 76, 0
2, 323520, Note_on_c, 0, 77, 80
2, 323520, Note_on_c, 0, 69, 80
2, 324000, Note_on_c, 0, 69, 0
2, 324000, Note_on_c, 0, 77, 0
2, 324000, Note_on_c, 0, 79, 80
2, 324000, Note_on_c, 0, 70, 80
2, 324240, Note_on_c, 0, 70, 80
2, 324240, Note_on_c, 0, 67, 80
2, 324280, Note_on_c, 0, 70, 0
2, 324330, Note_on_c, 0, 79, 0
2, 324440, Note_on_c, 0, 70, 0
2, 324440, Note_on_c, 0, 67, 0
2, 324480, Note_on_c, 0, 70, 79
2, 324480, Note_on_c, 0, 67, 79
2, 325200, Note_on_c, 0, 67, 0
2, 325200, Note_on_c, 0, 70, 0
2, 325200, Note_on_c, 0, 74, 79
2, 325200, Note_on_c, 0, 70, 79
2, 325440, Note_on_c, 0, 70, 0
2, 325440, Note_on_c, 0, 74, 0
2, 325440, Note_on_c, 0, 72, 79
2, 325440, Note_on_c, 0, 69, 79
2, 325920, Note_on_c, 0, 69, 0
2, 325920, Note_on_c, 0, 72, 0
2, 325920, Note_on_c, 0, 72, 74
2, 325920, Note_on_c, 0, 69, 74
2, 325980, Note_on_c, 0, 70, 78
2, 325980, Note_on_c, 0, 67, 78
2, 326021, Note_on_c, 0, 69, 0
2, 326021, Note_on_c, 0, 72, 0
2, 326040, Note_on_c, 0, 72, 87
2, 326040, Note_on_c, 0, 69, 87
2, 326081, Note_on_c, 0, 70, 0
2, 326081, Note_on_c, 0, 67, 0
2, 326100, Note_on_c, 0, 70, 86
2, 326100, Note_on_c, 0, 67, 86
2, 326141, Note_on_c, 0, 72, 0
2, 326141, Note_on_c, 0, 69, 0
2, 326160, Note_on_c, 0, 69, 78
2, 326160, Note_on_c, 0, 65, 78
2, 326201, Note_on_c, 0, 70, 0
2, 326201, Note_on_c, 0, 67, 0
2, 326280, Note_on_c, 0, 70, 69
2, 326280, Note_on_c, 0, 67, 69
2, 326316, Note_on_c, 0, 69, 0
2, 326316, Note_on_c, 0, 65, 0
2, 326384, Note_on_c, 0, 70, 0
2, 326384, Note_on_c, 0, 67, 0
2, 326400, Note_on_c, 0, 69, 78
2, 326400, Note_on_c, 0, 65, 78
2, 326880, Note_on_c, 0, 65, 0
2, 326880, Note_on_c, 0, 69, 0
2, 326880, Note_on_c, 0, 67, 81
2, 327360, Note_on_c, 0, 67, 0
2, 328800, Note_on_c, 0, 82, 88
2, 328800, Note_on_c, 0, 79, 88
2, 329280, Note_on_c, 0, 81, 88
2, 329280, Note_on_c, 0, 77, 88
2, 329320, Note_on_c, 0, 79, 0
2, 329320, Note_on_c, 0, 82, 0
2, 329720, Note_on_c, 0, 81, 0
2, 329720, Note_on_c, 0, 77, 0
2, 329760, Note_on_c, 0, 79, 88
2, 330240, Note_on_c, 0, 79, 0
2, 331200, Note_on_c, 0, 84, 88
2, 331200, Note_on_c, 0, 72, 88
2, 331440, Note_on_c, 0, 83, 88
2, 331440, Note_on_c, 0, 71, 88
2, 331480, Note_on_c, 0, 72, 0
2, 331480, Note_on_c, 0, 84, 0
2, 331600, Note_on_c, 0, 83, 0
2, 331600, Note_on_c, 0, 71, 0
2, 331680, Note_on_c, 0, 82, 88
2, 331680, Note_on_c, 0, 70, 88
2, 332160, Note_on_c, 0, 70, 0
2, 332160, Note_on_c, 0, 82, 0
2, 332160, Note_on_c, 0, 81, 88
2, 332160, Note_on_c, 0, 69, 88
2, 332640, Note_on_c, 0, 69, 0
2, 332640, Note_on_c, 0, 81, 0
2, 332640, Note_on_c, 0, 79, 88
2, 332640, Note_on_c, 0, 74, 88
2, 333000, Note_on_c, 0, 74, 0
2, 333000, Note_on_c, 0, 70, 88
2, 333120, Note_on_c, 0, 70, 0
2, 333120, Note_on_c, 0, 79, 0
2, 333120, Note_on_c, 0, 77, 88
2, 333120, Note_on_c, 0, 69, 88
2, 333600, Note_on_c, 0, 69, 0
2, 333600, Note_on_c, 0, 77, 0
2, 333600, Note_on_c, 0, 76, 88
2, 333600, Note_on_c, 0, 67, 88
2, 334080, Note_on_c, 0, 67, 0
2, 334080, Note_on_c, 0, 76, 0
2, 334080, Note_on_c, 0, 77, 88
2, 334080, Note_on_c, 0, 69, 88
2, 334560, Note_on_c, 0, 69, 0
2, 334560, Note_on_c, 0, 77, 0
2, 334560, Note_on_c, 0, 84, 88
2, 334560, Note_on_c, 0, 72, 88
2, 336000, Note_on_c, 0, 72, 0
2, 336000, Note_on_c, 0, 84, 0
2, 336000, Note_on_c, 0, 81, 88
2, 336000, Note_on_c, 0, 77, 88
2, 336480, Note_on_c, 0, 77, 0
2, 336480, Note_on_c, 0, 81, 0
2, 336480, Note_on_c, 0, 79, 88
2, 336480, Note_on_c, 0, 76, 88
2, 336960, Note_on_c, 0, 76, 0
2, 336960, Note_on_c, 0, 79, 0
2, 336960, Note_on_c, 0, 77, 88
2, 337440, Note_on_c, 0, 77, 0
2, 337440, Note_on_c, 0, 65, 88
2, 337920, Note_on_c, 0, 65, 0
2, 337920, End_track
3, 0, Start_track
3, 0, Title_t, "Corni in F"
3, 0, Control_c, 2, 0, 0
3, 0, Control_c, 2, 7, 100
3, 0, Control_c, 2, 10, 75
3, 0, Control_c, 2, 91, 76
3, 0, Control_c, 2, 93, 76
3, 1, Control_c, 2, 32, 1
3, 2, Program_c, 2, 60
3, 11520, Note_on_c, 2, 57, 88
3, 11520, Note_on_c, 2, 65, 88
3, 12480, Note_on_c, 2, 65, 0
3, 12480, Note_on_c, 2, 57, 0
3, 12480, Note_on_c, 2, 65, 88
3, 12480, Note_on_c, 2, 69, 88
3, 12960, Note_on_c, 2, 69, 0
3, 12960, Note_on_c, 2, 65, 0
3, 12960, Note_on_c, 2, 60, 88
3, 12960, Note_on_c, 2, 67, 88
3, 13440, Note_on_c, 2, 67, 0
3, 13440, Note_on_c, 2, 60, 0
3, 13440, Note_on_c, 2, 67, 88
3, 13440, Note_on_c, 2, 70, 88
3, 13920, Note_on_c, 2, 70, 0
3, 13920, Note_on_c, 2, 67, 0
3, 13920, Note_on_c, 2, 65, 88
3, 13920, Note_on_c, 2, 69, 88
3, 14400, Note_on_c, 2, 69, 0
3, 14400, Note_on_c, 2, 65, 0
3, 14880, Note_on_c, 2, 67, 88
3, 15360, Note_on_c, 2, 67, 0
3, 15360, Note_on_c, 2, 67, 88
3, 15840, Note_on_c, 2, 67, 0
3, 15840, Note_on_c, 2, 60, 88
3, 15840, Note_on_c, 2, 72, 88
3, 16320, Note_on_c, 2, 70, 88
3, 16372, Note_on_c, 2, 72, 0
3, 16800, Note_on_c, 2, 70, 0
3, 16800, Note_on_c, 2, 60, 0
3, 16800, Note_on_c, 2, 65, 88
3, 16800, Note_on_c, 2, 69, 88
3, 17280, Note_on_c, 2, 69, 0
3, 17280, Note_on_c, 2, 65, 0
3, 17280, Note_on_c, 2, 67, 88
3, 17760, Note_on_c, 2, 67, 0
3, 19200, Note_on_c, 2, 60, 88
3, 19200, Note_on_c, 2, 67, 88
3, 19680, Note_on_c, 2, 67, 0
3, 19680, Note_on_c, 2, 60, 0
3, 19680, Note_on_c, 2, 65, 88
3, 19680, Note_on_c, 2, 69, 88
3, 20160, Note_on_c, 2, 69, 0
3, 20160, Note_on_c, 2, 65, 0
3, 20160, Note_on_c, 2, 67, 88
3, 20160, Note_on_c, 2, 70, 88
3, 20640, Note_on_c, 2, 70, 0
3, 20640, Note_on_c, 2, 67, 0
3, 20640, Note_on_c, 2, 65, 88
3, 20640, Note_on_c, 2, 69, 88
3, 21120, Note_on_c, 2, 69, 0
3, 21120, Note_on_c, 2, 65, 0
3, 21120, Note_on_c, 2, 60, 88
3, 21120, Note_on_c, 2, 67, 88
3, 21600, Note_on_c, 2, 67, 0
3, 21600, Note_on_c, 2, 60, 0
3, 21600, Note_on_c, 2, 57, 88
3, 21600, Note_on_c, 2, 65, 88
3, 22080, Note_on_c, 2, 65, 0
3, 22080, Note_on_c, 2, 57, 0
3, 29280, Note_on_c, 2, 65, 88
3, 29280, Note_on_c, 2, 69, 88
3, 29760, Note_on_c, 2, 69, 0
3, 29760, Note_on_c, 2, 65, 0
3, 29760, Note_on_c, 2, 60, 88
3, 29760, Note_on_c, 2, 67, 88
3, 30240, Note_on_c, 2, 67, 0
3, 30240, Note_on_c, 2, 60, 0
3, 30240, Note_on_c, 2, 57, 88
3, 30240, Note_on_c, 2, 65, 88
3, 30720, Note_on_c, 2, 65, 0
3, 30720, Note_on_c, 2, 57, 0
3, 30720, Note_on_c, 2, 53, 88
3, 30720, Note_on_c, 2, 65, 88
3, 31200, Note_on_c, 2, 65, 0
3, 31200, Note_on_c, 2, 53, 0
3, 74880, Note_on_c, 2, 48, 75
3, 74880, Note_on_c, 2, 60, 75
3, 79200, Note_on_c, 2, 60, 0
3, 79200, Note_on_c, 2, 48, 0
3, 79200, Note_on_c, 2, 48, 75
3, 79200, Note_on_c, 2, 60, 75
3, 80640, Note_on_c, 2, 60, 0
3, 80640, Note_on_c, 2, 48, 0
3, 80640, Note_on_c, 2, 48, 75
3, 80640, Note_on_c, 2, 60, 75
3, 81120, Note_on_c, 2, 60, 0
3, 81120, Note_on_c, 2, 48, 0
3, 82080, Note_on_c, 2, 60, 88
3, 82080, Note_on_c, 2, 67, 88
3, 82280, Note_on_c, 2, 67, 0
3, 82280, Note_on_c, 2, 60, 0
3, 82560, Note_on_c, 2, 60, 88
3, 82560, Note_on_c, 2, 67, 88
3, 82756, Note_on_c, 2, 67, 0
3, 82760, Note_on_c, 2, 60, 0
3, 83040, Note_on_c, 2, 60, 88
3, 83040, Note_on_c, 2, 67, 88
3, 83248, Note_on_c, 2, 60, 0
3, 83252, Note_on_c, 2, 67, 0
3, 83520, Note_on_c, 2, 60, 88
3, 83520, Note_on_c, 2, 67, 88
3, 84000, Note_on_c, 2, 67, 0
3, 84000, Note_on_c, 2, 60, 0
3, 103680, Note_on_c, 2, 57, 88
3, 103680, Note_on_c, 2, 65, 88
3, 104640, Note_on_c, 2, 65, 0
3, 104640, Note_on_c, 2, 57, 0
3, 104640, Note_on_c, 2, 65, 88
3, 104640, Note_on_c, 2, 69, 88
3, 105120, Note_on_c, 2, 69, 0
3, 105120, Note_on_c, 2, 65, 0
3, 105120, Note_on_c, 2, 60, 88
3, 105120, Note_on_c, 2, 67, 88
3, 105600, Note_on_c, 2, 67, 0
3, 105600, Note_on_c, 2, 60, 0
3, 105600, Note_on_c, 2, 67, 88
3, 105600, Note_on_c, 2, 70, 88
3, 106080, Note_on_c, 2, 70, 0
3, 106080, Note_on_c, 2, 67, 0
3, 106080, Note_on_c, 2, 65, 88
3, 106080, Note_on_c, 2, 69, 88
3, 106560, Note_on_c, 2, 69, 0
3, 106560, Note_on_c, 2, 65, 0
3, 107040, Note_on_c, 2, 67, 88
3, 107520, Note_on_c, 2, 67, 0
3, 107520, Note_on_c, 2, 67, 88
3, 108000, Note_on_c, 2, 67, 0
3, 108000, Note_on_c, 2, 60, 88
3, 108000, Note_on_c, 2, 72, 88
3, 108480, Note_on_c, 2, 72, 0
3, 108480, Note_on_c, 2, 70, 88
3, 108960, Note_on_c, 2, 60, 0
3, 108960, Note_on_c, 2, 65, 88
3, 108960, Note_on_c, 2, 69, 88
3, 109010, Note_on_c, 2, 70, 0
3, 109440, Note_on_c, 2, 69, 0
3, 109440, Note_on_c, 2, 65, 0
3, 109440, Note_on_c, 2, 67, 88
3, 109920, Note_on_c, 2, 67, 0
3, 111360, Note_on_c, 2, 60, 88
3, 111360, Note_on_c, 2, 67, 88
3, 111840, Note_on_c, 2, 67, 0
3, 111840, Note_on_c, 2, 60, 0
3, 111840, Note_on_c, 2, 65, 88
3, 111840, Note_on_c, 2, 69, 88
3, 112320, Note_on_c, 2, 69, 0
3, 112320, Note_on_c, 2, 65, 0
3, 112320, Note_on_c, 2, 67, 88
3, 112320, Note_on_c, 2, 70, 88
3, 112800, Note_on_c, 2, 70, 0
3, 112800, Note_on_c, 2, 67, 0
3, 112800, Note_on_c, 2, 65, 88
3, 112800, Note_on_c, 2, 69, 88
3, 113280, Note_on_c, 2, 69, 0
3, 113280, Note_on_c, 2, 65, 0
3, 113280, Note_on_c, 2, 60, 88
3, 113280, Note_on_c, 2, 67, 88
3, 113760, Note_on_c, 2, 67, 0
3, 113760, Note_on_c, 2, 60, 0
3, 113760, Note_on_c, 2, 57, 88
3, 113760, Note_on_c, 2, 65, 88
3, 114240, Note_on_c, 2, 65, 0
3, 114240, Note_on_c, 2, 57, 0
3, 121440, Note_on_c, 2, 57, 88
3, 121440, Note_on_c, 2, 65, 88
3, 121920, Note_on_c, 2, 65, 0
3, 121920, Note_on_c, 2, 57, 0
3, 121920, Note_on_c, 2, 57, 88
3, 121920, Note_on_c, 2, 69, 88
3, 122400, Note_on_c, 2, 69, 0
3, 122400, Note_on_c, 2, 57, 0
3, 122400, Note_on_c, 2, 57, 88
3, 122400, Note_on_c, 2, 69, 88
3, 122880, Note_on_c, 2, 69, 0
3, 122880, Note_on_c, 2, 57, 0
3, 133200, Note_on_c, 2, 57, 88
3, 133200, Note_on_c, 2, 69, 88
3, 133440, Note_on_c, 2, 69, 0
3, 133440, Note_on_c, 2, 57, 0
3, 133440, Note_on_c, 2, 57, 88
3, 133440, Note_on_c, 2, 69, 88
3, 133680, Note_on_c, 2, 69, 0
3, 133680, Note_on_c, 2, 57, 0
3, 133680, Note_on_c, 2, 57, 88
3, 133680, Note_on_c, 2, 69, 88
3, 133920, Note_on_c, 2, 69, 0
3, 133920, Note_on_c, 2, 57, 0
3, 133920, Note_on_c, 2, 57, 88
3, 133920, Note_on_c, 2, 69, 88
3, 134400, Note_on_c, 2, 69, 0
3, 134400, Note_on_c, 2, 57, 0
3, 136800, Note_on_c, 2, 57, 75
3, 139680, Note_on_c, 2, 57, 0
3, 152640, Note_on_c, 2, 57, 88
3, 152640, Note_on_c, 2, 69, 88
3, 154560, Note_on_c, 2, 69, 0
3, 154560, Note_on_c, 2, 57, 0
3, 154560, Note_on_c, 2, 57, 88
3, 154560, Note_on_c, 2, 69, 88
3, 155040, Note_on_c, 2, 69, 0
3, 155040, Note_on_c, 2, 57, 0
3, 155040, Note_on_c, 2, 57, 88
3, 155040, Note_on_c, 2, 69, 88
3, 155520, Note_on_c, 2, 69, 0
3, 155520, Note_on_c, 2, 57, 0
3, 155520, Note_on_c, 2, 57, 88
3, 155520, Note_on_c, 2, 69, 88
3, 156000, Note_on_c, 2, 69, 0
3, 156000, Note_on_c, 2, 57, 0
3, 180000, Note_on_c, 2, 65, 73
3, 180480, Note_on_c, 2, 65, 0
3, 180480, Note_on_c, 2, 53, 88
3, 180960, Note_on_c, 2, 53, 0
3, 181440, Note_on_c, 2, 60, 88
3, 181440, Note_on_c, 2, 67, 88
3, 181920, Note_on_c, 2, 67, 0
3, 181920, Note_on_c, 2, 60, 0
3, 181920, Note_on_c, 2, 67, 88
3, 181920, Note_on_c, 2, 70, 88
3, 182400, Note_on_c, 2, 70, 0
3, 182400, Note_on_c, 2, 67, 0
3, 182400, Note_on_c, 2, 65, 88
3, 182400, Note_on_c, 2, 69, 88
3, 182880, Note_on_c, 2, 69, 0
3, 182880, Note_on_c, 2, 65, 0
3, 185760, Note_on_c, 2, 67, 88
3, 187200, Note_on_c, 2, 67, 0
3, 187200, Note_on_c, 2, 60, 88
3, 187680, Note_on_c, 2, 60, 0
3, 187680, Note_on_c, 2, 60, 88
3, 188160, Note_on_c, 2, 60, 0
3, 188160, Note_on_c, 2, 60, 88
3, 188640, Note_on_c, 2, 60, 0
3, 188640, Note_on_c, 2, 67, 88
3, 188640, Note_on_c, 2, 70, 88
3, 189120, Note_on_c, 2, 70, 0
3, 189120, Note_on_c, 2, 67, 0
3, 189120, Note_on_c, 2, 65, 88
3, 189120, Note_on_c, 2, 69, 88
3, 189600, Note_on_c, 2, 69, 0
3, 189600, Note_on_c, 2, 65, 0
3, 189600, Note_on_c, 2, 60, 88
3, 189600, Note_on_c, 2, 67, 88
3, 190080, Note_on_c, 2, 67, 0
3, 190080, Note_on_c, 2, 60, 0
3, 190080, Note_on_c, 2, 57, 88
3, 190080, Note_on_c, 2, 65, 88
3, 190560, Note_on_c, 2, 65, 0
3, 190560, Note_on_c, 2, 57, 0
3, 190560, Note_on_c, 2, 60, 88
3, 190560, Note_on_c, 2, 67, 88
3, 191040, Note_on_c, 2, 67, 0
3, 191040, Note_on_c, 2, 60, 0
3, 191040, Note_on_c, 2, 65, 88
3, 191040, Note_on_c, 2, 69, 88
3, 191520, Note_on_c, 2, 69, 0
3, 191520, Note_on_c, 2, 65, 0
3, 191520, Note_on_c, 2, 53, 88
3, 191520, Note_on_c, 2, 65, 88
3, 191551, Note_on_c, 2, 53, 0
3, 191583, Note_on_c, 2, 65, 0
3, 191679, Note_on_c, 2, 53, 88
3, 191679, Note_on_c, 2, 65, 88
3, 191711, Note_on_c, 2, 53, 0
3, 191744, Note_on_c, 2, 65, 0
3, 191840, Note_on_c, 2, 53, 88
3, 191840, Note_on_c, 2, 65, 88
3, 191872, Note_on_c, 2, 53, 0
3, 191903, Note_on_c, 2, 65, 0
3, 192000, Note_on_c, 2, 53, 88
3, 192000, Note_on_c, 2, 65, 88
3, 192480, Note_on_c, 2, 65, 0
3, 192480, Note_on_c, 2, 53, 0
3, 205920, Note_on_c, 2, 53, 65
3, 205920, Note_on_c, 2, 65, 65
3, 206400, Note_on_c, 2, 67, 65
3, 206452, Note_on_c, 2, 65, 0
3, 206880, Note_on_c, 2, 69, 65
3, 206920, Note_on_c, 2, 67, 0
3, 207360, Note_on_c, 2, 69, 0
3, 207360, Note_on_c, 2, 65, 65
3, 207840, Note_on_c, 2, 65, 0
3, 207840, Note_on_c, 2, 53, 0
3, 208800, Note_on_c, 2, 65, 65
3, 212160, Note_on_c, 2, 65, 0
3, 212160, Note_on_c, 2, 57, 65
3, 212160, Note_on_c, 2, 60, 65
3, 212640, Note_on_c, 2, 60, 0
3, 212640, Note_on_c, 2, 57, 0
3, 212640, Note_on_c, 2, 53, 65
3, 212640, Note_on_c, 2, 65, 65
3, 213120, Note_on_c, 2, 65, 0
3, 213120, Note_on_c, 2, 53, 0
3, 222240, Note_on_c, 2, 53, 88
3, 222240, Note_on_c, 2, 65, 88
3, 222720, Note_on_c, 2, 65, 0
3, 222720, Note_on_c, 2, 53, 0
3, 222720, Note_on_c, 2, 53, 88
3, 222720, Note_on_c, 2, 65, 88
3, 223200, Note_on_c, 2, 65, 0
3, 223200, Note_on_c, 2, 53, 0
3, 223200, Note_on_c, 2, 53, 88
3, 223200, Note_on_c, 2, 65, 88
3, 223680, Note_on_c, 2, 65, 0
3, 223680, Note_on_c, 2, 53, 0
3, 223680, Note_on_c, 2, 53, 88
3, 223680, Note_on_c, 2, 65, 88
3, 224160, Note_on_c, 2, 65, 0
3, 224160, Note_on_c, 2, 53, 0
3, 267840, Note_on_c, 2, 53, 75
3, 267840, Note_on_c, 2, 65, 75
3, 270720, Note_on_c, 2, 65, 0
3, 270720, Note_on_c, 2, 53, 0
3, 270720, Note_on_c, 2, 53, 75
3, 270720, Note_on_c, 2, 65, 75
3, 274080, Note_on_c, 2, 65, 0
3, 274080, Note_on_c, 2, 53, 0
3, 285600, Note_on_c, 2, 65, 75
3, 285600, Note_on_c, 2, 69, 75
3, 286080, Note_on_c, 2, 69, 0
3, 286080, Note_on_c, 2, 65, 0
3, 286080, Note_on_c, 2, 65, 75
3, 286080, Note_on_c, 2, 69, 75
3, 286560, Note_on_c, 2, 69, 0
3, 286560, Note_on_c, 2, 65, 0
3, 286560, Note_on_c, 2, 67, 75
3, 286560, Note_on_c, 2, 70, 75
3, 287520, Note_on_c, 2, 70, 0
3, 287520, Note_on_c, 2, 67, 0
3, 287520, Note_on_c, 2, 60, 75
3, 287520, Note_on_c, 2, 67, 75
3, 288000, Note_on_c, 2, 67, 0
3, 288000, Note_on_c, 2, 60, 0
3, 288000, Note_on_c, 2, 69, 75
3, 288000, Note_on_c, 2, 72, 75
3, 288960, Note_on_c, 2, 72, 0
3, 288960, Note_on_c, 2, 69, 0
3, 288960, Note_on_c, 2, 65, 75
3, 288960, Note_on_c, 2, 69, 75
3, 289440, Note_on_c, 2, 69, 0
3, 289440, Note_on_c, 2, 65, 0
3, 289440, Note_on_c, 2, 67, 75
3, 289440, Note_on_c, 2, 70, 75
3, 290400, Note_on_c, 2, 70, 0
3, 290400, Note_on_c, 2, 67, 0
3, 290400, Note_on_c, 2, 60, 75
3, 290400, Note_on_c, 2, 67, 75
3, 290880, Note_on_c, 2, 67, 0
3, 290880, Note_on_c, 2, 60, 0
3, 290880, Note_on_c, 2, 57, 75
3, 290880, Note_on_c, 2, 65, 75
3, 291360, Note_on_c, 2, 65, 0
3, 291360, Note_on_c, 2, 57, 0
3, 292320, Note_on_c, 2, 57, 88
3, 292320, Note_on_c, 2, 65, 88
3, 292800, Note_on_c, 2, 65, 0
3, 292800, Note_on_c, 2, 57, 0
3, 292800, Note_on_c, 2, 57, 88
3, 292800, Note_on_c, 2, 65, 88
3, 293280, Note_on_c, 2, 65, 0
3, 293280, Note_on_c, 2, 57, 0
3, 293280, Note_on_c, 2, 57, 88
3, 293280, Note_on_c, 2, 65, 88
3, 293760, Note_on_c, 2, 65, 0
3, 293760, Note_on_c, 2, 57, 0
3, 293760, Note_on_c, 2, 57, 88
3, 293760, Note_on_c, 2, 65, 88
3, 294240, Note_on_c, 2, 65, 0
3, 294240, Note_on_c, 2, 57, 0
3, 321120, Note_on_c, 2, 57, 88
3, 321120, Note_on_c, 2, 65, 88
3, 322080, Note_on_c, 2, 65, 0
3, 322080, Note_on_c, 2, 57, 0
3, 322080, Note_on_c, 2, 65, 88
3, 322080, Note_on_c, 2, 69, 88
3, 322560, Note_on_c, 2, 69, 0
3, 322560, Note_on_c, 2, 65, 0
3, 322560, Note_on_c, 2, 60, 88
3, 322560, Note_on_c, 2, 67, 88
3, 323040, Note_on_c, 2, 67, 0
3, 323040, Note_on_c, 2, 60, 0
3, 323040, Note_on_c, 2, 67, 88
3, 323040, Note_on_c, 2, 70, 88
3, 323520, Note_on_c, 2, 70, 0
3, 323520, Note_on_c, 2, 67, 0
3, 323520, Note_on_c, 2, 65, 88
3, 323520, Note_on_c, 2, 69, 88
3, 324000, Note_on_c, 2, 69, 0
3, 324000, Note_on_c, 2, 65, 0
3, 324000, Note_on_c, 2, 67, 88
3, 324480, Note_on_c, 2, 67, 0
3, 324480, Note_on_c, 2, 67, 88
3, 324960, Note_on_c, 2, 67, 0
3, 324960, Note_on_c, 2, 67, 88
3, 325440, Note_on_c, 2, 67, 0
3, 325440, Note_on_c, 2, 60, 88
3, 325440, Note_on_c, 2, 72, 88
3, 325920, Note_on_c, 2, 72, 0
3, 325920, Note_on_c, 2, 70, 88
3, 326400, Note_on_c, 2, 70, 0
3, 326400, Note_on_c, 2, 60, 0
3, 326400, Note_on_c, 2, 65, 88
3, 326400, Note_on_c, 2, 69, 88
3, 326880, Note_on_c, 2, 69, 0
3, 326880, Note_on_c, 2, 65, 0
3, 326880, Note_on_c, 2, 67, 88
3, 327360, Note_on_c, 2, 67, 0
3, 328800, Note_on_c, 2, 60, 88
3, 328800, Note_on_c, 2, 67, 88
3, 329280, Note_on_c, 2, 67, 0
3, 329280, Note_on_c, 2, 60, 0
3, 329280, Note_on_c, 2, 65, 88
3, 329280, Note_on_c, 2, 69, 88
3, 329760, Note_on_c, 2, 69, 0
3, 329760, Note_on_c, 2, 65, 0
3, 329760, Note_on_c, 2, 67, 88
3, 330240, Note_on_c, 2, 67, 0
3, 331200, Note_on_c, 2, 60, 88
3, 331680, Note_on_c, 2, 60, 0
3, 331680, Note_on_c, 2, 60, 88
3, 332160, Note_on_c, 2, 60, 0
3, 332160, Note_on_c, 2, 60, 88
3, 332640, Note_on_c, 2, 60, 0
3, 332640, Note_on_c, 2, 67, 88
3, 332640, Note_on_c, 2, 70, 88
3, 333120, Note_on_c, 2, 70, 0
3, 333120, Note_on_c, 2, 67, 0
3, 333120, Note_on_c, 2, 65, 88
3, 333120, Note_on_c, 2, 69, 88
3, 333600, Note_on_c, 2, 69, 0
3, 333600, Note_on_c, 2, 65, 0
3, 333600, Note_on_c, 2, 60, 88
3, 333600, Note_on_c, 2, 67, 88
3, 334080, Note_on_c, 2, 67, 0
3, 334080, Note_on_c, 2, 60, 0
3, 334080, Note_on_c, 2, 57, 88
3, 334080, Note_on_c, 2, 65, 88
3, 334560, Note_on_c, 2, 65, 0
3, 334560, Note_on_c, 2, 57, 0
3, 334560, Note_on_c, 2, 57, 88
3, 334560, Note_on_c, 2, 65, 88
3, 335040, Note_on_c, 2, 65, 0
3, 335040, Note_on_c, 2, 57, 0
3, 335040, Note_on_c, 2, 60, 88
3, 335040, Note_on_c, 2, 67, 88
3, 335520, Note_on_c, 2, 67, 0
3, 335520, Note_on_c, 2, 60, 0
3, 335520, Note_on_c, 2, 65, 88
3, 335520, Note_on_c, 2, 69, 88
3, 336000, Note_on_c, 2, 69, 0
3, 336000, Note_on_c, 2, 65, 0
3, 336000, Note_on_c, 2, 69, 88
3, 336000, Note_on_c, 2, 72, 88
3, 336480, Note_on_c, 2, 72, 0
3, 336480, Note_on_c, 2, 69, 0
3, 336480, Note_on_c, 2, 67, 88
3, 336480, Note_on_c, 2, 70, 88
3, 336960, Note_on_c, 2, 70, 0
3, 336960, Note_on_c, 2, 67, 0
3, 336960, Note_on_c, 2, 65, 88
3, 336960, Note_on_c, 2, 69, 88
3, 337440, Note_on_c, 2, 69, 0
3, 337440, Note_on_c, 2, 65, 0
3, 337440, Note_on_c, 2, 57, 88
3, 337440, Note_on_c, 2, 65, 88
3, 337920, Note_on_c, 2, 65, 0
3, 337920, Note_on_c, 2, 57, 0
3, 337920, End_track
4, 0, Start_track
4, 0, Title_t, "Piano 1 Trebble"
4, 0, Control_c, 3, 0, 0
4, 0, Control_c, 3, 32, 1
4, 0, Program_c, 3, 0
4, 0, Control_c, 3, 7, 100
4, 0, Control_c, 3, 10, 40
4, 0, Control_c, 3, 91, 70
4, 0, Control_c, 3, 93, 64
4, 0, Note_on_c, 3, 72, 88
4, 639, Note_on_c, 3, 72, 0
4, 639, Note_on_c, 3, 74, 88
4, 800, Note_on_c, 3, 74, 0
4, 800, Note_on_c, 3, 76, 88
4, 960, Note_on_c, 3, 76, 0
4, 960, Note_on_c, 3, 77, 88
4, 1119, Note_on_c, 3, 77, 0
4, 1119, Note_on_c, 3, 79, 88
4, 1280, Note_on_c, 3, 79, 0
4, 1280, Note_on_c, 3, 81, 88
4, 1440, Note_on_c, 3, 81, 0
4, 1440, Note_on_c, 3, 82, 88
4, 1920, Note_on_c, 3, 82, 0
4, 1920, Note_on_c, 3, 76, 88
4, 2112, Note_on_c, 3, 76, 0
4, 2400, Note_on_c, 3, 77, 88
4, 2592, Note_on_c, 3, 77, 0
4, 2880, Note_on_c, 3, 79, 88
4, 3360, Note_on_c, 3, 79, 0
4, 3360, Note_on_c, 3, 70, 88
4, 3840, Note_on_c, 3, 70, 0
4, 3840, Note_on_c, 3, 72, 79
4, 3870, Note_on_c, 3, 70, 79
4, 3894, Note_on_c, 3, 72, 0
4, 3900, Note_on_c, 3, 72, 79
4, 3924, Note_on_c, 3, 70, 0
4, 3930, Note_on_c, 3, 70, 79
4, 3954, Note_on_c, 3, 72, 0
4, 3960, Note_on_c, 3, 69, 79
4, 3984, Note_on_c, 3, 70, 0
4, 4020, Note_on_c, 3, 70, 80
4, 4068, Note_on_c, 3, 69, 0
4, 4080, Note_on_c, 3, 74, 88
4, 4128, Note_on_c, 3, 70, 0
4, 4320, Note_on_c, 3, 74, 0
4, 4320, Note_on_c, 3, 72, 88
4, 4800, Note_on_c, 3, 72, 0
4, 4800, Note_on_c, 3, 70, 88
4, 5280, Note_on_c, 3, 70, 0
4, 5280, Note_on_c, 3, 69, 88
4, 5760, Note_on_c, 3, 69, 0
4, 5760, Note_on_c, 3, 67, 88
4, 5919, Note_on_c, 3, 67, 0
4, 5919, Note_on_c, 3, 65, 88
4, 6080, Note_on_c, 3, 65, 0
4, 6080, Note_on_c, 3, 64, 88
4, 6240, Note_on_c, 3, 64, 0
4, 6240, Note_on_c, 3, 65, 88
4, 6399, Note_on_c, 3, 65, 0
4, 6399, Note_on_c, 3, 69, 88
4, 6560, Note_on_c, 3, 69, 0
4, 6560, Note_on_c, 3, 72, 88
4, 6720, Note_on_c, 3, 72, 0
4, 6720, Note_on_c, 3, 77, 88
4, 6879, Note_on_c, 3, 77, 0
4, 6879, Note_on_c, 3, 72, 88
4, 7040, Note_on_c, 3, 72, 0
4, 7040, Note_on_c, 3, 69, 88
4, 7200, Note_on_c, 3, 69, 0
4, 7200, Note_on_c, 3, 67, 88
4, 7359, Note_on_c, 3, 67, 0
4, 7359, Note_on_c, 3, 65, 88
4, 7520, Note_on_c, 3, 65, 0
4, 7520, Note_on_c, 3, 64, 88
4, 7680, Note_on_c, 3, 64, 0
4, 7680, Note_on_c, 3, 65, 88
4, 7839, Note_on_c, 3, 65, 0
4, 7839, Note_on_c, 3, 69, 88
4, 8000, Note_on_c, 3, 69, 0
4, 8000, Note_on_c, 3, 72, 88
4, 8160, Note_on_c, 3, 72, 0
4, 8160, Note_on_c, 3, 77, 88
4, 8319, Note_on_c, 3, 77, 0
4, 8319, Note_on_c, 3, 76, 88
4, 8480, Note_on_c, 3, 76, 0
4, 8480, Note_on_c, 3, 74, 88
4, 8640, Note_on_c, 3, 74, 0
4, 8640, Note_on_c, 3, 72, 88
4, 8880, Note_on_c, 3, 72, 0
4, 8880, Note_on_c, 3, 71, 88
4, 9120, Note_on_c, 3, 71, 0
4, 9120, Note_on_c, 3, 79, 88
4, 9360, Note_on_c, 3, 79, 0
4, 9360, Note_on_c, 3, 70, 88
4, 9600, Note_on_c, 3, 70, 0
4, 9600, Note_on_c, 3, 69, 88
4, 9840, Note_on_c, 3, 69, 0
4, 9840, Note_on_c, 3, 77, 88
4, 10080, Note_on_c, 3, 77, 0
4, 10239, Note_on_c, 3, 69, 88
4, 10400, Note_on_c, 3, 69, 0
4, 10400, Note_on_c, 3, 67, 88
4, 10560, Note_on_c, 3, 67, 0
4, 10719, Note_on_c, 3, 65, 88
4, 10880, Note_on_c, 3, 65, 0
4, 10880, Note_on_c, 3, 64, 88
4, 11040, Note_on_c, 3, 64, 0
4, 11199, Note_on_c, 3, 62, 88
4, 11360, Note_on_c, 3, 62, 0
4, 11360, Note_on_c, 3, 60, 88
4, 11520, Note_on_c, 3, 60, 0
4, 22200, Note_on_c, 3, 81, 88
4, 22320, Note_on_c, 3, 81, 0
4, 22320, Note_on_c, 3, 79, 88
4, 22440, Note_on_c, 3, 79, 0
4, 22440, Note_on_c, 3, 77, 88
4, 22560, Note_on_c, 3, 77, 0
4, 22560, Note_on_c, 3, 76, 88
4, 22680, Note_on_c, 3, 76, 0
4, 22680, Note_on_c, 3, 74, 88
4, 22800, Note_on_c, 3, 74, 0
4, 22800, Note_on_c, 3, 72, 88
4, 22920, Note_on_c, 3, 72, 0
4, 22920, Note_on_c, 3, 71, 88
4, 23040, Note_on_c, 3, 71, 0
4, 23040, Note_on_c, 3, 70, 88
4, 23160, Note_on_c, 3, 70, 0
4, 23160, Note_on_c, 3, 72, 88
4, 23280, Note_on_c, 3, 72, 0
4, 23280, Note_on_c, 3, 69, 88
4, 23400, Note_on_c, 3, 69, 0
4, 23400, Note_on_c, 3, 70, 88
4, 23520, Note_on_c, 3, 70, 0
4, 23520, Note_on_c, 3, 67, 88
4, 23640, Note_on_c, 3, 67, 0
4, 23640, Note_on_c, 3, 69, 88
4, 23760, Note_on_c, 3, 69, 0
4, 23760, Note_on_c, 3, 65, 88
4, 23880, Note_on_c, 3, 65, 0
4, 23880, Note_on_c, 3, 67, 88
4, 24000, Note_on_c, 3, 67, 0
4, 24000, Note_on_c, 3, 64, 88
4, 24120, Note_on_c, 3, 64, 0
4, 24120, Note_on_c, 3, 65, 88
4, 24240, Note_on_c, 3, 65, 0
4, 24240, Note_on_c, 3, 67, 88
4, 24360, Note_on_c, 3, 67, 0
4, 24360, Note_on_c, 3, 64, 88
4, 24480, Note_on_c, 3, 64, 0
4, 24480, Note_on_c, 3, 65, 88
4, 24960, Note_on_c, 3, 65, 0
4, 29120, Note_on_c, 3, 77, 88
4, 29280, Note_on_c, 3, 77, 0
4, 29280, Note_on_c, 3, 81, 88
4, 29439, Note_on_c, 3, 81, 0
4, 29439, Note_on_c, 3, 84, 88
4, 29546, Note_on_c, 3, 84, 0
4, 29546, Note_on_c, 3, 81, 88
4, 29653, Note_on_c, 3, 81, 0
4, 29653, Note_on_c, 3, 77, 88
4, 29760, Note_on_c, 3, 77, 0
4, 29760, Note_on_c, 3, 82, 88
4, 29919, Note_on_c, 3, 82, 0
4, 29919, Note_on_c, 3, 79, 88
4, 30080, Note_on_c, 3, 79, 0
4, 30080, Note_on_c, 3, 76, 88
4, 30240, Note_on_c, 3, 76, 0
4, 30240, Note_on_c, 3, 77, 88
4, 30720, Note_on_c, 3, 77, 0
4, 30720, Note_on_c, 3, 57, 88
4, 30720, Note_on_c, 3, 65, 88
4, 31200, Note_on_c, 3, 65, 0
4, 31200, Note_on_c, 3, 57, 0
4, 31680, Note_on_c, 3, 71, 88
4, 31800, Note_on_c, 3, 71, 0
4, 31800, Note_on_c, 3, 72, 88
4, 31920, Note_on_c, 3, 72, 0
4, 31920, Note_on_c, 3, 74, 88
4, 32040, Note_on_c, 3, 74, 0
4, 32040, Note_on_c, 3, 72, 88
4, 32160, Note_on_c, 3, 72, 0
4, 32160, Note_on_c, 3, 71, 88
4, 32280, Note_on_c, 3, 71, 0
4, 32280, Note_on_c, 3, 72, 88
4, 32400, Note_on_c, 3, 72, 0
4, 32400, Note_on_c, 3, 74, 88
4, 32520, Note_on_c, 3, 74, 0
4, 32520, Note_on_c, 3, 72, 88
4, 32640, Note_on_c, 3, 72, 0
4, 32640, Note_on_c, 3, 72, 88
4, 33120, Note_on_c, 3, 72, 0
4, 33120, Note_on_c, 3, 71, 88
4, 33240, Note_on_c, 3, 71, 0
4, 33240, Note_on_c, 3, 72, 88
4, 33360, Note_on_c, 3, 72, 0
4, 33360, Note_on_c, 3, 74, 88
4, 33480, Note_on_c, 3, 74, 0
4, 33480, Note_on_c, 3, 72, 88
4, 33600, Note_on_c, 3, 72, 0
4, 33600, Note_on_c, 3, 71, 88
4, 33720, Note_on_c, 3, 71, 0
4, 33720, Note_on_c, 3, 72, 88
4, 33840, Note_on_c, 3, 72, 0
4, 33840, Note_on_c, 3, 74, 88
4, 33960, Note_on_c, 3, 74, 0
4, 33960, Note_on_c, 3, 72, 88
4, 34080, Note_on_c, 3, 72, 0
4, 34080, Note_on_c, 3, 72, 88
4, 34560, Note_on_c, 3, 72, 0
4, 34560, Note_on_c, 3, 71, 88
4, 34680, Note_on_c, 3, 71, 0
4, 34680, Note_on_c, 3, 72, 88
4, 34800, Note_on_c, 3, 72, 0
4, 34800, Note_on_c, 3, 74, 88
4, 34920, Note_on_c, 3, 74, 0
4, 34920, Note_on_c, 3, 72, 88
4, 35040, Note_on_c, 3, 72, 0
4, 35040, Note_on_c, 3, 71, 88
4, 35160, Note_on_c, 3, 71, 0
4, 35160, Note_on_c, 3, 72, 88
4, 35280, Note_on_c, 3, 72, 0
4, 35280, Note_on_c, 3, 74, 88
4, 35400, Note_on_c, 3, 74, 0
4, 35400, Note_on_c, 3, 76, 88
4, 35520, Note_on_c, 3, 76, 0
4, 35520, Note_on_c, 3, 77, 88
4, 35640, Note_on_c, 3, 77, 0
4, 35640, Note_on_c, 3, 79, 88
4, 35760, Note_on_c, 3, 79, 0
4, 35760, Note_on_c, 3, 81, 88
4, 35880, Note_on_c, 3, 81, 0
4, 35880, Note_on_c, 3, 79, 88
4, 36000, Note_on_c, 3, 79, 0
4, 36000, Note_on_c, 3, 79, 88
4, 36480, Note_on_c, 3, 79, 0
4, 36480, Note_on_c, 3, 79, 88
4, 36540, Note_on_c, 3, 77, 88
4, 36588, Note_on_c, 3, 79, 0
4, 36600, Note_on_c, 3, 79, 88
4, 36648, Note_on_c, 3, 77, 0
4, 36660, Note_on_c, 3, 77, 88
4, 36708, Note_on_c, 3, 79, 0
4, 36720, Note_on_c, 3, 76, 88
4, 36768, Note_on_c, 3, 77, 0
4, 36840, Note_on_c, 3, 77, 88
4, 36880, Note_on_c, 3, 76, 0
4, 36960, Note_on_c, 3, 76, 88
4, 36996, Note_on_c, 3, 77, 0
4, 37440, Note_on_c, 3, 76, 0
4, 42720, Note_on_c, 3, 79, 88
4, 42840, Note_on_c, 3, 79, 0
4, 42840, Note_on_c, 3, 78, 88
4, 42960, Note_on_c, 3, 78, 0
4, 42960, Note_on_c, 3, 79, 88
4, 43080, Note_on_c, 3, 79, 0
4, 43080, Note_on_c, 3, 78, 88
4, 43200, Note_on_c, 3, 78, 0
4, 43200, Note_on_c, 3, 79, 88
4, 43440, Note_on_c, 3, 79, 0
4, 43440, Note_on_c, 3, 88, 88
4, 43680, Note_on_c, 3, 88, 0
4, 43680, Note_on_c, 3, 86, 88
4, 43920, Note_on_c, 3, 86, 0
4, 43920, Note_on_c, 3, 84, 88
4, 44160, Note_on_c, 3, 84, 0
4, 44160, Note_on_c, 3, 83, 88
4, 44400, Note_on_c, 3, 83, 0
4, 44400, Note_on_c, 3, 81, 88
4, 44640, Note_on_c, 3, 81, 0
4, 44640, Note_on_c, 3, 79, 88
4, 44880, Note_on_c, 3, 79, 0
4, 44880, Note_on_c, 3, 78, 88
4, 45120, Note_on_c, 3, 78, 0
4, 45120, Note_on_c, 3, 77, 88
4, 45720, Note_on_c, 3, 77, 0
4, 45720, Note_on_c, 3, 81, 88
4, 45840, Note_on_c, 3, 81, 0
4, 45840, Note_on_c, 3, 79, 88
4, 45960, Note_on_c, 3, 79, 0
4, 45960, Note_on_c, 3, 77, 88
4, 46080, Note_on_c, 3, 77, 0
4, 46080, Note_on_c, 3, 76, 88
4, 46320, Note_on_c, 3, 76, 0
4, 46320, Note_on_c, 3, 79, 88
4, 46560, Note_on_c, 3, 79, 0
4, 46560, Note_on_c, 3, 84, 88
4, 46800, Note_on_c, 3, 84, 0
4, 46800, Note_on_c, 3, 79, 88
4, 47040, Note_on_c, 3, 79, 0
4, 47040, Note_on_c, 3, 77, 88
4, 47280, Note_on_c, 3, 77, 0
4, 47280, Note_on_c, 3, 76, 88
4, 47520, Note_on_c, 3, 76, 0
4, 47520, Note_on_c, 3, 79, 88
4, 47880, Note_on_c, 3, 79, 0
4, 47880, Note_on_c, 3, 76, 88
4, 48000, Note_on_c, 3, 76, 0
4, 48000, Note_on_c, 3, 74, 88
4, 48480, Note_on_c, 3, 74, 0
4, 54000, Note_on_c, 3, 67, 88
4, 54240, Note_on_c, 3, 67, 0
4, 54240, Note_on_c, 3, 79, 88
4, 54360, Note_on_c, 3, 79, 0
4, 54360, Note_on_c, 3, 77, 88
4, 54480, Note_on_c, 3, 77, 0
4, 54480, Note_on_c, 3, 76, 88
4, 54600, Note_on_c, 3, 76, 0
4, 54600, Note_on_c, 3, 74, 88
4, 54720, Note_on_c, 3, 74, 0
4, 54720, Note_on_c, 3, 72, 88
4, 54840, Note_on_c, 3, 72, 0
4, 54840, Note_on_c, 3, 74, 88
4, 54960, Note_on_c, 3, 74, 0
4, 54960, Note_on_c, 3, 71, 88
4, 55080, Note_on_c, 3, 71, 0
4, 55080, Note_on_c, 3, 74, 88
4, 55127, Note_on_c, 3, 74, 0
4, 55200, Note_on_c, 3, 72, 88
4, 55296, Note_on_c, 3, 72, 0
4, 55440, Note_on_c, 3, 72, 88
4, 55536, Note_on_c, 3, 72, 0
4, 55680, Note_on_c, 3, 74, 88
4, 55776, Note_on_c, 3, 74, 0
4, 55920, Note_on_c, 3, 74, 88
4, 56016, Note_on_c, 3, 74, 0
4, 56160, Note_on_c, 3, 76, 88
4, 56280, Note_on_c, 3, 76, 0
4, 56280, Note_on_c, 3, 77, 88
4, 56400, Note_on_c, 3, 77, 0
4, 56400, Note_on_c, 3, 74, 88
4, 56520, Note_on_c, 3, 74, 0
4, 56520, Note_on_c, 3, 77, 88
4, 56567, Note_on_c, 3, 77, 0
4, 56640, Note_on_c, 3, 76, 88
4, 56736, Note_on_c, 3, 76, 0
4, 56880, Note_on_c, 3, 76, 88
4, 56976, Note_on_c, 3, 76, 0
4, 57120, Note_on_c, 3, 77, 88
4, 57216, Note_on_c, 3, 77, 0
4, 57360, Note_on_c, 3, 77, 88
4, 57456, Note_on_c, 3, 77, 0
4, 57600, Note_on_c, 3, 79, 88
4, 58200, Note_on_c, 3, 79, 0
4, 58200, Note_on_c, 3, 81, 88
4, 58320, Note_on_c, 3, 81, 0
4, 58320, Note_on_c, 3, 83, 88
4, 58440, Note_on_c, 3, 83, 0
4, 58440, Note_on_c, 3, 84, 88
4, 58487, Note_on_c, 3, 84, 0
4, 58560, Note_on_c, 3, 84, 88
4, 58680, Note_on_c, 3, 84, 0
4, 58680, Note_on_c, 3, 83, 88
4, 58800, Note_on_c, 3, 83, 0
4, 58800, Note_on_c, 3, 81, 88
4, 58920, Note_on_c, 3, 81, 0
4, 58920, Note_on_c, 3, 83, 88
4, 59040, Note_on_c, 3, 83, 0
4, 59040, Note_on_c, 3, 84, 88
4, 59280, Note_on_c, 3, 84, 0
4, 59280, Note_on_c, 3, 79, 88
4, 59376, Note_on_c, 3, 79, 0
4, 59520, Note_on_c, 3, 81, 88
4, 59580, Note_on_c, 3, 79, 88
4, 59628, Note_on_c, 3, 81, 0
4, 59640, Note_on_c, 3, 81, 88
4, 59688, Note_on_c, 3, 79, 0
4, 59700, Note_on_c, 3, 79, 88
4, 59748, Note_on_c, 3, 81, 0
4, 59760, Note_on_c, 3, 81, 88
4, 59808, Note_on_c, 3, 79, 0
4, 59820, Note_on_c, 3, 79, 88
4, 59868, Note_on_c, 3, 81, 0
4, 59880, Note_on_c, 3, 81, 88
4, 59928, Note_on_c, 3, 79, 0
4, 59940, Note_on_c, 3, 79, 88
4, 59988, Note_on_c, 3, 81, 0
4, 60000, Note_on_c, 3, 81, 88
4, 60048, Note_on_c, 3, 79, 0
4, 60060, Note_on_c, 3, 79, 88
4, 60108, Note_on_c, 3, 81, 0
4, 60120, Note_on_c, 3, 81, 88
4, 60168, Note_on_c, 3, 79, 0
4, 60180, Note_on_c, 3, 79, 88
4, 60228, Note_on_c, 3, 81, 0
4, 60240, Note_on_c, 3, 81, 88
4, 60288, Note_on_c, 3, 79, 0
4, 60300, Note_on_c, 3, 79, 88
4, 60348, Note_on_c, 3, 81, 0
4, 60360, Note_on_c, 3, 78, 88
4, 60408, Note_on_c, 3, 79, 0
4, 60480, Note_on_c, 3, 78, 0
4, 60480, Note_on_c, 3, 79, 88
4, 60576, Note_on_c, 3, 79, 0
4, 60720, Note_on_c, 3, 77, 88
4, 60816, Note_on_c, 3, 77, 0
4, 60960, Note_on_c, 3, 76, 88
4, 61056, Note_on_c, 3, 76, 0
4, 61200, Note_on_c, 3, 74, 88
4, 61296, Note_on_c, 3, 74, 0
4, 61440, Note_on_c, 3, 72, 88
4, 61536, Note_on_c, 3, 72, 0
4, 61680, Note_on_c, 3, 71, 88
4, 61776, Note_on_c, 3, 71, 0
4, 61920, Note_on_c, 3, 69, 88
4, 62400, Note_on_c, 3, 69, 0
4, 62880, Note_on_c, 3, 69, 88
4, 62880, Note_on_c, 3, 72, 88
4, 63360, Note_on_c, 3, 72, 0
4, 63360, Note_on_c, 3, 69, 0
4, 63360, Note_on_c, 3, 67, 88
4, 63360, Note_on_c, 3, 72, 88
4, 63600, Note_on_c, 3, 72, 0
4, 63600, Note_on_c, 3, 67, 0
4, 63600, Note_on_c, 3, 69, 88
4, 63600, Note_on_c, 3, 77, 88
4, 63720, Note_on_c, 3, 77, 0
4, 63720, Note_on_c, 3, 74, 88
4, 63840, Note_on_c, 3, 74, 0
4, 63840, Note_on_c, 3, 69, 0
4, 63840, Note_on_c, 3, 72, 88
4, 64320, Note_on_c, 3, 72, 0
4, 64320, Note_on_c, 3, 72, 88
4, 64380, Note_on_c, 3, 71, 88
4, 64428, Note_on_c, 3, 72, 0
4, 64440, Note_on_c, 3, 72, 88
4, 64488, Note_on_c, 3, 71, 0
4, 64500, Note_on_c, 3, 71, 88
4, 64548, Note_on_c, 3, 72, 0
4, 64560, Note_on_c, 3, 69, 88
4, 64608, Note_on_c, 3, 71, 0
4, 64680, Note_on_c, 3, 71, 88
4, 64718, Note_on_c, 3, 69, 0
4, 64778, Note_on_c, 3, 71, 0
4, 64800, Note_on_c, 3, 84, 88
4, 64920, Note_on_c, 3, 84, 0
4, 64920, Note_on_c, 3, 86, 88
4, 65040, Note_on_c, 3, 86, 0
4, 65040, Note_on_c, 3, 83, 88
4, 65160, Note_on_c, 3, 83, 0
4, 65160, Note_on_c, 3, 84, 88
4, 65280, Note_on_c, 3, 84, 0
4, 65280, Note_on_c, 3, 81, 88
4, 65400, Note_on_c, 3, 81, 0
4, 65400, Note_on_c, 3, 83, 88
4, 65520, Note_on_c, 3, 83, 0
4, 65520, Note_on_c, 3, 79, 88
4, 65640, Note_on_c, 3, 79, 0
4, 65640, Note_on_c, 3, 81, 88
4, 65760, Note_on_c, 3, 81, 0
4, 65760, Note_on_c, 3, 77, 88
4, 65880, Note_on_c, 3, 77, 0
4, 65880, Note_on_c, 3, 79, 88
4, 66000, Note_on_c, 3, 79, 0
4, 66000, Note_on_c, 3, 76, 88
4, 66120, Note_on_c, 3, 76, 0
4, 66120, Note_on_c, 3, 77, 88
4, 66240, Note_on_c, 3, 77, 0
4, 66240, Note_on_c, 3, 74, 88
4, 66360, Note_on_c, 3, 74, 0
4, 66360, Note_on_c, 3, 76, 88
4, 66480, Note_on_c, 3, 76, 0
4, 66480, Note_on_c, 3, 77, 88
4, 66600, Note_on_c, 3, 77, 0
4, 66600, Note_on_c, 3, 79, 88
4, 66720, Note_on_c, 3, 79, 0
4, 66720, Note_on_c, 3, 81, 88
4, 66840, Note_on_c, 3, 81, 0
4, 66840, Note_on_c, 3, 83, 88
4, 66960, Note_on_c, 3, 83, 0
4, 66960, Note_on_c, 3, 84, 88
4, 67080, Note_on_c, 3, 84, 0
4, 67080, Note_on_c, 3, 83, 88
4, 67200, Note_on_c, 3, 83, 0
4, 67200, Note_on_c, 3, 86, 88
4, 67320, Note_on_c, 3, 86, 0
4, 67320, Note_on_c, 3, 84, 88
4, 67440, Note_on_c, 3, 84, 0
4, 67440, Note_on_c, 3, 83, 88
4, 67560, Note_on_c, 3, 83, 0
4, 67560, Note_on_c, 3, 81, 88
4, 67680, Note_on_c, 3, 81, 0
4, 67680, Note_on_c, 3, 81, 88
4, 67800, Note_on_c, 3, 81, 0
4, 67800, Note_on_c, 3, 79, 88
4, 67920, Note_on_c, 3, 79, 0
4, 67920, Note_on_c, 3, 81, 88
4, 68040, Note_on_c, 3, 81, 0
4, 68040, Note_on_c, 3, 77, 88
4, 68160, Note_on_c, 3, 77, 0
4, 68160, Note_on_c, 3, 76, 88
4, 68640, Note_on_c, 3, 76, 0
4, 68640, Note_on_c, 3, 76, 88
4, 68700, Note_on_c, 3, 74, 88
4, 68748, Note_on_c, 3, 76, 0
4, 68760, Note_on_c, 3, 76, 88
4, 68808, Note_on_c, 3, 74, 0
4, 68820, Note_on_c, 3, 74, 88
4, 68868, Note_on_c, 3, 76, 0
4, 68880, Note_on_c, 3, 72, 88
4, 68928, Note_on_c, 3, 74, 0
4, 69000, Note_on_c, 3, 74, 88
4, 69032, Note_on_c, 3, 72, 0
4, 69120, Note_on_c, 3, 72, 88
4, 69176, Note_on_c, 3, 74, 0
4, 70560, Note_on_c, 3, 72, 0
4, 70560, Note_on_c, 3, 72, 88
4, 70680, Note_on_c, 3, 70, 88
4, 70712, Note_on_c, 3, 72, 0
4, 70800, Note_on_c, 3, 72, 88
4, 70832, Note_on_c, 3, 70, 0
4, 70860, Note_on_c, 3, 70, 88
4, 70908, Note_on_c, 3, 72, 0
4, 70920, Note_on_c, 3, 72, 88
4, 70968, Note_on_c, 3, 70, 0
4, 70980, Note_on_c, 3, 70, 88
4, 71028, Note_on_c, 3, 72, 0
4, 71040, Note_on_c, 3, 72, 88
4, 71088, Note_on_c, 3, 70, 0
4, 71100, Note_on_c, 3, 70, 88
4, 71148, Note_on_c, 3, 72, 0
4, 71160, Note_on_c, 3, 72, 88
4, 71208, Note_on_c, 3, 70, 0
4, 71220, Note_on_c, 3, 70, 88
4, 71268, Note_on_c, 3, 72, 0
4, 71280, Note_on_c, 3, 72, 88
4, 71328, Note_on_c, 3, 70, 0
4, 71340, Note_on_c, 3, 70, 88
4, 71388, Note_on_c, 3, 72, 0
4, 71400, Note_on_c, 3, 72, 88
4, 71448, Note_on_c, 3, 70, 0
4, 71460, Note_on_c, 3, 70, 88
4, 71508, Note_on_c, 3, 72, 0
4, 71520, Note_on_c, 3, 72, 88
4, 71568, Note_on_c, 3, 70, 0
4, 71580, Note_on_c, 3, 70, 88
4, 71628, Note_on_c, 3, 72, 0
4, 71640, Note_on_c, 3, 72, 88
4, 71688, Note_on_c, 3, 70, 0
4, 71700, Note_on_c, 3, 70, 88
4, 71748, Note_on_c, 3, 72, 0
4, 71760, Note_on_c, 3, 69, 88
4, 71808, Note_on_c, 3, 70, 0
4, 71880, Note_on_c, 3, 70, 88
4, 71908, Note_on_c, 3, 69, 0
4, 72000, Note_on_c, 3, 69, 88
4, 72040, Note_on_c, 3, 70, 0
4, 72164, Note_on_c, 3, 69, 0
4, 72240, Note_on_c, 3, 81, 88
4, 72388, Note_on_c, 3, 81, 0
4, 72420, Note_on_c, 3, 80, 88
4, 72480, Note_on_c, 3, 81, 88
4, 72524, Note_on_c, 3, 80, 0
4, 73440, Note_on_c, 3, 81, 0
4, 73440, Note_on_c, 3, 79, 88
4, 73560, Note_on_c, 3, 79, 0
4, 73560, Note_on_c, 3, 77, 88
4, 73680, Note_on_c, 3, 77, 0
4, 73920, Note_on_c, 3, 76, 88
4, 74040, Note_on_c, 3, 76, 0
4, 74040, Note_on_c, 3, 74, 88
4, 74160, Note_on_c, 3, 74, 0
4, 74400, Note_on_c, 3, 72, 88
4, 74520, Note_on_c, 3, 72, 0
4, 74520, Note_on_c, 3, 71, 88
4, 74640, Note_on_c, 3, 71, 0
4, 74880, Note_on_c, 3, 72, 88
4, 75000, Note_on_c, 3, 72, 0
4, 75000, Note_on_c, 3, 64, 88
4, 75120, Note_on_c, 3, 64, 0
4, 75120, Note_on_c, 3, 67, 88
4, 75240, Note_on_c, 3, 67, 0
4, 75240, Note_on_c, 3, 64, 88
4, 75360, Note_on_c, 3, 64, 0
4, 75480, Note_on_c, 3, 64, 88
4, 75600, Note_on_c, 3, 64, 0
4, 75600, Note_on_c, 3, 67, 88
4, 75720, Note_on_c, 3, 67, 0
4, 75720, Note_on_c, 3, 64, 88
4, 75840, Note_on_c, 3, 64, 0
4, 75960, Note_on_c, 3, 64, 88
4, 76080, Note_on_c, 3, 64, 0
4, 76080, Note_on_c, 3, 67, 88
4, 76200, Note_on_c, 3, 67, 0
4, 76200, Note_on_c, 3, 64, 88
4, 76320, Note_on_c, 3, 64, 0
4, 76440, Note_on_c, 3, 67, 88
4, 76560, Note_on_c, 3, 67, 0
4, 76560, Note_on_c, 3, 76, 88
4, 76680, Note_on_c, 3, 76, 0
4, 76680, Note_on_c, 3, 67, 88
4, 76800, Note_on_c, 3, 67, 0
4, 76920, Note_on_c, 3, 67, 88
4, 77040, Note_on_c, 3, 67, 0
4, 77040, Note_on_c, 3, 76, 88
4, 77160, Note_on_c, 3, 76, 0
4, 77160, Note_on_c, 3, 67, 88
4, 77280, Note_on_c, 3, 67, 0
4, 77400, Note_on_c, 3, 67, 88
4, 77520, Note_on_c, 3, 67, 0
4, 77520, Note_on_c, 3, 76, 88
4, 77640, Note_on_c, 3, 76, 0
4, 77640, Note_on_c, 3, 67, 88
4, 77760, Note_on_c, 3, 67, 0
4, 77880, Note_on_c, 3, 69, 88
4, 78000, Note_on_c, 3, 69, 0
4, 78000, Note_on_c, 3, 77, 88
4, 78120, Note_on_c, 3, 77, 0
4, 78120, Note_on_c, 3, 69, 88
4, 78240, Note_on_c, 3, 69, 0
4, 78360, Note_on_c, 3, 69, 88
4, 78480, Note_on_c, 3, 69, 0
4, 78480, Note_on_c, 3, 77, 88
4, 78600, Note_on_c, 3, 77, 0
4, 78600, Note_on_c, 3, 69, 88
4, 78720, Note_on_c, 3, 69, 0
4, 78840, Note_on_c, 3, 69, 88
4, 78960, Note_on_c, 3, 69, 0
4, 78960, Note_on_c, 3, 77, 88
4, 79080, Note_on_c, 3, 77, 0
4, 79080, Note_on_c, 3, 69, 88
4, 79200, Note_on_c, 3, 69, 0
4, 79320, Note_on_c, 3, 69, 88
4, 79440, Note_on_c, 3, 69, 0
4, 79440, Note_on_c, 3, 77, 88
4, 79560, Note_on_c, 3, 77, 0
4, 79560, Note_on_c, 3, 69, 88
4, 79680, Note_on_c, 3, 69, 0
4, 79800, Note_on_c, 3, 65, 88
4, 79920, Note_on_c, 3, 65, 0
4, 79920, Note_on_c, 3, 74, 88
4, 80040, Note_on_c, 3, 74, 0
4, 80040, Note_on_c, 3, 65, 88
4, 80160, Note_on_c, 3, 65, 0
4, 80280, Note_on_c, 3, 74, 88
4, 80400, Note_on_c, 3, 74, 0
4, 80400, Note_on_c, 3, 83, 88
4, 80520, Note_on_c, 3, 83, 0
4, 80520, Note_on_c, 3, 74, 88
4, 80640, Note_on_c, 3, 74, 0
4, 80640, Note_on_c, 3, 76, 88
4, 80640, Note_on_c, 3, 84, 88
4, 81120, Note_on_c, 3, 84, 0
4, 81120, Note_on_c, 3, 76, 0
4, 81120, Note_on_c, 3, 64, 88
4, 81600, Note_on_c, 3, 64, 0
4, 81600, Note_on_c, 3, 67, 88
4, 82080, Note_on_c, 3, 67, 0
4, 82080, Note_on_c, 3, 72, 88
4, 82560, Note_on_c, 3, 72, 0
4, 82560, Note_on_c, 3, 76, 88
4, 83040, Note_on_c, 3, 76, 0
4, 83040, Note_on_c, 3, 79, 88
4, 83520, Note_on_c, 3, 79, 0
4, 83520, Note_on_c, 3, 86, 88
4, 83760, Note_on_c, 3, 84, 88
4, 83798, Note_on_c, 3, 86, 0
4, 83880, Note_on_c, 3, 86, 88
4, 83930, Note_on_c, 3, 84, 0
4, 84000, Note_on_c, 3, 84, 88
4, 84030, Note_on_c, 3, 86, 0
4, 84060, Note_on_c, 3, 86, 88
4, 84108, Note_on_c, 3, 84, 0
4, 84120, Note_on_c, 3, 84, 88
4, 84168, Note_on_c, 3, 86, 0
4, 84180, Note_on_c, 3, 86, 88
4, 84228, Note_on_c, 3, 84, 0
4, 84240, Note_on_c, 3, 84, 88
4, 84288, Note_on_c, 3, 86, 0
4, 84300, Note_on_c, 3, 86, 88
4, 84348, Note_on_c, 3, 84, 0
4, 84360, Note_on_c, 3, 84, 88
4, 84408, Note_on_c, 3, 86, 0
4, 84420, Note_on_c, 3, 86, 88
4, 84468, Note_on_c, 3, 84, 0
4, 84480, Note_on_c, 3, 84, 88
4, 84528, Note_on_c, 3, 86, 0
4, 85080, Note_on_c, 3, 84, 0
4, 85080, Note_on_c, 3, 86, 88
4, 85200, Note_on_c, 3, 86, 0
4, 85200, Note_on_c, 3, 82, 88
4, 85320, Note_on_c, 3, 82, 0
4, 85320, Note_on_c, 3, 78, 88
4, 85440, Note_on_c, 3, 78, 0
4, 85440, Note_on_c, 3, 79, 88
4, 85560, Note_on_c, 3, 79, 0
4, 85560, Note_on_c, 3, 82, 88
4, 85680, Note_on_c, 3, 82, 0
4, 85680, Note_on_c, 3, 74, 88
4, 85800, Note_on_c, 3, 74, 0
4, 85800, Note_on_c, 3, 77, 88
4, 85920, Note_on_c, 3, 77, 0
4, 85920, Note_on_c, 3, 76, 88
4, 86040, Note_on_c, 3, 76, 0
4, 86040, Note_on_c, 3, 79, 88
4, 86160, Note_on_c, 3, 79, 0
4, 86160, Note_on_c, 3, 71, 88
4, 86280, Note_on_c, 3, 71, 0
4, 86280, Note_on_c, 3, 74, 88
4, 86400, Note_on_c, 3, 74, 0
4, 86400, Note_on_c, 3, 72, 88
4, 86520, Note_on_c, 3, 72, 0
4, 86520, Note_on_c, 3, 76, 88
4, 86640, Note_on_c, 3, 76, 0
4, 86640, Note_on_c, 3, 67, 88
4, 86760, Note_on_c, 3, 67, 0
4, 86760, Note_on_c, 3, 70, 88
4, 86880, Note_on_c, 3, 70, 0
4, 86880, Note_on_c, 3, 69, 88
4, 87000, Note_on_c, 3, 69, 0
4, 87000, Note_on_c, 3, 72, 88
4, 87120, Note_on_c, 3, 72, 0
4, 87120, Note_on_c, 3, 64, 88
4, 87240, Note_on_c, 3, 64, 0
4, 87240, Note_on_c, 3, 67, 88
4, 87360, Note_on_c, 3, 67, 0
4, 87360, Note_on_c, 3, 65, 88
4, 87480, Note_on_c, 3, 65, 0
4, 87480, Note_on_c, 3, 69, 88
4, 87600, Note_on_c, 3, 69, 0
4, 87600, Note_on_c, 3, 58, 88
4, 87720, Note_on_c, 3, 58, 0
4, 87720, Note_on_c, 3, 62, 88
4, 87804, Note_on_c, 3, 62, 0
4, 87844, Note_on_c, 3, 62, 88
4, 88048, Note_on_c, 3, 60, 88
4, 88124, Note_on_c, 3, 62, 0
4, 88320, Note_on_c, 3, 60, 0
4, 88320, Note_on_c, 3, 60, 88
4, 88800, Note_on_c, 3, 60, 0
4, 88800, Note_on_c, 3, 60, 88
4, 89280, Note_on_c, 3, 60, 0
4, 89280, Note_on_c, 3, 60, 88
4, 89820, Note_on_c, 3, 60, 0
4, 89820, Note_on_c, 3, 64, 88
4, 89880, Note_on_c, 3, 62, 88
4, 89904, Note_on_c, 3, 64, 0
4, 89940, Note_on_c, 3, 60, 88
4, 89964, Note_on_c, 3, 62, 0
4, 90000, Note_on_c, 3, 62, 88
4, 90024, Note_on_c, 3, 60, 0
4, 90060, Note_on_c, 3, 64, 88
4, 90084, Note_on_c, 3, 62, 0
4, 90120, Note_on_c, 3, 65, 88
4, 90144, Note_on_c, 3, 64, 0
4, 90180, Note_on_c, 3, 67, 88
4, 90204, Note_on_c, 3, 65, 0
4, 90240, Note_on_c, 3, 69, 88
4, 90264, Note_on_c, 3, 67, 0
4, 90300, Note_on_c, 3, 70, 88
4, 90324, Note_on_c, 3, 69, 0
4, 90720, Note_on_c, 3, 70, 0
4, 90720, Note_on_c, 3, 72, 88
4, 90780, Note_on_c, 3, 71, 88
4, 90828, Note_on_c, 3, 72, 0
4, 90840, Note_on_c, 3, 72, 88
4, 90888, Note_on_c, 3, 71, 0
4, 90900, Note_on_c, 3, 71, 88
4, 90948, Note_on_c, 3, 72, 0
4, 90960, Note_on_c, 3, 72, 88
4, 91008, Note_on_c, 3, 71, 0
4, 91020, Note_on_c, 3, 71, 88
4, 91068, Note_on_c, 3, 72, 0
4, 91080, Note_on_c, 3, 72, 88
4, 91128, Note_on_c, 3, 71, 0
4, 91140, Note_on_c, 3, 71, 88
4, 91188, Note_on_c, 3, 72, 0
4, 91200, Note_on_c, 3, 72, 88
4, 91248, Note_on_c, 3, 71, 0
4, 91260, Note_on_c, 3, 71, 88
4, 91308, Note_on_c, 3, 72, 0
4, 91320, Note_on_c, 3, 72, 88
4, 91368, Note_on_c, 3, 71, 0
4, 91380, Note_on_c, 3, 71, 88
4, 91428, Note_on_c, 3, 72, 0
4, 91440, Note_on_c, 3, 70, 88
4, 91488, Note_on_c, 3, 71, 0
4, 91560, Note_on_c, 3, 71, 88
4, 91596, Note_on_c, 3, 70, 0
4, 91680, Note_on_c, 3, 74, 88
4, 91716, Note_on_c, 3, 71, 0
4, 91916, Note_on_c, 3, 72, 88
4, 91948, Note_on_c, 3, 74, 0
4, 92088, Note_on_c, 3, 72, 0
4, 92160, Note_on_c, 3, 72, 88
4, 92799, Note_on_c, 3, 72, 0
4, 92799, Note_on_c, 3, 74, 88
4, 92960, Note_on_c, 3, 74, 0
4, 92960, Note_on_c, 3, 76, 88
4, 93120, Note_on_c, 3, 76, 0
4, 93120, Note_on_c, 3, 77, 88
4, 93279, Note_on_c, 3, 77, 0
4, 93279, Note_on_c, 3, 79, 88
4, 93440, Note_on_c, 3, 79, 0
4, 93440, Note_on_c, 3, 81, 88
4, 93600, Note_on_c, 3, 81, 0
4, 93600, Note_on_c, 3, 82, 88
4, 94080, Note_on_c, 3, 82, 0
4, 94080, Note_on_c, 3, 76, 88
4, 94272, Note_on_c, 3, 76, 0
4, 94560, Note_on_c, 3, 77, 88
4, 94752, Note_on_c, 3, 77, 0
4, 95040, Note_on_c, 3, 79, 88
4, 95280, Note_on_c, 3, 79, 0
4, 95280, Note_on_c, 3, 70, 88
4, 95520, Note_on_c, 3, 70, 0
4, 95520, Note_on_c, 3, 70, 88
4, 96000, Note_on_c, 3, 70, 0
4, 96000, Note_on_c, 3, 72, 77
4, 96030, Note_on_c, 3, 70, 78
4, 96054, Note_on_c, 3, 72, 0
4, 96060, Note_on_c, 3, 72, 78
4, 96084, Note_on_c, 3, 70, 0
4, 96090, Note_on_c, 3, 70, 78
4, 96114, Note_on_c, 3, 72, 0
4, 96120, Note_on_c, 3, 69, 78
4, 96144, Note_on_c, 3, 70, 0
4, 96180, Note_on_c, 3, 70, 82
4, 96228, Note_on_c, 3, 69, 0
4, 96240, Note_on_c, 3, 74, 88
4, 96288, Note_on_c, 3, 70, 0
4, 96480, Note_on_c, 3, 74, 0
4, 96480, Note_on_c, 3, 69, 88
4, 96480, Note_on_c, 3, 72, 88
4, 96960, Note_on_c, 3, 72, 0
4, 96960, Note_on_c, 3, 69, 0
4, 96960, Note_on_c, 3, 67, 88
4, 96960, Note_on_c, 3, 70, 88
4, 97440, Note_on_c, 3, 70, 0
4, 97440, Note_on_c, 3, 67, 0
4, 97440, Note_on_c, 3, 65, 88
4, 97440, Note_on_c, 3, 69, 88
4, 97920, Note_on_c, 3, 69, 0
4, 97920, Note_on_c, 3, 65, 0
4, 97920, Note_on_c, 3, 67, 88
4, 98079, Note_on_c, 3, 67, 0
4, 98079, Note_on_c, 3, 65, 88
4, 98240, Note_on_c, 3, 65, 0
4, 98240, Note_on_c, 3, 64, 88
4, 98400, Note_on_c, 3, 64, 0
4, 98400, Note_on_c, 3, 65, 88
4, 98559, Note_on_c, 3, 65, 0
4, 98559, Note_on_c, 3, 69, 88
4, 98720, Note_on_c, 3, 69, 0
4, 98720, Note_on_c, 3, 72, 88
4, 98880, Note_on_c, 3, 72, 0
4, 98880, Note_on_c, 3, 77, 88
4, 99039, Note_on_c, 3, 77, 0
4, 99039, Note_on_c, 3, 72, 88
4, 99200, Note_on_c, 3, 72, 0
4, 99200, Note_on_c, 3, 69, 88
4, 99360, Note_on_c, 3, 69, 0
4, 99360, Note_on_c, 3, 67, 88
4, 99519, Note_on_c, 3, 67, 0
4, 99519, Note_on_c, 3, 65, 88
4, 99680, Note_on_c, 3, 65, 0
4, 99680, Note_on_c, 3, 64, 88
4, 99840, Note_on_c, 3, 64, 0
4, 99840, Note_on_c, 3, 65, 88
4, 99999, Note_on_c, 3, 65, 0
4, 99999, Note_on_c, 3, 69, 88
4, 100160, Note_on_c, 3, 69, 0
4, 100160, Note_on_c, 3, 72, 88
4, 100320, Note_on_c, 3, 72, 0
4, 100320, Note_on_c, 3, 77, 88
4, 100479, Note_on_c, 3, 77, 0
4, 100479, Note_on_c, 3, 76, 88
4, 100640, Note_on_c, 3, 76, 0
4, 100640, Note_on_c, 3, 74, 88
4, 100800, Note_on_c, 3, 74, 0
4, 100800, Note_on_c, 3, 72, 88
4, 101040, Note_on_c, 3, 72, 0
4, 101040, Note_on_c, 3, 71, 88
4, 101280, Note_on_c, 3, 71, 0
4, 101280, Note_on_c, 3, 79, 88
4, 101520, Note_on_c, 3, 79, 0
4, 101520, Note_on_c, 3, 70, 88
4, 101616, Note_on_c, 3, 70, 0
4, 101760, Note_on_c, 3, 69, 88
4, 102000, Note_on_c, 3, 69, 0
4, 102000, Note_on_c, 3, 77, 88
4, 102096, Note_on_c, 3, 77, 0
4, 102399, Note_on_c, 3, 69, 88
4, 102560, Note_on_c, 3, 69, 0
4, 102560, Note_on_c, 3, 67, 88
4, 102720, Note_on_c, 3, 67, 0
4, 102879, Note_on_c, 3, 65, 88
4, 103040, Note_on_c, 3, 65, 0
4, 103040, Note_on_c, 3, 64, 88
4, 103200, Note_on_c, 3, 64, 0
4, 103359, Note_on_c, 3, 62, 88
4, 103520, Note_on_c, 3, 62, 0
4, 103520, Note_on_c, 3, 60, 88
4, 103680, Note_on_c, 3, 60, 0
4, 114360, Note_on_c, 3, 81, 88
4, 114480, Note_on_c, 3, 81, 0
4, 114480, Note_on_c, 3, 79, 88
4, 114600, Note_on_c, 3, 79, 0
4, 114600, Note_on_c, 3, 77, 88
4, 114720, Note_on_c, 3, 77, 0
4, 114720, Note_on_c, 3, 76, 88
4, 114840, Note_on_c, 3, 76, 0
4, 114840, Note_on_c, 3, 74, 88
4, 114960, Note_on_c, 3, 74, 0
4, 114960, Note_on_c, 3, 72, 88
4, 115080, Note_on_c, 3, 72, 0
4, 115080, Note_on_c, 3, 71, 88
4, 115200, Note_on_c, 3, 71, 0
4, 115200, Note_on_c, 3, 70, 88
4, 115320, Note_on_c, 3, 70, 0
4, 115320, Note_on_c, 3, 72, 88
4, 115440, Note_on_c, 3, 72, 0
4, 115440, Note_on_c, 3, 69, 88
4, 115560, Note_on_c, 3, 69, 0
4, 115560, Note_on_c, 3, 70, 88
4, 115680, Note_on_c, 3, 70, 0
4, 115680, Note_on_c, 3, 67, 88
4, 115800, Note_on_c, 3, 67, 0
4, 115800, Note_on_c, 3, 69, 88
4, 115920, Note_on_c, 3, 69, 0
4, 115920, Note_on_c, 3, 65, 88
4, 116040, Note_on_c, 3, 65, 0
4, 116040, Note_on_c, 3, 67, 88
4, 116160, Note_on_c, 3, 67, 0
4, 116160, Note_on_c, 3, 64, 88
4, 116280, Note_on_c, 3, 64, 0
4, 116280, Note_on_c, 3, 65, 88
4, 116400, Note_on_c, 3, 65, 0
4, 116400, Note_on_c, 3, 67, 88
4, 116520, Note_on_c, 3, 67, 0
4, 116520, Note_on_c, 3, 64, 88
4, 116640, Note_on_c, 3, 64, 0
4, 116640, Note_on_c, 3, 65, 88
4, 117120, Note_on_c, 3, 65, 0
4, 121119, Note_on_c, 3, 77, 88
4, 121280, Note_on_c, 3, 77, 0
4, 121280, Note_on_c, 3, 81, 88
4, 121440, Note_on_c, 3, 81, 0
4, 121440, Note_on_c, 3, 84, 88
4, 121599, Note_on_c, 3, 84, 0
4, 121599, Note_on_c, 3, 81, 88
4, 121760, Note_on_c, 3, 81, 0
4, 121760, Note_on_c, 3, 77, 88
4, 121920, Note_on_c, 3, 77, 0
4, 121920, Note_on_c, 3, 85, 88
4, 122079, Note_on_c, 3, 85, 0
4, 122079, Note_on_c, 3, 79, 88
4, 122240, Note_on_c, 3, 79, 0
4, 122240, Note_on_c, 3, 76, 88
4, 122400, Note_on_c, 3, 76, 0
4, 122400, Note_on_c, 3, 77, 88
4, 122400, Note_on_c, 3, 81, 88
4, 122400, Note_on_c, 3, 86, 88
4, 122880, Note_on_c, 3, 86, 0
4, 122880, Note_on_c, 3, 81, 0
4, 122880, Note_on_c, 3, 77, 0
4, 128160, Note_on_c, 3, 81, 101
4, 128880, Note_on_c, 3, 81, 0
4, 128880, Note_on_c, 3, 79, 75
4, 129000, Note_on_c, 3, 79, 0
4, 129000, Note_on_c, 3, 77, 75
4, 129120, Note_on_c, 3, 77, 0
4, 129120, Note_on_c, 3, 79, 75
4, 129240, Note_on_c, 3, 79, 0
4, 129240, Note_on_c, 3, 77, 75
4, 129360, Note_on_c, 3, 77, 0
4, 129360, Note_on_c, 3, 76, 75
4, 129480, Note_on_c, 3, 76, 0
4, 129480, Note_on_c, 3, 74, 75
4, 129600, Note_on_c, 3, 74, 0
4, 129600, Note_on_c, 3, 82, 101
4, 130320, Note_on_c, 3, 82, 0
4, 130320, Note_on_c, 3, 81, 75
4, 130440, Note_on_c, 3, 81, 0
4, 130440, Note_on_c, 3, 79, 75
4, 130560, Note_on_c, 3, 79, 0
4, 130560, Note_on_c, 3, 81, 75
4, 130680, Note_on_c, 3, 81, 0
4, 130680, Note_on_c, 3, 79, 75
4, 130800, Note_on_c, 3, 79, 0
4, 130800, Note_on_c, 3, 77, 75
4, 130920, Note_on_c, 3, 77, 0
4, 130920, Note_on_c, 3, 76, 75
4, 131040, Note_on_c, 3, 76, 0
4, 131040, Note_on_c, 3, 77, 75
4, 131160, Note_on_c, 3, 77, 0
4, 131160, Note_on_c, 3, 81, 75
4, 131280, Note_on_c, 3, 81, 0
4, 131280, Note_on_c, 3, 86, 75
4, 131400, Note_on_c, 3, 86, 0
4, 131400, Note_on_c, 3, 81, 75
4, 131520, Note_on_c, 3, 81, 0
4, 131520, Note_on_c, 3, 82, 75
4, 131640, Note_on_c, 3, 82, 0
4, 131640, Note_on_c, 3, 81, 75
4, 131760, Note_on_c, 3, 81, 0
4, 131760, Note_on_c, 3, 79, 75
4, 131880, Note_on_c, 3, 79, 0
4, 131880, Note_on_c, 3, 78, 75
4, 132000, Note_on_c, 3, 78, 0
4, 132000, Note_on_c, 3, 79, 75
4, 132120, Note_on_c, 3, 79, 0
4, 132120, Note_on_c, 3, 77, 75
4, 132240, Note_on_c, 3, 77, 0
4, 132240, Note_on_c, 3, 76, 75
4, 132360, Note_on_c, 3, 76, 0
4, 132360, Note_on_c, 3, 74, 75
4, 132480, Note_on_c, 3, 74, 0
4, 132480, Note_on_c, 3, 73, 75
4, 132600, Note_on_c, 3, 73, 0
4, 132600, Note_on_c, 3, 74, 75
4, 132720, Note_on_c, 3, 74, 0
4, 132720, Note_on_c, 3, 76, 75
4, 132840, Note_on_c, 3, 76, 0
4, 132840, Note_on_c, 3, 77, 75
4, 132960, Note_on_c, 3, 77, 0
4, 132960, Note_on_c, 3, 76, 75
4, 133440, Note_on_c, 3, 76, 0
4, 139680, Note_on_c, 3, 81, 88
4, 140400, Note_on_c, 3, 81, 0
4, 140400, Note_on_c, 3, 79, 75
4, 140520, Note_on_c, 3, 79, 0
4, 140520, Note_on_c, 3, 77, 75
4, 140640, Note_on_c, 3, 77, 0
4, 140640, Note_on_c, 3, 79, 75
4, 140760, Note_on_c, 3, 79, 0
4, 140760, Note_on_c, 3, 77, 75
4, 140880, Note_on_c, 3, 77, 0
4, 140880, Note_on_c, 3, 76, 75
4, 141000, Note_on_c, 3, 76, 0
4, 141000, Note_on_c, 3, 74, 75
4, 141120, Note_on_c, 3, 74, 0
4, 141120, Note_on_c, 3, 82, 88
4, 141840, Note_on_c, 3, 82, 0
4, 141840, Note_on_c, 3, 81, 75
4, 141960, Note_on_c, 3, 81, 0
4, 141960, Note_on_c, 3, 79, 75
4, 142080, Note_on_c, 3, 79, 0
4, 142080, Note_on_c, 3, 81, 75
4, 142200, Note_on_c, 3, 81, 0
4, 142200, Note_on_c, 3, 79, 75
4, 142320, Note_on_c, 3, 79, 0
4, 142320, Note_on_c, 3, 77, 75
4, 142440, Note_on_c, 3, 77, 0
4, 142440, Note_on_c, 3, 76, 75
4, 142560, Note_on_c, 3, 76, 0
4, 142560, Note_on_c, 3, 77, 75
4, 142680, Note_on_c, 3, 77, 0
4, 142680, Note_on_c, 3, 74, 75
4, 142800, Note_on_c, 3, 74, 0
4, 142800, Note_on_c, 3, 81, 75
4, 142920, Note_on_c, 3, 81, 0
4, 142920, Note_on_c, 3, 77, 75
4, 143040, Note_on_c, 3, 77, 0
4, 143040, Note_on_c, 3, 86, 75
4, 143280, Note_on_c, 3, 86, 0
4, 143520, Note_on_c, 3, 74, 75
4, 143760, Note_on_c, 3, 74, 0
4, 144000, Note_on_c, 3, 79, 75
4, 144120, Note_on_c, 3, 79, 0
4, 144120, Note_on_c, 3, 76, 75
4, 144240, Note_on_c, 3, 76, 0
4, 144240, Note_on_c, 3, 82, 75
4, 144360, Note_on_c, 3, 82, 0
4, 144360, Note_on_c, 3, 79, 75
4, 144480, Note_on_c, 3, 79, 0
4, 144480, Note_on_c, 3, 88, 75
4, 144720, Note_on_c, 3, 88, 0
4, 144960, Note_on_c, 3, 76, 75
4, 145200, Note_on_c, 3, 76, 0
4, 145440, Note_on_c, 3, 77, 75
4, 145560, Note_on_c, 3, 77, 0
4, 145560, Note_on_c, 3, 81, 75
4, 145680, Note_on_c, 3, 81, 0
4, 145680, Note_on_c, 3, 86, 75
4, 145800, Note_on_c, 3, 86, 0
4, 145800, Note_on_c, 3, 81, 75
4, 145920, Note_on_c, 3, 81, 0
4, 145920, Note_on_c, 3, 82, 75
4, 146040, Note_on_c, 3, 82, 0
4, 146040, Note_on_c, 3, 86, 75
4, 146160, Note_on_c, 3, 86, 0
4, 146160, Note_on_c, 3, 76, 75
4, 146280, Note_on_c, 3, 76, 0
4, 146280, Note_on_c, 3, 79, 75
4, 146400, Note_on_c, 3, 79, 0
4, 146400, Note_on_c, 3, 77, 75
4, 146520, Note_on_c, 3, 77, 0
4, 146520, Note_on_c, 3, 81, 75
4, 146640, Note_on_c, 3, 81, 0
4, 146640, Note_on_c, 3, 73, 75
4, 146760, Note_on_c, 3, 73, 0
4, 146760, Note_on_c, 3, 76, 75
4, 146880, Note_on_c, 3, 76, 0
4, 146880, Note_on_c, 3, 74, 75
4, 147120, Note_on_c, 3, 74, 0
4, 147120, Note_on_c, 3, 81, 75
4, 147360, Note_on_c, 3, 81, 0
4, 147360, Note_on_c, 3, 80, 75
4, 147600, Note_on_c, 3, 80, 0
4, 147600, Note_on_c, 3, 79, 75
4, 147840, Note_on_c, 3, 79, 0
4, 147840, Note_on_c, 3, 78, 75
4, 148080, Note_on_c, 3, 78, 0
4, 148080, Note_on_c, 3, 77, 75
4, 148320, Note_on_c, 3, 77, 0
4, 148320, Note_on_c, 3, 76, 88
4, 148560, Note_on_c, 3, 76, 0
4, 148560, Note_on_c, 3, 74, 75
4, 148800, Note_on_c, 3, 74, 0
4, 148800, Note_on_c, 3, 74, 75
4, 149040, Note_on_c, 3, 74, 0
4, 149040, Note_on_c, 3, 76, 75
4, 149160, Note_on_c, 3, 74, 75
4, 149184, Note_on_c, 3, 76, 0
4, 149280, Note_on_c, 3, 73, 75
4, 149304, Note_on_c, 3, 74, 0
4, 149400, Note_on_c, 3, 74, 75
4, 149424, Note_on_c, 3, 73, 0
4, 149520, Note_on_c, 3, 73, 75
4, 149544, Note_on_c, 3, 74, 0
4, 149640, Note_on_c, 3, 74, 75
4, 149664, Note_on_c, 3, 73, 0
4, 149700, Note_on_c, 3, 73, 75
4, 149719, Note_on_c, 3, 74, 0
4, 149760, Note_on_c, 3, 76, 75
4, 149772, Note_on_c, 3, 73, 0
4, 150240, Note_on_c, 3, 76, 0
4, 152640, Note_on_c, 3, 57, 88
4, 152880, Note_on_c, 3, 57, 0
4, 152880, Note_on_c, 3, 56, 88
4, 153120, Note_on_c, 3, 56, 0
4, 153120, Note_on_c, 3, 57, 88
4, 153360, Note_on_c, 3, 57, 0
4, 153360, Note_on_c, 3, 56, 88
4, 153600, Note_on_c, 3, 56, 0
4, 153600, Note_on_c, 3, 57, 88
4, 153840, Note_on_c, 3, 57, 0
4, 153840, Note_on_c, 3, 56, 88
4, 154080, Note_on_c, 3, 56, 0
4, 154080, Note_on_c, 3, 57, 88
4, 154320, Note_on_c, 3, 57, 0
4, 154320, Note_on_c, 3, 56, 88
4, 154560, Note_on_c, 3, 56, 0
4, 154560, Note_on_c, 3, 57, 88
4, 154800, Note_on_c, 3, 57, 0
4, 154800, Note_on_c, 3, 56, 88
4, 155040, Note_on_c, 3, 56, 0
4, 155040, Note_on_c, 3, 57, 88
4, 155280, Note_on_c, 3, 57, 0
4, 155280, Note_on_c, 3, 56, 88
4, 155520, Note_on_c, 3, 56, 0
4, 155520, Note_on_c, 3, 57, 88
4, 156000, Note_on_c, 3, 57, 0
4, 195780, Note_on_c, 3, 74, 88
4, 195840, Note_on_c, 3, 77, 88
4, 195900, Note_on_c, 3, 74, 0
4, 196320, Note_on_c, 3, 77, 0
4, 196320, Note_on_c, 3, 77, 88
4, 196800, Note_on_c, 3, 77, 0
4, 196800, Note_on_c, 3, 77, 88
4, 197280, Note_on_c, 3, 77, 0
4, 197280, Note_on_c, 3, 77, 88
4, 197760, Note_on_c, 3, 77, 0
4, 197760, Note_on_c, 3, 72, 88
4, 198240, Note_on_c, 3, 72, 0
4, 198240, Note_on_c, 3, 77, 88
4, 198720, Note_on_c, 3, 77, 0
4, 198720, Note_on_c, 3, 77, 88
4, 199200, Note_on_c, 3, 77, 0
4, 199200, Note_on_c, 3, 74, 88
4, 199680, Note_on_c, 3, 74, 0
4, 199680, Note_on_c, 3, 77, 88
4, 200160, Note_on_c, 3, 77, 0
4, 200160, Note_on_c, 3, 77, 88
4, 200640, Note_on_c, 3, 77, 0
4, 200640, Note_on_c, 3, 72, 88
4, 201120, Note_on_c, 3, 72, 0
4, 201600, Note_on_c, 3, 75, 88
4, 202080, Note_on_c, 3, 75, 0
4, 202080, Note_on_c, 3, 74, 88
4, 202560, Note_on_c, 3, 74, 0
4, 202560, Note_on_c, 3, 72, 88
4, 203040, Note_on_c, 3, 72, 0
4, 203040, Note_on_c, 3, 77, 88
4, 203520, Note_on_c, 3, 77, 0
4, 203520, Note_on_c, 3, 78, 88
4, 204000, Note_on_c, 3, 78, 0
4, 204000, Note_on_c, 3, 79, 88
4, 204480, Note_on_c, 3, 79, 0
4, 204480, Note_on_c, 3, 70, 88
4, 204960, Note_on_c, 3, 70, 0
4, 204960, Note_on_c, 3, 69, 88
4, 205440, Note_on_c, 3, 69, 0
4, 205440, Note_on_c, 3, 72, 88
4, 205500, Note_on_c, 3, 70, 88
4, 205548, Note_on_c, 3, 72, 0
4, 205560, Note_on_c, 3, 72, 88
4, 205608, Note_on_c, 3, 70, 0
4, 205620, Note_on_c, 3, 70, 88
4, 205668, Note_on_c, 3, 72, 0
4, 205680, Note_on_c, 3, 69, 88
4, 205728, Note_on_c, 3, 70, 0
4, 205800, Note_on_c, 3, 70, 88
4, 205846, Note_on_c, 3, 69, 0
4, 205920, Note_on_c, 3, 72, 88
4, 205954, Note_on_c, 3, 70, 0
4, 206400, Note_on_c, 3, 72, 0
4, 221919, Note_on_c, 3, 70, 88
4, 222080, Note_on_c, 3, 70, 0
4, 222080, Note_on_c, 3, 74, 88
4, 222240, Note_on_c, 3, 74, 0
4, 222240, Note_on_c, 3, 77, 88
4, 222399, Note_on_c, 3, 77, 0
4, 222399, Note_on_c, 3, 74, 88
4, 222560, Note_on_c, 3, 74, 0
4, 222560, Note_on_c, 3, 70, 88
4, 222720, Note_on_c, 3, 70, 0
4, 222720, Note_on_c, 3, 81, 88
4, 222879, Note_on_c, 3, 81, 0
4, 222879, Note_on_c, 3, 75, 88
4, 223040, Note_on_c, 3, 75, 0
4, 223040, Note_on_c, 3, 72, 88
4, 223200, Note_on_c, 3, 72, 0
4, 223200, Note_on_c, 3, 74, 88
4, 223200, Note_on_c, 3, 77, 88
4, 223200, Note_on_c, 3, 82, 88
4, 223680, Note_on_c, 3, 82, 0
4, 223680, Note_on_c, 3, 77, 0
4, 223680, Note_on_c, 3, 74, 0
4, 223680, Note_on_c, 3, 62, 88
4, 223680, Note_on_c, 3, 65, 88
4, 223680, Note_on_c, 3, 70, 88
4, 224160, Note_on_c, 3, 70, 0
4, 224160, Note_on_c, 3, 65, 0
4, 224160, Note_on_c, 3, 62, 0
4, 224640, Note_on_c, 3, 76, 88
4, 224760, Note_on_c, 3, 76, 0
4, 224760, Note_on_c, 3, 77, 88
4, 224880, Note_on_c, 3, 77, 0
4, 224880, Note_on_c, 3, 79, 88
4, 225000, Note_on_c, 3, 79, 0
4, 225000, Note_on_c, 3, 77, 88
4, 225120, Note_on_c, 3, 77, 0
4, 225120, Note_on_c, 3, 76, 88
4, 225240, Note_on_c, 3, 76, 0
4, 225240, Note_on_c, 3, 77, 88
4, 225360, Note_on_c, 3, 77, 0
4, 225360, Note_on_c, 3, 79, 88
4, 225480, Note_on_c, 3, 79, 0
4, 225480, Note_on_c, 3, 77, 88
4, 225600, Note_on_c, 3, 77, 0
4, 225600, Note_on_c, 3, 77, 88
4, 226080, Note_on_c, 3, 77, 0
4, 226080, Note_on_c, 3, 76, 88
4, 226200, Note_on_c, 3, 76, 0
4, 226200, Note_on_c, 3, 77, 88
4, 226320, Note_on_c, 3, 77, 0
4, 226320, Note_on_c, 3, 79, 88
4, 226440, Note_on_c, 3, 79, 0
4, 226440, Note_on_c, 3, 77, 88
4, 226560, Note_on_c, 3, 77, 0
4, 226560, Note_on_c, 3, 76, 88
4, 226680, Note_on_c, 3, 76, 0
4, 226680, Note_on_c, 3, 77, 88
4, 226800, Note_on_c, 3, 77, 0
4, 226800, Note_on_c, 3, 79, 88
4, 226920, Note_on_c, 3, 79, 0
4, 226920, Note_on_c, 3, 77, 88
4, 227040, Note_on_c, 3, 77, 0
4, 227040, Note_on_c, 3, 77, 88
4, 227520, Note_on_c, 3, 77, 0
4, 227520, Note_on_c, 3, 76, 88
4, 227640, Note_on_c, 3, 76, 0
4, 227640, Note_on_c, 3, 77, 88
4, 227760, Note_on_c, 3, 77, 0
4, 227760, Note_on_c, 3, 79, 88
4, 227880, Note_on_c, 3, 79, 0
4, 227880, Note_on_c, 3, 77, 88
4, 228000, Note_on_c, 3, 77, 0
4, 228000, Note_on_c, 3, 76, 88
4, 228120, Note_on_c, 3, 76, 0
4, 228120, Note_on_c, 3, 77, 88
4, 228240, Note_on_c, 3, 77, 0
4, 228240, Note_on_c, 3, 79, 88
4, 228360, Note_on_c, 3, 79, 0
4, 228360, Note_on_c, 3, 81, 88
4, 228480, Note_on_c, 3, 81, 0
4, 228480, Note_on_c, 3, 82, 88
4, 228600, Note_on_c, 3, 82, 0
4, 228600, Note_on_c, 3, 84, 88
4, 228720, Note_on_c, 3, 84, 0
4, 228720, Note_on_c, 3, 86, 88
4, 228840, Note_on_c, 3, 86, 0
4, 228840, Note_on_c, 3, 84, 88
4, 228960, Note_on_c, 3, 84, 0
4, 228960, Note_on_c, 3, 84, 88
4, 229440, Note_on_c, 3, 84, 0
4, 229440, Note_on_c, 3, 82, 88
4, 229800, Note_on_c, 3, 81, 88
4, 229848, Note_on_c, 3, 82, 0
4, 229860, Note_on_c, 3, 82, 88
4, 229908, Note_on_c, 3, 81, 0
4, 229920, Note_on_c, 3, 81, 88
4, 229968, Note_on_c, 3, 82, 0
4, 230400, Note_on_c, 3, 81, 0
4, 235680, Note_on_c, 3, 72, 88
4, 235800, Note_on_c, 3, 72, 0
4, 235800, Note_on_c, 3, 71, 88
4, 235920, Note_on_c, 3, 71, 0
4, 235920, Note_on_c, 3, 72, 88
4, 236040, Note_on_c, 3, 72, 0
4, 236040, Note_on_c, 3, 71, 88
4, 236160, Note_on_c, 3, 71, 0
4, 236160, Note_on_c, 3, 72, 88
4, 236400, Note_on_c, 3, 72, 0
4, 236400, Note_on_c, 3, 81, 88
4, 236640, Note_on_c, 3, 81, 0
4, 236640, Note_on_c, 3, 79, 88
4, 236880, Note_on_c, 3, 79, 0
4, 236880, Note_on_c, 3, 77, 88
4, 237120, Note_on_c, 3, 77, 0
4, 237120, Note_on_c, 3, 76, 88
4, 237360, Note_on_c, 3, 76, 0
4, 237360, Note_on_c, 3, 74, 88
4, 237600, Note_on_c, 3, 74, 0
4, 237600, Note_on_c, 3, 72, 88
4, 237840, Note_on_c, 3, 72, 0
4, 237840, Note_on_c, 3, 71, 88
4, 238080, Note_on_c, 3, 71, 0
4, 238080, Note_on_c, 3, 70, 88
4, 238680, Note_on_c, 3, 70, 0
4, 238680, Note_on_c, 3, 74, 88
4, 238800, Note_on_c, 3, 74, 0
4, 238800, Note_on_c, 3, 72, 88
4, 238920, Note_on_c, 3, 72, 0
4, 238920, Note_on_c, 3, 70, 88
4, 239040, Note_on_c, 3, 70, 0
4, 239040, Note_on_c, 3, 69, 88
4, 239280, Note_on_c, 3, 69, 0
4, 239280, Note_on_c, 3, 72, 88
4, 239520, Note_on_c, 3, 72, 0
4, 239520, Note_on_c, 3, 77, 88
4, 239760, Note_on_c, 3, 77, 0
4, 239760, Note_on_c, 3, 72, 88
4, 240000, Note_on_c, 3, 72, 0
4, 240000, Note_on_c, 3, 70, 88
4, 240240, Note_on_c, 3, 70, 0
4, 240240, Note_on_c, 3, 69, 88
4, 240480, Note_on_c, 3, 69, 0
4, 240480, Note_on_c, 3, 72, 88
4, 240840, Note_on_c, 3, 72, 0
4, 240840, Note_on_c, 3, 69, 88
4, 240960, Note_on_c, 3, 69, 0
4, 240960, Note_on_c, 3, 67, 88
4, 241440, Note_on_c, 3, 67, 0
4, 246960, Note_on_c, 3, 72, 88
4, 247200, Note_on_c, 3, 72, 0
4, 247200, Note_on_c, 3, 84, 88
4, 247320, Note_on_c, 3, 84, 0
4, 247320, Note_on_c, 3, 82, 88
4, 247440, Note_on_c, 3, 82, 0
4, 247440, Note_on_c, 3, 81, 88
4, 247560, Note_on_c, 3, 81, 0
4, 247560, Note_on_c, 3, 79, 88
4, 247680, Note_on_c, 3, 79, 0
4, 247680, Note_on_c, 3, 77, 88
4, 247800, Note_on_c, 3, 77, 0
4, 247800, Note_on_c, 3, 79, 88
4, 247920, Note_on_c, 3, 79, 0
4, 247920, Note_on_c, 3, 76, 88
4, 248040, Note_on_c, 3, 76, 0
4, 248040, Note_on_c, 3, 79, 88
4, 248160, Note_on_c, 3, 79, 0
4, 248160, Note_on_c, 3, 77, 88
4, 248256, Note_on_c, 3, 77, 0
4, 248400, Note_on_c, 3, 77, 88
4, 248496, Note_on_c, 3, 77, 0
4, 248640, Note_on_c, 3, 79, 88
4, 248736, Note_on_c, 3, 79, 0
4, 248880, Note_on_c, 3, 79, 88
4, 248976, Note_on_c, 3, 79, 0
4, 249120, Note_on_c, 3, 81, 88
4, 249240, Note_on_c, 3, 81, 0
4, 249240, Note_on_c, 3, 82, 88
4, 249360, Note_on_c, 3, 82, 0
4, 249360, Note_on_c, 3, 79, 88
4, 249480, Note_on_c, 3, 79, 0
4, 249480, Note_on_c, 3, 82, 88
4, 249600, Note_on_c, 3, 82, 0
4, 249600, Note_on_c, 3, 81, 88
4, 249696, Note_on_c, 3, 81, 0
4, 249840, Note_on_c, 3, 81, 88
4, 249936, Note_on_c, 3, 81, 0
4, 250080, Note_on_c, 3, 82, 88
4, 250176, Note_on_c, 3, 82, 0
4, 250320, Note_on_c, 3, 82, 88
4, 250416, Note_on_c, 3, 82, 0
4, 250560, Note_on_c, 3, 84, 88
4, 251160, Note_on_c, 3, 84, 0
4, 251160, Note_on_c, 3, 81, 88
4, 251280, Note_on_c, 3, 81, 0
4, 251280, Note_on_c, 3, 79, 88
4, 251400, Note_on_c, 3, 79, 0
4, 251400, Note_on_c, 3, 77, 88
4, 251520, Note_on_c, 3, 77, 0
4, 251520, Note_on_c, 3, 77, 88
4, 251640, Note_on_c, 3, 77, 0
4, 251640, Note_on_c, 3, 76, 88
4, 251760, Note_on_c, 3, 76, 0
4, 251760, Note_on_c, 3, 74, 88
4, 251880, Note_on_c, 3, 74, 0
4, 251880, Note_on_c, 3, 76, 88
4, 252000, Note_on_c, 3, 76, 0
4, 252000, Note_on_c, 3, 77, 88
4, 252240, Note_on_c, 3, 77, 0
4, 252240, Note_on_c, 3, 72, 88
4, 252480, Note_on_c, 3, 72, 0
4, 252480, Note_on_c, 3, 74, 88
4, 252540, Note_on_c, 3, 72, 88
4, 252588, Note_on_c, 3, 74, 0
4, 252600, Note_on_c, 3, 74, 88
4, 252648, Note_on_c, 3, 72, 0
4, 252660, Note_on_c, 3, 72, 88
4, 252708, Note_on_c, 3, 74, 0
4, 252720, Note_on_c, 3, 74, 88
4, 252768, Note_on_c, 3, 72, 0
4, 252780, Note_on_c, 3, 72, 88
4, 252828, Note_on_c, 3, 74, 0
4, 252840, Note_on_c, 3, 74, 88
4, 252888, Note_on_c, 3, 72, 0
4, 252900, Note_on_c, 3, 72, 88
4, 252948, Note_on_c, 3, 74, 0
4, 252960, Note_on_c, 3, 74, 88
4, 253008, Note_on_c, 3, 72, 0
4, 253020, Note_on_c, 3, 72, 88
4, 253068, Note_on_c, 3, 74, 0
4, 253080, Note_on_c, 3, 74, 88
4, 253128, Note_on_c, 3, 72, 0
4, 253140, Note_on_c, 3, 72, 88
4, 253188, Note_on_c, 3, 74, 0
4, 253200, Note_on_c, 3, 74, 88
4, 253248, Note_on_c, 3, 72, 0
4, 253260, Note_on_c, 3, 72, 88
4, 253308, Note_on_c, 3, 74, 0
4, 253320, Note_on_c, 3, 71, 88
4, 253368, Note_on_c, 3, 72, 0
4, 253440, Note_on_c, 3, 72, 88
4, 253472, Note_on_c, 3, 71, 0
4, 253536, Note_on_c, 3, 72, 0
4, 253680, Note_on_c, 3, 70, 88
4, 253776, Note_on_c, 3, 70, 0
4, 253920, Note_on_c, 3, 69, 88
4, 254016, Note_on_c, 3, 69, 0
4, 254160, Note_on_c, 3, 67, 88
4, 254256, Note_on_c, 3, 67, 0
4, 254400, Note_on_c, 3, 65, 88
4, 254496, Note_on_c, 3, 65, 0
4, 254640, Note_on_c, 3, 64, 88
4, 254736, Note_on_c, 3, 64, 0
4, 254880, Note_on_c, 3, 62, 88
4, 255360, Note_on_c, 3, 62, 0
4, 255840, Note_on_c, 3, 62, 88
4, 255840, Note_on_c, 3, 65, 88
4, 256320, Note_on_c, 3, 65, 0
4, 256320, Note_on_c, 3, 62, 0
4, 256320, Note_on_c, 3, 60, 88
4, 256320, Note_on_c, 3, 65, 88
4, 256560, Note_on_c, 3, 65, 0
4, 256560, Note_on_c, 3, 60, 0
4, 256560, Note_on_c, 3, 62, 88
4, 256560, Note_on_c, 3, 70, 88
4, 256680, Note_on_c, 3, 70, 0
4, 256680, Note_on_c, 3, 67, 88
4, 256800, Note_on_c, 3, 67, 0
4, 256800, Note_on_c, 3, 62, 0
4, 256800, Note_on_c, 3, 65, 88
4, 257280, Note_on_c, 3, 65, 0
4, 257280, Note_on_c, 3, 65, 88
4, 257340, Note_on_c, 3, 64, 88
4, 257388, Note_on_c, 3, 65, 0
4, 257400, Note_on_c, 3, 65, 88
4, 257448, Note_on_c, 3, 64, 0
4, 257460, Note_on_c, 3, 64, 88
4, 257508, Note_on_c, 3, 65, 0
4, 257520, Note_on_c, 3, 62, 88
4, 257568, Note_on_c, 3, 64, 0
4, 257640, Note_on_c, 3, 64, 88
4, 257680, Note_on_c, 3, 62, 0
4, 257720, Note_on_c, 3, 64, 0
4, 257760, Note_on_c, 3, 77, 88
4, 257880, Note_on_c, 3, 77, 0
4, 257880, Note_on_c, 3, 79, 88
4, 258000, Note_on_c, 3, 79, 0
4, 258000, Note_on_c, 3, 76, 88
4, 258120, Note_on_c, 3, 76, 0
4, 258120, Note_on_c, 3, 77, 88
4, 258240, Note_on_c, 3, 77, 0
4, 258240, Note_on_c, 3, 74, 88
4, 258360, Note_on_c, 3, 74, 0
4, 258360, Note_on_c, 3, 76, 88
4, 258480, Note_on_c, 3, 76, 0
4, 258480, Note_on_c, 3, 72, 88
4, 258600, Note_on_c, 3, 72, 0
4, 258600, Note_on_c, 3, 74, 88
4, 258720, Note_on_c, 3, 74, 0
4, 258720, Note_on_c, 3, 70, 88
4, 258840, Note_on_c, 3, 70, 0
4, 258840, Note_on_c, 3, 72, 88
4, 258960, Note_on_c, 3, 72, 0
4, 258960, Note_on_c, 3, 69, 88
4, 259080, Note_on_c, 3, 69, 0
4, 259080, Note_on_c, 3, 70, 88
4, 259200, Note_on_c, 3, 70, 0
4, 259200, Note_on_c, 3, 67, 88
4, 259320, Note_on_c, 3, 67, 0
4, 259320, Note_on_c, 3, 69, 88
4, 259440, Note_on_c, 3, 69, 0
4, 259440, Note_on_c, 3, 70, 88
4, 259560, Note_on_c, 3, 70, 0
4, 259560, Note_on_c, 3, 72, 88
4, 259680, Note_on_c, 3, 72, 0
4, 259680, Note_on_c, 3, 74, 88
4, 259800, Note_on_c, 3, 74, 0
4, 259800, Note_on_c, 3, 76, 88
4, 259920, Note_on_c, 3, 76, 0
4, 259920, Note_on_c, 3, 77, 88
4, 260040, Note_on_c, 3, 77, 0
4, 260040, Note_on_c, 3, 76, 88
4, 260160, Note_on_c, 3, 76, 0
4, 260160, Note_on_c, 3, 79, 88
4, 260280, Note_on_c, 3, 79, 0
4, 260280, Note_on_c, 3, 77, 88
4, 260400, Note_on_c, 3, 77, 0
4, 260400, Note_on_c, 3, 76, 88
4, 260520, Note_on_c, 3, 76, 0
4, 260520, Note_on_c, 3, 74, 88
4, 260640, Note_on_c, 3, 74, 0
4, 260640, Note_on_c, 3, 74, 88
4, 260760, Note_on_c, 3, 74, 0
4, 260760, Note_on_c, 3, 72, 88
4, 260880, Note_on_c, 3, 72, 0
4, 260880, Note_on_c, 3, 74, 88
4, 261000, Note_on_c, 3, 74, 0
4, 261000, Note_on_c, 3, 70, 88
4, 261120, Note_on_c, 3, 70, 0
4, 261120, Note_on_c, 3, 69, 88
4, 261600, Note_on_c, 3, 69, 0
4, 261600, Note_on_c, 3, 69, 88
4, 261660, Note_on_c, 3, 67, 88
4, 261708, Note_on_c, 3, 69, 0
4, 261720, Note_on_c, 3, 69, 88
4, 261768, Note_on_c, 3, 67, 0
4, 261780, Note_on_c, 3, 67, 88
4, 261828, Note_on_c, 3, 69, 0
4, 261840, Note_on_c, 3, 65, 88
4, 261888, Note_on_c, 3, 67, 0
4, 261960, Note_on_c, 3, 67, 88
4, 261996, Note_on_c, 3, 65, 0
4, 262040, Note_on_c, 3, 67, 0
4, 262080, Note_on_c, 3, 65, 88
4, 263520, Note_on_c, 3, 65, 0
4, 263520, Note_on_c, 3, 65, 88
4, 263640, Note_on_c, 3, 63, 88
4, 263672, Note_on_c, 3, 65, 0
4, 263760, Note_on_c, 3, 65, 88
4, 263780, Note_on_c, 3, 63, 0
4, 263820, Note_on_c, 3, 63, 88
4, 263868, Note_on_c, 3, 65, 0
4, 263880, Note_on_c, 3, 65, 88
4, 263928, Note_on_c, 3, 63, 0
4, 263940, Note_on_c, 3, 63, 88
4, 263988, Note_on_c, 3, 65, 0
4, 264000, Note_on_c, 3, 65, 88
4, 264048, Note_on_c, 3, 63, 0
4, 264060, Note_on_c, 3, 63, 88
4, 264108, Note_on_c, 3, 65, 0
4, 264120, Note_on_c, 3, 65, 88
4, 264168, Note_on_c, 3, 63, 0
4, 264180, Note_on_c, 3, 63, 88
4, 264228, Note_on_c, 3, 65, 0
4, 264240, Note_on_c, 3, 65, 88
4, 264288, Note_on_c, 3, 63, 0
4, 264300, Note_on_c, 3, 63, 88
4, 264348, Note_on_c, 3, 65, 0
4, 264360, Note_on_c, 3, 65, 88
4, 264408, Note_on_c, 3, 63, 0
4, 264420, Note_on_c, 3, 63, 88
4, 264468, Note_on_c, 3, 65, 0
4, 264480, Note_on_c, 3, 65, 88
4, 264528, Note_on_c, 3, 63, 0
4, 264540, Note_on_c, 3, 63, 88
4, 264588, Note_on_c, 3, 65, 0
4, 264600, Note_on_c, 3, 65, 88
4, 264648, Note_on_c, 3, 63, 0
4, 264660, Note_on_c, 3, 63, 88
4, 264708, Note_on_c, 3, 65, 0
4, 264720, Note_on_c, 3, 62, 88
4, 264768, Note_on_c, 3, 63, 0
4, 264840, Note_on_c, 3, 63, 88
4, 264864, Note_on_c, 3, 62, 0
4, 264960, Note_on_c, 3, 62, 88
4, 265000, Note_on_c, 3, 63, 0
4, 265128, Note_on_c, 3, 62, 0
4, 265200, Note_on_c, 3, 74, 88
4, 265364, Note_on_c, 3, 74, 0
4, 265380, Note_on_c, 3, 73, 88
4, 265440, Note_on_c, 3, 74, 88
4, 265484, Note_on_c, 3, 73, 0
4, 266342, Note_on_c, 3, 74, 0
4, 266400, Note_on_c, 3, 72, 88
4, 266520, Note_on_c, 3, 70, 88
4, 266566, Note_on_c, 3, 72, 0
4, 266614, Note_on_c, 3, 70, 0
4, 266880, Note_on_c, 3, 69, 88
4, 267000, Note_on_c, 3, 67, 88
4, 267030, Note_on_c, 3, 69, 0
4, 267090, Note_on_c, 3, 67, 0
4, 267360, Note_on_c, 3, 65, 88
4, 267480, Note_on_c, 3, 64, 88
4, 267518, Note_on_c, 3, 65, 0
4, 267558, Note_on_c, 3, 64, 0
4, 267840, Note_on_c, 3, 65, 88
4, 267960, Note_on_c, 3, 65, 0
4, 267960, Note_on_c, 3, 57, 88
4, 268080, Note_on_c, 3, 57, 0
4, 268080, Note_on_c, 3, 60, 88
4, 268200, Note_on_c, 3, 60, 0
4, 268200, Note_on_c, 3, 57, 88
4, 268320, Note_on_c, 3, 57, 0
4, 268440, Note_on_c, 3, 57, 88
4, 268560, Note_on_c, 3, 57, 0
4, 268560, Note_on_c, 3, 60, 88
4, 268680, Note_on_c, 3, 60, 0
4, 268680, Note_on_c, 3, 57, 88
4, 268800, Note_on_c, 3, 57, 0
4, 268920, Note_on_c, 3, 57, 88
4, 269040, Note_on_c, 3, 57, 0
4, 269040, Note_on_c, 3, 60, 88
4, 269160, Note_on_c, 3, 60, 0
4, 269160, Note_on_c, 3, 57, 88
4, 269280, Note_on_c, 3, 57, 0
4, 269400, Note_on_c, 3, 60, 88
4, 269520, Note_on_c, 3, 60, 0
4, 269520, Note_on_c, 3, 69, 88
4, 269640, Note_on_c, 3, 69, 0
4, 269640, Note_on_c, 3, 60, 88
4, 269760, Note_on_c, 3, 60, 0
4, 269880, Note_on_c, 3, 60, 88
4, 270000, Note_on_c, 3, 60, 0
4, 270000, Note_on_c, 3, 69, 88
4, 270120, Note_on_c, 3, 69, 0
4, 270120, Note_on_c, 3, 60, 88
4, 270240, Note_on_c, 3, 60, 0
4, 270360, Note_on_c, 3, 60, 88
4, 270480, Note_on_c, 3, 60, 0
4, 270480, Note_on_c, 3, 69, 88
4, 270600, Note_on_c, 3, 69, 0
4, 270600, Note_on_c, 3, 60, 88
4, 270720, Note_on_c, 3, 60, 0
4, 270840, Note_on_c, 3, 62, 88
4, 270960, Note_on_c, 3, 62, 0
4, 270960, Note_on_c, 3, 70, 88
4, 271080, Note_on_c, 3, 70, 0
4, 271080, Note_on_c, 3, 62, 88
4, 271200, Note_on_c, 3, 62, 0
4, 271320, Note_on_c, 3, 70, 88
4, 271440, Note_on_c, 3, 70, 0
4, 271440, Note_on_c, 3, 74, 88
4, 271560, Note_on_c, 3, 74, 0
4, 271560, Note_on_c, 3, 70, 88
4, 271680, Note_on_c, 3, 70, 0
4, 271800, Note_on_c, 3, 70, 88
4, 271920, Note_on_c, 3, 70, 0
4, 271920, Note_on_c, 3, 74, 88
4, 272040, Note_on_c, 3, 74, 0
4, 272040, Note_on_c, 3, 70, 88
4, 272160, Note_on_c, 3, 70, 0
4, 272280, Note_on_c, 3, 70, 88
4, 272400, Note_on_c, 3, 70, 0
4, 272400, Note_on_c, 3, 79, 88
4, 272520, Note_on_c, 3, 79, 0
4, 272520, Note_on_c, 3, 70, 88
4, 272640, Note_on_c, 3, 70, 0
4, 272760, Note_on_c, 3, 70, 88
4, 272880, Note_on_c, 3, 70, 0
4, 272880, Note_on_c, 3, 79, 88
4, 273000, Note_on_c, 3, 79, 0
4, 273000, Note_on_c, 3, 70, 88
4, 273120, Note_on_c, 3, 70, 0
4, 273240, Note_on_c, 3, 67, 88
4, 273360, Note_on_c, 3, 67, 0
4, 273360, Note_on_c, 3, 76, 88
4, 273480, Note_on_c, 3, 76, 0
4, 273480, Note_on_c, 3, 67, 88
4, 273600, Note_on_c, 3, 67, 0
4, 273600, Note_on_c, 3, 69, 88
4, 273600, Note_on_c, 3, 72, 88
4, 273600, Note_on_c, 3, 77, 88
4, 274080, Note_on_c, 3, 77, 0
4, 274080, Note_on_c, 3, 72, 0
4, 274080, Note_on_c, 3, 69, 0
4, 274200, Note_on_c, 3, 81, 88
4, 274320, Note_on_c, 3, 81, 0
4, 274320, Note_on_c, 3, 79, 88
4, 274440, Note_on_c, 3, 79, 0
4, 274440, Note_on_c, 3, 77, 88
4, 274560, Note_on_c, 3, 77, 0
4, 274560, Note_on_c, 3, 76, 88
4, 274680, Note_on_c, 3, 76, 0
4, 274680, Note_on_c, 3, 74, 88
4, 274800, Note_on_c, 3, 74, 0
4, 274800, Note_on_c, 3, 72, 88
4, 274920, Note_on_c, 3, 72, 0
4, 274920, Note_on_c, 3, 71, 88
4, 275040, Note_on_c, 3, 71, 0
4, 275040, Note_on_c, 3, 70, 88
4, 275160, Note_on_c, 3, 70, 0
4, 275160, Note_on_c, 3, 72, 88
4, 275280, Note_on_c, 3, 72, 0
4, 275280, Note_on_c, 3, 69, 88
4, 275400, Note_on_c, 3, 69, 0
4, 275400, Note_on_c, 3, 70, 88
4, 275520, Note_on_c, 3, 70, 0
4, 275520, Note_on_c, 3, 67, 88
4, 275640, Note_on_c, 3, 67, 0
4, 275640, Note_on_c, 3, 69, 88
4, 275760, Note_on_c, 3, 69, 0
4, 275760, Note_on_c, 3, 65, 88
4, 275880, Note_on_c, 3, 65, 0
4, 275880, Note_on_c, 3, 67, 88
4, 276000, Note_on_c, 3, 67, 0
4, 276000, Note_on_c, 3, 64, 88
4, 276120, Note_on_c, 3, 64, 0
4, 276120, Note_on_c, 3, 65, 88
4, 276240, Note_on_c, 3, 65, 0
4, 276240, Note_on_c, 3, 67, 88
4, 276360, Note_on_c, 3, 67, 0
4, 276360, Note_on_c, 3, 64, 88
4, 276480, Note_on_c, 3, 64, 0
4, 276480, Note_on_c, 3, 65, 88
4, 276960, Note_on_c, 3, 65, 0
4, 280320, Note_on_c, 3, 77, 88
4, 280320, Note_on_c, 3, 81, 88
4, 280800, Note_on_c, 3, 81, 0
4, 280800, Note_on_c, 3, 77, 0
4, 280800, Note_on_c, 3, 79, 88
4, 280800, Note_on_c, 3, 82, 88
4, 281280, Note_on_c, 3, 82, 0
4, 281280, Note_on_c, 3, 79, 0
4, 281760, Note_on_c, 3, 76, 88
4, 281760, Note_on_c, 3, 79, 88
4, 282240, Note_on_c, 3, 79, 0
4, 282240, Note_on_c, 3, 76, 0
4, 282240, Note_on_c, 3, 81, 88
4, 282240, Note_on_c, 3, 84, 88
4, 282720, Note_on_c, 3, 84, 0
4, 282720, Note_on_c, 3, 81, 0
4, 283200, Note_on_c, 3, 77, 88
4, 283200, Note_on_c, 3, 81, 88
4, 283680, Note_on_c, 3, 81, 0
4, 283680, Note_on_c, 3, 77, 0
4, 283680, Note_on_c, 3, 79, 88
4, 283680, Note_on_c, 3, 82, 88
4, 284160, Note_on_c, 3, 82, 0
4, 284160, Note_on_c, 3, 79, 0
4, 284640, Note_on_c, 3, 76, 88
4, 284640, Note_on_c, 3, 79, 88
4, 285120, Note_on_c, 3, 79, 0
4, 285120, Note_on_c, 3, 76, 0
4, 285120, Note_on_c, 3, 77, 88
4, 285600, Note_on_c, 3, 77, 0
4, 286080, Note_on_c, 3, 77, 88
4, 286200, Note_on_c, 3, 77, 0
4, 286200, Note_on_c, 3, 81, 88
4, 286320, Note_on_c, 3, 81, 0
4, 286320, Note_on_c, 3, 77, 88
4, 286440, Note_on_c, 3, 77, 0
4, 286440, Note_on_c, 3, 81, 88
4, 286560, Note_on_c, 3, 81, 0
4, 286560, Note_on_c, 3, 74, 88
4, 286680, Note_on_c, 3, 74, 0
4, 286680, Note_on_c, 3, 82, 88
4, 286800, Note_on_c, 3, 82, 0
4, 286800, Note_on_c, 3, 74, 88
4, 286920, Note_on_c, 3, 74, 0
4, 286920, Note_on_c, 3, 82, 88
4, 287040, Note_on_c, 3, 82, 0
4, 287040, Note_on_c, 3, 74, 88
4, 287160, Note_on_c, 3, 74, 0
4, 287160, Note_on_c, 3, 82, 88
4, 287280, Note_on_c, 3, 82, 0
4, 287280, Note_on_c, 3, 74, 88
4, 287400, Note_on_c, 3, 74, 0
4, 287400, Note_on_c, 3, 82, 88
4, 287520, Note_on_c, 3, 82, 0
4, 287520, Note_on_c, 3, 76, 88
4, 287640, Note_on_c, 3, 76, 0
4, 287640, Note_on_c, 3, 79, 88
4, 287760, Note_on_c, 3, 79, 0
4, 287760, Note_on_c, 3, 76, 88
4, 287880, Note_on_c, 3, 76, 0
4, 287880, Note_on_c, 3, 79, 88
4, 288000, Note_on_c, 3, 79, 0
4, 288000, Note_on_c, 3, 72, 88
4, 288120, Note_on_c, 3, 72, 0
4, 288120, Note_on_c, 3, 84, 88
4, 288240, Note_on_c, 3, 84, 0
4, 288240, Note_on_c, 3, 72, 88
4, 288360, Note_on_c, 3, 72, 0
4, 288360, Note_on_c, 3, 84, 88
4, 288480, Note_on_c, 3, 84, 0
4, 288480, Note_on_c, 3, 72, 88
4, 288600, Note_on_c, 3, 72, 0
4, 288600, Note_on_c, 3, 84, 88
4, 288720, Note_on_c, 3, 84, 0
4, 288720, Note_on_c, 3, 72, 88
4, 288840, Note_on_c, 3, 72, 0
4, 288840, Note_on_c, 3, 84, 88
4, 288960, Note_on_c, 3, 84, 0
4, 288960, Note_on_c, 3, 77, 88
4, 289080, Note_on_c, 3, 77, 0
4, 289080, Note_on_c, 3, 81, 88
4, 289200, Note_on_c, 3, 81, 0
4, 289200, Note_on_c, 3, 77, 88
4, 289320, Note_on_c, 3, 77, 0
4, 289320, Note_on_c, 3, 81, 88
4, 289440, Note_on_c, 3, 81, 0
4, 289440, Note_on_c, 3, 74, 88
4, 289560, Note_on_c, 3, 74, 0
4, 289560, Note_on_c, 3, 82, 88
4, 289680, Note_on_c, 3, 82, 0
4, 289680, Note_on_c, 3, 74, 88
4, 289800, Note_on_c, 3, 74, 0
4, 289800, Note_on_c, 3, 82, 88
4, 289920, Note_on_c, 3, 82, 0
4, 289920, Note_on_c, 3, 74, 88
4, 290040, Note_on_c, 3, 74, 0
4, 290040, Note_on_c, 3, 82, 88
4, 290160, Note_on_c, 3, 82, 0
4, 290160, Note_on_c, 3, 74, 88
4, 290280, Note_on_c, 3, 74, 0
4, 290280, Note_on_c, 3, 82, 88
4, 290400, Note_on_c, 3, 82, 0
4, 290400, Note_on_c, 3, 76, 88
4, 290520, Note_on_c, 3, 76, 0
4, 290520, Note_on_c, 3, 79, 88
4, 290640, Note_on_c, 3, 79, 0
4, 290640, Note_on_c, 3, 76, 88
4, 290760, Note_on_c, 3, 76, 0
4, 290760, Note_on_c, 3, 79, 88
4, 290880, Note_on_c, 3, 79, 0
4, 290880, Note_on_c, 3, 77, 88
4, 291072, Note_on_c, 3, 77, 0
4, 291360, Note_on_c, 3, 57, 88
4, 291552, Note_on_c, 3, 57, 0
4, 291840, Note_on_c, 3, 60, 88
4, 292032, Note_on_c, 3, 60, 0
4, 292320, Note_on_c, 3, 65, 88
4, 292512, Note_on_c, 3, 65, 0
4, 292800, Note_on_c, 3, 69, 88
4, 292992, Note_on_c, 3, 69, 0
4, 293280, Note_on_c, 3, 72, 88
4, 293472, Note_on_c, 3, 72, 0
4, 293760, Note_on_c, 3, 77, 88
4, 294720, Note_on_c, 3, 77, 0
4, 294960, Note_on_c, 3, 89, 88
4, 295200, Note_on_c, 3, 89, 0
4, 295200, Note_on_c, 3, 88, 88
4, 295440, Note_on_c, 3, 88, 0
4, 295440, Note_on_c, 3, 86, 88
4, 295680, Note_on_c, 3, 86, 0
4, 295680, Note_on_c, 3, 85, 88
4, 295920, Note_on_c, 3, 85, 0
4, 295920, Note_on_c, 3, 86, 88
4, 296160, Note_on_c, 3, 86, 0
4, 296160, Note_on_c, 3, 84, 88
4, 296400, Note_on_c, 3, 84, 0
4, 296400, Note_on_c, 3, 82, 88
4, 296640, Note_on_c, 3, 82, 0
4, 296640, Note_on_c, 3, 81, 88
4, 296880, Note_on_c, 3, 81, 0
4, 296880, Note_on_c, 3, 82, 88
4, 297120, Note_on_c, 3, 82, 0
4, 297120, Note_on_c, 3, 81, 88
4, 297360, Note_on_c, 3, 81, 0
4, 297360, Note_on_c, 3, 79, 88
4, 297600, Note_on_c, 3, 79, 0
4, 297600, Note_on_c, 3, 78, 88
4, 297840, Note_on_c, 3, 78, 0
4, 297840, Note_on_c, 3, 79, 88
4, 298080, Note_on_c, 3, 79, 0
4, 298080, Note_on_c, 3, 86, 88
4, 299040, Note_on_c, 3, 86, 0
4, 299280, Note_on_c, 3, 82, 88
4, 299400, Note_on_c, 3, 82, 0
4, 299400, Note_on_c, 3, 79, 88
4, 299520, Note_on_c, 3, 79, 0
4, 299520, Note_on_c, 3, 77, 88
4, 299640, Note_on_c, 3, 77, 0
4, 299640, Note_on_c, 3, 76, 88
4, 299760, Note_on_c, 3, 76, 0
4, 299760, Note_on_c, 3, 79, 88
4, 299880, Note_on_c, 3, 79, 0
4, 299880, Note_on_c, 3, 76, 88
4, 300000, Note_on_c, 3, 76, 0
4, 300000, Note_on_c, 3, 74, 88
4, 300120, Note_on_c, 3, 74, 0
4, 300120, Note_on_c, 3, 72, 88
4, 300240, Note_on_c, 3, 72, 0
4, 300240, Note_on_c, 3, 74, 88
4, 300360, Note_on_c, 3, 74, 0
4, 300360, Note_on_c, 3, 70, 88
4, 300480, Note_on_c, 3, 70, 0
4, 300480, Note_on_c, 3, 69, 88
4, 300600, Note_on_c, 3, 69, 0
4, 300600, Note_on_c, 3, 67, 88
4, 300720, Note_on_c, 3, 67, 0
4, 300720, Note_on_c, 3, 70, 88
4, 300840, Note_on_c, 3, 70, 0
4, 300840, Note_on_c, 3, 67, 88
4, 300960, Note_on_c, 3, 67, 0
4, 300960, Note_on_c, 3, 65, 88
4, 301080, Note_on_c, 3, 65, 0
4, 301080, Note_on_c, 3, 64, 88
4, 301200, Note_on_c, 3, 64, 0
4, 301200, Note_on_c, 3, 67, 88
4, 301320, Note_on_c, 3, 67, 0
4, 301320, Note_on_c, 3, 64, 88
4, 301440, Note_on_c, 3, 64, 0
4, 301440, Note_on_c, 3, 60, 88
4, 302398, Note_on_c, 3, 60, 0
4, 302460, Note_on_c, 3, 64, 88
4, 302520, Note_on_c, 3, 64, 0
4, 302520, Note_on_c, 3, 62, 88
4, 302580, Note_on_c, 3, 62, 0
4, 302580, Note_on_c, 3, 65, 88
4, 302640, Note_on_c, 3, 65, 0
4, 302640, Note_on_c, 3, 64, 88
4, 302700, Note_on_c, 3, 64, 0
4, 302700, Note_on_c, 3, 67, 88
4, 302760, Note_on_c, 3, 67, 0
4, 302760, Note_on_c, 3, 65, 88
4, 302820, Note_on_c, 3, 65, 0
4, 302820, Note_on_c, 3, 69, 88
4, 302880, Note_on_c, 3, 69, 0
4, 302880, Note_on_c, 3, 67, 88
4, 302940, Note_on_c, 3, 67, 0
4, 302940, Note_on_c, 3, 70, 88
4, 303000, Note_on_c, 3, 70, 0
4, 303000, Note_on_c, 3, 69, 88
4, 303060, Note_on_c, 3, 69, 0
4, 303060, Note_on_c, 3, 72, 88
4, 303120, Note_on_c, 3, 72, 0
4, 303120, Note_on_c, 3, 70, 88
4, 304200, Note_on_c, 3, 70, 0
4, 304200, Note_on_c, 3, 67, 88
4, 304320, Note_on_c, 3, 67, 0
4, 304320, Note_on_c, 3, 76, 88
4, 304680, Note_on_c, 3, 76, 0
4, 304680, Note_on_c, 3, 72, 88
4, 304800, Note_on_c, 3, 72, 0
4, 304800, Note_on_c, 3, 79, 88
4, 305160, Note_on_c, 3, 79, 0
4, 305160, Note_on_c, 3, 76, 88
4, 305280, Note_on_c, 3, 76, 0
4, 305280, Note_on_c, 3, 82, 88
4, 307200, Note_on_c, 3, 82, 0
4, 307200, Note_on_c, 3, 81, 88
4, 307680, Note_on_c, 3, 81, 0
4, 307680, Note_on_c, 3, 79, 88
4, 308160, Note_on_c, 3, 79, 0
4, 308160, Note_on_c, 3, 77, 88
4, 308640, Note_on_c, 3, 77, 0
4, 308640, Note_on_c, 3, 76, 88
4, 309120, Note_on_c, 3, 76, 0
4, 309120, Note_on_c, 3, 74, 88
4, 309600, Note_on_c, 3, 74, 0
4, 309600, Note_on_c, 3, 72, 88
4, 310239, Note_on_c, 3, 72, 0
4, 310239, Note_on_c, 3, 74, 88
4, 310400, Note_on_c, 3, 74, 0
4, 310400, Note_on_c, 3, 76, 88
4, 310560, Note_on_c, 3, 76, 0
4, 310560, Note_on_c, 3, 77, 88
4, 310719, Note_on_c, 3, 77, 0
4, 310719, Note_on_c, 3, 79, 88
4, 310880, Note_on_c, 3, 79, 0
4, 310880, Note_on_c, 3, 81, 88
4, 311040, Note_on_c, 3, 81, 0
4, 311040, Note_on_c, 3, 82, 88
4, 311520, Note_on_c, 3, 82, 0
4, 311520, Note_on_c, 3, 76, 88
4, 312000, Note_on_c, 3, 76, 0
4, 312000, Note_on_c, 3, 77, 88
4, 312192, Note_on_c, 3, 77, 0
4, 312480, Note_on_c, 3, 79, 88
4, 312720, Note_on_c, 3, 79, 0
4, 312720, Note_on_c, 3, 70, 88
4, 312960, Note_on_c, 3, 70, 0
4, 312960, Note_on_c, 3, 70, 88
4, 313680, Note_on_c, 3, 70, 0
4, 313680, Note_on_c, 3, 74, 88
4, 313920, Note_on_c, 3, 74, 0
4, 313920, Note_on_c, 3, 72, 88
4, 314400, Note_on_c, 3, 72, 0
4, 314400, Note_on_c, 3, 72, 88
4, 314460, Note_on_c, 3, 70, 88
4, 314508, Note_on_c, 3, 72, 0
4, 314520, Note_on_c, 3, 72, 88
4, 314568, Note_on_c, 3, 70, 0
4, 314580, Note_on_c, 3, 70, 88
4, 314628, Note_on_c, 3, 72, 0
4, 314640, Note_on_c, 3, 69, 88
4, 314688, Note_on_c, 3, 70, 0
4, 314760, Note_on_c, 3, 69, 0
4, 314760, Note_on_c, 3, 70, 88
4, 314880, Note_on_c, 3, 70, 0
4, 314880, Note_on_c, 3, 69, 88
4, 315360, Note_on_c, 3, 69, 0
4, 315360, Note_on_c, 3, 69, 88
4, 315480, Note_on_c, 3, 69, 0
4, 315480, Note_on_c, 3, 67, 88
4, 315600, Note_on_c, 3, 67, 0
4, 315600, Note_on_c, 3, 65, 88
4, 315720, Note_on_c, 3, 65, 0
4, 315720, Note_on_c, 3, 64, 88
4, 315840, Note_on_c, 3, 64, 0
4, 315840, Note_on_c, 3, 65, 88
4, 315999, Note_on_c, 3, 65, 0
4, 315999, Note_on_c, 3, 69, 88
4, 316160, Note_on_c, 3, 69, 0
4, 316160, Note_on_c, 3, 72, 88
4, 316320, Note_on_c, 3, 72, 0
4, 316320, Note_on_c, 3, 77, 88
4, 316479, Note_on_c, 3, 77, 0
4, 316479, Note_on_c, 3, 79, 88
4, 316640, Note_on_c, 3, 79, 0
4, 316640, Note_on_c, 3, 81, 88
4, 316800, Note_on_c, 3, 81, 0
4, 316800, Note_on_c, 3, 81, 88
4, 316920, Note_on_c, 3, 81, 0
4, 316920, Note_on_c, 3, 79, 88
4, 317040, Note_on_c, 3, 79, 0
4, 317040, Note_on_c, 3, 77, 88
4, 317160, Note_on_c, 3, 77, 0
4, 317160, Note_on_c, 3, 76, 88
4, 317280, Note_on_c, 3, 76, 0
4, 317280, Note_on_c, 3, 77, 88
4, 317439, Note_on_c, 3, 77, 0
4, 317439, Note_on_c, 3, 81, 88
4, 317600, Note_on_c, 3, 81, 0
4, 317600, Note_on_c, 3, 84, 88
4, 317760, Note_on_c, 3, 84, 0
4, 317760, Note_on_c, 3, 89, 88
4, 317919, Note_on_c, 3, 89, 0
4, 317919, Note_on_c, 3, 88, 88
4, 318080, Note_on_c, 3, 88, 0
4, 318080, Note_on_c, 3, 86, 88
4, 318240, Note_on_c, 3, 86, 0
4, 318240, Note_on_c, 3, 84, 88
4, 318480, Note_on_c, 3, 84, 0
4, 318480, Note_on_c, 3, 83, 88
4, 318720, Note_on_c, 3, 83, 0
4, 318720, Note_on_c, 3, 82, 88
4, 318960, Note_on_c, 3, 82, 0
4, 318960, Note_on_c, 3, 79, 88
4, 319200, Note_on_c, 3, 79, 0
4, 319200, Note_on_c, 3, 81, 88
4, 319440, Note_on_c, 3, 81, 0
4, 319440, Note_on_c, 3, 89, 88
4, 319536, Note_on_c, 3, 89, 0
4, 319839, Note_on_c, 3, 81, 88
4, 320000, Note_on_c, 3, 81, 0
4, 320000, Note_on_c, 3, 79, 88
4, 320160, Note_on_c, 3, 79, 0
4, 320319, Note_on_c, 3, 77, 88
4, 320480, Note_on_c, 3, 77, 0
4, 320480, Note_on_c, 3, 76, 88
4, 320640, Note_on_c, 3, 76, 0
4, 320799, Note_on_c, 3, 74, 88
4, 320960, Note_on_c, 3, 74, 0
4, 320960, Note_on_c, 3, 72, 88
4, 321120, Note_on_c, 3, 72, 0
4, 321120, End_track
5, 0, Start_track
5, 0, Title_t, "Piano 1 Bass"
5, 0, Control_c, 4, 0, 0
5, 0, Control_c, 4, 7, 90
5, 0, Control_c, 4, 10, 50
5, 0, Control_c, 4, 91, 82
5, 0, Control_c, 4, 93, 85
5, 1, Control_c, 4, 32, 1
5, 2, Program_c, 4, 0
5, 480, Note_on_c, 4, 57, 88
5, 960, Note_on_c, 4, 57, 0
5, 960, Note_on_c, 4, 53, 88
5, 1440, Note_on_c, 4, 53, 0
5, 1440, Note_on_c, 4, 48, 88
5, 2400, Note_on_c, 4, 48, 0
5, 2400, Note_on_c, 4, 50, 88
5, 2880, Note_on_c, 4, 50, 0
5, 3360, Note_on_c, 4, 55, 88
5, 3840, Note_on_c, 4, 55, 0
5, 3840, Note_on_c, 4, 53, 88
5, 4320, Note_on_c, 4, 53, 0
5, 4320, Note_on_c, 4, 52, 88
5, 5280, Note_on_c, 4, 52, 0
5, 5280, Note_on_c, 4, 53, 88
5, 5760, Note_on_c, 4, 53, 0
5, 5760, Note_on_c, 4, 58, 88
5, 5760, Note_on_c, 4, 60, 88
5, 6240, Note_on_c, 4, 58, 0
5, 6240, Note_on_c, 4, 57, 88
5, 6720, Note_on_c, 4, 57, 0
5, 6720, Note_on_c, 4, 60, 0
5, 7200, Note_on_c, 4, 58, 88
5, 7200, Note_on_c, 4, 60, 88
5, 7680, Note_on_c, 4, 58, 0
5, 7680, Note_on_c, 4, 57, 88
5, 8160, Note_on_c, 4, 57, 0
5, 8160, Note_on_c, 4, 60, 0
5, 8640, Note_on_c, 4, 55, 88
5, 9120, Note_on_c, 4, 55, 0
5, 9120, Note_on_c, 4, 48, 88
5, 9600, Note_on_c, 4, 48, 0
5, 9600, Note_on_c, 4, 53, 88
5, 10080, Note_on_c, 4, 53, 0
5, 10080, Note_on_c, 4, 66, 88
5, 10320, Note_on_c, 4, 66, 0
5, 10560, Note_on_c, 4, 62, 88
5, 10800, Note_on_c, 4, 62, 0
5, 11040, Note_on_c, 4, 59, 88
5, 11280, Note_on_c, 4, 59, 0
5, 24000, Note_on_c, 4, 48, 88
5, 24000, Note_on_c, 4, 58, 88
5, 24480, Note_on_c, 4, 58, 0
5, 24480, Note_on_c, 4, 48, 0
5, 24480, Note_on_c, 4, 53, 88
5, 24480, Note_on_c, 4, 57, 88
5, 24960, Note_on_c, 4, 57, 0
5, 24960, Note_on_c, 4, 53, 0
5, 24960, Note_on_c, 4, 41, 88
5, 25440, Note_on_c, 4, 41, 0
5, 28800, Note_on_c, 4, 41, 88
5, 29280, Note_on_c, 4, 41, 0
5, 29280, Note_on_c, 4, 48, 88
5, 29760, Note_on_c, 4, 48, 0
5, 29760, Note_on_c, 4, 36, 88
5, 30240, Note_on_c, 4, 36, 0
5, 30240, Note_on_c, 4, 41, 88
5, 30720, Note_on_c, 4, 41, 0
5, 30720, Note_on_c, 4, 53, 88
5, 31200, Note_on_c, 4, 53, 0
5, 31680, Note_on_c, 4, 65, 88
5, 31680, Note_on_c, 4, 69, 88
5, 32160, Note_on_c, 4, 69, 0
5, 32160, Note_on_c, 4, 65, 0
5, 32160, Note_on_c, 4, 65, 88
5, 32160, Note_on_c, 4, 69, 88
5, 32640, Note_on_c, 4, 69, 0
5, 32640, Note_on_c, 4, 65, 0
5, 32640, Note_on_c, 4, 65, 88
5, 32640, Note_on_c, 4, 69, 88
5, 33120, Note_on_c, 4, 69, 0
5, 33120, Note_on_c, 4, 65, 0
5, 33120, Note_on_c, 4, 64, 88
5, 33120, Note_on_c, 4, 67, 88
5, 33600, Note_on_c, 4, 67, 0
5, 33600, Note_on_c, 4, 64, 0
5, 33600, Note_on_c, 4, 64, 88
5, 33600, Note_on_c, 4, 67, 88
5, 34080, Note_on_c, 4, 67, 0
5, 34080, Note_on_c, 4, 64, 0
5, 34080, Note_on_c, 4, 64, 88
5, 34080, Note_on_c, 4, 67, 88
5, 34560, Note_on_c, 4, 67, 0
5, 34560, Note_on_c, 4, 64, 0
5, 34560, Note_on_c, 4, 62, 88
5, 34560, Note_on_c, 4, 65, 88
5, 35040, Note_on_c, 4, 65, 0
5, 35040, Note_on_c, 4, 62, 0
5, 36240, Note_on_c, 4, 67, 88
5, 36480, Note_on_c, 4, 67, 0
5, 36480, Note_on_c, 4, 69, 88
5, 36720, Note_on_c, 4, 69, 0
5, 36720, Note_on_c, 4, 71, 88
5, 36960, Note_on_c, 4, 71, 0
5, 36960, Note_on_c, 4, 72, 88
5, 37056, Note_on_c, 4, 72, 0
5, 37200, Note_on_c, 4, 60, 88
5, 37296, Note_on_c, 4, 60, 0
5, 43200, Note_on_c, 4, 64, 88
5, 43440, Note_on_c, 4, 64, 0
5, 43440, Note_on_c, 4, 55, 88
5, 43680, Note_on_c, 4, 55, 0
5, 43680, Note_on_c, 4, 64, 88
5, 43920, Note_on_c, 4, 64, 0
5, 43920, Note_on_c, 4, 55, 88
5, 44160, Note_on_c, 4, 55, 0
5, 44160, Note_on_c, 4, 64, 88
5, 44400, Note_on_c, 4, 64, 0
5, 44400, Note_on_c, 4, 55, 88
5, 44640, Note_on_c, 4, 55, 0
5, 44640, Note_on_c, 4, 62, 88
5, 44880, Note_on_c, 4, 62, 0
5, 44880, Note_on_c, 4, 55, 88
5, 45120, Note_on_c, 4, 55, 0
5, 45120, Note_on_c, 4, 62, 88
5, 45360, Note_on_c, 4, 62, 0
5, 45360, Note_on_c, 4, 55, 88
5, 45600, Note_on_c, 4, 55, 0
5, 45600, Note_on_c, 4, 59, 88
5, 45840, Note_on_c, 4, 59, 0
5, 45840, Note_on_c, 4, 55, 88
5, 46080, Note_on_c, 4, 55, 0
5, 46080, Note_on_c, 4, 60, 88
5, 46320, Note_on_c, 4, 60, 0
5, 46320, Note_on_c, 4, 55, 88
5, 46560, Note_on_c, 4, 55, 0
5, 46560, Note_on_c, 4, 64, 88
5, 46800, Note_on_c, 4, 64, 0
5, 46800, Note_on_c, 4, 55, 88
5, 47040, Note_on_c, 4, 55, 0
5, 47040, Note_on_c, 4, 60, 88
5, 47280, Note_on_c, 4, 60, 0
5, 47280, Note_on_c, 4, 55, 88
5, 47520, Note_on_c, 4, 55, 0
5, 47520, Note_on_c, 4, 55, 88
5, 47520, Note_on_c, 4, 64, 88
5, 47880, Note_on_c, 4, 64, 0
5, 47880, Note_on_c, 4, 60, 88
5, 48000, Note_on_c, 4, 60, 0
5, 48000, Note_on_c, 4, 59, 88
5, 48480, Note_on_c, 4, 59, 0
5, 48480, Note_on_c, 4, 55, 0
5, 60480, Note_on_c, 4, 76, 88
5, 60576, Note_on_c, 4, 76, 0
5, 60720, Note_on_c, 4, 74, 88
5, 60816, Note_on_c, 4, 74, 0
5, 60960, Note_on_c, 4, 72, 88
5, 61056, Note_on_c, 4, 72, 0
5, 61200, Note_on_c, 4, 71, 88
5, 61296, Note_on_c, 4, 71, 0
5, 61440, Note_on_c, 4, 69, 88
5, 61536, Note_on_c, 4, 69, 0
5, 61680, Note_on_c, 4, 67, 88
5, 61776, Note_on_c, 4, 67, 0
5, 61920, Note_on_c, 4, 65, 88
5, 62400, Note_on_c, 4, 65, 0
5, 62880, Note_on_c, 4, 65, 88
5, 63360, Note_on_c, 4, 65, 0
5, 63360, Note_on_c, 4, 64, 88
5, 63600, Note_on_c, 4, 64, 0
5, 63600, Note_on_c, 4, 65, 88
5, 63840, Note_on_c, 4, 65, 0
5, 63840, Note_on_c, 4, 67, 88
5, 64320, Note_on_c, 4, 67, 0
5, 64320, Note_on_c, 4, 55, 88
5, 64800, Note_on_c, 4, 55, 0
5, 64800, Note_on_c, 4, 60, 88
5, 65280, Note_on_c, 4, 60, 0
5, 69120, Note_on_c, 4, 60, 88
5, 69360, Note_on_c, 4, 60, 0
5, 69600, Note_on_c, 4, 60, 88
5, 69840, Note_on_c, 4, 60, 0
5, 70080, Note_on_c, 4, 60, 88
5, 70320, Note_on_c, 4, 60, 0
5, 70560, Note_on_c, 4, 60, 88
5, 70800, Note_on_c, 4, 60, 0
5, 71040, Note_on_c, 4, 60, 88
5, 71280, Note_on_c, 4, 60, 0
5, 71520, Note_on_c, 4, 60, 88
5, 71760, Note_on_c, 4, 60, 0
5, 72000, Note_on_c, 4, 60, 88
5, 72240, Note_on_c, 4, 60, 0
5, 72480, Note_on_c, 4, 60, 88
5, 72720, Note_on_c, 4, 60, 0
5, 72960, Note_on_c, 4, 60, 88
5, 73200, Note_on_c, 4, 60, 0
5, 73440, Note_on_c, 4, 60, 88
5, 73680, Note_on_c, 4, 60, 0
5, 73920, Note_on_c, 4, 60, 88
5, 74160, Note_on_c, 4, 60, 0
5, 74400, Note_on_c, 4, 60, 88
5, 74640, Note_on_c, 4, 60, 0
5, 74880, Note_on_c, 4, 48, 88
5, 74880, Note_on_c, 4, 60, 88
5, 75120, Note_on_c, 4, 60, 0
5, 75120, Note_on_c, 4, 48, 0
5, 75360, Note_on_c, 4, 52, 88
5, 75600, Note_on_c, 4, 52, 0
5, 75840, Note_on_c, 4, 55, 88
5, 76080, Note_on_c, 4, 55, 0
5, 76320, Note_on_c, 4, 48, 88
5, 76320, Note_on_c, 4, 60, 88
5, 76560, Note_on_c, 4, 60, 0
5, 76560, Note_on_c, 4, 48, 0
5, 76800, Note_on_c, 4, 64, 88
5, 77040, Note_on_c, 4, 64, 0
5, 77280, Note_on_c, 4, 67, 88
5, 77520, Note_on_c, 4, 67, 0
5, 77760, Note_on_c, 4, 48, 88
5, 77760, Note_on_c, 4, 60, 88
5, 78000, Note_on_c, 4, 60, 0
5, 78000, Note_on_c, 4, 48, 0
5, 78240, Note_on_c, 4, 65, 88
5, 78480, Note_on_c, 4, 65, 0
5, 78720, Note_on_c, 4, 69, 88
5, 78960, Note_on_c, 4, 69, 0
5, 79200, Note_on_c, 4, 48, 88
5, 79200, Note_on_c, 4, 60, 88
5, 79440, Note_on_c, 4, 60, 0
5, 79440, Note_on_c, 4, 48, 0
5, 79680, Note_on_c, 4, 62, 88
5, 79920, Note_on_c, 4, 62, 0
5, 80160, Note_on_c, 4, 65, 88
5, 80400, Note_on_c, 4, 65, 0
5, 80640, Note_on_c, 4, 48, 88
5, 80640, Note_on_c, 4, 60, 88
5, 81120, Note_on_c, 4, 60, 0
5, 81120, Note_on_c, 4, 48, 0
5, 81120, Note_on_c, 4, 52, 88
5, 81600, Note_on_c, 4, 52, 0
5, 81600, Note_on_c, 4, 55, 88
5, 82080, Note_on_c, 4, 55, 0
5, 82080, Note_on_c, 4, 60, 88
5, 82560, Note_on_c, 4, 60, 0
5, 82560, Note_on_c, 4, 64, 88
5, 83040, Note_on_c, 4, 64, 0
5, 83040, Note_on_c, 4, 67, 88
5, 83520, Note_on_c, 4, 67, 0
5, 83520, Note_on_c, 4, 72, 88
5, 84000, Note_on_c, 4, 72, 0
5, 88320, Note_on_c, 4, 48, 88
5, 88320, Note_on_c, 4, 52, 88
5, 88320, Note_on_c, 4, 55, 88
5, 88800, Note_on_c, 4, 55, 0
5, 88800, Note_on_c, 4, 52, 0
5, 88800, Note_on_c, 4, 48, 0
5, 88800, Note_on_c, 4, 48, 88
5, 88800, Note_on_c, 4, 52, 88
5, 88800, Note_on_c, 4, 55, 88
5, 89280, Note_on_c, 4, 55, 0
5, 89280, Note_on_c, 4, 52, 0
5, 89280, Note_on_c, 4, 48, 0
5, 89280, Note_on_c, 4, 48, 88
5, 89280, Note_on_c, 4, 52, 88
5, 89280, Note_on_c, 4, 55, 88
5, 92160, Note_on_c, 4, 55, 0
5, 92160, Note_on_c, 4, 52, 0
5, 92160, Note_on_c, 4, 48, 0
5, 92640, Note_on_c, 4, 69, 88
5, 93120, Note_on_c, 4, 69, 0
5, 93120, Note_on_c, 4, 65, 88
5, 93600, Note_on_c, 4, 65, 0
5, 93600, Note_on_c, 4, 60, 88
5, 93600, Note_on_c, 4, 64, 88
5, 94080, Note_on_c, 4, 64, 0
5, 94080, Note_on_c, 4, 60, 0
5, 94080, Note_on_c, 4, 61, 88
5, 94080, Note_on_c, 4, 70, 88
5, 94560, Note_on_c, 4, 70, 0
5, 94560, Note_on_c, 4, 61, 0
5, 94560, Note_on_c, 4, 62, 88
5, 94560, Note_on_c, 4, 69, 88
5, 95040, Note_on_c, 4, 69, 0
5, 95040, Note_on_c, 4, 62, 0
5, 95520, Note_on_c, 4, 67, 88
5, 96000, Note_on_c, 4, 67, 0
5, 96000, Note_on_c, 4, 65, 88
5, 96480, Note_on_c, 4, 65, 0
5, 96480, Note_on_c, 4, 64, 88
5, 96960, Note_on_c, 4, 64, 0
5, 96960, Note_on_c, 4, 60, 88
5, 97440, Note_on_c, 4, 60, 0
5, 97440, Note_on_c, 4, 65, 88
5, 97920, Note_on_c, 4, 65, 0
5, 97920, Note_on_c, 4, 58, 88
5, 97920, Note_on_c, 4, 60, 88
5, 98400, Note_on_c, 4, 58, 0
5, 98400, Note_on_c, 4, 57, 88
5, 98880, Note_on_c, 4, 57, 0
5, 98880, Note_on_c, 4, 60, 0
5, 99360, Note_on_c, 4, 58, 88
5, 99360, Note_on_c, 4, 60, 88
5, 99840, Note_on_c, 4, 58, 0
5, 99840, Note_on_c, 4, 57, 88
5, 100320, Note_on_c, 4, 57, 0
5, 100320, Note_on_c, 4, 60, 0
5, 100800, Note_on_c, 4, 55, 88
5, 100800, Note_on_c, 4, 62, 88
5, 101280, Note_on_c, 4, 62, 0
5, 101280, Note_on_c, 4, 55, 0
5, 101280, Note_on_c, 4, 60, 88
5, 101280, Note_on_c, 4, 64, 88
5, 101760, Note_on_c, 4, 64, 0
5, 101760, Note_on_c, 4, 60, 0
5, 101760, Note_on_c, 4, 65, 88
5, 102240, Note_on_c, 4, 65, 0
5, 102240, Note_on_c, 4, 66, 88
5, 102480, Note_on_c, 4, 66, 0
5, 102720, Note_on_c, 4, 62, 88
5, 102960, Note_on_c, 4, 62, 0
5, 103200, Note_on_c, 4, 59, 88
5, 103440, Note_on_c, 4, 59, 0
5, 116160, Note_on_c, 4, 48, 88
5, 116160, Note_on_c, 4, 58, 88
5, 116640, Note_on_c, 4, 58, 0
5, 116640, Note_on_c, 4, 48, 0
5, 116640, Note_on_c, 4, 53, 88
5, 116640, Note_on_c, 4, 57, 88
5, 117120, Note_on_c, 4, 57, 0
5, 117120, Note_on_c, 4, 53, 0
5, 117120, Note_on_c, 4, 41, 88
5, 117600, Note_on_c, 4, 41, 0
5, 120960, Note_on_c, 4, 53, 88
5, 121440, Note_on_c, 4, 53, 0
5, 121440, Note_on_c, 4, 41, 88
5, 121920, Note_on_c, 4, 41, 0
5, 121920, Note_on_c, 4, 45, 88
5, 122400, Note_on_c, 4, 45, 0
5, 122400, Note_on_c, 4, 38, 88
5, 122880, Note_on_c, 4, 38, 0
5, 128160, Note_on_c, 4, 62, 101
5, 128160, Note_on_c, 4, 65, 101
5, 128400, Note_on_c, 4, 65, 0
5, 128400, Note_on_c, 4, 62, 0
5, 128400, Note_on_c, 4, 62, 75
5, 128400, Note_on_c, 4, 65, 75
5, 128640, Note_on_c, 4, 65, 0
5, 128640, Note_on_c, 4, 62, 0
5, 128640, Note_on_c, 4, 62, 75
5, 128640, Note_on_c, 4, 65, 75
5, 128880, Note_on_c, 4, 65, 0
5, 128880, Note_on_c, 4, 62, 0
5, 128880, Note_on_c, 4, 62, 75
5, 128880, Note_on_c, 4, 65, 75
5, 129120, Note_on_c, 4, 65, 0
5, 129120, Note_on_c, 4, 62, 0
5, 129120, Note_on_c, 4, 62, 75
5, 129120, Note_on_c, 4, 65, 75
5, 129360, Note_on_c, 4, 65, 0
5, 129360, Note_on_c, 4, 62, 0
5, 129360, Note_on_c, 4, 62, 75
5, 129360, Note_on_c, 4, 65, 75
5, 129600, Note_on_c, 4, 65, 0
5, 129600, Note_on_c, 4, 62, 0
5, 129600, Note_on_c, 4, 61, 101
5, 129600, Note_on_c, 4, 64, 101
5, 129840, Note_on_c, 4, 64, 0
5, 129840, Note_on_c, 4, 61, 0
5, 129840, Note_on_c, 4, 61, 75
5, 129840, Note_on_c, 4, 64, 75
5, 130080, Note_on_c, 4, 64, 0
5, 130080, Note_on_c, 4, 61, 0
5, 130080, Note_on_c, 4, 61, 75
5, 130080, Note_on_c, 4, 64, 75
5, 130320, Note_on_c, 4, 64, 0
5, 130320, Note_on_c, 4, 61, 0
5, 130320, Note_on_c, 4, 61, 75
5, 130320, Note_on_c, 4, 64, 75
5, 130560, Note_on_c, 4, 64, 0
5, 130560, Note_on_c, 4, 61, 0
5, 130560, Note_on_c, 4, 61, 75
5, 130560, Note_on_c, 4, 64, 75
5, 130800, Note_on_c, 4, 64, 0
5, 130800, Note_on_c, 4, 61, 0
5, 130800, Note_on_c, 4, 61, 75
5, 130800, Note_on_c, 4, 64, 75
5, 131040, Note_on_c, 4, 64, 0
5, 131040, Note_on_c, 4, 61, 0
5, 131040, Note_on_c, 4, 62, 75
5, 131040, Note_on_c, 4, 69, 75
5, 131520, Note_on_c, 4, 69, 0
5, 131520, Note_on_c, 4, 62, 0
5, 131520, Note_on_c, 4, 55, 75
5, 131520, Note_on_c, 4, 67, 75
5, 132000, Note_on_c, 4, 67, 0
5, 132000, Note_on_c, 4, 55, 0
5, 132000, Note_on_c, 4, 58, 75
5, 132000, Note_on_c, 4, 62, 75
5, 132480, Note_on_c, 4, 62, 0
5, 132480, Note_on_c, 4, 58, 0
5, 132480, Note_on_c, 4, 57, 75
5, 132480, Note_on_c, 4, 64, 75
5, 132960, Note_on_c, 4, 64, 0
5, 132960, Note_on_c, 4, 57, 0
5, 139680, Note_on_c, 4, 62, 88
5, 139680, Note_on_c, 4, 65, 88
5, 139920, Note_on_c, 4, 65, 0
5, 139920, Note_on_c, 4, 62, 0
5, 139920, Note_on_c, 4, 62, 75
5, 139920, Note_on_c, 4, 65, 75
5, 140160, Note_on_c, 4, 65, 0
5, 140160, Note_on_c, 4, 62, 0
5, 140160, Note_on_c, 4, 62, 75
5, 140160, Note_on_c, 4, 65, 75
5, 140400, Note_on_c, 4, 65, 0
5, 140400, Note_on_c, 4, 62, 0
5, 140400, Note_on_c, 4, 62, 75
5, 140400, Note_on_c, 4, 65, 75
5, 140640, Note_on_c, 4, 65, 0
5, 140640, Note_on_c, 4, 62, 0
5, 140640, Note_on_c, 4, 62, 75
5, 140640, Note_on_c, 4, 65, 75
5, 140880, Note_on_c, 4, 65, 0
5, 140880, Note_on_c, 4, 62, 0
5, 140880, Note_on_c, 4, 62, 75
5, 140880, Note_on_c, 4, 65, 75
5, 141120, Note_on_c, 4, 65, 0
5, 141120, Note_on_c, 4, 62, 0
5, 141120, Note_on_c, 4, 61, 75
5, 141120, Note_on_c, 4, 64, 75
5, 141360, Note_on_c, 4, 64, 0
5, 141360, Note_on_c, 4, 61, 0
5, 141360, Note_on_c, 4, 61, 75
5, 141360, Note_on_c, 4, 64, 75
5, 141600, Note_on_c, 4, 64, 0
5, 141600, Note_on_c, 4, 61, 0
5, 141600, Note_on_c, 4, 61, 75
5, 141600, Note_on_c, 4, 64, 75
5, 141840, Note_on_c, 4, 64, 0
5, 141840, Note_on_c, 4, 61, 0
5, 141840, Note_on_c, 4, 61, 75
5, 141840, Note_on_c, 4, 64, 75
5, 142080, Note_on_c, 4, 64, 0
5, 142080, Note_on_c, 4, 61, 0
5, 142080, Note_on_c, 4, 61, 75
5, 142080, Note_on_c, 4, 64, 75
5, 142320, Note_on_c, 4, 64, 0
5, 142320, Note_on_c, 4, 61, 0
5, 142320, Note_on_c, 4, 61, 75
5, 142320, Note_on_c, 4, 64, 75
5, 142560, Note_on_c, 4, 64, 0
5, 142560, Note_on_c, 4, 61, 0
5, 142560, Note_on_c, 4, 62, 75
5, 142560, Note_on_c, 4, 65, 75
5, 142800, Note_on_c, 4, 65, 0
5, 142800, Note_on_c, 4, 62, 0
5, 142800, Note_on_c, 4, 62, 75
5, 142800, Note_on_c, 4, 65, 75
5, 143040, Note_on_c, 4, 65, 0
5, 143040, Note_on_c, 4, 62, 0
5, 143040, Note_on_c, 4, 62, 75
5, 143040, Note_on_c, 4, 65, 75
5, 143280, Note_on_c, 4, 65, 0
5, 143280, Note_on_c, 4, 62, 0
5, 143280, Note_on_c, 4, 62, 75
5, 143280, Note_on_c, 4, 65, 75
5, 143520, Note_on_c, 4, 65, 0
5, 143520, Note_on_c, 4, 62, 0
5, 143520, Note_on_c, 4, 62, 75
5, 143520, Note_on_c, 4, 65, 75
5, 143760, Note_on_c, 4, 65, 0
5, 143760, Note_on_c, 4, 62, 0
5, 143760, Note_on_c, 4, 62, 75
5, 143760, Note_on_c, 4, 65, 75
5, 144000, Note_on_c, 4, 65, 0
5, 144000, Note_on_c, 4, 62, 0
5, 144000, Note_on_c, 4, 61, 75
5, 144000, Note_on_c, 4, 64, 75
5, 144240, Note_on_c, 4, 64, 0
5, 144240, Note_on_c, 4, 61, 0
5, 144240, Note_on_c, 4, 61, 75
5, 144240, Note_on_c, 4, 64, 75
5, 144480, Note_on_c, 4, 64, 0
5, 144480, Note_on_c, 4, 61, 0
5, 144480, Note_on_c, 4, 61, 75
5, 144480, Note_on_c, 4, 64, 75
5, 144720, Note_on_c, 4, 64, 0
5, 144720, Note_on_c, 4, 61, 0
5, 144720, Note_on_c, 4, 61, 75
5, 144720, Note_on_c, 4, 64, 75
5, 144960, Note_on_c, 4, 64, 0
5, 144960, Note_on_c, 4, 61, 0
5, 144960, Note_on_c, 4, 61, 75
5, 144960, Note_on_c, 4, 64, 75
5, 145200, Note_on_c, 4, 64, 0
5, 145200, Note_on_c, 4, 61, 0
5, 145200, Note_on_c, 4, 61, 75
5, 145200, Note_on_c, 4, 64, 75
5, 145440, Note_on_c, 4, 64, 0
5, 145440, Note_on_c, 4, 61, 0
5, 145440, Note_on_c, 4, 62, 75
5, 145440, Note_on_c, 4, 69, 75
5, 145920, Note_on_c, 4, 69, 0
5, 145920, Note_on_c, 4, 62, 0
5, 146160, Note_on_c, 4, 70, 75
5, 146400, Note_on_c, 4, 70, 0
5, 146400, Note_on_c, 4, 69, 75
5, 146640, Note_on_c, 4, 69, 0
5, 146640, Note_on_c, 4, 69, 75
5, 146880, Note_on_c, 4, 69, 0
5, 146880, Note_on_c, 4, 69, 75
5, 147360, Note_on_c, 4, 69, 0
5, 148320, Note_on_c, 4, 58, 88
5, 148320, Note_on_c, 4, 68, 88
5, 149760, Note_on_c, 4, 68, 0
5, 149760, Note_on_c, 4, 58, 0
5, 149760, Note_on_c, 4, 57, 75
5, 149760, Note_on_c, 4, 69, 75
5, 150240, Note_on_c, 4, 69, 0
5, 150240, Note_on_c, 4, 57, 0
5, 152640, Note_on_c, 4, 33, 88
5, 152760, Note_on_c, 4, 33, 0
5, 152760, Note_on_c, 4, 45, 88
5, 152880, Note_on_c, 4, 45, 0
5, 152880, Note_on_c, 4, 32, 88
5, 153000, Note_on_c, 4, 32, 0
5, 153000, Note_on_c, 4, 44, 88
5, 153120, Note_on_c, 4, 44, 0
5, 153120, Note_on_c, 4, 33, 88
5, 153240, Note_on_c, 4, 33, 0
5, 153240, Note_on_c, 4, 45, 88
5, 153360, Note_on_c, 4, 45, 0
5, 153360, Note_on_c, 4, 32, 88
5, 153480, Note_on_c, 4, 32, 0
5, 153480, Note_on_c, 4, 44, 88
5, 153600, Note_on_c, 4, 44, 0
5, 153600, Note_on_c, 4, 33, 88
5, 153720, Note_on_c, 4, 33, 0
5, 153720, Note_on_c, 4, 45, 88
5, 153840, Note_on_c, 4, 45, 0
5, 153840, Note_on_c, 4, 32, 88
5, 153960, Note_on_c, 4, 32, 0
5, 153960, Note_on_c, 4, 44, 88
5, 154080, Note_on_c, 4, 44, 0
5, 154080, Note_on_c, 4, 33, 88
5, 154200, Note_on_c, 4, 33, 0
5, 154200, Note_on_c, 4, 45, 88
5, 154320, Note_on_c, 4, 45, 0
5, 154320, Note_on_c, 4, 32, 88
5, 154440, Note_on_c, 4, 32, 0
5, 154440, Note_on_c, 4, 44, 88
5, 154560, Note_on_c, 4, 44, 0
5, 154560, Note_on_c, 4, 33, 88
5, 154680, Note_on_c, 4, 33, 0
5, 154680, Note_on_c, 4, 45, 88
5, 154800, Note_on_c, 4, 45, 0
5, 154800, Note_on_c, 4, 32, 88
5, 154920, Note_on_c, 4, 32, 0
5, 154920, Note_on_c, 4, 44, 88
5, 155040, Note_on_c, 4, 44, 0
5, 155040, Note_on_c, 4, 33, 88
5, 155160, Note_on_c, 4, 33, 0
5, 155160, Note_on_c, 4, 45, 88
5, 155280, Note_on_c, 4, 45, 0
5, 155280, Note_on_c, 4, 32, 88
5, 155400, Note_on_c, 4, 32, 0
5, 155400, Note_on_c, 4, 44, 88
5, 155520, Note_on_c, 4, 44, 0
5, 155520, Note_on_c, 4, 33, 88
5, 155520, Note_on_c, 4, 45, 88
5, 156000, Note_on_c, 4, 45, 0
5, 156000, Note_on_c, 4, 33, 0
5, 195840, Note_on_c, 4, 58, 88
5, 195999, Note_on_c, 4, 58, 0
5, 195999, Note_on_c, 4, 62, 88
5, 196160, Note_on_c, 4, 62, 0
5, 196160, Note_on_c, 4, 65, 88
5, 196320, Note_on_c, 4, 65, 0
5, 196320, Note_on_c, 4, 58, 88
5, 196479, Note_on_c, 4, 58, 0
5, 196479, Note_on_c, 4, 62, 88
5, 196640, Note_on_c, 4, 62, 0
5, 196640, Note_on_c, 4, 65, 88
5, 196800, Note_on_c, 4, 65, 0
5, 196800, Note_on_c, 4, 58, 88
5, 196959, Note_on_c, 4, 58, 0
5, 196959, Note_on_c, 4, 62, 88
5, 197120, Note_on_c, 4, 62, 0
5, 197120, Note_on_c, 4, 65, 88
5, 197280, Note_on_c, 4, 65, 0
5, 197280, Note_on_c, 4, 57, 88
5, 197439, Note_on_c, 4, 57, 0
5, 197439, Note_on_c, 4, 60, 88
5, 197600, Note_on_c, 4, 60, 0
5, 197600, Note_on_c, 4, 65, 88
5, 197760, Note_on_c, 4, 65, 0
5, 197760, Note_on_c, 4, 57, 88
5, 197919, Note_on_c, 4, 57, 0
5, 197919, Note_on_c, 4, 60, 88
5, 198080, Note_on_c, 4, 60, 0
5, 198080, Note_on_c, 4, 65, 88
5, 198240, Note_on_c, 4, 65, 0
5, 198240, Note_on_c, 4, 57, 88
5, 198399, Note_on_c, 4, 57, 0
5, 198399, Note_on_c, 4, 60, 88
5, 198560, Note_on_c, 4, 60, 0
5, 198560, Note_on_c, 4, 65, 88
5, 198720, Note_on_c, 4, 65, 0
5, 198720, Note_on_c, 4, 58, 88
5, 198879, Note_on_c, 4, 58, 0
5, 198879, Note_on_c, 4, 62, 88
5, 199040, Note_on_c, 4, 62, 0
5, 199040, Note_on_c, 4, 65, 88
5, 199200, Note_on_c, 4, 65, 0
5, 199200, Note_on_c, 4, 58, 88
5, 199359, Note_on_c, 4, 58, 0
5, 199359, Note_on_c, 4, 62, 88
5, 199520, Note_on_c, 4, 62, 0
5, 199520, Note_on_c, 4, 65, 88
5, 199680, Note_on_c, 4, 65, 0
5, 199680, Note_on_c, 4, 58, 88
5, 199839, Note_on_c, 4, 58, 0
5, 199839, Note_on_c, 4, 62, 88
5, 200000, Note_on_c, 4, 62, 0
5, 200000, Note_on_c, 4, 65, 88
5, 200160, Note_on_c, 4, 65, 0
5, 200160, Note_on_c, 4, 53, 88
5, 200319, Note_on_c, 4, 53, 0
5, 200319, Note_on_c, 4, 57, 88
5, 200480, Note_on_c, 4, 57, 0
5, 200480, Note_on_c, 4, 65, 88
5, 200640, Note_on_c, 4, 65, 0
5, 200640, Note_on_c, 4, 53, 88
5, 200799, Note_on_c, 4, 53, 0
5, 200799, Note_on_c, 4, 57, 88
5, 200960, Note_on_c, 4, 57, 0
5, 200960, Note_on_c, 4, 65, 88
5, 201120, Note_on_c, 4, 65, 0
5, 201120, Note_on_c, 4, 53, 88
5, 201279, Note_on_c, 4, 53, 0
5, 201279, Note_on_c, 4, 57, 88
5, 201440, Note_on_c, 4, 57, 0
5, 201440, Note_on_c, 4, 65, 88
5, 201600, Note_on_c, 4, 65, 0
5, 201600, Note_on_c, 4, 55, 88
5, 201759, Note_on_c, 4, 55, 0
5, 201759, Note_on_c, 4, 58, 88
5, 201920, Note_on_c, 4, 58, 0
5, 201920, Note_on_c, 4, 63, 88
5, 202080, Note_on_c, 4, 63, 0
5, 202080, Note_on_c, 4, 53, 88
5, 202239, Note_on_c, 4, 53, 0
5, 202239, Note_on_c, 4, 57, 88
5, 202400, Note_on_c, 4, 57, 0
5, 202400, Note_on_c, 4, 62, 88
5, 202560, Note_on_c, 4, 62, 0
5, 202560, Note_on_c, 4, 51, 88
5, 202719, Note_on_c, 4, 51, 0
5, 202719, Note_on_c, 4, 55, 88
5, 202880, Note_on_c, 4, 55, 0
5, 202880, Note_on_c, 4, 60, 88
5, 203040, Note_on_c, 4, 60, 0
5, 203040, Note_on_c, 4, 50, 88
5, 203199, Note_on_c, 4, 50, 0
5, 203199, Note_on_c, 4, 53, 88
5, 203360, Note_on_c, 4, 53, 0
5, 203360, Note_on_c, 4, 58, 88
5, 203520, Note_on_c, 4, 58, 0
5, 203520, Note_on_c, 4, 50, 88
5, 203679, Note_on_c, 4, 50, 0
5, 203679, Note_on_c, 4, 58, 88
5, 203840, Note_on_c, 4, 58, 0
5, 203840, Note_on_c, 4, 62, 88
5, 204000, Note_on_c, 4, 62, 0
5, 204000, Note_on_c, 4, 51, 88
5, 204159, Note_on_c, 4, 51, 0
5, 204159, Note_on_c, 4, 58, 88
5, 204320, Note_on_c, 4, 58, 0
5, 204320, Note_on_c, 4, 63, 88
5, 204480, Note_on_c, 4, 63, 0
5, 204480, Note_on_c, 4, 53, 88
5, 204639, Note_on_c, 4, 53, 0
5, 204639, Note_on_c, 4, 60, 88
5, 204800, Note_on_c, 4, 60, 0
5, 204800, Note_on_c, 4, 63, 88
5, 204960, Note_on_c, 4, 63, 0
5, 204960, Note_on_c, 4, 53, 88
5, 205119, Note_on_c, 4, 53, 0
5, 205119, Note_on_c, 4, 60, 88
5, 205280, Note_on_c, 4, 60, 0
5, 205280, Note_on_c, 4, 63, 88
5, 205440, Note_on_c, 4, 63, 0
5, 205440, Note_on_c, 4, 53, 88
5, 205599, Note_on_c, 4, 53, 0
5, 205599, Note_on_c, 4, 58, 88
5, 205760, Note_on_c, 4, 58, 0
5, 205760, Note_on_c, 4, 62, 88
5, 205920, Note_on_c, 4, 62, 0
5, 205920, Note_on_c, 4, 53, 88
5, 206079, Note_on_c, 4, 53, 0
5, 206079, Note_on_c, 4, 57, 88
5, 206240, Note_on_c, 4, 57, 0
5, 206240, Note_on_c, 4, 65, 88
5, 206400, Note_on_c, 4, 65, 0
5, 206400, Note_on_c, 4, 53, 88
5, 206559, Note_on_c, 4, 53, 0
5, 206559, Note_on_c, 4, 57, 88
5, 206720, Note_on_c, 4, 57, 0
5, 206720, Note_on_c, 4, 64, 88
5, 206880, Note_on_c, 4, 64, 0
5, 206880, Note_on_c, 4, 53, 88
5, 207039, Note_on_c, 4, 53, 0
5, 207039, Note_on_c, 4, 57, 88
5, 207200, Note_on_c, 4, 57, 0
5, 207200, Note_on_c, 4, 63, 88
5, 207360, Note_on_c, 4, 63, 0
5, 207360, Note_on_c, 4, 58, 88
5, 207360, Note_on_c, 4, 62, 88
5, 207840, Note_on_c, 4, 62, 0
5, 207840, Note_on_c, 4, 58, 0
5, 221760, Note_on_c, 4, 46, 88
5, 222240, Note_on_c, 4, 46, 0
5, 222240, Note_on_c, 4, 53, 88
5, 222720, Note_on_c, 4, 53, 0
5, 222720, Note_on_c, 4, 41, 88
5, 223200, Note_on_c, 4, 41, 0
5, 223200, Note_on_c, 4, 46, 88
5, 223680, Note_on_c, 4, 46, 0
5, 223680, Note_on_c, 4, 58, 88
5, 224160, Note_on_c, 4, 58, 0
5, 224640, Note_on_c, 4, 70, 88
5, 224640, Note_on_c, 4, 74, 88
5, 225120, Note_on_c, 4, 74, 0
5, 225120, Note_on_c, 4, 70, 0
5, 225120, Note_on_c, 4, 70, 88
5, 225120, Note_on_c, 4, 74, 88
5, 225600, Note_on_c, 4, 74, 0
5, 225600, Note_on_c, 4, 70, 0
5, 225600, Note_on_c, 4, 70, 88
5, 225600, Note_on_c, 4, 74, 88
5, 226080, Note_on_c, 4, 74, 0
5, 226080, Note_on_c, 4, 70, 0
5, 226080, Note_on_c, 4, 69, 88
5, 226080, Note_on_c, 4, 72, 88
5, 226560, Note_on_c, 4, 72, 0
5, 226560, Note_on_c, 4, 69, 0
5, 226560, Note_on_c, 4, 69, 88
5, 226560, Note_on_c, 4, 72, 88
5, 227040, Note_on_c, 4, 72, 0
5, 227040, Note_on_c, 4, 69, 0
5, 227040, Note_on_c, 4, 69, 88
5, 227040, Note_on_c, 4, 72, 88
5, 227520, Note_on_c, 4, 72, 0
5, 227520, Note_on_c, 4, 69, 0
5, 227520, Note_on_c, 4, 67, 88
5, 227520, Note_on_c, 4, 70, 88
5, 228000, Note_on_c, 4, 70, 0
5, 228000, Note_on_c, 4, 67, 0
5, 229200, Note_on_c, 4, 72, 88
5, 229440, Note_on_c, 4, 72, 0
5, 229440, Note_on_c, 4, 74, 88
5, 229680, Note_on_c, 4, 74, 0
5, 229680, Note_on_c, 4, 76, 88
5, 229920, Note_on_c, 4, 76, 0
5, 229920, Note_on_c, 4, 77, 88
5, 230160, Note_on_c, 4, 77, 0
5, 230160, Note_on_c, 4, 65, 88
5, 230400, Note_on_c, 4, 65, 0
5, 236160, Note_on_c, 4, 57, 88
5, 236400, Note_on_c, 4, 57, 0
5, 236400, Note_on_c, 4, 48, 88
5, 236640, Note_on_c, 4, 48, 0
5, 236640, Note_on_c, 4, 57, 88
5, 236880, Note_on_c, 4, 57, 0
5, 236880, Note_on_c, 4, 48, 88
5, 237120, Note_on_c, 4, 48, 0
5, 237120, Note_on_c, 4, 57, 88
5, 237360, Note_on_c, 4, 57, 0
5, 237360, Note_on_c, 4, 48, 88
5, 237600, Note_on_c, 4, 48, 0
5, 237600, Note_on_c, 4, 55, 88
5, 237840, Note_on_c, 4, 55, 0
5, 237840, Note_on_c, 4, 48, 88
5, 238080, Note_on_c, 4, 48, 0
5, 238080, Note_on_c, 4, 55, 88
5, 238320, Note_on_c, 4, 55, 0
5, 238320, Note_on_c, 4, 48, 88
5, 238560, Note_on_c, 4, 48, 0
5, 238560, Note_on_c, 4, 52, 88
5, 238800, Note_on_c, 4, 52, 0
5, 238800, Note_on_c, 4, 48, 88
5, 239040, Note_on_c, 4, 48, 0
5, 239040, Note_on_c, 4, 53, 88
5, 239280, Note_on_c, 4, 53, 0
5, 239280, Note_on_c, 4, 48, 88
5, 239520, Note_on_c, 4, 48, 0
5, 239520, Note_on_c, 4, 57, 88
5, 239760, Note_on_c, 4, 57, 0
5, 239760, Note_on_c, 4, 48, 88
5, 240000, Note_on_c, 4, 48, 0
5, 240000, Note_on_c, 4, 53, 88
5, 240240, Note_on_c, 4, 53, 0
5, 240240, Note_on_c, 4, 48, 88
5, 240480, Note_on_c, 4, 48, 0
5, 240480, Note_on_c, 4, 48, 88
5, 240480, Note_on_c, 4, 57, 88
5, 240840, Note_on_c, 4, 57, 0
5, 240840, Note_on_c, 4, 53, 88
5, 240960, Note_on_c, 4, 53, 0
5, 240960, Note_on_c, 4, 52, 88
5, 241440, Note_on_c, 4, 52, 0
5, 241440, Note_on_c, 4, 48, 0
5, 253440, Note_on_c, 4, 69, 88
5, 253536, Note_on_c, 4, 69, 0
5, 253680, Note_on_c, 4, 67, 88
5, 253776, Note_on_c, 4, 67, 0
5, 253920, Note_on_c, 4, 65, 88
5, 254016, Note_on_c, 4, 65, 0
5, 254160, Note_on_c, 4, 64, 88
5, 254256, Note_on_c, 4, 64, 0
5, 254400, Note_on_c, 4, 62, 88
5, 254496, Note_on_c, 4, 62, 0
5, 254640, Note_on_c, 4, 60, 88
5, 254736, Note_on_c, 4, 60, 0
5, 254880, Note_on_c, 4, 58, 88
5, 255360, Note_on_c, 4, 58, 0
5, 255840, Note_on_c, 4, 58, 88
5, 256320, Note_on_c, 4, 58, 0
5, 256320, Note_on_c, 4, 57, 88
5, 256560, Note_on_c, 4, 57, 0
5, 256560, Note_on_c, 4, 58, 88
5, 256800, Note_on_c, 4, 58, 0
5, 256800, Note_on_c, 4, 60, 88
5, 257280, Note_on_c, 4, 60, 0
5, 257280, Note_on_c, 4, 48, 88
5, 257760, Note_on_c, 4, 48, 0
5, 257760, Note_on_c, 4, 53, 88
5, 258240, Note_on_c, 4, 53, 0
5, 262080, Note_on_c, 4, 53, 88
5, 262320, Note_on_c, 4, 53, 0
5, 262560, Note_on_c, 4, 53, 88
5, 262800, Note_on_c, 4, 53, 0
5, 263040, Note_on_c, 4, 53, 88
5, 263280, Note_on_c, 4, 53, 0
5, 263520, Note_on_c, 4, 53, 88
5, 263760, Note_on_c, 4, 53, 0
5, 264000, Note_on_c, 4, 53, 88
5, 264240, Note_on_c, 4, 53, 0
5, 264480, Note_on_c, 4, 53, 88
5, 264720, Note_on_c, 4, 53, 0
5, 264960, Note_on_c, 4, 53, 88
5, 265200, Note_on_c, 4, 53, 0
5, 265440, Note_on_c, 4, 53, 88
5, 265680, Note_on_c, 4, 53, 0
5, 265920, Note_on_c, 4, 53, 88
5, 266160, Note_on_c, 4, 53, 0
5, 266400, Note_on_c, 4, 53, 88
5, 266640, Note_on_c, 4, 53, 0
5, 266880, Note_on_c, 4, 53, 88
5, 267120, Note_on_c, 4, 53, 0
5, 267360, Note_on_c, 4, 53, 88
5, 267600, Note_on_c, 4, 53, 0
5, 267840, Note_on_c, 4, 41, 88
5, 267840, Note_on_c, 4, 53, 88
5, 268080, Note_on_c, 4, 53, 0
5, 268080, Note_on_c, 4, 41, 0
5, 268320, Note_on_c, 4, 57, 88
5, 268560, Note_on_c, 4, 57, 0
5, 268800, Note_on_c, 4, 60, 88
5, 269040, Note_on_c, 4, 60, 0
5, 269280, Note_on_c, 4, 41, 88
5, 269280, Note_on_c, 4, 53, 88
5, 269520, Note_on_c, 4, 53, 0
5, 269520, Note_on_c, 4, 41, 0
5, 269760, Note_on_c, 4, 57, 88
5, 270000, Note_on_c, 4, 57, 0
5, 270240, Note_on_c, 4, 60, 88
5, 270480, Note_on_c, 4, 60, 0
5, 270720, Note_on_c, 4, 41, 88
5, 270720, Note_on_c, 4, 53, 88
5, 270960, Note_on_c, 4, 53, 0
5, 270960, Note_on_c, 4, 41, 0
5, 271200, Note_on_c, 4, 58, 88
5, 271440, Note_on_c, 4, 58, 0
5, 271680, Note_on_c, 4, 62, 88
5, 271920, Note_on_c, 4, 62, 0
5, 272160, Note_on_c, 4, 41, 88
5, 272160, Note_on_c, 4, 53, 88
5, 272400, Note_on_c, 4, 53, 0
5, 272400, Note_on_c, 4, 41, 0
5, 272640, Note_on_c, 4, 55, 88
5, 272880, Note_on_c, 4, 55, 0
5, 273120, Note_on_c, 4, 58, 88
5, 273360, Note_on_c, 4, 58, 0
5, 273600, Note_on_c, 4, 41, 88
5, 273600, Note_on_c, 4, 53, 88
5, 274080, Note_on_c, 4, 53, 0
5, 274080, Note_on_c, 4, 41, 0
5, 276000, Note_on_c, 4, 48, 88
5, 276000, Note_on_c, 4, 58, 88
5, 276480, Note_on_c, 4, 58, 0
5, 276480, Note_on_c, 4, 48, 0
5, 276480, Note_on_c, 4, 53, 88
5, 276480, Note_on_c, 4, 57, 88
5, 276960, Note_on_c, 4, 57, 0
5, 276960, Note_on_c, 4, 53, 0
5, 276960, Note_on_c, 4, 41, 88
5, 277440, Note_on_c, 4, 41, 0
5, 280320, Note_on_c, 4, 62, 88
5, 280800, Note_on_c, 4, 62, 0
5, 280800, Note_on_c, 4, 58, 88
5, 281280, Note_on_c, 4, 58, 0
5, 281760, Note_on_c, 4, 60, 88
5, 282240, Note_on_c, 4, 60, 0
5, 282240, Note_on_c, 4, 57, 88
5, 282720, Note_on_c, 4, 57, 0
5, 283200, Note_on_c, 4, 62, 88
5, 283680, Note_on_c, 4, 62, 0
5, 283680, Note_on_c, 4, 58, 88
5, 284160, Note_on_c, 4, 58, 0
5, 284640, Note_on_c, 4, 60, 88
5, 285120, Note_on_c, 4, 60, 0
5, 285120, Note_on_c, 4, 53, 88
5, 285600, Note_on_c, 4, 53, 0
5, 285600, Note_on_c, 4, 41, 88
5, 286080, Note_on_c, 4, 41, 0
5, 286080, Note_on_c, 4, 62, 88
5, 286560, Note_on_c, 4, 62, 0
5, 286560, Note_on_c, 4, 58, 88
5, 287040, Note_on_c, 4, 58, 0
5, 287520, Note_on_c, 4, 60, 88
5, 288000, Note_on_c, 4, 60, 0
5, 288000, Note_on_c, 4, 57, 88
5, 288480, Note_on_c, 4, 57, 0
5, 288960, Note_on_c, 4, 62, 88
5, 289440, Note_on_c, 4, 62, 0
5, 289440, Note_on_c, 4, 58, 88
5, 289920, Note_on_c, 4, 58, 0
5, 290400, Note_on_c, 4, 60, 88
5, 290880, Note_on_c, 4, 60, 0
5, 290880, Note_on_c, 4, 53, 88
5, 291072, Note_on_c, 4, 53, 0
5, 291360, Note_on_c, 4, 45, 88
5, 291552, Note_on_c, 4, 45, 0
5, 291840, Note_on_c, 4, 48, 88
5, 292032, Note_on_c, 4, 48, 0
5, 292320, Note_on_c, 4, 53, 88
5, 292512, Note_on_c, 4, 53, 0
5, 292800, Note_on_c, 4, 57, 88
5, 292992, Note_on_c, 4, 57, 0
5, 293280, Note_on_c, 4, 60, 88
5, 293472, Note_on_c, 4, 60, 0
5, 293760, Note_on_c, 4, 65, 88
5, 294240, Note_on_c, 4, 65, 0
5, 303120, Note_on_c, 4, 48, 88
5, 303120, Note_on_c, 4, 52, 88
5, 303120, Note_on_c, 4, 55, 88
5, 303120, Note_on_c, 4, 58, 88
5, 304200, Note_on_c, 4, 58, 0
5, 304200, Note_on_c, 4, 48, 0
5, 304200, Note_on_c, 4, 52, 0
5, 304200, Note_on_c, 4, 55, 0
5, 309600, Note_on_c, 4, 65, 88
5, 310080, Note_on_c, 4, 65, 0
5, 310080, Note_on_c, 4, 53, 88
5, 310560, Note_on_c, 4, 53, 0
5, 311040, Note_on_c, 4, 64, 88
5, 311040, Note_on_c, 4, 67, 88
5, 311520, Note_on_c, 4, 67, 0
5, 311520, Note_on_c, 4, 64, 0
5, 311520, Note_on_c, 4, 67, 88
5, 311520, Note_on_c, 4, 70, 88
5, 312000, Note_on_c, 4, 70, 0
5, 312000, Note_on_c, 4, 67, 0
5, 312000, Note_on_c, 4, 65, 88
5, 312000, Note_on_c, 4, 69, 88
5, 312480, Note_on_c, 4, 69, 0
5, 312480, Note_on_c, 4, 65, 0
5, 312960, Note_on_c, 4, 62, 88
5, 313440, Note_on_c, 4, 62, 0
5, 313440, Note_on_c, 4, 55, 88
5, 313920, Note_on_c, 4, 55, 0
5, 313920, Note_on_c, 4, 60, 88
5, 314400, Note_on_c, 4, 60, 0
5, 314400, Note_on_c, 4, 64, 88
5, 314880, Note_on_c, 4, 64, 0
5, 314880, Note_on_c, 4, 65, 88
5, 315360, Note_on_c, 4, 65, 0
5, 315360, Note_on_c, 4, 58, 88
5, 315360, Note_on_c, 4, 60, 88
5, 315840, Note_on_c, 4, 58, 0
5, 315840, Note_on_c, 4, 57, 88
5, 316320, Note_on_c, 4, 57, 0
5, 316320, Note_on_c, 4, 60, 0
5, 316800, Note_on_c, 4, 70, 88
5, 316800, Note_on_c, 4, 72, 88
5, 317280, Note_on_c, 4, 70, 0
5, 317280, Note_on_c, 4, 69, 88
5, 317760, Note_on_c, 4, 69, 0
5, 317760, Note_on_c, 4, 72, 0
5, 318240, Note_on_c, 4, 74, 88
5, 318720, Note_on_c, 4, 74, 0
5, 318720, Note_on_c, 4, 76, 88
5, 319200, Note_on_c, 4, 76, 0
5, 319200, Note_on_c, 4, 77, 88
5, 319680, Note_on_c, 4, 77, 0
5, 319680, Note_on_c, 4, 78, 88
5, 319920, Note_on_c, 4, 78, 0
5, 320160, Note_on_c, 4, 74, 88
5, 320400, Note_on_c, 4, 74, 0
5, 320640, Note_on_c, 4, 71, 88
5, 320880, Note_on_c, 4, 71, 0
5, 320880, End_track
6, 0, Start_track
6, 0, Title_t, "Piano 2 Trebble"
6, 0, Control_c, 5, 0, 0
6, 0, Control_c, 5, 7, 100
6, 0, Control_c, 5, 10, 80
6, 0, Control_c, 5, 91, 82
6, 0, Control_c, 5, 93, 73
6, 1, Control_c, 5, 32, 1
6, 2, Program_c, 5, 0
6, 480, Note_on_c, 5, 72, 88
6, 960, Note_on_c, 5, 72, 0
6, 960, Note_on_c, 5, 69, 88
6, 1440, Note_on_c, 5, 69, 0
6, 1440, Note_on_c, 5, 67, 88
6, 1920, Note_on_c, 5, 67, 0
6, 1920, Note_on_c, 5, 70, 88
6, 2400, Note_on_c, 5, 70, 0
6, 2400, Note_on_c, 5, 69, 88
6, 2880, Note_on_c, 5, 69, 0
6, 2880, Note_on_c, 5, 70, 88
6, 3360, Note_on_c, 5, 70, 0
6, 3360, Note_on_c, 5, 67, 88
6, 3840, Note_on_c, 5, 67, 0
6, 3840, Note_on_c, 5, 69, 74
6, 3870, Note_on_c, 5, 67, 78
6, 3894, Note_on_c, 5, 69, 0
6, 3900, Note_on_c, 5, 69, 81
6, 3924, Note_on_c, 5, 67, 0
6, 3930, Note_on_c, 5, 67, 81
6, 3954, Note_on_c, 5, 69, 0
6, 3960, Note_on_c, 5, 66, 81
6, 3984, Note_on_c, 5, 67, 0
6, 4020, Note_on_c, 5, 67, 79
6, 4068, Note_on_c, 5, 66, 0
6, 4080, Note_on_c, 5, 70, 88
6, 4128, Note_on_c, 5, 67, 0
6, 4320, Note_on_c, 5, 70, 0
6, 4320, Note_on_c, 5, 69, 88
6, 4800, Note_on_c, 5, 69, 0
6, 4800, Note_on_c, 5, 67, 88
6, 5280, Note_on_c, 5, 67, 0
6, 5280, Note_on_c, 5, 65, 88
6, 5680, Note_on_c, 5, 64, 88
6, 5720, Note_on_c, 5, 67, 88
6, 5760, Note_on_c, 5, 65, 0
6, 5760, Note_on_c, 5, 72, 88
6, 6160, Note_on_c, 5, 65, 88
6, 6200, Note_on_c, 5, 69, 88
6, 6240, Note_on_c, 5, 72, 0
6, 6240, Note_on_c, 5, 64, 0
6, 6240, Note_on_c, 5, 67, 0
6, 6240, Note_on_c, 5, 72, 88
6, 6720, Note_on_c, 5, 72, 0
6, 6720, Note_on_c, 5, 65, 0
6, 6720, Note_on_c, 5, 69, 0
6, 7120, Note_on_c, 5, 64, 88
6, 7160, Note_on_c, 5, 67, 88
6, 7200, Note_on_c, 5, 72, 88
6, 7600, Note_on_c, 5, 65, 88
6, 7640, Note_on_c, 5, 69, 88
6, 7680, Note_on_c, 5, 72, 0
6, 7680, Note_on_c, 5, 64, 0
6, 7680, Note_on_c, 5, 67, 0
6, 7680, Note_on_c, 5, 72, 88
6, 8160, Note_on_c, 5, 72, 0
6, 8160, Note_on_c, 5, 65, 0
6, 8160, Note_on_c, 5, 69, 0
6, 8640, Note_on_c, 5, 62, 88
6, 9120, Note_on_c, 5, 62, 0
6, 9120, Note_on_c, 5, 64, 88
6, 9600, Note_on_c, 5, 64, 0
6, 9600, Note_on_c, 5, 65, 88
6, 9840, Note_on_c, 5, 65, 0
6, 9840, Note_on_c, 5, 69, 88
6, 10080, Note_on_c, 5, 69, 0
6, 10080, Note_on_c, 5, 72, 88
6, 10560, Note_on_c, 5, 72, 0
6, 10560, Note_on_c, 5, 60, 88
6, 11040, Note_on_c, 5, 60, 0
6, 25080, Note_on_c, 5, 81, 88
6, 25200, Note_on_c, 5, 81, 0
6, 25200, Note_on_c, 5, 79, 88
6, 25320, Note_on_c, 5, 79, 0
6, 25320, Note_on_c, 5, 77, 88
6, 25440, Note_on_c, 5, 77, 0
6, 25440, Note_on_c, 5, 76, 88
6, 25560, Note_on_c, 5, 76, 0
6, 25560, Note_on_c, 5, 74, 88
6, 25680, Note_on_c, 5, 74, 0
6, 25680, Note_on_c, 5, 72, 88
6, 25800, Note_on_c, 5, 72, 0
6, 25800, Note_on_c, 5, 71, 88
6, 25920, Note_on_c, 5, 71, 0
6, 25920, Note_on_c, 5, 70, 88
6, 26040, Note_on_c, 5, 70, 0
6, 26040, Note_on_c, 5, 72, 88
6, 26160, Note_on_c, 5, 72, 0
6, 26160, Note_on_c, 5, 69, 88
6, 26280, Note_on_c, 5, 69, 0
6, 26280, Note_on_c, 5, 70, 88
6, 26400, Note_on_c, 5, 70, 0
6, 26400, Note_on_c, 5, 67, 88
6, 26520, Note_on_c, 5, 67, 0
6, 26520, Note_on_c, 5, 69, 88
6, 26640, Note_on_c, 5, 69, 0
6, 26640, Note_on_c, 5, 65, 88
6, 26760, Note_on_c, 5, 65, 0
6, 26760, Note_on_c, 5, 67, 88
6, 26880, Note_on_c, 5, 67, 0
6, 26880, Note_on_c, 5, 64, 88
6, 27000, Note_on_c, 5, 64, 0
6, 27000, Note_on_c, 5, 65, 88
6, 27120, Note_on_c, 5, 65, 0
6, 27120, Note_on_c, 5, 67, 88
6, 27240, Note_on_c, 5, 67, 0
6, 27240, Note_on_c, 5, 64, 88
6, 27360, Note_on_c, 5, 64, 0
6, 27360, Note_on_c, 5, 65, 88
6, 27840, Note_on_c, 5, 65, 0
6, 28720, Note_on_c, 5, 65, 88
6, 28760, Note_on_c, 5, 69, 88
6, 28800, Note_on_c, 5, 72, 88
6, 29200, Note_on_c, 5, 69, 88
6, 29240, Note_on_c, 5, 72, 88
6, 29280, Note_on_c, 5, 72, 0
6, 29280, Note_on_c, 5, 65, 0
6, 29280, Note_on_c, 5, 69, 0
6, 29280, Note_on_c, 5, 77, 88
6, 29680, Note_on_c, 5, 67, 88
6, 29720, Note_on_c, 5, 70, 88
6, 29760, Note_on_c, 5, 77, 0
6, 29760, Note_on_c, 5, 72, 0
6, 29760, Note_on_c, 5, 69, 0
6, 29760, Note_on_c, 5, 76, 88
6, 30150, Note_on_c, 5, 65, 88
6, 30180, Note_on_c, 5, 69, 88
6, 30210, Note_on_c, 5, 72, 88
6, 30240, Note_on_c, 5, 76, 0
6, 30240, Note_on_c, 5, 70, 0
6, 30240, Note_on_c, 5, 67, 0
6, 30240, Note_on_c, 5, 77, 88
6, 30720, Note_on_c, 5, 77, 0
6, 30720, Note_on_c, 5, 72, 0
6, 30720, Note_on_c, 5, 69, 0
6, 30720, Note_on_c, 5, 65, 0
6, 30720, Note_on_c, 5, 57, 88
6, 30720, Note_on_c, 5, 65, 88
6, 31200, Note_on_c, 5, 65, 0
6, 31200, Note_on_c, 5, 57, 0
6, 37440, Note_on_c, 5, 74, 88
6, 37560, Note_on_c, 5, 74, 0
6, 37560, Note_on_c, 5, 76, 88
6, 37680, Note_on_c, 5, 76, 0
6, 37680, Note_on_c, 5, 74, 88
6, 37800, Note_on_c, 5, 74, 0
6, 37800, Note_on_c, 5, 73, 88
6, 37920, Note_on_c, 5, 73, 0
6, 37920, Note_on_c, 5, 74, 88
6, 38040, Note_on_c, 5, 74, 0
6, 38040, Note_on_c, 5, 69, 88
6, 38160, Note_on_c, 5, 69, 0
6, 38160, Note_on_c, 5, 77, 88
6, 38280, Note_on_c, 5, 77, 0
6, 38280, Note_on_c, 5, 76, 88
6, 38400, Note_on_c, 5, 76, 0
6, 38400, Note_on_c, 5, 74, 88
6, 38520, Note_on_c, 5, 74, 0
6, 38520, Note_on_c, 5, 69, 88
6, 38640, Note_on_c, 5, 69, 0
6, 38640, Note_on_c, 5, 81, 88
6, 38760, Note_on_c, 5, 81, 0
6, 38760, Note_on_c, 5, 79, 88
6, 38880, Note_on_c, 5, 79, 0
6, 38880, Note_on_c, 5, 77, 88
6, 39000, Note_on_c, 5, 77, 0
6, 39000, Note_on_c, 5, 74, 88
6, 39120, Note_on_c, 5, 74, 0
6, 39120, Note_on_c, 5, 84, 88
6, 39240, Note_on_c, 5, 84, 0
6, 39240, Note_on_c, 5, 83, 88
6, 39360, Note_on_c, 5, 83, 0
6, 39360, Note_on_c, 5, 81, 88
6, 39480, Note_on_c, 5, 81, 0
6, 39480, Note_on_c, 5, 83, 88
6, 39600, Note_on_c, 5, 83, 0
6, 39600, Note_on_c, 5, 79, 88
6, 39720, Note_on_c, 5, 79, 0
6, 39720, Note_on_c, 5, 81, 88
6, 39840, Note_on_c, 5, 81, 0
6, 39840, Note_on_c, 5, 77, 88
6, 39960, Note_on_c, 5, 77, 0
6, 39960, Note_on_c, 5, 79, 88
6, 40080, Note_on_c, 5, 79, 0
6, 40080, Note_on_c, 5, 76, 88
6, 40200, Note_on_c, 5, 76, 0
6, 40200, Note_on_c, 5, 77, 88
6, 40320, Note_on_c, 5, 77, 0
6, 40320, Note_on_c, 5, 74, 88
6, 40440, Note_on_c, 5, 74, 0
6, 40440, Note_on_c, 5, 76, 88
6, 40560, Note_on_c, 5, 76, 0
6, 40560, Note_on_c, 5, 74, 88
6, 40680, Note_on_c, 5, 74, 0
6, 40680, Note_on_c, 5, 73, 88
6, 40800, Note_on_c, 5, 73, 0
6, 40800, Note_on_c, 5, 74, 88
6, 40920, Note_on_c, 5, 74, 0
6, 40920, Note_on_c, 5, 69, 88
6, 41040, Note_on_c, 5, 69, 0
6, 41040, Note_on_c, 5, 81, 88
6, 41160, Note_on_c, 5, 81, 0
6, 41160, Note_on_c, 5, 79, 88
6, 41280, Note_on_c, 5, 79, 0
6, 41280, Note_on_c, 5, 77, 88
6, 41400, Note_on_c, 5, 77, 0
6, 41400, Note_on_c, 5, 76, 88
6, 41520, Note_on_c, 5, 76, 0
6, 41520, Note_on_c, 5, 74, 88
6, 41640, Note_on_c, 5, 74, 0
6, 41640, Note_on_c, 5, 72, 88
6, 41760, Note_on_c, 5, 72, 0
6, 41760, Note_on_c, 5, 74, 88
6, 41820, Note_on_c, 5, 72, 88
6, 41868, Note_on_c, 5, 74, 0
6, 41880, Note_on_c, 5, 74, 88
6, 41928, Note_on_c, 5, 72, 0
6, 41940, Note_on_c, 5, 72, 88
6, 41988, Note_on_c, 5, 74, 0
6, 42000, Note_on_c, 5, 71, 88
6, 42048, Note_on_c, 5, 72, 0
6, 42120, Note_on_c, 5, 72, 88
6, 42154, Note_on_c, 5, 71, 0
6, 42240, Note_on_c, 5, 71, 88
6, 42286, Note_on_c, 5, 72, 0
6, 42720, Note_on_c, 5, 71, 0
6, 48120, Note_on_c, 5, 67, 88
6, 48240, Note_on_c, 5, 67, 0
6, 48240, Note_on_c, 5, 69, 88
6, 48360, Note_on_c, 5, 69, 0
6, 48360, Note_on_c, 5, 71, 88
6, 48480, Note_on_c, 5, 71, 0
6, 48480, Note_on_c, 5, 72, 88
6, 48600, Note_on_c, 5, 72, 0
6, 48600, Note_on_c, 5, 74, 88
6, 48720, Note_on_c, 5, 74, 0
6, 48720, Note_on_c, 5, 76, 88
6, 48840, Note_on_c, 5, 76, 0
6, 48840, Note_on_c, 5, 77, 88
6, 48960, Note_on_c, 5, 77, 0
6, 48960, Note_on_c, 5, 76, 88
6, 49080, Note_on_c, 5, 76, 0
6, 49080, Note_on_c, 5, 72, 88
6, 49200, Note_on_c, 5, 72, 0
6, 49200, Note_on_c, 5, 79, 88
6, 49320, Note_on_c, 5, 79, 0
6, 49320, Note_on_c, 5, 76, 88
6, 49440, Note_on_c, 5, 76, 0
6, 49440, Note_on_c, 5, 84, 88
6, 49560, Note_on_c, 5, 84, 0
6, 49560, Note_on_c, 5, 79, 88
6, 49680, Note_on_c, 5, 79, 0
6, 49680, Note_on_c, 5, 88, 88
6, 49800, Note_on_c, 5, 88, 0
6, 49800, Note_on_c, 5, 83, 88
6, 49920, Note_on_c, 5, 83, 0
6, 49920, Note_on_c, 5, 84, 88
6, 50040, Note_on_c, 5, 84, 0
6, 50040, Note_on_c, 5, 79, 88
6, 50160, Note_on_c, 5, 79, 0
6, 50160, Note_on_c, 5, 81, 88
6, 50280, Note_on_c, 5, 81, 0
6, 50280, Note_on_c, 5, 76, 88
6, 50400, Note_on_c, 5, 76, 0
6, 50400, Note_on_c, 5, 77, 88
6, 50520, Note_on_c, 5, 77, 0
6, 50520, Note_on_c, 5, 86, 88
6, 50640, Note_on_c, 5, 86, 0
6, 50640, Note_on_c, 5, 76, 88
6, 50760, Note_on_c, 5, 76, 0
6, 50760, Note_on_c, 5, 84, 88
6, 50880, Note_on_c, 5, 84, 0
6, 50880, Note_on_c, 5, 74, 88
6, 51000, Note_on_c, 5, 74, 0
6, 51000, Note_on_c, 5, 83, 88
6, 51120, Note_on_c, 5, 83, 0
6, 51120, Note_on_c, 5, 72, 88
6, 51240, Note_on_c, 5, 72, 0
6, 51240, Note_on_c, 5, 81, 88
6, 51360, Note_on_c, 5, 81, 0
6, 51360, Note_on_c, 5, 71, 88
6, 51480, Note_on_c, 5, 71, 0
6, 51480, Note_on_c, 5, 79, 88
6, 51600, Note_on_c, 5, 79, 0
6, 51600, Note_on_c, 5, 74, 88
6, 51720, Note_on_c, 5, 74, 0
6, 51720, Note_on_c, 5, 77, 88
6, 51840, Note_on_c, 5, 77, 0
6, 51840, Note_on_c, 5, 76, 88
6, 52080, Note_on_c, 5, 76, 0
6, 52080, Note_on_c, 5, 74, 88
6, 52320, Note_on_c, 5, 74, 0
6, 52320, Note_on_c, 5, 76, 88
6, 52560, Note_on_c, 5, 76, 0
6, 52560, Note_on_c, 5, 77, 88
6, 52800, Note_on_c, 5, 77, 0
6, 52800, Note_on_c, 5, 78, 88
6, 53040, Note_on_c, 5, 78, 0
6, 53040, Note_on_c, 5, 79, 88
6, 53136, Note_on_c, 5, 79, 0
6, 53280, Note_on_c, 5, 77, 88
6, 53400, Note_on_c, 5, 77, 0
6, 53400, Note_on_c, 5, 76, 88
6, 53520, Note_on_c, 5, 76, 0
6, 53520, Note_on_c, 5, 74, 88
6, 53640, Note_on_c, 5, 74, 0
6, 53640, Note_on_c, 5, 76, 88
6, 53760, Note_on_c, 5, 76, 0
6, 53760, Note_on_c, 5, 74, 88
6, 54240, Note_on_c, 5, 74, 0
6, 55440, Note_on_c, 5, 67, 88
6, 55680, Note_on_c, 5, 67, 0
6, 55680, Note_on_c, 5, 79, 88
6, 55800, Note_on_c, 5, 79, 0
6, 55800, Note_on_c, 5, 77, 88
6, 55920, Note_on_c, 5, 77, 0
6, 55920, Note_on_c, 5, 76, 88
6, 56040, Note_on_c, 5, 76, 0
6, 56040, Note_on_c, 5, 74, 88
6, 56160, Note_on_c, 5, 74, 0
6, 56160, Note_on_c, 5, 72, 88
6, 56280, Note_on_c, 5, 72, 0
6, 56280, Note_on_c, 5, 74, 88
6, 56400, Note_on_c, 5, 74, 0
6, 56400, Note_on_c, 5, 71, 88
6, 56520, Note_on_c, 5, 71, 0
6, 56520, Note_on_c, 5, 74, 88
6, 56567, Note_on_c, 5, 74, 0
6, 56640, Note_on_c, 5, 72, 88
6, 56736, Note_on_c, 5, 72, 0
6, 56880, Note_on_c, 5, 72, 88
6, 56976, Note_on_c, 5, 72, 0
6, 57120, Note_on_c, 5, 74, 88
6, 57216, Note_on_c, 5, 74, 0
6, 57360, Note_on_c, 5, 74, 88
6, 57456, Note_on_c, 5, 74, 0
6, 57600, Note_on_c, 5, 76, 88
6, 57720, Note_on_c, 5, 76, 0
6, 57720, Note_on_c, 5, 77, 88
6, 57840, Note_on_c, 5, 77, 0
6, 57840, Note_on_c, 5, 74, 88
6, 57960, Note_on_c, 5, 74, 0
6, 57960, Note_on_c, 5, 77, 88
6, 58007, Note_on_c, 5, 77, 0
6, 58080, Note_on_c, 5, 76, 88
6, 58176, Note_on_c, 5, 76, 0
6, 58320, Note_on_c, 5, 76, 88
6, 58416, Note_on_c, 5, 76, 0
6, 58560, Note_on_c, 5, 77, 88
6, 58656, Note_on_c, 5, 77, 0
6, 58800, Note_on_c, 5, 77, 88
6, 58896, Note_on_c, 5, 77, 0
6, 59040, Note_on_c, 5, 79, 88
6, 59640, Note_on_c, 5, 79, 0
6, 59640, Note_on_c, 5, 81, 88
6, 59760, Note_on_c, 5, 81, 0
6, 59760, Note_on_c, 5, 83, 88
6, 59880, Note_on_c, 5, 83, 0
6, 59880, Note_on_c, 5, 84, 88
6, 59927, Note_on_c, 5, 84, 0
6, 60000, Note_on_c, 5, 84, 88
6, 60120, Note_on_c, 5, 84, 0
6, 60120, Note_on_c, 5, 83, 88
6, 60240, Note_on_c, 5, 83, 0
6, 60240, Note_on_c, 5, 81, 88
6, 60360, Note_on_c, 5, 81, 0
6, 60360, Note_on_c, 5, 79, 88
6, 60480, Note_on_c, 5, 79, 0
6, 60480, Note_on_c, 5, 84, 88
6, 60600, Note_on_c, 5, 84, 0
6, 60600, Note_on_c, 5, 86, 88
6, 60720, Note_on_c, 5, 86, 0
6, 60720, Note_on_c, 5, 83, 88
6, 60840, Note_on_c, 5, 83, 0
6, 60840, Note_on_c, 5, 84, 88
6, 60960, Note_on_c, 5, 84, 0
6, 60960, Note_on_c, 5, 81, 88
6, 61080, Note_on_c, 5, 81, 0
6, 61080, Note_on_c, 5, 83, 88
6, 61200, Note_on_c, 5, 83, 0
6, 61200, Note_on_c, 5, 79, 88
6, 61320, Note_on_c, 5, 79, 0
6, 61320, Note_on_c, 5, 81, 88
6, 61440, Note_on_c, 5, 81, 0
6, 61440, Note_on_c, 5, 77, 88
6, 61560, Note_on_c, 5, 77, 0
6, 61560, Note_on_c, 5, 79, 88
6, 61680, Note_on_c, 5, 79, 0
6, 61680, Note_on_c, 5, 76, 88
6, 61800, Note_on_c, 5, 76, 0
6, 61800, Note_on_c, 5, 77, 88
6, 61920, Note_on_c, 5, 77, 0
6, 61920, Note_on_c, 5, 74, 88
6, 62040, Note_on_c, 5, 74, 0
6, 62040, Note_on_c, 5, 76, 88
6, 62160, Note_on_c, 5, 76, 0
6, 62160, Note_on_c, 5, 77, 88
6, 62280, Note_on_c, 5, 77, 0
6, 62280, Note_on_c, 5, 79, 88
6, 62400, Note_on_c, 5, 79, 0
6, 62400, Note_on_c, 5, 81, 88
6, 62520, Note_on_c, 5, 81, 0
6, 62520, Note_on_c, 5, 83, 88
6, 62640, Note_on_c, 5, 83, 0
6, 62640, Note_on_c, 5, 84, 88
6, 62760, Note_on_c, 5, 84, 0
6, 62760, Note_on_c, 5, 83, 88
6, 62880, Note_on_c, 5, 83, 0
6, 62880, Note_on_c, 5, 86, 88
6, 63000, Note_on_c, 5, 86, 0
6, 63000, Note_on_c, 5, 84, 88
6, 63120, Note_on_c, 5, 84, 0
6, 63120, Note_on_c, 5, 83, 88
6, 63240, Note_on_c, 5, 83, 0
6, 63240, Note_on_c, 5, 81, 88
6, 63360, Note_on_c, 5, 81, 0
6, 63360, Note_on_c, 5, 81, 88
6, 63480, Note_on_c, 5, 81, 0
6, 63480, Note_on_c, 5, 79, 88
6, 63600, Note_on_c, 5, 79, 0
6, 63600, Note_on_c, 5, 81, 88
6, 63720, Note_on_c, 5, 81, 0
6, 63720, Note_on_c, 5, 77, 88
6, 63840, Note_on_c, 5, 77, 0
6, 63840, Note_on_c, 5, 76, 88
6, 64320, Note_on_c, 5, 76, 0
6, 64320, Note_on_c, 5, 76, 88
6, 64380, Note_on_c, 5, 74, 88
6, 64428, Note_on_c, 5, 76, 0
6, 64440, Note_on_c, 5, 76, 88
6, 64488, Note_on_c, 5, 74, 0
6, 64500, Note_on_c, 5, 74, 88
6, 64548, Note_on_c, 5, 76, 0
6, 64560, Note_on_c, 5, 72, 88
6, 64608, Note_on_c, 5, 74, 0
6, 64680, Note_on_c, 5, 74, 88
6, 64710, Note_on_c, 5, 72, 0
6, 64758, Note_on_c, 5, 74, 0
6, 64800, Note_on_c, 5, 79, 88
6, 64896, Note_on_c, 5, 79, 0
6, 65040, Note_on_c, 5, 77, 88
6, 65136, Note_on_c, 5, 77, 0
6, 65280, Note_on_c, 5, 76, 88
6, 65376, Note_on_c, 5, 76, 0
6, 65520, Note_on_c, 5, 74, 88
6, 65616, Note_on_c, 5, 74, 0
6, 65760, Note_on_c, 5, 72, 88
6, 65856, Note_on_c, 5, 72, 0
6, 66000, Note_on_c, 5, 71, 88
6, 66096, Note_on_c, 5, 71, 0
6, 66240, Note_on_c, 5, 69, 88
6, 66720, Note_on_c, 5, 69, 0
6, 67200, Note_on_c, 5, 69, 88
6, 67200, Note_on_c, 5, 72, 88
6, 67680, Note_on_c, 5, 72, 0
6, 67680, Note_on_c, 5, 69, 0
6, 67680, Note_on_c, 5, 67, 88
6, 67680, Note_on_c, 5, 72, 88
6, 67920, Note_on_c, 5, 72, 0
6, 67920, Note_on_c, 5, 67, 0
6, 67920, Note_on_c, 5, 69, 88
6, 67920, Note_on_c, 5, 77, 88
6, 68040, Note_on_c, 5, 77, 0
6, 68040, Note_on_c, 5, 74, 88
6, 68160, Note_on_c, 5, 74, 0
6, 68160, Note_on_c, 5, 69, 0
6, 68160, Note_on_c, 5, 72, 88
6, 68640, Note_on_c, 5, 72, 0
6, 68640, Note_on_c, 5, 72, 88
6, 68700, Note_on_c, 5, 71, 88
6, 68748, Note_on_c, 5, 72, 0
6, 68760, Note_on_c, 5, 72, 88
6, 68808, Note_on_c, 5, 71, 0
6, 68820, Note_on_c, 5, 71, 88
6, 68868, Note_on_c, 5, 72, 0
6, 68880, Note_on_c, 5, 69, 88
6, 68928, Note_on_c, 5, 71, 0
6, 69000, Note_on_c, 5, 71, 88
6, 69032, Note_on_c, 5, 69, 0
6, 69120, Note_on_c, 5, 72, 88
6, 69168, Note_on_c, 5, 71, 0
6, 69360, Note_on_c, 5, 72, 0
6, 69360, Note_on_c, 5, 67, 88
6, 69600, Note_on_c, 5, 67, 0
6, 69600, Note_on_c, 5, 64, 88
6, 69840, Note_on_c, 5, 64, 0
6, 69840, Note_on_c, 5, 60, 88
6, 70080, Note_on_c, 5, 60, 0
6, 70080, Note_on_c, 5, 55, 88
6, 70320, Note_on_c, 5, 55, 0
6, 70320, Note_on_c, 5, 60, 88
6, 70560, Note_on_c, 5, 60, 0
6, 70560, Note_on_c, 5, 52, 88
6, 70800, Note_on_c, 5, 52, 0
6, 70800, Note_on_c, 5, 55, 88
6, 71040, Note_on_c, 5, 55, 0
6, 71040, Note_on_c, 5, 60, 88
6, 71280, Note_on_c, 5, 60, 0
6, 71280, Note_on_c, 5, 55, 88
6, 71520, Note_on_c, 5, 55, 0
6, 71520, Note_on_c, 5, 64, 88
6, 71760, Note_on_c, 5, 64, 0
6, 71760, Note_on_c, 5, 60, 88
6, 72000, Note_on_c, 5, 60, 0
6, 72000, Note_on_c, 5, 65, 88
6, 72240, Note_on_c, 5, 65, 0
6, 72240, Note_on_c, 5, 60, 88
6, 72480, Note_on_c, 5, 60, 0
6, 72480, Note_on_c, 5, 57, 88
6, 72720, Note_on_c, 5, 57, 0
6, 72720, Note_on_c, 5, 60, 88
6, 72960, Note_on_c, 5, 60, 0
6, 72960, Note_on_c, 5, 53, 88
6, 73200, Note_on_c, 5, 53, 0
6, 73200, Note_on_c, 5, 57, 88
6, 73440, Note_on_c, 5, 57, 0
6, 73440, Note_on_c, 5, 50, 88
6, 73680, Note_on_c, 5, 50, 0
6, 73680, Note_on_c, 5, 53, 88
6, 73920, Note_on_c, 5, 53, 0
6, 73920, Note_on_c, 5, 55, 88
6, 74160, Note_on_c, 5, 55, 0
6, 74160, Note_on_c, 5, 62, 88
6, 74400, Note_on_c, 5, 62, 0
6, 74400, Note_on_c, 5, 65, 88
6, 74640, Note_on_c, 5, 65, 0
6, 74640, Note_on_c, 5, 62, 88
6, 74750, Note_on_c, 5, 62, 0
6, 74820, Note_on_c, 5, 62, 88
6, 74880, Note_on_c, 5, 72, 88
6, 74930, Note_on_c, 5, 62, 0
6, 75480, Note_on_c, 5, 72, 0
6, 75480, Note_on_c, 5, 74, 88
6, 75600, Note_on_c, 5, 74, 0
6, 75600, Note_on_c, 5, 76, 88
6, 75720, Note_on_c, 5, 76, 0
6, 75720, Note_on_c, 5, 77, 88
6, 75840, Note_on_c, 5, 77, 0
6, 75840, Note_on_c, 5, 79, 88
6, 75960, Note_on_c, 5, 79, 0
6, 75960, Note_on_c, 5, 81, 88
6, 76080, Note_on_c, 5, 81, 0
6, 76080, Note_on_c, 5, 83, 88
6, 76200, Note_on_c, 5, 83, 0
6, 76200, Note_on_c, 5, 84, 88
6, 76278, Note_on_c, 5, 84, 0
6, 76320, Note_on_c, 5, 84, 88
6, 76440, Note_on_c, 5, 82, 88
6, 76498, Note_on_c, 5, 84, 0
6, 76560, Note_on_c, 5, 84, 88
6, 76590, Note_on_c, 5, 82, 0
6, 76620, Note_on_c, 5, 82, 88
6, 76668, Note_on_c, 5, 84, 0
6, 76680, Note_on_c, 5, 84, 88
6, 76728, Note_on_c, 5, 82, 0
6, 76740, Note_on_c, 5, 82, 88
6, 76788, Note_on_c, 5, 84, 0
6, 76800, Note_on_c, 5, 84, 88
6, 76848, Note_on_c, 5, 82, 0
6, 76860, Note_on_c, 5, 82, 88
6, 76908, Note_on_c, 5, 84, 0
6, 76920, Note_on_c, 5, 84, 88
6, 76968, Note_on_c, 5, 82, 0
6, 76980, Note_on_c, 5, 82, 88
6, 77028, Note_on_c, 5, 84, 0
6, 77040, Note_on_c, 5, 84, 88
6, 77088, Note_on_c, 5, 82, 0
6, 77100, Note_on_c, 5, 82, 88
6, 77148, Note_on_c, 5, 84, 0
6, 77160, Note_on_c, 5, 84, 88
6, 77208, Note_on_c, 5, 82, 0
6, 77220, Note_on_c, 5, 82, 88
6, 77268, Note_on_c, 5, 84, 0
6, 77280, Note_on_c, 5, 84, 88
6, 77328, Note_on_c, 5, 82, 0
6, 77340, Note_on_c, 5, 82, 88
6, 77388, Note_on_c, 5, 84, 0
6, 77400, Note_on_c, 5, 84, 88
6, 77448, Note_on_c, 5, 82, 0
6, 77460, Note_on_c, 5, 82, 88
6, 77508, Note_on_c, 5, 84, 0
6, 77520, Note_on_c, 5, 81, 88
6, 77568, Note_on_c, 5, 82, 0
6, 77640, Note_on_c, 5, 82, 88
6, 77682, Note_on_c, 5, 81, 0
6, 77760, Note_on_c, 5, 81, 88
6, 77814, Note_on_c, 5, 82, 0
6, 78138, Note_on_c, 5, 81, 0
6, 78180, Note_on_c, 5, 80, 88
6, 78240, Note_on_c, 5, 81, 88
6, 78310, Note_on_c, 5, 80, 0
6, 78840, Note_on_c, 5, 81, 0
6, 78840, Note_on_c, 5, 83, 88
6, 78960, Note_on_c, 5, 83, 0
6, 78960, Note_on_c, 5, 84, 88
6, 79080, Note_on_c, 5, 84, 0
6, 79080, Note_on_c, 5, 81, 88
6, 79200, Note_on_c, 5, 81, 0
6, 79200, Note_on_c, 5, 77, 88
6, 79320, Note_on_c, 5, 77, 0
6, 79320, Note_on_c, 5, 79, 88
6, 79440, Note_on_c, 5, 79, 0
6, 79440, Note_on_c, 5, 81, 88
6, 79560, Note_on_c, 5, 81, 0
6, 79560, Note_on_c, 5, 77, 88
6, 79680, Note_on_c, 5, 77, 0
6, 79680, Note_on_c, 5, 74, 88
6, 79800, Note_on_c, 5, 74, 0
6, 79800, Note_on_c, 5, 76, 88
6, 79920, Note_on_c, 5, 76, 0
6, 79920, Note_on_c, 5, 77, 88
6, 80040, Note_on_c, 5, 77, 0
6, 80040, Note_on_c, 5, 74, 88
6, 80160, Note_on_c, 5, 74, 0
6, 80160, Note_on_c, 5, 71, 88
6, 80280, Note_on_c, 5, 71, 0
6, 80280, Note_on_c, 5, 77, 88
6, 80400, Note_on_c, 5, 77, 0
6, 80400, Note_on_c, 5, 74, 88
6, 80520, Note_on_c, 5, 74, 0
6, 80520, Note_on_c, 5, 71, 88
6, 80640, Note_on_c, 5, 71, 0
6, 80640, Note_on_c, 5, 72, 88
6, 81120, Note_on_c, 5, 72, 0
6, 81120, Note_on_c, 5, 64, 88
6, 81600, Note_on_c, 5, 64, 0
6, 81600, Note_on_c, 5, 67, 88
6, 82080, Note_on_c, 5, 67, 0
6, 82080, Note_on_c, 5, 72, 88
6, 82560, Note_on_c, 5, 72, 0
6, 82560, Note_on_c, 5, 76, 88
6, 83040, Note_on_c, 5, 76, 0
6, 83040, Note_on_c, 5, 79, 88
6, 83520, Note_on_c, 5, 79, 0
6, 83520, Note_on_c, 5, 84, 88
6, 84000, Note_on_c, 5, 84, 0
6, 84960, Note_on_c, 5, 79, 88
6, 85440, Note_on_c, 5, 79, 0
6, 117240, Note_on_c, 5, 81, 88
6, 117360, Note_on_c, 5, 81, 0
6, 117360, Note_on_c, 5, 79, 88
6, 117480, Note_on_c, 5, 79, 0
6, 117480, Note_on_c, 5, 77, 88
6, 117600, Note_on_c, 5, 77, 0
6, 117600, Note_on_c, 5, 76, 88
6, 117720, Note_on_c, 5, 76, 0
6, 117720, Note_on_c, 5, 74, 88
6, 117840, Note_on_c, 5, 74, 0
6, 117840, Note_on_c, 5, 72, 88
6, 117960, Note_on_c, 5, 72, 0
6, 117960, Note_on_c, 5, 71, 88
6, 118080, Note_on_c, 5, 71, 0
6, 118080, Note_on_c, 5, 70, 88
6, 118200, Note_on_c, 5, 70, 0
6, 118200, Note_on_c, 5, 72, 88
6, 118320, Note_on_c, 5, 72, 0
6, 118320, Note_on_c, 5, 69, 88
6, 118440, Note_on_c, 5, 69, 0
6, 118440, Note_on_c, 5, 70, 88
6, 118560, Note_on_c, 5, 70, 0
6, 118560, Note_on_c, 5, 67, 88
6, 118680, Note_on_c, 5, 67, 0
6, 118680, Note_on_c, 5, 69, 88
6, 118800, Note_on_c, 5, 69, 0
6, 118800, Note_on_c, 5, 65, 88
6, 118920, Note_on_c, 5, 65, 0
6, 118920, Note_on_c, 5, 67, 88
6, 119040, Note_on_c, 5, 67, 0
6, 119040, Note_on_c, 5, 64, 88
6, 119160, Note_on_c, 5, 64, 0
6, 119160, Note_on_c, 5, 65, 88
6, 119280, Note_on_c, 5, 65, 0
6, 119280, Note_on_c, 5, 67, 88
6, 119400, Note_on_c, 5, 67, 0
6, 119400, Note_on_c, 5, 64, 88
6, 119520, Note_on_c, 5, 64, 0
6, 119520, Note_on_c, 5, 65, 88
6, 120000, Note_on_c, 5, 65, 0
6, 120880, Note_on_c, 5, 60, 88
6, 120920, Note_on_c, 5, 65, 88
6, 120960, Note_on_c, 5, 69, 88
6, 121360, Note_on_c, 5, 65, 88
6, 121400, Note_on_c, 5, 69, 88
6, 121440, Note_on_c, 5, 69, 0
6, 121440, Note_on_c, 5, 60, 0
6, 121440, Note_on_c, 5, 65, 0
6, 121440, Note_on_c, 5, 72, 88
6, 121840, Note_on_c, 5, 64, 88
6, 121880, Note_on_c, 5, 67, 88
6, 121920, Note_on_c, 5, 72, 0
6, 121920, Note_on_c, 5, 69, 0
6, 121920, Note_on_c, 5, 65, 0
6, 121920, Note_on_c, 5, 73, 88
6, 122280, Note_on_c, 5, 74, 101
6, 122340, Note_on_c, 5, 74, 0
6, 122340, Note_on_c, 5, 77, 101
6, 122400, Note_on_c, 5, 77, 0
6, 122400, Note_on_c, 5, 73, 0
6, 122400, Note_on_c, 5, 64, 0
6, 122400, Note_on_c, 5, 67, 0
6, 122400, Note_on_c, 5, 81, 101
6, 123120, Note_on_c, 5, 81, 0
6, 123120, Note_on_c, 5, 79, 75
6, 123240, Note_on_c, 5, 79, 0
6, 123240, Note_on_c, 5, 77, 75
6, 123360, Note_on_c, 5, 77, 0
6, 123360, Note_on_c, 5, 79, 75
6, 123480, Note_on_c, 5, 79, 0
6, 123480, Note_on_c, 5, 77, 75
6, 123600, Note_on_c, 5, 77, 0
6, 123600, Note_on_c, 5, 76, 75
6, 123720, Note_on_c, 5, 76, 0
6, 123720, Note_on_c, 5, 74, 75
6, 123840, Note_on_c, 5, 74, 0
6, 123840, Note_on_c, 5, 82, 75
6, 124560, Note_on_c, 5, 82, 0
6, 124560, Note_on_c, 5, 81, 75
6, 124680, Note_on_c, 5, 81, 0
6, 124680, Note_on_c, 5, 79, 75
6, 124800, Note_on_c, 5, 79, 0
6, 124800, Note_on_c, 5, 81, 75
6, 124920, Note_on_c, 5, 81, 0
6, 124920, Note_on_c, 5, 79, 75
6, 125040, Note_on_c, 5, 79, 0
6, 125040, Note_on_c, 5, 77, 75
6, 125160, Note_on_c, 5, 77, 0
6, 125160, Note_on_c, 5, 76, 75
6, 125280, Note_on_c, 5, 76, 0
6, 125280, Note_on_c, 5, 77, 75
6, 125400, Note_on_c, 5, 77, 0
6, 125400, Note_on_c, 5, 81, 75
6, 125520, Note_on_c, 5, 81, 0
6, 125520, Note_on_c, 5, 74, 75
6, 125640, Note_on_c, 5, 74, 0
6, 125640, Note_on_c, 5, 77, 75
6, 125760, Note_on_c, 5, 77, 0
6, 125760, Note_on_c, 5, 76, 75
6, 125880, Note_on_c, 5, 76, 0
6, 125880, Note_on_c, 5, 79, 75
6, 126000, Note_on_c, 5, 79, 0
6, 126000, Note_on_c, 5, 73, 75
6, 126120, Note_on_c, 5, 73, 0
6, 126120, Note_on_c, 5, 76, 75
6, 126240, Note_on_c, 5, 76, 0
6, 126240, Note_on_c, 5, 74, 75
6, 126360, Note_on_c, 5, 74, 0
6, 126360, Note_on_c, 5, 77, 75
6, 126480, Note_on_c, 5, 77, 0
6, 126480, Note_on_c, 5, 65, 75
6, 126600, Note_on_c, 5, 65, 0
6, 126600, Note_on_c, 5, 69, 75
6, 126720, Note_on_c, 5, 69, 0
6, 126720, Note_on_c, 5, 67, 75
6, 126840, Note_on_c, 5, 67, 0
6, 126840, Note_on_c, 5, 70, 75
6, 126960, Note_on_c, 5, 70, 0
6, 126960, Note_on_c, 5, 64, 75
6, 127080, Note_on_c, 5, 64, 0
6, 127080, Note_on_c, 5, 67, 75
6, 127200, Note_on_c, 5, 67, 0
6, 127200, Note_on_c, 5, 65, 75
6, 127320, Note_on_c, 5, 65, 0
6, 127320, Note_on_c, 5, 69, 75
6, 127440, Note_on_c, 5, 69, 0
6, 127440, Note_on_c, 5, 62, 75
6, 127560, Note_on_c, 5, 62, 0
6, 127560, Note_on_c, 5, 65, 75
6, 127680, Note_on_c, 5, 65, 0
6, 127680, Note_on_c, 5, 64, 75
6, 127800, Note_on_c, 5, 64, 0
6, 127800, Note_on_c, 5, 67, 75
6, 127920, Note_on_c, 5, 67, 0
6, 127920, Note_on_c, 5, 61, 75
6, 128040, Note_on_c, 5, 61, 0
6, 128040, Note_on_c, 5, 64, 75
6, 128160, Note_on_c, 5, 64, 0
6, 128160, Note_on_c, 5, 62, 75
6, 128640, Note_on_c, 5, 62, 0
6, 135840, Note_on_c, 5, 80, 75
6, 135840, Note_on_c, 5, 89, 75
6, 136320, Note_on_c, 5, 89, 0
6, 136320, Note_on_c, 5, 80, 0
6, 136320, Note_on_c, 5, 81, 75
6, 136320, Note_on_c, 5, 88, 75
6, 136800, Note_on_c, 5, 88, 0
6, 136800, Note_on_c, 5, 81, 0
6, 136920, Note_on_c, 5, 57, 75
6, 137040, Note_on_c, 5, 57, 0
6, 137040, Note_on_c, 5, 69, 75
6, 137160, Note_on_c, 5, 69, 0
6, 137160, Note_on_c, 5, 57, 75
6, 137280, Note_on_c, 5, 57, 0
6, 137400, Note_on_c, 5, 59, 75
6, 137520, Note_on_c, 5, 59, 0
6, 137520, Note_on_c, 5, 68, 75
6, 137640, Note_on_c, 5, 68, 0
6, 137640, Note_on_c, 5, 59, 75
6, 137760, Note_on_c, 5, 59, 0
6, 137880, Note_on_c, 5, 61, 75
6, 138000, Note_on_c, 5, 61, 0
6, 138000, Note_on_c, 5, 67, 75
6, 138120, Note_on_c, 5, 67, 0
6, 138120, Note_on_c, 5, 61, 75
6, 138240, Note_on_c, 5, 61, 0
6, 138360, Note_on_c, 5, 62, 75
6, 138480, Note_on_c, 5, 62, 0
6, 138480, Note_on_c, 5, 66, 75
6, 138600, Note_on_c, 5, 66, 0
6, 138600, Note_on_c, 5, 62, 75
6, 138720, Note_on_c, 5, 62, 0
6, 138840, Note_on_c, 5, 62, 75
6, 138960, Note_on_c, 5, 62, 0
6, 138960, Note_on_c, 5, 65, 75
6, 139080, Note_on_c, 5, 65, 0
6, 139080, Note_on_c, 5, 62, 75
6, 139200, Note_on_c, 5, 62, 0
6, 139320, Note_on_c, 5, 61, 75
6, 139440, Note_on_c, 5, 61, 0
6, 139440, Note_on_c, 5, 64, 75
6, 139560, Note_on_c, 5, 64, 0
6, 139560, Note_on_c, 5, 61, 75
6, 139680, Note_on_c, 5, 61, 0
6, 142560, Note_on_c, 5, 81, 88
6, 143280, Note_on_c, 5, 81, 0
6, 143280, Note_on_c, 5, 79, 75
6, 143400, Note_on_c, 5, 79, 0
6, 143400, Note_on_c, 5, 77, 75
6, 143520, Note_on_c, 5, 77, 0
6, 143520, Note_on_c, 5, 79, 75
6, 143640, Note_on_c, 5, 79, 0
6, 143640, Note_on_c, 5, 77, 75
6, 143760, Note_on_c, 5, 77, 0
6, 143760, Note_on_c, 5, 76, 75
6, 143880, Note_on_c, 5, 76, 0
6, 143880, Note_on_c, 5, 74, 75
6, 144000, Note_on_c, 5, 74, 0
6, 144000, Note_on_c, 5, 82, 88
6, 144720, Note_on_c, 5, 82, 0
6, 144720, Note_on_c, 5, 81, 75
6, 144840, Note_on_c, 5, 81, 0
6, 144840, Note_on_c, 5, 79, 75
6, 144960, Note_on_c, 5, 79, 0
6, 144960, Note_on_c, 5, 81, 75
6, 145080, Note_on_c, 5, 81, 0
6, 145080, Note_on_c, 5, 79, 75
6, 145200, Note_on_c, 5, 79, 0
6, 145200, Note_on_c, 5, 77, 75
6, 145320, Note_on_c, 5, 77, 0
6, 145320, Note_on_c, 5, 76, 75
6, 145440, Note_on_c, 5, 76, 0
6, 145440, Note_on_c, 5, 74, 75
6, 145920, Note_on_c, 5, 74, 0
6, 146160, Note_on_c, 5, 67, 75
6, 146280, Note_on_c, 5, 67, 0
6, 146280, Note_on_c, 5, 70, 75
6, 146400, Note_on_c, 5, 70, 0
6, 146400, Note_on_c, 5, 62, 75
6, 146520, Note_on_c, 5, 62, 0
6, 146520, Note_on_c, 5, 65, 75
6, 146640, Note_on_c, 5, 65, 0
6, 146640, Note_on_c, 5, 64, 75
6, 146760, Note_on_c, 5, 64, 0
6, 146760, Note_on_c, 5, 67, 75
6, 146880, Note_on_c, 5, 67, 0
6, 150000, Note_on_c, 5, 69, 75
6, 150240, Note_on_c, 5, 69, 0
6, 150240, Note_on_c, 5, 68, 75
6, 150480, Note_on_c, 5, 68, 0
6, 150480, Note_on_c, 5, 67, 75
6, 150720, Note_on_c, 5, 67, 0
6, 150720, Note_on_c, 5, 66, 75
6, 150960, Note_on_c, 5, 66, 0
6, 150960, Note_on_c, 5, 65, 75
6, 151200, Note_on_c, 5, 65, 0
6, 151200, Note_on_c, 5, 64, 88
6, 151440, Note_on_c, 5, 64, 0
6, 151440, Note_on_c, 5, 62, 75
6, 151680, Note_on_c, 5, 62, 0
6, 151680, Note_on_c, 5, 62, 75
6, 151920, Note_on_c, 5, 62, 0
6, 151920, Note_on_c, 5, 64, 75
6, 152040, Note_on_c, 5, 64, 0
6, 152040, Note_on_c, 5, 62, 75
6, 152160, Note_on_c, 5, 62, 0
6, 152160, Note_on_c, 5, 61, 75
6, 152280, Note_on_c, 5, 61, 0
6, 152280, Note_on_c, 5, 62, 75
6, 152400, Note_on_c, 5, 62, 0
6, 152400, Note_on_c, 5, 61, 75
6, 152520, Note_on_c, 5, 61, 0
6, 152520, Note_on_c, 5, 62, 75
6, 152580, Note_on_c, 5, 61, 75
6, 152640, Note_on_c, 5, 61, 0
6, 152640, Note_on_c, 5, 62, 0
6, 152640, Note_on_c, 5, 64, 75
6, 153120, Note_on_c, 5, 64, 0
6, 153600, Note_on_c, 5, 61, 88
6, 153600, Note_on_c, 5, 64, 88
6, 153600, Note_on_c, 5, 69, 88
6, 154080, Note_on_c, 5, 69, 0
6, 154080, Note_on_c, 5, 64, 0
6, 154080, Note_on_c, 5, 61, 0
6, 154080, Note_on_c, 5, 64, 88
6, 154080, Note_on_c, 5, 69, 88
6, 154080, Note_on_c, 5, 73, 88
6, 154560, Note_on_c, 5, 73, 0
6, 154560, Note_on_c, 5, 69, 0
6, 154560, Note_on_c, 5, 64, 0
6, 155520, Note_on_c, 5, 73, 88
6, 155520, Note_on_c, 5, 76, 88
6, 155520, Note_on_c, 5, 81, 88
6, 156000, Note_on_c, 5, 81, 0
6, 156000, Note_on_c, 5, 76, 0
6, 156000, Note_on_c, 5, 73, 0
6, 156000, Note_on_c, 5, 88, 88
6, 156480, Note_on_c, 5, 88, 0
6, 156480, Note_on_c, 5, 89, 88
6, 156960, Note_on_c, 5, 89, 0
6, 156960, Note_on_c, 5, 80, 88
6, 157440, Note_on_c, 5, 80, 0
6, 157440, Note_on_c, 5, 81, 88
6, 157560, Note_on_c, 5, 81, 0
6, 157560, Note_on_c, 5, 80, 88
6, 157680, Note_on_c, 5, 80, 0
6, 157680, Note_on_c, 5, 81, 88
6, 157800, Note_on_c, 5, 81, 0
6, 157800, Note_on_c, 5, 82, 88
6, 157920, Note_on_c, 5, 82, 0
6, 157920, Note_on_c, 5, 76, 88
6, 158040, Note_on_c, 5, 76, 0
6, 158040, Note_on_c, 5, 77, 88
6, 158160, Note_on_c, 5, 77, 0
6, 158160, Note_on_c, 5, 79, 88
6, 158280, Note_on_c, 5, 79, 0
6, 158280, Note_on_c, 5, 78, 88
6, 158400, Note_on_c, 5, 78, 0
6, 158400, Note_on_c, 5, 79, 88
6, 158520, Note_on_c, 5, 79, 0
6, 158520, Note_on_c, 5, 81, 88
6, 158640, Note_on_c, 5, 81, 0
6, 158640, Note_on_c, 5, 74, 88
6, 158760, Note_on_c, 5, 74, 0
6, 158760, Note_on_c, 5, 76, 88
6, 158880, Note_on_c, 5, 76, 0
6, 158880, Note_on_c, 5, 79, 88
6, 159000, Note_on_c, 5, 79, 0
6, 159000, Note_on_c, 5, 77, 88
6, 159120, Note_on_c, 5, 77, 0
6, 159120, Note_on_c, 5, 76, 88
6, 159240, Note_on_c, 5, 76, 0
6, 159240, Note_on_c, 5, 74, 88
6, 159360, Note_on_c, 5, 74, 0
6, 159360, Note_on_c, 5, 76, 88
6, 159480, Note_on_c, 5, 76, 0
6, 159480, Note_on_c, 5, 74, 88
6, 159600, Note_on_c, 5, 74, 0
6, 159600, Note_on_c, 5, 72, 88
6, 159720, Note_on_c, 5, 72, 0
6, 159720, Note_on_c, 5, 70, 88
6, 159840, Note_on_c, 5, 70, 0
6, 159840, Note_on_c, 5, 72, 88
6, 159960, Note_on_c, 5, 72, 0
6, 159960, Note_on_c, 5, 70, 88
6, 160080, Note_on_c, 5, 70, 0
6, 160080, Note_on_c, 5, 69, 88
6, 160200, Note_on_c, 5, 69, 0
6, 160200, Note_on_c, 5, 68, 88
6, 160320, Note_on_c, 5, 68, 0
6, 160320, Note_on_c, 5, 69, 88
6, 160860, Note_on_c, 5, 69, 0
6, 160860, Note_on_c, 5, 71, 88
6, 160920, Note_on_c, 5, 71, 0
6, 160920, Note_on_c, 5, 73, 88
6, 160980, Note_on_c, 5, 73, 0
6, 160980, Note_on_c, 5, 74, 88
6, 161040, Note_on_c, 5, 74, 0
6, 161040, Note_on_c, 5, 76, 88
6, 161100, Note_on_c, 5, 76, 0
6, 161100, Note_on_c, 5, 77, 88
6, 161160, Note_on_c, 5, 77, 0
6, 161160, Note_on_c, 5, 79, 88
6, 161220, Note_on_c, 5, 79, 0
6, 161220, Note_on_c, 5, 81, 88
6, 161280, Note_on_c, 5, 81, 0
6, 161280, Note_on_c, 5, 84, 88
6, 161400, Note_on_c, 5, 82, 88
6, 161446, Note_on_c, 5, 84, 0
6, 161520, Note_on_c, 5, 84, 88
6, 161542, Note_on_c, 5, 82, 0
6, 161580, Note_on_c, 5, 82, 88
6, 161628, Note_on_c, 5, 84, 0
6, 161640, Note_on_c, 5, 84, 84
6, 161688, Note_on_c, 5, 82, 0
6, 161700, Note_on_c, 5, 82, 84
6, 161748, Note_on_c, 5, 84, 0
6, 161760, Note_on_c, 5, 84, 84
6, 161808, Note_on_c, 5, 82, 0
6, 161820, Note_on_c, 5, 82, 84
6, 161868, Note_on_c, 5, 84, 0
6, 161880, Note_on_c, 5, 84, 84
6, 161928, Note_on_c, 5, 82, 0
6, 161940, Note_on_c, 5, 82, 84
6, 161988, Note_on_c, 5, 84, 0
6, 162000, Note_on_c, 5, 84, 81
6, 162048, Note_on_c, 5, 82, 0
6, 162060, Note_on_c, 5, 82, 81
6, 162108, Note_on_c, 5, 84, 0
6, 162120, Note_on_c, 5, 84, 81
6, 162168, Note_on_c, 5, 82, 0
6, 162180, Note_on_c, 5, 82, 81
6, 162228, Note_on_c, 5, 84, 0
6, 162240, Note_on_c, 5, 84, 81
6, 162288, Note_on_c, 5, 82, 0
6, 162300, Note_on_c, 5, 83, 83
6, 162348, Note_on_c, 5, 84, 0
6, 162360, Note_on_c, 5, 84, 83
6, 162408, Note_on_c, 5, 83, 0
6, 162420, Note_on_c, 5, 83, 83
6, 162468, Note_on_c, 5, 84, 0
6, 162480, Note_on_c, 5, 84, 83
6, 162528, Note_on_c, 5, 83, 0
6, 162540, Note_on_c, 5, 83, 83
6, 162588, Note_on_c, 5, 84, 0
6, 162600, Note_on_c, 5, 84, 81
6, 162648, Note_on_c, 5, 83, 0
6, 162660, Note_on_c, 5, 83, 81
6, 162708, Note_on_c, 5, 84, 0
6, 162720, Note_on_c, 5, 84, 83
6, 162768, Note_on_c, 5, 83, 0
6, 162780, Note_on_c, 5, 83, 83
6, 162828, Note_on_c, 5, 84, 0
6, 162840, Note_on_c, 5, 84, 76
6, 162888, Note_on_c, 5, 83, 0
6, 162900, Note_on_c, 5, 83, 76
6, 162948, Note_on_c, 5, 84, 0
6, 162960, Note_on_c, 5, 84, 80
6, 163008, Note_on_c, 5, 83, 0
6, 163020, Note_on_c, 5, 83, 83
6, 163068, Note_on_c, 5, 84, 0
6, 163080, Note_on_c, 5, 81, 86
6, 163128, Note_on_c, 5, 83, 0
6, 163200, Note_on_c, 5, 81, 0
6, 163200, Note_on_c, 5, 83, 88
6, 163320, Note_on_c, 5, 83, 0
6, 163320, Note_on_c, 5, 84, 88
6, 164040, Note_on_c, 5, 84, 0
6, 164160, Note_on_c, 5, 86, 88
6, 164280, Note_on_c, 5, 86, 0
6, 164280, Note_on_c, 5, 82, 88
6, 164400, Note_on_c, 5, 82, 0
6, 164400, Note_on_c, 5, 78, 88
6, 164520, Note_on_c, 5, 78, 0
6, 164520, Note_on_c, 5, 79, 88
6, 164580, Note_on_c, 5, 79, 0
6, 164580, Note_on_c, 5, 81, 88
6, 164640, Note_on_c, 5, 81, 0
6, 164640, Note_on_c, 5, 82, 88
6, 164760, Note_on_c, 5, 82, 0
6, 164820, Note_on_c, 5, 81, 88
6, 164880, Note_on_c, 5, 81, 0
6, 164880, Note_on_c, 5, 79, 88
6, 164940, Note_on_c, 5, 79, 0
6, 164940, Note_on_c, 5, 77, 88
6, 165000, Note_on_c, 5, 77, 0
6, 165000, Note_on_c, 5, 76, 88
6, 165060, Note_on_c, 5, 76, 0
6, 165060, Note_on_c, 5, 77, 88
6, 165120, Note_on_c, 5, 77, 0
6, 165120, Note_on_c, 5, 79, 88
6, 165240, Note_on_c, 5, 79, 0
6, 165300, Note_on_c, 5, 77, 88
6, 165360, Note_on_c, 5, 77, 0
6, 165360, Note_on_c, 5, 76, 88
6, 165420, Note_on_c, 5, 76, 0
6, 165420, Note_on_c, 5, 74, 88
6, 165480, Note_on_c, 5, 74, 0
6, 165480, Note_on_c, 5, 72, 88
6, 165540, Note_on_c, 5, 72, 0
6, 165540, Note_on_c, 5, 74, 88
6, 165600, Note_on_c, 5, 74, 0
6, 165600, Note_on_c, 5, 76, 88
6, 165720, Note_on_c, 5, 76, 0
6, 166080, Note_on_c, 5, 64, 88
6, 166080, Note_on_c, 5, 67, 88
6, 166560, Note_on_c, 5, 67, 0
6, 166560, Note_on_c, 5, 64, 0
6, 166560, Note_on_c, 5, 65, 88
6, 166560, Note_on_c, 5, 68, 88
6, 167040, Note_on_c, 5, 68, 0
6, 167040, Note_on_c, 5, 65, 0
6, 167040, Note_on_c, 5, 66, 88
6, 167040, Note_on_c, 5, 69, 88
6, 167520, Note_on_c, 5, 69, 0
6, 167520, Note_on_c, 5, 66, 0
6, 167520, Note_on_c, 5, 67, 88
6, 167520, Note_on_c, 5, 70, 88
6, 168000, Note_on_c, 5, 70, 0
6, 168000, Note_on_c, 5, 67, 0
6, 168000, Note_on_c, 5, 68, 88
6, 168000, Note_on_c, 5, 71, 88
6, 168480, Note_on_c, 5, 71, 0
6, 168480, Note_on_c, 5, 68, 0
6, 168480, Note_on_c, 5, 69, 88
6, 168480, Note_on_c, 5, 72, 88
6, 168960, Note_on_c, 5, 69, 0
6, 169119, Note_on_c, 5, 72, 0
6, 169119, Note_on_c, 5, 74, 88
6, 169280, Note_on_c, 5, 74, 0
6, 169280, Note_on_c, 5, 76, 88
6, 169440, Note_on_c, 5, 76, 0
6, 169440, Note_on_c, 5, 77, 88
6, 169599, Note_on_c, 5, 77, 0
6, 169599, Note_on_c, 5, 79, 88
6, 169760, Note_on_c, 5, 79, 0
6, 169760, Note_on_c, 5, 81, 88
6, 169920, Note_on_c, 5, 81, 0
6, 169920, Note_on_c, 5, 82, 88
6, 170400, Note_on_c, 5, 82, 0
6, 170400, Note_on_c, 5, 76, 88
6, 170880, Note_on_c, 5, 76, 0
6, 170880, Note_on_c, 5, 77, 88
6, 171360, Note_on_c, 5, 77, 0
6, 171360, Note_on_c, 5, 79, 88
6, 171600, Note_on_c, 5, 79, 0
6, 171600, Note_on_c, 5, 70, 88
6, 172080, Note_on_c, 5, 70, 0
6, 172080, Note_on_c, 5, 70, 88
6, 172560, Note_on_c, 5, 70, 0
6, 172560, Note_on_c, 5, 74, 88
6, 173040, Note_on_c, 5, 74, 0
6, 173040, Note_on_c, 5, 72, 88
6, 173520, Note_on_c, 5, 72, 0
6, 173520, Note_on_c, 5, 74, 88
6, 173640, Note_on_c, 5, 74, 0
6, 173640, Note_on_c, 5, 70, 88
6, 173760, Note_on_c, 5, 70, 0
6, 173760, Note_on_c, 5, 68, 88
6, 174000, Note_on_c, 5, 68, 0
6, 174000, Note_on_c, 5, 69, 88
6, 174240, Note_on_c, 5, 69, 0
6, 174240, Note_on_c, 5, 69, 88
6, 174360, Note_on_c, 5, 69, 0
6, 174360, Note_on_c, 5, 67, 88
6, 174480, Note_on_c, 5, 67, 0
6, 174480, Note_on_c, 5, 65, 88
6, 174600, Note_on_c, 5, 65, 0
6, 174600, Note_on_c, 5, 64, 88
6, 174720, Note_on_c, 5, 64, 0
6, 174720, Note_on_c, 5, 65, 88
6, 174879, Note_on_c, 5, 65, 0
6, 174879, Note_on_c, 5, 69, 88
6, 175040, Note_on_c, 5, 69, 0
6, 175040, Note_on_c, 5, 72, 88
6, 175200, Note_on_c, 5, 72, 0
6, 175200, Note_on_c, 5, 77, 88
6, 175359, Note_on_c, 5, 77, 0
6, 175359, Note_on_c, 5, 72, 88
6, 175520, Note_on_c, 5, 72, 0
6, 175520, Note_on_c, 5, 69, 88
6, 175680, Note_on_c, 5, 69, 0
6, 175680, Note_on_c, 5, 69, 88
6, 175800, Note_on_c, 5, 69, 0
6, 175800, Note_on_c, 5, 67, 88
6, 175920, Note_on_c, 5, 67, 0
6, 175920, Note_on_c, 5, 65, 88
6, 176040, Note_on_c, 5, 65, 0
6, 176040, Note_on_c, 5, 64, 88
6, 176160, Note_on_c, 5, 64, 0
6, 176160, Note_on_c, 5, 65, 88
6, 176319, Note_on_c, 5, 65, 0
6, 176319, Note_on_c, 5, 69, 88
6, 176480, Note_on_c, 5, 69, 0
6, 176480, Note_on_c, 5, 72, 88
6, 176640, Note_on_c, 5, 72, 0
6, 176640, Note_on_c, 5, 77, 88
6, 176799, Note_on_c, 5, 77, 0
6, 176799, Note_on_c, 5, 79, 88
6, 176960, Note_on_c, 5, 79, 0
6, 176960, Note_on_c, 5, 81, 88
6, 177060, Note_on_c, 5, 81, 88
6, 177120, Note_on_c, 5, 81, 0
6, 177120, Note_on_c, 5, 81, 0
6, 177120, Note_on_c, 5, 71, 88
6, 177540, Note_on_c, 5, 70, 88
6, 177600, Note_on_c, 5, 70, 0
6, 177600, Note_on_c, 5, 71, 0
6, 177600, Note_on_c, 5, 79, 88
6, 178020, Note_on_c, 5, 69, 88
6, 178080, Note_on_c, 5, 69, 0
6, 178080, Note_on_c, 5, 79, 0
6, 178080, Note_on_c, 5, 77, 88
6, 178560, Note_on_c, 5, 77, 0
6, 178680, Note_on_c, 5, 69, 88
6, 178800, Note_on_c, 5, 69, 0
6, 178800, Note_on_c, 5, 66, 88
6, 178920, Note_on_c, 5, 66, 0
6, 178920, Note_on_c, 5, 67, 88
6, 179040, Note_on_c, 5, 67, 0
6, 179160, Note_on_c, 5, 65, 88
6, 179280, Note_on_c, 5, 65, 0
6, 179280, Note_on_c, 5, 62, 88
6, 179400, Note_on_c, 5, 62, 0
6, 179400, Note_on_c, 5, 64, 88
6, 179520, Note_on_c, 5, 64, 0
6, 179640, Note_on_c, 5, 62, 88
6, 179760, Note_on_c, 5, 62, 0
6, 179760, Note_on_c, 5, 59, 88
6, 179880, Note_on_c, 5, 59, 0
6, 179880, Note_on_c, 5, 60, 88
6, 180000, Note_on_c, 5, 60, 0
6, 207300, Note_on_c, 5, 74, 88
6, 207360, Note_on_c, 5, 74, 0
6, 207360, Note_on_c, 5, 77, 88
6, 207840, Note_on_c, 5, 77, 0
6, 207840, Note_on_c, 5, 77, 88
6, 208320, Note_on_c, 5, 77, 0
6, 208320, Note_on_c, 5, 77, 88
6, 208800, Note_on_c, 5, 77, 0
6, 208800, Note_on_c, 5, 79, 88
6, 208860, Note_on_c, 5, 77, 88
6, 208908, Note_on_c, 5, 79, 0
6, 208920, Note_on_c, 5, 79, 88
6, 208968, Note_on_c, 5, 77, 0
6, 208980, Note_on_c, 5, 77, 88
6, 209028, Note_on_c, 5, 79, 0
6, 209040, Note_on_c, 5, 76, 88
6, 209088, Note_on_c, 5, 77, 0
6, 209160, Note_on_c, 5, 77, 88
6, 209200, Note_on_c, 5, 76, 0
6, 209280, Note_on_c, 5, 72, 88
6, 209328, Note_on_c, 5, 77, 0
6, 209760, Note_on_c, 5, 72, 0
6, 209760, Note_on_c, 5, 77, 88
6, 210240, Note_on_c, 5, 77, 0
6, 210240, Note_on_c, 5, 79, 88
6, 210300, Note_on_c, 5, 77, 88
6, 210348, Note_on_c, 5, 79, 0
6, 210360, Note_on_c, 5, 79, 88
6, 210408, Note_on_c, 5, 77, 0
6, 210420, Note_on_c, 5, 77, 88
6, 210468, Note_on_c, 5, 79, 0
6, 210480, Note_on_c, 5, 76, 88
6, 210528, Note_on_c, 5, 77, 0
6, 210600, Note_on_c, 5, 77, 88
6, 210648, Note_on_c, 5, 76, 0
6, 210720, Note_on_c, 5, 74, 88
6, 210764, Note_on_c, 5, 77, 0
6, 211200, Note_on_c, 5, 74, 0
6, 211200, Note_on_c, 5, 77, 88
6, 211680, Note_on_c, 5, 77, 0
6, 211680, Note_on_c, 5, 79, 88
6, 211740, Note_on_c, 5, 77, 88
6, 211788, Note_on_c, 5, 79, 0
6, 211800, Note_on_c, 5, 79, 88
6, 211848, Note_on_c, 5, 77, 0
6, 211860, Note_on_c, 5, 77, 88
6, 211908, Note_on_c, 5, 79, 0
6, 211920, Note_on_c, 5, 76, 88
6, 211968, Note_on_c, 5, 77, 0
6, 212040, Note_on_c, 5, 77, 88
6, 212080, Note_on_c, 5, 76, 0
6, 212160, Note_on_c, 5, 72, 88
6, 212208, Note_on_c, 5, 77, 0
6, 212640, Note_on_c, 5, 72, 0
6, 213120, Note_on_c, 5, 75, 88
6, 213600, Note_on_c, 5, 75, 0
6, 213600, Note_on_c, 5, 74, 88
6, 214080, Note_on_c, 5, 74, 0
6, 214080, Note_on_c, 5, 72, 88
6, 214560, Note_on_c, 5, 72, 0
6, 214560, Note_on_c, 5, 74, 88
6, 214719, Note_on_c, 5, 74, 0
6, 214719, Note_on_c, 5, 82, 88
6, 214880, Note_on_c, 5, 82, 0
6, 214880, Note_on_c, 5, 81, 88
6, 215040, Note_on_c, 5, 81, 0
6, 215040, Note_on_c, 5, 79, 88
6, 215199, Note_on_c, 5, 79, 0
6, 215199, Note_on_c, 5, 77, 88
6, 215360, Note_on_c, 5, 77, 0
6, 215360, Note_on_c, 5, 75, 88
6, 215520, Note_on_c, 5, 75, 0
6, 215520, Note_on_c, 5, 74, 88
6, 215679, Note_on_c, 5, 74, 0
6, 215679, Note_on_c, 5, 75, 88
6, 215840, Note_on_c, 5, 75, 0
6, 215840, Note_on_c, 5, 72, 88
6, 216000, Note_on_c, 5, 72, 0
6, 216000, Note_on_c, 5, 70, 88
6, 216900, Note_on_c, 5, 74, 88
6, 216960, Note_on_c, 5, 74, 0
6, 216960, Note_on_c, 5, 70, 0
6, 216960, Note_on_c, 5, 72, 88
6, 217440, Note_on_c, 5, 72, 0
6, 217440, Note_on_c, 5, 70, 88
6, 217920, Note_on_c, 5, 70, 0
6, 221760, Note_on_c, 5, 58, 88
6, 221760, Note_on_c, 5, 62, 88
6, 221760, Note_on_c, 5, 65, 88
6, 222240, Note_on_c, 5, 65, 0
6, 222240, Note_on_c, 5, 62, 0
6, 222240, Note_on_c, 5, 58, 0
6, 222240, Note_on_c, 5, 62, 88
6, 222240, Note_on_c, 5, 65, 88
6, 222240, Note_on_c, 5, 70, 88
6, 222720, Note_on_c, 5, 70, 0
6, 222720, Note_on_c, 5, 65, 0
6, 222720, Note_on_c, 5, 62, 0
6, 222720, Note_on_c, 5, 60, 88
6, 222720, Note_on_c, 5, 63, 88
6, 222720, Note_on_c, 5, 69, 88
6, 223200, Note_on_c, 5, 69, 0
6, 223200, Note_on_c, 5, 63, 0
6, 223200, Note_on_c, 5, 60, 0
6, 223200, Note_on_c, 5, 62, 88
6, 223200, Note_on_c, 5, 65, 88
6, 223200, Note_on_c, 5, 70, 88
6, 223680, Note_on_c, 5, 70, 0
6, 223680, Note_on_c, 5, 65, 0
6, 223680, Note_on_c, 5, 62, 0
6, 223680, Note_on_c, 5, 58, 88
6, 224160, Note_on_c, 5, 58, 0
6, 230400, Note_on_c, 5, 79, 88
6, 230520, Note_on_c, 5, 79, 0
6, 230520, Note_on_c, 5, 81, 88
6, 230640, Note_on_c, 5, 81, 0
6, 230640, Note_on_c, 5, 79, 88
6, 230760, Note_on_c, 5, 79, 0
6, 230760, Note_on_c, 5, 78, 88
6, 230880, Note_on_c, 5, 78, 0
6, 230880, Note_on_c, 5, 79, 88
6, 231000, Note_on_c, 5, 79, 0
6, 231000, Note_on_c, 5, 74, 88
6, 231120, Note_on_c, 5, 74, 0
6, 231120, Note_on_c, 5, 82, 88
6, 231240, Note_on_c, 5, 82, 0
6, 231240, Note_on_c, 5, 81, 88
6, 231360, Note_on_c, 5, 81, 0
6, 231360, Note_on_c, 5, 79, 88
6, 231480, Note_on_c, 5, 79, 0
6, 231480, Note_on_c, 5, 74, 88
6, 231600, Note_on_c, 5, 74, 0
6, 231600, Note_on_c, 5, 86, 88
6, 231720, Note_on_c, 5, 86, 0
6, 231720, Note_on_c, 5, 84, 88
6, 231840, Note_on_c, 5, 84, 0
6, 231840, Note_on_c, 5, 82, 88
6, 231960, Note_on_c, 5, 82, 0
6, 231960, Note_on_c, 5, 79, 88
6, 232080, Note_on_c, 5, 79, 0
6, 232080, Note_on_c, 5, 89, 88
6, 232200, Note_on_c, 5, 89, 0
6, 232200, Note_on_c, 5, 88, 88
6, 232320, Note_on_c, 5, 88, 0
6, 232320, Note_on_c, 5, 86, 88
6, 232440, Note_on_c, 5, 86, 0
6, 232440, Note_on_c, 5, 88, 88
6, 232560, Note_on_c, 5, 88, 0
6, 232560, Note_on_c, 5, 84, 88
6, 232680, Note_on_c, 5, 84, 0
6, 232680, Note_on_c, 5, 86, 88
6, 232800, Note_on_c, 5, 86, 0
6, 232800, Note_on_c, 5, 82, 88
6, 232920, Note_on_c, 5, 82, 0
6, 232920, Note_on_c, 5, 84, 88
6, 233040, Note_on_c, 5, 84, 0
6, 233040, Note_on_c, 5, 81, 88
6, 233160, Note_on_c, 5, 81, 0
6, 233160, Note_on_c, 5, 82, 88
6, 233280, Note_on_c, 5, 82, 0
6, 233280, Note_on_c, 5, 79, 88
6, 233400, Note_on_c, 5, 79, 0
6, 233400, Note_on_c, 5, 81, 88
6, 233520, Note_on_c, 5, 81, 0
6, 233520, Note_on_c, 5, 79, 88
6, 233640, Note_on_c, 5, 79, 0
6, 233640, Note_on_c, 5, 78, 88
6, 233760, Note_on_c, 5, 78, 0
6, 233760, Note_on_c, 5, 79, 88
6, 233880, Note_on_c, 5, 79, 0
6, 233880, Note_on_c, 5, 74, 88
6, 234000, Note_on_c, 5, 74, 0
6, 234000, Note_on_c, 5, 86, 88
6, 234120, Note_on_c, 5, 86, 0
6, 234120, Note_on_c, 5, 84, 88
6, 234240, Note_on_c, 5, 84, 0
6, 234240, Note_on_c, 5, 82, 88
6, 234360, Note_on_c, 5, 82, 0
6, 234360, Note_on_c, 5, 81, 88
6, 234480, Note_on_c, 5, 81, 0
6, 234480, Note_on_c, 5, 79, 88
6, 234600, Note_on_c, 5, 79, 0
6, 234600, Note_on_c, 5, 77, 88
6, 234720, Note_on_c, 5, 77, 0
6, 234720, Note_on_c, 5, 79, 88
6, 234780, Note_on_c, 5, 77, 88
6, 234828, Note_on_c, 5, 79, 0
6, 234840, Note_on_c, 5, 79, 88
6, 234888, Note_on_c, 5, 77, 0
6, 234900, Note_on_c, 5, 77, 88
6, 234948, Note_on_c, 5, 79, 0
6, 234960, Note_on_c, 5, 76, 88
6, 235008, Note_on_c, 5, 77, 0
6, 235080, Note_on_c, 5, 77, 88
6, 235148, Note_on_c, 5, 76, 0
6, 235200, Note_on_c, 5, 76, 88
6, 235280, Note_on_c, 5, 77, 0
6, 235680, Note_on_c, 5, 76, 0
6, 241080, Note_on_c, 5, 60, 88
6, 241200, Note_on_c, 5, 60, 0
6, 241200, Note_on_c, 5, 62, 88
6, 241320, Note_on_c, 5, 62, 0
6, 241320, Note_on_c, 5, 64, 88
6, 241440, Note_on_c, 5, 64, 0
6, 241440, Note_on_c, 5, 65, 88
6, 241560, Note_on_c, 5, 65, 0
6, 241560, Note_on_c, 5, 67, 88
6, 241680, Note_on_c, 5, 67, 0
6, 241680, Note_on_c, 5, 69, 88
6, 241800, Note_on_c, 5, 69, 0
6, 241800, Note_on_c, 5, 70, 88
6, 241920, Note_on_c, 5, 70, 0
6, 241920, Note_on_c, 5, 69, 88
6, 242040, Note_on_c, 5, 69, 0
6, 242040, Note_on_c, 5, 65, 88
6, 242160, Note_on_c, 5, 65, 0
6, 242160, Note_on_c, 5, 72, 88
6, 242280, Note_on_c, 5, 72, 0
6, 242280, Note_on_c, 5, 69, 88
6, 242400, Note_on_c, 5, 69, 0
6, 242400, Note_on_c, 5, 77, 88
6, 242520, Note_on_c, 5, 77, 0
6, 242520, Note_on_c, 5, 72, 88
6, 242640, Note_on_c, 5, 72, 0
6, 242640, Note_on_c, 5, 81, 88
6, 242760, Note_on_c, 5, 81, 0
6, 242760, Note_on_c, 5, 76, 88
6, 242880, Note_on_c, 5, 76, 0
6, 242880, Note_on_c, 5, 77, 88
6, 243000, Note_on_c, 5, 77, 0
6, 243000, Note_on_c, 5, 72, 88
6, 243120, Note_on_c, 5, 72, 0
6, 243120, Note_on_c, 5, 74, 88
6, 243240, Note_on_c, 5, 74, 0
6, 243240, Note_on_c, 5, 69, 88
6, 243360, Note_on_c, 5, 69, 0
6, 243360, Note_on_c, 5, 70, 88
6, 243480, Note_on_c, 5, 70, 0
6, 243480, Note_on_c, 5, 79, 88
6, 243600, Note_on_c, 5, 79, 0
6, 243600, Note_on_c, 5, 69, 88
6, 243720, Note_on_c, 5, 69, 0
6, 243720, Note_on_c, 5, 77, 88
6, 243840, Note_on_c, 5, 77, 0
6, 243840, Note_on_c, 5, 67, 88
6, 243960, Note_on_c, 5, 67, 0
6, 243960, Note_on_c, 5, 76, 88
6, 244080, Note_on_c, 5, 76, 0
6, 244080, Note_on_c, 5, 77, 88
6, 244200, Note_on_c, 5, 77, 0
6, 244200, Note_on_c, 5, 86, 88
6, 244320, Note_on_c, 5, 86, 0
6, 244320, Note_on_c, 5, 76, 88
6, 244440, Note_on_c, 5, 76, 0
6, 244440, Note_on_c, 5, 84, 88
6, 244560, Note_on_c, 5, 84, 0
6, 244560, Note_on_c, 5, 79, 88
6, 244680, Note_on_c, 5, 79, 0
6, 244680, Note_on_c, 5, 82, 88
6, 244800, Note_on_c, 5, 82, 0
6, 244800, Note_on_c, 5, 81, 88
6, 245040, Note_on_c, 5, 81, 0
6, 245040, Note_on_c, 5, 79, 88
6, 245280, Note_on_c, 5, 79, 0
6, 245280, Note_on_c, 5, 81, 88
6, 245520, Note_on_c, 5, 81, 0
6, 245520, Note_on_c, 5, 82, 88
6, 245760, Note_on_c, 5, 82, 0
6, 245760, Note_on_c, 5, 83, 88
6, 246000, Note_on_c, 5, 83, 0
6, 246000, Note_on_c, 5, 84, 88
6, 246240, Note_on_c, 5, 84, 0
6, 246240, Note_on_c, 5, 82, 88
6, 246360, Note_on_c, 5, 82, 0
6, 246360, Note_on_c, 5, 81, 88
6, 246480, Note_on_c, 5, 81, 0
6, 246480, Note_on_c, 5, 79, 88
6, 246600, Note_on_c, 5, 79, 0
6, 246600, Note_on_c, 5, 81, 88
6, 246720, Note_on_c, 5, 81, 0
6, 246720, Note_on_c, 5, 79, 88
6, 247200, Note_on_c, 5, 79, 0
6, 248400, Note_on_c, 5, 72, 88
6, 248640, Note_on_c, 5, 72, 0
6, 248640, Note_on_c, 5, 84, 88
6, 248760, Note_on_c, 5, 84, 0
6, 248760, Note_on_c, 5, 82, 88
6, 248880, Note_on_c, 5, 82, 0
6, 248880, Note_on_c, 5, 81, 88
6, 249000, Note_on_c, 5, 81, 0
6, 249000, Note_on_c, 5, 79, 88
6, 249120, Note_on_c, 5, 79, 0
6, 249120, Note_on_c, 5, 77, 88
6, 249240, Note_on_c, 5, 77, 0
6, 249240, Note_on_c, 5, 79, 88
6, 249360, Note_on_c, 5, 79, 0
6, 249360, Note_on_c, 5, 76, 88
6, 249480, Note_on_c, 5, 76, 0
6, 249480, Note_on_c, 5, 79, 88
6, 249600, Note_on_c, 5, 79, 0
6, 249600, Note_on_c, 5, 77, 88
6, 249696, Note_on_c, 5, 77, 0
6, 249840, Note_on_c, 5, 77, 88
6, 249936, Note_on_c, 5, 77, 0
6, 250080, Note_on_c, 5, 79, 88
6, 250176, Note_on_c, 5, 79, 0
6, 250320, Note_on_c, 5, 79, 88
6, 250416, Note_on_c, 5, 79, 0
6, 250560, Note_on_c, 5, 81, 88
6, 250680, Note_on_c, 5, 81, 0
6, 250680, Note_on_c, 5, 82, 88
6, 250800, Note_on_c, 5, 82, 0
6, 250800, Note_on_c, 5, 79, 88
6, 250920, Note_on_c, 5, 79, 0
6, 250920, Note_on_c, 5, 82, 88
6, 251040, Note_on_c, 5, 82, 0
6, 251040, Note_on_c, 5, 81, 88
6, 251280, Note_on_c, 5, 81, 0
6, 251280, Note_on_c, 5, 69, 88
6, 251520, Note_on_c, 5, 69, 0
6, 251520, Note_on_c, 5, 70, 88
6, 251760, Note_on_c, 5, 70, 0
6, 251760, Note_on_c, 5, 70, 88
6, 252000, Note_on_c, 5, 70, 0
6, 252000, Note_on_c, 5, 72, 88
6, 252600, Note_on_c, 5, 72, 0
6, 252600, Note_on_c, 5, 74, 88
6, 252720, Note_on_c, 5, 74, 0
6, 252720, Note_on_c, 5, 76, 88
6, 252840, Note_on_c, 5, 76, 0
6, 252840, Note_on_c, 5, 77, 88
6, 252960, Note_on_c, 5, 77, 0
6, 252960, Note_on_c, 5, 77, 88
6, 253080, Note_on_c, 5, 77, 0
6, 253080, Note_on_c, 5, 76, 88
6, 253200, Note_on_c, 5, 76, 0
6, 253200, Note_on_c, 5, 74, 88
6, 253320, Note_on_c, 5, 74, 0
6, 253320, Note_on_c, 5, 76, 88
6, 253440, Note_on_c, 5, 76, 0
6, 253440, Note_on_c, 5, 77, 88
6, 253560, Note_on_c, 5, 77, 0
6, 253560, Note_on_c, 5, 79, 88
6, 253680, Note_on_c, 5, 79, 0
6, 253680, Note_on_c, 5, 76, 88
6, 253800, Note_on_c, 5, 76, 0
6, 253800, Note_on_c, 5, 77, 88
6, 253920, Note_on_c, 5, 77, 0
6, 253920, Note_on_c, 5, 74, 88
6, 254040, Note_on_c, 5, 74, 0
6, 254040, Note_on_c, 5, 76, 88
6, 254160, Note_on_c, 5, 76, 0
6, 254160, Note_on_c, 5, 72, 88
6, 254280, Note_on_c, 5, 72, 0
6, 254280, Note_on_c, 5, 74, 88
6, 254400, Note_on_c, 5, 74, 0
6, 254400, Note_on_c, 5, 70, 88
6, 254520, Note_on_c, 5, 70, 0
6, 254520, Note_on_c, 5, 72, 88
6, 254640, Note_on_c, 5, 72, 0
6, 254640, Note_on_c, 5, 69, 88
6, 254760, Note_on_c, 5, 69, 0
6, 254760, Note_on_c, 5, 70, 88
6, 254880, Note_on_c, 5, 70, 0
6, 254880, Note_on_c, 5, 67, 88
6, 255000, Note_on_c, 5, 67, 0
6, 255000, Note_on_c, 5, 69, 88
6, 255120, Note_on_c, 5, 69, 0
6, 255120, Note_on_c, 5, 70, 88
6, 255240, Note_on_c, 5, 70, 0
6, 255240, Note_on_c, 5, 72, 88
6, 255360, Note_on_c, 5, 72, 0
6, 255360, Note_on_c, 5, 74, 88
6, 255480, Note_on_c, 5, 74, 0
6, 255480, Note_on_c, 5, 76, 88
6, 255600, Note_on_c, 5, 76, 0
6, 255600, Note_on_c, 5, 77, 88
6, 255720, Note_on_c, 5, 77, 0
6, 255720, Note_on_c, 5, 76, 88
6, 255840, Note_on_c, 5, 76, 0
6, 255840, Note_on_c, 5, 79, 88
6, 255960, Note_on_c, 5, 79, 0
6, 255960, Note_on_c, 5, 77, 88
6, 256080, Note_on_c, 5, 77, 0
6, 256080, Note_on_c, 5, 76, 88
6, 256200, Note_on_c, 5, 76, 0
6, 256200, Note_on_c, 5, 74, 88
6, 256320, Note_on_c, 5, 74, 0
6, 256320, Note_on_c, 5, 74, 88
6, 256440, Note_on_c, 5, 74, 0
6, 256440, Note_on_c, 5, 72, 88
6, 256560, Note_on_c, 5, 72, 0
6, 256560, Note_on_c, 5, 74, 88
6, 256680, Note_on_c, 5, 74, 0
6, 256680, Note_on_c, 5, 70, 88
6, 256800, Note_on_c, 5, 70, 0
6, 256800, Note_on_c, 5, 69, 88
6, 257280, Note_on_c, 5, 69, 0
6, 257280, Note_on_c, 5, 69, 88
6, 257340, Note_on_c, 5, 67, 88
6, 257388, Note_on_c, 5, 69, 0
6, 257400, Note_on_c, 5, 69, 88
6, 257448, Note_on_c, 5, 67, 0
6, 257460, Note_on_c, 5, 67, 88
6, 257508, Note_on_c, 5, 69, 0
6, 257520, Note_on_c, 5, 65, 88
6, 257568, Note_on_c, 5, 67, 0
6, 257640, Note_on_c, 5, 67, 88
6, 257668, Note_on_c, 5, 65, 0
6, 257728, Note_on_c, 5, 67, 0
6, 257760, Note_on_c, 5, 72, 88
6, 257856, Note_on_c, 5, 72, 0
6, 258000, Note_on_c, 5, 70, 88
6, 258096, Note_on_c, 5, 70, 0
6, 258240, Note_on_c, 5, 69, 88
6, 258336, Note_on_c, 5, 69, 0
6, 258480, Note_on_c, 5, 67, 88
6, 258576, Note_on_c, 5, 67, 0
6, 258720, Note_on_c, 5, 65, 88
6, 258816, Note_on_c, 5, 65, 0
6, 258960, Note_on_c, 5, 64, 88
6, 259056, Note_on_c, 5, 64, 0
6, 259200, Note_on_c, 5, 62, 88
6, 259680, Note_on_c, 5, 62, 0
6, 260160, Note_on_c, 5, 62, 88
6, 260160, Note_on_c, 5, 65, 88
6, 260640, Note_on_c, 5, 65, 0
6, 260640, Note_on_c, 5, 62, 0
6, 260640, Note_on_c, 5, 60, 88
6, 260640, Note_on_c, 5, 65, 88
6, 260880, Note_on_c, 5, 65, 0
6, 260880, Note_on_c, 5, 60, 0
6, 260880, Note_on_c, 5, 62, 88
6, 260880, Note_on_c, 5, 70, 88
6, 261000, Note_on_c, 5, 70, 0
6, 261000, Note_on_c, 5, 67, 88
6, 261120, Note_on_c, 5, 67, 0
6, 261120, Note_on_c, 5, 62, 0
6, 261120, Note_on_c, 5, 65, 88
6, 261600, Note_on_c, 5, 65, 0
6, 261600, Note_on_c, 5, 65, 88
6, 261660, Note_on_c, 5, 64, 88
6, 261708, Note_on_c, 5, 65, 0
6, 261720, Note_on_c, 5, 65, 88
6, 261768, Note_on_c, 5, 64, 0
6, 261780, Note_on_c, 5, 64, 88
6, 261828, Note_on_c, 5, 65, 0
6, 261840, Note_on_c, 5, 62, 88
6, 261888, Note_on_c, 5, 64, 0
6, 261960, Note_on_c, 5, 64, 88
6, 261988, Note_on_c, 5, 62, 0
6, 262052, Note_on_c, 5, 64, 0
6, 262080, Note_on_c, 5, 65, 88
6, 262320, Note_on_c, 5, 65, 0
6, 262320, Note_on_c, 5, 69, 88
6, 262560, Note_on_c, 5, 69, 0
6, 262560, Note_on_c, 5, 60, 88
6, 262800, Note_on_c, 5, 60, 0
6, 262800, Note_on_c, 5, 65, 88
6, 263040, Note_on_c, 5, 65, 0
6, 263040, Note_on_c, 5, 57, 88
6, 263280, Note_on_c, 5, 57, 0
6, 263280, Note_on_c, 5, 60, 88
6, 263520, Note_on_c, 5, 60, 0
6, 263520, Note_on_c, 5, 53, 88
6, 263760, Note_on_c, 5, 53, 0
6, 263760, Note_on_c, 5, 57, 88
6, 264000, Note_on_c, 5, 57, 0
6, 264000, Note_on_c, 5, 60, 88
6, 264240, Note_on_c, 5, 60, 0
6, 264240, Note_on_c, 5, 65, 88
6, 264480, Note_on_c, 5, 65, 0
6, 264480, Note_on_c, 5, 69, 88
6, 264720, Note_on_c, 5, 69, 0
6, 264720, Note_on_c, 5, 65, 88
6, 264960, Note_on_c, 5, 65, 0
6, 264960, Note_on_c, 5, 70, 88
6, 265200, Note_on_c, 5, 70, 0
6, 265200, Note_on_c, 5, 65, 88
6, 265440, Note_on_c, 5, 65, 0
6, 265440, Note_on_c, 5, 62, 88
6, 265680, Note_on_c, 5, 62, 0
6, 265680, Note_on_c, 5, 58, 88
6, 265920, Note_on_c, 5, 58, 0
6, 265920, Note_on_c, 5, 53, 88
6, 266160, Note_on_c, 5, 53, 0
6, 266160, Note_on_c, 5, 50, 88
6, 266400, Note_on_c, 5, 50, 0
6, 266400, Note_on_c, 5, 52, 88
6, 266640, Note_on_c, 5, 52, 0
6, 266640, Note_on_c, 5, 55, 88
6, 266880, Note_on_c, 5, 55, 0
6, 266880, Note_on_c, 5, 58, 88
6, 267120, Note_on_c, 5, 58, 0
6, 267120, Note_on_c, 5, 55, 88
6, 267360, Note_on_c, 5, 55, 0
6, 267360, Note_on_c, 5, 60, 88
6, 267600, Note_on_c, 5, 60, 0
6, 267600, Note_on_c, 5, 58, 88
6, 267750, Note_on_c, 5, 58, 0
6, 267780, Note_on_c, 5, 57, 88
6, 267840, Note_on_c, 5, 65, 88
6, 267886, Note_on_c, 5, 57, 0
6, 268440, Note_on_c, 5, 65, 0
6, 268440, Note_on_c, 5, 67, 88
6, 268560, Note_on_c, 5, 67, 0
6, 268560, Note_on_c, 5, 69, 88
6, 268680, Note_on_c, 5, 69, 0
6, 268680, Note_on_c, 5, 70, 88
6, 268800, Note_on_c, 5, 70, 0
6, 268800, Note_on_c, 5, 72, 88
6, 268920, Note_on_c, 5, 72, 0
6, 268920, Note_on_c, 5, 74, 88
6, 269040, Note_on_c, 5, 74, 0
6, 269040, Note_on_c, 5, 76, 88
6, 269160, Note_on_c, 5, 76, 0
6, 269160, Note_on_c, 5, 77, 88
6, 269230, Note_on_c, 5, 77, 0
6, 269280, Note_on_c, 5, 77, 88
6, 269400, Note_on_c, 5, 75, 88
6, 269446, Note_on_c, 5, 77, 0
6, 269520, Note_on_c, 5, 77, 88
6, 269554, Note_on_c, 5, 75, 0
6, 269580, Note_on_c, 5, 75, 88
6, 269628, Note_on_c, 5, 77, 0
6, 269640, Note_on_c, 5, 77, 88
6, 269688, Note_on_c, 5, 75, 0
6, 269700, Note_on_c, 5, 75, 88
6, 269748, Note_on_c, 5, 77, 0
6, 269760, Note_on_c, 5, 77, 88
6, 269808, Note_on_c, 5, 75, 0
6, 269820, Note_on_c, 5, 75, 88
6, 269868, Note_on_c, 5, 77, 0
6, 269880, Note_on_c, 5, 77, 88
6, 269928, Note_on_c, 5, 75, 0
6, 269940, Note_on_c, 5, 75, 88
6, 269988, Note_on_c, 5, 77, 0
6, 270000, Note_on_c, 5, 77, 88
6, 270048, Note_on_c, 5, 75, 0
6, 270060, Note_on_c, 5, 75, 88
6, 270108, Note_on_c, 5, 77, 0
6, 270120, Note_on_c, 5, 77, 88
6, 270168, Note_on_c, 5, 75, 0
6, 270180, Note_on_c, 5, 75, 88
6, 270228, Note_on_c, 5, 77, 0
6, 270240, Note_on_c, 5, 77, 88
6, 270288, Note_on_c, 5, 75, 0
6, 270300, Note_on_c, 5, 75, 88
6, 270348, Note_on_c, 5, 77, 0
6, 270360, Note_on_c, 5, 77, 88
6, 270408, Note_on_c, 5, 75, 0
6, 270420, Note_on_c, 5, 75, 88
6, 270468, Note_on_c, 5, 77, 0
6, 270480, Note_on_c, 5, 74, 88
6, 270528, Note_on_c, 5, 75, 0
6, 270600, Note_on_c, 5, 75, 88
6, 270658, Note_on_c, 5, 74, 0
6, 270720, Note_on_c, 5, 74, 88
6, 270774, Note_on_c, 5, 75, 0
6, 271062, Note_on_c, 5, 74, 0
6, 271140, Note_on_c, 5, 85, 88
6, 271200, Note_on_c, 5, 86, 88
6, 271258, Note_on_c, 5, 85, 0
6, 271800, Note_on_c, 5, 86, 0
6, 271800, Note_on_c, 5, 88, 88
6, 271920, Note_on_c, 5, 88, 0
6, 271920, Note_on_c, 5, 89, 88
6, 272040, Note_on_c, 5, 89, 0
6, 272040, Note_on_c, 5, 86, 88
6, 272160, Note_on_c, 5, 86, 0
6, 272160, Note_on_c, 5, 82, 88
6, 272280, Note_on_c, 5, 82, 0
6, 272280, Note_on_c, 5, 84, 88
6, 272400, Note_on_c, 5, 84, 0
6, 272400, Note_on_c, 5, 86, 88
6, 272520, Note_on_c, 5, 86, 0
6, 272520, Note_on_c, 5, 82, 88
6, 272640, Note_on_c, 5, 82, 0
6, 272640, Note_on_c, 5, 79, 88
6, 272760, Note_on_c, 5, 79, 0
6, 272760, Note_on_c, 5, 81, 88
6, 272880, Note_on_c, 5, 81, 0
6, 272880, Note_on_c, 5, 82, 88
6, 273000, Note_on_c, 5, 82, 0
6, 273000, Note_on_c, 5, 79, 88
6, 273120, Note_on_c, 5, 79, 0
6, 273120, Note_on_c, 5, 76, 88
6, 273240, Note_on_c, 5, 76, 0
6, 273240, Note_on_c, 5, 82, 88
6, 273360, Note_on_c, 5, 82, 0
6, 273360, Note_on_c, 5, 79, 88
6, 273480, Note_on_c, 5, 79, 0
6, 273480, Note_on_c, 5, 76, 88
6, 273600, Note_on_c, 5, 76, 0
6, 273600, Note_on_c, 5, 77, 88
6, 274080, Note_on_c, 5, 77, 0
6, 277080, Note_on_c, 5, 81, 88
6, 277200, Note_on_c, 5, 81, 0
6, 277200, Note_on_c, 5, 79, 88
6, 277320, Note_on_c, 5, 79, 0
6, 277320, Note_on_c, 5, 77, 88
6, 277440, Note_on_c, 5, 77, 0
6, 277440, Note_on_c, 5, 76, 88
6, 277560, Note_on_c, 5, 76, 0
6, 277560, Note_on_c, 5, 74, 88
6, 277680, Note_on_c, 5, 74, 0
6, 277680, Note_on_c, 5, 72, 88
6, 277800, Note_on_c, 5, 72, 0
6, 277800, Note_on_c, 5, 71, 88
6, 277920, Note_on_c, 5, 71, 0
6, 277920, Note_on_c, 5, 70, 88
6, 278040, Note_on_c, 5, 70, 0
6, 278040, Note_on_c, 5, 72, 88
6, 278160, Note_on_c, 5, 72, 0
6, 278160, Note_on_c, 5, 69, 88
6, 278280, Note_on_c, 5, 69, 0
6, 278280, Note_on_c, 5, 70, 88
6, 278400, Note_on_c, 5, 70, 0
6, 278400, Note_on_c, 5, 67, 88
6, 278520, Note_on_c, 5, 67, 0
6, 278520, Note_on_c, 5, 69, 88
6, 278640, Note_on_c, 5, 69, 0
6, 278640, Note_on_c, 5, 65, 88
6, 278760, Note_on_c, 5, 65, 0
6, 278760, Note_on_c, 5, 67, 88
6, 278880, Note_on_c, 5, 67, 0
6, 278880, Note_on_c, 5, 64, 88
6, 279000, Note_on_c, 5, 64, 0
6, 279000, Note_on_c, 5, 65, 88
6, 279120, Note_on_c, 5, 65, 0
6, 279120, Note_on_c, 5, 67, 88
6, 279240, Note_on_c, 5, 67, 0
6, 279240, Note_on_c, 5, 64, 88
6, 279360, Note_on_c, 5, 64, 0
6, 279360, Note_on_c, 5, 65, 88
6, 279840, Note_on_c, 5, 65, 0
6, 280320, Note_on_c, 5, 65, 88
6, 280320, Note_on_c, 5, 69, 88
6, 280800, Note_on_c, 5, 69, 0
6, 280800, Note_on_c, 5, 65, 0
6, 280800, Note_on_c, 5, 67, 88
6, 280800, Note_on_c, 5, 70, 88
6, 281280, Note_on_c, 5, 70, 0
6, 281280, Note_on_c, 5, 67, 0
6, 281760, Note_on_c, 5, 64, 88
6, 281760, Note_on_c, 5, 67, 88
6, 282240, Note_on_c, 5, 67, 0
6, 282240, Note_on_c, 5, 64, 0
6, 282240, Note_on_c, 5, 69, 88
6, 282240, Note_on_c, 5, 72, 88
6, 282720, Note_on_c, 5, 72, 0
6, 282720, Note_on_c, 5, 69, 0
6, 283200, Note_on_c, 5, 65, 88
6, 283200, Note_on_c, 5, 69, 88
6, 283680, Note_on_c, 5, 69, 0
6, 283680, Note_on_c, 5, 65, 0
6, 283680, Note_on_c, 5, 67, 88
6, 283680, Note_on_c, 5, 70, 88
6, 284160, Note_on_c, 5, 70, 0
6, 284160, Note_on_c, 5, 67, 0
6, 284640, Note_on_c, 5, 64, 88
6, 284640, Note_on_c, 5, 67, 88
6, 285120, Note_on_c, 5, 67, 0
6, 285120, Note_on_c, 5, 64, 0
6, 285120, Note_on_c, 5, 65, 88
6, 285600, Note_on_c, 5, 65, 0
6, 286080, Note_on_c, 5, 69, 88
6, 286200, Note_on_c, 5, 69, 0
6, 286200, Note_on_c, 5, 77, 88
6, 286320, Note_on_c, 5, 77, 0
6, 286320, Note_on_c, 5, 69, 88
6, 286440, Note_on_c, 5, 69, 0
6, 286440, Note_on_c, 5, 77, 88
6, 286560, Note_on_c, 5, 77, 0
6, 286560, Note_on_c, 5, 70, 88
6, 286680, Note_on_c, 5, 70, 0
6, 286680, Note_on_c, 5, 79, 88
6, 286800, Note_on_c, 5, 79, 0
6, 286800, Note_on_c, 5, 70, 88
6, 286920, Note_on_c, 5, 70, 0
6, 286920, Note_on_c, 5, 79, 88
6, 287040, Note_on_c, 5, 79, 0
6, 287040, Note_on_c, 5, 70, 88
6, 287160, Note_on_c, 5, 70, 0
6, 287160, Note_on_c, 5, 79, 88
6, 287280, Note_on_c, 5, 79, 0
6, 287280, Note_on_c, 5, 70, 88
6, 287400, Note_on_c, 5, 70, 0
6, 287400, Note_on_c, 5, 79, 88
6, 287520, Note_on_c, 5, 79, 0
6, 287520, Note_on_c, 5, 67, 88
6, 287640, Note_on_c, 5, 67, 0
6, 287640, Note_on_c, 5, 76, 88
6, 287760, Note_on_c, 5, 76, 0
6, 287760, Note_on_c, 5, 67, 88
6, 287880, Note_on_c, 5, 67, 0
6, 287880, Note_on_c, 5, 76, 88
6, 288000, Note_on_c, 5, 76, 0
6, 288000, Note_on_c, 5, 69, 88
6, 288120, Note_on_c, 5, 69, 0
6, 288120, Note_on_c, 5, 81, 88
6, 288240, Note_on_c, 5, 81, 0
6, 288240, Note_on_c, 5, 69, 88
6, 288360, Note_on_c, 5, 69, 0
6, 288360, Note_on_c, 5, 81, 88
6, 288480, Note_on_c, 5, 81, 0
6, 288480, Note_on_c, 5, 69, 88
6, 288600, Note_on_c, 5, 69, 0
6, 288600, Note_on_c, 5, 81, 88
6, 288720, Note_on_c, 5, 81, 0
6, 288720, Note_on_c, 5, 69, 88
6, 288840, Note_on_c, 5, 69, 0
6, 288840, Note_on_c, 5, 81, 88
6, 288960, Note_on_c, 5, 81, 0
6, 288960, Note_on_c, 5, 69, 88
6, 289080, Note_on_c, 5, 69, 0
6, 289080, Note_on_c, 5, 77, 88
6, 289200, Note_on_c, 5, 77, 0
6, 289200, Note_on_c, 5, 69, 88
6, 289320, Note_on_c, 5, 69, 0
6, 289320, Note_on_c, 5, 77, 88
6, 289440, Note_on_c, 5, 77, 0
6, 289440, Note_on_c, 5, 70, 88
6, 289560, Note_on_c, 5, 70, 0
6, 289560, Note_on_c, 5, 79, 88
6, 289680, Note_on_c, 5, 79, 0
6, 289680, Note_on_c, 5, 70, 88
6, 289800, Note_on_c, 5, 70, 0
6, 289800, Note_on_c, 5, 79, 88
6, 289920, Note_on_c, 5, 79, 0
6, 289920, Note_on_c, 5, 70, 88
6, 290040, Note_on_c, 5, 70, 0
6, 290040, Note_on_c, 5, 79, 88
6, 290160, Note_on_c, 5, 79, 0
6, 290160, Note_on_c, 5, 70, 88
6, 290280, Note_on_c, 5, 70, 0
6, 290280, Note_on_c, 5, 79, 88
6, 290400, Note_on_c, 5, 79, 0
6, 290400, Note_on_c, 5, 67, 88
6, 290520, Note_on_c, 5, 67, 0
6, 290520, Note_on_c, 5, 76, 88
6, 290640, Note_on_c, 5, 76, 0
6, 290640, Note_on_c, 5, 67, 88
6, 290760, Note_on_c, 5, 67, 0
6, 290760, Note_on_c, 5, 76, 88
6, 290880, Note_on_c, 5, 76, 0
6, 290880, Note_on_c, 5, 77, 88
6, 291072, Note_on_c, 5, 77, 0
6, 291360, Note_on_c, 5, 57, 88
6, 291552, Note_on_c, 5, 57, 0
6, 291840, Note_on_c, 5, 60, 88
6, 292032, Note_on_c, 5, 60, 0
6, 292320, Note_on_c, 5, 65, 88
6, 292512, Note_on_c, 5, 65, 0
6, 292800, Note_on_c, 5, 69, 88
6, 292992, Note_on_c, 5, 69, 0
6, 293280, Note_on_c, 5, 72, 88
6, 293472, Note_on_c, 5, 72, 0
6, 293760, Note_on_c, 5, 77, 88
6, 294720, Note_on_c, 5, 77, 0
6, 294960, Note_on_c, 5, 77, 88
6, 295200, Note_on_c, 5, 77, 0
6, 295200, Note_on_c, 5, 76, 88
6, 295440, Note_on_c, 5, 76, 0
6, 295440, Note_on_c, 5, 74, 88
6, 295680, Note_on_c, 5, 74, 0
6, 295680, Note_on_c, 5, 73, 88
6, 295920, Note_on_c, 5, 73, 0
6, 295920, Note_on_c, 5, 74, 88
6, 296160, Note_on_c, 5, 74, 0
6, 296160, Note_on_c, 5, 72, 88
6, 296400, Note_on_c, 5, 72, 0
6, 296400, Note_on_c, 5, 70, 88
6, 296640, Note_on_c, 5, 70, 0
6, 296640, Note_on_c, 5, 69, 88
6, 296880, Note_on_c, 5, 69, 0
6, 296880, Note_on_c, 5, 70, 88
6, 297120, Note_on_c, 5, 70, 0
6, 297120, Note_on_c, 5, 69, 88
6, 297360, Note_on_c, 5, 69, 0
6, 297360, Note_on_c, 5, 67, 88
6, 297600, Note_on_c, 5, 67, 0
6, 297600, Note_on_c, 5, 66, 88
6, 297840, Note_on_c, 5, 66, 0
6, 297840, Note_on_c, 5, 67, 88
6, 298080, Note_on_c, 5, 67, 0
6, 298080, Note_on_c, 5, 74, 88
6, 299040, Note_on_c, 5, 74, 0
6, 299280, Note_on_c, 5, 70, 88
6, 299400, Note_on_c, 5, 70, 0
6, 299400, Note_on_c, 5, 67, 88
6, 299520, Note_on_c, 5, 67, 0
6, 299520, Note_on_c, 5, 65, 88
6, 299640, Note_on_c, 5, 65, 0
6, 299640, Note_on_c, 5, 64, 88
6, 299760, Note_on_c, 5, 64, 0
6, 299760, Note_on_c, 5, 67, 88
6, 299880, Note_on_c, 5, 67, 0
6, 299880, Note_on_c, 5, 64, 88
6, 300000, Note_on_c, 5, 64, 0
6, 300000, Note_on_c, 5, 62, 88
6, 300120, Note_on_c, 5, 62, 0
6, 300120, Note_on_c, 5, 60, 88
6, 300240, Note_on_c, 5, 60, 0
6, 300240, Note_on_c, 5, 62, 88
6, 300360, Note_on_c, 5, 62, 0
6, 300360, Note_on_c, 5, 58, 88
6, 300480, Note_on_c, 5, 58, 0
6, 300480, Note_on_c, 5, 57, 88
6, 300600, Note_on_c, 5, 57, 0
6, 300600, Note_on_c, 5, 55, 88
6, 300720, Note_on_c, 5, 55, 0
6, 300720, Note_on_c, 5, 58, 88
6, 300840, Note_on_c, 5, 58, 0
6, 300840, Note_on_c, 5, 55, 88
6, 300960, Note_on_c, 5, 55, 0
6, 300960, Note_on_c, 5, 53, 88
6, 301080, Note_on_c, 5, 53, 0
6, 301080, Note_on_c, 5, 52, 88
6, 301200, Note_on_c, 5, 52, 0
6, 301200, Note_on_c, 5, 55, 88
6, 301320, Note_on_c, 5, 55, 0
6, 301320, Note_on_c, 5, 52, 88
6, 301440, Note_on_c, 5, 52, 0
6, 301440, Note_on_c, 5, 48, 88
6, 302398, Note_on_c, 5, 48, 0
6, 302460, Note_on_c, 5, 52, 88
6, 302520, Note_on_c, 5, 52, 0
6, 302520, Note_on_c, 5, 50, 88
6, 302580, Note_on_c, 5, 50, 0
6, 302580, Note_on_c, 5, 53, 88
6, 302640, Note_on_c, 5, 53, 0
6, 302640, Note_on_c, 5, 52, 88
6, 302700, Note_on_c, 5, 52, 0
6, 302700, Note_on_c, 5, 55, 88
6, 302760, Note_on_c, 5, 55, 0
6, 302760, Note_on_c, 5, 53, 88
6, 302820, Note_on_c, 5, 53, 0
6, 302820, Note_on_c, 5, 57, 88
6, 302880, Note_on_c, 5, 57, 0
6, 302880, Note_on_c, 5, 55, 88
6, 302940, Note_on_c, 5, 55, 0
6, 302940, Note_on_c, 5, 58, 88
6, 303000, Note_on_c, 5, 58, 0
6, 303000, Note_on_c, 5, 57, 88
6, 303060, Note_on_c, 5, 57, 0
6, 303060, Note_on_c, 5, 60, 88
6, 303120, Note_on_c, 5, 60, 0
6, 303120, Note_on_c, 5, 58, 88
6, 304200, Note_on_c, 5, 58, 0
6, 304200, Note_on_c, 5, 55, 88
6, 304320, Note_on_c, 5, 55, 0
6, 304320, Note_on_c, 5, 64, 88
6, 304680, Note_on_c, 5, 64, 0
6, 304680, Note_on_c, 5, 60, 88
6, 304800, Note_on_c, 5, 60, 0
6, 304800, Note_on_c, 5, 67, 88
6, 305160, Note_on_c, 5, 67, 0
6, 305160, Note_on_c, 5, 64, 88
6, 305280, Note_on_c, 5, 64, 0
6, 305280, Note_on_c, 5, 70, 88
6, 307200, Note_on_c, 5, 70, 0
6, 307200, Note_on_c, 5, 69, 88
6, 307680, Note_on_c, 5, 69, 0
6, 307680, Note_on_c, 5, 67, 88
6, 308160, Note_on_c, 5, 67, 0
6, 308160, Note_on_c, 5, 65, 88
6, 308640, Note_on_c, 5, 65, 0
6, 308640, Note_on_c, 5, 64, 88
6, 309120, Note_on_c, 5, 64, 0
6, 309120, Note_on_c, 5, 62, 88
6, 309600, Note_on_c, 5, 62, 0
6, 309600, Note_on_c, 5, 60, 88
6, 310239, Note_on_c, 5, 60, 0
6, 310239, Note_on_c, 5, 62, 88
6, 310400, Note_on_c, 5, 62, 0
6, 310400, Note_on_c, 5, 64, 88
6, 310560, Note_on_c, 5, 64, 0
6, 310560, Note_on_c, 5, 65, 88
6, 310719, Note_on_c, 5, 65, 0
6, 310719, Note_on_c, 5, 67, 88
6, 310880, Note_on_c, 5, 67, 0
6, 310880, Note_on_c, 5, 69, 88
6, 311040, Note_on_c, 5, 69, 0
6, 311040, Note_on_c, 5, 70, 88
6, 311520, Note_on_c, 5, 70, 0
6, 311520, Note_on_c, 5, 64, 88
6, 312000, Note_on_c, 5, 64, 0
6, 312000, Note_on_c, 5, 65, 88
6, 312192, Note_on_c, 5, 65, 0
6, 312480, Note_on_c, 5, 67, 88
6, 312720, Note_on_c, 5, 67, 0
6, 312720, Note_on_c, 5, 58, 88
6, 312960, Note_on_c, 5, 58, 0
6, 312960, Note_on_c, 5, 58, 88
6, 313680, Note_on_c, 5, 58, 0
6, 313680, Note_on_c, 5, 62, 88
6, 313920, Note_on_c, 5, 62, 0
6, 313920, Note_on_c, 5, 60, 88
6, 314400, Note_on_c, 5, 60, 0
6, 314400, Note_on_c, 5, 60, 88
6, 314460, Note_on_c, 5, 58, 88
6, 314508, Note_on_c, 5, 60, 0
6, 314520, Note_on_c, 5, 60, 88
6, 314568, Note_on_c, 5, 58, 0
6, 314580, Note_on_c, 5, 58, 88
6, 314628, Note_on_c, 5, 60, 0
6, 314640, Note_on_c, 5, 57, 88
6, 314688, Note_on_c, 5, 58, 0
6, 314760, Note_on_c, 5, 57, 0
6, 314760, Note_on_c, 5, 58, 88
6, 314880, Note_on_c, 5, 58, 0
6, 314880, Note_on_c, 5, 57, 88
6, 315360, Note_on_c, 5, 57, 0
6, 315360, Note_on_c, 5, 57, 88
6, 315480, Note_on_c, 5, 57, 0
6, 315480, Note_on_c, 5, 55, 88
6, 315600, Note_on_c, 5, 55, 0
6, 315600, Note_on_c, 5, 53, 88
6, 315720, Note_on_c, 5, 53, 0
6, 315720, Note_on_c, 5, 52, 88
6, 315840, Note_on_c, 5, 52, 0
6, 315840, Note_on_c, 5, 53, 88
6, 315999, Note_on_c, 5, 53, 0
6, 315999, Note_on_c, 5, 57, 88
6, 316160, Note_on_c, 5, 57, 0
6, 316160, Note_on_c, 5, 60, 88
6, 316320, Note_on_c, 5, 60, 0
6, 316320, Note_on_c, 5, 65, 88
6, 316479, Note_on_c, 5, 65, 0
6, 316479, Note_on_c, 5, 67, 88
6, 316640, Note_on_c, 5, 67, 0
6, 316640, Note_on_c, 5, 69, 88
6, 316800, Note_on_c, 5, 69, 0
6, 316800, Note_on_c, 5, 69, 88
6, 316920, Note_on_c, 5, 69, 0
6, 316920, Note_on_c, 5, 67, 88
6, 317040, Note_on_c, 5, 67, 0
6, 317040, Note_on_c, 5, 65, 88
6, 317160, Note_on_c, 5, 65, 0
6, 317160, Note_on_c, 5, 64, 88
6, 317280, Note_on_c, 5, 64, 0
6, 317280, Note_on_c, 5, 65, 88
6, 317439, Note_on_c, 5, 65, 0
6, 317439, Note_on_c, 5, 69, 88
6, 317600, Note_on_c, 5, 69, 0
6, 317600, Note_on_c, 5, 72, 88
6, 317760, Note_on_c, 5, 72, 0
6, 317760, Note_on_c, 5, 77, 88
6, 317919, Note_on_c, 5, 77, 0
6, 317919, Note_on_c, 5, 76, 88
6, 318080, Note_on_c, 5, 76, 0
6, 318080, Note_on_c, 5, 74, 88
6, 318240, Note_on_c, 5, 74, 0
6, 318240, Note_on_c, 5, 72, 88
6, 318480, Note_on_c, 5, 72, 0
6, 318480, Note_on_c, 5, 71, 88
6, 318720, Note_on_c, 5, 71, 0
6, 318720, Note_on_c, 5, 70, 88
6, 318960, Note_on_c, 5, 70, 0
6, 318960, Note_on_c, 5, 67, 88
6, 319200, Note_on_c, 5, 67, 0
6, 319200, Note_on_c, 5, 69, 88
6, 319440, Note_on_c, 5, 69, 0
6, 319440, Note_on_c, 5, 77, 88
6, 319536, Note_on_c, 5, 77, 0
6, 319839, Note_on_c, 5, 69, 88
6, 320000, Note_on_c, 5, 69, 0
6, 320000, Note_on_c, 5, 67, 88
6, 320160, Note_on_c, 5, 67, 0
6, 320319, Note_on_c, 5, 65, 88
6, 320480, Note_on_c, 5, 65, 0
6, 320480, Note_on_c, 5, 64, 88
6, 320640, Note_on_c, 5, 64, 0
6, 320799, Note_on_c, 5, 62, 88
6, 320960, Note_on_c, 5, 62, 0
6, 320960, Note_on_c, 5, 60, 88
6, 321120, Note_on_c, 5, 60, 0
6, 321120, End_track
7, 0, Start_track
7, 0, Title_t, "Piano 2 Bass"
7, 0, Control_c, 6, 0, 0
7, 0, Control_c, 6, 7, 90
7, 0, Control_c, 6, 10, 90
7, 0, Control_c, 6, 91, 82
7, 0, Control_c, 6, 93, 82
7, 1, Control_c, 6, 32, 1
7, 2, Program_c, 6, 0
7, 480, Note_on_c, 6, 65, 88
7, 960, Note_on_c, 6, 65, 0
7, 960, Note_on_c, 6, 60, 88
7, 1440, Note_on_c, 6, 60, 0
7, 1440, Note_on_c, 6, 64, 88
7, 1920, Note_on_c, 6, 64, 0
7, 1920, Note_on_c, 6, 67, 88
7, 2112, Note_on_c, 6, 67, 0
7, 2400, Note_on_c, 6, 65, 88
7, 2592, Note_on_c, 6, 65, 0
7, 3360, Note_on_c, 6, 62, 88
7, 3840, Note_on_c, 6, 62, 0
7, 3840, Note_on_c, 6, 55, 88
7, 4320, Note_on_c, 6, 55, 0
7, 4320, Note_on_c, 6, 60, 88
7, 5280, Note_on_c, 6, 60, 0
7, 5280, Note_on_c, 6, 60, 88
7, 5760, Note_on_c, 6, 60, 0
7, 5760, Note_on_c, 6, 46, 88
7, 5760, Note_on_c, 6, 58, 88
7, 6240, Note_on_c, 6, 58, 0
7, 6240, Note_on_c, 6, 46, 0
7, 6240, Note_on_c, 6, 45, 88
7, 6240, Note_on_c, 6, 57, 88
7, 6720, Note_on_c, 6, 57, 0
7, 6720, Note_on_c, 6, 45, 0
7, 7200, Note_on_c, 6, 46, 88
7, 7200, Note_on_c, 6, 58, 88
7, 7680, Note_on_c, 6, 58, 0
7, 7680, Note_on_c, 6, 46, 0
7, 7680, Note_on_c, 6, 45, 88
7, 7680, Note_on_c, 6, 57, 88
7, 8160, Note_on_c, 6, 57, 0
7, 8160, Note_on_c, 6, 45, 0
7, 8640, Note_on_c, 6, 55, 88
7, 9120, Note_on_c, 6, 55, 0
7, 9120, Note_on_c, 6, 60, 88
7, 9600, Note_on_c, 6, 60, 0
7, 9600, Note_on_c, 6, 60, 88
7, 10080, Note_on_c, 6, 60, 0
7, 10080, Note_on_c, 6, 60, 88
7, 10560, Note_on_c, 6, 60, 0
7, 10560, Note_on_c, 6, 48, 88
7, 11040, Note_on_c, 6, 48, 0
7, 26880, Note_on_c, 6, 48, 88
7, 26880, Note_on_c, 6, 58, 88
7, 27360, Note_on_c, 6, 58, 0
7, 27360, Note_on_c, 6, 48, 0
7, 27360, Note_on_c, 6, 53, 88
7, 27360, Note_on_c, 6, 57, 88
7, 27840, Note_on_c, 6, 57, 0
7, 27840, Note_on_c, 6, 53, 0
7, 28800, Note_on_c, 6, 57, 88
7, 29280, Note_on_c, 6, 57, 0
7, 29280, Note_on_c, 6, 60, 88
7, 29760, Note_on_c, 6, 60, 0
7, 29760, Note_on_c, 6, 48, 88
7, 30240, Note_on_c, 6, 48, 0
7, 30240, Note_on_c, 6, 53, 88
7, 30720, Note_on_c, 6, 53, 0
7, 30720, Note_on_c, 6, 41, 88
7, 31200, Note_on_c, 6, 41, 0
7, 37440, Note_on_c, 6, 65, 88
7, 37440, Note_on_c, 6, 69, 88
7, 37920, Note_on_c, 6, 69, 0
7, 37920, Note_on_c, 6, 65, 0
7, 40800, Note_on_c, 6, 53, 88
7, 40800, Note_on_c, 6, 57, 88
7, 41280, Note_on_c, 6, 57, 0
7, 41280, Note_on_c, 6, 53, 0
7, 41280, Note_on_c, 6, 53, 88
7, 41280, Note_on_c, 6, 57, 88
7, 41520, Note_on_c, 6, 57, 0
7, 41520, Note_on_c, 6, 53, 0
7, 41520, Note_on_c, 6, 54, 88
7, 41520, Note_on_c, 6, 64, 88
7, 41760, Note_on_c, 6, 64, 0
7, 41760, Note_on_c, 6, 54, 0
7, 41760, Note_on_c, 6, 55, 88
7, 41760, Note_on_c, 6, 64, 88
7, 42240, Note_on_c, 6, 64, 0
7, 42240, Note_on_c, 6, 62, 88
7, 42720, Note_on_c, 6, 62, 0
7, 42720, Note_on_c, 6, 55, 0
7, 48960, Note_on_c, 6, 60, 88
7, 49200, Note_on_c, 6, 60, 0
7, 49200, Note_on_c, 6, 55, 88
7, 49440, Note_on_c, 6, 55, 0
7, 49440, Note_on_c, 6, 64, 88
7, 49680, Note_on_c, 6, 64, 0
7, 49680, Note_on_c, 6, 55, 88
7, 49920, Note_on_c, 6, 55, 0
7, 49920, Note_on_c, 6, 60, 88
7, 50160, Note_on_c, 6, 60, 0
7, 50160, Note_on_c, 6, 55, 88
7, 50400, Note_on_c, 6, 55, 0
7, 50400, Note_on_c, 6, 43, 88
7, 50880, Note_on_c, 6, 43, 0
7, 51840, Note_on_c, 6, 60, 88
7, 52080, Note_on_c, 6, 60, 0
7, 52080, Note_on_c, 6, 59, 88
7, 52320, Note_on_c, 6, 59, 0
7, 52320, Note_on_c, 6, 60, 88
7, 52560, Note_on_c, 6, 60, 0
7, 52560, Note_on_c, 6, 62, 88
7, 52800, Note_on_c, 6, 62, 0
7, 52800, Note_on_c, 6, 63, 88
7, 53040, Note_on_c, 6, 63, 0
7, 53040, Note_on_c, 6, 64, 88
7, 53136, Note_on_c, 6, 64, 0
7, 53280, Note_on_c, 6, 62, 88
7, 53400, Note_on_c, 6, 62, 0
7, 53400, Note_on_c, 6, 60, 88
7, 53520, Note_on_c, 6, 60, 0
7, 53520, Note_on_c, 6, 59, 88
7, 53640, Note_on_c, 6, 59, 0
7, 53640, Note_on_c, 6, 60, 88
7, 53760, Note_on_c, 6, 60, 0
7, 53760, Note_on_c, 6, 59, 88
7, 54240, Note_on_c, 6, 59, 0
7, 58320, Note_on_c, 6, 55, 88
7, 58416, Note_on_c, 6, 55, 0
7, 58560, Note_on_c, 6, 67, 88
7, 58680, Note_on_c, 6, 67, 0
7, 58680, Note_on_c, 6, 65, 88
7, 58800, Note_on_c, 6, 65, 0
7, 58800, Note_on_c, 6, 64, 88
7, 58920, Note_on_c, 6, 64, 0
7, 58920, Note_on_c, 6, 62, 88
7, 59040, Note_on_c, 6, 62, 0
7, 59040, Note_on_c, 6, 60, 88
7, 59160, Note_on_c, 6, 60, 0
7, 59160, Note_on_c, 6, 62, 88
7, 59280, Note_on_c, 6, 62, 0
7, 59280, Note_on_c, 6, 59, 88
7, 59400, Note_on_c, 6, 59, 0
7, 59400, Note_on_c, 6, 62, 88
7, 59447, Note_on_c, 6, 62, 0
7, 59520, Note_on_c, 6, 60, 88
7, 59616, Note_on_c, 6, 60, 0
7, 59760, Note_on_c, 6, 60, 88
7, 59856, Note_on_c, 6, 60, 0
7, 60000, Note_on_c, 6, 62, 88
7, 60096, Note_on_c, 6, 62, 0
7, 60240, Note_on_c, 6, 62, 88
7, 60336, Note_on_c, 6, 62, 0
7, 60480, Note_on_c, 6, 60, 88
7, 60960, Note_on_c, 6, 60, 0
7, 64800, Note_on_c, 6, 76, 88
7, 64896, Note_on_c, 6, 76, 0
7, 65040, Note_on_c, 6, 74, 88
7, 65136, Note_on_c, 6, 74, 0
7, 65280, Note_on_c, 6, 72, 88
7, 65376, Note_on_c, 6, 72, 0
7, 65520, Note_on_c, 6, 71, 88
7, 65616, Note_on_c, 6, 71, 0
7, 65760, Note_on_c, 6, 69, 88
7, 65856, Note_on_c, 6, 69, 0
7, 66000, Note_on_c, 6, 67, 88
7, 66096, Note_on_c, 6, 67, 0
7, 66240, Note_on_c, 6, 65, 88
7, 66720, Note_on_c, 6, 65, 0
7, 67200, Note_on_c, 6, 65, 88
7, 67680, Note_on_c, 6, 65, 0
7, 67680, Note_on_c, 6, 64, 88
7, 67920, Note_on_c, 6, 64, 0
7, 67920, Note_on_c, 6, 65, 88
7, 68160, Note_on_c, 6, 65, 0
7, 68160, Note_on_c, 6, 67, 88
7, 68640, Note_on_c, 6, 67, 0
7, 68640, Note_on_c, 6, 55, 88
7, 69120, Note_on_c, 6, 55, 0
7, 69120, Note_on_c, 6, 36, 88
7, 69120, Note_on_c, 6, 48, 88
7, 69600, Note_on_c, 6, 48, 0
7, 69600, Note_on_c, 6, 36, 0
7, 70560, Note_on_c, 6, 36, 88
7, 70560, Note_on_c, 6, 48, 88
7, 71040, Note_on_c, 6, 48, 0
7, 71040, Note_on_c, 6, 36, 0
7, 72000, Note_on_c, 6, 36, 88
7, 72000, Note_on_c, 6, 48, 88
7, 72480, Note_on_c, 6, 48, 0
7, 72480, Note_on_c, 6, 36, 0
7, 73440, Note_on_c, 6, 36, 88
7, 73440, Note_on_c, 6, 48, 88
7, 73920, Note_on_c, 6, 48, 0
7, 73920, Note_on_c, 6, 36, 0
7, 74880, Note_on_c, 6, 60, 88
7, 75120, Note_on_c, 6, 60, 0
7, 75360, Note_on_c, 6, 60, 88
7, 75600, Note_on_c, 6, 60, 0
7, 75840, Note_on_c, 6, 60, 88
7, 76080, Note_on_c, 6, 60, 0
7, 76320, Note_on_c, 6, 72, 88
7, 76560, Note_on_c, 6, 72, 0
7, 76800, Note_on_c, 6, 72, 88
7, 77040, Note_on_c, 6, 72, 0
7, 77280, Note_on_c, 6, 72, 88
7, 77520, Note_on_c, 6, 72, 0
7, 77760, Note_on_c, 6, 72, 88
7, 78000, Note_on_c, 6, 72, 0
7, 78240, Note_on_c, 6, 72, 88
7, 78480, Note_on_c, 6, 72, 0
7, 78720, Note_on_c, 6, 72, 88
7, 78960, Note_on_c, 6, 72, 0
7, 79200, Note_on_c, 6, 60, 88
7, 79440, Note_on_c, 6, 60, 0
7, 79680, Note_on_c, 6, 60, 88
7, 79920, Note_on_c, 6, 60, 0
7, 80160, Note_on_c, 6, 60, 88
7, 80400, Note_on_c, 6, 60, 0
7, 80640, Note_on_c, 6, 60, 88
7, 81120, Note_on_c, 6, 60, 0
7, 81120, Note_on_c, 6, 52, 88
7, 81600, Note_on_c, 6, 52, 0
7, 81600, Note_on_c, 6, 55, 88
7, 82080, Note_on_c, 6, 55, 0
7, 82080, Note_on_c, 6, 60, 88
7, 82560, Note_on_c, 6, 60, 0
7, 82560, Note_on_c, 6, 64, 88
7, 83040, Note_on_c, 6, 64, 0
7, 83040, Note_on_c, 6, 67, 88
7, 83520, Note_on_c, 6, 67, 0
7, 83520, Note_on_c, 6, 72, 88
7, 84000, Note_on_c, 6, 72, 0
7, 119040, Note_on_c, 6, 48, 88
7, 119040, Note_on_c, 6, 58, 88
7, 119520, Note_on_c, 6, 58, 0
7, 119520, Note_on_c, 6, 48, 0
7, 119520, Note_on_c, 6, 53, 88
7, 119520, Note_on_c, 6, 57, 88
7, 120000, Note_on_c, 6, 57, 0
7, 120000, Note_on_c, 6, 53, 0
7, 120960, Note_on_c, 6, 41, 88
7, 121440, Note_on_c, 6, 41, 0
7, 121440, Note_on_c, 6, 53, 88
7, 121920, Note_on_c, 6, 53, 0
7, 121920, Note_on_c, 6, 57, 88
7, 122400, Note_on_c, 6, 57, 0
7, 122400, Note_on_c, 6, 62, 101
7, 122400, Note_on_c, 6, 65, 101
7, 122640, Note_on_c, 6, 65, 0
7, 122640, Note_on_c, 6, 62, 0
7, 122640, Note_on_c, 6, 62, 75
7, 122640, Note_on_c, 6, 65, 75
7, 122880, Note_on_c, 6, 65, 0
7, 122880, Note_on_c, 6, 62, 0
7, 122880, Note_on_c, 6, 62, 75
7, 122880, Note_on_c, 6, 65, 75
7, 123120, Note_on_c, 6, 65, 0
7, 123120, Note_on_c, 6, 62, 0
7, 123120, Note_on_c, 6, 62, 75
7, 123120, Note_on_c, 6, 65, 75
7, 123360, Note_on_c, 6, 65, 0
7, 123360, Note_on_c, 6, 62, 0
7, 123360, Note_on_c, 6, 62, 75
7, 123360, Note_on_c, 6, 65, 75
7, 123600, Note_on_c, 6, 65, 0
7, 123600, Note_on_c, 6, 62, 0
7, 123600, Note_on_c, 6, 62, 75
7, 123600, Note_on_c, 6, 65, 75
7, 123840, Note_on_c, 6, 65, 0
7, 123840, Note_on_c, 6, 62, 0
7, 123840, Note_on_c, 6, 61, 75
7, 123840, Note_on_c, 6, 64, 75
7, 124080, Note_on_c, 6, 64, 0
7, 124080, Note_on_c, 6, 61, 0
7, 124080, Note_on_c, 6, 61, 75
7, 124080, Note_on_c, 6, 64, 75
7, 124320, Note_on_c, 6, 64, 0
7, 124320, Note_on_c, 6, 61, 0
7, 124320, Note_on_c, 6, 61, 75
7, 124320, Note_on_c, 6, 64, 75
7, 124560, Note_on_c, 6, 64, 0
7, 124560, Note_on_c, 6, 61, 0
7, 124560, Note_on_c, 6, 61, 75
7, 124560, Note_on_c, 6, 64, 75
7, 124800, Note_on_c, 6, 64, 0
7, 124800, Note_on_c, 6, 61, 0
7, 124800, Note_on_c, 6, 61, 75
7, 124800, Note_on_c, 6, 64, 75
7, 125040, Note_on_c, 6, 64, 0
7, 125040, Note_on_c, 6, 61, 0
7, 125040, Note_on_c, 6, 61, 75
7, 125040, Note_on_c, 6, 64, 75
7, 125280, Note_on_c, 6, 64, 0
7, 125280, Note_on_c, 6, 61, 0
7, 125280, Note_on_c, 6, 62, 75
7, 125520, Note_on_c, 6, 62, 0
7, 125520, Note_on_c, 6, 65, 75
7, 125760, Note_on_c, 6, 65, 0
7, 125760, Note_on_c, 6, 67, 75
7, 126000, Note_on_c, 6, 67, 0
7, 126000, Note_on_c, 6, 69, 75
7, 126240, Note_on_c, 6, 69, 0
7, 126240, Note_on_c, 6, 65, 75
7, 126480, Note_on_c, 6, 65, 0
7, 126480, Note_on_c, 6, 62, 75
7, 126720, Note_on_c, 6, 62, 0
7, 126720, Note_on_c, 6, 64, 75
7, 126960, Note_on_c, 6, 64, 0
7, 126960, Note_on_c, 6, 61, 75
7, 127200, Note_on_c, 6, 61, 0
7, 127200, Note_on_c, 6, 62, 75
7, 127440, Note_on_c, 6, 62, 0
7, 127440, Note_on_c, 6, 53, 75
7, 127680, Note_on_c, 6, 53, 0
7, 127680, Note_on_c, 6, 55, 75
7, 127920, Note_on_c, 6, 55, 0
7, 127920, Note_on_c, 6, 57, 75
7, 128160, Note_on_c, 6, 57, 0
7, 128160, Note_on_c, 6, 50, 75
7, 128640, Note_on_c, 6, 50, 0
7, 135840, Note_on_c, 6, 71, 75
7, 135840, Note_on_c, 6, 74, 75
7, 136320, Note_on_c, 6, 74, 0
7, 136320, Note_on_c, 6, 71, 0
7, 136320, Note_on_c, 6, 73, 75
7, 136320, Note_on_c, 6, 76, 75
7, 136800, Note_on_c, 6, 76, 0
7, 136800, Note_on_c, 6, 73, 0
7, 136800, Note_on_c, 6, 45, 75
7, 137280, Note_on_c, 6, 45, 0
7, 137280, Note_on_c, 6, 57, 75
7, 137760, Note_on_c, 6, 57, 0
7, 137760, Note_on_c, 6, 57, 75
7, 138240, Note_on_c, 6, 57, 0
7, 138240, Note_on_c, 6, 57, 75
7, 138720, Note_on_c, 6, 57, 0
7, 138720, Note_on_c, 6, 57, 75
7, 139200, Note_on_c, 6, 57, 0
7, 139200, Note_on_c, 6, 57, 75
7, 139680, Note_on_c, 6, 57, 0
7, 142560, Note_on_c, 6, 62, 75
7, 142560, Note_on_c, 6, 65, 75
7, 142800, Note_on_c, 6, 65, 0
7, 142800, Note_on_c, 6, 62, 0
7, 142800, Note_on_c, 6, 62, 75
7, 142800, Note_on_c, 6, 65, 75
7, 143040, Note_on_c, 6, 65, 0
7, 143040, Note_on_c, 6, 62, 0
7, 143040, Note_on_c, 6, 62, 75
7, 143040, Note_on_c, 6, 65, 75
7, 143280, Note_on_c, 6, 65, 0
7, 143280, Note_on_c, 6, 62, 0
7, 143280, Note_on_c, 6, 62, 75
7, 143280, Note_on_c, 6, 65, 75
7, 143520, Note_on_c, 6, 65, 0
7, 143520, Note_on_c, 6, 62, 0
7, 143520, Note_on_c, 6, 62, 75
7, 143520, Note_on_c, 6, 65, 75
7, 143760, Note_on_c, 6, 65, 0
7, 143760, Note_on_c, 6, 62, 0
7, 143760, Note_on_c, 6, 62, 75
7, 143760, Note_on_c, 6, 65, 75
7, 144000, Note_on_c, 6, 65, 0
7, 144000, Note_on_c, 6, 62, 0
7, 144000, Note_on_c, 6, 61, 75
7, 144000, Note_on_c, 6, 64, 75
7, 144240, Note_on_c, 6, 64, 0
7, 144240, Note_on_c, 6, 61, 0
7, 144240, Note_on_c, 6, 61, 75
7, 144240, Note_on_c, 6, 64, 75
7, 144480, Note_on_c, 6, 64, 0
7, 144480, Note_on_c, 6, 61, 0
7, 144480, Note_on_c, 6, 61, 75
7, 144480, Note_on_c, 6, 64, 75
7, 144720, Note_on_c, 6, 64, 0
7, 144720, Note_on_c, 6, 61, 0
7, 144720, Note_on_c, 6, 61, 75
7, 144720, Note_on_c, 6, 64, 75
7, 144960, Note_on_c, 6, 64, 0
7, 144960, Note_on_c, 6, 61, 0
7, 144960, Note_on_c, 6, 61, 75
7, 144960, Note_on_c, 6, 64, 75
7, 145200, Note_on_c, 6, 64, 0
7, 145200, Note_on_c, 6, 61, 0
7, 145200, Note_on_c, 6, 61, 75
7, 145200, Note_on_c, 6, 64, 75
7, 145440, Note_on_c, 6, 64, 0
7, 145440, Note_on_c, 6, 61, 0
7, 145440, Note_on_c, 6, 62, 75
7, 145920, Note_on_c, 6, 62, 0
7, 145920, Note_on_c, 6, 55, 75
7, 146400, Note_on_c, 6, 55, 0
7, 146400, Note_on_c, 6, 57, 75
7, 146880, Note_on_c, 6, 57, 0
7, 151200, Note_on_c, 6, 47, 88
7, 151200, Note_on_c, 6, 56, 88
7, 152640, Note_on_c, 6, 56, 0
7, 152640, Note_on_c, 6, 47, 0
7, 152640, Note_on_c, 6, 45, 75
7, 152640, Note_on_c, 6, 57, 75
7, 153120, Note_on_c, 6, 57, 0
7, 153120, Note_on_c, 6, 45, 0
7, 154080, Note_on_c, 6, 45, 88
7, 154080, Note_on_c, 6, 57, 88
7, 154560, Note_on_c, 6, 57, 0
7, 154560, Note_on_c, 6, 45, 0
7, 155520, Note_on_c, 6, 45, 88
7, 155520, Note_on_c, 6, 57, 88
7, 156000, Note_on_c, 6, 57, 0
7, 156000, Note_on_c, 6, 45, 0
7, 161280, Note_on_c, 6, 55, 88
7, 161280, Note_on_c, 6, 58, 88
7, 161280, Note_on_c, 6, 60, 88
7, 161280, Note_on_c, 6, 64, 88
7, 162240, Note_on_c, 6, 64, 0
7, 162240, Note_on_c, 6, 55, 0
7, 162240, Note_on_c, 6, 58, 0
7, 162240, Note_on_c, 6, 60, 0
7, 164160, Note_on_c, 6, 64, 88
7, 164160, Note_on_c, 6, 67, 88
7, 164640, Note_on_c, 6, 67, 0
7, 164640, Note_on_c, 6, 64, 0
7, 168480, Note_on_c, 6, 65, 88
7, 168960, Note_on_c, 6, 65, 0
7, 168960, Note_on_c, 6, 53, 88
7, 169440, Note_on_c, 6, 53, 0
7, 169920, Note_on_c, 6, 60, 88
7, 169920, Note_on_c, 6, 64, 88
7, 170400, Note_on_c, 6, 64, 0
7, 170400, Note_on_c, 6, 60, 0
7, 170400, Note_on_c, 6, 61, 88
7, 170400, Note_on_c, 6, 70, 88
7, 170880, Note_on_c, 6, 70, 0
7, 170880, Note_on_c, 6, 61, 0
7, 170880, Note_on_c, 6, 62, 88
7, 170880, Note_on_c, 6, 69, 88
7, 171360, Note_on_c, 6, 69, 0
7, 171360, Note_on_c, 6, 62, 0
7, 171840, Note_on_c, 6, 67, 88
7, 172320, Note_on_c, 6, 67, 0
7, 172320, Note_on_c, 6, 65, 88
7, 172800, Note_on_c, 6, 65, 0
7, 173280, Note_on_c, 6, 64, 88
7, 173760, Note_on_c, 6, 64, 0
7, 173760, Note_on_c, 6, 60, 88
7, 174240, Note_on_c, 6, 60, 0
7, 174240, Note_on_c, 6, 58, 88
7, 174240, Note_on_c, 6, 60, 88
7, 174720, Note_on_c, 6, 58, 0
7, 174720, Note_on_c, 6, 57, 88
7, 175200, Note_on_c, 6, 57, 0
7, 175200, Note_on_c, 6, 60, 0
7, 175680, Note_on_c, 6, 58, 88
7, 175680, Note_on_c, 6, 60, 88
7, 176160, Note_on_c, 6, 58, 0
7, 176160, Note_on_c, 6, 57, 88
7, 176640, Note_on_c, 6, 57, 0
7, 176640, Note_on_c, 6, 60, 0
7, 177120, Note_on_c, 6, 67, 88
7, 177600, Note_on_c, 6, 67, 0
7, 177600, Note_on_c, 6, 64, 88
7, 178080, Note_on_c, 6, 64, 0
7, 178080, Note_on_c, 6, 65, 88
7, 178560, Note_on_c, 6, 65, 0
7, 178560, Note_on_c, 6, 66, 88
7, 178680, Note_on_c, 6, 66, 0
7, 179040, Note_on_c, 6, 62, 88
7, 179160, Note_on_c, 6, 62, 0
7, 179520, Note_on_c, 6, 59, 88
7, 179640, Note_on_c, 6, 59, 0
7, 207360, Note_on_c, 6, 58, 88
7, 207480, Note_on_c, 6, 58, 0
7, 207480, Note_on_c, 6, 65, 88
7, 207600, Note_on_c, 6, 65, 0
7, 207600, Note_on_c, 6, 62, 88
7, 207720, Note_on_c, 6, 62, 0
7, 207720, Note_on_c, 6, 65, 88
7, 207840, Note_on_c, 6, 65, 0
7, 207840, Note_on_c, 6, 58, 88
7, 207960, Note_on_c, 6, 58, 0
7, 207960, Note_on_c, 6, 65, 88
7, 208080, Note_on_c, 6, 65, 0
7, 208080, Note_on_c, 6, 62, 88
7, 208200, Note_on_c, 6, 62, 0
7, 208200, Note_on_c, 6, 65, 88
7, 208320, Note_on_c, 6, 65, 0
7, 208320, Note_on_c, 6, 58, 88
7, 208440, Note_on_c, 6, 58, 0
7, 208440, Note_on_c, 6, 65, 88
7, 208560, Note_on_c, 6, 65, 0
7, 208560, Note_on_c, 6, 62, 88
7, 208680, Note_on_c, 6, 62, 0
7, 208680, Note_on_c, 6, 65, 88
7, 208800, Note_on_c, 6, 65, 0
7, 208800, Note_on_c, 6, 57, 88
7, 208920, Note_on_c, 6, 57, 0
7, 208920, Note_on_c, 6, 65, 88
7, 209040, Note_on_c, 6, 65, 0
7, 209040, Note_on_c, 6, 60, 88
7, 209160, Note_on_c, 6, 60, 0
7, 209160, Note_on_c, 6, 65, 88
7, 209280, Note_on_c, 6, 65, 0
7, 209280, Note_on_c, 6, 57, 88
7, 209400, Note_on_c, 6, 57, 0
7, 209400, Note_on_c, 6, 65, 88
7, 209520, Note_on_c, 6, 65, 0
7, 209520, Note_on_c, 6, 60, 88
7, 209640, Note_on_c, 6, 60, 0
7, 209640, Note_on_c, 6, 65, 88
7, 209760, Note_on_c, 6, 65, 0
7, 209760, Note_on_c, 6, 57, 88
7, 209880, Note_on_c, 6, 57, 0
7, 209880, Note_on_c, 6, 65, 88
7, 210000, Note_on_c, 6, 65, 0
7, 210000, Note_on_c, 6, 60, 88
7, 210120, Note_on_c, 6, 60, 0
7, 210120, Note_on_c, 6, 65, 88
7, 210240, Note_on_c, 6, 65, 0
7, 210240, Note_on_c, 6, 58, 88
7, 210360, Note_on_c, 6, 58, 0
7, 210360, Note_on_c, 6, 65, 88
7, 210480, Note_on_c, 6, 65, 0
7, 210480, Note_on_c, 6, 62, 88
7, 210600, Note_on_c, 6, 62, 0
7, 210600, Note_on_c, 6, 65, 88
7, 210720, Note_on_c, 6, 65, 0
7, 210720, Note_on_c, 6, 58, 88
7, 210840, Note_on_c, 6, 58, 0
7, 210840, Note_on_c, 6, 65, 88
7, 210960, Note_on_c, 6, 65, 0
7, 210960, Note_on_c, 6, 62, 88
7, 211080, Note_on_c, 6, 62, 0
7, 211080, Note_on_c, 6, 65, 88
7, 211200, Note_on_c, 6, 65, 0
7, 211200, Note_on_c, 6, 58, 88
7, 211320, Note_on_c, 6, 58, 0
7, 211320, Note_on_c, 6, 65, 88
7, 211440, Note_on_c, 6, 65, 0
7, 211440, Note_on_c, 6, 62, 88
7, 211560, Note_on_c, 6, 62, 0
7, 211560, Note_on_c, 6, 65, 88
7, 211680, Note_on_c, 6, 65, 0
7, 211680, Note_on_c, 6, 53, 88
7, 211800, Note_on_c, 6, 53, 0
7, 211800, Note_on_c, 6, 65, 88
7, 211920, Note_on_c, 6, 65, 0
7, 211920, Note_on_c, 6, 57, 88
7, 212040, Note_on_c, 6, 57, 0
7, 212040, Note_on_c, 6, 65, 88
7, 212160, Note_on_c, 6, 65, 0
7, 212160, Note_on_c, 6, 53, 88
7, 212280, Note_on_c, 6, 53, 0
7, 212280, Note_on_c, 6, 65, 88
7, 212400, Note_on_c, 6, 65, 0
7, 212400, Note_on_c, 6, 57, 88
7, 212520, Note_on_c, 6, 57, 0
7, 212520, Note_on_c, 6, 65, 88
7, 212640, Note_on_c, 6, 65, 0
7, 212640, Note_on_c, 6, 53, 88
7, 212760, Note_on_c, 6, 53, 0
7, 212760, Note_on_c, 6, 65, 88
7, 212880, Note_on_c, 6, 65, 0
7, 212880, Note_on_c, 6, 57, 88
7, 213000, Note_on_c, 6, 57, 0
7, 213000, Note_on_c, 6, 65, 88
7, 213120, Note_on_c, 6, 65, 0
7, 213120, Note_on_c, 6, 55, 88
7, 213240, Note_on_c, 6, 55, 0
7, 213240, Note_on_c, 6, 63, 88
7, 213360, Note_on_c, 6, 63, 0
7, 213360, Note_on_c, 6, 58, 88
7, 213480, Note_on_c, 6, 58, 0
7, 213480, Note_on_c, 6, 63, 88
7, 213600, Note_on_c, 6, 63, 0
7, 213600, Note_on_c, 6, 53, 88
7, 213720, Note_on_c, 6, 53, 0
7, 213720, Note_on_c, 6, 62, 88
7, 213840, Note_on_c, 6, 62, 0
7, 213840, Note_on_c, 6, 57, 88
7, 213960, Note_on_c, 6, 57, 0
7, 213960, Note_on_c, 6, 62, 88
7, 214080, Note_on_c, 6, 62, 0
7, 214080, Note_on_c, 6, 51, 88
7, 214200, Note_on_c, 6, 51, 0
7, 214200, Note_on_c, 6, 60, 88
7, 214320, Note_on_c, 6, 60, 0
7, 214320, Note_on_c, 6, 55, 88
7, 214440, Note_on_c, 6, 55, 0
7, 214440, Note_on_c, 6, 60, 88
7, 214560, Note_on_c, 6, 60, 0
7, 214560, Note_on_c, 6, 50, 88
7, 214560, Note_on_c, 6, 58, 88
7, 215040, Note_on_c, 6, 58, 0
7, 215040, Note_on_c, 6, 50, 0
7, 216000, Note_on_c, 6, 53, 88
7, 216159, Note_on_c, 6, 53, 0
7, 216159, Note_on_c, 6, 58, 88
7, 216320, Note_on_c, 6, 58, 0
7, 216320, Note_on_c, 6, 62, 88
7, 216480, Note_on_c, 6, 62, 0
7, 216480, Note_on_c, 6, 53, 88
7, 216639, Note_on_c, 6, 53, 0
7, 216639, Note_on_c, 6, 58, 88
7, 216800, Note_on_c, 6, 58, 0
7, 216800, Note_on_c, 6, 62, 88
7, 216960, Note_on_c, 6, 62, 0
7, 216960, Note_on_c, 6, 53, 88
7, 217119, Note_on_c, 6, 53, 0
7, 217119, Note_on_c, 6, 57, 88
7, 217280, Note_on_c, 6, 57, 0
7, 217280, Note_on_c, 6, 63, 88
7, 217440, Note_on_c, 6, 63, 0
7, 217440, Note_on_c, 6, 58, 88
7, 217440, Note_on_c, 6, 62, 88
7, 217920, Note_on_c, 6, 62, 0
7, 217920, Note_on_c, 6, 58, 0
7, 221760, Note_on_c, 6, 50, 88
7, 222240, Note_on_c, 6, 50, 0
7, 222240, Note_on_c, 6, 53, 88
7, 222720, Note_on_c, 6, 53, 0
7, 222720, Note_on_c, 6, 53, 88
7, 223200, Note_on_c, 6, 53, 0
7, 223200, Note_on_c, 6, 58, 88
7, 223680, Note_on_c, 6, 58, 0
7, 223680, Note_on_c, 6, 46, 88
7, 224160, Note_on_c, 6, 46, 0
7, 230400, Note_on_c, 6, 70, 88
7, 230400, Note_on_c, 6, 74, 88
7, 230880, Note_on_c, 6, 74, 0
7, 230880, Note_on_c, 6, 70, 0
7, 233760, Note_on_c, 6, 58, 88
7, 233760, Note_on_c, 6, 62, 88
7, 234240, Note_on_c, 6, 62, 0
7, 234240, Note_on_c, 6, 58, 0
7, 234240, Note_on_c, 6, 58, 88
7, 234240, Note_on_c, 6, 62, 88
7, 234480, Note_on_c, 6, 62, 0
7, 234480, Note_on_c, 6, 58, 0
7, 234480, Note_on_c, 6, 59, 88
7, 234480, Note_on_c, 6, 69, 88
7, 234720, Note_on_c, 6, 69, 0
7, 234720, Note_on_c, 6, 59, 0
7, 234720, Note_on_c, 6, 60, 88
7, 234720, Note_on_c, 6, 69, 88
7, 235200, Note_on_c, 6, 69, 0
7, 235200, Note_on_c, 6, 67, 88
7, 235680, Note_on_c, 6, 67, 0
7, 235680, Note_on_c, 6, 60, 0
7, 241920, Note_on_c, 6, 53, 88
7, 242160, Note_on_c, 6, 53, 0
7, 242160, Note_on_c, 6, 48, 88
7, 242400, Note_on_c, 6, 48, 0
7, 242400, Note_on_c, 6, 57, 88
7, 242640, Note_on_c, 6, 57, 0
7, 242640, Note_on_c, 6, 48, 88
7, 242880, Note_on_c, 6, 48, 0
7, 242880, Note_on_c, 6, 53, 88
7, 243120, Note_on_c, 6, 53, 0
7, 243120, Note_on_c, 6, 48, 88
7, 243360, Note_on_c, 6, 48, 0
7, 243360, Note_on_c, 6, 36, 88
7, 243840, Note_on_c, 6, 36, 0
7, 244800, Note_on_c, 6, 65, 88
7, 245040, Note_on_c, 6, 65, 0
7, 245040, Note_on_c, 6, 64, 88
7, 245280, Note_on_c, 6, 64, 0
7, 245280, Note_on_c, 6, 65, 88
7, 245520, Note_on_c, 6, 65, 0
7, 245520, Note_on_c, 6, 67, 88
7, 245760, Note_on_c, 6, 67, 0
7, 245760, Note_on_c, 6, 68, 88
7, 246000, Note_on_c, 6, 68, 0
7, 246000, Note_on_c, 6, 69, 88
7, 246240, Note_on_c, 6, 69, 0
7, 246240, Note_on_c, 6, 67, 88
7, 246360, Note_on_c, 6, 67, 0
7, 246360, Note_on_c, 6, 65, 88
7, 246480, Note_on_c, 6, 65, 0
7, 246480, Note_on_c, 6, 64, 88
7, 246600, Note_on_c, 6, 64, 0
7, 246600, Note_on_c, 6, 65, 88
7, 246720, Note_on_c, 6, 65, 0
7, 246720, Note_on_c, 6, 64, 88
7, 247200, Note_on_c, 6, 64, 0
7, 251280, Note_on_c, 6, 48, 88
7, 251520, Note_on_c, 6, 48, 0
7, 251520, Note_on_c, 6, 60, 88
7, 251640, Note_on_c, 6, 60, 0
7, 251640, Note_on_c, 6, 58, 88
7, 251760, Note_on_c, 6, 58, 0
7, 251760, Note_on_c, 6, 57, 88
7, 251880, Note_on_c, 6, 57, 0
7, 251880, Note_on_c, 6, 55, 88
7, 252000, Note_on_c, 6, 55, 0
7, 252000, Note_on_c, 6, 53, 88
7, 252120, Note_on_c, 6, 53, 0
7, 252120, Note_on_c, 6, 55, 88
7, 252240, Note_on_c, 6, 55, 0
7, 252240, Note_on_c, 6, 52, 88
7, 252360, Note_on_c, 6, 52, 0
7, 252360, Note_on_c, 6, 55, 88
7, 252480, Note_on_c, 6, 55, 0
7, 252480, Note_on_c, 6, 53, 88
7, 252576, Note_on_c, 6, 53, 0
7, 252720, Note_on_c, 6, 53, 88
7, 252816, Note_on_c, 6, 53, 0
7, 252960, Note_on_c, 6, 55, 88
7, 253056, Note_on_c, 6, 55, 0
7, 253200, Note_on_c, 6, 55, 88
7, 253296, Note_on_c, 6, 55, 0
7, 253440, Note_on_c, 6, 53, 88
7, 253920, Note_on_c, 6, 53, 0
7, 257760, Note_on_c, 6, 69, 88
7, 257856, Note_on_c, 6, 69, 0
7, 258000, Note_on_c, 6, 67, 88
7, 258096, Note_on_c, 6, 67, 0
7, 258240, Note_on_c, 6, 65, 88
7, 258336, Note_on_c, 6, 65, 0
7, 258480, Note_on_c, 6, 64, 88
7, 258576, Note_on_c, 6, 64, 0
7, 258720, Note_on_c, 6, 62, 88
7, 258816, Note_on_c, 6, 62, 0
7, 258960, Note_on_c, 6, 60, 88
7, 259056, Note_on_c, 6, 60, 0
7, 259200, Note_on_c, 6, 58, 88
7, 259680, Note_on_c, 6, 58, 0
7, 260160, Note_on_c, 6, 58, 88
7, 260640, Note_on_c, 6, 58, 0
7, 260640, Note_on_c, 6, 57, 88
7, 260880, Note_on_c, 6, 57, 0
7, 260880, Note_on_c, 6, 58, 88
7, 261120, Note_on_c, 6, 58, 0
7, 261120, Note_on_c, 6, 60, 88
7, 261600, Note_on_c, 6, 60, 0
7, 261600, Note_on_c, 6, 48, 88
7, 262080, Note_on_c, 6, 48, 0
7, 262080, Note_on_c, 6, 29, 88
7, 262080, Note_on_c, 6, 41, 88
7, 262560, Note_on_c, 6, 41, 0
7, 262560, Note_on_c, 6, 29, 0
7, 263520, Note_on_c, 6, 29, 88
7, 263520, Note_on_c, 6, 41, 88
7, 264000, Note_on_c, 6, 41, 0
7, 264000, Note_on_c, 6, 29, 0
7, 264960, Note_on_c, 6, 29, 88
7, 264960, Note_on_c, 6, 41, 88
7, 265440, Note_on_c, 6, 41, 0
7, 265440, Note_on_c, 6, 29, 0
7, 266400, Note_on_c, 6, 29, 88
7, 266400, Note_on_c, 6, 41, 88
7, 266880, Note_on_c, 6, 41, 0
7, 266880, Note_on_c, 6, 29, 0
7, 267840, Note_on_c, 6, 53, 88
7, 268080, Note_on_c, 6, 53, 0
7, 268320, Note_on_c, 6, 53, 88
7, 268560, Note_on_c, 6, 53, 0
7, 268800, Note_on_c, 6, 53, 88
7, 269040, Note_on_c, 6, 53, 0
7, 269280, Note_on_c, 6, 65, 88
7, 269520, Note_on_c, 6, 65, 0
7, 269760, Note_on_c, 6, 65, 88
7, 270000, Note_on_c, 6, 65, 0
7, 270240, Note_on_c, 6, 65, 88
7, 270480, Note_on_c, 6, 65, 0
7, 270720, Note_on_c, 6, 65, 88
7, 270960, Note_on_c, 6, 65, 0
7, 271200, Note_on_c, 6, 65, 88
7, 271440, Note_on_c, 6, 65, 0
7, 271680, Note_on_c, 6, 65, 88
7, 271920, Note_on_c, 6, 65, 0
7, 272160, Note_on_c, 6, 65, 88
7, 272400, Note_on_c, 6, 65, 0
7, 272640, Note_on_c, 6, 65, 88
7, 272880, Note_on_c, 6, 65, 0
7, 273120, Note_on_c, 6, 65, 88
7, 273360, Note_on_c, 6, 65, 0
7, 273600, Note_on_c, 6, 65, 88
7, 274080, Note_on_c, 6, 65, 0
7, 278880, Note_on_c, 6, 48, 88
7, 278880, Note_on_c, 6, 58, 88
7, 279360, Note_on_c, 6, 58, 0
7, 279360, Note_on_c, 6, 48, 0
7, 279360, Note_on_c, 6, 53, 88
7, 279360, Note_on_c, 6, 57, 88
7, 279840, Note_on_c, 6, 57, 0
7, 279840, Note_on_c, 6, 53, 0
7, 279840, Note_on_c, 6, 41, 88
7, 280320, Note_on_c, 6, 41, 0
7, 280320, Note_on_c, 6, 50, 88
7, 280800, Note_on_c, 6, 50, 0
7, 280800, Note_on_c, 6, 46, 88
7, 281280, Note_on_c, 6, 46, 0
7, 281280, Note_on_c, 6, 58, 88
7, 281760, Note_on_c, 6, 58, 0
7, 281760, Note_on_c, 6, 48, 88
7, 282240, Note_on_c, 6, 48, 0
7, 282240, Note_on_c, 6, 45, 88
7, 282720, Note_on_c, 6, 45, 0
7, 282720, Note_on_c, 6, 57, 88
7, 283200, Note_on_c, 6, 57, 0
7, 283200, Note_on_c, 6, 53, 88
7, 283680, Note_on_c, 6, 53, 0
7, 283680, Note_on_c, 6, 46, 88
7, 284160, Note_on_c, 6, 46, 0
7, 284160, Note_on_c, 6, 58, 88
7, 284640, Note_on_c, 6, 58, 0
7, 284640, Note_on_c, 6, 48, 88
7, 285120, Note_on_c, 6, 48, 0
7, 285120, Note_on_c, 6, 41, 88
7, 285600, Note_on_c, 6, 41, 0
7, 285600, Note_on_c, 6, 53, 88
7, 286080, Note_on_c, 6, 53, 0
7, 286080, Note_on_c, 6, 50, 88
7, 286560, Note_on_c, 6, 50, 0
7, 286560, Note_on_c, 6, 46, 88
7, 287040, Note_on_c, 6, 46, 0
7, 287040, Note_on_c, 6, 58, 88
7, 287520, Note_on_c, 6, 58, 0
7, 287520, Note_on_c, 6, 48, 88
7, 288000, Note_on_c, 6, 48, 0
7, 288000, Note_on_c, 6, 45, 88
7, 288480, Note_on_c, 6, 45, 0
7, 288480, Note_on_c, 6, 57, 88
7, 288960, Note_on_c, 6, 57, 0
7, 288960, Note_on_c, 6, 50, 88
7, 289440, Note_on_c, 6, 50, 0
7, 289440, Note_on_c, 6, 46, 88
7, 289920, Note_on_c, 6, 46, 0
7, 289920, Note_on_c, 6, 58, 88
7, 290400, Note_on_c, 6, 58, 0
7, 290400, Note_on_c, 6, 48, 88
7, 290880, Note_on_c, 6, 48, 0
7, 290880, Note_on_c, 6, 53, 88
7, 291072, Note_on_c, 6, 53, 0
7, 291360, Note_on_c, 6, 45, 88
7, 291552, Note_on_c, 6, 45, 0
7, 291840, Note_on_c, 6, 48, 88
7, 292032, Note_on_c, 6, 48, 0
7, 292320, Note_on_c, 6, 53, 88
7, 292512, Note_on_c, 6, 53, 0
7, 292800, Note_on_c, 6, 57, 88
7, 292992, Note_on_c, 6, 57, 0
7, 293280, Note_on_c, 6, 60, 88
7, 293472, Note_on_c, 6, 60, 0
7, 293760, Note_on_c, 6, 65, 88
7, 294240, Note_on_c, 6, 65, 0
7, 303120, Note_on_c, 6, 36, 88
7, 303120, Note_on_c, 6, 40, 88
7, 303120, Note_on_c, 6, 43, 88
7, 303120, Note_on_c, 6, 46, 88
7, 304200, Note_on_c, 6, 46, 0
7, 304200, Note_on_c, 6, 36, 0
7, 304200, Note_on_c, 6, 40, 0
7, 304200, Note_on_c, 6, 43, 0
7, 309600, Note_on_c, 6, 53, 88
7, 310080, Note_on_c, 6, 53, 0
7, 310080, Note_on_c, 6, 41, 88
7, 310560, Note_on_c, 6, 41, 0
7, 311040, Note_on_c, 6, 60, 88
7, 311520, Note_on_c, 6, 60, 0
7, 311520, Note_on_c, 6, 61, 88
7, 312000, Note_on_c, 6, 61, 0
7, 312000, Note_on_c, 6, 62, 88
7, 312480, Note_on_c, 6, 62, 0
7, 312960, Note_on_c, 6, 43, 88
7, 313440, Note_on_c, 6, 43, 0
7, 313440, Note_on_c, 6, 41, 88
7, 313920, Note_on_c, 6, 41, 0
7, 313920, Note_on_c, 6, 40, 88
7, 314400, Note_on_c, 6, 40, 0
7, 314400, Note_on_c, 6, 36, 88
7, 314880, Note_on_c, 6, 36, 0
7, 314880, Note_on_c, 6, 38, 88
7, 315360, Note_on_c, 6, 38, 0
7, 315360, Note_on_c, 6, 46, 88
7, 315840, Note_on_c, 6, 46, 0
7, 315840, Note_on_c, 6, 45, 88
7, 316320, Note_on_c, 6, 45, 0
7, 316800, Note_on_c, 6, 58, 88
7, 317280, Note_on_c, 6, 58, 0
7, 317280, Note_on_c, 6, 57, 88
7, 317760, Note_on_c, 6, 57, 0
7, 318240, Note_on_c, 6, 67, 88
7, 318720, Note_on_c, 6, 67, 0
7, 318720, Note_on_c, 6, 60, 88
7, 319200, Note_on_c, 6, 60, 0
7, 319200, Note_on_c, 6, 60, 88
7, 319680, Note_on_c, 6, 60, 0
7, 319680, Note_on_c, 6, 66, 88
7, 319920, Note_on_c, 6, 66, 0
7, 320160, Note_on_c, 6, 62, 88
7, 320400, Note_on_c, 6, 62, 0
7, 320640, Note_on_c, 6, 59, 88
7, 320880, Note_on_c, 6, 59, 0
7, 320880, End_track
8, 0, Start_track
8, 0, Title_t, "Piano 3 Trebble"
8, 0, Control_c, 7, 0, 0
8, 0, Control_c, 7, 7, 100
8, 0, Control_c, 7, 10, 60
8, 0, Control_c, 7, 91, 73
8, 0, Control_c, 7, 93, 76
8, 1, Control_c, 7, 32, 1
8, 2, Program_c, 7, 0
8, 27519, Note_on_c, 7, 69, 88
8, 27680, Note_on_c, 7, 69, 0
8, 27680, Note_on_c, 7, 70, 88
8, 27840, Note_on_c, 7, 70, 0
8, 27840, Note_on_c, 7, 72, 88
8, 27999, Note_on_c, 7, 72, 0
8, 27999, Note_on_c, 7, 69, 88
8, 28160, Note_on_c, 7, 69, 0
8, 28160, Note_on_c, 7, 65, 88
8, 28320, Note_on_c, 7, 65, 0
8, 28320, Note_on_c, 7, 76, 88
8, 28479, Note_on_c, 7, 76, 0
8, 28479, Note_on_c, 7, 70, 88
8, 28640, Note_on_c, 7, 70, 0
8, 28640, Note_on_c, 7, 67, 88
8, 28800, Note_on_c, 7, 67, 0
8, 28800, Note_on_c, 7, 77, 88
8, 28959, Note_on_c, 7, 77, 0
8, 28959, Note_on_c, 7, 72, 88
8, 29120, Note_on_c, 7, 72, 0
8, 29120, Note_on_c, 7, 69, 88
8, 29280, Note_on_c, 7, 69, 0
8, 29280, Note_on_c, 7, 81, 88
8, 29439, Note_on_c, 7, 81, 0
8, 29439, Note_on_c, 7, 77, 88
8, 29600, Note_on_c, 7, 77, 0
8, 29600, Note_on_c, 7, 72, 88
8, 29760, Note_on_c, 7, 72, 0
8, 29760, Note_on_c, 7, 79, 88
8, 29919, Note_on_c, 7, 79, 0
8, 29919, Note_on_c, 7, 76, 88
8, 30080, Note_on_c, 7, 76, 0
8, 30080, Note_on_c, 7, 70, 88
8, 30240, Note_on_c, 7, 70, 0
8, 30240, Note_on_c, 7, 69, 88
8, 30240, Note_on_c, 7, 72, 88
8, 30240, Note_on_c, 7, 77, 88
8, 30720, Note_on_c, 7, 77, 0
8, 30720, Note_on_c, 7, 72, 0
8, 30720, Note_on_c, 7, 69, 0
8, 30720, Note_on_c, 7, 57, 88
8, 30720, Note_on_c, 7, 65, 88
8, 31200, Note_on_c, 7, 65, 0
8, 31200, Note_on_c, 7, 57, 0
8, 46080, Note_on_c, 7, 79, 88
8, 46560, Note_on_c, 7, 79, 0
8, 46560, Note_on_c, 7, 79, 88
8, 47040, Note_on_c, 7, 79, 0
8, 47040, Note_on_c, 7, 79, 88
8, 47520, Note_on_c, 7, 79, 0
8, 47520, Note_on_c, 7, 79, 88
8, 48000, Note_on_c, 7, 79, 0
8, 48000, Note_on_c, 7, 67, 88
8, 48480, Note_on_c, 7, 67, 0
8, 51840, Note_on_c, 7, 67, 88
8, 52320, Note_on_c, 7, 67, 0
8, 52320, Note_on_c, 7, 67, 88
8, 52800, Note_on_c, 7, 67, 0
8, 52800, Note_on_c, 7, 67, 88
8, 53280, Note_on_c, 7, 67, 0
8, 53280, Note_on_c, 7, 67, 88
8, 53760, Note_on_c, 7, 67, 0
8, 53760, Note_on_c, 7, 55, 88
8, 54240, Note_on_c, 7, 55, 0
8, 56880, Note_on_c, 7, 67, 88
8, 57120, Note_on_c, 7, 67, 0
8, 57120, Note_on_c, 7, 79, 88
8, 57240, Note_on_c, 7, 79, 0
8, 57240, Note_on_c, 7, 77, 88
8, 57360, Note_on_c, 7, 77, 0
8, 57360, Note_on_c, 7, 76, 88
8, 57480, Note_on_c, 7, 76, 0
8, 57480, Note_on_c, 7, 74, 88
8, 57600, Note_on_c, 7, 74, 0
8, 57600, Note_on_c, 7, 72, 88
8, 57720, Note_on_c, 7, 72, 0
8, 57720, Note_on_c, 7, 74, 88
8, 57840, Note_on_c, 7, 74, 0
8, 57840, Note_on_c, 7, 71, 88
8, 57960, Note_on_c, 7, 71, 0
8, 57960, Note_on_c, 7, 74, 88
8, 58007, Note_on_c, 7, 74, 0
8, 58080, Note_on_c, 7, 72, 88
8, 58176, Note_on_c, 7, 72, 0
8, 58320, Note_on_c, 7, 72, 88
8, 58416, Note_on_c, 7, 72, 0
8, 58560, Note_on_c, 7, 74, 88
8, 58656, Note_on_c, 7, 74, 0
8, 58800, Note_on_c, 7, 74, 88
8, 58896, Note_on_c, 7, 74, 0
8, 59040, Note_on_c, 7, 76, 88
8, 59160, Note_on_c, 7, 76, 0
8, 59160, Note_on_c, 7, 77, 88
8, 59280, Note_on_c, 7, 77, 0
8, 59280, Note_on_c, 7, 74, 88
8, 59400, Note_on_c, 7, 74, 0
8, 59400, Note_on_c, 7, 77, 88
8, 59447, Note_on_c, 7, 77, 0
8, 59520, Note_on_c, 7, 76, 88
8, 59616, Note_on_c, 7, 76, 0
8, 59760, Note_on_c, 7, 76, 88
8, 59856, Note_on_c, 7, 76, 0
8, 60000, Note_on_c, 7, 77, 88
8, 60096, Note_on_c, 7, 77, 0
8, 60240, Note_on_c, 7, 77, 88
8, 60336, Note_on_c, 7, 77, 0
8, 60480, Note_on_c, 7, 76, 88
8, 60960, Note_on_c, 7, 76, 0
8, 69240, Note_on_c, 7, 64, 88
8, 69360, Note_on_c, 7, 64, 0
8, 69360, Note_on_c, 7, 67, 88
8, 69480, Note_on_c, 7, 67, 0
8, 69480, Note_on_c, 7, 64, 88
8, 69600, Note_on_c, 7, 64, 0
8, 69720, Note_on_c, 7, 64, 88
8, 69840, Note_on_c, 7, 64, 0
8, 69840, Note_on_c, 7, 67, 88
8, 69960, Note_on_c, 7, 67, 0
8, 69960, Note_on_c, 7, 64, 88
8, 70080, Note_on_c, 7, 64, 0
8, 70200, Note_on_c, 7, 64, 88
8, 70320, Note_on_c, 7, 64, 0
8, 70320, Note_on_c, 7, 67, 88
8, 70440, Note_on_c, 7, 67, 0
8, 70440, Note_on_c, 7, 64, 88
8, 70560, Note_on_c, 7, 64, 0
8, 70680, Note_on_c, 7, 64, 88
8, 70800, Note_on_c, 7, 64, 0
8, 70800, Note_on_c, 7, 67, 88
8, 70920, Note_on_c, 7, 67, 0
8, 70920, Note_on_c, 7, 64, 88
8, 71040, Note_on_c, 7, 64, 0
8, 71160, Note_on_c, 7, 64, 88
8, 71280, Note_on_c, 7, 64, 0
8, 71280, Note_on_c, 7, 67, 88
8, 71400, Note_on_c, 7, 67, 0
8, 71400, Note_on_c, 7, 64, 88
8, 71520, Note_on_c, 7, 64, 0
8, 71640, Note_on_c, 7, 64, 88
8, 71760, Note_on_c, 7, 64, 0
8, 71760, Note_on_c, 7, 67, 88
8, 71880, Note_on_c, 7, 67, 0
8, 71880, Note_on_c, 7, 64, 88
8, 72000, Note_on_c, 7, 64, 0
8, 72120, Note_on_c, 7, 65, 88
8, 72240, Note_on_c, 7, 65, 0
8, 72240, Note_on_c, 7, 69, 88
8, 72360, Note_on_c, 7, 69, 0
8, 72360, Note_on_c, 7, 65, 88
8, 72480, Note_on_c, 7, 65, 0
8, 72600, Note_on_c, 7, 65, 88
8, 72720, Note_on_c, 7, 65, 0
8, 72720, Note_on_c, 7, 69, 88
8, 72840, Note_on_c, 7, 69, 0
8, 72840, Note_on_c, 7, 65, 88
8, 72960, Note_on_c, 7, 65, 0
8, 73080, Note_on_c, 7, 65, 88
8, 73200, Note_on_c, 7, 65, 0
8, 73200, Note_on_c, 7, 69, 88
8, 73320, Note_on_c, 7, 69, 0
8, 73320, Note_on_c, 7, 65, 88
8, 73440, Note_on_c, 7, 65, 0
8, 73560, Note_on_c, 7, 62, 88
8, 73680, Note_on_c, 7, 62, 0
8, 73680, Note_on_c, 7, 71, 88
8, 73800, Note_on_c, 7, 71, 0
8, 73800, Note_on_c, 7, 62, 88
8, 73920, Note_on_c, 7, 62, 0
8, 74040, Note_on_c, 7, 62, 88
8, 74160, Note_on_c, 7, 62, 0
8, 74160, Note_on_c, 7, 71, 88
8, 74280, Note_on_c, 7, 71, 0
8, 74280, Note_on_c, 7, 62, 88
8, 74400, Note_on_c, 7, 62, 0
8, 74520, Note_on_c, 7, 62, 88
8, 74640, Note_on_c, 7, 62, 0
8, 74640, Note_on_c, 7, 71, 88
8, 74760, Note_on_c, 7, 71, 0
8, 74760, Note_on_c, 7, 62, 88
8, 74880, Note_on_c, 7, 62, 0
8, 74880, Note_on_c, 7, 72, 88
8, 75120, Note_on_c, 7, 72, 0
8, 75120, Note_on_c, 7, 76, 88
8, 75360, Note_on_c, 7, 76, 0
8, 75360, Note_on_c, 7, 79, 88
8, 75600, Note_on_c, 7, 79, 0
8, 75600, Note_on_c, 7, 76, 88
8, 75840, Note_on_c, 7, 76, 0
8, 75840, Note_on_c, 7, 72, 88
8, 76080, Note_on_c, 7, 72, 0
8, 76080, Note_on_c, 7, 67, 88
8, 76320, Note_on_c, 7, 67, 0
8, 76320, Note_on_c, 7, 64, 88
8, 76560, Note_on_c, 7, 64, 0
8, 76560, Note_on_c, 7, 67, 88
8, 76800, Note_on_c, 7, 67, 0
8, 76800, Note_on_c, 7, 72, 88
8, 77040, Note_on_c, 7, 72, 0
8, 77040, Note_on_c, 7, 76, 88
8, 77280, Note_on_c, 7, 76, 0
8, 77280, Note_on_c, 7, 79, 88
8, 77520, Note_on_c, 7, 79, 0
8, 77520, Note_on_c, 7, 76, 88
8, 77760, Note_on_c, 7, 76, 0
8, 77760, Note_on_c, 7, 77, 88
8, 78000, Note_on_c, 7, 77, 0
8, 78000, Note_on_c, 7, 81, 88
8, 78240, Note_on_c, 7, 81, 0
8, 78240, Note_on_c, 7, 72, 88
8, 78480, Note_on_c, 7, 72, 0
8, 78480, Note_on_c, 7, 77, 88
8, 78720, Note_on_c, 7, 77, 0
8, 78720, Note_on_c, 7, 69, 88
8, 78960, Note_on_c, 7, 69, 0
8, 78960, Note_on_c, 7, 72, 88
8, 79200, Note_on_c, 7, 72, 0
8, 79200, Note_on_c, 7, 65, 88
8, 79440, Note_on_c, 7, 65, 0
8, 79440, Note_on_c, 7, 62, 88
8, 79680, Note_on_c, 7, 62, 0
8, 79680, Note_on_c, 7, 71, 88
8, 79920, Note_on_c, 7, 71, 0
8, 79920, Note_on_c, 7, 62, 88
8, 80160, Note_on_c, 7, 62, 0
8, 80160, Note_on_c, 7, 65, 88
8, 80400, Note_on_c, 7, 65, 0
8, 80400, Note_on_c, 7, 62, 88
8, 80640, Note_on_c, 7, 62, 0
8, 80640, Note_on_c, 7, 64, 88
8, 80640, Note_on_c, 7, 67, 88
8, 80640, Note_on_c, 7, 72, 88
8, 81120, Note_on_c, 7, 72, 0
8, 81120, Note_on_c, 7, 67, 0
8, 81120, Note_on_c, 7, 64, 0
8, 81120, Note_on_c, 7, 52, 88
8, 81600, Note_on_c, 7, 52, 0
8, 81600, Note_on_c, 7, 55, 88
8, 82080, Note_on_c, 7, 55, 0
8, 82080, Note_on_c, 7, 60, 88
8, 82560, Note_on_c, 7, 60, 0
8, 82560, Note_on_c, 7, 64, 88
8, 83040, Note_on_c, 7, 64, 0
8, 83040, Note_on_c, 7, 67, 88
8, 83520, Note_on_c, 7, 67, 0
8, 83520, Note_on_c, 7, 84, 88
8, 84000, Note_on_c, 7, 84, 0
8, 119679, Note_on_c, 7, 65, 88
8, 119840, Note_on_c, 7, 65, 0
8, 119840, Note_on_c, 7, 69, 88
8, 120000, Note_on_c, 7, 69, 0
8, 120000, Note_on_c, 7, 72, 88
8, 120159, Note_on_c, 7, 72, 0
8, 120159, Note_on_c, 7, 69, 88
8, 120320, Note_on_c, 7, 69, 0
8, 120320, Note_on_c, 7, 65, 88
8, 120480, Note_on_c, 7, 65, 0
8, 120480, Note_on_c, 7, 76, 88
8, 120639, Note_on_c, 7, 76, 0
8, 120639, Note_on_c, 7, 70, 88
8, 120800, Note_on_c, 7, 70, 0
8, 120800, Note_on_c, 7, 67, 88
8, 120960, Note_on_c, 7, 67, 0
8, 120960, Note_on_c, 7, 77, 88
8, 121119, Note_on_c, 7, 77, 0
8, 121119, Note_on_c, 7, 72, 88
8, 121280, Note_on_c, 7, 72, 0
8, 121280, Note_on_c, 7, 69, 88
8, 121440, Note_on_c, 7, 69, 0
8, 121440, Note_on_c, 7, 81, 88
8, 121599, Note_on_c, 7, 81, 0
8, 121599, Note_on_c, 7, 77, 88
8, 121760, Note_on_c, 7, 77, 0
8, 121760, Note_on_c, 7, 72, 88
8, 121920, Note_on_c, 7, 72, 0
8, 121920, Note_on_c, 7, 79, 88
8, 122079, Note_on_c, 7, 79, 0
8, 122079, Note_on_c, 7, 76, 88
8, 122240, Note_on_c, 7, 76, 0
8, 122240, Note_on_c, 7, 73, 88
8, 122400, Note_on_c, 7, 73, 0
8, 122400, Note_on_c, 7, 65, 88
8, 122400, Note_on_c, 7, 69, 88
8, 122400, Note_on_c, 7, 74, 88
8, 122880, Note_on_c, 7, 74, 0
8, 122880, Note_on_c, 7, 69, 0
8, 122880, Note_on_c, 7, 65, 0
8, 134040, Note_on_c, 7, 69, 88
8, 134160, Note_on_c, 7, 69, 0
8, 134160, Note_on_c, 7, 81, 88
8, 134280, Note_on_c, 7, 81, 0
8, 134280, Note_on_c, 7, 69, 88
8, 134400, Note_on_c, 7, 69, 0
8, 134520, Note_on_c, 7, 71, 88
8, 134640, Note_on_c, 7, 71, 0
8, 134640, Note_on_c, 7, 80, 88
8, 134760, Note_on_c, 7, 80, 0
8, 134760, Note_on_c, 7, 71, 88
8, 134880, Note_on_c, 7, 71, 0
8, 135000, Note_on_c, 7, 73, 88
8, 135120, Note_on_c, 7, 73, 0
8, 135120, Note_on_c, 7, 79, 88
8, 135240, Note_on_c, 7, 79, 0
8, 135240, Note_on_c, 7, 73, 88
8, 135360, Note_on_c, 7, 73, 0
8, 135480, Note_on_c, 7, 74, 88
8, 135600, Note_on_c, 7, 74, 0
8, 135600, Note_on_c, 7, 78, 88
8, 135720, Note_on_c, 7, 78, 0
8, 135720, Note_on_c, 7, 74, 88
8, 135840, Note_on_c, 7, 74, 0
8, 135960, Note_on_c, 7, 74, 88
8, 136080, Note_on_c, 7, 74, 0
8, 136080, Note_on_c, 7, 77, 88
8, 136200, Note_on_c, 7, 77, 0
8, 136200, Note_on_c, 7, 74, 88
8, 136320, Note_on_c, 7, 74, 0
8, 136440, Note_on_c, 7, 73, 88
8, 136560, Note_on_c, 7, 73, 0
8, 136560, Note_on_c, 7, 76, 88
8, 136680, Note_on_c, 7, 76, 0
8, 136680, Note_on_c, 7, 73, 88
8, 136800, Note_on_c, 7, 73, 0
8, 138720, Note_on_c, 7, 68, 88
8, 138720, Note_on_c, 7, 77, 88
8, 139200, Note_on_c, 7, 77, 0
8, 139200, Note_on_c, 7, 68, 0
8, 139200, Note_on_c, 7, 69, 88
8, 139200, Note_on_c, 7, 76, 88
8, 139680, Note_on_c, 7, 76, 0
8, 139680, Note_on_c, 7, 69, 0
8, 152640, Note_on_c, 7, 81, 88
8, 152880, Note_on_c, 7, 81, 0
8, 152880, Note_on_c, 7, 80, 88
8, 153120, Note_on_c, 7, 80, 0
8, 153120, Note_on_c, 7, 81, 88
8, 153360, Note_on_c, 7, 81, 0
8, 153360, Note_on_c, 7, 80, 88
8, 153600, Note_on_c, 7, 80, 0
8, 153600, Note_on_c, 7, 81, 88
8, 153840, Note_on_c, 7, 81, 0
8, 153840, Note_on_c, 7, 80, 88
8, 154080, Note_on_c, 7, 80, 0
8, 217440, Note_on_c, 7, 77, 88
8, 217503, Note_on_c, 7, 77, 0
8, 217599, Note_on_c, 7, 82, 88
8, 217664, Note_on_c, 7, 82, 0
8, 217760, Note_on_c, 7, 81, 88
8, 217823, Note_on_c, 7, 81, 0
8, 217920, Note_on_c, 7, 79, 88
8, 217983, Note_on_c, 7, 79, 0
8, 218079, Note_on_c, 7, 77, 88
8, 218144, Note_on_c, 7, 77, 0
8, 218240, Note_on_c, 7, 75, 88
8, 218303, Note_on_c, 7, 75, 0
8, 218400, Note_on_c, 7, 74, 88
8, 218463, Note_on_c, 7, 74, 0
8, 218559, Note_on_c, 7, 75, 88
8, 218624, Note_on_c, 7, 75, 0
8, 218720, Note_on_c, 7, 72, 88
8, 218783, Note_on_c, 7, 72, 0
8, 218880, Note_on_c, 7, 70, 88
8, 219780, Note_on_c, 7, 74, 88
8, 219840, Note_on_c, 7, 74, 0
8, 219840, Note_on_c, 7, 70, 0
8, 219840, Note_on_c, 7, 72, 88
8, 220320, Note_on_c, 7, 72, 0
8, 220320, Note_on_c, 7, 70, 88
8, 220479, Note_on_c, 7, 70, 0
8, 220479, Note_on_c, 7, 62, 88
8, 220640, Note_on_c, 7, 62, 0
8, 220640, Note_on_c, 7, 63, 88
8, 220800, Note_on_c, 7, 63, 0
8, 220800, Note_on_c, 7, 65, 88
8, 220959, Note_on_c, 7, 65, 0
8, 220959, Note_on_c, 7, 62, 88
8, 221120, Note_on_c, 7, 62, 0
8, 221120, Note_on_c, 7, 58, 88
8, 221280, Note_on_c, 7, 58, 0
8, 221280, Note_on_c, 7, 69, 88
8, 221439, Note_on_c, 7, 69, 0
8, 221439, Note_on_c, 7, 63, 88
8, 221600, Note_on_c, 7, 63, 0
8, 221600, Note_on_c, 7, 60, 88
8, 221760, Note_on_c, 7, 60, 0
8, 221760, Note_on_c, 7, 70, 88
8, 221919, Note_on_c, 7, 70, 0
8, 221919, Note_on_c, 7, 65, 88
8, 222080, Note_on_c, 7, 65, 0
8, 222080, Note_on_c, 7, 62, 88
8, 222240, Note_on_c, 7, 62, 0
8, 222240, Note_on_c, 7, 74, 88
8, 222399, Note_on_c, 7, 74, 0
8, 222399, Note_on_c, 7, 70, 88
8, 222560, Note_on_c, 7, 70, 0
8, 222560, Note_on_c, 7, 65, 88
8, 222720, Note_on_c, 7, 65, 0
8, 222720, Note_on_c, 7, 75, 88
8, 222879, Note_on_c, 7, 75, 0
8, 222879, Note_on_c, 7, 72, 88
8, 223040, Note_on_c, 7, 72, 0
8, 223040, Note_on_c, 7, 69, 88
8, 223200, Note_on_c, 7, 69, 0
8, 223200, Note_on_c, 7, 70, 88
8, 223680, Note_on_c, 7, 70, 0
8, 223680, Note_on_c, 7, 62, 88
8, 223680, Note_on_c, 7, 65, 88
8, 223680, Note_on_c, 7, 70, 88
8, 224160, Note_on_c, 7, 70, 0
8, 224160, Note_on_c, 7, 65, 0
8, 224160, Note_on_c, 7, 62, 0
8, 239040, Note_on_c, 7, 60, 88
8, 239520, Note_on_c, 7, 60, 0
8, 239520, Note_on_c, 7, 60, 88
8, 240000, Note_on_c, 7, 60, 0
8, 240000, Note_on_c, 7, 60, 88
8, 240480, Note_on_c, 7, 60, 0
8, 240480, Note_on_c, 7, 60, 88
8, 240960, Note_on_c, 7, 60, 0
8, 240960, Note_on_c, 7, 48, 88
8, 241440, Note_on_c, 7, 48, 0
8, 244800, Note_on_c, 7, 72, 88
8, 245280, Note_on_c, 7, 72, 0
8, 245280, Note_on_c, 7, 72, 88
8, 245760, Note_on_c, 7, 72, 0
8, 245760, Note_on_c, 7, 72, 88
8, 246240, Note_on_c, 7, 72, 0
8, 246240, Note_on_c, 7, 72, 88
8, 246720, Note_on_c, 7, 72, 0
8, 246720, Note_on_c, 7, 60, 88
8, 247200, Note_on_c, 7, 60, 0
8, 249840, Note_on_c, 7, 60, 88
8, 250080, Note_on_c, 7, 60, 0
8, 250080, Note_on_c, 7, 72, 88
8, 250200, Note_on_c, 7, 72, 0
8, 250200, Note_on_c, 7, 70, 88
8, 250320, Note_on_c, 7, 70, 0
8, 250320, Note_on_c, 7, 69, 88
8, 250440, Note_on_c, 7, 69, 0
8, 250440, Note_on_c, 7, 67, 88
8, 250560, Note_on_c, 7, 67, 0
8, 250560, Note_on_c, 7, 65, 88
8, 250680, Note_on_c, 7, 65, 0
8, 250680, Note_on_c, 7, 67, 88
8, 250800, Note_on_c, 7, 67, 0
8, 250800, Note_on_c, 7, 64, 88
8, 250920, Note_on_c, 7, 64, 0
8, 250920, Note_on_c, 7, 67, 88
8, 251040, Note_on_c, 7, 67, 0
8, 251040, Note_on_c, 7, 65, 88
8, 251280, Note_on_c, 7, 65, 0
8, 251280, Note_on_c, 7, 65, 88
8, 251520, Note_on_c, 7, 65, 0
8, 251520, Note_on_c, 7, 67, 88
8, 251760, Note_on_c, 7, 67, 0
8, 251760, Note_on_c, 7, 67, 88
8, 252000, Note_on_c, 7, 67, 0
8, 252000, Note_on_c, 7, 69, 88
8, 252120, Note_on_c, 7, 69, 0
8, 252120, Note_on_c, 7, 70, 88
8, 252240, Note_on_c, 7, 70, 0
8, 252240, Note_on_c, 7, 67, 88
8, 252360, Note_on_c, 7, 67, 0
8, 252360, Note_on_c, 7, 70, 88
8, 252480, Note_on_c, 7, 70, 0
8, 252480, Note_on_c, 7, 69, 88
8, 252576, Note_on_c, 7, 69, 0
8, 252720, Note_on_c, 7, 69, 88
8, 252816, Note_on_c, 7, 69, 0
8, 252960, Note_on_c, 7, 70, 88
8, 253056, Note_on_c, 7, 70, 0
8, 253200, Note_on_c, 7, 70, 88
8, 253296, Note_on_c, 7, 70, 0
8, 253440, Note_on_c, 7, 69, 88
8, 253920, Note_on_c, 7, 69, 0
8, 262200, Note_on_c, 7, 57, 88
8, 262320, Note_on_c, 7, 57, 0
8, 262320, Note_on_c, 7, 60, 88
8, 262440, Note_on_c, 7, 60, 0
8, 262440, Note_on_c, 7, 57, 88
8, 262560, Note_on_c, 7, 57, 0
8, 262680, Note_on_c, 7, 57, 88
8, 262800, Note_on_c, 7, 57, 0
8, 262800, Note_on_c, 7, 60, 88
8, 262920, Note_on_c, 7, 60, 0
8, 262920, Note_on_c, 7, 57, 88
8, 263040, Note_on_c, 7, 57, 0
8, 263160, Note_on_c, 7, 57, 88
8, 263280, Note_on_c, 7, 57, 0
8, 263280, Note_on_c, 7, 60, 88
8, 263400, Note_on_c, 7, 60, 0
8, 263400, Note_on_c, 7, 57, 88
8, 263520, Note_on_c, 7, 57, 0
8, 263640, Note_on_c, 7, 57, 88
8, 263760, Note_on_c, 7, 57, 0
8, 263760, Note_on_c, 7, 60, 88
8, 263880, Note_on_c, 7, 60, 0
8, 263880, Note_on_c, 7, 57, 88
8, 264000, Note_on_c, 7, 57, 0
8, 264120, Note_on_c, 7, 57, 88
8, 264240, Note_on_c, 7, 57, 0
8, 264240, Note_on_c, 7, 60, 88
8, 264360, Note_on_c, 7, 60, 0
8, 264360, Note_on_c, 7, 57, 88
8, 264480, Note_on_c, 7, 57, 0
8, 264600, Note_on_c, 7, 57, 88
8, 264720, Note_on_c, 7, 57, 0
8, 264720, Note_on_c, 7, 60, 88
8, 264840, Note_on_c, 7, 60, 0
8, 264840, Note_on_c, 7, 57, 88
8, 264960, Note_on_c, 7, 57, 0
8, 265080, Note_on_c, 7, 58, 88
8, 265200, Note_on_c, 7, 58, 0
8, 265200, Note_on_c, 7, 62, 88
8, 265320, Note_on_c, 7, 62, 0
8, 265320, Note_on_c, 7, 58, 88
8, 265440, Note_on_c, 7, 58, 0
8, 265560, Note_on_c, 7, 58, 88
8, 265680, Note_on_c, 7, 58, 0
8, 265680, Note_on_c, 7, 62, 88
8, 265800, Note_on_c, 7, 62, 0
8, 265800, Note_on_c, 7, 58, 88
8, 265920, Note_on_c, 7, 58, 0
8, 266040, Note_on_c, 7, 58, 88
8, 266160, Note_on_c, 7, 58, 0
8, 266160, Note_on_c, 7, 62, 88
8, 266280, Note_on_c, 7, 62, 0
8, 266280, Note_on_c, 7, 58, 88
8, 266400, Note_on_c, 7, 58, 0
8, 266520, Note_on_c, 7, 55, 88
8, 266640, Note_on_c, 7, 55, 0
8, 266640, Note_on_c, 7, 64, 88
8, 266760, Note_on_c, 7, 64, 0
8, 266760, Note_on_c, 7, 55, 88
8, 266880, Note_on_c, 7, 55, 0
8, 267000, Note_on_c, 7, 55, 88
8, 267120, Note_on_c, 7, 55, 0
8, 267120, Note_on_c, 7, 64, 88
8, 267240, Note_on_c, 7, 64, 0
8, 267240, Note_on_c, 7, 55, 88
8, 267360, Note_on_c, 7, 55, 0
8, 267480, Note_on_c, 7, 55, 88
8, 267600, Note_on_c, 7, 55, 0
8, 267600, Note_on_c, 7, 64, 88
8, 267720, Note_on_c, 7, 64, 0
8, 267720, Note_on_c, 7, 55, 88
8, 267840, Note_on_c, 7, 55, 0
8, 267840, Note_on_c, 7, 65, 88
8, 268080, Note_on_c, 7, 65, 0
8, 268080, Note_on_c, 7, 69, 88
8, 268320, Note_on_c, 7, 69, 0
8, 268320, Note_on_c, 7, 72, 88
8, 268560, Note_on_c, 7, 72, 0
8, 268560, Note_on_c, 7, 69, 88
8, 268800, Note_on_c, 7, 69, 0
8, 268800, Note_on_c, 7, 65, 88
8, 269040, Note_on_c, 7, 65, 0
8, 269040, Note_on_c, 7, 60, 88
8, 269280, Note_on_c, 7, 60, 0
8, 269280, Note_on_c, 7, 57, 88
8, 269520, Note_on_c, 7, 57, 0
8, 269520, Note_on_c, 7, 60, 88
8, 269760, Note_on_c, 7, 60, 0
8, 269760, Note_on_c, 7, 65, 88
8, 270000, Note_on_c, 7, 65, 0
8, 270000, Note_on_c, 7, 69, 88
8, 270240, Note_on_c, 7, 69, 0
8, 270240, Note_on_c, 7, 72, 88
8, 270480, Note_on_c, 7, 72, 0
8, 270480, Note_on_c, 7, 69, 88
8, 270720, Note_on_c, 7, 69, 0
8, 270720, Note_on_c, 7, 70, 88
8, 270960, Note_on_c, 7, 70, 0
8, 270960, Note_on_c, 7, 74, 88
8, 271200, Note_on_c, 7, 74, 0
8, 271200, Note_on_c, 7, 77, 88
8, 271440, Note_on_c, 7, 77, 0
8, 271440, Note_on_c, 7, 74, 88
8, 271680, Note_on_c, 7, 74, 0
8, 271680, Note_on_c, 7, 70, 88
8, 271920, Note_on_c, 7, 70, 0
8, 271920, Note_on_c, 7, 65, 88
8, 272160, Note_on_c, 7, 65, 0
8, 272160, Note_on_c, 7, 74, 88
8, 272400, Note_on_c, 7, 74, 0
8, 272400, Note_on_c, 7, 70, 88
8, 272640, Note_on_c, 7, 70, 0
8, 272640, Note_on_c, 7, 76, 88
8, 272880, Note_on_c, 7, 76, 0
8, 272880, Note_on_c, 7, 67, 88
8, 273120, Note_on_c, 7, 67, 0
8, 273120, Note_on_c, 7, 70, 88
8, 273360, Note_on_c, 7, 70, 0
8, 273360, Note_on_c, 7, 67, 88
8, 273600, Note_on_c, 7, 67, 0
8, 273600, Note_on_c, 7, 60, 88
8, 273600, Note_on_c, 7, 65, 88
8, 273600, Note_on_c, 7, 69, 88
8, 274080, Note_on_c, 7, 69, 0
8, 274080, Note_on_c, 7, 65, 0
8, 274080, Note_on_c, 7, 60, 0
8, 279360, Note_on_c, 7, 69, 88
8, 279519, Note_on_c, 7, 69, 0
8, 279519, Note_on_c, 7, 65, 88
8, 279680, Note_on_c, 7, 65, 0
8, 279680, Note_on_c, 7, 60, 88
8, 279840, Note_on_c, 7, 60, 0
8, 279840, Note_on_c, 7, 69, 88
8, 279999, Note_on_c, 7, 69, 0
8, 279999, Note_on_c, 7, 65, 88
8, 280160, Note_on_c, 7, 65, 0
8, 280160, Note_on_c, 7, 60, 88
8, 280320, Note_on_c, 7, 60, 0
8, 280320, Note_on_c, 7, 69, 88
8, 280479, Note_on_c, 7, 69, 0
8, 280479, Note_on_c, 7, 65, 88
8, 280640, Note_on_c, 7, 65, 0
8, 280640, Note_on_c, 7, 60, 88
8, 280800, Note_on_c, 7, 60, 0
8, 280800, Note_on_c, 7, 67, 88
8, 280959, Note_on_c, 7, 67, 0
8, 280959, Note_on_c, 7, 65, 88
8, 281120, Note_on_c, 7, 65, 0
8, 281120, Note_on_c, 7, 62, 88
8, 281280, Note_on_c, 7, 62, 0
8, 281280, Note_on_c, 7, 67, 88
8, 281439, Note_on_c, 7, 67, 0
8, 281439, Note_on_c, 7, 65, 88
8, 281600, Note_on_c, 7, 65, 0
8, 281600, Note_on_c, 7, 62, 88
8, 281760, Note_on_c, 7, 62, 0
8, 281760, Note_on_c, 7, 67, 88
8, 281919, Note_on_c, 7, 67, 0
8, 281919, Note_on_c, 7, 64, 88
8, 282080, Note_on_c, 7, 64, 0
8, 282080, Note_on_c, 7, 60, 88
8, 282240, Note_on_c, 7, 60, 0
8, 282240, Note_on_c, 7, 69, 88
8, 282399, Note_on_c, 7, 69, 0
8, 282399, Note_on_c, 7, 65, 88
8, 282560, Note_on_c, 7, 65, 0
8, 282560, Note_on_c, 7, 60, 88
8, 282720, Note_on_c, 7, 60, 0
8, 282720, Note_on_c, 7, 69, 88
8, 282879, Note_on_c, 7, 69, 0
8, 282879, Note_on_c, 7, 65, 88
8, 283040, Note_on_c, 7, 65, 0
8, 283040, Note_on_c, 7, 60, 88
8, 283200, Note_on_c, 7, 60, 0
8, 283200, Note_on_c, 7, 69, 88
8, 283359, Note_on_c, 7, 69, 0
8, 283359, Note_on_c, 7, 65, 88
8, 283520, Note_on_c, 7, 65, 0
8, 283520, Note_on_c, 7, 62, 88
8, 283680, Note_on_c, 7, 62, 0
8, 283680, Note_on_c, 7, 67, 88
8, 283839, Note_on_c, 7, 67, 0
8, 283839, Note_on_c, 7, 65, 88
8, 284000, Note_on_c, 7, 65, 0
8, 284000, Note_on_c, 7, 62, 88
8, 284160, Note_on_c, 7, 62, 0
8, 284160, Note_on_c, 7, 67, 88
8, 284319, Note_on_c, 7, 67, 0
8, 284319, Note_on_c, 7, 65, 88
8, 284480, Note_on_c, 7, 65, 0
8, 284480, Note_on_c, 7, 62, 88
8, 284640, Note_on_c, 7, 62, 0
8, 284640, Note_on_c, 7, 67, 88
8, 284799, Note_on_c, 7, 67, 0
8, 284799, Note_on_c, 7, 64, 88
8, 284960, Note_on_c, 7, 64, 0
8, 284960, Note_on_c, 7, 60, 88
8, 285120, Note_on_c, 7, 60, 0
8, 285120, Note_on_c, 7, 65, 88
8, 285279, Note_on_c, 7, 65, 0
8, 285279, Note_on_c, 7, 60, 88
8, 285440, Note_on_c, 7, 60, 0
8, 285440, Note_on_c, 7, 57, 88
8, 285600, Note_on_c, 7, 57, 0
8, 285600, Note_on_c, 7, 69, 88
8, 285759, Note_on_c, 7, 69, 0
8, 285759, Note_on_c, 7, 65, 88
8, 285920, Note_on_c, 7, 65, 0
8, 285920, Note_on_c, 7, 60, 88
8, 286080, Note_on_c, 7, 60, 0
8, 286080, Note_on_c, 7, 69, 88
8, 286239, Note_on_c, 7, 69, 0
8, 286239, Note_on_c, 7, 65, 88
8, 286400, Note_on_c, 7, 65, 0
8, 286400, Note_on_c, 7, 62, 88
8, 286560, Note_on_c, 7, 62, 0
8, 286560, Note_on_c, 7, 67, 88
8, 286719, Note_on_c, 7, 67, 0
8, 286719, Note_on_c, 7, 65, 88
8, 286880, Note_on_c, 7, 65, 0
8, 286880, Note_on_c, 7, 62, 88
8, 287040, Note_on_c, 7, 62, 0
8, 287040, Note_on_c, 7, 67, 88
8, 287199, Note_on_c, 7, 67, 0
8, 287199, Note_on_c, 7, 65, 88
8, 287360, Note_on_c, 7, 65, 0
8, 287360, Note_on_c, 7, 62, 88
8, 287520, Note_on_c, 7, 62, 0
8, 287520, Note_on_c, 7, 67, 88
8, 287679, Note_on_c, 7, 67, 0
8, 287679, Note_on_c, 7, 64, 88
8, 287840, Note_on_c, 7, 64, 0
8, 287840, Note_on_c, 7, 60, 88
8, 288000, Note_on_c, 7, 60, 0
8, 288000, Note_on_c, 7, 69, 88
8, 288159, Note_on_c, 7, 69, 0
8, 288159, Note_on_c, 7, 65, 88
8, 288320, Note_on_c, 7, 65, 0
8, 288320, Note_on_c, 7, 60, 88
8, 288480, Note_on_c, 7, 60, 0
8, 288480, Note_on_c, 7, 72, 88
8, 288639, Note_on_c, 7, 72, 0
8, 288639, Note_on_c, 7, 69, 88
8, 288800, Note_on_c, 7, 69, 0
8, 288800, Note_on_c, 7, 65, 88
8, 288960, Note_on_c, 7, 65, 0
8, 288960, Note_on_c, 7, 77, 88
8, 289119, Note_on_c, 7, 77, 0
8, 289119, Note_on_c, 7, 74, 88
8, 289280, Note_on_c, 7, 74, 0
8, 289280, Note_on_c, 7, 69, 88
8, 289440, Note_on_c, 7, 69, 0
8, 289440, Note_on_c, 7, 77, 88
8, 289599, Note_on_c, 7, 77, 0
8, 289599, Note_on_c, 7, 74, 88
8, 289760, Note_on_c, 7, 74, 0
8, 289760, Note_on_c, 7, 67, 88
8, 289920, Note_on_c, 7, 67, 0
8, 289920, Note_on_c, 7, 77, 88
8, 290079, Note_on_c, 7, 77, 0
8, 290079, Note_on_c, 7, 74, 88
8, 290240, Note_on_c, 7, 74, 0
8, 290240, Note_on_c, 7, 67, 88
8, 290400, Note_on_c, 7, 67, 0
8, 290400, Note_on_c, 7, 76, 88
8, 290559, Note_on_c, 7, 76, 0
8, 290559, Note_on_c, 7, 70, 88
8, 290720, Note_on_c, 7, 70, 0
8, 290720, Note_on_c, 7, 67, 88
8, 290880, Note_on_c, 7, 67, 0
8, 290880, Note_on_c, 7, 69, 88
8, 290880, Note_on_c, 7, 72, 88
8, 290880, Note_on_c, 7, 77, 88
8, 290947, Note_on_c, 7, 69, 0
8, 291009, Note_on_c, 7, 72, 0
8, 291072, Note_on_c, 7, 77, 0
8, 291360, Note_on_c, 7, 57, 88
8, 291552, Note_on_c, 7, 57, 0
8, 291840, Note_on_c, 7, 60, 88
8, 292032, Note_on_c, 7, 60, 0
8, 292320, Note_on_c, 7, 65, 88
8, 292512, Note_on_c, 7, 65, 0
8, 292800, Note_on_c, 7, 69, 88
8, 292992, Note_on_c, 7, 69, 0
8, 293280, Note_on_c, 7, 72, 88
8, 293472, Note_on_c, 7, 72, 0
8, 293760, Note_on_c, 7, 77, 88
8, 294240, Note_on_c, 7, 77, 0
8, 309600, Note_on_c, 7, 57, 88
8, 310239, Note_on_c, 7, 57, 0
8, 310239, Note_on_c, 7, 58, 88
8, 310400, Note_on_c, 7, 58, 0
8, 310400, Note_on_c, 7, 60, 88
8, 310560, Note_on_c, 7, 60, 0
8, 310560, Note_on_c, 7, 62, 88
8, 310719, Note_on_c, 7, 62, 0
8, 310719, Note_on_c, 7, 64, 88
8, 310880, Note_on_c, 7, 64, 0
8, 310880, Note_on_c, 7, 65, 88
8, 311040, Note_on_c, 7, 65, 0
8, 311040, Note_on_c, 7, 67, 88
8, 311520, Note_on_c, 7, 67, 0
8, 311520, Note_on_c, 7, 55, 88
8, 311520, Note_on_c, 7, 58, 88
8, 312000, Note_on_c, 7, 58, 0
8, 312000, Note_on_c, 7, 55, 0
8, 312000, Note_on_c, 7, 53, 88
8, 312000, Note_on_c, 7, 57, 88
8, 312480, Note_on_c, 7, 57, 0
8, 312480, Note_on_c, 7, 53, 0
8, 312480, Note_on_c, 7, 58, 88
8, 312720, Note_on_c, 7, 58, 0
8, 312720, Note_on_c, 7, 67, 88
8, 312960, Note_on_c, 7, 67, 0
8, 312960, Note_on_c, 7, 67, 88
8, 313680, Note_on_c, 7, 67, 0
8, 313680, Note_on_c, 7, 70, 88
8, 313920, Note_on_c, 7, 70, 0
8, 313920, Note_on_c, 7, 69, 88
8, 314400, Note_on_c, 7, 69, 0
8, 314400, Note_on_c, 7, 69, 88
8, 314460, Note_on_c, 7, 69, 0
8, 314460, Note_on_c, 7, 67, 88
8, 314520, Note_on_c, 7, 67, 0
8, 314520, Note_on_c, 7, 69, 88
8, 314580, Note_on_c, 7, 69, 0
8, 314580, Note_on_c, 7, 67, 88
8, 314640, Note_on_c, 7, 67, 0
8, 314640, Note_on_c, 7, 65, 88
8, 314760, Note_on_c, 7, 65, 0
8, 314760, Note_on_c, 7, 67, 88
8, 314880, Note_on_c, 7, 67, 0
8, 314880, Note_on_c, 7, 65, 88
8, 315280, Note_on_c, 7, 52, 88
8, 315320, Note_on_c, 7, 55, 88
8, 315360, Note_on_c, 7, 65, 0
8, 315360, Note_on_c, 7, 60, 88
8, 315760, Note_on_c, 7, 53, 88
8, 315800, Note_on_c, 7, 57, 88
8, 315840, Note_on_c, 7, 60, 0
8, 315840, Note_on_c, 7, 52, 0
8, 315840, Note_on_c, 7, 55, 0
8, 315840, Note_on_c, 7, 60, 88
8, 316320, Note_on_c, 7, 60, 0
8, 316320, Note_on_c, 7, 53, 0
8, 316320, Note_on_c, 7, 57, 0
8, 316720, Note_on_c, 7, 64, 88
8, 316760, Note_on_c, 7, 67, 88
8, 316800, Note_on_c, 7, 72, 88
8, 317200, Note_on_c, 7, 65, 88
8, 317240, Note_on_c, 7, 69, 88
8, 317280, Note_on_c, 7, 72, 0
8, 317280, Note_on_c, 7, 64, 0
8, 317280, Note_on_c, 7, 67, 0
8, 317280, Note_on_c, 7, 72, 88
8, 317760, Note_on_c, 7, 72, 0
8, 317760, Note_on_c, 7, 65, 0
8, 317760, Note_on_c, 7, 69, 0
8, 318240, Note_on_c, 7, 62, 88
8, 318240, Note_on_c, 7, 65, 88
8, 318720, Note_on_c, 7, 65, 0
8, 318720, Note_on_c, 7, 62, 0
8, 318720, Note_on_c, 7, 64, 88
8, 318720, Note_on_c, 7, 67, 88
8, 319200, Note_on_c, 7, 67, 0
8, 319200, Note_on_c, 7, 64, 0
8, 319200, Note_on_c, 7, 65, 88
8, 319200, Note_on_c, 7, 69, 88
8, 319680, Note_on_c, 7, 69, 0
8, 319680, Note_on_c, 7, 65, 0
8, 319680, Note_on_c, 7, 72, 88
8, 320160, Note_on_c, 7, 72, 0
8, 320160, Note_on_c, 7, 60, 88
8, 320640, Note_on_c, 7, 60, 0
8, 320640, End_track
9, 0, Start_track
9, 0, Title_t, "Piano 3 Bass"
9, 0, Control_c, 8, 0, 0
9, 0, Control_c, 8, 7, 90
9, 0, Control_c, 8, 10, 70
9, 0, Control_c, 8, 91, 82
9, 0, Control_c, 8, 93, 70
9, 1, Control_c, 8, 32, 1
9, 2, Program_c, 8, 0
9, 27360, Note_on_c, 8, 53, 88
9, 27840, Note_on_c, 8, 53, 0
9, 27840, Note_on_c, 8, 45, 88
9, 28320, Note_on_c, 8, 45, 0
9, 28320, Note_on_c, 8, 48, 88
9, 28800, Note_on_c, 8, 48, 0
9, 28800, Note_on_c, 8, 53, 88
9, 29280, Note_on_c, 8, 53, 0
9, 29280, Note_on_c, 8, 60, 88
9, 29760, Note_on_c, 8, 60, 0
9, 29760, Note_on_c, 8, 48, 88
9, 30240, Note_on_c, 8, 48, 0
9, 30240, Note_on_c, 8, 53, 88
9, 30720, Note_on_c, 8, 53, 0
9, 30720, Note_on_c, 8, 41, 88
9, 31200, Note_on_c, 8, 41, 0
9, 46080, Note_on_c, 8, 67, 88
9, 46560, Note_on_c, 8, 67, 0
9, 46560, Note_on_c, 8, 67, 88
9, 47040, Note_on_c, 8, 67, 0
9, 47040, Note_on_c, 8, 67, 88
9, 47520, Note_on_c, 8, 67, 0
9, 47520, Note_on_c, 8, 67, 88
9, 48000, Note_on_c, 8, 67, 0
9, 48000, Note_on_c, 8, 55, 88
9, 48480, Note_on_c, 8, 55, 0
9, 51840, Note_on_c, 8, 55, 88
9, 52320, Note_on_c, 8, 55, 0
9, 52320, Note_on_c, 8, 55, 88
9, 52800, Note_on_c, 8, 55, 0
9, 52800, Note_on_c, 8, 55, 88
9, 53280, Note_on_c, 8, 55, 0
9, 53280, Note_on_c, 8, 55, 88
9, 53760, Note_on_c, 8, 55, 0
9, 53760, Note_on_c, 8, 43, 88
9, 54240, Note_on_c, 8, 43, 0
9, 69120, Note_on_c, 8, 48, 88
9, 69360, Note_on_c, 8, 48, 0
9, 69600, Note_on_c, 8, 52, 88
9, 69840, Note_on_c, 8, 52, 0
9, 70080, Note_on_c, 8, 55, 88
9, 70320, Note_on_c, 8, 55, 0
9, 70560, Note_on_c, 8, 48, 88
9, 70800, Note_on_c, 8, 48, 0
9, 71040, Note_on_c, 8, 52, 88
9, 71280, Note_on_c, 8, 52, 0
9, 71520, Note_on_c, 8, 55, 88
9, 71760, Note_on_c, 8, 55, 0
9, 72000, Note_on_c, 8, 48, 88
9, 72240, Note_on_c, 8, 48, 0
9, 72480, Note_on_c, 8, 53, 88
9, 72720, Note_on_c, 8, 53, 0
9, 72960, Note_on_c, 8, 57, 88
9, 73200, Note_on_c, 8, 57, 0
9, 73440, Note_on_c, 8, 48, 88
9, 73680, Note_on_c, 8, 48, 0
9, 73920, Note_on_c, 8, 50, 88
9, 74160, Note_on_c, 8, 50, 0
9, 74400, Note_on_c, 8, 53, 88
9, 74640, Note_on_c, 8, 53, 0
9, 74880, Note_on_c, 8, 36, 88
9, 74880, Note_on_c, 8, 48, 88
9, 75360, Note_on_c, 8, 48, 0
9, 75360, Note_on_c, 8, 36, 0
9, 76320, Note_on_c, 8, 36, 88
9, 76320, Note_on_c, 8, 48, 88
9, 76800, Note_on_c, 8, 48, 0
9, 76800, Note_on_c, 8, 36, 0
9, 77760, Note_on_c, 8, 48, 88
9, 77760, Note_on_c, 8, 60, 88
9, 78240, Note_on_c, 8, 60, 0
9, 78240, Note_on_c, 8, 48, 0
9, 79200, Note_on_c, 8, 48, 88
9, 79200, Note_on_c, 8, 60, 88
9, 79680, Note_on_c, 8, 60, 0
9, 79680, Note_on_c, 8, 48, 0
9, 81120, Note_on_c, 8, 40, 88
9, 81600, Note_on_c, 8, 40, 0
9, 81600, Note_on_c, 8, 43, 88
9, 82080, Note_on_c, 8, 43, 0
9, 82080, Note_on_c, 8, 48, 88
9, 82560, Note_on_c, 8, 48, 0
9, 82560, Note_on_c, 8, 52, 88
9, 83040, Note_on_c, 8, 52, 0
9, 83040, Note_on_c, 8, 55, 88
9, 83520, Note_on_c, 8, 55, 0
9, 83520, Note_on_c, 8, 60, 88
9, 84000, Note_on_c, 8, 60, 0
9, 119520, Note_on_c, 8, 53, 88
9, 120000, Note_on_c, 8, 53, 0
9, 120000, Note_on_c, 8, 45, 88
9, 120480, Note_on_c, 8, 45, 0
9, 120480, Note_on_c, 8, 48, 88
9, 120960, Note_on_c, 8, 48, 0
9, 120960, Note_on_c, 8, 53, 88
9, 121440, Note_on_c, 8, 53, 0
9, 121440, Note_on_c, 8, 65, 88
9, 121920, Note_on_c, 8, 65, 0
9, 121920, Note_on_c, 8, 57, 88
9, 122400, Note_on_c, 8, 57, 0
9, 122400, Note_on_c, 8, 50, 88
9, 122880, Note_on_c, 8, 50, 0
9, 133920, Note_on_c, 8, 57, 88
9, 134400, Note_on_c, 8, 57, 0
9, 134400, Note_on_c, 8, 69, 88
9, 134880, Note_on_c, 8, 69, 0
9, 134880, Note_on_c, 8, 69, 88
9, 135360, Note_on_c, 8, 69, 0
9, 135360, Note_on_c, 8, 69, 88
9, 135840, Note_on_c, 8, 69, 0
9, 135840, Note_on_c, 8, 69, 88
9, 136320, Note_on_c, 8, 69, 0
9, 136320, Note_on_c, 8, 69, 88
9, 136800, Note_on_c, 8, 69, 0
9, 138720, Note_on_c, 8, 59, 88
9, 138720, Note_on_c, 8, 62, 88
9, 139200, Note_on_c, 8, 62, 0
9, 139200, Note_on_c, 8, 59, 0
9, 139200, Note_on_c, 8, 61, 88
9, 139200, Note_on_c, 8, 64, 88
9, 139680, Note_on_c, 8, 64, 0
9, 139680, Note_on_c, 8, 61, 0
9, 152640, Note_on_c, 8, 69, 88
9, 152880, Note_on_c, 8, 69, 0
9, 152880, Note_on_c, 8, 68, 88
9, 153120, Note_on_c, 8, 68, 0
9, 153120, Note_on_c, 8, 69, 88
9, 153360, Note_on_c, 8, 69, 0
9, 153360, Note_on_c, 8, 68, 88
9, 153600, Note_on_c, 8, 68, 0
9, 153600, Note_on_c, 8, 69, 88
9, 153840, Note_on_c, 8, 69, 0
9, 153840, Note_on_c, 8, 68, 88
9, 154080, Note_on_c, 8, 68, 0
9, 218880, Note_on_c, 8, 53, 88
9, 219039, Note_on_c, 8, 53, 0
9, 219039, Note_on_c, 8, 58, 88
9, 219200, Note_on_c, 8, 58, 0
9, 219200, Note_on_c, 8, 62, 88
9, 219360, Note_on_c, 8, 62, 0
9, 219360, Note_on_c, 8, 53, 88
9, 219519, Note_on_c, 8, 53, 0
9, 219519, Note_on_c, 8, 58, 88
9, 219680, Note_on_c, 8, 58, 0
9, 219680, Note_on_c, 8, 62, 88
9, 219840, Note_on_c, 8, 62, 0
9, 219840, Note_on_c, 8, 53, 88
9, 219999, Note_on_c, 8, 53, 0
9, 219999, Note_on_c, 8, 57, 88
9, 220160, Note_on_c, 8, 57, 0
9, 220160, Note_on_c, 8, 63, 88
9, 220320, Note_on_c, 8, 63, 0
9, 220320, Note_on_c, 8, 58, 88
9, 220320, Note_on_c, 8, 62, 88
9, 220800, Note_on_c, 8, 62, 0
9, 220800, Note_on_c, 8, 58, 0
9, 220800, Note_on_c, 8, 50, 88
9, 221280, Note_on_c, 8, 50, 0
9, 221280, Note_on_c, 8, 53, 88
9, 221760, Note_on_c, 8, 53, 0
9, 221760, Note_on_c, 8, 58, 88
9, 222240, Note_on_c, 8, 58, 0
9, 222240, Note_on_c, 8, 65, 88
9, 222720, Note_on_c, 8, 65, 0
9, 222720, Note_on_c, 8, 53, 88
9, 223200, Note_on_c, 8, 53, 0
9, 223200, Note_on_c, 8, 58, 88
9, 223680, Note_on_c, 8, 58, 0
9, 223680, Note_on_c, 8, 46, 88
9, 224160, Note_on_c, 8, 46, 0
9, 239040, Note_on_c, 8, 48, 88
9, 239520, Note_on_c, 8, 48, 0
9, 239520, Note_on_c, 8, 48, 88
9, 240000, Note_on_c, 8, 48, 0
9, 240000, Note_on_c, 8, 48, 88
9, 240480, Note_on_c, 8, 48, 0
9, 240480, Note_on_c, 8, 48, 88
9, 240960, Note_on_c, 8, 48, 0
9, 240960, Note_on_c, 8, 36, 88
9, 241440, Note_on_c, 8, 36, 0
9, 244800, Note_on_c, 8, 60, 88
9, 245280, Note_on_c, 8, 60, 0
9, 245280, Note_on_c, 8, 60, 88
9, 245760, Note_on_c, 8, 60, 0
9, 245760, Note_on_c, 8, 60, 88
9, 246240, Note_on_c, 8, 60, 0
9, 246240, Note_on_c, 8, 60, 88
9, 246720, Note_on_c, 8, 60, 0
9, 246720, Note_on_c, 8, 48, 88
9, 247200, Note_on_c, 8, 48, 0
9, 262080, Note_on_c, 8, 41, 88
9, 262320, Note_on_c, 8, 41, 0
9, 262560, Note_on_c, 8, 45, 88
9, 262800, Note_on_c, 8, 45, 0
9, 263040, Note_on_c, 8, 48, 88
9, 263280, Note_on_c, 8, 48, 0
9, 263520, Note_on_c, 8, 41, 88
9, 263760, Note_on_c, 8, 41, 0
9, 264000, Note_on_c, 8, 45, 88
9, 264240, Note_on_c, 8, 45, 0
9, 264480, Note_on_c, 8, 48, 88
9, 264720, Note_on_c, 8, 48, 0
9, 264960, Note_on_c, 8, 41, 88
9, 265200, Note_on_c, 8, 41, 0
9, 265440, Note_on_c, 8, 46, 88
9, 265680, Note_on_c, 8, 46, 0
9, 265920, Note_on_c, 8, 50, 88
9, 266160, Note_on_c, 8, 50, 0
9, 266400, Note_on_c, 8, 41, 88
9, 266640, Note_on_c, 8, 41, 0
9, 266880, Note_on_c, 8, 43, 88
9, 267120, Note_on_c, 8, 43, 0
9, 267360, Note_on_c, 8, 46, 88
9, 267600, Note_on_c, 8, 46, 0
9, 267840, Note_on_c, 8, 29, 88
9, 267840, Note_on_c, 8, 41, 88
9, 268320, Note_on_c, 8, 41, 0
9, 268320, Note_on_c, 8, 29, 0
9, 269280, Note_on_c, 8, 29, 88
9, 269280, Note_on_c, 8, 41, 88
9, 269760, Note_on_c, 8, 41, 0
9, 269760, Note_on_c, 8, 29, 0
9, 270720, Note_on_c, 8, 29, 88
9, 270720, Note_on_c, 8, 41, 88
9, 271200, Note_on_c, 8, 41, 0
9, 271200, Note_on_c, 8, 29, 0
9, 272160, Note_on_c, 8, 29, 88
9, 272160, Note_on_c, 8, 41, 88
9, 272640, Note_on_c, 8, 41, 0
9, 272640, Note_on_c, 8, 29, 0
9, 273600, Note_on_c, 8, 29, 88
9, 273600, Note_on_c, 8, 41, 88
9, 274080, Note_on_c, 8, 41, 0
9, 274080, Note_on_c, 8, 29, 0
9, 280320, Note_on_c, 8, 50, 88
9, 280800, Note_on_c, 8, 50, 0
9, 280800, Note_on_c, 8, 46, 88
9, 281760, Note_on_c, 8, 46, 0
9, 281760, Note_on_c, 8, 48, 88
9, 282240, Note_on_c, 8, 48, 0
9, 282240, Note_on_c, 8, 45, 88
9, 283200, Note_on_c, 8, 45, 0
9, 283200, Note_on_c, 8, 50, 88
9, 283680, Note_on_c, 8, 50, 0
9, 283680, Note_on_c, 8, 46, 88
9, 284640, Note_on_c, 8, 46, 0
9, 284640, Note_on_c, 8, 48, 88
9, 285120, Note_on_c, 8, 48, 0
9, 285120, Note_on_c, 8, 41, 88
9, 286080, Note_on_c, 8, 41, 0
9, 286080, Note_on_c, 8, 50, 88
9, 286560, Note_on_c, 8, 50, 0
9, 286560, Note_on_c, 8, 46, 88
9, 287520, Note_on_c, 8, 46, 0
9, 287520, Note_on_c, 8, 48, 88
9, 288000, Note_on_c, 8, 48, 0
9, 288000, Note_on_c, 8, 45, 88
9, 288960, Note_on_c, 8, 45, 0
9, 288960, Note_on_c, 8, 50, 88
9, 289440, Note_on_c, 8, 50, 0
9, 289440, Note_on_c, 8, 46, 88
9, 290400, Note_on_c, 8, 46, 0
9, 290400, Note_on_c, 8, 48, 88
9, 290880, Note_on_c, 8, 48, 0
9, 290880, Note_on_c, 8, 41, 88
9, 291072, Note_on_c, 8, 41, 0
9, 291360, Note_on_c, 8, 33, 88
9, 291552, Note_on_c, 8, 33, 0
9, 291840, Note_on_c, 8, 36, 88
9, 292032, Note_on_c, 8, 36, 0
9, 292320, Note_on_c, 8, 41, 88
9, 292512, Note_on_c, 8, 41, 0
9, 292800, Note_on_c, 8, 45, 88
9, 292992, Note_on_c, 8, 45, 0
9, 293280, Note_on_c, 8, 48, 88
9, 293472, Note_on_c, 8, 48, 0
9, 293760, Note_on_c, 8, 53, 88
9, 294240, Note_on_c, 8, 53, 0
9, 309600, Note_on_c, 8, 53, 88
9, 310080, Note_on_c, 8, 53, 0
9, 310080, Note_on_c, 8, 41, 88
9, 310560, Note_on_c, 8, 41, 0
9, 311040, Note_on_c, 8, 48, 88
9, 311520, Note_on_c, 8, 48, 0
9, 311520, Note_on_c, 8, 49, 88
9, 312000, Note_on_c, 8, 49, 0
9, 312000, Note_on_c, 8, 50, 88
9, 312480, Note_on_c, 8, 50, 0
9, 312960, Note_on_c, 8, 55, 88
9, 313440, Note_on_c, 8, 55, 0
9, 313440, Note_on_c, 8, 53, 88
9, 313920, Note_on_c, 8, 53, 0
9, 313920, Note_on_c, 8, 52, 88
9, 314400, Note_on_c, 8, 52, 0
9, 314400, Note_on_c, 8, 48, 88
9, 314880, Note_on_c, 8, 48, 0
9, 314880, Note_on_c, 8, 53, 88
9, 315300, Note_on_c, 8, 34, 88
9, 315360, Note_on_c, 8, 53, 0
9, 315360, Note_on_c, 8, 46, 88
9, 315780, Note_on_c, 8, 33, 88
9, 315840, Note_on_c, 8, 46, 0
9, 315840, Note_on_c, 8, 34, 0
9, 315840, Note_on_c, 8, 45, 88
9, 316320, Note_on_c, 8, 45, 0
9, 316320, Note_on_c, 8, 33, 0
9, 316740, Note_on_c, 8, 46, 88
9, 316800, Note_on_c, 8, 58, 88
9, 317220, Note_on_c, 8, 45, 88
9, 317280, Note_on_c, 8, 58, 0
9, 317280, Note_on_c, 8, 46, 0
9, 317280, Note_on_c, 8, 57, 88
9, 317760, Note_on_c, 8, 57, 0
9, 317760, Note_on_c, 8, 45, 0
9, 318240, Note_on_c, 8, 55, 88
9, 318720, Note_on_c, 8, 55, 0
9, 318720, Note_on_c, 8, 48, 88
9, 319200, Note_on_c, 8, 48, 0
9, 319200, Note_on_c, 8, 53, 88
9, 319680, Note_on_c, 8, 53, 0
9, 319680, Note_on_c, 8, 48, 88
9, 319680, Note_on_c, 8, 60, 88
9, 320160, Note_on_c, 8, 60, 0
9, 320160, Note_on_c, 8, 48, 0
9, 320160, Note_on_c, 8, 36, 88
9, 320160, Note_on_c, 8, 48, 88
9, 320640, Note_on_c, 8, 48, 0
9, 320640, Note_on_c, 8, 36, 0
9, 320640, End_track
10, 0, Start_track
10, 0, Title_t, "Violin I"
10, 0, Control_c, 10, 0, 0
10, 0, Control_c, 10, 7, 100
10, 0, Control_c, 10, 10, 30
10, 0, Control_c, 10, 91, 76
10, 0, Control_c, 10, 93, 76
10, 1, Control_c, 10, 32, 1
10, 2, Program_c, 10, 48
10, 11520, Note_on_c, 10, 72, 83
10, 12159, Note_on_c, 10, 74, 81
10, 12180, Note_on_c, 10, 72, 0
10, 12320, Note_on_c, 10, 76, 87
10, 12360, Note_on_c, 10, 74, 0
10, 12444, Note_on_c, 10, 76, 0
10, 12480, Note_on_c, 10, 77, 92
10, 12639, Note_on_c, 10, 79, 97
10, 12692, Note_on_c, 10, 77, 0
10, 12800, Note_on_c, 10, 81, 103
10, 12844, Note_on_c, 10, 79, 0
10, 12912, Note_on_c, 10, 81, 0
10, 12960, Note_on_c, 10, 82, 88
10, 13440, Note_on_c, 10, 76, 81
10, 13520, Note_on_c, 10, 82, 0
10, 13820, Note_on_c, 10, 76, 0
10, 13920, Note_on_c, 10, 77, 88
10, 14400, Note_on_c, 10, 77, 0
10, 14400, Note_on_c, 10, 79, 93
10, 14880, Note_on_c, 10, 70, 88
10, 14944, Note_on_c, 10, 79, 0
10, 15284, Note_on_c, 10, 70, 0
10, 15360, Note_on_c, 10, 70, 88
10, 15600, Note_on_c, 10, 74, 80
10, 15632, Note_on_c, 10, 70, 0
10, 15812, Note_on_c, 10, 74, 0
10, 15840, Note_on_c, 10, 72, 88
10, 16292, Note_on_c, 10, 72, 0
10, 16320, Note_on_c, 10, 72, 87
10, 16380, Note_on_c, 10, 70, 83
10, 16410, Note_on_c, 10, 72, 0
10, 16440, Note_on_c, 10, 72, 83
10, 16470, Note_on_c, 10, 70, 0
10, 16500, Note_on_c, 10, 70, 82
10, 16530, Note_on_c, 10, 72, 0
10, 16560, Note_on_c, 10, 69, 83
10, 16590, Note_on_c, 10, 70, 0
10, 16680, Note_on_c, 10, 70, 82
10, 16724, Note_on_c, 10, 69, 0
10, 16800, Note_on_c, 10, 69, 88
10, 16864, Note_on_c, 10, 70, 0
10, 17220, Note_on_c, 10, 69, 0
10, 17280, Note_on_c, 10, 67, 88
10, 17439, Note_on_c, 10, 67, 0
10, 17439, Note_on_c, 10, 74, 99
10, 17600, Note_on_c, 10, 74, 0
10, 17600, Note_on_c, 10, 72, 103
10, 17663, Note_on_c, 10, 72, 0
10, 17760, Note_on_c, 10, 70, 102
10, 17823, Note_on_c, 10, 70, 0
10, 17919, Note_on_c, 10, 69, 100
10, 17984, Note_on_c, 10, 69, 0
10, 18080, Note_on_c, 10, 67, 98
10, 18143, Note_on_c, 10, 67, 0
10, 18240, Note_on_c, 10, 65, 97
10, 18303, Note_on_c, 10, 65, 0
10, 18399, Note_on_c, 10, 64, 95
10, 18464, Note_on_c, 10, 64, 0
10, 18560, Note_on_c, 10, 62, 93
10, 18623, Note_on_c, 10, 62, 0
10, 18720, Note_on_c, 10, 60, 91
10, 18960, Note_on_c, 10, 59, 78
10, 18984, Note_on_c, 10, 60, 0
10, 19056, Note_on_c, 10, 59, 0
10, 19200, Note_on_c, 10, 58, 88
10, 19680, Note_on_c, 10, 57, 84
10, 19720, Note_on_c, 10, 58, 0
10, 19872, Note_on_c, 10, 57, 0
10, 20160, Note_on_c, 10, 55, 88
10, 20520, Note_on_c, 10, 55, 0
10, 20520, Note_on_c, 10, 74, 80
10, 20640, Note_on_c, 10, 74, 0
10, 20640, Note_on_c, 10, 72, 88
10, 21120, Note_on_c, 10, 72, 0
10, 21120, Note_on_c, 10, 55, 88
10, 21120, Note_on_c, 10, 64, 88
10, 21600, Note_on_c, 10, 64, 0
10, 21600, Note_on_c, 10, 55, 0
10, 21600, Note_on_c, 10, 57, 78
10, 21600, Note_on_c, 10, 65, 78
10, 22080, Note_on_c, 10, 65, 0
10, 22080, Note_on_c, 10, 57, 0
10, 27840, Note_on_c, 10, 72, 75
10, 28320, Note_on_c, 10, 76, 68
10, 28384, Note_on_c, 10, 72, 0
10, 28712, Note_on_c, 10, 76, 0
10, 28800, Note_on_c, 10, 77, 75
10, 29280, Note_on_c, 10, 77, 0
10, 29280, Note_on_c, 10, 81, 88
10, 29760, Note_on_c, 10, 79, 80
10, 29820, Note_on_c, 10, 81, 0
10, 30160, Note_on_c, 10, 79, 0
10, 30240, Note_on_c, 10, 77, 88
10, 30720, Note_on_c, 10, 77, 0
10, 30720, Note_on_c, 10, 57, 88
10, 30720, Note_on_c, 10, 65, 88
10, 31200, Note_on_c, 10, 65, 0
10, 31200, Note_on_c, 10, 57, 0
10, 69120, Note_on_c, 10, 64, 67
10, 72000, Note_on_c, 10, 64, 0
10, 72000, Note_on_c, 10, 65, 66
10, 73440, Note_on_c, 10, 65, 0
10, 73440, Note_on_c, 10, 55, 67
10, 73440, Note_on_c, 10, 65, 67
10, 74880, Note_on_c, 10, 65, 0
10, 74880, Note_on_c, 10, 55, 0
10, 74880, Note_on_c, 10, 55, 67
10, 74880, Note_on_c, 10, 64, 67
10, 75120, Note_on_c, 10, 64, 0
10, 75120, Note_on_c, 10, 55, 0
10, 75360, Note_on_c, 10, 64, 68
10, 75600, Note_on_c, 10, 64, 0
10, 75840, Note_on_c, 10, 67, 67
10, 76080, Note_on_c, 10, 67, 0
10, 76320, Note_on_c, 10, 60, 67
10, 76560, Note_on_c, 10, 60, 0
10, 76800, Note_on_c, 10, 64, 67
10, 77040, Note_on_c, 10, 64, 0
10, 77280, Note_on_c, 10, 67, 67
10, 77520, Note_on_c, 10, 67, 0
10, 77760, Note_on_c, 10, 60, 67
10, 78000, Note_on_c, 10, 60, 0
10, 78240, Note_on_c, 10, 65, 67
10, 78480, Note_on_c, 10, 65, 0
10, 78720, Note_on_c, 10, 69, 67
10, 78960, Note_on_c, 10, 69, 0
10, 79200, Note_on_c, 10, 60, 67
10, 79440, Note_on_c, 10, 60, 0
10, 79680, Note_on_c, 10, 62, 67
10, 79920, Note_on_c, 10, 62, 0
10, 80160, Note_on_c, 10, 65, 68
10, 80400, Note_on_c, 10, 65, 0
10, 80640, Note_on_c, 10, 64, 68
10, 81120, Note_on_c, 10, 64, 0
10, 81120, Note_on_c, 10, 64, 70
10, 81600, Note_on_c, 10, 64, 0
10, 81600, Note_on_c, 10, 67, 79
10, 82080, Note_on_c, 10, 67, 0
10, 82080, Note_on_c, 10, 72, 87
10, 82560, Note_on_c, 10, 72, 0
10, 82560, Note_on_c, 10, 76, 88
10, 83040, Note_on_c, 10, 76, 0
10, 83040, Note_on_c, 10, 79, 88
10, 83520, Note_on_c, 10, 79, 0
10, 83520, Note_on_c, 10, 84, 79
10, 84000, Note_on_c, 10, 84, 0
10, 103680, Note_on_c, 10, 72, 79
10, 104319, Note_on_c, 10, 74, 72
10, 104392, Note_on_c, 10, 72, 0
10, 104480, Note_on_c, 10, 76, 75
10, 104530, Note_on_c, 10, 74, 0
10, 104576, Note_on_c, 10, 76, 0
10, 104640, Note_on_c, 10, 77, 78
10, 104799, Note_on_c, 10, 79, 82
10, 104848, Note_on_c, 10, 77, 0
10, 104960, Note_on_c, 10, 81, 85
10, 105010, Note_on_c, 10, 79, 0
10, 105080, Note_on_c, 10, 81, 0
10, 105120, Note_on_c, 10, 82, 88
10, 105600, Note_on_c, 10, 82, 0
10, 105600, Note_on_c, 10, 76, 74
10, 106080, Note_on_c, 10, 76, 0
10, 106080, Note_on_c, 10, 77, 88
10, 106560, Note_on_c, 10, 77, 0
10, 106560, Note_on_c, 10, 79, 88
10, 106800, Note_on_c, 10, 70, 71
10, 106832, Note_on_c, 10, 79, 0
10, 106944, Note_on_c, 10, 70, 0
10, 107040, Note_on_c, 10, 70, 88
10, 107480, Note_on_c, 10, 70, 0
10, 107520, Note_on_c, 10, 70, 88
10, 107760, Note_on_c, 10, 74, 74
10, 107824, Note_on_c, 10, 70, 0
10, 107936, Note_on_c, 10, 74, 0
10, 108000, Note_on_c, 10, 72, 88
10, 108480, Note_on_c, 10, 72, 0
10, 108480, Note_on_c, 10, 72, 82
10, 108540, Note_on_c, 10, 70, 86
10, 108583, Note_on_c, 10, 72, 0
10, 108600, Note_on_c, 10, 72, 87
10, 108643, Note_on_c, 10, 70, 0
10, 108660, Note_on_c, 10, 70, 83
10, 108703, Note_on_c, 10, 72, 0
10, 108720, Note_on_c, 10, 69, 87
10, 108763, Note_on_c, 10, 70, 0
10, 108840, Note_on_c, 10, 70, 85
10, 108877, Note_on_c, 10, 69, 0
10, 108960, Note_on_c, 10, 69, 88
10, 108997, Note_on_c, 10, 70, 0
10, 109440, Note_on_c, 10, 69, 0
10, 109440, Note_on_c, 10, 67, 77
10, 109599, Note_on_c, 10, 74, 88
10, 109616, Note_on_c, 10, 67, 0
10, 109760, Note_on_c, 10, 72, 78
10, 109792, Note_on_c, 10, 74, 0
10, 109823, Note_on_c, 10, 72, 0
10, 109920, Note_on_c, 10, 70, 88
10, 109983, Note_on_c, 10, 70, 0
10, 110079, Note_on_c, 10, 69, 88
10, 110144, Note_on_c, 10, 69, 0
10, 110240, Note_on_c, 10, 67, 88
10, 110303, Note_on_c, 10, 67, 0
10, 110400, Note_on_c, 10, 65, 88
10, 110463, Note_on_c, 10, 65, 0
10, 110559, Note_on_c, 10, 64, 88
10, 110624, Note_on_c, 10, 64, 0
10, 110720, Note_on_c, 10, 62, 88
10, 110783, Note_on_c, 10, 62, 0
10, 110880, Note_on_c, 10, 60, 88
10, 111120, Note_on_c, 10, 59, 76
10, 111170, Note_on_c, 10, 60, 0
10, 111216, Note_on_c, 10, 59, 0
10, 111360, Note_on_c, 10, 58, 88
10, 111840, Note_on_c, 10, 57, 79
10, 111896, Note_on_c, 10, 58, 0
10, 112162, Note_on_c, 10, 57, 0
10, 112320, Note_on_c, 10, 55, 88
10, 112680, Note_on_c, 10, 55, 0
10, 112680, Note_on_c, 10, 74, 88
10, 112800, Note_on_c, 10, 74, 0
10, 112800, Note_on_c, 10, 72, 88
10, 113280, Note_on_c, 10, 72, 0
10, 113280, Note_on_c, 10, 55, 88
10, 113280, Note_on_c, 10, 64, 88
10, 113760, Note_on_c, 10, 64, 0
10, 113760, Note_on_c, 10, 55, 0
10, 113760, Note_on_c, 10, 57, 88
10, 113760, Note_on_c, 10, 65, 88
10, 114240, Note_on_c, 10, 65, 0
10, 114240, Note_on_c, 10, 57, 0
10, 120000, Note_on_c, 10, 72, 75
10, 120480, Note_on_c, 10, 76, 75
10, 120568, Note_on_c, 10, 72, 0
10, 120800, Note_on_c, 10, 76, 0
10, 120960, Note_on_c, 10, 77, 75
10, 121440, Note_on_c, 10, 77, 0
10, 121440, Note_on_c, 10, 84, 82
10, 121920, Note_on_c, 10, 85, 84
10, 121984, Note_on_c, 10, 84, 0
10, 122248, Note_on_c, 10, 85, 0
10, 122400, Note_on_c, 10, 86, 76
10, 122880, Note_on_c, 10, 86, 0
10, 123840, Note_on_c, 10, 82, 75
10, 124320, Note_on_c, 10, 82, 0
10, 128160, Note_on_c, 10, 81, 75
10, 128640, Note_on_c, 10, 81, 0
10, 129600, Note_on_c, 10, 82, 75
10, 130080, Note_on_c, 10, 82, 0
10, 133200, Note_on_c, 10, 69, 88
10, 133296, Note_on_c, 10, 69, 0
10, 133440, Note_on_c, 10, 61, 88
10, 133536, Note_on_c, 10, 61, 0
10, 133680, Note_on_c, 10, 64, 88
10, 133776, Note_on_c, 10, 64, 0
10, 133920, Note_on_c, 10, 57, 88
10, 134400, Note_on_c, 10, 57, 0
10, 139680, Note_on_c, 10, 81, 75
10, 140160, Note_on_c, 10, 81, 0
10, 141120, Note_on_c, 10, 82, 75
10, 141600, Note_on_c, 10, 82, 0
10, 142560, Note_on_c, 10, 81, 75
10, 143040, Note_on_c, 10, 81, 0
10, 144000, Note_on_c, 10, 82, 75
10, 144480, Note_on_c, 10, 82, 0
10, 145440, Note_on_c, 10, 81, 75
10, 145920, Note_on_c, 10, 79, 75
10, 145978, Note_on_c, 10, 81, 0
10, 146400, Note_on_c, 10, 77, 75
10, 146482, Note_on_c, 10, 79, 0
10, 146640, Note_on_c, 10, 76, 67
10, 146698, Note_on_c, 10, 77, 0
10, 146818, Note_on_c, 10, 76, 0
10, 146880, Note_on_c, 10, 74, 75
10, 147360, Note_on_c, 10, 74, 0
10, 148262, Control_c, 10, 7, 104
10, 148320, Note_on_c, 10, 80, 88
10, 148450, Control_c, 10, 7, 92
10, 148518, Control_c, 10, 7, 91
10, 148530, Control_c, 10, 7, 90
10, 148630, Control_c, 10, 7, 90
10, 148670, Control_c, 10, 7, 87
10, 148694, Control_c, 10, 7, 83
10, 148706, Control_c, 10, 7, 81
10, 149682, Control_c, 10, 7, 68
10, 149750, Control_c, 10, 7, 66
10, 149760, Note_on_c, 10, 81, 87
10, 149850, Note_on_c, 10, 80, 0
10, 150240, Note_on_c, 10, 81, 0
10, 151150, Control_c, 10, 7, 100
10, 151200, Note_on_c, 10, 68, 88
10, 151510, Control_c, 10, 7, 95
10, 151534, Control_c, 10, 7, 89
10, 151646, Control_c, 10, 7, 83
10, 151678, Control_c, 10, 7, 79
10, 152640, Note_on_c, 10, 69, 90
10, 152706, Note_on_c, 10, 68, 0
10, 153120, Note_on_c, 10, 69, 0
10, 153598, Control_c, 10, 7, 101
10, 154080, Note_on_c, 10, 81, 71
10, 154320, Note_on_c, 10, 80, 60
10, 154368, Note_on_c, 10, 81, 0
10, 154560, Note_on_c, 10, 81, 69
10, 154608, Note_on_c, 10, 80, 0
10, 154800, Note_on_c, 10, 80, 61
10, 154848, Note_on_c, 10, 81, 0
10, 155040, Note_on_c, 10, 81, 68
10, 155088, Note_on_c, 10, 80, 0
10, 155280, Note_on_c, 10, 80, 58
10, 155328, Note_on_c, 10, 81, 0
10, 155440, Note_on_c, 10, 80, 0
10, 155520, Note_on_c, 10, 81, 66
10, 156000, Note_on_c, 10, 81, 0
10, 180000, Note_on_c, 10, 72, 70
10, 180639, Note_on_c, 10, 74, 88
10, 180656, Note_on_c, 10, 72, 0
10, 180800, Note_on_c, 10, 76, 88
10, 180840, Note_on_c, 10, 74, 0
10, 180920, Note_on_c, 10, 76, 0
10, 180960, Note_on_c, 10, 77, 88
10, 181119, Note_on_c, 10, 79, 88
10, 181144, Note_on_c, 10, 77, 0
10, 181280, Note_on_c, 10, 81, 88
10, 181328, Note_on_c, 10, 79, 0
10, 181400, Note_on_c, 10, 81, 0
10, 181440, Note_on_c, 10, 82, 88
10, 181920, Note_on_c, 10, 76, 88
10, 182000, Note_on_c, 10, 82, 0
10, 182288, Note_on_c, 10, 76, 0
10, 182400, Note_on_c, 10, 77, 88
10, 182880, Note_on_c, 10, 77, 0
10, 182880, Note_on_c, 10, 79, 75
10, 183120, Note_on_c, 10, 79, 0
10, 183120, Note_on_c, 10, 70, 75
10, 183600, Note_on_c, 10, 70, 0
10, 183600, Note_on_c, 10, 70, 75
10, 184080, Note_on_c, 10, 70, 0
10, 184080, Note_on_c, 10, 74, 75
10, 184560, Note_on_c, 10, 74, 0
10, 184560, Note_on_c, 10, 72, 75
10, 185040, Note_on_c, 10, 72, 0
10, 185040, Note_on_c, 10, 70, 75
10, 185520, Note_on_c, 10, 70, 0
10, 185520, Note_on_c, 10, 69, 75
10, 185760, Note_on_c, 10, 69, 0
10, 185760, Note_on_c, 10, 67, 88
10, 185919, Note_on_c, 10, 74, 88
10, 185968, Note_on_c, 10, 67, 0
10, 186080, Note_on_c, 10, 72, 88
10, 186136, Note_on_c, 10, 74, 0
10, 186143, Note_on_c, 10, 72, 0
10, 186240, Note_on_c, 10, 70, 88
10, 186303, Note_on_c, 10, 70, 0
10, 186399, Note_on_c, 10, 69, 88
10, 186464, Note_on_c, 10, 69, 0
10, 186560, Note_on_c, 10, 67, 88
10, 186623, Note_on_c, 10, 67, 0
10, 186720, Note_on_c, 10, 65, 88
10, 186783, Note_on_c, 10, 65, 0
10, 186879, Note_on_c, 10, 64, 88
10, 186944, Note_on_c, 10, 64, 0
10, 187040, Note_on_c, 10, 62, 88
10, 187103, Note_on_c, 10, 62, 0
10, 187200, Note_on_c, 10, 60, 88
10, 187440, Note_on_c, 10, 59, 88
10, 187480, Note_on_c, 10, 60, 0
10, 187536, Note_on_c, 10, 59, 0
10, 187680, Note_on_c, 10, 58, 88
10, 188160, Note_on_c, 10, 57, 88
10, 188216, Note_on_c, 10, 58, 0
10, 188528, Note_on_c, 10, 57, 0
10, 188640, Note_on_c, 10, 55, 88
10, 189000, Note_on_c, 10, 55, 0
10, 189000, Note_on_c, 10, 74, 88
10, 189120, Note_on_c, 10, 74, 0
10, 189120, Note_on_c, 10, 72, 88
10, 189600, Note_on_c, 10, 72, 0
10, 189600, Note_on_c, 10, 55, 88
10, 189600, Note_on_c, 10, 64, 88
10, 190080, Note_on_c, 10, 64, 0
10, 190080, Note_on_c, 10, 55, 0
10, 190080, Note_on_c, 10, 65, 88
10, 190304, Note_on_c, 10, 65, 0
10, 190560, Note_on_c, 10, 67, 88
10, 190760, Note_on_c, 10, 67, 0
10, 191040, Note_on_c, 10, 69, 88
10, 191216, Note_on_c, 10, 69, 0
10, 191520, Note_on_c, 10, 70, 88
10, 191583, Note_on_c, 10, 70, 0
10, 191679, Note_on_c, 10, 72, 84
10, 191744, Note_on_c, 10, 72, 0
10, 191840, Note_on_c, 10, 74, 79
10, 191903, Note_on_c, 10, 74, 0
10, 192000, Note_on_c, 10, 65, 75
10, 192000, Note_on_c, 10, 75, 75
10, 192480, Note_on_c, 10, 75, 0
10, 192480, Note_on_c, 10, 65, 0
10, 192960, Note_on_c, 10, 72, 74
10, 193440, Note_on_c, 10, 70, 72
10, 193528, Note_on_c, 10, 72, 0
10, 193920, Note_on_c, 10, 69, 70
10, 194008, Note_on_c, 10, 70, 0
10, 194288, Note_on_c, 10, 69, 0
10, 194400, Note_on_c, 10, 67, 68
10, 194880, Note_on_c, 10, 65, 65
10, 194964, Note_on_c, 10, 67, 0
10, 195360, Note_on_c, 10, 63, 63
10, 195420, Note_on_c, 10, 65, 0
10, 195748, Note_on_c, 10, 63, 0
10, 195840, Note_on_c, 10, 62, 61
10, 196320, Note_on_c, 10, 62, 0
10, 197280, Note_on_c, 10, 75, 56
10, 198720, Note_on_c, 10, 74, 56
10, 198812, Note_on_c, 10, 75, 0
10, 200160, Note_on_c, 10, 72, 56
10, 200252, Note_on_c, 10, 74, 0
10, 201508, Note_on_c, 10, 72, 0
10, 201600, Note_on_c, 10, 75, 55
10, 202080, Note_on_c, 10, 74, 55
10, 202132, Note_on_c, 10, 75, 0
10, 202560, Note_on_c, 10, 72, 55
10, 202628, Note_on_c, 10, 74, 0
10, 202972, Note_on_c, 10, 72, 0
10, 203040, Note_on_c, 10, 77, 55
10, 203520, Note_on_c, 10, 78, 55
10, 203620, Note_on_c, 10, 77, 0
10, 204000, Note_on_c, 10, 79, 55
10, 204084, Note_on_c, 10, 78, 0
10, 204412, Note_on_c, 10, 79, 0
10, 204480, Note_on_c, 10, 70, 55
10, 204960, Note_on_c, 10, 69, 55
10, 205044, Note_on_c, 10, 70, 0
10, 205364, Note_on_c, 10, 69, 0
10, 205440, Note_on_c, 10, 72, 62
10, 205500, Note_on_c, 10, 70, 63
10, 205529, Note_on_c, 10, 72, 0
10, 205560, Note_on_c, 10, 72, 63
10, 205589, Note_on_c, 10, 70, 0
10, 205620, Note_on_c, 10, 70, 62
10, 205649, Note_on_c, 10, 72, 0
10, 205680, Note_on_c, 10, 69, 62
10, 205709, Note_on_c, 10, 70, 0
10, 205800, Note_on_c, 10, 70, 61
10, 205826, Note_on_c, 10, 69, 0
10, 205920, Note_on_c, 10, 72, 58
10, 205946, Note_on_c, 10, 70, 0
10, 206400, Note_on_c, 10, 72, 0
10, 207360, Note_on_c, 10, 62, 60
10, 207360, Note_on_c, 10, 70, 60
10, 207840, Note_on_c, 10, 70, 0
10, 207840, Note_on_c, 10, 62, 0
10, 208800, Note_on_c, 10, 75, 60
10, 210240, Note_on_c, 10, 74, 59
10, 210302, Note_on_c, 10, 75, 0
10, 211680, Note_on_c, 10, 72, 58
10, 211742, Note_on_c, 10, 74, 0
10, 213006, Note_on_c, 10, 72, 0
10, 213120, Note_on_c, 10, 75, 57
10, 213600, Note_on_c, 10, 74, 57
10, 213670, Note_on_c, 10, 75, 0
10, 214080, Note_on_c, 10, 72, 57
10, 214142, Note_on_c, 10, 74, 0
10, 214486, Note_on_c, 10, 72, 0
10, 214560, Note_on_c, 10, 77, 57
10, 215040, Note_on_c, 10, 77, 0
10, 216000, Note_on_c, 10, 74, 89
10, 216063, Note_on_c, 10, 74, 0
10, 216159, Note_on_c, 10, 77, 88
10, 216224, Note_on_c, 10, 77, 0
10, 216320, Note_on_c, 10, 74, 87
10, 216383, Note_on_c, 10, 74, 0
10, 216480, Note_on_c, 10, 70, 85
10, 216543, Note_on_c, 10, 70, 0
10, 216639, Note_on_c, 10, 74, 85
10, 216704, Note_on_c, 10, 74, 0
10, 216800, Note_on_c, 10, 70, 83
10, 216863, Note_on_c, 10, 70, 0
10, 216960, Note_on_c, 10, 69, 82
10, 217023, Note_on_c, 10, 69, 0
10, 217119, Note_on_c, 10, 72, 81
10, 217184, Note_on_c, 10, 72, 0
10, 217280, Note_on_c, 10, 69, 79
10, 217343, Note_on_c, 10, 69, 0
10, 217440, Note_on_c, 10, 70, 78
10, 217780, Note_on_c, 10, 70, 0
10, 218880, Note_on_c, 10, 74, 79
10, 218943, Note_on_c, 10, 74, 0
10, 219039, Note_on_c, 10, 77, 83
10, 219104, Note_on_c, 10, 77, 0
10, 219200, Note_on_c, 10, 74, 81
10, 219263, Note_on_c, 10, 74, 0
10, 219360, Note_on_c, 10, 70, 80
10, 219423, Note_on_c, 10, 70, 0
10, 219519, Note_on_c, 10, 74, 79
10, 219584, Note_on_c, 10, 74, 0
10, 219680, Note_on_c, 10, 70, 78
10, 219743, Note_on_c, 10, 70, 0
10, 219840, Note_on_c, 10, 69, 76
10, 219903, Note_on_c, 10, 69, 0
10, 219999, Note_on_c, 10, 72, 75
10, 220064, Note_on_c, 10, 72, 0
10, 220160, Note_on_c, 10, 69, 74
10, 220223, Note_on_c, 10, 69, 0
10, 220320, Note_on_c, 10, 70, 73
10, 220676, Note_on_c, 10, 70, 0
10, 220800, Note_on_c, 10, 65, 71
10, 221280, Note_on_c, 10, 69, 66
10, 221348, Note_on_c, 10, 65, 0
10, 221668, Note_on_c, 10, 69, 0
10, 221760, Note_on_c, 10, 70, 66
10, 222092, Note_on_c, 10, 70, 0
10, 222240, Note_on_c, 10, 77, 65
10, 222720, Note_on_c, 10, 81, 69
10, 222820, Note_on_c, 10, 77, 0
10, 223052, Note_on_c, 10, 81, 0
10, 223200, Note_on_c, 10, 82, 77
10, 223680, Note_on_c, 10, 82, 0
10, 223680, Note_on_c, 10, 62, 88
10, 223680, Note_on_c, 10, 70, 88
10, 224160, Note_on_c, 10, 70, 0
10, 224160, Note_on_c, 10, 62, 0
10, 262080, Note_on_c, 10, 60, 75
10, 264838, Note_on_c, 10, 60, 0
10, 264960, Note_on_c, 10, 62, 75
10, 266400, Note_on_c, 10, 60, 75
10, 266400, Note_on_c, 10, 64, 75
10, 266486, Note_on_c, 10, 62, 0
10, 267840, Note_on_c, 10, 64, 0
10, 267840, Note_on_c, 10, 60, 0
10, 267840, Note_on_c, 10, 60, 75
10, 267840, Note_on_c, 10, 65, 75
10, 268080, Note_on_c, 10, 65, 0
10, 268080, Note_on_c, 10, 60, 0
10, 268320, Note_on_c, 10, 69, 84
10, 268560, Note_on_c, 10, 69, 0
10, 268800, Note_on_c, 10, 72, 86
10, 269040, Note_on_c, 10, 72, 0
10, 269280, Note_on_c, 10, 65, 86
10, 269520, Note_on_c, 10, 65, 0
10, 269760, Note_on_c, 10, 69, 86
10, 270000, Note_on_c, 10, 69, 0
10, 270240, Note_on_c, 10, 72, 86
10, 270480, Note_on_c, 10, 72, 0
10, 270720, Note_on_c, 10, 65, 86
10, 270960, Note_on_c, 10, 65, 0
10, 271200, Note_on_c, 10, 70, 86
10, 271440, Note_on_c, 10, 70, 0
10, 271680, Note_on_c, 10, 74, 86
10, 271920, Note_on_c, 10, 74, 0
10, 272160, Note_on_c, 10, 60, 86
10, 272400, Note_on_c, 10, 60, 0
10, 272640, Note_on_c, 10, 67, 86
10, 272880, Note_on_c, 10, 67, 0
10, 273120, Note_on_c, 10, 70, 86
10, 273360, Note_on_c, 10, 70, 0
10, 273600, Note_on_c, 10, 69, 75
10, 274080, Note_on_c, 10, 69, 0
10, 280320, Note_on_c, 10, 81, 75
10, 280512, Note_on_c, 10, 81, 0
10, 280800, Note_on_c, 10, 82, 75
10, 280992, Note_on_c, 10, 82, 0
10, 281760, Note_on_c, 10, 79, 75
10, 281952, Note_on_c, 10, 79, 0
10, 282240, Note_on_c, 10, 84, 75
10, 282432, Note_on_c, 10, 84, 0
10, 283200, Note_on_c, 10, 81, 75
10, 283392, Note_on_c, 10, 81, 0
10, 283680, Note_on_c, 10, 82, 75
10, 283872, Note_on_c, 10, 82, 0
10, 284640, Note_on_c, 10, 79, 75
10, 284832, Note_on_c, 10, 79, 0
10, 285120, Note_on_c, 10, 69, 75
10, 285120, Note_on_c, 10, 77, 75
10, 285216, Note_on_c, 10, 69, 0
10, 285312, Note_on_c, 10, 77, 0
10, 286080, Note_on_c, 10, 81, 75
10, 286176, Note_on_c, 10, 81, 0
10, 286320, Note_on_c, 10, 81, 75
10, 286416, Note_on_c, 10, 81, 0
10, 286560, Note_on_c, 10, 82, 75
10, 286656, Note_on_c, 10, 82, 0
10, 286800, Note_on_c, 10, 82, 75
10, 286896, Note_on_c, 10, 82, 0
10, 287040, Note_on_c, 10, 82, 75
10, 287136, Note_on_c, 10, 82, 0
10, 287280, Note_on_c, 10, 82, 75
10, 287376, Note_on_c, 10, 82, 0
10, 287520, Note_on_c, 10, 79, 75
10, 287616, Note_on_c, 10, 79, 0
10, 287760, Note_on_c, 10, 79, 75
10, 287856, Note_on_c, 10, 79, 0
10, 288000, Note_on_c, 10, 84, 75
10, 288096, Note_on_c, 10, 84, 0
10, 288240, Note_on_c, 10, 84, 75
10, 288336, Note_on_c, 10, 84, 0
10, 288480, Note_on_c, 10, 84, 75
10, 288576, Note_on_c, 10, 84, 0
10, 288720, Note_on_c, 10, 84, 75
10, 288816, Note_on_c, 10, 84, 0
10, 288960, Note_on_c, 10, 81, 75
10, 289056, Note_on_c, 10, 81, 0
10, 289200, Note_on_c, 10, 81, 75
10, 289296, Note_on_c, 10, 81, 0
10, 289440, Note_on_c, 10, 82, 75
10, 289536, Note_on_c, 10, 82, 0
10, 289680, Note_on_c, 10, 82, 75
10, 289776, Note_on_c, 10, 82, 0
10, 289920, Note_on_c, 10, 82, 75
10, 290016, Note_on_c, 10, 82, 0
10, 290160, Note_on_c, 10, 82, 75
10, 290256, Note_on_c, 10, 82, 0
10, 290400, Note_on_c, 10, 79, 75
10, 290496, Note_on_c, 10, 79, 0
10, 290640, Note_on_c, 10, 79, 75
10, 290736, Note_on_c, 10, 79, 0
10, 290880, Note_on_c, 10, 69, 75
10, 290880, Note_on_c, 10, 77, 75
10, 290976, Note_on_c, 10, 69, 0
10, 291072, Note_on_c, 10, 77, 0
10, 291360, Note_on_c, 10, 57, 75
10, 291552, Note_on_c, 10, 57, 0
10, 291840, Note_on_c, 10, 60, 75
10, 292032, Note_on_c, 10, 60, 0
10, 292320, Note_on_c, 10, 65, 88
10, 292512, Note_on_c, 10, 65, 0
10, 292800, Note_on_c, 10, 69, 88
10, 292992, Note_on_c, 10, 69, 0
10, 293280, Note_on_c, 10, 72, 88
10, 293472, Note_on_c, 10, 72, 0
10, 293760, Note_on_c, 10, 69, 88
10, 293760, Note_on_c, 10, 77, 88
10, 294240, Note_on_c, 10, 77, 0
10, 294240, Note_on_c, 10, 69, 0
10, 308158, Control_c, 10, 0, 0
10, 308159, Control_c, 10, 32, 0
10, 308160, Program_c, 10, 45
10, 309544, Control_c, 10, 11, 82
10, 309548, Control_c, 10, 11, 83
10, 309552, Control_c, 10, 11, 82
10, 309564, Control_c, 10, 11, 83
10, 309600, Note_on_c, 10, 72, 88
10, 310080, Note_on_c, 10, 72, 0
10, 310080, Note_on_c, 10, 69, 88
10, 310560, Note_on_c, 10, 69, 0
10, 311040, Note_on_c, 10, 67, 88
10, 311520, Note_on_c, 10, 67, 0
10, 311520, Note_on_c, 10, 76, 88
10, 312000, Note_on_c, 10, 76, 0
10, 312000, Note_on_c, 10, 77, 88
10, 312480, Note_on_c, 10, 77, 0
10, 312960, Note_on_c, 10, 70, 88
10, 313440, Note_on_c, 10, 70, 0
10, 313440, Note_on_c, 10, 74, 88
10, 313920, Note_on_c, 10, 74, 0
10, 313920, Note_on_c, 10, 72, 88
10, 314400, Note_on_c, 10, 72, 0
10, 314400, Note_on_c, 10, 70, 88
10, 314880, Note_on_c, 10, 70, 0
10, 314880, Note_on_c, 10, 69, 88
10, 315360, Note_on_c, 10, 69, 0
10, 315360, Note_on_c, 10, 67, 88
10, 315360, Note_on_c, 10, 72, 88
10, 315360, Note_on_c, 10, 76, 88
10, 315840, Note_on_c, 10, 76, 0
10, 315840, Note_on_c, 10, 72, 0
10, 315840, Note_on_c, 10, 67, 0
10, 315840, Note_on_c, 10, 69, 88
10, 315840, Note_on_c, 10, 77, 88
10, 316320, Note_on_c, 10, 77, 0
10, 316320, Note_on_c, 10, 69, 0
10, 316800, Note_on_c, 10, 67, 88
10, 316800, Note_on_c, 10, 72, 88
10, 316800, Note_on_c, 10, 76, 88
10, 317280, Note_on_c, 10, 76, 0
10, 317280, Note_on_c, 10, 72, 0
10, 317280, Note_on_c, 10, 67, 0
10, 317280, Note_on_c, 10, 69, 88
10, 317280, Note_on_c, 10, 77, 88
10, 317760, Note_on_c, 10, 77, 0
10, 317760, Note_on_c, 10, 69, 0
10, 318240, Note_on_c, 10, 65, 88
10, 318720, Note_on_c, 10, 65, 0
10, 318720, Note_on_c, 10, 67, 88
10, 319200, Note_on_c, 10, 67, 0
10, 319200, Note_on_c, 10, 69, 88
10, 319440, Note_on_c, 10, 69, 0
10, 319440, Note_on_c, 10, 65, 88
10, 319680, Note_on_c, 10, 65, 0
10, 319680, Note_on_c, 10, 72, 88
10, 320160, Note_on_c, 10, 72, 0
10, 320160, Note_on_c, 10, 60, 88
10, 320638, Control_c, 10, 0, 0
10, 320639, Control_c, 10, 32, 0
10, 320640, Note_on_c, 10, 60, 0
10, 320640, Program_c, 10, 48
10, 321052, Control_c, 10, 11, 84
10, 321072, Control_c, 10, 11, 88
10, 321092, Control_c, 10, 11, 92
10, 321112, Control_c, 10, 11, 99
10, 321120, Note_on_c, 10, 72, 88
10, 321152, Control_c, 10, 11, 103
10, 321172, Control_c, 10, 11, 107
10, 321192, Control_c, 10, 11, 115
10, 321232, Control_c, 10, 11, 119
10, 321292, Control_c, 10, 11, 123
10, 321328, Control_c, 10, 11, 127
10, 321759, Note_on_c, 10, 74, 80
10, 321802, Note_on_c, 10, 72, 0
10, 321920, Note_on_c, 10, 76, 88
10, 321955, Note_on_c, 10, 74, 0
10, 322042, Note_on_c, 10, 76, 0
10, 322080, Note_on_c, 10, 77, 80
10, 322239, Note_on_c, 10, 79, 88
10, 322274, Note_on_c, 10, 77, 0
10, 322400, Note_on_c, 10, 81, 88
10, 322435, Note_on_c, 10, 79, 0
10, 322514, Note_on_c, 10, 81, 0
10, 322560, Note_on_c, 10, 82, 88
10, 323040, Note_on_c, 10, 76, 88
10, 323106, Note_on_c, 10, 82, 0
10, 323442, Note_on_c, 10, 76, 0
10, 323520, Note_on_c, 10, 77, 88
10, 323712, Note_on_c, 10, 77, 0
10, 324000, Note_on_c, 10, 79, 88
10, 324240, Note_on_c, 10, 70, 76
10, 324274, Note_on_c, 10, 79, 0
10, 324418, Note_on_c, 10, 70, 0
10, 324480, Note_on_c, 10, 70, 88
10, 325200, Note_on_c, 10, 70, 0
10, 325200, Note_on_c, 10, 74, 88
10, 325440, Note_on_c, 10, 74, 0
10, 325440, Note_on_c, 10, 72, 88
10, 325920, Note_on_c, 10, 72, 0
10, 325920, Note_on_c, 10, 72, 73
10, 325980, Note_on_c, 10, 70, 77
10, 326009, Note_on_c, 10, 72, 0
10, 326040, Note_on_c, 10, 72, 85
10, 326069, Note_on_c, 10, 70, 0
10, 326100, Note_on_c, 10, 70, 82
10, 326129, Note_on_c, 10, 72, 0
10, 326160, Note_on_c, 10, 69, 80
10, 326189, Note_on_c, 10, 70, 0
10, 326280, Note_on_c, 10, 70, 84
10, 326306, Note_on_c, 10, 69, 0
10, 326400, Note_on_c, 10, 69, 88
10, 326426, Note_on_c, 10, 70, 0
10, 326880, Note_on_c, 10, 69, 0
10, 326880, Note_on_c, 10, 67, 103
10, 327039, Note_on_c, 10, 74, 102
10, 327074, Note_on_c, 10, 67, 0
10, 327200, Note_on_c, 10, 72, 101
10, 327235, Note_on_c, 10, 74, 0
10, 327263, Note_on_c, 10, 72, 0
10, 327360, Note_on_c, 10, 70, 100
10, 327423, Note_on_c, 10, 70, 0
10, 327519, Note_on_c, 10, 69, 99
10, 327584, Note_on_c, 10, 69, 0
10, 327680, Note_on_c, 10, 67, 98
10, 327743, Note_on_c, 10, 67, 0
10, 327840, Note_on_c, 10, 65, 97
10, 327903, Note_on_c, 10, 65, 0
10, 327999, Note_on_c, 10, 64, 96
10, 328064, Note_on_c, 10, 64, 0
10, 328160, Note_on_c, 10, 62, 95
10, 328223, Note_on_c, 10, 62, 0
10, 328320, Note_on_c, 10, 60, 94
10, 328560, Note_on_c, 10, 60, 0
10, 328560, Note_on_c, 10, 59, 88
10, 328800, Note_on_c, 10, 59, 0
10, 328800, Note_on_c, 10, 58, 88
10, 329280, Note_on_c, 10, 58, 0
10, 329280, Note_on_c, 10, 57, 88
10, 329760, Note_on_c, 10, 57, 0
10, 329760, Note_on_c, 10, 55, 88
10, 329823, Note_on_c, 10, 55, 0
10, 329919, Note_on_c, 10, 86, 88
10, 329984, Note_on_c, 10, 86, 0
10, 330080, Note_on_c, 10, 84, 88
10, 330143, Note_on_c, 10, 84, 0
10, 330240, Note_on_c, 10, 82, 88
10, 330303, Note_on_c, 10, 82, 0
10, 330399, Note_on_c, 10, 81, 88
10, 330464, Note_on_c, 10, 81, 0
10, 330560, Note_on_c, 10, 79, 88
10, 330623, Note_on_c, 10, 79, 0
10, 330720, Note_on_c, 10, 77, 88
10, 330783, Note_on_c, 10, 77, 0
10, 330879, Note_on_c, 10, 76, 88
10, 330944, Note_on_c, 10, 76, 0
10, 331040, Note_on_c, 10, 74, 88
10, 331103, Note_on_c, 10, 74, 0
10, 331200, Note_on_c, 10, 72, 88
10, 331440, Note_on_c, 10, 71, 73
10, 331508, Note_on_c, 10, 72, 0
10, 331604, Note_on_c, 10, 71, 0
10, 331680, Note_on_c, 10, 70, 88
10, 332160, Note_on_c, 10, 69, 76
10, 332252, Note_on_c, 10, 70, 0
10, 332484, Note_on_c, 10, 69, 0
10, 332640, Note_on_c, 10, 67, 88
10, 333000, Note_on_c, 10, 67, 0
10, 333000, Note_on_c, 10, 86, 100
10, 333120, Note_on_c, 10, 84, 88
10, 333228, Note_on_c, 10, 86, 0
10, 333600, Note_on_c, 10, 84, 0
10, 333600, Note_on_c, 10, 76, 88
10, 334080, Note_on_c, 10, 76, 0
10, 334080, Note_on_c, 10, 77, 92
10, 334239, Note_on_c, 10, 77, 0
10, 334239, Note_on_c, 10, 72, 86
10, 334400, Note_on_c, 10, 72, 0
10, 334400, Note_on_c, 10, 69, 80
10, 334560, Note_on_c, 10, 69, 0
10, 334560, Note_on_c, 10, 72, 90
10, 334719, Note_on_c, 10, 72, 0
10, 334719, Note_on_c, 10, 69, 85
10, 334880, Note_on_c, 10, 69, 0
10, 334880, Note_on_c, 10, 65, 80
10, 335040, Note_on_c, 10, 65, 0
10, 335040, Note_on_c, 10, 76, 92
10, 335199, Note_on_c, 10, 76, 0
10, 335199, Note_on_c, 10, 72, 86
10, 335360, Note_on_c, 10, 72, 0
10, 335360, Note_on_c, 10, 67, 80
10, 335520, Note_on_c, 10, 67, 0
10, 335520, Note_on_c, 10, 77, 93
10, 335679, Note_on_c, 10, 77, 0
10, 335679, Note_on_c, 10, 72, 89
10, 335840, Note_on_c, 10, 72, 0
10, 335840, Note_on_c, 10, 69, 84
10, 336000, Note_on_c, 10, 69, 0
10, 336000, Note_on_c, 10, 81, 84
10, 336159, Note_on_c, 10, 81, 0
10, 336159, Note_on_c, 10, 77, 88
10, 336320, Note_on_c, 10, 77, 0
10, 336320, Note_on_c, 10, 72, 92
10, 336480, Note_on_c, 10, 72, 0
10, 336480, Note_on_c, 10, 82, 88
10, 336639, Note_on_c, 10, 82, 0
10, 336639, Note_on_c, 10, 79, 90
10, 336800, Note_on_c, 10, 79, 0
10, 336800, Note_on_c, 10, 76, 94
10, 336960, Note_on_c, 10, 76, 0
10, 336960, Note_on_c, 10, 77, 98
10, 337440, Note_on_c, 10, 77, 0
10, 337440, Note_on_c, 10, 65, 88
10, 337920, Note_on_c, 10, 65, 0
10, 338872, Control_c, 10, 11, 123
10, 338888, Control_c, 10, 11, 126
10, 338888, End_track
11, 0, Start_track
11, 0, Title_t, "Violin II"
11, 0, Control_c, 11, 0, 0
11, 0, Control_c, 11, 7, 95
11, 0, Control_c, 11, 10, 100
11, 0, Control_c, 11, 91, 85
11, 0, Control_c, 11, 93, 94
11, 1, Control_c, 11, 32, 1
11, 2, Program_c, 11, 48
11, 11520, Note_on_c, 11, 60, 88
11, 12159, Note_on_c, 11, 62, 77
11, 12184, Note_on_c, 11, 60, 0
11, 12320, Note_on_c, 11, 64, 81
11, 12364, Note_on_c, 11, 62, 0
11, 12452, Note_on_c, 11, 64, 0
11, 12480, Note_on_c, 11, 65, 85
11, 12639, Note_on_c, 11, 67, 88
11, 12660, Note_on_c, 11, 65, 0
11, 12800, Note_on_c, 11, 69, 92
11, 12840, Note_on_c, 11, 67, 0
11, 12932, Note_on_c, 11, 69, 0
11, 12960, Note_on_c, 11, 70, 96
11, 13920, Note_on_c, 11, 69, 78
11, 13964, Note_on_c, 11, 70, 0
11, 14352, Note_on_c, 11, 69, 0
11, 14400, Note_on_c, 11, 70, 88
11, 14880, Note_on_c, 11, 67, 75
11, 14932, Note_on_c, 11, 70, 0
11, 15320, Note_on_c, 11, 67, 0
11, 15360, Note_on_c, 11, 67, 88
11, 15600, Note_on_c, 11, 70, 79
11, 15640, Note_on_c, 11, 67, 0
11, 15812, Note_on_c, 11, 70, 0
11, 15840, Note_on_c, 11, 69, 88
11, 16280, Note_on_c, 11, 69, 0
11, 16320, Note_on_c, 11, 69, 83
11, 16380, Note_on_c, 11, 67, 91
11, 16410, Note_on_c, 11, 69, 0
11, 16440, Note_on_c, 11, 69, 89
11, 16470, Note_on_c, 11, 67, 0
11, 16500, Note_on_c, 11, 67, 92
11, 16530, Note_on_c, 11, 69, 0
11, 16560, Note_on_c, 11, 65, 87
11, 16590, Note_on_c, 11, 67, 0
11, 16680, Note_on_c, 11, 67, 78
11, 16712, Note_on_c, 11, 65, 0
11, 16800, Note_on_c, 11, 65, 88
11, 16852, Note_on_c, 11, 67, 0
11, 17280, Note_on_c, 11, 65, 0
11, 27840, Note_on_c, 11, 65, 75
11, 28320, Note_on_c, 11, 67, 65
11, 28380, Note_on_c, 11, 65, 0
11, 28744, Note_on_c, 11, 67, 0
11, 28800, Note_on_c, 11, 65, 75
11, 29280, Note_on_c, 11, 65, 0
11, 29280, Note_on_c, 11, 77, 88
11, 29760, Note_on_c, 11, 76, 79
11, 29820, Note_on_c, 11, 77, 0
11, 30200, Note_on_c, 11, 76, 0
11, 30240, Note_on_c, 11, 77, 88
11, 30720, Note_on_c, 11, 77, 0
11, 30720, Note_on_c, 11, 57, 80
11, 30720, Note_on_c, 11, 65, 80
11, 31200, Note_on_c, 11, 65, 0
11, 31200, Note_on_c, 11, 57, 0
11, 69120, Note_on_c, 11, 55, 67
11, 72000, Note_on_c, 11, 55, 0
11, 72000, Note_on_c, 11, 57, 67
11, 73440, Note_on_c, 11, 57, 0
11, 73440, Note_on_c, 11, 59, 67
11, 74880, Note_on_c, 11, 59, 0
11, 74880, Note_on_c, 11, 60, 67
11, 76320, Note_on_c, 11, 60, 0
11, 76320, Note_on_c, 11, 67, 67
11, 77760, Note_on_c, 11, 67, 0
11, 77760, Note_on_c, 11, 69, 67
11, 79200, Note_on_c, 11, 69, 0
11, 79200, Note_on_c, 11, 71, 67
11, 80640, Note_on_c, 11, 71, 0
11, 80640, Note_on_c, 11, 72, 67
11, 81120, Note_on_c, 11, 72, 0
11, 83520, Note_on_c, 11, 76, 81
11, 84000, Note_on_c, 11, 76, 0
11, 103680, Note_on_c, 11, 60, 79
11, 104319, Note_on_c, 11, 62, 71
11, 104360, Note_on_c, 11, 60, 0
11, 104480, Note_on_c, 11, 64, 75
11, 104528, Note_on_c, 11, 62, 0
11, 104600, Note_on_c, 11, 64, 0
11, 104640, Note_on_c, 11, 65, 79
11, 104799, Note_on_c, 11, 67, 82
11, 104848, Note_on_c, 11, 65, 0
11, 104960, Note_on_c, 11, 69, 86
11, 105010, Note_on_c, 11, 67, 0
11, 105080, Note_on_c, 11, 69, 0
11, 105120, Note_on_c, 11, 70, 88
11, 106080, Note_on_c, 11, 70, 0
11, 106080, Note_on_c, 11, 69, 88
11, 106560, Note_on_c, 11, 69, 0
11, 106560, Note_on_c, 11, 70, 88
11, 106800, Note_on_c, 11, 67, 76
11, 106856, Note_on_c, 11, 70, 0
11, 106936, Note_on_c, 11, 67, 0
11, 107040, Note_on_c, 11, 67, 88
11, 107464, Note_on_c, 11, 67, 0
11, 107520, Note_on_c, 11, 67, 88
11, 107760, Note_on_c, 11, 70, 77
11, 107808, Note_on_c, 11, 67, 0
11, 107896, Note_on_c, 11, 70, 0
11, 108000, Note_on_c, 11, 69, 88
11, 108480, Note_on_c, 11, 69, 0
11, 108480, Note_on_c, 11, 69, 81
11, 108540, Note_on_c, 11, 67, 81
11, 108583, Note_on_c, 11, 69, 0
11, 108600, Note_on_c, 11, 69, 81
11, 108643, Note_on_c, 11, 67, 0
11, 108660, Note_on_c, 11, 67, 81
11, 108703, Note_on_c, 11, 69, 0
11, 108720, Note_on_c, 11, 65, 77
11, 108763, Note_on_c, 11, 67, 0
11, 108840, Note_on_c, 11, 67, 85
11, 108877, Note_on_c, 11, 65, 0
11, 108960, Note_on_c, 11, 65, 88
11, 108997, Note_on_c, 11, 67, 0
11, 109440, Note_on_c, 11, 65, 0
11, 120000, Note_on_c, 11, 65, 75
11, 120480, Note_on_c, 11, 67, 75
11, 120544, Note_on_c, 11, 65, 0
11, 120768, Note_on_c, 11, 67, 0
11, 120960, Note_on_c, 11, 65, 75
11, 121440, Note_on_c, 11, 65, 0
11, 121440, Note_on_c, 11, 81, 81
11, 121920, Note_on_c, 11, 79, 77
11, 121976, Note_on_c, 11, 81, 0
11, 122208, Note_on_c, 11, 79, 0
11, 122400, Note_on_c, 11, 77, 73
11, 122880, Note_on_c, 11, 77, 0
11, 123840, Note_on_c, 11, 79, 75
11, 124320, Note_on_c, 11, 79, 0
11, 128160, Note_on_c, 11, 77, 75
11, 128640, Note_on_c, 11, 77, 0
11, 129600, Note_on_c, 11, 76, 75
11, 130080, Note_on_c, 11, 76, 0
11, 139680, Note_on_c, 11, 77, 75
11, 140160, Note_on_c, 11, 77, 0
11, 141120, Note_on_c, 11, 76, 75
11, 141600, Note_on_c, 11, 76, 0
11, 142560, Note_on_c, 11, 77, 75
11, 143040, Note_on_c, 11, 77, 0
11, 144000, Note_on_c, 11, 76, 75
11, 144480, Note_on_c, 11, 76, 0
11, 145440, Note_on_c, 11, 77, 75
11, 145920, Note_on_c, 11, 76, 75
11, 145970, Note_on_c, 11, 77, 0
11, 146400, Note_on_c, 11, 74, 75
11, 146466, Note_on_c, 11, 76, 0
11, 146640, Note_on_c, 11, 73, 75
11, 146682, Note_on_c, 11, 74, 0
11, 146810, Note_on_c, 11, 73, 0
11, 148290, Control_c, 11, 7, 100
11, 148320, Note_on_c, 11, 74, 88
11, 148366, Control_c, 11, 7, 101
11, 148518, Control_c, 11, 7, 98
11, 148630, Control_c, 11, 7, 97
11, 148642, Control_c, 11, 7, 95
11, 148690, Control_c, 11, 7, 92
11, 148710, Control_c, 11, 7, 88
11, 148722, Control_c, 11, 7, 86
11, 148758, Control_c, 11, 7, 83
11, 148770, Control_c, 11, 7, 81
11, 149718, Control_c, 11, 7, 68
11, 149746, Control_c, 11, 7, 67
11, 149760, Note_on_c, 11, 73, 75
11, 149818, Note_on_c, 11, 74, 0
11, 150240, Note_on_c, 11, 73, 0
11, 150490, Control_c, 11, 7, 100
11, 151178, Control_c, 11, 7, 100
11, 151186, Control_c, 11, 7, 99
11, 151200, Note_on_c, 11, 62, 88
11, 151226, Control_c, 11, 7, 95
11, 151246, Control_c, 11, 7, 97
11, 151422, Control_c, 11, 7, 96
11, 151454, Control_c, 11, 7, 93
11, 151478, Control_c, 11, 7, 83
11, 151550, Control_c, 11, 7, 80
11, 151614, Control_c, 11, 7, 76
11, 151662, Control_c, 11, 7, 81
11, 152640, Note_on_c, 11, 61, 75
11, 152714, Note_on_c, 11, 62, 0
11, 153120, Note_on_c, 11, 61, 0
11, 153710, Control_c, 11, 7, 101
11, 154080, Note_on_c, 11, 57, 73
11, 154320, Note_on_c, 11, 56, 64
11, 154368, Note_on_c, 11, 57, 0
11, 154560, Note_on_c, 11, 57, 72
11, 154608, Note_on_c, 11, 56, 0
11, 154800, Note_on_c, 11, 56, 64
11, 154848, Note_on_c, 11, 57, 0
11, 155040, Note_on_c, 11, 57, 72
11, 155088, Note_on_c, 11, 56, 0
11, 155280, Note_on_c, 11, 56, 59
11, 155328, Note_on_c, 11, 57, 0
11, 155424, Note_on_c, 11, 56, 0
11, 155520, Note_on_c, 11, 57, 65
11, 156000, Note_on_c, 11, 57, 0
11, 180000, Note_on_c, 11, 69, 71
11, 180639, Note_on_c, 11, 70, 88
11, 180664, Note_on_c, 11, 69, 0
11, 180800, Note_on_c, 11, 67, 88
11, 180835, Note_on_c, 11, 70, 0
11, 180912, Note_on_c, 11, 67, 0
11, 180960, Note_on_c, 11, 69, 88
11, 181119, Note_on_c, 11, 64, 88
11, 181154, Note_on_c, 11, 69, 0
11, 181280, Note_on_c, 11, 65, 88
11, 181315, Note_on_c, 11, 64, 0
11, 181440, Note_on_c, 11, 65, 0
11, 181440, Note_on_c, 11, 67, 88
11, 181920, Note_on_c, 11, 70, 88
11, 181976, Note_on_c, 11, 67, 0
11, 182400, Note_on_c, 11, 69, 88
11, 182480, Note_on_c, 11, 70, 0
11, 182792, Note_on_c, 11, 69, 0
11, 182880, Note_on_c, 11, 70, 75
11, 183120, Note_on_c, 11, 70, 0
11, 183120, Note_on_c, 11, 67, 75
11, 183600, Note_on_c, 11, 67, 0
11, 183600, Note_on_c, 11, 67, 75
11, 184080, Note_on_c, 11, 67, 0
11, 184080, Note_on_c, 11, 70, 75
11, 184560, Note_on_c, 11, 70, 0
11, 184560, Note_on_c, 11, 69, 75
11, 185040, Note_on_c, 11, 69, 0
11, 185040, Note_on_c, 11, 67, 75
11, 185520, Note_on_c, 11, 67, 0
11, 185520, Note_on_c, 11, 65, 75
11, 185760, Note_on_c, 11, 65, 0
11, 189600, Note_on_c, 11, 58, 88
11, 190080, Note_on_c, 11, 58, 0
11, 190080, Note_on_c, 11, 57, 88
11, 190143, Note_on_c, 11, 57, 0
11, 190239, Note_on_c, 11, 60, 88
11, 190304, Note_on_c, 11, 60, 0
11, 190400, Note_on_c, 11, 57, 88
11, 190463, Note_on_c, 11, 57, 0
11, 190560, Note_on_c, 11, 58, 88
11, 190623, Note_on_c, 11, 58, 0
11, 190719, Note_on_c, 11, 60, 88
11, 190784, Note_on_c, 11, 60, 0
11, 190880, Note_on_c, 11, 58, 88
11, 190943, Note_on_c, 11, 58, 0
11, 191040, Note_on_c, 11, 60, 88
11, 191103, Note_on_c, 11, 60, 0
11, 191199, Note_on_c, 11, 65, 88
11, 191264, Note_on_c, 11, 65, 0
11, 191360, Note_on_c, 11, 60, 88
11, 191423, Note_on_c, 11, 60, 0
11, 191520, Note_on_c, 11, 65, 92
11, 191583, Note_on_c, 11, 65, 0
11, 191679, Note_on_c, 11, 69, 87
11, 191744, Note_on_c, 11, 69, 0
11, 191840, Note_on_c, 11, 70, 81
11, 191903, Note_on_c, 11, 70, 0
11, 192000, Note_on_c, 11, 65, 75
11, 192000, Note_on_c, 11, 72, 75
11, 192480, Note_on_c, 11, 72, 0
11, 192480, Note_on_c, 11, 65, 0
11, 192960, Note_on_c, 11, 69, 76
11, 193440, Note_on_c, 11, 67, 74
11, 193520, Note_on_c, 11, 69, 0
11, 193920, Note_on_c, 11, 65, 71
11, 193976, Note_on_c, 11, 67, 0
11, 194296, Note_on_c, 11, 65, 0
11, 194400, Note_on_c, 11, 63, 68
11, 194880, Note_on_c, 11, 62, 65
11, 194948, Note_on_c, 11, 63, 0
11, 195360, Note_on_c, 11, 60, 62
11, 195444, Note_on_c, 11, 62, 0
11, 195780, Note_on_c, 11, 60, 0
11, 195840, Note_on_c, 11, 58, 59
11, 196320, Note_on_c, 11, 58, 0
11, 197280, Note_on_c, 11, 60, 57
11, 198720, Note_on_c, 11, 58, 57
11, 198796, Note_on_c, 11, 60, 0
11, 200160, Note_on_c, 11, 57, 57
11, 200268, Note_on_c, 11, 58, 0
11, 201524, Note_on_c, 11, 57, 0
11, 201600, Note_on_c, 11, 63, 57
11, 202080, Note_on_c, 11, 62, 57
11, 202156, Note_on_c, 11, 63, 0
11, 202560, Note_on_c, 11, 60, 57
11, 202612, Note_on_c, 11, 62, 0
11, 202980, Note_on_c, 11, 60, 0
11, 203040, Note_on_c, 11, 65, 57
11, 203520, Note_on_c, 11, 66, 57
11, 203580, Note_on_c, 11, 65, 0
11, 204000, Note_on_c, 11, 67, 57
11, 204052, Note_on_c, 11, 66, 0
11, 204396, Note_on_c, 11, 67, 0
11, 204480, Note_on_c, 11, 58, 57
11, 204960, Note_on_c, 11, 57, 57
11, 205020, Note_on_c, 11, 58, 0
11, 205380, Note_on_c, 11, 57, 0
11, 205440, Note_on_c, 11, 60, 69
11, 205500, Note_on_c, 11, 58, 69
11, 205529, Note_on_c, 11, 60, 0
11, 205560, Note_on_c, 11, 60, 69
11, 205589, Note_on_c, 11, 58, 0
11, 205620, Note_on_c, 11, 58, 69
11, 205649, Note_on_c, 11, 60, 0
11, 205680, Note_on_c, 11, 57, 69
11, 205709, Note_on_c, 11, 58, 0
11, 205800, Note_on_c, 11, 58, 69
11, 205826, Note_on_c, 11, 57, 0
11, 205920, Note_on_c, 11, 60, 69
11, 205940, Note_on_c, 11, 58, 0
11, 206400, Note_on_c, 11, 60, 0
11, 207360, Note_on_c, 11, 62, 58
11, 207840, Note_on_c, 11, 62, 0
11, 208800, Note_on_c, 11, 60, 58
11, 210240, Note_on_c, 11, 58, 58
11, 210326, Note_on_c, 11, 60, 0
11, 211680, Note_on_c, 11, 57, 58
11, 211766, Note_on_c, 11, 58, 0
11, 213038, Note_on_c, 11, 57, 0
11, 213120, Note_on_c, 11, 63, 58
11, 213600, Note_on_c, 11, 62, 58
11, 213686, Note_on_c, 11, 63, 0
11, 214080, Note_on_c, 11, 60, 58
11, 214166, Note_on_c, 11, 62, 0
11, 214502, Note_on_c, 11, 60, 0
11, 214560, Note_on_c, 11, 58, 58
11, 215040, Note_on_c, 11, 58, 0
11, 216000, Note_on_c, 11, 70, 86
11, 216063, Note_on_c, 11, 70, 0
11, 216159, Note_on_c, 11, 74, 85
11, 216224, Note_on_c, 11, 74, 0
11, 216320, Note_on_c, 11, 70, 83
11, 216383, Note_on_c, 11, 70, 0
11, 216480, Note_on_c, 11, 62, 81
11, 216543, Note_on_c, 11, 62, 0
11, 216639, Note_on_c, 11, 65, 79
11, 216704, Note_on_c, 11, 65, 0
11, 216800, Note_on_c, 11, 62, 77
11, 216863, Note_on_c, 11, 62, 0
11, 216960, Note_on_c, 11, 60, 76
11, 217023, Note_on_c, 11, 60, 0
11, 217119, Note_on_c, 11, 63, 74
11, 217184, Note_on_c, 11, 63, 0
11, 217280, Note_on_c, 11, 60, 72
11, 217343, Note_on_c, 11, 60, 0
11, 217440, Note_on_c, 11, 62, 70
11, 217796, Note_on_c, 11, 62, 0
11, 218880, Note_on_c, 11, 70, 86
11, 218943, Note_on_c, 11, 70, 0
11, 219039, Note_on_c, 11, 74, 85
11, 219104, Note_on_c, 11, 74, 0
11, 219200, Note_on_c, 11, 70, 83
11, 219263, Note_on_c, 11, 70, 0
11, 219360, Note_on_c, 11, 62, 82
11, 219423, Note_on_c, 11, 62, 0
11, 219519, Note_on_c, 11, 65, 80
11, 219584, Note_on_c, 11, 65, 0
11, 219680, Note_on_c, 11, 62, 78
11, 219743, Note_on_c, 11, 62, 0
11, 219840, Note_on_c, 11, 60, 77
11, 219903, Note_on_c, 11, 60, 0
11, 219999, Note_on_c, 11, 63, 76
11, 220064, Note_on_c, 11, 63, 0
11, 220160, Note_on_c, 11, 60, 74
11, 220223, Note_on_c, 11, 60, 0
11, 220320, Note_on_c, 11, 60, 72
11, 220644, Note_on_c, 11, 60, 0
11, 220800, Note_on_c, 11, 58, 62
11, 221280, Note_on_c, 11, 60, 66
11, 221356, Note_on_c, 11, 58, 0
11, 221644, Note_on_c, 11, 60, 0
11, 221760, Note_on_c, 11, 58, 67
11, 222240, Note_on_c, 11, 58, 0
11, 222240, Note_on_c, 11, 74, 65
11, 222720, Note_on_c, 11, 75, 76
11, 222804, Note_on_c, 11, 74, 0
11, 223076, Note_on_c, 11, 75, 0
11, 223200, Note_on_c, 11, 74, 88
11, 223680, Note_on_c, 11, 74, 0
11, 262080, Note_on_c, 11, 57, 75
11, 264960, Note_on_c, 11, 57, 0
11, 264960, Note_on_c, 11, 58, 75
11, 267840, Note_on_c, 11, 58, 0
11, 267840, Note_on_c, 11, 57, 75
11, 269280, Note_on_c, 11, 57, 0
11, 269280, Note_on_c, 11, 57, 75
11, 270720, Note_on_c, 11, 57, 0
11, 270720, Note_on_c, 11, 58, 75
11, 272160, Note_on_c, 11, 58, 0
11, 272160, Note_on_c, 11, 64, 75
11, 273600, Note_on_c, 11, 64, 0
11, 273600, Note_on_c, 11, 65, 75
11, 274080, Note_on_c, 11, 65, 0
11, 280320, Note_on_c, 11, 77, 75
11, 280512, Note_on_c, 11, 77, 0
11, 280800, Note_on_c, 11, 79, 75
11, 280992, Note_on_c, 11, 79, 0
11, 281760, Note_on_c, 11, 76, 75
11, 281952, Note_on_c, 11, 76, 0
11, 282240, Note_on_c, 11, 77, 75
11, 282432, Note_on_c, 11, 77, 0
11, 283200, Note_on_c, 11, 77, 75
11, 283392, Note_on_c, 11, 77, 0
11, 283680, Note_on_c, 11, 79, 75
11, 283872, Note_on_c, 11, 79, 0
11, 284640, Note_on_c, 11, 76, 75
11, 284832, Note_on_c, 11, 76, 0
11, 285120, Note_on_c, 11, 69, 75
11, 285120, Note_on_c, 11, 77, 75
11, 285216, Note_on_c, 11, 69, 0
11, 285312, Note_on_c, 11, 77, 0
11, 286080, Note_on_c, 11, 77, 75
11, 286176, Note_on_c, 11, 77, 0
11, 286320, Note_on_c, 11, 77, 75
11, 286416, Note_on_c, 11, 77, 0
11, 286560, Note_on_c, 11, 79, 75
11, 286656, Note_on_c, 11, 79, 0
11, 286800, Note_on_c, 11, 79, 75
11, 286896, Note_on_c, 11, 79, 0
11, 287040, Note_on_c, 11, 79, 75
11, 287136, Note_on_c, 11, 79, 0
11, 287280, Note_on_c, 11, 79, 75
11, 287376, Note_on_c, 11, 79, 0
11, 287520, Note_on_c, 11, 76, 75
11, 287616, Note_on_c, 11, 76, 0
11, 287760, Note_on_c, 11, 76, 75
11, 287856, Note_on_c, 11, 76, 0
11, 288000, Note_on_c, 11, 77, 75
11, 288096, Note_on_c, 11, 77, 0
11, 288240, Note_on_c, 11, 77, 75
11, 288336, Note_on_c, 11, 77, 0
11, 288480, Note_on_c, 11, 77, 75
11, 288576, Note_on_c, 11, 77, 0
11, 288720, Note_on_c, 11, 77, 75
11, 288816, Note_on_c, 11, 77, 0
11, 288960, Note_on_c, 11, 77, 75
11, 289056, Note_on_c, 11, 77, 0
11, 289200, Note_on_c, 11, 77, 75
11, 289296, Note_on_c, 11, 77, 0
11, 289440, Note_on_c, 11, 79, 75
11, 289536, Note_on_c, 11, 79, 0
11, 289680, Note_on_c, 11, 79, 75
11, 289776, Note_on_c, 11, 79, 0
11, 289920, Note_on_c, 11, 79, 75
11, 290016, Note_on_c, 11, 79, 0
11, 290160, Note_on_c, 11, 79, 75
11, 290256, Note_on_c, 11, 79, 0
11, 290400, Note_on_c, 11, 76, 75
11, 290496, Note_on_c, 11, 76, 0
11, 290640, Note_on_c, 11, 76, 75
11, 290736, Note_on_c, 11, 76, 0
11, 308158, Control_c, 11, 0, 0
11, 308159, Control_c, 11, 32, 0
11, 308160, Program_c, 11, 45
11, 309532, Control_c, 11, 11, 82
11, 309600, Note_on_c, 11, 69, 88
11, 310080, Note_on_c, 11, 69, 0
11, 310080, Note_on_c, 11, 65, 88
11, 310560, Note_on_c, 11, 65, 0
11, 311040, Note_on_c, 11, 64, 88
11, 311520, Note_on_c, 11, 64, 0
11, 311520, Note_on_c, 11, 70, 88
11, 312000, Note_on_c, 11, 70, 0
11, 312000, Note_on_c, 11, 69, 88
11, 312480, Note_on_c, 11, 69, 0
11, 312960, Note_on_c, 11, 67, 88
11, 313440, Note_on_c, 11, 67, 0
11, 313440, Note_on_c, 11, 70, 88
11, 313920, Note_on_c, 11, 70, 0
11, 313920, Note_on_c, 11, 69, 88
11, 314400, Note_on_c, 11, 69, 0
11, 314400, Note_on_c, 11, 67, 88
11, 314880, Note_on_c, 11, 67, 0
11, 314880, Note_on_c, 11, 65, 88
11, 315360, Note_on_c, 11, 65, 0
11, 315360, Note_on_c, 11, 55, 88
11, 315360, Note_on_c, 11, 64, 88
11, 315360, Note_on_c, 11, 72, 88
11, 315840, Note_on_c, 11, 72, 0
11, 315840, Note_on_c, 11, 64, 0
11, 315840, Note_on_c, 11, 55, 0
11, 315840, Note_on_c, 11, 57, 88
11, 315840, Note_on_c, 11, 65, 88
11, 315840, Note_on_c, 11, 72, 88
11, 316320, Note_on_c, 11, 72, 0
11, 316320, Note_on_c, 11, 65, 0
11, 316320, Note_on_c, 11, 57, 0
11, 316800, Note_on_c, 11, 55, 88
11, 316800, Note_on_c, 11, 64, 88
11, 316800, Note_on_c, 11, 72, 88
11, 317280, Note_on_c, 11, 72, 0
11, 317280, Note_on_c, 11, 64, 0
11, 317280, Note_on_c, 11, 55, 0
11, 317280, Note_on_c, 11, 57, 88
11, 317280, Note_on_c, 11, 65, 88
11, 317280, Note_on_c, 11, 72, 88
11, 317760, Note_on_c, 11, 72, 0
11, 317760, Note_on_c, 11, 65, 0
11, 317760, Note_on_c, 11, 57, 0
11, 318240, Note_on_c, 11, 62, 88
11, 318720, Note_on_c, 11, 62, 0
11, 318720, Note_on_c, 11, 64, 88
11, 319200, Note_on_c, 11, 64, 0
11, 319200, Note_on_c, 11, 65, 88
11, 319680, Note_on_c, 11, 65, 0
11, 319680, Note_on_c, 11, 72, 88
11, 320160, Note_on_c, 11, 72, 0
11, 320160, Note_on_c, 11, 60, 88
11, 320638, Control_c, 11, 0, 0
11, 320639, Control_c, 11, 32, 0
11, 320640, Note_on_c, 11, 60, 0
11, 320640, Program_c, 11, 48
11, 321040, Control_c, 11, 11, 93
11, 321052, Control_c, 11, 11, 96
11, 321072, Control_c, 11, 11, 104
11, 321092, Control_c, 11, 11, 108
11, 321120, Note_on_c, 11, 60, 83
11, 321132, Control_c, 11, 11, 116
11, 321152, Control_c, 11, 11, 120
11, 321168, Control_c, 11, 11, 124
11, 321188, Control_c, 11, 11, 127
11, 321759, Note_on_c, 11, 62, 83
11, 321810, Note_on_c, 11, 60, 0
11, 321920, Note_on_c, 11, 64, 85
11, 321955, Note_on_c, 11, 62, 0
11, 322034, Note_on_c, 11, 64, 0
11, 322080, Note_on_c, 11, 65, 87
11, 322239, Note_on_c, 11, 67, 90
11, 322317, Note_on_c, 11, 65, 0
11, 322400, Note_on_c, 11, 69, 92
11, 322450, Note_on_c, 11, 67, 0
11, 322538, Note_on_c, 11, 69, 0
11, 322560, Note_on_c, 11, 70, 94
11, 323040, Note_on_c, 11, 70, 0
11, 323040, Note_on_c, 11, 58, 88
11, 323520, Note_on_c, 11, 57, 79
11, 323594, Note_on_c, 11, 58, 0
11, 323712, Note_on_c, 11, 57, 0
11, 324000, Note_on_c, 11, 55, 88
11, 324240, Note_on_c, 11, 55, 0
11, 324240, Note_on_c, 11, 62, 88
11, 324480, Note_on_c, 11, 62, 0
11, 324480, Note_on_c, 11, 67, 88
11, 325200, Note_on_c, 11, 70, 76
11, 325242, Note_on_c, 11, 67, 0
11, 325378, Note_on_c, 11, 70, 0
11, 325440, Note_on_c, 11, 69, 88
11, 325920, Note_on_c, 11, 69, 0
11, 325920, Note_on_c, 11, 69, 76
11, 325980, Note_on_c, 11, 67, 85
11, 326009, Note_on_c, 11, 69, 0
11, 326040, Note_on_c, 11, 69, 87
11, 326069, Note_on_c, 11, 67, 0
11, 326100, Note_on_c, 11, 67, 86
11, 326129, Note_on_c, 11, 69, 0
11, 326160, Note_on_c, 11, 65, 82
11, 326189, Note_on_c, 11, 67, 0
11, 326280, Note_on_c, 11, 67, 81
11, 326306, Note_on_c, 11, 65, 0
11, 326400, Note_on_c, 11, 65, 86
11, 326426, Note_on_c, 11, 67, 0
11, 326880, Note_on_c, 11, 65, 0
11, 329919, Note_on_c, 11, 74, 88
11, 329984, Note_on_c, 11, 74, 0
11, 330080, Note_on_c, 11, 72, 88
11, 330143, Note_on_c, 11, 72, 0
11, 330240, Note_on_c, 11, 70, 88
11, 330303, Note_on_c, 11, 70, 0
11, 330399, Note_on_c, 11, 69, 88
11, 330464, Note_on_c, 11, 69, 0
11, 330560, Note_on_c, 11, 67, 88
11, 330623, Note_on_c, 11, 67, 0
11, 330720, Note_on_c, 11, 65, 88
11, 330783, Note_on_c, 11, 65, 0
11, 330879, Note_on_c, 11, 64, 88
11, 330944, Note_on_c, 11, 64, 0
11, 331040, Note_on_c, 11, 62, 88
11, 331103, Note_on_c, 11, 62, 0
11, 331200, Note_on_c, 11, 60, 88
11, 331440, Note_on_c, 11, 59, 78
11, 331492, Note_on_c, 11, 60, 0
11, 331612, Note_on_c, 11, 59, 0
11, 331680, Note_on_c, 11, 58, 88
11, 332160, Note_on_c, 11, 57, 74
11, 332252, Note_on_c, 11, 58, 0
11, 332428, Note_on_c, 11, 57, 0
11, 332640, Note_on_c, 11, 55, 88
11, 332892, Note_on_c, 11, 55, 0
11, 333000, Note_on_c, 11, 70, 95
11, 333120, Note_on_c, 11, 69, 88
11, 333196, Note_on_c, 11, 70, 0
11, 333516, Note_on_c, 11, 69, 0
11, 333600, Note_on_c, 11, 67, 88
11, 333988, Note_on_c, 11, 67, 0
11, 334080, Note_on_c, 11, 65, 88
11, 334484, Note_on_c, 11, 65, 0
11, 334560, Note_on_c, 11, 69, 99
11, 334719, Note_on_c, 11, 69, 0
11, 334719, Note_on_c, 11, 65, 92
11, 334880, Note_on_c, 11, 65, 0
11, 334880, Note_on_c, 11, 60, 86
11, 335040, Note_on_c, 11, 60, 0
11, 335040, Note_on_c, 11, 72, 96
11, 335199, Note_on_c, 11, 72, 0
11, 335199, Note_on_c, 11, 67, 91
11, 335360, Note_on_c, 11, 67, 0
11, 335360, Note_on_c, 11, 64, 85
11, 335520, Note_on_c, 11, 64, 0
11, 335520, Note_on_c, 11, 72, 80
11, 335679, Note_on_c, 11, 72, 0
11, 335679, Note_on_c, 11, 69, 91
11, 335840, Note_on_c, 11, 69, 0
11, 335840, Note_on_c, 11, 65, 86
11, 336000, Note_on_c, 11, 65, 0
11, 336000, Note_on_c, 11, 77, 80
11, 336159, Note_on_c, 11, 77, 0
11, 336159, Note_on_c, 11, 72, 87
11, 336320, Note_on_c, 11, 72, 0
11, 336320, Note_on_c, 11, 69, 95
11, 336480, Note_on_c, 11, 69, 0
11, 336480, Note_on_c, 11, 67, 86
11, 336639, Note_on_c, 11, 67, 0
11, 336639, Note_on_c, 11, 70, 92
11, 336800, Note_on_c, 11, 70, 0
11, 336800, Note_on_c, 11, 67, 97
11, 336960, Note_on_c, 11, 67, 0
11, 336960, Note_on_c, 11, 69, 103
11, 337440, Note_on_c, 11, 69, 0
11, 337440, Note_on_c, 11, 57, 88
11, 337920, Note_on_c, 11, 57, 0
11, 338872, Control_c, 11, 11, 123
11, 338888, Control_c, 11, 11, 126
11, 338888, End_track
12, 0, Start_track
12, 0, Title_t, "Viola"
12, 0, Control_c, 12, 0, 0
12, 0, Control_c, 12, 7, 90
12, 0, Control_c, 12, 10, 45
12, 0, Control_c, 12, 91, 76
12, 0, Control_c, 12, 93, 58
12, 1, Control_c, 12, 32, 1
12, 2, Program_c, 12, 48
12, 12000, Note_on_c, 12, 53, 88
12, 12460, Note_on_c, 12, 53, 0
12, 12480, Note_on_c, 12, 57, 77
12, 12639, Note_on_c, 12, 58, 81
12, 12660, Note_on_c, 12, 57, 0
12, 12800, Note_on_c, 12, 60, 85
12, 12840, Note_on_c, 12, 58, 0
12, 12932, Note_on_c, 12, 60, 0
12, 12960, Note_on_c, 12, 60, 89
12, 13440, Note_on_c, 12, 60, 0
12, 13440, Note_on_c, 12, 67, 88
12, 13920, Note_on_c, 12, 67, 0
12, 13920, Note_on_c, 12, 65, 78
12, 14400, Note_on_c, 12, 65, 0
12, 14880, Note_on_c, 12, 62, 88
12, 15360, Note_on_c, 12, 62, 0
12, 15360, Note_on_c, 12, 55, 88
12, 15840, Note_on_c, 12, 55, 0
12, 15840, Note_on_c, 12, 60, 88
12, 16320, Note_on_c, 12, 60, 0
12, 16320, Note_on_c, 12, 64, 82
12, 16800, Note_on_c, 12, 64, 0
12, 16800, Note_on_c, 12, 65, 88
12, 17280, Note_on_c, 12, 65, 0
12, 17280, Note_on_c, 12, 58, 88
12, 17760, Note_on_c, 12, 58, 0
12, 19200, Note_on_c, 12, 48, 88
12, 19200, Note_on_c, 12, 55, 88
12, 19680, Note_on_c, 12, 55, 0
12, 19680, Note_on_c, 12, 48, 0
12, 20160, Note_on_c, 12, 50, 88
12, 20520, Note_on_c, 12, 50, 0
12, 20520, Note_on_c, 12, 58, 88
12, 20640, Note_on_c, 12, 58, 0
12, 20640, Note_on_c, 12, 60, 88
12, 21120, Note_on_c, 12, 60, 0
12, 21600, Note_on_c, 12, 60, 88
12, 22080, Note_on_c, 12, 60, 0
12, 27840, Note_on_c, 12, 60, 75
12, 28320, Note_on_c, 12, 58, 75
12, 28384, Note_on_c, 12, 60, 0
12, 28744, Note_on_c, 12, 58, 0
12, 28800, Note_on_c, 12, 57, 75
12, 29280, Note_on_c, 12, 57, 0
12, 29280, Note_on_c, 12, 72, 88
12, 29760, Note_on_c, 12, 70, 88
12, 29804, Note_on_c, 12, 72, 0
12, 30172, Note_on_c, 12, 70, 0
12, 30240, Note_on_c, 12, 69, 88
12, 30720, Note_on_c, 12, 69, 0
12, 30720, Note_on_c, 12, 60, 88
12, 31200, Note_on_c, 12, 60, 0
12, 69120, Note_on_c, 12, 48, 64
12, 73440, Note_on_c, 12, 48, 0
12, 73440, Note_on_c, 12, 50, 65
12, 74880, Note_on_c, 12, 50, 0
12, 74880, Note_on_c, 12, 48, 65
12, 76320, Note_on_c, 12, 48, 0
12, 76320, Note_on_c, 12, 64, 66
12, 77760, Note_on_c, 12, 64, 0
12, 77760, Note_on_c, 12, 65, 66
12, 79200, Note_on_c, 12, 65, 0
12, 79200, Note_on_c, 12, 65, 66
12, 80640, Note_on_c, 12, 65, 0
12, 80640, Note_on_c, 12, 60, 69
12, 81120, Note_on_c, 12, 60, 0
12, 82560, Note_on_c, 12, 64, 80
12, 83040, Note_on_c, 12, 64, 0
12, 83040, Note_on_c, 12, 67, 88
12, 83520, Note_on_c, 12, 67, 0
12, 83520, Note_on_c, 12, 60, 71
12, 84000, Note_on_c, 12, 60, 0
12, 104160, Note_on_c, 12, 53, 81
12, 104584, Note_on_c, 12, 53, 0
12, 104640, Note_on_c, 12, 57, 88
12, 104799, Note_on_c, 12, 58, 88
12, 104848, Note_on_c, 12, 57, 0
12, 104960, Note_on_c, 12, 60, 88
12, 105010, Note_on_c, 12, 58, 0
12, 105056, Note_on_c, 12, 60, 0
12, 105120, Note_on_c, 12, 60, 88
12, 105600, Note_on_c, 12, 67, 88
12, 105704, Note_on_c, 12, 60, 0
12, 105864, Note_on_c, 12, 67, 0
12, 106080, Note_on_c, 12, 65, 88
12, 106560, Note_on_c, 12, 65, 0
12, 107040, Note_on_c, 12, 62, 88
12, 107520, Note_on_c, 12, 62, 0
12, 107520, Note_on_c, 12, 55, 88
12, 108000, Note_on_c, 12, 55, 0
12, 108000, Note_on_c, 12, 60, 88
12, 108480, Note_on_c, 12, 64, 88
12, 108572, Note_on_c, 12, 60, 0
12, 108772, Note_on_c, 12, 64, 0
12, 108960, Note_on_c, 12, 65, 88
12, 109440, Note_on_c, 12, 65, 0
12, 109440, Note_on_c, 12, 58, 88
12, 109920, Note_on_c, 12, 58, 0
12, 111360, Note_on_c, 12, 48, 88
12, 111360, Note_on_c, 12, 55, 88
12, 111920, Note_on_c, 12, 55, 0
12, 111932, Note_on_c, 12, 48, 0
12, 112320, Note_on_c, 12, 50, 88
12, 112680, Note_on_c, 12, 50, 0
12, 112680, Note_on_c, 12, 58, 88
12, 112800, Note_on_c, 12, 58, 0
12, 112800, Note_on_c, 12, 60, 88
12, 113280, Note_on_c, 12, 60, 0
12, 113760, Note_on_c, 12, 60, 88
12, 114240, Note_on_c, 12, 60, 0
12, 120000, Note_on_c, 12, 60, 75
12, 120480, Note_on_c, 12, 58, 75
12, 120520, Note_on_c, 12, 60, 0
12, 120816, Note_on_c, 12, 58, 0
12, 120960, Note_on_c, 12, 57, 75
12, 121408, Note_on_c, 12, 57, 0
12, 121440, Note_on_c, 12, 65, 80
12, 121920, Note_on_c, 12, 64, 77
12, 121976, Note_on_c, 12, 65, 0
12, 122248, Note_on_c, 12, 64, 0
12, 122400, Note_on_c, 12, 62, 73
12, 122880, Note_on_c, 12, 62, 0
12, 123840, Note_on_c, 12, 64, 75
12, 124320, Note_on_c, 12, 64, 0
12, 128160, Note_on_c, 12, 62, 75
12, 128640, Note_on_c, 12, 62, 0
12, 129600, Note_on_c, 12, 67, 75
12, 130080, Note_on_c, 12, 67, 0
12, 139680, Note_on_c, 12, 62, 75
12, 140160, Note_on_c, 12, 62, 0
12, 141120, Note_on_c, 12, 67, 75
12, 141600, Note_on_c, 12, 67, 0
12, 142560, Note_on_c, 12, 62, 75
12, 143040, Note_on_c, 12, 62, 0
12, 144000, Note_on_c, 12, 67, 75
12, 144480, Note_on_c, 12, 67, 0
12, 145440, Note_on_c, 12, 62, 75
12, 145920, Note_on_c, 12, 70, 75
12, 145986, Note_on_c, 12, 62, 0
12, 146400, Note_on_c, 12, 69, 75
12, 146458, Note_on_c, 12, 70, 0
12, 146640, Note_on_c, 12, 67, 75
12, 146674, Note_on_c, 12, 69, 0
12, 146786, Note_on_c, 12, 67, 0
12, 146880, Note_on_c, 12, 65, 75
12, 147360, Note_on_c, 12, 65, 0
12, 148298, Control_c, 12, 7, 90
12, 148320, Note_on_c, 12, 62, 88
12, 148414, Control_c, 12, 7, 89
12, 148542, Control_c, 12, 7, 83
12, 148574, Control_c, 12, 7, 78
12, 148622, Control_c, 12, 7, 68
12, 148654, Control_c, 12, 7, 61
12, 148678, Control_c, 12, 7, 53
12, 149760, Note_on_c, 12, 64, 75
12, 149826, Note_on_c, 12, 62, 0
12, 150240, Note_on_c, 12, 64, 0
12, 150570, Control_c, 12, 7, 91
12, 151162, Control_c, 12, 7, 91
12, 151200, Note_on_c, 12, 50, 88
12, 151242, Control_c, 12, 7, 87
12, 151262, Control_c, 12, 7, 88
12, 151654, Control_c, 12, 7, 77
12, 151662, Control_c, 12, 7, 73
12, 151686, Control_c, 12, 7, 69
12, 152640, Note_on_c, 12, 52, 75
12, 152698, Note_on_c, 12, 50, 0
12, 153120, Note_on_c, 12, 52, 0
12, 153178, Control_c, 12, 7, 90
12, 154080, Note_on_c, 12, 69, 67
12, 154320, Note_on_c, 12, 68, 57
12, 154368, Note_on_c, 12, 69, 0
12, 154560, Note_on_c, 12, 69, 67
12, 154608, Note_on_c, 12, 68, 0
12, 154800, Note_on_c, 12, 68, 58
12, 154848, Note_on_c, 12, 69, 0
12, 155040, Note_on_c, 12, 69, 67
12, 155088, Note_on_c, 12, 68, 0
12, 155280, Note_on_c, 12, 68, 60
12, 155328, Note_on_c, 12, 69, 0
12, 155448, Note_on_c, 12, 68, 0
12, 155520, Note_on_c, 12, 69, 64
12, 156000, Note_on_c, 12, 69, 0
12, 180000, Note_on_c, 12, 65, 73
12, 180480, Note_on_c, 12, 65, 0
12, 180480, Note_on_c, 12, 53, 88
12, 180960, Note_on_c, 12, 53, 0
12, 181440, Note_on_c, 12, 64, 88
12, 181920, Note_on_c, 12, 67, 88
12, 181976, Note_on_c, 12, 64, 0
12, 182400, Note_on_c, 12, 65, 88
12, 182464, Note_on_c, 12, 67, 0
12, 182776, Note_on_c, 12, 65, 0
12, 182880, Note_on_c, 12, 62, 75
12, 183840, Note_on_c, 12, 62, 0
12, 183840, Note_on_c, 12, 55, 75
12, 184320, Note_on_c, 12, 55, 0
12, 184320, Note_on_c, 12, 60, 75
12, 184800, Note_on_c, 12, 60, 0
12, 185040, Note_on_c, 12, 64, 75
12, 185520, Note_on_c, 12, 64, 0
12, 185520, Note_on_c, 12, 65, 75
12, 185760, Note_on_c, 12, 65, 0
12, 185760, Note_on_c, 12, 58, 88
12, 185760, Note_on_c, 12, 62, 88
12, 186240, Note_on_c, 12, 62, 0
12, 186240, Note_on_c, 12, 58, 0
12, 188640, Note_on_c, 12, 55, 88
12, 189000, Note_on_c, 12, 55, 0
12, 189000, Note_on_c, 12, 58, 88
12, 189120, Note_on_c, 12, 58, 0
12, 189600, Note_on_c, 12, 60, 88
12, 190040, Note_on_c, 12, 60, 0
12, 190080, Note_on_c, 12, 60, 88
12, 190288, Note_on_c, 12, 60, 0
12, 190560, Note_on_c, 12, 60, 88
12, 190744, Note_on_c, 12, 60, 0
12, 191040, Note_on_c, 12, 65, 88
12, 191224, Note_on_c, 12, 65, 0
12, 191520, Note_on_c, 12, 65, 88
12, 191583, Note_on_c, 12, 65, 0
12, 191679, Note_on_c, 12, 65, 84
12, 191744, Note_on_c, 12, 65, 0
12, 191840, Note_on_c, 12, 65, 79
12, 191903, Note_on_c, 12, 65, 0
12, 192000, Note_on_c, 12, 65, 74
12, 192480, Note_on_c, 12, 65, 0
12, 195840, Note_on_c, 12, 58, 64
12, 197280, Note_on_c, 12, 57, 61
12, 197356, Note_on_c, 12, 58, 0
12, 198580, Note_on_c, 12, 57, 0
12, 198720, Note_on_c, 12, 58, 65
12, 200160, Note_on_c, 12, 53, 60
12, 200228, Note_on_c, 12, 58, 0
12, 201532, Note_on_c, 12, 53, 0
12, 201600, Note_on_c, 12, 55, 60
12, 202080, Note_on_c, 12, 53, 60
12, 202164, Note_on_c, 12, 55, 0
12, 202560, Note_on_c, 12, 51, 60
12, 202644, Note_on_c, 12, 53, 0
12, 202956, Note_on_c, 12, 51, 0
12, 203040, Note_on_c, 12, 50, 60
12, 204000, Note_on_c, 12, 51, 60
12, 204076, Note_on_c, 12, 50, 0
12, 204436, Note_on_c, 12, 51, 0
12, 204480, Note_on_c, 12, 53, 60
12, 206316, Note_on_c, 12, 53, 0
12, 206400, Note_on_c, 12, 53, 60
12, 206788, Note_on_c, 12, 53, 0
12, 206880, Note_on_c, 12, 53, 60
12, 207260, Note_on_c, 12, 53, 0
12, 207360, Note_on_c, 12, 53, 60
12, 207780, Note_on_c, 12, 53, 0
12, 208800, Note_on_c, 12, 63, 60
12, 210240, Note_on_c, 12, 62, 61
12, 210334, Note_on_c, 12, 63, 0
12, 211680, Note_on_c, 12, 60, 61
12, 211766, Note_on_c, 12, 62, 0
12, 213014, Note_on_c, 12, 60, 0
12, 213120, Note_on_c, 12, 58, 61
12, 213600, Note_on_c, 12, 57, 61
12, 213686, Note_on_c, 12, 58, 0
12, 214080, Note_on_c, 12, 55, 61
12, 214166, Note_on_c, 12, 57, 0
12, 214462, Note_on_c, 12, 55, 0
12, 214560, Note_on_c, 12, 53, 61
12, 215040, Note_on_c, 12, 53, 0
12, 216000, Note_on_c, 12, 65, 61
12, 217920, Note_on_c, 12, 65, 0
12, 218880, Note_on_c, 12, 65, 61
12, 220800, Note_on_c, 12, 65, 0
12, 220800, Note_on_c, 12, 53, 65
12, 221280, Note_on_c, 12, 51, 61
12, 221356, Note_on_c, 12, 53, 0
12, 221668, Note_on_c, 12, 51, 0
12, 221760, Note_on_c, 12, 50, 66
12, 222240, Note_on_c, 12, 50, 0
12, 222240, Note_on_c, 12, 65, 65
12, 222720, Note_on_c, 12, 72, 67
12, 222796, Note_on_c, 12, 65, 0
12, 223116, Note_on_c, 12, 72, 0
12, 223200, Note_on_c, 12, 70, 76
12, 223680, Note_on_c, 12, 70, 0
12, 223680, Note_on_c, 12, 58, 84
12, 223680, Note_on_c, 12, 65, 84
12, 224160, Note_on_c, 12, 65, 0
12, 224160, Note_on_c, 12, 58, 0
12, 262080, Note_on_c, 12, 53, 75
12, 266400, Note_on_c, 12, 53, 0
12, 266400, Note_on_c, 12, 55, 75
12, 267840, Note_on_c, 12, 55, 0
12, 267840, Note_on_c, 12, 53, 75
12, 269280, Note_on_c, 12, 53, 0
12, 269280, Note_on_c, 12, 48, 75
12, 270720, Note_on_c, 12, 48, 0
12, 270720, Note_on_c, 12, 50, 75
12, 272160, Note_on_c, 12, 50, 0
12, 272160, Note_on_c, 12, 55, 75
12, 273600, Note_on_c, 12, 55, 0
12, 273600, Note_on_c, 12, 53, 75
12, 274080, Note_on_c, 12, 53, 0
12, 280320, Note_on_c, 12, 62, 75
12, 280512, Note_on_c, 12, 62, 0
12, 280800, Note_on_c, 12, 62, 75
12, 280992, Note_on_c, 12, 62, 0
12, 281760, Note_on_c, 12, 60, 75
12, 281952, Note_on_c, 12, 60, 0
12, 282240, Note_on_c, 12, 57, 75
12, 282432, Note_on_c, 12, 57, 0
12, 283200, Note_on_c, 12, 62, 75
12, 283392, Note_on_c, 12, 62, 0
12, 283680, Note_on_c, 12, 62, 75
12, 283872, Note_on_c, 12, 62, 0
12, 284640, Note_on_c, 12, 60, 75
12, 284832, Note_on_c, 12, 60, 0
12, 285120, Note_on_c, 12, 60, 75
12, 285312, Note_on_c, 12, 60, 0
12, 286080, Note_on_c, 12, 62, 75
12, 286176, Note_on_c, 12, 62, 0
12, 286320, Note_on_c, 12, 62, 75
12, 286416, Note_on_c, 12, 62, 0
12, 286560, Note_on_c, 12, 62, 75
12, 286656, Note_on_c, 12, 62, 0
12, 286800, Note_on_c, 12, 62, 75
12, 286896, Note_on_c, 12, 62, 0
12, 287040, Note_on_c, 12, 62, 75
12, 287136, Note_on_c, 12, 62, 0
12, 287280, Note_on_c, 12, 62, 75
12, 287376, Note_on_c, 12, 62, 0
12, 287520, Note_on_c, 12, 60, 75
12, 287616, Note_on_c, 12, 60, 0
12, 287760, Note_on_c, 12, 60, 75
12, 287856, Note_on_c, 12, 60, 0
12, 288000, Note_on_c, 12, 57, 75
12, 288096, Note_on_c, 12, 57, 0
12, 288240, Note_on_c, 12, 57, 75
12, 288336, Note_on_c, 12, 57, 0
12, 288480, Note_on_c, 12, 57, 75
12, 288576, Note_on_c, 12, 57, 0
12, 288720, Note_on_c, 12, 57, 75
12, 288816, Note_on_c, 12, 57, 0
12, 288960, Note_on_c, 12, 62, 75
12, 289056, Note_on_c, 12, 62, 0
12, 289200, Note_on_c, 12, 62, 75
12, 289296, Note_on_c, 12, 62, 0
12, 289440, Note_on_c, 12, 62, 75
12, 289536, Note_on_c, 12, 62, 0
12, 289680, Note_on_c, 12, 62, 75
12, 289776, Note_on_c, 12, 62, 0
12, 289920, Note_on_c, 12, 62, 75
12, 290016, Note_on_c, 12, 62, 0
12, 290160, Note_on_c, 12, 62, 75
12, 290256, Note_on_c, 12, 62, 0
12, 290400, Note_on_c, 12, 60, 75
12, 290496, Note_on_c, 12, 60, 0
12, 290640, Note_on_c, 12, 60, 75
12, 290736, Note_on_c, 12, 60, 0
12, 290880, Note_on_c, 12, 60, 75
12, 291072, Note_on_c, 12, 60, 0
12, 291360, Note_on_c, 12, 57, 75
12, 291552, Note_on_c, 12, 57, 0
12, 291840, Note_on_c, 12, 60, 75
12, 292032, Note_on_c, 12, 60, 0
12, 292320, Note_on_c, 12, 65, 88
12, 292512, Note_on_c, 12, 65, 0
12, 292800, Note_on_c, 12, 69, 88
12, 292992, Note_on_c, 12, 69, 0
12, 293280, Note_on_c, 12, 72, 88
12, 293472, Note_on_c, 12, 72, 0
12, 293760, Note_on_c, 12, 65, 88
12, 294240, Note_on_c, 12, 65, 0
12, 308158, Control_c, 12, 0, 0
12, 308159, Control_c, 12, 32, 0
12, 308160, Program_c, 12, 45
12, 309512, Control_c, 12, 11, 83
12, 309600, Note_on_c, 12, 65, 88
12, 310080, Note_on_c, 12, 65, 0
12, 310080, Note_on_c, 12, 60, 88
12, 310560, Note_on_c, 12, 60, 0
12, 311040, Note_on_c, 12, 60, 88
12, 311520, Note_on_c, 12, 60, 0
12, 311520, Note_on_c, 12, 67, 88
12, 312000, Note_on_c, 12, 67, 0
12, 312000, Note_on_c, 12, 65, 88
12, 312480, Note_on_c, 12, 65, 0
12, 312960, Note_on_c, 12, 62, 88
12, 313440, Note_on_c, 12, 62, 0
12, 313440, Note_on_c, 12, 55, 88
12, 313920, Note_on_c, 12, 55, 0
12, 313920, Note_on_c, 12, 60, 88
12, 314400, Note_on_c, 12, 60, 0
12, 314400, Note_on_c, 12, 64, 88
12, 314880, Note_on_c, 12, 64, 0
12, 314880, Note_on_c, 12, 65, 88
12, 315360, Note_on_c, 12, 65, 0
12, 315360, Note_on_c, 12, 48, 88
12, 315360, Note_on_c, 12, 60, 88
12, 315840, Note_on_c, 12, 60, 0
12, 315840, Note_on_c, 12, 48, 0
12, 315840, Note_on_c, 12, 48, 88
12, 315840, Note_on_c, 12, 60, 88
12, 316320, Note_on_c, 12, 60, 0
12, 316320, Note_on_c, 12, 48, 0
12, 316800, Note_on_c, 12, 48, 88
12, 316800, Note_on_c, 12, 60, 88
12, 317280, Note_on_c, 12, 60, 0
12, 317280, Note_on_c, 12, 48, 0
12, 317280, Note_on_c, 12, 48, 88
12, 317280, Note_on_c, 12, 60, 88
12, 317760, Note_on_c, 12, 60, 0
12, 317760, Note_on_c, 12, 48, 0
12, 318240, Note_on_c, 12, 55, 88
12, 318720, Note_on_c, 12, 55, 0
12, 318720, Note_on_c, 12, 48, 88
12, 319200, Note_on_c, 12, 48, 0
12, 319200, Note_on_c, 12, 53, 88
12, 319440, Note_on_c, 12, 53, 0
12, 319440, Note_on_c, 12, 57, 88
12, 319680, Note_on_c, 12, 57, 0
12, 319680, Note_on_c, 12, 60, 88
12, 320160, Note_on_c, 12, 60, 0
12, 320160, Note_on_c, 12, 48, 88
12, 320638, Control_c, 12, 0, 0
12, 320639, Control_c, 12, 32, 0
12, 320640, Note_on_c, 12, 48, 0
12, 320640, Program_c, 12, 48
12, 321028, Control_c, 12, 11, 83
12, 321044, Control_c, 12, 11, 86
12, 321064, Control_c, 12, 11, 98
12, 321084, Control_c, 12, 11, 101
12, 321120, Note_on_c, 12, 57, 79
12, 321124, Control_c, 12, 11, 109
12, 321160, Control_c, 12, 11, 113
12, 321180, Control_c, 12, 11, 117
12, 321220, Control_c, 12, 11, 125
12, 321252, Control_c, 12, 11, 127
12, 321759, Note_on_c, 12, 58, 81
12, 321818, Note_on_c, 12, 57, 0
12, 321920, Note_on_c, 12, 60, 83
12, 321955, Note_on_c, 12, 58, 0
12, 322034, Note_on_c, 12, 60, 0
12, 322080, Note_on_c, 12, 62, 85
12, 322239, Note_on_c, 12, 64, 87
12, 322274, Note_on_c, 12, 62, 0
12, 322400, Note_on_c, 12, 65, 89
12, 322435, Note_on_c, 12, 64, 0
12, 322522, Note_on_c, 12, 65, 0
12, 322560, Note_on_c, 12, 67, 92
12, 323520, Note_on_c, 12, 65, 78
12, 323586, Note_on_c, 12, 67, 0
12, 323712, Note_on_c, 12, 65, 0
12, 324000, Note_on_c, 12, 58, 88
12, 324240, Note_on_c, 12, 55, 76
12, 324290, Note_on_c, 12, 58, 0
12, 324402, Note_on_c, 12, 55, 0
12, 324480, Note_on_c, 12, 62, 88
12, 324960, Note_on_c, 12, 55, 83
12, 325050, Note_on_c, 12, 62, 0
12, 325322, Note_on_c, 12, 55, 0
12, 325440, Note_on_c, 12, 60, 88
12, 325920, Note_on_c, 12, 64, 80
12, 325994, Note_on_c, 12, 60, 0
12, 326298, Note_on_c, 12, 64, 0
12, 326400, Note_on_c, 12, 65, 91
12, 326594, Note_on_c, 12, 65, 0
12, 326880, Note_on_c, 12, 58, 86
12, 326880, Note_on_c, 12, 62, 86
12, 327360, Note_on_c, 12, 62, 0
12, 327360, Note_on_c, 12, 58, 0
12, 328800, Note_on_c, 12, 48, 88
12, 328800, Note_on_c, 12, 55, 88
12, 329280, Note_on_c, 12, 55, 0
12, 329280, Note_on_c, 12, 48, 0
12, 329760, Note_on_c, 12, 58, 88
12, 329760, Note_on_c, 12, 62, 88
12, 330240, Note_on_c, 12, 62, 0
12, 330240, Note_on_c, 12, 58, 0
12, 333000, Note_on_c, 12, 58, 88
12, 333120, Note_on_c, 12, 58, 0
12, 333600, Note_on_c, 12, 60, 88
12, 334004, Note_on_c, 12, 60, 0
12, 334080, Note_on_c, 12, 60, 88
12, 334468, Note_on_c, 12, 60, 0
12, 334560, Note_on_c, 12, 60, 88
12, 334932, Note_on_c, 12, 60, 0
12, 335040, Note_on_c, 12, 60, 88
12, 335388, Note_on_c, 12, 60, 0
12, 335520, Note_on_c, 12, 60, 88
12, 336000, Note_on_c, 12, 60, 0
12, 336480, Note_on_c, 12, 60, 88
12, 336788, Note_on_c, 12, 60, 0
12, 336960, Note_on_c, 12, 60, 88
12, 337276, Note_on_c, 12, 60, 0
12, 337440, Note_on_c, 12, 60, 88
12, 337920, Note_on_c, 12, 60, 0
12, 337920, End_track
13, 0, Start_track
13, 0, Title_t, "Celli"
13, 0, Control_c, 13, 0, 0
13, 0, Control_c, 13, 7, 85
13, 0, Control_c, 13, 10, 65
13, 0, Control_c, 13, 91, 85
13, 0, Control_c, 13, 93, 76
13, 1, Control_c, 13, 32, 1
13, 2, Program_c, 13, 48
13, 12000, Note_on_c, 13, 57, 88
13, 12480, Note_on_c, 13, 57, 0
13, 12480, Note_on_c, 13, 53, 88
13, 12960, Note_on_c, 13, 53, 0
13, 12960, Note_on_c, 13, 48, 88
13, 13440, Note_on_c, 13, 49, 88
13, 13492, Note_on_c, 13, 48, 0
13, 13892, Note_on_c, 13, 49, 0
13, 13920, Note_on_c, 13, 50, 88
13, 14400, Note_on_c, 13, 50, 0
13, 14880, Note_on_c, 13, 55, 88
13, 15360, Note_on_c, 13, 55, 0
13, 15360, Note_on_c, 13, 53, 88
13, 15840, Note_on_c, 13, 53, 0
13, 15840, Note_on_c, 13, 52, 88
13, 16320, Note_on_c, 13, 48, 88
13, 16372, Note_on_c, 13, 52, 0
13, 16744, Note_on_c, 13, 48, 0
13, 16800, Note_on_c, 13, 53, 88
13, 17280, Note_on_c, 13, 53, 0
13, 17280, Note_on_c, 13, 46, 81
13, 17760, Note_on_c, 13, 46, 0
13, 19200, Note_on_c, 13, 52, 88
13, 19680, Note_on_c, 13, 53, 88
13, 19724, Note_on_c, 13, 52, 0
13, 19872, Note_on_c, 13, 53, 0
13, 20160, Note_on_c, 13, 58, 88
13, 20640, Note_on_c, 13, 58, 0
13, 20640, Note_on_c, 13, 60, 88
13, 21120, Note_on_c, 13, 60, 0
13, 21120, Note_on_c, 13, 48, 88
13, 21600, Note_on_c, 13, 48, 0
13, 21600, Note_on_c, 13, 53, 88
13, 22080, Note_on_c, 13, 53, 0
13, 22080, Note_on_c, 13, 41, 88
13, 22560, Note_on_c, 13, 41, 0
13, 27840, Note_on_c, 13, 45, 75
13, 28320, Note_on_c, 13, 48, 75
13, 28352, Note_on_c, 13, 45, 0
13, 28752, Note_on_c, 13, 48, 0
13, 28800, Note_on_c, 13, 53, 75
13, 29280, Note_on_c, 13, 53, 0
13, 29280, Note_on_c, 13, 60, 88
13, 29760, Note_on_c, 13, 48, 88
13, 29804, Note_on_c, 13, 60, 0
13, 30204, Note_on_c, 13, 48, 0
13, 30240, Note_on_c, 13, 53, 88
13, 30720, Note_on_c, 13, 53, 0
13, 30720, Note_on_c, 13, 41, 88
13, 31200, Note_on_c, 13, 41, 0
13, 69120, Note_on_c, 13, 48, 63
13, 69600, Note_on_c, 13, 48, 0
13, 70560, Note_on_c, 13, 48, 63
13, 71040, Note_on_c, 13, 48, 0
13, 72000, Note_on_c, 13, 48, 64
13, 72480, Note_on_c, 13, 48, 0
13, 73440, Note_on_c, 13, 48, 65
13, 73920, Note_on_c, 13, 48, 0
13, 74880, Note_on_c, 13, 48, 65
13, 75360, Note_on_c, 13, 48, 0
13, 76320, Note_on_c, 13, 48, 66
13, 76800, Note_on_c, 13, 48, 0
13, 77760, Note_on_c, 13, 48, 67
13, 78240, Note_on_c, 13, 48, 0
13, 79200, Note_on_c, 13, 48, 67
13, 79680, Note_on_c, 13, 48, 0
13, 80640, Note_on_c, 13, 48, 65
13, 81120, Note_on_c, 13, 48, 0
13, 81120, Note_on_c, 13, 52, 70
13, 81600, Note_on_c, 13, 52, 0
13, 81600, Note_on_c, 13, 55, 75
13, 82080, Note_on_c, 13, 55, 0
13, 82080, Note_on_c, 13, 60, 79
13, 82560, Note_on_c, 13, 60, 0
13, 82560, Note_on_c, 13, 52, 84
13, 83040, Note_on_c, 13, 52, 0
13, 83040, Note_on_c, 13, 55, 88
13, 83520, Note_on_c, 13, 55, 0
13, 83520, Note_on_c, 13, 48, 73
13, 84000, Note_on_c, 13, 48, 0
13, 104160, Note_on_c, 13, 57, 81
13, 104640, Note_on_c, 13, 57, 0
13, 104640, Note_on_c, 13, 53, 88
13, 105120, Note_on_c, 13, 53, 0
13, 105120, Note_on_c, 13, 48, 88
13, 105600, Note_on_c, 13, 49, 74
13, 105684, Note_on_c, 13, 48, 0
13, 105860, Note_on_c, 13, 49, 0
13, 106080, Note_on_c, 13, 50, 88
13, 106560, Note_on_c, 13, 50, 0
13, 107040, Note_on_c, 13, 55, 88
13, 107520, Note_on_c, 13, 55, 0
13, 107520, Note_on_c, 13, 53, 88
13, 108000, Note_on_c, 13, 53, 0
13, 108000, Note_on_c, 13, 52, 88
13, 108480, Note_on_c, 13, 48, 74
13, 108552, Note_on_c, 13, 52, 0
13, 108764, Note_on_c, 13, 48, 0
13, 108960, Note_on_c, 13, 53, 88
13, 109440, Note_on_c, 13, 53, 0
13, 109440, Note_on_c, 13, 46, 88
13, 109920, Note_on_c, 13, 46, 0
13, 111360, Note_on_c, 13, 52, 88
13, 111840, Note_on_c, 13, 53, 76
13, 111924, Note_on_c, 13, 52, 0
13, 112320, Note_on_c, 13, 53, 0
13, 112320, Note_on_c, 13, 58, 88
13, 112800, Note_on_c, 13, 58, 0
13, 112800, Note_on_c, 13, 60, 88
13, 113280, Note_on_c, 13, 60, 0
13, 113280, Note_on_c, 13, 48, 88
13, 113760, Note_on_c, 13, 48, 0
13, 113760, Note_on_c, 13, 53, 88
13, 114240, Note_on_c, 13, 53, 0
13, 114240, Note_on_c, 13, 41, 105
13, 114720, Note_on_c, 13, 41, 0
13, 120000, Note_on_c, 13, 45, 75
13, 120480, Note_on_c, 13, 48, 75
13, 120544, Note_on_c, 13, 45, 0
13, 120840, Note_on_c, 13, 48, 0
13, 120960, Note_on_c, 13, 53, 75
13, 121432, Note_on_c, 13, 53, 0
13, 121440, Note_on_c, 13, 60, 88
13, 121896, Note_on_c, 13, 60, 0
13, 121920, Note_on_c, 13, 57, 88
13, 122400, Note_on_c, 13, 57, 0
13, 122400, Note_on_c, 13, 62, 80
13, 122880, Note_on_c, 13, 62, 0
13, 123840, Note_on_c, 13, 61, 75
13, 124320, Note_on_c, 13, 61, 0
13, 128160, Note_on_c, 13, 62, 75
13, 128640, Note_on_c, 13, 62, 0
13, 129600, Note_on_c, 13, 61, 75
13, 130080, Note_on_c, 13, 61, 0
13, 133200, Note_on_c, 13, 57, 88
13, 133296, Note_on_c, 13, 57, 0
13, 133440, Note_on_c, 13, 49, 88
13, 133536, Note_on_c, 13, 49, 0
13, 133680, Note_on_c, 13, 52, 88
13, 133776, Note_on_c, 13, 52, 0
13, 133920, Note_on_c, 13, 45, 88
13, 134400, Note_on_c, 13, 45, 0
13, 139680, Note_on_c, 13, 62, 75
13, 140160, Note_on_c, 13, 62, 0
13, 141120, Note_on_c, 13, 61, 75
13, 141600, Note_on_c, 13, 61, 0
13, 142560, Note_on_c, 13, 62, 75
13, 143040, Note_on_c, 13, 62, 0
13, 144000, Note_on_c, 13, 61, 75
13, 144480, Note_on_c, 13, 61, 0
13, 145440, Note_on_c, 13, 62, 75
13, 145920, Note_on_c, 13, 55, 75
13, 146010, Note_on_c, 13, 62, 0
13, 146242, Note_on_c, 13, 55, 0
13, 146400, Note_on_c, 13, 57, 75
13, 146880, Note_on_c, 13, 57, 0
13, 146880, Note_on_c, 13, 50, 75
13, 147360, Note_on_c, 13, 50, 0
13, 148314, Control_c, 13, 7, 87
13, 148320, Note_on_c, 13, 58, 88
13, 148370, Control_c, 13, 7, 83
13, 148374, Control_c, 13, 7, 82
13, 148502, Control_c, 13, 7, 80
13, 148582, Control_c, 13, 7, 74
13, 148590, Control_c, 13, 7, 71
13, 148614, Control_c, 13, 7, 65
13, 148646, Control_c, 13, 7, 62
13, 148678, Control_c, 13, 7, 58
13, 149760, Note_on_c, 13, 57, 75
13, 149818, Note_on_c, 13, 58, 0
13, 150240, Note_on_c, 13, 57, 0
13, 150458, Control_c, 13, 7, 85
13, 151178, Control_c, 13, 7, 85
13, 151200, Note_on_c, 13, 46, 88
13, 151226, Control_c, 13, 7, 89
13, 151310, Control_c, 13, 7, 86
13, 151558, Control_c, 13, 7, 71
13, 151590, Control_c, 13, 7, 64
13, 151622, Control_c, 13, 7, 60
13, 152640, Note_on_c, 13, 45, 75
13, 152714, Note_on_c, 13, 46, 0
13, 153120, Note_on_c, 13, 45, 0
13, 153194, Control_c, 13, 7, 85
13, 154080, Note_on_c, 13, 57, 66
13, 154320, Note_on_c, 13, 56, 61
13, 154375, Note_on_c, 13, 57, 0
13, 154560, Note_on_c, 13, 57, 66
13, 154615, Note_on_c, 13, 56, 0
13, 154800, Note_on_c, 13, 56, 54
13, 154855, Note_on_c, 13, 57, 0
13, 155040, Note_on_c, 13, 57, 66
13, 155095, Note_on_c, 13, 56, 0
13, 155280, Note_on_c, 13, 56, 58
13, 155335, Note_on_c, 13, 57, 0
13, 155440, Note_on_c, 13, 56, 0
13, 155520, Note_on_c, 13, 57, 61
13, 156000, Note_on_c, 13, 57, 0
13, 180000, Note_on_c, 13, 65, 72
13, 180480, Note_on_c, 13, 65, 0
13, 180480, Note_on_c, 13, 53, 88
13, 180960, Note_on_c, 13, 53, 0
13, 181440, Note_on_c, 13, 60, 88
13, 181920, Note_on_c, 13, 61, 88
13, 181984, Note_on_c, 13, 60, 0
13, 182312, Note_on_c, 13, 61, 0
13, 182400, Note_on_c, 13, 62, 88
13, 182616, Note_on_c, 13, 62, 0
13, 183360, Note_on_c, 13, 55, 75
13, 183840, Note_on_c, 13, 55, 0
13, 183840, Note_on_c, 13, 53, 75
13, 184320, Note_on_c, 13, 53, 0
13, 184320, Note_on_c, 13, 52, 75
13, 184800, Note_on_c, 13, 52, 0
13, 184800, Note_on_c, 13, 48, 75
13, 185280, Note_on_c, 13, 48, 0
13, 185280, Note_on_c, 13, 53, 75
13, 185760, Note_on_c, 13, 53, 0
13, 185760, Note_on_c, 13, 58, 88
13, 186240, Note_on_c, 13, 58, 0
13, 187200, Note_on_c, 13, 60, 88
13, 187440, Note_on_c, 13, 59, 88
13, 187464, Note_on_c, 13, 60, 0
13, 187536, Note_on_c, 13, 59, 0
13, 187680, Note_on_c, 13, 58, 88
13, 188160, Note_on_c, 13, 58, 0
13, 188160, Note_on_c, 13, 57, 88
13, 188640, Note_on_c, 13, 57, 0
13, 188640, Note_on_c, 13, 58, 88
13, 189120, Note_on_c, 13, 58, 0
13, 189120, Note_on_c, 13, 60, 88
13, 189600, Note_on_c, 13, 60, 0
13, 189600, Note_on_c, 13, 48, 88
13, 190080, Note_on_c, 13, 48, 0
13, 190080, Note_on_c, 13, 53, 88
13, 190344, Note_on_c, 13, 53, 0
13, 190560, Note_on_c, 13, 52, 88
13, 190800, Note_on_c, 13, 52, 0
13, 191040, Note_on_c, 13, 51, 88
13, 191224, Note_on_c, 13, 51, 0
13, 191520, Note_on_c, 13, 50, 91
13, 191583, Note_on_c, 13, 50, 0
13, 191679, Note_on_c, 13, 48, 85
13, 191744, Note_on_c, 13, 48, 0
13, 191840, Note_on_c, 13, 46, 78
13, 191903, Note_on_c, 13, 46, 0
13, 192000, Note_on_c, 13, 45, 72
13, 192480, Note_on_c, 13, 45, 0
13, 207360, Note_on_c, 13, 58, 61
13, 208800, Note_on_c, 13, 57, 61
13, 208910, Note_on_c, 13, 58, 0
13, 210166, Note_on_c, 13, 57, 0
13, 210240, Note_on_c, 13, 58, 61
13, 211680, Note_on_c, 13, 53, 61
13, 211758, Note_on_c, 13, 58, 0
13, 213030, Note_on_c, 13, 53, 0
13, 213120, Note_on_c, 13, 55, 61
13, 213600, Note_on_c, 13, 53, 61
13, 213646, Note_on_c, 13, 55, 0
13, 214080, Note_on_c, 13, 51, 61
13, 214166, Note_on_c, 13, 53, 0
13, 214486, Note_on_c, 13, 51, 0
13, 214560, Note_on_c, 13, 50, 61
13, 215040, Note_on_c, 13, 50, 0
13, 216000, Note_on_c, 13, 53, 61
13, 216332, Note_on_c, 13, 53, 0
13, 216480, Note_on_c, 13, 53, 61
13, 216804, Note_on_c, 13, 53, 0
13, 216960, Note_on_c, 13, 53, 61
13, 217236, Note_on_c, 13, 53, 0
13, 217440, Note_on_c, 13, 58, 61
13, 217812, Note_on_c, 13, 58, 0
13, 218880, Note_on_c, 13, 53, 61
13, 219228, Note_on_c, 13, 53, 0
13, 219360, Note_on_c, 13, 53, 61
13, 219692, Note_on_c, 13, 53, 0
13, 219840, Note_on_c, 13, 53, 61
13, 220124, Note_on_c, 13, 53, 0
13, 220320, Note_on_c, 13, 58, 61
13, 220740, Note_on_c, 13, 58, 0
13, 220800, Note_on_c, 13, 50, 61
13, 221280, Note_on_c, 13, 53, 61
13, 221364, Note_on_c, 13, 50, 0
13, 221652, Note_on_c, 13, 53, 0
13, 221760, Note_on_c, 13, 58, 61
13, 222240, Note_on_c, 13, 58, 0
13, 222720, Note_on_c, 13, 53, 67
13, 223200, Note_on_c, 13, 53, 0
13, 223200, Note_on_c, 13, 58, 78
13, 223680, Note_on_c, 13, 58, 0
13, 223680, Note_on_c, 13, 46, 89
13, 224160, Note_on_c, 13, 46, 0
13, 262080, Note_on_c, 13, 53, 75
13, 262560, Note_on_c, 13, 53, 0
13, 263520, Note_on_c, 13, 53, 75
13, 264000, Note_on_c, 13, 53, 0
13, 264960, Note_on_c, 13, 53, 75
13, 265440, Note_on_c, 13, 53, 0
13, 266400, Note_on_c, 13, 53, 75
13, 266880, Note_on_c, 13, 53, 0
13, 267840, Note_on_c, 13, 53, 75
13, 268320, Note_on_c, 13, 53, 0
13, 269280, Note_on_c, 13, 53, 75
13, 269760, Note_on_c, 13, 53, 0
13, 270720, Note_on_c, 13, 53, 75
13, 271200, Note_on_c, 13, 53, 0
13, 272160, Note_on_c, 13, 53, 75
13, 272640, Note_on_c, 13, 53, 0
13, 273600, Note_on_c, 13, 53, 75
13, 274080, Note_on_c, 13, 53, 0
13, 280320, Note_on_c, 13, 50, 75
13, 280512, Note_on_c, 13, 50, 0
13, 280800, Note_on_c, 13, 46, 75
13, 280992, Note_on_c, 13, 46, 0
13, 281760, Note_on_c, 13, 48, 75
13, 281952, Note_on_c, 13, 48, 0
13, 282240, Note_on_c, 13, 45, 75
13, 282432, Note_on_c, 13, 45, 0
13, 283200, Note_on_c, 13, 50, 75
13, 283392, Note_on_c, 13, 50, 0
13, 283680, Note_on_c, 13, 46, 75
13, 283872, Note_on_c, 13, 46, 0
13, 284640, Note_on_c, 13, 48, 75
13, 284832, Note_on_c, 13, 48, 0
13, 285120, Note_on_c, 13, 53, 75
13, 285312, Note_on_c, 13, 53, 0
13, 286080, Note_on_c, 13, 62, 75
13, 286176, Note_on_c, 13, 62, 0
13, 286320, Note_on_c, 13, 62, 75
13, 286416, Note_on_c, 13, 62, 0
13, 286560, Note_on_c, 13, 58, 75
13, 286656, Note_on_c, 13, 58, 0
13, 286800, Note_on_c, 13, 58, 75
13, 286896, Note_on_c, 13, 58, 0
13, 287040, Note_on_c, 13, 58, 75
13, 287136, Note_on_c, 13, 58, 0
13, 287280, Note_on_c, 13, 58, 75
13, 287376, Note_on_c, 13, 58, 0
13, 287520, Note_on_c, 13, 60, 75
13, 287616, Note_on_c, 13, 60, 0
13, 287760, Note_on_c, 13, 60, 75
13, 287856, Note_on_c, 13, 60, 0
13, 288000, Note_on_c, 13, 57, 75
13, 288096, Note_on_c, 13, 57, 0
13, 288240, Note_on_c, 13, 57, 75
13, 288336, Note_on_c, 13, 57, 0
13, 288480, Note_on_c, 13, 57, 75
13, 288576, Note_on_c, 13, 57, 0
13, 288720, Note_on_c, 13, 57, 75
13, 288816, Note_on_c, 13, 57, 0
13, 288960, Note_on_c, 13, 62, 75
13, 289056, Note_on_c, 13, 62, 0
13, 289200, Note_on_c, 13, 62, 75
13, 289296, Note_on_c, 13, 62, 0
13, 289440, Note_on_c, 13, 58, 75
13, 289536, Note_on_c, 13, 58, 0
13, 289680, Note_on_c, 13, 58, 75
13, 289776, Note_on_c, 13, 58, 0
13, 289920, Note_on_c, 13, 58, 75
13, 290016, Note_on_c, 13, 58, 0
13, 290160, Note_on_c, 13, 58, 75
13, 290256, Note_on_c, 13, 58, 0
13, 290400, Note_on_c, 13, 60, 75
13, 290496, Note_on_c, 13, 60, 0
13, 290640, Note_on_c, 13, 60, 75
13, 290736, Note_on_c, 13, 60, 0
13, 290880, Note_on_c, 13, 53, 75
13, 291072, Note_on_c, 13, 53, 0
13, 291360, Note_on_c, 13, 45, 75
13, 291552, Note_on_c, 13, 45, 0
13, 291840, Note_on_c, 13, 48, 75
13, 292032, Note_on_c, 13, 48, 0
13, 292320, Note_on_c, 13, 53, 88
13, 292512, Note_on_c, 13, 53, 0
13, 292800, Note_on_c, 13, 57, 88
13, 292992, Note_on_c, 13, 57, 0
13, 293280, Note_on_c, 13, 60, 88
13, 293472, Note_on_c, 13, 60, 0
13, 293760, Note_on_c, 13, 53, 88
13, 294240, Note_on_c, 13, 53, 0
13, 308158, Control_c, 13, 0, 0
13, 308159, Control_c, 13, 32, 0
13, 308160, Program_c, 13, 45
13, 309428, Control_c, 13, 11, 81
13, 309600, Note_on_c, 13, 65, 88
13, 310080, Note_on_c, 13, 65, 0
13, 310080, Note_on_c, 13, 53, 88
13, 310560, Note_on_c, 13, 53, 0
13, 311040, Note_on_c, 13, 60, 88
13, 311520, Note_on_c, 13, 60, 0
13, 311520, Note_on_c, 13, 61, 88
13, 312000, Note_on_c, 13, 61, 0
13, 312000, Note_on_c, 13, 62, 88
13, 312480, Note_on_c, 13, 62, 0
13, 312960, Note_on_c, 13, 55, 88
13, 313440, Note_on_c, 13, 55, 0
13, 313440, Note_on_c, 13, 53, 88
13, 313920, Note_on_c, 13, 53, 0
13, 313920, Note_on_c, 13, 52, 88
13, 314400, Note_on_c, 13, 52, 0
13, 314400, Note_on_c, 13, 48, 88
13, 314880, Note_on_c, 13, 48, 0
13, 314880, Note_on_c, 13, 53, 88
13, 315360, Note_on_c, 13, 53, 0
13, 315360, Note_on_c, 13, 46, 88
13, 315840, Note_on_c, 13, 46, 0
13, 315840, Note_on_c, 13, 45, 88
13, 316320, Note_on_c, 13, 45, 0
13, 316800, Note_on_c, 13, 58, 88
13, 317280, Note_on_c, 13, 58, 0
13, 317280, Note_on_c, 13, 57, 88
13, 317760, Note_on_c, 13, 57, 0
13, 318240, Note_on_c, 13, 55, 88
13, 318720, Note_on_c, 13, 55, 0
13, 318720, Note_on_c, 13, 48, 88
13, 319200, Note_on_c, 13, 48, 0
13, 319200, Note_on_c, 13, 53, 88
13, 319680, Note_on_c, 13, 53, 0
13, 319680, Note_on_c, 13, 60, 88
13, 320160, Note_on_c, 13, 60, 0
13, 320160, Note_on_c, 13, 48, 88
13, 320638, Control_c, 13, 0, 0
13, 320639, Control_c, 13, 32, 0
13, 320640, Note_on_c, 13, 48, 0
13, 320640, Program_c, 13, 48
13, 321060, Control_c, 13, 11, 88
13, 321064, Control_c, 13, 11, 89
13, 321080, Control_c, 13, 11, 92
13, 321100, Control_c, 13, 11, 100
13, 321120, Control_c, 13, 11, 104
13, 321120, Note_on_c, 13, 65, 88
13, 321140, Control_c, 13, 11, 107
13, 321152, Control_c, 13, 11, 111
13, 321172, Control_c, 13, 11, 115
13, 321192, Control_c, 13, 11, 119
13, 321212, Control_c, 13, 11, 123
13, 321252, Control_c, 13, 11, 127
13, 321600, Note_on_c, 13, 65, 0
13, 321600, Note_on_c, 13, 53, 88
13, 322080, Note_on_c, 13, 53, 0
13, 322560, Note_on_c, 13, 60, 88
13, 322946, Note_on_c, 13, 60, 0
13, 323040, Note_on_c, 13, 61, 88
13, 323520, Note_on_c, 13, 62, 88
13, 323578, Note_on_c, 13, 61, 0
13, 323712, Note_on_c, 13, 62, 0
13, 324480, Note_on_c, 13, 55, 88
13, 324960, Note_on_c, 13, 55, 0
13, 324960, Note_on_c, 13, 53, 88
13, 325440, Note_on_c, 13, 53, 0
13, 325440, Note_on_c, 13, 52, 78
13, 325599, Note_on_c, 13, 53, 85
13, 325634, Note_on_c, 13, 52, 0
13, 325760, Note_on_c, 13, 55, 92
13, 325795, Note_on_c, 13, 53, 0
13, 325890, Note_on_c, 13, 55, 0
13, 325920, Note_on_c, 13, 48, 79
13, 326079, Note_on_c, 13, 50, 87
13, 326114, Note_on_c, 13, 48, 0
13, 326240, Note_on_c, 13, 52, 96
13, 326275, Note_on_c, 13, 50, 0
13, 326370, Note_on_c, 13, 52, 0
13, 326400, Note_on_c, 13, 53, 88
13, 326880, Note_on_c, 13, 53, 0
13, 326880, Note_on_c, 13, 46, 88
13, 327360, Note_on_c, 13, 46, 0
13, 328800, Note_on_c, 13, 52, 88
13, 329280, Note_on_c, 13, 53, 88
13, 329348, Note_on_c, 13, 52, 0
13, 329676, Note_on_c, 13, 53, 0
13, 329760, Note_on_c, 13, 58, 88
13, 330240, Note_on_c, 13, 58, 0
13, 332640, Note_on_c, 13, 58, 88
13, 333000, Note_on_c, 13, 55, 80
13, 333036, Note_on_c, 13, 58, 0
13, 333120, Note_on_c, 13, 55, 0
13, 333120, Note_on_c, 13, 60, 88
13, 333600, Note_on_c, 13, 48, 88
13, 333604, Note_on_c, 13, 60, 0
13, 334080, Note_on_c, 13, 53, 88
13, 334100, Note_on_c, 13, 48, 0
13, 334560, Note_on_c, 13, 53, 0
13, 335040, Note_on_c, 13, 48, 88
13, 335520, Note_on_c, 13, 48, 0
13, 335520, Note_on_c, 13, 53, 88
13, 336000, Note_on_c, 13, 53, 0
13, 336000, Note_on_c, 13, 60, 88
13, 336480, Note_on_c, 13, 60, 0
13, 336480, Note_on_c, 13, 48, 88
13, 336960, Note_on_c, 13, 48, 0
13, 336960, Note_on_c, 13, 53, 88
13, 337440, Note_on_c, 13, 53, 0
13, 337440, Note_on_c, 13, 41, 88
13, 337920, Note_on_c, 13, 41, 0
13, 337920, End_track
14, 0, Start_track
14, 0, Title_t, "Bassi"
14, 0, Control_c, 14, 0, 0
14, 0, Control_c, 14, 7, 70
14, 0, Control_c, 14, 10, 80
14, 0, Control_c, 14, 91, 79
14, 0, Control_c, 14, 93, 91
14, 1, Control_c, 14, 32, 1
14, 2, Program_c, 14, 48
14, 12000, Note_on_c, 14, 45, 88
14, 12480, Note_on_c, 14, 45, 0
14, 12480, Note_on_c, 14, 41, 88
14, 12960, Note_on_c, 14, 41, 0
14, 12960, Note_on_c, 14, 36, 88
14, 13440, Note_on_c, 14, 37, 88
14, 13492, Note_on_c, 14, 36, 0
14, 13892, Note_on_c, 14, 37, 0
14, 13920, Note_on_c, 14, 38, 88
14, 14400, Note_on_c, 14, 38, 0
14, 14880, Note_on_c, 14, 43, 88
14, 15360, Note_on_c, 14, 43, 0
14, 15360, Note_on_c, 14, 41, 88
14, 15840, Note_on_c, 14, 41, 0
14, 15840, Note_on_c, 14, 40, 88
14, 16320, Note_on_c, 14, 36, 88
14, 16372, Note_on_c, 14, 40, 0
14, 16744, Note_on_c, 14, 36, 0
14, 16800, Note_on_c, 14, 41, 88
14, 17280, Note_on_c, 14, 41, 0
14, 17280, Note_on_c, 14, 34, 81
14, 17760, Note_on_c, 14, 34, 0
14, 19200, Note_on_c, 14, 40, 88
14, 19680, Note_on_c, 14, 41, 88
14, 19724, Note_on_c, 14, 40, 0
14, 19872, Note_on_c, 14, 41, 0
14, 20160, Note_on_c, 14, 46, 88
14, 20640, Note_on_c, 14, 46, 0
14, 20640, Note_on_c, 14, 48, 88
14, 21120, Note_on_c, 14, 48, 0
14, 21120, Note_on_c, 14, 36, 88
14, 21600, Note_on_c, 14, 36, 0
14, 21600, Note_on_c, 14, 41, 88
14, 22080, Note_on_c, 14, 41, 0
14, 22080, Note_on_c, 14, 29, 88
14, 22560, Note_on_c, 14, 29, 0
14, 27840, Note_on_c, 14, 33, 75
14, 28320, Note_on_c, 14, 36, 75
14, 28352, Note_on_c, 14, 33, 0
14, 28752, Note_on_c, 14, 36, 0
14, 28800, Note_on_c, 14, 41, 75
14, 29280, Note_on_c, 14, 41, 0
14, 29280, Note_on_c, 14, 48, 88
14, 29760, Note_on_c, 14, 36, 88
14, 29804, Note_on_c, 14, 48, 0
14, 30204, Note_on_c, 14, 36, 0
14, 30240, Note_on_c, 14, 41, 88
14, 30720, Note_on_c, 14, 41, 0
14, 30720, Note_on_c, 14, 29, 88
14, 31200, Note_on_c, 14, 29, 0
14, 69120, Note_on_c, 14, 36, 63
14, 69600, Note_on_c, 14, 36, 0
14, 70560, Note_on_c, 14, 36, 63
14, 71040, Note_on_c, 14, 36, 0
14, 72000, Note_on_c, 14, 36, 64
14, 72480, Note_on_c, 14, 36, 0
14, 73440, Note_on_c, 14, 36, 65
14, 73920, Note_on_c, 14, 36, 0
14, 74880, Note_on_c, 14, 36, 65
14, 75360, Note_on_c, 14, 36, 0
14, 76320, Note_on_c, 14, 36, 66
14, 76800, Note_on_c, 14, 36, 0
14, 77760, Note_on_c, 14, 36, 67
14, 78240, Note_on_c, 14, 36, 0
14, 79200, Note_on_c, 14, 36, 67
14, 79680, Note_on_c, 14, 36, 0
14, 80640, Note_on_c, 14, 36, 65
14, 81120, Note_on_c, 14, 36, 0
14, 81120, Note_on_c, 14, 40, 70
14, 81600, Note_on_c, 14, 40, 0
14, 81600, Note_on_c, 14, 43, 75
14, 82080, Note_on_c, 14, 43, 0
14, 82080, Note_on_c, 14, 48, 79
14, 82560, Note_on_c, 14, 48, 0
14, 82560, Note_on_c, 14, 40, 84
14, 83040, Note_on_c, 14, 40, 0
14, 83040, Note_on_c, 14, 43, 88
14, 83520, Note_on_c, 14, 43, 0
14, 83520, Note_on_c, 14, 36, 73
14, 84000, Note_on_c, 14, 36, 0
14, 104160, Note_on_c, 14, 45, 81
14, 104640, Note_on_c, 14, 45, 0
14, 104640, Note_on_c, 14, 41, 88
14, 105120, Note_on_c, 14, 41, 0
14, 105120, Note_on_c, 14, 36, 88
14, 105600, Note_on_c, 14, 37, 74
14, 105684, Note_on_c, 14, 36, 0
14, 105860, Note_on_c, 14, 37, 0
14, 106080, Note_on_c, 14, 38, 88
14, 106560, Note_on_c, 14, 38, 0
14, 107040, Note_on_c, 14, 43, 88
14, 107520, Note_on_c, 14, 43, 0
14, 107520, Note_on_c, 14, 41, 88
14, 108000, Note_on_c, 14, 41, 0
14, 108000, Note_on_c, 14, 40, 88
14, 108480, Note_on_c, 14, 36, 74
14, 108552, Note_on_c, 14, 40, 0
14, 108764, Note_on_c, 14, 36, 0
14, 108960, Note_on_c, 14, 41, 88
14, 109440, Note_on_c, 14, 41, 0
14, 109440, Note_on_c, 14, 34, 88
14, 109920, Note_on_c, 14, 34, 0
14, 111360, Note_on_c, 14, 40, 88
14, 111840, Note_on_c, 14, 41, 76
14, 111924, Note_on_c, 14, 40, 0
14, 112320, Note_on_c, 14, 41, 0
14, 112320, Note_on_c, 14, 46, 88
14, 112800, Note_on_c, 14, 46, 0
14, 112800, Note_on_c, 14, 48, 88
14, 113280, Note_on_c, 14, 48, 0
14, 113280, Note_on_c, 14, 36, 88
14, 113760, Note_on_c, 14, 36, 0
14, 113760, Note_on_c, 14, 41, 88
14, 114240, Note_on_c, 14, 41, 0
14, 114240, Note_on_c, 14, 29, 105
14, 114720, Note_on_c, 14, 29, 0
14, 120000, Note_on_c, 14, 33, 75
14, 120480, Note_on_c, 14, 36, 75
14, 120544, Note_on_c, 14, 33, 0
14, 120840, Note_on_c, 14, 36, 0
14, 120960, Note_on_c, 14, 41, 75
14, 121432, Note_on_c, 14, 41, 0
14, 121440, Note_on_c, 14, 48, 88
14, 121896, Note_on_c, 14, 48, 0
14, 121920, Note_on_c, 14, 45, 88
14, 122400, Note_on_c, 14, 45, 0
14, 122400, Note_on_c, 14, 50, 80
14, 122880, Note_on_c, 14, 50, 0
14, 123840, Note_on_c, 14, 49, 75
14, 124320, Note_on_c, 14, 49, 0
14, 128160, Note_on_c, 14, 50, 75
14, 128640, Note_on_c, 14, 50, 0
14, 129600, Note_on_c, 14, 49, 75
14, 130080, Note_on_c, 14, 49, 0
14, 133200, Note_on_c, 14, 45, 88
14, 133296, Note_on_c, 14, 45, 0
14, 133440, Note_on_c, 14, 37, 88
14, 133536, Note_on_c, 14, 37, 0
14, 133680, Note_on_c, 14, 40, 88
14, 133776, Note_on_c, 14, 40, 0
14, 133920, Note_on_c, 14, 33, 88
14, 134400, Note_on_c, 14, 33, 0
14, 139680, Note_on_c, 14, 50, 75
14, 140160, Note_on_c, 14, 50, 0
14, 141120, Note_on_c, 14, 49, 75
14, 141600, Note_on_c, 14, 49, 0
14, 142560, Note_on_c, 14, 50, 75
14, 143040, Note_on_c, 14, 50, 0
14, 144000, Note_on_c, 14, 49, 75
14, 144480, Note_on_c, 14, 49, 0
14, 145440, Note_on_c, 14, 50, 75
14, 145920, Note_on_c, 14, 43, 75
14, 146010, Note_on_c, 14, 50, 0
14, 146242, Note_on_c, 14, 43, 0
14, 146400, Note_on_c, 14, 45, 75
14, 146880, Note_on_c, 14, 45, 0
14, 146880, Note_on_c, 14, 38, 75
14, 147360, Note_on_c, 14, 38, 0
14, 148314, Control_c, 14, 7, 87
14, 148320, Note_on_c, 14, 46, 88
14, 148370, Control_c, 14, 7, 83
14, 148374, Control_c, 14, 7, 82
14, 148502, Control_c, 14, 7, 80
14, 148582, Control_c, 14, 7, 74
14, 148590, Control_c, 14, 7, 71
14, 148614, Control_c, 14, 7, 65
14, 148646, Control_c, 14, 7, 62
14, 148678, Control_c, 14, 7, 58
14, 149760, Note_on_c, 14, 45, 75
14, 149818, Note_on_c, 14, 46, 0
14, 150240, Note_on_c, 14, 45, 0
14, 150458, Control_c, 14, 7, 85
14, 151178, Control_c, 14, 7, 85
14, 151200, Note_on_c, 14, 34, 88
14, 151226, Control_c, 14, 7, 89
14, 151310, Control_c, 14, 7, 86
14, 151558, Control_c, 14, 7, 71
14, 151590, Control_c, 14, 7, 64
14, 151622, Control_c, 14, 7, 60
14, 152640, Note_on_c, 14, 33, 75
14, 152714, Note_on_c, 14, 34, 0
14, 153120, Note_on_c, 14, 33, 0
14, 153194, Control_c, 14, 7, 85
14, 154080, Note_on_c, 14, 45, 66
14, 154320, Note_on_c, 14, 44, 61
14, 154375, Note_on_c, 14, 45, 0
14, 154560, Note_on_c, 14, 45, 66
14, 154615, Note_on_c, 14, 44, 0
14, 154800, Note_on_c, 14, 44, 54
14, 154855, Note_on_c, 14, 45, 0
14, 155040, Note_on_c, 14, 45, 66
14, 155095, Note_on_c, 14, 44, 0
14, 155280, Note_on_c, 14, 44, 58
14, 155335, Note_on_c, 14, 45, 0
14, 155440, Note_on_c, 14, 44, 0
14, 155520, Note_on_c, 14, 45, 61
14, 156000, Note_on_c, 14, 45, 0
14, 180000, Note_on_c, 14, 53, 72
14, 180480, Note_on_c, 14, 53, 0
14, 180480, Note_on_c, 14, 41, 88
14, 180960, Note_on_c, 14, 41, 0
14, 181440, Note_on_c, 14, 48, 88
14, 181920, Note_on_c, 14, 49, 88
14, 181984, Note_on_c, 14, 48, 0
14, 182312, Note_on_c, 14, 49, 0
14, 182400, Note_on_c, 14, 50, 88
14, 182616, Note_on_c, 14, 50, 0
14, 183360, Note_on_c, 14, 43, 75
14, 183840, Note_on_c, 14, 43, 0
14, 183840, Note_on_c, 14, 41, 75
14, 184320, Note_on_c, 14, 41, 0
14, 184320, Note_on_c, 14, 40, 75
14, 184800, Note_on_c, 14, 40, 0
14, 184800, Note_on_c, 14, 36, 75
14, 185280, Note_on_c, 14, 36, 0
14, 185280, Note_on_c, 14, 41, 75
14, 185760, Note_on_c, 14, 41, 0
14, 185760, Note_on_c, 14, 46, 88
14, 186240, Note_on_c, 14, 46, 0
14, 187200, Note_on_c, 14, 48, 88
14, 187440, Note_on_c, 14, 47, 88
14, 187464, Note_on_c, 14, 48, 0
14, 187536, Note_on_c, 14, 47, 0
14, 187680, Note_on_c, 14, 46, 88
14, 188160, Note_on_c, 14, 46, 0
14, 188160, Note_on_c, 14, 45, 88
14, 188640, Note_on_c, 14, 45, 0
14, 188640, Note_on_c, 14, 46, 88
14, 189120, Note_on_c, 14, 46, 0
14, 189120, Note_on_c, 14, 48, 88
14, 189600, Note_on_c, 14, 48, 0
14, 189600, Note_on_c, 14, 36, 88
14, 190080, Note_on_c, 14, 36, 0
14, 190080, Note_on_c, 14, 41, 88
14, 190344, Note_on_c, 14, 41, 0
14, 190560, Note_on_c, 14, 40, 88
14, 190800, Note_on_c, 14, 40, 0
14, 191040, Note_on_c, 14, 39, 88
14, 191224, Note_on_c, 14, 39, 0
14, 191520, Note_on_c, 14, 38, 91
14, 191583, Note_on_c, 14, 38, 0
14, 191679, Note_on_c, 14, 36, 85
14, 191744, Note_on_c, 14, 36, 0
14, 191840, Note_on_c, 14, 34, 78
14, 191903, Note_on_c, 14, 34, 0
14, 192000, Note_on_c, 14, 33, 72
14, 192480, Note_on_c, 14, 33, 0
14, 207360, Note_on_c, 14, 46, 61
14, 208800, Note_on_c, 14, 45, 61
14, 208910, Note_on_c, 14, 46, 0
14, 210166, Note_on_c, 14, 45, 0
14, 210240, Note_on_c, 14, 46, 61
14, 211680, Note_on_c, 14, 41, 61
14, 211758, Note_on_c, 14, 46, 0
14, 213030, Note_on_c, 14, 41, 0
14, 213120, Note_on_c, 14, 43, 61
14, 213600, Note_on_c, 14, 41, 61
14, 213646, Note_on_c, 14, 43, 0
14, 214080, Note_on_c, 14, 39, 61
14, 214166, Note_on_c, 14, 41, 0
14, 214486, Note_on_c, 14, 39, 0
14, 214560, Note_on_c, 14, 38, 61
14, 215040, Note_on_c, 14, 38, 0
14, 216000, Note_on_c, 14, 41, 61
14, 216332, Note_on_c, 14, 41, 0
14, 216480, Note_on_c, 14, 41, 61
14, 216804, Note_on_c, 14, 41, 0
14, 216960, Note_on_c, 14, 41, 61
14, 217236, Note_on_c, 14, 41, 0
14, 217440, Note_on_c, 14, 46, 61
14, 217812, Note_on_c, 14, 46, 0
14, 218880, Note_on_c, 14, 41, 61
14, 219228, Note_on_c, 14, 41, 0
14, 219360, Note_on_c, 14, 41, 61
14, 219692, Note_on_c, 14, 41, 0
14, 219840, Note_on_c, 14, 41, 61
14, 220124, Note_on_c, 14, 41, 0
14, 220320, Note_on_c, 14, 46, 61
14, 220740, Note_on_c, 14, 46, 0
14, 220800, Note_on_c, 14, 38, 61
14, 221280, Note_on_c, 14, 41, 61
14, 221364, Note_on_c, 14, 38, 0
14, 221652, Note_on_c, 14, 41, 0
14, 221760, Note_on_c, 14, 46, 61
14, 222240, Note_on_c, 14, 46, 0
14, 222720, Note_on_c, 14, 41, 67
14, 223200, Note_on_c, 14, 41, 0
14, 223200, Note_on_c, 14, 46, 78
14, 223680, Note_on_c, 14, 46, 0
14, 223680, Note_on_c, 14, 34, 89
14, 224160, Note_on_c, 14, 34, 0
14, 262080, Note_on_c, 14, 41, 75
14, 262560, Note_on_c, 14, 41, 0
14, 263520, Note_on_c, 14, 41, 75
14, 264000, Note_on_c, 14, 41, 0
14, 264960, Note_on_c, 14, 41, 75
14, 265440, Note_on_c, 14, 41, 0
14, 266400, Note_on_c, 14, 41, 75
14, 266880, Note_on_c, 14, 41, 0
14, 267840, Note_on_c, 14, 41, 75
14, 268320, Note_on_c, 14, 41, 0
14, 269280, Note_on_c, 14, 41, 75
14, 269760, Note_on_c, 14, 41, 0
14, 270720, Note_on_c, 14, 41, 75
14, 271200, Note_on_c, 14, 41, 0
14, 272160, Note_on_c, 14, 41, 75
14, 272640, Note_on_c, 14, 41, 0
14, 273600, Note_on_c, 14, 41, 75
14, 274080, Note_on_c, 14, 41, 0
14, 280320, Note_on_c, 14, 38, 75
14, 280512, Note_on_c, 14, 38, 0
14, 280800, Note_on_c, 14, 34, 75
14, 280992, Note_on_c, 14, 34, 0
14, 281760, Note_on_c, 14, 36, 75
14, 281952, Note_on_c, 14, 36, 0
14, 282240, Note_on_c, 14, 33, 75
14, 282432, Note_on_c, 14, 33, 0
14, 283200, Note_on_c, 14, 38, 75
14, 283392, Note_on_c, 14, 38, 0
14, 283680, Note_on_c, 14, 34, 75
14, 283872, Note_on_c, 14, 34, 0
14, 284640, Note_on_c, 14, 36, 75
14, 284832, Note_on_c, 14, 36, 0
14, 285120, Note_on_c, 14, 41, 75
14, 285312, Note_on_c, 14, 41, 0
14, 286080, Note_on_c, 14, 50, 75
14, 286176, Note_on_c, 14, 50, 0
14, 286320, Note_on_c, 14, 50, 75
14, 286416, Note_on_c, 14, 50, 0
14, 286560, Note_on_c, 14, 46, 75
14, 286656, Note_on_c, 14, 46, 0
14, 286800, Note_on_c, 14, 46, 75
14, 286896, Note_on_c, 14, 46, 0
14, 287040, Note_on_c, 14, 46, 75
14, 287136, Note_on_c, 14, 46, 0
14, 287280, Note_on_c, 14, 46, 75
14, 287376, Note_on_c, 14, 46, 0
14, 287520, Note_on_c, 14, 48, 75
14, 287616, Note_on_c, 14, 48, 0
14, 287760, Note_on_c, 14, 48, 75
14, 287856, Note_on_c, 14, 48, 0
14, 288000, Note_on_c, 14, 45, 75
14, 288096, Note_on_c, 14, 45, 0
14, 288240, Note_on_c, 14, 45, 75
14, 288336, Note_on_c, 14, 45, 0
14, 288480, Note_on_c, 14, 45, 75
14, 288576, Note_on_c, 14, 45, 0
14, 288720, Note_on_c, 14, 45, 75
14, 288816, Note_on_c, 14, 45, 0
14, 288960, Note_on_c, 14, 50, 75
14, 289056, Note_on_c, 14, 50, 0
14, 289200, Note_on_c, 14, 50, 75
14, 289296, Note_on_c, 14, 50, 0
14, 289440, Note_on_c, 14, 46, 75
14, 289536, Note_on_c, 14, 46, 0
14, 289680, Note_on_c, 14, 46, 75
14, 289776, Note_on_c, 14, 46, 0
14, 289920, Note_on_c, 14, 46, 75
14, 290016, Note_on_c, 14, 46, 0
14, 290160, Note_on_c, 14, 46, 75
14, 290256, Note_on_c, 14, 46, 0
14, 290400, Note_on_c, 14, 48, 75
14, 290496, Note_on_c, 14, 48, 0
14, 290640, Note_on_c, 14, 48, 75
14, 290736, Note_on_c, 14, 48, 0
14, 290880, Note_on_c, 14, 41, 75
14, 291072, Note_on_c, 14, 41, 0
14, 291360, Note_on_c, 14, 33, 75
14, 291552, Note_on_c, 14, 33, 0
14, 291840, Note_on_c, 14, 36, 75
14, 292032, Note_on_c, 14, 36, 0
14, 292320, Note_on_c, 14, 41, 88
14, 292512, Note_on_c, 14, 41, 0
14, 292800, Note_on_c, 14, 45, 88
14, 292992, Note_on_c, 14, 45, 0
14, 293280, Note_on_c, 14, 48, 88
14, 293472, Note_on_c, 14, 48, 0
14, 293760, Note_on_c, 14, 41, 88
14, 294240, Note_on_c, 14, 41, 0
14, 308158, Control_c, 14, 0, 0
14, 308159, Control_c, 14, 32, 0
14, 308160, Program_c, 14, 45
14, 309428, Control_c, 14, 11, 81
14, 309600, Note_on_c, 14, 53, 88
14, 310080, Note_on_c, 14, 53, 0
14, 310080, Note_on_c, 14, 41, 88
14, 310560, Note_on_c, 14, 41, 0
14, 311040, Note_on_c, 14, 48, 88
14, 311520, Note_on_c, 14, 48, 0
14, 311520, Note_on_c, 14, 49, 88
14, 312000, Note_on_c, 14, 49, 0
14, 312000, Note_on_c, 14, 50, 88
14, 312480, Note_on_c, 14, 50, 0
14, 312960, Note_on_c, 14, 43, 88
14, 313440, Note_on_c, 14, 43, 0
14, 313440, Note_on_c, 14, 41, 88
14, 313920, Note_on_c, 14, 41, 0
14, 313920, Note_on_c, 14, 40, 88
14, 314400, Note_on_c, 14, 40, 0
14, 314400, Note_on_c, 14, 36, 88
14, 314880, Note_on_c, 14, 36, 0
14, 314880, Note_on_c, 14, 41, 88
14, 315360, Note_on_c, 14, 41, 0
14, 315360, Note_on_c, 14, 34, 88
14, 315840, Note_on_c, 14, 34, 0
14, 315840, Note_on_c, 14, 33, 88
14, 316320, Note_on_c, 14, 33, 0
14, 316800, Note_on_c, 14, 46, 88
14, 317280, Note_on_c, 14, 46, 0
14, 317280, Note_on_c, 14, 45, 88
14, 317760, Note_on_c, 14, 45, 0
14, 318240, Note_on_c, 14, 43, 88
14, 318720, Note_on_c, 14, 43, 0
14, 318720, Note_on_c, 14, 36, 88
14, 319200, Note_on_c, 14, 36, 0
14, 319200, Note_on_c, 14, 41, 88
14, 319680, Note_on_c, 14, 41, 0
14, 319680, Note_on_c, 14, 48, 88
14, 320160, Note_on_c, 14, 48, 0
14, 320160, Note_on_c, 14, 36, 88
14, 320638, Control_c, 14, 0, 0
14, 320639, Control_c, 14, 32, 0
14, 320640, Note_on_c, 14, 36, 0
14, 320640, Program_c, 14, 48
14, 321060, Control_c, 14, 11, 88
14, 321064, Control_c, 14, 11, 89
14, 321080, Control_c, 14, 11, 92
14, 321100, Control_c, 14, 11, 100
14, 321120, Control_c, 14, 11, 104
14, 321120, Note_on_c, 14, 53, 88
14, 321140, Control_c, 14, 11, 107
14, 321152, Control_c, 14, 11, 111
14, 321172, Control_c, 14, 11, 115
14, 321192, Control_c, 14, 11, 119
14, 321212, Control_c, 14, 11, 123
14, 321252, Control_c, 14, 11, 127
14, 321600, Note_on_c, 14, 53, 0
14, 321600, Note_on_c, 14, 41, 88
14, 322080, Note_on_c, 14, 41, 0
14, 322560, Note_on_c, 14, 48, 88
14, 322946, Note_on_c, 14, 48, 0
14, 323040, Note_on_c, 14, 49, 88
14, 323520, Note_on_c, 14, 50, 88
14, 323578, Note_on_c, 14, 49, 0
14, 323712, Note_on_c, 14, 50, 0
14, 324480, Note_on_c, 14, 43, 88
14, 324960, Note_on_c, 14, 43, 0
14, 324960, Note_on_c, 14, 41, 88
14, 325440, Note_on_c, 14, 41, 0
14, 325440, Note_on_c, 14, 40, 78
14, 325599, Note_on_c, 14, 41, 85
14, 325634, Note_on_c, 14, 40, 0
14, 325760, Note_on_c, 14, 43, 92
14, 325795, Note_on_c, 14, 41, 0
14, 325890, Note_on_c, 14, 43, 0
14, 325920, Note_on_c, 14, 36, 79
14, 326079, Note_on_c, 14, 38, 87
14, 326114, Note_on_c, 14, 36, 0
14, 326240, Note_on_c, 14, 40, 96
14, 326275, Note_on_c, 14, 38, 0
14, 326370, Note_on_c, 14, 40, 0
14, 326400, Note_on_c, 14, 41, 88
14, 326880, Note_on_c, 14, 41, 0
14, 326880, Note_on_c, 14, 34, 88
14, 327360, Note_on_c, 14, 34, 0
14, 328800, Note_on_c, 14, 40, 88
14, 329280, Note_on_c, 14, 41, 88
14, 329348, Note_on_c, 14, 40, 0
14, 329676, Note_on_c, 14, 41, 0
14, 329760, Note_on_c, 14, 46, 88
14, 330240, Note_on_c, 14, 46, 0
14, 332640, Note_on_c, 14, 46, 88
14, 333000, Note_on_c, 14, 43, 80
14, 333036, Note_on_c, 14, 46, 0
14, 333120, Note_on_c, 14, 43, 0
14, 333120, Note_on_c, 14, 48, 88
14, 333600, Note_on_c, 14, 36, 88
14, 333604, Note_on_c, 14, 48, 0
14, 334080, Note_on_c, 14, 41, 88
14, 334100, Note_on_c, 14, 36, 0
14, 334560, Note_on_c, 14, 41, 0
14, 335040, Note_on_c, 14, 36, 88
14, 335520, Note_on_c, 14, 36, 0
14, 335520, Note_on_c, 14, 41, 88
14, 336000, Note_on_c, 14, 41, 0
14, 336000, Note_on_c, 14, 48, 88
14, 336480, Note_on_c, 14, 48, 0
14, 336480, Note_on_c, 14, 36, 88
14, 336960, Note_on_c, 14, 36, 0
14, 336960, Note_on_c, 14, 41, 88
14, 337440, Note_on_c, 14, 41, 0
14, 337440, Note_on_c, 14, 29, 88
14, 337920, Note_on_c, 14, 29, 0
14, 337920, End_track
15, 0, Start_track
15, 0, Title_t, "******************************************"
15, 0, Control_c, 0, 91, 0
15, 0, Control_c, 0, 93, 0
15, 0, End_track
16, 0, Start_track
16, 0, Title_t, "Mozart Concerto for 3 Pianos "
16, 0, Control_c, 0, 91, 0
16, 0, Control_c, 0, 93, 0
16, 0, End_track
17, 0, Start_track
17, 0, Title_t, "   and Orchestra in F, K.242"
17, 0, Control_c, 0, 91, 0
17, 0, Control_c, 0, 93, 0
17, 0, End_track
18, 0, Start_track
18, 0, Title_t, "Input and Sequence by Randy Reid"
18, 0, Control_c, 0, 91, 0
18, 0, Control_c, 0, 93, 0
18, 0, End_track
19, 0, Start_track
19, 0, Title_t, "   Troppo@msn.com"
19, 0, Control_c, 0, 91, 0
19, 0, Control_c, 0, 93, 0
19, 0, End_track
20, 0, Start_track
20, 0, Title_t, "   Non Nobis Domine"
20, 0, Control_c, 0, 91, 0
20, 0, Control_c, 0, 93, 0
20, 0, End_track
21, 0, Start_track
21, 0, Title_t, "Console Automation Data"
21, 0, Control_c, 0, 93, 64
21, 0, Control_c, 0, 92, 0
21, 0, Control_c, 0, 96, 64
21, 0, Control_c, 0, 95, 127
21, 0, Control_c, 1, 93, 64
21, 0, Control_c, 1, 92, 0
21, 0, Control_c, 1, 96, 64
21, 0, Control_c, 1, 95, 127
21, 0, Control_c, 1, 40, 103
21, 0, Control_c, 0, 40, 103
21, 0, End_track
0, 0, End_of_file