0, 0, Header, 1, 12, 480
1, 0, Start_track
1, 0, Time_signature, 3, 2, 24, 8
1, 0, Tempo, 394736
1, 15840, Tempo, 397350
1, 17280, Tempo, 394736
1, 36000, Tempo, 416666
1, 37440, Tempo, 451127
1, 38880, Tempo, 394736
1, 51840, Tempo, 416666
1, 53280, Tempo, 394736
1, 70560, Tempo, 402684
1, 72000, Tempo, 416666
1, 73440, Tempo, 394736
1, 87840, Tempo, 402684
1, 89280, Tempo, 416666
1, 90720, Tempo, 402684
1, 99360, Tempo, 437956
1, 100800, Tempo, 451127
1, 102240, Tempo, 394736
1, 112320, Tempo, 451127
1, 113760, Tempo, 394736
1, 128160, Tempo, 397350
1, 129600, Tempo, 394736
1, 148320, Tempo, 416666
1, 149760, Tempo, 451127
1, 151200, Tempo, 394736
1, 164160, Tempo, 416666
1, 165600, Tempo, 394736
1, 182880, Tempo, 402684
1, 184320, Tempo, 416666
1, 185760, Tempo, 394736
1, 200160, Tempo, 402684
1, 201600, Tempo, 416666
1, 203040, Tempo, 402684
1, 211680, Tempo, 437956
1, 213120, Tempo, 451127
1, 214560, Tempo, 394736
1, 224640, Tempo, 451127
1, 226080, Tempo, 402684
1, 259200, Tempo, 416666
1, 263520, Tempo, 419580
1, 263720, Tempo, 428571
1, 263920, Tempo, 434782
1, 264120, Tempo, 441176
1, 264320, Tempo, 451127
1, 264520, Tempo, 458015
1, 264720, Tempo, 465116
1, 264848, Tempo, 468750
1, 264960, Tempo, 416666
1, 269280, Tempo, 419580
1, 269480, Tempo, 428571
1, 269680, Tempo, 434782
1, 269880, Tempo, 441176
1, 270080, Tempo, 447761
1, 270280, Tempo, 454545
1, 270480, Tempo, 461538
1, 270576, Tempo, 461538
1, 270720, Tempo, 405405
1, 273600, Tempo, 419580
1, 273800, Tempo, 425531
1, 274000, Tempo, 431654
1, 274200, Tempo, 437956
1, 274400, Tempo, 444444
1, 274600, Tempo, 451127
1, 274800, Tempo, 458015
1, 274912, Tempo, 461538
1, 275040, Tempo, 394736
1, 286320, Tempo, 410958
1, 286576, Tempo, 400000
1, 295200, Tempo, 397350
1, 296640, Tempo, 394736
1, 315360, Tempo, 416666
1, 316800, Tempo, 451127
1, 318240, Tempo, 394736
1, 329760, Tempo, 405405
1, 331200, Tempo, 416666
1, 332640, Tempo, 394736
1, 349920, Tempo, 405405
1, 352800, Tempo, 394736
1, 354240, Tempo, 405405
1, 357120, Tempo, 394736
1, 371520, Tempo, 405405
1, 372960, Tempo, 413793
1, 374400, Tempo, 405405
1, 383040, Tempo, 416666
1, 384480, Tempo, 451127
1, 385920, Tempo, 394736
1, 396000, Tempo, 451127
1, 396736, Tempo, 465116
1, 396936, Tempo, 476190
1, 397136, Tempo, 487804
1, 397232, Tempo, 491803
1, 397440, Tempo, 405405
1, 403200, Tempo, 410958
1, 403400, Tempo, 419580
1, 403600, Tempo, 425531
1, 403800, Tempo, 431654
1, 404000, Tempo, 437956
1, 404200, Tempo, 444444
1, 404400, Tempo, 451127
1, 404600, Tempo, 458015
1, 404800, Tempo, 465116
1, 405000, Tempo, 472440
1, 405200, Tempo, 480000
1, 405400, Tempo, 491803
1, 405600, Tempo, 500000
1, 405800, Tempo, 508474
1, 405872, Tempo, 508474
1, 406080, Tempo, 416666
1, 408960, Tempo, 434782
1, 409160, Tempo, 447761
1, 409360, Tempo, 461538
1, 409560, Tempo, 472440
1, 409760, Tempo, 487804
1, 409960, Tempo, 500000
1, 410160, Tempo, 517241
1, 410336, Tempo, 576923
1, 410416, Tempo, 588235
1, 410416, End_track
2, 0, Start_track
2, 0, Sequencer_specific, 04, 43, 00, 01, 00
2, 0, Program_c, 0, 68
2, 0, Control_c, 0, 7, 90
2, 0, Control_c, 0, 10, 64
2, 0, Control_c, 0, 91, 100
2, 1440, Note_on_c, 0, 78, 92
2, 1440, Note_on_c, 0, 86, 92
2, 1728, Note_on_c, 0, 86, 0
2, 1728, Note_on_c, 0, 78, 0
2, 1800, Note_on_c, 0, 86, 92
2, 1800, Note_on_c, 0, 78, 92
2, 1896, Note_on_c, 0, 78, 0
2, 1896, Note_on_c, 0, 86, 0
2, 1920, Note_on_c, 0, 78, 92
2, 1920, Note_on_c, 0, 86, 92
2, 2304, Note_on_c, 0, 86, 0
2, 2304, Note_on_c, 0, 78, 0
2, 2880, Note_on_c, 0, 76, 92
2, 2880, Note_on_c, 0, 81, 92
2, 3168, Note_on_c, 0, 81, 0
2, 3168, Note_on_c, 0, 76, 0
2, 3240, Note_on_c, 0, 81, 92
2, 3240, Note_on_c, 0, 76, 92
2, 3336, Note_on_c, 0, 76, 0
2, 3336, Note_on_c, 0, 81, 0
2, 3360, Note_on_c, 0, 76, 92
2, 3360, Note_on_c, 0, 81, 92
2, 3744, Note_on_c, 0, 81, 0
2, 3744, Note_on_c, 0, 76, 0
2, 4320, Note_on_c, 0, 79, 92
2, 4584, Note_on_c, 0, 79, 0
2, 4800, Note_on_c, 0, 78, 92
2, 5064, Note_on_c, 0, 78, 0
2, 5280, Note_on_c, 0, 76, 92
2, 5544, Note_on_c, 0, 76, 0
2, 5760, Note_on_c, 0, 74, 92
2, 5820, Note_on_c, 0, 74, 0
2, 5820, Note_on_c, 0, 73, 92
2, 5880, Note_on_c, 0, 73, 0
2, 5880, Note_on_c, 0, 74, 92
2, 5940, Note_on_c, 0, 74, 0
2, 5940, Note_on_c, 0, 73, 92
2, 6000, Note_on_c, 0, 73, 0
2, 6000, Note_on_c, 0, 74, 92
2, 6060, Note_on_c, 0, 74, 0
2, 6060, Note_on_c, 0, 73, 92
2, 6120, Note_on_c, 0, 73, 0
2, 6120, Note_on_c, 0, 71, 92
2, 6180, Note_on_c, 0, 71, 0
2, 6180, Note_on_c, 0, 73, 92
2, 6240, Note_on_c, 0, 73, 0
2, 6240, Note_on_c, 0, 74, 92
2, 6528, Note_on_c, 0, 74, 0
2, 7200, Note_on_c, 0, 86, 58
2, 8640, Note_on_c, 0, 86, 0
2, 8640, Note_on_c, 0, 86, 58
2, 10008, Note_on_c, 0, 86, 0
2, 10560, Note_on_c, 0, 78, 92
2, 10848, Note_on_c, 0, 78, 0
2, 11040, Note_on_c, 0, 76, 92
2, 11328, Note_on_c, 0, 76, 0
2, 11520, Note_on_c, 0, 74, 92
2, 11640, Note_on_c, 0, 74, 0
2, 11640, Note_on_c, 0, 73, 92
2, 11760, Note_on_c, 0, 73, 0
2, 11760, Note_on_c, 0, 71, 92
2, 11880, Note_on_c, 0, 71, 0
2, 11880, Note_on_c, 0, 69, 92
2, 11976, Note_on_c, 0, 69, 0
2, 12000, Note_on_c, 0, 74, 92
2, 12120, Note_on_c, 0, 74, 0
2, 12120, Note_on_c, 0, 73, 92
2, 12240, Note_on_c, 0, 73, 0
2, 12240, Note_on_c, 0, 71, 92
2, 12360, Note_on_c, 0, 71, 0
2, 12360, Note_on_c, 0, 69, 92
2, 12456, Note_on_c, 0, 69, 0
2, 12480, Note_on_c, 0, 74, 92
2, 12864, Note_on_c, 0, 74, 0
2, 12960, Note_on_c, 0, 86, 98
2, 13200, Note_on_c, 0, 86, 0
2, 13200, Note_on_c, 0, 85, 58
2, 13440, Note_on_c, 0, 85, 0
2, 13440, Note_on_c, 0, 83, 58
2, 13680, Note_on_c, 0, 83, 0
2, 13680, Note_on_c, 0, 81, 58
2, 13872, Note_on_c, 0, 81, 0
2, 13920, Note_on_c, 0, 81, 58
2, 14064, Note_on_c, 0, 81, 0
2, 14160, Note_on_c, 0, 81, 58
2, 14304, Note_on_c, 0, 81, 0
2, 14400, Note_on_c, 0, 83, 98
2, 14640, Note_on_c, 0, 83, 0
2, 14640, Note_on_c, 0, 81, 58
2, 14880, Note_on_c, 0, 81, 0
2, 14880, Note_on_c, 0, 79, 58
2, 15120, Note_on_c, 0, 79, 0
2, 15120, Note_on_c, 0, 78, 58
2, 15312, Note_on_c, 0, 78, 0
2, 15360, Note_on_c, 0, 78, 58
2, 15504, Note_on_c, 0, 78, 0
2, 15600, Note_on_c, 0, 78, 58
2, 15744, Note_on_c, 0, 78, 0
2, 15840, Note_on_c, 0, 81, 92
2, 15960, Note_on_c, 0, 81, 0
2, 15960, Note_on_c, 0, 79, 92
2, 16176, Note_on_c, 0, 79, 0
2, 16320, Note_on_c, 0, 78, 92
2, 16608, Note_on_c, 0, 78, 0
2, 16800, Note_on_c, 0, 76, 92
2, 17088, Note_on_c, 0, 76, 0
2, 17280, Note_on_c, 0, 78, 92
2, 20088, Note_on_c, 0, 78, 0
2, 20160, Note_on_c, 0, 76, 92
2, 21528, Note_on_c, 0, 76, 0
2, 21600, Note_on_c, 0, 81, 92
2, 22968, Note_on_c, 0, 81, 0
2, 23040, Note_on_c, 0, 80, 92
2, 25848, Note_on_c, 0, 80, 0
2, 25920, Note_on_c, 0, 81, 92
2, 26304, Note_on_c, 0, 81, 0
2, 33120, Note_on_c, 0, 80, 92
2, 33600, Note_on_c, 0, 80, 0
2, 33600, Note_on_c, 0, 83, 92
2, 34080, Note_on_c, 0, 83, 0
2, 34080, Note_on_c, 0, 81, 92
2, 34560, Note_on_c, 0, 81, 0
2, 34560, Note_on_c, 0, 80, 92
2, 35040, Note_on_c, 0, 80, 0
2, 35040, Note_on_c, 0, 83, 92
2, 35520, Note_on_c, 0, 83, 0
2, 35520, Note_on_c, 0, 81, 92
2, 36000, Note_on_c, 0, 81, 0
2, 36000, Note_on_c, 0, 80, 92
2, 36288, Note_on_c, 0, 80, 0
2, 36480, Note_on_c, 0, 76, 92
2, 36540, Note_on_c, 0, 76, 0
2, 36540, Note_on_c, 0, 75, 92
2, 36600, Note_on_c, 0, 75, 0
2, 36600, Note_on_c, 0, 76, 92
2, 36660, Note_on_c, 0, 76, 0
2, 36660, Note_on_c, 0, 75, 92
2, 36720, Note_on_c, 0, 75, 0
2, 36720, Note_on_c, 0, 76, 92
2, 36780, Note_on_c, 0, 76, 0
2, 36780, Note_on_c, 0, 75, 92
2, 36840, Note_on_c, 0, 75, 0
2, 36840, Note_on_c, 0, 76, 92
2, 36900, Note_on_c, 0, 76, 0
2, 36900, Note_on_c, 0, 75, 92
2, 36960, Note_on_c, 0, 75, 0
2, 36960, Note_on_c, 0, 76, 92
2, 37020, Note_on_c, 0, 76, 0
2, 37020, Note_on_c, 0, 75, 92
2, 37080, Note_on_c, 0, 75, 0
2, 37080, Note_on_c, 0, 76, 92
2, 37140, Note_on_c, 0, 76, 0
2, 37140, Note_on_c, 0, 75, 92
2, 37200, Note_on_c, 0, 75, 0
2, 37200, Note_on_c, 0, 73, 92
2, 37320, Note_on_c, 0, 73, 0
2, 37320, Note_on_c, 0, 75, 92
2, 37440, Note_on_c, 0, 75, 0
2, 37440, Note_on_c, 0, 76, 92
2, 37728, Note_on_c, 0, 76, 0
2, 37920, Note_on_c, 0, 64, 70
2, 38208, Note_on_c, 0, 64, 0
2, 52320, Note_on_c, 0, 81, 92
2, 52380, Note_on_c, 0, 81, 0
2, 52380, Note_on_c, 0, 80, 92
2, 52440, Note_on_c, 0, 80, 0
2, 52440, Note_on_c, 0, 81, 92
2, 52500, Note_on_c, 0, 81, 0
2, 52500, Note_on_c, 0, 80, 92
2, 52560, Note_on_c, 0, 80, 0
2, 52560, Note_on_c, 0, 81, 92
2, 52620, Note_on_c, 0, 81, 0
2, 52620, Note_on_c, 0, 80, 92
2, 52680, Note_on_c, 0, 80, 0
2, 52680, Note_on_c, 0, 81, 92
2, 52740, Note_on_c, 0, 81, 0
2, 52740, Note_on_c, 0, 80, 92
2, 52800, Note_on_c, 0, 80, 0
2, 52800, Note_on_c, 0, 81, 92
2, 52860, Note_on_c, 0, 81, 0
2, 52860, Note_on_c, 0, 80, 92
2, 52920, Note_on_c, 0, 80, 0
2, 52920, Note_on_c, 0, 81, 92
2, 52980, Note_on_c, 0, 81, 0
2, 52980, Note_on_c, 0, 80, 92
2, 53040, Note_on_c, 0, 80, 0
2, 53040, Note_on_c, 0, 78, 92
2, 53160, Note_on_c, 0, 78, 0
2, 53160, Note_on_c, 0, 80, 92
2, 53280, Note_on_c, 0, 80, 0
2, 53280, Note_on_c, 0, 81, 92
2, 53568, Note_on_c, 0, 81, 0
2, 53760, Note_on_c, 0, 69, 70
2, 54048, Note_on_c, 0, 69, 0
2, 56160, Note_on_c, 0, 64, 58
2, 56160, Note_on_c, 0, 76, 58
2, 61248, Note_on_c, 0, 76, 0
2, 61248, Note_on_c, 0, 64, 0
2, 75360, Note_on_c, 0, 73, 92
2, 75420, Note_on_c, 0, 73, 0
2, 75420, Note_on_c, 0, 71, 92
2, 75480, Note_on_c, 0, 71, 0
2, 75480, Note_on_c, 0, 73, 92
2, 75540, Note_on_c, 0, 73, 0
2, 75540, Note_on_c, 0, 71, 92
2, 75600, Note_on_c, 0, 71, 0
2, 75600, Note_on_c, 0, 73, 92
2, 75660, Note_on_c, 0, 73, 0
2, 75660, Note_on_c, 0, 71, 92
2, 75720, Note_on_c, 0, 71, 0
2, 75720, Note_on_c, 0, 73, 92
2, 75780, Note_on_c, 0, 73, 0
2, 75780, Note_on_c, 0, 71, 92
2, 75840, Note_on_c, 0, 71, 0
2, 75840, Note_on_c, 0, 73, 92
2, 75900, Note_on_c, 0, 73, 0
2, 75900, Note_on_c, 0, 71, 92
2, 75960, Note_on_c, 0, 71, 0
2, 75960, Note_on_c, 0, 73, 92
2, 76020, Note_on_c, 0, 73, 0
2, 76020, Note_on_c, 0, 71, 92
2, 76080, Note_on_c, 0, 71, 0
2, 76080, Note_on_c, 0, 69, 92
2, 76200, Note_on_c, 0, 69, 0
2, 76200, Note_on_c, 0, 71, 92
2, 76320, Note_on_c, 0, 71, 0
2, 76320, Note_on_c, 0, 74, 92
2, 76704, Note_on_c, 0, 74, 0
2, 78240, Note_on_c, 0, 76, 92
2, 78300, Note_on_c, 0, 76, 0
2, 78300, Note_on_c, 0, 74, 92
2, 78360, Note_on_c, 0, 74, 0
2, 78360, Note_on_c, 0, 76, 92
2, 78420, Note_on_c, 0, 76, 0
2, 78420, Note_on_c, 0, 74, 92
2, 78480, Note_on_c, 0, 74, 0
2, 78480, Note_on_c, 0, 76, 92
2, 78540, Note_on_c, 0, 76, 0
2, 78540, Note_on_c, 0, 74, 92
2, 78600, Note_on_c, 0, 74, 0
2, 78600, Note_on_c, 0, 76, 92
2, 78660, Note_on_c, 0, 76, 0
2, 78660, Note_on_c, 0, 74, 92
2, 78720, Note_on_c, 0, 74, 0
2, 78720, Note_on_c, 0, 76, 92
2, 78780, Note_on_c, 0, 76, 0
2, 78780, Note_on_c, 0, 74, 92
2, 78840, Note_on_c, 0, 74, 0
2, 78840, Note_on_c, 0, 76, 92
2, 78900, Note_on_c, 0, 76, 0
2, 78900, Note_on_c, 0, 74, 92
2, 78960, Note_on_c, 0, 74, 0
2, 78960, Note_on_c, 0, 73, 92
2, 79080, Note_on_c, 0, 73, 0
2, 79080, Note_on_c, 0, 74, 92
2, 79200, Note_on_c, 0, 74, 0
2, 79200, Note_on_c, 0, 76, 92
2, 79584, Note_on_c, 0, 76, 0
2, 81120, Note_on_c, 0, 78, 92
2, 81180, Note_on_c, 0, 78, 0
2, 81180, Note_on_c, 0, 76, 92
2, 81240, Note_on_c, 0, 76, 0
2, 81240, Note_on_c, 0, 78, 92
2, 81300, Note_on_c, 0, 78, 0
2, 81300, Note_on_c, 0, 76, 92
2, 81360, Note_on_c, 0, 76, 0
2, 81360, Note_on_c, 0, 78, 92
2, 81420, Note_on_c, 0, 78, 0
2, 81420, Note_on_c, 0, 76, 92
2, 81480, Note_on_c, 0, 76, 0
2, 81480, Note_on_c, 0, 78, 92
2, 81540, Note_on_c, 0, 78, 0
2, 81540, Note_on_c, 0, 76, 92
2, 81600, Note_on_c, 0, 76, 0
2, 81600, Note_on_c, 0, 78, 92
2, 81660, Note_on_c, 0, 78, 0
2, 81660, Note_on_c, 0, 76, 92
2, 81720, Note_on_c, 0, 76, 0
2, 81720, Note_on_c, 0, 78, 92
2, 81780, Note_on_c, 0, 78, 0
2, 81780, Note_on_c, 0, 76, 92
2, 81840, Note_on_c, 0, 76, 0
2, 81840, Note_on_c, 0, 74, 92
2, 81960, Note_on_c, 0, 74, 0
2, 81960, Note_on_c, 0, 76, 92
2, 82080, Note_on_c, 0, 76, 0
2, 82080, Note_on_c, 0, 78, 92
2, 82464, Note_on_c, 0, 78, 0
2, 84000, Note_on_c, 0, 76, 92
2, 84060, Note_on_c, 0, 76, 0
2, 84060, Note_on_c, 0, 74, 92
2, 84120, Note_on_c, 0, 74, 0
2, 84120, Note_on_c, 0, 76, 92
2, 84180, Note_on_c, 0, 76, 0
2, 84180, Note_on_c, 0, 74, 92
2, 84240, Note_on_c, 0, 74, 0
2, 84240, Note_on_c, 0, 76, 92
2, 84300, Note_on_c, 0, 76, 0
2, 84300, Note_on_c, 0, 74, 92
2, 84360, Note_on_c, 0, 74, 0
2, 84360, Note_on_c, 0, 76, 92
2, 84420, Note_on_c, 0, 76, 0
2, 84420, Note_on_c, 0, 74, 92
2, 84480, Note_on_c, 0, 74, 0
2, 84480, Note_on_c, 0, 76, 92
2, 84540, Note_on_c, 0, 76, 0
2, 84540, Note_on_c, 0, 74, 92
2, 84600, Note_on_c, 0, 74, 0
2, 84600, Note_on_c, 0, 76, 92
2, 84660, Note_on_c, 0, 76, 0
2, 84660, Note_on_c, 0, 74, 92
2, 84720, Note_on_c, 0, 74, 0
2, 84720, Note_on_c, 0, 73, 92
2, 84840, Note_on_c, 0, 73, 0
2, 84840, Note_on_c, 0, 74, 92
2, 84960, Note_on_c, 0, 74, 0
2, 84960, Note_on_c, 0, 76, 92
2, 85344, Note_on_c, 0, 76, 0
2, 86880, Note_on_c, 0, 78, 92
2, 86940, Note_on_c, 0, 78, 0
2, 86940, Note_on_c, 0, 76, 92
2, 87000, Note_on_c, 0, 76, 0
2, 87000, Note_on_c, 0, 78, 92
2, 87060, Note_on_c, 0, 78, 0
2, 87060, Note_on_c, 0, 76, 92
2, 87120, Note_on_c, 0, 76, 0
2, 87120, Note_on_c, 0, 78, 92
2, 87180, Note_on_c, 0, 78, 0
2, 87180, Note_on_c, 0, 76, 92
2, 87240, Note_on_c, 0, 76, 0
2, 87240, Note_on_c, 0, 78, 92
2, 87300, Note_on_c, 0, 78, 0
2, 87300, Note_on_c, 0, 76, 92
2, 87360, Note_on_c, 0, 76, 0
2, 87360, Note_on_c, 0, 78, 92
2, 87420, Note_on_c, 0, 78, 0
2, 87420, Note_on_c, 0, 76, 92
2, 87480, Note_on_c, 0, 76, 0
2, 87480, Note_on_c, 0, 78, 92
2, 87540, Note_on_c, 0, 78, 0
2, 87540, Note_on_c, 0, 76, 92
2, 87600, Note_on_c, 0, 76, 0
2, 87600, Note_on_c, 0, 74, 92
2, 87720, Note_on_c, 0, 74, 0
2, 87720, Note_on_c, 0, 76, 92
2, 87840, Note_on_c, 0, 76, 0
2, 87840, Note_on_c, 0, 74, 92
2, 88800, Note_on_c, 0, 74, 0
2, 88800, Note_on_c, 0, 73, 92
2, 89280, Note_on_c, 0, 73, 0
2, 89280, Note_on_c, 0, 78, 92
2, 90240, Note_on_c, 0, 78, 0
2, 90240, Note_on_c, 0, 80, 92
2, 90720, Note_on_c, 0, 80, 0
2, 90720, Note_on_c, 0, 81, 58
2, 99288, Note_on_c, 0, 81, 0
2, 99360, Note_on_c, 0, 83, 58
2, 99360, Note_on_c, 0, 74, 58
2, 99648, Note_on_c, 0, 74, 0
2, 99648, Note_on_c, 0, 83, 0
2, 100800, Note_on_c, 0, 71, 58
2, 100800, Note_on_c, 0, 80, 58
2, 101088, Note_on_c, 0, 80, 0
2, 101088, Note_on_c, 0, 71, 0
2, 102240, Note_on_c, 0, 81, 58
2, 102720, Note_on_c, 0, 81, 0
2, 102720, Note_on_c, 0, 85, 92
2, 103200, Note_on_c, 0, 85, 0
2, 103200, Note_on_c, 0, 78, 92
2, 103680, Note_on_c, 0, 78, 0
2, 103680, Note_on_c, 0, 81, 92
2, 104160, Note_on_c, 0, 81, 0
2, 104160, Note_on_c, 0, 75, 92
2, 104640, Note_on_c, 0, 75, 0
2, 104640, Note_on_c, 0, 78, 92
2, 105120, Note_on_c, 0, 78, 0
2, 105120, Note_on_c, 0, 76, 92
2, 106488, Note_on_c, 0, 76, 0
2, 106560, Note_on_c, 0, 74, 92
2, 106560, Note_on_c, 0, 80, 92
2, 107928, Note_on_c, 0, 80, 0
2, 107928, Note_on_c, 0, 74, 0
2, 108000, Note_on_c, 0, 73, 92
2, 108000, Note_on_c, 0, 81, 92
2, 108384, Note_on_c, 0, 81, 0
2, 108384, Note_on_c, 0, 73, 0
2, 108720, Note_on_c, 0, 81, 92
2, 108864, Note_on_c, 0, 81, 0
2, 108960, Note_on_c, 0, 81, 92
2, 109104, Note_on_c, 0, 81, 0
2, 109200, Note_on_c, 0, 81, 92
2, 109344, Note_on_c, 0, 81, 0
2, 109440, Note_on_c, 0, 81, 92
2, 109824, Note_on_c, 0, 81, 0
2, 110160, Note_on_c, 0, 81, 92
2, 110304, Note_on_c, 0, 81, 0
2, 110400, Note_on_c, 0, 81, 92
2, 110544, Note_on_c, 0, 81, 0
2, 110640, Note_on_c, 0, 81, 92
2, 110784, Note_on_c, 0, 81, 0
2, 110880, Note_on_c, 0, 81, 92
2, 111264, Note_on_c, 0, 81, 0
2, 111600, Note_on_c, 0, 81, 92
2, 111744, Note_on_c, 0, 81, 0
2, 111840, Note_on_c, 0, 81, 92
2, 111984, Note_on_c, 0, 81, 0
2, 112080, Note_on_c, 0, 81, 92
2, 112224, Note_on_c, 0, 81, 0
2, 112320, Note_on_c, 0, 81, 92
2, 112608, Note_on_c, 0, 81, 0
2, 112800, Note_on_c, 0, 69, 92
2, 113088, Note_on_c, 0, 69, 0
2, 113760, Note_on_c, 0, 78, 92
2, 113760, Note_on_c, 0, 86, 92
2, 114048, Note_on_c, 0, 86, 0
2, 114048, Note_on_c, 0, 78, 0
2, 114120, Note_on_c, 0, 86, 92
2, 114120, Note_on_c, 0, 78, 92
2, 114216, Note_on_c, 0, 78, 0
2, 114216, Note_on_c, 0, 86, 0
2, 114240, Note_on_c, 0, 78, 92
2, 114240, Note_on_c, 0, 86, 92
2, 114624, Note_on_c, 0, 86, 0
2, 114624, Note_on_c, 0, 78, 0
2, 115200, Note_on_c, 0, 76, 92
2, 115200, Note_on_c, 0, 81, 92
2, 115488, Note_on_c, 0, 81, 0
2, 115488, Note_on_c, 0, 76, 0
2, 115560, Note_on_c, 0, 81, 92
2, 115560, Note_on_c, 0, 76, 92
2, 115656, Note_on_c, 0, 76, 0
2, 115656, Note_on_c, 0, 81, 0
2, 115680, Note_on_c, 0, 76, 92
2, 115680, Note_on_c, 0, 81, 92
2, 116064, Note_on_c, 0, 81, 0
2, 116064, Note_on_c, 0, 76, 0
2, 116640, Note_on_c, 0, 79, 92
2, 116904, Note_on_c, 0, 79, 0
2, 117120, Note_on_c, 0, 78, 92
2, 117384, Note_on_c, 0, 78, 0
2, 117600, Note_on_c, 0, 76, 92
2, 117864, Note_on_c, 0, 76, 0
2, 118080, Note_on_c, 0, 74, 92
2, 118140, Note_on_c, 0, 74, 0
2, 118140, Note_on_c, 0, 73, 92
2, 118200, Note_on_c, 0, 73, 0
2, 118200, Note_on_c, 0, 74, 92
2, 118260, Note_on_c, 0, 74, 0
2, 118260, Note_on_c, 0, 73, 92
2, 118320, Note_on_c, 0, 73, 0
2, 118320, Note_on_c, 0, 74, 92
2, 118380, Note_on_c, 0, 74, 0
2, 118380, Note_on_c, 0, 73, 92
2, 118440, Note_on_c, 0, 73, 0
2, 118440, Note_on_c, 0, 71, 92
2, 118500, Note_on_c, 0, 71, 0
2, 118500, Note_on_c, 0, 73, 92
2, 118560, Note_on_c, 0, 73, 0
2, 118560, Note_on_c, 0, 74, 92
2, 118848, Note_on_c, 0, 74, 0
2, 119520, Note_on_c, 0, 86, 58
2, 120960, Note_on_c, 0, 86, 0
2, 120960, Note_on_c, 0, 86, 58
2, 122328, Note_on_c, 0, 86, 0
2, 122880, Note_on_c, 0, 78, 92
2, 123168, Note_on_c, 0, 78, 0
2, 123360, Note_on_c, 0, 76, 92
2, 123648, Note_on_c, 0, 76, 0
2, 123840, Note_on_c, 0, 74, 92
2, 123960, Note_on_c, 0, 74, 0
2, 123960, Note_on_c, 0, 73, 92
2, 124080, Note_on_c, 0, 73, 0
2, 124080, Note_on_c, 0, 71, 92
2, 124200, Note_on_c, 0, 71, 0
2, 124200, Note_on_c, 0, 69, 92
2, 124296, Note_on_c, 0, 69, 0
2, 124320, Note_on_c, 0, 74, 92
2, 124440, Note_on_c, 0, 74, 0
2, 124440, Note_on_c, 0, 73, 92
2, 124560, Note_on_c, 0, 73, 0
2, 124560, Note_on_c, 0, 71, 92
2, 124680, Note_on_c, 0, 71, 0
2, 124680, Note_on_c, 0, 69, 92
2, 124776, Note_on_c, 0, 69, 0
2, 124800, Note_on_c, 0, 74, 92
2, 125184, Note_on_c, 0, 74, 0
2, 125280, Note_on_c, 0, 86, 98
2, 125520, Note_on_c, 0, 86, 0
2, 125520, Note_on_c, 0, 85, 58
2, 125760, Note_on_c, 0, 85, 0
2, 125760, Note_on_c, 0, 83, 58
2, 126000, Note_on_c, 0, 83, 0
2, 126000, Note_on_c, 0, 81, 58
2, 126192, Note_on_c, 0, 81, 0
2, 126240, Note_on_c, 0, 81, 58
2, 126384, Note_on_c, 0, 81, 0
2, 126480, Note_on_c, 0, 81, 58
2, 126624, Note_on_c, 0, 81, 0
2, 126720, Note_on_c, 0, 83, 98
2, 126960, Note_on_c, 0, 83, 0
2, 126960, Note_on_c, 0, 81, 58
2, 127200, Note_on_c, 0, 81, 0
2, 127200, Note_on_c, 0, 79, 58
2, 127440, Note_on_c, 0, 79, 0
2, 127440, Note_on_c, 0, 78, 58
2, 127632, Note_on_c, 0, 78, 0
2, 127680, Note_on_c, 0, 78, 58
2, 127824, Note_on_c, 0, 78, 0
2, 127920, Note_on_c, 0, 78, 58
2, 128064, Note_on_c, 0, 78, 0
2, 128160, Note_on_c, 0, 81, 92
2, 128280, Note_on_c, 0, 81, 0
2, 128280, Note_on_c, 0, 79, 92
2, 128496, Note_on_c, 0, 79, 0
2, 128640, Note_on_c, 0, 78, 92
2, 128928, Note_on_c, 0, 78, 0
2, 129120, Note_on_c, 0, 76, 92
2, 129408, Note_on_c, 0, 76, 0
2, 129600, Note_on_c, 0, 78, 92
2, 132408, Note_on_c, 0, 78, 0
2, 132480, Note_on_c, 0, 76, 92
2, 133848, Note_on_c, 0, 76, 0
2, 133920, Note_on_c, 0, 81, 92
2, 135288, Note_on_c, 0, 81, 0
2, 135360, Note_on_c, 0, 80, 92
2, 138168, Note_on_c, 0, 80, 0
2, 138240, Note_on_c, 0, 81, 92
2, 138624, Note_on_c, 0, 81, 0
2, 145440, Note_on_c, 0, 80, 92
2, 145920, Note_on_c, 0, 80, 0
2, 145920, Note_on_c, 0, 83, 92
2, 146400, Note_on_c, 0, 83, 0
2, 146400, Note_on_c, 0, 81, 92
2, 146880, Note_on_c, 0, 81, 0
2, 146880, Note_on_c, 0, 80, 92
2, 147360, Note_on_c, 0, 80, 0
2, 147360, Note_on_c, 0, 83, 92
2, 147840, Note_on_c, 0, 83, 0
2, 147840, Note_on_c, 0, 81, 92
2, 148320, Note_on_c, 0, 81, 0
2, 148320, Note_on_c, 0, 80, 92
2, 148608, Note_on_c, 0, 80, 0
2, 148800, Note_on_c, 0, 76, 92
2, 148860, Note_on_c, 0, 76, 0
2, 148860, Note_on_c, 0, 75, 92
2, 148920, Note_on_c, 0, 75, 0
2, 148920, Note_on_c, 0, 76, 92
2, 148980, Note_on_c, 0, 76, 0
2, 148980, Note_on_c, 0, 75, 92
2, 149040, Note_on_c, 0, 75, 0
2, 149040, Note_on_c, 0, 76, 92
2, 149100, Note_on_c, 0, 76, 0
2, 149100, Note_on_c, 0, 75, 92
2, 149160, Note_on_c, 0, 75, 0
2, 149160, Note_on_c, 0, 76, 92
2, 149220, Note_on_c, 0, 76, 0
2, 149220, Note_on_c, 0, 75, 92
2, 149280, Note_on_c, 0, 75, 0
2, 149280, Note_on_c, 0, 76, 92
2, 149340, Note_on_c, 0, 76, 0
2, 149340, Note_on_c, 0, 75, 92
2, 149400, Note_on_c, 0, 75, 0
2, 149400, Note_on_c, 0, 76, 92
2, 149460, Note_on_c, 0, 76, 0
2, 149460, Note_on_c, 0, 75, 92
2, 149520, Note_on_c, 0, 75, 0
2, 149520, Note_on_c, 0, 73, 92
2, 149640, Note_on_c, 0, 73, 0
2, 149640, Note_on_c, 0, 75, 92
2, 149760, Note_on_c, 0, 75, 0
2, 149760, Note_on_c, 0, 76, 92
2, 150048, Note_on_c, 0, 76, 0
2, 150240, Note_on_c, 0, 64, 70
2, 150528, Note_on_c, 0, 64, 0
2, 164640, Note_on_c, 0, 81, 92
2, 164700, Note_on_c, 0, 81, 0
2, 164700, Note_on_c, 0, 80, 92
2, 164760, Note_on_c, 0, 80, 0
2, 164760, Note_on_c, 0, 81, 92
2, 164820, Note_on_c, 0, 81, 0
2, 164820, Note_on_c, 0, 80, 92
2, 164880, Note_on_c, 0, 80, 0
2, 164880, Note_on_c, 0, 81, 92
2, 164940, Note_on_c, 0, 81, 0
2, 164940, Note_on_c, 0, 80, 92
2, 165000, Note_on_c, 0, 80, 0
2, 165000, Note_on_c, 0, 81, 92
2, 165060, Note_on_c, 0, 81, 0
2, 165060, Note_on_c, 0, 80, 92
2, 165120, Note_on_c, 0, 80, 0
2, 165120, Note_on_c, 0, 81, 92
2, 165180, Note_on_c, 0, 81, 0
2, 165180, Note_on_c, 0, 80, 92
2, 165240, Note_on_c, 0, 80, 0
2, 165240, Note_on_c, 0, 81, 92
2, 165300, Note_on_c, 0, 81, 0
2, 165300, Note_on_c, 0, 80, 92
2, 165360, Note_on_c, 0, 80, 0
2, 165360, Note_on_c, 0, 78, 92
2, 165480, Note_on_c, 0, 78, 0
2, 165480, Note_on_c, 0, 80, 92
2, 165600, Note_on_c, 0, 80, 0
2, 165600, Note_on_c, 0, 81, 92
2, 165888, Note_on_c, 0, 81, 0
2, 166080, Note_on_c, 0, 69, 70
2, 166368, Note_on_c, 0, 69, 0
2, 168480, Note_on_c, 0, 64, 58
2, 168480, Note_on_c, 0, 76, 58
2, 173568, Note_on_c, 0, 76, 0
2, 173568, Note_on_c, 0, 64, 0
2, 187680, Note_on_c, 0, 73, 92
2, 187740, Note_on_c, 0, 73, 0
2, 187740, Note_on_c, 0, 71, 92
2, 187800, Note_on_c, 0, 71, 0
2, 187800, Note_on_c, 0, 73, 92
2, 187860, Note_on_c, 0, 73, 0
2, 187860, Note_on_c, 0, 71, 92
2, 187920, Note_on_c, 0, 71, 0
2, 187920, Note_on_c, 0, 73, 92
2, 187980, Note_on_c, 0, 73, 0
2, 187980, Note_on_c, 0, 71, 92
2, 188040, Note_on_c, 0, 71, 0
2, 188040, Note_on_c, 0, 73, 92
2, 188100, Note_on_c, 0, 73, 0
2, 188100, Note_on_c, 0, 71, 92
2, 188160, Note_on_c, 0, 71, 0
2, 188160, Note_on_c, 0, 73, 92
2, 188220, Note_on_c, 0, 73, 0
2, 188220, Note_on_c, 0, 71, 92
2, 188280, Note_on_c, 0, 71, 0
2, 188280, Note_on_c, 0, 73, 92
2, 188340, Note_on_c, 0, 73, 0
2, 188340, Note_on_c, 0, 71, 92
2, 188400, Note_on_c, 0, 71, 0
2, 188400, Note_on_c, 0, 69, 92
2, 188520, Note_on_c, 0, 69, 0
2, 188520, Note_on_c, 0, 71, 92
2, 188640, Note_on_c, 0, 71, 0
2, 188640, Note_on_c, 0, 74, 92
2, 189024, Note_on_c, 0, 74, 0
2, 190560, Note_on_c, 0, 76, 92
2, 190620, Note_on_c, 0, 76, 0
2, 190620, Note_on_c, 0, 74, 92
2, 190680, Note_on_c, 0, 74, 0
2, 190680, Note_on_c, 0, 76, 92
2, 190740, Note_on_c, 0, 76, 0
2, 190740, Note_on_c, 0, 74, 92
2, 190800, Note_on_c, 0, 74, 0
2, 190800, Note_on_c, 0, 76, 92
2, 190860, Note_on_c, 0, 76, 0
2, 190860, Note_on_c, 0, 74, 92
2, 190920, Note_on_c, 0, 74, 0
2, 190920, Note_on_c, 0, 76, 92
2, 190980, Note_on_c, 0, 76, 0
2, 190980, Note_on_c, 0, 74, 92
2, 191040, Note_on_c, 0, 74, 0
2, 191040, Note_on_c, 0, 76, 92
2, 191100, Note_on_c, 0, 76, 0
2, 191100, Note_on_c, 0, 74, 92
2, 191160, Note_on_c, 0, 74, 0
2, 191160, Note_on_c, 0, 76, 92
2, 191220, Note_on_c, 0, 76, 0
2, 191220, Note_on_c, 0, 74, 92
2, 191280, Note_on_c, 0, 74, 0
2, 191280, Note_on_c, 0, 73, 92
2, 191400, Note_on_c, 0, 73, 0
2, 191400, Note_on_c, 0, 74, 92
2, 191520, Note_on_c, 0, 74, 0
2, 191520, Note_on_c, 0, 76, 92
2, 191904, Note_on_c, 0, 76, 0
2, 193440, Note_on_c, 0, 78, 92
2, 193500, Note_on_c, 0, 78, 0
2, 193500, Note_on_c, 0, 76, 92
2, 193560, Note_on_c, 0, 76, 0
2, 193560, Note_on_c, 0, 78, 92
2, 193620, Note_on_c, 0, 78, 0
2, 193620, Note_on_c, 0, 76, 92
2, 193680, Note_on_c, 0, 76, 0
2, 193680, Note_on_c, 0, 78, 92
2, 193740, Note_on_c, 0, 78, 0
2, 193740, Note_on_c, 0, 76, 92
2, 193800, Note_on_c, 0, 76, 0
2, 193800, Note_on_c, 0, 78, 92
2, 193860, Note_on_c, 0, 78, 0
2, 193860, Note_on_c, 0, 76, 92
2, 193920, Note_on_c, 0, 76, 0
2, 193920, Note_on_c, 0, 78, 92
2, 193980, Note_on_c, 0, 78, 0
2, 193980, Note_on_c, 0, 76, 92
2, 194040, Note_on_c, 0, 76, 0
2, 194040, Note_on_c, 0, 78, 92
2, 194100, Note_on_c, 0, 78, 0
2, 194100, Note_on_c, 0, 76, 92
2, 194160, Note_on_c, 0, 76, 0
2, 194160, Note_on_c, 0, 74, 92
2, 194280, Note_on_c, 0, 74, 0
2, 194280, Note_on_c, 0, 76, 92
2, 194400, Note_on_c, 0, 76, 0
2, 194400, Note_on_c, 0, 78, 92
2, 194784, Note_on_c, 0, 78, 0
2, 196320, Note_on_c, 0, 76, 92
2, 196380, Note_on_c, 0, 76, 0
2, 196380, Note_on_c, 0, 74, 92
2, 196440, Note_on_c, 0, 74, 0
2, 196440, Note_on_c, 0, 76, 92
2, 196500, Note_on_c, 0, 76, 0
2, 196500, Note_on_c, 0, 74, 92
2, 196560, Note_on_c, 0, 74, 0
2, 196560, Note_on_c, 0, 76, 92
2, 196620, Note_on_c, 0, 76, 0
2, 196620, Note_on_c, 0, 74, 92
2, 196680, Note_on_c, 0, 74, 0
2, 196680, Note_on_c, 0, 76, 92
2, 196740, Note_on_c, 0, 76, 0
2, 196740, Note_on_c, 0, 74, 92
2, 196800, Note_on_c, 0, 74, 0
2, 196800, Note_on_c, 0, 76, 92
2, 196860, Note_on_c, 0, 76, 0
2, 196860, Note_on_c, 0, 74, 92
2, 196920, Note_on_c, 0, 74, 0
2, 196920, Note_on_c, 0, 76, 92
2, 196980, Note_on_c, 0, 76, 0
2, 196980, Note_on_c, 0, 74, 92
2, 197040, Note_on_c, 0, 74, 0
2, 197040, Note_on_c, 0, 73, 92
2, 197160, Note_on_c, 0, 73, 0
2, 197160, Note_on_c, 0, 74, 92
2, 197280, Note_on_c, 0, 74, 0
2, 197280, Note_on_c, 0, 76, 92
2, 197664, Note_on_c, 0, 76, 0
2, 199200, Note_on_c, 0, 78, 92
2, 199260, Note_on_c, 0, 78, 0
2, 199260, Note_on_c, 0, 76, 92
2, 199320, Note_on_c, 0, 76, 0
2, 199320, Note_on_c, 0, 78, 92
2, 199380, Note_on_c, 0, 78, 0
2, 199380, Note_on_c, 0, 76, 92
2, 199440, Note_on_c, 0, 76, 0
2, 199440, Note_on_c, 0, 78, 92
2, 199500, Note_on_c, 0, 78, 0
2, 199500, Note_on_c, 0, 76, 92
2, 199560, Note_on_c, 0, 76, 0
2, 199560, Note_on_c, 0, 78, 92
2, 199620, Note_on_c, 0, 78, 0
2, 199620, Note_on_c, 0, 76, 92
2, 199680, Note_on_c, 0, 76, 0
2, 199680, Note_on_c, 0, 78, 92
2, 199740, Note_on_c, 0, 78, 0
2, 199740, Note_on_c, 0, 76, 92
2, 199800, Note_on_c, 0, 76, 0
2, 199800, Note_on_c, 0, 78, 92
2, 199860, Note_on_c, 0, 78, 0
2, 199860, Note_on_c, 0, 76, 92
2, 199920, Note_on_c, 0, 76, 0
2, 199920, Note_on_c, 0, 74, 92
2, 200040, Note_on_c, 0, 74, 0
2, 200040, Note_on_c, 0, 76, 92
2, 200160, Note_on_c, 0, 76, 0
2, 200160, Note_on_c, 0, 74, 92
2, 201120, Note_on_c, 0, 74, 0
2, 201120, Note_on_c, 0, 73, 92
2, 201600, Note_on_c, 0, 73, 0
2, 201600, Note_on_c, 0, 78, 92
2, 202560, Note_on_c, 0, 78, 0
2, 202560, Note_on_c, 0, 80, 92
2, 203040, Note_on_c, 0, 80, 0
2, 203040, Note_on_c, 0, 81, 58
2, 211608, Note_on_c, 0, 81, 0
2, 211680, Note_on_c, 0, 83, 58
2, 211680, Note_on_c, 0, 74, 58
2, 211968, Note_on_c, 0, 74, 0
2, 211968, Note_on_c, 0, 83, 0
2, 213120, Note_on_c, 0, 71, 58
2, 213120, Note_on_c, 0, 80, 58
2, 213408, Note_on_c, 0, 80, 0
2, 213408, Note_on_c, 0, 71, 0
2, 214560, Note_on_c, 0, 81, 58
2, 215040, Note_on_c, 0, 81, 0
2, 215040, Note_on_c, 0, 85, 92
2, 215520, Note_on_c, 0, 85, 0
2, 215520, Note_on_c, 0, 78, 92
2, 216000, Note_on_c, 0, 78, 0
2, 216000, Note_on_c, 0, 81, 92
2, 216480, Note_on_c, 0, 81, 0
2, 216480, Note_on_c, 0, 75, 92
2, 216960, Note_on_c, 0, 75, 0
2, 216960, Note_on_c, 0, 78, 92
2, 217440, Note_on_c, 0, 78, 0
2, 217440, Note_on_c, 0, 76, 92
2, 218808, Note_on_c, 0, 76, 0
2, 218880, Note_on_c, 0, 74, 92
2, 218880, Note_on_c, 0, 80, 92
2, 220248, Note_on_c, 0, 80, 0
2, 220248, Note_on_c, 0, 74, 0
2, 220320, Note_on_c, 0, 73, 92
2, 220320, Note_on_c, 0, 81, 92
2, 220704, Note_on_c, 0, 81, 0
2, 220704, Note_on_c, 0, 73, 0
2, 221040, Note_on_c, 0, 81, 92
2, 221184, Note_on_c, 0, 81, 0
2, 221280, Note_on_c, 0, 81, 92
2, 221424, Note_on_c, 0, 81, 0
2, 221520, Note_on_c, 0, 81, 92
2, 221664, Note_on_c, 0, 81, 0
2, 221760, Note_on_c, 0, 81, 92
2, 222144, Note_on_c, 0, 81, 0
2, 222480, Note_on_c, 0, 81, 92
2, 222624, Note_on_c, 0, 81, 0
2, 222720, Note_on_c, 0, 81, 92
2, 222864, Note_on_c, 0, 81, 0
2, 222960, Note_on_c, 0, 81, 92
2, 223104, Note_on_c, 0, 81, 0
2, 223200, Note_on_c, 0, 81, 92
2, 223584, Note_on_c, 0, 81, 0
2, 223920, Note_on_c, 0, 81, 92
2, 224064, Note_on_c, 0, 81, 0
2, 224160, Note_on_c, 0, 81, 92
2, 224304, Note_on_c, 0, 81, 0
2, 224400, Note_on_c, 0, 81, 92
2, 224544, Note_on_c, 0, 81, 0
2, 224640, Note_on_c, 0, 81, 92
2, 224928, Note_on_c, 0, 81, 0
2, 225120, Note_on_c, 0, 69, 92
2, 225408, Note_on_c, 0, 69, 0
2, 231840, Note_on_c, 0, 79, 70
2, 231840, Note_on_c, 0, 76, 70
2, 232200, Note_on_c, 0, 76, 0
2, 232200, Note_on_c, 0, 79, 0
2, 232200, Note_on_c, 0, 81, 70
2, 232200, Note_on_c, 0, 78, 70
2, 232296, Note_on_c, 0, 78, 0
2, 232296, Note_on_c, 0, 81, 0
2, 232320, Note_on_c, 0, 78, 70
2, 232320, Note_on_c, 0, 74, 70
2, 232680, Note_on_c, 0, 74, 0
2, 232680, Note_on_c, 0, 78, 0
2, 232680, Note_on_c, 0, 76, 70
2, 232680, Note_on_c, 0, 79, 70
2, 232776, Note_on_c, 0, 79, 0
2, 232776, Note_on_c, 0, 76, 0
2, 232800, Note_on_c, 0, 76, 70
2, 232800, Note_on_c, 0, 73, 70
2, 233184, Note_on_c, 0, 73, 0
2, 233184, Note_on_c, 0, 76, 0
2, 239040, Note_on_c, 0, 84, 70
2, 239040, Note_on_c, 0, 81, 70
2, 239400, Note_on_c, 0, 81, 0
2, 239400, Note_on_c, 0, 84, 0
2, 239400, Note_on_c, 0, 83, 70
2, 239400, Note_on_c, 0, 86, 70
2, 239496, Note_on_c, 0, 86, 0
2, 239496, Note_on_c, 0, 83, 0
2, 239520, Note_on_c, 0, 79, 70
2, 239520, Note_on_c, 0, 83, 70
2, 239880, Note_on_c, 0, 83, 0
2, 239880, Note_on_c, 0, 79, 0
2, 239880, Note_on_c, 0, 81, 70
2, 239880, Note_on_c, 0, 84, 70
2, 239976, Note_on_c, 0, 84, 0
2, 239976, Note_on_c, 0, 81, 0
2, 240000, Note_on_c, 0, 78, 70
2, 240000, Note_on_c, 0, 81, 70
2, 240384, Note_on_c, 0, 81, 0
2, 240384, Note_on_c, 0, 78, 0
2, 246240, Note_on_c, 0, 83, 92
2, 247608, Note_on_c, 0, 83, 0
2, 247680, Note_on_c, 0, 82, 92
2, 248040, Note_on_c, 0, 82, 0
2, 248040, Note_on_c, 0, 83, 92
2, 248136, Note_on_c, 0, 83, 0
2, 248160, Note_on_c, 0, 80, 92
2, 248520, Note_on_c, 0, 80, 0
2, 248520, Note_on_c, 0, 82, 92
2, 248616, Note_on_c, 0, 82, 0
2, 248640, Note_on_c, 0, 78, 92
2, 249024, Note_on_c, 0, 78, 0
2, 249120, Note_on_c, 0, 81, 92
2, 250488, Note_on_c, 0, 81, 0
2, 250560, Note_on_c, 0, 80, 92
2, 250920, Note_on_c, 0, 80, 0
2, 250920, Note_on_c, 0, 81, 92
2, 251016, Note_on_c, 0, 81, 0
2, 251040, Note_on_c, 0, 78, 92
2, 251400, Note_on_c, 0, 78, 0
2, 251400, Note_on_c, 0, 80, 92
2, 251496, Note_on_c, 0, 80, 0
2, 251520, Note_on_c, 0, 76, 92
2, 251904, Note_on_c, 0, 76, 0
2, 252000, Note_on_c, 0, 79, 92
2, 253368, Note_on_c, 0, 79, 0
2, 253440, Note_on_c, 0, 69, 92
2, 253440, Note_on_c, 0, 78, 92
2, 254880, Note_on_c, 0, 78, 0
2, 254880, Note_on_c, 0, 69, 0
2, 254880, Note_on_c, 0, 76, 92
2, 254880, Note_on_c, 0, 81, 92
2, 256320, Note_on_c, 0, 81, 0
2, 256320, Note_on_c, 0, 76, 0
2, 256320, Note_on_c, 0, 69, 92
2, 256320, Note_on_c, 0, 78, 92
2, 257760, Note_on_c, 0, 78, 0
2, 257760, Note_on_c, 0, 69, 0
2, 257760, Note_on_c, 0, 74, 92
2, 257760, Note_on_c, 0, 79, 92
2, 259200, Note_on_c, 0, 79, 0
2, 259200, Note_on_c, 0, 74, 0
2, 275040, Note_on_c, 0, 86, 92
2, 275328, Note_on_c, 0, 86, 0
2, 275400, Note_on_c, 0, 86, 92
2, 275496, Note_on_c, 0, 86, 0
2, 275520, Note_on_c, 0, 86, 92
2, 275904, Note_on_c, 0, 86, 0
2, 276480, Note_on_c, 0, 81, 92
2, 276768, Note_on_c, 0, 81, 0
2, 276840, Note_on_c, 0, 81, 92
2, 276936, Note_on_c, 0, 81, 0
2, 276960, Note_on_c, 0, 81, 92
2, 277344, Note_on_c, 0, 81, 0
2, 277920, Note_on_c, 0, 79, 92
2, 278208, Note_on_c, 0, 79, 0
2, 278400, Note_on_c, 0, 78, 92
2, 278688, Note_on_c, 0, 78, 0
2, 278880, Note_on_c, 0, 76, 92
2, 279168, Note_on_c, 0, 76, 0
2, 279360, Note_on_c, 0, 74, 92
2, 279420, Note_on_c, 0, 74, 0
2, 279420, Note_on_c, 0, 73, 92
2, 279480, Note_on_c, 0, 73, 0
2, 279480, Note_on_c, 0, 74, 92
2, 279540, Note_on_c, 0, 74, 0
2, 279540, Note_on_c, 0, 73, 92
2, 279600, Note_on_c, 0, 73, 0
2, 279600, Note_on_c, 0, 74, 92
2, 279660, Note_on_c, 0, 74, 0
2, 279660, Note_on_c, 0, 73, 92
2, 279720, Note_on_c, 0, 73, 0
2, 279720, Note_on_c, 0, 71, 92
2, 279780, Note_on_c, 0, 71, 0
2, 279780, Note_on_c, 0, 73, 92
2, 279840, Note_on_c, 0, 73, 0
2, 279840, Note_on_c, 0, 74, 92
2, 280224, Note_on_c, 0, 74, 0
2, 280800, Note_on_c, 0, 86, 58
2, 282168, Note_on_c, 0, 86, 0
2, 282240, Note_on_c, 0, 86, 58
2, 283608, Note_on_c, 0, 86, 0
2, 284160, Note_on_c, 0, 78, 92
2, 284448, Note_on_c, 0, 78, 0
2, 284640, Note_on_c, 0, 76, 92
2, 284928, Note_on_c, 0, 76, 0
2, 285120, Note_on_c, 0, 74, 92
2, 285240, Note_on_c, 0, 74, 0
2, 285240, Note_on_c, 0, 73, 92
2, 285360, Note_on_c, 0, 73, 0
2, 285360, Note_on_c, 0, 71, 92
2, 285480, Note_on_c, 0, 71, 0
2, 285480, Note_on_c, 0, 69, 92
2, 285576, Note_on_c, 0, 69, 0
2, 285600, Note_on_c, 0, 74, 92
2, 285720, Note_on_c, 0, 74, 0
2, 285720, Note_on_c, 0, 73, 92
2, 285840, Note_on_c, 0, 73, 0
2, 285840, Note_on_c, 0, 71, 92
2, 285960, Note_on_c, 0, 71, 0
2, 285960, Note_on_c, 0, 69, 92
2, 286056, Note_on_c, 0, 69, 0
2, 286080, Note_on_c, 0, 74, 92
2, 286464, Note_on_c, 0, 74, 0
2, 287520, Note_on_c, 0, 86, 92
2, 288312, Note_on_c, 0, 86, 0
2, 288480, Note_on_c, 0, 74, 92
2, 288792, Note_on_c, 0, 74, 0
2, 288960, Note_on_c, 0, 79, 92
2, 289272, Note_on_c, 0, 79, 0
2, 290400, Note_on_c, 0, 71, 92
2, 290400, Note_on_c, 0, 83, 92
2, 291192, Note_on_c, 0, 83, 0
2, 291192, Note_on_c, 0, 71, 0
2, 291360, Note_on_c, 0, 71, 92
2, 291672, Note_on_c, 0, 71, 0
2, 291840, Note_on_c, 0, 76, 92
2, 291840, Note_on_c, 0, 64, 92
2, 292152, Note_on_c, 0, 64, 0
2, 292152, Note_on_c, 0, 76, 0
2, 295200, Note_on_c, 0, 76, 92
2, 296160, Note_on_c, 0, 76, 0
2, 296160, Note_on_c, 0, 74, 92
2, 296640, Note_on_c, 0, 74, 0
2, 296640, Note_on_c, 0, 73, 92
2, 298008, Note_on_c, 0, 73, 0
2, 298080, Note_on_c, 0, 76, 92
2, 299448, Note_on_c, 0, 76, 0
2, 299520, Note_on_c, 0, 78, 92
2, 302328, Note_on_c, 0, 78, 0
2, 302400, Note_on_c, 0, 79, 92
2, 305280, Note_on_c, 0, 79, 0
2, 305280, Note_on_c, 0, 78, 92
2, 305664, Note_on_c, 0, 78, 0
2, 312480, Note_on_c, 0, 76, 92
2, 312960, Note_on_c, 0, 76, 0
2, 312960, Note_on_c, 0, 79, 92
2, 313440, Note_on_c, 0, 79, 0
2, 313440, Note_on_c, 0, 78, 92
2, 313920, Note_on_c, 0, 78, 0
2, 313920, Note_on_c, 0, 76, 92
2, 314400, Note_on_c, 0, 76, 0
2, 314400, Note_on_c, 0, 79, 92
2, 314880, Note_on_c, 0, 79, 0
2, 314880, Note_on_c, 0, 78, 92
2, 315360, Note_on_c, 0, 78, 0
2, 315360, Note_on_c, 0, 76, 92
2, 315672, Note_on_c, 0, 76, 0
2, 315840, Note_on_c, 0, 81, 92
2, 315900, Note_on_c, 0, 81, 0
2, 315900, Note_on_c, 0, 80, 92
2, 315960, Note_on_c, 0, 80, 0
2, 315960, Note_on_c, 0, 81, 92
2, 316020, Note_on_c, 0, 81, 0
2, 316020, Note_on_c, 0, 80, 92
2, 316080, Note_on_c, 0, 80, 0
2, 316080, Note_on_c, 0, 81, 92
2, 316140, Note_on_c, 0, 81, 0
2, 316140, Note_on_c, 0, 80, 92
2, 316200, Note_on_c, 0, 80, 0
2, 316200, Note_on_c, 0, 81, 92
2, 316260, Note_on_c, 0, 81, 0
2, 316260, Note_on_c, 0, 80, 92
2, 316320, Note_on_c, 0, 80, 0
2, 316320, Note_on_c, 0, 81, 92
2, 316380, Note_on_c, 0, 81, 0
2, 316380, Note_on_c, 0, 80, 92
2, 316440, Note_on_c, 0, 80, 0
2, 316440, Note_on_c, 0, 81, 92
2, 316500, Note_on_c, 0, 81, 0
2, 316500, Note_on_c, 0, 80, 92
2, 316560, Note_on_c, 0, 80, 0
2, 316560, Note_on_c, 0, 78, 92
2, 316680, Note_on_c, 0, 78, 0
2, 316680, Note_on_c, 0, 80, 92
2, 316800, Note_on_c, 0, 80, 0
2, 316800, Note_on_c, 0, 81, 92
2, 317184, Note_on_c, 0, 81, 0
2, 317280, Note_on_c, 0, 69, 80
2, 317664, Note_on_c, 0, 69, 0
2, 331680, Note_on_c, 0, 86, 92
2, 331740, Note_on_c, 0, 86, 0
2, 331740, Note_on_c, 0, 85, 92
2, 331800, Note_on_c, 0, 85, 0
2, 331800, Note_on_c, 0, 86, 92
2, 331860, Note_on_c, 0, 86, 0
2, 331860, Note_on_c, 0, 85, 92
2, 331920, Note_on_c, 0, 85, 0
2, 331920, Note_on_c, 0, 86, 92
2, 331980, Note_on_c, 0, 86, 0
2, 331980, Note_on_c, 0, 85, 92
2, 332040, Note_on_c, 0, 85, 0
2, 332040, Note_on_c, 0, 86, 92
2, 332100, Note_on_c, 0, 86, 0
2, 332100, Note_on_c, 0, 85, 92
2, 332160, Note_on_c, 0, 85, 0
2, 332160, Note_on_c, 0, 86, 92
2, 332220, Note_on_c, 0, 86, 0
2, 332220, Note_on_c, 0, 85, 92
2, 332280, Note_on_c, 0, 85, 0
2, 332280, Note_on_c, 0, 86, 92
2, 332340, Note_on_c, 0, 86, 0
2, 332340, Note_on_c, 0, 85, 92
2, 332400, Note_on_c, 0, 85, 0
2, 332400, Note_on_c, 0, 83, 92
2, 332520, Note_on_c, 0, 83, 0
2, 332520, Note_on_c, 0, 85, 92
2, 332640, Note_on_c, 0, 85, 0
2, 332640, Note_on_c, 0, 86, 92
2, 333024, Note_on_c, 0, 86, 0
2, 333120, Note_on_c, 0, 74, 92
2, 333504, Note_on_c, 0, 74, 0
2, 335520, Note_on_c, 0, 69, 58
2, 335520, Note_on_c, 0, 81, 58
2, 340800, Note_on_c, 0, 81, 0
2, 340800, Note_on_c, 0, 69, 0
2, 359040, Note_on_c, 0, 79, 92
2, 359100, Note_on_c, 0, 79, 0
2, 359100, Note_on_c, 0, 78, 92
2, 359160, Note_on_c, 0, 78, 0
2, 359160, Note_on_c, 0, 79, 92
2, 359220, Note_on_c, 0, 79, 0
2, 359220, Note_on_c, 0, 78, 92
2, 359280, Note_on_c, 0, 78, 0
2, 359280, Note_on_c, 0, 79, 92
2, 359340, Note_on_c, 0, 79, 0
2, 359340, Note_on_c, 0, 78, 92
2, 359400, Note_on_c, 0, 78, 0
2, 359400, Note_on_c, 0, 79, 92
2, 359460, Note_on_c, 0, 79, 0
2, 359460, Note_on_c, 0, 78, 92
2, 359520, Note_on_c, 0, 78, 0
2, 359520, Note_on_c, 0, 79, 92
2, 359580, Note_on_c, 0, 79, 0
2, 359580, Note_on_c, 0, 78, 92
2, 359640, Note_on_c, 0, 78, 0
2, 359640, Note_on_c, 0, 79, 92
2, 359700, Note_on_c, 0, 79, 0
2, 359700, Note_on_c, 0, 78, 92
2, 359760, Note_on_c, 0, 78, 0
2, 359760, Note_on_c, 0, 76, 92
2, 359880, Note_on_c, 0, 76, 0
2, 359880, Note_on_c, 0, 78, 92
2, 360000, Note_on_c, 0, 78, 0
2, 360000, Note_on_c, 0, 79, 92
2, 360384, Note_on_c, 0, 79, 0
2, 361920, Note_on_c, 0, 81, 92
2, 361980, Note_on_c, 0, 81, 0
2, 361980, Note_on_c, 0, 79, 92
2, 362040, Note_on_c, 0, 79, 0
2, 362040, Note_on_c, 0, 81, 92
2, 362100, Note_on_c, 0, 81, 0
2, 362100, Note_on_c, 0, 79, 92
2, 362160, Note_on_c, 0, 79, 0
2, 362160, Note_on_c, 0, 81, 92
2, 362220, Note_on_c, 0, 81, 0
2, 362220, Note_on_c, 0, 79, 92
2, 362280, Note_on_c, 0, 79, 0
2, 362280, Note_on_c, 0, 81, 92
2, 362340, Note_on_c, 0, 81, 0
2, 362340, Note_on_c, 0, 79, 92
2, 362400, Note_on_c, 0, 79, 0
2, 362400, Note_on_c, 0, 81, 92
2, 362460, Note_on_c, 0, 81, 0
2, 362460, Note_on_c, 0, 79, 92
2, 362520, Note_on_c, 0, 79, 0
2, 362520, Note_on_c, 0, 81, 92
2, 362580, Note_on_c, 0, 81, 0
2, 362580, Note_on_c, 0, 79, 92
2, 362640, Note_on_c, 0, 79, 0
2, 362640, Note_on_c, 0, 78, 92
2, 362760, Note_on_c, 0, 78, 0
2, 362760, Note_on_c, 0, 79, 92
2, 362880, Note_on_c, 0, 79, 0
2, 362880, Note_on_c, 0, 81, 92
2, 363264, Note_on_c, 0, 81, 0
2, 364800, Note_on_c, 0, 83, 92
2, 364860, Note_on_c, 0, 83, 0
2, 364860, Note_on_c, 0, 81, 92
2, 364920, Note_on_c, 0, 81, 0
2, 364920, Note_on_c, 0, 83, 92
2, 364980, Note_on_c, 0, 83, 0
2, 364980, Note_on_c, 0, 81, 92
2, 365040, Note_on_c, 0, 81, 0
2, 365040, Note_on_c, 0, 83, 92
2, 365100, Note_on_c, 0, 83, 0
2, 365100, Note_on_c, 0, 81, 92
2, 365160, Note_on_c, 0, 81, 0
2, 365160, Note_on_c, 0, 83, 92
2, 365220, Note_on_c, 0, 83, 0
2, 365220, Note_on_c, 0, 81, 92
2, 365280, Note_on_c, 0, 81, 0
2, 365280, Note_on_c, 0, 83, 92
2, 365340, Note_on_c, 0, 83, 0
2, 365340, Note_on_c, 0, 81, 92
2, 365400, Note_on_c, 0, 81, 0
2, 365400, Note_on_c, 0, 83, 92
2, 365460, Note_on_c, 0, 83, 0
2, 365460, Note_on_c, 0, 81, 92
2, 365520, Note_on_c, 0, 81, 0
2, 365520, Note_on_c, 0, 79, 92
2, 365640, Note_on_c, 0, 79, 0
2, 365640, Note_on_c, 0, 81, 92
2, 365760, Note_on_c, 0, 81, 0
2, 365760, Note_on_c, 0, 83, 92
2, 366144, Note_on_c, 0, 83, 0
2, 367680, Note_on_c, 0, 81, 92
2, 367740, Note_on_c, 0, 81, 0
2, 367740, Note_on_c, 0, 79, 92
2, 367800, Note_on_c, 0, 79, 0
2, 367800, Note_on_c, 0, 81, 92
2, 367860, Note_on_c, 0, 81, 0
2, 367860, Note_on_c, 0, 79, 92
2, 367920, Note_on_c, 0, 79, 0
2, 367920, Note_on_c, 0, 81, 92
2, 367980, Note_on_c, 0, 81, 0
2, 367980, Note_on_c, 0, 79, 92
2, 368040, Note_on_c, 0, 79, 0
2, 368040, Note_on_c, 0, 81, 92
2, 368100, Note_on_c, 0, 81, 0
2, 368100, Note_on_c, 0, 79, 92
2, 368160, Note_on_c, 0, 79, 0
2, 368160, Note_on_c, 0, 81, 92
2, 368220, Note_on_c, 0, 81, 0
2, 368220, Note_on_c, 0, 79, 92
2, 368280, Note_on_c, 0, 79, 0
2, 368280, Note_on_c, 0, 81, 92
2, 368340, Note_on_c, 0, 81, 0
2, 368340, Note_on_c, 0, 79, 92
2, 368400, Note_on_c, 0, 79, 0
2, 368400, Note_on_c, 0, 78, 92
2, 368520, Note_on_c, 0, 78, 0
2, 368520, Note_on_c, 0, 79, 92
2, 368640, Note_on_c, 0, 79, 0
2, 368640, Note_on_c, 0, 81, 92
2, 369024, Note_on_c, 0, 81, 0
2, 370560, Note_on_c, 0, 83, 92
2, 370620, Note_on_c, 0, 83, 0
2, 370620, Note_on_c, 0, 81, 92
2, 370680, Note_on_c, 0, 81, 0
2, 370680, Note_on_c, 0, 83, 92
2, 370740, Note_on_c, 0, 83, 0
2, 370740, Note_on_c, 0, 81, 92
2, 370800, Note_on_c, 0, 81, 0
2, 370800, Note_on_c, 0, 83, 92
2, 370860, Note_on_c, 0, 83, 0
2, 370860, Note_on_c, 0, 81, 92
2, 370920, Note_on_c, 0, 81, 0
2, 370920, Note_on_c, 0, 83, 92
2, 370980, Note_on_c, 0, 83, 0
2, 370980, Note_on_c, 0, 81, 92
2, 371040, Note_on_c, 0, 81, 0
2, 371040, Note_on_c, 0, 83, 92
2, 371100, Note_on_c, 0, 83, 0
2, 371100, Note_on_c, 0, 81, 92
2, 371160, Note_on_c, 0, 81, 0
2, 371160, Note_on_c, 0, 83, 92
2, 371220, Note_on_c, 0, 83, 0
2, 371220, Note_on_c, 0, 81, 92
2, 371280, Note_on_c, 0, 81, 0
2, 371280, Note_on_c, 0, 79, 92
2, 371400, Note_on_c, 0, 79, 0
2, 371400, Note_on_c, 0, 81, 92
2, 371520, Note_on_c, 0, 81, 0
2, 371520, Note_on_c, 0, 79, 92
2, 372432, Note_on_c, 0, 79, 0
2, 372480, Note_on_c, 0, 78, 92
2, 373416, Note_on_c, 0, 78, 0
2, 373440, Note_on_c, 0, 76, 92
2, 374352, Note_on_c, 0, 76, 0
2, 374400, Note_on_c, 0, 74, 58
2, 383012, Note_on_c, 0, 74, 0
2, 383040, Note_on_c, 0, 67, 58
2, 383040, Note_on_c, 0, 76, 58
2, 383352, Note_on_c, 0, 76, 0
2, 383352, Note_on_c, 0, 67, 0
2, 384480, Note_on_c, 0, 73, 58
2, 384480, Note_on_c, 0, 64, 58
2, 384792, Note_on_c, 0, 64, 0
2, 384792, Note_on_c, 0, 73, 0
2, 385920, Note_on_c, 0, 74, 92
2, 386208, Note_on_c, 0, 74, 0
2, 386400, Note_on_c, 0, 78, 92
2, 386688, Note_on_c, 0, 78, 0
2, 386880, Note_on_c, 0, 83, 92
2, 387168, Note_on_c, 0, 83, 0
2, 387360, Note_on_c, 0, 86, 92
2, 387648, Note_on_c, 0, 86, 0
2, 387840, Note_on_c, 0, 80, 92
2, 388128, Note_on_c, 0, 80, 0
2, 388320, Note_on_c, 0, 83, 92
2, 388608, Note_on_c, 0, 83, 0
2, 388800, Note_on_c, 0, 81, 92
2, 390168, Note_on_c, 0, 81, 0
2, 390240, Note_on_c, 0, 73, 92
2, 390240, Note_on_c, 0, 76, 92
2, 391608, Note_on_c, 0, 76, 0
2, 391608, Note_on_c, 0, 73, 0
2, 391680, Note_on_c, 0, 74, 92
2, 391992, Note_on_c, 0, 74, 0
2, 392400, Note_on_c, 0, 74, 92
2, 392556, Note_on_c, 0, 74, 0
2, 392640, Note_on_c, 0, 74, 92
2, 392796, Note_on_c, 0, 74, 0
2, 392880, Note_on_c, 0, 74, 92
2, 393036, Note_on_c, 0, 74, 0
2, 393120, Note_on_c, 0, 74, 92
2, 393432, Note_on_c, 0, 74, 0
2, 393840, Note_on_c, 0, 74, 92
2, 393996, Note_on_c, 0, 74, 0
2, 394080, Note_on_c, 0, 74, 92
2, 394236, Note_on_c, 0, 74, 0
2, 394320, Note_on_c, 0, 74, 92
2, 394476, Note_on_c, 0, 74, 0
2, 394560, Note_on_c, 0, 74, 92
2, 394872, Note_on_c, 0, 74, 0
2, 395280, Note_on_c, 0, 74, 92
2, 395436, Note_on_c, 0, 74, 0
2, 395520, Note_on_c, 0, 74, 92
2, 395676, Note_on_c, 0, 74, 0
2, 395760, Note_on_c, 0, 74, 92
2, 395916, Note_on_c, 0, 74, 0
2, 396000, Note_on_c, 0, 74, 92
2, 396288, Note_on_c, 0, 74, 0
2, 396480, Note_on_c, 0, 78, 92
2, 396480, Note_on_c, 0, 86, 92
2, 396768, Note_on_c, 0, 86, 0
2, 396768, Note_on_c, 0, 78, 0
2, 401760, Note_on_c, 0, 78, 58
2, 401760, Note_on_c, 0, 81, 58
2, 402120, Note_on_c, 0, 81, 0
2, 402120, Note_on_c, 0, 78, 0
2, 402120, Note_on_c, 0, 83, 58
2, 402120, Note_on_c, 0, 79, 58
2, 402216, Note_on_c, 0, 79, 0
2, 402216, Note_on_c, 0, 83, 0
2, 402240, Note_on_c, 0, 76, 58
2, 402240, Note_on_c, 0, 79, 58
2, 402600, Note_on_c, 0, 79, 0
2, 402600, Note_on_c, 0, 76, 0
2, 402600, Note_on_c, 0, 81, 58
2, 402600, Note_on_c, 0, 78, 58
2, 402696, Note_on_c, 0, 78, 0
2, 402696, Note_on_c, 0, 81, 0
2, 402720, Note_on_c, 0, 74, 58
2, 402720, Note_on_c, 0, 78, 58
2, 403104, Note_on_c, 0, 78, 0
2, 403104, Note_on_c, 0, 74, 0
2, 404640, Note_on_c, 0, 81, 58
2, 404640, Note_on_c, 0, 78, 58
2, 405000, Note_on_c, 0, 78, 0
2, 405000, Note_on_c, 0, 81, 0
2, 405000, Note_on_c, 0, 79, 58
2, 405000, Note_on_c, 0, 83, 58
2, 405096, Note_on_c, 0, 83, 0
2, 405096, Note_on_c, 0, 79, 0
2, 405120, Note_on_c, 0, 79, 58
2, 405120, Note_on_c, 0, 76, 58
2, 405480, Note_on_c, 0, 76, 0
2, 405480, Note_on_c, 0, 79, 0
2, 405480, Note_on_c, 0, 81, 58
2, 405480, Note_on_c, 0, 78, 58
2, 405576, Note_on_c, 0, 78, 0
2, 405576, Note_on_c, 0, 81, 0
2, 405600, Note_on_c, 0, 78, 58
2, 405600, Note_on_c, 0, 74, 58
2, 405984, Note_on_c, 0, 74, 0
2, 405984, Note_on_c, 0, 78, 0
2, 406080, Note_on_c, 0, 79, 58
2, 406464, Note_on_c, 0, 79, 0
2, 406560, Note_on_c, 0, 76, 92
2, 406944, Note_on_c, 0, 76, 0
2, 407040, Note_on_c, 0, 81, 92
2, 407424, Note_on_c, 0, 81, 0
2, 407520, Note_on_c, 0, 83, 92
2, 407904, Note_on_c, 0, 83, 0
2, 408000, Note_on_c, 0, 86, 92
2, 408384, Note_on_c, 0, 86, 0
2, 408480, Note_on_c, 0, 78, 92
2, 408864, Note_on_c, 0, 78, 0
2, 408960, Note_on_c, 0, 79, 92
2, 409344, Note_on_c, 0, 79, 0
2, 409440, Note_on_c, 0, 76, 92
2, 409824, Note_on_c, 0, 76, 0
2, 409920, Note_on_c, 0, 81, 92
2, 410304, Note_on_c, 0, 81, 0
2, 410400, Note_on_c, 0, 74, 92
2, 411168, Note_on_c, 0, 74, 0
2, 411168, End_track
3, 0, Start_track
3, 0, Sequencer_specific, 04, 43, 00, 01, 00
3, 0, Program_c, 0, 68
3, 0, Control_c, 0, 7, 90
3, 0, Control_c, 0, 10, 64
3, 0, Control_c, 0, 91, 100
3, 4320, Note_on_c, 0, 74, 92
3, 4704, Note_on_c, 0, 74, 0
3, 4800, Note_on_c, 0, 73, 92
3, 5184, Note_on_c, 0, 73, 0
3, 5280, Note_on_c, 0, 71, 92
3, 5664, Note_on_c, 0, 71, 0
3, 5760, Note_on_c, 0, 67, 92
3, 6240, Note_on_c, 0, 67, 0
3, 6240, Note_on_c, 0, 66, 92
3, 6528, Note_on_c, 0, 66, 0
3, 7200, Note_on_c, 0, 74, 58
3, 8640, Note_on_c, 0, 74, 0
3, 8640, Note_on_c, 0, 74, 58
3, 10008, Note_on_c, 0, 74, 0
3, 10560, Note_on_c, 0, 69, 92
3, 10848, Note_on_c, 0, 69, 0
3, 11040, Note_on_c, 0, 67, 92
3, 11328, Note_on_c, 0, 67, 0
3, 11520, Note_on_c, 0, 66, 92
3, 11808, Note_on_c, 0, 66, 0
3, 12960, Note_on_c, 0, 83, 98
3, 13200, Note_on_c, 0, 83, 0
3, 13200, Note_on_c, 0, 81, 58
3, 13440, Note_on_c, 0, 81, 0
3, 13440, Note_on_c, 0, 79, 58
3, 13680, Note_on_c, 0, 79, 0
3, 13680, Note_on_c, 0, 78, 58
3, 13872, Note_on_c, 0, 78, 0
3, 13920, Note_on_c, 0, 78, 58
3, 14064, Note_on_c, 0, 78, 0
3, 14160, Note_on_c, 0, 78, 58
3, 14304, Note_on_c, 0, 78, 0
3, 14400, Note_on_c, 0, 79, 98
3, 14640, Note_on_c, 0, 79, 0
3, 14640, Note_on_c, 0, 78, 58
3, 14880, Note_on_c, 0, 78, 0
3, 14880, Note_on_c, 0, 76, 58
3, 15120, Note_on_c, 0, 76, 0
3, 15120, Note_on_c, 0, 74, 58
3, 15312, Note_on_c, 0, 74, 0
3, 15360, Note_on_c, 0, 74, 58
3, 15504, Note_on_c, 0, 74, 0
3, 15600, Note_on_c, 0, 74, 58
3, 15744, Note_on_c, 0, 74, 0
3, 15840, Note_on_c, 0, 78, 58
3, 15960, Note_on_c, 0, 78, 0
3, 15960, Note_on_c, 0, 76, 92
3, 16176, Note_on_c, 0, 76, 0
3, 16320, Note_on_c, 0, 74, 92
3, 16608, Note_on_c, 0, 74, 0
3, 16800, Note_on_c, 0, 73, 92
3, 17088, Note_on_c, 0, 73, 0
3, 17280, Note_on_c, 0, 74, 92
3, 20088, Note_on_c, 0, 74, 0
3, 20160, Note_on_c, 0, 73, 92
3, 22968, Note_on_c, 0, 73, 0
3, 23040, Note_on_c, 0, 74, 92
3, 24408, Note_on_c, 0, 74, 0
3, 24480, Note_on_c, 0, 71, 92
3, 25848, Note_on_c, 0, 71, 0
3, 25920, Note_on_c, 0, 69, 92
3, 26304, Note_on_c, 0, 69, 0
3, 33120, Note_on_c, 0, 71, 92
3, 33600, Note_on_c, 0, 71, 0
3, 33600, Note_on_c, 0, 74, 92
3, 34080, Note_on_c, 0, 74, 0
3, 34080, Note_on_c, 0, 73, 92
3, 34560, Note_on_c, 0, 73, 0
3, 34560, Note_on_c, 0, 71, 92
3, 35040, Note_on_c, 0, 71, 0
3, 35040, Note_on_c, 0, 74, 92
3, 35520, Note_on_c, 0, 74, 0
3, 35520, Note_on_c, 0, 73, 92
3, 36000, Note_on_c, 0, 73, 0
3, 36000, Note_on_c, 0, 71, 92
3, 36288, Note_on_c, 0, 71, 0
3, 75360, Note_on_c, 0, 71, 92
3, 75420, Note_on_c, 0, 71, 0
3, 75420, Note_on_c, 0, 69, 92
3, 75480, Note_on_c, 0, 69, 0
3, 75480, Note_on_c, 0, 71, 92
3, 75540, Note_on_c, 0, 71, 0
3, 75540, Note_on_c, 0, 69, 92
3, 75600, Note_on_c, 0, 69, 0
3, 75600, Note_on_c, 0, 71, 92
3, 75660, Note_on_c, 0, 71, 0
3, 75660, Note_on_c, 0, 69, 92
3, 75720, Note_on_c, 0, 69, 0
3, 75720, Note_on_c, 0, 71, 92
3, 75780, Note_on_c, 0, 71, 0
3, 75780, Note_on_c, 0, 69, 92
3, 75840, Note_on_c, 0, 69, 0
3, 75840, Note_on_c, 0, 71, 92
3, 75900, Note_on_c, 0, 71, 0
3, 75900, Note_on_c, 0, 69, 92
3, 75960, Note_on_c, 0, 69, 0
3, 75960, Note_on_c, 0, 71, 92
3, 76020, Note_on_c, 0, 71, 0
3, 76020, Note_on_c, 0, 69, 92
3, 76080, Note_on_c, 0, 69, 0
3, 76080, Note_on_c, 0, 68, 92
3, 76200, Note_on_c, 0, 68, 0
3, 76200, Note_on_c, 0, 69, 92
3, 76296, Note_on_c, 0, 69, 0
3, 76320, Note_on_c, 0, 71, 92
3, 76704, Note_on_c, 0, 71, 0
3, 78240, Note_on_c, 0, 73, 92
3, 78300, Note_on_c, 0, 73, 0
3, 78300, Note_on_c, 0, 71, 92
3, 78360, Note_on_c, 0, 71, 0
3, 78360, Note_on_c, 0, 73, 92
3, 78420, Note_on_c, 0, 73, 0
3, 78420, Note_on_c, 0, 71, 92
3, 78480, Note_on_c, 0, 71, 0
3, 78480, Note_on_c, 0, 73, 92
3, 78540, Note_on_c, 0, 73, 0
3, 78540, Note_on_c, 0, 71, 92
3, 78600, Note_on_c, 0, 71, 0
3, 78600, Note_on_c, 0, 73, 92
3, 78660, Note_on_c, 0, 73, 0
3, 78660, Note_on_c, 0, 71, 92
3, 78720, Note_on_c, 0, 71, 0
3, 78720, Note_on_c, 0, 73, 92
3, 78780, Note_on_c, 0, 73, 0
3, 78780, Note_on_c, 0, 71, 92
3, 78840, Note_on_c, 0, 71, 0
3, 78840, Note_on_c, 0, 73, 92
3, 78900, Note_on_c, 0, 73, 0
3, 78900, Note_on_c, 0, 71, 92
3, 78960, Note_on_c, 0, 71, 0
3, 78960, Note_on_c, 0, 69, 92
3, 79080, Note_on_c, 0, 69, 0
3, 79080, Note_on_c, 0, 71, 92
3, 79200, Note_on_c, 0, 71, 0
3, 79200, Note_on_c, 0, 73, 92
3, 79584, Note_on_c, 0, 73, 0
3, 81120, Note_on_c, 0, 74, 92
3, 81180, Note_on_c, 0, 74, 0
3, 81180, Note_on_c, 0, 73, 92
3, 81240, Note_on_c, 0, 73, 0
3, 81240, Note_on_c, 0, 74, 92
3, 81300, Note_on_c, 0, 74, 0
3, 81300, Note_on_c, 0, 73, 92
3, 81360, Note_on_c, 0, 73, 0
3, 81360, Note_on_c, 0, 74, 92
3, 81420, Note_on_c, 0, 74, 0
3, 81420, Note_on_c, 0, 73, 92
3, 81480, Note_on_c, 0, 73, 0
3, 81480, Note_on_c, 0, 74, 92
3, 81540, Note_on_c, 0, 74, 0
3, 81540, Note_on_c, 0, 73, 92
3, 81600, Note_on_c, 0, 73, 0
3, 81600, Note_on_c, 0, 74, 92
3, 81660, Note_on_c, 0, 74, 0
3, 81660, Note_on_c, 0, 73, 92
3, 81720, Note_on_c, 0, 73, 0
3, 81720, Note_on_c, 0, 74, 92
3, 81780, Note_on_c, 0, 74, 0
3, 81780, Note_on_c, 0, 73, 92
3, 81840, Note_on_c, 0, 73, 0
3, 81840, Note_on_c, 0, 71, 92
3, 81960, Note_on_c, 0, 71, 0
3, 81960, Note_on_c, 0, 73, 92
3, 82080, Note_on_c, 0, 73, 0
3, 82080, Note_on_c, 0, 74, 92
3, 82464, Note_on_c, 0, 74, 0
3, 84000, Note_on_c, 0, 73, 92
3, 84060, Note_on_c, 0, 73, 0
3, 84060, Note_on_c, 0, 71, 92
3, 84120, Note_on_c, 0, 71, 0
3, 84120, Note_on_c, 0, 73, 92
3, 84180, Note_on_c, 0, 73, 0
3, 84180, Note_on_c, 0, 71, 92
3, 84240, Note_on_c, 0, 71, 0
3, 84240, Note_on_c, 0, 73, 92
3, 84300, Note_on_c, 0, 73, 0
3, 84300, Note_on_c, 0, 71, 92
3, 84360, Note_on_c, 0, 71, 0
3, 84360, Note_on_c, 0, 73, 92
3, 84420, Note_on_c, 0, 73, 0
3, 84420, Note_on_c, 0, 71, 92
3, 84480, Note_on_c, 0, 71, 0
3, 84480, Note_on_c, 0, 73, 92
3, 84540, Note_on_c, 0, 73, 0
3, 84540, Note_on_c, 0, 71, 92
3, 84600, Note_on_c, 0, 71, 0
3, 84600, Note_on_c, 0, 73, 92
3, 84660, Note_on_c, 0, 73, 0
3, 84660, Note_on_c, 0, 71, 92
3, 84720, Note_on_c, 0, 71, 0
3, 84720, Note_on_c, 0, 69, 92
3, 84840, Note_on_c, 0, 69, 0
3, 84840, Note_on_c, 0, 71, 92
3, 84960, Note_on_c, 0, 71, 0
3, 84960, Note_on_c, 0, 73, 92
3, 85344, Note_on_c, 0, 73, 0
3, 86880, Note_on_c, 0, 74, 92
3, 86940, Note_on_c, 0, 74, 0
3, 86940, Note_on_c, 0, 73, 92
3, 87000, Note_on_c, 0, 73, 0
3, 87000, Note_on_c, 0, 74, 92
3, 87060, Note_on_c, 0, 74, 0
3, 87060, Note_on_c, 0, 73, 92
3, 87120, Note_on_c, 0, 73, 0
3, 87120, Note_on_c, 0, 74, 92
3, 87180, Note_on_c, 0, 74, 0
3, 87180, Note_on_c, 0, 73, 92
3, 87240, Note_on_c, 0, 73, 0
3, 87240, Note_on_c, 0, 74, 92
3, 87300, Note_on_c, 0, 74, 0
3, 87300, Note_on_c, 0, 73, 92
3, 87360, Note_on_c, 0, 73, 0
3, 87360, Note_on_c, 0, 74, 92
3, 87420, Note_on_c, 0, 74, 0
3, 87420, Note_on_c, 0, 73, 92
3, 87480, Note_on_c, 0, 73, 0
3, 87480, Note_on_c, 0, 74, 92
3, 87540, Note_on_c, 0, 74, 0
3, 87540, Note_on_c, 0, 73, 92
3, 87600, Note_on_c, 0, 73, 0
3, 87600, Note_on_c, 0, 71, 92
3, 87720, Note_on_c, 0, 71, 0
3, 87720, Note_on_c, 0, 73, 92
3, 87840, Note_on_c, 0, 73, 0
3, 87840, Note_on_c, 0, 71, 92
3, 88800, Note_on_c, 0, 71, 0
3, 88800, Note_on_c, 0, 69, 92
3, 89760, Note_on_c, 0, 69, 0
3, 89760, Note_on_c, 0, 74, 92
3, 90720, Note_on_c, 0, 74, 0
3, 90720, Note_on_c, 0, 73, 58
3, 91104, Note_on_c, 0, 73, 0
3, 116640, Note_on_c, 0, 74, 92
3, 117024, Note_on_c, 0, 74, 0
3, 117120, Note_on_c, 0, 73, 92
3, 117504, Note_on_c, 0, 73, 0
3, 117600, Note_on_c, 0, 71, 92
3, 117984, Note_on_c, 0, 71, 0
3, 118080, Note_on_c, 0, 67, 92
3, 118560, Note_on_c, 0, 67, 0
3, 118560, Note_on_c, 0, 66, 92
3, 118848, Note_on_c, 0, 66, 0
3, 119520, Note_on_c, 0, 74, 58
3, 120960, Note_on_c, 0, 74, 0
3, 120960, Note_on_c, 0, 74, 58
3, 122328, Note_on_c, 0, 74, 0
3, 122880, Note_on_c, 0, 69, 92
3, 123168, Note_on_c, 0, 69, 0
3, 123360, Note_on_c, 0, 67, 92
3, 123648, Note_on_c, 0, 67, 0
3, 123840, Note_on_c, 0, 66, 92
3, 124128, Note_on_c, 0, 66, 0
3, 125280, Note_on_c, 0, 83, 98
3, 125520, Note_on_c, 0, 83, 0
3, 125520, Note_on_c, 0, 81, 58
3, 125760, Note_on_c, 0, 81, 0
3, 125760, Note_on_c, 0, 79, 58
3, 126000, Note_on_c, 0, 79, 0
3, 126000, Note_on_c, 0, 78, 58
3, 126192, Note_on_c, 0, 78, 0
3, 126240, Note_on_c, 0, 78, 58
3, 126384, Note_on_c, 0, 78, 0
3, 126480, Note_on_c, 0, 78, 58
3, 126624, Note_on_c, 0, 78, 0
3, 126720, Note_on_c, 0, 79, 98
3, 126960, Note_on_c, 0, 79, 0
3, 126960, Note_on_c, 0, 78, 58
3, 127200, Note_on_c, 0, 78, 0
3, 127200, Note_on_c, 0, 76, 58
3, 127440, Note_on_c, 0, 76, 0
3, 127440, Note_on_c, 0, 74, 58
3, 127632, Note_on_c, 0, 74, 0
3, 127680, Note_on_c, 0, 74, 58
3, 127824, Note_on_c, 0, 74, 0
3, 127920, Note_on_c, 0, 74, 58
3, 128064, Note_on_c, 0, 74, 0
3, 128160, Note_on_c, 0, 78, 58
3, 128280, Note_on_c, 0, 78, 0
3, 128280, Note_on_c, 0, 76, 92
3, 128496, Note_on_c, 0, 76, 0
3, 128640, Note_on_c, 0, 74, 92
3, 128928, Note_on_c, 0, 74, 0
3, 129120, Note_on_c, 0, 73, 92
3, 129408, Note_on_c, 0, 73, 0
3, 129600, Note_on_c, 0, 74, 92
3, 132408, Note_on_c, 0, 74, 0
3, 132480, Note_on_c, 0, 73, 92
3, 135288, Note_on_c, 0, 73, 0
3, 135360, Note_on_c, 0, 74, 92
3, 136728, Note_on_c, 0, 74, 0
3, 136800, Note_on_c, 0, 71, 92
3, 138168, Note_on_c, 0, 71, 0
3, 138240, Note_on_c, 0, 69, 92
3, 138624, Note_on_c, 0, 69, 0
3, 145440, Note_on_c, 0, 71, 92
3, 145920, Note_on_c, 0, 71, 0
3, 145920, Note_on_c, 0, 74, 92
3, 146400, Note_on_c, 0, 74, 0
3, 146400, Note_on_c, 0, 73, 92
3, 146880, Note_on_c, 0, 73, 0
3, 146880, Note_on_c, 0, 71, 92
3, 147360, Note_on_c, 0, 71, 0
3, 147360, Note_on_c, 0, 74, 92
3, 147840, Note_on_c, 0, 74, 0
3, 147840, Note_on_c, 0, 73, 92
3, 148320, Note_on_c, 0, 73, 0
3, 148320, Note_on_c, 0, 71, 92
3, 148608, Note_on_c, 0, 71, 0
3, 187680, Note_on_c, 0, 71, 92
3, 187740, Note_on_c, 0, 71, 0
3, 187740, Note_on_c, 0, 69, 92
3, 187800, Note_on_c, 0, 69, 0
3, 187800, Note_on_c, 0, 71, 92
3, 187860, Note_on_c, 0, 71, 0
3, 187860, Note_on_c, 0, 69, 92
3, 187920, Note_on_c, 0, 69, 0
3, 187920, Note_on_c, 0, 71, 92
3, 187980, Note_on_c, 0, 71, 0
3, 187980, Note_on_c, 0, 69, 92
3, 188040, Note_on_c, 0, 69, 0
3, 188040, Note_on_c, 0, 71, 92
3, 188100, Note_on_c, 0, 71, 0
3, 188100, Note_on_c, 0, 69, 92
3, 188160, Note_on_c, 0, 69, 0
3, 188160, Note_on_c, 0, 71, 92
3, 188220, Note_on_c, 0, 71, 0
3, 188220, Note_on_c, 0, 69, 92
3, 188280, Note_on_c, 0, 69, 0
3, 188280, Note_on_c, 0, 71, 92
3, 188340, Note_on_c, 0, 71, 0
3, 188340, Note_on_c, 0, 69, 92
3, 188400, Note_on_c, 0, 69, 0
3, 188400, Note_on_c, 0, 68, 92
3, 188520, Note_on_c, 0, 68, 0
3, 188520, Note_on_c, 0, 69, 92
3, 188616, Note_on_c, 0, 69, 0
3, 188640, Note_on_c, 0, 71, 92
3, 189024, Note_on_c, 0, 71, 0
3, 190560, Note_on_c, 0, 73, 92
3, 190620, Note_on_c, 0, 73, 0
3, 190620, Note_on_c, 0, 71, 92
3, 190680, Note_on_c, 0, 71, 0
3, 190680, Note_on_c, 0, 73, 92
3, 190740, Note_on_c, 0, 73, 0
3, 190740, Note_on_c, 0, 71, 92
3, 190800, Note_on_c, 0, 71, 0
3, 190800, Note_on_c, 0, 73, 92
3, 190860, Note_on_c, 0, 73, 0
3, 190860, Note_on_c, 0, 71, 92
3, 190920, Note_on_c, 0, 71, 0
3, 190920, Note_on_c, 0, 73, 92
3, 190980, Note_on_c, 0, 73, 0
3, 190980, Note_on_c, 0, 71, 92
3, 191040, Note_on_c, 0, 71, 0
3, 191040, Note_on_c, 0, 73, 92
3, 191100, Note_on_c, 0, 73, 0
3, 191100, Note_on_c, 0, 71, 92
3, 191160, Note_on_c, 0, 71, 0
3, 191160, Note_on_c, 0, 73, 92
3, 191220, Note_on_c, 0, 73, 0
3, 191220, Note_on_c, 0, 71, 92
3, 191280, Note_on_c, 0, 71, 0
3, 191280, Note_on_c, 0, 69, 92
3, 191400, Note_on_c, 0, 69, 0
3, 191400, Note_on_c, 0, 71, 92
3, 191520, Note_on_c, 0, 71, 0
3, 191520, Note_on_c, 0, 73, 92
3, 191904, Note_on_c, 0, 73, 0
3, 193440, Note_on_c, 0, 74, 92
3, 193500, Note_on_c, 0, 74, 0
3, 193500, Note_on_c, 0, 73, 92
3, 193560, Note_on_c, 0, 73, 0
3, 193560, Note_on_c, 0, 74, 92
3, 193620, Note_on_c, 0, 74, 0
3, 193620, Note_on_c, 0, 73, 92
3, 193680, Note_on_c, 0, 73, 0
3, 193680, Note_on_c, 0, 74, 92
3, 193740, Note_on_c, 0, 74, 0
3, 193740, Note_on_c, 0, 73, 92
3, 193800, Note_on_c, 0, 73, 0
3, 193800, Note_on_c, 0, 74, 92
3, 193860, Note_on_c, 0, 74, 0
3, 193860, Note_on_c, 0, 73, 92
3, 193920, Note_on_c, 0, 73, 0
3, 193920, Note_on_c, 0, 74, 92
3, 193980, Note_on_c, 0, 74, 0
3, 193980, Note_on_c, 0, 73, 92
3, 194040, Note_on_c, 0, 73, 0
3, 194040, Note_on_c, 0, 74, 92
3, 194100, Note_on_c, 0, 74, 0
3, 194100, Note_on_c, 0, 73, 92
3, 194160, Note_on_c, 0, 73, 0
3, 194160, Note_on_c, 0, 71, 92
3, 194280, Note_on_c, 0, 71, 0
3, 194280, Note_on_c, 0, 73, 92
3, 194400, Note_on_c, 0, 73, 0
3, 194400, Note_on_c, 0, 74, 92
3, 194784, Note_on_c, 0, 74, 0
3, 196320, Note_on_c, 0, 73, 92
3, 196380, Note_on_c, 0, 73, 0
3, 196380, Note_on_c, 0, 71, 92
3, 196440, Note_on_c, 0, 71, 0
3, 196440, Note_on_c, 0, 73, 92
3, 196500, Note_on_c, 0, 73, 0
3, 196500, Note_on_c, 0, 71, 92
3, 196560, Note_on_c, 0, 71, 0
3, 196560, Note_on_c, 0, 73, 92
3, 196620, Note_on_c, 0, 73, 0
3, 196620, Note_on_c, 0, 71, 92
3, 196680, Note_on_c, 0, 71, 0
3, 196680, Note_on_c, 0, 73, 92
3, 196740, Note_on_c, 0, 73, 0
3, 196740, Note_on_c, 0, 71, 92
3, 196800, Note_on_c, 0, 71, 0
3, 196800, Note_on_c, 0, 73, 92
3, 196860, Note_on_c, 0, 73, 0
3, 196860, Note_on_c, 0, 71, 92
3, 196920, Note_on_c, 0, 71, 0
3, 196920, Note_on_c, 0, 73, 92
3, 196980, Note_on_c, 0, 73, 0
3, 196980, Note_on_c, 0, 71, 92
3, 197040, Note_on_c, 0, 71, 0
3, 197040, Note_on_c, 0, 69, 92
3, 197160, Note_on_c, 0, 69, 0
3, 197160, Note_on_c, 0, 71, 92
3, 197280, Note_on_c, 0, 71, 0
3, 197280, Note_on_c, 0, 73, 92
3, 197664, Note_on_c, 0, 73, 0
3, 199200, Note_on_c, 0, 74, 92
3, 199260, Note_on_c, 0, 74, 0
3, 199260, Note_on_c, 0, 73, 92
3, 199320, Note_on_c, 0, 73, 0
3, 199320, Note_on_c, 0, 74, 92
3, 199380, Note_on_c, 0, 74, 0
3, 199380, Note_on_c, 0, 73, 92
3, 199440, Note_on_c, 0, 73, 0
3, 199440, Note_on_c, 0, 74, 92
3, 199500, Note_on_c, 0, 74, 0
3, 199500, Note_on_c, 0, 73, 92
3, 199560, Note_on_c, 0, 73, 0
3, 199560, Note_on_c, 0, 74, 92
3, 199620, Note_on_c, 0, 74, 0
3, 199620, Note_on_c, 0, 73, 92
3, 199680, Note_on_c, 0, 73, 0
3, 199680, Note_on_c, 0, 74, 92
3, 199740, Note_on_c, 0, 74, 0
3, 199740, Note_on_c, 0, 73, 92
3, 199800, Note_on_c, 0, 73, 0
3, 199800, Note_on_c, 0, 74, 92
3, 199860, Note_on_c, 0, 74, 0
3, 199860, Note_on_c, 0, 73, 92
3, 199920, Note_on_c, 0, 73, 0
3, 199920, Note_on_c, 0, 71, 92
3, 200040, Note_on_c, 0, 71, 0
3, 200040, Note_on_c, 0, 73, 92
3, 200160, Note_on_c, 0, 73, 0
3, 200160, Note_on_c, 0, 71, 92
3, 201120, Note_on_c, 0, 71, 0
3, 201120, Note_on_c, 0, 69, 92
3, 202080, Note_on_c, 0, 69, 0
3, 202080, Note_on_c, 0, 74, 92
3, 203040, Note_on_c, 0, 74, 0
3, 203040, Note_on_c, 0, 73, 58
3, 203424, Note_on_c, 0, 73, 0
3, 247680, Note_on_c, 0, 76, 92
3, 249048, Note_on_c, 0, 76, 0
3, 249120, Note_on_c, 0, 75, 92
3, 249480, Note_on_c, 0, 75, 0
3, 249480, Note_on_c, 0, 76, 92
3, 249576, Note_on_c, 0, 76, 0
3, 249600, Note_on_c, 0, 73, 92
3, 249960, Note_on_c, 0, 73, 0
3, 249960, Note_on_c, 0, 75, 92
3, 250056, Note_on_c, 0, 75, 0
3, 250080, Note_on_c, 0, 71, 92
3, 250464, Note_on_c, 0, 71, 0
3, 250560, Note_on_c, 0, 74, 92
3, 251928, Note_on_c, 0, 74, 0
3, 252000, Note_on_c, 0, 73, 92
3, 252360, Note_on_c, 0, 73, 0
3, 252360, Note_on_c, 0, 74, 92
3, 252456, Note_on_c, 0, 74, 0
3, 252480, Note_on_c, 0, 71, 92
3, 252840, Note_on_c, 0, 71, 0
3, 252840, Note_on_c, 0, 73, 92
3, 252936, Note_on_c, 0, 73, 0
3, 252960, Note_on_c, 0, 69, 92
3, 253344, Note_on_c, 0, 69, 0
3, 275040, Note_on_c, 0, 78, 92
3, 275328, Note_on_c, 0, 78, 0
3, 275400, Note_on_c, 0, 78, 92
3, 275496, Note_on_c, 0, 78, 0
3, 275520, Note_on_c, 0, 78, 92
3, 275904, Note_on_c, 0, 78, 0
3, 276480, Note_on_c, 0, 76, 92
3, 276768, Note_on_c, 0, 76, 0
3, 276840, Note_on_c, 0, 76, 92
3, 276936, Note_on_c, 0, 76, 0
3, 276960, Note_on_c, 0, 76, 92
3, 277344, Note_on_c, 0, 76, 0
3, 277920, Note_on_c, 0, 74, 92
3, 278208, Note_on_c, 0, 74, 0
3, 278400, Note_on_c, 0, 73, 92
3, 278688, Note_on_c, 0, 73, 0
3, 278880, Note_on_c, 0, 71, 92
3, 279168, Note_on_c, 0, 71, 0
3, 279360, Note_on_c, 0, 67, 92
3, 279840, Note_on_c, 0, 67, 0
3, 279840, Note_on_c, 0, 66, 92
3, 280128, Note_on_c, 0, 66, 0
3, 280800, Note_on_c, 0, 74, 58
3, 282168, Note_on_c, 0, 74, 0
3, 282240, Note_on_c, 0, 74, 58
3, 283608, Note_on_c, 0, 74, 0
3, 284160, Note_on_c, 0, 69, 92
3, 284448, Note_on_c, 0, 69, 0
3, 284640, Note_on_c, 0, 67, 92
3, 284928, Note_on_c, 0, 67, 0
3, 285120, Note_on_c, 0, 66, 92
3, 285504, Note_on_c, 0, 66, 0
3, 287520, Note_on_c, 0, 74, 92
3, 288312, Note_on_c, 0, 74, 0
3, 288480, Note_on_c, 0, 62, 92
3, 288792, Note_on_c, 0, 62, 0
3, 288960, Note_on_c, 0, 67, 92
3, 289272, Note_on_c, 0, 67, 0
3, 295200, Note_on_c, 0, 71, 92
3, 296568, Note_on_c, 0, 71, 0
3, 296640, Note_on_c, 0, 69, 92
3, 298008, Note_on_c, 0, 69, 0
3, 298080, Note_on_c, 0, 73, 92
3, 299448, Note_on_c, 0, 73, 0
3, 299520, Note_on_c, 0, 74, 92
3, 302328, Note_on_c, 0, 74, 0
3, 302400, Note_on_c, 0, 73, 92
3, 304800, Note_on_c, 0, 73, 0
3, 304800, Note_on_c, 0, 76, 92
3, 305280, Note_on_c, 0, 76, 0
3, 305280, Note_on_c, 0, 69, 92
3, 305664, Note_on_c, 0, 69, 0
3, 312480, Note_on_c, 0, 73, 92
3, 312960, Note_on_c, 0, 73, 0
3, 312960, Note_on_c, 0, 76, 92
3, 313440, Note_on_c, 0, 76, 0
3, 313440, Note_on_c, 0, 74, 92
3, 313920, Note_on_c, 0, 74, 0
3, 313920, Note_on_c, 0, 73, 92
3, 314400, Note_on_c, 0, 73, 0
3, 314400, Note_on_c, 0, 76, 92
3, 314880, Note_on_c, 0, 76, 0
3, 314880, Note_on_c, 0, 74, 92
3, 315360, Note_on_c, 0, 74, 0
3, 315360, Note_on_c, 0, 73, 92
3, 315648, Note_on_c, 0, 73, 0
3, 359040, Note_on_c, 0, 76, 92
3, 359100, Note_on_c, 0, 76, 0
3, 359100, Note_on_c, 0, 74, 92
3, 359160, Note_on_c, 0, 74, 0
3, 359160, Note_on_c, 0, 76, 92
3, 359220, Note_on_c, 0, 76, 0
3, 359220, Note_on_c, 0, 74, 92
3, 359280, Note_on_c, 0, 74, 0
3, 359280, Note_on_c, 0, 76, 92
3, 359340, Note_on_c, 0, 76, 0
3, 359340, Note_on_c, 0, 74, 92
3, 359400, Note_on_c, 0, 74, 0
3, 359400, Note_on_c, 0, 76, 92
3, 359460, Note_on_c, 0, 76, 0
3, 359460, Note_on_c, 0, 74, 92
3, 359520, Note_on_c, 0, 74, 0
3, 359520, Note_on_c, 0, 76, 92
3, 359580, Note_on_c, 0, 76, 0
3, 359580, Note_on_c, 0, 74, 92
3, 359640, Note_on_c, 0, 74, 0
3, 359640, Note_on_c, 0, 76, 92
3, 359700, Note_on_c, 0, 76, 0
3, 359700, Note_on_c, 0, 74, 92
3, 359760, Note_on_c, 0, 74, 0
3, 359760, Note_on_c, 0, 73, 92
3, 359880, Note_on_c, 0, 73, 0
3, 359880, Note_on_c, 0, 74, 92
3, 360000, Note_on_c, 0, 74, 0
3, 360000, Note_on_c, 0, 76, 92
3, 360384, Note_on_c, 0, 76, 0
3, 361920, Note_on_c, 0, 78, 92
3, 361980, Note_on_c, 0, 78, 0
3, 361980, Note_on_c, 0, 76, 92
3, 362040, Note_on_c, 0, 76, 0
3, 362040, Note_on_c, 0, 78, 92
3, 362100, Note_on_c, 0, 78, 0
3, 362100, Note_on_c, 0, 76, 92
3, 362160, Note_on_c, 0, 76, 0
3, 362160, Note_on_c, 0, 78, 92
3, 362220, Note_on_c, 0, 78, 0
3, 362220, Note_on_c, 0, 76, 92
3, 362280, Note_on_c, 0, 76, 0
3, 362280, Note_on_c, 0, 78, 92
3, 362340, Note_on_c, 0, 78, 0
3, 362340, Note_on_c, 0, 76, 92
3, 362400, Note_on_c, 0, 76, 0
3, 362400, Note_on_c, 0, 78, 92
3, 362460, Note_on_c, 0, 78, 0
3, 362460, Note_on_c, 0, 76, 92
3, 362520, Note_on_c, 0, 76, 0
3, 362520, Note_on_c, 0, 78, 92
3, 362580, Note_on_c, 0, 78, 0
3, 362580, Note_on_c, 0, 76, 92
3, 362640, Note_on_c, 0, 76, 0
3, 362640, Note_on_c, 0, 74, 92
3, 362760, Note_on_c, 0, 74, 0
3, 362760, Note_on_c, 0, 76, 92
3, 362880, Note_on_c, 0, 76, 0
3, 362880, Note_on_c, 0, 78, 92
3, 363264, Note_on_c, 0, 78, 0
3, 364800, Note_on_c, 0, 79, 92
3, 364860, Note_on_c, 0, 79, 0
3, 364860, Note_on_c, 0, 78, 92
3, 364920, Note_on_c, 0, 78, 0
3, 364920, Note_on_c, 0, 79, 92
3, 364980, Note_on_c, 0, 79, 0
3, 364980, Note_on_c, 0, 78, 92
3, 365040, Note_on_c, 0, 78, 0
3, 365040, Note_on_c, 0, 79, 92
3, 365100, Note_on_c, 0, 79, 0
3, 365100, Note_on_c, 0, 78, 92
3, 365160, Note_on_c, 0, 78, 0
3, 365160, Note_on_c, 0, 79, 92
3, 365220, Note_on_c, 0, 79, 0
3, 365220, Note_on_c, 0, 78, 92
3, 365280, Note_on_c, 0, 78, 0
3, 365280, Note_on_c, 0, 79, 92
3, 365340, Note_on_c, 0, 79, 0
3, 365340, Note_on_c, 0, 78, 92
3, 365400, Note_on_c, 0, 78, 0
3, 365400, Note_on_c, 0, 79, 92
3, 365460, Note_on_c, 0, 79, 0
3, 365460, Note_on_c, 0, 78, 92
3, 365520, Note_on_c, 0, 78, 0
3, 365520, Note_on_c, 0, 76, 92
3, 365640, Note_on_c, 0, 76, 0
3, 365640, Note_on_c, 0, 78, 92
3, 365760, Note_on_c, 0, 78, 0
3, 365760, Note_on_c, 0, 79, 92
3, 366144, Note_on_c, 0, 79, 0
3, 367680, Note_on_c, 0, 78, 92
3, 367740, Note_on_c, 0, 78, 0
3, 367740, Note_on_c, 0, 76, 92
3, 367800, Note_on_c, 0, 76, 0
3, 367800, Note_on_c, 0, 78, 92
3, 367860, Note_on_c, 0, 78, 0
3, 367860, Note_on_c, 0, 76, 92
3, 367920, Note_on_c, 0, 76, 0
3, 367920, Note_on_c, 0, 78, 92
3, 367980, Note_on_c, 0, 78, 0
3, 367980, Note_on_c, 0, 76, 92
3, 368040, Note_on_c, 0, 76, 0
3, 368040, Note_on_c, 0, 78, 92
3, 368100, Note_on_c, 0, 78, 0
3, 368100, Note_on_c, 0, 76, 92
3, 368160, Note_on_c, 0, 76, 0
3, 368160, Note_on_c, 0, 78, 92
3, 368220, Note_on_c, 0, 78, 0
3, 368220, Note_on_c, 0, 76, 92
3, 368280, Note_on_c, 0, 76, 0
3, 368280, Note_on_c, 0, 78, 92
3, 368340, Note_on_c, 0, 78, 0
3, 368340, Note_on_c, 0, 76, 92
3, 368400, Note_on_c, 0, 76, 0
3, 368400, Note_on_c, 0, 74, 92
3, 368520, Note_on_c, 0, 74, 0
3, 368520, Note_on_c, 0, 76, 92
3, 368640, Note_on_c, 0, 76, 0
3, 368640, Note_on_c, 0, 78, 92
3, 369024, Note_on_c, 0, 78, 0
3, 370560, Note_on_c, 0, 79, 92
3, 370620, Note_on_c, 0, 79, 0
3, 370620, Note_on_c, 0, 78, 92
3, 370680, Note_on_c, 0, 78, 0
3, 370680, Note_on_c, 0, 79, 92
3, 370740, Note_on_c, 0, 79, 0
3, 370740, Note_on_c, 0, 78, 92
3, 370800, Note_on_c, 0, 78, 0
3, 370800, Note_on_c, 0, 79, 92
3, 370860, Note_on_c, 0, 79, 0
3, 370860, Note_on_c, 0, 78, 92
3, 370920, Note_on_c, 0, 78, 0
3, 370920, Note_on_c, 0, 79, 92
3, 370980, Note_on_c, 0, 79, 0
3, 370980, Note_on_c, 0, 78, 92
3, 371040, Note_on_c, 0, 78, 0
3, 371040, Note_on_c, 0, 79, 92
3, 371100, Note_on_c, 0, 79, 0
3, 371100, Note_on_c, 0, 78, 92
3, 371160, Note_on_c, 0, 78, 0
3, 371160, Note_on_c, 0, 79, 92
3, 371220, Note_on_c, 0, 79, 0
3, 371220, Note_on_c, 0, 78, 92
3, 371280, Note_on_c, 0, 78, 0
3, 371280, Note_on_c, 0, 76, 92
3, 371400, Note_on_c, 0, 76, 0
3, 371400, Note_on_c, 0, 78, 92
3, 371520, Note_on_c, 0, 78, 0
3, 371520, Note_on_c, 0, 76, 92
3, 372432, Note_on_c, 0, 76, 0
3, 372480, Note_on_c, 0, 74, 92
3, 373872, Note_on_c, 0, 74, 0
3, 373920, Note_on_c, 0, 73, 92
3, 374376, Note_on_c, 0, 73, 0
3, 374376, End_track
4, 0, Start_track
4, 0, Sequencer_specific, 04, 43, 00, 01, 00
4, 0, Program_c, 1, 60
4, 0, Control_c, 1, 7, 115
4, 0, Control_c, 1, 10, 36
4, 0, Control_c, 1, 91, 100
4, 1440, Note_on_c, 1, 62, 92
4, 1440, Note_on_c, 1, 66, 92
4, 1728, Note_on_c, 1, 66, 0
4, 1728, Note_on_c, 1, 62, 0
4, 1800, Note_on_c, 1, 66, 92
4, 1800, Note_on_c, 1, 62, 92
4, 1896, Note_on_c, 1, 62, 0
4, 1896, Note_on_c, 1, 66, 0
4, 1920, Note_on_c, 1, 62, 92
4, 1920, Note_on_c, 1, 66, 92
4, 2304, Note_on_c, 1, 66, 0
4, 2304, Note_on_c, 1, 62, 0
4, 2880, Note_on_c, 1, 57, 92
4, 2880, Note_on_c, 1, 64, 92
4, 3168, Note_on_c, 1, 64, 0
4, 3168, Note_on_c, 1, 57, 0
4, 3240, Note_on_c, 1, 57, 92
4, 3240, Note_on_c, 1, 64, 92
4, 3336, Note_on_c, 1, 64, 0
4, 3336, Note_on_c, 1, 57, 0
4, 3360, Note_on_c, 1, 57, 92
4, 3360, Note_on_c, 1, 64, 92
4, 3744, Note_on_c, 1, 64, 0
4, 3744, Note_on_c, 1, 57, 0
4, 4320, Note_on_c, 1, 50, 92
4, 4320, Note_on_c, 1, 62, 92
4, 4584, Note_on_c, 1, 62, 0
4, 4584, Note_on_c, 1, 50, 0
4, 4800, Note_on_c, 1, 57, 92
4, 5064, Note_on_c, 1, 57, 0
4, 5280, Note_on_c, 1, 64, 92
4, 5544, Note_on_c, 1, 64, 0
4, 5760, Note_on_c, 1, 57, 92
4, 5760, Note_on_c, 1, 64, 92
4, 6048, Note_on_c, 1, 64, 0
4, 6048, Note_on_c, 1, 57, 0
4, 6240, Note_on_c, 1, 66, 92
4, 6240, Note_on_c, 1, 62, 92
4, 6528, Note_on_c, 1, 62, 0
4, 6528, Note_on_c, 1, 66, 0
4, 7200, Note_on_c, 1, 50, 58
4, 7200, Note_on_c, 1, 62, 58
4, 8568, Note_on_c, 1, 62, 0
4, 8568, Note_on_c, 1, 50, 0
4, 8640, Note_on_c, 1, 50, 58
4, 8640, Note_on_c, 1, 62, 58
4, 10008, Note_on_c, 1, 62, 0
4, 10008, Note_on_c, 1, 50, 0
4, 10080, Note_on_c, 1, 64, 92
4, 10080, Note_on_c, 1, 67, 92
4, 10464, Note_on_c, 1, 67, 0
4, 10464, Note_on_c, 1, 64, 0
4, 10560, Note_on_c, 1, 62, 92
4, 10560, Note_on_c, 1, 66, 92
4, 10848, Note_on_c, 1, 66, 0
4, 10848, Note_on_c, 1, 62, 0
4, 11040, Note_on_c, 1, 64, 92
4, 11040, Note_on_c, 1, 57, 92
4, 11328, Note_on_c, 1, 57, 0
4, 11328, Note_on_c, 1, 64, 0
4, 11520, Note_on_c, 1, 50, 92
4, 11520, Note_on_c, 1, 62, 92
4, 11904, Note_on_c, 1, 62, 0
4, 11904, Note_on_c, 1, 50, 0
4, 12960, Note_on_c, 1, 50, 58
4, 12960, Note_on_c, 1, 62, 58
4, 14328, Note_on_c, 1, 62, 0
4, 14328, Note_on_c, 1, 50, 0
4, 14400, Note_on_c, 1, 50, 58
4, 14400, Note_on_c, 1, 62, 58
4, 15768, Note_on_c, 1, 62, 0
4, 15768, Note_on_c, 1, 50, 0
4, 15840, Note_on_c, 1, 64, 92
4, 15840, Note_on_c, 1, 67, 92
4, 16224, Note_on_c, 1, 67, 0
4, 16224, Note_on_c, 1, 64, 0
4, 16320, Note_on_c, 1, 62, 92
4, 16320, Note_on_c, 1, 66, 92
4, 16608, Note_on_c, 1, 66, 0
4, 16608, Note_on_c, 1, 62, 0
4, 16800, Note_on_c, 1, 64, 92
4, 16800, Note_on_c, 1, 57, 92
4, 17088, Note_on_c, 1, 57, 0
4, 17088, Note_on_c, 1, 64, 0
4, 17280, Note_on_c, 1, 54, 92
4, 17280, Note_on_c, 1, 62, 92
4, 20088, Note_on_c, 1, 62, 0
4, 20088, Note_on_c, 1, 54, 0
4, 20160, Note_on_c, 1, 57, 92
4, 20160, Note_on_c, 1, 64, 92
4, 22968, Note_on_c, 1, 64, 0
4, 22968, Note_on_c, 1, 57, 0
4, 23040, Note_on_c, 1, 62, 92
4, 23040, Note_on_c, 1, 64, 92
4, 24408, Note_on_c, 1, 62, 0
4, 25848, Note_on_c, 1, 64, 0
4, 25920, Note_on_c, 1, 57, 92
4, 26304, Note_on_c, 1, 57, 0
4, 33120, Note_on_c, 1, 64, 92
4, 36288, Note_on_c, 1, 64, 0
4, 37440, Note_on_c, 1, 64, 92
4, 37728, Note_on_c, 1, 64, 0
4, 37920, Note_on_c, 1, 64, 70
4, 38208, Note_on_c, 1, 64, 0
4, 73440, Note_on_c, 1, 57, 92
4, 74880, Note_on_c, 1, 57, 0
4, 76320, Note_on_c, 1, 64, 92
4, 77760, Note_on_c, 1, 64, 0
4, 79200, Note_on_c, 1, 57, 92
4, 80640, Note_on_c, 1, 57, 0
4, 82080, Note_on_c, 1, 57, 92
4, 83520, Note_on_c, 1, 57, 0
4, 84960, Note_on_c, 1, 57, 92
4, 86400, Note_on_c, 1, 57, 0
4, 87840, Note_on_c, 1, 62, 92
4, 87840, Note_on_c, 1, 66, 92
4, 88128, Note_on_c, 1, 66, 0
4, 88320, Note_on_c, 1, 64, 92
4, 88608, Note_on_c, 1, 64, 0
4, 88608, Note_on_c, 1, 62, 0
4, 88800, Note_on_c, 1, 57, 92
4, 88800, Note_on_c, 1, 64, 92
4, 89088, Note_on_c, 1, 64, 0
4, 89088, Note_on_c, 1, 57, 0
4, 89280, Note_on_c, 1, 57, 92
4, 89280, Note_on_c, 1, 66, 92
4, 89568, Note_on_c, 1, 66, 0
4, 89568, Note_on_c, 1, 57, 0
4, 89760, Note_on_c, 1, 66, 92
4, 89760, Note_on_c, 1, 57, 92
4, 90048, Note_on_c, 1, 57, 0
4, 90048, Note_on_c, 1, 66, 0
4, 90240, Note_on_c, 1, 64, 92
4, 90528, Note_on_c, 1, 64, 0
4, 90720, Note_on_c, 1, 57, 70
4, 90720, Note_on_c, 1, 64, 70
4, 91104, Note_on_c, 1, 64, 0
4, 91104, Note_on_c, 1, 57, 0
4, 93600, Note_on_c, 1, 45, 58
4, 93600, Note_on_c, 1, 57, 58
4, 99288, Note_on_c, 1, 57, 0
4, 99288, Note_on_c, 1, 45, 0
4, 102240, Note_on_c, 1, 57, 58
4, 103608, Note_on_c, 1, 57, 0
4, 103680, Note_on_c, 1, 69, 92
4, 105048, Note_on_c, 1, 69, 0
4, 105120, Note_on_c, 1, 64, 92
4, 107928, Note_on_c, 1, 64, 0
4, 108000, Note_on_c, 1, 57, 92
4, 108000, Note_on_c, 1, 64, 92
4, 108384, Note_on_c, 1, 64, 0
4, 108384, Note_on_c, 1, 57, 0
4, 108720, Note_on_c, 1, 57, 92
4, 108864, Note_on_c, 1, 57, 0
4, 108960, Note_on_c, 1, 57, 92
4, 109104, Note_on_c, 1, 57, 0
4, 109200, Note_on_c, 1, 57, 92
4, 109344, Note_on_c, 1, 57, 0
4, 109440, Note_on_c, 1, 57, 92
4, 109824, Note_on_c, 1, 57, 0
4, 110160, Note_on_c, 1, 57, 92
4, 110304, Note_on_c, 1, 57, 0
4, 110400, Note_on_c, 1, 57, 92
4, 110544, Note_on_c, 1, 57, 0
4, 110640, Note_on_c, 1, 57, 92
4, 110784, Note_on_c, 1, 57, 0
4, 110880, Note_on_c, 1, 57, 92
4, 111264, Note_on_c, 1, 57, 0
4, 111600, Note_on_c, 1, 57, 92
4, 111744, Note_on_c, 1, 57, 0
4, 111840, Note_on_c, 1, 57, 92
4, 111984, Note_on_c, 1, 57, 0
4, 112080, Note_on_c, 1, 57, 92
4, 112224, Note_on_c, 1, 57, 0
4, 112320, Note_on_c, 1, 57, 92
4, 112608, Note_on_c, 1, 57, 0
4, 112800, Note_on_c, 1, 57, 92
4, 112800, Note_on_c, 1, 45, 92
4, 113088, Note_on_c, 1, 45, 0
4, 113088, Note_on_c, 1, 57, 0
4, 113760, Note_on_c, 1, 62, 92
4, 113760, Note_on_c, 1, 66, 92
4, 114048, Note_on_c, 1, 66, 0
4, 114048, Note_on_c, 1, 62, 0
4, 114120, Note_on_c, 1, 66, 92
4, 114120, Note_on_c, 1, 62, 92
4, 114216, Note_on_c, 1, 62, 0
4, 114216, Note_on_c, 1, 66, 0
4, 114240, Note_on_c, 1, 62, 92
4, 114240, Note_on_c, 1, 66, 92
4, 114624, Note_on_c, 1, 66, 0
4, 114624, Note_on_c, 1, 62, 0
4, 115200, Note_on_c, 1, 57, 92
4, 115200, Note_on_c, 1, 64, 92
4, 115488, Note_on_c, 1, 64, 0
4, 115488, Note_on_c, 1, 57, 0
4, 115560, Note_on_c, 1, 57, 92
4, 115560, Note_on_c, 1, 64, 92
4, 115656, Note_on_c, 1, 64, 0
4, 115656, Note_on_c, 1, 57, 0
4, 115680, Note_on_c, 1, 57, 92
4, 115680, Note_on_c, 1, 64, 92
4, 116064, Note_on_c, 1, 64, 0
4, 116064, Note_on_c, 1, 57, 0
4, 116640, Note_on_c, 1, 50, 92
4, 116640, Note_on_c, 1, 62, 92
4, 116904, Note_on_c, 1, 62, 0
4, 116904, Note_on_c, 1, 50, 0
4, 117120, Note_on_c, 1, 57, 92
4, 117384, Note_on_c, 1, 57, 0
4, 117600, Note_on_c, 1, 64, 92
4, 117864, Note_on_c, 1, 64, 0
4, 118080, Note_on_c, 1, 57, 92
4, 118080, Note_on_c, 1, 64, 92
4, 118368, Note_on_c, 1, 64, 0
4, 118368, Note_on_c, 1, 57, 0
4, 118560, Note_on_c, 1, 66, 92
4, 118560, Note_on_c, 1, 62, 92
4, 118848, Note_on_c, 1, 62, 0
4, 118848, Note_on_c, 1, 66, 0
4, 119520, Note_on_c, 1, 50, 58
4, 119520, Note_on_c, 1, 62, 58
4, 120888, Note_on_c, 1, 62, 0
4, 120888, Note_on_c, 1, 50, 0
4, 120960, Note_on_c, 1, 50, 58
4, 120960, Note_on_c, 1, 62, 58
4, 122328, Note_on_c, 1, 62, 0
4, 122328, Note_on_c, 1, 50, 0
4, 122400, Note_on_c, 1, 64, 92
4, 122400, Note_on_c, 1, 67, 92
4, 122784, Note_on_c, 1, 67, 0
4, 122784, Note_on_c, 1, 64, 0
4, 122880, Note_on_c, 1, 62, 92
4, 122880, Note_on_c, 1, 66, 92
4, 123168, Note_on_c, 1, 66, 0
4, 123168, Note_on_c, 1, 62, 0
4, 123360, Note_on_c, 1, 64, 92
4, 123360, Note_on_c, 1, 57, 92
4, 123648, Note_on_c, 1, 57, 0
4, 123648, Note_on_c, 1, 64, 0
4, 123840, Note_on_c, 1, 50, 92
4, 123840, Note_on_c, 1, 62, 92
4, 124224, Note_on_c, 1, 62, 0
4, 124224, Note_on_c, 1, 50, 0
4, 125280, Note_on_c, 1, 50, 58
4, 125280, Note_on_c, 1, 62, 58
4, 126648, Note_on_c, 1, 62, 0
4, 126648, Note_on_c, 1, 50, 0
4, 126720, Note_on_c, 1, 50, 58
4, 126720, Note_on_c, 1, 62, 58
4, 128088, Note_on_c, 1, 62, 0
4, 128088, Note_on_c, 1, 50, 0
4, 128160, Note_on_c, 1, 64, 92
4, 128160, Note_on_c, 1, 67, 92
4, 128544, Note_on_c, 1, 67, 0
4, 128544, Note_on_c, 1, 64, 0
4, 128640, Note_on_c, 1, 62, 92
4, 128640, Note_on_c, 1, 66, 92
4, 128928, Note_on_c, 1, 66, 0
4, 128928, Note_on_c, 1, 62, 0
4, 129120, Note_on_c, 1, 64, 92
4, 129120, Note_on_c, 1, 57, 92
4, 129408, Note_on_c, 1, 57, 0
4, 129408, Note_on_c, 1, 64, 0
4, 129600, Note_on_c, 1, 54, 92
4, 129600, Note_on_c, 1, 62, 92
4, 132408, Note_on_c, 1, 62, 0
4, 132408, Note_on_c, 1, 54, 0
4, 132480, Note_on_c, 1, 57, 92
4, 132480, Note_on_c, 1, 64, 92
4, 135288, Note_on_c, 1, 64, 0
4, 135288, Note_on_c, 1, 57, 0
4, 135360, Note_on_c, 1, 62, 92
4, 135360, Note_on_c, 1, 64, 92
4, 136728, Note_on_c, 1, 62, 0
4, 138168, Note_on_c, 1, 64, 0
4, 138240, Note_on_c, 1, 57, 92
4, 138624, Note_on_c, 1, 57, 0
4, 145440, Note_on_c, 1, 64, 92
4, 148608, Note_on_c, 1, 64, 0
4, 149760, Note_on_c, 1, 64, 92
4, 150048, Note_on_c, 1, 64, 0
4, 150240, Note_on_c, 1, 64, 70
4, 150528, Note_on_c, 1, 64, 0
4, 185760, Note_on_c, 1, 57, 92
4, 187200, Note_on_c, 1, 57, 0
4, 188640, Note_on_c, 1, 64, 92
4, 190080, Note_on_c, 1, 64, 0
4, 191520, Note_on_c, 1, 57, 92
4, 192960, Note_on_c, 1, 57, 0
4, 194400, Note_on_c, 1, 57, 92
4, 195840, Note_on_c, 1, 57, 0
4, 197280, Note_on_c, 1, 57, 92
4, 198720, Note_on_c, 1, 57, 0
4, 200160, Note_on_c, 1, 62, 92
4, 200160, Note_on_c, 1, 66, 92
4, 200448, Note_on_c, 1, 66, 0
4, 200640, Note_on_c, 1, 64, 92
4, 200928, Note_on_c, 1, 64, 0
4, 200928, Note_on_c, 1, 62, 0
4, 201120, Note_on_c, 1, 57, 92
4, 201120, Note_on_c, 1, 64, 92
4, 201408, Note_on_c, 1, 64, 0
4, 201408, Note_on_c, 1, 57, 0
4, 201600, Note_on_c, 1, 57, 92
4, 201600, Note_on_c, 1, 66, 92
4, 201888, Note_on_c, 1, 66, 0
4, 201888, Note_on_c, 1, 57, 0
4, 202080, Note_on_c, 1, 66, 92
4, 202080, Note_on_c, 1, 57, 92
4, 202368, Note_on_c, 1, 57, 0
4, 202368, Note_on_c, 1, 66, 0
4, 202560, Note_on_c, 1, 64, 92
4, 202848, Note_on_c, 1, 64, 0
4, 203040, Note_on_c, 1, 57, 70
4, 203040, Note_on_c, 1, 64, 70
4, 203424, Note_on_c, 1, 64, 0
4, 203424, Note_on_c, 1, 57, 0
4, 205920, Note_on_c, 1, 45, 58
4, 205920, Note_on_c, 1, 57, 58
4, 211608, Note_on_c, 1, 57, 0
4, 211608, Note_on_c, 1, 45, 0
4, 214560, Note_on_c, 1, 57, 58
4, 215928, Note_on_c, 1, 57, 0
4, 216000, Note_on_c, 1, 69, 92
4, 217368, Note_on_c, 1, 69, 0
4, 217440, Note_on_c, 1, 64, 92
4, 220248, Note_on_c, 1, 64, 0
4, 220320, Note_on_c, 1, 57, 92
4, 220320, Note_on_c, 1, 64, 92
4, 220704, Note_on_c, 1, 64, 0
4, 220704, Note_on_c, 1, 57, 0
4, 221040, Note_on_c, 1, 57, 92
4, 221184, Note_on_c, 1, 57, 0
4, 221280, Note_on_c, 1, 57, 92
4, 221424, Note_on_c, 1, 57, 0
4, 221520, Note_on_c, 1, 57, 92
4, 221664, Note_on_c, 1, 57, 0
4, 221760, Note_on_c, 1, 57, 92
4, 222144, Note_on_c, 1, 57, 0
4, 222480, Note_on_c, 1, 57, 92
4, 222624, Note_on_c, 1, 57, 0
4, 222720, Note_on_c, 1, 57, 92
4, 222864, Note_on_c, 1, 57, 0
4, 222960, Note_on_c, 1, 57, 92
4, 223104, Note_on_c, 1, 57, 0
4, 223200, Note_on_c, 1, 57, 92
4, 223584, Note_on_c, 1, 57, 0
4, 223920, Note_on_c, 1, 57, 92
4, 224064, Note_on_c, 1, 57, 0
4, 224160, Note_on_c, 1, 57, 92
4, 224304, Note_on_c, 1, 57, 0
4, 224400, Note_on_c, 1, 57, 92
4, 224544, Note_on_c, 1, 57, 0
4, 224640, Note_on_c, 1, 57, 92
4, 224928, Note_on_c, 1, 57, 0
4, 225120, Note_on_c, 1, 57, 92
4, 225120, Note_on_c, 1, 45, 92
4, 225408, Note_on_c, 1, 45, 0
4, 225408, Note_on_c, 1, 57, 0
4, 231840, Note_on_c, 1, 64, 58
4, 231840, Note_on_c, 1, 67, 58
4, 232152, Note_on_c, 1, 67, 0
4, 232152, Note_on_c, 1, 64, 0
4, 232320, Note_on_c, 1, 62, 58
4, 232320, Note_on_c, 1, 66, 58
4, 232632, Note_on_c, 1, 66, 0
4, 232632, Note_on_c, 1, 62, 0
4, 232800, Note_on_c, 1, 57, 58
4, 232800, Note_on_c, 1, 64, 58
4, 233112, Note_on_c, 1, 64, 0
4, 233112, Note_on_c, 1, 57, 0
4, 239040, Note_on_c, 1, 50, 58
4, 239040, Note_on_c, 1, 62, 58
4, 240452, Note_on_c, 1, 62, 0
4, 240452, Note_on_c, 1, 50, 0
4, 246240, Note_on_c, 1, 50, 92
4, 246240, Note_on_c, 1, 62, 92
4, 247200, Note_on_c, 1, 62, 0
4, 247200, Note_on_c, 1, 50, 0
4, 247680, Note_on_c, 1, 66, 92
4, 247680, Note_on_c, 1, 54, 92
4, 249048, Note_on_c, 1, 54, 0
4, 249048, Note_on_c, 1, 66, 0
4, 250560, Note_on_c, 1, 64, 92
4, 251928, Note_on_c, 1, 64, 0
4, 252000, Note_on_c, 1, 57, 92
4, 252000, Note_on_c, 1, 64, 92
4, 253368, Note_on_c, 1, 64, 0
4, 253368, Note_on_c, 1, 57, 0
4, 253440, Note_on_c, 1, 62, 92
4, 253440, Note_on_c, 1, 66, 92
4, 254808, Note_on_c, 1, 66, 0
4, 254808, Note_on_c, 1, 62, 0
4, 254880, Note_on_c, 1, 57, 92
4, 254880, Note_on_c, 1, 64, 92
4, 256248, Note_on_c, 1, 64, 0
4, 256248, Note_on_c, 1, 57, 0
4, 256320, Note_on_c, 1, 50, 92
4, 256320, Note_on_c, 1, 62, 92
4, 257688, Note_on_c, 1, 62, 0
4, 257688, Note_on_c, 1, 50, 0
4, 257760, Note_on_c, 1, 50, 92
4, 257760, Note_on_c, 1, 62, 92
4, 259128, Note_on_c, 1, 62, 0
4, 259128, Note_on_c, 1, 50, 0
4, 275040, Note_on_c, 1, 62, 92
4, 275040, Note_on_c, 1, 66, 92
4, 275328, Note_on_c, 1, 66, 0
4, 275328, Note_on_c, 1, 62, 0
4, 275400, Note_on_c, 1, 66, 92
4, 275400, Note_on_c, 1, 62, 92
4, 275496, Note_on_c, 1, 62, 0
4, 275496, Note_on_c, 1, 66, 0
4, 275520, Note_on_c, 1, 62, 92
4, 275520, Note_on_c, 1, 66, 92
4, 275904, Note_on_c, 1, 66, 0
4, 275904, Note_on_c, 1, 62, 0
4, 276480, Note_on_c, 1, 57, 92
4, 276480, Note_on_c, 1, 64, 92
4, 276768, Note_on_c, 1, 64, 0
4, 276768, Note_on_c, 1, 57, 0
4, 276840, Note_on_c, 1, 57, 92
4, 276840, Note_on_c, 1, 64, 92
4, 276936, Note_on_c, 1, 64, 0
4, 276936, Note_on_c, 1, 57, 0
4, 276960, Note_on_c, 1, 57, 92
4, 276960, Note_on_c, 1, 64, 92
4, 277344, Note_on_c, 1, 64, 0
4, 277344, Note_on_c, 1, 57, 0
4, 277920, Note_on_c, 1, 50, 92
4, 277920, Note_on_c, 1, 62, 92
4, 278208, Note_on_c, 1, 62, 0
4, 278208, Note_on_c, 1, 50, 0
4, 278400, Note_on_c, 1, 57, 92
4, 278688, Note_on_c, 1, 57, 0
4, 278880, Note_on_c, 1, 64, 92
4, 279168, Note_on_c, 1, 64, 0
4, 279360, Note_on_c, 1, 57, 92
4, 279360, Note_on_c, 1, 64, 92
4, 279648, Note_on_c, 1, 64, 0
4, 279648, Note_on_c, 1, 57, 0
4, 279840, Note_on_c, 1, 66, 92
4, 280128, Note_on_c, 1, 66, 0
4, 280800, Note_on_c, 1, 50, 58
4, 280800, Note_on_c, 1, 62, 58
4, 282168, Note_on_c, 1, 62, 0
4, 282168, Note_on_c, 1, 50, 0
4, 282240, Note_on_c, 1, 50, 58
4, 282240, Note_on_c, 1, 62, 58
4, 283608, Note_on_c, 1, 62, 0
4, 283608, Note_on_c, 1, 50, 0
4, 283680, Note_on_c, 1, 64, 92
4, 283680, Note_on_c, 1, 67, 92
4, 283968, Note_on_c, 1, 67, 0
4, 283968, Note_on_c, 1, 64, 0
4, 284160, Note_on_c, 1, 62, 92
4, 284160, Note_on_c, 1, 66, 92
4, 284448, Note_on_c, 1, 66, 0
4, 284448, Note_on_c, 1, 62, 0
4, 284640, Note_on_c, 1, 57, 92
4, 284640, Note_on_c, 1, 64, 92
4, 284928, Note_on_c, 1, 64, 0
4, 284928, Note_on_c, 1, 57, 0
4, 285120, Note_on_c, 1, 50, 92
4, 285120, Note_on_c, 1, 62, 92
4, 285504, Note_on_c, 1, 62, 0
4, 285504, Note_on_c, 1, 50, 0
4, 295200, Note_on_c, 1, 64, 92
4, 296568, Note_on_c, 1, 64, 0
4, 296640, Note_on_c, 1, 61, 92
4, 296640, Note_on_c, 1, 64, 92
4, 299448, Note_on_c, 1, 64, 0
4, 299448, Note_on_c, 1, 61, 0
4, 299520, Note_on_c, 1, 62, 92
4, 299520, Note_on_c, 1, 66, 92
4, 302328, Note_on_c, 1, 66, 0
4, 302328, Note_on_c, 1, 62, 0
4, 302400, Note_on_c, 1, 57, 92
4, 302400, Note_on_c, 1, 64, 92
4, 305208, Note_on_c, 1, 64, 0
4, 305208, Note_on_c, 1, 57, 0
4, 305280, Note_on_c, 1, 62, 92
4, 305280, Note_on_c, 1, 50, 92
4, 305664, Note_on_c, 1, 50, 0
4, 305664, Note_on_c, 1, 62, 0
4, 312480, Note_on_c, 1, 45, 92
4, 312480, Note_on_c, 1, 57, 92
4, 315648, Note_on_c, 1, 57, 0
4, 315648, Note_on_c, 1, 45, 0
4, 316800, Note_on_c, 1, 57, 92
4, 317184, Note_on_c, 1, 57, 0
4, 317280, Note_on_c, 1, 45, 70
4, 317280, Note_on_c, 1, 57, 70
4, 317664, Note_on_c, 1, 57, 0
4, 317664, Note_on_c, 1, 45, 0
4, 357120, Note_on_c, 1, 62, 70
4, 358560, Note_on_c, 1, 62, 0
4, 360000, Note_on_c, 1, 57, 92
4, 361440, Note_on_c, 1, 57, 0
4, 362880, Note_on_c, 1, 62, 92
4, 364320, Note_on_c, 1, 62, 0
4, 365760, Note_on_c, 1, 62, 92
4, 367200, Note_on_c, 1, 62, 0
4, 368640, Note_on_c, 1, 62, 92
4, 370080, Note_on_c, 1, 62, 0
4, 371520, Note_on_c, 1, 64, 92
4, 371520, Note_on_c, 1, 67, 92
4, 372432, Note_on_c, 1, 67, 0
4, 372432, Note_on_c, 1, 64, 0
4, 372480, Note_on_c, 1, 66, 92
4, 372480, Note_on_c, 1, 62, 92
4, 373416, Note_on_c, 1, 62, 0
4, 373416, Note_on_c, 1, 66, 0
4, 373440, Note_on_c, 1, 62, 92
4, 373440, Note_on_c, 1, 64, 92
4, 373728, Note_on_c, 1, 62, 0
4, 373920, Note_on_c, 1, 57, 92
4, 374208, Note_on_c, 1, 57, 0
4, 374208, Note_on_c, 1, 64, 0
4, 374400, Note_on_c, 1, 50, 80
4, 374400, Note_on_c, 1, 62, 80
4, 374784, Note_on_c, 1, 62, 0
4, 374784, Note_on_c, 1, 50, 0
4, 377280, Note_on_c, 1, 50, 58
4, 377280, Note_on_c, 1, 62, 58
4, 383012, Note_on_c, 1, 62, 0
4, 383012, Note_on_c, 1, 50, 0
4, 385920, Note_on_c, 1, 50, 92
4, 387288, Note_on_c, 1, 50, 0
4, 387360, Note_on_c, 1, 62, 92
4, 388728, Note_on_c, 1, 62, 0
4, 388800, Note_on_c, 1, 62, 92
4, 388800, Note_on_c, 1, 66, 92
4, 390168, Note_on_c, 1, 66, 0
4, 390168, Note_on_c, 1, 62, 0
4, 390240, Note_on_c, 1, 57, 92
4, 390240, Note_on_c, 1, 64, 92
4, 391608, Note_on_c, 1, 64, 0
4, 391608, Note_on_c, 1, 57, 0
4, 391680, Note_on_c, 1, 62, 92
4, 391680, Note_on_c, 1, 54, 92
4, 391992, Note_on_c, 1, 54, 0
4, 391992, Note_on_c, 1, 62, 0
4, 392400, Note_on_c, 1, 50, 92
4, 392556, Note_on_c, 1, 50, 0
4, 392640, Note_on_c, 1, 50, 92
4, 392796, Note_on_c, 1, 50, 0
4, 392880, Note_on_c, 1, 50, 92
4, 393036, Note_on_c, 1, 50, 0
4, 393120, Note_on_c, 1, 50, 92
4, 393432, Note_on_c, 1, 50, 0
4, 393840, Note_on_c, 1, 50, 92
4, 393996, Note_on_c, 1, 50, 0
4, 394080, Note_on_c, 1, 50, 92
4, 394236, Note_on_c, 1, 50, 0
4, 394320, Note_on_c, 1, 50, 92
4, 394476, Note_on_c, 1, 50, 0
4, 394560, Note_on_c, 1, 50, 92
4, 394872, Note_on_c, 1, 50, 0
4, 395280, Note_on_c, 1, 50, 92
4, 395436, Note_on_c, 1, 50, 0
4, 395520, Note_on_c, 1, 50, 92
4, 395676, Note_on_c, 1, 50, 0
4, 395760, Note_on_c, 1, 50, 92
4, 395916, Note_on_c, 1, 50, 0
4, 396000, Note_on_c, 1, 50, 92
4, 396288, Note_on_c, 1, 50, 0
4, 396480, Note_on_c, 1, 62, 92
4, 396480, Note_on_c, 1, 54, 92
4, 396768, Note_on_c, 1, 54, 0
4, 396768, Note_on_c, 1, 62, 0
4, 401760, Note_on_c, 1, 66, 58
4, 401760, Note_on_c, 1, 69, 58
4, 402072, Note_on_c, 1, 69, 0
4, 402072, Note_on_c, 1, 66, 0
4, 402240, Note_on_c, 1, 64, 58
4, 402240, Note_on_c, 1, 67, 58
4, 402552, Note_on_c, 1, 67, 0
4, 402552, Note_on_c, 1, 64, 0
4, 402720, Note_on_c, 1, 66, 58
4, 402720, Note_on_c, 1, 62, 58
4, 403032, Note_on_c, 1, 62, 0
4, 403032, Note_on_c, 1, 66, 0
4, 404640, Note_on_c, 1, 66, 58
4, 404640, Note_on_c, 1, 69, 58
4, 404952, Note_on_c, 1, 69, 0
4, 404952, Note_on_c, 1, 66, 0
4, 405120, Note_on_c, 1, 64, 58
4, 405120, Note_on_c, 1, 67, 58
4, 405432, Note_on_c, 1, 67, 0
4, 405432, Note_on_c, 1, 64, 0
4, 405600, Note_on_c, 1, 66, 58
4, 405600, Note_on_c, 1, 62, 58
4, 405912, Note_on_c, 1, 62, 0
4, 405912, Note_on_c, 1, 66, 0
4, 406080, Note_on_c, 1, 67, 58
4, 406464, Note_on_c, 1, 67, 0
4, 406560, Note_on_c, 1, 64, 92
4, 406944, Note_on_c, 1, 64, 0
4, 407040, Note_on_c, 1, 69, 92
4, 407424, Note_on_c, 1, 69, 0
4, 407520, Note_on_c, 1, 62, 92
4, 407520, Note_on_c, 1, 50, 92
4, 408888, Note_on_c, 1, 50, 0
4, 408888, Note_on_c, 1, 62, 0
4, 408960, Note_on_c, 1, 67, 92
4, 409344, Note_on_c, 1, 67, 0
4, 409440, Note_on_c, 1, 64, 92
4, 409824, Note_on_c, 1, 64, 0
4, 409920, Note_on_c, 1, 69, 92
4, 409920, Note_on_c, 1, 57, 92
4, 410304, Note_on_c, 1, 57, 0
4, 410304, Note_on_c, 1, 69, 0
4, 410400, Note_on_c, 1, 50, 92
4, 410400, Note_on_c, 1, 62, 92
4, 411168, Note_on_c, 1, 62, 0
4, 411168, Note_on_c, 1, 50, 0
4, 411168, End_track
5, 0, Start_track
5, 0, Sequencer_specific, 04, 43, 00, 01, 00
5, 0, Program_c, 2, 56
5, 0, Control_c, 2, 7, 117
5, 0, Control_c, 2, 91, 100
5, 0, Control_c, 2, 10, 92
5, 1440, Note_on_c, 2, 62, 92
5, 1440, Note_on_c, 2, 74, 92
5, 1728, Note_on_c, 2, 74, 0
5, 1728, Note_on_c, 2, 62, 0
5, 1800, Note_on_c, 2, 74, 92
5, 1800, Note_on_c, 2, 62, 92
5, 1896, Note_on_c, 2, 62, 0
5, 1896, Note_on_c, 2, 74, 0
5, 1920, Note_on_c, 2, 74, 92
5, 1920, Note_on_c, 2, 62, 92
5, 2304, Note_on_c, 2, 62, 0
5, 2304, Note_on_c, 2, 74, 0
5, 2880, Note_on_c, 2, 69, 92
5, 3168, Note_on_c, 2, 69, 0
5, 3240, Note_on_c, 2, 69, 92
5, 3336, Note_on_c, 2, 69, 0
5, 3360, Note_on_c, 2, 69, 92
5, 3744, Note_on_c, 2, 69, 0
5, 5760, Note_on_c, 2, 69, 92
5, 6048, Note_on_c, 2, 69, 0
5, 6240, Note_on_c, 2, 62, 92
5, 6528, Note_on_c, 2, 62, 0
5, 7200, Note_on_c, 2, 62, 58
5, 7200, Note_on_c, 2, 74, 58
5, 8568, Note_on_c, 2, 74, 0
5, 8568, Note_on_c, 2, 62, 0
5, 8640, Note_on_c, 2, 62, 58
5, 8640, Note_on_c, 2, 74, 58
5, 10008, Note_on_c, 2, 74, 0
5, 10008, Note_on_c, 2, 62, 0
5, 10560, Note_on_c, 2, 74, 92
5, 10560, Note_on_c, 2, 78, 92
5, 10848, Note_on_c, 2, 78, 0
5, 10848, Note_on_c, 2, 74, 0
5, 11040, Note_on_c, 2, 69, 92
5, 11040, Note_on_c, 2, 76, 92
5, 11328, Note_on_c, 2, 76, 0
5, 11328, Note_on_c, 2, 69, 0
5, 11520, Note_on_c, 2, 62, 92
5, 11520, Note_on_c, 2, 74, 92
5, 11904, Note_on_c, 2, 74, 0
5, 11904, Note_on_c, 2, 62, 0
5, 12960, Note_on_c, 2, 62, 58
5, 12960, Note_on_c, 2, 74, 58
5, 14328, Note_on_c, 2, 74, 0
5, 14328, Note_on_c, 2, 62, 0
5, 14400, Note_on_c, 2, 62, 58
5, 14400, Note_on_c, 2, 74, 58
5, 15768, Note_on_c, 2, 74, 0
5, 15768, Note_on_c, 2, 62, 0
5, 16320, Note_on_c, 2, 69, 92
5, 16704, Note_on_c, 2, 69, 0
5, 16800, Note_on_c, 2, 69, 92
5, 17184, Note_on_c, 2, 69, 0
5, 17280, Note_on_c, 2, 66, 92
5, 17280, Note_on_c, 2, 74, 92
5, 17664, Note_on_c, 2, 74, 0
5, 17664, Note_on_c, 2, 66, 0
5, 18720, Note_on_c, 2, 66, 92
5, 18720, Note_on_c, 2, 74, 92
5, 19104, Note_on_c, 2, 74, 0
5, 19104, Note_on_c, 2, 66, 0
5, 20160, Note_on_c, 2, 69, 92
5, 20160, Note_on_c, 2, 76, 92
5, 20544, Note_on_c, 2, 76, 0
5, 20544, Note_on_c, 2, 69, 0
5, 21600, Note_on_c, 2, 69, 92
5, 21600, Note_on_c, 2, 76, 92
5, 21984, Note_on_c, 2, 76, 0
5, 21984, Note_on_c, 2, 69, 0
5, 23040, Note_on_c, 2, 76, 92
5, 23424, Note_on_c, 2, 76, 0
5, 24480, Note_on_c, 2, 76, 92
5, 24864, Note_on_c, 2, 76, 0
5, 25920, Note_on_c, 2, 69, 92
5, 26304, Note_on_c, 2, 69, 0
5, 33120, Note_on_c, 2, 76, 92
5, 36288, Note_on_c, 2, 76, 0
5, 37440, Note_on_c, 2, 76, 92
5, 37728, Note_on_c, 2, 76, 0
5, 37920, Note_on_c, 2, 76, 70
5, 38208, Note_on_c, 2, 76, 0
5, 74880, Note_on_c, 2, 69, 92
5, 76320, Note_on_c, 2, 69, 0
5, 77760, Note_on_c, 2, 76, 92
5, 79200, Note_on_c, 2, 76, 0
5, 80640, Note_on_c, 2, 69, 92
5, 82080, Note_on_c, 2, 69, 0
5, 83520, Note_on_c, 2, 69, 92
5, 84960, Note_on_c, 2, 69, 0
5, 86400, Note_on_c, 2, 69, 92
5, 87168, Note_on_c, 2, 69, 0
5, 90240, Note_on_c, 2, 76, 92
5, 90624, Note_on_c, 2, 76, 0
5, 90720, Note_on_c, 2, 69, 70
5, 90720, Note_on_c, 2, 76, 70
5, 91104, Note_on_c, 2, 76, 0
5, 91104, Note_on_c, 2, 69, 0
5, 102240, Note_on_c, 2, 69, 70
5, 103608, Note_on_c, 2, 69, 0
5, 103680, Note_on_c, 2, 81, 92
5, 105048, Note_on_c, 2, 81, 0
5, 105120, Note_on_c, 2, 76, 92
5, 107928, Note_on_c, 2, 76, 0
5, 108000, Note_on_c, 2, 69, 92
5, 108000, Note_on_c, 2, 76, 92
5, 108384, Note_on_c, 2, 76, 0
5, 108384, Note_on_c, 2, 69, 0
5, 109440, Note_on_c, 2, 69, 92
5, 109824, Note_on_c, 2, 69, 0
5, 110880, Note_on_c, 2, 69, 92
5, 111264, Note_on_c, 2, 69, 0
5, 112320, Note_on_c, 2, 69, 92
5, 112608, Note_on_c, 2, 69, 0
5, 112800, Note_on_c, 2, 69, 92
5, 112800, Note_on_c, 2, 57, 92
5, 113088, Note_on_c, 2, 57, 0
5, 113088, Note_on_c, 2, 69, 0
5, 113760, Note_on_c, 2, 62, 92
5, 113760, Note_on_c, 2, 74, 92
5, 114048, Note_on_c, 2, 74, 0
5, 114048, Note_on_c, 2, 62, 0
5, 114120, Note_on_c, 2, 74, 92
5, 114120, Note_on_c, 2, 62, 92
5, 114216, Note_on_c, 2, 62, 0
5, 114216, Note_on_c, 2, 74, 0
5, 114240, Note_on_c, 2, 74, 92
5, 114240, Note_on_c, 2, 62, 92
5, 114624, Note_on_c, 2, 62, 0
5, 114624, Note_on_c, 2, 74, 0
5, 115200, Note_on_c, 2, 69, 92
5, 115488, Note_on_c, 2, 69, 0
5, 115560, Note_on_c, 2, 69, 92
5, 115656, Note_on_c, 2, 69, 0
5, 115680, Note_on_c, 2, 69, 92
5, 116064, Note_on_c, 2, 69, 0
5, 118080, Note_on_c, 2, 69, 92
5, 118368, Note_on_c, 2, 69, 0
5, 118560, Note_on_c, 2, 62, 92
5, 118848, Note_on_c, 2, 62, 0
5, 119520, Note_on_c, 2, 62, 58
5, 119520, Note_on_c, 2, 74, 58
5, 120888, Note_on_c, 2, 74, 0
5, 120888, Note_on_c, 2, 62, 0
5, 120960, Note_on_c, 2, 62, 58
5, 120960, Note_on_c, 2, 74, 58
5, 122328, Note_on_c, 2, 74, 0
5, 122328, Note_on_c, 2, 62, 0
5, 122880, Note_on_c, 2, 74, 92
5, 122880, Note_on_c, 2, 78, 92
5, 123168, Note_on_c, 2, 78, 0
5, 123168, Note_on_c, 2, 74, 0
5, 123360, Note_on_c, 2, 69, 92
5, 123360, Note_on_c, 2, 76, 92
5, 123648, Note_on_c, 2, 76, 0
5, 123648, Note_on_c, 2, 69, 0
5, 123840, Note_on_c, 2, 62, 92
5, 123840, Note_on_c, 2, 74, 92
5, 124224, Note_on_c, 2, 74, 0
5, 124224, Note_on_c, 2, 62, 0
5, 125280, Note_on_c, 2, 62, 58
5, 125280, Note_on_c, 2, 74, 58
5, 126648, Note_on_c, 2, 74, 0
5, 126648, Note_on_c, 2, 62, 0
5, 126720, Note_on_c, 2, 62, 58
5, 126720, Note_on_c, 2, 74, 58
5, 128088, Note_on_c, 2, 74, 0
5, 128088, Note_on_c, 2, 62, 0
5, 128640, Note_on_c, 2, 69, 92
5, 129024, Note_on_c, 2, 69, 0
5, 129120, Note_on_c, 2, 69, 92
5, 129504, Note_on_c, 2, 69, 0
5, 129600, Note_on_c, 2, 66, 92
5, 129600, Note_on_c, 2, 74, 92
5, 129984, Note_on_c, 2, 74, 0
5, 129984, Note_on_c, 2, 66, 0
5, 131040, Note_on_c, 2, 66, 92
5, 131040, Note_on_c, 2, 74, 92
5, 131424, Note_on_c, 2, 74, 0
5, 131424, Note_on_c, 2, 66, 0
5, 132480, Note_on_c, 2, 69, 92
5, 132480, Note_on_c, 2, 76, 92
5, 132864, Note_on_c, 2, 76, 0
5, 132864, Note_on_c, 2, 69, 0
5, 133920, Note_on_c, 2, 69, 92
5, 133920, Note_on_c, 2, 76, 92
5, 134304, Note_on_c, 2, 76, 0
5, 134304, Note_on_c, 2, 69, 0
5, 135360, Note_on_c, 2, 76, 92
5, 135744, Note_on_c, 2, 76, 0
5, 136800, Note_on_c, 2, 76, 92
5, 137184, Note_on_c, 2, 76, 0
5, 138240, Note_on_c, 2, 69, 92
5, 138624, Note_on_c, 2, 69, 0
5, 145440, Note_on_c, 2, 76, 92
5, 148608, Note_on_c, 2, 76, 0
5, 149760, Note_on_c, 2, 76, 92
5, 150048, Note_on_c, 2, 76, 0
5, 150240, Note_on_c, 2, 76, 70
5, 150528, Note_on_c, 2, 76, 0
5, 187200, Note_on_c, 2, 69, 92
5, 188640, Note_on_c, 2, 69, 0
5, 190080, Note_on_c, 2, 76, 92
5, 191520, Note_on_c, 2, 76, 0
5, 192960, Note_on_c, 2, 69, 92
5, 194400, Note_on_c, 2, 69, 0
5, 195840, Note_on_c, 2, 69, 92
5, 197280, Note_on_c, 2, 69, 0
5, 198720, Note_on_c, 2, 69, 92
5, 199488, Note_on_c, 2, 69, 0
5, 202560, Note_on_c, 2, 76, 92
5, 202944, Note_on_c, 2, 76, 0
5, 203040, Note_on_c, 2, 69, 70
5, 203040, Note_on_c, 2, 76, 70
5, 203424, Note_on_c, 2, 76, 0
5, 203424, Note_on_c, 2, 69, 0
5, 214560, Note_on_c, 2, 69, 70
5, 215928, Note_on_c, 2, 69, 0
5, 216000, Note_on_c, 2, 81, 92
5, 217368, Note_on_c, 2, 81, 0
5, 217440, Note_on_c, 2, 76, 92
5, 220248, Note_on_c, 2, 76, 0
5, 220320, Note_on_c, 2, 69, 92
5, 220320, Note_on_c, 2, 76, 92
5, 220704, Note_on_c, 2, 76, 0
5, 220704, Note_on_c, 2, 69, 0
5, 221760, Note_on_c, 2, 69, 92
5, 222144, Note_on_c, 2, 69, 0
5, 223200, Note_on_c, 2, 69, 92
5, 223584, Note_on_c, 2, 69, 0
5, 224640, Note_on_c, 2, 69, 92
5, 224928, Note_on_c, 2, 69, 0
5, 225120, Note_on_c, 2, 69, 92
5, 225120, Note_on_c, 2, 57, 92
5, 225408, Note_on_c, 2, 57, 0
5, 225408, Note_on_c, 2, 69, 0
5, 275040, Note_on_c, 2, 62, 92
5, 275040, Note_on_c, 2, 74, 92
5, 275328, Note_on_c, 2, 74, 0
5, 275328, Note_on_c, 2, 62, 0
5, 275400, Note_on_c, 2, 74, 92
5, 275400, Note_on_c, 2, 62, 92
5, 275496, Note_on_c, 2, 62, 0
5, 275496, Note_on_c, 2, 74, 0
5, 275520, Note_on_c, 2, 62, 92
5, 275520, Note_on_c, 2, 74, 92
5, 275904, Note_on_c, 2, 74, 0
5, 275904, Note_on_c, 2, 62, 0
5, 276480, Note_on_c, 2, 69, 92
5, 276768, Note_on_c, 2, 69, 0
5, 276840, Note_on_c, 2, 69, 92
5, 276936, Note_on_c, 2, 69, 0
5, 276960, Note_on_c, 2, 69, 92
5, 277344, Note_on_c, 2, 69, 0
5, 279360, Note_on_c, 2, 69, 92
5, 279648, Note_on_c, 2, 69, 0
5, 279840, Note_on_c, 2, 62, 92
5, 280128, Note_on_c, 2, 62, 0
5, 280800, Note_on_c, 2, 62, 58
5, 280800, Note_on_c, 2, 74, 58
5, 282168, Note_on_c, 2, 74, 0
5, 282168, Note_on_c, 2, 62, 0
5, 282240, Note_on_c, 2, 62, 58
5, 282240, Note_on_c, 2, 74, 58
5, 283608, Note_on_c, 2, 74, 0
5, 283608, Note_on_c, 2, 62, 0
5, 284160, Note_on_c, 2, 78, 92
5, 284160, Note_on_c, 2, 74, 92
5, 284448, Note_on_c, 2, 74, 0
5, 284448, Note_on_c, 2, 78, 0
5, 284640, Note_on_c, 2, 69, 92
5, 284640, Note_on_c, 2, 76, 92
5, 284928, Note_on_c, 2, 76, 0
5, 284928, Note_on_c, 2, 69, 0
5, 285120, Note_on_c, 2, 74, 92
5, 285120, Note_on_c, 2, 62, 92
5, 285504, Note_on_c, 2, 62, 0
5, 285504, Note_on_c, 2, 74, 0
5, 293280, Note_on_c, 2, 69, 92
5, 293280, Note_on_c, 2, 81, 92
5, 294072, Note_on_c, 2, 81, 0
5, 294072, Note_on_c, 2, 69, 0
5, 294240, Note_on_c, 2, 57, 92
5, 294240, Note_on_c, 2, 69, 92
5, 294552, Note_on_c, 2, 69, 0
5, 294552, Note_on_c, 2, 57, 0
5, 294720, Note_on_c, 2, 74, 92
5, 294720, Note_on_c, 2, 62, 92
5, 295032, Note_on_c, 2, 62, 0
5, 295032, Note_on_c, 2, 74, 0
5, 295200, Note_on_c, 2, 76, 92
5, 296568, Note_on_c, 2, 76, 0
5, 296640, Note_on_c, 2, 69, 92
5, 296640, Note_on_c, 2, 76, 92
5, 297024, Note_on_c, 2, 76, 0
5, 297024, Note_on_c, 2, 69, 0
5, 298080, Note_on_c, 2, 69, 92
5, 298464, Note_on_c, 2, 69, 0
5, 299520, Note_on_c, 2, 62, 92
5, 299520, Note_on_c, 2, 74, 92
5, 299904, Note_on_c, 2, 74, 0
5, 299904, Note_on_c, 2, 62, 0
5, 300960, Note_on_c, 2, 74, 92
5, 300960, Note_on_c, 2, 62, 92
5, 301344, Note_on_c, 2, 62, 0
5, 301344, Note_on_c, 2, 74, 0
5, 302400, Note_on_c, 2, 69, 92
5, 302400, Note_on_c, 2, 76, 92
5, 302784, Note_on_c, 2, 76, 0
5, 302784, Note_on_c, 2, 69, 0
5, 303840, Note_on_c, 2, 76, 92
5, 303840, Note_on_c, 2, 69, 92
5, 304224, Note_on_c, 2, 69, 0
5, 304224, Note_on_c, 2, 76, 0
5, 305280, Note_on_c, 2, 74, 92
5, 305280, Note_on_c, 2, 62, 92
5, 305664, Note_on_c, 2, 62, 0
5, 305664, Note_on_c, 2, 74, 0
5, 312480, Note_on_c, 2, 57, 92
5, 312480, Note_on_c, 2, 69, 92
5, 315648, Note_on_c, 2, 69, 0
5, 315648, Note_on_c, 2, 57, 0
5, 316800, Note_on_c, 2, 69, 92
5, 317184, Note_on_c, 2, 69, 0
5, 317280, Note_on_c, 2, 57, 70
5, 317280, Note_on_c, 2, 69, 70
5, 317664, Note_on_c, 2, 69, 0
5, 317664, Note_on_c, 2, 57, 0
5, 358560, Note_on_c, 2, 74, 92
5, 360000, Note_on_c, 2, 74, 0
5, 361440, Note_on_c, 2, 69, 92
5, 362880, Note_on_c, 2, 69, 0
5, 364320, Note_on_c, 2, 74, 92
5, 365760, Note_on_c, 2, 74, 0
5, 367200, Note_on_c, 2, 74, 92
5, 368640, Note_on_c, 2, 74, 0
5, 370080, Note_on_c, 2, 74, 92
5, 371040, Note_on_c, 2, 74, 0
5, 372000, Note_on_c, 2, 69, 92
5, 372000, Note_on_c, 2, 76, 92
5, 372288, Note_on_c, 2, 76, 0
5, 372288, Note_on_c, 2, 69, 0
5, 372480, Note_on_c, 2, 74, 92
5, 372480, Note_on_c, 2, 78, 92
5, 372768, Note_on_c, 2, 78, 0
5, 372768, Note_on_c, 2, 74, 0
5, 372960, Note_on_c, 2, 62, 92
5, 372960, Note_on_c, 2, 74, 92
5, 373728, Note_on_c, 2, 74, 0
5, 373728, Note_on_c, 2, 62, 0
5, 373920, Note_on_c, 2, 76, 92
5, 373920, Note_on_c, 2, 69, 92
5, 374208, Note_on_c, 2, 69, 0
5, 374208, Note_on_c, 2, 76, 0
5, 374400, Note_on_c, 2, 74, 80
5, 374400, Note_on_c, 2, 66, 80
5, 374784, Note_on_c, 2, 66, 0
5, 374784, Note_on_c, 2, 74, 0
5, 385920, Note_on_c, 2, 62, 92
5, 387288, Note_on_c, 2, 62, 0
5, 387360, Note_on_c, 2, 74, 92
5, 388728, Note_on_c, 2, 74, 0
5, 388800, Note_on_c, 2, 69, 92
5, 390168, Note_on_c, 2, 69, 0
5, 390240, Note_on_c, 2, 57, 92
5, 390240, Note_on_c, 2, 69, 92
5, 391608, Note_on_c, 2, 69, 0
5, 391608, Note_on_c, 2, 57, 0
5, 391680, Note_on_c, 2, 74, 92
5, 391680, Note_on_c, 2, 62, 92
5, 392064, Note_on_c, 2, 62, 0
5, 392064, Note_on_c, 2, 74, 0
5, 393120, Note_on_c, 2, 62, 92
5, 393120, Note_on_c, 2, 74, 92
5, 393504, Note_on_c, 2, 74, 0
5, 393504, Note_on_c, 2, 62, 0
5, 394560, Note_on_c, 2, 62, 92
5, 394560, Note_on_c, 2, 74, 92
5, 394944, Note_on_c, 2, 74, 0
5, 394944, Note_on_c, 2, 62, 0
5, 396000, Note_on_c, 2, 62, 92
5, 396000, Note_on_c, 2, 74, 92
5, 396288, Note_on_c, 2, 74, 0
5, 396288, Note_on_c, 2, 62, 0
5, 396480, Note_on_c, 2, 74, 92
5, 396480, Note_on_c, 2, 62, 92
5, 396768, Note_on_c, 2, 62, 0
5, 396768, Note_on_c, 2, 74, 0
5, 406080, Note_on_c, 2, 79, 92
5, 406464, Note_on_c, 2, 79, 0
5, 406560, Note_on_c, 2, 76, 92
5, 406944, Note_on_c, 2, 76, 0
5, 407040, Note_on_c, 2, 81, 92
5, 407424, Note_on_c, 2, 81, 0
5, 407520, Note_on_c, 2, 74, 92
5, 407520, Note_on_c, 2, 62, 92
5, 408888, Note_on_c, 2, 62, 0
5, 408888, Note_on_c, 2, 74, 0
5, 408960, Note_on_c, 2, 79, 92
5, 409344, Note_on_c, 2, 79, 0
5, 409440, Note_on_c, 2, 76, 92
5, 409824, Note_on_c, 2, 76, 0
5, 409920, Note_on_c, 2, 69, 92
5, 409920, Note_on_c, 2, 81, 92
5, 410304, Note_on_c, 2, 81, 0
5, 410304, Note_on_c, 2, 69, 0
5, 410400, Note_on_c, 2, 62, 92
5, 410400, Note_on_c, 2, 74, 92
5, 411168, Note_on_c, 2, 74, 0
5, 411168, Note_on_c, 2, 62, 0
5, 411168, End_track
6, 0, Start_track
6, 0, Sequencer_specific, 04, 43, 00, 01, 00
6, 0, Program_c, 10, 48
6, 0, Control_c, 10, 7, 127
6, 0, Control_c, 10, 10, 28
6, 0, Control_c, 10, 91, 86
6, 1440, Note_on_c, 10, 62, 105
6, 1440, Note_on_c, 10, 74, 105
6, 1440, Note_on_c, 10, 86, 105
6, 1728, Note_on_c, 10, 86, 0
6, 1728, Note_on_c, 10, 74, 0
6, 1728, Note_on_c, 10, 62, 0
6, 1800, Note_on_c, 10, 86, 105
6, 1800, Note_on_c, 10, 74, 105
6, 1896, Note_on_c, 10, 74, 0
6, 1896, Note_on_c, 10, 86, 0
6, 1920, Note_on_c, 10, 74, 105
6, 1920, Note_on_c, 10, 86, 105
6, 2304, Note_on_c, 10, 86, 0
6, 2304, Note_on_c, 10, 74, 0
6, 2880, Note_on_c, 10, 69, 105
6, 2880, Note_on_c, 10, 81, 105
6, 3168, Note_on_c, 10, 81, 0
6, 3168, Note_on_c, 10, 69, 0
6, 3240, Note_on_c, 10, 81, 105
6, 3240, Note_on_c, 10, 69, 105
6, 3336, Note_on_c, 10, 69, 0
6, 3336, Note_on_c, 10, 81, 0
6, 3360, Note_on_c, 10, 81, 105
6, 3360, Note_on_c, 10, 69, 105
6, 3744, Note_on_c, 10, 69, 0
6, 3744, Note_on_c, 10, 81, 0
6, 4320, Note_on_c, 10, 79, 105
6, 4704, Note_on_c, 10, 79, 0
6, 4800, Note_on_c, 10, 78, 105
6, 5184, Note_on_c, 10, 78, 0
6, 5280, Note_on_c, 10, 76, 105
6, 5664, Note_on_c, 10, 76, 0
6, 5760, Note_on_c, 10, 74, 105
6, 5820, Note_on_c, 10, 74, 0
6, 5820, Note_on_c, 10, 73, 105
6, 5880, Note_on_c, 10, 73, 0
6, 5880, Note_on_c, 10, 74, 105
6, 5940, Note_on_c, 10, 74, 0
6, 5940, Note_on_c, 10, 73, 105
6, 6000, Note_on_c, 10, 73, 0
6, 6000, Note_on_c, 10, 74, 105
6, 6060, Note_on_c, 10, 74, 0
6, 6060, Note_on_c, 10, 73, 105
6, 6120, Note_on_c, 10, 73, 0
6, 6120, Note_on_c, 10, 71, 105
6, 6180, Note_on_c, 10, 71, 0
6, 6180, Note_on_c, 10, 73, 105
6, 6240, Note_on_c, 10, 73, 0
6, 6240, Note_on_c, 10, 74, 105
6, 6528, Note_on_c, 10, 74, 0
6, 7200, Note_on_c, 10, 86, 127
6, 7440, Note_on_c, 10, 86, 0
6, 7440, Note_on_c, 10, 85, 80
6, 7680, Note_on_c, 10, 85, 0
6, 7680, Note_on_c, 10, 83, 80
6, 7920, Note_on_c, 10, 83, 0
6, 7920, Note_on_c, 10, 81, 80
6, 8112, Note_on_c, 10, 81, 0
6, 8160, Note_on_c, 10, 81, 80
6, 8304, Note_on_c, 10, 81, 0
6, 8400, Note_on_c, 10, 81, 80
6, 8544, Note_on_c, 10, 81, 0
6, 8640, Note_on_c, 10, 83, 120
6, 8880, Note_on_c, 10, 83, 0
6, 8880, Note_on_c, 10, 81, 80
6, 9120, Note_on_c, 10, 81, 0
6, 9120, Note_on_c, 10, 79, 80
6, 9360, Note_on_c, 10, 79, 0
6, 9360, Note_on_c, 10, 78, 80
6, 9552, Note_on_c, 10, 78, 0
6, 9600, Note_on_c, 10, 78, 80
6, 9744, Note_on_c, 10, 78, 0
6, 9840, Note_on_c, 10, 78, 80
6, 9984, Note_on_c, 10, 78, 0
6, 10080, Note_on_c, 10, 81, 105
6, 10200, Note_on_c, 10, 81, 0
6, 10200, Note_on_c, 10, 79, 105
6, 10416, Note_on_c, 10, 79, 0
6, 10560, Note_on_c, 10, 78, 105
6, 10848, Note_on_c, 10, 78, 0
6, 11040, Note_on_c, 10, 76, 105
6, 11328, Note_on_c, 10, 76, 0
6, 11520, Note_on_c, 10, 74, 105
6, 11640, Note_on_c, 10, 74, 0
6, 11640, Note_on_c, 10, 73, 105
6, 11760, Note_on_c, 10, 73, 0
6, 11760, Note_on_c, 10, 71, 105
6, 11880, Note_on_c, 10, 71, 0
6, 11880, Note_on_c, 10, 69, 105
6, 11976, Note_on_c, 10, 69, 0
6, 12000, Note_on_c, 10, 74, 105
6, 12120, Note_on_c, 10, 74, 0
6, 12120, Note_on_c, 10, 73, 105
6, 12240, Note_on_c, 10, 73, 0
6, 12240, Note_on_c, 10, 71, 105
6, 12360, Note_on_c, 10, 71, 0
6, 12360, Note_on_c, 10, 69, 105
6, 12456, Note_on_c, 10, 69, 0
6, 12480, Note_on_c, 10, 74, 105
6, 12864, Note_on_c, 10, 74, 0
6, 12960, Note_on_c, 10, 74, 120
6, 13200, Note_on_c, 10, 74, 0
6, 13200, Note_on_c, 10, 73, 80
6, 13440, Note_on_c, 10, 73, 0
6, 13440, Note_on_c, 10, 71, 80
6, 13680, Note_on_c, 10, 71, 0
6, 13680, Note_on_c, 10, 69, 80
6, 13872, Note_on_c, 10, 69, 0
6, 13920, Note_on_c, 10, 69, 80
6, 14064, Note_on_c, 10, 69, 0
6, 14160, Note_on_c, 10, 69, 80
6, 14304, Note_on_c, 10, 69, 0
6, 14400, Note_on_c, 10, 71, 120
6, 14640, Note_on_c, 10, 71, 0
6, 14640, Note_on_c, 10, 69, 80
6, 14880, Note_on_c, 10, 69, 0
6, 14880, Note_on_c, 10, 67, 80
6, 15120, Note_on_c, 10, 67, 0
6, 15120, Note_on_c, 10, 66, 80
6, 15312, Note_on_c, 10, 66, 0
6, 15360, Note_on_c, 10, 66, 80
6, 15504, Note_on_c, 10, 66, 0
6, 15600, Note_on_c, 10, 66, 80
6, 15744, Note_on_c, 10, 66, 0
6, 15840, Note_on_c, 10, 69, 80
6, 15960, Note_on_c, 10, 69, 0
6, 15960, Note_on_c, 10, 67, 105
6, 16176, Note_on_c, 10, 67, 0
6, 16320, Note_on_c, 10, 66, 105
6, 16608, Note_on_c, 10, 66, 0
6, 16800, Note_on_c, 10, 64, 105
6, 17088, Note_on_c, 10, 64, 0
6, 17280, Note_on_c, 10, 62, 105
6, 17664, Note_on_c, 10, 62, 0
6, 18000, Note_on_c, 10, 69, 116
6, 18192, Note_on_c, 10, 69, 0
6, 18240, Note_on_c, 10, 74, 116
6, 18432, Note_on_c, 10, 74, 0
6, 18480, Note_on_c, 10, 78, 116
6, 18672, Note_on_c, 10, 78, 0
6, 18720, Note_on_c, 10, 81, 116
6, 19104, Note_on_c, 10, 81, 0
6, 19440, Note_on_c, 10, 81, 116
6, 19632, Note_on_c, 10, 81, 0
6, 19680, Note_on_c, 10, 86, 116
6, 19872, Note_on_c, 10, 86, 0
6, 19920, Note_on_c, 10, 78, 116
6, 20112, Note_on_c, 10, 78, 0
6, 20160, Note_on_c, 10, 81, 116
6, 20544, Note_on_c, 10, 81, 0
6, 20880, Note_on_c, 10, 69, 116
6, 21072, Note_on_c, 10, 69, 0
6, 21120, Note_on_c, 10, 73, 116
6, 21312, Note_on_c, 10, 73, 0
6, 21360, Note_on_c, 10, 76, 116
6, 21552, Note_on_c, 10, 76, 0
6, 21600, Note_on_c, 10, 81, 116
6, 21984, Note_on_c, 10, 81, 0
6, 22320, Note_on_c, 10, 81, 116
6, 22512, Note_on_c, 10, 81, 0
6, 22560, Note_on_c, 10, 85, 116
6, 22752, Note_on_c, 10, 85, 0
6, 22800, Note_on_c, 10, 76, 116
6, 22992, Note_on_c, 10, 76, 0
6, 23040, Note_on_c, 10, 80, 116
6, 23424, Note_on_c, 10, 80, 0
6, 23760, Note_on_c, 10, 64, 116
6, 23952, Note_on_c, 10, 64, 0
6, 24000, Note_on_c, 10, 68, 116
6, 24192, Note_on_c, 10, 68, 0
6, 24240, Note_on_c, 10, 71, 116
6, 24432, Note_on_c, 10, 71, 0
6, 24480, Note_on_c, 10, 74, 116
6, 24864, Note_on_c, 10, 74, 0
6, 25200, Note_on_c, 10, 80, 116
6, 25392, Note_on_c, 10, 80, 0
6, 25440, Note_on_c, 10, 83, 116
6, 25632, Note_on_c, 10, 83, 0
6, 25680, Note_on_c, 10, 76, 116
6, 25872, Note_on_c, 10, 76, 0
6, 25920, Note_on_c, 10, 81, 116
6, 26304, Note_on_c, 10, 81, 0
6, 26640, Note_on_c, 10, 61, 116
6, 26832, Note_on_c, 10, 61, 0
6, 26880, Note_on_c, 10, 66, 116
6, 27072, Note_on_c, 10, 66, 0
6, 27120, Note_on_c, 10, 57, 116
6, 27312, Note_on_c, 10, 57, 0
6, 27360, Note_on_c, 10, 56, 116
6, 27744, Note_on_c, 10, 56, 0
6, 28080, Note_on_c, 10, 66, 70
6, 28272, Note_on_c, 10, 66, 0
6, 28320, Note_on_c, 10, 71, 70
6, 28512, Note_on_c, 10, 71, 0
6, 28560, Note_on_c, 10, 62, 70
6, 28752, Note_on_c, 10, 62, 0
6, 28800, Note_on_c, 10, 61, 70
6, 29184, Note_on_c, 10, 61, 0
6, 29520, Note_on_c, 10, 61, 116
6, 29712, Note_on_c, 10, 61, 0
6, 29760, Note_on_c, 10, 66, 116
6, 29952, Note_on_c, 10, 66, 0
6, 30000, Note_on_c, 10, 57, 116
6, 30192, Note_on_c, 10, 57, 0
6, 30240, Note_on_c, 10, 56, 116
6, 30624, Note_on_c, 10, 56, 0
6, 30960, Note_on_c, 10, 66, 70
6, 31152, Note_on_c, 10, 66, 0
6, 31200, Note_on_c, 10, 71, 70
6, 31392, Note_on_c, 10, 71, 0
6, 31440, Note_on_c, 10, 62, 70
6, 31632, Note_on_c, 10, 62, 0
6, 31680, Note_on_c, 10, 61, 70
6, 32064, Note_on_c, 10, 61, 0
6, 32400, Note_on_c, 10, 61, 116
6, 32592, Note_on_c, 10, 61, 0
6, 32640, Note_on_c, 10, 66, 116
6, 32832, Note_on_c, 10, 66, 0
6, 32880, Note_on_c, 10, 57, 116
6, 33072, Note_on_c, 10, 57, 0
6, 33120, Note_on_c, 10, 56, 116
6, 33504, Note_on_c, 10, 56, 0
6, 33840, Note_on_c, 10, 80, 116
6, 34032, Note_on_c, 10, 80, 0
6, 34080, Note_on_c, 10, 81, 116
6, 34272, Note_on_c, 10, 81, 0
6, 34320, Note_on_c, 10, 73, 116
6, 34512, Note_on_c, 10, 73, 0
6, 34560, Note_on_c, 10, 71, 116
6, 34944, Note_on_c, 10, 71, 0
6, 35280, Note_on_c, 10, 80, 116
6, 35472, Note_on_c, 10, 80, 0
6, 35520, Note_on_c, 10, 81, 116
6, 35712, Note_on_c, 10, 81, 0
6, 35760, Note_on_c, 10, 73, 116
6, 35952, Note_on_c, 10, 73, 0
6, 36000, Note_on_c, 10, 71, 105
6, 36288, Note_on_c, 10, 71, 0
6, 36480, Note_on_c, 10, 76, 105
6, 36540, Note_on_c, 10, 76, 0
6, 36540, Note_on_c, 10, 75, 105
6, 36600, Note_on_c, 10, 75, 0
6, 36600, Note_on_c, 10, 76, 105
6, 36660, Note_on_c, 10, 76, 0
6, 36660, Note_on_c, 10, 75, 105
6, 36720, Note_on_c, 10, 75, 0
6, 36720, Note_on_c, 10, 76, 105
6, 36780, Note_on_c, 10, 76, 0
6, 36780, Note_on_c, 10, 75, 105
6, 36840, Note_on_c, 10, 75, 0
6, 36840, Note_on_c, 10, 76, 105
6, 36900, Note_on_c, 10, 76, 0
6, 36900, Note_on_c, 10, 75, 105
6, 36960, Note_on_c, 10, 75, 0
6, 36960, Note_on_c, 10, 76, 105
6, 37020, Note_on_c, 10, 76, 0
6, 37020, Note_on_c, 10, 75, 105
6, 37080, Note_on_c, 10, 75, 0
6, 37080, Note_on_c, 10, 76, 105
6, 37140, Note_on_c, 10, 76, 0
6, 37140, Note_on_c, 10, 75, 105
6, 37200, Note_on_c, 10, 75, 0
6, 37200, Note_on_c, 10, 73, 105
6, 37320, Note_on_c, 10, 73, 0
6, 37320, Note_on_c, 10, 75, 105
6, 37440, Note_on_c, 10, 75, 0
6, 37440, Note_on_c, 10, 76, 105
6, 37728, Note_on_c, 10, 76, 0
6, 37920, Note_on_c, 10, 64, 80
6, 38208, Note_on_c, 10, 64, 0
6, 38880, Note_on_c, 10, 76, 70
6, 40200, Note_on_c, 10, 76, 0
6, 40200, Note_on_c, 10, 78, 70
6, 40320, Note_on_c, 10, 78, 0
6, 40320, Note_on_c, 10, 69, 70
6, 41280, Note_on_c, 10, 69, 0
6, 41280, Note_on_c, 10, 68, 70
6, 41760, Note_on_c, 10, 68, 0
6, 41760, Note_on_c, 10, 69, 70
6, 42000, Note_on_c, 10, 69, 0
6, 42000, Note_on_c, 10, 73, 70
6, 42240, Note_on_c, 10, 73, 0
6, 42240, Note_on_c, 10, 76, 70
6, 42480, Note_on_c, 10, 76, 0
6, 42480, Note_on_c, 10, 81, 70
6, 42720, Note_on_c, 10, 81, 0
6, 42720, Note_on_c, 10, 85, 70
6, 42960, Note_on_c, 10, 85, 0
6, 42960, Note_on_c, 10, 81, 70
6, 43200, Note_on_c, 10, 81, 0
6, 43200, Note_on_c, 10, 76, 70
6, 43584, Note_on_c, 10, 76, 0
6, 44640, Note_on_c, 10, 69, 70
6, 44760, Note_on_c, 10, 69, 0
6, 44760, Note_on_c, 10, 73, 70
6, 45048, Note_on_c, 10, 73, 0
6, 45120, Note_on_c, 10, 76, 70
6, 45240, Note_on_c, 10, 76, 0
6, 45240, Note_on_c, 10, 81, 70
6, 45528, Note_on_c, 10, 81, 0
6, 45600, Note_on_c, 10, 85, 70
6, 45720, Note_on_c, 10, 85, 0
6, 45720, Note_on_c, 10, 81, 70
6, 46008, Note_on_c, 10, 81, 0
6, 46080, Note_on_c, 10, 76, 70
6, 46464, Note_on_c, 10, 76, 0
6, 47520, Note_on_c, 10, 78, 70
6, 48240, Note_on_c, 10, 78, 0
6, 48240, Note_on_c, 10, 80, 70
6, 48480, Note_on_c, 10, 80, 0
6, 48480, Note_on_c, 10, 81, 70
6, 48768, Note_on_c, 10, 81, 0
6, 48960, Note_on_c, 10, 81, 70
6, 49080, Note_on_c, 10, 81, 0
6, 49080, Note_on_c, 10, 76, 70
6, 49920, Note_on_c, 10, 76, 0
6, 49920, Note_on_c, 10, 78, 70
6, 50400, Note_on_c, 10, 78, 0
6, 50400, Note_on_c, 10, 78, 70
6, 50520, Note_on_c, 10, 78, 0
6, 50520, Note_on_c, 10, 69, 70
6, 51360, Note_on_c, 10, 69, 0
6, 51360, Note_on_c, 10, 73, 70
6, 51420, Note_on_c, 10, 73, 0
6, 51420, Note_on_c, 10, 71, 70
6, 51480, Note_on_c, 10, 71, 0
6, 51480, Note_on_c, 10, 73, 70
6, 51540, Note_on_c, 10, 73, 0
6, 51540, Note_on_c, 10, 71, 70
6, 51600, Note_on_c, 10, 71, 0
6, 51600, Note_on_c, 10, 73, 70
6, 51660, Note_on_c, 10, 73, 0
6, 51660, Note_on_c, 10, 71, 70
6, 51720, Note_on_c, 10, 71, 0
6, 51720, Note_on_c, 10, 69, 70
6, 51780, Note_on_c, 10, 69, 0
6, 51780, Note_on_c, 10, 71, 70
6, 51840, Note_on_c, 10, 71, 0
6, 51840, Note_on_c, 10, 69, 70
6, 52224, Note_on_c, 10, 69, 0
6, 53280, Note_on_c, 10, 76, 70
6, 54600, Note_on_c, 10, 76, 0
6, 54600, Note_on_c, 10, 78, 70
6, 54720, Note_on_c, 10, 78, 0
6, 54720, Note_on_c, 10, 69, 70
6, 55680, Note_on_c, 10, 69, 0
6, 55680, Note_on_c, 10, 68, 70
6, 56160, Note_on_c, 10, 68, 0
6, 56160, Note_on_c, 10, 69, 70
6, 56400, Note_on_c, 10, 69, 0
6, 56400, Note_on_c, 10, 73, 70
6, 56640, Note_on_c, 10, 73, 0
6, 56640, Note_on_c, 10, 76, 70
6, 56880, Note_on_c, 10, 76, 0
6, 56880, Note_on_c, 10, 81, 70
6, 57120, Note_on_c, 10, 81, 0
6, 57120, Note_on_c, 10, 85, 70
6, 57360, Note_on_c, 10, 85, 0
6, 57360, Note_on_c, 10, 81, 70
6, 57600, Note_on_c, 10, 81, 0
6, 57600, Note_on_c, 10, 76, 70
6, 57984, Note_on_c, 10, 76, 0
6, 59040, Note_on_c, 10, 69, 70
6, 59160, Note_on_c, 10, 69, 0
6, 59160, Note_on_c, 10, 73, 70
6, 59448, Note_on_c, 10, 73, 0
6, 59520, Note_on_c, 10, 76, 70
6, 59640, Note_on_c, 10, 76, 0
6, 59640, Note_on_c, 10, 81, 70
6, 59928, Note_on_c, 10, 81, 0
6, 60000, Note_on_c, 10, 85, 70
6, 60120, Note_on_c, 10, 85, 0
6, 60120, Note_on_c, 10, 81, 70
6, 60408, Note_on_c, 10, 81, 0
6, 60480, Note_on_c, 10, 76, 70
6, 60864, Note_on_c, 10, 76, 0
6, 61920, Note_on_c, 10, 78, 70
6, 62640, Note_on_c, 10, 78, 0
6, 62640, Note_on_c, 10, 80, 70
6, 62856, Note_on_c, 10, 80, 0
6, 62880, Note_on_c, 10, 81, 70
6, 63168, Note_on_c, 10, 81, 0
6, 63360, Note_on_c, 10, 81, 70
6, 63480, Note_on_c, 10, 81, 0
6, 63480, Note_on_c, 10, 69, 70
6, 64224, Note_on_c, 10, 69, 0
6, 64320, Note_on_c, 10, 81, 70
6, 64440, Note_on_c, 10, 81, 0
6, 64440, Note_on_c, 10, 71, 70
6, 65184, Note_on_c, 10, 71, 0
6, 65280, Note_on_c, 10, 81, 70
6, 65400, Note_on_c, 10, 81, 0
6, 65400, Note_on_c, 10, 72, 70
6, 66144, Note_on_c, 10, 72, 0
6, 66240, Note_on_c, 10, 81, 70
6, 66360, Note_on_c, 10, 81, 0
6, 66360, Note_on_c, 10, 73, 70
6, 66648, Note_on_c, 10, 73, 0
6, 66720, Note_on_c, 10, 81, 70
6, 66840, Note_on_c, 10, 81, 0
6, 66840, Note_on_c, 10, 74, 70
6, 67128, Note_on_c, 10, 74, 0
6, 67200, Note_on_c, 10, 81, 70
6, 67320, Note_on_c, 10, 81, 0
6, 67320, Note_on_c, 10, 75, 70
6, 67608, Note_on_c, 10, 75, 0
6, 67680, Note_on_c, 10, 81, 70
6, 67800, Note_on_c, 10, 81, 0
6, 67800, Note_on_c, 10, 76, 70
6, 68088, Note_on_c, 10, 76, 0
6, 68160, Note_on_c, 10, 81, 70
6, 68280, Note_on_c, 10, 81, 0
6, 68280, Note_on_c, 10, 77, 70
6, 68568, Note_on_c, 10, 77, 0
6, 68640, Note_on_c, 10, 81, 70
6, 68760, Note_on_c, 10, 81, 0
6, 68760, Note_on_c, 10, 78, 70
6, 69048, Note_on_c, 10, 78, 0
6, 69360, Note_on_c, 10, 81, 70
6, 69504, Note_on_c, 10, 81, 0
6, 69600, Note_on_c, 10, 80, 70
6, 69744, Note_on_c, 10, 80, 0
6, 69840, Note_on_c, 10, 78, 70
6, 69984, Note_on_c, 10, 78, 0
6, 70080, Note_on_c, 10, 76, 70
6, 70224, Note_on_c, 10, 76, 0
6, 70320, Note_on_c, 10, 74, 70
6, 70464, Note_on_c, 10, 74, 0
6, 70560, Note_on_c, 10, 73, 70
6, 70800, Note_on_c, 10, 73, 0
6, 70800, Note_on_c, 10, 74, 70
6, 71040, Note_on_c, 10, 74, 0
6, 71040, Note_on_c, 10, 75, 70
6, 71280, Note_on_c, 10, 75, 0
6, 71280, Note_on_c, 10, 76, 70
6, 71520, Note_on_c, 10, 76, 0
6, 71520, Note_on_c, 10, 77, 70
6, 71760, Note_on_c, 10, 77, 0
6, 71760, Note_on_c, 10, 78, 70
6, 71904, Note_on_c, 10, 78, 0
6, 72000, Note_on_c, 10, 78, 70
6, 72120, Note_on_c, 10, 78, 0
6, 72120, Note_on_c, 10, 69, 70
6, 72960, Note_on_c, 10, 69, 0
6, 72960, Note_on_c, 10, 73, 70
6, 73020, Note_on_c, 10, 73, 0
6, 73020, Note_on_c, 10, 71, 70
6, 73080, Note_on_c, 10, 71, 0
6, 73080, Note_on_c, 10, 73, 70
6, 73140, Note_on_c, 10, 73, 0
6, 73140, Note_on_c, 10, 71, 70
6, 73200, Note_on_c, 10, 71, 0
6, 73200, Note_on_c, 10, 73, 70
6, 73260, Note_on_c, 10, 73, 0
6, 73260, Note_on_c, 10, 71, 70
6, 73320, Note_on_c, 10, 71, 0
6, 73320, Note_on_c, 10, 69, 70
6, 73380, Note_on_c, 10, 69, 0
6, 73380, Note_on_c, 10, 71, 70
6, 73440, Note_on_c, 10, 71, 0
6, 73440, Note_on_c, 10, 69, 70
6, 73824, Note_on_c, 10, 69, 0
6, 73920, Note_on_c, 10, 76, 116
6, 74304, Note_on_c, 10, 76, 0
6, 74400, Note_on_c, 10, 76, 116
6, 74784, Note_on_c, 10, 76, 0
6, 74880, Note_on_c, 10, 81, 116
6, 75240, Note_on_c, 10, 81, 0
6, 75240, Note_on_c, 10, 83, 116
6, 75360, Note_on_c, 10, 83, 0
6, 75360, Note_on_c, 10, 85, 116
6, 75576, Note_on_c, 10, 85, 0
6, 75720, Note_on_c, 10, 83, 116
6, 75792, Note_on_c, 10, 83, 0
6, 75840, Note_on_c, 10, 81, 116
6, 76224, Note_on_c, 10, 81, 0
6, 76800, Note_on_c, 10, 80, 116
6, 77184, Note_on_c, 10, 80, 0
6, 77280, Note_on_c, 10, 80, 116
6, 77664, Note_on_c, 10, 80, 0
6, 77760, Note_on_c, 10, 83, 116
6, 78120, Note_on_c, 10, 83, 0
6, 78120, Note_on_c, 10, 85, 116
6, 78240, Note_on_c, 10, 85, 0
6, 78240, Note_on_c, 10, 86, 116
6, 78456, Note_on_c, 10, 86, 0
6, 78600, Note_on_c, 10, 85, 116
6, 78672, Note_on_c, 10, 85, 0
6, 78720, Note_on_c, 10, 83, 116
6, 79104, Note_on_c, 10, 83, 0
6, 79680, Note_on_c, 10, 81, 116
6, 80064, Note_on_c, 10, 81, 0
6, 80160, Note_on_c, 10, 81, 116
6, 80544, Note_on_c, 10, 81, 0
6, 80640, Note_on_c, 10, 88, 116
6, 81600, Note_on_c, 10, 88, 0
6, 81600, Note_on_c, 10, 79, 116
6, 82080, Note_on_c, 10, 79, 0
6, 82080, Note_on_c, 10, 78, 116
6, 82464, Note_on_c, 10, 78, 0
6, 82560, Note_on_c, 10, 78, 116
6, 82944, Note_on_c, 10, 78, 0
6, 83040, Note_on_c, 10, 78, 116
6, 83424, Note_on_c, 10, 78, 0
6, 83520, Note_on_c, 10, 86, 116
6, 84480, Note_on_c, 10, 86, 0
6, 84480, Note_on_c, 10, 78, 116
6, 84960, Note_on_c, 10, 78, 0
6, 84960, Note_on_c, 10, 76, 116
6, 85344, Note_on_c, 10, 76, 0
6, 85440, Note_on_c, 10, 76, 116
6, 85824, Note_on_c, 10, 76, 0
6, 85920, Note_on_c, 10, 76, 116
6, 86304, Note_on_c, 10, 76, 0
6, 86400, Note_on_c, 10, 85, 116
6, 87360, Note_on_c, 10, 85, 0
6, 87360, Note_on_c, 10, 76, 116
6, 87840, Note_on_c, 10, 76, 0
6, 87840, Note_on_c, 10, 74, 116
6, 88224, Note_on_c, 10, 74, 0
6, 88320, Note_on_c, 10, 83, 116
6, 88608, Note_on_c, 10, 83, 0
6, 88680, Note_on_c, 10, 74, 116
6, 88776, Note_on_c, 10, 74, 0
6, 88800, Note_on_c, 10, 73, 116
6, 89184, Note_on_c, 10, 73, 0
6, 89280, Note_on_c, 10, 81, 116
6, 89544, Note_on_c, 10, 81, 0
6, 89760, Note_on_c, 10, 71, 116
6, 90240, Note_on_c, 10, 71, 0
6, 90240, Note_on_c, 10, 80, 116
6, 90624, Note_on_c, 10, 80, 0
6, 91200, Note_on_c, 10, 69, 70
6, 91584, Note_on_c, 10, 69, 0
6, 91680, Note_on_c, 10, 69, 70
6, 92064, Note_on_c, 10, 69, 0
6, 92160, Note_on_c, 10, 76, 70
6, 93120, Note_on_c, 10, 76, 0
6, 93120, Note_on_c, 10, 67, 70
6, 93600, Note_on_c, 10, 67, 0
6, 94080, Note_on_c, 10, 66, 70
6, 94464, Note_on_c, 10, 66, 0
6, 94560, Note_on_c, 10, 66, 70
6, 94944, Note_on_c, 10, 66, 0
6, 95040, Note_on_c, 10, 74, 70
6, 96000, Note_on_c, 10, 74, 0
6, 96000, Note_on_c, 10, 66, 70
6, 96480, Note_on_c, 10, 66, 0
6, 96960, Note_on_c, 10, 64, 70
6, 97344, Note_on_c, 10, 64, 0
6, 97440, Note_on_c, 10, 64, 70
6, 97824, Note_on_c, 10, 64, 0
6, 97920, Note_on_c, 10, 73, 70
6, 98880, Note_on_c, 10, 73, 0
6, 98880, Note_on_c, 10, 64, 70
6, 99360, Note_on_c, 10, 64, 0
6, 99360, Note_on_c, 10, 62, 70
6, 99360, Note_on_c, 10, 71, 70
6, 99720, Note_on_c, 10, 71, 0
6, 99720, Note_on_c, 10, 62, 0
6, 100800, Note_on_c, 10, 59, 70
6, 100800, Note_on_c, 10, 68, 70
6, 101160, Note_on_c, 10, 68, 0
6, 101160, Note_on_c, 10, 59, 0
6, 102240, Note_on_c, 10, 69, 92
6, 102336, Note_on_c, 10, 69, 0
6, 102360, Note_on_c, 10, 69, 92
6, 102456, Note_on_c, 10, 69, 0
6, 102480, Note_on_c, 10, 69, 92
6, 102576, Note_on_c, 10, 69, 0
6, 102600, Note_on_c, 10, 69, 92
6, 102696, Note_on_c, 10, 69, 0
6, 102720, Note_on_c, 10, 73, 92
6, 102816, Note_on_c, 10, 73, 0
6, 102840, Note_on_c, 10, 73, 92
6, 102936, Note_on_c, 10, 73, 0
6, 102960, Note_on_c, 10, 73, 92
6, 103056, Note_on_c, 10, 73, 0
6, 103080, Note_on_c, 10, 73, 92
6, 103176, Note_on_c, 10, 73, 0
6, 103200, Note_on_c, 10, 66, 92
6, 103296, Note_on_c, 10, 66, 0
6, 103320, Note_on_c, 10, 66, 92
6, 103416, Note_on_c, 10, 66, 0
6, 103440, Note_on_c, 10, 66, 92
6, 103536, Note_on_c, 10, 66, 0
6, 103560, Note_on_c, 10, 66, 92
6, 103656, Note_on_c, 10, 66, 0
6, 103680, Note_on_c, 10, 69, 92
6, 103776, Note_on_c, 10, 69, 0
6, 103800, Note_on_c, 10, 69, 92
6, 103896, Note_on_c, 10, 69, 0
6, 103920, Note_on_c, 10, 69, 92
6, 104016, Note_on_c, 10, 69, 0
6, 104040, Note_on_c, 10, 69, 92
6, 104136, Note_on_c, 10, 69, 0
6, 104160, Note_on_c, 10, 63, 92
6, 104256, Note_on_c, 10, 63, 0
6, 104280, Note_on_c, 10, 63, 92
6, 104376, Note_on_c, 10, 63, 0
6, 104400, Note_on_c, 10, 63, 92
6, 104496, Note_on_c, 10, 63, 0
6, 104520, Note_on_c, 10, 63, 92
6, 104616, Note_on_c, 10, 63, 0
6, 104640, Note_on_c, 10, 66, 92
6, 104736, Note_on_c, 10, 66, 0
6, 104760, Note_on_c, 10, 66, 92
6, 104856, Note_on_c, 10, 66, 0
6, 104880, Note_on_c, 10, 66, 92
6, 104976, Note_on_c, 10, 66, 0
6, 105000, Note_on_c, 10, 66, 92
6, 105096, Note_on_c, 10, 66, 0
6, 105120, Note_on_c, 10, 64, 105
6, 105216, Note_on_c, 10, 64, 0
6, 105240, Note_on_c, 10, 73, 105
6, 105240, Note_on_c, 10, 81, 105
6, 105336, Note_on_c, 10, 81, 0
6, 105336, Note_on_c, 10, 73, 0
6, 105360, Note_on_c, 10, 73, 105
6, 105360, Note_on_c, 10, 81, 105
6, 105456, Note_on_c, 10, 81, 0
6, 105456, Note_on_c, 10, 73, 0
6, 105480, Note_on_c, 10, 73, 105
6, 105480, Note_on_c, 10, 81, 105
6, 105576, Note_on_c, 10, 81, 0
6, 105576, Note_on_c, 10, 73, 0
6, 105600, Note_on_c, 10, 73, 105
6, 105600, Note_on_c, 10, 81, 105
6, 105696, Note_on_c, 10, 81, 0
6, 105696, Note_on_c, 10, 73, 0
6, 105720, Note_on_c, 10, 81, 105
6, 105720, Note_on_c, 10, 73, 105
6, 105816, Note_on_c, 10, 73, 0
6, 105816, Note_on_c, 10, 81, 0
6, 105840, Note_on_c, 10, 73, 105
6, 105840, Note_on_c, 10, 81, 105
6, 105936, Note_on_c, 10, 81, 0
6, 105936, Note_on_c, 10, 73, 0
6, 105960, Note_on_c, 10, 73, 105
6, 105960, Note_on_c, 10, 81, 105
6, 106056, Note_on_c, 10, 81, 0
6, 106056, Note_on_c, 10, 73, 0
6, 106080, Note_on_c, 10, 81, 105
6, 106080, Note_on_c, 10, 73, 105
6, 106176, Note_on_c, 10, 73, 0
6, 106176, Note_on_c, 10, 81, 0
6, 106200, Note_on_c, 10, 73, 105
6, 106200, Note_on_c, 10, 81, 105
6, 106296, Note_on_c, 10, 81, 0
6, 106296, Note_on_c, 10, 73, 0
6, 106320, Note_on_c, 10, 81, 105
6, 106320, Note_on_c, 10, 73, 105
6, 106416, Note_on_c, 10, 73, 0
6, 106416, Note_on_c, 10, 81, 0
6, 106440, Note_on_c, 10, 73, 105
6, 106440, Note_on_c, 10, 81, 105
6, 106536, Note_on_c, 10, 81, 0
6, 106536, Note_on_c, 10, 73, 0
6, 106560, Note_on_c, 10, 71, 105
6, 106560, Note_on_c, 10, 80, 105
6, 106656, Note_on_c, 10, 80, 0
6, 106656, Note_on_c, 10, 71, 0
6, 106680, Note_on_c, 10, 80, 105
6, 106680, Note_on_c, 10, 71, 105
6, 106776, Note_on_c, 10, 71, 0
6, 106776, Note_on_c, 10, 80, 0
6, 106800, Note_on_c, 10, 71, 105
6, 106800, Note_on_c, 10, 80, 105
6, 106896, Note_on_c, 10, 80, 0
6, 106896, Note_on_c, 10, 71, 0
6, 106920, Note_on_c, 10, 80, 105
6, 106920, Note_on_c, 10, 71, 105
6, 107016, Note_on_c, 10, 71, 0
6, 107016, Note_on_c, 10, 80, 0
6, 107040, Note_on_c, 10, 80, 105
6, 107040, Note_on_c, 10, 71, 105
6, 107136, Note_on_c, 10, 71, 0
6, 107136, Note_on_c, 10, 80, 0
6, 107160, Note_on_c, 10, 71, 105
6, 107160, Note_on_c, 10, 80, 105
6, 107256, Note_on_c, 10, 80, 0
6, 107256, Note_on_c, 10, 71, 0
6, 107280, Note_on_c, 10, 80, 105
6, 107280, Note_on_c, 10, 71, 105
6, 107376, Note_on_c, 10, 71, 0
6, 107376, Note_on_c, 10, 80, 0
6, 107400, Note_on_c, 10, 71, 105
6, 107400, Note_on_c, 10, 80, 105
6, 107496, Note_on_c, 10, 80, 0
6, 107496, Note_on_c, 10, 71, 0
6, 107520, Note_on_c, 10, 80, 105
6, 107520, Note_on_c, 10, 71, 105
6, 107616, Note_on_c, 10, 71, 0
6, 107616, Note_on_c, 10, 80, 0
6, 107640, Note_on_c, 10, 71, 105
6, 107640, Note_on_c, 10, 80, 105
6, 107736, Note_on_c, 10, 80, 0
6, 107736, Note_on_c, 10, 71, 0
6, 107760, Note_on_c, 10, 71, 105
6, 107760, Note_on_c, 10, 80, 105
6, 107856, Note_on_c, 10, 80, 0
6, 107856, Note_on_c, 10, 71, 0
6, 107880, Note_on_c, 10, 71, 105
6, 107880, Note_on_c, 10, 80, 105
6, 107976, Note_on_c, 10, 80, 0
6, 107976, Note_on_c, 10, 71, 0
6, 108000, Note_on_c, 10, 69, 112
6, 108240, Note_on_c, 10, 69, 0
6, 108240, Note_on_c, 10, 81, 92
6, 108384, Note_on_c, 10, 81, 0
6, 108480, Note_on_c, 10, 69, 92
6, 108624, Note_on_c, 10, 69, 0
6, 108720, Note_on_c, 10, 69, 92
6, 108864, Note_on_c, 10, 69, 0
6, 108960, Note_on_c, 10, 69, 92
6, 109104, Note_on_c, 10, 69, 0
6, 109200, Note_on_c, 10, 69, 92
6, 109344, Note_on_c, 10, 69, 0
6, 109440, Note_on_c, 10, 69, 112
6, 109680, Note_on_c, 10, 69, 0
6, 109680, Note_on_c, 10, 81, 92
6, 109824, Note_on_c, 10, 81, 0
6, 109920, Note_on_c, 10, 69, 92
6, 110064, Note_on_c, 10, 69, 0
6, 110160, Note_on_c, 10, 69, 92
6, 110304, Note_on_c, 10, 69, 0
6, 110400, Note_on_c, 10, 69, 92
6, 110544, Note_on_c, 10, 69, 0
6, 110640, Note_on_c, 10, 69, 92
6, 110784, Note_on_c, 10, 69, 0
6, 110880, Note_on_c, 10, 69, 112
6, 111120, Note_on_c, 10, 69, 0
6, 111120, Note_on_c, 10, 81, 92
6, 111264, Note_on_c, 10, 81, 0
6, 111360, Note_on_c, 10, 69, 92
6, 111504, Note_on_c, 10, 69, 0
6, 111600, Note_on_c, 10, 69, 92
6, 111744, Note_on_c, 10, 69, 0
6, 111840, Note_on_c, 10, 69, 92
6, 111984, Note_on_c, 10, 69, 0
6, 112080, Note_on_c, 10, 69, 92
6, 112224, Note_on_c, 10, 69, 0
6, 112320, Note_on_c, 10, 69, 112
6, 112608, Note_on_c, 10, 69, 0
6, 112800, Note_on_c, 10, 57, 92
6, 113088, Note_on_c, 10, 57, 0
6, 113760, Note_on_c, 10, 62, 105
6, 113760, Note_on_c, 10, 74, 105
6, 113760, Note_on_c, 10, 86, 105
6, 114048, Note_on_c, 10, 86, 0
6, 114048, Note_on_c, 10, 74, 0
6, 114048, Note_on_c, 10, 62, 0
6, 114120, Note_on_c, 10, 86, 105
6, 114120, Note_on_c, 10, 74, 105
6, 114216, Note_on_c, 10, 74, 0
6, 114216, Note_on_c, 10, 86, 0
6, 114240, Note_on_c, 10, 74, 105
6, 114240, Note_on_c, 10, 86, 105
6, 114624, Note_on_c, 10, 86, 0
6, 114624, Note_on_c, 10, 74, 0
6, 115200, Note_on_c, 10, 69, 105
6, 115200, Note_on_c, 10, 81, 105
6, 115488, Note_on_c, 10, 81, 0
6, 115488, Note_on_c, 10, 69, 0
6, 115560, Note_on_c, 10, 81, 105
6, 115560, Note_on_c, 10, 69, 105
6, 115656, Note_on_c, 10, 69, 0
6, 115656, Note_on_c, 10, 81, 0
6, 115680, Note_on_c, 10, 81, 105
6, 115680, Note_on_c, 10, 69, 105
6, 116064, Note_on_c, 10, 69, 0
6, 116064, Note_on_c, 10, 81, 0
6, 116640, Note_on_c, 10, 79, 105
6, 117024, Note_on_c, 10, 79, 0
6, 117120, Note_on_c, 10, 78, 105
6, 117504, Note_on_c, 10, 78, 0
6, 117600, Note_on_c, 10, 76, 105
6, 117984, Note_on_c, 10, 76, 0
6, 118080, Note_on_c, 10, 74, 105
6, 118140, Note_on_c, 10, 74, 0
6, 118140, Note_on_c, 10, 73, 105
6, 118200, Note_on_c, 10, 73, 0
6, 118200, Note_on_c, 10, 74, 105
6, 118260, Note_on_c, 10, 74, 0
6, 118260, Note_on_c, 10, 73, 105
6, 118320, Note_on_c, 10, 73, 0
6, 118320, Note_on_c, 10, 74, 105
6, 118380, Note_on_c, 10, 74, 0
6, 118380, Note_on_c, 10, 73, 105
6, 118440, Note_on_c, 10, 73, 0
6, 118440, Note_on_c, 10, 71, 105
6, 118500, Note_on_c, 10, 71, 0
6, 118500, Note_on_c, 10, 73, 105
6, 118560, Note_on_c, 10, 73, 0
6, 118560, Note_on_c, 10, 74, 105
6, 118848, Note_on_c, 10, 74, 0
6, 119520, Note_on_c, 10, 86, 127
6, 119760, Note_on_c, 10, 86, 0
6, 119760, Note_on_c, 10, 85, 80
6, 120000, Note_on_c, 10, 85, 0
6, 120000, Note_on_c, 10, 83, 80
6, 120240, Note_on_c, 10, 83, 0
6, 120240, Note_on_c, 10, 81, 80
6, 120432, Note_on_c, 10, 81, 0
6, 120480, Note_on_c, 10, 81, 80
6, 120624, Note_on_c, 10, 81, 0
6, 120720, Note_on_c, 10, 81, 80
6, 120864, Note_on_c, 10, 81, 0
6, 120960, Note_on_c, 10, 83, 120
6, 121200, Note_on_c, 10, 83, 0
6, 121200, Note_on_c, 10, 81, 80
6, 121440, Note_on_c, 10, 81, 0
6, 121440, Note_on_c, 10, 79, 80
6, 121680, Note_on_c, 10, 79, 0
6, 121680, Note_on_c, 10, 78, 80
6, 121872, Note_on_c, 10, 78, 0
6, 121920, Note_on_c, 10, 78, 80
6, 122064, Note_on_c, 10, 78, 0
6, 122160, Note_on_c, 10, 78, 80
6, 122304, Note_on_c, 10, 78, 0
6, 122400, Note_on_c, 10, 81, 105
6, 122520, Note_on_c, 10, 81, 0
6, 122520, Note_on_c, 10, 79, 105
6, 122736, Note_on_c, 10, 79, 0
6, 122880, Note_on_c, 10, 78, 105
6, 123168, Note_on_c, 10, 78, 0
6, 123360, Note_on_c, 10, 76, 105
6, 123648, Note_on_c, 10, 76, 0
6, 123840, Note_on_c, 10, 74, 105
6, 123960, Note_on_c, 10, 74, 0
6, 123960, Note_on_c, 10, 73, 105
6, 124080, Note_on_c, 10, 73, 0
6, 124080, Note_on_c, 10, 71, 105
6, 124200, Note_on_c, 10, 71, 0
6, 124200, Note_on_c, 10, 69, 105
6, 124296, Note_on_c, 10, 69, 0
6, 124320, Note_on_c, 10, 74, 105
6, 124440, Note_on_c, 10, 74, 0
6, 124440, Note_on_c, 10, 73, 105
6, 124560, Note_on_c, 10, 73, 0
6, 124560, Note_on_c, 10, 71, 105
6, 124680, Note_on_c, 10, 71, 0
6, 124680, Note_on_c, 10, 69, 105
6, 124776, Note_on_c, 10, 69, 0
6, 124800, Note_on_c, 10, 74, 105
6, 125184, Note_on_c, 10, 74, 0
6, 125280, Note_on_c, 10, 74, 120
6, 125520, Note_on_c, 10, 74, 0
6, 125520, Note_on_c, 10, 73, 80
6, 125760, Note_on_c, 10, 73, 0
6, 125760, Note_on_c, 10, 71, 80
6, 126000, Note_on_c, 10, 71, 0
6, 126000, Note_on_c, 10, 69, 80
6, 126192, Note_on_c, 10, 69, 0
6, 126240, Note_on_c, 10, 69, 80
6, 126384, Note_on_c, 10, 69, 0
6, 126480, Note_on_c, 10, 69, 80
6, 126624, Note_on_c, 10, 69, 0
6, 126720, Note_on_c, 10, 71, 120
6, 126960, Note_on_c, 10, 71, 0
6, 126960, Note_on_c, 10, 69, 80
6, 127200, Note_on_c, 10, 69, 0
6, 127200, Note_on_c, 10, 67, 80
6, 127440, Note_on_c, 10, 67, 0
6, 127440, Note_on_c, 10, 66, 80
6, 127632, Note_on_c, 10, 66, 0
6, 127680, Note_on_c, 10, 66, 80
6, 127824, Note_on_c, 10, 66, 0
6, 127920, Note_on_c, 10, 66, 80
6, 128064, Note_on_c, 10, 66, 0
6, 128160, Note_on_c, 10, 69, 80
6, 128280, Note_on_c, 10, 69, 0
6, 128280, Note_on_c, 10, 67, 105
6, 128496, Note_on_c, 10, 67, 0
6, 128640, Note_on_c, 10, 66, 105
6, 128928, Note_on_c, 10, 66, 0
6, 129120, Note_on_c, 10, 64, 105
6, 129408, Note_on_c, 10, 64, 0
6, 129600, Note_on_c, 10, 62, 105
6, 129984, Note_on_c, 10, 62, 0
6, 130320, Note_on_c, 10, 69, 116
6, 130512, Note_on_c, 10, 69, 0
6, 130560, Note_on_c, 10, 74, 116
6, 130752, Note_on_c, 10, 74, 0
6, 130800, Note_on_c, 10, 78, 116
6, 130992, Note_on_c, 10, 78, 0
6, 131040, Note_on_c, 10, 81, 116
6, 131424, Note_on_c, 10, 81, 0
6, 131760, Note_on_c, 10, 81, 116
6, 131952, Note_on_c, 10, 81, 0
6, 132000, Note_on_c, 10, 86, 116
6, 132192, Note_on_c, 10, 86, 0
6, 132240, Note_on_c, 10, 78, 116
6, 132432, Note_on_c, 10, 78, 0
6, 132480, Note_on_c, 10, 81, 116
6, 132864, Note_on_c, 10, 81, 0
6, 133200, Note_on_c, 10, 69, 116
6, 133392, Note_on_c, 10, 69, 0
6, 133440, Note_on_c, 10, 73, 116
6, 133632, Note_on_c, 10, 73, 0
6, 133680, Note_on_c, 10, 76, 116
6, 133872, Note_on_c, 10, 76, 0
6, 133920, Note_on_c, 10, 81, 116
6, 134304, Note_on_c, 10, 81, 0
6, 134640, Note_on_c, 10, 81, 116
6, 134832, Note_on_c, 10, 81, 0
6, 134880, Note_on_c, 10, 85, 116
6, 135072, Note_on_c, 10, 85, 0
6, 135120, Note_on_c, 10, 76, 116
6, 135312, Note_on_c, 10, 76, 0
6, 135360, Note_on_c, 10, 80, 116
6, 135744, Note_on_c, 10, 80, 0
6, 136080, Note_on_c, 10, 64, 116
6, 136272, Note_on_c, 10, 64, 0
6, 136320, Note_on_c, 10, 68, 116
6, 136512, Note_on_c, 10, 68, 0
6, 136560, Note_on_c, 10, 71, 116
6, 136752, Note_on_c, 10, 71, 0
6, 136800, Note_on_c, 10, 74, 116
6, 137184, Note_on_c, 10, 74, 0
6, 137520, Note_on_c, 10, 80, 116
6, 137712, Note_on_c, 10, 80, 0
6, 137760, Note_on_c, 10, 83, 116
6, 137952, Note_on_c, 10, 83, 0
6, 138000, Note_on_c, 10, 76, 116
6, 138192, Note_on_c, 10, 76, 0
6, 138240, Note_on_c, 10, 81, 116
6, 138624, Note_on_c, 10, 81, 0
6, 138960, Note_on_c, 10, 61, 116
6, 139152, Note_on_c, 10, 61, 0
6, 139200, Note_on_c, 10, 66, 116
6, 139392, Note_on_c, 10, 66, 0
6, 139440, Note_on_c, 10, 57, 116
6, 139632, Note_on_c, 10, 57, 0
6, 139680, Note_on_c, 10, 56, 116
6, 140064, Note_on_c, 10, 56, 0
6, 140400, Note_on_c, 10, 66, 70
6, 140592, Note_on_c, 10, 66, 0
6, 140640, Note_on_c, 10, 71, 70
6, 140832, Note_on_c, 10, 71, 0
6, 140880, Note_on_c, 10, 62, 70
6, 141072, Note_on_c, 10, 62, 0
6, 141120, Note_on_c, 10, 61, 70
6, 141504, Note_on_c, 10, 61, 0
6, 141840, Note_on_c, 10, 61, 116
6, 142032, Note_on_c, 10, 61, 0
6, 142080, Note_on_c, 10, 66, 116
6, 142272, Note_on_c, 10, 66, 0
6, 142320, Note_on_c, 10, 57, 116
6, 142512, Note_on_c, 10, 57, 0
6, 142560, Note_on_c, 10, 56, 116
6, 142944, Note_on_c, 10, 56, 0
6, 143280, Note_on_c, 10, 66, 70
6, 143472, Note_on_c, 10, 66, 0
6, 143520, Note_on_c, 10, 71, 70
6, 143712, Note_on_c, 10, 71, 0
6, 143760, Note_on_c, 10, 62, 70
6, 143952, Note_on_c, 10, 62, 0
6, 144000, Note_on_c, 10, 61, 70
6, 144384, Note_on_c, 10, 61, 0
6, 144720, Note_on_c, 10, 61, 116
6, 144912, Note_on_c, 10, 61, 0
6, 144960, Note_on_c, 10, 66, 116
6, 145152, Note_on_c, 10, 66, 0
6, 145200, Note_on_c, 10, 57, 116
6, 145392, Note_on_c, 10, 57, 0
6, 145440, Note_on_c, 10, 56, 116
6, 145824, Note_on_c, 10, 56, 0
6, 146160, Note_on_c, 10, 80, 116
6, 146352, Note_on_c, 10, 80, 0
6, 146400, Note_on_c, 10, 81, 116
6, 146592, Note_on_c, 10, 81, 0
6, 146640, Note_on_c, 10, 73, 116
6, 146832, Note_on_c, 10, 73, 0
6, 146880, Note_on_c, 10, 71, 116
6, 147264, Note_on_c, 10, 71, 0
6, 147600, Note_on_c, 10, 80, 116
6, 147792, Note_on_c, 10, 80, 0
6, 147840, Note_on_c, 10, 81, 116
6, 148032, Note_on_c, 10, 81, 0
6, 148080, Note_on_c, 10, 73, 116
6, 148272, Note_on_c, 10, 73, 0
6, 148320, Note_on_c, 10, 71, 105
6, 148608, Note_on_c, 10, 71, 0
6, 148800, Note_on_c, 10, 76, 105
6, 148860, Note_on_c, 10, 76, 0
6, 148860, Note_on_c, 10, 75, 105
6, 148920, Note_on_c, 10, 75, 0
6, 148920, Note_on_c, 10, 76, 105
6, 148980, Note_on_c, 10, 76, 0
6, 148980, Note_on_c, 10, 75, 105
6, 149040, Note_on_c, 10, 75, 0
6, 149040, Note_on_c, 10, 76, 105
6, 149100, Note_on_c, 10, 76, 0
6, 149100, Note_on_c, 10, 75, 105
6, 149160, Note_on_c, 10, 75, 0
6, 149160, Note_on_c, 10, 76, 105
6, 149220, Note_on_c, 10, 76, 0
6, 149220, Note_on_c, 10, 75, 105
6, 149280, Note_on_c, 10, 75, 0
6, 149280, Note_on_c, 10, 76, 105
6, 149340, Note_on_c, 10, 76, 0
6, 149340, Note_on_c, 10, 75, 105
6, 149400, Note_on_c, 10, 75, 0
6, 149400, Note_on_c, 10, 76, 105
6, 149460, Note_on_c, 10, 76, 0
6, 149460, Note_on_c, 10, 75, 105
6, 149520, Note_on_c, 10, 75, 0
6, 149520, Note_on_c, 10, 73, 105
6, 149640, Note_on_c, 10, 73, 0
6, 149640, Note_on_c, 10, 75, 105
6, 149760, Note_on_c, 10, 75, 0
6, 149760, Note_on_c, 10, 76, 105
6, 150048, Note_on_c, 10, 76, 0
6, 150240, Note_on_c, 10, 64, 80
6, 150528, Note_on_c, 10, 64, 0
6, 151200, Note_on_c, 10, 76, 70
6, 152520, Note_on_c, 10, 76, 0
6, 152520, Note_on_c, 10, 78, 70
6, 152640, Note_on_c, 10, 78, 0
6, 152640, Note_on_c, 10, 69, 70
6, 153600, Note_on_c, 10, 69, 0
6, 153600, Note_on_c, 10, 68, 70
6, 154080, Note_on_c, 10, 68, 0
6, 154080, Note_on_c, 10, 69, 70
6, 154320, Note_on_c, 10, 69, 0
6, 154320, Note_on_c, 10, 73, 70
6, 154560, Note_on_c, 10, 73, 0
6, 154560, Note_on_c, 10, 76, 70
6, 154800, Note_on_c, 10, 76, 0
6, 154800, Note_on_c, 10, 81, 70
6, 155040, Note_on_c, 10, 81, 0
6, 155040, Note_on_c, 10, 85, 70
6, 155280, Note_on_c, 10, 85, 0
6, 155280, Note_on_c, 10, 81, 70
6, 155520, Note_on_c, 10, 81, 0
6, 155520, Note_on_c, 10, 76, 70
6, 155904, Note_on_c, 10, 76, 0
6, 156960, Note_on_c, 10, 69, 70
6, 157080, Note_on_c, 10, 69, 0
6, 157080, Note_on_c, 10, 73, 70
6, 157368, Note_on_c, 10, 73, 0
6, 157440, Note_on_c, 10, 76, 70
6, 157560, Note_on_c, 10, 76, 0
6, 157560, Note_on_c, 10, 81, 70
6, 157848, Note_on_c, 10, 81, 0
6, 157920, Note_on_c, 10, 85, 70
6, 158040, Note_on_c, 10, 85, 0
6, 158040, Note_on_c, 10, 81, 70
6, 158328, Note_on_c, 10, 81, 0
6, 158400, Note_on_c, 10, 76, 70
6, 158784, Note_on_c, 10, 76, 0
6, 159840, Note_on_c, 10, 78, 70
6, 160560, Note_on_c, 10, 78, 0
6, 160560, Note_on_c, 10, 80, 70
6, 160800, Note_on_c, 10, 80, 0
6, 160800, Note_on_c, 10, 81, 70
6, 161088, Note_on_c, 10, 81, 0
6, 161280, Note_on_c, 10, 81, 70
6, 161400, Note_on_c, 10, 81, 0
6, 161400, Note_on_c, 10, 76, 70
6, 162240, Note_on_c, 10, 76, 0
6, 162240, Note_on_c, 10, 78, 70
6, 162720, Note_on_c, 10, 78, 0
6, 162720, Note_on_c, 10, 78, 70
6, 162840, Note_on_c, 10, 78, 0
6, 162840, Note_on_c, 10, 69, 70
6, 163680, Note_on_c, 10, 69, 0
6, 163680, Note_on_c, 10, 73, 70
6, 163740, Note_on_c, 10, 73, 0
6, 163740, Note_on_c, 10, 71, 70
6, 163800, Note_on_c, 10, 71, 0
6, 163800, Note_on_c, 10, 73, 70
6, 163860, Note_on_c, 10, 73, 0
6, 163860, Note_on_c, 10, 71, 70
6, 163920, Note_on_c, 10, 71, 0
6, 163920, Note_on_c, 10, 73, 70
6, 163980, Note_on_c, 10, 73, 0
6, 163980, Note_on_c, 10, 71, 70
6, 164040, Note_on_c, 10, 71, 0
6, 164040, Note_on_c, 10, 69, 70
6, 164100, Note_on_c, 10, 69, 0
6, 164100, Note_on_c, 10, 71, 70
6, 164160, Note_on_c, 10, 71, 0
6, 164160, Note_on_c, 10, 69, 70
6, 164544, Note_on_c, 10, 69, 0
6, 165600, Note_on_c, 10, 76, 70
6, 166920, Note_on_c, 10, 76, 0
6, 166920, Note_on_c, 10, 78, 70
6, 167040, Note_on_c, 10, 78, 0
6, 167040, Note_on_c, 10, 69, 70
6, 168000, Note_on_c, 10, 69, 0
6, 168000, Note_on_c, 10, 68, 70
6, 168480, Note_on_c, 10, 68, 0
6, 168480, Note_on_c, 10, 69, 70
6, 168720, Note_on_c, 10, 69, 0
6, 168720, Note_on_c, 10, 73, 70
6, 168960, Note_on_c, 10, 73, 0
6, 168960, Note_on_c, 10, 76, 70
6, 169200, Note_on_c, 10, 76, 0
6, 169200, Note_on_c, 10, 81, 70
6, 169440, Note_on_c, 10, 81, 0
6, 169440, Note_on_c, 10, 85, 70
6, 169680, Note_on_c, 10, 85, 0
6, 169680, Note_on_c, 10, 81, 70
6, 169920, Note_on_c, 10, 81, 0
6, 169920, Note_on_c, 10, 76, 70
6, 170304, Note_on_c, 10, 76, 0
6, 171360, Note_on_c, 10, 69, 70
6, 171480, Note_on_c, 10, 69, 0
6, 171480, Note_on_c, 10, 73, 70
6, 171768, Note_on_c, 10, 73, 0
6, 171840, Note_on_c, 10, 76, 70
6, 171960, Note_on_c, 10, 76, 0
6, 171960, Note_on_c, 10, 81, 70
6, 172248, Note_on_c, 10, 81, 0
6, 172320, Note_on_c, 10, 85, 70
6, 172440, Note_on_c, 10, 85, 0
6, 172440, Note_on_c, 10, 81, 70
6, 172728, Note_on_c, 10, 81, 0
6, 172800, Note_on_c, 10, 76, 70
6, 173184, Note_on_c, 10, 76, 0
6, 174240, Note_on_c, 10, 78, 70
6, 174960, Note_on_c, 10, 78, 0
6, 174960, Note_on_c, 10, 80, 70
6, 175176, Note_on_c, 10, 80, 0
6, 175200, Note_on_c, 10, 81, 70
6, 175488, Note_on_c, 10, 81, 0
6, 175680, Note_on_c, 10, 81, 70
6, 175800, Note_on_c, 10, 81, 0
6, 175800, Note_on_c, 10, 69, 70
6, 176544, Note_on_c, 10, 69, 0
6, 176640, Note_on_c, 10, 81, 70
6, 176760, Note_on_c, 10, 81, 0
6, 176760, Note_on_c, 10, 71, 70
6, 177504, Note_on_c, 10, 71, 0
6, 177600, Note_on_c, 10, 81, 70
6, 177720, Note_on_c, 10, 81, 0
6, 177720, Note_on_c, 10, 72, 70
6, 178464, Note_on_c, 10, 72, 0
6, 178560, Note_on_c, 10, 81, 70
6, 178680, Note_on_c, 10, 81, 0
6, 178680, Note_on_c, 10, 73, 70
6, 178968, Note_on_c, 10, 73, 0
6, 179040, Note_on_c, 10, 81, 70
6, 179160, Note_on_c, 10, 81, 0
6, 179160, Note_on_c, 10, 74, 70
6, 179448, Note_on_c, 10, 74, 0
6, 179520, Note_on_c, 10, 81, 70
6, 179640, Note_on_c, 10, 81, 0
6, 179640, Note_on_c, 10, 75, 70
6, 179928, Note_on_c, 10, 75, 0
6, 180000, Note_on_c, 10, 81, 70
6, 180120, Note_on_c, 10, 81, 0
6, 180120, Note_on_c, 10, 76, 70
6, 180408, Note_on_c, 10, 76, 0
6, 180480, Note_on_c, 10, 81, 70
6, 180600, Note_on_c, 10, 81, 0
6, 180600, Note_on_c, 10, 77, 70
6, 180888, Note_on_c, 10, 77, 0
6, 180960, Note_on_c, 10, 81, 70
6, 181080, Note_on_c, 10, 81, 0
6, 181080, Note_on_c, 10, 78, 70
6, 181368, Note_on_c, 10, 78, 0
6, 181680, Note_on_c, 10, 81, 70
6, 181824, Note_on_c, 10, 81, 0
6, 181920, Note_on_c, 10, 80, 70
6, 182064, Note_on_c, 10, 80, 0
6, 182160, Note_on_c, 10, 78, 70
6, 182304, Note_on_c, 10, 78, 0
6, 182400, Note_on_c, 10, 76, 70
6, 182544, Note_on_c, 10, 76, 0
6, 182640, Note_on_c, 10, 74, 70
6, 182784, Note_on_c, 10, 74, 0
6, 182880, Note_on_c, 10, 73, 70
6, 183120, Note_on_c, 10, 73, 0
6, 183120, Note_on_c, 10, 74, 70
6, 183360, Note_on_c, 10, 74, 0
6, 183360, Note_on_c, 10, 75, 70
6, 183600, Note_on_c, 10, 75, 0
6, 183600, Note_on_c, 10, 76, 70
6, 183840, Note_on_c, 10, 76, 0
6, 183840, Note_on_c, 10, 77, 70
6, 184080, Note_on_c, 10, 77, 0
6, 184080, Note_on_c, 10, 78, 70
6, 184224, Note_on_c, 10, 78, 0
6, 184320, Note_on_c, 10, 78, 70
6, 184440, Note_on_c, 10, 78, 0
6, 184440, Note_on_c, 10, 69, 70
6, 185280, Note_on_c, 10, 69, 0
6, 185280, Note_on_c, 10, 73, 70
6, 185340, Note_on_c, 10, 73, 0
6, 185340, Note_on_c, 10, 71, 70
6, 185400, Note_on_c, 10, 71, 0
6, 185400, Note_on_c, 10, 73, 70
6, 185460, Note_on_c, 10, 73, 0
6, 185460, Note_on_c, 10, 71, 70
6, 185520, Note_on_c, 10, 71, 0
6, 185520, Note_on_c, 10, 73, 70
6, 185580, Note_on_c, 10, 73, 0
6, 185580, Note_on_c, 10, 71, 70
6, 185640, Note_on_c, 10, 71, 0
6, 185640, Note_on_c, 10, 69, 70
6, 185700, Note_on_c, 10, 69, 0
6, 185700, Note_on_c, 10, 71, 70
6, 185760, Note_on_c, 10, 71, 0
6, 185760, Note_on_c, 10, 69, 70
6, 186144, Note_on_c, 10, 69, 0
6, 186240, Note_on_c, 10, 76, 116
6, 186624, Note_on_c, 10, 76, 0
6, 186720, Note_on_c, 10, 76, 116
6, 187104, Note_on_c, 10, 76, 0
6, 187200, Note_on_c, 10, 81, 116
6, 187560, Note_on_c, 10, 81, 0
6, 187560, Note_on_c, 10, 83, 116
6, 187680, Note_on_c, 10, 83, 0
6, 187680, Note_on_c, 10, 85, 116
6, 187896, Note_on_c, 10, 85, 0
6, 188040, Note_on_c, 10, 83, 116
6, 188112, Note_on_c, 10, 83, 0
6, 188160, Note_on_c, 10, 81, 116
6, 188544, Note_on_c, 10, 81, 0
6, 189120, Note_on_c, 10, 80, 116
6, 189504, Note_on_c, 10, 80, 0
6, 189600, Note_on_c, 10, 80, 116
6, 189984, Note_on_c, 10, 80, 0
6, 190080, Note_on_c, 10, 83, 116
6, 190440, Note_on_c, 10, 83, 0
6, 190440, Note_on_c, 10, 85, 116
6, 190560, Note_on_c, 10, 85, 0
6, 190560, Note_on_c, 10, 86, 116
6, 190776, Note_on_c, 10, 86, 0
6, 190920, Note_on_c, 10, 85, 116
6, 190992, Note_on_c, 10, 85, 0
6, 191040, Note_on_c, 10, 83, 116
6, 191424, Note_on_c, 10, 83, 0
6, 192000, Note_on_c, 10, 81, 116
6, 192384, Note_on_c, 10, 81, 0
6, 192480, Note_on_c, 10, 81, 116
6, 192864, Note_on_c, 10, 81, 0
6, 192960, Note_on_c, 10, 88, 116
6, 193920, Note_on_c, 10, 88, 0
6, 193920, Note_on_c, 10, 79, 116
6, 194400, Note_on_c, 10, 79, 0
6, 194400, Note_on_c, 10, 78, 116
6, 194784, Note_on_c, 10, 78, 0
6, 194880, Note_on_c, 10, 78, 116
6, 195264, Note_on_c, 10, 78, 0
6, 195360, Note_on_c, 10, 78, 116
6, 195744, Note_on_c, 10, 78, 0
6, 195840, Note_on_c, 10, 86, 116
6, 196800, Note_on_c, 10, 86, 0
6, 196800, Note_on_c, 10, 78, 116
6, 197280, Note_on_c, 10, 78, 0
6, 197280, Note_on_c, 10, 76, 116
6, 197664, Note_on_c, 10, 76, 0
6, 197760, Note_on_c, 10, 76, 116
6, 198144, Note_on_c, 10, 76, 0
6, 198240, Note_on_c, 10, 76, 116
6, 198624, Note_on_c, 10, 76, 0
6, 198720, Note_on_c, 10, 85, 116
6, 199680, Note_on_c, 10, 85, 0
6, 199680, Note_on_c, 10, 76, 116
6, 200160, Note_on_c, 10, 76, 0
6, 200160, Note_on_c, 10, 74, 116
6, 200544, Note_on_c, 10, 74, 0
6, 200640, Note_on_c, 10, 83, 116
6, 200928, Note_on_c, 10, 83, 0
6, 201000, Note_on_c, 10, 74, 116
6, 201096, Note_on_c, 10, 74, 0
6, 201120, Note_on_c, 10, 73, 116
6, 201504, Note_on_c, 10, 73, 0
6, 201600, Note_on_c, 10, 81, 116
6, 201864, Note_on_c, 10, 81, 0
6, 202080, Note_on_c, 10, 71, 116
6, 202560, Note_on_c, 10, 71, 0
6, 202560, Note_on_c, 10, 80, 116
6, 202944, Note_on_c, 10, 80, 0
6, 203520, Note_on_c, 10, 69, 70
6, 203904, Note_on_c, 10, 69, 0
6, 204000, Note_on_c, 10, 69, 70
6, 204384, Note_on_c, 10, 69, 0
6, 204480, Note_on_c, 10, 76, 70
6, 205440, Note_on_c, 10, 76, 0
6, 205440, Note_on_c, 10, 67, 70
6, 205920, Note_on_c, 10, 67, 0
6, 206400, Note_on_c, 10, 66, 70
6, 206784, Note_on_c, 10, 66, 0
6, 206880, Note_on_c, 10, 66, 70
6, 207264, Note_on_c, 10, 66, 0
6, 207360, Note_on_c, 10, 74, 70
6, 208320, Note_on_c, 10, 74, 0
6, 208320, Note_on_c, 10, 66, 70
6, 208800, Note_on_c, 10, 66, 0
6, 209280, Note_on_c, 10, 64, 70
6, 209664, Note_on_c, 10, 64, 0
6, 209760, Note_on_c, 10, 64, 70
6, 210144, Note_on_c, 10, 64, 0
6, 210240, Note_on_c, 10, 73, 70
6, 211200, Note_on_c, 10, 73, 0
6, 211200, Note_on_c, 10, 64, 70
6, 211680, Note_on_c, 10, 64, 0
6, 211680, Note_on_c, 10, 62, 70
6, 211680, Note_on_c, 10, 71, 70
6, 212040, Note_on_c, 10, 71, 0
6, 212040, Note_on_c, 10, 62, 0
6, 213120, Note_on_c, 10, 59, 70
6, 213120, Note_on_c, 10, 68, 70
6, 213480, Note_on_c, 10, 68, 0
6, 213480, Note_on_c, 10, 59, 0
6, 214560, Note_on_c, 10, 69, 92
6, 214656, Note_on_c, 10, 69, 0
6, 214680, Note_on_c, 10, 69, 92
6, 214776, Note_on_c, 10, 69, 0
6, 214800, Note_on_c, 10, 69, 92
6, 214896, Note_on_c, 10, 69, 0
6, 214920, Note_on_c, 10, 69, 92
6, 215016, Note_on_c, 10, 69, 0
6, 215040, Note_on_c, 10, 73, 92
6, 215136, Note_on_c, 10, 73, 0
6, 215160, Note_on_c, 10, 73, 92
6, 215256, Note_on_c, 10, 73, 0
6, 215280, Note_on_c, 10, 73, 92
6, 215376, Note_on_c, 10, 73, 0
6, 215400, Note_on_c, 10, 73, 92
6, 215496, Note_on_c, 10, 73, 0
6, 215520, Note_on_c, 10, 66, 92
6, 215616, Note_on_c, 10, 66, 0
6, 215640, Note_on_c, 10, 66, 92
6, 215736, Note_on_c, 10, 66, 0
6, 215760, Note_on_c, 10, 66, 92
6, 215856, Note_on_c, 10, 66, 0
6, 215880, Note_on_c, 10, 66, 92
6, 215976, Note_on_c, 10, 66, 0
6, 216000, Note_on_c, 10, 69, 92
6, 216096, Note_on_c, 10, 69, 0
6, 216120, Note_on_c, 10, 69, 92
6, 216216, Note_on_c, 10, 69, 0
6, 216240, Note_on_c, 10, 69, 92
6, 216336, Note_on_c, 10, 69, 0
6, 216360, Note_on_c, 10, 69, 92
6, 216456, Note_on_c, 10, 69, 0
6, 216480, Note_on_c, 10, 63, 92
6, 216576, Note_on_c, 10, 63, 0
6, 216600, Note_on_c, 10, 63, 92
6, 216696, Note_on_c, 10, 63, 0
6, 216720, Note_on_c, 10, 63, 92
6, 216816, Note_on_c, 10, 63, 0
6, 216840, Note_on_c, 10, 63, 92
6, 216936, Note_on_c, 10, 63, 0
6, 216960, Note_on_c, 10, 66, 92
6, 217056, Note_on_c, 10, 66, 0
6, 217080, Note_on_c, 10, 66, 92
6, 217176, Note_on_c, 10, 66, 0
6, 217200, Note_on_c, 10, 66, 92
6, 217296, Note_on_c, 10, 66, 0
6, 217320, Note_on_c, 10, 66, 92
6, 217416, Note_on_c, 10, 66, 0
6, 217440, Note_on_c, 10, 64, 105
6, 217536, Note_on_c, 10, 64, 0
6, 217560, Note_on_c, 10, 73, 105
6, 217560, Note_on_c, 10, 81, 105
6, 217656, Note_on_c, 10, 81, 0
6, 217656, Note_on_c, 10, 73, 0
6, 217680, Note_on_c, 10, 73, 105
6, 217680, Note_on_c, 10, 81, 105
6, 217776, Note_on_c, 10, 81, 0
6, 217776, Note_on_c, 10, 73, 0
6, 217800, Note_on_c, 10, 73, 105
6, 217800, Note_on_c, 10, 81, 105
6, 217896, Note_on_c, 10, 81, 0
6, 217896, Note_on_c, 10, 73, 0
6, 217920, Note_on_c, 10, 73, 105
6, 217920, Note_on_c, 10, 81, 105
6, 218016, Note_on_c, 10, 81, 0
6, 218016, Note_on_c, 10, 73, 0
6, 218040, Note_on_c, 10, 81, 105
6, 218040, Note_on_c, 10, 73, 105
6, 218136, Note_on_c, 10, 73, 0
6, 218136, Note_on_c, 10, 81, 0
6, 218160, Note_on_c, 10, 73, 105
6, 218160, Note_on_c, 10, 81, 105
6, 218256, Note_on_c, 10, 81, 0
6, 218256, Note_on_c, 10, 73, 0
6, 218280, Note_on_c, 10, 73, 105
6, 218280, Note_on_c, 10, 81, 105
6, 218376, Note_on_c, 10, 81, 0
6, 218376, Note_on_c, 10, 73, 0
6, 218400, Note_on_c, 10, 81, 105
6, 218400, Note_on_c, 10, 73, 105
6, 218496, Note_on_c, 10, 73, 0
6, 218496, Note_on_c, 10, 81, 0
6, 218520, Note_on_c, 10, 73, 105
6, 218520, Note_on_c, 10, 81, 105
6, 218616, Note_on_c, 10, 81, 0
6, 218616, Note_on_c, 10, 73, 0
6, 218640, Note_on_c, 10, 81, 105
6, 218640, Note_on_c, 10, 73, 105
6, 218736, Note_on_c, 10, 73, 0
6, 218736, Note_on_c, 10, 81, 0
6, 218760, Note_on_c, 10, 73, 105
6, 218760, Note_on_c, 10, 81, 105
6, 218856, Note_on_c, 10, 81, 0
6, 218856, Note_on_c, 10, 73, 0
6, 218880, Note_on_c, 10, 71, 105
6, 218880, Note_on_c, 10, 80, 105
6, 218976, Note_on_c, 10, 80, 0
6, 218976, Note_on_c, 10, 71, 0
6, 219000, Note_on_c, 10, 80, 105
6, 219000, Note_on_c, 10, 71, 105
6, 219096, Note_on_c, 10, 71, 0
6, 219096, Note_on_c, 10, 80, 0
6, 219120, Note_on_c, 10, 71, 105
6, 219120, Note_on_c, 10, 80, 105
6, 219216, Note_on_c, 10, 80, 0
6, 219216, Note_on_c, 10, 71, 0
6, 219240, Note_on_c, 10, 80, 105
6, 219240, Note_on_c, 10, 71, 105
6, 219336, Note_on_c, 10, 71, 0
6, 219336, Note_on_c, 10, 80, 0
6, 219360, Note_on_c, 10, 80, 105
6, 219360, Note_on_c, 10, 71, 105
6, 219456, Note_on_c, 10, 71, 0
6, 219456, Note_on_c, 10, 80, 0
6, 219480, Note_on_c, 10, 71, 105
6, 219480, Note_on_c, 10, 80, 105
6, 219576, Note_on_c, 10, 80, 0
6, 219576, Note_on_c, 10, 71, 0
6, 219600, Note_on_c, 10, 80, 105
6, 219600, Note_on_c, 10, 71, 105
6, 219696, Note_on_c, 10, 71, 0
6, 219696, Note_on_c, 10, 80, 0
6, 219720, Note_on_c, 10, 71, 105
6, 219720, Note_on_c, 10, 80, 105
6, 219816, Note_on_c, 10, 80, 0
6, 219816, Note_on_c, 10, 71, 0
6, 219840, Note_on_c, 10, 80, 105
6, 219840, Note_on_c, 10, 71, 105
6, 219936, Note_on_c, 10, 71, 0
6, 219936, Note_on_c, 10, 80, 0
6, 219960, Note_on_c, 10, 71, 105
6, 219960, Note_on_c, 10, 80, 105
6, 220056, Note_on_c, 10, 80, 0
6, 220056, Note_on_c, 10, 71, 0
6, 220080, Note_on_c, 10, 71, 105
6, 220080, Note_on_c, 10, 80, 105
6, 220176, Note_on_c, 10, 80, 0
6, 220176, Note_on_c, 10, 71, 0
6, 220200, Note_on_c, 10, 71, 105
6, 220200, Note_on_c, 10, 80, 105
6, 220296, Note_on_c, 10, 80, 0
6, 220296, Note_on_c, 10, 71, 0
6, 220320, Note_on_c, 10, 69, 112
6, 220560, Note_on_c, 10, 69, 0
6, 220560, Note_on_c, 10, 81, 92
6, 220704, Note_on_c, 10, 81, 0
6, 220800, Note_on_c, 10, 69, 92
6, 220944, Note_on_c, 10, 69, 0
6, 221040, Note_on_c, 10, 69, 92
6, 221184, Note_on_c, 10, 69, 0
6, 221280, Note_on_c, 10, 69, 92
6, 221424, Note_on_c, 10, 69, 0
6, 221520, Note_on_c, 10, 69, 92
6, 221664, Note_on_c, 10, 69, 0
6, 221760, Note_on_c, 10, 69, 112
6, 222000, Note_on_c, 10, 69, 0
6, 222000, Note_on_c, 10, 81, 92
6, 222144, Note_on_c, 10, 81, 0
6, 222240, Note_on_c, 10, 69, 92
6, 222384, Note_on_c, 10, 69, 0
6, 222480, Note_on_c, 10, 69, 92
6, 222624, Note_on_c, 10, 69, 0
6, 222720, Note_on_c, 10, 69, 92
6, 222864, Note_on_c, 10, 69, 0
6, 222960, Note_on_c, 10, 69, 92
6, 223104, Note_on_c, 10, 69, 0
6, 223200, Note_on_c, 10, 69, 112
6, 223440, Note_on_c, 10, 69, 0
6, 223440, Note_on_c, 10, 81, 92
6, 223584, Note_on_c, 10, 81, 0
6, 223680, Note_on_c, 10, 69, 92
6, 223824, Note_on_c, 10, 69, 0
6, 223920, Note_on_c, 10, 69, 92
6, 224064, Note_on_c, 10, 69, 0
6, 224160, Note_on_c, 10, 69, 92
6, 224304, Note_on_c, 10, 69, 0
6, 224400, Note_on_c, 10, 69, 92
6, 224544, Note_on_c, 10, 69, 0
6, 224640, Note_on_c, 10, 69, 112
6, 224928, Note_on_c, 10, 69, 0
6, 225120, Note_on_c, 10, 57, 92
6, 225408, Note_on_c, 10, 57, 0
6, 226080, Note_on_c, 10, 76, 70
6, 227448, Note_on_c, 10, 76, 0
6, 227520, Note_on_c, 10, 74, 70
6, 227880, Note_on_c, 10, 74, 0
6, 227880, Note_on_c, 10, 76, 70
6, 227976, Note_on_c, 10, 76, 0
6, 228000, Note_on_c, 10, 73, 70
6, 228360, Note_on_c, 10, 73, 0
6, 228360, Note_on_c, 10, 74, 70
6, 228456, Note_on_c, 10, 74, 0
6, 228480, Note_on_c, 10, 71, 70
6, 228864, Note_on_c, 10, 71, 0
6, 228960, Note_on_c, 10, 74, 70
6, 230328, Note_on_c, 10, 74, 0
6, 230400, Note_on_c, 10, 73, 70
6, 230760, Note_on_c, 10, 73, 0
6, 230760, Note_on_c, 10, 74, 70
6, 230856, Note_on_c, 10, 74, 0
6, 230880, Note_on_c, 10, 71, 70
6, 231240, Note_on_c, 10, 71, 0
6, 231240, Note_on_c, 10, 73, 70
6, 231336, Note_on_c, 10, 73, 0
6, 231360, Note_on_c, 10, 69, 70
6, 231744, Note_on_c, 10, 69, 0
6, 233280, Note_on_c, 10, 81, 70
6, 234648, Note_on_c, 10, 81, 0
6, 234720, Note_on_c, 10, 79, 70
6, 235080, Note_on_c, 10, 79, 0
6, 235080, Note_on_c, 10, 81, 70
6, 235176, Note_on_c, 10, 81, 0
6, 235200, Note_on_c, 10, 78, 70
6, 235560, Note_on_c, 10, 78, 0
6, 235560, Note_on_c, 10, 79, 70
6, 235656, Note_on_c, 10, 79, 0
6, 235680, Note_on_c, 10, 76, 70
6, 236064, Note_on_c, 10, 76, 0
6, 236160, Note_on_c, 10, 79, 70
6, 237528, Note_on_c, 10, 79, 0
6, 237600, Note_on_c, 10, 78, 70
6, 237960, Note_on_c, 10, 78, 0
6, 237960, Note_on_c, 10, 79, 70
6, 238056, Note_on_c, 10, 79, 0
6, 238080, Note_on_c, 10, 76, 70
6, 238440, Note_on_c, 10, 76, 0
6, 238440, Note_on_c, 10, 78, 70
6, 238536, Note_on_c, 10, 78, 0
6, 238560, Note_on_c, 10, 74, 70
6, 238944, Note_on_c, 10, 74, 0
6, 240480, Note_on_c, 10, 86, 70
6, 241848, Note_on_c, 10, 86, 0
6, 241920, Note_on_c, 10, 84, 70
6, 242280, Note_on_c, 10, 84, 0
6, 242280, Note_on_c, 10, 86, 70
6, 242376, Note_on_c, 10, 86, 0
6, 242400, Note_on_c, 10, 83, 70
6, 242760, Note_on_c, 10, 83, 0
6, 242760, Note_on_c, 10, 84, 70
6, 242856, Note_on_c, 10, 84, 0
6, 242880, Note_on_c, 10, 81, 70
6, 243264, Note_on_c, 10, 81, 0
6, 243360, Note_on_c, 10, 84, 70
6, 244728, Note_on_c, 10, 84, 0
6, 244800, Note_on_c, 10, 83, 70
6, 245160, Note_on_c, 10, 83, 0
6, 245160, Note_on_c, 10, 84, 70
6, 245256, Note_on_c, 10, 84, 0
6, 245280, Note_on_c, 10, 81, 70
6, 245640, Note_on_c, 10, 81, 0
6, 245640, Note_on_c, 10, 83, 70
6, 245736, Note_on_c, 10, 83, 0
6, 245760, Note_on_c, 10, 79, 70
6, 246144, Note_on_c, 10, 79, 0
6, 246240, Note_on_c, 10, 83, 105
6, 247608, Note_on_c, 10, 83, 0
6, 247680, Note_on_c, 10, 82, 105
6, 248040, Note_on_c, 10, 82, 0
6, 248040, Note_on_c, 10, 83, 105
6, 248136, Note_on_c, 10, 83, 0
6, 248160, Note_on_c, 10, 80, 105
6, 248520, Note_on_c, 10, 80, 0
6, 248520, Note_on_c, 10, 82, 105
6, 248616, Note_on_c, 10, 82, 0
6, 248640, Note_on_c, 10, 78, 105
6, 249024, Note_on_c, 10, 78, 0
6, 249120, Note_on_c, 10, 81, 105
6, 250488, Note_on_c, 10, 81, 0
6, 250560, Note_on_c, 10, 80, 105
6, 250920, Note_on_c, 10, 80, 0
6, 250920, Note_on_c, 10, 81, 105
6, 251016, Note_on_c, 10, 81, 0
6, 251040, Note_on_c, 10, 78, 105
6, 251400, Note_on_c, 10, 78, 0
6, 251400, Note_on_c, 10, 80, 105
6, 251496, Note_on_c, 10, 80, 0
6, 251520, Note_on_c, 10, 76, 105
6, 251904, Note_on_c, 10, 76, 0
6, 252000, Note_on_c, 10, 79, 105
6, 253368, Note_on_c, 10, 79, 0
6, 253440, Note_on_c, 10, 78, 105
6, 253800, Note_on_c, 10, 78, 0
6, 253800, Note_on_c, 10, 79, 105
6, 253896, Note_on_c, 10, 79, 0
6, 253920, Note_on_c, 10, 76, 105
6, 254280, Note_on_c, 10, 76, 0
6, 254280, Note_on_c, 10, 78, 105
6, 254376, Note_on_c, 10, 78, 0
6, 254400, Note_on_c, 10, 74, 105
6, 254784, Note_on_c, 10, 74, 0
6, 254880, Note_on_c, 10, 81, 105
6, 256248, Note_on_c, 10, 81, 0
6, 256320, Note_on_c, 10, 78, 105
6, 256680, Note_on_c, 10, 78, 0
6, 256680, Note_on_c, 10, 79, 105
6, 256776, Note_on_c, 10, 79, 0
6, 256800, Note_on_c, 10, 76, 105
6, 257160, Note_on_c, 10, 76, 0
6, 257160, Note_on_c, 10, 78, 105
6, 257256, Note_on_c, 10, 78, 0
6, 257280, Note_on_c, 10, 74, 105
6, 257664, Note_on_c, 10, 74, 0
6, 257760, Note_on_c, 10, 79, 105
6, 259200, Note_on_c, 10, 79, 0
6, 259680, Note_on_c, 10, 71, 70
6, 260160, Note_on_c, 10, 71, 0
6, 260160, Note_on_c, 10, 67, 70
6, 260640, Note_on_c, 10, 67, 0
6, 260640, Note_on_c, 10, 66, 70
6, 261120, Note_on_c, 10, 66, 0
6, 261120, Note_on_c, 10, 64, 70
6, 261600, Note_on_c, 10, 64, 0
6, 261600, Note_on_c, 10, 64, 70
6, 262560, Note_on_c, 10, 64, 0
6, 262560, Note_on_c, 10, 66, 70
6, 262800, Note_on_c, 10, 66, 0
6, 262800, Note_on_c, 10, 64, 70
6, 263040, Note_on_c, 10, 64, 0
6, 263040, Note_on_c, 10, 66, 70
6, 263280, Note_on_c, 10, 66, 0
6, 263280, Note_on_c, 10, 64, 70
6, 263520, Note_on_c, 10, 64, 0
6, 263520, Note_on_c, 10, 64, 70
6, 264480, Note_on_c, 10, 64, 0
6, 264480, Note_on_c, 10, 69, 70
6, 264960, Note_on_c, 10, 69, 0
6, 265200, Note_on_c, 10, 70, 70
6, 265440, Note_on_c, 10, 70, 0
6, 265440, Note_on_c, 10, 71, 70
6, 265584, Note_on_c, 10, 71, 0
6, 265680, Note_on_c, 10, 66, 70
6, 265920, Note_on_c, 10, 66, 0
6, 265920, Note_on_c, 10, 67, 70
6, 266064, Note_on_c, 10, 67, 0
6, 266160, Note_on_c, 10, 63, 70
6, 266400, Note_on_c, 10, 63, 0
6, 266400, Note_on_c, 10, 66, 70
6, 266640, Note_on_c, 10, 66, 0
6, 266640, Note_on_c, 10, 64, 70
6, 266880, Note_on_c, 10, 64, 0
6, 266880, Note_on_c, 10, 64, 70
6, 267360, Note_on_c, 10, 64, 0
6, 267360, Note_on_c, 10, 64, 70
6, 268224, Note_on_c, 10, 64, 0
6, 268320, Note_on_c, 10, 66, 70
6, 268560, Note_on_c, 10, 66, 0
6, 268560, Note_on_c, 10, 64, 70
6, 268800, Note_on_c, 10, 64, 0
6, 268800, Note_on_c, 10, 66, 70
6, 269040, Note_on_c, 10, 66, 0
6, 269040, Note_on_c, 10, 64, 70
6, 269280, Note_on_c, 10, 64, 0
6, 269280, Note_on_c, 10, 64, 70
6, 270240, Note_on_c, 10, 64, 0
6, 270240, Note_on_c, 10, 57, 70
6, 270720, Note_on_c, 10, 57, 0
6, 271200, Note_on_c, 10, 71, 70
6, 271440, Note_on_c, 10, 71, 0
6, 271440, Note_on_c, 10, 69, 70
6, 271680, Note_on_c, 10, 69, 0
6, 271680, Note_on_c, 10, 73, 70
6, 271920, Note_on_c, 10, 73, 0
6, 271920, Note_on_c, 10, 71, 70
6, 272160, Note_on_c, 10, 71, 0
6, 272160, Note_on_c, 10, 74, 70
6, 272400, Note_on_c, 10, 74, 0
6, 272400, Note_on_c, 10, 73, 70
6, 272640, Note_on_c, 10, 73, 0
6, 272640, Note_on_c, 10, 76, 70
6, 272880, Note_on_c, 10, 76, 0
6, 272880, Note_on_c, 10, 74, 70
6, 273120, Note_on_c, 10, 74, 0
6, 273120, Note_on_c, 10, 78, 70
6, 273360, Note_on_c, 10, 78, 0
6, 273360, Note_on_c, 10, 76, 70
6, 273600, Note_on_c, 10, 76, 0
6, 273600, Note_on_c, 10, 79, 70
6, 273840, Note_on_c, 10, 79, 0
6, 273840, Note_on_c, 10, 78, 70
6, 274080, Note_on_c, 10, 78, 0
6, 274080, Note_on_c, 10, 81, 70
6, 274320, Note_on_c, 10, 81, 0
6, 274320, Note_on_c, 10, 79, 70
6, 274560, Note_on_c, 10, 79, 0
6, 274560, Note_on_c, 10, 78, 70
6, 274800, Note_on_c, 10, 78, 0
6, 274800, Note_on_c, 10, 76, 70
6, 274992, Note_on_c, 10, 76, 0
6, 275040, Note_on_c, 10, 62, 105
6, 275040, Note_on_c, 10, 86, 105
6, 275040, Note_on_c, 10, 74, 105
6, 275328, Note_on_c, 10, 74, 0
6, 275328, Note_on_c, 10, 86, 0
6, 275328, Note_on_c, 10, 62, 0
6, 275400, Note_on_c, 10, 74, 105
6, 275400, Note_on_c, 10, 86, 105
6, 275496, Note_on_c, 10, 86, 0
6, 275496, Note_on_c, 10, 74, 0
6, 275520, Note_on_c, 10, 86, 105
6, 275520, Note_on_c, 10, 74, 105
6, 275904, Note_on_c, 10, 74, 0
6, 275904, Note_on_c, 10, 86, 0
6, 276480, Note_on_c, 10, 81, 105
6, 276480, Note_on_c, 10, 69, 105
6, 276768, Note_on_c, 10, 69, 0
6, 276768, Note_on_c, 10, 81, 0
6, 276840, Note_on_c, 10, 69, 105
6, 276840, Note_on_c, 10, 81, 105
6, 276936, Note_on_c, 10, 81, 0
6, 276936, Note_on_c, 10, 69, 0
6, 276960, Note_on_c, 10, 69, 105
6, 276960, Note_on_c, 10, 81, 105
6, 277344, Note_on_c, 10, 81, 0
6, 277344, Note_on_c, 10, 69, 0
6, 277920, Note_on_c, 10, 79, 105
6, 278208, Note_on_c, 10, 79, 0
6, 278400, Note_on_c, 10, 78, 105
6, 278688, Note_on_c, 10, 78, 0
6, 278880, Note_on_c, 10, 76, 105
6, 279168, Note_on_c, 10, 76, 0
6, 279360, Note_on_c, 10, 74, 105
6, 279420, Note_on_c, 10, 74, 0
6, 279420, Note_on_c, 10, 73, 105
6, 279480, Note_on_c, 10, 73, 0
6, 279480, Note_on_c, 10, 74, 105
6, 279540, Note_on_c, 10, 74, 0
6, 279540, Note_on_c, 10, 73, 105
6, 279600, Note_on_c, 10, 73, 0
6, 279600, Note_on_c, 10, 74, 105
6, 279660, Note_on_c, 10, 74, 0
6, 279660, Note_on_c, 10, 73, 105
6, 279720, Note_on_c, 10, 73, 0
6, 279720, Note_on_c, 10, 71, 105
6, 279780, Note_on_c, 10, 71, 0
6, 279780, Note_on_c, 10, 73, 105
6, 279840, Note_on_c, 10, 73, 0
6, 279840, Note_on_c, 10, 74, 105
6, 280224, Note_on_c, 10, 74, 0
6, 280800, Note_on_c, 10, 86, 127
6, 281040, Note_on_c, 10, 86, 0
6, 281040, Note_on_c, 10, 85, 80
6, 281280, Note_on_c, 10, 85, 0
6, 281280, Note_on_c, 10, 83, 80
6, 281520, Note_on_c, 10, 83, 0
6, 281520, Note_on_c, 10, 81, 80
6, 281712, Note_on_c, 10, 81, 0
6, 281760, Note_on_c, 10, 81, 80
6, 281904, Note_on_c, 10, 81, 0
6, 282000, Note_on_c, 10, 81, 80
6, 282144, Note_on_c, 10, 81, 0
6, 282240, Note_on_c, 10, 83, 120
6, 282480, Note_on_c, 10, 83, 0
6, 282480, Note_on_c, 10, 81, 80
6, 282720, Note_on_c, 10, 81, 0
6, 282720, Note_on_c, 10, 79, 80
6, 282960, Note_on_c, 10, 79, 0
6, 282960, Note_on_c, 10, 78, 80
6, 283152, Note_on_c, 10, 78, 0
6, 283200, Note_on_c, 10, 78, 80
6, 283344, Note_on_c, 10, 78, 0
6, 283440, Note_on_c, 10, 78, 80
6, 283584, Note_on_c, 10, 78, 0
6, 283680, Note_on_c, 10, 81, 105
6, 283800, Note_on_c, 10, 81, 0
6, 283800, Note_on_c, 10, 79, 105
6, 284034, Note_on_c, 10, 79, 0
6, 284160, Note_on_c, 10, 78, 105
6, 284472, Note_on_c, 10, 78, 0
6, 284640, Note_on_c, 10, 76, 105
6, 284952, Note_on_c, 10, 76, 0
6, 285120, Note_on_c, 10, 74, 105
6, 285240, Note_on_c, 10, 74, 0
6, 285240, Note_on_c, 10, 73, 105
6, 285360, Note_on_c, 10, 73, 0
6, 285360, Note_on_c, 10, 71, 105
6, 285480, Note_on_c, 10, 71, 0
6, 285480, Note_on_c, 10, 69, 105
6, 285576, Note_on_c, 10, 69, 0
6, 285600, Note_on_c, 10, 74, 105
6, 285720, Note_on_c, 10, 74, 0
6, 285720, Note_on_c, 10, 73, 105
6, 285840, Note_on_c, 10, 73, 0
6, 285840, Note_on_c, 10, 71, 105
6, 285960, Note_on_c, 10, 71, 0
6, 285960, Note_on_c, 10, 69, 105
6, 286056, Note_on_c, 10, 69, 0
6, 286080, Note_on_c, 10, 74, 105
6, 286464, Note_on_c, 10, 74, 0
6, 286560, Note_on_c, 10, 86, 105
6, 286800, Note_on_c, 10, 86, 0
6, 286800, Note_on_c, 10, 84, 105
6, 287040, Note_on_c, 10, 84, 0
6, 287040, Note_on_c, 10, 83, 105
6, 287280, Note_on_c, 10, 83, 0
6, 287280, Note_on_c, 10, 81, 105
6, 287472, Note_on_c, 10, 81, 0
6, 287520, Note_on_c, 10, 81, 105
6, 287664, Note_on_c, 10, 81, 0
6, 287760, Note_on_c, 10, 81, 105
6, 287904, Note_on_c, 10, 81, 0
6, 288000, Note_on_c, 10, 84, 105
6, 288240, Note_on_c, 10, 84, 0
6, 288240, Note_on_c, 10, 83, 105
6, 288480, Note_on_c, 10, 83, 0
6, 288480, Note_on_c, 10, 81, 105
6, 288720, Note_on_c, 10, 81, 0
6, 288720, Note_on_c, 10, 79, 105
6, 288912, Note_on_c, 10, 79, 0
6, 288960, Note_on_c, 10, 79, 105
6, 289104, Note_on_c, 10, 79, 0
6, 289200, Note_on_c, 10, 79, 105
6, 289344, Note_on_c, 10, 79, 0
6, 289440, Note_on_c, 10, 83, 105
6, 289680, Note_on_c, 10, 83, 0
6, 289680, Note_on_c, 10, 81, 105
6, 289920, Note_on_c, 10, 81, 0
6, 289920, Note_on_c, 10, 79, 105
6, 290160, Note_on_c, 10, 79, 0
6, 290160, Note_on_c, 10, 78, 105
6, 290352, Note_on_c, 10, 78, 0
6, 290400, Note_on_c, 10, 78, 105
6, 290544, Note_on_c, 10, 78, 0
6, 290640, Note_on_c, 10, 78, 105
6, 290784, Note_on_c, 10, 78, 0
6, 290880, Note_on_c, 10, 81, 105
6, 291120, Note_on_c, 10, 81, 0
6, 291120, Note_on_c, 10, 79, 105
6, 291360, Note_on_c, 10, 79, 0
6, 291360, Note_on_c, 10, 78, 105
6, 291600, Note_on_c, 10, 78, 0
6, 291600, Note_on_c, 10, 76, 105
6, 291792, Note_on_c, 10, 76, 0
6, 291840, Note_on_c, 10, 76, 105
6, 291984, Note_on_c, 10, 76, 0
6, 292080, Note_on_c, 10, 76, 105
6, 292224, Note_on_c, 10, 76, 0
6, 292320, Note_on_c, 10, 81, 105
6, 292560, Note_on_c, 10, 81, 0
6, 292560, Note_on_c, 10, 79, 105
6, 292800, Note_on_c, 10, 79, 0
6, 292800, Note_on_c, 10, 78, 105
6, 293040, Note_on_c, 10, 78, 0
6, 293040, Note_on_c, 10, 76, 105
6, 293232, Note_on_c, 10, 76, 0
6, 293280, Note_on_c, 10, 76, 105
6, 293424, Note_on_c, 10, 76, 0
6, 293520, Note_on_c, 10, 76, 105
6, 293664, Note_on_c, 10, 76, 0
6, 293760, Note_on_c, 10, 79, 105
6, 294000, Note_on_c, 10, 79, 0
6, 294000, Note_on_c, 10, 78, 105
6, 294240, Note_on_c, 10, 78, 0
6, 294240, Note_on_c, 10, 76, 105
6, 294480, Note_on_c, 10, 76, 0
6, 294480, Note_on_c, 10, 74, 105
6, 294672, Note_on_c, 10, 74, 0
6, 294720, Note_on_c, 10, 74, 105
6, 294864, Note_on_c, 10, 74, 0
6, 294960, Note_on_c, 10, 74, 105
6, 295104, Note_on_c, 10, 74, 0
6, 295200, Note_on_c, 10, 76, 105
6, 295296, Note_on_c, 10, 76, 0
6, 295320, Note_on_c, 10, 76, 105
6, 295416, Note_on_c, 10, 76, 0
6, 295440, Note_on_c, 10, 76, 105
6, 295536, Note_on_c, 10, 76, 0
6, 295560, Note_on_c, 10, 76, 105
6, 295656, Note_on_c, 10, 76, 0
6, 295680, Note_on_c, 10, 83, 105
6, 295776, Note_on_c, 10, 83, 0
6, 295800, Note_on_c, 10, 83, 105
6, 295896, Note_on_c, 10, 83, 0
6, 295920, Note_on_c, 10, 83, 105
6, 296016, Note_on_c, 10, 83, 0
6, 296040, Note_on_c, 10, 83, 105
6, 296136, Note_on_c, 10, 83, 0
6, 296160, Note_on_c, 10, 74, 105
6, 296256, Note_on_c, 10, 74, 0
6, 296280, Note_on_c, 10, 74, 105
6, 296376, Note_on_c, 10, 74, 0
6, 296400, Note_on_c, 10, 74, 105
6, 296496, Note_on_c, 10, 74, 0
6, 296520, Note_on_c, 10, 74, 105
6, 296616, Note_on_c, 10, 74, 0
6, 296640, Note_on_c, 10, 73, 105
6, 297024, Note_on_c, 10, 73, 0
6, 297360, Note_on_c, 10, 69, 116
6, 297552, Note_on_c, 10, 69, 0
6, 297600, Note_on_c, 10, 73, 116
6, 297792, Note_on_c, 10, 73, 0
6, 297840, Note_on_c, 10, 76, 116
6, 298032, Note_on_c, 10, 76, 0
6, 298080, Note_on_c, 10, 79, 116
6, 298464, Note_on_c, 10, 79, 0
6, 298800, Note_on_c, 10, 73, 116
6, 298992, Note_on_c, 10, 73, 0
6, 299040, Note_on_c, 10, 76, 116
6, 299232, Note_on_c, 10, 76, 0
6, 299280, Note_on_c, 10, 69, 116
6, 299472, Note_on_c, 10, 69, 0
6, 299520, Note_on_c, 10, 81, 116
6, 299904, Note_on_c, 10, 81, 0
6, 300240, Note_on_c, 10, 69, 116
6, 300432, Note_on_c, 10, 69, 0
6, 300480, Note_on_c, 10, 74, 116
6, 300672, Note_on_c, 10, 74, 0
6, 300720, Note_on_c, 10, 78, 116
6, 300912, Note_on_c, 10, 78, 0
6, 300960, Note_on_c, 10, 81, 116
6, 301344, Note_on_c, 10, 81, 0
6, 301680, Note_on_c, 10, 81, 116
6, 301872, Note_on_c, 10, 81, 0
6, 301920, Note_on_c, 10, 86, 116
6, 302112, Note_on_c, 10, 86, 0
6, 302160, Note_on_c, 10, 78, 116
6, 302352, Note_on_c, 10, 78, 0
6, 302400, Note_on_c, 10, 79, 116
6, 302784, Note_on_c, 10, 79, 0
6, 303120, Note_on_c, 10, 69, 116
6, 303312, Note_on_c, 10, 69, 0
6, 303360, Note_on_c, 10, 73, 116
6, 303552, Note_on_c, 10, 73, 0
6, 303600, Note_on_c, 10, 76, 116
6, 303792, Note_on_c, 10, 76, 0
6, 303840, Note_on_c, 10, 79, 116
6, 304224, Note_on_c, 10, 79, 0
6, 304560, Note_on_c, 10, 85, 116
6, 304752, Note_on_c, 10, 85, 0
6, 304800, Note_on_c, 10, 88, 116
6, 304992, Note_on_c, 10, 88, 0
6, 305040, Note_on_c, 10, 79, 116
6, 305232, Note_on_c, 10, 79, 0
6, 305280, Note_on_c, 10, 78, 116
6, 305664, Note_on_c, 10, 78, 0
6, 306000, Note_on_c, 10, 66, 116
6, 306192, Note_on_c, 10, 66, 0
6, 306240, Note_on_c, 10, 71, 116
6, 306432, Note_on_c, 10, 71, 0
6, 306480, Note_on_c, 10, 62, 116
6, 306672, Note_on_c, 10, 62, 0
6, 306720, Note_on_c, 10, 61, 116
6, 307104, Note_on_c, 10, 61, 0
6, 307440, Note_on_c, 10, 71, 70
6, 307632, Note_on_c, 10, 71, 0
6, 307680, Note_on_c, 10, 76, 70
6, 307872, Note_on_c, 10, 76, 0
6, 307920, Note_on_c, 10, 67, 70
6, 308112, Note_on_c, 10, 67, 0
6, 308160, Note_on_c, 10, 66, 70
6, 308544, Note_on_c, 10, 66, 0
6, 308880, Note_on_c, 10, 66, 116
6, 309072, Note_on_c, 10, 66, 0
6, 309120, Note_on_c, 10, 71, 116
6, 309312, Note_on_c, 10, 71, 0
6, 309360, Note_on_c, 10, 62, 116
6, 309552, Note_on_c, 10, 62, 0
6, 309600, Note_on_c, 10, 61, 116
6, 309984, Note_on_c, 10, 61, 0
6, 310320, Note_on_c, 10, 71, 70
6, 310512, Note_on_c, 10, 71, 0
6, 310560, Note_on_c, 10, 76, 70
6, 310752, Note_on_c, 10, 76, 0
6, 310800, Note_on_c, 10, 67, 70
6, 310992, Note_on_c, 10, 67, 0
6, 311040, Note_on_c, 10, 66, 70
6, 311424, Note_on_c, 10, 66, 0
6, 311760, Note_on_c, 10, 66, 116
6, 311952, Note_on_c, 10, 66, 0
6, 312000, Note_on_c, 10, 71, 116
6, 312192, Note_on_c, 10, 71, 0
6, 312240, Note_on_c, 10, 62, 116
6, 312432, Note_on_c, 10, 62, 0
6, 312480, Note_on_c, 10, 61, 116
6, 312864, Note_on_c, 10, 61, 0
6, 313200, Note_on_c, 10, 85, 116
6, 313392, Note_on_c, 10, 85, 0
6, 313440, Note_on_c, 10, 86, 116
6, 313632, Note_on_c, 10, 86, 0
6, 313680, Note_on_c, 10, 78, 116
6, 313872, Note_on_c, 10, 78, 0
6, 313920, Note_on_c, 10, 76, 116
6, 314304, Note_on_c, 10, 76, 0
6, 314640, Note_on_c, 10, 85, 116
6, 314832, Note_on_c, 10, 85, 0
6, 314880, Note_on_c, 10, 86, 116
6, 315072, Note_on_c, 10, 86, 0
6, 315120, Note_on_c, 10, 78, 116
6, 315312, Note_on_c, 10, 78, 0
6, 315360, Note_on_c, 10, 76, 116
6, 315672, Note_on_c, 10, 76, 0
6, 315840, Note_on_c, 10, 69, 116
6, 315900, Note_on_c, 10, 69, 0
6, 315900, Note_on_c, 10, 68, 116
6, 315960, Note_on_c, 10, 68, 0
6, 315960, Note_on_c, 10, 69, 116
6, 316020, Note_on_c, 10, 69, 0
6, 316020, Note_on_c, 10, 68, 116
6, 316080, Note_on_c, 10, 68, 0
6, 316080, Note_on_c, 10, 69, 116
6, 316140, Note_on_c, 10, 69, 0
6, 316140, Note_on_c, 10, 68, 116
6, 316200, Note_on_c, 10, 68, 0
6, 316200, Note_on_c, 10, 69, 116
6, 316260, Note_on_c, 10, 69, 0
6, 316260, Note_on_c, 10, 68, 116
6, 316320, Note_on_c, 10, 68, 0
6, 316320, Note_on_c, 10, 69, 116
6, 316380, Note_on_c, 10, 69, 0
6, 316380, Note_on_c, 10, 68, 116
6, 316440, Note_on_c, 10, 68, 0
6, 316440, Note_on_c, 10, 69, 116
6, 316500, Note_on_c, 10, 69, 0
6, 316500, Note_on_c, 10, 68, 116
6, 316560, Note_on_c, 10, 68, 0
6, 316560, Note_on_c, 10, 66, 116
6, 316680, Note_on_c, 10, 66, 0
6, 316680, Note_on_c, 10, 68, 116
6, 316800, Note_on_c, 10, 68, 0
6, 316800, Note_on_c, 10, 69, 116
6, 317088, Note_on_c, 10, 69, 0
6, 317280, Note_on_c, 10, 57, 92
6, 317568, Note_on_c, 10, 57, 0
6, 318240, Note_on_c, 10, 69, 80
6, 319560, Note_on_c, 10, 69, 0
6, 319560, Note_on_c, 10, 71, 80
6, 319656, Note_on_c, 10, 71, 0
6, 319680, Note_on_c, 10, 62, 80
6, 320640, Note_on_c, 10, 62, 0
6, 320640, Note_on_c, 10, 61, 80
6, 321120, Note_on_c, 10, 61, 0
6, 321120, Note_on_c, 10, 62, 80
6, 321360, Note_on_c, 10, 62, 0
6, 321360, Note_on_c, 10, 66, 80
6, 321600, Note_on_c, 10, 66, 0
6, 321600, Note_on_c, 10, 69, 80
6, 321840, Note_on_c, 10, 69, 0
6, 321840, Note_on_c, 10, 74, 80
6, 322080, Note_on_c, 10, 74, 0
6, 322080, Note_on_c, 10, 78, 80
6, 322320, Note_on_c, 10, 78, 0
6, 322320, Note_on_c, 10, 74, 80
6, 322560, Note_on_c, 10, 74, 0
6, 322560, Note_on_c, 10, 69, 80
6, 322944, Note_on_c, 10, 69, 0
6, 324000, Note_on_c, 10, 62, 80
6, 324120, Note_on_c, 10, 62, 0
6, 324120, Note_on_c, 10, 66, 80
6, 324408, Note_on_c, 10, 66, 0
6, 324480, Note_on_c, 10, 69, 80
6, 324600, Note_on_c, 10, 69, 0
6, 324600, Note_on_c, 10, 74, 80
6, 324888, Note_on_c, 10, 74, 0
6, 324960, Note_on_c, 10, 78, 80
6, 325080, Note_on_c, 10, 78, 0
6, 325080, Note_on_c, 10, 74, 80
6, 325368, Note_on_c, 10, 74, 0
6, 325440, Note_on_c, 10, 69, 70
6, 325824, Note_on_c, 10, 69, 0
6, 326880, Note_on_c, 10, 71, 80
6, 327600, Note_on_c, 10, 71, 0
6, 327600, Note_on_c, 10, 73, 80
6, 327792, Note_on_c, 10, 73, 0
6, 327840, Note_on_c, 10, 74, 80
6, 328128, Note_on_c, 10, 74, 0
6, 328320, Note_on_c, 10, 74, 80
6, 328440, Note_on_c, 10, 74, 0
6, 328440, Note_on_c, 10, 69, 80
6, 329280, Note_on_c, 10, 69, 0
6, 329280, Note_on_c, 10, 71, 80
6, 329760, Note_on_c, 10, 71, 0
6, 329760, Note_on_c, 10, 71, 80
6, 329880, Note_on_c, 10, 71, 0
6, 329880, Note_on_c, 10, 62, 80
6, 330720, Note_on_c, 10, 62, 0
6, 330720, Note_on_c, 10, 66, 80
6, 330780, Note_on_c, 10, 66, 0
6, 330780, Note_on_c, 10, 64, 80
6, 330840, Note_on_c, 10, 64, 0
6, 330840, Note_on_c, 10, 66, 80
6, 330900, Note_on_c, 10, 66, 0
6, 330900, Note_on_c, 10, 64, 80
6, 330960, Note_on_c, 10, 64, 0
6, 330960, Note_on_c, 10, 66, 80
6, 331020, Note_on_c, 10, 66, 0
6, 331020, Note_on_c, 10, 64, 80
6, 331080, Note_on_c, 10, 64, 0
6, 331080, Note_on_c, 10, 62, 80
6, 331140, Note_on_c, 10, 62, 0
6, 331140, Note_on_c, 10, 64, 80
6, 331200, Note_on_c, 10, 64, 0
6, 331200, Note_on_c, 10, 62, 70
6, 331584, Note_on_c, 10, 62, 0
6, 332640, Note_on_c, 10, 81, 80
6, 333960, Note_on_c, 10, 81, 0
6, 333960, Note_on_c, 10, 83, 80
6, 334080, Note_on_c, 10, 83, 0
6, 334080, Note_on_c, 10, 74, 80
6, 335040, Note_on_c, 10, 74, 0
6, 335040, Note_on_c, 10, 73, 80
6, 335520, Note_on_c, 10, 73, 0
6, 335520, Note_on_c, 10, 69, 80
6, 335760, Note_on_c, 10, 69, 0
6, 335760, Note_on_c, 10, 78, 80
6, 336000, Note_on_c, 10, 78, 0
6, 336000, Note_on_c, 10, 74, 80
6, 336240, Note_on_c, 10, 74, 0
6, 336240, Note_on_c, 10, 81, 80
6, 336480, Note_on_c, 10, 81, 0
6, 336480, Note_on_c, 10, 78, 80
6, 336720, Note_on_c, 10, 78, 0
6, 336720, Note_on_c, 10, 86, 80
6, 336960, Note_on_c, 10, 86, 0
6, 336960, Note_on_c, 10, 81, 70
6, 337344, Note_on_c, 10, 81, 0
6, 338400, Note_on_c, 10, 69, 70
6, 338520, Note_on_c, 10, 69, 0
6, 338520, Note_on_c, 10, 78, 80
6, 338808, Note_on_c, 10, 78, 0
6, 338880, Note_on_c, 10, 74, 80
6, 339000, Note_on_c, 10, 74, 0
6, 339000, Note_on_c, 10, 81, 80
6, 339288, Note_on_c, 10, 81, 0
6, 339360, Note_on_c, 10, 78, 80
6, 339480, Note_on_c, 10, 78, 0
6, 339480, Note_on_c, 10, 86, 80
6, 339768, Note_on_c, 10, 86, 0
6, 339840, Note_on_c, 10, 81, 70
6, 340224, Note_on_c, 10, 81, 0
6, 341280, Note_on_c, 10, 83, 70
6, 342000, Note_on_c, 10, 83, 0
6, 342000, Note_on_c, 10, 85, 70
6, 342192, Note_on_c, 10, 85, 0
6, 342240, Note_on_c, 10, 86, 70
6, 342528, Note_on_c, 10, 86, 0
6, 342720, Note_on_c, 10, 86, 70
6, 342840, Note_on_c, 10, 86, 0
6, 342840, Note_on_c, 10, 74, 70
6, 343656, Note_on_c, 10, 74, 0
6, 343680, Note_on_c, 10, 86, 70
6, 343800, Note_on_c, 10, 86, 0
6, 343800, Note_on_c, 10, 76, 70
6, 344616, Note_on_c, 10, 76, 0
6, 344640, Note_on_c, 10, 86, 70
6, 344760, Note_on_c, 10, 86, 0
6, 344760, Note_on_c, 10, 77, 70
6, 345576, Note_on_c, 10, 77, 0
6, 345600, Note_on_c, 10, 86, 70
6, 345720, Note_on_c, 10, 86, 0
6, 345720, Note_on_c, 10, 78, 70
6, 346008, Note_on_c, 10, 78, 0
6, 346080, Note_on_c, 10, 86, 70
6, 346200, Note_on_c, 10, 86, 0
6, 346200, Note_on_c, 10, 79, 70
6, 346488, Note_on_c, 10, 79, 0
6, 346560, Note_on_c, 10, 86, 70
6, 346680, Note_on_c, 10, 86, 0
6, 346680, Note_on_c, 10, 80, 70
6, 346968, Note_on_c, 10, 80, 0
6, 347040, Note_on_c, 10, 86, 70
6, 347160, Note_on_c, 10, 86, 0
6, 347160, Note_on_c, 10, 81, 70
6, 347448, Note_on_c, 10, 81, 0
6, 347520, Note_on_c, 10, 86, 70
6, 347640, Note_on_c, 10, 86, 0
6, 347640, Note_on_c, 10, 82, 70
6, 347928, Note_on_c, 10, 82, 0
6, 348000, Note_on_c, 10, 86, 70
6, 348120, Note_on_c, 10, 86, 0
6, 348120, Note_on_c, 10, 83, 70
6, 348408, Note_on_c, 10, 83, 0
6, 348720, Note_on_c, 10, 86, 80
6, 348864, Note_on_c, 10, 86, 0
6, 348960, Note_on_c, 10, 85, 80
6, 349104, Note_on_c, 10, 85, 0
6, 349200, Note_on_c, 10, 83, 80
6, 349344, Note_on_c, 10, 83, 0
6, 349440, Note_on_c, 10, 81, 80
6, 349584, Note_on_c, 10, 81, 0
6, 349680, Note_on_c, 10, 79, 80
6, 349824, Note_on_c, 10, 79, 0
6, 349920, Note_on_c, 10, 78, 80
6, 350160, Note_on_c, 10, 78, 0
6, 350160, Note_on_c, 10, 79, 80
6, 350400, Note_on_c, 10, 79, 0
6, 350400, Note_on_c, 10, 80, 80
6, 350640, Note_on_c, 10, 80, 0
6, 350640, Note_on_c, 10, 81, 80
6, 350880, Note_on_c, 10, 81, 0
6, 350880, Note_on_c, 10, 82, 80
6, 351120, Note_on_c, 10, 82, 0
6, 351120, Note_on_c, 10, 83, 80
6, 351264, Note_on_c, 10, 83, 0
6, 351360, Note_on_c, 10, 83, 80
6, 351480, Note_on_c, 10, 83, 0
6, 351480, Note_on_c, 10, 74, 80
6, 352320, Note_on_c, 10, 74, 0
6, 352320, Note_on_c, 10, 78, 80
6, 352380, Note_on_c, 10, 78, 0
6, 352380, Note_on_c, 10, 76, 80
6, 352440, Note_on_c, 10, 76, 0
6, 352440, Note_on_c, 10, 78, 80
6, 352500, Note_on_c, 10, 78, 0
6, 352500, Note_on_c, 10, 76, 80
6, 352560, Note_on_c, 10, 76, 0
6, 352560, Note_on_c, 10, 78, 80
6, 352620, Note_on_c, 10, 78, 0
6, 352620, Note_on_c, 10, 76, 80
6, 352680, Note_on_c, 10, 76, 0
6, 352680, Note_on_c, 10, 74, 80
6, 352740, Note_on_c, 10, 74, 0
6, 352740, Note_on_c, 10, 76, 80
6, 352800, Note_on_c, 10, 76, 0
6, 353040, Note_on_c, 10, 74, 80
6, 353184, Note_on_c, 10, 74, 0
6, 353280, Note_on_c, 10, 73, 80
6, 353424, Note_on_c, 10, 73, 0
6, 353520, Note_on_c, 10, 71, 80
6, 353664, Note_on_c, 10, 71, 0
6, 353760, Note_on_c, 10, 69, 80
6, 353904, Note_on_c, 10, 69, 0
6, 354000, Note_on_c, 10, 67, 80
6, 354144, Note_on_c, 10, 67, 0
6, 354240, Note_on_c, 10, 66, 80
6, 354480, Note_on_c, 10, 66, 0
6, 354480, Note_on_c, 10, 67, 80
6, 354720, Note_on_c, 10, 67, 0
6, 354720, Note_on_c, 10, 68, 80
6, 354960, Note_on_c, 10, 68, 0
6, 354960, Note_on_c, 10, 69, 80
6, 355200, Note_on_c, 10, 69, 0
6, 355200, Note_on_c, 10, 70, 80
6, 355440, Note_on_c, 10, 70, 0
6, 355440, Note_on_c, 10, 71, 80
6, 355584, Note_on_c, 10, 71, 0
6, 355680, Note_on_c, 10, 71, 80
6, 355800, Note_on_c, 10, 71, 0
6, 355800, Note_on_c, 10, 62, 80
6, 356640, Note_on_c, 10, 62, 0
6, 356640, Note_on_c, 10, 66, 80
6, 356700, Note_on_c, 10, 66, 0
6, 356700, Note_on_c, 10, 64, 80
6, 356760, Note_on_c, 10, 64, 0
6, 356760, Note_on_c, 10, 66, 80
6, 356820, Note_on_c, 10, 66, 0
6, 356820, Note_on_c, 10, 64, 80
6, 356880, Note_on_c, 10, 64, 0
6, 356880, Note_on_c, 10, 66, 80
6, 356940, Note_on_c, 10, 66, 0
6, 356940, Note_on_c, 10, 64, 80
6, 357000, Note_on_c, 10, 64, 0
6, 357000, Note_on_c, 10, 62, 80
6, 357060, Note_on_c, 10, 62, 0
6, 357060, Note_on_c, 10, 64, 80
6, 357120, Note_on_c, 10, 64, 0
6, 357120, Note_on_c, 10, 62, 80
6, 357504, Note_on_c, 10, 62, 0
6, 357600, Note_on_c, 10, 69, 116
6, 357984, Note_on_c, 10, 69, 0
6, 358080, Note_on_c, 10, 69, 116
6, 358464, Note_on_c, 10, 69, 0
6, 358560, Note_on_c, 10, 74, 116
6, 358920, Note_on_c, 10, 74, 0
6, 358920, Note_on_c, 10, 76, 116
6, 359040, Note_on_c, 10, 76, 0
6, 359040, Note_on_c, 10, 78, 116
6, 359256, Note_on_c, 10, 78, 0
6, 359400, Note_on_c, 10, 76, 116
6, 359472, Note_on_c, 10, 76, 0
6, 359520, Note_on_c, 10, 74, 116
6, 359904, Note_on_c, 10, 74, 0
6, 360480, Note_on_c, 10, 73, 116
6, 360864, Note_on_c, 10, 73, 0
6, 360960, Note_on_c, 10, 73, 116
6, 361344, Note_on_c, 10, 73, 0
6, 361440, Note_on_c, 10, 76, 116
6, 361800, Note_on_c, 10, 76, 0
6, 361800, Note_on_c, 10, 78, 116
6, 361920, Note_on_c, 10, 78, 0
6, 361920, Note_on_c, 10, 79, 116
6, 362136, Note_on_c, 10, 79, 0
6, 362280, Note_on_c, 10, 78, 116
6, 362352, Note_on_c, 10, 78, 0
6, 362400, Note_on_c, 10, 76, 116
6, 362784, Note_on_c, 10, 76, 0
6, 363360, Note_on_c, 10, 74, 116
6, 363744, Note_on_c, 10, 74, 0
6, 363840, Note_on_c, 10, 74, 116
6, 364224, Note_on_c, 10, 74, 0
6, 364320, Note_on_c, 10, 72, 127
6, 365280, Note_on_c, 10, 72, 0
6, 365280, Note_on_c, 10, 84, 116
6, 365664, Note_on_c, 10, 84, 0
6, 365760, Note_on_c, 10, 83, 116
6, 366144, Note_on_c, 10, 83, 0
6, 366240, Note_on_c, 10, 83, 116
6, 366624, Note_on_c, 10, 83, 0
6, 366720, Note_on_c, 10, 83, 116
6, 367104, Note_on_c, 10, 83, 0
6, 367200, Note_on_c, 10, 71, 127
6, 368160, Note_on_c, 10, 71, 0
6, 368160, Note_on_c, 10, 83, 116
6, 368544, Note_on_c, 10, 83, 0
6, 368640, Note_on_c, 10, 81, 116
6, 369024, Note_on_c, 10, 81, 0
6, 369120, Note_on_c, 10, 81, 116
6, 369504, Note_on_c, 10, 81, 0
6, 369600, Note_on_c, 10, 81, 116
6, 369984, Note_on_c, 10, 81, 0
6, 370080, Note_on_c, 10, 69, 116
6, 371040, Note_on_c, 10, 69, 0
6, 371040, Note_on_c, 10, 81, 116
6, 371424, Note_on_c, 10, 81, 0
6, 371520, Note_on_c, 10, 79, 116
6, 371904, Note_on_c, 10, 79, 0
6, 372000, Note_on_c, 10, 76, 116
6, 372288, Note_on_c, 10, 76, 0
6, 372360, Note_on_c, 10, 79, 116
6, 372456, Note_on_c, 10, 79, 0
6, 372480, Note_on_c, 10, 78, 116
6, 372864, Note_on_c, 10, 78, 0
6, 372960, Note_on_c, 10, 86, 116
6, 373248, Note_on_c, 10, 86, 0
6, 373440, Note_on_c, 10, 76, 127
6, 373920, Note_on_c, 10, 76, 0
6, 373920, Note_on_c, 10, 85, 116
6, 374208, Note_on_c, 10, 85, 0
6, 374880, Note_on_c, 10, 62, 70
6, 375264, Note_on_c, 10, 62, 0
6, 375360, Note_on_c, 10, 62, 70
6, 375744, Note_on_c, 10, 62, 0
6, 375840, Note_on_c, 10, 69, 70
6, 376800, Note_on_c, 10, 69, 0
6, 376800, Note_on_c, 10, 60, 70
6, 377184, Note_on_c, 10, 60, 0
6, 377760, Note_on_c, 10, 59, 70
6, 378144, Note_on_c, 10, 59, 0
6, 378240, Note_on_c, 10, 59, 70
6, 378624, Note_on_c, 10, 59, 0
6, 378720, Note_on_c, 10, 67, 70
6, 379680, Note_on_c, 10, 67, 0
6, 379680, Note_on_c, 10, 59, 70
6, 380064, Note_on_c, 10, 59, 0
6, 380640, Note_on_c, 10, 57, 70
6, 381024, Note_on_c, 10, 57, 0
6, 381120, Note_on_c, 10, 57, 70
6, 381504, Note_on_c, 10, 57, 0
6, 381600, Note_on_c, 10, 66, 70
6, 382560, Note_on_c, 10, 66, 0
6, 382560, Note_on_c, 10, 57, 70
6, 382944, Note_on_c, 10, 57, 0
6, 383040, Note_on_c, 10, 64, 70
6, 383040, Note_on_c, 10, 55, 70
6, 383352, Note_on_c, 10, 55, 0
6, 383352, Note_on_c, 10, 64, 0
6, 384480, Note_on_c, 10, 61, 70
6, 384792, Note_on_c, 10, 61, 0
6, 385920, Note_on_c, 10, 74, 92
6, 386016, Note_on_c, 10, 74, 0
6, 386040, Note_on_c, 10, 74, 92
6, 386136, Note_on_c, 10, 74, 0
6, 386160, Note_on_c, 10, 74, 92
6, 386256, Note_on_c, 10, 74, 0
6, 386280, Note_on_c, 10, 74, 92
6, 386376, Note_on_c, 10, 74, 0
6, 386400, Note_on_c, 10, 78, 92
6, 386496, Note_on_c, 10, 78, 0
6, 386520, Note_on_c, 10, 78, 92
6, 386616, Note_on_c, 10, 78, 0
6, 386640, Note_on_c, 10, 78, 92
6, 386736, Note_on_c, 10, 78, 0
6, 386760, Note_on_c, 10, 78, 92
6, 386856, Note_on_c, 10, 78, 0
6, 386880, Note_on_c, 10, 71, 92
6, 386976, Note_on_c, 10, 71, 0
6, 387000, Note_on_c, 10, 71, 92
6, 387096, Note_on_c, 10, 71, 0
6, 387120, Note_on_c, 10, 71, 92
6, 387216, Note_on_c, 10, 71, 0
6, 387240, Note_on_c, 10, 71, 92
6, 387336, Note_on_c, 10, 71, 0
6, 387360, Note_on_c, 10, 74, 92
6, 387456, Note_on_c, 10, 74, 0
6, 387480, Note_on_c, 10, 74, 92
6, 387576, Note_on_c, 10, 74, 0
6, 387600, Note_on_c, 10, 74, 92
6, 387696, Note_on_c, 10, 74, 0
6, 387720, Note_on_c, 10, 74, 92
6, 387816, Note_on_c, 10, 74, 0
6, 387840, Note_on_c, 10, 68, 92
6, 387936, Note_on_c, 10, 68, 0
6, 387960, Note_on_c, 10, 68, 92
6, 388056, Note_on_c, 10, 68, 0
6, 388080, Note_on_c, 10, 68, 92
6, 388176, Note_on_c, 10, 68, 0
6, 388200, Note_on_c, 10, 68, 92
6, 388296, Note_on_c, 10, 68, 0
6, 388320, Note_on_c, 10, 71, 92
6, 388416, Note_on_c, 10, 71, 0
6, 388440, Note_on_c, 10, 71, 92
6, 388536, Note_on_c, 10, 71, 0
6, 388560, Note_on_c, 10, 71, 92
6, 388656, Note_on_c, 10, 71, 0
6, 388680, Note_on_c, 10, 71, 92
6, 388776, Note_on_c, 10, 71, 0
6, 388800, Note_on_c, 10, 69, 105
6, 388896, Note_on_c, 10, 69, 0
6, 388920, Note_on_c, 10, 78, 105
6, 388920, Note_on_c, 10, 69, 105
6, 389016, Note_on_c, 10, 69, 0
6, 389016, Note_on_c, 10, 78, 0
6, 389040, Note_on_c, 10, 69, 105
6, 389040, Note_on_c, 10, 78, 105
6, 389136, Note_on_c, 10, 78, 0
6, 389136, Note_on_c, 10, 69, 0
6, 389160, Note_on_c, 10, 69, 105
6, 389160, Note_on_c, 10, 78, 105
6, 389256, Note_on_c, 10, 78, 0
6, 389256, Note_on_c, 10, 69, 0
6, 389280, Note_on_c, 10, 69, 105
6, 389280, Note_on_c, 10, 78, 105
6, 389376, Note_on_c, 10, 78, 0
6, 389376, Note_on_c, 10, 69, 0
6, 389400, Note_on_c, 10, 69, 105
6, 389400, Note_on_c, 10, 78, 105
6, 389496, Note_on_c, 10, 78, 0
6, 389496, Note_on_c, 10, 69, 0
6, 389520, Note_on_c, 10, 78, 105
6, 389520, Note_on_c, 10, 69, 105
6, 389616, Note_on_c, 10, 69, 0
6, 389616, Note_on_c, 10, 78, 0
6, 389640, Note_on_c, 10, 69, 105
6, 389640, Note_on_c, 10, 78, 105
6, 389736, Note_on_c, 10, 78, 0
6, 389736, Note_on_c, 10, 69, 0
6, 389760, Note_on_c, 10, 69, 105
6, 389760, Note_on_c, 10, 78, 105
6, 389856, Note_on_c, 10, 78, 0
6, 389856, Note_on_c, 10, 69, 0
6, 389880, Note_on_c, 10, 78, 105
6, 389880, Note_on_c, 10, 69, 105
6, 389976, Note_on_c, 10, 69, 0
6, 389976, Note_on_c, 10, 78, 0
6, 390000, Note_on_c, 10, 69, 105
6, 390000, Note_on_c, 10, 78, 105
6, 390096, Note_on_c, 10, 78, 0
6, 390096, Note_on_c, 10, 69, 0
6, 390120, Note_on_c, 10, 78, 105
6, 390120, Note_on_c, 10, 69, 105
6, 390216, Note_on_c, 10, 69, 0
6, 390216, Note_on_c, 10, 78, 0
6, 390240, Note_on_c, 10, 73, 105
6, 390240, Note_on_c, 10, 76, 105
6, 390336, Note_on_c, 10, 76, 0
6, 390336, Note_on_c, 10, 73, 0
6, 390360, Note_on_c, 10, 76, 105
6, 390360, Note_on_c, 10, 73, 105
6, 390456, Note_on_c, 10, 73, 0
6, 390456, Note_on_c, 10, 76, 0
6, 390480, Note_on_c, 10, 76, 105
6, 390480, Note_on_c, 10, 73, 105
6, 390576, Note_on_c, 10, 73, 0
6, 390576, Note_on_c, 10, 76, 0
6, 390600, Note_on_c, 10, 76, 105
6, 390600, Note_on_c, 10, 73, 105
6, 390696, Note_on_c, 10, 73, 0
6, 390696, Note_on_c, 10, 76, 0
6, 390720, Note_on_c, 10, 76, 105
6, 390720, Note_on_c, 10, 73, 105
6, 390816, Note_on_c, 10, 73, 0
6, 390816, Note_on_c, 10, 76, 0
6, 390840, Note_on_c, 10, 76, 105
6, 390840, Note_on_c, 10, 73, 105
6, 390936, Note_on_c, 10, 73, 0
6, 390936, Note_on_c, 10, 76, 0
6, 390960, Note_on_c, 10, 73, 105
6, 390960, Note_on_c, 10, 76, 105
6, 391056, Note_on_c, 10, 76, 0
6, 391056, Note_on_c, 10, 73, 0
6, 391080, Note_on_c, 10, 76, 105
6, 391080, Note_on_c, 10, 73, 105
6, 391176, Note_on_c, 10, 73, 0
6, 391176, Note_on_c, 10, 76, 0
6, 391200, Note_on_c, 10, 76, 105
6, 391200, Note_on_c, 10, 73, 105
6, 391296, Note_on_c, 10, 73, 0
6, 391296, Note_on_c, 10, 76, 0
6, 391320, Note_on_c, 10, 76, 105
6, 391320, Note_on_c, 10, 73, 105
6, 391416, Note_on_c, 10, 73, 0
6, 391416, Note_on_c, 10, 76, 0
6, 391440, Note_on_c, 10, 76, 105
6, 391440, Note_on_c, 10, 73, 105
6, 391536, Note_on_c, 10, 73, 0
6, 391536, Note_on_c, 10, 76, 0
6, 391560, Note_on_c, 10, 73, 105
6, 391560, Note_on_c, 10, 76, 105
6, 391656, Note_on_c, 10, 76, 0
6, 391656, Note_on_c, 10, 73, 0
6, 391680, Note_on_c, 10, 62, 112
6, 391920, Note_on_c, 10, 62, 0
6, 391920, Note_on_c, 10, 74, 92
6, 392112, Note_on_c, 10, 74, 0
6, 392160, Note_on_c, 10, 62, 92
6, 392304, Note_on_c, 10, 62, 0
6, 392400, Note_on_c, 10, 62, 92
6, 392544, Note_on_c, 10, 62, 0
6, 392640, Note_on_c, 10, 62, 92
6, 392784, Note_on_c, 10, 62, 0
6, 392880, Note_on_c, 10, 62, 92
6, 393024, Note_on_c, 10, 62, 0
6, 393120, Note_on_c, 10, 62, 112
6, 393360, Note_on_c, 10, 62, 0
6, 393360, Note_on_c, 10, 74, 92
6, 393552, Note_on_c, 10, 74, 0
6, 393600, Note_on_c, 10, 62, 92
6, 393744, Note_on_c, 10, 62, 0
6, 393840, Note_on_c, 10, 62, 92
6, 393984, Note_on_c, 10, 62, 0
6, 394080, Note_on_c, 10, 62, 92
6, 394224, Note_on_c, 10, 62, 0
6, 394320, Note_on_c, 10, 62, 92
6, 394464, Note_on_c, 10, 62, 0
6, 394560, Note_on_c, 10, 62, 112
6, 394800, Note_on_c, 10, 62, 0
6, 394800, Note_on_c, 10, 74, 92
6, 394992, Note_on_c, 10, 74, 0
6, 395040, Note_on_c, 10, 62, 92
6, 395184, Note_on_c, 10, 62, 0
6, 395280, Note_on_c, 10, 62, 92
6, 395424, Note_on_c, 10, 62, 0
6, 395520, Note_on_c, 10, 62, 92
6, 395664, Note_on_c, 10, 62, 0
6, 395760, Note_on_c, 10, 62, 92
6, 395904, Note_on_c, 10, 62, 0
6, 396000, Note_on_c, 10, 62, 92
6, 396288, Note_on_c, 10, 62, 0
6, 396480, Note_on_c, 10, 62, 92
6, 396480, Note_on_c, 10, 74, 92
6, 396480, Note_on_c, 10, 86, 92
6, 396768, Note_on_c, 10, 86, 0
6, 396768, Note_on_c, 10, 74, 0
6, 396768, Note_on_c, 10, 62, 0
6, 397440, Note_on_c, 10, 81, 70
6, 398808, Note_on_c, 10, 81, 0
6, 398880, Note_on_c, 10, 79, 70
6, 399240, Note_on_c, 10, 79, 0
6, 399240, Note_on_c, 10, 81, 70
6, 399336, Note_on_c, 10, 81, 0
6, 399360, Note_on_c, 10, 78, 70
6, 399720, Note_on_c, 10, 78, 0
6, 399720, Note_on_c, 10, 79, 70
6, 399816, Note_on_c, 10, 79, 0
6, 399840, Note_on_c, 10, 76, 70
6, 400224, Note_on_c, 10, 76, 0
6, 400320, Note_on_c, 10, 73, 70
6, 400680, Note_on_c, 10, 73, 0
6, 400680, Note_on_c, 10, 74, 70
6, 400776, Note_on_c, 10, 74, 0
6, 400800, Note_on_c, 10, 71, 70
6, 401160, Note_on_c, 10, 71, 0
6, 401160, Note_on_c, 10, 73, 70
6, 401256, Note_on_c, 10, 73, 0
6, 401280, Note_on_c, 10, 69, 70
6, 401664, Note_on_c, 10, 69, 0
6, 401760, Note_on_c, 10, 74, 70
6, 402144, Note_on_c, 10, 74, 0
6, 403200, Note_on_c, 10, 73, 70
6, 403560, Note_on_c, 10, 73, 0
6, 403560, Note_on_c, 10, 74, 70
6, 403656, Note_on_c, 10, 74, 0
6, 403680, Note_on_c, 10, 71, 70
6, 404040, Note_on_c, 10, 71, 0
6, 404040, Note_on_c, 10, 73, 70
6, 404136, Note_on_c, 10, 73, 0
6, 404160, Note_on_c, 10, 69, 70
6, 404544, Note_on_c, 10, 69, 0
6, 404640, Note_on_c, 10, 74, 70
6, 405024, Note_on_c, 10, 74, 0
6, 406080, Note_on_c, 10, 79, 105
6, 406176, Note_on_c, 10, 79, 0
6, 406200, Note_on_c, 10, 79, 105
6, 406296, Note_on_c, 10, 79, 0
6, 406320, Note_on_c, 10, 79, 105
6, 406416, Note_on_c, 10, 79, 0
6, 406440, Note_on_c, 10, 79, 105
6, 406536, Note_on_c, 10, 79, 0
6, 406560, Note_on_c, 10, 76, 105
6, 406656, Note_on_c, 10, 76, 0
6, 406680, Note_on_c, 10, 76, 105
6, 406776, Note_on_c, 10, 76, 0
6, 406800, Note_on_c, 10, 76, 105
6, 406896, Note_on_c, 10, 76, 0
6, 406920, Note_on_c, 10, 76, 105
6, 407016, Note_on_c, 10, 76, 0
6, 407040, Note_on_c, 10, 81, 105
6, 407136, Note_on_c, 10, 81, 0
6, 407160, Note_on_c, 10, 81, 105
6, 407256, Note_on_c, 10, 81, 0
6, 407280, Note_on_c, 10, 81, 105
6, 407376, Note_on_c, 10, 81, 0
6, 407400, Note_on_c, 10, 81, 105
6, 407496, Note_on_c, 10, 81, 0
6, 407520, Note_on_c, 10, 83, 105
6, 407616, Note_on_c, 10, 83, 0
6, 407640, Note_on_c, 10, 83, 105
6, 407736, Note_on_c, 10, 83, 0
6, 407760, Note_on_c, 10, 83, 105
6, 407856, Note_on_c, 10, 83, 0
6, 407880, Note_on_c, 10, 83, 105
6, 407976, Note_on_c, 10, 83, 0
6, 408000, Note_on_c, 10, 86, 105
6, 408096, Note_on_c, 10, 86, 0
6, 408120, Note_on_c, 10, 86, 105
6, 408216, Note_on_c, 10, 86, 0
6, 408240, Note_on_c, 10, 86, 105
6, 408336, Note_on_c, 10, 86, 0
6, 408360, Note_on_c, 10, 86, 105
6, 408456, Note_on_c, 10, 86, 0
6, 408480, Note_on_c, 10, 78, 105
6, 408576, Note_on_c, 10, 78, 0
6, 408600, Note_on_c, 10, 78, 105
6, 408696, Note_on_c, 10, 78, 0
6, 408720, Note_on_c, 10, 78, 105
6, 408816, Note_on_c, 10, 78, 0
6, 408840, Note_on_c, 10, 78, 105
6, 408936, Note_on_c, 10, 78, 0
6, 408960, Note_on_c, 10, 79, 105
6, 409056, Note_on_c, 10, 79, 0
6, 409080, Note_on_c, 10, 79, 105
6, 409176, Note_on_c, 10, 79, 0
6, 409200, Note_on_c, 10, 79, 105
6, 409296, Note_on_c, 10, 79, 0
6, 409320, Note_on_c, 10, 79, 105
6, 409416, Note_on_c, 10, 79, 0
6, 409440, Note_on_c, 10, 76, 105
6, 409536, Note_on_c, 10, 76, 0
6, 409560, Note_on_c, 10, 76, 105
6, 409656, Note_on_c, 10, 76, 0
6, 409680, Note_on_c, 10, 76, 105
6, 409776, Note_on_c, 10, 76, 0
6, 409800, Note_on_c, 10, 76, 105
6, 409896, Note_on_c, 10, 76, 0
6, 409920, Note_on_c, 10, 81, 105
6, 410016, Note_on_c, 10, 81, 0
6, 410040, Note_on_c, 10, 81, 105
6, 410136, Note_on_c, 10, 81, 0
6, 410160, Note_on_c, 10, 81, 105
6, 410256, Note_on_c, 10, 81, 0
6, 410280, Note_on_c, 10, 81, 105
6, 410376, Note_on_c, 10, 81, 0
6, 410400, Note_on_c, 10, 62, 105
6, 410400, Note_on_c, 10, 74, 105
6, 411168, Note_on_c, 10, 74, 0
6, 411168, Note_on_c, 10, 62, 0
6, 411168, End_track
7, 0, Start_track
7, 0, Sequencer_specific, 04, 43, 00, 01, 00
7, 0, Program_c, 11, 48
7, 0, Control_c, 11, 7, 122
7, 0, Control_c, 11, 10, 40
7, 0, Control_c, 11, 91, 85
7, 1440, Note_on_c, 11, 62, 92
7, 1440, Note_on_c, 11, 69, 92
7, 1440, Note_on_c, 11, 78, 92
7, 1728, Note_on_c, 11, 78, 0
7, 1728, Note_on_c, 11, 69, 0
7, 1728, Note_on_c, 11, 62, 0
7, 1800, Note_on_c, 11, 78, 92
7, 1800, Note_on_c, 11, 69, 92
7, 1896, Note_on_c, 11, 69, 0
7, 1896, Note_on_c, 11, 78, 0
7, 1920, Note_on_c, 11, 69, 92
7, 1920, Note_on_c, 11, 78, 92
7, 2304, Note_on_c, 11, 78, 0
7, 2304, Note_on_c, 11, 69, 0
7, 2880, Note_on_c, 11, 69, 92
7, 2880, Note_on_c, 11, 76, 92
7, 3168, Note_on_c, 11, 76, 0
7, 3168, Note_on_c, 11, 69, 0
7, 3240, Note_on_c, 11, 69, 92
7, 3240, Note_on_c, 11, 76, 92
7, 3336, Note_on_c, 11, 76, 0
7, 3336, Note_on_c, 11, 69, 0
7, 3360, Note_on_c, 11, 69, 92
7, 3360, Note_on_c, 11, 76, 92
7, 3744, Note_on_c, 11, 76, 0
7, 3744, Note_on_c, 11, 69, 0
7, 4320, Note_on_c, 11, 74, 92
7, 4584, Note_on_c, 11, 74, 0
7, 4800, Note_on_c, 11, 73, 92
7, 5064, Note_on_c, 11, 73, 0
7, 5280, Note_on_c, 11, 71, 92
7, 5544, Note_on_c, 11, 71, 0
7, 5760, Note_on_c, 11, 57, 92
7, 5760, Note_on_c, 11, 67, 92
7, 6240, Note_on_c, 11, 67, 0
7, 6240, Note_on_c, 11, 66, 92
7, 6528, Note_on_c, 11, 66, 0
7, 6528, Note_on_c, 11, 57, 0
7, 7200, Note_on_c, 11, 83, 127
7, 7440, Note_on_c, 11, 83, 0
7, 7440, Note_on_c, 11, 81, 70
7, 7680, Note_on_c, 11, 81, 0
7, 7680, Note_on_c, 11, 79, 70
7, 7920, Note_on_c, 11, 79, 0
7, 7920, Note_on_c, 11, 78, 70
7, 8112, Note_on_c, 11, 78, 0
7, 8160, Note_on_c, 11, 78, 70
7, 8304, Note_on_c, 11, 78, 0
7, 8400, Note_on_c, 11, 78, 70
7, 8544, Note_on_c, 11, 78, 0
7, 8640, Note_on_c, 11, 79, 110
7, 8880, Note_on_c, 11, 79, 0
7, 8880, Note_on_c, 11, 78, 70
7, 9120, Note_on_c, 11, 78, 0
7, 9120, Note_on_c, 11, 76, 70
7, 9360, Note_on_c, 11, 76, 0
7, 9360, Note_on_c, 11, 74, 70
7, 9552, Note_on_c, 11, 74, 0
7, 9600, Note_on_c, 11, 74, 70
7, 9744, Note_on_c, 11, 74, 0
7, 9840, Note_on_c, 11, 74, 70
7, 9984, Note_on_c, 11, 74, 0
7, 10080, Note_on_c, 11, 78, 92
7, 10200, Note_on_c, 11, 78, 0
7, 10200, Note_on_c, 11, 76, 92
7, 10416, Note_on_c, 11, 76, 0
7, 10560, Note_on_c, 11, 74, 92
7, 10848, Note_on_c, 11, 74, 0
7, 11040, Note_on_c, 11, 73, 92
7, 11328, Note_on_c, 11, 73, 0
7, 11520, Note_on_c, 11, 74, 80
7, 11640, Note_on_c, 11, 74, 0
7, 11640, Note_on_c, 11, 73, 80
7, 11760, Note_on_c, 11, 73, 0
7, 11760, Note_on_c, 11, 71, 80
7, 11880, Note_on_c, 11, 71, 0
7, 11880, Note_on_c, 11, 69, 80
7, 11976, Note_on_c, 11, 69, 0
7, 12000, Note_on_c, 11, 74, 80
7, 12120, Note_on_c, 11, 74, 0
7, 12120, Note_on_c, 11, 73, 80
7, 12240, Note_on_c, 11, 73, 0
7, 12240, Note_on_c, 11, 71, 80
7, 12360, Note_on_c, 11, 71, 0
7, 12360, Note_on_c, 11, 69, 80
7, 12456, Note_on_c, 11, 69, 0
7, 12480, Note_on_c, 11, 74, 80
7, 12864, Note_on_c, 11, 74, 0
7, 12960, Note_on_c, 11, 71, 110
7, 13200, Note_on_c, 11, 71, 0
7, 13200, Note_on_c, 11, 69, 70
7, 13440, Note_on_c, 11, 69, 0
7, 13440, Note_on_c, 11, 67, 70
7, 13680, Note_on_c, 11, 67, 0
7, 13680, Note_on_c, 11, 66, 70
7, 13872, Note_on_c, 11, 66, 0
7, 13920, Note_on_c, 11, 66, 70
7, 14064, Note_on_c, 11, 66, 0
7, 14160, Note_on_c, 11, 66, 70
7, 14304, Note_on_c, 11, 66, 0
7, 14400, Note_on_c, 11, 67, 110
7, 14640, Note_on_c, 11, 67, 0
7, 14640, Note_on_c, 11, 66, 70
7, 14880, Note_on_c, 11, 66, 0
7, 14880, Note_on_c, 11, 64, 70
7, 15120, Note_on_c, 11, 64, 0
7, 15120, Note_on_c, 11, 62, 70
7, 15312, Note_on_c, 11, 62, 0
7, 15360, Note_on_c, 11, 62, 70
7, 15504, Note_on_c, 11, 62, 0
7, 15600, Note_on_c, 11, 62, 70
7, 15744, Note_on_c, 11, 62, 0
7, 15840, Note_on_c, 11, 66, 92
7, 15960, Note_on_c, 11, 66, 0
7, 15960, Note_on_c, 11, 64, 92
7, 16176, Note_on_c, 11, 64, 0
7, 16320, Note_on_c, 11, 62, 92
7, 16608, Note_on_c, 11, 62, 0
7, 16800, Note_on_c, 11, 61, 92
7, 17088, Note_on_c, 11, 61, 0
7, 17280, Note_on_c, 11, 62, 112
7, 17376, Note_on_c, 11, 62, 0
7, 17400, Note_on_c, 11, 62, 80
7, 17400, Note_on_c, 11, 69, 80
7, 17496, Note_on_c, 11, 69, 0
7, 17496, Note_on_c, 11, 62, 0
7, 17520, Note_on_c, 11, 62, 80
7, 17520, Note_on_c, 11, 69, 80
7, 17616, Note_on_c, 11, 69, 0
7, 17616, Note_on_c, 11, 62, 0
7, 17640, Note_on_c, 11, 62, 80
7, 17640, Note_on_c, 11, 69, 80
7, 17736, Note_on_c, 11, 69, 0
7, 17736, Note_on_c, 11, 62, 0
7, 17760, Note_on_c, 11, 62, 80
7, 17760, Note_on_c, 11, 69, 80
7, 17856, Note_on_c, 11, 69, 0
7, 17856, Note_on_c, 11, 62, 0
7, 17880, Note_on_c, 11, 69, 80
7, 17880, Note_on_c, 11, 62, 80
7, 17976, Note_on_c, 11, 62, 0
7, 17976, Note_on_c, 11, 69, 0
7, 18000, Note_on_c, 11, 62, 80
7, 18000, Note_on_c, 11, 69, 80
7, 18096, Note_on_c, 11, 69, 0
7, 18096, Note_on_c, 11, 62, 0
7, 18120, Note_on_c, 11, 69, 80
7, 18120, Note_on_c, 11, 62, 80
7, 18216, Note_on_c, 11, 62, 0
7, 18216, Note_on_c, 11, 69, 0
7, 18240, Note_on_c, 11, 69, 80
7, 18240, Note_on_c, 11, 62, 80
7, 18336, Note_on_c, 11, 62, 0
7, 18336, Note_on_c, 11, 69, 0
7, 18360, Note_on_c, 11, 69, 80
7, 18360, Note_on_c, 11, 62, 80
7, 18456, Note_on_c, 11, 62, 0
7, 18456, Note_on_c, 11, 69, 0
7, 18480, Note_on_c, 11, 62, 80
7, 18480, Note_on_c, 11, 69, 80
7, 18576, Note_on_c, 11, 69, 0
7, 18576, Note_on_c, 11, 62, 0
7, 18600, Note_on_c, 11, 69, 80
7, 18600, Note_on_c, 11, 62, 80
7, 18696, Note_on_c, 11, 62, 0
7, 18696, Note_on_c, 11, 69, 0
7, 18720, Note_on_c, 11, 69, 80
7, 18720, Note_on_c, 11, 62, 80
7, 18816, Note_on_c, 11, 62, 0
7, 18816, Note_on_c, 11, 69, 0
7, 18840, Note_on_c, 11, 69, 80
7, 18840, Note_on_c, 11, 62, 80
7, 18936, Note_on_c, 11, 62, 0
7, 18936, Note_on_c, 11, 69, 0
7, 18960, Note_on_c, 11, 62, 80
7, 18960, Note_on_c, 11, 69, 80
7, 19056, Note_on_c, 11, 69, 0
7, 19056, Note_on_c, 11, 62, 0
7, 19080, Note_on_c, 11, 69, 80
7, 19080, Note_on_c, 11, 62, 80
7, 19176, Note_on_c, 11, 62, 0
7, 19176, Note_on_c, 11, 69, 0
7, 19200, Note_on_c, 11, 62, 80
7, 19200, Note_on_c, 11, 69, 80
7, 19296, Note_on_c, 11, 69, 0
7, 19296, Note_on_c, 11, 62, 0
7, 19320, Note_on_c, 11, 62, 80
7, 19320, Note_on_c, 11, 69, 80
7, 19416, Note_on_c, 11, 69, 0
7, 19416, Note_on_c, 11, 62, 0
7, 19440, Note_on_c, 11, 62, 80
7, 19440, Note_on_c, 11, 69, 80
7, 19536, Note_on_c, 11, 69, 0
7, 19536, Note_on_c, 11, 62, 0
7, 19560, Note_on_c, 11, 62, 80
7, 19560, Note_on_c, 11, 69, 80
7, 19656, Note_on_c, 11, 69, 0
7, 19656, Note_on_c, 11, 62, 0
7, 19680, Note_on_c, 11, 62, 80
7, 19680, Note_on_c, 11, 69, 80
7, 19776, Note_on_c, 11, 69, 0
7, 19776, Note_on_c, 11, 62, 0
7, 19800, Note_on_c, 11, 69, 80
7, 19800, Note_on_c, 11, 62, 80
7, 19896, Note_on_c, 11, 62, 0
7, 19896, Note_on_c, 11, 69, 0
7, 19920, Note_on_c, 11, 69, 80
7, 19920, Note_on_c, 11, 62, 80
7, 20016, Note_on_c, 11, 62, 0
7, 20016, Note_on_c, 11, 69, 0
7, 20040, Note_on_c, 11, 69, 80
7, 20040, Note_on_c, 11, 62, 80
7, 20136, Note_on_c, 11, 62, 0
7, 20136, Note_on_c, 11, 69, 0
7, 20160, Note_on_c, 11, 64, 80
7, 20160, Note_on_c, 11, 69, 80
7, 20256, Note_on_c, 11, 69, 0
7, 20256, Note_on_c, 11, 64, 0
7, 20280, Note_on_c, 11, 69, 80
7, 20280, Note_on_c, 11, 64, 80
7, 20376, Note_on_c, 11, 64, 0
7, 20376, Note_on_c, 11, 69, 0
7, 20400, Note_on_c, 11, 69, 80
7, 20400, Note_on_c, 11, 64, 80
7, 20496, Note_on_c, 11, 64, 0
7, 20496, Note_on_c, 11, 69, 0
7, 20520, Note_on_c, 11, 64, 80
7, 20520, Note_on_c, 11, 69, 80
7, 20616, Note_on_c, 11, 69, 0
7, 20616, Note_on_c, 11, 64, 0
7, 20640, Note_on_c, 11, 64, 80
7, 20640, Note_on_c, 11, 69, 80
7, 20736, Note_on_c, 11, 69, 0
7, 20736, Note_on_c, 11, 64, 0
7, 20760, Note_on_c, 11, 69, 80
7, 20760, Note_on_c, 11, 64, 80
7, 20856, Note_on_c, 11, 64, 0
7, 20856, Note_on_c, 11, 69, 0
7, 20880, Note_on_c, 11, 64, 80
7, 20880, Note_on_c, 11, 69, 80
7, 20976, Note_on_c, 11, 69, 0
7, 20976, Note_on_c, 11, 64, 0
7, 21000, Note_on_c, 11, 64, 80
7, 21000, Note_on_c, 11, 69, 80
7, 21096, Note_on_c, 11, 69, 0
7, 21096, Note_on_c, 11, 64, 0
7, 21120, Note_on_c, 11, 69, 80
7, 21120, Note_on_c, 11, 64, 80
7, 21216, Note_on_c, 11, 64, 0
7, 21216, Note_on_c, 11, 69, 0
7, 21240, Note_on_c, 11, 69, 80
7, 21240, Note_on_c, 11, 64, 80
7, 21336, Note_on_c, 11, 64, 0
7, 21336, Note_on_c, 11, 69, 0
7, 21360, Note_on_c, 11, 69, 80
7, 21360, Note_on_c, 11, 64, 80
7, 21456, Note_on_c, 11, 64, 0
7, 21456, Note_on_c, 11, 69, 0
7, 21480, Note_on_c, 11, 69, 80
7, 21480, Note_on_c, 11, 64, 80
7, 21576, Note_on_c, 11, 64, 0
7, 21576, Note_on_c, 11, 69, 0
7, 21600, Note_on_c, 11, 69, 80
7, 21600, Note_on_c, 11, 64, 80
7, 21696, Note_on_c, 11, 64, 0
7, 21696, Note_on_c, 11, 69, 0
7, 21720, Note_on_c, 11, 64, 80
7, 21720, Note_on_c, 11, 69, 80
7, 21816, Note_on_c, 11, 69, 0
7, 21816, Note_on_c, 11, 64, 0
7, 21840, Note_on_c, 11, 69, 80
7, 21840, Note_on_c, 11, 64, 80
7, 21936, Note_on_c, 11, 64, 0
7, 21936, Note_on_c, 11, 69, 0
7, 21960, Note_on_c, 11, 69, 80
7, 21960, Note_on_c, 11, 64, 80
7, 22056, Note_on_c, 11, 64, 0
7, 22056, Note_on_c, 11, 69, 0
7, 22080, Note_on_c, 11, 64, 80
7, 22080, Note_on_c, 11, 69, 80
7, 22176, Note_on_c, 11, 69, 0
7, 22176, Note_on_c, 11, 64, 0
7, 22200, Note_on_c, 11, 69, 80
7, 22200, Note_on_c, 11, 64, 80
7, 22296, Note_on_c, 11, 64, 0
7, 22296, Note_on_c, 11, 69, 0
7, 22320, Note_on_c, 11, 64, 80
7, 22320, Note_on_c, 11, 69, 80
7, 22416, Note_on_c, 11, 69, 0
7, 22416, Note_on_c, 11, 64, 0
7, 22440, Note_on_c, 11, 64, 80
7, 22440, Note_on_c, 11, 69, 80
7, 22536, Note_on_c, 11, 69, 0
7, 22536, Note_on_c, 11, 64, 0
7, 22560, Note_on_c, 11, 64, 80
7, 22560, Note_on_c, 11, 69, 80
7, 22656, Note_on_c, 11, 69, 0
7, 22656, Note_on_c, 11, 64, 0
7, 22680, Note_on_c, 11, 69, 80
7, 22680, Note_on_c, 11, 64, 80
7, 22776, Note_on_c, 11, 64, 0
7, 22776, Note_on_c, 11, 69, 0
7, 22800, Note_on_c, 11, 69, 80
7, 22800, Note_on_c, 11, 64, 80
7, 22896, Note_on_c, 11, 64, 0
7, 22896, Note_on_c, 11, 69, 0
7, 22920, Note_on_c, 11, 69, 80
7, 22920, Note_on_c, 11, 64, 80
7, 23016, Note_on_c, 11, 64, 0
7, 23016, Note_on_c, 11, 69, 0
7, 23040, Note_on_c, 11, 68, 80
7, 23136, Note_on_c, 11, 68, 0
7, 23160, Note_on_c, 11, 68, 80
7, 23256, Note_on_c, 11, 68, 0
7, 23280, Note_on_c, 11, 68, 80
7, 23376, Note_on_c, 11, 68, 0
7, 23400, Note_on_c, 11, 68, 80
7, 23496, Note_on_c, 11, 68, 0
7, 23520, Note_on_c, 11, 68, 80
7, 23616, Note_on_c, 11, 68, 0
7, 23640, Note_on_c, 11, 68, 80
7, 23736, Note_on_c, 11, 68, 0
7, 23760, Note_on_c, 11, 68, 80
7, 23856, Note_on_c, 11, 68, 0
7, 23880, Note_on_c, 11, 68, 80
7, 23976, Note_on_c, 11, 68, 0
7, 24000, Note_on_c, 11, 68, 80
7, 24096, Note_on_c, 11, 68, 0
7, 24120, Note_on_c, 11, 68, 80
7, 24216, Note_on_c, 11, 68, 0
7, 24240, Note_on_c, 11, 68, 80
7, 24336, Note_on_c, 11, 68, 0
7, 24360, Note_on_c, 11, 68, 80
7, 24456, Note_on_c, 11, 68, 0
7, 24480, Note_on_c, 11, 68, 80
7, 24576, Note_on_c, 11, 68, 0
7, 24600, Note_on_c, 11, 68, 80
7, 24696, Note_on_c, 11, 68, 0
7, 24720, Note_on_c, 11, 68, 80
7, 24816, Note_on_c, 11, 68, 0
7, 24840, Note_on_c, 11, 68, 80
7, 24936, Note_on_c, 11, 68, 0
7, 24960, Note_on_c, 11, 68, 80
7, 25056, Note_on_c, 11, 68, 0
7, 25080, Note_on_c, 11, 68, 80
7, 25176, Note_on_c, 11, 68, 0
7, 25200, Note_on_c, 11, 68, 80
7, 25296, Note_on_c, 11, 68, 0
7, 25320, Note_on_c, 11, 68, 80
7, 25416, Note_on_c, 11, 68, 0
7, 25440, Note_on_c, 11, 71, 80
7, 25536, Note_on_c, 11, 71, 0
7, 25560, Note_on_c, 11, 71, 80
7, 25656, Note_on_c, 11, 71, 0
7, 25680, Note_on_c, 11, 71, 80
7, 25776, Note_on_c, 11, 71, 0
7, 25800, Note_on_c, 11, 71, 80
7, 25896, Note_on_c, 11, 71, 0
7, 25920, Note_on_c, 11, 69, 80
7, 26304, Note_on_c, 11, 69, 0
7, 27600, Note_on_c, 11, 62, 58
7, 27792, Note_on_c, 11, 62, 0
7, 27840, Note_on_c, 11, 59, 58
7, 28032, Note_on_c, 11, 59, 0
7, 28080, Note_on_c, 11, 57, 58
7, 28272, Note_on_c, 11, 57, 0
7, 28320, Note_on_c, 11, 56, 58
7, 28704, Note_on_c, 11, 56, 0
7, 28800, Note_on_c, 11, 57, 58
7, 29184, Note_on_c, 11, 57, 0
7, 30480, Note_on_c, 11, 62, 58
7, 30672, Note_on_c, 11, 62, 0
7, 30720, Note_on_c, 11, 59, 58
7, 30912, Note_on_c, 11, 59, 0
7, 30960, Note_on_c, 11, 57, 58
7, 31152, Note_on_c, 11, 57, 0
7, 31200, Note_on_c, 11, 56, 58
7, 31584, Note_on_c, 11, 56, 0
7, 31680, Note_on_c, 11, 57, 58
7, 32064, Note_on_c, 11, 57, 0
7, 33360, Note_on_c, 11, 71, 92
7, 33552, Note_on_c, 11, 71, 0
7, 33600, Note_on_c, 11, 64, 92
7, 33792, Note_on_c, 11, 64, 0
7, 33840, Note_on_c, 11, 74, 92
7, 34032, Note_on_c, 11, 74, 0
7, 34080, Note_on_c, 11, 73, 92
7, 34464, Note_on_c, 11, 73, 0
7, 34800, Note_on_c, 11, 71, 92
7, 34992, Note_on_c, 11, 71, 0
7, 35040, Note_on_c, 11, 64, 92
7, 35232, Note_on_c, 11, 64, 0
7, 35280, Note_on_c, 11, 74, 92
7, 35472, Note_on_c, 11, 74, 0
7, 35520, Note_on_c, 11, 73, 92
7, 35904, Note_on_c, 11, 73, 0
7, 36000, Note_on_c, 11, 71, 92
7, 36384, Note_on_c, 11, 71, 0
7, 36480, Note_on_c, 11, 76, 80
7, 36540, Note_on_c, 11, 76, 0
7, 36540, Note_on_c, 11, 75, 80
7, 36600, Note_on_c, 11, 75, 0
7, 36600, Note_on_c, 11, 76, 80
7, 36660, Note_on_c, 11, 76, 0
7, 36660, Note_on_c, 11, 75, 80
7, 36720, Note_on_c, 11, 75, 0
7, 36720, Note_on_c, 11, 76, 80
7, 36780, Note_on_c, 11, 76, 0
7, 36780, Note_on_c, 11, 75, 80
7, 36840, Note_on_c, 11, 75, 0
7, 36840, Note_on_c, 11, 76, 80
7, 36900, Note_on_c, 11, 76, 0
7, 36900, Note_on_c, 11, 75, 80
7, 36960, Note_on_c, 11, 75, 0
7, 36960, Note_on_c, 11, 76, 80
7, 37020, Note_on_c, 11, 76, 0
7, 37020, Note_on_c, 11, 75, 80
7, 37080, Note_on_c, 11, 75, 0
7, 37080, Note_on_c, 11, 76, 80
7, 37140, Note_on_c, 11, 76, 0
7, 37140, Note_on_c, 11, 75, 80
7, 37200, Note_on_c, 11, 75, 0
7, 37200, Note_on_c, 11, 73, 80
7, 37320, Note_on_c, 11, 73, 0
7, 37320, Note_on_c, 11, 75, 80
7, 37440, Note_on_c, 11, 75, 0
7, 37440, Note_on_c, 11, 76, 80
7, 37728, Note_on_c, 11, 76, 0
7, 37920, Note_on_c, 11, 64, 70
7, 38208, Note_on_c, 11, 64, 0
7, 38880, Note_on_c, 11, 61, 58
7, 39120, Note_on_c, 11, 61, 0
7, 39120, Note_on_c, 11, 57, 58
7, 39360, Note_on_c, 11, 57, 0
7, 39360, Note_on_c, 11, 61, 58
7, 39600, Note_on_c, 11, 61, 0
7, 39600, Note_on_c, 11, 57, 58
7, 39840, Note_on_c, 11, 57, 0
7, 39840, Note_on_c, 11, 61, 58
7, 40080, Note_on_c, 11, 61, 0
7, 40080, Note_on_c, 11, 57, 58
7, 40320, Note_on_c, 11, 57, 0
7, 40320, Note_on_c, 11, 62, 58
7, 40560, Note_on_c, 11, 62, 0
7, 40560, Note_on_c, 11, 59, 58
7, 40800, Note_on_c, 11, 59, 0
7, 40800, Note_on_c, 11, 62, 58
7, 41040, Note_on_c, 11, 62, 0
7, 41040, Note_on_c, 11, 59, 58
7, 41280, Note_on_c, 11, 59, 0
7, 41280, Note_on_c, 11, 62, 58
7, 41520, Note_on_c, 11, 62, 0
7, 41520, Note_on_c, 11, 59, 58
7, 41760, Note_on_c, 11, 59, 0
7, 41760, Note_on_c, 11, 61, 58
7, 42000, Note_on_c, 11, 61, 0
7, 42000, Note_on_c, 11, 57, 58
7, 42240, Note_on_c, 11, 57, 0
7, 42240, Note_on_c, 11, 61, 58
7, 42480, Note_on_c, 11, 61, 0
7, 42480, Note_on_c, 11, 64, 58
7, 42720, Note_on_c, 11, 64, 0
7, 42720, Note_on_c, 11, 69, 58
7, 42960, Note_on_c, 11, 69, 0
7, 42960, Note_on_c, 11, 73, 58
7, 43200, Note_on_c, 11, 73, 0
7, 43200, Note_on_c, 11, 74, 58
7, 43440, Note_on_c, 11, 74, 0
7, 43440, Note_on_c, 11, 71, 58
7, 43632, Note_on_c, 11, 71, 0
7, 43680, Note_on_c, 11, 68, 58
7, 43920, Note_on_c, 11, 68, 0
7, 43920, Note_on_c, 11, 64, 58
7, 44160, Note_on_c, 11, 64, 0
7, 44160, Note_on_c, 11, 62, 58
7, 44400, Note_on_c, 11, 62, 0
7, 44400, Note_on_c, 11, 59, 58
7, 44640, Note_on_c, 11, 59, 0
7, 44640, Note_on_c, 11, 61, 58
7, 44880, Note_on_c, 11, 61, 0
7, 44880, Note_on_c, 11, 57, 58
7, 45120, Note_on_c, 11, 57, 0
7, 45120, Note_on_c, 11, 61, 58
7, 45360, Note_on_c, 11, 61, 0
7, 45360, Note_on_c, 11, 64, 58
7, 45600, Note_on_c, 11, 64, 0
7, 45600, Note_on_c, 11, 69, 58
7, 45840, Note_on_c, 11, 69, 0
7, 45840, Note_on_c, 11, 73, 58
7, 46080, Note_on_c, 11, 73, 0
7, 46080, Note_on_c, 11, 74, 58
7, 46320, Note_on_c, 11, 74, 0
7, 46320, Note_on_c, 11, 71, 58
7, 46512, Note_on_c, 11, 71, 0
7, 46560, Note_on_c, 11, 68, 58
7, 46800, Note_on_c, 11, 68, 0
7, 46800, Note_on_c, 11, 64, 58
7, 47040, Note_on_c, 11, 64, 0
7, 47040, Note_on_c, 11, 62, 58
7, 47280, Note_on_c, 11, 62, 0
7, 47280, Note_on_c, 11, 59, 58
7, 47520, Note_on_c, 11, 59, 0
7, 47520, Note_on_c, 11, 62, 58
7, 47760, Note_on_c, 11, 62, 0
7, 47760, Note_on_c, 11, 57, 58
7, 48000, Note_on_c, 11, 57, 0
7, 48000, Note_on_c, 11, 62, 58
7, 48240, Note_on_c, 11, 62, 0
7, 48240, Note_on_c, 11, 64, 58
7, 48432, Note_on_c, 11, 64, 0
7, 48480, Note_on_c, 11, 66, 58
7, 48720, Note_on_c, 11, 66, 0
7, 48720, Note_on_c, 11, 62, 58
7, 48912, Note_on_c, 11, 62, 0
7, 48960, Note_on_c, 11, 64, 58
7, 49200, Note_on_c, 11, 64, 0
7, 49200, Note_on_c, 11, 61, 58
7, 49440, Note_on_c, 11, 61, 0
7, 49440, Note_on_c, 11, 57, 58
7, 49680, Note_on_c, 11, 57, 0
7, 49680, Note_on_c, 11, 69, 58
7, 49920, Note_on_c, 11, 69, 0
7, 49920, Note_on_c, 11, 66, 58
7, 50160, Note_on_c, 11, 66, 0
7, 50160, Note_on_c, 11, 62, 58
7, 50400, Note_on_c, 11, 62, 0
7, 50400, Note_on_c, 11, 61, 58
7, 50640, Note_on_c, 11, 61, 0
7, 50640, Note_on_c, 11, 64, 58
7, 50880, Note_on_c, 11, 64, 0
7, 50880, Note_on_c, 11, 61, 58
7, 51120, Note_on_c, 11, 61, 0
7, 51120, Note_on_c, 11, 64, 58
7, 51360, Note_on_c, 11, 64, 0
7, 51360, Note_on_c, 11, 62, 58
7, 51600, Note_on_c, 11, 62, 0
7, 51600, Note_on_c, 11, 56, 58
7, 51840, Note_on_c, 11, 56, 0
7, 51840, Note_on_c, 11, 57, 58
7, 52128, Note_on_c, 11, 57, 0
7, 52320, Note_on_c, 11, 69, 92
7, 52380, Note_on_c, 11, 69, 0
7, 52380, Note_on_c, 11, 68, 92
7, 52440, Note_on_c, 11, 68, 0
7, 52440, Note_on_c, 11, 69, 92
7, 52500, Note_on_c, 11, 69, 0
7, 52500, Note_on_c, 11, 68, 92
7, 52560, Note_on_c, 11, 68, 0
7, 52560, Note_on_c, 11, 69, 92
7, 52620, Note_on_c, 11, 69, 0
7, 52620, Note_on_c, 11, 68, 92
7, 52680, Note_on_c, 11, 68, 0
7, 52680, Note_on_c, 11, 69, 92
7, 52740, Note_on_c, 11, 69, 0
7, 52740, Note_on_c, 11, 68, 92
7, 52800, Note_on_c, 11, 68, 0
7, 52800, Note_on_c, 11, 69, 92
7, 52860, Note_on_c, 11, 69, 0
7, 52860, Note_on_c, 11, 68, 92
7, 52920, Note_on_c, 11, 68, 0
7, 52920, Note_on_c, 11, 69, 92
7, 52980, Note_on_c, 11, 69, 0
7, 52980, Note_on_c, 11, 68, 92
7, 53040, Note_on_c, 11, 68, 0
7, 53040, Note_on_c, 11, 66, 92
7, 53160, Note_on_c, 11, 66, 0
7, 53160, Note_on_c, 11, 68, 92
7, 53280, Note_on_c, 11, 68, 0
7, 53280, Note_on_c, 11, 69, 92
7, 53520, Note_on_c, 11, 69, 0
7, 53520, Note_on_c, 11, 64, 92
7, 53712, Note_on_c, 11, 64, 0
7, 53760, Note_on_c, 11, 61, 70
7, 54000, Note_on_c, 11, 61, 0
7, 54000, Note_on_c, 11, 64, 70
7, 54240, Note_on_c, 11, 64, 0
7, 54240, Note_on_c, 11, 61, 58
7, 54480, Note_on_c, 11, 61, 0
7, 54480, Note_on_c, 11, 64, 58
7, 54720, Note_on_c, 11, 64, 0
7, 54720, Note_on_c, 11, 62, 58
7, 54960, Note_on_c, 11, 62, 0
7, 54960, Note_on_c, 11, 59, 58
7, 55200, Note_on_c, 11, 59, 0
7, 55200, Note_on_c, 11, 62, 58
7, 55440, Note_on_c, 11, 62, 0
7, 55440, Note_on_c, 11, 59, 58
7, 55680, Note_on_c, 11, 59, 0
7, 55680, Note_on_c, 11, 62, 58
7, 55920, Note_on_c, 11, 62, 0
7, 55920, Note_on_c, 11, 59, 58
7, 56160, Note_on_c, 11, 59, 0
7, 56160, Note_on_c, 11, 61, 58
7, 56400, Note_on_c, 11, 61, 0
7, 56400, Note_on_c, 11, 57, 58
7, 56640, Note_on_c, 11, 57, 0
7, 56640, Note_on_c, 11, 61, 58
7, 56880, Note_on_c, 11, 61, 0
7, 56880, Note_on_c, 11, 64, 58
7, 57120, Note_on_c, 11, 64, 0
7, 57120, Note_on_c, 11, 69, 58
7, 57360, Note_on_c, 11, 69, 0
7, 57360, Note_on_c, 11, 73, 58
7, 57600, Note_on_c, 11, 73, 0
7, 57600, Note_on_c, 11, 74, 58
7, 57840, Note_on_c, 11, 74, 0
7, 57840, Note_on_c, 11, 71, 58
7, 58032, Note_on_c, 11, 71, 0
7, 58080, Note_on_c, 11, 68, 58
7, 58320, Note_on_c, 11, 68, 0
7, 58320, Note_on_c, 11, 64, 58
7, 58560, Note_on_c, 11, 64, 0
7, 58560, Note_on_c, 11, 62, 58
7, 58800, Note_on_c, 11, 62, 0
7, 58800, Note_on_c, 11, 59, 58
7, 59040, Note_on_c, 11, 59, 0
7, 59040, Note_on_c, 11, 61, 58
7, 59280, Note_on_c, 11, 61, 0
7, 59280, Note_on_c, 11, 57, 58
7, 59520, Note_on_c, 11, 57, 0
7, 59520, Note_on_c, 11, 61, 58
7, 59760, Note_on_c, 11, 61, 0
7, 59760, Note_on_c, 11, 64, 58
7, 60000, Note_on_c, 11, 64, 0
7, 60000, Note_on_c, 11, 69, 58
7, 60240, Note_on_c, 11, 69, 0
7, 60240, Note_on_c, 11, 73, 58
7, 60480, Note_on_c, 11, 73, 0
7, 60480, Note_on_c, 11, 74, 58
7, 60720, Note_on_c, 11, 74, 0
7, 60720, Note_on_c, 11, 71, 58
7, 60912, Note_on_c, 11, 71, 0
7, 60960, Note_on_c, 11, 68, 58
7, 61200, Note_on_c, 11, 68, 0
7, 61200, Note_on_c, 11, 62, 58
7, 61440, Note_on_c, 11, 62, 0
7, 61440, Note_on_c, 11, 61, 58
7, 61680, Note_on_c, 11, 61, 0
7, 61680, Note_on_c, 11, 64, 58
7, 61920, Note_on_c, 11, 64, 0
7, 61920, Note_on_c, 11, 62, 58
7, 62160, Note_on_c, 11, 62, 0
7, 62160, Note_on_c, 11, 57, 58
7, 62400, Note_on_c, 11, 57, 0
7, 62400, Note_on_c, 11, 62, 58
7, 62640, Note_on_c, 11, 62, 0
7, 62640, Note_on_c, 11, 64, 58
7, 62832, Note_on_c, 11, 64, 0
7, 62880, Note_on_c, 11, 66, 58
7, 63120, Note_on_c, 11, 66, 0
7, 63120, Note_on_c, 11, 62, 58
7, 63312, Note_on_c, 11, 62, 0
7, 63360, Note_on_c, 11, 64, 58
7, 63600, Note_on_c, 11, 64, 0
7, 63600, Note_on_c, 11, 61, 58
7, 63840, Note_on_c, 11, 61, 0
7, 63840, Note_on_c, 11, 57, 58
7, 64080, Note_on_c, 11, 57, 0
7, 64080, Note_on_c, 11, 64, 58
7, 64272, Note_on_c, 11, 64, 0
7, 64320, Note_on_c, 11, 66, 58
7, 64560, Note_on_c, 11, 66, 0
7, 64560, Note_on_c, 11, 62, 58
7, 64800, Note_on_c, 11, 62, 0
7, 64800, Note_on_c, 11, 57, 58
7, 65040, Note_on_c, 11, 57, 0
7, 65040, Note_on_c, 11, 66, 58
7, 65232, Note_on_c, 11, 66, 0
7, 65280, Note_on_c, 11, 66, 58
7, 65520, Note_on_c, 11, 66, 0
7, 65520, Note_on_c, 11, 60, 58
7, 65760, Note_on_c, 11, 60, 0
7, 65760, Note_on_c, 11, 57, 58
7, 66000, Note_on_c, 11, 57, 0
7, 66000, Note_on_c, 11, 66, 58
7, 66240, Note_on_c, 11, 66, 0
7, 66240, Note_on_c, 11, 64, 58
7, 66624, Note_on_c, 11, 64, 0
7, 72480, Note_on_c, 11, 64, 58
7, 72960, Note_on_c, 11, 64, 0
7, 72960, Note_on_c, 11, 62, 58
7, 73440, Note_on_c, 11, 62, 0
7, 73440, Note_on_c, 11, 61, 58
7, 73824, Note_on_c, 11, 61, 0
7, 73920, Note_on_c, 11, 74, 92
7, 73980, Note_on_c, 11, 74, 0
7, 73980, Note_on_c, 11, 73, 92
7, 74040, Note_on_c, 11, 73, 0
7, 74040, Note_on_c, 11, 74, 92
7, 74100, Note_on_c, 11, 74, 0
7, 74100, Note_on_c, 11, 73, 92
7, 74160, Note_on_c, 11, 73, 0
7, 74160, Note_on_c, 11, 74, 92
7, 74220, Note_on_c, 11, 74, 0
7, 74220, Note_on_c, 11, 73, 92
7, 74280, Note_on_c, 11, 73, 0
7, 74280, Note_on_c, 11, 74, 92
7, 74340, Note_on_c, 11, 74, 0
7, 74340, Note_on_c, 11, 73, 92
7, 74400, Note_on_c, 11, 73, 0
7, 74400, Note_on_c, 11, 74, 92
7, 74460, Note_on_c, 11, 74, 0
7, 74460, Note_on_c, 11, 73, 92
7, 74520, Note_on_c, 11, 73, 0
7, 74520, Note_on_c, 11, 74, 92
7, 74580, Note_on_c, 11, 74, 0
7, 74580, Note_on_c, 11, 73, 92
7, 74640, Note_on_c, 11, 73, 0
7, 74640, Note_on_c, 11, 71, 92
7, 74760, Note_on_c, 11, 71, 0
7, 74760, Note_on_c, 11, 73, 92
7, 74880, Note_on_c, 11, 73, 0
7, 74880, Note_on_c, 11, 76, 92
7, 75168, Note_on_c, 11, 76, 0
7, 75360, Note_on_c, 11, 64, 92
7, 75648, Note_on_c, 11, 64, 0
7, 76800, Note_on_c, 11, 73, 92
7, 76860, Note_on_c, 11, 73, 0
7, 76860, Note_on_c, 11, 71, 92
7, 76920, Note_on_c, 11, 71, 0
7, 76920, Note_on_c, 11, 73, 92
7, 76980, Note_on_c, 11, 73, 0
7, 76980, Note_on_c, 11, 71, 92
7, 77040, Note_on_c, 11, 71, 0
7, 77040, Note_on_c, 11, 73, 92
7, 77100, Note_on_c, 11, 73, 0
7, 77100, Note_on_c, 11, 71, 92
7, 77160, Note_on_c, 11, 71, 0
7, 77160, Note_on_c, 11, 73, 92
7, 77220, Note_on_c, 11, 73, 0
7, 77220, Note_on_c, 11, 71, 92
7, 77280, Note_on_c, 11, 71, 0
7, 77280, Note_on_c, 11, 73, 92
7, 77340, Note_on_c, 11, 73, 0
7, 77340, Note_on_c, 11, 71, 92
7, 77400, Note_on_c, 11, 71, 0
7, 77400, Note_on_c, 11, 73, 92
7, 77460, Note_on_c, 11, 73, 0
7, 77460, Note_on_c, 11, 71, 92
7, 77520, Note_on_c, 11, 71, 0
7, 77520, Note_on_c, 11, 69, 92
7, 77640, Note_on_c, 11, 69, 0
7, 77640, Note_on_c, 11, 71, 92
7, 77760, Note_on_c, 11, 71, 0
7, 77760, Note_on_c, 11, 68, 92
7, 78048, Note_on_c, 11, 68, 0
7, 78240, Note_on_c, 11, 56, 92
7, 78528, Note_on_c, 11, 56, 0
7, 79680, Note_on_c, 11, 74, 92
7, 79740, Note_on_c, 11, 74, 0
7, 79740, Note_on_c, 11, 73, 92
7, 79800, Note_on_c, 11, 73, 0
7, 79800, Note_on_c, 11, 74, 92
7, 79860, Note_on_c, 11, 74, 0
7, 79860, Note_on_c, 11, 73, 92
7, 79920, Note_on_c, 11, 73, 0
7, 79920, Note_on_c, 11, 74, 92
7, 79980, Note_on_c, 11, 74, 0
7, 79980, Note_on_c, 11, 73, 92
7, 80040, Note_on_c, 11, 73, 0
7, 80040, Note_on_c, 11, 74, 92
7, 80100, Note_on_c, 11, 74, 0
7, 80100, Note_on_c, 11, 73, 92
7, 80160, Note_on_c, 11, 73, 0
7, 80160, Note_on_c, 11, 74, 92
7, 80220, Note_on_c, 11, 74, 0
7, 80220, Note_on_c, 11, 73, 92
7, 80280, Note_on_c, 11, 73, 0
7, 80280, Note_on_c, 11, 74, 92
7, 80340, Note_on_c, 11, 74, 0
7, 80340, Note_on_c, 11, 73, 92
7, 80400, Note_on_c, 11, 73, 0
7, 80400, Note_on_c, 11, 71, 92
7, 80520, Note_on_c, 11, 71, 0
7, 80520, Note_on_c, 11, 73, 92
7, 80640, Note_on_c, 11, 73, 0
7, 80640, Note_on_c, 11, 61, 92
7, 80928, Note_on_c, 11, 61, 0
7, 81120, Note_on_c, 11, 73, 92
7, 81408, Note_on_c, 11, 73, 0
7, 82560, Note_on_c, 11, 76, 92
7, 82620, Note_on_c, 11, 76, 0
7, 82620, Note_on_c, 11, 74, 92
7, 82680, Note_on_c, 11, 74, 0
7, 82680, Note_on_c, 11, 76, 92
7, 82740, Note_on_c, 11, 76, 0
7, 82740, Note_on_c, 11, 74, 92
7, 82800, Note_on_c, 11, 74, 0
7, 82800, Note_on_c, 11, 76, 92
7, 82860, Note_on_c, 11, 76, 0
7, 82860, Note_on_c, 11, 74, 92
7, 82920, Note_on_c, 11, 74, 0
7, 82920, Note_on_c, 11, 76, 92
7, 82980, Note_on_c, 11, 76, 0
7, 82980, Note_on_c, 11, 74, 92
7, 83040, Note_on_c, 11, 74, 0
7, 83040, Note_on_c, 11, 76, 92
7, 83100, Note_on_c, 11, 76, 0
7, 83100, Note_on_c, 11, 74, 92
7, 83160, Note_on_c, 11, 74, 0
7, 83160, Note_on_c, 11, 76, 92
7, 83220, Note_on_c, 11, 76, 0
7, 83220, Note_on_c, 11, 74, 92
7, 83280, Note_on_c, 11, 74, 0
7, 83280, Note_on_c, 11, 73, 92
7, 83400, Note_on_c, 11, 73, 0
7, 83400, Note_on_c, 11, 74, 92
7, 83520, Note_on_c, 11, 74, 0
7, 83520, Note_on_c, 11, 62, 92
7, 83808, Note_on_c, 11, 62, 0
7, 84000, Note_on_c, 11, 74, 92
7, 84288, Note_on_c, 11, 74, 0
7, 85440, Note_on_c, 11, 74, 92
7, 85500, Note_on_c, 11, 74, 0
7, 85500, Note_on_c, 11, 73, 92
7, 85560, Note_on_c, 11, 73, 0
7, 85560, Note_on_c, 11, 74, 92
7, 85620, Note_on_c, 11, 74, 0
7, 85620, Note_on_c, 11, 73, 92
7, 85680, Note_on_c, 11, 73, 0
7, 85680, Note_on_c, 11, 74, 92
7, 85740, Note_on_c, 11, 74, 0
7, 85740, Note_on_c, 11, 73, 92
7, 85800, Note_on_c, 11, 73, 0
7, 85800, Note_on_c, 11, 74, 92
7, 85860, Note_on_c, 11, 74, 0
7, 85860, Note_on_c, 11, 73, 92
7, 85920, Note_on_c, 11, 73, 0
7, 85920, Note_on_c, 11, 74, 92
7, 85980, Note_on_c, 11, 74, 0
7, 85980, Note_on_c, 11, 73, 92
7, 86040, Note_on_c, 11, 73, 0
7, 86040, Note_on_c, 11, 74, 92
7, 86100, Note_on_c, 11, 74, 0
7, 86100, Note_on_c, 11, 73, 92
7, 86160, Note_on_c, 11, 73, 0
7, 86160, Note_on_c, 11, 71, 92
7, 86280, Note_on_c, 11, 71, 0
7, 86280, Note_on_c, 11, 73, 92
7, 86400, Note_on_c, 11, 73, 0
7, 86400, Note_on_c, 11, 61, 92
7, 86688, Note_on_c, 11, 61, 0
7, 86880, Note_on_c, 11, 73, 92
7, 87168, Note_on_c, 11, 73, 0
7, 87360, Note_on_c, 11, 73, 92
7, 87744, Note_on_c, 11, 73, 0
7, 87840, Note_on_c, 11, 71, 92
7, 88224, Note_on_c, 11, 71, 0
7, 88320, Note_on_c, 11, 74, 92
7, 88608, Note_on_c, 11, 74, 0
7, 88680, Note_on_c, 11, 71, 92
7, 88776, Note_on_c, 11, 71, 0
7, 88800, Note_on_c, 11, 69, 92
7, 89184, Note_on_c, 11, 69, 0
7, 89280, Note_on_c, 11, 73, 92
7, 89568, Note_on_c, 11, 73, 0
7, 89760, Note_on_c, 11, 66, 92
7, 90048, Note_on_c, 11, 66, 0
7, 90240, Note_on_c, 11, 73, 92
7, 90240, Note_on_c, 11, 64, 92
7, 90528, Note_on_c, 11, 64, 0
7, 90528, Note_on_c, 11, 73, 0
7, 90720, Note_on_c, 11, 57, 70
7, 90720, Note_on_c, 11, 64, 70
7, 90720, Note_on_c, 11, 73, 70
7, 91104, Note_on_c, 11, 73, 0
7, 91104, Note_on_c, 11, 64, 0
7, 91104, Note_on_c, 11, 57, 0
7, 92640, Note_on_c, 11, 61, 70
7, 93024, Note_on_c, 11, 61, 0
7, 93120, Note_on_c, 11, 61, 70
7, 93504, Note_on_c, 11, 61, 0
7, 93600, Note_on_c, 11, 64, 70
7, 94560, Note_on_c, 11, 64, 0
7, 94560, Note_on_c, 11, 57, 70
7, 95040, Note_on_c, 11, 57, 0
7, 95520, Note_on_c, 11, 62, 70
7, 95904, Note_on_c, 11, 62, 0
7, 96000, Note_on_c, 11, 62, 70
7, 96384, Note_on_c, 11, 62, 0
7, 96480, Note_on_c, 11, 69, 70
7, 97440, Note_on_c, 11, 69, 0
7, 97440, Note_on_c, 11, 62, 70
7, 97920, Note_on_c, 11, 62, 0
7, 98400, Note_on_c, 11, 61, 70
7, 98784, Note_on_c, 11, 61, 0
7, 98880, Note_on_c, 11, 61, 70
7, 99264, Note_on_c, 11, 61, 0
7, 99360, Note_on_c, 11, 66, 58
7, 99648, Note_on_c, 11, 66, 0
7, 100800, Note_on_c, 11, 62, 58
7, 101088, Note_on_c, 11, 62, 0
7, 102240, Note_on_c, 11, 69, 92
7, 102336, Note_on_c, 11, 69, 0
7, 102360, Note_on_c, 11, 69, 92
7, 102456, Note_on_c, 11, 69, 0
7, 102480, Note_on_c, 11, 69, 92
7, 102576, Note_on_c, 11, 69, 0
7, 102600, Note_on_c, 11, 69, 92
7, 102696, Note_on_c, 11, 69, 0
7, 102720, Note_on_c, 11, 73, 92
7, 102816, Note_on_c, 11, 73, 0
7, 102840, Note_on_c, 11, 73, 92
7, 102936, Note_on_c, 11, 73, 0
7, 102960, Note_on_c, 11, 73, 92
7, 103056, Note_on_c, 11, 73, 0
7, 103080, Note_on_c, 11, 73, 92
7, 103176, Note_on_c, 11, 73, 0
7, 103200, Note_on_c, 11, 66, 92
7, 103296, Note_on_c, 11, 66, 0
7, 103320, Note_on_c, 11, 66, 92
7, 103416, Note_on_c, 11, 66, 0
7, 103440, Note_on_c, 11, 66, 92
7, 103536, Note_on_c, 11, 66, 0
7, 103560, Note_on_c, 11, 66, 92
7, 103656, Note_on_c, 11, 66, 0
7, 103680, Note_on_c, 11, 69, 92
7, 103776, Note_on_c, 11, 69, 0
7, 103800, Note_on_c, 11, 69, 92
7, 103896, Note_on_c, 11, 69, 0
7, 103920, Note_on_c, 11, 69, 92
7, 104016, Note_on_c, 11, 69, 0
7, 104040, Note_on_c, 11, 69, 92
7, 104136, Note_on_c, 11, 69, 0
7, 104160, Note_on_c, 11, 63, 92
7, 104256, Note_on_c, 11, 63, 0
7, 104280, Note_on_c, 11, 63, 92
7, 104376, Note_on_c, 11, 63, 0
7, 104400, Note_on_c, 11, 63, 92
7, 104496, Note_on_c, 11, 63, 0
7, 104520, Note_on_c, 11, 63, 92
7, 104616, Note_on_c, 11, 63, 0
7, 104640, Note_on_c, 11, 66, 92
7, 104736, Note_on_c, 11, 66, 0
7, 104760, Note_on_c, 11, 66, 92
7, 104856, Note_on_c, 11, 66, 0
7, 104880, Note_on_c, 11, 66, 92
7, 104976, Note_on_c, 11, 66, 0
7, 105000, Note_on_c, 11, 66, 92
7, 105096, Note_on_c, 11, 66, 0
7, 105120, Note_on_c, 11, 64, 92
7, 105216, Note_on_c, 11, 64, 0
7, 105240, Note_on_c, 11, 64, 92
7, 105240, Note_on_c, 11, 73, 92
7, 105336, Note_on_c, 11, 73, 0
7, 105336, Note_on_c, 11, 64, 0
7, 105360, Note_on_c, 11, 73, 92
7, 105360, Note_on_c, 11, 64, 92
7, 105456, Note_on_c, 11, 64, 0
7, 105456, Note_on_c, 11, 73, 0
7, 105480, Note_on_c, 11, 64, 92
7, 105480, Note_on_c, 11, 73, 92
7, 105576, Note_on_c, 11, 73, 0
7, 105576, Note_on_c, 11, 64, 0
7, 105600, Note_on_c, 11, 64, 92
7, 105600, Note_on_c, 11, 73, 92
7, 105696, Note_on_c, 11, 73, 0
7, 105696, Note_on_c, 11, 64, 0
7, 105720, Note_on_c, 11, 64, 92
7, 105720, Note_on_c, 11, 73, 92
7, 105816, Note_on_c, 11, 73, 0
7, 105816, Note_on_c, 11, 64, 0
7, 105840, Note_on_c, 11, 73, 92
7, 105840, Note_on_c, 11, 64, 92
7, 105936, Note_on_c, 11, 64, 0
7, 105936, Note_on_c, 11, 73, 0
7, 105960, Note_on_c, 11, 73, 92
7, 105960, Note_on_c, 11, 64, 92
7, 106056, Note_on_c, 11, 64, 0
7, 106056, Note_on_c, 11, 73, 0
7, 106080, Note_on_c, 11, 73, 92
7, 106080, Note_on_c, 11, 64, 92
7, 106176, Note_on_c, 11, 64, 0
7, 106176, Note_on_c, 11, 73, 0
7, 106200, Note_on_c, 11, 73, 92
7, 106200, Note_on_c, 11, 64, 92
7, 106296, Note_on_c, 11, 64, 0
7, 106296, Note_on_c, 11, 73, 0
7, 106320, Note_on_c, 11, 64, 92
7, 106320, Note_on_c, 11, 73, 92
7, 106416, Note_on_c, 11, 73, 0
7, 106416, Note_on_c, 11, 64, 0
7, 106440, Note_on_c, 11, 73, 92
7, 106440, Note_on_c, 11, 64, 92
7, 106536, Note_on_c, 11, 64, 0
7, 106536, Note_on_c, 11, 73, 0
7, 106560, Note_on_c, 11, 74, 92
7, 106560, Note_on_c, 11, 64, 92
7, 106656, Note_on_c, 11, 64, 0
7, 106656, Note_on_c, 11, 74, 0
7, 106680, Note_on_c, 11, 64, 92
7, 106680, Note_on_c, 11, 74, 92
7, 106776, Note_on_c, 11, 74, 0
7, 106776, Note_on_c, 11, 64, 0
7, 106800, Note_on_c, 11, 74, 92
7, 106800, Note_on_c, 11, 64, 92
7, 106896, Note_on_c, 11, 64, 0
7, 106896, Note_on_c, 11, 74, 0
7, 106920, Note_on_c, 11, 64, 92
7, 106920, Note_on_c, 11, 74, 92
7, 107016, Note_on_c, 11, 74, 0
7, 107016, Note_on_c, 11, 64, 0
7, 107040, Note_on_c, 11, 74, 92
7, 107040, Note_on_c, 11, 64, 92
7, 107136, Note_on_c, 11, 64, 0
7, 107136, Note_on_c, 11, 74, 0
7, 107160, Note_on_c, 11, 64, 92
7, 107160, Note_on_c, 11, 74, 92
7, 107256, Note_on_c, 11, 74, 0
7, 107256, Note_on_c, 11, 64, 0
7, 107280, Note_on_c, 11, 74, 92
7, 107280, Note_on_c, 11, 64, 92
7, 107376, Note_on_c, 11, 64, 0
7, 107376, Note_on_c, 11, 74, 0
7, 107400, Note_on_c, 11, 64, 92
7, 107400, Note_on_c, 11, 74, 92
7, 107496, Note_on_c, 11, 74, 0
7, 107496, Note_on_c, 11, 64, 0
7, 107520, Note_on_c, 11, 64, 92
7, 107520, Note_on_c, 11, 74, 92
7, 107616, Note_on_c, 11, 74, 0
7, 107616, Note_on_c, 11, 64, 0
7, 107640, Note_on_c, 11, 64, 92
7, 107640, Note_on_c, 11, 74, 92
7, 107736, Note_on_c, 11, 74, 0
7, 107736, Note_on_c, 11, 64, 0
7, 107760, Note_on_c, 11, 74, 92
7, 107760, Note_on_c, 11, 64, 92
7, 107856, Note_on_c, 11, 64, 0
7, 107856, Note_on_c, 11, 74, 0
7, 107880, Note_on_c, 11, 74, 92
7, 107880, Note_on_c, 11, 64, 92
7, 107976, Note_on_c, 11, 64, 0
7, 107976, Note_on_c, 11, 74, 0
7, 108000, Note_on_c, 11, 69, 100
7, 108240, Note_on_c, 11, 69, 0
7, 108240, Note_on_c, 11, 81, 80
7, 108384, Note_on_c, 11, 81, 0
7, 108480, Note_on_c, 11, 69, 80
7, 108624, Note_on_c, 11, 69, 0
7, 108720, Note_on_c, 11, 69, 80
7, 108864, Note_on_c, 11, 69, 0
7, 108960, Note_on_c, 11, 69, 80
7, 109104, Note_on_c, 11, 69, 0
7, 109200, Note_on_c, 11, 69, 80
7, 109344, Note_on_c, 11, 69, 0
7, 109440, Note_on_c, 11, 69, 100
7, 109680, Note_on_c, 11, 69, 0
7, 109680, Note_on_c, 11, 81, 80
7, 109824, Note_on_c, 11, 81, 0
7, 109920, Note_on_c, 11, 69, 80
7, 110064, Note_on_c, 11, 69, 0
7, 110160, Note_on_c, 11, 69, 80
7, 110304, Note_on_c, 11, 69, 0
7, 110400, Note_on_c, 11, 69, 80
7, 110544, Note_on_c, 11, 69, 0
7, 110640, Note_on_c, 11, 69, 80
7, 110784, Note_on_c, 11, 69, 0
7, 110880, Note_on_c, 11, 69, 100
7, 111120, Note_on_c, 11, 69, 0
7, 111120, Note_on_c, 11, 81, 80
7, 111264, Note_on_c, 11, 81, 0
7, 111360, Note_on_c, 11, 69, 80
7, 111504, Note_on_c, 11, 69, 0
7, 111600, Note_on_c, 11, 69, 80
7, 111744, Note_on_c, 11, 69, 0
7, 111840, Note_on_c, 11, 69, 80
7, 111984, Note_on_c, 11, 69, 0
7, 112080, Note_on_c, 11, 69, 80
7, 112224, Note_on_c, 11, 69, 0
7, 112320, Note_on_c, 11, 69, 100
7, 112608, Note_on_c, 11, 69, 0
7, 112800, Note_on_c, 11, 57, 80
7, 113088, Note_on_c, 11, 57, 0
7, 113760, Note_on_c, 11, 62, 92
7, 113760, Note_on_c, 11, 69, 92
7, 113760, Note_on_c, 11, 78, 92
7, 114048, Note_on_c, 11, 78, 0
7, 114048, Note_on_c, 11, 69, 0
7, 114048, Note_on_c, 11, 62, 0
7, 114120, Note_on_c, 11, 78, 92
7, 114120, Note_on_c, 11, 69, 92
7, 114216, Note_on_c, 11, 69, 0
7, 114216, Note_on_c, 11, 78, 0
7, 114240, Note_on_c, 11, 69, 92
7, 114240, Note_on_c, 11, 78, 92
7, 114624, Note_on_c, 11, 78, 0
7, 114624, Note_on_c, 11, 69, 0
7, 115200, Note_on_c, 11, 69, 92
7, 115200, Note_on_c, 11, 76, 92
7, 115488, Note_on_c, 11, 76, 0
7, 115488, Note_on_c, 11, 69, 0
7, 115560, Note_on_c, 11, 69, 92
7, 115560, Note_on_c, 11, 76, 92
7, 115656, Note_on_c, 11, 76, 0
7, 115656, Note_on_c, 11, 69, 0
7, 115680, Note_on_c, 11, 69, 92
7, 115680, Note_on_c, 11, 76, 92
7, 116064, Note_on_c, 11, 76, 0
7, 116064, Note_on_c, 11, 69, 0
7, 116640, Note_on_c, 11, 74, 92
7, 116904, Note_on_c, 11, 74, 0
7, 117120, Note_on_c, 11, 73, 92
7, 117384, Note_on_c, 11, 73, 0
7, 117600, Note_on_c, 11, 71, 92
7, 117864, Note_on_c, 11, 71, 0
7, 118080, Note_on_c, 11, 57, 92
7, 118080, Note_on_c, 11, 67, 92
7, 118560, Note_on_c, 11, 67, 0
7, 118560, Note_on_c, 11, 66, 92
7, 118848, Note_on_c, 11, 66, 0
7, 118848, Note_on_c, 11, 57, 0
7, 119520, Note_on_c, 11, 83, 127
7, 119760, Note_on_c, 11, 83, 0
7, 119760, Note_on_c, 11, 81, 70
7, 120000, Note_on_c, 11, 81, 0
7, 120000, Note_on_c, 11, 79, 70
7, 120240, Note_on_c, 11, 79, 0
7, 120240, Note_on_c, 11, 78, 70
7, 120432, Note_on_c, 11, 78, 0
7, 120480, Note_on_c, 11, 78, 70
7, 120624, Note_on_c, 11, 78, 0
7, 120720, Note_on_c, 11, 78, 70
7, 120864, Note_on_c, 11, 78, 0
7, 120960, Note_on_c, 11, 79, 110
7, 121200, Note_on_c, 11, 79, 0
7, 121200, Note_on_c, 11, 78, 70
7, 121440, Note_on_c, 11, 78, 0
7, 121440, Note_on_c, 11, 76, 70
7, 121680, Note_on_c, 11, 76, 0
7, 121680, Note_on_c, 11, 74, 70
7, 121872, Note_on_c, 11, 74, 0
7, 121920, Note_on_c, 11, 74, 70
7, 122064, Note_on_c, 11, 74, 0
7, 122160, Note_on_c, 11, 74, 70
7, 122304, Note_on_c, 11, 74, 0
7, 122400, Note_on_c, 11, 78, 92
7, 122520, Note_on_c, 11, 78, 0
7, 122520, Note_on_c, 11, 76, 92
7, 122736, Note_on_c, 11, 76, 0
7, 122880, Note_on_c, 11, 74, 92
7, 123168, Note_on_c, 11, 74, 0
7, 123360, Note_on_c, 11, 73, 92
7, 123648, Note_on_c, 11, 73, 0
7, 123840, Note_on_c, 11, 74, 80
7, 123960, Note_on_c, 11, 74, 0
7, 123960, Note_on_c, 11, 73, 80
7, 124080, Note_on_c, 11, 73, 0
7, 124080, Note_on_c, 11, 71, 80
7, 124200, Note_on_c, 11, 71, 0
7, 124200, Note_on_c, 11, 69, 80
7, 124296, Note_on_c, 11, 69, 0
7, 124320, Note_on_c, 11, 74, 80
7, 124440, Note_on_c, 11, 74, 0
7, 124440, Note_on_c, 11, 73, 80
7, 124560, Note_on_c, 11, 73, 0
7, 124560, Note_on_c, 11, 71, 80
7, 124680, Note_on_c, 11, 71, 0
7, 124680, Note_on_c, 11, 69, 80
7, 124776, Note_on_c, 11, 69, 0
7, 124800, Note_on_c, 11, 74, 80
7, 125184, Note_on_c, 11, 74, 0
7, 125280, Note_on_c, 11, 71, 110
7, 125520, Note_on_c, 11, 71, 0
7, 125520, Note_on_c, 11, 69, 70
7, 125760, Note_on_c, 11, 69, 0
7, 125760, Note_on_c, 11, 67, 70
7, 126000, Note_on_c, 11, 67, 0
7, 126000, Note_on_c, 11, 66, 70
7, 126192, Note_on_c, 11, 66, 0
7, 126240, Note_on_c, 11, 66, 70
7, 126384, Note_on_c, 11, 66, 0
7, 126480, Note_on_c, 11, 66, 70
7, 126624, Note_on_c, 11, 66, 0
7, 126720, Note_on_c, 11, 67, 110
7, 126960, Note_on_c, 11, 67, 0
7, 126960, Note_on_c, 11, 66, 70
7, 127200, Note_on_c, 11, 66, 0
7, 127200, Note_on_c, 11, 64, 70
7, 127440, Note_on_c, 11, 64, 0
7, 127440, Note_on_c, 11, 62, 70
7, 127632, Note_on_c, 11, 62, 0
7, 127680, Note_on_c, 11, 62, 70
7, 127824, Note_on_c, 11, 62, 0
7, 127920, Note_on_c, 11, 62, 70
7, 128064, Note_on_c, 11, 62, 0
7, 128160, Note_on_c, 11, 66, 92
7, 128280, Note_on_c, 11, 66, 0
7, 128280, Note_on_c, 11, 64, 92
7, 128496, Note_on_c, 11, 64, 0
7, 128640, Note_on_c, 11, 62, 92
7, 128928, Note_on_c, 11, 62, 0
7, 129120, Note_on_c, 11, 61, 92
7, 129408, Note_on_c, 11, 61, 0
7, 129600, Note_on_c, 11, 62, 112
7, 129696, Note_on_c, 11, 62, 0
7, 129720, Note_on_c, 11, 62, 80
7, 129720, Note_on_c, 11, 69, 80
7, 129816, Note_on_c, 11, 69, 0
7, 129816, Note_on_c, 11, 62, 0
7, 129840, Note_on_c, 11, 62, 80
7, 129840, Note_on_c, 11, 69, 80
7, 129936, Note_on_c, 11, 69, 0
7, 129936, Note_on_c, 11, 62, 0
7, 129960, Note_on_c, 11, 62, 80
7, 129960, Note_on_c, 11, 69, 80
7, 130056, Note_on_c, 11, 69, 0
7, 130056, Note_on_c, 11, 62, 0
7, 130080, Note_on_c, 11, 62, 80
7, 130080, Note_on_c, 11, 69, 80
7, 130176, Note_on_c, 11, 69, 0
7, 130176, Note_on_c, 11, 62, 0
7, 130200, Note_on_c, 11, 69, 80
7, 130200, Note_on_c, 11, 62, 80
7, 130296, Note_on_c, 11, 62, 0
7, 130296, Note_on_c, 11, 69, 0
7, 130320, Note_on_c, 11, 62, 80
7, 130320, Note_on_c, 11, 69, 80
7, 130416, Note_on_c, 11, 69, 0
7, 130416, Note_on_c, 11, 62, 0
7, 130440, Note_on_c, 11, 69, 80
7, 130440, Note_on_c, 11, 62, 80
7, 130536, Note_on_c, 11, 62, 0
7, 130536, Note_on_c, 11, 69, 0
7, 130560, Note_on_c, 11, 69, 80
7, 130560, Note_on_c, 11, 62, 80
7, 130656, Note_on_c, 11, 62, 0
7, 130656, Note_on_c, 11, 69, 0
7, 130680, Note_on_c, 11, 69, 80
7, 130680, Note_on_c, 11, 62, 80
7, 130776, Note_on_c, 11, 62, 0
7, 130776, Note_on_c, 11, 69, 0
7, 130800, Note_on_c, 11, 62, 80
7, 130800, Note_on_c, 11, 69, 80
7, 130896, Note_on_c, 11, 69, 0
7, 130896, Note_on_c, 11, 62, 0
7, 130920, Note_on_c, 11, 69, 80
7, 130920, Note_on_c, 11, 62, 80
7, 131016, Note_on_c, 11, 62, 0
7, 131016, Note_on_c, 11, 69, 0
7, 131040, Note_on_c, 11, 69, 80
7, 131040, Note_on_c, 11, 62, 80
7, 131136, Note_on_c, 11, 62, 0
7, 131136, Note_on_c, 11, 69, 0
7, 131160, Note_on_c, 11, 69, 80
7, 131160, Note_on_c, 11, 62, 80
7, 131256, Note_on_c, 11, 62, 0
7, 131256, Note_on_c, 11, 69, 0
7, 131280, Note_on_c, 11, 62, 80
7, 131280, Note_on_c, 11, 69, 80
7, 131376, Note_on_c, 11, 69, 0
7, 131376, Note_on_c, 11, 62, 0
7, 131400, Note_on_c, 11, 69, 80
7, 131400, Note_on_c, 11, 62, 80
7, 131496, Note_on_c, 11, 62, 0
7, 131496, Note_on_c, 11, 69, 0
7, 131520, Note_on_c, 11, 62, 80
7, 131520, Note_on_c, 11, 69, 80
7, 131616, Note_on_c, 11, 69, 0
7, 131616, Note_on_c, 11, 62, 0
7, 131640, Note_on_c, 11, 62, 80
7, 131640, Note_on_c, 11, 69, 80
7, 131736, Note_on_c, 11, 69, 0
7, 131736, Note_on_c, 11, 62, 0
7, 131760, Note_on_c, 11, 62, 80
7, 131760, Note_on_c, 11, 69, 80
7, 131856, Note_on_c, 11, 69, 0
7, 131856, Note_on_c, 11, 62, 0
7, 131880, Note_on_c, 11, 62, 80
7, 131880, Note_on_c, 11, 69, 80
7, 131976, Note_on_c, 11, 69, 0
7, 131976, Note_on_c, 11, 62, 0
7, 132000, Note_on_c, 11, 62, 80
7, 132000, Note_on_c, 11, 69, 80
7, 132096, Note_on_c, 11, 69, 0
7, 132096, Note_on_c, 11, 62, 0
7, 132120, Note_on_c, 11, 69, 80
7, 132120, Note_on_c, 11, 62, 80
7, 132216, Note_on_c, 11, 62, 0
7, 132216, Note_on_c, 11, 69, 0
7, 132240, Note_on_c, 11, 69, 80
7, 132240, Note_on_c, 11, 62, 80
7, 132336, Note_on_c, 11, 62, 0
7, 132336, Note_on_c, 11, 69, 0
7, 132360, Note_on_c, 11, 69, 80
7, 132360, Note_on_c, 11, 62, 80
7, 132456, Note_on_c, 11, 62, 0
7, 132456, Note_on_c, 11, 69, 0
7, 132480, Note_on_c, 11, 64, 80
7, 132480, Note_on_c, 11, 69, 80
7, 132576, Note_on_c, 11, 69, 0
7, 132576, Note_on_c, 11, 64, 0
7, 132600, Note_on_c, 11, 69, 80
7, 132600, Note_on_c, 11, 64, 80
7, 132696, Note_on_c, 11, 64, 0
7, 132696, Note_on_c, 11, 69, 0
7, 132720, Note_on_c, 11, 69, 80
7, 132720, Note_on_c, 11, 64, 80
7, 132816, Note_on_c, 11, 64, 0
7, 132816, Note_on_c, 11, 69, 0
7, 132840, Note_on_c, 11, 64, 80
7, 132840, Note_on_c, 11, 69, 80
7, 132936, Note_on_c, 11, 69, 0
7, 132936, Note_on_c, 11, 64, 0
7, 132960, Note_on_c, 11, 64, 80
7, 132960, Note_on_c, 11, 69, 80
7, 133056, Note_on_c, 11, 69, 0
7, 133056, Note_on_c, 11, 64, 0
7, 133080, Note_on_c, 11, 69, 80
7, 133080, Note_on_c, 11, 64, 80
7, 133176, Note_on_c, 11, 64, 0
7, 133176, Note_on_c, 11, 69, 0
7, 133200, Note_on_c, 11, 64, 80
7, 133200, Note_on_c, 11, 69, 80
7, 133296, Note_on_c, 11, 69, 0
7, 133296, Note_on_c, 11, 64, 0
7, 133320, Note_on_c, 11, 64, 80
7, 133320, Note_on_c, 11, 69, 80
7, 133416, Note_on_c, 11, 69, 0
7, 133416, Note_on_c, 11, 64, 0
7, 133440, Note_on_c, 11, 69, 80
7, 133440, Note_on_c, 11, 64, 80
7, 133536, Note_on_c, 11, 64, 0
7, 133536, Note_on_c, 11, 69, 0
7, 133560, Note_on_c, 11, 69, 80
7, 133560, Note_on_c, 11, 64, 80
7, 133656, Note_on_c, 11, 64, 0
7, 133656, Note_on_c, 11, 69, 0
7, 133680, Note_on_c, 11, 69, 80
7, 133680, Note_on_c, 11, 64, 80
7, 133776, Note_on_c, 11, 64, 0
7, 133776, Note_on_c, 11, 69, 0
7, 133800, Note_on_c, 11, 69, 80
7, 133800, Note_on_c, 11, 64, 80
7, 133896, Note_on_c, 11, 64, 0
7, 133896, Note_on_c, 11, 69, 0
7, 133920, Note_on_c, 11, 69, 80
7, 133920, Note_on_c, 11, 64, 80
7, 134016, Note_on_c, 11, 64, 0
7, 134016, Note_on_c, 11, 69, 0
7, 134040, Note_on_c, 11, 64, 80
7, 134040, Note_on_c, 11, 69, 80
7, 134136, Note_on_c, 11, 69, 0
7, 134136, Note_on_c, 11, 64, 0
7, 134160, Note_on_c, 11, 69, 80
7, 134160, Note_on_c, 11, 64, 80
7, 134256, Note_on_c, 11, 64, 0
7, 134256, Note_on_c, 11, 69, 0
7, 134280, Note_on_c, 11, 69, 80
7, 134280, Note_on_c, 11, 64, 80
7, 134376, Note_on_c, 11, 64, 0
7, 134376, Note_on_c, 11, 69, 0
7, 134400, Note_on_c, 11, 64, 80
7, 134400, Note_on_c, 11, 69, 80
7, 134496, Note_on_c, 11, 69, 0
7, 134496, Note_on_c, 11, 64, 0
7, 134520, Note_on_c, 11, 69, 80
7, 134520, Note_on_c, 11, 64, 80
7, 134616, Note_on_c, 11, 64, 0
7, 134616, Note_on_c, 11, 69, 0
7, 134640, Note_on_c, 11, 64, 80
7, 134640, Note_on_c, 11, 69, 80
7, 134736, Note_on_c, 11, 69, 0
7, 134736, Note_on_c, 11, 64, 0
7, 134760, Note_on_c, 11, 64, 80
7, 134760, Note_on_c, 11, 69, 80
7, 134856, Note_on_c, 11, 69, 0
7, 134856, Note_on_c, 11, 64, 0
7, 134880, Note_on_c, 11, 64, 80
7, 134880, Note_on_c, 11, 69, 80
7, 134976, Note_on_c, 11, 69, 0
7, 134976, Note_on_c, 11, 64, 0
7, 135000, Note_on_c, 11, 69, 80
7, 135000, Note_on_c, 11, 64, 80
7, 135096, Note_on_c, 11, 64, 0
7, 135096, Note_on_c, 11, 69, 0
7, 135120, Note_on_c, 11, 69, 80
7, 135120, Note_on_c, 11, 64, 80
7, 135216, Note_on_c, 11, 64, 0
7, 135216, Note_on_c, 11, 69, 0
7, 135240, Note_on_c, 11, 69, 80
7, 135240, Note_on_c, 11, 64, 80
7, 135336, Note_on_c, 11, 64, 0
7, 135336, Note_on_c, 11, 69, 0
7, 135360, Note_on_c, 11, 68, 80
7, 135456, Note_on_c, 11, 68, 0
7, 135480, Note_on_c, 11, 68, 80
7, 135576, Note_on_c, 11, 68, 0
7, 135600, Note_on_c, 11, 68, 80
7, 135696, Note_on_c, 11, 68, 0
7, 135720, Note_on_c, 11, 68, 80
7, 135816, Note_on_c, 11, 68, 0
7, 135840, Note_on_c, 11, 68, 80
7, 135936, Note_on_c, 11, 68, 0
7, 135960, Note_on_c, 11, 68, 80
7, 136056, Note_on_c, 11, 68, 0
7, 136080, Note_on_c, 11, 68, 80
7, 136176, Note_on_c, 11, 68, 0
7, 136200, Note_on_c, 11, 68, 80
7, 136296, Note_on_c, 11, 68, 0
7, 136320, Note_on_c, 11, 68, 80
7, 136416, Note_on_c, 11, 68, 0
7, 136440, Note_on_c, 11, 68, 80
7, 136536, Note_on_c, 11, 68, 0
7, 136560, Note_on_c, 11, 68, 80
7, 136656, Note_on_c, 11, 68, 0
7, 136680, Note_on_c, 11, 68, 80
7, 136776, Note_on_c, 11, 68, 0
7, 136800, Note_on_c, 11, 68, 80
7, 136896, Note_on_c, 11, 68, 0
7, 136920, Note_on_c, 11, 68, 80
7, 137016, Note_on_c, 11, 68, 0
7, 137040, Note_on_c, 11, 68, 80
7, 137136, Note_on_c, 11, 68, 0
7, 137160, Note_on_c, 11, 68, 80
7, 137256, Note_on_c, 11, 68, 0
7, 137280, Note_on_c, 11, 68, 80
7, 137376, Note_on_c, 11, 68, 0
7, 137400, Note_on_c, 11, 68, 80
7, 137496, Note_on_c, 11, 68, 0
7, 137520, Note_on_c, 11, 68, 80
7, 137616, Note_on_c, 11, 68, 0
7, 137640, Note_on_c, 11, 68, 80
7, 137736, Note_on_c, 11, 68, 0
7, 137760, Note_on_c, 11, 71, 80
7, 137856, Note_on_c, 11, 71, 0
7, 137880, Note_on_c, 11, 71, 80
7, 137976, Note_on_c, 11, 71, 0
7, 138000, Note_on_c, 11, 71, 80
7, 138096, Note_on_c, 11, 71, 0
7, 138120, Note_on_c, 11, 71, 80
7, 138216, Note_on_c, 11, 71, 0
7, 138240, Note_on_c, 11, 69, 80
7, 138624, Note_on_c, 11, 69, 0
7, 139920, Note_on_c, 11, 62, 58
7, 140112, Note_on_c, 11, 62, 0
7, 140160, Note_on_c, 11, 59, 58
7, 140352, Note_on_c, 11, 59, 0
7, 140400, Note_on_c, 11, 57, 58
7, 140592, Note_on_c, 11, 57, 0
7, 140640, Note_on_c, 11, 56, 58
7, 141024, Note_on_c, 11, 56, 0
7, 141120, Note_on_c, 11, 57, 58
7, 141504, Note_on_c, 11, 57, 0
7, 142800, Note_on_c, 11, 62, 58
7, 142992, Note_on_c, 11, 62, 0
7, 143040, Note_on_c, 11, 59, 58
7, 143232, Note_on_c, 11, 59, 0
7, 143280, Note_on_c, 11, 57, 58
7, 143472, Note_on_c, 11, 57, 0
7, 143520, Note_on_c, 11, 56, 58
7, 143904, Note_on_c, 11, 56, 0
7, 144000, Note_on_c, 11, 57, 58
7, 144384, Note_on_c, 11, 57, 0
7, 145680, Note_on_c, 11, 71, 92
7, 145872, Note_on_c, 11, 71, 0
7, 145920, Note_on_c, 11, 64, 92
7, 146112, Note_on_c, 11, 64, 0
7, 146160, Note_on_c, 11, 74, 92
7, 146352, Note_on_c, 11, 74, 0
7, 146400, Note_on_c, 11, 73, 92
7, 146784, Note_on_c, 11, 73, 0
7, 147120, Note_on_c, 11, 71, 92
7, 147312, Note_on_c, 11, 71, 0
7, 147360, Note_on_c, 11, 64, 92
7, 147552, Note_on_c, 11, 64, 0
7, 147600, Note_on_c, 11, 74, 92
7, 147792, Note_on_c, 11, 74, 0
7, 147840, Note_on_c, 11, 73, 92
7, 148224, Note_on_c, 11, 73, 0
7, 148320, Note_on_c, 11, 71, 92
7, 148704, Note_on_c, 11, 71, 0
7, 148800, Note_on_c, 11, 76, 80
7, 148860, Note_on_c, 11, 76, 0
7, 148860, Note_on_c, 11, 75, 80
7, 148920, Note_on_c, 11, 75, 0
7, 148920, Note_on_c, 11, 76, 80
7, 148980, Note_on_c, 11, 76, 0
7, 148980, Note_on_c, 11, 75, 80
7, 149040, Note_on_c, 11, 75, 0
7, 149040, Note_on_c, 11, 76, 80
7, 149100, Note_on_c, 11, 76, 0
7, 149100, Note_on_c, 11, 75, 80
7, 149160, Note_on_c, 11, 75, 0
7, 149160, Note_on_c, 11, 76, 80
7, 149220, Note_on_c, 11, 76, 0
7, 149220, Note_on_c, 11, 75, 80
7, 149280, Note_on_c, 11, 75, 0
7, 149280, Note_on_c, 11, 76, 80
7, 149340, Note_on_c, 11, 76, 0
7, 149340, Note_on_c, 11, 75, 80
7, 149400, Note_on_c, 11, 75, 0
7, 149400, Note_on_c, 11, 76, 80
7, 149460, Note_on_c, 11, 76, 0
7, 149460, Note_on_c, 11, 75, 80
7, 149520, Note_on_c, 11, 75, 0
7, 149520, Note_on_c, 11, 73, 80
7, 149640, Note_on_c, 11, 73, 0
7, 149640, Note_on_c, 11, 75, 80
7, 149760, Note_on_c, 11, 75, 0
7, 149760, Note_on_c, 11, 76, 80
7, 150048, Note_on_c, 11, 76, 0
7, 150240, Note_on_c, 11, 64, 70
7, 150528, Note_on_c, 11, 64, 0
7, 151200, Note_on_c, 11, 61, 58
7, 151440, Note_on_c, 11, 61, 0
7, 151440, Note_on_c, 11, 57, 58
7, 151680, Note_on_c, 11, 57, 0
7, 151680, Note_on_c, 11, 61, 58
7, 151920, Note_on_c, 11, 61, 0
7, 151920, Note_on_c, 11, 57, 58
7, 152160, Note_on_c, 11, 57, 0
7, 152160, Note_on_c, 11, 61, 58
7, 152400, Note_on_c, 11, 61, 0
7, 152400, Note_on_c, 11, 57, 58
7, 152640, Note_on_c, 11, 57, 0
7, 152640, Note_on_c, 11, 62, 58
7, 152880, Note_on_c, 11, 62, 0
7, 152880, Note_on_c, 11, 59, 58
7, 153120, Note_on_c, 11, 59, 0
7, 153120, Note_on_c, 11, 62, 58
7, 153360, Note_on_c, 11, 62, 0
7, 153360, Note_on_c, 11, 59, 58
7, 153600, Note_on_c, 11, 59, 0
7, 153600, Note_on_c, 11, 62, 58
7, 153840, Note_on_c, 11, 62, 0
7, 153840, Note_on_c, 11, 59, 58
7, 154080, Note_on_c, 11, 59, 0
7, 154080, Note_on_c, 11, 61, 58
7, 154320, Note_on_c, 11, 61, 0
7, 154320, Note_on_c, 11, 57, 58
7, 154560, Note_on_c, 11, 57, 0
7, 154560, Note_on_c, 11, 61, 58
7, 154800, Note_on_c, 11, 61, 0
7, 154800, Note_on_c, 11, 64, 58
7, 155040, Note_on_c, 11, 64, 0
7, 155040, Note_on_c, 11, 69, 58
7, 155280, Note_on_c, 11, 69, 0
7, 155280, Note_on_c, 11, 73, 58
7, 155520, Note_on_c, 11, 73, 0
7, 155520, Note_on_c, 11, 74, 58
7, 155760, Note_on_c, 11, 74, 0
7, 155760, Note_on_c, 11, 71, 58
7, 155952, Note_on_c, 11, 71, 0
7, 156000, Note_on_c, 11, 68, 58
7, 156240, Note_on_c, 11, 68, 0
7, 156240, Note_on_c, 11, 64, 58
7, 156480, Note_on_c, 11, 64, 0
7, 156480, Note_on_c, 11, 62, 58
7, 156720, Note_on_c, 11, 62, 0
7, 156720, Note_on_c, 11, 59, 58
7, 156960, Note_on_c, 11, 59, 0
7, 156960, Note_on_c, 11, 61, 58
7, 157200, Note_on_c, 11, 61, 0
7, 157200, Note_on_c, 11, 57, 58
7, 157440, Note_on_c, 11, 57, 0
7, 157440, Note_on_c, 11, 61, 58
7, 157680, Note_on_c, 11, 61, 0
7, 157680, Note_on_c, 11, 64, 58
7, 157920, Note_on_c, 11, 64, 0
7, 157920, Note_on_c, 11, 69, 58
7, 158160, Note_on_c, 11, 69, 0
7, 158160, Note_on_c, 11, 73, 58
7, 158400, Note_on_c, 11, 73, 0
7, 158400, Note_on_c, 11, 74, 58
7, 158640, Note_on_c, 11, 74, 0
7, 158640, Note_on_c, 11, 71, 58
7, 158832, Note_on_c, 11, 71, 0
7, 158880, Note_on_c, 11, 68, 58
7, 159120, Note_on_c, 11, 68, 0
7, 159120, Note_on_c, 11, 64, 58
7, 159360, Note_on_c, 11, 64, 0
7, 159360, Note_on_c, 11, 62, 58
7, 159600, Note_on_c, 11, 62, 0
7, 159600, Note_on_c, 11, 59, 58
7, 159840, Note_on_c, 11, 59, 0
7, 159840, Note_on_c, 11, 62, 58
7, 160080, Note_on_c, 11, 62, 0
7, 160080, Note_on_c, 11, 57, 58
7, 160320, Note_on_c, 11, 57, 0
7, 160320, Note_on_c, 11, 62, 58
7, 160560, Note_on_c, 11, 62, 0
7, 160560, Note_on_c, 11, 64, 58
7, 160752, Note_on_c, 11, 64, 0
7, 160800, Note_on_c, 11, 66, 58
7, 161040, Note_on_c, 11, 66, 0
7, 161040, Note_on_c, 11, 62, 58
7, 161232, Note_on_c, 11, 62, 0
7, 161280, Note_on_c, 11, 64, 58
7, 161520, Note_on_c, 11, 64, 0
7, 161520, Note_on_c, 11, 61, 58
7, 161760, Note_on_c, 11, 61, 0
7, 161760, Note_on_c, 11, 57, 58
7, 162000, Note_on_c, 11, 57, 0
7, 162000, Note_on_c, 11, 69, 58
7, 162240, Note_on_c, 11, 69, 0
7, 162240, Note_on_c, 11, 66, 58
7, 162480, Note_on_c, 11, 66, 0
7, 162480, Note_on_c, 11, 62, 58
7, 162720, Note_on_c, 11, 62, 0
7, 162720, Note_on_c, 11, 61, 58
7, 162960, Note_on_c, 11, 61, 0
7, 162960, Note_on_c, 11, 64, 58
7, 163200, Note_on_c, 11, 64, 0
7, 163200, Note_on_c, 11, 61, 58
7, 163440, Note_on_c, 11, 61, 0
7, 163440, Note_on_c, 11, 64, 58
7, 163680, Note_on_c, 11, 64, 0
7, 163680, Note_on_c, 11, 62, 58
7, 163920, Note_on_c, 11, 62, 0
7, 163920, Note_on_c, 11, 56, 58
7, 164160, Note_on_c, 11, 56, 0
7, 164160, Note_on_c, 11, 57, 58
7, 164448, Note_on_c, 11, 57, 0
7, 164640, Note_on_c, 11, 69, 92
7, 164700, Note_on_c, 11, 69, 0
7, 164700, Note_on_c, 11, 68, 92
7, 164760, Note_on_c, 11, 68, 0
7, 164760, Note_on_c, 11, 69, 92
7, 164820, Note_on_c, 11, 69, 0
7, 164820, Note_on_c, 11, 68, 92
7, 164880, Note_on_c, 11, 68, 0
7, 164880, Note_on_c, 11, 69, 92
7, 164940, Note_on_c, 11, 69, 0
7, 164940, Note_on_c, 11, 68, 92
7, 165000, Note_on_c, 11, 68, 0
7, 165000, Note_on_c, 11, 69, 92
7, 165060, Note_on_c, 11, 69, 0
7, 165060, Note_on_c, 11, 68, 92
7, 165120, Note_on_c, 11, 68, 0
7, 165120, Note_on_c, 11, 69, 92
7, 165180, Note_on_c, 11, 69, 0
7, 165180, Note_on_c, 11, 68, 92
7, 165240, Note_on_c, 11, 68, 0
7, 165240, Note_on_c, 11, 69, 92
7, 165300, Note_on_c, 11, 69, 0
7, 165300, Note_on_c, 11, 68, 92
7, 165360, Note_on_c, 11, 68, 0
7, 165360, Note_on_c, 11, 66, 92
7, 165480, Note_on_c, 11, 66, 0
7, 165480, Note_on_c, 11, 68, 92
7, 165600, Note_on_c, 11, 68, 0
7, 165600, Note_on_c, 11, 69, 92
7, 165840, Note_on_c, 11, 69, 0
7, 165840, Note_on_c, 11, 64, 92
7, 166032, Note_on_c, 11, 64, 0
7, 166080, Note_on_c, 11, 61, 70
7, 166320, Note_on_c, 11, 61, 0
7, 166320, Note_on_c, 11, 64, 70
7, 166560, Note_on_c, 11, 64, 0
7, 166560, Note_on_c, 11, 61, 58
7, 166800, Note_on_c, 11, 61, 0
7, 166800, Note_on_c, 11, 64, 58
7, 167040, Note_on_c, 11, 64, 0
7, 167040, Note_on_c, 11, 62, 58
7, 167280, Note_on_c, 11, 62, 0
7, 167280, Note_on_c, 11, 59, 58
7, 167520, Note_on_c, 11, 59, 0
7, 167520, Note_on_c, 11, 62, 58
7, 167760, Note_on_c, 11, 62, 0
7, 167760, Note_on_c, 11, 59, 58
7, 168000, Note_on_c, 11, 59, 0
7, 168000, Note_on_c, 11, 62, 58
7, 168240, Note_on_c, 11, 62, 0
7, 168240, Note_on_c, 11, 59, 58
7, 168480, Note_on_c, 11, 59, 0
7, 168480, Note_on_c, 11, 61, 58
7, 168720, Note_on_c, 11, 61, 0
7, 168720, Note_on_c, 11, 57, 58
7, 168960, Note_on_c, 11, 57, 0
7, 168960, Note_on_c, 11, 61, 58
7, 169200, Note_on_c, 11, 61, 0
7, 169200, Note_on_c, 11, 64, 58
7, 169440, Note_on_c, 11, 64, 0
7, 169440, Note_on_c, 11, 69, 58
7, 169680, Note_on_c, 11, 69, 0
7, 169680, Note_on_c, 11, 73, 58
7, 169920, Note_on_c, 11, 73, 0
7, 169920, Note_on_c, 11, 74, 58
7, 170160, Note_on_c, 11, 74, 0
7, 170160, Note_on_c, 11, 71, 58
7, 170352, Note_on_c, 11, 71, 0
7, 170400, Note_on_c, 11, 68, 58
7, 170640, Note_on_c, 11, 68, 0
7, 170640, Note_on_c, 11, 64, 58
7, 170880, Note_on_c, 11, 64, 0
7, 170880, Note_on_c, 11, 62, 58
7, 171120, Note_on_c, 11, 62, 0
7, 171120, Note_on_c, 11, 59, 58
7, 171360, Note_on_c, 11, 59, 0
7, 171360, Note_on_c, 11, 61, 58
7, 171600, Note_on_c, 11, 61, 0
7, 171600, Note_on_c, 11, 57, 58
7, 171840, Note_on_c, 11, 57, 0
7, 171840, Note_on_c, 11, 61, 58
7, 172080, Note_on_c, 11, 61, 0
7, 172080, Note_on_c, 11, 64, 58
7, 172320, Note_on_c, 11, 64, 0
7, 172320, Note_on_c, 11, 69, 58
7, 172560, Note_on_c, 11, 69, 0
7, 172560, Note_on_c, 11, 73, 58
7, 172800, Note_on_c, 11, 73, 0
7, 172800, Note_on_c, 11, 74, 58
7, 173040, Note_on_c, 11, 74, 0
7, 173040, Note_on_c, 11, 71, 58
7, 173232, Note_on_c, 11, 71, 0
7, 173280, Note_on_c, 11, 68, 58
7, 173520, Note_on_c, 11, 68, 0
7, 173520, Note_on_c, 11, 62, 58
7, 173760, Note_on_c, 11, 62, 0
7, 173760, Note_on_c, 11, 61, 58
7, 174000, Note_on_c, 11, 61, 0
7, 174000, Note_on_c, 11, 64, 58
7, 174240, Note_on_c, 11, 64, 0
7, 174240, Note_on_c, 11, 62, 58
7, 174480, Note_on_c, 11, 62, 0
7, 174480, Note_on_c, 11, 57, 58
7, 174720, Note_on_c, 11, 57, 0
7, 174720, Note_on_c, 11, 62, 58
7, 174960, Note_on_c, 11, 62, 0
7, 174960, Note_on_c, 11, 64, 58
7, 175152, Note_on_c, 11, 64, 0
7, 175200, Note_on_c, 11, 66, 58
7, 175440, Note_on_c, 11, 66, 0
7, 175440, Note_on_c, 11, 62, 58
7, 175632, Note_on_c, 11, 62, 0
7, 175680, Note_on_c, 11, 64, 58
7, 175920, Note_on_c, 11, 64, 0
7, 175920, Note_on_c, 11, 61, 58
7, 176160, Note_on_c, 11, 61, 0
7, 176160, Note_on_c, 11, 57, 58
7, 176400, Note_on_c, 11, 57, 0
7, 176400, Note_on_c, 11, 64, 58
7, 176592, Note_on_c, 11, 64, 0
7, 176640, Note_on_c, 11, 66, 58
7, 176880, Note_on_c, 11, 66, 0
7, 176880, Note_on_c, 11, 62, 58
7, 177120, Note_on_c, 11, 62, 0
7, 177120, Note_on_c, 11, 57, 58
7, 177360, Note_on_c, 11, 57, 0
7, 177360, Note_on_c, 11, 66, 58
7, 177552, Note_on_c, 11, 66, 0
7, 177600, Note_on_c, 11, 66, 58
7, 177840, Note_on_c, 11, 66, 0
7, 177840, Note_on_c, 11, 60, 58
7, 178080, Note_on_c, 11, 60, 0
7, 178080, Note_on_c, 11, 57, 58
7, 178320, Note_on_c, 11, 57, 0
7, 178320, Note_on_c, 11, 66, 58
7, 178560, Note_on_c, 11, 66, 0
7, 178560, Note_on_c, 11, 64, 58
7, 178944, Note_on_c, 11, 64, 0
7, 184800, Note_on_c, 11, 64, 58
7, 185280, Note_on_c, 11, 64, 0
7, 185280, Note_on_c, 11, 62, 58
7, 185760, Note_on_c, 11, 62, 0
7, 185760, Note_on_c, 11, 61, 58
7, 186144, Note_on_c, 11, 61, 0
7, 186240, Note_on_c, 11, 74, 92
7, 186300, Note_on_c, 11, 74, 0
7, 186300, Note_on_c, 11, 73, 92
7, 186360, Note_on_c, 11, 73, 0
7, 186360, Note_on_c, 11, 74, 92
7, 186420, Note_on_c, 11, 74, 0
7, 186420, Note_on_c, 11, 73, 92
7, 186480, Note_on_c, 11, 73, 0
7, 186480, Note_on_c, 11, 74, 92
7, 186540, Note_on_c, 11, 74, 0
7, 186540, Note_on_c, 11, 73, 92
7, 186600, Note_on_c, 11, 73, 0
7, 186600, Note_on_c, 11, 74, 92
7, 186660, Note_on_c, 11, 74, 0
7, 186660, Note_on_c, 11, 73, 92
7, 186720, Note_on_c, 11, 73, 0
7, 186720, Note_on_c, 11, 74, 92
7, 186780, Note_on_c, 11, 74, 0
7, 186780, Note_on_c, 11, 73, 92
7, 186840, Note_on_c, 11, 73, 0
7, 186840, Note_on_c, 11, 74, 92
7, 186900, Note_on_c, 11, 74, 0
7, 186900, Note_on_c, 11, 73, 92
7, 186960, Note_on_c, 11, 73, 0
7, 186960, Note_on_c, 11, 71, 92
7, 187080, Note_on_c, 11, 71, 0
7, 187080, Note_on_c, 11, 73, 92
7, 187200, Note_on_c, 11, 73, 0
7, 187200, Note_on_c, 11, 76, 92
7, 187488, Note_on_c, 11, 76, 0
7, 187680, Note_on_c, 11, 64, 92
7, 187968, Note_on_c, 11, 64, 0
7, 189120, Note_on_c, 11, 73, 92
7, 189180, Note_on_c, 11, 73, 0
7, 189180, Note_on_c, 11, 71, 92
7, 189240, Note_on_c, 11, 71, 0
7, 189240, Note_on_c, 11, 73, 92
7, 189300, Note_on_c, 11, 73, 0
7, 189300, Note_on_c, 11, 71, 92
7, 189360, Note_on_c, 11, 71, 0
7, 189360, Note_on_c, 11, 73, 92
7, 189420, Note_on_c, 11, 73, 0
7, 189420, Note_on_c, 11, 71, 92
7, 189480, Note_on_c, 11, 71, 0
7, 189480, Note_on_c, 11, 73, 92
7, 189540, Note_on_c, 11, 73, 0
7, 189540, Note_on_c, 11, 71, 92
7, 189600, Note_on_c, 11, 71, 0
7, 189600, Note_on_c, 11, 73, 92
7, 189660, Note_on_c, 11, 73, 0
7, 189660, Note_on_c, 11, 71, 92
7, 189720, Note_on_c, 11, 71, 0
7, 189720, Note_on_c, 11, 73, 92
7, 189780, Note_on_c, 11, 73, 0
7, 189780, Note_on_c, 11, 71, 92
7, 189840, Note_on_c, 11, 71, 0
7, 189840, Note_on_c, 11, 69, 92
7, 189960, Note_on_c, 11, 69, 0
7, 189960, Note_on_c, 11, 71, 92
7, 190080, Note_on_c, 11, 71, 0
7, 190080, Note_on_c, 11, 68, 92
7, 190368, Note_on_c, 11, 68, 0
7, 190560, Note_on_c, 11, 56, 92
7, 190848, Note_on_c, 11, 56, 0
7, 192000, Note_on_c, 11, 74, 92
7, 192060, Note_on_c, 11, 74, 0
7, 192060, Note_on_c, 11, 73, 92
7, 192120, Note_on_c, 11, 73, 0
7, 192120, Note_on_c, 11, 74, 92
7, 192180, Note_on_c, 11, 74, 0
7, 192180, Note_on_c, 11, 73, 92
7, 192240, Note_on_c, 11, 73, 0
7, 192240, Note_on_c, 11, 74, 92
7, 192300, Note_on_c, 11, 74, 0
7, 192300, Note_on_c, 11, 73, 92
7, 192360, Note_on_c, 11, 73, 0
7, 192360, Note_on_c, 11, 74, 92
7, 192420, Note_on_c, 11, 74, 0
7, 192420, Note_on_c, 11, 73, 92
7, 192480, Note_on_c, 11, 73, 0
7, 192480, Note_on_c, 11, 74, 92
7, 192540, Note_on_c, 11, 74, 0
7, 192540, Note_on_c, 11, 73, 92
7, 192600, Note_on_c, 11, 73, 0
7, 192600, Note_on_c, 11, 74, 92
7, 192660, Note_on_c, 11, 74, 0
7, 192660, Note_on_c, 11, 73, 92
7, 192720, Note_on_c, 11, 73, 0
7, 192720, Note_on_c, 11, 71, 92
7, 192840, Note_on_c, 11, 71, 0
7, 192840, Note_on_c, 11, 73, 92
7, 192960, Note_on_c, 11, 73, 0
7, 192960, Note_on_c, 11, 61, 92
7, 193248, Note_on_c, 11, 61, 0
7, 193440, Note_on_c, 11, 73, 92
7, 193728, Note_on_c, 11, 73, 0
7, 194880, Note_on_c, 11, 76, 92
7, 194940, Note_on_c, 11, 76, 0
7, 194940, Note_on_c, 11, 74, 92
7, 195000, Note_on_c, 11, 74, 0
7, 195000, Note_on_c, 11, 76, 92
7, 195060, Note_on_c, 11, 76, 0
7, 195060, Note_on_c, 11, 74, 92
7, 195120, Note_on_c, 11, 74, 0
7, 195120, Note_on_c, 11, 76, 92
7, 195180, Note_on_c, 11, 76, 0
7, 195180, Note_on_c, 11, 74, 92
7, 195240, Note_on_c, 11, 74, 0
7, 195240, Note_on_c, 11, 76, 92
7, 195300, Note_on_c, 11, 76, 0
7, 195300, Note_on_c, 11, 74, 92
7, 195360, Note_on_c, 11, 74, 0
7, 195360, Note_on_c, 11, 76, 92
7, 195420, Note_on_c, 11, 76, 0
7, 195420, Note_on_c, 11, 74, 92
7, 195480, Note_on_c, 11, 74, 0
7, 195480, Note_on_c, 11, 76, 92
7, 195540, Note_on_c, 11, 76, 0
7, 195540, Note_on_c, 11, 74, 92
7, 195600, Note_on_c, 11, 74, 0
7, 195600, Note_on_c, 11, 73, 92
7, 195720, Note_on_c, 11, 73, 0
7, 195720, Note_on_c, 11, 74, 92
7, 195840, Note_on_c, 11, 74, 0
7, 195840, Note_on_c, 11, 62, 92
7, 196128, Note_on_c, 11, 62, 0
7, 196320, Note_on_c, 11, 74, 92
7, 196608, Note_on_c, 11, 74, 0
7, 197760, Note_on_c, 11, 74, 92
7, 197820, Note_on_c, 11, 74, 0
7, 197820, Note_on_c, 11, 73, 92
7, 197880, Note_on_c, 11, 73, 0
7, 197880, Note_on_c, 11, 74, 92
7, 197940, Note_on_c, 11, 74, 0
7, 197940, Note_on_c, 11, 73, 92
7, 198000, Note_on_c, 11, 73, 0
7, 198000, Note_on_c, 11, 74, 92
7, 198060, Note_on_c, 11, 74, 0
7, 198060, Note_on_c, 11, 73, 92
7, 198120, Note_on_c, 11, 73, 0
7, 198120, Note_on_c, 11, 74, 92
7, 198180, Note_on_c, 11, 74, 0
7, 198180, Note_on_c, 11, 73, 92
7, 198240, Note_on_c, 11, 73, 0
7, 198240, Note_on_c, 11, 74, 92
7, 198300, Note_on_c, 11, 74, 0
7, 198300, Note_on_c, 11, 73, 92
7, 198360, Note_on_c, 11, 73, 0
7, 198360, Note_on_c, 11, 74, 92
7, 198420, Note_on_c, 11, 74, 0
7, 198420, Note_on_c, 11, 73, 92
7, 198480, Note_on_c, 11, 73, 0
7, 198480, Note_on_c, 11, 71, 92
7, 198600, Note_on_c, 11, 71, 0
7, 198600, Note_on_c, 11, 73, 92
7, 198720, Note_on_c, 11, 73, 0
7, 198720, Note_on_c, 11, 61, 92
7, 199008, Note_on_c, 11, 61, 0
7, 199200, Note_on_c, 11, 73, 92
7, 199488, Note_on_c, 11, 73, 0
7, 199680, Note_on_c, 11, 73, 92
7, 200064, Note_on_c, 11, 73, 0
7, 200160, Note_on_c, 11, 71, 92
7, 200544, Note_on_c, 11, 71, 0
7, 200640, Note_on_c, 11, 74, 92
7, 200928, Note_on_c, 11, 74, 0
7, 201000, Note_on_c, 11, 71, 92
7, 201096, Note_on_c, 11, 71, 0
7, 201120, Note_on_c, 11, 69, 92
7, 201504, Note_on_c, 11, 69, 0
7, 201600, Note_on_c, 11, 73, 92
7, 201888, Note_on_c, 11, 73, 0
7, 202080, Note_on_c, 11, 66, 92
7, 202368, Note_on_c, 11, 66, 0
7, 202560, Note_on_c, 11, 73, 92
7, 202560, Note_on_c, 11, 64, 92
7, 202848, Note_on_c, 11, 64, 0
7, 202848, Note_on_c, 11, 73, 0
7, 203040, Note_on_c, 11, 57, 70
7, 203040, Note_on_c, 11, 64, 70
7, 203040, Note_on_c, 11, 73, 70
7, 203424, Note_on_c, 11, 73, 0
7, 203424, Note_on_c, 11, 64, 0
7, 203424, Note_on_c, 11, 57, 0
7, 204960, Note_on_c, 11, 61, 70
7, 205344, Note_on_c, 11, 61, 0
7, 205440, Note_on_c, 11, 61, 70
7, 205824, Note_on_c, 11, 61, 0
7, 205920, Note_on_c, 11, 64, 70
7, 206880, Note_on_c, 11, 64, 0
7, 206880, Note_on_c, 11, 57, 70
7, 207360, Note_on_c, 11, 57, 0
7, 207840, Note_on_c, 11, 62, 70
7, 208224, Note_on_c, 11, 62, 0
7, 208320, Note_on_c, 11, 62, 70
7, 208704, Note_on_c, 11, 62, 0
7, 208800, Note_on_c, 11, 69, 70
7, 209760, Note_on_c, 11, 69, 0
7, 209760, Note_on_c, 11, 62, 70
7, 210240, Note_on_c, 11, 62, 0
7, 210720, Note_on_c, 11, 61, 70
7, 211104, Note_on_c, 11, 61, 0
7, 211200, Note_on_c, 11, 61, 70
7, 211584, Note_on_c, 11, 61, 0
7, 211680, Note_on_c, 11, 66, 58
7, 211968, Note_on_c, 11, 66, 0
7, 213120, Note_on_c, 11, 62, 58
7, 213408, Note_on_c, 11, 62, 0
7, 214560, Note_on_c, 11, 69, 92
7, 214656, Note_on_c, 11, 69, 0
7, 214680, Note_on_c, 11, 69, 92
7, 214776, Note_on_c, 11, 69, 0
7, 214800, Note_on_c, 11, 69, 92
7, 214896, Note_on_c, 11, 69, 0
7, 214920, Note_on_c, 11, 69, 92
7, 215016, Note_on_c, 11, 69, 0
7, 215040, Note_on_c, 11, 73, 92
7, 215136, Note_on_c, 11, 73, 0
7, 215160, Note_on_c, 11, 73, 92
7, 215256, Note_on_c, 11, 73, 0
7, 215280, Note_on_c, 11, 73, 92
7, 215376, Note_on_c, 11, 73, 0
7, 215400, Note_on_c, 11, 73, 92
7, 215496, Note_on_c, 11, 73, 0
7, 215520, Note_on_c, 11, 66, 92
7, 215616, Note_on_c, 11, 66, 0
7, 215640, Note_on_c, 11, 66, 92
7, 215736, Note_on_c, 11, 66, 0
7, 215760, Note_on_c, 11, 66, 92
7, 215856, Note_on_c, 11, 66, 0
7, 215880, Note_on_c, 11, 66, 92
7, 215976, Note_on_c, 11, 66, 0
7, 216000, Note_on_c, 11, 69, 92
7, 216096, Note_on_c, 11, 69, 0
7, 216120, Note_on_c, 11, 69, 92
7, 216216, Note_on_c, 11, 69, 0
7, 216240, Note_on_c, 11, 69, 92
7, 216336, Note_on_c, 11, 69, 0
7, 216360, Note_on_c, 11, 69, 92
7, 216456, Note_on_c, 11, 69, 0
7, 216480, Note_on_c, 11, 63, 92
7, 216576, Note_on_c, 11, 63, 0
7, 216600, Note_on_c, 11, 63, 92
7, 216696, Note_on_c, 11, 63, 0
7, 216720, Note_on_c, 11, 63, 92
7, 216816, Note_on_c, 11, 63, 0
7, 216840, Note_on_c, 11, 63, 92
7, 216936, Note_on_c, 11, 63, 0
7, 216960, Note_on_c, 11, 66, 92
7, 217056, Note_on_c, 11, 66, 0
7, 217080, Note_on_c, 11, 66, 92
7, 217176, Note_on_c, 11, 66, 0
7, 217200, Note_on_c, 11, 66, 92
7, 217296, Note_on_c, 11, 66, 0
7, 217320, Note_on_c, 11, 66, 92
7, 217416, Note_on_c, 11, 66, 0
7, 217440, Note_on_c, 11, 64, 92
7, 217536, Note_on_c, 11, 64, 0
7, 217560, Note_on_c, 11, 64, 92
7, 217560, Note_on_c, 11, 73, 92
7, 217656, Note_on_c, 11, 73, 0
7, 217656, Note_on_c, 11, 64, 0
7, 217680, Note_on_c, 11, 73, 92
7, 217680, Note_on_c, 11, 64, 92
7, 217776, Note_on_c, 11, 64, 0
7, 217776, Note_on_c, 11, 73, 0
7, 217800, Note_on_c, 11, 64, 92
7, 217800, Note_on_c, 11, 73, 92
7, 217896, Note_on_c, 11, 73, 0
7, 217896, Note_on_c, 11, 64, 0
7, 217920, Note_on_c, 11, 64, 92
7, 217920, Note_on_c, 11, 73, 92
7, 218016, Note_on_c, 11, 73, 0
7, 218016, Note_on_c, 11, 64, 0
7, 218040, Note_on_c, 11, 64, 92
7, 218040, Note_on_c, 11, 73, 92
7, 218136, Note_on_c, 11, 73, 0
7, 218136, Note_on_c, 11, 64, 0
7, 218160, Note_on_c, 11, 73, 92
7, 218160, Note_on_c, 11, 64, 92
7, 218256, Note_on_c, 11, 64, 0
7, 218256, Note_on_c, 11, 73, 0
7, 218280, Note_on_c, 11, 73, 92
7, 218280, Note_on_c, 11, 64, 92
7, 218376, Note_on_c, 11, 64, 0
7, 218376, Note_on_c, 11, 73, 0
7, 218400, Note_on_c, 11, 73, 92
7, 218400, Note_on_c, 11, 64, 92
7, 218496, Note_on_c, 11, 64, 0
7, 218496, Note_on_c, 11, 73, 0
7, 218520, Note_on_c, 11, 73, 92
7, 218520, Note_on_c, 11, 64, 92
7, 218616, Note_on_c, 11, 64, 0
7, 218616, Note_on_c, 11, 73, 0
7, 218640, Note_on_c, 11, 64, 92
7, 218640, Note_on_c, 11, 73, 92
7, 218736, Note_on_c, 11, 73, 0
7, 218736, Note_on_c, 11, 64, 0
7, 218760, Note_on_c, 11, 73, 92
7, 218760, Note_on_c, 11, 64, 92
7, 218856, Note_on_c, 11, 64, 0
7, 218856, Note_on_c, 11, 73, 0
7, 218880, Note_on_c, 11, 74, 92
7, 218880, Note_on_c, 11, 64, 92
7, 218976, Note_on_c, 11, 64, 0
7, 218976, Note_on_c, 11, 74, 0
7, 219000, Note_on_c, 11, 64, 92
7, 219000, Note_on_c, 11, 74, 92
7, 219096, Note_on_c, 11, 74, 0
7, 219096, Note_on_c, 11, 64, 0
7, 219120, Note_on_c, 11, 74, 92
7, 219120, Note_on_c, 11, 64, 92
7, 219216, Note_on_c, 11, 64, 0
7, 219216, Note_on_c, 11, 74, 0
7, 219240, Note_on_c, 11, 64, 92
7, 219240, Note_on_c, 11, 74, 92
7, 219336, Note_on_c, 11, 74, 0
7, 219336, Note_on_c, 11, 64, 0
7, 219360, Note_on_c, 11, 74, 92
7, 219360, Note_on_c, 11, 64, 92
7, 219456, Note_on_c, 11, 64, 0
7, 219456, Note_on_c, 11, 74, 0
7, 219480, Note_on_c, 11, 64, 92
7, 219480, Note_on_c, 11, 74, 92
7, 219576, Note_on_c, 11, 74, 0
7, 219576, Note_on_c, 11, 64, 0
7, 219600, Note_on_c, 11, 74, 92
7, 219600, Note_on_c, 11, 64, 92
7, 219696, Note_on_c, 11, 64, 0
7, 219696, Note_on_c, 11, 74, 0
7, 219720, Note_on_c, 11, 64, 92
7, 219720, Note_on_c, 11, 74, 92
7, 219816, Note_on_c, 11, 74, 0
7, 219816, Note_on_c, 11, 64, 0
7, 219840, Note_on_c, 11, 64, 92
7, 219840, Note_on_c, 11, 74, 92
7, 219936, Note_on_c, 11, 74, 0
7, 219936, Note_on_c, 11, 64, 0
7, 219960, Note_on_c, 11, 64, 92
7, 219960, Note_on_c, 11, 74, 92
7, 220056, Note_on_c, 11, 74, 0
7, 220056, Note_on_c, 11, 64, 0
7, 220080, Note_on_c, 11, 74, 92
7, 220080, Note_on_c, 11, 64, 92
7, 220176, Note_on_c, 11, 64, 0
7, 220176, Note_on_c, 11, 74, 0
7, 220200, Note_on_c, 11, 74, 92
7, 220200, Note_on_c, 11, 64, 92
7, 220296, Note_on_c, 11, 64, 0
7, 220296, Note_on_c, 11, 74, 0
7, 220320, Note_on_c, 11, 69, 100
7, 220560, Note_on_c, 11, 69, 0
7, 220560, Note_on_c, 11, 81, 80
7, 220704, Note_on_c, 11, 81, 0
7, 220800, Note_on_c, 11, 69, 80
7, 220944, Note_on_c, 11, 69, 0
7, 221040, Note_on_c, 11, 69, 80
7, 221184, Note_on_c, 11, 69, 0
7, 221280, Note_on_c, 11, 69, 80
7, 221424, Note_on_c, 11, 69, 0
7, 221520, Note_on_c, 11, 69, 80
7, 221664, Note_on_c, 11, 69, 0
7, 221760, Note_on_c, 11, 69, 100
7, 222000, Note_on_c, 11, 69, 0
7, 222000, Note_on_c, 11, 81, 80
7, 222144, Note_on_c, 11, 81, 0
7, 222240, Note_on_c, 11, 69, 80
7, 222384, Note_on_c, 11, 69, 0
7, 222480, Note_on_c, 11, 69, 80
7, 222624, Note_on_c, 11, 69, 0
7, 222720, Note_on_c, 11, 69, 80
7, 222864, Note_on_c, 11, 69, 0
7, 222960, Note_on_c, 11, 69, 80
7, 223104, Note_on_c, 11, 69, 0
7, 223200, Note_on_c, 11, 69, 100
7, 223440, Note_on_c, 11, 69, 0
7, 223440, Note_on_c, 11, 81, 80
7, 223584, Note_on_c, 11, 81, 0
7, 223680, Note_on_c, 11, 69, 80
7, 223824, Note_on_c, 11, 69, 0
7, 223920, Note_on_c, 11, 69, 80
7, 224064, Note_on_c, 11, 69, 0
7, 224160, Note_on_c, 11, 69, 80
7, 224304, Note_on_c, 11, 69, 0
7, 224400, Note_on_c, 11, 69, 80
7, 224544, Note_on_c, 11, 69, 0
7, 224640, Note_on_c, 11, 69, 100
7, 224928, Note_on_c, 11, 69, 0
7, 225120, Note_on_c, 11, 57, 80
7, 225408, Note_on_c, 11, 57, 0
7, 226080, Note_on_c, 11, 64, 58
7, 227448, Note_on_c, 11, 64, 0
7, 227520, Note_on_c, 11, 62, 58
7, 227880, Note_on_c, 11, 62, 0
7, 227880, Note_on_c, 11, 64, 58
7, 227976, Note_on_c, 11, 64, 0
7, 228000, Note_on_c, 11, 61, 58
7, 228360, Note_on_c, 11, 61, 0
7, 228360, Note_on_c, 11, 62, 58
7, 228456, Note_on_c, 11, 62, 0
7, 228480, Note_on_c, 11, 59, 58
7, 228864, Note_on_c, 11, 59, 0
7, 228960, Note_on_c, 11, 62, 58
7, 230328, Note_on_c, 11, 62, 0
7, 230400, Note_on_c, 11, 61, 58
7, 230760, Note_on_c, 11, 61, 0
7, 230760, Note_on_c, 11, 62, 58
7, 230856, Note_on_c, 11, 62, 0
7, 230880, Note_on_c, 11, 59, 58
7, 231240, Note_on_c, 11, 59, 0
7, 231240, Note_on_c, 11, 61, 58
7, 231336, Note_on_c, 11, 61, 0
7, 231360, Note_on_c, 11, 57, 58
7, 231744, Note_on_c, 11, 57, 0
7, 233280, Note_on_c, 11, 69, 58
7, 234648, Note_on_c, 11, 69, 0
7, 234720, Note_on_c, 11, 67, 58
7, 235080, Note_on_c, 11, 67, 0
7, 235080, Note_on_c, 11, 69, 58
7, 235176, Note_on_c, 11, 69, 0
7, 235200, Note_on_c, 11, 66, 58
7, 235560, Note_on_c, 11, 66, 0
7, 235560, Note_on_c, 11, 67, 58
7, 235656, Note_on_c, 11, 67, 0
7, 235680, Note_on_c, 11, 64, 58
7, 236064, Note_on_c, 11, 64, 0
7, 236160, Note_on_c, 11, 67, 58
7, 237528, Note_on_c, 11, 67, 0
7, 237600, Note_on_c, 11, 66, 58
7, 237960, Note_on_c, 11, 66, 0
7, 237960, Note_on_c, 11, 67, 58
7, 238056, Note_on_c, 11, 67, 0
7, 238080, Note_on_c, 11, 64, 58
7, 238440, Note_on_c, 11, 64, 0
7, 238440, Note_on_c, 11, 66, 58
7, 238536, Note_on_c, 11, 66, 0
7, 238560, Note_on_c, 11, 62, 58
7, 238944, Note_on_c, 11, 62, 0
7, 240480, Note_on_c, 11, 74, 58
7, 241848, Note_on_c, 11, 74, 0
7, 241920, Note_on_c, 11, 72, 58
7, 242280, Note_on_c, 11, 72, 0
7, 242280, Note_on_c, 11, 74, 58
7, 242376, Note_on_c, 11, 74, 0
7, 242400, Note_on_c, 11, 71, 58
7, 242760, Note_on_c, 11, 71, 0
7, 242760, Note_on_c, 11, 72, 58
7, 242856, Note_on_c, 11, 72, 0
7, 242880, Note_on_c, 11, 69, 58
7, 243264, Note_on_c, 11, 69, 0
7, 243360, Note_on_c, 11, 72, 58
7, 244728, Note_on_c, 11, 72, 0
7, 244800, Note_on_c, 11, 71, 58
7, 245160, Note_on_c, 11, 71, 0
7, 245160, Note_on_c, 11, 72, 58
7, 245256, Note_on_c, 11, 72, 0
7, 245280, Note_on_c, 11, 69, 58
7, 245640, Note_on_c, 11, 69, 0
7, 245640, Note_on_c, 11, 71, 58
7, 245736, Note_on_c, 11, 71, 0
7, 245760, Note_on_c, 11, 67, 58
7, 246144, Note_on_c, 11, 67, 0
7, 247680, Note_on_c, 11, 76, 105
7, 249048, Note_on_c, 11, 76, 0
7, 249120, Note_on_c, 11, 75, 105
7, 249480, Note_on_c, 11, 75, 0
7, 249480, Note_on_c, 11, 76, 105
7, 249576, Note_on_c, 11, 76, 0
7, 249600, Note_on_c, 11, 73, 105
7, 249960, Note_on_c, 11, 73, 0
7, 249960, Note_on_c, 11, 75, 105
7, 250056, Note_on_c, 11, 75, 0
7, 250080, Note_on_c, 11, 71, 105
7, 250464, Note_on_c, 11, 71, 0
7, 250560, Note_on_c, 11, 74, 105
7, 251928, Note_on_c, 11, 74, 0
7, 252000, Note_on_c, 11, 73, 105
7, 252360, Note_on_c, 11, 73, 0
7, 252360, Note_on_c, 11, 74, 105
7, 252456, Note_on_c, 11, 74, 0
7, 252480, Note_on_c, 11, 71, 105
7, 252840, Note_on_c, 11, 71, 0
7, 252840, Note_on_c, 11, 73, 105
7, 252936, Note_on_c, 11, 73, 0
7, 252960, Note_on_c, 11, 69, 105
7, 253344, Note_on_c, 11, 69, 0
7, 253920, Note_on_c, 11, 69, 105
7, 254304, Note_on_c, 11, 69, 0
7, 254400, Note_on_c, 11, 81, 105
7, 254760, Note_on_c, 11, 81, 0
7, 254760, Note_on_c, 11, 78, 105
7, 254856, Note_on_c, 11, 78, 0
7, 254880, Note_on_c, 11, 76, 105
7, 255240, Note_on_c, 11, 76, 0
7, 255240, Note_on_c, 11, 78, 105
7, 255336, Note_on_c, 11, 78, 0
7, 255360, Note_on_c, 11, 74, 105
7, 255720, Note_on_c, 11, 74, 0
7, 255720, Note_on_c, 11, 76, 105
7, 255816, Note_on_c, 11, 76, 0
7, 255840, Note_on_c, 11, 73, 105
7, 256224, Note_on_c, 11, 73, 0
7, 256800, Note_on_c, 11, 69, 105
7, 257184, Note_on_c, 11, 69, 0
7, 257280, Note_on_c, 11, 81, 105
7, 257640, Note_on_c, 11, 81, 0
7, 257640, Note_on_c, 11, 78, 105
7, 257736, Note_on_c, 11, 78, 0
7, 257760, Note_on_c, 11, 74, 105
7, 258120, Note_on_c, 11, 74, 0
7, 258120, Note_on_c, 11, 76, 105
7, 258216, Note_on_c, 11, 76, 0
7, 258240, Note_on_c, 11, 72, 105
7, 258600, Note_on_c, 11, 72, 0
7, 258600, Note_on_c, 11, 74, 105
7, 258696, Note_on_c, 11, 74, 0
7, 258720, Note_on_c, 11, 71, 105
7, 259104, Note_on_c, 11, 71, 0
7, 259200, Note_on_c, 11, 59, 58
7, 259584, Note_on_c, 11, 59, 0
7, 262080, Note_on_c, 11, 62, 58
7, 263520, Note_on_c, 11, 62, 0
7, 263520, Note_on_c, 11, 61, 58
7, 264240, Note_on_c, 11, 61, 0
7, 264240, Note_on_c, 11, 64, 58
7, 264480, Note_on_c, 11, 64, 0
7, 264480, Note_on_c, 11, 61, 58
7, 264960, Note_on_c, 11, 61, 0
7, 264960, Note_on_c, 11, 64, 58
7, 265344, Note_on_c, 11, 64, 0
7, 267840, Note_on_c, 11, 62, 58
7, 269280, Note_on_c, 11, 62, 0
7, 269280, Note_on_c, 11, 61, 58
7, 269664, Note_on_c, 11, 61, 0
7, 275040, Note_on_c, 11, 62, 92
7, 275040, Note_on_c, 11, 69, 92
7, 275040, Note_on_c, 11, 78, 92
7, 275328, Note_on_c, 11, 78, 0
7, 275328, Note_on_c, 11, 69, 0
7, 275328, Note_on_c, 11, 62, 0
7, 275400, Note_on_c, 11, 69, 92
7, 275400, Note_on_c, 11, 78, 92
7, 275496, Note_on_c, 11, 78, 0
7, 275496, Note_on_c, 11, 69, 0
7, 275520, Note_on_c, 11, 69, 92
7, 275520, Note_on_c, 11, 78, 92
7, 275904, Note_on_c, 11, 78, 0
7, 275904, Note_on_c, 11, 69, 0
7, 276480, Note_on_c, 11, 76, 92
7, 276480, Note_on_c, 11, 69, 92
7, 276768, Note_on_c, 11, 69, 0
7, 276768, Note_on_c, 11, 76, 0
7, 276840, Note_on_c, 11, 69, 92
7, 276840, Note_on_c, 11, 76, 92
7, 276936, Note_on_c, 11, 76, 0
7, 276936, Note_on_c, 11, 69, 0
7, 276960, Note_on_c, 11, 69, 92
7, 276960, Note_on_c, 11, 76, 92
7, 277344, Note_on_c, 11, 76, 0
7, 277344, Note_on_c, 11, 69, 0
7, 277920, Note_on_c, 11, 74, 92
7, 278208, Note_on_c, 11, 74, 0
7, 278400, Note_on_c, 11, 73, 92
7, 278688, Note_on_c, 11, 73, 0
7, 278880, Note_on_c, 11, 71, 92
7, 279168, Note_on_c, 11, 71, 0
7, 279360, Note_on_c, 11, 67, 92
7, 279360, Note_on_c, 11, 57, 92
7, 279840, Note_on_c, 11, 67, 0
7, 279840, Note_on_c, 11, 66, 92
7, 280152, Note_on_c, 11, 66, 0
7, 280152, Note_on_c, 11, 57, 0
7, 280800, Note_on_c, 11, 83, 127
7, 281040, Note_on_c, 11, 83, 0
7, 281040, Note_on_c, 11, 81, 58
7, 281280, Note_on_c, 11, 81, 0
7, 281280, Note_on_c, 11, 79, 58
7, 281520, Note_on_c, 11, 79, 0
7, 281520, Note_on_c, 11, 78, 58
7, 281712, Note_on_c, 11, 78, 0
7, 281760, Note_on_c, 11, 78, 58
7, 281904, Note_on_c, 11, 78, 0
7, 282000, Note_on_c, 11, 78, 58
7, 282144, Note_on_c, 11, 78, 0
7, 282240, Note_on_c, 11, 79, 98
7, 282480, Note_on_c, 11, 79, 0
7, 282480, Note_on_c, 11, 78, 58
7, 282720, Note_on_c, 11, 78, 0
7, 282720, Note_on_c, 11, 76, 58
7, 282960, Note_on_c, 11, 76, 0
7, 282960, Note_on_c, 11, 74, 58
7, 283152, Note_on_c, 11, 74, 0
7, 283200, Note_on_c, 11, 74, 58
7, 283344, Note_on_c, 11, 74, 0
7, 283440, Note_on_c, 11, 74, 58
7, 283584, Note_on_c, 11, 74, 0
7, 283680, Note_on_c, 11, 78, 92
7, 283800, Note_on_c, 11, 78, 0
7, 283800, Note_on_c, 11, 76, 92
7, 284034, Note_on_c, 11, 76, 0
7, 284160, Note_on_c, 11, 74, 92
7, 284472, Note_on_c, 11, 74, 0
7, 284640, Note_on_c, 11, 73, 92
7, 284952, Note_on_c, 11, 73, 0
7, 285120, Note_on_c, 11, 74, 80
7, 285240, Note_on_c, 11, 74, 0
7, 285240, Note_on_c, 11, 73, 80
7, 285360, Note_on_c, 11, 73, 0
7, 285360, Note_on_c, 11, 71, 80
7, 285480, Note_on_c, 11, 71, 0
7, 285480, Note_on_c, 11, 69, 80
7, 285576, Note_on_c, 11, 69, 0
7, 285600, Note_on_c, 11, 74, 80
7, 285720, Note_on_c, 11, 74, 0
7, 285720, Note_on_c, 11, 73, 80
7, 285840, Note_on_c, 11, 73, 0
7, 285840, Note_on_c, 11, 71, 80
7, 285960, Note_on_c, 11, 71, 0
7, 285960, Note_on_c, 11, 69, 80
7, 286056, Note_on_c, 11, 69, 0
7, 286080, Note_on_c, 11, 74, 80
7, 286464, Note_on_c, 11, 74, 0
7, 286560, Note_on_c, 11, 71, 92
7, 286800, Note_on_c, 11, 71, 0
7, 286800, Note_on_c, 11, 69, 92
7, 287040, Note_on_c, 11, 69, 0
7, 287040, Note_on_c, 11, 67, 92
7, 287280, Note_on_c, 11, 67, 0
7, 287280, Note_on_c, 11, 66, 92
7, 287472, Note_on_c, 11, 66, 0
7, 287520, Note_on_c, 11, 66, 92
7, 287664, Note_on_c, 11, 66, 0
7, 287760, Note_on_c, 11, 66, 92
7, 287904, Note_on_c, 11, 66, 0
7, 288000, Note_on_c, 11, 69, 92
7, 288240, Note_on_c, 11, 69, 0
7, 288240, Note_on_c, 11, 67, 92
7, 288480, Note_on_c, 11, 67, 0
7, 288480, Note_on_c, 11, 72, 92
7, 288720, Note_on_c, 11, 72, 0
7, 288720, Note_on_c, 11, 71, 92
7, 288912, Note_on_c, 11, 71, 0
7, 288960, Note_on_c, 11, 71, 92
7, 289104, Note_on_c, 11, 71, 0
7, 289200, Note_on_c, 11, 71, 92
7, 289344, Note_on_c, 11, 71, 0
7, 289440, Note_on_c, 11, 67, 92
7, 289680, Note_on_c, 11, 67, 0
7, 289680, Note_on_c, 11, 66, 92
7, 289920, Note_on_c, 11, 66, 0
7, 289920, Note_on_c, 11, 64, 92
7, 290160, Note_on_c, 11, 64, 0
7, 290160, Note_on_c, 11, 63, 92
7, 290352, Note_on_c, 11, 63, 0
7, 290400, Note_on_c, 11, 63, 92
7, 290544, Note_on_c, 11, 63, 0
7, 290640, Note_on_c, 11, 63, 92
7, 290784, Note_on_c, 11, 63, 0
7, 290880, Note_on_c, 11, 66, 92
7, 291120, Note_on_c, 11, 66, 0
7, 291120, Note_on_c, 11, 64, 92
7, 291360, Note_on_c, 11, 64, 0
7, 291360, Note_on_c, 11, 69, 92
7, 291600, Note_on_c, 11, 69, 0
7, 291600, Note_on_c, 11, 67, 92
7, 291792, Note_on_c, 11, 67, 0
7, 291840, Note_on_c, 11, 67, 92
7, 291984, Note_on_c, 11, 67, 0
7, 292080, Note_on_c, 11, 67, 92
7, 292224, Note_on_c, 11, 67, 0
7, 292320, Note_on_c, 11, 66, 92
7, 292560, Note_on_c, 11, 66, 0
7, 292560, Note_on_c, 11, 64, 92
7, 292800, Note_on_c, 11, 64, 0
7, 292800, Note_on_c, 11, 62, 92
7, 293040, Note_on_c, 11, 62, 0
7, 293040, Note_on_c, 11, 61, 92
7, 293232, Note_on_c, 11, 61, 0
7, 293280, Note_on_c, 11, 61, 92
7, 293424, Note_on_c, 11, 61, 0
7, 293520, Note_on_c, 11, 61, 92
7, 293664, Note_on_c, 11, 61, 0
7, 293760, Note_on_c, 11, 64, 92
7, 294000, Note_on_c, 11, 64, 0
7, 294000, Note_on_c, 11, 62, 92
7, 294240, Note_on_c, 11, 62, 0
7, 294240, Note_on_c, 11, 67, 92
7, 294480, Note_on_c, 11, 67, 0
7, 294480, Note_on_c, 11, 66, 92
7, 294672, Note_on_c, 11, 66, 0
7, 294720, Note_on_c, 11, 66, 92
7, 294864, Note_on_c, 11, 66, 0
7, 294960, Note_on_c, 11, 66, 92
7, 295104, Note_on_c, 11, 66, 0
7, 295200, Note_on_c, 11, 71, 92
7, 295296, Note_on_c, 11, 71, 0
7, 295320, Note_on_c, 11, 71, 92
7, 295416, Note_on_c, 11, 71, 0
7, 295440, Note_on_c, 11, 71, 92
7, 295536, Note_on_c, 11, 71, 0
7, 295560, Note_on_c, 11, 71, 92
7, 295656, Note_on_c, 11, 71, 0
7, 295680, Note_on_c, 11, 76, 92
7, 295776, Note_on_c, 11, 76, 0
7, 295800, Note_on_c, 11, 76, 92
7, 295896, Note_on_c, 11, 76, 0
7, 295920, Note_on_c, 11, 76, 92
7, 296016, Note_on_c, 11, 76, 0
7, 296040, Note_on_c, 11, 76, 92
7, 296136, Note_on_c, 11, 76, 0
7, 296160, Note_on_c, 11, 71, 92
7, 296256, Note_on_c, 11, 71, 0
7, 296280, Note_on_c, 11, 71, 92
7, 296376, Note_on_c, 11, 71, 0
7, 296400, Note_on_c, 11, 71, 92
7, 296496, Note_on_c, 11, 71, 0
7, 296520, Note_on_c, 11, 71, 92
7, 296616, Note_on_c, 11, 71, 0
7, 296640, Note_on_c, 11, 64, 80
7, 296640, Note_on_c, 11, 69, 80
7, 296736, Note_on_c, 11, 69, 0
7, 296736, Note_on_c, 11, 64, 0
7, 296760, Note_on_c, 11, 64, 80
7, 296760, Note_on_c, 11, 69, 80
7, 296856, Note_on_c, 11, 69, 0
7, 296856, Note_on_c, 11, 64, 0
7, 296880, Note_on_c, 11, 69, 80
7, 296880, Note_on_c, 11, 64, 80
7, 296976, Note_on_c, 11, 64, 0
7, 296976, Note_on_c, 11, 69, 0
7, 297000, Note_on_c, 11, 69, 80
7, 297000, Note_on_c, 11, 64, 80
7, 297096, Note_on_c, 11, 64, 0
7, 297096, Note_on_c, 11, 69, 0
7, 297120, Note_on_c, 11, 64, 80
7, 297120, Note_on_c, 11, 69, 80
7, 297216, Note_on_c, 11, 69, 0
7, 297216, Note_on_c, 11, 64, 0
7, 297240, Note_on_c, 11, 64, 80
7, 297240, Note_on_c, 11, 69, 80
7, 297336, Note_on_c, 11, 69, 0
7, 297336, Note_on_c, 11, 64, 0
7, 297360, Note_on_c, 11, 64, 80
7, 297360, Note_on_c, 11, 69, 80
7, 297456, Note_on_c, 11, 69, 0
7, 297456, Note_on_c, 11, 64, 0
7, 297480, Note_on_c, 11, 64, 80
7, 297480, Note_on_c, 11, 69, 80
7, 297576, Note_on_c, 11, 69, 0
7, 297576, Note_on_c, 11, 64, 0
7, 297600, Note_on_c, 11, 64, 80
7, 297600, Note_on_c, 11, 69, 80
7, 297696, Note_on_c, 11, 69, 0
7, 297696, Note_on_c, 11, 64, 0
7, 297720, Note_on_c, 11, 69, 80
7, 297720, Note_on_c, 11, 64, 80
7, 297816, Note_on_c, 11, 64, 0
7, 297816, Note_on_c, 11, 69, 0
7, 297840, Note_on_c, 11, 64, 80
7, 297840, Note_on_c, 11, 69, 80
7, 297936, Note_on_c, 11, 69, 0
7, 297936, Note_on_c, 11, 64, 0
7, 297960, Note_on_c, 11, 69, 80
7, 297960, Note_on_c, 11, 64, 80
7, 298056, Note_on_c, 11, 64, 0
7, 298056, Note_on_c, 11, 69, 0
7, 298080, Note_on_c, 11, 64, 80
7, 298080, Note_on_c, 11, 69, 80
7, 298176, Note_on_c, 11, 69, 0
7, 298176, Note_on_c, 11, 64, 0
7, 298200, Note_on_c, 11, 69, 80
7, 298200, Note_on_c, 11, 64, 80
7, 298296, Note_on_c, 11, 64, 0
7, 298296, Note_on_c, 11, 69, 0
7, 298320, Note_on_c, 11, 64, 80
7, 298320, Note_on_c, 11, 69, 80
7, 298416, Note_on_c, 11, 69, 0
7, 298416, Note_on_c, 11, 64, 0
7, 298440, Note_on_c, 11, 64, 80
7, 298440, Note_on_c, 11, 69, 80
7, 298536, Note_on_c, 11, 69, 0
7, 298536, Note_on_c, 11, 64, 0
7, 298560, Note_on_c, 11, 69, 80
7, 298560, Note_on_c, 11, 64, 80
7, 298656, Note_on_c, 11, 64, 0
7, 298656, Note_on_c, 11, 69, 0
7, 298680, Note_on_c, 11, 69, 80
7, 298680, Note_on_c, 11, 64, 80
7, 298776, Note_on_c, 11, 64, 0
7, 298776, Note_on_c, 11, 69, 0
7, 298800, Note_on_c, 11, 64, 80
7, 298800, Note_on_c, 11, 69, 80
7, 298896, Note_on_c, 11, 69, 0
7, 298896, Note_on_c, 11, 64, 0
7, 298920, Note_on_c, 11, 69, 80
7, 298920, Note_on_c, 11, 64, 80
7, 299016, Note_on_c, 11, 64, 0
7, 299016, Note_on_c, 11, 69, 0
7, 299040, Note_on_c, 11, 64, 80
7, 299040, Note_on_c, 11, 69, 80
7, 299136, Note_on_c, 11, 69, 0
7, 299136, Note_on_c, 11, 64, 0
7, 299160, Note_on_c, 11, 69, 80
7, 299160, Note_on_c, 11, 64, 80
7, 299256, Note_on_c, 11, 64, 0
7, 299256, Note_on_c, 11, 69, 0
7, 299280, Note_on_c, 11, 69, 80
7, 299280, Note_on_c, 11, 64, 80
7, 299376, Note_on_c, 11, 64, 0
7, 299376, Note_on_c, 11, 69, 0
7, 299400, Note_on_c, 11, 64, 80
7, 299400, Note_on_c, 11, 69, 80
7, 299496, Note_on_c, 11, 69, 0
7, 299496, Note_on_c, 11, 64, 0
7, 299520, Note_on_c, 11, 66, 80
7, 299520, Note_on_c, 11, 69, 80
7, 299616, Note_on_c, 11, 69, 0
7, 299616, Note_on_c, 11, 66, 0
7, 299640, Note_on_c, 11, 69, 80
7, 299640, Note_on_c, 11, 66, 80
7, 299736, Note_on_c, 11, 66, 0
7, 299736, Note_on_c, 11, 69, 0
7, 299760, Note_on_c, 11, 66, 80
7, 299760, Note_on_c, 11, 69, 80
7, 299856, Note_on_c, 11, 69, 0
7, 299856, Note_on_c, 11, 66, 0
7, 299880, Note_on_c, 11, 69, 80
7, 299880, Note_on_c, 11, 66, 80
7, 299976, Note_on_c, 11, 66, 0
7, 299976, Note_on_c, 11, 69, 0
7, 300000, Note_on_c, 11, 66, 80
7, 300000, Note_on_c, 11, 69, 80
7, 300096, Note_on_c, 11, 69, 0
7, 300096, Note_on_c, 11, 66, 0
7, 300120, Note_on_c, 11, 69, 80
7, 300120, Note_on_c, 11, 66, 80
7, 300216, Note_on_c, 11, 66, 0
7, 300216, Note_on_c, 11, 69, 0
7, 300240, Note_on_c, 11, 66, 80
7, 300240, Note_on_c, 11, 69, 80
7, 300336, Note_on_c, 11, 69, 0
7, 300336, Note_on_c, 11, 66, 0
7, 300360, Note_on_c, 11, 69, 80
7, 300360, Note_on_c, 11, 66, 80
7, 300456, Note_on_c, 11, 66, 0
7, 300456, Note_on_c, 11, 69, 0
7, 300480, Note_on_c, 11, 69, 80
7, 300480, Note_on_c, 11, 66, 80
7, 300576, Note_on_c, 11, 66, 0
7, 300576, Note_on_c, 11, 69, 0
7, 300600, Note_on_c, 11, 66, 80
7, 300600, Note_on_c, 11, 69, 80
7, 300696, Note_on_c, 11, 69, 0
7, 300696, Note_on_c, 11, 66, 0
7, 300720, Note_on_c, 11, 69, 80
7, 300720, Note_on_c, 11, 66, 80
7, 300816, Note_on_c, 11, 66, 0
7, 300816, Note_on_c, 11, 69, 0
7, 300840, Note_on_c, 11, 69, 80
7, 300840, Note_on_c, 11, 66, 80
7, 300936, Note_on_c, 11, 66, 0
7, 300936, Note_on_c, 11, 69, 0
7, 300960, Note_on_c, 11, 66, 80
7, 300960, Note_on_c, 11, 69, 80
7, 301056, Note_on_c, 11, 69, 0
7, 301056, Note_on_c, 11, 66, 0
7, 301080, Note_on_c, 11, 66, 80
7, 301080, Note_on_c, 11, 69, 80
7, 301176, Note_on_c, 11, 69, 0
7, 301176, Note_on_c, 11, 66, 0
7, 301200, Note_on_c, 11, 69, 80
7, 301200, Note_on_c, 11, 66, 80
7, 301296, Note_on_c, 11, 66, 0
7, 301296, Note_on_c, 11, 69, 0
7, 301320, Note_on_c, 11, 66, 80
7, 301320, Note_on_c, 11, 69, 80
7, 301416, Note_on_c, 11, 69, 0
7, 301416, Note_on_c, 11, 66, 0
7, 301440, Note_on_c, 11, 66, 80
7, 301440, Note_on_c, 11, 69, 80
7, 301536, Note_on_c, 11, 69, 0
7, 301536, Note_on_c, 11, 66, 0
7, 301560, Note_on_c, 11, 69, 80
7, 301560, Note_on_c, 11, 66, 80
7, 301656, Note_on_c, 11, 66, 0
7, 301656, Note_on_c, 11, 69, 0
7, 301680, Note_on_c, 11, 66, 80
7, 301680, Note_on_c, 11, 69, 80
7, 301776, Note_on_c, 11, 69, 0
7, 301776, Note_on_c, 11, 66, 0
7, 301800, Note_on_c, 11, 69, 80
7, 301800, Note_on_c, 11, 66, 80
7, 301896, Note_on_c, 11, 66, 0
7, 301896, Note_on_c, 11, 69, 0
7, 301920, Note_on_c, 11, 69, 80
7, 301920, Note_on_c, 11, 66, 80
7, 302016, Note_on_c, 11, 66, 0
7, 302016, Note_on_c, 11, 69, 0
7, 302040, Note_on_c, 11, 66, 80
7, 302040, Note_on_c, 11, 69, 80
7, 302136, Note_on_c, 11, 69, 0
7, 302136, Note_on_c, 11, 66, 0
7, 302160, Note_on_c, 11, 69, 80
7, 302160, Note_on_c, 11, 66, 80
7, 302256, Note_on_c, 11, 66, 0
7, 302256, Note_on_c, 11, 69, 0
7, 302280, Note_on_c, 11, 69, 80
7, 302280, Note_on_c, 11, 66, 80
7, 302376, Note_on_c, 11, 66, 0
7, 302376, Note_on_c, 11, 69, 0
7, 302400, Note_on_c, 11, 69, 80
7, 302400, Note_on_c, 11, 67, 80
7, 302496, Note_on_c, 11, 67, 0
7, 302496, Note_on_c, 11, 69, 0
7, 302520, Note_on_c, 11, 67, 80
7, 302520, Note_on_c, 11, 69, 80
7, 302616, Note_on_c, 11, 69, 0
7, 302616, Note_on_c, 11, 67, 0
7, 302640, Note_on_c, 11, 69, 80
7, 302640, Note_on_c, 11, 67, 80
7, 302736, Note_on_c, 11, 67, 0
7, 302736, Note_on_c, 11, 69, 0
7, 302760, Note_on_c, 11, 67, 80
7, 302760, Note_on_c, 11, 69, 80
7, 302856, Note_on_c, 11, 69, 0
7, 302856, Note_on_c, 11, 67, 0
7, 302880, Note_on_c, 11, 67, 80
7, 302880, Note_on_c, 11, 69, 80
7, 302976, Note_on_c, 11, 69, 0
7, 302976, Note_on_c, 11, 67, 0
7, 303000, Note_on_c, 11, 67, 80
7, 303000, Note_on_c, 11, 69, 80
7, 303096, Note_on_c, 11, 69, 0
7, 303096, Note_on_c, 11, 67, 0
7, 303120, Note_on_c, 11, 67, 80
7, 303120, Note_on_c, 11, 69, 80
7, 303216, Note_on_c, 11, 69, 0
7, 303216, Note_on_c, 11, 67, 0
7, 303240, Note_on_c, 11, 69, 80
7, 303240, Note_on_c, 11, 67, 80
7, 303336, Note_on_c, 11, 67, 0
7, 303336, Note_on_c, 11, 69, 0
7, 303360, Note_on_c, 11, 67, 80
7, 303360, Note_on_c, 11, 69, 80
7, 303456, Note_on_c, 11, 69, 0
7, 303456, Note_on_c, 11, 67, 0
7, 303480, Note_on_c, 11, 67, 80
7, 303480, Note_on_c, 11, 69, 80
7, 303576, Note_on_c, 11, 69, 0
7, 303576, Note_on_c, 11, 67, 0
7, 303600, Note_on_c, 11, 69, 80
7, 303600, Note_on_c, 11, 67, 80
7, 303696, Note_on_c, 11, 67, 0
7, 303696, Note_on_c, 11, 69, 0
7, 303720, Note_on_c, 11, 69, 80
7, 303720, Note_on_c, 11, 67, 80
7, 303816, Note_on_c, 11, 67, 0
7, 303816, Note_on_c, 11, 69, 0
7, 303840, Note_on_c, 11, 69, 80
7, 303840, Note_on_c, 11, 67, 80
7, 303936, Note_on_c, 11, 67, 0
7, 303936, Note_on_c, 11, 69, 0
7, 303960, Note_on_c, 11, 69, 80
7, 303960, Note_on_c, 11, 67, 80
7, 304056, Note_on_c, 11, 67, 0
7, 304056, Note_on_c, 11, 69, 0
7, 304080, Note_on_c, 11, 69, 80
7, 304080, Note_on_c, 11, 67, 80
7, 304176, Note_on_c, 11, 67, 0
7, 304176, Note_on_c, 11, 69, 0
7, 304200, Note_on_c, 11, 69, 80
7, 304200, Note_on_c, 11, 67, 80
7, 304296, Note_on_c, 11, 67, 0
7, 304296, Note_on_c, 11, 69, 0
7, 304320, Note_on_c, 11, 67, 80
7, 304320, Note_on_c, 11, 69, 80
7, 304416, Note_on_c, 11, 69, 0
7, 304416, Note_on_c, 11, 67, 0
7, 304440, Note_on_c, 11, 67, 80
7, 304440, Note_on_c, 11, 69, 80
7, 304536, Note_on_c, 11, 69, 0
7, 304536, Note_on_c, 11, 67, 0
7, 304560, Note_on_c, 11, 69, 80
7, 304560, Note_on_c, 11, 67, 80
7, 304656, Note_on_c, 11, 67, 0
7, 304656, Note_on_c, 11, 69, 0
7, 304680, Note_on_c, 11, 69, 80
7, 304680, Note_on_c, 11, 67, 80
7, 304776, Note_on_c, 11, 67, 0
7, 304776, Note_on_c, 11, 69, 0
7, 304800, Note_on_c, 11, 67, 80
7, 304800, Note_on_c, 11, 69, 80
7, 304896, Note_on_c, 11, 69, 0
7, 304896, Note_on_c, 11, 67, 0
7, 304920, Note_on_c, 11, 69, 80
7, 304920, Note_on_c, 11, 67, 80
7, 305016, Note_on_c, 11, 67, 0
7, 305016, Note_on_c, 11, 69, 0
7, 305040, Note_on_c, 11, 69, 80
7, 305040, Note_on_c, 11, 67, 80
7, 305136, Note_on_c, 11, 67, 0
7, 305136, Note_on_c, 11, 69, 0
7, 305160, Note_on_c, 11, 69, 80
7, 305160, Note_on_c, 11, 67, 80
7, 305256, Note_on_c, 11, 67, 0
7, 305256, Note_on_c, 11, 69, 0
7, 305280, Note_on_c, 11, 66, 80
7, 305280, Note_on_c, 11, 69, 80
7, 305664, Note_on_c, 11, 69, 0
7, 305664, Note_on_c, 11, 66, 0
7, 306960, Note_on_c, 11, 67, 58
7, 307152, Note_on_c, 11, 67, 0
7, 307200, Note_on_c, 11, 64, 58
7, 307392, Note_on_c, 11, 64, 0
7, 307440, Note_on_c, 11, 62, 58
7, 307632, Note_on_c, 11, 62, 0
7, 307680, Note_on_c, 11, 61, 58
7, 308064, Note_on_c, 11, 61, 0
7, 308160, Note_on_c, 11, 62, 58
7, 308544, Note_on_c, 11, 62, 0
7, 309840, Note_on_c, 11, 67, 58
7, 310032, Note_on_c, 11, 67, 0
7, 310080, Note_on_c, 11, 64, 58
7, 310272, Note_on_c, 11, 64, 0
7, 310320, Note_on_c, 11, 62, 58
7, 310512, Note_on_c, 11, 62, 0
7, 310560, Note_on_c, 11, 61, 58
7, 310944, Note_on_c, 11, 61, 0
7, 311040, Note_on_c, 11, 62, 58
7, 311424, Note_on_c, 11, 62, 0
7, 312720, Note_on_c, 11, 76, 92
7, 312912, Note_on_c, 11, 76, 0
7, 312960, Note_on_c, 11, 69, 92
7, 313152, Note_on_c, 11, 69, 0
7, 313200, Note_on_c, 11, 79, 92
7, 313392, Note_on_c, 11, 79, 0
7, 313440, Note_on_c, 11, 78, 92
7, 313824, Note_on_c, 11, 78, 0
7, 314160, Note_on_c, 11, 76, 92
7, 314352, Note_on_c, 11, 76, 0
7, 314400, Note_on_c, 11, 69, 92
7, 314592, Note_on_c, 11, 69, 0
7, 314640, Note_on_c, 11, 79, 92
7, 314832, Note_on_c, 11, 79, 0
7, 314880, Note_on_c, 11, 78, 92
7, 315264, Note_on_c, 11, 78, 0
7, 315360, Note_on_c, 11, 76, 80
7, 315672, Note_on_c, 11, 76, 0
7, 315840, Note_on_c, 11, 69, 80
7, 315900, Note_on_c, 11, 69, 0
7, 315900, Note_on_c, 11, 68, 80
7, 315960, Note_on_c, 11, 68, 0
7, 315960, Note_on_c, 11, 69, 80
7, 316020, Note_on_c, 11, 69, 0
7, 316020, Note_on_c, 11, 68, 80
7, 316080, Note_on_c, 11, 68, 0
7, 316080, Note_on_c, 11, 69, 80
7, 316140, Note_on_c, 11, 69, 0
7, 316140, Note_on_c, 11, 68, 80
7, 316200, Note_on_c, 11, 68, 0
7, 316200, Note_on_c, 11, 69, 80
7, 316260, Note_on_c, 11, 69, 0
7, 316260, Note_on_c, 11, 68, 80
7, 316320, Note_on_c, 11, 68, 0
7, 316320, Note_on_c, 11, 69, 80
7, 316380, Note_on_c, 11, 69, 0
7, 316380, Note_on_c, 11, 68, 80
7, 316440, Note_on_c, 11, 68, 0
7, 316440, Note_on_c, 11, 69, 80
7, 316500, Note_on_c, 11, 69, 0
7, 316500, Note_on_c, 11, 68, 80
7, 316560, Note_on_c, 11, 68, 0
7, 316560, Note_on_c, 11, 66, 80
7, 316680, Note_on_c, 11, 66, 0
7, 316680, Note_on_c, 11, 68, 80
7, 316800, Note_on_c, 11, 68, 0
7, 316800, Note_on_c, 11, 69, 80
7, 317088, Note_on_c, 11, 69, 0
7, 317280, Note_on_c, 11, 57, 70
7, 317568, Note_on_c, 11, 57, 0
7, 318240, Note_on_c, 11, 66, 58
7, 318480, Note_on_c, 11, 66, 0
7, 318480, Note_on_c, 11, 57, 58
7, 318720, Note_on_c, 11, 57, 0
7, 318720, Note_on_c, 11, 66, 58
7, 318960, Note_on_c, 11, 66, 0
7, 318960, Note_on_c, 11, 57, 58
7, 319200, Note_on_c, 11, 57, 0
7, 319200, Note_on_c, 11, 66, 58
7, 319440, Note_on_c, 11, 66, 0
7, 319440, Note_on_c, 11, 57, 58
7, 319680, Note_on_c, 11, 57, 0
7, 319680, Note_on_c, 11, 55, 58
7, 319920, Note_on_c, 11, 55, 0
7, 319920, Note_on_c, 11, 57, 58
7, 320160, Note_on_c, 11, 57, 0
7, 320160, Note_on_c, 11, 55, 58
7, 320400, Note_on_c, 11, 55, 0
7, 320400, Note_on_c, 11, 57, 58
7, 320640, Note_on_c, 11, 57, 0
7, 320640, Note_on_c, 11, 67, 58
7, 320880, Note_on_c, 11, 67, 0
7, 320880, Note_on_c, 11, 57, 58
7, 321120, Note_on_c, 11, 57, 0
7, 321120, Note_on_c, 11, 66, 58
7, 321360, Note_on_c, 11, 66, 0
7, 321360, Note_on_c, 11, 62, 58
7, 321600, Note_on_c, 11, 62, 0
7, 321600, Note_on_c, 11, 66, 58
7, 321840, Note_on_c, 11, 66, 0
7, 321840, Note_on_c, 11, 69, 58
7, 322080, Note_on_c, 11, 69, 0
7, 322080, Note_on_c, 11, 62, 58
7, 322320, Note_on_c, 11, 62, 0
7, 322320, Note_on_c, 11, 66, 58
7, 322560, Note_on_c, 11, 66, 0
7, 322560, Note_on_c, 11, 67, 58
7, 322800, Note_on_c, 11, 67, 0
7, 322800, Note_on_c, 11, 64, 58
7, 323040, Note_on_c, 11, 64, 0
7, 323040, Note_on_c, 11, 61, 58
7, 323280, Note_on_c, 11, 61, 0
7, 323280, Note_on_c, 11, 57, 58
7, 323520, Note_on_c, 11, 57, 0
7, 323520, Note_on_c, 11, 67, 58
7, 323760, Note_on_c, 11, 67, 0
7, 323760, Note_on_c, 11, 64, 58
7, 324000, Note_on_c, 11, 64, 0
7, 324000, Note_on_c, 11, 66, 58
7, 324240, Note_on_c, 11, 66, 0
7, 324240, Note_on_c, 11, 62, 58
7, 324480, Note_on_c, 11, 62, 0
7, 324480, Note_on_c, 11, 66, 58
7, 324720, Note_on_c, 11, 66, 0
7, 324720, Note_on_c, 11, 69, 58
7, 324960, Note_on_c, 11, 69, 0
7, 324960, Note_on_c, 11, 62, 58
7, 325200, Note_on_c, 11, 62, 0
7, 325200, Note_on_c, 11, 66, 58
7, 325440, Note_on_c, 11, 66, 0
7, 325440, Note_on_c, 11, 67, 58
7, 325680, Note_on_c, 11, 67, 0
7, 325680, Note_on_c, 11, 64, 58
7, 325920, Note_on_c, 11, 64, 0
7, 325920, Note_on_c, 11, 57, 58
7, 326160, Note_on_c, 11, 57, 0
7, 326160, Note_on_c, 11, 67, 58
7, 326400, Note_on_c, 11, 67, 0
7, 326400, Note_on_c, 11, 66, 58
7, 326640, Note_on_c, 11, 66, 0
7, 326640, Note_on_c, 11, 69, 58
7, 326880, Note_on_c, 11, 69, 0
7, 326880, Note_on_c, 11, 67, 58
7, 327120, Note_on_c, 11, 67, 0
7, 327120, Note_on_c, 11, 62, 58
7, 327360, Note_on_c, 11, 62, 0
7, 327360, Note_on_c, 11, 67, 58
7, 327600, Note_on_c, 11, 67, 0
7, 327600, Note_on_c, 11, 69, 58
7, 327840, Note_on_c, 11, 69, 0
7, 327840, Note_on_c, 11, 71, 58
7, 328080, Note_on_c, 11, 71, 0
7, 328080, Note_on_c, 11, 67, 58
7, 328320, Note_on_c, 11, 67, 0
7, 328320, Note_on_c, 11, 69, 58
7, 328560, Note_on_c, 11, 69, 0
7, 328560, Note_on_c, 11, 66, 58
7, 328800, Note_on_c, 11, 66, 0
7, 328800, Note_on_c, 11, 62, 58
7, 329040, Note_on_c, 11, 62, 0
7, 329040, Note_on_c, 11, 62, 58
7, 329280, Note_on_c, 11, 62, 0
7, 329280, Note_on_c, 11, 59, 58
7, 329520, Note_on_c, 11, 59, 0
7, 329520, Note_on_c, 11, 55, 58
7, 329760, Note_on_c, 11, 55, 0
7, 329760, Note_on_c, 11, 66, 58
7, 330000, Note_on_c, 11, 66, 0
7, 330000, Note_on_c, 11, 62, 58
7, 330240, Note_on_c, 11, 62, 0
7, 330240, Note_on_c, 11, 57, 58
7, 330480, Note_on_c, 11, 57, 0
7, 330480, Note_on_c, 11, 66, 58
7, 330720, Note_on_c, 11, 66, 0
7, 330720, Note_on_c, 11, 61, 58
7, 330960, Note_on_c, 11, 61, 0
7, 330960, Note_on_c, 11, 69, 58
7, 331200, Note_on_c, 11, 69, 0
7, 331200, Note_on_c, 11, 57, 58
7, 331584, Note_on_c, 11, 57, 0
7, 331680, Note_on_c, 11, 74, 92
7, 331740, Note_on_c, 11, 74, 0
7, 331740, Note_on_c, 11, 73, 92
7, 331800, Note_on_c, 11, 73, 0
7, 331800, Note_on_c, 11, 74, 92
7, 331860, Note_on_c, 11, 74, 0
7, 331860, Note_on_c, 11, 73, 92
7, 331920, Note_on_c, 11, 73, 0
7, 331920, Note_on_c, 11, 74, 92
7, 331980, Note_on_c, 11, 74, 0
7, 331980, Note_on_c, 11, 73, 92
7, 332040, Note_on_c, 11, 73, 0
7, 332040, Note_on_c, 11, 74, 92
7, 332100, Note_on_c, 11, 74, 0
7, 332100, Note_on_c, 11, 73, 92
7, 332160, Note_on_c, 11, 73, 0
7, 332160, Note_on_c, 11, 74, 92
7, 332220, Note_on_c, 11, 74, 0
7, 332220, Note_on_c, 11, 73, 92
7, 332280, Note_on_c, 11, 73, 0
7, 332280, Note_on_c, 11, 74, 92
7, 332340, Note_on_c, 11, 74, 0
7, 332340, Note_on_c, 11, 73, 92
7, 332400, Note_on_c, 11, 73, 0
7, 332400, Note_on_c, 11, 71, 92
7, 332520, Note_on_c, 11, 71, 0
7, 332520, Note_on_c, 11, 73, 92
7, 332640, Note_on_c, 11, 73, 0
7, 332640, Note_on_c, 11, 74, 92
7, 332880, Note_on_c, 11, 74, 0
7, 332880, Note_on_c, 11, 69, 92
7, 333120, Note_on_c, 11, 69, 0
7, 333120, Note_on_c, 11, 66, 92
7, 333360, Note_on_c, 11, 66, 0
7, 333360, Note_on_c, 11, 69, 70
7, 333600, Note_on_c, 11, 69, 0
7, 333600, Note_on_c, 11, 66, 58
7, 333840, Note_on_c, 11, 66, 0
7, 333840, Note_on_c, 11, 69, 58
7, 334080, Note_on_c, 11, 69, 0
7, 334080, Note_on_c, 11, 67, 58
7, 334320, Note_on_c, 11, 67, 0
7, 334320, Note_on_c, 11, 64, 58
7, 334560, Note_on_c, 11, 64, 0
7, 334560, Note_on_c, 11, 67, 58
7, 334800, Note_on_c, 11, 67, 0
7, 334800, Note_on_c, 11, 64, 58
7, 335040, Note_on_c, 11, 64, 0
7, 335040, Note_on_c, 11, 67, 58
7, 335280, Note_on_c, 11, 67, 0
7, 335280, Note_on_c, 11, 64, 58
7, 335520, Note_on_c, 11, 64, 0
7, 335520, Note_on_c, 11, 66, 58
7, 335760, Note_on_c, 11, 66, 0
7, 335760, Note_on_c, 11, 62, 58
7, 336000, Note_on_c, 11, 62, 0
7, 336000, Note_on_c, 11, 66, 58
7, 336240, Note_on_c, 11, 66, 0
7, 336240, Note_on_c, 11, 62, 58
7, 336480, Note_on_c, 11, 62, 0
7, 336480, Note_on_c, 11, 66, 58
7, 336720, Note_on_c, 11, 66, 0
7, 336720, Note_on_c, 11, 62, 58
7, 336960, Note_on_c, 11, 62, 0
7, 336960, Note_on_c, 11, 67, 58
7, 337104, Note_on_c, 11, 67, 0
7, 337200, Note_on_c, 11, 79, 58
7, 337440, Note_on_c, 11, 79, 0
7, 337440, Note_on_c, 11, 76, 58
7, 337680, Note_on_c, 11, 76, 0
7, 337680, Note_on_c, 11, 73, 58
7, 337920, Note_on_c, 11, 73, 0
7, 337920, Note_on_c, 11, 69, 58
7, 338160, Note_on_c, 11, 69, 0
7, 338160, Note_on_c, 11, 67, 58
7, 338400, Note_on_c, 11, 67, 0
7, 338400, Note_on_c, 11, 66, 58
7, 338640, Note_on_c, 11, 66, 0
7, 338640, Note_on_c, 11, 62, 58
7, 338880, Note_on_c, 11, 62, 0
7, 338880, Note_on_c, 11, 66, 58
7, 339120, Note_on_c, 11, 66, 0
7, 339120, Note_on_c, 11, 62, 58
7, 339360, Note_on_c, 11, 62, 0
7, 339360, Note_on_c, 11, 69, 58
7, 339600, Note_on_c, 11, 69, 0
7, 339600, Note_on_c, 11, 66, 58
7, 339840, Note_on_c, 11, 66, 0
7, 339840, Note_on_c, 11, 67, 58
7, 340080, Note_on_c, 11, 67, 0
7, 340080, Note_on_c, 11, 76, 58
7, 340320, Note_on_c, 11, 76, 0
7, 340320, Note_on_c, 11, 64, 58
7, 340560, Note_on_c, 11, 64, 0
7, 340560, Note_on_c, 11, 67, 58
7, 340800, Note_on_c, 11, 67, 0
7, 340800, Note_on_c, 11, 66, 58
7, 341040, Note_on_c, 11, 66, 0
7, 341040, Note_on_c, 11, 69, 58
7, 341280, Note_on_c, 11, 69, 0
7, 341280, Note_on_c, 11, 67, 58
7, 341520, Note_on_c, 11, 67, 0
7, 341520, Note_on_c, 11, 62, 58
7, 341760, Note_on_c, 11, 62, 0
7, 341760, Note_on_c, 11, 67, 58
7, 342000, Note_on_c, 11, 67, 0
7, 342000, Note_on_c, 11, 69, 58
7, 342240, Note_on_c, 11, 69, 0
7, 342240, Note_on_c, 11, 71, 58
7, 342480, Note_on_c, 11, 71, 0
7, 342480, Note_on_c, 11, 67, 58
7, 342720, Note_on_c, 11, 67, 0
7, 342720, Note_on_c, 11, 69, 58
7, 342960, Note_on_c, 11, 69, 0
7, 342960, Note_on_c, 11, 66, 58
7, 343200, Note_on_c, 11, 66, 0
7, 343200, Note_on_c, 11, 62, 58
7, 343440, Note_on_c, 11, 62, 0
7, 343440, Note_on_c, 11, 69, 58
7, 343632, Note_on_c, 11, 69, 0
7, 343680, Note_on_c, 11, 71, 58
7, 343920, Note_on_c, 11, 71, 0
7, 343920, Note_on_c, 11, 67, 58
7, 344160, Note_on_c, 11, 67, 0
7, 344160, Note_on_c, 11, 62, 58
7, 344400, Note_on_c, 11, 62, 0
7, 344400, Note_on_c, 11, 71, 58
7, 344592, Note_on_c, 11, 71, 0
7, 344640, Note_on_c, 11, 71, 58
7, 344880, Note_on_c, 11, 71, 0
7, 344880, Note_on_c, 11, 65, 58
7, 345120, Note_on_c, 11, 65, 0
7, 345120, Note_on_c, 11, 62, 58
7, 345360, Note_on_c, 11, 62, 0
7, 345360, Note_on_c, 11, 71, 58
7, 345600, Note_on_c, 11, 71, 0
7, 345600, Note_on_c, 11, 69, 58
7, 345984, Note_on_c, 11, 69, 0
7, 351840, Note_on_c, 11, 69, 58
7, 352320, Note_on_c, 11, 69, 0
7, 352320, Note_on_c, 11, 67, 58
7, 352800, Note_on_c, 11, 67, 0
7, 352800, Note_on_c, 11, 66, 58
7, 353184, Note_on_c, 11, 66, 0
7, 356160, Note_on_c, 11, 57, 58
7, 356640, Note_on_c, 11, 57, 0
7, 356640, Note_on_c, 11, 61, 58
7, 357120, Note_on_c, 11, 61, 0
7, 357120, Note_on_c, 11, 62, 58
7, 357504, Note_on_c, 11, 62, 0
7, 357600, Note_on_c, 11, 67, 92
7, 357660, Note_on_c, 11, 67, 0
7, 357660, Note_on_c, 11, 66, 92
7, 357720, Note_on_c, 11, 66, 0
7, 357720, Note_on_c, 11, 67, 92
7, 357780, Note_on_c, 11, 67, 0
7, 357780, Note_on_c, 11, 66, 92
7, 357840, Note_on_c, 11, 66, 0
7, 357840, Note_on_c, 11, 67, 92
7, 357900, Note_on_c, 11, 67, 0
7, 357900, Note_on_c, 11, 66, 92
7, 357960, Note_on_c, 11, 66, 0
7, 357960, Note_on_c, 11, 67, 92
7, 358020, Note_on_c, 11, 67, 0
7, 358020, Note_on_c, 11, 66, 92
7, 358080, Note_on_c, 11, 66, 0
7, 358080, Note_on_c, 11, 67, 92
7, 358140, Note_on_c, 11, 67, 0
7, 358140, Note_on_c, 11, 66, 92
7, 358200, Note_on_c, 11, 66, 0
7, 358200, Note_on_c, 11, 67, 92
7, 358260, Note_on_c, 11, 67, 0
7, 358260, Note_on_c, 11, 66, 92
7, 358320, Note_on_c, 11, 66, 0
7, 358320, Note_on_c, 11, 64, 92
7, 358440, Note_on_c, 11, 64, 0
7, 358440, Note_on_c, 11, 66, 92
7, 358560, Note_on_c, 11, 66, 0
7, 358560, Note_on_c, 11, 69, 92
7, 358944, Note_on_c, 11, 69, 0
7, 359040, Note_on_c, 11, 57, 92
7, 359424, Note_on_c, 11, 57, 0
7, 360480, Note_on_c, 11, 66, 92
7, 360540, Note_on_c, 11, 66, 0
7, 360540, Note_on_c, 11, 64, 92
7, 360600, Note_on_c, 11, 64, 0
7, 360600, Note_on_c, 11, 66, 92
7, 360660, Note_on_c, 11, 66, 0
7, 360660, Note_on_c, 11, 64, 92
7, 360720, Note_on_c, 11, 64, 0
7, 360720, Note_on_c, 11, 66, 92
7, 360780, Note_on_c, 11, 66, 0
7, 360780, Note_on_c, 11, 64, 92
7, 360840, Note_on_c, 11, 64, 0
7, 360840, Note_on_c, 11, 66, 92
7, 360900, Note_on_c, 11, 66, 0
7, 360900, Note_on_c, 11, 64, 92
7, 360960, Note_on_c, 11, 64, 0
7, 360960, Note_on_c, 11, 66, 92
7, 361020, Note_on_c, 11, 66, 0
7, 361020, Note_on_c, 11, 64, 92
7, 361080, Note_on_c, 11, 64, 0
7, 361080, Note_on_c, 11, 66, 92
7, 361140, Note_on_c, 11, 66, 0
7, 361140, Note_on_c, 11, 64, 92
7, 361200, Note_on_c, 11, 64, 0
7, 361200, Note_on_c, 11, 62, 92
7, 361320, Note_on_c, 11, 62, 0
7, 361320, Note_on_c, 11, 64, 92
7, 361440, Note_on_c, 11, 64, 0
7, 361440, Note_on_c, 11, 61, 92
7, 361824, Note_on_c, 11, 61, 0
7, 361920, Note_on_c, 11, 73, 92
7, 362304, Note_on_c, 11, 73, 0
7, 363360, Note_on_c, 11, 79, 92
7, 363420, Note_on_c, 11, 79, 0
7, 363420, Note_on_c, 11, 78, 92
7, 363480, Note_on_c, 11, 78, 0
7, 363480, Note_on_c, 11, 79, 92
7, 363540, Note_on_c, 11, 79, 0
7, 363540, Note_on_c, 11, 78, 92
7, 363600, Note_on_c, 11, 78, 0
7, 363600, Note_on_c, 11, 79, 92
7, 363660, Note_on_c, 11, 79, 0
7, 363660, Note_on_c, 11, 78, 92
7, 363720, Note_on_c, 11, 78, 0
7, 363720, Note_on_c, 11, 79, 92
7, 363780, Note_on_c, 11, 79, 0
7, 363780, Note_on_c, 11, 78, 92
7, 363840, Note_on_c, 11, 78, 0
7, 363840, Note_on_c, 11, 79, 92
7, 363900, Note_on_c, 11, 79, 0
7, 363900, Note_on_c, 11, 78, 92
7, 363960, Note_on_c, 11, 78, 0
7, 363960, Note_on_c, 11, 79, 92
7, 364020, Note_on_c, 11, 79, 0
7, 364020, Note_on_c, 11, 78, 92
7, 364080, Note_on_c, 11, 78, 0
7, 364080, Note_on_c, 11, 76, 92
7, 364200, Note_on_c, 11, 76, 0
7, 364200, Note_on_c, 11, 78, 92
7, 364320, Note_on_c, 11, 78, 0
7, 364320, Note_on_c, 11, 66, 92
7, 364704, Note_on_c, 11, 66, 0
7, 364800, Note_on_c, 11, 78, 92
7, 365184, Note_on_c, 11, 78, 0
7, 366240, Note_on_c, 11, 81, 92
7, 366300, Note_on_c, 11, 81, 0
7, 366300, Note_on_c, 11, 79, 92
7, 366360, Note_on_c, 11, 79, 0
7, 366360, Note_on_c, 11, 81, 92
7, 366420, Note_on_c, 11, 81, 0
7, 366420, Note_on_c, 11, 79, 92
7, 366480, Note_on_c, 11, 79, 0
7, 366480, Note_on_c, 11, 81, 92
7, 366540, Note_on_c, 11, 81, 0
7, 366540, Note_on_c, 11, 79, 92
7, 366600, Note_on_c, 11, 79, 0
7, 366600, Note_on_c, 11, 81, 92
7, 366660, Note_on_c, 11, 81, 0
7, 366660, Note_on_c, 11, 79, 92
7, 366720, Note_on_c, 11, 79, 0
7, 366720, Note_on_c, 11, 81, 92
7, 366780, Note_on_c, 11, 81, 0
7, 366780, Note_on_c, 11, 79, 92
7, 366840, Note_on_c, 11, 79, 0
7, 366840, Note_on_c, 11, 81, 92
7, 366900, Note_on_c, 11, 81, 0
7, 366900, Note_on_c, 11, 79, 92
7, 366960, Note_on_c, 11, 79, 0
7, 366960, Note_on_c, 11, 78, 92
7, 367080, Note_on_c, 11, 78, 0
7, 367080, Note_on_c, 11, 79, 92
7, 367200, Note_on_c, 11, 79, 0
7, 367200, Note_on_c, 11, 67, 92
7, 367584, Note_on_c, 11, 67, 0
7, 367680, Note_on_c, 11, 79, 92
7, 368064, Note_on_c, 11, 79, 0
7, 369120, Note_on_c, 11, 79, 92
7, 369180, Note_on_c, 11, 79, 0
7, 369180, Note_on_c, 11, 78, 92
7, 369240, Note_on_c, 11, 78, 0
7, 369240, Note_on_c, 11, 79, 92
7, 369300, Note_on_c, 11, 79, 0
7, 369300, Note_on_c, 11, 78, 92
7, 369360, Note_on_c, 11, 78, 0
7, 369360, Note_on_c, 11, 79, 92
7, 369420, Note_on_c, 11, 79, 0
7, 369420, Note_on_c, 11, 78, 92
7, 369480, Note_on_c, 11, 78, 0
7, 369480, Note_on_c, 11, 79, 92
7, 369540, Note_on_c, 11, 79, 0
7, 369540, Note_on_c, 11, 78, 92
7, 369600, Note_on_c, 11, 78, 0
7, 369600, Note_on_c, 11, 79, 92
7, 369660, Note_on_c, 11, 79, 0
7, 369660, Note_on_c, 11, 78, 92
7, 369720, Note_on_c, 11, 78, 0
7, 369720, Note_on_c, 11, 79, 92
7, 369780, Note_on_c, 11, 79, 0
7, 369780, Note_on_c, 11, 78, 92
7, 369840, Note_on_c, 11, 78, 0
7, 369840, Note_on_c, 11, 76, 92
7, 369960, Note_on_c, 11, 76, 0
7, 369960, Note_on_c, 11, 78, 92
7, 370080, Note_on_c, 11, 78, 0
7, 370080, Note_on_c, 11, 66, 92
7, 370464, Note_on_c, 11, 66, 0
7, 370560, Note_on_c, 11, 78, 92
7, 370944, Note_on_c, 11, 78, 0
7, 371040, Note_on_c, 11, 78, 92
7, 371424, Note_on_c, 11, 78, 0
7, 371520, Note_on_c, 11, 71, 92
7, 371904, Note_on_c, 11, 71, 0
7, 372000, Note_on_c, 11, 69, 92
7, 372288, Note_on_c, 11, 69, 0
7, 372360, Note_on_c, 11, 76, 92
7, 372456, Note_on_c, 11, 76, 0
7, 372480, Note_on_c, 11, 74, 92
7, 372864, Note_on_c, 11, 74, 0
7, 372960, Note_on_c, 11, 78, 92
7, 373248, Note_on_c, 11, 78, 0
7, 373440, Note_on_c, 11, 71, 92
7, 373728, Note_on_c, 11, 71, 0
7, 373920, Note_on_c, 11, 79, 92
7, 373920, Note_on_c, 11, 69, 92
7, 374208, Note_on_c, 11, 69, 0
7, 374208, Note_on_c, 11, 79, 0
7, 374400, Note_on_c, 11, 62, 70
7, 374400, Note_on_c, 11, 69, 70
7, 374400, Note_on_c, 11, 78, 70
7, 374784, Note_on_c, 11, 78, 0
7, 374784, Note_on_c, 11, 69, 0
7, 374784, Note_on_c, 11, 62, 0
7, 376320, Note_on_c, 11, 66, 70
7, 376704, Note_on_c, 11, 66, 0
7, 376800, Note_on_c, 11, 66, 70
7, 377184, Note_on_c, 11, 66, 0
7, 377280, Note_on_c, 11, 69, 70
7, 378240, Note_on_c, 11, 69, 0
7, 378240, Note_on_c, 11, 62, 70
7, 378624, Note_on_c, 11, 62, 0
7, 379200, Note_on_c, 11, 55, 70
7, 379680, Note_on_c, 11, 55, 0
7, 379680, Note_on_c, 11, 62, 70
7, 380064, Note_on_c, 11, 62, 0
7, 380160, Note_on_c, 11, 67, 70
7, 381120, Note_on_c, 11, 67, 0
7, 381120, Note_on_c, 11, 62, 70
7, 381504, Note_on_c, 11, 62, 0
7, 382080, Note_on_c, 11, 62, 70
7, 382560, Note_on_c, 11, 62, 0
7, 382560, Note_on_c, 11, 66, 70
7, 382944, Note_on_c, 11, 66, 0
7, 383040, Note_on_c, 11, 59, 58
7, 383352, Note_on_c, 11, 59, 0
7, 384480, Note_on_c, 11, 55, 58
7, 384792, Note_on_c, 11, 55, 0
7, 385920, Note_on_c, 11, 74, 92
7, 386016, Note_on_c, 11, 74, 0
7, 386040, Note_on_c, 11, 74, 92
7, 386136, Note_on_c, 11, 74, 0
7, 386160, Note_on_c, 11, 74, 92
7, 386256, Note_on_c, 11, 74, 0
7, 386280, Note_on_c, 11, 74, 92
7, 386376, Note_on_c, 11, 74, 0
7, 386400, Note_on_c, 11, 78, 92
7, 386496, Note_on_c, 11, 78, 0
7, 386520, Note_on_c, 11, 78, 92
7, 386616, Note_on_c, 11, 78, 0
7, 386640, Note_on_c, 11, 78, 92
7, 386736, Note_on_c, 11, 78, 0
7, 386760, Note_on_c, 11, 78, 92
7, 386856, Note_on_c, 11, 78, 0
7, 386880, Note_on_c, 11, 71, 92
7, 386976, Note_on_c, 11, 71, 0
7, 387000, Note_on_c, 11, 71, 92
7, 387096, Note_on_c, 11, 71, 0
7, 387120, Note_on_c, 11, 71, 92
7, 387216, Note_on_c, 11, 71, 0
7, 387240, Note_on_c, 11, 71, 92
7, 387336, Note_on_c, 11, 71, 0
7, 387360, Note_on_c, 11, 74, 92
7, 387456, Note_on_c, 11, 74, 0
7, 387480, Note_on_c, 11, 74, 92
7, 387576, Note_on_c, 11, 74, 0
7, 387600, Note_on_c, 11, 74, 92
7, 387696, Note_on_c, 11, 74, 0
7, 387720, Note_on_c, 11, 74, 92
7, 387816, Note_on_c, 11, 74, 0
7, 387840, Note_on_c, 11, 68, 92
7, 387936, Note_on_c, 11, 68, 0
7, 387960, Note_on_c, 11, 68, 92
7, 388056, Note_on_c, 11, 68, 0
7, 388080, Note_on_c, 11, 68, 92
7, 388176, Note_on_c, 11, 68, 0
7, 388200, Note_on_c, 11, 68, 92
7, 388296, Note_on_c, 11, 68, 0
7, 388320, Note_on_c, 11, 71, 92
7, 388416, Note_on_c, 11, 71, 0
7, 388440, Note_on_c, 11, 71, 92
7, 388536, Note_on_c, 11, 71, 0
7, 388560, Note_on_c, 11, 71, 92
7, 388656, Note_on_c, 11, 71, 0
7, 388680, Note_on_c, 11, 71, 92
7, 388776, Note_on_c, 11, 71, 0
7, 388800, Note_on_c, 11, 69, 92
7, 388896, Note_on_c, 11, 69, 0
7, 388920, Note_on_c, 11, 66, 92
7, 388920, Note_on_c, 11, 74, 92
7, 389016, Note_on_c, 11, 74, 0
7, 389016, Note_on_c, 11, 66, 0
7, 389040, Note_on_c, 11, 74, 92
7, 389040, Note_on_c, 11, 66, 92
7, 389136, Note_on_c, 11, 66, 0
7, 389136, Note_on_c, 11, 74, 0
7, 389160, Note_on_c, 11, 74, 92
7, 389160, Note_on_c, 11, 66, 92
7, 389256, Note_on_c, 11, 66, 0
7, 389256, Note_on_c, 11, 74, 0
7, 389280, Note_on_c, 11, 66, 92
7, 389280, Note_on_c, 11, 74, 92
7, 389376, Note_on_c, 11, 74, 0
7, 389376, Note_on_c, 11, 66, 0
7, 389400, Note_on_c, 11, 74, 92
7, 389400, Note_on_c, 11, 66, 92
7, 389496, Note_on_c, 11, 66, 0
7, 389496, Note_on_c, 11, 74, 0
7, 389520, Note_on_c, 11, 66, 92
7, 389520, Note_on_c, 11, 74, 92
7, 389616, Note_on_c, 11, 74, 0
7, 389616, Note_on_c, 11, 66, 0
7, 389640, Note_on_c, 11, 74, 92
7, 389640, Note_on_c, 11, 66, 92
7, 389736, Note_on_c, 11, 66, 0
7, 389736, Note_on_c, 11, 74, 0
7, 389760, Note_on_c, 11, 74, 92
7, 389760, Note_on_c, 11, 66, 92
7, 389856, Note_on_c, 11, 66, 0
7, 389856, Note_on_c, 11, 74, 0
7, 389880, Note_on_c, 11, 66, 92
7, 389880, Note_on_c, 11, 74, 92
7, 389976, Note_on_c, 11, 74, 0
7, 389976, Note_on_c, 11, 66, 0
7, 390000, Note_on_c, 11, 74, 92
7, 390000, Note_on_c, 11, 66, 92
7, 390096, Note_on_c, 11, 66, 0
7, 390096, Note_on_c, 11, 74, 0
7, 390120, Note_on_c, 11, 74, 92
7, 390120, Note_on_c, 11, 66, 92
7, 390216, Note_on_c, 11, 66, 0
7, 390216, Note_on_c, 11, 74, 0
7, 390240, Note_on_c, 11, 69, 92
7, 390240, Note_on_c, 11, 67, 92
7, 390336, Note_on_c, 11, 67, 0
7, 390336, Note_on_c, 11, 69, 0
7, 390360, Note_on_c, 11, 67, 92
7, 390360, Note_on_c, 11, 69, 92
7, 390456, Note_on_c, 11, 69, 0
7, 390456, Note_on_c, 11, 67, 0
7, 390480, Note_on_c, 11, 67, 92
7, 390480, Note_on_c, 11, 69, 92
7, 390576, Note_on_c, 11, 69, 0
7, 390576, Note_on_c, 11, 67, 0
7, 390600, Note_on_c, 11, 69, 92
7, 390600, Note_on_c, 11, 67, 92
7, 390696, Note_on_c, 11, 67, 0
7, 390696, Note_on_c, 11, 69, 0
7, 390720, Note_on_c, 11, 67, 92
7, 390720, Note_on_c, 11, 69, 92
7, 390816, Note_on_c, 11, 69, 0
7, 390816, Note_on_c, 11, 67, 0
7, 390840, Note_on_c, 11, 67, 92
7, 390840, Note_on_c, 11, 69, 92
7, 390936, Note_on_c, 11, 69, 0
7, 390936, Note_on_c, 11, 67, 0
7, 390960, Note_on_c, 11, 67, 92
7, 390960, Note_on_c, 11, 69, 92
7, 391056, Note_on_c, 11, 69, 0
7, 391056, Note_on_c, 11, 67, 0
7, 391080, Note_on_c, 11, 67, 92
7, 391080, Note_on_c, 11, 69, 92
7, 391176, Note_on_c, 11, 69, 0
7, 391176, Note_on_c, 11, 67, 0
7, 391200, Note_on_c, 11, 69, 92
7, 391200, Note_on_c, 11, 67, 92
7, 391296, Note_on_c, 11, 67, 0
7, 391296, Note_on_c, 11, 69, 0
7, 391320, Note_on_c, 11, 67, 92
7, 391320, Note_on_c, 11, 69, 92
7, 391416, Note_on_c, 11, 69, 0
7, 391416, Note_on_c, 11, 67, 0
7, 391440, Note_on_c, 11, 69, 92
7, 391440, Note_on_c, 11, 67, 92
7, 391536, Note_on_c, 11, 67, 0
7, 391536, Note_on_c, 11, 69, 0
7, 391560, Note_on_c, 11, 69, 92
7, 391560, Note_on_c, 11, 67, 92
7, 391656, Note_on_c, 11, 67, 0
7, 391656, Note_on_c, 11, 69, 0
7, 391680, Note_on_c, 11, 66, 112
7, 391920, Note_on_c, 11, 66, 0
7, 391920, Note_on_c, 11, 74, 92
7, 392112, Note_on_c, 11, 74, 0
7, 392160, Note_on_c, 11, 62, 92
7, 392304, Note_on_c, 11, 62, 0
7, 392400, Note_on_c, 11, 62, 92
7, 392544, Note_on_c, 11, 62, 0
7, 392640, Note_on_c, 11, 62, 92
7, 392784, Note_on_c, 11, 62, 0
7, 392880, Note_on_c, 11, 62, 92
7, 393024, Note_on_c, 11, 62, 0
7, 393120, Note_on_c, 11, 62, 112
7, 393360, Note_on_c, 11, 62, 0
7, 393360, Note_on_c, 11, 74, 92
7, 393552, Note_on_c, 11, 74, 0
7, 393600, Note_on_c, 11, 62, 92
7, 393744, Note_on_c, 11, 62, 0
7, 393840, Note_on_c, 11, 62, 92
7, 393984, Note_on_c, 11, 62, 0
7, 394080, Note_on_c, 11, 62, 92
7, 394224, Note_on_c, 11, 62, 0
7, 394320, Note_on_c, 11, 62, 92
7, 394464, Note_on_c, 11, 62, 0
7, 394560, Note_on_c, 11, 62, 112
7, 394800, Note_on_c, 11, 62, 0
7, 394800, Note_on_c, 11, 74, 92
7, 394992, Note_on_c, 11, 74, 0
7, 395040, Note_on_c, 11, 62, 92
7, 395184, Note_on_c, 11, 62, 0
7, 395280, Note_on_c, 11, 62, 92
7, 395424, Note_on_c, 11, 62, 0
7, 395520, Note_on_c, 11, 62, 92
7, 395664, Note_on_c, 11, 62, 0
7, 395760, Note_on_c, 11, 62, 92
7, 395904, Note_on_c, 11, 62, 0
7, 396000, Note_on_c, 11, 62, 92
7, 396288, Note_on_c, 11, 62, 0
7, 396480, Note_on_c, 11, 78, 92
7, 396480, Note_on_c, 11, 69, 92
7, 396480, Note_on_c, 11, 62, 92
7, 396768, Note_on_c, 11, 62, 0
7, 396768, Note_on_c, 11, 69, 0
7, 396768, Note_on_c, 11, 78, 0
7, 397440, Note_on_c, 11, 69, 58
7, 398808, Note_on_c, 11, 69, 0
7, 398880, Note_on_c, 11, 67, 58
7, 399240, Note_on_c, 11, 67, 0
7, 399240, Note_on_c, 11, 69, 58
7, 399336, Note_on_c, 11, 69, 0
7, 399360, Note_on_c, 11, 66, 58
7, 399720, Note_on_c, 11, 66, 0
7, 399720, Note_on_c, 11, 67, 58
7, 399816, Note_on_c, 11, 67, 0
7, 399840, Note_on_c, 11, 64, 58
7, 400224, Note_on_c, 11, 64, 0
7, 400320, Note_on_c, 11, 61, 58
7, 400680, Note_on_c, 11, 61, 0
7, 400680, Note_on_c, 11, 62, 58
7, 400776, Note_on_c, 11, 62, 0
7, 400800, Note_on_c, 11, 59, 58
7, 401160, Note_on_c, 11, 59, 0
7, 401160, Note_on_c, 11, 61, 58
7, 401256, Note_on_c, 11, 61, 0
7, 401280, Note_on_c, 11, 57, 58
7, 401664, Note_on_c, 11, 57, 0
7, 401760, Note_on_c, 11, 62, 58
7, 402144, Note_on_c, 11, 62, 0
7, 403200, Note_on_c, 11, 61, 58
7, 403560, Note_on_c, 11, 61, 0
7, 403560, Note_on_c, 11, 62, 58
7, 403656, Note_on_c, 11, 62, 0
7, 403680, Note_on_c, 11, 59, 58
7, 404040, Note_on_c, 11, 59, 0
7, 404040, Note_on_c, 11, 61, 58
7, 404136, Note_on_c, 11, 61, 0
7, 404160, Note_on_c, 11, 57, 58
7, 404544, Note_on_c, 11, 57, 0
7, 404640, Note_on_c, 11, 62, 58
7, 405024, Note_on_c, 11, 62, 0
7, 406080, Note_on_c, 11, 79, 92
7, 406176, Note_on_c, 11, 79, 0
7, 406200, Note_on_c, 11, 79, 92
7, 406296, Note_on_c, 11, 79, 0
7, 406320, Note_on_c, 11, 79, 92
7, 406416, Note_on_c, 11, 79, 0
7, 406440, Note_on_c, 11, 79, 92
7, 406536, Note_on_c, 11, 79, 0
7, 406560, Note_on_c, 11, 76, 92
7, 406656, Note_on_c, 11, 76, 0
7, 406680, Note_on_c, 11, 76, 92
7, 406776, Note_on_c, 11, 76, 0
7, 406800, Note_on_c, 11, 76, 92
7, 406896, Note_on_c, 11, 76, 0
7, 406920, Note_on_c, 11, 76, 92
7, 407016, Note_on_c, 11, 76, 0
7, 407040, Note_on_c, 11, 81, 92
7, 407136, Note_on_c, 11, 81, 0
7, 407160, Note_on_c, 11, 81, 92
7, 407256, Note_on_c, 11, 81, 0
7, 407280, Note_on_c, 11, 81, 92
7, 407376, Note_on_c, 11, 81, 0
7, 407400, Note_on_c, 11, 81, 92
7, 407496, Note_on_c, 11, 81, 0
7, 407520, Note_on_c, 11, 83, 92
7, 407616, Note_on_c, 11, 83, 0
7, 407640, Note_on_c, 11, 83, 92
7, 407736, Note_on_c, 11, 83, 0
7, 407760, Note_on_c, 11, 83, 92
7, 407856, Note_on_c, 11, 83, 0
7, 407880, Note_on_c, 11, 83, 92
7, 407976, Note_on_c, 11, 83, 0
7, 408000, Note_on_c, 11, 86, 92
7, 408096, Note_on_c, 11, 86, 0
7, 408120, Note_on_c, 11, 86, 92
7, 408216, Note_on_c, 11, 86, 0
7, 408240, Note_on_c, 11, 86, 92
7, 408336, Note_on_c, 11, 86, 0
7, 408360, Note_on_c, 11, 86, 92
7, 408456, Note_on_c, 11, 86, 0
7, 408480, Note_on_c, 11, 78, 92
7, 408576, Note_on_c, 11, 78, 0
7, 408600, Note_on_c, 11, 78, 92
7, 408696, Note_on_c, 11, 78, 0
7, 408720, Note_on_c, 11, 78, 92
7, 408816, Note_on_c, 11, 78, 0
7, 408840, Note_on_c, 11, 78, 92
7, 408936, Note_on_c, 11, 78, 0
7, 408960, Note_on_c, 11, 79, 92
7, 409056, Note_on_c, 11, 79, 0
7, 409080, Note_on_c, 11, 79, 92
7, 409176, Note_on_c, 11, 79, 0
7, 409200, Note_on_c, 11, 79, 92
7, 409296, Note_on_c, 11, 79, 0
7, 409320, Note_on_c, 11, 79, 92
7, 409416, Note_on_c, 11, 79, 0
7, 409440, Note_on_c, 11, 76, 92
7, 409536, Note_on_c, 11, 76, 0
7, 409560, Note_on_c, 11, 76, 92
7, 409656, Note_on_c, 11, 76, 0
7, 409680, Note_on_c, 11, 76, 92
7, 409776, Note_on_c, 11, 76, 0
7, 409800, Note_on_c, 11, 76, 92
7, 409896, Note_on_c, 11, 76, 0
7, 409920, Note_on_c, 11, 81, 92
7, 410016, Note_on_c, 11, 81, 0
7, 410040, Note_on_c, 11, 81, 92
7, 410136, Note_on_c, 11, 81, 0
7, 410160, Note_on_c, 11, 81, 92
7, 410256, Note_on_c, 11, 81, 0
7, 410280, Note_on_c, 11, 81, 92
7, 410376, Note_on_c, 11, 81, 0
7, 410400, Note_on_c, 11, 62, 92
7, 410400, Note_on_c, 11, 74, 92
7, 411168, Note_on_c, 11, 74, 0
7, 411168, Note_on_c, 11, 62, 0
7, 411168, End_track
8, 0, Start_track
8, 0, Sequencer_specific, 04, 43, 00, 01, 00
8, 0, Program_c, 12, 48
8, 0, Control_c, 12, 7, 122
8, 0, Control_c, 12, 10, 98
8, 0, Control_c, 12, 91, 85
8, 1440, Note_on_c, 12, 69, 92
8, 1728, Note_on_c, 12, 69, 0
8, 1800, Note_on_c, 12, 69, 92
8, 1896, Note_on_c, 12, 69, 0
8, 1920, Note_on_c, 12, 69, 92
8, 2304, Note_on_c, 12, 69, 0
8, 2880, Note_on_c, 12, 69, 92
8, 3168, Note_on_c, 12, 69, 0
8, 3240, Note_on_c, 12, 69, 92
8, 3336, Note_on_c, 12, 69, 0
8, 3360, Note_on_c, 12, 69, 92
8, 3744, Note_on_c, 12, 69, 0
8, 4320, Note_on_c, 12, 71, 92
8, 4584, Note_on_c, 12, 71, 0
8, 4800, Note_on_c, 12, 69, 92
8, 5064, Note_on_c, 12, 69, 0
8, 5280, Note_on_c, 12, 67, 92
8, 5544, Note_on_c, 12, 67, 0
8, 5760, Note_on_c, 12, 64, 92
8, 6240, Note_on_c, 12, 64, 0
8, 6240, Note_on_c, 12, 62, 92
8, 6528, Note_on_c, 12, 62, 0
8, 7200, Note_on_c, 12, 62, 92
8, 7584, Note_on_c, 12, 62, 0
8, 8640, Note_on_c, 12, 62, 92
8, 9024, Note_on_c, 12, 62, 0
8, 10080, Note_on_c, 12, 67, 92
8, 10368, Note_on_c, 12, 67, 0
8, 10560, Note_on_c, 12, 69, 92
8, 10848, Note_on_c, 12, 69, 0
8, 11040, Note_on_c, 12, 57, 92
8, 11328, Note_on_c, 12, 57, 0
8, 11520, Note_on_c, 12, 74, 80
8, 11640, Note_on_c, 12, 74, 0
8, 11640, Note_on_c, 12, 73, 80
8, 11760, Note_on_c, 12, 73, 0
8, 11760, Note_on_c, 12, 71, 80
8, 11880, Note_on_c, 12, 71, 0
8, 11880, Note_on_c, 12, 69, 80
8, 11976, Note_on_c, 12, 69, 0
8, 12000, Note_on_c, 12, 74, 80
8, 12120, Note_on_c, 12, 74, 0
8, 12120, Note_on_c, 12, 73, 80
8, 12240, Note_on_c, 12, 73, 0
8, 12240, Note_on_c, 12, 71, 80
8, 12360, Note_on_c, 12, 71, 0
8, 12360, Note_on_c, 12, 69, 80
8, 12456, Note_on_c, 12, 69, 0
8, 12480, Note_on_c, 12, 74, 80
8, 12864, Note_on_c, 12, 74, 0
8, 12960, Note_on_c, 12, 62, 80
8, 13344, Note_on_c, 12, 62, 0
8, 14400, Note_on_c, 12, 62, 80
8, 14784, Note_on_c, 12, 62, 0
8, 15840, Note_on_c, 12, 59, 80
8, 16128, Note_on_c, 12, 59, 0
8, 16320, Note_on_c, 12, 57, 92
8, 16608, Note_on_c, 12, 57, 0
8, 16800, Note_on_c, 12, 55, 92
8, 17088, Note_on_c, 12, 55, 0
8, 17280, Note_on_c, 12, 54, 92
8, 17376, Note_on_c, 12, 54, 0
8, 17400, Note_on_c, 12, 66, 92
8, 17496, Note_on_c, 12, 66, 0
8, 17520, Note_on_c, 12, 66, 92
8, 17616, Note_on_c, 12, 66, 0
8, 17640, Note_on_c, 12, 66, 92
8, 17736, Note_on_c, 12, 66, 0
8, 17760, Note_on_c, 12, 66, 92
8, 17856, Note_on_c, 12, 66, 0
8, 17880, Note_on_c, 12, 66, 92
8, 17976, Note_on_c, 12, 66, 0
8, 18000, Note_on_c, 12, 66, 92
8, 18096, Note_on_c, 12, 66, 0
8, 18120, Note_on_c, 12, 66, 92
8, 18216, Note_on_c, 12, 66, 0
8, 18240, Note_on_c, 12, 66, 92
8, 18336, Note_on_c, 12, 66, 0
8, 18360, Note_on_c, 12, 66, 92
8, 18456, Note_on_c, 12, 66, 0
8, 18480, Note_on_c, 12, 66, 92
8, 18576, Note_on_c, 12, 66, 0
8, 18600, Note_on_c, 12, 66, 92
8, 18696, Note_on_c, 12, 66, 0
8, 18720, Note_on_c, 12, 66, 92
8, 18816, Note_on_c, 12, 66, 0
8, 18840, Note_on_c, 12, 66, 92
8, 18936, Note_on_c, 12, 66, 0
8, 18960, Note_on_c, 12, 66, 92
8, 19056, Note_on_c, 12, 66, 0
8, 19080, Note_on_c, 12, 66, 92
8, 19176, Note_on_c, 12, 66, 0
8, 19200, Note_on_c, 12, 66, 92
8, 19296, Note_on_c, 12, 66, 0
8, 19320, Note_on_c, 12, 66, 92
8, 19416, Note_on_c, 12, 66, 0
8, 19440, Note_on_c, 12, 66, 92
8, 19536, Note_on_c, 12, 66, 0
8, 19560, Note_on_c, 12, 66, 92
8, 19656, Note_on_c, 12, 66, 0
8, 19680, Note_on_c, 12, 66, 92
8, 19776, Note_on_c, 12, 66, 0
8, 19800, Note_on_c, 12, 66, 92
8, 19896, Note_on_c, 12, 66, 0
8, 19920, Note_on_c, 12, 66, 92
8, 20016, Note_on_c, 12, 66, 0
8, 20040, Note_on_c, 12, 66, 92
8, 20136, Note_on_c, 12, 66, 0
8, 20160, Note_on_c, 12, 61, 80
8, 20160, Note_on_c, 12, 64, 80
8, 20256, Note_on_c, 12, 64, 0
8, 20256, Note_on_c, 12, 61, 0
8, 20280, Note_on_c, 12, 64, 80
8, 20280, Note_on_c, 12, 61, 80
8, 20376, Note_on_c, 12, 61, 0
8, 20376, Note_on_c, 12, 64, 0
8, 20400, Note_on_c, 12, 64, 80
8, 20400, Note_on_c, 12, 61, 80
8, 20496, Note_on_c, 12, 61, 0
8, 20496, Note_on_c, 12, 64, 0
8, 20520, Note_on_c, 12, 61, 80
8, 20520, Note_on_c, 12, 64, 80
8, 20616, Note_on_c, 12, 64, 0
8, 20616, Note_on_c, 12, 61, 0
8, 20640, Note_on_c, 12, 64, 80
8, 20640, Note_on_c, 12, 61, 80
8, 20736, Note_on_c, 12, 61, 0
8, 20736, Note_on_c, 12, 64, 0
8, 20760, Note_on_c, 12, 61, 80
8, 20760, Note_on_c, 12, 64, 80
8, 20856, Note_on_c, 12, 64, 0
8, 20856, Note_on_c, 12, 61, 0
8, 20880, Note_on_c, 12, 64, 80
8, 20880, Note_on_c, 12, 61, 80
8, 20976, Note_on_c, 12, 61, 0
8, 20976, Note_on_c, 12, 64, 0
8, 21000, Note_on_c, 12, 64, 80
8, 21000, Note_on_c, 12, 61, 80
8, 21096, Note_on_c, 12, 61, 0
8, 21096, Note_on_c, 12, 64, 0
8, 21120, Note_on_c, 12, 64, 80
8, 21120, Note_on_c, 12, 61, 80
8, 21216, Note_on_c, 12, 61, 0
8, 21216, Note_on_c, 12, 64, 0
8, 21240, Note_on_c, 12, 64, 80
8, 21240, Note_on_c, 12, 61, 80
8, 21336, Note_on_c, 12, 61, 0
8, 21336, Note_on_c, 12, 64, 0
8, 21360, Note_on_c, 12, 61, 80
8, 21360, Note_on_c, 12, 64, 80
8, 21456, Note_on_c, 12, 64, 0
8, 21456, Note_on_c, 12, 61, 0
8, 21480, Note_on_c, 12, 61, 80
8, 21480, Note_on_c, 12, 64, 80
8, 21576, Note_on_c, 12, 64, 0
8, 21576, Note_on_c, 12, 61, 0
8, 21600, Note_on_c, 12, 61, 80
8, 21600, Note_on_c, 12, 64, 80
8, 21696, Note_on_c, 12, 64, 0
8, 21696, Note_on_c, 12, 61, 0
8, 21720, Note_on_c, 12, 61, 80
8, 21720, Note_on_c, 12, 64, 80
8, 21816, Note_on_c, 12, 64, 0
8, 21816, Note_on_c, 12, 61, 0
8, 21840, Note_on_c, 12, 64, 80
8, 21840, Note_on_c, 12, 61, 80
8, 21936, Note_on_c, 12, 61, 0
8, 21936, Note_on_c, 12, 64, 0
8, 21960, Note_on_c, 12, 64, 80
8, 21960, Note_on_c, 12, 61, 80
8, 22056, Note_on_c, 12, 61, 0
8, 22056, Note_on_c, 12, 64, 0
8, 22080, Note_on_c, 12, 61, 80
8, 22080, Note_on_c, 12, 64, 80
8, 22176, Note_on_c, 12, 64, 0
8, 22176, Note_on_c, 12, 61, 0
8, 22200, Note_on_c, 12, 61, 80
8, 22200, Note_on_c, 12, 64, 80
8, 22296, Note_on_c, 12, 64, 0
8, 22296, Note_on_c, 12, 61, 0
8, 22320, Note_on_c, 12, 64, 80
8, 22320, Note_on_c, 12, 61, 80
8, 22416, Note_on_c, 12, 61, 0
8, 22416, Note_on_c, 12, 64, 0
8, 22440, Note_on_c, 12, 64, 80
8, 22440, Note_on_c, 12, 61, 80
8, 22536, Note_on_c, 12, 61, 0
8, 22536, Note_on_c, 12, 64, 0
8, 22560, Note_on_c, 12, 64, 80
8, 22560, Note_on_c, 12, 61, 80
8, 22656, Note_on_c, 12, 61, 0
8, 22656, Note_on_c, 12, 64, 0
8, 22680, Note_on_c, 12, 64, 80
8, 22680, Note_on_c, 12, 61, 80
8, 22776, Note_on_c, 12, 61, 0
8, 22776, Note_on_c, 12, 64, 0
8, 22800, Note_on_c, 12, 61, 80
8, 22800, Note_on_c, 12, 64, 80
8, 22896, Note_on_c, 12, 64, 0
8, 22896, Note_on_c, 12, 61, 0
8, 22920, Note_on_c, 12, 61, 80
8, 22920, Note_on_c, 12, 64, 80
8, 23016, Note_on_c, 12, 64, 0
8, 23016, Note_on_c, 12, 61, 0
8, 23040, Note_on_c, 12, 59, 80
8, 23040, Note_on_c, 12, 62, 80
8, 23136, Note_on_c, 12, 62, 0
8, 23136, Note_on_c, 12, 59, 0
8, 23160, Note_on_c, 12, 59, 80
8, 23160, Note_on_c, 12, 62, 80
8, 23256, Note_on_c, 12, 62, 0
8, 23256, Note_on_c, 12, 59, 0
8, 23280, Note_on_c, 12, 59, 80
8, 23280, Note_on_c, 12, 62, 80
8, 23376, Note_on_c, 12, 62, 0
8, 23376, Note_on_c, 12, 59, 0
8, 23400, Note_on_c, 12, 62, 80
8, 23400, Note_on_c, 12, 59, 80
8, 23496, Note_on_c, 12, 59, 0
8, 23496, Note_on_c, 12, 62, 0
8, 23520, Note_on_c, 12, 62, 80
8, 23520, Note_on_c, 12, 59, 80
8, 23616, Note_on_c, 12, 59, 0
8, 23616, Note_on_c, 12, 62, 0
8, 23640, Note_on_c, 12, 62, 80
8, 23640, Note_on_c, 12, 59, 80
8, 23736, Note_on_c, 12, 59, 0
8, 23736, Note_on_c, 12, 62, 0
8, 23760, Note_on_c, 12, 59, 80
8, 23760, Note_on_c, 12, 62, 80
8, 23856, Note_on_c, 12, 62, 0
8, 23856, Note_on_c, 12, 59, 0
8, 23880, Note_on_c, 12, 59, 80
8, 23880, Note_on_c, 12, 62, 80
8, 23976, Note_on_c, 12, 62, 0
8, 23976, Note_on_c, 12, 59, 0
8, 24000, Note_on_c, 12, 62, 80
8, 24000, Note_on_c, 12, 59, 80
8, 24096, Note_on_c, 12, 59, 0
8, 24096, Note_on_c, 12, 62, 0
8, 24120, Note_on_c, 12, 59, 80
8, 24120, Note_on_c, 12, 62, 80
8, 24216, Note_on_c, 12, 62, 0
8, 24216, Note_on_c, 12, 59, 0
8, 24240, Note_on_c, 12, 59, 80
8, 24240, Note_on_c, 12, 62, 80
8, 24336, Note_on_c, 12, 62, 0
8, 24336, Note_on_c, 12, 59, 0
8, 24360, Note_on_c, 12, 62, 80
8, 24360, Note_on_c, 12, 59, 80
8, 24456, Note_on_c, 12, 59, 0
8, 24456, Note_on_c, 12, 62, 0
8, 24480, Note_on_c, 12, 59, 80
8, 24480, Note_on_c, 12, 62, 80
8, 24576, Note_on_c, 12, 62, 0
8, 24576, Note_on_c, 12, 59, 0
8, 24600, Note_on_c, 12, 59, 80
8, 24600, Note_on_c, 12, 62, 80
8, 24696, Note_on_c, 12, 62, 0
8, 24696, Note_on_c, 12, 59, 0
8, 24720, Note_on_c, 12, 62, 80
8, 24720, Note_on_c, 12, 59, 80
8, 24816, Note_on_c, 12, 59, 0
8, 24816, Note_on_c, 12, 62, 0
8, 24840, Note_on_c, 12, 59, 80
8, 24840, Note_on_c, 12, 62, 80
8, 24936, Note_on_c, 12, 62, 0
8, 24936, Note_on_c, 12, 59, 0
8, 24960, Note_on_c, 12, 62, 80
8, 24960, Note_on_c, 12, 59, 80
8, 25056, Note_on_c, 12, 59, 0
8, 25056, Note_on_c, 12, 62, 0
8, 25080, Note_on_c, 12, 62, 80
8, 25080, Note_on_c, 12, 59, 80
8, 25176, Note_on_c, 12, 59, 0
8, 25176, Note_on_c, 12, 62, 0
8, 25200, Note_on_c, 12, 62, 80
8, 25200, Note_on_c, 12, 59, 80
8, 25296, Note_on_c, 12, 59, 0
8, 25296, Note_on_c, 12, 62, 0
8, 25320, Note_on_c, 12, 62, 80
8, 25320, Note_on_c, 12, 59, 80
8, 25416, Note_on_c, 12, 59, 0
8, 25416, Note_on_c, 12, 62, 0
8, 25440, Note_on_c, 12, 68, 80
8, 25536, Note_on_c, 12, 68, 0
8, 25560, Note_on_c, 12, 68, 80
8, 25656, Note_on_c, 12, 68, 0
8, 25680, Note_on_c, 12, 68, 80
8, 25776, Note_on_c, 12, 68, 0
8, 25800, Note_on_c, 12, 68, 80
8, 25896, Note_on_c, 12, 68, 0
8, 25920, Note_on_c, 12, 69, 80
8, 26304, Note_on_c, 12, 69, 0
8, 33120, Note_on_c, 12, 52, 92
8, 33504, Note_on_c, 12, 52, 0
8, 33840, Note_on_c, 12, 71, 92
8, 34032, Note_on_c, 12, 71, 0
8, 34080, Note_on_c, 12, 64, 92
8, 34272, Note_on_c, 12, 64, 0
8, 34320, Note_on_c, 12, 69, 92
8, 34512, Note_on_c, 12, 69, 0
8, 34560, Note_on_c, 12, 68, 92
8, 34944, Note_on_c, 12, 68, 0
8, 35280, Note_on_c, 12, 71, 92
8, 35472, Note_on_c, 12, 71, 0
8, 35520, Note_on_c, 12, 64, 92
8, 35712, Note_on_c, 12, 64, 0
8, 35760, Note_on_c, 12, 69, 92
8, 35952, Note_on_c, 12, 69, 0
8, 36000, Note_on_c, 12, 68, 112
8, 36288, Note_on_c, 12, 68, 0
8, 36480, Note_on_c, 12, 64, 80
8, 36540, Note_on_c, 12, 64, 0
8, 36540, Note_on_c, 12, 63, 80
8, 36600, Note_on_c, 12, 63, 0
8, 36600, Note_on_c, 12, 64, 80
8, 36660, Note_on_c, 12, 64, 0
8, 36660, Note_on_c, 12, 63, 80
8, 36720, Note_on_c, 12, 63, 0
8, 36720, Note_on_c, 12, 64, 80
8, 36780, Note_on_c, 12, 64, 0
8, 36780, Note_on_c, 12, 63, 80
8, 36840, Note_on_c, 12, 63, 0
8, 36840, Note_on_c, 12, 64, 80
8, 36900, Note_on_c, 12, 64, 0
8, 36900, Note_on_c, 12, 63, 80
8, 36960, Note_on_c, 12, 63, 0
8, 36960, Note_on_c, 12, 64, 80
8, 37020, Note_on_c, 12, 64, 0
8, 37020, Note_on_c, 12, 63, 80
8, 37080, Note_on_c, 12, 63, 0
8, 37080, Note_on_c, 12, 64, 80
8, 37140, Note_on_c, 12, 64, 0
8, 37140, Note_on_c, 12, 63, 80
8, 37200, Note_on_c, 12, 63, 0
8, 37200, Note_on_c, 12, 61, 80
8, 37320, Note_on_c, 12, 61, 0
8, 37320, Note_on_c, 12, 63, 80
8, 37440, Note_on_c, 12, 63, 0
8, 37440, Note_on_c, 12, 64, 80
8, 37728, Note_on_c, 12, 64, 0
8, 37920, Note_on_c, 12, 52, 70
8, 38208, Note_on_c, 12, 52, 0
8, 42240, Note_on_c, 12, 57, 58
8, 42480, Note_on_c, 12, 57, 0
8, 42480, Note_on_c, 12, 61, 58
8, 42672, Note_on_c, 12, 61, 0
8, 42720, Note_on_c, 12, 64, 58
8, 42960, Note_on_c, 12, 64, 0
8, 42960, Note_on_c, 12, 61, 58
8, 43152, Note_on_c, 12, 61, 0
8, 43200, Note_on_c, 12, 59, 58
8, 43584, Note_on_c, 12, 59, 0
8, 44160, Note_on_c, 12, 59, 58
8, 44400, Note_on_c, 12, 59, 0
8, 44400, Note_on_c, 12, 56, 58
8, 44592, Note_on_c, 12, 56, 0
8, 44640, Note_on_c, 12, 52, 58
8, 45024, Note_on_c, 12, 52, 0
8, 45120, Note_on_c, 12, 57, 58
8, 45240, Note_on_c, 12, 57, 0
8, 45240, Note_on_c, 12, 61, 58
8, 45528, Note_on_c, 12, 61, 0
8, 45600, Note_on_c, 12, 64, 58
8, 45720, Note_on_c, 12, 64, 0
8, 45720, Note_on_c, 12, 61, 58
8, 46008, Note_on_c, 12, 61, 0
8, 46080, Note_on_c, 12, 59, 58
8, 47040, Note_on_c, 12, 59, 0
8, 47040, Note_on_c, 12, 57, 58
8, 48000, Note_on_c, 12, 57, 0
8, 48480, Note_on_c, 12, 62, 58
8, 48864, Note_on_c, 12, 62, 0
8, 48960, Note_on_c, 12, 61, 58
8, 49920, Note_on_c, 12, 61, 0
8, 49920, Note_on_c, 12, 62, 58
8, 50400, Note_on_c, 12, 62, 0
8, 50400, Note_on_c, 12, 64, 58
8, 51360, Note_on_c, 12, 64, 0
8, 51360, Note_on_c, 12, 52, 58
8, 51840, Note_on_c, 12, 52, 0
8, 52320, Note_on_c, 12, 69, 92
8, 52380, Note_on_c, 12, 69, 0
8, 52380, Note_on_c, 12, 68, 92
8, 52440, Note_on_c, 12, 68, 0
8, 52440, Note_on_c, 12, 69, 92
8, 52500, Note_on_c, 12, 69, 0
8, 52500, Note_on_c, 12, 68, 92
8, 52560, Note_on_c, 12, 68, 0
8, 52560, Note_on_c, 12, 69, 92
8, 52620, Note_on_c, 12, 69, 0
8, 52620, Note_on_c, 12, 68, 92
8, 52680, Note_on_c, 12, 68, 0
8, 52680, Note_on_c, 12, 69, 92
8, 52740, Note_on_c, 12, 69, 0
8, 52740, Note_on_c, 12, 68, 92
8, 52800, Note_on_c, 12, 68, 0
8, 52800, Note_on_c, 12, 69, 92
8, 52860, Note_on_c, 12, 69, 0
8, 52860, Note_on_c, 12, 68, 92
8, 52920, Note_on_c, 12, 68, 0
8, 52920, Note_on_c, 12, 69, 92
8, 52980, Note_on_c, 12, 69, 0
8, 52980, Note_on_c, 12, 68, 92
8, 53040, Note_on_c, 12, 68, 0
8, 53040, Note_on_c, 12, 66, 92
8, 53160, Note_on_c, 12, 66, 0
8, 53160, Note_on_c, 12, 68, 92
8, 53280, Note_on_c, 12, 68, 0
8, 53280, Note_on_c, 12, 69, 92
8, 53568, Note_on_c, 12, 69, 0
8, 53760, Note_on_c, 12, 57, 92
8, 54048, Note_on_c, 12, 57, 0
8, 56640, Note_on_c, 12, 57, 58
8, 56880, Note_on_c, 12, 57, 0
8, 56880, Note_on_c, 12, 61, 58
8, 57072, Note_on_c, 12, 61, 0
8, 57120, Note_on_c, 12, 64, 58
8, 57360, Note_on_c, 12, 64, 0
8, 57360, Note_on_c, 12, 61, 58
8, 57552, Note_on_c, 12, 61, 0
8, 57600, Note_on_c, 12, 59, 58
8, 57984, Note_on_c, 12, 59, 0
8, 58560, Note_on_c, 12, 59, 58
8, 58800, Note_on_c, 12, 59, 0
8, 58800, Note_on_c, 12, 56, 58
8, 58992, Note_on_c, 12, 56, 0
8, 59040, Note_on_c, 12, 52, 58
8, 59424, Note_on_c, 12, 52, 0
8, 59520, Note_on_c, 12, 57, 58
8, 59640, Note_on_c, 12, 57, 0
8, 59640, Note_on_c, 12, 61, 58
8, 59928, Note_on_c, 12, 61, 0
8, 60000, Note_on_c, 12, 64, 58
8, 60120, Note_on_c, 12, 64, 0
8, 60120, Note_on_c, 12, 61, 58
8, 60408, Note_on_c, 12, 61, 0
8, 60480, Note_on_c, 12, 59, 58
8, 61440, Note_on_c, 12, 59, 0
8, 61440, Note_on_c, 12, 57, 58
8, 62304, Note_on_c, 12, 57, 0
8, 62880, Note_on_c, 12, 50, 58
8, 63264, Note_on_c, 12, 50, 0
8, 63360, Note_on_c, 12, 49, 58
8, 64272, Note_on_c, 12, 49, 0
8, 64320, Note_on_c, 12, 50, 58
8, 65256, Note_on_c, 12, 50, 0
8, 65280, Note_on_c, 12, 51, 58
8, 66192, Note_on_c, 12, 51, 0
8, 66240, Note_on_c, 12, 52, 58
8, 66624, Note_on_c, 12, 52, 0
8, 72480, Note_on_c, 12, 61, 58
8, 72960, Note_on_c, 12, 61, 0
8, 72960, Note_on_c, 12, 56, 58
8, 73440, Note_on_c, 12, 56, 0
8, 73440, Note_on_c, 12, 57, 58
8, 73824, Note_on_c, 12, 57, 0
8, 74880, Note_on_c, 12, 71, 92
8, 74940, Note_on_c, 12, 71, 0
8, 74940, Note_on_c, 12, 69, 92
8, 75000, Note_on_c, 12, 69, 0
8, 75000, Note_on_c, 12, 71, 92
8, 75060, Note_on_c, 12, 71, 0
8, 75060, Note_on_c, 12, 69, 92
8, 75120, Note_on_c, 12, 69, 0
8, 75120, Note_on_c, 12, 71, 92
8, 75180, Note_on_c, 12, 71, 0
8, 75180, Note_on_c, 12, 69, 92
8, 75240, Note_on_c, 12, 69, 0
8, 75240, Note_on_c, 12, 71, 92
8, 75300, Note_on_c, 12, 71, 0
8, 75300, Note_on_c, 12, 69, 92
8, 75360, Note_on_c, 12, 69, 0
8, 75360, Note_on_c, 12, 71, 92
8, 75420, Note_on_c, 12, 71, 0
8, 75420, Note_on_c, 12, 69, 92
8, 75480, Note_on_c, 12, 69, 0
8, 75480, Note_on_c, 12, 71, 92
8, 75540, Note_on_c, 12, 71, 0
8, 75540, Note_on_c, 12, 69, 92
8, 75600, Note_on_c, 12, 69, 0
8, 75600, Note_on_c, 12, 68, 92
8, 75720, Note_on_c, 12, 68, 0
8, 75720, Note_on_c, 12, 69, 92
8, 75816, Note_on_c, 12, 69, 0
8, 75840, Note_on_c, 12, 57, 92
8, 76224, Note_on_c, 12, 57, 0
8, 77760, Note_on_c, 12, 66, 92
8, 77820, Note_on_c, 12, 66, 0
8, 77820, Note_on_c, 12, 64, 92
8, 77880, Note_on_c, 12, 64, 0
8, 77880, Note_on_c, 12, 66, 92
8, 77940, Note_on_c, 12, 66, 0
8, 77940, Note_on_c, 12, 64, 92
8, 78000, Note_on_c, 12, 64, 0
8, 78000, Note_on_c, 12, 66, 92
8, 78060, Note_on_c, 12, 66, 0
8, 78060, Note_on_c, 12, 64, 92
8, 78120, Note_on_c, 12, 64, 0
8, 78120, Note_on_c, 12, 66, 92
8, 78180, Note_on_c, 12, 66, 0
8, 78180, Note_on_c, 12, 64, 92
8, 78240, Note_on_c, 12, 64, 0
8, 78240, Note_on_c, 12, 66, 92
8, 78300, Note_on_c, 12, 66, 0
8, 78300, Note_on_c, 12, 64, 92
8, 78360, Note_on_c, 12, 64, 0
8, 78360, Note_on_c, 12, 66, 92
8, 78420, Note_on_c, 12, 66, 0
8, 78420, Note_on_c, 12, 64, 92
8, 78480, Note_on_c, 12, 64, 0
8, 78480, Note_on_c, 12, 63, 92
8, 78600, Note_on_c, 12, 63, 0
8, 78600, Note_on_c, 12, 64, 92
8, 78720, Note_on_c, 12, 64, 0
8, 78720, Note_on_c, 12, 52, 92
8, 79104, Note_on_c, 12, 52, 0
8, 80640, Note_on_c, 12, 71, 92
8, 80700, Note_on_c, 12, 71, 0
8, 80700, Note_on_c, 12, 69, 92
8, 80760, Note_on_c, 12, 69, 0
8, 80760, Note_on_c, 12, 71, 92
8, 80820, Note_on_c, 12, 71, 0
8, 80820, Note_on_c, 12, 69, 92
8, 80880, Note_on_c, 12, 69, 0
8, 80880, Note_on_c, 12, 71, 92
8, 80940, Note_on_c, 12, 71, 0
8, 80940, Note_on_c, 12, 69, 92
8, 81000, Note_on_c, 12, 69, 0
8, 81000, Note_on_c, 12, 71, 92
8, 81060, Note_on_c, 12, 71, 0
8, 81060, Note_on_c, 12, 69, 92
8, 81120, Note_on_c, 12, 69, 0
8, 81120, Note_on_c, 12, 71, 92
8, 81180, Note_on_c, 12, 71, 0
8, 81180, Note_on_c, 12, 69, 92
8, 81240, Note_on_c, 12, 69, 0
8, 81240, Note_on_c, 12, 71, 92
8, 81300, Note_on_c, 12, 71, 0
8, 81300, Note_on_c, 12, 69, 92
8, 81360, Note_on_c, 12, 69, 0
8, 81360, Note_on_c, 12, 68, 92
8, 81480, Note_on_c, 12, 68, 0
8, 81480, Note_on_c, 12, 69, 92
8, 81576, Note_on_c, 12, 69, 0
8, 81600, Note_on_c, 12, 57, 92
8, 81984, Note_on_c, 12, 57, 0
8, 83520, Note_on_c, 12, 71, 92
8, 83580, Note_on_c, 12, 71, 0
8, 83580, Note_on_c, 12, 69, 92
8, 83640, Note_on_c, 12, 69, 0
8, 83640, Note_on_c, 12, 71, 92
8, 83700, Note_on_c, 12, 71, 0
8, 83700, Note_on_c, 12, 69, 92
8, 83760, Note_on_c, 12, 69, 0
8, 83760, Note_on_c, 12, 71, 92
8, 83820, Note_on_c, 12, 71, 0
8, 83820, Note_on_c, 12, 69, 92
8, 83880, Note_on_c, 12, 69, 0
8, 83880, Note_on_c, 12, 71, 92
8, 83940, Note_on_c, 12, 71, 0
8, 83940, Note_on_c, 12, 69, 92
8, 84000, Note_on_c, 12, 69, 0
8, 84000, Note_on_c, 12, 71, 92
8, 84060, Note_on_c, 12, 71, 0
8, 84060, Note_on_c, 12, 69, 92
8, 84120, Note_on_c, 12, 69, 0
8, 84120, Note_on_c, 12, 71, 92
8, 84180, Note_on_c, 12, 71, 0
8, 84180, Note_on_c, 12, 69, 92
8, 84240, Note_on_c, 12, 69, 0
8, 84240, Note_on_c, 12, 68, 92
8, 84360, Note_on_c, 12, 68, 0
8, 84360, Note_on_c, 12, 69, 92
8, 84456, Note_on_c, 12, 69, 0
8, 84480, Note_on_c, 12, 57, 92
8, 84864, Note_on_c, 12, 57, 0
8, 86400, Note_on_c, 12, 71, 92
8, 86460, Note_on_c, 12, 71, 0
8, 86460, Note_on_c, 12, 69, 92
8, 86520, Note_on_c, 12, 69, 0
8, 86520, Note_on_c, 12, 71, 92
8, 86580, Note_on_c, 12, 71, 0
8, 86580, Note_on_c, 12, 69, 92
8, 86640, Note_on_c, 12, 69, 0
8, 86640, Note_on_c, 12, 71, 92
8, 86700, Note_on_c, 12, 71, 0
8, 86700, Note_on_c, 12, 69, 92
8, 86760, Note_on_c, 12, 69, 0
8, 86760, Note_on_c, 12, 71, 92
8, 86820, Note_on_c, 12, 71, 0
8, 86820, Note_on_c, 12, 69, 92
8, 86880, Note_on_c, 12, 69, 0
8, 86880, Note_on_c, 12, 71, 92
8, 86940, Note_on_c, 12, 71, 0
8, 86940, Note_on_c, 12, 69, 92
8, 87000, Note_on_c, 12, 69, 0
8, 87000, Note_on_c, 12, 71, 92
8, 87060, Note_on_c, 12, 71, 0
8, 87060, Note_on_c, 12, 69, 92
8, 87120, Note_on_c, 12, 69, 0
8, 87120, Note_on_c, 12, 68, 92
8, 87240, Note_on_c, 12, 68, 0
8, 87240, Note_on_c, 12, 69, 92
8, 87336, Note_on_c, 12, 69, 0
8, 87360, Note_on_c, 12, 66, 92
8, 87744, Note_on_c, 12, 66, 0
8, 87840, Note_on_c, 12, 66, 92
8, 88320, Note_on_c, 12, 66, 0
8, 88320, Note_on_c, 12, 64, 92
8, 88608, Note_on_c, 12, 64, 0
8, 88800, Note_on_c, 12, 64, 92
8, 89088, Note_on_c, 12, 64, 0
8, 89280, Note_on_c, 12, 66, 92
8, 89568, Note_on_c, 12, 66, 0
8, 89760, Note_on_c, 12, 69, 92
8, 90048, Note_on_c, 12, 69, 0
8, 90240, Note_on_c, 12, 64, 92
8, 90528, Note_on_c, 12, 64, 0
8, 90720, Note_on_c, 12, 69, 70
8, 90720, Note_on_c, 12, 61, 70
8, 90720, Note_on_c, 12, 64, 70
8, 91104, Note_on_c, 12, 64, 0
8, 91104, Note_on_c, 12, 61, 0
8, 91104, Note_on_c, 12, 69, 0
8, 102240, Note_on_c, 12, 69, 92
8, 102528, Note_on_c, 12, 69, 0
8, 102720, Note_on_c, 12, 73, 92
8, 103008, Note_on_c, 12, 73, 0
8, 103200, Note_on_c, 12, 66, 92
8, 103488, Note_on_c, 12, 66, 0
8, 103680, Note_on_c, 12, 69, 92
8, 103968, Note_on_c, 12, 69, 0
8, 104160, Note_on_c, 12, 63, 92
8, 104448, Note_on_c, 12, 63, 0
8, 104640, Note_on_c, 12, 66, 92
8, 104928, Note_on_c, 12, 66, 0
8, 105120, Note_on_c, 12, 64, 92
8, 105312, Note_on_c, 12, 64, 0
8, 105360, Note_on_c, 12, 64, 92
8, 105552, Note_on_c, 12, 64, 0
8, 105600, Note_on_c, 12, 64, 92
8, 105792, Note_on_c, 12, 64, 0
8, 105840, Note_on_c, 12, 64, 92
8, 106032, Note_on_c, 12, 64, 0
8, 106080, Note_on_c, 12, 64, 92
8, 106272, Note_on_c, 12, 64, 0
8, 106320, Note_on_c, 12, 64, 92
8, 106512, Note_on_c, 12, 64, 0
8, 106560, Note_on_c, 12, 64, 92
8, 106752, Note_on_c, 12, 64, 0
8, 106800, Note_on_c, 12, 64, 92
8, 106992, Note_on_c, 12, 64, 0
8, 107040, Note_on_c, 12, 64, 92
8, 107232, Note_on_c, 12, 64, 0
8, 107280, Note_on_c, 12, 64, 92
8, 107472, Note_on_c, 12, 64, 0
8, 107520, Note_on_c, 12, 64, 92
8, 107712, Note_on_c, 12, 64, 0
8, 107760, Note_on_c, 12, 64, 92
8, 107952, Note_on_c, 12, 64, 0
8, 108000, Note_on_c, 12, 57, 92
8, 108384, Note_on_c, 12, 57, 0
8, 108720, Note_on_c, 12, 57, 92
8, 108924, Note_on_c, 12, 57, 0
8, 108960, Note_on_c, 12, 61, 92
8, 109164, Note_on_c, 12, 61, 0
8, 109200, Note_on_c, 12, 64, 92
8, 109404, Note_on_c, 12, 64, 0
8, 109440, Note_on_c, 12, 57, 92
8, 109824, Note_on_c, 12, 57, 0
8, 110160, Note_on_c, 12, 57, 92
8, 110364, Note_on_c, 12, 57, 0
8, 110400, Note_on_c, 12, 61, 92
8, 110604, Note_on_c, 12, 61, 0
8, 110640, Note_on_c, 12, 64, 92
8, 110844, Note_on_c, 12, 64, 0
8, 110880, Note_on_c, 12, 57, 92
8, 111264, Note_on_c, 12, 57, 0
8, 111600, Note_on_c, 12, 57, 92
8, 111804, Note_on_c, 12, 57, 0
8, 111840, Note_on_c, 12, 61, 92
8, 112044, Note_on_c, 12, 61, 0
8, 112080, Note_on_c, 12, 64, 92
8, 112284, Note_on_c, 12, 64, 0
8, 112320, Note_on_c, 12, 57, 92
8, 112608, Note_on_c, 12, 57, 0
8, 112800, Note_on_c, 12, 57, 70
8, 113088, Note_on_c, 12, 57, 0
8, 113760, Note_on_c, 12, 69, 92
8, 114048, Note_on_c, 12, 69, 0
8, 114120, Note_on_c, 12, 69, 92
8, 114216, Note_on_c, 12, 69, 0
8, 114240, Note_on_c, 12, 69, 92
8, 114624, Note_on_c, 12, 69, 0
8, 115200, Note_on_c, 12, 69, 92
8, 115488, Note_on_c, 12, 69, 0
8, 115560, Note_on_c, 12, 69, 92
8, 115656, Note_on_c, 12, 69, 0
8, 115680, Note_on_c, 12, 69, 92
8, 116064, Note_on_c, 12, 69, 0
8, 116640, Note_on_c, 12, 71, 92
8, 116904, Note_on_c, 12, 71, 0
8, 117120, Note_on_c, 12, 69, 92
8, 117384, Note_on_c, 12, 69, 0
8, 117600, Note_on_c, 12, 67, 92
8, 117864, Note_on_c, 12, 67, 0
8, 118080, Note_on_c, 12, 64, 92
8, 118560, Note_on_c, 12, 64, 0
8, 118560, Note_on_c, 12, 62, 92
8, 118848, Note_on_c, 12, 62, 0
8, 119520, Note_on_c, 12, 62, 92
8, 119904, Note_on_c, 12, 62, 0
8, 120960, Note_on_c, 12, 62, 92
8, 121344, Note_on_c, 12, 62, 0
8, 122400, Note_on_c, 12, 67, 92
8, 122688, Note_on_c, 12, 67, 0
8, 122880, Note_on_c, 12, 69, 92
8, 123168, Note_on_c, 12, 69, 0
8, 123360, Note_on_c, 12, 57, 92
8, 123648, Note_on_c, 12, 57, 0
8, 123840, Note_on_c, 12, 74, 80
8, 123960, Note_on_c, 12, 74, 0
8, 123960, Note_on_c, 12, 73, 80
8, 124080, Note_on_c, 12, 73, 0
8, 124080, Note_on_c, 12, 71, 80
8, 124200, Note_on_c, 12, 71, 0
8, 124200, Note_on_c, 12, 69, 80
8, 124296, Note_on_c, 12, 69, 0
8, 124320, Note_on_c, 12, 74, 80
8, 124440, Note_on_c, 12, 74, 0
8, 124440, Note_on_c, 12, 73, 80
8, 124560, Note_on_c, 12, 73, 0
8, 124560, Note_on_c, 12, 71, 80
8, 124680, Note_on_c, 12, 71, 0
8, 124680, Note_on_c, 12, 69, 80
8, 124776, Note_on_c, 12, 69, 0
8, 124800, Note_on_c, 12, 74, 80
8, 125184, Note_on_c, 12, 74, 0
8, 125280, Note_on_c, 12, 62, 80
8, 125664, Note_on_c, 12, 62, 0
8, 126720, Note_on_c, 12, 62, 80
8, 127104, Note_on_c, 12, 62, 0
8, 128160, Note_on_c, 12, 59, 80
8, 128448, Note_on_c, 12, 59, 0
8, 128640, Note_on_c, 12, 57, 92
8, 128928, Note_on_c, 12, 57, 0
8, 129120, Note_on_c, 12, 55, 92
8, 129408, Note_on_c, 12, 55, 0
8, 129600, Note_on_c, 12, 54, 92
8, 129696, Note_on_c, 12, 54, 0
8, 129720, Note_on_c, 12, 66, 92
8, 129816, Note_on_c, 12, 66, 0
8, 129840, Note_on_c, 12, 66, 92
8, 129936, Note_on_c, 12, 66, 0
8, 129960, Note_on_c, 12, 66, 92
8, 130056, Note_on_c, 12, 66, 0
8, 130080, Note_on_c, 12, 66, 92
8, 130176, Note_on_c, 12, 66, 0
8, 130200, Note_on_c, 12, 66, 92
8, 130296, Note_on_c, 12, 66, 0
8, 130320, Note_on_c, 12, 66, 92
8, 130416, Note_on_c, 12, 66, 0
8, 130440, Note_on_c, 12, 66, 92
8, 130536, Note_on_c, 12, 66, 0
8, 130560, Note_on_c, 12, 66, 92
8, 130656, Note_on_c, 12, 66, 0
8, 130680, Note_on_c, 12, 66, 92
8, 130776, Note_on_c, 12, 66, 0
8, 130800, Note_on_c, 12, 66, 92
8, 130896, Note_on_c, 12, 66, 0
8, 130920, Note_on_c, 12, 66, 92
8, 131016, Note_on_c, 12, 66, 0
8, 131040, Note_on_c, 12, 66, 92
8, 131136, Note_on_c, 12, 66, 0
8, 131160, Note_on_c, 12, 66, 92
8, 131256, Note_on_c, 12, 66, 0
8, 131280, Note_on_c, 12, 66, 92
8, 131376, Note_on_c, 12, 66, 0
8, 131400, Note_on_c, 12, 66, 92
8, 131496, Note_on_c, 12, 66, 0
8, 131520, Note_on_c, 12, 66, 92
8, 131616, Note_on_c, 12, 66, 0
8, 131640, Note_on_c, 12, 66, 92
8, 131736, Note_on_c, 12, 66, 0
8, 131760, Note_on_c, 12, 66, 92
8, 131856, Note_on_c, 12, 66, 0
8, 131880, Note_on_c, 12, 66, 92
8, 131976, Note_on_c, 12, 66, 0
8, 132000, Note_on_c, 12, 66, 92
8, 132096, Note_on_c, 12, 66, 0
8, 132120, Note_on_c, 12, 66, 92
8, 132216, Note_on_c, 12, 66, 0
8, 132240, Note_on_c, 12, 66, 92
8, 132336, Note_on_c, 12, 66, 0
8, 132360, Note_on_c, 12, 66, 92
8, 132456, Note_on_c, 12, 66, 0
8, 132480, Note_on_c, 12, 61, 80
8, 132480, Note_on_c, 12, 64, 80
8, 132576, Note_on_c, 12, 64, 0
8, 132576, Note_on_c, 12, 61, 0
8, 132600, Note_on_c, 12, 64, 80
8, 132600, Note_on_c, 12, 61, 80
8, 132696, Note_on_c, 12, 61, 0
8, 132696, Note_on_c, 12, 64, 0
8, 132720, Note_on_c, 12, 64, 80
8, 132720, Note_on_c, 12, 61, 80
8, 132816, Note_on_c, 12, 61, 0
8, 132816, Note_on_c, 12, 64, 0
8, 132840, Note_on_c, 12, 61, 80
8, 132840, Note_on_c, 12, 64, 80
8, 132936, Note_on_c, 12, 64, 0
8, 132936, Note_on_c, 12, 61, 0
8, 132960, Note_on_c, 12, 64, 80
8, 132960, Note_on_c, 12, 61, 80
8, 133056, Note_on_c, 12, 61, 0
8, 133056, Note_on_c, 12, 64, 0
8, 133080, Note_on_c, 12, 61, 80
8, 133080, Note_on_c, 12, 64, 80
8, 133176, Note_on_c, 12, 64, 0
8, 133176, Note_on_c, 12, 61, 0
8, 133200, Note_on_c, 12, 64, 80
8, 133200, Note_on_c, 12, 61, 80
8, 133296, Note_on_c, 12, 61, 0
8, 133296, Note_on_c, 12, 64, 0
8, 133320, Note_on_c, 12, 64, 80
8, 133320, Note_on_c, 12, 61, 80
8, 133416, Note_on_c, 12, 61, 0
8, 133416, Note_on_c, 12, 64, 0
8, 133440, Note_on_c, 12, 64, 80
8, 133440, Note_on_c, 12, 61, 80
8, 133536, Note_on_c, 12, 61, 0
8, 133536, Note_on_c, 12, 64, 0
8, 133560, Note_on_c, 12, 64, 80
8, 133560, Note_on_c, 12, 61, 80
8, 133656, Note_on_c, 12, 61, 0
8, 133656, Note_on_c, 12, 64, 0
8, 133680, Note_on_c, 12, 61, 80
8, 133680, Note_on_c, 12, 64, 80
8, 133776, Note_on_c, 12, 64, 0
8, 133776, Note_on_c, 12, 61, 0
8, 133800, Note_on_c, 12, 61, 80
8, 133800, Note_on_c, 12, 64, 80
8, 133896, Note_on_c, 12, 64, 0
8, 133896, Note_on_c, 12, 61, 0
8, 133920, Note_on_c, 12, 61, 80
8, 133920, Note_on_c, 12, 64, 80
8, 134016, Note_on_c, 12, 64, 0
8, 134016, Note_on_c, 12, 61, 0
8, 134040, Note_on_c, 12, 61, 80
8, 134040, Note_on_c, 12, 64, 80
8, 134136, Note_on_c, 12, 64, 0
8, 134136, Note_on_c, 12, 61, 0
8, 134160, Note_on_c, 12, 64, 80
8, 134160, Note_on_c, 12, 61, 80
8, 134256, Note_on_c, 12, 61, 0
8, 134256, Note_on_c, 12, 64, 0
8, 134280, Note_on_c, 12, 64, 80
8, 134280, Note_on_c, 12, 61, 80
8, 134376, Note_on_c, 12, 61, 0
8, 134376, Note_on_c, 12, 64, 0
8, 134400, Note_on_c, 12, 61, 80
8, 134400, Note_on_c, 12, 64, 80
8, 134496, Note_on_c, 12, 64, 0
8, 134496, Note_on_c, 12, 61, 0
8, 134520, Note_on_c, 12, 61, 80
8, 134520, Note_on_c, 12, 64, 80
8, 134616, Note_on_c, 12, 64, 0
8, 134616, Note_on_c, 12, 61, 0
8, 134640, Note_on_c, 12, 64, 80
8, 134640, Note_on_c, 12, 61, 80
8, 134736, Note_on_c, 12, 61, 0
8, 134736, Note_on_c, 12, 64, 0
8, 134760, Note_on_c, 12, 64, 80
8, 134760, Note_on_c, 12, 61, 80
8, 134856, Note_on_c, 12, 61, 0
8, 134856, Note_on_c, 12, 64, 0
8, 134880, Note_on_c, 12, 64, 80
8, 134880, Note_on_c, 12, 61, 80
8, 134976, Note_on_c, 12, 61, 0
8, 134976, Note_on_c, 12, 64, 0
8, 135000, Note_on_c, 12, 64, 80
8, 135000, Note_on_c, 12, 61, 80
8, 135096, Note_on_c, 12, 61, 0
8, 135096, Note_on_c, 12, 64, 0
8, 135120, Note_on_c, 12, 61, 80
8, 135120, Note_on_c, 12, 64, 80
8, 135216, Note_on_c, 12, 64, 0
8, 135216, Note_on_c, 12, 61, 0
8, 135240, Note_on_c, 12, 61, 80
8, 135240, Note_on_c, 12, 64, 80
8, 135336, Note_on_c, 12, 64, 0
8, 135336, Note_on_c, 12, 61, 0
8, 135360, Note_on_c, 12, 59, 80
8, 135360, Note_on_c, 12, 62, 80
8, 135456, Note_on_c, 12, 62, 0
8, 135456, Note_on_c, 12, 59, 0
8, 135480, Note_on_c, 12, 59, 80
8, 135480, Note_on_c, 12, 62, 80
8, 135576, Note_on_c, 12, 62, 0
8, 135576, Note_on_c, 12, 59, 0
8, 135600, Note_on_c, 12, 59, 80
8, 135600, Note_on_c, 12, 62, 80
8, 135696, Note_on_c, 12, 62, 0
8, 135696, Note_on_c, 12, 59, 0
8, 135720, Note_on_c, 12, 62, 80
8, 135720, Note_on_c, 12, 59, 80
8, 135816, Note_on_c, 12, 59, 0
8, 135816, Note_on_c, 12, 62, 0
8, 135840, Note_on_c, 12, 62, 80
8, 135840, Note_on_c, 12, 59, 80
8, 135936, Note_on_c, 12, 59, 0
8, 135936, Note_on_c, 12, 62, 0
8, 135960, Note_on_c, 12, 62, 80
8, 135960, Note_on_c, 12, 59, 80
8, 136056, Note_on_c, 12, 59, 0
8, 136056, Note_on_c, 12, 62, 0
8, 136080, Note_on_c, 12, 59, 80
8, 136080, Note_on_c, 12, 62, 80
8, 136176, Note_on_c, 12, 62, 0
8, 136176, Note_on_c, 12, 59, 0
8, 136200, Note_on_c, 12, 59, 80
8, 136200, Note_on_c, 12, 62, 80
8, 136296, Note_on_c, 12, 62, 0
8, 136296, Note_on_c, 12, 59, 0
8, 136320, Note_on_c, 12, 62, 80
8, 136320, Note_on_c, 12, 59, 80
8, 136416, Note_on_c, 12, 59, 0
8, 136416, Note_on_c, 12, 62, 0
8, 136440, Note_on_c, 12, 59, 80
8, 136440, Note_on_c, 12, 62, 80
8, 136536, Note_on_c, 12, 62, 0
8, 136536, Note_on_c, 12, 59, 0
8, 136560, Note_on_c, 12, 59, 80
8, 136560, Note_on_c, 12, 62, 80
8, 136656, Note_on_c, 12, 62, 0
8, 136656, Note_on_c, 12, 59, 0
8, 136680, Note_on_c, 12, 62, 80
8, 136680, Note_on_c, 12, 59, 80
8, 136776, Note_on_c, 12, 59, 0
8, 136776, Note_on_c, 12, 62, 0
8, 136800, Note_on_c, 12, 59, 80
8, 136800, Note_on_c, 12, 62, 80
8, 136896, Note_on_c, 12, 62, 0
8, 136896, Note_on_c, 12, 59, 0
8, 136920, Note_on_c, 12, 59, 80
8, 136920, Note_on_c, 12, 62, 80
8, 137016, Note_on_c, 12, 62, 0
8, 137016, Note_on_c, 12, 59, 0
8, 137040, Note_on_c, 12, 62, 80
8, 137040, Note_on_c, 12, 59, 80
8, 137136, Note_on_c, 12, 59, 0
8, 137136, Note_on_c, 12, 62, 0
8, 137160, Note_on_c, 12, 59, 80
8, 137160, Note_on_c, 12, 62, 80
8, 137256, Note_on_c, 12, 62, 0
8, 137256, Note_on_c, 12, 59, 0
8, 137280, Note_on_c, 12, 62, 80
8, 137280, Note_on_c, 12, 59, 80
8, 137376, Note_on_c, 12, 59, 0
8, 137376, Note_on_c, 12, 62, 0
8, 137400, Note_on_c, 12, 62, 80
8, 137400, Note_on_c, 12, 59, 80
8, 137496, Note_on_c, 12, 59, 0
8, 137496, Note_on_c, 12, 62, 0
8, 137520, Note_on_c, 12, 62, 80
8, 137520, Note_on_c, 12, 59, 80
8, 137616, Note_on_c, 12, 59, 0
8, 137616, Note_on_c, 12, 62, 0
8, 137640, Note_on_c, 12, 62, 80
8, 137640, Note_on_c, 12, 59, 80
8, 137736, Note_on_c, 12, 59, 0
8, 137736, Note_on_c, 12, 62, 0
8, 137760, Note_on_c, 12, 68, 80
8, 137856, Note_on_c, 12, 68, 0
8, 137880, Note_on_c, 12, 68, 80
8, 137976, Note_on_c, 12, 68, 0
8, 138000, Note_on_c, 12, 68, 80
8, 138096, Note_on_c, 12, 68, 0
8, 138120, Note_on_c, 12, 68, 80
8, 138216, Note_on_c, 12, 68, 0
8, 138240, Note_on_c, 12, 69, 80
8, 138624, Note_on_c, 12, 69, 0
8, 145440, Note_on_c, 12, 52, 92
8, 145824, Note_on_c, 12, 52, 0
8, 146160, Note_on_c, 12, 71, 92
8, 146352, Note_on_c, 12, 71, 0
8, 146400, Note_on_c, 12, 64, 92
8, 146592, Note_on_c, 12, 64, 0
8, 146640, Note_on_c, 12, 69, 92
8, 146832, Note_on_c, 12, 69, 0
8, 146880, Note_on_c, 12, 68, 92
8, 147264, Note_on_c, 12, 68, 0
8, 147600, Note_on_c, 12, 71, 92
8, 147792, Note_on_c, 12, 71, 0
8, 147840, Note_on_c, 12, 64, 92
8, 148032, Note_on_c, 12, 64, 0
8, 148080, Note_on_c, 12, 69, 92
8, 148272, Note_on_c, 12, 69, 0
8, 148320, Note_on_c, 12, 68, 112
8, 148608, Note_on_c, 12, 68, 0
8, 148800, Note_on_c, 12, 64, 80
8, 148860, Note_on_c, 12, 64, 0
8, 148860, Note_on_c, 12, 63, 80
8, 148920, Note_on_c, 12, 63, 0
8, 148920, Note_on_c, 12, 64, 80
8, 148980, Note_on_c, 12, 64, 0
8, 148980, Note_on_c, 12, 63, 80
8, 149040, Note_on_c, 12, 63, 0
8, 149040, Note_on_c, 12, 64, 80
8, 149100, Note_on_c, 12, 64, 0
8, 149100, Note_on_c, 12, 63, 80
8, 149160, Note_on_c, 12, 63, 0
8, 149160, Note_on_c, 12, 64, 80
8, 149220, Note_on_c, 12, 64, 0
8, 149220, Note_on_c, 12, 63, 80
8, 149280, Note_on_c, 12, 63, 0
8, 149280, Note_on_c, 12, 64, 80
8, 149340, Note_on_c, 12, 64, 0
8, 149340, Note_on_c, 12, 63, 80
8, 149400, Note_on_c, 12, 63, 0
8, 149400, Note_on_c, 12, 64, 80
8, 149460, Note_on_c, 12, 64, 0
8, 149460, Note_on_c, 12, 63, 80
8, 149520, Note_on_c, 12, 63, 0
8, 149520, Note_on_c, 12, 61, 80
8, 149640, Note_on_c, 12, 61, 0
8, 149640, Note_on_c, 12, 63, 80
8, 149760, Note_on_c, 12, 63, 0
8, 149760, Note_on_c, 12, 64, 80
8, 150048, Note_on_c, 12, 64, 0
8, 150240, Note_on_c, 12, 52, 70
8, 150528, Note_on_c, 12, 52, 0
8, 154560, Note_on_c, 12, 57, 58
8, 154800, Note_on_c, 12, 57, 0
8, 154800, Note_on_c, 12, 61, 58
8, 154992, Note_on_c, 12, 61, 0
8, 155040, Note_on_c, 12, 64, 58
8, 155280, Note_on_c, 12, 64, 0
8, 155280, Note_on_c, 12, 61, 58
8, 155472, Note_on_c, 12, 61, 0
8, 155520, Note_on_c, 12, 59, 58
8, 155904, Note_on_c, 12, 59, 0
8, 156480, Note_on_c, 12, 59, 58
8, 156720, Note_on_c, 12, 59, 0
8, 156720, Note_on_c, 12, 56, 58
8, 156912, Note_on_c, 12, 56, 0
8, 156960, Note_on_c, 12, 52, 58
8, 157344, Note_on_c, 12, 52, 0
8, 157440, Note_on_c, 12, 57, 58
8, 157560, Note_on_c, 12, 57, 0
8, 157560, Note_on_c, 12, 61, 58
8, 157848, Note_on_c, 12, 61, 0
8, 157920, Note_on_c, 12, 64, 58
8, 158040, Note_on_c, 12, 64, 0
8, 158040, Note_on_c, 12, 61, 58
8, 158328, Note_on_c, 12, 61, 0
8, 158400, Note_on_c, 12, 59, 58
8, 159360, Note_on_c, 12, 59, 0
8, 159360, Note_on_c, 12, 57, 58
8, 160320, Note_on_c, 12, 57, 0
8, 160800, Note_on_c, 12, 62, 58
8, 161184, Note_on_c, 12, 62, 0
8, 161280, Note_on_c, 12, 61, 58
8, 162240, Note_on_c, 12, 61, 0
8, 162240, Note_on_c, 12, 62, 58
8, 162720, Note_on_c, 12, 62, 0
8, 162720, Note_on_c, 12, 64, 58
8, 163680, Note_on_c, 12, 64, 0
8, 163680, Note_on_c, 12, 52, 58
8, 164160, Note_on_c, 12, 52, 0
8, 164640, Note_on_c, 12, 69, 92
8, 164700, Note_on_c, 12, 69, 0
8, 164700, Note_on_c, 12, 68, 92
8, 164760, Note_on_c, 12, 68, 0
8, 164760, Note_on_c, 12, 69, 92
8, 164820, Note_on_c, 12, 69, 0
8, 164820, Note_on_c, 12, 68, 92
8, 164880, Note_on_c, 12, 68, 0
8, 164880, Note_on_c, 12, 69, 92
8, 164940, Note_on_c, 12, 69, 0
8, 164940, Note_on_c, 12, 68, 92
8, 165000, Note_on_c, 12, 68, 0
8, 165000, Note_on_c, 12, 69, 92
8, 165060, Note_on_c, 12, 69, 0
8, 165060, Note_on_c, 12, 68, 92
8, 165120, Note_on_c, 12, 68, 0
8, 165120, Note_on_c, 12, 69, 92
8, 165180, Note_on_c, 12, 69, 0
8, 165180, Note_on_c, 12, 68, 92
8, 165240, Note_on_c, 12, 68, 0
8, 165240, Note_on_c, 12, 69, 92
8, 165300, Note_on_c, 12, 69, 0
8, 165300, Note_on_c, 12, 68, 92
8, 165360, Note_on_c, 12, 68, 0
8, 165360, Note_on_c, 12, 66, 92
8, 165480, Note_on_c, 12, 66, 0
8, 165480, Note_on_c, 12, 68, 92
8, 165600, Note_on_c, 12, 68, 0
8, 165600, Note_on_c, 12, 69, 92
8, 165888, Note_on_c, 12, 69, 0
8, 166080, Note_on_c, 12, 57, 92
8, 166368, Note_on_c, 12, 57, 0
8, 168960, Note_on_c, 12, 57, 58
8, 169200, Note_on_c, 12, 57, 0
8, 169200, Note_on_c, 12, 61, 58
8, 169392, Note_on_c, 12, 61, 0
8, 169440, Note_on_c, 12, 64, 58
8, 169680, Note_on_c, 12, 64, 0
8, 169680, Note_on_c, 12, 61, 58
8, 169872, Note_on_c, 12, 61, 0
8, 169920, Note_on_c, 12, 59, 58
8, 170304, Note_on_c, 12, 59, 0
8, 170880, Note_on_c, 12, 59, 58
8, 171120, Note_on_c, 12, 59, 0
8, 171120, Note_on_c, 12, 56, 58
8, 171312, Note_on_c, 12, 56, 0
8, 171360, Note_on_c, 12, 52, 58
8, 171744, Note_on_c, 12, 52, 0
8, 171840, Note_on_c, 12, 57, 58
8, 171960, Note_on_c, 12, 57, 0
8, 171960, Note_on_c, 12, 61, 58
8, 172248, Note_on_c, 12, 61, 0
8, 172320, Note_on_c, 12, 64, 58
8, 172440, Note_on_c, 12, 64, 0
8, 172440, Note_on_c, 12, 61, 58
8, 172728, Note_on_c, 12, 61, 0
8, 172800, Note_on_c, 12, 59, 58
8, 173760, Note_on_c, 12, 59, 0
8, 173760, Note_on_c, 12, 57, 58
8, 174624, Note_on_c, 12, 57, 0
8, 175200, Note_on_c, 12, 50, 58
8, 175584, Note_on_c, 12, 50, 0
8, 175680, Note_on_c, 12, 49, 58
8, 176592, Note_on_c, 12, 49, 0
8, 176640, Note_on_c, 12, 50, 58
8, 177576, Note_on_c, 12, 50, 0
8, 177600, Note_on_c, 12, 51, 58
8, 178512, Note_on_c, 12, 51, 0
8, 178560, Note_on_c, 12, 52, 58
8, 178944, Note_on_c, 12, 52, 0
8, 184800, Note_on_c, 12, 61, 58
8, 185280, Note_on_c, 12, 61, 0
8, 185280, Note_on_c, 12, 56, 58
8, 185760, Note_on_c, 12, 56, 0
8, 185760, Note_on_c, 12, 57, 58
8, 186144, Note_on_c, 12, 57, 0
8, 187200, Note_on_c, 12, 71, 92
8, 187260, Note_on_c, 12, 71, 0
8, 187260, Note_on_c, 12, 69, 92
8, 187320, Note_on_c, 12, 69, 0
8, 187320, Note_on_c, 12, 71, 92
8, 187380, Note_on_c, 12, 71, 0
8, 187380, Note_on_c, 12, 69, 92
8, 187440, Note_on_c, 12, 69, 0
8, 187440, Note_on_c, 12, 71, 92
8, 187500, Note_on_c, 12, 71, 0
8, 187500, Note_on_c, 12, 69, 92
8, 187560, Note_on_c, 12, 69, 0
8, 187560, Note_on_c, 12, 71, 92
8, 187620, Note_on_c, 12, 71, 0
8, 187620, Note_on_c, 12, 69, 92
8, 187680, Note_on_c, 12, 69, 0
8, 187680, Note_on_c, 12, 71, 92
8, 187740, Note_on_c, 12, 71, 0
8, 187740, Note_on_c, 12, 69, 92
8, 187800, Note_on_c, 12, 69, 0
8, 187800, Note_on_c, 12, 71, 92
8, 187860, Note_on_c, 12, 71, 0
8, 187860, Note_on_c, 12, 69, 92
8, 187920, Note_on_c, 12, 69, 0
8, 187920, Note_on_c, 12, 68, 92
8, 188040, Note_on_c, 12, 68, 0
8, 188040, Note_on_c, 12, 69, 92
8, 188136, Note_on_c, 12, 69, 0
8, 188160, Note_on_c, 12, 57, 92
8, 188544, Note_on_c, 12, 57, 0
8, 190080, Note_on_c, 12, 66, 92
8, 190140, Note_on_c, 12, 66, 0
8, 190140, Note_on_c, 12, 64, 92
8, 190200, Note_on_c, 12, 64, 0
8, 190200, Note_on_c, 12, 66, 92
8, 190260, Note_on_c, 12, 66, 0
8, 190260, Note_on_c, 12, 64, 92
8, 190320, Note_on_c, 12, 64, 0
8, 190320, Note_on_c, 12, 66, 92
8, 190380, Note_on_c, 12, 66, 0
8, 190380, Note_on_c, 12, 64, 92
8, 190440, Note_on_c, 12, 64, 0
8, 190440, Note_on_c, 12, 66, 92
8, 190500, Note_on_c, 12, 66, 0
8, 190500, Note_on_c, 12, 64, 92
8, 190560, Note_on_c, 12, 64, 0
8, 190560, Note_on_c, 12, 66, 92
8, 190620, Note_on_c, 12, 66, 0
8, 190620, Note_on_c, 12, 64, 92
8, 190680, Note_on_c, 12, 64, 0
8, 190680, Note_on_c, 12, 66, 92
8, 190740, Note_on_c, 12, 66, 0
8, 190740, Note_on_c, 12, 64, 92
8, 190800, Note_on_c, 12, 64, 0
8, 190800, Note_on_c, 12, 63, 92
8, 190920, Note_on_c, 12, 63, 0
8, 190920, Note_on_c, 12, 64, 92
8, 191040, Note_on_c, 12, 64, 0
8, 191040, Note_on_c, 12, 52, 92
8, 191424, Note_on_c, 12, 52, 0
8, 192960, Note_on_c, 12, 71, 92
8, 193020, Note_on_c, 12, 71, 0
8, 193020, Note_on_c, 12, 69, 92
8, 193080, Note_on_c, 12, 69, 0
8, 193080, Note_on_c, 12, 71, 92
8, 193140, Note_on_c, 12, 71, 0
8, 193140, Note_on_c, 12, 69, 92
8, 193200, Note_on_c, 12, 69, 0
8, 193200, Note_on_c, 12, 71, 92
8, 193260, Note_on_c, 12, 71, 0
8, 193260, Note_on_c, 12, 69, 92
8, 193320, Note_on_c, 12, 69, 0
8, 193320, Note_on_c, 12, 71, 92
8, 193380, Note_on_c, 12, 71, 0
8, 193380, Note_on_c, 12, 69, 92
8, 193440, Note_on_c, 12, 69, 0
8, 193440, Note_on_c, 12, 71, 92
8, 193500, Note_on_c, 12, 71, 0
8, 193500, Note_on_c, 12, 69, 92
8, 193560, Note_on_c, 12, 69, 0
8, 193560, Note_on_c, 12, 71, 92
8, 193620, Note_on_c, 12, 71, 0
8, 193620, Note_on_c, 12, 69, 92
8, 193680, Note_on_c, 12, 69, 0
8, 193680, Note_on_c, 12, 68, 92
8, 193800, Note_on_c, 12, 68, 0
8, 193800, Note_on_c, 12, 69, 92
8, 193896, Note_on_c, 12, 69, 0
8, 193920, Note_on_c, 12, 57, 92
8, 194304, Note_on_c, 12, 57, 0
8, 195840, Note_on_c, 12, 71, 92
8, 195900, Note_on_c, 12, 71, 0
8, 195900, Note_on_c, 12, 69, 92
8, 195960, Note_on_c, 12, 69, 0
8, 195960, Note_on_c, 12, 71, 92
8, 196020, Note_on_c, 12, 71, 0
8, 196020, Note_on_c, 12, 69, 92
8, 196080, Note_on_c, 12, 69, 0
8, 196080, Note_on_c, 12, 71, 92
8, 196140, Note_on_c, 12, 71, 0
8, 196140, Note_on_c, 12, 69, 92
8, 196200, Note_on_c, 12, 69, 0
8, 196200, Note_on_c, 12, 71, 92
8, 196260, Note_on_c, 12, 71, 0
8, 196260, Note_on_c, 12, 69, 92
8, 196320, Note_on_c, 12, 69, 0
8, 196320, Note_on_c, 12, 71, 92
8, 196380, Note_on_c, 12, 71, 0
8, 196380, Note_on_c, 12, 69, 92
8, 196440, Note_on_c, 12, 69, 0
8, 196440, Note_on_c, 12, 71, 92
8, 196500, Note_on_c, 12, 71, 0
8, 196500, Note_on_c, 12, 69, 92
8, 196560, Note_on_c, 12, 69, 0
8, 196560, Note_on_c, 12, 68, 92
8, 196680, Note_on_c, 12, 68, 0
8, 196680, Note_on_c, 12, 69, 92
8, 196776, Note_on_c, 12, 69, 0
8, 196800, Note_on_c, 12, 57, 92
8, 197184, Note_on_c, 12, 57, 0
8, 198720, Note_on_c, 12, 71, 92
8, 198780, Note_on_c, 12, 71, 0
8, 198780, Note_on_c, 12, 69, 92
8, 198840, Note_on_c, 12, 69, 0
8, 198840, Note_on_c, 12, 71, 92
8, 198900, Note_on_c, 12, 71, 0
8, 198900, Note_on_c, 12, 69, 92
8, 198960, Note_on_c, 12, 69, 0
8, 198960, Note_on_c, 12, 71, 92
8, 199020, Note_on_c, 12, 71, 0
8, 199020, Note_on_c, 12, 69, 92
8, 199080, Note_on_c, 12, 69, 0
8, 199080, Note_on_c, 12, 71, 92
8, 199140, Note_on_c, 12, 71, 0
8, 199140, Note_on_c, 12, 69, 92
8, 199200, Note_on_c, 12, 69, 0
8, 199200, Note_on_c, 12, 71, 92
8, 199260, Note_on_c, 12, 71, 0
8, 199260, Note_on_c, 12, 69, 92
8, 199320, Note_on_c, 12, 69, 0
8, 199320, Note_on_c, 12, 71, 92
8, 199380, Note_on_c, 12, 71, 0
8, 199380, Note_on_c, 12, 69, 92
8, 199440, Note_on_c, 12, 69, 0
8, 199440, Note_on_c, 12, 68, 92
8, 199560, Note_on_c, 12, 68, 0
8, 199560, Note_on_c, 12, 69, 92
8, 199656, Note_on_c, 12, 69, 0
8, 199680, Note_on_c, 12, 66, 92
8, 200064, Note_on_c, 12, 66, 0
8, 200160, Note_on_c, 12, 66, 92
8, 200640, Note_on_c, 12, 66, 0
8, 200640, Note_on_c, 12, 64, 92
8, 200928, Note_on_c, 12, 64, 0
8, 201120, Note_on_c, 12, 64, 92
8, 201408, Note_on_c, 12, 64, 0
8, 201600, Note_on_c, 12, 66, 92
8, 201888, Note_on_c, 12, 66, 0
8, 202080, Note_on_c, 12, 69, 92
8, 202368, Note_on_c, 12, 69, 0
8, 202560, Note_on_c, 12, 64, 92
8, 202848, Note_on_c, 12, 64, 0
8, 203040, Note_on_c, 12, 69, 70
8, 203040, Note_on_c, 12, 61, 70
8, 203040, Note_on_c, 12, 64, 70
8, 203424, Note_on_c, 12, 64, 0
8, 203424, Note_on_c, 12, 61, 0
8, 203424, Note_on_c, 12, 69, 0
8, 214560, Note_on_c, 12, 69, 92
8, 214848, Note_on_c, 12, 69, 0
8, 215040, Note_on_c, 12, 73, 92
8, 215328, Note_on_c, 12, 73, 0
8, 215520, Note_on_c, 12, 66, 92
8, 215808, Note_on_c, 12, 66, 0
8, 216000, Note_on_c, 12, 69, 92
8, 216288, Note_on_c, 12, 69, 0
8, 216480, Note_on_c, 12, 63, 92
8, 216768, Note_on_c, 12, 63, 0
8, 216960, Note_on_c, 12, 66, 92
8, 217248, Note_on_c, 12, 66, 0
8, 217440, Note_on_c, 12, 64, 92
8, 217632, Note_on_c, 12, 64, 0
8, 217680, Note_on_c, 12, 64, 92
8, 217872, Note_on_c, 12, 64, 0
8, 217920, Note_on_c, 12, 64, 92
8, 218112, Note_on_c, 12, 64, 0
8, 218160, Note_on_c, 12, 64, 92
8, 218352, Note_on_c, 12, 64, 0
8, 218400, Note_on_c, 12, 64, 92
8, 218592, Note_on_c, 12, 64, 0
8, 218640, Note_on_c, 12, 64, 92
8, 218832, Note_on_c, 12, 64, 0
8, 218880, Note_on_c, 12, 64, 92
8, 219072, Note_on_c, 12, 64, 0
8, 219120, Note_on_c, 12, 64, 92
8, 219312, Note_on_c, 12, 64, 0
8, 219360, Note_on_c, 12, 64, 92
8, 219552, Note_on_c, 12, 64, 0
8, 219600, Note_on_c, 12, 64, 92
8, 219792, Note_on_c, 12, 64, 0
8, 219840, Note_on_c, 12, 64, 92
8, 220032, Note_on_c, 12, 64, 0
8, 220080, Note_on_c, 12, 64, 92
8, 220272, Note_on_c, 12, 64, 0
8, 220320, Note_on_c, 12, 57, 92
8, 220704, Note_on_c, 12, 57, 0
8, 221040, Note_on_c, 12, 57, 92
8, 221244, Note_on_c, 12, 57, 0
8, 221280, Note_on_c, 12, 61, 92
8, 221484, Note_on_c, 12, 61, 0
8, 221520, Note_on_c, 12, 64, 92
8, 221724, Note_on_c, 12, 64, 0
8, 221760, Note_on_c, 12, 57, 92
8, 222144, Note_on_c, 12, 57, 0
8, 222480, Note_on_c, 12, 57, 92
8, 222684, Note_on_c, 12, 57, 0
8, 222720, Note_on_c, 12, 61, 92
8, 222924, Note_on_c, 12, 61, 0
8, 222960, Note_on_c, 12, 64, 92
8, 223164, Note_on_c, 12, 64, 0
8, 223200, Note_on_c, 12, 57, 92
8, 223584, Note_on_c, 12, 57, 0
8, 223920, Note_on_c, 12, 57, 92
8, 224124, Note_on_c, 12, 57, 0
8, 224160, Note_on_c, 12, 61, 92
8, 224364, Note_on_c, 12, 61, 0
8, 224400, Note_on_c, 12, 64, 92
8, 224604, Note_on_c, 12, 64, 0
8, 224640, Note_on_c, 12, 57, 92
8, 224928, Note_on_c, 12, 57, 0
8, 225120, Note_on_c, 12, 57, 70
8, 225408, Note_on_c, 12, 57, 0
8, 226080, Note_on_c, 12, 49, 58
8, 226392, Note_on_c, 12, 49, 0
8, 226560, Note_on_c, 12, 50, 58
8, 226872, Note_on_c, 12, 50, 0
8, 227040, Note_on_c, 12, 52, 58
8, 227352, Note_on_c, 12, 52, 0
8, 227520, Note_on_c, 12, 54, 58
8, 227880, Note_on_c, 12, 54, 0
8, 227880, Note_on_c, 12, 55, 58
8, 227976, Note_on_c, 12, 55, 0
8, 228000, Note_on_c, 12, 52, 58
8, 228360, Note_on_c, 12, 52, 0
8, 228360, Note_on_c, 12, 54, 58
8, 228456, Note_on_c, 12, 54, 0
8, 228480, Note_on_c, 12, 50, 58
8, 228864, Note_on_c, 12, 50, 0
8, 228960, Note_on_c, 12, 56, 58
8, 229272, Note_on_c, 12, 56, 0
8, 229440, Note_on_c, 12, 57, 58
8, 229752, Note_on_c, 12, 57, 0
8, 229920, Note_on_c, 12, 59, 58
8, 230232, Note_on_c, 12, 59, 0
8, 230400, Note_on_c, 12, 52, 58
8, 230760, Note_on_c, 12, 52, 0
8, 230760, Note_on_c, 12, 54, 58
8, 230856, Note_on_c, 12, 54, 0
8, 230880, Note_on_c, 12, 50, 58
8, 231240, Note_on_c, 12, 50, 0
8, 231240, Note_on_c, 12, 52, 58
8, 231336, Note_on_c, 12, 52, 0
8, 231360, Note_on_c, 12, 49, 58
8, 231744, Note_on_c, 12, 49, 0
8, 233280, Note_on_c, 12, 54, 58
8, 233592, Note_on_c, 12, 54, 0
8, 233760, Note_on_c, 12, 55, 58
8, 234072, Note_on_c, 12, 55, 0
8, 234240, Note_on_c, 12, 57, 58
8, 234552, Note_on_c, 12, 57, 0
8, 234720, Note_on_c, 12, 59, 58
8, 235080, Note_on_c, 12, 59, 0
8, 235080, Note_on_c, 12, 60, 58
8, 235176, Note_on_c, 12, 60, 0
8, 235200, Note_on_c, 12, 57, 58
8, 235560, Note_on_c, 12, 57, 0
8, 235560, Note_on_c, 12, 59, 58
8, 235656, Note_on_c, 12, 59, 0
8, 235680, Note_on_c, 12, 55, 58
8, 236064, Note_on_c, 12, 55, 0
8, 236160, Note_on_c, 12, 61, 58
8, 236472, Note_on_c, 12, 61, 0
8, 236640, Note_on_c, 12, 62, 58
8, 236952, Note_on_c, 12, 62, 0
8, 237120, Note_on_c, 12, 64, 58
8, 237432, Note_on_c, 12, 64, 0
8, 237600, Note_on_c, 12, 57, 58
8, 237960, Note_on_c, 12, 57, 0
8, 237960, Note_on_c, 12, 59, 58
8, 238056, Note_on_c, 12, 59, 0
8, 238080, Note_on_c, 12, 55, 58
8, 238440, Note_on_c, 12, 55, 0
8, 238440, Note_on_c, 12, 57, 58
8, 238536, Note_on_c, 12, 57, 0
8, 238560, Note_on_c, 12, 54, 58
8, 238944, Note_on_c, 12, 54, 0
8, 240480, Note_on_c, 12, 59, 58
8, 240792, Note_on_c, 12, 59, 0
8, 240960, Note_on_c, 12, 60, 58
8, 241272, Note_on_c, 12, 60, 0
8, 241440, Note_on_c, 12, 62, 58
8, 241752, Note_on_c, 12, 62, 0
8, 241920, Note_on_c, 12, 64, 58
8, 242280, Note_on_c, 12, 64, 0
8, 242280, Note_on_c, 12, 65, 58
8, 242376, Note_on_c, 12, 65, 0
8, 242400, Note_on_c, 12, 62, 58
8, 242760, Note_on_c, 12, 62, 0
8, 242760, Note_on_c, 12, 64, 58
8, 242856, Note_on_c, 12, 64, 0
8, 242880, Note_on_c, 12, 60, 58
8, 243264, Note_on_c, 12, 60, 0
8, 243360, Note_on_c, 12, 54, 58
8, 243672, Note_on_c, 12, 54, 0
8, 243840, Note_on_c, 12, 55, 58
8, 244152, Note_on_c, 12, 55, 0
8, 244320, Note_on_c, 12, 57, 58
8, 244632, Note_on_c, 12, 57, 0
8, 244800, Note_on_c, 12, 62, 58
8, 245160, Note_on_c, 12, 62, 0
8, 245160, Note_on_c, 12, 64, 58
8, 245256, Note_on_c, 12, 64, 0
8, 245280, Note_on_c, 12, 60, 58
8, 245640, Note_on_c, 12, 60, 0
8, 245640, Note_on_c, 12, 62, 58
8, 245736, Note_on_c, 12, 62, 0
8, 245760, Note_on_c, 12, 59, 58
8, 246144, Note_on_c, 12, 59, 0
8, 246720, Note_on_c, 12, 66, 92
8, 247032, Note_on_c, 12, 66, 0
8, 247200, Note_on_c, 12, 67, 92
8, 247512, Note_on_c, 12, 67, 0
8, 247680, Note_on_c, 12, 61, 92
8, 247992, Note_on_c, 12, 61, 0
8, 248160, Note_on_c, 12, 59, 92
8, 248472, Note_on_c, 12, 59, 0
8, 248640, Note_on_c, 12, 61, 92
8, 248952, Note_on_c, 12, 61, 0
8, 249120, Note_on_c, 12, 66, 92
8, 249432, Note_on_c, 12, 66, 0
8, 249600, Note_on_c, 12, 64, 92
8, 249912, Note_on_c, 12, 64, 0
8, 250080, Note_on_c, 12, 66, 92
8, 250392, Note_on_c, 12, 66, 0
8, 250560, Note_on_c, 12, 59, 92
8, 250872, Note_on_c, 12, 59, 0
8, 251040, Note_on_c, 12, 57, 92
8, 251352, Note_on_c, 12, 57, 0
8, 251520, Note_on_c, 12, 59, 92
8, 251832, Note_on_c, 12, 59, 0
8, 252000, Note_on_c, 12, 64, 92
8, 252312, Note_on_c, 12, 64, 0
8, 252480, Note_on_c, 12, 62, 92
8, 252792, Note_on_c, 12, 62, 0
8, 252960, Note_on_c, 12, 64, 92
8, 253272, Note_on_c, 12, 64, 0
8, 253440, Note_on_c, 12, 69, 92
8, 253800, Note_on_c, 12, 69, 0
8, 253800, Note_on_c, 12, 71, 92
8, 253896, Note_on_c, 12, 71, 0
8, 253920, Note_on_c, 12, 67, 92
8, 254280, Note_on_c, 12, 67, 0
8, 254280, Note_on_c, 12, 69, 92
8, 254376, Note_on_c, 12, 69, 0
8, 254400, Note_on_c, 12, 66, 92
8, 254784, Note_on_c, 12, 66, 0
8, 255360, Note_on_c, 12, 64, 92
8, 255744, Note_on_c, 12, 64, 0
8, 255840, Note_on_c, 12, 64, 92
8, 256224, Note_on_c, 12, 64, 0
8, 256320, Note_on_c, 12, 69, 92
8, 256680, Note_on_c, 12, 69, 0
8, 256680, Note_on_c, 12, 71, 92
8, 256776, Note_on_c, 12, 71, 0
8, 256800, Note_on_c, 12, 67, 92
8, 257160, Note_on_c, 12, 67, 0
8, 257160, Note_on_c, 12, 69, 92
8, 257256, Note_on_c, 12, 69, 0
8, 257280, Note_on_c, 12, 66, 92
8, 257664, Note_on_c, 12, 66, 0
8, 258240, Note_on_c, 12, 62, 92
8, 258624, Note_on_c, 12, 62, 0
8, 258720, Note_on_c, 12, 62, 92
8, 259104, Note_on_c, 12, 62, 0
8, 260640, Note_on_c, 12, 59, 58
8, 263520, Note_on_c, 12, 59, 0
8, 263520, Note_on_c, 12, 57, 58
8, 264240, Note_on_c, 12, 57, 0
8, 264240, Note_on_c, 12, 61, 58
8, 264480, Note_on_c, 12, 61, 0
8, 264480, Note_on_c, 12, 57, 58
8, 264960, Note_on_c, 12, 57, 0
8, 264960, Note_on_c, 12, 59, 58
8, 265344, Note_on_c, 12, 59, 0
8, 266400, Note_on_c, 12, 59, 58
8, 269280, Note_on_c, 12, 59, 0
8, 269280, Note_on_c, 12, 57, 30
8, 269664, Note_on_c, 12, 57, 0
8, 275040, Note_on_c, 12, 69, 92
8, 275328, Note_on_c, 12, 69, 0
8, 275400, Note_on_c, 12, 69, 92
8, 275496, Note_on_c, 12, 69, 0
8, 275520, Note_on_c, 12, 69, 92
8, 275904, Note_on_c, 12, 69, 0
8, 276480, Note_on_c, 12, 69, 92
8, 276768, Note_on_c, 12, 69, 0
8, 276840, Note_on_c, 12, 69, 92
8, 276936, Note_on_c, 12, 69, 0
8, 276960, Note_on_c, 12, 69, 92
8, 277344, Note_on_c, 12, 69, 0
8, 277920, Note_on_c, 12, 71, 92
8, 278208, Note_on_c, 12, 71, 0
8, 278400, Note_on_c, 12, 69, 92
8, 278688, Note_on_c, 12, 69, 0
8, 278880, Note_on_c, 12, 67, 92
8, 279168, Note_on_c, 12, 67, 0
8, 279360, Note_on_c, 12, 64, 92
8, 279840, Note_on_c, 12, 64, 0
8, 279840, Note_on_c, 12, 62, 92
8, 280152, Note_on_c, 12, 62, 0
8, 280800, Note_on_c, 12, 62, 92
8, 281184, Note_on_c, 12, 62, 0
8, 282240, Note_on_c, 12, 62, 92
8, 282624, Note_on_c, 12, 62, 0
8, 283680, Note_on_c, 12, 67, 92
8, 283992, Note_on_c, 12, 67, 0
8, 284160, Note_on_c, 12, 69, 92
8, 284472, Note_on_c, 12, 69, 0
8, 284640, Note_on_c, 12, 57, 92
8, 284952, Note_on_c, 12, 57, 0
8, 285120, Note_on_c, 12, 74, 80
8, 285240, Note_on_c, 12, 74, 0
8, 285240, Note_on_c, 12, 73, 80
8, 285360, Note_on_c, 12, 73, 0
8, 285360, Note_on_c, 12, 71, 80
8, 285480, Note_on_c, 12, 71, 0
8, 285480, Note_on_c, 12, 69, 80
8, 285576, Note_on_c, 12, 69, 0
8, 285600, Note_on_c, 12, 74, 80
8, 285720, Note_on_c, 12, 74, 0
8, 285720, Note_on_c, 12, 73, 80
8, 285840, Note_on_c, 12, 73, 0
8, 285840, Note_on_c, 12, 71, 80
8, 285960, Note_on_c, 12, 71, 0
8, 285960, Note_on_c, 12, 69, 80
8, 286056, Note_on_c, 12, 69, 0
8, 286080, Note_on_c, 12, 74, 80
8, 286464, Note_on_c, 12, 74, 0
8, 287040, Note_on_c, 12, 74, 92
8, 287352, Note_on_c, 12, 74, 0
8, 287520, Note_on_c, 12, 62, 92
8, 287676, Note_on_c, 12, 62, 0
8, 287880, Note_on_c, 12, 62, 92
8, 287958, Note_on_c, 12, 62, 0
8, 288000, Note_on_c, 12, 54, 92
8, 288240, Note_on_c, 12, 54, 0
8, 288240, Note_on_c, 12, 55, 92
8, 288432, Note_on_c, 12, 55, 0
8, 288480, Note_on_c, 12, 54, 92
8, 288720, Note_on_c, 12, 54, 0
8, 288720, Note_on_c, 12, 55, 92
8, 288912, Note_on_c, 12, 55, 0
8, 288960, Note_on_c, 12, 67, 92
8, 289344, Note_on_c, 12, 67, 0
8, 289920, Note_on_c, 12, 71, 92
8, 290232, Note_on_c, 12, 71, 0
8, 290400, Note_on_c, 12, 59, 92
8, 290556, Note_on_c, 12, 59, 0
8, 290760, Note_on_c, 12, 59, 92
8, 290838, Note_on_c, 12, 59, 0
8, 290880, Note_on_c, 12, 51, 92
8, 291120, Note_on_c, 12, 51, 0
8, 291120, Note_on_c, 12, 52, 92
8, 291312, Note_on_c, 12, 52, 0
8, 291360, Note_on_c, 12, 51, 92
8, 291600, Note_on_c, 12, 51, 0
8, 291600, Note_on_c, 12, 52, 92
8, 291792, Note_on_c, 12, 52, 0
8, 291840, Note_on_c, 12, 64, 92
8, 292224, Note_on_c, 12, 64, 0
8, 292800, Note_on_c, 12, 69, 92
8, 293112, Note_on_c, 12, 69, 0
8, 293280, Note_on_c, 12, 57, 92
8, 293436, Note_on_c, 12, 57, 0
8, 293640, Note_on_c, 12, 57, 92
8, 293718, Note_on_c, 12, 57, 0
8, 293760, Note_on_c, 12, 49, 92
8, 294000, Note_on_c, 12, 49, 0
8, 294000, Note_on_c, 12, 50, 92
8, 294192, Note_on_c, 12, 50, 0
8, 294240, Note_on_c, 12, 49, 92
8, 294480, Note_on_c, 12, 49, 0
8, 294480, Note_on_c, 12, 50, 92
8, 294672, Note_on_c, 12, 50, 0
8, 294720, Note_on_c, 12, 62, 92
8, 295104, Note_on_c, 12, 62, 0
8, 295200, Note_on_c, 12, 55, 92
8, 295296, Note_on_c, 12, 55, 0
8, 295320, Note_on_c, 12, 55, 92
8, 295416, Note_on_c, 12, 55, 0
8, 295440, Note_on_c, 12, 55, 92
8, 295536, Note_on_c, 12, 55, 0
8, 295560, Note_on_c, 12, 55, 92
8, 295656, Note_on_c, 12, 55, 0
8, 295680, Note_on_c, 12, 67, 92
8, 295776, Note_on_c, 12, 67, 0
8, 295800, Note_on_c, 12, 67, 92
8, 295896, Note_on_c, 12, 67, 0
8, 295920, Note_on_c, 12, 67, 92
8, 296016, Note_on_c, 12, 67, 0
8, 296040, Note_on_c, 12, 67, 92
8, 296136, Note_on_c, 12, 67, 0
8, 296160, Note_on_c, 12, 64, 92
8, 296256, Note_on_c, 12, 64, 0
8, 296280, Note_on_c, 12, 64, 92
8, 296376, Note_on_c, 12, 64, 0
8, 296400, Note_on_c, 12, 64, 92
8, 296496, Note_on_c, 12, 64, 0
8, 296520, Note_on_c, 12, 64, 92
8, 296616, Note_on_c, 12, 64, 0
8, 296640, Note_on_c, 12, 64, 80
8, 296640, Note_on_c, 12, 61, 80
8, 296736, Note_on_c, 12, 61, 0
8, 296736, Note_on_c, 12, 64, 0
8, 296760, Note_on_c, 12, 64, 80
8, 296760, Note_on_c, 12, 61, 80
8, 296856, Note_on_c, 12, 61, 0
8, 296856, Note_on_c, 12, 64, 0
8, 296880, Note_on_c, 12, 64, 80
8, 296880, Note_on_c, 12, 61, 80
8, 296976, Note_on_c, 12, 61, 0
8, 296976, Note_on_c, 12, 64, 0
8, 297000, Note_on_c, 12, 61, 80
8, 297000, Note_on_c, 12, 64, 80
8, 297096, Note_on_c, 12, 64, 0
8, 297096, Note_on_c, 12, 61, 0
8, 297120, Note_on_c, 12, 64, 80
8, 297120, Note_on_c, 12, 61, 80
8, 297216, Note_on_c, 12, 61, 0
8, 297216, Note_on_c, 12, 64, 0
8, 297240, Note_on_c, 12, 61, 80
8, 297240, Note_on_c, 12, 64, 80
8, 297336, Note_on_c, 12, 64, 0
8, 297336, Note_on_c, 12, 61, 0
8, 297360, Note_on_c, 12, 61, 80
8, 297360, Note_on_c, 12, 64, 80
8, 297456, Note_on_c, 12, 64, 0
8, 297456, Note_on_c, 12, 61, 0
8, 297480, Note_on_c, 12, 61, 80
8, 297480, Note_on_c, 12, 64, 80
8, 297576, Note_on_c, 12, 64, 0
8, 297576, Note_on_c, 12, 61, 0
8, 297600, Note_on_c, 12, 64, 80
8, 297600, Note_on_c, 12, 61, 80
8, 297696, Note_on_c, 12, 61, 0
8, 297696, Note_on_c, 12, 64, 0
8, 297720, Note_on_c, 12, 64, 80
8, 297720, Note_on_c, 12, 61, 80
8, 297816, Note_on_c, 12, 61, 0
8, 297816, Note_on_c, 12, 64, 0
8, 297840, Note_on_c, 12, 61, 80
8, 297840, Note_on_c, 12, 64, 80
8, 297936, Note_on_c, 12, 64, 0
8, 297936, Note_on_c, 12, 61, 0
8, 297960, Note_on_c, 12, 61, 80
8, 297960, Note_on_c, 12, 64, 80
8, 298056, Note_on_c, 12, 64, 0
8, 298056, Note_on_c, 12, 61, 0
8, 298080, Note_on_c, 12, 64, 80
8, 298080, Note_on_c, 12, 61, 80
8, 298176, Note_on_c, 12, 61, 0
8, 298176, Note_on_c, 12, 64, 0
8, 298200, Note_on_c, 12, 61, 80
8, 298200, Note_on_c, 12, 64, 80
8, 298296, Note_on_c, 12, 64, 0
8, 298296, Note_on_c, 12, 61, 0
8, 298320, Note_on_c, 12, 64, 80
8, 298320, Note_on_c, 12, 61, 80
8, 298416, Note_on_c, 12, 61, 0
8, 298416, Note_on_c, 12, 64, 0
8, 298440, Note_on_c, 12, 61, 80
8, 298440, Note_on_c, 12, 64, 80
8, 298536, Note_on_c, 12, 64, 0
8, 298536, Note_on_c, 12, 61, 0
8, 298560, Note_on_c, 12, 64, 80
8, 298560, Note_on_c, 12, 61, 80
8, 298656, Note_on_c, 12, 61, 0
8, 298656, Note_on_c, 12, 64, 0
8, 298680, Note_on_c, 12, 61, 80
8, 298680, Note_on_c, 12, 64, 80
8, 298776, Note_on_c, 12, 64, 0
8, 298776, Note_on_c, 12, 61, 0
8, 298800, Note_on_c, 12, 64, 80
8, 298800, Note_on_c, 12, 61, 80
8, 298896, Note_on_c, 12, 61, 0
8, 298896, Note_on_c, 12, 64, 0
8, 298920, Note_on_c, 12, 64, 80
8, 298920, Note_on_c, 12, 61, 80
8, 299016, Note_on_c, 12, 61, 0
8, 299016, Note_on_c, 12, 64, 0
8, 299040, Note_on_c, 12, 64, 80
8, 299040, Note_on_c, 12, 61, 80
8, 299136, Note_on_c, 12, 61, 0
8, 299136, Note_on_c, 12, 64, 0
8, 299160, Note_on_c, 12, 61, 80
8, 299160, Note_on_c, 12, 64, 80
8, 299256, Note_on_c, 12, 64, 0
8, 299256, Note_on_c, 12, 61, 0
8, 299280, Note_on_c, 12, 61, 80
8, 299280, Note_on_c, 12, 64, 80
8, 299376, Note_on_c, 12, 64, 0
8, 299376, Note_on_c, 12, 61, 0
8, 299400, Note_on_c, 12, 64, 80
8, 299400, Note_on_c, 12, 61, 80
8, 299496, Note_on_c, 12, 61, 0
8, 299496, Note_on_c, 12, 64, 0
8, 299520, Note_on_c, 12, 62, 80
8, 299616, Note_on_c, 12, 62, 0
8, 299640, Note_on_c, 12, 62, 80
8, 299736, Note_on_c, 12, 62, 0
8, 299760, Note_on_c, 12, 62, 80
8, 299856, Note_on_c, 12, 62, 0
8, 299880, Note_on_c, 12, 62, 80
8, 299976, Note_on_c, 12, 62, 0
8, 300000, Note_on_c, 12, 62, 80
8, 300096, Note_on_c, 12, 62, 0
8, 300120, Note_on_c, 12, 62, 80
8, 300216, Note_on_c, 12, 62, 0
8, 300240, Note_on_c, 12, 62, 80
8, 300336, Note_on_c, 12, 62, 0
8, 300360, Note_on_c, 12, 62, 80
8, 300456, Note_on_c, 12, 62, 0
8, 300480, Note_on_c, 12, 62, 80
8, 300576, Note_on_c, 12, 62, 0
8, 300600, Note_on_c, 12, 62, 80
8, 300696, Note_on_c, 12, 62, 0
8, 300720, Note_on_c, 12, 62, 80
8, 300816, Note_on_c, 12, 62, 0
8, 300840, Note_on_c, 12, 62, 80
8, 300936, Note_on_c, 12, 62, 0
8, 300960, Note_on_c, 12, 62, 80
8, 301056, Note_on_c, 12, 62, 0
8, 301080, Note_on_c, 12, 62, 80
8, 301176, Note_on_c, 12, 62, 0
8, 301200, Note_on_c, 12, 62, 80
8, 301296, Note_on_c, 12, 62, 0
8, 301320, Note_on_c, 12, 62, 80
8, 301416, Note_on_c, 12, 62, 0
8, 301440, Note_on_c, 12, 62, 80
8, 301536, Note_on_c, 12, 62, 0
8, 301560, Note_on_c, 12, 62, 80
8, 301656, Note_on_c, 12, 62, 0
8, 301680, Note_on_c, 12, 62, 80
8, 301776, Note_on_c, 12, 62, 0
8, 301800, Note_on_c, 12, 62, 80
8, 301896, Note_on_c, 12, 62, 0
8, 301920, Note_on_c, 12, 62, 80
8, 302016, Note_on_c, 12, 62, 0
8, 302040, Note_on_c, 12, 62, 80
8, 302136, Note_on_c, 12, 62, 0
8, 302160, Note_on_c, 12, 62, 80
8, 302256, Note_on_c, 12, 62, 0
8, 302280, Note_on_c, 12, 62, 80
8, 302376, Note_on_c, 12, 62, 0
8, 302400, Note_on_c, 12, 64, 80
8, 302400, Note_on_c, 12, 61, 80
8, 302496, Note_on_c, 12, 61, 0
8, 302496, Note_on_c, 12, 64, 0
8, 302520, Note_on_c, 12, 64, 80
8, 302520, Note_on_c, 12, 61, 80
8, 302616, Note_on_c, 12, 61, 0
8, 302616, Note_on_c, 12, 64, 0
8, 302640, Note_on_c, 12, 64, 80
8, 302640, Note_on_c, 12, 61, 80
8, 302736, Note_on_c, 12, 61, 0
8, 302736, Note_on_c, 12, 64, 0
8, 302760, Note_on_c, 12, 61, 80
8, 302760, Note_on_c, 12, 64, 80
8, 302856, Note_on_c, 12, 64, 0
8, 302856, Note_on_c, 12, 61, 0
8, 302880, Note_on_c, 12, 61, 80
8, 302880, Note_on_c, 12, 64, 80
8, 302976, Note_on_c, 12, 64, 0
8, 302976, Note_on_c, 12, 61, 0
8, 303000, Note_on_c, 12, 64, 80
8, 303000, Note_on_c, 12, 61, 80
8, 303096, Note_on_c, 12, 61, 0
8, 303096, Note_on_c, 12, 64, 0
8, 303120, Note_on_c, 12, 61, 80
8, 303120, Note_on_c, 12, 64, 80
8, 303216, Note_on_c, 12, 64, 0
8, 303216, Note_on_c, 12, 61, 0
8, 303240, Note_on_c, 12, 61, 80
8, 303240, Note_on_c, 12, 64, 80
8, 303336, Note_on_c, 12, 64, 0
8, 303336, Note_on_c, 12, 61, 0
8, 303360, Note_on_c, 12, 64, 80
8, 303360, Note_on_c, 12, 61, 80
8, 303456, Note_on_c, 12, 61, 0
8, 303456, Note_on_c, 12, 64, 0
8, 303480, Note_on_c, 12, 64, 80
8, 303480, Note_on_c, 12, 61, 80
8, 303576, Note_on_c, 12, 61, 0
8, 303576, Note_on_c, 12, 64, 0
8, 303600, Note_on_c, 12, 64, 80
8, 303600, Note_on_c, 12, 61, 80
8, 303696, Note_on_c, 12, 61, 0
8, 303696, Note_on_c, 12, 64, 0
8, 303720, Note_on_c, 12, 61, 80
8, 303720, Note_on_c, 12, 64, 80
8, 303816, Note_on_c, 12, 64, 0
8, 303816, Note_on_c, 12, 61, 0
8, 303840, Note_on_c, 12, 64, 80
8, 303840, Note_on_c, 12, 61, 80
8, 303936, Note_on_c, 12, 61, 0
8, 303936, Note_on_c, 12, 64, 0
8, 303960, Note_on_c, 12, 64, 80
8, 303960, Note_on_c, 12, 61, 80
8, 304056, Note_on_c, 12, 61, 0
8, 304056, Note_on_c, 12, 64, 0
8, 304080, Note_on_c, 12, 61, 80
8, 304080, Note_on_c, 12, 64, 80
8, 304176, Note_on_c, 12, 64, 0
8, 304176, Note_on_c, 12, 61, 0
8, 304200, Note_on_c, 12, 61, 80
8, 304200, Note_on_c, 12, 64, 80
8, 304296, Note_on_c, 12, 64, 0
8, 304296, Note_on_c, 12, 61, 0
8, 304320, Note_on_c, 12, 61, 80
8, 304320, Note_on_c, 12, 64, 80
8, 304416, Note_on_c, 12, 64, 0
8, 304416, Note_on_c, 12, 61, 0
8, 304440, Note_on_c, 12, 64, 80
8, 304440, Note_on_c, 12, 61, 80
8, 304536, Note_on_c, 12, 61, 0
8, 304536, Note_on_c, 12, 64, 0
8, 304560, Note_on_c, 12, 64, 80
8, 304560, Note_on_c, 12, 61, 80
8, 304656, Note_on_c, 12, 61, 0
8, 304656, Note_on_c, 12, 64, 0
8, 304680, Note_on_c, 12, 61, 80
8, 304680, Note_on_c, 12, 64, 80
8, 304776, Note_on_c, 12, 64, 0
8, 304776, Note_on_c, 12, 61, 0
8, 304800, Note_on_c, 12, 61, 80
8, 304800, Note_on_c, 12, 64, 80
8, 304896, Note_on_c, 12, 64, 0
8, 304896, Note_on_c, 12, 61, 0
8, 304920, Note_on_c, 12, 64, 80
8, 304920, Note_on_c, 12, 61, 80
8, 305016, Note_on_c, 12, 61, 0
8, 305016, Note_on_c, 12, 64, 0
8, 305040, Note_on_c, 12, 61, 80
8, 305040, Note_on_c, 12, 64, 80
8, 305136, Note_on_c, 12, 64, 0
8, 305136, Note_on_c, 12, 61, 0
8, 305160, Note_on_c, 12, 61, 80
8, 305160, Note_on_c, 12, 64, 80
8, 305256, Note_on_c, 12, 64, 0
8, 305256, Note_on_c, 12, 61, 0
8, 305280, Note_on_c, 12, 62, 80
8, 305664, Note_on_c, 12, 62, 0
8, 312480, Note_on_c, 12, 57, 92
8, 312864, Note_on_c, 12, 57, 0
8, 313200, Note_on_c, 12, 76, 92
8, 313392, Note_on_c, 12, 76, 0
8, 313440, Note_on_c, 12, 69, 92
8, 313632, Note_on_c, 12, 69, 0
8, 313680, Note_on_c, 12, 74, 92
8, 313872, Note_on_c, 12, 74, 0
8, 313920, Note_on_c, 12, 73, 92
8, 314304, Note_on_c, 12, 73, 0
8, 314640, Note_on_c, 12, 76, 92
8, 314832, Note_on_c, 12, 76, 0
8, 314880, Note_on_c, 12, 69, 92
8, 315072, Note_on_c, 12, 69, 0
8, 315120, Note_on_c, 12, 74, 92
8, 315312, Note_on_c, 12, 74, 0
8, 315360, Note_on_c, 12, 73, 112
8, 315648, Note_on_c, 12, 73, 0
8, 315840, Note_on_c, 12, 69, 80
8, 315900, Note_on_c, 12, 69, 0
8, 315900, Note_on_c, 12, 68, 80
8, 315960, Note_on_c, 12, 68, 0
8, 315960, Note_on_c, 12, 69, 80
8, 316020, Note_on_c, 12, 69, 0
8, 316020, Note_on_c, 12, 68, 80
8, 316080, Note_on_c, 12, 68, 0
8, 316080, Note_on_c, 12, 69, 80
8, 316140, Note_on_c, 12, 69, 0
8, 316140, Note_on_c, 12, 68, 80
8, 316200, Note_on_c, 12, 68, 0
8, 316200, Note_on_c, 12, 69, 80
8, 316260, Note_on_c, 12, 69, 0
8, 316260, Note_on_c, 12, 68, 80
8, 316320, Note_on_c, 12, 68, 0
8, 316320, Note_on_c, 12, 69, 80
8, 316380, Note_on_c, 12, 69, 0
8, 316380, Note_on_c, 12, 68, 80
8, 316440, Note_on_c, 12, 68, 0
8, 316440, Note_on_c, 12, 69, 80
8, 316500, Note_on_c, 12, 69, 0
8, 316500, Note_on_c, 12, 68, 80
8, 316560, Note_on_c, 12, 68, 0
8, 316560, Note_on_c, 12, 66, 80
8, 316680, Note_on_c, 12, 66, 0
8, 316680, Note_on_c, 12, 68, 80
8, 316800, Note_on_c, 12, 68, 0
8, 316800, Note_on_c, 12, 69, 80
8, 317088, Note_on_c, 12, 69, 0
8, 317280, Note_on_c, 12, 57, 70
8, 317568, Note_on_c, 12, 57, 0
8, 321600, Note_on_c, 12, 50, 58
8, 321840, Note_on_c, 12, 50, 0
8, 321840, Note_on_c, 12, 54, 58
8, 322032, Note_on_c, 12, 54, 0
8, 322080, Note_on_c, 12, 57, 58
8, 322320, Note_on_c, 12, 57, 0
8, 322320, Note_on_c, 12, 54, 58
8, 322512, Note_on_c, 12, 54, 0
8, 322560, Note_on_c, 12, 52, 58
8, 322944, Note_on_c, 12, 52, 0
8, 323520, Note_on_c, 12, 64, 58
8, 323760, Note_on_c, 12, 64, 0
8, 323760, Note_on_c, 12, 61, 58
8, 323952, Note_on_c, 12, 61, 0
8, 324000, Note_on_c, 12, 57, 58
8, 324384, Note_on_c, 12, 57, 0
8, 324480, Note_on_c, 12, 50, 58
8, 324600, Note_on_c, 12, 50, 0
8, 324600, Note_on_c, 12, 54, 58
8, 324888, Note_on_c, 12, 54, 0
8, 324960, Note_on_c, 12, 57, 58
8, 325080, Note_on_c, 12, 57, 0
8, 325080, Note_on_c, 12, 54, 58
8, 325368, Note_on_c, 12, 54, 0
8, 325440, Note_on_c, 12, 52, 58
8, 326400, Note_on_c, 12, 52, 0
8, 326400, Note_on_c, 12, 50, 58
8, 327264, Note_on_c, 12, 50, 0
8, 327840, Note_on_c, 12, 55, 58
8, 328224, Note_on_c, 12, 55, 0
8, 328320, Note_on_c, 12, 54, 58
8, 329280, Note_on_c, 12, 54, 0
8, 329280, Note_on_c, 12, 55, 58
8, 329760, Note_on_c, 12, 55, 0
8, 329760, Note_on_c, 12, 57, 58
8, 330720, Note_on_c, 12, 57, 0
8, 330720, Note_on_c, 12, 55, 58
8, 331200, Note_on_c, 12, 55, 0
8, 331200, Note_on_c, 12, 54, 58
8, 331584, Note_on_c, 12, 54, 0
8, 331680, Note_on_c, 12, 74, 58
8, 331740, Note_on_c, 12, 74, 0
8, 331740, Note_on_c, 12, 73, 92
8, 331800, Note_on_c, 12, 73, 0
8, 331800, Note_on_c, 12, 74, 92
8, 331860, Note_on_c, 12, 74, 0
8, 331860, Note_on_c, 12, 73, 92
8, 331920, Note_on_c, 12, 73, 0
8, 331920, Note_on_c, 12, 74, 92
8, 331980, Note_on_c, 12, 74, 0
8, 331980, Note_on_c, 12, 73, 92
8, 332040, Note_on_c, 12, 73, 0
8, 332040, Note_on_c, 12, 74, 92
8, 332100, Note_on_c, 12, 74, 0
8, 332100, Note_on_c, 12, 73, 92
8, 332160, Note_on_c, 12, 73, 0
8, 332160, Note_on_c, 12, 74, 92
8, 332220, Note_on_c, 12, 74, 0
8, 332220, Note_on_c, 12, 73, 92
8, 332280, Note_on_c, 12, 73, 0
8, 332280, Note_on_c, 12, 74, 92
8, 332340, Note_on_c, 12, 74, 0
8, 332340, Note_on_c, 12, 73, 92
8, 332400, Note_on_c, 12, 73, 0
8, 332400, Note_on_c, 12, 71, 92
8, 332520, Note_on_c, 12, 71, 0
8, 332520, Note_on_c, 12, 73, 92
8, 332640, Note_on_c, 12, 73, 0
8, 332640, Note_on_c, 12, 74, 92
8, 333024, Note_on_c, 12, 74, 0
8, 333120, Note_on_c, 12, 62, 70
8, 333504, Note_on_c, 12, 62, 0
8, 336000, Note_on_c, 12, 62, 70
8, 336240, Note_on_c, 12, 62, 0
8, 336240, Note_on_c, 12, 66, 70
8, 336432, Note_on_c, 12, 66, 0
8, 336480, Note_on_c, 12, 69, 70
8, 336720, Note_on_c, 12, 69, 0
8, 336720, Note_on_c, 12, 66, 70
8, 336912, Note_on_c, 12, 66, 0
8, 336960, Note_on_c, 12, 64, 70
8, 337344, Note_on_c, 12, 64, 0
8, 337920, Note_on_c, 12, 64, 70
8, 338160, Note_on_c, 12, 64, 0
8, 338160, Note_on_c, 12, 61, 70
8, 338352, Note_on_c, 12, 61, 0
8, 338400, Note_on_c, 12, 57, 70
8, 338784, Note_on_c, 12, 57, 0
8, 338880, Note_on_c, 12, 62, 70
8, 339120, Note_on_c, 12, 62, 0
8, 339120, Note_on_c, 12, 66, 70
8, 339312, Note_on_c, 12, 66, 0
8, 339360, Note_on_c, 12, 69, 70
8, 339600, Note_on_c, 12, 69, 0
8, 339600, Note_on_c, 12, 66, 70
8, 339792, Note_on_c, 12, 66, 0
8, 339840, Note_on_c, 12, 64, 58
8, 340800, Note_on_c, 12, 64, 0
8, 340800, Note_on_c, 12, 62, 58
8, 341280, Note_on_c, 12, 62, 0
8, 341280, Note_on_c, 12, 62, 58
8, 341664, Note_on_c, 12, 62, 0
8, 342240, Note_on_c, 12, 55, 58
8, 342624, Note_on_c, 12, 55, 0
8, 342720, Note_on_c, 12, 54, 58
8, 343632, Note_on_c, 12, 54, 0
8, 343680, Note_on_c, 12, 55, 58
8, 344616, Note_on_c, 12, 55, 0
8, 344640, Note_on_c, 12, 56, 58
8, 345552, Note_on_c, 12, 56, 0
8, 345600, Note_on_c, 12, 57, 58
8, 345984, Note_on_c, 12, 57, 0
8, 351840, Note_on_c, 12, 66, 58
8, 352320, Note_on_c, 12, 66, 0
8, 352320, Note_on_c, 12, 61, 58
8, 352800, Note_on_c, 12, 61, 0
8, 352800, Note_on_c, 12, 62, 58
8, 353184, Note_on_c, 12, 62, 0
8, 356160, Note_on_c, 12, 54, 58
8, 356640, Note_on_c, 12, 54, 0
8, 356640, Note_on_c, 12, 55, 58
8, 357120, Note_on_c, 12, 55, 0
8, 357120, Note_on_c, 12, 54, 58
8, 357504, Note_on_c, 12, 54, 0
8, 358560, Note_on_c, 12, 76, 92
8, 358620, Note_on_c, 12, 76, 0
8, 358620, Note_on_c, 12, 74, 92
8, 358680, Note_on_c, 12, 74, 0
8, 358680, Note_on_c, 12, 76, 92
8, 358740, Note_on_c, 12, 76, 0
8, 358740, Note_on_c, 12, 74, 92
8, 358800, Note_on_c, 12, 74, 0
8, 358800, Note_on_c, 12, 76, 92
8, 358860, Note_on_c, 12, 76, 0
8, 358860, Note_on_c, 12, 74, 92
8, 358920, Note_on_c, 12, 74, 0
8, 358920, Note_on_c, 12, 76, 92
8, 358980, Note_on_c, 12, 76, 0
8, 358980, Note_on_c, 12, 74, 92
8, 359040, Note_on_c, 12, 74, 0
8, 359040, Note_on_c, 12, 76, 92
8, 359100, Note_on_c, 12, 76, 0
8, 359100, Note_on_c, 12, 74, 92
8, 359160, Note_on_c, 12, 74, 0
8, 359160, Note_on_c, 12, 76, 92
8, 359220, Note_on_c, 12, 76, 0
8, 359220, Note_on_c, 12, 74, 92
8, 359280, Note_on_c, 12, 74, 0
8, 359280, Note_on_c, 12, 73, 92
8, 359400, Note_on_c, 12, 73, 0
8, 359400, Note_on_c, 12, 74, 92
8, 359520, Note_on_c, 12, 74, 0
8, 359520, Note_on_c, 12, 62, 92
8, 359904, Note_on_c, 12, 62, 0
8, 361440, Note_on_c, 12, 71, 92
8, 361500, Note_on_c, 12, 71, 0
8, 361500, Note_on_c, 12, 69, 92
8, 361560, Note_on_c, 12, 69, 0
8, 361560, Note_on_c, 12, 71, 92
8, 361620, Note_on_c, 12, 71, 0
8, 361620, Note_on_c, 12, 69, 92
8, 361680, Note_on_c, 12, 69, 0
8, 361680, Note_on_c, 12, 71, 92
8, 361740, Note_on_c, 12, 71, 0
8, 361740, Note_on_c, 12, 69, 92
8, 361800, Note_on_c, 12, 69, 0
8, 361800, Note_on_c, 12, 71, 92
8, 361860, Note_on_c, 12, 71, 0
8, 361860, Note_on_c, 12, 69, 92
8, 361920, Note_on_c, 12, 69, 0
8, 361920, Note_on_c, 12, 71, 92
8, 361980, Note_on_c, 12, 71, 0
8, 361980, Note_on_c, 12, 69, 92
8, 362040, Note_on_c, 12, 69, 0
8, 362040, Note_on_c, 12, 71, 92
8, 362100, Note_on_c, 12, 71, 0
8, 362100, Note_on_c, 12, 69, 92
8, 362160, Note_on_c, 12, 69, 0
8, 362160, Note_on_c, 12, 68, 92
8, 362280, Note_on_c, 12, 68, 0
8, 362280, Note_on_c, 12, 69, 92
8, 362400, Note_on_c, 12, 69, 0
8, 362400, Note_on_c, 12, 57, 92
8, 362784, Note_on_c, 12, 57, 0
8, 364320, Note_on_c, 12, 76, 92
8, 364380, Note_on_c, 12, 76, 0
8, 364380, Note_on_c, 12, 74, 92
8, 364440, Note_on_c, 12, 74, 0
8, 364440, Note_on_c, 12, 76, 92
8, 364500, Note_on_c, 12, 76, 0
8, 364500, Note_on_c, 12, 74, 92
8, 364560, Note_on_c, 12, 74, 0
8, 364560, Note_on_c, 12, 76, 92
8, 364620, Note_on_c, 12, 76, 0
8, 364620, Note_on_c, 12, 74, 92
8, 364680, Note_on_c, 12, 74, 0
8, 364680, Note_on_c, 12, 76, 92
8, 364740, Note_on_c, 12, 76, 0
8, 364740, Note_on_c, 12, 74, 92
8, 364800, Note_on_c, 12, 74, 0
8, 364800, Note_on_c, 12, 76, 92
8, 364860, Note_on_c, 12, 76, 0
8, 364860, Note_on_c, 12, 74, 92
8, 364920, Note_on_c, 12, 74, 0
8, 364920, Note_on_c, 12, 76, 92
8, 364980, Note_on_c, 12, 76, 0
8, 364980, Note_on_c, 12, 74, 92
8, 365040, Note_on_c, 12, 74, 0
8, 365040, Note_on_c, 12, 73, 92
8, 365160, Note_on_c, 12, 73, 0
8, 365160, Note_on_c, 12, 74, 92
8, 365280, Note_on_c, 12, 74, 0
8, 365280, Note_on_c, 12, 62, 92
8, 365664, Note_on_c, 12, 62, 0
8, 367200, Note_on_c, 12, 76, 92
8, 367260, Note_on_c, 12, 76, 0
8, 367260, Note_on_c, 12, 74, 92
8, 367320, Note_on_c, 12, 74, 0
8, 367320, Note_on_c, 12, 76, 92
8, 367380, Note_on_c, 12, 76, 0
8, 367380, Note_on_c, 12, 74, 92
8, 367440, Note_on_c, 12, 74, 0
8, 367440, Note_on_c, 12, 76, 92
8, 367500, Note_on_c, 12, 76, 0
8, 367500, Note_on_c, 12, 74, 92
8, 367560, Note_on_c, 12, 74, 0
8, 367560, Note_on_c, 12, 76, 92
8, 367620, Note_on_c, 12, 76, 0
8, 367620, Note_on_c, 12, 74, 92
8, 367680, Note_on_c, 12, 74, 0
8, 367680, Note_on_c, 12, 76, 92
8, 367740, Note_on_c, 12, 76, 0
8, 367740, Note_on_c, 12, 74, 92
8, 367800, Note_on_c, 12, 74, 0
8, 367800, Note_on_c, 12, 76, 92
8, 367860, Note_on_c, 12, 76, 0
8, 367860, Note_on_c, 12, 74, 92
8, 367920, Note_on_c, 12, 74, 0
8, 367920, Note_on_c, 12, 73, 92
8, 368040, Note_on_c, 12, 73, 0
8, 368040, Note_on_c, 12, 74, 92
8, 368160, Note_on_c, 12, 74, 0
8, 368160, Note_on_c, 12, 62, 92
8, 368544, Note_on_c, 12, 62, 0
8, 370080, Note_on_c, 12, 76, 92
8, 370140, Note_on_c, 12, 76, 0
8, 370140, Note_on_c, 12, 74, 92
8, 370200, Note_on_c, 12, 74, 0
8, 370200, Note_on_c, 12, 76, 92
8, 370260, Note_on_c, 12, 76, 0
8, 370260, Note_on_c, 12, 74, 92
8, 370320, Note_on_c, 12, 74, 0
8, 370320, Note_on_c, 12, 76, 92
8, 370380, Note_on_c, 12, 76, 0
8, 370380, Note_on_c, 12, 74, 92
8, 370440, Note_on_c, 12, 74, 0
8, 370440, Note_on_c, 12, 76, 92
8, 370500, Note_on_c, 12, 76, 0
8, 370500, Note_on_c, 12, 74, 92
8, 370560, Note_on_c, 12, 74, 0
8, 370560, Note_on_c, 12, 76, 92
8, 370620, Note_on_c, 12, 76, 0
8, 370620, Note_on_c, 12, 74, 92
8, 370680, Note_on_c, 12, 74, 0
8, 370680, Note_on_c, 12, 76, 92
8, 370740, Note_on_c, 12, 76, 0
8, 370740, Note_on_c, 12, 74, 92
8, 370800, Note_on_c, 12, 74, 0
8, 370800, Note_on_c, 12, 73, 92
8, 370920, Note_on_c, 12, 73, 0
8, 370920, Note_on_c, 12, 74, 92
8, 371040, Note_on_c, 12, 74, 0
8, 371040, Note_on_c, 12, 71, 92
8, 371424, Note_on_c, 12, 71, 0
8, 371520, Note_on_c, 12, 64, 92
8, 372000, Note_on_c, 12, 64, 0
8, 372000, Note_on_c, 12, 69, 92
8, 372288, Note_on_c, 12, 69, 0
8, 372480, Note_on_c, 12, 69, 92
8, 372768, Note_on_c, 12, 69, 0
8, 372960, Note_on_c, 12, 71, 92
8, 373248, Note_on_c, 12, 71, 0
8, 373440, Note_on_c, 12, 62, 92
8, 373728, Note_on_c, 12, 62, 0
8, 373920, Note_on_c, 12, 69, 92
8, 374208, Note_on_c, 12, 69, 0
8, 374400, Note_on_c, 12, 69, 80
8, 374400, Note_on_c, 12, 62, 80
8, 374784, Note_on_c, 12, 62, 0
8, 374784, Note_on_c, 12, 69, 0
8, 385920, Note_on_c, 12, 74, 92
8, 386208, Note_on_c, 12, 74, 0
8, 386400, Note_on_c, 12, 78, 92
8, 386688, Note_on_c, 12, 78, 0
8, 386880, Note_on_c, 12, 71, 92
8, 387168, Note_on_c, 12, 71, 0
8, 387360, Note_on_c, 12, 74, 92
8, 387648, Note_on_c, 12, 74, 0
8, 387840, Note_on_c, 12, 68, 92
8, 388128, Note_on_c, 12, 68, 0
8, 388320, Note_on_c, 12, 71, 92
8, 388608, Note_on_c, 12, 71, 0
8, 388800, Note_on_c, 12, 69, 92
8, 388956, Note_on_c, 12, 69, 0
8, 389040, Note_on_c, 12, 69, 92
8, 389196, Note_on_c, 12, 69, 0
8, 389280, Note_on_c, 12, 69, 92
8, 389436, Note_on_c, 12, 69, 0
8, 389520, Note_on_c, 12, 69, 92
8, 389676, Note_on_c, 12, 69, 0
8, 389760, Note_on_c, 12, 69, 92
8, 389916, Note_on_c, 12, 69, 0
8, 390000, Note_on_c, 12, 69, 92
8, 390156, Note_on_c, 12, 69, 0
8, 390240, Note_on_c, 12, 57, 92
8, 390396, Note_on_c, 12, 57, 0
8, 390480, Note_on_c, 12, 57, 92
8, 390636, Note_on_c, 12, 57, 0
8, 390720, Note_on_c, 12, 57, 92
8, 390876, Note_on_c, 12, 57, 0
8, 390960, Note_on_c, 12, 57, 92
8, 391116, Note_on_c, 12, 57, 0
8, 391200, Note_on_c, 12, 57, 92
8, 391356, Note_on_c, 12, 57, 0
8, 391440, Note_on_c, 12, 57, 92
8, 391596, Note_on_c, 12, 57, 0
8, 391680, Note_on_c, 12, 62, 92
8, 392064, Note_on_c, 12, 62, 0
8, 392400, Note_on_c, 12, 50, 92
8, 392544, Note_on_c, 12, 50, 0
8, 392640, Note_on_c, 12, 54, 92
8, 392784, Note_on_c, 12, 54, 0
8, 392880, Note_on_c, 12, 57, 92
8, 393024, Note_on_c, 12, 57, 0
8, 393120, Note_on_c, 12, 50, 92
8, 393504, Note_on_c, 12, 50, 0
8, 393840, Note_on_c, 12, 50, 92
8, 393984, Note_on_c, 12, 50, 0
8, 394080, Note_on_c, 12, 54, 92
8, 394224, Note_on_c, 12, 54, 0
8, 394320, Note_on_c, 12, 57, 92
8, 394464, Note_on_c, 12, 57, 0
8, 394560, Note_on_c, 12, 50, 92
8, 394944, Note_on_c, 12, 50, 0
8, 395280, Note_on_c, 12, 50, 92
8, 395424, Note_on_c, 12, 50, 0
8, 395520, Note_on_c, 12, 54, 92
8, 395664, Note_on_c, 12, 54, 0
8, 395760, Note_on_c, 12, 57, 92
8, 395904, Note_on_c, 12, 57, 0
8, 396000, Note_on_c, 12, 62, 92
8, 396288, Note_on_c, 12, 62, 0
8, 396480, Note_on_c, 12, 50, 92
8, 396768, Note_on_c, 12, 50, 0
8, 397440, Note_on_c, 12, 57, 58
8, 397752, Note_on_c, 12, 57, 0
8, 397920, Note_on_c, 12, 55, 58
8, 398232, Note_on_c, 12, 55, 0
8, 398400, Note_on_c, 12, 54, 58
8, 398712, Note_on_c, 12, 54, 0
8, 398880, Note_on_c, 12, 55, 58
8, 399192, Note_on_c, 12, 55, 0
8, 399360, Note_on_c, 12, 57, 58
8, 399672, Note_on_c, 12, 57, 0
8, 399840, Note_on_c, 12, 59, 58
8, 400152, Note_on_c, 12, 59, 0
8, 400320, Note_on_c, 12, 64, 58
8, 400680, Note_on_c, 12, 64, 0
8, 400680, Note_on_c, 12, 66, 58
8, 400776, Note_on_c, 12, 66, 0
8, 400800, Note_on_c, 12, 62, 58
8, 401160, Note_on_c, 12, 62, 0
8, 401160, Note_on_c, 12, 64, 58
8, 401256, Note_on_c, 12, 64, 0
8, 401280, Note_on_c, 12, 61, 58
8, 401664, Note_on_c, 12, 61, 0
8, 401760, Note_on_c, 12, 62, 30
8, 402144, Note_on_c, 12, 62, 0
8, 403200, Note_on_c, 12, 64, 58
8, 403560, Note_on_c, 12, 64, 0
8, 403560, Note_on_c, 12, 66, 58
8, 403656, Note_on_c, 12, 66, 0
8, 403680, Note_on_c, 12, 62, 58
8, 404040, Note_on_c, 12, 62, 0
8, 404040, Note_on_c, 12, 64, 58
8, 404136, Note_on_c, 12, 64, 0
8, 404160, Note_on_c, 12, 61, 58
8, 404544, Note_on_c, 12, 61, 0
8, 404640, Note_on_c, 12, 62, 58
8, 405024, Note_on_c, 12, 62, 0
8, 406080, Note_on_c, 12, 67, 92
8, 406392, Note_on_c, 12, 67, 0
8, 406560, Note_on_c, 12, 64, 92
8, 406872, Note_on_c, 12, 64, 0
8, 407040, Note_on_c, 12, 69, 92
8, 407352, Note_on_c, 12, 69, 0
8, 407520, Note_on_c, 12, 71, 92
8, 407832, Note_on_c, 12, 71, 0
8, 408000, Note_on_c, 12, 74, 92
8, 408312, Note_on_c, 12, 74, 0
8, 408480, Note_on_c, 12, 66, 92
8, 408792, Note_on_c, 12, 66, 0
8, 408960, Note_on_c, 12, 67, 92
8, 409272, Note_on_c, 12, 67, 0
8, 409440, Note_on_c, 12, 64, 92
8, 409752, Note_on_c, 12, 64, 0
8, 409920, Note_on_c, 12, 69, 92
8, 410232, Note_on_c, 12, 69, 0
8, 410400, Note_on_c, 12, 62, 92
8, 411168, Note_on_c, 12, 62, 0
8, 411168, End_track
9, 0, Start_track
9, 0, Sequencer_specific, 04, 43, 00, 01, 00
9, 0, Program_c, 13, 48
9, 0, Control_c, 13, 7, 122
9, 0, Control_c, 13, 91, 87
9, 0, Control_c, 13, 10, 84
9, 1440, Note_on_c, 13, 62, 105
9, 1824, Note_on_c, 13, 62, 0
9, 1920, Note_on_c, 13, 50, 105
9, 2304, Note_on_c, 13, 50, 0
9, 2880, Note_on_c, 13, 61, 105
9, 3264, Note_on_c, 13, 61, 0
9, 3360, Note_on_c, 13, 49, 105
9, 3744, Note_on_c, 13, 49, 0
9, 4320, Note_on_c, 13, 59, 105
9, 4584, Note_on_c, 13, 59, 0
9, 4800, Note_on_c, 13, 57, 105
9, 5064, Note_on_c, 13, 57, 0
9, 5280, Note_on_c, 13, 55, 105
9, 5544, Note_on_c, 13, 55, 0
9, 5760, Note_on_c, 13, 57, 105
9, 6048, Note_on_c, 13, 57, 0
9, 6240, Note_on_c, 13, 50, 105
9, 6528, Note_on_c, 13, 50, 0
9, 7200, Note_on_c, 13, 50, 92
9, 7584, Note_on_c, 13, 50, 0
9, 8640, Note_on_c, 13, 50, 92
9, 9024, Note_on_c, 13, 50, 0
9, 10080, Note_on_c, 13, 55, 105
9, 10368, Note_on_c, 13, 55, 0
9, 10560, Note_on_c, 13, 57, 105
9, 10848, Note_on_c, 13, 57, 0
9, 11040, Note_on_c, 13, 45, 105
9, 11328, Note_on_c, 13, 45, 0
9, 11520, Note_on_c, 13, 62, 105
9, 11640, Note_on_c, 13, 62, 0
9, 11640, Note_on_c, 13, 61, 105
9, 11760, Note_on_c, 13, 61, 0
9, 11760, Note_on_c, 13, 59, 105
9, 11880, Note_on_c, 13, 59, 0
9, 11880, Note_on_c, 13, 57, 105
9, 11976, Note_on_c, 13, 57, 0
9, 12000, Note_on_c, 13, 62, 105
9, 12120, Note_on_c, 13, 62, 0
9, 12120, Note_on_c, 13, 61, 105
9, 12240, Note_on_c, 13, 61, 0
9, 12240, Note_on_c, 13, 59, 105
9, 12360, Note_on_c, 13, 59, 0
9, 12360, Note_on_c, 13, 57, 105
9, 12456, Note_on_c, 13, 57, 0
9, 12480, Note_on_c, 13, 62, 105
9, 12864, Note_on_c, 13, 62, 0
9, 12960, Note_on_c, 13, 50, 92
9, 13344, Note_on_c, 13, 50, 0
9, 14400, Note_on_c, 13, 50, 92
9, 14784, Note_on_c, 13, 50, 0
9, 15840, Note_on_c, 13, 55, 92
9, 16128, Note_on_c, 13, 55, 0
9, 16320, Note_on_c, 13, 57, 105
9, 16608, Note_on_c, 13, 57, 0
9, 16800, Note_on_c, 13, 45, 105
9, 17088, Note_on_c, 13, 45, 0
9, 17520, Note_on_c, 13, 62, 105
9, 17712, Note_on_c, 13, 62, 0
9, 17760, Note_on_c, 13, 57, 105
9, 17952, Note_on_c, 13, 57, 0
9, 18000, Note_on_c, 13, 54, 105
9, 18192, Note_on_c, 13, 54, 0
9, 18240, Note_on_c, 13, 50, 105
9, 18624, Note_on_c, 13, 50, 0
9, 18960, Note_on_c, 13, 57, 105
9, 19152, Note_on_c, 13, 57, 0
9, 19200, Note_on_c, 13, 50, 105
9, 19392, Note_on_c, 13, 50, 0
9, 19440, Note_on_c, 13, 62, 105
9, 19632, Note_on_c, 13, 62, 0
9, 19680, Note_on_c, 13, 50, 105
9, 20064, Note_on_c, 13, 50, 0
9, 20400, Note_on_c, 13, 45, 105
9, 20592, Note_on_c, 13, 45, 0
9, 20640, Note_on_c, 13, 49, 105
9, 20832, Note_on_c, 13, 49, 0
9, 20880, Note_on_c, 13, 52, 105
9, 21072, Note_on_c, 13, 52, 0
9, 21120, Note_on_c, 13, 57, 105
9, 21504, Note_on_c, 13, 57, 0
9, 21840, Note_on_c, 13, 57, 105
9, 22032, Note_on_c, 13, 57, 0
9, 22080, Note_on_c, 13, 61, 105
9, 22272, Note_on_c, 13, 61, 0
9, 22320, Note_on_c, 13, 52, 105
9, 22512, Note_on_c, 13, 52, 0
9, 22560, Note_on_c, 13, 57, 105
9, 22944, Note_on_c, 13, 57, 0
9, 23280, Note_on_c, 13, 64, 105
9, 23472, Note_on_c, 13, 64, 0
9, 23520, Note_on_c, 13, 59, 105
9, 23712, Note_on_c, 13, 59, 0
9, 23760, Note_on_c, 13, 56, 105
9, 23952, Note_on_c, 13, 56, 0
9, 24000, Note_on_c, 13, 52, 105
9, 24384, Note_on_c, 13, 52, 0
9, 24720, Note_on_c, 13, 56, 105
9, 24912, Note_on_c, 13, 56, 0
9, 24960, Note_on_c, 13, 52, 105
9, 25152, Note_on_c, 13, 52, 0
9, 25200, Note_on_c, 13, 59, 105
9, 25392, Note_on_c, 13, 59, 0
9, 25440, Note_on_c, 13, 50, 105
9, 25824, Note_on_c, 13, 50, 0
9, 25920, Note_on_c, 13, 49, 105
9, 26112, Note_on_c, 13, 49, 0
9, 26160, Note_on_c, 13, 57, 105
9, 26352, Note_on_c, 13, 57, 0
9, 26400, Note_on_c, 13, 54, 105
9, 26592, Note_on_c, 13, 54, 0
9, 26640, Note_on_c, 13, 52, 105
9, 26832, Note_on_c, 13, 52, 0
9, 26880, Note_on_c, 13, 50, 105
9, 27264, Note_on_c, 13, 50, 0
9, 27360, Note_on_c, 13, 52, 105
9, 27744, Note_on_c, 13, 52, 0
9, 29040, Note_on_c, 13, 57, 105
9, 29232, Note_on_c, 13, 57, 0
9, 29280, Note_on_c, 13, 54, 105
9, 29472, Note_on_c, 13, 54, 0
9, 29520, Note_on_c, 13, 52, 105
9, 29712, Note_on_c, 13, 52, 0
9, 29760, Note_on_c, 13, 50, 105
9, 30144, Note_on_c, 13, 50, 0
9, 30240, Note_on_c, 13, 52, 105
9, 30624, Note_on_c, 13, 52, 0
9, 31920, Note_on_c, 13, 57, 105
9, 32112, Note_on_c, 13, 57, 0
9, 32160, Note_on_c, 13, 54, 105
9, 32352, Note_on_c, 13, 54, 0
9, 32400, Note_on_c, 13, 52, 105
9, 32592, Note_on_c, 13, 52, 0
9, 32640, Note_on_c, 13, 50, 125
9, 32880, Note_on_c, 13, 50, 0
9, 32880, Note_on_c, 13, 51, 105
9, 33072, Note_on_c, 13, 51, 0
9, 33120, Note_on_c, 13, 52, 105
9, 33312, Note_on_c, 13, 52, 0
9, 33360, Note_on_c, 13, 64, 105
9, 33552, Note_on_c, 13, 64, 0
9, 33600, Note_on_c, 13, 64, 105
9, 33792, Note_on_c, 13, 64, 0
9, 33840, Note_on_c, 13, 64, 105
9, 34032, Note_on_c, 13, 64, 0
9, 34080, Note_on_c, 13, 64, 105
9, 34272, Note_on_c, 13, 64, 0
9, 34320, Note_on_c, 13, 64, 105
9, 34512, Note_on_c, 13, 64, 0
9, 34560, Note_on_c, 13, 52, 105
9, 34752, Note_on_c, 13, 52, 0
9, 34800, Note_on_c, 13, 64, 105
9, 34992, Note_on_c, 13, 64, 0
9, 35040, Note_on_c, 13, 64, 105
9, 35232, Note_on_c, 13, 64, 0
9, 35280, Note_on_c, 13, 64, 105
9, 35472, Note_on_c, 13, 64, 0
9, 35520, Note_on_c, 13, 64, 105
9, 35712, Note_on_c, 13, 64, 0
9, 35760, Note_on_c, 13, 64, 105
9, 35952, Note_on_c, 13, 64, 0
9, 36000, Note_on_c, 13, 64, 92
9, 36288, Note_on_c, 13, 64, 0
9, 36480, Note_on_c, 13, 64, 92
9, 36540, Note_on_c, 13, 64, 0
9, 36540, Note_on_c, 13, 63, 92
9, 36600, Note_on_c, 13, 63, 0
9, 36600, Note_on_c, 13, 64, 92
9, 36660, Note_on_c, 13, 64, 0
9, 36660, Note_on_c, 13, 63, 92
9, 36720, Note_on_c, 13, 63, 0
9, 36720, Note_on_c, 13, 64, 92
9, 36780, Note_on_c, 13, 64, 0
9, 36780, Note_on_c, 13, 63, 92
9, 36840, Note_on_c, 13, 63, 0
9, 36840, Note_on_c, 13, 64, 92
9, 36900, Note_on_c, 13, 64, 0
9, 36900, Note_on_c, 13, 63, 92
9, 36960, Note_on_c, 13, 63, 0
9, 36960, Note_on_c, 13, 64, 92
9, 37020, Note_on_c, 13, 64, 0
9, 37020, Note_on_c, 13, 63, 92
9, 37080, Note_on_c, 13, 63, 0
9, 37080, Note_on_c, 13, 64, 92
9, 37140, Note_on_c, 13, 64, 0
9, 37140, Note_on_c, 13, 63, 92
9, 37200, Note_on_c, 13, 63, 0
9, 37200, Note_on_c, 13, 61, 92
9, 37320, Note_on_c, 13, 61, 0
9, 37320, Note_on_c, 13, 63, 92
9, 37440, Note_on_c, 13, 63, 0
9, 37440, Note_on_c, 13, 64, 92
9, 37728, Note_on_c, 13, 64, 0
9, 37920, Note_on_c, 13, 52, 80
9, 38208, Note_on_c, 13, 52, 0
9, 38880, Note_on_c, 13, 57, 58
9, 39264, Note_on_c, 13, 57, 0
9, 40320, Note_on_c, 13, 52, 58
9, 40704, Note_on_c, 13, 52, 0
9, 41760, Note_on_c, 13, 45, 58
9, 42144, Note_on_c, 13, 45, 0
9, 43200, Note_on_c, 13, 44, 58
9, 43584, Note_on_c, 13, 44, 0
9, 44640, Note_on_c, 13, 45, 58
9, 45024, Note_on_c, 13, 45, 0
9, 46080, Note_on_c, 13, 44, 58
9, 47040, Note_on_c, 13, 44, 0
9, 47040, Note_on_c, 13, 45, 58
9, 47520, Note_on_c, 13, 45, 0
9, 47520, Note_on_c, 13, 50, 58
9, 47904, Note_on_c, 13, 50, 0
9, 48480, Note_on_c, 13, 62, 58
9, 48864, Note_on_c, 13, 62, 0
9, 48960, Note_on_c, 13, 61, 58
9, 49920, Note_on_c, 13, 61, 0
9, 49920, Note_on_c, 13, 62, 58
9, 50400, Note_on_c, 13, 62, 0
9, 50400, Note_on_c, 13, 64, 58
9, 51360, Note_on_c, 13, 64, 0
9, 51360, Note_on_c, 13, 52, 58
9, 51840, Note_on_c, 13, 52, 0
9, 51840, Note_on_c, 13, 45, 58
9, 52128, Note_on_c, 13, 45, 0
9, 52320, Note_on_c, 13, 57, 58
9, 52380, Note_on_c, 13, 57, 0
9, 52380, Note_on_c, 13, 56, 92
9, 52440, Note_on_c, 13, 56, 0
9, 52440, Note_on_c, 13, 57, 92
9, 52500, Note_on_c, 13, 57, 0
9, 52500, Note_on_c, 13, 56, 92
9, 52560, Note_on_c, 13, 56, 0
9, 52560, Note_on_c, 13, 57, 92
9, 52620, Note_on_c, 13, 57, 0
9, 52620, Note_on_c, 13, 56, 92
9, 52680, Note_on_c, 13, 56, 0
9, 52680, Note_on_c, 13, 57, 92
9, 52740, Note_on_c, 13, 57, 0
9, 52740, Note_on_c, 13, 56, 92
9, 52800, Note_on_c, 13, 56, 0
9, 52800, Note_on_c, 13, 57, 92
9, 52860, Note_on_c, 13, 57, 0
9, 52860, Note_on_c, 13, 56, 92
9, 52920, Note_on_c, 13, 56, 0
9, 52920, Note_on_c, 13, 57, 92
9, 52980, Note_on_c, 13, 57, 0
9, 52980, Note_on_c, 13, 56, 92
9, 53040, Note_on_c, 13, 56, 0
9, 53040, Note_on_c, 13, 54, 92
9, 53160, Note_on_c, 13, 54, 0
9, 53160, Note_on_c, 13, 56, 92
9, 53280, Note_on_c, 13, 56, 0
9, 53280, Note_on_c, 13, 57, 92
9, 53568, Note_on_c, 13, 57, 0
9, 53760, Note_on_c, 13, 45, 70
9, 54048, Note_on_c, 13, 45, 0
9, 54720, Note_on_c, 13, 52, 58
9, 55104, Note_on_c, 13, 52, 0
9, 55200, Note_on_c, 13, 40, 58
9, 55584, Note_on_c, 13, 40, 0
9, 56160, Note_on_c, 13, 45, 58
9, 56544, Note_on_c, 13, 45, 0
9, 57600, Note_on_c, 13, 44, 58
9, 57984, Note_on_c, 13, 44, 0
9, 59040, Note_on_c, 13, 45, 58
9, 59424, Note_on_c, 13, 45, 0
9, 60480, Note_on_c, 13, 44, 58
9, 61440, Note_on_c, 13, 44, 0
9, 61440, Note_on_c, 13, 45, 58
9, 61920, Note_on_c, 13, 45, 0
9, 61920, Note_on_c, 13, 50, 58
9, 62304, Note_on_c, 13, 50, 0
9, 62880, Note_on_c, 13, 62, 58
9, 63264, Note_on_c, 13, 62, 0
9, 63360, Note_on_c, 13, 61, 58
9, 64272, Note_on_c, 13, 61, 0
9, 64320, Note_on_c, 13, 62, 58
9, 65256, Note_on_c, 13, 62, 0
9, 65280, Note_on_c, 13, 63, 58
9, 66192, Note_on_c, 13, 63, 0
9, 66240, Note_on_c, 13, 64, 58
9, 66624, Note_on_c, 13, 64, 0
9, 72480, Note_on_c, 13, 52, 58
9, 72864, Note_on_c, 13, 52, 0
9, 72960, Note_on_c, 13, 40, 58
9, 73344, Note_on_c, 13, 40, 0
9, 73440, Note_on_c, 13, 59, 105
9, 73500, Note_on_c, 13, 59, 0
9, 73500, Note_on_c, 13, 57, 105
9, 73560, Note_on_c, 13, 57, 0
9, 73560, Note_on_c, 13, 59, 105
9, 73620, Note_on_c, 13, 59, 0
9, 73620, Note_on_c, 13, 57, 105
9, 73680, Note_on_c, 13, 57, 0
9, 73680, Note_on_c, 13, 59, 105
9, 73740, Note_on_c, 13, 59, 0
9, 73740, Note_on_c, 13, 57, 105
9, 73800, Note_on_c, 13, 57, 0
9, 73800, Note_on_c, 13, 59, 105
9, 73860, Note_on_c, 13, 59, 0
9, 73860, Note_on_c, 13, 57, 105
9, 73920, Note_on_c, 13, 57, 0
9, 73920, Note_on_c, 13, 59, 105
9, 73980, Note_on_c, 13, 59, 0
9, 73980, Note_on_c, 13, 57, 105
9, 74040, Note_on_c, 13, 57, 0
9, 74040, Note_on_c, 13, 59, 105
9, 74100, Note_on_c, 13, 59, 0
9, 74100, Note_on_c, 13, 57, 105
9, 74160, Note_on_c, 13, 57, 0
9, 74160, Note_on_c, 13, 56, 105
9, 74280, Note_on_c, 13, 56, 0
9, 74280, Note_on_c, 13, 57, 105
9, 74400, Note_on_c, 13, 57, 0
9, 74400, Note_on_c, 13, 45, 105
9, 74784, Note_on_c, 13, 45, 0
9, 76320, Note_on_c, 13, 66, 105
9, 76380, Note_on_c, 13, 66, 0
9, 76380, Note_on_c, 13, 64, 105
9, 76440, Note_on_c, 13, 64, 0
9, 76440, Note_on_c, 13, 66, 105
9, 76500, Note_on_c, 13, 66, 0
9, 76500, Note_on_c, 13, 64, 105
9, 76560, Note_on_c, 13, 64, 0
9, 76560, Note_on_c, 13, 66, 105
9, 76620, Note_on_c, 13, 66, 0
9, 76620, Note_on_c, 13, 64, 105
9, 76680, Note_on_c, 13, 64, 0
9, 76680, Note_on_c, 13, 66, 105
9, 76740, Note_on_c, 13, 66, 0
9, 76740, Note_on_c, 13, 64, 105
9, 76800, Note_on_c, 13, 64, 0
9, 76800, Note_on_c, 13, 66, 105
9, 76860, Note_on_c, 13, 66, 0
9, 76860, Note_on_c, 13, 64, 105
9, 76920, Note_on_c, 13, 64, 0
9, 76920, Note_on_c, 13, 66, 105
9, 76980, Note_on_c, 13, 66, 0
9, 76980, Note_on_c, 13, 64, 105
9, 77040, Note_on_c, 13, 64, 0
9, 77040, Note_on_c, 13, 63, 105
9, 77160, Note_on_c, 13, 63, 0
9, 77160, Note_on_c, 13, 64, 105
9, 77280, Note_on_c, 13, 64, 0
9, 77280, Note_on_c, 13, 52, 105
9, 77664, Note_on_c, 13, 52, 0
9, 79200, Note_on_c, 13, 59, 105
9, 79260, Note_on_c, 13, 59, 0
9, 79260, Note_on_c, 13, 57, 105
9, 79320, Note_on_c, 13, 57, 0
9, 79320, Note_on_c, 13, 59, 105
9, 79380, Note_on_c, 13, 59, 0
9, 79380, Note_on_c, 13, 57, 105
9, 79440, Note_on_c, 13, 57, 0
9, 79440, Note_on_c, 13, 59, 105
9, 79500, Note_on_c, 13, 59, 0
9, 79500, Note_on_c, 13, 57, 105
9, 79560, Note_on_c, 13, 57, 0
9, 79560, Note_on_c, 13, 59, 105
9, 79620, Note_on_c, 13, 59, 0
9, 79620, Note_on_c, 13, 57, 105
9, 79680, Note_on_c, 13, 57, 0
9, 79680, Note_on_c, 13, 59, 105
9, 79740, Note_on_c, 13, 59, 0
9, 79740, Note_on_c, 13, 57, 105
9, 79800, Note_on_c, 13, 57, 0
9, 79800, Note_on_c, 13, 59, 105
9, 79860, Note_on_c, 13, 59, 0
9, 79860, Note_on_c, 13, 57, 105
9, 79920, Note_on_c, 13, 57, 0
9, 79920, Note_on_c, 13, 56, 105
9, 80040, Note_on_c, 13, 56, 0
9, 80040, Note_on_c, 13, 57, 105
9, 80160, Note_on_c, 13, 57, 0
9, 80160, Note_on_c, 13, 45, 105
9, 80544, Note_on_c, 13, 45, 0
9, 82080, Note_on_c, 13, 59, 105
9, 82140, Note_on_c, 13, 59, 0
9, 82140, Note_on_c, 13, 57, 105
9, 82200, Note_on_c, 13, 57, 0
9, 82200, Note_on_c, 13, 59, 105
9, 82260, Note_on_c, 13, 59, 0
9, 82260, Note_on_c, 13, 57, 105
9, 82320, Note_on_c, 13, 57, 0
9, 82320, Note_on_c, 13, 59, 105
9, 82380, Note_on_c, 13, 59, 0
9, 82380, Note_on_c, 13, 57, 105
9, 82440, Note_on_c, 13, 57, 0
9, 82440, Note_on_c, 13, 59, 105
9, 82500, Note_on_c, 13, 59, 0
9, 82500, Note_on_c, 13, 57, 105
9, 82560, Note_on_c, 13, 57, 0
9, 82560, Note_on_c, 13, 59, 105
9, 82620, Note_on_c, 13, 59, 0
9, 82620, Note_on_c, 13, 57, 105
9, 82680, Note_on_c, 13, 57, 0
9, 82680, Note_on_c, 13, 59, 105
9, 82740, Note_on_c, 13, 59, 0
9, 82740, Note_on_c, 13, 57, 105
9, 82800, Note_on_c, 13, 57, 0
9, 82800, Note_on_c, 13, 56, 105
9, 82920, Note_on_c, 13, 56, 0
9, 82920, Note_on_c, 13, 57, 105
9, 83040, Note_on_c, 13, 57, 0
9, 83040, Note_on_c, 13, 45, 105
9, 83424, Note_on_c, 13, 45, 0
9, 84960, Note_on_c, 13, 59, 105
9, 85020, Note_on_c, 13, 59, 0
9, 85020, Note_on_c, 13, 57, 105
9, 85080, Note_on_c, 13, 57, 0
9, 85080, Note_on_c, 13, 59, 105
9, 85140, Note_on_c, 13, 59, 0
9, 85140, Note_on_c, 13, 57, 105
9, 85200, Note_on_c, 13, 57, 0
9, 85200, Note_on_c, 13, 59, 105
9, 85260, Note_on_c, 13, 59, 0
9, 85260, Note_on_c, 13, 57, 105
9, 85320, Note_on_c, 13, 57, 0
9, 85320, Note_on_c, 13, 59, 105
9, 85380, Note_on_c, 13, 59, 0
9, 85380, Note_on_c, 13, 57, 105
9, 85440, Note_on_c, 13, 57, 0
9, 85440, Note_on_c, 13, 59, 105
9, 85500, Note_on_c, 13, 59, 0
9, 85500, Note_on_c, 13, 57, 105
9, 85560, Note_on_c, 13, 57, 0
9, 85560, Note_on_c, 13, 59, 105
9, 85620, Note_on_c, 13, 59, 0
9, 85620, Note_on_c, 13, 57, 105
9, 85680, Note_on_c, 13, 57, 0
9, 85680, Note_on_c, 13, 56, 105
9, 85800, Note_on_c, 13, 56, 0
9, 85800, Note_on_c, 13, 57, 105
9, 85920, Note_on_c, 13, 57, 0
9, 85920, Note_on_c, 13, 45, 105
9, 86304, Note_on_c, 13, 45, 0
9, 86880, Note_on_c, 13, 57, 105
9, 87168, Note_on_c, 13, 57, 0
9, 87360, Note_on_c, 13, 58, 105
9, 87648, Note_on_c, 13, 58, 0
9, 87840, Note_on_c, 13, 59, 105
9, 88128, Note_on_c, 13, 59, 0
9, 88320, Note_on_c, 13, 56, 105
9, 88608, Note_on_c, 13, 56, 0
9, 88800, Note_on_c, 13, 57, 105
9, 89088, Note_on_c, 13, 57, 0
9, 89280, Note_on_c, 13, 54, 105
9, 89568, Note_on_c, 13, 54, 0
9, 89760, Note_on_c, 13, 50, 105
9, 90048, Note_on_c, 13, 50, 0
9, 90240, Note_on_c, 13, 52, 105
9, 90528, Note_on_c, 13, 52, 0
9, 90720, Note_on_c, 13, 45, 58
9, 99360, Note_on_c, 13, 45, 0
9, 99360, Note_on_c, 13, 50, 58
9, 99648, Note_on_c, 13, 50, 0
9, 100800, Note_on_c, 13, 52, 58
9, 101088, Note_on_c, 13, 52, 0
9, 102240, Note_on_c, 13, 57, 105
9, 102528, Note_on_c, 13, 57, 0
9, 102720, Note_on_c, 13, 61, 105
9, 103008, Note_on_c, 13, 61, 0
9, 103200, Note_on_c, 13, 54, 105
9, 103488, Note_on_c, 13, 54, 0
9, 103680, Note_on_c, 13, 57, 105
9, 103968, Note_on_c, 13, 57, 0
9, 104160, Note_on_c, 13, 51, 105
9, 104448, Note_on_c, 13, 51, 0
9, 104640, Note_on_c, 13, 54, 105
9, 104928, Note_on_c, 13, 54, 0
9, 105120, Note_on_c, 13, 52, 105
9, 105312, Note_on_c, 13, 52, 0
9, 105360, Note_on_c, 13, 52, 105
9, 105552, Note_on_c, 13, 52, 0
9, 105600, Note_on_c, 13, 52, 105
9, 105792, Note_on_c, 13, 52, 0
9, 105840, Note_on_c, 13, 52, 105
9, 106032, Note_on_c, 13, 52, 0
9, 106080, Note_on_c, 13, 52, 105
9, 106272, Note_on_c, 13, 52, 0
9, 106320, Note_on_c, 13, 52, 105
9, 106512, Note_on_c, 13, 52, 0
9, 106560, Note_on_c, 13, 52, 105
9, 106752, Note_on_c, 13, 52, 0
9, 106800, Note_on_c, 13, 52, 105
9, 106992, Note_on_c, 13, 52, 0
9, 107040, Note_on_c, 13, 52, 105
9, 107232, Note_on_c, 13, 52, 0
9, 107280, Note_on_c, 13, 52, 105
9, 107472, Note_on_c, 13, 52, 0
9, 107520, Note_on_c, 13, 52, 105
9, 107712, Note_on_c, 13, 52, 0
9, 107760, Note_on_c, 13, 52, 105
9, 107952, Note_on_c, 13, 52, 0
9, 108000, Note_on_c, 13, 45, 105
9, 108384, Note_on_c, 13, 45, 0
9, 108720, Note_on_c, 13, 57, 105
9, 108924, Note_on_c, 13, 57, 0
9, 108960, Note_on_c, 13, 61, 105
9, 109164, Note_on_c, 13, 61, 0
9, 109200, Note_on_c, 13, 64, 105
9, 109404, Note_on_c, 13, 64, 0
9, 109440, Note_on_c, 13, 45, 105
9, 109824, Note_on_c, 13, 45, 0
9, 110160, Note_on_c, 13, 57, 105
9, 110364, Note_on_c, 13, 57, 0
9, 110400, Note_on_c, 13, 61, 105
9, 110604, Note_on_c, 13, 61, 0
9, 110640, Note_on_c, 13, 64, 105
9, 110844, Note_on_c, 13, 64, 0
9, 110880, Note_on_c, 13, 45, 105
9, 111264, Note_on_c, 13, 45, 0
9, 111600, Note_on_c, 13, 57, 105
9, 111804, Note_on_c, 13, 57, 0
9, 111840, Note_on_c, 13, 61, 105
9, 112044, Note_on_c, 13, 61, 0
9, 112080, Note_on_c, 13, 64, 105
9, 112284, Note_on_c, 13, 64, 0
9, 112320, Note_on_c, 13, 57, 105
9, 112608, Note_on_c, 13, 57, 0
9, 112800, Note_on_c, 13, 45, 80
9, 113088, Note_on_c, 13, 45, 0
9, 113760, Note_on_c, 13, 62, 105
9, 114144, Note_on_c, 13, 62, 0
9, 114240, Note_on_c, 13, 50, 105
9, 114624, Note_on_c, 13, 50, 0
9, 115200, Note_on_c, 13, 61, 105
9, 115584, Note_on_c, 13, 61, 0
9, 115680, Note_on_c, 13, 49, 105
9, 116064, Note_on_c, 13, 49, 0
9, 116640, Note_on_c, 13, 59, 105
9, 116904, Note_on_c, 13, 59, 0
9, 117120, Note_on_c, 13, 57, 105
9, 117384, Note_on_c, 13, 57, 0
9, 117600, Note_on_c, 13, 55, 105
9, 117864, Note_on_c, 13, 55, 0
9, 118080, Note_on_c, 13, 57, 105
9, 118368, Note_on_c, 13, 57, 0
9, 118560, Note_on_c, 13, 50, 105
9, 118848, Note_on_c, 13, 50, 0
9, 119520, Note_on_c, 13, 50, 92
9, 119904, Note_on_c, 13, 50, 0
9, 120960, Note_on_c, 13, 50, 92
9, 121344, Note_on_c, 13, 50, 0
9, 122400, Note_on_c, 13, 55, 105
9, 122688, Note_on_c, 13, 55, 0
9, 122880, Note_on_c, 13, 57, 105
9, 123168, Note_on_c, 13, 57, 0
9, 123360, Note_on_c, 13, 45, 105
9, 123648, Note_on_c, 13, 45, 0
9, 123840, Note_on_c, 13, 62, 105
9, 123960, Note_on_c, 13, 62, 0
9, 123960, Note_on_c, 13, 61, 105
9, 124080, Note_on_c, 13, 61, 0
9, 124080, Note_on_c, 13, 59, 105
9, 124200, Note_on_c, 13, 59, 0
9, 124200, Note_on_c, 13, 57, 105
9, 124296, Note_on_c, 13, 57, 0
9, 124320, Note_on_c, 13, 62, 105
9, 124440, Note_on_c, 13, 62, 0
9, 124440, Note_on_c, 13, 61, 105
9, 124560, Note_on_c, 13, 61, 0
9, 124560, Note_on_c, 13, 59, 105
9, 124680, Note_on_c, 13, 59, 0
9, 124680, Note_on_c, 13, 57, 105
9, 124776, Note_on_c, 13, 57, 0
9, 124800, Note_on_c, 13, 62, 105
9, 125184, Note_on_c, 13, 62, 0
9, 125280, Note_on_c, 13, 50, 92
9, 125664, Note_on_c, 13, 50, 0
9, 126720, Note_on_c, 13, 50, 92
9, 127104, Note_on_c, 13, 50, 0
9, 128160, Note_on_c, 13, 55, 92
9, 128448, Note_on_c, 13, 55, 0
9, 128640, Note_on_c, 13, 57, 105
9, 128928, Note_on_c, 13, 57, 0
9, 129120, Note_on_c, 13, 45, 105
9, 129408, Note_on_c, 13, 45, 0
9, 129840, Note_on_c, 13, 62, 105
9, 130032, Note_on_c, 13, 62, 0
9, 130080, Note_on_c, 13, 57, 105
9, 130272, Note_on_c, 13, 57, 0
9, 130320, Note_on_c, 13, 54, 105
9, 130512, Note_on_c, 13, 54, 0
9, 130560, Note_on_c, 13, 50, 105
9, 130944, Note_on_c, 13, 50, 0
9, 131280, Note_on_c, 13, 57, 105
9, 131472, Note_on_c, 13, 57, 0
9, 131520, Note_on_c, 13, 50, 105
9, 131712, Note_on_c, 13, 50, 0
9, 131760, Note_on_c, 13, 62, 105
9, 131952, Note_on_c, 13, 62, 0
9, 132000, Note_on_c, 13, 50, 105
9, 132384, Note_on_c, 13, 50, 0
9, 132720, Note_on_c, 13, 45, 105
9, 132912, Note_on_c, 13, 45, 0
9, 132960, Note_on_c, 13, 49, 105
9, 133152, Note_on_c, 13, 49, 0
9, 133200, Note_on_c, 13, 52, 105
9, 133392, Note_on_c, 13, 52, 0
9, 133440, Note_on_c, 13, 57, 105
9, 133824, Note_on_c, 13, 57, 0
9, 134160, Note_on_c, 13, 57, 105
9, 134352, Note_on_c, 13, 57, 0
9, 134400, Note_on_c, 13, 61, 105
9, 134592, Note_on_c, 13, 61, 0
9, 134640, Note_on_c, 13, 52, 105
9, 134832, Note_on_c, 13, 52, 0
9, 134880, Note_on_c, 13, 57, 105
9, 135264, Note_on_c, 13, 57, 0
9, 135600, Note_on_c, 13, 64, 105
9, 135792, Note_on_c, 13, 64, 0
9, 135840, Note_on_c, 13, 59, 105
9, 136032, Note_on_c, 13, 59, 0
9, 136080, Note_on_c, 13, 56, 105
9, 136272, Note_on_c, 13, 56, 0
9, 136320, Note_on_c, 13, 52, 105
9, 136704, Note_on_c, 13, 52, 0
9, 137040, Note_on_c, 13, 56, 105
9, 137232, Note_on_c, 13, 56, 0
9, 137280, Note_on_c, 13, 52, 105
9, 137472, Note_on_c, 13, 52, 0
9, 137520, Note_on_c, 13, 59, 105
9, 137712, Note_on_c, 13, 59, 0
9, 137760, Note_on_c, 13, 50, 105
9, 138144, Note_on_c, 13, 50, 0
9, 138240, Note_on_c, 13, 49, 105
9, 138432, Note_on_c, 13, 49, 0
9, 138480, Note_on_c, 13, 57, 105
9, 138672, Note_on_c, 13, 57, 0
9, 138720, Note_on_c, 13, 54, 105
9, 138912, Note_on_c, 13, 54, 0
9, 138960, Note_on_c, 13, 52, 105
9, 139152, Note_on_c, 13, 52, 0
9, 139200, Note_on_c, 13, 50, 105
9, 139584, Note_on_c, 13, 50, 0
9, 139680, Note_on_c, 13, 52, 105
9, 140064, Note_on_c, 13, 52, 0
9, 141360, Note_on_c, 13, 57, 105
9, 141552, Note_on_c, 13, 57, 0
9, 141600, Note_on_c, 13, 54, 105
9, 141792, Note_on_c, 13, 54, 0
9, 141840, Note_on_c, 13, 52, 105
9, 142032, Note_on_c, 13, 52, 0
9, 142080, Note_on_c, 13, 50, 105
9, 142464, Note_on_c, 13, 50, 0
9, 142560, Note_on_c, 13, 52, 105
9, 142944, Note_on_c, 13, 52, 0
9, 144240, Note_on_c, 13, 57, 105
9, 144432, Note_on_c, 13, 57, 0
9, 144480, Note_on_c, 13, 54, 105
9, 144672, Note_on_c, 13, 54, 0
9, 144720, Note_on_c, 13, 52, 105
9, 144912, Note_on_c, 13, 52, 0
9, 144960, Note_on_c, 13, 50, 125
9, 145200, Note_on_c, 13, 50, 0
9, 145200, Note_on_c, 13, 51, 105
9, 145392, Note_on_c, 13, 51, 0
9, 145440, Note_on_c, 13, 52, 105
9, 145632, Note_on_c, 13, 52, 0
9, 145680, Note_on_c, 13, 64, 105
9, 145872, Note_on_c, 13, 64, 0
9, 145920, Note_on_c, 13, 64, 105
9, 146112, Note_on_c, 13, 64, 0
9, 146160, Note_on_c, 13, 64, 105
9, 146352, Note_on_c, 13, 64, 0
9, 146400, Note_on_c, 13, 64, 105
9, 146592, Note_on_c, 13, 64, 0
9, 146640, Note_on_c, 13, 64, 105
9, 146832, Note_on_c, 13, 64, 0
9, 146880, Note_on_c, 13, 52, 105
9, 147072, Note_on_c, 13, 52, 0
9, 147120, Note_on_c, 13, 64, 105
9, 147312, Note_on_c, 13, 64, 0
9, 147360, Note_on_c, 13, 64, 105
9, 147552, Note_on_c, 13, 64, 0
9, 147600, Note_on_c, 13, 64, 105
9, 147792, Note_on_c, 13, 64, 0
9, 147840, Note_on_c, 13, 64, 105
9, 148032, Note_on_c, 13, 64, 0
9, 148080, Note_on_c, 13, 64, 105
9, 148272, Note_on_c, 13, 64, 0
9, 148320, Note_on_c, 13, 64, 92
9, 148608, Note_on_c, 13, 64, 0
9, 148800, Note_on_c, 13, 64, 92
9, 148860, Note_on_c, 13, 64, 0
9, 148860, Note_on_c, 13, 63, 92
9, 148920, Note_on_c, 13, 63, 0
9, 148920, Note_on_c, 13, 64, 92
9, 148980, Note_on_c, 13, 64, 0
9, 148980, Note_on_c, 13, 63, 92
9, 149040, Note_on_c, 13, 63, 0
9, 149040, Note_on_c, 13, 64, 92
9, 149100, Note_on_c, 13, 64, 0
9, 149100, Note_on_c, 13, 63, 92
9, 149160, Note_on_c, 13, 63, 0
9, 149160, Note_on_c, 13, 64, 92
9, 149220, Note_on_c, 13, 64, 0
9, 149220, Note_on_c, 13, 63, 92
9, 149280, Note_on_c, 13, 63, 0
9, 149280, Note_on_c, 13, 64, 92
9, 149340, Note_on_c, 13, 64, 0
9, 149340, Note_on_c, 13, 63, 92
9, 149400, Note_on_c, 13, 63, 0
9, 149400, Note_on_c, 13, 64, 92
9, 149460, Note_on_c, 13, 64, 0
9, 149460, Note_on_c, 13, 63, 92
9, 149520, Note_on_c, 13, 63, 0
9, 149520, Note_on_c, 13, 61, 92
9, 149640, Note_on_c, 13, 61, 0
9, 149640, Note_on_c, 13, 63, 92
9, 149760, Note_on_c, 13, 63, 0
9, 149760, Note_on_c, 13, 64, 92
9, 150048, Note_on_c, 13, 64, 0
9, 150240, Note_on_c, 13, 52, 80
9, 150528, Note_on_c, 13, 52, 0
9, 151200, Note_on_c, 13, 57, 58
9, 151584, Note_on_c, 13, 57, 0
9, 152640, Note_on_c, 13, 52, 58
9, 153024, Note_on_c, 13, 52, 0
9, 154080, Note_on_c, 13, 45, 58
9, 154464, Note_on_c, 13, 45, 0
9, 155520, Note_on_c, 13, 44, 58
9, 155904, Note_on_c, 13, 44, 0
9, 156960, Note_on_c, 13, 45, 58
9, 157344, Note_on_c, 13, 45, 0
9, 158400, Note_on_c, 13, 44, 58
9, 159360, Note_on_c, 13, 44, 0
9, 159360, Note_on_c, 13, 45, 58
9, 159840, Note_on_c, 13, 45, 0
9, 159840, Note_on_c, 13, 50, 58
9, 160224, Note_on_c, 13, 50, 0
9, 160800, Note_on_c, 13, 62, 58
9, 161184, Note_on_c, 13, 62, 0
9, 161280, Note_on_c, 13, 61, 58
9, 162240, Note_on_c, 13, 61, 0
9, 162240, Note_on_c, 13, 62, 58
9, 162720, Note_on_c, 13, 62, 0
9, 162720, Note_on_c, 13, 64, 58
9, 163680, Note_on_c, 13, 64, 0
9, 163680, Note_on_c, 13, 52, 58
9, 164160, Note_on_c, 13, 52, 0
9, 164160, Note_on_c, 13, 45, 58
9, 164448, Note_on_c, 13, 45, 0
9, 164640, Note_on_c, 13, 57, 58
9, 164700, Note_on_c, 13, 57, 0
9, 164700, Note_on_c, 13, 56, 92
9, 164760, Note_on_c, 13, 56, 0
9, 164760, Note_on_c, 13, 57, 92
9, 164820, Note_on_c, 13, 57, 0
9, 164820, Note_on_c, 13, 56, 92
9, 164880, Note_on_c, 13, 56, 0
9, 164880, Note_on_c, 13, 57, 92
9, 164940, Note_on_c, 13, 57, 0
9, 164940, Note_on_c, 13, 56, 92
9, 165000, Note_on_c, 13, 56, 0
9, 165000, Note_on_c, 13, 57, 92
9, 165060, Note_on_c, 13, 57, 0
9, 165060, Note_on_c, 13, 56, 92
9, 165120, Note_on_c, 13, 56, 0
9, 165120, Note_on_c, 13, 57, 92
9, 165180, Note_on_c, 13, 57, 0
9, 165180, Note_on_c, 13, 56, 92
9, 165240, Note_on_c, 13, 56, 0
9, 165240, Note_on_c, 13, 57, 92
9, 165300, Note_on_c, 13, 57, 0
9, 165300, Note_on_c, 13, 56, 92
9, 165360, Note_on_c, 13, 56, 0
9, 165360, Note_on_c, 13, 54, 92
9, 165480, Note_on_c, 13, 54, 0
9, 165480, Note_on_c, 13, 56, 92
9, 165600, Note_on_c, 13, 56, 0
9, 165600, Note_on_c, 13, 57, 92
9, 165888, Note_on_c, 13, 57, 0
9, 166080, Note_on_c, 13, 45, 70
9, 166368, Note_on_c, 13, 45, 0
9, 167040, Note_on_c, 13, 52, 58
9, 167424, Note_on_c, 13, 52, 0
9, 167520, Note_on_c, 13, 40, 58
9, 167904, Note_on_c, 13, 40, 0
9, 168480, Note_on_c, 13, 45, 58
9, 168864, Note_on_c, 13, 45, 0
9, 169920, Note_on_c, 13, 44, 58
9, 170304, Note_on_c, 13, 44, 0
9, 171360, Note_on_c, 13, 45, 58
9, 171744, Note_on_c, 13, 45, 0
9, 172800, Note_on_c, 13, 44, 58
9, 173760, Note_on_c, 13, 44, 0
9, 173760, Note_on_c, 13, 45, 58
9, 174240, Note_on_c, 13, 45, 0
9, 174240, Note_on_c, 13, 50, 58
9, 174624, Note_on_c, 13, 50, 0
9, 175200, Note_on_c, 13, 62, 58
9, 175584, Note_on_c, 13, 62, 0
9, 175680, Note_on_c, 13, 61, 58
9, 176592, Note_on_c, 13, 61, 0
9, 176640, Note_on_c, 13, 62, 58
9, 177576, Note_on_c, 13, 62, 0
9, 177600, Note_on_c, 13, 63, 58
9, 178512, Note_on_c, 13, 63, 0
9, 178560, Note_on_c, 13, 64, 58
9, 178944, Note_on_c, 13, 64, 0
9, 184800, Note_on_c, 13, 52, 58
9, 185184, Note_on_c, 13, 52, 0
9, 185280, Note_on_c, 13, 40, 58
9, 185664, Note_on_c, 13, 40, 0
9, 185760, Note_on_c, 13, 59, 105
9, 185820, Note_on_c, 13, 59, 0
9, 185820, Note_on_c, 13, 57, 105
9, 185880, Note_on_c, 13, 57, 0
9, 185880, Note_on_c, 13, 59, 105
9, 185940, Note_on_c, 13, 59, 0
9, 185940, Note_on_c, 13, 57, 105
9, 186000, Note_on_c, 13, 57, 0
9, 186000, Note_on_c, 13, 59, 105
9, 186060, Note_on_c, 13, 59, 0
9, 186060, Note_on_c, 13, 57, 105
9, 186120, Note_on_c, 13, 57, 0
9, 186120, Note_on_c, 13, 59, 105
9, 186180, Note_on_c, 13, 59, 0
9, 186180, Note_on_c, 13, 57, 105
9, 186240, Note_on_c, 13, 57, 0
9, 186240, Note_on_c, 13, 59, 105
9, 186300, Note_on_c, 13, 59, 0
9, 186300, Note_on_c, 13, 57, 105
9, 186360, Note_on_c, 13, 57, 0
9, 186360, Note_on_c, 13, 59, 105
9, 186420, Note_on_c, 13, 59, 0
9, 186420, Note_on_c, 13, 57, 105
9, 186480, Note_on_c, 13, 57, 0
9, 186480, Note_on_c, 13, 56, 105
9, 186600, Note_on_c, 13, 56, 0
9, 186600, Note_on_c, 13, 57, 105
9, 186720, Note_on_c, 13, 57, 0
9, 186720, Note_on_c, 13, 45, 105
9, 187104, Note_on_c, 13, 45, 0
9, 188640, Note_on_c, 13, 66, 105
9, 188700, Note_on_c, 13, 66, 0
9, 188700, Note_on_c, 13, 64, 105
9, 188760, Note_on_c, 13, 64, 0
9, 188760, Note_on_c, 13, 66, 105
9, 188820, Note_on_c, 13, 66, 0
9, 188820, Note_on_c, 13, 64, 105
9, 188880, Note_on_c, 13, 64, 0
9, 188880, Note_on_c, 13, 66, 105
9, 188940, Note_on_c, 13, 66, 0
9, 188940, Note_on_c, 13, 64, 105
9, 189000, Note_on_c, 13, 64, 0
9, 189000, Note_on_c, 13, 66, 105
9, 189060, Note_on_c, 13, 66, 0
9, 189060, Note_on_c, 13, 64, 105
9, 189120, Note_on_c, 13, 64, 0
9, 189120, Note_on_c, 13, 66, 105
9, 189180, Note_on_c, 13, 66, 0
9, 189180, Note_on_c, 13, 64, 105
9, 189240, Note_on_c, 13, 64, 0
9, 189240, Note_on_c, 13, 66, 105
9, 189300, Note_on_c, 13, 66, 0
9, 189300, Note_on_c, 13, 64, 105
9, 189360, Note_on_c, 13, 64, 0
9, 189360, Note_on_c, 13, 63, 105
9, 189480, Note_on_c, 13, 63, 0
9, 189480, Note_on_c, 13, 64, 105
9, 189600, Note_on_c, 13, 64, 0
9, 189600, Note_on_c, 13, 52, 105
9, 189984, Note_on_c, 13, 52, 0
9, 191520, Note_on_c, 13, 59, 105
9, 191580, Note_on_c, 13, 59, 0
9, 191580, Note_on_c, 13, 57, 105
9, 191640, Note_on_c, 13, 57, 0
9, 191640, Note_on_c, 13, 59, 105
9, 191700, Note_on_c, 13, 59, 0
9, 191700, Note_on_c, 13, 57, 105
9, 191760, Note_on_c, 13, 57, 0
9, 191760, Note_on_c, 13, 59, 105
9, 191820, Note_on_c, 13, 59, 0
9, 191820, Note_on_c, 13, 57, 105
9, 191880, Note_on_c, 13, 57, 0
9, 191880, Note_on_c, 13, 59, 105
9, 191940, Note_on_c, 13, 59, 0
9, 191940, Note_on_c, 13, 57, 105
9, 192000, Note_on_c, 13, 57, 0
9, 192000, Note_on_c, 13, 59, 105
9, 192060, Note_on_c, 13, 59, 0
9, 192060, Note_on_c, 13, 57, 105
9, 192120, Note_on_c, 13, 57, 0
9, 192120, Note_on_c, 13, 59, 105
9, 192180, Note_on_c, 13, 59, 0
9, 192180, Note_on_c, 13, 57, 105
9, 192240, Note_on_c, 13, 57, 0
9, 192240, Note_on_c, 13, 56, 105
9, 192360, Note_on_c, 13, 56, 0
9, 192360, Note_on_c, 13, 57, 105
9, 192480, Note_on_c, 13, 57, 0
9, 192480, Note_on_c, 13, 45, 105
9, 192864, Note_on_c, 13, 45, 0
9, 194400, Note_on_c, 13, 59, 105
9, 194460, Note_on_c, 13, 59, 0
9, 194460, Note_on_c, 13, 57, 105
9, 194520, Note_on_c, 13, 57, 0
9, 194520, Note_on_c, 13, 59, 105
9, 194580, Note_on_c, 13, 59, 0
9, 194580, Note_on_c, 13, 57, 105
9, 194640, Note_on_c, 13, 57, 0
9, 194640, Note_on_c, 13, 59, 105
9, 194700, Note_on_c, 13, 59, 0
9, 194700, Note_on_c, 13, 57, 105
9, 194760, Note_on_c, 13, 57, 0
9, 194760, Note_on_c, 13, 59, 105
9, 194820, Note_on_c, 13, 59, 0
9, 194820, Note_on_c, 13, 57, 105
9, 194880, Note_on_c, 13, 57, 0
9, 194880, Note_on_c, 13, 59, 105
9, 194940, Note_on_c, 13, 59, 0
9, 194940, Note_on_c, 13, 57, 105
9, 195000, Note_on_c, 13, 57, 0
9, 195000, Note_on_c, 13, 59, 105
9, 195060, Note_on_c, 13, 59, 0
9, 195060, Note_on_c, 13, 57, 105
9, 195120, Note_on_c, 13, 57, 0
9, 195120, Note_on_c, 13, 56, 105
9, 195240, Note_on_c, 13, 56, 0
9, 195240, Note_on_c, 13, 57, 105
9, 195360, Note_on_c, 13, 57, 0
9, 195360, Note_on_c, 13, 45, 105
9, 195744, Note_on_c, 13, 45, 0
9, 197280, Note_on_c, 13, 59, 105
9, 197340, Note_on_c, 13, 59, 0
9, 197340, Note_on_c, 13, 57, 105
9, 197400, Note_on_c, 13, 57, 0
9, 197400, Note_on_c, 13, 59, 105
9, 197460, Note_on_c, 13, 59, 0
9, 197460, Note_on_c, 13, 57, 105
9, 197520, Note_on_c, 13, 57, 0
9, 197520, Note_on_c, 13, 59, 105
9, 197580, Note_on_c, 13, 59, 0
9, 197580, Note_on_c, 13, 57, 105
9, 197640, Note_on_c, 13, 57, 0
9, 197640, Note_on_c, 13, 59, 105
9, 197700, Note_on_c, 13, 59, 0
9, 197700, Note_on_c, 13, 57, 105
9, 197760, Note_on_c, 13, 57, 0
9, 197760, Note_on_c, 13, 59, 105
9, 197820, Note_on_c, 13, 59, 0
9, 197820, Note_on_c, 13, 57, 105
9, 197880, Note_on_c, 13, 57, 0
9, 197880, Note_on_c, 13, 59, 105
9, 197940, Note_on_c, 13, 59, 0
9, 197940, Note_on_c, 13, 57, 105
9, 198000, Note_on_c, 13, 57, 0
9, 198000, Note_on_c, 13, 56, 105
9, 198120, Note_on_c, 13, 56, 0
9, 198120, Note_on_c, 13, 57, 105
9, 198240, Note_on_c, 13, 57, 0
9, 198240, Note_on_c, 13, 45, 105
9, 198624, Note_on_c, 13, 45, 0
9, 199200, Note_on_c, 13, 57, 105
9, 199488, Note_on_c, 13, 57, 0
9, 199680, Note_on_c, 13, 58, 105
9, 199968, Note_on_c, 13, 58, 0
9, 200160, Note_on_c, 13, 59, 105
9, 200448, Note_on_c, 13, 59, 0
9, 200640, Note_on_c, 13, 56, 105
9, 200928, Note_on_c, 13, 56, 0
9, 201120, Note_on_c, 13, 57, 105
9, 201408, Note_on_c, 13, 57, 0
9, 201600, Note_on_c, 13, 54, 105
9, 201888, Note_on_c, 13, 54, 0
9, 202080, Note_on_c, 13, 50, 105
9, 202368, Note_on_c, 13, 50, 0
9, 202560, Note_on_c, 13, 52, 105
9, 202848, Note_on_c, 13, 52, 0
9, 203040, Note_on_c, 13, 45, 58
9, 211680, Note_on_c, 13, 45, 0
9, 211680, Note_on_c, 13, 50, 58
9, 211968, Note_on_c, 13, 50, 0
9, 213120, Note_on_c, 13, 52, 58
9, 213408, Note_on_c, 13, 52, 0
9, 214560, Note_on_c, 13, 57, 105
9, 214848, Note_on_c, 13, 57, 0
9, 215040, Note_on_c, 13, 61, 105
9, 215328, Note_on_c, 13, 61, 0
9, 215520, Note_on_c, 13, 54, 105
9, 215808, Note_on_c, 13, 54, 0
9, 216000, Note_on_c, 13, 57, 105
9, 216288, Note_on_c, 13, 57, 0
9, 216480, Note_on_c, 13, 51, 105
9, 216768, Note_on_c, 13, 51, 0
9, 216960, Note_on_c, 13, 54, 105
9, 217248, Note_on_c, 13, 54, 0
9, 217440, Note_on_c, 13, 52, 105
9, 217632, Note_on_c, 13, 52, 0
9, 217680, Note_on_c, 13, 52, 105
9, 217872, Note_on_c, 13, 52, 0
9, 217920, Note_on_c, 13, 52, 105
9, 218112, Note_on_c, 13, 52, 0
9, 218160, Note_on_c, 13, 52, 105
9, 218352, Note_on_c, 13, 52, 0
9, 218400, Note_on_c, 13, 52, 105
9, 218592, Note_on_c, 13, 52, 0
9, 218640, Note_on_c, 13, 52, 105
9, 218832, Note_on_c, 13, 52, 0
9, 218880, Note_on_c, 13, 52, 105
9, 219072, Note_on_c, 13, 52, 0
9, 219120, Note_on_c, 13, 52, 105
9, 219312, Note_on_c, 13, 52, 0
9, 219360, Note_on_c, 13, 52, 105
9, 219552, Note_on_c, 13, 52, 0
9, 219600, Note_on_c, 13, 52, 105
9, 219792, Note_on_c, 13, 52, 0
9, 219840, Note_on_c, 13, 52, 105
9, 220032, Note_on_c, 13, 52, 0
9, 220080, Note_on_c, 13, 52, 105
9, 220272, Note_on_c, 13, 52, 0
9, 220320, Note_on_c, 13, 45, 105
9, 220704, Note_on_c, 13, 45, 0
9, 221040, Note_on_c, 13, 57, 105
9, 221244, Note_on_c, 13, 57, 0
9, 221280, Note_on_c, 13, 61, 105
9, 221484, Note_on_c, 13, 61, 0
9, 221520, Note_on_c, 13, 64, 105
9, 221724, Note_on_c, 13, 64, 0
9, 221760, Note_on_c, 13, 45, 105
9, 222144, Note_on_c, 13, 45, 0
9, 222480, Note_on_c, 13, 57, 105
9, 222684, Note_on_c, 13, 57, 0
9, 222720, Note_on_c, 13, 61, 105
9, 222924, Note_on_c, 13, 61, 0
9, 222960, Note_on_c, 13, 64, 105
9, 223164, Note_on_c, 13, 64, 0
9, 223200, Note_on_c, 13, 45, 105
9, 223584, Note_on_c, 13, 45, 0
9, 223920, Note_on_c, 13, 57, 105
9, 224124, Note_on_c, 13, 57, 0
9, 224160, Note_on_c, 13, 61, 105
9, 224364, Note_on_c, 13, 61, 0
9, 224400, Note_on_c, 13, 64, 105
9, 224604, Note_on_c, 13, 64, 0
9, 224640, Note_on_c, 13, 57, 105
9, 224928, Note_on_c, 13, 57, 0
9, 225120, Note_on_c, 13, 45, 80
9, 225408, Note_on_c, 13, 45, 0
9, 226080, Note_on_c, 13, 45, 58
9, 226392, Note_on_c, 13, 45, 0
9, 226560, Note_on_c, 13, 47, 58
9, 226872, Note_on_c, 13, 47, 0
9, 227040, Note_on_c, 13, 49, 58
9, 227352, Note_on_c, 13, 49, 0
9, 227520, Note_on_c, 13, 47, 58
9, 227832, Note_on_c, 13, 47, 0
9, 228000, Note_on_c, 13, 49, 58
9, 228312, Note_on_c, 13, 49, 0
9, 228480, Note_on_c, 13, 50, 58
9, 228792, Note_on_c, 13, 50, 0
9, 228960, Note_on_c, 13, 52, 58
9, 229272, Note_on_c, 13, 52, 0
9, 229440, Note_on_c, 13, 54, 58
9, 229752, Note_on_c, 13, 54, 0
9, 229920, Note_on_c, 13, 56, 58
9, 230232, Note_on_c, 13, 56, 0
9, 230400, Note_on_c, 13, 57, 58
9, 230784, Note_on_c, 13, 57, 0
9, 233280, Note_on_c, 13, 50, 58
9, 233592, Note_on_c, 13, 50, 0
9, 233760, Note_on_c, 13, 52, 58
9, 234072, Note_on_c, 13, 52, 0
9, 234240, Note_on_c, 13, 54, 58
9, 234552, Note_on_c, 13, 54, 0
9, 234720, Note_on_c, 13, 52, 58
9, 235032, Note_on_c, 13, 52, 0
9, 235200, Note_on_c, 13, 54, 58
9, 235512, Note_on_c, 13, 54, 0
9, 235680, Note_on_c, 13, 55, 58
9, 235992, Note_on_c, 13, 55, 0
9, 236160, Note_on_c, 13, 57, 58
9, 236472, Note_on_c, 13, 57, 0
9, 236640, Note_on_c, 13, 59, 58
9, 236952, Note_on_c, 13, 59, 0
9, 237120, Note_on_c, 13, 61, 58
9, 237432, Note_on_c, 13, 61, 0
9, 237600, Note_on_c, 13, 62, 58
9, 237984, Note_on_c, 13, 62, 0
9, 240480, Note_on_c, 13, 43, 58
9, 240792, Note_on_c, 13, 43, 0
9, 240960, Note_on_c, 13, 45, 58
9, 241272, Note_on_c, 13, 45, 0
9, 241440, Note_on_c, 13, 47, 58
9, 241752, Note_on_c, 13, 47, 0
9, 241920, Note_on_c, 13, 45, 58
9, 242232, Note_on_c, 13, 45, 0
9, 242400, Note_on_c, 13, 47, 58
9, 242712, Note_on_c, 13, 47, 0
9, 242880, Note_on_c, 13, 48, 58
9, 243192, Note_on_c, 13, 48, 0
9, 243360, Note_on_c, 13, 50, 58
9, 243672, Note_on_c, 13, 50, 0
9, 243840, Note_on_c, 13, 52, 58
9, 244152, Note_on_c, 13, 52, 0
9, 244320, Note_on_c, 13, 54, 58
9, 244632, Note_on_c, 13, 54, 0
9, 244800, Note_on_c, 13, 55, 58
9, 245184, Note_on_c, 13, 55, 0
9, 246720, Note_on_c, 13, 50, 105
9, 247032, Note_on_c, 13, 50, 0
9, 247200, Note_on_c, 13, 52, 105
9, 247512, Note_on_c, 13, 52, 0
9, 247680, Note_on_c, 13, 54, 105
9, 247992, Note_on_c, 13, 54, 0
9, 248160, Note_on_c, 13, 56, 105
9, 248472, Note_on_c, 13, 56, 0
9, 248640, Note_on_c, 13, 58, 105
9, 248952, Note_on_c, 13, 58, 0
9, 249120, Note_on_c, 13, 47, 105
9, 249432, Note_on_c, 13, 47, 0
9, 249600, Note_on_c, 13, 49, 105
9, 249912, Note_on_c, 13, 49, 0
9, 250080, Note_on_c, 13, 51, 105
9, 250392, Note_on_c, 13, 51, 0
9, 250560, Note_on_c, 13, 52, 105
9, 250872, Note_on_c, 13, 52, 0
9, 251040, Note_on_c, 13, 54, 105
9, 251352, Note_on_c, 13, 54, 0
9, 251520, Note_on_c, 13, 56, 105
9, 251832, Note_on_c, 13, 56, 0
9, 252000, Note_on_c, 13, 57, 105
9, 252312, Note_on_c, 13, 57, 0
9, 252480, Note_on_c, 13, 59, 105
9, 252792, Note_on_c, 13, 59, 0
9, 252960, Note_on_c, 13, 61, 105
9, 253272, Note_on_c, 13, 61, 0
9, 253440, Note_on_c, 13, 62, 105
9, 254808, Note_on_c, 13, 62, 0
9, 254880, Note_on_c, 13, 61, 105
9, 255240, Note_on_c, 13, 61, 0
9, 255240, Note_on_c, 13, 62, 105
9, 255336, Note_on_c, 13, 62, 0
9, 255360, Note_on_c, 13, 59, 105
9, 255720, Note_on_c, 13, 59, 0
9, 255720, Note_on_c, 13, 61, 105
9, 255816, Note_on_c, 13, 61, 0
9, 255840, Note_on_c, 13, 57, 105
9, 256224, Note_on_c, 13, 57, 0
9, 256320, Note_on_c, 13, 60, 105
9, 257688, Note_on_c, 13, 60, 0
9, 257760, Note_on_c, 13, 59, 105
9, 258120, Note_on_c, 13, 59, 0
9, 258120, Note_on_c, 13, 60, 105
9, 258216, Note_on_c, 13, 60, 0
9, 258240, Note_on_c, 13, 57, 105
9, 258600, Note_on_c, 13, 57, 0
9, 258600, Note_on_c, 13, 59, 105
9, 258696, Note_on_c, 13, 59, 0
9, 258720, Note_on_c, 13, 55, 105
9, 259104, Note_on_c, 13, 55, 0
9, 259200, Note_on_c, 13, 43, 58
9, 259584, Note_on_c, 13, 43, 0
9, 260640, Note_on_c, 13, 55, 58
9, 262080, Note_on_c, 13, 55, 0
9, 262080, Note_on_c, 13, 56, 58
9, 263520, Note_on_c, 13, 56, 0
9, 263520, Note_on_c, 13, 57, 58
9, 263904, Note_on_c, 13, 57, 0
9, 264000, Note_on_c, 13, 57, 58
9, 264384, Note_on_c, 13, 57, 0
9, 264480, Note_on_c, 13, 45, 58
9, 264864, Note_on_c, 13, 45, 0
9, 264960, Note_on_c, 13, 43, 58
9, 265344, Note_on_c, 13, 43, 0
9, 266400, Note_on_c, 13, 55, 58
9, 267840, Note_on_c, 13, 55, 0
9, 267840, Note_on_c, 13, 56, 58
9, 269280, Note_on_c, 13, 56, 0
9, 269280, Note_on_c, 13, 57, 58
9, 269664, Note_on_c, 13, 57, 0
9, 275040, Note_on_c, 13, 62, 105
9, 275424, Note_on_c, 13, 62, 0
9, 275520, Note_on_c, 13, 50, 105
9, 275904, Note_on_c, 13, 50, 0
9, 276480, Note_on_c, 13, 61, 105
9, 276864, Note_on_c, 13, 61, 0
9, 276960, Note_on_c, 13, 49, 105
9, 277344, Note_on_c, 13, 49, 0
9, 277920, Note_on_c, 13, 59, 105
9, 278208, Note_on_c, 13, 59, 0
9, 278400, Note_on_c, 13, 57, 105
9, 278688, Note_on_c, 13, 57, 0
9, 278880, Note_on_c, 13, 55, 105
9, 279168, Note_on_c, 13, 55, 0
9, 279360, Note_on_c, 13, 57, 105
9, 279672, Note_on_c, 13, 57, 0
9, 279840, Note_on_c, 13, 50, 105
9, 280152, Note_on_c, 13, 50, 0
9, 280800, Note_on_c, 13, 50, 92
9, 281184, Note_on_c, 13, 50, 0
9, 282240, Note_on_c, 13, 50, 92
9, 282624, Note_on_c, 13, 50, 0
9, 283680, Note_on_c, 13, 55, 105
9, 283992, Note_on_c, 13, 55, 0
9, 284160, Note_on_c, 13, 57, 105
9, 284472, Note_on_c, 13, 57, 0
9, 284640, Note_on_c, 13, 45, 105
9, 284952, Note_on_c, 13, 45, 0
9, 285120, Note_on_c, 13, 62, 105
9, 285240, Note_on_c, 13, 62, 0
9, 285240, Note_on_c, 13, 61, 105
9, 285360, Note_on_c, 13, 61, 0
9, 285360, Note_on_c, 13, 59, 105
9, 285480, Note_on_c, 13, 59, 0
9, 285480, Note_on_c, 13, 57, 105
9, 285576, Note_on_c, 13, 57, 0
9, 285600, Note_on_c, 13, 62, 105
9, 285720, Note_on_c, 13, 62, 0
9, 285720, Note_on_c, 13, 61, 105
9, 285840, Note_on_c, 13, 61, 0
9, 285840, Note_on_c, 13, 59, 105
9, 285960, Note_on_c, 13, 59, 0
9, 285960, Note_on_c, 13, 57, 105
9, 286056, Note_on_c, 13, 57, 0
9, 286080, Note_on_c, 13, 62, 105
9, 286464, Note_on_c, 13, 62, 0
9, 286560, Note_on_c, 13, 62, 105
9, 286872, Note_on_c, 13, 62, 0
9, 287040, Note_on_c, 13, 50, 105
9, 287352, Note_on_c, 13, 50, 0
9, 287880, Note_on_c, 13, 50, 105
9, 287958, Note_on_c, 13, 50, 0
9, 288000, Note_on_c, 13, 55, 105
9, 288312, Note_on_c, 13, 55, 0
9, 288480, Note_on_c, 13, 43, 105
9, 288792, Note_on_c, 13, 43, 0
9, 289320, Note_on_c, 13, 55, 105
9, 289398, Note_on_c, 13, 55, 0
9, 289440, Note_on_c, 13, 62, 105
9, 289752, Note_on_c, 13, 62, 0
9, 289920, Note_on_c, 13, 47, 105
9, 290232, Note_on_c, 13, 47, 0
9, 290760, Note_on_c, 13, 59, 105
9, 290838, Note_on_c, 13, 59, 0
9, 290880, Note_on_c, 13, 64, 105
9, 291192, Note_on_c, 13, 64, 0
9, 291360, Note_on_c, 13, 52, 105
9, 291672, Note_on_c, 13, 52, 0
9, 292200, Note_on_c, 13, 52, 105
9, 292278, Note_on_c, 13, 52, 0
9, 292320, Note_on_c, 13, 61, 105
9, 292632, Note_on_c, 13, 61, 0
9, 292800, Note_on_c, 13, 45, 105
9, 293112, Note_on_c, 13, 45, 0
9, 293640, Note_on_c, 13, 57, 105
9, 293718, Note_on_c, 13, 57, 0
9, 293760, Note_on_c, 13, 62, 105
9, 294072, Note_on_c, 13, 62, 0
9, 294240, Note_on_c, 13, 50, 105
9, 294552, Note_on_c, 13, 50, 0
9, 295080, Note_on_c, 13, 62, 105
9, 295158, Note_on_c, 13, 62, 0
9, 295200, Note_on_c, 13, 55, 105
9, 295356, Note_on_c, 13, 55, 0
9, 295440, Note_on_c, 13, 55, 105
9, 295596, Note_on_c, 13, 55, 0
9, 295680, Note_on_c, 13, 55, 105
9, 295836, Note_on_c, 13, 55, 0
9, 295920, Note_on_c, 13, 55, 105
9, 296076, Note_on_c, 13, 55, 0
9, 296160, Note_on_c, 13, 56, 105
9, 296316, Note_on_c, 13, 56, 0
9, 296400, Note_on_c, 13, 56, 105
9, 296556, Note_on_c, 13, 56, 0
9, 296640, Note_on_c, 13, 57, 105
9, 296832, Note_on_c, 13, 57, 0
9, 296880, Note_on_c, 13, 45, 105
9, 297072, Note_on_c, 13, 45, 0
9, 297120, Note_on_c, 13, 49, 105
9, 297312, Note_on_c, 13, 49, 0
9, 297360, Note_on_c, 13, 52, 105
9, 297552, Note_on_c, 13, 52, 0
9, 297600, Note_on_c, 13, 55, 105
9, 297984, Note_on_c, 13, 55, 0
9, 298320, Note_on_c, 13, 49, 105
9, 298512, Note_on_c, 13, 49, 0
9, 298560, Note_on_c, 13, 52, 105
9, 298752, Note_on_c, 13, 52, 0
9, 298800, Note_on_c, 13, 45, 105
9, 298992, Note_on_c, 13, 45, 0
9, 299040, Note_on_c, 13, 55, 105
9, 299424, Note_on_c, 13, 55, 0
9, 299760, Note_on_c, 13, 54, 105
9, 299952, Note_on_c, 13, 54, 0
9, 300000, Note_on_c, 13, 50, 105
9, 300192, Note_on_c, 13, 50, 0
9, 300240, Note_on_c, 13, 45, 105
9, 300432, Note_on_c, 13, 45, 0
9, 300480, Note_on_c, 13, 42, 105
9, 300864, Note_on_c, 13, 42, 0
9, 301200, Note_on_c, 13, 57, 105
9, 301392, Note_on_c, 13, 57, 0
9, 301440, Note_on_c, 13, 50, 105
9, 301632, Note_on_c, 13, 50, 0
9, 301680, Note_on_c, 13, 62, 105
9, 301872, Note_on_c, 13, 62, 0
9, 301920, Note_on_c, 13, 54, 105
9, 302304, Note_on_c, 13, 54, 0
9, 302640, Note_on_c, 13, 45, 105
9, 302832, Note_on_c, 13, 45, 0
9, 302880, Note_on_c, 13, 49, 105
9, 303072, Note_on_c, 13, 49, 0
9, 303120, Note_on_c, 13, 52, 105
9, 303312, Note_on_c, 13, 52, 0
9, 303360, Note_on_c, 13, 57, 105
9, 303744, Note_on_c, 13, 57, 0
9, 304080, Note_on_c, 13, 61, 105
9, 304272, Note_on_c, 13, 61, 0
9, 304320, Note_on_c, 13, 64, 105
9, 304512, Note_on_c, 13, 64, 0
9, 304560, Note_on_c, 13, 57, 105
9, 304752, Note_on_c, 13, 57, 0
9, 304800, Note_on_c, 13, 61, 105
9, 305184, Note_on_c, 13, 61, 0
9, 305280, Note_on_c, 13, 62, 105
9, 305472, Note_on_c, 13, 62, 0
9, 305520, Note_on_c, 13, 50, 105
9, 305712, Note_on_c, 13, 50, 0
9, 305760, Note_on_c, 13, 47, 105
9, 305952, Note_on_c, 13, 47, 0
9, 306000, Note_on_c, 13, 45, 105
9, 306192, Note_on_c, 13, 45, 0
9, 306240, Note_on_c, 13, 43, 105
9, 306624, Note_on_c, 13, 43, 0
9, 306720, Note_on_c, 13, 45, 105
9, 307104, Note_on_c, 13, 45, 0
9, 308400, Note_on_c, 13, 50, 105
9, 308592, Note_on_c, 13, 50, 0
9, 308640, Note_on_c, 13, 47, 105
9, 308832, Note_on_c, 13, 47, 0
9, 308880, Note_on_c, 13, 45, 105
9, 309072, Note_on_c, 13, 45, 0
9, 309120, Note_on_c, 13, 43, 105
9, 309504, Note_on_c, 13, 43, 0
9, 309600, Note_on_c, 13, 45, 105
9, 309984, Note_on_c, 13, 45, 0
9, 311280, Note_on_c, 13, 62, 105
9, 311472, Note_on_c, 13, 62, 0
9, 311520, Note_on_c, 13, 59, 105
9, 311712, Note_on_c, 13, 59, 0
9, 311760, Note_on_c, 13, 57, 105
9, 311952, Note_on_c, 13, 57, 0
9, 312000, Note_on_c, 13, 55, 125
9, 312240, Note_on_c, 13, 55, 0
9, 312240, Note_on_c, 13, 56, 105
9, 312432, Note_on_c, 13, 56, 0
9, 312480, Note_on_c, 13, 57, 105
9, 312636, Note_on_c, 13, 57, 0
9, 312720, Note_on_c, 13, 57, 105
9, 312876, Note_on_c, 13, 57, 0
9, 312960, Note_on_c, 13, 57, 105
9, 313116, Note_on_c, 13, 57, 0
9, 313200, Note_on_c, 13, 57, 105
9, 313356, Note_on_c, 13, 57, 0
9, 313440, Note_on_c, 13, 57, 105
9, 313596, Note_on_c, 13, 57, 0
9, 313680, Note_on_c, 13, 57, 105
9, 313836, Note_on_c, 13, 57, 0
9, 313920, Note_on_c, 13, 57, 105
9, 314076, Note_on_c, 13, 57, 0
9, 314160, Note_on_c, 13, 57, 105
9, 314316, Note_on_c, 13, 57, 0
9, 314400, Note_on_c, 13, 57, 105
9, 314556, Note_on_c, 13, 57, 0
9, 314640, Note_on_c, 13, 57, 105
9, 314796, Note_on_c, 13, 57, 0
9, 314880, Note_on_c, 13, 57, 105
9, 315036, Note_on_c, 13, 57, 0
9, 315120, Note_on_c, 13, 57, 105
9, 315276, Note_on_c, 13, 57, 0
9, 315360, Note_on_c, 13, 57, 105
9, 315672, Note_on_c, 13, 57, 0
9, 315840, Note_on_c, 13, 57, 105
9, 315900, Note_on_c, 13, 57, 0
9, 315900, Note_on_c, 13, 56, 105
9, 315960, Note_on_c, 13, 56, 0
9, 315960, Note_on_c, 13, 57, 105
9, 316020, Note_on_c, 13, 57, 0
9, 316020, Note_on_c, 13, 56, 105
9, 316080, Note_on_c, 13, 56, 0
9, 316080, Note_on_c, 13, 57, 105
9, 316140, Note_on_c, 13, 57, 0
9, 316140, Note_on_c, 13, 56, 105
9, 316200, Note_on_c, 13, 56, 0
9, 316200, Note_on_c, 13, 57, 105
9, 316260, Note_on_c, 13, 57, 0
9, 316260, Note_on_c, 13, 56, 105
9, 316320, Note_on_c, 13, 56, 0
9, 316320, Note_on_c, 13, 57, 105
9, 316380, Note_on_c, 13, 57, 0
9, 316380, Note_on_c, 13, 56, 105
9, 316440, Note_on_c, 13, 56, 0
9, 316440, Note_on_c, 13, 57, 105
9, 316500, Note_on_c, 13, 57, 0
9, 316500, Note_on_c, 13, 56, 105
9, 316560, Note_on_c, 13, 56, 0
9, 316560, Note_on_c, 13, 54, 105
9, 316680, Note_on_c, 13, 54, 0
9, 316680, Note_on_c, 13, 56, 105
9, 316800, Note_on_c, 13, 56, 0
9, 316800, Note_on_c, 13, 57, 105
9, 317088, Note_on_c, 13, 57, 0
9, 317280, Note_on_c, 13, 45, 92
9, 317568, Note_on_c, 13, 45, 0
9, 318240, Note_on_c, 13, 62, 58
9, 318624, Note_on_c, 13, 62, 0
9, 319680, Note_on_c, 13, 57, 58
9, 320064, Note_on_c, 13, 57, 0
9, 321120, Note_on_c, 13, 50, 58
9, 321504, Note_on_c, 13, 50, 0
9, 322560, Note_on_c, 13, 49, 58
9, 322944, Note_on_c, 13, 49, 0
9, 324000, Note_on_c, 13, 50, 58
9, 324384, Note_on_c, 13, 50, 0
9, 325440, Note_on_c, 13, 49, 58
9, 326400, Note_on_c, 13, 49, 0
9, 326400, Note_on_c, 13, 50, 58
9, 326880, Note_on_c, 13, 50, 0
9, 326880, Note_on_c, 13, 43, 58
9, 327264, Note_on_c, 13, 43, 0
9, 327840, Note_on_c, 13, 55, 58
9, 328224, Note_on_c, 13, 55, 0
9, 328320, Note_on_c, 13, 54, 58
9, 329280, Note_on_c, 13, 54, 0
9, 329280, Note_on_c, 13, 55, 58
9, 329760, Note_on_c, 13, 55, 0
9, 329760, Note_on_c, 13, 57, 58
9, 330720, Note_on_c, 13, 57, 0
9, 330720, Note_on_c, 13, 45, 58
9, 331200, Note_on_c, 13, 45, 0
9, 331200, Note_on_c, 13, 50, 58
9, 331584, Note_on_c, 13, 50, 0
9, 331680, Note_on_c, 13, 62, 58
9, 331740, Note_on_c, 13, 62, 0
9, 331740, Note_on_c, 13, 61, 92
9, 331800, Note_on_c, 13, 61, 0
9, 331800, Note_on_c, 13, 62, 92
9, 331860, Note_on_c, 13, 62, 0
9, 331860, Note_on_c, 13, 61, 92
9, 331920, Note_on_c, 13, 61, 0
9, 331920, Note_on_c, 13, 62, 92
9, 331980, Note_on_c, 13, 62, 0
9, 331980, Note_on_c, 13, 61, 92
9, 332040, Note_on_c, 13, 61, 0
9, 332040, Note_on_c, 13, 62, 92
9, 332100, Note_on_c, 13, 62, 0
9, 332100, Note_on_c, 13, 61, 92
9, 332160, Note_on_c, 13, 61, 0
9, 332160, Note_on_c, 13, 62, 92
9, 332220, Note_on_c, 13, 62, 0
9, 332220, Note_on_c, 13, 61, 92
9, 332280, Note_on_c, 13, 61, 0
9, 332280, Note_on_c, 13, 62, 92
9, 332340, Note_on_c, 13, 62, 0
9, 332340, Note_on_c, 13, 61, 92
9, 332400, Note_on_c, 13, 61, 0
9, 332400, Note_on_c, 13, 59, 92
9, 332520, Note_on_c, 13, 59, 0
9, 332520, Note_on_c, 13, 61, 92
9, 332640, Note_on_c, 13, 61, 0
9, 332640, Note_on_c, 13, 62, 92
9, 333024, Note_on_c, 13, 62, 0
9, 333120, Note_on_c, 13, 50, 92
9, 333504, Note_on_c, 13, 50, 0
9, 334080, Note_on_c, 13, 57, 58
9, 334464, Note_on_c, 13, 57, 0
9, 334560, Note_on_c, 13, 45, 58
9, 334944, Note_on_c, 13, 45, 0
9, 335520, Note_on_c, 13, 50, 58
9, 335904, Note_on_c, 13, 50, 0
9, 336960, Note_on_c, 13, 49, 58
9, 337344, Note_on_c, 13, 49, 0
9, 338400, Note_on_c, 13, 50, 58
9, 338784, Note_on_c, 13, 50, 0
9, 339840, Note_on_c, 13, 49, 58
9, 340800, Note_on_c, 13, 49, 0
9, 340800, Note_on_c, 13, 50, 58
9, 341280, Note_on_c, 13, 50, 0
9, 341280, Note_on_c, 13, 43, 58
9, 341664, Note_on_c, 13, 43, 0
9, 342240, Note_on_c, 13, 55, 58
9, 342624, Note_on_c, 13, 55, 0
9, 342720, Note_on_c, 13, 54, 58
9, 343632, Note_on_c, 13, 54, 0
9, 343680, Note_on_c, 13, 55, 58
9, 344616, Note_on_c, 13, 55, 0
9, 344640, Note_on_c, 13, 56, 58
9, 345552, Note_on_c, 13, 56, 0
9, 345600, Note_on_c, 13, 57, 58
9, 345984, Note_on_c, 13, 57, 0
9, 351840, Note_on_c, 13, 57, 58
9, 352152, Note_on_c, 13, 57, 0
9, 352320, Note_on_c, 13, 45, 58
9, 352632, Note_on_c, 13, 45, 0
9, 352800, Note_on_c, 13, 47, 58
9, 353184, Note_on_c, 13, 47, 0
9, 356160, Note_on_c, 13, 57, 58
9, 356472, Note_on_c, 13, 57, 0
9, 356640, Note_on_c, 13, 45, 58
9, 356952, Note_on_c, 13, 45, 0
9, 357120, Note_on_c, 13, 64, 92
9, 357180, Note_on_c, 13, 64, 0
9, 357180, Note_on_c, 13, 62, 92
9, 357240, Note_on_c, 13, 62, 0
9, 357240, Note_on_c, 13, 64, 92
9, 357300, Note_on_c, 13, 64, 0
9, 357300, Note_on_c, 13, 62, 92
9, 357360, Note_on_c, 13, 62, 0
9, 357360, Note_on_c, 13, 64, 92
9, 357420, Note_on_c, 13, 64, 0
9, 357420, Note_on_c, 13, 62, 92
9, 357480, Note_on_c, 13, 62, 0
9, 357480, Note_on_c, 13, 64, 92
9, 357540, Note_on_c, 13, 64, 0
9, 357540, Note_on_c, 13, 62, 92
9, 357600, Note_on_c, 13, 62, 0
9, 357600, Note_on_c, 13, 64, 92
9, 357660, Note_on_c, 13, 64, 0
9, 357660, Note_on_c, 13, 62, 92
9, 357720, Note_on_c, 13, 62, 0
9, 357720, Note_on_c, 13, 64, 92
9, 357780, Note_on_c, 13, 64, 0
9, 357780, Note_on_c, 13, 62, 92
9, 357840, Note_on_c, 13, 62, 0
9, 357840, Note_on_c, 13, 61, 92
9, 357960, Note_on_c, 13, 61, 0
9, 357960, Note_on_c, 13, 62, 92
9, 358056, Note_on_c, 13, 62, 0
9, 358080, Note_on_c, 13, 50, 92
9, 358464, Note_on_c, 13, 50, 0
9, 360000, Note_on_c, 13, 59, 92
9, 360060, Note_on_c, 13, 59, 0
9, 360060, Note_on_c, 13, 57, 92
9, 360120, Note_on_c, 13, 57, 0
9, 360120, Note_on_c, 13, 59, 92
9, 360180, Note_on_c, 13, 59, 0
9, 360180, Note_on_c, 13, 57, 92
9, 360240, Note_on_c, 13, 57, 0
9, 360240, Note_on_c, 13, 59, 92
9, 360300, Note_on_c, 13, 59, 0
9, 360300, Note_on_c, 13, 57, 92
9, 360360, Note_on_c, 13, 57, 0
9, 360360, Note_on_c, 13, 59, 92
9, 360420, Note_on_c, 13, 59, 0
9, 360420, Note_on_c, 13, 57, 92
9, 360480, Note_on_c, 13, 57, 0
9, 360480, Note_on_c, 13, 59, 92
9, 360540, Note_on_c, 13, 59, 0
9, 360540, Note_on_c, 13, 57, 92
9, 360600, Note_on_c, 13, 57, 0
9, 360600, Note_on_c, 13, 59, 92
9, 360660, Note_on_c, 13, 59, 0
9, 360660, Note_on_c, 13, 57, 92
9, 360720, Note_on_c, 13, 57, 0
9, 360720, Note_on_c, 13, 56, 92
9, 360840, Note_on_c, 13, 56, 0
9, 360840, Note_on_c, 13, 57, 92
9, 360960, Note_on_c, 13, 57, 0
9, 360960, Note_on_c, 13, 45, 92
9, 361344, Note_on_c, 13, 45, 0
9, 362880, Note_on_c, 13, 64, 92
9, 362940, Note_on_c, 13, 64, 0
9, 362940, Note_on_c, 13, 62, 92
9, 363000, Note_on_c, 13, 62, 0
9, 363000, Note_on_c, 13, 64, 92
9, 363060, Note_on_c, 13, 64, 0
9, 363060, Note_on_c, 13, 62, 92
9, 363120, Note_on_c, 13, 62, 0
9, 363120, Note_on_c, 13, 64, 92
9, 363180, Note_on_c, 13, 64, 0
9, 363180, Note_on_c, 13, 62, 92
9, 363240, Note_on_c, 13, 62, 0
9, 363240, Note_on_c, 13, 64, 92
9, 363300, Note_on_c, 13, 64, 0
9, 363300, Note_on_c, 13, 62, 92
9, 363360, Note_on_c, 13, 62, 0
9, 363360, Note_on_c, 13, 64, 92
9, 363420, Note_on_c, 13, 64, 0
9, 363420, Note_on_c, 13, 62, 92
9, 363480, Note_on_c, 13, 62, 0
9, 363480, Note_on_c, 13, 64, 92
9, 363540, Note_on_c, 13, 64, 0
9, 363540, Note_on_c, 13, 62, 92
9, 363600, Note_on_c, 13, 62, 0
9, 363600, Note_on_c, 13, 61, 92
9, 363720, Note_on_c, 13, 61, 0
9, 363720, Note_on_c, 13, 62, 92
9, 363816, Note_on_c, 13, 62, 0
9, 363840, Note_on_c, 13, 50, 92
9, 364224, Note_on_c, 13, 50, 0
9, 365760, Note_on_c, 13, 64, 92
9, 365820, Note_on_c, 13, 64, 0
9, 365820, Note_on_c, 13, 62, 92
9, 365880, Note_on_c, 13, 62, 0
9, 365880, Note_on_c, 13, 64, 92
9, 365940, Note_on_c, 13, 64, 0
9, 365940, Note_on_c, 13, 62, 92
9, 366000, Note_on_c, 13, 62, 0
9, 366000, Note_on_c, 13, 64, 92
9, 366060, Note_on_c, 13, 64, 0
9, 366060, Note_on_c, 13, 62, 92
9, 366120, Note_on_c, 13, 62, 0
9, 366120, Note_on_c, 13, 64, 92
9, 366180, Note_on_c, 13, 64, 0
9, 366180, Note_on_c, 13, 62, 92
9, 366240, Note_on_c, 13, 62, 0
9, 366240, Note_on_c, 13, 64, 92
9, 366300, Note_on_c, 13, 64, 0
9, 366300, Note_on_c, 13, 62, 92
9, 366360, Note_on_c, 13, 62, 0
9, 366360, Note_on_c, 13, 64, 92
9, 366420, Note_on_c, 13, 64, 0
9, 366420, Note_on_c, 13, 62, 92
9, 366480, Note_on_c, 13, 62, 0
9, 366480, Note_on_c, 13, 61, 92
9, 366600, Note_on_c, 13, 61, 0
9, 366600, Note_on_c, 13, 62, 92
9, 366696, Note_on_c, 13, 62, 0
9, 366720, Note_on_c, 13, 50, 92
9, 367104, Note_on_c, 13, 50, 0
9, 368640, Note_on_c, 13, 64, 92
9, 368700, Note_on_c, 13, 64, 0
9, 368700, Note_on_c, 13, 62, 92
9, 368760, Note_on_c, 13, 62, 0
9, 368760, Note_on_c, 13, 64, 92
9, 368820, Note_on_c, 13, 64, 0
9, 368820, Note_on_c, 13, 62, 92
9, 368880, Note_on_c, 13, 62, 0
9, 368880, Note_on_c, 13, 64, 92
9, 368940, Note_on_c, 13, 64, 0
9, 368940, Note_on_c, 13, 62, 92
9, 369000, Note_on_c, 13, 62, 0
9, 369000, Note_on_c, 13, 64, 92
9, 369060, Note_on_c, 13, 64, 0
9, 369060, Note_on_c, 13, 62, 92
9, 369120, Note_on_c, 13, 62, 0
9, 369120, Note_on_c, 13, 64, 92
9, 369180, Note_on_c, 13, 64, 0
9, 369180, Note_on_c, 13, 62, 92
9, 369240, Note_on_c, 13, 62, 0
9, 369240, Note_on_c, 13, 64, 92
9, 369300, Note_on_c, 13, 64, 0
9, 369300, Note_on_c, 13, 62, 92
9, 369360, Note_on_c, 13, 62, 0
9, 369360, Note_on_c, 13, 61, 92
9, 369480, Note_on_c, 13, 61, 0
9, 369480, Note_on_c, 13, 62, 92
9, 369576, Note_on_c, 13, 62, 0
9, 369600, Note_on_c, 13, 50, 92
9, 369984, Note_on_c, 13, 50, 0
9, 370560, Note_on_c, 13, 62, 105
9, 370848, Note_on_c, 13, 62, 0
9, 371040, Note_on_c, 13, 63, 105
9, 371328, Note_on_c, 13, 63, 0
9, 371520, Note_on_c, 13, 64, 105
9, 371808, Note_on_c, 13, 64, 0
9, 372000, Note_on_c, 13, 61, 105
9, 372288, Note_on_c, 13, 61, 0
9, 372480, Note_on_c, 13, 62, 105
9, 372768, Note_on_c, 13, 62, 0
9, 372960, Note_on_c, 13, 59, 105
9, 373248, Note_on_c, 13, 59, 0
9, 373440, Note_on_c, 13, 55, 105
9, 373728, Note_on_c, 13, 55, 0
9, 373920, Note_on_c, 13, 57, 105
9, 374208, Note_on_c, 13, 57, 0
9, 374400, Note_on_c, 13, 50, 58
9, 383012, Note_on_c, 13, 50, 0
9, 383040, Note_on_c, 13, 43, 58
9, 383352, Note_on_c, 13, 43, 0
9, 384480, Note_on_c, 13, 45, 58
9, 384792, Note_on_c, 13, 45, 0
9, 385920, Note_on_c, 13, 62, 105
9, 386208, Note_on_c, 13, 62, 0
9, 386400, Note_on_c, 13, 66, 105
9, 386688, Note_on_c, 13, 66, 0
9, 386880, Note_on_c, 13, 59, 105
9, 387168, Note_on_c, 13, 59, 0
9, 387360, Note_on_c, 13, 62, 105
9, 387648, Note_on_c, 13, 62, 0
9, 387840, Note_on_c, 13, 56, 105
9, 388128, Note_on_c, 13, 56, 0
9, 388320, Note_on_c, 13, 59, 105
9, 388608, Note_on_c, 13, 59, 0
9, 388800, Note_on_c, 13, 57, 105
9, 388956, Note_on_c, 13, 57, 0
9, 389040, Note_on_c, 13, 57, 105
9, 389196, Note_on_c, 13, 57, 0
9, 389280, Note_on_c, 13, 57, 105
9, 389436, Note_on_c, 13, 57, 0
9, 389520, Note_on_c, 13, 57, 105
9, 389676, Note_on_c, 13, 57, 0
9, 389760, Note_on_c, 13, 57, 105
9, 389916, Note_on_c, 13, 57, 0
9, 390000, Note_on_c, 13, 57, 105
9, 390156, Note_on_c, 13, 57, 0
9, 390240, Note_on_c, 13, 45, 105
9, 390396, Note_on_c, 13, 45, 0
9, 390480, Note_on_c, 13, 45, 105
9, 390636, Note_on_c, 13, 45, 0
9, 390720, Note_on_c, 13, 45, 105
9, 390876, Note_on_c, 13, 45, 0
9, 390960, Note_on_c, 13, 45, 105
9, 391116, Note_on_c, 13, 45, 0
9, 391200, Note_on_c, 13, 45, 105
9, 391356, Note_on_c, 13, 45, 0
9, 391440, Note_on_c, 13, 45, 105
9, 391596, Note_on_c, 13, 45, 0
9, 391680, Note_on_c, 13, 50, 92
9, 392064, Note_on_c, 13, 50, 0
9, 392400, Note_on_c, 13, 50, 92
9, 392544, Note_on_c, 13, 50, 0
9, 392640, Note_on_c, 13, 54, 92
9, 392784, Note_on_c, 13, 54, 0
9, 392880, Note_on_c, 13, 57, 92
9, 393024, Note_on_c, 13, 57, 0
9, 393120, Note_on_c, 13, 50, 92
9, 393504, Note_on_c, 13, 50, 0
9, 393840, Note_on_c, 13, 50, 92
9, 393984, Note_on_c, 13, 50, 0
9, 394080, Note_on_c, 13, 54, 92
9, 394224, Note_on_c, 13, 54, 0
9, 394320, Note_on_c, 13, 57, 92
9, 394464, Note_on_c, 13, 57, 0
9, 394560, Note_on_c, 13, 50, 92
9, 394944, Note_on_c, 13, 50, 0
9, 395280, Note_on_c, 13, 50, 92
9, 395424, Note_on_c, 13, 50, 0
9, 395520, Note_on_c, 13, 54, 92
9, 395664, Note_on_c, 13, 54, 0
9, 395760, Note_on_c, 13, 57, 92
9, 395904, Note_on_c, 13, 57, 0
9, 396000, Note_on_c, 13, 62, 92
9, 396288, Note_on_c, 13, 62, 0
9, 396480, Note_on_c, 13, 50, 92
9, 396768, Note_on_c, 13, 50, 0
9, 397440, Note_on_c, 13, 54, 58
9, 397752, Note_on_c, 13, 54, 0
9, 397920, Note_on_c, 13, 52, 58
9, 398232, Note_on_c, 13, 52, 0
9, 398400, Note_on_c, 13, 50, 58
9, 398712, Note_on_c, 13, 50, 0
9, 398880, Note_on_c, 13, 52, 58
9, 399192, Note_on_c, 13, 52, 0
9, 399360, Note_on_c, 13, 54, 58
9, 399672, Note_on_c, 13, 54, 0
9, 399840, Note_on_c, 13, 55, 58
9, 400152, Note_on_c, 13, 55, 0
9, 400320, Note_on_c, 13, 57, 58
9, 400632, Note_on_c, 13, 57, 0
9, 400800, Note_on_c, 13, 45, 58
9, 401112, Note_on_c, 13, 45, 0
9, 401280, Note_on_c, 13, 55, 58
9, 401592, Note_on_c, 13, 55, 0
9, 401760, Note_on_c, 13, 54, 58
9, 402144, Note_on_c, 13, 54, 0
9, 403200, Note_on_c, 13, 57, 58
9, 403512, Note_on_c, 13, 57, 0
9, 403680, Note_on_c, 13, 45, 58
9, 403992, Note_on_c, 13, 45, 0
9, 404160, Note_on_c, 13, 55, 58
9, 404472, Note_on_c, 13, 55, 0
9, 404640, Note_on_c, 13, 54, 58
9, 405024, Note_on_c, 13, 54, 0
9, 406080, Note_on_c, 13, 55, 105
9, 406392, Note_on_c, 13, 55, 0
9, 406560, Note_on_c, 13, 52, 105
9, 406872, Note_on_c, 13, 52, 0
9, 407040, Note_on_c, 13, 57, 105
9, 407352, Note_on_c, 13, 57, 0
9, 407520, Note_on_c, 13, 59, 105
9, 407832, Note_on_c, 13, 59, 0
9, 408000, Note_on_c, 13, 62, 105
9, 408312, Note_on_c, 13, 62, 0
9, 408480, Note_on_c, 13, 54, 105
9, 408792, Note_on_c, 13, 54, 0
9, 408960, Note_on_c, 13, 55, 105
9, 409272, Note_on_c, 13, 55, 0
9, 409440, Note_on_c, 13, 52, 105
9, 409752, Note_on_c, 13, 52, 0
9, 409920, Note_on_c, 13, 57, 105
9, 410232, Note_on_c, 13, 57, 0
9, 410400, Note_on_c, 13, 50, 105
9, 411168, Note_on_c, 13, 50, 0
9, 411168, End_track
10, 0, Start_track
10, 0, Sequencer_specific, 04, 43, 00, 01, 00
10, 0, Program_c, 14, 43
10, 0, Control_c, 14, 7, 95
10, 0, Control_c, 14, 10, 90
10, 0, Control_c, 14, 91, 90
10, 1440, Note_on_c, 14, 50, 105
10, 1824, Note_on_c, 14, 50, 0
10, 1920, Note_on_c, 14, 38, 105
10, 2304, Note_on_c, 14, 38, 0
10, 2880, Note_on_c, 14, 49, 105
10, 3264, Note_on_c, 14, 49, 0
10, 3360, Note_on_c, 14, 37, 105
10, 3744, Note_on_c, 14, 37, 0
10, 4320, Note_on_c, 14, 47, 105
10, 4584, Note_on_c, 14, 47, 0
10, 4800, Note_on_c, 14, 45, 105
10, 5064, Note_on_c, 14, 45, 0
10, 5280, Note_on_c, 14, 43, 105
10, 5544, Note_on_c, 14, 43, 0
10, 5760, Note_on_c, 14, 45, 105
10, 6048, Note_on_c, 14, 45, 0
10, 6240, Note_on_c, 14, 38, 105
10, 6528, Note_on_c, 14, 38, 0
10, 7200, Note_on_c, 14, 38, 92
10, 7584, Note_on_c, 14, 38, 0
10, 8640, Note_on_c, 14, 38, 92
10, 9024, Note_on_c, 14, 38, 0
10, 10080, Note_on_c, 14, 43, 105
10, 10464, Note_on_c, 14, 43, 0
10, 10560, Note_on_c, 14, 45, 105
10, 10944, Note_on_c, 14, 45, 0
10, 11040, Note_on_c, 14, 33, 105
10, 11424, Note_on_c, 14, 33, 0
10, 11520, Note_on_c, 14, 50, 105
10, 11640, Note_on_c, 14, 50, 0
10, 11640, Note_on_c, 14, 49, 105
10, 11760, Note_on_c, 14, 49, 0
10, 11760, Note_on_c, 14, 47, 105
10, 11880, Note_on_c, 14, 47, 0
10, 11880, Note_on_c, 14, 45, 105
10, 11976, Note_on_c, 14, 45, 0
10, 12000, Note_on_c, 14, 50, 105
10, 12120, Note_on_c, 14, 50, 0
10, 12120, Note_on_c, 14, 49, 105
10, 12240, Note_on_c, 14, 49, 0
10, 12240, Note_on_c, 14, 47, 105
10, 12360, Note_on_c, 14, 47, 0
10, 12360, Note_on_c, 14, 45, 105
10, 12456, Note_on_c, 14, 45, 0
10, 12480, Note_on_c, 14, 50, 105
10, 12864, Note_on_c, 14, 50, 0
10, 12960, Note_on_c, 14, 38, 92
10, 13344, Note_on_c, 14, 38, 0
10, 14400, Note_on_c, 14, 38, 92
10, 14784, Note_on_c, 14, 38, 0
10, 15840, Note_on_c, 14, 43, 92
10, 16128, Note_on_c, 14, 43, 0
10, 16320, Note_on_c, 14, 45, 105
10, 16608, Note_on_c, 14, 45, 0
10, 16800, Note_on_c, 14, 33, 105
10, 17088, Note_on_c, 14, 33, 0
10, 17520, Note_on_c, 14, 50, 105
10, 17712, Note_on_c, 14, 50, 0
10, 17760, Note_on_c, 14, 45, 105
10, 17952, Note_on_c, 14, 45, 0
10, 18000, Note_on_c, 14, 42, 105
10, 18192, Note_on_c, 14, 42, 0
10, 18240, Note_on_c, 14, 38, 105
10, 18624, Note_on_c, 14, 38, 0
10, 18960, Note_on_c, 14, 45, 105
10, 19152, Note_on_c, 14, 45, 0
10, 19200, Note_on_c, 14, 38, 105
10, 19392, Note_on_c, 14, 38, 0
10, 19440, Note_on_c, 14, 50, 105
10, 19632, Note_on_c, 14, 50, 0
10, 19680, Note_on_c, 14, 38, 105
10, 20064, Note_on_c, 14, 38, 0
10, 20400, Note_on_c, 14, 33, 105
10, 20592, Note_on_c, 14, 33, 0
10, 20640, Note_on_c, 14, 37, 105
10, 20832, Note_on_c, 14, 37, 0
10, 20880, Note_on_c, 14, 40, 105
10, 21072, Note_on_c, 14, 40, 0
10, 21120, Note_on_c, 14, 45, 105
10, 21504, Note_on_c, 14, 45, 0
10, 21840, Note_on_c, 14, 45, 105
10, 22032, Note_on_c, 14, 45, 0
10, 22080, Note_on_c, 14, 49, 105
10, 22272, Note_on_c, 14, 49, 0
10, 22320, Note_on_c, 14, 40, 105
10, 22512, Note_on_c, 14, 40, 0
10, 22560, Note_on_c, 14, 45, 105
10, 22944, Note_on_c, 14, 45, 0
10, 23280, Note_on_c, 14, 52, 105
10, 23472, Note_on_c, 14, 52, 0
10, 23520, Note_on_c, 14, 47, 105
10, 23712, Note_on_c, 14, 47, 0
10, 23760, Note_on_c, 14, 44, 105
10, 23952, Note_on_c, 14, 44, 0
10, 24000, Note_on_c, 14, 40, 105
10, 24384, Note_on_c, 14, 40, 0
10, 24720, Note_on_c, 14, 44, 105
10, 24912, Note_on_c, 14, 44, 0
10, 24960, Note_on_c, 14, 40, 105
10, 25152, Note_on_c, 14, 40, 0
10, 25200, Note_on_c, 14, 47, 105
10, 25392, Note_on_c, 14, 47, 0
10, 25440, Note_on_c, 14, 38, 105
10, 25824, Note_on_c, 14, 38, 0
10, 25920, Note_on_c, 14, 37, 105
10, 26112, Note_on_c, 14, 37, 0
10, 26160, Note_on_c, 14, 45, 105
10, 26352, Note_on_c, 14, 45, 0
10, 26400, Note_on_c, 14, 42, 105
10, 26592, Note_on_c, 14, 42, 0
10, 26640, Note_on_c, 14, 40, 105
10, 26832, Note_on_c, 14, 40, 0
10, 26880, Note_on_c, 14, 38, 105
10, 27264, Note_on_c, 14, 38, 0
10, 27360, Note_on_c, 14, 40, 105
10, 27744, Note_on_c, 14, 40, 0
10, 29040, Note_on_c, 14, 45, 105
10, 29232, Note_on_c, 14, 45, 0
10, 29280, Note_on_c, 14, 42, 105
10, 29472, Note_on_c, 14, 42, 0
10, 29520, Note_on_c, 14, 40, 105
10, 29712, Note_on_c, 14, 40, 0
10, 29760, Note_on_c, 14, 38, 105
10, 30144, Note_on_c, 14, 38, 0
10, 30240, Note_on_c, 14, 40, 105
10, 30624, Note_on_c, 14, 40, 0
10, 31920, Note_on_c, 14, 45, 105
10, 32112, Note_on_c, 14, 45, 0
10, 32160, Note_on_c, 14, 42, 105
10, 32352, Note_on_c, 14, 42, 0
10, 32400, Note_on_c, 14, 40, 105
10, 32592, Note_on_c, 14, 40, 0
10, 32640, Note_on_c, 14, 38, 125
10, 32880, Note_on_c, 14, 38, 0
10, 32880, Note_on_c, 14, 39, 105
10, 33072, Note_on_c, 14, 39, 0
10, 33120, Note_on_c, 14, 40, 105
10, 33312, Note_on_c, 14, 40, 0
10, 33360, Note_on_c, 14, 52, 105
10, 33552, Note_on_c, 14, 52, 0
10, 33600, Note_on_c, 14, 52, 105
10, 33792, Note_on_c, 14, 52, 0
10, 33840, Note_on_c, 14, 52, 105
10, 34032, Note_on_c, 14, 52, 0
10, 34080, Note_on_c, 14, 52, 105
10, 34272, Note_on_c, 14, 52, 0
10, 34320, Note_on_c, 14, 52, 105
10, 34512, Note_on_c, 14, 52, 0
10, 34560, Note_on_c, 14, 40, 105
10, 34752, Note_on_c, 14, 40, 0
10, 34800, Note_on_c, 14, 52, 105
10, 34992, Note_on_c, 14, 52, 0
10, 35040, Note_on_c, 14, 52, 105
10, 35232, Note_on_c, 14, 52, 0
10, 35280, Note_on_c, 14, 52, 105
10, 35472, Note_on_c, 14, 52, 0
10, 35520, Note_on_c, 14, 52, 105
10, 35712, Note_on_c, 14, 52, 0
10, 35760, Note_on_c, 14, 52, 105
10, 35952, Note_on_c, 14, 52, 0
10, 36000, Note_on_c, 14, 52, 105
10, 36288, Note_on_c, 14, 52, 0
10, 36480, Note_on_c, 14, 52, 105
10, 36540, Note_on_c, 14, 52, 0
10, 36540, Note_on_c, 14, 51, 105
10, 36600, Note_on_c, 14, 51, 0
10, 36600, Note_on_c, 14, 52, 105
10, 36660, Note_on_c, 14, 52, 0
10, 36660, Note_on_c, 14, 51, 105
10, 36720, Note_on_c, 14, 51, 0
10, 36720, Note_on_c, 14, 52, 105
10, 36780, Note_on_c, 14, 52, 0
10, 36780, Note_on_c, 14, 51, 105
10, 36840, Note_on_c, 14, 51, 0
10, 36840, Note_on_c, 14, 52, 105
10, 36900, Note_on_c, 14, 52, 0
10, 36900, Note_on_c, 14, 51, 105
10, 36960, Note_on_c, 14, 51, 0
10, 36960, Note_on_c, 14, 52, 105
10, 37020, Note_on_c, 14, 52, 0
10, 37020, Note_on_c, 14, 51, 105
10, 37080, Note_on_c, 14, 51, 0
10, 37080, Note_on_c, 14, 52, 105
10, 37140, Note_on_c, 14, 52, 0
10, 37140, Note_on_c, 14, 51, 105
10, 37200, Note_on_c, 14, 51, 0
10, 37200, Note_on_c, 14, 49, 105
10, 37320, Note_on_c, 14, 49, 0
10, 37320, Note_on_c, 14, 51, 105
10, 37440, Note_on_c, 14, 51, 0
10, 37440, Note_on_c, 14, 52, 105
10, 37728, Note_on_c, 14, 52, 0
10, 37920, Note_on_c, 14, 40, 80
10, 38208, Note_on_c, 14, 40, 0
10, 38880, Note_on_c, 14, 45, 58
10, 39264, Note_on_c, 14, 45, 0
10, 40320, Note_on_c, 14, 40, 58
10, 40704, Note_on_c, 14, 40, 0
10, 41760, Note_on_c, 14, 33, 58
10, 42144, Note_on_c, 14, 33, 0
10, 43200, Note_on_c, 14, 32, 58
10, 43584, Note_on_c, 14, 32, 0
10, 44640, Note_on_c, 14, 33, 58
10, 45024, Note_on_c, 14, 33, 0
10, 46080, Note_on_c, 14, 32, 58
10, 47040, Note_on_c, 14, 32, 0
10, 47040, Note_on_c, 14, 33, 58
10, 47520, Note_on_c, 14, 33, 0
10, 47520, Note_on_c, 14, 38, 58
10, 47904, Note_on_c, 14, 38, 0
10, 48480, Note_on_c, 14, 50, 58
10, 48864, Note_on_c, 14, 50, 0
10, 48960, Note_on_c, 14, 49, 58
10, 49920, Note_on_c, 14, 49, 0
10, 49920, Note_on_c, 14, 50, 58
10, 50400, Note_on_c, 14, 50, 0
10, 50400, Note_on_c, 14, 52, 58
10, 51360, Note_on_c, 14, 52, 0
10, 51360, Note_on_c, 14, 40, 58
10, 51840, Note_on_c, 14, 40, 0
10, 51840, Note_on_c, 14, 33, 58
10, 52128, Note_on_c, 14, 33, 0
10, 52320, Note_on_c, 14, 45, 92
10, 52380, Note_on_c, 14, 45, 0
10, 52380, Note_on_c, 14, 44, 92
10, 52440, Note_on_c, 14, 44, 0
10, 52440, Note_on_c, 14, 45, 92
10, 52500, Note_on_c, 14, 45, 0
10, 52500, Note_on_c, 14, 44, 92
10, 52560, Note_on_c, 14, 44, 0
10, 52560, Note_on_c, 14, 45, 92
10, 52620, Note_on_c, 14, 45, 0
10, 52620, Note_on_c, 14, 44, 92
10, 52680, Note_on_c, 14, 44, 0
10, 52680, Note_on_c, 14, 45, 92
10, 52740, Note_on_c, 14, 45, 0
10, 52740, Note_on_c, 14, 44, 92
10, 52800, Note_on_c, 14, 44, 0
10, 52800, Note_on_c, 14, 45, 92
10, 52860, Note_on_c, 14, 45, 0
10, 52860, Note_on_c, 14, 44, 92
10, 52920, Note_on_c, 14, 44, 0
10, 52920, Note_on_c, 14, 45, 92
10, 52980, Note_on_c, 14, 45, 0
10, 52980, Note_on_c, 14, 44, 92
10, 53040, Note_on_c, 14, 44, 0
10, 53040, Note_on_c, 14, 42, 92
10, 53160, Note_on_c, 14, 42, 0
10, 53160, Note_on_c, 14, 44, 92
10, 53280, Note_on_c, 14, 44, 0
10, 53280, Note_on_c, 14, 45, 92
10, 53568, Note_on_c, 14, 45, 0
10, 53760, Note_on_c, 14, 33, 70
10, 54048, Note_on_c, 14, 33, 0
10, 54720, Note_on_c, 14, 40, 58
10, 55104, Note_on_c, 14, 40, 0
10, 55200, Note_on_c, 14, 28, 58
10, 55584, Note_on_c, 14, 28, 0
10, 56160, Note_on_c, 14, 33, 58
10, 56544, Note_on_c, 14, 33, 0
10, 57600, Note_on_c, 14, 32, 58
10, 57984, Note_on_c, 14, 32, 0
10, 59040, Note_on_c, 14, 33, 58
10, 59424, Note_on_c, 14, 33, 0
10, 60480, Note_on_c, 14, 32, 58
10, 61440, Note_on_c, 14, 32, 0
10, 61440, Note_on_c, 14, 33, 58
10, 61920, Note_on_c, 14, 33, 0
10, 61920, Note_on_c, 14, 38, 58
10, 62304, Note_on_c, 14, 38, 0
10, 62880, Note_on_c, 14, 50, 58
10, 63264, Note_on_c, 14, 50, 0
10, 63360, Note_on_c, 14, 49, 58
10, 64272, Note_on_c, 14, 49, 0
10, 64320, Note_on_c, 14, 50, 58
10, 65256, Note_on_c, 14, 50, 0
10, 65280, Note_on_c, 14, 51, 58
10, 66192, Note_on_c, 14, 51, 0
10, 66240, Note_on_c, 14, 52, 58
10, 66624, Note_on_c, 14, 52, 0
10, 72480, Note_on_c, 14, 40, 58
10, 72864, Note_on_c, 14, 40, 0
10, 72960, Note_on_c, 14, 28, 58
10, 73344, Note_on_c, 14, 28, 0
10, 73440, Note_on_c, 14, 47, 105
10, 73500, Note_on_c, 14, 47, 0
10, 73500, Note_on_c, 14, 45, 105
10, 73560, Note_on_c, 14, 45, 0
10, 73560, Note_on_c, 14, 47, 105
10, 73620, Note_on_c, 14, 47, 0
10, 73620, Note_on_c, 14, 45, 105
10, 73680, Note_on_c, 14, 45, 0
10, 73680, Note_on_c, 14, 47, 105
10, 73740, Note_on_c, 14, 47, 0
10, 73740, Note_on_c, 14, 45, 105
10, 73800, Note_on_c, 14, 45, 0
10, 73800, Note_on_c, 14, 47, 105
10, 73860, Note_on_c, 14, 47, 0
10, 73860, Note_on_c, 14, 45, 105
10, 73920, Note_on_c, 14, 45, 0
10, 73920, Note_on_c, 14, 47, 105
10, 73980, Note_on_c, 14, 47, 0
10, 73980, Note_on_c, 14, 45, 105
10, 74040, Note_on_c, 14, 45, 0
10, 74040, Note_on_c, 14, 47, 105
10, 74100, Note_on_c, 14, 47, 0
10, 74100, Note_on_c, 14, 45, 105
10, 74160, Note_on_c, 14, 45, 0
10, 74160, Note_on_c, 14, 44, 105
10, 74280, Note_on_c, 14, 44, 0
10, 74280, Note_on_c, 14, 45, 105
10, 74400, Note_on_c, 14, 45, 0
10, 74400, Note_on_c, 14, 33, 105
10, 74784, Note_on_c, 14, 33, 0
10, 76320, Note_on_c, 14, 54, 105
10, 76380, Note_on_c, 14, 54, 0
10, 76380, Note_on_c, 14, 52, 105
10, 76440, Note_on_c, 14, 52, 0
10, 76440, Note_on_c, 14, 54, 105
10, 76500, Note_on_c, 14, 54, 0
10, 76500, Note_on_c, 14, 52, 105
10, 76560, Note_on_c, 14, 52, 0
10, 76560, Note_on_c, 14, 54, 105
10, 76620, Note_on_c, 14, 54, 0
10, 76620, Note_on_c, 14, 52, 105
10, 76680, Note_on_c, 14, 52, 0
10, 76680, Note_on_c, 14, 54, 105
10, 76740, Note_on_c, 14, 54, 0
10, 76740, Note_on_c, 14, 52, 105
10, 76800, Note_on_c, 14, 52, 0
10, 76800, Note_on_c, 14, 54, 105
10, 76860, Note_on_c, 14, 54, 0
10, 76860, Note_on_c, 14, 52, 105
10, 76920, Note_on_c, 14, 52, 0
10, 76920, Note_on_c, 14, 54, 105
10, 76980, Note_on_c, 14, 54, 0
10, 76980, Note_on_c, 14, 52, 105
10, 77040, Note_on_c, 14, 52, 0
10, 77040, Note_on_c, 14, 51, 105
10, 77160, Note_on_c, 14, 51, 0
10, 77160, Note_on_c, 14, 52, 105
10, 77280, Note_on_c, 14, 52, 0
10, 77280, Note_on_c, 14, 40, 105
10, 77664, Note_on_c, 14, 40, 0
10, 79200, Note_on_c, 14, 47, 105
10, 79260, Note_on_c, 14, 47, 0
10, 79260, Note_on_c, 14, 45, 105
10, 79320, Note_on_c, 14, 45, 0
10, 79320, Note_on_c, 14, 47, 105
10, 79380, Note_on_c, 14, 47, 0
10, 79380, Note_on_c, 14, 45, 105
10, 79440, Note_on_c, 14, 45, 0
10, 79440, Note_on_c, 14, 47, 105
10, 79500, Note_on_c, 14, 47, 0
10, 79500, Note_on_c, 14, 45, 105
10, 79560, Note_on_c, 14, 45, 0
10, 79560, Note_on_c, 14, 47, 105
10, 79620, Note_on_c, 14, 47, 0
10, 79620, Note_on_c, 14, 45, 105
10, 79680, Note_on_c, 14, 45, 0
10, 79680, Note_on_c, 14, 47, 105
10, 79740, Note_on_c, 14, 47, 0
10, 79740, Note_on_c, 14, 45, 105
10, 79800, Note_on_c, 14, 45, 0
10, 79800, Note_on_c, 14, 47, 105
10, 79860, Note_on_c, 14, 47, 0
10, 79860, Note_on_c, 14, 45, 105
10, 79920, Note_on_c, 14, 45, 0
10, 79920, Note_on_c, 14, 44, 105
10, 80040, Note_on_c, 14, 44, 0
10, 80040, Note_on_c, 14, 45, 105
10, 80160, Note_on_c, 14, 45, 0
10, 80160, Note_on_c, 14, 33, 105
10, 80544, Note_on_c, 14, 33, 0
10, 82080, Note_on_c, 14, 47, 105
10, 82140, Note_on_c, 14, 47, 0
10, 82140, Note_on_c, 14, 45, 105
10, 82200, Note_on_c, 14, 45, 0
10, 82200, Note_on_c, 14, 47, 105
10, 82260, Note_on_c, 14, 47, 0
10, 82260, Note_on_c, 14, 45, 105
10, 82320, Note_on_c, 14, 45, 0
10, 82320, Note_on_c, 14, 47, 105
10, 82380, Note_on_c, 14, 47, 0
10, 82380, Note_on_c, 14, 45, 105
10, 82440, Note_on_c, 14, 45, 0
10, 82440, Note_on_c, 14, 47, 105
10, 82500, Note_on_c, 14, 47, 0
10, 82500, Note_on_c, 14, 45, 105
10, 82560, Note_on_c, 14, 45, 0
10, 82560, Note_on_c, 14, 47, 105
10, 82620, Note_on_c, 14, 47, 0
10, 82620, Note_on_c, 14, 45, 105
10, 82680, Note_on_c, 14, 45, 0
10, 82680, Note_on_c, 14, 47, 105
10, 82740, Note_on_c, 14, 47, 0
10, 82740, Note_on_c, 14, 45, 105
10, 82800, Note_on_c, 14, 45, 0
10, 82800, Note_on_c, 14, 44, 105
10, 82920, Note_on_c, 14, 44, 0
10, 82920, Note_on_c, 14, 45, 105
10, 83040, Note_on_c, 14, 45, 0
10, 83040, Note_on_c, 14, 33, 105
10, 83424, Note_on_c, 14, 33, 0
10, 84960, Note_on_c, 14, 47, 105
10, 85020, Note_on_c, 14, 47, 0
10, 85020, Note_on_c, 14, 45, 105
10, 85080, Note_on_c, 14, 45, 0
10, 85080, Note_on_c, 14, 47, 105
10, 85140, Note_on_c, 14, 47, 0
10, 85140, Note_on_c, 14, 45, 105
10, 85200, Note_on_c, 14, 45, 0
10, 85200, Note_on_c, 14, 47, 105
10, 85260, Note_on_c, 14, 47, 0
10, 85260, Note_on_c, 14, 45, 105
10, 85320, Note_on_c, 14, 45, 0
10, 85320, Note_on_c, 14, 47, 105
10, 85380, Note_on_c, 14, 47, 0
10, 85380, Note_on_c, 14, 45, 105
10, 85440, Note_on_c, 14, 45, 0
10, 85440, Note_on_c, 14, 47, 105
10, 85500, Note_on_c, 14, 47, 0
10, 85500, Note_on_c, 14, 45, 105
10, 85560, Note_on_c, 14, 45, 0
10, 85560, Note_on_c, 14, 47, 105
10, 85620, Note_on_c, 14, 47, 0
10, 85620, Note_on_c, 14, 45, 105
10, 85680, Note_on_c, 14, 45, 0
10, 85680, Note_on_c, 14, 44, 105
10, 85800, Note_on_c, 14, 44, 0
10, 85800, Note_on_c, 14, 45, 105
10, 85920, Note_on_c, 14, 45, 0
10, 85920, Note_on_c, 14, 33, 105
10, 86304, Note_on_c, 14, 33, 0
10, 86880, Note_on_c, 14, 45, 105
10, 87168, Note_on_c, 14, 45, 0
10, 87360, Note_on_c, 14, 46, 105
10, 87648, Note_on_c, 14, 46, 0
10, 87840, Note_on_c, 14, 47, 105
10, 88104, Note_on_c, 14, 47, 0
10, 88320, Note_on_c, 14, 44, 105
10, 88584, Note_on_c, 14, 44, 0
10, 88800, Note_on_c, 14, 45, 105
10, 89064, Note_on_c, 14, 45, 0
10, 89280, Note_on_c, 14, 42, 105
10, 89544, Note_on_c, 14, 42, 0
10, 89760, Note_on_c, 14, 38, 105
10, 90024, Note_on_c, 14, 38, 0
10, 90240, Note_on_c, 14, 40, 105
10, 90504, Note_on_c, 14, 40, 0
10, 90720, Note_on_c, 14, 33, 58
10, 99360, Note_on_c, 14, 33, 0
10, 99360, Note_on_c, 14, 38, 58
10, 99648, Note_on_c, 14, 38, 0
10, 100800, Note_on_c, 14, 40, 58
10, 101088, Note_on_c, 14, 40, 0
10, 102240, Note_on_c, 14, 45, 105
10, 102528, Note_on_c, 14, 45, 0
10, 102720, Note_on_c, 14, 49, 105
10, 103008, Note_on_c, 14, 49, 0
10, 103200, Note_on_c, 14, 42, 105
10, 103488, Note_on_c, 14, 42, 0
10, 103680, Note_on_c, 14, 45, 105
10, 103968, Note_on_c, 14, 45, 0
10, 104160, Note_on_c, 14, 39, 105
10, 104448, Note_on_c, 14, 39, 0
10, 104640, Note_on_c, 14, 42, 105
10, 104928, Note_on_c, 14, 42, 0
10, 105120, Note_on_c, 14, 40, 105
10, 105312, Note_on_c, 14, 40, 0
10, 105360, Note_on_c, 14, 40, 105
10, 105552, Note_on_c, 14, 40, 0
10, 105600, Note_on_c, 14, 40, 105
10, 105792, Note_on_c, 14, 40, 0
10, 105840, Note_on_c, 14, 40, 105
10, 106032, Note_on_c, 14, 40, 0
10, 106080, Note_on_c, 14, 40, 105
10, 106272, Note_on_c, 14, 40, 0
10, 106320, Note_on_c, 14, 40, 105
10, 106512, Note_on_c, 14, 40, 0
10, 106560, Note_on_c, 14, 40, 105
10, 106752, Note_on_c, 14, 40, 0
10, 106800, Note_on_c, 14, 40, 105
10, 106992, Note_on_c, 14, 40, 0
10, 107040, Note_on_c, 14, 40, 105
10, 107232, Note_on_c, 14, 40, 0
10, 107280, Note_on_c, 14, 40, 105
10, 107472, Note_on_c, 14, 40, 0
10, 107520, Note_on_c, 14, 40, 105
10, 107712, Note_on_c, 14, 40, 0
10, 107760, Note_on_c, 14, 40, 105
10, 107952, Note_on_c, 14, 40, 0
10, 108000, Note_on_c, 14, 33, 105
10, 108384, Note_on_c, 14, 33, 0
10, 108720, Note_on_c, 14, 45, 105
10, 108924, Note_on_c, 14, 45, 0
10, 108960, Note_on_c, 14, 49, 105
10, 109164, Note_on_c, 14, 49, 0
10, 109200, Note_on_c, 14, 52, 105
10, 109404, Note_on_c, 14, 52, 0
10, 109440, Note_on_c, 14, 33, 105
10, 109824, Note_on_c, 14, 33, 0
10, 110160, Note_on_c, 14, 45, 105
10, 110364, Note_on_c, 14, 45, 0
10, 110400, Note_on_c, 14, 49, 105
10, 110604, Note_on_c, 14, 49, 0
10, 110640, Note_on_c, 14, 52, 105
10, 110844, Note_on_c, 14, 52, 0
10, 110880, Note_on_c, 14, 33, 105
10, 111264, Note_on_c, 14, 33, 0
10, 111600, Note_on_c, 14, 45, 105
10, 111804, Note_on_c, 14, 45, 0
10, 111840, Note_on_c, 14, 49, 105
10, 112044, Note_on_c, 14, 49, 0
10, 112080, Note_on_c, 14, 52, 105
10, 112284, Note_on_c, 14, 52, 0
10, 112320, Note_on_c, 14, 45, 105
10, 112608, Note_on_c, 14, 45, 0
10, 112800, Note_on_c, 14, 33, 80
10, 113088, Note_on_c, 14, 33, 0
10, 113760, Note_on_c, 14, 50, 105
10, 114144, Note_on_c, 14, 50, 0
10, 114240, Note_on_c, 14, 38, 105
10, 114624, Note_on_c, 14, 38, 0
10, 115200, Note_on_c, 14, 49, 105
10, 115584, Note_on_c, 14, 49, 0
10, 115680, Note_on_c, 14, 37, 105
10, 116064, Note_on_c, 14, 37, 0
10, 116640, Note_on_c, 14, 47, 105
10, 116904, Note_on_c, 14, 47, 0
10, 117120, Note_on_c, 14, 45, 105
10, 117384, Note_on_c, 14, 45, 0
10, 117600, Note_on_c, 14, 43, 105
10, 117864, Note_on_c, 14, 43, 0
10, 118080, Note_on_c, 14, 45, 105
10, 118368, Note_on_c, 14, 45, 0
10, 118560, Note_on_c, 14, 38, 105
10, 118848, Note_on_c, 14, 38, 0
10, 119520, Note_on_c, 14, 38, 92
10, 119904, Note_on_c, 14, 38, 0
10, 120960, Note_on_c, 14, 38, 92
10, 121344, Note_on_c, 14, 38, 0
10, 122400, Note_on_c, 14, 43, 105
10, 122784, Note_on_c, 14, 43, 0
10, 122880, Note_on_c, 14, 45, 105
10, 123264, Note_on_c, 14, 45, 0
10, 123360, Note_on_c, 14, 33, 105
10, 123744, Note_on_c, 14, 33, 0
10, 123840, Note_on_c, 14, 50, 105
10, 123960, Note_on_c, 14, 50, 0
10, 123960, Note_on_c, 14, 49, 105
10, 124080, Note_on_c, 14, 49, 0
10, 124080, Note_on_c, 14, 47, 105
10, 124200, Note_on_c, 14, 47, 0
10, 124200, Note_on_c, 14, 45, 105
10, 124296, Note_on_c, 14, 45, 0
10, 124320, Note_on_c, 14, 50, 105
10, 124440, Note_on_c, 14, 50, 0
10, 124440, Note_on_c, 14, 49, 105
10, 124560, Note_on_c, 14, 49, 0
10, 124560, Note_on_c, 14, 47, 105
10, 124680, Note_on_c, 14, 47, 0
10, 124680, Note_on_c, 14, 45, 105
10, 124776, Note_on_c, 14, 45, 0
10, 124800, Note_on_c, 14, 50, 105
10, 125184, Note_on_c, 14, 50, 0
10, 125280, Note_on_c, 14, 38, 92
10, 125664, Note_on_c, 14, 38, 0
10, 126720, Note_on_c, 14, 38, 92
10, 127104, Note_on_c, 14, 38, 0
10, 128160, Note_on_c, 14, 43, 92
10, 128448, Note_on_c, 14, 43, 0
10, 128640, Note_on_c, 14, 45, 105
10, 128928, Note_on_c, 14, 45, 0
10, 129120, Note_on_c, 14, 33, 105
10, 129408, Note_on_c, 14, 33, 0
10, 129840, Note_on_c, 14, 50, 105
10, 130032, Note_on_c, 14, 50, 0
10, 130080, Note_on_c, 14, 45, 105
10, 130272, Note_on_c, 14, 45, 0
10, 130320, Note_on_c, 14, 42, 105
10, 130512, Note_on_c, 14, 42, 0
10, 130560, Note_on_c, 14, 38, 105
10, 130944, Note_on_c, 14, 38, 0
10, 131280, Note_on_c, 14, 45, 105
10, 131472, Note_on_c, 14, 45, 0
10, 131520, Note_on_c, 14, 38, 105
10, 131712, Note_on_c, 14, 38, 0
10, 131760, Note_on_c, 14, 50, 105
10, 131952, Note_on_c, 14, 50, 0
10, 132000, Note_on_c, 14, 38, 105
10, 132384, Note_on_c, 14, 38, 0
10, 132720, Note_on_c, 14, 33, 105
10, 132912, Note_on_c, 14, 33, 0
10, 132960, Note_on_c, 14, 37, 105
10, 133152, Note_on_c, 14, 37, 0
10, 133200, Note_on_c, 14, 40, 105
10, 133392, Note_on_c, 14, 40, 0
10, 133440, Note_on_c, 14, 45, 105
10, 133824, Note_on_c, 14, 45, 0
10, 134160, Note_on_c, 14, 45, 105
10, 134352, Note_on_c, 14, 45, 0
10, 134400, Note_on_c, 14, 49, 105
10, 134592, Note_on_c, 14, 49, 0
10, 134640, Note_on_c, 14, 40, 105
10, 134832, Note_on_c, 14, 40, 0
10, 134880, Note_on_c, 14, 45, 105
10, 135264, Note_on_c, 14, 45, 0
10, 135600, Note_on_c, 14, 52, 105
10, 135792, Note_on_c, 14, 52, 0
10, 135840, Note_on_c, 14, 47, 105
10, 136032, Note_on_c, 14, 47, 0
10, 136080, Note_on_c, 14, 44, 105
10, 136272, Note_on_c, 14, 44, 0
10, 136320, Note_on_c, 14, 40, 105
10, 136704, Note_on_c, 14, 40, 0
10, 137040, Note_on_c, 14, 44, 105
10, 137232, Note_on_c, 14, 44, 0
10, 137280, Note_on_c, 14, 40, 105
10, 137472, Note_on_c, 14, 40, 0
10, 137520, Note_on_c, 14, 47, 105
10, 137712, Note_on_c, 14, 47, 0
10, 137760, Note_on_c, 14, 38, 105
10, 138144, Note_on_c, 14, 38, 0
10, 138240, Note_on_c, 14, 37, 105
10, 138432, Note_on_c, 14, 37, 0
10, 138480, Note_on_c, 14, 45, 105
10, 138672, Note_on_c, 14, 45, 0
10, 138720, Note_on_c, 14, 42, 105
10, 138912, Note_on_c, 14, 42, 0
10, 138960, Note_on_c, 14, 40, 105
10, 139152, Note_on_c, 14, 40, 0
10, 139200, Note_on_c, 14, 38, 105
10, 139584, Note_on_c, 14, 38, 0
10, 139680, Note_on_c, 14, 40, 105
10, 140064, Note_on_c, 14, 40, 0
10, 141360, Note_on_c, 14, 45, 105
10, 141552, Note_on_c, 14, 45, 0
10, 141600, Note_on_c, 14, 42, 105
10, 141792, Note_on_c, 14, 42, 0
10, 141840, Note_on_c, 14, 40, 105
10, 142032, Note_on_c, 14, 40, 0
10, 142080, Note_on_c, 14, 38, 105
10, 142464, Note_on_c, 14, 38, 0
10, 142560, Note_on_c, 14, 40, 105
10, 142944, Note_on_c, 14, 40, 0
10, 144240, Note_on_c, 14, 45, 105
10, 144432, Note_on_c, 14, 45, 0
10, 144480, Note_on_c, 14, 42, 105
10, 144672, Note_on_c, 14, 42, 0
10, 144720, Note_on_c, 14, 40, 105
10, 144912, Note_on_c, 14, 40, 0
10, 144960, Note_on_c, 14, 38, 125
10, 145200, Note_on_c, 14, 38, 0
10, 145200, Note_on_c, 14, 39, 105
10, 145392, Note_on_c, 14, 39, 0
10, 145440, Note_on_c, 14, 40, 105
10, 145632, Note_on_c, 14, 40, 0
10, 145680, Note_on_c, 14, 52, 105
10, 145872, Note_on_c, 14, 52, 0
10, 145920, Note_on_c, 14, 52, 105
10, 146112, Note_on_c, 14, 52, 0
10, 146160, Note_on_c, 14, 52, 105
10, 146352, Note_on_c, 14, 52, 0
10, 146400, Note_on_c, 14, 52, 105
10, 146592, Note_on_c, 14, 52, 0
10, 146640, Note_on_c, 14, 52, 105
10, 146832, Note_on_c, 14, 52, 0
10, 146880, Note_on_c, 14, 40, 105
10, 147072, Note_on_c, 14, 40, 0
10, 147120, Note_on_c, 14, 52, 105
10, 147312, Note_on_c, 14, 52, 0
10, 147360, Note_on_c, 14, 52, 105
10, 147552, Note_on_c, 14, 52, 0
10, 147600, Note_on_c, 14, 52, 105
10, 147792, Note_on_c, 14, 52, 0
10, 147840, Note_on_c, 14, 52, 105
10, 148032, Note_on_c, 14, 52, 0
10, 148080, Note_on_c, 14, 52, 105
10, 148272, Note_on_c, 14, 52, 0
10, 148320, Note_on_c, 14, 52, 105
10, 148608, Note_on_c, 14, 52, 0
10, 148800, Note_on_c, 14, 52, 105
10, 148860, Note_on_c, 14, 52, 0
10, 148860, Note_on_c, 14, 51, 105
10, 148920, Note_on_c, 14, 51, 0
10, 148920, Note_on_c, 14, 52, 105
10, 148980, Note_on_c, 14, 52, 0
10, 148980, Note_on_c, 14, 51, 105
10, 149040, Note_on_c, 14, 51, 0
10, 149040, Note_on_c, 14, 52, 105
10, 149100, Note_on_c, 14, 52, 0
10, 149100, Note_on_c, 14, 51, 105
10, 149160, Note_on_c, 14, 51, 0
10, 149160, Note_on_c, 14, 52, 105
10, 149220, Note_on_c, 14, 52, 0
10, 149220, Note_on_c, 14, 51, 105
10, 149280, Note_on_c, 14, 51, 0
10, 149280, Note_on_c, 14, 52, 105
10, 149340, Note_on_c, 14, 52, 0
10, 149340, Note_on_c, 14, 51, 105
10, 149400, Note_on_c, 14, 51, 0
10, 149400, Note_on_c, 14, 52, 105
10, 149460, Note_on_c, 14, 52, 0
10, 149460, Note_on_c, 14, 51, 105
10, 149520, Note_on_c, 14, 51, 0
10, 149520, Note_on_c, 14, 49, 105
10, 149640, Note_on_c, 14, 49, 0
10, 149640, Note_on_c, 14, 51, 105
10, 149760, Note_on_c, 14, 51, 0
10, 149760, Note_on_c, 14, 52, 105
10, 150048, Note_on_c, 14, 52, 0
10, 150240, Note_on_c, 14, 40, 80
10, 150528, Note_on_c, 14, 40, 0
10, 151200, Note_on_c, 14, 45, 58
10, 151584, Note_on_c, 14, 45, 0
10, 152640, Note_on_c, 14, 40, 58
10, 153024, Note_on_c, 14, 40, 0
10, 154080, Note_on_c, 14, 33, 58
10, 154464, Note_on_c, 14, 33, 0
10, 155520, Note_on_c, 14, 32, 58
10, 155904, Note_on_c, 14, 32, 0
10, 156960, Note_on_c, 14, 33, 58
10, 157344, Note_on_c, 14, 33, 0
10, 158400, Note_on_c, 14, 32, 58
10, 159360, Note_on_c, 14, 32, 0
10, 159360, Note_on_c, 14, 33, 58
10, 159840, Note_on_c, 14, 33, 0
10, 159840, Note_on_c, 14, 38, 58
10, 160224, Note_on_c, 14, 38, 0
10, 160800, Note_on_c, 14, 50, 58
10, 161184, Note_on_c, 14, 50, 0
10, 161280, Note_on_c, 14, 49, 58
10, 162240, Note_on_c, 14, 49, 0
10, 162240, Note_on_c, 14, 50, 58
10, 162720, Note_on_c, 14, 50, 0
10, 162720, Note_on_c, 14, 52, 58
10, 163680, Note_on_c, 14, 52, 0
10, 163680, Note_on_c, 14, 40, 58
10, 164160, Note_on_c, 14, 40, 0
10, 164160, Note_on_c, 14, 33, 58
10, 164448, Note_on_c, 14, 33, 0
10, 164640, Note_on_c, 14, 45, 92
10, 164700, Note_on_c, 14, 45, 0
10, 164700, Note_on_c, 14, 44, 92
10, 164760, Note_on_c, 14, 44, 0
10, 164760, Note_on_c, 14, 45, 92
10, 164820, Note_on_c, 14, 45, 0
10, 164820, Note_on_c, 14, 44, 92
10, 164880, Note_on_c, 14, 44, 0
10, 164880, Note_on_c, 14, 45, 92
10, 164940, Note_on_c, 14, 45, 0
10, 164940, Note_on_c, 14, 44, 92
10, 165000, Note_on_c, 14, 44, 0
10, 165000, Note_on_c, 14, 45, 92
10, 165060, Note_on_c, 14, 45, 0
10, 165060, Note_on_c, 14, 44, 92
10, 165120, Note_on_c, 14, 44, 0
10, 165120, Note_on_c, 14, 45, 92
10, 165180, Note_on_c, 14, 45, 0
10, 165180, Note_on_c, 14, 44, 92
10, 165240, Note_on_c, 14, 44, 0
10, 165240, Note_on_c, 14, 45, 92
10, 165300, Note_on_c, 14, 45, 0
10, 165300, Note_on_c, 14, 44, 92
10, 165360, Note_on_c, 14, 44, 0
10, 165360, Note_on_c, 14, 42, 92
10, 165480, Note_on_c, 14, 42, 0
10, 165480, Note_on_c, 14, 44, 92
10, 165600, Note_on_c, 14, 44, 0
10, 165600, Note_on_c, 14, 45, 92
10, 165888, Note_on_c, 14, 45, 0
10, 166080, Note_on_c, 14, 33, 70
10, 166368, Note_on_c, 14, 33, 0
10, 167040, Note_on_c, 14, 40, 58
10, 167424, Note_on_c, 14, 40, 0
10, 167520, Note_on_c, 14, 28, 58
10, 167904, Note_on_c, 14, 28, 0
10, 168480, Note_on_c, 14, 33, 58
10, 168864, Note_on_c, 14, 33, 0
10, 169920, Note_on_c, 14, 32, 58
10, 170304, Note_on_c, 14, 32, 0
10, 171360, Note_on_c, 14, 33, 58
10, 171744, Note_on_c, 14, 33, 0
10, 172800, Note_on_c, 14, 32, 58
10, 173760, Note_on_c, 14, 32, 0
10, 173760, Note_on_c, 14, 33, 58
10, 174240, Note_on_c, 14, 33, 0
10, 174240, Note_on_c, 14, 38, 58
10, 174624, Note_on_c, 14, 38, 0
10, 175200, Note_on_c, 14, 50, 58
10, 175584, Note_on_c, 14, 50, 0
10, 175680, Note_on_c, 14, 49, 58
10, 176592, Note_on_c, 14, 49, 0
10, 176640, Note_on_c, 14, 50, 58
10, 177576, Note_on_c, 14, 50, 0
10, 177600, Note_on_c, 14, 51, 58
10, 178512, Note_on_c, 14, 51, 0
10, 178560, Note_on_c, 14, 52, 58
10, 178944, Note_on_c, 14, 52, 0
10, 184800, Note_on_c, 14, 40, 58
10, 185184, Note_on_c, 14, 40, 0
10, 185280, Note_on_c, 14, 28, 58
10, 185664, Note_on_c, 14, 28, 0
10, 185760, Note_on_c, 14, 47, 105
10, 185820, Note_on_c, 14, 47, 0
10, 185820, Note_on_c, 14, 45, 105
10, 185880, Note_on_c, 14, 45, 0
10, 185880, Note_on_c, 14, 47, 105
10, 185940, Note_on_c, 14, 47, 0
10, 185940, Note_on_c, 14, 45, 105
10, 186000, Note_on_c, 14, 45, 0
10, 186000, Note_on_c, 14, 47, 105
10, 186060, Note_on_c, 14, 47, 0
10, 186060, Note_on_c, 14, 45, 105
10, 186120, Note_on_c, 14, 45, 0
10, 186120, Note_on_c, 14, 47, 105
10, 186180, Note_on_c, 14, 47, 0
10, 186180, Note_on_c, 14, 45, 105
10, 186240, Note_on_c, 14, 45, 0
10, 186240, Note_on_c, 14, 47, 105
10, 186300, Note_on_c, 14, 47, 0
10, 186300, Note_on_c, 14, 45, 105
10, 186360, Note_on_c, 14, 45, 0
10, 186360, Note_on_c, 14, 47, 105
10, 186420, Note_on_c, 14, 47, 0
10, 186420, Note_on_c, 14, 45, 105
10, 186480, Note_on_c, 14, 45, 0
10, 186480, Note_on_c, 14, 44, 105
10, 186600, Note_on_c, 14, 44, 0
10, 186600, Note_on_c, 14, 45, 105
10, 186720, Note_on_c, 14, 45, 0
10, 186720, Note_on_c, 14, 33, 105
10, 187104, Note_on_c, 14, 33, 0
10, 188640, Note_on_c, 14, 54, 105
10, 188700, Note_on_c, 14, 54, 0
10, 188700, Note_on_c, 14, 52, 105
10, 188760, Note_on_c, 14, 52, 0
10, 188760, Note_on_c, 14, 54, 105
10, 188820, Note_on_c, 14, 54, 0
10, 188820, Note_on_c, 14, 52, 105
10, 188880, Note_on_c, 14, 52, 0
10, 188880, Note_on_c, 14, 54, 105
10, 188940, Note_on_c, 14, 54, 0
10, 188940, Note_on_c, 14, 52, 105
10, 189000, Note_on_c, 14, 52, 0
10, 189000, Note_on_c, 14, 54, 105
10, 189060, Note_on_c, 14, 54, 0
10, 189060, Note_on_c, 14, 52, 105
10, 189120, Note_on_c, 14, 52, 0
10, 189120, Note_on_c, 14, 54, 105
10, 189180, Note_on_c, 14, 54, 0
10, 189180, Note_on_c, 14, 52, 105
10, 189240, Note_on_c, 14, 52, 0
10, 189240, Note_on_c, 14, 54, 105
10, 189300, Note_on_c, 14, 54, 0
10, 189300, Note_on_c, 14, 52, 105
10, 189360, Note_on_c, 14, 52, 0
10, 189360, Note_on_c, 14, 51, 105
10, 189480, Note_on_c, 14, 51, 0
10, 189480, Note_on_c, 14, 52, 105
10, 189600, Note_on_c, 14, 52, 0
10, 189600, Note_on_c, 14, 40, 105
10, 189984, Note_on_c, 14, 40, 0
10, 191520, Note_on_c, 14, 47, 105
10, 191580, Note_on_c, 14, 47, 0
10, 191580, Note_on_c, 14, 45, 105
10, 191640, Note_on_c, 14, 45, 0
10, 191640, Note_on_c, 14, 47, 105
10, 191700, Note_on_c, 14, 47, 0
10, 191700, Note_on_c, 14, 45, 105
10, 191760, Note_on_c, 14, 45, 0
10, 191760, Note_on_c, 14, 47, 105
10, 191820, Note_on_c, 14, 47, 0
10, 191820, Note_on_c, 14, 45, 105
10, 191880, Note_on_c, 14, 45, 0
10, 191880, Note_on_c, 14, 47, 105
10, 191940, Note_on_c, 14, 47, 0
10, 191940, Note_on_c, 14, 45, 105
10, 192000, Note_on_c, 14, 45, 0
10, 192000, Note_on_c, 14, 47, 105
10, 192060, Note_on_c, 14, 47, 0
10, 192060, Note_on_c, 14, 45, 105
10, 192120, Note_on_c, 14, 45, 0
10, 192120, Note_on_c, 14, 47, 105
10, 192180, Note_on_c, 14, 47, 0
10, 192180, Note_on_c, 14, 45, 105
10, 192240, Note_on_c, 14, 45, 0
10, 192240, Note_on_c, 14, 44, 105
10, 192360, Note_on_c, 14, 44, 0
10, 192360, Note_on_c, 14, 45, 105
10, 192480, Note_on_c, 14, 45, 0
10, 192480, Note_on_c, 14, 33, 105
10, 192864, Note_on_c, 14, 33, 0
10, 194400, Note_on_c, 14, 47, 105
10, 194460, Note_on_c, 14, 47, 0
10, 194460, Note_on_c, 14, 45, 105
10, 194520, Note_on_c, 14, 45, 0
10, 194520, Note_on_c, 14, 47, 105
10, 194580, Note_on_c, 14, 47, 0
10, 194580, Note_on_c, 14, 45, 105
10, 194640, Note_on_c, 14, 45, 0
10, 194640, Note_on_c, 14, 47, 105
10, 194700, Note_on_c, 14, 47, 0
10, 194700, Note_on_c, 14, 45, 105
10, 194760, Note_on_c, 14, 45, 0
10, 194760, Note_on_c, 14, 47, 105
10, 194820, Note_on_c, 14, 47, 0
10, 194820, Note_on_c, 14, 45, 105
10, 194880, Note_on_c, 14, 45, 0
10, 194880, Note_on_c, 14, 47, 105
10, 194940, Note_on_c, 14, 47, 0
10, 194940, Note_on_c, 14, 45, 105
10, 195000, Note_on_c, 14, 45, 0
10, 195000, Note_on_c, 14, 47, 105
10, 195060, Note_on_c, 14, 47, 0
10, 195060, Note_on_c, 14, 45, 105
10, 195120, Note_on_c, 14, 45, 0
10, 195120, Note_on_c, 14, 44, 105
10, 195240, Note_on_c, 14, 44, 0
10, 195240, Note_on_c, 14, 45, 105
10, 195360, Note_on_c, 14, 45, 0
10, 195360, Note_on_c, 14, 33, 105
10, 195744, Note_on_c, 14, 33, 0
10, 197280, Note_on_c, 14, 47, 105
10, 197340, Note_on_c, 14, 47, 0
10, 197340, Note_on_c, 14, 45, 105
10, 197400, Note_on_c, 14, 45, 0
10, 197400, Note_on_c, 14, 47, 105
10, 197460, Note_on_c, 14, 47, 0
10, 197460, Note_on_c, 14, 45, 105
10, 197520, Note_on_c, 14, 45, 0
10, 197520, Note_on_c, 14, 47, 105
10, 197580, Note_on_c, 14, 47, 0
10, 197580, Note_on_c, 14, 45, 105
10, 197640, Note_on_c, 14, 45, 0
10, 197640, Note_on_c, 14, 47, 105
10, 197700, Note_on_c, 14, 47, 0
10, 197700, Note_on_c, 14, 45, 105
10, 197760, Note_on_c, 14, 45, 0
10, 197760, Note_on_c, 14, 47, 105
10, 197820, Note_on_c, 14, 47, 0
10, 197820, Note_on_c, 14, 45, 105
10, 197880, Note_on_c, 14, 45, 0
10, 197880, Note_on_c, 14, 47, 105
10, 197940, Note_on_c, 14, 47, 0
10, 197940, Note_on_c, 14, 45, 105
10, 198000, Note_on_c, 14, 45, 0
10, 198000, Note_on_c, 14, 44, 105
10, 198120, Note_on_c, 14, 44, 0
10, 198120, Note_on_c, 14, 45, 105
10, 198240, Note_on_c, 14, 45, 0
10, 198240, Note_on_c, 14, 33, 105
10, 198624, Note_on_c, 14, 33, 0
10, 199200, Note_on_c, 14, 45, 105
10, 199488, Note_on_c, 14, 45, 0
10, 199680, Note_on_c, 14, 46, 105
10, 199968, Note_on_c, 14, 46, 0
10, 200160, Note_on_c, 14, 47, 105
10, 200424, Note_on_c, 14, 47, 0
10, 200640, Note_on_c, 14, 44, 105
10, 200904, Note_on_c, 14, 44, 0
10, 201120, Note_on_c, 14, 45, 105
10, 201384, Note_on_c, 14, 45, 0
10, 201600, Note_on_c, 14, 42, 105
10, 201864, Note_on_c, 14, 42, 0
10, 202080, Note_on_c, 14, 38, 105
10, 202344, Note_on_c, 14, 38, 0
10, 202560, Note_on_c, 14, 40, 105
10, 202824, Note_on_c, 14, 40, 0
10, 203040, Note_on_c, 14, 33, 58
10, 211680, Note_on_c, 14, 33, 0
10, 211680, Note_on_c, 14, 38, 58
10, 211968, Note_on_c, 14, 38, 0
10, 213120, Note_on_c, 14, 40, 58
10, 213408, Note_on_c, 14, 40, 0
10, 214560, Note_on_c, 14, 45, 105
10, 214848, Note_on_c, 14, 45, 0
10, 215040, Note_on_c, 14, 49, 105
10, 215328, Note_on_c, 14, 49, 0
10, 215520, Note_on_c, 14, 42, 105
10, 215808, Note_on_c, 14, 42, 0
10, 216000, Note_on_c, 14, 45, 105
10, 216288, Note_on_c, 14, 45, 0
10, 216480, Note_on_c, 14, 39, 105
10, 216768, Note_on_c, 14, 39, 0
10, 216960, Note_on_c, 14, 42, 105
10, 217248, Note_on_c, 14, 42, 0
10, 217440, Note_on_c, 14, 40, 105
10, 217632, Note_on_c, 14, 40, 0
10, 217680, Note_on_c, 14, 40, 105
10, 217872, Note_on_c, 14, 40, 0
10, 217920, Note_on_c, 14, 40, 105
10, 218112, Note_on_c, 14, 40, 0
10, 218160, Note_on_c, 14, 40, 105
10, 218352, Note_on_c, 14, 40, 0
10, 218400, Note_on_c, 14, 40, 105
10, 218592, Note_on_c, 14, 40, 0
10, 218640, Note_on_c, 14, 40, 105
10, 218832, Note_on_c, 14, 40, 0
10, 218880, Note_on_c, 14, 40, 105
10, 219072, Note_on_c, 14, 40, 0
10, 219120, Note_on_c, 14, 40, 105
10, 219312, Note_on_c, 14, 40, 0
10, 219360, Note_on_c, 14, 40, 105
10, 219552, Note_on_c, 14, 40, 0
10, 219600, Note_on_c, 14, 40, 105
10, 219792, Note_on_c, 14, 40, 0
10, 219840, Note_on_c, 14, 40, 105
10, 220032, Note_on_c, 14, 40, 0
10, 220080, Note_on_c, 14, 40, 105
10, 220272, Note_on_c, 14, 40, 0
10, 220320, Note_on_c, 14, 33, 105
10, 220704, Note_on_c, 14, 33, 0
10, 221040, Note_on_c, 14, 45, 105
10, 221244, Note_on_c, 14, 45, 0
10, 221280, Note_on_c, 14, 49, 105
10, 221484, Note_on_c, 14, 49, 0
10, 221520, Note_on_c, 14, 52, 105
10, 221724, Note_on_c, 14, 52, 0
10, 221760, Note_on_c, 14, 33, 105
10, 222144, Note_on_c, 14, 33, 0
10, 222480, Note_on_c, 14, 45, 105
10, 222684, Note_on_c, 14, 45, 0
10, 222720, Note_on_c, 14, 49, 105
10, 222924, Note_on_c, 14, 49, 0
10, 222960, Note_on_c, 14, 52, 105
10, 223164, Note_on_c, 14, 52, 0
10, 223200, Note_on_c, 14, 33, 105
10, 223584, Note_on_c, 14, 33, 0
10, 223920, Note_on_c, 14, 45, 105
10, 224124, Note_on_c, 14, 45, 0
10, 224160, Note_on_c, 14, 49, 105
10, 224364, Note_on_c, 14, 49, 0
10, 224400, Note_on_c, 14, 52, 105
10, 224604, Note_on_c, 14, 52, 0
10, 224640, Note_on_c, 14, 45, 105
10, 224928, Note_on_c, 14, 45, 0
10, 225120, Note_on_c, 14, 33, 80
10, 225408, Note_on_c, 14, 33, 0
10, 226080, Note_on_c, 14, 33, 58
10, 226392, Note_on_c, 14, 33, 0
10, 226560, Note_on_c, 14, 35, 58
10, 226872, Note_on_c, 14, 35, 0
10, 227040, Note_on_c, 14, 37, 58
10, 227352, Note_on_c, 14, 37, 0
10, 227520, Note_on_c, 14, 35, 58
10, 227832, Note_on_c, 14, 35, 0
10, 228000, Note_on_c, 14, 37, 58
10, 228312, Note_on_c, 14, 37, 0
10, 228480, Note_on_c, 14, 38, 58
10, 228792, Note_on_c, 14, 38, 0
10, 228960, Note_on_c, 14, 40, 58
10, 229272, Note_on_c, 14, 40, 0
10, 229440, Note_on_c, 14, 42, 58
10, 229752, Note_on_c, 14, 42, 0
10, 229920, Note_on_c, 14, 44, 58
10, 230232, Note_on_c, 14, 44, 0
10, 230400, Note_on_c, 14, 45, 58
10, 230784, Note_on_c, 14, 45, 0
10, 233280, Note_on_c, 14, 38, 58
10, 233592, Note_on_c, 14, 38, 0
10, 233760, Note_on_c, 14, 40, 58
10, 234072, Note_on_c, 14, 40, 0
10, 234240, Note_on_c, 14, 42, 58
10, 234552, Note_on_c, 14, 42, 0
10, 234720, Note_on_c, 14, 40, 58
10, 235032, Note_on_c, 14, 40, 0
10, 235200, Note_on_c, 14, 42, 58
10, 235512, Note_on_c, 14, 42, 0
10, 235680, Note_on_c, 14, 43, 58
10, 235992, Note_on_c, 14, 43, 0
10, 236160, Note_on_c, 14, 45, 58
10, 236472, Note_on_c, 14, 45, 0
10, 236640, Note_on_c, 14, 47, 58
10, 236952, Note_on_c, 14, 47, 0
10, 237120, Note_on_c, 14, 49, 58
10, 237432, Note_on_c, 14, 49, 0
10, 237600, Note_on_c, 14, 50, 58
10, 237984, Note_on_c, 14, 50, 0
10, 240480, Note_on_c, 14, 31, 58
10, 240792, Note_on_c, 14, 31, 0
10, 240960, Note_on_c, 14, 33, 58
10, 241272, Note_on_c, 14, 33, 0
10, 241440, Note_on_c, 14, 35, 58
10, 241752, Note_on_c, 14, 35, 0
10, 241920, Note_on_c, 14, 33, 58
10, 242232, Note_on_c, 14, 33, 0
10, 242400, Note_on_c, 14, 35, 58
10, 242712, Note_on_c, 14, 35, 0
10, 242880, Note_on_c, 14, 36, 58
10, 243192, Note_on_c, 14, 36, 0
10, 243360, Note_on_c, 14, 38, 58
10, 243672, Note_on_c, 14, 38, 0
10, 243840, Note_on_c, 14, 40, 58
10, 244152, Note_on_c, 14, 40, 0
10, 244320, Note_on_c, 14, 42, 58
10, 244632, Note_on_c, 14, 42, 0
10, 244800, Note_on_c, 14, 43, 58
10, 245184, Note_on_c, 14, 43, 0
10, 246720, Note_on_c, 14, 38, 105
10, 247032, Note_on_c, 14, 38, 0
10, 247200, Note_on_c, 14, 40, 105
10, 247512, Note_on_c, 14, 40, 0
10, 247680, Note_on_c, 14, 42, 105
10, 247992, Note_on_c, 14, 42, 0
10, 248160, Note_on_c, 14, 44, 105
10, 248472, Note_on_c, 14, 44, 0
10, 248640, Note_on_c, 14, 46, 105
10, 248952, Note_on_c, 14, 46, 0
10, 249120, Note_on_c, 14, 35, 105
10, 249432, Note_on_c, 14, 35, 0
10, 249600, Note_on_c, 14, 37, 105
10, 249912, Note_on_c, 14, 37, 0
10, 250080, Note_on_c, 14, 39, 105
10, 250392, Note_on_c, 14, 39, 0
10, 250560, Note_on_c, 14, 40, 105
10, 250872, Note_on_c, 14, 40, 0
10, 251040, Note_on_c, 14, 42, 105
10, 251352, Note_on_c, 14, 42, 0
10, 251520, Note_on_c, 14, 44, 105
10, 251832, Note_on_c, 14, 44, 0
10, 252000, Note_on_c, 14, 45, 105
10, 252312, Note_on_c, 14, 45, 0
10, 252480, Note_on_c, 14, 47, 105
10, 252792, Note_on_c, 14, 47, 0
10, 252960, Note_on_c, 14, 49, 105
10, 253272, Note_on_c, 14, 49, 0
10, 253440, Note_on_c, 14, 50, 105
10, 254808, Note_on_c, 14, 50, 0
10, 254880, Note_on_c, 14, 49, 105
10, 255240, Note_on_c, 14, 49, 0
10, 255240, Note_on_c, 14, 50, 105
10, 255336, Note_on_c, 14, 50, 0
10, 255360, Note_on_c, 14, 47, 105
10, 255720, Note_on_c, 14, 47, 0
10, 255720, Note_on_c, 14, 49, 105
10, 255816, Note_on_c, 14, 49, 0
10, 255840, Note_on_c, 14, 45, 105
10, 256224, Note_on_c, 14, 45, 0
10, 256320, Note_on_c, 14, 48, 105
10, 257688, Note_on_c, 14, 48, 0
10, 257760, Note_on_c, 14, 47, 105
10, 258120, Note_on_c, 14, 47, 0
10, 258120, Note_on_c, 14, 48, 105
10, 258216, Note_on_c, 14, 48, 0
10, 258240, Note_on_c, 14, 45, 105
10, 258600, Note_on_c, 14, 45, 0
10, 258600, Note_on_c, 14, 47, 105
10, 258696, Note_on_c, 14, 47, 0
10, 258720, Note_on_c, 14, 43, 105
10, 259104, Note_on_c, 14, 43, 0
10, 259200, Note_on_c, 14, 31, 58
10, 259584, Note_on_c, 14, 31, 0
10, 260640, Note_on_c, 14, 43, 58
10, 262080, Note_on_c, 14, 43, 0
10, 262080, Note_on_c, 14, 44, 58
10, 263520, Note_on_c, 14, 44, 0
10, 263520, Note_on_c, 14, 45, 58
10, 263904, Note_on_c, 14, 45, 0
10, 264000, Note_on_c, 14, 45, 58
10, 264384, Note_on_c, 14, 45, 0
10, 264480, Note_on_c, 14, 33, 58
10, 264864, Note_on_c, 14, 33, 0
10, 264960, Note_on_c, 14, 31, 58
10, 265344, Note_on_c, 14, 31, 0
10, 266400, Note_on_c, 14, 43, 58
10, 267840, Note_on_c, 14, 43, 0
10, 267840, Note_on_c, 14, 44, 58
10, 269280, Note_on_c, 14, 44, 0
10, 269280, Note_on_c, 14, 45, 58
10, 269664, Note_on_c, 14, 45, 0
10, 275040, Note_on_c, 14, 50, 105
10, 275424, Note_on_c, 14, 50, 0
10, 275520, Note_on_c, 14, 38, 105
10, 275904, Note_on_c, 14, 38, 0
10, 276480, Note_on_c, 14, 49, 105
10, 276864, Note_on_c, 14, 49, 0
10, 276960, Note_on_c, 14, 37, 105
10, 277344, Note_on_c, 14, 37, 0
10, 277920, Note_on_c, 14, 47, 105
10, 278208, Note_on_c, 14, 47, 0
10, 278400, Note_on_c, 14, 45, 105
10, 278688, Note_on_c, 14, 45, 0
10, 278880, Note_on_c, 14, 43, 105
10, 279168, Note_on_c, 14, 43, 0
10, 279360, Note_on_c, 14, 45, 105
10, 279672, Note_on_c, 14, 45, 0
10, 279840, Note_on_c, 14, 38, 105
10, 280152, Note_on_c, 14, 38, 0
10, 280800, Note_on_c, 14, 38, 92
10, 281184, Note_on_c, 14, 38, 0
10, 282240, Note_on_c, 14, 38, 92
10, 282624, Note_on_c, 14, 38, 0
10, 283680, Note_on_c, 14, 43, 105
10, 283992, Note_on_c, 14, 43, 0
10, 284160, Note_on_c, 14, 45, 105
10, 284472, Note_on_c, 14, 45, 0
10, 284640, Note_on_c, 14, 33, 105
10, 284952, Note_on_c, 14, 33, 0
10, 285120, Note_on_c, 14, 50, 105
10, 285240, Note_on_c, 14, 50, 0
10, 285240, Note_on_c, 14, 49, 105
10, 285360, Note_on_c, 14, 49, 0
10, 285360, Note_on_c, 14, 47, 105
10, 285480, Note_on_c, 14, 47, 0
10, 285480, Note_on_c, 14, 45, 105
10, 285576, Note_on_c, 14, 45, 0
10, 285600, Note_on_c, 14, 50, 105
10, 285720, Note_on_c, 14, 50, 0
10, 285720, Note_on_c, 14, 49, 105
10, 285840, Note_on_c, 14, 49, 0
10, 285840, Note_on_c, 14, 47, 105
10, 285960, Note_on_c, 14, 47, 0
10, 285960, Note_on_c, 14, 45, 105
10, 286056, Note_on_c, 14, 45, 0
10, 286080, Note_on_c, 14, 50, 105
10, 286464, Note_on_c, 14, 50, 0
10, 286560, Note_on_c, 14, 50, 105
10, 286872, Note_on_c, 14, 50, 0
10, 287040, Note_on_c, 14, 38, 105
10, 287352, Note_on_c, 14, 38, 0
10, 287880, Note_on_c, 14, 38, 105
10, 287958, Note_on_c, 14, 38, 0
10, 288000, Note_on_c, 14, 43, 105
10, 288312, Note_on_c, 14, 43, 0
10, 288480, Note_on_c, 14, 31, 105
10, 288792, Note_on_c, 14, 31, 0
10, 289320, Note_on_c, 14, 43, 105
10, 289398, Note_on_c, 14, 43, 0
10, 289440, Note_on_c, 14, 50, 105
10, 289752, Note_on_c, 14, 50, 0
10, 289920, Note_on_c, 14, 35, 105
10, 290232, Note_on_c, 14, 35, 0
10, 290760, Note_on_c, 14, 47, 105
10, 290838, Note_on_c, 14, 47, 0
10, 290880, Note_on_c, 14, 52, 105
10, 291192, Note_on_c, 14, 52, 0
10, 291360, Note_on_c, 14, 40, 105
10, 291672, Note_on_c, 14, 40, 0
10, 292200, Note_on_c, 14, 40, 105
10, 292278, Note_on_c, 14, 40, 0
10, 292320, Note_on_c, 14, 49, 105
10, 292632, Note_on_c, 14, 49, 0
10, 292800, Note_on_c, 14, 33, 105
10, 293112, Note_on_c, 14, 33, 0
10, 293640, Note_on_c, 14, 45, 105
10, 293718, Note_on_c, 14, 45, 0
10, 293760, Note_on_c, 14, 50, 105
10, 294072, Note_on_c, 14, 50, 0
10, 294240, Note_on_c, 14, 38, 105
10, 294552, Note_on_c, 14, 38, 0
10, 295080, Note_on_c, 14, 50, 105
10, 295158, Note_on_c, 14, 50, 0
10, 295200, Note_on_c, 14, 43, 105
10, 295356, Note_on_c, 14, 43, 0
10, 295440, Note_on_c, 14, 43, 105
10, 295596, Note_on_c, 14, 43, 0
10, 295680, Note_on_c, 14, 43, 105
10, 295836, Note_on_c, 14, 43, 0
10, 295920, Note_on_c, 14, 43, 105
10, 296076, Note_on_c, 14, 43, 0
10, 296160, Note_on_c, 14, 44, 105
10, 296316, Note_on_c, 14, 44, 0
10, 296400, Note_on_c, 14, 44, 105
10, 296556, Note_on_c, 14, 44, 0
10, 296640, Note_on_c, 14, 45, 105
10, 296832, Note_on_c, 14, 45, 0
10, 296880, Note_on_c, 14, 33, 105
10, 297072, Note_on_c, 14, 33, 0
10, 297120, Note_on_c, 14, 37, 105
10, 297312, Note_on_c, 14, 37, 0
10, 297360, Note_on_c, 14, 40, 105
10, 297552, Note_on_c, 14, 40, 0
10, 297600, Note_on_c, 14, 43, 105
10, 297984, Note_on_c, 14, 43, 0
10, 298320, Note_on_c, 14, 37, 105
10, 298512, Note_on_c, 14, 37, 0
10, 298560, Note_on_c, 14, 40, 105
10, 298752, Note_on_c, 14, 40, 0
10, 298800, Note_on_c, 14, 33, 105
10, 298992, Note_on_c, 14, 33, 0
10, 299040, Note_on_c, 14, 43, 105
10, 299424, Note_on_c, 14, 43, 0
10, 299760, Note_on_c, 14, 42, 105
10, 299952, Note_on_c, 14, 42, 0
10, 300000, Note_on_c, 14, 38, 105
10, 300192, Note_on_c, 14, 38, 0
10, 300240, Note_on_c, 14, 33, 105
10, 300432, Note_on_c, 14, 33, 0
10, 300480, Note_on_c, 14, 30, 105
10, 300864, Note_on_c, 14, 30, 0
10, 301200, Note_on_c, 14, 45, 105
10, 301392, Note_on_c, 14, 45, 0
10, 301440, Note_on_c, 14, 38, 105
10, 301632, Note_on_c, 14, 38, 0
10, 301680, Note_on_c, 14, 50, 105
10, 301872, Note_on_c, 14, 50, 0
10, 301920, Note_on_c, 14, 42, 105
10, 302304, Note_on_c, 14, 42, 0
10, 302640, Note_on_c, 14, 33, 105
10, 302832, Note_on_c, 14, 33, 0
10, 302880, Note_on_c, 14, 37, 105
10, 303072, Note_on_c, 14, 37, 0
10, 303120, Note_on_c, 14, 40, 105
10, 303312, Note_on_c, 14, 40, 0
10, 303360, Note_on_c, 14, 45, 105
10, 303744, Note_on_c, 14, 45, 0
10, 304080, Note_on_c, 14, 49, 105
10, 304272, Note_on_c, 14, 49, 0
10, 304320, Note_on_c, 14, 52, 105
10, 304512, Note_on_c, 14, 52, 0
10, 304560, Note_on_c, 14, 45, 105
10, 304752, Note_on_c, 14, 45, 0
10, 304800, Note_on_c, 14, 49, 105
10, 305184, Note_on_c, 14, 49, 0
10, 305280, Note_on_c, 14, 50, 105
10, 305472, Note_on_c, 14, 50, 0
10, 305520, Note_on_c, 14, 38, 105
10, 305712, Note_on_c, 14, 38, 0
10, 305760, Note_on_c, 14, 35, 105
10, 305952, Note_on_c, 14, 35, 0
10, 306000, Note_on_c, 14, 33, 105
10, 306192, Note_on_c, 14, 33, 0
10, 306240, Note_on_c, 14, 31, 105
10, 306624, Note_on_c, 14, 31, 0
10, 306720, Note_on_c, 14, 33, 105
10, 307104, Note_on_c, 14, 33, 0
10, 308400, Note_on_c, 14, 38, 105
10, 308592, Note_on_c, 14, 38, 0
10, 308640, Note_on_c, 14, 35, 105
10, 308832, Note_on_c, 14, 35, 0
10, 308880, Note_on_c, 14, 33, 105
10, 309072, Note_on_c, 14, 33, 0
10, 309120, Note_on_c, 14, 31, 105
10, 309504, Note_on_c, 14, 31, 0
10, 309600, Note_on_c, 14, 33, 105
10, 309984, Note_on_c, 14, 33, 0
10, 311280, Note_on_c, 14, 50, 105
10, 311472, Note_on_c, 14, 50, 0
10, 311520, Note_on_c, 14, 47, 105
10, 311712, Note_on_c, 14, 47, 0
10, 311760, Note_on_c, 14, 45, 105
10, 311952, Note_on_c, 14, 45, 0
10, 312000, Note_on_c, 14, 43, 125
10, 312240, Note_on_c, 14, 43, 0
10, 312240, Note_on_c, 14, 44, 105
10, 312432, Note_on_c, 14, 44, 0
10, 312480, Note_on_c, 14, 45, 105
10, 312636, Note_on_c, 14, 45, 0
10, 312720, Note_on_c, 14, 45, 105
10, 312876, Note_on_c, 14, 45, 0
10, 312960, Note_on_c, 14, 45, 105
10, 313116, Note_on_c, 14, 45, 0
10, 313200, Note_on_c, 14, 45, 105
10, 313356, Note_on_c, 14, 45, 0
10, 313440, Note_on_c, 14, 45, 105
10, 313596, Note_on_c, 14, 45, 0
10, 313680, Note_on_c, 14, 45, 105
10, 313836, Note_on_c, 14, 45, 0
10, 313920, Note_on_c, 14, 45, 105
10, 314076, Note_on_c, 14, 45, 0
10, 314160, Note_on_c, 14, 45, 105
10, 314316, Note_on_c, 14, 45, 0
10, 314400, Note_on_c, 14, 45, 105
10, 314556, Note_on_c, 14, 45, 0
10, 314640, Note_on_c, 14, 45, 105
10, 314796, Note_on_c, 14, 45, 0
10, 314880, Note_on_c, 14, 45, 105
10, 315036, Note_on_c, 14, 45, 0
10, 315120, Note_on_c, 14, 45, 105
10, 315276, Note_on_c, 14, 45, 0
10, 315360, Note_on_c, 14, 45, 105
10, 315672, Note_on_c, 14, 45, 0
10, 315840, Note_on_c, 14, 45, 105
10, 315900, Note_on_c, 14, 45, 0
10, 315900, Note_on_c, 14, 44, 105
10, 315960, Note_on_c, 14, 44, 0
10, 315960, Note_on_c, 14, 45, 105
10, 316020, Note_on_c, 14, 45, 0
10, 316020, Note_on_c, 14, 44, 105
10, 316080, Note_on_c, 14, 44, 0
10, 316080, Note_on_c, 14, 45, 105
10, 316140, Note_on_c, 14, 45, 0
10, 316140, Note_on_c, 14, 44, 105
10, 316200, Note_on_c, 14, 44, 0
10, 316200, Note_on_c, 14, 45, 105
10, 316260, Note_on_c, 14, 45, 0
10, 316260, Note_on_c, 14, 44, 105
10, 316320, Note_on_c, 14, 44, 0
10, 316320, Note_on_c, 14, 45, 105
10, 316380, Note_on_c, 14, 45, 0
10, 316380, Note_on_c, 14, 44, 105
10, 316440, Note_on_c, 14, 44, 0
10, 316440, Note_on_c, 14, 45, 105
10, 316500, Note_on_c, 14, 45, 0
10, 316500, Note_on_c, 14, 44, 105
10, 316560, Note_on_c, 14, 44, 0
10, 316560, Note_on_c, 14, 42, 105
10, 316680, Note_on_c, 14, 42, 0
10, 316680, Note_on_c, 14, 44, 105
10, 316800, Note_on_c, 14, 44, 0
10, 316800, Note_on_c, 14, 45, 105
10, 317088, Note_on_c, 14, 45, 0
10, 317280, Note_on_c, 14, 33, 92
10, 317568, Note_on_c, 14, 33, 0
10, 318240, Note_on_c, 14, 50, 58
10, 318624, Note_on_c, 14, 50, 0
10, 319680, Note_on_c, 14, 45, 58
10, 320064, Note_on_c, 14, 45, 0
10, 321120, Note_on_c, 14, 38, 58
10, 321504, Note_on_c, 14, 38, 0
10, 322560, Note_on_c, 14, 37, 58
10, 322944, Note_on_c, 14, 37, 0
10, 324000, Note_on_c, 14, 38, 58
10, 324384, Note_on_c, 14, 38, 0
10, 325440, Note_on_c, 14, 37, 58
10, 326400, Note_on_c, 14, 37, 0
10, 326400, Note_on_c, 14, 38, 58
10, 326880, Note_on_c, 14, 38, 0
10, 326880, Note_on_c, 14, 31, 58
10, 327264, Note_on_c, 14, 31, 0
10, 327840, Note_on_c, 14, 43, 58
10, 328224, Note_on_c, 14, 43, 0
10, 328320, Note_on_c, 14, 42, 58
10, 329280, Note_on_c, 14, 42, 0
10, 329280, Note_on_c, 14, 43, 58
10, 329760, Note_on_c, 14, 43, 0
10, 329760, Note_on_c, 14, 45, 58
10, 330720, Note_on_c, 14, 45, 0
10, 330720, Note_on_c, 14, 33, 58
10, 331200, Note_on_c, 14, 33, 0
10, 331200, Note_on_c, 14, 38, 58
10, 331584, Note_on_c, 14, 38, 0
10, 331680, Note_on_c, 14, 50, 58
10, 331740, Note_on_c, 14, 50, 0
10, 331740, Note_on_c, 14, 49, 92
10, 331800, Note_on_c, 14, 49, 0
10, 331800, Note_on_c, 14, 50, 92
10, 331860, Note_on_c, 14, 50, 0
10, 331860, Note_on_c, 14, 49, 92
10, 331920, Note_on_c, 14, 49, 0
10, 331920, Note_on_c, 14, 50, 92
10, 331980, Note_on_c, 14, 50, 0
10, 331980, Note_on_c, 14, 49, 92
10, 332040, Note_on_c, 14, 49, 0
10, 332040, Note_on_c, 14, 50, 92
10, 332100, Note_on_c, 14, 50, 0
10, 332100, Note_on_c, 14, 49, 92
10, 332160, Note_on_c, 14, 49, 0
10, 332160, Note_on_c, 14, 50, 92
10, 332220, Note_on_c, 14, 50, 0
10, 332220, Note_on_c, 14, 49, 92
10, 332280, Note_on_c, 14, 49, 0
10, 332280, Note_on_c, 14, 50, 92
10, 332340, Note_on_c, 14, 50, 0
10, 332340, Note_on_c, 14, 49, 92
10, 332400, Note_on_c, 14, 49, 0
10, 332400, Note_on_c, 14, 47, 92
10, 332520, Note_on_c, 14, 47, 0
10, 332520, Note_on_c, 14, 49, 92
10, 332640, Note_on_c, 14, 49, 0
10, 332640, Note_on_c, 14, 50, 92
10, 333024, Note_on_c, 14, 50, 0
10, 333120, Note_on_c, 14, 38, 92
10, 333504, Note_on_c, 14, 38, 0
10, 334080, Note_on_c, 14, 45, 58
10, 334464, Note_on_c, 14, 45, 0
10, 334560, Note_on_c, 14, 33, 58
10, 334944, Note_on_c, 14, 33, 0
10, 335520, Note_on_c, 14, 38, 58
10, 335904, Note_on_c, 14, 38, 0
10, 336960, Note_on_c, 14, 37, 58
10, 337344, Note_on_c, 14, 37, 0
10, 338400, Note_on_c, 14, 38, 58
10, 338784, Note_on_c, 14, 38, 0
10, 339840, Note_on_c, 14, 37, 58
10, 340800, Note_on_c, 14, 37, 0
10, 340800, Note_on_c, 14, 38, 58
10, 341280, Note_on_c, 14, 38, 0
10, 341280, Note_on_c, 14, 31, 58
10, 341664, Note_on_c, 14, 31, 0
10, 342240, Note_on_c, 14, 43, 58
10, 342624, Note_on_c, 14, 43, 0
10, 342720, Note_on_c, 14, 42, 58
10, 343632, Note_on_c, 14, 42, 0
10, 343680, Note_on_c, 14, 43, 58
10, 344616, Note_on_c, 14, 43, 0
10, 344640, Note_on_c, 14, 44, 58
10, 345552, Note_on_c, 14, 44, 0
10, 345600, Note_on_c, 14, 45, 58
10, 345984, Note_on_c, 14, 45, 0
10, 351840, Note_on_c, 14, 45, 58
10, 352152, Note_on_c, 14, 45, 0
10, 352320, Note_on_c, 14, 33, 58
10, 352632, Note_on_c, 14, 33, 0
10, 352800, Note_on_c, 14, 35, 58
10, 353184, Note_on_c, 14, 35, 0
10, 356160, Note_on_c, 14, 45, 58
10, 356472, Note_on_c, 14, 45, 0
10, 356640, Note_on_c, 14, 33, 58
10, 356952, Note_on_c, 14, 33, 0
10, 357120, Note_on_c, 14, 52, 92
10, 357180, Note_on_c, 14, 52, 0
10, 357180, Note_on_c, 14, 50, 92
10, 357240, Note_on_c, 14, 50, 0
10, 357240, Note_on_c, 14, 52, 92
10, 357300, Note_on_c, 14, 52, 0
10, 357300, Note_on_c, 14, 50, 92
10, 357360, Note_on_c, 14, 50, 0
10, 357360, Note_on_c, 14, 52, 92
10, 357420, Note_on_c, 14, 52, 0
10, 357420, Note_on_c, 14, 50, 92
10, 357480, Note_on_c, 14, 50, 0
10, 357480, Note_on_c, 14, 52, 92
10, 357540, Note_on_c, 14, 52, 0
10, 357540, Note_on_c, 14, 50, 92
10, 357600, Note_on_c, 14, 50, 0
10, 357600, Note_on_c, 14, 52, 92
10, 357660, Note_on_c, 14, 52, 0
10, 357660, Note_on_c, 14, 50, 92
10, 357720, Note_on_c, 14, 50, 0
10, 357720, Note_on_c, 14, 52, 92
10, 357780, Note_on_c, 14, 52, 0
10, 357780, Note_on_c, 14, 50, 92
10, 357840, Note_on_c, 14, 50, 0
10, 357840, Note_on_c, 14, 49, 92
10, 357960, Note_on_c, 14, 49, 0
10, 357960, Note_on_c, 14, 50, 92
10, 358056, Note_on_c, 14, 50, 0
10, 358080, Note_on_c, 14, 38, 92
10, 358464, Note_on_c, 14, 38, 0
10, 360000, Note_on_c, 14, 47, 92
10, 360060, Note_on_c, 14, 47, 0
10, 360060, Note_on_c, 14, 45, 92
10, 360120, Note_on_c, 14, 45, 0
10, 360120, Note_on_c, 14, 47, 92
10, 360180, Note_on_c, 14, 47, 0
10, 360180, Note_on_c, 14, 45, 92
10, 360240, Note_on_c, 14, 45, 0
10, 360240, Note_on_c, 14, 47, 92
10, 360300, Note_on_c, 14, 47, 0
10, 360300, Note_on_c, 14, 45, 92
10, 360360, Note_on_c, 14, 45, 0
10, 360360, Note_on_c, 14, 47, 92
10, 360420, Note_on_c, 14, 47, 0
10, 360420, Note_on_c, 14, 45, 92
10, 360480, Note_on_c, 14, 45, 0
10, 360480, Note_on_c, 14, 47, 92
10, 360540, Note_on_c, 14, 47, 0
10, 360540, Note_on_c, 14, 45, 92
10, 360600, Note_on_c, 14, 45, 0
10, 360600, Note_on_c, 14, 47, 92
10, 360660, Note_on_c, 14, 47, 0
10, 360660, Note_on_c, 14, 45, 92
10, 360720, Note_on_c, 14, 45, 0
10, 360720, Note_on_c, 14, 44, 92
10, 360840, Note_on_c, 14, 44, 0
10, 360840, Note_on_c, 14, 45, 92
10, 360960, Note_on_c, 14, 45, 0
10, 360960, Note_on_c, 14, 33, 92
10, 361344, Note_on_c, 14, 33, 0
10, 362880, Note_on_c, 14, 52, 92
10, 362940, Note_on_c, 14, 52, 0
10, 362940, Note_on_c, 14, 50, 92
10, 363000, Note_on_c, 14, 50, 0
10, 363000, Note_on_c, 14, 52, 92
10, 363060, Note_on_c, 14, 52, 0
10, 363060, Note_on_c, 14, 50, 92
10, 363120, Note_on_c, 14, 50, 0
10, 363120, Note_on_c, 14, 52, 92
10, 363180, Note_on_c, 14, 52, 0
10, 363180, Note_on_c, 14, 50, 92
10, 363240, Note_on_c, 14, 50, 0
10, 363240, Note_on_c, 14, 52, 92
10, 363300, Note_on_c, 14, 52, 0
10, 363300, Note_on_c, 14, 50, 92
10, 363360, Note_on_c, 14, 50, 0
10, 363360, Note_on_c, 14, 52, 92
10, 363420, Note_on_c, 14, 52, 0
10, 363420, Note_on_c, 14, 50, 92
10, 363480, Note_on_c, 14, 50, 0
10, 363480, Note_on_c, 14, 52, 92
10, 363540, Note_on_c, 14, 52, 0
10, 363540, Note_on_c, 14, 50, 92
10, 363600, Note_on_c, 14, 50, 0
10, 363600, Note_on_c, 14, 49, 92
10, 363720, Note_on_c, 14, 49, 0
10, 363720, Note_on_c, 14, 50, 92
10, 363816, Note_on_c, 14, 50, 0
10, 363840, Note_on_c, 14, 38, 92
10, 364224, Note_on_c, 14, 38, 0
10, 365760, Note_on_c, 14, 52, 92
10, 365820, Note_on_c, 14, 52, 0
10, 365820, Note_on_c, 14, 50, 92
10, 365880, Note_on_c, 14, 50, 0
10, 365880, Note_on_c, 14, 52, 92
10, 365940, Note_on_c, 14, 52, 0
10, 365940, Note_on_c, 14, 50, 92
10, 366000, Note_on_c, 14, 50, 0
10, 366000, Note_on_c, 14, 52, 92
10, 366060, Note_on_c, 14, 52, 0
10, 366060, Note_on_c, 14, 50, 92
10, 366120, Note_on_c, 14, 50, 0
10, 366120, Note_on_c, 14, 52, 92
10, 366180, Note_on_c, 14, 52, 0
10, 366180, Note_on_c, 14, 50, 92
10, 366240, Note_on_c, 14, 50, 0
10, 366240, Note_on_c, 14, 52, 92
10, 366300, Note_on_c, 14, 52, 0
10, 366300, Note_on_c, 14, 50, 92
10, 366360, Note_on_c, 14, 50, 0
10, 366360, Note_on_c, 14, 52, 92
10, 366420, Note_on_c, 14, 52, 0
10, 366420, Note_on_c, 14, 50, 92
10, 366480, Note_on_c, 14, 50, 0
10, 366480, Note_on_c, 14, 49, 92
10, 366600, Note_on_c, 14, 49, 0
10, 366600, Note_on_c, 14, 50, 92
10, 366696, Note_on_c, 14, 50, 0
10, 366720, Note_on_c, 14, 38, 92
10, 367104, Note_on_c, 14, 38, 0
10, 368640, Note_on_c, 14, 52, 92
10, 368700, Note_on_c, 14, 52, 0
10, 368700, Note_on_c, 14, 50, 92
10, 368760, Note_on_c, 14, 50, 0
10, 368760, Note_on_c, 14, 52, 92
10, 368820, Note_on_c, 14, 52, 0
10, 368820, Note_on_c, 14, 50, 92
10, 368880, Note_on_c, 14, 50, 0
10, 368880, Note_on_c, 14, 52, 92
10, 368940, Note_on_c, 14, 52, 0
10, 368940, Note_on_c, 14, 50, 92
10, 369000, Note_on_c, 14, 50, 0
10, 369000, Note_on_c, 14, 52, 92
10, 369060, Note_on_c, 14, 52, 0
10, 369060, Note_on_c, 14, 50, 92
10, 369120, Note_on_c, 14, 50, 0
10, 369120, Note_on_c, 14, 52, 92
10, 369180, Note_on_c, 14, 52, 0
10, 369180, Note_on_c, 14, 50, 92
10, 369240, Note_on_c, 14, 50, 0
10, 369240, Note_on_c, 14, 52, 92
10, 369300, Note_on_c, 14, 52, 0
10, 369300, Note_on_c, 14, 50, 92
10, 369360, Note_on_c, 14, 50, 0
10, 369360, Note_on_c, 14, 49, 92
10, 369480, Note_on_c, 14, 49, 0
10, 369480, Note_on_c, 14, 50, 92
10, 369576, Note_on_c, 14, 50, 0
10, 369600, Note_on_c, 14, 38, 92
10, 369984, Note_on_c, 14, 38, 0
10, 370560, Note_on_c, 14, 50, 105
10, 370848, Note_on_c, 14, 50, 0
10, 371040, Note_on_c, 14, 51, 105
10, 371328, Note_on_c, 14, 51, 0
10, 371520, Note_on_c, 14, 52, 105
10, 371808, Note_on_c, 14, 52, 0
10, 372000, Note_on_c, 14, 49, 105
10, 372288, Note_on_c, 14, 49, 0
10, 372480, Note_on_c, 14, 50, 105
10, 372768, Note_on_c, 14, 50, 0
10, 372960, Note_on_c, 14, 47, 105
10, 373248, Note_on_c, 14, 47, 0
10, 373440, Note_on_c, 14, 43, 105
10, 373728, Note_on_c, 14, 43, 0
10, 373920, Note_on_c, 14, 45, 105
10, 374208, Note_on_c, 14, 45, 0
10, 374400, Note_on_c, 14, 38, 58
10, 383012, Note_on_c, 14, 38, 0
10, 383040, Note_on_c, 14, 31, 58
10, 383352, Note_on_c, 14, 31, 0
10, 384480, Note_on_c, 14, 33, 58
10, 384792, Note_on_c, 14, 33, 0
10, 385920, Note_on_c, 14, 50, 105
10, 386208, Note_on_c, 14, 50, 0
10, 386400, Note_on_c, 14, 54, 105
10, 386688, Note_on_c, 14, 54, 0
10, 386880, Note_on_c, 14, 47, 105
10, 387168, Note_on_c, 14, 47, 0
10, 387360, Note_on_c, 14, 50, 105
10, 387648, Note_on_c, 14, 50, 0
10, 387840, Note_on_c, 14, 44, 105
10, 388128, Note_on_c, 14, 44, 0
10, 388320, Note_on_c, 14, 47, 105
10, 388608, Note_on_c, 14, 47, 0
10, 388800, Note_on_c, 14, 45, 105
10, 388956, Note_on_c, 14, 45, 0
10, 389040, Note_on_c, 14, 45, 105
10, 389196, Note_on_c, 14, 45, 0
10, 389280, Note_on_c, 14, 45, 105
10, 389436, Note_on_c, 14, 45, 0
10, 389520, Note_on_c, 14, 45, 105
10, 389676, Note_on_c, 14, 45, 0
10, 389760, Note_on_c, 14, 45, 105
10, 389916, Note_on_c, 14, 45, 0
10, 390000, Note_on_c, 14, 45, 105
10, 390156, Note_on_c, 14, 45, 0
10, 390240, Note_on_c, 14, 33, 105
10, 390396, Note_on_c, 14, 33, 0
10, 390480, Note_on_c, 14, 33, 105
10, 390636, Note_on_c, 14, 33, 0
10, 390720, Note_on_c, 14, 33, 105
10, 390876, Note_on_c, 14, 33, 0
10, 390960, Note_on_c, 14, 33, 105
10, 391116, Note_on_c, 14, 33, 0
10, 391200, Note_on_c, 14, 33, 105
10, 391356, Note_on_c, 14, 33, 0
10, 391440, Note_on_c, 14, 33, 105
10, 391596, Note_on_c, 14, 33, 0
10, 391680, Note_on_c, 14, 38, 92
10, 392064, Note_on_c, 14, 38, 0
10, 392400, Note_on_c, 14, 38, 92
10, 392544, Note_on_c, 14, 38, 0
10, 392640, Note_on_c, 14, 42, 92
10, 392784, Note_on_c, 14, 42, 0
10, 392880, Note_on_c, 14, 45, 92
10, 393024, Note_on_c, 14, 45, 0
10, 393120, Note_on_c, 14, 38, 92
10, 393504, Note_on_c, 14, 38, 0
10, 393840, Note_on_c, 14, 38, 92
10, 393984, Note_on_c, 14, 38, 0
10, 394080, Note_on_c, 14, 42, 92
10, 394224, Note_on_c, 14, 42, 0
10, 394320, Note_on_c, 14, 45, 92
10, 394464, Note_on_c, 14, 45, 0
10, 394560, Note_on_c, 14, 38, 92
10, 394944, Note_on_c, 14, 38, 0
10, 395280, Note_on_c, 14, 38, 92
10, 395424, Note_on_c, 14, 38, 0
10, 395520, Note_on_c, 14, 42, 92
10, 395664, Note_on_c, 14, 42, 0
10, 395760, Note_on_c, 14, 45, 92
10, 395904, Note_on_c, 14, 45, 0
10, 396000, Note_on_c, 14, 50, 92
10, 396288, Note_on_c, 14, 50, 0
10, 396480, Note_on_c, 14, 38, 92
10, 396768, Note_on_c, 14, 38, 0
10, 397440, Note_on_c, 14, 42, 58
10, 397728, Note_on_c, 14, 42, 0
10, 397920, Note_on_c, 14, 40, 58
10, 398208, Note_on_c, 14, 40, 0
10, 398400, Note_on_c, 14, 38, 58
10, 398688, Note_on_c, 14, 38, 0
10, 398880, Note_on_c, 14, 40, 58
10, 399168, Note_on_c, 14, 40, 0
10, 399360, Note_on_c, 14, 42, 58
10, 399648, Note_on_c, 14, 42, 0
10, 399840, Note_on_c, 14, 43, 58
10, 400128, Note_on_c, 14, 43, 0
10, 400320, Note_on_c, 14, 45, 58
10, 400608, Note_on_c, 14, 45, 0
10, 400800, Note_on_c, 14, 33, 58
10, 401088, Note_on_c, 14, 33, 0
10, 401280, Note_on_c, 14, 43, 58
10, 401568, Note_on_c, 14, 43, 0
10, 401760, Note_on_c, 14, 42, 58
10, 402144, Note_on_c, 14, 42, 0
10, 403200, Note_on_c, 14, 45, 58
10, 403488, Note_on_c, 14, 45, 0
10, 403680, Note_on_c, 14, 33, 58
10, 403968, Note_on_c, 14, 33, 0
10, 404160, Note_on_c, 14, 43, 58
10, 404448, Note_on_c, 14, 43, 0
10, 404640, Note_on_c, 14, 42, 58
10, 405024, Note_on_c, 14, 42, 0
10, 406080, Note_on_c, 14, 43, 105
10, 406392, Note_on_c, 14, 43, 0
10, 406560, Note_on_c, 14, 40, 105
10, 406872, Note_on_c, 14, 40, 0
10, 407040, Note_on_c, 14, 45, 105
10, 407352, Note_on_c, 14, 45, 0
10, 407520, Note_on_c, 14, 47, 105
10, 407832, Note_on_c, 14, 47, 0
10, 408000, Note_on_c, 14, 50, 105
10, 408312, Note_on_c, 14, 50, 0
10, 408480, Note_on_c, 14, 42, 105
10, 408792, Note_on_c, 14, 42, 0
10, 408960, Note_on_c, 14, 43, 105
10, 409272, Note_on_c, 14, 43, 0
10, 409440, Note_on_c, 14, 40, 105
10, 409752, Note_on_c, 14, 40, 0
10, 409920, Note_on_c, 14, 45, 105
10, 410232, Note_on_c, 14, 45, 0
10, 410400, Note_on_c, 14, 38, 105
10, 411168, Note_on_c, 14, 38, 0
10, 413280, Note_on_c, 14, 26, 1
10, 414048, Note_on_c, 14, 26, 0
10, 414048, End_track
11, 0, Start_track
11, 0, Sequencer_specific, 04, 43, 00, 01, 00
11, 0, Program_c, 6, 45
11, 0, Control_c, 6, 7, 99
11, 0, End_track
12, 0, Start_track
12, 0, Sequencer_specific, 04, 43, 00, 01, 00
12, 0, Program_c, 7, 45
12, 0, Control_c, 7, 7, 99
12, 0, End_track
0, 0, End_of_file