0, 0, Header, 1, 3, 120
1, 0, Start_track
1, 0, Key_signature, 1, "major"
1, 0, Tempo, 545454
1, 0, Time_signature, 2, 2, 24, 8
1, 0, End_track
2, 0, Start_track
2, 0, Title_t, "Piano right"
2, 0, Control_c, 0, 7, 90
2, 0, Control_c, 0, 10, 35
2, 0, Program_c, 0, 0
2, 0, Note_on_c, 0, 79, 127
2, 0, Note_on_c, 0, 71, 127
2, 119, Note_on_c, 0, 71, 0
2, 119, Note_on_c, 0, 79, 0
2, 120, Note_on_c, 0, 79, 127
2, 150, Note_on_c, 0, 78, 127
2, 150, Note_on_c, 0, 79, 0
2, 180, Note_on_c, 0, 76, 127
2, 180, Note_on_c, 0, 78, 0
2, 210, Note_on_c, 0, 74, 127
2, 210, Note_on_c, 0, 76, 0
2, 240, Note_on_c, 0, 79, 127
2, 240, Note_on_c, 0, 74, 0
2, 265, Note_on_c, 0, 79, 0
2, 300, Note_on_c, 0, 74, 127
2, 325, Note_on_c, 0, 74, 0
2, 360, Note_on_c, 0, 71, 127
2, 385, Note_on_c, 0, 71, 0
2, 420, Note_on_c, 0, 67, 127
2, 445, Note_on_c, 0, 67, 0
2, 480, Note_on_c, 0, 76, 127
2, 480, Note_on_c, 0, 72, 127
2, 599, Note_on_c, 0, 72, 0
2, 599, Note_on_c, 0, 76, 0
2, 600, Note_on_c, 0, 78, 127
2, 600, Note_on_c, 0, 69, 127
2, 719, Note_on_c, 0, 69, 0
2, 719, Note_on_c, 0, 78, 0
2, 720, Note_on_c, 0, 79, 127
2, 720, Note_on_c, 0, 71, 127
2, 745, Note_on_c, 0, 71, 0
2, 745, Note_on_c, 0, 79, 0
2, 780, Note_on_c, 0, 74, 127
2, 805, Note_on_c, 0, 74, 0
2, 840, Note_on_c, 0, 71, 127
2, 865, Note_on_c, 0, 71, 0
2, 900, Note_on_c, 0, 67, 127
2, 925, Note_on_c, 0, 67, 0
2, 960, Note_on_c, 0, 81, 127
2, 990, Note_on_c, 0, 79, 127
2, 990, Note_on_c, 0, 81, 0
2, 1020, Note_on_c, 0, 81, 127
2, 1020, Note_on_c, 0, 79, 0
2, 1050, Note_on_c, 0, 83, 127
2, 1050, Note_on_c, 0, 81, 0
2, 1080, Note_on_c, 0, 81, 127
2, 1080, Note_on_c, 0, 83, 0
2, 1105, Note_on_c, 0, 81, 0
2, 1140, Note_on_c, 0, 83, 127
2, 1165, Note_on_c, 0, 83, 0
2, 1200, Note_on_c, 0, 81, 127
2, 1230, Note_on_c, 0, 79, 127
2, 1230, Note_on_c, 0, 81, 0
2, 1260, Note_on_c, 0, 81, 127
2, 1260, Note_on_c, 0, 79, 0
2, 1290, Note_on_c, 0, 83, 127
2, 1290, Note_on_c, 0, 81, 0
2, 1320, Note_on_c, 0, 81, 127
2, 1320, Note_on_c, 0, 83, 0
2, 1345, Note_on_c, 0, 81, 0
2, 1380, Note_on_c, 0, 83, 127
2, 1405, Note_on_c, 0, 83, 0
2, 1440, Note_on_c, 0, 81, 127
2, 1530, Note_on_c, 0, 79, 127
2, 1530, Note_on_c, 0, 81, 0
2, 1560, Note_on_c, 0, 78, 127
2, 1560, Note_on_c, 0, 79, 0
2, 1585, Note_on_c, 0, 78, 0
2, 1620, Note_on_c, 0, 76, 127
2, 1645, Note_on_c, 0, 76, 0
2, 1680, Note_on_c, 0, 74, 127
2, 1799, Note_on_c, 0, 74, 0
2, 1800, Note_on_c, 0, 74, 127
2, 1919, Note_on_c, 0, 74, 0
2, 1920, Note_on_c, 0, 79, 127
2, 1920, Note_on_c, 0, 71, 127
2, 2039, Note_on_c, 0, 71, 0
2, 2039, Note_on_c, 0, 79, 0
2, 2040, Note_on_c, 0, 79, 127
2, 2070, Note_on_c, 0, 78, 127
2, 2070, Note_on_c, 0, 79, 0
2, 2100, Note_on_c, 0, 76, 127
2, 2100, Note_on_c, 0, 78, 0
2, 2130, Note_on_c, 0, 74, 127
2, 2130, Note_on_c, 0, 76, 0
2, 2160, Note_on_c, 0, 79, 127
2, 2160, Note_on_c, 0, 74, 0
2, 2185, Note_on_c, 0, 79, 0
2, 2220, Note_on_c, 0, 74, 127
2, 2245, Note_on_c, 0, 74, 0
2, 2280, Note_on_c, 0, 71, 127
2, 2305, Note_on_c, 0, 71, 0
2, 2340, Note_on_c, 0, 67, 127
2, 2365, Note_on_c, 0, 67, 0
2, 2400, Note_on_c, 0, 76, 127
2, 2400, Note_on_c, 0, 72, 127
2, 2519, Note_on_c, 0, 72, 0
2, 2519, Note_on_c, 0, 76, 0
2, 2520, Note_on_c, 0, 78, 127
2, 2520, Note_on_c, 0, 69, 127
2, 2639, Note_on_c, 0, 69, 0
2, 2639, Note_on_c, 0, 78, 0
2, 2640, Note_on_c, 0, 79, 127
2, 2640, Note_on_c, 0, 71, 127
2, 2665, Note_on_c, 0, 71, 0
2, 2665, Note_on_c, 0, 79, 0
2, 2700, Note_on_c, 0, 74, 127
2, 2725, Note_on_c, 0, 74, 0
2, 2760, Note_on_c, 0, 71, 127
2, 2785, Note_on_c, 0, 71, 0
2, 2820, Note_on_c, 0, 67, 127
2, 2845, Note_on_c, 0, 67, 0
2, 2880, Note_on_c, 0, 81, 127
2, 2910, Note_on_c, 0, 79, 127
2, 2910, Note_on_c, 0, 81, 0
2, 2940, Note_on_c, 0, 81, 127
2, 2940, Note_on_c, 0, 79, 0
2, 2970, Note_on_c, 0, 83, 127
2, 2970, Note_on_c, 0, 81, 0
2, 3000, Note_on_c, 0, 81, 127
2, 3000, Note_on_c, 0, 83, 0
2, 3025, Note_on_c, 0, 81, 0
2, 3060, Note_on_c, 0, 83, 127
2, 3085, Note_on_c, 0, 83, 0
2, 3120, Note_on_c, 0, 81, 127
2, 3150, Note_on_c, 0, 79, 127
2, 3150, Note_on_c, 0, 81, 0
2, 3180, Note_on_c, 0, 81, 127
2, 3180, Note_on_c, 0, 79, 0
2, 3210, Note_on_c, 0, 83, 127
2, 3210, Note_on_c, 0, 81, 0
2, 3240, Note_on_c, 0, 81, 127
2, 3240, Note_on_c, 0, 83, 0
2, 3265, Note_on_c, 0, 81, 0
2, 3300, Note_on_c, 0, 83, 127
2, 3325, Note_on_c, 0, 83, 0
2, 3360, Note_on_c, 0, 81, 127
2, 3450, Note_on_c, 0, 79, 127
2, 3450, Note_on_c, 0, 81, 0
2, 3480, Note_on_c, 0, 78, 127
2, 3480, Note_on_c, 0, 79, 0
2, 3505, Note_on_c, 0, 78, 0
2, 3540, Note_on_c, 0, 76, 127
2, 3565, Note_on_c, 0, 76, 0
2, 3600, Note_on_c, 0, 74, 127
2, 3719, Note_on_c, 0, 74, 0
2, 3720, Note_on_c, 0, 74, 127
2, 3839, Note_on_c, 0, 74, 0
2, 3840, Note_on_c, 0, 74, 127
2, 3870, Note_on_c, 0, 76, 127
2, 3870, Note_on_c, 0, 74, 0
2, 3900, Note_on_c, 0, 74, 127
2, 3900, Note_on_c, 0, 76, 0
2, 3930, Note_on_c, 0, 71, 127
2, 3930, Note_on_c, 0, 74, 0
2, 3960, Note_on_c, 0, 74, 127
2, 3960, Note_on_c, 0, 71, 0
2, 3990, Note_on_c, 0, 72, 127
2, 3990, Note_on_c, 0, 74, 0
2, 4020, Note_on_c, 0, 71, 127
2, 4020, Note_on_c, 0, 72, 0
2, 4050, Note_on_c, 0, 69, 127
2, 4050, Note_on_c, 0, 71, 0
2, 4080, Note_on_c, 0, 69, 127
2, 4080, Note_on_c, 0, 69, 0
2, 4105, Note_on_c, 0, 69, 0
2, 4140, Note_on_c, 0, 69, 127
2, 4165, Note_on_c, 0, 69, 0
2, 4200, Note_on_c, 0, 69, 127
2, 4319, Note_on_c, 0, 69, 0
2, 4320, Note_on_c, 0, 72, 127
2, 4350, Note_on_c, 0, 74, 127
2, 4350, Note_on_c, 0, 72, 0
2, 4380, Note_on_c, 0, 72, 127
2, 4380, Note_on_c, 0, 74, 0
2, 4410, Note_on_c, 0, 69, 127
2, 4410, Note_on_c, 0, 72, 0
2, 4440, Note_on_c, 0, 72, 127
2, 4440, Note_on_c, 0, 69, 0
2, 4470, Note_on_c, 0, 71, 127
2, 4470, Note_on_c, 0, 72, 0
2, 4500, Note_on_c, 0, 69, 127
2, 4500, Note_on_c, 0, 71, 0
2, 4530, Note_on_c, 0, 67, 127
2, 4530, Note_on_c, 0, 69, 0
2, 4560, Note_on_c, 0, 67, 127
2, 4560, Note_on_c, 0, 67, 0
2, 4585, Note_on_c, 0, 67, 0
2, 4620, Note_on_c, 0, 67, 127
2, 4645, Note_on_c, 0, 67, 0
2, 4680, Note_on_c, 0, 67, 127
2, 4799, Note_on_c, 0, 67, 0
2, 4800, Note_on_c, 0, 74, 127
2, 4830, Note_on_c, 0, 72, 127
2, 4830, Note_on_c, 0, 74, 0
2, 4860, Note_on_c, 0, 74, 127
2, 4860, Note_on_c, 0, 72, 0
2, 4890, Note_on_c, 0, 76, 127
2, 4890, Note_on_c, 0, 74, 0
2, 4920, Note_on_c, 0, 74, 127
2, 4920, Note_on_c, 0, 76, 0
2, 4945, Note_on_c, 0, 74, 0
2, 4980, Note_on_c, 0, 76, 127
2, 5005, Note_on_c, 0, 76, 0
2, 5040, Note_on_c, 0, 74, 127
2, 5070, Note_on_c, 0, 72, 127
2, 5070, Note_on_c, 0, 74, 0
2, 5100, Note_on_c, 0, 74, 127
2, 5100, Note_on_c, 0, 72, 0
2, 5130, Note_on_c, 0, 76, 127
2, 5130, Note_on_c, 0, 74, 0
2, 5160, Note_on_c, 0, 74, 127
2, 5160, Note_on_c, 0, 76, 0
2, 5185, Note_on_c, 0, 74, 0
2, 5220, Note_on_c, 0, 76, 127
2, 5245, Note_on_c, 0, 76, 0
2, 5280, Note_on_c, 0, 74, 127
2, 5370, Note_on_c, 0, 72, 127
2, 5370, Note_on_c, 0, 74, 0
2, 5400, Note_on_c, 0, 71, 127
2, 5400, Note_on_c, 0, 72, 0
2, 5425, Note_on_c, 0, 71, 0
2, 5460, Note_on_c, 0, 69, 127
2, 5485, Note_on_c, 0, 69, 0
2, 5520, Note_on_c, 0, 67, 127
2, 5639, Note_on_c, 0, 67, 0
2, 5640, Note_on_c, 0, 67, 127
2, 5759, Note_on_c, 0, 67, 0
2, 5760, Note_on_c, 0, 74, 127
2, 5790, Note_on_c, 0, 76, 127
2, 5790, Note_on_c, 0, 74, 0
2, 5820, Note_on_c, 0, 74, 127
2, 5820, Note_on_c, 0, 76, 0
2, 5850, Note_on_c, 0, 71, 127
2, 5850, Note_on_c, 0, 74, 0
2, 5880, Note_on_c, 0, 74, 127
2, 5880, Note_on_c, 0, 71, 0
2, 5910, Note_on_c, 0, 72, 127
2, 5910, Note_on_c, 0, 74, 0
2, 5940, Note_on_c, 0, 71, 127
2, 5940, Note_on_c, 0, 72, 0
2, 5970, Note_on_c, 0, 69, 127
2, 5970, Note_on_c, 0, 71, 0
2, 6000, Note_on_c, 0, 69, 127
2, 6000, Note_on_c, 0, 69, 0
2, 6025, Note_on_c, 0, 69, 0
2, 6060, Note_on_c, 0, 69, 127
2, 6085, Note_on_c, 0, 69, 0
2, 6120, Note_on_c, 0, 69, 127
2, 6239, Note_on_c, 0, 69, 0
2, 6240, Note_on_c, 0, 72, 127
2, 6270, Note_on_c, 0, 74, 127
2, 6270, Note_on_c, 0, 72, 0
2, 6300, Note_on_c, 0, 72, 127
2, 6300, Note_on_c, 0, 74, 0
2, 6330, Note_on_c, 0, 69, 127
2, 6330, Note_on_c, 0, 72, 0
2, 6360, Note_on_c, 0, 72, 127
2, 6360, Note_on_c, 0, 69, 0
2, 6390, Note_on_c, 0, 71, 127
2, 6390, Note_on_c, 0, 72, 0
2, 6420, Note_on_c, 0, 69, 127
2, 6420, Note_on_c, 0, 71, 0
2, 6450, Note_on_c, 0, 67, 127
2, 6450, Note_on_c, 0, 69, 0
2, 6480, Note_on_c, 0, 67, 127
2, 6480, Note_on_c, 0, 67, 0
2, 6505, Note_on_c, 0, 67, 0
2, 6540, Note_on_c, 0, 67, 127
2, 6565, Note_on_c, 0, 67, 0
2, 6600, Note_on_c, 0, 67, 127
2, 6719, Note_on_c, 0, 67, 0
2, 6720, Note_on_c, 0, 74, 127
2, 6750, Note_on_c, 0, 72, 127
2, 6750, Note_on_c, 0, 74, 0
2, 6780, Note_on_c, 0, 74, 127
2, 6780, Note_on_c, 0, 72, 0
2, 6810, Note_on_c, 0, 76, 127
2, 6810, Note_on_c, 0, 74, 0
2, 6840, Note_on_c, 0, 74, 127
2, 6840, Note_on_c, 0, 76, 0
2, 6865, Note_on_c, 0, 74, 0
2, 6900, Note_on_c, 0, 76, 127
2, 6925, Note_on_c, 0, 76, 0
2, 6960, Note_on_c, 0, 74, 127
2, 6990, Note_on_c, 0, 72, 127
2, 6990, Note_on_c, 0, 74, 0
2, 7020, Note_on_c, 0, 74, 127
2, 7020, Note_on_c, 0, 72, 0
2, 7050, Note_on_c, 0, 76, 127
2, 7050, Note_on_c, 0, 74, 0
2, 7080, Note_on_c, 0, 74, 127
2, 7080, Note_on_c, 0, 76, 0
2, 7105, Note_on_c, 0, 74, 0
2, 7140, Note_on_c, 0, 76, 127
2, 7165, Note_on_c, 0, 76, 0
2, 7200, Note_on_c, 0, 74, 127
2, 7290, Note_on_c, 0, 72, 127
2, 7290, Note_on_c, 0, 74, 0
2, 7320, Note_on_c, 0, 71, 127
2, 7320, Note_on_c, 0, 72, 0
2, 7345, Note_on_c, 0, 71, 0
2, 7380, Note_on_c, 0, 69, 127
2, 7405, Note_on_c, 0, 69, 0
2, 7440, Note_on_c, 0, 67, 127
2, 7559, Note_on_c, 0, 67, 0
2, 7560, Note_on_c, 0, 67, 127
2, 7679, Note_on_c, 0, 67, 0
2, 7679, End_track
3, 0, Start_track
3, 0, Title_t, "Piano left"
3, 0, Control_c, 1, 7, 85
3, 0, Control_c, 1, 10, 90
3, 0, Program_c, 1, 0
3, 0, Note_on_c, 1, 55, 127
3, 119, Note_on_c, 1, 55, 0
3, 120, Note_on_c, 1, 50, 127
3, 240, Note_on_c, 1, 55, 127
3, 240, Note_on_c, 1, 50, 0
3, 265, Note_on_c, 1, 55, 0
3, 300, Note_on_c, 1, 50, 127
3, 325, Note_on_c, 1, 50, 0
3, 360, Note_on_c, 1, 47, 127
3, 385, Note_on_c, 1, 47, 0
3, 420, Note_on_c, 1, 43, 127
3, 445, Note_on_c, 1, 43, 0
3, 480, Note_on_c, 1, 55, 127
3, 505, Note_on_c, 1, 55, 0
3, 540, Note_on_c, 1, 55, 127
3, 565, Note_on_c, 1, 55, 0
3, 600, Note_on_c, 1, 55, 127
3, 625, Note_on_c, 1, 55, 0
3, 660, Note_on_c, 1, 55, 127
3, 685, Note_on_c, 1, 55, 0
3, 720, Note_on_c, 1, 55, 127
3, 745, Note_on_c, 1, 55, 0
3, 780, Note_on_c, 1, 62, 127
3, 805, Note_on_c, 1, 62, 0
3, 840, Note_on_c, 1, 59, 127
3, 865, Note_on_c, 1, 59, 0
3, 900, Note_on_c, 1, 55, 127
3, 925, Note_on_c, 1, 55, 0
3, 960, Note_on_c, 1, 54, 127
3, 960, Note_on_c, 1, 50, 127
3, 990, Note_on_c, 1, 52, 127
3, 990, Note_on_c, 1, 54, 0
3, 1020, Note_on_c, 1, 54, 127
3, 1020, Note_on_c, 1, 52, 0
3, 1050, Note_on_c, 1, 55, 127
3, 1050, Note_on_c, 1, 54, 0
3, 1080, Note_on_c, 1, 54, 127
3, 1080, Note_on_c, 1, 55, 0
3, 1105, Note_on_c, 1, 54, 0
3, 1140, Note_on_c, 1, 55, 127
3, 1165, Note_on_c, 1, 55, 0
3, 1199, Note_on_c, 1, 50, 0
3, 1200, Note_on_c, 1, 54, 127
3, 1200, Note_on_c, 1, 50, 127
3, 1230, Note_on_c, 1, 52, 127
3, 1230, Note_on_c, 1, 54, 0
3, 1260, Note_on_c, 1, 54, 127
3, 1260, Note_on_c, 1, 52, 0
3, 1290, Note_on_c, 1, 55, 127
3, 1290, Note_on_c, 1, 54, 0
3, 1320, Note_on_c, 1, 54, 127
3, 1320, Note_on_c, 1, 55, 0
3, 1345, Note_on_c, 1, 54, 0
3, 1380, Note_on_c, 1, 55, 127
3, 1405, Note_on_c, 1, 55, 0
3, 1439, Note_on_c, 1, 50, 0
3, 1440, Note_on_c, 1, 54, 127
3, 1440, Note_on_c, 1, 45, 127
3, 1530, Note_on_c, 1, 52, 127
3, 1530, Note_on_c, 1, 54, 0
3, 1560, Note_on_c, 1, 50, 127
3, 1560, Note_on_c, 1, 52, 0
3, 1585, Note_on_c, 1, 50, 0
3, 1620, Note_on_c, 1, 49, 127
3, 1645, Note_on_c, 1, 49, 0
3, 1679, Note_on_c, 1, 45, 0
3, 1680, Note_on_c, 1, 50, 127
3, 1680, Note_on_c, 1, 38, 127
3, 1799, Note_on_c, 1, 38, 0
3, 1799, Note_on_c, 1, 50, 0
3, 1800, Note_on_c, 1, 50, 127
3, 1800, Note_on_c, 1, 38, 127
3, 1919, Note_on_c, 1, 38, 0
3, 1919, Note_on_c, 1, 50, 0
3, 1920, Note_on_c, 1, 55, 127
3, 2039, Note_on_c, 1, 55, 0
3, 2040, Note_on_c, 1, 50, 127
3, 2160, Note_on_c, 1, 55, 127
3, 2160, Note_on_c, 1, 50, 0
3, 2185, Note_on_c, 1, 55, 0
3, 2220, Note_on_c, 1, 50, 127
3, 2245, Note_on_c, 1, 50, 0
3, 2280, Note_on_c, 1, 47, 127
3, 2305, Note_on_c, 1, 47, 0
3, 2340, Note_on_c, 1, 43, 127
3, 2365, Note_on_c, 1, 43, 0
3, 2400, Note_on_c, 1, 55, 127
3, 2425, Note_on_c, 1, 55, 0
3, 2460, Note_on_c, 1, 55, 127
3, 2485, Note_on_c, 1, 55, 0
3, 2520, Note_on_c, 1, 55, 127
3, 2545, Note_on_c, 1, 55, 0
3, 2580, Note_on_c, 1, 55, 127
3, 2605, Note_on_c, 1, 55, 0
3, 2640, Note_on_c, 1, 55, 127
3, 2665, Note_on_c, 1, 55, 0
3, 2700, Note_on_c, 1, 62, 127
3, 2725, Note_on_c, 1, 62, 0
3, 2760, Note_on_c, 1, 59, 127
3, 2785, Note_on_c, 1, 59, 0
3, 2820, Note_on_c, 1, 55, 127
3, 2845, Note_on_c, 1, 55, 0
3, 2880, Note_on_c, 1, 54, 127
3, 2880, Note_on_c, 1, 50, 127
3, 2910, Note_on_c, 1, 52, 127
3, 2910, Note_on_c, 1, 54, 0
3, 2940, Note_on_c, 1, 54, 127
3, 2940, Note_on_c, 1, 52, 0
3, 2970, Note_on_c, 1, 55, 127
3, 2970, Note_on_c, 1, 54, 0
3, 3000, Note_on_c, 1, 54, 127
3, 3000, Note_on_c, 1, 55, 0
3, 3025, Note_on_c, 1, 54, 0
3, 3060, Note_on_c, 1, 55, 127
3, 3085, Note_on_c, 1, 55, 0
3, 3119, Note_on_c, 1, 50, 0
3, 3120, Note_on_c, 1, 54, 127
3, 3120, Note_on_c, 1, 50, 127
3, 3150, Note_on_c, 1, 52, 127
3, 3150, Note_on_c, 1, 54, 0
3, 3180, Note_on_c, 1, 54, 127
3, 3180, Note_on_c, 1, 52, 0
3, 3210, Note_on_c, 1, 55, 127
3, 3210, Note_on_c, 1, 54, 0
3, 3240, Note_on_c, 1, 54, 127
3, 3240, Note_on_c, 1, 55, 0
3, 3265, Note_on_c, 1, 54, 0
3, 3300, Note_on_c, 1, 55, 127
3, 3325, Note_on_c, 1, 55, 0
3, 3359, Note_on_c, 1, 50, 0
3, 3360, Note_on_c, 1, 54, 127
3, 3360, Note_on_c, 1, 45, 127
3, 3450, Note_on_c, 1, 52, 127
3, 3450, Note_on_c, 1, 54, 0
3, 3480, Note_on_c, 1, 50, 127
3, 3480, Note_on_c, 1, 52, 0
3, 3505, Note_on_c, 1, 50, 0
3, 3540, Note_on_c, 1, 49, 127
3, 3565, Note_on_c, 1, 49, 0
3, 3599, Note_on_c, 1, 45, 0
3, 3600, Note_on_c, 1, 50, 127
3, 3600, Note_on_c, 1, 38, 127
3, 3719, Note_on_c, 1, 38, 0
3, 3719, Note_on_c, 1, 50, 0
3, 3720, Note_on_c, 1, 50, 127
3, 3720, Note_on_c, 1, 38, 127
3, 3839, Note_on_c, 1, 38, 0
3, 3839, Note_on_c, 1, 50, 0
3, 3840, Note_on_c, 1, 56, 127
3, 3960, Note_on_c, 1, 57, 127
3, 3960, Note_on_c, 1, 56, 0
3, 4080, Note_on_c, 1, 64, 127
3, 4080, Note_on_c, 1, 60, 127
3, 4080, Note_on_c, 1, 57, 0
3, 4105, Note_on_c, 1, 60, 0
3, 4105, Note_on_c, 1, 64, 0
3, 4140, Note_on_c, 1, 64, 127
3, 4140, Note_on_c, 1, 60, 127
3, 4165, Note_on_c, 1, 60, 0
3, 4165, Note_on_c, 1, 64, 0
3, 4200, Note_on_c, 1, 64, 127
3, 4200, Note_on_c, 1, 60, 127
3, 4319, Note_on_c, 1, 60, 0
3, 4319, Note_on_c, 1, 64, 0
3, 4320, Note_on_c, 1, 54, 127
3, 4440, Note_on_c, 1, 55, 127
3, 4440, Note_on_c, 1, 54, 0
3, 4560, Note_on_c, 1, 62, 127
3, 4560, Note_on_c, 1, 59, 127
3, 4560, Note_on_c, 1, 55, 0
3, 4585, Note_on_c, 1, 59, 0
3, 4585, Note_on_c, 1, 62, 0
3, 4620, Note_on_c, 1, 62, 127
3, 4620, Note_on_c, 1, 59, 127
3, 4645, Note_on_c, 1, 59, 0
3, 4645, Note_on_c, 1, 62, 0
3, 4680, Note_on_c, 1, 62, 127
3, 4680, Note_on_c, 1, 59, 127
3, 4799, Note_on_c, 1, 59, 0
3, 4799, Note_on_c, 1, 62, 0
3, 4800, Note_on_c, 1, 59, 127
3, 4800, Note_on_c, 1, 55, 127
3, 4830, Note_on_c, 1, 57, 127
3, 4830, Note_on_c, 1, 59, 0
3, 4860, Note_on_c, 1, 59, 127
3, 4860, Note_on_c, 1, 57, 0
3, 4890, Note_on_c, 1, 60, 127
3, 4890, Note_on_c, 1, 59, 0
3, 4920, Note_on_c, 1, 59, 127
3, 4920, Note_on_c, 1, 60, 0
3, 4945, Note_on_c, 1, 59, 0
3, 4980, Note_on_c, 1, 60, 127
3, 5005, Note_on_c, 1, 60, 0
3, 5039, Note_on_c, 1, 55, 0
3, 5040, Note_on_c, 1, 59, 127
3, 5040, Note_on_c, 1, 55, 127
3, 5070, Note_on_c, 1, 57, 127
3, 5070, Note_on_c, 1, 59, 0
3, 5100, Note_on_c, 1, 59, 127
3, 5100, Note_on_c, 1, 57, 0
3, 5130, Note_on_c, 1, 60, 127
3, 5130, Note_on_c, 1, 59, 0
3, 5160, Note_on_c, 1, 59, 127
3, 5160, Note_on_c, 1, 60, 0
3, 5185, Note_on_c, 1, 59, 0
3, 5220, Note_on_c, 1, 60, 127
3, 5245, Note_on_c, 1, 60, 0
3, 5279, Note_on_c, 1, 55, 0
3, 5280, Note_on_c, 1, 59, 127
3, 5280, Note_on_c, 1, 55, 127
3, 5280, Note_on_c, 1, 50, 127
3, 5399, Note_on_c, 1, 50, 0
3, 5399, Note_on_c, 1, 55, 0
3, 5399, Note_on_c, 1, 59, 0
3, 5400, Note_on_c, 1, 57, 127
3, 5400, Note_on_c, 1, 50, 127
3, 5519, Note_on_c, 1, 50, 0
3, 5519, Note_on_c, 1, 57, 0
3, 5520, Note_on_c, 1, 55, 127
3, 5639, Note_on_c, 1, 55, 0
3, 5640, Note_on_c, 1, 55, 127
3, 5759, Note_on_c, 1, 55, 0
3, 5760, Note_on_c, 1, 56, 127
3, 5880, Note_on_c, 1, 57, 127
3, 5880, Note_on_c, 1, 56, 0
3, 6000, Note_on_c, 1, 64, 127
3, 6000, Note_on_c, 1, 60, 127
3, 6000, Note_on_c, 1, 57, 0
3, 6025, Note_on_c, 1, 60, 0
3, 6025, Note_on_c, 1, 64, 0
3, 6060, Note_on_c, 1, 64, 127
3, 6060, Note_on_c, 1, 60, 127
3, 6085, Note_on_c, 1, 60, 0
3, 6085, Note_on_c, 1, 64, 0
3, 6120, Note_on_c, 1, 64, 127
3, 6120, Note_on_c, 1, 60, 127
3, 6239, Note_on_c, 1, 60, 0
3, 6239, Note_on_c, 1, 64, 0
3, 6240, Note_on_c, 1, 54, 127
3, 6360, Note_on_c, 1, 55, 127
3, 6360, Note_on_c, 1, 54, 0
3, 6480, Note_on_c, 1, 62, 127
3, 6480, Note_on_c, 1, 59, 127
3, 6480, Note_on_c, 1, 55, 0
3, 6505, Note_on_c, 1, 59, 0
3, 6505, Note_on_c, 1, 62, 0
3, 6540, Note_on_c, 1, 62, 127
3, 6540, Note_on_c, 1, 59, 127
3, 6565, Note_on_c, 1, 59, 0
3, 6565, Note_on_c, 1, 62, 0
3, 6600, Note_on_c, 1, 62, 127
3, 6600, Note_on_c, 1, 59, 127
3, 6719, Note_on_c, 1, 59, 0
3, 6719, Note_on_c, 1, 62, 0
3, 6720, Note_on_c, 1, 59, 127
3, 6720, Note_on_c, 1, 55, 127
3, 6750, Note_on_c, 1, 57, 127
3, 6750, Note_on_c, 1, 59, 0
3, 6780, Note_on_c, 1, 59, 127
3, 6780, Note_on_c, 1, 57, 0
3, 6810, Note_on_c, 1, 60, 127
3, 6810, Note_on_c, 1, 59, 0
3, 6840, Note_on_c, 1, 59, 127
3, 6840, Note_on_c, 1, 60, 0
3, 6865, Note_on_c, 1, 59, 0
3, 6900, Note_on_c, 1, 60, 127
3, 6925, Note_on_c, 1, 60, 0
3, 6959, Note_on_c, 1, 55, 0
3, 6960, Note_on_c, 1, 59, 127
3, 6960, Note_on_c, 1, 55, 127
3, 6990, Note_on_c, 1, 57, 127
3, 6990, Note_on_c, 1, 59, 0
3, 7020, Note_on_c, 1, 59, 127
3, 7020, Note_on_c, 1, 57, 0
3, 7050, Note_on_c, 1, 60, 127
3, 7050, Note_on_c, 1, 59, 0
3, 7080, Note_on_c, 1, 59, 127
3, 7080, Note_on_c, 1, 60, 0
3, 7105, Note_on_c, 1, 59, 0
3, 7140, Note_on_c, 1, 60, 127
3, 7165, Note_on_c, 1, 60, 0
3, 7199, Note_on_c, 1, 55, 0
3, 7200, Note_on_c, 1, 59, 127
3, 7200, Note_on_c, 1, 55, 127
3, 7200, Note_on_c, 1, 50, 127
3, 7319, Note_on_c, 1, 50, 0
3, 7319, Note_on_c, 1, 55, 0
3, 7319, Note_on_c, 1, 59, 0
3, 7320, Note_on_c, 1, 57, 127
3, 7320, Note_on_c, 1, 50, 127
3, 7439, Note_on_c, 1, 50, 0
3, 7439, Note_on_c, 1, 57, 0
3, 7440, Note_on_c, 1, 55, 127
3, 7559, Note_on_c, 1, 55, 0
3, 7560, Note_on_c, 1, 55, 127
3, 7679, Note_on_c, 1, 55, 0
3, 7679, End_track
0, 0, End_of_file