0, 0, Header, 1, 15, 120
1, 0, Start_track
1, 0, Key_signature, -3, "major"
1, 0, System_exclusive, 0A, 41, 10, 42, 12, 40, 00, 7F, 00, 41, F7
1, 0, System_exclusive, 0A, 41, 10, 42, 12, 40, 01, 30, 03, 0C, F7
1, 0, System_exclusive, 26, 41, 10, 45, 12, 10, 00, 00, 43, 6F, 70, 79, 72, 69, 67, 68, 74, 20, 31, 39, 39, 39, 2C, 20, 4A, 20, 43, 20, 57, 61, 68, 6C, 73, 74, 72, 6F, 6D, 61, F7
1, 0, Time_signature, 4, 2, 24, 8
1, 0, Tempo, 240000
1, 480, Tempo, 375000
1, 4440, Tempo, 500000
1, 4560, Tempo, 375000
1, 6360, Tempo, 428571
1, 6480, Tempo, 375000
1, 9240, Tempo, 461538
1, 9360, Tempo, 375000
1, 14040, Tempo, 461538
1, 14160, Tempo, 375000
1, 46800, Tempo, 500000
1, 46920, Tempo, 428571
1, 47040, Tempo, 375000
1, 62220, Tempo, 1500000
1, 62280, Tempo, 428571
1, 62400, Tempo, 413793
1, 94680, Tempo, 413793
1, 94800, Tempo, 600000
1, 94860, Tempo, 413793
1, 104160, Tempo, 428571
1, 104520, Tempo, 413793
1, 105600, Tempo, 600000
1, 105660, Tempo, 444444
1, 106560, Tempo, 413793
1, 109920, Tempo, 461538
1, 110160, Tempo, 600000
1, 110220, Tempo, 413793
1, 111240, Tempo, 444444
1, 111600, Tempo, 428571
1, 111720, Tempo, 461538
1, 111840, Tempo, 521739
1, 111960, Tempo, 631579
1, 112320, Tempo, 428571
1, 120960, Tempo, 500000
1, 121200, Tempo, 428571
1, 121800, Tempo, 428571
1, 121920, Tempo, 428571
1, 122880, Tempo, 437956
1, 123120, Tempo, 451128
1, 123240, Tempo, 461538
1, 123360, Tempo, 666667
1, 123480, Tempo, 428571
1, 127920, Tempo, 461538
1, 128160, Tempo, 500000
1, 128640, Tempo, 444444
1, 128880, Tempo, 480000
1, 129120, Tempo, 521739
1, 129600, Tempo, 461538
1, 130560, Tempo, 500000
1, 130680, Tempo, 495868
1, 130800, Tempo, 491803
1, 130920, Tempo, 487805
1, 131040, Tempo, 476190
1, 131160, Tempo, 468750
1, 131280, Tempo, 461538
1, 131520, Time_signature, 6, 3, 12, 8
1, 131520, Tempo, 315789
1, 154920, Tempo, 333333
1, 154920, End_track
2, 0, Start_track
2, 0, MIDI_port, 0
2, 0, Title_t, "Piano rh"
2, 20, Control_c, 0, 121, 0
2, 21, Control_c, 0, 11, 127
2, 21, Control_c, 0, 7, 127
2, 22, Control_c, 0, 93, 10
2, 22, Control_c, 0, 91, 79
2, 25, Control_c, 0, 10, 74
2, 26, Pitch_bend_c, 0, 8192
2, 27, Control_c, 0, 0, 0
2, 28, Control_c, 0, 32, 0
2, 29, Program_c, 0, 0
2, 16140, Note_on_c, 0, 66, 35
2, 16199, Note_on_c, 0, 66, 0
2, 16200, Note_on_c, 0, 68, 41
2, 16259, Note_on_c, 0, 68, 0
2, 16260, Note_on_c, 0, 67, 48
2, 16319, Note_on_c, 0, 67, 0
2, 16320, Note_on_c, 0, 77, 55
2, 16339, Note_on_c, 0, 77, 0
2, 16380, Note_on_c, 0, 76, 52
2, 16439, Note_on_c, 0, 76, 0
2, 16440, Note_on_c, 0, 75, 48
2, 16499, Note_on_c, 0, 75, 0
2, 16500, Note_on_c, 0, 67, 44
2, 16559, Note_on_c, 0, 67, 0
2, 16560, Note_on_c, 0, 75, 55
2, 16579, Note_on_c, 0, 75, 0
2, 16620, Note_on_c, 0, 73, 52
2, 16679, Note_on_c, 0, 73, 0
2, 16680, Note_on_c, 0, 74, 48
2, 16739, Note_on_c, 0, 74, 0
2, 16740, Note_on_c, 0, 67, 44
2, 16799, Note_on_c, 0, 67, 0
2, 16800, Note_on_c, 0, 74, 44
2, 16859, Note_on_c, 0, 74, 0
2, 16860, Note_on_c, 0, 71, 46
2, 16919, Note_on_c, 0, 71, 0
2, 16920, Note_on_c, 0, 72, 48
2, 16949, Note_on_c, 0, 72, 0
2, 16980, Note_on_c, 0, 79, 51
2, 16999, Note_on_c, 0, 79, 0
2, 17040, Note_on_c, 0, 80, 53
2, 17059, Note_on_c, 0, 80, 0
2, 17100, Note_on_c, 0, 81, 55
2, 17119, Note_on_c, 0, 81, 0
2, 17160, Note_on_c, 0, 82, 58
2, 17179, Note_on_c, 0, 82, 0
2, 17220, Note_on_c, 0, 83, 60
2, 17239, Note_on_c, 0, 83, 0
2, 17280, Note_on_c, 0, 84, 63
2, 17299, Note_on_c, 0, 84, 0
2, 17340, Note_on_c, 0, 84, 55
2, 17359, Note_on_c, 0, 84, 0
2, 17400, Note_on_c, 0, 83, 53
2, 17419, Note_on_c, 0, 83, 0
2, 17460, Note_on_c, 0, 82, 50
2, 17479, Note_on_c, 0, 82, 0
2, 17520, Note_on_c, 0, 81, 47
2, 17539, Note_on_c, 0, 81, 0
2, 17580, Note_on_c, 0, 80, 44
2, 17599, Note_on_c, 0, 80, 0
2, 17640, Note_on_c, 0, 79, 41
2, 17659, Note_on_c, 0, 79, 0
2, 17700, Note_on_c, 0, 78, 38
2, 17719, Note_on_c, 0, 78, 0
2, 17760, Note_on_c, 0, 79, 35
2, 17819, Note_on_c, 0, 79, 0
2, 17820, Note_on_c, 0, 83, 36
2, 17879, Note_on_c, 0, 83, 0
2, 17880, Note_on_c, 0, 86, 37
2, 17894, Note_on_c, 0, 86, 0
2, 17940, Note_on_c, 0, 83, 39
2, 17954, Note_on_c, 0, 83, 0
2, 18000, Note_on_c, 0, 79, 40
2, 18014, Note_on_c, 0, 79, 0
2, 18060, Note_on_c, 0, 74, 42
2, 18074, Note_on_c, 0, 74, 0
2, 18120, Note_on_c, 0, 71, 43
2, 18134, Note_on_c, 0, 71, 0
2, 18180, Note_on_c, 0, 67, 45
2, 18194, Note_on_c, 0, 67, 0
2, 18240, Note_on_c, 0, 68, 46
2, 18269, Note_on_c, 0, 68, 0
2, 18300, Note_on_c, 0, 70, 37
2, 18319, Note_on_c, 0, 70, 0
2, 18320, Note_on_c, 0, 68, 37
2, 18339, Note_on_c, 0, 68, 0
2, 18340, Note_on_c, 0, 67, 38
2, 18359, Note_on_c, 0, 67, 0
2, 18360, Note_on_c, 0, 68, 38
2, 18389, Note_on_c, 0, 68, 0
2, 18420, Note_on_c, 0, 70, 40
2, 18449, Note_on_c, 0, 70, 0
2, 18480, Note_on_c, 0, 72, 47
2, 18509, Note_on_c, 0, 72, 0
2, 18540, Note_on_c, 0, 73, 42
2, 18559, Note_on_c, 0, 73, 0
2, 18560, Note_on_c, 0, 72, 43
2, 18579, Note_on_c, 0, 72, 0
2, 18580, Note_on_c, 0, 70, 43
2, 18599, Note_on_c, 0, 70, 0
2, 18600, Note_on_c, 0, 72, 44
2, 18629, Note_on_c, 0, 72, 0
2, 18660, Note_on_c, 0, 74, 45
2, 18689, Note_on_c, 0, 74, 0
2, 18720, Note_on_c, 0, 75, 51
2, 18749, Note_on_c, 0, 75, 0
2, 18780, Note_on_c, 0, 77, 48
2, 18799, Note_on_c, 0, 77, 0
2, 18800, Note_on_c, 0, 75, 48
2, 18819, Note_on_c, 0, 75, 0
2, 18820, Note_on_c, 0, 74, 49
2, 18839, Note_on_c, 0, 74, 0
2, 18840, Note_on_c, 0, 75, 49
2, 18869, Note_on_c, 0, 75, 0
2, 18900, Note_on_c, 0, 77, 51
2, 18929, Note_on_c, 0, 77, 0
2, 18960, Note_on_c, 0, 79, 57
2, 18989, Note_on_c, 0, 79, 0
2, 19020, Note_on_c, 0, 81, 53
2, 19039, Note_on_c, 0, 81, 0
2, 19040, Note_on_c, 0, 79, 54
2, 19059, Note_on_c, 0, 79, 0
2, 19060, Note_on_c, 0, 78, 54
2, 19079, Note_on_c, 0, 78, 0
2, 19080, Note_on_c, 0, 79, 55
2, 19109, Note_on_c, 0, 79, 0
2, 19140, Note_on_c, 0, 81, 56
2, 19169, Note_on_c, 0, 81, 0
2, 19200, Note_on_c, 0, 82, 63
2, 19229, Note_on_c, 0, 82, 0
2, 19260, Note_on_c, 0, 84, 59
2, 19279, Note_on_c, 0, 84, 0
2, 19280, Note_on_c, 0, 82, 59
2, 19299, Note_on_c, 0, 82, 0
2, 19300, Note_on_c, 0, 81, 60
2, 19319, Note_on_c, 0, 81, 0
2, 19320, Note_on_c, 0, 82, 60
2, 19349, Note_on_c, 0, 82, 0
2, 19380, Note_on_c, 0, 84, 62
2, 19409, Note_on_c, 0, 84, 0
2, 19440, Note_on_c, 0, 86, 72
2, 19469, Note_on_c, 0, 86, 0
2, 19500, Note_on_c, 0, 86, 64
2, 19529, Note_on_c, 0, 86, 0
2, 19560, Note_on_c, 0, 86, 54
2, 19589, Note_on_c, 0, 86, 0
2, 19620, Note_on_c, 0, 86, 54
2, 19649, Note_on_c, 0, 86, 0
2, 19680, Note_on_c, 0, 79, 44
2, 19739, Note_on_c, 0, 79, 0
2, 19980, Note_on_c, 0, 66, 45
2, 20039, Note_on_c, 0, 66, 0
2, 20040, Note_on_c, 0, 68, 55
2, 20099, Note_on_c, 0, 68, 0
2, 20100, Note_on_c, 0, 67, 45
2, 20159, Note_on_c, 0, 67, 0
2, 20160, Note_on_c, 0, 77, 55
2, 20179, Note_on_c, 0, 77, 0
2, 20220, Note_on_c, 0, 76, 52
2, 20279, Note_on_c, 0, 76, 0
2, 20280, Note_on_c, 0, 75, 48
2, 20339, Note_on_c, 0, 75, 0
2, 20340, Note_on_c, 0, 67, 44
2, 20399, Note_on_c, 0, 67, 0
2, 20400, Note_on_c, 0, 75, 55
2, 20419, Note_on_c, 0, 75, 0
2, 20460, Note_on_c, 0, 73, 52
2, 20519, Note_on_c, 0, 73, 0
2, 20520, Note_on_c, 0, 74, 48
2, 20579, Note_on_c, 0, 74, 0
2, 20580, Note_on_c, 0, 67, 44
2, 20639, Note_on_c, 0, 67, 0
2, 20640, Note_on_c, 0, 74, 44
2, 20699, Note_on_c, 0, 74, 0
2, 20700, Note_on_c, 0, 71, 46
2, 20759, Note_on_c, 0, 71, 0
2, 20760, Note_on_c, 0, 72, 48
2, 20789, Note_on_c, 0, 72, 0
2, 20820, Note_on_c, 0, 79, 51
2, 20839, Note_on_c, 0, 79, 0
2, 20880, Note_on_c, 0, 80, 53
2, 20899, Note_on_c, 0, 80, 0
2, 20940, Note_on_c, 0, 81, 55
2, 20959, Note_on_c, 0, 81, 0
2, 21000, Note_on_c, 0, 82, 58
2, 21019, Note_on_c, 0, 82, 0
2, 21060, Note_on_c, 0, 83, 60
2, 21079, Note_on_c, 0, 83, 0
2, 21120, Note_on_c, 0, 84, 63
2, 21139, Note_on_c, 0, 84, 0
2, 21180, Note_on_c, 0, 84, 55
2, 21199, Note_on_c, 0, 84, 0
2, 21240, Note_on_c, 0, 83, 53
2, 21259, Note_on_c, 0, 83, 0
2, 21300, Note_on_c, 0, 82, 50
2, 21319, Note_on_c, 0, 82, 0
2, 21360, Note_on_c, 0, 81, 47
2, 21379, Note_on_c, 0, 81, 0
2, 21420, Note_on_c, 0, 80, 44
2, 21439, Note_on_c, 0, 80, 0
2, 21480, Note_on_c, 0, 79, 41
2, 21499, Note_on_c, 0, 79, 0
2, 21540, Note_on_c, 0, 78, 38
2, 21559, Note_on_c, 0, 78, 0
2, 21600, Note_on_c, 0, 79, 35
2, 21659, Note_on_c, 0, 79, 0
2, 21660, Note_on_c, 0, 83, 36
2, 21719, Note_on_c, 0, 83, 0
2, 21720, Note_on_c, 0, 86, 37
2, 21734, Note_on_c, 0, 86, 0
2, 21780, Note_on_c, 0, 83, 39
2, 21794, Note_on_c, 0, 83, 0
2, 21840, Note_on_c, 0, 79, 40
2, 21854, Note_on_c, 0, 79, 0
2, 21900, Note_on_c, 0, 74, 42
2, 21914, Note_on_c, 0, 74, 0
2, 21960, Note_on_c, 0, 71, 43
2, 21974, Note_on_c, 0, 71, 0
2, 22020, Note_on_c, 0, 67, 45
2, 22034, Note_on_c, 0, 67, 0
2, 22080, Note_on_c, 0, 68, 46
2, 22109, Note_on_c, 0, 68, 0
2, 22140, Note_on_c, 0, 70, 37
2, 22159, Note_on_c, 0, 70, 0
2, 22160, Note_on_c, 0, 68, 37
2, 22179, Note_on_c, 0, 68, 0
2, 22180, Note_on_c, 0, 67, 38
2, 22199, Note_on_c, 0, 67, 0
2, 22200, Note_on_c, 0, 68, 38
2, 22229, Note_on_c, 0, 68, 0
2, 22260, Note_on_c, 0, 70, 40
2, 22289, Note_on_c, 0, 70, 0
2, 22320, Note_on_c, 0, 72, 47
2, 22349, Note_on_c, 0, 72, 0
2, 22380, Note_on_c, 0, 73, 42
2, 22399, Note_on_c, 0, 73, 0
2, 22400, Note_on_c, 0, 72, 43
2, 22419, Note_on_c, 0, 72, 0
2, 22420, Note_on_c, 0, 70, 43
2, 22439, Note_on_c, 0, 70, 0
2, 22440, Note_on_c, 0, 72, 44
2, 22469, Note_on_c, 0, 72, 0
2, 22500, Note_on_c, 0, 74, 45
2, 22529, Note_on_c, 0, 74, 0
2, 22560, Note_on_c, 0, 75, 51
2, 22589, Note_on_c, 0, 75, 0
2, 22620, Note_on_c, 0, 77, 48
2, 22639, Note_on_c, 0, 77, 0
2, 22640, Note_on_c, 0, 75, 48
2, 22659, Note_on_c, 0, 75, 0
2, 22660, Note_on_c, 0, 74, 49
2, 22679, Note_on_c, 0, 74, 0
2, 22680, Note_on_c, 0, 75, 49
2, 22709, Note_on_c, 0, 75, 0
2, 22740, Note_on_c, 0, 77, 51
2, 22769, Note_on_c, 0, 77, 0
2, 22800, Note_on_c, 0, 79, 57
2, 22829, Note_on_c, 0, 79, 0
2, 22860, Note_on_c, 0, 81, 53
2, 22879, Note_on_c, 0, 81, 0
2, 22880, Note_on_c, 0, 79, 54
2, 22899, Note_on_c, 0, 79, 0
2, 22900, Note_on_c, 0, 78, 54
2, 22919, Note_on_c, 0, 78, 0
2, 22920, Note_on_c, 0, 79, 55
2, 22949, Note_on_c, 0, 79, 0
2, 22980, Note_on_c, 0, 81, 56
2, 23009, Note_on_c, 0, 81, 0
2, 23040, Note_on_c, 0, 82, 63
2, 23069, Note_on_c, 0, 82, 0
2, 23100, Note_on_c, 0, 84, 59
2, 23119, Note_on_c, 0, 84, 0
2, 23120, Note_on_c, 0, 82, 59
2, 23139, Note_on_c, 0, 82, 0
2, 23140, Note_on_c, 0, 81, 60
2, 23159, Note_on_c, 0, 81, 0
2, 23160, Note_on_c, 0, 82, 60
2, 23189, Note_on_c, 0, 82, 0
2, 23220, Note_on_c, 0, 84, 62
2, 23249, Note_on_c, 0, 84, 0
2, 23280, Note_on_c, 0, 86, 72
2, 23309, Note_on_c, 0, 86, 0
2, 23340, Note_on_c, 0, 86, 64
2, 23369, Note_on_c, 0, 86, 0
2, 23400, Note_on_c, 0, 86, 54
2, 23429, Note_on_c, 0, 86, 0
2, 23460, Note_on_c, 0, 86, 54
2, 23489, Note_on_c, 0, 86, 0
2, 23520, Note_on_c, 0, 79, 44
2, 23579, Note_on_c, 0, 79, 0
2, 23820, Note_on_c, 0, 67, 34
2, 23879, Note_on_c, 0, 67, 0
2, 23880, Note_on_c, 0, 80, 44
2, 23939, Note_on_c, 0, 80, 0
2, 23940, Note_on_c, 0, 79, 44
2, 23999, Note_on_c, 0, 79, 0
2, 24000, Note_on_c, 0, 78, 44
2, 24039, Note_on_c, 0, 78, 0
2, 24060, Note_on_c, 0, 67, 34
2, 24119, Note_on_c, 0, 67, 0
2, 24120, Note_on_c, 0, 79, 44
2, 24179, Note_on_c, 0, 79, 0
2, 24180, Note_on_c, 0, 77, 44
2, 24219, Note_on_c, 0, 77, 0
2, 24240, Note_on_c, 0, 76, 44
2, 24299, Note_on_c, 0, 76, 0
2, 24300, Note_on_c, 0, 67, 34
2, 24359, Note_on_c, 0, 67, 0
2, 24360, Note_on_c, 0, 79, 44
2, 24419, Note_on_c, 0, 79, 0
2, 24420, Note_on_c, 0, 75, 39
2, 24479, Note_on_c, 0, 75, 0
2, 24480, Note_on_c, 0, 74, 27
2, 24509, Note_on_c, 0, 74, 0
2, 24510, Note_on_c, 0, 67, 45
2, 24539, Note_on_c, 0, 67, 0
2, 24540, Note_on_c, 0, 69, 37
2, 24569, Note_on_c, 0, 69, 0
2, 24570, Note_on_c, 0, 71, 39
2, 24599, Note_on_c, 0, 71, 0
2, 24600, Note_on_c, 0, 72, 41
2, 24629, Note_on_c, 0, 72, 0
2, 24630, Note_on_c, 0, 74, 44
2, 24659, Note_on_c, 0, 74, 0
2, 24660, Note_on_c, 0, 75, 46
2, 24689, Note_on_c, 0, 75, 0
2, 24690, Note_on_c, 0, 77, 49
2, 24719, Note_on_c, 0, 77, 0
2, 24720, Note_on_c, 0, 79, 51
2, 24749, Note_on_c, 0, 79, 0
2, 24750, Note_on_c, 0, 81, 54
2, 24779, Note_on_c, 0, 81, 0
2, 24780, Note_on_c, 0, 83, 57
2, 24809, Note_on_c, 0, 83, 0
2, 24810, Note_on_c, 0, 84, 59
2, 24839, Note_on_c, 0, 84, 0
2, 24840, Note_on_c, 0, 86, 64
2, 24879, Note_on_c, 0, 86, 0
2, 24900, Note_on_c, 0, 80, 54
2, 25019, Note_on_c, 0, 80, 0
2, 25020, Note_on_c, 0, 79, 54
2, 25079, Note_on_c, 0, 79, 0
2, 25080, Note_on_c, 0, 87, 64
2, 25139, Note_on_c, 0, 87, 0
2, 25140, Note_on_c, 0, 79, 44
2, 25199, Note_on_c, 0, 79, 0
2, 25200, Note_on_c, 0, 78, 44
2, 25259, Note_on_c, 0, 78, 0
2, 25260, Note_on_c, 0, 87, 64
2, 25319, Note_on_c, 0, 87, 0
2, 25320, Note_on_c, 0, 86, 54
2, 25379, Note_on_c, 0, 86, 0
2, 25380, Note_on_c, 0, 77, 54
2, 25439, Note_on_c, 0, 77, 0
2, 25440, Note_on_c, 0, 75, 54
2, 25499, Note_on_c, 0, 75, 0
2, 25500, Note_on_c, 0, 84, 44
2, 25559, Note_on_c, 0, 84, 0
2, 25560, Note_on_c, 0, 79, 44
2, 25589, Note_on_c, 0, 79, 0
2, 25620, Note_on_c, 0, 75, 41
2, 25649, Note_on_c, 0, 75, 0
2, 25680, Note_on_c, 0, 72, 38
2, 25709, Note_on_c, 0, 72, 0
2, 25740, Note_on_c, 0, 67, 35
2, 25769, Note_on_c, 0, 67, 0
2, 25800, Note_on_c, 0, 63, 32
2, 25829, Note_on_c, 0, 63, 0
2, 25860, Note_on_c, 0, 60, 29
2, 25889, Note_on_c, 0, 60, 0
2, 25920, Note_on_c, 0, 61, 46
2, 25949, Note_on_c, 0, 61, 0
2, 25980, Note_on_c, 0, 63, 37
2, 25999, Note_on_c, 0, 63, 0
2, 26000, Note_on_c, 0, 61, 37
2, 26019, Note_on_c, 0, 61, 0
2, 26020, Note_on_c, 0, 60, 38
2, 26039, Note_on_c, 0, 60, 0
2, 26040, Note_on_c, 0, 61, 38
2, 26069, Note_on_c, 0, 61, 0
2, 26100, Note_on_c, 0, 63, 40
2, 26129, Note_on_c, 0, 63, 0
2, 26160, Note_on_c, 0, 65, 47
2, 26189, Note_on_c, 0, 65, 0
2, 26220, Note_on_c, 0, 67, 42
2, 26239, Note_on_c, 0, 67, 0
2, 26240, Note_on_c, 0, 65, 43
2, 26259, Note_on_c, 0, 65, 0
2, 26260, Note_on_c, 0, 63, 43
2, 26279, Note_on_c, 0, 63, 0
2, 26280, Note_on_c, 0, 65, 44
2, 26309, Note_on_c, 0, 65, 0
2, 26340, Note_on_c, 0, 67, 45
2, 26369, Note_on_c, 0, 67, 0
2, 26400, Note_on_c, 0, 68, 51
2, 26429, Note_on_c, 0, 68, 0
2, 26460, Note_on_c, 0, 70, 48
2, 26479, Note_on_c, 0, 70, 0
2, 26480, Note_on_c, 0, 68, 48
2, 26499, Note_on_c, 0, 68, 0
2, 26500, Note_on_c, 0, 67, 49
2, 26519, Note_on_c, 0, 67, 0
2, 26520, Note_on_c, 0, 68, 49
2, 26549, Note_on_c, 0, 68, 0
2, 26580, Note_on_c, 0, 70, 51
2, 26609, Note_on_c, 0, 70, 0
2, 26640, Note_on_c, 0, 72, 57
2, 26669, Note_on_c, 0, 72, 0
2, 26700, Note_on_c, 0, 74, 53
2, 26719, Note_on_c, 0, 74, 0
2, 26720, Note_on_c, 0, 72, 54
2, 26739, Note_on_c, 0, 72, 0
2, 26740, Note_on_c, 0, 71, 54
2, 26759, Note_on_c, 0, 71, 0
2, 26760, Note_on_c, 0, 72, 55
2, 26789, Note_on_c, 0, 72, 0
2, 26820, Note_on_c, 0, 74, 56
2, 26849, Note_on_c, 0, 74, 0
2, 26880, Note_on_c, 0, 75, 63
2, 26909, Note_on_c, 0, 75, 0
2, 26940, Note_on_c, 0, 77, 59
2, 26959, Note_on_c, 0, 77, 0
2, 26960, Note_on_c, 0, 75, 59
2, 26979, Note_on_c, 0, 75, 0
2, 26980, Note_on_c, 0, 74, 60
2, 26999, Note_on_c, 0, 74, 0
2, 27000, Note_on_c, 0, 75, 60
2, 27029, Note_on_c, 0, 75, 0
2, 27060, Note_on_c, 0, 77, 62
2, 27089, Note_on_c, 0, 77, 0
2, 27120, Note_on_c, 0, 79, 62
2, 27149, Note_on_c, 0, 79, 0
2, 27180, Note_on_c, 0, 79, 54
2, 27209, Note_on_c, 0, 79, 0
2, 27240, Note_on_c, 0, 79, 44
2, 27269, Note_on_c, 0, 79, 0
2, 27300, Note_on_c, 0, 79, 44
2, 27329, Note_on_c, 0, 79, 0
2, 27360, Note_on_c, 0, 72, 34
2, 27479, Note_on_c, 0, 72, 0
2, 27840, Note_on_c, 0, 78, 44
2, 27879, Note_on_c, 0, 78, 0
2, 27900, Note_on_c, 0, 67, 34
2, 27959, Note_on_c, 0, 67, 0
2, 27960, Note_on_c, 0, 79, 44
2, 28019, Note_on_c, 0, 79, 0
2, 28020, Note_on_c, 0, 77, 44
2, 28059, Note_on_c, 0, 77, 0
2, 28080, Note_on_c, 0, 76, 44
2, 28139, Note_on_c, 0, 76, 0
2, 28140, Note_on_c, 0, 67, 34
2, 28199, Note_on_c, 0, 67, 0
2, 28200, Note_on_c, 0, 79, 44
2, 28259, Note_on_c, 0, 79, 0
2, 28260, Note_on_c, 0, 75, 39
2, 28319, Note_on_c, 0, 75, 0
2, 28320, Note_on_c, 0, 74, 27
2, 28349, Note_on_c, 0, 74, 0
2, 28350, Note_on_c, 0, 67, 45
2, 28379, Note_on_c, 0, 67, 0
2, 28380, Note_on_c, 0, 69, 37
2, 28409, Note_on_c, 0, 69, 0
2, 28410, Note_on_c, 0, 71, 39
2, 28439, Note_on_c, 0, 71, 0
2, 28440, Note_on_c, 0, 72, 41
2, 28469, Note_on_c, 0, 72, 0
2, 28470, Note_on_c, 0, 74, 45
2, 28499, Note_on_c, 0, 74, 0
2, 28500, Note_on_c, 0, 75, 47
2, 28519, Note_on_c, 0, 75, 0
2, 28530, Note_on_c, 0, 77, 51
2, 28549, Note_on_c, 0, 77, 0
2, 28560, Note_on_c, 0, 79, 54
2, 28579, Note_on_c, 0, 79, 0
2, 28590, Note_on_c, 0, 81, 57
2, 28609, Note_on_c, 0, 81, 0
2, 28620, Note_on_c, 0, 83, 61
2, 28639, Note_on_c, 0, 83, 0
2, 28650, Note_on_c, 0, 84, 64
2, 28669, Note_on_c, 0, 84, 0
2, 28680, Note_on_c, 0, 86, 71
2, 28719, Note_on_c, 0, 86, 0
2, 28740, Note_on_c, 0, 80, 64
2, 28859, Note_on_c, 0, 80, 0
2, 28860, Note_on_c, 0, 79, 69
2, 28919, Note_on_c, 0, 79, 0
2, 28920, Note_on_c, 0, 87, 73
2, 28979, Note_on_c, 0, 87, 0
2, 28980, Note_on_c, 0, 79, 55
2, 29039, Note_on_c, 0, 79, 0
2, 29040, Note_on_c, 0, 78, 48
2, 29099, Note_on_c, 0, 78, 0
2, 29100, Note_on_c, 0, 87, 70
2, 29159, Note_on_c, 0, 87, 0
2, 29160, Note_on_c, 0, 86, 59
2, 29219, Note_on_c, 0, 86, 0
2, 29220, Note_on_c, 0, 77, 59
2, 29279, Note_on_c, 0, 77, 0
2, 29280, Note_on_c, 0, 75, 53
2, 29339, Note_on_c, 0, 75, 0
2, 29340, Note_on_c, 0, 84, 44
2, 29399, Note_on_c, 0, 84, 0
2, 29400, Note_on_c, 0, 79, 44
2, 29429, Note_on_c, 0, 79, 0
2, 29460, Note_on_c, 0, 75, 41
2, 29489, Note_on_c, 0, 75, 0
2, 29520, Note_on_c, 0, 72, 38
2, 29549, Note_on_c, 0, 72, 0
2, 29580, Note_on_c, 0, 67, 35
2, 29609, Note_on_c, 0, 67, 0
2, 29640, Note_on_c, 0, 63, 32
2, 29669, Note_on_c, 0, 63, 0
2, 29700, Note_on_c, 0, 60, 29
2, 29729, Note_on_c, 0, 60, 0
2, 29760, Note_on_c, 0, 61, 46
2, 29809, Note_on_c, 0, 61, 0
2, 29820, Note_on_c, 0, 63, 37
2, 29839, Note_on_c, 0, 63, 0
2, 29840, Note_on_c, 0, 61, 37
2, 29859, Note_on_c, 0, 61, 0
2, 29860, Note_on_c, 0, 60, 38
2, 29879, Note_on_c, 0, 60, 0
2, 29880, Note_on_c, 0, 61, 38
2, 29909, Note_on_c, 0, 61, 0
2, 29940, Note_on_c, 0, 63, 40
2, 29969, Note_on_c, 0, 63, 0
2, 30000, Note_on_c, 0, 65, 47
2, 30049, Note_on_c, 0, 65, 0
2, 30060, Note_on_c, 0, 67, 42
2, 30079, Note_on_c, 0, 67, 0
2, 30080, Note_on_c, 0, 65, 43
2, 30099, Note_on_c, 0, 65, 0
2, 30100, Note_on_c, 0, 63, 43
2, 30119, Note_on_c, 0, 63, 0
2, 30120, Note_on_c, 0, 65, 44
2, 30149, Note_on_c, 0, 65, 0
2, 30180, Note_on_c, 0, 67, 45
2, 30209, Note_on_c, 0, 67, 0
2, 30240, Note_on_c, 0, 68, 51
2, 30289, Note_on_c, 0, 68, 0
2, 30300, Note_on_c, 0, 70, 48
2, 30319, Note_on_c, 0, 70, 0
2, 30320, Note_on_c, 0, 68, 48
2, 30339, Note_on_c, 0, 68, 0
2, 30340, Note_on_c, 0, 67, 49
2, 30359, Note_on_c, 0, 67, 0
2, 30360, Note_on_c, 0, 68, 49
2, 30389, Note_on_c, 0, 68, 0
2, 30420, Note_on_c, 0, 70, 51
2, 30449, Note_on_c, 0, 70, 0
2, 30480, Note_on_c, 0, 72, 57
2, 30529, Note_on_c, 0, 72, 0
2, 30540, Note_on_c, 0, 74, 53
2, 30559, Note_on_c, 0, 74, 0
2, 30560, Note_on_c, 0, 72, 54
2, 30579, Note_on_c, 0, 72, 0
2, 30580, Note_on_c, 0, 71, 54
2, 30599, Note_on_c, 0, 71, 0
2, 30600, Note_on_c, 0, 72, 55
2, 30629, Note_on_c, 0, 72, 0
2, 30660, Note_on_c, 0, 74, 56
2, 30689, Note_on_c, 0, 74, 0
2, 30720, Note_on_c, 0, 75, 63
2, 30769, Note_on_c, 0, 75, 0
2, 30780, Note_on_c, 0, 77, 59
2, 30799, Note_on_c, 0, 77, 0
2, 30800, Note_on_c, 0, 75, 59
2, 30819, Note_on_c, 0, 75, 0
2, 30820, Note_on_c, 0, 74, 60
2, 30839, Note_on_c, 0, 74, 0
2, 30840, Note_on_c, 0, 75, 60
2, 30869, Note_on_c, 0, 75, 0
2, 30900, Note_on_c, 0, 77, 62
2, 30929, Note_on_c, 0, 77, 0
2, 30960, Note_on_c, 0, 79, 62
2, 30989, Note_on_c, 0, 79, 0
2, 31020, Note_on_c, 0, 79, 54
2, 31039, Note_on_c, 0, 79, 0
2, 31080, Note_on_c, 0, 79, 44
2, 31099, Note_on_c, 0, 79, 0
2, 31140, Note_on_c, 0, 79, 44
2, 31159, Note_on_c, 0, 79, 0
2, 31200, Note_on_c, 0, 72, 34
2, 31319, Note_on_c, 0, 72, 0
2, 35370, Note_on_c, 0, 67, 44
2, 35400, Note_on_c, 0, 79, 54
2, 35489, Note_on_c, 0, 67, 0
2, 35519, Note_on_c, 0, 79, 0
2, 35520, Note_on_c, 0, 75, 65
2, 35549, Note_on_c, 0, 75, 0
2, 35550, Note_on_c, 0, 77, 54
2, 35579, Note_on_c, 0, 77, 0
2, 35580, Note_on_c, 0, 78, 52
2, 35609, Note_on_c, 0, 78, 0
2, 35610, Note_on_c, 0, 79, 51
2, 35639, Note_on_c, 0, 79, 0
2, 35640, Note_on_c, 0, 77, 49
2, 35669, Note_on_c, 0, 77, 0
2, 35670, Note_on_c, 0, 75, 48
2, 35699, Note_on_c, 0, 75, 0
2, 35700, Note_on_c, 0, 74, 46
2, 35729, Note_on_c, 0, 74, 0
2, 35730, Note_on_c, 0, 72, 44
2, 35759, Note_on_c, 0, 72, 0
2, 35760, Note_on_c, 0, 74, 55
2, 35789, Note_on_c, 0, 74, 0
2, 35790, Note_on_c, 0, 75, 54
2, 35819, Note_on_c, 0, 75, 0
2, 35820, Note_on_c, 0, 76, 52
2, 35849, Note_on_c, 0, 76, 0
2, 35850, Note_on_c, 0, 77, 51
2, 35879, Note_on_c, 0, 77, 0
2, 35880, Note_on_c, 0, 75, 49
2, 35909, Note_on_c, 0, 75, 0
2, 35910, Note_on_c, 0, 74, 48
2, 35939, Note_on_c, 0, 74, 0
2, 35940, Note_on_c, 0, 72, 46
2, 35969, Note_on_c, 0, 72, 0
2, 35970, Note_on_c, 0, 71, 44
2, 35999, Note_on_c, 0, 71, 0
2, 36000, Note_on_c, 0, 72, 44
2, 36029, Note_on_c, 0, 72, 0
2, 36030, Note_on_c, 0, 60, 39
2, 36059, Note_on_c, 0, 60, 0
2, 36060, Note_on_c, 0, 62, 40
2, 36089, Note_on_c, 0, 62, 0
2, 36090, Note_on_c, 0, 63, 42
2, 36119, Note_on_c, 0, 63, 0
2, 36120, Note_on_c, 0, 65, 44
2, 36149, Note_on_c, 0, 65, 0
2, 36150, Note_on_c, 0, 67, 46
2, 36179, Note_on_c, 0, 67, 0
2, 36180, Note_on_c, 0, 69, 48
2, 36209, Note_on_c, 0, 69, 0
2, 36210, Note_on_c, 0, 71, 49
2, 36239, Note_on_c, 0, 71, 0
2, 36240, Note_on_c, 0, 72, 51
2, 36269, Note_on_c, 0, 72, 0
2, 36270, Note_on_c, 0, 74, 53
2, 36299, Note_on_c, 0, 74, 0
2, 36300, Note_on_c, 0, 75, 55
2, 36329, Note_on_c, 0, 75, 0
2, 36330, Note_on_c, 0, 77, 57
2, 36359, Note_on_c, 0, 77, 0
2, 36360, Note_on_c, 0, 79, 58
2, 36389, Note_on_c, 0, 79, 0
2, 36390, Note_on_c, 0, 81, 60
2, 36419, Note_on_c, 0, 81, 0
2, 36420, Note_on_c, 0, 82, 62
2, 36449, Note_on_c, 0, 82, 0
2, 36450, Note_on_c, 0, 83, 64
2, 36479, Note_on_c, 0, 83, 0
2, 36480, Note_on_c, 0, 84, 44
2, 36509, Note_on_c, 0, 84, 0
2, 36510, Note_on_c, 0, 86, 46
2, 36539, Note_on_c, 0, 86, 0
2, 36540, Note_on_c, 0, 84, 49
2, 36569, Note_on_c, 0, 84, 0
2, 36570, Note_on_c, 0, 83, 52
2, 36599, Note_on_c, 0, 83, 0
2, 36600, Note_on_c, 0, 84, 55
2, 36629, Note_on_c, 0, 84, 0
2, 36630, Note_on_c, 0, 86, 57
2, 36659, Note_on_c, 0, 86, 0
2, 36660, Note_on_c, 0, 84, 55
2, 36689, Note_on_c, 0, 84, 0
2, 36690, Note_on_c, 0, 83, 56
2, 36719, Note_on_c, 0, 83, 0
2, 36720, Note_on_c, 0, 84, 58
2, 36749, Note_on_c, 0, 84, 0
2, 36750, Note_on_c, 0, 86, 61
2, 36779, Note_on_c, 0, 86, 0
2, 36780, Note_on_c, 0, 87, 64
2, 36809, Note_on_c, 0, 87, 0
2, 36810, Note_on_c, 0, 86, 68
2, 36839, Note_on_c, 0, 86, 0
2, 36840, Note_on_c, 0, 89, 72
2, 36869, Note_on_c, 0, 89, 0
2, 36870, Note_on_c, 0, 87, 64
2, 36899, Note_on_c, 0, 87, 0
2, 36900, Note_on_c, 0, 86, 54
2, 36929, Note_on_c, 0, 86, 0
2, 36930, Note_on_c, 0, 84, 54
2, 36959, Note_on_c, 0, 84, 0
2, 36960, Note_on_c, 0, 83, 57
2, 36989, Note_on_c, 0, 83, 0
2, 36990, Note_on_c, 0, 84, 57
2, 37019, Note_on_c, 0, 84, 0
2, 37020, Note_on_c, 0, 86, 56
2, 37049, Note_on_c, 0, 86, 0
2, 37050, Note_on_c, 0, 84, 55
2, 37079, Note_on_c, 0, 84, 0
2, 37080, Note_on_c, 0, 83, 54
2, 37109, Note_on_c, 0, 83, 0
2, 37110, Note_on_c, 0, 81, 53
2, 37139, Note_on_c, 0, 81, 0
2, 37140, Note_on_c, 0, 79, 52
2, 37169, Note_on_c, 0, 79, 0
2, 37170, Note_on_c, 0, 78, 51
2, 37199, Note_on_c, 0, 78, 0
2, 37200, Note_on_c, 0, 79, 50
2, 37229, Note_on_c, 0, 79, 0
2, 37230, Note_on_c, 0, 77, 49
2, 37259, Note_on_c, 0, 77, 0
2, 37260, Note_on_c, 0, 75, 48
2, 37289, Note_on_c, 0, 75, 0
2, 37290, Note_on_c, 0, 74, 47
2, 37319, Note_on_c, 0, 74, 0
2, 37320, Note_on_c, 0, 72, 46
2, 37349, Note_on_c, 0, 72, 0
2, 37350, Note_on_c, 0, 71, 45
2, 37379, Note_on_c, 0, 71, 0
2, 37380, Note_on_c, 0, 69, 44
2, 37409, Note_on_c, 0, 69, 0
2, 37410, Note_on_c, 0, 67, 43
2, 37439, Note_on_c, 0, 67, 0
2, 37470, Note_on_c, 0, 80, 65
2, 37499, Note_on_c, 0, 80, 0
2, 37500, Note_on_c, 0, 79, 55
2, 37529, Note_on_c, 0, 79, 0
2, 37530, Note_on_c, 0, 80, 54
2, 37559, Note_on_c, 0, 80, 0
2, 37560, Note_on_c, 0, 77, 52
2, 37589, Note_on_c, 0, 77, 0
2, 37590, Note_on_c, 0, 80, 50
2, 37619, Note_on_c, 0, 80, 0
2, 37620, Note_on_c, 0, 75, 50
2, 37649, Note_on_c, 0, 75, 0
2, 37650, Note_on_c, 0, 80, 48
2, 37679, Note_on_c, 0, 80, 0
2, 37680, Note_on_c, 0, 74, 47
2, 37709, Note_on_c, 0, 74, 0
2, 37710, Note_on_c, 0, 77, 46
2, 37739, Note_on_c, 0, 77, 0
2, 37740, Note_on_c, 0, 72, 43
2, 37769, Note_on_c, 0, 72, 0
2, 37770, Note_on_c, 0, 77, 42
2, 37799, Note_on_c, 0, 77, 0
2, 37800, Note_on_c, 0, 70, 40
2, 37829, Note_on_c, 0, 70, 0
2, 37830, Note_on_c, 0, 77, 37
2, 37859, Note_on_c, 0, 77, 0
2, 37860, Note_on_c, 0, 68, 35
2, 37889, Note_on_c, 0, 68, 0
2, 37890, Note_on_c, 0, 77, 39
2, 37919, Note_on_c, 0, 77, 0
2, 37950, Note_on_c, 0, 79, 43
2, 37979, Note_on_c, 0, 79, 0
2, 37980, Note_on_c, 0, 78, 44
2, 38009, Note_on_c, 0, 78, 0
2, 38010, Note_on_c, 0, 79, 46
2, 38039, Note_on_c, 0, 79, 0
2, 38040, Note_on_c, 0, 80, 48
2, 38069, Note_on_c, 0, 80, 0
2, 38070, Note_on_c, 0, 79, 50
2, 38099, Note_on_c, 0, 79, 0
2, 38100, Note_on_c, 0, 81, 52
2, 38129, Note_on_c, 0, 81, 0
2, 38130, Note_on_c, 0, 79, 55
2, 38159, Note_on_c, 0, 79, 0
2, 38160, Note_on_c, 0, 82, 56
2, 38189, Note_on_c, 0, 82, 0
2, 38190, Note_on_c, 0, 79, 59
2, 38219, Note_on_c, 0, 79, 0
2, 38220, Note_on_c, 0, 83, 61
2, 38249, Note_on_c, 0, 83, 0
2, 38250, Note_on_c, 0, 79, 63
2, 38279, Note_on_c, 0, 79, 0
2, 38280, Note_on_c, 0, 84, 65
2, 38309, Note_on_c, 0, 84, 0
2, 38310, Note_on_c, 0, 79, 68
2, 38339, Note_on_c, 0, 79, 0
2, 38340, Note_on_c, 0, 85, 70
2, 38369, Note_on_c, 0, 85, 0
2, 38370, Note_on_c, 0, 79, 73
2, 38399, Note_on_c, 0, 79, 0
2, 38400, Note_on_c, 0, 86, 76
2, 38419, Note_on_c, 0, 86, 0
2, 38430, Note_on_c, 0, 82, 66
2, 38449, Note_on_c, 0, 82, 0
2, 38460, Note_on_c, 0, 79, 65
2, 38479, Note_on_c, 0, 79, 0
2, 38490, Note_on_c, 0, 74, 64
2, 38509, Note_on_c, 0, 74, 0
2, 38520, Note_on_c, 0, 82, 64
2, 38539, Note_on_c, 0, 82, 0
2, 38550, Note_on_c, 0, 79, 63
2, 38569, Note_on_c, 0, 79, 0
2, 38580, Note_on_c, 0, 74, 62
2, 38599, Note_on_c, 0, 74, 0
2, 38610, Note_on_c, 0, 70, 62
2, 38629, Note_on_c, 0, 70, 0
2, 38640, Note_on_c, 0, 79, 61
2, 38659, Note_on_c, 0, 79, 0
2, 38670, Note_on_c, 0, 74, 60
2, 38689, Note_on_c, 0, 74, 0
2, 38700, Note_on_c, 0, 70, 60
2, 38719, Note_on_c, 0, 70, 0
2, 38730, Note_on_c, 0, 67, 59
2, 38749, Note_on_c, 0, 67, 0
2, 38760, Note_on_c, 0, 74, 58
2, 38779, Note_on_c, 0, 74, 0
2, 38790, Note_on_c, 0, 72, 56
2, 38809, Note_on_c, 0, 72, 0
2, 38820, Note_on_c, 0, 69, 54
2, 38839, Note_on_c, 0, 69, 0
2, 38850, Note_on_c, 0, 66, 51
2, 38869, Note_on_c, 0, 66, 0
2, 38880, Note_on_c, 0, 67, 47
2, 38910, Note_on_c, 0, 69, 48
2, 38911, Note_on_c, 0, 67, 0
2, 38940, Note_on_c, 0, 70, 49
2, 38941, Note_on_c, 0, 69, 0
2, 38970, Note_on_c, 0, 72, 50
2, 38971, Note_on_c, 0, 70, 0
2, 39000, Note_on_c, 0, 74, 52
2, 39001, Note_on_c, 0, 72, 0
2, 39030, Note_on_c, 0, 76, 53
2, 39031, Note_on_c, 0, 74, 0
2, 39060, Note_on_c, 0, 78, 54
2, 39061, Note_on_c, 0, 76, 0
2, 39090, Note_on_c, 0, 79, 55
2, 39091, Note_on_c, 0, 78, 0
2, 39120, Note_on_c, 0, 67, 47
2, 39121, Note_on_c, 0, 79, 0
2, 39239, Note_on_c, 0, 67, 0
2, 43080, Note_on_c, 0, 79, 54
2, 43109, Note_on_c, 0, 79, 0
2, 43110, Note_on_c, 0, 87, 44
2, 43139, Note_on_c, 0, 87, 0
2, 43140, Note_on_c, 0, 84, 44
2, 43169, Note_on_c, 0, 84, 0
2, 43170, Note_on_c, 0, 79, 44
2, 43199, Note_on_c, 0, 79, 0
2, 43200, Note_on_c, 0, 78, 54
2, 43230, Note_on_c, 0, 79, 44
2, 43259, Note_on_c, 0, 79, 0
2, 43259, Note_on_c, 0, 78, 0
2, 43260, Note_on_c, 0, 86, 44
2, 43289, Note_on_c, 0, 86, 0
2, 43290, Note_on_c, 0, 79, 44
2, 43319, Note_on_c, 0, 79, 0
2, 43320, Note_on_c, 0, 77, 54
2, 43350, Note_on_c, 0, 79, 44
2, 43379, Note_on_c, 0, 79, 0
2, 43379, Note_on_c, 0, 77, 0
2, 43380, Note_on_c, 0, 86, 44
2, 43409, Note_on_c, 0, 86, 0
2, 43410, Note_on_c, 0, 79, 44
2, 43439, Note_on_c, 0, 79, 0
2, 43440, Note_on_c, 0, 76, 54
2, 43470, Note_on_c, 0, 79, 44
2, 43499, Note_on_c, 0, 79, 0
2, 43499, Note_on_c, 0, 76, 0
2, 43500, Note_on_c, 0, 84, 44
2, 43529, Note_on_c, 0, 84, 0
2, 43530, Note_on_c, 0, 79, 44
2, 43559, Note_on_c, 0, 79, 0
2, 43560, Note_on_c, 0, 75, 44
2, 43590, Note_on_c, 0, 79, 44
2, 43619, Note_on_c, 0, 79, 0
2, 43619, Note_on_c, 0, 75, 0
2, 43620, Note_on_c, 0, 84, 44
2, 43649, Note_on_c, 0, 84, 0
2, 43650, Note_on_c, 0, 79, 44
2, 43679, Note_on_c, 0, 79, 0
2, 43680, Note_on_c, 0, 74, 44
2, 43709, Note_on_c, 0, 74, 0
2, 43710, Note_on_c, 0, 79, 43
2, 43739, Note_on_c, 0, 79, 0
2, 43740, Note_on_c, 0, 83, 42
2, 43769, Note_on_c, 0, 83, 0
2, 43770, Note_on_c, 0, 86, 41
2, 43799, Note_on_c, 0, 86, 0
2, 43800, Note_on_c, 0, 83, 40
2, 43829, Note_on_c, 0, 83, 0
2, 43830, Note_on_c, 0, 79, 39
2, 43859, Note_on_c, 0, 79, 0
2, 43860, Note_on_c, 0, 74, 38
2, 43889, Note_on_c, 0, 74, 0
2, 43890, Note_on_c, 0, 71, 37
2, 43919, Note_on_c, 0, 71, 0
2, 43920, Note_on_c, 0, 67, 36
2, 43949, Note_on_c, 0, 67, 0
2, 43950, Note_on_c, 0, 71, 35
2, 43979, Note_on_c, 0, 71, 0
2, 43980, Note_on_c, 0, 74, 34
2, 44009, Note_on_c, 0, 74, 0
2, 44010, Note_on_c, 0, 79, 33
2, 44039, Note_on_c, 0, 79, 0
2, 44040, Note_on_c, 0, 68, 54
2, 44070, Note_on_c, 0, 71, 44
2, 44099, Note_on_c, 0, 71, 0
2, 44099, Note_on_c, 0, 68, 0
2, 44100, Note_on_c, 0, 74, 44
2, 44129, Note_on_c, 0, 74, 0
2, 44130, Note_on_c, 0, 80, 44
2, 44159, Note_on_c, 0, 80, 0
2, 44160, Note_on_c, 0, 67, 54
2, 44190, Note_on_c, 0, 72, 44
2, 44219, Note_on_c, 0, 72, 0
2, 44219, Note_on_c, 0, 67, 0
2, 44220, Note_on_c, 0, 76, 44
2, 44249, Note_on_c, 0, 76, 0
2, 44250, Note_on_c, 0, 79, 44
2, 44279, Note_on_c, 0, 79, 0
2, 44280, Note_on_c, 0, 67, 54
2, 44310, Note_on_c, 0, 70, 44
2, 44339, Note_on_c, 0, 70, 0
2, 44339, Note_on_c, 0, 67, 0
2, 44340, Note_on_c, 0, 73, 44
2, 44369, Note_on_c, 0, 73, 0
2, 44370, Note_on_c, 0, 79, 44
2, 44399, Note_on_c, 0, 79, 0
2, 44400, Note_on_c, 0, 66, 54
2, 44430, Note_on_c, 0, 69, 44
2, 44459, Note_on_c, 0, 69, 0
2, 44459, Note_on_c, 0, 66, 0
2, 44460, Note_on_c, 0, 72, 44
2, 44489, Note_on_c, 0, 72, 0
2, 44490, Note_on_c, 0, 78, 44
2, 44519, Note_on_c, 0, 78, 0
2, 44520, Note_on_c, 0, 65, 54
2, 44550, Note_on_c, 0, 71, 44
2, 44579, Note_on_c, 0, 71, 0
2, 44579, Note_on_c, 0, 65, 0
2, 44580, Note_on_c, 0, 74, 44
2, 44609, Note_on_c, 0, 74, 0
2, 44610, Note_on_c, 0, 77, 44
2, 44639, Note_on_c, 0, 77, 0
2, 44640, Note_on_c, 0, 76, 44
2, 44669, Note_on_c, 0, 76, 0
2, 44670, Note_on_c, 0, 67, 44
2, 44699, Note_on_c, 0, 67, 0
2, 44700, Note_on_c, 0, 72, 45
2, 44729, Note_on_c, 0, 72, 0
2, 44730, Note_on_c, 0, 74, 47
2, 44759, Note_on_c, 0, 74, 0
2, 44760, Note_on_c, 0, 75, 48
2, 44789, Note_on_c, 0, 75, 0
2, 44790, Note_on_c, 0, 72, 50
2, 44819, Note_on_c, 0, 72, 0
2, 44820, Note_on_c, 0, 79, 51
2, 44849, Note_on_c, 0, 79, 0
2, 44850, Note_on_c, 0, 75, 53
2, 44879, Note_on_c, 0, 75, 0
2, 44880, Note_on_c, 0, 84, 54
2, 44909, Note_on_c, 0, 84, 0
2, 44910, Note_on_c, 0, 79, 56
2, 44939, Note_on_c, 0, 79, 0
2, 44940, Note_on_c, 0, 87, 58
2, 44969, Note_on_c, 0, 87, 0
2, 44970, Note_on_c, 0, 83, 44
2, 44999, Note_on_c, 0, 83, 0
2, 45000, Note_on_c, 0, 84, 42
2, 45029, Note_on_c, 0, 84, 0
2, 45030, Note_on_c, 0, 79, 39
2, 45059, Note_on_c, 0, 79, 0
2, 45060, Note_on_c, 0, 75, 36
2, 45089, Note_on_c, 0, 75, 0
2, 45090, Note_on_c, 0, 72, 33
2, 45119, Note_on_c, 0, 72, 0
2, 45150, Note_on_c, 0, 85, 43
2, 45179, Note_on_c, 0, 85, 0
2, 45180, Note_on_c, 0, 84, 34
2, 45209, Note_on_c, 0, 84, 0
2, 45210, Note_on_c, 0, 85, 35
2, 45239, Note_on_c, 0, 85, 0
2, 45240, Note_on_c, 0, 82, 37
2, 45269, Note_on_c, 0, 82, 0
2, 45270, Note_on_c, 0, 85, 38
2, 45299, Note_on_c, 0, 85, 0
2, 45300, Note_on_c, 0, 80, 40
2, 45329, Note_on_c, 0, 80, 0
2, 45330, Note_on_c, 0, 85, 41
2, 45359, Note_on_c, 0, 85, 0
2, 45360, Note_on_c, 0, 79, 43
2, 45389, Note_on_c, 0, 79, 0
2, 45390, Note_on_c, 0, 82, 44
2, 45419, Note_on_c, 0, 82, 0
2, 45420, Note_on_c, 0, 77, 45
2, 45449, Note_on_c, 0, 77, 0
2, 45450, Note_on_c, 0, 82, 47
2, 45479, Note_on_c, 0, 82, 0
2, 45480, Note_on_c, 0, 75, 48
2, 45509, Note_on_c, 0, 75, 0
2, 45510, Note_on_c, 0, 82, 50
2, 45539, Note_on_c, 0, 82, 0
2, 45540, Note_on_c, 0, 73, 41
2, 45569, Note_on_c, 0, 73, 0
2, 45570, Note_on_c, 0, 82, 43
2, 45599, Note_on_c, 0, 82, 0
2, 45630, Note_on_c, 0, 72, 42
2, 45659, Note_on_c, 0, 72, 0
2, 45660, Note_on_c, 0, 71, 43
2, 45689, Note_on_c, 0, 71, 0
2, 45690, Note_on_c, 0, 72, 44
2, 45719, Note_on_c, 0, 72, 0
2, 45720, Note_on_c, 0, 73, 46
2, 45749, Note_on_c, 0, 73, 0
2, 45750, Note_on_c, 0, 72, 47
2, 45779, Note_on_c, 0, 72, 0
2, 45780, Note_on_c, 0, 74, 48
2, 45809, Note_on_c, 0, 74, 0
2, 45810, Note_on_c, 0, 72, 50
2, 45839, Note_on_c, 0, 72, 0
2, 45840, Note_on_c, 0, 75, 51
2, 45869, Note_on_c, 0, 75, 0
2, 45870, Note_on_c, 0, 72, 52
2, 45899, Note_on_c, 0, 72, 0
2, 45900, Note_on_c, 0, 76, 54
2, 45929, Note_on_c, 0, 76, 0
2, 45930, Note_on_c, 0, 72, 55
2, 45959, Note_on_c, 0, 72, 0
2, 45960, Note_on_c, 0, 77, 56
2, 45989, Note_on_c, 0, 77, 0
2, 45990, Note_on_c, 0, 72, 58
2, 46019, Note_on_c, 0, 72, 0
2, 46020, Note_on_c, 0, 78, 59
2, 46049, Note_on_c, 0, 78, 0
2, 46050, Note_on_c, 0, 72, 60
2, 46079, Note_on_c, 0, 72, 0
2, 46080, Note_on_c, 0, 79, 62
2, 46109, Note_on_c, 0, 79, 0
2, 46110, Note_on_c, 0, 87, 71
2, 46139, Note_on_c, 0, 87, 0
2, 46140, Note_on_c, 0, 84, 62
2, 46169, Note_on_c, 0, 84, 0
2, 46170, Note_on_c, 0, 79, 57
2, 46199, Note_on_c, 0, 79, 0
2, 46200, Note_on_c, 0, 75, 52
2, 46229, Note_on_c, 0, 75, 0
2, 46230, Note_on_c, 0, 84, 71
2, 46259, Note_on_c, 0, 84, 0
2, 46260, Note_on_c, 0, 79, 62
2, 46289, Note_on_c, 0, 79, 0
2, 46290, Note_on_c, 0, 75, 57
2, 46319, Note_on_c, 0, 75, 0
2, 46320, Note_on_c, 0, 72, 52
2, 46349, Note_on_c, 0, 72, 0
2, 46350, Note_on_c, 0, 79, 71
2, 46379, Note_on_c, 0, 79, 0
2, 46380, Note_on_c, 0, 75, 62
2, 46409, Note_on_c, 0, 75, 0
2, 46410, Note_on_c, 0, 72, 57
2, 46439, Note_on_c, 0, 72, 0
2, 46440, Note_on_c, 0, 71, 52
2, 46469, Note_on_c, 0, 71, 0
2, 46470, Note_on_c, 0, 77, 63
2, 46499, Note_on_c, 0, 77, 0
2, 46500, Note_on_c, 0, 74, 48
2, 46529, Note_on_c, 0, 74, 0
2, 46530, Note_on_c, 0, 71, 42
2, 46559, Note_on_c, 0, 71, 0
2, 46560, Note_on_c, 0, 72, 44
2, 46589, Note_on_c, 0, 72, 0
2, 46590, Note_on_c, 0, 74, 46
2, 46619, Note_on_c, 0, 74, 0
2, 46620, Note_on_c, 0, 75, 49
2, 46649, Note_on_c, 0, 75, 0
2, 46650, Note_on_c, 0, 77, 52
2, 46679, Note_on_c, 0, 77, 0
2, 46680, Note_on_c, 0, 79, 55
2, 46709, Note_on_c, 0, 79, 0
2, 46710, Note_on_c, 0, 81, 57
2, 46739, Note_on_c, 0, 81, 0
2, 46740, Note_on_c, 0, 83, 60
2, 46769, Note_on_c, 0, 83, 0
2, 46770, Note_on_c, 0, 84, 63
2, 46799, Note_on_c, 0, 84, 0
2, 46800, Note_on_c, 0, 72, 46
2, 46839, Note_on_c, 0, 72, 0
2, 46920, Note_on_c, 0, 79, 84
2, 46969, Note_on_c, 0, 79, 0
2, 47010, Note_on_c, 0, 79, 74
2, 47039, Note_on_c, 0, 79, 0
2, 47040, Note_on_c, 0, 72, 53
2, 47040, Note_on_c, 0, 75, 70
2, 47040, Note_on_c, 0, 67, 53
2, 47159, Note_on_c, 0, 67, 0
2, 47159, Note_on_c, 0, 75, 0
2, 47159, Note_on_c, 0, 72, 0
2, 47160, Note_on_c, 0, 75, 70
2, 47219, Note_on_c, 0, 75, 0
2, 47250, Note_on_c, 0, 75, 70
2, 47279, Note_on_c, 0, 75, 0
2, 47280, Note_on_c, 0, 71, 53
2, 47280, Note_on_c, 0, 74, 70
2, 47280, Note_on_c, 0, 67, 53
2, 47399, Note_on_c, 0, 67, 0
2, 47399, Note_on_c, 0, 74, 0
2, 47399, Note_on_c, 0, 71, 0
2, 47400, Note_on_c, 0, 74, 70
2, 47459, Note_on_c, 0, 74, 0
2, 47490, Note_on_c, 0, 74, 70
2, 47519, Note_on_c, 0, 74, 0
2, 47520, Note_on_c, 0, 72, 61
2, 47699, Note_on_c, 0, 72, 0
2, 47880, Note_on_c, 0, 79, 70
2, 47939, Note_on_c, 0, 79, 0
2, 47970, Note_on_c, 0, 79, 70
2, 47999, Note_on_c, 0, 79, 0
2, 48000, Note_on_c, 0, 79, 55
2, 48000, Note_on_c, 0, 72, 55
2, 48000, Note_on_c, 0, 75, 55
2, 48000, Note_on_c, 0, 84, 72
2, 48119, Note_on_c, 0, 84, 0
2, 48119, Note_on_c, 0, 79, 0
2, 48119, Note_on_c, 0, 72, 0
2, 48119, Note_on_c, 0, 75, 0
2, 48120, Note_on_c, 0, 84, 74
2, 48179, Note_on_c, 0, 84, 0
2, 48210, Note_on_c, 0, 84, 78
2, 48239, Note_on_c, 0, 84, 0
2, 48240, Note_on_c, 0, 87, 78
2, 48359, Note_on_c, 0, 87, 0
2, 48360, Note_on_c, 0, 78, 81
2, 48419, Note_on_c, 0, 78, 0
2, 48450, Note_on_c, 0, 78, 84
2, 48479, Note_on_c, 0, 78, 0
2, 48480, Note_on_c, 0, 79, 74
2, 48659, Note_on_c, 0, 79, 0
2, 48840, Note_on_c, 0, 79, 61
2, 48899, Note_on_c, 0, 79, 0
2, 48930, Note_on_c, 0, 79, 62
2, 48959, Note_on_c, 0, 79, 0
2, 48960, Note_on_c, 0, 80, 47
2, 48960, Note_on_c, 0, 80, 62
2, 48960, Note_on_c, 0, 72, 47
2, 48960, Note_on_c, 0, 75, 47
2, 49079, Note_on_c, 0, 75, 0
2, 49079, Note_on_c, 0, 80, 0
2, 49079, Note_on_c, 0, 80, 0
2, 49079, Note_on_c, 0, 72, 0
2, 49080, Note_on_c, 0, 80, 64
2, 49139, Note_on_c, 0, 80, 0
2, 49170, Note_on_c, 0, 80, 67
2, 49199, Note_on_c, 0, 80, 0
2, 49200, Note_on_c, 0, 77, 50
2, 49200, Note_on_c, 0, 80, 67
2, 49200, Note_on_c, 0, 70, 50
2, 49319, Note_on_c, 0, 70, 0
2, 49319, Note_on_c, 0, 80, 0
2, 49319, Note_on_c, 0, 77, 0
2, 49320, Note_on_c, 0, 80, 69
2, 49379, Note_on_c, 0, 80, 0
2, 49410, Note_on_c, 0, 80, 81
2, 49439, Note_on_c, 0, 80, 0
2, 49440, Note_on_c, 0, 84, 71
2, 49440, Note_on_c, 0, 75, 53
2, 49440, Note_on_c, 0, 80, 53
2, 49440, Note_on_c, 0, 72, 53
2, 49559, Note_on_c, 0, 72, 0
2, 49559, Note_on_c, 0, 84, 0
2, 49559, Note_on_c, 0, 75, 0
2, 49559, Note_on_c, 0, 80, 0
2, 49560, Note_on_c, 0, 82, 73
2, 49619, Note_on_c, 0, 82, 0
2, 49650, Note_on_c, 0, 80, 75
2, 49679, Note_on_c, 0, 80, 0
2, 49680, Note_on_c, 0, 79, 77
2, 49680, Note_on_c, 0, 70, 57
2, 49680, Note_on_c, 0, 73, 57
2, 49799, Note_on_c, 0, 73, 0
2, 49799, Note_on_c, 0, 70, 0
2, 49799, Note_on_c, 0, 79, 0
2, 49800, Note_on_c, 0, 79, 84
2, 49859, Note_on_c, 0, 79, 0
2, 49890, Note_on_c, 0, 79, 84
2, 49919, Note_on_c, 0, 79, 0
2, 49920, Note_on_c, 0, 82, 84
2, 49920, Note_on_c, 0, 74, 63
2, 49920, Note_on_c, 0, 70, 63
2, 49920, Note_on_c, 0, 79, 63
2, 50009, Note_on_c, 0, 79, 0
2, 50009, Note_on_c, 0, 82, 0
2, 50009, Note_on_c, 0, 74, 0
2, 50009, Note_on_c, 0, 70, 0
2, 50040, Note_on_c, 0, 81, 84
2, 50099, Note_on_c, 0, 81, 0
2, 50130, Note_on_c, 0, 79, 84
2, 50159, Note_on_c, 0, 79, 0
2, 50160, Note_on_c, 0, 86, 84
2, 50199, Note_on_c, 0, 86, 0
2, 50280, Note_on_c, 0, 69, 63
2, 50280, Note_on_c, 0, 72, 63
2, 50280, Note_on_c, 0, 78, 81
2, 50339, Note_on_c, 0, 78, 0
2, 50339, Note_on_c, 0, 72, 0
2, 50339, Note_on_c, 0, 69, 0
2, 50400, Note_on_c, 0, 70, 63
2, 50400, Note_on_c, 0, 79, 80
2, 50400, Note_on_c, 0, 67, 63
2, 50400, Note_on_c, 0, 74, 63
2, 50519, Note_on_c, 0, 74, 0
2, 50519, Note_on_c, 0, 70, 0
2, 50519, Note_on_c, 0, 79, 0
2, 50519, Note_on_c, 0, 67, 0
2, 54600, Note_on_c, 0, 67, 66
2, 54600, Note_on_c, 0, 79, 86
2, 54659, Note_on_c, 0, 79, 0
2, 54690, Note_on_c, 0, 79, 86
2, 54709, Note_on_c, 0, 67, 0
2, 54719, Note_on_c, 0, 79, 0
2, 54720, Note_on_c, 0, 74, 66
2, 54720, Note_on_c, 0, 78, 86
2, 54720, Note_on_c, 0, 67, 66
2, 54839, Note_on_c, 0, 78, 0
2, 54840, Note_on_c, 0, 77, 76
2, 54899, Note_on_c, 0, 77, 0
2, 54930, Note_on_c, 0, 77, 76
2, 54949, Note_on_c, 0, 67, 0
2, 54949, Note_on_c, 0, 74, 0
2, 54959, Note_on_c, 0, 77, 0
2, 54960, Note_on_c, 0, 67, 66
2, 54960, Note_on_c, 0, 72, 66
2, 54960, Note_on_c, 0, 76, 86
2, 55079, Note_on_c, 0, 76, 0
2, 55080, Note_on_c, 0, 75, 76
2, 55139, Note_on_c, 0, 75, 0
2, 55170, Note_on_c, 0, 75, 76
2, 55179, Note_on_c, 0, 72, 0
2, 55179, Note_on_c, 0, 67, 0
2, 55199, Note_on_c, 0, 75, 0
2, 55200, Note_on_c, 0, 67, 66
2, 55200, Note_on_c, 0, 71, 66
2, 55200, Note_on_c, 0, 74, 76
2, 55319, Note_on_c, 0, 74, 0
2, 55319, Note_on_c, 0, 71, 0
2, 55319, Note_on_c, 0, 67, 0
2, 55560, Note_on_c, 0, 80, 86
2, 55560, Note_on_c, 0, 71, 66
2, 55560, Note_on_c, 0, 74, 66
2, 55619, Note_on_c, 0, 80, 0
2, 55649, Note_on_c, 0, 74, 0
2, 55649, Note_on_c, 0, 71, 0
2, 55650, Note_on_c, 0, 80, 86
2, 55679, Note_on_c, 0, 80, 0
2, 55680, Note_on_c, 0, 67, 66
2, 55680, Note_on_c, 0, 72, 66
2, 55680, Note_on_c, 0, 79, 86
2, 55769, Note_on_c, 0, 79, 0
2, 55779, Note_on_c, 0, 72, 0
2, 55779, Note_on_c, 0, 67, 0
2, 55800, Note_on_c, 0, 79, 86
2, 55829, Note_on_c, 0, 79, 0
2, 55890, Note_on_c, 0, 79, 86
2, 55919, Note_on_c, 0, 79, 0
2, 55920, Note_on_c, 0, 67, 66
2, 55920, Note_on_c, 0, 74, 66
2, 55920, Note_on_c, 0, 77, 86
2, 56009, Note_on_c, 0, 77, 0
2, 56019, Note_on_c, 0, 74, 0
2, 56019, Note_on_c, 0, 67, 0
2, 56040, Note_on_c, 0, 77, 76
2, 56099, Note_on_c, 0, 77, 0
2, 56130, Note_on_c, 0, 77, 76
2, 56159, Note_on_c, 0, 77, 0
2, 56160, Note_on_c, 0, 75, 76
2, 56160, Note_on_c, 0, 67, 56
2, 56160, Note_on_c, 0, 72, 56
2, 56279, Note_on_c, 0, 72, 0
2, 56279, Note_on_c, 0, 67, 0
2, 56279, Note_on_c, 0, 75, 0
2, 56520, Note_on_c, 0, 72, 76
2, 56579, Note_on_c, 0, 72, 0
2, 56610, Note_on_c, 0, 72, 76
2, 56639, Note_on_c, 0, 72, 0
2, 56640, Note_on_c, 0, 73, 76
2, 56640, Note_on_c, 0, 68, 66
2, 56640, Note_on_c, 0, 65, 66
2, 56739, Note_on_c, 0, 65, 0
2, 56739, Note_on_c, 0, 68, 0
2, 56759, Note_on_c, 0, 73, 0
2, 56760, Note_on_c, 0, 73, 76
2, 56819, Note_on_c, 0, 73, 0
2, 56850, Note_on_c, 0, 73, 76
2, 56879, Note_on_c, 0, 73, 0
2, 56880, Note_on_c, 0, 63, 66
2, 56880, Note_on_c, 0, 73, 76
2, 56880, Note_on_c, 0, 70, 66
2, 56969, Note_on_c, 0, 70, 0
2, 56969, Note_on_c, 0, 73, 0
2, 56969, Note_on_c, 0, 63, 0
2, 57000, Note_on_c, 0, 73, 76
2, 57059, Note_on_c, 0, 73, 0
2, 57090, Note_on_c, 0, 73, 76
2, 57119, Note_on_c, 0, 73, 0
2, 57120, Note_on_c, 0, 77, 86
2, 57120, Note_on_c, 0, 68, 66
2, 57120, Note_on_c, 0, 73, 66
2, 57120, Note_on_c, 0, 65, 66
2, 57219, Note_on_c, 0, 65, 0
2, 57219, Note_on_c, 0, 73, 0
2, 57219, Note_on_c, 0, 68, 0
2, 57239, Note_on_c, 0, 77, 0
2, 57240, Note_on_c, 0, 75, 76
2, 57329, Note_on_c, 0, 75, 0
2, 57330, Note_on_c, 0, 73, 76
2, 57359, Note_on_c, 0, 73, 0
2, 57360, Note_on_c, 0, 72, 76
2, 57360, Note_on_c, 0, 63, 66
2, 57360, Note_on_c, 0, 66, 66
2, 57449, Note_on_c, 0, 66, 0
2, 57449, Note_on_c, 0, 63, 0
2, 57449, Note_on_c, 0, 72, 0
2, 57480, Note_on_c, 0, 72, 86
2, 57529, Note_on_c, 0, 72, 0
2, 57570, Note_on_c, 0, 72, 86
2, 57599, Note_on_c, 0, 72, 0
2, 57600, Note_on_c, 0, 63, 66
2, 57600, Note_on_c, 0, 75, 86
2, 57600, Note_on_c, 0, 72, 66
2, 57600, Note_on_c, 0, 67, 66
2, 57689, Note_on_c, 0, 67, 0
2, 57689, Note_on_c, 0, 72, 0
2, 57689, Note_on_c, 0, 63, 0
2, 57719, Note_on_c, 0, 75, 0
2, 57720, Note_on_c, 0, 74, 86
2, 57779, Note_on_c, 0, 74, 0
2, 57810, Note_on_c, 0, 72, 86
2, 57839, Note_on_c, 0, 72, 0
2, 57840, Note_on_c, 0, 79, 86
2, 57899, Note_on_c, 0, 79, 0
2, 57960, Note_on_c, 0, 65, 66
2, 57960, Note_on_c, 0, 71, 86
2, 58049, Note_on_c, 0, 71, 0
2, 58049, Note_on_c, 0, 65, 0
2, 58080, Note_on_c, 0, 72, 86
2, 58080, Note_on_c, 0, 63, 66
2, 58080, Note_on_c, 0, 67, 66
2, 58199, Note_on_c, 0, 67, 0
2, 58199, Note_on_c, 0, 63, 0
2, 58199, Note_on_c, 0, 72, 0
2, 66120, Note_on_c, 0, 75, 60
2, 66209, Note_on_c, 0, 75, 0
2, 66210, Note_on_c, 0, 73, 60
2, 66239, Note_on_c, 0, 73, 0
2, 66240, Note_on_c, 0, 72, 52
2, 66269, Note_on_c, 0, 72, 0
2, 66360, Note_on_c, 0, 72, 52
2, 66389, Note_on_c, 0, 72, 0
2, 66480, Note_on_c, 0, 70, 52
2, 66509, Note_on_c, 0, 70, 0
2, 66600, Note_on_c, 0, 70, 53
2, 66629, Note_on_c, 0, 70, 0
2, 66720, Note_on_c, 0, 68, 53
2, 66749, Note_on_c, 0, 68, 0
2, 66840, Note_on_c, 0, 77, 64
2, 67079, Note_on_c, 0, 77, 0
2, 67080, Note_on_c, 0, 75, 45
2, 67109, Note_on_c, 0, 75, 0
2, 67200, Note_on_c, 0, 75, 56
2, 67279, Note_on_c, 0, 75, 0
2, 67290, Note_on_c, 0, 73, 46
2, 67319, Note_on_c, 0, 73, 0
2, 67320, Note_on_c, 0, 73, 56
2, 67399, Note_on_c, 0, 73, 0
2, 67410, Note_on_c, 0, 72, 46
2, 67439, Note_on_c, 0, 72, 0
2, 67440, Note_on_c, 0, 72, 57
2, 67519, Note_on_c, 0, 72, 0
2, 67530, Note_on_c, 0, 70, 46
2, 67559, Note_on_c, 0, 70, 0
2, 67560, Note_on_c, 0, 70, 57
2, 67639, Note_on_c, 0, 70, 0
2, 67650, Note_on_c, 0, 68, 48
2, 67679, Note_on_c, 0, 68, 0
2, 67680, Note_on_c, 0, 67, 48
2, 67739, Note_on_c, 0, 67, 0
2, 67800, Note_on_c, 0, 82, 70
2, 68039, Note_on_c, 0, 82, 0
2, 68040, Note_on_c, 0, 80, 49
2, 68089, Note_on_c, 0, 80, 0
2, 68160, Note_on_c, 0, 80, 61
2, 68239, Note_on_c, 0, 80, 0
2, 68250, Note_on_c, 0, 79, 50
2, 68279, Note_on_c, 0, 79, 0
2, 68280, Note_on_c, 0, 79, 61
2, 68359, Note_on_c, 0, 79, 0
2, 68370, Note_on_c, 0, 77, 50
2, 68399, Note_on_c, 0, 77, 0
2, 68400, Note_on_c, 0, 77, 62
2, 68479, Note_on_c, 0, 77, 0
2, 68490, Note_on_c, 0, 75, 51
2, 68519, Note_on_c, 0, 75, 0
2, 68520, Note_on_c, 0, 75, 62
2, 68599, Note_on_c, 0, 75, 0
2, 68610, Note_on_c, 0, 73, 51
2, 68639, Note_on_c, 0, 73, 0
2, 68640, Note_on_c, 0, 72, 51
2, 68699, Note_on_c, 0, 72, 0
2, 68760, Note_on_c, 0, 87, 75
2, 68999, Note_on_c, 0, 87, 0
2, 69000, Note_on_c, 0, 84, 66
2, 69029, Note_on_c, 0, 84, 0
2, 69120, Note_on_c, 0, 82, 64
2, 69179, Note_on_c, 0, 82, 0
2, 69180, Note_on_c, 0, 87, 64
2, 69219, Note_on_c, 0, 87, 0
2, 69240, Note_on_c, 0, 77, 63
2, 69299, Note_on_c, 0, 77, 0
2, 69300, Note_on_c, 0, 84, 62
2, 69339, Note_on_c, 0, 84, 0
2, 69360, Note_on_c, 0, 82, 61
2, 69419, Note_on_c, 0, 82, 0
2, 69420, Note_on_c, 0, 79, 60
2, 69459, Note_on_c, 0, 79, 0
2, 69480, Note_on_c, 0, 80, 57
2, 69539, Note_on_c, 0, 80, 0
2, 69540, Note_on_c, 0, 74, 54
2, 69579, Note_on_c, 0, 74, 0
2, 69600, Note_on_c, 0, 77, 52
2, 69719, Note_on_c, 0, 77, 0
2, 69720, Note_on_c, 0, 75, 42
2, 69839, Note_on_c, 0, 75, 0
2, 73800, Note_on_c, 0, 75, 55
2, 73889, Note_on_c, 0, 75, 0
2, 73890, Note_on_c, 0, 77, 45
2, 73919, Note_on_c, 0, 77, 0
2, 73920, Note_on_c, 0, 75, 55
2, 73979, Note_on_c, 0, 75, 0
2, 73980, Note_on_c, 0, 74, 45
2, 74009, Note_on_c, 0, 74, 0
2, 74040, Note_on_c, 0, 73, 35
2, 74129, Note_on_c, 0, 73, 0
2, 74130, Note_on_c, 0, 75, 55
2, 74159, Note_on_c, 0, 75, 0
2, 74160, Note_on_c, 0, 73, 45
2, 74219, Note_on_c, 0, 73, 0
2, 74220, Note_on_c, 0, 71, 55
2, 74249, Note_on_c, 0, 71, 0
2, 74280, Note_on_c, 0, 72, 45
2, 74369, Note_on_c, 0, 72, 0
2, 74370, Note_on_c, 0, 73, 45
2, 74399, Note_on_c, 0, 73, 0
2, 74430, Note_on_c, 0, 70, 66
2, 74459, Note_on_c, 0, 70, 0
2, 74460, Note_on_c, 0, 85, 65
2, 74489, Note_on_c, 0, 85, 0
2, 74490, Note_on_c, 0, 84, 63
2, 74519, Note_on_c, 0, 84, 0
2, 74520, Note_on_c, 0, 82, 62
2, 74549, Note_on_c, 0, 82, 0
2, 74550, Note_on_c, 0, 80, 60
2, 74579, Note_on_c, 0, 80, 0
2, 74580, Note_on_c, 0, 79, 59
2, 74609, Note_on_c, 0, 79, 0
2, 74610, Note_on_c, 0, 77, 57
2, 74639, Note_on_c, 0, 77, 0
2, 74640, Note_on_c, 0, 75, 55
2, 74669, Note_on_c, 0, 75, 0
2, 74670, Note_on_c, 0, 73, 54
2, 74699, Note_on_c, 0, 73, 0
2, 74700, Note_on_c, 0, 72, 52
2, 74729, Note_on_c, 0, 72, 0
2, 74730, Note_on_c, 0, 70, 51
2, 74759, Note_on_c, 0, 70, 0
2, 74760, Note_on_c, 0, 68, 49
2, 74789, Note_on_c, 0, 68, 0
2, 74790, Note_on_c, 0, 67, 48
2, 74819, Note_on_c, 0, 67, 0
2, 74820, Note_on_c, 0, 65, 46
2, 74849, Note_on_c, 0, 65, 0
2, 74850, Note_on_c, 0, 63, 44
2, 74879, Note_on_c, 0, 63, 0
2, 74880, Note_on_c, 0, 75, 55
2, 74939, Note_on_c, 0, 75, 0
2, 75000, Note_on_c, 0, 75, 53
2, 75059, Note_on_c, 0, 75, 0
2, 75090, Note_on_c, 0, 77, 51
2, 75119, Note_on_c, 0, 77, 0
2, 75120, Note_on_c, 0, 73, 46
2, 75179, Note_on_c, 0, 73, 0
2, 75240, Note_on_c, 0, 73, 47
2, 75329, Note_on_c, 0, 73, 0
2, 75330, Note_on_c, 0, 75, 45
2, 75359, Note_on_c, 0, 75, 0
2, 75360, Note_on_c, 0, 72, 44
2, 75389, Note_on_c, 0, 72, 0
2, 75390, Note_on_c, 0, 72, 56
2, 75419, Note_on_c, 0, 72, 0
2, 75420, Note_on_c, 0, 87, 66
2, 75449, Note_on_c, 0, 87, 0
2, 75450, Note_on_c, 0, 85, 65
2, 75479, Note_on_c, 0, 85, 0
2, 75480, Note_on_c, 0, 84, 63
2, 75509, Note_on_c, 0, 84, 0
2, 75510, Note_on_c, 0, 82, 61
2, 75539, Note_on_c, 0, 82, 0
2, 75540, Note_on_c, 0, 81, 60
2, 75569, Note_on_c, 0, 81, 0
2, 75570, Note_on_c, 0, 78, 58
2, 75599, Note_on_c, 0, 78, 0
2, 75600, Note_on_c, 0, 77, 56
2, 75629, Note_on_c, 0, 77, 0
2, 75630, Note_on_c, 0, 75, 55
2, 75659, Note_on_c, 0, 75, 0
2, 75660, Note_on_c, 0, 73, 53
2, 75689, Note_on_c, 0, 73, 0
2, 75690, Note_on_c, 0, 72, 51
2, 75719, Note_on_c, 0, 72, 0
2, 75720, Note_on_c, 0, 70, 50
2, 75749, Note_on_c, 0, 70, 0
2, 75750, Note_on_c, 0, 69, 48
2, 75779, Note_on_c, 0, 69, 0
2, 75780, Note_on_c, 0, 66, 46
2, 75809, Note_on_c, 0, 66, 0
2, 75810, Note_on_c, 0, 65, 44
2, 75839, Note_on_c, 0, 65, 0
2, 75870, Note_on_c, 0, 70, 55
2, 75899, Note_on_c, 0, 70, 0
2, 75900, Note_on_c, 0, 89, 72
2, 75929, Note_on_c, 0, 89, 0
2, 75930, Note_on_c, 0, 87, 71
2, 75959, Note_on_c, 0, 87, 0
2, 75960, Note_on_c, 0, 85, 69
2, 75989, Note_on_c, 0, 85, 0
2, 75990, Note_on_c, 0, 84, 67
2, 76019, Note_on_c, 0, 84, 0
2, 76020, Note_on_c, 0, 82, 65
2, 76049, Note_on_c, 0, 82, 0
2, 76050, Note_on_c, 0, 80, 63
2, 76079, Note_on_c, 0, 80, 0
2, 76080, Note_on_c, 0, 79, 61
2, 76109, Note_on_c, 0, 79, 0
2, 76110, Note_on_c, 0, 77, 59
2, 76139, Note_on_c, 0, 77, 0
2, 76140, Note_on_c, 0, 75, 57
2, 76169, Note_on_c, 0, 75, 0
2, 76170, Note_on_c, 0, 73, 55
2, 76199, Note_on_c, 0, 73, 0
2, 76200, Note_on_c, 0, 72, 53
2, 76229, Note_on_c, 0, 72, 0
2, 76230, Note_on_c, 0, 70, 51
2, 76259, Note_on_c, 0, 70, 0
2, 76260, Note_on_c, 0, 68, 49
2, 76289, Note_on_c, 0, 68, 0
2, 76290, Note_on_c, 0, 67, 47
2, 76319, Note_on_c, 0, 67, 0
2, 76350, Note_on_c, 0, 68, 55
2, 76369, Note_on_c, 0, 68, 0
2, 76380, Note_on_c, 0, 80, 56
2, 76399, Note_on_c, 0, 80, 0
2, 76410, Note_on_c, 0, 68, 44
2, 76429, Note_on_c, 0, 68, 0
2, 76440, Note_on_c, 0, 79, 58
2, 76459, Note_on_c, 0, 79, 0
2, 76470, Note_on_c, 0, 68, 47
2, 76489, Note_on_c, 0, 68, 0
2, 76500, Note_on_c, 0, 78, 60
2, 76519, Note_on_c, 0, 78, 0
2, 76530, Note_on_c, 0, 68, 49
2, 76549, Note_on_c, 0, 68, 0
2, 76560, Note_on_c, 0, 77, 63
2, 76579, Note_on_c, 0, 77, 0
2, 76590, Note_on_c, 0, 68, 52
2, 76609, Note_on_c, 0, 68, 0
2, 76620, Note_on_c, 0, 76, 64
2, 76639, Note_on_c, 0, 76, 0
2, 76650, Note_on_c, 0, 68, 55
2, 76669, Note_on_c, 0, 68, 0
2, 76680, Note_on_c, 0, 75, 66
2, 76699, Note_on_c, 0, 75, 0
2, 76710, Note_on_c, 0, 68, 56
2, 76729, Note_on_c, 0, 68, 0
2, 76740, Note_on_c, 0, 73, 68
2, 76759, Note_on_c, 0, 73, 0
2, 76770, Note_on_c, 0, 68, 46
2, 76789, Note_on_c, 0, 68, 0
2, 76800, Note_on_c, 0, 72, 55
2, 76829, Note_on_c, 0, 72, 0
2, 76830, Note_on_c, 0, 75, 52
2, 76859, Note_on_c, 0, 75, 0
2, 76860, Note_on_c, 0, 80, 49
2, 76889, Note_on_c, 0, 80, 0
2, 76890, Note_on_c, 0, 84, 46
2, 76919, Note_on_c, 0, 84, 0
2, 76920, Note_on_c, 0, 87, 42
2, 76949, Note_on_c, 0, 87, 0
2, 76980, Note_on_c, 0, 87, 55
2, 77009, Note_on_c, 0, 87, 0
2, 77040, Note_on_c, 0, 87, 45
2, 77099, Note_on_c, 0, 87, 0
2, 77100, Note_on_c, 0, 75, 45
2, 77159, Note_on_c, 0, 75, 0
2, 77160, Note_on_c, 0, 77, 45
2, 77219, Note_on_c, 0, 77, 0
2, 77220, Note_on_c, 0, 79, 45
2, 77279, Note_on_c, 0, 79, 0
2, 77280, Note_on_c, 0, 82, 40
2, 77399, Note_on_c, 0, 82, 0
2, 77400, Note_on_c, 0, 80, 32
2, 77469, Note_on_c, 0, 80, 0
2, 77580, Note_on_c, 0, 71, 33
2, 77639, Note_on_c, 0, 71, 0
2, 77640, Note_on_c, 0, 72, 40
2, 77699, Note_on_c, 0, 72, 0
2, 77700, Note_on_c, 0, 74, 47
2, 77759, Note_on_c, 0, 74, 0
2, 77760, Note_on_c, 0, 75, 45
2, 77820, Note_on_c, 0, 63, 33
2, 77879, Note_on_c, 0, 63, 0
2, 77880, Note_on_c, 0, 65, 40
2, 77939, Note_on_c, 0, 65, 0
2, 77940, Note_on_c, 0, 66, 47
2, 77999, Note_on_c, 0, 66, 0
2, 78000, Note_on_c, 0, 67, 45
2, 78059, Note_on_c, 0, 75, 0
2, 78060, Note_on_c, 0, 74, 45
2, 78119, Note_on_c, 0, 74, 0
2, 78120, Note_on_c, 0, 72, 41
2, 78179, Note_on_c, 0, 72, 0
2, 78180, Note_on_c, 0, 71, 37
2, 78239, Note_on_c, 0, 71, 0
2, 78240, Note_on_c, 0, 72, 34
2, 78299, Note_on_c, 0, 67, 0
2, 78300, Note_on_c, 0, 66, 55
2, 78359, Note_on_c, 0, 66, 0
2, 78360, Note_on_c, 0, 67, 49
2, 78419, Note_on_c, 0, 67, 0
2, 78420, Note_on_c, 0, 69, 43
2, 78479, Note_on_c, 0, 69, 0
2, 78480, Note_on_c, 0, 67, 37
2, 78539, Note_on_c, 0, 67, 0
2, 78539, Note_on_c, 0, 72, 0
2, 78540, Note_on_c, 0, 71, 34
2, 78540, Note_on_c, 0, 74, 44
2, 78599, Note_on_c, 0, 74, 0
2, 78599, Note_on_c, 0, 71, 0
2, 78600, Note_on_c, 0, 75, 47
2, 78600, Note_on_c, 0, 72, 36
2, 78659, Note_on_c, 0, 72, 0
2, 78659, Note_on_c, 0, 75, 0
2, 78660, Note_on_c, 0, 74, 38
2, 78660, Note_on_c, 0, 77, 50
2, 78719, Note_on_c, 0, 77, 0
2, 78719, Note_on_c, 0, 74, 0
2, 78720, Note_on_c, 0, 75, 41
2, 78720, Note_on_c, 0, 79, 53
2, 79019, Note_on_c, 0, 79, 0
2, 79019, Note_on_c, 0, 75, 0
2, 79020, Note_on_c, 0, 77, 44
2, 79020, Note_on_c, 0, 74, 34
2, 79139, Note_on_c, 0, 74, 0
2, 79139, Note_on_c, 0, 77, 0
2, 79140, Note_on_c, 0, 75, 44
2, 79140, Note_on_c, 0, 72, 34
2, 79199, Note_on_c, 0, 75, 0
2, 79200, Note_on_c, 0, 74, 54
2, 79259, Note_on_c, 0, 72, 0
2, 79260, Note_on_c, 0, 72, 45
2, 79319, Note_on_c, 0, 72, 0
2, 79320, Note_on_c, 0, 71, 42
2, 79379, Note_on_c, 0, 71, 0
2, 79380, Note_on_c, 0, 69, 39
2, 79439, Note_on_c, 0, 69, 0
2, 79440, Note_on_c, 0, 71, 35
2, 79499, Note_on_c, 0, 74, 0
2, 79500, Note_on_c, 0, 80, 56
2, 79559, Note_on_c, 0, 80, 0
2, 79559, Note_on_c, 0, 71, 0
2, 79560, Note_on_c, 0, 79, 52
2, 79560, Note_on_c, 0, 72, 42
2, 79619, Note_on_c, 0, 72, 0
2, 79619, Note_on_c, 0, 79, 0
2, 79620, Note_on_c, 0, 74, 38
2, 79620, Note_on_c, 0, 77, 48
2, 79679, Note_on_c, 0, 77, 0
2, 79680, Note_on_c, 0, 75, 53
2, 79739, Note_on_c, 0, 74, 0
2, 79740, Note_on_c, 0, 72, 55
2, 79799, Note_on_c, 0, 72, 0
2, 79800, Note_on_c, 0, 68, 52
2, 79859, Note_on_c, 0, 68, 0
2, 79860, Note_on_c, 0, 67, 48
2, 79919, Note_on_c, 0, 67, 0
2, 79920, Note_on_c, 0, 66, 44
2, 79979, Note_on_c, 0, 75, 0
2, 79980, Note_on_c, 0, 74, 55
2, 80039, Note_on_c, 0, 74, 0
2, 80039, Note_on_c, 0, 66, 0
2, 80040, Note_on_c, 0, 73, 52
2, 80040, Note_on_c, 0, 69, 42
2, 80099, Note_on_c, 0, 73, 0
2, 80100, Note_on_c, 0, 72, 48
2, 80159, Note_on_c, 0, 72, 0
2, 80160, Note_on_c, 0, 71, 59
2, 80219, Note_on_c, 0, 69, 0
2, 80220, Note_on_c, 0, 66, 44
2, 80249, Note_on_c, 0, 71, 0
2, 80279, Note_on_c, 0, 66, 0
2, 80280, Note_on_c, 0, 70, 54
2, 80280, Note_on_c, 0, 67, 44
2, 80339, Note_on_c, 0, 67, 0
2, 80340, Note_on_c, 0, 65, 49
2, 80399, Note_on_c, 0, 65, 0
2, 80400, Note_on_c, 0, 63, 54
2, 80459, Note_on_c, 0, 70, 0
2, 80460, Note_on_c, 0, 70, 55
2, 80519, Note_on_c, 0, 70, 0
2, 80520, Note_on_c, 0, 69, 52
2, 80579, Note_on_c, 0, 69, 0
2, 80580, Note_on_c, 0, 67, 48
2, 80639, Note_on_c, 0, 67, 0
2, 80639, Note_on_c, 0, 63, 0
2, 80640, Note_on_c, 0, 66, 54
2, 80700, Note_on_c, 0, 62, 44
2, 80759, Note_on_c, 0, 66, 0
2, 80760, Note_on_c, 0, 67, 54
2, 80819, Note_on_c, 0, 62, 0
2, 80820, Note_on_c, 0, 60, 44
2, 80879, Note_on_c, 0, 60, 0
2, 80880, Note_on_c, 0, 58, 44
2, 80939, Note_on_c, 0, 67, 0
2, 80940, Note_on_c, 0, 67, 54
2, 80999, Note_on_c, 0, 58, 0
2, 81000, Note_on_c, 0, 57, 44
2, 81059, Note_on_c, 0, 67, 0
2, 81060, Note_on_c, 0, 66, 54
2, 81119, Note_on_c, 0, 66, 0
2, 81119, Note_on_c, 0, 57, 0
2, 81120, Note_on_c, 0, 67, 44
2, 81120, Note_on_c, 0, 55, 34
2, 81359, Note_on_c, 0, 55, 0
2, 81359, Note_on_c, 0, 67, 0
2, 81420, Note_on_c, 0, 67, 45
2, 81420, Note_on_c, 0, 71, 55
2, 81479, Note_on_c, 0, 71, 0
2, 81479, Note_on_c, 0, 67, 0
2, 81480, Note_on_c, 0, 69, 49
2, 81480, Note_on_c, 0, 72, 61
2, 81539, Note_on_c, 0, 72, 0
2, 81539, Note_on_c, 0, 69, 0
2, 81540, Note_on_c, 0, 71, 54
2, 81540, Note_on_c, 0, 74, 67
2, 81599, Note_on_c, 0, 74, 0
2, 81599, Note_on_c, 0, 71, 0
2, 81600, Note_on_c, 0, 75, 66
2, 81600, Note_on_c, 0, 67, 54
2, 81600, Note_on_c, 0, 72, 54
2, 81719, Note_on_c, 0, 72, 0
2, 81719, Note_on_c, 0, 67, 0
2, 81719, Note_on_c, 0, 75, 0
2, 81720, Note_on_c, 0, 75, 66
2, 81779, Note_on_c, 0, 75, 0
2, 81810, Note_on_c, 0, 75, 66
2, 81839, Note_on_c, 0, 75, 0
2, 81840, Note_on_c, 0, 74, 66
2, 81840, Note_on_c, 0, 67, 54
2, 81840, Note_on_c, 0, 71, 54
2, 81959, Note_on_c, 0, 71, 0
2, 81959, Note_on_c, 0, 67, 0
2, 81959, Note_on_c, 0, 74, 0
2, 81960, Note_on_c, 0, 74, 66
2, 82019, Note_on_c, 0, 74, 0
2, 82050, Note_on_c, 0, 74, 66
2, 82079, Note_on_c, 0, 74, 0
2, 82080, Note_on_c, 0, 72, 66
2, 82319, Note_on_c, 0, 72, 0
2, 82440, Note_on_c, 0, 80, 79
2, 82440, Note_on_c, 0, 68, 59
2, 82440, Note_on_c, 0, 75, 59
2, 82559, Note_on_c, 0, 75, 0
2, 82560, Note_on_c, 0, 74, 57
2, 82679, Note_on_c, 0, 68, 0
2, 82679, Note_on_c, 0, 80, 0
2, 82680, Note_on_c, 0, 79, 69
2, 82680, Note_on_c, 0, 67, 56
2, 82799, Note_on_c, 0, 74, 0
2, 82800, Note_on_c, 0, 72, 67
2, 82919, Note_on_c, 0, 67, 0
2, 82919, Note_on_c, 0, 79, 0
2, 82920, Note_on_c, 0, 66, 54
2, 82920, Note_on_c, 0, 78, 66
2, 83039, Note_on_c, 0, 78, 0
2, 83039, Note_on_c, 0, 66, 0
2, 83039, Note_on_c, 0, 72, 0
2, 83040, Note_on_c, 0, 79, 61
2, 83040, Note_on_c, 0, 67, 49
2, 83040, Note_on_c, 0, 71, 50
2, 83159, Note_on_c, 0, 71, 0
2, 83159, Note_on_c, 0, 67, 0
2, 83159, Note_on_c, 0, 79, 0
2, 83400, Note_on_c, 0, 79, 72
2, 83519, Note_on_c, 0, 79, 0
2, 83520, Note_on_c, 0, 80, 83
2, 83639, Note_on_c, 0, 80, 0
2, 83640, Note_on_c, 0, 68, 72
2, 83640, Note_on_c, 0, 63, 59
2, 83640, Note_on_c, 0, 67, 59
2, 83699, Note_on_c, 0, 67, 0
2, 83699, Note_on_c, 0, 63, 0
2, 83699, Note_on_c, 0, 68, 0
2, 83730, Note_on_c, 0, 68, 72
2, 83759, Note_on_c, 0, 68, 0
2, 83760, Note_on_c, 0, 68, 72
2, 83760, Note_on_c, 0, 58, 59
2, 83760, Note_on_c, 0, 65, 59
2, 83879, Note_on_c, 0, 65, 0
2, 83879, Note_on_c, 0, 58, 0
2, 83879, Note_on_c, 0, 68, 0
2, 83880, Note_on_c, 0, 80, 83
2, 83999, Note_on_c, 0, 80, 0
2, 84000, Note_on_c, 0, 80, 83
2, 84119, Note_on_c, 0, 80, 0
2, 84120, Note_on_c, 0, 68, 72
2, 84120, Note_on_c, 0, 63, 59
2, 84120, Note_on_c, 0, 60, 59
2, 84179, Note_on_c, 0, 60, 0
2, 84179, Note_on_c, 0, 63, 0
2, 84179, Note_on_c, 0, 68, 0
2, 84210, Note_on_c, 0, 68, 72
2, 84239, Note_on_c, 0, 68, 0
2, 84240, Note_on_c, 0, 68, 72
2, 84240, Note_on_c, 0, 58, 59
2, 84240, Note_on_c, 0, 62, 59
2, 84359, Note_on_c, 0, 62, 0
2, 84359, Note_on_c, 0, 58, 0
2, 84359, Note_on_c, 0, 68, 0
2, 84360, Note_on_c, 0, 80, 83
2, 84479, Note_on_c, 0, 80, 0
2, 84480, Note_on_c, 0, 79, 78
2, 84599, Note_on_c, 0, 79, 0
2, 84600, Note_on_c, 0, 67, 68
2, 84600, Note_on_c, 0, 58, 56
2, 84600, Note_on_c, 0, 63, 56
2, 84659, Note_on_c, 0, 63, 0
2, 84659, Note_on_c, 0, 58, 0
2, 84659, Note_on_c, 0, 67, 0
2, 84690, Note_on_c, 0, 67, 68
2, 84719, Note_on_c, 0, 67, 0
2, 84720, Note_on_c, 0, 63, 56
2, 84720, Note_on_c, 0, 66, 68
2, 84720, Note_on_c, 0, 60, 56
2, 84839, Note_on_c, 0, 60, 0
2, 84839, Note_on_c, 0, 66, 0
2, 84839, Note_on_c, 0, 63, 0
2, 84840, Note_on_c, 0, 78, 78
2, 84959, Note_on_c, 0, 78, 0
2, 84960, Note_on_c, 0, 79, 78
2, 85079, Note_on_c, 0, 79, 0
2, 85080, Note_on_c, 0, 67, 61
2, 85080, Note_on_c, 0, 74, 74
2, 85139, Note_on_c, 0, 74, 0
2, 85139, Note_on_c, 0, 67, 0
2, 85170, Note_on_c, 0, 74, 74
2, 85199, Note_on_c, 0, 74, 0
2, 85200, Note_on_c, 0, 75, 74
2, 85319, Note_on_c, 0, 75, 0
2, 85320, Note_on_c, 0, 67, 56
2, 85320, Note_on_c, 0, 69, 56
2, 85320, Note_on_c, 0, 72, 68
2, 85379, Note_on_c, 0, 72, 0
2, 85379, Note_on_c, 0, 69, 0
2, 85379, Note_on_c, 0, 67, 0
2, 85410, Note_on_c, 0, 72, 68
2, 85439, Note_on_c, 0, 72, 0
2, 85440, Note_on_c, 0, 72, 68
2, 85440, Note_on_c, 0, 66, 56
2, 85440, Note_on_c, 0, 69, 56
2, 85559, Note_on_c, 0, 69, 0
2, 85559, Note_on_c, 0, 66, 0
2, 85559, Note_on_c, 0, 72, 0
2, 85560, Note_on_c, 0, 67, 59
2, 85560, Note_on_c, 0, 70, 72
2, 85679, Note_on_c, 0, 70, 0
2, 85680, Note_on_c, 0, 69, 59
2, 85799, Note_on_c, 0, 67, 0
2, 85800, Note_on_c, 0, 66, 62
2, 85899, Note_on_c, 0, 69, 0
2, 85919, Note_on_c, 0, 66, 0
2, 85920, Note_on_c, 0, 67, 59
2, 86039, Note_on_c, 0, 67, 0
2, 86220, Note_on_c, 0, 79, 55
2, 86279, Note_on_c, 0, 79, 0
2, 86280, Note_on_c, 0, 80, 55
2, 86339, Note_on_c, 0, 80, 0
2, 86340, Note_on_c, 0, 79, 55
2, 86399, Note_on_c, 0, 79, 0
2, 86400, Note_on_c, 0, 78, 55
2, 86519, Note_on_c, 0, 78, 0
2, 86520, Note_on_c, 0, 77, 55
2, 86639, Note_on_c, 0, 77, 0
2, 86640, Note_on_c, 0, 76, 55
2, 86640, Note_on_c, 0, 72, 45
2, 86759, Note_on_c, 0, 76, 0
2, 86760, Note_on_c, 0, 75, 55
2, 86879, Note_on_c, 0, 75, 0
2, 86880, Note_on_c, 0, 74, 45
2, 86929, Note_on_c, 0, 74, 0
2, 86939, Note_on_c, 0, 72, 0
2, 86940, Note_on_c, 0, 74, 52
2, 86970, Note_on_c, 0, 72, 50
2, 86999, Note_on_c, 0, 72, 0
2, 87000, Note_on_c, 0, 71, 47
2, 87059, Note_on_c, 0, 71, 0
2, 87060, Note_on_c, 0, 69, 42
2, 87119, Note_on_c, 0, 69, 0
2, 87119, Note_on_c, 0, 74, 0
2, 87120, Note_on_c, 0, 71, 36
2, 87240, Note_on_c, 0, 80, 55
2, 87359, Note_on_c, 0, 80, 0
2, 87360, Note_on_c, 0, 79, 55
2, 87419, Note_on_c, 0, 71, 0
2, 87420, Note_on_c, 0, 67, 45
2, 87479, Note_on_c, 0, 67, 0
2, 87480, Note_on_c, 0, 72, 45
2, 87539, Note_on_c, 0, 79, 0
2, 87540, Note_on_c, 0, 80, 55
2, 87599, Note_on_c, 0, 80, 0
2, 87600, Note_on_c, 0, 77, 55
2, 87659, Note_on_c, 0, 72, 0
2, 87660, Note_on_c, 0, 69, 45
2, 87719, Note_on_c, 0, 69, 0
2, 87720, Note_on_c, 0, 71, 35
2, 87779, Note_on_c, 0, 77, 0
2, 87780, Note_on_c, 0, 79, 55
2, 87839, Note_on_c, 0, 79, 0
2, 87839, Note_on_c, 0, 71, 0
2, 87840, Note_on_c, 0, 75, 45
2, 87840, Note_on_c, 0, 67, 45
2, 88079, Note_on_c, 0, 67, 0
2, 88139, Note_on_c, 0, 75, 0
2, 88140, Note_on_c, 0, 84, 55
2, 88140, Note_on_c, 0, 76, 45
2, 88199, Note_on_c, 0, 76, 0
2, 88199, Note_on_c, 0, 84, 0
2, 88200, Note_on_c, 0, 83, 57
2, 88200, Note_on_c, 0, 77, 47
2, 88259, Note_on_c, 0, 77, 0
2, 88259, Note_on_c, 0, 83, 0
2, 88260, Note_on_c, 0, 82, 61
2, 88260, Note_on_c, 0, 79, 49
2, 88319, Note_on_c, 0, 82, 0
2, 88320, Note_on_c, 0, 80, 65
2, 88379, Note_on_c, 0, 79, 0
2, 88380, Note_on_c, 0, 77, 55
2, 88439, Note_on_c, 0, 77, 0
2, 88440, Note_on_c, 0, 73, 55
2, 88499, Note_on_c, 0, 73, 0
2, 88500, Note_on_c, 0, 72, 50
2, 88559, Note_on_c, 0, 72, 0
2, 88560, Note_on_c, 0, 71, 45
2, 88619, Note_on_c, 0, 80, 0
2, 88620, Note_on_c, 0, 79, 55
2, 88679, Note_on_c, 0, 79, 0
2, 88679, Note_on_c, 0, 71, 0
2, 88680, Note_on_c, 0, 78, 52
2, 88680, Note_on_c, 0, 72, 43
2, 88739, Note_on_c, 0, 72, 0
2, 88739, Note_on_c, 0, 78, 0
2, 88740, Note_on_c, 0, 77, 50
2, 88740, Note_on_c, 0, 74, 40
2, 88799, Note_on_c, 0, 74, 0
2, 88799, Note_on_c, 0, 77, 0
2, 88800, Note_on_c, 0, 74, 38
2, 88800, Note_on_c, 0, 76, 46
2, 88859, Note_on_c, 0, 74, 0
2, 88860, Note_on_c, 0, 71, 55
2, 88919, Note_on_c, 0, 71, 0
2, 88919, Note_on_c, 0, 76, 0
2, 88920, Note_on_c, 0, 75, 55
2, 88920, Note_on_c, 0, 72, 45
2, 88979, Note_on_c, 0, 72, 0
2, 88980, Note_on_c, 0, 70, 45
2, 89039, Note_on_c, 0, 70, 0
2, 89040, Note_on_c, 0, 68, 38
2, 89099, Note_on_c, 0, 75, 0
2, 89100, Note_on_c, 0, 77, 65
2, 89129, Note_on_c, 0, 77, 0
2, 89130, Note_on_c, 0, 75, 55
2, 89159, Note_on_c, 0, 75, 0
2, 89160, Note_on_c, 0, 73, 45
2, 89219, Note_on_c, 0, 73, 0
2, 89220, Note_on_c, 0, 72, 45
2, 89279, Note_on_c, 0, 72, 0
2, 89279, Note_on_c, 0, 68, 0
2, 89280, Note_on_c, 0, 79, 65
2, 89280, Note_on_c, 0, 71, 45
2, 89280, Note_on_c, 0, 67, 45
2, 89339, Note_on_c, 0, 71, 0
2, 89339, Note_on_c, 0, 79, 0
2, 89340, Note_on_c, 0, 71, 55
2, 89399, Note_on_c, 0, 71, 0
2, 89400, Note_on_c, 0, 72, 45
2, 89459, Note_on_c, 0, 72, 0
2, 89459, Note_on_c, 0, 67, 0
2, 89460, Note_on_c, 0, 74, 55
2, 89460, Note_on_c, 0, 65, 45
2, 89460, Note_on_c, 0, 68, 45
2, 89519, Note_on_c, 0, 68, 0
2, 89519, Note_on_c, 0, 65, 0
2, 89519, Note_on_c, 0, 74, 0
2, 89520, Note_on_c, 0, 63, 45
2, 89520, Note_on_c, 0, 67, 45
2, 89579, Note_on_c, 0, 67, 0
2, 89579, Note_on_c, 0, 63, 0
2, 89580, Note_on_c, 0, 72, 55
2, 89639, Note_on_c, 0, 72, 0
2, 89640, Note_on_c, 0, 62, 45
2, 89640, Note_on_c, 0, 65, 45
2, 89699, Note_on_c, 0, 65, 0
2, 89699, Note_on_c, 0, 62, 0
2, 89700, Note_on_c, 0, 71, 50
2, 89759, Note_on_c, 0, 71, 0
2, 89760, Note_on_c, 0, 63, 45
2, 89760, Note_on_c, 0, 72, 50
2, 89760, Note_on_c, 0, 60, 40
2, 89879, Note_on_c, 0, 60, 0
2, 89879, Note_on_c, 0, 72, 0
2, 89879, Note_on_c, 0, 63, 0
2, 90060, Note_on_c, 0, 67, 48
2, 90060, Note_on_c, 0, 72, 58
2, 90119, Note_on_c, 0, 72, 0
2, 90120, Note_on_c, 0, 71, 48
2, 90120, Note_on_c, 0, 74, 58
2, 90179, Note_on_c, 0, 74, 0
2, 90179, Note_on_c, 0, 71, 0
2, 90179, Note_on_c, 0, 67, 0
2, 90180, Note_on_c, 0, 67, 49
2, 90180, Note_on_c, 0, 72, 49
2, 90180, Note_on_c, 0, 75, 59
2, 90239, Note_on_c, 0, 75, 0
2, 90239, Note_on_c, 0, 72, 0
2, 90239, Note_on_c, 0, 67, 0
2, 90240, Note_on_c, 0, 77, 65
2, 90240, Note_on_c, 0, 67, 55
2, 90240, Note_on_c, 0, 74, 55
2, 90359, Note_on_c, 0, 74, 0
2, 90359, Note_on_c, 0, 67, 0
2, 90359, Note_on_c, 0, 77, 0
2, 90360, Note_on_c, 0, 77, 65
2, 90419, Note_on_c, 0, 77, 0
2, 90450, Note_on_c, 0, 77, 65
2, 90479, Note_on_c, 0, 77, 0
2, 90480, Note_on_c, 0, 75, 65
2, 90480, Note_on_c, 0, 67, 55
2, 90480, Note_on_c, 0, 72, 55
2, 90599, Note_on_c, 0, 72, 0
2, 90599, Note_on_c, 0, 67, 0
2, 90599, Note_on_c, 0, 75, 0
2, 90600, Note_on_c, 0, 75, 65
2, 90659, Note_on_c, 0, 75, 0
2, 90690, Note_on_c, 0, 75, 65
2, 90719, Note_on_c, 0, 75, 0
2, 90720, Note_on_c, 0, 74, 65
2, 90720, Note_on_c, 0, 67, 55
2, 90720, Note_on_c, 0, 71, 55
2, 90839, Note_on_c, 0, 71, 0
2, 90839, Note_on_c, 0, 67, 0
2, 90839, Note_on_c, 0, 74, 0
2, 91080, Note_on_c, 0, 80, 65
2, 91080, Note_on_c, 0, 71, 55
2, 91080, Note_on_c, 0, 74, 55
2, 91139, Note_on_c, 0, 80, 0
2, 91170, Note_on_c, 0, 80, 65
2, 91199, Note_on_c, 0, 80, 0
2, 91199, Note_on_c, 0, 74, 0
2, 91199, Note_on_c, 0, 71, 0
2, 91200, Note_on_c, 0, 79, 65
2, 91200, Note_on_c, 0, 72, 55
2, 91319, Note_on_c, 0, 72, 0
2, 91319, Note_on_c, 0, 79, 0
2, 91320, Note_on_c, 0, 73, 55
2, 91320, Note_on_c, 0, 79, 65
2, 91320, Note_on_c, 0, 67, 55
2, 91379, Note_on_c, 0, 79, 0
2, 91410, Note_on_c, 0, 79, 65
2, 91439, Note_on_c, 0, 79, 0
2, 91439, Note_on_c, 0, 67, 0
2, 91439, Note_on_c, 0, 73, 0
2, 91440, Note_on_c, 0, 78, 65
2, 91440, Note_on_c, 0, 72, 55
2, 91440, Note_on_c, 0, 69, 55
2, 91499, Note_on_c, 0, 78, 0
2, 91559, Note_on_c, 0, 69, 0
2, 91559, Note_on_c, 0, 72, 0
2, 91560, Note_on_c, 0, 77, 65
2, 91560, Note_on_c, 0, 67, 55
2, 91560, Note_on_c, 0, 74, 55
2, 91619, Note_on_c, 0, 77, 0
2, 91650, Note_on_c, 0, 77, 65
2, 91679, Note_on_c, 0, 77, 0
2, 91679, Note_on_c, 0, 74, 0
2, 91679, Note_on_c, 0, 67, 0
2, 91680, Note_on_c, 0, 75, 65
2, 91680, Note_on_c, 0, 67, 55
2, 91680, Note_on_c, 0, 72, 55
2, 91799, Note_on_c, 0, 72, 0
2, 91799, Note_on_c, 0, 67, 0
2, 91799, Note_on_c, 0, 75, 0
2, 92040, Note_on_c, 0, 84, 75
2, 92159, Note_on_c, 0, 84, 0
2, 92160, Note_on_c, 0, 85, 75
2, 92279, Note_on_c, 0, 85, 0
2, 92280, Note_on_c, 0, 73, 75
2, 92280, Note_on_c, 0, 68, 55
2, 92280, Note_on_c, 0, 72, 55
2, 92309, Note_on_c, 0, 72, 0
2, 92339, Note_on_c, 0, 73, 0
2, 92370, Note_on_c, 0, 73, 75
2, 92399, Note_on_c, 0, 73, 0
2, 92399, Note_on_c, 0, 68, 0
2, 92400, Note_on_c, 0, 70, 55
2, 92400, Note_on_c, 0, 63, 55
2, 92400, Note_on_c, 0, 73, 75
2, 92489, Note_on_c, 0, 73, 0
2, 92489, Note_on_c, 0, 63, 0
2, 92489, Note_on_c, 0, 70, 0
2, 92520, Note_on_c, 0, 85, 75
2, 92609, Note_on_c, 0, 85, 0
2, 92640, Note_on_c, 0, 85, 75
2, 92759, Note_on_c, 0, 85, 0
2, 92760, Note_on_c, 0, 73, 75
2, 92760, Note_on_c, 0, 65, 55
2, 92760, Note_on_c, 0, 68, 55
2, 92819, Note_on_c, 0, 73, 0
2, 92850, Note_on_c, 0, 73, 75
2, 92879, Note_on_c, 0, 73, 0
2, 92879, Note_on_c, 0, 68, 0
2, 92879, Note_on_c, 0, 65, 0
2, 92880, Note_on_c, 0, 63, 55
2, 92880, Note_on_c, 0, 73, 75
2, 92880, Note_on_c, 0, 67, 55
2, 92979, Note_on_c, 0, 67, 0
2, 92979, Note_on_c, 0, 73, 0
2, 92979, Note_on_c, 0, 63, 0
2, 93000, Note_on_c, 0, 85, 75
2, 93000, Note_on_c, 0, 75, 55
2, 93000, Note_on_c, 0, 79, 55
2, 93119, Note_on_c, 0, 79, 0
2, 93119, Note_on_c, 0, 75, 0
2, 93119, Note_on_c, 0, 85, 0
2, 93120, Note_on_c, 0, 75, 55
2, 93120, Note_on_c, 0, 84, 75
2, 93120, Note_on_c, 0, 80, 55
2, 93239, Note_on_c, 0, 80, 0
2, 93239, Note_on_c, 0, 84, 0
2, 93239, Note_on_c, 0, 75, 0
2, 93240, Note_on_c, 0, 72, 75
2, 93240, Note_on_c, 0, 63, 55
2, 93240, Note_on_c, 0, 68, 55
2, 93299, Note_on_c, 0, 72, 0
2, 93330, Note_on_c, 0, 72, 75
2, 93359, Note_on_c, 0, 72, 0
2, 93359, Note_on_c, 0, 68, 0
2, 93359, Note_on_c, 0, 63, 0
2, 93360, Note_on_c, 0, 68, 55
2, 93360, Note_on_c, 0, 65, 55
2, 93360, Note_on_c, 0, 71, 75
2, 93449, Note_on_c, 0, 71, 0
2, 93449, Note_on_c, 0, 65, 0
2, 93449, Note_on_c, 0, 68, 0
2, 93480, Note_on_c, 0, 77, 55
2, 93480, Note_on_c, 0, 80, 55
2, 93480, Note_on_c, 0, 83, 75
2, 93599, Note_on_c, 0, 83, 0
2, 93599, Note_on_c, 0, 80, 0
2, 93599, Note_on_c, 0, 77, 0
2, 93600, Note_on_c, 0, 75, 55
2, 93600, Note_on_c, 0, 79, 55
2, 93600, Note_on_c, 0, 84, 75
2, 93719, Note_on_c, 0, 84, 0
2, 93719, Note_on_c, 0, 79, 0
2, 93719, Note_on_c, 0, 75, 0
2, 93720, Note_on_c, 0, 79, 75
2, 93779, Note_on_c, 0, 79, 0
2, 93810, Note_on_c, 0, 79, 75
2, 93839, Note_on_c, 0, 79, 0
2, 93840, Note_on_c, 0, 80, 75
2, 93840, Note_on_c, 0, 72, 55
2, 93840, Note_on_c, 0, 74, 55
2, 93929, Note_on_c, 0, 74, 0
2, 93929, Note_on_c, 0, 72, 0
2, 93929, Note_on_c, 0, 80, 0
2, 93960, Note_on_c, 0, 77, 75
2, 94019, Note_on_c, 0, 77, 0
2, 94050, Note_on_c, 0, 77, 75
2, 94079, Note_on_c, 0, 77, 0
2, 94080, Note_on_c, 0, 74, 55
2, 94080, Note_on_c, 0, 77, 75
2, 94080, Note_on_c, 0, 71, 55
2, 94199, Note_on_c, 0, 71, 0
2, 94199, Note_on_c, 0, 77, 0
2, 94199, Note_on_c, 0, 74, 0
2, 94200, Note_on_c, 0, 75, 65
2, 94200, Note_on_c, 0, 72, 55
2, 94319, Note_on_c, 0, 75, 0
2, 94320, Note_on_c, 0, 74, 65
2, 94439, Note_on_c, 0, 72, 0
2, 94440, Note_on_c, 0, 71, 55
2, 94559, Note_on_c, 0, 71, 0
2, 94559, Note_on_c, 0, 74, 0
2, 94560, Note_on_c, 0, 72, 55
2, 94649, Note_on_c, 0, 72, 0
2, 98700, Note_on_c, 0, 67, 55
2, 98759, Note_on_c, 0, 67, 0
2, 98760, Note_on_c, 0, 72, 55
2, 98819, Note_on_c, 0, 72, 0
2, 98820, Note_on_c, 0, 74, 55
2, 98879, Note_on_c, 0, 74, 0
2, 98880, Note_on_c, 0, 76, 55
2, 98939, Note_on_c, 0, 76, 0
2, 98940, Note_on_c, 0, 77, 55
2, 98959, Note_on_c, 0, 77, 0
2, 98960, Note_on_c, 0, 76, 55
2, 98979, Note_on_c, 0, 76, 0
2, 98980, Note_on_c, 0, 74, 55
2, 98999, Note_on_c, 0, 74, 0
2, 99000, Note_on_c, 0, 76, 55
2, 99029, Note_on_c, 0, 76, 0
2, 99060, Note_on_c, 0, 77, 55
2, 99089, Note_on_c, 0, 77, 0
2, 99120, Note_on_c, 0, 79, 55
2, 99149, Note_on_c, 0, 79, 0
2, 99180, Note_on_c, 0, 79, 55
2, 99209, Note_on_c, 0, 79, 0
2, 99240, Note_on_c, 0, 79, 55
2, 99269, Note_on_c, 0, 79, 0
2, 99300, Note_on_c, 0, 79, 55
2, 99329, Note_on_c, 0, 79, 0
2, 99360, Note_on_c, 0, 79, 55
2, 99419, Note_on_c, 0, 79, 0
2, 99420, Note_on_c, 0, 84, 55
2, 99449, Note_on_c, 0, 84, 0
2, 99450, Note_on_c, 0, 81, 55
2, 99479, Note_on_c, 0, 81, 0
2, 99480, Note_on_c, 0, 77, 55
2, 99659, Note_on_c, 0, 77, 0
2, 99720, Note_on_c, 0, 76, 45
2, 99839, Note_on_c, 0, 76, 0
2, 99870, Note_on_c, 0, 73, 46
2, 99899, Note_on_c, 0, 73, 0
2, 99900, Note_on_c, 0, 76, 38
2, 99929, Note_on_c, 0, 76, 0
2, 99930, Note_on_c, 0, 74, 40
2, 99960, Note_on_c, 0, 77, 42
2, 99989, Note_on_c, 0, 77, 0
2, 99989, Note_on_c, 0, 74, 0
2, 99990, Note_on_c, 0, 76, 44
2, 100019, Note_on_c, 0, 76, 0
2, 100020, Note_on_c, 0, 79, 47
2, 100049, Note_on_c, 0, 79, 0
2, 100050, Note_on_c, 0, 77, 49
2, 100079, Note_on_c, 0, 77, 0
2, 100080, Note_on_c, 0, 81, 51
2, 100109, Note_on_c, 0, 81, 0
2, 100110, Note_on_c, 0, 80, 53
2, 100139, Note_on_c, 0, 80, 0
2, 100140, Note_on_c, 0, 83, 56
2, 100169, Note_on_c, 0, 83, 0
2, 100170, Note_on_c, 0, 81, 55
2, 100199, Note_on_c, 0, 81, 0
2, 100200, Note_on_c, 0, 79, 53
2, 100229, Note_on_c, 0, 79, 0
2, 100230, Note_on_c, 0, 77, 51
2, 100259, Note_on_c, 0, 77, 0
2, 100260, Note_on_c, 0, 76, 49
2, 100289, Note_on_c, 0, 76, 0
2, 100290, Note_on_c, 0, 74, 47
2, 100319, Note_on_c, 0, 74, 0
2, 100320, Note_on_c, 0, 72, 45
2, 100559, Note_on_c, 0, 72, 0
2, 100560, Note_on_c, 0, 71, 35
2, 100679, Note_on_c, 0, 71, 0
2, 100800, Note_on_c, 0, 62, 42
2, 100859, Note_on_c, 0, 62, 0
2, 100860, Note_on_c, 0, 64, 45
2, 100889, Note_on_c, 0, 64, 0
2, 100890, Note_on_c, 0, 66, 46
2, 100919, Note_on_c, 0, 66, 0
2, 100920, Note_on_c, 0, 67, 48
2, 100949, Note_on_c, 0, 67, 0
2, 100950, Note_on_c, 0, 69, 50
2, 100979, Note_on_c, 0, 69, 0
2, 100980, Note_on_c, 0, 71, 51
2, 101009, Note_on_c, 0, 71, 0
2, 101010, Note_on_c, 0, 72, 53
2, 101039, Note_on_c, 0, 72, 0
2, 101040, Note_on_c, 0, 74, 54
2, 101070, Note_on_c, 0, 76, 56
2, 101099, Note_on_c, 0, 76, 0
2, 101099, Note_on_c, 0, 74, 0
2, 101100, Note_on_c, 0, 78, 58
2, 101129, Note_on_c, 0, 78, 0
2, 101130, Note_on_c, 0, 79, 59
2, 101159, Note_on_c, 0, 79, 0
2, 101160, Note_on_c, 0, 81, 61
2, 101190, Note_on_c, 0, 83, 62
2, 101219, Note_on_c, 0, 83, 0
2, 101219, Note_on_c, 0, 81, 0
2, 101220, Note_on_c, 0, 84, 64
2, 101249, Note_on_c, 0, 84, 0
2, 101250, Note_on_c, 0, 86, 66
2, 101269, Note_on_c, 0, 86, 0
2, 101280, Note_on_c, 0, 86, 74
2, 101309, Note_on_c, 0, 86, 0
2, 101310, Note_on_c, 0, 84, 64
2, 101339, Note_on_c, 0, 84, 0
2, 101340, Note_on_c, 0, 88, 63
2, 101369, Note_on_c, 0, 88, 0
2, 101370, Note_on_c, 0, 86, 62
2, 101399, Note_on_c, 0, 86, 0
2, 101400, Note_on_c, 0, 84, 61
2, 101429, Note_on_c, 0, 84, 0
2, 101430, Note_on_c, 0, 83, 61
2, 101459, Note_on_c, 0, 83, 0
2, 101460, Note_on_c, 0, 81, 60
2, 101489, Note_on_c, 0, 81, 0
2, 101490, Note_on_c, 0, 79, 59
2, 101519, Note_on_c, 0, 79, 0
2, 101520, Note_on_c, 0, 78, 58
2, 101549, Note_on_c, 0, 78, 0
2, 101550, Note_on_c, 0, 76, 58
2, 101579, Note_on_c, 0, 76, 0
2, 101580, Note_on_c, 0, 74, 57
2, 101609, Note_on_c, 0, 74, 0
2, 101610, Note_on_c, 0, 72, 56
2, 101639, Note_on_c, 0, 72, 0
2, 101640, Note_on_c, 0, 71, 55
2, 101669, Note_on_c, 0, 71, 0
2, 101670, Note_on_c, 0, 69, 55
2, 101699, Note_on_c, 0, 69, 0
2, 101700, Note_on_c, 0, 67, 54
2, 101729, Note_on_c, 0, 67, 0
2, 101730, Note_on_c, 0, 66, 53
2, 101759, Note_on_c, 0, 66, 0
2, 101760, Note_on_c, 0, 67, 54
2, 101790, Note_on_c, 0, 71, 45
2, 101799, Note_on_c, 0, 67, 0
2, 101820, Note_on_c, 0, 76, 47
2, 101829, Note_on_c, 0, 71, 0
2, 101850, Note_on_c, 0, 79, 48
2, 101859, Note_on_c, 0, 76, 0
2, 101880, Note_on_c, 0, 76, 55
2, 101889, Note_on_c, 0, 79, 0
2, 101910, Note_on_c, 0, 81, 51
2, 101919, Note_on_c, 0, 76, 0
2, 101940, Note_on_c, 0, 84, 53
2, 101949, Note_on_c, 0, 81, 0
2, 101970, Note_on_c, 0, 88, 55
2, 101979, Note_on_c, 0, 84, 0
2, 102000, Note_on_c, 0, 79, 55
2, 102009, Note_on_c, 0, 88, 0
2, 102029, Note_on_c, 0, 79, 0
2, 102120, Note_on_c, 0, 78, 55
2, 102149, Note_on_c, 0, 78, 0
2, 102240, Note_on_c, 0, 81, 45
2, 102240, Note_on_c, 0, 74, 45
2, 102240, Note_on_c, 0, 72, 45
2, 102240, Note_on_c, 0, 78, 55
2, 102479, Note_on_c, 0, 78, 0
2, 102479, Note_on_c, 0, 81, 0
2, 102479, Note_on_c, 0, 74, 0
2, 102479, Note_on_c, 0, 72, 0
2, 102480, Note_on_c, 0, 79, 45
2, 102480, Note_on_c, 0, 71, 35
2, 102539, Note_on_c, 0, 71, 0
2, 102539, Note_on_c, 0, 79, 0
2, 106380, Note_on_c, 0, 67, 53
2, 106439, Note_on_c, 0, 67, 0
2, 106440, Note_on_c, 0, 79, 53
2, 106454, Note_on_c, 0, 79, 0
2, 106500, Note_on_c, 0, 79, 43
2, 106514, Note_on_c, 0, 79, 0
2, 106560, Note_on_c, 0, 79, 44
2, 106619, Note_on_c, 0, 79, 0
2, 106620, Note_on_c, 0, 81, 36
2, 106639, Note_on_c, 0, 81, 0
2, 106640, Note_on_c, 0, 79, 37
2, 106659, Note_on_c, 0, 79, 0
2, 106660, Note_on_c, 0, 78, 38
2, 106679, Note_on_c, 0, 78, 0
2, 106680, Note_on_c, 0, 79, 49
2, 106699, Note_on_c, 0, 79, 0
2, 106740, Note_on_c, 0, 81, 52
2, 106799, Note_on_c, 0, 81, 0
2, 106800, Note_on_c, 0, 82, 55
2, 106819, Note_on_c, 0, 82, 0
2, 106860, Note_on_c, 0, 82, 53
2, 106879, Note_on_c, 0, 82, 0
2, 106920, Note_on_c, 0, 81, 50
2, 106939, Note_on_c, 0, 81, 0
2, 106980, Note_on_c, 0, 79, 47
2, 106999, Note_on_c, 0, 79, 0
2, 107040, Note_on_c, 0, 77, 52
2, 107069, Note_on_c, 0, 77, 0
2, 107070, Note_on_c, 0, 89, 62
2, 107089, Note_on_c, 0, 89, 0
2, 107100, Note_on_c, 0, 89, 61
2, 107129, Note_on_c, 0, 89, 0
2, 107130, Note_on_c, 0, 88, 57
2, 107149, Note_on_c, 0, 88, 0
2, 107160, Note_on_c, 0, 88, 60
2, 107189, Note_on_c, 0, 88, 0
2, 107190, Note_on_c, 0, 86, 55
2, 107209, Note_on_c, 0, 86, 0
2, 107220, Note_on_c, 0, 86, 59
2, 107249, Note_on_c, 0, 86, 0
2, 107250, Note_on_c, 0, 84, 54
2, 107269, Note_on_c, 0, 84, 0
2, 107280, Note_on_c, 0, 84, 57
2, 107309, Note_on_c, 0, 84, 0
2, 107310, Note_on_c, 0, 83, 53
2, 107329, Note_on_c, 0, 83, 0
2, 107340, Note_on_c, 0, 83, 56
2, 107369, Note_on_c, 0, 83, 0
2, 107370, Note_on_c, 0, 81, 52
2, 107389, Note_on_c, 0, 81, 0
2, 107400, Note_on_c, 0, 81, 55
2, 107429, Note_on_c, 0, 81, 0
2, 107430, Note_on_c, 0, 79, 50
2, 107449, Note_on_c, 0, 79, 0
2, 107460, Note_on_c, 0, 79, 54
2, 107489, Note_on_c, 0, 79, 0
2, 107490, Note_on_c, 0, 77, 49
2, 107509, Note_on_c, 0, 77, 0
2, 107520, Note_on_c, 0, 76, 46
2, 107520, Note_on_c, 0, 88, 52
2, 107579, Note_on_c, 0, 88, 0
2, 107579, Note_on_c, 0, 76, 0
2, 107580, Note_on_c, 0, 74, 37
2, 107580, Note_on_c, 0, 86, 50
2, 107639, Note_on_c, 0, 86, 0
2, 107639, Note_on_c, 0, 74, 0
2, 107640, Note_on_c, 0, 72, 41
2, 107640, Note_on_c, 0, 84, 56
2, 107699, Note_on_c, 0, 84, 0
2, 107699, Note_on_c, 0, 72, 0
2, 107700, Note_on_c, 0, 70, 42
2, 107700, Note_on_c, 0, 82, 57
2, 107759, Note_on_c, 0, 82, 0
2, 107759, Note_on_c, 0, 70, 0
2, 107760, Note_on_c, 0, 81, 49
2, 107760, Note_on_c, 0, 69, 58
2, 107799, Note_on_c, 0, 69, 0
2, 107799, Note_on_c, 0, 81, 0
2, 107820, Note_on_c, 0, 74, 39
2, 107820, Note_on_c, 0, 86, 51
2, 107879, Note_on_c, 0, 86, 0
2, 107879, Note_on_c, 0, 74, 0
2, 107880, Note_on_c, 0, 76, 41
2, 107880, Note_on_c, 0, 88, 54
2, 107939, Note_on_c, 0, 88, 0
2, 107939, Note_on_c, 0, 76, 0
2, 107940, Note_on_c, 0, 89, 44
2, 107940, Note_on_c, 0, 77, 58
2, 107999, Note_on_c, 0, 77, 0
2, 107999, Note_on_c, 0, 89, 0
2, 108000, Note_on_c, 0, 84, 63
2, 108179, Note_on_c, 0, 84, 0
2, 108180, Note_on_c, 0, 86, 47
2, 108209, Note_on_c, 0, 86, 0
2, 108210, Note_on_c, 0, 84, 43
2, 108239, Note_on_c, 0, 84, 0
2, 108240, Note_on_c, 0, 83, 38
2, 108299, Note_on_c, 0, 83, 0
2, 108480, Note_on_c, 0, 67, 45
2, 108539, Note_on_c, 0, 67, 0
2, 108540, Note_on_c, 0, 69, 38
2, 108569, Note_on_c, 0, 69, 0
2, 108570, Note_on_c, 0, 71, 40
2, 108599, Note_on_c, 0, 71, 0
2, 108600, Note_on_c, 0, 72, 41
2, 108629, Note_on_c, 0, 72, 0
2, 108630, Note_on_c, 0, 74, 43
2, 108659, Note_on_c, 0, 74, 0
2, 108660, Note_on_c, 0, 76, 45
2, 108689, Note_on_c, 0, 76, 0
2, 108690, Note_on_c, 0, 77, 46
2, 108719, Note_on_c, 0, 77, 0
2, 108720, Note_on_c, 0, 79, 48
2, 108749, Note_on_c, 0, 79, 0
2, 108750, Note_on_c, 0, 81, 50
2, 108779, Note_on_c, 0, 81, 0
2, 108780, Note_on_c, 0, 83, 51
2, 108809, Note_on_c, 0, 83, 0
2, 108810, Note_on_c, 0, 84, 53
2, 108839, Note_on_c, 0, 84, 0
2, 108840, Note_on_c, 0, 85, 55
2, 108869, Note_on_c, 0, 85, 0
2, 108870, Note_on_c, 0, 86, 56
2, 108899, Note_on_c, 0, 86, 0
2, 108900, Note_on_c, 0, 87, 58
2, 108929, Note_on_c, 0, 87, 0
2, 108930, Note_on_c, 0, 88, 60
2, 108959, Note_on_c, 0, 88, 0
2, 108960, Note_on_c, 0, 89, 62
2, 108989, Note_on_c, 0, 89, 0
2, 108990, Note_on_c, 0, 86, 55
2, 109019, Note_on_c, 0, 86, 0
2, 109020, Note_on_c, 0, 88, 55
2, 109049, Note_on_c, 0, 88, 0
2, 109050, Note_on_c, 0, 84, 54
2, 109079, Note_on_c, 0, 84, 0
2, 109080, Note_on_c, 0, 86, 53
2, 109109, Note_on_c, 0, 86, 0
2, 109110, Note_on_c, 0, 83, 53
2, 109139, Note_on_c, 0, 83, 0
2, 109140, Note_on_c, 0, 84, 52
2, 109169, Note_on_c, 0, 84, 0
2, 109170, Note_on_c, 0, 81, 51
2, 109199, Note_on_c, 0, 81, 0
2, 109200, Note_on_c, 0, 83, 50
2, 109229, Note_on_c, 0, 83, 0
2, 109230, Note_on_c, 0, 79, 50
2, 109259, Note_on_c, 0, 79, 0
2, 109260, Note_on_c, 0, 81, 49
2, 109289, Note_on_c, 0, 81, 0
2, 109290, Note_on_c, 0, 77, 48
2, 109319, Note_on_c, 0, 77, 0
2, 109320, Note_on_c, 0, 79, 47
2, 109349, Note_on_c, 0, 79, 0
2, 109350, Note_on_c, 0, 76, 47
2, 109379, Note_on_c, 0, 76, 0
2, 109380, Note_on_c, 0, 77, 46
2, 109409, Note_on_c, 0, 77, 0
2, 109410, Note_on_c, 0, 74, 45
2, 109439, Note_on_c, 0, 74, 0
2, 109440, Note_on_c, 0, 72, 47
2, 109469, Note_on_c, 0, 72, 0
2, 109470, Note_on_c, 0, 84, 47
2, 109499, Note_on_c, 0, 84, 0
2, 109500, Note_on_c, 0, 81, 46
2, 109529, Note_on_c, 0, 81, 0
2, 109530, Note_on_c, 0, 76, 45
2, 109559, Note_on_c, 0, 76, 0
2, 109560, Note_on_c, 0, 74, 44
2, 109589, Note_on_c, 0, 74, 0
2, 109590, Note_on_c, 0, 81, 43
2, 109619, Note_on_c, 0, 81, 0
2, 109620, Note_on_c, 0, 77, 42
2, 109649, Note_on_c, 0, 77, 0
2, 109650, Note_on_c, 0, 74, 41
2, 109679, Note_on_c, 0, 74, 0
2, 109680, Note_on_c, 0, 72, 40
2, 109739, Note_on_c, 0, 72, 0
2, 109800, Note_on_c, 0, 74, 36
2, 109859, Note_on_c, 0, 74, 0
2, 109920, Note_on_c, 0, 74, 43
2, 110099, Note_on_c, 0, 74, 0
2, 110100, Note_on_c, 0, 75, 40
2, 110159, Note_on_c, 0, 75, 0
2, 110160, Note_on_c, 0, 76, 33
2, 110279, Note_on_c, 0, 76, 0
2, 110400, Note_on_c, 0, 67, 53
2, 110459, Note_on_c, 0, 67, 0
2, 110460, Note_on_c, 0, 69, 44
2, 110489, Note_on_c, 0, 69, 0
2, 110490, Note_on_c, 0, 71, 45
2, 110519, Note_on_c, 0, 71, 0
2, 110520, Note_on_c, 0, 72, 46
2, 110549, Note_on_c, 0, 72, 0
2, 110550, Note_on_c, 0, 74, 47
2, 110579, Note_on_c, 0, 74, 0
2, 110580, Note_on_c, 0, 76, 48
2, 110609, Note_on_c, 0, 76, 0
2, 110610, Note_on_c, 0, 77, 49
2, 110639, Note_on_c, 0, 77, 0
2, 110640, Note_on_c, 0, 79, 50
2, 110669, Note_on_c, 0, 79, 0
2, 110670, Note_on_c, 0, 81, 51
2, 110699, Note_on_c, 0, 81, 0
2, 110700, Note_on_c, 0, 83, 52
2, 110729, Note_on_c, 0, 83, 0
2, 110730, Note_on_c, 0, 84, 54
2, 110759, Note_on_c, 0, 84, 0
2, 110760, Note_on_c, 0, 85, 56
2, 110789, Note_on_c, 0, 85, 0
2, 110790, Note_on_c, 0, 86, 58
2, 110819, Note_on_c, 0, 86, 0
2, 110820, Note_on_c, 0, 87, 59
2, 110849, Note_on_c, 0, 87, 0
2, 110850, Note_on_c, 0, 88, 62
2, 110879, Note_on_c, 0, 88, 0
2, 110880, Note_on_c, 0, 89, 66
2, 110880, Note_on_c, 0, 77, 50
2, 110899, Note_on_c, 0, 77, 0
2, 110899, Note_on_c, 0, 89, 0
2, 110940, Note_on_c, 0, 88, 65
2, 110940, Note_on_c, 0, 76, 49
2, 110959, Note_on_c, 0, 76, 0
2, 110959, Note_on_c, 0, 88, 0
2, 111000, Note_on_c, 0, 74, 48
2, 111000, Note_on_c, 0, 86, 64
2, 111019, Note_on_c, 0, 86, 0
2, 111019, Note_on_c, 0, 74, 0
2, 111060, Note_on_c, 0, 72, 48
2, 111060, Note_on_c, 0, 84, 63
2, 111079, Note_on_c, 0, 84, 0
2, 111079, Note_on_c, 0, 72, 0
2, 111120, Note_on_c, 0, 71, 47
2, 111120, Note_on_c, 0, 83, 62
2, 111139, Note_on_c, 0, 83, 0
2, 111139, Note_on_c, 0, 71, 0
2, 111180, Note_on_c, 0, 81, 61
2, 111180, Note_on_c, 0, 69, 46
2, 111199, Note_on_c, 0, 69, 0
2, 111199, Note_on_c, 0, 81, 0
2, 111240, Note_on_c, 0, 79, 60
2, 111240, Note_on_c, 0, 67, 45
2, 111259, Note_on_c, 0, 67, 0
2, 111259, Note_on_c, 0, 79, 0
2, 111300, Note_on_c, 0, 65, 44
2, 111300, Note_on_c, 0, 77, 58
2, 111319, Note_on_c, 0, 77, 0
2, 111319, Note_on_c, 0, 65, 0
2, 111390, Note_on_c, 0, 84, 63
2, 111419, Note_on_c, 0, 84, 0
2, 111420, Note_on_c, 0, 81, 52
2, 111449, Note_on_c, 0, 81, 0
2, 111450, Note_on_c, 0, 76, 51
2, 111479, Note_on_c, 0, 76, 0
2, 111480, Note_on_c, 0, 74, 50
2, 111509, Note_on_c, 0, 74, 0
2, 111510, Note_on_c, 0, 81, 49
2, 111539, Note_on_c, 0, 81, 0
2, 111540, Note_on_c, 0, 77, 47
2, 111569, Note_on_c, 0, 77, 0
2, 111570, Note_on_c, 0, 74, 46
2, 111599, Note_on_c, 0, 74, 0
2, 111600, Note_on_c, 0, 72, 45
2, 111629, Note_on_c, 0, 72, 0
2, 111630, Note_on_c, 0, 79, 44
2, 111659, Note_on_c, 0, 79, 0
2, 111660, Note_on_c, 0, 76, 43
2, 111689, Note_on_c, 0, 76, 0
2, 111690, Note_on_c, 0, 72, 41
2, 111719, Note_on_c, 0, 72, 0
2, 111720, Note_on_c, 0, 71, 40
2, 111749, Note_on_c, 0, 71, 0
2, 111750, Note_on_c, 0, 77, 39
2, 111779, Note_on_c, 0, 77, 0
2, 111780, Note_on_c, 0, 74, 38
2, 111809, Note_on_c, 0, 74, 0
2, 111810, Note_on_c, 0, 71, 37
2, 111839, Note_on_c, 0, 71, 0
2, 111840, Note_on_c, 0, 74, 35
2, 112079, Note_on_c, 0, 74, 0
2, 112080, Note_on_c, 0, 72, 28
2, 112139, Note_on_c, 0, 72, 0
2, 112800, Note_on_c, 0, 60, 42
2, 112829, Note_on_c, 0, 60, 0
2, 112830, Note_on_c, 0, 62, 43
2, 112859, Note_on_c, 0, 62, 0
2, 112860, Note_on_c, 0, 63, 45
2, 112889, Note_on_c, 0, 63, 0
2, 112890, Note_on_c, 0, 65, 46
2, 112919, Note_on_c, 0, 65, 0
2, 112920, Note_on_c, 0, 67, 48
2, 112949, Note_on_c, 0, 67, 0
2, 112950, Note_on_c, 0, 69, 50
2, 112979, Note_on_c, 0, 69, 0
2, 112980, Note_on_c, 0, 71, 51
2, 113009, Note_on_c, 0, 71, 0
2, 113010, Note_on_c, 0, 72, 53
2, 113039, Note_on_c, 0, 72, 0
2, 113040, Note_on_c, 0, 74, 55
2, 113069, Note_on_c, 0, 74, 0
2, 113070, Note_on_c, 0, 75, 56
2, 113099, Note_on_c, 0, 75, 0
2, 113100, Note_on_c, 0, 77, 58
2, 113129, Note_on_c, 0, 77, 0
2, 113130, Note_on_c, 0, 79, 60
2, 113159, Note_on_c, 0, 79, 0
2, 113160, Note_on_c, 0, 81, 61
2, 113189, Note_on_c, 0, 81, 0
2, 113190, Note_on_c, 0, 83, 58
2, 113219, Note_on_c, 0, 83, 0
2, 113220, Note_on_c, 0, 84, 55
2, 113249, Note_on_c, 0, 84, 0
2, 113790, Note_on_c, 0, 55, 42
2, 113819, Note_on_c, 0, 55, 0
2, 113820, Note_on_c, 0, 57, 43
2, 113849, Note_on_c, 0, 57, 0
2, 113850, Note_on_c, 0, 59, 45
2, 113879, Note_on_c, 0, 59, 0
2, 113880, Note_on_c, 0, 60, 46
2, 113909, Note_on_c, 0, 60, 0
2, 113910, Note_on_c, 0, 62, 48
2, 113939, Note_on_c, 0, 62, 0
2, 113940, Note_on_c, 0, 64, 50
2, 113969, Note_on_c, 0, 64, 0
2, 113970, Note_on_c, 0, 66, 51
2, 113999, Note_on_c, 0, 66, 0
2, 114000, Note_on_c, 0, 67, 53
2, 114029, Note_on_c, 0, 67, 0
2, 114030, Note_on_c, 0, 69, 55
2, 114059, Note_on_c, 0, 69, 0
2, 114060, Note_on_c, 0, 71, 56
2, 114089, Note_on_c, 0, 71, 0
2, 114090, Note_on_c, 0, 72, 58
2, 114119, Note_on_c, 0, 72, 0
2, 114120, Note_on_c, 0, 74, 60
2, 114149, Note_on_c, 0, 74, 0
2, 114150, Note_on_c, 0, 76, 61
2, 114179, Note_on_c, 0, 76, 0
2, 114180, Note_on_c, 0, 78, 63
2, 114209, Note_on_c, 0, 78, 0
2, 114210, Note_on_c, 0, 79, 55
2, 114239, Note_on_c, 0, 79, 0
2, 114240, Note_on_c, 0, 80, 54
2, 114269, Note_on_c, 0, 80, 0
2, 114270, Note_on_c, 0, 75, 44
2, 114299, Note_on_c, 0, 75, 0
2, 114300, Note_on_c, 0, 72, 44
2, 114329, Note_on_c, 0, 72, 0
2, 114330, Note_on_c, 0, 68, 45
2, 114359, Note_on_c, 0, 68, 0
2, 114360, Note_on_c, 0, 80, 45
2, 114389, Note_on_c, 0, 80, 0
2, 114390, Note_on_c, 0, 68, 45
2, 114419, Note_on_c, 0, 68, 0
2, 114420, Note_on_c, 0, 80, 46
2, 114449, Note_on_c, 0, 80, 0
2, 114450, Note_on_c, 0, 68, 46
2, 114479, Note_on_c, 0, 68, 0
2, 114480, Note_on_c, 0, 80, 56
2, 114509, Note_on_c, 0, 80, 0
2, 114510, Note_on_c, 0, 77, 47
2, 114539, Note_on_c, 0, 77, 0
2, 114540, Note_on_c, 0, 74, 47
2, 114569, Note_on_c, 0, 74, 0
2, 114570, Note_on_c, 0, 68, 47
2, 114599, Note_on_c, 0, 68, 0
2, 114600, Note_on_c, 0, 80, 48
2, 114629, Note_on_c, 0, 80, 0
2, 114630, Note_on_c, 0, 68, 48
2, 114659, Note_on_c, 0, 68, 0
2, 114660, Note_on_c, 0, 80, 48
2, 114689, Note_on_c, 0, 80, 0
2, 114690, Note_on_c, 0, 68, 49
2, 114719, Note_on_c, 0, 68, 0
2, 114720, Note_on_c, 0, 72, 59
2, 114750, Note_on_c, 0, 75, 49
2, 114779, Note_on_c, 0, 75, 0
2, 114779, Note_on_c, 0, 72, 0
2, 114780, Note_on_c, 0, 80, 50
2, 114809, Note_on_c, 0, 80, 0
2, 114810, Note_on_c, 0, 84, 50
2, 114839, Note_on_c, 0, 84, 0
2, 114840, Note_on_c, 0, 70, 60
2, 114870, Note_on_c, 0, 82, 51
2, 114899, Note_on_c, 0, 82, 0
2, 114899, Note_on_c, 0, 70, 0
2, 114900, Note_on_c, 0, 68, 61
2, 114929, Note_on_c, 0, 68, 0
2, 114930, Note_on_c, 0, 80, 51
2, 114959, Note_on_c, 0, 80, 0
2, 114960, Note_on_c, 0, 67, 52
2, 114990, Note_on_c, 0, 70, 52
2, 115019, Note_on_c, 0, 70, 0
2, 115019, Note_on_c, 0, 67, 0
2, 115020, Note_on_c, 0, 73, 52
2, 115049, Note_on_c, 0, 73, 0
2, 115050, Note_on_c, 0, 79, 55
2, 115079, Note_on_c, 0, 79, 0
2, 115080, Note_on_c, 0, 70, 60
2, 115109, Note_on_c, 0, 70, 0
2, 115110, Note_on_c, 0, 73, 65
2, 115139, Note_on_c, 0, 73, 0
2, 115140, Note_on_c, 0, 79, 67
2, 115169, Note_on_c, 0, 79, 0
2, 115170, Note_on_c, 0, 82, 70
2, 115199, Note_on_c, 0, 82, 0
2, 115230, Note_on_c, 0, 74, 66
2, 115259, Note_on_c, 0, 74, 0
2, 115260, Note_on_c, 0, 86, 76
2, 115289, Note_on_c, 0, 86, 0
2, 115290, Note_on_c, 0, 82, 65
2, 115319, Note_on_c, 0, 82, 0
2, 115320, Note_on_c, 0, 79, 63
2, 115349, Note_on_c, 0, 79, 0
2, 115350, Note_on_c, 0, 74, 61
2, 115379, Note_on_c, 0, 74, 0
2, 115380, Note_on_c, 0, 70, 59
2, 115409, Note_on_c, 0, 70, 0
2, 115410, Note_on_c, 0, 67, 47
2, 115439, Note_on_c, 0, 67, 0
2, 115470, Note_on_c, 0, 72, 66
2, 115499, Note_on_c, 0, 72, 0
2, 115500, Note_on_c, 0, 84, 76
2, 115529, Note_on_c, 0, 84, 0
2, 115530, Note_on_c, 0, 81, 63
2, 115559, Note_on_c, 0, 81, 0
2, 115560, Note_on_c, 0, 78, 60
2, 115589, Note_on_c, 0, 78, 0
2, 115590, Note_on_c, 0, 72, 57
2, 115619, Note_on_c, 0, 72, 0
2, 115620, Note_on_c, 0, 69, 54
2, 115649, Note_on_c, 0, 69, 0
2, 115650, Note_on_c, 0, 66, 51
2, 115679, Note_on_c, 0, 66, 0
2, 115680, Note_on_c, 0, 67, 55
2, 115799, Note_on_c, 0, 67, 0
2, 116670, Note_on_c, 0, 55, 44
2, 116699, Note_on_c, 0, 55, 0
2, 116700, Note_on_c, 0, 57, 45
2, 116729, Note_on_c, 0, 57, 0
2, 116730, Note_on_c, 0, 59, 47
2, 116759, Note_on_c, 0, 59, 0
2, 116760, Note_on_c, 0, 60, 48
2, 116789, Note_on_c, 0, 60, 0
2, 116790, Note_on_c, 0, 62, 50
2, 116819, Note_on_c, 0, 62, 0
2, 116820, Note_on_c, 0, 64, 51
2, 116849, Note_on_c, 0, 64, 0
2, 116850, Note_on_c, 0, 66, 53
2, 116879, Note_on_c, 0, 66, 0
2, 116880, Note_on_c, 0, 67, 55
2, 116909, Note_on_c, 0, 67, 0
2, 116910, Note_on_c, 0, 69, 56
2, 116939, Note_on_c, 0, 69, 0
2, 116940, Note_on_c, 0, 71, 58
2, 116969, Note_on_c, 0, 71, 0
2, 116970, Note_on_c, 0, 72, 59
2, 116999, Note_on_c, 0, 72, 0
2, 117000, Note_on_c, 0, 74, 61
2, 117029, Note_on_c, 0, 74, 0
2, 117030, Note_on_c, 0, 75, 62
2, 117059, Note_on_c, 0, 75, 0
2, 117060, Note_on_c, 0, 77, 64
2, 117089, Note_on_c, 0, 77, 0
2, 117090, Note_on_c, 0, 79, 56
2, 117104, Note_on_c, 0, 79, 0
2, 117105, Note_on_c, 0, 80, 55
2, 117119, Note_on_c, 0, 80, 0
2, 117630, Note_on_c, 0, 84, 52
2, 117659, Note_on_c, 0, 84, 0
2, 117660, Note_on_c, 0, 82, 52
2, 117689, Note_on_c, 0, 82, 0
2, 117690, Note_on_c, 0, 80, 53
2, 117719, Note_on_c, 0, 80, 0
2, 117720, Note_on_c, 0, 79, 54
2, 117749, Note_on_c, 0, 79, 0
2, 117750, Note_on_c, 0, 77, 55
2, 117779, Note_on_c, 0, 77, 0
2, 117780, Note_on_c, 0, 75, 55
2, 117809, Note_on_c, 0, 75, 0
2, 117810, Note_on_c, 0, 74, 56
2, 117839, Note_on_c, 0, 74, 0
2, 117840, Note_on_c, 0, 72, 57
2, 117869, Note_on_c, 0, 72, 0
2, 117870, Note_on_c, 0, 70, 58
2, 117899, Note_on_c, 0, 70, 0
2, 117900, Note_on_c, 0, 68, 59
2, 117929, Note_on_c, 0, 68, 0
2, 117930, Note_on_c, 0, 67, 59
2, 117959, Note_on_c, 0, 67, 0
2, 117960, Note_on_c, 0, 65, 60
2, 117989, Note_on_c, 0, 65, 0
2, 117990, Note_on_c, 0, 63, 61
2, 118019, Note_on_c, 0, 63, 0
2, 118020, Note_on_c, 0, 62, 62
2, 118049, Note_on_c, 0, 62, 0
2, 118050, Note_on_c, 0, 60, 63
2, 118079, Note_on_c, 0, 60, 0
2, 118080, Note_on_c, 0, 85, 65
2, 118109, Note_on_c, 0, 85, 0
2, 118110, Note_on_c, 0, 80, 55
2, 118139, Note_on_c, 0, 80, 0
2, 118140, Note_on_c, 0, 77, 55
2, 118169, Note_on_c, 0, 77, 0
2, 118170, Note_on_c, 0, 73, 55
2, 118199, Note_on_c, 0, 73, 0
2, 118200, Note_on_c, 0, 85, 55
2, 118229, Note_on_c, 0, 85, 0
2, 118230, Note_on_c, 0, 73, 55
2, 118249, Note_on_c, 0, 73, 0
2, 118260, Note_on_c, 0, 85, 55
2, 118289, Note_on_c, 0, 85, 0
2, 118290, Note_on_c, 0, 73, 55
2, 118309, Note_on_c, 0, 73, 0
2, 118320, Note_on_c, 0, 85, 65
2, 118349, Note_on_c, 0, 85, 0
2, 118350, Note_on_c, 0, 82, 55
2, 118379, Note_on_c, 0, 82, 0
2, 118380, Note_on_c, 0, 79, 55
2, 118409, Note_on_c, 0, 79, 0
2, 118410, Note_on_c, 0, 73, 55
2, 118439, Note_on_c, 0, 73, 0
2, 118440, Note_on_c, 0, 85, 55
2, 118469, Note_on_c, 0, 85, 0
2, 118470, Note_on_c, 0, 73, 55
2, 118489, Note_on_c, 0, 73, 0
2, 118500, Note_on_c, 0, 85, 55
2, 118529, Note_on_c, 0, 85, 0
2, 118530, Note_on_c, 0, 73, 55
2, 118549, Note_on_c, 0, 73, 0
2, 118560, Note_on_c, 0, 77, 65
2, 118590, Note_on_c, 0, 80, 55
2, 118619, Note_on_c, 0, 80, 0
2, 118619, Note_on_c, 0, 77, 0
2, 118620, Note_on_c, 0, 85, 55
2, 118649, Note_on_c, 0, 85, 0
2, 118650, Note_on_c, 0, 89, 55
2, 118679, Note_on_c, 0, 89, 0
2, 118680, Note_on_c, 0, 75, 65
2, 118709, Note_on_c, 0, 75, 0
2, 118710, Note_on_c, 0, 87, 55
2, 118739, Note_on_c, 0, 87, 0
2, 118740, Note_on_c, 0, 73, 65
2, 118769, Note_on_c, 0, 73, 0
2, 118770, Note_on_c, 0, 85, 55
2, 118799, Note_on_c, 0, 85, 0
2, 118800, Note_on_c, 0, 72, 65
2, 118830, Note_on_c, 0, 75, 65
2, 118859, Note_on_c, 0, 75, 0
2, 118859, Note_on_c, 0, 72, 0
2, 118860, Note_on_c, 0, 78, 56
2, 118889, Note_on_c, 0, 78, 0
2, 118890, Note_on_c, 0, 84, 58
2, 118919, Note_on_c, 0, 84, 0
2, 118920, Note_on_c, 0, 75, 60
2, 118949, Note_on_c, 0, 75, 0
2, 118950, Note_on_c, 0, 78, 63
2, 118979, Note_on_c, 0, 78, 0
2, 118980, Note_on_c, 0, 84, 66
2, 119009, Note_on_c, 0, 84, 0
2, 119010, Note_on_c, 0, 87, 69
2, 119039, Note_on_c, 0, 87, 0
2, 119070, Control_c, 0, 64, 127
2, 119070, Note_on_c, 0, 67, 69
2, 119099, Note_on_c, 0, 67, 0
2, 119100, Note_on_c, 0, 79, 78
2, 119129, Note_on_c, 0, 79, 0
2, 119130, Note_on_c, 0, 75, 76
2, 119159, Note_on_c, 0, 75, 0
2, 119160, Note_on_c, 0, 72, 73
2, 119189, Note_on_c, 0, 72, 0
2, 119190, Note_on_c, 0, 67, 71
2, 119219, Note_on_c, 0, 67, 0
2, 119220, Control_c, 0, 64, 0
2, 119220, Note_on_c, 0, 63, 68
2, 119249, Note_on_c, 0, 63, 0
2, 119250, Note_on_c, 0, 60, 67
2, 119279, Note_on_c, 0, 60, 0
2, 119310, Note_on_c, 0, 65, 66
2, 119339, Note_on_c, 0, 65, 0
2, 119340, Control_c, 0, 64, 127
2, 119340, Note_on_c, 0, 77, 65
2, 119369, Note_on_c, 0, 77, 0
2, 119370, Note_on_c, 0, 74, 63
2, 119399, Note_on_c, 0, 74, 0
2, 119400, Note_on_c, 0, 71, 61
2, 119429, Note_on_c, 0, 71, 0
2, 119430, Note_on_c, 0, 65, 60
2, 119459, Note_on_c, 0, 65, 0
2, 119460, Control_c, 0, 64, 0
2, 119460, Note_on_c, 0, 62, 58
2, 119489, Note_on_c, 0, 62, 0
2, 119490, Note_on_c, 0, 59, 56
2, 119519, Note_on_c, 0, 59, 0
2, 119550, Note_on_c, 0, 60, 45
2, 119579, Note_on_c, 0, 60, 0
2, 119580, Control_c, 0, 64, 127
2, 119580, Note_on_c, 0, 63, 47
2, 119609, Note_on_c, 0, 63, 0
2, 119610, Note_on_c, 0, 60, 49
2, 119639, Note_on_c, 0, 60, 0
2, 119640, Note_on_c, 0, 67, 51
2, 119669, Note_on_c, 0, 67, 0
2, 119670, Note_on_c, 0, 63, 53
2, 119699, Note_on_c, 0, 63, 0
2, 119700, Note_on_c, 0, 72, 55
2, 119729, Note_on_c, 0, 72, 0
2, 119730, Note_on_c, 0, 67, 57
2, 119759, Note_on_c, 0, 67, 0
2, 119760, Note_on_c, 0, 75, 59
2, 119789, Note_on_c, 0, 75, 0
2, 119790, Note_on_c, 0, 72, 61
2, 119819, Note_on_c, 0, 72, 0
2, 119820, Note_on_c, 0, 79, 63
2, 119849, Note_on_c, 0, 79, 0
2, 119850, Note_on_c, 0, 75, 65
2, 119879, Note_on_c, 0, 75, 0
2, 119880, Note_on_c, 0, 84, 67
2, 119909, Note_on_c, 0, 84, 0
2, 119910, Note_on_c, 0, 79, 55
2, 119939, Note_on_c, 0, 79, 0
2, 119940, Control_c, 0, 64, 0
2, 119940, Note_on_c, 0, 75, 55
2, 119969, Note_on_c, 0, 75, 0
2, 119970, Note_on_c, 0, 72, 55
2, 119999, Note_on_c, 0, 72, 0
2, 120030, Note_on_c, 0, 60, 45
2, 120059, Note_on_c, 0, 60, 0
2, 120060, Control_c, 0, 64, 127
2, 120060, Note_on_c, 0, 64, 47
2, 120089, Note_on_c, 0, 64, 0
2, 120090, Note_on_c, 0, 60, 49
2, 120119, Note_on_c, 0, 60, 0
2, 120120, Note_on_c, 0, 67, 51
2, 120149, Note_on_c, 0, 67, 0
2, 120150, Note_on_c, 0, 64, 53
2, 120179, Note_on_c, 0, 64, 0
2, 120180, Note_on_c, 0, 72, 55
2, 120209, Note_on_c, 0, 72, 0
2, 120210, Note_on_c, 0, 67, 57
2, 120239, Note_on_c, 0, 67, 0
2, 120240, Note_on_c, 0, 76, 59
2, 120269, Note_on_c, 0, 76, 0
2, 120270, Note_on_c, 0, 72, 61
2, 120299, Note_on_c, 0, 72, 0
2, 120300, Note_on_c, 0, 79, 63
2, 120329, Note_on_c, 0, 79, 0
2, 120330, Note_on_c, 0, 76, 65
2, 120359, Note_on_c, 0, 76, 0
2, 120360, Note_on_c, 0, 84, 67
2, 120389, Note_on_c, 0, 84, 0
2, 120390, Note_on_c, 0, 79, 55
2, 120419, Note_on_c, 0, 79, 0
2, 120420, Control_c, 0, 64, 0
2, 120420, Note_on_c, 0, 76, 55
2, 120449, Note_on_c, 0, 76, 0
2, 120450, Note_on_c, 0, 72, 55
2, 120479, Note_on_c, 0, 72, 0
2, 120510, Note_on_c, 0, 60, 45
2, 120539, Note_on_c, 0, 60, 0
2, 120540, Control_c, 0, 64, 127
2, 120540, Note_on_c, 0, 65, 47
2, 120569, Note_on_c, 0, 65, 0
2, 120570, Note_on_c, 0, 60, 49
2, 120599, Note_on_c, 0, 60, 0
2, 120600, Note_on_c, 0, 69, 53
2, 120629, Note_on_c, 0, 69, 0
2, 120630, Note_on_c, 0, 65, 55
2, 120659, Note_on_c, 0, 65, 0
2, 120660, Note_on_c, 0, 72, 58
2, 120689, Note_on_c, 0, 72, 0
2, 120690, Note_on_c, 0, 69, 61
2, 120719, Note_on_c, 0, 69, 0
2, 120720, Note_on_c, 0, 77, 64
2, 120749, Note_on_c, 0, 77, 0
2, 120750, Note_on_c, 0, 72, 67
2, 120779, Note_on_c, 0, 72, 0
2, 120780, Note_on_c, 0, 81, 71
2, 120809, Note_on_c, 0, 81, 0
2, 120810, Note_on_c, 0, 77, 74
2, 120839, Note_on_c, 0, 77, 0
2, 120840, Note_on_c, 0, 84, 77
2, 120869, Note_on_c, 0, 84, 0
2, 120870, Note_on_c, 0, 81, 76
2, 120899, Note_on_c, 0, 81, 0
2, 120900, Note_on_c, 0, 77, 76
2, 120929, Note_on_c, 0, 77, 0
2, 120930, Note_on_c, 0, 72, 78
2, 120959, Note_on_c, 0, 72, 0
2, 120960, Control_c, 0, 64, 0
2, 120960, Note_on_c, 0, 87, 81
2, 121199, Note_on_c, 0, 87, 0
2, 121200, Note_on_c, 0, 78, 75
2, 121439, Note_on_c, 0, 78, 0
2, 121440, Note_on_c, 0, 79, 65
2, 121679, Note_on_c, 0, 79, 0
2, 121860, Note_on_c, 0, 79, 63
2, 121860, Note_on_c, 0, 72, 53
2, 121919, Note_on_c, 0, 72, 0
2, 121919, Note_on_c, 0, 79, 0
2, 121920, Note_on_c, 0, 71, 43
2, 121949, Note_on_c, 0, 71, 0
2, 121980, Note_on_c, 0, 79, 63
2, 121980, Note_on_c, 0, 72, 53
2, 122039, Note_on_c, 0, 72, 0
2, 122039, Note_on_c, 0, 79, 0
2, 122040, Note_on_c, 0, 71, 43
2, 122069, Note_on_c, 0, 71, 0
2, 122100, Note_on_c, 0, 70, 53
2, 122100, Note_on_c, 0, 77, 63
2, 122159, Note_on_c, 0, 70, 0
2, 122160, Note_on_c, 0, 69, 43
2, 122219, Note_on_c, 0, 69, 0
2, 122219, Note_on_c, 0, 77, 0
2, 122220, Note_on_c, 0, 70, 43
2, 122279, Note_on_c, 0, 70, 0
2, 122280, Note_on_c, 0, 69, 43
2, 122309, Note_on_c, 0, 69, 0
2, 122340, Note_on_c, 0, 77, 63
2, 122340, Note_on_c, 0, 70, 53
2, 122399, Note_on_c, 0, 70, 0
2, 122399, Note_on_c, 0, 77, 0
2, 122400, Note_on_c, 0, 69, 43
2, 122429, Note_on_c, 0, 69, 0
2, 122460, Note_on_c, 0, 77, 63
2, 122460, Note_on_c, 0, 70, 53
2, 122519, Note_on_c, 0, 70, 0
2, 122519, Note_on_c, 0, 77, 0
2, 122520, Note_on_c, 0, 69, 43
2, 122549, Note_on_c, 0, 69, 0
2, 122580, Note_on_c, 0, 68, 53
2, 122580, Note_on_c, 0, 75, 63
2, 122639, Note_on_c, 0, 68, 0
2, 122640, Note_on_c, 0, 67, 43
2, 122699, Note_on_c, 0, 67, 0
2, 122699, Note_on_c, 0, 75, 0
2, 122700, Note_on_c, 0, 68, 43
2, 122759, Note_on_c, 0, 68, 0
2, 122760, Note_on_c, 0, 67, 43
2, 122789, Note_on_c, 0, 67, 0
2, 122820, Note_on_c, 0, 68, 53
2, 122820, Note_on_c, 0, 75, 58
2, 122879, Note_on_c, 0, 75, 0
2, 122879, Note_on_c, 0, 68, 0
2, 122880, Note_on_c, 0, 67, 43
2, 122909, Note_on_c, 0, 67, 0
2, 122940, Note_on_c, 0, 68, 53
2, 122940, Note_on_c, 0, 74, 57
2, 122999, Note_on_c, 0, 74, 0
2, 122999, Note_on_c, 0, 68, 0
2, 123000, Note_on_c, 0, 67, 43
2, 123029, Note_on_c, 0, 67, 0
2, 123060, Note_on_c, 0, 72, 63
2, 123060, Note_on_c, 0, 68, 53
2, 123119, Note_on_c, 0, 68, 0
2, 123120, Note_on_c, 0, 66, 53
2, 123179, Note_on_c, 0, 66, 0
2, 123179, Note_on_c, 0, 72, 0
2, 123180, Note_on_c, 0, 68, 69
2, 123180, Note_on_c, 0, 66, 55
2, 123239, Note_on_c, 0, 66, 0
2, 123240, Note_on_c, 0, 63, 58
2, 123299, Note_on_c, 0, 63, 0
2, 123299, Note_on_c, 0, 68, 0
2, 123300, Note_on_c, 0, 60, 41
2, 123300, Note_on_c, 0, 66, 61
2, 123359, Note_on_c, 0, 66, 0
2, 123359, Note_on_c, 0, 60, 0
2, 123360, Note_on_c, 0, 59, 54
2, 123360, Note_on_c, 0, 67, 76
2, 123439, Note_on_c, 0, 67, 0
2, 123439, Note_on_c, 0, 59, 0
2, 123540, Note_on_c, 0, 67, 33
2, 123569, Note_on_c, 0, 67, 0
2, 123600, Note_on_c, 0, 67, 33
2, 123629, Note_on_c, 0, 67, 0
2, 123660, Note_on_c, 0, 67, 33
2, 123679, Note_on_c, 0, 67, 0
2, 123720, Note_on_c, 0, 67, 33
2, 123739, Note_on_c, 0, 67, 0
2, 123780, Note_on_c, 0, 67, 33
2, 123799, Note_on_c, 0, 67, 0
2, 123840, Note_on_c, 0, 67, 33
2, 123989, Note_on_c, 0, 67, 0
2, 124020, Note_on_c, 0, 67, 34
2, 124020, Note_on_c, 0, 68, 34
2, 124049, Note_on_c, 0, 68, 0
2, 124049, Note_on_c, 0, 67, 0
2, 124080, Note_on_c, 0, 67, 34
2, 124080, Note_on_c, 0, 68, 34
2, 124109, Note_on_c, 0, 68, 0
2, 124109, Note_on_c, 0, 67, 0
2, 124140, Note_on_c, 0, 68, 34
2, 124140, Note_on_c, 0, 67, 34
2, 124159, Note_on_c, 0, 67, 0
2, 124159, Note_on_c, 0, 68, 0
2, 124200, Note_on_c, 0, 67, 35
2, 124200, Note_on_c, 0, 68, 35
2, 124219, Note_on_c, 0, 68, 0
2, 124219, Note_on_c, 0, 67, 0
2, 124260, Note_on_c, 0, 67, 35
2, 124260, Note_on_c, 0, 68, 35
2, 124279, Note_on_c, 0, 68, 0
2, 124279, Note_on_c, 0, 67, 0
2, 124320, Note_on_c, 0, 68, 35
2, 124320, Note_on_c, 0, 65, 35
2, 124469, Note_on_c, 0, 65, 0
2, 124469, Note_on_c, 0, 68, 0
2, 124500, Note_on_c, 0, 67, 36
2, 124500, Note_on_c, 0, 65, 36
2, 124529, Note_on_c, 0, 65, 0
2, 124529, Note_on_c, 0, 67, 0
2, 124560, Note_on_c, 0, 65, 36
2, 124560, Note_on_c, 0, 67, 36
2, 124589, Note_on_c, 0, 67, 0
2, 124589, Note_on_c, 0, 65, 0
2, 124620, Note_on_c, 0, 65, 36
2, 124620, Note_on_c, 0, 67, 36
2, 124639, Note_on_c, 0, 67, 0
2, 124639, Note_on_c, 0, 65, 0
2, 124680, Note_on_c, 0, 65, 36
2, 124680, Note_on_c, 0, 67, 36
2, 124699, Note_on_c, 0, 67, 0
2, 124699, Note_on_c, 0, 65, 0
2, 124740, Note_on_c, 0, 67, 36
2, 124740, Note_on_c, 0, 65, 36
2, 124759, Note_on_c, 0, 65, 0
2, 124759, Note_on_c, 0, 67, 0
2, 124800, Note_on_c, 0, 67, 37
2, 124800, Note_on_c, 0, 65, 37
2, 124920, Note_on_c, 0, 72, 43
2, 125039, Note_on_c, 0, 65, 0
2, 125039, Note_on_c, 0, 67, 0
2, 125040, Note_on_c, 0, 63, 43
2, 125159, Note_on_c, 0, 72, 0
2, 125160, Note_on_c, 0, 68, 43
2, 125279, Note_on_c, 0, 63, 0
2, 125280, Note_on_c, 0, 62, 43
2, 125399, Note_on_c, 0, 62, 0
2, 125399, Note_on_c, 0, 68, 0
2, 125400, Note_on_c, 0, 63, 40
2, 125519, Note_on_c, 0, 63, 0
2, 125520, Note_on_c, 0, 65, 37
2, 125639, Note_on_c, 0, 65, 0
2, 125640, Note_on_c, 0, 67, 33
2, 125759, Note_on_c, 0, 67, 0
2, 125760, Note_on_c, 0, 64, 43
2, 125880, Note_on_c, 0, 73, 53
2, 125999, Note_on_c, 0, 73, 0
2, 125999, Note_on_c, 0, 64, 0
2, 126000, Note_on_c, 0, 72, 52
2, 126029, Note_on_c, 0, 72, 0
2, 126060, Note_on_c, 0, 72, 47
2, 126089, Note_on_c, 0, 72, 0
2, 126120, Note_on_c, 0, 74, 52
2, 126149, Note_on_c, 0, 74, 0
2, 126180, Note_on_c, 0, 76, 57
2, 126209, Note_on_c, 0, 76, 0
2, 126240, Note_on_c, 0, 69, 43
2, 126360, Note_on_c, 0, 78, 73
2, 126479, Note_on_c, 0, 78, 0
2, 126479, Note_on_c, 0, 69, 0
2, 126480, Note_on_c, 0, 77, 53
2, 126509, Note_on_c, 0, 77, 0
2, 126540, Note_on_c, 0, 75, 43
2, 126569, Note_on_c, 0, 75, 0
2, 126600, Note_on_c, 0, 73, 43
2, 126629, Note_on_c, 0, 73, 0
2, 126660, Note_on_c, 0, 72, 43
2, 126689, Note_on_c, 0, 72, 0
2, 126720, Note_on_c, 0, 62, 43
2, 126840, Note_on_c, 0, 71, 63
2, 126959, Note_on_c, 0, 71, 0
2, 126959, Note_on_c, 0, 62, 0
2, 126960, Note_on_c, 0, 70, 52
2, 126989, Note_on_c, 0, 70, 0
2, 127020, Note_on_c, 0, 68, 47
2, 127020, Note_on_c, 0, 70, 47
2, 127049, Note_on_c, 0, 70, 0
2, 127049, Note_on_c, 0, 68, 0
2, 127080, Note_on_c, 0, 66, 52
2, 127080, Note_on_c, 0, 72, 52
2, 127109, Note_on_c, 0, 72, 0
2, 127109, Note_on_c, 0, 66, 0
2, 127140, Note_on_c, 0, 65, 47
2, 127140, Note_on_c, 0, 74, 47
2, 127169, Note_on_c, 0, 74, 0
2, 127169, Note_on_c, 0, 65, 0
2, 127200, Note_on_c, 0, 67, 36
2, 127200, Note_on_c, 0, 75, 46
2, 127229, Note_on_c, 0, 75, 0
2, 127229, Note_on_c, 0, 67, 0
2, 127260, Note_on_c, 0, 63, 43
2, 127260, Note_on_c, 0, 73, 43
2, 127289, Note_on_c, 0, 73, 0
2, 127289, Note_on_c, 0, 63, 0
2, 127320, Note_on_c, 0, 65, 40
2, 127320, Note_on_c, 0, 72, 40
2, 127349, Note_on_c, 0, 72, 0
2, 127349, Note_on_c, 0, 65, 0
2, 127380, Note_on_c, 0, 67, 36
2, 127380, Note_on_c, 0, 70, 36
2, 127409, Note_on_c, 0, 70, 0
2, 127409, Note_on_c, 0, 67, 0
2, 127440, Note_on_c, 0, 60, 36
2, 127440, Note_on_c, 0, 68, 46
2, 127469, Note_on_c, 0, 68, 0
2, 127469, Note_on_c, 0, 60, 0
2, 127500, Note_on_c, 0, 56, 43
2, 127500, Note_on_c, 0, 68, 43
2, 127529, Note_on_c, 0, 68, 0
2, 127529, Note_on_c, 0, 56, 0
2, 127560, Note_on_c, 0, 58, 40
2, 127560, Note_on_c, 0, 68, 40
2, 127589, Note_on_c, 0, 68, 0
2, 127589, Note_on_c, 0, 58, 0
2, 127620, Note_on_c, 0, 60, 36
2, 127620, Note_on_c, 0, 68, 36
2, 127649, Note_on_c, 0, 68, 0
2, 127649, Note_on_c, 0, 60, 0
2, 127665, Note_on_c, 0, 59, 43
2, 127680, Note_on_c, 0, 65, 43
2, 127695, Note_on_c, 0, 68, 43
2, 127860, Note_on_c, 0, 71, 54
2, 127879, Note_on_c, 0, 71, 0
2, 127920, Note_on_c, 0, 68, 34
2, 127920, Note_on_c, 0, 71, 52
2, 127939, Note_on_c, 0, 71, 0
2, 127939, Note_on_c, 0, 68, 0
2, 127980, Note_on_c, 0, 71, 50
2, 127999, Note_on_c, 0, 71, 0
2, 128040, Note_on_c, 0, 68, 34
2, 128040, Note_on_c, 0, 71, 48
2, 128059, Note_on_c, 0, 71, 0
2, 128059, Note_on_c, 0, 68, 0
2, 128100, Note_on_c, 0, 71, 46
2, 128129, Note_on_c, 0, 71, 0
2, 128160, Note_on_c, 0, 68, 34
2, 128160, Note_on_c, 0, 71, 43
2, 128564, Note_on_c, 0, 59, 0
2, 128579, Note_on_c, 0, 65, 0
2, 128594, Note_on_c, 0, 68, 0
2, 128609, Note_on_c, 0, 68, 0
2, 128609, Note_on_c, 0, 71, 0
2, 128610, Note_on_c, 0, 60, 43
2, 128625, Note_on_c, 0, 65, 43
2, 128640, Note_on_c, 0, 68, 43
2, 128820, Note_on_c, 0, 72, 56
2, 128839, Note_on_c, 0, 72, 0
2, 128880, Note_on_c, 0, 68, 34
2, 128880, Note_on_c, 0, 72, 53
2, 128899, Note_on_c, 0, 72, 0
2, 128899, Note_on_c, 0, 68, 0
2, 128940, Note_on_c, 0, 72, 49
2, 128959, Note_on_c, 0, 72, 0
2, 129000, Note_on_c, 0, 68, 34
2, 129000, Note_on_c, 0, 72, 46
2, 129019, Note_on_c, 0, 72, 0
2, 129019, Note_on_c, 0, 68, 0
2, 129060, Note_on_c, 0, 72, 42
2, 129089, Note_on_c, 0, 72, 0
2, 129120, Note_on_c, 0, 68, 34
2, 129120, Note_on_c, 0, 72, 38
2, 129509, Note_on_c, 0, 60, 0
2, 129524, Note_on_c, 0, 65, 0
2, 129539, Note_on_c, 0, 68, 0
2, 129569, Note_on_c, 0, 68, 0
2, 129569, Note_on_c, 0, 72, 0
2, 129570, Note_on_c, 0, 62, 37
2, 129585, Note_on_c, 0, 65, 43
2, 129600, Note_on_c, 0, 68, 53
2, 129780, Note_on_c, 0, 74, 56
2, 129799, Note_on_c, 0, 74, 0
2, 129840, Note_on_c, 0, 68, 34
2, 129840, Note_on_c, 0, 74, 48
2, 129859, Note_on_c, 0, 74, 0
2, 129859, Note_on_c, 0, 68, 0
2, 129900, Note_on_c, 0, 74, 50
2, 129919, Note_on_c, 0, 74, 0
2, 129960, Note_on_c, 0, 68, 34
2, 129960, Note_on_c, 0, 74, 52
2, 129979, Note_on_c, 0, 74, 0
2, 129979, Note_on_c, 0, 68, 0
2, 130020, Note_on_c, 0, 74, 54
2, 130049, Note_on_c, 0, 74, 0
2, 130049, Note_on_c, 0, 62, 0
2, 130064, Note_on_c, 0, 65, 0
2, 130079, Note_on_c, 0, 68, 0
2, 130080, Note_on_c, 0, 68, 34
2, 130080, Note_on_c, 0, 74, 56
2, 130199, Note_on_c, 0, 74, 0
2, 130199, Note_on_c, 0, 68, 0
2, 130260, Note_on_c, 0, 68, 39
2, 130260, Note_on_c, 0, 80, 51
2, 130319, Note_on_c, 0, 80, 0
2, 130319, Note_on_c, 0, 68, 0
2, 130320, Note_on_c, 0, 71, 50
2, 130349, Note_on_c, 0, 71, 0
2, 130380, Note_on_c, 0, 71, 35
2, 130380, Note_on_c, 0, 83, 46
2, 130439, Note_on_c, 0, 83, 0
2, 130439, Note_on_c, 0, 71, 0
2, 130440, Note_on_c, 0, 74, 49
2, 130469, Note_on_c, 0, 74, 0
2, 130500, Note_on_c, 0, 74, 31
2, 130500, Note_on_c, 0, 86, 41
2, 130559, Note_on_c, 0, 86, 0
2, 130559, Note_on_c, 0, 74, 0
2, 130560, Note_on_c, 0, 77, 49
2, 130589, Note_on_c, 0, 77, 0
2, 130620, Note_on_c, 0, 77, 28
2, 130620, Note_on_c, 0, 89, 37
2, 130679, Note_on_c, 0, 89, 0
2, 130679, Note_on_c, 0, 77, 0
2, 130680, Note_on_c, 0, 80, 43
2, 130709, Note_on_c, 0, 80, 0
2, 130740, Note_on_c, 0, 80, 25
2, 130740, Note_on_c, 0, 92, 33
2, 130799, Note_on_c, 0, 92, 0
2, 130799, Note_on_c, 0, 80, 0
2, 130800, Note_on_c, 0, 83, 38
2, 130829, Note_on_c, 0, 83, 0
2, 130860, Note_on_c, 0, 95, 29
2, 130860, Note_on_c, 0, 83, 21
2, 130919, Note_on_c, 0, 83, 0
2, 130919, Note_on_c, 0, 95, 0
2, 130920, Note_on_c, 0, 86, 25
2, 130949, Note_on_c, 0, 86, 0
2, 131520, Note_on_c, 0, 77, 64
2, 131579, Note_on_c, 0, 77, 0
2, 131580, Note_on_c, 0, 76, 52
2, 131599, Note_on_c, 0, 76, 0
2, 131640, Note_on_c, 0, 75, 49
2, 131659, Note_on_c, 0, 75, 0
2, 131700, Note_on_c, 0, 75, 64
2, 131759, Note_on_c, 0, 75, 0
2, 131760, Note_on_c, 0, 74, 52
2, 131779, Note_on_c, 0, 74, 0
2, 131820, Note_on_c, 0, 73, 49
2, 131839, Note_on_c, 0, 73, 0
2, 131880, Note_on_c, 0, 73, 64
2, 131939, Note_on_c, 0, 73, 0
2, 131940, Note_on_c, 0, 72, 52
2, 131959, Note_on_c, 0, 72, 0
2, 132000, Note_on_c, 0, 72, 49
2, 132019, Note_on_c, 0, 72, 0
2, 132060, Note_on_c, 0, 72, 52
2, 132139, Note_on_c, 0, 72, 0
2, 132180, Note_on_c, 0, 74, 52
2, 132195, Note_on_c, 0, 72, 49
2, 132199, Note_on_c, 0, 74, 0
2, 132210, Note_on_c, 0, 71, 49
2, 132214, Note_on_c, 0, 72, 0
2, 132225, Note_on_c, 0, 72, 49
2, 132229, Note_on_c, 0, 71, 0
2, 132240, Note_on_c, 0, 79, 64
2, 132244, Note_on_c, 0, 72, 0
2, 132299, Note_on_c, 0, 79, 0
2, 132300, Note_on_c, 0, 78, 52
2, 132319, Note_on_c, 0, 78, 0
2, 132360, Note_on_c, 0, 87, 49
2, 132379, Note_on_c, 0, 87, 0
2, 132420, Note_on_c, 0, 86, 64
2, 132479, Note_on_c, 0, 86, 0
2, 132480, Note_on_c, 0, 84, 52
2, 132499, Note_on_c, 0, 84, 0
2, 132540, Note_on_c, 0, 78, 49
2, 132559, Note_on_c, 0, 78, 0
2, 132600, Note_on_c, 0, 78, 64
2, 132659, Note_on_c, 0, 78, 0
2, 132660, Note_on_c, 0, 81, 52
2, 132719, Note_on_c, 0, 81, 0
2, 132720, Note_on_c, 0, 79, 52
2, 132739, Note_on_c, 0, 79, 0
2, 132780, Note_on_c, 0, 79, 49
2, 132899, Note_on_c, 0, 79, 0
2, 132945, Note_on_c, 0, 82, 60
2, 132960, Note_on_c, 0, 80, 71
2, 132964, Note_on_c, 0, 82, 0
2, 132979, Note_on_c, 0, 80, 0
2, 133020, Note_on_c, 0, 79, 60
2, 133039, Note_on_c, 0, 79, 0
2, 133080, Note_on_c, 0, 80, 60
2, 133099, Note_on_c, 0, 80, 0
2, 133140, Note_on_c, 0, 79, 49
2, 133279, Note_on_c, 0, 79, 0
2, 133305, Note_on_c, 0, 82, 60
2, 133320, Note_on_c, 0, 80, 60
2, 133324, Note_on_c, 0, 82, 0
2, 133339, Note_on_c, 0, 80, 0
2, 133380, Note_on_c, 0, 79, 60
2, 133399, Note_on_c, 0, 79, 0
2, 133440, Note_on_c, 0, 80, 60
2, 133459, Note_on_c, 0, 80, 0
2, 133500, Note_on_c, 0, 79, 49
2, 133619, Note_on_c, 0, 79, 0
2, 133650, Note_on_c, 0, 79, 60
2, 133665, Note_on_c, 0, 81, 60
2, 133669, Note_on_c, 0, 79, 0
2, 133680, Note_on_c, 0, 82, 71
2, 133684, Note_on_c, 0, 81, 0
2, 133770, Note_on_c, 0, 81, 60
2, 133779, Note_on_c, 0, 82, 0
2, 133800, Note_on_c, 0, 79, 60
2, 133809, Note_on_c, 0, 81, 0
2, 133819, Note_on_c, 0, 79, 0
2, 133860, Note_on_c, 0, 79, 60
2, 133979, Note_on_c, 0, 79, 0
2, 133980, Note_on_c, 0, 82, 60
2, 134010, Note_on_c, 0, 81, 60
2, 134019, Note_on_c, 0, 82, 0
2, 134040, Note_on_c, 0, 79, 49
2, 134049, Note_on_c, 0, 81, 0
2, 134139, Note_on_c, 0, 79, 0
2, 134340, Note_on_c, 0, 79, 60
2, 134399, Note_on_c, 0, 79, 0
2, 134400, Note_on_c, 0, 78, 71
2, 134419, Note_on_c, 0, 78, 0
2, 134460, Note_on_c, 0, 77, 60
2, 134479, Note_on_c, 0, 77, 0
2, 134520, Note_on_c, 0, 79, 49
2, 134579, Note_on_c, 0, 79, 0
2, 134580, Note_on_c, 0, 77, 71
2, 134599, Note_on_c, 0, 77, 0
2, 134640, Note_on_c, 0, 76, 60
2, 134659, Note_on_c, 0, 76, 0
2, 134700, Note_on_c, 0, 79, 49
2, 134760, Note_on_c, 0, 75, 60
2, 134779, Note_on_c, 0, 79, 0
2, 134819, Note_on_c, 0, 75, 0
2, 134820, Note_on_c, 0, 73, 60
2, 134839, Note_on_c, 0, 73, 0
2, 134880, Note_on_c, 0, 74, 49
2, 134899, Note_on_c, 0, 74, 0
2, 134940, Note_on_c, 0, 74, 49
2, 134999, Note_on_c, 0, 74, 0
2, 135060, Note_on_c, 0, 80, 74
2, 135179, Note_on_c, 0, 80, 0
2, 135180, Note_on_c, 0, 79, 68
2, 135239, Note_on_c, 0, 79, 0
2, 135240, Note_on_c, 0, 87, 59
2, 135299, Note_on_c, 0, 87, 0
2, 135300, Note_on_c, 0, 79, 68
2, 135359, Note_on_c, 0, 79, 0
2, 135360, Note_on_c, 0, 78, 62
2, 135419, Note_on_c, 0, 78, 0
2, 135420, Note_on_c, 0, 86, 59
2, 135420, Note_on_c, 0, 77, 68
2, 135459, Note_on_c, 0, 77, 0
2, 135480, Note_on_c, 0, 77, 72
2, 135539, Note_on_c, 0, 77, 0
2, 135539, Note_on_c, 0, 86, 0
2, 135540, Note_on_c, 0, 76, 63
2, 135559, Note_on_c, 0, 76, 0
2, 135600, Note_on_c, 0, 79, 61
2, 135619, Note_on_c, 0, 79, 0
2, 135660, Note_on_c, 0, 75, 46
2, 135660, Note_on_c, 0, 84, 66
2, 135719, Note_on_c, 0, 84, 0
2, 135719, Note_on_c, 0, 75, 0
2, 135825, Note_on_c, 0, 87, 60
2, 135840, Note_on_c, 0, 85, 71
2, 135844, Note_on_c, 0, 87, 0
2, 135859, Note_on_c, 0, 85, 0
2, 135900, Note_on_c, 0, 84, 60
2, 135919, Note_on_c, 0, 84, 0
2, 135960, Note_on_c, 0, 85, 60
2, 135979, Note_on_c, 0, 85, 0
2, 136020, Note_on_c, 0, 84, 49
2, 136159, Note_on_c, 0, 84, 0
2, 136185, Note_on_c, 0, 87, 60
2, 136200, Note_on_c, 0, 85, 49
2, 136204, Note_on_c, 0, 87, 0
2, 136219, Note_on_c, 0, 85, 0
2, 136260, Note_on_c, 0, 84, 60
2, 136279, Note_on_c, 0, 84, 0
2, 136320, Note_on_c, 0, 85, 60
2, 136339, Note_on_c, 0, 85, 0
2, 136380, Note_on_c, 0, 84, 49
2, 136519, Note_on_c, 0, 84, 0
2, 136530, Note_on_c, 0, 84, 60
2, 136545, Note_on_c, 0, 86, 60
2, 136549, Note_on_c, 0, 84, 0
2, 136560, Note_on_c, 0, 87, 71
2, 136564, Note_on_c, 0, 86, 0
2, 136650, Note_on_c, 0, 86, 60
2, 136659, Note_on_c, 0, 87, 0
2, 136669, Note_on_c, 0, 86, 0
2, 136680, Note_on_c, 0, 84, 60
2, 136699, Note_on_c, 0, 84, 0
2, 136740, Note_on_c, 0, 84, 60
2, 136859, Note_on_c, 0, 84, 0
2, 136860, Note_on_c, 0, 87, 71
2, 136879, Note_on_c, 0, 87, 0
2, 136890, Note_on_c, 0, 86, 60
2, 136920, Note_on_c, 0, 84, 60
2, 136929, Note_on_c, 0, 86, 0
2, 137099, Note_on_c, 0, 84, 0
2, 137100, Note_on_c, 0, 72, 50
2, 137239, Note_on_c, 0, 72, 0
2, 137265, Note_on_c, 0, 75, 54
2, 137280, Note_on_c, 0, 73, 58
2, 137284, Note_on_c, 0, 75, 0
2, 137299, Note_on_c, 0, 73, 0
2, 137340, Note_on_c, 0, 72, 54
2, 137359, Note_on_c, 0, 72, 0
2, 137400, Note_on_c, 0, 73, 54
2, 137419, Note_on_c, 0, 73, 0
2, 137460, Note_on_c, 0, 72, 44
2, 137599, Note_on_c, 0, 72, 0
2, 137625, Note_on_c, 0, 75, 50
2, 137640, Note_on_c, 0, 73, 59
2, 137644, Note_on_c, 0, 75, 0
2, 137659, Note_on_c, 0, 73, 0
2, 137700, Note_on_c, 0, 72, 50
2, 137719, Note_on_c, 0, 72, 0
2, 137760, Note_on_c, 0, 73, 50
2, 137779, Note_on_c, 0, 73, 0
2, 137820, Note_on_c, 0, 72, 44
2, 137959, Note_on_c, 0, 72, 0
2, 137970, Note_on_c, 0, 72, 60
2, 137985, Note_on_c, 0, 74, 60
2, 137989, Note_on_c, 0, 72, 0
2, 138000, Note_on_c, 0, 75, 71
2, 138004, Note_on_c, 0, 74, 0
2, 138090, Note_on_c, 0, 74, 60
2, 138099, Note_on_c, 0, 75, 0
2, 138109, Note_on_c, 0, 74, 0
2, 138120, Note_on_c, 0, 72, 60
2, 138159, Note_on_c, 0, 72, 0
2, 138180, Note_on_c, 0, 72, 60
2, 138299, Note_on_c, 0, 72, 0
2, 138300, Note_on_c, 0, 75, 60
2, 138330, Note_on_c, 0, 74, 60
2, 138339, Note_on_c, 0, 75, 0
2, 138349, Note_on_c, 0, 74, 0
2, 138360, Note_on_c, 0, 72, 56
2, 138389, Note_on_c, 0, 72, 0
2, 138390, Note_on_c, 0, 60, 47
2, 138419, Note_on_c, 0, 60, 0
2, 138420, Note_on_c, 0, 62, 49
2, 138449, Note_on_c, 0, 62, 0
2, 138450, Note_on_c, 0, 63, 51
2, 138479, Note_on_c, 0, 63, 0
2, 138480, Note_on_c, 0, 65, 53
2, 138499, Note_on_c, 0, 65, 0
2, 138500, Note_on_c, 0, 67, 55
2, 138519, Note_on_c, 0, 67, 0
2, 138520, Note_on_c, 0, 69, 56
2, 138539, Note_on_c, 0, 69, 0
2, 138540, Note_on_c, 0, 71, 58
2, 138559, Note_on_c, 0, 71, 0
2, 138560, Note_on_c, 0, 72, 59
2, 138579, Note_on_c, 0, 72, 0
2, 138580, Note_on_c, 0, 74, 60
2, 138599, Note_on_c, 0, 74, 0
2, 138600, Note_on_c, 0, 75, 62
2, 138619, Note_on_c, 0, 75, 0
2, 138620, Note_on_c, 0, 77, 63
2, 138639, Note_on_c, 0, 77, 0
2, 138640, Note_on_c, 0, 79, 64
2, 138659, Note_on_c, 0, 79, 0
2, 138660, Note_on_c, 0, 81, 67
2, 138679, Note_on_c, 0, 81, 0
2, 138680, Note_on_c, 0, 83, 68
2, 138699, Note_on_c, 0, 83, 0
2, 138700, Note_on_c, 0, 84, 69
2, 138719, Note_on_c, 0, 84, 0
2, 138720, Note_on_c, 0, 73, 50
2, 138720, Note_on_c, 0, 85, 72
2, 138839, Note_on_c, 0, 85, 0
2, 138839, Note_on_c, 0, 73, 0
2, 138840, Note_on_c, 0, 84, 70
2, 138840, Note_on_c, 0, 72, 49
2, 138869, Note_on_c, 0, 72, 0
2, 138869, Note_on_c, 0, 84, 0
2, 138900, Note_on_c, 0, 85, 70
2, 138900, Note_on_c, 0, 73, 48
2, 139019, Note_on_c, 0, 73, 0
2, 139019, Note_on_c, 0, 85, 0
2, 139020, Note_on_c, 0, 72, 47
2, 139020, Note_on_c, 0, 84, 68
2, 139049, Note_on_c, 0, 84, 0
2, 139049, Note_on_c, 0, 72, 0
2, 139080, Note_on_c, 0, 71, 46
2, 139080, Note_on_c, 0, 83, 67
2, 139259, Note_on_c, 0, 83, 0
2, 139259, Note_on_c, 0, 71, 0
2, 139260, Note_on_c, 0, 84, 53
2, 139260, Note_on_c, 0, 72, 44
2, 139319, Note_on_c, 0, 72, 0
2, 139319, Note_on_c, 0, 84, 0
2, 139440, Note_on_c, 0, 73, 61
2, 139440, Note_on_c, 0, 85, 83
2, 139559, Note_on_c, 0, 85, 0
2, 139559, Note_on_c, 0, 73, 0
2, 139560, Note_on_c, 0, 72, 48
2, 139560, Note_on_c, 0, 84, 70
2, 139589, Note_on_c, 0, 84, 0
2, 139589, Note_on_c, 0, 72, 0
2, 139620, Note_on_c, 0, 73, 48
2, 139620, Note_on_c, 0, 85, 69
2, 139739, Note_on_c, 0, 85, 0
2, 139739, Note_on_c, 0, 73, 0
2, 139740, Note_on_c, 0, 84, 59
2, 139740, Note_on_c, 0, 72, 51
2, 139769, Note_on_c, 0, 72, 0
2, 139769, Note_on_c, 0, 84, 0
2, 139800, Note_on_c, 0, 71, 45
2, 139800, Note_on_c, 0, 83, 66
2, 139979, Note_on_c, 0, 83, 0
2, 139979, Note_on_c, 0, 71, 0
2, 139980, Note_on_c, 0, 84, 52
2, 139980, Note_on_c, 0, 72, 42
2, 140039, Note_on_c, 0, 72, 0
2, 140039, Note_on_c, 0, 84, 0
2, 140100, Note_on_c, 0, 84, 61
2, 140100, Note_on_c, 0, 72, 51
2, 140159, Note_on_c, 0, 72, 0
2, 140159, Note_on_c, 0, 84, 0
2, 140160, Note_on_c, 0, 85, 61
2, 140160, Note_on_c, 0, 73, 52
2, 140279, Note_on_c, 0, 73, 0
2, 140279, Note_on_c, 0, 85, 0
2, 140280, Note_on_c, 0, 74, 56
2, 140280, Note_on_c, 0, 86, 64
2, 140339, Note_on_c, 0, 86, 0
2, 140339, Note_on_c, 0, 74, 0
2, 140340, Note_on_c, 0, 87, 67
2, 140340, Note_on_c, 0, 75, 57
2, 140459, Note_on_c, 0, 75, 0
2, 140459, Note_on_c, 0, 87, 0
2, 140460, Note_on_c, 0, 76, 59
2, 140460, Note_on_c, 0, 88, 71
2, 140519, Note_on_c, 0, 88, 0
2, 140519, Note_on_c, 0, 76, 0
2, 140520, Note_on_c, 0, 89, 72
2, 140520, Note_on_c, 0, 77, 62
2, 140549, Note_on_c, 0, 77, 0
2, 140549, Note_on_c, 0, 89, 0
2, 140580, Note_on_c, 0, 72, 55
2, 140580, Note_on_c, 0, 84, 64
2, 140639, Note_on_c, 0, 84, 0
2, 140639, Note_on_c, 0, 72, 0
2, 140640, Note_on_c, 0, 85, 66
2, 140640, Note_on_c, 0, 73, 57
2, 140699, Note_on_c, 0, 73, 0
2, 140699, Note_on_c, 0, 85, 0
2, 140700, Note_on_c, 0, 74, 60
2, 140700, Note_on_c, 0, 86, 70
2, 140759, Note_on_c, 0, 86, 0
2, 140759, Note_on_c, 0, 74, 0
2, 140760, Note_on_c, 0, 75, 62
2, 140760, Note_on_c, 0, 87, 73
2, 140819, Note_on_c, 0, 87, 0
2, 140819, Note_on_c, 0, 75, 0
2, 140820, Note_on_c, 0, 76, 66
2, 140820, Note_on_c, 0, 88, 78
2, 140879, Note_on_c, 0, 88, 0
2, 140879, Note_on_c, 0, 76, 0
2, 140880, Note_on_c, 0, 89, 82
2, 140880, Note_on_c, 0, 77, 69
2, 140909, Note_on_c, 0, 77, 0
2, 140909, Note_on_c, 0, 89, 0
2, 140940, Note_on_c, 0, 72, 57
2, 140940, Note_on_c, 0, 84, 68
2, 140969, Note_on_c, 0, 84, 0
2, 140969, Note_on_c, 0, 72, 0
2, 141000, Note_on_c, 0, 85, 70
2, 141000, Note_on_c, 0, 73, 60
2, 141029, Note_on_c, 0, 73, 0
2, 141029, Note_on_c, 0, 85, 0
2, 141060, Note_on_c, 0, 74, 63
2, 141060, Note_on_c, 0, 86, 74
2, 141089, Note_on_c, 0, 86, 0
2, 141089, Note_on_c, 0, 74, 0
2, 141120, Note_on_c, 0, 75, 66
2, 141120, Note_on_c, 0, 87, 77
2, 141149, Note_on_c, 0, 87, 0
2, 141149, Note_on_c, 0, 75, 0
2, 141180, Note_on_c, 0, 76, 69
2, 141180, Note_on_c, 0, 88, 81
2, 141209, Note_on_c, 0, 88, 0
2, 141209, Note_on_c, 0, 76, 0
2, 141240, Note_on_c, 0, 89, 85
2, 141240, Note_on_c, 0, 77, 72
2, 141269, Note_on_c, 0, 77, 0
2, 141269, Note_on_c, 0, 89, 0
2, 141360, Note_on_c, 0, 88, 86
2, 141360, Note_on_c, 0, 76, 72
2, 141419, Note_on_c, 0, 76, 0
2, 141419, Note_on_c, 0, 88, 0
2, 141420, Note_on_c, 0, 89, 86
2, 141420, Note_on_c, 0, 76, 72
2, 141420, Note_on_c, 0, 77, 86
2, 141449, Note_on_c, 0, 77, 0
2, 141449, Note_on_c, 0, 76, 0
2, 141449, Note_on_c, 0, 89, 0
2, 141540, Note_on_c, 0, 88, 89
2, 141540, Note_on_c, 0, 76, 73
2, 141599, Note_on_c, 0, 76, 0
2, 141599, Note_on_c, 0, 88, 0
2, 141600, Note_on_c, 0, 89, 89
2, 141600, Note_on_c, 0, 77, 74
2, 141629, Note_on_c, 0, 77, 0
2, 141629, Note_on_c, 0, 89, 0
2, 141840, Control_c, 0, 64, 127
2, 141840, Note_on_c, 0, 71, 50
2, 141859, Note_on_c, 0, 71, 0
2, 141860, Note_on_c, 0, 74, 57
2, 141879, Note_on_c, 0, 74, 0
2, 141880, Note_on_c, 0, 77, 63
2, 141899, Note_on_c, 0, 77, 0
2, 141900, Note_on_c, 0, 80, 70
2, 141919, Note_on_c, 0, 80, 0
2, 141920, Note_on_c, 0, 83, 77
2, 141939, Note_on_c, 0, 83, 0
2, 141940, Note_on_c, 0, 86, 83
2, 141959, Note_on_c, 0, 86, 0
2, 141960, Note_on_c, 0, 89, 84
2, 142140, Control_c, 0, 64, 0
2, 142259, Note_on_c, 0, 89, 0
2, 142260, Note_on_c, 0, 83, 84
2, 142319, Note_on_c, 0, 83, 0
2, 142320, Note_on_c, 0, 84, 84
2, 142379, Note_on_c, 0, 84, 0
2, 142380, Note_on_c, 0, 79, 60
2, 142409, Note_on_c, 0, 79, 0
2, 142500, Note_on_c, 0, 80, 79
2, 142529, Note_on_c, 0, 80, 0
2, 142560, Note_on_c, 0, 74, 57
2, 142589, Note_on_c, 0, 74, 0
2, 142680, Note_on_c, 0, 79, 72
2, 142739, Note_on_c, 0, 79, 0
2, 142740, Note_on_c, 0, 72, 52
2, 142769, Note_on_c, 0, 72, 0
2, 142860, Note_on_c, 0, 77, 59
2, 142919, Note_on_c, 0, 77, 0
2, 142920, Note_on_c, 0, 71, 42
2, 142949, Note_on_c, 0, 71, 0
2, 143040, Note_on_c, 0, 72, 37
2, 143159, Note_on_c, 0, 72, 0
2, 144510, Note_on_c, 0, 60, 43
2, 144539, Note_on_c, 0, 60, 0
2, 144540, Note_on_c, 0, 62, 45
2, 144569, Note_on_c, 0, 62, 0
2, 144570, Note_on_c, 0, 63, 47
2, 144599, Note_on_c, 0, 63, 0
2, 144600, Note_on_c, 0, 65, 50
2, 144619, Note_on_c, 0, 65, 0
2, 144620, Note_on_c, 0, 67, 52
2, 144639, Note_on_c, 0, 67, 0
2, 144640, Note_on_c, 0, 69, 53
2, 144659, Note_on_c, 0, 69, 0
2, 144660, Note_on_c, 0, 71, 55
2, 144679, Note_on_c, 0, 71, 0
2, 144680, Note_on_c, 0, 72, 57
2, 144699, Note_on_c, 0, 72, 0
2, 144700, Note_on_c, 0, 74, 58
2, 144719, Note_on_c, 0, 74, 0
2, 144720, Note_on_c, 0, 75, 60
2, 144739, Note_on_c, 0, 75, 0
2, 144740, Note_on_c, 0, 77, 62
2, 144759, Note_on_c, 0, 77, 0
2, 144760, Note_on_c, 0, 79, 63
2, 144779, Note_on_c, 0, 79, 0
2, 144780, Note_on_c, 0, 81, 66
2, 144799, Note_on_c, 0, 81, 0
2, 144800, Note_on_c, 0, 83, 67
2, 144819, Note_on_c, 0, 83, 0
2, 144820, Note_on_c, 0, 84, 69
2, 144839, Note_on_c, 0, 84, 0
2, 144840, Note_on_c, 0, 73, 50
2, 144840, Note_on_c, 0, 85, 72
2, 144959, Note_on_c, 0, 85, 0
2, 144959, Note_on_c, 0, 73, 0
2, 144960, Note_on_c, 0, 84, 70
2, 144960, Note_on_c, 0, 72, 49
2, 144989, Note_on_c, 0, 72, 0
2, 144989, Note_on_c, 0, 84, 0
2, 145020, Note_on_c, 0, 85, 70
2, 145020, Note_on_c, 0, 73, 48
2, 145139, Note_on_c, 0, 73, 0
2, 145139, Note_on_c, 0, 85, 0
2, 145140, Note_on_c, 0, 72, 47
2, 145140, Note_on_c, 0, 84, 68
2, 145169, Note_on_c, 0, 84, 0
2, 145169, Note_on_c, 0, 72, 0
2, 145200, Note_on_c, 0, 71, 46
2, 145200, Note_on_c, 0, 83, 67
2, 145379, Note_on_c, 0, 83, 0
2, 145379, Note_on_c, 0, 71, 0
2, 145380, Note_on_c, 0, 84, 53
2, 145380, Note_on_c, 0, 72, 44
2, 145439, Note_on_c, 0, 72, 0
2, 145439, Note_on_c, 0, 84, 0
2, 145560, Note_on_c, 0, 73, 61
2, 145560, Note_on_c, 0, 85, 83
2, 145679, Note_on_c, 0, 85, 0
2, 145679, Note_on_c, 0, 73, 0
2, 145680, Note_on_c, 0, 72, 48
2, 145680, Note_on_c, 0, 84, 70
2, 145709, Note_on_c, 0, 84, 0
2, 145709, Note_on_c, 0, 72, 0
2, 145740, Note_on_c, 0, 73, 48
2, 145740, Note_on_c, 0, 85, 69
2, 145859, Note_on_c, 0, 85, 0
2, 145859, Note_on_c, 0, 73, 0
2, 145860, Note_on_c, 0, 84, 59
2, 145860, Note_on_c, 0, 72, 51
2, 145889, Note_on_c, 0, 72, 0
2, 145889, Note_on_c, 0, 84, 0
2, 145920, Note_on_c, 0, 71, 45
2, 145920, Note_on_c, 0, 83, 66
2, 146099, Note_on_c, 0, 83, 0
2, 146099, Note_on_c, 0, 71, 0
2, 146100, Note_on_c, 0, 84, 52
2, 146100, Note_on_c, 0, 72, 42
2, 146159, Note_on_c, 0, 72, 0
2, 146159, Note_on_c, 0, 84, 0
2, 146220, Note_on_c, 0, 84, 61
2, 146220, Note_on_c, 0, 72, 51
2, 146279, Note_on_c, 0, 72, 0
2, 146279, Note_on_c, 0, 84, 0
2, 146280, Note_on_c, 0, 85, 61
2, 146280, Note_on_c, 0, 73, 52
2, 146399, Note_on_c, 0, 73, 0
2, 146399, Note_on_c, 0, 85, 0
2, 146400, Note_on_c, 0, 74, 56
2, 146400, Note_on_c, 0, 86, 64
2, 146459, Note_on_c, 0, 86, 0
2, 146459, Note_on_c, 0, 74, 0
2, 146460, Note_on_c, 0, 87, 67
2, 146460, Note_on_c, 0, 75, 57
2, 146579, Note_on_c, 0, 75, 0
2, 146579, Note_on_c, 0, 87, 0
2, 146580, Note_on_c, 0, 76, 59
2, 146580, Note_on_c, 0, 88, 71
2, 146639, Note_on_c, 0, 88, 0
2, 146639, Note_on_c, 0, 76, 0
2, 146640, Note_on_c, 0, 89, 72
2, 146640, Note_on_c, 0, 77, 62
2, 146669, Note_on_c, 0, 77, 0
2, 146669, Note_on_c, 0, 89, 0
2, 146700, Note_on_c, 0, 72, 55
2, 146700, Note_on_c, 0, 84, 64
2, 146759, Note_on_c, 0, 84, 0
2, 146759, Note_on_c, 0, 72, 0
2, 146760, Note_on_c, 0, 85, 66
2, 146760, Note_on_c, 0, 73, 57
2, 146819, Note_on_c, 0, 73, 0
2, 146819, Note_on_c, 0, 85, 0
2, 146820, Note_on_c, 0, 74, 60
2, 146820, Note_on_c, 0, 86, 70
2, 146879, Note_on_c, 0, 86, 0
2, 146879, Note_on_c, 0, 74, 0
2, 146880, Note_on_c, 0, 75, 62
2, 146880, Note_on_c, 0, 87, 73
2, 146939, Note_on_c, 0, 87, 0
2, 146939, Note_on_c, 0, 75, 0
2, 146940, Note_on_c, 0, 76, 66
2, 146940, Note_on_c, 0, 88, 78
2, 146999, Note_on_c, 0, 88, 0
2, 146999, Note_on_c, 0, 76, 0
2, 147000, Note_on_c, 0, 89, 82
2, 147000, Note_on_c, 0, 77, 69
2, 147029, Note_on_c, 0, 77, 0
2, 147029, Note_on_c, 0, 89, 0
2, 147060, Note_on_c, 0, 72, 51
2, 147060, Note_on_c, 0, 84, 61
2, 147089, Note_on_c, 0, 84, 0
2, 147089, Note_on_c, 0, 72, 0
2, 147120, Note_on_c, 0, 85, 63
2, 147120, Note_on_c, 0, 73, 54
2, 147149, Note_on_c, 0, 73, 0
2, 147149, Note_on_c, 0, 85, 0
2, 147180, Note_on_c, 0, 74, 57
2, 147180, Note_on_c, 0, 86, 67
2, 147209, Note_on_c, 0, 86, 0
2, 147209, Note_on_c, 0, 74, 0
2, 147240, Note_on_c, 0, 75, 61
2, 147240, Note_on_c, 0, 87, 72
2, 147269, Note_on_c, 0, 87, 0
2, 147269, Note_on_c, 0, 75, 0
2, 147300, Note_on_c, 0, 76, 66
2, 147300, Note_on_c, 0, 88, 77
2, 147329, Note_on_c, 0, 88, 0
2, 147329, Note_on_c, 0, 76, 0
2, 147360, Note_on_c, 0, 89, 82
2, 147360, Note_on_c, 0, 77, 69
2, 147389, Note_on_c, 0, 77, 0
2, 147389, Note_on_c, 0, 89, 0
2, 147480, Note_on_c, 0, 88, 87
2, 147480, Note_on_c, 0, 76, 72
2, 147539, Note_on_c, 0, 76, 0
2, 147539, Note_on_c, 0, 88, 0
2, 147540, Note_on_c, 0, 89, 88
2, 147540, Note_on_c, 0, 76, 73
2, 147540, Note_on_c, 0, 77, 88
2, 147569, Note_on_c, 0, 77, 0
2, 147569, Note_on_c, 0, 76, 0
2, 147569, Note_on_c, 0, 89, 0
2, 147660, Note_on_c, 0, 88, 95
2, 147660, Note_on_c, 0, 76, 77
2, 147719, Note_on_c, 0, 76, 0
2, 147719, Note_on_c, 0, 88, 0
2, 147720, Note_on_c, 0, 89, 97
2, 147720, Note_on_c, 0, 77, 80
2, 147749, Note_on_c, 0, 77, 0
2, 147749, Note_on_c, 0, 89, 0
2, 147960, Control_c, 0, 64, 127
2, 147960, Note_on_c, 0, 71, 56
2, 147979, Note_on_c, 0, 71, 0
2, 147980, Note_on_c, 0, 74, 62
2, 147999, Note_on_c, 0, 74, 0
2, 148000, Note_on_c, 0, 77, 68
2, 148019, Note_on_c, 0, 77, 0
2, 148020, Note_on_c, 0, 80, 74
2, 148039, Note_on_c, 0, 80, 0
2, 148040, Note_on_c, 0, 83, 80
2, 148059, Note_on_c, 0, 83, 0
2, 148060, Note_on_c, 0, 86, 86
2, 148079, Note_on_c, 0, 86, 0
2, 148080, Note_on_c, 0, 89, 87
2, 148260, Control_c, 0, 64, 0
2, 148379, Note_on_c, 0, 89, 0
2, 148380, Note_on_c, 0, 83, 77
2, 148439, Note_on_c, 0, 83, 0
2, 148440, Note_on_c, 0, 84, 77
2, 148499, Note_on_c, 0, 84, 0
2, 148500, Note_on_c, 0, 79, 55
2, 148529, Note_on_c, 0, 79, 0
2, 148620, Note_on_c, 0, 80, 72
2, 148649, Note_on_c, 0, 80, 0
2, 148680, Note_on_c, 0, 74, 52
2, 148709, Note_on_c, 0, 74, 0
2, 148800, Note_on_c, 0, 79, 66
2, 148859, Note_on_c, 0, 79, 0
2, 148860, Note_on_c, 0, 72, 48
2, 148889, Note_on_c, 0, 72, 0
2, 148980, Note_on_c, 0, 77, 54
2, 149039, Note_on_c, 0, 77, 0
2, 149040, Note_on_c, 0, 71, 39
2, 149069, Note_on_c, 0, 71, 0
2, 149160, Note_on_c, 0, 72, 37
2, 149279, Note_on_c, 0, 72, 0
2, 150780, Note_on_c, 0, 84, 51
2, 150945, Note_on_c, 0, 87, 50
2, 150959, Note_on_c, 0, 84, 0
2, 150960, Note_on_c, 0, 85, 62
2, 150964, Note_on_c, 0, 87, 0
2, 150979, Note_on_c, 0, 85, 0
2, 151020, Note_on_c, 0, 84, 52
2, 151039, Note_on_c, 0, 84, 0
2, 151080, Note_on_c, 0, 85, 52
2, 151099, Note_on_c, 0, 85, 0
2, 151140, Note_on_c, 0, 84, 43
2, 151279, Note_on_c, 0, 84, 0
2, 151305, Note_on_c, 0, 87, 52
2, 151320, Note_on_c, 0, 85, 52
2, 151324, Note_on_c, 0, 87, 0
2, 151339, Note_on_c, 0, 85, 0
2, 151380, Note_on_c, 0, 84, 52
2, 151399, Note_on_c, 0, 84, 0
2, 151440, Note_on_c, 0, 85, 52
2, 151459, Note_on_c, 0, 85, 0
2, 151500, Note_on_c, 0, 84, 43
2, 151619, Note_on_c, 0, 84, 0
2, 151650, Note_on_c, 0, 84, 52
2, 151665, Note_on_c, 0, 86, 52
2, 151669, Note_on_c, 0, 84, 0
2, 151680, Note_on_c, 0, 87, 62
2, 151684, Note_on_c, 0, 86, 0
2, 151770, Note_on_c, 0, 86, 52
2, 151779, Note_on_c, 0, 87, 0
2, 151799, Note_on_c, 0, 86, 0
2, 151800, Note_on_c, 0, 84, 52
2, 151819, Note_on_c, 0, 84, 0
2, 151860, Note_on_c, 0, 84, 52
2, 151979, Note_on_c, 0, 84, 0
2, 151980, Note_on_c, 0, 87, 52
2, 152010, Note_on_c, 0, 86, 46
2, 152019, Note_on_c, 0, 87, 0
2, 152049, Note_on_c, 0, 86, 0
2, 152070, Note_on_c, 0, 84, 41
2, 152099, Note_on_c, 0, 84, 0
2, 152100, Note_on_c, 0, 87, 50
2, 152129, Note_on_c, 0, 87, 0
2, 152130, Note_on_c, 0, 84, 48
2, 152159, Note_on_c, 0, 84, 0
2, 152160, Note_on_c, 0, 79, 46
2, 152189, Note_on_c, 0, 79, 0
2, 152190, Note_on_c, 0, 84, 44
2, 152219, Note_on_c, 0, 84, 0
2, 152220, Note_on_c, 0, 75, 42
2, 152249, Note_on_c, 0, 75, 0
2, 152250, Note_on_c, 0, 79, 41
2, 152279, Note_on_c, 0, 79, 0
2, 152280, Note_on_c, 0, 72, 39
2, 152309, Note_on_c, 0, 72, 0
2, 152310, Note_on_c, 0, 75, 37
2, 152339, Note_on_c, 0, 75, 0
2, 152340, Note_on_c, 0, 67, 35
2, 152369, Note_on_c, 0, 67, 0
2, 152370, Note_on_c, 0, 72, 33
2, 152399, Note_on_c, 0, 72, 0
2, 152430, Note_on_c, 0, 74, 43
2, 152459, Note_on_c, 0, 74, 0
2, 152460, Note_on_c, 0, 77, 42
2, 152489, Note_on_c, 0, 77, 0
2, 152490, Note_on_c, 0, 80, 41
2, 152519, Note_on_c, 0, 80, 0
2, 152520, Note_on_c, 0, 77, 40
2, 152549, Note_on_c, 0, 77, 0
2, 152550, Note_on_c, 0, 74, 39
2, 152579, Note_on_c, 0, 74, 0
2, 152610, Note_on_c, 0, 71, 37
2, 152639, Note_on_c, 0, 71, 0
2, 152640, Note_on_c, 0, 74, 36
2, 152669, Note_on_c, 0, 74, 0
2, 152670, Note_on_c, 0, 77, 35
2, 152699, Note_on_c, 0, 77, 0
2, 152700, Note_on_c, 0, 74, 34
2, 152729, Note_on_c, 0, 74, 0
2, 152730, Note_on_c, 0, 71, 33
2, 152759, Note_on_c, 0, 71, 0
2, 152790, Note_on_c, 0, 72, 41
2, 152819, Note_on_c, 0, 72, 0
2, 152820, Note_on_c, 0, 75, 50
2, 152849, Note_on_c, 0, 75, 0
2, 152850, Note_on_c, 0, 72, 48
2, 152879, Note_on_c, 0, 72, 0
2, 152880, Note_on_c, 0, 67, 46
2, 152909, Note_on_c, 0, 67, 0
2, 152910, Note_on_c, 0, 72, 44
2, 152939, Note_on_c, 0, 72, 0
2, 152940, Note_on_c, 0, 63, 42
2, 152969, Note_on_c, 0, 63, 0
2, 152970, Note_on_c, 0, 67, 41
2, 152999, Note_on_c, 0, 67, 0
2, 153000, Note_on_c, 0, 60, 39
2, 153029, Note_on_c, 0, 60, 0
2, 153030, Note_on_c, 0, 63, 37
2, 153059, Note_on_c, 0, 63, 0
2, 153060, Note_on_c, 0, 55, 35
2, 153089, Note_on_c, 0, 55, 0
2, 153090, Note_on_c, 0, 60, 33
2, 153119, Note_on_c, 0, 60, 0
2, 153150, Note_on_c, 0, 62, 43
2, 153179, Note_on_c, 0, 62, 0
2, 153180, Note_on_c, 0, 65, 42
2, 153209, Note_on_c, 0, 65, 0
2, 153210, Note_on_c, 0, 68, 41
2, 153239, Note_on_c, 0, 68, 0
2, 153240, Note_on_c, 0, 65, 40
2, 153269, Note_on_c, 0, 65, 0
2, 153270, Note_on_c, 0, 62, 39
2, 153299, Note_on_c, 0, 62, 0
2, 153330, Note_on_c, 0, 59, 37
2, 153359, Note_on_c, 0, 59, 0
2, 153360, Note_on_c, 0, 62, 36
2, 153389, Note_on_c, 0, 62, 0
2, 153390, Note_on_c, 0, 65, 35
2, 153419, Note_on_c, 0, 65, 0
2, 153420, Note_on_c, 0, 62, 34
2, 153449, Note_on_c, 0, 62, 0
2, 153450, Note_on_c, 0, 59, 33
2, 153479, Note_on_c, 0, 59, 0
2, 153510, Note_on_c, 0, 60, 41
2, 153539, Note_on_c, 0, 60, 0
2, 153540, Note_on_c, 0, 72, 50
2, 153569, Note_on_c, 0, 72, 0
2, 153570, Note_on_c, 0, 68, 48
2, 153599, Note_on_c, 0, 68, 0
2, 153600, Note_on_c, 0, 63, 46
2, 153629, Note_on_c, 0, 63, 0
2, 153630, Note_on_c, 0, 60, 44
2, 153659, Note_on_c, 0, 60, 0
2, 153660, Note_on_c, 0, 56, 42
2, 153689, Note_on_c, 0, 56, 0
2, 153690, Note_on_c, 0, 60, 41
2, 153719, Note_on_c, 0, 60, 0
2, 153720, Note_on_c, 0, 51, 39
2, 153749, Note_on_c, 0, 51, 0
2, 153750, Note_on_c, 0, 56, 37
2, 153779, Note_on_c, 0, 56, 0
2, 153780, Note_on_c, 0, 48, 35
2, 153809, Note_on_c, 0, 48, 0
2, 153810, Note_on_c, 0, 51, 33
2, 153839, Note_on_c, 0, 51, 0
2, 153870, Note_on_c, 0, 50, 40
2, 153899, Note_on_c, 0, 50, 0
2, 153900, Note_on_c, 0, 53, 41
2, 153929, Note_on_c, 0, 53, 0
2, 153930, Note_on_c, 0, 56, 43
2, 153959, Note_on_c, 0, 56, 0
2, 153960, Note_on_c, 0, 53, 45
2, 153989, Note_on_c, 0, 53, 0
2, 153990, Note_on_c, 0, 50, 46
2, 154019, Note_on_c, 0, 50, 0
2, 154050, Note_on_c, 0, 47, 50
2, 154079, Note_on_c, 0, 47, 0
2, 154080, Note_on_c, 0, 50, 52
2, 154109, Note_on_c, 0, 50, 0
2, 154110, Note_on_c, 0, 53, 54
2, 154139, Note_on_c, 0, 53, 0
2, 154140, Note_on_c, 0, 50, 55
2, 154169, Note_on_c, 0, 50, 0
2, 154170, Note_on_c, 0, 47, 57
2, 154199, Note_on_c, 0, 47, 0
2, 154200, Note_on_c, 0, 48, 59
2, 154259, Note_on_c, 0, 48, 0
2, 154259, End_track
3, 0, Start_track
3, 0, MIDI_port, 0
3, 0, Title_t, "Piano lh"
3, 20, Control_c, 1, 121, 0
3, 21, Control_c, 1, 11, 127
3, 21, Control_c, 1, 7, 127
3, 22, Control_c, 1, 93, 10
3, 22, Control_c, 1, 91, 79
3, 25, Control_c, 1, 10, 74
3, 26, Pitch_bend_c, 1, 8192
3, 27, Control_c, 1, 0, 0
3, 28, Control_c, 1, 32, 0
3, 29, Program_c, 1, 0
3, 16320, Note_on_c, 1, 60, 33
3, 16439, Note_on_c, 1, 60, 0
3, 16560, Note_on_c, 1, 55, 30
3, 16679, Note_on_c, 1, 55, 0
3, 16800, Note_on_c, 1, 51, 27
3, 16919, Note_on_c, 1, 51, 0
3, 17280, Note_on_c, 1, 56, 33
3, 17280, Note_on_c, 1, 60, 43
3, 17759, Note_on_c, 1, 60, 0
3, 17759, Note_on_c, 1, 56, 0
3, 17760, Note_on_c, 1, 55, 23
3, 17760, Note_on_c, 1, 59, 33
3, 17879, Note_on_c, 1, 59, 0
3, 17879, Note_on_c, 1, 55, 0
3, 18240, Note_on_c, 1, 51, 33
3, 19199, Note_on_c, 1, 51, 0
3, 19200, Note_on_c, 1, 50, 43
3, 19319, Note_on_c, 1, 50, 0
3, 19440, Note_on_c, 1, 50, 43
3, 19559, Note_on_c, 1, 50, 0
3, 19680, Note_on_c, 1, 43, 41
3, 19769, Note_on_c, 1, 43, 0
3, 19800, Note_on_c, 1, 55, 32
3, 19889, Note_on_c, 1, 55, 0
3, 19920, Note_on_c, 1, 43, 28
3, 20039, Note_on_c, 1, 43, 0
3, 20160, Note_on_c, 1, 60, 33
3, 20279, Note_on_c, 1, 60, 0
3, 20400, Note_on_c, 1, 55, 30
3, 20519, Note_on_c, 1, 55, 0
3, 20640, Note_on_c, 1, 51, 27
3, 20759, Note_on_c, 1, 51, 0
3, 21120, Note_on_c, 1, 56, 33
3, 21120, Note_on_c, 1, 60, 43
3, 21599, Note_on_c, 1, 60, 0
3, 21599, Note_on_c, 1, 56, 0
3, 21600, Note_on_c, 1, 55, 23
3, 21600, Note_on_c, 1, 59, 33
3, 21719, Note_on_c, 1, 59, 0
3, 21719, Note_on_c, 1, 55, 0
3, 22080, Note_on_c, 1, 51, 33
3, 23039, Note_on_c, 1, 51, 0
3, 23040, Note_on_c, 1, 50, 43
3, 23159, Note_on_c, 1, 50, 0
3, 23280, Note_on_c, 1, 50, 43
3, 23399, Note_on_c, 1, 50, 0
3, 23520, Note_on_c, 1, 43, 41
3, 23609, Note_on_c, 1, 43, 0
3, 23640, Note_on_c, 1, 55, 32
3, 23729, Note_on_c, 1, 55, 0
3, 23760, Note_on_c, 1, 43, 28
3, 23879, Note_on_c, 1, 43, 0
3, 24000, Note_on_c, 1, 47, 23
3, 24119, Note_on_c, 1, 47, 0
3, 24240, Note_on_c, 1, 48, 23
3, 24359, Note_on_c, 1, 48, 0
3, 24480, Note_on_c, 1, 43, 23
3, 24599, Note_on_c, 1, 43, 0
3, 24840, Note_on_c, 1, 53, 43
3, 24959, Note_on_c, 1, 53, 0
3, 24960, Note_on_c, 1, 51, 33
3, 25079, Note_on_c, 1, 51, 0
3, 25080, Note_on_c, 1, 48, 23
3, 25199, Note_on_c, 1, 48, 0
3, 25200, Note_on_c, 1, 45, 33
3, 25319, Note_on_c, 1, 45, 0
3, 25320, Note_on_c, 1, 47, 43
3, 25439, Note_on_c, 1, 47, 0
3, 25440, Note_on_c, 1, 48, 33
3, 25559, Note_on_c, 1, 48, 0
3, 25920, Note_on_c, 1, 44, 28
3, 26880, Note_on_c, 1, 43, 23
3, 26889, Note_on_c, 1, 44, 0
3, 26999, Note_on_c, 1, 43, 0
3, 27120, Note_on_c, 1, 43, 23
3, 27239, Note_on_c, 1, 43, 0
3, 27480, Note_on_c, 1, 60, 23
3, 27579, Note_on_c, 1, 60, 0
3, 27600, Note_on_c, 1, 48, 23
3, 27699, Note_on_c, 1, 48, 0
3, 27840, Note_on_c, 1, 47, 23
3, 27959, Note_on_c, 1, 47, 0
3, 28080, Note_on_c, 1, 48, 23
3, 28199, Note_on_c, 1, 48, 0
3, 28320, Note_on_c, 1, 43, 23
3, 28439, Note_on_c, 1, 43, 0
3, 28680, Note_on_c, 1, 53, 43
3, 28799, Note_on_c, 1, 53, 0
3, 28800, Note_on_c, 1, 51, 33
3, 28919, Note_on_c, 1, 51, 0
3, 28920, Note_on_c, 1, 48, 23
3, 29039, Note_on_c, 1, 48, 0
3, 29040, Note_on_c, 1, 45, 33
3, 29159, Note_on_c, 1, 45, 0
3, 29160, Note_on_c, 1, 47, 43
3, 29279, Note_on_c, 1, 47, 0
3, 29280, Note_on_c, 1, 48, 33
3, 29399, Note_on_c, 1, 48, 0
3, 29760, Note_on_c, 1, 44, 28
3, 30720, Note_on_c, 1, 43, 23
3, 30729, Note_on_c, 1, 44, 0
3, 30839, Note_on_c, 1, 43, 0
3, 30960, Note_on_c, 1, 43, 23
3, 31079, Note_on_c, 1, 43, 0
3, 31320, Note_on_c, 1, 60, 23
3, 31419, Note_on_c, 1, 60, 0
3, 31440, Note_on_c, 1, 48, 23
3, 31539, Note_on_c, 1, 48, 0
3, 35520, Note_on_c, 1, 48, 44
3, 35639, Note_on_c, 1, 48, 0
3, 35760, Note_on_c, 1, 43, 40
3, 35879, Note_on_c, 1, 43, 0
3, 36000, Note_on_c, 1, 48, 34
3, 36119, Note_on_c, 1, 48, 0
3, 36360, Note_on_c, 1, 46, 34
3, 36479, Note_on_c, 1, 46, 0
3, 36480, Note_on_c, 1, 45, 44
3, 36719, Note_on_c, 1, 45, 0
3, 36720, Note_on_c, 1, 44, 44
3, 36959, Note_on_c, 1, 44, 0
3, 36960, Note_on_c, 1, 43, 34
3, 37079, Note_on_c, 1, 43, 0
3, 37320, Note_on_c, 1, 47, 44
3, 37439, Note_on_c, 1, 47, 0
3, 37440, Note_on_c, 1, 48, 44
3, 37679, Note_on_c, 1, 48, 0
3, 37680, Note_on_c, 1, 50, 50
3, 37919, Note_on_c, 1, 50, 0
3, 37920, Note_on_c, 1, 51, 41
3, 38399, Note_on_c, 1, 51, 0
3, 38400, Note_on_c, 1, 50, 44
3, 38519, Note_on_c, 1, 50, 0
3, 38760, Note_on_c, 1, 38, 44
3, 38879, Note_on_c, 1, 38, 0
3, 38880, Note_on_c, 1, 43, 34
3, 38999, Note_on_c, 1, 43, 0
3, 43200, Note_on_c, 1, 47, 33
3, 43319, Note_on_c, 1, 47, 0
3, 43440, Note_on_c, 1, 48, 33
3, 43559, Note_on_c, 1, 48, 0
3, 43680, Note_on_c, 1, 55, 33
3, 43799, Note_on_c, 1, 55, 0
3, 44040, Note_on_c, 1, 53, 43
3, 44159, Note_on_c, 1, 53, 0
3, 44160, Note_on_c, 1, 52, 43
3, 44279, Note_on_c, 1, 52, 0
3, 44280, Note_on_c, 1, 51, 41
3, 44399, Note_on_c, 1, 51, 0
3, 44400, Note_on_c, 1, 50, 38
3, 44519, Note_on_c, 1, 50, 0
3, 44520, Note_on_c, 1, 43, 36
3, 44639, Note_on_c, 1, 43, 0
3, 44640, Note_on_c, 1, 48, 33
3, 44759, Note_on_c, 1, 48, 0
3, 45000, Note_on_c, 1, 56, 43
3, 45119, Note_on_c, 1, 56, 0
3, 45120, Note_on_c, 1, 53, 33
3, 45359, Note_on_c, 1, 53, 0
3, 45360, Note_on_c, 1, 55, 33
3, 45599, Note_on_c, 1, 55, 0
3, 45600, Note_on_c, 1, 56, 29
3, 46079, Note_on_c, 1, 56, 0
3, 46080, Note_on_c, 1, 55, 43
3, 46199, Note_on_c, 1, 55, 0
3, 46320, Note_on_c, 1, 43, 43
3, 46439, Note_on_c, 1, 43, 0
3, 46560, Note_on_c, 1, 48, 43
3, 46679, Note_on_c, 1, 48, 0
3, 47040, Note_on_c, 1, 36, 58
3, 47070, Control_c, 1, 64, 127
3, 47079, Note_on_c, 1, 36, 0
3, 47080, Note_on_c, 1, 39, 51
3, 47119, Note_on_c, 1, 39, 0
3, 47120, Note_on_c, 1, 43, 53
3, 47159, Note_on_c, 1, 43, 0
3, 47160, Note_on_c, 1, 48, 54
3, 47199, Note_on_c, 1, 48, 0
3, 47200, Note_on_c, 1, 51, 56
3, 47239, Note_on_c, 1, 51, 0
3, 47240, Note_on_c, 1, 55, 59
3, 47250, Control_c, 1, 64, 0
3, 47279, Note_on_c, 1, 55, 0
3, 47280, Note_on_c, 1, 43, 58
3, 47310, Control_c, 1, 64, 127
3, 47319, Note_on_c, 1, 43, 0
3, 47320, Note_on_c, 1, 47, 51
3, 47359, Note_on_c, 1, 47, 0
3, 47360, Note_on_c, 1, 50, 53
3, 47399, Note_on_c, 1, 50, 0
3, 47400, Note_on_c, 1, 55, 54
3, 47439, Note_on_c, 1, 55, 0
3, 47440, Note_on_c, 1, 59, 56
3, 47479, Note_on_c, 1, 59, 0
3, 47480, Note_on_c, 1, 62, 59
3, 47490, Control_c, 1, 64, 0
3, 47519, Note_on_c, 1, 62, 0
3, 47520, Note_on_c, 1, 48, 58
3, 47550, Control_c, 1, 64, 127
3, 47559, Note_on_c, 1, 48, 0
3, 47560, Note_on_c, 1, 51, 51
3, 47599, Note_on_c, 1, 51, 0
3, 47600, Note_on_c, 1, 55, 53
3, 47639, Note_on_c, 1, 55, 0
3, 47640, Note_on_c, 1, 60, 54
3, 47679, Note_on_c, 1, 60, 0
3, 47680, Note_on_c, 1, 63, 56
3, 47719, Note_on_c, 1, 63, 0
3, 47720, Note_on_c, 1, 67, 59
3, 47759, Note_on_c, 1, 67, 0
3, 47760, Control_c, 1, 64, 0
3, 47760, Note_on_c, 1, 48, 58
3, 47800, Note_on_c, 1, 51, 49
3, 47819, Note_on_c, 1, 48, 0
3, 47840, Note_on_c, 1, 55, 49
3, 47859, Note_on_c, 1, 51, 0
3, 47880, Note_on_c, 1, 46, 58
3, 47899, Note_on_c, 1, 55, 0
3, 47920, Note_on_c, 1, 50, 49
3, 47939, Note_on_c, 1, 46, 0
3, 47960, Note_on_c, 1, 55, 49
3, 47979, Note_on_c, 1, 50, 0
3, 48000, Note_on_c, 1, 44, 58
3, 48019, Note_on_c, 1, 55, 0
3, 48030, Control_c, 1, 64, 127
3, 48039, Note_on_c, 1, 44, 0
3, 48040, Note_on_c, 1, 48, 50
3, 48079, Note_on_c, 1, 48, 0
3, 48080, Note_on_c, 1, 51, 51
3, 48119, Note_on_c, 1, 51, 0
3, 48120, Note_on_c, 1, 56, 52
3, 48159, Note_on_c, 1, 56, 0
3, 48160, Note_on_c, 1, 60, 53
3, 48199, Note_on_c, 1, 60, 0
3, 48200, Note_on_c, 1, 63, 54
3, 48210, Control_c, 1, 64, 0
3, 48239, Note_on_c, 1, 63, 0
3, 48240, Note_on_c, 1, 44, 63
3, 48270, Control_c, 1, 64, 127
3, 48279, Note_on_c, 1, 44, 0
3, 48280, Note_on_c, 1, 48, 55
3, 48319, Note_on_c, 1, 48, 0
3, 48320, Note_on_c, 1, 51, 56
3, 48359, Note_on_c, 1, 51, 0
3, 48360, Note_on_c, 1, 56, 57
3, 48399, Note_on_c, 1, 56, 0
3, 48400, Note_on_c, 1, 60, 58
3, 48439, Note_on_c, 1, 60, 0
3, 48440, Note_on_c, 1, 63, 59
3, 48450, Control_c, 1, 64, 0
3, 48479, Note_on_c, 1, 63, 0
3, 48480, Note_on_c, 1, 43, 66
3, 48510, Control_c, 1, 64, 127
3, 48519, Note_on_c, 1, 43, 0
3, 48520, Note_on_c, 1, 47, 51
3, 48559, Note_on_c, 1, 47, 0
3, 48560, Note_on_c, 1, 50, 54
3, 48599, Note_on_c, 1, 50, 0
3, 48600, Note_on_c, 1, 55, 57
3, 48639, Note_on_c, 1, 55, 0
3, 48640, Note_on_c, 1, 59, 60
3, 48679, Note_on_c, 1, 59, 0
3, 48680, Note_on_c, 1, 62, 63
3, 48719, Note_on_c, 1, 62, 0
3, 48720, Note_on_c, 1, 67, 57
3, 48760, Note_on_c, 1, 62, 54
3, 48779, Note_on_c, 1, 67, 0
3, 48800, Note_on_c, 1, 59, 51
3, 48819, Note_on_c, 1, 62, 0
3, 48840, Note_on_c, 1, 55, 46
3, 48859, Note_on_c, 1, 59, 0
3, 48880, Note_on_c, 1, 50, 42
3, 48899, Note_on_c, 1, 55, 0
3, 48920, Note_on_c, 1, 47, 37
3, 48930, Control_c, 1, 64, 0
3, 48939, Note_on_c, 1, 50, 0
3, 48960, Note_on_c, 1, 36, 54
3, 48979, Note_on_c, 1, 47, 0
3, 48990, Control_c, 1, 64, 127
3, 48999, Note_on_c, 1, 36, 0
3, 49000, Note_on_c, 1, 39, 41
3, 49039, Note_on_c, 1, 39, 0
3, 49040, Note_on_c, 1, 44, 42
3, 49079, Note_on_c, 1, 44, 0
3, 49080, Note_on_c, 1, 48, 43
3, 49119, Note_on_c, 1, 48, 0
3, 49120, Note_on_c, 1, 51, 44
3, 49159, Note_on_c, 1, 51, 0
3, 49160, Note_on_c, 1, 56, 45
3, 49170, Control_c, 1, 64, 0
3, 49199, Note_on_c, 1, 56, 0
3, 49200, Note_on_c, 1, 38, 54
3, 49230, Control_c, 1, 64, 127
3, 49239, Note_on_c, 1, 38, 0
3, 49240, Note_on_c, 1, 41, 46
3, 49279, Note_on_c, 1, 41, 0
3, 49280, Note_on_c, 1, 46, 47
3, 49319, Note_on_c, 1, 46, 0
3, 49320, Note_on_c, 1, 50, 48
3, 49359, Note_on_c, 1, 50, 0
3, 49360, Note_on_c, 1, 53, 49
3, 49399, Note_on_c, 1, 53, 0
3, 49400, Note_on_c, 1, 58, 50
3, 49410, Control_c, 1, 64, 0
3, 49439, Note_on_c, 1, 58, 0
3, 49440, Note_on_c, 1, 39, 60
3, 49470, Control_c, 1, 64, 127
3, 49479, Note_on_c, 1, 39, 0
3, 49480, Note_on_c, 1, 44, 52
3, 49519, Note_on_c, 1, 44, 0
3, 49520, Note_on_c, 1, 48, 53
3, 49559, Note_on_c, 1, 48, 0
3, 49560, Note_on_c, 1, 51, 54
3, 49599, Note_on_c, 1, 51, 0
3, 49600, Note_on_c, 1, 56, 54
3, 49639, Note_on_c, 1, 56, 0
3, 49640, Note_on_c, 1, 60, 55
3, 49650, Control_c, 1, 64, 0
3, 49679, Note_on_c, 1, 60, 0
3, 49680, Note_on_c, 1, 39, 65
3, 49710, Control_c, 1, 64, 127
3, 49719, Note_on_c, 1, 39, 0
3, 49720, Note_on_c, 1, 43, 57
3, 49759, Note_on_c, 1, 43, 0
3, 49760, Note_on_c, 1, 46, 58
3, 49799, Note_on_c, 1, 46, 0
3, 49800, Note_on_c, 1, 51, 59
3, 49839, Note_on_c, 1, 51, 0
3, 49840, Note_on_c, 1, 55, 60
3, 49879, Note_on_c, 1, 55, 0
3, 49880, Note_on_c, 1, 58, 61
3, 49890, Control_c, 1, 64, 0
3, 49919, Note_on_c, 1, 58, 0
3, 49920, Note_on_c, 1, 38, 68
3, 49950, Control_c, 1, 64, 127
3, 49959, Note_on_c, 1, 38, 0
3, 49960, Note_on_c, 1, 43, 59
3, 49999, Note_on_c, 1, 43, 0
3, 50000, Note_on_c, 1, 46, 59
3, 50039, Note_on_c, 1, 46, 0
3, 50040, Note_on_c, 1, 50, 59
3, 50079, Note_on_c, 1, 50, 0
3, 50080, Note_on_c, 1, 55, 59
3, 50119, Note_on_c, 1, 55, 0
3, 50120, Note_on_c, 1, 58, 59
3, 50130, Control_c, 1, 64, 0
3, 50159, Note_on_c, 1, 58, 0
3, 50160, Note_on_c, 1, 38, 68
3, 50190, Control_c, 1, 64, 127
3, 50199, Note_on_c, 1, 38, 0
3, 50200, Note_on_c, 1, 42, 59
3, 50239, Note_on_c, 1, 42, 0
3, 50240, Note_on_c, 1, 45, 59
3, 50279, Note_on_c, 1, 45, 0
3, 50280, Note_on_c, 1, 50, 59
3, 50319, Note_on_c, 1, 50, 0
3, 50320, Note_on_c, 1, 54, 59
3, 50359, Note_on_c, 1, 54, 0
3, 50360, Note_on_c, 1, 57, 59
3, 50370, Control_c, 1, 64, 0
3, 50399, Note_on_c, 1, 57, 0
3, 50400, Note_on_c, 1, 31, 59
3, 50430, Control_c, 1, 64, 127
3, 50439, Note_on_c, 1, 31, 0
3, 50440, Note_on_c, 1, 34, 53
3, 50479, Note_on_c, 1, 34, 0
3, 50480, Note_on_c, 1, 38, 56
3, 50519, Note_on_c, 1, 38, 0
3, 50520, Note_on_c, 1, 43, 60
3, 50559, Note_on_c, 1, 43, 0
3, 50560, Note_on_c, 1, 46, 63
3, 50599, Note_on_c, 1, 46, 0
3, 50600, Note_on_c, 1, 50, 66
3, 50610, Control_c, 1, 64, 0
3, 50639, Note_on_c, 1, 50, 0
3, 50640, Note_on_c, 1, 55, 58
3, 50679, Note_on_c, 1, 55, 0
3, 50680, Note_on_c, 1, 56, 57
3, 50719, Note_on_c, 1, 56, 0
3, 50720, Note_on_c, 1, 55, 55
3, 50759, Note_on_c, 1, 55, 0
3, 50760, Note_on_c, 1, 53, 54
3, 50799, Note_on_c, 1, 53, 0
3, 50800, Note_on_c, 1, 51, 53
3, 50839, Note_on_c, 1, 51, 0
3, 50840, Note_on_c, 1, 50, 51
3, 50879, Note_on_c, 1, 50, 0
3, 50880, Note_on_c, 1, 48, 45
3, 50969, Note_on_c, 1, 48, 0
3, 54720, Control_c, 1, 64, 127
3, 54720, Note_on_c, 1, 35, 76
3, 54759, Note_on_c, 1, 35, 0
3, 54760, Note_on_c, 1, 38, 66
3, 54799, Note_on_c, 1, 38, 0
3, 54800, Note_on_c, 1, 43, 66
3, 54839, Note_on_c, 1, 43, 0
3, 54840, Note_on_c, 1, 47, 66
3, 54879, Note_on_c, 1, 47, 0
3, 54880, Note_on_c, 1, 50, 66
3, 54919, Note_on_c, 1, 50, 0
3, 54920, Note_on_c, 1, 55, 66
3, 54930, Control_c, 1, 64, 0
3, 54959, Note_on_c, 1, 55, 0
3, 54960, Note_on_c, 1, 36, 76
3, 54990, Control_c, 1, 64, 127
3, 54999, Note_on_c, 1, 36, 0
3, 55000, Note_on_c, 1, 40, 66
3, 55039, Note_on_c, 1, 40, 0
3, 55040, Note_on_c, 1, 43, 66
3, 55079, Note_on_c, 1, 43, 0
3, 55080, Note_on_c, 1, 48, 66
3, 55119, Note_on_c, 1, 48, 0
3, 55120, Note_on_c, 1, 51, 66
3, 55159, Note_on_c, 1, 51, 0
3, 55160, Note_on_c, 1, 55, 66
3, 55170, Control_c, 1, 64, 0
3, 55199, Note_on_c, 1, 55, 0
3, 55200, Note_on_c, 1, 43, 76
3, 55230, Control_c, 1, 64, 127
3, 55239, Note_on_c, 1, 43, 0
3, 55240, Note_on_c, 1, 47, 68
3, 55279, Note_on_c, 1, 47, 0
3, 55280, Note_on_c, 1, 50, 70
3, 55319, Note_on_c, 1, 50, 0
3, 55320, Note_on_c, 1, 55, 73
3, 55359, Note_on_c, 1, 55, 0
3, 55360, Note_on_c, 1, 59, 75
3, 55399, Note_on_c, 1, 59, 0
3, 55400, Note_on_c, 1, 62, 78
3, 55410, Control_c, 1, 64, 0
3, 55439, Note_on_c, 1, 62, 0
3, 55440, Note_on_c, 1, 43, 73
3, 55480, Note_on_c, 1, 47, 71
3, 55499, Note_on_c, 1, 43, 0
3, 55520, Note_on_c, 1, 50, 68
3, 55539, Note_on_c, 1, 47, 0
3, 55560, Note_on_c, 1, 41, 65
3, 55579, Note_on_c, 1, 50, 0
3, 55600, Note_on_c, 1, 47, 63
3, 55619, Note_on_c, 1, 41, 0
3, 55640, Note_on_c, 1, 50, 60
3, 55659, Note_on_c, 1, 47, 0
3, 55680, Note_on_c, 1, 39, 68
3, 55699, Note_on_c, 1, 50, 0
3, 55710, Control_c, 1, 64, 127
3, 55719, Note_on_c, 1, 39, 0
3, 55720, Note_on_c, 1, 43, 58
3, 55759, Note_on_c, 1, 43, 0
3, 55760, Note_on_c, 1, 48, 59
3, 55799, Note_on_c, 1, 48, 0
3, 55800, Note_on_c, 1, 51, 59
3, 55839, Note_on_c, 1, 51, 0
3, 55840, Note_on_c, 1, 55, 60
3, 55879, Note_on_c, 1, 55, 0
3, 55880, Note_on_c, 1, 60, 61
3, 55890, Control_c, 1, 64, 0
3, 55919, Note_on_c, 1, 60, 0
3, 55920, Note_on_c, 1, 35, 71
3, 55950, Control_c, 1, 64, 127
3, 55959, Note_on_c, 1, 35, 0
3, 55960, Note_on_c, 1, 38, 62
3, 55999, Note_on_c, 1, 38, 0
3, 56000, Note_on_c, 1, 43, 63
3, 56039, Note_on_c, 1, 43, 0
3, 56040, Note_on_c, 1, 47, 63
3, 56079, Note_on_c, 1, 47, 0
3, 56080, Note_on_c, 1, 50, 64
3, 56119, Note_on_c, 1, 50, 0
3, 56120, Note_on_c, 1, 55, 65
3, 56130, Control_c, 1, 64, 0
3, 56159, Note_on_c, 1, 55, 0
3, 56160, Note_on_c, 1, 36, 65
3, 56190, Control_c, 1, 64, 127
3, 56199, Note_on_c, 1, 36, 0
3, 56200, Note_on_c, 1, 39, 67
3, 56239, Note_on_c, 1, 39, 0
3, 56240, Note_on_c, 1, 43, 69
3, 56279, Note_on_c, 1, 43, 0
3, 56280, Note_on_c, 1, 48, 71
3, 56319, Note_on_c, 1, 48, 0
3, 56320, Note_on_c, 1, 51, 73
3, 56359, Note_on_c, 1, 51, 0
3, 56360, Note_on_c, 1, 55, 75
3, 56370, Control_c, 1, 64, 0
3, 56399, Note_on_c, 1, 55, 0
3, 56400, Note_on_c, 1, 60, 78
3, 56440, Note_on_c, 1, 55, 66
3, 56459, Note_on_c, 1, 60, 0
3, 56480, Note_on_c, 1, 51, 62
3, 56499, Note_on_c, 1, 55, 0
3, 56520, Note_on_c, 1, 48, 57
3, 56539, Note_on_c, 1, 51, 0
3, 56560, Note_on_c, 1, 43, 52
3, 56579, Note_on_c, 1, 48, 0
3, 56600, Note_on_c, 1, 39, 47
3, 56619, Note_on_c, 1, 43, 0
3, 56639, Note_on_c, 1, 39, 0
3, 56640, Note_on_c, 1, 41, 66
3, 56670, Control_c, 1, 64, 127
3, 56680, Note_on_c, 1, 44, 46
3, 56699, Note_on_c, 1, 41, 0
3, 56719, Note_on_c, 1, 44, 0
3, 56720, Note_on_c, 1, 49, 47
3, 56759, Note_on_c, 1, 49, 0
3, 56760, Note_on_c, 1, 53, 48
3, 56799, Note_on_c, 1, 53, 0
3, 56800, Note_on_c, 1, 56, 49
3, 56839, Note_on_c, 1, 56, 0
3, 56840, Note_on_c, 1, 61, 49
3, 56850, Control_c, 1, 64, 0
3, 56879, Note_on_c, 1, 61, 0
3, 56880, Note_on_c, 1, 43, 60
3, 56910, Control_c, 1, 64, 127
3, 56919, Note_on_c, 1, 43, 0
3, 56920, Note_on_c, 1, 46, 51
3, 56959, Note_on_c, 1, 46, 0
3, 56960, Note_on_c, 1, 51, 52
3, 56999, Note_on_c, 1, 51, 0
3, 57000, Note_on_c, 1, 55, 52
3, 57039, Note_on_c, 1, 55, 0
3, 57040, Note_on_c, 1, 58, 53
3, 57079, Note_on_c, 1, 58, 0
3, 57080, Note_on_c, 1, 63, 54
3, 57090, Control_c, 1, 64, 0
3, 57119, Note_on_c, 1, 63, 0
3, 57120, Note_on_c, 1, 44, 68
3, 57150, Control_c, 1, 64, 127
3, 57159, Note_on_c, 1, 44, 0
3, 57160, Note_on_c, 1, 49, 55
3, 57199, Note_on_c, 1, 49, 0
3, 57200, Note_on_c, 1, 53, 56
3, 57239, Note_on_c, 1, 53, 0
3, 57240, Note_on_c, 1, 56, 57
3, 57279, Note_on_c, 1, 56, 0
3, 57280, Note_on_c, 1, 61, 58
3, 57319, Note_on_c, 1, 61, 0
3, 57320, Note_on_c, 1, 65, 58
3, 57330, Control_c, 1, 64, 0
3, 57359, Note_on_c, 1, 65, 0
3, 57360, Note_on_c, 1, 44, 75
3, 57390, Control_c, 1, 64, 127
3, 57399, Note_on_c, 1, 44, 0
3, 57400, Note_on_c, 1, 48, 60
3, 57439, Note_on_c, 1, 48, 0
3, 57440, Note_on_c, 1, 51, 61
3, 57479, Note_on_c, 1, 51, 0
3, 57480, Note_on_c, 1, 56, 61
3, 57519, Note_on_c, 1, 56, 0
3, 57520, Note_on_c, 1, 60, 62
3, 57559, Note_on_c, 1, 60, 0
3, 57560, Note_on_c, 1, 63, 63
3, 57570, Control_c, 1, 64, 0
3, 57599, Note_on_c, 1, 63, 0
3, 57600, Note_on_c, 1, 43, 79
3, 57630, Control_c, 1, 64, 127
3, 57639, Note_on_c, 1, 43, 0
3, 57640, Note_on_c, 1, 48, 64
3, 57679, Note_on_c, 1, 48, 0
3, 57680, Note_on_c, 1, 51, 65
3, 57719, Note_on_c, 1, 51, 0
3, 57720, Note_on_c, 1, 55, 66
3, 57759, Note_on_c, 1, 55, 0
3, 57760, Note_on_c, 1, 60, 67
3, 57799, Note_on_c, 1, 60, 0
3, 57800, Note_on_c, 1, 63, 68
3, 57810, Control_c, 1, 64, 0
3, 57839, Note_on_c, 1, 63, 0
3, 57840, Note_on_c, 1, 43, 80
3, 57870, Control_c, 1, 64, 127
3, 57879, Note_on_c, 1, 43, 0
3, 57880, Note_on_c, 1, 47, 66
3, 57919, Note_on_c, 1, 47, 0
3, 57920, Note_on_c, 1, 50, 66
3, 57959, Note_on_c, 1, 50, 0
3, 57960, Note_on_c, 1, 55, 66
3, 57999, Note_on_c, 1, 55, 0
3, 58000, Note_on_c, 1, 59, 66
3, 58039, Note_on_c, 1, 59, 0
3, 58040, Note_on_c, 1, 62, 66
3, 58050, Control_c, 1, 64, 0
3, 58079, Note_on_c, 1, 62, 0
3, 58080, Note_on_c, 1, 36, 78
3, 58110, Control_c, 1, 64, 127
3, 58119, Note_on_c, 1, 36, 0
3, 58120, Note_on_c, 1, 39, 66
3, 58159, Note_on_c, 1, 39, 0
3, 58160, Note_on_c, 1, 43, 68
3, 58199, Note_on_c, 1, 43, 0
3, 58200, Note_on_c, 1, 48, 70
3, 58239, Note_on_c, 1, 48, 0
3, 58240, Note_on_c, 1, 51, 72
3, 58279, Note_on_c, 1, 51, 0
3, 58280, Note_on_c, 1, 55, 74
3, 58290, Control_c, 1, 64, 0
3, 58319, Note_on_c, 1, 55, 0
3, 58320, Note_on_c, 1, 60, 66
3, 58439, Note_on_c, 1, 60, 0
3, 66240, Note_on_c, 1, 56, 36
3, 66240, Note_on_c, 1, 63, 36
3, 66299, Note_on_c, 1, 63, 0
3, 66299, Note_on_c, 1, 56, 0
3, 66360, Note_on_c, 1, 56, 36
3, 66360, Note_on_c, 1, 63, 36
3, 66419, Note_on_c, 1, 63, 0
3, 66419, Note_on_c, 1, 56, 0
3, 66480, Note_on_c, 1, 51, 36
3, 66480, Note_on_c, 1, 61, 36
3, 66539, Note_on_c, 1, 61, 0
3, 66539, Note_on_c, 1, 51, 0
3, 66600, Note_on_c, 1, 61, 36
3, 66600, Note_on_c, 1, 51, 36
3, 66659, Note_on_c, 1, 51, 0
3, 66659, Note_on_c, 1, 61, 0
3, 66720, Note_on_c, 1, 53, 36
3, 66720, Note_on_c, 1, 60, 36
3, 66779, Note_on_c, 1, 60, 0
3, 66779, Note_on_c, 1, 53, 0
3, 66840, Note_on_c, 1, 49, 55
3, 67079, Note_on_c, 1, 49, 0
3, 67080, Note_on_c, 1, 48, 45
3, 67139, Note_on_c, 1, 48, 0
3, 67200, Note_on_c, 1, 46, 34
3, 67259, Note_on_c, 1, 46, 0
3, 67320, Note_on_c, 1, 48, 37
3, 67379, Note_on_c, 1, 48, 0
3, 67440, Note_on_c, 1, 49, 40
3, 67499, Note_on_c, 1, 49, 0
3, 67560, Note_on_c, 1, 50, 43
3, 67619, Note_on_c, 1, 50, 0
3, 67680, Note_on_c, 1, 51, 46
3, 67739, Note_on_c, 1, 51, 0
3, 67800, Note_on_c, 1, 63, 55
3, 67800, Note_on_c, 1, 55, 45
3, 68039, Note_on_c, 1, 55, 0
3, 68039, Note_on_c, 1, 63, 0
3, 68040, Note_on_c, 1, 53, 35
3, 68040, Note_on_c, 1, 62, 45
3, 68099, Note_on_c, 1, 62, 0
3, 68099, Note_on_c, 1, 53, 0
3, 68160, Note_on_c, 1, 51, 40
3, 68219, Note_on_c, 1, 51, 0
3, 68280, Note_on_c, 1, 53, 44
3, 68339, Note_on_c, 1, 53, 0
3, 68400, Note_on_c, 1, 55, 48
3, 68459, Note_on_c, 1, 55, 0
3, 68520, Note_on_c, 1, 43, 51
3, 68579, Note_on_c, 1, 43, 0
3, 68640, Note_on_c, 1, 44, 45
3, 68699, Note_on_c, 1, 44, 0
3, 68760, Note_on_c, 1, 56, 45
3, 68760, Note_on_c, 1, 63, 55
3, 69119, Note_on_c, 1, 63, 0
3, 69119, Note_on_c, 1, 56, 0
3, 69120, Note_on_c, 1, 55, 33
3, 69120, Note_on_c, 1, 63, 33
3, 69179, Note_on_c, 1, 63, 0
3, 69179, Note_on_c, 1, 55, 0
3, 69240, Note_on_c, 1, 56, 34
3, 69240, Note_on_c, 1, 65, 34
3, 69299, Note_on_c, 1, 65, 0
3, 69299, Note_on_c, 1, 56, 0
3, 69360, Note_on_c, 1, 58, 36
3, 69360, Note_on_c, 1, 67, 36
3, 69419, Note_on_c, 1, 67, 0
3, 69419, Note_on_c, 1, 58, 0
3, 69480, Note_on_c, 1, 58, 38
3, 69480, Note_on_c, 1, 68, 38
3, 69539, Note_on_c, 1, 68, 0
3, 69539, Note_on_c, 1, 58, 0
3, 69720, Note_on_c, 1, 51, 42
3, 69839, Note_on_c, 1, 51, 0
3, 69840, Note_on_c, 1, 39, 34
3, 69959, Note_on_c, 1, 39, 0
3, 73920, Note_on_c, 1, 63, 33
3, 73920, Note_on_c, 1, 55, 33
3, 73959, Note_on_c, 1, 55, 0
3, 73959, Note_on_c, 1, 63, 0
3, 74040, Note_on_c, 1, 63, 33
3, 74040, Note_on_c, 1, 55, 33
3, 74079, Note_on_c, 1, 55, 0
3, 74079, Note_on_c, 1, 63, 0
3, 74160, Note_on_c, 1, 56, 33
3, 74160, Note_on_c, 1, 63, 33
3, 74199, Note_on_c, 1, 63, 0
3, 74199, Note_on_c, 1, 56, 0
3, 74280, Note_on_c, 1, 56, 33
3, 74280, Note_on_c, 1, 63, 33
3, 74319, Note_on_c, 1, 63, 0
3, 74319, Note_on_c, 1, 56, 0
3, 74400, Note_on_c, 1, 61, 45
3, 74400, Note_on_c, 1, 63, 45
3, 74400, Note_on_c, 1, 67, 55
3, 74639, Note_on_c, 1, 67, 0
3, 74639, Note_on_c, 1, 63, 0
3, 74639, Note_on_c, 1, 61, 0
3, 74880, Note_on_c, 1, 60, 33
3, 74880, Note_on_c, 1, 68, 33
3, 74919, Note_on_c, 1, 68, 0
3, 74919, Note_on_c, 1, 60, 0
3, 75000, Note_on_c, 1, 60, 33
3, 75000, Note_on_c, 1, 68, 33
3, 75039, Note_on_c, 1, 68, 0
3, 75039, Note_on_c, 1, 60, 0
3, 75120, Note_on_c, 1, 70, 33
3, 75120, Note_on_c, 1, 64, 33
3, 75120, Note_on_c, 1, 67, 33
3, 75159, Note_on_c, 1, 67, 0
3, 75159, Note_on_c, 1, 64, 0
3, 75159, Note_on_c, 1, 70, 0
3, 75240, Note_on_c, 1, 64, 33
3, 75240, Note_on_c, 1, 70, 33
3, 75240, Note_on_c, 1, 67, 33
3, 75279, Note_on_c, 1, 67, 0
3, 75279, Note_on_c, 1, 70, 0
3, 75279, Note_on_c, 1, 64, 0
3, 75360, Note_on_c, 1, 65, 33
3, 75360, Note_on_c, 1, 68, 33
3, 75399, Note_on_c, 1, 68, 0
3, 75399, Note_on_c, 1, 65, 0
3, 75480, Note_on_c, 1, 51, 45
3, 75480, Note_on_c, 1, 54, 45
3, 75480, Note_on_c, 1, 57, 55
3, 75839, Note_on_c, 1, 57, 0
3, 75839, Note_on_c, 1, 54, 0
3, 75839, Note_on_c, 1, 51, 0
3, 75840, Note_on_c, 1, 58, 45
3, 75840, Note_on_c, 1, 49, 35
3, 75840, Note_on_c, 1, 53, 35
3, 75899, Note_on_c, 1, 53, 0
3, 75899, Note_on_c, 1, 49, 0
3, 75899, Note_on_c, 1, 58, 0
3, 75960, Note_on_c, 1, 51, 45
3, 75960, Note_on_c, 1, 49, 45
3, 75960, Note_on_c, 1, 55, 55
3, 76319, Note_on_c, 1, 55, 0
3, 76319, Note_on_c, 1, 49, 0
3, 76319, Note_on_c, 1, 51, 0
3, 76320, Note_on_c, 1, 56, 44
3, 76320, Note_on_c, 1, 48, 44
3, 76559, Note_on_c, 1, 48, 0
3, 76560, Note_on_c, 1, 49, 39
3, 76799, Note_on_c, 1, 49, 0
3, 76799, Note_on_c, 1, 56, 0
3, 76800, Note_on_c, 1, 51, 33
3, 76919, Note_on_c, 1, 51, 0
3, 77400, Note_on_c, 1, 56, 35
3, 77519, Note_on_c, 1, 56, 0
3, 77520, Note_on_c, 1, 44, 25
3, 77639, Note_on_c, 1, 44, 0
3, 77760, Note_on_c, 1, 56, 44
3, 77760, Note_on_c, 1, 60, 44
3, 77999, Note_on_c, 1, 56, 0
3, 78000, Note_on_c, 1, 55, 44
3, 78059, Note_on_c, 1, 60, 0
3, 78060, Note_on_c, 1, 65, 43
3, 78119, Note_on_c, 1, 65, 0
3, 78120, Note_on_c, 1, 63, 40
3, 78179, Note_on_c, 1, 63, 0
3, 78180, Note_on_c, 1, 62, 39
3, 78239, Note_on_c, 1, 62, 0
3, 78240, Note_on_c, 1, 63, 36
3, 78299, Note_on_c, 1, 55, 0
3, 78300, Note_on_c, 1, 56, 44
3, 78359, Note_on_c, 1, 56, 0
3, 78360, Note_on_c, 1, 55, 41
3, 78419, Note_on_c, 1, 55, 0
3, 78420, Note_on_c, 1, 54, 38
3, 78479, Note_on_c, 1, 54, 0
3, 78480, Note_on_c, 1, 55, 35
3, 78539, Note_on_c, 1, 55, 0
3, 78539, Note_on_c, 1, 63, 0
3, 78540, Note_on_c, 1, 56, 44
3, 78540, Note_on_c, 1, 53, 34
3, 78599, Note_on_c, 1, 53, 0
3, 78599, Note_on_c, 1, 56, 0
3, 78600, Note_on_c, 1, 51, 35
3, 78600, Note_on_c, 1, 55, 46
3, 78659, Note_on_c, 1, 55, 0
3, 78659, Note_on_c, 1, 51, 0
3, 78660, Note_on_c, 1, 53, 48
3, 78660, Note_on_c, 1, 50, 37
3, 78719, Note_on_c, 1, 50, 0
3, 78719, Note_on_c, 1, 53, 0
3, 78720, Note_on_c, 1, 51, 50
3, 78720, Note_on_c, 1, 48, 39
3, 78779, Note_on_c, 1, 48, 0
3, 78779, Note_on_c, 1, 51, 0
3, 78780, Note_on_c, 1, 50, 55
3, 78780, Note_on_c, 1, 46, 42
3, 78839, Note_on_c, 1, 46, 0
3, 78839, Note_on_c, 1, 50, 0
3, 78840, Note_on_c, 1, 44, 47
3, 78840, Note_on_c, 1, 48, 62
3, 78899, Note_on_c, 1, 48, 0
3, 78899, Note_on_c, 1, 44, 0
3, 78900, Note_on_c, 1, 46, 53
3, 78900, Note_on_c, 1, 43, 41
3, 78959, Note_on_c, 1, 43, 0
3, 78959, Note_on_c, 1, 46, 0
3, 78960, Note_on_c, 1, 44, 44
3, 78960, Note_on_c, 1, 41, 34
3, 79079, Note_on_c, 1, 41, 0
3, 79079, Note_on_c, 1, 44, 0
3, 79080, Note_on_c, 1, 42, 34
3, 79080, Note_on_c, 1, 45, 44
3, 79199, Note_on_c, 1, 45, 0
3, 79199, Note_on_c, 1, 42, 0
3, 79200, Note_on_c, 1, 55, 34
3, 79200, Note_on_c, 1, 43, 34
3, 79559, Note_on_c, 1, 43, 0
3, 79560, Note_on_c, 1, 45, 55
3, 79609, Note_on_c, 1, 45, 0
3, 79620, Note_on_c, 1, 47, 50
3, 79669, Note_on_c, 1, 47, 0
3, 79680, Note_on_c, 1, 48, 45
3, 79799, Note_on_c, 1, 55, 0
3, 79800, Note_on_c, 1, 60, 55
3, 79839, Note_on_c, 1, 60, 0
3, 79860, Note_on_c, 1, 58, 50
3, 79899, Note_on_c, 1, 58, 0
3, 79919, Note_on_c, 1, 48, 0
3, 79920, Note_on_c, 1, 57, 45
3, 79920, Note_on_c, 1, 50, 55
3, 80039, Note_on_c, 1, 50, 0
3, 80039, Note_on_c, 1, 57, 0
3, 80040, Note_on_c, 1, 54, 45
3, 80040, Note_on_c, 1, 62, 45
3, 80159, Note_on_c, 1, 54, 0
3, 80160, Note_on_c, 1, 55, 45
3, 80399, Note_on_c, 1, 55, 0
3, 80400, Note_on_c, 1, 48, 45
3, 80519, Note_on_c, 1, 62, 0
3, 80520, Note_on_c, 1, 60, 58
3, 80559, Note_on_c, 1, 60, 0
3, 80580, Note_on_c, 1, 58, 51
3, 80619, Note_on_c, 1, 58, 0
3, 80640, Note_on_c, 1, 50, 45
3, 80640, Note_on_c, 1, 57, 55
3, 80649, Note_on_c, 1, 48, 0
3, 80759, Note_on_c, 1, 57, 0
3, 80759, Note_on_c, 1, 50, 0
3, 80760, Note_on_c, 1, 51, 45
3, 80760, Note_on_c, 1, 55, 55
3, 80879, Note_on_c, 1, 55, 0
3, 80879, Note_on_c, 1, 51, 0
3, 80880, Note_on_c, 1, 50, 45
3, 80999, Note_on_c, 1, 50, 0
3, 81000, Note_on_c, 1, 38, 45
3, 81119, Note_on_c, 1, 38, 0
3, 81180, Note_on_c, 1, 44, 45
3, 81239, Note_on_c, 1, 44, 0
3, 81240, Note_on_c, 1, 43, 39
3, 81299, Note_on_c, 1, 43, 0
3, 81300, Note_on_c, 1, 42, 43
3, 81359, Note_on_c, 1, 42, 0
3, 81360, Note_on_c, 1, 43, 47
3, 81419, Note_on_c, 1, 43, 0
3, 81420, Note_on_c, 1, 41, 52
3, 81479, Note_on_c, 1, 41, 0
3, 81480, Note_on_c, 1, 39, 56
3, 81539, Note_on_c, 1, 39, 0
3, 81540, Note_on_c, 1, 38, 60
3, 81599, Note_on_c, 1, 38, 0
3, 81600, Note_on_c, 1, 36, 55
3, 81629, Note_on_c, 1, 36, 0
3, 81630, Note_on_c, 1, 38, 56
3, 81659, Note_on_c, 1, 38, 0
3, 81660, Note_on_c, 1, 39, 58
3, 81689, Note_on_c, 1, 39, 0
3, 81690, Note_on_c, 1, 41, 59
3, 81719, Note_on_c, 1, 41, 0
3, 81720, Note_on_c, 1, 43, 61
3, 81749, Note_on_c, 1, 43, 0
3, 81750, Note_on_c, 1, 45, 62
3, 81779, Note_on_c, 1, 45, 0
3, 81780, Note_on_c, 1, 47, 64
3, 81809, Note_on_c, 1, 47, 0
3, 81810, Note_on_c, 1, 48, 66
3, 81839, Note_on_c, 1, 48, 0
3, 81840, Note_on_c, 1, 43, 55
3, 81869, Note_on_c, 1, 43, 0
3, 81870, Note_on_c, 1, 45, 56
3, 81899, Note_on_c, 1, 45, 0
3, 81900, Note_on_c, 1, 47, 58
3, 81929, Note_on_c, 1, 47, 0
3, 81930, Note_on_c, 1, 48, 59
3, 81959, Note_on_c, 1, 48, 0
3, 81960, Note_on_c, 1, 50, 61
3, 81989, Note_on_c, 1, 50, 0
3, 81990, Note_on_c, 1, 51, 62
3, 82019, Note_on_c, 1, 51, 0
3, 82020, Note_on_c, 1, 53, 64
3, 82049, Note_on_c, 1, 53, 0
3, 82050, Note_on_c, 1, 55, 66
3, 82079, Note_on_c, 1, 55, 0
3, 82080, Note_on_c, 1, 48, 55
3, 82139, Note_on_c, 1, 48, 0
3, 82140, Note_on_c, 1, 50, 57
3, 82169, Note_on_c, 1, 50, 0
3, 82170, Note_on_c, 1, 51, 58
3, 82199, Note_on_c, 1, 51, 0
3, 82200, Note_on_c, 1, 53, 59
3, 82229, Note_on_c, 1, 53, 0
3, 82230, Note_on_c, 1, 55, 60
3, 82259, Note_on_c, 1, 55, 0
3, 82260, Note_on_c, 1, 57, 61
3, 82289, Note_on_c, 1, 57, 0
3, 82290, Note_on_c, 1, 59, 62
3, 82319, Note_on_c, 1, 59, 0
3, 82320, Note_on_c, 1, 60, 63
3, 82349, Note_on_c, 1, 60, 0
3, 82350, Note_on_c, 1, 62, 64
3, 82379, Note_on_c, 1, 62, 0
3, 82380, Note_on_c, 1, 63, 66
3, 82409, Note_on_c, 1, 63, 0
3, 82410, Note_on_c, 1, 62, 55
3, 82439, Note_on_c, 1, 62, 0
3, 82440, Note_on_c, 1, 60, 55
3, 82469, Note_on_c, 1, 60, 0
3, 82470, Note_on_c, 1, 62, 55
3, 82499, Note_on_c, 1, 62, 0
3, 82500, Note_on_c, 1, 63, 55
3, 82529, Note_on_c, 1, 63, 0
3, 82530, Note_on_c, 1, 60, 54
3, 82559, Note_on_c, 1, 60, 0
3, 82560, Note_on_c, 1, 59, 54
3, 82589, Note_on_c, 1, 59, 0
3, 82590, Note_on_c, 1, 60, 55
3, 82619, Note_on_c, 1, 60, 0
3, 82620, Note_on_c, 1, 62, 56
3, 82649, Note_on_c, 1, 62, 0
3, 82650, Note_on_c, 1, 60, 57
3, 82679, Note_on_c, 1, 60, 0
3, 82680, Note_on_c, 1, 58, 58
3, 82709, Note_on_c, 1, 58, 0
3, 82710, Note_on_c, 1, 60, 59
3, 82739, Note_on_c, 1, 60, 0
3, 82740, Note_on_c, 1, 62, 60
3, 82769, Note_on_c, 1, 62, 0
3, 82770, Note_on_c, 1, 58, 61
3, 82799, Note_on_c, 1, 58, 0
3, 82800, Note_on_c, 1, 57, 62
3, 82829, Note_on_c, 1, 57, 0
3, 82830, Note_on_c, 1, 58, 63
3, 82859, Note_on_c, 1, 58, 0
3, 82860, Note_on_c, 1, 60, 64
3, 82889, Note_on_c, 1, 60, 0
3, 82890, Note_on_c, 1, 58, 65
3, 82919, Note_on_c, 1, 58, 0
3, 82920, Note_on_c, 1, 56, 65
3, 82949, Note_on_c, 1, 56, 0
3, 82950, Note_on_c, 1, 58, 63
3, 82979, Note_on_c, 1, 58, 0
3, 82980, Note_on_c, 1, 60, 60
3, 83009, Note_on_c, 1, 60, 0
3, 83010, Note_on_c, 1, 56, 57
3, 83039, Note_on_c, 1, 56, 0
3, 83040, Note_on_c, 1, 55, 56
3, 83099, Note_on_c, 1, 55, 0
3, 83100, Note_on_c, 1, 54, 55
3, 83129, Note_on_c, 1, 54, 0
3, 83130, Note_on_c, 1, 52, 54
3, 83159, Note_on_c, 1, 52, 0
3, 83160, Note_on_c, 1, 50, 54
3, 83189, Note_on_c, 1, 50, 0
3, 83190, Note_on_c, 1, 48, 53
3, 83219, Note_on_c, 1, 48, 0
3, 83220, Note_on_c, 1, 47, 52
3, 83249, Note_on_c, 1, 47, 0
3, 83250, Note_on_c, 1, 45, 51
3, 83279, Note_on_c, 1, 45, 0
3, 83280, Note_on_c, 1, 43, 51
3, 83309, Note_on_c, 1, 43, 0
3, 83310, Note_on_c, 1, 45, 50
3, 83339, Note_on_c, 1, 45, 0
3, 83340, Note_on_c, 1, 47, 49
3, 83369, Note_on_c, 1, 47, 0
3, 83370, Note_on_c, 1, 48, 48
3, 83399, Note_on_c, 1, 48, 0
3, 83400, Note_on_c, 1, 50, 48
3, 83429, Note_on_c, 1, 50, 0
3, 83430, Note_on_c, 1, 52, 47
3, 83459, Note_on_c, 1, 52, 0
3, 83460, Note_on_c, 1, 54, 46
3, 83489, Note_on_c, 1, 54, 0
3, 83490, Note_on_c, 1, 55, 45
3, 83519, Note_on_c, 1, 55, 0
3, 83520, Note_on_c, 1, 36, 63
3, 83549, Note_on_c, 1, 36, 0
3, 83550, Note_on_c, 1, 38, 53
3, 83579, Note_on_c, 1, 38, 0
3, 83580, Note_on_c, 1, 39, 53
3, 83609, Note_on_c, 1, 39, 0
3, 83610, Note_on_c, 1, 41, 53
3, 83639, Note_on_c, 1, 41, 0
3, 83640, Note_on_c, 1, 43, 53
3, 83669, Note_on_c, 1, 43, 0
3, 83670, Note_on_c, 1, 44, 54
3, 83699, Note_on_c, 1, 44, 0
3, 83700, Note_on_c, 1, 46, 54
3, 83729, Note_on_c, 1, 46, 0
3, 83730, Note_on_c, 1, 48, 54
3, 83759, Note_on_c, 1, 48, 0
3, 83760, Note_on_c, 1, 38, 64
3, 83789, Note_on_c, 1, 38, 0
3, 83790, Note_on_c, 1, 39, 54
3, 83819, Note_on_c, 1, 39, 0
3, 83820, Note_on_c, 1, 41, 55
3, 83849, Note_on_c, 1, 41, 0
3, 83850, Note_on_c, 1, 43, 55
3, 83879, Note_on_c, 1, 43, 0
3, 83880, Note_on_c, 1, 44, 55
3, 83909, Note_on_c, 1, 44, 0
3, 83910, Note_on_c, 1, 46, 55
3, 83939, Note_on_c, 1, 46, 0
3, 83940, Note_on_c, 1, 48, 56
3, 83969, Note_on_c, 1, 48, 0
3, 83970, Note_on_c, 1, 50, 56
3, 83999, Note_on_c, 1, 50, 0
3, 84000, Note_on_c, 1, 39, 66
3, 84029, Note_on_c, 1, 39, 0
3, 84030, Note_on_c, 1, 41, 56
3, 84059, Note_on_c, 1, 41, 0
3, 84060, Note_on_c, 1, 43, 56
3, 84089, Note_on_c, 1, 43, 0
3, 84090, Note_on_c, 1, 44, 57
3, 84119, Note_on_c, 1, 44, 0
3, 84120, Note_on_c, 1, 46, 57
3, 84149, Note_on_c, 1, 46, 0
3, 84150, Note_on_c, 1, 48, 57
3, 84179, Note_on_c, 1, 48, 0
3, 84180, Note_on_c, 1, 50, 57
3, 84209, Note_on_c, 1, 50, 0
3, 84210, Note_on_c, 1, 51, 58
3, 84239, Note_on_c, 1, 51, 0
3, 84240, Note_on_c, 1, 41, 68
3, 84269, Note_on_c, 1, 41, 0
3, 84270, Note_on_c, 1, 43, 58
3, 84299, Note_on_c, 1, 43, 0
3, 84300, Note_on_c, 1, 44, 58
3, 84329, Note_on_c, 1, 44, 0
3, 84330, Note_on_c, 1, 46, 58
3, 84359, Note_on_c, 1, 46, 0
3, 84360, Note_on_c, 1, 48, 59
3, 84389, Note_on_c, 1, 48, 0
3, 84390, Note_on_c, 1, 50, 59
3, 84419, Note_on_c, 1, 50, 0
3, 84420, Note_on_c, 1, 51, 59
3, 84449, Note_on_c, 1, 51, 0
3, 84450, Note_on_c, 1, 53, 59
3, 84479, Note_on_c, 1, 53, 0
3, 84480, Note_on_c, 1, 43, 70
3, 84509, Note_on_c, 1, 43, 0
3, 84510, Note_on_c, 1, 45, 60
3, 84539, Note_on_c, 1, 45, 0
3, 84540, Note_on_c, 1, 46, 60
3, 84569, Note_on_c, 1, 46, 0
3, 84570, Note_on_c, 1, 48, 60
3, 84599, Note_on_c, 1, 48, 0
3, 84600, Note_on_c, 1, 50, 60
3, 84629, Note_on_c, 1, 50, 0
3, 84630, Note_on_c, 1, 51, 61
3, 84659, Note_on_c, 1, 51, 0
3, 84660, Note_on_c, 1, 53, 61
3, 84689, Note_on_c, 1, 53, 0
3, 84690, Note_on_c, 1, 55, 61
3, 84719, Note_on_c, 1, 55, 0
3, 84720, Note_on_c, 1, 45, 71
3, 84749, Note_on_c, 1, 45, 0
3, 84750, Note_on_c, 1, 46, 61
3, 84779, Note_on_c, 1, 46, 0
3, 84780, Note_on_c, 1, 48, 62
3, 84809, Note_on_c, 1, 48, 0
3, 84810, Note_on_c, 1, 50, 62
3, 84839, Note_on_c, 1, 50, 0
3, 84840, Note_on_c, 1, 51, 62
3, 84869, Note_on_c, 1, 51, 0
3, 84870, Note_on_c, 1, 53, 62
3, 84899, Note_on_c, 1, 53, 0
3, 84900, Note_on_c, 1, 55, 63
3, 84929, Note_on_c, 1, 55, 0
3, 84930, Note_on_c, 1, 57, 63
3, 84959, Note_on_c, 1, 57, 0
3, 84960, Note_on_c, 1, 46, 73
3, 84989, Note_on_c, 1, 46, 0
3, 84990, Note_on_c, 1, 48, 63
3, 85019, Note_on_c, 1, 48, 0
3, 85020, Note_on_c, 1, 50, 63
3, 85049, Note_on_c, 1, 50, 0
3, 85050, Note_on_c, 1, 52, 64
3, 85079, Note_on_c, 1, 52, 0
3, 85080, Note_on_c, 1, 54, 64
3, 85109, Note_on_c, 1, 54, 0
3, 85110, Note_on_c, 1, 55, 64
3, 85139, Note_on_c, 1, 55, 0
3, 85140, Note_on_c, 1, 57, 64
3, 85169, Note_on_c, 1, 57, 0
3, 85170, Note_on_c, 1, 58, 65
3, 85199, Note_on_c, 1, 58, 0
3, 85200, Note_on_c, 1, 48, 65
3, 85229, Note_on_c, 1, 48, 0
3, 85230, Note_on_c, 1, 50, 65
3, 85259, Note_on_c, 1, 50, 0
3, 85260, Note_on_c, 1, 51, 65
3, 85289, Note_on_c, 1, 51, 0
3, 85290, Note_on_c, 1, 54, 65
3, 85319, Note_on_c, 1, 54, 0
3, 85320, Note_on_c, 1, 55, 66
3, 85349, Note_on_c, 1, 55, 0
3, 85350, Note_on_c, 1, 57, 66
3, 85379, Note_on_c, 1, 57, 0
3, 85380, Note_on_c, 1, 58, 66
3, 85409, Note_on_c, 1, 58, 0
3, 85410, Note_on_c, 1, 60, 66
3, 85439, Note_on_c, 1, 60, 0
3, 85440, Note_on_c, 1, 50, 66
3, 85469, Note_on_c, 1, 50, 0
3, 85500, Note_on_c, 1, 62, 66
3, 85529, Note_on_c, 1, 62, 0
3, 85560, Note_on_c, 1, 51, 66
3, 85589, Note_on_c, 1, 51, 0
3, 85620, Note_on_c, 1, 63, 66
3, 85649, Note_on_c, 1, 63, 0
3, 85680, Note_on_c, 1, 48, 66
3, 85709, Note_on_c, 1, 48, 0
3, 85740, Note_on_c, 1, 60, 66
3, 85769, Note_on_c, 1, 60, 0
3, 85800, Note_on_c, 1, 50, 66
3, 85829, Note_on_c, 1, 50, 0
3, 85860, Note_on_c, 1, 62, 66
3, 85889, Note_on_c, 1, 62, 0
3, 85920, Note_on_c, 1, 43, 66
3, 85979, Note_on_c, 1, 43, 0
3, 85980, Note_on_c, 1, 45, 61
3, 86009, Note_on_c, 1, 45, 0
3, 86010, Note_on_c, 1, 46, 59
3, 86039, Note_on_c, 1, 46, 0
3, 86040, Note_on_c, 1, 48, 56
3, 86069, Note_on_c, 1, 48, 0
3, 86070, Note_on_c, 1, 50, 53
3, 86099, Note_on_c, 1, 50, 0
3, 86100, Note_on_c, 1, 52, 51
3, 86129, Note_on_c, 1, 52, 0
3, 86130, Note_on_c, 1, 54, 48
3, 86159, Note_on_c, 1, 54, 0
3, 86160, Note_on_c, 1, 55, 45
3, 86219, Note_on_c, 1, 55, 0
3, 86460, Note_on_c, 1, 69, 45
3, 86519, Note_on_c, 1, 69, 0
3, 86520, Note_on_c, 1, 71, 55
3, 86579, Note_on_c, 1, 71, 0
3, 86580, Note_on_c, 1, 67, 45
3, 86639, Note_on_c, 1, 67, 0
3, 86700, Note_on_c, 1, 68, 45
3, 86759, Note_on_c, 1, 68, 0
3, 86760, Note_on_c, 1, 67, 55
3, 86819, Note_on_c, 1, 67, 0
3, 86820, Note_on_c, 1, 66, 45
3, 86879, Note_on_c, 1, 66, 0
3, 86880, Note_on_c, 1, 67, 45
3, 87119, Note_on_c, 1, 67, 0
3, 87180, Note_on_c, 1, 68, 44
3, 87239, Note_on_c, 1, 68, 0
3, 87240, Note_on_c, 1, 67, 47
3, 87299, Note_on_c, 1, 67, 0
3, 87300, Note_on_c, 1, 65, 51
3, 87359, Note_on_c, 1, 65, 0
3, 87360, Note_on_c, 1, 64, 55
3, 87479, Note_on_c, 1, 64, 0
3, 87480, Note_on_c, 1, 63, 55
3, 87599, Note_on_c, 1, 63, 0
3, 87600, Note_on_c, 1, 62, 55
3, 87899, Note_on_c, 1, 62, 0
3, 87900, Note_on_c, 1, 63, 60
3, 87929, Note_on_c, 1, 63, 0
3, 87930, Note_on_c, 1, 62, 55
3, 87959, Note_on_c, 1, 62, 0
3, 87960, Note_on_c, 1, 60, 55
3, 88019, Note_on_c, 1, 60, 0
3, 88020, Note_on_c, 1, 59, 50
3, 88079, Note_on_c, 1, 59, 0
3, 88080, Note_on_c, 1, 60, 45
3, 88119, Note_on_c, 1, 60, 0
3, 88140, Note_on_c, 1, 48, 44
3, 88199, Note_on_c, 1, 48, 0
3, 88200, Note_on_c, 1, 50, 47
3, 88259, Note_on_c, 1, 50, 0
3, 88260, Note_on_c, 1, 52, 51
3, 88319, Note_on_c, 1, 52, 0
3, 88320, Note_on_c, 1, 53, 55
3, 88380, Note_on_c, 1, 60, 55
3, 88439, Note_on_c, 1, 60, 0
3, 88440, Note_on_c, 1, 65, 52
3, 88499, Note_on_c, 1, 65, 0
3, 88500, Note_on_c, 1, 63, 48
3, 88559, Note_on_c, 1, 63, 0
3, 88560, Note_on_c, 1, 62, 44
3, 88619, Note_on_c, 1, 62, 0
3, 88619, Note_on_c, 1, 53, 0
3, 88620, Note_on_c, 1, 55, 52
3, 88679, Note_on_c, 1, 55, 0
3, 88680, Note_on_c, 1, 57, 49
3, 88680, Note_on_c, 1, 67, 49
3, 88739, Note_on_c, 1, 57, 0
3, 88740, Note_on_c, 1, 59, 46
3, 88799, Note_on_c, 1, 59, 0
3, 88799, Note_on_c, 1, 67, 0
3, 88800, Note_on_c, 1, 67, 40
3, 88800, Note_on_c, 1, 60, 38
3, 89039, Note_on_c, 1, 60, 0
3, 89039, Note_on_c, 1, 67, 0
3, 89040, Note_on_c, 1, 53, 55
3, 89160, Note_on_c, 1, 65, 55
3, 89219, Note_on_c, 1, 65, 0
3, 89220, Note_on_c, 1, 63, 50
3, 89279, Note_on_c, 1, 63, 0
3, 89279, Note_on_c, 1, 53, 0
3, 89280, Note_on_c, 1, 53, 45
3, 89280, Note_on_c, 1, 62, 45
3, 89399, Note_on_c, 1, 62, 0
3, 89399, Note_on_c, 1, 53, 0
3, 89400, Note_on_c, 1, 51, 45
3, 89400, Note_on_c, 1, 60, 45
3, 89459, Note_on_c, 1, 60, 0
3, 89459, Note_on_c, 1, 51, 0
3, 89460, Note_on_c, 1, 53, 45
3, 89519, Note_on_c, 1, 53, 0
3, 89520, Note_on_c, 1, 55, 45
3, 89639, Note_on_c, 1, 55, 0
3, 89640, Note_on_c, 1, 43, 35
3, 89759, Note_on_c, 1, 43, 0
3, 89820, Note_on_c, 1, 36, 52
3, 89879, Note_on_c, 1, 36, 0
3, 89880, Note_on_c, 1, 39, 44
3, 89939, Note_on_c, 1, 39, 0
3, 89940, Note_on_c, 1, 43, 47
3, 89999, Note_on_c, 1, 43, 0
3, 90000, Note_on_c, 1, 48, 45
3, 90059, Note_on_c, 1, 48, 0
3, 90060, Note_on_c, 1, 51, 52
3, 90119, Note_on_c, 1, 51, 0
3, 90120, Note_on_c, 1, 50, 47
3, 90179, Note_on_c, 1, 50, 0
3, 90180, Note_on_c, 1, 48, 43
3, 90239, Note_on_c, 1, 48, 0
3, 90240, Note_on_c, 1, 47, 65
3, 90269, Note_on_c, 1, 47, 0
3, 90270, Note_on_c, 1, 48, 56
3, 90299, Note_on_c, 1, 48, 0
3, 90300, Note_on_c, 1, 50, 58
3, 90329, Note_on_c, 1, 50, 0
3, 90330, Note_on_c, 1, 51, 59
3, 90359, Note_on_c, 1, 51, 0
3, 90360, Note_on_c, 1, 53, 61
3, 90389, Note_on_c, 1, 53, 0
3, 90390, Note_on_c, 1, 55, 62
3, 90419, Note_on_c, 1, 55, 0
3, 90420, Note_on_c, 1, 57, 64
3, 90449, Note_on_c, 1, 57, 0
3, 90450, Note_on_c, 1, 59, 66
3, 90479, Note_on_c, 1, 59, 0
3, 90480, Note_on_c, 1, 48, 65
3, 90509, Note_on_c, 1, 48, 0
3, 90510, Note_on_c, 1, 50, 56
3, 90539, Note_on_c, 1, 50, 0
3, 90540, Note_on_c, 1, 51, 58
3, 90569, Note_on_c, 1, 51, 0
3, 90570, Note_on_c, 1, 53, 59
3, 90599, Note_on_c, 1, 53, 0
3, 90600, Note_on_c, 1, 55, 61
3, 90629, Note_on_c, 1, 55, 0
3, 90630, Note_on_c, 1, 57, 62
3, 90659, Note_on_c, 1, 57, 0
3, 90660, Note_on_c, 1, 59, 64
3, 90689, Note_on_c, 1, 59, 0
3, 90690, Note_on_c, 1, 60, 66
3, 90719, Note_on_c, 1, 60, 0
3, 90720, Note_on_c, 1, 43, 57
3, 90749, Note_on_c, 1, 43, 0
3, 90750, Note_on_c, 1, 45, 49
3, 90779, Note_on_c, 1, 45, 0
3, 90780, Note_on_c, 1, 47, 51
3, 90809, Note_on_c, 1, 47, 0
3, 90810, Note_on_c, 1, 48, 53
3, 90839, Note_on_c, 1, 48, 0
3, 90840, Note_on_c, 1, 50, 55
3, 90869, Note_on_c, 1, 50, 0
3, 90870, Note_on_c, 1, 51, 58
3, 90899, Note_on_c, 1, 51, 0
3, 90900, Note_on_c, 1, 53, 60
3, 90929, Note_on_c, 1, 53, 0
3, 90930, Note_on_c, 1, 55, 62
3, 90959, Note_on_c, 1, 55, 0
3, 90960, Note_on_c, 1, 54, 64
3, 90989, Note_on_c, 1, 54, 0
3, 90990, Note_on_c, 1, 55, 66
3, 91019, Note_on_c, 1, 55, 0
3, 91020, Note_on_c, 1, 56, 69
3, 91049, Note_on_c, 1, 56, 0
3, 91050, Note_on_c, 1, 55, 55
3, 91079, Note_on_c, 1, 55, 0
3, 91080, Note_on_c, 1, 41, 55
3, 91109, Note_on_c, 1, 41, 0
3, 91110, Note_on_c, 1, 47, 58
3, 91139, Note_on_c, 1, 47, 0
3, 91140, Note_on_c, 1, 50, 62
3, 91169, Note_on_c, 1, 50, 0
3, 91170, Note_on_c, 1, 53, 66
3, 91199, Note_on_c, 1, 53, 0
3, 91200, Note_on_c, 1, 40, 66
3, 91229, Note_on_c, 1, 40, 0
3, 91260, Note_on_c, 1, 52, 66
3, 91289, Note_on_c, 1, 52, 0
3, 91320, Note_on_c, 1, 39, 66
3, 91349, Note_on_c, 1, 39, 0
3, 91380, Note_on_c, 1, 51, 66
3, 91409, Note_on_c, 1, 51, 0
3, 91440, Note_on_c, 1, 38, 66
3, 91469, Note_on_c, 1, 38, 0
3, 91500, Note_on_c, 1, 50, 66
3, 91529, Note_on_c, 1, 50, 0
3, 91560, Note_on_c, 1, 35, 66
3, 91589, Note_on_c, 1, 35, 0
3, 91620, Note_on_c, 1, 47, 66
3, 91649, Note_on_c, 1, 47, 0
3, 91680, Note_on_c, 1, 36, 65
3, 91709, Note_on_c, 1, 36, 0
3, 91710, Note_on_c, 1, 38, 56
3, 91739, Note_on_c, 1, 38, 0
3, 91740, Note_on_c, 1, 39, 57
3, 91769, Note_on_c, 1, 39, 0
3, 91770, Note_on_c, 1, 41, 58
3, 91799, Note_on_c, 1, 41, 0
3, 91800, Note_on_c, 1, 43, 59
3, 91829, Note_on_c, 1, 43, 0
3, 91830, Note_on_c, 1, 45, 60
3, 91859, Note_on_c, 1, 45, 0
3, 91860, Note_on_c, 1, 47, 61
3, 91889, Note_on_c, 1, 47, 0
3, 91890, Note_on_c, 1, 48, 66
3, 91919, Note_on_c, 1, 48, 0
3, 91920, Note_on_c, 1, 47, 64
3, 91949, Note_on_c, 1, 47, 0
3, 91950, Note_on_c, 1, 48, 61
3, 91979, Note_on_c, 1, 48, 0
3, 91980, Note_on_c, 1, 50, 59
3, 92009, Note_on_c, 1, 50, 0
3, 92010, Note_on_c, 1, 48, 56
3, 92039, Note_on_c, 1, 48, 0
3, 92040, Note_on_c, 1, 39, 54
3, 92069, Note_on_c, 1, 39, 0
3, 92070, Note_on_c, 1, 43, 51
3, 92099, Note_on_c, 1, 43, 0
3, 92100, Note_on_c, 1, 48, 49
3, 92129, Note_on_c, 1, 48, 0
3, 92130, Note_on_c, 1, 51, 46
3, 92159, Note_on_c, 1, 51, 0
3, 92160, Note_on_c, 1, 41, 56
3, 92189, Note_on_c, 1, 41, 0
3, 92190, Note_on_c, 1, 43, 47
3, 92219, Note_on_c, 1, 43, 0
3, 92220, Note_on_c, 1, 44, 48
3, 92249, Note_on_c, 1, 44, 0
3, 92250, Note_on_c, 1, 46, 50
3, 92279, Note_on_c, 1, 46, 0
3, 92280, Note_on_c, 1, 48, 51
3, 92309, Note_on_c, 1, 48, 0
3, 92310, Note_on_c, 1, 49, 53
3, 92339, Note_on_c, 1, 49, 0
3, 92340, Note_on_c, 1, 51, 55
3, 92369, Note_on_c, 1, 51, 0
3, 92370, Note_on_c, 1, 53, 57
3, 92399, Note_on_c, 1, 53, 0
3, 92400, Note_on_c, 1, 43, 57
3, 92429, Note_on_c, 1, 43, 0
3, 92430, Note_on_c, 1, 44, 48
3, 92459, Note_on_c, 1, 44, 0
3, 92460, Note_on_c, 1, 46, 49
3, 92489, Note_on_c, 1, 46, 0
3, 92490, Note_on_c, 1, 48, 52
3, 92519, Note_on_c, 1, 48, 0
3, 92520, Note_on_c, 1, 49, 53
3, 92549, Note_on_c, 1, 49, 0
3, 92550, Note_on_c, 1, 51, 55
3, 92579, Note_on_c, 1, 51, 0
3, 92580, Note_on_c, 1, 53, 56
3, 92609, Note_on_c, 1, 53, 0
3, 92610, Note_on_c, 1, 55, 58
3, 92639, Note_on_c, 1, 55, 0
3, 92640, Note_on_c, 1, 44, 59
3, 92669, Note_on_c, 1, 44, 0
3, 92670, Note_on_c, 1, 46, 49
3, 92699, Note_on_c, 1, 46, 0
3, 92700, Note_on_c, 1, 48, 51
3, 92729, Note_on_c, 1, 48, 0
3, 92730, Note_on_c, 1, 49, 53
3, 92759, Note_on_c, 1, 49, 0
3, 92760, Note_on_c, 1, 51, 54
3, 92789, Note_on_c, 1, 51, 0
3, 92790, Note_on_c, 1, 53, 57
3, 92819, Note_on_c, 1, 53, 0
3, 92820, Note_on_c, 1, 55, 58
3, 92849, Note_on_c, 1, 55, 0
3, 92850, Note_on_c, 1, 56, 60
3, 92879, Note_on_c, 1, 56, 0
3, 92880, Note_on_c, 1, 46, 61
3, 92909, Note_on_c, 1, 46, 0
3, 92910, Note_on_c, 1, 48, 51
3, 92939, Note_on_c, 1, 48, 0
3, 92940, Note_on_c, 1, 49, 52
3, 92969, Note_on_c, 1, 49, 0
3, 92970, Note_on_c, 1, 51, 55
3, 92999, Note_on_c, 1, 51, 0
3, 93000, Note_on_c, 1, 53, 56
3, 93029, Note_on_c, 1, 53, 0
3, 93030, Note_on_c, 1, 55, 58
3, 93059, Note_on_c, 1, 55, 0
3, 93060, Note_on_c, 1, 56, 59
3, 93089, Note_on_c, 1, 56, 0
3, 93090, Note_on_c, 1, 58, 62
3, 93119, Note_on_c, 1, 58, 0
3, 93120, Note_on_c, 1, 48, 62
3, 93149, Note_on_c, 1, 48, 0
3, 93150, Note_on_c, 1, 49, 52
3, 93179, Note_on_c, 1, 49, 0
3, 93180, Note_on_c, 1, 51, 54
3, 93209, Note_on_c, 1, 51, 0
3, 93210, Note_on_c, 1, 53, 56
3, 93239, Note_on_c, 1, 53, 0
3, 93240, Note_on_c, 1, 55, 58
3, 93269, Note_on_c, 1, 55, 0
3, 93270, Note_on_c, 1, 56, 60
3, 93299, Note_on_c, 1, 56, 0
3, 93300, Note_on_c, 1, 58, 61
3, 93329, Note_on_c, 1, 58, 0
3, 93330, Note_on_c, 1, 60, 64
3, 93359, Note_on_c, 1, 60, 0
3, 93360, Note_on_c, 1, 50, 64
3, 93389, Note_on_c, 1, 50, 0
3, 93390, Note_on_c, 1, 51, 54
3, 93419, Note_on_c, 1, 51, 0
3, 93420, Note_on_c, 1, 53, 55
3, 93449, Note_on_c, 1, 53, 0
3, 93450, Note_on_c, 1, 55, 58
3, 93479, Note_on_c, 1, 55, 0
3, 93480, Note_on_c, 1, 56, 59
3, 93509, Note_on_c, 1, 56, 0
3, 93510, Note_on_c, 1, 59, 62
3, 93539, Note_on_c, 1, 59, 0
3, 93540, Note_on_c, 1, 60, 63
3, 93569, Note_on_c, 1, 60, 0
3, 93570, Note_on_c, 1, 62, 66
3, 93599, Note_on_c, 1, 62, 0
3, 93600, Note_on_c, 1, 51, 77
3, 93629, Note_on_c, 1, 51, 0
3, 93630, Note_on_c, 1, 53, 57
3, 93659, Note_on_c, 1, 53, 0
3, 93660, Note_on_c, 1, 55, 59
3, 93689, Note_on_c, 1, 55, 0
3, 93690, Note_on_c, 1, 57, 61
3, 93719, Note_on_c, 1, 57, 0
3, 93720, Note_on_c, 1, 59, 66
3, 93749, Note_on_c, 1, 59, 0
3, 93750, Note_on_c, 1, 60, 68
3, 93779, Note_on_c, 1, 60, 0
3, 93780, Note_on_c, 1, 62, 71
3, 93809, Note_on_c, 1, 62, 0
3, 93810, Note_on_c, 1, 63, 75
3, 93839, Note_on_c, 1, 63, 0
3, 93840, Note_on_c, 1, 53, 67
3, 93869, Note_on_c, 1, 53, 0
3, 93870, Note_on_c, 1, 55, 58
3, 93899, Note_on_c, 1, 55, 0
3, 93900, Note_on_c, 1, 56, 61
3, 93929, Note_on_c, 1, 56, 0
3, 93930, Note_on_c, 1, 58, 63
3, 93959, Note_on_c, 1, 58, 0
3, 93960, Note_on_c, 1, 60, 66
3, 93989, Note_on_c, 1, 60, 0
3, 93990, Note_on_c, 1, 62, 68
3, 94019, Note_on_c, 1, 62, 0
3, 94020, Note_on_c, 1, 64, 71
3, 94049, Note_on_c, 1, 64, 0
3, 94050, Note_on_c, 1, 65, 74
3, 94079, Note_on_c, 1, 65, 0
3, 94080, Note_on_c, 1, 55, 72
3, 94109, Note_on_c, 1, 55, 0
3, 94140, Note_on_c, 1, 67, 70
3, 94169, Note_on_c, 1, 67, 0
3, 94200, Note_on_c, 1, 56, 67
3, 94229, Note_on_c, 1, 56, 0
3, 94260, Note_on_c, 1, 68, 64
3, 94289, Note_on_c, 1, 68, 0
3, 94320, Note_on_c, 1, 53, 61
3, 94349, Note_on_c, 1, 53, 0
3, 94380, Note_on_c, 1, 65, 58
3, 94409, Note_on_c, 1, 65, 0
3, 94440, Note_on_c, 1, 55, 55
3, 94469, Note_on_c, 1, 55, 0
3, 94500, Note_on_c, 1, 67, 52
3, 94529, Note_on_c, 1, 67, 0
3, 94560, Note_on_c, 1, 48, 56
3, 94589, Note_on_c, 1, 48, 0
3, 94590, Note_on_c, 1, 51, 55
3, 94619, Note_on_c, 1, 51, 0
3, 94620, Note_on_c, 1, 55, 54
3, 94649, Note_on_c, 1, 55, 0
3, 94650, Note_on_c, 1, 60, 50
3, 94679, Note_on_c, 1, 60, 0
3, 94680, Note_on_c, 1, 63, 47
3, 94709, Note_on_c, 1, 63, 0
3, 94710, Note_on_c, 1, 60, 44
3, 94739, Note_on_c, 1, 60, 0
3, 94740, Note_on_c, 1, 55, 41
3, 94769, Note_on_c, 1, 55, 0
3, 94770, Note_on_c, 1, 51, 38
3, 94799, Note_on_c, 1, 51, 0
3, 94800, Note_on_c, 1, 48, 35
3, 94919, Note_on_c, 1, 48, 0
3, 98880, Note_on_c, 1, 60, 43
3, 99119, Note_on_c, 1, 60, 0
3, 99120, Note_on_c, 1, 59, 41
3, 99359, Note_on_c, 1, 59, 0
3, 99360, Note_on_c, 1, 57, 38
3, 99599, Note_on_c, 1, 57, 0
3, 99600, Note_on_c, 1, 55, 35
3, 99839, Note_on_c, 1, 55, 0
3, 99840, Note_on_c, 1, 53, 32
3, 99959, Note_on_c, 1, 53, 0
3, 100200, Note_on_c, 1, 53, 45
3, 100319, Note_on_c, 1, 53, 0
3, 100320, Note_on_c, 1, 55, 35
3, 100419, Note_on_c, 1, 55, 0
3, 100440, Note_on_c, 1, 55, 35
3, 100539, Note_on_c, 1, 55, 0
3, 100560, Note_on_c, 1, 43, 35
3, 100669, Note_on_c, 1, 43, 0
3, 100800, Note_on_c, 1, 55, 45
3, 100800, Note_on_c, 1, 43, 45
3, 101279, Note_on_c, 1, 43, 0
3, 101279, Note_on_c, 1, 55, 0
3, 101280, Note_on_c, 1, 50, 45
3, 101280, Note_on_c, 1, 38, 45
3, 101759, Note_on_c, 1, 38, 0
3, 101759, Note_on_c, 1, 50, 0
3, 101760, Note_on_c, 1, 40, 44
3, 101760, Note_on_c, 1, 52, 44
3, 101819, Note_on_c, 1, 52, 0
3, 101819, Note_on_c, 1, 40, 0
3, 101880, Note_on_c, 1, 69, 54
3, 101880, Note_on_c, 1, 60, 44
3, 101939, Note_on_c, 1, 60, 0
3, 101939, Note_on_c, 1, 69, 0
3, 102000, Note_on_c, 1, 62, 34
3, 102000, Note_on_c, 1, 71, 44
3, 102059, Note_on_c, 1, 71, 0
3, 102059, Note_on_c, 1, 62, 0
3, 102120, Note_on_c, 1, 62, 34
3, 102120, Note_on_c, 1, 72, 44
3, 102179, Note_on_c, 1, 72, 0
3, 102179, Note_on_c, 1, 62, 0
3, 102240, Note_on_c, 1, 67, 44
3, 102299, Note_on_c, 1, 67, 0
3, 102360, Note_on_c, 1, 62, 39
3, 102419, Note_on_c, 1, 62, 0
3, 102480, Note_on_c, 1, 55, 34
3, 102539, Note_on_c, 1, 55, 0
3, 106560, Note_on_c, 1, 57, 36
3, 106799, Note_on_c, 1, 57, 0
3, 106920, Note_on_c, 1, 57, 27
3, 107039, Note_on_c, 1, 57, 0
3, 107040, Note_on_c, 1, 50, 29
3, 107279, Note_on_c, 1, 50, 0
3, 107400, Note_on_c, 1, 55, 33
3, 107519, Note_on_c, 1, 55, 0
3, 107520, Note_on_c, 1, 60, 32
3, 107579, Note_on_c, 1, 60, 0
3, 107580, Note_on_c, 1, 56, 34
3, 107639, Note_on_c, 1, 56, 0
3, 107640, Note_on_c, 1, 57, 37
3, 107699, Note_on_c, 1, 57, 0
3, 107700, Note_on_c, 1, 52, 39
3, 107759, Note_on_c, 1, 52, 0
3, 107760, Note_on_c, 1, 53, 42
3, 107879, Note_on_c, 1, 53, 0
3, 108000, Note_on_c, 1, 55, 33
3, 108000, Note_on_c, 1, 64, 33
3, 108239, Note_on_c, 1, 64, 0
3, 108240, Note_on_c, 1, 62, 28
3, 108329, Note_on_c, 1, 62, 0
3, 108329, Note_on_c, 1, 55, 0
3, 108480, Note_on_c, 1, 60, 33
3, 108480, Note_on_c, 1, 48, 33
3, 108959, Note_on_c, 1, 48, 0
3, 108959, Note_on_c, 1, 60, 0
3, 108960, Note_on_c, 1, 55, 43
3, 108960, Note_on_c, 1, 43, 43
3, 109439, Note_on_c, 1, 43, 0
3, 109439, Note_on_c, 1, 55, 0
3, 109440, Note_on_c, 1, 45, 33
3, 109440, Note_on_c, 1, 57, 43
3, 109479, Note_on_c, 1, 57, 0
3, 109479, Note_on_c, 1, 45, 0
3, 109560, Note_on_c, 1, 62, 42
3, 109560, Note_on_c, 1, 53, 32
3, 109599, Note_on_c, 1, 53, 0
3, 109599, Note_on_c, 1, 62, 0
3, 109680, Note_on_c, 1, 55, 30
3, 109680, Note_on_c, 1, 64, 40
3, 109680, Note_on_c, 1, 62, 30
3, 109719, Note_on_c, 1, 62, 0
3, 109719, Note_on_c, 1, 64, 0
3, 109719, Note_on_c, 1, 55, 0
3, 109800, Note_on_c, 1, 55, 29
3, 109800, Note_on_c, 1, 59, 39
3, 109839, Note_on_c, 1, 59, 0
3, 109839, Note_on_c, 1, 55, 0
3, 109920, Note_on_c, 1, 60, 38
3, 109959, Note_on_c, 1, 60, 0
3, 110040, Note_on_c, 1, 55, 32
3, 110079, Note_on_c, 1, 55, 0
3, 110160, Note_on_c, 1, 48, 25
3, 110199, Note_on_c, 1, 48, 0
3, 110400, Note_on_c, 1, 48, 43
3, 110400, Note_on_c, 1, 60, 43
3, 110879, Note_on_c, 1, 60, 0
3, 110879, Note_on_c, 1, 48, 0
3, 110880, Note_on_c, 1, 43, 43
3, 110880, Note_on_c, 1, 55, 43
3, 111359, Note_on_c, 1, 55, 0
3, 111359, Note_on_c, 1, 43, 0
3, 111360, Note_on_c, 1, 45, 33
3, 111360, Note_on_c, 1, 57, 33
3, 111419, Note_on_c, 1, 57, 0
3, 111419, Note_on_c, 1, 45, 0
3, 111480, Note_on_c, 1, 62, 43
3, 111480, Note_on_c, 1, 53, 33
3, 111539, Note_on_c, 1, 53, 0
3, 111539, Note_on_c, 1, 62, 0
3, 111600, Note_on_c, 1, 64, 43
3, 111600, Note_on_c, 1, 55, 33
3, 111659, Note_on_c, 1, 55, 0
3, 111659, Note_on_c, 1, 64, 0
3, 111720, Note_on_c, 1, 65, 43
3, 111720, Note_on_c, 1, 55, 33
3, 111779, Note_on_c, 1, 55, 0
3, 111779, Note_on_c, 1, 65, 0
3, 111840, Note_on_c, 1, 65, 33
3, 111840, Note_on_c, 1, 60, 33
3, 112079, Note_on_c, 1, 65, 0
3, 112080, Note_on_c, 1, 64, 23
3, 112129, Note_on_c, 1, 60, 0
3, 112139, Note_on_c, 1, 64, 0
3, 114240, Note_on_c, 1, 51, 37
3, 114269, Note_on_c, 1, 51, 0
3, 114270, Note_on_c, 1, 60, 37
3, 114299, Note_on_c, 1, 60, 0
3, 114300, Note_on_c, 1, 56, 37
3, 114329, Note_on_c, 1, 56, 0
3, 114330, Note_on_c, 1, 60, 37
3, 114359, Note_on_c, 1, 60, 0
3, 114360, Note_on_c, 1, 51, 38
3, 114389, Note_on_c, 1, 51, 0
3, 114390, Note_on_c, 1, 60, 38
3, 114419, Note_on_c, 1, 60, 0
3, 114420, Note_on_c, 1, 56, 38
3, 114449, Note_on_c, 1, 56, 0
3, 114450, Note_on_c, 1, 60, 39
3, 114479, Note_on_c, 1, 60, 0
3, 114480, Note_on_c, 1, 51, 39
3, 114509, Note_on_c, 1, 51, 0
3, 114510, Note_on_c, 1, 62, 39
3, 114539, Note_on_c, 1, 62, 0
3, 114540, Note_on_c, 1, 56, 40
3, 114569, Note_on_c, 1, 56, 0
3, 114570, Note_on_c, 1, 62, 40
3, 114599, Note_on_c, 1, 62, 0
3, 114600, Note_on_c, 1, 51, 40
3, 114629, Note_on_c, 1, 51, 0
3, 114630, Note_on_c, 1, 62, 41
3, 114659, Note_on_c, 1, 62, 0
3, 114660, Note_on_c, 1, 56, 41
3, 114689, Note_on_c, 1, 56, 0
3, 114690, Note_on_c, 1, 62, 41
3, 114719, Note_on_c, 1, 62, 0
3, 114720, Note_on_c, 1, 51, 42
3, 114749, Note_on_c, 1, 51, 0
3, 114750, Note_on_c, 1, 63, 42
3, 114779, Note_on_c, 1, 63, 0
3, 114780, Note_on_c, 1, 60, 42
3, 114809, Note_on_c, 1, 60, 0
3, 114810, Note_on_c, 1, 63, 42
3, 114839, Note_on_c, 1, 63, 0
3, 114840, Note_on_c, 1, 51, 43
3, 114869, Note_on_c, 1, 51, 0
3, 114870, Note_on_c, 1, 63, 43
3, 114899, Note_on_c, 1, 63, 0
3, 114900, Note_on_c, 1, 60, 43
3, 114929, Note_on_c, 1, 60, 0
3, 114930, Note_on_c, 1, 63, 44
3, 114959, Note_on_c, 1, 63, 0
3, 114960, Note_on_c, 1, 51, 44
3, 114989, Note_on_c, 1, 51, 0
3, 114990, Note_on_c, 1, 61, 44
3, 115019, Note_on_c, 1, 61, 0
3, 115020, Note_on_c, 1, 58, 45
3, 115049, Note_on_c, 1, 58, 0
3, 115050, Note_on_c, 1, 61, 45
3, 115079, Note_on_c, 1, 61, 0
3, 115080, Note_on_c, 1, 51, 45
3, 115109, Note_on_c, 1, 51, 0
3, 115110, Note_on_c, 1, 61, 46
3, 115139, Note_on_c, 1, 61, 0
3, 115140, Note_on_c, 1, 58, 46
3, 115169, Note_on_c, 1, 58, 0
3, 115170, Note_on_c, 1, 61, 46
3, 115199, Note_on_c, 1, 61, 0
3, 115200, Note_on_c, 1, 50, 47
3, 115200, Note_on_c, 1, 58, 57
3, 115200, Note_on_c, 1, 55, 47
3, 115259, Note_on_c, 1, 55, 0
3, 115259, Note_on_c, 1, 58, 0
3, 115259, Note_on_c, 1, 50, 0
3, 115440, Note_on_c, 1, 54, 43
3, 115440, Note_on_c, 1, 50, 43
3, 115440, Note_on_c, 1, 57, 53
3, 115499, Note_on_c, 1, 57, 0
3, 115499, Note_on_c, 1, 50, 0
3, 115499, Note_on_c, 1, 54, 0
3, 115710, Note_on_c, 1, 31, 44
3, 115739, Note_on_c, 1, 31, 0
3, 115740, Note_on_c, 1, 34, 47
3, 115769, Note_on_c, 1, 34, 0
3, 115770, Note_on_c, 1, 38, 51
3, 115799, Note_on_c, 1, 38, 0
3, 115800, Note_on_c, 1, 43, 55
3, 115829, Note_on_c, 1, 43, 0
3, 115830, Note_on_c, 1, 46, 58
3, 115859, Note_on_c, 1, 46, 0
3, 115860, Note_on_c, 1, 50, 62
3, 115889, Note_on_c, 1, 50, 0
3, 115890, Note_on_c, 1, 55, 66
3, 115919, Note_on_c, 1, 55, 0
3, 115920, Note_on_c, 1, 43, 53
3, 116019, Note_on_c, 1, 43, 0
3, 118080, Note_on_c, 1, 56, 44
3, 118109, Note_on_c, 1, 56, 0
3, 118110, Note_on_c, 1, 65, 44
3, 118139, Note_on_c, 1, 65, 0
3, 118140, Note_on_c, 1, 61, 45
3, 118169, Note_on_c, 1, 61, 0
3, 118170, Note_on_c, 1, 65, 46
3, 118199, Note_on_c, 1, 65, 0
3, 118200, Note_on_c, 1, 56, 46
3, 118229, Note_on_c, 1, 56, 0
3, 118230, Note_on_c, 1, 65, 47
3, 118259, Note_on_c, 1, 65, 0
3, 118260, Note_on_c, 1, 61, 48
3, 118289, Note_on_c, 1, 61, 0
3, 118290, Note_on_c, 1, 65, 48
3, 118319, Note_on_c, 1, 65, 0
3, 118320, Note_on_c, 1, 56, 49
3, 118349, Note_on_c, 1, 56, 0
3, 118350, Note_on_c, 1, 67, 50
3, 118379, Note_on_c, 1, 67, 0
3, 118380, Note_on_c, 1, 63, 51
3, 118409, Note_on_c, 1, 63, 0
3, 118410, Note_on_c, 1, 67, 51
3, 118439, Note_on_c, 1, 67, 0
3, 118440, Note_on_c, 1, 56, 52
3, 118469, Note_on_c, 1, 56, 0
3, 118470, Note_on_c, 1, 67, 53
3, 118499, Note_on_c, 1, 67, 0
3, 118500, Note_on_c, 1, 63, 53
3, 118529, Note_on_c, 1, 63, 0
3, 118530, Note_on_c, 1, 67, 54
3, 118559, Note_on_c, 1, 67, 0
3, 118560, Note_on_c, 1, 56, 55
3, 118589, Note_on_c, 1, 56, 0
3, 118590, Note_on_c, 1, 68, 56
3, 118619, Note_on_c, 1, 68, 0
3, 118620, Note_on_c, 1, 65, 56
3, 118649, Note_on_c, 1, 65, 0
3, 118650, Note_on_c, 1, 68, 57
3, 118679, Note_on_c, 1, 68, 0
3, 118680, Note_on_c, 1, 56, 58
3, 118709, Note_on_c, 1, 56, 0
3, 118710, Note_on_c, 1, 68, 58
3, 118739, Note_on_c, 1, 68, 0
3, 118740, Note_on_c, 1, 65, 59
3, 118769, Note_on_c, 1, 65, 0
3, 118770, Note_on_c, 1, 68, 60
3, 118799, Note_on_c, 1, 68, 0
3, 118800, Note_on_c, 1, 56, 61
3, 118829, Note_on_c, 1, 56, 0
3, 118830, Note_on_c, 1, 66, 61
3, 118859, Note_on_c, 1, 66, 0
3, 118860, Note_on_c, 1, 63, 62
3, 118889, Note_on_c, 1, 63, 0
3, 118890, Note_on_c, 1, 66, 63
3, 118919, Note_on_c, 1, 66, 0
3, 118920, Note_on_c, 1, 56, 63
3, 118949, Note_on_c, 1, 56, 0
3, 118950, Note_on_c, 1, 66, 64
3, 118979, Note_on_c, 1, 66, 0
3, 118980, Note_on_c, 1, 63, 65
3, 119009, Note_on_c, 1, 63, 0
3, 119010, Note_on_c, 1, 66, 66
3, 119039, Note_on_c, 1, 66, 0
3, 119040, Note_on_c, 1, 55, 53
3, 119099, Note_on_c, 1, 55, 0
3, 119280, Note_on_c, 1, 43, 53
3, 119339, Note_on_c, 1, 43, 0
3, 119520, Note_on_c, 1, 36, 35
3, 119520, Note_on_c, 1, 48, 35
3, 119999, Note_on_c, 1, 48, 0
3, 119999, Note_on_c, 1, 36, 0
3, 120000, Note_on_c, 1, 34, 45
3, 120000, Note_on_c, 1, 46, 45
3, 120479, Note_on_c, 1, 46, 0
3, 120479, Note_on_c, 1, 34, 0
3, 120480, Note_on_c, 1, 33, 55
3, 120480, Note_on_c, 1, 45, 55
3, 120959, Note_on_c, 1, 45, 0
3, 120959, Note_on_c, 1, 33, 0
3, 120960, Note_on_c, 1, 44, 65
3, 120960, Note_on_c, 1, 32, 65
3, 121439, Note_on_c, 1, 32, 0
3, 121439, Note_on_c, 1, 44, 0
3, 121440, Note_on_c, 1, 43, 53
3, 121440, Note_on_c, 1, 31, 53
3, 121559, Note_on_c, 1, 31, 0
3, 121559, Note_on_c, 1, 43, 0
3, 121860, Note_on_c, 1, 56, 55
3, 121889, Note_on_c, 1, 56, 0
3, 121890, Note_on_c, 1, 68, 55
3, 121919, Note_on_c, 1, 68, 0
3, 121920, Note_on_c, 1, 55, 55
3, 121949, Note_on_c, 1, 55, 0
3, 121950, Note_on_c, 1, 67, 55
3, 121979, Note_on_c, 1, 67, 0
3, 121980, Note_on_c, 1, 56, 55
3, 122009, Note_on_c, 1, 56, 0
3, 122010, Note_on_c, 1, 68, 55
3, 122039, Note_on_c, 1, 68, 0
3, 122040, Note_on_c, 1, 55, 55
3, 122069, Note_on_c, 1, 55, 0
3, 122070, Note_on_c, 1, 67, 55
3, 122099, Note_on_c, 1, 67, 0
3, 122100, Note_on_c, 1, 54, 55
3, 122129, Note_on_c, 1, 54, 0
3, 122130, Note_on_c, 1, 66, 55
3, 122159, Note_on_c, 1, 66, 0
3, 122160, Note_on_c, 1, 53, 55
3, 122189, Note_on_c, 1, 53, 0
3, 122190, Note_on_c, 1, 65, 55
3, 122219, Note_on_c, 1, 65, 0
3, 122220, Note_on_c, 1, 52, 55
3, 122249, Note_on_c, 1, 52, 0
3, 122250, Note_on_c, 1, 64, 55
3, 122279, Note_on_c, 1, 64, 0
3, 122280, Note_on_c, 1, 53, 55
3, 122309, Note_on_c, 1, 53, 0
3, 122310, Note_on_c, 1, 65, 55
3, 122339, Note_on_c, 1, 65, 0
3, 122340, Note_on_c, 1, 55, 43
3, 122369, Note_on_c, 1, 55, 0
3, 122370, Note_on_c, 1, 67, 43
3, 122399, Note_on_c, 1, 67, 0
3, 122400, Note_on_c, 1, 53, 43
3, 122429, Note_on_c, 1, 53, 0
3, 122430, Note_on_c, 1, 65, 43
3, 122459, Note_on_c, 1, 65, 0
3, 122460, Note_on_c, 1, 55, 43
3, 122489, Note_on_c, 1, 55, 0
3, 122490, Note_on_c, 1, 67, 43
3, 122519, Note_on_c, 1, 67, 0
3, 122520, Note_on_c, 1, 53, 43
3, 122549, Note_on_c, 1, 53, 0
3, 122550, Note_on_c, 1, 65, 43
3, 122579, Note_on_c, 1, 65, 0
3, 122580, Note_on_c, 1, 53, 43
3, 122609, Note_on_c, 1, 53, 0
3, 122610, Note_on_c, 1, 65, 43
3, 122639, Note_on_c, 1, 65, 0
3, 122640, Note_on_c, 1, 51, 43
3, 122669, Note_on_c, 1, 51, 0
3, 122670, Note_on_c, 1, 63, 43
3, 122699, Note_on_c, 1, 63, 0
3, 122700, Note_on_c, 1, 50, 43
3, 122729, Note_on_c, 1, 50, 0
3, 122730, Note_on_c, 1, 62, 43
3, 122759, Note_on_c, 1, 62, 0
3, 122760, Note_on_c, 1, 51, 43
3, 122789, Note_on_c, 1, 51, 0
3, 122790, Note_on_c, 1, 63, 43
3, 122819, Note_on_c, 1, 63, 0
3, 122820, Note_on_c, 1, 53, 35
3, 122849, Note_on_c, 1, 53, 0
3, 122850, Note_on_c, 1, 65, 36
3, 122879, Note_on_c, 1, 65, 0
3, 122880, Note_on_c, 1, 51, 38
3, 122909, Note_on_c, 1, 51, 0
3, 122910, Note_on_c, 1, 63, 40
3, 122939, Note_on_c, 1, 63, 0
3, 122940, Note_on_c, 1, 53, 42
3, 122969, Note_on_c, 1, 53, 0
3, 122970, Note_on_c, 1, 65, 44
3, 122999, Note_on_c, 1, 65, 0
3, 123000, Note_on_c, 1, 51, 46
3, 123029, Note_on_c, 1, 51, 0
3, 123030, Note_on_c, 1, 63, 47
3, 123059, Note_on_c, 1, 63, 0
3, 123060, Note_on_c, 1, 53, 49
3, 123089, Note_on_c, 1, 53, 0
3, 123090, Note_on_c, 1, 65, 51
3, 123119, Note_on_c, 1, 65, 0
3, 123120, Note_on_c, 1, 51, 53
3, 123149, Note_on_c, 1, 51, 0
3, 123150, Note_on_c, 1, 63, 54
3, 123179, Note_on_c, 1, 63, 0
3, 123180, Note_on_c, 1, 50, 53
3, 123209, Note_on_c, 1, 50, 0
3, 123210, Note_on_c, 1, 62, 57
3, 123239, Note_on_c, 1, 62, 0
3, 123240, Note_on_c, 1, 48, 60
3, 123269, Note_on_c, 1, 48, 0
3, 123270, Note_on_c, 1, 60, 62
3, 123299, Note_on_c, 1, 60, 0
3, 123300, Note_on_c, 1, 44, 64
3, 123329, Note_on_c, 1, 44, 0
3, 123330, Note_on_c, 1, 56, 65
3, 123359, Note_on_c, 1, 56, 0
3, 123360, Note_on_c, 1, 55, 56
3, 123360, Note_on_c, 1, 43, 66
3, 123439, Note_on_c, 1, 43, 0
3, 123439, Note_on_c, 1, 55, 0
3, 124980, Note_on_c, 1, 48, 35
3, 124999, Note_on_c, 1, 48, 0
3, 125040, Note_on_c, 1, 48, 37
3, 125059, Note_on_c, 1, 48, 0
3, 125100, Note_on_c, 1, 48, 39
3, 125119, Note_on_c, 1, 48, 0
3, 125160, Note_on_c, 1, 50, 41
3, 125179, Note_on_c, 1, 50, 0
3, 125220, Note_on_c, 1, 51, 43
3, 125239, Note_on_c, 1, 51, 0
3, 125280, Note_on_c, 1, 53, 35
3, 125429, Note_on_c, 1, 53, 0
3, 125460, Note_on_c, 1, 50, 37
3, 125479, Note_on_c, 1, 50, 0
3, 125520, Note_on_c, 1, 50, 39
3, 125539, Note_on_c, 1, 50, 0
3, 125580, Note_on_c, 1, 51, 41
3, 125599, Note_on_c, 1, 51, 0
3, 125640, Note_on_c, 1, 53, 44
3, 125659, Note_on_c, 1, 53, 0
3, 125700, Note_on_c, 1, 55, 46
3, 125729, Note_on_c, 1, 55, 0
3, 125760, Note_on_c, 1, 60, 39
3, 125760, Note_on_c, 1, 48, 39
3, 125789, Note_on_c, 1, 60, 0
3, 125820, Note_on_c, 1, 61, 53
3, 125879, Note_on_c, 1, 61, 0
3, 125880, Note_on_c, 1, 60, 43
3, 125909, Note_on_c, 1, 48, 0
3, 125940, Note_on_c, 1, 48, 42
3, 125959, Note_on_c, 1, 48, 0
3, 126000, Note_on_c, 1, 50, 45
3, 126019, Note_on_c, 1, 50, 0
3, 126060, Note_on_c, 1, 52, 48
3, 126079, Note_on_c, 1, 52, 0
3, 126120, Note_on_c, 1, 53, 47
3, 126139, Note_on_c, 1, 53, 0
3, 126180, Note_on_c, 1, 55, 44
3, 126199, Note_on_c, 1, 55, 0
3, 126239, Note_on_c, 1, 60, 0
3, 126240, Note_on_c, 1, 53, 49
3, 126300, Note_on_c, 1, 66, 53
3, 126359, Note_on_c, 1, 66, 0
3, 126360, Note_on_c, 1, 65, 43
3, 126389, Note_on_c, 1, 53, 0
3, 126420, Note_on_c, 1, 53, 42
3, 126439, Note_on_c, 1, 53, 0
3, 126480, Note_on_c, 1, 55, 45
3, 126499, Note_on_c, 1, 55, 0
3, 126540, Note_on_c, 1, 57, 48
3, 126559, Note_on_c, 1, 57, 0
3, 126600, Note_on_c, 1, 58, 44
3, 126619, Note_on_c, 1, 58, 0
3, 126660, Note_on_c, 1, 60, 40
3, 126679, Note_on_c, 1, 60, 0
3, 126719, Note_on_c, 1, 65, 0
3, 126720, Note_on_c, 1, 58, 44
3, 126720, Note_on_c, 1, 46, 49
3, 126749, Note_on_c, 1, 58, 0
3, 126780, Note_on_c, 1, 59, 63
3, 126839, Note_on_c, 1, 59, 0
3, 126840, Note_on_c, 1, 58, 53
3, 126869, Note_on_c, 1, 46, 0
3, 126900, Note_on_c, 1, 46, 42
3, 126919, Note_on_c, 1, 46, 0
3, 126960, Note_on_c, 1, 48, 45
3, 126979, Note_on_c, 1, 48, 0
3, 127020, Note_on_c, 1, 50, 48
3, 127039, Note_on_c, 1, 50, 0
3, 127080, Note_on_c, 1, 51, 45
3, 127099, Note_on_c, 1, 51, 0
3, 127140, Note_on_c, 1, 53, 40
3, 127159, Note_on_c, 1, 53, 0
3, 127199, Note_on_c, 1, 58, 0
3, 127200, Note_on_c, 1, 51, 48
3, 127260, Note_on_c, 1, 39, 43
3, 127289, Note_on_c, 1, 39, 0
3, 127320, Note_on_c, 1, 41, 41
3, 127349, Note_on_c, 1, 41, 0
3, 127349, Note_on_c, 1, 51, 0
3, 127380, Note_on_c, 1, 43, 39
3, 127409, Note_on_c, 1, 43, 0
3, 127440, Note_on_c, 1, 44, 38
3, 127469, Note_on_c, 1, 44, 0
3, 127500, Note_on_c, 1, 42, 36
3, 127529, Note_on_c, 1, 42, 0
3, 127560, Note_on_c, 1, 41, 35
3, 127589, Note_on_c, 1, 41, 0
3, 127620, Note_on_c, 1, 39, 33
3, 127649, Note_on_c, 1, 39, 0
3, 127680, Note_on_c, 1, 38, 44
3, 127720, Note_on_c, 1, 46, 34
3, 127759, Note_on_c, 1, 46, 0
3, 127760, Note_on_c, 1, 47, 35
3, 127779, Note_on_c, 1, 38, 0
3, 127789, Note_on_c, 1, 47, 0
3, 127800, Note_on_c, 1, 41, 36
3, 127839, Note_on_c, 1, 41, 0
3, 127840, Note_on_c, 1, 49, 37
3, 127879, Note_on_c, 1, 49, 0
3, 127880, Note_on_c, 1, 50, 37
3, 127909, Note_on_c, 1, 50, 0
3, 127920, Note_on_c, 1, 44, 38
3, 127959, Note_on_c, 1, 44, 0
3, 127960, Note_on_c, 1, 52, 39
3, 127999, Note_on_c, 1, 52, 0
3, 128000, Note_on_c, 1, 53, 40
3, 128029, Note_on_c, 1, 53, 0
3, 128040, Note_on_c, 1, 47, 40
3, 128079, Note_on_c, 1, 47, 0
3, 128080, Note_on_c, 1, 55, 41
3, 128119, Note_on_c, 1, 55, 0
3, 128120, Note_on_c, 1, 56, 42
3, 128149, Note_on_c, 1, 56, 0
3, 128160, Note_on_c, 1, 59, 43
3, 128160, Note_on_c, 1, 50, 33
3, 128639, Note_on_c, 1, 50, 0
3, 128639, Note_on_c, 1, 59, 0
3, 128640, Note_on_c, 1, 36, 44
3, 128680, Note_on_c, 1, 43, 34
3, 128719, Note_on_c, 1, 43, 0
3, 128720, Note_on_c, 1, 44, 35
3, 128739, Note_on_c, 1, 36, 0
3, 128749, Note_on_c, 1, 44, 0
3, 128760, Note_on_c, 1, 41, 36
3, 128799, Note_on_c, 1, 41, 0
3, 128800, Note_on_c, 1, 47, 37
3, 128839, Note_on_c, 1, 47, 0
3, 128840, Note_on_c, 1, 48, 37
3, 128869, Note_on_c, 1, 48, 0
3, 128880, Note_on_c, 1, 44, 38
3, 128919, Note_on_c, 1, 44, 0
3, 128920, Note_on_c, 1, 52, 39
3, 128959, Note_on_c, 1, 52, 0
3, 128960, Note_on_c, 1, 53, 40
3, 128989, Note_on_c, 1, 53, 0
3, 129000, Note_on_c, 1, 48, 40
3, 129039, Note_on_c, 1, 48, 0
3, 129040, Note_on_c, 1, 55, 41
3, 129079, Note_on_c, 1, 55, 0
3, 129080, Note_on_c, 1, 56, 42
3, 129109, Note_on_c, 1, 56, 0
3, 129120, Note_on_c, 1, 60, 43
3, 129120, Note_on_c, 1, 53, 33
3, 129599, Note_on_c, 1, 53, 0
3, 129599, Note_on_c, 1, 60, 0
3, 129600, Note_on_c, 1, 35, 53
3, 129640, Note_on_c, 1, 43, 44
3, 129679, Note_on_c, 1, 43, 0
3, 129679, Note_on_c, 1, 35, 0
3, 129680, Note_on_c, 1, 44, 44
3, 129709, Note_on_c, 1, 44, 0
3, 129720, Note_on_c, 1, 38, 45
3, 129760, Note_on_c, 1, 46, 45
3, 129799, Note_on_c, 1, 46, 0
3, 129799, Note_on_c, 1, 38, 0
3, 129800, Note_on_c, 1, 47, 46
3, 129829, Note_on_c, 1, 47, 0
3, 129840, Note_on_c, 1, 41, 48
3, 129880, Note_on_c, 1, 49, 48
3, 129919, Note_on_c, 1, 49, 0
3, 129919, Note_on_c, 1, 41, 0
3, 129920, Note_on_c, 1, 50, 48
3, 129949, Note_on_c, 1, 50, 0
3, 129960, Note_on_c, 1, 44, 49
3, 130000, Note_on_c, 1, 52, 49
3, 130039, Note_on_c, 1, 52, 0
3, 130039, Note_on_c, 1, 44, 0
3, 130040, Note_on_c, 1, 53, 50
3, 130069, Note_on_c, 1, 53, 0
3, 130080, Note_on_c, 1, 47, 51
3, 130120, Note_on_c, 1, 55, 52
3, 130159, Note_on_c, 1, 55, 0
3, 130159, Note_on_c, 1, 47, 0
3, 130160, Note_on_c, 1, 56, 52
3, 130189, Note_on_c, 1, 56, 0
3, 130200, Note_on_c, 1, 50, 52
3, 130240, Note_on_c, 1, 58, 53
3, 130279, Note_on_c, 1, 58, 0
3, 130279, Note_on_c, 1, 50, 0
3, 130280, Note_on_c, 1, 59, 49
3, 130309, Note_on_c, 1, 59, 0
3, 130320, Note_on_c, 1, 53, 49
3, 130360, Note_on_c, 1, 61, 47
3, 130399, Note_on_c, 1, 61, 0
3, 130399, Note_on_c, 1, 53, 0
3, 130400, Note_on_c, 1, 62, 47
3, 130429, Note_on_c, 1, 62, 0
3, 130440, Note_on_c, 1, 56, 46
3, 130480, Note_on_c, 1, 64, 45
3, 130519, Note_on_c, 1, 64, 0
3, 130519, Note_on_c, 1, 56, 0
3, 130520, Note_on_c, 1, 65, 44
3, 130549, Note_on_c, 1, 65, 0
3, 130560, Note_on_c, 1, 59, 43
3, 130600, Note_on_c, 1, 67, 42
3, 130639, Note_on_c, 1, 67, 0
3, 130640, Note_on_c, 1, 68, 42
3, 130669, Note_on_c, 1, 68, 0
3, 130669, Note_on_c, 1, 59, 0
3, 130680, Note_on_c, 1, 60, 40
3, 130720, Note_on_c, 1, 67, 40
3, 130759, Note_on_c, 1, 67, 0
3, 130760, Note_on_c, 1, 68, 39
3, 130789, Note_on_c, 1, 68, 0
3, 130789, Note_on_c, 1, 60, 0
3, 130800, Note_on_c, 1, 61, 39
3, 130840, Note_on_c, 1, 67, 37
3, 130879, Note_on_c, 1, 67, 0
3, 130880, Note_on_c, 1, 68, 37
3, 130909, Note_on_c, 1, 68, 0
3, 130909, Note_on_c, 1, 61, 0
3, 130920, Note_on_c, 1, 62, 36
3, 130960, Note_on_c, 1, 67, 36
3, 130999, Note_on_c, 1, 67, 0
3, 131000, Note_on_c, 1, 68, 34
3, 131029, Note_on_c, 1, 68, 0
3, 131029, Note_on_c, 1, 62, 0
3, 131040, Note_on_c, 1, 64, 34
3, 131080, Note_on_c, 1, 67, 33
3, 131119, Note_on_c, 1, 67, 0
3, 131120, Note_on_c, 1, 68, 33
3, 131149, Note_on_c, 1, 68, 0
3, 131149, Note_on_c, 1, 64, 0
3, 131160, Note_on_c, 1, 65, 31
3, 131200, Note_on_c, 1, 67, 31
3, 131239, Note_on_c, 1, 67, 0
3, 131240, Note_on_c, 1, 68, 34
3, 131269, Note_on_c, 1, 68, 0
3, 131269, Note_on_c, 1, 65, 0
3, 131280, Note_on_c, 1, 66, 37
3, 131320, Note_on_c, 1, 67, 43
3, 131359, Note_on_c, 1, 67, 0
3, 131360, Note_on_c, 1, 68, 48
3, 131379, Note_on_c, 1, 68, 0
3, 131389, Note_on_c, 1, 66, 0
3, 131400, Note_on_c, 1, 68, 56
3, 131429, Note_on_c, 1, 68, 0
3, 131440, Note_on_c, 1, 66, 49
3, 131479, Note_on_c, 1, 66, 0
3, 131480, Note_on_c, 1, 67, 54
3, 131509, Note_on_c, 1, 67, 0
3, 131520, Note_on_c, 1, 67, 43
3, 131520, Note_on_c, 1, 60, 43
3, 131699, Note_on_c, 1, 60, 0
3, 131699, Note_on_c, 1, 67, 0
3, 131700, Note_on_c, 1, 65, 39
3, 131700, Note_on_c, 1, 68, 39
3, 131879, Note_on_c, 1, 68, 0
3, 131879, Note_on_c, 1, 65, 0
3, 131880, Note_on_c, 1, 64, 36
3, 131880, Note_on_c, 1, 67, 36
3, 132059, Note_on_c, 1, 64, 0
3, 132060, Note_on_c, 1, 63, 33
3, 132119, Note_on_c, 1, 63, 0
3, 132119, Note_on_c, 1, 67, 0
3, 132240, Note_on_c, 1, 72, 43
3, 132240, Note_on_c, 1, 68, 43
3, 132599, Note_on_c, 1, 68, 0
3, 132600, Note_on_c, 1, 67, 43
3, 132779, Note_on_c, 1, 72, 0
3, 132780, Note_on_c, 1, 71, 33
3, 132839, Note_on_c, 1, 71, 0
3, 132839, Note_on_c, 1, 67, 0
3, 132960, Note_on_c, 1, 56, 33
3, 132960, Note_on_c, 1, 51, 33
3, 132960, Note_on_c, 1, 60, 43
3, 133139, Note_on_c, 1, 60, 0
3, 133139, Note_on_c, 1, 56, 0
3, 133140, Note_on_c, 1, 61, 43
3, 133140, Note_on_c, 1, 58, 33
3, 133319, Note_on_c, 1, 58, 0
3, 133319, Note_on_c, 1, 61, 0
3, 133319, Note_on_c, 1, 51, 0
3, 133320, Note_on_c, 1, 56, 33
3, 133320, Note_on_c, 1, 51, 33
3, 133320, Note_on_c, 1, 60, 43
3, 133499, Note_on_c, 1, 60, 0
3, 133499, Note_on_c, 1, 56, 0
3, 133500, Note_on_c, 1, 61, 43
3, 133500, Note_on_c, 1, 58, 33
3, 133659, Note_on_c, 1, 58, 0
3, 133659, Note_on_c, 1, 61, 0
3, 133679, Note_on_c, 1, 51, 0
3, 133680, Note_on_c, 1, 58, 53
3, 133680, Note_on_c, 1, 50, 53
3, 133680, Note_on_c, 1, 62, 43
3, 133980, Note_on_c, 1, 60, 43
3, 133980, Note_on_c, 1, 54, 33
3, 134039, Note_on_c, 1, 54, 0
3, 134039, Note_on_c, 1, 62, 0
3, 134039, Note_on_c, 1, 58, 0
3, 134039, Note_on_c, 1, 50, 0
3, 134039, Note_on_c, 1, 60, 0
3, 134040, Note_on_c, 1, 58, 43
3, 134040, Note_on_c, 1, 55, 33
3, 134159, Note_on_c, 1, 55, 0
3, 134159, Note_on_c, 1, 58, 0
3, 134400, Note_on_c, 1, 59, 43
3, 134400, Note_on_c, 1, 67, 33
3, 134579, Note_on_c, 1, 59, 0
3, 134580, Note_on_c, 1, 60, 43
3, 134759, Note_on_c, 1, 60, 0
3, 134759, Note_on_c, 1, 67, 0
3, 134760, Note_on_c, 1, 71, 53
3, 134760, Note_on_c, 1, 65, 33
3, 134760, Note_on_c, 1, 68, 33
3, 135119, Note_on_c, 1, 68, 0
3, 135119, Note_on_c, 1, 65, 0
3, 135119, Note_on_c, 1, 71, 0
3, 135120, Note_on_c, 1, 72, 53
3, 135120, Note_on_c, 1, 63, 43
3, 135299, Note_on_c, 1, 63, 0
3, 135300, Note_on_c, 1, 62, 43
3, 135419, Note_on_c, 1, 72, 0
3, 135420, Note_on_c, 1, 71, 53
3, 135479, Note_on_c, 1, 71, 0
3, 135479, Note_on_c, 1, 62, 0
3, 135480, Note_on_c, 1, 72, 43
3, 135480, Note_on_c, 1, 60, 33
3, 135659, Note_on_c, 1, 72, 0
3, 135660, Note_on_c, 1, 67, 43
3, 135779, Note_on_c, 1, 67, 0
3, 135779, Note_on_c, 1, 60, 0
3, 135840, Note_on_c, 1, 56, 33
3, 135840, Note_on_c, 1, 61, 33
3, 135840, Note_on_c, 1, 65, 43
3, 136019, Note_on_c, 1, 65, 0
3, 136019, Note_on_c, 1, 61, 0
3, 136020, Note_on_c, 1, 63, 33
3, 136020, Note_on_c, 1, 66, 43
3, 136199, Note_on_c, 1, 66, 0
3, 136199, Note_on_c, 1, 63, 0
3, 136199, Note_on_c, 1, 56, 0
3, 136200, Note_on_c, 1, 61, 33
3, 136200, Note_on_c, 1, 56, 33
3, 136200, Note_on_c, 1, 65, 43
3, 136379, Note_on_c, 1, 65, 0
3, 136379, Note_on_c, 1, 61, 0
3, 136380, Note_on_c, 1, 66, 43
3, 136380, Note_on_c, 1, 63, 33
3, 136539, Note_on_c, 1, 63, 0
3, 136539, Note_on_c, 1, 66, 0
3, 136559, Note_on_c, 1, 56, 0
3, 136560, Note_on_c, 1, 67, 43
3, 136560, Note_on_c, 1, 55, 43
3, 136560, Note_on_c, 1, 63, 63
3, 136859, Note_on_c, 1, 63, 0
3, 136859, Note_on_c, 1, 67, 0
3, 136860, Note_on_c, 1, 59, 43
3, 136860, Note_on_c, 1, 65, 53
3, 136919, Note_on_c, 1, 65, 0
3, 136919, Note_on_c, 1, 59, 0
3, 136919, Note_on_c, 1, 55, 0
3, 136920, Note_on_c, 1, 63, 43
3, 136920, Note_on_c, 1, 60, 33
3, 137099, Note_on_c, 1, 60, 0
3, 137099, Note_on_c, 1, 63, 0
3, 137280, Note_on_c, 1, 56, 43
3, 137280, Note_on_c, 1, 61, 43
3, 137280, Note_on_c, 1, 65, 53
3, 137459, Note_on_c, 1, 65, 0
3, 137459, Note_on_c, 1, 61, 0
3, 137460, Note_on_c, 1, 66, 43
3, 137460, Note_on_c, 1, 63, 33
3, 137639, Note_on_c, 1, 63, 0
3, 137639, Note_on_c, 1, 66, 0
3, 137639, Note_on_c, 1, 56, 0
3, 137640, Note_on_c, 1, 61, 43
3, 137640, Note_on_c, 1, 56, 43
3, 137640, Note_on_c, 1, 65, 53
3, 137819, Note_on_c, 1, 65, 0
3, 137819, Note_on_c, 1, 61, 0
3, 137820, Note_on_c, 1, 66, 43
3, 137820, Note_on_c, 1, 63, 33
3, 137999, Note_on_c, 1, 63, 0
3, 137999, Note_on_c, 1, 66, 0
3, 137999, Note_on_c, 1, 56, 0
3, 138000, Note_on_c, 1, 55, 43
3, 138000, Note_on_c, 1, 63, 53
3, 138000, Note_on_c, 1, 67, 43
3, 138299, Note_on_c, 1, 67, 0
3, 138299, Note_on_c, 1, 63, 0
3, 138299, Note_on_c, 1, 55, 0
3, 138300, Note_on_c, 1, 59, 43
3, 138300, Note_on_c, 1, 65, 53
3, 138359, Note_on_c, 1, 65, 0
3, 138359, Note_on_c, 1, 59, 0
3, 138720, Note_on_c, 1, 65, 51
3, 138749, Note_on_c, 1, 65, 0
3, 138750, Control_c, 1, 64, 127
3, 138750, Note_on_c, 1, 68, 51
3, 138779, Note_on_c, 1, 68, 0
3, 138780, Note_on_c, 1, 65, 51
3, 138809, Note_on_c, 1, 65, 0
3, 138810, Note_on_c, 1, 68, 51
3, 138839, Note_on_c, 1, 68, 0
3, 138840, Control_c, 1, 64, 0
3, 138840, Note_on_c, 1, 63, 39
3, 138869, Note_on_c, 1, 63, 0
3, 138870, Note_on_c, 1, 67, 39
3, 138899, Note_on_c, 1, 67, 0
3, 138900, Note_on_c, 1, 65, 51
3, 138929, Note_on_c, 1, 65, 0
3, 138930, Control_c, 1, 64, 127
3, 138930, Note_on_c, 1, 68, 51
3, 138959, Note_on_c, 1, 68, 0
3, 138960, Note_on_c, 1, 65, 51
3, 138989, Note_on_c, 1, 65, 0
3, 138990, Note_on_c, 1, 68, 51
3, 139019, Note_on_c, 1, 68, 0
3, 139020, Control_c, 1, 64, 0
3, 139020, Note_on_c, 1, 63, 39
3, 139049, Note_on_c, 1, 63, 0
3, 139050, Note_on_c, 1, 67, 39
3, 139079, Note_on_c, 1, 67, 0
3, 139080, Note_on_c, 1, 62, 50
3, 139109, Note_on_c, 1, 62, 0
3, 139110, Control_c, 1, 64, 127
3, 139110, Note_on_c, 1, 65, 50
3, 139139, Note_on_c, 1, 65, 0
3, 139140, Note_on_c, 1, 68, 49
3, 139169, Note_on_c, 1, 68, 0
3, 139170, Note_on_c, 1, 65, 49
3, 139199, Note_on_c, 1, 65, 0
3, 139200, Note_on_c, 1, 68, 48
3, 139229, Note_on_c, 1, 68, 0
3, 139230, Note_on_c, 1, 65, 46
3, 139230, Control_c, 1, 64, 0
3, 139259, Note_on_c, 1, 65, 0
3, 139260, Note_on_c, 1, 63, 46
3, 139289, Note_on_c, 1, 63, 0
3, 139290, Control_c, 1, 64, 127
3, 139290, Note_on_c, 1, 67, 45
3, 139319, Note_on_c, 1, 67, 0
3, 139320, Note_on_c, 1, 63, 44
3, 139349, Note_on_c, 1, 63, 0
3, 139350, Note_on_c, 1, 67, 44
3, 139379, Note_on_c, 1, 67, 0
3, 139380, Note_on_c, 1, 63, 43
3, 139409, Note_on_c, 1, 63, 0
3, 139410, Control_c, 1, 64, 0
3, 139410, Note_on_c, 1, 67, 42
3, 139439, Note_on_c, 1, 67, 0
3, 139440, Note_on_c, 1, 65, 51
3, 139469, Note_on_c, 1, 65, 0
3, 139470, Control_c, 1, 64, 127
3, 139470, Note_on_c, 1, 68, 51
3, 139499, Note_on_c, 1, 68, 0
3, 139500, Note_on_c, 1, 65, 51
3, 139529, Note_on_c, 1, 65, 0
3, 139530, Note_on_c, 1, 68, 51
3, 139545, Control_c, 1, 64, 0
3, 139559, Note_on_c, 1, 68, 0
3, 139560, Note_on_c, 1, 63, 39
3, 139589, Note_on_c, 1, 63, 0
3, 139590, Note_on_c, 1, 67, 39
3, 139619, Note_on_c, 1, 67, 0
3, 139620, Note_on_c, 1, 65, 51
3, 139635, Control_c, 1, 64, 127
3, 139649, Note_on_c, 1, 65, 0
3, 139650, Note_on_c, 1, 68, 51
3, 139679, Note_on_c, 1, 68, 0
3, 139680, Note_on_c, 1, 65, 51
3, 139709, Note_on_c, 1, 65, 0
3, 139710, Note_on_c, 1, 68, 51
3, 139725, Control_c, 1, 64, 0
3, 139739, Note_on_c, 1, 68, 0
3, 139740, Note_on_c, 1, 63, 39
3, 139769, Note_on_c, 1, 63, 0
3, 139770, Note_on_c, 1, 67, 39
3, 139799, Note_on_c, 1, 67, 0
3, 139800, Note_on_c, 1, 62, 50
3, 139829, Note_on_c, 1, 62, 0
3, 139830, Control_c, 1, 64, 127
3, 139830, Note_on_c, 1, 65, 50
3, 139859, Note_on_c, 1, 65, 0
3, 139860, Note_on_c, 1, 68, 49
3, 139889, Note_on_c, 1, 68, 0
3, 139890, Note_on_c, 1, 65, 48
3, 139919, Note_on_c, 1, 65, 0
3, 139920, Note_on_c, 1, 68, 46
3, 139949, Note_on_c, 1, 68, 0
3, 139950, Note_on_c, 1, 65, 46
3, 139965, Control_c, 1, 64, 0
3, 139979, Note_on_c, 1, 65, 0
3, 139980, Note_on_c, 1, 63, 45
3, 139995, Control_c, 1, 64, 127
3, 140009, Note_on_c, 1, 63, 0
3, 140010, Note_on_c, 1, 67, 44
3, 140039, Note_on_c, 1, 67, 0
3, 140040, Note_on_c, 1, 63, 43
3, 140069, Note_on_c, 1, 63, 0
3, 140070, Note_on_c, 1, 67, 42
3, 140085, Control_c, 1, 64, 0
3, 140099, Note_on_c, 1, 67, 0
3, 140100, Note_on_c, 1, 64, 51
3, 140129, Note_on_c, 1, 64, 0
3, 140130, Note_on_c, 1, 67, 51
3, 140159, Note_on_c, 1, 67, 0
3, 140160, Note_on_c, 1, 65, 33
3, 140160, Note_on_c, 1, 68, 43
3, 140279, Note_on_c, 1, 68, 0
3, 140279, Note_on_c, 1, 65, 0
3, 140280, Note_on_c, 1, 66, 35
3, 140280, Note_on_c, 1, 69, 46
3, 140339, Note_on_c, 1, 69, 0
3, 140339, Note_on_c, 1, 66, 0
3, 140340, Note_on_c, 1, 70, 36
3, 140340, Note_on_c, 1, 67, 47
3, 140459, Note_on_c, 1, 67, 0
3, 140459, Note_on_c, 1, 70, 0
3, 140520, Note_on_c, 1, 68, 40
3, 140520, Note_on_c, 1, 72, 52
3, 140579, Note_on_c, 1, 72, 0
3, 140579, Note_on_c, 1, 68, 0
3, 140580, Note_on_c, 1, 64, 46
3, 140580, Note_on_c, 1, 67, 44
3, 140639, Note_on_c, 1, 67, 0
3, 140639, Note_on_c, 1, 64, 0
3, 140640, Note_on_c, 1, 65, 27
3, 140640, Note_on_c, 1, 68, 36
3, 140699, Note_on_c, 1, 68, 0
3, 140699, Note_on_c, 1, 65, 0
3, 140700, Note_on_c, 1, 69, 38
3, 140700, Note_on_c, 1, 66, 29
3, 140759, Note_on_c, 1, 66, 0
3, 140759, Note_on_c, 1, 69, 0
3, 140760, Note_on_c, 1, 70, 40
3, 140760, Note_on_c, 1, 67, 30
3, 140879, Note_on_c, 1, 67, 0
3, 140879, Note_on_c, 1, 70, 0
3, 140880, Note_on_c, 1, 72, 45
3, 140880, Note_on_c, 1, 68, 34
3, 140939, Note_on_c, 1, 68, 0
3, 140939, Note_on_c, 1, 72, 0
3, 140940, Note_on_c, 1, 64, 49
3, 140940, Note_on_c, 1, 67, 58
3, 140999, Note_on_c, 1, 67, 0
3, 140999, Note_on_c, 1, 64, 0
3, 141000, Note_on_c, 1, 65, 30
3, 141000, Note_on_c, 1, 68, 40
3, 141059, Note_on_c, 1, 68, 0
3, 141059, Note_on_c, 1, 65, 0
3, 141060, Note_on_c, 1, 66, 32
3, 141060, Note_on_c, 1, 69, 42
3, 141119, Note_on_c, 1, 69, 0
3, 141119, Note_on_c, 1, 66, 0
3, 141120, Note_on_c, 1, 70, 45
3, 141120, Note_on_c, 1, 67, 34
3, 141239, Note_on_c, 1, 67, 0
3, 141239, Note_on_c, 1, 70, 0
3, 141240, Note_on_c, 1, 68, 38
3, 141240, Note_on_c, 1, 72, 50
3, 141299, Note_on_c, 1, 72, 0
3, 141299, Note_on_c, 1, 68, 0
3, 141360, Note_on_c, 1, 70, 51
3, 141360, Note_on_c, 1, 67, 39
3, 141419, Note_on_c, 1, 67, 0
3, 141419, Note_on_c, 1, 70, 0
3, 141420, Note_on_c, 1, 68, 39
3, 141420, Note_on_c, 1, 72, 52
3, 141479, Note_on_c, 1, 72, 0
3, 141479, Note_on_c, 1, 68, 0
3, 141540, Note_on_c, 1, 70, 55
3, 141540, Note_on_c, 1, 67, 42
3, 141599, Note_on_c, 1, 67, 0
3, 141599, Note_on_c, 1, 70, 0
3, 141600, Note_on_c, 1, 68, 43
3, 141600, Note_on_c, 1, 72, 56
3, 141659, Note_on_c, 1, 72, 0
3, 141659, Note_on_c, 1, 68, 0
3, 141960, Note_on_c, 1, 38, 73
3, 141960, Note_on_c, 1, 50, 63
3, 142319, Note_on_c, 1, 50, 0
3, 142319, Note_on_c, 1, 38, 0
3, 142320, Note_on_c, 1, 39, 51
3, 142320, Note_on_c, 1, 51, 51
3, 142359, Note_on_c, 1, 51, 0
3, 142359, Note_on_c, 1, 39, 0
3, 142500, Note_on_c, 1, 53, 45
3, 142500, Note_on_c, 1, 41, 45
3, 142539, Note_on_c, 1, 41, 0
3, 142539, Note_on_c, 1, 53, 0
3, 142680, Note_on_c, 1, 55, 39
3, 142680, Note_on_c, 1, 43, 39
3, 142719, Note_on_c, 1, 43, 0
3, 142719, Note_on_c, 1, 55, 0
3, 142860, Note_on_c, 1, 55, 32
3, 142860, Note_on_c, 1, 43, 32
3, 142899, Note_on_c, 1, 43, 0
3, 142899, Note_on_c, 1, 55, 0
3, 143040, Note_on_c, 1, 44, 33
3, 143040, Note_on_c, 1, 56, 33
3, 144119, Note_on_c, 1, 56, 0
3, 144119, Note_on_c, 1, 44, 0
3, 144120, Note_on_c, 1, 43, 23
3, 144120, Note_on_c, 1, 55, 23
3, 144479, Note_on_c, 1, 55, 0
3, 144479, Note_on_c, 1, 43, 0
3, 144480, Note_on_c, 1, 36, 51
3, 144480, Note_on_c, 1, 48, 51
3, 144599, Note_on_c, 1, 48, 0
3, 144599, Note_on_c, 1, 36, 0
3, 144840, Note_on_c, 1, 65, 51
3, 144869, Note_on_c, 1, 65, 0
3, 144870, Control_c, 1, 64, 127
3, 144870, Note_on_c, 1, 68, 51
3, 144899, Note_on_c, 1, 68, 0
3, 144900, Note_on_c, 1, 65, 51
3, 144929, Note_on_c, 1, 65, 0
3, 144930, Note_on_c, 1, 68, 51
3, 144959, Note_on_c, 1, 68, 0
3, 144960, Control_c, 1, 64, 0
3, 144960, Note_on_c, 1, 63, 39
3, 144989, Note_on_c, 1, 63, 0
3, 144990, Note_on_c, 1, 67, 39
3, 145019, Note_on_c, 1, 67, 0
3, 145020, Note_on_c, 1, 65, 51
3, 145049, Note_on_c, 1, 65, 0
3, 145050, Control_c, 1, 64, 127
3, 145050, Note_on_c, 1, 68, 51
3, 145079, Note_on_c, 1, 68, 0
3, 145080, Note_on_c, 1, 65, 51
3, 145109, Note_on_c, 1, 65, 0
3, 145110, Note_on_c, 1, 68, 51
3, 145139, Note_on_c, 1, 68, 0
3, 145140, Control_c, 1, 64, 0
3, 145140, Note_on_c, 1, 63, 39
3, 145169, Note_on_c, 1, 63, 0
3, 145170, Note_on_c, 1, 67, 39
3, 145199, Note_on_c, 1, 67, 0
3, 145200, Note_on_c, 1, 62, 50
3, 145229, Note_on_c, 1, 62, 0
3, 145230, Control_c, 1, 64, 127
3, 145230, Note_on_c, 1, 65, 50
3, 145259, Note_on_c, 1, 65, 0
3, 145260, Note_on_c, 1, 68, 49
3, 145289, Note_on_c, 1, 68, 0
3, 145290, Note_on_c, 1, 65, 49
3, 145319, Note_on_c, 1, 65, 0
3, 145320, Note_on_c, 1, 68, 48
3, 145349, Note_on_c, 1, 68, 0
3, 145350, Note_on_c, 1, 65, 46
3, 145350, Control_c, 1, 64, 0
3, 145379, Note_on_c, 1, 65, 0
3, 145380, Note_on_c, 1, 63, 46
3, 145409, Note_on_c, 1, 63, 0
3, 145410, Control_c, 1, 64, 127
3, 145410, Note_on_c, 1, 67, 45
3, 145439, Note_on_c, 1, 67, 0
3, 145440, Note_on_c, 1, 63, 44
3, 145469, Note_on_c, 1, 63, 0
3, 145470, Note_on_c, 1, 67, 44
3, 145499, Note_on_c, 1, 67, 0
3, 145500, Note_on_c, 1, 63, 43
3, 145529, Note_on_c, 1, 63, 0
3, 145530, Control_c, 1, 64, 0
3, 145530, Note_on_c, 1, 67, 42
3, 145559, Note_on_c, 1, 67, 0
3, 145560, Note_on_c, 1, 65, 51
3, 145589, Note_on_c, 1, 65, 0
3, 145590, Control_c, 1, 64, 127
3, 145590, Note_on_c, 1, 68, 51
3, 145619, Note_on_c, 1, 68, 0
3, 145620, Note_on_c, 1, 65, 51
3, 145649, Note_on_c, 1, 65, 0
3, 145650, Note_on_c, 1, 68, 51
3, 145665, Control_c, 1, 64, 0
3, 145679, Note_on_c, 1, 68, 0
3, 145680, Note_on_c, 1, 63, 39
3, 145709, Note_on_c, 1, 63, 0
3, 145710, Note_on_c, 1, 67, 39
3, 145739, Note_on_c, 1, 67, 0
3, 145740, Note_on_c, 1, 65, 51
3, 145755, Control_c, 1, 64, 127
3, 145769, Note_on_c, 1, 65, 0
3, 145770, Note_on_c, 1, 68, 51
3, 145799, Note_on_c, 1, 68, 0
3, 145800, Note_on_c, 1, 65, 51
3, 145829, Note_on_c, 1, 65, 0
3, 145830, Note_on_c, 1, 68, 51
3, 145845, Control_c, 1, 64, 0
3, 145859, Note_on_c, 1, 68, 0
3, 145860, Note_on_c, 1, 63, 39
3, 145889, Note_on_c, 1, 63, 0
3, 145890, Note_on_c, 1, 67, 39
3, 145919, Note_on_c, 1, 67, 0
3, 145920, Note_on_c, 1, 62, 50
3, 145949, Note_on_c, 1, 62, 0
3, 145950, Control_c, 1, 64, 127
3, 145950, Note_on_c, 1, 65, 50
3, 145979, Note_on_c, 1, 65, 0
3, 145980, Note_on_c, 1, 68, 49
3, 146009, Note_on_c, 1, 68, 0
3, 146010, Note_on_c, 1, 65, 48
3, 146039, Note_on_c, 1, 65, 0
3, 146040, Note_on_c, 1, 68, 46
3, 146069, Note_on_c, 1, 68, 0
3, 146070, Note_on_c, 1, 65, 46
3, 146085, Control_c, 1, 64, 0
3, 146099, Note_on_c, 1, 65, 0
3, 146100, Note_on_c, 1, 63, 45
3, 146115, Control_c, 1, 64, 127
3, 146129, Note_on_c, 1, 63, 0
3, 146130, Note_on_c, 1, 67, 44
3, 146159, Note_on_c, 1, 67, 0
3, 146160, Note_on_c, 1, 63, 43
3, 146189, Note_on_c, 1, 63, 0
3, 146190, Note_on_c, 1, 67, 42
3, 146205, Control_c, 1, 64, 0
3, 146219, Note_on_c, 1, 67, 0
3, 146220, Note_on_c, 1, 64, 51
3, 146249, Note_on_c, 1, 64, 0
3, 146250, Note_on_c, 1, 67, 51
3, 146279, Note_on_c, 1, 67, 0
3, 146280, Note_on_c, 1, 65, 33
3, 146280, Note_on_c, 1, 68, 43
3, 146399, Note_on_c, 1, 68, 0
3, 146399, Note_on_c, 1, 65, 0
3, 146400, Note_on_c, 1, 66, 35
3, 146400, Note_on_c, 1, 69, 46
3, 146459, Note_on_c, 1, 69, 0
3, 146459, Note_on_c, 1, 66, 0
3, 146460, Note_on_c, 1, 70, 36
3, 146460, Note_on_c, 1, 67, 47
3, 146579, Note_on_c, 1, 67, 0
3, 146579, Note_on_c, 1, 70, 0
3, 146640, Note_on_c, 1, 68, 40
3, 146640, Note_on_c, 1, 72, 52
3, 146699, Note_on_c, 1, 72, 0
3, 146699, Note_on_c, 1, 68, 0
3, 146700, Note_on_c, 1, 64, 46
3, 146700, Note_on_c, 1, 67, 44
3, 146759, Note_on_c, 1, 67, 0
3, 146759, Note_on_c, 1, 64, 0
3, 146760, Note_on_c, 1, 65, 27
3, 146760, Note_on_c, 1, 68, 36
3, 146819, Note_on_c, 1, 68, 0
3, 146819, Note_on_c, 1, 65, 0
3, 146820, Note_on_c, 1, 69, 38
3, 146820, Note_on_c, 1, 66, 29
3, 146879, Note_on_c, 1, 66, 0
3, 146879, Note_on_c, 1, 69, 0
3, 146880, Note_on_c, 1, 70, 40
3, 146880, Note_on_c, 1, 67, 30
3, 146999, Note_on_c, 1, 67, 0
3, 146999, Note_on_c, 1, 70, 0
3, 147000, Note_on_c, 1, 72, 45
3, 147000, Note_on_c, 1, 68, 34
3, 147059, Note_on_c, 1, 68, 0
3, 147059, Note_on_c, 1, 72, 0
3, 147060, Note_on_c, 1, 64, 49
3, 147060, Note_on_c, 1, 67, 58
3, 147119, Note_on_c, 1, 67, 0
3, 147119, Note_on_c, 1, 64, 0
3, 147120, Note_on_c, 1, 65, 30
3, 147120, Note_on_c, 1, 68, 40
3, 147179, Note_on_c, 1, 68, 0
3, 147179, Note_on_c, 1, 65, 0
3, 147180, Note_on_c, 1, 66, 32
3, 147180, Note_on_c, 1, 69, 42
3, 147239, Note_on_c, 1, 69, 0
3, 147239, Note_on_c, 1, 66, 0
3, 147240, Note_on_c, 1, 70, 45
3, 147240, Note_on_c, 1, 67, 34
3, 147359, Note_on_c, 1, 67, 0
3, 147359, Note_on_c, 1, 70, 0
3, 147360, Note_on_c, 1, 68, 38
3, 147360, Note_on_c, 1, 72, 50
3, 147419, Note_on_c, 1, 72, 0
3, 147419, Note_on_c, 1, 68, 0
3, 147480, Note_on_c, 1, 70, 51
3, 147480, Note_on_c, 1, 67, 39
3, 147539, Note_on_c, 1, 67, 0
3, 147539, Note_on_c, 1, 70, 0
3, 147540, Note_on_c, 1, 68, 39
3, 147540, Note_on_c, 1, 72, 52
3, 147599, Note_on_c, 1, 72, 0
3, 147599, Note_on_c, 1, 68, 0
3, 147660, Note_on_c, 1, 70, 55
3, 147660, Note_on_c, 1, 67, 42
3, 147719, Note_on_c, 1, 67, 0
3, 147719, Note_on_c, 1, 70, 0
3, 147720, Note_on_c, 1, 68, 43
3, 147720, Note_on_c, 1, 72, 56
3, 147779, Note_on_c, 1, 72, 0
3, 147779, Note_on_c, 1, 68, 0
3, 148080, Note_on_c, 1, 38, 73
3, 148080, Note_on_c, 1, 50, 63
3, 148439, Note_on_c, 1, 50, 0
3, 148439, Note_on_c, 1, 38, 0
3, 148440, Note_on_c, 1, 39, 51
3, 148440, Note_on_c, 1, 51, 51
3, 148479, Note_on_c, 1, 51, 0
3, 148479, Note_on_c, 1, 39, 0
3, 148620, Note_on_c, 1, 53, 45
3, 148620, Note_on_c, 1, 41, 45
3, 148659, Note_on_c, 1, 41, 0
3, 148659, Note_on_c, 1, 53, 0
3, 148800, Note_on_c, 1, 55, 39
3, 148800, Note_on_c, 1, 43, 39
3, 148839, Note_on_c, 1, 43, 0
3, 148839, Note_on_c, 1, 55, 0
3, 148980, Note_on_c, 1, 55, 32
3, 148980, Note_on_c, 1, 43, 32
3, 149019, Note_on_c, 1, 43, 0
3, 149019, Note_on_c, 1, 55, 0
3, 149160, Note_on_c, 1, 44, 33
3, 149160, Note_on_c, 1, 56, 33
3, 150239, Note_on_c, 1, 56, 0
3, 150239, Note_on_c, 1, 44, 0
3, 150240, Note_on_c, 1, 43, 23
3, 150240, Note_on_c, 1, 55, 23
3, 150599, Note_on_c, 1, 55, 0
3, 150599, Note_on_c, 1, 43, 0
3, 150600, Note_on_c, 1, 44, 33
3, 150600, Note_on_c, 1, 56, 33
3, 151679, Note_on_c, 1, 56, 0
3, 151679, Note_on_c, 1, 44, 0
3, 151680, Note_on_c, 1, 43, 23
3, 151680, Note_on_c, 1, 55, 23
3, 152039, Note_on_c, 1, 55, 0
3, 152039, Note_on_c, 1, 43, 0
3, 152040, Note_on_c, 1, 48, 43
3, 152129, Note_on_c, 1, 48, 0
3, 152400, Note_on_c, 1, 53, 43
3, 152459, Note_on_c, 1, 53, 0
3, 152580, Note_on_c, 1, 55, 43
3, 152639, Note_on_c, 1, 55, 0
3, 152760, Note_on_c, 1, 48, 43
3, 152849, Note_on_c, 1, 48, 0
3, 153120, Note_on_c, 1, 53, 43
3, 153179, Note_on_c, 1, 53, 0
3, 153300, Note_on_c, 1, 55, 43
3, 153359, Note_on_c, 1, 55, 0
3, 153480, Note_on_c, 1, 56, 43
3, 153569, Note_on_c, 1, 56, 0
3, 153840, Note_on_c, 1, 41, 53
3, 153899, Note_on_c, 1, 41, 0
3, 154020, Note_on_c, 1, 43, 63
3, 154079, Note_on_c, 1, 43, 0
3, 154200, Note_on_c, 1, 36, 73
3, 154289, Note_on_c, 1, 36, 0
3, 154289, End_track
4, 0, Start_track
4, 0, MIDI_port, 0
4, 0, Title_t, "Flutes"
4, 20, Control_c, 2, 121, 0
4, 21, Control_c, 2, 11, 127
4, 21, Control_c, 2, 7, 127
4, 22, Control_c, 2, 93, 10
4, 22, Control_c, 2, 91, 89
4, 25, Control_c, 2, 10, 64
4, 26, Pitch_bend_c, 2, 8192
4, 27, Control_c, 2, 0, 0
4, 28, Control_c, 2, 32, 0
4, 29, Program_c, 2, 73
4, 960, Note_on_c, 2, 79, 28
4, 1019, Note_on_c, 2, 79, 0
4, 1200, Note_on_c, 2, 79, 28
4, 1259, Note_on_c, 2, 79, 0
4, 1440, Note_on_c, 2, 75, 28
4, 1499, Note_on_c, 2, 75, 0
4, 1800, Note_on_c, 2, 79, 33
4, 1919, Note_on_c, 2, 79, 0
4, 1920, Note_on_c, 2, 84, 33
4, 2009, Note_on_c, 2, 84, 0
4, 2040, Note_on_c, 2, 84, 33
4, 2159, Note_on_c, 2, 84, 0
4, 2159, Control_c, 2, 11, 66
4, 2160, Note_on_c, 2, 87, 40
4, 2161, Control_c, 2, 11, 67
4, 2164, Control_c, 2, 11, 68
4, 2167, Control_c, 2, 11, 69
4, 2170, Control_c, 2, 11, 70
4, 2173, Control_c, 2, 11, 71
4, 2176, Control_c, 2, 11, 72
4, 2179, Control_c, 2, 11, 73
4, 2182, Control_c, 2, 11, 74
4, 2185, Control_c, 2, 11, 75
4, 2188, Control_c, 2, 11, 76
4, 2191, Control_c, 2, 11, 77
4, 2194, Control_c, 2, 11, 78
4, 2197, Control_c, 2, 11, 80
4, 2200, Control_c, 2, 11, 82
4, 2203, Control_c, 2, 11, 84
4, 2206, Control_c, 2, 11, 86
4, 2209, Control_c, 2, 11, 88
4, 2212, Control_c, 2, 11, 90
4, 2215, Control_c, 2, 11, 92
4, 2218, Control_c, 2, 11, 94
4, 2221, Control_c, 2, 11, 96
4, 2224, Control_c, 2, 11, 98
4, 2227, Control_c, 2, 11, 100
4, 2230, Control_c, 2, 11, 103
4, 2233, Control_c, 2, 11, 106
4, 2236, Control_c, 2, 11, 109
4, 2239, Control_c, 2, 11, 112
4, 2242, Control_c, 2, 11, 115
4, 2245, Control_c, 2, 11, 118
4, 2248, Control_c, 2, 11, 121
4, 2249, Note_on_c, 2, 87, 0
4, 2251, Control_c, 2, 11, 124
4, 2254, Control_c, 2, 11, 127
4, 2279, Control_c, 2, 11, 127
4, 2280, Note_on_c, 2, 78, 33
4, 2399, Note_on_c, 2, 78, 0
4, 2400, Note_on_c, 2, 79, 29
4, 2489, Note_on_c, 2, 79, 0
4, 3840, Note_on_c, 2, 86, 30
4, 3899, Note_on_c, 2, 86, 0
4, 3960, Note_on_c, 2, 86, 29
4, 4019, Note_on_c, 2, 86, 0
4, 4080, Note_on_c, 2, 86, 29
4, 4139, Note_on_c, 2, 86, 0
4, 4200, Note_on_c, 2, 86, 29
4, 4259, Note_on_c, 2, 86, 0
4, 4320, Note_on_c, 2, 79, 21
4, 4439, Note_on_c, 2, 79, 0
4, 4800, Note_on_c, 2, 79, 28
4, 4859, Note_on_c, 2, 79, 0
4, 5040, Note_on_c, 2, 79, 28
4, 5099, Note_on_c, 2, 79, 0
4, 5280, Note_on_c, 2, 75, 28
4, 5359, Note_on_c, 2, 75, 0
4, 5640, Note_on_c, 2, 79, 26
4, 5759, Note_on_c, 2, 79, 0
4, 5760, Note_on_c, 2, 84, 33
4, 5849, Note_on_c, 2, 84, 0
4, 5880, Note_on_c, 2, 84, 33
4, 5999, Note_on_c, 2, 84, 0
4, 5999, Control_c, 2, 11, 66
4, 6000, Note_on_c, 2, 87, 40
4, 6001, Control_c, 2, 11, 67
4, 6004, Control_c, 2, 11, 68
4, 6007, Control_c, 2, 11, 69
4, 6010, Control_c, 2, 11, 70
4, 6013, Control_c, 2, 11, 71
4, 6016, Control_c, 2, 11, 72
4, 6019, Control_c, 2, 11, 73
4, 6022, Control_c, 2, 11, 74
4, 6025, Control_c, 2, 11, 75
4, 6028, Control_c, 2, 11, 76
4, 6031, Control_c, 2, 11, 77
4, 6034, Control_c, 2, 11, 78
4, 6037, Control_c, 2, 11, 80
4, 6040, Control_c, 2, 11, 82
4, 6043, Control_c, 2, 11, 84
4, 6046, Control_c, 2, 11, 86
4, 6049, Control_c, 2, 11, 88
4, 6052, Control_c, 2, 11, 90
4, 6055, Control_c, 2, 11, 92
4, 6058, Control_c, 2, 11, 94
4, 6061, Control_c, 2, 11, 96
4, 6064, Control_c, 2, 11, 98
4, 6067, Control_c, 2, 11, 100
4, 6070, Control_c, 2, 11, 103
4, 6073, Control_c, 2, 11, 106
4, 6076, Control_c, 2, 11, 109
4, 6079, Control_c, 2, 11, 112
4, 6082, Control_c, 2, 11, 115
4, 6085, Control_c, 2, 11, 118
4, 6088, Control_c, 2, 11, 121
4, 6089, Note_on_c, 2, 87, 0
4, 6091, Control_c, 2, 11, 124
4, 6094, Control_c, 2, 11, 127
4, 6119, Control_c, 2, 11, 127
4, 6120, Note_on_c, 2, 78, 33
4, 6239, Note_on_c, 2, 78, 0
4, 6240, Note_on_c, 2, 79, 26
4, 6329, Note_on_c, 2, 79, 0
4, 7680, Note_on_c, 2, 86, 30
4, 7739, Note_on_c, 2, 86, 0
4, 7800, Note_on_c, 2, 86, 29
4, 7859, Note_on_c, 2, 86, 0
4, 7920, Note_on_c, 2, 86, 29
4, 7979, Note_on_c, 2, 86, 0
4, 8040, Note_on_c, 2, 86, 29
4, 8099, Note_on_c, 2, 86, 0
4, 8160, Note_on_c, 2, 79, 21
4, 8279, Note_on_c, 2, 79, 0
4, 8640, Note_on_c, 2, 79, 23
4, 8699, Note_on_c, 2, 79, 0
4, 8880, Note_on_c, 2, 79, 23
4, 8939, Note_on_c, 2, 79, 0
4, 9120, Note_on_c, 2, 79, 23
4, 9179, Note_on_c, 2, 79, 0
4, 11400, Note_on_c, 2, 84, 31
4, 11429, Note_on_c, 2, 84, 0
4, 11460, Note_on_c, 2, 84, 36
4, 11489, Note_on_c, 2, 84, 0
4, 11490, Note_on_c, 2, 86, 38
4, 11519, Note_on_c, 2, 86, 0
4, 11520, Note_on_c, 2, 87, 41
4, 11639, Note_on_c, 2, 87, 0
4, 11640, Note_on_c, 2, 86, 43
4, 11699, Note_on_c, 2, 86, 0
4, 11700, Note_on_c, 2, 84, 33
4, 11729, Note_on_c, 2, 84, 0
4, 11760, Note_on_c, 2, 84, 38
4, 11879, Note_on_c, 2, 84, 0
4, 11880, Note_on_c, 2, 83, 33
4, 11999, Note_on_c, 2, 83, 0
4, 12000, Note_on_c, 2, 84, 28
4, 12119, Note_on_c, 2, 84, 0
4, 12480, Note_on_c, 2, 79, 23
4, 12519, Note_on_c, 2, 79, 0
4, 12720, Note_on_c, 2, 79, 23
4, 12759, Note_on_c, 2, 79, 0
4, 12960, Note_on_c, 2, 79, 23
4, 12999, Note_on_c, 2, 79, 0
4, 15240, Note_on_c, 2, 84, 31
4, 15269, Note_on_c, 2, 84, 0
4, 15300, Note_on_c, 2, 84, 36
4, 15329, Note_on_c, 2, 84, 0
4, 15330, Note_on_c, 2, 86, 38
4, 15359, Note_on_c, 2, 86, 0
4, 15360, Note_on_c, 2, 87, 41
4, 15479, Note_on_c, 2, 87, 0
4, 15480, Note_on_c, 2, 86, 43
4, 15539, Note_on_c, 2, 86, 0
4, 15540, Note_on_c, 2, 84, 33
4, 15569, Note_on_c, 2, 84, 0
4, 15600, Note_on_c, 2, 84, 38
4, 15719, Note_on_c, 2, 84, 0
4, 15720, Note_on_c, 2, 83, 33
4, 15839, Note_on_c, 2, 83, 0
4, 15840, Note_on_c, 2, 84, 28
4, 15959, Note_on_c, 2, 84, 0
4, 32520, Note_on_c, 2, 79, 32
4, 32639, Note_on_c, 2, 79, 0
4, 32640, Note_on_c, 2, 84, 32
4, 32709, Note_on_c, 2, 84, 0
4, 32760, Note_on_c, 2, 84, 35
4, 32879, Note_on_c, 2, 84, 0
4, 32880, Note_on_c, 2, 87, 40
4, 32949, Note_on_c, 2, 87, 0
4, 33000, Note_on_c, 2, 78, 37
4, 33119, Note_on_c, 2, 78, 0
4, 33120, Note_on_c, 2, 79, 32
4, 33209, Note_on_c, 2, 79, 0
4, 40200, Note_on_c, 2, 71, 32
4, 40319, Note_on_c, 2, 71, 0
4, 40320, Note_on_c, 2, 72, 34
4, 40379, Note_on_c, 2, 72, 0
4, 40440, Note_on_c, 2, 72, 36
4, 40559, Note_on_c, 2, 72, 0
4, 40560, Note_on_c, 2, 74, 38
4, 40619, Note_on_c, 2, 74, 0
4, 40680, Note_on_c, 2, 74, 40
4, 40799, Note_on_c, 2, 74, 0
4, 40800, Note_on_c, 2, 75, 32
4, 40879, Note_on_c, 2, 75, 0
4, 41160, Note_on_c, 2, 72, 32
4, 41279, Note_on_c, 2, 72, 0
4, 41280, Note_on_c, 2, 73, 34
4, 41309, Note_on_c, 2, 73, 0
4, 41400, Note_on_c, 2, 73, 36
4, 41429, Note_on_c, 2, 73, 0
4, 41520, Note_on_c, 2, 73, 39
4, 41549, Note_on_c, 2, 73, 0
4, 41640, Note_on_c, 2, 73, 41
4, 41669, Note_on_c, 2, 73, 0
4, 41700, Note_on_c, 2, 73, 42
4, 41729, Note_on_c, 2, 73, 0
4, 41730, Note_on_c, 2, 75, 43
4, 41759, Note_on_c, 2, 75, 0
4, 41760, Note_on_c, 2, 77, 44
4, 41879, Note_on_c, 2, 77, 0
4, 41880, Note_on_c, 2, 75, 38
4, 41939, Note_on_c, 2, 75, 0
4, 41940, Note_on_c, 2, 73, 35
4, 41969, Note_on_c, 2, 73, 0
4, 42000, Note_on_c, 2, 72, 33
4, 42059, Note_on_c, 2, 72, 0
4, 42120, Note_on_c, 2, 72, 32
4, 42149, Note_on_c, 2, 72, 0
4, 42180, Note_on_c, 2, 72, 38
4, 42209, Note_on_c, 2, 72, 0
4, 42210, Note_on_c, 2, 74, 41
4, 42239, Note_on_c, 2, 74, 0
4, 42240, Note_on_c, 2, 75, 44
4, 42359, Note_on_c, 2, 75, 0
4, 42360, Note_on_c, 2, 74, 37
4, 42389, Note_on_c, 2, 74, 0
4, 42420, Note_on_c, 2, 72, 33
4, 42449, Note_on_c, 2, 72, 0
4, 42480, Note_on_c, 2, 72, 33
4, 42599, Note_on_c, 2, 72, 0
4, 42600, Note_on_c, 2, 71, 28
4, 42719, Note_on_c, 2, 71, 0
4, 42720, Note_on_c, 2, 72, 33
4, 42809, Note_on_c, 2, 72, 0
4, 50760, Note_on_c, 2, 79, 59
4, 50789, Note_on_c, 2, 79, 0
4, 50850, Note_on_c, 2, 79, 59
4, 50879, Note_on_c, 2, 79, 0
4, 50880, Note_on_c, 2, 87, 59
4, 50969, Note_on_c, 2, 87, 0
4, 51000, Note_on_c, 2, 87, 59
4, 51029, Note_on_c, 2, 87, 0
4, 51090, Note_on_c, 2, 87, 59
4, 51119, Note_on_c, 2, 87, 0
4, 51120, Note_on_c, 2, 86, 59
4, 51179, Note_on_c, 2, 86, 0
4, 51240, Note_on_c, 2, 86, 59
4, 51269, Note_on_c, 2, 86, 0
4, 51330, Note_on_c, 2, 86, 59
4, 51359, Note_on_c, 2, 86, 0
4, 51360, Note_on_c, 2, 84, 59
4, 51449, Note_on_c, 2, 84, 0
4, 51480, Note_on_c, 2, 75, 59
4, 51509, Note_on_c, 2, 75, 0
4, 51570, Note_on_c, 2, 75, 59
4, 51599, Note_on_c, 2, 75, 0
4, 51600, Note_on_c, 2, 79, 59
4, 51689, Note_on_c, 2, 79, 0
4, 51720, Note_on_c, 2, 84, 59
4, 51749, Note_on_c, 2, 84, 0
4, 51810, Note_on_c, 2, 84, 59
4, 51839, Note_on_c, 2, 84, 0
4, 51840, Note_on_c, 2, 87, 59
4, 52079, Note_on_c, 2, 87, 0
4, 52080, Note_on_c, 2, 90, 59
4, 52319, Note_on_c, 2, 90, 0
4, 52320, Note_on_c, 2, 91, 59
4, 52439, Note_on_c, 2, 91, 0
4, 53280, Note_on_c, 2, 91, 59
4, 53759, Note_on_c, 2, 91, 0
4, 53760, Note_on_c, 2, 86, 59
4, 53849, Note_on_c, 2, 86, 0
4, 53880, Note_on_c, 2, 86, 59
4, 53909, Note_on_c, 2, 86, 0
4, 53970, Note_on_c, 2, 86, 59
4, 53999, Note_on_c, 2, 86, 0
4, 54000, Note_on_c, 2, 86, 59
4, 54089, Note_on_c, 2, 86, 0
4, 54120, Note_on_c, 2, 86, 59
4, 54149, Note_on_c, 2, 86, 0
4, 54210, Note_on_c, 2, 86, 59
4, 54239, Note_on_c, 2, 86, 0
4, 54240, Note_on_c, 2, 79, 59
4, 54299, Note_on_c, 2, 79, 0
4, 58440, Note_on_c, 2, 91, 55
4, 58559, Note_on_c, 2, 91, 0
4, 58560, Note_on_c, 2, 90, 55
4, 58679, Note_on_c, 2, 90, 0
4, 58680, Note_on_c, 2, 89, 55
4, 58799, Note_on_c, 2, 89, 0
4, 58800, Note_on_c, 2, 88, 55
4, 58919, Note_on_c, 2, 88, 0
4, 58920, Note_on_c, 2, 87, 55
4, 59039, Note_on_c, 2, 87, 0
4, 59040, Note_on_c, 2, 86, 55
4, 59159, Note_on_c, 2, 86, 0
4, 59160, Note_on_c, 2, 86, 55
4, 59219, Note_on_c, 2, 86, 0
4, 59250, Note_on_c, 2, 86, 55
4, 59279, Note_on_c, 2, 86, 0
4, 59280, Note_on_c, 2, 86, 55
4, 59339, Note_on_c, 2, 86, 0
4, 59400, Note_on_c, 2, 86, 55
4, 59459, Note_on_c, 2, 86, 0
4, 59490, Note_on_c, 2, 86, 55
4, 59519, Note_on_c, 2, 86, 0
4, 59520, Note_on_c, 2, 91, 55
4, 59759, Note_on_c, 2, 91, 0
4, 59760, Note_on_c, 2, 89, 55
4, 59999, Note_on_c, 2, 89, 0
4, 60000, Note_on_c, 2, 87, 55
4, 60119, Note_on_c, 2, 87, 0
4, 60120, Note_on_c, 2, 84, 55
4, 60179, Note_on_c, 2, 84, 0
4, 60210, Note_on_c, 2, 84, 55
4, 60239, Note_on_c, 2, 84, 0
4, 60240, Note_on_c, 2, 84, 55
4, 60299, Note_on_c, 2, 84, 0
4, 60360, Note_on_c, 2, 84, 55
4, 60419, Note_on_c, 2, 84, 0
4, 60480, Note_on_c, 2, 89, 55
4, 60959, Note_on_c, 2, 89, 0
4, 60960, Note_on_c, 2, 90, 55
4, 61439, Note_on_c, 2, 90, 0
4, 61440, Note_on_c, 2, 91, 55
4, 61679, Note_on_c, 2, 91, 0
4, 61680, Note_on_c, 2, 83, 55
4, 61919, Note_on_c, 2, 83, 0
4, 61920, Note_on_c, 2, 84, 55
4, 61979, Note_on_c, 2, 84, 0
4, 96780, Note_on_c, 2, 74, 35
4, 96839, Note_on_c, 2, 74, 0
4, 96840, Note_on_c, 2, 79, 35
4, 96899, Note_on_c, 2, 79, 0
4, 96900, Note_on_c, 2, 81, 35
4, 96959, Note_on_c, 2, 81, 0
4, 96960, Note_on_c, 2, 83, 35
4, 97019, Note_on_c, 2, 83, 0
4, 97020, Note_on_c, 2, 84, 35
4, 97039, Note_on_c, 2, 84, 0
4, 97040, Note_on_c, 2, 83, 35
4, 97059, Note_on_c, 2, 83, 0
4, 97060, Note_on_c, 2, 81, 35
4, 97079, Note_on_c, 2, 81, 0
4, 97080, Note_on_c, 2, 83, 35
4, 97109, Note_on_c, 2, 83, 0
4, 97140, Note_on_c, 2, 84, 35
4, 97169, Note_on_c, 2, 84, 0
4, 97200, Note_on_c, 2, 86, 35
4, 97229, Note_on_c, 2, 86, 0
4, 97260, Note_on_c, 2, 86, 35
4, 97289, Note_on_c, 2, 86, 0
4, 97320, Note_on_c, 2, 86, 35
4, 97349, Note_on_c, 2, 86, 0
4, 97380, Note_on_c, 2, 86, 35
4, 97409, Note_on_c, 2, 86, 0
4, 97440, Note_on_c, 2, 86, 35
4, 97679, Note_on_c, 2, 86, 0
4, 97680, Note_on_c, 2, 78, 35
4, 97709, Note_on_c, 2, 78, 0
4, 97710, Note_on_c, 2, 79, 35
4, 97739, Note_on_c, 2, 79, 0
4, 97740, Note_on_c, 2, 81, 35
4, 97769, Note_on_c, 2, 81, 0
4, 97770, Note_on_c, 2, 83, 35
4, 97799, Note_on_c, 2, 83, 0
4, 97800, Note_on_c, 2, 84, 35
4, 97829, Note_on_c, 2, 84, 0
4, 97830, Note_on_c, 2, 86, 35
4, 97859, Note_on_c, 2, 86, 0
4, 97860, Note_on_c, 2, 88, 35
4, 97889, Note_on_c, 2, 88, 0
4, 97890, Note_on_c, 2, 90, 35
4, 97919, Note_on_c, 2, 90, 0
4, 97920, Note_on_c, 2, 91, 35
4, 98039, Note_on_c, 2, 91, 0
4, 98130, Note_on_c, 2, 84, 35
4, 98159, Note_on_c, 2, 84, 0
4, 98160, Note_on_c, 2, 83, 35
4, 98219, Note_on_c, 2, 83, 0
4, 98280, Note_on_c, 2, 83, 35
4, 98309, Note_on_c, 2, 83, 0
4, 98310, Note_on_c, 2, 81, 35
4, 98339, Note_on_c, 2, 81, 0
4, 98340, Note_on_c, 2, 79, 35
4, 98369, Note_on_c, 2, 79, 0
4, 98370, Note_on_c, 2, 81, 35
4, 98399, Note_on_c, 2, 81, 0
4, 98400, Note_on_c, 2, 81, 35
4, 98639, Note_on_c, 2, 81, 0
4, 98640, Note_on_c, 2, 79, 35
4, 98699, Note_on_c, 2, 79, 0
4, 104940, Note_on_c, 2, 79, 43
4, 104999, Note_on_c, 2, 79, 0
4, 105000, Note_on_c, 2, 83, 43
4, 105059, Note_on_c, 2, 83, 0
4, 105060, Note_on_c, 2, 84, 43
4, 105119, Note_on_c, 2, 84, 0
4, 105120, Note_on_c, 2, 86, 43
4, 105179, Note_on_c, 2, 86, 0
4, 105180, Note_on_c, 2, 88, 43
4, 105199, Note_on_c, 2, 88, 0
4, 105200, Note_on_c, 2, 86, 43
4, 105219, Note_on_c, 2, 86, 0
4, 105220, Note_on_c, 2, 84, 43
4, 105239, Note_on_c, 2, 84, 0
4, 105240, Note_on_c, 2, 86, 43
4, 105269, Note_on_c, 2, 86, 0
4, 105300, Note_on_c, 2, 88, 43
4, 105329, Note_on_c, 2, 88, 0
4, 105360, Note_on_c, 2, 89, 43
4, 105389, Note_on_c, 2, 89, 0
4, 105420, Note_on_c, 2, 89, 43
4, 105449, Note_on_c, 2, 89, 0
4, 105480, Note_on_c, 2, 89, 43
4, 105509, Note_on_c, 2, 89, 0
4, 105540, Note_on_c, 2, 89, 43
4, 105569, Note_on_c, 2, 89, 0
4, 105600, Note_on_c, 2, 88, 43
4, 105689, Note_on_c, 2, 88, 0
4, 105960, Note_on_c, 2, 79, 43
4, 106019, Note_on_c, 2, 79, 0
4, 106080, Note_on_c, 2, 79, 43
4, 106259, Note_on_c, 2, 79, 0
4, 106260, Note_on_c, 2, 81, 40
4, 106289, Note_on_c, 2, 81, 0
4, 106290, Note_on_c, 2, 79, 37
4, 106319, Note_on_c, 2, 79, 0
4, 106320, Note_on_c, 2, 84, 33
4, 106409, Note_on_c, 2, 84, 0
4, 110700, Note_on_c, 2, 79, 43
4, 110759, Note_on_c, 2, 79, 0
4, 110760, Note_on_c, 2, 83, 43
4, 110819, Note_on_c, 2, 83, 0
4, 110820, Note_on_c, 2, 84, 43
4, 110879, Note_on_c, 2, 84, 0
4, 110880, Note_on_c, 2, 86, 43
4, 110939, Note_on_c, 2, 86, 0
4, 110940, Note_on_c, 2, 88, 43
4, 110959, Note_on_c, 2, 88, 0
4, 110960, Note_on_c, 2, 86, 43
4, 110979, Note_on_c, 2, 86, 0
4, 110980, Note_on_c, 2, 84, 43
4, 110999, Note_on_c, 2, 84, 0
4, 111000, Note_on_c, 2, 86, 43
4, 111029, Note_on_c, 2, 86, 0
4, 111060, Note_on_c, 2, 88, 43
4, 111089, Note_on_c, 2, 88, 0
4, 111120, Note_on_c, 2, 89, 43
4, 111149, Note_on_c, 2, 89, 0
4, 111180, Note_on_c, 2, 89, 43
4, 111209, Note_on_c, 2, 89, 0
4, 111240, Note_on_c, 2, 89, 43
4, 111269, Note_on_c, 2, 89, 0
4, 111300, Note_on_c, 2, 89, 43
4, 111329, Note_on_c, 2, 89, 0
4, 111360, Note_on_c, 2, 88, 43
4, 111449, Note_on_c, 2, 88, 0
4, 111720, Note_on_c, 2, 79, 43
4, 111779, Note_on_c, 2, 79, 0
4, 111840, Note_on_c, 2, 79, 43
4, 112019, Note_on_c, 2, 79, 0
4, 112020, Note_on_c, 2, 81, 40
4, 112049, Note_on_c, 2, 81, 0
4, 112050, Note_on_c, 2, 79, 37
4, 112079, Note_on_c, 2, 79, 0
4, 112080, Note_on_c, 2, 84, 33
4, 112169, Note_on_c, 2, 84, 0
4, 112860, Note_on_c, 2, 83, 43
4, 112879, Note_on_c, 2, 83, 0
4, 112920, Note_on_c, 2, 84, 37
4, 112939, Note_on_c, 2, 84, 0
4, 112980, Note_on_c, 2, 83, 31
4, 112999, Note_on_c, 2, 83, 0
4, 113040, Note_on_c, 2, 84, 24
4, 113159, Note_on_c, 2, 84, 0
4, 115740, Note_on_c, 2, 90, 43
4, 115769, Note_on_c, 2, 90, 0
4, 115800, Note_on_c, 2, 91, 37
4, 115829, Note_on_c, 2, 91, 0
4, 115860, Note_on_c, 2, 90, 31
4, 115889, Note_on_c, 2, 90, 0
4, 115920, Note_on_c, 2, 91, 24
4, 116039, Note_on_c, 2, 91, 0
4, 117660, Note_on_c, 2, 83, 43
4, 117679, Note_on_c, 2, 83, 0
4, 117720, Note_on_c, 2, 84, 37
4, 117739, Note_on_c, 2, 84, 0
4, 117780, Note_on_c, 2, 83, 31
4, 117799, Note_on_c, 2, 83, 0
4, 117840, Note_on_c, 2, 84, 24
4, 117959, Note_on_c, 2, 84, 0
4, 119580, Note_on_c, 2, 83, 32
4, 119603, Note_on_c, 2, 83, 0
4, 119640, Note_on_c, 2, 84, 33
4, 119663, Note_on_c, 2, 84, 0
4, 119700, Note_on_c, 2, 83, 34
4, 119723, Note_on_c, 2, 83, 0
4, 119760, Note_on_c, 2, 84, 34
4, 119849, Note_on_c, 2, 84, 0
4, 120060, Note_on_c, 2, 83, 42
4, 120083, Note_on_c, 2, 83, 0
4, 120120, Note_on_c, 2, 84, 43
4, 120143, Note_on_c, 2, 84, 0
4, 120180, Note_on_c, 2, 83, 43
4, 120203, Note_on_c, 2, 83, 0
4, 120240, Note_on_c, 2, 84, 44
4, 120329, Note_on_c, 2, 84, 0
4, 120540, Note_on_c, 2, 88, 48
4, 120563, Note_on_c, 2, 88, 0
4, 120600, Note_on_c, 2, 89, 48
4, 120623, Note_on_c, 2, 89, 0
4, 120660, Note_on_c, 2, 88, 49
4, 120683, Note_on_c, 2, 88, 0
4, 120720, Note_on_c, 2, 89, 50
4, 120839, Note_on_c, 2, 89, 0
4, 143040, Note_on_c, 2, 84, 43
4, 143399, Note_on_c, 2, 84, 0
4, 143400, Note_on_c, 2, 85, 52
4, 143419, Note_on_c, 2, 85, 0
4, 143460, Note_on_c, 2, 84, 44
4, 143479, Note_on_c, 2, 84, 0
4, 143520, Note_on_c, 2, 85, 44
4, 143539, Note_on_c, 2, 85, 0
4, 143580, Note_on_c, 2, 84, 36
4, 143719, Note_on_c, 2, 84, 0
4, 143745, Note_on_c, 2, 87, 44
4, 143760, Note_on_c, 2, 85, 44
4, 143764, Note_on_c, 2, 87, 0
4, 143779, Note_on_c, 2, 85, 0
4, 143820, Note_on_c, 2, 84, 44
4, 143839, Note_on_c, 2, 84, 0
4, 143880, Note_on_c, 2, 85, 44
4, 143899, Note_on_c, 2, 85, 0
4, 143940, Note_on_c, 2, 84, 36
4, 144059, Note_on_c, 2, 84, 0
4, 144090, Note_on_c, 2, 84, 44
4, 144105, Note_on_c, 2, 86, 44
4, 144109, Note_on_c, 2, 84, 0
4, 144120, Note_on_c, 2, 87, 52
4, 144124, Note_on_c, 2, 86, 0
4, 144210, Note_on_c, 2, 86, 44
4, 144219, Note_on_c, 2, 87, 0
4, 144239, Note_on_c, 2, 86, 0
4, 144240, Note_on_c, 2, 84, 44
4, 144259, Note_on_c, 2, 84, 0
4, 144300, Note_on_c, 2, 84, 44
4, 144419, Note_on_c, 2, 84, 0
4, 144420, Note_on_c, 2, 87, 44
4, 144450, Note_on_c, 2, 86, 39
4, 144459, Note_on_c, 2, 87, 0
4, 144480, Note_on_c, 2, 84, 33
4, 144489, Note_on_c, 2, 86, 0
4, 144599, Note_on_c, 2, 84, 0
4, 149160, Note_on_c, 2, 84, 43
4, 149519, Note_on_c, 2, 84, 0
4, 149520, Note_on_c, 2, 85, 52
4, 149539, Note_on_c, 2, 85, 0
4, 149580, Note_on_c, 2, 84, 44
4, 149599, Note_on_c, 2, 84, 0
4, 149640, Note_on_c, 2, 85, 44
4, 149659, Note_on_c, 2, 85, 0
4, 149700, Note_on_c, 2, 84, 36
4, 149839, Note_on_c, 2, 84, 0
4, 149865, Note_on_c, 2, 87, 44
4, 149880, Note_on_c, 2, 85, 44
4, 149884, Note_on_c, 2, 87, 0
4, 149899, Note_on_c, 2, 85, 0
4, 149940, Note_on_c, 2, 84, 44
4, 149959, Note_on_c, 2, 84, 0
4, 150000, Note_on_c, 2, 85, 44
4, 150019, Note_on_c, 2, 85, 0
4, 150060, Note_on_c, 2, 84, 36
4, 150179, Note_on_c, 2, 84, 0
4, 150210, Note_on_c, 2, 84, 44
4, 150225, Note_on_c, 2, 86, 44
4, 150229, Note_on_c, 2, 84, 0
4, 150240, Note_on_c, 2, 87, 52
4, 150244, Note_on_c, 2, 86, 0
4, 150330, Note_on_c, 2, 86, 44
4, 150339, Note_on_c, 2, 87, 0
4, 150359, Note_on_c, 2, 86, 0
4, 150360, Note_on_c, 2, 84, 44
4, 150379, Note_on_c, 2, 84, 0
4, 150420, Note_on_c, 2, 84, 44
4, 150539, Note_on_c, 2, 84, 0
4, 150540, Note_on_c, 2, 87, 44
4, 150570, Note_on_c, 2, 86, 39
4, 150579, Note_on_c, 2, 87, 0
4, 150600, Note_on_c, 2, 84, 33
4, 150609, Note_on_c, 2, 86, 0
4, 150719, Note_on_c, 2, 84, 0
4, 152100, Note_on_c, 2, 84, 34
4, 152129, Note_on_c, 2, 84, 0
4, 152160, Note_on_c, 2, 84, 34
4, 152189, Note_on_c, 2, 84, 0
4, 152220, Note_on_c, 2, 84, 34
4, 152249, Note_on_c, 2, 84, 0
4, 152280, Note_on_c, 2, 84, 34
4, 152309, Note_on_c, 2, 84, 0
4, 152340, Note_on_c, 2, 84, 34
4, 152369, Note_on_c, 2, 84, 0
4, 152460, Note_on_c, 2, 84, 34
4, 152489, Note_on_c, 2, 84, 0
4, 152520, Note_on_c, 2, 84, 34
4, 152549, Note_on_c, 2, 84, 0
4, 152640, Note_on_c, 2, 83, 34
4, 152669, Note_on_c, 2, 83, 0
4, 152700, Note_on_c, 2, 83, 34
4, 152729, Note_on_c, 2, 83, 0
4, 152820, Note_on_c, 2, 84, 34
4, 152849, Note_on_c, 2, 84, 0
4, 152880, Note_on_c, 2, 84, 34
4, 152909, Note_on_c, 2, 84, 0
4, 152940, Note_on_c, 2, 84, 34
4, 152969, Note_on_c, 2, 84, 0
4, 153000, Note_on_c, 2, 84, 34
4, 153029, Note_on_c, 2, 84, 0
4, 153060, Note_on_c, 2, 84, 34
4, 153089, Note_on_c, 2, 84, 0
4, 153180, Note_on_c, 2, 84, 33
4, 153209, Note_on_c, 2, 84, 0
4, 153240, Note_on_c, 2, 84, 33
4, 153269, Note_on_c, 2, 84, 0
4, 153360, Note_on_c, 2, 83, 36
4, 153389, Note_on_c, 2, 83, 0
4, 153420, Note_on_c, 2, 83, 36
4, 153449, Note_on_c, 2, 83, 0
4, 153540, Note_on_c, 2, 87, 37
4, 153569, Note_on_c, 2, 87, 0
4, 153600, Note_on_c, 2, 87, 38
4, 153629, Note_on_c, 2, 87, 0
4, 153660, Note_on_c, 2, 87, 39
4, 153689, Note_on_c, 2, 87, 0
4, 153720, Note_on_c, 2, 87, 40
4, 153749, Note_on_c, 2, 87, 0
4, 153780, Note_on_c, 2, 87, 40
4, 153809, Note_on_c, 2, 87, 0
4, 153900, Note_on_c, 2, 86, 42
4, 153929, Note_on_c, 2, 86, 0
4, 153960, Note_on_c, 2, 86, 43
4, 153989, Note_on_c, 2, 86, 0
4, 154080, Note_on_c, 2, 86, 45
4, 154109, Note_on_c, 2, 86, 0
4, 154140, Note_on_c, 2, 86, 46
4, 154169, Note_on_c, 2, 86, 0
4, 154200, Note_on_c, 2, 84, 48
4, 154289, Note_on_c, 2, 84, 0
4, 154560, Note_on_c, 2, 84, 55
4, 154649, Note_on_c, 2, 84, 0
4, 154650, Note_on_c, 2, 83, 55
4, 154679, Note_on_c, 2, 83, 0
4, 154680, Note_on_c, 2, 84, 55
4, 154709, Note_on_c, 2, 84, 0
4, 154710, Note_on_c, 2, 86, 55
4, 154739, Note_on_c, 2, 86, 0
4, 154740, Note_on_c, 2, 87, 55
4, 154829, Note_on_c, 2, 87, 0
4, 154830, Note_on_c, 2, 86, 56
4, 154859, Note_on_c, 2, 86, 0
4, 154860, Note_on_c, 2, 87, 56
4, 154889, Note_on_c, 2, 87, 0
4, 154890, Note_on_c, 2, 89, 56
4, 154919, Note_on_c, 2, 89, 0
4, 154920, Note_on_c, 2, 91, 56
4, 154979, Note_on_c, 2, 91, 0
4, 155100, Note_on_c, 2, 91, 57
4, 155159, Note_on_c, 2, 91, 0
4, 155280, Note_on_c, 2, 84, 57
4, 155339, Note_on_c, 2, 84, 0
4, 155339, End_track
5, 0, Start_track
5, 0, MIDI_port, 0
5, 0, Title_t, "Oboes"
5, 20, Control_c, 3, 121, 0
5, 21, Control_c, 3, 11, 127
5, 21, Control_c, 3, 7, 127
5, 22, Control_c, 3, 93, 10
5, 22, Control_c, 3, 91, 79
5, 25, Control_c, 3, 10, 54
5, 26, Pitch_bend_c, 3, 8192
5, 27, Control_c, 3, 0, 0
5, 28, Control_c, 3, 32, 0
5, 29, Program_c, 3, 68
5, 960, Note_on_c, 3, 72, 23
5, 960, Note_on_c, 3, 75, 33
5, 1019, Note_on_c, 3, 75, 0
5, 1019, Note_on_c, 3, 72, 0
5, 1200, Note_on_c, 3, 71, 23
5, 1200, Note_on_c, 3, 74, 33
5, 1259, Note_on_c, 3, 74, 0
5, 1259, Note_on_c, 3, 71, 0
5, 1440, Note_on_c, 3, 72, 23
5, 1559, Note_on_c, 3, 72, 0
5, 3720, Note_on_c, 3, 79, 44
5, 3749, Note_on_c, 3, 79, 0
5, 3780, Note_on_c, 3, 79, 44
5, 3809, Note_on_c, 3, 79, 0
5, 3810, Note_on_c, 3, 81, 44
5, 3839, Note_on_c, 3, 81, 0
5, 3840, Note_on_c, 3, 82, 44
5, 3959, Note_on_c, 3, 82, 0
5, 3960, Note_on_c, 3, 81, 34
5, 3989, Note_on_c, 3, 81, 0
5, 4020, Note_on_c, 3, 79, 33
5, 4049, Note_on_c, 3, 79, 0
5, 4080, Note_on_c, 3, 79, 31
5, 4179, Note_on_c, 3, 79, 0
5, 4200, Note_on_c, 3, 78, 27
5, 4299, Note_on_c, 3, 78, 0
5, 4320, Note_on_c, 3, 79, 23
5, 4439, Note_on_c, 3, 79, 0
5, 4800, Note_on_c, 3, 72, 23
5, 4800, Note_on_c, 3, 75, 33
5, 4859, Note_on_c, 3, 75, 0
5, 4859, Note_on_c, 3, 72, 0
5, 5040, Note_on_c, 3, 71, 23
5, 5040, Note_on_c, 3, 74, 33
5, 5099, Note_on_c, 3, 74, 0
5, 5099, Note_on_c, 3, 71, 0
5, 5280, Note_on_c, 3, 72, 23
5, 5359, Note_on_c, 3, 72, 0
5, 7560, Note_on_c, 3, 79, 44
5, 7589, Note_on_c, 3, 79, 0
5, 7620, Note_on_c, 3, 79, 44
5, 7649, Note_on_c, 3, 79, 0
5, 7650, Note_on_c, 3, 81, 44
5, 7679, Note_on_c, 3, 81, 0
5, 7680, Note_on_c, 3, 82, 44
5, 7799, Note_on_c, 3, 82, 0
5, 7800, Note_on_c, 3, 81, 34
5, 7829, Note_on_c, 3, 81, 0
5, 7860, Note_on_c, 3, 79, 33
5, 7889, Note_on_c, 3, 79, 0
5, 7920, Note_on_c, 3, 79, 31
5, 8019, Note_on_c, 3, 79, 0
5, 8040, Note_on_c, 3, 78, 27
5, 8139, Note_on_c, 3, 78, 0
5, 8160, Note_on_c, 3, 79, 23
5, 8279, Note_on_c, 3, 79, 0
5, 8640, Note_on_c, 3, 74, 23
5, 8640, Note_on_c, 3, 77, 23
5, 8699, Note_on_c, 3, 77, 0
5, 8699, Note_on_c, 3, 74, 0
5, 8880, Note_on_c, 3, 75, 23
5, 8880, Note_on_c, 3, 72, 23
5, 8939, Note_on_c, 3, 72, 0
5, 8939, Note_on_c, 3, 75, 0
5, 9120, Note_on_c, 3, 74, 23
5, 9120, Note_on_c, 3, 71, 23
5, 9179, Note_on_c, 3, 71, 0
5, 9179, Note_on_c, 3, 74, 0
5, 11400, Note_on_c, 3, 78, 23
5, 11519, Note_on_c, 3, 78, 0
5, 11520, Note_on_c, 3, 79, 23
5, 11760, Note_on_c, 3, 77, 23
5, 11819, Note_on_c, 3, 79, 0
5, 11880, Note_on_c, 3, 79, 23
5, 11999, Note_on_c, 3, 79, 0
5, 11999, Note_on_c, 3, 77, 0
5, 12000, Note_on_c, 3, 75, 23
5, 12000, Note_on_c, 3, 79, 23
5, 12119, Note_on_c, 3, 79, 0
5, 12119, Note_on_c, 3, 75, 0
5, 12480, Note_on_c, 3, 74, 23
5, 12480, Note_on_c, 3, 77, 23
5, 12519, Note_on_c, 3, 77, 0
5, 12519, Note_on_c, 3, 74, 0
5, 12720, Note_on_c, 3, 75, 23
5, 12720, Note_on_c, 3, 72, 23
5, 12759, Note_on_c, 3, 72, 0
5, 12759, Note_on_c, 3, 75, 0
5, 12960, Note_on_c, 3, 74, 23
5, 12960, Note_on_c, 3, 71, 23
5, 12999, Note_on_c, 3, 71, 0
5, 12999, Note_on_c, 3, 74, 0
5, 15240, Note_on_c, 3, 78, 23
5, 15359, Note_on_c, 3, 78, 0
5, 15360, Note_on_c, 3, 79, 23
5, 15600, Note_on_c, 3, 77, 23
5, 15659, Note_on_c, 3, 79, 0
5, 15720, Note_on_c, 3, 79, 23
5, 15839, Note_on_c, 3, 79, 0
5, 15839, Note_on_c, 3, 77, 0
5, 15840, Note_on_c, 3, 75, 23
5, 15840, Note_on_c, 3, 79, 23
5, 15959, Note_on_c, 3, 79, 0
5, 15959, Note_on_c, 3, 75, 0
5, 31560, Note_on_c, 3, 79, 41
5, 31560, Note_on_c, 3, 75, 22
5, 31679, Note_on_c, 3, 79, 0
5, 31680, Note_on_c, 3, 75, 40
5, 31680, Note_on_c, 3, 72, 22
5, 31709, Note_on_c, 3, 75, 0
5, 31729, Note_on_c, 3, 72, 0
5, 31729, Note_on_c, 3, 75, 0
5, 31800, Note_on_c, 3, 75, 38
5, 31800, Note_on_c, 3, 72, 22
5, 31919, Note_on_c, 3, 72, 0
5, 31919, Note_on_c, 3, 75, 0
5, 31920, Note_on_c, 3, 71, 22
5, 31920, Note_on_c, 3, 74, 37
5, 31969, Note_on_c, 3, 74, 0
5, 31969, Note_on_c, 3, 71, 0
5, 32040, Note_on_c, 3, 74, 35
5, 32040, Note_on_c, 3, 71, 22
5, 32159, Note_on_c, 3, 71, 0
5, 32159, Note_on_c, 3, 74, 0
5, 32160, Note_on_c, 3, 72, 29
5, 32249, Note_on_c, 3, 72, 0
5, 32520, Note_on_c, 3, 79, 33
5, 32520, Note_on_c, 3, 75, 22
5, 32579, Note_on_c, 3, 75, 0
5, 32640, Note_on_c, 3, 75, 22
5, 32759, Note_on_c, 3, 79, 0
5, 32760, Note_on_c, 3, 78, 33
5, 32849, Note_on_c, 3, 78, 0
5, 32879, Note_on_c, 3, 75, 0
5, 32880, Note_on_c, 3, 72, 22
5, 32989, Note_on_c, 3, 72, 0
5, 33000, Note_on_c, 3, 72, 33
5, 33119, Note_on_c, 3, 72, 0
5, 33120, Note_on_c, 3, 74, 23
5, 33120, Note_on_c, 3, 71, 22
5, 33239, Note_on_c, 3, 71, 0
5, 33239, Note_on_c, 3, 74, 0
5, 33480, Note_on_c, 3, 79, 24
5, 33599, Note_on_c, 3, 79, 0
5, 33600, Note_on_c, 3, 75, 26
5, 33600, Note_on_c, 3, 80, 30
5, 33659, Note_on_c, 3, 80, 0
5, 33720, Note_on_c, 3, 80, 31
5, 33749, Note_on_c, 3, 80, 0
5, 33839, Note_on_c, 3, 75, 0
5, 33840, Note_on_c, 3, 80, 32
5, 33840, Note_on_c, 3, 77, 26
5, 33869, Note_on_c, 3, 80, 0
5, 33960, Note_on_c, 3, 80, 33
5, 33989, Note_on_c, 3, 80, 0
5, 34020, Note_on_c, 3, 80, 34
5, 34020, Note_on_c, 3, 77, 26
5, 34049, Note_on_c, 3, 77, 0
5, 34049, Note_on_c, 3, 80, 0
5, 34050, Note_on_c, 3, 82, 34
5, 34050, Note_on_c, 3, 79, 26
5, 34079, Note_on_c, 3, 82, 0
5, 34079, Note_on_c, 3, 77, 0
5, 34080, Note_on_c, 3, 80, 26
5, 34080, Note_on_c, 3, 84, 34
5, 34109, Note_on_c, 3, 79, 0
5, 34199, Note_on_c, 3, 84, 0
5, 34199, Note_on_c, 3, 80, 0
5, 34200, Note_on_c, 3, 79, 26
5, 34200, Note_on_c, 3, 82, 36
5, 34259, Note_on_c, 3, 82, 0
5, 34259, Note_on_c, 3, 79, 0
5, 34260, Note_on_c, 3, 77, 26
5, 34260, Note_on_c, 3, 80, 37
5, 34319, Note_on_c, 3, 80, 0
5, 34319, Note_on_c, 3, 77, 0
5, 34320, Note_on_c, 3, 75, 26
5, 34320, Note_on_c, 3, 79, 37
5, 34379, Note_on_c, 3, 79, 0
5, 34379, Note_on_c, 3, 75, 0
5, 34440, Note_on_c, 3, 79, 34
5, 34440, Note_on_c, 3, 74, 22
5, 34469, Note_on_c, 3, 79, 0
5, 34500, Note_on_c, 3, 79, 37
5, 34529, Note_on_c, 3, 79, 0
5, 34530, Note_on_c, 3, 81, 39
5, 34559, Note_on_c, 3, 81, 0
5, 34559, Note_on_c, 3, 74, 0
5, 34560, Note_on_c, 3, 82, 44
5, 34560, Note_on_c, 3, 75, 22
5, 34679, Note_on_c, 3, 75, 0
5, 34679, Note_on_c, 3, 82, 0
5, 34680, Note_on_c, 3, 76, 22
5, 34680, Note_on_c, 3, 81, 44
5, 34739, Note_on_c, 3, 81, 0
5, 34740, Note_on_c, 3, 79, 34
5, 34769, Note_on_c, 3, 79, 0
5, 34799, Note_on_c, 3, 76, 0
5, 34800, Note_on_c, 3, 74, 26
5, 34800, Note_on_c, 3, 79, 41
5, 34919, Note_on_c, 3, 79, 0
5, 34920, Note_on_c, 3, 78, 34
5, 35039, Note_on_c, 3, 78, 0
5, 35040, Note_on_c, 3, 79, 28
5, 35129, Note_on_c, 3, 79, 0
5, 35129, Note_on_c, 3, 74, 0
5, 39240, Note_on_c, 3, 79, 43
5, 39240, Note_on_c, 3, 67, 33
5, 39359, Note_on_c, 3, 67, 0
5, 39359, Note_on_c, 3, 79, 0
5, 39360, Note_on_c, 3, 74, 23
5, 39360, Note_on_c, 3, 77, 33
5, 39419, Note_on_c, 3, 77, 0
5, 39419, Note_on_c, 3, 74, 0
5, 39480, Note_on_c, 3, 74, 23
5, 39480, Note_on_c, 3, 77, 33
5, 39599, Note_on_c, 3, 77, 0
5, 39599, Note_on_c, 3, 74, 0
5, 39600, Note_on_c, 3, 72, 23
5, 39600, Note_on_c, 3, 75, 33
5, 39659, Note_on_c, 3, 75, 0
5, 39659, Note_on_c, 3, 72, 0
5, 39720, Note_on_c, 3, 72, 22
5, 39720, Note_on_c, 3, 75, 28
5, 39839, Note_on_c, 3, 75, 0
5, 39839, Note_on_c, 3, 72, 0
5, 39840, Note_on_c, 3, 71, 19
5, 39840, Note_on_c, 3, 74, 23
5, 39929, Note_on_c, 3, 74, 0
5, 39929, Note_on_c, 3, 71, 0
5, 40200, Note_on_c, 3, 80, 39
5, 40200, Note_on_c, 3, 71, 27
5, 40319, Note_on_c, 3, 71, 0
5, 40319, Note_on_c, 3, 80, 0
5, 40320, Note_on_c, 3, 75, 27
5, 40320, Note_on_c, 3, 79, 39
5, 40379, Note_on_c, 3, 79, 0
5, 40379, Note_on_c, 3, 75, 0
5, 40440, Note_on_c, 3, 75, 23
5, 40440, Note_on_c, 3, 79, 33
5, 40559, Note_on_c, 3, 79, 0
5, 40559, Note_on_c, 3, 75, 0
5, 40560, Note_on_c, 3, 71, 23
5, 40560, Note_on_c, 3, 77, 30
5, 40619, Note_on_c, 3, 77, 0
5, 40619, Note_on_c, 3, 71, 0
5, 40680, Note_on_c, 3, 71, 23
5, 40680, Note_on_c, 3, 77, 33
5, 40799, Note_on_c, 3, 77, 0
5, 40799, Note_on_c, 3, 71, 0
5, 40800, Note_on_c, 3, 75, 27
5, 40800, Note_on_c, 3, 72, 33
5, 40830, Control_c, 3, 11, 67
5, 40859, Note_on_c, 3, 75, 0
5, 40908, Control_c, 3, 11, 68
5, 40916, Control_c, 3, 11, 69
5, 40924, Control_c, 3, 11, 70
5, 40932, Control_c, 3, 11, 71
5, 40940, Control_c, 3, 11, 72
5, 40948, Control_c, 3, 11, 73
5, 40956, Control_c, 3, 11, 74
5, 40964, Control_c, 3, 11, 75
5, 40972, Control_c, 3, 11, 76
5, 40980, Control_c, 3, 11, 77
5, 40988, Control_c, 3, 11, 78
5, 40996, Control_c, 3, 11, 80
5, 41004, Control_c, 3, 11, 82
5, 41012, Control_c, 3, 11, 84
5, 41020, Control_c, 3, 11, 86
5, 41028, Control_c, 3, 11, 88
5, 41036, Control_c, 3, 11, 90
5, 41044, Control_c, 3, 11, 92
5, 41052, Control_c, 3, 11, 94
5, 41060, Control_c, 3, 11, 96
5, 41068, Control_c, 3, 11, 98
5, 41076, Control_c, 3, 11, 100
5, 41084, Control_c, 3, 11, 103
5, 41092, Control_c, 3, 11, 106
5, 41100, Control_c, 3, 11, 109
5, 41108, Control_c, 3, 11, 112
5, 41116, Control_c, 3, 11, 115
5, 41124, Control_c, 3, 11, 118
5, 41132, Control_c, 3, 11, 121
5, 41140, Control_c, 3, 11, 124
5, 41148, Control_c, 3, 11, 127
5, 41159, Note_on_c, 3, 72, 0
5, 41160, Note_on_c, 3, 72, 39
5, 41279, Note_on_c, 3, 72, 0
5, 41280, Note_on_c, 3, 72, 27
5, 41280, Note_on_c, 3, 73, 32
5, 41309, Note_on_c, 3, 73, 0
5, 41400, Note_on_c, 3, 73, 35
5, 41429, Note_on_c, 3, 73, 0
5, 41519, Note_on_c, 3, 72, 0
5, 41520, Note_on_c, 3, 73, 41
5, 41520, Note_on_c, 3, 70, 32
5, 41549, Note_on_c, 3, 73, 0
5, 41640, Note_on_c, 3, 73, 46
5, 41669, Note_on_c, 3, 73, 0
5, 41700, Note_on_c, 3, 70, 38
5, 41700, Note_on_c, 3, 73, 49
5, 41729, Note_on_c, 3, 73, 0
5, 41729, Note_on_c, 3, 70, 0
5, 41730, Note_on_c, 3, 75, 51
5, 41730, Note_on_c, 3, 72, 38
5, 41759, Note_on_c, 3, 72, 0
5, 41759, Note_on_c, 3, 75, 0
5, 41759, Note_on_c, 3, 70, 0
5, 41760, Note_on_c, 3, 73, 39
5, 41760, Note_on_c, 3, 77, 52
5, 41879, Note_on_c, 3, 77, 0
5, 41879, Note_on_c, 3, 73, 0
5, 41880, Note_on_c, 3, 75, 43
5, 41880, Note_on_c, 3, 72, 31
5, 41939, Note_on_c, 3, 72, 0
5, 41939, Note_on_c, 3, 75, 0
5, 41940, Note_on_c, 3, 73, 44
5, 41940, Note_on_c, 3, 70, 31
5, 41999, Note_on_c, 3, 70, 0
5, 41999, Note_on_c, 3, 73, 0
5, 42000, Note_on_c, 3, 68, 31
5, 42000, Note_on_c, 3, 72, 44
5, 42059, Note_on_c, 3, 72, 0
5, 42059, Note_on_c, 3, 68, 0
5, 42120, Note_on_c, 3, 72, 40
5, 42120, Note_on_c, 3, 67, 26
5, 42149, Note_on_c, 3, 72, 0
5, 42180, Note_on_c, 3, 72, 44
5, 42209, Note_on_c, 3, 72, 0
5, 42210, Note_on_c, 3, 74, 46
5, 42239, Note_on_c, 3, 74, 0
5, 42239, Note_on_c, 3, 67, 0
5, 42240, Note_on_c, 3, 75, 52
5, 42240, Note_on_c, 3, 68, 36
5, 42359, Note_on_c, 3, 68, 0
5, 42359, Note_on_c, 3, 75, 0
5, 42360, Note_on_c, 3, 69, 36
5, 42360, Note_on_c, 3, 74, 52
5, 42419, Note_on_c, 3, 74, 0
5, 42420, Note_on_c, 3, 72, 40
5, 42449, Note_on_c, 3, 72, 0
5, 42479, Note_on_c, 3, 69, 0
5, 42480, Note_on_c, 3, 67, 28
5, 42480, Note_on_c, 3, 72, 49
5, 42599, Note_on_c, 3, 72, 0
5, 42600, Note_on_c, 3, 71, 37
5, 42719, Note_on_c, 3, 71, 0
5, 42720, Note_on_c, 3, 72, 33
5, 42809, Note_on_c, 3, 72, 0
5, 42809, Note_on_c, 3, 67, 0
5, 50760, Note_on_c, 3, 67, 49
5, 50789, Note_on_c, 3, 67, 0
5, 50850, Note_on_c, 3, 67, 49
5, 50879, Note_on_c, 3, 67, 0
5, 50880, Note_on_c, 3, 75, 49
5, 50969, Note_on_c, 3, 75, 0
5, 51000, Note_on_c, 3, 75, 49
5, 51029, Note_on_c, 3, 75, 0
5, 51090, Note_on_c, 3, 75, 49
5, 51119, Note_on_c, 3, 75, 0
5, 51120, Note_on_c, 3, 74, 49
5, 51209, Note_on_c, 3, 74, 0
5, 51240, Note_on_c, 3, 74, 49
5, 51269, Note_on_c, 3, 74, 0
5, 51330, Note_on_c, 3, 74, 49
5, 51359, Note_on_c, 3, 74, 0
5, 51360, Note_on_c, 3, 72, 49
5, 51449, Note_on_c, 3, 72, 0
5, 51480, Note_on_c, 3, 72, 49
5, 51509, Note_on_c, 3, 72, 0
5, 51570, Note_on_c, 3, 72, 49
5, 51599, Note_on_c, 3, 72, 0
5, 51600, Note_on_c, 3, 75, 49
5, 51659, Note_on_c, 3, 75, 0
5, 51720, Note_on_c, 3, 79, 49
5, 51749, Note_on_c, 3, 79, 0
5, 51810, Note_on_c, 3, 79, 49
5, 51839, Note_on_c, 3, 79, 0
5, 51840, Note_on_c, 3, 84, 49
5, 52319, Note_on_c, 3, 84, 0
5, 52320, Note_on_c, 3, 83, 40
5, 52439, Note_on_c, 3, 83, 0
5, 52800, Note_on_c, 3, 80, 49
5, 52800, Note_on_c, 3, 72, 40
5, 53279, Note_on_c, 3, 72, 0
5, 53279, Note_on_c, 3, 80, 0
5, 53280, Note_on_c, 3, 82, 49
5, 53280, Note_on_c, 3, 73, 40
5, 53759, Note_on_c, 3, 73, 0
5, 53759, Note_on_c, 3, 82, 0
5, 53760, Note_on_c, 3, 82, 49
5, 53760, Note_on_c, 3, 74, 40
5, 53789, Note_on_c, 3, 74, 0
5, 53789, Note_on_c, 3, 82, 0
5, 53880, Note_on_c, 3, 74, 40
5, 53880, Note_on_c, 3, 82, 49
5, 53909, Note_on_c, 3, 82, 0
5, 53909, Note_on_c, 3, 74, 0
5, 53970, Note_on_c, 3, 82, 49
5, 53970, Note_on_c, 3, 74, 40
5, 53999, Note_on_c, 3, 74, 0
5, 53999, Note_on_c, 3, 82, 0
5, 54000, Note_on_c, 3, 72, 40
5, 54000, Note_on_c, 3, 81, 49
5, 54029, Note_on_c, 3, 81, 0
5, 54029, Note_on_c, 3, 72, 0
5, 54120, Note_on_c, 3, 81, 49
5, 54120, Note_on_c, 3, 72, 40
5, 54149, Note_on_c, 3, 72, 0
5, 54149, Note_on_c, 3, 81, 0
5, 54210, Note_on_c, 3, 81, 49
5, 54210, Note_on_c, 3, 72, 40
5, 54239, Note_on_c, 3, 72, 0
5, 54239, Note_on_c, 3, 81, 0
5, 54240, Note_on_c, 3, 70, 40
5, 54240, Note_on_c, 3, 79, 49
5, 54329, Note_on_c, 3, 79, 0
5, 54329, Note_on_c, 3, 70, 0
5, 58440, Note_on_c, 3, 79, 52
5, 58489, Note_on_c, 3, 79, 0
5, 58530, Note_on_c, 3, 79, 52
5, 58559, Note_on_c, 3, 79, 0
5, 58560, Note_on_c, 3, 78, 52
5, 58649, Note_on_c, 3, 78, 0
5, 58680, Note_on_c, 3, 77, 52
5, 58729, Note_on_c, 3, 77, 0
5, 58770, Note_on_c, 3, 77, 52
5, 58799, Note_on_c, 3, 77, 0
5, 58800, Note_on_c, 3, 76, 52
5, 58889, Note_on_c, 3, 76, 0
5, 58920, Note_on_c, 3, 75, 52
5, 58969, Note_on_c, 3, 75, 0
5, 59010, Note_on_c, 3, 75, 52
5, 59039, Note_on_c, 3, 75, 0
5, 59040, Note_on_c, 3, 74, 52
5, 59129, Note_on_c, 3, 74, 0
5, 59160, Note_on_c, 3, 71, 44
5, 59160, Note_on_c, 3, 74, 52
5, 59209, Note_on_c, 3, 74, 0
5, 59209, Note_on_c, 3, 71, 0
5, 59250, Note_on_c, 3, 71, 44
5, 59250, Note_on_c, 3, 74, 52
5, 59279, Note_on_c, 3, 74, 0
5, 59279, Note_on_c, 3, 71, 0
5, 59280, Note_on_c, 3, 71, 44
5, 59280, Note_on_c, 3, 74, 52
5, 59369, Note_on_c, 3, 74, 0
5, 59369, Note_on_c, 3, 71, 0
5, 59400, Note_on_c, 3, 74, 44
5, 59400, Note_on_c, 3, 80, 52
5, 59449, Note_on_c, 3, 80, 0
5, 59449, Note_on_c, 3, 74, 0
5, 59490, Note_on_c, 3, 74, 44
5, 59490, Note_on_c, 3, 80, 52
5, 59519, Note_on_c, 3, 80, 0
5, 59519, Note_on_c, 3, 74, 0
5, 59520, Note_on_c, 3, 75, 44
5, 59520, Note_on_c, 3, 79, 52
5, 59609, Note_on_c, 3, 79, 0
5, 59609, Note_on_c, 3, 75, 0
5, 59640, Note_on_c, 3, 79, 52
5, 59640, Note_on_c, 3, 75, 44
5, 59689, Note_on_c, 3, 75, 0
5, 59689, Note_on_c, 3, 79, 0
5, 59730, Note_on_c, 3, 75, 44
5, 59730, Note_on_c, 3, 79, 52
5, 59759, Note_on_c, 3, 79, 0
5, 59759, Note_on_c, 3, 75, 0
5, 59760, Note_on_c, 3, 77, 44
5, 59760, Note_on_c, 3, 83, 52
5, 59849, Note_on_c, 3, 83, 0
5, 59849, Note_on_c, 3, 77, 0
5, 59880, Note_on_c, 3, 77, 44
5, 59880, Note_on_c, 3, 83, 52
5, 59929, Note_on_c, 3, 83, 0
5, 59929, Note_on_c, 3, 77, 0
5, 59970, Note_on_c, 3, 77, 44
5, 59970, Note_on_c, 3, 83, 52
5, 59999, Note_on_c, 3, 83, 0
5, 59999, Note_on_c, 3, 77, 0
5, 60000, Note_on_c, 3, 75, 44
5, 60000, Note_on_c, 3, 84, 52
5, 60089, Note_on_c, 3, 84, 0
5, 60089, Note_on_c, 3, 75, 0
5, 60120, Note_on_c, 3, 75, 44
5, 60120, Note_on_c, 3, 79, 52
5, 60169, Note_on_c, 3, 79, 0
5, 60169, Note_on_c, 3, 75, 0
5, 60210, Note_on_c, 3, 75, 44
5, 60210, Note_on_c, 3, 79, 52
5, 60239, Note_on_c, 3, 79, 0
5, 60239, Note_on_c, 3, 75, 0
5, 60240, Note_on_c, 3, 75, 44
5, 60240, Note_on_c, 3, 79, 52
5, 60309, Note_on_c, 3, 79, 0
5, 60309, Note_on_c, 3, 75, 0
5, 60360, Note_on_c, 3, 75, 44
5, 60360, Note_on_c, 3, 79, 52
5, 60429, Note_on_c, 3, 79, 0
5, 60429, Note_on_c, 3, 75, 0
5, 60480, Note_on_c, 3, 85, 52
5, 60480, Note_on_c, 3, 80, 52
5, 60959, Note_on_c, 3, 80, 0
5, 60959, Note_on_c, 3, 85, 0
5, 60960, Note_on_c, 3, 78, 52
5, 60960, Note_on_c, 3, 84, 52
5, 61439, Note_on_c, 3, 78, 0
5, 61440, Note_on_c, 3, 79, 52
5, 61679, Note_on_c, 3, 79, 0
5, 61679, Note_on_c, 3, 84, 0
5, 61680, Note_on_c, 3, 74, 42
5, 61680, Note_on_c, 3, 77, 52
5, 61919, Note_on_c, 3, 77, 0
5, 61919, Note_on_c, 3, 74, 0
5, 61920, Note_on_c, 3, 75, 42
5, 61920, Note_on_c, 3, 72, 42
5, 62009, Note_on_c, 3, 72, 0
5, 62009, Note_on_c, 3, 75, 0
5, 94860, Note_on_c, 3, 67, 34
5, 94919, Note_on_c, 3, 67, 0
5, 94920, Note_on_c, 3, 72, 37
5, 94979, Note_on_c, 3, 72, 0
5, 94980, Note_on_c, 3, 74, 40
5, 95039, Note_on_c, 3, 74, 0
5, 95040, Note_on_c, 3, 76, 44
5, 95069, Note_on_c, 3, 76, 0
5, 95100, Note_on_c, 3, 77, 37
5, 95119, Note_on_c, 3, 77, 0
5, 95120, Note_on_c, 3, 76, 37
5, 95139, Note_on_c, 3, 76, 0
5, 95140, Note_on_c, 3, 74, 37
5, 95159, Note_on_c, 3, 74, 0
5, 95160, Note_on_c, 3, 76, 38
5, 95189, Note_on_c, 3, 76, 0
5, 95220, Note_on_c, 3, 77, 39
5, 95249, Note_on_c, 3, 77, 0
5, 95280, Note_on_c, 3, 79, 41
5, 95309, Note_on_c, 3, 79, 0
5, 95340, Note_on_c, 3, 79, 42
5, 95369, Note_on_c, 3, 79, 0
5, 95400, Note_on_c, 3, 79, 44
5, 95429, Note_on_c, 3, 79, 0
5, 95460, Note_on_c, 3, 79, 45
5, 95489, Note_on_c, 3, 79, 0
5, 95520, Note_on_c, 3, 79, 47
5, 95559, Note_on_c, 3, 79, 0
5, 95580, Note_on_c, 3, 84, 44
5, 95609, Note_on_c, 3, 84, 0
5, 95610, Note_on_c, 3, 81, 39
5, 95639, Note_on_c, 3, 81, 0
5, 95640, Note_on_c, 3, 77, 34
5, 95879, Note_on_c, 3, 77, 0
5, 95880, Note_on_c, 3, 76, 24
5, 95969, Note_on_c, 3, 76, 0
5, 96000, Note_on_c, 3, 73, 44
5, 96059, Note_on_c, 3, 73, 0
5, 96060, Note_on_c, 3, 74, 34
5, 96099, Note_on_c, 3, 74, 0
5, 96120, Note_on_c, 3, 76, 44
5, 96179, Note_on_c, 3, 76, 0
5, 96180, Note_on_c, 3, 77, 34
5, 96219, Note_on_c, 3, 77, 0
5, 96240, Note_on_c, 3, 80, 44
5, 96299, Note_on_c, 3, 80, 0
5, 96300, Note_on_c, 3, 81, 34
5, 96339, Note_on_c, 3, 81, 0
5, 96360, Note_on_c, 3, 72, 34
5, 96389, Note_on_c, 3, 72, 0
5, 96390, Note_on_c, 3, 74, 37
5, 96419, Note_on_c, 3, 74, 0
5, 96420, Note_on_c, 3, 77, 40
5, 96449, Note_on_c, 3, 77, 0
5, 96450, Note_on_c, 3, 74, 44
5, 96479, Note_on_c, 3, 74, 0
5, 96480, Note_on_c, 3, 72, 36
5, 96719, Note_on_c, 3, 72, 0
5, 96720, Note_on_c, 3, 71, 24
5, 96809, Note_on_c, 3, 71, 0
5, 97260, Note_on_c, 3, 83, 34
5, 97260, Note_on_c, 3, 74, 24
5, 97319, Note_on_c, 3, 74, 0
5, 97319, Note_on_c, 3, 83, 0
5, 97320, Note_on_c, 3, 72, 24
5, 97320, Note_on_c, 3, 81, 34
5, 97379, Note_on_c, 3, 81, 0
5, 97379, Note_on_c, 3, 72, 0
5, 97380, Note_on_c, 3, 79, 34
5, 97380, Note_on_c, 3, 71, 24
5, 97439, Note_on_c, 3, 71, 0
5, 97439, Note_on_c, 3, 79, 0
5, 97440, Note_on_c, 3, 78, 34
5, 97440, Note_on_c, 3, 69, 24
5, 97499, Note_on_c, 3, 69, 0
5, 97499, Note_on_c, 3, 78, 0
5, 97500, Note_on_c, 3, 79, 34
5, 97500, Note_on_c, 3, 71, 24
5, 97519, Note_on_c, 3, 71, 0
5, 97519, Note_on_c, 3, 79, 0
5, 97520, Note_on_c, 3, 78, 34
5, 97520, Note_on_c, 3, 69, 24
5, 97539, Note_on_c, 3, 69, 0
5, 97539, Note_on_c, 3, 78, 0
5, 97540, Note_on_c, 3, 67, 24
5, 97540, Note_on_c, 3, 76, 34
5, 97559, Note_on_c, 3, 76, 0
5, 97559, Note_on_c, 3, 67, 0
5, 97560, Note_on_c, 3, 78, 34
5, 97560, Note_on_c, 3, 69, 24
5, 97589, Note_on_c, 3, 69, 0
5, 97589, Note_on_c, 3, 78, 0
5, 97620, Note_on_c, 3, 79, 34
5, 97620, Note_on_c, 3, 71, 24
5, 97649, Note_on_c, 3, 71, 0
5, 97649, Note_on_c, 3, 79, 0
5, 97680, Note_on_c, 3, 81, 34
5, 97680, Note_on_c, 3, 72, 24
5, 97709, Note_on_c, 3, 72, 0
5, 97709, Note_on_c, 3, 81, 0
5, 97740, Note_on_c, 3, 81, 34
5, 97740, Note_on_c, 3, 72, 24
5, 97769, Note_on_c, 3, 72, 0
5, 97769, Note_on_c, 3, 81, 0
5, 97800, Note_on_c, 3, 72, 24
5, 97800, Note_on_c, 3, 81, 34
5, 97829, Note_on_c, 3, 81, 0
5, 97829, Note_on_c, 3, 72, 0
5, 97860, Note_on_c, 3, 81, 34
5, 97860, Note_on_c, 3, 72, 24
5, 97889, Note_on_c, 3, 72, 0
5, 97889, Note_on_c, 3, 81, 0
5, 97920, Note_on_c, 3, 71, 24
5, 97920, Note_on_c, 3, 79, 34
5, 98039, Note_on_c, 3, 79, 0
5, 98039, Note_on_c, 3, 71, 0
5, 98130, Note_on_c, 3, 81, 24
5, 98130, Note_on_c, 3, 76, 24
5, 98159, Note_on_c, 3, 76, 0
5, 98159, Note_on_c, 3, 81, 0
5, 98160, Note_on_c, 3, 79, 24
5, 98160, Note_on_c, 3, 74, 24
5, 98249, Note_on_c, 3, 74, 0
5, 98249, Note_on_c, 3, 79, 0
5, 98280, Note_on_c, 3, 79, 24
5, 98280, Note_on_c, 3, 74, 24
5, 98309, Note_on_c, 3, 74, 0
5, 98309, Note_on_c, 3, 79, 0
5, 98310, Note_on_c, 3, 78, 24
5, 98310, Note_on_c, 3, 72, 24
5, 98339, Note_on_c, 3, 72, 0
5, 98339, Note_on_c, 3, 78, 0
5, 98340, Note_on_c, 3, 71, 24
5, 98340, Note_on_c, 3, 76, 24
5, 98369, Note_on_c, 3, 76, 0
5, 98369, Note_on_c, 3, 71, 0
5, 98370, Note_on_c, 3, 78, 24
5, 98370, Note_on_c, 3, 72, 24
5, 98399, Note_on_c, 3, 72, 0
5, 98399, Note_on_c, 3, 78, 0
5, 98400, Note_on_c, 3, 72, 24
5, 98400, Note_on_c, 3, 78, 24
5, 98639, Note_on_c, 3, 78, 0
5, 98639, Note_on_c, 3, 72, 0
5, 98640, Note_on_c, 3, 79, 24
5, 98640, Note_on_c, 3, 71, 24
5, 98699, Note_on_c, 3, 71, 0
5, 98699, Note_on_c, 3, 79, 0
5, 102540, Note_on_c, 3, 79, 44
5, 102540, Note_on_c, 3, 71, 34
5, 102579, Note_on_c, 3, 71, 0
5, 102579, Note_on_c, 3, 79, 0
5, 102600, Note_on_c, 3, 79, 44
5, 102600, Note_on_c, 3, 76, 34
5, 102639, Note_on_c, 3, 76, 0
5, 102639, Note_on_c, 3, 79, 0
5, 102660, Note_on_c, 3, 79, 44
5, 102660, Note_on_c, 3, 74, 34
5, 102699, Note_on_c, 3, 74, 0
5, 102699, Note_on_c, 3, 79, 0
5, 102720, Note_on_c, 3, 73, 34
5, 102720, Note_on_c, 3, 79, 44
5, 102779, Note_on_c, 3, 79, 0
5, 102779, Note_on_c, 3, 73, 0
5, 102780, Note_on_c, 3, 81, 44
5, 102799, Note_on_c, 3, 81, 0
5, 102800, Note_on_c, 3, 79, 45
5, 102819, Note_on_c, 3, 79, 0
5, 102820, Note_on_c, 3, 78, 46
5, 102839, Note_on_c, 3, 78, 0
5, 102840, Note_on_c, 3, 79, 46
5, 102869, Note_on_c, 3, 79, 0
5, 102900, Note_on_c, 3, 81, 48
5, 102929, Note_on_c, 3, 81, 0
5, 102960, Note_on_c, 3, 82, 50
5, 102989, Note_on_c, 3, 82, 0
5, 103020, Note_on_c, 3, 82, 44
5, 103020, Note_on_c, 3, 79, 34
5, 103079, Note_on_c, 3, 79, 0
5, 103079, Note_on_c, 3, 82, 0
5, 103080, Note_on_c, 3, 81, 40
5, 103080, Note_on_c, 3, 77, 31
5, 103139, Note_on_c, 3, 77, 0
5, 103139, Note_on_c, 3, 81, 0
5, 103140, Note_on_c, 3, 79, 36
5, 103140, Note_on_c, 3, 76, 28
5, 103199, Note_on_c, 3, 76, 0
5, 103199, Note_on_c, 3, 79, 0
5, 103200, Note_on_c, 3, 74, 25
5, 103200, Note_on_c, 3, 77, 32
5, 103259, Note_on_c, 3, 77, 0
5, 103259, Note_on_c, 3, 74, 0
5, 103260, Note_on_c, 3, 79, 35
5, 103260, Note_on_c, 3, 76, 27
5, 103279, Note_on_c, 3, 76, 0
5, 103279, Note_on_c, 3, 79, 0
5, 103280, Note_on_c, 3, 74, 27
5, 103280, Note_on_c, 3, 77, 35
5, 103299, Note_on_c, 3, 77, 0
5, 103299, Note_on_c, 3, 74, 0
5, 103300, Note_on_c, 3, 73, 28
5, 103300, Note_on_c, 3, 76, 36
5, 103319, Note_on_c, 3, 76, 0
5, 103319, Note_on_c, 3, 73, 0
5, 103320, Note_on_c, 3, 74, 28
5, 103320, Note_on_c, 3, 77, 37
5, 103349, Note_on_c, 3, 77, 0
5, 103349, Note_on_c, 3, 74, 0
5, 103380, Note_on_c, 3, 79, 40
5, 103380, Note_on_c, 3, 76, 30
5, 103409, Note_on_c, 3, 76, 0
5, 103409, Note_on_c, 3, 79, 0
5, 103440, Note_on_c, 3, 77, 32
5, 103440, Note_on_c, 3, 81, 42
5, 103469, Note_on_c, 3, 81, 0
5, 103469, Note_on_c, 3, 77, 0
5, 103500, Note_on_c, 3, 77, 34
5, 103500, Note_on_c, 3, 81, 44
5, 103559, Note_on_c, 3, 81, 0
5, 103559, Note_on_c, 3, 77, 0
5, 103560, Note_on_c, 3, 79, 44
5, 103560, Note_on_c, 3, 76, 34
5, 103619, Note_on_c, 3, 76, 0
5, 103619, Note_on_c, 3, 79, 0
5, 103620, Note_on_c, 3, 77, 44
5, 103620, Note_on_c, 3, 74, 34
5, 103679, Note_on_c, 3, 74, 0
5, 103679, Note_on_c, 3, 77, 0
5, 103680, Note_on_c, 3, 76, 44
5, 103680, Note_on_c, 3, 72, 34
5, 103739, Note_on_c, 3, 72, 0
5, 103739, Note_on_c, 3, 76, 0
5, 103740, Note_on_c, 3, 74, 44
5, 103740, Note_on_c, 3, 71, 34
5, 103799, Note_on_c, 3, 71, 0
5, 103799, Note_on_c, 3, 74, 0
5, 103800, Note_on_c, 3, 72, 44
5, 103800, Note_on_c, 3, 69, 34
5, 103859, Note_on_c, 3, 69, 0
5, 103859, Note_on_c, 3, 72, 0
5, 103860, Note_on_c, 3, 70, 44
5, 103860, Note_on_c, 3, 67, 34
5, 103919, Note_on_c, 3, 67, 0
5, 103919, Note_on_c, 3, 70, 0
5, 103920, Note_on_c, 3, 65, 34
5, 103920, Note_on_c, 3, 69, 44
5, 103959, Note_on_c, 3, 69, 0
5, 103959, Note_on_c, 3, 65, 0
5, 103980, Note_on_c, 3, 77, 39
5, 103980, Note_on_c, 3, 74, 30
5, 104039, Note_on_c, 3, 74, 0
5, 104039, Note_on_c, 3, 77, 0
5, 104040, Note_on_c, 3, 79, 36
5, 104040, Note_on_c, 3, 76, 28
5, 104099, Note_on_c, 3, 76, 0
5, 104099, Note_on_c, 3, 79, 0
5, 104100, Note_on_c, 3, 77, 25
5, 104100, Note_on_c, 3, 81, 32
5, 104149, Note_on_c, 3, 81, 0
5, 104149, Note_on_c, 3, 77, 0
5, 104160, Note_on_c, 3, 76, 33
5, 104160, Note_on_c, 3, 72, 24
5, 104399, Note_on_c, 3, 72, 0
5, 104399, Note_on_c, 3, 76, 0
5, 104400, Note_on_c, 3, 71, 26
5, 104400, Note_on_c, 3, 74, 31
5, 104449, Note_on_c, 3, 74, 0
5, 104449, Note_on_c, 3, 71, 0
5, 104460, Note_on_c, 3, 67, 35
5, 104519, Note_on_c, 3, 67, 0
5, 104520, Note_on_c, 3, 72, 36
5, 104579, Note_on_c, 3, 72, 0
5, 104580, Note_on_c, 3, 74, 36
5, 104639, Note_on_c, 3, 74, 0
5, 104640, Note_on_c, 3, 76, 37
5, 104699, Note_on_c, 3, 76, 0
5, 104700, Note_on_c, 3, 77, 39
5, 104719, Note_on_c, 3, 77, 0
5, 104720, Note_on_c, 3, 76, 39
5, 104739, Note_on_c, 3, 76, 0
5, 104740, Note_on_c, 3, 74, 40
5, 104759, Note_on_c, 3, 74, 0
5, 104760, Note_on_c, 3, 76, 40
5, 104789, Note_on_c, 3, 76, 0
5, 104820, Note_on_c, 3, 77, 40
5, 104849, Note_on_c, 3, 77, 0
5, 104880, Note_on_c, 3, 79, 42
5, 104909, Note_on_c, 3, 79, 0
5, 104940, Note_on_c, 3, 79, 44
5, 104940, Note_on_c, 3, 76, 34
5, 104969, Note_on_c, 3, 79, 0
5, 104999, Note_on_c, 3, 76, 0
5, 105000, Note_on_c, 3, 79, 44
5, 105000, Note_on_c, 3, 74, 34
5, 105029, Note_on_c, 3, 79, 0
5, 105059, Note_on_c, 3, 74, 0
5, 105060, Note_on_c, 3, 72, 34
5, 105060, Note_on_c, 3, 79, 44
5, 105089, Note_on_c, 3, 79, 0
5, 105119, Note_on_c, 3, 72, 0
5, 105120, Note_on_c, 3, 71, 34
5, 105120, Note_on_c, 3, 79, 44
5, 105179, Note_on_c, 3, 71, 0
5, 105180, Note_on_c, 3, 72, 34
5, 105199, Note_on_c, 3, 72, 0
5, 105200, Note_on_c, 3, 71, 34
5, 105219, Note_on_c, 3, 71, 0
5, 105220, Note_on_c, 3, 69, 34
5, 105239, Note_on_c, 3, 69, 0
5, 105240, Note_on_c, 3, 71, 34
5, 105269, Note_on_c, 3, 71, 0
5, 105300, Note_on_c, 3, 72, 34
5, 105329, Note_on_c, 3, 72, 0
5, 105359, Note_on_c, 3, 79, 0
5, 105360, Note_on_c, 3, 74, 34
5, 105360, Note_on_c, 3, 71, 44
5, 105389, Note_on_c, 3, 71, 0
5, 105389, Note_on_c, 3, 74, 0
5, 105390, Note_on_c, 3, 72, 44
5, 105419, Note_on_c, 3, 72, 0
5, 105420, Note_on_c, 3, 74, 47
5, 105449, Note_on_c, 3, 74, 0
5, 105450, Note_on_c, 3, 76, 48
5, 105479, Note_on_c, 3, 76, 0
5, 105480, Note_on_c, 3, 77, 50
5, 105480, Note_on_c, 3, 74, 39
5, 105509, Note_on_c, 3, 74, 0
5, 105509, Note_on_c, 3, 77, 0
5, 105510, Note_on_c, 3, 79, 52
5, 105539, Note_on_c, 3, 79, 0
5, 105540, Note_on_c, 3, 81, 54
5, 105540, Note_on_c, 3, 74, 42
5, 105569, Note_on_c, 3, 74, 0
5, 105569, Note_on_c, 3, 81, 0
5, 105570, Note_on_c, 3, 83, 56
5, 105599, Note_on_c, 3, 83, 0
5, 105600, Note_on_c, 3, 84, 58
5, 105600, Note_on_c, 3, 72, 45
5, 105629, Note_on_c, 3, 72, 0
5, 105659, Note_on_c, 3, 84, 0
5, 105810, Note_on_c, 3, 69, 30
5, 105810, Note_on_c, 3, 77, 39
5, 105839, Note_on_c, 3, 77, 0
5, 105839, Note_on_c, 3, 69, 0
5, 105840, Note_on_c, 3, 76, 39
5, 105840, Note_on_c, 3, 72, 30
5, 105879, Note_on_c, 3, 72, 0
5, 105879, Note_on_c, 3, 76, 0
5, 105960, Note_on_c, 3, 76, 39
5, 105960, Note_on_c, 3, 72, 30
5, 105989, Note_on_c, 3, 72, 0
5, 105989, Note_on_c, 3, 76, 0
5, 105990, Note_on_c, 3, 74, 38
5, 105990, Note_on_c, 3, 71, 29
5, 106019, Note_on_c, 3, 71, 0
5, 106019, Note_on_c, 3, 74, 0
5, 106020, Note_on_c, 3, 72, 38
5, 106020, Note_on_c, 3, 69, 29
5, 106049, Note_on_c, 3, 69, 0
5, 106049, Note_on_c, 3, 72, 0
5, 106050, Note_on_c, 3, 71, 28
5, 106050, Note_on_c, 3, 74, 37
5, 106069, Note_on_c, 3, 74, 0
5, 106069, Note_on_c, 3, 71, 0
5, 106080, Note_on_c, 3, 74, 37
5, 106080, Note_on_c, 3, 71, 28
5, 106319, Note_on_c, 3, 71, 0
5, 106319, Note_on_c, 3, 74, 0
5, 106320, Note_on_c, 3, 72, 27
5, 106379, Note_on_c, 3, 72, 0
5, 110220, Note_on_c, 3, 67, 35
5, 110279, Note_on_c, 3, 67, 0
5, 110280, Note_on_c, 3, 72, 36
5, 110339, Note_on_c, 3, 72, 0
5, 110340, Note_on_c, 3, 74, 36
5, 110399, Note_on_c, 3, 74, 0
5, 110400, Note_on_c, 3, 76, 37
5, 110459, Note_on_c, 3, 76, 0
5, 110460, Note_on_c, 3, 77, 39
5, 110479, Note_on_c, 3, 77, 0
5, 110480, Note_on_c, 3, 76, 39
5, 110499, Note_on_c, 3, 76, 0
5, 110500, Note_on_c, 3, 74, 40
5, 110519, Note_on_c, 3, 74, 0
5, 110520, Note_on_c, 3, 76, 40
5, 110549, Note_on_c, 3, 76, 0
5, 110580, Note_on_c, 3, 77, 40
5, 110609, Note_on_c, 3, 77, 0
5, 110640, Note_on_c, 3, 79, 42
5, 110669, Note_on_c, 3, 79, 0
5, 110700, Note_on_c, 3, 79, 44
5, 110700, Note_on_c, 3, 76, 34
5, 110729, Note_on_c, 3, 79, 0
5, 110759, Note_on_c, 3, 76, 0
5, 110760, Note_on_c, 3, 79, 44
5, 110760, Note_on_c, 3, 74, 34
5, 110789, Note_on_c, 3, 79, 0
5, 110819, Note_on_c, 3, 74, 0
5, 110820, Note_on_c, 3, 72, 34
5, 110820, Note_on_c, 3, 79, 44
5, 110849, Note_on_c, 3, 79, 0
5, 110879, Note_on_c, 3, 72, 0
5, 110880, Note_on_c, 3, 71, 34
5, 110880, Note_on_c, 3, 79, 44
5, 110939, Note_on_c, 3, 71, 0
5, 110940, Note_on_c, 3, 72, 34
5, 110959, Note_on_c, 3, 72, 0
5, 110960, Note_on_c, 3, 71, 34
5, 110979, Note_on_c, 3, 71, 0
5, 110980, Note_on_c, 3, 69, 34
5, 110999, Note_on_c, 3, 69, 0
5, 111000, Note_on_c, 3, 71, 34
5, 111029, Note_on_c, 3, 71, 0
5, 111060, Note_on_c, 3, 72, 34
5, 111089, Note_on_c, 3, 72, 0
5, 111119, Note_on_c, 3, 79, 0
5, 111120, Note_on_c, 3, 74, 34
5, 111120, Note_on_c, 3, 71, 44
5, 111149, Note_on_c, 3, 71, 0
5, 111149, Note_on_c, 3, 74, 0
5, 111150, Note_on_c, 3, 72, 44
5, 111179, Note_on_c, 3, 72, 0
5, 111180, Note_on_c, 3, 74, 47
5, 111209, Note_on_c, 3, 74, 0
5, 111210, Note_on_c, 3, 76, 48
5, 111239, Note_on_c, 3, 76, 0
5, 111240, Note_on_c, 3, 77, 50
5, 111240, Note_on_c, 3, 74, 39
5, 111269, Note_on_c, 3, 74, 0
5, 111269, Note_on_c, 3, 77, 0
5, 111270, Note_on_c, 3, 79, 52
5, 111299, Note_on_c, 3, 79, 0
5, 111300, Note_on_c, 3, 81, 54
5, 111300, Note_on_c, 3, 74, 42
5, 111329, Note_on_c, 3, 74, 0
5, 111329, Note_on_c, 3, 81, 0
5, 111330, Note_on_c, 3, 83, 56
5, 111359, Note_on_c, 3, 83, 0
5, 111360, Note_on_c, 3, 84, 58
5, 111360, Note_on_c, 3, 72, 45
5, 111389, Note_on_c, 3, 72, 0
5, 111419, Note_on_c, 3, 84, 0
5, 111570, Note_on_c, 3, 69, 30
5, 111570, Note_on_c, 3, 77, 39
5, 111599, Note_on_c, 3, 77, 0
5, 111599, Note_on_c, 3, 69, 0
5, 111600, Note_on_c, 3, 76, 39
5, 111600, Note_on_c, 3, 72, 30
5, 111639, Note_on_c, 3, 72, 0
5, 111639, Note_on_c, 3, 76, 0
5, 111720, Note_on_c, 3, 76, 39
5, 111720, Note_on_c, 3, 72, 30
5, 111749, Note_on_c, 3, 72, 0
5, 111749, Note_on_c, 3, 76, 0
5, 111750, Note_on_c, 3, 74, 38
5, 111750, Note_on_c, 3, 71, 29
5, 111779, Note_on_c, 3, 71, 0
5, 111779, Note_on_c, 3, 74, 0
5, 111780, Note_on_c, 3, 72, 38
5, 111780, Note_on_c, 3, 69, 29
5, 111809, Note_on_c, 3, 69, 0
5, 111809, Note_on_c, 3, 72, 0
5, 111810, Note_on_c, 3, 71, 28
5, 111810, Note_on_c, 3, 74, 37
5, 111829, Note_on_c, 3, 74, 0
5, 111829, Note_on_c, 3, 71, 0
5, 111840, Note_on_c, 3, 74, 37
5, 111840, Note_on_c, 3, 71, 28
5, 112079, Note_on_c, 3, 71, 0
5, 112079, Note_on_c, 3, 74, 0
5, 112080, Note_on_c, 3, 72, 27
5, 112139, Note_on_c, 3, 72, 0
5, 112860, Note_on_c, 3, 71, 33
5, 112860, Note_on_c, 3, 74, 43
5, 112879, Note_on_c, 3, 74, 0
5, 112879, Note_on_c, 3, 71, 0
5, 112920, Note_on_c, 3, 72, 29
5, 112920, Note_on_c, 3, 75, 38
5, 112939, Note_on_c, 3, 75, 0
5, 112939, Note_on_c, 3, 72, 0
5, 112980, Note_on_c, 3, 71, 26
5, 112980, Note_on_c, 3, 74, 33
5, 112999, Note_on_c, 3, 74, 0
5, 112999, Note_on_c, 3, 71, 0
5, 113040, Note_on_c, 3, 75, 28
5, 113040, Note_on_c, 3, 72, 22
5, 113159, Note_on_c, 3, 72, 0
5, 113159, Note_on_c, 3, 75, 0
5, 113820, Note_on_c, 3, 78, 43
5, 113820, Note_on_c, 3, 69, 33
5, 113839, Note_on_c, 3, 69, 0
5, 113839, Note_on_c, 3, 78, 0
5, 113880, Note_on_c, 3, 67, 29
5, 113880, Note_on_c, 3, 79, 38
5, 113899, Note_on_c, 3, 79, 0
5, 113899, Note_on_c, 3, 67, 0
5, 113940, Note_on_c, 3, 78, 33
5, 113940, Note_on_c, 3, 69, 26
5, 113959, Note_on_c, 3, 69, 0
5, 113959, Note_on_c, 3, 78, 0
5, 114000, Note_on_c, 3, 67, 22
5, 114000, Note_on_c, 3, 79, 28
5, 114119, Note_on_c, 3, 79, 0
5, 114119, Note_on_c, 3, 67, 0
5, 115740, Note_on_c, 3, 81, 43
5, 115740, Note_on_c, 3, 72, 33
5, 115769, Note_on_c, 3, 72, 0
5, 115769, Note_on_c, 3, 81, 0
5, 115800, Note_on_c, 3, 70, 29
5, 115800, Note_on_c, 3, 79, 38
5, 115829, Note_on_c, 3, 79, 0
5, 115829, Note_on_c, 3, 70, 0
5, 115860, Note_on_c, 3, 81, 33
5, 115860, Note_on_c, 3, 72, 26
5, 115889, Note_on_c, 3, 72, 0
5, 115889, Note_on_c, 3, 81, 0
5, 115920, Note_on_c, 3, 70, 22
5, 115920, Note_on_c, 3, 79, 28
5, 116039, Note_on_c, 3, 79, 0
5, 116039, Note_on_c, 3, 70, 0
5, 116700, Note_on_c, 3, 78, 43
5, 116700, Note_on_c, 3, 69, 33
5, 116719, Note_on_c, 3, 69, 0
5, 116719, Note_on_c, 3, 78, 0
5, 116760, Note_on_c, 3, 79, 38
5, 116760, Note_on_c, 3, 67, 29
5, 116779, Note_on_c, 3, 67, 0
5, 116779, Note_on_c, 3, 79, 0
5, 116820, Note_on_c, 3, 78, 33
5, 116820, Note_on_c, 3, 69, 26
5, 116839, Note_on_c, 3, 69, 0
5, 116839, Note_on_c, 3, 78, 0
5, 116880, Note_on_c, 3, 79, 28
5, 116880, Note_on_c, 3, 67, 22
5, 116999, Note_on_c, 3, 67, 0
5, 116999, Note_on_c, 3, 79, 0
5, 117660, Note_on_c, 3, 71, 33
5, 117660, Note_on_c, 3, 74, 43
5, 117679, Note_on_c, 3, 74, 0
5, 117679, Note_on_c, 3, 71, 0
5, 117720, Note_on_c, 3, 75, 38
5, 117720, Note_on_c, 3, 72, 29
5, 117739, Note_on_c, 3, 72, 0
5, 117739, Note_on_c, 3, 75, 0
5, 117780, Note_on_c, 3, 74, 33
5, 117780, Note_on_c, 3, 71, 26
5, 117799, Note_on_c, 3, 71, 0
5, 117799, Note_on_c, 3, 74, 0
5, 117840, Note_on_c, 3, 75, 28
5, 117840, Note_on_c, 3, 72, 22
5, 117959, Note_on_c, 3, 72, 0
5, 117959, Note_on_c, 3, 75, 0
5, 119580, Note_on_c, 3, 71, 28
5, 119580, Note_on_c, 3, 74, 28
5, 119603, Note_on_c, 3, 74, 0
5, 119603, Note_on_c, 3, 71, 0
5, 119640, Note_on_c, 3, 75, 29
5, 119640, Note_on_c, 3, 72, 29
5, 119663, Note_on_c, 3, 72, 0
5, 119663, Note_on_c, 3, 75, 0
5, 119700, Note_on_c, 3, 71, 29
5, 119700, Note_on_c, 3, 74, 29
5, 119723, Note_on_c, 3, 74, 0
5, 119723, Note_on_c, 3, 71, 0
5, 119760, Note_on_c, 3, 72, 30
5, 119760, Note_on_c, 3, 75, 30
5, 119849, Note_on_c, 3, 75, 0
5, 119849, Note_on_c, 3, 72, 0
5, 120060, Note_on_c, 3, 74, 36
5, 120060, Note_on_c, 3, 71, 36
5, 120083, Note_on_c, 3, 71, 0
5, 120083, Note_on_c, 3, 74, 0
5, 120120, Note_on_c, 3, 72, 37
5, 120120, Note_on_c, 3, 76, 37
5, 120143, Note_on_c, 3, 76, 0
5, 120143, Note_on_c, 3, 72, 0
5, 120180, Note_on_c, 3, 71, 37
5, 120180, Note_on_c, 3, 74, 37
5, 120203, Note_on_c, 3, 74, 0
5, 120203, Note_on_c, 3, 71, 0
5, 120240, Note_on_c, 3, 76, 38
5, 120240, Note_on_c, 3, 72, 38
5, 120329, Note_on_c, 3, 72, 0
5, 120329, Note_on_c, 3, 76, 0
5, 120540, Note_on_c, 3, 76, 41
5, 120540, Note_on_c, 3, 79, 41
5, 120563, Note_on_c, 3, 79, 0
5, 120563, Note_on_c, 3, 76, 0
5, 120600, Note_on_c, 3, 77, 41
5, 120600, Note_on_c, 3, 81, 41
5, 120623, Note_on_c, 3, 81, 0
5, 120623, Note_on_c, 3, 77, 0
5, 120660, Note_on_c, 3, 76, 42
5, 120660, Note_on_c, 3, 79, 42
5, 120683, Note_on_c, 3, 79, 0
5, 120683, Note_on_c, 3, 76, 0
5, 120720, Note_on_c, 3, 77, 42
5, 120720, Note_on_c, 3, 81, 42
5, 120839, Note_on_c, 3, 81, 0
5, 120839, Note_on_c, 3, 77, 0
5, 144090, Note_on_c, 3, 72, 44
5, 144105, Note_on_c, 3, 74, 44
5, 144109, Note_on_c, 3, 72, 0
5, 144120, Note_on_c, 3, 75, 52
5, 144124, Note_on_c, 3, 74, 0
5, 144210, Note_on_c, 3, 74, 44
5, 144219, Note_on_c, 3, 75, 0
5, 144239, Note_on_c, 3, 74, 0
5, 144240, Note_on_c, 3, 72, 44
5, 144259, Note_on_c, 3, 72, 0
5, 144300, Note_on_c, 3, 72, 44
5, 144419, Note_on_c, 3, 72, 0
5, 144420, Note_on_c, 3, 75, 44
5, 144450, Note_on_c, 3, 74, 39
5, 144459, Note_on_c, 3, 75, 0
5, 144480, Note_on_c, 3, 72, 33
5, 144489, Note_on_c, 3, 74, 0
5, 144599, Note_on_c, 3, 72, 0
5, 150210, Note_on_c, 3, 72, 44
5, 150225, Note_on_c, 3, 74, 44
5, 150229, Note_on_c, 3, 72, 0
5, 150240, Note_on_c, 3, 75, 52
5, 150244, Note_on_c, 3, 74, 0
5, 150330, Note_on_c, 3, 74, 44
5, 150339, Note_on_c, 3, 75, 0
5, 150359, Note_on_c, 3, 74, 0
5, 150360, Note_on_c, 3, 72, 44
5, 150379, Note_on_c, 3, 72, 0
5, 150420, Note_on_c, 3, 72, 44
5, 150539, Note_on_c, 3, 72, 0
5, 150540, Note_on_c, 3, 75, 44
5, 150570, Note_on_c, 3, 74, 39
5, 150579, Note_on_c, 3, 75, 0
5, 150600, Note_on_c, 3, 72, 33
5, 150609, Note_on_c, 3, 74, 0
5, 150719, Note_on_c, 3, 72, 0
5, 151650, Note_on_c, 3, 72, 31
5, 151665, Note_on_c, 3, 74, 31
5, 151669, Note_on_c, 3, 72, 0
5, 151680, Note_on_c, 3, 75, 36
5, 151684, Note_on_c, 3, 74, 0
5, 151770, Note_on_c, 3, 74, 31
5, 151779, Note_on_c, 3, 75, 0
5, 151799, Note_on_c, 3, 74, 0
5, 151800, Note_on_c, 3, 72, 31
5, 151819, Note_on_c, 3, 72, 0
5, 151860, Note_on_c, 3, 72, 31
5, 151979, Note_on_c, 3, 72, 0
5, 151980, Note_on_c, 3, 75, 31
5, 152010, Note_on_c, 3, 74, 27
5, 152019, Note_on_c, 3, 75, 0
5, 152040, Note_on_c, 3, 72, 28
5, 152049, Note_on_c, 3, 74, 0
5, 152099, Note_on_c, 3, 72, 0
5, 152100, Note_on_c, 3, 75, 28
5, 152129, Note_on_c, 3, 75, 0
5, 152160, Note_on_c, 3, 75, 28
5, 152189, Note_on_c, 3, 75, 0
5, 152220, Note_on_c, 3, 75, 28
5, 152249, Note_on_c, 3, 75, 0
5, 152280, Note_on_c, 3, 75, 28
5, 152309, Note_on_c, 3, 75, 0
5, 152340, Note_on_c, 3, 75, 28
5, 152369, Note_on_c, 3, 75, 0
5, 152460, Note_on_c, 3, 74, 28
5, 152489, Note_on_c, 3, 74, 0
5, 152520, Note_on_c, 3, 74, 28
5, 152549, Note_on_c, 3, 74, 0
5, 152640, Note_on_c, 3, 74, 28
5, 152669, Note_on_c, 3, 74, 0
5, 152700, Note_on_c, 3, 74, 28
5, 152729, Note_on_c, 3, 74, 0
5, 152820, Note_on_c, 3, 75, 28
5, 152849, Note_on_c, 3, 75, 0
5, 152880, Note_on_c, 3, 75, 28
5, 152909, Note_on_c, 3, 75, 0
5, 152940, Note_on_c, 3, 75, 28
5, 152969, Note_on_c, 3, 75, 0
5, 153000, Note_on_c, 3, 75, 28
5, 153029, Note_on_c, 3, 75, 0
5, 153060, Note_on_c, 3, 75, 28
5, 153089, Note_on_c, 3, 75, 0
5, 153180, Note_on_c, 3, 74, 27
5, 153209, Note_on_c, 3, 74, 0
5, 153240, Note_on_c, 3, 74, 27
5, 153269, Note_on_c, 3, 74, 0
5, 153360, Note_on_c, 3, 74, 28
5, 153389, Note_on_c, 3, 74, 0
5, 153420, Note_on_c, 3, 74, 29
5, 153449, Note_on_c, 3, 74, 0
5, 153479, Control_c, 3, 11, 66
5, 153480, Note_on_c, 3, 80, 50
5, 153481, Control_c, 3, 11, 67
5, 153497, Control_c, 3, 11, 68
5, 153513, Control_c, 3, 11, 69
5, 153529, Control_c, 3, 11, 70
5, 153540, Note_on_c, 3, 84, 60
5, 153545, Control_c, 3, 11, 71
5, 153561, Control_c, 3, 11, 72
5, 153569, Note_on_c, 3, 84, 0
5, 153577, Control_c, 3, 11, 73
5, 153593, Control_c, 3, 11, 74
5, 153600, Note_on_c, 3, 84, 60
5, 153609, Control_c, 3, 11, 75
5, 153625, Control_c, 3, 11, 76
5, 153629, Note_on_c, 3, 84, 0
5, 153641, Control_c, 3, 11, 77
5, 153657, Control_c, 3, 11, 78
5, 153660, Note_on_c, 3, 84, 59
5, 153673, Control_c, 3, 11, 80
5, 153689, Note_on_c, 3, 84, 0
5, 153689, Control_c, 3, 11, 82
5, 153705, Control_c, 3, 11, 84
5, 153720, Note_on_c, 3, 84, 55
5, 153721, Control_c, 3, 11, 86
5, 153737, Control_c, 3, 11, 88
5, 153749, Note_on_c, 3, 84, 0
5, 153753, Control_c, 3, 11, 90
5, 153769, Control_c, 3, 11, 92
5, 153780, Note_on_c, 3, 84, 51
5, 153785, Control_c, 3, 11, 94
5, 153801, Control_c, 3, 11, 96
5, 153809, Note_on_c, 3, 84, 0
5, 153817, Control_c, 3, 11, 98
5, 153833, Control_c, 3, 11, 100
5, 153849, Control_c, 3, 11, 103
5, 153865, Control_c, 3, 11, 106
5, 153881, Control_c, 3, 11, 109
5, 153897, Control_c, 3, 11, 112
5, 153900, Note_on_c, 3, 84, 44
5, 153913, Control_c, 3, 11, 115
5, 153929, Note_on_c, 3, 84, 0
5, 153929, Control_c, 3, 11, 118
5, 153945, Control_c, 3, 11, 121
5, 153960, Note_on_c, 3, 84, 35
5, 153961, Control_c, 3, 11, 124
5, 153977, Control_c, 3, 11, 127
5, 153989, Note_on_c, 3, 84, 0
5, 154019, Note_on_c, 3, 80, 0
5, 154019, Control_c, 3, 11, 127
5, 154020, Note_on_c, 3, 79, 35
5, 154080, Note_on_c, 3, 83, 36
5, 154109, Note_on_c, 3, 83, 0
5, 154140, Note_on_c, 3, 83, 37
5, 154169, Note_on_c, 3, 83, 0
5, 154200, Note_on_c, 3, 84, 43
5, 154259, Note_on_c, 3, 79, 0
5, 154289, Note_on_c, 3, 84, 0
5, 154560, Note_on_c, 3, 72, 44
5, 154649, Note_on_c, 3, 72, 0
5, 154650, Note_on_c, 3, 71, 44
5, 154679, Note_on_c, 3, 71, 0
5, 154680, Note_on_c, 3, 72, 45
5, 154709, Note_on_c, 3, 72, 0
5, 154710, Note_on_c, 3, 74, 45
5, 154739, Note_on_c, 3, 74, 0
5, 154740, Note_on_c, 3, 75, 45
5, 154829, Note_on_c, 3, 75, 0
5, 154830, Note_on_c, 3, 74, 46
5, 154859, Note_on_c, 3, 74, 0
5, 154860, Note_on_c, 3, 75, 47
5, 154889, Note_on_c, 3, 75, 0
5, 154890, Note_on_c, 3, 77, 47
5, 154919, Note_on_c, 3, 77, 0
5, 154920, Note_on_c, 3, 79, 47
5, 154979, Note_on_c, 3, 79, 0
5, 155100, Note_on_c, 3, 74, 49
5, 155100, Note_on_c, 3, 83, 59
5, 155159, Note_on_c, 3, 83, 0
5, 155159, Note_on_c, 3, 74, 0
5, 155280, Note_on_c, 3, 75, 51
5, 155280, Note_on_c, 3, 84, 61
5, 155339, Note_on_c, 3, 84, 0
5, 155339, Note_on_c, 3, 75, 0
5, 155339, End_track
6, 0, Start_track
6, 0, MIDI_port, 0
6, 0, Title_t, "Clarinet"
6, 20, Control_c, 4, 121, 0
6, 21, Control_c, 4, 11, 127
6, 21, Control_c, 4, 7, 127
6, 22, Control_c, 4, 93, 10
6, 22, Control_c, 4, 91, 79
6, 25, Control_c, 4, 10, 54
6, 26, Pitch_bend_c, 4, 8192
6, 27, Control_c, 4, 0, 0
6, 28, Control_c, 4, 32, 0
6, 29, Program_c, 4, 71
6, 960, Note_on_c, 4, 63, 34
6, 960, Note_on_c, 4, 72, 44
6, 1019, Note_on_c, 4, 72, 0
6, 1019, Note_on_c, 4, 63, 0
6, 1200, Note_on_c, 4, 71, 44
6, 1200, Note_on_c, 4, 62, 34
6, 1259, Note_on_c, 4, 62, 0
6, 1259, Note_on_c, 4, 71, 0
6, 1440, Note_on_c, 4, 63, 34
6, 1440, Note_on_c, 4, 72, 34
6, 1499, Note_on_c, 4, 72, 0
6, 1499, Note_on_c, 4, 63, 0
6, 3840, Note_on_c, 4, 70, 27
6, 3840, Note_on_c, 4, 74, 35
6, 4079, Note_on_c, 4, 74, 0
6, 4079, Note_on_c, 4, 70, 0
6, 4080, Note_on_c, 4, 69, 27
6, 4080, Note_on_c, 4, 72, 35
6, 4319, Note_on_c, 4, 72, 0
6, 4319, Note_on_c, 4, 69, 0
6, 4320, Note_on_c, 4, 67, 27
6, 4320, Note_on_c, 4, 70, 27
6, 4439, Note_on_c, 4, 67, 0
6, 4449, Note_on_c, 4, 70, 0
6, 4800, Note_on_c, 4, 63, 34
6, 4800, Note_on_c, 4, 72, 44
6, 4859, Note_on_c, 4, 72, 0
6, 4859, Note_on_c, 4, 63, 0
6, 5040, Note_on_c, 4, 71, 44
6, 5040, Note_on_c, 4, 62, 34
6, 5099, Note_on_c, 4, 62, 0
6, 5099, Note_on_c, 4, 71, 0
6, 5280, Note_on_c, 4, 63, 24
6, 5280, Note_on_c, 4, 72, 34
6, 5359, Note_on_c, 4, 72, 0
6, 5359, Note_on_c, 4, 63, 0
6, 7680, Note_on_c, 4, 70, 27
6, 7680, Note_on_c, 4, 74, 35
6, 7919, Note_on_c, 4, 74, 0
6, 7919, Note_on_c, 4, 70, 0
6, 7920, Note_on_c, 4, 69, 27
6, 7920, Note_on_c, 4, 72, 35
6, 8159, Note_on_c, 4, 72, 0
6, 8159, Note_on_c, 4, 69, 0
6, 8160, Note_on_c, 4, 67, 27
6, 8160, Note_on_c, 4, 70, 27
6, 8279, Note_on_c, 4, 67, 0
6, 8289, Note_on_c, 4, 70, 0
6, 8640, Note_on_c, 4, 74, 23
6, 8640, Note_on_c, 4, 65, 23
6, 8699, Note_on_c, 4, 65, 0
6, 8699, Note_on_c, 4, 74, 0
6, 8880, Note_on_c, 4, 72, 23
6, 8880, Note_on_c, 4, 63, 23
6, 8939, Note_on_c, 4, 63, 0
6, 8939, Note_on_c, 4, 72, 0
6, 9120, Note_on_c, 4, 71, 23
6, 9120, Note_on_c, 4, 62, 23
6, 9179, Note_on_c, 4, 62, 0
6, 9179, Note_on_c, 4, 71, 0
6, 11520, Note_on_c, 4, 75, 23
6, 11520, Note_on_c, 4, 67, 23
6, 11759, Note_on_c, 4, 75, 0
6, 11760, Note_on_c, 4, 74, 23
6, 11999, Note_on_c, 4, 74, 0
6, 12000, Note_on_c, 4, 72, 23
6, 12119, Note_on_c, 4, 72, 0
6, 12119, Note_on_c, 4, 67, 0
6, 12480, Note_on_c, 4, 74, 23
6, 12480, Note_on_c, 4, 65, 23
6, 12519, Note_on_c, 4, 65, 0
6, 12519, Note_on_c, 4, 74, 0
6, 12720, Note_on_c, 4, 72, 23
6, 12720, Note_on_c, 4, 63, 23
6, 12759, Note_on_c, 4, 63, 0
6, 12759, Note_on_c, 4, 72, 0
6, 12960, Note_on_c, 4, 71, 23
6, 12960, Note_on_c, 4, 62, 23
6, 12999, Note_on_c, 4, 62, 0
6, 12999, Note_on_c, 4, 71, 0
6, 15360, Note_on_c, 4, 75, 23
6, 15360, Note_on_c, 4, 67, 23
6, 15599, Note_on_c, 4, 75, 0
6, 15600, Note_on_c, 4, 74, 23
6, 15839, Note_on_c, 4, 74, 0
6, 15840, Note_on_c, 4, 72, 23
6, 15959, Note_on_c, 4, 72, 0
6, 15959, Note_on_c, 4, 67, 0
6, 31680, Note_on_c, 4, 67, 22
6, 31739, Note_on_c, 4, 67, 0
6, 31800, Note_on_c, 4, 67, 22
6, 31919, Note_on_c, 4, 67, 0
6, 31920, Note_on_c, 4, 68, 22
6, 31979, Note_on_c, 4, 68, 0
6, 32040, Note_on_c, 4, 68, 22
6, 32159, Note_on_c, 4, 68, 0
6, 32160, Note_on_c, 4, 67, 22
6, 32219, Note_on_c, 4, 67, 0
6, 32520, Note_on_c, 4, 72, 22
6, 32579, Note_on_c, 4, 72, 0
6, 32640, Note_on_c, 4, 72, 22
6, 32640, Note_on_c, 4, 68, 32
6, 32879, Note_on_c, 4, 72, 0
6, 33119, Note_on_c, 4, 68, 0
6, 33120, Note_on_c, 4, 67, 22
6, 33239, Note_on_c, 4, 67, 0
6, 33600, Note_on_c, 4, 68, 22
6, 33600, Note_on_c, 4, 72, 22
6, 33839, Note_on_c, 4, 72, 0
6, 33839, Note_on_c, 4, 68, 0
6, 33840, Note_on_c, 4, 65, 25
6, 33840, Note_on_c, 4, 70, 25
6, 34079, Note_on_c, 4, 70, 0
6, 34080, Note_on_c, 4, 74, 28
6, 34319, Note_on_c, 4, 74, 0
6, 34319, Note_on_c, 4, 65, 0
6, 34320, Note_on_c, 4, 75, 31
6, 34320, Note_on_c, 4, 67, 31
6, 34439, Note_on_c, 4, 75, 0
6, 34440, Note_on_c, 4, 70, 33
6, 34679, Note_on_c, 4, 70, 0
6, 34679, Note_on_c, 4, 67, 0
6, 34680, Note_on_c, 4, 67, 42
6, 34680, Note_on_c, 4, 70, 22
6, 34919, Note_on_c, 4, 70, 0
6, 34919, Note_on_c, 4, 67, 0
6, 34920, Note_on_c, 4, 72, 22
6, 34920, Note_on_c, 4, 69, 22
6, 35039, Note_on_c, 4, 69, 0
6, 35039, Note_on_c, 4, 72, 0
6, 35040, Note_on_c, 4, 70, 22
6, 35040, Note_on_c, 4, 67, 22
6, 35159, Note_on_c, 4, 67, 0
6, 35159, Note_on_c, 4, 70, 0
6, 39360, Note_on_c, 4, 67, 29
6, 39839, Note_on_c, 4, 67, 0
6, 39839, Control_c, 4, 11, 46
6, 39840, Note_on_c, 4, 68, 53
6, 39841, Control_c, 4, 11, 47
6, 39851, Control_c, 4, 11, 48
6, 39861, Control_c, 4, 11, 49
6, 39871, Control_c, 4, 11, 50
6, 39881, Control_c, 4, 11, 51
6, 39891, Control_c, 4, 11, 52
6, 39901, Control_c, 4, 11, 53
6, 39911, Control_c, 4, 11, 54
6, 39921, Control_c, 4, 11, 55
6, 39931, Control_c, 4, 11, 56
6, 39941, Control_c, 4, 11, 58
6, 39951, Control_c, 4, 11, 60
6, 39961, Control_c, 4, 11, 62
6, 39971, Control_c, 4, 11, 64
6, 39981, Control_c, 4, 11, 66
6, 39991, Control_c, 4, 11, 68
6, 40001, Control_c, 4, 11, 70
6, 40011, Control_c, 4, 11, 72
6, 40021, Control_c, 4, 11, 74
6, 40031, Control_c, 4, 11, 76
6, 40041, Control_c, 4, 11, 79
6, 40051, Control_c, 4, 11, 82
6, 40061, Control_c, 4, 11, 85
6, 40071, Control_c, 4, 11, 88
6, 40081, Control_c, 4, 11, 91
6, 40091, Control_c, 4, 11, 94
6, 40101, Control_c, 4, 11, 97
6, 40111, Control_c, 4, 11, 100
6, 40121, Control_c, 4, 11, 103
6, 40131, Control_c, 4, 11, 106
6, 40141, Control_c, 4, 11, 110
6, 40151, Control_c, 4, 11, 114
6, 40161, Control_c, 4, 11, 118
6, 40171, Control_c, 4, 11, 122
6, 40181, Control_c, 4, 11, 126
6, 40199, Note_on_c, 4, 68, 0
6, 40199, Control_c, 4, 11, 127
6, 40199, Control_c, 4, 11, 127
6, 40200, Note_on_c, 4, 62, 33
6, 40200, Note_on_c, 4, 71, 33
6, 40319, Note_on_c, 4, 71, 0
6, 40319, Note_on_c, 4, 62, 0
6, 40320, Note_on_c, 4, 72, 23
6, 40320, Note_on_c, 4, 63, 33
6, 40559, Note_on_c, 4, 63, 0
6, 40559, Note_on_c, 4, 72, 0
6, 40560, Note_on_c, 4, 65, 23
6, 40560, Note_on_c, 4, 74, 33
6, 40799, Note_on_c, 4, 74, 0
6, 40799, Note_on_c, 4, 65, 0
6, 40800, Note_on_c, 4, 67, 23
6, 40800, Note_on_c, 4, 75, 23
6, 40919, Note_on_c, 4, 75, 0
6, 40919, Note_on_c, 4, 67, 0
6, 41279, Control_c, 4, 11, 46
6, 41280, Note_on_c, 4, 68, 63
6, 41281, Control_c, 4, 11, 47
6, 41301, Control_c, 4, 11, 48
6, 41321, Control_c, 4, 11, 49
6, 41341, Control_c, 4, 11, 50
6, 41361, Control_c, 4, 11, 51
6, 41381, Control_c, 4, 11, 52
6, 41401, Control_c, 4, 11, 53
6, 41421, Control_c, 4, 11, 54
6, 41441, Control_c, 4, 11, 55
6, 41461, Control_c, 4, 11, 56
6, 41481, Control_c, 4, 11, 58
6, 41501, Control_c, 4, 11, 60
6, 41519, Note_on_c, 4, 68, 0
6, 41519, Control_c, 4, 11, 127
6, 41519, Control_c, 4, 11, 127
6, 41520, Note_on_c, 4, 63, 43
6, 41520, Note_on_c, 4, 70, 53
6, 41521, Control_c, 4, 11, 62
6, 41541, Control_c, 4, 11, 64
6, 41561, Control_c, 4, 11, 66
6, 41581, Control_c, 4, 11, 68
6, 41601, Control_c, 4, 11, 70
6, 41621, Control_c, 4, 11, 72
6, 41641, Control_c, 4, 11, 74
6, 41661, Control_c, 4, 11, 76
6, 41681, Control_c, 4, 11, 79
6, 41701, Control_c, 4, 11, 82
6, 41721, Control_c, 4, 11, 85
6, 41741, Control_c, 4, 11, 88
6, 41759, Note_on_c, 4, 70, 0
6, 41759, Control_c, 4, 11, 127
6, 41760, Note_on_c, 4, 67, 43
6, 41761, Control_c, 4, 11, 91
6, 41781, Control_c, 4, 11, 94
6, 41801, Control_c, 4, 11, 97
6, 41821, Control_c, 4, 11, 100
6, 41841, Control_c, 4, 11, 103
6, 41861, Control_c, 4, 11, 106
6, 41881, Control_c, 4, 11, 110
6, 41901, Control_c, 4, 11, 114
6, 41921, Control_c, 4, 11, 118
6, 41941, Control_c, 4, 11, 122
6, 41961, Control_c, 4, 11, 126
6, 41999, Note_on_c, 4, 67, 0
6, 41999, Control_c, 4, 11, 127
6, 42000, Note_on_c, 4, 68, 33
6, 42059, Note_on_c, 4, 63, 0
6, 42119, Note_on_c, 4, 68, 0
6, 42120, Note_on_c, 4, 63, 43
6, 42120, Note_on_c, 4, 60, 33
6, 42329, Note_on_c, 4, 60, 0
6, 42329, Note_on_c, 4, 63, 0
6, 42360, Note_on_c, 4, 63, 43
6, 42360, Note_on_c, 4, 60, 33
6, 42569, Note_on_c, 4, 60, 0
6, 42569, Note_on_c, 4, 63, 0
6, 42600, Note_on_c, 4, 62, 33
6, 42600, Note_on_c, 4, 65, 33
6, 42719, Note_on_c, 4, 65, 0
6, 42719, Note_on_c, 4, 62, 0
6, 42720, Note_on_c, 4, 60, 23
6, 42720, Note_on_c, 4, 63, 23
6, 42839, Note_on_c, 4, 63, 0
6, 42839, Note_on_c, 4, 60, 0
6, 50760, Note_on_c, 4, 67, 49
6, 50789, Note_on_c, 4, 67, 0
6, 50850, Note_on_c, 4, 67, 49
6, 50879, Note_on_c, 4, 67, 0
6, 50880, Note_on_c, 4, 72, 49
6, 50969, Note_on_c, 4, 72, 0
6, 51000, Note_on_c, 4, 72, 49
6, 51029, Note_on_c, 4, 72, 0
6, 51090, Note_on_c, 4, 72, 49
6, 51119, Note_on_c, 4, 72, 0
6, 51120, Note_on_c, 4, 71, 49
6, 51209, Note_on_c, 4, 71, 0
6, 51240, Note_on_c, 4, 71, 49
6, 51269, Note_on_c, 4, 71, 0
6, 51330, Note_on_c, 4, 71, 49
6, 51359, Note_on_c, 4, 71, 0
6, 51360, Note_on_c, 4, 72, 49
6, 51449, Note_on_c, 4, 72, 0
6, 51480, Note_on_c, 4, 63, 49
6, 51509, Note_on_c, 4, 63, 0
6, 51570, Note_on_c, 4, 63, 49
6, 51599, Note_on_c, 4, 63, 0
6, 51600, Note_on_c, 4, 67, 49
6, 51689, Note_on_c, 4, 67, 0
6, 51720, Note_on_c, 4, 72, 49
6, 51749, Note_on_c, 4, 72, 0
6, 51810, Note_on_c, 4, 72, 49
6, 51839, Note_on_c, 4, 72, 0
6, 51840, Note_on_c, 4, 75, 49
6, 51840, Note_on_c, 4, 72, 49
6, 52079, Note_on_c, 4, 75, 0
6, 52080, Note_on_c, 4, 78, 49
6, 52319, Note_on_c, 4, 78, 0
6, 52319, Note_on_c, 4, 72, 0
6, 52320, Note_on_c, 4, 79, 49
6, 52320, Note_on_c, 4, 71, 40
6, 52409, Note_on_c, 4, 71, 0
6, 52409, Note_on_c, 4, 79, 0
6, 52800, Note_on_c, 4, 68, 40
6, 52800, Note_on_c, 4, 75, 40
6, 53279, Note_on_c, 4, 75, 0
6, 53279, Note_on_c, 4, 68, 0
6, 53280, Note_on_c, 4, 70, 45
6, 53280, Note_on_c, 4, 79, 45
6, 53759, Note_on_c, 4, 79, 0
6, 53759, Note_on_c, 4, 70, 0
6, 53760, Note_on_c, 4, 70, 49
6, 53760, Note_on_c, 4, 79, 49
6, 53849, Note_on_c, 4, 79, 0
6, 53849, Note_on_c, 4, 70, 0
6, 53880, Note_on_c, 4, 70, 49
6, 53880, Note_on_c, 4, 79, 49
6, 53909, Note_on_c, 4, 79, 0
6, 53909, Note_on_c, 4, 70, 0
6, 53970, Note_on_c, 4, 70, 49
6, 53970, Note_on_c, 4, 79, 49
6, 53999, Note_on_c, 4, 79, 0
6, 53999, Note_on_c, 4, 70, 0
6, 54000, Note_on_c, 4, 78, 49
6, 54000, Note_on_c, 4, 69, 49
6, 54089, Note_on_c, 4, 69, 0
6, 54089, Note_on_c, 4, 78, 0
6, 54120, Note_on_c, 4, 69, 49
6, 54120, Note_on_c, 4, 78, 49
6, 54149, Note_on_c, 4, 78, 0
6, 54149, Note_on_c, 4, 69, 0
6, 54210, Note_on_c, 4, 78, 49
6, 54210, Note_on_c, 4, 69, 49
6, 54239, Note_on_c, 4, 69, 0
6, 54239, Note_on_c, 4, 78, 0
6, 54240, Note_on_c, 4, 79, 49
6, 54240, Note_on_c, 4, 70, 49
6, 54329, Note_on_c, 4, 70, 0
6, 54329, Note_on_c, 4, 79, 0
6, 58440, Note_on_c, 4, 75, 47
6, 58489, Note_on_c, 4, 75, 0
6, 58530, Note_on_c, 4, 75, 47
6, 58559, Note_on_c, 4, 75, 0
6, 58560, Note_on_c, 4, 74, 47
6, 58649, Note_on_c, 4, 74, 0
6, 58680, Note_on_c, 4, 74, 47
6, 58729, Note_on_c, 4, 74, 0
6, 58770, Note_on_c, 4, 74, 47
6, 58799, Note_on_c, 4, 74, 0
6, 58800, Note_on_c, 4, 72, 47
6, 58889, Note_on_c, 4, 72, 0
6, 58920, Note_on_c, 4, 72, 47
6, 58969, Note_on_c, 4, 72, 0
6, 59010, Note_on_c, 4, 72, 47
6, 59039, Note_on_c, 4, 72, 0
6, 59040, Note_on_c, 4, 71, 47
6, 59129, Note_on_c, 4, 71, 0
6, 59160, Note_on_c, 4, 71, 47
6, 59209, Note_on_c, 4, 71, 0
6, 59250, Note_on_c, 4, 71, 47
6, 59279, Note_on_c, 4, 71, 0
6, 59280, Note_on_c, 4, 71, 47
6, 59339, Note_on_c, 4, 71, 0
6, 59400, Note_on_c, 4, 71, 47
6, 59400, Note_on_c, 4, 68, 47
6, 59429, Note_on_c, 4, 68, 0
6, 59429, Note_on_c, 4, 71, 0
6, 59490, Note_on_c, 4, 68, 47
6, 59490, Note_on_c, 4, 71, 47
6, 59519, Note_on_c, 4, 71, 0
6, 59519, Note_on_c, 4, 68, 0
6, 59520, Note_on_c, 4, 67, 47
6, 59520, Note_on_c, 4, 72, 47
6, 59609, Note_on_c, 4, 72, 0
6, 59609, Note_on_c, 4, 67, 0
6, 59640, Note_on_c, 4, 72, 47
6, 59640, Note_on_c, 4, 67, 47
6, 59669, Note_on_c, 4, 67, 0
6, 59669, Note_on_c, 4, 72, 0
6, 59730, Note_on_c, 4, 72, 47
6, 59730, Note_on_c, 4, 67, 47
6, 59759, Note_on_c, 4, 67, 0
6, 59759, Note_on_c, 4, 72, 0
6, 59760, Note_on_c, 4, 74, 47
6, 59760, Note_on_c, 4, 71, 47
6, 59849, Note_on_c, 4, 71, 0
6, 59849, Note_on_c, 4, 74, 0
6, 59880, Note_on_c, 4, 71, 47
6, 59880, Note_on_c, 4, 74, 47
6, 59909, Note_on_c, 4, 74, 0
6, 59909, Note_on_c, 4, 71, 0
6, 59970, Note_on_c, 4, 74, 47
6, 59970, Note_on_c, 4, 71, 47
6, 59999, Note_on_c, 4, 71, 0
6, 59999, Note_on_c, 4, 74, 0
6, 60000, Note_on_c, 4, 75, 47
6, 60000, Note_on_c, 4, 72, 47
6, 60059, Note_on_c, 4, 72, 0
6, 60059, Note_on_c, 4, 75, 0
6, 60120, Note_on_c, 4, 63, 47
6, 60120, Note_on_c, 4, 67, 47
6, 60179, Note_on_c, 4, 67, 0
6, 60179, Note_on_c, 4, 63, 0
6, 60210, Note_on_c, 4, 63, 47
6, 60210, Note_on_c, 4, 67, 47
6, 60239, Note_on_c, 4, 67, 0
6, 60239, Note_on_c, 4, 63, 0
6, 60240, Note_on_c, 4, 63, 47
6, 60240, Note_on_c, 4, 67, 47
6, 60329, Note_on_c, 4, 67, 0
6, 60359, Note_on_c, 4, 63, 0
6, 60360, Note_on_c, 4, 63, 47
6, 60360, Note_on_c, 4, 67, 47
6, 60389, Note_on_c, 4, 67, 0
6, 60389, Note_on_c, 4, 63, 0
6, 60450, Note_on_c, 4, 63, 47
6, 60450, Note_on_c, 4, 67, 47
6, 60479, Note_on_c, 4, 67, 0
6, 60479, Note_on_c, 4, 63, 0
6, 60480, Note_on_c, 4, 77, 47
6, 60480, Note_on_c, 4, 73, 47
6, 60959, Note_on_c, 4, 73, 0
6, 60959, Note_on_c, 4, 77, 0
6, 60960, Note_on_c, 4, 75, 47
6, 60960, Note_on_c, 4, 72, 47
6, 61679, Note_on_c, 4, 72, 0
6, 61679, Note_on_c, 4, 75, 0
6, 61680, Note_on_c, 4, 71, 47
6, 61680, Note_on_c, 4, 65, 47
6, 61919, Note_on_c, 4, 65, 0
6, 61919, Note_on_c, 4, 71, 0
6, 61920, Note_on_c, 4, 63, 47
6, 61920, Note_on_c, 4, 72, 47
6, 61979, Note_on_c, 4, 72, 0
6, 61979, Note_on_c, 4, 63, 0
6, 62280, Note_on_c, 4, 75, 43
6, 62280, Note_on_c, 4, 72, 35
6, 62369, Note_on_c, 4, 72, 0
6, 62369, Note_on_c, 4, 75, 0
6, 62370, Note_on_c, 4, 73, 43
6, 62370, Note_on_c, 4, 70, 35
6, 62399, Note_on_c, 4, 70, 0
6, 62399, Note_on_c, 4, 73, 0
6, 62400, Note_on_c, 4, 72, 43
6, 62400, Note_on_c, 4, 68, 35
6, 62429, Note_on_c, 4, 68, 0
6, 62429, Note_on_c, 4, 72, 0
6, 62520, Note_on_c, 4, 72, 43
6, 62520, Note_on_c, 4, 68, 35
6, 62549, Note_on_c, 4, 68, 0
6, 62549, Note_on_c, 4, 72, 0
6, 62640, Note_on_c, 4, 67, 35
6, 62640, Note_on_c, 4, 70, 43
6, 62669, Note_on_c, 4, 70, 0
6, 62669, Note_on_c, 4, 67, 0
6, 62760, Note_on_c, 4, 70, 43
6, 62760, Note_on_c, 4, 67, 35
6, 62789, Note_on_c, 4, 67, 0
6, 62789, Note_on_c, 4, 70, 0
6, 62880, Note_on_c, 4, 68, 43
6, 62880, Note_on_c, 4, 65, 35
6, 62909, Note_on_c, 4, 65, 0
6, 62909, Note_on_c, 4, 68, 0
6, 63000, Note_on_c, 4, 68, 43
6, 63000, Note_on_c, 4, 77, 59
6, 63239, Note_on_c, 4, 77, 0
6, 63239, Note_on_c, 4, 68, 0
6, 63240, Note_on_c, 4, 75, 43
6, 63240, Note_on_c, 4, 69, 35
6, 63309, Note_on_c, 4, 69, 0
6, 63309, Note_on_c, 4, 75, 0
6, 63360, Note_on_c, 4, 75, 43
6, 63360, Note_on_c, 4, 70, 35
6, 63419, Note_on_c, 4, 75, 0
6, 63420, Note_on_c, 4, 73, 35
6, 63449, Note_on_c, 4, 73, 0
6, 63459, Note_on_c, 4, 70, 0
6, 63480, Note_on_c, 4, 73, 43
6, 63480, Note_on_c, 4, 65, 35
6, 63539, Note_on_c, 4, 73, 0
6, 63540, Note_on_c, 4, 72, 35
6, 63569, Note_on_c, 4, 72, 0
6, 63600, Note_on_c, 4, 72, 43
6, 63659, Note_on_c, 4, 72, 0
6, 63660, Note_on_c, 4, 70, 35
6, 63689, Note_on_c, 4, 70, 0
6, 63689, Note_on_c, 4, 65, 0
6, 63720, Note_on_c, 4, 70, 43
6, 63720, Note_on_c, 4, 65, 35
6, 63779, Note_on_c, 4, 70, 0
6, 63780, Note_on_c, 4, 68, 35
6, 63809, Note_on_c, 4, 68, 0
6, 63819, Note_on_c, 4, 65, 0
6, 63840, Note_on_c, 4, 67, 43
6, 63840, Note_on_c, 4, 63, 35
6, 63899, Note_on_c, 4, 63, 0
6, 63899, Note_on_c, 4, 67, 0
6, 63960, Note_on_c, 4, 70, 43
6, 63960, Note_on_c, 4, 82, 59
6, 64199, Note_on_c, 4, 82, 0
6, 64200, Note_on_c, 4, 80, 35
6, 64259, Note_on_c, 4, 80, 0
6, 64320, Note_on_c, 4, 80, 43
6, 64379, Note_on_c, 4, 80, 0
6, 64380, Note_on_c, 4, 79, 35
6, 64409, Note_on_c, 4, 79, 0
6, 64409, Note_on_c, 4, 70, 0
6, 64440, Note_on_c, 4, 79, 43
6, 64440, Note_on_c, 4, 62, 35
6, 64499, Note_on_c, 4, 79, 0
6, 64500, Note_on_c, 4, 77, 35
6, 64529, Note_on_c, 4, 77, 0
6, 64559, Note_on_c, 4, 62, 0
6, 64560, Note_on_c, 4, 63, 35
6, 64560, Note_on_c, 4, 77, 43
6, 64619, Note_on_c, 4, 77, 0
6, 64620, Note_on_c, 4, 75, 35
6, 64649, Note_on_c, 4, 75, 0
6, 64679, Note_on_c, 4, 63, 0
6, 64680, Note_on_c, 4, 75, 43
6, 64680, Note_on_c, 4, 70, 35
6, 64739, Note_on_c, 4, 75, 0
6, 64740, Note_on_c, 4, 73, 35
6, 64769, Note_on_c, 4, 73, 0
6, 64799, Note_on_c, 4, 70, 0
6, 64860, Note_on_c, 4, 71, 43
6, 64860, Note_on_c, 4, 67, 35
6, 64919, Note_on_c, 4, 67, 0
6, 64919, Note_on_c, 4, 71, 0
6, 64920, Note_on_c, 4, 68, 35
6, 64920, Note_on_c, 4, 72, 43
6, 64979, Note_on_c, 4, 72, 0
6, 64979, Note_on_c, 4, 68, 0
6, 64980, Note_on_c, 4, 74, 43
6, 64980, Note_on_c, 4, 70, 35
6, 65039, Note_on_c, 4, 70, 0
6, 65039, Note_on_c, 4, 74, 0
6, 65040, Note_on_c, 4, 77, 43
6, 65040, Note_on_c, 4, 74, 35
6, 65099, Note_on_c, 4, 74, 0
6, 65099, Note_on_c, 4, 77, 0
6, 65100, Note_on_c, 4, 75, 43
6, 65100, Note_on_c, 4, 72, 35
6, 65159, Note_on_c, 4, 72, 0
6, 65159, Note_on_c, 4, 75, 0
6, 65160, Note_on_c, 4, 74, 43
6, 65160, Note_on_c, 4, 70, 35
6, 65219, Note_on_c, 4, 70, 0
6, 65219, Note_on_c, 4, 74, 0
6, 65220, Note_on_c, 4, 72, 43
6, 65220, Note_on_c, 4, 68, 35
6, 65249, Note_on_c, 4, 68, 0
6, 65279, Note_on_c, 4, 72, 0
6, 65280, Note_on_c, 4, 70, 43
6, 65280, Note_on_c, 4, 67, 35
6, 65339, Note_on_c, 4, 67, 0
6, 65339, Note_on_c, 4, 70, 0
6, 65340, Note_on_c, 4, 70, 44
6, 65340, Note_on_c, 4, 75, 36
6, 65399, Note_on_c, 4, 75, 0
6, 65399, Note_on_c, 4, 70, 0
6, 65400, Note_on_c, 4, 75, 37
6, 65400, Note_on_c, 4, 79, 46
6, 65459, Note_on_c, 4, 79, 0
6, 65459, Note_on_c, 4, 75, 0
6, 65460, Note_on_c, 4, 82, 47
6, 65460, Note_on_c, 4, 79, 38
6, 65499, Note_on_c, 4, 79, 0
6, 65499, Note_on_c, 4, 82, 0
6, 65520, Note_on_c, 4, 82, 51
6, 65520, Note_on_c, 4, 79, 41
6, 65579, Note_on_c, 4, 79, 0
6, 65579, Note_on_c, 4, 82, 0
6, 65580, Note_on_c, 4, 77, 39
6, 65580, Note_on_c, 4, 80, 49
6, 65639, Note_on_c, 4, 80, 0
6, 65639, Note_on_c, 4, 77, 0
6, 65640, Note_on_c, 4, 79, 46
6, 65640, Note_on_c, 4, 75, 37
6, 65699, Note_on_c, 4, 75, 0
6, 65699, Note_on_c, 4, 79, 0
6, 65700, Note_on_c, 4, 74, 35
6, 65700, Note_on_c, 4, 77, 42
6, 65749, Note_on_c, 4, 77, 0
6, 65749, Note_on_c, 4, 74, 0
6, 65760, Note_on_c, 4, 77, 37
6, 65760, Note_on_c, 4, 74, 29
6, 65999, Note_on_c, 4, 74, 0
6, 65999, Note_on_c, 4, 77, 0
6, 66000, Note_on_c, 4, 75, 31
6, 66119, Note_on_c, 4, 75, 0
6, 69960, Note_on_c, 4, 72, 44
6, 69960, Note_on_c, 4, 75, 54
6, 70049, Note_on_c, 4, 75, 0
6, 70049, Note_on_c, 4, 72, 0
6, 70050, Note_on_c, 4, 74, 54
6, 70050, Note_on_c, 4, 71, 44
6, 70079, Note_on_c, 4, 71, 0
6, 70079, Note_on_c, 4, 74, 0
6, 70080, Note_on_c, 4, 70, 44
6, 70080, Note_on_c, 4, 73, 54
6, 70109, Note_on_c, 4, 73, 0
6, 70109, Note_on_c, 4, 70, 0
6, 70200, Note_on_c, 4, 70, 44
6, 70200, Note_on_c, 4, 73, 54
6, 70229, Note_on_c, 4, 73, 0
6, 70229, Note_on_c, 4, 70, 0
6, 70320, Note_on_c, 4, 68, 44
6, 70320, Note_on_c, 4, 72, 54
6, 70349, Note_on_c, 4, 72, 0
6, 70349, Note_on_c, 4, 68, 0
6, 70440, Note_on_c, 4, 68, 44
6, 70440, Note_on_c, 4, 72, 54
6, 70469, Note_on_c, 4, 72, 0
6, 70469, Note_on_c, 4, 68, 0
6, 70560, Note_on_c, 4, 67, 44
6, 70560, Note_on_c, 4, 70, 54
6, 70589, Note_on_c, 4, 70, 0
6, 70589, Note_on_c, 4, 67, 0
6, 70680, Note_on_c, 4, 67, 54
6, 70680, Note_on_c, 4, 70, 64
6, 70919, Note_on_c, 4, 70, 0
6, 70919, Note_on_c, 4, 67, 0
6, 70920, Note_on_c, 4, 68, 44
6, 70920, Note_on_c, 4, 72, 54
6, 71009, Note_on_c, 4, 72, 0
6, 71009, Note_on_c, 4, 68, 0
6, 71010, Note_on_c, 4, 70, 44
6, 71010, Note_on_c, 4, 73, 54
6, 71039, Note_on_c, 4, 73, 0
6, 71039, Note_on_c, 4, 70, 0
6, 71040, Note_on_c, 4, 72, 44
6, 71040, Note_on_c, 4, 75, 54
6, 71079, Note_on_c, 4, 75, 0
6, 71079, Note_on_c, 4, 72, 0
6, 71160, Note_on_c, 4, 72, 44
6, 71160, Note_on_c, 4, 75, 54
6, 71189, Note_on_c, 4, 75, 0
6, 71189, Note_on_c, 4, 72, 0
6, 71280, Note_on_c, 4, 73, 54
6, 71280, Note_on_c, 4, 70, 44
6, 71309, Note_on_c, 4, 70, 0
6, 71309, Note_on_c, 4, 73, 0
6, 71400, Note_on_c, 4, 73, 54
6, 71400, Note_on_c, 4, 70, 44
6, 71429, Note_on_c, 4, 70, 0
6, 71429, Note_on_c, 4, 73, 0
6, 71520, Note_on_c, 4, 68, 44
6, 71520, Note_on_c, 4, 72, 54
6, 71549, Note_on_c, 4, 72, 0
6, 71549, Note_on_c, 4, 68, 0
6, 71640, Note_on_c, 4, 66, 54
6, 71640, Note_on_c, 4, 72, 74
6, 71879, Note_on_c, 4, 72, 0
6, 71880, Note_on_c, 4, 73, 44
6, 71969, Note_on_c, 4, 73, 0
6, 71970, Note_on_c, 4, 75, 44
6, 71999, Note_on_c, 4, 75, 0
6, 71999, Note_on_c, 4, 66, 0
6, 72000, Note_on_c, 4, 65, 44
6, 72000, Note_on_c, 4, 77, 44
6, 72039, Note_on_c, 4, 77, 0
6, 72039, Note_on_c, 4, 65, 0
6, 72120, Note_on_c, 4, 67, 44
6, 72120, Note_on_c, 4, 70, 64
6, 72359, Note_on_c, 4, 70, 0
6, 72359, Note_on_c, 4, 67, 0
6, 72360, Note_on_c, 4, 68, 44
6, 72360, Note_on_c, 4, 72, 54
6, 72449, Note_on_c, 4, 72, 0
6, 72449, Note_on_c, 4, 68, 0
6, 72450, Note_on_c, 4, 73, 54
6, 72450, Note_on_c, 4, 70, 44
6, 72479, Note_on_c, 4, 70, 0
6, 72479, Note_on_c, 4, 73, 0
6, 72480, Note_on_c, 4, 68, 44
6, 72480, Note_on_c, 4, 75, 54
6, 72539, Note_on_c, 4, 75, 0
6, 72540, Note_on_c, 4, 80, 54
6, 72599, Note_on_c, 4, 80, 0
6, 72600, Note_on_c, 4, 79, 54
6, 72659, Note_on_c, 4, 79, 0
6, 72660, Note_on_c, 4, 78, 54
6, 72719, Note_on_c, 4, 78, 0
6, 72720, Note_on_c, 4, 77, 54
6, 72779, Note_on_c, 4, 77, 0
6, 72780, Note_on_c, 4, 76, 54
6, 72839, Note_on_c, 4, 76, 0
6, 72840, Note_on_c, 4, 75, 54
6, 72899, Note_on_c, 4, 75, 0
6, 72900, Note_on_c, 4, 73, 49
6, 72959, Note_on_c, 4, 73, 0
6, 72960, Note_on_c, 4, 72, 44
6, 72989, Note_on_c, 4, 72, 0
6, 72989, Note_on_c, 4, 68, 0
6, 73020, Note_on_c, 4, 72, 54
6, 73020, Note_on_c, 4, 68, 44
6, 73079, Note_on_c, 4, 68, 0
6, 73079, Note_on_c, 4, 72, 0
6, 73080, Note_on_c, 4, 73, 54
6, 73080, Note_on_c, 4, 70, 44
6, 73139, Note_on_c, 4, 70, 0
6, 73139, Note_on_c, 4, 73, 0
6, 73140, Note_on_c, 4, 72, 44
6, 73140, Note_on_c, 4, 75, 54
6, 73179, Note_on_c, 4, 75, 0
6, 73179, Note_on_c, 4, 72, 0
6, 73200, Note_on_c, 4, 75, 54
6, 73200, Note_on_c, 4, 72, 44
6, 73259, Note_on_c, 4, 72, 0
6, 73259, Note_on_c, 4, 75, 0
6, 73260, Note_on_c, 4, 73, 54
6, 73260, Note_on_c, 4, 70, 44
6, 73319, Note_on_c, 4, 70, 0
6, 73319, Note_on_c, 4, 73, 0
6, 73320, Note_on_c, 4, 68, 44
6, 73320, Note_on_c, 4, 72, 54
6, 73379, Note_on_c, 4, 72, 0
6, 73379, Note_on_c, 4, 68, 0
6, 73380, Note_on_c, 4, 67, 44
6, 73380, Note_on_c, 4, 70, 54
6, 73419, Note_on_c, 4, 70, 0
6, 73419, Note_on_c, 4, 67, 0
6, 73440, Note_on_c, 4, 67, 44
6, 73440, Note_on_c, 4, 70, 54
6, 73679, Note_on_c, 4, 70, 0
6, 73679, Note_on_c, 4, 67, 0
6, 73680, Note_on_c, 4, 68, 34
6, 73769, Note_on_c, 4, 68, 0
6, 112860, Note_on_c, 4, 68, 34
6, 112860, Note_on_c, 4, 65, 34
6, 112879, Note_on_c, 4, 65, 0
6, 112879, Note_on_c, 4, 68, 0
6, 112920, Note_on_c, 4, 63, 31
6, 112920, Note_on_c, 4, 67, 31
6, 112939, Note_on_c, 4, 67, 0
6, 112939, Note_on_c, 4, 63, 0
6, 112980, Note_on_c, 4, 68, 27
6, 112980, Note_on_c, 4, 65, 27
6, 112999, Note_on_c, 4, 65, 0
6, 112999, Note_on_c, 4, 68, 0
6, 113040, Note_on_c, 4, 63, 23
6, 113040, Note_on_c, 4, 67, 23
6, 113159, Note_on_c, 4, 67, 0
6, 113159, Note_on_c, 4, 63, 0
6, 115740, Note_on_c, 4, 78, 34
6, 115740, Note_on_c, 4, 69, 34
6, 115769, Note_on_c, 4, 69, 0
6, 115769, Note_on_c, 4, 78, 0
6, 115800, Note_on_c, 4, 70, 31
6, 115800, Note_on_c, 4, 79, 31
6, 115829, Note_on_c, 4, 79, 0
6, 115829, Note_on_c, 4, 70, 0
6, 115860, Note_on_c, 4, 69, 27
6, 115860, Note_on_c, 4, 78, 27
6, 115889, Note_on_c, 4, 78, 0
6, 115889, Note_on_c, 4, 69, 0
6, 115920, Note_on_c, 4, 70, 23
6, 115920, Note_on_c, 4, 79, 23
6, 116039, Note_on_c, 4, 79, 0
6, 116039, Note_on_c, 4, 70, 0
6, 117660, Note_on_c, 4, 68, 34
6, 117660, Note_on_c, 4, 65, 34
6, 117679, Note_on_c, 4, 65, 0
6, 117679, Note_on_c, 4, 68, 0
6, 117720, Note_on_c, 4, 63, 31
6, 117720, Note_on_c, 4, 67, 31
6, 117739, Note_on_c, 4, 67, 0
6, 117739, Note_on_c, 4, 63, 0
6, 117780, Note_on_c, 4, 68, 27
6, 117780, Note_on_c, 4, 65, 27
6, 117799, Note_on_c, 4, 65, 0
6, 117799, Note_on_c, 4, 68, 0
6, 117840, Note_on_c, 4, 63, 23
6, 117840, Note_on_c, 4, 67, 23
6, 117959, Note_on_c, 4, 67, 0
6, 117959, Note_on_c, 4, 63, 0
6, 119580, Note_on_c, 4, 68, 28
6, 119580, Note_on_c, 4, 65, 28
6, 119603, Note_on_c, 4, 65, 0
6, 119603, Note_on_c, 4, 68, 0
6, 119640, Note_on_c, 4, 63, 29
6, 119640, Note_on_c, 4, 67, 29
6, 119663, Note_on_c, 4, 67, 0
6, 119663, Note_on_c, 4, 63, 0
6, 119700, Note_on_c, 4, 68, 29
6, 119700, Note_on_c, 4, 65, 29
6, 119723, Note_on_c, 4, 65, 0
6, 119723, Note_on_c, 4, 68, 0
6, 119760, Note_on_c, 4, 67, 30
6, 119760, Note_on_c, 4, 63, 30
6, 119849, Note_on_c, 4, 63, 0
6, 119849, Note_on_c, 4, 67, 0
6, 120060, Note_on_c, 4, 65, 36
6, 120060, Note_on_c, 4, 68, 36
6, 120083, Note_on_c, 4, 68, 0
6, 120083, Note_on_c, 4, 65, 0
6, 120120, Note_on_c, 4, 64, 37
6, 120120, Note_on_c, 4, 67, 37
6, 120143, Note_on_c, 4, 67, 0
6, 120143, Note_on_c, 4, 64, 0
6, 120180, Note_on_c, 4, 65, 37
6, 120180, Note_on_c, 4, 68, 37
6, 120203, Note_on_c, 4, 68, 0
6, 120203, Note_on_c, 4, 65, 0
6, 120240, Note_on_c, 4, 67, 38
6, 120240, Note_on_c, 4, 64, 38
6, 120329, Note_on_c, 4, 64, 0
6, 120329, Note_on_c, 4, 67, 0
6, 120540, Note_on_c, 4, 70, 41
6, 120540, Note_on_c, 4, 67, 41
6, 120563, Note_on_c, 4, 67, 0
6, 120563, Note_on_c, 4, 70, 0
6, 120600, Note_on_c, 4, 69, 41
6, 120600, Note_on_c, 4, 72, 41
6, 120623, Note_on_c, 4, 72, 0
6, 120623, Note_on_c, 4, 69, 0
6, 120660, Note_on_c, 4, 70, 42
6, 120660, Note_on_c, 4, 67, 42
6, 120683, Note_on_c, 4, 67, 0
6, 120683, Note_on_c, 4, 70, 0
6, 120720, Note_on_c, 4, 69, 42
6, 120720, Note_on_c, 4, 72, 42
6, 120839, Note_on_c, 4, 72, 0
6, 120839, Note_on_c, 4, 69, 0
6, 143040, Note_on_c, 4, 72, 43
6, 143379, Note_on_c, 4, 72, 0
6, 143385, Note_on_c, 4, 75, 53
6, 143400, Note_on_c, 4, 73, 43
6, 143404, Note_on_c, 4, 75, 0
6, 143429, Note_on_c, 4, 73, 0
6, 143460, Note_on_c, 4, 72, 43
6, 143489, Note_on_c, 4, 72, 0
6, 143520, Note_on_c, 4, 73, 43
6, 143549, Note_on_c, 4, 73, 0
6, 143580, Note_on_c, 4, 72, 43
6, 143739, Note_on_c, 4, 72, 0
6, 143745, Note_on_c, 4, 75, 53
6, 143760, Note_on_c, 4, 73, 43
6, 143764, Note_on_c, 4, 75, 0
6, 143789, Note_on_c, 4, 73, 0
6, 143820, Note_on_c, 4, 72, 43
6, 143849, Note_on_c, 4, 72, 0
6, 143880, Note_on_c, 4, 73, 43
6, 143909, Note_on_c, 4, 73, 0
6, 143940, Note_on_c, 4, 72, 43
6, 144079, Note_on_c, 4, 72, 0
6, 144119, Control_c, 4, 11, 66
6, 144120, Note_on_c, 4, 79, 63
6, 144121, Control_c, 4, 11, 67
6, 144130, Control_c, 4, 11, 68
6, 144139, Control_c, 4, 11, 69
6, 144148, Control_c, 4, 11, 70
6, 144157, Control_c, 4, 11, 71
6, 144166, Control_c, 4, 11, 72
6, 144175, Control_c, 4, 11, 73
6, 144184, Control_c, 4, 11, 74
6, 144193, Control_c, 4, 11, 75
6, 144202, Control_c, 4, 11, 76
6, 144211, Control_c, 4, 11, 77
6, 144220, Control_c, 4, 11, 78
6, 144229, Control_c, 4, 11, 80
6, 144238, Control_c, 4, 11, 82
6, 144247, Control_c, 4, 11, 84
6, 144256, Control_c, 4, 11, 86
6, 144265, Control_c, 4, 11, 88
6, 144274, Control_c, 4, 11, 90
6, 144283, Control_c, 4, 11, 92
6, 144292, Control_c, 4, 11, 94
6, 144301, Control_c, 4, 11, 96
6, 144310, Control_c, 4, 11, 98
6, 144319, Control_c, 4, 11, 100
6, 144328, Control_c, 4, 11, 103
6, 144337, Control_c, 4, 11, 106
6, 144346, Control_c, 4, 11, 109
6, 144355, Control_c, 4, 11, 112
6, 144364, Control_c, 4, 11, 115
6, 144373, Control_c, 4, 11, 118
6, 144382, Control_c, 4, 11, 121
6, 144391, Control_c, 4, 11, 124
6, 144400, Control_c, 4, 11, 127
6, 144419, Note_on_c, 4, 79, 0
6, 144419, Control_c, 4, 11, 127
6, 144420, Note_on_c, 4, 71, 43
6, 144479, Note_on_c, 4, 71, 0
6, 144480, Note_on_c, 4, 72, 33
6, 144599, Note_on_c, 4, 72, 0
6, 149160, Note_on_c, 4, 72, 43
6, 149499, Note_on_c, 4, 72, 0
6, 149505, Note_on_c, 4, 75, 53
6, 149520, Note_on_c, 4, 73, 43
6, 149524, Note_on_c, 4, 75, 0
6, 149549, Note_on_c, 4, 73, 0
6, 149580, Note_on_c, 4, 72, 43
6, 149609, Note_on_c, 4, 72, 0
6, 149640, Note_on_c, 4, 73, 43
6, 149669, Note_on_c, 4, 73, 0
6, 149700, Note_on_c, 4, 72, 43
6, 149859, Note_on_c, 4, 72, 0
6, 149865, Note_on_c, 4, 75, 53
6, 149880, Note_on_c, 4, 73, 43
6, 149884, Note_on_c, 4, 75, 0
6, 149909, Note_on_c, 4, 73, 0
6, 149940, Note_on_c, 4, 72, 43
6, 149969, Note_on_c, 4, 72, 0
6, 150000, Note_on_c, 4, 73, 43
6, 150029, Note_on_c, 4, 73, 0
6, 150060, Note_on_c, 4, 72, 43
6, 150199, Note_on_c, 4, 72, 0
6, 150239, Control_c, 4, 11, 66
6, 150240, Note_on_c, 4, 79, 63
6, 150241, Control_c, 4, 11, 67
6, 150250, Control_c, 4, 11, 68
6, 150259, Control_c, 4, 11, 69
6, 150268, Control_c, 4, 11, 70
6, 150277, Control_c, 4, 11, 71
6, 150286, Control_c, 4, 11, 72
6, 150295, Control_c, 4, 11, 73
6, 150304, Control_c, 4, 11, 74
6, 150313, Control_c, 4, 11, 75
6, 150322, Control_c, 4, 11, 76
6, 150331, Control_c, 4, 11, 77
6, 150340, Control_c, 4, 11, 78
6, 150349, Control_c, 4, 11, 80
6, 150358, Control_c, 4, 11, 82
6, 150367, Control_c, 4, 11, 84
6, 150376, Control_c, 4, 11, 86
6, 150385, Control_c, 4, 11, 88
6, 150394, Control_c, 4, 11, 90
6, 150403, Control_c, 4, 11, 92
6, 150412, Control_c, 4, 11, 94
6, 150421, Control_c, 4, 11, 96
6, 150430, Control_c, 4, 11, 98
6, 150439, Control_c, 4, 11, 100
6, 150448, Control_c, 4, 11, 103
6, 150457, Control_c, 4, 11, 106
6, 150466, Control_c, 4, 11, 109
6, 150475, Control_c, 4, 11, 112
6, 150484, Control_c, 4, 11, 115
6, 150493, Control_c, 4, 11, 118
6, 150502, Control_c, 4, 11, 121
6, 150511, Control_c, 4, 11, 124
6, 150520, Control_c, 4, 11, 127
6, 150539, Note_on_c, 4, 79, 0
6, 150539, Control_c, 4, 11, 127
6, 150540, Note_on_c, 4, 71, 43
6, 150599, Note_on_c, 4, 71, 0
6, 150600, Note_on_c, 4, 72, 33
6, 150719, Note_on_c, 4, 72, 0
6, 150945, Note_on_c, 4, 75, 52
6, 150960, Note_on_c, 4, 73, 52
6, 150964, Note_on_c, 4, 75, 0
6, 150979, Note_on_c, 4, 73, 0
6, 151020, Note_on_c, 4, 72, 44
6, 151039, Note_on_c, 4, 72, 0
6, 151080, Note_on_c, 4, 73, 44
6, 151099, Note_on_c, 4, 73, 0
6, 151140, Note_on_c, 4, 72, 36
6, 151289, Note_on_c, 4, 72, 0
6, 151305, Note_on_c, 4, 75, 44
6, 151320, Note_on_c, 4, 73, 44
6, 151324, Note_on_c, 4, 75, 0
6, 151339, Note_on_c, 4, 73, 0
6, 151380, Note_on_c, 4, 72, 44
6, 151399, Note_on_c, 4, 72, 0
6, 151440, Note_on_c, 4, 73, 44
6, 151459, Note_on_c, 4, 73, 0
6, 151500, Note_on_c, 4, 72, 36
6, 151649, Note_on_c, 4, 72, 0
6, 151680, Note_on_c, 4, 79, 43
6, 151979, Note_on_c, 4, 79, 0
6, 151980, Note_on_c, 4, 71, 33
6, 152019, Note_on_c, 4, 71, 0
6, 152040, Note_on_c, 4, 72, 28
6, 152099, Note_on_c, 4, 72, 0
6, 152100, Note_on_c, 4, 67, 28
6, 152129, Note_on_c, 4, 67, 0
6, 152160, Note_on_c, 4, 67, 28
6, 152189, Note_on_c, 4, 67, 0
6, 152220, Note_on_c, 4, 67, 28
6, 152249, Note_on_c, 4, 67, 0
6, 152280, Note_on_c, 4, 67, 28
6, 152309, Note_on_c, 4, 67, 0
6, 152340, Note_on_c, 4, 67, 28
6, 152369, Note_on_c, 4, 67, 0
6, 152460, Note_on_c, 4, 68, 28
6, 152489, Note_on_c, 4, 68, 0
6, 152520, Note_on_c, 4, 68, 28
6, 152549, Note_on_c, 4, 68, 0
6, 152640, Note_on_c, 4, 67, 28
6, 152669, Note_on_c, 4, 67, 0
6, 152700, Note_on_c, 4, 67, 28
6, 152729, Note_on_c, 4, 67, 0
6, 152820, Note_on_c, 4, 67, 28
6, 152849, Note_on_c, 4, 67, 0
6, 152880, Note_on_c, 4, 67, 28
6, 152909, Note_on_c, 4, 67, 0
6, 152940, Note_on_c, 4, 67, 28
6, 152969, Note_on_c, 4, 67, 0
6, 153000, Note_on_c, 4, 67, 28
6, 153029, Note_on_c, 4, 67, 0
6, 153060, Note_on_c, 4, 67, 28
6, 153089, Note_on_c, 4, 67, 0
6, 153180, Note_on_c, 4, 68, 27
6, 153209, Note_on_c, 4, 68, 0
6, 153240, Note_on_c, 4, 68, 27
6, 153269, Note_on_c, 4, 68, 0
6, 153360, Note_on_c, 4, 67, 28
6, 153389, Note_on_c, 4, 67, 0
6, 153420, Note_on_c, 4, 67, 29
6, 153449, Note_on_c, 4, 67, 0
6, 153479, Control_c, 4, 11, 46
6, 153480, Note_on_c, 4, 75, 60
6, 153480, Note_on_c, 4, 72, 50
6, 153481, Control_c, 4, 11, 47
6, 153500, Control_c, 4, 11, 48
6, 153519, Control_c, 4, 11, 49
6, 153538, Control_c, 4, 11, 50
6, 153557, Control_c, 4, 11, 51
6, 153576, Control_c, 4, 11, 52
6, 153595, Control_c, 4, 11, 53
6, 153614, Control_c, 4, 11, 54
6, 153633, Control_c, 4, 11, 55
6, 153652, Control_c, 4, 11, 56
6, 153671, Control_c, 4, 11, 58
6, 153690, Control_c, 4, 11, 60
6, 153709, Control_c, 4, 11, 62
6, 153728, Control_c, 4, 11, 64
6, 153747, Control_c, 4, 11, 66
6, 153766, Control_c, 4, 11, 68
6, 153785, Control_c, 4, 11, 70
6, 153804, Control_c, 4, 11, 72
6, 153823, Control_c, 4, 11, 74
6, 153839, Note_on_c, 4, 75, 0
6, 153840, Note_on_c, 4, 74, 44
6, 153842, Control_c, 4, 11, 76
6, 153861, Control_c, 4, 11, 79
6, 153880, Control_c, 4, 11, 82
6, 153899, Control_c, 4, 11, 85
6, 153918, Control_c, 4, 11, 88
6, 153937, Control_c, 4, 11, 91
6, 153956, Control_c, 4, 11, 94
6, 153975, Control_c, 4, 11, 97
6, 153994, Control_c, 4, 11, 100
6, 154013, Control_c, 4, 11, 103
6, 154019, Note_on_c, 4, 72, 0
6, 154020, Note_on_c, 4, 71, 45
6, 154032, Control_c, 4, 11, 106
6, 154051, Control_c, 4, 11, 110
6, 154070, Control_c, 4, 11, 114
6, 154089, Control_c, 4, 11, 118
6, 154108, Control_c, 4, 11, 122
6, 154127, Control_c, 4, 11, 126
6, 154199, Note_on_c, 4, 71, 0
6, 154199, Note_on_c, 4, 74, 0
6, 154200, Control_c, 4, 11, 127
6, 154200, Note_on_c, 4, 72, 42
6, 154289, Note_on_c, 4, 72, 0
6, 154560, Note_on_c, 4, 72, 55
6, 154649, Note_on_c, 4, 72, 0
6, 154650, Note_on_c, 4, 71, 55
6, 154679, Note_on_c, 4, 71, 0
6, 154680, Note_on_c, 4, 72, 55
6, 154709, Note_on_c, 4, 72, 0
6, 154710, Note_on_c, 4, 74, 55
6, 154739, Note_on_c, 4, 74, 0
6, 154740, Note_on_c, 4, 75, 55
6, 154829, Note_on_c, 4, 75, 0
6, 154830, Note_on_c, 4, 74, 56
6, 154859, Note_on_c, 4, 74, 0
6, 154860, Note_on_c, 4, 75, 56
6, 154889, Note_on_c, 4, 75, 0
6, 154890, Note_on_c, 4, 77, 56
6, 154919, Note_on_c, 4, 77, 0
6, 154920, Note_on_c, 4, 79, 56
6, 154979, Note_on_c, 4, 79, 0
6, 155100, Note_on_c, 4, 79, 57
6, 155159, Note_on_c, 4, 79, 0
6, 155280, Note_on_c, 4, 72, 57
6, 155339, Note_on_c, 4, 72, 0
6, 155339, End_track
7, 0, Start_track
7, 0, MIDI_port, 0
7, 0, Title_t, "Bassoons"
7, 20, Control_c, 5, 121, 0
7, 21, Control_c, 5, 11, 127
7, 21, Control_c, 5, 7, 127
7, 22, Control_c, 5, 93, 10
7, 22, Control_c, 5, 91, 79
7, 25, Control_c, 5, 10, 64
7, 26, Pitch_bend_c, 5, 8192
7, 27, Control_c, 5, 0, 0
7, 28, Control_c, 5, 32, 0
7, 29, Program_c, 5, 70
7, 960, Note_on_c, 5, 48, 33
7, 1049, Note_on_c, 5, 48, 0
7, 1200, Note_on_c, 5, 43, 33
7, 1289, Note_on_c, 5, 43, 0
7, 1440, Note_on_c, 5, 48, 33
7, 1529, Note_on_c, 5, 48, 0
7, 1919, Control_c, 5, 11, 66
7, 1920, Note_on_c, 5, 44, 43
7, 1921, Control_c, 5, 11, 67
7, 1936, Control_c, 5, 11, 68
7, 1951, Control_c, 5, 11, 69
7, 1966, Control_c, 5, 11, 70
7, 1981, Control_c, 5, 11, 71
7, 1996, Control_c, 5, 11, 72
7, 2011, Control_c, 5, 11, 73
7, 2026, Control_c, 5, 11, 74
7, 2041, Control_c, 5, 11, 75
7, 2056, Control_c, 5, 11, 76
7, 2071, Control_c, 5, 11, 77
7, 2086, Control_c, 5, 11, 78
7, 2101, Control_c, 5, 11, 80
7, 2116, Control_c, 5, 11, 82
7, 2131, Control_c, 5, 11, 84
7, 2146, Control_c, 5, 11, 86
7, 2161, Control_c, 5, 11, 88
7, 2176, Control_c, 5, 11, 90
7, 2191, Control_c, 5, 11, 92
7, 2206, Control_c, 5, 11, 94
7, 2221, Control_c, 5, 11, 96
7, 2236, Control_c, 5, 11, 98
7, 2251, Control_c, 5, 11, 100
7, 2266, Control_c, 5, 11, 103
7, 2281, Control_c, 5, 11, 106
7, 2296, Control_c, 5, 11, 109
7, 2311, Control_c, 5, 11, 112
7, 2326, Control_c, 5, 11, 115
7, 2341, Control_c, 5, 11, 118
7, 2356, Control_c, 5, 11, 121
7, 2371, Control_c, 5, 11, 124
7, 2386, Control_c, 5, 11, 127
7, 2399, Note_on_c, 5, 44, 0
7, 2399, Control_c, 5, 11, 127
7, 2400, Note_on_c, 5, 43, 33
7, 2519, Note_on_c, 5, 43, 0
7, 2760, Note_on_c, 5, 55, 33
7, 2879, Note_on_c, 5, 55, 0
7, 2880, Note_on_c, 5, 56, 32
7, 2909, Note_on_c, 5, 56, 0
7, 3000, Note_on_c, 5, 56, 34
7, 3029, Note_on_c, 5, 56, 0
7, 3120, Note_on_c, 5, 56, 37
7, 3149, Note_on_c, 5, 56, 0
7, 3240, Note_on_c, 5, 56, 39
7, 3269, Note_on_c, 5, 56, 0
7, 3300, Note_on_c, 5, 56, 40
7, 3329, Note_on_c, 5, 56, 0
7, 3330, Note_on_c, 5, 58, 41
7, 3359, Note_on_c, 5, 58, 0
7, 3360, Note_on_c, 5, 60, 42
7, 3459, Note_on_c, 5, 60, 0
7, 3480, Note_on_c, 5, 58, 33
7, 3529, Note_on_c, 5, 58, 0
7, 3540, Note_on_c, 5, 56, 33
7, 3589, Note_on_c, 5, 56, 0
7, 3600, Note_on_c, 5, 55, 33
7, 3659, Note_on_c, 5, 55, 0
7, 3720, Note_on_c, 5, 55, 33
7, 3749, Note_on_c, 5, 55, 0
7, 3780, Note_on_c, 5, 55, 32
7, 3809, Note_on_c, 5, 55, 0
7, 3810, Note_on_c, 5, 57, 32
7, 3840, Note_on_c, 5, 58, 31
7, 3849, Note_on_c, 5, 57, 0
7, 3959, Note_on_c, 5, 58, 0
7, 3960, Note_on_c, 5, 57, 29
7, 3989, Note_on_c, 5, 57, 0
7, 4020, Note_on_c, 5, 55, 28
7, 4049, Note_on_c, 5, 55, 0
7, 4080, Note_on_c, 5, 55, 27
7, 4199, Note_on_c, 5, 55, 0
7, 4200, Note_on_c, 5, 54, 25
7, 4319, Note_on_c, 5, 54, 0
7, 4320, Note_on_c, 5, 55, 23
7, 4439, Note_on_c, 5, 55, 0
7, 4800, Note_on_c, 5, 48, 33
7, 4889, Note_on_c, 5, 48, 0
7, 5040, Note_on_c, 5, 43, 29
7, 5129, Note_on_c, 5, 43, 0
7, 5280, Note_on_c, 5, 48, 24
7, 5359, Note_on_c, 5, 48, 0
7, 5759, Control_c, 5, 11, 66
7, 5760, Note_on_c, 5, 44, 43
7, 5761, Control_c, 5, 11, 67
7, 5776, Control_c, 5, 11, 68
7, 5791, Control_c, 5, 11, 69
7, 5806, Control_c, 5, 11, 70
7, 5821, Control_c, 5, 11, 71
7, 5836, Control_c, 5, 11, 72
7, 5851, Control_c, 5, 11, 73
7, 5866, Control_c, 5, 11, 74
7, 5881, Control_c, 5, 11, 75
7, 5896, Control_c, 5, 11, 76
7, 5911, Control_c, 5, 11, 77
7, 5926, Control_c, 5, 11, 78
7, 5941, Control_c, 5, 11, 80
7, 5956, Control_c, 5, 11, 82
7, 5971, Control_c, 5, 11, 84
7, 5986, Control_c, 5, 11, 86
7, 6001, Control_c, 5, 11, 88
7, 6016, Control_c, 5, 11, 90
7, 6031, Control_c, 5, 11, 92
7, 6046, Control_c, 5, 11, 94
7, 6061, Control_c, 5, 11, 96
7, 6076, Control_c, 5, 11, 98
7, 6091, Control_c, 5, 11, 100
7, 6106, Control_c, 5, 11, 103
7, 6121, Control_c, 5, 11, 106
7, 6136, Control_c, 5, 11, 109
7, 6151, Control_c, 5, 11, 112
7, 6166, Control_c, 5, 11, 115
7, 6181, Control_c, 5, 11, 118
7, 6196, Control_c, 5, 11, 121
7, 6211, Control_c, 5, 11, 124
7, 6226, Control_c, 5, 11, 127
7, 6239, Note_on_c, 5, 44, 0
7, 6239, Control_c, 5, 11, 127
7, 6240, Note_on_c, 5, 43, 24
7, 6359, Note_on_c, 5, 43, 0
7, 6600, Note_on_c, 5, 55, 33
7, 6719, Note_on_c, 5, 55, 0
7, 6720, Note_on_c, 5, 56, 32
7, 6749, Note_on_c, 5, 56, 0
7, 6840, Note_on_c, 5, 56, 34
7, 6869, Note_on_c, 5, 56, 0
7, 6960, Note_on_c, 5, 56, 37
7, 6989, Note_on_c, 5, 56, 0
7, 7080, Note_on_c, 5, 56, 39
7, 7109, Note_on_c, 5, 56, 0
7, 7140, Note_on_c, 5, 56, 40
7, 7169, Note_on_c, 5, 56, 0
7, 7170, Note_on_c, 5, 58, 41
7, 7199, Note_on_c, 5, 58, 0
7, 7200, Note_on_c, 5, 60, 42
7, 7299, Note_on_c, 5, 60, 0
7, 7320, Note_on_c, 5, 58, 33
7, 7369, Note_on_c, 5, 58, 0
7, 7380, Note_on_c, 5, 56, 33
7, 7429, Note_on_c, 5, 56, 0
7, 7440, Note_on_c, 5, 55, 33
7, 7499, Note_on_c, 5, 55, 0
7, 7560, Note_on_c, 5, 55, 33
7, 7589, Note_on_c, 5, 55, 0
7, 7620, Note_on_c, 5, 55, 32
7, 7649, Note_on_c, 5, 55, 0
7, 7650, Note_on_c, 5, 57, 32
7, 7680, Note_on_c, 5, 58, 31
7, 7689, Note_on_c, 5, 57, 0
7, 7799, Note_on_c, 5, 58, 0
7, 7800, Note_on_c, 5, 57, 29
7, 7829, Note_on_c, 5, 57, 0
7, 7860, Note_on_c, 5, 55, 28
7, 7889, Note_on_c, 5, 55, 0
7, 7920, Note_on_c, 5, 55, 27
7, 8039, Note_on_c, 5, 55, 0
7, 8040, Note_on_c, 5, 54, 25
7, 8159, Note_on_c, 5, 54, 0
7, 8160, Note_on_c, 5, 55, 23
7, 8279, Note_on_c, 5, 55, 0
7, 8640, Note_on_c, 5, 53, 23
7, 8640, Note_on_c, 5, 50, 23
7, 8699, Note_on_c, 5, 50, 0
7, 8699, Note_on_c, 5, 53, 0
7, 8880, Note_on_c, 5, 51, 23
7, 8880, Note_on_c, 5, 48, 23
7, 8939, Note_on_c, 5, 48, 0
7, 8939, Note_on_c, 5, 51, 0
7, 9120, Note_on_c, 5, 50, 23
7, 9120, Note_on_c, 5, 47, 23
7, 9179, Note_on_c, 5, 47, 0
7, 9179, Note_on_c, 5, 50, 0
7, 10440, Note_on_c, 5, 60, 33
7, 10559, Note_on_c, 5, 60, 0
7, 10560, Note_on_c, 5, 56, 24
7, 10560, Note_on_c, 5, 61, 33
7, 10589, Note_on_c, 5, 61, 0
7, 10680, Note_on_c, 5, 61, 33
7, 10709, Note_on_c, 5, 61, 0
7, 10800, Note_on_c, 5, 61, 33
7, 10829, Note_on_c, 5, 61, 0
7, 10920, Note_on_c, 5, 61, 33
7, 10949, Note_on_c, 5, 61, 0
7, 10980, Note_on_c, 5, 61, 33
7, 11009, Note_on_c, 5, 61, 0
7, 11010, Note_on_c, 5, 63, 33
7, 11039, Note_on_c, 5, 63, 0
7, 11040, Note_on_c, 5, 65, 33
7, 11159, Note_on_c, 5, 65, 0
7, 11160, Note_on_c, 5, 63, 33
7, 11189, Note_on_c, 5, 63, 0
7, 11220, Note_on_c, 5, 61, 33
7, 11249, Note_on_c, 5, 61, 0
7, 11280, Note_on_c, 5, 60, 33
7, 11309, Note_on_c, 5, 60, 0
7, 11400, Note_on_c, 5, 60, 33
7, 11429, Note_on_c, 5, 60, 0
7, 11460, Note_on_c, 5, 60, 33
7, 11489, Note_on_c, 5, 60, 0
7, 11490, Note_on_c, 5, 62, 33
7, 11519, Note_on_c, 5, 62, 0
7, 11519, Note_on_c, 5, 56, 0
7, 11520, Note_on_c, 5, 55, 24
7, 11520, Note_on_c, 5, 63, 33
7, 11639, Note_on_c, 5, 63, 0
7, 11640, Note_on_c, 5, 62, 33
7, 11669, Note_on_c, 5, 62, 0
7, 11700, Note_on_c, 5, 60, 33
7, 11729, Note_on_c, 5, 60, 0
7, 11760, Note_on_c, 5, 60, 33
7, 11879, Note_on_c, 5, 60, 0
7, 11880, Note_on_c, 5, 59, 33
7, 11999, Note_on_c, 5, 59, 0
7, 11999, Note_on_c, 5, 55, 0
7, 12000, Note_on_c, 5, 48, 23
7, 12000, Note_on_c, 5, 60, 23
7, 12119, Note_on_c, 5, 60, 0
7, 12119, Note_on_c, 5, 48, 0
7, 12480, Note_on_c, 5, 53, 23
7, 12480, Note_on_c, 5, 50, 23
7, 12519, Note_on_c, 5, 50, 0
7, 12519, Note_on_c, 5, 53, 0
7, 12720, Note_on_c, 5, 51, 23
7, 12720, Note_on_c, 5, 48, 23
7, 12759, Note_on_c, 5, 48, 0
7, 12759, Note_on_c, 5, 51, 0
7, 12960, Note_on_c, 5, 50, 23
7, 12960, Note_on_c, 5, 47, 23
7, 12999, Note_on_c, 5, 47, 0
7, 12999, Note_on_c, 5, 50, 0
7, 14280, Note_on_c, 5, 60, 33
7, 14399, Note_on_c, 5, 60, 0
7, 14400, Note_on_c, 5, 56, 24
7, 14400, Note_on_c, 5, 61, 33
7, 14429, Note_on_c, 5, 61, 0
7, 14520, Note_on_c, 5, 61, 33
7, 14549, Note_on_c, 5, 61, 0
7, 14640, Note_on_c, 5, 61, 33
7, 14669, Note_on_c, 5, 61, 0
7, 14760, Note_on_c, 5, 61, 33
7, 14789, Note_on_c, 5, 61, 0
7, 14820, Note_on_c, 5, 61, 33
7, 14849, Note_on_c, 5, 61, 0
7, 14850, Note_on_c, 5, 63, 33
7, 14879, Note_on_c, 5, 63, 0
7, 14880, Note_on_c, 5, 65, 33
7, 14999, Note_on_c, 5, 65, 0
7, 15000, Note_on_c, 5, 63, 33
7, 15029, Note_on_c, 5, 63, 0
7, 15060, Note_on_c, 5, 61, 33
7, 15089, Note_on_c, 5, 61, 0
7, 15120, Note_on_c, 5, 60, 33
7, 15149, Note_on_c, 5, 60, 0
7, 15240, Note_on_c, 5, 60, 33
7, 15269, Note_on_c, 5, 60, 0
7, 15300, Note_on_c, 5, 60, 33
7, 15329, Note_on_c, 5, 60, 0
7, 15330, Note_on_c, 5, 62, 33
7, 15359, Note_on_c, 5, 62, 0
7, 15359, Note_on_c, 5, 56, 0
7, 15360, Note_on_c, 5, 55, 24
7, 15360, Note_on_c, 5, 63, 33
7, 15479, Note_on_c, 5, 63, 0
7, 15480, Note_on_c, 5, 62, 33
7, 15509, Note_on_c, 5, 62, 0
7, 15540, Note_on_c, 5, 60, 33
7, 15569, Note_on_c, 5, 60, 0
7, 15600, Note_on_c, 5, 60, 33
7, 15719, Note_on_c, 5, 60, 0
7, 15720, Note_on_c, 5, 59, 33
7, 15839, Note_on_c, 5, 59, 0
7, 15839, Note_on_c, 5, 55, 0
7, 15840, Note_on_c, 5, 48, 23
7, 15840, Note_on_c, 5, 60, 23
7, 15959, Note_on_c, 5, 60, 0
7, 15959, Note_on_c, 5, 48, 0
7, 31680, Note_on_c, 5, 60, 31
7, 31739, Note_on_c, 5, 60, 0
7, 31800, Note_on_c, 5, 60, 31
7, 31919, Note_on_c, 5, 60, 0
7, 31920, Note_on_c, 5, 65, 31
7, 31979, Note_on_c, 5, 65, 0
7, 32040, Note_on_c, 5, 65, 30
7, 32159, Note_on_c, 5, 65, 0
7, 32160, Note_on_c, 5, 63, 30
7, 32199, Note_on_c, 5, 63, 0
7, 32220, Note_on_c, 5, 48, 30
7, 32249, Note_on_c, 5, 48, 0
7, 32280, Note_on_c, 5, 51, 30
7, 32309, Note_on_c, 5, 51, 0
7, 32340, Note_on_c, 5, 55, 29
7, 32369, Note_on_c, 5, 55, 0
7, 32400, Note_on_c, 5, 60, 29
7, 32429, Note_on_c, 5, 60, 0
7, 32460, Note_on_c, 5, 55, 29
7, 32489, Note_on_c, 5, 55, 0
7, 32520, Note_on_c, 5, 51, 29
7, 32549, Note_on_c, 5, 51, 0
7, 32580, Note_on_c, 5, 48, 29
7, 32609, Note_on_c, 5, 48, 0
7, 33180, Note_on_c, 5, 43, 27
7, 33209, Note_on_c, 5, 43, 0
7, 33240, Note_on_c, 5, 47, 27
7, 33269, Note_on_c, 5, 47, 0
7, 33300, Note_on_c, 5, 50, 26
7, 33329, Note_on_c, 5, 50, 0
7, 33360, Note_on_c, 5, 55, 26
7, 33389, Note_on_c, 5, 55, 0
7, 33420, Note_on_c, 5, 50, 26
7, 33449, Note_on_c, 5, 50, 0
7, 33480, Note_on_c, 5, 47, 26
7, 33509, Note_on_c, 5, 47, 0
7, 33540, Note_on_c, 5, 43, 26
7, 33569, Note_on_c, 5, 43, 0
7, 33600, Note_on_c, 5, 48, 23
7, 33660, Note_on_c, 5, 51, 23
7, 33719, Note_on_c, 5, 51, 0
7, 33720, Note_on_c, 5, 56, 24
7, 33779, Note_on_c, 5, 56, 0
7, 33780, Note_on_c, 5, 60, 24
7, 33839, Note_on_c, 5, 60, 0
7, 33839, Note_on_c, 5, 48, 0
7, 33840, Note_on_c, 5, 50, 25
7, 33900, Note_on_c, 5, 53, 26
7, 33959, Note_on_c, 5, 53, 0
7, 33960, Note_on_c, 5, 58, 26
7, 34019, Note_on_c, 5, 58, 0
7, 34020, Note_on_c, 5, 62, 27
7, 34079, Note_on_c, 5, 62, 0
7, 34079, Note_on_c, 5, 50, 0
7, 34080, Note_on_c, 5, 51, 28
7, 34140, Note_on_c, 5, 63, 28
7, 34199, Note_on_c, 5, 63, 0
7, 34200, Note_on_c, 5, 62, 29
7, 34259, Note_on_c, 5, 62, 0
7, 34260, Note_on_c, 5, 63, 30
7, 34299, Note_on_c, 5, 51, 0
7, 34319, Note_on_c, 5, 63, 0
7, 34320, Note_on_c, 5, 51, 30
7, 34380, Note_on_c, 5, 63, 31
7, 34429, Note_on_c, 5, 51, 0
7, 34439, Note_on_c, 5, 63, 0
7, 34440, Note_on_c, 5, 46, 32
7, 34500, Note_on_c, 5, 58, 32
7, 34549, Note_on_c, 5, 46, 0
7, 34559, Note_on_c, 5, 58, 0
7, 34560, Note_on_c, 5, 48, 33
7, 34620, Note_on_c, 5, 60, 34
7, 34669, Note_on_c, 5, 48, 0
7, 34679, Note_on_c, 5, 60, 0
7, 34680, Note_on_c, 5, 49, 34
7, 34740, Note_on_c, 5, 61, 35
7, 34789, Note_on_c, 5, 49, 0
7, 34799, Note_on_c, 5, 61, 0
7, 34800, Note_on_c, 5, 50, 36
7, 34800, Note_on_c, 5, 62, 36
7, 34859, Note_on_c, 5, 62, 0
7, 34860, Note_on_c, 5, 60, 32
7, 34919, Note_on_c, 5, 60, 0
7, 34920, Note_on_c, 5, 62, 30
7, 34979, Note_on_c, 5, 62, 0
7, 34979, Note_on_c, 5, 50, 0
7, 34980, Note_on_c, 5, 50, 29
7, 35039, Note_on_c, 5, 50, 0
7, 35040, Note_on_c, 5, 43, 26
7, 35100, Note_on_c, 5, 46, 26
7, 35129, Note_on_c, 5, 46, 0
7, 35159, Note_on_c, 5, 43, 0
7, 35160, Note_on_c, 5, 50, 32
7, 35189, Note_on_c, 5, 50, 0
7, 35220, Note_on_c, 5, 55, 24
7, 35249, Note_on_c, 5, 55, 0
7, 35280, Note_on_c, 5, 43, 19
7, 35369, Note_on_c, 5, 43, 0
7, 39360, Note_on_c, 5, 47, 33
7, 39420, Note_on_c, 5, 50, 33
7, 39459, Note_on_c, 5, 50, 0
7, 39480, Note_on_c, 5, 55, 34
7, 39519, Note_on_c, 5, 55, 0
7, 39540, Note_on_c, 5, 59, 35
7, 39579, Note_on_c, 5, 59, 0
7, 39589, Note_on_c, 5, 47, 0
7, 39600, Note_on_c, 5, 48, 35
7, 39660, Note_on_c, 5, 51, 36
7, 39699, Note_on_c, 5, 51, 0
7, 39720, Note_on_c, 5, 55, 37
7, 39759, Note_on_c, 5, 55, 0
7, 39780, Note_on_c, 5, 60, 38
7, 39819, Note_on_c, 5, 60, 0
7, 39829, Note_on_c, 5, 48, 0
7, 39840, Note_on_c, 5, 41, 38
7, 39960, Note_on_c, 5, 47, 40
7, 39999, Note_on_c, 5, 47, 0
7, 40020, Note_on_c, 5, 50, 40
7, 40059, Note_on_c, 5, 50, 0
7, 40080, Note_on_c, 5, 53, 41
7, 40119, Note_on_c, 5, 53, 0
7, 40140, Note_on_c, 5, 56, 42
7, 40179, Note_on_c, 5, 56, 0
7, 40199, Note_on_c, 5, 41, 0
7, 40200, Note_on_c, 5, 53, 43
7, 40200, Note_on_c, 5, 59, 43
7, 40239, Note_on_c, 5, 59, 0
7, 40260, Note_on_c, 5, 62, 36
7, 40299, Note_on_c, 5, 62, 0
7, 40319, Note_on_c, 5, 53, 0
7, 40320, Note_on_c, 5, 51, 43
7, 40380, Note_on_c, 5, 55, 42
7, 40419, Note_on_c, 5, 55, 0
7, 40440, Note_on_c, 5, 60, 41
7, 40479, Note_on_c, 5, 60, 0
7, 40500, Note_on_c, 5, 63, 39
7, 40539, Note_on_c, 5, 63, 0
7, 40539, Note_on_c, 5, 51, 0
7, 40560, Note_on_c, 5, 50, 38
7, 40620, Note_on_c, 5, 53, 37
7, 40659, Note_on_c, 5, 53, 0
7, 40680, Note_on_c, 5, 59, 35
7, 40719, Note_on_c, 5, 59, 0
7, 40740, Note_on_c, 5, 62, 34
7, 40779, Note_on_c, 5, 62, 0
7, 40779, Note_on_c, 5, 50, 0
7, 40800, Note_on_c, 5, 48, 32
7, 40919, Note_on_c, 5, 48, 0
7, 40920, Note_on_c, 5, 51, 37
7, 40959, Note_on_c, 5, 51, 0
7, 40980, Note_on_c, 5, 55, 36
7, 41019, Note_on_c, 5, 55, 0
7, 41040, Note_on_c, 5, 60, 34
7, 41079, Note_on_c, 5, 60, 0
7, 41100, Note_on_c, 5, 55, 32
7, 41139, Note_on_c, 5, 55, 0
7, 41160, Note_on_c, 5, 51, 31
7, 41199, Note_on_c, 5, 51, 0
7, 41220, Note_on_c, 5, 48, 29
7, 41259, Note_on_c, 5, 48, 0
7, 41280, Note_on_c, 5, 41, 33
7, 41340, Note_on_c, 5, 44, 33
7, 41379, Note_on_c, 5, 44, 0
7, 41400, Note_on_c, 5, 49, 34
7, 41439, Note_on_c, 5, 49, 0
7, 41460, Note_on_c, 5, 53, 34
7, 41499, Note_on_c, 5, 53, 0
7, 41519, Note_on_c, 5, 41, 0
7, 41520, Note_on_c, 5, 43, 35
7, 41580, Note_on_c, 5, 46, 35
7, 41619, Note_on_c, 5, 46, 0
7, 41640, Note_on_c, 5, 51, 36
7, 41679, Note_on_c, 5, 51, 0
7, 41700, Note_on_c, 5, 55, 36
7, 41739, Note_on_c, 5, 55, 0
7, 41759, Note_on_c, 5, 43, 0
7, 41760, Note_on_c, 5, 44, 37
7, 41820, Note_on_c, 5, 56, 37
7, 41859, Note_on_c, 5, 56, 0
7, 41880, Note_on_c, 5, 55, 38
7, 41919, Note_on_c, 5, 55, 0
7, 41940, Note_on_c, 5, 56, 39
7, 41979, Note_on_c, 5, 56, 0
7, 41979, Note_on_c, 5, 44, 0
7, 42000, Note_on_c, 5, 44, 39
7, 42039, Note_on_c, 5, 44, 0
7, 42060, Note_on_c, 5, 56, 40
7, 42099, Note_on_c, 5, 56, 0
7, 42120, Note_on_c, 5, 39, 40
7, 42180, Note_on_c, 5, 51, 41
7, 42219, Note_on_c, 5, 51, 0
7, 42239, Note_on_c, 5, 39, 0
7, 42240, Note_on_c, 5, 41, 41
7, 42300, Note_on_c, 5, 53, 42
7, 42339, Note_on_c, 5, 53, 0
7, 42359, Note_on_c, 5, 41, 0
7, 42360, Note_on_c, 5, 42, 42
7, 42420, Note_on_c, 5, 54, 43
7, 42459, Note_on_c, 5, 54, 0
7, 42479, Note_on_c, 5, 42, 0
7, 42480, Note_on_c, 5, 55, 44
7, 42480, Note_on_c, 5, 43, 44
7, 42519, Note_on_c, 5, 55, 0
7, 42540, Note_on_c, 5, 54, 36
7, 42579, Note_on_c, 5, 54, 0
7, 42600, Note_on_c, 5, 55, 36
7, 42639, Note_on_c, 5, 55, 0
7, 42660, Note_on_c, 5, 43, 36
7, 42699, Note_on_c, 5, 43, 0
7, 42719, Note_on_c, 5, 43, 0
7, 42720, Note_on_c, 5, 36, 35
7, 42720, Note_on_c, 5, 48, 35
7, 42759, Note_on_c, 5, 48, 0
7, 42780, Note_on_c, 5, 60, 33
7, 42819, Note_on_c, 5, 60, 0
7, 42839, Note_on_c, 5, 36, 0
7, 42840, Note_on_c, 5, 55, 31
7, 42879, Note_on_c, 5, 55, 0
7, 42900, Note_on_c, 5, 51, 29
7, 42939, Note_on_c, 5, 51, 0
7, 42960, Note_on_c, 5, 48, 26
7, 43049, Note_on_c, 5, 48, 0
7, 50760, Note_on_c, 5, 43, 49
7, 50760, Note_on_c, 5, 55, 49
7, 50819, Note_on_c, 5, 55, 0
7, 50819, Note_on_c, 5, 43, 0
7, 50850, Note_on_c, 5, 55, 49
7, 50850, Note_on_c, 5, 43, 49
7, 50879, Note_on_c, 5, 43, 0
7, 50879, Note_on_c, 5, 55, 0
7, 50880, Note_on_c, 5, 60, 49
7, 50969, Note_on_c, 5, 60, 0
7, 51000, Note_on_c, 5, 60, 49
7, 51029, Note_on_c, 5, 60, 0
7, 51090, Note_on_c, 5, 60, 49
7, 51119, Note_on_c, 5, 60, 0
7, 51120, Note_on_c, 5, 55, 49
7, 51209, Note_on_c, 5, 55, 0
7, 51240, Note_on_c, 5, 55, 49
7, 51269, Note_on_c, 5, 55, 0
7, 51330, Note_on_c, 5, 55, 49
7, 51359, Note_on_c, 5, 55, 0
7, 51360, Note_on_c, 5, 51, 49
7, 51449, Note_on_c, 5, 51, 0
7, 51480, Note_on_c, 5, 51, 49
7, 51509, Note_on_c, 5, 51, 0
7, 51570, Note_on_c, 5, 51, 49
7, 51599, Note_on_c, 5, 51, 0
7, 51600, Note_on_c, 5, 48, 49
7, 51689, Note_on_c, 5, 48, 0
7, 51720, Note_on_c, 5, 48, 49
7, 51749, Note_on_c, 5, 48, 0
7, 51810, Note_on_c, 5, 48, 49
7, 51839, Note_on_c, 5, 48, 0
7, 51840, Note_on_c, 5, 44, 49
7, 51929, Note_on_c, 5, 44, 0
7, 51960, Note_on_c, 5, 44, 49
7, 51989, Note_on_c, 5, 44, 0
7, 52050, Note_on_c, 5, 44, 49
7, 52079, Note_on_c, 5, 44, 0
7, 52080, Note_on_c, 5, 44, 49
7, 52169, Note_on_c, 5, 44, 0
7, 52200, Note_on_c, 5, 44, 49
7, 52229, Note_on_c, 5, 44, 0
7, 52290, Note_on_c, 5, 44, 49
7, 52319, Note_on_c, 5, 44, 0
7, 52320, Note_on_c, 5, 43, 49
7, 52409, Note_on_c, 5, 43, 0
7, 52800, Note_on_c, 5, 56, 49
7, 52800, Note_on_c, 5, 60, 49
7, 53279, Note_on_c, 5, 60, 0
7, 53279, Note_on_c, 5, 56, 0
7, 53280, Note_on_c, 5, 55, 49
7, 53280, Note_on_c, 5, 61, 49
7, 53759, Note_on_c, 5, 61, 0
7, 53759, Note_on_c, 5, 55, 0
7, 53760, Note_on_c, 5, 62, 49
7, 53760, Note_on_c, 5, 50, 49
7, 53819, Note_on_c, 5, 50, 0
7, 53819, Note_on_c, 5, 62, 0
7, 53880, Note_on_c, 5, 50, 49
7, 53909, Note_on_c, 5, 50, 0
7, 53970, Note_on_c, 5, 50, 49
7, 53999, Note_on_c, 5, 50, 0
7, 54000, Note_on_c, 5, 50, 49
7, 54089, Note_on_c, 5, 50, 0
7, 54120, Note_on_c, 5, 50, 49
7, 54149, Note_on_c, 5, 50, 0
7, 54210, Note_on_c, 5, 50, 49
7, 54239, Note_on_c, 5, 50, 0
7, 54240, Note_on_c, 5, 43, 49
7, 54269, Note_on_c, 5, 43, 0
7, 54300, Note_on_c, 5, 45, 49
7, 54329, Note_on_c, 5, 45, 0
7, 54330, Note_on_c, 5, 47, 49
7, 54359, Note_on_c, 5, 47, 0
7, 54360, Note_on_c, 5, 48, 49
7, 54389, Note_on_c, 5, 48, 0
7, 54390, Note_on_c, 5, 50, 49
7, 54419, Note_on_c, 5, 50, 0
7, 54420, Note_on_c, 5, 52, 49
7, 54449, Note_on_c, 5, 52, 0
7, 54450, Note_on_c, 5, 54, 49
7, 54479, Note_on_c, 5, 54, 0
7, 54480, Note_on_c, 5, 55, 49
7, 54539, Note_on_c, 5, 55, 0
7, 58440, Note_on_c, 5, 55, 47
7, 58440, Note_on_c, 5, 43, 47
7, 58489, Note_on_c, 5, 43, 0
7, 58489, Note_on_c, 5, 55, 0
7, 58530, Note_on_c, 5, 55, 47
7, 58530, Note_on_c, 5, 43, 47
7, 58559, Note_on_c, 5, 43, 0
7, 58559, Note_on_c, 5, 55, 0
7, 58560, Note_on_c, 5, 47, 47
7, 58679, Note_on_c, 5, 47, 0
7, 58680, Note_on_c, 5, 47, 47
7, 58709, Note_on_c, 5, 47, 0
7, 58770, Note_on_c, 5, 47, 47
7, 58799, Note_on_c, 5, 47, 0
7, 58800, Note_on_c, 5, 48, 47
7, 58919, Note_on_c, 5, 48, 0
7, 58920, Note_on_c, 5, 48, 47
7, 58949, Note_on_c, 5, 48, 0
7, 59010, Note_on_c, 5, 48, 47
7, 59039, Note_on_c, 5, 48, 0
7, 59040, Note_on_c, 5, 55, 47
7, 59159, Note_on_c, 5, 55, 0
7, 59160, Note_on_c, 5, 55, 47
7, 59189, Note_on_c, 5, 55, 0
7, 59250, Note_on_c, 5, 55, 47
7, 59279, Note_on_c, 5, 55, 0
7, 59280, Note_on_c, 5, 53, 47
7, 59369, Note_on_c, 5, 53, 0
7, 59400, Note_on_c, 5, 53, 47
7, 59429, Note_on_c, 5, 53, 0
7, 59490, Note_on_c, 5, 53, 47
7, 59519, Note_on_c, 5, 53, 0
7, 59520, Note_on_c, 5, 51, 47
7, 59609, Note_on_c, 5, 51, 0
7, 59640, Note_on_c, 5, 51, 47
7, 59669, Note_on_c, 5, 51, 0
7, 59730, Note_on_c, 5, 51, 47
7, 59759, Note_on_c, 5, 51, 0
7, 59760, Note_on_c, 5, 50, 47
7, 59849, Note_on_c, 5, 50, 0
7, 59880, Note_on_c, 5, 50, 47
7, 59929, Note_on_c, 5, 50, 0
7, 59970, Note_on_c, 5, 50, 47
7, 59999, Note_on_c, 5, 50, 0
7, 60000, Note_on_c, 5, 48, 47
7, 60119, Note_on_c, 5, 48, 0
7, 60480, Note_on_c, 5, 61, 47
7, 60480, Note_on_c, 5, 53, 47
7, 60959, Note_on_c, 5, 53, 0
7, 60959, Note_on_c, 5, 61, 0
7, 60960, Note_on_c, 5, 54, 47
7, 60960, Note_on_c, 5, 60, 47
7, 61439, Note_on_c, 5, 60, 0
7, 61439, Note_on_c, 5, 54, 0
7, 61440, Note_on_c, 5, 55, 47
7, 61529, Note_on_c, 5, 55, 0
7, 61560, Note_on_c, 5, 55, 47
7, 61589, Note_on_c, 5, 55, 0
7, 61650, Note_on_c, 5, 55, 47
7, 61679, Note_on_c, 5, 55, 0
7, 61680, Note_on_c, 5, 55, 47
7, 61769, Note_on_c, 5, 55, 0
7, 61800, Note_on_c, 5, 55, 47
7, 61829, Note_on_c, 5, 55, 0
7, 61890, Note_on_c, 5, 55, 47
7, 61919, Note_on_c, 5, 55, 0
7, 61920, Note_on_c, 5, 48, 47
7, 61979, Note_on_c, 5, 48, 0
7, 61980, Note_on_c, 5, 50, 47
7, 62009, Note_on_c, 5, 50, 0
7, 62010, Note_on_c, 5, 51, 47
7, 62039, Note_on_c, 5, 51, 0
7, 62040, Note_on_c, 5, 53, 47
7, 62069, Note_on_c, 5, 53, 0
7, 62070, Note_on_c, 5, 55, 47
7, 62099, Note_on_c, 5, 55, 0
7, 62100, Note_on_c, 5, 57, 47
7, 62129, Note_on_c, 5, 57, 0
7, 62130, Note_on_c, 5, 59, 47
7, 62159, Note_on_c, 5, 59, 0
7, 62160, Note_on_c, 5, 60, 47
7, 62219, Note_on_c, 5, 60, 0
7, 62400, Note_on_c, 5, 56, 35
7, 62400, Note_on_c, 5, 63, 35
7, 62439, Note_on_c, 5, 63, 0
7, 62439, Note_on_c, 5, 56, 0
7, 62520, Note_on_c, 5, 56, 35
7, 62520, Note_on_c, 5, 63, 35
7, 62559, Note_on_c, 5, 63, 0
7, 62559, Note_on_c, 5, 56, 0
7, 62640, Note_on_c, 5, 61, 35
7, 62640, Note_on_c, 5, 51, 35
7, 62679, Note_on_c, 5, 51, 0
7, 62679, Note_on_c, 5, 61, 0
7, 62760, Note_on_c, 5, 61, 35
7, 62760, Note_on_c, 5, 51, 35
7, 62799, Note_on_c, 5, 51, 0
7, 62799, Note_on_c, 5, 61, 0
7, 62880, Note_on_c, 5, 53, 35
7, 62880, Note_on_c, 5, 60, 35
7, 62919, Note_on_c, 5, 60, 0
7, 62919, Note_on_c, 5, 53, 0
7, 63000, Note_on_c, 5, 61, 41
7, 63000, Note_on_c, 5, 49, 45
7, 63239, Note_on_c, 5, 49, 0
7, 63239, Note_on_c, 5, 61, 0
7, 63240, Note_on_c, 5, 48, 35
7, 63240, Note_on_c, 5, 65, 35
7, 63329, Note_on_c, 5, 48, 0
7, 63360, Note_on_c, 5, 46, 35
7, 63479, Note_on_c, 5, 65, 0
7, 63480, Note_on_c, 5, 48, 35
7, 63480, Note_on_c, 5, 57, 35
7, 63509, Note_on_c, 5, 46, 0
7, 63599, Note_on_c, 5, 57, 0
7, 63599, Note_on_c, 5, 48, 0
7, 63600, Note_on_c, 5, 49, 35
7, 63600, Note_on_c, 5, 58, 35
7, 63719, Note_on_c, 5, 49, 0
7, 63720, Note_on_c, 5, 50, 35
7, 63839, Note_on_c, 5, 50, 0
7, 63840, Note_on_c, 5, 51, 35
7, 63869, Note_on_c, 5, 58, 0
7, 63899, Note_on_c, 5, 51, 0
7, 63960, Note_on_c, 5, 55, 53
7, 63960, Note_on_c, 5, 63, 51
7, 64199, Note_on_c, 5, 63, 0
7, 64199, Note_on_c, 5, 55, 0
7, 64200, Note_on_c, 5, 62, 35
7, 64200, Note_on_c, 5, 53, 35
7, 64259, Note_on_c, 5, 53, 0
7, 64259, Note_on_c, 5, 62, 0
7, 64320, Note_on_c, 5, 51, 35
7, 64320, Note_on_c, 5, 63, 35
7, 64439, Note_on_c, 5, 63, 0
7, 64439, Note_on_c, 5, 51, 0
7, 64440, Note_on_c, 5, 53, 35
7, 64440, Note_on_c, 5, 56, 35
7, 64559, Note_on_c, 5, 56, 0
7, 64559, Note_on_c, 5, 53, 0
7, 64560, Note_on_c, 5, 55, 35
7, 64560, Note_on_c, 5, 58, 35
7, 64679, Note_on_c, 5, 58, 0
7, 64680, Note_on_c, 5, 63, 35
7, 64799, Note_on_c, 5, 55, 0
7, 64800, Note_on_c, 5, 56, 34
7, 64919, Note_on_c, 5, 56, 0
7, 64919, Note_on_c, 5, 63, 0
7, 65280, Note_on_c, 5, 58, 35
7, 65520, Note_on_c, 5, 46, 35
7, 65579, Note_on_c, 5, 58, 0
7, 65640, Note_on_c, 5, 58, 35
7, 65759, Note_on_c, 5, 58, 0
7, 65759, Note_on_c, 5, 46, 0
7, 65760, Note_on_c, 5, 58, 35
7, 65760, Note_on_c, 5, 51, 32
7, 65839, Note_on_c, 5, 51, 0
7, 65880, Note_on_c, 5, 46, 28
7, 65959, Note_on_c, 5, 46, 0
7, 66000, Note_on_c, 5, 39, 25
7, 66079, Note_on_c, 5, 39, 0
7, 66089, Note_on_c, 5, 58, 0
7, 70080, Note_on_c, 5, 55, 44
7, 70080, Note_on_c, 5, 63, 44
7, 70109, Note_on_c, 5, 63, 0
7, 70109, Note_on_c, 5, 55, 0
7, 70200, Note_on_c, 5, 63, 44
7, 70200, Note_on_c, 5, 55, 44
7, 70229, Note_on_c, 5, 55, 0
7, 70229, Note_on_c, 5, 63, 0
7, 70320, Note_on_c, 5, 56, 44
7, 70320, Note_on_c, 5, 63, 44
7, 70349, Note_on_c, 5, 63, 0
7, 70349, Note_on_c, 5, 56, 0
7, 70440, Note_on_c, 5, 63, 44
7, 70440, Note_on_c, 5, 56, 44
7, 70469, Note_on_c, 5, 56, 0
7, 70469, Note_on_c, 5, 63, 0
7, 70560, Note_on_c, 5, 49, 44
7, 70560, Note_on_c, 5, 63, 44
7, 70589, Note_on_c, 5, 63, 0
7, 70589, Note_on_c, 5, 49, 0
7, 70680, Note_on_c, 5, 49, 54
7, 70680, Note_on_c, 5, 63, 54
7, 71039, Note_on_c, 5, 49, 0
7, 71040, Note_on_c, 5, 48, 44
7, 71069, Note_on_c, 5, 48, 0
7, 71069, Note_on_c, 5, 63, 0
7, 71160, Note_on_c, 5, 63, 44
7, 71160, Note_on_c, 5, 48, 44
7, 71189, Note_on_c, 5, 48, 0
7, 71189, Note_on_c, 5, 63, 0
7, 71280, Note_on_c, 5, 52, 44
7, 71280, Note_on_c, 5, 55, 44
7, 71309, Note_on_c, 5, 55, 0
7, 71309, Note_on_c, 5, 52, 0
7, 71400, Note_on_c, 5, 52, 44
7, 71400, Note_on_c, 5, 55, 44
7, 71429, Note_on_c, 5, 55, 0
7, 71429, Note_on_c, 5, 52, 0
7, 71520, Note_on_c, 5, 53, 44
7, 71520, Note_on_c, 5, 56, 44
7, 71549, Note_on_c, 5, 56, 0
7, 71549, Note_on_c, 5, 53, 0
7, 71640, Note_on_c, 5, 51, 54
7, 71640, Note_on_c, 5, 57, 54
7, 71849, Note_on_c, 5, 57, 0
7, 71880, Note_on_c, 5, 58, 44
7, 71969, Note_on_c, 5, 58, 0
7, 71969, Note_on_c, 5, 51, 0
7, 71970, Note_on_c, 5, 60, 44
7, 71999, Note_on_c, 5, 60, 0
7, 72000, Note_on_c, 5, 62, 44
7, 72000, Note_on_c, 5, 65, 44
7, 72059, Note_on_c, 5, 65, 0
7, 72059, Note_on_c, 5, 62, 0
7, 72120, Note_on_c, 5, 49, 54
7, 72120, Note_on_c, 5, 63, 54
7, 72479, Note_on_c, 5, 49, 0
7, 72480, Note_on_c, 5, 48, 39
7, 72719, Note_on_c, 5, 63, 0
7, 72720, Note_on_c, 5, 49, 39
7, 72720, Note_on_c, 5, 61, 39
7, 72749, Note_on_c, 5, 48, 0
7, 72839, Note_on_c, 5, 61, 0
7, 72839, Note_on_c, 5, 49, 0
7, 72840, Note_on_c, 5, 56, 39
7, 72840, Note_on_c, 5, 53, 39
7, 72959, Note_on_c, 5, 53, 0
7, 72959, Note_on_c, 5, 56, 0
7, 72960, Note_on_c, 5, 56, 39
7, 72960, Note_on_c, 5, 51, 39
7, 73259, Note_on_c, 5, 51, 0
7, 73260, Note_on_c, 5, 58, 39
7, 73289, Note_on_c, 5, 56, 0
7, 73319, Note_on_c, 5, 58, 0
7, 73320, Note_on_c, 5, 39, 38
7, 73320, Note_on_c, 5, 60, 38
7, 73379, Note_on_c, 5, 60, 0
7, 73380, Note_on_c, 5, 61, 37
7, 73439, Note_on_c, 5, 61, 0
7, 73439, Note_on_c, 5, 39, 0
7, 73440, Note_on_c, 5, 61, 31
7, 73440, Note_on_c, 5, 44, 34
7, 73529, Note_on_c, 5, 44, 0
7, 73560, Note_on_c, 5, 39, 35
7, 73649, Note_on_c, 5, 39, 0
7, 73679, Note_on_c, 5, 61, 0
7, 73680, Note_on_c, 5, 44, 28
7, 73680, Note_on_c, 5, 60, 26
7, 73769, Note_on_c, 5, 60, 0
7, 73769, Note_on_c, 5, 44, 0
7, 95340, Note_on_c, 5, 55, 33
7, 95399, Note_on_c, 5, 55, 0
7, 95400, Note_on_c, 5, 57, 33
7, 95459, Note_on_c, 5, 57, 0
7, 95460, Note_on_c, 5, 59, 33
7, 95519, Note_on_c, 5, 59, 0
7, 95520, Note_on_c, 5, 60, 33
7, 95549, Note_on_c, 5, 60, 0
7, 95580, Note_on_c, 5, 62, 33
7, 95599, Note_on_c, 5, 62, 0
7, 95600, Note_on_c, 5, 60, 33
7, 95619, Note_on_c, 5, 60, 0
7, 95620, Note_on_c, 5, 59, 33
7, 95639, Note_on_c, 5, 59, 0
7, 95640, Note_on_c, 5, 60, 33
7, 95669, Note_on_c, 5, 60, 0
7, 95700, Note_on_c, 5, 60, 33
7, 95729, Note_on_c, 5, 60, 0
7, 95760, Note_on_c, 5, 60, 33
7, 95779, Note_on_c, 5, 60, 0
7, 95820, Note_on_c, 5, 60, 35
7, 95839, Note_on_c, 5, 60, 0
7, 95880, Note_on_c, 5, 61, 38
7, 95899, Note_on_c, 5, 61, 0
7, 95940, Note_on_c, 5, 61, 40
7, 95959, Note_on_c, 5, 61, 0
7, 96000, Note_on_c, 5, 64, 43
7, 96059, Note_on_c, 5, 64, 0
7, 96060, Note_on_c, 5, 65, 33
7, 96099, Note_on_c, 5, 65, 0
7, 96120, Note_on_c, 5, 61, 43
7, 96179, Note_on_c, 5, 61, 0
7, 96180, Note_on_c, 5, 62, 33
7, 96219, Note_on_c, 5, 62, 0
7, 96240, Note_on_c, 5, 64, 43
7, 96299, Note_on_c, 5, 64, 0
7, 96300, Note_on_c, 5, 65, 33
7, 96339, Note_on_c, 5, 65, 0
7, 96420, Note_on_c, 5, 62, 33
7, 96449, Note_on_c, 5, 62, 0
7, 96450, Note_on_c, 5, 65, 33
7, 96479, Note_on_c, 5, 65, 0
7, 96480, Note_on_c, 5, 64, 29
7, 96719, Note_on_c, 5, 64, 0
7, 96720, Note_on_c, 5, 62, 23
7, 96839, Note_on_c, 5, 62, 0
7, 97260, Note_on_c, 5, 55, 34
7, 97319, Note_on_c, 5, 55, 0
7, 97320, Note_on_c, 5, 54, 24
7, 97320, Note_on_c, 5, 57, 34
7, 97379, Note_on_c, 5, 57, 0
7, 97379, Note_on_c, 5, 54, 0
7, 97380, Note_on_c, 5, 55, 24
7, 97380, Note_on_c, 5, 59, 34
7, 97439, Note_on_c, 5, 59, 0
7, 97439, Note_on_c, 5, 55, 0
7, 97440, Note_on_c, 5, 57, 24
7, 97440, Note_on_c, 5, 60, 34
7, 97619, Note_on_c, 5, 60, 0
7, 97619, Note_on_c, 5, 57, 0
7, 97620, Note_on_c, 5, 55, 24
7, 97620, Note_on_c, 5, 59, 34
7, 97679, Note_on_c, 5, 59, 0
7, 97679, Note_on_c, 5, 55, 0
7, 97680, Note_on_c, 5, 57, 34
7, 97680, Note_on_c, 5, 54, 24
7, 97709, Note_on_c, 5, 54, 0
7, 97709, Note_on_c, 5, 57, 0
7, 97740, Note_on_c, 5, 54, 25
7, 97740, Note_on_c, 5, 57, 36
7, 97769, Note_on_c, 5, 57, 0
7, 97769, Note_on_c, 5, 54, 0
7, 97800, Note_on_c, 5, 54, 27
7, 97800, Note_on_c, 5, 57, 38
7, 97829, Note_on_c, 5, 57, 0
7, 97829, Note_on_c, 5, 54, 0
7, 97860, Note_on_c, 5, 57, 41
7, 97860, Note_on_c, 5, 54, 29
7, 97889, Note_on_c, 5, 54, 0
7, 97889, Note_on_c, 5, 57, 0
7, 97920, Note_on_c, 5, 52, 30
7, 97920, Note_on_c, 5, 55, 25
7, 98019, Note_on_c, 5, 55, 0
7, 98019, Note_on_c, 5, 52, 0
7, 98130, Note_on_c, 5, 48, 24
7, 98130, Note_on_c, 5, 60, 34
7, 98159, Note_on_c, 5, 60, 0
7, 98159, Note_on_c, 5, 48, 0
7, 98160, Note_on_c, 5, 50, 24
7, 98160, Note_on_c, 5, 62, 34
7, 98219, Note_on_c, 5, 62, 0
7, 98219, Note_on_c, 5, 50, 0
7, 98280, Note_on_c, 5, 50, 24
7, 98280, Note_on_c, 5, 62, 34
7, 98339, Note_on_c, 5, 62, 0
7, 98339, Note_on_c, 5, 50, 0
7, 98400, Note_on_c, 5, 62, 24
7, 98400, Note_on_c, 5, 55, 24
7, 98489, Note_on_c, 5, 55, 0
7, 98520, Note_on_c, 5, 50, 24
7, 98609, Note_on_c, 5, 50, 0
7, 98640, Note_on_c, 5, 43, 24
7, 98719, Note_on_c, 5, 62, 0
7, 98729, Note_on_c, 5, 43, 0
7, 102540, Note_on_c, 5, 62, 34
7, 102599, Note_on_c, 5, 62, 0
7, 102600, Note_on_c, 5, 67, 42
7, 102659, Note_on_c, 5, 67, 0
7, 102660, Note_on_c, 5, 65, 34
7, 102719, Note_on_c, 5, 65, 0
7, 102720, Note_on_c, 5, 64, 34
7, 102779, Note_on_c, 5, 64, 0
7, 102780, Note_on_c, 5, 65, 34
7, 102799, Note_on_c, 5, 65, 0
7, 102800, Note_on_c, 5, 64, 34
7, 102819, Note_on_c, 5, 64, 0
7, 102820, Note_on_c, 5, 62, 34
7, 102839, Note_on_c, 5, 62, 0
7, 102840, Note_on_c, 5, 64, 34
7, 102869, Note_on_c, 5, 64, 0
7, 102900, Note_on_c, 5, 65, 34
7, 102929, Note_on_c, 5, 65, 0
7, 102960, Note_on_c, 5, 67, 34
7, 102989, Note_on_c, 5, 67, 0
7, 103020, Note_on_c, 5, 57, 27
7, 103079, Note_on_c, 5, 57, 0
7, 103080, Note_on_c, 5, 59, 25
7, 103139, Note_on_c, 5, 59, 0
7, 103140, Note_on_c, 5, 61, 23
7, 103199, Note_on_c, 5, 61, 0
7, 103200, Note_on_c, 5, 62, 24
7, 103319, Note_on_c, 5, 62, 0
7, 103500, Note_on_c, 5, 55, 27
7, 103500, Note_on_c, 5, 59, 27
7, 103559, Note_on_c, 5, 55, 0
7, 103560, Note_on_c, 5, 60, 28
7, 103560, Note_on_c, 5, 57, 28
7, 103589, Note_on_c, 5, 59, 0
7, 103619, Note_on_c, 5, 57, 0
7, 103619, Note_on_c, 5, 60, 0
7, 103620, Note_on_c, 5, 59, 28
7, 103620, Note_on_c, 5, 62, 28
7, 103679, Note_on_c, 5, 62, 0
7, 103679, Note_on_c, 5, 59, 0
7, 103680, Note_on_c, 5, 64, 29
7, 103680, Note_on_c, 5, 60, 29
7, 103739, Note_on_c, 5, 60, 0
7, 103739, Note_on_c, 5, 64, 0
7, 103740, Note_on_c, 5, 56, 30
7, 103740, Note_on_c, 5, 65, 30
7, 103799, Note_on_c, 5, 65, 0
7, 103799, Note_on_c, 5, 56, 0
7, 103800, Note_on_c, 5, 57, 31
7, 103800, Note_on_c, 5, 64, 31
7, 103859, Note_on_c, 5, 64, 0
7, 103859, Note_on_c, 5, 57, 0
7, 103860, Note_on_c, 5, 61, 32
7, 103860, Note_on_c, 5, 52, 32
7, 103919, Note_on_c, 5, 52, 0
7, 103919, Note_on_c, 5, 61, 0
7, 103920, Note_on_c, 5, 62, 24
7, 103920, Note_on_c, 5, 53, 24
7, 103969, Note_on_c, 5, 53, 0
7, 103969, Note_on_c, 5, 62, 0
7, 103980, Note_on_c, 5, 57, 27
7, 103980, Note_on_c, 5, 53, 27
7, 104039, Note_on_c, 5, 53, 0
7, 104039, Note_on_c, 5, 57, 0
7, 104040, Note_on_c, 5, 52, 27
7, 104040, Note_on_c, 5, 55, 27
7, 104099, Note_on_c, 5, 55, 0
7, 104099, Note_on_c, 5, 52, 0
7, 104100, Note_on_c, 5, 50, 27
7, 104100, Note_on_c, 5, 53, 27
7, 104159, Note_on_c, 5, 53, 0
7, 104159, Note_on_c, 5, 50, 0
7, 104160, Note_on_c, 5, 55, 27
7, 104199, Note_on_c, 5, 55, 0
7, 104220, Note_on_c, 5, 55, 27
7, 104279, Note_on_c, 5, 55, 0
7, 104280, Note_on_c, 5, 43, 27
7, 104280, Note_on_c, 5, 54, 27
7, 104339, Note_on_c, 5, 54, 0
7, 104340, Note_on_c, 5, 55, 27
7, 104369, Note_on_c, 5, 43, 0
7, 104399, Note_on_c, 5, 55, 0
7, 104400, Note_on_c, 5, 43, 27
7, 104489, Note_on_c, 5, 43, 0
7, 104940, Note_on_c, 5, 60, 25
7, 104940, Note_on_c, 5, 64, 25
7, 104999, Note_on_c, 5, 64, 0
7, 104999, Note_on_c, 5, 60, 0
7, 105000, Note_on_c, 5, 65, 25
7, 105000, Note_on_c, 5, 62, 25
7, 105059, Note_on_c, 5, 62, 0
7, 105059, Note_on_c, 5, 65, 0
7, 105060, Note_on_c, 5, 64, 26
7, 105060, Note_on_c, 5, 67, 26
7, 105119, Note_on_c, 5, 67, 0
7, 105119, Note_on_c, 5, 64, 0
7, 105119, Control_c, 5, 11, 66
7, 105120, Note_on_c, 5, 65, 35
7, 105120, Note_on_c, 5, 62, 35
7, 105121, Control_c, 5, 11, 67
7, 105128, Control_c, 5, 11, 68
7, 105135, Control_c, 5, 11, 69
7, 105142, Control_c, 5, 11, 70
7, 105149, Control_c, 5, 11, 71
7, 105156, Control_c, 5, 11, 72
7, 105163, Control_c, 5, 11, 73
7, 105170, Control_c, 5, 11, 74
7, 105177, Control_c, 5, 11, 75
7, 105184, Control_c, 5, 11, 76
7, 105191, Control_c, 5, 11, 77
7, 105198, Control_c, 5, 11, 78
7, 105205, Control_c, 5, 11, 80
7, 105212, Control_c, 5, 11, 82
7, 105219, Control_c, 5, 11, 84
7, 105226, Control_c, 5, 11, 86
7, 105233, Control_c, 5, 11, 88
7, 105240, Control_c, 5, 11, 90
7, 105247, Control_c, 5, 11, 92
7, 105254, Control_c, 5, 11, 94
7, 105261, Control_c, 5, 11, 96
7, 105268, Control_c, 5, 11, 98
7, 105275, Control_c, 5, 11, 100
7, 105282, Control_c, 5, 11, 103
7, 105289, Control_c, 5, 11, 106
7, 105296, Control_c, 5, 11, 109
7, 105299, Note_on_c, 5, 62, 0
7, 105299, Note_on_c, 5, 65, 0
7, 105300, Note_on_c, 5, 64, 28
7, 105300, Note_on_c, 5, 60, 28
7, 105303, Control_c, 5, 11, 112
7, 105310, Control_c, 5, 11, 115
7, 105317, Control_c, 5, 11, 118
7, 105324, Control_c, 5, 11, 121
7, 105331, Control_c, 5, 11, 124
7, 105338, Control_c, 5, 11, 127
7, 105359, Note_on_c, 5, 60, 0
7, 105359, Note_on_c, 5, 64, 0
7, 105359, Control_c, 5, 11, 127
7, 105359, Control_c, 5, 11, 127
7, 105360, Note_on_c, 5, 62, 34
7, 105360, Note_on_c, 5, 59, 26
7, 105389, Note_on_c, 5, 59, 0
7, 105389, Note_on_c, 5, 62, 0
7, 105420, Note_on_c, 5, 59, 27
7, 105420, Note_on_c, 5, 62, 35
7, 105449, Note_on_c, 5, 62, 0
7, 105449, Note_on_c, 5, 59, 0
7, 105480, Note_on_c, 5, 59, 28
7, 105480, Note_on_c, 5, 62, 36
7, 105509, Note_on_c, 5, 62, 0
7, 105509, Note_on_c, 5, 59, 0
7, 105540, Note_on_c, 5, 62, 38
7, 105540, Note_on_c, 5, 59, 30
7, 105569, Note_on_c, 5, 59, 0
7, 105569, Note_on_c, 5, 62, 0
7, 105600, Note_on_c, 5, 60, 32
7, 105689, Note_on_c, 5, 60, 0
7, 105810, Note_on_c, 5, 62, 27
7, 105810, Note_on_c, 5, 53, 27
7, 105839, Note_on_c, 5, 53, 0
7, 105839, Note_on_c, 5, 62, 0
7, 105840, Note_on_c, 5, 67, 27
7, 105840, Note_on_c, 5, 55, 27
7, 105919, Note_on_c, 5, 55, 0
7, 105919, Note_on_c, 5, 67, 0
7, 105960, Note_on_c, 5, 55, 25
7, 105960, Note_on_c, 5, 67, 25
7, 105989, Note_on_c, 5, 67, 0
7, 105990, Note_on_c, 5, 65, 24
7, 106019, Note_on_c, 5, 65, 0
7, 106020, Note_on_c, 5, 64, 24
7, 106049, Note_on_c, 5, 64, 0
7, 106050, Note_on_c, 5, 65, 24
7, 106079, Note_on_c, 5, 65, 0
7, 106079, Note_on_c, 5, 55, 0
7, 106080, Note_on_c, 5, 65, 23
7, 106080, Note_on_c, 5, 60, 23
7, 106179, Note_on_c, 5, 60, 0
7, 106200, Note_on_c, 5, 55, 21
7, 106299, Note_on_c, 5, 55, 0
7, 106319, Note_on_c, 5, 65, 0
7, 106320, Note_on_c, 5, 64, 19
7, 106320, Note_on_c, 5, 48, 19
7, 106399, Note_on_c, 5, 48, 0
7, 106399, Note_on_c, 5, 64, 0
7, 110700, Note_on_c, 5, 60, 25
7, 110700, Note_on_c, 5, 64, 25
7, 110759, Note_on_c, 5, 64, 0
7, 110759, Note_on_c, 5, 60, 0
7, 110760, Note_on_c, 5, 65, 25
7, 110760, Note_on_c, 5, 62, 25
7, 110819, Note_on_c, 5, 62, 0
7, 110819, Note_on_c, 5, 65, 0
7, 110820, Note_on_c, 5, 64, 26
7, 110820, Note_on_c, 5, 67, 26
7, 110879, Note_on_c, 5, 67, 0
7, 110879, Note_on_c, 5, 64, 0
7, 110879, Control_c, 5, 11, 66
7, 110880, Note_on_c, 5, 65, 35
7, 110880, Note_on_c, 5, 62, 35
7, 110881, Control_c, 5, 11, 67
7, 110888, Control_c, 5, 11, 68
7, 110895, Control_c, 5, 11, 69
7, 110902, Control_c, 5, 11, 70
7, 110909, Control_c, 5, 11, 71
7, 110916, Control_c, 5, 11, 72
7, 110923, Control_c, 5, 11, 73
7, 110930, Control_c, 5, 11, 74
7, 110937, Control_c, 5, 11, 75
7, 110944, Control_c, 5, 11, 76
7, 110951, Control_c, 5, 11, 77
7, 110958, Control_c, 5, 11, 78
7, 110965, Control_c, 5, 11, 80
7, 110972, Control_c, 5, 11, 82
7, 110979, Control_c, 5, 11, 84
7, 110986, Control_c, 5, 11, 86
7, 110993, Control_c, 5, 11, 88
7, 111000, Control_c, 5, 11, 90
7, 111007, Control_c, 5, 11, 92
7, 111014, Control_c, 5, 11, 94
7, 111021, Control_c, 5, 11, 96
7, 111028, Control_c, 5, 11, 98
7, 111035, Control_c, 5, 11, 100
7, 111042, Control_c, 5, 11, 103
7, 111049, Control_c, 5, 11, 106
7, 111056, Control_c, 5, 11, 109
7, 111059, Note_on_c, 5, 62, 0
7, 111059, Note_on_c, 5, 65, 0
7, 111060, Note_on_c, 5, 64, 28
7, 111060, Note_on_c, 5, 60, 28
7, 111063, Control_c, 5, 11, 112
7, 111070, Control_c, 5, 11, 115
7, 111077, Control_c, 5, 11, 118
7, 111084, Control_c, 5, 11, 121
7, 111091, Control_c, 5, 11, 124
7, 111098, Control_c, 5, 11, 127
7, 111119, Note_on_c, 5, 60, 0
7, 111119, Note_on_c, 5, 64, 0
7, 111119, Control_c, 5, 11, 127
7, 111119, Control_c, 5, 11, 127
7, 111120, Note_on_c, 5, 62, 34
7, 111120, Note_on_c, 5, 59, 26
7, 111149, Note_on_c, 5, 59, 0
7, 111149, Note_on_c, 5, 62, 0
7, 111180, Note_on_c, 5, 59, 27
7, 111180, Note_on_c, 5, 62, 35
7, 111209, Note_on_c, 5, 62, 0
7, 111209, Note_on_c, 5, 59, 0
7, 111240, Note_on_c, 5, 59, 28
7, 111240, Note_on_c, 5, 62, 36
7, 111269, Note_on_c, 5, 62, 0
7, 111269, Note_on_c, 5, 59, 0
7, 111300, Note_on_c, 5, 62, 38
7, 111300, Note_on_c, 5, 59, 30
7, 111329, Note_on_c, 5, 59, 0
7, 111329, Note_on_c, 5, 62, 0
7, 111360, Note_on_c, 5, 60, 32
7, 111449, Note_on_c, 5, 60, 0
7, 111570, Note_on_c, 5, 62, 27
7, 111570, Note_on_c, 5, 53, 27
7, 111599, Note_on_c, 5, 53, 0
7, 111599, Note_on_c, 5, 62, 0
7, 111600, Note_on_c, 5, 67, 27
7, 111600, Note_on_c, 5, 55, 27
7, 111679, Note_on_c, 5, 55, 0
7, 111679, Note_on_c, 5, 67, 0
7, 111720, Note_on_c, 5, 55, 25
7, 111720, Note_on_c, 5, 67, 25
7, 111749, Note_on_c, 5, 67, 0
7, 111750, Note_on_c, 5, 65, 24
7, 111779, Note_on_c, 5, 65, 0
7, 111780, Note_on_c, 5, 64, 24
7, 111809, Note_on_c, 5, 64, 0
7, 111810, Note_on_c, 5, 65, 24
7, 111839, Note_on_c, 5, 65, 0
7, 111839, Note_on_c, 5, 55, 0
7, 111840, Note_on_c, 5, 65, 23
7, 111840, Note_on_c, 5, 60, 23
7, 111939, Note_on_c, 5, 60, 0
7, 111960, Note_on_c, 5, 55, 21
7, 112059, Note_on_c, 5, 55, 0
7, 112079, Note_on_c, 5, 65, 0
7, 112080, Note_on_c, 5, 64, 19
7, 112080, Note_on_c, 5, 48, 19
7, 112159, Note_on_c, 5, 48, 0
7, 112159, Note_on_c, 5, 64, 0
7, 113820, Note_on_c, 5, 63, 34
7, 113820, Note_on_c, 5, 60, 34
7, 113839, Note_on_c, 5, 60, 0
7, 113839, Note_on_c, 5, 63, 0
7, 113880, Note_on_c, 5, 59, 31
7, 113880, Note_on_c, 5, 62, 31
7, 113899, Note_on_c, 5, 62, 0
7, 113899, Note_on_c, 5, 59, 0
7, 113940, Note_on_c, 5, 63, 27
7, 113940, Note_on_c, 5, 60, 27
7, 113959, Note_on_c, 5, 60, 0
7, 113959, Note_on_c, 5, 63, 0
7, 114000, Note_on_c, 5, 59, 23
7, 114000, Note_on_c, 5, 62, 23
7, 114119, Note_on_c, 5, 62, 0
7, 114119, Note_on_c, 5, 59, 0
7, 115740, Note_on_c, 5, 50, 34
7, 115740, Note_on_c, 5, 62, 34
7, 115769, Note_on_c, 5, 62, 0
7, 115769, Note_on_c, 5, 50, 0
7, 115800, Note_on_c, 5, 67, 31
7, 115800, Note_on_c, 5, 55, 31
7, 115829, Note_on_c, 5, 55, 0
7, 115829, Note_on_c, 5, 67, 0
7, 115860, Note_on_c, 5, 50, 27
7, 115860, Note_on_c, 5, 62, 27
7, 115889, Note_on_c, 5, 62, 0
7, 115889, Note_on_c, 5, 50, 0
7, 115920, Note_on_c, 5, 55, 23
7, 115920, Note_on_c, 5, 43, 23
7, 116039, Note_on_c, 5, 43, 0
7, 116039, Note_on_c, 5, 55, 0
7, 116700, Note_on_c, 5, 63, 34
7, 116700, Note_on_c, 5, 60, 34
7, 116719, Note_on_c, 5, 60, 0
7, 116719, Note_on_c, 5, 63, 0
7, 116760, Note_on_c, 5, 62, 31
7, 116760, Note_on_c, 5, 59, 31
7, 116779, Note_on_c, 5, 59, 0
7, 116779, Note_on_c, 5, 62, 0
7, 116820, Note_on_c, 5, 63, 27
7, 116820, Note_on_c, 5, 60, 27
7, 116839, Note_on_c, 5, 60, 0
7, 116839, Note_on_c, 5, 63, 0
7, 116880, Note_on_c, 5, 59, 23
7, 116880, Note_on_c, 5, 62, 23
7, 116999, Note_on_c, 5, 62, 0
7, 116999, Note_on_c, 5, 59, 0
7, 120540, Note_on_c, 5, 61, 37
7, 120540, Note_on_c, 5, 58, 37
7, 120563, Note_on_c, 5, 58, 0
7, 120563, Note_on_c, 5, 61, 0
7, 120600, Note_on_c, 5, 60, 37
7, 120600, Note_on_c, 5, 57, 37
7, 120623, Note_on_c, 5, 57, 0
7, 120623, Note_on_c, 5, 60, 0
7, 120660, Note_on_c, 5, 58, 37
7, 120660, Note_on_c, 5, 61, 37
7, 120683, Note_on_c, 5, 61, 0
7, 120683, Note_on_c, 5, 58, 0
7, 120720, Note_on_c, 5, 57, 37
7, 120720, Note_on_c, 5, 60, 37
7, 120839, Note_on_c, 5, 60, 0
7, 120839, Note_on_c, 5, 57, 0
7, 143039, Control_c, 5, 11, 66
7, 143040, Note_on_c, 5, 66, 43
7, 143040, Note_on_c, 5, 63, 33
7, 143041, Control_c, 5, 11, 67
7, 143052, Control_c, 5, 11, 68
7, 143063, Control_c, 5, 11, 69
7, 143074, Control_c, 5, 11, 70
7, 143085, Control_c, 5, 11, 71
7, 143096, Control_c, 5, 11, 72
7, 143107, Control_c, 5, 11, 73
7, 143118, Control_c, 5, 11, 74
7, 143129, Control_c, 5, 11, 75
7, 143140, Control_c, 5, 11, 76
7, 143151, Control_c, 5, 11, 77
7, 143162, Control_c, 5, 11, 78
7, 143173, Control_c, 5, 11, 80
7, 143184, Control_c, 5, 11, 82
7, 143195, Control_c, 5, 11, 84
7, 143206, Control_c, 5, 11, 86
7, 143217, Control_c, 5, 11, 88
7, 143228, Control_c, 5, 11, 90
7, 143239, Control_c, 5, 11, 92
7, 143250, Control_c, 5, 11, 94
7, 143261, Control_c, 5, 11, 96
7, 143272, Control_c, 5, 11, 98
7, 143283, Control_c, 5, 11, 100
7, 143294, Control_c, 5, 11, 103
7, 143305, Control_c, 5, 11, 106
7, 143316, Control_c, 5, 11, 109
7, 143327, Control_c, 5, 11, 112
7, 143338, Control_c, 5, 11, 115
7, 143349, Control_c, 5, 11, 118
7, 143360, Control_c, 5, 11, 121
7, 143371, Control_c, 5, 11, 124
7, 143382, Control_c, 5, 11, 127
7, 143399, Note_on_c, 5, 63, 0
7, 143399, Note_on_c, 5, 66, 0
7, 143399, Control_c, 5, 11, 127
7, 143399, Control_c, 5, 11, 127
7, 143400, Note_on_c, 5, 61, 23
7, 143400, Note_on_c, 5, 65, 30
7, 143579, Note_on_c, 5, 65, 0
7, 143579, Note_on_c, 5, 61, 0
7, 143580, Note_on_c, 5, 63, 23
7, 143580, Note_on_c, 5, 66, 30
7, 143759, Note_on_c, 5, 66, 0
7, 143759, Note_on_c, 5, 63, 0
7, 143760, Note_on_c, 5, 61, 25
7, 143760, Note_on_c, 5, 65, 33
7, 143939, Note_on_c, 5, 65, 0
7, 143939, Note_on_c, 5, 61, 0
7, 143940, Note_on_c, 5, 63, 27
7, 143940, Note_on_c, 5, 66, 35
7, 144119, Note_on_c, 5, 66, 0
7, 144120, Note_on_c, 5, 67, 37
7, 144419, Note_on_c, 5, 63, 0
7, 144420, Note_on_c, 5, 65, 33
7, 144479, Note_on_c, 5, 65, 0
7, 144480, Note_on_c, 5, 63, 23
7, 144569, Note_on_c, 5, 67, 0
7, 144599, Note_on_c, 5, 63, 0
7, 149159, Control_c, 5, 11, 66
7, 149160, Note_on_c, 5, 66, 43
7, 149160, Note_on_c, 5, 63, 33
7, 149161, Control_c, 5, 11, 67
7, 149172, Control_c, 5, 11, 68
7, 149183, Control_c, 5, 11, 69
7, 149194, Control_c, 5, 11, 70
7, 149205, Control_c, 5, 11, 71
7, 149216, Control_c, 5, 11, 72
7, 149227, Control_c, 5, 11, 73
7, 149238, Control_c, 5, 11, 74
7, 149249, Control_c, 5, 11, 75
7, 149260, Control_c, 5, 11, 76
7, 149271, Control_c, 5, 11, 77
7, 149282, Control_c, 5, 11, 78
7, 149293, Control_c, 5, 11, 80
7, 149304, Control_c, 5, 11, 82
7, 149315, Control_c, 5, 11, 84
7, 149326, Control_c, 5, 11, 86
7, 149337, Control_c, 5, 11, 88
7, 149348, Control_c, 5, 11, 90
7, 149359, Control_c, 5, 11, 92
7, 149370, Control_c, 5, 11, 94
7, 149381, Control_c, 5, 11, 96
7, 149392, Control_c, 5, 11, 98
7, 149403, Control_c, 5, 11, 100
7, 149414, Control_c, 5, 11, 103
7, 149425, Control_c, 5, 11, 106
7, 149436, Control_c, 5, 11, 109
7, 149447, Control_c, 5, 11, 112
7, 149458, Control_c, 5, 11, 115
7, 149469, Control_c, 5, 11, 118
7, 149480, Control_c, 5, 11, 121
7, 149491, Control_c, 5, 11, 124
7, 149502, Control_c, 5, 11, 127
7, 149519, Note_on_c, 5, 63, 0
7, 149519, Note_on_c, 5, 66, 0
7, 149519, Control_c, 5, 11, 127
7, 149519, Control_c, 5, 11, 127
7, 149520, Note_on_c, 5, 61, 23
7, 149520, Note_on_c, 5, 65, 30
7, 149699, Note_on_c, 5, 65, 0
7, 149699, Note_on_c, 5, 61, 0
7, 149700, Note_on_c, 5, 63, 23
7, 149700, Note_on_c, 5, 66, 30
7, 149879, Note_on_c, 5, 66, 0
7, 149879, Note_on_c, 5, 63, 0
7, 149880, Note_on_c, 5, 61, 25
7, 149880, Note_on_c, 5, 65, 33
7, 150059, Note_on_c, 5, 65, 0
7, 150059, Note_on_c, 5, 61, 0
7, 150060, Note_on_c, 5, 63, 27
7, 150060, Note_on_c, 5, 66, 35
7, 150239, Note_on_c, 5, 66, 0
7, 150240, Note_on_c, 5, 67, 37
7, 150479, Note_on_c, 5, 63, 0
7, 150539, Note_on_c, 5, 67, 0
7, 150540, Note_on_c, 5, 59, 33
7, 150540, Note_on_c, 5, 55, 33
7, 150599, Note_on_c, 5, 55, 0
7, 150599, Note_on_c, 5, 59, 0
7, 150600, Note_on_c, 5, 56, 33
7, 150600, Note_on_c, 5, 60, 43
7, 150945, Note_on_c, 5, 63, 41
7, 150959, Note_on_c, 5, 60, 0
7, 150960, Note_on_c, 5, 61, 41
7, 150964, Note_on_c, 5, 63, 0
7, 150979, Note_on_c, 5, 61, 0
7, 151020, Note_on_c, 5, 60, 35
7, 151039, Note_on_c, 5, 60, 0
7, 151080, Note_on_c, 5, 61, 35
7, 151099, Note_on_c, 5, 61, 0
7, 151140, Note_on_c, 5, 60, 28
7, 151279, Note_on_c, 5, 60, 0
7, 151305, Note_on_c, 5, 63, 35
7, 151320, Note_on_c, 5, 61, 35
7, 151324, Note_on_c, 5, 63, 0
7, 151339, Note_on_c, 5, 61, 0
7, 151380, Note_on_c, 5, 60, 35
7, 151399, Note_on_c, 5, 60, 0
7, 151440, Note_on_c, 5, 61, 35
7, 151459, Note_on_c, 5, 61, 0
7, 151500, Note_on_c, 5, 60, 28
7, 151619, Note_on_c, 5, 60, 0
7, 151650, Note_on_c, 5, 60, 35
7, 151665, Note_on_c, 5, 62, 35
7, 151669, Note_on_c, 5, 60, 0
7, 151669, Note_on_c, 5, 56, 0
7, 151680, Note_on_c, 5, 55, 26
7, 151680, Note_on_c, 5, 63, 41
7, 151684, Note_on_c, 5, 62, 0
7, 151770, Note_on_c, 5, 62, 35
7, 151779, Note_on_c, 5, 63, 0
7, 151799, Note_on_c, 5, 62, 0
7, 151800, Note_on_c, 5, 60, 35
7, 151819, Note_on_c, 5, 60, 0
7, 151860, Note_on_c, 5, 60, 35
7, 151979, Note_on_c, 5, 60, 0
7, 151980, Note_on_c, 5, 63, 35
7, 152010, Note_on_c, 5, 62, 31
7, 152019, Note_on_c, 5, 63, 0
7, 152039, Note_on_c, 5, 55, 0
7, 152040, Note_on_c, 5, 48, 28
7, 152040, Note_on_c, 5, 60, 28
7, 152049, Note_on_c, 5, 62, 0
7, 152079, Note_on_c, 5, 60, 0
7, 152079, Note_on_c, 5, 48, 0
7, 152100, Note_on_c, 5, 48, 28
7, 152139, Note_on_c, 5, 48, 0
7, 152160, Note_on_c, 5, 51, 28
7, 152199, Note_on_c, 5, 51, 0
7, 152220, Note_on_c, 5, 55, 28
7, 152259, Note_on_c, 5, 55, 0
7, 152280, Note_on_c, 5, 60, 28
7, 152319, Note_on_c, 5, 60, 0
7, 152340, Note_on_c, 5, 48, 28
7, 152379, Note_on_c, 5, 48, 0
7, 152460, Note_on_c, 5, 41, 28
7, 152499, Note_on_c, 5, 41, 0
7, 152520, Note_on_c, 5, 53, 28
7, 152559, Note_on_c, 5, 53, 0
7, 152640, Note_on_c, 5, 43, 28
7, 152679, Note_on_c, 5, 43, 0
7, 152700, Note_on_c, 5, 55, 28
7, 152739, Note_on_c, 5, 55, 0
7, 152820, Note_on_c, 5, 48, 28
7, 152859, Note_on_c, 5, 48, 0
7, 152880, Note_on_c, 5, 51, 28
7, 152919, Note_on_c, 5, 51, 0
7, 152940, Note_on_c, 5, 55, 28
7, 152979, Note_on_c, 5, 55, 0
7, 153000, Note_on_c, 5, 60, 28
7, 153039, Note_on_c, 5, 60, 0
7, 153060, Note_on_c, 5, 48, 28
7, 153099, Note_on_c, 5, 48, 0
7, 153180, Note_on_c, 5, 41, 27
7, 153219, Note_on_c, 5, 41, 0
7, 153240, Note_on_c, 5, 53, 27
7, 153279, Note_on_c, 5, 53, 0
7, 153360, Note_on_c, 5, 43, 28
7, 153399, Note_on_c, 5, 43, 0
7, 153420, Note_on_c, 5, 55, 29
7, 153459, Note_on_c, 5, 55, 0
7, 153540, Note_on_c, 5, 44, 33
7, 153579, Note_on_c, 5, 44, 0
7, 153600, Note_on_c, 5, 48, 34
7, 153639, Note_on_c, 5, 48, 0
7, 153660, Note_on_c, 5, 51, 35
7, 153699, Note_on_c, 5, 51, 0
7, 153720, Note_on_c, 5, 56, 36
7, 153759, Note_on_c, 5, 56, 0
7, 153780, Note_on_c, 5, 44, 37
7, 153819, Note_on_c, 5, 44, 0
7, 153900, Note_on_c, 5, 38, 39
7, 153939, Note_on_c, 5, 38, 0
7, 153960, Note_on_c, 5, 50, 40
7, 153999, Note_on_c, 5, 50, 0
7, 154080, Note_on_c, 5, 43, 42
7, 154119, Note_on_c, 5, 43, 0
7, 154140, Note_on_c, 5, 55, 43
7, 154179, Note_on_c, 5, 55, 0
7, 154200, Note_on_c, 5, 48, 44
7, 154289, Note_on_c, 5, 48, 0
7, 154560, Note_on_c, 5, 48, 45
7, 154583, Note_on_c, 5, 48, 0
7, 154590, Note_on_c, 5, 43, 45
7, 154613, Note_on_c, 5, 43, 0
7, 154620, Note_on_c, 5, 45, 45
7, 154643, Note_on_c, 5, 45, 0
7, 154650, Note_on_c, 5, 47, 46
7, 154673, Note_on_c, 5, 47, 0
7, 154680, Note_on_c, 5, 48, 46
7, 154703, Note_on_c, 5, 48, 0
7, 154710, Note_on_c, 5, 50, 47
7, 154733, Note_on_c, 5, 50, 0
7, 154740, Note_on_c, 5, 51, 47
7, 154763, Note_on_c, 5, 51, 0
7, 154770, Note_on_c, 5, 47, 47
7, 154793, Note_on_c, 5, 47, 0
7, 154800, Note_on_c, 5, 48, 48
7, 154823, Note_on_c, 5, 48, 0
7, 154830, Note_on_c, 5, 50, 48
7, 154853, Note_on_c, 5, 50, 0
7, 154860, Note_on_c, 5, 51, 49
7, 154883, Note_on_c, 5, 51, 0
7, 154890, Note_on_c, 5, 53, 49
7, 154913, Note_on_c, 5, 53, 0
7, 154920, Note_on_c, 5, 55, 50
7, 154979, Note_on_c, 5, 55, 0
7, 155100, Note_on_c, 5, 55, 52
7, 155159, Note_on_c, 5, 55, 0
7, 155280, Note_on_c, 5, 48, 55
7, 155339, Note_on_c, 5, 48, 0
7, 155339, End_track
8, 0, Start_track
8, 0, MIDI_port, 0
8, 0, Title_t, "Horns"
8, 20, Control_c, 6, 121, 0
8, 21, Control_c, 6, 11, 127
8, 21, Control_c, 6, 7, 127
8, 22, Control_c, 6, 93, 10
8, 22, Control_c, 6, 91, 79
8, 25, Control_c, 6, 10, 54
8, 26, Pitch_bend_c, 6, 8192
8, 27, Control_c, 6, 0, 1
8, 28, Control_c, 6, 32, 0
8, 29, Program_c, 6, 60
8, 960, Note_on_c, 6, 67, 27
8, 960, Note_on_c, 6, 55, 23
8, 1019, Note_on_c, 6, 55, 0
8, 1019, Note_on_c, 6, 67, 0
8, 1200, Note_on_c, 6, 55, 23
8, 1200, Note_on_c, 6, 67, 27
8, 1259, Note_on_c, 6, 67, 0
8, 1259, Note_on_c, 6, 55, 0
8, 1440, Note_on_c, 6, 55, 23
8, 1440, Note_on_c, 6, 67, 27
8, 1499, Note_on_c, 6, 67, 0
8, 1499, Note_on_c, 6, 55, 0
8, 2880, Note_on_c, 6, 51, 23
8, 2880, Note_on_c, 6, 63, 23
8, 3839, Note_on_c, 6, 63, 0
8, 3839, Note_on_c, 6, 51, 0
8, 4800, Note_on_c, 6, 67, 27
8, 4800, Note_on_c, 6, 55, 23
8, 4859, Note_on_c, 6, 55, 0
8, 4859, Note_on_c, 6, 67, 0
8, 5040, Note_on_c, 6, 55, 23
8, 5040, Note_on_c, 6, 67, 27
8, 5099, Note_on_c, 6, 67, 0
8, 5099, Note_on_c, 6, 55, 0
8, 5280, Note_on_c, 6, 55, 23
8, 5280, Note_on_c, 6, 67, 27
8, 5359, Note_on_c, 6, 67, 0
8, 5359, Note_on_c, 6, 55, 0
8, 6720, Note_on_c, 6, 51, 23
8, 6720, Note_on_c, 6, 63, 23
8, 7679, Note_on_c, 6, 63, 0
8, 7679, Note_on_c, 6, 51, 0
8, 8640, Note_on_c, 6, 67, 33
8, 8640, Note_on_c, 6, 55, 23
8, 8679, Note_on_c, 6, 55, 0
8, 8679, Note_on_c, 6, 67, 0
8, 8880, Note_on_c, 6, 67, 33
8, 8880, Note_on_c, 6, 55, 23
8, 8919, Note_on_c, 6, 55, 0
8, 8919, Note_on_c, 6, 67, 0
8, 9120, Note_on_c, 6, 55, 23
8, 9120, Note_on_c, 6, 67, 33
8, 9159, Note_on_c, 6, 67, 0
8, 9159, Note_on_c, 6, 55, 0
8, 12480, Note_on_c, 6, 67, 29
8, 12480, Note_on_c, 6, 55, 20
8, 12509, Note_on_c, 6, 55, 0
8, 12509, Note_on_c, 6, 67, 0
8, 12720, Note_on_c, 6, 67, 29
8, 12720, Note_on_c, 6, 55, 20
8, 12749, Note_on_c, 6, 55, 0
8, 12749, Note_on_c, 6, 67, 0
8, 12960, Note_on_c, 6, 55, 20
8, 12960, Note_on_c, 6, 67, 29
8, 12989, Note_on_c, 6, 67, 0
8, 12989, Note_on_c, 6, 55, 0
8, 50880, Note_on_c, 6, 67, 67
8, 50880, Note_on_c, 6, 55, 49
8, 50979, Note_on_c, 6, 55, 0
8, 50979, Note_on_c, 6, 67, 0
8, 51000, Note_on_c, 6, 67, 67
8, 51000, Note_on_c, 6, 55, 49
8, 51029, Note_on_c, 6, 55, 0
8, 51029, Note_on_c, 6, 67, 0
8, 51090, Note_on_c, 6, 55, 49
8, 51090, Note_on_c, 6, 67, 67
8, 51119, Note_on_c, 6, 67, 0
8, 51119, Note_on_c, 6, 55, 0
8, 51120, Note_on_c, 6, 67, 67
8, 51120, Note_on_c, 6, 55, 49
8, 51209, Note_on_c, 6, 55, 0
8, 51209, Note_on_c, 6, 67, 0
8, 51240, Note_on_c, 6, 67, 67
8, 51240, Note_on_c, 6, 55, 49
8, 51269, Note_on_c, 6, 55, 0
8, 51269, Note_on_c, 6, 67, 0
8, 51330, Note_on_c, 6, 55, 49
8, 51330, Note_on_c, 6, 67, 67
8, 51359, Note_on_c, 6, 67, 0
8, 51359, Note_on_c, 6, 55, 0
8, 51360, Note_on_c, 6, 67, 67
8, 51360, Note_on_c, 6, 55, 49
8, 51449, Note_on_c, 6, 55, 0
8, 51449, Note_on_c, 6, 67, 0
8, 51480, Note_on_c, 6, 67, 67
8, 51480, Note_on_c, 6, 55, 49
8, 51509, Note_on_c, 6, 55, 0
8, 51509, Note_on_c, 6, 67, 0
8, 51570, Note_on_c, 6, 55, 49
8, 51570, Note_on_c, 6, 67, 67
8, 51599, Note_on_c, 6, 67, 0
8, 51599, Note_on_c, 6, 55, 0
8, 51600, Note_on_c, 6, 63, 67
8, 51600, Note_on_c, 6, 55, 49
8, 51689, Note_on_c, 6, 55, 0
8, 51689, Note_on_c, 6, 63, 0
8, 51720, Note_on_c, 6, 63, 67
8, 51720, Note_on_c, 6, 55, 49
8, 51749, Note_on_c, 6, 55, 0
8, 51749, Note_on_c, 6, 63, 0
8, 51810, Note_on_c, 6, 63, 67
8, 51810, Note_on_c, 6, 55, 49
8, 51839, Note_on_c, 6, 55, 0
8, 51839, Note_on_c, 6, 63, 0
8, 51840, Note_on_c, 6, 63, 67
8, 51840, Note_on_c, 6, 51, 49
8, 51929, Note_on_c, 6, 51, 0
8, 51929, Note_on_c, 6, 63, 0
8, 51960, Note_on_c, 6, 51, 49
8, 51960, Note_on_c, 6, 63, 67
8, 51989, Note_on_c, 6, 63, 0
8, 51989, Note_on_c, 6, 51, 0
8, 52050, Note_on_c, 6, 51, 49
8, 52050, Note_on_c, 6, 63, 67
8, 52079, Note_on_c, 6, 63, 0
8, 52079, Note_on_c, 6, 51, 0
8, 52080, Note_on_c, 6, 63, 67
8, 52080, Note_on_c, 6, 51, 49
8, 52169, Note_on_c, 6, 51, 0
8, 52169, Note_on_c, 6, 63, 0
8, 52200, Note_on_c, 6, 63, 67
8, 52200, Note_on_c, 6, 51, 49
8, 52229, Note_on_c, 6, 51, 0
8, 52229, Note_on_c, 6, 63, 0
8, 52290, Note_on_c, 6, 51, 49
8, 52290, Note_on_c, 6, 63, 67
8, 52319, Note_on_c, 6, 63, 0
8, 52319, Note_on_c, 6, 51, 0
8, 52320, Note_on_c, 6, 55, 49
8, 52320, Note_on_c, 6, 67, 67
8, 52439, Note_on_c, 6, 67, 0
8, 52439, Note_on_c, 6, 55, 0
8, 52440, Note_on_c, 6, 55, 49
8, 52440, Note_on_c, 6, 67, 67
8, 52499, Note_on_c, 6, 67, 0
8, 52499, Note_on_c, 6, 55, 0
8, 52530, Note_on_c, 6, 55, 49
8, 52530, Note_on_c, 6, 67, 67
8, 52559, Note_on_c, 6, 67, 0
8, 52559, Note_on_c, 6, 55, 0
8, 52560, Note_on_c, 6, 67, 67
8, 52560, Note_on_c, 6, 55, 49
8, 52649, Note_on_c, 6, 55, 0
8, 52649, Note_on_c, 6, 67, 0
8, 52680, Note_on_c, 6, 55, 49
8, 52680, Note_on_c, 6, 67, 67
8, 52739, Note_on_c, 6, 67, 0
8, 52739, Note_on_c, 6, 55, 0
8, 52800, Note_on_c, 6, 51, 49
8, 52800, Note_on_c, 6, 63, 67
8, 52889, Note_on_c, 6, 63, 0
8, 52889, Note_on_c, 6, 51, 0
8, 52920, Note_on_c, 6, 51, 49
8, 52920, Note_on_c, 6, 63, 67
8, 52949, Note_on_c, 6, 63, 0
8, 52949, Note_on_c, 6, 51, 0
8, 53010, Note_on_c, 6, 51, 49
8, 53010, Note_on_c, 6, 63, 67
8, 53039, Note_on_c, 6, 63, 0
8, 53039, Note_on_c, 6, 51, 0
8, 53040, Note_on_c, 6, 51, 49
8, 53040, Note_on_c, 6, 63, 67
8, 53129, Note_on_c, 6, 63, 0
8, 53129, Note_on_c, 6, 51, 0
8, 53160, Note_on_c, 6, 51, 49
8, 53160, Note_on_c, 6, 63, 67
8, 53249, Note_on_c, 6, 63, 0
8, 53249, Note_on_c, 6, 51, 0
8, 53280, Note_on_c, 6, 63, 67
8, 53280, Note_on_c, 6, 51, 49
8, 53369, Note_on_c, 6, 51, 0
8, 53369, Note_on_c, 6, 63, 0
8, 53400, Note_on_c, 6, 51, 49
8, 53400, Note_on_c, 6, 63, 67
8, 53429, Note_on_c, 6, 63, 0
8, 53429, Note_on_c, 6, 51, 0
8, 53490, Note_on_c, 6, 51, 49
8, 53490, Note_on_c, 6, 63, 67
8, 53519, Note_on_c, 6, 63, 0
8, 53519, Note_on_c, 6, 51, 0
8, 53520, Note_on_c, 6, 51, 49
8, 53520, Note_on_c, 6, 63, 67
8, 53609, Note_on_c, 6, 63, 0
8, 53609, Note_on_c, 6, 51, 0
8, 53640, Note_on_c, 6, 51, 49
8, 53640, Note_on_c, 6, 63, 67
8, 53699, Note_on_c, 6, 63, 0
8, 53699, Note_on_c, 6, 51, 0
8, 53760, Note_on_c, 6, 55, 49
8, 53760, Note_on_c, 6, 67, 67
8, 53849, Note_on_c, 6, 67, 0
8, 53849, Note_on_c, 6, 55, 0
8, 54240, Note_on_c, 6, 55, 49
8, 54240, Note_on_c, 6, 67, 67
8, 54329, Note_on_c, 6, 67, 0
8, 54329, Note_on_c, 6, 55, 0
8, 54360, Note_on_c, 6, 55, 49
8, 54360, Note_on_c, 6, 67, 67
8, 54389, Note_on_c, 6, 67, 0
8, 54389, Note_on_c, 6, 55, 0
8, 54450, Note_on_c, 6, 55, 49
8, 54450, Note_on_c, 6, 67, 67
8, 54479, Note_on_c, 6, 67, 0
8, 54479, Note_on_c, 6, 55, 0
8, 54480, Note_on_c, 6, 55, 49
8, 54480, Note_on_c, 6, 67, 67
8, 54569, Note_on_c, 6, 67, 0
8, 54569, Note_on_c, 6, 55, 0
8, 58440, Note_on_c, 6, 67, 75
8, 58440, Note_on_c, 6, 55, 55
8, 58489, Note_on_c, 6, 55, 0
8, 58489, Note_on_c, 6, 67, 0
8, 58530, Note_on_c, 6, 55, 55
8, 58530, Note_on_c, 6, 67, 75
8, 58559, Note_on_c, 6, 67, 0
8, 58559, Note_on_c, 6, 55, 0
8, 58560, Note_on_c, 6, 67, 75
8, 58560, Note_on_c, 6, 55, 55
8, 58649, Note_on_c, 6, 55, 0
8, 58649, Note_on_c, 6, 67, 0
8, 58680, Note_on_c, 6, 55, 55
8, 58680, Note_on_c, 6, 67, 75
8, 58719, Note_on_c, 6, 67, 0
8, 58719, Note_on_c, 6, 55, 0
8, 58770, Note_on_c, 6, 55, 55
8, 58770, Note_on_c, 6, 67, 75
8, 58799, Note_on_c, 6, 67, 0
8, 58799, Note_on_c, 6, 55, 0
8, 58800, Note_on_c, 6, 55, 55
8, 58800, Note_on_c, 6, 67, 75
8, 58899, Note_on_c, 6, 67, 0
8, 58899, Note_on_c, 6, 55, 0
8, 58920, Note_on_c, 6, 67, 75
8, 58920, Note_on_c, 6, 55, 55
8, 58959, Note_on_c, 6, 55, 0
8, 58959, Note_on_c, 6, 67, 0
8, 59010, Note_on_c, 6, 67, 75
8, 59010, Note_on_c, 6, 55, 55
8, 59039, Note_on_c, 6, 55, 0
8, 59039, Note_on_c, 6, 67, 0
8, 59040, Note_on_c, 6, 67, 75
8, 59040, Note_on_c, 6, 55, 55
8, 59129, Note_on_c, 6, 55, 0
8, 59129, Note_on_c, 6, 67, 0
8, 59160, Note_on_c, 6, 67, 75
8, 59160, Note_on_c, 6, 55, 55
8, 59189, Note_on_c, 6, 55, 0
8, 59189, Note_on_c, 6, 67, 0
8, 59250, Note_on_c, 6, 55, 55
8, 59250, Note_on_c, 6, 67, 75
8, 59279, Note_on_c, 6, 67, 0
8, 59279, Note_on_c, 6, 55, 0
8, 59280, Note_on_c, 6, 67, 75
8, 59280, Note_on_c, 6, 55, 55
8, 59399, Note_on_c, 6, 55, 0
8, 59399, Note_on_c, 6, 67, 0
8, 59400, Note_on_c, 6, 68, 75
8, 59400, Note_on_c, 6, 65, 55
8, 59429, Note_on_c, 6, 65, 0
8, 59429, Note_on_c, 6, 68, 0
8, 59490, Note_on_c, 6, 68, 75
8, 59490, Note_on_c, 6, 65, 55
8, 59519, Note_on_c, 6, 65, 0
8, 59519, Note_on_c, 6, 68, 0
8, 59520, Note_on_c, 6, 63, 55
8, 59520, Note_on_c, 6, 67, 75
8, 59609, Note_on_c, 6, 67, 0
8, 59609, Note_on_c, 6, 63, 0
8, 59640, Note_on_c, 6, 67, 75
8, 59640, Note_on_c, 6, 55, 55
8, 59679, Note_on_c, 6, 55, 0
8, 59679, Note_on_c, 6, 67, 0
8, 59730, Note_on_c, 6, 55, 55
8, 59730, Note_on_c, 6, 67, 75
8, 59759, Note_on_c, 6, 67, 0
8, 59759, Note_on_c, 6, 55, 0
8, 59760, Note_on_c, 6, 67, 75
8, 59760, Note_on_c, 6, 55, 55
8, 59849, Note_on_c, 6, 55, 0
8, 59849, Note_on_c, 6, 67, 0
8, 59880, Note_on_c, 6, 55, 55
8, 59880, Note_on_c, 6, 67, 75
8, 59919, Note_on_c, 6, 67, 0
8, 59919, Note_on_c, 6, 55, 0
8, 59970, Note_on_c, 6, 55, 55
8, 59970, Note_on_c, 6, 67, 75
8, 59999, Note_on_c, 6, 67, 0
8, 59999, Note_on_c, 6, 55, 0
8, 60000, Note_on_c, 6, 67, 75
8, 60000, Note_on_c, 6, 55, 55
8, 60089, Note_on_c, 6, 55, 0
8, 60089, Note_on_c, 6, 67, 0
8, 60120, Note_on_c, 6, 51, 55
8, 60120, Note_on_c, 6, 55, 75
8, 60159, Note_on_c, 6, 55, 0
8, 60159, Note_on_c, 6, 51, 0
8, 60210, Note_on_c, 6, 51, 55
8, 60210, Note_on_c, 6, 55, 75
8, 60239, Note_on_c, 6, 55, 0
8, 60239, Note_on_c, 6, 51, 0
8, 60240, Note_on_c, 6, 51, 55
8, 60240, Note_on_c, 6, 55, 75
8, 60329, Note_on_c, 6, 55, 0
8, 60329, Note_on_c, 6, 51, 0
8, 60360, Note_on_c, 6, 51, 55
8, 60360, Note_on_c, 6, 55, 55
8, 60449, Note_on_c, 6, 55, 0
8, 60449, Note_on_c, 6, 51, 0
8, 60960, Note_on_c, 6, 51, 55
8, 60960, Note_on_c, 6, 63, 75
8, 61039, Note_on_c, 6, 63, 0
8, 61039, Note_on_c, 6, 51, 0
8, 61080, Note_on_c, 6, 51, 55
8, 61080, Note_on_c, 6, 63, 75
8, 61119, Note_on_c, 6, 63, 0
8, 61119, Note_on_c, 6, 51, 0
8, 61170, Note_on_c, 6, 51, 55
8, 61170, Note_on_c, 6, 63, 75
8, 61199, Note_on_c, 6, 63, 0
8, 61199, Note_on_c, 6, 51, 0
8, 61200, Note_on_c, 6, 63, 75
8, 61200, Note_on_c, 6, 51, 55
8, 61259, Note_on_c, 6, 51, 0
8, 61259, Note_on_c, 6, 63, 0
8, 61320, Note_on_c, 6, 51, 55
8, 61320, Note_on_c, 6, 63, 75
8, 61379, Note_on_c, 6, 63, 0
8, 61379, Note_on_c, 6, 51, 0
8, 61440, Note_on_c, 6, 67, 75
8, 61440, Note_on_c, 6, 55, 55
8, 61529, Note_on_c, 6, 55, 0
8, 61529, Note_on_c, 6, 67, 0
8, 61560, Note_on_c, 6, 55, 55
8, 61560, Note_on_c, 6, 67, 75
8, 61599, Note_on_c, 6, 67, 0
8, 61599, Note_on_c, 6, 55, 0
8, 61650, Note_on_c, 6, 55, 55
8, 61650, Note_on_c, 6, 67, 75
8, 61679, Note_on_c, 6, 67, 0
8, 61679, Note_on_c, 6, 55, 0
8, 61680, Note_on_c, 6, 67, 75
8, 61680, Note_on_c, 6, 55, 55
8, 61769, Note_on_c, 6, 55, 0
8, 61769, Note_on_c, 6, 67, 0
8, 61800, Note_on_c, 6, 67, 75
8, 61800, Note_on_c, 6, 55, 55
8, 61829, Note_on_c, 6, 55, 0
8, 61829, Note_on_c, 6, 67, 0
8, 61890, Note_on_c, 6, 67, 75
8, 61890, Note_on_c, 6, 55, 55
8, 61919, Note_on_c, 6, 55, 0
8, 61919, Note_on_c, 6, 67, 0
8, 61920, Note_on_c, 6, 63, 75
8, 61920, Note_on_c, 6, 55, 55
8, 62009, Note_on_c, 6, 55, 0
8, 62009, Note_on_c, 6, 63, 0
8, 62040, Note_on_c, 6, 55, 55
8, 62040, Note_on_c, 6, 63, 75
8, 62079, Note_on_c, 6, 63, 0
8, 62079, Note_on_c, 6, 55, 0
8, 62130, Note_on_c, 6, 63, 75
8, 62130, Note_on_c, 6, 55, 55
8, 62159, Note_on_c, 6, 55, 0
8, 62159, Note_on_c, 6, 63, 0
8, 62160, Note_on_c, 6, 63, 75
8, 62160, Note_on_c, 6, 55, 55
8, 62219, Note_on_c, 6, 55, 0
8, 62219, Note_on_c, 6, 63, 0
8, 63960, Note_on_c, 6, 55, 45
8, 63960, Note_on_c, 6, 63, 65
8, 64199, Note_on_c, 6, 63, 0
8, 64199, Note_on_c, 6, 55, 0
8, 64200, Note_on_c, 6, 58, 34
8, 64200, Note_on_c, 6, 65, 44
8, 64259, Note_on_c, 6, 65, 0
8, 64259, Note_on_c, 6, 58, 0
8, 64320, Note_on_c, 6, 67, 44
8, 64320, Note_on_c, 6, 63, 34
8, 64379, Note_on_c, 6, 63, 0
8, 64379, Note_on_c, 6, 67, 0
8, 64440, Note_on_c, 6, 65, 44
8, 64440, Note_on_c, 6, 58, 34
8, 64499, Note_on_c, 6, 58, 0
8, 64499, Note_on_c, 6, 65, 0
8, 64560, Note_on_c, 6, 63, 44
8, 64560, Note_on_c, 6, 55, 34
8, 64679, Note_on_c, 6, 55, 0
8, 64679, Note_on_c, 6, 63, 0
8, 65280, Note_on_c, 6, 58, 34
8, 65280, Note_on_c, 6, 63, 44
8, 65579, Note_on_c, 6, 63, 0
8, 65580, Note_on_c, 6, 65, 35
8, 65639, Note_on_c, 6, 65, 0
8, 65640, Note_on_c, 6, 67, 37
8, 65699, Note_on_c, 6, 67, 0
8, 65700, Note_on_c, 6, 68, 40
8, 65759, Note_on_c, 6, 68, 0
8, 65760, Note_on_c, 6, 51, 33
8, 65760, Note_on_c, 6, 68, 43
8, 65769, Note_on_c, 6, 58, 0
8, 65849, Note_on_c, 6, 51, 0
8, 65880, Note_on_c, 6, 46, 34
8, 65969, Note_on_c, 6, 46, 0
8, 65999, Note_on_c, 6, 68, 0
8, 66000, Note_on_c, 6, 51, 34
8, 66000, Note_on_c, 6, 67, 34
8, 66089, Note_on_c, 6, 51, 0
8, 66119, Note_on_c, 6, 67, 0
8, 72960, Note_on_c, 6, 51, 25
8, 72960, Note_on_c, 6, 63, 35
8, 73439, Note_on_c, 6, 63, 0
8, 73439, Note_on_c, 6, 51, 0
8, 73440, Note_on_c, 6, 51, 25
8, 73440, Note_on_c, 6, 63, 35
8, 73779, Note_on_c, 6, 63, 0
8, 73779, Note_on_c, 6, 51, 0
8, 154200, Note_on_c, 6, 55, 43
8, 154200, Note_on_c, 6, 63, 63
8, 154289, Note_on_c, 6, 63, 0
8, 154289, Note_on_c, 6, 55, 0
8, 154560, Note_on_c, 6, 63, 63
8, 154560, Note_on_c, 6, 55, 43
8, 154649, Note_on_c, 6, 55, 0
8, 154649, Note_on_c, 6, 63, 0
8, 154920, Note_on_c, 6, 67, 63
8, 154920, Note_on_c, 6, 55, 43
8, 154979, Note_on_c, 6, 55, 0
8, 154979, Note_on_c, 6, 67, 0
8, 155100, Note_on_c, 6, 67, 63
8, 155100, Note_on_c, 6, 55, 43
8, 155159, Note_on_c, 6, 55, 0
8, 155159, Note_on_c, 6, 67, 0
8, 155280, Note_on_c, 6, 55, 43
8, 155280, Note_on_c, 6, 63, 63
8, 155339, Note_on_c, 6, 63, 0
8, 155339, Note_on_c, 6, 55, 0
8, 155339, End_track
9, 0, Start_track
9, 0, MIDI_port, 0
9, 0, Title_t, "Trumpet"
9, 20, Control_c, 7, 121, 0
9, 21, Control_c, 7, 11, 127
9, 21, Control_c, 7, 7, 127
9, 22, Control_c, 7, 93, 10
9, 22, Control_c, 7, 91, 79
9, 25, Control_c, 7, 10, 54
9, 26, Pitch_bend_c, 7, 8192
9, 27, Control_c, 7, 0, 0
9, 28, Control_c, 7, 32, 1
9, 29, Program_c, 7, 56
9, 960, Note_on_c, 7, 60, 24
9, 960, Note_on_c, 7, 72, 34
9, 1019, Note_on_c, 7, 72, 0
9, 1019, Note_on_c, 7, 60, 0
9, 1200, Note_on_c, 7, 55, 24
9, 1200, Note_on_c, 7, 67, 34
9, 1259, Note_on_c, 7, 67, 0
9, 1259, Note_on_c, 7, 55, 0
9, 1440, Note_on_c, 7, 72, 34
9, 1440, Note_on_c, 7, 60, 24
9, 1499, Note_on_c, 7, 60, 0
9, 1499, Note_on_c, 7, 72, 0
9, 4800, Note_on_c, 7, 60, 24
9, 4800, Note_on_c, 7, 72, 34
9, 4859, Note_on_c, 7, 72, 0
9, 4859, Note_on_c, 7, 60, 0
9, 5040, Note_on_c, 7, 55, 24
9, 5040, Note_on_c, 7, 67, 34
9, 5099, Note_on_c, 7, 67, 0
9, 5099, Note_on_c, 7, 55, 0
9, 5280, Note_on_c, 7, 72, 34
9, 5280, Note_on_c, 7, 60, 24
9, 5359, Note_on_c, 7, 60, 0
9, 5359, Note_on_c, 7, 72, 0
9, 8640, Note_on_c, 7, 67, 35
9, 8640, Note_on_c, 7, 55, 27
9, 8679, Note_on_c, 7, 55, 0
9, 8679, Note_on_c, 7, 67, 0
9, 8880, Note_on_c, 7, 72, 35
9, 8880, Note_on_c, 7, 60, 27
9, 8919, Note_on_c, 7, 60, 0
9, 8919, Note_on_c, 7, 72, 0
9, 9120, Note_on_c, 7, 67, 35
9, 9120, Note_on_c, 7, 55, 27
9, 9159, Note_on_c, 7, 55, 0
9, 9159, Note_on_c, 7, 67, 0
9, 12480, Note_on_c, 7, 67, 31
9, 12480, Note_on_c, 7, 55, 24
9, 12509, Note_on_c, 7, 55, 0
9, 12509, Note_on_c, 7, 67, 0
9, 12720, Note_on_c, 7, 72, 31
9, 12720, Note_on_c, 7, 60, 24
9, 12749, Note_on_c, 7, 60, 0
9, 12749, Note_on_c, 7, 72, 0
9, 12960, Note_on_c, 7, 67, 31
9, 12960, Note_on_c, 7, 55, 24
9, 12989, Note_on_c, 7, 55, 0
9, 12989, Note_on_c, 7, 67, 0
9, 50880, Note_on_c, 7, 72, 69
9, 50880, Note_on_c, 7, 60, 60
9, 50969, Note_on_c, 7, 60, 0
9, 50969, Note_on_c, 7, 72, 0
9, 51000, Note_on_c, 7, 60, 60
9, 51000, Note_on_c, 7, 72, 69
9, 51029, Note_on_c, 7, 72, 0
9, 51029, Note_on_c, 7, 60, 0
9, 51090, Note_on_c, 7, 60, 69
9, 51090, Note_on_c, 7, 72, 69
9, 51119, Note_on_c, 7, 72, 0
9, 51119, Note_on_c, 7, 60, 0
9, 51120, Note_on_c, 7, 67, 69
9, 51209, Note_on_c, 7, 67, 0
9, 51240, Note_on_c, 7, 67, 69
9, 51269, Note_on_c, 7, 67, 0
9, 51330, Note_on_c, 7, 67, 69
9, 51359, Note_on_c, 7, 67, 0
9, 51360, Note_on_c, 7, 72, 69
9, 51360, Note_on_c, 7, 60, 51
9, 51479, Note_on_c, 7, 60, 0
9, 51479, Note_on_c, 7, 72, 0
9, 51840, Note_on_c, 7, 72, 69
9, 51840, Note_on_c, 7, 60, 51
9, 51929, Note_on_c, 7, 60, 0
9, 51929, Note_on_c, 7, 72, 0
9, 51960, Note_on_c, 7, 72, 69
9, 51960, Note_on_c, 7, 60, 51
9, 51989, Note_on_c, 7, 60, 0
9, 51989, Note_on_c, 7, 72, 0
9, 52050, Note_on_c, 7, 60, 51
9, 52050, Note_on_c, 7, 72, 69
9, 52079, Note_on_c, 7, 72, 0
9, 52079, Note_on_c, 7, 60, 0
9, 52080, Note_on_c, 7, 72, 69
9, 52080, Note_on_c, 7, 60, 51
9, 52169, Note_on_c, 7, 60, 0
9, 52169, Note_on_c, 7, 72, 0
9, 52200, Note_on_c, 7, 60, 51
9, 52200, Note_on_c, 7, 72, 69
9, 52259, Note_on_c, 7, 72, 0
9, 52259, Note_on_c, 7, 60, 0
9, 52320, Note_on_c, 7, 55, 51
9, 52320, Note_on_c, 7, 67, 69
9, 52409, Note_on_c, 7, 67, 0
9, 52409, Note_on_c, 7, 55, 0
9, 52440, Note_on_c, 7, 55, 51
9, 52440, Note_on_c, 7, 67, 69
9, 52469, Note_on_c, 7, 67, 0
9, 52469, Note_on_c, 7, 55, 0
9, 52530, Note_on_c, 7, 67, 69
9, 52530, Note_on_c, 7, 55, 51
9, 52559, Note_on_c, 7, 55, 0
9, 52559, Note_on_c, 7, 67, 0
9, 52560, Note_on_c, 7, 67, 69
9, 52560, Note_on_c, 7, 55, 51
9, 52619, Note_on_c, 7, 55, 0
9, 52619, Note_on_c, 7, 67, 0
9, 52680, Note_on_c, 7, 67, 69
9, 52680, Note_on_c, 7, 55, 51
9, 52709, Note_on_c, 7, 55, 0
9, 52739, Note_on_c, 7, 67, 0
9, 53280, Note_on_c, 7, 55, 51
9, 53280, Note_on_c, 7, 67, 69
9, 53369, Note_on_c, 7, 67, 0
9, 53369, Note_on_c, 7, 55, 0
9, 53400, Note_on_c, 7, 55, 51
9, 53400, Note_on_c, 7, 67, 69
9, 53429, Note_on_c, 7, 67, 0
9, 53429, Note_on_c, 7, 55, 0
9, 53490, Note_on_c, 7, 55, 51
9, 53490, Note_on_c, 7, 67, 69
9, 53519, Note_on_c, 7, 67, 0
9, 53519, Note_on_c, 7, 55, 0
9, 53520, Note_on_c, 7, 67, 69
9, 53520, Note_on_c, 7, 55, 51
9, 53579, Note_on_c, 7, 55, 0
9, 53579, Note_on_c, 7, 67, 0
9, 53640, Note_on_c, 7, 55, 51
9, 53640, Note_on_c, 7, 67, 69
9, 53669, Note_on_c, 7, 67, 0
9, 53669, Note_on_c, 7, 55, 0
9, 53760, Note_on_c, 7, 74, 69
9, 53760, Note_on_c, 7, 67, 60
9, 53819, Note_on_c, 7, 67, 0
9, 53819, Note_on_c, 7, 74, 0
9, 54000, Note_on_c, 7, 74, 69
9, 54089, Note_on_c, 7, 74, 0
9, 54240, Note_on_c, 7, 67, 69
9, 54299, Note_on_c, 7, 67, 0
9, 54360, Note_on_c, 7, 67, 69
9, 54389, Note_on_c, 7, 67, 0
9, 54450, Note_on_c, 7, 67, 69
9, 54479, Note_on_c, 7, 67, 0
9, 54480, Note_on_c, 7, 67, 69
9, 54539, Note_on_c, 7, 67, 0
9, 58560, Note_on_c, 7, 67, 75
9, 58560, Note_on_c, 7, 55, 55
9, 58649, Note_on_c, 7, 55, 0
9, 58649, Note_on_c, 7, 67, 0
9, 58680, Note_on_c, 7, 67, 75
9, 58680, Note_on_c, 7, 55, 55
9, 58709, Note_on_c, 7, 55, 0
9, 58709, Note_on_c, 7, 67, 0
9, 58770, Note_on_c, 7, 55, 55
9, 58770, Note_on_c, 7, 67, 75
9, 58799, Note_on_c, 7, 67, 0
9, 58799, Note_on_c, 7, 55, 0
9, 58800, Note_on_c, 7, 60, 55
9, 58800, Note_on_c, 7, 72, 75
9, 58889, Note_on_c, 7, 72, 0
9, 58889, Note_on_c, 7, 60, 0
9, 58920, Note_on_c, 7, 72, 75
9, 58920, Note_on_c, 7, 60, 55
9, 58949, Note_on_c, 7, 60, 0
9, 58949, Note_on_c, 7, 72, 0
9, 59010, Note_on_c, 7, 60, 55
9, 59010, Note_on_c, 7, 72, 75
9, 59039, Note_on_c, 7, 72, 0
9, 59039, Note_on_c, 7, 60, 0
9, 59040, Note_on_c, 7, 55, 55
9, 59040, Note_on_c, 7, 67, 75
9, 59129, Note_on_c, 7, 67, 0
9, 59129, Note_on_c, 7, 55, 0
9, 59160, Note_on_c, 7, 55, 55
9, 59160, Note_on_c, 7, 67, 75
9, 59189, Note_on_c, 7, 67, 0
9, 59189, Note_on_c, 7, 55, 0
9, 59250, Note_on_c, 7, 55, 55
9, 59250, Note_on_c, 7, 67, 75
9, 59279, Note_on_c, 7, 67, 0
9, 59279, Note_on_c, 7, 55, 0
9, 59280, Note_on_c, 7, 67, 75
9, 59280, Note_on_c, 7, 55, 55
9, 59369, Note_on_c, 7, 55, 0
9, 59369, Note_on_c, 7, 67, 0
9, 59520, Note_on_c, 7, 60, 55
9, 59520, Note_on_c, 7, 72, 75
9, 59609, Note_on_c, 7, 72, 0
9, 59609, Note_on_c, 7, 60, 0
9, 59640, Note_on_c, 7, 60, 55
9, 59640, Note_on_c, 7, 72, 75
9, 59669, Note_on_c, 7, 72, 0
9, 59669, Note_on_c, 7, 60, 0
9, 59730, Note_on_c, 7, 60, 55
9, 59730, Note_on_c, 7, 72, 75
9, 59759, Note_on_c, 7, 72, 0
9, 59759, Note_on_c, 7, 60, 0
9, 59760, Note_on_c, 7, 55, 55
9, 59760, Note_on_c, 7, 67, 75
9, 59849, Note_on_c, 7, 67, 0
9, 59849, Note_on_c, 7, 55, 0
9, 59880, Note_on_c, 7, 67, 75
9, 59880, Note_on_c, 7, 55, 55
9, 59909, Note_on_c, 7, 55, 0
9, 59909, Note_on_c, 7, 67, 0
9, 59970, Note_on_c, 7, 67, 75
9, 59970, Note_on_c, 7, 55, 55
9, 59999, Note_on_c, 7, 55, 0
9, 59999, Note_on_c, 7, 67, 0
9, 60000, Note_on_c, 7, 72, 75
9, 60000, Note_on_c, 7, 60, 55
9, 60089, Note_on_c, 7, 60, 0
9, 60089, Note_on_c, 7, 72, 0
9, 60120, Note_on_c, 7, 72, 75
9, 60120, Note_on_c, 7, 60, 55
9, 60149, Note_on_c, 7, 60, 0
9, 60149, Note_on_c, 7, 72, 0
9, 60210, Note_on_c, 7, 60, 55
9, 60210, Note_on_c, 7, 72, 75
9, 60239, Note_on_c, 7, 72, 0
9, 60239, Note_on_c, 7, 60, 0
9, 60240, Note_on_c, 7, 60, 55
9, 60240, Note_on_c, 7, 72, 75
9, 60299, Note_on_c, 7, 72, 0
9, 60329, Note_on_c, 7, 60, 0
9, 60360, Note_on_c, 7, 72, 75
9, 60360, Note_on_c, 7, 60, 55
9, 60419, Note_on_c, 7, 60, 0
9, 60419, Note_on_c, 7, 72, 0
9, 60960, Note_on_c, 7, 60, 55
9, 60960, Note_on_c, 7, 72, 75
9, 61049, Note_on_c, 7, 72, 0
9, 61049, Note_on_c, 7, 60, 0
9, 61080, Note_on_c, 7, 60, 55
9, 61080, Note_on_c, 7, 72, 75
9, 61109, Note_on_c, 7, 72, 0
9, 61109, Note_on_c, 7, 60, 0
9, 61170, Note_on_c, 7, 60, 55
9, 61170, Note_on_c, 7, 72, 75
9, 61199, Note_on_c, 7, 72, 0
9, 61199, Note_on_c, 7, 60, 0
9, 61200, Note_on_c, 7, 60, 55
9, 61200, Note_on_c, 7, 72, 75
9, 61259, Note_on_c, 7, 72, 0
9, 61259, Note_on_c, 7, 60, 0
9, 61320, Note_on_c, 7, 60, 55
9, 61320, Note_on_c, 7, 72, 75
9, 61349, Note_on_c, 7, 72, 0
9, 61379, Note_on_c, 7, 60, 0
9, 61440, Note_on_c, 7, 67, 75
9, 61440, Note_on_c, 7, 55, 55
9, 61529, Note_on_c, 7, 55, 0
9, 61529, Note_on_c, 7, 67, 0
9, 61560, Note_on_c, 7, 55, 55
9, 61560, Note_on_c, 7, 67, 75
9, 61589, Note_on_c, 7, 67, 0
9, 61589, Note_on_c, 7, 55, 0
9, 61650, Note_on_c, 7, 55, 55
9, 61650, Note_on_c, 7, 67, 75
9, 61679, Note_on_c, 7, 67, 0
9, 61679, Note_on_c, 7, 55, 0
9, 61680, Note_on_c, 7, 67, 75
9, 61680, Note_on_c, 7, 55, 55
9, 61769, Note_on_c, 7, 55, 0
9, 61769, Note_on_c, 7, 67, 0
9, 61800, Note_on_c, 7, 55, 55
9, 61800, Note_on_c, 7, 67, 75
9, 61839, Note_on_c, 7, 67, 0
9, 61839, Note_on_c, 7, 55, 0
9, 61890, Note_on_c, 7, 67, 75
9, 61890, Note_on_c, 7, 55, 55
9, 61919, Note_on_c, 7, 55, 0
9, 61919, Note_on_c, 7, 67, 0
9, 61920, Note_on_c, 7, 72, 75
9, 61920, Note_on_c, 7, 60, 55
9, 62009, Note_on_c, 7, 60, 0
9, 62009, Note_on_c, 7, 72, 0
9, 62040, Note_on_c, 7, 72, 75
9, 62040, Note_on_c, 7, 60, 55
9, 62069, Note_on_c, 7, 60, 0
9, 62069, Note_on_c, 7, 72, 0
9, 62130, Note_on_c, 7, 60, 55
9, 62130, Note_on_c, 7, 72, 75
9, 62159, Note_on_c, 7, 72, 0
9, 62159, Note_on_c, 7, 60, 0
9, 62160, Note_on_c, 7, 72, 75
9, 62160, Note_on_c, 7, 60, 55
9, 62219, Note_on_c, 7, 60, 0
9, 62219, Note_on_c, 7, 72, 0
9, 154200, Note_on_c, 7, 60, 55
9, 154200, Note_on_c, 7, 72, 75
9, 154259, Note_on_c, 7, 72, 0
9, 154259, Note_on_c, 7, 60, 0
9, 154560, Note_on_c, 7, 72, 75
9, 154560, Note_on_c, 7, 60, 55
9, 154619, Note_on_c, 7, 60, 0
9, 154619, Note_on_c, 7, 72, 0
9, 154920, Note_on_c, 7, 79, 75
9, 154920, Note_on_c, 7, 67, 55
9, 154979, Note_on_c, 7, 67, 0
9, 154979, Note_on_c, 7, 79, 0
9, 155100, Note_on_c, 7, 67, 75
9, 155100, Note_on_c, 7, 55, 55
9, 155159, Note_on_c, 7, 55, 0
9, 155159, Note_on_c, 7, 67, 0
9, 155280, Note_on_c, 7, 72, 75
9, 155280, Note_on_c, 7, 60, 55
9, 155339, Note_on_c, 7, 60, 0
9, 155339, Note_on_c, 7, 72, 0
9, 155339, End_track
10, 0, Start_track
10, 0, MIDI_port, 0
10, 0, Title_t, "Timpani"
10, 20, Control_c, 9, 121, 0
10, 21, Control_c, 9, 11, 127
10, 21, Control_c, 9, 7, 127
10, 22, Control_c, 9, 93, 0
10, 22, Control_c, 9, 91, 127
10, 25, Control_c, 9, 10, 44
10, 26, Pitch_bend_c, 9, 8192
10, 27, Control_c, 9, 0, 0
10, 28, Control_c, 9, 32, 0
10, 29, Program_c, 9, 48
10, 960, Note_on_c, 9, 48, 24
10, 961, Note_on_c, 9, 48, 0
10, 1200, Note_on_c, 9, 43, 24
10, 1201, Note_on_c, 9, 43, 0
10, 1440, Note_on_c, 9, 48, 24
10, 1441, Note_on_c, 9, 48, 0
10, 4800, Note_on_c, 9, 48, 19
10, 4801, Note_on_c, 9, 48, 0
10, 5040, Note_on_c, 9, 43, 19
10, 5041, Note_on_c, 9, 43, 0
10, 5280, Note_on_c, 9, 48, 19
10, 5281, Note_on_c, 9, 48, 0
10, 8640, Note_on_c, 9, 43, 19
10, 8759, Note_on_c, 9, 43, 0
10, 8880, Note_on_c, 9, 48, 19
10, 8999, Note_on_c, 9, 48, 0
10, 9120, Note_on_c, 9, 43, 19
10, 9239, Note_on_c, 9, 43, 0
10, 12480, Note_on_c, 9, 43, 17
10, 12599, Note_on_c, 9, 43, 0
10, 12720, Note_on_c, 9, 48, 17
10, 12839, Note_on_c, 9, 48, 0
10, 12960, Note_on_c, 9, 43, 17
10, 13079, Note_on_c, 9, 43, 0
10, 50880, Note_on_c, 9, 48, 59
10, 50909, Note_on_c, 9, 48, 0
10, 51000, Note_on_c, 9, 48, 59
10, 51029, Note_on_c, 9, 48, 0
10, 51090, Note_on_c, 9, 48, 59
10, 51119, Note_on_c, 9, 48, 0
10, 51120, Note_on_c, 9, 43, 59
10, 51149, Note_on_c, 9, 43, 0
10, 51240, Note_on_c, 9, 43, 59
10, 51269, Note_on_c, 9, 43, 0
10, 51330, Note_on_c, 9, 43, 59
10, 51359, Note_on_c, 9, 43, 0
10, 51360, Note_on_c, 9, 48, 59
10, 51389, Note_on_c, 9, 48, 0
10, 51840, Note_on_c, 9, 48, 59
10, 51869, Note_on_c, 9, 48, 0
10, 51960, Note_on_c, 9, 48, 59
10, 51989, Note_on_c, 9, 48, 0
10, 52050, Note_on_c, 9, 48, 59
10, 52079, Note_on_c, 9, 48, 0
10, 52080, Note_on_c, 9, 48, 59
10, 52109, Note_on_c, 9, 48, 0
10, 52200, Note_on_c, 9, 48, 59
10, 52229, Note_on_c, 9, 48, 0
10, 52320, Note_on_c, 9, 43, 59
10, 52349, Note_on_c, 9, 43, 0
10, 52440, Note_on_c, 9, 43, 59
10, 52469, Note_on_c, 9, 43, 0
10, 52530, Note_on_c, 9, 43, 59
10, 52559, Note_on_c, 9, 43, 0
10, 52560, Note_on_c, 9, 43, 59
10, 52589, Note_on_c, 9, 43, 0
10, 52680, Note_on_c, 9, 43, 59
10, 52709, Note_on_c, 9, 43, 0
10, 53280, Note_on_c, 9, 43, 59
10, 53309, Note_on_c, 9, 43, 0
10, 53400, Note_on_c, 9, 43, 59
10, 53429, Note_on_c, 9, 43, 0
10, 53490, Note_on_c, 9, 43, 59
10, 53519, Note_on_c, 9, 43, 0
10, 53520, Note_on_c, 9, 43, 59
10, 53549, Note_on_c, 9, 43, 0
10, 53640, Note_on_c, 9, 43, 59
10, 53669, Note_on_c, 9, 43, 0
10, 53760, Note_on_c, 9, 43, 59
10, 53789, Note_on_c, 9, 43, 0
10, 54240, Note_on_c, 9, 43, 59
10, 54269, Note_on_c, 9, 43, 0
10, 54360, Note_on_c, 9, 43, 59
10, 54389, Note_on_c, 9, 43, 0
10, 54450, Note_on_c, 9, 43, 59
10, 54479, Note_on_c, 9, 43, 0
10, 54480, Note_on_c, 9, 43, 59
10, 54509, Note_on_c, 9, 43, 0
10, 58560, Note_on_c, 9, 43, 67
10, 58589, Note_on_c, 9, 43, 0
10, 58680, Note_on_c, 9, 43, 67
10, 58709, Note_on_c, 9, 43, 0
10, 58770, Note_on_c, 9, 43, 67
10, 58799, Note_on_c, 9, 43, 0
10, 58800, Note_on_c, 9, 48, 67
10, 58829, Note_on_c, 9, 48, 0
10, 58920, Note_on_c, 9, 48, 67
10, 58949, Note_on_c, 9, 48, 0
10, 59010, Note_on_c, 9, 48, 67
10, 59039, Note_on_c, 9, 48, 0
10, 59040, Note_on_c, 9, 43, 67
10, 59069, Note_on_c, 9, 43, 0
10, 59160, Note_on_c, 9, 43, 67
10, 59189, Note_on_c, 9, 43, 0
10, 59250, Note_on_c, 9, 43, 67
10, 59279, Note_on_c, 9, 43, 0
10, 59280, Note_on_c, 9, 43, 67
10, 59309, Note_on_c, 9, 43, 0
10, 59520, Note_on_c, 9, 48, 67
10, 59549, Note_on_c, 9, 48, 0
10, 59640, Note_on_c, 9, 48, 67
10, 59669, Note_on_c, 9, 48, 0
10, 59730, Note_on_c, 9, 48, 67
10, 59759, Note_on_c, 9, 48, 0
10, 59760, Note_on_c, 9, 43, 67
10, 59789, Note_on_c, 9, 43, 0
10, 59880, Note_on_c, 9, 43, 67
10, 59909, Note_on_c, 9, 43, 0
10, 59970, Note_on_c, 9, 43, 67
10, 59999, Note_on_c, 9, 43, 0
10, 60000, Note_on_c, 9, 48, 67
10, 60029, Note_on_c, 9, 48, 0
10, 60120, Note_on_c, 9, 48, 67
10, 60149, Note_on_c, 9, 48, 0
10, 60210, Note_on_c, 9, 48, 67
10, 60239, Note_on_c, 9, 48, 0
10, 60240, Note_on_c, 9, 48, 67
10, 60269, Note_on_c, 9, 48, 0
10, 60360, Note_on_c, 9, 48, 67
10, 60389, Note_on_c, 9, 48, 0
10, 60960, Note_on_c, 9, 48, 67
10, 60989, Note_on_c, 9, 48, 0
10, 61080, Note_on_c, 9, 48, 67
10, 61109, Note_on_c, 9, 48, 0
10, 61170, Note_on_c, 9, 48, 67
10, 61199, Note_on_c, 9, 48, 0
10, 61200, Note_on_c, 9, 48, 67
10, 61229, Note_on_c, 9, 48, 0
10, 61320, Note_on_c, 9, 48, 67
10, 61349, Note_on_c, 9, 48, 0
10, 61440, Note_on_c, 9, 43, 67
10, 61469, Note_on_c, 9, 43, 0
10, 61560, Note_on_c, 9, 43, 67
10, 61589, Note_on_c, 9, 43, 0
10, 61650, Note_on_c, 9, 43, 67
10, 61679, Note_on_c, 9, 43, 0
10, 61680, Note_on_c, 9, 43, 67
10, 61709, Note_on_c, 9, 43, 0
10, 61800, Note_on_c, 9, 43, 67
10, 61829, Note_on_c, 9, 43, 0
10, 61890, Note_on_c, 9, 43, 67
10, 61919, Note_on_c, 9, 43, 0
10, 61920, Note_on_c, 9, 48, 67
10, 61949, Note_on_c, 9, 48, 0
10, 62040, Note_on_c, 9, 48, 67
10, 62069, Note_on_c, 9, 48, 0
10, 62130, Note_on_c, 9, 48, 67
10, 62159, Note_on_c, 9, 48, 0
10, 62160, Note_on_c, 9, 48, 67
10, 62219, Note_on_c, 9, 48, 0
10, 154200, Note_on_c, 9, 48, 53
10, 154259, Note_on_c, 9, 48, 0
10, 154560, Note_on_c, 9, 48, 53
10, 154619, Note_on_c, 9, 48, 0
10, 154920, Note_on_c, 9, 43, 53
10, 154979, Note_on_c, 9, 43, 0
10, 155100, Note_on_c, 9, 43, 63
10, 155159, Note_on_c, 9, 43, 0
10, 155280, Note_on_c, 9, 48, 63
10, 155339, Note_on_c, 9, 48, 0
10, 155339, End_track
11, 0, Start_track
11, 0, MIDI_port, 0
11, 0, Title_t, "Violin I"
11, 20, Control_c, 8, 121, 0
11, 21, Control_c, 8, 11, 127
11, 21, Control_c, 8, 7, 127
11, 22, Control_c, 8, 93, 10
11, 22, Control_c, 8, 91, 79
11, 25, Control_c, 8, 10, 44
11, 26, Pitch_bend_c, 8, 8192
11, 27, Control_c, 8, 0, 16
11, 28, Control_c, 8, 32, 0
11, 29, Program_c, 8, 48
11, 840, Note_on_c, 8, 67, 55
11, 959, Note_on_c, 8, 67, 0
11, 960, Note_on_c, 8, 63, 55
11, 989, Note_on_c, 8, 63, 0
11, 1080, Note_on_c, 8, 63, 55
11, 1199, Note_on_c, 8, 63, 0
11, 1200, Note_on_c, 8, 62, 55
11, 1229, Note_on_c, 8, 62, 0
11, 1320, Note_on_c, 8, 62, 55
11, 1439, Note_on_c, 8, 62, 0
11, 1440, Note_on_c, 8, 60, 45
11, 1559, Note_on_c, 8, 60, 0
11, 1800, Note_on_c, 8, 67, 43
11, 1919, Note_on_c, 8, 67, 0
11, 1920, Note_on_c, 8, 72, 46
11, 1959, Note_on_c, 8, 72, 0
11, 2040, Note_on_c, 8, 72, 49
11, 2159, Control_c, 8, 11, 66
11, 2160, Note_on_c, 8, 75, 53
11, 2161, Control_c, 8, 11, 67
11, 2164, Control_c, 8, 11, 68
11, 2167, Control_c, 8, 11, 69
11, 2170, Control_c, 8, 11, 70
11, 2173, Control_c, 8, 11, 71
11, 2176, Control_c, 8, 11, 72
11, 2179, Control_c, 8, 11, 73
11, 2182, Control_c, 8, 11, 74
11, 2185, Control_c, 8, 11, 75
11, 2188, Control_c, 8, 11, 76
11, 2189, Note_on_c, 8, 72, 0
11, 2191, Control_c, 8, 11, 77
11, 2194, Control_c, 8, 11, 78
11, 2197, Control_c, 8, 11, 80
11, 2200, Control_c, 8, 11, 82
11, 2203, Control_c, 8, 11, 84
11, 2206, Control_c, 8, 11, 86
11, 2209, Control_c, 8, 11, 88
11, 2212, Control_c, 8, 11, 90
11, 2215, Control_c, 8, 11, 92
11, 2218, Control_c, 8, 11, 94
11, 2221, Control_c, 8, 11, 96
11, 2224, Control_c, 8, 11, 98
11, 2227, Control_c, 8, 11, 100
11, 2230, Control_c, 8, 11, 103
11, 2233, Control_c, 8, 11, 106
11, 2236, Control_c, 8, 11, 109
11, 2239, Control_c, 8, 11, 112
11, 2242, Control_c, 8, 11, 115
11, 2245, Control_c, 8, 11, 118
11, 2248, Control_c, 8, 11, 121
11, 2251, Control_c, 8, 11, 124
11, 2254, Control_c, 8, 11, 127
11, 2279, Note_on_c, 8, 75, 0
11, 2279, Control_c, 8, 11, 127
11, 2280, Note_on_c, 8, 66, 55
11, 2399, Note_on_c, 8, 66, 0
11, 2400, Note_on_c, 8, 67, 45
11, 2519, Note_on_c, 8, 67, 0
11, 2760, Note_on_c, 8, 67, 44
11, 2879, Note_on_c, 8, 67, 0
11, 2880, Note_on_c, 8, 68, 44
11, 2909, Note_on_c, 8, 68, 0
11, 3000, Note_on_c, 8, 68, 45
11, 3029, Note_on_c, 8, 68, 0
11, 3120, Note_on_c, 8, 68, 46
11, 3149, Note_on_c, 8, 68, 0
11, 3240, Note_on_c, 8, 68, 46
11, 3269, Note_on_c, 8, 68, 0
11, 3300, Note_on_c, 8, 68, 47
11, 3329, Note_on_c, 8, 68, 0
11, 3330, Note_on_c, 8, 70, 47
11, 3359, Note_on_c, 8, 70, 0
11, 3360, Note_on_c, 8, 72, 47
11, 3479, Note_on_c, 8, 72, 0
11, 3480, Note_on_c, 8, 70, 48
11, 3539, Note_on_c, 8, 70, 0
11, 3540, Note_on_c, 8, 68, 48
11, 3569, Note_on_c, 8, 68, 0
11, 3600, Note_on_c, 8, 67, 49
11, 3659, Note_on_c, 8, 67, 0
11, 3720, Note_on_c, 8, 67, 55
11, 3749, Note_on_c, 8, 67, 0
11, 3780, Note_on_c, 8, 67, 55
11, 3809, Note_on_c, 8, 67, 0
11, 3810, Note_on_c, 8, 69, 55
11, 3839, Note_on_c, 8, 69, 0
11, 3840, Note_on_c, 8, 70, 55
11, 3959, Note_on_c, 8, 70, 0
11, 3960, Note_on_c, 8, 69, 55
11, 4019, Note_on_c, 8, 69, 0
11, 4020, Note_on_c, 8, 67, 55
11, 4049, Note_on_c, 8, 67, 0
11, 4080, Note_on_c, 8, 67, 55
11, 4199, Note_on_c, 8, 67, 0
11, 4200, Note_on_c, 8, 66, 55
11, 4319, Note_on_c, 8, 66, 0
11, 4320, Note_on_c, 8, 67, 45
11, 4439, Note_on_c, 8, 67, 0
11, 4680, Note_on_c, 8, 67, 55
11, 4799, Note_on_c, 8, 67, 0
11, 4800, Note_on_c, 8, 63, 45
11, 4829, Note_on_c, 8, 63, 0
11, 4920, Note_on_c, 8, 63, 55
11, 5039, Note_on_c, 8, 63, 0
11, 5040, Note_on_c, 8, 62, 45
11, 5069, Note_on_c, 8, 62, 0
11, 5160, Note_on_c, 8, 62, 46
11, 5279, Note_on_c, 8, 62, 0
11, 5280, Note_on_c, 8, 60, 35
11, 5359, Note_on_c, 8, 60, 0
11, 5640, Note_on_c, 8, 67, 36
11, 5759, Note_on_c, 8, 67, 0
11, 5760, Note_on_c, 8, 72, 46
11, 5799, Note_on_c, 8, 72, 0
11, 5880, Note_on_c, 8, 72, 49
11, 5999, Control_c, 8, 11, 66
11, 6000, Note_on_c, 8, 75, 63
11, 6001, Control_c, 8, 11, 67
11, 6004, Control_c, 8, 11, 68
11, 6007, Control_c, 8, 11, 69
11, 6010, Control_c, 8, 11, 70
11, 6013, Control_c, 8, 11, 71
11, 6016, Control_c, 8, 11, 72
11, 6019, Control_c, 8, 11, 73
11, 6022, Control_c, 8, 11, 74
11, 6025, Control_c, 8, 11, 75
11, 6028, Control_c, 8, 11, 76
11, 6029, Note_on_c, 8, 72, 0
11, 6031, Control_c, 8, 11, 77
11, 6034, Control_c, 8, 11, 78
11, 6037, Control_c, 8, 11, 80
11, 6040, Control_c, 8, 11, 82
11, 6043, Control_c, 8, 11, 84
11, 6046, Control_c, 8, 11, 86
11, 6049, Control_c, 8, 11, 88
11, 6052, Control_c, 8, 11, 90
11, 6055, Control_c, 8, 11, 92
11, 6058, Control_c, 8, 11, 94
11, 6061, Control_c, 8, 11, 96
11, 6064, Control_c, 8, 11, 98
11, 6067, Control_c, 8, 11, 100
11, 6070, Control_c, 8, 11, 103
11, 6073, Control_c, 8, 11, 106
11, 6076, Control_c, 8, 11, 109
11, 6079, Control_c, 8, 11, 112
11, 6082, Control_c, 8, 11, 115
11, 6085, Control_c, 8, 11, 118
11, 6088, Control_c, 8, 11, 121
11, 6091, Control_c, 8, 11, 124
11, 6094, Control_c, 8, 11, 127
11, 6119, Note_on_c, 8, 75, 0
11, 6119, Control_c, 8, 11, 127
11, 6120, Note_on_c, 8, 66, 45
11, 6239, Note_on_c, 8, 66, 0
11, 6240, Note_on_c, 8, 67, 35
11, 6359, Note_on_c, 8, 67, 0
11, 6600, Note_on_c, 8, 67, 44
11, 6719, Note_on_c, 8, 67, 0
11, 6720, Note_on_c, 8, 68, 44
11, 6749, Note_on_c, 8, 68, 0
11, 6840, Note_on_c, 8, 68, 45
11, 6869, Note_on_c, 8, 68, 0
11, 6960, Note_on_c, 8, 68, 46
11, 6989, Note_on_c, 8, 68, 0
11, 7080, Note_on_c, 8, 68, 46
11, 7109, Note_on_c, 8, 68, 0
11, 7140, Note_on_c, 8, 68, 49
11, 7169, Note_on_c, 8, 68, 0
11, 7170, Note_on_c, 8, 70, 54
11, 7199, Note_on_c, 8, 70, 0
11, 7200, Note_on_c, 8, 72, 57
11, 7319, Note_on_c, 8, 72, 0
11, 7320, Note_on_c, 8, 70, 48
11, 7379, Note_on_c, 8, 70, 0
11, 7380, Note_on_c, 8, 68, 48
11, 7409, Note_on_c, 8, 68, 0
11, 7440, Note_on_c, 8, 67, 49
11, 7499, Note_on_c, 8, 67, 0
11, 7560, Note_on_c, 8, 67, 55
11, 7589, Note_on_c, 8, 67, 0
11, 7620, Note_on_c, 8, 67, 55
11, 7649, Note_on_c, 8, 67, 0
11, 7650, Note_on_c, 8, 69, 60
11, 7679, Note_on_c, 8, 69, 0
11, 7680, Note_on_c, 8, 70, 65
11, 7799, Note_on_c, 8, 70, 0
11, 7800, Note_on_c, 8, 69, 55
11, 7859, Note_on_c, 8, 69, 0
11, 7860, Note_on_c, 8, 67, 55
11, 7889, Note_on_c, 8, 67, 0
11, 7920, Note_on_c, 8, 67, 55
11, 8039, Note_on_c, 8, 67, 0
11, 8040, Note_on_c, 8, 66, 55
11, 8159, Note_on_c, 8, 66, 0
11, 8160, Note_on_c, 8, 67, 45
11, 8279, Note_on_c, 8, 67, 0
11, 8520, Note_on_c, 8, 67, 44
11, 8639, Note_on_c, 8, 67, 0
11, 8640, Note_on_c, 8, 65, 44
11, 8679, Note_on_c, 8, 65, 0
11, 8760, Note_on_c, 8, 67, 44
11, 8879, Note_on_c, 8, 67, 0
11, 8880, Note_on_c, 8, 63, 34
11, 8919, Note_on_c, 8, 63, 0
11, 9000, Note_on_c, 8, 67, 44
11, 9119, Note_on_c, 8, 67, 0
11, 9120, Note_on_c, 8, 62, 34
11, 9209, Note_on_c, 8, 62, 0
11, 9479, Control_c, 8, 11, 46
11, 9480, Note_on_c, 8, 80, 54
11, 9481, Control_c, 8, 11, 47
11, 9487, Control_c, 8, 11, 48
11, 9493, Control_c, 8, 11, 49
11, 9499, Control_c, 8, 11, 50
11, 9505, Control_c, 8, 11, 51
11, 9511, Control_c, 8, 11, 52
11, 9517, Control_c, 8, 11, 53
11, 9523, Control_c, 8, 11, 54
11, 9529, Control_c, 8, 11, 55
11, 9535, Control_c, 8, 11, 56
11, 9541, Control_c, 8, 11, 58
11, 9547, Control_c, 8, 11, 60
11, 9553, Control_c, 8, 11, 62
11, 9559, Control_c, 8, 11, 64
11, 9565, Control_c, 8, 11, 66
11, 9571, Control_c, 8, 11, 68
11, 9577, Control_c, 8, 11, 70
11, 9583, Control_c, 8, 11, 72
11, 9589, Control_c, 8, 11, 74
11, 9595, Control_c, 8, 11, 76
11, 9601, Control_c, 8, 11, 79
11, 9607, Control_c, 8, 11, 82
11, 9613, Control_c, 8, 11, 85
11, 9619, Control_c, 8, 11, 88
11, 9625, Control_c, 8, 11, 91
11, 9631, Control_c, 8, 11, 94
11, 9637, Control_c, 8, 11, 97
11, 9643, Control_c, 8, 11, 100
11, 9649, Control_c, 8, 11, 103
11, 9655, Control_c, 8, 11, 106
11, 9661, Control_c, 8, 11, 110
11, 9667, Control_c, 8, 11, 114
11, 9673, Control_c, 8, 11, 118
11, 9679, Control_c, 8, 11, 122
11, 9685, Control_c, 8, 11, 126
11, 9719, Note_on_c, 8, 80, 0
11, 9719, Control_c, 8, 11, 127
11, 9720, Note_on_c, 8, 79, 43
11, 9839, Note_on_c, 8, 79, 0
11, 9840, Note_on_c, 8, 78, 38
11, 9959, Note_on_c, 8, 78, 0
11, 9960, Note_on_c, 8, 77, 33
11, 10079, Note_on_c, 8, 77, 0
11, 10080, Note_on_c, 8, 75, 28
11, 10199, Note_on_c, 8, 75, 0
11, 10440, Note_on_c, 8, 72, 33
11, 10559, Note_on_c, 8, 72, 0
11, 10560, Note_on_c, 8, 73, 33
11, 10589, Note_on_c, 8, 73, 0
11, 10680, Note_on_c, 8, 73, 33
11, 10709, Note_on_c, 8, 73, 0
11, 10800, Note_on_c, 8, 73, 33
11, 10829, Note_on_c, 8, 73, 0
11, 10920, Note_on_c, 8, 73, 33
11, 10949, Note_on_c, 8, 73, 0
11, 10980, Note_on_c, 8, 73, 36
11, 11009, Note_on_c, 8, 73, 0
11, 11010, Note_on_c, 8, 75, 40
11, 11039, Note_on_c, 8, 75, 0
11, 11040, Note_on_c, 8, 77, 46
11, 11159, Note_on_c, 8, 77, 0
11, 11160, Note_on_c, 8, 75, 44
11, 11219, Note_on_c, 8, 75, 0
11, 11220, Note_on_c, 8, 73, 42
11, 11279, Note_on_c, 8, 73, 0
11, 11280, Note_on_c, 8, 72, 35
11, 11309, Note_on_c, 8, 72, 0
11, 11400, Note_on_c, 8, 72, 34
11, 11429, Note_on_c, 8, 72, 0
11, 11460, Note_on_c, 8, 72, 37
11, 11489, Note_on_c, 8, 72, 0
11, 11490, Note_on_c, 8, 74, 41
11, 11519, Note_on_c, 8, 74, 0
11, 11520, Note_on_c, 8, 75, 48
11, 11639, Note_on_c, 8, 75, 0
11, 11640, Note_on_c, 8, 74, 44
11, 11669, Note_on_c, 8, 74, 0
11, 11700, Note_on_c, 8, 72, 44
11, 11729, Note_on_c, 8, 72, 0
11, 11760, Note_on_c, 8, 72, 41
11, 11879, Note_on_c, 8, 72, 0
11, 11880, Note_on_c, 8, 71, 35
11, 11999, Note_on_c, 8, 71, 0
11, 12000, Note_on_c, 8, 72, 29
11, 12119, Note_on_c, 8, 72, 0
11, 12360, Note_on_c, 8, 67, 34
11, 12479, Note_on_c, 8, 67, 0
11, 12480, Note_on_c, 8, 65, 34
11, 12519, Note_on_c, 8, 65, 0
11, 12600, Note_on_c, 8, 67, 44
11, 12719, Note_on_c, 8, 67, 0
11, 12720, Note_on_c, 8, 63, 34
11, 12759, Note_on_c, 8, 63, 0
11, 12840, Note_on_c, 8, 67, 44
11, 12959, Note_on_c, 8, 67, 0
11, 12960, Note_on_c, 8, 62, 34
11, 13049, Note_on_c, 8, 62, 0
11, 13319, Control_c, 8, 11, 46
11, 13320, Note_on_c, 8, 80, 64
11, 13321, Control_c, 8, 11, 47
11, 13327, Control_c, 8, 11, 48
11, 13333, Control_c, 8, 11, 49
11, 13339, Control_c, 8, 11, 50
11, 13345, Control_c, 8, 11, 51
11, 13351, Control_c, 8, 11, 52
11, 13357, Control_c, 8, 11, 53
11, 13363, Control_c, 8, 11, 54
11, 13369, Control_c, 8, 11, 55
11, 13375, Control_c, 8, 11, 56
11, 13381, Control_c, 8, 11, 58
11, 13387, Control_c, 8, 11, 60
11, 13393, Control_c, 8, 11, 62
11, 13399, Control_c, 8, 11, 64
11, 13405, Control_c, 8, 11, 66
11, 13411, Control_c, 8, 11, 68
11, 13417, Control_c, 8, 11, 70
11, 13423, Control_c, 8, 11, 72
11, 13429, Control_c, 8, 11, 74
11, 13435, Control_c, 8, 11, 76
11, 13441, Control_c, 8, 11, 79
11, 13447, Control_c, 8, 11, 82
11, 13453, Control_c, 8, 11, 85
11, 13459, Control_c, 8, 11, 88
11, 13465, Control_c, 8, 11, 91
11, 13471, Control_c, 8, 11, 94
11, 13477, Control_c, 8, 11, 97
11, 13483, Control_c, 8, 11, 100
11, 13489, Control_c, 8, 11, 103
11, 13495, Control_c, 8, 11, 106
11, 13501, Control_c, 8, 11, 110
11, 13507, Control_c, 8, 11, 114
11, 13513, Control_c, 8, 11, 118
11, 13519, Control_c, 8, 11, 122
11, 13525, Control_c, 8, 11, 126
11, 13559, Note_on_c, 8, 80, 0
11, 13559, Control_c, 8, 11, 127
11, 13560, Note_on_c, 8, 79, 43
11, 13679, Note_on_c, 8, 79, 0
11, 13680, Note_on_c, 8, 78, 38
11, 13799, Note_on_c, 8, 78, 0
11, 13800, Note_on_c, 8, 77, 24
11, 13919, Note_on_c, 8, 77, 0
11, 13920, Note_on_c, 8, 75, 21
11, 14039, Note_on_c, 8, 75, 0
11, 14280, Note_on_c, 8, 72, 33
11, 14399, Note_on_c, 8, 72, 0
11, 14400, Note_on_c, 8, 73, 33
11, 14429, Note_on_c, 8, 73, 0
11, 14520, Note_on_c, 8, 73, 33
11, 14549, Note_on_c, 8, 73, 0
11, 14640, Note_on_c, 8, 73, 33
11, 14669, Note_on_c, 8, 73, 0
11, 14760, Note_on_c, 8, 73, 33
11, 14789, Note_on_c, 8, 73, 0
11, 14820, Note_on_c, 8, 73, 36
11, 14849, Note_on_c, 8, 73, 0
11, 14850, Note_on_c, 8, 75, 40
11, 14879, Note_on_c, 8, 75, 0
11, 14880, Note_on_c, 8, 77, 46
11, 14999, Note_on_c, 8, 77, 0
11, 15000, Note_on_c, 8, 75, 44
11, 15059, Note_on_c, 8, 75, 0
11, 15060, Note_on_c, 8, 73, 42
11, 15119, Note_on_c, 8, 73, 0
11, 15120, Note_on_c, 8, 72, 35
11, 15149, Note_on_c, 8, 72, 0
11, 15240, Note_on_c, 8, 72, 34
11, 15269, Note_on_c, 8, 72, 0
11, 15300, Note_on_c, 8, 72, 37
11, 15329, Note_on_c, 8, 72, 0
11, 15330, Note_on_c, 8, 74, 41
11, 15359, Note_on_c, 8, 74, 0
11, 15360, Note_on_c, 8, 75, 48
11, 15479, Note_on_c, 8, 75, 0
11, 15480, Note_on_c, 8, 74, 44
11, 15509, Note_on_c, 8, 74, 0
11, 15540, Note_on_c, 8, 72, 44
11, 15569, Note_on_c, 8, 72, 0
11, 15600, Note_on_c, 8, 72, 41
11, 15719, Note_on_c, 8, 72, 0
11, 15720, Note_on_c, 8, 71, 35
11, 15839, Note_on_c, 8, 71, 0
11, 15840, Note_on_c, 8, 72, 29
11, 15959, Note_on_c, 8, 72, 0
11, 16320, Note_on_c, 8, 67, 33
11, 16359, Note_on_c, 8, 67, 0
11, 16560, Note_on_c, 8, 67, 33
11, 16599, Note_on_c, 8, 67, 0
11, 16800, Note_on_c, 8, 67, 33
11, 16839, Note_on_c, 8, 67, 0
11, 17279, Control_c, 8, 11, 66
11, 17280, Note_on_c, 8, 72, 47
11, 17281, Control_c, 8, 11, 67
11, 17296, Control_c, 8, 11, 68
11, 17311, Control_c, 8, 11, 69
11, 17326, Control_c, 8, 11, 70
11, 17341, Control_c, 8, 11, 71
11, 17356, Control_c, 8, 11, 72
11, 17371, Control_c, 8, 11, 73
11, 17386, Control_c, 8, 11, 74
11, 17401, Control_c, 8, 11, 75
11, 17416, Control_c, 8, 11, 76
11, 17431, Control_c, 8, 11, 77
11, 17446, Control_c, 8, 11, 78
11, 17461, Control_c, 8, 11, 80
11, 17476, Control_c, 8, 11, 82
11, 17491, Control_c, 8, 11, 84
11, 17506, Control_c, 8, 11, 86
11, 17521, Control_c, 8, 11, 88
11, 17536, Control_c, 8, 11, 90
11, 17551, Control_c, 8, 11, 92
11, 17566, Control_c, 8, 11, 94
11, 17581, Control_c, 8, 11, 96
11, 17596, Control_c, 8, 11, 98
11, 17611, Control_c, 8, 11, 100
11, 17626, Control_c, 8, 11, 103
11, 17641, Control_c, 8, 11, 106
11, 17656, Control_c, 8, 11, 109
11, 17671, Control_c, 8, 11, 112
11, 17686, Control_c, 8, 11, 115
11, 17701, Control_c, 8, 11, 118
11, 17716, Control_c, 8, 11, 121
11, 17731, Control_c, 8, 11, 124
11, 17746, Control_c, 8, 11, 127
11, 17759, Note_on_c, 8, 72, 0
11, 17759, Control_c, 8, 11, 127
11, 17760, Note_on_c, 8, 71, 23
11, 17879, Note_on_c, 8, 71, 0
11, 18720, Note_on_c, 8, 75, 21
11, 18839, Note_on_c, 8, 75, 0
11, 18840, Note_on_c, 8, 74, 26
11, 19079, Note_on_c, 8, 74, 0
11, 19080, Note_on_c, 8, 73, 36
11, 19199, Note_on_c, 8, 73, 0
11, 19200, Note_on_c, 8, 74, 41
11, 19239, Note_on_c, 8, 74, 0
11, 19320, Note_on_c, 8, 70, 41
11, 19359, Note_on_c, 8, 70, 0
11, 19440, Note_on_c, 8, 72, 34
11, 19479, Note_on_c, 8, 72, 0
11, 19560, Note_on_c, 8, 69, 34
11, 19599, Note_on_c, 8, 69, 0
11, 19680, Note_on_c, 8, 67, 21
11, 19799, Note_on_c, 8, 67, 0
11, 20160, Note_on_c, 8, 67, 33
11, 20199, Note_on_c, 8, 67, 0
11, 20400, Note_on_c, 8, 67, 33
11, 20439, Note_on_c, 8, 67, 0
11, 20640, Note_on_c, 8, 67, 33
11, 20679, Note_on_c, 8, 67, 0
11, 21119, Control_c, 8, 11, 66
11, 21120, Note_on_c, 8, 72, 37
11, 21121, Control_c, 8, 11, 67
11, 21136, Control_c, 8, 11, 68
11, 21151, Control_c, 8, 11, 69
11, 21166, Control_c, 8, 11, 70
11, 21181, Control_c, 8, 11, 71
11, 21196, Control_c, 8, 11, 72
11, 21211, Control_c, 8, 11, 73
11, 21226, Control_c, 8, 11, 74
11, 21241, Control_c, 8, 11, 75
11, 21256, Control_c, 8, 11, 76
11, 21271, Control_c, 8, 11, 77
11, 21286, Control_c, 8, 11, 78
11, 21301, Control_c, 8, 11, 80
11, 21316, Control_c, 8, 11, 82
11, 21331, Control_c, 8, 11, 84
11, 21346, Control_c, 8, 11, 86
11, 21361, Control_c, 8, 11, 88
11, 21376, Control_c, 8, 11, 90
11, 21391, Control_c, 8, 11, 92
11, 21406, Control_c, 8, 11, 94
11, 21421, Control_c, 8, 11, 96
11, 21436, Control_c, 8, 11, 98
11, 21451, Control_c, 8, 11, 100
11, 21466, Control_c, 8, 11, 103
11, 21481, Control_c, 8, 11, 106
11, 21496, Control_c, 8, 11, 109
11, 21511, Control_c, 8, 11, 112
11, 21526, Control_c, 8, 11, 115
11, 21541, Control_c, 8, 11, 118
11, 21556, Control_c, 8, 11, 121
11, 21571, Control_c, 8, 11, 124
11, 21586, Control_c, 8, 11, 127
11, 21599, Note_on_c, 8, 72, 0
11, 21599, Control_c, 8, 11, 127
11, 21600, Note_on_c, 8, 71, 20
11, 21719, Note_on_c, 8, 71, 0
11, 22560, Note_on_c, 8, 75, 21
11, 22679, Note_on_c, 8, 75, 0
11, 22680, Note_on_c, 8, 74, 26
11, 22919, Note_on_c, 8, 74, 0
11, 22920, Note_on_c, 8, 73, 36
11, 23039, Note_on_c, 8, 73, 0
11, 23040, Note_on_c, 8, 74, 32
11, 23079, Note_on_c, 8, 74, 0
11, 23160, Note_on_c, 8, 70, 32
11, 23199, Note_on_c, 8, 70, 0
11, 23280, Note_on_c, 8, 72, 27
11, 23319, Note_on_c, 8, 72, 0
11, 23400, Note_on_c, 8, 69, 27
11, 23439, Note_on_c, 8, 69, 0
11, 23520, Note_on_c, 8, 67, 26
11, 23639, Note_on_c, 8, 67, 0
11, 23760, Control_c, 8, 7, 97
11, 23880, Note_on_c, 8, 67, 35
11, 24000, Note_on_c, 8, 66, 33
11, 24005, Note_on_c, 8, 67, 0
11, 24120, Note_on_c, 8, 65, 30
11, 24125, Note_on_c, 8, 66, 0
11, 24240, Note_on_c, 8, 64, 27
11, 24245, Note_on_c, 8, 65, 0
11, 24360, Note_on_c, 8, 63, 26
11, 24365, Note_on_c, 8, 64, 0
11, 24480, Note_on_c, 8, 62, 23
11, 24485, Note_on_c, 8, 63, 0
11, 24605, Note_on_c, 8, 62, 0
11, 24840, Note_on_c, 8, 68, 35
11, 24960, Note_on_c, 8, 67, 33
11, 24965, Note_on_c, 8, 68, 0
11, 25200, Note_on_c, 8, 66, 24
11, 25211, Note_on_c, 8, 67, 0
11, 25320, Note_on_c, 8, 65, 20
11, 25325, Note_on_c, 8, 66, 0
11, 25440, Note_on_c, 8, 63, 16
11, 25445, Note_on_c, 8, 65, 0
11, 25565, Note_on_c, 8, 63, 0
11, 25800, Note_on_c, 8, 72, 23
11, 25919, Note_on_c, 8, 72, 0
11, 25920, Note_on_c, 8, 73, 24
11, 25959, Note_on_c, 8, 73, 0
11, 26040, Note_on_c, 8, 73, 27
11, 26079, Note_on_c, 8, 73, 0
11, 26160, Note_on_c, 8, 73, 30
11, 26199, Note_on_c, 8, 73, 0
11, 26280, Note_on_c, 8, 73, 34
11, 26319, Note_on_c, 8, 73, 0
11, 26340, Note_on_c, 8, 73, 35
11, 26369, Note_on_c, 8, 73, 0
11, 26370, Note_on_c, 8, 75, 35
11, 26399, Note_on_c, 8, 75, 0
11, 26400, Note_on_c, 8, 77, 36
11, 26519, Note_on_c, 8, 77, 0
11, 26520, Note_on_c, 8, 75, 24
11, 26579, Note_on_c, 8, 75, 0
11, 26580, Note_on_c, 8, 73, 24
11, 26639, Note_on_c, 8, 73, 0
11, 26640, Note_on_c, 8, 72, 24
11, 26679, Note_on_c, 8, 72, 0
11, 26760, Note_on_c, 8, 72, 23
11, 26799, Note_on_c, 8, 72, 0
11, 26820, Note_on_c, 8, 72, 28
11, 26849, Note_on_c, 8, 72, 0
11, 26850, Note_on_c, 8, 74, 33
11, 26879, Note_on_c, 8, 74, 0
11, 26880, Note_on_c, 8, 75, 36
11, 26999, Note_on_c, 8, 75, 0
11, 27000, Note_on_c, 8, 74, 24
11, 27039, Note_on_c, 8, 74, 0
11, 27060, Note_on_c, 8, 72, 24
11, 27099, Note_on_c, 8, 72, 0
11, 27120, Note_on_c, 8, 72, 24
11, 27239, Note_on_c, 8, 72, 0
11, 27240, Note_on_c, 8, 71, 24
11, 27359, Note_on_c, 8, 71, 0
11, 27360, Note_on_c, 8, 72, 19
11, 27479, Note_on_c, 8, 72, 0
11, 27720, Note_on_c, 8, 67, 30
11, 27840, Note_on_c, 8, 66, 30
11, 27845, Note_on_c, 8, 67, 0
11, 27960, Note_on_c, 8, 65, 28
11, 27965, Note_on_c, 8, 66, 0
11, 28080, Note_on_c, 8, 64, 25
11, 28085, Note_on_c, 8, 65, 0
11, 28200, Note_on_c, 8, 63, 24
11, 28205, Note_on_c, 8, 64, 0
11, 28320, Note_on_c, 8, 62, 21
11, 28325, Note_on_c, 8, 63, 0
11, 28445, Note_on_c, 8, 62, 0
11, 28680, Note_on_c, 8, 68, 32
11, 28800, Note_on_c, 8, 67, 30
11, 28805, Note_on_c, 8, 68, 0
11, 29040, Note_on_c, 8, 66, 22
11, 29051, Note_on_c, 8, 67, 0
11, 29160, Note_on_c, 8, 65, 19
11, 29165, Note_on_c, 8, 66, 0
11, 29280, Note_on_c, 8, 63, 15
11, 29285, Note_on_c, 8, 65, 0
11, 29405, Note_on_c, 8, 63, 0
11, 29520, Control_c, 8, 7, 107
11, 29640, Note_on_c, 8, 72, 21
11, 29759, Note_on_c, 8, 72, 0
11, 29760, Note_on_c, 8, 73, 22
11, 29799, Note_on_c, 8, 73, 0
11, 29880, Note_on_c, 8, 73, 25
11, 29919, Note_on_c, 8, 73, 0
11, 30000, Note_on_c, 8, 73, 28
11, 30039, Note_on_c, 8, 73, 0
11, 30120, Note_on_c, 8, 73, 31
11, 30159, Note_on_c, 8, 73, 0
11, 30180, Note_on_c, 8, 73, 32
11, 30209, Note_on_c, 8, 73, 0
11, 30210, Note_on_c, 8, 75, 32
11, 30239, Note_on_c, 8, 75, 0
11, 30240, Note_on_c, 8, 77, 33
11, 30359, Note_on_c, 8, 77, 0
11, 30360, Note_on_c, 8, 75, 22
11, 30419, Note_on_c, 8, 75, 0
11, 30420, Note_on_c, 8, 73, 22
11, 30479, Note_on_c, 8, 73, 0
11, 30480, Note_on_c, 8, 72, 22
11, 30519, Note_on_c, 8, 72, 0
11, 30600, Note_on_c, 8, 72, 21
11, 30639, Note_on_c, 8, 72, 0
11, 30660, Note_on_c, 8, 72, 26
11, 30689, Note_on_c, 8, 72, 0
11, 30690, Note_on_c, 8, 74, 30
11, 30719, Note_on_c, 8, 74, 0
11, 30720, Note_on_c, 8, 75, 33
11, 30839, Note_on_c, 8, 75, 0
11, 30840, Note_on_c, 8, 74, 22
11, 30879, Note_on_c, 8, 74, 0
11, 30900, Note_on_c, 8, 72, 22
11, 30939, Note_on_c, 8, 72, 0
11, 30960, Note_on_c, 8, 72, 22
11, 31079, Note_on_c, 8, 72, 0
11, 31080, Note_on_c, 8, 71, 22
11, 31199, Note_on_c, 8, 71, 0
11, 31200, Note_on_c, 8, 72, 18
11, 31319, Note_on_c, 8, 72, 0
11, 35280, Control_c, 8, 7, 107
11, 35400, Note_on_c, 8, 67, 48
11, 35519, Note_on_c, 8, 67, 0
11, 35520, Note_on_c, 8, 63, 48
11, 35579, Note_on_c, 8, 63, 0
11, 35640, Note_on_c, 8, 63, 48
11, 35759, Note_on_c, 8, 63, 0
11, 35760, Note_on_c, 8, 62, 48
11, 35819, Note_on_c, 8, 62, 0
11, 35880, Note_on_c, 8, 62, 48
11, 35999, Note_on_c, 8, 62, 0
11, 36000, Note_on_c, 8, 60, 48
11, 36119, Note_on_c, 8, 60, 0
11, 36360, Note_on_c, 8, 67, 48
11, 36599, Note_on_c, 8, 67, 0
11, 36600, Note_on_c, 8, 65, 48
11, 36689, Note_on_c, 8, 65, 0
11, 36690, Note_on_c, 8, 64, 48
11, 36719, Note_on_c, 8, 64, 0
11, 36720, Note_on_c, 8, 65, 48
11, 36840, Note_on_c, 8, 66, 48
11, 36869, Note_on_c, 8, 65, 0
11, 36959, Note_on_c, 8, 66, 0
11, 36960, Note_on_c, 8, 67, 37
11, 37079, Note_on_c, 8, 67, 0
11, 37320, Note_on_c, 8, 67, 35
11, 37439, Note_on_c, 8, 67, 0
11, 37440, Note_on_c, 8, 68, 36
11, 37679, Note_on_c, 8, 68, 0
11, 37680, Note_on_c, 8, 65, 40
11, 37919, Note_on_c, 8, 65, 0
11, 37920, Note_on_c, 8, 58, 44
11, 37949, Note_on_c, 8, 58, 0
11, 37980, Note_on_c, 8, 67, 45
11, 38039, Note_on_c, 8, 67, 0
11, 38040, Note_on_c, 8, 68, 46
11, 38099, Note_on_c, 8, 68, 0
11, 38100, Note_on_c, 8, 69, 47
11, 38159, Note_on_c, 8, 69, 0
11, 38160, Note_on_c, 8, 70, 48
11, 38219, Note_on_c, 8, 70, 0
11, 38220, Note_on_c, 8, 71, 49
11, 38279, Note_on_c, 8, 71, 0
11, 38280, Note_on_c, 8, 72, 50
11, 38339, Note_on_c, 8, 72, 0
11, 38340, Note_on_c, 8, 73, 51
11, 38399, Note_on_c, 8, 73, 0
11, 38400, Note_on_c, 8, 74, 52
11, 38459, Note_on_c, 8, 74, 0
11, 38520, Note_on_c, 8, 62, 48
11, 38759, Note_on_c, 8, 62, 0
11, 38760, Note_on_c, 8, 66, 48
11, 38879, Note_on_c, 8, 66, 0
11, 38880, Note_on_c, 8, 67, 37
11, 38969, Note_on_c, 8, 67, 0
11, 43080, Note_on_c, 8, 67, 44
11, 43199, Note_on_c, 8, 67, 0
11, 43200, Note_on_c, 8, 66, 44
11, 43319, Note_on_c, 8, 66, 0
11, 43320, Note_on_c, 8, 65, 43
11, 43439, Note_on_c, 8, 65, 0
11, 43440, Note_on_c, 8, 64, 41
11, 43559, Note_on_c, 8, 64, 0
11, 43560, Note_on_c, 8, 63, 40
11, 43679, Note_on_c, 8, 63, 0
11, 43680, Note_on_c, 8, 62, 35
11, 43799, Note_on_c, 8, 62, 0
11, 44040, Note_on_c, 8, 68, 44
11, 44159, Note_on_c, 8, 68, 0
11, 44160, Note_on_c, 8, 67, 43
11, 44399, Note_on_c, 8, 67, 0
11, 44400, Note_on_c, 8, 66, 41
11, 44519, Note_on_c, 8, 66, 0
11, 44520, Note_on_c, 8, 65, 40
11, 44639, Note_on_c, 8, 65, 0
11, 44640, Note_on_c, 8, 64, 35
11, 44759, Note_on_c, 8, 64, 0
11, 44760, Note_on_c, 8, 63, 44
11, 44999, Note_on_c, 8, 63, 0
11, 45000, Note_on_c, 8, 72, 45
11, 45119, Note_on_c, 8, 72, 0
11, 45120, Note_on_c, 8, 73, 46
11, 45359, Note_on_c, 8, 73, 0
11, 45360, Note_on_c, 8, 70, 48
11, 45599, Note_on_c, 8, 70, 0
11, 45600, Note_on_c, 8, 63, 50
11, 45719, Note_on_c, 8, 63, 0
11, 45720, Note_on_c, 8, 72, 42
11, 45779, Note_on_c, 8, 72, 0
11, 45780, Note_on_c, 8, 74, 44
11, 45839, Note_on_c, 8, 74, 0
11, 45840, Note_on_c, 8, 75, 46
11, 45899, Note_on_c, 8, 75, 0
11, 45900, Note_on_c, 8, 76, 48
11, 45959, Note_on_c, 8, 76, 0
11, 45960, Note_on_c, 8, 77, 50
11, 46019, Note_on_c, 8, 77, 0
11, 46020, Note_on_c, 8, 78, 52
11, 46079, Note_on_c, 8, 78, 0
11, 46080, Note_on_c, 8, 79, 55
11, 46139, Note_on_c, 8, 79, 0
11, 46200, Note_on_c, 8, 67, 44
11, 46439, Note_on_c, 8, 67, 0
11, 46440, Note_on_c, 8, 59, 39
11, 46559, Note_on_c, 8, 59, 0
11, 46560, Note_on_c, 8, 60, 34
11, 46679, Note_on_c, 8, 60, 0
11, 50400, Control_c, 8, 7, 127
11, 50760, Note_on_c, 8, 67, 79
11, 50849, Note_on_c, 8, 67, 0
11, 50850, Note_on_c, 8, 67, 79
11, 50879, Note_on_c, 8, 67, 0
11, 50880, Note_on_c, 8, 75, 79
11, 50999, Note_on_c, 8, 75, 0
11, 51000, Note_on_c, 8, 75, 79
11, 51029, Note_on_c, 8, 75, 0
11, 51090, Note_on_c, 8, 75, 79
11, 51119, Note_on_c, 8, 75, 0
11, 51120, Note_on_c, 8, 74, 79
11, 51209, Note_on_c, 8, 74, 0
11, 51240, Note_on_c, 8, 74, 79
11, 51269, Note_on_c, 8, 74, 0
11, 51330, Note_on_c, 8, 74, 79
11, 51359, Note_on_c, 8, 74, 0
11, 51360, Note_on_c, 8, 72, 79
11, 51449, Note_on_c, 8, 72, 0
11, 51720, Note_on_c, 8, 79, 89
11, 51749, Note_on_c, 8, 79, 0
11, 51810, Note_on_c, 8, 79, 89
11, 51839, Note_on_c, 8, 79, 0
11, 51840, Note_on_c, 8, 84, 89
11, 51929, Note_on_c, 8, 84, 0
11, 51960, Note_on_c, 8, 84, 89
11, 51989, Note_on_c, 8, 84, 0
11, 52050, Note_on_c, 8, 84, 89
11, 52079, Note_on_c, 8, 84, 0
11, 52080, Note_on_c, 8, 87, 89
11, 52169, Note_on_c, 8, 87, 0
11, 52200, Note_on_c, 8, 78, 89
11, 52229, Note_on_c, 8, 78, 0
11, 52290, Note_on_c, 8, 78, 89
11, 52319, Note_on_c, 8, 78, 0
11, 52320, Note_on_c, 8, 79, 89
11, 52409, Note_on_c, 8, 79, 0
11, 52800, Note_on_c, 8, 80, 79
11, 52889, Note_on_c, 8, 80, 0
11, 52920, Note_on_c, 8, 80, 80
11, 52949, Note_on_c, 8, 80, 0
11, 53010, Note_on_c, 8, 80, 81
11, 53039, Note_on_c, 8, 80, 0
11, 53040, Note_on_c, 8, 80, 81
11, 53129, Note_on_c, 8, 80, 0
11, 53280, Note_on_c, 8, 85, 85
11, 53369, Note_on_c, 8, 85, 0
11, 53400, Note_on_c, 8, 85, 87
11, 53429, Note_on_c, 8, 85, 0
11, 53490, Note_on_c, 8, 85, 88
11, 53519, Note_on_c, 8, 85, 0
11, 53520, Note_on_c, 8, 85, 89
11, 53609, Note_on_c, 8, 85, 0
11, 53760, Note_on_c, 8, 86, 94
11, 53819, Note_on_c, 8, 86, 0
11, 53880, Note_on_c, 8, 86, 94
11, 53909, Note_on_c, 8, 86, 0
11, 53970, Note_on_c, 8, 86, 94
11, 53999, Note_on_c, 8, 86, 0
11, 54000, Note_on_c, 8, 78, 94
11, 54089, Note_on_c, 8, 78, 0
11, 54120, Note_on_c, 8, 78, 94
11, 54149, Note_on_c, 8, 78, 0
11, 54210, Note_on_c, 8, 78, 94
11, 54239, Note_on_c, 8, 78, 0
11, 54240, Note_on_c, 8, 79, 94
11, 54359, Note_on_c, 8, 79, 0
11, 58440, Note_on_c, 8, 79, 95
11, 58489, Note_on_c, 8, 79, 0
11, 58530, Note_on_c, 8, 79, 95
11, 58559, Note_on_c, 8, 79, 0
11, 58560, Note_on_c, 8, 78, 95
11, 58659, Note_on_c, 8, 78, 0
11, 58680, Note_on_c, 8, 77, 95
11, 58729, Note_on_c, 8, 77, 0
11, 58770, Note_on_c, 8, 77, 95
11, 58799, Note_on_c, 8, 77, 0
11, 58800, Note_on_c, 8, 76, 95
11, 58899, Note_on_c, 8, 76, 0
11, 58920, Note_on_c, 8, 75, 95
11, 58959, Note_on_c, 8, 75, 0
11, 59010, Note_on_c, 8, 75, 95
11, 59039, Note_on_c, 8, 75, 0
11, 59040, Note_on_c, 8, 74, 95
11, 59109, Note_on_c, 8, 74, 0
11, 59400, Note_on_c, 8, 80, 95
11, 59439, Note_on_c, 8, 80, 0
11, 59490, Note_on_c, 8, 80, 95
11, 59519, Note_on_c, 8, 80, 0
11, 59520, Note_on_c, 8, 79, 95
11, 59619, Note_on_c, 8, 79, 0
11, 59640, Note_on_c, 8, 79, 95
11, 59679, Note_on_c, 8, 79, 0
11, 59730, Note_on_c, 8, 79, 95
11, 59759, Note_on_c, 8, 79, 0
11, 59760, Note_on_c, 8, 77, 95
11, 59859, Note_on_c, 8, 77, 0
11, 59880, Note_on_c, 8, 77, 95
11, 59919, Note_on_c, 8, 77, 0
11, 59970, Note_on_c, 8, 77, 95
11, 59999, Note_on_c, 8, 77, 0
11, 60000, Note_on_c, 8, 75, 95
11, 60099, Note_on_c, 8, 75, 0
11, 60480, Note_on_c, 8, 73, 88
11, 60569, Note_on_c, 8, 73, 0
11, 60600, Note_on_c, 8, 73, 89
11, 60629, Note_on_c, 8, 73, 0
11, 60690, Note_on_c, 8, 73, 91
11, 60719, Note_on_c, 8, 73, 0
11, 60720, Note_on_c, 8, 73, 91
11, 60819, Note_on_c, 8, 73, 0
11, 60960, Note_on_c, 8, 78, 95
11, 61049, Note_on_c, 8, 78, 0
11, 61080, Note_on_c, 8, 78, 97
11, 61119, Note_on_c, 8, 78, 0
11, 61170, Note_on_c, 8, 78, 98
11, 61199, Note_on_c, 8, 78, 0
11, 61200, Note_on_c, 8, 78, 99
11, 61299, Note_on_c, 8, 78, 0
11, 61440, Note_on_c, 8, 79, 105
11, 61529, Note_on_c, 8, 79, 0
11, 61560, Note_on_c, 8, 79, 105
11, 61599, Note_on_c, 8, 79, 0
11, 61650, Note_on_c, 8, 79, 105
11, 61679, Note_on_c, 8, 79, 0
11, 61680, Note_on_c, 8, 71, 105
11, 61779, Note_on_c, 8, 71, 0
11, 61800, Note_on_c, 8, 71, 105
11, 61839, Note_on_c, 8, 71, 0
11, 61890, Note_on_c, 8, 71, 105
11, 61919, Note_on_c, 8, 71, 0
11, 61920, Note_on_c, 8, 72, 105
11, 62009, Note_on_c, 8, 72, 0
11, 66120, Note_on_c, 8, 63, 51
11, 66209, Note_on_c, 8, 63, 0
11, 66210, Note_on_c, 8, 61, 49
11, 66239, Note_on_c, 8, 61, 0
11, 66240, Note_on_c, 8, 60, 49
11, 66269, Note_on_c, 8, 60, 0
11, 66360, Note_on_c, 8, 60, 47
11, 66389, Note_on_c, 8, 60, 0
11, 66480, Note_on_c, 8, 58, 46
11, 66509, Note_on_c, 8, 58, 0
11, 66600, Note_on_c, 8, 58, 44
11, 66629, Note_on_c, 8, 58, 0
11, 66720, Note_on_c, 8, 56, 42
11, 66749, Note_on_c, 8, 56, 0
11, 66840, Note_on_c, 8, 65, 55
11, 67079, Note_on_c, 8, 65, 0
11, 67080, Note_on_c, 8, 63, 45
11, 67109, Note_on_c, 8, 63, 0
11, 67200, Note_on_c, 8, 61, 55
11, 67229, Note_on_c, 8, 61, 0
11, 67320, Note_on_c, 8, 60, 52
11, 67349, Note_on_c, 8, 60, 0
11, 67440, Note_on_c, 8, 58, 49
11, 67469, Note_on_c, 8, 58, 0
11, 67560, Note_on_c, 8, 56, 46
11, 67589, Note_on_c, 8, 56, 0
11, 67680, Note_on_c, 8, 55, 42
11, 67709, Note_on_c, 8, 55, 0
11, 67800, Note_on_c, 8, 70, 55
11, 68039, Note_on_c, 8, 70, 0
11, 68040, Note_on_c, 8, 68, 45
11, 68069, Note_on_c, 8, 68, 0
11, 68160, Note_on_c, 8, 67, 55
11, 68189, Note_on_c, 8, 67, 0
11, 68280, Note_on_c, 8, 65, 52
11, 68309, Note_on_c, 8, 65, 0
11, 68400, Note_on_c, 8, 63, 49
11, 68429, Note_on_c, 8, 63, 0
11, 68520, Note_on_c, 8, 61, 46
11, 68549, Note_on_c, 8, 61, 0
11, 68640, Note_on_c, 8, 60, 42
11, 68669, Note_on_c, 8, 60, 0
11, 68760, Note_on_c, 8, 75, 55
11, 68999, Note_on_c, 8, 75, 0
11, 69000, Note_on_c, 8, 72, 45
11, 69029, Note_on_c, 8, 72, 0
11, 69120, Note_on_c, 8, 70, 52
11, 69149, Note_on_c, 8, 70, 0
11, 69240, Note_on_c, 8, 68, 47
11, 69269, Note_on_c, 8, 68, 0
11, 69360, Note_on_c, 8, 67, 43
11, 69389, Note_on_c, 8, 67, 0
11, 69480, Note_on_c, 8, 65, 38
11, 69509, Note_on_c, 8, 65, 0
11, 69600, Note_on_c, 8, 65, 39
11, 69719, Note_on_c, 8, 65, 0
11, 69720, Note_on_c, 8, 63, 31
11, 69799, Note_on_c, 8, 63, 0
11, 73800, Note_on_c, 8, 63, 35
11, 73859, Note_on_c, 8, 63, 0
11, 73890, Note_on_c, 8, 65, 35
11, 73919, Note_on_c, 8, 65, 0
11, 73920, Note_on_c, 8, 61, 35
11, 73949, Note_on_c, 8, 61, 0
11, 74040, Note_on_c, 8, 61, 35
11, 74069, Note_on_c, 8, 61, 0
11, 74160, Note_on_c, 8, 60, 35
11, 74189, Note_on_c, 8, 60, 0
11, 74280, Note_on_c, 8, 60, 35
11, 74309, Note_on_c, 8, 60, 0
11, 74400, Note_on_c, 8, 58, 35
11, 74429, Note_on_c, 8, 58, 0
11, 74520, Note_on_c, 8, 58, 48
11, 74759, Note_on_c, 8, 58, 0
11, 74760, Note_on_c, 8, 60, 45
11, 74849, Note_on_c, 8, 60, 0
11, 74850, Note_on_c, 8, 61, 45
11, 74879, Note_on_c, 8, 61, 0
11, 74880, Note_on_c, 8, 63, 45
11, 74909, Note_on_c, 8, 63, 0
11, 75000, Note_on_c, 8, 63, 35
11, 75029, Note_on_c, 8, 63, 0
11, 75120, Note_on_c, 8, 61, 35
11, 75149, Note_on_c, 8, 61, 0
11, 75240, Note_on_c, 8, 61, 35
11, 75269, Note_on_c, 8, 61, 0
11, 75360, Note_on_c, 8, 60, 35
11, 75389, Note_on_c, 8, 60, 0
11, 75480, Note_on_c, 8, 60, 48
11, 75719, Note_on_c, 8, 60, 0
11, 75720, Note_on_c, 8, 61, 45
11, 75809, Note_on_c, 8, 61, 0
11, 75810, Note_on_c, 8, 63, 45
11, 75839, Note_on_c, 8, 63, 0
11, 75840, Note_on_c, 8, 65, 45
11, 75869, Note_on_c, 8, 65, 0
11, 75960, Note_on_c, 8, 58, 48
11, 76199, Note_on_c, 8, 58, 0
11, 76200, Note_on_c, 8, 60, 45
11, 76289, Note_on_c, 8, 60, 0
11, 76290, Note_on_c, 8, 61, 45
11, 76319, Note_on_c, 8, 61, 0
11, 76320, Note_on_c, 8, 63, 45
11, 76379, Note_on_c, 8, 63, 0
11, 76380, Note_on_c, 8, 68, 46
11, 76439, Note_on_c, 8, 68, 0
11, 76440, Note_on_c, 8, 67, 46
11, 76499, Note_on_c, 8, 67, 0
11, 76500, Note_on_c, 8, 66, 45
11, 76559, Note_on_c, 8, 66, 0
11, 76560, Note_on_c, 8, 65, 45
11, 76619, Note_on_c, 8, 65, 0
11, 76620, Note_on_c, 8, 64, 44
11, 76679, Note_on_c, 8, 64, 0
11, 76680, Note_on_c, 8, 63, 44
11, 76739, Note_on_c, 8, 63, 0
11, 76740, Note_on_c, 8, 61, 43
11, 76799, Note_on_c, 8, 61, 0
11, 76800, Note_on_c, 8, 60, 42
11, 76829, Note_on_c, 8, 60, 0
11, 76860, Note_on_c, 8, 60, 35
11, 76919, Note_on_c, 8, 60, 0
11, 76920, Note_on_c, 8, 61, 35
11, 76979, Note_on_c, 8, 61, 0
11, 76980, Note_on_c, 8, 63, 35
11, 77029, Note_on_c, 8, 63, 0
11, 77040, Note_on_c, 8, 63, 35
11, 77099, Note_on_c, 8, 63, 0
11, 77100, Note_on_c, 8, 61, 35
11, 77159, Note_on_c, 8, 61, 0
11, 77160, Note_on_c, 8, 60, 35
11, 77219, Note_on_c, 8, 60, 0
11, 77220, Note_on_c, 8, 58, 35
11, 77249, Note_on_c, 8, 58, 0
11, 77280, Note_on_c, 8, 58, 28
11, 77399, Note_on_c, 8, 58, 0
11, 77400, Note_on_c, 8, 56, 22
11, 77469, Note_on_c, 8, 56, 0
11, 83039, Control_c, 8, 11, 66
11, 83040, Note_on_c, 8, 67, 55
11, 83041, Control_c, 8, 11, 67
11, 83056, Control_c, 8, 11, 68
11, 83071, Control_c, 8, 11, 69
11, 83086, Control_c, 8, 11, 70
11, 83101, Control_c, 8, 11, 71
11, 83116, Control_c, 8, 11, 72
11, 83131, Control_c, 8, 11, 73
11, 83146, Control_c, 8, 11, 74
11, 83161, Control_c, 8, 11, 75
11, 83176, Control_c, 8, 11, 76
11, 83191, Control_c, 8, 11, 77
11, 83206, Control_c, 8, 11, 78
11, 83221, Control_c, 8, 11, 80
11, 83236, Control_c, 8, 11, 82
11, 83251, Control_c, 8, 11, 84
11, 83266, Control_c, 8, 11, 86
11, 83281, Control_c, 8, 11, 88
11, 83296, Control_c, 8, 11, 90
11, 83311, Control_c, 8, 11, 92
11, 83326, Control_c, 8, 11, 94
11, 83341, Control_c, 8, 11, 96
11, 83356, Control_c, 8, 11, 98
11, 83371, Control_c, 8, 11, 100
11, 83386, Control_c, 8, 11, 103
11, 83401, Control_c, 8, 11, 106
11, 83416, Control_c, 8, 11, 109
11, 83431, Control_c, 8, 11, 112
11, 83446, Control_c, 8, 11, 115
11, 83461, Control_c, 8, 11, 118
11, 83476, Control_c, 8, 11, 121
11, 83491, Control_c, 8, 11, 124
11, 83506, Control_c, 8, 11, 127
11, 83519, Note_on_c, 8, 67, 0
11, 83519, Control_c, 8, 11, 127
11, 83520, Note_on_c, 8, 68, 44
11, 84479, Note_on_c, 8, 68, 0
11, 84480, Note_on_c, 8, 67, 44
11, 84719, Note_on_c, 8, 67, 0
11, 84720, Note_on_c, 8, 75, 44
11, 84959, Note_on_c, 8, 75, 0
11, 84960, Note_on_c, 8, 74, 44
11, 85199, Note_on_c, 8, 74, 0
11, 85200, Note_on_c, 8, 72, 44
11, 85559, Note_on_c, 8, 72, 0
11, 85560, Note_on_c, 8, 70, 41
11, 85679, Note_on_c, 8, 70, 0
11, 85680, Note_on_c, 8, 69, 40
11, 85919, Note_on_c, 8, 69, 0
11, 85920, Note_on_c, 8, 67, 33
11, 86039, Note_on_c, 8, 67, 0
11, 90744, Control_c, 8, 74, 74
11, 90746, Control_c, 8, 0, 0
11, 90748, Control_c, 8, 32, 0
11, 90750, Program_c, 8, 49
11, 91679, Control_c, 8, 11, 66
11, 91680, Note_on_c, 8, 60, 65
11, 91681, Control_c, 8, 11, 67
11, 91696, Control_c, 8, 11, 68
11, 91711, Control_c, 8, 11, 69
11, 91726, Control_c, 8, 11, 70
11, 91741, Control_c, 8, 11, 71
11, 91756, Control_c, 8, 11, 72
11, 91771, Control_c, 8, 11, 73
11, 91786, Control_c, 8, 11, 74
11, 91801, Control_c, 8, 11, 75
11, 91816, Control_c, 8, 11, 76
11, 91831, Control_c, 8, 11, 77
11, 91846, Control_c, 8, 11, 78
11, 91861, Control_c, 8, 11, 80
11, 91876, Control_c, 8, 11, 82
11, 91891, Control_c, 8, 11, 84
11, 91906, Control_c, 8, 11, 86
11, 91921, Control_c, 8, 11, 88
11, 91936, Control_c, 8, 11, 90
11, 91951, Control_c, 8, 11, 92
11, 91966, Control_c, 8, 11, 94
11, 91981, Control_c, 8, 11, 96
11, 91996, Control_c, 8, 11, 98
11, 92011, Control_c, 8, 11, 100
11, 92026, Control_c, 8, 11, 103
11, 92041, Control_c, 8, 11, 106
11, 92056, Control_c, 8, 11, 109
11, 92071, Control_c, 8, 11, 112
11, 92086, Control_c, 8, 11, 115
11, 92101, Control_c, 8, 11, 118
11, 92116, Control_c, 8, 11, 121
11, 92131, Control_c, 8, 11, 124
11, 92146, Control_c, 8, 11, 127
11, 92159, Note_on_c, 8, 60, 0
11, 92159, Control_c, 8, 11, 127
11, 92160, Note_on_c, 8, 61, 55
11, 93119, Note_on_c, 8, 61, 0
11, 93120, Note_on_c, 8, 60, 55
11, 93359, Note_on_c, 8, 60, 0
11, 93360, Note_on_c, 8, 68, 55
11, 93599, Note_on_c, 8, 68, 0
11, 93600, Note_on_c, 8, 67, 55
11, 93839, Note_on_c, 8, 67, 0
11, 93840, Note_on_c, 8, 65, 55
11, 94199, Note_on_c, 8, 65, 0
11, 94200, Note_on_c, 8, 63, 52
11, 94319, Note_on_c, 8, 63, 0
11, 94320, Note_on_c, 8, 62, 51
11, 94559, Note_on_c, 8, 62, 0
11, 94560, Note_on_c, 8, 60, 41
11, 94679, Note_on_c, 8, 60, 0
11, 98880, Note_on_c, 8, 67, 43
11, 99479, Note_on_c, 8, 67, 0
11, 99480, Note_on_c, 8, 65, 43
11, 99719, Note_on_c, 8, 65, 0
11, 99720, Note_on_c, 8, 64, 43
11, 99839, Note_on_c, 8, 64, 0
11, 99840, Note_on_c, 8, 62, 43
11, 99959, Note_on_c, 8, 62, 0
11, 100200, Note_on_c, 8, 65, 43
11, 100319, Note_on_c, 8, 65, 0
11, 100320, Note_on_c, 8, 64, 43
11, 100529, Note_on_c, 8, 64, 0
11, 100560, Note_on_c, 8, 62, 43
11, 100589, Note_on_c, 8, 62, 0
11, 100610, Control_c, 8, 74, 64
11, 100612, Control_c, 8, 73, 64
11, 100614, Control_c, 8, 0, 1
11, 100616, Control_c, 8, 32, 0
11, 100618, Program_c, 8, 48
11, 100620, Note_on_c, 8, 62, 41
11, 100679, Note_on_c, 8, 62, 0
11, 100680, Note_on_c, 8, 67, 41
11, 100739, Note_on_c, 8, 67, 0
11, 100740, Note_on_c, 8, 69, 41
11, 100799, Note_on_c, 8, 69, 0
11, 100800, Note_on_c, 8, 71, 41
11, 100839, Note_on_c, 8, 71, 0
11, 100860, Note_on_c, 8, 72, 41
11, 100879, Note_on_c, 8, 72, 0
11, 100880, Note_on_c, 8, 71, 41
11, 100899, Note_on_c, 8, 71, 0
11, 100900, Note_on_c, 8, 69, 41
11, 100919, Note_on_c, 8, 69, 0
11, 100920, Note_on_c, 8, 71, 40
11, 100949, Note_on_c, 8, 71, 0
11, 100980, Note_on_c, 8, 72, 40
11, 101009, Note_on_c, 8, 72, 0
11, 101040, Note_on_c, 8, 74, 40
11, 101069, Note_on_c, 8, 74, 0
11, 101100, Note_on_c, 8, 71, 40
11, 101159, Note_on_c, 8, 71, 0
11, 101160, Note_on_c, 8, 69, 40
11, 101219, Note_on_c, 8, 69, 0
11, 101220, Note_on_c, 8, 67, 39
11, 101279, Note_on_c, 8, 67, 0
11, 101280, Note_on_c, 8, 66, 39
11, 101319, Note_on_c, 8, 66, 0
11, 101340, Note_on_c, 8, 67, 39
11, 101359, Note_on_c, 8, 67, 0
11, 101360, Note_on_c, 8, 66, 39
11, 101379, Note_on_c, 8, 66, 0
11, 101380, Note_on_c, 8, 64, 39
11, 101399, Note_on_c, 8, 64, 0
11, 101400, Note_on_c, 8, 66, 39
11, 101429, Note_on_c, 8, 66, 0
11, 101460, Note_on_c, 8, 67, 39
11, 101489, Note_on_c, 8, 67, 0
11, 101520, Note_on_c, 8, 69, 38
11, 101549, Note_on_c, 8, 69, 0
11, 101580, Note_on_c, 8, 69, 38
11, 101609, Note_on_c, 8, 69, 0
11, 101640, Note_on_c, 8, 69, 38
11, 101669, Note_on_c, 8, 69, 0
11, 101700, Note_on_c, 8, 69, 38
11, 101729, Note_on_c, 8, 69, 0
11, 101760, Note_on_c, 8, 67, 37
11, 101819, Note_on_c, 8, 67, 0
11, 101970, Note_on_c, 8, 72, 48
11, 101999, Note_on_c, 8, 72, 0
11, 102000, Note_on_c, 8, 71, 48
11, 102029, Note_on_c, 8, 71, 0
11, 102120, Note_on_c, 8, 69, 43
11, 102149, Note_on_c, 8, 69, 0
11, 102240, Note_on_c, 8, 69, 38
11, 102479, Note_on_c, 8, 69, 0
11, 102480, Note_on_c, 8, 67, 28
11, 102559, Note_on_c, 8, 67, 0
11, 106545, Control_c, 8, 7, 97
11, 106560, Note_on_c, 8, 64, 33
11, 106859, Note_on_c, 8, 64, 0
11, 106860, Note_on_c, 8, 61, 33
11, 106919, Note_on_c, 8, 61, 0
11, 106920, Note_on_c, 8, 62, 33
11, 106979, Note_on_c, 8, 62, 0
11, 106980, Note_on_c, 8, 64, 33
11, 107039, Note_on_c, 8, 64, 0
11, 107040, Note_on_c, 8, 65, 33
11, 107339, Note_on_c, 8, 65, 0
11, 107340, Note_on_c, 8, 59, 33
11, 107399, Note_on_c, 8, 59, 0
11, 107400, Note_on_c, 8, 60, 33
11, 107459, Note_on_c, 8, 60, 0
11, 107460, Note_on_c, 8, 62, 33
11, 107519, Note_on_c, 8, 62, 0
11, 107520, Note_on_c, 8, 64, 33
11, 107579, Note_on_c, 8, 64, 0
11, 107580, Note_on_c, 8, 65, 33
11, 107639, Note_on_c, 8, 65, 0
11, 107640, Note_on_c, 8, 64, 33
11, 107700, Note_on_c, 8, 67, 33
11, 107729, Note_on_c, 8, 64, 0
11, 107759, Note_on_c, 8, 67, 0
11, 107760, Note_on_c, 8, 65, 33
11, 107819, Note_on_c, 8, 65, 0
11, 107820, Note_on_c, 8, 69, 33
11, 107879, Note_on_c, 8, 69, 0
11, 107880, Note_on_c, 8, 67, 33
11, 107939, Note_on_c, 8, 67, 0
11, 107940, Note_on_c, 8, 65, 33
11, 107999, Note_on_c, 8, 65, 0
11, 108000, Note_on_c, 8, 64, 33
11, 108239, Note_on_c, 8, 64, 0
11, 108240, Note_on_c, 8, 62, 33
11, 108269, Note_on_c, 8, 62, 0
11, 108300, Note_on_c, 8, 55, 43
11, 108359, Note_on_c, 8, 55, 0
11, 108360, Note_on_c, 8, 60, 43
11, 108419, Note_on_c, 8, 60, 0
11, 108420, Note_on_c, 8, 62, 43
11, 108449, Note_on_c, 8, 62, 0
11, 108480, Note_on_c, 8, 64, 43
11, 108509, Note_on_c, 8, 64, 0
11, 108540, Note_on_c, 8, 65, 43
11, 108560, Note_on_c, 8, 64, 43
11, 108569, Note_on_c, 8, 65, 0
11, 108580, Note_on_c, 8, 62, 43
11, 108589, Note_on_c, 8, 64, 0
11, 108600, Note_on_c, 8, 64, 43
11, 108609, Note_on_c, 8, 62, 0
11, 108659, Note_on_c, 8, 64, 0
11, 108660, Note_on_c, 8, 65, 43
11, 108719, Note_on_c, 8, 65, 0
11, 108720, Note_on_c, 8, 67, 43
11, 108759, Note_on_c, 8, 67, 0
11, 108780, Note_on_c, 8, 76, 43
11, 108839, Note_on_c, 8, 76, 0
11, 108840, Note_on_c, 8, 74, 43
11, 108899, Note_on_c, 8, 74, 0
11, 108900, Note_on_c, 8, 72, 43
11, 108959, Note_on_c, 8, 72, 0
11, 108960, Note_on_c, 8, 71, 43
11, 108989, Note_on_c, 8, 71, 0
11, 109020, Note_on_c, 8, 72, 43
11, 109040, Note_on_c, 8, 71, 43
11, 109049, Note_on_c, 8, 72, 0
11, 109060, Note_on_c, 8, 69, 43
11, 109069, Note_on_c, 8, 71, 0
11, 109080, Note_on_c, 8, 71, 43
11, 109089, Note_on_c, 8, 69, 0
11, 109139, Note_on_c, 8, 71, 0
11, 109140, Note_on_c, 8, 72, 43
11, 109169, Note_on_c, 8, 72, 0
11, 109200, Note_on_c, 8, 74, 43
11, 109219, Note_on_c, 8, 74, 0
11, 109260, Note_on_c, 8, 74, 43
11, 109279, Note_on_c, 8, 74, 0
11, 109320, Note_on_c, 8, 74, 43
11, 109339, Note_on_c, 8, 74, 0
11, 109380, Note_on_c, 8, 74, 43
11, 109399, Note_on_c, 8, 74, 0
11, 109440, Note_on_c, 8, 72, 43
11, 109499, Note_on_c, 8, 72, 0
11, 109650, Note_on_c, 8, 65, 33
11, 109679, Note_on_c, 8, 65, 0
11, 109680, Note_on_c, 8, 64, 33
11, 109719, Note_on_c, 8, 64, 0
11, 109800, Note_on_c, 8, 62, 33
11, 109839, Note_on_c, 8, 62, 0
11, 109920, Note_on_c, 8, 62, 33
11, 110159, Note_on_c, 8, 62, 0
11, 110160, Note_on_c, 8, 64, 23
11, 110219, Note_on_c, 8, 64, 0
11, 112200, Control_c, 8, 7, 127
11, 112230, Note_on_c, 8, 67, 41
11, 112320, Note_on_c, 8, 63, 40
11, 112349, Note_on_c, 8, 67, 0
11, 112389, Note_on_c, 8, 63, 0
11, 112440, Note_on_c, 8, 63, 39
11, 112559, Note_on_c, 8, 63, 0
11, 112560, Note_on_c, 8, 62, 38
11, 112629, Note_on_c, 8, 62, 0
11, 112680, Note_on_c, 8, 62, 37
11, 112799, Note_on_c, 8, 62, 0
11, 112800, Note_on_c, 8, 60, 35
11, 112889, Note_on_c, 8, 60, 0
11, 113160, Note_on_c, 8, 67, 45
11, 113279, Note_on_c, 8, 67, 0
11, 113280, Note_on_c, 8, 72, 43
11, 113349, Note_on_c, 8, 72, 0
11, 113400, Note_on_c, 8, 72, 41
11, 113519, Note_on_c, 8, 72, 0
11, 113520, Note_on_c, 8, 75, 39
11, 113589, Note_on_c, 8, 75, 0
11, 113640, Note_on_c, 8, 72, 37
11, 113759, Note_on_c, 8, 72, 0
11, 113760, Note_on_c, 8, 71, 33
11, 113849, Note_on_c, 8, 71, 0
11, 114120, Note_on_c, 8, 67, 41
11, 114239, Note_on_c, 8, 67, 0
11, 114240, Note_on_c, 8, 68, 42
11, 114269, Note_on_c, 8, 68, 0
11, 114360, Note_on_c, 8, 68, 44
11, 114389, Note_on_c, 8, 68, 0
11, 114480, Note_on_c, 8, 68, 46
11, 114509, Note_on_c, 8, 68, 0
11, 114600, Note_on_c, 8, 68, 48
11, 114629, Note_on_c, 8, 68, 0
11, 114680, Note_on_c, 8, 68, 44
11, 114700, Note_on_c, 8, 70, 44
11, 114709, Note_on_c, 8, 68, 0
11, 114720, Note_on_c, 8, 72, 54
11, 114729, Note_on_c, 8, 70, 0
11, 114839, Note_on_c, 8, 72, 0
11, 114840, Note_on_c, 8, 70, 52
11, 114899, Note_on_c, 8, 70, 0
11, 114900, Note_on_c, 8, 68, 50
11, 114959, Note_on_c, 8, 68, 0
11, 114960, Note_on_c, 8, 67, 47
11, 114989, Note_on_c, 8, 67, 0
11, 115080, Note_on_c, 8, 67, 42
11, 115109, Note_on_c, 8, 67, 0
11, 115160, Note_on_c, 8, 67, 44
11, 115180, Note_on_c, 8, 69, 44
11, 115189, Note_on_c, 8, 67, 0
11, 115200, Note_on_c, 8, 70, 54
11, 115209, Note_on_c, 8, 69, 0
11, 115319, Note_on_c, 8, 70, 0
11, 115320, Note_on_c, 8, 69, 44
11, 115379, Note_on_c, 8, 69, 0
11, 115380, Note_on_c, 8, 67, 44
11, 115400, Note_on_c, 8, 66, 44
11, 115409, Note_on_c, 8, 67, 0
11, 115420, Note_on_c, 8, 67, 44
11, 115429, Note_on_c, 8, 66, 0
11, 115440, Note_on_c, 8, 69, 54
11, 115449, Note_on_c, 8, 67, 0
11, 115559, Note_on_c, 8, 69, 0
11, 115560, Note_on_c, 8, 67, 44
11, 115619, Note_on_c, 8, 67, 0
11, 115619, Note_on_c, 8, 66, 44
11, 115678, Note_on_c, 8, 66, 0
11, 115680, Note_on_c, 8, 67, 40
11, 115769, Note_on_c, 8, 67, 0
11, 116040, Note_on_c, 8, 67, 44
11, 116159, Note_on_c, 8, 67, 0
11, 116160, Note_on_c, 8, 65, 38
11, 116229, Note_on_c, 8, 65, 0
11, 116280, Note_on_c, 8, 65, 42
11, 116399, Note_on_c, 8, 65, 0
11, 116400, Note_on_c, 8, 63, 36
11, 116469, Note_on_c, 8, 63, 0
11, 116520, Note_on_c, 8, 63, 40
11, 116639, Note_on_c, 8, 63, 0
11, 116640, Note_on_c, 8, 62, 35
11, 116729, Note_on_c, 8, 62, 0
11, 117000, Note_on_c, 8, 68, 46
11, 117119, Note_on_c, 8, 68, 0
11, 117120, Note_on_c, 8, 67, 41
11, 117189, Note_on_c, 8, 67, 0
11, 117240, Note_on_c, 8, 67, 42
11, 117359, Note_on_c, 8, 67, 0
11, 117360, Note_on_c, 8, 65, 37
11, 117429, Note_on_c, 8, 65, 0
11, 117480, Note_on_c, 8, 65, 38
11, 117599, Note_on_c, 8, 65, 0
11, 117600, Note_on_c, 8, 63, 33
11, 117689, Note_on_c, 8, 63, 0
11, 117960, Note_on_c, 8, 72, 35
11, 118079, Note_on_c, 8, 72, 0
11, 118080, Note_on_c, 8, 73, 37
11, 118109, Note_on_c, 8, 73, 0
11, 118200, Note_on_c, 8, 73, 39
11, 118229, Note_on_c, 8, 73, 0
11, 118320, Note_on_c, 8, 73, 41
11, 118349, Note_on_c, 8, 73, 0
11, 118440, Note_on_c, 8, 73, 43
11, 118469, Note_on_c, 8, 73, 0
11, 118520, Note_on_c, 8, 73, 44
11, 118540, Note_on_c, 8, 75, 44
11, 118549, Note_on_c, 8, 73, 0
11, 118560, Note_on_c, 8, 77, 55
11, 118569, Note_on_c, 8, 75, 0
11, 118679, Note_on_c, 8, 77, 0
11, 118680, Note_on_c, 8, 75, 44
11, 118739, Note_on_c, 8, 75, 0
11, 118740, Note_on_c, 8, 73, 44
11, 118799, Note_on_c, 8, 73, 0
11, 118800, Note_on_c, 8, 72, 34
11, 118859, Note_on_c, 8, 72, 0
11, 118920, Note_on_c, 8, 72, 34
11, 118949, Note_on_c, 8, 72, 0
11, 119000, Note_on_c, 8, 72, 44
11, 119020, Note_on_c, 8, 74, 44
11, 119029, Note_on_c, 8, 72, 0
11, 119040, Note_on_c, 8, 75, 54
11, 119049, Note_on_c, 8, 74, 0
11, 119159, Note_on_c, 8, 75, 0
11, 119160, Note_on_c, 8, 74, 44
11, 119219, Note_on_c, 8, 74, 0
11, 119220, Note_on_c, 8, 72, 44
11, 119240, Note_on_c, 8, 71, 44
11, 119260, Note_on_c, 8, 72, 44
11, 119269, Note_on_c, 8, 71, 0
11, 119279, Note_on_c, 8, 72, 0
11, 119279, Note_on_c, 8, 72, 0
11, 119280, Note_on_c, 8, 74, 54
11, 119399, Note_on_c, 8, 74, 0
11, 119400, Note_on_c, 8, 72, 44
11, 119459, Note_on_c, 8, 72, 0
11, 119460, Note_on_c, 8, 71, 37
11, 119519, Note_on_c, 8, 71, 0
11, 119520, Note_on_c, 8, 72, 27
11, 119609, Note_on_c, 8, 72, 0
11, 119880, Note_on_c, 8, 63, 34
11, 119999, Note_on_c, 8, 63, 0
11, 120000, Note_on_c, 8, 64, 38
11, 120119, Note_on_c, 8, 64, 0
11, 120360, Note_on_c, 8, 64, 45
11, 120479, Note_on_c, 8, 64, 0
11, 120480, Note_on_c, 8, 65, 49
11, 120599, Note_on_c, 8, 65, 0
11, 120840, Note_on_c, 8, 65, 56
11, 120959, Note_on_c, 8, 65, 0
11, 120960, Note_on_c, 8, 66, 60
11, 121439, Note_on_c, 8, 66, 0
11, 121440, Note_on_c, 8, 67, 70
11, 121559, Note_on_c, 8, 67, 0
11, 138300, Control_c, 8, 7, 107
11, 138360, Control_c, 8, 0, 1
11, 138375, Control_c, 8, 32, 0
11, 138390, Program_c, 8, 48
11, 138420, Note_on_c, 8, 60, 41
11, 138449, Note_on_c, 8, 60, 0
11, 138480, Note_on_c, 8, 60, 44
11, 138509, Note_on_c, 8, 60, 0
11, 138540, Note_on_c, 8, 60, 49
11, 138569, Note_on_c, 8, 60, 0
11, 138600, Note_on_c, 8, 60, 51
11, 138629, Note_on_c, 8, 60, 0
11, 138660, Note_on_c, 8, 60, 56
11, 138689, Note_on_c, 8, 60, 0
11, 138720, Note_on_c, 8, 61, 56
11, 138839, Note_on_c, 8, 61, 0
11, 138840, Note_on_c, 8, 60, 59
11, 138869, Note_on_c, 8, 60, 0
11, 138900, Note_on_c, 8, 61, 62
11, 139019, Note_on_c, 8, 61, 0
11, 139020, Note_on_c, 8, 60, 66
11, 139049, Note_on_c, 8, 60, 0
11, 139080, Note_on_c, 8, 68, 68
11, 139259, Note_on_c, 8, 68, 0
11, 139260, Note_on_c, 8, 67, 46
11, 139319, Note_on_c, 8, 67, 0
11, 139440, Note_on_c, 8, 61, 44
11, 139559, Note_on_c, 8, 61, 0
11, 139560, Note_on_c, 8, 60, 47
11, 139589, Note_on_c, 8, 60, 0
11, 139620, Note_on_c, 8, 61, 49
11, 139739, Note_on_c, 8, 61, 0
11, 139740, Note_on_c, 8, 60, 52
11, 139769, Note_on_c, 8, 60, 0
11, 139800, Note_on_c, 8, 68, 55
11, 139979, Note_on_c, 8, 68, 0
11, 139980, Note_on_c, 8, 67, 46
11, 140039, Note_on_c, 8, 67, 0
11, 140100, Note_on_c, 8, 60, 39
11, 140159, Note_on_c, 8, 60, 0
11, 140160, Note_on_c, 8, 61, 40
11, 140279, Note_on_c, 8, 61, 0
11, 140280, Note_on_c, 8, 62, 44
11, 140339, Note_on_c, 8, 62, 0
11, 140340, Note_on_c, 8, 63, 46
11, 140459, Note_on_c, 8, 63, 0
11, 140460, Note_on_c, 8, 64, 49
11, 140519, Note_on_c, 8, 64, 0
11, 140520, Note_on_c, 8, 65, 51
11, 140549, Note_on_c, 8, 65, 0
11, 140580, Note_on_c, 8, 55, 39
11, 140580, Note_on_c, 8, 60, 39
11, 140639, Note_on_c, 8, 60, 0
11, 140639, Note_on_c, 8, 55, 0
11, 140640, Note_on_c, 8, 61, 41
11, 140699, Note_on_c, 8, 61, 0
11, 140700, Note_on_c, 8, 62, 44
11, 140759, Note_on_c, 8, 62, 0
11, 140760, Note_on_c, 8, 63, 46
11, 140819, Note_on_c, 8, 63, 0
11, 140820, Note_on_c, 8, 61, 49
11, 140820, Note_on_c, 8, 64, 49
11, 140879, Note_on_c, 8, 64, 0
11, 140879, Note_on_c, 8, 61, 0
11, 140880, Note_on_c, 8, 65, 51
11, 140909, Note_on_c, 8, 65, 0
11, 140940, Note_on_c, 8, 60, 39
11, 140999, Note_on_c, 8, 60, 0
11, 141000, Note_on_c, 8, 61, 40
11, 141059, Note_on_c, 8, 61, 0
11, 141060, Note_on_c, 8, 62, 43
11, 141119, Note_on_c, 8, 62, 0
11, 141120, Note_on_c, 8, 63, 46
11, 141179, Note_on_c, 8, 63, 0
11, 141180, Note_on_c, 8, 64, 48
11, 141239, Note_on_c, 8, 64, 0
11, 141240, Note_on_c, 8, 65, 52
11, 141269, Note_on_c, 8, 65, 0
11, 141360, Note_on_c, 8, 64, 58
11, 141419, Note_on_c, 8, 64, 0
11, 141420, Note_on_c, 8, 65, 62
11, 141449, Note_on_c, 8, 65, 0
11, 141540, Note_on_c, 8, 64, 69
11, 141599, Note_on_c, 8, 64, 0
11, 141600, Note_on_c, 8, 65, 74
11, 141639, Note_on_c, 8, 65, 0
11, 141960, Note_on_c, 8, 68, 65
11, 142319, Note_on_c, 8, 68, 0
11, 142320, Note_on_c, 8, 67, 55
11, 142349, Note_on_c, 8, 67, 0
11, 142380, Note_on_c, 8, 67, 55
11, 142399, Note_on_c, 8, 67, 0
11, 142440, Note_on_c, 8, 67, 55
11, 142459, Note_on_c, 8, 67, 0
11, 142560, Note_on_c, 8, 65, 55
11, 142579, Note_on_c, 8, 65, 0
11, 142620, Note_on_c, 8, 65, 55
11, 142639, Note_on_c, 8, 65, 0
11, 142740, Note_on_c, 8, 63, 55
11, 142759, Note_on_c, 8, 63, 0
11, 142800, Note_on_c, 8, 63, 55
11, 142819, Note_on_c, 8, 63, 0
11, 142920, Note_on_c, 8, 62, 55
11, 142939, Note_on_c, 8, 62, 0
11, 142980, Note_on_c, 8, 62, 55
11, 142999, Note_on_c, 8, 62, 0
11, 143040, Note_on_c, 8, 60, 55
11, 143099, Note_on_c, 8, 60, 0
11, 144120, Control_c, 8, 7, 127
11, 144540, Note_on_c, 8, 60, 41
11, 144569, Note_on_c, 8, 60, 0
11, 144600, Note_on_c, 8, 60, 44
11, 144629, Note_on_c, 8, 60, 0
11, 144660, Note_on_c, 8, 60, 49
11, 144689, Note_on_c, 8, 60, 0
11, 144720, Note_on_c, 8, 60, 51
11, 144749, Note_on_c, 8, 60, 0
11, 144780, Note_on_c, 8, 60, 56
11, 144809, Note_on_c, 8, 60, 0
11, 144840, Note_on_c, 8, 61, 56
11, 144959, Note_on_c, 8, 61, 0
11, 144960, Note_on_c, 8, 60, 59
11, 144989, Note_on_c, 8, 60, 0
11, 145020, Note_on_c, 8, 61, 62
11, 145139, Note_on_c, 8, 61, 0
11, 145140, Note_on_c, 8, 60, 66
11, 145169, Note_on_c, 8, 60, 0
11, 145200, Note_on_c, 8, 68, 68
11, 145379, Note_on_c, 8, 68, 0
11, 145380, Note_on_c, 8, 67, 46
11, 145439, Note_on_c, 8, 67, 0
11, 145560, Note_on_c, 8, 61, 44
11, 145679, Note_on_c, 8, 61, 0
11, 145680, Note_on_c, 8, 60, 47
11, 145709, Note_on_c, 8, 60, 0
11, 145740, Note_on_c, 8, 61, 49
11, 145859, Note_on_c, 8, 61, 0
11, 145860, Note_on_c, 8, 60, 52
11, 145889, Note_on_c, 8, 60, 0
11, 145920, Note_on_c, 8, 68, 55
11, 146099, Note_on_c, 8, 68, 0
11, 146100, Note_on_c, 8, 67, 46
11, 146159, Note_on_c, 8, 67, 0
11, 146220, Note_on_c, 8, 60, 39
11, 146279, Note_on_c, 8, 60, 0
11, 146280, Note_on_c, 8, 61, 40
11, 146399, Note_on_c, 8, 61, 0
11, 146400, Note_on_c, 8, 62, 44
11, 146459, Note_on_c, 8, 62, 0
11, 146460, Note_on_c, 8, 63, 46
11, 146579, Note_on_c, 8, 63, 0
11, 146580, Note_on_c, 8, 64, 49
11, 146639, Note_on_c, 8, 64, 0
11, 146640, Note_on_c, 8, 65, 51
11, 146669, Note_on_c, 8, 65, 0
11, 146700, Note_on_c, 8, 55, 39
11, 146700, Note_on_c, 8, 60, 39
11, 146759, Note_on_c, 8, 60, 0
11, 146759, Note_on_c, 8, 55, 0
11, 146760, Note_on_c, 8, 61, 41
11, 146819, Note_on_c, 8, 61, 0
11, 146820, Note_on_c, 8, 62, 44
11, 146879, Note_on_c, 8, 62, 0
11, 146880, Note_on_c, 8, 63, 46
11, 146939, Note_on_c, 8, 63, 0
11, 146940, Note_on_c, 8, 61, 49
11, 146940, Note_on_c, 8, 64, 49
11, 146999, Note_on_c, 8, 64, 0
11, 146999, Note_on_c, 8, 61, 0
11, 147000, Note_on_c, 8, 65, 51
11, 147029, Note_on_c, 8, 65, 0
11, 147060, Note_on_c, 8, 60, 39
11, 147119, Note_on_c, 8, 60, 0
11, 147120, Note_on_c, 8, 61, 40
11, 147179, Note_on_c, 8, 61, 0
11, 147180, Note_on_c, 8, 62, 43
11, 147239, Note_on_c, 8, 62, 0
11, 147240, Note_on_c, 8, 63, 46
11, 147299, Note_on_c, 8, 63, 0
11, 147300, Note_on_c, 8, 64, 48
11, 147359, Note_on_c, 8, 64, 0
11, 147360, Note_on_c, 8, 65, 52
11, 147389, Note_on_c, 8, 65, 0
11, 147480, Note_on_c, 8, 64, 58
11, 147539, Note_on_c, 8, 64, 0
11, 147540, Note_on_c, 8, 65, 62
11, 147569, Note_on_c, 8, 65, 0
11, 147660, Note_on_c, 8, 64, 69
11, 147719, Note_on_c, 8, 64, 0
11, 147720, Note_on_c, 8, 65, 74
11, 147759, Note_on_c, 8, 65, 0
11, 148080, Note_on_c, 8, 68, 65
11, 148439, Note_on_c, 8, 68, 0
11, 148440, Note_on_c, 8, 67, 55
11, 148469, Note_on_c, 8, 67, 0
11, 148500, Note_on_c, 8, 67, 55
11, 148514, Note_on_c, 8, 67, 0
11, 148560, Note_on_c, 8, 67, 54
11, 148574, Note_on_c, 8, 67, 0
11, 148680, Note_on_c, 8, 65, 52
11, 148694, Note_on_c, 8, 65, 0
11, 148740, Note_on_c, 8, 65, 50
11, 148754, Note_on_c, 8, 65, 0
11, 148860, Note_on_c, 8, 63, 48
11, 148874, Note_on_c, 8, 63, 0
11, 148920, Note_on_c, 8, 63, 46
11, 148934, Note_on_c, 8, 63, 0
11, 149040, Note_on_c, 8, 62, 44
11, 149054, Note_on_c, 8, 62, 0
11, 149100, Note_on_c, 8, 62, 42
11, 149114, Note_on_c, 8, 62, 0
11, 149160, Note_on_c, 8, 60, 55
11, 149219, Note_on_c, 8, 60, 0
11, 150600, Note_on_c, 8, 68, 24
11, 151679, Note_on_c, 8, 68, 0
11, 151680, Note_on_c, 8, 67, 22
11, 152039, Note_on_c, 8, 67, 0
11, 152040, Note_on_c, 8, 67, 43
11, 152097, Note_on_c, 8, 67, 0
11, 152400, Note_on_c, 8, 68, 43
11, 152438, Note_on_c, 8, 68, 0
11, 152580, Note_on_c, 8, 67, 43
11, 152618, Note_on_c, 8, 67, 0
11, 152760, Note_on_c, 8, 67, 43
11, 152817, Note_on_c, 8, 67, 0
11, 153120, Note_on_c, 8, 68, 43
11, 153158, Note_on_c, 8, 68, 0
11, 153300, Note_on_c, 8, 67, 43
11, 153338, Note_on_c, 8, 67, 0
11, 153480, Note_on_c, 8, 63, 43
11, 153537, Note_on_c, 8, 63, 0
11, 153840, Note_on_c, 8, 65, 47
11, 153899, Note_on_c, 8, 65, 0
11, 154020, Note_on_c, 8, 62, 49
11, 154079, Note_on_c, 8, 62, 0
11, 154200, Note_on_c, 8, 60, 65
11, 154259, Note_on_c, 8, 60, 0
11, 154260, Note_on_c, 8, 62, 57
11, 154289, Note_on_c, 8, 62, 0
11, 154290, Note_on_c, 8, 63, 58
11, 154319, Note_on_c, 8, 63, 0
11, 154320, Note_on_c, 8, 65, 59
11, 154349, Note_on_c, 8, 65, 0
11, 154350, Note_on_c, 8, 67, 61
11, 154379, Note_on_c, 8, 67, 0
11, 154380, Note_on_c, 8, 68, 62
11, 154409, Note_on_c, 8, 68, 0
11, 154410, Note_on_c, 8, 67, 63
11, 154439, Note_on_c, 8, 67, 0
11, 154440, Note_on_c, 8, 65, 64
11, 154469, Note_on_c, 8, 65, 0
11, 154470, Note_on_c, 8, 67, 66
11, 154499, Note_on_c, 8, 67, 0
11, 154500, Note_on_c, 8, 69, 67
11, 154529, Note_on_c, 8, 69, 0
11, 154530, Note_on_c, 8, 71, 68
11, 154559, Note_on_c, 8, 71, 0
11, 154560, Note_on_c, 8, 72, 69
11, 154589, Note_on_c, 8, 72, 0
11, 154590, Note_on_c, 8, 67, 70
11, 154619, Note_on_c, 8, 67, 0
11, 154620, Note_on_c, 8, 69, 72
11, 154649, Note_on_c, 8, 69, 0
11, 154650, Note_on_c, 8, 71, 73
11, 154679, Note_on_c, 8, 71, 0
11, 154680, Note_on_c, 8, 72, 74
11, 154709, Note_on_c, 8, 72, 0
11, 154710, Note_on_c, 8, 74, 75
11, 154739, Note_on_c, 8, 74, 0
11, 154740, Note_on_c, 8, 75, 77
11, 154769, Note_on_c, 8, 75, 0
11, 154770, Note_on_c, 8, 71, 78
11, 154799, Note_on_c, 8, 71, 0
11, 154800, Note_on_c, 8, 72, 79
11, 154829, Note_on_c, 8, 72, 0
11, 154830, Note_on_c, 8, 74, 80
11, 154859, Note_on_c, 8, 74, 0
11, 154860, Note_on_c, 8, 75, 81
11, 154889, Note_on_c, 8, 75, 0
11, 154890, Note_on_c, 8, 77, 83
11, 154919, Note_on_c, 8, 77, 0
11, 154920, Note_on_c, 8, 79, 84
11, 154979, Note_on_c, 8, 79, 0
11, 155100, Note_on_c, 8, 74, 71
11, 155100, Note_on_c, 8, 83, 91
11, 155159, Note_on_c, 8, 83, 0
11, 155159, Note_on_c, 8, 74, 0
11, 155280, Note_on_c, 8, 75, 79
11, 155280, Note_on_c, 8, 84, 99
11, 155339, Note_on_c, 8, 84, 0
11, 155339, Note_on_c, 8, 75, 0
11, 155339, End_track
12, 0, Start_track
12, 0, MIDI_port, 0
12, 0, Title_t, "Violin II"
12, 20, Control_c, 10, 121, 0
12, 21, Control_c, 10, 11, 127
12, 21, Control_c, 10, 7, 127
12, 22, Control_c, 10, 93, 10
12, 22, Control_c, 10, 91, 79
12, 25, Control_c, 10, 10, 74
12, 26, Pitch_bend_c, 10, 8192
12, 27, Control_c, 10, 0, 1
12, 28, Control_c, 10, 32, 0
12, 29, Program_c, 10, 48
12, 960, Note_on_c, 10, 60, 33
12, 1049, Note_on_c, 10, 60, 0
12, 1200, Note_on_c, 10, 59, 33
12, 1289, Note_on_c, 10, 59, 0
12, 1919, Control_c, 10, 11, 66
12, 1920, Note_on_c, 10, 66, 43
12, 1921, Control_c, 10, 11, 67
12, 1932, Control_c, 10, 11, 68
12, 1943, Control_c, 10, 11, 69
12, 1954, Control_c, 10, 11, 70
12, 1965, Control_c, 10, 11, 71
12, 1976, Control_c, 10, 11, 72
12, 1987, Control_c, 10, 11, 73
12, 1998, Control_c, 10, 11, 74
12, 2009, Control_c, 10, 11, 75
12, 2020, Control_c, 10, 11, 76
12, 2031, Control_c, 10, 11, 77
12, 2042, Control_c, 10, 11, 78
12, 2053, Control_c, 10, 11, 80
12, 2064, Control_c, 10, 11, 82
12, 2075, Control_c, 10, 11, 84
12, 2086, Control_c, 10, 11, 86
12, 2097, Control_c, 10, 11, 88
12, 2108, Control_c, 10, 11, 90
12, 2119, Control_c, 10, 11, 92
12, 2130, Control_c, 10, 11, 94
12, 2141, Control_c, 10, 11, 96
12, 2152, Control_c, 10, 11, 98
12, 2163, Control_c, 10, 11, 100
12, 2174, Control_c, 10, 11, 103
12, 2185, Control_c, 10, 11, 106
12, 2196, Control_c, 10, 11, 109
12, 2207, Control_c, 10, 11, 112
12, 2218, Control_c, 10, 11, 115
12, 2229, Control_c, 10, 11, 118
12, 2240, Control_c, 10, 11, 121
12, 2251, Control_c, 10, 11, 124
12, 2262, Control_c, 10, 11, 127
12, 2279, Note_on_c, 10, 66, 0
12, 2279, Control_c, 10, 11, 127
12, 2280, Note_on_c, 10, 60, 33
12, 2399, Note_on_c, 10, 60, 0
12, 2400, Note_on_c, 10, 59, 28
12, 2519, Note_on_c, 10, 59, 0
12, 2880, Note_on_c, 10, 60, 31
12, 3119, Note_on_c, 10, 60, 0
12, 3120, Note_on_c, 10, 62, 34
12, 3359, Note_on_c, 10, 62, 0
12, 3360, Note_on_c, 10, 63, 37
12, 3479, Note_on_c, 10, 63, 0
12, 3480, Note_on_c, 10, 58, 39
12, 3599, Note_on_c, 10, 58, 0
12, 3600, Note_on_c, 10, 60, 40
12, 3719, Note_on_c, 10, 60, 0
12, 3720, Note_on_c, 10, 61, 42
12, 3839, Note_on_c, 10, 61, 0
12, 3840, Note_on_c, 10, 62, 44
12, 3959, Note_on_c, 10, 62, 0
12, 3960, Note_on_c, 10, 60, 43
12, 4019, Note_on_c, 10, 60, 0
12, 4020, Note_on_c, 10, 58, 43
12, 4079, Note_on_c, 10, 58, 0
12, 4080, Note_on_c, 10, 57, 43
12, 4139, Note_on_c, 10, 57, 0
12, 4140, Note_on_c, 10, 58, 43
12, 4199, Note_on_c, 10, 58, 0
12, 4200, Note_on_c, 10, 60, 43
12, 4259, Note_on_c, 10, 60, 0
12, 4260, Note_on_c, 10, 62, 43
12, 4319, Note_on_c, 10, 62, 0
12, 4320, Note_on_c, 10, 58, 33
12, 4439, Note_on_c, 10, 58, 0
12, 4800, Note_on_c, 10, 60, 30
12, 4889, Note_on_c, 10, 60, 0
12, 5040, Note_on_c, 10, 59, 26
12, 5129, Note_on_c, 10, 59, 0
12, 5759, Control_c, 10, 11, 66
12, 5760, Note_on_c, 10, 66, 43
12, 5761, Control_c, 10, 11, 67
12, 5772, Control_c, 10, 11, 68
12, 5783, Control_c, 10, 11, 69
12, 5794, Control_c, 10, 11, 70
12, 5805, Control_c, 10, 11, 71
12, 5816, Control_c, 10, 11, 72
12, 5827, Control_c, 10, 11, 73
12, 5838, Control_c, 10, 11, 74
12, 5849, Control_c, 10, 11, 75
12, 5860, Control_c, 10, 11, 76
12, 5871, Control_c, 10, 11, 77
12, 5882, Control_c, 10, 11, 78
12, 5893, Control_c, 10, 11, 80
12, 5904, Control_c, 10, 11, 82
12, 5915, Control_c, 10, 11, 84
12, 5926, Control_c, 10, 11, 86
12, 5937, Control_c, 10, 11, 88
12, 5948, Control_c, 10, 11, 90
12, 5959, Control_c, 10, 11, 92
12, 5970, Control_c, 10, 11, 94
12, 5981, Control_c, 10, 11, 96
12, 5992, Control_c, 10, 11, 98
12, 6003, Control_c, 10, 11, 100
12, 6014, Control_c, 10, 11, 103
12, 6025, Control_c, 10, 11, 106
12, 6036, Control_c, 10, 11, 109
12, 6047, Control_c, 10, 11, 112
12, 6058, Control_c, 10, 11, 115
12, 6069, Control_c, 10, 11, 118
12, 6080, Control_c, 10, 11, 121
12, 6091, Control_c, 10, 11, 124
12, 6102, Control_c, 10, 11, 127
12, 6119, Note_on_c, 10, 66, 0
12, 6119, Control_c, 10, 11, 127
12, 6120, Note_on_c, 10, 60, 33
12, 6239, Note_on_c, 10, 60, 0
12, 6240, Note_on_c, 10, 59, 28
12, 6359, Note_on_c, 10, 59, 0
12, 6720, Note_on_c, 10, 60, 31
12, 6959, Note_on_c, 10, 60, 0
12, 6960, Note_on_c, 10, 62, 34
12, 7199, Note_on_c, 10, 62, 0
12, 7200, Note_on_c, 10, 63, 37
12, 7319, Note_on_c, 10, 63, 0
12, 7320, Note_on_c, 10, 58, 39
12, 7439, Note_on_c, 10, 58, 0
12, 7440, Note_on_c, 10, 60, 40
12, 7559, Note_on_c, 10, 60, 0
12, 7560, Note_on_c, 10, 61, 42
12, 7679, Note_on_c, 10, 61, 0
12, 7680, Note_on_c, 10, 62, 44
12, 7799, Note_on_c, 10, 62, 0
12, 7800, Note_on_c, 10, 60, 43
12, 7859, Note_on_c, 10, 60, 0
12, 7860, Note_on_c, 10, 58, 43
12, 7919, Note_on_c, 10, 58, 0
12, 7920, Note_on_c, 10, 57, 43
12, 7979, Note_on_c, 10, 57, 0
12, 7980, Note_on_c, 10, 58, 43
12, 8039, Note_on_c, 10, 58, 0
12, 8040, Note_on_c, 10, 60, 43
12, 8099, Note_on_c, 10, 60, 0
12, 8100, Note_on_c, 10, 62, 43
12, 8159, Note_on_c, 10, 62, 0
12, 8160, Note_on_c, 10, 58, 33
12, 8279, Note_on_c, 10, 58, 0
12, 8640, Note_on_c, 10, 62, 33
12, 8699, Note_on_c, 10, 62, 0
12, 8880, Note_on_c, 10, 60, 33
12, 8939, Note_on_c, 10, 60, 0
12, 9120, Note_on_c, 10, 59, 33
12, 9179, Note_on_c, 10, 59, 0
12, 9480, Note_on_c, 10, 71, 23
12, 9599, Note_on_c, 10, 71, 0
12, 9599, Control_c, 10, 11, 66
12, 9600, Note_on_c, 10, 72, 43
12, 9601, Control_c, 10, 11, 67
12, 9616, Control_c, 10, 11, 68
12, 9631, Control_c, 10, 11, 69
12, 9646, Control_c, 10, 11, 70
12, 9661, Control_c, 10, 11, 71
12, 9676, Control_c, 10, 11, 72
12, 9691, Control_c, 10, 11, 73
12, 9706, Control_c, 10, 11, 74
12, 9721, Control_c, 10, 11, 75
12, 9736, Control_c, 10, 11, 76
12, 9751, Control_c, 10, 11, 77
12, 9766, Control_c, 10, 11, 78
12, 9781, Control_c, 10, 11, 80
12, 9796, Control_c, 10, 11, 82
12, 9811, Control_c, 10, 11, 84
12, 9826, Control_c, 10, 11, 86
12, 9839, Note_on_c, 10, 72, 0
12, 9840, Note_on_c, 10, 74, 33
12, 9841, Control_c, 10, 11, 88
12, 9856, Control_c, 10, 11, 90
12, 9871, Control_c, 10, 11, 92
12, 9886, Control_c, 10, 11, 94
12, 9901, Control_c, 10, 11, 96
12, 9916, Control_c, 10, 11, 98
12, 9931, Control_c, 10, 11, 100
12, 9946, Control_c, 10, 11, 103
12, 9961, Control_c, 10, 11, 106
12, 9976, Control_c, 10, 11, 109
12, 9991, Control_c, 10, 11, 112
12, 10006, Control_c, 10, 11, 115
12, 10021, Control_c, 10, 11, 118
12, 10036, Control_c, 10, 11, 121
12, 10051, Control_c, 10, 11, 124
12, 10066, Control_c, 10, 11, 127
12, 10079, Note_on_c, 10, 74, 0
12, 10079, Control_c, 10, 11, 127
12, 10080, Note_on_c, 10, 72, 26
12, 10199, Note_on_c, 10, 72, 0
12, 10560, Note_on_c, 10, 65, 26
12, 10799, Note_on_c, 10, 65, 0
12, 10800, Note_on_c, 10, 67, 28
12, 11039, Note_on_c, 10, 67, 0
12, 11040, Note_on_c, 10, 68, 31
12, 11159, Note_on_c, 10, 68, 0
12, 11160, Note_on_c, 10, 63, 32
12, 11279, Note_on_c, 10, 63, 0
12, 11280, Note_on_c, 10, 65, 33
12, 11399, Note_on_c, 10, 65, 0
12, 11400, Note_on_c, 10, 66, 34
12, 11519, Note_on_c, 10, 66, 0
12, 11519, Control_c, 10, 11, 66
12, 11520, Note_on_c, 10, 67, 46
12, 11521, Control_c, 10, 11, 67
12, 11524, Control_c, 10, 11, 68
12, 11527, Control_c, 10, 11, 69
12, 11530, Control_c, 10, 11, 70
12, 11533, Control_c, 10, 11, 71
12, 11536, Control_c, 10, 11, 72
12, 11539, Control_c, 10, 11, 73
12, 11542, Control_c, 10, 11, 74
12, 11545, Control_c, 10, 11, 75
12, 11548, Control_c, 10, 11, 76
12, 11551, Control_c, 10, 11, 77
12, 11554, Control_c, 10, 11, 78
12, 11557, Control_c, 10, 11, 80
12, 11560, Control_c, 10, 11, 82
12, 11563, Control_c, 10, 11, 84
12, 11566, Control_c, 10, 11, 86
12, 11569, Control_c, 10, 11, 88
12, 11572, Control_c, 10, 11, 90
12, 11575, Control_c, 10, 11, 92
12, 11578, Control_c, 10, 11, 94
12, 11581, Control_c, 10, 11, 96
12, 11584, Control_c, 10, 11, 98
12, 11587, Control_c, 10, 11, 100
12, 11590, Control_c, 10, 11, 103
12, 11593, Control_c, 10, 11, 106
12, 11596, Control_c, 10, 11, 109
12, 11599, Control_c, 10, 11, 112
12, 11602, Control_c, 10, 11, 115
12, 11605, Control_c, 10, 11, 118
12, 11608, Control_c, 10, 11, 121
12, 11611, Control_c, 10, 11, 124
12, 11614, Control_c, 10, 11, 127
12, 11639, Note_on_c, 10, 67, 0
12, 11639, Control_c, 10, 11, 127
12, 11640, Note_on_c, 10, 65, 38
12, 11700, Note_on_c, 10, 63, 35
12, 11705, Note_on_c, 10, 65, 0
12, 11760, Note_on_c, 10, 62, 33
12, 11765, Note_on_c, 10, 63, 0
12, 11820, Note_on_c, 10, 63, 30
12, 11825, Note_on_c, 10, 62, 0
12, 11880, Note_on_c, 10, 65, 29
12, 11885, Note_on_c, 10, 63, 0
12, 11940, Note_on_c, 10, 67, 26
12, 11945, Note_on_c, 10, 65, 0
12, 12000, Note_on_c, 10, 63, 23
12, 12005, Note_on_c, 10, 67, 0
12, 12119, Note_on_c, 10, 63, 0
12, 12480, Note_on_c, 10, 62, 33
12, 12539, Note_on_c, 10, 62, 0
12, 12720, Note_on_c, 10, 60, 33
12, 12779, Note_on_c, 10, 60, 0
12, 12960, Note_on_c, 10, 59, 33
12, 13019, Note_on_c, 10, 59, 0
12, 13320, Note_on_c, 10, 71, 23
12, 13439, Note_on_c, 10, 71, 0
12, 13439, Control_c, 10, 11, 66
12, 13440, Note_on_c, 10, 72, 33
12, 13441, Control_c, 10, 11, 67
12, 13456, Control_c, 10, 11, 68
12, 13471, Control_c, 10, 11, 69
12, 13486, Control_c, 10, 11, 70
12, 13501, Control_c, 10, 11, 71
12, 13516, Control_c, 10, 11, 72
12, 13531, Control_c, 10, 11, 73
12, 13546, Control_c, 10, 11, 74
12, 13561, Control_c, 10, 11, 75
12, 13576, Control_c, 10, 11, 76
12, 13591, Control_c, 10, 11, 77
12, 13606, Control_c, 10, 11, 78
12, 13621, Control_c, 10, 11, 80
12, 13636, Control_c, 10, 11, 82
12, 13651, Control_c, 10, 11, 84
12, 13666, Control_c, 10, 11, 86
12, 13679, Note_on_c, 10, 72, 0
12, 13680, Note_on_c, 10, 74, 28
12, 13681, Control_c, 10, 11, 88
12, 13696, Control_c, 10, 11, 90
12, 13711, Control_c, 10, 11, 92
12, 13726, Control_c, 10, 11, 94
12, 13741, Control_c, 10, 11, 96
12, 13756, Control_c, 10, 11, 98
12, 13771, Control_c, 10, 11, 100
12, 13786, Control_c, 10, 11, 103
12, 13801, Control_c, 10, 11, 106
12, 13816, Control_c, 10, 11, 109
12, 13831, Control_c, 10, 11, 112
12, 13846, Control_c, 10, 11, 115
12, 13861, Control_c, 10, 11, 118
12, 13876, Control_c, 10, 11, 121
12, 13891, Control_c, 10, 11, 124
12, 13906, Control_c, 10, 11, 127
12, 13919, Note_on_c, 10, 74, 0
12, 13920, Note_on_c, 10, 72, 19
12, 14039, Note_on_c, 10, 72, 0
12, 14400, Note_on_c, 10, 65, 26
12, 14639, Note_on_c, 10, 65, 0
12, 14640, Note_on_c, 10, 67, 28
12, 14879, Note_on_c, 10, 67, 0
12, 14880, Note_on_c, 10, 68, 31
12, 14999, Note_on_c, 10, 68, 0
12, 15000, Note_on_c, 10, 63, 32
12, 15119, Note_on_c, 10, 63, 0
12, 15120, Note_on_c, 10, 65, 33
12, 15239, Note_on_c, 10, 65, 0
12, 15240, Note_on_c, 10, 66, 34
12, 15359, Note_on_c, 10, 66, 0
12, 15359, Control_c, 10, 11, 66
12, 15360, Note_on_c, 10, 67, 46
12, 15361, Control_c, 10, 11, 67
12, 15364, Control_c, 10, 11, 68
12, 15367, Control_c, 10, 11, 69
12, 15370, Control_c, 10, 11, 70
12, 15373, Control_c, 10, 11, 71
12, 15376, Control_c, 10, 11, 72
12, 15379, Control_c, 10, 11, 73
12, 15382, Control_c, 10, 11, 74
12, 15385, Control_c, 10, 11, 75
12, 15388, Control_c, 10, 11, 76
12, 15391, Control_c, 10, 11, 77
12, 15394, Control_c, 10, 11, 78
12, 15397, Control_c, 10, 11, 80
12, 15400, Control_c, 10, 11, 82
12, 15403, Control_c, 10, 11, 84
12, 15406, Control_c, 10, 11, 86
12, 15409, Control_c, 10, 11, 88
12, 15412, Control_c, 10, 11, 90
12, 15415, Control_c, 10, 11, 92
12, 15418, Control_c, 10, 11, 94
12, 15421, Control_c, 10, 11, 96
12, 15424, Control_c, 10, 11, 98
12, 15427, Control_c, 10, 11, 100
12, 15430, Control_c, 10, 11, 103
12, 15433, Control_c, 10, 11, 106
12, 15436, Control_c, 10, 11, 109
12, 15439, Control_c, 10, 11, 112
12, 15442, Control_c, 10, 11, 115
12, 15445, Control_c, 10, 11, 118
12, 15448, Control_c, 10, 11, 121
12, 15451, Control_c, 10, 11, 124
12, 15454, Control_c, 10, 11, 127
12, 15479, Note_on_c, 10, 67, 0
12, 15479, Control_c, 10, 11, 127
12, 15480, Note_on_c, 10, 65, 38
12, 15540, Note_on_c, 10, 63, 35
12, 15545, Note_on_c, 10, 65, 0
12, 15600, Note_on_c, 10, 62, 33
12, 15605, Note_on_c, 10, 63, 0
12, 15660, Note_on_c, 10, 63, 30
12, 15665, Note_on_c, 10, 62, 0
12, 15720, Note_on_c, 10, 65, 29
12, 15725, Note_on_c, 10, 63, 0
12, 15780, Note_on_c, 10, 67, 26
12, 15785, Note_on_c, 10, 65, 0
12, 15840, Note_on_c, 10, 63, 23
12, 15845, Note_on_c, 10, 67, 0
12, 15959, Note_on_c, 10, 63, 0
12, 16320, Note_on_c, 10, 63, 24
12, 16359, Note_on_c, 10, 63, 0
12, 16560, Note_on_c, 10, 62, 24
12, 16599, Note_on_c, 10, 62, 0
12, 16800, Note_on_c, 10, 60, 24
12, 16839, Note_on_c, 10, 60, 0
12, 17280, Note_on_c, 10, 66, 27
12, 17759, Note_on_c, 10, 66, 0
12, 17760, Note_on_c, 10, 67, 21
12, 17879, Note_on_c, 10, 67, 0
12, 18240, Note_on_c, 10, 63, 20
12, 18419, Note_on_c, 10, 63, 0
12, 18420, Note_on_c, 10, 67, 24
12, 18479, Note_on_c, 10, 67, 0
12, 18480, Note_on_c, 10, 68, 25
12, 18719, Note_on_c, 10, 68, 0
12, 18719, Control_c, 10, 11, 46
12, 18720, Note_on_c, 10, 70, 44
12, 18721, Control_c, 10, 11, 47
12, 18737, Control_c, 10, 11, 48
12, 18753, Control_c, 10, 11, 49
12, 18769, Control_c, 10, 11, 50
12, 18785, Control_c, 10, 11, 51
12, 18801, Control_c, 10, 11, 52
12, 18817, Control_c, 10, 11, 53
12, 18833, Control_c, 10, 11, 54
12, 18849, Control_c, 10, 11, 55
12, 18865, Control_c, 10, 11, 56
12, 18881, Control_c, 10, 11, 58
12, 18897, Control_c, 10, 11, 60
12, 18913, Control_c, 10, 11, 62
12, 18929, Control_c, 10, 11, 64
12, 18945, Control_c, 10, 11, 66
12, 18961, Control_c, 10, 11, 68
12, 18977, Control_c, 10, 11, 70
12, 18993, Control_c, 10, 11, 72
12, 19009, Control_c, 10, 11, 74
12, 19025, Control_c, 10, 11, 76
12, 19041, Control_c, 10, 11, 79
12, 19057, Control_c, 10, 11, 82
12, 19073, Control_c, 10, 11, 85
12, 19089, Control_c, 10, 11, 88
12, 19105, Control_c, 10, 11, 91
12, 19121, Control_c, 10, 11, 94
12, 19137, Control_c, 10, 11, 97
12, 19153, Control_c, 10, 11, 100
12, 19169, Control_c, 10, 11, 103
12, 19185, Control_c, 10, 11, 106
12, 19201, Control_c, 10, 11, 110
12, 19217, Control_c, 10, 11, 114
12, 19233, Control_c, 10, 11, 118
12, 19239, Note_on_c, 10, 70, 0
12, 19249, Control_c, 10, 11, 122
12, 19265, Control_c, 10, 11, 126
12, 19319, Control_c, 10, 11, 127
12, 19320, Note_on_c, 10, 67, 38
12, 19359, Note_on_c, 10, 67, 0
12, 19440, Note_on_c, 10, 69, 32
12, 19479, Note_on_c, 10, 69, 0
12, 19560, Note_on_c, 10, 66, 26
12, 19599, Note_on_c, 10, 66, 0
12, 20160, Note_on_c, 10, 63, 24
12, 20199, Note_on_c, 10, 63, 0
12, 20400, Note_on_c, 10, 62, 24
12, 20439, Note_on_c, 10, 62, 0
12, 20640, Note_on_c, 10, 60, 24
12, 20679, Note_on_c, 10, 60, 0
12, 21120, Note_on_c, 10, 66, 24
12, 21599, Note_on_c, 10, 66, 0
12, 21600, Note_on_c, 10, 67, 20
12, 21719, Note_on_c, 10, 67, 0
12, 22080, Note_on_c, 10, 63, 16
12, 22259, Note_on_c, 10, 63, 0
12, 22260, Note_on_c, 10, 67, 19
12, 22319, Note_on_c, 10, 67, 0
12, 22320, Note_on_c, 10, 68, 20
12, 22559, Note_on_c, 10, 68, 0
12, 22559, Control_c, 10, 11, 46
12, 22560, Note_on_c, 10, 70, 35
12, 22561, Control_c, 10, 11, 47
12, 22577, Control_c, 10, 11, 48
12, 22593, Control_c, 10, 11, 49
12, 22609, Control_c, 10, 11, 50
12, 22625, Control_c, 10, 11, 51
12, 22641, Control_c, 10, 11, 52
12, 22657, Control_c, 10, 11, 53
12, 22673, Control_c, 10, 11, 54
12, 22689, Control_c, 10, 11, 55
12, 22705, Control_c, 10, 11, 56
12, 22721, Control_c, 10, 11, 58
12, 22737, Control_c, 10, 11, 60
12, 22753, Control_c, 10, 11, 62
12, 22769, Control_c, 10, 11, 64
12, 22785, Control_c, 10, 11, 66
12, 22801, Control_c, 10, 11, 68
12, 22817, Control_c, 10, 11, 70
12, 22833, Control_c, 10, 11, 72
12, 22849, Control_c, 10, 11, 74
12, 22865, Control_c, 10, 11, 76
12, 22881, Control_c, 10, 11, 79
12, 22897, Control_c, 10, 11, 82
12, 22913, Control_c, 10, 11, 85
12, 22929, Control_c, 10, 11, 88
12, 22945, Control_c, 10, 11, 91
12, 22961, Control_c, 10, 11, 94
12, 22977, Control_c, 10, 11, 97
12, 22993, Control_c, 10, 11, 100
12, 23009, Control_c, 10, 11, 103
12, 23025, Control_c, 10, 11, 106
12, 23041, Control_c, 10, 11, 110
12, 23057, Control_c, 10, 11, 114
12, 23073, Control_c, 10, 11, 118
12, 23079, Note_on_c, 10, 70, 0
12, 23089, Control_c, 10, 11, 122
12, 23105, Control_c, 10, 11, 126
12, 23159, Control_c, 10, 11, 127
12, 23160, Note_on_c, 10, 67, 30
12, 23199, Note_on_c, 10, 67, 0
12, 23280, Note_on_c, 10, 69, 25
12, 23319, Note_on_c, 10, 69, 0
12, 23400, Note_on_c, 10, 66, 20
12, 23439, Note_on_c, 10, 66, 0
12, 23760, Control_c, 10, 7, 97
12, 23880, Note_on_c, 10, 63, 24
12, 24119, Note_on_c, 10, 63, 0
12, 24120, Note_on_c, 10, 62, 23
12, 24239, Note_on_c, 10, 62, 0
12, 24240, Note_on_c, 10, 60, 23
12, 24479, Note_on_c, 10, 60, 0
12, 24480, Note_on_c, 10, 59, 23
12, 24599, Note_on_c, 10, 59, 0
12, 24840, Note_on_c, 10, 59, 23
12, 24959, Note_on_c, 10, 59, 0
12, 24960, Note_on_c, 10, 60, 23
12, 25079, Note_on_c, 10, 60, 0
12, 25080, Note_on_c, 10, 63, 20
12, 25319, Note_on_c, 10, 63, 0
12, 25320, Note_on_c, 10, 62, 19
12, 25439, Note_on_c, 10, 62, 0
12, 25440, Note_on_c, 10, 60, 19
12, 25559, Note_on_c, 10, 60, 0
12, 25800, Note_on_c, 10, 60, 19
12, 25919, Note_on_c, 10, 60, 0
12, 25920, Note_on_c, 10, 61, 19
12, 25959, Note_on_c, 10, 61, 0
12, 26040, Note_on_c, 10, 61, 20
12, 26079, Note_on_c, 10, 61, 0
12, 26160, Note_on_c, 10, 61, 24
12, 26199, Note_on_c, 10, 61, 0
12, 26280, Note_on_c, 10, 61, 26
12, 26319, Note_on_c, 10, 61, 0
12, 26340, Note_on_c, 10, 61, 27
12, 26369, Note_on_c, 10, 61, 0
12, 26370, Note_on_c, 10, 63, 27
12, 26399, Note_on_c, 10, 63, 0
12, 26400, Note_on_c, 10, 65, 28
12, 26519, Note_on_c, 10, 65, 0
12, 26520, Note_on_c, 10, 63, 19
12, 26579, Note_on_c, 10, 63, 0
12, 26580, Note_on_c, 10, 61, 19
12, 26639, Note_on_c, 10, 61, 0
12, 26640, Note_on_c, 10, 60, 19
12, 26679, Note_on_c, 10, 60, 0
12, 26760, Note_on_c, 10, 60, 16
12, 26799, Note_on_c, 10, 60, 0
12, 26820, Note_on_c, 10, 60, 23
12, 26849, Note_on_c, 10, 60, 0
12, 26850, Note_on_c, 10, 62, 24
12, 26879, Note_on_c, 10, 62, 0
12, 26880, Note_on_c, 10, 63, 28
12, 26999, Note_on_c, 10, 63, 0
12, 27000, Note_on_c, 10, 62, 19
12, 27039, Note_on_c, 10, 62, 0
12, 27060, Note_on_c, 10, 60, 19
12, 27099, Note_on_c, 10, 60, 0
12, 27120, Note_on_c, 10, 60, 19
12, 27239, Note_on_c, 10, 60, 0
12, 27240, Note_on_c, 10, 59, 19
12, 27359, Note_on_c, 10, 59, 0
12, 27360, Note_on_c, 10, 60, 19
12, 27479, Note_on_c, 10, 60, 0
12, 27720, Note_on_c, 10, 63, 19
12, 27959, Note_on_c, 10, 63, 0
12, 27960, Note_on_c, 10, 62, 21
12, 28079, Note_on_c, 10, 62, 0
12, 28080, Note_on_c, 10, 60, 21
12, 28319, Note_on_c, 10, 60, 0
12, 28320, Note_on_c, 10, 59, 21
12, 28439, Note_on_c, 10, 59, 0
12, 28680, Note_on_c, 10, 59, 31
12, 28799, Note_on_c, 10, 59, 0
12, 28800, Note_on_c, 10, 60, 21
12, 28919, Note_on_c, 10, 60, 0
12, 28920, Note_on_c, 10, 63, 19
12, 29159, Note_on_c, 10, 63, 0
12, 29160, Note_on_c, 10, 62, 18
12, 29279, Note_on_c, 10, 62, 0
12, 29280, Note_on_c, 10, 60, 18
12, 29399, Note_on_c, 10, 60, 0
12, 29640, Note_on_c, 10, 60, 18
12, 29759, Note_on_c, 10, 60, 0
12, 29760, Note_on_c, 10, 61, 18
12, 29799, Note_on_c, 10, 61, 0
12, 29880, Note_on_c, 10, 61, 19
12, 29919, Note_on_c, 10, 61, 0
12, 30000, Note_on_c, 10, 61, 22
12, 30039, Note_on_c, 10, 61, 0
12, 30120, Note_on_c, 10, 61, 24
12, 30159, Note_on_c, 10, 61, 0
12, 30180, Note_on_c, 10, 61, 25
12, 30209, Note_on_c, 10, 61, 0
12, 30210, Note_on_c, 10, 63, 25
12, 30239, Note_on_c, 10, 63, 0
12, 30240, Note_on_c, 10, 65, 26
12, 30359, Note_on_c, 10, 65, 0
12, 30360, Note_on_c, 10, 63, 18
12, 30419, Note_on_c, 10, 63, 0
12, 30420, Note_on_c, 10, 61, 18
12, 30479, Note_on_c, 10, 61, 0
12, 30480, Note_on_c, 10, 60, 18
12, 30519, Note_on_c, 10, 60, 0
12, 30600, Note_on_c, 10, 60, 15
12, 30639, Note_on_c, 10, 60, 0
12, 30660, Note_on_c, 10, 60, 21
12, 30689, Note_on_c, 10, 60, 0
12, 30690, Note_on_c, 10, 62, 22
12, 30719, Note_on_c, 10, 62, 0
12, 30720, Note_on_c, 10, 63, 26
12, 30839, Note_on_c, 10, 63, 0
12, 30840, Note_on_c, 10, 62, 18
12, 30879, Note_on_c, 10, 62, 0
12, 30900, Note_on_c, 10, 60, 18
12, 30939, Note_on_c, 10, 60, 0
12, 30960, Note_on_c, 10, 60, 18
12, 31079, Note_on_c, 10, 60, 0
12, 31080, Note_on_c, 10, 59, 18
12, 31199, Note_on_c, 10, 59, 0
12, 31200, Note_on_c, 10, 60, 18
12, 31319, Note_on_c, 10, 60, 0
12, 35040, Control_c, 10, 7, 107
12, 35520, Note_on_c, 10, 60, 44
12, 35579, Note_on_c, 10, 60, 0
12, 35760, Note_on_c, 10, 59, 44
12, 35819, Note_on_c, 10, 59, 0
12, 36000, Note_on_c, 10, 60, 44
12, 36059, Note_on_c, 10, 60, 0
12, 36360, Note_on_c, 10, 62, 44
12, 36419, Note_on_c, 10, 62, 0
12, 36480, Note_on_c, 10, 60, 44
12, 36959, Note_on_c, 10, 60, 0
12, 36960, Note_on_c, 10, 59, 34
12, 37079, Note_on_c, 10, 59, 0
12, 37350, Note_on_c, 10, 67, 32
12, 37409, Note_on_c, 10, 67, 0
12, 37440, Note_on_c, 10, 67, 33
12, 37559, Note_on_c, 10, 67, 0
12, 37560, Note_on_c, 10, 65, 35
12, 37619, Note_on_c, 10, 65, 0
12, 37620, Note_on_c, 10, 63, 36
12, 37679, Note_on_c, 10, 63, 0
12, 37680, Note_on_c, 10, 62, 37
12, 37739, Note_on_c, 10, 62, 0
12, 37740, Note_on_c, 10, 60, 38
12, 37799, Note_on_c, 10, 60, 0
12, 37800, Note_on_c, 10, 58, 39
12, 37859, Note_on_c, 10, 58, 0
12, 37860, Note_on_c, 10, 56, 40
12, 37919, Note_on_c, 10, 56, 0
12, 37920, Note_on_c, 10, 55, 40
12, 38099, Note_on_c, 10, 55, 0
12, 38160, Note_on_c, 10, 67, 44
12, 38399, Note_on_c, 10, 67, 0
12, 38400, Note_on_c, 10, 70, 48
12, 38459, Note_on_c, 10, 70, 0
12, 38520, Note_on_c, 10, 58, 44
12, 38759, Note_on_c, 10, 58, 0
12, 38760, Note_on_c, 10, 60, 44
12, 38879, Note_on_c, 10, 60, 0
12, 38880, Note_on_c, 10, 58, 34
12, 38969, Note_on_c, 10, 58, 0
12, 43080, Note_on_c, 10, 63, 33
12, 43199, Note_on_c, 10, 63, 0
12, 43200, Note_on_c, 10, 62, 33
12, 43439, Note_on_c, 10, 62, 0
12, 43440, Note_on_c, 10, 60, 31
12, 43679, Note_on_c, 10, 60, 0
12, 43680, Note_on_c, 10, 59, 29
12, 43799, Note_on_c, 10, 59, 0
12, 44040, Note_on_c, 10, 59, 33
12, 44159, Note_on_c, 10, 59, 0
12, 44160, Note_on_c, 10, 60, 32
12, 44279, Note_on_c, 10, 60, 0
12, 44280, Note_on_c, 10, 61, 31
12, 44399, Note_on_c, 10, 61, 0
12, 44400, Note_on_c, 10, 62, 31
12, 44639, Note_on_c, 10, 62, 0
12, 44640, Note_on_c, 10, 60, 29
12, 44759, Note_on_c, 10, 60, 0
12, 44999, Control_c, 10, 11, 66
12, 45000, Note_on_c, 10, 72, 55
12, 45001, Control_c, 10, 11, 67
12, 45008, Control_c, 10, 11, 68
12, 45015, Control_c, 10, 11, 69
12, 45022, Control_c, 10, 11, 70
12, 45029, Control_c, 10, 11, 71
12, 45036, Control_c, 10, 11, 72
12, 45043, Control_c, 10, 11, 73
12, 45050, Control_c, 10, 11, 74
12, 45057, Control_c, 10, 11, 75
12, 45064, Control_c, 10, 11, 76
12, 45071, Control_c, 10, 11, 77
12, 45078, Control_c, 10, 11, 78
12, 45085, Control_c, 10, 11, 80
12, 45092, Control_c, 10, 11, 82
12, 45099, Control_c, 10, 11, 84
12, 45106, Control_c, 10, 11, 86
12, 45113, Control_c, 10, 11, 88
12, 45120, Control_c, 10, 11, 90
12, 45127, Control_c, 10, 11, 92
12, 45134, Control_c, 10, 11, 94
12, 45141, Control_c, 10, 11, 96
12, 45148, Control_c, 10, 11, 98
12, 45155, Control_c, 10, 11, 100
12, 45162, Control_c, 10, 11, 103
12, 45169, Control_c, 10, 11, 106
12, 45176, Control_c, 10, 11, 109
12, 45183, Control_c, 10, 11, 112
12, 45190, Control_c, 10, 11, 115
12, 45197, Control_c, 10, 11, 118
12, 45204, Control_c, 10, 11, 121
12, 45211, Control_c, 10, 11, 124
12, 45218, Control_c, 10, 11, 127
12, 45239, Note_on_c, 10, 72, 0
12, 45239, Control_c, 10, 11, 127
12, 45240, Note_on_c, 10, 70, 47
12, 45299, Note_on_c, 10, 70, 0
12, 45300, Note_on_c, 10, 68, 46
12, 45359, Note_on_c, 10, 68, 0
12, 45360, Note_on_c, 10, 67, 45
12, 45419, Note_on_c, 10, 67, 0
12, 45420, Note_on_c, 10, 65, 44
12, 45479, Note_on_c, 10, 65, 0
12, 45480, Note_on_c, 10, 63, 42
12, 45539, Note_on_c, 10, 63, 0
12, 45540, Note_on_c, 10, 61, 41
12, 45599, Note_on_c, 10, 61, 0
12, 45600, Note_on_c, 10, 60, 40
12, 45839, Note_on_c, 10, 60, 0
12, 45840, Note_on_c, 10, 72, 33
12, 46079, Note_on_c, 10, 72, 0
12, 46080, Note_on_c, 10, 75, 33
12, 46199, Note_on_c, 10, 75, 0
12, 46200, Note_on_c, 10, 63, 33
12, 46439, Note_on_c, 10, 63, 0
12, 46440, Note_on_c, 10, 62, 29
12, 46559, Note_on_c, 10, 62, 0
12, 50400, Control_c, 10, 7, 127
12, 50850, Control_c, 10, 0, 0
12, 50851, Control_c, 10, 32, 0
12, 50852, Program_c, 10, 48
12, 50880, Note_on_c, 10, 60, 81
12, 50905, Note_on_c, 10, 60, 0
12, 50910, Note_on_c, 10, 62, 69
12, 50935, Note_on_c, 10, 62, 0
12, 50940, Note_on_c, 10, 63, 69
12, 50965, Note_on_c, 10, 63, 0
12, 50970, Note_on_c, 10, 65, 69
12, 50995, Note_on_c, 10, 65, 0
12, 51000, Note_on_c, 10, 67, 69
12, 51025, Note_on_c, 10, 67, 0
12, 51030, Note_on_c, 10, 69, 69
12, 51055, Note_on_c, 10, 69, 0
12, 51060, Note_on_c, 10, 71, 69
12, 51085, Note_on_c, 10, 71, 0
12, 51090, Note_on_c, 10, 72, 69
12, 51115, Note_on_c, 10, 72, 0
12, 51120, Note_on_c, 10, 71, 81
12, 51145, Note_on_c, 10, 71, 0
12, 51150, Note_on_c, 10, 72, 69
12, 51175, Note_on_c, 10, 72, 0
12, 51180, Note_on_c, 10, 71, 69
12, 51205, Note_on_c, 10, 71, 0
12, 51210, Note_on_c, 10, 68, 69
12, 51235, Note_on_c, 10, 68, 0
12, 51240, Note_on_c, 10, 67, 69
12, 51265, Note_on_c, 10, 67, 0
12, 51270, Note_on_c, 10, 65, 69
12, 51295, Note_on_c, 10, 65, 0
12, 51300, Note_on_c, 10, 63, 69
12, 51325, Note_on_c, 10, 63, 0
12, 51330, Note_on_c, 10, 62, 69
12, 51355, Note_on_c, 10, 62, 0
12, 51360, Note_on_c, 10, 67, 81
12, 51385, Note_on_c, 10, 67, 0
12, 51390, Note_on_c, 10, 68, 69
12, 51415, Note_on_c, 10, 68, 0
12, 51420, Note_on_c, 10, 67, 69
12, 51445, Note_on_c, 10, 67, 0
12, 51450, Note_on_c, 10, 65, 69
12, 51475, Note_on_c, 10, 65, 0
12, 51480, Note_on_c, 10, 67, 69
12, 51505, Note_on_c, 10, 67, 0
12, 51510, Note_on_c, 10, 65, 69
12, 51535, Note_on_c, 10, 65, 0
12, 51540, Note_on_c, 10, 63, 69
12, 51565, Note_on_c, 10, 63, 0
12, 51570, Note_on_c, 10, 62, 69
12, 51595, Note_on_c, 10, 62, 0
12, 51600, Note_on_c, 10, 63, 81
12, 51625, Note_on_c, 10, 63, 0
12, 51630, Note_on_c, 10, 65, 69
12, 51655, Note_on_c, 10, 65, 0
12, 51660, Note_on_c, 10, 63, 69
12, 51685, Note_on_c, 10, 63, 0
12, 51690, Note_on_c, 10, 62, 69
12, 51715, Note_on_c, 10, 62, 0
12, 51720, Note_on_c, 10, 63, 69
12, 51745, Note_on_c, 10, 63, 0
12, 51750, Note_on_c, 10, 62, 69
12, 51775, Note_on_c, 10, 62, 0
12, 51780, Note_on_c, 10, 60, 69
12, 51805, Note_on_c, 10, 60, 0
12, 51810, Note_on_c, 10, 59, 69
12, 51835, Note_on_c, 10, 59, 0
12, 51840, Note_on_c, 10, 60, 69
12, 51891, Note_on_c, 10, 60, 0
12, 51900, Note_on_c, 10, 62, 69
12, 51925, Note_on_c, 10, 62, 0
12, 51930, Note_on_c, 10, 63, 69
12, 51955, Note_on_c, 10, 63, 0
12, 51960, Note_on_c, 10, 65, 69
12, 51985, Note_on_c, 10, 65, 0
12, 51990, Note_on_c, 10, 67, 69
12, 52015, Note_on_c, 10, 67, 0
12, 52020, Note_on_c, 10, 68, 69
12, 52045, Note_on_c, 10, 68, 0
12, 52050, Note_on_c, 10, 70, 69
12, 52075, Note_on_c, 10, 70, 0
12, 52080, Note_on_c, 10, 72, 81
12, 52105, Note_on_c, 10, 72, 0
12, 52110, Note_on_c, 10, 74, 69
12, 52135, Note_on_c, 10, 74, 0
12, 52140, Note_on_c, 10, 72, 69
12, 52165, Note_on_c, 10, 72, 0
12, 52170, Note_on_c, 10, 71, 69
12, 52195, Note_on_c, 10, 71, 0
12, 52200, Note_on_c, 10, 72, 69
12, 52225, Note_on_c, 10, 72, 0
12, 52230, Note_on_c, 10, 74, 69
12, 52255, Note_on_c, 10, 74, 0
12, 52260, Note_on_c, 10, 75, 69
12, 52285, Note_on_c, 10, 75, 0
12, 52290, Note_on_c, 10, 72, 69
12, 52315, Note_on_c, 10, 72, 0
12, 52320, Note_on_c, 10, 71, 81
12, 52345, Note_on_c, 10, 71, 0
12, 52350, Note_on_c, 10, 72, 69
12, 52375, Note_on_c, 10, 72, 0
12, 52380, Note_on_c, 10, 74, 69
12, 52405, Note_on_c, 10, 74, 0
12, 52410, Note_on_c, 10, 72, 69
12, 52435, Note_on_c, 10, 72, 0
12, 52440, Note_on_c, 10, 71, 69
12, 52465, Note_on_c, 10, 71, 0
12, 52470, Note_on_c, 10, 69, 69
12, 52495, Note_on_c, 10, 69, 0
12, 52500, Note_on_c, 10, 67, 69
12, 52525, Note_on_c, 10, 67, 0
12, 52530, Note_on_c, 10, 66, 69
12, 52555, Note_on_c, 10, 66, 0
12, 52560, Note_on_c, 10, 67, 69
12, 52585, Note_on_c, 10, 67, 0
12, 52590, Note_on_c, 10, 65, 69
12, 52615, Note_on_c, 10, 65, 0
12, 52620, Note_on_c, 10, 64, 69
12, 52645, Note_on_c, 10, 64, 0
12, 52650, Note_on_c, 10, 62, 69
12, 52675, Note_on_c, 10, 62, 0
12, 52680, Note_on_c, 10, 60, 69
12, 52705, Note_on_c, 10, 60, 0
12, 52710, Note_on_c, 10, 59, 69
12, 52735, Note_on_c, 10, 59, 0
12, 52740, Note_on_c, 10, 57, 69
12, 52765, Note_on_c, 10, 57, 0
12, 52770, Note_on_c, 10, 55, 69
12, 52795, Note_on_c, 10, 55, 0
12, 52800, Note_on_c, 10, 60, 81
12, 52825, Note_on_c, 10, 60, 0
12, 52830, Note_on_c, 10, 61, 69
12, 52855, Note_on_c, 10, 61, 0
12, 52860, Note_on_c, 10, 63, 69
12, 52885, Note_on_c, 10, 63, 0
12, 52890, Note_on_c, 10, 61, 69
12, 52915, Note_on_c, 10, 61, 0
12, 52920, Note_on_c, 10, 60, 69
12, 52945, Note_on_c, 10, 60, 0
12, 52950, Note_on_c, 10, 61, 69
12, 52975, Note_on_c, 10, 61, 0
12, 52980, Note_on_c, 10, 63, 69
12, 53005, Note_on_c, 10, 63, 0
12, 53010, Note_on_c, 10, 61, 69
12, 53035, Note_on_c, 10, 61, 0
12, 53040, Note_on_c, 10, 60, 81
12, 53065, Note_on_c, 10, 60, 0
12, 53070, Note_on_c, 10, 61, 69
12, 53095, Note_on_c, 10, 61, 0
12, 53100, Note_on_c, 10, 63, 69
12, 53125, Note_on_c, 10, 63, 0
12, 53130, Note_on_c, 10, 61, 69
12, 53155, Note_on_c, 10, 61, 0
12, 53160, Note_on_c, 10, 60, 69
12, 53185, Note_on_c, 10, 60, 0
12, 53190, Note_on_c, 10, 61, 69
12, 53215, Note_on_c, 10, 61, 0
12, 53220, Note_on_c, 10, 63, 69
12, 53245, Note_on_c, 10, 63, 0
12, 53250, Note_on_c, 10, 60, 69
12, 53275, Note_on_c, 10, 60, 0
12, 53280, Note_on_c, 10, 58, 81
12, 53305, Note_on_c, 10, 58, 0
12, 53310, Note_on_c, 10, 57, 69
12, 53335, Note_on_c, 10, 57, 0
12, 53340, Note_on_c, 10, 55, 69
12, 53365, Note_on_c, 10, 55, 0
12, 53370, Note_on_c, 10, 57, 69
12, 53395, Note_on_c, 10, 57, 0
12, 53400, Note_on_c, 10, 58, 69
12, 53425, Note_on_c, 10, 58, 0
12, 53430, Note_on_c, 10, 57, 69
12, 53455, Note_on_c, 10, 57, 0
12, 53460, Note_on_c, 10, 55, 69
12, 53485, Note_on_c, 10, 55, 0
12, 53490, Note_on_c, 10, 57, 69
12, 53515, Note_on_c, 10, 57, 0
12, 53520, Note_on_c, 10, 58, 81
12, 53545, Note_on_c, 10, 58, 0
12, 53550, Note_on_c, 10, 57, 69
12, 53575, Note_on_c, 10, 57, 0
12, 53580, Note_on_c, 10, 55, 69
12, 53605, Note_on_c, 10, 55, 0
12, 53610, Note_on_c, 10, 57, 69
12, 53635, Note_on_c, 10, 57, 0
12, 53640, Note_on_c, 10, 58, 69
12, 53665, Note_on_c, 10, 58, 0
12, 53670, Note_on_c, 10, 57, 69
12, 53695, Note_on_c, 10, 57, 0
12, 53700, Note_on_c, 10, 55, 69
12, 53725, Note_on_c, 10, 55, 0
12, 53730, Note_on_c, 10, 57, 69
12, 53755, Note_on_c, 10, 57, 0
12, 53760, Note_on_c, 10, 58, 81
12, 53785, Note_on_c, 10, 58, 0
12, 53790, Note_on_c, 10, 60, 69
12, 53815, Note_on_c, 10, 60, 0
12, 53820, Note_on_c, 10, 62, 69
12, 53845, Note_on_c, 10, 62, 0
12, 53850, Note_on_c, 10, 64, 69
12, 53875, Note_on_c, 10, 64, 0
12, 53880, Note_on_c, 10, 66, 69
12, 53905, Note_on_c, 10, 66, 0
12, 53910, Note_on_c, 10, 67, 69
12, 53935, Note_on_c, 10, 67, 0
12, 53940, Note_on_c, 10, 69, 69
12, 53965, Note_on_c, 10, 69, 0
12, 53970, Note_on_c, 10, 70, 69
12, 53995, Note_on_c, 10, 70, 0
12, 54000, Note_on_c, 10, 69, 81
12, 54025, Note_on_c, 10, 69, 0
12, 54030, Note_on_c, 10, 70, 69
12, 54055, Note_on_c, 10, 70, 0
12, 54060, Note_on_c, 10, 69, 69
12, 54085, Note_on_c, 10, 69, 0
12, 54090, Note_on_c, 10, 67, 69
12, 54115, Note_on_c, 10, 67, 0
12, 54120, Note_on_c, 10, 66, 69
12, 54145, Note_on_c, 10, 66, 0
12, 54150, Note_on_c, 10, 63, 69
12, 54175, Note_on_c, 10, 63, 0
12, 54180, Note_on_c, 10, 62, 69
12, 54205, Note_on_c, 10, 62, 0
12, 54210, Note_on_c, 10, 60, 69
12, 54235, Note_on_c, 10, 60, 0
12, 54240, Note_on_c, 10, 58, 69
12, 54400, Note_on_c, 10, 58, 0
12, 58440, Note_on_c, 10, 75, 70
12, 58475, Note_on_c, 10, 75, 0
12, 58530, Note_on_c, 10, 75, 70
12, 58555, Note_on_c, 10, 75, 0
12, 58560, Note_on_c, 10, 74, 79
12, 58585, Note_on_c, 10, 74, 0
12, 58590, Note_on_c, 10, 72, 79
12, 58615, Note_on_c, 10, 72, 0
12, 58620, Note_on_c, 10, 71, 79
12, 58645, Note_on_c, 10, 71, 0
12, 58650, Note_on_c, 10, 69, 79
12, 58675, Note_on_c, 10, 69, 0
12, 58680, Note_on_c, 10, 67, 79
12, 58705, Note_on_c, 10, 67, 0
12, 58710, Note_on_c, 10, 65, 79
12, 58735, Note_on_c, 10, 65, 0
12, 58740, Note_on_c, 10, 63, 79
12, 58765, Note_on_c, 10, 63, 0
12, 58770, Note_on_c, 10, 62, 79
12, 58795, Note_on_c, 10, 62, 0
12, 58800, Note_on_c, 10, 60, 79
12, 58825, Note_on_c, 10, 60, 0
12, 58830, Note_on_c, 10, 62, 79
12, 58855, Note_on_c, 10, 62, 0
12, 58860, Note_on_c, 10, 64, 79
12, 58885, Note_on_c, 10, 64, 0
12, 58890, Note_on_c, 10, 65, 79
12, 58915, Note_on_c, 10, 65, 0
12, 58920, Note_on_c, 10, 67, 79
12, 58945, Note_on_c, 10, 67, 0
12, 58950, Note_on_c, 10, 69, 79
12, 58975, Note_on_c, 10, 69, 0
12, 58980, Note_on_c, 10, 71, 79
12, 59005, Note_on_c, 10, 71, 0
12, 59010, Note_on_c, 10, 72, 79
12, 59035, Note_on_c, 10, 72, 0
12, 59040, Note_on_c, 10, 71, 79
12, 59065, Note_on_c, 10, 71, 0
12, 59070, Note_on_c, 10, 72, 79
12, 59095, Note_on_c, 10, 72, 0
12, 59100, Note_on_c, 10, 74, 79
12, 59125, Note_on_c, 10, 74, 0
12, 59130, Note_on_c, 10, 72, 79
12, 59155, Note_on_c, 10, 72, 0
12, 59160, Note_on_c, 10, 71, 79
12, 59185, Note_on_c, 10, 71, 0
12, 59190, Note_on_c, 10, 69, 79
12, 59215, Note_on_c, 10, 69, 0
12, 59220, Note_on_c, 10, 67, 79
12, 59245, Note_on_c, 10, 67, 0
12, 59250, Note_on_c, 10, 66, 79
12, 59275, Note_on_c, 10, 66, 0
12, 59280, Note_on_c, 10, 67, 79
12, 59305, Note_on_c, 10, 67, 0
12, 59310, Note_on_c, 10, 69, 79
12, 59335, Note_on_c, 10, 69, 0
12, 59340, Note_on_c, 10, 71, 79
12, 59365, Note_on_c, 10, 71, 0
12, 59370, Note_on_c, 10, 72, 79
12, 59395, Note_on_c, 10, 72, 0
12, 59400, Note_on_c, 10, 71, 79
12, 59425, Note_on_c, 10, 71, 0
12, 59430, Note_on_c, 10, 72, 79
12, 59455, Note_on_c, 10, 72, 0
12, 59460, Note_on_c, 10, 74, 79
12, 59485, Note_on_c, 10, 74, 0
12, 59490, Note_on_c, 10, 71, 79
12, 59515, Note_on_c, 10, 71, 0
12, 59520, Note_on_c, 10, 72, 79
12, 59545, Note_on_c, 10, 72, 0
12, 59550, Note_on_c, 10, 70, 79
12, 59575, Note_on_c, 10, 70, 0
12, 59580, Note_on_c, 10, 68, 79
12, 59605, Note_on_c, 10, 68, 0
12, 59610, Note_on_c, 10, 67, 79
12, 59635, Note_on_c, 10, 67, 0
12, 59640, Note_on_c, 10, 65, 79
12, 59665, Note_on_c, 10, 65, 0
12, 59670, Note_on_c, 10, 63, 79
12, 59695, Note_on_c, 10, 63, 0
12, 59700, Note_on_c, 10, 62, 79
12, 59725, Note_on_c, 10, 62, 0
12, 59730, Note_on_c, 10, 60, 79
12, 59755, Note_on_c, 10, 60, 0
12, 59760, Note_on_c, 10, 59, 79
12, 59785, Note_on_c, 10, 59, 0
12, 59790, Note_on_c, 10, 60, 79
12, 59815, Note_on_c, 10, 60, 0
12, 59820, Note_on_c, 10, 62, 79
12, 59845, Note_on_c, 10, 62, 0
12, 59850, Note_on_c, 10, 63, 79
12, 59875, Note_on_c, 10, 63, 0
12, 59880, Note_on_c, 10, 65, 79
12, 59905, Note_on_c, 10, 65, 0
12, 59910, Note_on_c, 10, 67, 79
12, 59935, Note_on_c, 10, 67, 0
12, 59940, Note_on_c, 10, 69, 79
12, 59965, Note_on_c, 10, 69, 0
12, 59970, Note_on_c, 10, 71, 79
12, 59995, Note_on_c, 10, 71, 0
12, 60000, Note_on_c, 10, 72, 79
12, 60025, Note_on_c, 10, 72, 0
12, 60030, Note_on_c, 10, 74, 79
12, 60055, Note_on_c, 10, 74, 0
12, 60060, Note_on_c, 10, 75, 79
12, 60085, Note_on_c, 10, 75, 0
12, 60090, Note_on_c, 10, 77, 79
12, 60115, Note_on_c, 10, 77, 0
12, 60120, Note_on_c, 10, 79, 79
12, 60145, Note_on_c, 10, 79, 0
12, 60150, Note_on_c, 10, 77, 79
12, 60175, Note_on_c, 10, 77, 0
12, 60180, Note_on_c, 10, 75, 79
12, 60205, Note_on_c, 10, 75, 0
12, 60210, Note_on_c, 10, 74, 79
12, 60235, Note_on_c, 10, 74, 0
12, 60240, Note_on_c, 10, 72, 79
12, 60265, Note_on_c, 10, 72, 0
12, 60270, Note_on_c, 10, 70, 79
12, 60295, Note_on_c, 10, 70, 0
12, 60300, Note_on_c, 10, 68, 79
12, 60325, Note_on_c, 10, 68, 0
12, 60330, Note_on_c, 10, 67, 79
12, 60355, Note_on_c, 10, 67, 0
12, 60360, Note_on_c, 10, 65, 79
12, 60385, Note_on_c, 10, 65, 0
12, 60390, Note_on_c, 10, 63, 79
12, 60415, Note_on_c, 10, 63, 0
12, 60420, Note_on_c, 10, 62, 79
12, 60445, Note_on_c, 10, 62, 0
12, 60450, Note_on_c, 10, 60, 79
12, 60475, Note_on_c, 10, 60, 0
12, 60480, Note_on_c, 10, 65, 61
12, 60505, Note_on_c, 10, 65, 0
12, 60510, Note_on_c, 10, 66, 61
12, 60535, Note_on_c, 10, 66, 0
12, 60540, Note_on_c, 10, 68, 62
12, 60565, Note_on_c, 10, 68, 0
12, 60570, Note_on_c, 10, 66, 62
12, 60595, Note_on_c, 10, 66, 0
12, 60600, Note_on_c, 10, 65, 63
12, 60625, Note_on_c, 10, 65, 0
12, 60630, Note_on_c, 10, 66, 63
12, 60655, Note_on_c, 10, 66, 0
12, 60660, Note_on_c, 10, 68, 63
12, 60685, Note_on_c, 10, 68, 0
12, 60690, Note_on_c, 10, 66, 64
12, 60715, Note_on_c, 10, 66, 0
12, 60720, Note_on_c, 10, 65, 65
12, 60745, Note_on_c, 10, 65, 0
12, 60750, Note_on_c, 10, 66, 65
12, 60775, Note_on_c, 10, 66, 0
12, 60780, Note_on_c, 10, 68, 66
12, 60805, Note_on_c, 10, 68, 0
12, 60810, Note_on_c, 10, 66, 66
12, 60835, Note_on_c, 10, 66, 0
12, 60840, Note_on_c, 10, 65, 67
12, 60865, Note_on_c, 10, 65, 0
12, 60870, Note_on_c, 10, 66, 68
12, 60895, Note_on_c, 10, 66, 0
12, 60900, Note_on_c, 10, 68, 68
12, 60925, Note_on_c, 10, 68, 0
12, 60930, Note_on_c, 10, 65, 69
12, 60955, Note_on_c, 10, 65, 0
12, 60960, Note_on_c, 10, 63, 70
12, 60985, Note_on_c, 10, 63, 0
12, 60990, Note_on_c, 10, 62, 70
12, 61015, Note_on_c, 10, 62, 0
12, 61020, Note_on_c, 10, 60, 71
12, 61045, Note_on_c, 10, 60, 0
12, 61050, Note_on_c, 10, 62, 71
12, 61075, Note_on_c, 10, 62, 0
12, 61080, Note_on_c, 10, 63, 72
12, 61105, Note_on_c, 10, 63, 0
12, 61110, Note_on_c, 10, 62, 72
12, 61135, Note_on_c, 10, 62, 0
12, 61140, Note_on_c, 10, 60, 72
12, 61165, Note_on_c, 10, 60, 0
12, 61170, Note_on_c, 10, 62, 73
12, 61195, Note_on_c, 10, 62, 0
12, 61200, Note_on_c, 10, 63, 74
12, 61225, Note_on_c, 10, 63, 0
12, 61230, Note_on_c, 10, 62, 74
12, 61255, Note_on_c, 10, 62, 0
12, 61260, Note_on_c, 10, 60, 75
12, 61285, Note_on_c, 10, 60, 0
12, 61290, Note_on_c, 10, 62, 75
12, 61315, Note_on_c, 10, 62, 0
12, 61320, Note_on_c, 10, 63, 76
12, 61345, Note_on_c, 10, 63, 0
12, 61350, Note_on_c, 10, 62, 77
12, 61375, Note_on_c, 10, 62, 0
12, 61380, Note_on_c, 10, 60, 77
12, 61405, Note_on_c, 10, 60, 0
12, 61410, Note_on_c, 10, 62, 78
12, 61435, Note_on_c, 10, 62, 0
12, 61440, Note_on_c, 10, 63, 79
12, 61465, Note_on_c, 10, 63, 0
12, 61470, Note_on_c, 10, 65, 79
12, 61495, Note_on_c, 10, 65, 0
12, 61500, Note_on_c, 10, 67, 79
12, 61525, Note_on_c, 10, 67, 0
12, 61530, Note_on_c, 10, 65, 79
12, 61555, Note_on_c, 10, 65, 0
12, 61560, Note_on_c, 10, 63, 79
12, 61585, Note_on_c, 10, 63, 0
12, 61590, Note_on_c, 10, 65, 79
12, 61615, Note_on_c, 10, 65, 0
12, 61620, Note_on_c, 10, 67, 79
12, 61645, Note_on_c, 10, 67, 0
12, 61650, Note_on_c, 10, 63, 79
12, 61675, Note_on_c, 10, 63, 0
12, 61680, Note_on_c, 10, 62, 79
12, 61705, Note_on_c, 10, 62, 0
12, 61710, Note_on_c, 10, 63, 79
12, 61735, Note_on_c, 10, 63, 0
12, 61740, Note_on_c, 10, 65, 79
12, 61765, Note_on_c, 10, 65, 0
12, 61770, Note_on_c, 10, 63, 79
12, 61795, Note_on_c, 10, 63, 0
12, 61800, Note_on_c, 10, 62, 79
12, 61825, Note_on_c, 10, 62, 0
12, 61830, Note_on_c, 10, 63, 79
12, 61855, Note_on_c, 10, 63, 0
12, 61860, Note_on_c, 10, 65, 79
12, 61885, Note_on_c, 10, 65, 0
12, 61890, Note_on_c, 10, 62, 79
12, 61915, Note_on_c, 10, 62, 0
12, 61920, Note_on_c, 10, 60, 79
12, 61979, Note_on_c, 10, 60, 0
12, 66240, Note_on_c, 10, 56, 24
12, 66269, Note_on_c, 10, 56, 0
12, 66360, Note_on_c, 10, 56, 24
12, 66389, Note_on_c, 10, 56, 0
12, 66480, Note_on_c, 10, 55, 24
12, 66509, Note_on_c, 10, 55, 0
12, 66600, Note_on_c, 10, 55, 25
12, 66629, Note_on_c, 10, 55, 0
12, 66720, Note_on_c, 10, 56, 25
12, 66749, Note_on_c, 10, 56, 0
12, 66840, Note_on_c, 10, 56, 35
12, 67079, Note_on_c, 10, 56, 0
12, 67080, Note_on_c, 10, 57, 26
12, 67109, Note_on_c, 10, 57, 0
12, 67200, Note_on_c, 10, 58, 26
12, 67229, Note_on_c, 10, 58, 0
12, 67320, Note_on_c, 10, 56, 27
12, 67349, Note_on_c, 10, 56, 0
12, 67440, Note_on_c, 10, 58, 27
12, 67469, Note_on_c, 10, 58, 0
12, 67560, Note_on_c, 10, 58, 27
12, 67589, Note_on_c, 10, 58, 0
12, 67680, Note_on_c, 10, 58, 28
12, 67709, Note_on_c, 10, 58, 0
12, 67800, Note_on_c, 10, 63, 38
12, 68039, Note_on_c, 10, 63, 0
12, 68040, Note_on_c, 10, 62, 29
12, 68069, Note_on_c, 10, 62, 0
12, 68160, Note_on_c, 10, 63, 29
12, 68189, Note_on_c, 10, 63, 0
12, 68280, Note_on_c, 10, 62, 29
12, 68309, Note_on_c, 10, 62, 0
12, 68400, Note_on_c, 10, 63, 30
12, 68429, Note_on_c, 10, 63, 0
12, 68520, Note_on_c, 10, 58, 30
12, 68549, Note_on_c, 10, 58, 0
12, 68640, Note_on_c, 10, 56, 30
12, 68669, Note_on_c, 10, 56, 0
12, 68760, Note_on_c, 10, 72, 32
12, 68999, Note_on_c, 10, 72, 0
12, 69000, Note_on_c, 10, 68, 31
12, 69029, Note_on_c, 10, 68, 0
12, 69120, Note_on_c, 10, 63, 28
12, 69149, Note_on_c, 10, 63, 0
12, 69240, Note_on_c, 10, 65, 28
12, 69269, Note_on_c, 10, 65, 0
12, 69360, Note_on_c, 10, 63, 28
12, 69389, Note_on_c, 10, 63, 0
12, 69480, Note_on_c, 10, 62, 27
12, 69509, Note_on_c, 10, 62, 0
12, 69600, Note_on_c, 10, 62, 22
12, 69719, Note_on_c, 10, 62, 0
12, 73800, Note_on_c, 10, 60, 28
12, 73889, Note_on_c, 10, 60, 0
12, 73890, Note_on_c, 10, 61, 28
12, 73919, Note_on_c, 10, 61, 0
12, 73920, Note_on_c, 10, 58, 28
12, 73949, Note_on_c, 10, 58, 0
12, 74040, Note_on_c, 10, 58, 28
12, 74069, Note_on_c, 10, 58, 0
12, 74160, Note_on_c, 10, 56, 28
12, 74189, Note_on_c, 10, 56, 0
12, 74280, Note_on_c, 10, 56, 28
12, 74309, Note_on_c, 10, 56, 0
12, 74400, Note_on_c, 10, 55, 28
12, 74429, Note_on_c, 10, 55, 0
12, 74520, Note_on_c, 10, 55, 38
12, 74759, Note_on_c, 10, 55, 0
12, 74760, Note_on_c, 10, 56, 28
12, 74849, Note_on_c, 10, 56, 0
12, 74850, Note_on_c, 10, 58, 28
12, 74879, Note_on_c, 10, 58, 0
12, 74880, Note_on_c, 10, 60, 28
12, 74909, Note_on_c, 10, 60, 0
12, 75000, Note_on_c, 10, 60, 28
12, 75029, Note_on_c, 10, 60, 0
12, 75120, Note_on_c, 10, 58, 28
12, 75149, Note_on_c, 10, 58, 0
12, 75240, Note_on_c, 10, 58, 28
12, 75269, Note_on_c, 10, 58, 0
12, 75360, Note_on_c, 10, 56, 28
12, 75389, Note_on_c, 10, 56, 0
12, 75480, Note_on_c, 10, 57, 38
12, 75719, Note_on_c, 10, 57, 0
12, 75720, Note_on_c, 10, 58, 28
12, 75809, Note_on_c, 10, 58, 0
12, 75810, Note_on_c, 10, 60, 28
12, 75839, Note_on_c, 10, 60, 0
12, 75840, Note_on_c, 10, 61, 28
12, 75869, Note_on_c, 10, 61, 0
12, 75960, Note_on_c, 10, 55, 38
12, 76200, Note_on_c, 10, 56, 28
12, 76229, Note_on_c, 10, 55, 0
12, 76259, Note_on_c, 10, 56, 0
12, 76290, Note_on_c, 10, 58, 28
12, 76319, Note_on_c, 10, 58, 0
12, 76320, Note_on_c, 10, 56, 28
12, 76829, Note_on_c, 10, 56, 0
12, 76860, Note_on_c, 10, 56, 28
12, 76919, Note_on_c, 10, 56, 0
12, 76920, Note_on_c, 10, 58, 28
12, 76979, Note_on_c, 10, 58, 0
12, 76980, Note_on_c, 10, 60, 28
12, 77019, Note_on_c, 10, 60, 0
12, 77040, Note_on_c, 10, 60, 28
12, 77099, Note_on_c, 10, 60, 0
12, 77100, Note_on_c, 10, 58, 28
12, 77159, Note_on_c, 10, 58, 0
12, 77160, Note_on_c, 10, 56, 28
12, 77219, Note_on_c, 10, 56, 0
12, 77220, Note_on_c, 10, 55, 28
12, 77249, Note_on_c, 10, 55, 0
12, 77280, Note_on_c, 10, 55, 22
12, 77399, Note_on_c, 10, 55, 0
12, 83520, Note_on_c, 10, 67, 30
12, 83759, Note_on_c, 10, 67, 0
12, 83760, Note_on_c, 10, 65, 30
12, 83999, Note_on_c, 10, 65, 0
12, 84000, Note_on_c, 10, 63, 30
12, 84239, Note_on_c, 10, 63, 0
12, 84240, Note_on_c, 10, 62, 30
12, 84479, Note_on_c, 10, 62, 0
12, 84480, Note_on_c, 10, 63, 30
12, 84719, Note_on_c, 10, 63, 0
12, 84720, Note_on_c, 10, 66, 30
12, 84959, Note_on_c, 10, 66, 0
12, 84960, Note_on_c, 10, 67, 30
12, 85439, Note_on_c, 10, 67, 0
12, 85440, Note_on_c, 10, 66, 34
12, 85559, Note_on_c, 10, 66, 0
12, 85560, Note_on_c, 10, 67, 32
12, 85799, Note_on_c, 10, 67, 0
12, 85800, Note_on_c, 10, 66, 28
12, 85919, Note_on_c, 10, 66, 0
12, 85920, Note_on_c, 10, 67, 26
12, 86039, Note_on_c, 10, 67, 0
12, 90744, Control_c, 10, 74, 74
12, 90746, Control_c, 10, 0, 0
12, 90748, Control_c, 10, 32, 0
12, 90750, Program_c, 10, 49
12, 92160, Note_on_c, 10, 60, 38
12, 92399, Note_on_c, 10, 60, 0
12, 92400, Note_on_c, 10, 58, 38
12, 92639, Note_on_c, 10, 58, 0
12, 92640, Note_on_c, 10, 56, 38
12, 92879, Note_on_c, 10, 56, 0
12, 92880, Note_on_c, 10, 55, 38
12, 93119, Note_on_c, 10, 55, 0
12, 93120, Note_on_c, 10, 56, 38
12, 93359, Note_on_c, 10, 56, 0
12, 93360, Note_on_c, 10, 59, 38
12, 93599, Note_on_c, 10, 59, 0
12, 93600, Note_on_c, 10, 60, 38
12, 94079, Note_on_c, 10, 60, 0
12, 94080, Note_on_c, 10, 59, 43
12, 94199, Note_on_c, 10, 59, 0
12, 94200, Note_on_c, 10, 60, 40
12, 94439, Note_on_c, 10, 60, 0
12, 94440, Note_on_c, 10, 59, 35
12, 94559, Note_on_c, 10, 59, 0
12, 94560, Note_on_c, 10, 60, 33
12, 94679, Note_on_c, 10, 60, 0
12, 98880, Note_on_c, 10, 64, 38
12, 99119, Note_on_c, 10, 64, 0
12, 99120, Note_on_c, 10, 62, 38
12, 99359, Note_on_c, 10, 62, 0
12, 99360, Note_on_c, 10, 60, 38
12, 99719, Note_on_c, 10, 60, 0
12, 99720, Note_on_c, 10, 61, 38
12, 99839, Note_on_c, 10, 61, 0
12, 100200, Note_on_c, 10, 62, 38
12, 100319, Note_on_c, 10, 62, 0
12, 100320, Note_on_c, 10, 60, 38
12, 100559, Note_on_c, 10, 60, 0
12, 100560, Control_c, 10, 73, 51
12, 100560, Note_on_c, 10, 59, 38
12, 100619, Note_on_c, 10, 59, 0
12, 100620, Note_on_c, 10, 59, 43
12, 100679, Note_on_c, 10, 59, 0
12, 100680, Note_on_c, 10, 62, 43
12, 100739, Note_on_c, 10, 62, 0
12, 100740, Note_on_c, 10, 66, 43
12, 100799, Note_on_c, 10, 66, 0
12, 100800, Note_on_c, 10, 67, 43
12, 100829, Note_on_c, 10, 67, 0
12, 100860, Note_on_c, 10, 69, 43
12, 100879, Note_on_c, 10, 69, 0
12, 100880, Note_on_c, 10, 67, 43
12, 100899, Note_on_c, 10, 67, 0
12, 100900, Note_on_c, 10, 66, 43
12, 100919, Note_on_c, 10, 66, 0
12, 100920, Note_on_c, 10, 67, 43
12, 100949, Note_on_c, 10, 67, 0
12, 100980, Note_on_c, 10, 69, 43
12, 101009, Note_on_c, 10, 69, 0
12, 101040, Note_on_c, 10, 71, 43
12, 101069, Note_on_c, 10, 71, 0
12, 101100, Note_on_c, 10, 62, 43
12, 101159, Note_on_c, 10, 62, 0
12, 101160, Note_on_c, 10, 60, 43
12, 101219, Note_on_c, 10, 60, 0
12, 101220, Note_on_c, 10, 59, 43
12, 101279, Note_on_c, 10, 59, 0
12, 101280, Note_on_c, 10, 57, 43
12, 101309, Note_on_c, 10, 57, 0
12, 101340, Note_on_c, 10, 59, 43
12, 101359, Note_on_c, 10, 59, 0
12, 101360, Note_on_c, 10, 57, 43
12, 101379, Note_on_c, 10, 57, 0
12, 101380, Note_on_c, 10, 55, 43
12, 101398, Note_on_c, 10, 55, 0
12, 101400, Note_on_c, 10, 57, 43
12, 101429, Note_on_c, 10, 57, 0
12, 101460, Note_on_c, 10, 59, 43
12, 101489, Note_on_c, 10, 59, 0
12, 101520, Note_on_c, 10, 60, 43
12, 101549, Note_on_c, 10, 60, 0
12, 101580, Note_on_c, 10, 60, 43
12, 101609, Note_on_c, 10, 60, 0
12, 101640, Note_on_c, 10, 60, 43
12, 101669, Note_on_c, 10, 60, 0
12, 101700, Note_on_c, 10, 60, 43
12, 101729, Note_on_c, 10, 60, 0
12, 101760, Note_on_c, 10, 59, 43
12, 101819, Note_on_c, 10, 59, 0
12, 101970, Note_on_c, 10, 69, 43
12, 101999, Note_on_c, 10, 69, 0
12, 102000, Note_on_c, 10, 67, 43
12, 102029, Note_on_c, 10, 67, 0
12, 102120, Note_on_c, 10, 66, 43
12, 102149, Note_on_c, 10, 66, 0
12, 102240, Note_on_c, 10, 66, 43
12, 102479, Note_on_c, 10, 66, 0
12, 104152, Control_c, 10, 74, 64
12, 104154, Control_c, 10, 73, 64
12, 104156, Control_c, 10, 0, 0
12, 104158, Control_c, 10, 32, 0
12, 104160, Program_c, 10, 48
12, 106545, Control_c, 10, 7, 87
12, 106560, Note_on_c, 10, 61, 23
12, 106859, Note_on_c, 10, 61, 0
12, 106860, Note_on_c, 10, 57, 23
12, 106919, Note_on_c, 10, 57, 0
12, 106920, Note_on_c, 10, 59, 23
12, 106979, Note_on_c, 10, 59, 0
12, 106980, Note_on_c, 10, 61, 23
12, 107039, Note_on_c, 10, 61, 0
12, 107040, Note_on_c, 10, 62, 23
12, 107339, Note_on_c, 10, 62, 0
12, 107340, Note_on_c, 10, 55, 23
12, 107399, Note_on_c, 10, 55, 0
12, 107400, Note_on_c, 10, 57, 23
12, 107459, Note_on_c, 10, 57, 0
12, 107460, Note_on_c, 10, 59, 23
12, 107519, Note_on_c, 10, 59, 0
12, 107520, Note_on_c, 10, 60, 23
12, 107579, Note_on_c, 10, 60, 0
12, 107580, Note_on_c, 10, 59, 23
12, 107639, Note_on_c, 10, 59, 0
12, 107640, Note_on_c, 10, 60, 23
12, 107699, Note_on_c, 10, 60, 0
12, 107700, Note_on_c, 10, 61, 23
12, 107730, Note_on_c, 10, 62, 23
12, 107759, Note_on_c, 10, 62, 0
12, 107759, Note_on_c, 10, 61, 0
12, 107760, Note_on_c, 10, 62, 23
12, 107819, Note_on_c, 10, 62, 0
12, 107820, Note_on_c, 10, 65, 23
12, 107880, Note_on_c, 10, 64, 23
12, 107909, Note_on_c, 10, 65, 0
12, 107939, Note_on_c, 10, 64, 0
12, 107940, Note_on_c, 10, 62, 23
12, 107999, Note_on_c, 10, 62, 0
12, 108000, Note_on_c, 10, 60, 23
12, 108239, Note_on_c, 10, 60, 0
12, 108240, Note_on_c, 10, 59, 23
12, 108299, Note_on_c, 10, 59, 0
12, 108420, Note_on_c, 10, 59, 36
12, 108479, Note_on_c, 10, 59, 0
12, 108480, Note_on_c, 10, 60, 36
12, 108509, Note_on_c, 10, 60, 0
12, 108540, Note_on_c, 10, 62, 36
12, 108559, Note_on_c, 10, 62, 0
12, 108560, Note_on_c, 10, 60, 36
12, 108579, Note_on_c, 10, 60, 0
12, 108580, Note_on_c, 10, 59, 36
12, 108599, Note_on_c, 10, 59, 0
12, 108600, Note_on_c, 10, 60, 36
12, 108629, Note_on_c, 10, 60, 0
12, 108630, Note_on_c, 10, 62, 36
12, 108689, Note_on_c, 10, 62, 0
12, 108690, Note_on_c, 10, 64, 36
12, 108779, Note_on_c, 10, 64, 0
12, 108780, Note_on_c, 10, 67, 36
12, 108839, Note_on_c, 10, 67, 0
12, 108840, Note_on_c, 10, 65, 36
12, 108899, Note_on_c, 10, 65, 0
12, 108900, Note_on_c, 10, 64, 36
12, 108959, Note_on_c, 10, 64, 0
12, 108960, Note_on_c, 10, 62, 36
12, 108989, Note_on_c, 10, 62, 0
12, 109020, Note_on_c, 10, 64, 36
12, 109039, Note_on_c, 10, 64, 0
12, 109040, Note_on_c, 10, 62, 36
12, 109059, Note_on_c, 10, 62, 0
12, 109060, Note_on_c, 10, 60, 36
12, 109079, Note_on_c, 10, 60, 0
12, 109080, Note_on_c, 10, 62, 36
12, 109139, Note_on_c, 10, 62, 0
12, 109140, Note_on_c, 10, 60, 36
12, 109199, Note_on_c, 10, 60, 0
12, 109200, Note_on_c, 10, 62, 36
12, 109219, Note_on_c, 10, 62, 0
12, 109260, Note_on_c, 10, 64, 36
12, 109279, Note_on_c, 10, 64, 0
12, 109320, Note_on_c, 10, 65, 36
12, 109339, Note_on_c, 10, 65, 0
12, 109380, Note_on_c, 10, 65, 36
12, 109399, Note_on_c, 10, 65, 0
12, 109440, Note_on_c, 10, 64, 36
12, 109499, Note_on_c, 10, 64, 0
12, 109650, Note_on_c, 10, 62, 23
12, 109679, Note_on_c, 10, 62, 0
12, 109680, Note_on_c, 10, 60, 23
12, 109709, Note_on_c, 10, 60, 0
12, 109800, Note_on_c, 10, 59, 23
12, 109829, Note_on_c, 10, 59, 0
12, 109920, Note_on_c, 10, 59, 23
12, 110159, Note_on_c, 10, 59, 0
12, 110160, Note_on_c, 10, 60, 27
12, 110219, Note_on_c, 10, 60, 0
12, 111840, Control_c, 10, 7, 127
12, 112320, Note_on_c, 10, 60, 34
12, 112379, Note_on_c, 10, 60, 0
12, 112440, Note_on_c, 10, 60, 31
12, 112559, Note_on_c, 10, 60, 0
12, 112560, Note_on_c, 10, 59, 28
12, 112629, Note_on_c, 10, 59, 0
12, 112680, Note_on_c, 10, 59, 25
12, 112799, Note_on_c, 10, 59, 0
12, 113160, Note_on_c, 10, 63, 34
12, 113369, Note_on_c, 10, 63, 0
12, 113400, Note_on_c, 10, 63, 31
12, 113519, Note_on_c, 10, 63, 0
12, 113520, Note_on_c, 10, 66, 29
12, 113589, Note_on_c, 10, 66, 0
12, 113640, Note_on_c, 10, 66, 27
12, 113759, Note_on_c, 10, 66, 0
12, 113760, Note_on_c, 10, 67, 25
12, 113849, Note_on_c, 10, 67, 0
12, 114270, Note_on_c, 10, 60, 33
12, 114480, Note_on_c, 10, 62, 36
12, 114509, Note_on_c, 10, 60, 0
12, 114719, Note_on_c, 10, 62, 0
12, 114720, Note_on_c, 10, 63, 41
12, 114959, Note_on_c, 10, 63, 0
12, 114960, Note_on_c, 10, 58, 31
12, 115049, Note_on_c, 10, 58, 0
12, 115080, Note_on_c, 10, 58, 31
12, 115109, Note_on_c, 10, 58, 0
12, 115160, Note_on_c, 10, 58, 31
12, 115180, Note_on_c, 10, 60, 31
12, 115189, Note_on_c, 10, 58, 0
12, 115200, Note_on_c, 10, 62, 41
12, 115209, Note_on_c, 10, 60, 0
12, 115319, Note_on_c, 10, 62, 0
12, 115320, Note_on_c, 10, 60, 30
12, 115379, Note_on_c, 10, 60, 0
12, 115380, Note_on_c, 10, 58, 30
12, 115400, Note_on_c, 10, 57, 30
12, 115409, Note_on_c, 10, 58, 0
12, 115420, Note_on_c, 10, 58, 30
12, 115429, Note_on_c, 10, 57, 0
12, 115440, Note_on_c, 10, 60, 40
12, 115449, Note_on_c, 10, 58, 0
12, 115559, Note_on_c, 10, 60, 0
12, 115560, Note_on_c, 10, 58, 30
12, 115619, Note_on_c, 10, 58, 0
12, 115620, Note_on_c, 10, 57, 30
12, 115679, Note_on_c, 10, 57, 0
12, 115680, Note_on_c, 10, 55, 25
12, 115769, Note_on_c, 10, 55, 0
12, 116040, Note_on_c, 10, 59, 34
12, 116159, Note_on_c, 10, 59, 0
12, 116160, Note_on_c, 10, 62, 32
12, 116229, Note_on_c, 10, 62, 0
12, 116280, Note_on_c, 10, 62, 30
12, 116399, Note_on_c, 10, 62, 0
12, 116400, Note_on_c, 10, 60, 28
12, 116469, Note_on_c, 10, 60, 0
12, 116520, Note_on_c, 10, 60, 26
12, 116639, Note_on_c, 10, 60, 0
12, 116640, Note_on_c, 10, 59, 24
12, 116729, Note_on_c, 10, 59, 0
12, 117000, Note_on_c, 10, 59, 39
12, 117119, Note_on_c, 10, 59, 0
12, 117120, Note_on_c, 10, 60, 35
12, 117189, Note_on_c, 10, 60, 0
12, 117240, Note_on_c, 10, 60, 36
12, 117359, Note_on_c, 10, 60, 0
12, 117360, Note_on_c, 10, 59, 32
12, 117429, Note_on_c, 10, 59, 0
12, 117480, Note_on_c, 10, 59, 33
12, 117599, Note_on_c, 10, 59, 0
12, 117600, Note_on_c, 10, 60, 31
12, 117689, Note_on_c, 10, 60, 0
12, 118080, Note_on_c, 10, 65, 27
12, 118319, Note_on_c, 10, 65, 0
12, 118320, Note_on_c, 10, 67, 32
12, 118559, Note_on_c, 10, 67, 0
12, 118560, Note_on_c, 10, 68, 36
12, 118799, Note_on_c, 10, 68, 0
12, 118800, Note_on_c, 10, 63, 36
12, 118859, Note_on_c, 10, 63, 0
12, 118920, Note_on_c, 10, 63, 36
12, 118979, Note_on_c, 10, 63, 0
12, 119000, Note_on_c, 10, 63, 34
12, 119020, Note_on_c, 10, 65, 34
12, 119029, Note_on_c, 10, 63, 0
12, 119040, Note_on_c, 10, 67, 44
12, 119049, Note_on_c, 10, 65, 0
12, 119159, Note_on_c, 10, 67, 0
12, 119160, Note_on_c, 10, 65, 34
12, 119219, Note_on_c, 10, 65, 0
12, 119220, Note_on_c, 10, 63, 34
12, 119240, Note_on_c, 10, 62, 34
12, 119249, Note_on_c, 10, 63, 0
12, 119260, Note_on_c, 10, 63, 34
12, 119269, Note_on_c, 10, 62, 0
12, 119280, Note_on_c, 10, 65, 44
12, 119289, Note_on_c, 10, 63, 0
12, 119399, Note_on_c, 10, 65, 0
12, 119400, Note_on_c, 10, 63, 34
12, 119459, Note_on_c, 10, 63, 0
12, 119460, Note_on_c, 10, 62, 34
12, 119519, Note_on_c, 10, 62, 0
12, 119520, Note_on_c, 10, 63, 23
12, 119609, Note_on_c, 10, 63, 0
12, 119880, Note_on_c, 10, 60, 29
12, 119999, Note_on_c, 10, 60, 0
12, 120000, Note_on_c, 10, 60, 32
12, 120119, Note_on_c, 10, 60, 0
12, 120360, Note_on_c, 10, 60, 38
12, 120479, Note_on_c, 10, 60, 0
12, 120480, Note_on_c, 10, 60, 41
12, 120599, Note_on_c, 10, 60, 0
12, 120840, Note_on_c, 10, 60, 47
12, 120959, Note_on_c, 10, 60, 0
12, 120960, Note_on_c, 10, 60, 50
12, 121439, Note_on_c, 10, 60, 0
12, 121440, Note_on_c, 10, 59, 59
12, 121559, Note_on_c, 10, 59, 0
12, 138000, Control_c, 10, 7, 107
12, 138360, Control_c, 10, 0, 1
12, 138375, Control_c, 10, 32, 0
12, 138390, Program_c, 10, 48
12, 138720, Note_on_c, 10, 56, 33
12, 138839, Note_on_c, 10, 56, 0
12, 138840, Note_on_c, 10, 55, 37
12, 138869, Note_on_c, 10, 55, 0
12, 138900, Note_on_c, 10, 56, 39
12, 139019, Note_on_c, 10, 56, 0
12, 139020, Note_on_c, 10, 55, 43
12, 139049, Note_on_c, 10, 55, 0
12, 139080, Note_on_c, 10, 59, 45
12, 139259, Note_on_c, 10, 59, 0
12, 139260, Note_on_c, 10, 60, 33
12, 139349, Note_on_c, 10, 60, 0
12, 139440, Note_on_c, 10, 56, 33
12, 139559, Note_on_c, 10, 56, 0
12, 139560, Note_on_c, 10, 55, 37
12, 139589, Note_on_c, 10, 55, 0
12, 139620, Note_on_c, 10, 56, 39
12, 139739, Note_on_c, 10, 56, 0
12, 139740, Note_on_c, 10, 55, 43
12, 139769, Note_on_c, 10, 55, 0
12, 139800, Note_on_c, 10, 59, 45
12, 139979, Note_on_c, 10, 59, 0
12, 139980, Note_on_c, 10, 60, 33
12, 140069, Note_on_c, 10, 60, 0
12, 140100, Note_on_c, 10, 55, 35
12, 140159, Note_on_c, 10, 55, 0
12, 140160, Note_on_c, 10, 56, 36
12, 140279, Note_on_c, 10, 56, 0
12, 140280, Note_on_c, 10, 57, 40
12, 140339, Note_on_c, 10, 57, 0
12, 140340, Note_on_c, 10, 58, 42
12, 140459, Note_on_c, 10, 58, 0
12, 140460, Note_on_c, 10, 61, 46
12, 140519, Note_on_c, 10, 61, 0
12, 140520, Note_on_c, 10, 60, 48
12, 140549, Note_on_c, 10, 60, 0
12, 140580, Note_on_c, 10, 55, 43
12, 140639, Note_on_c, 10, 55, 0
12, 140640, Note_on_c, 10, 56, 35
12, 140699, Note_on_c, 10, 56, 0
12, 140700, Note_on_c, 10, 57, 36
12, 140759, Note_on_c, 10, 57, 0
12, 140760, Note_on_c, 10, 58, 37
12, 140819, Note_on_c, 10, 58, 0
12, 140820, Note_on_c, 10, 61, 38
12, 140879, Note_on_c, 10, 61, 0
12, 140880, Note_on_c, 10, 60, 40
12, 140909, Note_on_c, 10, 60, 0
12, 140940, Note_on_c, 10, 55, 41
12, 140999, Note_on_c, 10, 55, 0
12, 141000, Note_on_c, 10, 56, 42
12, 141059, Note_on_c, 10, 56, 0
12, 141060, Note_on_c, 10, 57, 43
12, 141119, Note_on_c, 10, 57, 0
12, 141120, Note_on_c, 10, 58, 45
12, 141179, Note_on_c, 10, 58, 0
12, 141180, Note_on_c, 10, 61, 46
12, 141239, Note_on_c, 10, 61, 0
12, 141240, Note_on_c, 10, 60, 47
12, 141269, Note_on_c, 10, 60, 0
12, 141360, Note_on_c, 10, 61, 50
12, 141419, Note_on_c, 10, 61, 0
12, 141420, Note_on_c, 10, 60, 51
12, 141449, Note_on_c, 10, 60, 0
12, 141540, Note_on_c, 10, 61, 53
12, 141599, Note_on_c, 10, 61, 0
12, 141600, Note_on_c, 10, 60, 55
12, 141639, Note_on_c, 10, 60, 0
12, 141960, Note_on_c, 10, 59, 53
12, 142319, Note_on_c, 10, 59, 0
12, 142320, Note_on_c, 10, 60, 43
12, 142349, Note_on_c, 10, 60, 0
12, 142380, Note_on_c, 10, 63, 43
12, 142399, Note_on_c, 10, 63, 0
12, 142440, Note_on_c, 10, 63, 43
12, 142459, Note_on_c, 10, 63, 0
12, 142560, Note_on_c, 10, 62, 43
12, 142579, Note_on_c, 10, 62, 0
12, 142620, Note_on_c, 10, 62, 43
12, 142639, Note_on_c, 10, 62, 0
12, 142740, Note_on_c, 10, 60, 43
12, 142759, Note_on_c, 10, 60, 0
12, 142800, Note_on_c, 10, 60, 43
12, 142819, Note_on_c, 10, 60, 0
12, 142920, Note_on_c, 10, 59, 43
12, 142939, Note_on_c, 10, 59, 0
12, 142980, Note_on_c, 10, 59, 43
12, 142999, Note_on_c, 10, 59, 0
12, 144120, Control_c, 10, 7, 127
12, 144840, Note_on_c, 10, 56, 33
12, 144959, Note_on_c, 10, 56, 0
12, 144960, Note_on_c, 10, 55, 37
12, 144989, Note_on_c, 10, 55, 0
12, 145020, Note_on_c, 10, 56, 39
12, 145139, Note_on_c, 10, 56, 0
12, 145140, Note_on_c, 10, 55, 43
12, 145169, Note_on_c, 10, 55, 0
12, 145200, Note_on_c, 10, 59, 45
12, 145379, Note_on_c, 10, 59, 0
12, 145380, Note_on_c, 10, 60, 33
12, 145469, Note_on_c, 10, 60, 0
12, 145560, Note_on_c, 10, 56, 33
12, 145679, Note_on_c, 10, 56, 0
12, 145680, Note_on_c, 10, 55, 37
12, 145709, Note_on_c, 10, 55, 0
12, 145740, Note_on_c, 10, 56, 39
12, 145859, Note_on_c, 10, 56, 0
12, 145860, Note_on_c, 10, 55, 43
12, 145889, Note_on_c, 10, 55, 0
12, 145920, Note_on_c, 10, 59, 45
12, 146099, Note_on_c, 10, 59, 0
12, 146100, Note_on_c, 10, 60, 33
12, 146189, Note_on_c, 10, 60, 0
12, 146220, Note_on_c, 10, 55, 35
12, 146279, Note_on_c, 10, 55, 0
12, 146280, Note_on_c, 10, 56, 36
12, 146399, Note_on_c, 10, 56, 0
12, 146400, Note_on_c, 10, 57, 40
12, 146459, Note_on_c, 10, 57, 0
12, 146460, Note_on_c, 10, 58, 42
12, 146579, Note_on_c, 10, 58, 0
12, 146580, Note_on_c, 10, 61, 46
12, 146639, Note_on_c, 10, 61, 0
12, 146640, Note_on_c, 10, 60, 48
12, 146669, Note_on_c, 10, 60, 0
12, 146700, Note_on_c, 10, 55, 43
12, 146759, Note_on_c, 10, 55, 0
12, 146760, Note_on_c, 10, 56, 35
12, 146819, Note_on_c, 10, 56, 0
12, 146820, Note_on_c, 10, 57, 36
12, 146879, Note_on_c, 10, 57, 0
12, 146880, Note_on_c, 10, 58, 37
12, 146939, Note_on_c, 10, 58, 0
12, 146940, Note_on_c, 10, 61, 38
12, 146999, Note_on_c, 10, 61, 0
12, 147000, Note_on_c, 10, 60, 40
12, 147029, Note_on_c, 10, 60, 0
12, 147060, Note_on_c, 10, 55, 41
12, 147119, Note_on_c, 10, 55, 0
12, 147120, Note_on_c, 10, 56, 42
12, 147179, Note_on_c, 10, 56, 0
12, 147180, Note_on_c, 10, 57, 43
12, 147239, Note_on_c, 10, 57, 0
12, 147240, Note_on_c, 10, 58, 45
12, 147299, Note_on_c, 10, 58, 0
12, 147300, Note_on_c, 10, 61, 46
12, 147359, Note_on_c, 10, 61, 0
12, 147360, Note_on_c, 10, 60, 47
12, 147389, Note_on_c, 10, 60, 0
12, 147480, Note_on_c, 10, 61, 50
12, 147539, Note_on_c, 10, 61, 0
12, 147540, Note_on_c, 10, 60, 51
12, 147569, Note_on_c, 10, 60, 0
12, 147660, Note_on_c, 10, 61, 53
12, 147719, Note_on_c, 10, 61, 0
12, 147720, Note_on_c, 10, 60, 55
12, 147759, Note_on_c, 10, 60, 0
12, 148080, Note_on_c, 10, 59, 53
12, 148439, Note_on_c, 10, 59, 0
12, 148440, Note_on_c, 10, 60, 43
12, 148469, Note_on_c, 10, 60, 0
12, 148500, Note_on_c, 10, 63, 43
12, 148514, Note_on_c, 10, 63, 0
12, 148560, Note_on_c, 10, 63, 42
12, 148574, Note_on_c, 10, 63, 0
12, 148680, Note_on_c, 10, 62, 40
12, 148694, Note_on_c, 10, 62, 0
12, 148740, Note_on_c, 10, 62, 39
12, 148754, Note_on_c, 10, 62, 0
12, 148860, Note_on_c, 10, 60, 37
12, 148874, Note_on_c, 10, 60, 0
12, 148920, Note_on_c, 10, 60, 36
12, 148934, Note_on_c, 10, 60, 0
12, 149040, Note_on_c, 10, 59, 34
12, 149054, Note_on_c, 10, 59, 0
12, 149100, Note_on_c, 10, 59, 33
12, 149114, Note_on_c, 10, 59, 0
12, 150600, Note_on_c, 10, 56, 24
12, 151679, Note_on_c, 10, 56, 0
12, 151680, Note_on_c, 10, 55, 22
12, 152039, Note_on_c, 10, 55, 0
12, 152040, Note_on_c, 10, 63, 33
12, 152097, Note_on_c, 10, 63, 0
12, 152400, Note_on_c, 10, 62, 33
12, 152438, Note_on_c, 10, 62, 0
12, 152580, Note_on_c, 10, 62, 33
12, 152618, Note_on_c, 10, 62, 0
12, 152760, Note_on_c, 10, 63, 33
12, 152817, Note_on_c, 10, 63, 0
12, 153120, Note_on_c, 10, 62, 33
12, 153158, Note_on_c, 10, 62, 0
12, 153300, Note_on_c, 10, 62, 33
12, 153338, Note_on_c, 10, 62, 0
12, 153480, Note_on_c, 10, 60, 33
12, 153537, Note_on_c, 10, 60, 0
12, 153840, Note_on_c, 10, 62, 36
12, 153899, Note_on_c, 10, 62, 0
12, 154020, Note_on_c, 10, 59, 38
12, 154079, Note_on_c, 10, 59, 0
12, 155100, Note_on_c, 10, 62, 66
12, 155100, Note_on_c, 10, 71, 66
12, 155159, Note_on_c, 10, 71, 0
12, 155159, Note_on_c, 10, 62, 0
12, 155280, Note_on_c, 10, 63, 66
12, 155280, Note_on_c, 10, 72, 66
12, 155339, Note_on_c, 10, 72, 0
12, 155339, Note_on_c, 10, 63, 0
12, 155339, End_track
13, 0, Start_track
13, 0, MIDI_port, 0
13, 0, Title_t, "Viola"
13, 20, Control_c, 11, 121, 0
13, 21, Control_c, 11, 11, 127
13, 21, Control_c, 11, 7, 127
13, 22, Control_c, 11, 93, 10
13, 22, Control_c, 11, 91, 79
13, 25, Control_c, 11, 10, 54
13, 26, Pitch_bend_c, 11, 8192
13, 27, Control_c, 11, 0, 1
13, 28, Control_c, 11, 32, 0
13, 29, Program_c, 11, 48
13, 960, Note_on_c, 11, 55, 33
13, 1049, Note_on_c, 11, 55, 0
13, 1200, Note_on_c, 11, 55, 33
13, 1289, Note_on_c, 11, 55, 0
13, 1440, Note_on_c, 11, 51, 33
13, 1559, Note_on_c, 11, 51, 0
13, 1919, Control_c, 11, 11, 66
13, 1920, Note_on_c, 11, 63, 43
13, 1921, Control_c, 11, 11, 67
13, 1936, Control_c, 11, 11, 68
13, 1951, Control_c, 11, 11, 69
13, 1966, Control_c, 11, 11, 70
13, 1981, Control_c, 11, 11, 71
13, 1996, Control_c, 11, 11, 72
13, 2011, Control_c, 11, 11, 73
13, 2026, Control_c, 11, 11, 74
13, 2041, Control_c, 11, 11, 75
13, 2056, Control_c, 11, 11, 76
13, 2071, Control_c, 11, 11, 77
13, 2086, Control_c, 11, 11, 78
13, 2101, Control_c, 11, 11, 80
13, 2116, Control_c, 11, 11, 82
13, 2131, Control_c, 11, 11, 84
13, 2146, Control_c, 11, 11, 86
13, 2159, Note_on_c, 11, 63, 0
13, 2160, Note_on_c, 11, 60, 43
13, 2161, Control_c, 11, 11, 88
13, 2176, Control_c, 11, 11, 90
13, 2191, Control_c, 11, 11, 92
13, 2206, Control_c, 11, 11, 94
13, 2221, Control_c, 11, 11, 96
13, 2236, Control_c, 11, 11, 98
13, 2251, Control_c, 11, 11, 100
13, 2266, Control_c, 11, 11, 103
13, 2281, Control_c, 11, 11, 106
13, 2296, Control_c, 11, 11, 109
13, 2311, Control_c, 11, 11, 112
13, 2326, Control_c, 11, 11, 115
13, 2341, Control_c, 11, 11, 118
13, 2356, Control_c, 11, 11, 121
13, 2371, Control_c, 11, 11, 124
13, 2386, Control_c, 11, 11, 127
13, 2399, Note_on_c, 11, 60, 0
13, 2399, Control_c, 11, 11, 127
13, 2400, Note_on_c, 11, 62, 33
13, 2519, Note_on_c, 11, 62, 0
13, 2880, Note_on_c, 11, 63, 25
13, 3119, Note_on_c, 11, 63, 0
13, 3120, Note_on_c, 11, 65, 27
13, 3359, Note_on_c, 11, 65, 0
13, 3360, Note_on_c, 11, 68, 30
13, 3479, Note_on_c, 11, 68, 0
13, 3480, Note_on_c, 11, 67, 31
13, 3599, Note_on_c, 11, 67, 0
13, 3720, Note_on_c, 11, 58, 33
13, 3839, Note_on_c, 11, 58, 0
13, 3840, Note_on_c, 11, 55, 35
13, 3959, Note_on_c, 11, 55, 0
13, 4080, Note_on_c, 11, 62, 33
13, 4199, Note_on_c, 11, 62, 0
13, 4320, Note_on_c, 11, 62, 28
13, 4439, Note_on_c, 11, 62, 0
13, 4800, Note_on_c, 11, 55, 30
13, 4889, Note_on_c, 11, 55, 0
13, 5040, Note_on_c, 11, 55, 26
13, 5129, Note_on_c, 11, 55, 0
13, 5280, Note_on_c, 11, 51, 24
13, 5359, Note_on_c, 11, 51, 0
13, 5759, Control_c, 11, 11, 66
13, 5760, Note_on_c, 11, 63, 43
13, 5761, Control_c, 11, 11, 67
13, 5776, Control_c, 11, 11, 68
13, 5791, Control_c, 11, 11, 69
13, 5806, Control_c, 11, 11, 70
13, 5821, Control_c, 11, 11, 71
13, 5836, Control_c, 11, 11, 72
13, 5851, Control_c, 11, 11, 73
13, 5866, Control_c, 11, 11, 74
13, 5881, Control_c, 11, 11, 75
13, 5896, Control_c, 11, 11, 76
13, 5911, Control_c, 11, 11, 77
13, 5926, Control_c, 11, 11, 78
13, 5941, Control_c, 11, 11, 80
13, 5956, Control_c, 11, 11, 82
13, 5971, Control_c, 11, 11, 84
13, 5986, Control_c, 11, 11, 86
13, 5999, Note_on_c, 11, 63, 0
13, 6000, Note_on_c, 11, 60, 43
13, 6001, Control_c, 11, 11, 88
13, 6016, Control_c, 11, 11, 90
13, 6031, Control_c, 11, 11, 92
13, 6046, Control_c, 11, 11, 94
13, 6061, Control_c, 11, 11, 96
13, 6076, Control_c, 11, 11, 98
13, 6091, Control_c, 11, 11, 100
13, 6106, Control_c, 11, 11, 103
13, 6121, Control_c, 11, 11, 106
13, 6136, Control_c, 11, 11, 109
13, 6151, Control_c, 11, 11, 112
13, 6166, Control_c, 11, 11, 115
13, 6181, Control_c, 11, 11, 118
13, 6196, Control_c, 11, 11, 121
13, 6211, Control_c, 11, 11, 124
13, 6226, Control_c, 11, 11, 127
13, 6239, Note_on_c, 11, 60, 0
13, 6239, Control_c, 11, 11, 127
13, 6240, Note_on_c, 11, 62, 29
13, 6359, Note_on_c, 11, 62, 0
13, 6720, Note_on_c, 11, 63, 25
13, 6959, Note_on_c, 11, 63, 0
13, 6960, Note_on_c, 11, 65, 27
13, 7199, Note_on_c, 11, 65, 0
13, 7200, Note_on_c, 11, 68, 30
13, 7319, Note_on_c, 11, 68, 0
13, 7320, Note_on_c, 11, 67, 31
13, 7439, Note_on_c, 11, 67, 0
13, 7560, Note_on_c, 11, 58, 33
13, 7679, Note_on_c, 11, 58, 0
13, 7680, Note_on_c, 11, 55, 35
13, 7799, Note_on_c, 11, 55, 0
13, 7920, Note_on_c, 11, 62, 33
13, 8039, Note_on_c, 11, 62, 0
13, 8160, Note_on_c, 11, 62, 28
13, 8279, Note_on_c, 11, 62, 0
13, 8640, Note_on_c, 11, 55, 33
13, 8699, Note_on_c, 11, 55, 0
13, 8880, Note_on_c, 11, 55, 33
13, 8939, Note_on_c, 11, 55, 0
13, 9120, Note_on_c, 11, 55, 33
13, 9179, Note_on_c, 11, 55, 0
13, 9480, Note_on_c, 11, 62, 33
13, 9599, Note_on_c, 11, 62, 0
13, 9599, Control_c, 11, 11, 86
13, 9600, Note_on_c, 11, 63, 43
13, 9601, Control_c, 11, 11, 87
13, 9610, Control_c, 11, 11, 88
13, 9619, Control_c, 11, 11, 89
13, 9628, Control_c, 11, 11, 90
13, 9637, Control_c, 11, 11, 91
13, 9646, Control_c, 11, 11, 92
13, 9655, Control_c, 11, 11, 93
13, 9664, Control_c, 11, 11, 94
13, 9673, Control_c, 11, 11, 95
13, 9682, Control_c, 11, 11, 96
13, 9691, Control_c, 11, 11, 97
13, 9700, Control_c, 11, 11, 98
13, 9709, Control_c, 11, 11, 99
13, 9718, Control_c, 11, 11, 101
13, 9727, Control_c, 11, 11, 103
13, 9736, Control_c, 11, 11, 105
13, 9745, Control_c, 11, 11, 107
13, 9754, Control_c, 11, 11, 109
13, 9763, Control_c, 11, 11, 111
13, 9772, Control_c, 11, 11, 113
13, 9781, Control_c, 11, 11, 115
13, 9790, Control_c, 11, 11, 117
13, 9799, Control_c, 11, 11, 119
13, 9808, Control_c, 11, 11, 121
13, 9817, Control_c, 11, 11, 123
13, 9826, Control_c, 11, 11, 126
13, 9839, Note_on_c, 11, 63, 0
13, 9839, Control_c, 11, 11, 127
13, 9840, Note_on_c, 11, 67, 23
13, 10199, Note_on_c, 11, 67, 0
13, 10560, Note_on_c, 11, 56, 23
13, 10799, Note_on_c, 11, 56, 0
13, 10800, Note_on_c, 11, 58, 25
13, 11039, Note_on_c, 11, 58, 0
13, 11040, Note_on_c, 11, 61, 28
13, 11159, Note_on_c, 11, 61, 0
13, 11160, Note_on_c, 11, 60, 29
13, 11279, Note_on_c, 11, 60, 0
13, 11400, Note_on_c, 11, 63, 31
13, 11519, Note_on_c, 11, 63, 0
13, 11520, Note_on_c, 11, 60, 33
13, 11599, Note_on_c, 11, 60, 0
13, 11760, Note_on_c, 11, 67, 28
13, 11839, Note_on_c, 11, 67, 0
13, 12000, Note_on_c, 11, 67, 23
13, 12119, Note_on_c, 11, 67, 0
13, 12480, Note_on_c, 11, 55, 33
13, 12539, Note_on_c, 11, 55, 0
13, 12720, Note_on_c, 11, 55, 33
13, 12779, Note_on_c, 11, 55, 0
13, 12960, Note_on_c, 11, 55, 33
13, 13019, Note_on_c, 11, 55, 0
13, 13320, Note_on_c, 11, 62, 33
13, 13439, Note_on_c, 11, 62, 0
13, 13439, Control_c, 11, 11, 86
13, 13440, Note_on_c, 11, 63, 33
13, 13441, Control_c, 11, 11, 87
13, 13450, Control_c, 11, 11, 88
13, 13459, Control_c, 11, 11, 89
13, 13468, Control_c, 11, 11, 90
13, 13477, Control_c, 11, 11, 91
13, 13486, Control_c, 11, 11, 92
13, 13495, Control_c, 11, 11, 93
13, 13504, Control_c, 11, 11, 94
13, 13513, Control_c, 11, 11, 95
13, 13522, Control_c, 11, 11, 96
13, 13531, Control_c, 11, 11, 97
13, 13540, Control_c, 11, 11, 98
13, 13549, Control_c, 11, 11, 99
13, 13558, Control_c, 11, 11, 101
13, 13567, Control_c, 11, 11, 103
13, 13576, Control_c, 11, 11, 105
13, 13585, Control_c, 11, 11, 107
13, 13594, Control_c, 11, 11, 109
13, 13603, Control_c, 11, 11, 111
13, 13612, Control_c, 11, 11, 113
13, 13621, Control_c, 11, 11, 115
13, 13630, Control_c, 11, 11, 117
13, 13639, Control_c, 11, 11, 119
13, 13648, Control_c, 11, 11, 121
13, 13657, Control_c, 11, 11, 123
13, 13666, Control_c, 11, 11, 126
13, 13679, Note_on_c, 11, 63, 0
13, 13679, Control_c, 11, 11, 127
13, 13680, Note_on_c, 11, 67, 23
13, 14039, Note_on_c, 11, 67, 0
13, 14400, Note_on_c, 11, 56, 23
13, 14639, Note_on_c, 11, 56, 0
13, 14640, Note_on_c, 11, 58, 25
13, 14879, Note_on_c, 11, 58, 0
13, 14880, Note_on_c, 11, 61, 28
13, 14999, Note_on_c, 11, 61, 0
13, 15000, Note_on_c, 11, 60, 29
13, 15119, Note_on_c, 11, 60, 0
13, 15240, Note_on_c, 11, 63, 31
13, 15359, Note_on_c, 11, 63, 0
13, 15360, Note_on_c, 11, 60, 33
13, 15439, Note_on_c, 11, 60, 0
13, 15600, Note_on_c, 11, 67, 28
13, 15679, Note_on_c, 11, 67, 0
13, 15840, Note_on_c, 11, 67, 23
13, 15959, Note_on_c, 11, 67, 0
13, 16320, Note_on_c, 11, 60, 24
13, 16379, Note_on_c, 11, 60, 0
13, 16560, Note_on_c, 11, 59, 24
13, 16619, Note_on_c, 11, 59, 0
13, 16800, Note_on_c, 11, 55, 24
13, 16859, Note_on_c, 11, 55, 0
13, 17279, Control_c, 11, 11, 66
13, 17280, Note_on_c, 11, 60, 34
13, 17281, Control_c, 11, 11, 67
13, 17296, Control_c, 11, 11, 68
13, 17311, Control_c, 11, 11, 69
13, 17326, Control_c, 11, 11, 70
13, 17341, Control_c, 11, 11, 71
13, 17356, Control_c, 11, 11, 72
13, 17371, Control_c, 11, 11, 73
13, 17386, Control_c, 11, 11, 74
13, 17401, Control_c, 11, 11, 75
13, 17416, Control_c, 11, 11, 76
13, 17431, Control_c, 11, 11, 77
13, 17446, Control_c, 11, 11, 78
13, 17461, Control_c, 11, 11, 80
13, 17476, Control_c, 11, 11, 82
13, 17491, Control_c, 11, 11, 84
13, 17506, Control_c, 11, 11, 86
13, 17521, Control_c, 11, 11, 88
13, 17536, Control_c, 11, 11, 90
13, 17551, Control_c, 11, 11, 92
13, 17566, Control_c, 11, 11, 94
13, 17581, Control_c, 11, 11, 96
13, 17596, Control_c, 11, 11, 98
13, 17611, Control_c, 11, 11, 100
13, 17626, Control_c, 11, 11, 103
13, 17641, Control_c, 11, 11, 106
13, 17656, Control_c, 11, 11, 109
13, 17671, Control_c, 11, 11, 112
13, 17686, Control_c, 11, 11, 115
13, 17701, Control_c, 11, 11, 118
13, 17716, Control_c, 11, 11, 121
13, 17731, Control_c, 11, 11, 124
13, 17746, Control_c, 11, 11, 127
13, 17759, Note_on_c, 11, 60, 0
13, 17759, Control_c, 11, 11, 127
13, 17760, Note_on_c, 11, 62, 24
13, 17879, Note_on_c, 11, 62, 0
13, 18240, Note_on_c, 11, 60, 25
13, 18419, Note_on_c, 11, 60, 0
13, 18420, Note_on_c, 11, 61, 29
13, 18479, Note_on_c, 11, 61, 0
13, 18480, Note_on_c, 11, 63, 31
13, 18659, Note_on_c, 11, 63, 0
13, 18660, Note_on_c, 11, 65, 36
13, 18719, Note_on_c, 11, 65, 0
13, 18719, Control_c, 11, 11, 66
13, 18720, Note_on_c, 11, 67, 48
13, 18721, Control_c, 11, 11, 67
13, 18739, Control_c, 11, 11, 68
13, 18757, Control_c, 11, 11, 69
13, 18775, Control_c, 11, 11, 70
13, 18793, Control_c, 11, 11, 71
13, 18811, Control_c, 11, 11, 72
13, 18829, Control_c, 11, 11, 73
13, 18847, Control_c, 11, 11, 74
13, 18865, Control_c, 11, 11, 75
13, 18883, Control_c, 11, 11, 76
13, 18901, Control_c, 11, 11, 77
13, 18919, Control_c, 11, 11, 78
13, 18937, Control_c, 11, 11, 80
13, 18955, Control_c, 11, 11, 82
13, 18973, Control_c, 11, 11, 84
13, 18991, Control_c, 11, 11, 86
13, 19009, Control_c, 11, 11, 88
13, 19027, Control_c, 11, 11, 90
13, 19045, Control_c, 11, 11, 92
13, 19063, Control_c, 11, 11, 94
13, 19081, Control_c, 11, 11, 96
13, 19099, Control_c, 11, 11, 98
13, 19117, Control_c, 11, 11, 100
13, 19135, Control_c, 11, 11, 103
13, 19153, Control_c, 11, 11, 106
13, 19171, Control_c, 11, 11, 109
13, 19189, Control_c, 11, 11, 112
13, 19207, Control_c, 11, 11, 115
13, 19225, Control_c, 11, 11, 118
13, 19239, Note_on_c, 11, 67, 0
13, 19243, Control_c, 11, 11, 121
13, 19261, Control_c, 11, 11, 124
13, 19279, Control_c, 11, 11, 127
13, 19319, Control_c, 11, 11, 127
13, 19320, Note_on_c, 11, 62, 24
13, 19359, Note_on_c, 11, 62, 0
13, 19440, Note_on_c, 11, 62, 24
13, 19479, Note_on_c, 11, 62, 0
13, 19560, Note_on_c, 11, 62, 24
13, 19560, Note_on_c, 11, 60, 24
13, 19599, Note_on_c, 11, 60, 0
13, 19599, Note_on_c, 11, 62, 0
13, 19680, Note_on_c, 11, 58, 21
13, 19680, Note_on_c, 11, 62, 21
13, 19799, Note_on_c, 11, 62, 0
13, 19799, Note_on_c, 11, 58, 0
13, 20160, Note_on_c, 11, 60, 24
13, 20219, Note_on_c, 11, 60, 0
13, 20400, Note_on_c, 11, 59, 24
13, 20459, Note_on_c, 11, 59, 0
13, 20640, Note_on_c, 11, 55, 24
13, 20699, Note_on_c, 11, 55, 0
13, 21119, Control_c, 11, 11, 66
13, 21120, Note_on_c, 11, 60, 34
13, 21121, Control_c, 11, 11, 67
13, 21136, Control_c, 11, 11, 68
13, 21151, Control_c, 11, 11, 69
13, 21166, Control_c, 11, 11, 70
13, 21181, Control_c, 11, 11, 71
13, 21196, Control_c, 11, 11, 72
13, 21211, Control_c, 11, 11, 73
13, 21226, Control_c, 11, 11, 74
13, 21241, Control_c, 11, 11, 75
13, 21256, Control_c, 11, 11, 76
13, 21271, Control_c, 11, 11, 77
13, 21286, Control_c, 11, 11, 78
13, 21301, Control_c, 11, 11, 80
13, 21316, Control_c, 11, 11, 82
13, 21331, Control_c, 11, 11, 84
13, 21346, Control_c, 11, 11, 86
13, 21361, Control_c, 11, 11, 88
13, 21376, Control_c, 11, 11, 90
13, 21391, Control_c, 11, 11, 92
13, 21406, Control_c, 11, 11, 94
13, 21421, Control_c, 11, 11, 96
13, 21436, Control_c, 11, 11, 98
13, 21451, Control_c, 11, 11, 100
13, 21466, Control_c, 11, 11, 103
13, 21481, Control_c, 11, 11, 106
13, 21496, Control_c, 11, 11, 109
13, 21511, Control_c, 11, 11, 112
13, 21526, Control_c, 11, 11, 115
13, 21541, Control_c, 11, 11, 118
13, 21556, Control_c, 11, 11, 121
13, 21571, Control_c, 11, 11, 124
13, 21586, Control_c, 11, 11, 127
13, 21599, Note_on_c, 11, 60, 0
13, 21599, Control_c, 11, 11, 127
13, 21600, Note_on_c, 11, 62, 24
13, 21719, Note_on_c, 11, 62, 0
13, 22080, Note_on_c, 11, 60, 20
13, 22259, Note_on_c, 11, 60, 0
13, 22260, Note_on_c, 11, 61, 23
13, 22319, Note_on_c, 11, 61, 0
13, 22320, Note_on_c, 11, 63, 24
13, 22499, Note_on_c, 11, 63, 0
13, 22500, Note_on_c, 11, 65, 28
13, 22559, Note_on_c, 11, 65, 0
13, 22559, Control_c, 11, 11, 66
13, 22560, Note_on_c, 11, 67, 38
13, 22561, Control_c, 11, 11, 67
13, 22579, Control_c, 11, 11, 68
13, 22597, Control_c, 11, 11, 69
13, 22615, Control_c, 11, 11, 70
13, 22633, Control_c, 11, 11, 71
13, 22651, Control_c, 11, 11, 72
13, 22669, Control_c, 11, 11, 73
13, 22687, Control_c, 11, 11, 74
13, 22705, Control_c, 11, 11, 75
13, 22723, Control_c, 11, 11, 76
13, 22741, Control_c, 11, 11, 77
13, 22759, Control_c, 11, 11, 78
13, 22777, Control_c, 11, 11, 80
13, 22795, Control_c, 11, 11, 82
13, 22813, Control_c, 11, 11, 84
13, 22831, Control_c, 11, 11, 86
13, 22849, Control_c, 11, 11, 88
13, 22867, Control_c, 11, 11, 90
13, 22885, Control_c, 11, 11, 92
13, 22903, Control_c, 11, 11, 94
13, 22921, Control_c, 11, 11, 96
13, 22939, Control_c, 11, 11, 98
13, 22957, Control_c, 11, 11, 100
13, 22975, Control_c, 11, 11, 103
13, 22993, Control_c, 11, 11, 106
13, 23011, Control_c, 11, 11, 109
13, 23029, Control_c, 11, 11, 112
13, 23047, Control_c, 11, 11, 115
13, 23065, Control_c, 11, 11, 118
13, 23079, Note_on_c, 11, 67, 0
13, 23083, Control_c, 11, 11, 121
13, 23101, Control_c, 11, 11, 124
13, 23119, Control_c, 11, 11, 127
13, 23159, Control_c, 11, 11, 127
13, 23160, Note_on_c, 11, 62, 19
13, 23199, Note_on_c, 11, 62, 0
13, 23280, Note_on_c, 11, 62, 19
13, 23319, Note_on_c, 11, 62, 0
13, 23400, Note_on_c, 11, 62, 19
13, 23400, Note_on_c, 11, 60, 19
13, 23439, Note_on_c, 11, 60, 0
13, 23439, Note_on_c, 11, 62, 0
13, 23520, Note_on_c, 11, 58, 21
13, 23520, Note_on_c, 11, 62, 21
13, 23639, Note_on_c, 11, 62, 0
13, 23639, Note_on_c, 11, 58, 0
13, 23760, Control_c, 11, 7, 97
13, 24000, Note_on_c, 11, 55, 23
13, 24599, Note_on_c, 11, 55, 0
13, 24840, Note_on_c, 11, 62, 23
13, 24959, Note_on_c, 11, 62, 0
13, 24960, Note_on_c, 11, 63, 23
13, 25079, Note_on_c, 11, 63, 0
13, 25080, Note_on_c, 11, 60, 20
13, 25319, Note_on_c, 11, 60, 0
13, 25320, Note_on_c, 11, 55, 17
13, 25439, Note_on_c, 11, 55, 0
13, 25440, Note_on_c, 11, 55, 16
13, 25559, Note_on_c, 11, 55, 0
13, 25920, Note_on_c, 11, 53, 23
13, 26099, Note_on_c, 11, 53, 0
13, 26100, Note_on_c, 11, 55, 23
13, 26149, Note_on_c, 11, 55, 0
13, 26160, Note_on_c, 11, 56, 23
13, 26339, Note_on_c, 11, 56, 0
13, 26340, Note_on_c, 11, 58, 23
13, 26389, Note_on_c, 11, 58, 0
13, 26400, Note_on_c, 11, 61, 23
13, 26519, Note_on_c, 11, 61, 0
13, 26520, Note_on_c, 11, 60, 23
13, 26639, Note_on_c, 11, 60, 0
13, 26760, Note_on_c, 11, 54, 23
13, 26879, Note_on_c, 11, 54, 0
13, 26880, Note_on_c, 11, 55, 23
13, 26999, Note_on_c, 11, 55, 0
13, 27000, Note_on_c, 11, 53, 23
13, 27059, Note_on_c, 11, 53, 0
13, 27060, Note_on_c, 11, 51, 23
13, 27119, Note_on_c, 11, 51, 0
13, 27120, Note_on_c, 11, 51, 23
13, 27239, Note_on_c, 11, 51, 0
13, 27240, Note_on_c, 11, 50, 20
13, 27359, Note_on_c, 11, 50, 0
13, 27360, Note_on_c, 11, 51, 18
13, 27479, Note_on_c, 11, 51, 0
13, 27840, Note_on_c, 11, 55, 21
13, 28439, Note_on_c, 11, 55, 0
13, 28680, Note_on_c, 11, 62, 31
13, 28799, Note_on_c, 11, 62, 0
13, 28800, Note_on_c, 11, 63, 21
13, 28919, Note_on_c, 11, 63, 0
13, 28920, Note_on_c, 11, 60, 19
13, 29159, Note_on_c, 11, 60, 0
13, 29160, Note_on_c, 11, 55, 16
13, 29279, Note_on_c, 11, 55, 0
13, 29280, Note_on_c, 11, 55, 15
13, 29399, Note_on_c, 11, 55, 0
13, 29760, Note_on_c, 11, 53, 21
13, 29939, Note_on_c, 11, 53, 0
13, 29940, Note_on_c, 11, 55, 21
13, 29989, Note_on_c, 11, 55, 0
13, 30000, Note_on_c, 11, 56, 21
13, 30179, Note_on_c, 11, 56, 0
13, 30180, Note_on_c, 11, 58, 21
13, 30229, Note_on_c, 11, 58, 0
13, 30240, Note_on_c, 11, 61, 21
13, 30359, Note_on_c, 11, 61, 0
13, 30360, Note_on_c, 11, 60, 21
13, 30479, Note_on_c, 11, 60, 0
13, 30600, Note_on_c, 11, 54, 21
13, 30719, Note_on_c, 11, 54, 0
13, 30720, Note_on_c, 11, 55, 21
13, 30839, Note_on_c, 11, 55, 0
13, 30840, Note_on_c, 11, 53, 21
13, 30899, Note_on_c, 11, 53, 0
13, 30900, Note_on_c, 11, 51, 21
13, 30959, Note_on_c, 11, 51, 0
13, 30960, Note_on_c, 11, 51, 21
13, 31079, Note_on_c, 11, 51, 0
13, 31080, Note_on_c, 11, 50, 19
13, 31199, Note_on_c, 11, 50, 0
13, 31200, Note_on_c, 11, 51, 17
13, 31319, Note_on_c, 11, 51, 0
13, 35280, Control_c, 11, 7, 107
13, 35520, Note_on_c, 11, 55, 44
13, 35609, Note_on_c, 11, 55, 0
13, 35760, Note_on_c, 11, 53, 44
13, 35849, Note_on_c, 11, 53, 0
13, 36000, Note_on_c, 11, 51, 44
13, 36089, Note_on_c, 11, 51, 0
13, 36360, Note_on_c, 11, 55, 44
13, 36389, Note_on_c, 11, 55, 0
13, 36480, Note_on_c, 11, 48, 44
13, 36959, Note_on_c, 11, 48, 0
13, 36960, Note_on_c, 11, 50, 34
13, 37079, Note_on_c, 11, 50, 0
13, 37320, Note_on_c, 11, 62, 32
13, 37439, Note_on_c, 11, 62, 0
13, 37440, Note_on_c, 11, 63, 33
13, 37679, Note_on_c, 11, 63, 0
13, 37680, Note_on_c, 11, 58, 37
13, 38159, Note_on_c, 11, 58, 0
13, 38160, Note_on_c, 11, 55, 44
13, 38499, Note_on_c, 11, 55, 0
13, 38520, Note_on_c, 11, 55, 44
13, 38759, Note_on_c, 11, 55, 0
13, 38760, Note_on_c, 11, 57, 44
13, 38879, Note_on_c, 11, 57, 0
13, 38880, Note_on_c, 11, 55, 34
13, 38969, Note_on_c, 11, 55, 0
13, 43200, Note_on_c, 11, 55, 33
13, 43799, Note_on_c, 11, 55, 0
13, 44040, Note_on_c, 11, 50, 33
13, 44159, Note_on_c, 11, 50, 0
13, 44160, Note_on_c, 11, 52, 32
13, 44279, Note_on_c, 11, 52, 0
13, 44280, Note_on_c, 11, 55, 31
13, 44399, Note_on_c, 11, 55, 0
13, 44400, Note_on_c, 11, 57, 31
13, 44519, Note_on_c, 11, 57, 0
13, 44520, Note_on_c, 11, 59, 30
13, 44639, Note_on_c, 11, 59, 0
13, 44640, Note_on_c, 11, 60, 29
13, 44759, Note_on_c, 11, 60, 0
13, 45000, Note_on_c, 11, 63, 34
13, 45119, Note_on_c, 11, 63, 0
13, 45120, Note_on_c, 11, 68, 34
13, 45359, Note_on_c, 11, 68, 0
13, 45360, Note_on_c, 11, 63, 36
13, 45839, Note_on_c, 11, 63, 0
13, 45840, Note_on_c, 11, 60, 33
13, 46169, Note_on_c, 11, 60, 0
13, 46200, Note_on_c, 11, 55, 33
13, 46439, Note_on_c, 11, 55, 0
13, 46440, Note_on_c, 11, 53, 29
13, 46559, Note_on_c, 11, 53, 0
13, 46560, Note_on_c, 11, 51, 23
13, 46679, Note_on_c, 11, 51, 0
13, 50400, Control_c, 11, 7, 127
13, 50400, Control_c, 11, 0, 0
13, 50401, Control_c, 11, 32, 0
13, 50402, Program_c, 11, 48
13, 50880, Note_on_c, 11, 72, 68
13, 50969, Note_on_c, 11, 72, 0
13, 51000, Note_on_c, 11, 72, 59
13, 51029, Note_on_c, 11, 72, 0
13, 51090, Note_on_c, 11, 72, 59
13, 51119, Note_on_c, 11, 72, 0
13, 51120, Note_on_c, 11, 67, 68
13, 51209, Note_on_c, 11, 67, 0
13, 51240, Note_on_c, 11, 67, 59
13, 51269, Note_on_c, 11, 67, 0
13, 51330, Note_on_c, 11, 67, 59
13, 51359, Note_on_c, 11, 67, 0
13, 51360, Note_on_c, 11, 63, 68
13, 51449, Note_on_c, 11, 63, 0
13, 51480, Note_on_c, 11, 63, 59
13, 51509, Note_on_c, 11, 63, 0
13, 51570, Note_on_c, 11, 63, 59
13, 51599, Note_on_c, 11, 63, 0
13, 51600, Note_on_c, 11, 60, 68
13, 51689, Note_on_c, 11, 60, 0
13, 51720, Note_on_c, 11, 60, 59
13, 51749, Note_on_c, 11, 60, 0
13, 51810, Note_on_c, 11, 60, 59
13, 51839, Note_on_c, 11, 60, 0
13, 51840, Note_on_c, 11, 56, 68
13, 51929, Note_on_c, 11, 56, 0
13, 51960, Note_on_c, 11, 56, 59
13, 51989, Note_on_c, 11, 56, 0
13, 52050, Note_on_c, 11, 56, 59
13, 52079, Note_on_c, 11, 56, 0
13, 52080, Note_on_c, 11, 56, 68
13, 52169, Note_on_c, 11, 56, 0
13, 52200, Note_on_c, 11, 56, 59
13, 52229, Note_on_c, 11, 56, 0
13, 52290, Note_on_c, 11, 56, 59
13, 52319, Note_on_c, 11, 56, 0
13, 52320, Note_on_c, 11, 55, 68
13, 52439, Note_on_c, 11, 55, 0
13, 52800, Note_on_c, 11, 63, 68
13, 52889, Note_on_c, 11, 63, 0
13, 52920, Note_on_c, 11, 63, 59
13, 52949, Note_on_c, 11, 63, 0
13, 53010, Note_on_c, 11, 63, 59
13, 53039, Note_on_c, 11, 63, 0
13, 53040, Note_on_c, 11, 63, 59
13, 53129, Note_on_c, 11, 63, 0
13, 53160, Note_on_c, 11, 63, 60
13, 53249, Note_on_c, 11, 63, 0
13, 53280, Note_on_c, 11, 63, 70
13, 53369, Note_on_c, 11, 63, 0
13, 53400, Note_on_c, 11, 63, 61
13, 53429, Note_on_c, 11, 63, 0
13, 53490, Note_on_c, 11, 63, 62
13, 53519, Note_on_c, 11, 63, 0
13, 53520, Note_on_c, 11, 63, 62
13, 53609, Note_on_c, 11, 63, 0
13, 53640, Note_on_c, 11, 63, 62
13, 53699, Note_on_c, 11, 63, 0
13, 53760, Note_on_c, 11, 62, 72
13, 53849, Note_on_c, 11, 62, 0
13, 53880, Note_on_c, 11, 62, 63
13, 53909, Note_on_c, 11, 62, 0
13, 53970, Note_on_c, 11, 62, 63
13, 53999, Note_on_c, 11, 62, 0
13, 54000, Note_on_c, 11, 62, 63
13, 54089, Note_on_c, 11, 62, 0
13, 54120, Note_on_c, 11, 62, 64
13, 54149, Note_on_c, 11, 62, 0
13, 54210, Note_on_c, 11, 62, 64
13, 54239, Note_on_c, 11, 62, 0
13, 54240, Note_on_c, 11, 55, 66
13, 54299, Note_on_c, 11, 55, 0
13, 54300, Note_on_c, 11, 57, 68
13, 54329, Note_on_c, 11, 57, 0
13, 54330, Note_on_c, 11, 58, 72
13, 54359, Note_on_c, 11, 58, 0
13, 54360, Note_on_c, 11, 60, 72
13, 54389, Note_on_c, 11, 60, 0
13, 54390, Note_on_c, 11, 62, 73
13, 54419, Note_on_c, 11, 62, 0
13, 54420, Note_on_c, 11, 64, 75
13, 54449, Note_on_c, 11, 64, 0
13, 54450, Note_on_c, 11, 66, 76
13, 54479, Note_on_c, 11, 66, 0
13, 54480, Note_on_c, 11, 67, 78
13, 54539, Note_on_c, 11, 67, 0
13, 58560, Note_on_c, 11, 59, 88
13, 58619, Note_on_c, 11, 59, 0
13, 58680, Note_on_c, 11, 59, 88
13, 58709, Note_on_c, 11, 59, 0
13, 58770, Note_on_c, 11, 59, 88
13, 58799, Note_on_c, 11, 59, 0
13, 58800, Note_on_c, 11, 60, 88
13, 58899, Note_on_c, 11, 60, 0
13, 58920, Note_on_c, 11, 60, 88
13, 58959, Note_on_c, 11, 60, 0
13, 59010, Note_on_c, 11, 60, 88
13, 59039, Note_on_c, 11, 60, 0
13, 59040, Note_on_c, 11, 67, 88
13, 59129, Note_on_c, 11, 67, 0
13, 59160, Note_on_c, 11, 67, 88
13, 59189, Note_on_c, 11, 67, 0
13, 59250, Note_on_c, 11, 67, 88
13, 59279, Note_on_c, 11, 67, 0
13, 59280, Note_on_c, 11, 65, 88
13, 59379, Note_on_c, 11, 65, 0
13, 59400, Note_on_c, 11, 65, 88
13, 59439, Note_on_c, 11, 65, 0
13, 59490, Note_on_c, 11, 65, 88
13, 59519, Note_on_c, 11, 65, 0
13, 59520, Note_on_c, 11, 63, 88
13, 59619, Note_on_c, 11, 63, 0
13, 59640, Note_on_c, 11, 63, 88
13, 59679, Note_on_c, 11, 63, 0
13, 59730, Note_on_c, 11, 63, 88
13, 59759, Note_on_c, 11, 63, 0
13, 59760, Note_on_c, 11, 62, 88
13, 59849, Note_on_c, 11, 62, 0
13, 59880, Note_on_c, 11, 62, 88
13, 59919, Note_on_c, 11, 62, 0
13, 59970, Note_on_c, 11, 62, 88
13, 59999, Note_on_c, 11, 62, 0
13, 60000, Note_on_c, 11, 60, 88
13, 60089, Note_on_c, 11, 60, 0
13, 60480, Note_on_c, 11, 56, 77
13, 60569, Note_on_c, 11, 56, 0
13, 60600, Note_on_c, 11, 56, 78
13, 60629, Note_on_c, 11, 56, 0
13, 60690, Note_on_c, 11, 56, 79
13, 60719, Note_on_c, 11, 56, 0
13, 60720, Note_on_c, 11, 56, 79
13, 60809, Note_on_c, 11, 56, 0
13, 60840, Note_on_c, 11, 56, 81
13, 60899, Note_on_c, 11, 56, 0
13, 60960, Note_on_c, 11, 56, 82
13, 61049, Note_on_c, 11, 56, 0
13, 61080, Note_on_c, 11, 56, 84
13, 61119, Note_on_c, 11, 56, 0
13, 61170, Note_on_c, 11, 56, 85
13, 61199, Note_on_c, 11, 56, 0
13, 61200, Note_on_c, 11, 56, 85
13, 61289, Note_on_c, 11, 56, 0
13, 61320, Note_on_c, 11, 56, 87
13, 61379, Note_on_c, 11, 56, 0
13, 61440, Note_on_c, 11, 55, 87
13, 61529, Note_on_c, 11, 55, 0
13, 61560, Note_on_c, 11, 55, 87
13, 61599, Note_on_c, 11, 55, 0
13, 61650, Note_on_c, 11, 55, 87
13, 61679, Note_on_c, 11, 55, 0
13, 61680, Note_on_c, 11, 55, 87
13, 61749, Note_on_c, 11, 55, 0
13, 61800, Note_on_c, 11, 55, 87
13, 61849, Note_on_c, 11, 55, 0
13, 61890, Note_on_c, 11, 55, 87
13, 61919, Note_on_c, 11, 55, 0
13, 61920, Note_on_c, 11, 48, 66
13, 61979, Note_on_c, 11, 48, 0
13, 61980, Note_on_c, 11, 50, 71
13, 62009, Note_on_c, 11, 50, 0
13, 62010, Note_on_c, 11, 51, 73
13, 62039, Note_on_c, 11, 51, 0
13, 62040, Note_on_c, 11, 53, 76
13, 62069, Note_on_c, 11, 53, 0
13, 62070, Note_on_c, 11, 55, 79
13, 62099, Note_on_c, 11, 55, 0
13, 62100, Note_on_c, 11, 57, 81
13, 62129, Note_on_c, 11, 57, 0
13, 62130, Note_on_c, 11, 59, 84
13, 62159, Note_on_c, 11, 59, 0
13, 62160, Note_on_c, 11, 60, 86
13, 62219, Note_on_c, 11, 60, 0
13, 66240, Note_on_c, 11, 51, 24
13, 66269, Note_on_c, 11, 51, 0
13, 66360, Note_on_c, 11, 51, 24
13, 66389, Note_on_c, 11, 51, 0
13, 66480, Note_on_c, 11, 49, 24
13, 66509, Note_on_c, 11, 49, 0
13, 66600, Note_on_c, 11, 49, 25
13, 66629, Note_on_c, 11, 49, 0
13, 66720, Note_on_c, 11, 48, 25
13, 66749, Note_on_c, 11, 48, 0
13, 67080, Note_on_c, 11, 53, 26
13, 67109, Note_on_c, 11, 53, 0
13, 67200, Note_on_c, 11, 53, 26
13, 67229, Note_on_c, 11, 53, 0
13, 67320, Note_on_c, 11, 51, 27
13, 67349, Note_on_c, 11, 51, 0
13, 67440, Note_on_c, 11, 53, 27
13, 67469, Note_on_c, 11, 53, 0
13, 67560, Note_on_c, 11, 53, 27
13, 67589, Note_on_c, 11, 53, 0
13, 67800, Note_on_c, 11, 58, 28
13, 68039, Note_on_c, 11, 58, 0
13, 68040, Note_on_c, 11, 58, 29
13, 68099, Note_on_c, 11, 58, 0
13, 68160, Note_on_c, 11, 58, 29
13, 68189, Note_on_c, 11, 58, 0
13, 68280, Note_on_c, 11, 56, 29
13, 68309, Note_on_c, 11, 56, 0
13, 68400, Note_on_c, 11, 58, 30
13, 68429, Note_on_c, 11, 58, 0
13, 68520, Note_on_c, 11, 51, 30
13, 68549, Note_on_c, 11, 51, 0
13, 68640, Note_on_c, 11, 51, 30
13, 68669, Note_on_c, 11, 51, 0
13, 68760, Note_on_c, 11, 63, 31
13, 68999, Note_on_c, 11, 63, 0
13, 69120, Note_on_c, 11, 58, 25
13, 69149, Note_on_c, 11, 58, 0
13, 69240, Note_on_c, 11, 60, 25
13, 69269, Note_on_c, 11, 60, 0
13, 69360, Note_on_c, 11, 58, 25
13, 69389, Note_on_c, 11, 58, 0
13, 69480, Note_on_c, 11, 56, 26
13, 69509, Note_on_c, 11, 56, 0
13, 69600, Note_on_c, 11, 56, 26
13, 69719, Note_on_c, 11, 56, 0
13, 69720, Note_on_c, 11, 55, 19
13, 69809, Note_on_c, 11, 55, 0
13, 73920, Note_on_c, 11, 51, 28
13, 73949, Note_on_c, 11, 51, 0
13, 74040, Note_on_c, 11, 51, 28
13, 74069, Note_on_c, 11, 51, 0
13, 74160, Note_on_c, 11, 51, 28
13, 74189, Note_on_c, 11, 51, 0
13, 74280, Note_on_c, 11, 51, 28
13, 74309, Note_on_c, 11, 51, 0
13, 74400, Note_on_c, 11, 51, 28
13, 74429, Note_on_c, 11, 51, 0
13, 74520, Note_on_c, 11, 51, 28
13, 74879, Note_on_c, 11, 51, 0
13, 75000, Note_on_c, 11, 51, 28
13, 75029, Note_on_c, 11, 51, 0
13, 75120, Note_on_c, 11, 55, 28
13, 75149, Note_on_c, 11, 55, 0
13, 75240, Note_on_c, 11, 55, 28
13, 75269, Note_on_c, 11, 55, 0
13, 75360, Note_on_c, 11, 56, 28
13, 75389, Note_on_c, 11, 56, 0
13, 75480, Note_on_c, 11, 54, 28
13, 75839, Note_on_c, 11, 54, 0
13, 75840, Note_on_c, 11, 53, 28
13, 75869, Note_on_c, 11, 53, 0
13, 75960, Note_on_c, 11, 51, 28
13, 76529, Note_on_c, 11, 51, 0
13, 76560, Note_on_c, 11, 49, 28
13, 76679, Note_on_c, 11, 49, 0
13, 76680, Note_on_c, 11, 53, 28
13, 76769, Note_on_c, 11, 53, 0
13, 76800, Note_on_c, 11, 51, 28
13, 77159, Note_on_c, 11, 51, 0
13, 77160, Note_on_c, 11, 49, 28
13, 77219, Note_on_c, 11, 49, 0
13, 77280, Note_on_c, 11, 49, 22
13, 77399, Note_on_c, 11, 49, 0
13, 77400, Note_on_c, 11, 48, 17
13, 77469, Note_on_c, 11, 48, 0
13, 83520, Note_on_c, 11, 63, 30
13, 83759, Note_on_c, 11, 63, 0
13, 83760, Note_on_c, 11, 58, 30
13, 83999, Note_on_c, 11, 58, 0
13, 84000, Note_on_c, 11, 60, 30
13, 84239, Note_on_c, 11, 60, 0
13, 84240, Note_on_c, 11, 58, 30
13, 84719, Note_on_c, 11, 58, 0
13, 84720, Note_on_c, 11, 60, 30
13, 84959, Note_on_c, 11, 60, 0
13, 84960, Note_on_c, 11, 62, 30
13, 85199, Note_on_c, 11, 62, 0
13, 85200, Note_on_c, 11, 63, 30
13, 85439, Note_on_c, 11, 63, 0
13, 85440, Note_on_c, 11, 57, 34
13, 85559, Note_on_c, 11, 57, 0
13, 85560, Note_on_c, 11, 55, 32
13, 85679, Note_on_c, 11, 55, 0
13, 85680, Note_on_c, 11, 63, 30
13, 85799, Note_on_c, 11, 63, 0
13, 85860, Note_on_c, 11, 60, 27
13, 85919, Note_on_c, 11, 60, 0
13, 85920, Note_on_c, 11, 58, 26
13, 86039, Note_on_c, 11, 58, 0
13, 90744, Control_c, 11, 74, 74
13, 90746, Control_c, 11, 0, 0
13, 90748, Control_c, 11, 32, 0
13, 90750, Program_c, 11, 49
13, 92160, Note_on_c, 11, 56, 38
13, 92399, Note_on_c, 11, 56, 0
13, 92400, Note_on_c, 11, 51, 38
13, 92639, Note_on_c, 11, 51, 0
13, 92640, Note_on_c, 11, 53, 38
13, 92879, Note_on_c, 11, 53, 0
13, 92880, Note_on_c, 11, 51, 38
13, 93359, Note_on_c, 11, 51, 0
13, 93360, Note_on_c, 11, 53, 38
13, 93599, Note_on_c, 11, 53, 0
13, 93600, Note_on_c, 11, 55, 38
13, 93839, Note_on_c, 11, 55, 0
13, 93840, Note_on_c, 11, 56, 38
13, 94079, Note_on_c, 11, 56, 0
13, 94080, Note_on_c, 11, 50, 43
13, 94199, Note_on_c, 11, 50, 0
13, 94200, Note_on_c, 11, 48, 40
13, 94319, Note_on_c, 11, 48, 0
13, 94320, Note_on_c, 11, 56, 38
13, 94439, Note_on_c, 11, 56, 0
13, 94500, Note_on_c, 11, 53, 34
13, 94559, Note_on_c, 11, 53, 0
13, 94560, Note_on_c, 11, 51, 33
13, 94679, Note_on_c, 11, 51, 0
13, 98880, Note_on_c, 11, 55, 33
13, 99359, Note_on_c, 11, 55, 0
13, 99360, Note_on_c, 11, 57, 33
13, 99599, Note_on_c, 11, 57, 0
13, 99600, Note_on_c, 11, 55, 33
13, 99719, Note_on_c, 11, 55, 0
13, 99720, Note_on_c, 11, 58, 33
13, 99839, Note_on_c, 11, 58, 0
13, 99840, Note_on_c, 11, 57, 33
13, 99959, Note_on_c, 11, 57, 0
13, 100200, Note_on_c, 11, 57, 33
13, 100319, Note_on_c, 11, 57, 0
13, 100320, Note_on_c, 11, 55, 33
13, 100679, Note_on_c, 11, 55, 0
13, 100800, Note_on_c, 11, 62, 37
13, 101759, Note_on_c, 11, 62, 0
13, 101760, Note_on_c, 11, 64, 37
13, 101819, Note_on_c, 11, 64, 0
13, 101970, Note_on_c, 11, 64, 37
13, 101999, Note_on_c, 11, 64, 0
13, 102000, Note_on_c, 11, 62, 37
13, 102029, Note_on_c, 11, 62, 0
13, 102120, Note_on_c, 11, 60, 37
13, 102149, Note_on_c, 11, 60, 0
13, 102240, Note_on_c, 11, 60, 37
13, 102479, Note_on_c, 11, 60, 0
13, 102480, Note_on_c, 11, 59, 37
13, 102539, Note_on_c, 11, 59, 0
13, 104152, Control_c, 11, 74, 64
13, 104154, Control_c, 11, 73, 64
13, 104156, Control_c, 11, 0, 0
13, 104158, Control_c, 11, 32, 0
13, 104160, Program_c, 11, 48
13, 106545, Control_c, 11, 7, 87
13, 107040, Note_on_c, 11, 57, 23
13, 107279, Note_on_c, 11, 57, 0
13, 107280, Note_on_c, 11, 55, 23
13, 107519, Note_on_c, 11, 55, 0
13, 107580, Note_on_c, 11, 62, 23
13, 107639, Note_on_c, 11, 62, 0
13, 107640, Note_on_c, 11, 60, 23
13, 107699, Note_on_c, 11, 60, 0
13, 107700, Note_on_c, 11, 58, 23
13, 107759, Note_on_c, 11, 58, 0
13, 107760, Note_on_c, 11, 57, 23
13, 107879, Note_on_c, 11, 57, 0
13, 108000, Note_on_c, 11, 55, 23
13, 108359, Note_on_c, 11, 55, 0
13, 108480, Note_on_c, 11, 55, 23
13, 109319, Note_on_c, 11, 55, 0
13, 109320, Note_on_c, 11, 59, 23
13, 109439, Note_on_c, 11, 59, 0
13, 109440, Note_on_c, 11, 60, 23
13, 109499, Note_on_c, 11, 60, 0
13, 109680, Note_on_c, 11, 57, 23
13, 109680, Note_on_c, 11, 55, 23
13, 109739, Note_on_c, 11, 55, 0
13, 109739, Note_on_c, 11, 57, 0
13, 109800, Note_on_c, 11, 55, 23
13, 109859, Note_on_c, 11, 55, 0
13, 109920, Note_on_c, 11, 55, 20
13, 110279, Note_on_c, 11, 55, 0
13, 111840, Control_c, 11, 7, 127
13, 112320, Note_on_c, 11, 55, 34
13, 112439, Note_on_c, 11, 55, 0
13, 112440, Note_on_c, 11, 55, 34
13, 112559, Note_on_c, 11, 55, 0
13, 112800, Note_on_c, 11, 55, 30
13, 112889, Note_on_c, 11, 55, 0
13, 113160, Note_on_c, 11, 60, 34
13, 113399, Note_on_c, 11, 60, 0
13, 113400, Note_on_c, 11, 60, 34
13, 113639, Note_on_c, 11, 60, 0
13, 113640, Note_on_c, 11, 60, 31
13, 113759, Note_on_c, 11, 60, 0
13, 113760, Note_on_c, 11, 62, 29
13, 113849, Note_on_c, 11, 62, 0
13, 114240, Note_on_c, 11, 51, 30
13, 114479, Note_on_c, 11, 51, 0
13, 114480, Note_on_c, 11, 53, 34
13, 114719, Note_on_c, 11, 53, 0
13, 114720, Note_on_c, 11, 56, 37
13, 114839, Note_on_c, 11, 56, 0
13, 114840, Note_on_c, 11, 55, 34
13, 114899, Note_on_c, 11, 55, 0
13, 114900, Note_on_c, 11, 53, 34
13, 114959, Note_on_c, 11, 53, 0
13, 114960, Note_on_c, 11, 51, 34
13, 115019, Note_on_c, 11, 51, 0
13, 115080, Note_on_c, 11, 61, 34
13, 115199, Note_on_c, 11, 61, 0
13, 115200, Note_on_c, 11, 62, 44
13, 115259, Note_on_c, 11, 62, 0
13, 115440, Note_on_c, 11, 62, 44
13, 115499, Note_on_c, 11, 62, 0
13, 115680, Note_on_c, 11, 62, 34
13, 115769, Note_on_c, 11, 62, 0
13, 116040, Note_on_c, 11, 55, 34
13, 116279, Note_on_c, 11, 55, 0
13, 116280, Note_on_c, 11, 55, 34
13, 116519, Note_on_c, 11, 55, 0
13, 116520, Note_on_c, 11, 55, 29
13, 116699, Note_on_c, 11, 55, 0
13, 117000, Note_on_c, 11, 50, 34
13, 117119, Note_on_c, 11, 50, 0
13, 117120, Note_on_c, 11, 51, 28
13, 117209, Note_on_c, 11, 51, 0
13, 117240, Note_on_c, 11, 51, 32
13, 117359, Note_on_c, 11, 51, 0
13, 117360, Note_on_c, 11, 53, 27
13, 117449, Note_on_c, 11, 53, 0
13, 117480, Note_on_c, 11, 53, 31
13, 117599, Note_on_c, 11, 53, 0
13, 117600, Note_on_c, 11, 55, 25
13, 117689, Note_on_c, 11, 55, 0
13, 118080, Note_on_c, 11, 56, 30
13, 118319, Note_on_c, 11, 56, 0
13, 118320, Note_on_c, 11, 58, 34
13, 118559, Note_on_c, 11, 58, 0
13, 118560, Note_on_c, 11, 61, 41
13, 118679, Note_on_c, 11, 61, 0
13, 118680, Note_on_c, 11, 60, 34
13, 118739, Note_on_c, 11, 60, 0
13, 118740, Note_on_c, 11, 58, 34
13, 118799, Note_on_c, 11, 58, 0
13, 118800, Note_on_c, 11, 56, 34
13, 118859, Note_on_c, 11, 56, 0
13, 118920, Note_on_c, 11, 66, 34
13, 118999, Note_on_c, 11, 66, 0
13, 119040, Note_on_c, 11, 67, 44
13, 119099, Note_on_c, 11, 67, 0
13, 119280, Note_on_c, 11, 55, 44
13, 119339, Note_on_c, 11, 55, 0
13, 119520, Note_on_c, 11, 55, 23
13, 119609, Note_on_c, 11, 55, 0
13, 119880, Note_on_c, 11, 55, 29
13, 119999, Note_on_c, 11, 55, 0
13, 120000, Note_on_c, 11, 55, 32
13, 120119, Note_on_c, 11, 55, 0
13, 120360, Note_on_c, 11, 55, 38
13, 120479, Note_on_c, 11, 55, 0
13, 120480, Note_on_c, 11, 53, 41
13, 120599, Note_on_c, 11, 53, 0
13, 120840, Note_on_c, 11, 53, 47
13, 120959, Note_on_c, 11, 53, 0
13, 120960, Note_on_c, 11, 48, 50
13, 121439, Note_on_c, 11, 48, 0
13, 121440, Note_on_c, 11, 50, 59
13, 121559, Note_on_c, 11, 50, 0
13, 138015, Control_c, 11, 0, 1
13, 138015, Control_c, 11, 32, 0
13, 138030, Program_c, 11, 48
13, 138045, Control_c, 11, 7, 107
13, 138420, Note_on_c, 11, 51, 31
13, 138479, Note_on_c, 11, 51, 0
13, 138480, Note_on_c, 11, 53, 35
13, 138539, Note_on_c, 11, 53, 0
13, 138540, Note_on_c, 11, 55, 37
13, 138599, Note_on_c, 11, 55, 0
13, 138600, Note_on_c, 11, 53, 41
13, 138659, Note_on_c, 11, 53, 0
13, 138660, Note_on_c, 11, 55, 42
13, 138719, Note_on_c, 11, 55, 0
13, 138720, Note_on_c, 11, 53, 43
13, 138839, Note_on_c, 11, 53, 0
13, 138840, Note_on_c, 11, 51, 46
13, 138879, Note_on_c, 11, 51, 0
13, 138900, Note_on_c, 11, 53, 47
13, 139019, Note_on_c, 11, 53, 0
13, 139020, Note_on_c, 11, 51, 50
13, 139059, Note_on_c, 11, 51, 0
13, 139080, Note_on_c, 11, 53, 52
13, 139259, Note_on_c, 11, 53, 0
13, 139260, Note_on_c, 11, 55, 33
13, 139319, Note_on_c, 11, 55, 0
13, 139440, Note_on_c, 11, 53, 34
13, 139559, Note_on_c, 11, 53, 0
13, 139560, Note_on_c, 11, 51, 36
13, 139599, Note_on_c, 11, 51, 0
13, 139620, Note_on_c, 11, 53, 38
13, 139739, Note_on_c, 11, 53, 0
13, 139740, Note_on_c, 11, 51, 40
13, 139779, Note_on_c, 11, 51, 0
13, 139800, Note_on_c, 11, 53, 42
13, 139979, Note_on_c, 11, 53, 0
13, 139980, Note_on_c, 11, 55, 33
13, 140039, Note_on_c, 11, 55, 0
13, 140100, Note_on_c, 11, 52, 30
13, 140159, Note_on_c, 11, 52, 0
13, 140160, Note_on_c, 11, 53, 31
13, 140279, Note_on_c, 11, 53, 0
13, 140280, Note_on_c, 11, 54, 33
13, 140339, Note_on_c, 11, 54, 0
13, 140340, Note_on_c, 11, 55, 35
13, 140459, Note_on_c, 11, 55, 0
13, 140460, Note_on_c, 11, 58, 38
13, 140519, Note_on_c, 11, 58, 0
13, 140520, Note_on_c, 11, 56, 39
13, 140549, Note_on_c, 11, 56, 0
13, 140580, Note_on_c, 11, 52, 30
13, 140639, Note_on_c, 11, 52, 0
13, 140640, Note_on_c, 11, 53, 31
13, 140699, Note_on_c, 11, 53, 0
13, 140700, Note_on_c, 11, 54, 33
13, 140759, Note_on_c, 11, 54, 0
13, 140760, Note_on_c, 11, 55, 35
13, 140819, Note_on_c, 11, 55, 0
13, 140820, Note_on_c, 11, 58, 37
13, 140879, Note_on_c, 11, 58, 0
13, 140880, Note_on_c, 11, 56, 39
13, 140909, Note_on_c, 11, 56, 0
13, 140940, Note_on_c, 11, 52, 30
13, 140999, Note_on_c, 11, 52, 0
13, 141000, Note_on_c, 11, 53, 30
13, 141059, Note_on_c, 11, 53, 0
13, 141060, Note_on_c, 11, 54, 33
13, 141119, Note_on_c, 11, 54, 0
13, 141120, Note_on_c, 11, 55, 35
13, 141179, Note_on_c, 11, 55, 0
13, 141180, Note_on_c, 11, 58, 37
13, 141239, Note_on_c, 11, 58, 0
13, 141240, Note_on_c, 11, 56, 39
13, 141269, Note_on_c, 11, 56, 0
13, 141360, Note_on_c, 11, 58, 45
13, 141419, Note_on_c, 11, 58, 0
13, 141420, Note_on_c, 11, 56, 47
13, 141449, Note_on_c, 11, 56, 0
13, 141540, Note_on_c, 11, 58, 52
13, 141599, Note_on_c, 11, 58, 0
13, 141600, Note_on_c, 11, 56, 57
13, 141629, Note_on_c, 11, 56, 0
13, 141960, Note_on_c, 11, 53, 53
13, 142319, Note_on_c, 11, 53, 0
13, 142320, Note_on_c, 11, 55, 43
13, 142359, Note_on_c, 11, 55, 0
13, 142500, Note_on_c, 11, 56, 43
13, 142539, Note_on_c, 11, 56, 0
13, 142680, Note_on_c, 11, 55, 43
13, 142719, Note_on_c, 11, 55, 0
13, 142860, Note_on_c, 11, 53, 43
13, 142899, Note_on_c, 11, 53, 0
13, 143040, Note_on_c, 11, 51, 43
13, 143079, Note_on_c, 11, 51, 0
13, 144120, Control_c, 11, 7, 127
13, 144540, Note_on_c, 11, 51, 31
13, 144599, Note_on_c, 11, 51, 0
13, 144600, Note_on_c, 11, 53, 35
13, 144659, Note_on_c, 11, 53, 0
13, 144660, Note_on_c, 11, 55, 37
13, 144719, Note_on_c, 11, 55, 0
13, 144720, Note_on_c, 11, 53, 41
13, 144779, Note_on_c, 11, 53, 0
13, 144780, Note_on_c, 11, 55, 42
13, 144839, Note_on_c, 11, 55, 0
13, 144840, Note_on_c, 11, 53, 43
13, 144959, Note_on_c, 11, 53, 0
13, 144960, Note_on_c, 11, 51, 46
13, 144999, Note_on_c, 11, 51, 0
13, 145020, Note_on_c, 11, 53, 47
13, 145139, Note_on_c, 11, 53, 0
13, 145140, Note_on_c, 11, 51, 50
13, 145179, Note_on_c, 11, 51, 0
13, 145200, Note_on_c, 11, 53, 52
13, 145379, Note_on_c, 11, 53, 0
13, 145380, Note_on_c, 11, 55, 33
13, 145439, Note_on_c, 11, 55, 0
13, 145560, Note_on_c, 11, 53, 34
13, 145679, Note_on_c, 11, 53, 0
13, 145680, Note_on_c, 11, 51, 36
13, 145719, Note_on_c, 11, 51, 0
13, 145740, Note_on_c, 11, 53, 38
13, 145859, Note_on_c, 11, 53, 0
13, 145860, Note_on_c, 11, 51, 40
13, 145899, Note_on_c, 11, 51, 0
13, 145920, Note_on_c, 11, 53, 42
13, 146099, Note_on_c, 11, 53, 0
13, 146100, Note_on_c, 11, 55, 33
13, 146159, Note_on_c, 11, 55, 0
13, 146220, Note_on_c, 11, 52, 30
13, 146279, Note_on_c, 11, 52, 0
13, 146280, Note_on_c, 11, 53, 31
13, 146399, Note_on_c, 11, 53, 0
13, 146400, Note_on_c, 11, 54, 33
13, 146459, Note_on_c, 11, 54, 0
13, 146460, Note_on_c, 11, 55, 35
13, 146579, Note_on_c, 11, 55, 0
13, 146580, Note_on_c, 11, 58, 38
13, 146639, Note_on_c, 11, 58, 0
13, 146640, Note_on_c, 11, 56, 39
13, 146669, Note_on_c, 11, 56, 0
13, 146700, Note_on_c, 11, 52, 30
13, 146759, Note_on_c, 11, 52, 0
13, 146760, Note_on_c, 11, 53, 31
13, 146819, Note_on_c, 11, 53, 0
13, 146820, Note_on_c, 11, 54, 33
13, 146879, Note_on_c, 11, 54, 0
13, 146880, Note_on_c, 11, 55, 35
13, 146939, Note_on_c, 11, 55, 0
13, 146940, Note_on_c, 11, 58, 37
13, 146999, Note_on_c, 11, 58, 0
13, 147000, Note_on_c, 11, 56, 39
13, 147029, Note_on_c, 11, 56, 0
13, 147060, Note_on_c, 11, 52, 30
13, 147119, Note_on_c, 11, 52, 0
13, 147120, Note_on_c, 11, 53, 30
13, 147179, Note_on_c, 11, 53, 0
13, 147180, Note_on_c, 11, 54, 33
13, 147239, Note_on_c, 11, 54, 0
13, 147240, Note_on_c, 11, 55, 35
13, 147299, Note_on_c, 11, 55, 0
13, 147300, Note_on_c, 11, 58, 37
13, 147359, Note_on_c, 11, 58, 0
13, 147360, Note_on_c, 11, 56, 39
13, 147389, Note_on_c, 11, 56, 0
13, 147480, Note_on_c, 11, 58, 45
13, 147539, Note_on_c, 11, 58, 0
13, 147540, Note_on_c, 11, 56, 47
13, 147569, Note_on_c, 11, 56, 0
13, 147660, Note_on_c, 11, 58, 52
13, 147719, Note_on_c, 11, 58, 0
13, 147720, Note_on_c, 11, 56, 57
13, 147749, Note_on_c, 11, 56, 0
13, 148080, Note_on_c, 11, 53, 53
13, 148439, Note_on_c, 11, 53, 0
13, 148440, Note_on_c, 11, 55, 43
13, 148479, Note_on_c, 11, 55, 0
13, 148620, Note_on_c, 11, 56, 43
13, 148649, Note_on_c, 11, 56, 0
13, 148800, Note_on_c, 11, 55, 43
13, 148829, Note_on_c, 11, 55, 0
13, 148980, Note_on_c, 11, 53, 43
13, 149009, Note_on_c, 11, 53, 0
13, 149160, Note_on_c, 11, 51, 43
13, 149199, Note_on_c, 11, 51, 0
13, 150600, Note_on_c, 11, 51, 19
13, 150600, Note_on_c, 11, 54, 25
13, 150959, Note_on_c, 11, 54, 0
13, 150959, Note_on_c, 11, 51, 0
13, 150960, Note_on_c, 11, 49, 20
13, 150960, Note_on_c, 11, 53, 26
13, 151139, Note_on_c, 11, 53, 0
13, 151139, Note_on_c, 11, 49, 0
13, 151140, Note_on_c, 11, 54, 28
13, 151140, Note_on_c, 11, 51, 22
13, 151319, Note_on_c, 11, 51, 0
13, 151319, Note_on_c, 11, 54, 0
13, 151320, Note_on_c, 11, 49, 22
13, 151320, Note_on_c, 11, 53, 29
13, 151499, Note_on_c, 11, 53, 0
13, 151499, Note_on_c, 11, 49, 0
13, 151500, Note_on_c, 11, 51, 23
13, 151500, Note_on_c, 11, 54, 31
13, 151679, Note_on_c, 11, 54, 0
13, 151680, Note_on_c, 11, 55, 25
13, 151979, Note_on_c, 11, 51, 0
13, 151980, Note_on_c, 11, 53, 21
13, 152039, Note_on_c, 11, 53, 0
13, 152039, Note_on_c, 11, 55, 0
13, 152040, Note_on_c, 11, 51, 32
13, 152040, Note_on_c, 11, 55, 32
13, 152097, Note_on_c, 11, 55, 0
13, 152097, Note_on_c, 11, 51, 0
13, 152400, Note_on_c, 11, 60, 32
13, 152438, Note_on_c, 11, 60, 0
13, 152580, Note_on_c, 11, 59, 32
13, 152618, Note_on_c, 11, 59, 0
13, 152760, Note_on_c, 11, 60, 32
13, 152817, Note_on_c, 11, 60, 0
13, 153120, Note_on_c, 11, 60, 32
13, 153158, Note_on_c, 11, 60, 0
13, 153300, Note_on_c, 11, 59, 32
13, 153338, Note_on_c, 11, 59, 0
13, 153480, Note_on_c, 11, 60, 32
13, 153537, Note_on_c, 11, 60, 0
13, 153840, Note_on_c, 11, 56, 35
13, 153899, Note_on_c, 11, 56, 0
13, 154020, Note_on_c, 11, 55, 37
13, 154079, Note_on_c, 11, 55, 0
13, 154200, Note_on_c, 11, 48, 52
13, 154259, Note_on_c, 11, 48, 0
13, 154260, Note_on_c, 11, 50, 45
13, 154289, Note_on_c, 11, 50, 0
13, 154290, Note_on_c, 11, 51, 46
13, 154319, Note_on_c, 11, 51, 0
13, 154320, Note_on_c, 11, 53, 47
13, 154349, Note_on_c, 11, 53, 0
13, 154350, Note_on_c, 11, 55, 48
13, 154379, Note_on_c, 11, 55, 0
13, 154380, Note_on_c, 11, 56, 49
13, 154409, Note_on_c, 11, 56, 0
13, 154410, Note_on_c, 11, 55, 50
13, 154439, Note_on_c, 11, 55, 0
13, 154440, Note_on_c, 11, 53, 51
13, 154469, Note_on_c, 11, 53, 0
13, 154470, Note_on_c, 11, 55, 52
13, 154499, Note_on_c, 11, 55, 0
13, 154500, Note_on_c, 11, 57, 53
13, 154529, Note_on_c, 11, 57, 0
13, 154530, Note_on_c, 11, 59, 54
13, 154559, Note_on_c, 11, 59, 0
13, 154560, Note_on_c, 11, 60, 55
13, 154589, Note_on_c, 11, 60, 0
13, 154590, Note_on_c, 11, 55, 56
13, 154619, Note_on_c, 11, 55, 0
13, 154620, Note_on_c, 11, 57, 57
13, 154649, Note_on_c, 11, 57, 0
13, 154650, Note_on_c, 11, 59, 58
13, 154679, Note_on_c, 11, 59, 0
13, 154680, Note_on_c, 11, 60, 59
13, 154709, Note_on_c, 11, 60, 0
13, 154710, Note_on_c, 11, 62, 60
13, 154739, Note_on_c, 11, 62, 0
13, 154740, Note_on_c, 11, 63, 61
13, 154769, Note_on_c, 11, 63, 0
13, 154770, Note_on_c, 11, 59, 62
13, 154799, Note_on_c, 11, 59, 0
13, 154800, Note_on_c, 11, 60, 63
13, 154829, Note_on_c, 11, 60, 0
13, 154830, Note_on_c, 11, 62, 64
13, 154859, Note_on_c, 11, 62, 0
13, 154860, Note_on_c, 11, 63, 64
13, 154889, Note_on_c, 11, 63, 0
13, 154890, Note_on_c, 11, 65, 66
13, 154919, Note_on_c, 11, 65, 0
13, 154920, Note_on_c, 11, 67, 67
13, 154979, Note_on_c, 11, 67, 0
13, 155100, Note_on_c, 11, 62, 72
13, 155100, Note_on_c, 11, 67, 72
13, 155159, Note_on_c, 11, 67, 0
13, 155159, Note_on_c, 11, 62, 0
13, 155280, Note_on_c, 11, 55, 79
13, 155280, Note_on_c, 11, 60, 79
13, 155339, Note_on_c, 11, 60, 0
13, 155339, Note_on_c, 11, 55, 0
13, 155339, End_track
14, 0, Start_track
14, 0, MIDI_port, 0
14, 0, Title_t, "Violincello"
14, 20, Control_c, 12, 121, 0
14, 21, Control_c, 12, 11, 127
14, 21, Control_c, 12, 7, 127
14, 22, Control_c, 12, 93, 10
14, 22, Control_c, 12, 91, 69
14, 25, Control_c, 12, 10, 64
14, 26, Pitch_bend_c, 12, 8192
14, 32, Control_c, 12, 0, 1
14, 34, Control_c, 12, 32, 0
14, 36, Program_c, 12, 48
14, 960, Note_on_c, 12, 48, 33
14, 1049, Note_on_c, 12, 48, 0
14, 1200, Note_on_c, 12, 43, 33
14, 1289, Note_on_c, 12, 43, 0
14, 1440, Note_on_c, 12, 48, 33
14, 1559, Note_on_c, 12, 48, 0
14, 1919, Control_c, 12, 11, 66
14, 1920, Note_on_c, 12, 44, 53
14, 1921, Control_c, 12, 11, 67
14, 1936, Control_c, 12, 11, 68
14, 1951, Control_c, 12, 11, 69
14, 1966, Control_c, 12, 11, 70
14, 1981, Control_c, 12, 11, 71
14, 1996, Control_c, 12, 11, 72
14, 2011, Control_c, 12, 11, 73
14, 2026, Control_c, 12, 11, 74
14, 2041, Control_c, 12, 11, 75
14, 2056, Control_c, 12, 11, 76
14, 2071, Control_c, 12, 11, 77
14, 2086, Control_c, 12, 11, 78
14, 2101, Control_c, 12, 11, 80
14, 2116, Control_c, 12, 11, 82
14, 2131, Control_c, 12, 11, 84
14, 2146, Control_c, 12, 11, 86
14, 2161, Control_c, 12, 11, 88
14, 2176, Control_c, 12, 11, 90
14, 2191, Control_c, 12, 11, 92
14, 2206, Control_c, 12, 11, 94
14, 2221, Control_c, 12, 11, 96
14, 2236, Control_c, 12, 11, 98
14, 2251, Control_c, 12, 11, 100
14, 2266, Control_c, 12, 11, 103
14, 2281, Control_c, 12, 11, 106
14, 2296, Control_c, 12, 11, 109
14, 2311, Control_c, 12, 11, 112
14, 2326, Control_c, 12, 11, 115
14, 2341, Control_c, 12, 11, 118
14, 2356, Control_c, 12, 11, 121
14, 2371, Control_c, 12, 11, 123
14, 2386, Control_c, 12, 11, 125
14, 2399, Note_on_c, 12, 44, 0
14, 2399, Control_c, 12, 11, 127
14, 2400, Note_on_c, 12, 43, 33
14, 2519, Note_on_c, 12, 43, 0
14, 2880, Note_on_c, 12, 51, 33
14, 3839, Note_on_c, 12, 51, 0
14, 3840, Note_on_c, 12, 50, 43
14, 3959, Note_on_c, 12, 50, 0
14, 4080, Note_on_c, 12, 50, 43
14, 4199, Note_on_c, 12, 50, 0
14, 4320, Note_on_c, 12, 43, 33
14, 4439, Note_on_c, 12, 43, 0
14, 4800, Note_on_c, 12, 48, 26
14, 4889, Note_on_c, 12, 48, 0
14, 5040, Note_on_c, 12, 43, 25
14, 5129, Note_on_c, 12, 43, 0
14, 5280, Note_on_c, 12, 48, 23
14, 5359, Note_on_c, 12, 48, 0
14, 5759, Control_c, 12, 11, 66
14, 5760, Note_on_c, 12, 44, 53
14, 5761, Control_c, 12, 11, 67
14, 5776, Control_c, 12, 11, 68
14, 5791, Control_c, 12, 11, 69
14, 5806, Control_c, 12, 11, 70
14, 5821, Control_c, 12, 11, 71
14, 5836, Control_c, 12, 11, 72
14, 5851, Control_c, 12, 11, 73
14, 5866, Control_c, 12, 11, 74
14, 5881, Control_c, 12, 11, 75
14, 5896, Control_c, 12, 11, 76
14, 5911, Control_c, 12, 11, 77
14, 5926, Control_c, 12, 11, 78
14, 5941, Control_c, 12, 11, 80
14, 5956, Control_c, 12, 11, 82
14, 5971, Control_c, 12, 11, 84
14, 5986, Control_c, 12, 11, 86
14, 6001, Control_c, 12, 11, 88
14, 6016, Control_c, 12, 11, 90
14, 6031, Control_c, 12, 11, 92
14, 6046, Control_c, 12, 11, 94
14, 6061, Control_c, 12, 11, 96
14, 6076, Control_c, 12, 11, 98
14, 6091, Control_c, 12, 11, 100
14, 6106, Control_c, 12, 11, 103
14, 6121, Control_c, 12, 11, 106
14, 6136, Control_c, 12, 11, 109
14, 6151, Control_c, 12, 11, 112
14, 6166, Control_c, 12, 11, 115
14, 6181, Control_c, 12, 11, 118
14, 6196, Control_c, 12, 11, 121
14, 6211, Control_c, 12, 11, 123
14, 6226, Control_c, 12, 11, 125
14, 6239, Note_on_c, 12, 44, 0
14, 6239, Control_c, 12, 11, 127
14, 6240, Note_on_c, 12, 43, 29
14, 6359, Note_on_c, 12, 43, 0
14, 6719, Control_c, 12, 11, 66
14, 6720, Note_on_c, 12, 51, 53
14, 6721, Control_c, 12, 11, 67
14, 6751, Control_c, 12, 11, 68
14, 6781, Control_c, 12, 11, 69
14, 6811, Control_c, 12, 11, 70
14, 6841, Control_c, 12, 11, 71
14, 6871, Control_c, 12, 11, 72
14, 6901, Control_c, 12, 11, 73
14, 6931, Control_c, 12, 11, 74
14, 6961, Control_c, 12, 11, 75
14, 6991, Control_c, 12, 11, 76
14, 7021, Control_c, 12, 11, 77
14, 7051, Control_c, 12, 11, 78
14, 7081, Control_c, 12, 11, 80
14, 7111, Control_c, 12, 11, 82
14, 7141, Control_c, 12, 11, 84
14, 7171, Control_c, 12, 11, 86
14, 7201, Control_c, 12, 11, 88
14, 7231, Control_c, 12, 11, 90
14, 7261, Control_c, 12, 11, 92
14, 7291, Control_c, 12, 11, 94
14, 7321, Control_c, 12, 11, 96
14, 7351, Control_c, 12, 11, 98
14, 7381, Control_c, 12, 11, 100
14, 7411, Control_c, 12, 11, 103
14, 7441, Control_c, 12, 11, 106
14, 7471, Control_c, 12, 11, 109
14, 7501, Control_c, 12, 11, 112
14, 7531, Control_c, 12, 11, 115
14, 7561, Control_c, 12, 11, 118
14, 7591, Control_c, 12, 11, 121
14, 7621, Control_c, 12, 11, 124
14, 7651, Control_c, 12, 11, 127
14, 7679, Note_on_c, 12, 51, 0
14, 7679, Control_c, 12, 11, 127
14, 7680, Note_on_c, 12, 50, 43
14, 7799, Note_on_c, 12, 50, 0
14, 7920, Note_on_c, 12, 50, 43
14, 8039, Note_on_c, 12, 50, 0
14, 8160, Note_on_c, 12, 43, 33
14, 8279, Note_on_c, 12, 43, 0
14, 8640, Note_on_c, 12, 47, 33
14, 8699, Note_on_c, 12, 47, 0
14, 8880, Note_on_c, 12, 48, 33
14, 8939, Note_on_c, 12, 48, 0
14, 9120, Note_on_c, 12, 43, 33
14, 9179, Note_on_c, 12, 43, 0
14, 9480, Note_on_c, 12, 53, 43
14, 9600, Note_on_c, 12, 51, 33
14, 9609, Note_on_c, 12, 53, 0
14, 9839, Note_on_c, 12, 51, 0
14, 9840, Note_on_c, 12, 47, 29
14, 10079, Note_on_c, 12, 47, 0
14, 10080, Note_on_c, 12, 48, 23
14, 10199, Note_on_c, 12, 48, 0
14, 10560, Note_on_c, 12, 44, 23
14, 11039, Note_on_c, 12, 44, 0
14, 11039, Control_c, 12, 11, 66
14, 11040, Note_on_c, 12, 44, 43
14, 11041, Control_c, 12, 11, 67
14, 11056, Control_c, 12, 11, 68
14, 11071, Control_c, 12, 11, 69
14, 11086, Control_c, 12, 11, 70
14, 11101, Control_c, 12, 11, 71
14, 11116, Control_c, 12, 11, 72
14, 11131, Control_c, 12, 11, 73
14, 11146, Control_c, 12, 11, 74
14, 11161, Control_c, 12, 11, 75
14, 11176, Control_c, 12, 11, 76
14, 11191, Control_c, 12, 11, 77
14, 11206, Control_c, 12, 11, 78
14, 11221, Control_c, 12, 11, 80
14, 11236, Control_c, 12, 11, 82
14, 11251, Control_c, 12, 11, 84
14, 11266, Control_c, 12, 11, 86
14, 11281, Control_c, 12, 11, 88
14, 11296, Control_c, 12, 11, 90
14, 11311, Control_c, 12, 11, 92
14, 11326, Control_c, 12, 11, 94
14, 11341, Control_c, 12, 11, 96
14, 11356, Control_c, 12, 11, 98
14, 11371, Control_c, 12, 11, 100
14, 11386, Control_c, 12, 11, 103
14, 11401, Control_c, 12, 11, 106
14, 11416, Control_c, 12, 11, 109
14, 11431, Control_c, 12, 11, 112
14, 11446, Control_c, 12, 11, 115
14, 11461, Control_c, 12, 11, 118
14, 11476, Control_c, 12, 11, 121
14, 11491, Control_c, 12, 11, 124
14, 11506, Control_c, 12, 11, 127
14, 11519, Note_on_c, 12, 44, 0
14, 11519, Control_c, 12, 11, 127
14, 11520, Note_on_c, 12, 43, 33
14, 11599, Note_on_c, 12, 43, 0
14, 11760, Note_on_c, 12, 55, 33
14, 11839, Note_on_c, 12, 55, 0
14, 12000, Note_on_c, 12, 48, 23
14, 12119, Note_on_c, 12, 48, 0
14, 12480, Note_on_c, 12, 47, 33
14, 12539, Note_on_c, 12, 47, 0
14, 12720, Note_on_c, 12, 48, 33
14, 12779, Note_on_c, 12, 48, 0
14, 12960, Note_on_c, 12, 43, 33
14, 13019, Note_on_c, 12, 43, 0
14, 13320, Note_on_c, 12, 53, 43
14, 13440, Note_on_c, 12, 51, 33
14, 13449, Note_on_c, 12, 53, 0
14, 13679, Note_on_c, 12, 51, 0
14, 13680, Note_on_c, 12, 47, 23
14, 13919, Note_on_c, 12, 47, 0
14, 13920, Note_on_c, 12, 48, 21
14, 14039, Note_on_c, 12, 48, 0
14, 14400, Note_on_c, 12, 44, 23
14, 14879, Note_on_c, 12, 44, 0
14, 14879, Control_c, 12, 11, 66
14, 14880, Note_on_c, 12, 44, 43
14, 14881, Control_c, 12, 11, 67
14, 14896, Control_c, 12, 11, 68
14, 14911, Control_c, 12, 11, 69
14, 14926, Control_c, 12, 11, 70
14, 14941, Control_c, 12, 11, 71
14, 14956, Control_c, 12, 11, 72
14, 14971, Control_c, 12, 11, 73
14, 14986, Control_c, 12, 11, 74
14, 15001, Control_c, 12, 11, 75
14, 15016, Control_c, 12, 11, 76
14, 15031, Control_c, 12, 11, 77
14, 15046, Control_c, 12, 11, 78
14, 15061, Control_c, 12, 11, 80
14, 15076, Control_c, 12, 11, 82
14, 15091, Control_c, 12, 11, 84
14, 15106, Control_c, 12, 11, 86
14, 15121, Control_c, 12, 11, 88
14, 15136, Control_c, 12, 11, 90
14, 15151, Control_c, 12, 11, 92
14, 15166, Control_c, 12, 11, 94
14, 15181, Control_c, 12, 11, 96
14, 15196, Control_c, 12, 11, 98
14, 15211, Control_c, 12, 11, 100
14, 15226, Control_c, 12, 11, 103
14, 15241, Control_c, 12, 11, 106
14, 15256, Control_c, 12, 11, 109
14, 15271, Control_c, 12, 11, 112
14, 15286, Control_c, 12, 11, 115
14, 15301, Control_c, 12, 11, 118
14, 15316, Control_c, 12, 11, 121
14, 15331, Control_c, 12, 11, 124
14, 15346, Control_c, 12, 11, 127
14, 15359, Note_on_c, 12, 44, 0
14, 15359, Control_c, 12, 11, 127
14, 15360, Note_on_c, 12, 43, 33
14, 15439, Note_on_c, 12, 43, 0
14, 15600, Note_on_c, 12, 55, 33
14, 15679, Note_on_c, 12, 55, 0
14, 15840, Note_on_c, 12, 48, 23
14, 15959, Note_on_c, 12, 48, 0
14, 16320, Note_on_c, 12, 60, 24
14, 16379, Note_on_c, 12, 60, 0
14, 16560, Note_on_c, 12, 55, 24
14, 16619, Note_on_c, 12, 55, 0
14, 16800, Note_on_c, 12, 51, 24
14, 16859, Note_on_c, 12, 51, 0
14, 17279, Control_c, 12, 11, 66
14, 17280, Note_on_c, 12, 56, 34
14, 17281, Control_c, 12, 11, 67
14, 17296, Control_c, 12, 11, 68
14, 17311, Control_c, 12, 11, 69
14, 17326, Control_c, 12, 11, 70
14, 17341, Control_c, 12, 11, 71
14, 17356, Control_c, 12, 11, 72
14, 17371, Control_c, 12, 11, 73
14, 17386, Control_c, 12, 11, 74
14, 17401, Control_c, 12, 11, 75
14, 17416, Control_c, 12, 11, 76
14, 17431, Control_c, 12, 11, 77
14, 17446, Control_c, 12, 11, 78
14, 17461, Control_c, 12, 11, 80
14, 17476, Control_c, 12, 11, 82
14, 17491, Control_c, 12, 11, 84
14, 17506, Control_c, 12, 11, 86
14, 17521, Control_c, 12, 11, 88
14, 17536, Control_c, 12, 11, 90
14, 17551, Control_c, 12, 11, 92
14, 17566, Control_c, 12, 11, 94
14, 17581, Control_c, 12, 11, 96
14, 17596, Control_c, 12, 11, 98
14, 17611, Control_c, 12, 11, 100
14, 17626, Control_c, 12, 11, 103
14, 17641, Control_c, 12, 11, 106
14, 17656, Control_c, 12, 11, 109
14, 17671, Control_c, 12, 11, 112
14, 17686, Control_c, 12, 11, 115
14, 17701, Control_c, 12, 11, 118
14, 17716, Control_c, 12, 11, 121
14, 17731, Control_c, 12, 11, 124
14, 17746, Control_c, 12, 11, 127
14, 17759, Note_on_c, 12, 56, 0
14, 17759, Control_c, 12, 11, 127
14, 17760, Note_on_c, 12, 55, 24
14, 17879, Note_on_c, 12, 55, 0
14, 18240, Note_on_c, 12, 51, 24
14, 18719, Note_on_c, 12, 51, 0
14, 18720, Note_on_c, 12, 51, 34
14, 19199, Note_on_c, 12, 51, 0
14, 19200, Note_on_c, 12, 50, 39
14, 19249, Note_on_c, 12, 50, 0
14, 19440, Note_on_c, 12, 50, 34
14, 19489, Note_on_c, 12, 50, 0
14, 19680, Note_on_c, 12, 43, 21
14, 19799, Note_on_c, 12, 43, 0
14, 20160, Note_on_c, 12, 60, 24
14, 20219, Note_on_c, 12, 60, 0
14, 20400, Note_on_c, 12, 55, 24
14, 20459, Note_on_c, 12, 55, 0
14, 20640, Note_on_c, 12, 51, 24
14, 20699, Note_on_c, 12, 51, 0
14, 21119, Control_c, 12, 11, 66
14, 21120, Note_on_c, 12, 56, 34
14, 21121, Control_c, 12, 11, 67
14, 21136, Control_c, 12, 11, 68
14, 21151, Control_c, 12, 11, 69
14, 21166, Control_c, 12, 11, 70
14, 21181, Control_c, 12, 11, 71
14, 21196, Control_c, 12, 11, 72
14, 21211, Control_c, 12, 11, 73
14, 21226, Control_c, 12, 11, 74
14, 21241, Control_c, 12, 11, 75
14, 21256, Control_c, 12, 11, 76
14, 21271, Control_c, 12, 11, 77
14, 21286, Control_c, 12, 11, 78
14, 21301, Control_c, 12, 11, 80
14, 21316, Control_c, 12, 11, 82
14, 21331, Control_c, 12, 11, 84
14, 21346, Control_c, 12, 11, 86
14, 21361, Control_c, 12, 11, 88
14, 21376, Control_c, 12, 11, 90
14, 21391, Control_c, 12, 11, 92
14, 21406, Control_c, 12, 11, 94
14, 21421, Control_c, 12, 11, 96
14, 21436, Control_c, 12, 11, 98
14, 21451, Control_c, 12, 11, 100
14, 21466, Control_c, 12, 11, 103
14, 21481, Control_c, 12, 11, 106
14, 21496, Control_c, 12, 11, 109
14, 21511, Control_c, 12, 11, 112
14, 21526, Control_c, 12, 11, 115
14, 21541, Control_c, 12, 11, 118
14, 21556, Control_c, 12, 11, 121
14, 21571, Control_c, 12, 11, 124
14, 21586, Control_c, 12, 11, 127
14, 21599, Note_on_c, 12, 56, 0
14, 21599, Control_c, 12, 11, 127
14, 21600, Note_on_c, 12, 55, 24
14, 21719, Note_on_c, 12, 55, 0
14, 22080, Note_on_c, 12, 51, 19
14, 22559, Note_on_c, 12, 51, 0
14, 22560, Note_on_c, 12, 51, 27
14, 23039, Note_on_c, 12, 51, 0
14, 23040, Note_on_c, 12, 50, 31
14, 23089, Note_on_c, 12, 50, 0
14, 23280, Note_on_c, 12, 50, 27
14, 23329, Note_on_c, 12, 50, 0
14, 23520, Note_on_c, 12, 43, 21
14, 23639, Note_on_c, 12, 43, 0
14, 23760, Control_c, 12, 7, 97
14, 24000, Note_on_c, 12, 47, 24
14, 24089, Note_on_c, 12, 47, 0
14, 24240, Note_on_c, 12, 48, 24
14, 24329, Note_on_c, 12, 48, 0
14, 24480, Note_on_c, 12, 43, 24
14, 24599, Note_on_c, 12, 43, 0
14, 24840, Note_on_c, 12, 53, 36
14, 24959, Note_on_c, 12, 53, 0
14, 24960, Note_on_c, 12, 51, 35
14, 25079, Note_on_c, 12, 51, 0
14, 25080, Note_on_c, 12, 48, 33
14, 25199, Note_on_c, 12, 48, 0
14, 25200, Note_on_c, 12, 45, 30
14, 25319, Note_on_c, 12, 45, 0
14, 25320, Note_on_c, 12, 47, 28
14, 25439, Note_on_c, 12, 47, 0
14, 25440, Note_on_c, 12, 48, 26
14, 25559, Note_on_c, 12, 48, 0
14, 25920, Note_on_c, 12, 44, 24
14, 26399, Note_on_c, 12, 44, 0
14, 26400, Note_on_c, 12, 44, 28
14, 26879, Note_on_c, 12, 44, 0
14, 26880, Note_on_c, 12, 43, 35
14, 26999, Note_on_c, 12, 43, 0
14, 27120, Note_on_c, 12, 43, 35
14, 27239, Note_on_c, 12, 43, 0
14, 27360, Note_on_c, 12, 48, 24
14, 27479, Note_on_c, 12, 48, 0
14, 27840, Note_on_c, 12, 47, 22
14, 27929, Note_on_c, 12, 47, 0
14, 28080, Note_on_c, 12, 48, 22
14, 28169, Note_on_c, 12, 48, 0
14, 28320, Note_on_c, 12, 43, 22
14, 28439, Note_on_c, 12, 43, 0
14, 28680, Note_on_c, 12, 53, 33
14, 28799, Note_on_c, 12, 53, 0
14, 28800, Note_on_c, 12, 51, 32
14, 28919, Note_on_c, 12, 51, 0
14, 28920, Note_on_c, 12, 48, 30
14, 29039, Note_on_c, 12, 48, 0
14, 29040, Note_on_c, 12, 45, 28
14, 29159, Note_on_c, 12, 45, 0
14, 29160, Note_on_c, 12, 47, 26
14, 29279, Note_on_c, 12, 47, 0
14, 29280, Note_on_c, 12, 48, 24
14, 29399, Note_on_c, 12, 48, 0
14, 29760, Note_on_c, 12, 44, 22
14, 30239, Note_on_c, 12, 44, 0
14, 30240, Note_on_c, 12, 44, 26
14, 30719, Note_on_c, 12, 44, 0
14, 30720, Note_on_c, 12, 43, 32
14, 30839, Note_on_c, 12, 43, 0
14, 30960, Note_on_c, 12, 43, 32
14, 31079, Note_on_c, 12, 43, 0
14, 31200, Note_on_c, 12, 48, 22
14, 31319, Note_on_c, 12, 48, 0
14, 35280, Control_c, 12, 7, 107
14, 35520, Note_on_c, 12, 48, 44
14, 35579, Note_on_c, 12, 48, 0
14, 35760, Note_on_c, 12, 43, 44
14, 35819, Note_on_c, 12, 43, 0
14, 36000, Note_on_c, 12, 48, 44
14, 36059, Note_on_c, 12, 48, 0
14, 36360, Note_on_c, 12, 46, 44
14, 36419, Note_on_c, 12, 46, 0
14, 36480, Note_on_c, 12, 45, 44
14, 36719, Note_on_c, 12, 45, 0
14, 36720, Note_on_c, 12, 44, 44
14, 36959, Note_on_c, 12, 44, 0
14, 36960, Note_on_c, 12, 43, 34
14, 37019, Note_on_c, 12, 43, 0
14, 37320, Note_on_c, 12, 47, 32
14, 37439, Note_on_c, 12, 47, 0
14, 37440, Note_on_c, 12, 48, 33
14, 37679, Note_on_c, 12, 48, 0
14, 37680, Note_on_c, 12, 50, 37
14, 37919, Note_on_c, 12, 50, 0
14, 37920, Note_on_c, 12, 51, 40
14, 38399, Note_on_c, 12, 51, 0
14, 38400, Note_on_c, 12, 50, 48
14, 38459, Note_on_c, 12, 50, 0
14, 38640, Note_on_c, 12, 50, 44
14, 38699, Note_on_c, 12, 50, 0
14, 38880, Note_on_c, 12, 43, 34
14, 38969, Note_on_c, 12, 43, 0
14, 43200, Note_on_c, 12, 47, 33
14, 43319, Note_on_c, 12, 47, 0
14, 43440, Note_on_c, 12, 48, 31
14, 43559, Note_on_c, 12, 48, 0
14, 43680, Note_on_c, 12, 55, 29
14, 43799, Note_on_c, 12, 55, 0
14, 44040, Note_on_c, 12, 53, 33
14, 44159, Note_on_c, 12, 53, 0
14, 44160, Note_on_c, 12, 52, 32
14, 44279, Note_on_c, 12, 52, 0
14, 44280, Note_on_c, 12, 51, 31
14, 44399, Note_on_c, 12, 51, 0
14, 44400, Note_on_c, 12, 50, 31
14, 44519, Note_on_c, 12, 50, 0
14, 44520, Note_on_c, 12, 43, 30
14, 44639, Note_on_c, 12, 43, 0
14, 44640, Note_on_c, 12, 48, 29
14, 44759, Note_on_c, 12, 48, 0
14, 45000, Note_on_c, 12, 56, 34
14, 45119, Note_on_c, 12, 56, 0
14, 45120, Note_on_c, 12, 53, 34
14, 45359, Note_on_c, 12, 53, 0
14, 45360, Note_on_c, 12, 55, 36
14, 45599, Note_on_c, 12, 55, 0
14, 45600, Note_on_c, 12, 56, 37
14, 46079, Note_on_c, 12, 56, 0
14, 46080, Note_on_c, 12, 55, 33
14, 46199, Note_on_c, 12, 55, 0
14, 46320, Note_on_c, 12, 43, 31
14, 46439, Note_on_c, 12, 43, 0
14, 46560, Note_on_c, 12, 48, 23
14, 46679, Note_on_c, 12, 48, 0
14, 50400, Control_c, 12, 7, 127
14, 50400, Control_c, 12, 0, 0
14, 50401, Control_c, 12, 32, 0
14, 50402, Program_c, 12, 48
14, 50880, Note_on_c, 12, 60, 68
14, 50969, Note_on_c, 12, 60, 0
14, 51000, Note_on_c, 12, 60, 59
14, 51029, Note_on_c, 12, 60, 0
14, 51090, Note_on_c, 12, 60, 59
14, 51119, Note_on_c, 12, 60, 0
14, 51120, Note_on_c, 12, 55, 68
14, 51209, Note_on_c, 12, 55, 0
14, 51240, Note_on_c, 12, 55, 59
14, 51269, Note_on_c, 12, 55, 0
14, 51330, Note_on_c, 12, 55, 59
14, 51359, Note_on_c, 12, 55, 0
14, 51360, Note_on_c, 12, 51, 68
14, 51449, Note_on_c, 12, 51, 0
14, 51480, Note_on_c, 12, 51, 59
14, 51509, Note_on_c, 12, 51, 0
14, 51570, Note_on_c, 12, 51, 59
14, 51599, Note_on_c, 12, 51, 0
14, 51600, Note_on_c, 12, 48, 68
14, 51689, Note_on_c, 12, 48, 0
14, 51720, Note_on_c, 12, 48, 59
14, 51749, Note_on_c, 12, 48, 0
14, 51810, Note_on_c, 12, 48, 59
14, 51839, Note_on_c, 12, 48, 0
14, 51840, Note_on_c, 12, 44, 68
14, 51929, Note_on_c, 12, 44, 0
14, 51960, Note_on_c, 12, 44, 59
14, 51989, Note_on_c, 12, 44, 0
14, 52050, Note_on_c, 12, 44, 59
14, 52079, Note_on_c, 12, 44, 0
14, 52080, Note_on_c, 12, 44, 68
14, 52169, Note_on_c, 12, 44, 0
14, 52200, Note_on_c, 12, 44, 59
14, 52229, Note_on_c, 12, 44, 0
14, 52290, Note_on_c, 12, 44, 59
14, 52319, Note_on_c, 12, 44, 0
14, 52320, Note_on_c, 12, 43, 68
14, 52439, Note_on_c, 12, 43, 0
14, 52800, Note_on_c, 12, 51, 68
14, 52889, Note_on_c, 12, 51, 0
14, 52920, Note_on_c, 12, 51, 59
14, 52949, Note_on_c, 12, 51, 0
14, 53010, Note_on_c, 12, 51, 59
14, 53039, Note_on_c, 12, 51, 0
14, 53040, Note_on_c, 12, 51, 59
14, 53129, Note_on_c, 12, 51, 0
14, 53160, Note_on_c, 12, 51, 59
14, 53249, Note_on_c, 12, 51, 0
14, 53280, Note_on_c, 12, 51, 68
14, 53369, Note_on_c, 12, 51, 0
14, 53400, Note_on_c, 12, 51, 59
14, 53429, Note_on_c, 12, 51, 0
14, 53490, Note_on_c, 12, 51, 59
14, 53519, Note_on_c, 12, 51, 0
14, 53520, Note_on_c, 12, 51, 59
14, 53609, Note_on_c, 12, 51, 0
14, 53640, Note_on_c, 12, 51, 59
14, 53699, Note_on_c, 12, 51, 0
14, 53760, Note_on_c, 12, 50, 68
14, 53849, Note_on_c, 12, 50, 0
14, 53880, Note_on_c, 12, 50, 59
14, 53909, Note_on_c, 12, 50, 0
14, 53970, Note_on_c, 12, 50, 59
14, 53999, Note_on_c, 12, 50, 0
14, 54000, Note_on_c, 12, 50, 59
14, 54089, Note_on_c, 12, 50, 0
14, 54120, Note_on_c, 12, 50, 59
14, 54149, Note_on_c, 12, 50, 0
14, 54210, Note_on_c, 12, 50, 59
14, 54239, Note_on_c, 12, 50, 0
14, 54240, Note_on_c, 12, 43, 59
14, 54299, Note_on_c, 12, 43, 0
14, 54300, Note_on_c, 12, 45, 61
14, 54329, Note_on_c, 12, 45, 0
14, 54330, Note_on_c, 12, 46, 63
14, 54359, Note_on_c, 12, 46, 0
14, 54360, Note_on_c, 12, 48, 63
14, 54389, Note_on_c, 12, 48, 0
14, 54390, Note_on_c, 12, 50, 64
14, 54419, Note_on_c, 12, 50, 0
14, 54420, Note_on_c, 12, 52, 66
14, 54449, Note_on_c, 12, 52, 0
14, 54450, Note_on_c, 12, 54, 67
14, 54479, Note_on_c, 12, 54, 0
14, 54480, Note_on_c, 12, 55, 69
14, 54539, Note_on_c, 12, 55, 0
14, 58560, Note_on_c, 12, 47, 77
14, 58619, Note_on_c, 12, 47, 0
14, 58680, Note_on_c, 12, 47, 77
14, 58709, Note_on_c, 12, 47, 0
14, 58770, Note_on_c, 12, 47, 77
14, 58799, Note_on_c, 12, 47, 0
14, 58800, Note_on_c, 12, 48, 77
14, 58899, Note_on_c, 12, 48, 0
14, 58920, Note_on_c, 12, 48, 77
14, 58959, Note_on_c, 12, 48, 0
14, 59010, Note_on_c, 12, 48, 77
14, 59039, Note_on_c, 12, 48, 0
14, 59040, Note_on_c, 12, 55, 77
14, 59129, Note_on_c, 12, 55, 0
14, 59160, Note_on_c, 12, 55, 77
14, 59189, Note_on_c, 12, 55, 0
14, 59250, Note_on_c, 12, 55, 77
14, 59279, Note_on_c, 12, 55, 0
14, 59280, Note_on_c, 12, 53, 77
14, 59379, Note_on_c, 12, 53, 0
14, 59400, Note_on_c, 12, 53, 77
14, 59439, Note_on_c, 12, 53, 0
14, 59490, Note_on_c, 12, 53, 77
14, 59519, Note_on_c, 12, 53, 0
14, 59520, Note_on_c, 12, 51, 77
14, 59619, Note_on_c, 12, 51, 0
14, 59640, Note_on_c, 12, 51, 77
14, 59679, Note_on_c, 12, 51, 0
14, 59730, Note_on_c, 12, 51, 77
14, 59759, Note_on_c, 12, 51, 0
14, 59760, Note_on_c, 12, 50, 77
14, 59849, Note_on_c, 12, 50, 0
14, 59880, Note_on_c, 12, 50, 77
14, 59919, Note_on_c, 12, 50, 0
14, 59970, Note_on_c, 12, 50, 77
14, 59999, Note_on_c, 12, 50, 0
14, 60000, Note_on_c, 12, 48, 77
14, 60089, Note_on_c, 12, 48, 0
14, 66240, Note_on_c, 12, 44, 33
14, 66269, Note_on_c, 12, 44, 0
14, 66360, Note_on_c, 12, 44, 33
14, 66389, Note_on_c, 12, 44, 0
14, 66480, Note_on_c, 12, 51, 33
14, 66509, Note_on_c, 12, 51, 0
14, 66600, Note_on_c, 12, 51, 34
14, 66629, Note_on_c, 12, 51, 0
14, 66720, Note_on_c, 12, 53, 34
14, 66749, Note_on_c, 12, 53, 0
14, 66840, Note_on_c, 12, 49, 44
14, 67079, Note_on_c, 12, 49, 0
14, 67080, Note_on_c, 12, 48, 35
14, 67109, Note_on_c, 12, 48, 0
14, 67200, Note_on_c, 12, 46, 36
14, 67229, Note_on_c, 12, 46, 0
14, 67320, Note_on_c, 12, 48, 36
14, 67349, Note_on_c, 12, 48, 0
14, 67440, Note_on_c, 12, 49, 36
14, 67469, Note_on_c, 12, 49, 0
14, 67560, Note_on_c, 12, 50, 37
14, 67589, Note_on_c, 12, 50, 0
14, 67680, Note_on_c, 12, 51, 37
14, 67709, Note_on_c, 12, 51, 0
14, 67800, Note_on_c, 12, 55, 42
14, 68039, Note_on_c, 12, 55, 0
14, 68040, Note_on_c, 12, 53, 38
14, 68069, Note_on_c, 12, 53, 0
14, 68160, Note_on_c, 12, 51, 39
14, 68189, Note_on_c, 12, 51, 0
14, 68280, Note_on_c, 12, 53, 39
14, 68309, Note_on_c, 12, 53, 0
14, 68400, Note_on_c, 12, 55, 39
14, 68429, Note_on_c, 12, 55, 0
14, 68520, Note_on_c, 12, 43, 40
14, 68549, Note_on_c, 12, 43, 0
14, 68640, Note_on_c, 12, 44, 40
14, 68669, Note_on_c, 12, 44, 0
14, 68760, Note_on_c, 12, 56, 37
14, 68999, Note_on_c, 12, 56, 0
14, 69120, Note_on_c, 12, 55, 32
14, 69149, Note_on_c, 12, 55, 0
14, 69240, Note_on_c, 12, 56, 31
14, 69269, Note_on_c, 12, 56, 0
14, 69360, Note_on_c, 12, 58, 29
14, 69389, Note_on_c, 12, 58, 0
14, 69480, Note_on_c, 12, 46, 28
14, 69509, Note_on_c, 12, 46, 0
14, 69720, Note_on_c, 12, 51, 25
14, 69809, Note_on_c, 12, 51, 0
14, 69840, Note_on_c, 12, 39, 23
14, 69929, Note_on_c, 12, 39, 0
14, 73950, Note_on_c, 12, 43, 28
14, 73979, Note_on_c, 12, 43, 0
14, 74040, Note_on_c, 12, 43, 28
14, 74069, Note_on_c, 12, 43, 0
14, 74160, Note_on_c, 12, 44, 28
14, 74189, Note_on_c, 12, 44, 0
14, 74280, Note_on_c, 12, 44, 28
14, 74309, Note_on_c, 12, 44, 0
14, 74400, Note_on_c, 12, 49, 28
14, 74429, Note_on_c, 12, 49, 0
14, 74520, Note_on_c, 12, 49, 28
14, 74879, Note_on_c, 12, 49, 0
14, 74880, Note_on_c, 12, 48, 28
14, 74909, Note_on_c, 12, 48, 0
14, 75000, Note_on_c, 12, 48, 28
14, 75029, Note_on_c, 12, 48, 0
14, 75120, Note_on_c, 12, 52, 28
14, 75149, Note_on_c, 12, 52, 0
14, 75240, Note_on_c, 12, 52, 28
14, 75269, Note_on_c, 12, 52, 0
14, 75360, Note_on_c, 12, 53, 28
14, 75389, Note_on_c, 12, 53, 0
14, 75480, Note_on_c, 12, 51, 28
14, 75809, Note_on_c, 12, 51, 0
14, 75840, Note_on_c, 12, 49, 28
14, 75869, Note_on_c, 12, 49, 0
14, 75960, Note_on_c, 12, 49, 28
14, 76289, Note_on_c, 12, 49, 0
14, 76320, Note_on_c, 12, 48, 28
14, 76559, Note_on_c, 12, 48, 0
14, 76560, Note_on_c, 12, 49, 28
14, 76799, Note_on_c, 12, 49, 0
14, 76800, Note_on_c, 12, 51, 28
14, 77279, Note_on_c, 12, 51, 0
14, 77520, Note_on_c, 12, 44, 17
14, 77589, Note_on_c, 12, 44, 0
14, 83520, Note_on_c, 12, 48, 30
14, 83759, Note_on_c, 12, 48, 0
14, 83760, Note_on_c, 12, 50, 30
14, 83999, Note_on_c, 12, 50, 0
14, 84000, Note_on_c, 12, 51, 30
14, 84239, Note_on_c, 12, 51, 0
14, 84240, Note_on_c, 12, 53, 30
14, 84479, Note_on_c, 12, 53, 0
14, 84480, Note_on_c, 12, 55, 30
14, 84719, Note_on_c, 12, 55, 0
14, 84720, Note_on_c, 12, 57, 30
14, 84959, Note_on_c, 12, 57, 0
14, 84960, Note_on_c, 12, 58, 30
14, 85199, Note_on_c, 12, 58, 0
14, 85200, Note_on_c, 12, 60, 30
14, 85439, Note_on_c, 12, 60, 0
14, 85440, Note_on_c, 12, 62, 34
14, 85559, Note_on_c, 12, 62, 0
14, 85560, Note_on_c, 12, 63, 32
14, 85679, Note_on_c, 12, 63, 0
14, 85680, Note_on_c, 12, 60, 30
14, 85799, Note_on_c, 12, 60, 0
14, 85800, Note_on_c, 12, 62, 28
14, 85919, Note_on_c, 12, 62, 0
14, 85920, Note_on_c, 12, 55, 26
14, 86039, Note_on_c, 12, 55, 0
14, 90744, Control_c, 12, 74, 74
14, 90746, Control_c, 12, 0, 0
14, 90748, Control_c, 12, 32, 0
14, 90750, Program_c, 12, 49
14, 92160, Note_on_c, 12, 41, 38
14, 92399, Note_on_c, 12, 41, 0
14, 92400, Note_on_c, 12, 43, 38
14, 92639, Note_on_c, 12, 43, 0
14, 92640, Note_on_c, 12, 44, 38
14, 92879, Note_on_c, 12, 44, 0
14, 92880, Note_on_c, 12, 46, 38
14, 93119, Note_on_c, 12, 46, 0
14, 93120, Note_on_c, 12, 48, 38
14, 93359, Note_on_c, 12, 48, 0
14, 93360, Note_on_c, 12, 50, 38
14, 93599, Note_on_c, 12, 50, 0
14, 93600, Note_on_c, 12, 51, 38
14, 93839, Note_on_c, 12, 51, 0
14, 93840, Note_on_c, 12, 53, 38
14, 94079, Note_on_c, 12, 53, 0
14, 94080, Note_on_c, 12, 55, 43
14, 94199, Note_on_c, 12, 55, 0
14, 94200, Note_on_c, 12, 56, 40
14, 94319, Note_on_c, 12, 56, 0
14, 94320, Note_on_c, 12, 53, 38
14, 94439, Note_on_c, 12, 53, 0
14, 94440, Note_on_c, 12, 55, 35
14, 94559, Note_on_c, 12, 55, 0
14, 94560, Note_on_c, 12, 48, 33
14, 94679, Note_on_c, 12, 48, 0
14, 95040, Note_on_c, 12, 60, 37
14, 95279, Note_on_c, 12, 60, 0
14, 95280, Note_on_c, 12, 59, 34
14, 95519, Note_on_c, 12, 59, 0
14, 95520, Note_on_c, 12, 57, 33
14, 95759, Note_on_c, 12, 57, 0
14, 95760, Note_on_c, 12, 55, 32
14, 95999, Note_on_c, 12, 55, 0
14, 96000, Note_on_c, 12, 53, 37
14, 96119, Note_on_c, 12, 53, 0
14, 96360, Note_on_c, 12, 53, 32
14, 96449, Note_on_c, 12, 53, 0
14, 96480, Note_on_c, 12, 55, 32
14, 96539, Note_on_c, 12, 55, 0
14, 96600, Note_on_c, 12, 55, 32
14, 96659, Note_on_c, 12, 55, 0
14, 96720, Note_on_c, 12, 43, 32
14, 96809, Note_on_c, 12, 43, 0
14, 96960, Note_on_c, 12, 55, 32
14, 97079, Note_on_c, 12, 55, 0
14, 97440, Note_on_c, 12, 50, 27
14, 97919, Note_on_c, 12, 50, 0
14, 98880, Note_on_c, 12, 60, 38
14, 99119, Note_on_c, 12, 60, 0
14, 99120, Note_on_c, 12, 59, 38
14, 99359, Note_on_c, 12, 59, 0
14, 99360, Note_on_c, 12, 57, 38
14, 99599, Note_on_c, 12, 57, 0
14, 99600, Note_on_c, 12, 55, 38
14, 99839, Note_on_c, 12, 55, 0
14, 99840, Note_on_c, 12, 53, 38
14, 99959, Note_on_c, 12, 53, 0
14, 100200, Note_on_c, 12, 53, 38
14, 100319, Note_on_c, 12, 53, 0
14, 100320, Note_on_c, 12, 55, 38
14, 100439, Note_on_c, 12, 55, 0
14, 100440, Note_on_c, 12, 55, 38
14, 100559, Note_on_c, 12, 55, 0
14, 100560, Note_on_c, 12, 43, 38
14, 100679, Note_on_c, 12, 43, 0
14, 100800, Note_on_c, 12, 55, 43
14, 100919, Note_on_c, 12, 55, 0
14, 101160, Note_on_c, 12, 55, 43
14, 101249, Note_on_c, 12, 55, 0
14, 101280, Note_on_c, 12, 50, 43
14, 101399, Note_on_c, 12, 50, 0
14, 101640, Note_on_c, 12, 50, 43
14, 101729, Note_on_c, 12, 50, 0
14, 101760, Note_on_c, 12, 52, 43
14, 101879, Note_on_c, 12, 52, 0
14, 101970, Note_on_c, 12, 48, 43
14, 101999, Note_on_c, 12, 48, 0
14, 102000, Note_on_c, 12, 50, 43
14, 102059, Note_on_c, 12, 50, 0
14, 102120, Note_on_c, 12, 50, 43
14, 102179, Note_on_c, 12, 50, 0
14, 102240, Note_on_c, 12, 55, 43
14, 102299, Note_on_c, 12, 55, 0
14, 102360, Note_on_c, 12, 50, 43
14, 102419, Note_on_c, 12, 50, 0
14, 102480, Note_on_c, 12, 43, 43
14, 102539, Note_on_c, 12, 43, 0
14, 102720, Note_on_c, 12, 57, 43
14, 102959, Note_on_c, 12, 57, 0
14, 103080, Note_on_c, 12, 57, 43
14, 103199, Note_on_c, 12, 57, 0
14, 103200, Note_on_c, 12, 50, 43
14, 103319, Note_on_c, 12, 50, 0
14, 104152, Control_c, 12, 74, 64
14, 104154, Control_c, 12, 73, 64
14, 104156, Control_c, 12, 0, 0
14, 104158, Control_c, 12, 32, 0
14, 104160, Program_c, 12, 48
14, 104640, Note_on_c, 12, 60, 26
14, 104759, Note_on_c, 12, 60, 0
14, 105119, Control_c, 12, 11, 66
14, 105120, Note_on_c, 12, 55, 46
14, 105121, Control_c, 12, 11, 67
14, 105136, Control_c, 12, 11, 68
14, 105151, Control_c, 12, 11, 69
14, 105166, Control_c, 12, 11, 70
14, 105181, Control_c, 12, 11, 71
14, 105196, Control_c, 12, 11, 72
14, 105211, Control_c, 12, 11, 73
14, 105226, Control_c, 12, 11, 74
14, 105241, Control_c, 12, 11, 75
14, 105256, Control_c, 12, 11, 76
14, 105271, Control_c, 12, 11, 77
14, 105286, Control_c, 12, 11, 78
14, 105301, Control_c, 12, 11, 80
14, 105316, Control_c, 12, 11, 82
14, 105331, Control_c, 12, 11, 84
14, 105346, Control_c, 12, 11, 86
14, 105361, Control_c, 12, 11, 88
14, 105376, Control_c, 12, 11, 90
14, 105391, Control_c, 12, 11, 92
14, 105406, Control_c, 12, 11, 94
14, 105421, Control_c, 12, 11, 96
14, 105436, Control_c, 12, 11, 98
14, 105451, Control_c, 12, 11, 100
14, 105466, Control_c, 12, 11, 103
14, 105481, Control_c, 12, 11, 106
14, 105496, Control_c, 12, 11, 109
14, 105511, Control_c, 12, 11, 112
14, 105526, Control_c, 12, 11, 115
14, 105541, Control_c, 12, 11, 118
14, 105556, Control_c, 12, 11, 121
14, 105571, Control_c, 12, 11, 124
14, 105586, Control_c, 12, 11, 127
14, 105599, Note_on_c, 12, 55, 0
14, 105599, Control_c, 12, 11, 127
14, 105600, Note_on_c, 12, 57, 42
14, 105659, Note_on_c, 12, 57, 0
14, 105810, Note_on_c, 12, 53, 24
14, 105839, Note_on_c, 12, 53, 0
14, 105840, Note_on_c, 12, 55, 24
14, 105899, Note_on_c, 12, 55, 0
14, 105960, Note_on_c, 12, 55, 24
14, 106019, Note_on_c, 12, 55, 0
14, 106080, Note_on_c, 12, 60, 24
14, 106139, Note_on_c, 12, 60, 0
14, 106200, Note_on_c, 12, 55, 21
14, 106259, Note_on_c, 12, 55, 0
14, 106320, Note_on_c, 12, 48, 18
14, 106379, Note_on_c, 12, 48, 0
14, 106545, Control_c, 12, 7, 87
14, 106560, Note_on_c, 12, 57, 23
14, 106799, Note_on_c, 12, 57, 0
14, 106920, Note_on_c, 12, 57, 23
14, 107039, Note_on_c, 12, 57, 0
14, 107040, Note_on_c, 12, 50, 23
14, 107279, Note_on_c, 12, 50, 0
14, 107400, Note_on_c, 12, 55, 23
14, 107519, Note_on_c, 12, 55, 0
14, 107520, Note_on_c, 12, 60, 23
14, 107579, Note_on_c, 12, 60, 0
14, 107580, Note_on_c, 12, 56, 23
14, 107639, Note_on_c, 12, 56, 0
14, 107640, Note_on_c, 12, 57, 23
14, 107699, Note_on_c, 12, 57, 0
14, 107700, Note_on_c, 12, 52, 23
14, 107759, Note_on_c, 12, 52, 0
14, 107760, Note_on_c, 12, 53, 23
14, 107879, Note_on_c, 12, 53, 0
14, 108120, Note_on_c, 12, 55, 23
14, 108239, Note_on_c, 12, 55, 0
14, 108240, Note_on_c, 12, 43, 23
14, 108359, Note_on_c, 12, 43, 0
14, 108480, Note_on_c, 12, 48, 23
14, 108719, Note_on_c, 12, 48, 0
14, 108840, Note_on_c, 12, 48, 23
14, 108959, Note_on_c, 12, 48, 0
14, 108960, Note_on_c, 12, 55, 23
14, 109199, Note_on_c, 12, 55, 0
14, 109320, Note_on_c, 12, 55, 23
14, 109439, Note_on_c, 12, 55, 0
14, 109440, Note_on_c, 12, 57, 23
14, 109559, Note_on_c, 12, 57, 0
14, 109650, Note_on_c, 12, 53, 23
14, 109679, Note_on_c, 12, 53, 0
14, 109680, Note_on_c, 12, 55, 23
14, 109739, Note_on_c, 12, 55, 0
14, 109800, Note_on_c, 12, 55, 23
14, 109859, Note_on_c, 12, 55, 0
14, 109920, Note_on_c, 12, 60, 23
14, 109979, Note_on_c, 12, 60, 0
14, 110040, Note_on_c, 12, 55, 21
14, 110099, Note_on_c, 12, 55, 0
14, 110160, Note_on_c, 12, 48, 17
14, 110219, Note_on_c, 12, 48, 0
14, 110400, Note_on_c, 12, 60, 33
14, 110519, Note_on_c, 12, 60, 0
14, 110880, Note_on_c, 12, 55, 33
14, 111359, Note_on_c, 12, 55, 0
14, 111360, Note_on_c, 12, 57, 43
14, 111419, Note_on_c, 12, 57, 0
14, 111570, Note_on_c, 12, 53, 33
14, 111600, Note_on_c, 12, 55, 33
14, 111629, Note_on_c, 12, 53, 0
14, 111659, Note_on_c, 12, 55, 0
14, 111720, Note_on_c, 12, 55, 33
14, 111779, Note_on_c, 12, 55, 0
14, 111840, Note_on_c, 12, 60, 28
14, 111840, Control_c, 12, 7, 127
14, 111899, Note_on_c, 12, 60, 0
14, 111960, Note_on_c, 12, 55, 27
14, 112019, Note_on_c, 12, 55, 0
14, 112080, Note_on_c, 12, 48, 25
14, 112139, Note_on_c, 12, 48, 0
14, 112560, Note_on_c, 12, 55, 37
14, 112629, Note_on_c, 12, 55, 0
14, 112680, Note_on_c, 12, 55, 35
14, 112799, Note_on_c, 12, 55, 0
14, 112800, Note_on_c, 12, 51, 32
14, 112919, Note_on_c, 12, 51, 0
14, 113160, Note_on_c, 12, 48, 42
14, 113279, Note_on_c, 12, 48, 0
14, 113280, Note_on_c, 12, 56, 40
14, 113349, Note_on_c, 12, 56, 0
14, 113400, Note_on_c, 12, 56, 38
14, 113519, Note_on_c, 12, 56, 0
14, 113520, Note_on_c, 12, 44, 36
14, 113589, Note_on_c, 12, 44, 0
14, 113640, Note_on_c, 12, 44, 34
14, 113759, Note_on_c, 12, 44, 0
14, 113760, Note_on_c, 12, 43, 32
14, 113879, Note_on_c, 12, 43, 0
14, 114240, Note_on_c, 12, 51, 35
14, 114719, Note_on_c, 12, 51, 0
14, 114720, Note_on_c, 12, 51, 41
14, 115139, Note_on_c, 12, 51, 0
14, 115200, Note_on_c, 12, 50, 48
14, 115259, Note_on_c, 12, 50, 0
14, 115440, Note_on_c, 12, 50, 43
14, 115499, Note_on_c, 12, 50, 0
14, 115680, Note_on_c, 12, 43, 43
14, 115769, Note_on_c, 12, 43, 0
14, 116040, Note_on_c, 12, 43, 44
14, 116159, Note_on_c, 12, 43, 0
14, 116160, Note_on_c, 12, 47, 43
14, 116229, Note_on_c, 12, 47, 0
14, 116280, Note_on_c, 12, 47, 41
14, 116399, Note_on_c, 12, 47, 0
14, 116400, Note_on_c, 12, 48, 40
14, 116469, Note_on_c, 12, 48, 0
14, 116520, Note_on_c, 12, 48, 38
14, 116639, Note_on_c, 12, 48, 0
14, 116640, Note_on_c, 12, 43, 36
14, 116729, Note_on_c, 12, 43, 0
14, 117000, Note_on_c, 12, 53, 42
14, 117119, Note_on_c, 12, 53, 0
14, 117120, Note_on_c, 12, 51, 40
14, 117189, Note_on_c, 12, 51, 0
14, 117240, Note_on_c, 12, 51, 38
14, 117359, Note_on_c, 12, 51, 0
14, 117360, Note_on_c, 12, 50, 36
14, 117429, Note_on_c, 12, 50, 0
14, 117480, Note_on_c, 12, 50, 34
14, 117599, Note_on_c, 12, 50, 0
14, 117600, Note_on_c, 12, 48, 32
14, 117689, Note_on_c, 12, 48, 0
14, 118080, Note_on_c, 12, 44, 43
14, 118499, Note_on_c, 12, 44, 0
14, 118560, Note_on_c, 12, 44, 53
14, 118979, Note_on_c, 12, 44, 0
14, 119040, Note_on_c, 12, 43, 53
14, 119159, Note_on_c, 12, 43, 0
14, 119280, Note_on_c, 12, 43, 43
14, 119339, Note_on_c, 12, 43, 0
14, 119520, Note_on_c, 12, 48, 23
14, 119609, Note_on_c, 12, 48, 0
14, 119880, Note_on_c, 12, 48, 29
14, 119999, Note_on_c, 12, 48, 0
14, 120000, Note_on_c, 12, 46, 32
14, 120119, Note_on_c, 12, 46, 0
14, 120360, Note_on_c, 12, 46, 38
14, 120479, Note_on_c, 12, 46, 0
14, 120480, Note_on_c, 12, 45, 41
14, 120599, Note_on_c, 12, 45, 0
14, 120840, Note_on_c, 12, 45, 47
14, 120959, Note_on_c, 12, 45, 0
14, 120960, Note_on_c, 12, 44, 50
14, 121439, Note_on_c, 12, 44, 0
14, 121440, Note_on_c, 12, 43, 59
14, 121559, Note_on_c, 12, 43, 0
14, 138000, Control_c, 12, 0, 1
14, 138015, Control_c, 12, 32, 0
14, 138030, Program_c, 12, 48
14, 138045, Control_c, 12, 7, 107
14, 138420, Note_on_c, 12, 48, 31
14, 138459, Note_on_c, 12, 48, 0
14, 138480, Note_on_c, 12, 50, 35
14, 138519, Note_on_c, 12, 50, 0
14, 138540, Note_on_c, 12, 51, 37
14, 138579, Note_on_c, 12, 51, 0
14, 138600, Note_on_c, 12, 50, 41
14, 138639, Note_on_c, 12, 50, 0
14, 138660, Note_on_c, 12, 51, 42
14, 138699, Note_on_c, 12, 51, 0
14, 138720, Note_on_c, 12, 53, 43
14, 138839, Note_on_c, 12, 53, 0
14, 138840, Note_on_c, 12, 51, 46
14, 138869, Note_on_c, 12, 51, 0
14, 138900, Note_on_c, 12, 53, 47
14, 139019, Note_on_c, 12, 53, 0
14, 139020, Note_on_c, 12, 51, 50
14, 139049, Note_on_c, 12, 51, 0
14, 139080, Note_on_c, 12, 50, 52
14, 139259, Note_on_c, 12, 50, 0
14, 139260, Note_on_c, 12, 51, 33
14, 139319, Note_on_c, 12, 51, 0
14, 139440, Note_on_c, 12, 53, 34
14, 139559, Note_on_c, 12, 53, 0
14, 139560, Note_on_c, 12, 51, 36
14, 139589, Note_on_c, 12, 51, 0
14, 139620, Note_on_c, 12, 53, 38
14, 139739, Note_on_c, 12, 53, 0
14, 139740, Note_on_c, 12, 51, 40
14, 139769, Note_on_c, 12, 51, 0
14, 139800, Note_on_c, 12, 50, 42
14, 139979, Note_on_c, 12, 50, 0
14, 139980, Note_on_c, 12, 51, 33
14, 140039, Note_on_c, 12, 51, 0
14, 140100, Note_on_c, 12, 52, 30
14, 140159, Note_on_c, 12, 52, 0
14, 140160, Note_on_c, 12, 53, 31
14, 140279, Note_on_c, 12, 53, 0
14, 140280, Note_on_c, 12, 54, 33
14, 140339, Note_on_c, 12, 54, 0
14, 140340, Note_on_c, 12, 55, 35
14, 140459, Note_on_c, 12, 55, 0
14, 140460, Note_on_c, 12, 55, 38
14, 140519, Note_on_c, 12, 55, 0
14, 140520, Note_on_c, 12, 56, 39
14, 140559, Note_on_c, 12, 56, 0
14, 140580, Note_on_c, 12, 52, 30
14, 140639, Note_on_c, 12, 52, 0
14, 140640, Note_on_c, 12, 53, 31
14, 140699, Note_on_c, 12, 53, 0
14, 140700, Note_on_c, 12, 54, 33
14, 140759, Note_on_c, 12, 54, 0
14, 140760, Note_on_c, 12, 55, 35
14, 140819, Note_on_c, 12, 55, 0
14, 140820, Note_on_c, 12, 55, 37
14, 140879, Note_on_c, 12, 55, 0
14, 140880, Note_on_c, 12, 56, 39
14, 140909, Note_on_c, 12, 56, 0
14, 140940, Note_on_c, 12, 52, 30
14, 140999, Note_on_c, 12, 52, 0
14, 141000, Note_on_c, 12, 53, 30
14, 141059, Note_on_c, 12, 53, 0
14, 141060, Note_on_c, 12, 54, 33
14, 141119, Note_on_c, 12, 54, 0
14, 141120, Note_on_c, 12, 55, 35
14, 141179, Note_on_c, 12, 55, 0
14, 141180, Note_on_c, 12, 55, 37
14, 141239, Note_on_c, 12, 55, 0
14, 141240, Note_on_c, 12, 56, 39
14, 141269, Note_on_c, 12, 56, 0
14, 141360, Note_on_c, 12, 55, 45
14, 141419, Note_on_c, 12, 55, 0
14, 141420, Note_on_c, 12, 56, 47
14, 141449, Note_on_c, 12, 56, 0
14, 141540, Note_on_c, 12, 55, 52
14, 141599, Note_on_c, 12, 55, 0
14, 141600, Note_on_c, 12, 56, 57
14, 141629, Note_on_c, 12, 56, 0
14, 141960, Note_on_c, 12, 50, 53
14, 142319, Note_on_c, 12, 50, 0
14, 142320, Note_on_c, 12, 51, 43
14, 142359, Note_on_c, 12, 51, 0
14, 142500, Note_on_c, 12, 53, 43
14, 142539, Note_on_c, 12, 53, 0
14, 142860, Note_on_c, 12, 55, 43
14, 142899, Note_on_c, 12, 55, 0
14, 143040, Note_on_c, 12, 56, 23
14, 144090, Control_c, 12, 7, 127
14, 144119, Note_on_c, 12, 56, 0
14, 144120, Note_on_c, 12, 55, 23
14, 144479, Note_on_c, 12, 55, 0
14, 144480, Note_on_c, 12, 48, 31
14, 144519, Note_on_c, 12, 48, 0
14, 144540, Note_on_c, 12, 48, 31
14, 144579, Note_on_c, 12, 48, 0
14, 144600, Note_on_c, 12, 50, 35
14, 144639, Note_on_c, 12, 50, 0
14, 144660, Note_on_c, 12, 51, 37
14, 144699, Note_on_c, 12, 51, 0
14, 144720, Note_on_c, 12, 50, 41
14, 144759, Note_on_c, 12, 50, 0
14, 144780, Note_on_c, 12, 51, 42
14, 144819, Note_on_c, 12, 51, 0
14, 144840, Note_on_c, 12, 53, 43
14, 144959, Note_on_c, 12, 53, 0
14, 144960, Note_on_c, 12, 51, 46
14, 144989, Note_on_c, 12, 51, 0
14, 145020, Note_on_c, 12, 53, 47
14, 145139, Note_on_c, 12, 53, 0
14, 145140, Note_on_c, 12, 51, 50
14, 145169, Note_on_c, 12, 51, 0
14, 145200, Note_on_c, 12, 50, 52
14, 145379, Note_on_c, 12, 50, 0
14, 145380, Note_on_c, 12, 51, 33
14, 145439, Note_on_c, 12, 51, 0
14, 145560, Note_on_c, 12, 53, 34
14, 145679, Note_on_c, 12, 53, 0
14, 145680, Note_on_c, 12, 51, 36
14, 145709, Note_on_c, 12, 51, 0
14, 145740, Note_on_c, 12, 53, 38
14, 145859, Note_on_c, 12, 53, 0
14, 145860, Note_on_c, 12, 51, 40
14, 145889, Note_on_c, 12, 51, 0
14, 145920, Note_on_c, 12, 50, 42
14, 146099, Note_on_c, 12, 50, 0
14, 146100, Note_on_c, 12, 51, 33
14, 146159, Note_on_c, 12, 51, 0
14, 146220, Note_on_c, 12, 52, 30
14, 146279, Note_on_c, 12, 52, 0
14, 146280, Note_on_c, 12, 53, 31
14, 146399, Note_on_c, 12, 53, 0
14, 146400, Note_on_c, 12, 54, 33
14, 146459, Note_on_c, 12, 54, 0
14, 146460, Note_on_c, 12, 55, 35
14, 146579, Note_on_c, 12, 55, 0
14, 146580, Note_on_c, 12, 55, 38
14, 146639, Note_on_c, 12, 55, 0
14, 146640, Note_on_c, 12, 56, 39
14, 146679, Note_on_c, 12, 56, 0
14, 146700, Note_on_c, 12, 52, 30
14, 146759, Note_on_c, 12, 52, 0
14, 146760, Note_on_c, 12, 53, 31
14, 146819, Note_on_c, 12, 53, 0
14, 146820, Note_on_c, 12, 54, 33
14, 146879, Note_on_c, 12, 54, 0
14, 146880, Note_on_c, 12, 55, 35
14, 146939, Note_on_c, 12, 55, 0
14, 146940, Note_on_c, 12, 55, 37
14, 146999, Note_on_c, 12, 55, 0
14, 147000, Note_on_c, 12, 56, 39
14, 147029, Note_on_c, 12, 56, 0
14, 147060, Note_on_c, 12, 52, 30
14, 147119, Note_on_c, 12, 52, 0
14, 147120, Note_on_c, 12, 53, 30
14, 147179, Note_on_c, 12, 53, 0
14, 147180, Note_on_c, 12, 54, 33
14, 147239, Note_on_c, 12, 54, 0
14, 147240, Note_on_c, 12, 55, 35
14, 147299, Note_on_c, 12, 55, 0
14, 147300, Note_on_c, 12, 55, 37
14, 147359, Note_on_c, 12, 55, 0
14, 147360, Note_on_c, 12, 56, 39
14, 147389, Note_on_c, 12, 56, 0
14, 147480, Note_on_c, 12, 55, 45
14, 147539, Note_on_c, 12, 55, 0
14, 147540, Note_on_c, 12, 56, 47
14, 147569, Note_on_c, 12, 56, 0
14, 147660, Note_on_c, 12, 55, 52
14, 147719, Note_on_c, 12, 55, 0
14, 147720, Note_on_c, 12, 56, 57
14, 147749, Note_on_c, 12, 56, 0
14, 148080, Note_on_c, 12, 50, 53
14, 148439, Note_on_c, 12, 50, 0
14, 148440, Note_on_c, 12, 51, 43
14, 148479, Note_on_c, 12, 51, 0
14, 148620, Note_on_c, 12, 53, 43
14, 148649, Note_on_c, 12, 53, 0
14, 148980, Note_on_c, 12, 55, 43
14, 149009, Note_on_c, 12, 55, 0
14, 149160, Note_on_c, 12, 56, 23
14, 150239, Note_on_c, 12, 56, 0
14, 150240, Note_on_c, 12, 55, 23
14, 150599, Note_on_c, 12, 55, 0
14, 152040, Note_on_c, 12, 48, 32
14, 152129, Note_on_c, 12, 48, 0
14, 152400, Note_on_c, 12, 53, 32
14, 152459, Note_on_c, 12, 53, 0
14, 152580, Note_on_c, 12, 51, 32
14, 152639, Note_on_c, 12, 51, 0
14, 152760, Note_on_c, 12, 48, 32
14, 152849, Note_on_c, 12, 48, 0
14, 153120, Note_on_c, 12, 53, 32
14, 153179, Note_on_c, 12, 53, 0
14, 153300, Note_on_c, 12, 55, 32
14, 153359, Note_on_c, 12, 55, 0
14, 153480, Note_on_c, 12, 56, 32
14, 153569, Note_on_c, 12, 56, 0
14, 153840, Note_on_c, 12, 53, 35
14, 153899, Note_on_c, 12, 53, 0
14, 154020, Note_on_c, 12, 55, 37
14, 154079, Note_on_c, 12, 55, 0
14, 154200, Note_on_c, 12, 48, 62
14, 154289, Note_on_c, 12, 48, 0
14, 154560, Note_on_c, 12, 63, 63
14, 154560, Note_on_c, 12, 48, 55
14, 154589, Note_on_c, 12, 48, 0
14, 154590, Note_on_c, 12, 43, 56
14, 154619, Note_on_c, 12, 43, 0
14, 154619, Note_on_c, 12, 63, 0
14, 154620, Note_on_c, 12, 45, 57
14, 154649, Note_on_c, 12, 45, 0
14, 154650, Note_on_c, 12, 47, 58
14, 154679, Note_on_c, 12, 47, 0
14, 154680, Note_on_c, 12, 48, 59
14, 154709, Note_on_c, 12, 48, 0
14, 154710, Note_on_c, 12, 50, 60
14, 154739, Note_on_c, 12, 50, 0
14, 154740, Note_on_c, 12, 51, 61
14, 154769, Note_on_c, 12, 51, 0
14, 154770, Note_on_c, 12, 47, 62
14, 154799, Note_on_c, 12, 47, 0
14, 154800, Note_on_c, 12, 48, 63
14, 154829, Note_on_c, 12, 48, 0
14, 154830, Note_on_c, 12, 50, 64
14, 154859, Note_on_c, 12, 50, 0
14, 154860, Note_on_c, 12, 51, 64
14, 154889, Note_on_c, 12, 51, 0
14, 154890, Note_on_c, 12, 53, 66
14, 154919, Note_on_c, 12, 53, 0
14, 154920, Note_on_c, 12, 55, 67
14, 154979, Note_on_c, 12, 55, 0
14, 155100, Note_on_c, 12, 55, 72
14, 155159, Note_on_c, 12, 55, 0
14, 155280, Note_on_c, 12, 48, 79
14, 155339, Note_on_c, 12, 48, 0
14, 155339, End_track
15, 0, Start_track
15, 0, MIDI_port, 0
15, 0, Title_t, "Contrabass"
15, 20, Control_c, 13, 121, 0
15, 21, Control_c, 13, 11, 127
15, 21, Control_c, 13, 7, 127
15, 22, Control_c, 13, 93, 10
15, 22, Control_c, 13, 91, 79
15, 25, Control_c, 13, 10, 74
15, 26, Pitch_bend_c, 13, 8192
15, 27, Control_c, 13, 0, 1
15, 28, Control_c, 13, 32, 0
15, 29, Program_c, 13, 48
15, 960, Note_on_c, 13, 36, 33
15, 1049, Note_on_c, 13, 36, 0
15, 1200, Note_on_c, 13, 31, 33
15, 1289, Note_on_c, 13, 31, 0
15, 1440, Note_on_c, 13, 36, 33
15, 1559, Note_on_c, 13, 36, 0
15, 1920, Note_on_c, 13, 32, 33
15, 2399, Note_on_c, 13, 32, 0
15, 2400, Note_on_c, 13, 31, 33
15, 2519, Note_on_c, 13, 31, 0
15, 2880, Note_on_c, 13, 39, 33
15, 3839, Note_on_c, 13, 39, 0
15, 3840, Note_on_c, 13, 38, 33
15, 3959, Note_on_c, 13, 38, 0
15, 4080, Note_on_c, 13, 38, 33
15, 4199, Note_on_c, 13, 38, 0
15, 4320, Note_on_c, 13, 31, 33
15, 4439, Note_on_c, 13, 31, 0
15, 4800, Note_on_c, 13, 36, 26
15, 4889, Note_on_c, 13, 36, 0
15, 5040, Note_on_c, 13, 31, 25
15, 5129, Note_on_c, 13, 31, 0
15, 5280, Note_on_c, 13, 36, 23
15, 5359, Note_on_c, 13, 36, 0
15, 5760, Note_on_c, 13, 32, 33
15, 6239, Note_on_c, 13, 32, 0
15, 6240, Note_on_c, 13, 31, 28
15, 6359, Note_on_c, 13, 31, 0
15, 6719, Control_c, 13, 11, 66
15, 6720, Note_on_c, 13, 39, 53
15, 6721, Control_c, 13, 11, 67
15, 6751, Control_c, 13, 11, 68
15, 6781, Control_c, 13, 11, 69
15, 6811, Control_c, 13, 11, 70
15, 6841, Control_c, 13, 11, 71
15, 6871, Control_c, 13, 11, 72
15, 6901, Control_c, 13, 11, 73
15, 6931, Control_c, 13, 11, 74
15, 6961, Control_c, 13, 11, 75
15, 6991, Control_c, 13, 11, 76
15, 7021, Control_c, 13, 11, 77
15, 7051, Control_c, 13, 11, 78
15, 7081, Control_c, 13, 11, 80
15, 7111, Control_c, 13, 11, 82
15, 7141, Control_c, 13, 11, 84
15, 7171, Control_c, 13, 11, 86
15, 7201, Control_c, 13, 11, 88
15, 7231, Control_c, 13, 11, 90
15, 7261, Control_c, 13, 11, 92
15, 7291, Control_c, 13, 11, 94
15, 7321, Control_c, 13, 11, 96
15, 7351, Control_c, 13, 11, 98
15, 7381, Control_c, 13, 11, 100
15, 7411, Control_c, 13, 11, 103
15, 7441, Control_c, 13, 11, 106
15, 7471, Control_c, 13, 11, 109
15, 7501, Control_c, 13, 11, 112
15, 7531, Control_c, 13, 11, 115
15, 7561, Control_c, 13, 11, 118
15, 7591, Control_c, 13, 11, 121
15, 7621, Control_c, 13, 11, 124
15, 7651, Control_c, 13, 11, 127
15, 7679, Note_on_c, 13, 39, 0
15, 7679, Control_c, 13, 11, 127
15, 7680, Note_on_c, 13, 38, 33
15, 7799, Note_on_c, 13, 38, 0
15, 7920, Note_on_c, 13, 38, 33
15, 8039, Note_on_c, 13, 38, 0
15, 8160, Note_on_c, 13, 31, 33
15, 8279, Note_on_c, 13, 31, 0
15, 8640, Note_on_c, 13, 35, 33
15, 8699, Note_on_c, 13, 35, 0
15, 8880, Note_on_c, 13, 36, 33
15, 8939, Note_on_c, 13, 36, 0
15, 9120, Note_on_c, 13, 31, 33
15, 9179, Note_on_c, 13, 31, 0
15, 9480, Note_on_c, 13, 41, 33
15, 9600, Note_on_c, 13, 39, 28
15, 9609, Note_on_c, 13, 41, 0
15, 9839, Note_on_c, 13, 39, 0
15, 9840, Note_on_c, 13, 35, 29
15, 10079, Note_on_c, 13, 35, 0
15, 10080, Note_on_c, 13, 36, 23
15, 10199, Note_on_c, 13, 36, 0
15, 10560, Note_on_c, 13, 32, 23
15, 11039, Note_on_c, 13, 32, 0
15, 11040, Note_on_c, 13, 32, 33
15, 11519, Note_on_c, 13, 32, 0
15, 11520, Note_on_c, 13, 31, 33
15, 11599, Note_on_c, 13, 31, 0
15, 11760, Note_on_c, 13, 43, 33
15, 11839, Note_on_c, 13, 43, 0
15, 12000, Note_on_c, 13, 36, 23
15, 12119, Note_on_c, 13, 36, 0
15, 12480, Note_on_c, 13, 35, 33
15, 12539, Note_on_c, 13, 35, 0
15, 12720, Note_on_c, 13, 36, 33
15, 12779, Note_on_c, 13, 36, 0
15, 12960, Note_on_c, 13, 31, 33
15, 13019, Note_on_c, 13, 31, 0
15, 13320, Note_on_c, 13, 41, 33
15, 13440, Note_on_c, 13, 39, 28
15, 13449, Note_on_c, 13, 41, 0
15, 13679, Note_on_c, 13, 39, 0
15, 13680, Note_on_c, 13, 35, 23
15, 13919, Note_on_c, 13, 35, 0
15, 13920, Note_on_c, 13, 36, 21
15, 14039, Note_on_c, 13, 36, 0
15, 14400, Note_on_c, 13, 32, 23
15, 14879, Note_on_c, 13, 32, 0
15, 14880, Note_on_c, 13, 32, 33
15, 15359, Note_on_c, 13, 32, 0
15, 15360, Note_on_c, 13, 31, 33
15, 15439, Note_on_c, 13, 31, 0
15, 15600, Note_on_c, 13, 43, 33
15, 15679, Note_on_c, 13, 43, 0
15, 15840, Note_on_c, 13, 36, 23
15, 15959, Note_on_c, 13, 36, 0
15, 16320, Note_on_c, 13, 48, 24
15, 16379, Note_on_c, 13, 48, 0
15, 16560, Note_on_c, 13, 43, 24
15, 16619, Note_on_c, 13, 43, 0
15, 16800, Note_on_c, 13, 39, 24
15, 16859, Note_on_c, 13, 39, 0
15, 17279, Control_c, 13, 11, 66
15, 17280, Note_on_c, 13, 44, 34
15, 17281, Control_c, 13, 11, 67
15, 17296, Control_c, 13, 11, 68
15, 17311, Control_c, 13, 11, 69
15, 17326, Control_c, 13, 11, 70
15, 17341, Control_c, 13, 11, 71
15, 17356, Control_c, 13, 11, 72
15, 17371, Control_c, 13, 11, 73
15, 17386, Control_c, 13, 11, 74
15, 17401, Control_c, 13, 11, 75
15, 17416, Control_c, 13, 11, 76
15, 17431, Control_c, 13, 11, 77
15, 17446, Control_c, 13, 11, 78
15, 17461, Control_c, 13, 11, 80
15, 17476, Control_c, 13, 11, 82
15, 17491, Control_c, 13, 11, 84
15, 17506, Control_c, 13, 11, 86
15, 17521, Control_c, 13, 11, 88
15, 17536, Control_c, 13, 11, 90
15, 17551, Control_c, 13, 11, 92
15, 17566, Control_c, 13, 11, 94
15, 17581, Control_c, 13, 11, 96
15, 17596, Control_c, 13, 11, 98
15, 17611, Control_c, 13, 11, 100
15, 17626, Control_c, 13, 11, 103
15, 17641, Control_c, 13, 11, 106
15, 17656, Control_c, 13, 11, 109
15, 17671, Control_c, 13, 11, 112
15, 17686, Control_c, 13, 11, 115
15, 17701, Control_c, 13, 11, 118
15, 17716, Control_c, 13, 11, 121
15, 17731, Control_c, 13, 11, 124
15, 17746, Control_c, 13, 11, 127
15, 17759, Note_on_c, 13, 44, 0
15, 17759, Control_c, 13, 11, 127
15, 17760, Note_on_c, 13, 43, 24
15, 17879, Note_on_c, 13, 43, 0
15, 18240, Note_on_c, 13, 39, 24
15, 18719, Note_on_c, 13, 39, 0
15, 18720, Note_on_c, 13, 39, 34
15, 19199, Note_on_c, 13, 39, 0
15, 19200, Note_on_c, 13, 38, 39
15, 19249, Note_on_c, 13, 38, 0
15, 19440, Note_on_c, 13, 38, 34
15, 19489, Note_on_c, 13, 38, 0
15, 19680, Note_on_c, 13, 31, 21
15, 19799, Note_on_c, 13, 31, 0
15, 20160, Note_on_c, 13, 48, 24
15, 20219, Note_on_c, 13, 48, 0
15, 20400, Note_on_c, 13, 43, 24
15, 20459, Note_on_c, 13, 43, 0
15, 20640, Note_on_c, 13, 39, 24
15, 20699, Note_on_c, 13, 39, 0
15, 21119, Control_c, 13, 11, 66
15, 21120, Note_on_c, 13, 44, 34
15, 21121, Control_c, 13, 11, 67
15, 21136, Control_c, 13, 11, 68
15, 21151, Control_c, 13, 11, 69
15, 21166, Control_c, 13, 11, 70
15, 21181, Control_c, 13, 11, 71
15, 21196, Control_c, 13, 11, 72
15, 21211, Control_c, 13, 11, 73
15, 21226, Control_c, 13, 11, 74
15, 21241, Control_c, 13, 11, 75
15, 21256, Control_c, 13, 11, 76
15, 21271, Control_c, 13, 11, 77
15, 21286, Control_c, 13, 11, 78
15, 21301, Control_c, 13, 11, 80
15, 21316, Control_c, 13, 11, 82
15, 21331, Control_c, 13, 11, 84
15, 21346, Control_c, 13, 11, 86
15, 21361, Control_c, 13, 11, 88
15, 21376, Control_c, 13, 11, 90
15, 21391, Control_c, 13, 11, 92
15, 21406, Control_c, 13, 11, 94
15, 21421, Control_c, 13, 11, 96
15, 21436, Control_c, 13, 11, 98
15, 21451, Control_c, 13, 11, 100
15, 21466, Control_c, 13, 11, 103
15, 21481, Control_c, 13, 11, 106
15, 21496, Control_c, 13, 11, 109
15, 21511, Control_c, 13, 11, 112
15, 21526, Control_c, 13, 11, 115
15, 21541, Control_c, 13, 11, 118
15, 21556, Control_c, 13, 11, 121
15, 21571, Control_c, 13, 11, 124
15, 21586, Control_c, 13, 11, 127
15, 21599, Note_on_c, 13, 44, 0
15, 21599, Control_c, 13, 11, 127
15, 21600, Note_on_c, 13, 43, 24
15, 21719, Note_on_c, 13, 43, 0
15, 22080, Note_on_c, 13, 39, 19
15, 22559, Note_on_c, 13, 39, 0
15, 22560, Note_on_c, 13, 39, 27
15, 23039, Note_on_c, 13, 39, 0
15, 23040, Note_on_c, 13, 38, 31
15, 23089, Note_on_c, 13, 38, 0
15, 23280, Note_on_c, 13, 38, 27
15, 23329, Note_on_c, 13, 38, 0
15, 23520, Note_on_c, 13, 31, 21
15, 23639, Note_on_c, 13, 31, 0
15, 23760, Control_c, 13, 7, 97
15, 24000, Note_on_c, 13, 35, 24
15, 24089, Note_on_c, 13, 35, 0
15, 24240, Note_on_c, 13, 36, 24
15, 24329, Note_on_c, 13, 36, 0
15, 24480, Note_on_c, 13, 31, 24
15, 24599, Note_on_c, 13, 31, 0
15, 24840, Note_on_c, 13, 41, 36
15, 24959, Note_on_c, 13, 41, 0
15, 24960, Note_on_c, 13, 39, 35
15, 25079, Note_on_c, 13, 39, 0
15, 25080, Note_on_c, 13, 36, 33
15, 25199, Note_on_c, 13, 36, 0
15, 25200, Note_on_c, 13, 33, 30
15, 25319, Note_on_c, 13, 33, 0
15, 25320, Note_on_c, 13, 35, 28
15, 25439, Note_on_c, 13, 35, 0
15, 25440, Note_on_c, 13, 36, 26
15, 25559, Note_on_c, 13, 36, 0
15, 25920, Note_on_c, 13, 32, 24
15, 26399, Note_on_c, 13, 32, 0
15, 26400, Note_on_c, 13, 32, 28
15, 26879, Note_on_c, 13, 32, 0
15, 26880, Note_on_c, 13, 31, 35
15, 26999, Note_on_c, 13, 31, 0
15, 27120, Note_on_c, 13, 31, 35
15, 27239, Note_on_c, 13, 31, 0
15, 27360, Note_on_c, 13, 36, 24
15, 27479, Note_on_c, 13, 36, 0
15, 27840, Note_on_c, 13, 35, 22
15, 27929, Note_on_c, 13, 35, 0
15, 28080, Note_on_c, 13, 36, 22
15, 28169, Note_on_c, 13, 36, 0
15, 28320, Note_on_c, 13, 31, 22
15, 28439, Note_on_c, 13, 31, 0
15, 28680, Note_on_c, 13, 41, 33
15, 28799, Note_on_c, 13, 41, 0
15, 28800, Note_on_c, 13, 39, 32
15, 28919, Note_on_c, 13, 39, 0
15, 28920, Note_on_c, 13, 36, 30
15, 29039, Note_on_c, 13, 36, 0
15, 29040, Note_on_c, 13, 33, 28
15, 29159, Note_on_c, 13, 33, 0
15, 29160, Note_on_c, 13, 35, 26
15, 29279, Note_on_c, 13, 35, 0
15, 29280, Note_on_c, 13, 36, 24
15, 29399, Note_on_c, 13, 36, 0
15, 29760, Note_on_c, 13, 32, 22
15, 30239, Note_on_c, 13, 32, 0
15, 30240, Note_on_c, 13, 32, 26
15, 30719, Note_on_c, 13, 32, 0
15, 30720, Note_on_c, 13, 31, 32
15, 30839, Note_on_c, 13, 31, 0
15, 30960, Note_on_c, 13, 31, 32
15, 31079, Note_on_c, 13, 31, 0
15, 31200, Note_on_c, 13, 36, 22
15, 31319, Note_on_c, 13, 36, 0
15, 35280, Control_c, 13, 7, 107
15, 35520, Note_on_c, 13, 36, 44
15, 35579, Note_on_c, 13, 36, 0
15, 35760, Note_on_c, 13, 31, 44
15, 35819, Note_on_c, 13, 31, 0
15, 36000, Note_on_c, 13, 36, 44
15, 36059, Note_on_c, 13, 36, 0
15, 36360, Note_on_c, 13, 34, 44
15, 36419, Note_on_c, 13, 34, 0
15, 36480, Note_on_c, 13, 33, 44
15, 36719, Note_on_c, 13, 33, 0
15, 36720, Note_on_c, 13, 32, 44
15, 36959, Note_on_c, 13, 32, 0
15, 36960, Note_on_c, 13, 31, 34
15, 37019, Note_on_c, 13, 31, 0
15, 37320, Note_on_c, 13, 35, 32
15, 37439, Note_on_c, 13, 35, 0
15, 37440, Note_on_c, 13, 36, 33
15, 37679, Note_on_c, 13, 36, 0
15, 37680, Note_on_c, 13, 38, 37
15, 37919, Note_on_c, 13, 38, 0
15, 37920, Note_on_c, 13, 39, 40
15, 38399, Note_on_c, 13, 39, 0
15, 38400, Note_on_c, 13, 38, 48
15, 38459, Note_on_c, 13, 38, 0
15, 38640, Note_on_c, 13, 38, 44
15, 38699, Note_on_c, 13, 38, 0
15, 38880, Note_on_c, 13, 31, 34
15, 38969, Note_on_c, 13, 31, 0
15, 43200, Note_on_c, 13, 35, 33
15, 43319, Note_on_c, 13, 35, 0
15, 43440, Note_on_c, 13, 36, 31
15, 43559, Note_on_c, 13, 36, 0
15, 43680, Note_on_c, 13, 43, 29
15, 43799, Note_on_c, 13, 43, 0
15, 44040, Note_on_c, 13, 41, 33
15, 44159, Note_on_c, 13, 41, 0
15, 44160, Note_on_c, 13, 40, 32
15, 44279, Note_on_c, 13, 40, 0
15, 44280, Note_on_c, 13, 39, 31
15, 44399, Note_on_c, 13, 39, 0
15, 44400, Note_on_c, 13, 38, 31
15, 44519, Note_on_c, 13, 38, 0
15, 44520, Note_on_c, 13, 31, 30
15, 44639, Note_on_c, 13, 31, 0
15, 44640, Note_on_c, 13, 36, 29
15, 44759, Note_on_c, 13, 36, 0
15, 45000, Note_on_c, 13, 44, 34
15, 45119, Note_on_c, 13, 44, 0
15, 45120, Note_on_c, 13, 41, 34
15, 45359, Note_on_c, 13, 41, 0
15, 45360, Note_on_c, 13, 43, 36
15, 45599, Note_on_c, 13, 43, 0
15, 45600, Note_on_c, 13, 44, 37
15, 46079, Note_on_c, 13, 44, 0
15, 46080, Note_on_c, 13, 43, 33
15, 46199, Note_on_c, 13, 43, 0
15, 46320, Note_on_c, 13, 31, 31
15, 46439, Note_on_c, 13, 31, 0
15, 46560, Note_on_c, 13, 36, 23
15, 46679, Note_on_c, 13, 36, 0
15, 50400, Control_c, 13, 7, 127
15, 50400, Control_c, 13, 0, 0
15, 50401, Control_c, 13, 32, 0
15, 50402, Program_c, 13, 48
15, 50880, Note_on_c, 13, 48, 68
15, 50969, Note_on_c, 13, 48, 0
15, 51000, Note_on_c, 13, 48, 59
15, 51029, Note_on_c, 13, 48, 0
15, 51090, Note_on_c, 13, 48, 59
15, 51119, Note_on_c, 13, 48, 0
15, 51120, Note_on_c, 13, 43, 68
15, 51209, Note_on_c, 13, 43, 0
15, 51240, Note_on_c, 13, 43, 59
15, 51269, Note_on_c, 13, 43, 0
15, 51330, Note_on_c, 13, 43, 59
15, 51359, Note_on_c, 13, 43, 0
15, 51360, Note_on_c, 13, 39, 68
15, 51449, Note_on_c, 13, 39, 0
15, 51480, Note_on_c, 13, 39, 59
15, 51509, Note_on_c, 13, 39, 0
15, 51570, Note_on_c, 13, 39, 59
15, 51599, Note_on_c, 13, 39, 0
15, 51600, Note_on_c, 13, 36, 68
15, 51689, Note_on_c, 13, 36, 0
15, 51720, Note_on_c, 13, 36, 59
15, 51749, Note_on_c, 13, 36, 0
15, 51810, Note_on_c, 13, 36, 59
15, 51839, Note_on_c, 13, 36, 0
15, 51840, Note_on_c, 13, 32, 68
15, 51929, Note_on_c, 13, 32, 0
15, 51960, Note_on_c, 13, 32, 59
15, 51989, Note_on_c, 13, 32, 0
15, 52050, Note_on_c, 13, 32, 59
15, 52079, Note_on_c, 13, 32, 0
15, 52080, Note_on_c, 13, 32, 68
15, 52169, Note_on_c, 13, 32, 0
15, 52200, Note_on_c, 13, 32, 59
15, 52229, Note_on_c, 13, 32, 0
15, 52290, Note_on_c, 13, 32, 59
15, 52319, Note_on_c, 13, 32, 0
15, 52320, Note_on_c, 13, 31, 68
15, 52439, Note_on_c, 13, 31, 0
15, 52800, Note_on_c, 13, 39, 68
15, 52889, Note_on_c, 13, 39, 0
15, 52920, Note_on_c, 13, 39, 59
15, 52949, Note_on_c, 13, 39, 0
15, 53010, Note_on_c, 13, 39, 59
15, 53039, Note_on_c, 13, 39, 0
15, 53040, Note_on_c, 13, 39, 59
15, 53129, Note_on_c, 13, 39, 0
15, 53160, Note_on_c, 13, 39, 59
15, 53249, Note_on_c, 13, 39, 0
15, 53280, Note_on_c, 13, 39, 68
15, 53369, Note_on_c, 13, 39, 0
15, 53400, Note_on_c, 13, 39, 59
15, 53429, Note_on_c, 13, 39, 0
15, 53490, Note_on_c, 13, 39, 59
15, 53519, Note_on_c, 13, 39, 0
15, 53520, Note_on_c, 13, 39, 59
15, 53609, Note_on_c, 13, 39, 0
15, 53640, Note_on_c, 13, 39, 59
15, 53699, Note_on_c, 13, 39, 0
15, 53760, Note_on_c, 13, 38, 68
15, 53849, Note_on_c, 13, 38, 0
15, 53880, Note_on_c, 13, 38, 59
15, 53909, Note_on_c, 13, 38, 0
15, 53970, Note_on_c, 13, 38, 59
15, 53999, Note_on_c, 13, 38, 0
15, 54000, Note_on_c, 13, 38, 59
15, 54089, Note_on_c, 13, 38, 0
15, 54120, Note_on_c, 13, 38, 59
15, 54149, Note_on_c, 13, 38, 0
15, 54210, Note_on_c, 13, 38, 59
15, 54239, Note_on_c, 13, 38, 0
15, 54240, Note_on_c, 13, 31, 59
15, 54299, Note_on_c, 13, 31, 0
15, 54300, Note_on_c, 13, 33, 61
15, 54329, Note_on_c, 13, 33, 0
15, 54330, Note_on_c, 13, 34, 63
15, 54359, Note_on_c, 13, 34, 0
15, 54360, Note_on_c, 13, 36, 63
15, 54389, Note_on_c, 13, 36, 0
15, 54390, Note_on_c, 13, 38, 64
15, 54419, Note_on_c, 13, 38, 0
15, 54420, Note_on_c, 13, 40, 66
15, 54449, Note_on_c, 13, 40, 0
15, 54450, Note_on_c, 13, 42, 67
15, 54479, Note_on_c, 13, 42, 0
15, 54480, Note_on_c, 13, 43, 69
15, 54539, Note_on_c, 13, 43, 0
15, 58560, Note_on_c, 13, 35, 77
15, 58619, Note_on_c, 13, 35, 0
15, 58680, Note_on_c, 13, 35, 77
15, 58709, Note_on_c, 13, 35, 0
15, 58770, Note_on_c, 13, 35, 77
15, 58799, Note_on_c, 13, 35, 0
15, 58800, Note_on_c, 13, 36, 77
15, 58899, Note_on_c, 13, 36, 0
15, 58920, Note_on_c, 13, 36, 77
15, 58959, Note_on_c, 13, 36, 0
15, 59010, Note_on_c, 13, 36, 77
15, 59039, Note_on_c, 13, 36, 0
15, 59040, Note_on_c, 13, 43, 77
15, 59129, Note_on_c, 13, 43, 0
15, 59160, Note_on_c, 13, 43, 77
15, 59189, Note_on_c, 13, 43, 0
15, 59250, Note_on_c, 13, 43, 77
15, 59279, Note_on_c, 13, 43, 0
15, 59280, Note_on_c, 13, 41, 77
15, 59379, Note_on_c, 13, 41, 0
15, 59400, Note_on_c, 13, 41, 77
15, 59439, Note_on_c, 13, 41, 0
15, 59490, Note_on_c, 13, 41, 77
15, 59519, Note_on_c, 13, 41, 0
15, 59520, Note_on_c, 13, 39, 77
15, 59619, Note_on_c, 13, 39, 0
15, 59640, Note_on_c, 13, 39, 77
15, 59679, Note_on_c, 13, 39, 0
15, 59730, Note_on_c, 13, 39, 77
15, 59759, Note_on_c, 13, 39, 0
15, 59760, Note_on_c, 13, 38, 77
15, 59849, Note_on_c, 13, 38, 0
15, 59880, Note_on_c, 13, 38, 77
15, 59919, Note_on_c, 13, 38, 0
15, 59970, Note_on_c, 13, 38, 77
15, 59999, Note_on_c, 13, 38, 0
15, 60000, Note_on_c, 13, 36, 77
15, 60089, Note_on_c, 13, 36, 0
15, 60480, Note_on_c, 13, 44, 66
15, 60569, Note_on_c, 13, 44, 0
15, 60600, Note_on_c, 13, 44, 67
15, 60629, Note_on_c, 13, 44, 0
15, 60690, Note_on_c, 13, 44, 68
15, 60719, Note_on_c, 13, 44, 0
15, 60720, Note_on_c, 13, 44, 68
15, 60809, Note_on_c, 13, 44, 0
15, 60840, Note_on_c, 13, 44, 70
15, 60899, Note_on_c, 13, 44, 0
15, 60960, Note_on_c, 13, 44, 71
15, 61049, Note_on_c, 13, 44, 0
15, 61080, Note_on_c, 13, 44, 73
15, 61119, Note_on_c, 13, 44, 0
15, 61170, Note_on_c, 13, 44, 74
15, 61199, Note_on_c, 13, 44, 0
15, 61200, Note_on_c, 13, 44, 74
15, 61289, Note_on_c, 13, 44, 0
15, 61320, Note_on_c, 13, 44, 76
15, 61379, Note_on_c, 13, 44, 0
15, 61440, Note_on_c, 13, 43, 77
15, 61529, Note_on_c, 13, 43, 0
15, 61560, Note_on_c, 13, 43, 77
15, 61599, Note_on_c, 13, 43, 0
15, 61650, Note_on_c, 13, 43, 77
15, 61679, Note_on_c, 13, 43, 0
15, 61680, Note_on_c, 13, 43, 77
15, 61749, Note_on_c, 13, 43, 0
15, 61800, Note_on_c, 13, 43, 77
15, 61849, Note_on_c, 13, 43, 0
15, 61890, Note_on_c, 13, 43, 77
15, 61919, Note_on_c, 13, 43, 0
15, 61920, Note_on_c, 13, 36, 66
15, 61979, Note_on_c, 13, 36, 0
15, 61980, Note_on_c, 13, 38, 71
15, 62009, Note_on_c, 13, 38, 0
15, 62010, Note_on_c, 13, 39, 73
15, 62039, Note_on_c, 13, 39, 0
15, 62040, Note_on_c, 13, 41, 76
15, 62069, Note_on_c, 13, 41, 0
15, 62070, Note_on_c, 13, 43, 79
15, 62099, Note_on_c, 13, 43, 0
15, 62100, Note_on_c, 13, 45, 81
15, 62129, Note_on_c, 13, 45, 0
15, 62130, Note_on_c, 13, 47, 84
15, 62159, Note_on_c, 13, 47, 0
15, 62160, Note_on_c, 13, 48, 86
15, 62219, Note_on_c, 13, 48, 0
15, 66240, Note_on_c, 13, 32, 33
15, 66269, Note_on_c, 13, 32, 0
15, 66360, Note_on_c, 13, 32, 33
15, 66389, Note_on_c, 13, 32, 0
15, 66480, Note_on_c, 13, 39, 33
15, 66509, Note_on_c, 13, 39, 0
15, 66600, Note_on_c, 13, 39, 34
15, 66629, Note_on_c, 13, 39, 0
15, 66720, Note_on_c, 13, 41, 34
15, 66749, Note_on_c, 13, 41, 0
15, 66840, Note_on_c, 13, 37, 44
15, 67079, Note_on_c, 13, 37, 0
15, 67080, Note_on_c, 13, 36, 35
15, 67109, Note_on_c, 13, 36, 0
15, 67200, Note_on_c, 13, 34, 36
15, 67229, Note_on_c, 13, 34, 0
15, 67320, Note_on_c, 13, 36, 36
15, 67349, Note_on_c, 13, 36, 0
15, 67440, Note_on_c, 13, 37, 36
15, 67469, Note_on_c, 13, 37, 0
15, 67560, Note_on_c, 13, 38, 37
15, 67589, Note_on_c, 13, 38, 0
15, 67680, Note_on_c, 13, 39, 37
15, 67709, Note_on_c, 13, 39, 0
15, 67800, Note_on_c, 13, 43, 42
15, 68039, Note_on_c, 13, 43, 0
15, 68040, Note_on_c, 13, 41, 38
15, 68069, Note_on_c, 13, 41, 0
15, 68160, Note_on_c, 13, 39, 39
15, 68189, Note_on_c, 13, 39, 0
15, 68280, Note_on_c, 13, 41, 39
15, 68309, Note_on_c, 13, 41, 0
15, 68400, Note_on_c, 13, 43, 39
15, 68429, Note_on_c, 13, 43, 0
15, 68520, Note_on_c, 13, 31, 40
15, 68549, Note_on_c, 13, 31, 0
15, 68640, Note_on_c, 13, 32, 40
15, 68669, Note_on_c, 13, 32, 0
15, 68760, Note_on_c, 13, 44, 37
15, 68999, Note_on_c, 13, 44, 0
15, 69120, Note_on_c, 13, 43, 32
15, 69149, Note_on_c, 13, 43, 0
15, 69240, Note_on_c, 13, 44, 31
15, 69269, Note_on_c, 13, 44, 0
15, 69360, Note_on_c, 13, 46, 29
15, 69389, Note_on_c, 13, 46, 0
15, 69480, Note_on_c, 13, 34, 28
15, 69509, Note_on_c, 13, 34, 0
15, 69720, Note_on_c, 13, 39, 25
15, 69809, Note_on_c, 13, 39, 0
15, 69840, Note_on_c, 13, 27, 23
15, 69929, Note_on_c, 13, 27, 0
15, 73950, Note_on_c, 13, 31, 28
15, 73979, Note_on_c, 13, 31, 0
15, 74040, Note_on_c, 13, 31, 28
15, 74069, Note_on_c, 13, 31, 0
15, 74160, Note_on_c, 13, 32, 28
15, 74189, Note_on_c, 13, 32, 0
15, 74280, Note_on_c, 13, 32, 28
15, 74309, Note_on_c, 13, 32, 0
15, 74400, Note_on_c, 13, 37, 28
15, 74429, Note_on_c, 13, 37, 0
15, 74520, Note_on_c, 13, 37, 28
15, 74879, Note_on_c, 13, 37, 0
15, 74880, Note_on_c, 13, 36, 28
15, 74909, Note_on_c, 13, 36, 0
15, 75000, Note_on_c, 13, 36, 28
15, 75029, Note_on_c, 13, 36, 0
15, 75120, Note_on_c, 13, 40, 28
15, 75149, Note_on_c, 13, 40, 0
15, 75240, Note_on_c, 13, 40, 28
15, 75269, Note_on_c, 13, 40, 0
15, 75360, Note_on_c, 13, 41, 28
15, 75389, Note_on_c, 13, 41, 0
15, 75480, Note_on_c, 13, 39, 28
15, 75809, Note_on_c, 13, 39, 0
15, 75840, Note_on_c, 13, 37, 28
15, 75869, Note_on_c, 13, 37, 0
15, 75960, Note_on_c, 13, 37, 28
15, 76289, Note_on_c, 13, 37, 0
15, 76320, Note_on_c, 13, 36, 28
15, 76559, Note_on_c, 13, 36, 0
15, 76560, Note_on_c, 13, 37, 28
15, 76799, Note_on_c, 13, 37, 0
15, 76800, Note_on_c, 13, 39, 28
15, 77279, Note_on_c, 13, 39, 0
15, 77400, Note_on_c, 13, 44, 22
15, 77469, Note_on_c, 13, 44, 0
15, 77520, Note_on_c, 13, 32, 17
15, 77589, Note_on_c, 13, 32, 0
15, 83520, Note_on_c, 13, 36, 30
15, 83759, Note_on_c, 13, 36, 0
15, 83760, Note_on_c, 13, 38, 30
15, 83999, Note_on_c, 13, 38, 0
15, 84000, Note_on_c, 13, 39, 30
15, 84239, Note_on_c, 13, 39, 0
15, 84240, Note_on_c, 13, 41, 30
15, 84479, Note_on_c, 13, 41, 0
15, 84480, Note_on_c, 13, 43, 30
15, 84719, Note_on_c, 13, 43, 0
15, 84720, Note_on_c, 13, 45, 30
15, 84959, Note_on_c, 13, 45, 0
15, 84960, Note_on_c, 13, 46, 30
15, 85199, Note_on_c, 13, 46, 0
15, 85200, Note_on_c, 13, 48, 30
15, 85439, Note_on_c, 13, 48, 0
15, 85440, Note_on_c, 13, 50, 34
15, 85559, Note_on_c, 13, 50, 0
15, 85560, Note_on_c, 13, 51, 32
15, 85679, Note_on_c, 13, 51, 0
15, 85680, Note_on_c, 13, 48, 30
15, 85799, Note_on_c, 13, 48, 0
15, 85800, Note_on_c, 13, 50, 28
15, 85919, Note_on_c, 13, 50, 0
15, 85920, Note_on_c, 13, 43, 26
15, 86039, Note_on_c, 13, 43, 0
15, 90744, Control_c, 13, 74, 74
15, 90746, Control_c, 13, 0, 0
15, 90748, Control_c, 13, 32, 0
15, 90750, Program_c, 13, 49
15, 92160, Note_on_c, 13, 29, 38
15, 92399, Note_on_c, 13, 29, 0
15, 92400, Note_on_c, 13, 31, 38
15, 92639, Note_on_c, 13, 31, 0
15, 92640, Note_on_c, 13, 32, 38
15, 92879, Note_on_c, 13, 32, 0
15, 92880, Note_on_c, 13, 34, 38
15, 93119, Note_on_c, 13, 34, 0
15, 93120, Note_on_c, 13, 36, 38
15, 93359, Note_on_c, 13, 36, 0
15, 93360, Note_on_c, 13, 38, 38
15, 93599, Note_on_c, 13, 38, 0
15, 93600, Note_on_c, 13, 39, 38
15, 93839, Note_on_c, 13, 39, 0
15, 93840, Note_on_c, 13, 41, 38
15, 94079, Note_on_c, 13, 41, 0
15, 94080, Note_on_c, 13, 43, 43
15, 94199, Note_on_c, 13, 43, 0
15, 94200, Note_on_c, 13, 44, 40
15, 94319, Note_on_c, 13, 44, 0
15, 94320, Note_on_c, 13, 41, 38
15, 94439, Note_on_c, 13, 41, 0
15, 94440, Note_on_c, 13, 43, 35
15, 94559, Note_on_c, 13, 43, 0
15, 94560, Note_on_c, 13, 36, 33
15, 94679, Note_on_c, 13, 36, 0
15, 95040, Note_on_c, 13, 48, 37
15, 95279, Note_on_c, 13, 48, 0
15, 95280, Note_on_c, 13, 47, 34
15, 95519, Note_on_c, 13, 47, 0
15, 95520, Note_on_c, 13, 45, 33
15, 95759, Note_on_c, 13, 45, 0
15, 95760, Note_on_c, 13, 43, 32
15, 95999, Note_on_c, 13, 43, 0
15, 96000, Note_on_c, 13, 41, 37
15, 96119, Note_on_c, 13, 41, 0
15, 96360, Note_on_c, 13, 41, 32
15, 96449, Note_on_c, 13, 41, 0
15, 96480, Note_on_c, 13, 43, 32
15, 96539, Note_on_c, 13, 43, 0
15, 96600, Note_on_c, 13, 43, 32
15, 96659, Note_on_c, 13, 43, 0
15, 96720, Note_on_c, 13, 31, 32
15, 96809, Note_on_c, 13, 31, 0
15, 96960, Note_on_c, 13, 43, 32
15, 97079, Note_on_c, 13, 43, 0
15, 97440, Note_on_c, 13, 38, 27
15, 97919, Note_on_c, 13, 38, 0
15, 98880, Note_on_c, 13, 48, 38
15, 99119, Note_on_c, 13, 48, 0
15, 99120, Note_on_c, 13, 47, 38
15, 99359, Note_on_c, 13, 47, 0
15, 99360, Note_on_c, 13, 45, 38
15, 99599, Note_on_c, 13, 45, 0
15, 99600, Note_on_c, 13, 43, 38
15, 99839, Note_on_c, 13, 43, 0
15, 99840, Note_on_c, 13, 41, 38
15, 99959, Note_on_c, 13, 41, 0
15, 100200, Note_on_c, 13, 41, 38
15, 100319, Note_on_c, 13, 41, 0
15, 100320, Note_on_c, 13, 43, 38
15, 100439, Note_on_c, 13, 43, 0
15, 100440, Note_on_c, 13, 43, 38
15, 100559, Note_on_c, 13, 43, 0
15, 100560, Note_on_c, 13, 31, 38
15, 100679, Note_on_c, 13, 31, 0
15, 100800, Note_on_c, 13, 43, 43
15, 100919, Note_on_c, 13, 43, 0
15, 101160, Note_on_c, 13, 43, 43
15, 101249, Note_on_c, 13, 43, 0
15, 101280, Note_on_c, 13, 38, 43
15, 101399, Note_on_c, 13, 38, 0
15, 101640, Note_on_c, 13, 38, 43
15, 101729, Note_on_c, 13, 38, 0
15, 101760, Note_on_c, 13, 40, 43
15, 101879, Note_on_c, 13, 40, 0
15, 101970, Note_on_c, 13, 36, 43
15, 101999, Note_on_c, 13, 36, 0
15, 102000, Note_on_c, 13, 38, 43
15, 102059, Note_on_c, 13, 38, 0
15, 102120, Note_on_c, 13, 38, 43
15, 102179, Note_on_c, 13, 38, 0
15, 102240, Note_on_c, 13, 43, 43
15, 102299, Note_on_c, 13, 43, 0
15, 102360, Note_on_c, 13, 38, 43
15, 102419, Note_on_c, 13, 38, 0
15, 102480, Note_on_c, 13, 31, 43
15, 102539, Note_on_c, 13, 31, 0
15, 102720, Note_on_c, 13, 45, 43
15, 102959, Note_on_c, 13, 45, 0
15, 103080, Note_on_c, 13, 45, 43
15, 103199, Note_on_c, 13, 45, 0
15, 103200, Note_on_c, 13, 38, 43
15, 103319, Note_on_c, 13, 38, 0
15, 104152, Control_c, 13, 74, 64
15, 104154, Control_c, 13, 73, 64
15, 104156, Control_c, 13, 0, 0
15, 104158, Control_c, 13, 32, 0
15, 104160, Program_c, 13, 48
15, 104640, Note_on_c, 13, 48, 26
15, 104759, Note_on_c, 13, 48, 0
15, 105119, Control_c, 13, 11, 66
15, 105120, Note_on_c, 13, 43, 46
15, 105121, Control_c, 13, 11, 67
15, 105136, Control_c, 13, 11, 68
15, 105151, Control_c, 13, 11, 69
15, 105166, Control_c, 13, 11, 70
15, 105181, Control_c, 13, 11, 71
15, 105196, Control_c, 13, 11, 72
15, 105211, Control_c, 13, 11, 73
15, 105226, Control_c, 13, 11, 74
15, 105241, Control_c, 13, 11, 75
15, 105256, Control_c, 13, 11, 76
15, 105271, Control_c, 13, 11, 77
15, 105286, Control_c, 13, 11, 78
15, 105301, Control_c, 13, 11, 80
15, 105316, Control_c, 13, 11, 82
15, 105331, Control_c, 13, 11, 84
15, 105346, Control_c, 13, 11, 86
15, 105361, Control_c, 13, 11, 88
15, 105376, Control_c, 13, 11, 90
15, 105391, Control_c, 13, 11, 92
15, 105406, Control_c, 13, 11, 94
15, 105421, Control_c, 13, 11, 96
15, 105436, Control_c, 13, 11, 98
15, 105451, Control_c, 13, 11, 100
15, 105466, Control_c, 13, 11, 103
15, 105481, Control_c, 13, 11, 106
15, 105496, Control_c, 13, 11, 109
15, 105511, Control_c, 13, 11, 112
15, 105526, Control_c, 13, 11, 115
15, 105541, Control_c, 13, 11, 118
15, 105556, Control_c, 13, 11, 121
15, 105571, Control_c, 13, 11, 124
15, 105586, Control_c, 13, 11, 127
15, 105599, Note_on_c, 13, 43, 0
15, 105599, Control_c, 13, 11, 127
15, 105600, Note_on_c, 13, 45, 42
15, 105659, Note_on_c, 13, 45, 0
15, 105810, Note_on_c, 13, 41, 24
15, 105839, Note_on_c, 13, 41, 0
15, 105840, Note_on_c, 13, 43, 24
15, 105899, Note_on_c, 13, 43, 0
15, 105960, Note_on_c, 13, 43, 24
15, 106019, Note_on_c, 13, 43, 0
15, 106080, Note_on_c, 13, 48, 24
15, 106139, Note_on_c, 13, 48, 0
15, 106200, Note_on_c, 13, 43, 21
15, 106259, Note_on_c, 13, 43, 0
15, 106320, Note_on_c, 13, 36, 18
15, 106379, Note_on_c, 13, 36, 0
15, 106545, Control_c, 13, 7, 87
15, 106560, Note_on_c, 13, 45, 23
15, 106799, Note_on_c, 13, 45, 0
15, 106920, Note_on_c, 13, 45, 23
15, 107039, Note_on_c, 13, 45, 0
15, 107040, Note_on_c, 13, 38, 23
15, 107279, Note_on_c, 13, 38, 0
15, 107400, Note_on_c, 13, 43, 23
15, 107519, Note_on_c, 13, 43, 0
15, 107520, Note_on_c, 13, 48, 23
15, 107579, Note_on_c, 13, 48, 0
15, 107580, Note_on_c, 13, 44, 23
15, 107639, Note_on_c, 13, 44, 0
15, 107640, Note_on_c, 13, 45, 23
15, 107699, Note_on_c, 13, 45, 0
15, 107700, Note_on_c, 13, 40, 23
15, 107759, Note_on_c, 13, 40, 0
15, 107760, Note_on_c, 13, 41, 23
15, 107879, Note_on_c, 13, 41, 0
15, 108120, Note_on_c, 13, 43, 23
15, 108239, Note_on_c, 13, 43, 0
15, 108240, Note_on_c, 13, 31, 23
15, 108359, Note_on_c, 13, 31, 0
15, 108480, Note_on_c, 13, 36, 23
15, 108719, Note_on_c, 13, 36, 0
15, 108840, Note_on_c, 13, 36, 23
15, 108959, Note_on_c, 13, 36, 0
15, 108960, Note_on_c, 13, 43, 23
15, 109199, Note_on_c, 13, 43, 0
15, 109320, Note_on_c, 13, 43, 23
15, 109439, Note_on_c, 13, 43, 0
15, 109440, Note_on_c, 13, 45, 23
15, 109559, Note_on_c, 13, 45, 0
15, 109650, Note_on_c, 13, 41, 23
15, 109679, Note_on_c, 13, 41, 0
15, 109680, Note_on_c, 13, 43, 23
15, 109739, Note_on_c, 13, 43, 0
15, 109800, Note_on_c, 13, 43, 23
15, 109859, Note_on_c, 13, 43, 0
15, 109920, Note_on_c, 13, 48, 23
15, 109979, Note_on_c, 13, 48, 0
15, 110040, Note_on_c, 13, 43, 21
15, 110099, Note_on_c, 13, 43, 0
15, 110160, Note_on_c, 13, 36, 17
15, 110219, Note_on_c, 13, 36, 0
15, 110400, Note_on_c, 13, 48, 33
15, 110519, Note_on_c, 13, 48, 0
15, 110880, Note_on_c, 13, 43, 33
15, 111359, Note_on_c, 13, 43, 0
15, 111360, Note_on_c, 13, 45, 43
15, 111419, Note_on_c, 13, 45, 0
15, 111570, Note_on_c, 13, 41, 33
15, 111600, Note_on_c, 13, 43, 33
15, 111629, Note_on_c, 13, 41, 0
15, 111659, Note_on_c, 13, 43, 0
15, 111720, Note_on_c, 13, 43, 33
15, 111779, Note_on_c, 13, 43, 0
15, 111840, Note_on_c, 13, 48, 28
15, 111840, Control_c, 13, 7, 127
15, 111899, Note_on_c, 13, 48, 0
15, 111960, Note_on_c, 13, 43, 27
15, 112019, Note_on_c, 13, 43, 0
15, 112080, Note_on_c, 13, 36, 25
15, 112139, Note_on_c, 13, 36, 0
15, 112320, Note_on_c, 13, 48, 42
15, 112379, Note_on_c, 13, 48, 0
15, 112440, Note_on_c, 13, 48, 40
15, 112559, Note_on_c, 13, 48, 0
15, 112560, Note_on_c, 13, 43, 37
15, 112629, Note_on_c, 13, 43, 0
15, 112680, Note_on_c, 13, 43, 35
15, 112799, Note_on_c, 13, 43, 0
15, 112800, Note_on_c, 13, 39, 32
15, 112919, Note_on_c, 13, 39, 0
15, 113160, Note_on_c, 13, 36, 42
15, 113279, Note_on_c, 13, 36, 0
15, 113280, Note_on_c, 13, 44, 40
15, 113349, Note_on_c, 13, 44, 0
15, 113400, Note_on_c, 13, 44, 38
15, 113519, Note_on_c, 13, 44, 0
15, 113520, Note_on_c, 13, 32, 36
15, 113589, Note_on_c, 13, 32, 0
15, 113640, Note_on_c, 13, 32, 34
15, 113759, Note_on_c, 13, 32, 0
15, 113760, Note_on_c, 13, 31, 32
15, 113879, Note_on_c, 13, 31, 0
15, 114240, Note_on_c, 13, 39, 35
15, 114719, Note_on_c, 13, 39, 0
15, 114720, Note_on_c, 13, 39, 41
15, 115139, Note_on_c, 13, 39, 0
15, 115200, Note_on_c, 13, 38, 48
15, 115259, Note_on_c, 13, 38, 0
15, 115440, Note_on_c, 13, 38, 43
15, 115499, Note_on_c, 13, 38, 0
15, 115680, Note_on_c, 13, 31, 43
15, 115769, Note_on_c, 13, 31, 0
15, 116040, Note_on_c, 13, 31, 44
15, 116159, Note_on_c, 13, 31, 0
15, 116160, Note_on_c, 13, 35, 43
15, 116229, Note_on_c, 13, 35, 0
15, 116280, Note_on_c, 13, 35, 41
15, 116399, Note_on_c, 13, 35, 0
15, 116400, Note_on_c, 13, 36, 40
15, 116469, Note_on_c, 13, 36, 0
15, 116520, Note_on_c, 13, 36, 38
15, 116639, Note_on_c, 13, 36, 0
15, 116640, Note_on_c, 13, 31, 36
15, 116729, Note_on_c, 13, 31, 0
15, 117000, Note_on_c, 13, 41, 42
15, 117119, Note_on_c, 13, 41, 0
15, 117120, Note_on_c, 13, 39, 40
15, 117189, Note_on_c, 13, 39, 0
15, 117240, Note_on_c, 13, 39, 38
15, 117359, Note_on_c, 13, 39, 0
15, 117360, Note_on_c, 13, 38, 36
15, 117429, Note_on_c, 13, 38, 0
15, 117480, Note_on_c, 13, 38, 34
15, 117599, Note_on_c, 13, 38, 0
15, 117600, Note_on_c, 13, 36, 32
15, 117689, Note_on_c, 13, 36, 0
15, 118080, Note_on_c, 13, 32, 43
15, 118499, Note_on_c, 13, 32, 0
15, 118560, Note_on_c, 13, 32, 53
15, 118979, Note_on_c, 13, 32, 0
15, 119040, Note_on_c, 13, 31, 53
15, 119159, Note_on_c, 13, 31, 0
15, 119280, Note_on_c, 13, 31, 43
15, 119339, Note_on_c, 13, 31, 0
15, 119520, Note_on_c, 13, 36, 23
15, 119609, Note_on_c, 13, 36, 0
15, 119880, Note_on_c, 13, 36, 29
15, 119999, Note_on_c, 13, 36, 0
15, 120000, Note_on_c, 13, 34, 32
15, 120119, Note_on_c, 13, 34, 0
15, 120360, Note_on_c, 13, 34, 38
15, 120479, Note_on_c, 13, 34, 0
15, 120480, Note_on_c, 13, 33, 41
15, 120599, Note_on_c, 13, 33, 0
15, 120840, Note_on_c, 13, 33, 47
15, 120959, Note_on_c, 13, 33, 0
15, 120960, Note_on_c, 13, 32, 50
15, 121439, Note_on_c, 13, 32, 0
15, 121440, Note_on_c, 13, 31, 59
15, 121559, Note_on_c, 13, 31, 0
15, 138000, Control_c, 13, 0, 1
15, 138015, Control_c, 13, 32, 0
15, 138030, Program_c, 13, 48
15, 138045, Control_c, 13, 7, 107
15, 138420, Note_on_c, 13, 36, 31
15, 138459, Note_on_c, 13, 36, 0
15, 138480, Note_on_c, 13, 38, 35
15, 138519, Note_on_c, 13, 38, 0
15, 138540, Note_on_c, 13, 39, 37
15, 138579, Note_on_c, 13, 39, 0
15, 138600, Note_on_c, 13, 38, 41
15, 138639, Note_on_c, 13, 38, 0
15, 138660, Note_on_c, 13, 39, 42
15, 138699, Note_on_c, 13, 39, 0
15, 138720, Note_on_c, 13, 41, 43
15, 138839, Note_on_c, 13, 41, 0
15, 138840, Note_on_c, 13, 39, 46
15, 138869, Note_on_c, 13, 39, 0
15, 138900, Note_on_c, 13, 41, 47
15, 139019, Note_on_c, 13, 41, 0
15, 139020, Note_on_c, 13, 39, 50
15, 139049, Note_on_c, 13, 39, 0
15, 139080, Note_on_c, 13, 38, 52
15, 139259, Note_on_c, 13, 38, 0
15, 139260, Note_on_c, 13, 39, 33
15, 139319, Note_on_c, 13, 39, 0
15, 139440, Note_on_c, 13, 41, 34
15, 139559, Note_on_c, 13, 41, 0
15, 139560, Note_on_c, 13, 39, 36
15, 139589, Note_on_c, 13, 39, 0
15, 139620, Note_on_c, 13, 41, 38
15, 139739, Note_on_c, 13, 41, 0
15, 139740, Note_on_c, 13, 39, 40
15, 139769, Note_on_c, 13, 39, 0
15, 139800, Note_on_c, 13, 38, 42
15, 139979, Note_on_c, 13, 38, 0
15, 139980, Note_on_c, 13, 39, 33
15, 140039, Note_on_c, 13, 39, 0
15, 140100, Note_on_c, 13, 40, 30
15, 140159, Note_on_c, 13, 40, 0
15, 140160, Note_on_c, 13, 41, 31
15, 140279, Note_on_c, 13, 41, 0
15, 140280, Note_on_c, 13, 42, 33
15, 140339, Note_on_c, 13, 42, 0
15, 140340, Note_on_c, 13, 43, 35
15, 140459, Note_on_c, 13, 43, 0
15, 140460, Note_on_c, 13, 43, 38
15, 140519, Note_on_c, 13, 43, 0
15, 140520, Note_on_c, 13, 44, 39
15, 140559, Note_on_c, 13, 44, 0
15, 140580, Note_on_c, 13, 40, 30
15, 140639, Note_on_c, 13, 40, 0
15, 140640, Note_on_c, 13, 41, 31
15, 140699, Note_on_c, 13, 41, 0
15, 140700, Note_on_c, 13, 42, 33
15, 140759, Note_on_c, 13, 42, 0
15, 140760, Note_on_c, 13, 43, 35
15, 140819, Note_on_c, 13, 43, 0
15, 140820, Note_on_c, 13, 43, 37
15, 140879, Note_on_c, 13, 43, 0
15, 140880, Note_on_c, 13, 44, 39
15, 140909, Note_on_c, 13, 44, 0
15, 140940, Note_on_c, 13, 40, 30
15, 140999, Note_on_c, 13, 40, 0
15, 141000, Note_on_c, 13, 41, 30
15, 141059, Note_on_c, 13, 41, 0
15, 141060, Note_on_c, 13, 42, 33
15, 141119, Note_on_c, 13, 42, 0
15, 141120, Note_on_c, 13, 43, 35
15, 141179, Note_on_c, 13, 43, 0
15, 141180, Note_on_c, 13, 43, 37
15, 141239, Note_on_c, 13, 43, 0
15, 141240, Note_on_c, 13, 44, 39
15, 141269, Note_on_c, 13, 44, 0
15, 141360, Note_on_c, 13, 43, 45
15, 141419, Note_on_c, 13, 43, 0
15, 141420, Note_on_c, 13, 44, 47
15, 141449, Note_on_c, 13, 44, 0
15, 141540, Note_on_c, 13, 43, 52
15, 141599, Note_on_c, 13, 43, 0
15, 141600, Note_on_c, 13, 44, 57
15, 141629, Note_on_c, 13, 44, 0
15, 141960, Note_on_c, 13, 38, 53
15, 142319, Note_on_c, 13, 38, 0
15, 142320, Note_on_c, 13, 39, 43
15, 142359, Note_on_c, 13, 39, 0
15, 142500, Note_on_c, 13, 41, 43
15, 142539, Note_on_c, 13, 41, 0
15, 142860, Note_on_c, 13, 43, 43
15, 142899, Note_on_c, 13, 43, 0
15, 143040, Note_on_c, 13, 44, 23
15, 144090, Control_c, 13, 7, 127
15, 144119, Note_on_c, 13, 44, 0
15, 144120, Note_on_c, 13, 43, 23
15, 144479, Note_on_c, 13, 43, 0
15, 144480, Note_on_c, 13, 36, 31
15, 144519, Note_on_c, 13, 36, 0
15, 144540, Note_on_c, 13, 36, 31
15, 144579, Note_on_c, 13, 36, 0
15, 144600, Note_on_c, 13, 38, 35
15, 144639, Note_on_c, 13, 38, 0
15, 144660, Note_on_c, 13, 39, 37
15, 144699, Note_on_c, 13, 39, 0
15, 144720, Note_on_c, 13, 38, 41
15, 144759, Note_on_c, 13, 38, 0
15, 144780, Note_on_c, 13, 39, 42
15, 144819, Note_on_c, 13, 39, 0
15, 144840, Note_on_c, 13, 41, 43
15, 144959, Note_on_c, 13, 41, 0
15, 144960, Note_on_c, 13, 39, 46
15, 144989, Note_on_c, 13, 39, 0
15, 145020, Note_on_c, 13, 41, 47
15, 145139, Note_on_c, 13, 41, 0
15, 145140, Note_on_c, 13, 39, 50
15, 145169, Note_on_c, 13, 39, 0
15, 145200, Note_on_c, 13, 38, 52
15, 145379, Note_on_c, 13, 38, 0
15, 145380, Note_on_c, 13, 39, 33
15, 145439, Note_on_c, 13, 39, 0
15, 145560, Note_on_c, 13, 41, 34
15, 145679, Note_on_c, 13, 41, 0
15, 145680, Note_on_c, 13, 39, 36
15, 145709, Note_on_c, 13, 39, 0
15, 145740, Note_on_c, 13, 41, 38
15, 145859, Note_on_c, 13, 41, 0
15, 145860, Note_on_c, 13, 39, 40
15, 145889, Note_on_c, 13, 39, 0
15, 145920, Note_on_c, 13, 38, 42
15, 146099, Note_on_c, 13, 38, 0
15, 146100, Note_on_c, 13, 39, 33
15, 146159, Note_on_c, 13, 39, 0
15, 146220, Note_on_c, 13, 40, 30
15, 146279, Note_on_c, 13, 40, 0
15, 146280, Note_on_c, 13, 41, 31
15, 146399, Note_on_c, 13, 41, 0
15, 146400, Note_on_c, 13, 42, 33
15, 146459, Note_on_c, 13, 42, 0
15, 146460, Note_on_c, 13, 43, 35
15, 146579, Note_on_c, 13, 43, 0
15, 146580, Note_on_c, 13, 43, 38
15, 146639, Note_on_c, 13, 43, 0
15, 146640, Note_on_c, 13, 44, 39
15, 146679, Note_on_c, 13, 44, 0
15, 146700, Note_on_c, 13, 40, 30
15, 146759, Note_on_c, 13, 40, 0
15, 146760, Note_on_c, 13, 41, 31
15, 146819, Note_on_c, 13, 41, 0
15, 146820, Note_on_c, 13, 42, 33
15, 146879, Note_on_c, 13, 42, 0
15, 146880, Note_on_c, 13, 43, 35
15, 146939, Note_on_c, 13, 43, 0
15, 146940, Note_on_c, 13, 43, 37
15, 146999, Note_on_c, 13, 43, 0
15, 147000, Note_on_c, 13, 44, 39
15, 147029, Note_on_c, 13, 44, 0
15, 147060, Note_on_c, 13, 40, 30
15, 147119, Note_on_c, 13, 40, 0
15, 147120, Note_on_c, 13, 41, 30
15, 147179, Note_on_c, 13, 41, 0
15, 147180, Note_on_c, 13, 42, 33
15, 147239, Note_on_c, 13, 42, 0
15, 147240, Note_on_c, 13, 43, 35
15, 147299, Note_on_c, 13, 43, 0
15, 147300, Note_on_c, 13, 43, 37
15, 147359, Note_on_c, 13, 43, 0
15, 147360, Note_on_c, 13, 44, 39
15, 147389, Note_on_c, 13, 44, 0
15, 147480, Note_on_c, 13, 43, 45
15, 147539, Note_on_c, 13, 43, 0
15, 147540, Note_on_c, 13, 44, 47
15, 147569, Note_on_c, 13, 44, 0
15, 147660, Note_on_c, 13, 43, 52
15, 147719, Note_on_c, 13, 43, 0
15, 147720, Note_on_c, 13, 44, 57
15, 147749, Note_on_c, 13, 44, 0
15, 148080, Note_on_c, 13, 38, 53
15, 148439, Note_on_c, 13, 38, 0
15, 148440, Note_on_c, 13, 39, 43
15, 148479, Note_on_c, 13, 39, 0
15, 148620, Note_on_c, 13, 41, 43
15, 148659, Note_on_c, 13, 41, 0
15, 148980, Note_on_c, 13, 43, 43
15, 149019, Note_on_c, 13, 43, 0
15, 149160, Note_on_c, 13, 44, 23
15, 150239, Note_on_c, 13, 44, 0
15, 150240, Note_on_c, 13, 43, 23
15, 150599, Note_on_c, 13, 43, 0
15, 150600, Note_on_c, 13, 44, 24
15, 151679, Note_on_c, 13, 44, 0
15, 151680, Note_on_c, 13, 43, 22
15, 152039, Note_on_c, 13, 43, 0
15, 152040, Note_on_c, 13, 36, 32
15, 152129, Note_on_c, 13, 36, 0
15, 152400, Note_on_c, 13, 41, 32
15, 152459, Note_on_c, 13, 41, 0
15, 152580, Note_on_c, 13, 39, 32
15, 152639, Note_on_c, 13, 39, 0
15, 152760, Note_on_c, 13, 36, 32
15, 152849, Note_on_c, 13, 36, 0
15, 153120, Note_on_c, 13, 41, 32
15, 153179, Note_on_c, 13, 41, 0
15, 153300, Note_on_c, 13, 43, 32
15, 153359, Note_on_c, 13, 43, 0
15, 153480, Note_on_c, 13, 44, 32
15, 153569, Note_on_c, 13, 44, 0
15, 153840, Note_on_c, 13, 41, 35
15, 153899, Note_on_c, 13, 41, 0
15, 154020, Note_on_c, 13, 43, 37
15, 154079, Note_on_c, 13, 43, 0
15, 154200, Note_on_c, 13, 36, 62
15, 154289, Note_on_c, 13, 36, 0
15, 154560, Note_on_c, 13, 51, 63
15, 154560, Note_on_c, 13, 36, 55
15, 154589, Note_on_c, 13, 36, 0
15, 154590, Note_on_c, 13, 31, 56
15, 154619, Note_on_c, 13, 31, 0
15, 154619, Note_on_c, 13, 51, 0
15, 154620, Note_on_c, 13, 33, 57
15, 154649, Note_on_c, 13, 33, 0
15, 154650, Note_on_c, 13, 35, 58
15, 154679, Note_on_c, 13, 35, 0
15, 154680, Note_on_c, 13, 36, 59
15, 154709, Note_on_c, 13, 36, 0
15, 154710, Note_on_c, 13, 38, 60
15, 154739, Note_on_c, 13, 38, 0
15, 154740, Note_on_c, 13, 39, 61
15, 154769, Note_on_c, 13, 39, 0
15, 154770, Note_on_c, 13, 35, 62
15, 154799, Note_on_c, 13, 35, 0
15, 154800, Note_on_c, 13, 36, 63
15, 154829, Note_on_c, 13, 36, 0
15, 154830, Note_on_c, 13, 38, 64
15, 154859, Note_on_c, 13, 38, 0
15, 154860, Note_on_c, 13, 39, 64
15, 154889, Note_on_c, 13, 39, 0
15, 154890, Note_on_c, 13, 41, 66
15, 154919, Note_on_c, 13, 41, 0
15, 154920, Note_on_c, 13, 43, 67
15, 154979, Note_on_c, 13, 43, 0
15, 155100, Note_on_c, 13, 43, 72
15, 155159, Note_on_c, 13, 43, 0
15, 155280, Note_on_c, 13, 36, 79
15, 155339, Note_on_c, 13, 36, 0
15, 155339, End_track
0, 0, End_of_file