0, 0, Header, 1, 20, 120
1, 0, Start_track
1, 0, Sequencer_specific, 03, 00, 00, 41
1, 0, Time_signature, 4, 2, 24, 8
1, 0, Key_signature, -1, "major"
1, 0, Tempo, 480000
1, 2, Tempo, 483870
1, 1920, Tempo, 413793
1, 7680, Tempo, 344827
1, 7680, End_track
2, 0, Start_track
2, 0, MIDI_port, 0
2, 0, Title_t, "Strings"
2, 0, Program_c, 0, 48
2, 0, Control_c, 0, 7, 120
2, 0, Control_c, 0, 10, 90
2, 480, Control_c, 0, 121, 0
2, 480, Control_c, 0, 0, 0
2, 480, Program_c, 0, 48
2, 480, Pitch_bend_c, 0, 8192
2, 480, Control_c, 0, 10, 120
2, 480, Control_c, 0, 7, 120
2, 480, Control_c, 0, 91, 100
2, 480, Control_c, 0, 93, 30
2, 480, Note_on_c, 0, 55, 126
2, 480, Note_on_c, 0, 63, 126
2, 480, Control_c, 0, 11, 98
2, 510, Control_c, 0, 11, 99
2, 540, Control_c, 0, 11, 100
2, 550, Control_c, 0, 11, 101
2, 570, Control_c, 0, 11, 103
2, 600, Control_c, 0, 11, 105
2, 620, Control_c, 0, 11, 106
2, 630, Control_c, 0, 11, 107
2, 640, Control_c, 0, 11, 109
2, 660, Control_c, 0, 11, 110
2, 670, Control_c, 0, 11, 111
2, 690, Control_c, 0, 11, 113
2, 710, Control_c, 0, 11, 114
2, 719, Note_on_c, 0, 63, 0
2, 719, Note_on_c, 0, 55, 0
2, 720, Control_c, 0, 11, 115
2, 740, Control_c, 0, 11, 117
2, 760, Control_c, 0, 11, 119
2, 790, Control_c, 0, 11, 121
2, 810, Control_c, 0, 11, 122
2, 820, Control_c, 0, 11, 123
2, 840, Control_c, 0, 11, 124
2, 850, Control_c, 0, 11, 125
2, 870, Control_c, 0, 11, 126
2, 880, Control_c, 0, 11, 127
2, 930, Note_on_c, 0, 75, 122
2, 930, Note_on_c, 0, 79, 122
2, 950, Note_on_c, 0, 79, 0
2, 952, Note_on_c, 0, 75, 0
2, 960, Note_on_c, 0, 75, 127
2, 960, Note_on_c, 0, 79, 127
2, 970, Control_c, 0, 11, 97
2, 980, Control_c, 0, 11, 98
2, 990, Control_c, 0, 11, 99
2, 1010, Control_c, 0, 11, 100
2, 1030, Control_c, 0, 11, 102
2, 1060, Control_c, 0, 11, 104
2, 1070, Control_c, 0, 11, 105
2, 1080, Control_c, 0, 11, 106
2, 1100, Control_c, 0, 11, 107
2, 1110, Control_c, 0, 11, 108
2, 1120, Control_c, 0, 11, 109
2, 1130, Control_c, 0, 11, 110
2, 1140, Control_c, 0, 11, 111
2, 1150, Control_c, 0, 11, 112
2, 1170, Control_c, 0, 11, 114
2, 1180, Control_c, 0, 11, 115
2, 1190, Control_c, 0, 11, 116
2, 1212, Note_on_c, 0, 79, 0
2, 1218, Note_on_c, 0, 75, 0
2, 1220, Control_c, 0, 11, 118
2, 1240, Control_c, 0, 11, 120
2, 1260, Control_c, 0, 11, 121
2, 1270, Control_c, 0, 11, 122
2, 1280, Control_c, 0, 11, 123
2, 1300, Control_c, 0, 11, 124
2, 1320, Control_c, 0, 11, 125
2, 1340, Control_c, 0, 11, 126
2, 1350, Control_c, 0, 11, 127
2, 1410, Note_on_c, 0, 82, 121
2, 1410, Note_on_c, 0, 70, 121
2, 1425, Note_on_c, 0, 70, 0
2, 1425, Note_on_c, 0, 82, 0
2, 1440, Note_on_c, 0, 70, 126
2, 1440, Note_on_c, 0, 82, 126
2, 1450, Control_c, 0, 11, 97
2, 1460, Control_c, 0, 11, 99
2, 1490, Control_c, 0, 11, 100
2, 1500, Control_c, 0, 11, 101
2, 1510, Control_c, 0, 11, 103
2, 1520, Control_c, 0, 11, 104
2, 1530, Control_c, 0, 11, 107
2, 1540, Control_c, 0, 11, 108
2, 1550, Control_c, 0, 11, 109
2, 1560, Control_c, 0, 11, 110
2, 1570, Control_c, 0, 11, 111
2, 1580, Control_c, 0, 11, 113
2, 1590, Control_c, 0, 11, 115
2, 1610, Control_c, 0, 11, 117
2, 1620, Control_c, 0, 11, 119
2, 1640, Control_c, 0, 11, 120
2, 1650, Control_c, 0, 11, 122
2, 1660, Control_c, 0, 11, 124
2, 1670, Control_c, 0, 11, 125
2, 1676, Note_on_c, 0, 82, 0
2, 1680, Control_c, 0, 11, 126
2, 1683, Note_on_c, 0, 70, 0
2, 1690, Control_c, 0, 11, 127
2, 1860, Note_on_c, 0, 70, 67
2, 1880, Note_on_c, 0, 68, 65
2, 1888, Note_on_c, 0, 70, 0
2, 1900, Note_on_c, 0, 67, 61
2, 1912, Note_on_c, 0, 68, 0
2, 1920, Note_on_c, 0, 65, 63
2, 1921, Note_on_c, 0, 67, 0
2, 2009, Note_on_c, 0, 65, 0
2, 2040, Note_on_c, 0, 65, 67
2, 2160, Control_c, 0, 11, 97
2, 2170, Control_c, 0, 11, 98
2, 2190, Control_c, 0, 11, 99
2, 2200, Control_c, 0, 11, 100
2, 2210, Control_c, 0, 11, 101
2, 2230, Control_c, 0, 11, 103
2, 2240, Control_c, 0, 11, 105
2, 2250, Control_c, 0, 11, 108
2, 2260, Control_c, 0, 11, 109
2, 2270, Control_c, 0, 11, 111
2, 2279, Note_on_c, 0, 65, 0
2, 2280, Note_on_c, 0, 65, 69
2, 2280, Control_c, 0, 11, 113
2, 2290, Control_c, 0, 11, 116
2, 2300, Control_c, 0, 11, 117
2, 2310, Control_c, 0, 11, 118
2, 2320, Control_c, 0, 11, 120
2, 2330, Control_c, 0, 11, 121
2, 2340, Control_c, 0, 11, 122
2, 2350, Control_c, 0, 11, 123
2, 2360, Control_c, 0, 11, 124
2, 2370, Control_c, 0, 11, 125
2, 2400, Control_c, 0, 11, 126
2, 2410, Control_c, 0, 11, 127
2, 2480, Control_c, 0, 11, 125
2, 2519, Note_on_c, 0, 65, 0
2, 2520, Note_on_c, 0, 65, 77
2, 2550, Note_on_c, 0, 68, 76
2, 2558, Note_on_c, 0, 65, 0
2, 2580, Note_on_c, 0, 72, 79
2, 2586, Note_on_c, 0, 68, 0
2, 2610, Note_on_c, 0, 68, 83
2, 2631, Note_on_c, 0, 72, 0
2, 2640, Note_on_c, 0, 65, 66
2, 2659, Note_on_c, 0, 68, 0
2, 2759, Note_on_c, 0, 65, 0
2, 2760, Note_on_c, 0, 65, 69
2, 2880, Note_on_c, 0, 67, 68
2, 2904, Note_on_c, 0, 65, 0
2, 2964, Note_on_c, 0, 67, 0
2, 3000, Note_on_c, 0, 67, 67
2, 3140, Control_c, 0, 11, 100
2, 3160, Control_c, 0, 11, 102
2, 3170, Control_c, 0, 11, 103
2, 3180, Control_c, 0, 11, 104
2, 3190, Control_c, 0, 11, 106
2, 3200, Control_c, 0, 11, 107
2, 3210, Control_c, 0, 11, 108
2, 3220, Control_c, 0, 11, 110
2, 3239, Note_on_c, 0, 67, 0
2, 3240, Note_on_c, 0, 67, 67
2, 3240, Control_c, 0, 11, 112
2, 3250, Control_c, 0, 11, 114
2, 3260, Control_c, 0, 11, 115
2, 3270, Control_c, 0, 11, 116
2, 3280, Control_c, 0, 11, 117
2, 3290, Control_c, 0, 11, 118
2, 3300, Control_c, 0, 11, 119
2, 3310, Control_c, 0, 11, 120
2, 3320, Control_c, 0, 11, 121
2, 3330, Control_c, 0, 11, 122
2, 3340, Control_c, 0, 11, 123
2, 3350, Control_c, 0, 11, 124
2, 3370, Control_c, 0, 11, 125
2, 3400, Control_c, 0, 11, 126
2, 3420, Control_c, 0, 11, 127
2, 3450, Control_c, 0, 11, 126
2, 3479, Note_on_c, 0, 67, 0
2, 3480, Note_on_c, 0, 67, 85
2, 3510, Note_on_c, 0, 70, 79
2, 3515, Note_on_c, 0, 67, 0
2, 3540, Note_on_c, 0, 73, 85
2, 3540, Note_on_c, 0, 70, 0
2, 3570, Note_on_c, 0, 70, 82
2, 3573, Note_on_c, 0, 73, 0
2, 3600, Note_on_c, 0, 67, 69
2, 3601, Note_on_c, 0, 70, 0
2, 3719, Note_on_c, 0, 67, 0
2, 3720, Note_on_c, 0, 67, 69
2, 3959, Note_on_c, 0, 67, 0
2, 4050, Note_on_c, 0, 68, 70
2, 4079, Note_on_c, 0, 68, 0
2, 4080, Note_on_c, 0, 67, 67
2, 4227, Note_on_c, 0, 67, 0
2, 4290, Note_on_c, 0, 67, 71
2, 4319, Note_on_c, 0, 67, 0
2, 4320, Note_on_c, 0, 65, 68
2, 4340, Control_c, 0, 11, 98
2, 4350, Control_c, 0, 11, 99
2, 4360, Control_c, 0, 11, 100
2, 4370, Control_c, 0, 11, 101
2, 4380, Control_c, 0, 11, 102
2, 4390, Control_c, 0, 11, 103
2, 4400, Control_c, 0, 11, 104
2, 4410, Control_c, 0, 11, 106
2, 4420, Control_c, 0, 11, 107
2, 4430, Control_c, 0, 11, 110
2, 4440, Control_c, 0, 11, 111
2, 4450, Control_c, 0, 11, 113
2, 4460, Control_c, 0, 11, 114
2, 4470, Control_c, 0, 11, 116
2, 4480, Control_c, 0, 11, 117
2, 4490, Control_c, 0, 11, 118
2, 4500, Control_c, 0, 11, 120
2, 4510, Control_c, 0, 11, 121
2, 4520, Control_c, 0, 11, 122
2, 4530, Control_c, 0, 11, 123
2, 4540, Control_c, 0, 11, 124
2, 4550, Control_c, 0, 11, 126
2, 4559, Note_on_c, 0, 65, 0
2, 4684, Note_on_c, 0, 67, 70
2, 4799, Note_on_c, 0, 68, 70
2, 4803, Note_on_c, 0, 67, 0
2, 4917, Note_on_c, 0, 68, 0
2, 5010, Note_on_c, 0, 68, 63
2, 5039, Note_on_c, 0, 68, 0
2, 5041, Note_on_c, 0, 66, 69
2, 5160, Note_on_c, 0, 66, 0
2, 5250, Note_on_c, 0, 66, 62
2, 5279, Note_on_c, 0, 66, 0
2, 5280, Note_on_c, 0, 65, 60
2, 5300, Control_c, 0, 11, 100
2, 5310, Control_c, 0, 11, 101
2, 5320, Control_c, 0, 11, 102
2, 5340, Control_c, 0, 11, 105
2, 5360, Control_c, 0, 11, 106
2, 5370, Control_c, 0, 11, 107
2, 5380, Control_c, 0, 11, 109
2, 5400, Control_c, 0, 11, 111
2, 5410, Control_c, 0, 11, 112
2, 5420, Control_c, 0, 11, 113
2, 5430, Control_c, 0, 11, 114
2, 5440, Control_c, 0, 11, 115
2, 5450, Control_c, 0, 11, 116
2, 5460, Control_c, 0, 11, 118
2, 5470, Control_c, 0, 11, 119
2, 5480, Control_c, 0, 11, 120
2, 5490, Control_c, 0, 11, 122
2, 5500, Control_c, 0, 11, 124
2, 5510, Control_c, 0, 11, 125
2, 5520, Control_c, 0, 11, 126
2, 5529, Note_on_c, 0, 65, 0
2, 5640, Note_on_c, 0, 67, 57
2, 5759, Note_on_c, 0, 67, 0
2, 5760, Note_on_c, 0, 68, 59
2, 5882, Note_on_c, 0, 68, 0
2, 5970, Note_on_c, 0, 68, 53
2, 5999, Note_on_c, 0, 68, 0
2, 6000, Note_on_c, 0, 69, 58
2, 6119, Note_on_c, 0, 69, 0
2, 6210, Note_on_c, 0, 69, 55
2, 6239, Note_on_c, 0, 69, 0
2, 6240, Note_on_c, 0, 70, 60
2, 6250, Control_c, 0, 11, 97
2, 6260, Control_c, 0, 11, 98
2, 6280, Control_c, 0, 11, 100
2, 6300, Control_c, 0, 11, 101
2, 6310, Control_c, 0, 11, 102
2, 6330, Control_c, 0, 11, 104
2, 6350, Control_c, 0, 11, 106
2, 6370, Control_c, 0, 11, 108
2, 6390, Control_c, 0, 11, 109
2, 6400, Control_c, 0, 11, 110
2, 6410, Control_c, 0, 11, 111
2, 6420, Control_c, 0, 11, 113
2, 6430, Control_c, 0, 11, 114
2, 6440, Control_c, 0, 11, 116
2, 6460, Control_c, 0, 11, 120
2, 6470, Control_c, 0, 11, 122
2, 6480, Control_c, 0, 11, 124
2, 6490, Control_c, 0, 11, 126
2, 6506, Note_on_c, 0, 70, 0
2, 6598, Note_on_c, 0, 70, 109
2, 6718, Note_on_c, 0, 70, 0
2, 6720, Note_on_c, 0, 72, 70
2, 6730, Control_c, 0, 11, 98
2, 6750, Control_c, 0, 11, 100
2, 6770, Control_c, 0, 11, 103
2, 6780, Control_c, 0, 11, 105
2, 6790, Control_c, 0, 11, 107
2, 6800, Control_c, 0, 11, 108
2, 6810, Control_c, 0, 11, 110
2, 6830, Control_c, 0, 11, 112
2, 6840, Control_c, 0, 11, 113
2, 6850, Control_c, 0, 11, 114
2, 6860, Control_c, 0, 11, 116
2, 6870, Control_c, 0, 11, 117
2, 6874, Note_on_c, 0, 72, 0
2, 6880, Control_c, 0, 11, 118
2, 6890, Control_c, 0, 11, 120
2, 6910, Control_c, 0, 11, 122
2, 6930, Control_c, 0, 11, 124
2, 6950, Control_c, 0, 11, 126
2, 6960, Control_c, 0, 11, 127
2, 7080, Note_on_c, 0, 75, 57
2, 7199, Note_on_c, 0, 75, 0
2, 7200, Note_on_c, 0, 65, 54
2, 7319, Note_on_c, 0, 65, 0
2, 7440, Note_on_c, 0, 70, 54
2, 7559, Note_on_c, 0, 70, 0
2, 7680, Note_on_c, 0, 63, 52
2, 7762, Note_on_c, 0, 63, 0
2, 9600, Note_on_c, 0, 70, 85
2, 9629, Note_on_c, 0, 70, 0
2, 9660, Note_on_c, 0, 70, 82
2, 9689, Note_on_c, 0, 70, 0
2, 9720, Note_on_c, 0, 70, 74
2, 9749, Note_on_c, 0, 70, 0
2, 9780, Note_on_c, 0, 70, 70
2, 9809, Note_on_c, 0, 70, 0
2, 9840, Note_on_c, 0, 70, 63
2, 9869, Note_on_c, 0, 70, 0
2, 9900, Note_on_c, 0, 70, 57
2, 9929, Note_on_c, 0, 70, 0
2, 9960, Note_on_c, 0, 72, 106
2, 9989, Note_on_c, 0, 72, 0
2, 9990, Note_on_c, 0, 70, 99
2, 10019, Note_on_c, 0, 70, 0
2, 10020, Note_on_c, 0, 69, 96
2, 10049, Note_on_c, 0, 69, 0
2, 10050, Note_on_c, 0, 70, 96
2, 10079, Note_on_c, 0, 70, 0
2, 10080, Note_on_c, 0, 75, 52
2, 10109, Note_on_c, 0, 75, 0
2, 10140, Note_on_c, 0, 75, 52
2, 10169, Note_on_c, 0, 75, 0
2, 10200, Note_on_c, 0, 75, 50
2, 10229, Note_on_c, 0, 75, 0
2, 10260, Note_on_c, 0, 75, 47
2, 10289, Note_on_c, 0, 75, 0
2, 10320, Note_on_c, 0, 75, 48
2, 10349, Note_on_c, 0, 75, 0
2, 10380, Note_on_c, 0, 75, 47
2, 10409, Note_on_c, 0, 75, 0
2, 10440, Note_on_c, 0, 77, 107
2, 10469, Note_on_c, 0, 77, 0
2, 10470, Note_on_c, 0, 75, 96
2, 10499, Note_on_c, 0, 75, 0
2, 10500, Note_on_c, 0, 74, 95
2, 10529, Note_on_c, 0, 74, 0
2, 10530, Note_on_c, 0, 75, 98
2, 10559, Note_on_c, 0, 75, 0
2, 10560, Note_on_c, 0, 74, 65
2, 10589, Note_on_c, 0, 74, 0
2, 10620, Note_on_c, 0, 74, 60
2, 10649, Note_on_c, 0, 74, 0
2, 10680, Note_on_c, 0, 79, 64
2, 10709, Note_on_c, 0, 79, 0
2, 10740, Note_on_c, 0, 79, 62
2, 10769, Note_on_c, 0, 79, 0
2, 10800, Note_on_c, 0, 72, 63
2, 10829, Note_on_c, 0, 72, 0
2, 10860, Note_on_c, 0, 72, 62
2, 10889, Note_on_c, 0, 72, 0
2, 10920, Note_on_c, 0, 77, 112
2, 10949, Note_on_c, 0, 77, 0
2, 10980, Note_on_c, 0, 77, 110
2, 11009, Note_on_c, 0, 77, 0
2, 11040, Note_on_c, 0, 74, 63
2, 11069, Note_on_c, 0, 74, 0
2, 11100, Note_on_c, 0, 74, 58
2, 11129, Note_on_c, 0, 74, 0
2, 11160, Note_on_c, 0, 79, 63
2, 11189, Note_on_c, 0, 79, 0
2, 11220, Note_on_c, 0, 79, 59
2, 11249, Note_on_c, 0, 79, 0
2, 11280, Note_on_c, 0, 72, 63
2, 11309, Note_on_c, 0, 72, 0
2, 11340, Note_on_c, 0, 72, 60
2, 11369, Note_on_c, 0, 72, 0
2, 11400, Note_on_c, 0, 77, 114
2, 11429, Note_on_c, 0, 77, 0
2, 11460, Note_on_c, 0, 77, 110
2, 11489, Note_on_c, 0, 77, 0
2, 11520, Note_on_c, 0, 74, 62
2, 11549, Note_on_c, 0, 74, 0
2, 11640, Note_on_c, 0, 82, 118
2, 11650, Control_c, 0, 11, 98
2, 11660, Control_c, 0, 11, 99
2, 11670, Control_c, 0, 11, 101
2, 11690, Control_c, 0, 11, 103
2, 11700, Control_c, 0, 11, 105
2, 11710, Control_c, 0, 11, 107
2, 11720, Control_c, 0, 11, 109
2, 11730, Control_c, 0, 11, 111
2, 11740, Control_c, 0, 11, 112
2, 11750, Control_c, 0, 11, 113
2, 11760, Control_c, 0, 11, 115
2, 11770, Control_c, 0, 11, 116
2, 11780, Control_c, 0, 11, 119
2, 11790, Control_c, 0, 11, 121
2, 11800, Control_c, 0, 11, 123
2, 11810, Control_c, 0, 11, 125
2, 11830, Control_c, 0, 11, 126
2, 11840, Control_c, 0, 11, 127
2, 11879, Note_on_c, 0, 82, 0
2, 11880, Note_on_c, 0, 81, 61
2, 11999, Note_on_c, 0, 81, 0
2, 12120, Note_on_c, 0, 80, 114
2, 12130, Control_c, 0, 11, 98
2, 12150, Control_c, 0, 11, 100
2, 12170, Control_c, 0, 11, 103
2, 12180, Control_c, 0, 11, 106
2, 12190, Control_c, 0, 11, 107
2, 12200, Control_c, 0, 11, 108
2, 12210, Control_c, 0, 11, 110
2, 12220, Control_c, 0, 11, 112
2, 12230, Control_c, 0, 11, 113
2, 12240, Control_c, 0, 11, 114
2, 12250, Control_c, 0, 11, 116
2, 12260, Control_c, 0, 11, 117
2, 12270, Control_c, 0, 11, 118
2, 12290, Control_c, 0, 11, 121
2, 12300, Control_c, 0, 11, 122
2, 12310, Control_c, 0, 11, 124
2, 12330, Control_c, 0, 11, 126
2, 12340, Control_c, 0, 11, 127
2, 12359, Note_on_c, 0, 80, 0
2, 12360, Note_on_c, 0, 79, 59
2, 12479, Note_on_c, 0, 79, 0
2, 12480, Note_on_c, 0, 77, 62
2, 12659, Note_on_c, 0, 77, 0
2, 12660, Note_on_c, 0, 75, 59
2, 12719, Note_on_c, 0, 75, 0
2, 12720, Note_on_c, 0, 74, 60
2, 12779, Note_on_c, 0, 74, 0
2, 12780, Note_on_c, 0, 72, 59
2, 12839, Note_on_c, 0, 72, 0
2, 12840, Note_on_c, 0, 70, 60
2, 12899, Note_on_c, 0, 70, 0
2, 12900, Note_on_c, 0, 68, 59
2, 12959, Note_on_c, 0, 68, 0
2, 12960, Note_on_c, 0, 67, 55
2, 13080, Note_on_c, 0, 70, 59
2, 13109, Note_on_c, 0, 67, 0
2, 13190, Control_c, 0, 11, 98
2, 13200, Note_on_c, 0, 75, 73
2, 13210, Control_c, 0, 11, 99
2, 13220, Control_c, 0, 11, 100
2, 13229, Note_on_c, 0, 70, 0
2, 13230, Control_c, 0, 11, 102
2, 13240, Control_c, 0, 11, 104
2, 13260, Control_c, 0, 11, 105
2, 13270, Control_c, 0, 11, 106
2, 13280, Control_c, 0, 11, 108
2, 13300, Control_c, 0, 11, 110
2, 13310, Control_c, 0, 11, 111
2, 13320, Control_c, 0, 11, 112
2, 13340, Control_c, 0, 11, 115
2, 13350, Control_c, 0, 11, 116
2, 13360, Control_c, 0, 11, 117
2, 13370, Control_c, 0, 11, 118
2, 13390, Control_c, 0, 11, 120
2, 13420, Control_c, 0, 11, 122
2, 13430, Control_c, 0, 11, 123
2, 13440, Control_c, 0, 11, 124
2, 13470, Control_c, 0, 11, 126
2, 13500, Control_c, 0, 11, 127
2, 13510, Control_c, 0, 11, 126
2, 13530, Control_c, 0, 11, 126
2, 13560, Note_on_c, 0, 74, 63
2, 13589, Note_on_c, 0, 75, 0
2, 13619, Note_on_c, 0, 74, 0
2, 13620, Note_on_c, 0, 72, 59
2, 13679, Note_on_c, 0, 72, 0
2, 13680, Note_on_c, 0, 70, 57
2, 13739, Note_on_c, 0, 70, 0
2, 13740, Note_on_c, 0, 68, 58
2, 13799, Note_on_c, 0, 68, 0
2, 13800, Note_on_c, 0, 67, 61
2, 13859, Note_on_c, 0, 67, 0
2, 13860, Note_on_c, 0, 65, 59
2, 13919, Note_on_c, 0, 65, 0
2, 13920, Note_on_c, 0, 63, 59
2, 13979, Note_on_c, 0, 63, 0
2, 14040, Note_on_c, 0, 75, 108
2, 14050, Control_c, 0, 11, 107
2, 14060, Control_c, 0, 11, 108
2, 14070, Control_c, 0, 11, 109
2, 14080, Control_c, 0, 11, 110
2, 14090, Control_c, 0, 11, 111
2, 14110, Control_c, 0, 11, 114
2, 14120, Control_c, 0, 11, 116
2, 14130, Control_c, 0, 11, 117
2, 14150, Control_c, 0, 11, 119
2, 14160, Control_c, 0, 11, 120
2, 14180, Control_c, 0, 11, 121
2, 14200, Control_c, 0, 11, 123
2, 14210, Control_c, 0, 11, 124
2, 14220, Control_c, 0, 11, 125
2, 14270, Control_c, 0, 11, 127
2, 14279, Note_on_c, 0, 75, 0
2, 14280, Note_on_c, 0, 74, 65
2, 14399, Note_on_c, 0, 74, 0
2, 14520, Note_on_c, 0, 75, 109
2, 14530, Control_c, 0, 11, 107
2, 14570, Control_c, 0, 11, 109
2, 14580, Control_c, 0, 11, 111
2, 14600, Control_c, 0, 11, 113
2, 14610, Control_c, 0, 11, 115
2, 14640, Control_c, 0, 11, 117
2, 14650, Control_c, 0, 11, 118
2, 14660, Control_c, 0, 11, 119
2, 14670, Control_c, 0, 11, 120
2, 14680, Control_c, 0, 11, 121
2, 14700, Control_c, 0, 11, 122
2, 14710, Control_c, 0, 11, 123
2, 14740, Control_c, 0, 11, 124
2, 14750, Control_c, 0, 11, 125
2, 14760, Note_on_c, 0, 74, 67
2, 14765, Note_on_c, 0, 75, 0
2, 14770, Control_c, 0, 11, 127
2, 14879, Note_on_c, 0, 74, 0
2, 14880, Note_on_c, 0, 75, 51
2, 14909, Note_on_c, 0, 75, 0
2, 14940, Note_on_c, 0, 75, 50
2, 14969, Note_on_c, 0, 75, 0
2, 15000, Note_on_c, 0, 72, 50
2, 15029, Note_on_c, 0, 72, 0
2, 15060, Note_on_c, 0, 72, 52
2, 15089, Note_on_c, 0, 72, 0
2, 15120, Note_on_c, 0, 77, 54
2, 15149, Note_on_c, 0, 77, 0
2, 15180, Note_on_c, 0, 77, 51
2, 15209, Note_on_c, 0, 77, 0
2, 15240, Note_on_c, 0, 74, 45
2, 15269, Note_on_c, 0, 74, 0
2, 15300, Note_on_c, 0, 74, 44
2, 15329, Note_on_c, 0, 74, 0
2, 15360, Note_on_c, 0, 79, 50
2, 15389, Note_on_c, 0, 79, 0
2, 15420, Note_on_c, 0, 79, 54
2, 15449, Note_on_c, 0, 79, 0
2, 15480, Note_on_c, 0, 74, 52
2, 15509, Note_on_c, 0, 74, 0
2, 15540, Note_on_c, 0, 74, 47
2, 15569, Note_on_c, 0, 74, 0
2, 15600, Note_on_c, 0, 72, 44
2, 15629, Note_on_c, 0, 72, 0
2, 15660, Note_on_c, 0, 72, 48
2, 15689, Note_on_c, 0, 72, 0
2, 15720, Note_on_c, 0, 72, 50
2, 15749, Note_on_c, 0, 72, 0
2, 15780, Note_on_c, 0, 72, 48
2, 15809, Note_on_c, 0, 72, 0
2, 15840, Note_on_c, 0, 70, 44
2, 15959, Note_on_c, 0, 70, 0
2, 16200, Note_on_c, 0, 74, 64
2, 16319, Note_on_c, 0, 74, 0
2, 16320, Note_on_c, 0, 72, 58
2, 16499, Note_on_c, 0, 72, 0
2, 16500, Note_on_c, 0, 70, 52
2, 16559, Note_on_c, 0, 70, 0
2, 16560, Note_on_c, 0, 69, 54
2, 16799, Note_on_c, 0, 69, 0
2, 16800, Note_on_c, 0, 70, 53
2, 16859, Note_on_c, 0, 70, 0
2, 16920, Note_on_c, 0, 74, 56
2, 16940, Note_on_c, 0, 75, 57
2, 16949, Note_on_c, 0, 74, 0
2, 16960, Note_on_c, 0, 74, 60
2, 16969, Note_on_c, 0, 75, 0
2, 16980, Note_on_c, 0, 72, 61
2, 16989, Note_on_c, 0, 74, 0
2, 17009, Note_on_c, 0, 72, 0
2, 17010, Note_on_c, 0, 74, 59
2, 17039, Note_on_c, 0, 74, 0
2, 17040, Note_on_c, 0, 75, 57
2, 17069, Note_on_c, 0, 75, 0
2, 17100, Note_on_c, 0, 75, 61
2, 17129, Note_on_c, 0, 75, 0
2, 17160, Note_on_c, 0, 72, 111
2, 17189, Note_on_c, 0, 72, 0
2, 17220, Note_on_c, 0, 72, 87
2, 17249, Note_on_c, 0, 72, 0
2, 17280, Note_on_c, 0, 77, 77
2, 17309, Note_on_c, 0, 77, 0
2, 17340, Note_on_c, 0, 77, 77
2, 17369, Note_on_c, 0, 77, 0
2, 17400, Note_on_c, 0, 74, 69
2, 17420, Note_on_c, 0, 75, 67
2, 17429, Note_on_c, 0, 74, 0
2, 17440, Note_on_c, 0, 74, 77
2, 17449, Note_on_c, 0, 75, 0
2, 17460, Note_on_c, 0, 72, 66
2, 17469, Note_on_c, 0, 74, 0
2, 17489, Note_on_c, 0, 72, 0
2, 17490, Note_on_c, 0, 74, 70
2, 17519, Note_on_c, 0, 74, 0
2, 17520, Note_on_c, 0, 75, 70
2, 17549, Note_on_c, 0, 75, 0
2, 17580, Note_on_c, 0, 75, 68
2, 17609, Note_on_c, 0, 75, 0
2, 17640, Note_on_c, 0, 72, 109
2, 17669, Note_on_c, 0, 72, 0
2, 17700, Note_on_c, 0, 72, 85
2, 17729, Note_on_c, 0, 72, 0
2, 17760, Note_on_c, 0, 74, 58
2, 17789, Note_on_c, 0, 74, 0
2, 17820, Note_on_c, 0, 74, 52
2, 17849, Note_on_c, 0, 74, 0
2, 17880, Note_on_c, 0, 79, 58
2, 17909, Note_on_c, 0, 79, 0
2, 17940, Note_on_c, 0, 79, 52
2, 17969, Note_on_c, 0, 79, 0
2, 18000, Note_on_c, 0, 72, 54
2, 18029, Note_on_c, 0, 72, 0
2, 18060, Note_on_c, 0, 72, 53
2, 18089, Note_on_c, 0, 72, 0
2, 18120, Note_on_c, 0, 77, 52
2, 18149, Note_on_c, 0, 77, 0
2, 18180, Note_on_c, 0, 77, 52
2, 18209, Note_on_c, 0, 77, 0
2, 18240, Note_on_c, 0, 70, 58
2, 18269, Note_on_c, 0, 70, 0
2, 18300, Note_on_c, 0, 70, 67
2, 18329, Note_on_c, 0, 70, 0
2, 18360, Note_on_c, 0, 75, 71
2, 18389, Note_on_c, 0, 75, 0
2, 18420, Note_on_c, 0, 75, 66
2, 18449, Note_on_c, 0, 75, 0
2, 18480, Note_on_c, 0, 75, 70
2, 18509, Note_on_c, 0, 75, 0
2, 18540, Note_on_c, 0, 75, 66
2, 18569, Note_on_c, 0, 75, 0
2, 18600, Note_on_c, 0, 74, 70
2, 18629, Note_on_c, 0, 74, 0
2, 18660, Note_on_c, 0, 74, 69
2, 18689, Note_on_c, 0, 74, 0
2, 18720, Note_on_c, 0, 75, 113
2, 18749, Note_on_c, 0, 75, 0
2, 18780, Note_on_c, 0, 75, 105
2, 18809, Note_on_c, 0, 75, 0
2, 18840, Note_on_c, 0, 75, 113
2, 18869, Note_on_c, 0, 75, 0
2, 18900, Note_on_c, 0, 75, 104
2, 18929, Note_on_c, 0, 75, 0
2, 18960, Note_on_c, 0, 75, 108
2, 18989, Note_on_c, 0, 75, 0
2, 19020, Note_on_c, 0, 75, 104
2, 19049, Note_on_c, 0, 75, 0
2, 19080, Note_on_c, 0, 77, 103
2, 19109, Note_on_c, 0, 77, 0
2, 19110, Note_on_c, 0, 75, 95
2, 19139, Note_on_c, 0, 75, 0
2, 19140, Note_on_c, 0, 74, 95
2, 19169, Note_on_c, 0, 74, 0
2, 19170, Note_on_c, 0, 75, 101
2, 19199, Note_on_c, 0, 75, 0
2, 19200, Note_on_c, 0, 82, 111
2, 19229, Note_on_c, 0, 82, 0
2, 19260, Note_on_c, 0, 82, 108
2, 19289, Note_on_c, 0, 82, 0
2, 19320, Note_on_c, 0, 82, 111
2, 19349, Note_on_c, 0, 82, 0
2, 19380, Note_on_c, 0, 82, 105
2, 19409, Note_on_c, 0, 82, 0
2, 19440, Note_on_c, 0, 82, 109
2, 19469, Note_on_c, 0, 82, 0
2, 19500, Note_on_c, 0, 82, 108
2, 19529, Note_on_c, 0, 82, 0
2, 19560, Note_on_c, 0, 84, 104
2, 19589, Note_on_c, 0, 84, 0
2, 19590, Note_on_c, 0, 82, 100
2, 19619, Note_on_c, 0, 82, 0
2, 19620, Note_on_c, 0, 81, 100
2, 19649, Note_on_c, 0, 81, 0
2, 19650, Note_on_c, 0, 82, 104
2, 19679, Note_on_c, 0, 82, 0
2, 19680, Note_on_c, 0, 79, 108
2, 19829, Note_on_c, 0, 79, 0
2, 19920, Note_on_c, 0, 87, 117
2, 19930, Control_c, 0, 11, 100
2, 19940, Control_c, 0, 11, 101
2, 19950, Control_c, 0, 11, 103
2, 19960, Control_c, 0, 11, 105
2, 19980, Control_c, 0, 11, 107
2, 20000, Control_c, 0, 11, 109
2, 20020, Control_c, 0, 11, 110
2, 20030, Control_c, 0, 11, 111
2, 20040, Control_c, 0, 11, 113
2, 20060, Control_c, 0, 11, 114
2, 20080, Control_c, 0, 11, 115
2, 20090, Control_c, 0, 11, 116
2, 20100, Control_c, 0, 11, 117
2, 20120, Control_c, 0, 11, 118
2, 20130, Control_c, 0, 11, 119
2, 20140, Control_c, 0, 11, 121
2, 20180, Control_c, 0, 11, 123
2, 20210, Control_c, 0, 11, 125
2, 20260, Control_c, 0, 11, 127
2, 20279, Note_on_c, 0, 87, 0
2, 20280, Note_on_c, 0, 86, 112
2, 20339, Note_on_c, 0, 86, 0
2, 20340, Note_on_c, 0, 84, 104
2, 20399, Note_on_c, 0, 84, 0
2, 20400, Note_on_c, 0, 82, 102
2, 20459, Note_on_c, 0, 82, 0
2, 20460, Note_on_c, 0, 80, 107
2, 20519, Note_on_c, 0, 80, 0
2, 20520, Note_on_c, 0, 79, 102
2, 20579, Note_on_c, 0, 79, 0
2, 20580, Note_on_c, 0, 77, 96
2, 20639, Note_on_c, 0, 77, 0
2, 22080, Note_on_c, 0, 80, 74
2, 22109, Note_on_c, 0, 80, 0
2, 22140, Note_on_c, 0, 80, 76
2, 22169, Note_on_c, 0, 80, 0
2, 22200, Note_on_c, 0, 80, 86
2, 22229, Note_on_c, 0, 80, 0
2, 22260, Note_on_c, 0, 80, 104
2, 22289, Note_on_c, 0, 80, 0
2, 22320, Note_on_c, 0, 80, 118
2, 22349, Note_on_c, 0, 80, 0
2, 22380, Note_on_c, 0, 80, 122
2, 22409, Note_on_c, 0, 80, 0
2, 22440, Note_on_c, 0, 82, 122
2, 22469, Note_on_c, 0, 82, 0
2, 22470, Note_on_c, 0, 80, 100
2, 22499, Note_on_c, 0, 80, 0
2, 22500, Note_on_c, 0, 79, 101
2, 22529, Note_on_c, 0, 79, 0
2, 22530, Note_on_c, 0, 80, 103
2, 22559, Note_on_c, 0, 80, 0
2, 22560, Note_on_c, 0, 79, 113
2, 22619, Note_on_c, 0, 79, 0
2, 22680, Note_on_c, 0, 87, 120
2, 22700, Control_c, 0, 11, 100
2, 22710, Control_c, 0, 11, 106
2, 22730, Control_c, 0, 11, 112
2, 22740, Control_c, 0, 11, 114
2, 22750, Control_c, 0, 11, 116
2, 22760, Control_c, 0, 11, 118
2, 22780, Control_c, 0, 11, 120
2, 22790, Control_c, 0, 11, 121
2, 22800, Control_c, 0, 11, 122
2, 22820, Control_c, 0, 11, 124
2, 22830, Control_c, 0, 11, 123
2, 22850, Control_c, 0, 11, 124
2, 22880, Control_c, 0, 11, 126
2, 22900, Control_c, 0, 11, 125
2, 22919, Note_on_c, 0, 87, 0
2, 22920, Note_on_c, 0, 86, 64
2, 22979, Note_on_c, 0, 86, 0
2, 23160, Note_on_c, 0, 84, 122
2, 23170, Control_c, 0, 11, 98
2, 23190, Control_c, 0, 11, 101
2, 23200, Control_c, 0, 11, 102
2, 23210, Control_c, 0, 11, 104
2, 23230, Control_c, 0, 11, 105
2, 23240, Control_c, 0, 11, 108
2, 23250, Control_c, 0, 11, 111
2, 23260, Control_c, 0, 11, 112
2, 23270, Control_c, 0, 11, 114
2, 23280, Control_c, 0, 11, 116
2, 23290, Control_c, 0, 11, 118
2, 23310, Control_c, 0, 11, 120
2, 23320, Control_c, 0, 11, 121
2, 23330, Control_c, 0, 11, 122
2, 23340, Control_c, 0, 11, 123
2, 23350, Control_c, 0, 11, 124
2, 23380, Control_c, 0, 11, 125
2, 23390, Control_c, 0, 11, 126
2, 23399, Note_on_c, 0, 84, 0
2, 23400, Note_on_c, 0, 82, 60
2, 23459, Note_on_c, 0, 82, 0
2, 23640, Note_on_c, 0, 80, 108
2, 23650, Control_c, 0, 11, 98
2, 23670, Control_c, 0, 11, 100
2, 23680, Control_c, 0, 11, 102
2, 23690, Control_c, 0, 11, 104
2, 23710, Control_c, 0, 11, 106
2, 23720, Control_c, 0, 11, 108
2, 23730, Control_c, 0, 11, 110
2, 23760, Control_c, 0, 11, 112
2, 23770, Control_c, 0, 11, 114
2, 23790, Control_c, 0, 11, 116
2, 23800, Control_c, 0, 11, 117
2, 23810, Control_c, 0, 11, 118
2, 23820, Control_c, 0, 11, 120
2, 23830, Control_c, 0, 11, 122
2, 23840, Control_c, 0, 11, 123
2, 23850, Control_c, 0, 11, 124
2, 23860, Control_c, 0, 11, 126
2, 23870, Control_c, 0, 11, 127
2, 23879, Note_on_c, 0, 80, 0
2, 23880, Note_on_c, 0, 79, 63
2, 23939, Note_on_c, 0, 79, 0
2, 24000, Note_on_c, 0, 77, 106
2, 24209, Note_on_c, 0, 77, 0
2, 24210, Note_on_c, 0, 77, 115
2, 24239, Note_on_c, 0, 77, 0
2, 24240, Note_on_c, 0, 77, 122
2, 24449, Note_on_c, 0, 77, 0
2, 24450, Note_on_c, 0, 77, 112
2, 24479, Note_on_c, 0, 77, 0
2, 24480, Note_on_c, 0, 87, 120
2, 24509, Note_on_c, 0, 87, 0
2, 24540, Note_on_c, 0, 87, 121
2, 24659, Note_on_c, 0, 87, 0
2, 24660, Note_on_c, 0, 87, 121
2, 24779, Note_on_c, 0, 87, 0
2, 24780, Note_on_c, 0, 87, 120
2, 24899, Note_on_c, 0, 87, 0
2, 24900, Note_on_c, 0, 87, 119
2, 24929, Note_on_c, 0, 87, 0
2, 24960, Note_on_c, 0, 87, 118
2, 25079, Note_on_c, 0, 87, 0
2, 25080, Note_on_c, 0, 86, 115
2, 25080, Note_on_c, 0, 77, 115
2, 25109, Note_on_c, 0, 77, 0
2, 25109, Note_on_c, 0, 86, 0
2, 25200, Note_on_c, 0, 75, 115
2, 25200, Note_on_c, 0, 84, 115
2, 25229, Note_on_c, 0, 84, 0
2, 25229, Note_on_c, 0, 75, 0
2, 25320, Note_on_c, 0, 74, 111
2, 25320, Note_on_c, 0, 82, 111
2, 25349, Note_on_c, 0, 82, 0
2, 25349, Note_on_c, 0, 74, 0
2, 25440, Note_on_c, 0, 72, 120
2, 25440, Note_on_c, 0, 81, 120
2, 25469, Note_on_c, 0, 81, 0
2, 25469, Note_on_c, 0, 72, 0
2, 25500, Note_on_c, 0, 77, 91
2, 25529, Note_on_c, 0, 77, 0
2, 25560, Note_on_c, 0, 77, 85
2, 25589, Note_on_c, 0, 77, 0
2, 25620, Note_on_c, 0, 77, 83
2, 25649, Note_on_c, 0, 77, 0
2, 25680, Note_on_c, 0, 77, 91
2, 25709, Note_on_c, 0, 77, 0
2, 25740, Note_on_c, 0, 77, 95
2, 25769, Note_on_c, 0, 77, 0
2, 25800, Note_on_c, 0, 79, 109
2, 25829, Note_on_c, 0, 79, 0
2, 25830, Note_on_c, 0, 77, 105
2, 25859, Note_on_c, 0, 77, 0
2, 25860, Note_on_c, 0, 76, 103
2, 25889, Note_on_c, 0, 76, 0
2, 25890, Note_on_c, 0, 77, 105
2, 25919, Note_on_c, 0, 77, 0
2, 25920, Note_on_c, 0, 85, 115
2, 25949, Note_on_c, 0, 85, 0
2, 25980, Note_on_c, 0, 85, 114
2, 26099, Note_on_c, 0, 85, 0
2, 26100, Note_on_c, 0, 85, 115
2, 26219, Note_on_c, 0, 85, 0
2, 26220, Note_on_c, 0, 85, 112
2, 26339, Note_on_c, 0, 85, 0
2, 26340, Note_on_c, 0, 82, 112
2, 26399, Note_on_c, 0, 82, 0
2, 26400, Note_on_c, 0, 81, 115
2, 26459, Note_on_c, 0, 81, 0
2, 26460, Note_on_c, 0, 77, 88
2, 26489, Note_on_c, 0, 77, 0
2, 26520, Note_on_c, 0, 77, 84
2, 26549, Note_on_c, 0, 77, 0
2, 26580, Note_on_c, 0, 77, 82
2, 26609, Note_on_c, 0, 77, 0
2, 26640, Note_on_c, 0, 77, 84
2, 26669, Note_on_c, 0, 77, 0
2, 26700, Note_on_c, 0, 77, 86
2, 26729, Note_on_c, 0, 77, 0
2, 26760, Note_on_c, 0, 79, 107
2, 26789, Note_on_c, 0, 79, 0
2, 26790, Note_on_c, 0, 77, 101
2, 26819, Note_on_c, 0, 77, 0
2, 26820, Note_on_c, 0, 76, 100
2, 26849, Note_on_c, 0, 76, 0
2, 26850, Note_on_c, 0, 77, 102
2, 26879, Note_on_c, 0, 77, 0
2, 26880, Note_on_c, 0, 85, 112
2, 26909, Note_on_c, 0, 85, 0
2, 26940, Note_on_c, 0, 85, 119
2, 27059, Note_on_c, 0, 85, 0
2, 27060, Note_on_c, 0, 85, 115
2, 27179, Note_on_c, 0, 85, 0
2, 27180, Note_on_c, 0, 85, 113
2, 27299, Note_on_c, 0, 85, 0
2, 27300, Note_on_c, 0, 82, 114
2, 27359, Note_on_c, 0, 82, 0
2, 27360, Note_on_c, 0, 81, 116
2, 27479, Note_on_c, 0, 81, 0
2, 27840, Note_on_c, 0, 86, 61
2, 27869, Note_on_c, 0, 86, 0
2, 27900, Note_on_c, 0, 86, 57
2, 27929, Note_on_c, 0, 86, 0
2, 27960, Note_on_c, 0, 86, 53
2, 27989, Note_on_c, 0, 86, 0
2, 28020, Note_on_c, 0, 86, 49
2, 28049, Note_on_c, 0, 86, 0
2, 28080, Note_on_c, 0, 86, 49
2, 28109, Note_on_c, 0, 86, 0
2, 28140, Note_on_c, 0, 86, 52
2, 28169, Note_on_c, 0, 86, 0
2, 28200, Note_on_c, 0, 87, 55
2, 28229, Note_on_c, 0, 87, 0
2, 28230, Note_on_c, 0, 86, 51
2, 28259, Note_on_c, 0, 86, 0
2, 28260, Note_on_c, 0, 84, 47
2, 28289, Note_on_c, 0, 84, 0
2, 28290, Note_on_c, 0, 86, 47
2, 28319, Note_on_c, 0, 86, 0
2, 28320, Note_on_c, 0, 87, 51
2, 28439, Note_on_c, 0, 87, 0
2, 28800, Note_on_c, 0, 84, 59
2, 28829, Note_on_c, 0, 84, 0
2, 28860, Note_on_c, 0, 84, 53
2, 28889, Note_on_c, 0, 84, 0
2, 28920, Note_on_c, 0, 84, 48
2, 28949, Note_on_c, 0, 84, 0
2, 28980, Note_on_c, 0, 84, 45
2, 29009, Note_on_c, 0, 84, 0
2, 29040, Note_on_c, 0, 84, 48
2, 29069, Note_on_c, 0, 84, 0
2, 29100, Note_on_c, 0, 84, 50
2, 29129, Note_on_c, 0, 84, 0
2, 29160, Note_on_c, 0, 86, 52
2, 29189, Note_on_c, 0, 86, 0
2, 29190, Note_on_c, 0, 84, 51
2, 29219, Note_on_c, 0, 84, 0
2, 29220, Note_on_c, 0, 82, 47
2, 29249, Note_on_c, 0, 82, 0
2, 29250, Note_on_c, 0, 84, 48
2, 29279, Note_on_c, 0, 84, 0
2, 29280, Note_on_c, 0, 86, 54
2, 29399, Note_on_c, 0, 86, 0
2, 29760, Note_on_c, 0, 82, 61
2, 29789, Note_on_c, 0, 82, 0
2, 29820, Note_on_c, 0, 82, 58
2, 29849, Note_on_c, 0, 82, 0
2, 29880, Note_on_c, 0, 82, 59
2, 29909, Note_on_c, 0, 82, 0
2, 29940, Note_on_c, 0, 82, 59
2, 29969, Note_on_c, 0, 82, 0
2, 30000, Note_on_c, 0, 82, 59
2, 30029, Note_on_c, 0, 82, 0
2, 30060, Note_on_c, 0, 82, 57
2, 30089, Note_on_c, 0, 82, 0
2, 30120, Note_on_c, 0, 84, 65
2, 30149, Note_on_c, 0, 84, 0
2, 30150, Note_on_c, 0, 82, 61
2, 30179, Note_on_c, 0, 82, 0
2, 30180, Note_on_c, 0, 81, 58
2, 30209, Note_on_c, 0, 81, 0
2, 30210, Note_on_c, 0, 82, 60
2, 30239, Note_on_c, 0, 82, 0
2, 30240, Note_on_c, 0, 84, 63
2, 30359, Note_on_c, 0, 84, 0
2, 30480, Note_on_c, 0, 63, 48
2, 30480, Note_on_c, 0, 60, 48
2, 30599, Note_on_c, 0, 60, 0
2, 30599, Note_on_c, 0, 63, 0
2, 30840, Note_on_c, 0, 62, 48
2, 30959, Note_on_c, 0, 62, 0
2, 31080, Note_on_c, 0, 74, 52
2, 31199, Note_on_c, 0, 74, 0
2, 31320, Note_on_c, 0, 75, 51
2, 31439, Note_on_c, 0, 75, 0
2, 31560, Note_on_c, 0, 60, 47
2, 31679, Note_on_c, 0, 60, 0
2, 31800, Note_on_c, 0, 62, 58
2, 31919, Note_on_c, 0, 62, 0
2, 32040, Note_on_c, 0, 74, 55
2, 32159, Note_on_c, 0, 74, 0
2, 32280, Note_on_c, 0, 75, 59
2, 32399, Note_on_c, 0, 75, 0
2, 32520, Note_on_c, 0, 60, 58
2, 32639, Note_on_c, 0, 60, 0
2, 32640, Note_on_c, 0, 86, 108
2, 32669, Note_on_c, 0, 86, 0
2, 32700, Note_on_c, 0, 86, 101
2, 32729, Note_on_c, 0, 86, 0
2, 32760, Note_on_c, 0, 86, 102
2, 32789, Note_on_c, 0, 86, 0
2, 32820, Note_on_c, 0, 86, 95
2, 32849, Note_on_c, 0, 86, 0
2, 32880, Note_on_c, 0, 86, 104
2, 32909, Note_on_c, 0, 86, 0
2, 32940, Note_on_c, 0, 86, 96
2, 32969, Note_on_c, 0, 86, 0
2, 33000, Note_on_c, 0, 87, 101
2, 33029, Note_on_c, 0, 87, 0
2, 33030, Note_on_c, 0, 86, 97
2, 33059, Note_on_c, 0, 86, 0
2, 33060, Note_on_c, 0, 84, 97
2, 33089, Note_on_c, 0, 84, 0
2, 33090, Note_on_c, 0, 86, 104
2, 33119, Note_on_c, 0, 86, 0
2, 33120, Note_on_c, 0, 87, 105
2, 33209, Note_on_c, 0, 87, 0
2, 33240, Note_on_c, 0, 78, 111
2, 33240, Control_c, 0, 11, 96
2, 33260, Control_c, 0, 11, 98
2, 33270, Control_c, 0, 11, 99
2, 33280, Control_c, 0, 11, 100
2, 33290, Control_c, 0, 11, 102
2, 33300, Control_c, 0, 11, 103
2, 33310, Control_c, 0, 11, 106
2, 33320, Control_c, 0, 11, 107
2, 33330, Control_c, 0, 11, 108
2, 33340, Control_c, 0, 11, 110
2, 33350, Control_c, 0, 11, 111
2, 33360, Control_c, 0, 11, 112
2, 33370, Control_c, 0, 11, 114
2, 33390, Control_c, 0, 11, 116
2, 33400, Control_c, 0, 11, 118
2, 33420, Control_c, 0, 11, 120
2, 33430, Control_c, 0, 11, 122
2, 33440, Control_c, 0, 11, 123
2, 33450, Control_c, 0, 11, 124
2, 33470, Control_c, 0, 11, 126
2, 33479, Note_on_c, 0, 78, 0
2, 33480, Note_on_c, 0, 79, 79
2, 33480, Control_c, 0, 11, 127
2, 33539, Note_on_c, 0, 79, 0
2, 33600, Note_on_c, 0, 86, 91
2, 33689, Note_on_c, 0, 86, 0
2, 33720, Note_on_c, 0, 76, 108
2, 33720, Control_c, 0, 11, 96
2, 33730, Control_c, 0, 11, 98
2, 33750, Control_c, 0, 11, 99
2, 33770, Control_c, 0, 11, 101
2, 33780, Control_c, 0, 11, 103
2, 33790, Control_c, 0, 11, 104
2, 33800, Control_c, 0, 11, 105
2, 33810, Control_c, 0, 11, 107
2, 33840, Control_c, 0, 11, 109
2, 33850, Control_c, 0, 11, 110
2, 33860, Control_c, 0, 11, 111
2, 33870, Control_c, 0, 11, 113
2, 33880, Control_c, 0, 11, 114
2, 33890, Control_c, 0, 11, 115
2, 33910, Control_c, 0, 11, 117
2, 33920, Control_c, 0, 11, 118
2, 33930, Control_c, 0, 11, 121
2, 33940, Control_c, 0, 11, 123
2, 33950, Control_c, 0, 11, 124
2, 33959, Note_on_c, 0, 76, 0
2, 33960, Note_on_c, 0, 77, 80
2, 33960, Control_c, 0, 11, 125
2, 34019, Note_on_c, 0, 77, 0
2, 34080, Note_on_c, 0, 84, 95
2, 34169, Note_on_c, 0, 84, 0
2, 34200, Note_on_c, 0, 74, 111
2, 34200, Control_c, 0, 11, 98
2, 34220, Control_c, 0, 11, 100
2, 34230, Control_c, 0, 11, 101
2, 34240, Control_c, 0, 11, 102
2, 34250, Control_c, 0, 11, 103
2, 34260, Control_c, 0, 11, 104
2, 34270, Control_c, 0, 11, 106
2, 34290, Control_c, 0, 11, 108
2, 34310, Control_c, 0, 11, 110
2, 34320, Control_c, 0, 11, 111
2, 34330, Control_c, 0, 11, 112
2, 34340, Control_c, 0, 11, 113
2, 34350, Control_c, 0, 11, 115
2, 34360, Control_c, 0, 11, 116
2, 34380, Control_c, 0, 11, 117
2, 34390, Control_c, 0, 11, 120
2, 34400, Control_c, 0, 11, 121
2, 34410, Control_c, 0, 11, 122
2, 34420, Control_c, 0, 11, 124
2, 34430, Control_c, 0, 11, 126
2, 34439, Note_on_c, 0, 74, 0
2, 34440, Note_on_c, 0, 75, 78
2, 34440, Control_c, 0, 11, 127
2, 34499, Note_on_c, 0, 75, 0
2, 34680, Note_on_c, 0, 70, 99
2, 34680, Note_on_c, 0, 79, 99
2, 34799, Note_on_c, 0, 79, 0
2, 34799, Note_on_c, 0, 70, 0
2, 34920, Note_on_c, 0, 79, 100
2, 34920, Note_on_c, 0, 70, 100
2, 35039, Note_on_c, 0, 70, 0
2, 35039, Note_on_c, 0, 79, 0
2, 35160, Note_on_c, 0, 75, 97
2, 35160, Note_on_c, 0, 67, 97
2, 35279, Note_on_c, 0, 67, 0
2, 35279, Note_on_c, 0, 75, 0
2, 35400, Note_on_c, 0, 65, 102
2, 35400, Note_on_c, 0, 72, 102
2, 35519, Note_on_c, 0, 72, 0
2, 35519, Note_on_c, 0, 65, 0
2, 35640, Note_on_c, 0, 62, 55
2, 35759, Note_on_c, 0, 62, 0
2, 35880, Note_on_c, 0, 74, 54
2, 35999, Note_on_c, 0, 74, 0
2, 36120, Note_on_c, 0, 75, 55
2, 36239, Note_on_c, 0, 75, 0
2, 36360, Note_on_c, 0, 60, 53
2, 36479, Note_on_c, 0, 60, 0
2, 36600, Note_on_c, 0, 62, 55
2, 36719, Note_on_c, 0, 62, 0
2, 36840, Note_on_c, 0, 74, 60
2, 36959, Note_on_c, 0, 74, 0
2, 37080, Note_on_c, 0, 75, 59
2, 37199, Note_on_c, 0, 75, 0
2, 37320, Note_on_c, 0, 60, 57
2, 37439, Note_on_c, 0, 60, 0
2, 37440, Note_on_c, 0, 86, 113
2, 37469, Note_on_c, 0, 86, 0
2, 37500, Note_on_c, 0, 86, 105
2, 37529, Note_on_c, 0, 86, 0
2, 37560, Note_on_c, 0, 86, 112
2, 37589, Note_on_c, 0, 86, 0
2, 37620, Note_on_c, 0, 86, 102
2, 37649, Note_on_c, 0, 86, 0
2, 37680, Note_on_c, 0, 86, 110
2, 37709, Note_on_c, 0, 86, 0
2, 37740, Note_on_c, 0, 86, 106
2, 37769, Note_on_c, 0, 86, 0
2, 37800, Note_on_c, 0, 87, 108
2, 37829, Note_on_c, 0, 87, 0
2, 37830, Note_on_c, 0, 86, 106
2, 37859, Note_on_c, 0, 86, 0
2, 37860, Note_on_c, 0, 84, 106
2, 37889, Note_on_c, 0, 84, 0
2, 37890, Note_on_c, 0, 86, 111
2, 37919, Note_on_c, 0, 86, 0
2, 37920, Note_on_c, 0, 87, 103
2, 37979, Note_on_c, 0, 87, 0
2, 38040, Note_on_c, 0, 78, 119
2, 38060, Control_c, 0, 11, 98
2, 38070, Control_c, 0, 11, 99
2, 38080, Control_c, 0, 11, 101
2, 38090, Control_c, 0, 11, 102
2, 38110, Control_c, 0, 11, 103
2, 38120, Control_c, 0, 11, 105
2, 38130, Control_c, 0, 11, 107
2, 38140, Control_c, 0, 11, 109
2, 38160, Control_c, 0, 11, 111
2, 38170, Control_c, 0, 11, 113
2, 38190, Control_c, 0, 11, 115
2, 38200, Control_c, 0, 11, 118
2, 38210, Control_c, 0, 11, 120
2, 38220, Control_c, 0, 11, 121
2, 38230, Control_c, 0, 11, 122
2, 38240, Control_c, 0, 11, 124
2, 38250, Control_c, 0, 11, 125
2, 38270, Control_c, 0, 11, 126
2, 38279, Note_on_c, 0, 78, 0
2, 38280, Note_on_c, 0, 79, 66
2, 38280, Control_c, 0, 11, 127
2, 38339, Note_on_c, 0, 79, 0
2, 38400, Note_on_c, 0, 86, 101
2, 38429, Note_on_c, 0, 86, 0
2, 38520, Note_on_c, 0, 76, 115
2, 38520, Control_c, 0, 11, 111
2, 38540, Control_c, 0, 11, 112
2, 38560, Control_c, 0, 11, 113
2, 38570, Control_c, 0, 11, 115
2, 38590, Control_c, 0, 11, 116
2, 38610, Control_c, 0, 11, 107
2, 38620, Control_c, 0, 11, 118
2, 38630, Control_c, 0, 11, 119
2, 38650, Control_c, 0, 11, 121
2, 38680, Control_c, 0, 11, 122
2, 38690, Control_c, 0, 11, 123
2, 38710, Control_c, 0, 11, 124
2, 38720, Control_c, 0, 11, 125
2, 38750, Control_c, 0, 11, 126
2, 38759, Note_on_c, 0, 76, 0
2, 38760, Note_on_c, 0, 77, 66
2, 38760, Control_c, 0, 11, 127
2, 38789, Note_on_c, 0, 77, 0
2, 38880, Note_on_c, 0, 84, 99
2, 38909, Note_on_c, 0, 84, 0
2, 39000, Note_on_c, 0, 74, 116
2, 39020, Control_c, 0, 11, 97
2, 39030, Control_c, 0, 11, 99
2, 39040, Control_c, 0, 11, 103
2, 39050, Control_c, 0, 11, 105
2, 39060, Control_c, 0, 11, 107
2, 39070, Control_c, 0, 11, 108
2, 39080, Control_c, 0, 11, 109
2, 39090, Control_c, 0, 11, 111
2, 39110, Control_c, 0, 11, 113
2, 39120, Control_c, 0, 11, 116
2, 39130, Control_c, 0, 11, 117
2, 39140, Control_c, 0, 11, 118
2, 39150, Control_c, 0, 11, 119
2, 39160, Control_c, 0, 11, 121
2, 39170, Control_c, 0, 11, 123
2, 39190, Control_c, 0, 11, 124
2, 39200, Control_c, 0, 11, 127
2, 39239, Note_on_c, 0, 74, 0
2, 39240, Note_on_c, 0, 75, 67
2, 39269, Note_on_c, 0, 75, 0
2, 39480, Note_on_c, 0, 70, 115
2, 39480, Note_on_c, 0, 79, 115
2, 39599, Note_on_c, 0, 79, 0
2, 39599, Note_on_c, 0, 70, 0
2, 39720, Note_on_c, 0, 70, 112
2, 39720, Note_on_c, 0, 79, 112
2, 39839, Note_on_c, 0, 79, 0
2, 39839, Note_on_c, 0, 70, 0
2, 39960, Note_on_c, 0, 75, 114
2, 39960, Note_on_c, 0, 67, 114
2, 40079, Note_on_c, 0, 67, 0
2, 40079, Note_on_c, 0, 75, 0
2, 40200, Note_on_c, 0, 72, 109
2, 40200, Note_on_c, 0, 65, 109
2, 40319, Note_on_c, 0, 65, 0
2, 40319, Note_on_c, 0, 72, 0
2, 42240, Note_on_c, 0, 89, 100
2, 42240, Control_c, 0, 10, 104
2, 42250, Control_c, 0, 10, 111
2, 42260, Control_c, 0, 10, 117
2, 42270, Control_c, 0, 10, 120
2, 42280, Control_c, 0, 10, 127
2, 42290, Note_on_c, 0, 89, 0
2, 42300, Note_on_c, 0, 89, 100
2, 42410, Note_on_c, 0, 89, 0
2, 42420, Note_on_c, 0, 89, 100
2, 42530, Note_on_c, 0, 89, 0
2, 42540, Note_on_c, 0, 89, 103
2, 42650, Note_on_c, 0, 89, 0
2, 42660, Note_on_c, 0, 89, 100
2, 42770, Note_on_c, 0, 89, 0
2, 42780, Note_on_c, 0, 89, 100
2, 42890, Note_on_c, 0, 89, 0
2, 42900, Note_on_c, 0, 89, 102
2, 43010, Note_on_c, 0, 89, 0
2, 43020, Note_on_c, 0, 89, 102
2, 43130, Note_on_c, 0, 89, 0
2, 43140, Note_on_c, 0, 89, 102
2, 43191, Note_on_c, 0, 89, 0
2, 44160, Note_on_c, 0, 82, 100
2, 44279, Note_on_c, 0, 82, 0
2, 44280, Note_on_c, 0, 86, 110
2, 44280, Note_on_c, 0, 77, 110
2, 44399, Note_on_c, 0, 77, 0
2, 44399, Note_on_c, 0, 86, 0
2, 44520, Note_on_c, 0, 82, 102
2, 44520, Note_on_c, 0, 74, 102
2, 44639, Note_on_c, 0, 74, 0
2, 44639, Note_on_c, 0, 82, 0
2, 44760, Note_on_c, 0, 77, 106
2, 44760, Note_on_c, 0, 70, 106
2, 44879, Note_on_c, 0, 70, 0
2, 44879, Note_on_c, 0, 77, 0
2, 45000, Note_on_c, 0, 65, 104
2, 45000, Note_on_c, 0, 74, 104
2, 45119, Note_on_c, 0, 74, 0
2, 45119, Note_on_c, 0, 65, 0
2, 45600, Note_on_c, 0, 58, 111
2, 45610, Control_c, 0, 10, 20
2, 45719, Note_on_c, 0, 58, 0
2, 45720, Note_on_c, 0, 82, 113
2, 45720, Note_on_c, 0, 74, 113
2, 45839, Note_on_c, 0, 74, 0
2, 45839, Note_on_c, 0, 82, 0
2, 45840, Note_on_c, 0, 58, 113
2, 45929, Note_on_c, 0, 58, 0
2, 45960, Note_on_c, 0, 58, 110
2, 46049, Note_on_c, 0, 58, 0
2, 46080, Note_on_c, 0, 58, 117
2, 46080, Control_c, 0, 10, 105
2, 46090, Control_c, 0, 11, 101
2, 46100, Control_c, 0, 11, 102
2, 46120, Control_c, 0, 11, 104
2, 46140, Control_c, 0, 11, 106
2, 46170, Control_c, 0, 11, 108
2, 46190, Control_c, 0, 11, 109
2, 46210, Control_c, 0, 11, 110
2, 46220, Control_c, 0, 11, 112
2, 46250, Control_c, 0, 11, 113
2, 46260, Control_c, 0, 11, 114
2, 46300, Control_c, 0, 11, 115
2, 46310, Control_c, 0, 11, 116
2, 46340, Control_c, 0, 11, 117
2, 46350, Control_c, 0, 11, 118
2, 46380, Control_c, 0, 11, 122
2, 46410, Control_c, 0, 11, 123
2, 46430, Control_c, 0, 11, 124
2, 46470, Control_c, 0, 11, 125
2, 46490, Control_c, 0, 11, 127
2, 46520, Control_c, 0, 11, 126
2, 46530, Control_c, 0, 11, 125
2, 46559, Note_on_c, 0, 58, 0
2, 46560, Control_c, 0, 11, 124
2, 46560, End_track
3, 0, Start_track
3, 0, MIDI_port, 0
3, 0, Title_t, "tremolo Strings"
3, 0, Program_c, 1, 44
3, 0, Control_c, 1, 7, 100
3, 0, Control_c, 1, 10, 110
3, 20640, Control_c, 1, 121, 0
3, 20640, Control_c, 1, 0, 0
3, 20640, Program_c, 1, 44
3, 20640, Pitch_bend_c, 1, 8192
3, 20640, Control_c, 1, 10, 110
3, 20640, Control_c, 1, 91, 80
3, 20640, Control_c, 1, 93, 20
3, 20640, Control_c, 1, 7, 100
3, 20640, Note_on_c, 1, 79, 113
3, 20759, Note_on_c, 1, 79, 0
3, 20760, Note_on_c, 1, 84, 119
3, 20879, Note_on_c, 1, 84, 0
3, 20880, Note_on_c, 1, 81, 118
3, 20999, Note_on_c, 1, 81, 0
3, 21000, Note_on_c, 1, 82, 120
3, 21119, Note_on_c, 1, 82, 0
3, 21120, Note_on_c, 1, 75, 118
3, 21239, Note_on_c, 1, 75, 0
3, 21240, Note_on_c, 1, 80, 121
3, 21359, Note_on_c, 1, 80, 0
3, 21360, Note_on_c, 1, 78, 116
3, 21479, Note_on_c, 1, 78, 0
3, 21480, Note_on_c, 1, 79, 116
3, 21599, Note_on_c, 1, 79, 0
3, 21600, Note_on_c, 1, 72, 120
3, 21719, Note_on_c, 1, 72, 0
3, 21720, Note_on_c, 1, 77, 122
3, 21839, Note_on_c, 1, 77, 0
3, 21840, Note_on_c, 1, 74, 118
3, 21959, Note_on_c, 1, 74, 0
3, 21960, Note_on_c, 1, 75, 124
3, 22079, Note_on_c, 1, 75, 0
3, 40320, Note_on_c, 1, 83, 44
3, 40330, Control_c, 1, 10, 126
3, 40340, Control_c, 1, 10, 125
3, 40439, Note_on_c, 1, 83, 0
3, 40440, Note_on_c, 1, 83, 44
3, 40559, Note_on_c, 1, 83, 0
3, 40560, Note_on_c, 1, 84, 46
3, 40679, Note_on_c, 1, 84, 0
3, 40680, Note_on_c, 1, 81, 44
3, 40799, Note_on_c, 1, 81, 0
3, 40800, Note_on_c, 1, 82, 54
3, 40919, Note_on_c, 1, 82, 0
3, 40920, Note_on_c, 1, 83, 48
3, 41039, Note_on_c, 1, 83, 0
3, 41040, Note_on_c, 1, 84, 49
3, 41159, Note_on_c, 1, 84, 0
3, 41160, Note_on_c, 1, 81, 52
3, 41180, Control_c, 1, 10, 125
3, 41200, Control_c, 1, 10, 123
3, 41210, Control_c, 1, 10, 121
3, 41270, Control_c, 1, 10, 119
3, 41279, Note_on_c, 1, 81, 0
3, 41280, Note_on_c, 1, 82, 65
3, 41290, Control_c, 1, 10, 111
3, 41310, Control_c, 1, 10, 103
3, 41330, Control_c, 1, 10, 95
3, 41340, Control_c, 1, 10, 87
3, 41360, Control_c, 1, 10, 79
3, 41370, Control_c, 1, 10, 71
3, 41380, Control_c, 1, 10, 59
3, 41390, Control_c, 1, 10, 47
3, 41399, Note_on_c, 1, 82, 0
3, 41400, Note_on_c, 1, 83, 74
3, 41410, Control_c, 1, 10, 37
3, 41420, Control_c, 1, 10, 29
3, 41430, Control_c, 1, 10, 23
3, 41450, Control_c, 1, 10, 11
3, 41470, Control_c, 1, 10, 9
3, 41480, Control_c, 1, 10, 7
3, 41519, Note_on_c, 1, 83, 0
3, 41520, Note_on_c, 1, 84, 71
3, 41520, Control_c, 1, 10, 5
3, 41530, Control_c, 1, 10, 3
3, 41639, Note_on_c, 1, 84, 0
3, 41640, Note_on_c, 1, 81, 67
3, 41640, Control_c, 1, 10, 8
3, 41660, Control_c, 1, 10, 10
3, 41759, Note_on_c, 1, 81, 0
3, 41760, Note_on_c, 1, 82, 87
3, 41879, Note_on_c, 1, 82, 0
3, 41880, Note_on_c, 1, 83, 97
3, 41999, Note_on_c, 1, 83, 0
3, 42000, Note_on_c, 1, 84, 95
3, 42119, Note_on_c, 1, 84, 0
3, 42120, Note_on_c, 1, 81, 89
3, 42120, Control_c, 1, 10, 66
3, 42130, Control_c, 1, 10, 72
3, 42140, Control_c, 1, 10, 80
3, 42150, Control_c, 1, 10, 82
3, 42160, Control_c, 1, 10, 88
3, 42170, Control_c, 1, 10, 90
3, 42180, Control_c, 1, 10, 91
3, 42190, Control_c, 1, 10, 93
3, 42200, Control_c, 1, 10, 95
3, 42210, Control_c, 1, 10, 96
3, 42220, Control_c, 1, 10, 98
3, 42230, Control_c, 1, 10, 100
3, 42239, Note_on_c, 1, 81, 0
3, 43200, Note_on_c, 1, 89, 102
3, 43210, Control_c, 1, 10, 76
3, 43220, Control_c, 1, 10, 77
3, 43270, Control_c, 1, 10, 78
3, 43439, Note_on_c, 1, 89, 0
3, 43440, Note_on_c, 1, 87, 107
3, 43679, Note_on_c, 1, 87, 0
3, 43680, Note_on_c, 1, 86, 105
3, 43919, Note_on_c, 1, 86, 0
3, 43920, Note_on_c, 1, 84, 99
3, 44159, Note_on_c, 1, 84, 0
3, 45120, Note_on_c, 1, 62, 117
3, 45120, Note_on_c, 1, 70, 117
3, 45210, Control_c, 1, 10, 126
3, 45239, Note_on_c, 1, 70, 0
3, 45239, Note_on_c, 1, 62, 0
3, 45240, Note_on_c, 1, 70, 110
3, 45359, Note_on_c, 1, 70, 0
3, 45360, Note_on_c, 1, 65, 107
3, 45479, Note_on_c, 1, 65, 0
3, 45480, Note_on_c, 1, 62, 103
3, 45599, Note_on_c, 1, 62, 0
3, 45599, End_track
4, 0, Start_track
4, 0, MIDI_port, 0
4, 0, Title_t, "Strings"
4, 0, Program_c, 0, 48
4, 0, Control_c, 0, 7, 120
4, 0, Control_c, 0, 10, 30
4, 480, Control_c, 0, 121, 0
4, 480, Control_c, 0, 0, 0
4, 480, Program_c, 0, 48
4, 480, Control_c, 0, 10, 30
4, 480, Control_c, 0, 91, 80
4, 480, Control_c, 0, 93, 20
4, 480, Control_c, 0, 7, 120
4, 480, Note_on_c, 0, 63, 120
4, 480, Note_on_c, 0, 55, 120
4, 719, Note_on_c, 0, 55, 0
4, 719, Note_on_c, 0, 63, 0
4, 930, Note_on_c, 0, 67, 114
4, 930, Note_on_c, 0, 75, 114
4, 959, Note_on_c, 0, 75, 0
4, 959, Note_on_c, 0, 67, 0
4, 960, Note_on_c, 0, 67, 119
4, 960, Note_on_c, 0, 75, 119
4, 1199, Note_on_c, 0, 75, 0
4, 1199, Note_on_c, 0, 67, 0
4, 1410, Note_on_c, 0, 79, 118
4, 1410, Note_on_c, 0, 75, 118
4, 1439, Note_on_c, 0, 75, 0
4, 1439, Note_on_c, 0, 79, 0
4, 1440, Note_on_c, 0, 75, 124
4, 1440, Note_on_c, 0, 79, 124
4, 1679, Note_on_c, 0, 79, 0
4, 1679, Note_on_c, 0, 75, 0
4, 1920, Note_on_c, 0, 60, 32
4, 1920, Note_on_c, 0, 63, 32
4, 2039, Note_on_c, 0, 63, 0
4, 2039, Note_on_c, 0, 60, 0
4, 2040, Note_on_c, 0, 60, 34
4, 2040, Note_on_c, 0, 63, 34
4, 2279, Note_on_c, 0, 63, 0
4, 2279, Note_on_c, 0, 60, 0
4, 2280, Note_on_c, 0, 60, 34
4, 2280, Note_on_c, 0, 63, 34
4, 2519, Note_on_c, 0, 63, 0
4, 2519, Note_on_c, 0, 60, 0
4, 2520, Note_on_c, 0, 60, 32
4, 2520, Note_on_c, 0, 63, 32
4, 2759, Note_on_c, 0, 63, 0
4, 2759, Note_on_c, 0, 60, 0
4, 2760, Note_on_c, 0, 60, 36
4, 2760, Note_on_c, 0, 63, 36
4, 2879, Note_on_c, 0, 63, 0
4, 2879, Note_on_c, 0, 60, 0
4, 2880, Note_on_c, 0, 61, 35
4, 2880, Note_on_c, 0, 63, 35
4, 2999, Note_on_c, 0, 63, 0
4, 2999, Note_on_c, 0, 61, 0
4, 3000, Note_on_c, 0, 61, 35
4, 3000, Note_on_c, 0, 63, 35
4, 3239, Note_on_c, 0, 63, 0
4, 3239, Note_on_c, 0, 61, 0
4, 3240, Note_on_c, 0, 61, 37
4, 3240, Note_on_c, 0, 63, 37
4, 3479, Note_on_c, 0, 63, 0
4, 3479, Note_on_c, 0, 61, 0
4, 3480, Note_on_c, 0, 61, 39
4, 3480, Note_on_c, 0, 63, 39
4, 3719, Note_on_c, 0, 63, 0
4, 3719, Note_on_c, 0, 61, 0
4, 3720, Note_on_c, 0, 61, 38
4, 3720, Note_on_c, 0, 63, 38
4, 3839, Note_on_c, 0, 63, 0
4, 3839, Note_on_c, 0, 61, 0
4, 3840, Note_on_c, 0, 60, 34
4, 3840, Note_on_c, 0, 63, 34
4, 3959, Note_on_c, 0, 63, 0
4, 3959, Note_on_c, 0, 60, 0
4, 3960, Note_on_c, 0, 63, 44
4, 4199, Note_on_c, 0, 63, 0
4, 4200, Note_on_c, 0, 63, 36
4, 4379, Note_on_c, 0, 63, 0
4, 4380, Note_on_c, 0, 63, 50
4, 4499, Note_on_c, 0, 63, 0
4, 4500, Note_on_c, 0, 63, 44
4, 4619, Note_on_c, 0, 63, 0
4, 4620, Note_on_c, 0, 63, 43
4, 4739, Note_on_c, 0, 63, 0
4, 4740, Note_on_c, 0, 63, 38
4, 4919, Note_on_c, 0, 63, 0
4, 4920, Note_on_c, 0, 63, 44
4, 5159, Note_on_c, 0, 63, 0
4, 5160, Note_on_c, 0, 63, 46
4, 5339, Note_on_c, 0, 63, 0
4, 5340, Note_on_c, 0, 63, 44
4, 5459, Note_on_c, 0, 63, 0
4, 5460, Note_on_c, 0, 63, 42
4, 5579, Note_on_c, 0, 63, 0
4, 5580, Note_on_c, 0, 63, 42
4, 5699, Note_on_c, 0, 63, 0
4, 5700, Note_on_c, 0, 63, 40
4, 5879, Note_on_c, 0, 63, 0
4, 5880, Note_on_c, 0, 63, 40
4, 6119, Note_on_c, 0, 63, 0
4, 6120, Note_on_c, 0, 63, 46
4, 6239, Note_on_c, 0, 63, 0
4, 6240, Note_on_c, 0, 62, 50
4, 6479, Note_on_c, 0, 62, 0
4, 6600, Note_on_c, 0, 62, 66
4, 6719, Note_on_c, 0, 62, 0
4, 6720, Note_on_c, 0, 63, 45
4, 6839, Note_on_c, 0, 63, 0
4, 7080, Note_on_c, 0, 66, 41
4, 7199, Note_on_c, 0, 66, 0
4, 7200, Note_on_c, 0, 63, 47
4, 7319, Note_on_c, 0, 63, 0
4, 7440, Note_on_c, 0, 62, 45
4, 7559, Note_on_c, 0, 62, 0
4, 7680, Note_on_c, 0, 63, 75
4, 7709, Note_on_c, 0, 63, 0
4, 7740, Note_on_c, 0, 63, 66
4, 7769, Note_on_c, 0, 63, 0
4, 7800, Note_on_c, 0, 63, 58
4, 7829, Note_on_c, 0, 63, 0
4, 7860, Note_on_c, 0, 63, 56
4, 7889, Note_on_c, 0, 63, 0
4, 7920, Note_on_c, 0, 63, 51
4, 7949, Note_on_c, 0, 63, 0
4, 7980, Note_on_c, 0, 63, 50
4, 8009, Note_on_c, 0, 63, 0
4, 8040, Note_on_c, 0, 65, 106
4, 8069, Note_on_c, 0, 65, 0
4, 8070, Note_on_c, 0, 63, 85
4, 8099, Note_on_c, 0, 63, 0
4, 8100, Note_on_c, 0, 62, 83
4, 8129, Note_on_c, 0, 62, 0
4, 8130, Note_on_c, 0, 63, 84
4, 8159, Note_on_c, 0, 63, 0
4, 8160, Note_on_c, 0, 70, 73
4, 8189, Note_on_c, 0, 70, 0
4, 8220, Note_on_c, 0, 70, 52
4, 8249, Note_on_c, 0, 70, 0
4, 8280, Note_on_c, 0, 70, 50
4, 8309, Note_on_c, 0, 70, 0
4, 8340, Note_on_c, 0, 70, 47
4, 8369, Note_on_c, 0, 70, 0
4, 8400, Note_on_c, 0, 70, 48
4, 8429, Note_on_c, 0, 70, 0
4, 8460, Note_on_c, 0, 70, 47
4, 8489, Note_on_c, 0, 70, 0
4, 8520, Note_on_c, 0, 72, 107
4, 8549, Note_on_c, 0, 72, 0
4, 8550, Note_on_c, 0, 70, 91
4, 8579, Note_on_c, 0, 70, 0
4, 8580, Note_on_c, 0, 69, 87
4, 8609, Note_on_c, 0, 69, 0
4, 8610, Note_on_c, 0, 70, 89
4, 8639, Note_on_c, 0, 70, 0
4, 8640, Note_on_c, 0, 67, 65
4, 8669, Note_on_c, 0, 67, 0
4, 8700, Note_on_c, 0, 67, 60
4, 8729, Note_on_c, 0, 67, 0
4, 8760, Note_on_c, 0, 72, 64
4, 8789, Note_on_c, 0, 72, 0
4, 8820, Note_on_c, 0, 72, 62
4, 8849, Note_on_c, 0, 72, 0
4, 8880, Note_on_c, 0, 65, 63
4, 8909, Note_on_c, 0, 65, 0
4, 8940, Note_on_c, 0, 65, 62
4, 8969, Note_on_c, 0, 65, 0
4, 9000, Note_on_c, 0, 70, 120
4, 9029, Note_on_c, 0, 70, 0
4, 9060, Note_on_c, 0, 70, 115
4, 9089, Note_on_c, 0, 70, 0
4, 9120, Note_on_c, 0, 67, 65
4, 9149, Note_on_c, 0, 67, 0
4, 9180, Note_on_c, 0, 67, 60
4, 9209, Note_on_c, 0, 67, 0
4, 9240, Note_on_c, 0, 72, 64
4, 9269, Note_on_c, 0, 72, 0
4, 9300, Note_on_c, 0, 72, 62
4, 9329, Note_on_c, 0, 72, 0
4, 9360, Note_on_c, 0, 65, 63
4, 9389, Note_on_c, 0, 65, 0
4, 9420, Note_on_c, 0, 65, 62
4, 9449, Note_on_c, 0, 65, 0
4, 9480, Note_on_c, 0, 70, 118
4, 9509, Note_on_c, 0, 70, 0
4, 9540, Note_on_c, 0, 70, 113
4, 9569, Note_on_c, 0, 70, 0
4, 9600, Note_on_c, 0, 67, 59
4, 9629, Note_on_c, 0, 67, 0
4, 9660, Note_on_c, 0, 68, 65
4, 9689, Note_on_c, 0, 68, 0
4, 9720, Note_on_c, 0, 67, 65
4, 9749, Note_on_c, 0, 67, 0
4, 9780, Note_on_c, 0, 65, 63
4, 9809, Note_on_c, 0, 65, 0
4, 9840, Note_on_c, 0, 63, 59
4, 9869, Note_on_c, 0, 63, 0
4, 9900, Note_on_c, 0, 65, 61
4, 9929, Note_on_c, 0, 65, 0
4, 9960, Note_on_c, 0, 63, 59
4, 9989, Note_on_c, 0, 63, 0
4, 10020, Note_on_c, 0, 62, 58
4, 10049, Note_on_c, 0, 62, 0
4, 10080, Note_on_c, 0, 60, 58
4, 10109, Note_on_c, 0, 60, 0
4, 10140, Note_on_c, 0, 62, 57
4, 10169, Note_on_c, 0, 62, 0
4, 10200, Note_on_c, 0, 63, 57
4, 10229, Note_on_c, 0, 63, 0
4, 10260, Note_on_c, 0, 65, 58
4, 10289, Note_on_c, 0, 65, 0
4, 10320, Note_on_c, 0, 66, 59
4, 10349, Note_on_c, 0, 66, 0
4, 10380, Note_on_c, 0, 67, 62
4, 10409, Note_on_c, 0, 67, 0
4, 10440, Note_on_c, 0, 68, 70
4, 10469, Note_on_c, 0, 68, 0
4, 10500, Note_on_c, 0, 69, 67
4, 10529, Note_on_c, 0, 69, 0
4, 10560, Note_on_c, 0, 70, 62
4, 10589, Note_on_c, 0, 70, 0
4, 10680, Note_on_c, 0, 70, 118
4, 10690, Control_c, 0, 11, 98
4, 10700, Control_c, 0, 11, 99
4, 10710, Control_c, 0, 11, 101
4, 10730, Control_c, 0, 11, 103
4, 10740, Control_c, 0, 11, 105
4, 10750, Control_c, 0, 11, 107
4, 10760, Control_c, 0, 11, 109
4, 10770, Control_c, 0, 11, 111
4, 10780, Control_c, 0, 11, 112
4, 10790, Control_c, 0, 11, 113
4, 10800, Control_c, 0, 11, 115
4, 10810, Control_c, 0, 11, 116
4, 10820, Control_c, 0, 11, 119
4, 10830, Control_c, 0, 11, 121
4, 10840, Control_c, 0, 11, 123
4, 10850, Control_c, 0, 11, 125
4, 10870, Control_c, 0, 11, 126
4, 10880, Control_c, 0, 11, 127
4, 10919, Note_on_c, 0, 70, 0
4, 10920, Note_on_c, 0, 69, 61
4, 11039, Note_on_c, 0, 69, 0
4, 11160, Note_on_c, 0, 70, 114
4, 11170, Control_c, 0, 11, 98
4, 11190, Control_c, 0, 11, 100
4, 11210, Control_c, 0, 11, 103
4, 11220, Control_c, 0, 11, 106
4, 11230, Control_c, 0, 11, 107
4, 11240, Control_c, 0, 11, 108
4, 11250, Control_c, 0, 11, 110
4, 11260, Control_c, 0, 11, 112
4, 11270, Control_c, 0, 11, 113
4, 11280, Control_c, 0, 11, 114
4, 11290, Control_c, 0, 11, 116
4, 11300, Control_c, 0, 11, 117
4, 11310, Control_c, 0, 11, 118
4, 11330, Control_c, 0, 11, 121
4, 11340, Control_c, 0, 11, 122
4, 11350, Control_c, 0, 11, 124
4, 11370, Control_c, 0, 11, 126
4, 11380, Control_c, 0, 11, 127
4, 11399, Note_on_c, 0, 70, 0
4, 11400, Note_on_c, 0, 69, 59
4, 11519, Note_on_c, 0, 69, 0
4, 11520, Note_on_c, 0, 70, 61
4, 11549, Note_on_c, 0, 70, 0
4, 11580, Note_on_c, 0, 70, 64
4, 11609, Note_on_c, 0, 70, 0
4, 11640, Note_on_c, 0, 79, 56
4, 11669, Note_on_c, 0, 79, 0
4, 11700, Note_on_c, 0, 79, 58
4, 11729, Note_on_c, 0, 79, 0
4, 11760, Note_on_c, 0, 72, 62
4, 11789, Note_on_c, 0, 72, 0
4, 11820, Note_on_c, 0, 72, 66
4, 11849, Note_on_c, 0, 72, 0
4, 11880, Note_on_c, 0, 77, 118
4, 11909, Note_on_c, 0, 77, 0
4, 11940, Note_on_c, 0, 77, 115
4, 11969, Note_on_c, 0, 77, 0
4, 12000, Note_on_c, 0, 74, 54
4, 12029, Note_on_c, 0, 74, 0
4, 12060, Note_on_c, 0, 74, 56
4, 12089, Note_on_c, 0, 74, 0
4, 12120, Note_on_c, 0, 77, 56
4, 12149, Note_on_c, 0, 77, 0
4, 12180, Note_on_c, 0, 77, 58
4, 12209, Note_on_c, 0, 77, 0
4, 12240, Note_on_c, 0, 70, 62
4, 12269, Note_on_c, 0, 70, 0
4, 12300, Note_on_c, 0, 70, 62
4, 12329, Note_on_c, 0, 70, 0
4, 12360, Note_on_c, 0, 75, 118
4, 12389, Note_on_c, 0, 75, 0
4, 12420, Note_on_c, 0, 75, 113
4, 12449, Note_on_c, 0, 75, 0
4, 12480, Note_on_c, 0, 75, 65
4, 12599, Note_on_c, 0, 75, 0
4, 12600, Note_on_c, 0, 74, 64
4, 12659, Note_on_c, 0, 74, 0
4, 12660, Note_on_c, 0, 72, 61
4, 12719, Note_on_c, 0, 72, 0
4, 12720, Note_on_c, 0, 70, 59
4, 12779, Note_on_c, 0, 70, 0
4, 12780, Note_on_c, 0, 68, 61
4, 12839, Note_on_c, 0, 68, 0
4, 12840, Note_on_c, 0, 67, 62
4, 12899, Note_on_c, 0, 67, 0
4, 12900, Note_on_c, 0, 65, 60
4, 12959, Note_on_c, 0, 65, 0
4, 12960, Note_on_c, 0, 63, 59
4, 13079, Note_on_c, 0, 63, 0
4, 13080, Note_on_c, 0, 67, 66
4, 13319, Note_on_c, 0, 67, 0
4, 13320, Note_on_c, 0, 67, 71
4, 13439, Note_on_c, 0, 67, 0
4, 13440, Note_on_c, 0, 65, 67
4, 13619, Note_on_c, 0, 65, 0
4, 13620, Note_on_c, 0, 63, 60
4, 13679, Note_on_c, 0, 63, 0
4, 13680, Note_on_c, 0, 62, 60
4, 13919, Note_on_c, 0, 62, 0
4, 13920, Note_on_c, 0, 63, 68
4, 13979, Note_on_c, 0, 63, 0
4, 14040, Note_on_c, 0, 67, 55
4, 14060, Note_on_c, 0, 68, 56
4, 14069, Note_on_c, 0, 67, 0
4, 14080, Note_on_c, 0, 67, 55
4, 14089, Note_on_c, 0, 68, 0
4, 14100, Note_on_c, 0, 65, 54
4, 14109, Note_on_c, 0, 67, 0
4, 14129, Note_on_c, 0, 65, 0
4, 14130, Note_on_c, 0, 67, 51
4, 14159, Note_on_c, 0, 67, 0
4, 14160, Note_on_c, 0, 68, 52
4, 14189, Note_on_c, 0, 68, 0
4, 14220, Note_on_c, 0, 68, 54
4, 14249, Note_on_c, 0, 68, 0
4, 14280, Note_on_c, 0, 65, 113
4, 14309, Note_on_c, 0, 65, 0
4, 14340, Note_on_c, 0, 65, 111
4, 14369, Note_on_c, 0, 65, 0
4, 14400, Note_on_c, 0, 70, 58
4, 14429, Note_on_c, 0, 70, 0
4, 14460, Note_on_c, 0, 70, 56
4, 14489, Note_on_c, 0, 70, 0
4, 14520, Note_on_c, 0, 67, 56
4, 14540, Note_on_c, 0, 68, 56
4, 14549, Note_on_c, 0, 67, 0
4, 14560, Note_on_c, 0, 67, 56
4, 14569, Note_on_c, 0, 68, 0
4, 14580, Note_on_c, 0, 65, 54
4, 14589, Note_on_c, 0, 67, 0
4, 14609, Note_on_c, 0, 65, 0
4, 14610, Note_on_c, 0, 67, 56
4, 14639, Note_on_c, 0, 67, 0
4, 14640, Note_on_c, 0, 68, 56
4, 14669, Note_on_c, 0, 68, 0
4, 14700, Note_on_c, 0, 68, 56
4, 14729, Note_on_c, 0, 68, 0
4, 14760, Note_on_c, 0, 65, 111
4, 14789, Note_on_c, 0, 65, 0
4, 14820, Note_on_c, 0, 65, 107
4, 14849, Note_on_c, 0, 65, 0
4, 14880, Note_on_c, 0, 67, 67
4, 14909, Note_on_c, 0, 67, 0
4, 14940, Note_on_c, 0, 67, 56
4, 14969, Note_on_c, 0, 67, 0
4, 15000, Note_on_c, 0, 69, 54
4, 15029, Note_on_c, 0, 69, 0
4, 15060, Note_on_c, 0, 69, 56
4, 15089, Note_on_c, 0, 69, 0
4, 15120, Note_on_c, 0, 69, 58
4, 15149, Note_on_c, 0, 69, 0
4, 15180, Note_on_c, 0, 69, 59
4, 15209, Note_on_c, 0, 69, 0
4, 15240, Note_on_c, 0, 70, 59
4, 15269, Note_on_c, 0, 70, 0
4, 15300, Note_on_c, 0, 70, 59
4, 15329, Note_on_c, 0, 70, 0
4, 15360, Note_on_c, 0, 70, 62
4, 15389, Note_on_c, 0, 70, 0
4, 15420, Note_on_c, 0, 70, 61
4, 15449, Note_on_c, 0, 70, 0
4, 15480, Note_on_c, 0, 70, 86
4, 15509, Note_on_c, 0, 70, 0
4, 15540, Note_on_c, 0, 70, 84
4, 15569, Note_on_c, 0, 70, 0
4, 15600, Note_on_c, 0, 63, 62
4, 15629, Note_on_c, 0, 63, 0
4, 15660, Note_on_c, 0, 63, 59
4, 15689, Note_on_c, 0, 63, 0
4, 15720, Note_on_c, 0, 65, 57
4, 15749, Note_on_c, 0, 65, 0
4, 15780, Note_on_c, 0, 63, 58
4, 15809, Note_on_c, 0, 63, 0
4, 15840, Note_on_c, 0, 62, 66
4, 15959, Note_on_c, 0, 62, 0
4, 15960, Note_on_c, 0, 65, 66
4, 16079, Note_on_c, 0, 65, 0
4, 16080, Note_on_c, 0, 70, 66
4, 16439, Note_on_c, 0, 70, 0
4, 16440, Note_on_c, 0, 69, 70
4, 16499, Note_on_c, 0, 69, 0
4, 16500, Note_on_c, 0, 67, 70
4, 16559, Note_on_c, 0, 67, 0
4, 16560, Note_on_c, 0, 65, 67
4, 16619, Note_on_c, 0, 65, 0
4, 16620, Note_on_c, 0, 63, 62
4, 16679, Note_on_c, 0, 63, 0
4, 16680, Note_on_c, 0, 62, 60
4, 16739, Note_on_c, 0, 62, 0
4, 16740, Note_on_c, 0, 60, 57
4, 16799, Note_on_c, 0, 60, 0
4, 16800, Note_on_c, 0, 58, 59
4, 16859, Note_on_c, 0, 58, 0
4, 16920, Note_on_c, 0, 70, 118
4, 17159, Note_on_c, 0, 70, 0
4, 17160, Note_on_c, 0, 69, 70
4, 17189, Note_on_c, 0, 69, 0
4, 17400, Note_on_c, 0, 70, 117
4, 17639, Note_on_c, 0, 70, 0
4, 17640, Note_on_c, 0, 69, 67
4, 17669, Note_on_c, 0, 69, 0
4, 17760, Note_on_c, 0, 70, 55
4, 17789, Note_on_c, 0, 70, 0
4, 17820, Note_on_c, 0, 70, 56
4, 17849, Note_on_c, 0, 70, 0
4, 17880, Note_on_c, 0, 70, 56
4, 17909, Note_on_c, 0, 70, 0
4, 17940, Note_on_c, 0, 70, 56
4, 17969, Note_on_c, 0, 70, 0
4, 18000, Note_on_c, 0, 69, 58
4, 18029, Note_on_c, 0, 69, 0
4, 18060, Note_on_c, 0, 69, 56
4, 18089, Note_on_c, 0, 69, 0
4, 18120, Note_on_c, 0, 68, 56
4, 18149, Note_on_c, 0, 68, 0
4, 18180, Note_on_c, 0, 68, 58
4, 18209, Note_on_c, 0, 68, 0
4, 18240, Note_on_c, 0, 67, 56
4, 18269, Note_on_c, 0, 67, 0
4, 18300, Note_on_c, 0, 67, 56
4, 18329, Note_on_c, 0, 67, 0
4, 18360, Note_on_c, 0, 66, 60
4, 18389, Note_on_c, 0, 66, 0
4, 18420, Note_on_c, 0, 66, 59
4, 18449, Note_on_c, 0, 66, 0
4, 18480, Note_on_c, 0, 65, 61
4, 18509, Note_on_c, 0, 65, 0
4, 18540, Note_on_c, 0, 65, 57
4, 18569, Note_on_c, 0, 65, 0
4, 18600, Note_on_c, 0, 70, 57
4, 18629, Note_on_c, 0, 70, 0
4, 18660, Note_on_c, 0, 70, 58
4, 18689, Note_on_c, 0, 70, 0
4, 18720, Note_on_c, 0, 67, 104
4, 18749, Note_on_c, 0, 67, 0
4, 18780, Note_on_c, 0, 75, 106
4, 18809, Note_on_c, 0, 75, 0
4, 18840, Note_on_c, 0, 75, 116
4, 18869, Note_on_c, 0, 75, 0
4, 18900, Note_on_c, 0, 75, 118
4, 18929, Note_on_c, 0, 75, 0
4, 18960, Note_on_c, 0, 75, 116
4, 18989, Note_on_c, 0, 75, 0
4, 19020, Note_on_c, 0, 75, 102
4, 19049, Note_on_c, 0, 75, 0
4, 19080, Note_on_c, 0, 77, 108
4, 19109, Note_on_c, 0, 77, 0
4, 19110, Note_on_c, 0, 75, 108
4, 19139, Note_on_c, 0, 75, 0
4, 19140, Note_on_c, 0, 74, 114
4, 19169, Note_on_c, 0, 74, 0
4, 19170, Note_on_c, 0, 75, 116
4, 19199, Note_on_c, 0, 75, 0
4, 19200, Note_on_c, 0, 82, 120
4, 19229, Note_on_c, 0, 82, 0
4, 19260, Note_on_c, 0, 82, 118
4, 19289, Note_on_c, 0, 82, 0
4, 19320, Note_on_c, 0, 82, 118
4, 19349, Note_on_c, 0, 82, 0
4, 19380, Note_on_c, 0, 82, 118
4, 19409, Note_on_c, 0, 82, 0
4, 19440, Note_on_c, 0, 82, 119
4, 19469, Note_on_c, 0, 82, 0
4, 19500, Note_on_c, 0, 82, 120
4, 19529, Note_on_c, 0, 82, 0
4, 19560, Note_on_c, 0, 84, 122
4, 19589, Note_on_c, 0, 84, 0
4, 19590, Note_on_c, 0, 82, 119
4, 19619, Note_on_c, 0, 82, 0
4, 19620, Note_on_c, 0, 81, 117
4, 19649, Note_on_c, 0, 81, 0
4, 19650, Note_on_c, 0, 82, 119
4, 19679, Note_on_c, 0, 82, 0
4, 19680, Note_on_c, 0, 79, 121
4, 19799, Note_on_c, 0, 79, 0
4, 19920, Note_on_c, 0, 79, 126
4, 20159, Note_on_c, 0, 79, 0
4, 20160, Note_on_c, 0, 77, 120
4, 20339, Note_on_c, 0, 77, 0
4, 20340, Note_on_c, 0, 75, 117
4, 20399, Note_on_c, 0, 75, 0
4, 20400, Note_on_c, 0, 74, 116
4, 20459, Note_on_c, 0, 74, 0
4, 20460, Note_on_c, 0, 77, 110
4, 20519, Note_on_c, 0, 77, 0
4, 20520, Note_on_c, 0, 75, 116
4, 20579, Note_on_c, 0, 75, 0
4, 20580, Note_on_c, 0, 74, 118
4, 20639, Note_on_c, 0, 74, 0
4, 22080, Note_on_c, 0, 72, 95
4, 22109, Note_on_c, 0, 72, 0
4, 22140, Note_on_c, 0, 72, 91
4, 22229, Note_on_c, 0, 72, 0
4, 22260, Note_on_c, 0, 72, 94
4, 22319, Note_on_c, 0, 72, 0
4, 22320, Note_on_c, 0, 74, 95
4, 22349, Note_on_c, 0, 74, 0
4, 22380, Note_on_c, 0, 74, 95
4, 22469, Note_on_c, 0, 74, 0
4, 22500, Note_on_c, 0, 74, 95
4, 22559, Note_on_c, 0, 74, 0
4, 24000, Note_on_c, 0, 65, 121
4, 24000, Note_on_c, 0, 74, 121
4, 24239, Note_on_c, 0, 74, 0
4, 24239, Note_on_c, 0, 65, 0
4, 24240, Note_on_c, 0, 65, 119
4, 24240, Note_on_c, 0, 74, 119
4, 24479, Note_on_c, 0, 74, 0
4, 24479, Note_on_c, 0, 65, 0
4, 24480, Note_on_c, 0, 81, 118
4, 24480, Note_on_c, 0, 72, 118
4, 24509, Note_on_c, 0, 72, 0
4, 24509, Note_on_c, 0, 81, 0
4, 24540, Note_on_c, 0, 72, 112
4, 24540, Note_on_c, 0, 81, 112
4, 24629, Note_on_c, 0, 81, 0
4, 24629, Note_on_c, 0, 72, 0
4, 24660, Note_on_c, 0, 72, 118
4, 24660, Note_on_c, 0, 81, 118
4, 24749, Note_on_c, 0, 81, 0
4, 24779, Note_on_c, 0, 72, 0
4, 24780, Note_on_c, 0, 72, 118
4, 24780, Note_on_c, 0, 81, 118
4, 24869, Note_on_c, 0, 81, 0
4, 24869, Note_on_c, 0, 72, 0
4, 24900, Note_on_c, 0, 81, 114
4, 24900, Note_on_c, 0, 72, 114
4, 24929, Note_on_c, 0, 72, 0
4, 24929, Note_on_c, 0, 81, 0
4, 24960, Note_on_c, 0, 72, 118
4, 24960, Note_on_c, 0, 81, 118
4, 24989, Note_on_c, 0, 81, 0
4, 24989, Note_on_c, 0, 72, 0
4, 25080, Note_on_c, 0, 70, 117
4, 25080, Note_on_c, 0, 82, 117
4, 25109, Note_on_c, 0, 82, 0
4, 25109, Note_on_c, 0, 70, 0
4, 25200, Note_on_c, 0, 84, 119
4, 25200, Note_on_c, 0, 75, 119
4, 25229, Note_on_c, 0, 75, 0
4, 25229, Note_on_c, 0, 84, 0
4, 25320, Note_on_c, 0, 74, 114
4, 25320, Note_on_c, 0, 82, 114
4, 25349, Note_on_c, 0, 82, 0
4, 25349, Note_on_c, 0, 74, 0
4, 25430, Control_c, 0, 10, 33
4, 25440, Note_on_c, 0, 81, 115
4, 25440, Note_on_c, 0, 72, 115
4, 25450, Control_c, 0, 10, 32
4, 25460, Control_c, 0, 10, 31
4, 25469, Note_on_c, 0, 72, 0
4, 25469, Note_on_c, 0, 81, 0
4, 25470, Control_c, 0, 10, 30
4, 25500, Note_on_c, 0, 77, 98
4, 25529, Note_on_c, 0, 77, 0
4, 25560, Note_on_c, 0, 77, 91
4, 25589, Note_on_c, 0, 77, 0
4, 25620, Note_on_c, 0, 77, 94
4, 25649, Note_on_c, 0, 77, 0
4, 25680, Note_on_c, 0, 77, 98
4, 25709, Note_on_c, 0, 77, 0
4, 25740, Note_on_c, 0, 77, 97
4, 25769, Note_on_c, 0, 77, 0
4, 25800, Note_on_c, 0, 79, 108
4, 25829, Note_on_c, 0, 79, 0
4, 25830, Note_on_c, 0, 77, 103
4, 25859, Note_on_c, 0, 77, 0
4, 25860, Note_on_c, 0, 76, 102
4, 25889, Note_on_c, 0, 76, 0
4, 25890, Note_on_c, 0, 77, 109
4, 25919, Note_on_c, 0, 77, 0
4, 25920, Note_on_c, 0, 76, 113
4, 25949, Note_on_c, 0, 76, 0
4, 25980, Note_on_c, 0, 76, 113
4, 26069, Note_on_c, 0, 76, 0
4, 26100, Note_on_c, 0, 76, 115
4, 26189, Note_on_c, 0, 76, 0
4, 26220, Note_on_c, 0, 76, 116
4, 26309, Note_on_c, 0, 76, 0
4, 26340, Note_on_c, 0, 76, 114
4, 26390, Control_c, 0, 10, 127
4, 26399, Note_on_c, 0, 76, 0
4, 26400, Note_on_c, 0, 77, 109
4, 26410, Control_c, 0, 10, 126
4, 26429, Note_on_c, 0, 77, 0
4, 26460, Note_on_c, 0, 77, 105
4, 26489, Note_on_c, 0, 77, 0
4, 26520, Note_on_c, 0, 77, 111
4, 26549, Note_on_c, 0, 77, 0
4, 26580, Note_on_c, 0, 77, 103
4, 26609, Note_on_c, 0, 77, 0
4, 26640, Note_on_c, 0, 77, 110
4, 26669, Note_on_c, 0, 77, 0
4, 26700, Note_on_c, 0, 77, 104
4, 26729, Note_on_c, 0, 77, 0
4, 26760, Note_on_c, 0, 79, 113
4, 26789, Note_on_c, 0, 79, 0
4, 26790, Note_on_c, 0, 77, 106
4, 26819, Note_on_c, 0, 77, 0
4, 26820, Note_on_c, 0, 76, 103
4, 26849, Note_on_c, 0, 76, 0
4, 26850, Note_on_c, 0, 77, 105
4, 26879, Note_on_c, 0, 77, 0
4, 26880, Note_on_c, 0, 76, 112
4, 26909, Note_on_c, 0, 76, 0
4, 26940, Note_on_c, 0, 76, 116
4, 27029, Note_on_c, 0, 76, 0
4, 27060, Note_on_c, 0, 76, 120
4, 27149, Note_on_c, 0, 76, 0
4, 27180, Note_on_c, 0, 76, 119
4, 27269, Note_on_c, 0, 76, 0
4, 27300, Note_on_c, 0, 76, 113
4, 27359, Note_on_c, 0, 76, 0
4, 27360, Note_on_c, 0, 77, 107
4, 27370, Control_c, 0, 10, 79
4, 27419, Note_on_c, 0, 77, 0
4, 27420, Note_on_c, 0, 77, 91
4, 27449, Note_on_c, 0, 77, 0
4, 27480, Note_on_c, 0, 77, 95
4, 27509, Note_on_c, 0, 77, 0
4, 27540, Note_on_c, 0, 77, 89
4, 27569, Note_on_c, 0, 77, 0
4, 27600, Note_on_c, 0, 77, 91
4, 27629, Note_on_c, 0, 77, 0
4, 27660, Note_on_c, 0, 77, 85
4, 27689, Note_on_c, 0, 77, 0
4, 27720, Note_on_c, 0, 79, 92
4, 27749, Note_on_c, 0, 79, 0
4, 27750, Note_on_c, 0, 77, 91
4, 27779, Note_on_c, 0, 77, 0
4, 27780, Note_on_c, 0, 76, 89
4, 27809, Note_on_c, 0, 76, 0
4, 27810, Note_on_c, 0, 77, 87
4, 27839, Note_on_c, 0, 77, 0
4, 27840, Note_on_c, 0, 77, 91
4, 27959, Note_on_c, 0, 77, 0
4, 28080, Note_on_c, 0, 77, 59
4, 28199, Note_on_c, 0, 77, 0
4, 28320, Note_on_c, 0, 75, 61
4, 28439, Note_on_c, 0, 75, 0
4, 28800, Note_on_c, 0, 75, 58
4, 28919, Note_on_c, 0, 75, 0
4, 29040, Note_on_c, 0, 75, 57
4, 29159, Note_on_c, 0, 75, 0
4, 29280, Note_on_c, 0, 74, 57
4, 29399, Note_on_c, 0, 74, 0
4, 29760, Note_on_c, 0, 74, 59
4, 29879, Note_on_c, 0, 74, 0
4, 30000, Note_on_c, 0, 74, 55
4, 30119, Note_on_c, 0, 74, 0
4, 30240, Note_on_c, 0, 72, 49
4, 30359, Note_on_c, 0, 72, 0
4, 30480, Note_on_c, 0, 57, 46
4, 30599, Note_on_c, 0, 57, 0
4, 30840, Note_on_c, 0, 58, 41
4, 30959, Note_on_c, 0, 58, 0
4, 31080, Note_on_c, 0, 70, 42
4, 31199, Note_on_c, 0, 70, 0
4, 31320, Note_on_c, 0, 72, 35
4, 31439, Note_on_c, 0, 72, 0
4, 31560, Note_on_c, 0, 57, 34
4, 31679, Note_on_c, 0, 57, 0
4, 31800, Note_on_c, 0, 58, 34
4, 31919, Note_on_c, 0, 58, 0
4, 32040, Note_on_c, 0, 70, 42
4, 32159, Note_on_c, 0, 70, 0
4, 32280, Note_on_c, 0, 72, 36
4, 32399, Note_on_c, 0, 72, 0
4, 32520, Note_on_c, 0, 57, 42
4, 32639, Note_on_c, 0, 57, 0
4, 32640, Note_on_c, 0, 77, 119
4, 32669, Note_on_c, 0, 77, 0
4, 32700, Note_on_c, 0, 77, 116
4, 32729, Note_on_c, 0, 77, 0
4, 32760, Note_on_c, 0, 77, 112
4, 32789, Note_on_c, 0, 77, 0
4, 32820, Note_on_c, 0, 77, 113
4, 32849, Note_on_c, 0, 77, 0
4, 32880, Note_on_c, 0, 77, 121
4, 32909, Note_on_c, 0, 77, 0
4, 32940, Note_on_c, 0, 77, 115
4, 32969, Note_on_c, 0, 77, 0
4, 33000, Note_on_c, 0, 77, 112
4, 33029, Note_on_c, 0, 77, 0
4, 33060, Note_on_c, 0, 77, 113
4, 33089, Note_on_c, 0, 77, 0
4, 33120, Note_on_c, 0, 78, 107
4, 33209, Note_on_c, 0, 78, 0
4, 33240, Note_on_c, 0, 75, 125
4, 33479, Note_on_c, 0, 75, 0
4, 33480, Note_on_c, 0, 74, 81
4, 33539, Note_on_c, 0, 74, 0
4, 33600, Note_on_c, 0, 82, 105
4, 33689, Note_on_c, 0, 82, 0
4, 33720, Note_on_c, 0, 73, 125
4, 33959, Note_on_c, 0, 73, 0
4, 33960, Note_on_c, 0, 72, 77
4, 34019, Note_on_c, 0, 72, 0
4, 34080, Note_on_c, 0, 80, 103
4, 34169, Note_on_c, 0, 80, 0
4, 34200, Note_on_c, 0, 70, 119
4, 34200, Note_on_c, 0, 65, 119
4, 34439, Note_on_c, 0, 65, 0
4, 34439, Note_on_c, 0, 70, 0
4, 34440, Note_on_c, 0, 67, 73
4, 34440, Note_on_c, 0, 70, 71
4, 34499, Note_on_c, 0, 70, 0
4, 34499, Note_on_c, 0, 67, 0
4, 34680, Note_on_c, 0, 70, 119
4, 34739, Note_on_c, 0, 70, 0
4, 34920, Note_on_c, 0, 70, 118
4, 34979, Note_on_c, 0, 70, 0
4, 35160, Note_on_c, 0, 67, 115
4, 35219, Note_on_c, 0, 67, 0
4, 35400, Note_on_c, 0, 65, 117
4, 35459, Note_on_c, 0, 65, 0
4, 35640, Note_on_c, 0, 58, 54
4, 35699, Note_on_c, 0, 58, 0
4, 35880, Note_on_c, 0, 70, 57
4, 35939, Note_on_c, 0, 70, 0
4, 36120, Note_on_c, 0, 72, 54
4, 36179, Note_on_c, 0, 72, 0
4, 36360, Note_on_c, 0, 57, 50
4, 36419, Note_on_c, 0, 57, 0
4, 36600, Note_on_c, 0, 58, 54
4, 36659, Note_on_c, 0, 58, 0
4, 36840, Note_on_c, 0, 70, 48
4, 36899, Note_on_c, 0, 70, 0
4, 37080, Note_on_c, 0, 72, 47
4, 37139, Note_on_c, 0, 72, 0
4, 37320, Note_on_c, 0, 57, 43
4, 37379, Note_on_c, 0, 57, 0
4, 37440, Note_on_c, 0, 77, 117
4, 37469, Note_on_c, 0, 77, 0
4, 37500, Note_on_c, 0, 77, 119
4, 37529, Note_on_c, 0, 77, 0
4, 37560, Note_on_c, 0, 77, 114
4, 37589, Note_on_c, 0, 77, 0
4, 37620, Note_on_c, 0, 77, 109
4, 37649, Note_on_c, 0, 77, 0
4, 37680, Note_on_c, 0, 77, 109
4, 37709, Note_on_c, 0, 77, 0
4, 37770, Note_on_c, 0, 77, 111
4, 37799, Note_on_c, 0, 77, 0
4, 37800, Note_on_c, 0, 77, 112
4, 37829, Note_on_c, 0, 77, 0
4, 37860, Note_on_c, 0, 77, 115
4, 37889, Note_on_c, 0, 77, 0
4, 37920, Note_on_c, 0, 78, 119
4, 37949, Note_on_c, 0, 78, 0
4, 38040, Note_on_c, 0, 75, 126
4, 38279, Note_on_c, 0, 75, 0
4, 38280, Note_on_c, 0, 74, 81
4, 38339, Note_on_c, 0, 74, 0
4, 38400, Note_on_c, 0, 82, 117
4, 38429, Note_on_c, 0, 82, 0
4, 38520, Note_on_c, 0, 73, 124
4, 38729, Note_on_c, 0, 73, 0
4, 38760, Note_on_c, 0, 72, 67
4, 38789, Note_on_c, 0, 72, 0
4, 38880, Note_on_c, 0, 80, 110
4, 38909, Note_on_c, 0, 80, 0
4, 39000, Note_on_c, 0, 65, 121
4, 39000, Note_on_c, 0, 70, 121
4, 39239, Note_on_c, 0, 70, 0
4, 39239, Note_on_c, 0, 65, 0
4, 39240, Note_on_c, 0, 67, 77
4, 39269, Note_on_c, 0, 67, 0
4, 39480, Note_on_c, 0, 63, 119
4, 39599, Note_on_c, 0, 63, 0
4, 39720, Note_on_c, 0, 61, 118
4, 39839, Note_on_c, 0, 61, 0
4, 39960, Note_on_c, 0, 60, 115
4, 40079, Note_on_c, 0, 60, 0
4, 40200, Note_on_c, 0, 57, 113
4, 40319, Note_on_c, 0, 57, 0
4, 40320, Note_on_c, 0, 77, 54
4, 40349, Note_on_c, 0, 77, 0
4, 40380, Note_on_c, 0, 77, 55
4, 40469, Note_on_c, 0, 77, 0
4, 40500, Note_on_c, 0, 77, 53
4, 40589, Note_on_c, 0, 77, 0
4, 40620, Note_on_c, 0, 77, 51
4, 40709, Note_on_c, 0, 77, 0
4, 40740, Note_on_c, 0, 77, 55
4, 40859, Note_on_c, 0, 77, 0
4, 40860, Note_on_c, 0, 77, 61
4, 40949, Note_on_c, 0, 77, 0
4, 40980, Note_on_c, 0, 77, 59
4, 41069, Note_on_c, 0, 77, 0
4, 41100, Note_on_c, 0, 77, 57
4, 41189, Note_on_c, 0, 77, 0
4, 41220, Note_on_c, 0, 77, 66
4, 41309, Note_on_c, 0, 77, 0
4, 41340, Note_on_c, 0, 77, 69
4, 41429, Note_on_c, 0, 77, 0
4, 41460, Note_on_c, 0, 77, 69
4, 41549, Note_on_c, 0, 77, 0
4, 41580, Note_on_c, 0, 77, 81
4, 41669, Note_on_c, 0, 77, 0
4, 41700, Note_on_c, 0, 77, 84
4, 41789, Note_on_c, 0, 77, 0
4, 41820, Note_on_c, 0, 77, 86
4, 41909, Note_on_c, 0, 77, 0
4, 41940, Note_on_c, 0, 77, 86
4, 42029, Note_on_c, 0, 77, 0
4, 42060, Note_on_c, 0, 77, 82
4, 42149, Note_on_c, 0, 77, 0
4, 42180, Note_on_c, 0, 77, 87
4, 42239, Note_on_c, 0, 77, 0
4, 44160, Note_on_c, 0, 82, 106
4, 44219, Note_on_c, 0, 82, 0
4, 44280, Note_on_c, 0, 82, 121
4, 44280, Note_on_c, 0, 74, 121
4, 44399, Note_on_c, 0, 74, 0
4, 44399, Note_on_c, 0, 82, 0
4, 44520, Note_on_c, 0, 77, 119
4, 44520, Note_on_c, 0, 70, 119
4, 44639, Note_on_c, 0, 70, 0
4, 44639, Note_on_c, 0, 77, 0
4, 44760, Note_on_c, 0, 65, 110
4, 44760, Note_on_c, 0, 74, 110
4, 44849, Note_on_c, 0, 74, 0
4, 44849, Note_on_c, 0, 65, 0
4, 45000, Note_on_c, 0, 62, 116
4, 45000, Note_on_c, 0, 70, 116
4, 45089, Note_on_c, 0, 70, 0
4, 45089, Note_on_c, 0, 62, 0
4, 45600, Note_on_c, 0, 70, 113
4, 45720, Note_on_c, 0, 74, 113
4, 45749, Note_on_c, 0, 70, 0
4, 45839, Note_on_c, 0, 74, 0
4, 45840, Note_on_c, 0, 82, 115
4, 45959, Note_on_c, 0, 82, 0
4, 45960, Note_on_c, 0, 82, 113
4, 46049, Note_on_c, 0, 82, 0
4, 46080, Note_on_c, 0, 82, 117
4, 46439, Note_on_c, 0, 82, 0
4, 46439, End_track
5, 0, Start_track
5, 0, MIDI_port, 0
5, 0, Title_t, "tremolo Strings"
5, 0, Program_c, 1, 44
5, 0, Control_c, 1, 7, 100
5, 0, Control_c, 1, 10, 110
5, 20640, Control_c, 1, 121, 0
5, 20640, Control_c, 1, 0, 0
5, 20640, Program_c, 1, 44
5, 20640, Pitch_bend_c, 1, 8192
5, 20640, Control_c, 1, 91, 60
5, 20640, Control_c, 1, 93, 10
5, 20640, Control_c, 1, 7, 100
5, 20640, Note_on_c, 1, 75, 118
5, 20640, Control_c, 1, 10, 106
5, 20759, Note_on_c, 1, 75, 0
5, 20760, Note_on_c, 1, 79, 121
5, 20879, Note_on_c, 1, 79, 0
5, 20880, Note_on_c, 1, 72, 117
5, 20999, Note_on_c, 1, 72, 0
5, 21000, Note_on_c, 1, 77, 118
5, 21100, Control_c, 1, 10, 26
5, 21110, Control_c, 1, 10, 24
5, 21119, Note_on_c, 1, 77, 0
5, 21120, Note_on_c, 1, 67, 113
5, 21239, Note_on_c, 1, 67, 0
5, 21240, Note_on_c, 1, 75, 119
5, 21359, Note_on_c, 1, 75, 0
5, 21360, Note_on_c, 1, 69, 119
5, 21479, Note_on_c, 1, 69, 0
5, 21480, Note_on_c, 1, 74, 117
5, 21590, Control_c, 1, 10, 112
5, 21599, Note_on_c, 1, 74, 0
5, 21600, Note_on_c, 1, 63, 115
5, 21650, Control_c, 1, 10, 113
5, 21719, Note_on_c, 1, 63, 0
5, 21720, Note_on_c, 1, 72, 121
5, 21839, Note_on_c, 1, 72, 0
5, 21840, Note_on_c, 1, 65, 116
5, 21959, Note_on_c, 1, 65, 0
5, 21960, Note_on_c, 1, 70, 121
5, 22040, Control_c, 1, 10, 28
5, 22079, Note_on_c, 1, 70, 0
5, 22560, Note_on_c, 1, 75, 97
5, 22679, Note_on_c, 1, 75, 0
5, 22680, Note_on_c, 1, 79, 112
5, 22799, Note_on_c, 1, 79, 0
5, 22800, Note_on_c, 1, 77, 106
5, 22919, Note_on_c, 1, 77, 0
5, 22920, Note_on_c, 1, 82, 111
5, 23020, Control_c, 1, 10, 84
5, 23039, Note_on_c, 1, 82, 0
5, 23040, Note_on_c, 1, 79, 106
5, 23040, Control_c, 1, 10, 82
5, 23050, Control_c, 1, 10, 86
5, 23070, Control_c, 1, 10, 88
5, 23159, Note_on_c, 1, 79, 0
5, 23160, Note_on_c, 1, 75, 110
5, 23279, Note_on_c, 1, 75, 0
5, 23280, Note_on_c, 1, 74, 110
5, 23399, Note_on_c, 1, 74, 0
5, 23400, Note_on_c, 1, 79, 105
5, 23519, Note_on_c, 1, 79, 0
5, 23520, Note_on_c, 1, 75, 111
5, 23639, Note_on_c, 1, 75, 0
5, 23640, Note_on_c, 1, 72, 116
5, 23759, Note_on_c, 1, 72, 0
5, 23760, Note_on_c, 1, 70, 110
5, 23879, Note_on_c, 1, 70, 0
5, 23880, Note_on_c, 1, 75, 112
5, 23999, Note_on_c, 1, 75, 0
5, 42240, Note_on_c, 1, 82, 100
5, 42359, Note_on_c, 1, 82, 0
5, 42360, Note_on_c, 1, 83, 101
5, 42479, Note_on_c, 1, 83, 0
5, 42480, Note_on_c, 1, 84, 103
5, 42599, Note_on_c, 1, 84, 0
5, 42600, Note_on_c, 1, 81, 102
5, 42719, Note_on_c, 1, 81, 0
5, 42720, Note_on_c, 1, 82, 105
5, 42839, Note_on_c, 1, 82, 0
5, 42840, Note_on_c, 1, 83, 101
5, 42959, Note_on_c, 1, 83, 0
5, 42960, Note_on_c, 1, 84, 101
5, 43079, Note_on_c, 1, 84, 0
5, 43080, Note_on_c, 1, 81, 101
5, 43199, Note_on_c, 1, 81, 0
5, 43200, Note_on_c, 1, 82, 107
5, 43439, Note_on_c, 1, 82, 0
5, 43440, Note_on_c, 1, 84, 105
5, 43679, Note_on_c, 1, 84, 0
5, 43680, Note_on_c, 1, 82, 107
5, 43919, Note_on_c, 1, 82, 0
5, 43920, Note_on_c, 1, 81, 107
5, 44159, Note_on_c, 1, 81, 0
5, 45120, Note_on_c, 1, 62, 119
5, 45120, Note_on_c, 1, 70, 119
5, 45239, Note_on_c, 1, 70, 0
5, 45239, Note_on_c, 1, 62, 0
5, 45240, Note_on_c, 1, 82, 117
5, 45360, Note_on_c, 1, 77, 108
5, 45389, Note_on_c, 1, 82, 0
5, 45479, Note_on_c, 1, 77, 0
5, 45480, Note_on_c, 1, 74, 108
5, 45599, Note_on_c, 1, 74, 0
5, 45599, End_track
6, 0, Start_track
6, 0, MIDI_port, 0
6, 0, Title_t, "Cello"
6, 0, Program_c, 2, 42
6, 0, Control_c, 2, 7, 100
6, 0, Control_c, 2, 10, 100
6, 480, Control_c, 2, 121, 0
6, 480, Control_c, 2, 0, 0
6, 480, Program_c, 2, 42
6, 480, Pitch_bend_c, 2, 8192
6, 480, Control_c, 2, 7, 100
6, 480, Control_c, 2, 91, 90
6, 480, Control_c, 2, 93, 30
6, 480, Control_c, 2, 10, 100
6, 480, Note_on_c, 2, 51, 125
6, 749, Note_on_c, 2, 51, 0
6, 930, Note_on_c, 2, 60, 117
6, 959, Note_on_c, 2, 60, 0
6, 960, Note_on_c, 2, 60, 124
6, 1229, Note_on_c, 2, 60, 0
6, 1410, Note_on_c, 2, 55, 119
6, 1439, Note_on_c, 2, 55, 0
6, 1440, Note_on_c, 2, 55, 125
6, 1739, Note_on_c, 2, 55, 0
6, 1920, Note_on_c, 2, 44, 61
6, 2129, Note_on_c, 2, 44, 0
6, 2130, Note_on_c, 2, 48, 57
6, 2159, Note_on_c, 2, 48, 0
6, 2160, Note_on_c, 2, 51, 59
6, 2369, Note_on_c, 2, 51, 0
6, 2370, Note_on_c, 2, 48, 57
6, 2399, Note_on_c, 2, 48, 0
6, 2400, Note_on_c, 2, 44, 101
6, 2819, Note_on_c, 2, 44, 0
6, 2880, Note_on_c, 2, 46, 51
6, 3059, Note_on_c, 2, 46, 0
6, 3090, Note_on_c, 2, 49, 48
6, 3120, Note_on_c, 2, 55, 53
6, 3149, Note_on_c, 2, 49, 0
6, 3329, Note_on_c, 2, 55, 0
6, 3330, Note_on_c, 2, 49, 57
6, 3360, Note_on_c, 2, 46, 97
6, 3389, Note_on_c, 2, 49, 0
6, 3749, Note_on_c, 2, 46, 0
6, 3840, Note_on_c, 2, 60, 50
6, 4019, Note_on_c, 2, 60, 0
6, 4050, Note_on_c, 2, 60, 50
6, 4080, Note_on_c, 2, 58, 56
6, 4109, Note_on_c, 2, 60, 0
6, 4259, Note_on_c, 2, 58, 0
6, 4290, Note_on_c, 2, 58, 52
6, 4320, Note_on_c, 2, 56, 58
6, 4349, Note_on_c, 2, 58, 0
6, 4559, Note_on_c, 2, 56, 0
6, 4680, Note_on_c, 2, 58, 52
6, 4799, Note_on_c, 2, 58, 0
6, 4800, Note_on_c, 2, 60, 50
6, 4979, Note_on_c, 2, 60, 0
6, 5010, Note_on_c, 2, 60, 50
6, 5040, Note_on_c, 2, 58, 56
6, 5069, Note_on_c, 2, 60, 0
6, 5219, Note_on_c, 2, 58, 0
6, 5250, Note_on_c, 2, 58, 52
6, 5280, Note_on_c, 2, 57, 58
6, 5309, Note_on_c, 2, 58, 0
6, 5519, Note_on_c, 2, 57, 0
6, 5640, Note_on_c, 2, 58, 52
6, 5759, Note_on_c, 2, 58, 0
6, 5760, Note_on_c, 2, 60, 68
6, 5909, Note_on_c, 2, 60, 0
6, 5970, Note_on_c, 2, 60, 67
6, 6000, Note_on_c, 2, 59, 73
6, 6029, Note_on_c, 2, 60, 0
6, 6149, Note_on_c, 2, 59, 0
6, 6210, Note_on_c, 2, 59, 67
6, 6240, Note_on_c, 2, 58, 71
6, 6269, Note_on_c, 2, 59, 0
6, 6509, Note_on_c, 2, 58, 0
6, 6600, Note_on_c, 2, 58, 99
6, 6719, Note_on_c, 2, 58, 0
6, 6720, Note_on_c, 2, 57, 64
6, 6869, Note_on_c, 2, 57, 0
6, 7080, Note_on_c, 2, 57, 39
6, 7199, Note_on_c, 2, 57, 0
6, 7200, Note_on_c, 2, 58, 41
6, 7289, Note_on_c, 2, 58, 0
6, 7440, Note_on_c, 2, 46, 37
6, 7559, Note_on_c, 2, 46, 0
6, 7680, Note_on_c, 2, 51, 39
6, 7769, Note_on_c, 2, 51, 0
6, 12960, Note_on_c, 2, 51, 50
6, 12989, Note_on_c, 2, 51, 0
6, 13020, Note_on_c, 2, 51, 56
6, 13049, Note_on_c, 2, 51, 0
6, 13080, Note_on_c, 2, 51, 56
6, 13109, Note_on_c, 2, 51, 0
6, 13140, Note_on_c, 2, 51, 52
6, 13169, Note_on_c, 2, 51, 0
6, 13200, Note_on_c, 2, 51, 52
6, 13229, Note_on_c, 2, 51, 0
6, 13260, Note_on_c, 2, 51, 51
6, 13289, Note_on_c, 2, 51, 0
6, 13320, Note_on_c, 2, 53, 98
6, 13349, Note_on_c, 2, 53, 0
6, 13350, Note_on_c, 2, 51, 96
6, 13379, Note_on_c, 2, 51, 0
6, 13380, Note_on_c, 2, 50, 94
6, 13409, Note_on_c, 2, 50, 0
6, 13410, Note_on_c, 2, 51, 96
6, 13439, Note_on_c, 2, 51, 0
6, 13440, Note_on_c, 2, 58, 49
6, 13469, Note_on_c, 2, 58, 0
6, 13500, Note_on_c, 2, 58, 47
6, 13529, Note_on_c, 2, 58, 0
6, 13560, Note_on_c, 2, 58, 51
6, 13589, Note_on_c, 2, 58, 0
6, 13620, Note_on_c, 2, 58, 44
6, 13649, Note_on_c, 2, 58, 0
6, 13680, Note_on_c, 2, 58, 49
6, 13709, Note_on_c, 2, 58, 0
6, 13740, Note_on_c, 2, 58, 45
6, 13769, Note_on_c, 2, 58, 0
6, 13800, Note_on_c, 2, 60, 91
6, 13829, Note_on_c, 2, 60, 0
6, 13830, Note_on_c, 2, 58, 89
6, 13859, Note_on_c, 2, 58, 0
6, 13860, Note_on_c, 2, 57, 87
6, 13889, Note_on_c, 2, 57, 0
6, 13890, Note_on_c, 2, 58, 87
6, 13919, Note_on_c, 2, 58, 0
6, 13920, Note_on_c, 2, 55, 52
6, 13949, Note_on_c, 2, 55, 0
6, 13980, Note_on_c, 2, 55, 54
6, 14009, Note_on_c, 2, 55, 0
6, 14040, Note_on_c, 2, 60, 52
6, 14069, Note_on_c, 2, 60, 0
6, 14100, Note_on_c, 2, 60, 52
6, 14129, Note_on_c, 2, 60, 0
6, 14160, Note_on_c, 2, 53, 51
6, 14189, Note_on_c, 2, 53, 0
6, 14220, Note_on_c, 2, 53, 52
6, 14249, Note_on_c, 2, 53, 0
6, 14280, Note_on_c, 2, 58, 97
6, 14309, Note_on_c, 2, 58, 0
6, 14340, Note_on_c, 2, 58, 96
6, 14369, Note_on_c, 2, 58, 0
6, 14400, Note_on_c, 2, 55, 53
6, 14429, Note_on_c, 2, 55, 0
6, 14460, Note_on_c, 2, 55, 50
6, 14489, Note_on_c, 2, 55, 0
6, 14520, Note_on_c, 2, 60, 52
6, 14549, Note_on_c, 2, 60, 0
6, 14580, Note_on_c, 2, 60, 50
6, 14609, Note_on_c, 2, 60, 0
6, 14640, Note_on_c, 2, 53, 54
6, 14669, Note_on_c, 2, 53, 0
6, 14700, Note_on_c, 2, 53, 48
6, 14729, Note_on_c, 2, 53, 0
6, 14760, Note_on_c, 2, 58, 97
6, 14789, Note_on_c, 2, 58, 0
6, 14820, Note_on_c, 2, 58, 96
6, 14849, Note_on_c, 2, 58, 0
6, 14880, Note_on_c, 2, 51, 51
6, 14909, Note_on_c, 2, 51, 0
6, 14940, Note_on_c, 2, 51, 51
6, 14969, Note_on_c, 2, 51, 0
6, 15000, Note_on_c, 2, 53, 53
6, 15029, Note_on_c, 2, 53, 0
6, 15060, Note_on_c, 2, 53, 55
6, 15089, Note_on_c, 2, 53, 0
6, 15120, Note_on_c, 2, 50, 53
6, 15149, Note_on_c, 2, 50, 0
6, 15180, Note_on_c, 2, 50, 55
6, 15209, Note_on_c, 2, 50, 0
6, 15240, Note_on_c, 2, 55, 55
6, 15269, Note_on_c, 2, 55, 0
6, 15300, Note_on_c, 2, 55, 54
6, 15329, Note_on_c, 2, 55, 0
6, 15360, Note_on_c, 2, 51, 60
6, 15449, Note_on_c, 2, 51, 0
6, 15480, Note_on_c, 2, 58, 87
6, 15719, Note_on_c, 2, 58, 0
6, 15720, Note_on_c, 2, 57, 81
6, 15749, Note_on_c, 2, 57, 0
6, 15840, Note_on_c, 2, 46, 49
6, 15869, Note_on_c, 2, 46, 0
6, 15900, Note_on_c, 2, 46, 50
6, 15929, Note_on_c, 2, 46, 0
6, 15960, Note_on_c, 2, 46, 49
6, 15989, Note_on_c, 2, 46, 0
6, 16020, Note_on_c, 2, 46, 48
6, 16049, Note_on_c, 2, 46, 0
6, 16080, Note_on_c, 2, 46, 46
6, 16109, Note_on_c, 2, 46, 0
6, 16140, Note_on_c, 2, 46, 47
6, 16169, Note_on_c, 2, 46, 0
6, 16200, Note_on_c, 2, 48, 90
6, 16229, Note_on_c, 2, 48, 0
6, 16230, Note_on_c, 2, 46, 87
6, 16259, Note_on_c, 2, 46, 0
6, 16260, Note_on_c, 2, 45, 84
6, 16289, Note_on_c, 2, 45, 0
6, 16290, Note_on_c, 2, 46, 85
6, 16319, Note_on_c, 2, 46, 0
6, 16320, Note_on_c, 2, 53, 54
6, 16349, Note_on_c, 2, 53, 0
6, 16380, Note_on_c, 2, 53, 52
6, 16409, Note_on_c, 2, 53, 0
6, 16440, Note_on_c, 2, 53, 50
6, 16469, Note_on_c, 2, 53, 0
6, 16500, Note_on_c, 2, 53, 51
6, 16529, Note_on_c, 2, 53, 0
6, 16560, Note_on_c, 2, 53, 51
6, 16589, Note_on_c, 2, 53, 0
6, 16620, Note_on_c, 2, 53, 48
6, 16649, Note_on_c, 2, 53, 0
6, 16680, Note_on_c, 2, 55, 96
6, 16709, Note_on_c, 2, 55, 0
6, 16710, Note_on_c, 2, 53, 94
6, 16739, Note_on_c, 2, 53, 0
6, 16740, Note_on_c, 2, 52, 93
6, 16769, Note_on_c, 2, 52, 0
6, 16770, Note_on_c, 2, 53, 94
6, 16799, Note_on_c, 2, 53, 0
6, 16800, Note_on_c, 2, 50, 67
6, 16829, Note_on_c, 2, 50, 0
6, 16860, Note_on_c, 2, 50, 64
6, 16889, Note_on_c, 2, 50, 0
6, 16920, Note_on_c, 2, 55, 72
6, 16949, Note_on_c, 2, 55, 0
6, 16980, Note_on_c, 2, 55, 66
6, 17009, Note_on_c, 2, 55, 0
6, 17040, Note_on_c, 2, 48, 72
6, 17069, Note_on_c, 2, 48, 0
6, 17100, Note_on_c, 2, 48, 68
6, 17129, Note_on_c, 2, 48, 0
6, 17160, Note_on_c, 2, 53, 72
6, 17189, Note_on_c, 2, 53, 0
6, 17220, Note_on_c, 2, 53, 68
6, 17249, Note_on_c, 2, 53, 0
6, 17280, Note_on_c, 2, 50, 70
6, 17309, Note_on_c, 2, 50, 0
6, 17340, Note_on_c, 2, 50, 73
6, 17369, Note_on_c, 2, 50, 0
6, 17400, Note_on_c, 2, 55, 70
6, 17429, Note_on_c, 2, 55, 0
6, 17460, Note_on_c, 2, 55, 70
6, 17489, Note_on_c, 2, 55, 0
6, 17520, Note_on_c, 2, 48, 77
6, 17549, Note_on_c, 2, 48, 0
6, 17580, Note_on_c, 2, 48, 77
6, 17609, Note_on_c, 2, 48, 0
6, 17640, Note_on_c, 2, 53, 71
6, 17669, Note_on_c, 2, 53, 0
6, 17700, Note_on_c, 2, 53, 81
6, 17729, Note_on_c, 2, 53, 0
6, 17760, Note_on_c, 2, 58, 58
6, 18149, Note_on_c, 2, 58, 0
6, 18240, Note_on_c, 2, 46, 46
6, 18629, Note_on_c, 2, 46, 0
6, 18720, Note_on_c, 2, 51, 93
6, 18779, Note_on_c, 2, 51, 0
6, 18840, Note_on_c, 2, 63, 106
6, 19319, Note_on_c, 2, 63, 0
6, 19320, Note_on_c, 2, 62, 104
6, 19379, Note_on_c, 2, 62, 0
6, 19380, Note_on_c, 2, 60, 102
6, 19439, Note_on_c, 2, 60, 0
6, 19440, Note_on_c, 2, 58, 100
6, 19500, Note_on_c, 2, 56, 100
6, 19529, Note_on_c, 2, 58, 0
6, 19559, Note_on_c, 2, 56, 0
6, 19560, Note_on_c, 2, 55, 101
6, 19619, Note_on_c, 2, 55, 0
6, 19620, Note_on_c, 2, 53, 98
6, 19679, Note_on_c, 2, 53, 0
6, 19680, Note_on_c, 2, 51, 91
6, 19709, Note_on_c, 2, 51, 0
6, 19740, Note_on_c, 2, 51, 94
6, 19769, Note_on_c, 2, 51, 0
6, 19800, Note_on_c, 2, 51, 91
6, 19829, Note_on_c, 2, 51, 0
6, 19860, Note_on_c, 2, 51, 88
6, 19889, Note_on_c, 2, 51, 0
6, 19920, Note_on_c, 2, 51, 87
6, 19949, Note_on_c, 2, 51, 0
6, 19980, Note_on_c, 2, 51, 88
6, 20009, Note_on_c, 2, 51, 0
6, 20040, Note_on_c, 2, 53, 95
6, 20069, Note_on_c, 2, 53, 0
6, 20070, Note_on_c, 2, 51, 91
6, 20099, Note_on_c, 2, 51, 0
6, 20100, Note_on_c, 2, 50, 91
6, 20129, Note_on_c, 2, 50, 0
6, 20130, Note_on_c, 2, 51, 91
6, 20159, Note_on_c, 2, 51, 0
6, 20160, Note_on_c, 2, 50, 92
6, 20189, Note_on_c, 2, 50, 0
6, 20220, Note_on_c, 2, 58, 86
6, 20249, Note_on_c, 2, 58, 0
6, 20280, Note_on_c, 2, 58, 81
6, 20309, Note_on_c, 2, 58, 0
6, 20340, Note_on_c, 2, 58, 81
6, 20369, Note_on_c, 2, 58, 0
6, 20400, Note_on_c, 2, 58, 84
6, 20429, Note_on_c, 2, 58, 0
6, 20460, Note_on_c, 2, 58, 85
6, 20489, Note_on_c, 2, 58, 0
6, 20520, Note_on_c, 2, 60, 98
6, 20549, Note_on_c, 2, 60, 0
6, 20550, Note_on_c, 2, 58, 93
6, 20579, Note_on_c, 2, 58, 0
6, 20580, Note_on_c, 2, 57, 92
6, 20609, Note_on_c, 2, 57, 0
6, 20610, Note_on_c, 2, 58, 92
6, 20639, Note_on_c, 2, 58, 0
6, 20640, Note_on_c, 2, 63, 86
6, 20699, Note_on_c, 2, 63, 0
6, 20760, Note_on_c, 2, 63, 102
6, 20999, Note_on_c, 2, 63, 0
6, 21000, Note_on_c, 2, 62, 81
6, 21059, Note_on_c, 2, 62, 0
6, 21240, Note_on_c, 2, 60, 104
6, 21479, Note_on_c, 2, 60, 0
6, 21480, Note_on_c, 2, 58, 77
6, 21539, Note_on_c, 2, 58, 0
6, 21720, Note_on_c, 2, 56, 88
6, 21959, Note_on_c, 2, 56, 0
6, 21960, Note_on_c, 2, 55, 68
6, 22049, Note_on_c, 2, 55, 0
6, 22080, Note_on_c, 2, 53, 77
6, 22109, Note_on_c, 2, 53, 0
6, 22140, Note_on_c, 2, 53, 66
6, 22169, Note_on_c, 2, 53, 0
6, 22200, Note_on_c, 2, 53, 67
6, 22229, Note_on_c, 2, 53, 0
6, 22260, Note_on_c, 2, 53, 66
6, 22289, Note_on_c, 2, 53, 0
6, 22320, Note_on_c, 2, 58, 70
6, 22349, Note_on_c, 2, 58, 0
6, 22380, Note_on_c, 2, 58, 69
6, 22409, Note_on_c, 2, 58, 0
6, 22440, Note_on_c, 2, 58, 77
6, 22469, Note_on_c, 2, 58, 0
6, 22500, Note_on_c, 2, 58, 81
6, 22529, Note_on_c, 2, 58, 0
6, 22560, Note_on_c, 2, 51, 77
6, 22589, Note_on_c, 2, 51, 0
6, 22620, Note_on_c, 2, 51, 69
6, 22649, Note_on_c, 2, 51, 0
6, 22680, Note_on_c, 2, 60, 77
6, 22709, Note_on_c, 2, 60, 0
6, 22740, Note_on_c, 2, 60, 70
6, 22769, Note_on_c, 2, 60, 0
6, 22800, Note_on_c, 2, 57, 81
6, 22829, Note_on_c, 2, 57, 0
6, 22860, Note_on_c, 2, 57, 85
6, 22889, Note_on_c, 2, 57, 0
6, 22920, Note_on_c, 2, 58, 88
6, 22949, Note_on_c, 2, 58, 0
6, 22980, Note_on_c, 2, 58, 93
6, 23009, Note_on_c, 2, 58, 0
6, 23040, Note_on_c, 2, 51, 73
6, 23069, Note_on_c, 2, 51, 0
6, 23100, Note_on_c, 2, 51, 66
6, 23129, Note_on_c, 2, 51, 0
6, 23160, Note_on_c, 2, 56, 77
6, 23189, Note_on_c, 2, 56, 0
6, 23220, Note_on_c, 2, 56, 77
6, 23249, Note_on_c, 2, 56, 0
6, 23280, Note_on_c, 2, 54, 81
6, 23309, Note_on_c, 2, 54, 0
6, 23340, Note_on_c, 2, 54, 88
6, 23369, Note_on_c, 2, 54, 0
6, 23400, Note_on_c, 2, 55, 77
6, 23429, Note_on_c, 2, 55, 0
6, 23460, Note_on_c, 2, 55, 85
6, 23489, Note_on_c, 2, 55, 0
6, 23520, Note_on_c, 2, 48, 85
6, 23549, Note_on_c, 2, 48, 0
6, 23580, Note_on_c, 2, 48, 77
6, 23609, Note_on_c, 2, 48, 0
6, 23640, Note_on_c, 2, 53, 70
6, 23669, Note_on_c, 2, 53, 0
6, 23700, Note_on_c, 2, 53, 81
6, 23729, Note_on_c, 2, 53, 0
6, 23760, Note_on_c, 2, 50, 77
6, 23789, Note_on_c, 2, 50, 0
6, 23820, Note_on_c, 2, 50, 81
6, 23849, Note_on_c, 2, 50, 0
6, 23880, Note_on_c, 2, 51, 70
6, 23909, Note_on_c, 2, 51, 0
6, 23940, Note_on_c, 2, 51, 73
6, 23969, Note_on_c, 2, 51, 0
6, 24000, Note_on_c, 2, 57, 111
6, 24239, Note_on_c, 2, 57, 0
6, 24240, Note_on_c, 2, 58, 109
6, 24479, Note_on_c, 2, 58, 0
6, 24480, Note_on_c, 2, 60, 78
6, 24509, Note_on_c, 2, 60, 0
6, 24540, Note_on_c, 2, 60, 78
6, 24569, Note_on_c, 2, 60, 0
6, 24600, Note_on_c, 2, 60, 76
6, 24629, Note_on_c, 2, 60, 0
6, 24660, Note_on_c, 2, 60, 77
6, 24689, Note_on_c, 2, 60, 0
6, 24720, Note_on_c, 2, 60, 79
6, 24749, Note_on_c, 2, 60, 0
6, 24780, Note_on_c, 2, 60, 80
6, 24809, Note_on_c, 2, 60, 0
6, 24840, Note_on_c, 2, 60, 77
6, 24869, Note_on_c, 2, 60, 0
6, 24900, Note_on_c, 2, 60, 77
6, 24929, Note_on_c, 2, 60, 0
6, 24960, Note_on_c, 2, 48, 94
6, 24989, Note_on_c, 2, 48, 0
6, 25080, Note_on_c, 2, 50, 90
6, 25109, Note_on_c, 2, 50, 0
6, 25200, Note_on_c, 2, 51, 90
6, 25229, Note_on_c, 2, 51, 0
6, 25320, Note_on_c, 2, 52, 90
6, 25349, Note_on_c, 2, 52, 0
6, 25440, Note_on_c, 2, 53, 92
6, 25559, Note_on_c, 2, 53, 0
6, 25920, Note_on_c, 2, 53, 85
6, 25949, Note_on_c, 2, 53, 0
6, 25980, Note_on_c, 2, 53, 77
6, 26009, Note_on_c, 2, 53, 0
6, 26040, Note_on_c, 2, 53, 79
6, 26069, Note_on_c, 2, 53, 0
6, 26100, Note_on_c, 2, 53, 81
6, 26129, Note_on_c, 2, 53, 0
6, 26160, Note_on_c, 2, 53, 79
6, 26189, Note_on_c, 2, 53, 0
6, 26220, Note_on_c, 2, 53, 75
6, 26249, Note_on_c, 2, 53, 0
6, 26280, Note_on_c, 2, 53, 85
6, 26309, Note_on_c, 2, 53, 0
6, 26340, Note_on_c, 2, 53, 83
6, 26369, Note_on_c, 2, 53, 0
6, 26400, Note_on_c, 2, 53, 85
6, 26519, Note_on_c, 2, 53, 0
6, 26880, Note_on_c, 2, 53, 88
6, 26909, Note_on_c, 2, 53, 0
6, 26940, Note_on_c, 2, 53, 84
6, 26969, Note_on_c, 2, 53, 0
6, 27000, Note_on_c, 2, 53, 82
6, 27029, Note_on_c, 2, 53, 0
6, 27060, Note_on_c, 2, 53, 84
6, 27089, Note_on_c, 2, 53, 0
6, 27120, Note_on_c, 2, 53, 85
6, 27149, Note_on_c, 2, 53, 0
6, 27180, Note_on_c, 2, 53, 82
6, 27209, Note_on_c, 2, 53, 0
6, 27240, Note_on_c, 2, 53, 87
6, 27269, Note_on_c, 2, 53, 0
6, 27300, Note_on_c, 2, 53, 82
6, 27329, Note_on_c, 2, 53, 0
6, 27360, Note_on_c, 2, 53, 92
6, 27479, Note_on_c, 2, 53, 0
6, 30720, Note_on_c, 2, 58, 57
6, 30839, Note_on_c, 2, 58, 0
6, 30960, Note_on_c, 2, 58, 55
6, 31079, Note_on_c, 2, 58, 0
6, 31200, Note_on_c, 2, 53, 55
6, 31319, Note_on_c, 2, 53, 0
6, 31440, Note_on_c, 2, 53, 53
6, 31559, Note_on_c, 2, 53, 0
6, 31680, Note_on_c, 2, 58, 56
6, 31799, Note_on_c, 2, 58, 0
6, 31920, Note_on_c, 2, 58, 49
6, 32039, Note_on_c, 2, 58, 0
6, 32160, Note_on_c, 2, 53, 55
6, 32279, Note_on_c, 2, 53, 0
6, 32400, Note_on_c, 2, 53, 53
6, 32519, Note_on_c, 2, 53, 0
6, 32640, Note_on_c, 2, 58, 104
6, 32669, Note_on_c, 2, 58, 0
6, 32700, Note_on_c, 2, 58, 100
6, 32729, Note_on_c, 2, 58, 0
6, 32760, Note_on_c, 2, 58, 98
6, 32789, Note_on_c, 2, 58, 0
6, 32820, Note_on_c, 2, 58, 102
6, 32849, Note_on_c, 2, 58, 0
6, 32880, Note_on_c, 2, 58, 102
6, 32909, Note_on_c, 2, 58, 0
6, 32940, Note_on_c, 2, 58, 103
6, 32969, Note_on_c, 2, 58, 0
6, 33000, Note_on_c, 2, 60, 104
6, 33030, Note_on_c, 2, 58, 98
6, 33059, Note_on_c, 2, 58, 0
6, 33059, Note_on_c, 2, 60, 0
6, 33060, Note_on_c, 2, 57, 98
6, 33089, Note_on_c, 2, 57, 0
6, 33090, Note_on_c, 2, 58, 98
6, 33119, Note_on_c, 2, 58, 0
6, 33120, Note_on_c, 2, 57, 100
6, 33149, Note_on_c, 2, 57, 0
6, 33240, Note_on_c, 2, 60, 106
6, 33479, Note_on_c, 2, 60, 0
6, 33480, Note_on_c, 2, 58, 70
6, 33509, Note_on_c, 2, 58, 0
6, 33600, Note_on_c, 2, 55, 87
6, 33629, Note_on_c, 2, 55, 0
6, 33720, Note_on_c, 2, 58, 106
6, 33959, Note_on_c, 2, 58, 0
6, 33960, Note_on_c, 2, 57, 71
6, 33989, Note_on_c, 2, 57, 0
6, 34080, Note_on_c, 2, 53, 68
6, 34109, Note_on_c, 2, 53, 0
6, 34200, Note_on_c, 2, 56, 107
6, 34439, Note_on_c, 2, 56, 0
6, 34440, Note_on_c, 2, 55, 69
6, 34469, Note_on_c, 2, 55, 0
6, 34560, Note_on_c, 2, 51, 99
6, 34679, Note_on_c, 2, 51, 0
6, 34800, Note_on_c, 2, 58, 93
6, 34919, Note_on_c, 2, 58, 0
6, 35040, Note_on_c, 2, 51, 93
6, 35159, Note_on_c, 2, 51, 0
6, 35280, Note_on_c, 2, 53, 93
6, 35399, Note_on_c, 2, 53, 0
6, 35520, Note_on_c, 2, 58, 61
6, 35609, Note_on_c, 2, 58, 0
6, 35760, Note_on_c, 2, 58, 59
6, 35849, Note_on_c, 2, 58, 0
6, 36000, Note_on_c, 2, 53, 59
6, 36119, Note_on_c, 2, 53, 0
6, 36240, Note_on_c, 2, 53, 57
6, 36329, Note_on_c, 2, 53, 0
6, 36480, Note_on_c, 2, 58, 58
6, 36569, Note_on_c, 2, 58, 0
6, 36720, Note_on_c, 2, 58, 53
6, 36809, Note_on_c, 2, 58, 0
6, 36960, Note_on_c, 2, 53, 55
6, 37079, Note_on_c, 2, 53, 0
6, 37200, Note_on_c, 2, 53, 56
6, 37289, Note_on_c, 2, 53, 0
6, 37440, Note_on_c, 2, 58, 115
6, 37469, Note_on_c, 2, 58, 0
6, 37500, Note_on_c, 2, 58, 116
6, 37529, Note_on_c, 2, 58, 0
6, 37560, Note_on_c, 2, 58, 116
6, 37589, Note_on_c, 2, 58, 0
6, 37620, Note_on_c, 2, 58, 115
6, 37649, Note_on_c, 2, 58, 0
6, 37680, Note_on_c, 2, 58, 111
6, 37709, Note_on_c, 2, 58, 0
6, 37740, Note_on_c, 2, 58, 110
6, 37769, Note_on_c, 2, 58, 0
6, 37800, Note_on_c, 2, 60, 111
6, 37829, Note_on_c, 2, 60, 0
6, 37830, Note_on_c, 2, 58, 108
6, 37859, Note_on_c, 2, 58, 0
6, 37860, Note_on_c, 2, 57, 109
6, 37889, Note_on_c, 2, 57, 0
6, 37890, Note_on_c, 2, 58, 112
6, 37919, Note_on_c, 2, 58, 0
6, 37920, Note_on_c, 2, 57, 93
6, 37949, Note_on_c, 2, 57, 0
6, 38040, Note_on_c, 2, 60, 123
6, 38279, Note_on_c, 2, 60, 0
6, 38280, Note_on_c, 2, 58, 93
6, 38309, Note_on_c, 2, 58, 0
6, 38400, Note_on_c, 2, 55, 81
6, 38429, Note_on_c, 2, 55, 0
6, 38520, Note_on_c, 2, 58, 110
6, 38759, Note_on_c, 2, 58, 0
6, 38760, Note_on_c, 2, 57, 77
6, 38789, Note_on_c, 2, 57, 0
6, 38880, Note_on_c, 2, 53, 73
6, 38909, Note_on_c, 2, 53, 0
6, 39000, Note_on_c, 2, 56, 107
6, 39239, Note_on_c, 2, 56, 0
6, 39240, Note_on_c, 2, 55, 80
6, 39269, Note_on_c, 2, 55, 0
6, 39360, Note_on_c, 2, 63, 110
6, 39479, Note_on_c, 2, 63, 0
6, 39600, Note_on_c, 2, 58, 104
6, 39719, Note_on_c, 2, 58, 0
6, 39840, Note_on_c, 2, 51, 113
6, 39959, Note_on_c, 2, 51, 0
6, 40080, Note_on_c, 2, 53, 110
6, 40229, Note_on_c, 2, 53, 0
6, 40320, Note_on_c, 2, 62, 71
6, 40379, Note_on_c, 2, 62, 0
6, 40380, Note_on_c, 2, 65, 70
6, 40439, Note_on_c, 2, 65, 0
6, 40440, Note_on_c, 2, 62, 62
6, 40499, Note_on_c, 2, 62, 0
6, 40500, Note_on_c, 2, 65, 60
6, 40559, Note_on_c, 2, 65, 0
6, 40560, Note_on_c, 2, 63, 60
6, 40619, Note_on_c, 2, 63, 0
6, 40620, Note_on_c, 2, 65, 60
6, 40679, Note_on_c, 2, 65, 0
6, 40680, Note_on_c, 2, 63, 60
6, 40739, Note_on_c, 2, 63, 0
6, 40740, Note_on_c, 2, 65, 62
6, 40799, Note_on_c, 2, 65, 0
6, 40800, Note_on_c, 2, 62, 57
6, 40859, Note_on_c, 2, 62, 0
6, 40860, Note_on_c, 2, 65, 62
6, 40919, Note_on_c, 2, 65, 0
6, 40920, Note_on_c, 2, 62, 62
6, 40979, Note_on_c, 2, 62, 0
6, 40980, Note_on_c, 2, 65, 60
6, 41039, Note_on_c, 2, 65, 0
6, 41040, Note_on_c, 2, 63, 60
6, 41099, Note_on_c, 2, 63, 0
6, 41100, Note_on_c, 2, 65, 60
6, 41159, Note_on_c, 2, 65, 0
6, 41160, Note_on_c, 2, 63, 60
6, 41219, Note_on_c, 2, 63, 0
6, 41220, Note_on_c, 2, 65, 62
6, 41279, Note_on_c, 2, 65, 0
6, 41280, Note_on_c, 2, 62, 76
6, 41339, Note_on_c, 2, 62, 0
6, 41340, Note_on_c, 2, 65, 76
6, 41399, Note_on_c, 2, 65, 0
6, 41400, Note_on_c, 2, 62, 80
6, 41459, Note_on_c, 2, 62, 0
6, 41460, Note_on_c, 2, 65, 78
6, 41519, Note_on_c, 2, 65, 0
6, 41520, Note_on_c, 2, 63, 80
6, 41579, Note_on_c, 2, 63, 0
6, 41580, Note_on_c, 2, 65, 76
6, 41639, Note_on_c, 2, 65, 0
6, 41640, Note_on_c, 2, 63, 78
6, 41699, Note_on_c, 2, 63, 0
6, 41700, Note_on_c, 2, 65, 76
6, 41759, Note_on_c, 2, 65, 0
6, 41760, Note_on_c, 2, 62, 83
6, 41819, Note_on_c, 2, 62, 0
6, 41820, Note_on_c, 2, 65, 79
6, 41879, Note_on_c, 2, 65, 0
6, 41880, Note_on_c, 2, 62, 83
6, 41939, Note_on_c, 2, 62, 0
6, 41940, Note_on_c, 2, 65, 79
6, 41999, Note_on_c, 2, 65, 0
6, 42000, Note_on_c, 2, 63, 81
6, 42059, Note_on_c, 2, 63, 0
6, 42060, Note_on_c, 2, 65, 79
6, 42119, Note_on_c, 2, 65, 0
6, 42120, Note_on_c, 2, 63, 81
6, 42179, Note_on_c, 2, 63, 0
6, 42180, Note_on_c, 2, 65, 86
6, 42239, Note_on_c, 2, 65, 0
6, 42240, Note_on_c, 2, 62, 90
6, 42299, Note_on_c, 2, 62, 0
6, 42300, Note_on_c, 2, 65, 87
6, 42359, Note_on_c, 2, 65, 0
6, 42360, Note_on_c, 2, 62, 92
6, 42419, Note_on_c, 2, 62, 0
6, 42420, Note_on_c, 2, 65, 92
6, 42479, Note_on_c, 2, 65, 0
6, 42480, Note_on_c, 2, 63, 94
6, 42539, Note_on_c, 2, 63, 0
6, 42540, Note_on_c, 2, 65, 90
6, 42599, Note_on_c, 2, 65, 0
6, 42600, Note_on_c, 2, 63, 94
6, 42659, Note_on_c, 2, 63, 0
6, 42660, Note_on_c, 2, 65, 88
6, 42719, Note_on_c, 2, 65, 0
6, 42720, Note_on_c, 2, 62, 88
6, 42779, Note_on_c, 2, 62, 0
6, 42780, Note_on_c, 2, 65, 91
6, 42839, Note_on_c, 2, 65, 0
6, 42840, Note_on_c, 2, 62, 88
6, 42899, Note_on_c, 2, 62, 0
6, 42900, Note_on_c, 2, 65, 84
6, 42959, Note_on_c, 2, 65, 0
6, 42960, Note_on_c, 2, 63, 94
6, 43019, Note_on_c, 2, 63, 0
6, 43020, Note_on_c, 2, 65, 86
6, 43079, Note_on_c, 2, 65, 0
6, 43080, Note_on_c, 2, 63, 92
6, 43139, Note_on_c, 2, 63, 0
6, 43140, Note_on_c, 2, 65, 86
6, 43199, Note_on_c, 2, 65, 0
6, 43200, Note_on_c, 2, 62, 92
6, 43259, Note_on_c, 2, 62, 0
6, 43260, Note_on_c, 2, 62, 90
6, 43319, Note_on_c, 2, 62, 0
6, 43320, Note_on_c, 2, 62, 86
6, 43379, Note_on_c, 2, 62, 0
6, 43380, Note_on_c, 2, 62, 86
6, 43439, Note_on_c, 2, 62, 0
6, 43440, Note_on_c, 2, 63, 102
6, 43499, Note_on_c, 2, 63, 0
6, 43500, Note_on_c, 2, 63, 95
6, 43559, Note_on_c, 2, 63, 0
6, 43560, Note_on_c, 2, 63, 90
6, 43619, Note_on_c, 2, 63, 0
6, 43620, Note_on_c, 2, 63, 93
6, 43679, Note_on_c, 2, 63, 0
6, 43680, Note_on_c, 2, 65, 117
6, 43709, Note_on_c, 2, 65, 0
6, 43740, Note_on_c, 2, 65, 115
6, 43769, Note_on_c, 2, 65, 0
6, 43800, Note_on_c, 2, 65, 111
6, 43829, Note_on_c, 2, 65, 0
6, 43860, Note_on_c, 2, 65, 111
6, 43889, Note_on_c, 2, 65, 0
6, 43920, Note_on_c, 2, 53, 111
6, 43949, Note_on_c, 2, 53, 0
6, 43980, Note_on_c, 2, 53, 106
6, 44009, Note_on_c, 2, 53, 0
6, 44040, Note_on_c, 2, 53, 105
6, 44069, Note_on_c, 2, 53, 0
6, 44100, Note_on_c, 2, 53, 106
6, 44129, Note_on_c, 2, 53, 0
6, 44160, Note_on_c, 2, 58, 122
6, 44249, Note_on_c, 2, 58, 0
6, 44400, Note_on_c, 2, 58, 117
6, 44489, Note_on_c, 2, 58, 0
6, 44640, Note_on_c, 2, 58, 118
6, 44729, Note_on_c, 2, 58, 0
6, 44880, Note_on_c, 2, 58, 115
6, 44969, Note_on_c, 2, 58, 0
6, 45120, Note_on_c, 2, 58, 121
6, 45209, Note_on_c, 2, 58, 0
6, 45240, Note_on_c, 2, 58, 115
6, 45329, Note_on_c, 2, 58, 0
6, 45360, Note_on_c, 2, 53, 116
6, 45449, Note_on_c, 2, 53, 0
6, 45480, Note_on_c, 2, 50, 113
6, 45569, Note_on_c, 2, 50, 0
6, 45600, Note_on_c, 2, 46, 121
6, 45719, Note_on_c, 2, 46, 0
6, 45720, Note_on_c, 2, 58, 119
6, 45809, Note_on_c, 2, 58, 0
6, 45840, Note_on_c, 2, 46, 120
6, 45929, Note_on_c, 2, 46, 0
6, 45960, Note_on_c, 2, 46, 117
6, 46049, Note_on_c, 2, 46, 0
6, 46080, Note_on_c, 2, 46, 119
6, 46319, Note_on_c, 2, 46, 0
6, 46319, End_track
7, 0, Start_track
7, 0, MIDI_port, 0
7, 0, Title_t, "Flute"
7, 0, Program_c, 3, 73
7, 0, Control_c, 3, 7, 100
7, 0, Control_c, 3, 10, 20
7, 480, Note_on_c, 3, 75, 127
7, 480, Control_c, 3, 121, 0
7, 480, Control_c, 3, 0, 0
7, 480, Program_c, 3, 73
7, 480, Control_c, 3, 7, 100
7, 480, Control_c, 3, 91, 90
7, 480, Control_c, 3, 93, 20
7, 480, Control_c, 3, 10, 20
7, 719, Note_on_c, 3, 75, 0
7, 930, Note_on_c, 3, 79, 111
7, 959, Note_on_c, 3, 79, 0
7, 960, Note_on_c, 3, 79, 116
7, 1199, Note_on_c, 3, 79, 0
7, 1410, Note_on_c, 3, 82, 117
7, 1439, Note_on_c, 3, 82, 0
7, 1440, Note_on_c, 3, 82, 125
7, 1679, Note_on_c, 3, 82, 0
7, 2400, Note_on_c, 3, 75, 74
7, 2400, Note_on_c, 3, 77, 74
7, 2759, Note_on_c, 3, 77, 0
7, 2759, Note_on_c, 3, 75, 0
7, 3360, Note_on_c, 3, 73, 81
7, 3360, Note_on_c, 3, 79, 81
7, 3749, Note_on_c, 3, 79, 0
7, 3749, Note_on_c, 3, 73, 0
7, 17880, Note_on_c, 3, 79, 77
7, 18120, Note_on_c, 3, 77, 70
7, 18149, Note_on_c, 3, 79, 0
7, 18360, Note_on_c, 3, 75, 69
7, 18389, Note_on_c, 3, 77, 0
7, 18599, Note_on_c, 3, 75, 0
7, 18600, Note_on_c, 3, 74, 70
7, 18719, Note_on_c, 3, 74, 0
7, 18720, Note_on_c, 3, 75, 114
7, 18749, Note_on_c, 3, 75, 0
7, 18780, Note_on_c, 3, 75, 107
7, 18809, Note_on_c, 3, 75, 0
7, 18840, Note_on_c, 3, 75, 109
7, 18869, Note_on_c, 3, 75, 0
7, 18900, Note_on_c, 3, 75, 111
7, 18929, Note_on_c, 3, 75, 0
7, 18960, Note_on_c, 3, 75, 113
7, 18989, Note_on_c, 3, 75, 0
7, 19020, Note_on_c, 3, 75, 115
7, 19049, Note_on_c, 3, 75, 0
7, 19080, Note_on_c, 3, 77, 111
7, 19109, Note_on_c, 3, 77, 0
7, 19110, Note_on_c, 3, 75, 108
7, 19139, Note_on_c, 3, 75, 0
7, 19140, Note_on_c, 3, 74, 108
7, 19169, Note_on_c, 3, 74, 0
7, 19170, Note_on_c, 3, 75, 109
7, 19199, Note_on_c, 3, 75, 0
7, 19200, Note_on_c, 3, 82, 114
7, 19229, Note_on_c, 3, 82, 0
7, 19260, Note_on_c, 3, 82, 110
7, 19289, Note_on_c, 3, 82, 0
7, 19320, Note_on_c, 3, 82, 109
7, 19349, Note_on_c, 3, 82, 0
7, 19380, Note_on_c, 3, 82, 107
7, 19409, Note_on_c, 3, 82, 0
7, 19440, Note_on_c, 3, 82, 110
7, 19469, Note_on_c, 3, 82, 0
7, 19500, Note_on_c, 3, 82, 112
7, 19529, Note_on_c, 3, 82, 0
7, 19560, Note_on_c, 3, 84, 112
7, 19589, Note_on_c, 3, 84, 0
7, 19590, Note_on_c, 3, 82, 114
7, 19619, Note_on_c, 3, 82, 0
7, 19620, Note_on_c, 3, 81, 113
7, 19649, Note_on_c, 3, 81, 0
7, 19650, Note_on_c, 3, 82, 108
7, 19679, Note_on_c, 3, 82, 0
7, 19680, Note_on_c, 3, 79, 109
7, 19769, Note_on_c, 3, 79, 0
7, 19920, Note_on_c, 3, 87, 119
7, 20279, Note_on_c, 3, 87, 0
7, 20280, Note_on_c, 3, 86, 116
7, 20339, Note_on_c, 3, 86, 0
7, 20340, Note_on_c, 3, 84, 112
7, 20399, Note_on_c, 3, 84, 0
7, 20400, Note_on_c, 3, 82, 112
7, 20459, Note_on_c, 3, 82, 0
7, 20460, Note_on_c, 3, 80, 110
7, 20519, Note_on_c, 3, 80, 0
7, 20520, Note_on_c, 3, 79, 109
7, 20579, Note_on_c, 3, 79, 0
7, 20580, Note_on_c, 3, 77, 111
7, 20639, Note_on_c, 3, 77, 0
7, 20640, Note_on_c, 3, 75, 106
7, 20640, Note_on_c, 3, 75, 106
7, 20759, Note_on_c, 3, 75, 0
7, 20759, Note_on_c, 3, 75, 0
7, 20760, Note_on_c, 3, 84, 110
7, 20999, Note_on_c, 3, 84, 0
7, 21000, Note_on_c, 3, 86, 96
7, 21119, Note_on_c, 3, 86, 0
7, 21120, Note_on_c, 3, 82, 107
7, 21239, Note_on_c, 3, 82, 0
7, 21240, Note_on_c, 3, 84, 116
7, 21359, Note_on_c, 3, 84, 0
7, 21360, Note_on_c, 3, 81, 110
7, 21479, Note_on_c, 3, 81, 0
7, 21480, Note_on_c, 3, 82, 104
7, 21599, Note_on_c, 3, 82, 0
7, 21600, Note_on_c, 3, 79, 115
7, 21719, Note_on_c, 3, 79, 0
7, 21720, Note_on_c, 3, 80, 113
7, 21839, Note_on_c, 3, 80, 0
7, 21840, Note_on_c, 3, 77, 116
7, 21959, Note_on_c, 3, 77, 0
7, 21960, Note_on_c, 3, 79, 112
7, 22079, Note_on_c, 3, 79, 0
7, 22080, Note_on_c, 3, 75, 118
7, 22319, Note_on_c, 3, 75, 0
7, 22320, Note_on_c, 3, 77, 116
7, 22559, Note_on_c, 3, 77, 0
7, 22560, Note_on_c, 3, 75, 113
7, 22680, Note_on_c, 3, 87, 116
7, 22709, Note_on_c, 3, 75, 0
7, 22920, Note_on_c, 3, 86, 113
7, 22949, Note_on_c, 3, 87, 0
7, 23159, Note_on_c, 3, 86, 0
7, 23160, Note_on_c, 3, 84, 118
7, 23400, Note_on_c, 3, 82, 115
7, 23429, Note_on_c, 3, 84, 0
7, 23639, Note_on_c, 3, 82, 0
7, 23640, Note_on_c, 3, 80, 114
7, 23879, Note_on_c, 3, 80, 0
7, 23880, Note_on_c, 3, 79, 111
7, 23999, Note_on_c, 3, 79, 0
7, 24000, Note_on_c, 3, 77, 111
7, 24479, Note_on_c, 3, 77, 0
7, 24480, Note_on_c, 3, 81, 100
7, 25079, Note_on_c, 3, 81, 0
7, 25080, Note_on_c, 3, 82, 106
7, 25169, Note_on_c, 3, 82, 0
7, 25200, Note_on_c, 3, 79, 102
7, 25259, Note_on_c, 3, 79, 0
7, 25320, Note_on_c, 3, 79, 96
7, 25379, Note_on_c, 3, 79, 0
7, 25440, Note_on_c, 3, 77, 101
7, 25499, Note_on_c, 3, 77, 0
7, 25920, Note_on_c, 3, 88, 73
7, 25920, Note_on_c, 3, 85, 73
7, 26399, Note_on_c, 3, 85, 0
7, 26399, Note_on_c, 3, 88, 0
7, 26400, Note_on_c, 3, 84, 80
7, 26400, Note_on_c, 3, 89, 80
7, 26519, Note_on_c, 3, 89, 0
7, 26519, Note_on_c, 3, 84, 0
7, 26880, Note_on_c, 3, 88, 73
7, 26880, Note_on_c, 3, 85, 70
7, 27359, Note_on_c, 3, 85, 0
7, 27359, Note_on_c, 3, 88, 0
7, 27360, Note_on_c, 3, 89, 66
7, 27360, Note_on_c, 3, 84, 64
7, 27449, Note_on_c, 3, 84, 0
7, 27449, Note_on_c, 3, 89, 0
7, 27840, Note_on_c, 3, 79, 77
7, 27850, Control_c, 3, 10, 127
7, 27860, Control_c, 3, 11, 98
7, 27870, Control_c, 3, 11, 99
7, 27880, Control_c, 3, 11, 100
7, 27880, Control_c, 3, 10, 126
7, 27890, Control_c, 3, 11, 101
7, 27890, Control_c, 3, 10, 125
7, 27900, Control_c, 3, 10, 122
7, 27910, Control_c, 3, 11, 103
7, 27920, Control_c, 3, 11, 104
7, 27930, Control_c, 3, 11, 105
7, 27940, Control_c, 3, 11, 107
7, 27950, Control_c, 3, 11, 108
7, 27960, Control_c, 3, 11, 109
7, 27980, Control_c, 3, 11, 111
7, 28000, Control_c, 3, 11, 113
7, 28020, Control_c, 3, 11, 115
7, 28040, Control_c, 3, 11, 116
7, 28060, Control_c, 3, 11, 117
7, 28070, Control_c, 3, 11, 118
7, 28080, Control_c, 3, 11, 119
7, 28100, Control_c, 3, 11, 121
7, 28130, Control_c, 3, 11, 123
7, 28150, Control_c, 3, 11, 124
7, 28160, Control_c, 3, 11, 125
7, 28180, Control_c, 3, 11, 126
7, 28190, Control_c, 3, 11, 127
7, 28340, Control_c, 3, 11, 98
7, 28360, Control_c, 3, 11, 99
7, 28379, Note_on_c, 3, 79, 0
7, 28380, Note_on_c, 3, 81, 72
7, 28380, Control_c, 3, 11, 101
7, 28400, Control_c, 3, 11, 103
7, 28420, Control_c, 3, 11, 105
7, 28430, Control_c, 3, 11, 107
7, 28439, Note_on_c, 3, 81, 0
7, 28440, Note_on_c, 3, 82, 74
7, 28450, Control_c, 3, 11, 110
7, 28460, Control_c, 3, 11, 112
7, 28470, Control_c, 3, 11, 113
7, 28490, Control_c, 3, 11, 115
7, 28499, Note_on_c, 3, 82, 0
7, 28500, Note_on_c, 3, 83, 84
7, 28500, Control_c, 3, 11, 117
7, 28520, Control_c, 3, 11, 119
7, 28540, Control_c, 3, 11, 121
7, 28559, Note_on_c, 3, 83, 0
7, 28560, Note_on_c, 3, 84, 92
7, 28560, Control_c, 3, 11, 122
7, 28570, Control_c, 3, 11, 123
7, 28580, Control_c, 3, 11, 124
7, 28590, Control_c, 3, 11, 125
7, 28619, Note_on_c, 3, 84, 0
7, 28620, Note_on_c, 3, 85, 86
7, 28620, Control_c, 3, 11, 127
7, 28679, Note_on_c, 3, 85, 0
7, 28680, Note_on_c, 3, 86, 80
7, 28739, Note_on_c, 3, 86, 0
7, 28740, Note_on_c, 3, 87, 79
7, 28799, Note_on_c, 3, 87, 0
7, 28800, Note_on_c, 3, 77, 77
7, 28810, Control_c, 3, 11, 97
7, 28820, Control_c, 3, 11, 98
7, 28820, Control_c, 3, 10, 20
7, 28830, Control_c, 3, 11, 99
7, 28840, Control_c, 3, 11, 101
7, 28860, Control_c, 3, 11, 103
7, 28880, Control_c, 3, 11, 104
7, 28890, Control_c, 3, 11, 105
7, 28900, Control_c, 3, 11, 106
7, 28900, Control_c, 3, 10, 21
7, 28910, Control_c, 3, 11, 107
7, 28920, Control_c, 3, 11, 108
7, 28930, Control_c, 3, 11, 109
7, 28950, Control_c, 3, 11, 111
7, 28960, Control_c, 3, 11, 112
7, 28970, Control_c, 3, 11, 113
7, 28980, Control_c, 3, 11, 114
7, 28990, Control_c, 3, 11, 115
7, 29000, Control_c, 3, 11, 117
7, 29020, Control_c, 3, 11, 119
7, 29040, Control_c, 3, 11, 121
7, 29070, Control_c, 3, 11, 123
7, 29080, Control_c, 3, 11, 124
7, 29090, Control_c, 3, 11, 125
7, 29120, Control_c, 3, 11, 127
7, 29300, Control_c, 3, 11, 97
7, 29320, Control_c, 3, 11, 98
7, 29330, Control_c, 3, 11, 99
7, 29339, Note_on_c, 3, 77, 0
7, 29340, Note_on_c, 3, 79, 75
7, 29350, Control_c, 3, 11, 100
7, 29360, Control_c, 3, 11, 101
7, 29370, Control_c, 3, 11, 105
7, 29390, Control_c, 3, 11, 108
7, 29399, Note_on_c, 3, 79, 0
7, 29400, Note_on_c, 3, 80, 77
7, 29400, Control_c, 3, 11, 109
7, 29410, Control_c, 3, 11, 111
7, 29420, Control_c, 3, 11, 113
7, 29430, Control_c, 3, 11, 114
7, 29440, Control_c, 3, 11, 116
7, 29450, Control_c, 3, 11, 118
7, 29459, Note_on_c, 3, 80, 0
7, 29460, Note_on_c, 3, 81, 81
7, 29460, Control_c, 3, 11, 119
7, 29480, Control_c, 3, 11, 120
7, 29490, Control_c, 3, 11, 121
7, 29510, Control_c, 3, 11, 122
7, 29519, Note_on_c, 3, 81, 0
7, 29520, Note_on_c, 3, 82, 87
7, 29520, Control_c, 3, 11, 123
7, 29560, Control_c, 3, 11, 124
7, 29570, Control_c, 3, 11, 125
7, 29579, Note_on_c, 3, 82, 0
7, 29580, Note_on_c, 3, 84, 82
7, 29590, Control_c, 3, 11, 126
7, 29600, Control_c, 3, 11, 127
7, 29639, Note_on_c, 3, 84, 0
7, 29640, Note_on_c, 3, 85, 79
7, 29699, Note_on_c, 3, 85, 0
7, 29700, Note_on_c, 3, 86, 79
7, 29759, Note_on_c, 3, 86, 0
7, 29760, Note_on_c, 3, 75, 74
7, 29760, Control_c, 3, 10, 126
7, 29770, Control_c, 3, 11, 98
7, 29800, Control_c, 3, 11, 99
7, 29820, Control_c, 3, 11, 100
7, 29830, Control_c, 3, 11, 102
7, 29830, Control_c, 3, 10, 125
7, 29840, Control_c, 3, 10, 124
7, 29850, Control_c, 3, 11, 104
7, 29870, Control_c, 3, 11, 106
7, 29880, Control_c, 3, 11, 108
7, 29900, Control_c, 3, 11, 111
7, 29910, Control_c, 3, 11, 112
7, 29920, Control_c, 3, 11, 113
7, 29930, Control_c, 3, 11, 114
7, 29940, Control_c, 3, 11, 116
7, 29960, Control_c, 3, 11, 117
7, 29970, Control_c, 3, 11, 118
7, 29990, Control_c, 3, 11, 120
7, 30010, Control_c, 3, 11, 122
7, 30030, Control_c, 3, 11, 124
7, 30060, Control_c, 3, 11, 125
7, 30080, Control_c, 3, 11, 126
7, 30100, Control_c, 3, 11, 127
7, 30240, Control_c, 3, 10, 16
7, 30300, Note_on_c, 3, 77, 75
7, 30300, Control_c, 3, 10, 17
7, 30329, Note_on_c, 3, 75, 0
7, 30359, Note_on_c, 3, 77, 0
7, 30360, Note_on_c, 3, 79, 81
7, 30419, Note_on_c, 3, 79, 0
7, 30420, Note_on_c, 3, 81, 87
7, 30479, Note_on_c, 3, 81, 0
7, 30480, Note_on_c, 3, 82, 89
7, 30539, Note_on_c, 3, 82, 0
7, 30540, Note_on_c, 3, 83, 81
7, 30599, Note_on_c, 3, 83, 0
7, 30600, Note_on_c, 3, 84, 90
7, 30659, Note_on_c, 3, 84, 0
7, 30660, Note_on_c, 3, 75, 81
7, 30719, Note_on_c, 3, 75, 0
7, 30720, Note_on_c, 3, 74, 71
7, 30839, Note_on_c, 3, 74, 0
7, 31260, Note_on_c, 3, 87, 78
7, 31319, Note_on_c, 3, 87, 0
7, 31320, Note_on_c, 3, 84, 72
7, 31379, Note_on_c, 3, 84, 0
7, 31380, Note_on_c, 3, 81, 75
7, 31439, Note_on_c, 3, 81, 0
7, 31440, Note_on_c, 3, 77, 78
7, 31499, Note_on_c, 3, 77, 0
7, 31500, Note_on_c, 3, 75, 75
7, 31559, Note_on_c, 3, 75, 0
7, 31560, Note_on_c, 3, 84, 74
7, 31620, Note_on_c, 3, 75, 70
7, 31649, Note_on_c, 3, 84, 0
7, 31660, Control_c, 3, 10, 123
7, 31670, Control_c, 3, 10, 125
7, 31679, Note_on_c, 3, 75, 0
7, 31680, Note_on_c, 3, 74, 63
7, 31720, Control_c, 3, 10, 126
7, 31730, Control_c, 3, 10, 127
7, 31799, Note_on_c, 3, 74, 0
7, 32220, Note_on_c, 3, 87, 89
7, 32279, Note_on_c, 3, 87, 0
7, 32280, Note_on_c, 3, 84, 88
7, 32339, Note_on_c, 3, 84, 0
7, 32340, Note_on_c, 3, 81, 83
7, 32399, Note_on_c, 3, 81, 0
7, 32400, Note_on_c, 3, 77, 84
7, 32459, Note_on_c, 3, 77, 0
7, 32460, Note_on_c, 3, 75, 87
7, 32519, Note_on_c, 3, 75, 0
7, 32520, Note_on_c, 3, 84, 87
7, 32580, Note_on_c, 3, 75, 79
7, 32609, Note_on_c, 3, 84, 0
7, 32639, Note_on_c, 3, 75, 0
7, 32640, Note_on_c, 3, 77, 97
7, 32640, Note_on_c, 3, 86, 97
7, 32660, Control_c, 3, 10, 52
7, 32999, Note_on_c, 3, 86, 0
7, 33000, Note_on_c, 3, 87, 97
7, 33030, Note_on_c, 3, 86, 93
7, 33059, Note_on_c, 3, 86, 0
7, 33059, Note_on_c, 3, 87, 0
7, 33060, Note_on_c, 3, 84, 90
7, 33090, Note_on_c, 3, 86, 91
7, 33119, Note_on_c, 3, 86, 0
7, 33119, Note_on_c, 3, 84, 0
7, 33119, Note_on_c, 3, 77, 0
7, 33120, Note_on_c, 3, 78, 93
7, 33120, Note_on_c, 3, 87, 93
7, 33179, Note_on_c, 3, 87, 0
7, 33179, Note_on_c, 3, 78, 0
7, 33240, Note_on_c, 3, 87, 86
7, 33240, Note_on_c, 3, 90, 86
7, 33479, Note_on_c, 3, 90, 0
7, 33479, Note_on_c, 3, 87, 0
7, 33480, Note_on_c, 3, 86, 82
7, 33480, Note_on_c, 3, 91, 82
7, 33539, Note_on_c, 3, 91, 0
7, 33539, Note_on_c, 3, 86, 0
7, 33720, Note_on_c, 3, 88, 84
7, 33720, Note_on_c, 3, 85, 84
7, 33959, Note_on_c, 3, 85, 0
7, 33959, Note_on_c, 3, 88, 0
7, 33960, Note_on_c, 3, 84, 83
7, 33960, Note_on_c, 3, 89, 83
7, 34019, Note_on_c, 3, 89, 0
7, 34019, Note_on_c, 3, 84, 0
7, 34200, Note_on_c, 3, 82, 82
7, 34200, Note_on_c, 3, 86, 82
7, 34439, Note_on_c, 3, 86, 0
7, 34440, Note_on_c, 3, 87, 81
7, 34499, Note_on_c, 3, 87, 0
7, 34499, Note_on_c, 3, 82, 0
7, 34560, Note_on_c, 3, 87, 76
7, 34560, Note_on_c, 3, 91, 80
7, 34619, Note_on_c, 3, 91, 0
7, 34619, Note_on_c, 3, 87, 0
7, 34800, Note_on_c, 3, 86, 73
7, 34800, Note_on_c, 3, 89, 73
7, 34859, Note_on_c, 3, 89, 0
7, 34859, Note_on_c, 3, 86, 0
7, 35040, Note_on_c, 3, 84, 73
7, 35040, Note_on_c, 3, 87, 73
7, 35099, Note_on_c, 3, 87, 0
7, 35099, Note_on_c, 3, 84, 0
7, 35280, Note_on_c, 3, 81, 75
7, 35280, Note_on_c, 3, 84, 75
7, 35339, Note_on_c, 3, 84, 0
7, 35339, Note_on_c, 3, 81, 0
7, 36060, Note_on_c, 3, 87, 73
7, 36119, Note_on_c, 3, 87, 0
7, 36120, Note_on_c, 3, 84, 70
7, 36179, Note_on_c, 3, 84, 0
7, 36180, Note_on_c, 3, 81, 69
7, 36239, Note_on_c, 3, 81, 0
7, 36240, Note_on_c, 3, 77, 65
7, 36299, Note_on_c, 3, 77, 0
7, 36300, Note_on_c, 3, 75, 70
7, 36359, Note_on_c, 3, 75, 0
7, 36360, Note_on_c, 3, 84, 57
7, 36419, Note_on_c, 3, 84, 0
7, 36420, Note_on_c, 3, 75, 69
7, 36479, Note_on_c, 3, 75, 0
7, 36480, Note_on_c, 3, 74, 63
7, 36629, Note_on_c, 3, 74, 0
7, 37020, Note_on_c, 3, 87, 71
7, 37080, Note_on_c, 3, 84, 70
7, 37109, Note_on_c, 3, 87, 0
7, 37139, Note_on_c, 3, 84, 0
7, 37140, Note_on_c, 3, 81, 70
7, 37199, Note_on_c, 3, 81, 0
7, 37200, Note_on_c, 3, 77, 68
7, 37260, Note_on_c, 3, 75, 71
7, 37289, Note_on_c, 3, 77, 0
7, 37319, Note_on_c, 3, 75, 0
7, 37320, Note_on_c, 3, 84, 70
7, 37379, Note_on_c, 3, 84, 0
7, 37380, Note_on_c, 3, 75, 77
7, 37409, Note_on_c, 3, 75, 0
7, 37440, Note_on_c, 3, 77, 95
7, 37440, Note_on_c, 3, 86, 95
7, 37769, Note_on_c, 3, 86, 0
7, 37799, Note_on_c, 3, 77, 0
7, 37800, Note_on_c, 3, 87, 91
7, 37830, Note_on_c, 3, 86, 87
7, 37859, Note_on_c, 3, 86, 0
7, 37859, Note_on_c, 3, 87, 0
7, 37860, Note_on_c, 3, 84, 87
7, 37890, Note_on_c, 3, 86, 87
7, 37919, Note_on_c, 3, 86, 0
7, 37919, Note_on_c, 3, 84, 0
7, 37920, Note_on_c, 3, 87, 93
7, 37920, Note_on_c, 3, 78, 93
7, 37979, Note_on_c, 3, 78, 0
7, 37979, Note_on_c, 3, 87, 0
7, 38040, Note_on_c, 3, 87, 92
7, 38040, Note_on_c, 3, 90, 92
7, 38279, Note_on_c, 3, 90, 0
7, 38279, Note_on_c, 3, 87, 0
7, 38280, Note_on_c, 3, 91, 84
7, 38280, Note_on_c, 3, 86, 84
7, 38339, Note_on_c, 3, 86, 0
7, 38339, Note_on_c, 3, 91, 0
7, 38520, Note_on_c, 3, 88, 91
7, 38520, Note_on_c, 3, 85, 91
7, 38759, Note_on_c, 3, 85, 0
7, 38759, Note_on_c, 3, 88, 0
7, 38760, Note_on_c, 3, 89, 66
7, 38760, Note_on_c, 3, 84, 69
7, 38819, Note_on_c, 3, 84, 0
7, 38819, Note_on_c, 3, 89, 0
7, 39000, Note_on_c, 3, 86, 93
7, 39000, Note_on_c, 3, 82, 93
7, 39209, Note_on_c, 3, 82, 0
7, 39239, Note_on_c, 3, 86, 0
7, 39240, Note_on_c, 3, 82, 80
7, 39240, Note_on_c, 3, 87, 80
7, 39299, Note_on_c, 3, 87, 0
7, 39299, Note_on_c, 3, 82, 0
7, 39360, Note_on_c, 3, 87, 80
7, 39360, Note_on_c, 3, 91, 80
7, 39419, Note_on_c, 3, 91, 0
7, 39419, Note_on_c, 3, 87, 0
7, 39600, Note_on_c, 3, 86, 78
7, 39600, Note_on_c, 3, 89, 78
7, 39659, Note_on_c, 3, 89, 0
7, 39659, Note_on_c, 3, 86, 0
7, 39840, Note_on_c, 3, 84, 84
7, 39840, Note_on_c, 3, 87, 84
7, 39899, Note_on_c, 3, 87, 0
7, 39899, Note_on_c, 3, 84, 0
7, 40080, Note_on_c, 3, 81, 81
7, 40080, Note_on_c, 3, 84, 81
7, 40139, Note_on_c, 3, 84, 0
7, 40139, Note_on_c, 3, 81, 0
7, 42240, Note_on_c, 3, 82, 108
7, 42359, Note_on_c, 3, 82, 0
7, 42360, Note_on_c, 3, 83, 110
7, 42479, Note_on_c, 3, 83, 0
7, 42480, Note_on_c, 3, 84, 110
7, 42599, Note_on_c, 3, 84, 0
7, 42600, Note_on_c, 3, 81, 106
7, 42719, Note_on_c, 3, 81, 0
7, 42720, Note_on_c, 3, 82, 113
7, 42839, Note_on_c, 3, 82, 0
7, 42840, Note_on_c, 3, 83, 112
7, 42959, Note_on_c, 3, 83, 0
7, 42960, Note_on_c, 3, 84, 109
7, 43079, Note_on_c, 3, 84, 0
7, 43080, Note_on_c, 3, 81, 116
7, 43199, Note_on_c, 3, 81, 0
7, 43200, Note_on_c, 3, 89, 116
7, 43200, Note_on_c, 3, 86, 116
7, 43439, Note_on_c, 3, 86, 0
7, 43439, Note_on_c, 3, 89, 0
7, 43440, Note_on_c, 3, 87, 97
7, 43440, Note_on_c, 3, 84, 97
7, 43679, Note_on_c, 3, 84, 0
7, 43679, Note_on_c, 3, 87, 0
7, 43680, Note_on_c, 3, 86, 91
7, 43680, Note_on_c, 3, 82, 91
7, 43919, Note_on_c, 3, 82, 0
7, 43919, Note_on_c, 3, 86, 0
7, 43920, Note_on_c, 3, 81, 87
7, 43920, Note_on_c, 3, 84, 87
7, 44159, Note_on_c, 3, 84, 0
7, 44159, Note_on_c, 3, 81, 0
7, 44160, Note_on_c, 3, 82, 84
7, 44309, Note_on_c, 3, 82, 0
7, 44400, Note_on_c, 3, 82, 82
7, 44519, Note_on_c, 3, 82, 0
7, 44640, Note_on_c, 3, 82, 84
7, 44789, Note_on_c, 3, 82, 0
7, 44880, Note_on_c, 3, 82, 106
7, 44999, Note_on_c, 3, 82, 0
7, 45120, Note_on_c, 3, 82, 114
7, 45209, Note_on_c, 3, 82, 0
7, 45240, Note_on_c, 3, 82, 114
7, 45359, Note_on_c, 3, 82, 0
7, 45360, Note_on_c, 3, 77, 111
7, 45449, Note_on_c, 3, 77, 0
7, 45480, Note_on_c, 3, 74, 104
7, 45599, Note_on_c, 3, 74, 0
7, 45600, Note_on_c, 3, 70, 116
7, 45719, Note_on_c, 3, 70, 0
7, 45840, Note_on_c, 3, 82, 104
7, 45959, Note_on_c, 3, 82, 0
7, 45960, Note_on_c, 3, 82, 104
7, 46049, Note_on_c, 3, 82, 0
7, 46080, Note_on_c, 3, 82, 115
7, 46319, Note_on_c, 3, 82, 0
7, 46319, End_track
8, 0, Start_track
8, 0, MIDI_port, 0
8, 0, Title_t, "Clarinet"
8, 0, Program_c, 4, 71
8, 0, Control_c, 4, 7, 100
8, 0, Control_c, 4, 10, 50
8, 480, Control_c, 4, 121, 0
8, 480, Control_c, 4, 0, 0
8, 480, Program_c, 4, 71
8, 480, Pitch_bend_c, 4, 8192
8, 480, Control_c, 4, 7, 100
8, 480, Control_c, 4, 91, 100
8, 480, Control_c, 4, 93, 60
8, 480, Control_c, 4, 10, 80
8, 480, Note_on_c, 4, 70, 127
8, 719, Note_on_c, 4, 70, 0
8, 930, Note_on_c, 4, 75, 120
8, 959, Note_on_c, 4, 75, 0
8, 960, Note_on_c, 4, 75, 124
8, 1199, Note_on_c, 4, 75, 0
8, 1410, Note_on_c, 4, 70, 121
8, 1439, Note_on_c, 4, 70, 0
8, 1440, Note_on_c, 4, 70, 126
8, 1679, Note_on_c, 4, 70, 0
8, 2400, Note_on_c, 4, 72, 80
8, 2759, Note_on_c, 4, 72, 0
8, 3360, Note_on_c, 4, 70, 81
8, 3719, Note_on_c, 4, 70, 0
8, 6720, Note_on_c, 4, 72, 74
8, 6989, Note_on_c, 4, 72, 0
8, 7200, Note_on_c, 4, 70, 69
8, 7439, Note_on_c, 4, 70, 0
8, 17880, Note_on_c, 4, 73, 76
8, 18000, Note_on_c, 4, 72, 75
8, 18007, Note_on_c, 4, 73, 0
8, 18120, Note_on_c, 4, 71, 74
8, 18138, Note_on_c, 4, 72, 0
8, 18240, Note_on_c, 4, 70, 78
8, 18264, Note_on_c, 4, 71, 0
8, 18360, Note_on_c, 4, 72, 75
8, 18372, Note_on_c, 4, 70, 0
8, 18479, Note_on_c, 4, 72, 0
8, 18483, Note_on_c, 4, 70, 73
8, 18600, Note_on_c, 4, 68, 74
8, 18625, Note_on_c, 4, 70, 0
8, 18720, Note_on_c, 4, 67, 109
8, 18741, Note_on_c, 4, 68, 0
8, 18960, Note_on_c, 4, 63, 102
8, 18971, Note_on_c, 4, 67, 0
8, 19185, Note_on_c, 4, 63, 0
8, 19200, Note_on_c, 4, 65, 107
8, 19204, Note_on_c, 4, 70, 107
8, 19679, Note_on_c, 4, 65, 0
8, 19680, Note_on_c, 4, 67, 102
8, 19680, Note_on_c, 4, 63, 102
8, 19683, Note_on_c, 4, 70, 0
8, 19799, Note_on_c, 4, 63, 0
8, 19829, Note_on_c, 4, 67, 0
8, 19920, Note_on_c, 4, 67, 112
8, 19920, Note_on_c, 4, 75, 112
8, 20279, Note_on_c, 4, 75, 0
8, 20279, Note_on_c, 4, 67, 0
8, 20280, Note_on_c, 4, 74, 106
8, 20339, Note_on_c, 4, 74, 0
8, 20340, Note_on_c, 4, 72, 105
8, 20399, Note_on_c, 4, 72, 0
8, 20400, Note_on_c, 4, 70, 104
8, 20459, Note_on_c, 4, 70, 0
8, 20460, Note_on_c, 4, 68, 100
8, 20519, Note_on_c, 4, 68, 0
8, 20520, Note_on_c, 4, 67, 98
8, 20579, Note_on_c, 4, 67, 0
8, 20580, Note_on_c, 4, 65, 96
8, 20639, Note_on_c, 4, 65, 0
8, 20640, Note_on_c, 4, 67, 98
8, 20759, Note_on_c, 4, 67, 0
8, 20760, Note_on_c, 4, 75, 104
8, 20879, Note_on_c, 4, 75, 0
8, 20880, Note_on_c, 4, 72, 87
8, 20999, Note_on_c, 4, 72, 0
8, 21000, Note_on_c, 4, 74, 84
8, 21119, Note_on_c, 4, 74, 0
8, 21120, Note_on_c, 4, 70, 85
8, 21239, Note_on_c, 4, 70, 0
8, 21240, Note_on_c, 4, 72, 101
8, 21359, Note_on_c, 4, 72, 0
8, 21360, Note_on_c, 4, 69, 88
8, 21479, Note_on_c, 4, 69, 0
8, 21480, Note_on_c, 4, 70, 84
8, 21599, Note_on_c, 4, 70, 0
8, 21600, Note_on_c, 4, 67, 88
8, 21719, Note_on_c, 4, 67, 0
8, 21720, Note_on_c, 4, 68, 102
8, 21839, Note_on_c, 4, 68, 0
8, 21840, Note_on_c, 4, 65, 88
8, 21959, Note_on_c, 4, 65, 0
8, 21960, Note_on_c, 4, 67, 84
8, 22079, Note_on_c, 4, 67, 0
8, 22080, Note_on_c, 4, 75, 90
8, 22320, Note_on_c, 4, 77, 98
8, 22349, Note_on_c, 4, 75, 0
8, 22559, Note_on_c, 4, 77, 0
8, 22560, Note_on_c, 4, 79, 92
8, 22680, Note_on_c, 4, 75, 91
8, 22709, Note_on_c, 4, 79, 0
8, 22919, Note_on_c, 4, 75, 0
8, 22920, Note_on_c, 4, 74, 90
8, 23159, Note_on_c, 4, 74, 0
8, 23160, Note_on_c, 4, 72, 94
8, 23399, Note_on_c, 4, 72, 0
8, 23400, Note_on_c, 4, 70, 89
8, 23639, Note_on_c, 4, 70, 0
8, 23640, Note_on_c, 4, 68, 90
8, 23879, Note_on_c, 4, 68, 0
8, 23880, Note_on_c, 4, 67, 94
8, 23999, Note_on_c, 4, 67, 0
8, 24000, Note_on_c, 4, 75, 111
8, 24239, Note_on_c, 4, 75, 0
8, 24240, Note_on_c, 4, 74, 91
8, 24479, Note_on_c, 4, 74, 0
8, 24480, Note_on_c, 4, 69, 89
8, 25079, Note_on_c, 4, 69, 0
8, 25080, Note_on_c, 4, 70, 92
8, 25109, Note_on_c, 4, 70, 0
8, 25200, Note_on_c, 4, 75, 88
8, 25229, Note_on_c, 4, 75, 0
8, 25320, Note_on_c, 4, 74, 87
8, 25349, Note_on_c, 4, 74, 0
8, 25440, Note_on_c, 4, 72, 90
8, 25499, Note_on_c, 4, 72, 0
8, 25920, Note_on_c, 4, 76, 69
8, 26399, Note_on_c, 4, 76, 0
8, 26400, Note_on_c, 4, 77, 69
8, 26549, Note_on_c, 4, 77, 0
8, 26880, Note_on_c, 4, 76, 69
8, 27359, Note_on_c, 4, 76, 0
8, 27360, Note_on_c, 4, 77, 69
8, 27479, Note_on_c, 4, 77, 0
8, 31200, Note_on_c, 4, 69, 77
8, 31200, Note_on_c, 4, 72, 73
8, 31229, Note_on_c, 4, 72, 0
8, 31229, Note_on_c, 4, 69, 0
8, 31260, Note_on_c, 4, 72, 57
8, 31260, Note_on_c, 4, 69, 57
8, 31289, Note_on_c, 4, 69, 0
8, 31289, Note_on_c, 4, 72, 0
8, 31320, Note_on_c, 4, 72, 57
8, 31320, Note_on_c, 4, 69, 57
8, 31349, Note_on_c, 4, 69, 0
8, 31349, Note_on_c, 4, 72, 0
8, 31380, Note_on_c, 4, 72, 55
8, 31380, Note_on_c, 4, 69, 55
8, 31409, Note_on_c, 4, 69, 0
8, 31409, Note_on_c, 4, 72, 0
8, 31440, Note_on_c, 4, 72, 58
8, 31440, Note_on_c, 4, 69, 58
8, 31469, Note_on_c, 4, 69, 0
8, 31469, Note_on_c, 4, 72, 0
8, 31500, Note_on_c, 4, 72, 57
8, 31500, Note_on_c, 4, 69, 57
8, 31529, Note_on_c, 4, 69, 0
8, 31529, Note_on_c, 4, 72, 0
8, 31560, Note_on_c, 4, 74, 60
8, 31560, Note_on_c, 4, 70, 60
8, 31589, Note_on_c, 4, 70, 0
8, 31589, Note_on_c, 4, 74, 0
8, 31590, Note_on_c, 4, 69, 57
8, 31590, Note_on_c, 4, 72, 57
8, 31619, Note_on_c, 4, 72, 0
8, 31619, Note_on_c, 4, 69, 0
8, 31620, Note_on_c, 4, 67, 57
8, 31620, Note_on_c, 4, 70, 57
8, 31649, Note_on_c, 4, 70, 0
8, 31649, Note_on_c, 4, 67, 0
8, 31650, Note_on_c, 4, 72, 57
8, 31650, Note_on_c, 4, 69, 57
8, 31679, Note_on_c, 4, 69, 0
8, 31679, Note_on_c, 4, 72, 0
8, 31680, Note_on_c, 4, 70, 59
8, 31680, Note_on_c, 4, 74, 59
8, 31769, Note_on_c, 4, 74, 0
8, 31769, Note_on_c, 4, 70, 0
8, 32160, Note_on_c, 4, 69, 53
8, 32160, Note_on_c, 4, 72, 53
8, 32189, Note_on_c, 4, 72, 0
8, 32189, Note_on_c, 4, 69, 0
8, 32220, Note_on_c, 4, 72, 59
8, 32220, Note_on_c, 4, 69, 59
8, 32249, Note_on_c, 4, 69, 0
8, 32249, Note_on_c, 4, 72, 0
8, 32280, Note_on_c, 4, 72, 57
8, 32280, Note_on_c, 4, 69, 57
8, 32309, Note_on_c, 4, 69, 0
8, 32309, Note_on_c, 4, 72, 0
8, 32340, Note_on_c, 4, 72, 57
8, 32340, Note_on_c, 4, 69, 57
8, 32369, Note_on_c, 4, 69, 0
8, 32369, Note_on_c, 4, 72, 0
8, 32400, Note_on_c, 4, 72, 59
8, 32400, Note_on_c, 4, 69, 59
8, 32429, Note_on_c, 4, 69, 0
8, 32429, Note_on_c, 4, 72, 0
8, 32460, Note_on_c, 4, 72, 57
8, 32460, Note_on_c, 4, 69, 57
8, 32489, Note_on_c, 4, 69, 0
8, 32489, Note_on_c, 4, 72, 0
8, 32520, Note_on_c, 4, 74, 58
8, 32520, Note_on_c, 4, 70, 58
8, 32549, Note_on_c, 4, 70, 0
8, 32549, Note_on_c, 4, 74, 0
8, 32550, Note_on_c, 4, 69, 57
8, 32550, Note_on_c, 4, 72, 57
8, 32579, Note_on_c, 4, 72, 0
8, 32579, Note_on_c, 4, 69, 0
8, 32580, Note_on_c, 4, 67, 54
8, 32580, Note_on_c, 4, 70, 54
8, 32609, Note_on_c, 4, 70, 0
8, 32609, Note_on_c, 4, 67, 0
8, 32610, Note_on_c, 4, 72, 54
8, 32610, Note_on_c, 4, 69, 54
8, 32639, Note_on_c, 4, 69, 0
8, 32639, Note_on_c, 4, 72, 0
8, 32640, Note_on_c, 4, 65, 103
8, 32640, Note_on_c, 4, 74, 103
8, 32999, Note_on_c, 4, 74, 0
8, 33000, Note_on_c, 4, 75, 95
8, 33029, Note_on_c, 4, 75, 0
8, 33030, Note_on_c, 4, 74, 89
8, 33059, Note_on_c, 4, 74, 0
8, 33060, Note_on_c, 4, 72, 89
8, 33089, Note_on_c, 4, 72, 0
8, 33090, Note_on_c, 4, 74, 89
8, 33119, Note_on_c, 4, 74, 0
8, 33119, Note_on_c, 4, 65, 0
8, 33120, Note_on_c, 4, 66, 96
8, 33120, Note_on_c, 4, 75, 96
8, 33209, Note_on_c, 4, 75, 0
8, 33209, Note_on_c, 4, 66, 0
8, 33240, Note_on_c, 4, 81, 83
8, 33240, Note_on_c, 4, 78, 83
8, 33479, Note_on_c, 4, 78, 0
8, 33479, Note_on_c, 4, 81, 0
8, 33480, Note_on_c, 4, 82, 67
8, 33480, Note_on_c, 4, 79, 77
8, 33539, Note_on_c, 4, 79, 0
8, 33539, Note_on_c, 4, 82, 0
8, 33720, Note_on_c, 4, 79, 67
8, 33720, Note_on_c, 4, 76, 88
8, 33959, Note_on_c, 4, 76, 0
8, 33959, Note_on_c, 4, 79, 0
8, 33960, Note_on_c, 4, 80, 67
8, 33960, Note_on_c, 4, 77, 82
8, 34019, Note_on_c, 4, 77, 0
8, 34019, Note_on_c, 4, 80, 0
8, 34200, Note_on_c, 4, 77, 67
8, 34200, Note_on_c, 4, 74, 75
8, 34439, Note_on_c, 4, 74, 0
8, 34439, Note_on_c, 4, 77, 0
8, 34440, Note_on_c, 4, 79, 67
8, 34440, Note_on_c, 4, 75, 67
8, 34499, Note_on_c, 4, 75, 0
8, 34499, Note_on_c, 4, 79, 0
8, 34560, Note_on_c, 4, 75, 67
8, 34560, Note_on_c, 4, 79, 81
8, 34679, Note_on_c, 4, 79, 0
8, 34679, Note_on_c, 4, 75, 0
8, 34800, Note_on_c, 4, 74, 67
8, 34800, Note_on_c, 4, 77, 75
8, 34919, Note_on_c, 4, 77, 0
8, 34919, Note_on_c, 4, 74, 0
8, 35040, Note_on_c, 4, 72, 67
8, 35040, Note_on_c, 4, 75, 74
8, 35159, Note_on_c, 4, 75, 0
8, 35159, Note_on_c, 4, 72, 0
8, 35280, Note_on_c, 4, 69, 67
8, 35280, Note_on_c, 4, 72, 69
8, 35399, Note_on_c, 4, 72, 0
8, 35399, Note_on_c, 4, 69, 0
8, 36000, Note_on_c, 4, 69, 52
8, 36000, Note_on_c, 4, 72, 52
8, 36029, Note_on_c, 4, 72, 0
8, 36029, Note_on_c, 4, 69, 0
8, 36060, Note_on_c, 4, 72, 53
8, 36060, Note_on_c, 4, 69, 53
8, 36089, Note_on_c, 4, 69, 0
8, 36089, Note_on_c, 4, 72, 0
8, 36120, Note_on_c, 4, 72, 52
8, 36120, Note_on_c, 4, 69, 52
8, 36149, Note_on_c, 4, 69, 0
8, 36149, Note_on_c, 4, 72, 0
8, 36180, Note_on_c, 4, 72, 49
8, 36180, Note_on_c, 4, 69, 49
8, 36209, Note_on_c, 4, 69, 0
8, 36209, Note_on_c, 4, 72, 0
8, 36240, Note_on_c, 4, 72, 50
8, 36240, Note_on_c, 4, 69, 50
8, 36269, Note_on_c, 4, 69, 0
8, 36269, Note_on_c, 4, 72, 0
8, 36300, Note_on_c, 4, 72, 56
8, 36300, Note_on_c, 4, 69, 56
8, 36329, Note_on_c, 4, 69, 0
8, 36329, Note_on_c, 4, 72, 0
8, 36360, Note_on_c, 4, 74, 57
8, 36360, Note_on_c, 4, 70, 57
8, 36389, Note_on_c, 4, 70, 0
8, 36389, Note_on_c, 4, 74, 0
8, 36390, Note_on_c, 4, 69, 54
8, 36390, Note_on_c, 4, 72, 54
8, 36419, Note_on_c, 4, 72, 0
8, 36419, Note_on_c, 4, 69, 0
8, 36420, Note_on_c, 4, 67, 52
8, 36420, Note_on_c, 4, 70, 52
8, 36449, Note_on_c, 4, 70, 0
8, 36449, Note_on_c, 4, 67, 0
8, 36450, Note_on_c, 4, 72, 52
8, 36450, Note_on_c, 4, 69, 52
8, 36479, Note_on_c, 4, 69, 0
8, 36479, Note_on_c, 4, 72, 0
8, 36480, Note_on_c, 4, 70, 52
8, 36480, Note_on_c, 4, 74, 52
8, 36569, Note_on_c, 4, 74, 0
8, 36569, Note_on_c, 4, 70, 0
8, 36960, Note_on_c, 4, 69, 48
8, 36960, Note_on_c, 4, 72, 48
8, 36989, Note_on_c, 4, 72, 0
8, 36989, Note_on_c, 4, 69, 0
8, 37020, Note_on_c, 4, 72, 49
8, 37020, Note_on_c, 4, 69, 49
8, 37049, Note_on_c, 4, 69, 0
8, 37049, Note_on_c, 4, 72, 0
8, 37080, Note_on_c, 4, 72, 52
8, 37080, Note_on_c, 4, 69, 52
8, 37109, Note_on_c, 4, 69, 0
8, 37109, Note_on_c, 4, 72, 0
8, 37140, Note_on_c, 4, 72, 53
8, 37140, Note_on_c, 4, 69, 53
8, 37169, Note_on_c, 4, 69, 0
8, 37169, Note_on_c, 4, 72, 0
8, 37200, Note_on_c, 4, 72, 52
8, 37200, Note_on_c, 4, 69, 52
8, 37229, Note_on_c, 4, 69, 0
8, 37229, Note_on_c, 4, 72, 0
8, 37260, Note_on_c, 4, 72, 50
8, 37260, Note_on_c, 4, 69, 50
8, 37289, Note_on_c, 4, 69, 0
8, 37289, Note_on_c, 4, 72, 0
8, 37320, Note_on_c, 4, 74, 50
8, 37320, Note_on_c, 4, 70, 50
8, 37349, Note_on_c, 4, 70, 0
8, 37349, Note_on_c, 4, 74, 0
8, 37350, Note_on_c, 4, 69, 54
8, 37350, Note_on_c, 4, 72, 54
8, 37379, Note_on_c, 4, 72, 0
8, 37379, Note_on_c, 4, 69, 0
8, 37380, Note_on_c, 4, 67, 56
8, 37380, Note_on_c, 4, 70, 56
8, 37409, Note_on_c, 4, 70, 0
8, 37409, Note_on_c, 4, 67, 0
8, 37410, Note_on_c, 4, 72, 52
8, 37410, Note_on_c, 4, 69, 52
8, 37439, Note_on_c, 4, 69, 0
8, 37439, Note_on_c, 4, 72, 0
8, 37440, Note_on_c, 4, 65, 98
8, 37440, Note_on_c, 4, 74, 98
8, 37799, Note_on_c, 4, 74, 0
8, 37800, Note_on_c, 4, 75, 95
8, 37829, Note_on_c, 4, 75, 0
8, 37830, Note_on_c, 4, 74, 89
8, 37859, Note_on_c, 4, 74, 0
8, 37860, Note_on_c, 4, 72, 89
8, 37889, Note_on_c, 4, 72, 0
8, 37890, Note_on_c, 4, 74, 89
8, 37919, Note_on_c, 4, 74, 0
8, 37919, Note_on_c, 4, 65, 0
8, 37920, Note_on_c, 4, 66, 96
8, 37920, Note_on_c, 4, 75, 96
8, 38009, Note_on_c, 4, 75, 0
8, 38009, Note_on_c, 4, 66, 0
8, 38040, Note_on_c, 4, 81, 83
8, 38040, Note_on_c, 4, 78, 83
8, 38279, Note_on_c, 4, 78, 0
8, 38279, Note_on_c, 4, 81, 0
8, 38280, Note_on_c, 4, 82, 67
8, 38280, Note_on_c, 4, 79, 77
8, 38339, Note_on_c, 4, 79, 0
8, 38339, Note_on_c, 4, 82, 0
8, 38520, Note_on_c, 4, 79, 67
8, 38520, Note_on_c, 4, 76, 88
8, 38759, Note_on_c, 4, 76, 0
8, 38759, Note_on_c, 4, 79, 0
8, 38760, Note_on_c, 4, 80, 67
8, 38760, Note_on_c, 4, 77, 82
8, 38819, Note_on_c, 4, 77, 0
8, 38819, Note_on_c, 4, 80, 0
8, 39000, Note_on_c, 4, 77, 67
8, 39000, Note_on_c, 4, 74, 75
8, 39239, Note_on_c, 4, 74, 0
8, 39239, Note_on_c, 4, 77, 0
8, 39240, Note_on_c, 4, 79, 67
8, 39240, Note_on_c, 4, 75, 67
8, 39299, Note_on_c, 4, 75, 0
8, 39299, Note_on_c, 4, 79, 0
8, 39360, Note_on_c, 4, 79, 81
8, 39479, Note_on_c, 4, 79, 0
8, 39600, Note_on_c, 4, 77, 75
8, 39719, Note_on_c, 4, 77, 0
8, 39840, Note_on_c, 4, 75, 74
8, 39959, Note_on_c, 4, 75, 0
8, 40080, Note_on_c, 4, 72, 69
8, 40199, Note_on_c, 4, 72, 0
8, 41280, Note_on_c, 4, 70, 44
8, 41399, Note_on_c, 4, 70, 0
8, 41400, Note_on_c, 4, 71, 49
8, 41519, Note_on_c, 4, 71, 0
8, 41520, Note_on_c, 4, 72, 61
8, 41639, Note_on_c, 4, 72, 0
8, 41640, Note_on_c, 4, 69, 53
8, 41759, Note_on_c, 4, 69, 0
8, 41760, Note_on_c, 4, 70, 54
8, 41879, Note_on_c, 4, 70, 0
8, 41880, Note_on_c, 4, 71, 48
8, 41880, Note_on_c, 4, 71, 44
8, 41999, Note_on_c, 4, 71, 0
8, 41999, Note_on_c, 4, 71, 0
8, 42000, Note_on_c, 4, 72, 59
8, 42000, Note_on_c, 4, 72, 59
8, 42119, Note_on_c, 4, 72, 0
8, 42119, Note_on_c, 4, 72, 0
8, 42120, Note_on_c, 4, 69, 52
8, 42120, Note_on_c, 4, 69, 44
8, 42239, Note_on_c, 4, 69, 0
8, 42239, Note_on_c, 4, 69, 0
8, 42240, Note_on_c, 4, 70, 62
8, 42359, Note_on_c, 4, 70, 0
8, 42360, Note_on_c, 4, 71, 70
8, 42479, Note_on_c, 4, 71, 0
8, 42480, Note_on_c, 4, 72, 68
8, 42599, Note_on_c, 4, 72, 0
8, 42600, Note_on_c, 4, 69, 64
8, 42719, Note_on_c, 4, 69, 0
8, 42720, Note_on_c, 4, 70, 73
8, 42839, Note_on_c, 4, 70, 0
8, 42840, Note_on_c, 4, 71, 78
8, 42840, Note_on_c, 4, 71, 78
8, 42959, Note_on_c, 4, 71, 0
8, 42959, Note_on_c, 4, 71, 0
8, 42960, Note_on_c, 4, 72, 74
8, 42960, Note_on_c, 4, 72, 74
8, 43079, Note_on_c, 4, 72, 0
8, 43079, Note_on_c, 4, 72, 0
8, 43080, Note_on_c, 4, 69, 70
8, 43080, Note_on_c, 4, 69, 70
8, 43199, Note_on_c, 4, 69, 0
8, 43199, Note_on_c, 4, 69, 0
8, 43200, Note_on_c, 4, 77, 90
8, 43439, Note_on_c, 4, 77, 0
8, 43440, Note_on_c, 4, 75, 87
8, 43679, Note_on_c, 4, 75, 0
8, 43680, Note_on_c, 4, 74, 82
8, 43919, Note_on_c, 4, 74, 0
8, 43920, Note_on_c, 4, 72, 84
8, 44159, Note_on_c, 4, 72, 0
8, 44160, Note_on_c, 4, 70, 103
8, 44249, Note_on_c, 4, 70, 0
8, 44400, Note_on_c, 4, 70, 101
8, 44489, Note_on_c, 4, 70, 0
8, 44640, Note_on_c, 4, 70, 103
8, 44729, Note_on_c, 4, 70, 0
8, 44880, Note_on_c, 4, 70, 99
8, 44969, Note_on_c, 4, 70, 0
8, 45120, Note_on_c, 4, 70, 105
8, 45209, Note_on_c, 4, 70, 0
8, 45240, Note_on_c, 4, 82, 101
8, 45359, Note_on_c, 4, 82, 0
8, 45360, Note_on_c, 4, 77, 103
8, 45479, Note_on_c, 4, 77, 0
8, 45480, Note_on_c, 4, 74, 103
8, 45599, Note_on_c, 4, 74, 0
8, 45600, Note_on_c, 4, 70, 109
8, 45719, Note_on_c, 4, 70, 0
8, 45840, Note_on_c, 4, 70, 110
8, 45929, Note_on_c, 4, 70, 0
8, 45960, Note_on_c, 4, 70, 109
8, 46049, Note_on_c, 4, 70, 0
8, 46080, Note_on_c, 4, 70, 109
8, 46439, Note_on_c, 4, 70, 0
8, 46439, End_track
9, 0, Start_track
9, 0, MIDI_port, 0
9, 0, Title_t, "Trombone"
9, 0, Program_c, 5, 57
9, 0, Control_c, 5, 7, 100
9, 0, Control_c, 5, 10, 64
9, 480, Control_c, 5, 121, 0
9, 480, Control_c, 5, 0, 0
9, 480, Program_c, 5, 57
9, 480, Pitch_bend_c, 5, 8192
9, 480, Control_c, 5, 7, 100
9, 480, Control_c, 5, 91, 100
9, 480, Control_c, 5, 93, 0
9, 480, Control_c, 5, 10, 10
9, 480, Note_on_c, 5, 51, 90
9, 629, Note_on_c, 5, 51, 0
9, 930, Note_on_c, 5, 55, 100
9, 930, Note_on_c, 5, 48, 88
9, 959, Note_on_c, 5, 48, 0
9, 959, Note_on_c, 5, 55, 0
9, 960, Note_on_c, 5, 55, 100
9, 960, Note_on_c, 5, 48, 100
9, 1109, Note_on_c, 5, 48, 0
9, 1139, Note_on_c, 5, 55, 0
9, 1410, Note_on_c, 5, 58, 100
9, 1410, Note_on_c, 5, 43, 88
9, 1439, Note_on_c, 5, 43, 0
9, 1439, Note_on_c, 5, 58, 0
9, 1440, Note_on_c, 5, 58, 100
9, 1440, Note_on_c, 5, 43, 81
9, 1679, Note_on_c, 5, 43, 0
9, 1679, Note_on_c, 5, 58, 0
9, 2400, Note_on_c, 5, 44, 72
9, 2759, Note_on_c, 5, 44, 0
9, 3360, Note_on_c, 5, 46, 74
9, 3719, Note_on_c, 5, 46, 0
9, 4440, Note_on_c, 5, 58, 55
9, 4559, Note_on_c, 5, 58, 0
9, 4560, Note_on_c, 5, 58, 51
9, 4679, Note_on_c, 5, 58, 0
9, 5400, Note_on_c, 5, 57, 54
9, 5519, Note_on_c, 5, 57, 0
9, 5520, Note_on_c, 5, 57, 50
9, 5639, Note_on_c, 5, 57, 0
9, 6360, Note_on_c, 5, 46, 51
9, 6599, Note_on_c, 5, 46, 0
9, 6840, Note_on_c, 5, 45, 46
9, 7079, Note_on_c, 5, 45, 0
9, 7320, Note_on_c, 5, 46, 39
9, 7439, Note_on_c, 5, 46, 0
9, 7560, Note_on_c, 5, 46, 37
9, 7679, Note_on_c, 5, 46, 0
9, 18720, Note_on_c, 5, 51, 86
9, 18959, Note_on_c, 5, 51, 0
9, 19200, Note_on_c, 5, 58, 89
9, 19469, Note_on_c, 5, 58, 0
9, 19680, Note_on_c, 5, 51, 82
9, 20159, Note_on_c, 5, 51, 0
9, 20160, Note_on_c, 5, 46, 77
9, 20639, Note_on_c, 5, 46, 0
9, 20640, Note_on_c, 5, 51, 73
9, 20759, Note_on_c, 5, 51, 0
9, 21120, Note_on_c, 5, 48, 77
9, 21239, Note_on_c, 5, 48, 0
9, 21600, Note_on_c, 5, 44, 81
9, 21719, Note_on_c, 5, 44, 0
9, 22080, Note_on_c, 5, 53, 73
9, 22319, Note_on_c, 5, 53, 0
9, 22320, Note_on_c, 5, 46, 67
9, 22559, Note_on_c, 5, 46, 0
9, 22560, Note_on_c, 5, 51, 77
9, 22679, Note_on_c, 5, 51, 0
9, 24000, Note_on_c, 5, 45, 69
9, 24239, Note_on_c, 5, 45, 0
9, 24240, Note_on_c, 5, 46, 71
9, 24479, Note_on_c, 5, 46, 0
9, 24480, Note_on_c, 5, 48, 77
9, 24959, Note_on_c, 5, 48, 0
9, 25920, Note_on_c, 5, 53, 77
9, 26339, Note_on_c, 5, 53, 0
9, 26400, Note_on_c, 5, 53, 69
9, 26519, Note_on_c, 5, 53, 0
9, 26880, Note_on_c, 5, 53, 77
9, 27359, Note_on_c, 5, 53, 0
9, 27360, Note_on_c, 5, 53, 73
9, 27449, Note_on_c, 5, 53, 0
9, 32640, Note_on_c, 5, 58, 100
9, 32640, Note_on_c, 5, 46, 81
9, 32699, Note_on_c, 5, 58, 0
9, 32700, Note_on_c, 5, 58, 100
9, 32759, Note_on_c, 5, 58, 0
9, 32760, Note_on_c, 5, 58, 100
9, 32819, Note_on_c, 5, 58, 0
9, 32820, Note_on_c, 5, 58, 100
9, 32879, Note_on_c, 5, 58, 0
9, 32880, Note_on_c, 5, 58, 100
9, 32909, Note_on_c, 5, 46, 0
9, 32939, Note_on_c, 5, 58, 0
9, 34560, Note_on_c, 5, 51, 69
9, 34649, Note_on_c, 5, 51, 0
9, 34800, Note_on_c, 5, 46, 67
9, 34889, Note_on_c, 5, 46, 0
9, 35040, Note_on_c, 5, 51, 73
9, 35159, Note_on_c, 5, 51, 0
9, 35280, Note_on_c, 5, 53, 75
9, 35369, Note_on_c, 5, 53, 0
9, 37440, Note_on_c, 5, 46, 86
9, 37679, Note_on_c, 5, 46, 0
9, 39360, Note_on_c, 5, 51, 81
9, 39479, Note_on_c, 5, 51, 0
9, 39600, Note_on_c, 5, 46, 81
9, 39719, Note_on_c, 5, 46, 0
9, 39840, Note_on_c, 5, 51, 81
9, 39959, Note_on_c, 5, 51, 0
9, 40080, Note_on_c, 5, 53, 81
9, 40199, Note_on_c, 5, 53, 0
9, 42240, Note_on_c, 5, 50, 65
9, 42479, Note_on_c, 5, 50, 0
9, 42480, Note_on_c, 5, 51, 68
9, 42719, Note_on_c, 5, 51, 0
9, 42720, Note_on_c, 5, 50, 71
9, 42959, Note_on_c, 5, 50, 0
9, 42960, Note_on_c, 5, 51, 73
9, 43199, Note_on_c, 5, 51, 0
9, 43200, Note_on_c, 5, 50, 89
9, 43439, Note_on_c, 5, 50, 0
9, 43440, Note_on_c, 5, 51, 91
9, 43679, Note_on_c, 5, 51, 0
9, 43680, Note_on_c, 5, 53, 94
9, 43920, Note_on_c, 5, 41, 92
9, 43949, Note_on_c, 5, 53, 0
9, 44159, Note_on_c, 5, 41, 0
9, 44160, Note_on_c, 5, 46, 108
9, 44249, Note_on_c, 5, 46, 0
9, 44400, Note_on_c, 5, 46, 93
9, 44489, Note_on_c, 5, 46, 0
9, 44640, Note_on_c, 5, 46, 98
9, 44759, Note_on_c, 5, 46, 0
9, 44880, Note_on_c, 5, 46, 95
9, 44969, Note_on_c, 5, 46, 0
9, 45120, Note_on_c, 5, 46, 93
9, 45209, Note_on_c, 5, 46, 0
9, 45240, Note_on_c, 5, 46, 87
9, 45299, Note_on_c, 5, 46, 0
9, 45360, Note_on_c, 5, 53, 85
9, 45419, Note_on_c, 5, 53, 0
9, 45480, Note_on_c, 5, 50, 87
9, 45539, Note_on_c, 5, 50, 0
9, 45600, Note_on_c, 5, 46, 88
9, 45719, Note_on_c, 5, 46, 0
9, 45840, Note_on_c, 5, 46, 100
9, 45899, Note_on_c, 5, 46, 0
9, 45960, Note_on_c, 5, 46, 108
9, 46049, Note_on_c, 5, 46, 0
9, 46080, Note_on_c, 5, 46, 108
9, 46319, Note_on_c, 5, 46, 0
9, 46319, End_track
10, 0, Start_track
10, 0, MIDI_port, 0
10, 0, Title_t, "Bassoon"
10, 0, Program_c, 6, 70
10, 0, Control_c, 6, 7, 100
10, 0, Control_c, 6, 10, 40
10, 480, Note_on_c, 6, 51, 123
10, 480, Control_c, 6, 121, 0
10, 480, Control_c, 6, 0, 0
10, 480, Program_c, 6, 70
10, 480, Pitch_bend_c, 6, 8192
10, 480, Control_c, 6, 7, 100
10, 480, Control_c, 6, 91, 70
10, 480, Control_c, 6, 93, 0
10, 480, Control_c, 6, 10, 110
10, 719, Note_on_c, 6, 51, 0
10, 930, Note_on_c, 6, 60, 118
10, 959, Note_on_c, 6, 60, 0
10, 960, Note_on_c, 6, 60, 124
10, 1199, Note_on_c, 6, 60, 0
10, 1410, Note_on_c, 6, 51, 120
10, 1439, Note_on_c, 6, 51, 0
10, 1440, Note_on_c, 6, 51, 127
10, 1739, Note_on_c, 6, 51, 0
10, 1920, Note_on_c, 6, 44, 77
10, 2130, Note_on_c, 6, 48, 73
10, 2159, Note_on_c, 6, 48, 0
10, 2159, Note_on_c, 6, 44, 0
10, 2160, Note_on_c, 6, 51, 74
10, 2369, Note_on_c, 6, 51, 0
10, 2370, Note_on_c, 6, 48, 69
10, 2399, Note_on_c, 6, 48, 0
10, 2400, Note_on_c, 6, 44, 74
10, 2849, Note_on_c, 6, 44, 0
10, 2880, Note_on_c, 6, 46, 69
10, 3089, Note_on_c, 6, 46, 0
10, 3090, Note_on_c, 6, 49, 67
10, 3119, Note_on_c, 6, 49, 0
10, 3120, Note_on_c, 6, 55, 72
10, 3329, Note_on_c, 6, 55, 0
10, 3330, Note_on_c, 6, 49, 66
10, 3359, Note_on_c, 6, 49, 0
10, 3360, Note_on_c, 6, 46, 72
10, 3839, Note_on_c, 6, 46, 0
10, 3840, Note_on_c, 6, 60, 50
10, 4019, Note_on_c, 6, 60, 0
10, 4050, Note_on_c, 6, 60, 50
10, 4080, Note_on_c, 6, 58, 56
10, 4109, Note_on_c, 6, 60, 0
10, 4259, Note_on_c, 6, 58, 0
10, 4290, Note_on_c, 6, 58, 52
10, 4320, Note_on_c, 6, 56, 58
10, 4349, Note_on_c, 6, 58, 0
10, 4559, Note_on_c, 6, 56, 0
10, 4680, Note_on_c, 6, 58, 52
10, 4799, Note_on_c, 6, 58, 0
10, 4800, Note_on_c, 6, 60, 61
10, 4949, Note_on_c, 6, 60, 0
10, 5010, Note_on_c, 6, 60, 48
10, 5040, Note_on_c, 6, 58, 55
10, 5069, Note_on_c, 6, 60, 0
10, 5219, Note_on_c, 6, 58, 0
10, 5250, Note_on_c, 6, 58, 52
10, 5280, Note_on_c, 6, 57, 58
10, 5309, Note_on_c, 6, 58, 0
10, 5519, Note_on_c, 6, 57, 0
10, 5640, Note_on_c, 6, 58, 70
10, 5759, Note_on_c, 6, 58, 0
10, 5760, Note_on_c, 6, 60, 74
10, 5909, Note_on_c, 6, 60, 0
10, 5970, Note_on_c, 6, 60, 60
10, 6000, Note_on_c, 6, 59, 70
10, 6029, Note_on_c, 6, 60, 0
10, 6149, Note_on_c, 6, 59, 0
10, 6210, Note_on_c, 6, 59, 65
10, 6240, Note_on_c, 6, 58, 69
10, 6269, Note_on_c, 6, 59, 0
10, 6509, Note_on_c, 6, 58, 0
10, 6600, Note_on_c, 6, 58, 65
10, 6719, Note_on_c, 6, 58, 0
10, 6720, Note_on_c, 6, 57, 60
10, 6869, Note_on_c, 6, 57, 0
10, 7080, Note_on_c, 6, 57, 39
10, 7199, Note_on_c, 6, 57, 0
10, 7200, Note_on_c, 6, 58, 41
10, 7289, Note_on_c, 6, 58, 0
10, 7440, Note_on_c, 6, 46, 37
10, 7559, Note_on_c, 6, 46, 0
10, 12960, Note_on_c, 6, 51, 50
10, 12989, Note_on_c, 6, 51, 0
10, 13020, Note_on_c, 6, 51, 56
10, 13049, Note_on_c, 6, 51, 0
10, 13080, Note_on_c, 6, 51, 56
10, 13109, Note_on_c, 6, 51, 0
10, 13140, Note_on_c, 6, 51, 52
10, 13169, Note_on_c, 6, 51, 0
10, 13200, Note_on_c, 6, 51, 52
10, 13229, Note_on_c, 6, 51, 0
10, 13260, Note_on_c, 6, 51, 51
10, 13289, Note_on_c, 6, 51, 0
10, 13320, Note_on_c, 6, 53, 98
10, 13349, Note_on_c, 6, 53, 0
10, 13350, Note_on_c, 6, 51, 96
10, 13379, Note_on_c, 6, 51, 0
10, 13380, Note_on_c, 6, 50, 94
10, 13409, Note_on_c, 6, 50, 0
10, 13410, Note_on_c, 6, 51, 96
10, 13439, Note_on_c, 6, 51, 0
10, 13440, Note_on_c, 6, 58, 49
10, 13469, Note_on_c, 6, 58, 0
10, 13500, Note_on_c, 6, 58, 47
10, 13529, Note_on_c, 6, 58, 0
10, 13560, Note_on_c, 6, 58, 51
10, 13589, Note_on_c, 6, 58, 0
10, 13620, Note_on_c, 6, 58, 44
10, 13649, Note_on_c, 6, 58, 0
10, 13680, Note_on_c, 6, 58, 49
10, 13709, Note_on_c, 6, 58, 0
10, 13740, Note_on_c, 6, 58, 45
10, 13769, Note_on_c, 6, 58, 0
10, 13800, Note_on_c, 6, 60, 91
10, 13829, Note_on_c, 6, 60, 0
10, 13830, Note_on_c, 6, 58, 89
10, 13859, Note_on_c, 6, 58, 0
10, 13860, Note_on_c, 6, 57, 87
10, 13889, Note_on_c, 6, 57, 0
10, 13890, Note_on_c, 6, 58, 87
10, 13919, Note_on_c, 6, 58, 0
10, 13920, Note_on_c, 6, 55, 52
10, 13949, Note_on_c, 6, 55, 0
10, 13980, Note_on_c, 6, 55, 54
10, 14009, Note_on_c, 6, 55, 0
10, 14040, Note_on_c, 6, 60, 52
10, 14069, Note_on_c, 6, 60, 0
10, 14100, Note_on_c, 6, 60, 52
10, 14129, Note_on_c, 6, 60, 0
10, 14160, Note_on_c, 6, 53, 51
10, 14189, Note_on_c, 6, 53, 0
10, 14220, Note_on_c, 6, 53, 52
10, 14249, Note_on_c, 6, 53, 0
10, 14280, Note_on_c, 6, 58, 97
10, 14309, Note_on_c, 6, 58, 0
10, 14340, Note_on_c, 6, 58, 96
10, 14369, Note_on_c, 6, 58, 0
10, 14400, Note_on_c, 6, 55, 53
10, 14429, Note_on_c, 6, 55, 0
10, 14460, Note_on_c, 6, 55, 50
10, 14489, Note_on_c, 6, 55, 0
10, 14520, Note_on_c, 6, 60, 52
10, 14549, Note_on_c, 6, 60, 0
10, 14580, Note_on_c, 6, 60, 50
10, 14609, Note_on_c, 6, 60, 0
10, 14640, Note_on_c, 6, 53, 54
10, 14669, Note_on_c, 6, 53, 0
10, 14700, Note_on_c, 6, 53, 48
10, 14729, Note_on_c, 6, 53, 0
10, 14760, Note_on_c, 6, 58, 97
10, 14789, Note_on_c, 6, 58, 0
10, 14820, Note_on_c, 6, 58, 96
10, 14849, Note_on_c, 6, 58, 0
10, 14880, Note_on_c, 6, 51, 51
10, 14909, Note_on_c, 6, 51, 0
10, 14940, Note_on_c, 6, 51, 51
10, 14969, Note_on_c, 6, 51, 0
10, 15000, Note_on_c, 6, 53, 53
10, 15029, Note_on_c, 6, 53, 0
10, 15060, Note_on_c, 6, 53, 55
10, 15089, Note_on_c, 6, 53, 0
10, 15120, Note_on_c, 6, 50, 53
10, 15149, Note_on_c, 6, 50, 0
10, 15180, Note_on_c, 6, 50, 55
10, 15209, Note_on_c, 6, 50, 0
10, 15240, Note_on_c, 6, 55, 55
10, 15269, Note_on_c, 6, 55, 0
10, 15300, Note_on_c, 6, 55, 54
10, 15329, Note_on_c, 6, 55, 0
10, 15360, Note_on_c, 6, 51, 60
10, 15449, Note_on_c, 6, 51, 0
10, 15480, Note_on_c, 6, 58, 68
10, 15719, Note_on_c, 6, 58, 0
10, 15720, Note_on_c, 6, 57, 62
10, 15749, Note_on_c, 6, 57, 0
10, 15840, Note_on_c, 6, 46, 49
10, 15869, Note_on_c, 6, 46, 0
10, 15900, Note_on_c, 6, 46, 50
10, 15929, Note_on_c, 6, 46, 0
10, 15960, Note_on_c, 6, 46, 49
10, 15989, Note_on_c, 6, 46, 0
10, 16020, Note_on_c, 6, 46, 48
10, 16049, Note_on_c, 6, 46, 0
10, 16080, Note_on_c, 6, 46, 46
10, 16109, Note_on_c, 6, 46, 0
10, 16140, Note_on_c, 6, 46, 47
10, 16169, Note_on_c, 6, 46, 0
10, 16200, Note_on_c, 6, 48, 90
10, 16229, Note_on_c, 6, 48, 0
10, 16230, Note_on_c, 6, 46, 87
10, 16259, Note_on_c, 6, 46, 0
10, 16260, Note_on_c, 6, 45, 84
10, 16289, Note_on_c, 6, 45, 0
10, 16290, Note_on_c, 6, 46, 85
10, 16319, Note_on_c, 6, 46, 0
10, 16320, Note_on_c, 6, 53, 54
10, 16349, Note_on_c, 6, 53, 0
10, 16380, Note_on_c, 6, 53, 52
10, 16409, Note_on_c, 6, 53, 0
10, 16440, Note_on_c, 6, 53, 50
10, 16469, Note_on_c, 6, 53, 0
10, 16500, Note_on_c, 6, 53, 51
10, 16529, Note_on_c, 6, 53, 0
10, 16560, Note_on_c, 6, 53, 51
10, 16589, Note_on_c, 6, 53, 0
10, 16620, Note_on_c, 6, 53, 48
10, 16649, Note_on_c, 6, 53, 0
10, 16680, Note_on_c, 6, 55, 96
10, 16709, Note_on_c, 6, 55, 0
10, 16710, Note_on_c, 6, 53, 94
10, 16739, Note_on_c, 6, 53, 0
10, 16740, Note_on_c, 6, 52, 93
10, 16769, Note_on_c, 6, 52, 0
10, 16770, Note_on_c, 6, 53, 94
10, 16799, Note_on_c, 6, 53, 0
10, 16800, Note_on_c, 6, 50, 67
10, 16829, Note_on_c, 6, 50, 0
10, 16860, Note_on_c, 6, 50, 64
10, 16889, Note_on_c, 6, 50, 0
10, 16920, Note_on_c, 6, 55, 72
10, 16949, Note_on_c, 6, 55, 0
10, 16980, Note_on_c, 6, 55, 66
10, 17009, Note_on_c, 6, 55, 0
10, 17040, Note_on_c, 6, 48, 72
10, 17069, Note_on_c, 6, 48, 0
10, 17100, Note_on_c, 6, 48, 68
10, 17129, Note_on_c, 6, 48, 0
10, 17160, Note_on_c, 6, 53, 72
10, 17189, Note_on_c, 6, 53, 0
10, 17220, Note_on_c, 6, 53, 68
10, 17249, Note_on_c, 6, 53, 0
10, 17280, Note_on_c, 6, 50, 70
10, 17309, Note_on_c, 6, 50, 0
10, 17340, Note_on_c, 6, 50, 73
10, 17369, Note_on_c, 6, 50, 0
10, 17400, Note_on_c, 6, 55, 70
10, 17429, Note_on_c, 6, 55, 0
10, 17460, Note_on_c, 6, 55, 70
10, 17489, Note_on_c, 6, 55, 0
10, 17520, Note_on_c, 6, 48, 77
10, 17549, Note_on_c, 6, 48, 0
10, 17580, Note_on_c, 6, 48, 77
10, 17609, Note_on_c, 6, 48, 0
10, 17640, Note_on_c, 6, 53, 71
10, 17669, Note_on_c, 6, 53, 0
10, 17700, Note_on_c, 6, 53, 81
10, 17729, Note_on_c, 6, 53, 0
10, 17760, Note_on_c, 6, 58, 73
10, 17789, Note_on_c, 6, 58, 0
10, 17820, Note_on_c, 6, 58, 68
10, 17849, Note_on_c, 6, 58, 0
10, 17880, Note_on_c, 6, 64, 70
10, 17909, Note_on_c, 6, 64, 0
10, 17940, Note_on_c, 6, 64, 67
10, 17969, Note_on_c, 6, 64, 0
10, 18000, Note_on_c, 6, 65, 67
10, 18029, Note_on_c, 6, 65, 0
10, 18060, Note_on_c, 6, 65, 77
10, 18089, Note_on_c, 6, 65, 0
10, 18120, Note_on_c, 6, 62, 81
10, 18149, Note_on_c, 6, 62, 0
10, 18180, Note_on_c, 6, 62, 77
10, 18209, Note_on_c, 6, 62, 0
10, 18240, Note_on_c, 6, 63, 88
10, 18269, Note_on_c, 6, 63, 0
10, 18300, Note_on_c, 6, 63, 68
10, 18329, Note_on_c, 6, 63, 0
10, 18360, Note_on_c, 6, 57, 73
10, 18389, Note_on_c, 6, 57, 0
10, 18420, Note_on_c, 6, 57, 73
10, 18449, Note_on_c, 6, 57, 0
10, 18480, Note_on_c, 6, 58, 77
10, 18509, Note_on_c, 6, 58, 0
10, 18540, Note_on_c, 6, 58, 70
10, 18569, Note_on_c, 6, 58, 0
10, 18600, Note_on_c, 6, 58, 77
10, 18629, Note_on_c, 6, 58, 0
10, 18660, Note_on_c, 6, 58, 71
10, 18689, Note_on_c, 6, 58, 0
10, 18720, Note_on_c, 6, 51, 93
10, 18779, Note_on_c, 6, 51, 0
10, 18840, Note_on_c, 6, 63, 106
10, 19319, Note_on_c, 6, 63, 0
10, 19320, Note_on_c, 6, 62, 104
10, 19379, Note_on_c, 6, 62, 0
10, 19380, Note_on_c, 6, 60, 102
10, 19439, Note_on_c, 6, 60, 0
10, 19440, Note_on_c, 6, 58, 100
10, 19500, Note_on_c, 6, 56, 100
10, 19529, Note_on_c, 6, 58, 0
10, 19559, Note_on_c, 6, 56, 0
10, 19560, Note_on_c, 6, 55, 101
10, 19619, Note_on_c, 6, 55, 0
10, 19620, Note_on_c, 6, 53, 98
10, 19679, Note_on_c, 6, 53, 0
10, 19680, Note_on_c, 6, 51, 91
10, 19709, Note_on_c, 6, 51, 0
10, 19740, Note_on_c, 6, 51, 94
10, 19769, Note_on_c, 6, 51, 0
10, 19800, Note_on_c, 6, 51, 91
10, 19829, Note_on_c, 6, 51, 0
10, 19860, Note_on_c, 6, 51, 88
10, 19889, Note_on_c, 6, 51, 0
10, 19920, Note_on_c, 6, 51, 87
10, 19949, Note_on_c, 6, 51, 0
10, 19980, Note_on_c, 6, 51, 88
10, 20009, Note_on_c, 6, 51, 0
10, 20040, Note_on_c, 6, 53, 95
10, 20069, Note_on_c, 6, 53, 0
10, 20070, Note_on_c, 6, 51, 91
10, 20099, Note_on_c, 6, 51, 0
10, 20100, Note_on_c, 6, 50, 91
10, 20129, Note_on_c, 6, 50, 0
10, 20130, Note_on_c, 6, 51, 91
10, 20159, Note_on_c, 6, 51, 0
10, 20160, Note_on_c, 6, 50, 92
10, 20189, Note_on_c, 6, 50, 0
10, 20220, Note_on_c, 6, 58, 86
10, 20249, Note_on_c, 6, 58, 0
10, 20280, Note_on_c, 6, 58, 81
10, 20309, Note_on_c, 6, 58, 0
10, 20340, Note_on_c, 6, 58, 81
10, 20369, Note_on_c, 6, 58, 0
10, 20400, Note_on_c, 6, 58, 84
10, 20429, Note_on_c, 6, 58, 0
10, 20460, Note_on_c, 6, 58, 85
10, 20489, Note_on_c, 6, 58, 0
10, 20520, Note_on_c, 6, 60, 98
10, 20549, Note_on_c, 6, 60, 0
10, 20550, Note_on_c, 6, 58, 93
10, 20579, Note_on_c, 6, 58, 0
10, 20580, Note_on_c, 6, 57, 92
10, 20609, Note_on_c, 6, 57, 0
10, 20610, Note_on_c, 6, 58, 92
10, 20639, Note_on_c, 6, 58, 0
10, 20640, Note_on_c, 6, 63, 86
10, 20699, Note_on_c, 6, 63, 0
10, 20760, Note_on_c, 6, 63, 102
10, 20999, Note_on_c, 6, 63, 0
10, 21000, Note_on_c, 6, 62, 81
10, 21059, Note_on_c, 6, 62, 0
10, 21240, Note_on_c, 6, 60, 104
10, 21479, Note_on_c, 6, 60, 0
10, 21480, Note_on_c, 6, 58, 77
10, 21539, Note_on_c, 6, 58, 0
10, 21720, Note_on_c, 6, 56, 88
10, 21959, Note_on_c, 6, 56, 0
10, 21960, Note_on_c, 6, 55, 68
10, 22049, Note_on_c, 6, 55, 0
10, 22080, Note_on_c, 6, 53, 77
10, 22109, Note_on_c, 6, 53, 0
10, 22140, Note_on_c, 6, 53, 66
10, 22169, Note_on_c, 6, 53, 0
10, 22200, Note_on_c, 6, 53, 67
10, 22229, Note_on_c, 6, 53, 0
10, 22260, Note_on_c, 6, 53, 66
10, 22289, Note_on_c, 6, 53, 0
10, 22320, Note_on_c, 6, 58, 70
10, 22349, Note_on_c, 6, 58, 0
10, 22380, Note_on_c, 6, 58, 69
10, 22409, Note_on_c, 6, 58, 0
10, 22440, Note_on_c, 6, 58, 77
10, 22469, Note_on_c, 6, 58, 0
10, 22500, Note_on_c, 6, 58, 81
10, 22529, Note_on_c, 6, 58, 0
10, 22560, Note_on_c, 6, 51, 77
10, 22589, Note_on_c, 6, 51, 0
10, 22620, Note_on_c, 6, 51, 69
10, 22649, Note_on_c, 6, 51, 0
10, 22680, Note_on_c, 6, 60, 77
10, 22709, Note_on_c, 6, 60, 0
10, 22740, Note_on_c, 6, 60, 70
10, 22769, Note_on_c, 6, 60, 0
10, 22800, Note_on_c, 6, 57, 81
10, 22829, Note_on_c, 6, 57, 0
10, 22860, Note_on_c, 6, 57, 85
10, 22889, Note_on_c, 6, 57, 0
10, 22920, Note_on_c, 6, 58, 88
10, 22949, Note_on_c, 6, 58, 0
10, 22980, Note_on_c, 6, 58, 93
10, 23009, Note_on_c, 6, 58, 0
10, 23040, Note_on_c, 6, 51, 73
10, 23069, Note_on_c, 6, 51, 0
10, 23100, Note_on_c, 6, 51, 66
10, 23129, Note_on_c, 6, 51, 0
10, 23160, Note_on_c, 6, 56, 77
10, 23189, Note_on_c, 6, 56, 0
10, 23220, Note_on_c, 6, 56, 77
10, 23249, Note_on_c, 6, 56, 0
10, 23280, Note_on_c, 6, 54, 81
10, 23309, Note_on_c, 6, 54, 0
10, 23340, Note_on_c, 6, 54, 88
10, 23369, Note_on_c, 6, 54, 0
10, 23400, Note_on_c, 6, 55, 77
10, 23429, Note_on_c, 6, 55, 0
10, 23460, Note_on_c, 6, 55, 85
10, 23489, Note_on_c, 6, 55, 0
10, 23520, Note_on_c, 6, 48, 71
10, 23549, Note_on_c, 6, 48, 0
10, 23580, Note_on_c, 6, 48, 70
10, 23609, Note_on_c, 6, 48, 0
10, 23640, Note_on_c, 6, 53, 66
10, 23669, Note_on_c, 6, 53, 0
10, 23700, Note_on_c, 6, 53, 68
10, 23729, Note_on_c, 6, 53, 0
10, 23760, Note_on_c, 6, 50, 77
10, 23789, Note_on_c, 6, 50, 0
10, 23820, Note_on_c, 6, 50, 71
10, 23849, Note_on_c, 6, 50, 0
10, 23880, Note_on_c, 6, 51, 69
10, 23909, Note_on_c, 6, 51, 0
10, 23940, Note_on_c, 6, 51, 66
10, 23999, Note_on_c, 6, 51, 0
10, 24060, Note_on_c, 6, 57, 69
10, 24239, Note_on_c, 6, 57, 0
10, 24240, Note_on_c, 6, 58, 77
10, 24479, Note_on_c, 6, 58, 0
10, 24480, Note_on_c, 6, 60, 73
10, 24509, Note_on_c, 6, 60, 0
10, 24540, Note_on_c, 6, 60, 68
10, 24569, Note_on_c, 6, 60, 0
10, 24600, Note_on_c, 6, 60, 68
10, 24629, Note_on_c, 6, 60, 0
10, 24660, Note_on_c, 6, 60, 68
10, 24689, Note_on_c, 6, 60, 0
10, 24720, Note_on_c, 6, 60, 77
10, 24749, Note_on_c, 6, 60, 0
10, 24780, Note_on_c, 6, 60, 81
10, 24809, Note_on_c, 6, 60, 0
10, 24840, Note_on_c, 6, 60, 77
10, 24929, Note_on_c, 6, 60, 0
10, 24960, Note_on_c, 6, 48, 94
10, 24989, Note_on_c, 6, 48, 0
10, 25080, Note_on_c, 6, 50, 90
10, 25109, Note_on_c, 6, 50, 0
10, 25200, Note_on_c, 6, 51, 90
10, 25229, Note_on_c, 6, 51, 0
10, 25320, Note_on_c, 6, 52, 90
10, 25349, Note_on_c, 6, 52, 0
10, 25440, Note_on_c, 6, 53, 92
10, 25559, Note_on_c, 6, 53, 0
10, 25920, Note_on_c, 6, 53, 85
10, 25949, Note_on_c, 6, 53, 0
10, 25980, Note_on_c, 6, 53, 77
10, 26009, Note_on_c, 6, 53, 0
10, 26040, Note_on_c, 6, 53, 79
10, 26069, Note_on_c, 6, 53, 0
10, 26100, Note_on_c, 6, 53, 81
10, 26129, Note_on_c, 6, 53, 0
10, 26160, Note_on_c, 6, 53, 79
10, 26189, Note_on_c, 6, 53, 0
10, 26220, Note_on_c, 6, 53, 75
10, 26249, Note_on_c, 6, 53, 0
10, 26280, Note_on_c, 6, 53, 85
10, 26309, Note_on_c, 6, 53, 0
10, 26340, Note_on_c, 6, 53, 83
10, 26369, Note_on_c, 6, 53, 0
10, 26400, Note_on_c, 6, 53, 85
10, 26519, Note_on_c, 6, 53, 0
10, 26880, Note_on_c, 6, 53, 88
10, 26909, Note_on_c, 6, 53, 0
10, 26940, Note_on_c, 6, 53, 84
10, 26969, Note_on_c, 6, 53, 0
10, 27000, Note_on_c, 6, 53, 82
10, 27029, Note_on_c, 6, 53, 0
10, 27060, Note_on_c, 6, 53, 84
10, 27089, Note_on_c, 6, 53, 0
10, 27120, Note_on_c, 6, 53, 85
10, 27149, Note_on_c, 6, 53, 0
10, 27180, Note_on_c, 6, 53, 82
10, 27209, Note_on_c, 6, 53, 0
10, 27240, Note_on_c, 6, 53, 87
10, 27269, Note_on_c, 6, 53, 0
10, 27300, Note_on_c, 6, 53, 82
10, 27329, Note_on_c, 6, 53, 0
10, 27360, Note_on_c, 6, 53, 92
10, 27479, Note_on_c, 6, 53, 0
10, 30720, Note_on_c, 6, 58, 71
10, 30720, Note_on_c, 6, 62, 71
10, 30720, Control_c, 6, 10, 17
10, 30730, Control_c, 6, 10, 16
10, 30740, Control_c, 6, 10, 17
10, 30749, Note_on_c, 6, 62, 0
10, 30749, Note_on_c, 6, 58, 0
10, 30750, Control_c, 6, 10, 15
10, 30780, Note_on_c, 6, 58, 73
10, 30780, Note_on_c, 6, 62, 73
10, 30809, Note_on_c, 6, 62, 0
10, 30809, Note_on_c, 6, 58, 0
10, 30840, Note_on_c, 6, 58, 69
10, 30840, Note_on_c, 6, 62, 69
10, 30869, Note_on_c, 6, 62, 0
10, 30869, Note_on_c, 6, 58, 0
10, 30900, Note_on_c, 6, 58, 70
10, 30900, Note_on_c, 6, 62, 70
10, 30929, Note_on_c, 6, 62, 0
10, 30929, Note_on_c, 6, 58, 0
10, 30960, Note_on_c, 6, 58, 73
10, 30960, Note_on_c, 6, 62, 73
10, 30989, Note_on_c, 6, 62, 0
10, 30989, Note_on_c, 6, 58, 0
10, 31020, Note_on_c, 6, 58, 75
10, 31020, Note_on_c, 6, 62, 75
10, 31049, Note_on_c, 6, 62, 0
10, 31049, Note_on_c, 6, 58, 0
10, 31080, Note_on_c, 6, 63, 74
10, 31080, Note_on_c, 6, 60, 74
10, 31110, Note_on_c, 6, 58, 74
10, 31110, Note_on_c, 6, 62, 74
10, 31139, Note_on_c, 6, 62, 0
10, 31139, Note_on_c, 6, 63, 0
10, 31139, Note_on_c, 6, 60, 0
10, 31139, Note_on_c, 6, 58, 0
10, 31140, Note_on_c, 6, 60, 73
10, 31140, Note_on_c, 6, 57, 73
10, 31169, Note_on_c, 6, 57, 0
10, 31169, Note_on_c, 6, 60, 0
10, 31170, Note_on_c, 6, 58, 70
10, 31170, Note_on_c, 6, 62, 70
10, 31199, Note_on_c, 6, 62, 0
10, 31199, Note_on_c, 6, 58, 0
10, 31200, Note_on_c, 6, 63, 71
10, 31200, Note_on_c, 6, 60, 71
10, 31649, Note_on_c, 6, 60, 0
10, 31649, Note_on_c, 6, 63, 0
10, 31680, Note_on_c, 6, 58, 74
10, 31680, Note_on_c, 6, 62, 74
10, 31680, Control_c, 6, 10, 126
10, 31709, Note_on_c, 6, 62, 0
10, 31709, Note_on_c, 6, 58, 0
10, 31740, Note_on_c, 6, 58, 72
10, 31740, Note_on_c, 6, 62, 72
10, 31769, Note_on_c, 6, 62, 0
10, 31769, Note_on_c, 6, 58, 0
10, 31800, Note_on_c, 6, 58, 70
10, 31800, Note_on_c, 6, 62, 70
10, 31829, Note_on_c, 6, 62, 0
10, 31829, Note_on_c, 6, 58, 0
10, 31860, Note_on_c, 6, 58, 73
10, 31860, Note_on_c, 6, 62, 73
10, 31889, Note_on_c, 6, 62, 0
10, 31889, Note_on_c, 6, 58, 0
10, 31920, Note_on_c, 6, 58, 75
10, 31920, Note_on_c, 6, 62, 75
10, 31949, Note_on_c, 6, 62, 0
10, 31949, Note_on_c, 6, 58, 0
10, 31980, Note_on_c, 6, 58, 76
10, 31980, Note_on_c, 6, 62, 76
10, 32009, Note_on_c, 6, 62, 0
10, 32009, Note_on_c, 6, 58, 0
10, 32040, Note_on_c, 6, 63, 75
10, 32040, Note_on_c, 6, 60, 75
10, 32070, Note_on_c, 6, 58, 72
10, 32070, Note_on_c, 6, 62, 72
10, 32099, Note_on_c, 6, 62, 0
10, 32099, Note_on_c, 6, 63, 0
10, 32099, Note_on_c, 6, 60, 0
10, 32099, Note_on_c, 6, 58, 0
10, 32100, Note_on_c, 6, 60, 70
10, 32100, Note_on_c, 6, 57, 70
10, 32129, Note_on_c, 6, 57, 0
10, 32129, Note_on_c, 6, 60, 0
10, 32130, Note_on_c, 6, 58, 73
10, 32130, Note_on_c, 6, 62, 73
10, 32159, Note_on_c, 6, 62, 0
10, 32159, Note_on_c, 6, 58, 0
10, 32160, Note_on_c, 6, 63, 79
10, 32160, Note_on_c, 6, 60, 79
10, 32620, Control_c, 6, 10, 18
10, 32639, Note_on_c, 6, 60, 0
10, 32639, Note_on_c, 6, 63, 0
10, 32640, Note_on_c, 6, 58, 104
10, 32669, Note_on_c, 6, 58, 0
10, 32700, Note_on_c, 6, 58, 100
10, 32729, Note_on_c, 6, 58, 0
10, 32760, Note_on_c, 6, 58, 98
10, 32789, Note_on_c, 6, 58, 0
10, 32820, Note_on_c, 6, 58, 102
10, 32849, Note_on_c, 6, 58, 0
10, 32880, Note_on_c, 6, 58, 102
10, 32909, Note_on_c, 6, 58, 0
10, 32940, Note_on_c, 6, 58, 103
10, 32969, Note_on_c, 6, 58, 0
10, 33000, Note_on_c, 6, 60, 104
10, 33030, Note_on_c, 6, 58, 98
10, 33059, Note_on_c, 6, 58, 0
10, 33059, Note_on_c, 6, 60, 0
10, 33060, Note_on_c, 6, 57, 98
10, 33089, Note_on_c, 6, 57, 0
10, 33090, Note_on_c, 6, 58, 98
10, 33119, Note_on_c, 6, 58, 0
10, 33120, Note_on_c, 6, 57, 100
10, 33209, Note_on_c, 6, 57, 0
10, 33240, Note_on_c, 6, 60, 106
10, 33479, Note_on_c, 6, 60, 0
10, 33480, Note_on_c, 6, 58, 70
10, 33539, Note_on_c, 6, 58, 0
10, 33600, Note_on_c, 6, 55, 87
10, 33689, Note_on_c, 6, 55, 0
10, 33720, Note_on_c, 6, 58, 106
10, 33959, Note_on_c, 6, 58, 0
10, 33960, Note_on_c, 6, 57, 71
10, 34019, Note_on_c, 6, 57, 0
10, 34080, Note_on_c, 6, 53, 68
10, 34169, Note_on_c, 6, 53, 0
10, 34200, Note_on_c, 6, 56, 107
10, 34439, Note_on_c, 6, 56, 0
10, 34440, Note_on_c, 6, 55, 69
10, 34499, Note_on_c, 6, 55, 0
10, 34560, Note_on_c, 6, 51, 99
10, 34679, Note_on_c, 6, 51, 0
10, 34800, Note_on_c, 6, 58, 93
10, 34919, Note_on_c, 6, 58, 0
10, 35040, Note_on_c, 6, 51, 93
10, 35159, Note_on_c, 6, 51, 0
10, 35280, Note_on_c, 6, 53, 93
10, 35399, Note_on_c, 6, 53, 0
10, 35510, Control_c, 6, 10, 127
10, 35520, Note_on_c, 6, 58, 67
10, 35520, Note_on_c, 6, 62, 67
10, 35549, Note_on_c, 6, 62, 0
10, 35549, Note_on_c, 6, 58, 0
10, 35580, Note_on_c, 6, 58, 71
10, 35580, Note_on_c, 6, 62, 71
10, 35609, Note_on_c, 6, 62, 0
10, 35609, Note_on_c, 6, 58, 0
10, 35640, Note_on_c, 6, 58, 69
10, 35640, Note_on_c, 6, 62, 69
10, 35669, Note_on_c, 6, 62, 0
10, 35669, Note_on_c, 6, 58, 0
10, 35700, Note_on_c, 6, 58, 70
10, 35700, Note_on_c, 6, 62, 70
10, 35729, Note_on_c, 6, 62, 0
10, 35729, Note_on_c, 6, 58, 0
10, 35760, Note_on_c, 6, 58, 71
10, 35760, Note_on_c, 6, 62, 71
10, 35789, Note_on_c, 6, 62, 0
10, 35789, Note_on_c, 6, 58, 0
10, 35820, Note_on_c, 6, 58, 76
10, 35820, Note_on_c, 6, 62, 76
10, 35849, Note_on_c, 6, 62, 0
10, 35849, Note_on_c, 6, 58, 0
10, 35880, Note_on_c, 6, 63, 78
10, 35880, Note_on_c, 6, 60, 78
10, 35910, Note_on_c, 6, 58, 77
10, 35910, Note_on_c, 6, 62, 77
10, 35939, Note_on_c, 6, 62, 0
10, 35939, Note_on_c, 6, 63, 0
10, 35939, Note_on_c, 6, 60, 0
10, 35939, Note_on_c, 6, 58, 0
10, 35940, Note_on_c, 6, 60, 75
10, 35940, Note_on_c, 6, 57, 75
10, 35969, Note_on_c, 6, 57, 0
10, 35969, Note_on_c, 6, 60, 0
10, 35970, Note_on_c, 6, 58, 74
10, 35970, Note_on_c, 6, 62, 74
10, 35999, Note_on_c, 6, 62, 0
10, 35999, Note_on_c, 6, 58, 0
10, 36000, Note_on_c, 6, 63, 74
10, 36000, Note_on_c, 6, 60, 74
10, 36449, Note_on_c, 6, 60, 0
10, 36449, Note_on_c, 6, 63, 0
10, 36460, Control_c, 6, 10, 20
10, 36470, Control_c, 6, 10, 21
10, 36480, Note_on_c, 6, 58, 74
10, 36480, Note_on_c, 6, 62, 74
10, 36509, Note_on_c, 6, 62, 0
10, 36509, Note_on_c, 6, 58, 0
10, 36540, Note_on_c, 6, 58, 72
10, 36540, Note_on_c, 6, 62, 72
10, 36569, Note_on_c, 6, 62, 0
10, 36569, Note_on_c, 6, 58, 0
10, 36600, Note_on_c, 6, 58, 70
10, 36600, Note_on_c, 6, 62, 70
10, 36629, Note_on_c, 6, 62, 0
10, 36629, Note_on_c, 6, 58, 0
10, 36660, Note_on_c, 6, 58, 67
10, 36660, Note_on_c, 6, 62, 67
10, 36689, Note_on_c, 6, 62, 0
10, 36689, Note_on_c, 6, 58, 0
10, 36720, Note_on_c, 6, 58, 66
10, 36720, Note_on_c, 6, 62, 66
10, 36749, Note_on_c, 6, 62, 0
10, 36749, Note_on_c, 6, 58, 0
10, 36780, Note_on_c, 6, 58, 65
10, 36780, Note_on_c, 6, 62, 65
10, 36809, Note_on_c, 6, 62, 0
10, 36809, Note_on_c, 6, 58, 0
10, 36840, Note_on_c, 6, 63, 76
10, 36840, Note_on_c, 6, 60, 76
10, 36870, Note_on_c, 6, 58, 74
10, 36870, Note_on_c, 6, 62, 74
10, 36899, Note_on_c, 6, 62, 0
10, 36899, Note_on_c, 6, 63, 0
10, 36899, Note_on_c, 6, 60, 0
10, 36899, Note_on_c, 6, 58, 0
10, 36900, Note_on_c, 6, 60, 70
10, 36900, Note_on_c, 6, 57, 70
10, 36929, Note_on_c, 6, 57, 0
10, 36929, Note_on_c, 6, 60, 0
10, 36930, Note_on_c, 6, 58, 70
10, 36930, Note_on_c, 6, 62, 70
10, 36959, Note_on_c, 6, 62, 0
10, 36959, Note_on_c, 6, 58, 0
10, 36960, Note_on_c, 6, 63, 72
10, 36960, Note_on_c, 6, 60, 72
10, 37439, Note_on_c, 6, 60, 0
10, 37439, Note_on_c, 6, 63, 0
10, 37440, Note_on_c, 6, 58, 115
10, 37440, Control_c, 6, 10, 126
10, 37469, Note_on_c, 6, 58, 0
10, 37500, Note_on_c, 6, 58, 116
10, 37529, Note_on_c, 6, 58, 0
10, 37560, Note_on_c, 6, 58, 116
10, 37589, Note_on_c, 6, 58, 0
10, 37620, Note_on_c, 6, 58, 115
10, 37649, Note_on_c, 6, 58, 0
10, 37680, Note_on_c, 6, 58, 111
10, 37709, Note_on_c, 6, 58, 0
10, 37740, Note_on_c, 6, 58, 110
10, 37769, Note_on_c, 6, 58, 0
10, 37800, Note_on_c, 6, 60, 111
10, 37829, Note_on_c, 6, 60, 0
10, 37830, Note_on_c, 6, 58, 108
10, 37859, Note_on_c, 6, 58, 0
10, 37860, Note_on_c, 6, 57, 109
10, 37889, Note_on_c, 6, 57, 0
10, 37890, Note_on_c, 6, 58, 112
10, 37919, Note_on_c, 6, 58, 0
10, 37920, Note_on_c, 6, 57, 93
10, 37949, Note_on_c, 6, 57, 0
10, 38040, Note_on_c, 6, 60, 123
10, 38279, Note_on_c, 6, 60, 0
10, 38280, Note_on_c, 6, 58, 93
10, 38309, Note_on_c, 6, 58, 0
10, 38400, Note_on_c, 6, 55, 81
10, 38429, Note_on_c, 6, 55, 0
10, 38520, Note_on_c, 6, 58, 110
10, 38759, Note_on_c, 6, 58, 0
10, 38760, Note_on_c, 6, 57, 77
10, 38789, Note_on_c, 6, 57, 0
10, 38880, Note_on_c, 6, 53, 73
10, 38909, Note_on_c, 6, 53, 0
10, 39000, Note_on_c, 6, 56, 107
10, 39239, Note_on_c, 6, 56, 0
10, 39240, Note_on_c, 6, 55, 80
10, 39269, Note_on_c, 6, 55, 0
10, 39360, Note_on_c, 6, 63, 110
10, 39479, Note_on_c, 6, 63, 0
10, 39600, Note_on_c, 6, 58, 104
10, 39719, Note_on_c, 6, 58, 0
10, 39840, Note_on_c, 6, 51, 113
10, 39959, Note_on_c, 6, 51, 0
10, 40080, Note_on_c, 6, 53, 110
10, 40229, Note_on_c, 6, 53, 0
10, 40320, Note_on_c, 6, 62, 57
10, 40379, Note_on_c, 6, 62, 0
10, 40380, Note_on_c, 6, 65, 62
10, 40439, Note_on_c, 6, 65, 0
10, 40440, Note_on_c, 6, 62, 62
10, 40499, Note_on_c, 6, 62, 0
10, 40500, Note_on_c, 6, 65, 60
10, 40559, Note_on_c, 6, 65, 0
10, 40560, Note_on_c, 6, 63, 60
10, 40619, Note_on_c, 6, 63, 0
10, 40620, Note_on_c, 6, 65, 60
10, 40679, Note_on_c, 6, 65, 0
10, 40680, Note_on_c, 6, 63, 60
10, 40739, Note_on_c, 6, 63, 0
10, 40740, Note_on_c, 6, 65, 62
10, 40799, Note_on_c, 6, 65, 0
10, 40800, Note_on_c, 6, 62, 57
10, 40859, Note_on_c, 6, 62, 0
10, 40860, Note_on_c, 6, 65, 62
10, 40919, Note_on_c, 6, 65, 0
10, 40920, Note_on_c, 6, 62, 62
10, 40979, Note_on_c, 6, 62, 0
10, 40980, Note_on_c, 6, 65, 60
10, 41039, Note_on_c, 6, 65, 0
10, 41040, Note_on_c, 6, 63, 60
10, 41099, Note_on_c, 6, 63, 0
10, 41100, Note_on_c, 6, 65, 60
10, 41159, Note_on_c, 6, 65, 0
10, 41160, Note_on_c, 6, 63, 60
10, 41219, Note_on_c, 6, 63, 0
10, 41220, Note_on_c, 6, 65, 62
10, 41279, Note_on_c, 6, 65, 0
10, 41280, Note_on_c, 6, 62, 76
10, 41339, Note_on_c, 6, 62, 0
10, 41340, Note_on_c, 6, 65, 76
10, 41399, Note_on_c, 6, 65, 0
10, 41400, Note_on_c, 6, 62, 80
10, 41459, Note_on_c, 6, 62, 0
10, 41460, Note_on_c, 6, 65, 78
10, 41519, Note_on_c, 6, 65, 0
10, 41520, Note_on_c, 6, 63, 80
10, 41579, Note_on_c, 6, 63, 0
10, 41580, Note_on_c, 6, 65, 76
10, 41639, Note_on_c, 6, 65, 0
10, 41640, Note_on_c, 6, 63, 78
10, 41699, Note_on_c, 6, 63, 0
10, 41700, Note_on_c, 6, 65, 76
10, 41759, Note_on_c, 6, 65, 0
10, 41760, Note_on_c, 6, 62, 83
10, 41819, Note_on_c, 6, 62, 0
10, 41820, Note_on_c, 6, 65, 79
10, 41879, Note_on_c, 6, 65, 0
10, 41880, Note_on_c, 6, 62, 83
10, 41939, Note_on_c, 6, 62, 0
10, 41940, Note_on_c, 6, 65, 79
10, 41999, Note_on_c, 6, 65, 0
10, 42000, Note_on_c, 6, 63, 81
10, 42059, Note_on_c, 6, 63, 0
10, 42060, Note_on_c, 6, 65, 79
10, 42119, Note_on_c, 6, 65, 0
10, 42120, Note_on_c, 6, 63, 81
10, 42179, Note_on_c, 6, 63, 0
10, 42180, Note_on_c, 6, 65, 86
10, 42239, Note_on_c, 6, 65, 0
10, 42240, Note_on_c, 6, 62, 90
10, 42299, Note_on_c, 6, 62, 0
10, 42300, Note_on_c, 6, 65, 87
10, 42359, Note_on_c, 6, 65, 0
10, 42360, Note_on_c, 6, 62, 92
10, 42419, Note_on_c, 6, 62, 0
10, 42420, Note_on_c, 6, 65, 92
10, 42479, Note_on_c, 6, 65, 0
10, 42480, Note_on_c, 6, 63, 94
10, 42539, Note_on_c, 6, 63, 0
10, 42540, Note_on_c, 6, 65, 90
10, 42599, Note_on_c, 6, 65, 0
10, 42600, Note_on_c, 6, 63, 94
10, 42659, Note_on_c, 6, 63, 0
10, 42660, Note_on_c, 6, 65, 88
10, 42719, Note_on_c, 6, 65, 0
10, 42720, Note_on_c, 6, 62, 88
10, 42779, Note_on_c, 6, 62, 0
10, 42780, Note_on_c, 6, 65, 91
10, 42839, Note_on_c, 6, 65, 0
10, 42840, Note_on_c, 6, 62, 88
10, 42899, Note_on_c, 6, 62, 0
10, 42900, Note_on_c, 6, 65, 84
10, 42959, Note_on_c, 6, 65, 0
10, 42960, Note_on_c, 6, 63, 94
10, 43019, Note_on_c, 6, 63, 0
10, 43020, Note_on_c, 6, 65, 86
10, 43079, Note_on_c, 6, 65, 0
10, 43080, Note_on_c, 6, 63, 92
10, 43139, Note_on_c, 6, 63, 0
10, 43140, Note_on_c, 6, 65, 86
10, 43199, Note_on_c, 6, 65, 0
10, 43200, Note_on_c, 6, 62, 92
10, 43259, Note_on_c, 6, 62, 0
10, 43260, Note_on_c, 6, 62, 90
10, 43319, Note_on_c, 6, 62, 0
10, 43320, Note_on_c, 6, 62, 86
10, 43379, Note_on_c, 6, 62, 0
10, 43380, Note_on_c, 6, 62, 86
10, 43439, Note_on_c, 6, 62, 0
10, 43440, Note_on_c, 6, 63, 102
10, 43499, Note_on_c, 6, 63, 0
10, 43500, Note_on_c, 6, 63, 95
10, 43559, Note_on_c, 6, 63, 0
10, 43560, Note_on_c, 6, 63, 90
10, 43619, Note_on_c, 6, 63, 0
10, 43620, Note_on_c, 6, 63, 93
10, 43679, Note_on_c, 6, 63, 0
10, 43680, Note_on_c, 6, 65, 117
10, 43739, Note_on_c, 6, 65, 0
10, 43740, Note_on_c, 6, 65, 115
10, 43799, Note_on_c, 6, 65, 0
10, 43800, Note_on_c, 6, 65, 111
10, 43859, Note_on_c, 6, 65, 0
10, 43860, Note_on_c, 6, 65, 111
10, 43919, Note_on_c, 6, 65, 0
10, 43920, Note_on_c, 6, 53, 111
10, 43979, Note_on_c, 6, 53, 0
10, 43980, Note_on_c, 6, 53, 106
10, 44039, Note_on_c, 6, 53, 0
10, 44040, Note_on_c, 6, 53, 105
10, 44099, Note_on_c, 6, 53, 0
10, 44100, Note_on_c, 6, 53, 106
10, 44159, Note_on_c, 6, 53, 0
10, 44160, Note_on_c, 6, 58, 122
10, 44249, Note_on_c, 6, 58, 0
10, 44400, Note_on_c, 6, 58, 117
10, 44489, Note_on_c, 6, 58, 0
10, 44640, Note_on_c, 6, 58, 118
10, 44729, Note_on_c, 6, 58, 0
10, 44880, Note_on_c, 6, 58, 115
10, 44969, Note_on_c, 6, 58, 0
10, 45120, Note_on_c, 6, 58, 121
10, 45209, Note_on_c, 6, 58, 0
10, 45240, Note_on_c, 6, 58, 115
10, 45329, Note_on_c, 6, 58, 0
10, 45360, Note_on_c, 6, 53, 116
10, 45449, Note_on_c, 6, 53, 0
10, 45480, Note_on_c, 6, 50, 113
10, 45569, Note_on_c, 6, 50, 0
10, 45600, Note_on_c, 6, 46, 121
10, 45719, Note_on_c, 6, 46, 0
10, 45720, Note_on_c, 6, 58, 119
10, 45809, Note_on_c, 6, 58, 0
10, 45840, Note_on_c, 6, 46, 120
10, 45929, Note_on_c, 6, 46, 0
10, 45960, Note_on_c, 6, 46, 117
10, 46049, Note_on_c, 6, 46, 0
10, 46080, Note_on_c, 6, 46, 119
10, 46319, Note_on_c, 6, 46, 0
10, 46319, End_track
11, 0, Start_track
11, 0, MIDI_port, 0
11, 0, Title_t, "Strings"
11, 0, Program_c, 7, 48
11, 0, Control_c, 7, 7, 120
11, 0, Control_c, 7, 10, 90
11, 477, Control_c, 7, 121, 0
11, 477, Control_c, 7, 0, 0
11, 477, Program_c, 7, 48
11, 477, Pitch_bend_c, 7, 8192
11, 477, Control_c, 7, 7, 100
11, 477, Control_c, 7, 91, 100
11, 477, Control_c, 7, 93, 30
11, 477, Control_c, 7, 10, 120
11, 480, Note_on_c, 7, 51, 100
11, 630, Note_on_c, 7, 51, 0
11, 930, Note_on_c, 7, 72, 93
11, 960, Note_on_c, 7, 72, 112
11, 960, Note_on_c, 7, 72, 0
11, 1154, Note_on_c, 7, 72, 0
11, 1410, Note_on_c, 7, 67, 88
11, 1440, Note_on_c, 7, 67, 88
11, 1446, Note_on_c, 7, 67, 0
11, 1736, Note_on_c, 7, 67, 0
11, 1920, Note_on_c, 7, 56, 32
11, 2039, Note_on_c, 7, 56, 0
11, 2040, Note_on_c, 7, 56, 34
11, 2279, Note_on_c, 7, 56, 0
11, 2280, Note_on_c, 7, 56, 34
11, 2519, Note_on_c, 7, 56, 0
11, 2520, Note_on_c, 7, 56, 32
11, 2759, Note_on_c, 7, 56, 0
11, 2760, Note_on_c, 7, 56, 36
11, 2879, Note_on_c, 7, 56, 0
11, 2880, Note_on_c, 7, 58, 35
11, 2999, Note_on_c, 7, 58, 0
11, 3000, Note_on_c, 7, 58, 35
11, 3239, Note_on_c, 7, 58, 0
11, 3240, Note_on_c, 7, 58, 37
11, 3479, Note_on_c, 7, 58, 0
11, 3480, Note_on_c, 7, 58, 39
11, 3719, Note_on_c, 7, 58, 0
11, 3720, Note_on_c, 7, 58, 38
11, 3839, Note_on_c, 7, 58, 0
11, 3840, Note_on_c, 7, 60, 50
11, 4019, Note_on_c, 7, 60, 0
11, 4050, Note_on_c, 7, 60, 50
11, 4080, Note_on_c, 7, 58, 56
11, 4109, Note_on_c, 7, 60, 0
11, 4259, Note_on_c, 7, 58, 0
11, 4290, Note_on_c, 7, 58, 52
11, 4320, Note_on_c, 7, 56, 58
11, 4349, Note_on_c, 7, 58, 0
11, 4559, Note_on_c, 7, 56, 0
11, 4680, Note_on_c, 7, 58, 52
11, 4799, Note_on_c, 7, 58, 0
11, 4800, Note_on_c, 7, 60, 50
11, 4979, Note_on_c, 7, 60, 0
11, 5010, Note_on_c, 7, 60, 50
11, 5040, Note_on_c, 7, 58, 56
11, 5069, Note_on_c, 7, 60, 0
11, 5219, Note_on_c, 7, 58, 0
11, 5250, Note_on_c, 7, 58, 52
11, 5280, Note_on_c, 7, 60, 58
11, 5309, Note_on_c, 7, 58, 0
11, 5519, Note_on_c, 7, 60, 0
11, 5640, Note_on_c, 7, 61, 52
11, 5759, Note_on_c, 7, 61, 0
11, 5760, Note_on_c, 7, 60, 68
11, 5909, Note_on_c, 7, 60, 0
11, 5970, Note_on_c, 7, 60, 67
11, 6000, Note_on_c, 7, 59, 73
11, 6029, Note_on_c, 7, 60, 0
11, 6149, Note_on_c, 7, 59, 0
11, 6210, Note_on_c, 7, 59, 67
11, 6240, Note_on_c, 7, 58, 71
11, 6269, Note_on_c, 7, 59, 0
11, 6509, Note_on_c, 7, 58, 0
11, 6600, Note_on_c, 7, 65, 99
11, 6719, Note_on_c, 7, 65, 0
11, 6720, Note_on_c, 7, 66, 85
11, 6959, Note_on_c, 7, 66, 0
11, 7080, Note_on_c, 7, 60, 39
11, 7199, Note_on_c, 7, 60, 0
11, 7200, Note_on_c, 7, 58, 41
11, 7289, Note_on_c, 7, 58, 0
11, 7440, Note_on_c, 7, 46, 37
11, 7559, Note_on_c, 7, 46, 0
11, 7680, Note_on_c, 7, 51, 39
11, 7769, Note_on_c, 7, 51, 0
11, 12960, Note_on_c, 7, 51, 50
11, 12989, Note_on_c, 7, 51, 0
11, 13020, Note_on_c, 7, 51, 56
11, 13049, Note_on_c, 7, 51, 0
11, 13080, Note_on_c, 7, 51, 56
11, 13109, Note_on_c, 7, 51, 0
11, 13140, Note_on_c, 7, 51, 52
11, 13169, Note_on_c, 7, 51, 0
11, 13200, Note_on_c, 7, 51, 52
11, 13229, Note_on_c, 7, 51, 0
11, 13260, Note_on_c, 7, 51, 51
11, 13289, Note_on_c, 7, 51, 0
11, 13320, Note_on_c, 7, 53, 98
11, 13349, Note_on_c, 7, 53, 0
11, 13350, Note_on_c, 7, 51, 96
11, 13379, Note_on_c, 7, 51, 0
11, 13380, Note_on_c, 7, 50, 94
11, 13409, Note_on_c, 7, 50, 0
11, 13410, Note_on_c, 7, 51, 96
11, 13439, Note_on_c, 7, 51, 0
11, 13440, Note_on_c, 7, 58, 49
11, 13469, Note_on_c, 7, 58, 0
11, 13500, Note_on_c, 7, 58, 47
11, 13529, Note_on_c, 7, 58, 0
11, 13560, Note_on_c, 7, 58, 51
11, 13589, Note_on_c, 7, 58, 0
11, 13620, Note_on_c, 7, 58, 44
11, 13649, Note_on_c, 7, 58, 0
11, 13680, Note_on_c, 7, 58, 49
11, 13709, Note_on_c, 7, 58, 0
11, 13740, Note_on_c, 7, 58, 45
11, 13769, Note_on_c, 7, 58, 0
11, 13800, Note_on_c, 7, 60, 91
11, 13829, Note_on_c, 7, 60, 0
11, 13830, Note_on_c, 7, 58, 89
11, 13859, Note_on_c, 7, 58, 0
11, 13860, Note_on_c, 7, 57, 87
11, 13889, Note_on_c, 7, 57, 0
11, 13890, Note_on_c, 7, 58, 87
11, 13919, Note_on_c, 7, 58, 0
11, 13920, Note_on_c, 7, 55, 52
11, 13949, Note_on_c, 7, 55, 0
11, 13980, Note_on_c, 7, 55, 54
11, 14009, Note_on_c, 7, 55, 0
11, 14040, Note_on_c, 7, 60, 52
11, 14069, Note_on_c, 7, 60, 0
11, 14100, Note_on_c, 7, 60, 52
11, 14129, Note_on_c, 7, 60, 0
11, 14160, Note_on_c, 7, 53, 51
11, 14189, Note_on_c, 7, 53, 0
11, 14220, Note_on_c, 7, 53, 52
11, 14249, Note_on_c, 7, 53, 0
11, 14280, Note_on_c, 7, 58, 97
11, 14309, Note_on_c, 7, 58, 0
11, 14340, Note_on_c, 7, 58, 96
11, 14369, Note_on_c, 7, 58, 0
11, 14400, Note_on_c, 7, 55, 53
11, 14429, Note_on_c, 7, 55, 0
11, 14460, Note_on_c, 7, 55, 50
11, 14489, Note_on_c, 7, 55, 0
11, 14520, Note_on_c, 7, 60, 52
11, 14549, Note_on_c, 7, 60, 0
11, 14580, Note_on_c, 7, 60, 50
11, 14609, Note_on_c, 7, 60, 0
11, 14640, Note_on_c, 7, 53, 54
11, 14669, Note_on_c, 7, 53, 0
11, 14700, Note_on_c, 7, 53, 48
11, 14729, Note_on_c, 7, 53, 0
11, 14760, Note_on_c, 7, 58, 97
11, 14789, Note_on_c, 7, 58, 0
11, 14820, Note_on_c, 7, 58, 96
11, 14849, Note_on_c, 7, 58, 0
11, 14880, Note_on_c, 7, 51, 60
11, 14909, Note_on_c, 7, 51, 0
11, 14940, Note_on_c, 7, 51, 56
11, 14969, Note_on_c, 7, 51, 0
11, 15000, Note_on_c, 7, 53, 56
11, 15029, Note_on_c, 7, 53, 0
11, 15060, Note_on_c, 7, 53, 60
11, 15089, Note_on_c, 7, 53, 0
11, 15120, Note_on_c, 7, 50, 56
11, 15149, Note_on_c, 7, 50, 0
11, 15180, Note_on_c, 7, 50, 54
11, 15209, Note_on_c, 7, 50, 0
11, 15240, Note_on_c, 7, 55, 58
11, 15269, Note_on_c, 7, 55, 0
11, 15300, Note_on_c, 7, 55, 60
11, 15329, Note_on_c, 7, 55, 0
11, 15360, Note_on_c, 7, 63, 66
11, 15389, Note_on_c, 7, 63, 0
11, 15420, Note_on_c, 7, 63, 62
11, 15449, Note_on_c, 7, 63, 0
11, 15480, Note_on_c, 7, 65, 80
11, 15509, Note_on_c, 7, 65, 0
11, 15540, Note_on_c, 7, 65, 75
11, 15569, Note_on_c, 7, 65, 0
11, 15600, Note_on_c, 7, 67, 67
11, 15629, Note_on_c, 7, 67, 0
11, 15660, Note_on_c, 7, 67, 64
11, 15689, Note_on_c, 7, 67, 0
11, 15720, Note_on_c, 7, 65, 63
11, 15749, Note_on_c, 7, 65, 0
11, 15780, Note_on_c, 7, 65, 66
11, 15809, Note_on_c, 7, 65, 0
11, 15840, Note_on_c, 7, 65, 70
11, 15959, Note_on_c, 7, 65, 0
11, 16200, Note_on_c, 7, 58, 61
11, 16319, Note_on_c, 7, 58, 0
11, 16320, Note_on_c, 7, 63, 67
11, 16439, Note_on_c, 7, 63, 0
11, 16440, Note_on_c, 7, 60, 63
11, 16559, Note_on_c, 7, 60, 0
11, 16560, Note_on_c, 7, 65, 60
11, 16679, Note_on_c, 7, 65, 0
11, 16680, Note_on_c, 7, 65, 61
11, 16799, Note_on_c, 7, 65, 0
11, 16800, Note_on_c, 7, 65, 67
11, 16829, Note_on_c, 7, 65, 0
11, 16860, Note_on_c, 7, 58, 64
11, 16889, Note_on_c, 7, 58, 0
11, 16920, Note_on_c, 7, 62, 72
11, 16949, Note_on_c, 7, 62, 0
11, 16980, Note_on_c, 7, 55, 66
11, 17009, Note_on_c, 7, 55, 0
11, 17040, Note_on_c, 7, 67, 72
11, 17069, Note_on_c, 7, 67, 0
11, 17100, Note_on_c, 7, 67, 68
11, 17129, Note_on_c, 7, 67, 0
11, 17160, Note_on_c, 7, 65, 72
11, 17189, Note_on_c, 7, 65, 0
11, 17220, Note_on_c, 7, 57, 68
11, 17249, Note_on_c, 7, 57, 0
11, 17280, Note_on_c, 7, 58, 70
11, 17309, Note_on_c, 7, 58, 0
11, 17340, Note_on_c, 7, 58, 73
11, 17369, Note_on_c, 7, 58, 0
11, 17400, Note_on_c, 7, 62, 70
11, 17429, Note_on_c, 7, 62, 0
11, 17460, Note_on_c, 7, 55, 70
11, 17489, Note_on_c, 7, 55, 0
11, 17520, Note_on_c, 7, 67, 77
11, 17549, Note_on_c, 7, 67, 0
11, 17580, Note_on_c, 7, 67, 77
11, 17609, Note_on_c, 7, 67, 0
11, 17640, Note_on_c, 7, 65, 71
11, 17669, Note_on_c, 7, 65, 0
11, 17700, Note_on_c, 7, 63, 81
11, 17729, Note_on_c, 7, 63, 0
11, 17760, Note_on_c, 7, 62, 73
11, 17789, Note_on_c, 7, 62, 0
11, 17820, Note_on_c, 7, 58, 68
11, 17849, Note_on_c, 7, 58, 0
11, 17880, Note_on_c, 7, 64, 70
11, 17909, Note_on_c, 7, 64, 0
11, 17940, Note_on_c, 7, 64, 67
11, 17969, Note_on_c, 7, 64, 0
11, 18000, Note_on_c, 7, 65, 67
11, 18029, Note_on_c, 7, 65, 0
11, 18060, Note_on_c, 7, 65, 77
11, 18089, Note_on_c, 7, 65, 0
11, 18120, Note_on_c, 7, 62, 81
11, 18149, Note_on_c, 7, 62, 0
11, 18180, Note_on_c, 7, 62, 77
11, 18209, Note_on_c, 7, 62, 0
11, 18240, Note_on_c, 7, 63, 88
11, 18269, Note_on_c, 7, 63, 0
11, 18300, Note_on_c, 7, 63, 68
11, 18329, Note_on_c, 7, 63, 0
11, 18360, Note_on_c, 7, 57, 73
11, 18389, Note_on_c, 7, 57, 0
11, 18420, Note_on_c, 7, 57, 73
11, 18449, Note_on_c, 7, 57, 0
11, 18480, Note_on_c, 7, 58, 77
11, 18509, Note_on_c, 7, 58, 0
11, 18540, Note_on_c, 7, 58, 70
11, 18569, Note_on_c, 7, 58, 0
11, 18600, Note_on_c, 7, 58, 77
11, 18629, Note_on_c, 7, 58, 0
11, 18660, Note_on_c, 7, 58, 71
11, 18689, Note_on_c, 7, 58, 0
11, 18720, Note_on_c, 7, 58, 103
11, 18779, Note_on_c, 7, 58, 0
11, 18840, Note_on_c, 7, 63, 118
11, 19319, Note_on_c, 7, 63, 0
11, 19320, Note_on_c, 7, 62, 114
11, 19379, Note_on_c, 7, 62, 0
11, 19380, Note_on_c, 7, 60, 114
11, 19439, Note_on_c, 7, 60, 0
11, 19440, Note_on_c, 7, 58, 113
11, 19500, Note_on_c, 7, 56, 112
11, 19529, Note_on_c, 7, 58, 0
11, 19559, Note_on_c, 7, 56, 0
11, 19560, Note_on_c, 7, 55, 106
11, 19619, Note_on_c, 7, 55, 0
11, 19620, Note_on_c, 7, 53, 104
11, 19679, Note_on_c, 7, 53, 0
11, 19680, Note_on_c, 7, 63, 102
11, 19709, Note_on_c, 7, 63, 0
11, 19740, Note_on_c, 7, 63, 94
11, 19769, Note_on_c, 7, 63, 0
11, 19800, Note_on_c, 7, 63, 91
11, 19829, Note_on_c, 7, 63, 0
11, 19860, Note_on_c, 7, 63, 88
11, 19889, Note_on_c, 7, 63, 0
11, 19920, Note_on_c, 7, 63, 87
11, 19949, Note_on_c, 7, 63, 0
11, 19980, Note_on_c, 7, 63, 88
11, 20009, Note_on_c, 7, 63, 0
11, 20040, Note_on_c, 7, 65, 95
11, 20069, Note_on_c, 7, 65, 0
11, 20070, Note_on_c, 7, 63, 91
11, 20099, Note_on_c, 7, 63, 0
11, 20100, Note_on_c, 7, 62, 91
11, 20129, Note_on_c, 7, 62, 0
11, 20130, Note_on_c, 7, 63, 91
11, 20159, Note_on_c, 7, 63, 0
11, 20160, Note_on_c, 7, 62, 92
11, 20189, Note_on_c, 7, 62, 0
11, 20220, Note_on_c, 7, 70, 86
11, 20249, Note_on_c, 7, 70, 0
11, 20280, Note_on_c, 7, 70, 81
11, 20309, Note_on_c, 7, 70, 0
11, 20340, Note_on_c, 7, 70, 81
11, 20369, Note_on_c, 7, 70, 0
11, 20400, Note_on_c, 7, 70, 84
11, 20429, Note_on_c, 7, 70, 0
11, 20460, Note_on_c, 7, 70, 85
11, 20489, Note_on_c, 7, 70, 0
11, 20520, Note_on_c, 7, 72, 98
11, 20549, Note_on_c, 7, 72, 0
11, 20550, Note_on_c, 7, 70, 93
11, 20579, Note_on_c, 7, 70, 0
11, 20580, Note_on_c, 7, 69, 92
11, 20609, Note_on_c, 7, 69, 0
11, 20610, Note_on_c, 7, 70, 92
11, 20639, Note_on_c, 7, 70, 0
11, 20640, Note_on_c, 7, 75, 86
11, 20699, Note_on_c, 7, 75, 0
11, 20760, Note_on_c, 7, 63, 112
11, 20999, Note_on_c, 7, 63, 0
11, 21000, Note_on_c, 7, 62, 81
11, 21059, Note_on_c, 7, 62, 0
11, 21240, Note_on_c, 7, 60, 113
11, 21479, Note_on_c, 7, 60, 0
11, 21480, Note_on_c, 7, 58, 77
11, 21539, Note_on_c, 7, 58, 0
11, 21720, Note_on_c, 7, 56, 110
11, 21959, Note_on_c, 7, 56, 0
11, 21960, Note_on_c, 7, 55, 68
11, 22049, Note_on_c, 7, 55, 0
11, 22080, Note_on_c, 7, 65, 77
11, 22109, Note_on_c, 7, 65, 0
11, 22140, Note_on_c, 7, 65, 66
11, 22169, Note_on_c, 7, 65, 0
11, 22200, Note_on_c, 7, 65, 67
11, 22229, Note_on_c, 7, 65, 0
11, 22260, Note_on_c, 7, 65, 66
11, 22289, Note_on_c, 7, 65, 0
11, 22320, Note_on_c, 7, 70, 70
11, 22349, Note_on_c, 7, 70, 0
11, 22380, Note_on_c, 7, 70, 69
11, 22409, Note_on_c, 7, 70, 0
11, 22440, Note_on_c, 7, 70, 77
11, 22469, Note_on_c, 7, 70, 0
11, 22500, Note_on_c, 7, 70, 81
11, 22529, Note_on_c, 7, 70, 0
11, 22560, Note_on_c, 7, 63, 77
11, 22589, Note_on_c, 7, 63, 0
11, 22620, Note_on_c, 7, 63, 69
11, 22649, Note_on_c, 7, 63, 0
11, 22680, Note_on_c, 7, 72, 77
11, 22709, Note_on_c, 7, 72, 0
11, 22740, Note_on_c, 7, 72, 70
11, 22769, Note_on_c, 7, 72, 0
11, 22800, Note_on_c, 7, 69, 81
11, 22829, Note_on_c, 7, 69, 0
11, 22860, Note_on_c, 7, 69, 85
11, 22889, Note_on_c, 7, 69, 0
11, 22920, Note_on_c, 7, 70, 88
11, 22949, Note_on_c, 7, 70, 0
11, 22980, Note_on_c, 7, 70, 93
11, 23009, Note_on_c, 7, 70, 0
11, 23040, Note_on_c, 7, 63, 73
11, 23069, Note_on_c, 7, 63, 0
11, 23100, Note_on_c, 7, 63, 66
11, 23129, Note_on_c, 7, 63, 0
11, 23160, Note_on_c, 7, 68, 77
11, 23189, Note_on_c, 7, 68, 0
11, 23220, Note_on_c, 7, 68, 77
11, 23249, Note_on_c, 7, 68, 0
11, 23280, Note_on_c, 7, 66, 81
11, 23309, Note_on_c, 7, 66, 0
11, 23340, Note_on_c, 7, 66, 88
11, 23369, Note_on_c, 7, 66, 0
11, 23400, Note_on_c, 7, 67, 77
11, 23429, Note_on_c, 7, 67, 0
11, 23460, Note_on_c, 7, 67, 85
11, 23489, Note_on_c, 7, 67, 0
11, 23520, Note_on_c, 7, 60, 71
11, 23549, Note_on_c, 7, 60, 0
11, 23580, Note_on_c, 7, 60, 70
11, 23609, Note_on_c, 7, 60, 0
11, 23640, Note_on_c, 7, 65, 66
11, 23669, Note_on_c, 7, 65, 0
11, 23700, Note_on_c, 7, 65, 68
11, 23729, Note_on_c, 7, 65, 0
11, 23760, Note_on_c, 7, 62, 77
11, 23789, Note_on_c, 7, 62, 0
11, 23820, Note_on_c, 7, 62, 71
11, 23849, Note_on_c, 7, 62, 0
11, 23880, Note_on_c, 7, 63, 69
11, 23909, Note_on_c, 7, 63, 0
11, 23940, Note_on_c, 7, 63, 66
11, 23999, Note_on_c, 7, 63, 0
11, 24000, Note_on_c, 7, 72, 114
11, 24239, Note_on_c, 7, 72, 0
11, 24240, Note_on_c, 7, 70, 112
11, 24479, Note_on_c, 7, 70, 0
11, 24480, Note_on_c, 7, 60, 73
11, 24509, Note_on_c, 7, 60, 0
11, 24540, Note_on_c, 7, 60, 68
11, 24569, Note_on_c, 7, 60, 0
11, 24600, Note_on_c, 7, 60, 68
11, 24629, Note_on_c, 7, 60, 0
11, 24660, Note_on_c, 7, 60, 68
11, 24689, Note_on_c, 7, 60, 0
11, 24720, Note_on_c, 7, 60, 77
11, 24749, Note_on_c, 7, 60, 0
11, 24780, Note_on_c, 7, 60, 81
11, 24809, Note_on_c, 7, 60, 0
11, 24840, Note_on_c, 7, 60, 77
11, 24929, Note_on_c, 7, 60, 0
11, 24960, Note_on_c, 7, 60, 94
11, 24989, Note_on_c, 7, 60, 0
11, 25080, Note_on_c, 7, 62, 90
11, 25109, Note_on_c, 7, 62, 0
11, 25200, Note_on_c, 7, 63, 90
11, 25229, Note_on_c, 7, 63, 0
11, 25320, Note_on_c, 7, 67, 90
11, 25349, Note_on_c, 7, 67, 0
11, 25440, Note_on_c, 7, 60, 92
11, 25559, Note_on_c, 7, 60, 0
11, 25920, Note_on_c, 7, 70, 115
11, 25949, Note_on_c, 7, 70, 0
11, 25980, Note_on_c, 7, 70, 114
11, 26099, Note_on_c, 7, 70, 0
11, 26100, Note_on_c, 7, 70, 115
11, 26219, Note_on_c, 7, 70, 0
11, 26220, Note_on_c, 7, 70, 112
11, 26339, Note_on_c, 7, 70, 0
11, 26340, Note_on_c, 7, 73, 112
11, 26399, Note_on_c, 7, 73, 0
11, 26400, Note_on_c, 7, 72, 115
11, 26459, Note_on_c, 7, 72, 0
11, 26880, Note_on_c, 7, 70, 115
11, 26909, Note_on_c, 7, 70, 0
11, 26940, Note_on_c, 7, 70, 114
11, 27059, Note_on_c, 7, 70, 0
11, 27060, Note_on_c, 7, 70, 115
11, 27179, Note_on_c, 7, 70, 0
11, 27180, Note_on_c, 7, 70, 112
11, 27299, Note_on_c, 7, 70, 0
11, 27300, Note_on_c, 7, 73, 112
11, 27359, Note_on_c, 7, 73, 0
11, 27360, Note_on_c, 7, 72, 115
11, 27419, Note_on_c, 7, 72, 0
11, 27840, Note_on_c, 7, 71, 87
11, 27869, Note_on_c, 7, 71, 0
11, 27900, Note_on_c, 7, 71, 77
11, 27929, Note_on_c, 7, 71, 0
11, 27960, Note_on_c, 7, 71, 73
11, 27989, Note_on_c, 7, 71, 0
11, 28020, Note_on_c, 7, 71, 72
11, 28049, Note_on_c, 7, 71, 0
11, 28080, Note_on_c, 7, 71, 73
11, 28109, Note_on_c, 7, 71, 0
11, 28140, Note_on_c, 7, 71, 68
11, 28169, Note_on_c, 7, 71, 0
11, 28200, Note_on_c, 7, 72, 71
11, 28229, Note_on_c, 7, 72, 0
11, 28230, Note_on_c, 7, 71, 67
11, 28259, Note_on_c, 7, 71, 0
11, 28260, Note_on_c, 7, 69, 65
11, 28289, Note_on_c, 7, 69, 0
11, 28290, Note_on_c, 7, 71, 65
11, 28319, Note_on_c, 7, 71, 0
11, 28320, Note_on_c, 7, 72, 70
11, 28439, Note_on_c, 7, 72, 0
11, 28800, Note_on_c, 7, 69, 57
11, 28829, Note_on_c, 7, 69, 0
11, 28860, Note_on_c, 7, 69, 53
11, 28889, Note_on_c, 7, 69, 0
11, 28920, Note_on_c, 7, 69, 48
11, 28949, Note_on_c, 7, 69, 0
11, 28980, Note_on_c, 7, 69, 45
11, 29009, Note_on_c, 7, 69, 0
11, 29040, Note_on_c, 7, 69, 48
11, 29069, Note_on_c, 7, 69, 0
11, 29100, Note_on_c, 7, 69, 50
11, 29129, Note_on_c, 7, 69, 0
11, 29160, Note_on_c, 7, 70, 52
11, 29189, Note_on_c, 7, 70, 0
11, 29190, Note_on_c, 7, 69, 51
11, 29219, Note_on_c, 7, 69, 0
11, 29220, Note_on_c, 7, 67, 47
11, 29249, Note_on_c, 7, 67, 0
11, 29250, Note_on_c, 7, 69, 48
11, 29279, Note_on_c, 7, 69, 0
11, 29280, Note_on_c, 7, 70, 54
11, 29399, Note_on_c, 7, 70, 0
11, 29760, Note_on_c, 7, 67, 65
11, 29789, Note_on_c, 7, 67, 0
11, 29820, Note_on_c, 7, 67, 60
11, 29849, Note_on_c, 7, 67, 0
11, 29880, Note_on_c, 7, 67, 59
11, 29909, Note_on_c, 7, 67, 0
11, 29940, Note_on_c, 7, 67, 59
11, 29969, Note_on_c, 7, 67, 0
11, 30000, Note_on_c, 7, 67, 59
11, 30029, Note_on_c, 7, 67, 0
11, 30060, Note_on_c, 7, 67, 57
11, 30089, Note_on_c, 7, 67, 0
11, 30120, Note_on_c, 7, 69, 65
11, 30149, Note_on_c, 7, 69, 0
11, 30150, Note_on_c, 7, 67, 61
11, 30179, Note_on_c, 7, 67, 0
11, 30180, Note_on_c, 7, 65, 58
11, 30209, Note_on_c, 7, 65, 0
11, 30210, Note_on_c, 7, 67, 60
11, 30239, Note_on_c, 7, 67, 0
11, 30240, Note_on_c, 7, 69, 63
11, 30359, Note_on_c, 7, 69, 0
11, 30480, Note_on_c, 7, 53, 48
11, 30599, Note_on_c, 7, 53, 0
11, 30840, Note_on_c, 7, 53, 48
11, 30959, Note_on_c, 7, 53, 0
11, 31080, Note_on_c, 7, 65, 52
11, 31199, Note_on_c, 7, 65, 0
11, 31320, Note_on_c, 7, 65, 51
11, 31439, Note_on_c, 7, 65, 0
11, 31560, Note_on_c, 7, 53, 47
11, 31679, Note_on_c, 7, 53, 0
11, 31800, Note_on_c, 7, 53, 58
11, 31919, Note_on_c, 7, 53, 0
11, 32040, Note_on_c, 7, 65, 55
11, 32159, Note_on_c, 7, 65, 0
11, 32280, Note_on_c, 7, 65, 59
11, 32399, Note_on_c, 7, 65, 0
11, 32520, Note_on_c, 7, 53, 58
11, 32639, Note_on_c, 7, 53, 0
11, 32640, Note_on_c, 7, 70, 108
11, 32669, Note_on_c, 7, 70, 0
11, 32700, Note_on_c, 7, 70, 101
11, 32729, Note_on_c, 7, 70, 0
11, 32760, Note_on_c, 7, 70, 102
11, 32789, Note_on_c, 7, 70, 0
11, 32820, Note_on_c, 7, 70, 95
11, 32849, Note_on_c, 7, 70, 0
11, 32880, Note_on_c, 7, 70, 104
11, 32909, Note_on_c, 7, 70, 0
11, 32940, Note_on_c, 7, 70, 96
11, 32969, Note_on_c, 7, 70, 0
11, 33000, Note_on_c, 7, 72, 101
11, 33029, Note_on_c, 7, 72, 0
11, 33030, Note_on_c, 7, 70, 97
11, 33059, Note_on_c, 7, 70, 0
11, 33060, Note_on_c, 7, 69, 97
11, 33089, Note_on_c, 7, 69, 0
11, 33090, Note_on_c, 7, 70, 104
11, 33119, Note_on_c, 7, 70, 0
11, 33120, Note_on_c, 7, 69, 105
11, 33179, Note_on_c, 7, 69, 0
11, 33240, Note_on_c, 7, 72, 111
11, 33240, Control_c, 7, 11, 96
11, 33260, Control_c, 7, 11, 98
11, 33270, Control_c, 7, 11, 99
11, 33280, Control_c, 7, 11, 100
11, 33290, Control_c, 7, 11, 102
11, 33300, Control_c, 7, 11, 103
11, 33310, Control_c, 7, 11, 106
11, 33320, Control_c, 7, 11, 107
11, 33330, Control_c, 7, 11, 108
11, 33340, Control_c, 7, 11, 110
11, 33350, Control_c, 7, 11, 111
11, 33360, Control_c, 7, 11, 112
11, 33370, Control_c, 7, 11, 114
11, 33390, Control_c, 7, 11, 116
11, 33400, Control_c, 7, 11, 118
11, 33420, Control_c, 7, 11, 120
11, 33430, Control_c, 7, 11, 122
11, 33440, Control_c, 7, 11, 123
11, 33450, Control_c, 7, 11, 124
11, 33470, Control_c, 7, 11, 126
11, 33479, Note_on_c, 7, 72, 0
11, 33480, Note_on_c, 7, 70, 79
11, 33480, Control_c, 7, 11, 127
11, 33539, Note_on_c, 7, 70, 0
11, 33600, Note_on_c, 7, 67, 91
11, 33659, Note_on_c, 7, 67, 0
11, 33720, Note_on_c, 7, 70, 108
11, 33720, Control_c, 7, 11, 96
11, 33730, Control_c, 7, 11, 98
11, 33750, Control_c, 7, 11, 99
11, 33770, Control_c, 7, 11, 101
11, 33780, Control_c, 7, 11, 103
11, 33790, Control_c, 7, 11, 104
11, 33800, Control_c, 7, 11, 105
11, 33810, Control_c, 7, 11, 107
11, 33840, Control_c, 7, 11, 109
11, 33850, Control_c, 7, 11, 110
11, 33860, Control_c, 7, 11, 111
11, 33870, Control_c, 7, 11, 113
11, 33880, Control_c, 7, 11, 114
11, 33890, Control_c, 7, 11, 115
11, 33910, Control_c, 7, 11, 117
11, 33920, Control_c, 7, 11, 118
11, 33930, Control_c, 7, 11, 121
11, 33940, Control_c, 7, 11, 123
11, 33950, Control_c, 7, 11, 124
11, 33959, Note_on_c, 7, 70, 0
11, 33960, Note_on_c, 7, 69, 80
11, 33960, Control_c, 7, 11, 125
11, 34019, Note_on_c, 7, 69, 0
11, 34080, Note_on_c, 7, 65, 95
11, 34169, Note_on_c, 7, 65, 0
11, 34200, Note_on_c, 7, 68, 111
11, 34200, Control_c, 7, 11, 98
11, 34220, Control_c, 7, 11, 100
11, 34230, Control_c, 7, 11, 101
11, 34240, Control_c, 7, 11, 102
11, 34250, Control_c, 7, 11, 103
11, 34260, Control_c, 7, 11, 104
11, 34270, Control_c, 7, 11, 106
11, 34290, Control_c, 7, 11, 108
11, 34310, Control_c, 7, 11, 110
11, 34320, Control_c, 7, 11, 111
11, 34330, Control_c, 7, 11, 112
11, 34340, Control_c, 7, 11, 113
11, 34350, Control_c, 7, 11, 115
11, 34360, Control_c, 7, 11, 116
11, 34380, Control_c, 7, 11, 117
11, 34390, Control_c, 7, 11, 120
11, 34400, Control_c, 7, 11, 121
11, 34410, Control_c, 7, 11, 122
11, 34420, Control_c, 7, 11, 124
11, 34430, Control_c, 7, 11, 126
11, 34439, Note_on_c, 7, 68, 0
11, 34440, Note_on_c, 7, 67, 78
11, 34440, Control_c, 7, 11, 127
11, 34499, Note_on_c, 7, 67, 0
11, 34560, Note_on_c, 7, 63, 99
11, 34679, Note_on_c, 7, 63, 0
11, 34800, Note_on_c, 7, 70, 100
11, 34919, Note_on_c, 7, 70, 0
11, 35040, Note_on_c, 7, 63, 97
11, 35159, Note_on_c, 7, 63, 0
11, 35280, Note_on_c, 7, 65, 102
11, 35399, Note_on_c, 7, 65, 0
11, 35640, Note_on_c, 7, 53, 55
11, 35759, Note_on_c, 7, 53, 0
11, 35880, Note_on_c, 7, 65, 54
11, 35999, Note_on_c, 7, 65, 0
11, 36120, Note_on_c, 7, 65, 55
11, 36239, Note_on_c, 7, 65, 0
11, 36360, Note_on_c, 7, 53, 53
11, 36479, Note_on_c, 7, 53, 0
11, 36600, Note_on_c, 7, 53, 55
11, 36719, Note_on_c, 7, 53, 0
11, 36840, Note_on_c, 7, 65, 60
11, 36959, Note_on_c, 7, 65, 0
11, 37080, Note_on_c, 7, 65, 59
11, 37199, Note_on_c, 7, 65, 0
11, 37320, Note_on_c, 7, 53, 57
11, 37439, Note_on_c, 7, 53, 0
11, 37440, Note_on_c, 7, 70, 113
11, 37469, Note_on_c, 7, 70, 0
11, 37500, Note_on_c, 7, 70, 105
11, 37529, Note_on_c, 7, 70, 0
11, 37560, Note_on_c, 7, 70, 112
11, 37589, Note_on_c, 7, 70, 0
11, 37620, Note_on_c, 7, 70, 102
11, 37649, Note_on_c, 7, 70, 0
11, 37680, Note_on_c, 7, 70, 110
11, 37709, Note_on_c, 7, 70, 0
11, 37740, Note_on_c, 7, 70, 106
11, 37769, Note_on_c, 7, 70, 0
11, 37800, Note_on_c, 7, 72, 108
11, 37829, Note_on_c, 7, 72, 0
11, 37830, Note_on_c, 7, 70, 106
11, 37859, Note_on_c, 7, 70, 0
11, 37860, Note_on_c, 7, 69, 106
11, 37889, Note_on_c, 7, 69, 0
11, 37890, Note_on_c, 7, 70, 111
11, 37919, Note_on_c, 7, 70, 0
11, 37920, Note_on_c, 7, 69, 103
11, 37979, Note_on_c, 7, 69, 0
11, 38040, Note_on_c, 7, 72, 119
11, 38060, Control_c, 7, 11, 98
11, 38070, Control_c, 7, 11, 99
11, 38080, Control_c, 7, 11, 101
11, 38090, Control_c, 7, 11, 102
11, 38110, Control_c, 7, 11, 103
11, 38120, Control_c, 7, 11, 105
11, 38130, Control_c, 7, 11, 107
11, 38140, Control_c, 7, 11, 109
11, 38160, Control_c, 7, 11, 111
11, 38170, Control_c, 7, 11, 113
11, 38190, Control_c, 7, 11, 115
11, 38200, Control_c, 7, 11, 118
11, 38210, Control_c, 7, 11, 120
11, 38220, Control_c, 7, 11, 121
11, 38230, Control_c, 7, 11, 122
11, 38240, Control_c, 7, 11, 124
11, 38250, Control_c, 7, 11, 125
11, 38270, Control_c, 7, 11, 126
11, 38279, Note_on_c, 7, 72, 0
11, 38280, Note_on_c, 7, 70, 66
11, 38280, Control_c, 7, 11, 127
11, 38309, Note_on_c, 7, 70, 0
11, 38400, Note_on_c, 7, 67, 101
11, 38429, Note_on_c, 7, 67, 0
11, 38520, Note_on_c, 7, 70, 115
11, 38520, Control_c, 7, 11, 111
11, 38540, Control_c, 7, 11, 112
11, 38560, Control_c, 7, 11, 113
11, 38570, Control_c, 7, 11, 115
11, 38590, Control_c, 7, 11, 116
11, 38610, Control_c, 7, 11, 107
11, 38620, Control_c, 7, 11, 118
11, 38630, Control_c, 7, 11, 119
11, 38650, Control_c, 7, 11, 121
11, 38680, Control_c, 7, 11, 122
11, 38690, Control_c, 7, 11, 123
11, 38710, Control_c, 7, 11, 124
11, 38720, Control_c, 7, 11, 125
11, 38750, Control_c, 7, 11, 126
11, 38759, Note_on_c, 7, 70, 0
11, 38760, Note_on_c, 7, 69, 66
11, 38760, Control_c, 7, 11, 127
11, 38789, Note_on_c, 7, 69, 0
11, 38880, Note_on_c, 7, 65, 99
11, 38909, Note_on_c, 7, 65, 0
11, 39000, Note_on_c, 7, 68, 116
11, 39020, Control_c, 7, 11, 97
11, 39030, Control_c, 7, 11, 99
11, 39040, Control_c, 7, 11, 103
11, 39050, Control_c, 7, 11, 105
11, 39060, Control_c, 7, 11, 107
11, 39070, Control_c, 7, 11, 108
11, 39080, Control_c, 7, 11, 109
11, 39090, Control_c, 7, 11, 111
11, 39110, Control_c, 7, 11, 113
11, 39120, Control_c, 7, 11, 116
11, 39130, Control_c, 7, 11, 117
11, 39140, Control_c, 7, 11, 118
11, 39150, Control_c, 7, 11, 119
11, 39160, Control_c, 7, 11, 121
11, 39170, Control_c, 7, 11, 123
11, 39190, Control_c, 7, 11, 124
11, 39200, Control_c, 7, 11, 127
11, 39239, Note_on_c, 7, 68, 0
11, 39240, Note_on_c, 7, 67, 67
11, 39269, Note_on_c, 7, 67, 0
11, 39360, Note_on_c, 7, 75, 115
11, 39479, Note_on_c, 7, 75, 0
11, 39600, Note_on_c, 7, 70, 112
11, 39719, Note_on_c, 7, 70, 0
11, 39840, Note_on_c, 7, 63, 114
11, 39959, Note_on_c, 7, 63, 0
11, 40080, Note_on_c, 7, 65, 109
11, 40199, Note_on_c, 7, 65, 0
11, 40320, Note_on_c, 7, 62, 57
11, 40379, Note_on_c, 7, 62, 0
11, 40380, Note_on_c, 7, 65, 62
11, 40439, Note_on_c, 7, 65, 0
11, 40440, Note_on_c, 7, 62, 62
11, 40499, Note_on_c, 7, 62, 0
11, 40500, Note_on_c, 7, 65, 60
11, 40559, Note_on_c, 7, 65, 0
11, 40560, Note_on_c, 7, 63, 60
11, 40619, Note_on_c, 7, 63, 0
11, 40620, Note_on_c, 7, 65, 60
11, 40679, Note_on_c, 7, 65, 0
11, 40680, Note_on_c, 7, 63, 60
11, 40739, Note_on_c, 7, 63, 0
11, 40740, Note_on_c, 7, 65, 62
11, 40799, Note_on_c, 7, 65, 0
11, 40800, Note_on_c, 7, 62, 57
11, 40859, Note_on_c, 7, 62, 0
11, 40860, Note_on_c, 7, 65, 62
11, 40919, Note_on_c, 7, 65, 0
11, 40920, Note_on_c, 7, 62, 62
11, 40979, Note_on_c, 7, 62, 0
11, 40980, Note_on_c, 7, 65, 60
11, 41039, Note_on_c, 7, 65, 0
11, 41040, Note_on_c, 7, 63, 60
11, 41099, Note_on_c, 7, 63, 0
11, 41100, Note_on_c, 7, 65, 60
11, 41159, Note_on_c, 7, 65, 0
11, 41160, Note_on_c, 7, 63, 60
11, 41219, Note_on_c, 7, 63, 0
11, 41220, Note_on_c, 7, 65, 62
11, 41279, Note_on_c, 7, 65, 0
11, 41280, Note_on_c, 7, 62, 76
11, 41339, Note_on_c, 7, 62, 0
11, 41340, Note_on_c, 7, 65, 76
11, 41399, Note_on_c, 7, 65, 0
11, 41400, Note_on_c, 7, 62, 80
11, 41459, Note_on_c, 7, 62, 0
11, 41460, Note_on_c, 7, 65, 78
11, 41519, Note_on_c, 7, 65, 0
11, 41520, Note_on_c, 7, 63, 80
11, 41579, Note_on_c, 7, 63, 0
11, 41580, Note_on_c, 7, 65, 76
11, 41639, Note_on_c, 7, 65, 0
11, 41640, Note_on_c, 7, 63, 78
11, 41699, Note_on_c, 7, 63, 0
11, 41700, Note_on_c, 7, 65, 76
11, 41759, Note_on_c, 7, 65, 0
11, 41760, Note_on_c, 7, 62, 83
11, 41819, Note_on_c, 7, 62, 0
11, 41820, Note_on_c, 7, 65, 79
11, 41879, Note_on_c, 7, 65, 0
11, 41880, Note_on_c, 7, 62, 83
11, 41939, Note_on_c, 7, 62, 0
11, 41940, Note_on_c, 7, 65, 79
11, 41999, Note_on_c, 7, 65, 0
11, 42000, Note_on_c, 7, 63, 81
11, 42059, Note_on_c, 7, 63, 0
11, 42060, Note_on_c, 7, 65, 79
11, 42119, Note_on_c, 7, 65, 0
11, 42120, Note_on_c, 7, 63, 81
11, 42179, Note_on_c, 7, 63, 0
11, 42180, Note_on_c, 7, 65, 86
11, 42239, Note_on_c, 7, 65, 0
11, 42240, Note_on_c, 7, 70, 118
11, 42359, Note_on_c, 7, 70, 0
11, 42360, Note_on_c, 7, 71, 109
11, 42479, Note_on_c, 7, 71, 0
11, 42480, Note_on_c, 7, 72, 119
11, 42599, Note_on_c, 7, 72, 0
11, 42600, Note_on_c, 7, 69, 115
11, 42719, Note_on_c, 7, 69, 0
11, 42720, Note_on_c, 7, 70, 120
11, 42839, Note_on_c, 7, 70, 0
11, 42840, Note_on_c, 7, 71, 115
11, 42959, Note_on_c, 7, 71, 0
11, 42960, Note_on_c, 7, 72, 115
11, 43079, Note_on_c, 7, 72, 0
11, 43080, Note_on_c, 7, 69, 111
11, 43199, Note_on_c, 7, 69, 0
11, 43200, Note_on_c, 7, 70, 92
11, 43259, Note_on_c, 7, 70, 0
11, 43260, Note_on_c, 7, 62, 90
11, 43319, Note_on_c, 7, 62, 0
11, 43320, Note_on_c, 7, 62, 86
11, 43379, Note_on_c, 7, 62, 0
11, 43380, Note_on_c, 7, 62, 86
11, 43439, Note_on_c, 7, 62, 0
11, 43440, Note_on_c, 7, 63, 102
11, 43499, Note_on_c, 7, 63, 0
11, 43500, Note_on_c, 7, 63, 95
11, 43559, Note_on_c, 7, 63, 0
11, 43560, Note_on_c, 7, 63, 90
11, 43619, Note_on_c, 7, 63, 0
11, 43620, Note_on_c, 7, 63, 93
11, 43679, Note_on_c, 7, 63, 0
11, 43680, Note_on_c, 7, 65, 117
11, 43709, Note_on_c, 7, 65, 0
11, 43740, Note_on_c, 7, 65, 115
11, 43769, Note_on_c, 7, 65, 0
11, 43800, Note_on_c, 7, 65, 111
11, 43829, Note_on_c, 7, 65, 0
11, 43860, Note_on_c, 7, 65, 111
11, 43889, Note_on_c, 7, 65, 0
11, 43920, Note_on_c, 7, 65, 111
11, 43949, Note_on_c, 7, 65, 0
11, 43980, Note_on_c, 7, 65, 106
11, 44009, Note_on_c, 7, 65, 0
11, 44040, Note_on_c, 7, 65, 105
11, 44069, Note_on_c, 7, 65, 0
11, 44100, Note_on_c, 7, 65, 106
11, 44129, Note_on_c, 7, 65, 0
11, 44160, Note_on_c, 7, 70, 100
11, 44279, Note_on_c, 7, 70, 0
11, 44400, Note_on_c, 7, 70, 110
11, 44519, Note_on_c, 7, 70, 0
11, 44640, Note_on_c, 7, 70, 106
11, 44759, Note_on_c, 7, 70, 0
11, 44880, Note_on_c, 7, 70, 104
11, 44999, Note_on_c, 7, 70, 0
11, 45120, Note_on_c, 7, 70, 117
11, 45239, Note_on_c, 7, 70, 0
11, 45240, Note_on_c, 7, 70, 110
11, 45359, Note_on_c, 7, 70, 0
11, 45360, Note_on_c, 7, 65, 107
11, 45479, Note_on_c, 7, 65, 0
11, 45480, Note_on_c, 7, 62, 103
11, 45599, Note_on_c, 7, 62, 0
11, 45600, Note_on_c, 7, 58, 111
11, 45719, Note_on_c, 7, 58, 0
11, 45720, Note_on_c, 7, 82, 113
11, 45720, Note_on_c, 7, 74, 113
11, 45839, Note_on_c, 7, 74, 0
11, 45839, Note_on_c, 7, 82, 0
11, 45840, Note_on_c, 7, 58, 113
11, 45929, Note_on_c, 7, 58, 0
11, 45960, Note_on_c, 7, 58, 110
11, 46049, Note_on_c, 7, 58, 0
11, 46080, Note_on_c, 7, 58, 117
11, 46090, Control_c, 7, 11, 101
11, 46100, Control_c, 7, 11, 102
11, 46120, Control_c, 7, 11, 104
11, 46140, Control_c, 7, 11, 106
11, 46170, Control_c, 7, 11, 108
11, 46190, Control_c, 7, 11, 109
11, 46210, Control_c, 7, 11, 110
11, 46220, Control_c, 7, 11, 112
11, 46250, Control_c, 7, 11, 113
11, 46260, Control_c, 7, 11, 114
11, 46300, Control_c, 7, 11, 115
11, 46310, Control_c, 7, 11, 116
11, 46340, Control_c, 7, 11, 117
11, 46350, Control_c, 7, 11, 118
11, 46380, Control_c, 7, 11, 122
11, 46410, Control_c, 7, 11, 123
11, 46430, Control_c, 7, 11, 124
11, 46469, Note_on_c, 7, 58, 0
11, 46470, Control_c, 7, 11, 125
11, 46490, Control_c, 7, 11, 127
11, 46520, Control_c, 7, 11, 126
11, 46530, Control_c, 7, 11, 125
11, 46560, Control_c, 7, 11, 124
11, 46560, End_track
12, 0, Start_track
12, 0, MIDI_port, 0
12, 0, Title_t, "Flute"
12, 0, Program_c, 3, 73
12, 0, Control_c, 3, 7, 100
12, 0, Control_c, 3, 10, 20
12, 30240, Control_c, 3, 121, 0
12, 30240, Control_c, 3, 0, 0
12, 30240, Program_c, 3, 73
12, 30240, Control_c, 3, 10, 20
12, 30240, Control_c, 3, 7, 100
12, 30240, Control_c, 3, 91, 70
12, 30240, Control_c, 3, 93, 30
12, 30240, Pitch_bend_c, 3, 8192
12, 30240, Note_on_c, 3, 77, 99
12, 30710, Control_c, 3, 10, 80
12, 30780, Note_on_c, 3, 82, 78
12, 30809, Note_on_c, 3, 77, 0
12, 30839, Note_on_c, 3, 82, 0
12, 30840, Note_on_c, 3, 81, 72
12, 30899, Note_on_c, 3, 81, 0
12, 30900, Note_on_c, 3, 79, 75
12, 30959, Note_on_c, 3, 79, 0
12, 30960, Note_on_c, 3, 77, 78
12, 31019, Note_on_c, 3, 77, 0
12, 31020, Note_on_c, 3, 76, 75
12, 31079, Note_on_c, 3, 76, 0
12, 31080, Note_on_c, 3, 79, 74
12, 31140, Note_on_c, 3, 77, 70
12, 31169, Note_on_c, 3, 79, 0
12, 31180, Control_c, 3, 10, 123
12, 31190, Control_c, 3, 10, 125
12, 31199, Note_on_c, 3, 77, 0
12, 31200, Note_on_c, 3, 77, 86
12, 31240, Control_c, 3, 10, 126
12, 31250, Control_c, 3, 10, 127
12, 31709, Note_on_c, 3, 77, 0
12, 31740, Note_on_c, 3, 82, 78
12, 31799, Note_on_c, 3, 82, 0
12, 31800, Note_on_c, 3, 81, 72
12, 31859, Note_on_c, 3, 81, 0
12, 31860, Note_on_c, 3, 79, 75
12, 31919, Note_on_c, 3, 79, 0
12, 31920, Note_on_c, 3, 77, 78
12, 31979, Note_on_c, 3, 77, 0
12, 31980, Note_on_c, 3, 76, 75
12, 32039, Note_on_c, 3, 76, 0
12, 32040, Note_on_c, 3, 79, 74
12, 32100, Note_on_c, 3, 77, 70
12, 32129, Note_on_c, 3, 79, 0
12, 32140, Control_c, 3, 10, 123
12, 32150, Control_c, 3, 10, 125
12, 32159, Note_on_c, 3, 77, 0
12, 32160, Note_on_c, 3, 77, 97
12, 32180, Control_c, 3, 10, 52
12, 32639, Note_on_c, 3, 77, 0
12, 35580, Note_on_c, 3, 82, 78
12, 35639, Note_on_c, 3, 82, 0
12, 35640, Note_on_c, 3, 81, 72
12, 35699, Note_on_c, 3, 81, 0
12, 35700, Note_on_c, 3, 79, 75
12, 35759, Note_on_c, 3, 79, 0
12, 35760, Note_on_c, 3, 77, 78
12, 35819, Note_on_c, 3, 77, 0
12, 35820, Note_on_c, 3, 76, 75
12, 35879, Note_on_c, 3, 76, 0
12, 35880, Note_on_c, 3, 79, 74
12, 35940, Note_on_c, 3, 77, 70
12, 35969, Note_on_c, 3, 79, 0
12, 35980, Control_c, 3, 10, 123
12, 35990, Control_c, 3, 10, 125
12, 35999, Note_on_c, 3, 77, 0
12, 36000, Note_on_c, 3, 77, 86
12, 36040, Control_c, 3, 10, 126
12, 36050, Control_c, 3, 10, 127
12, 36509, Note_on_c, 3, 77, 0
12, 36540, Note_on_c, 3, 82, 78
12, 36599, Note_on_c, 3, 82, 0
12, 36600, Note_on_c, 3, 81, 72
12, 36659, Note_on_c, 3, 81, 0
12, 36660, Note_on_c, 3, 79, 75
12, 36719, Note_on_c, 3, 79, 0
12, 36720, Note_on_c, 3, 77, 78
12, 36779, Note_on_c, 3, 77, 0
12, 36780, Note_on_c, 3, 76, 75
12, 36839, Note_on_c, 3, 76, 0
12, 36840, Note_on_c, 3, 79, 74
12, 36900, Note_on_c, 3, 77, 70
12, 36929, Note_on_c, 3, 79, 0
12, 36940, Control_c, 3, 10, 123
12, 36950, Control_c, 3, 10, 125
12, 36959, Note_on_c, 3, 77, 0
12, 36960, Note_on_c, 3, 77, 97
12, 36980, Control_c, 3, 10, 52
12, 37439, Note_on_c, 3, 77, 0
12, 37439, End_track
13, 0, Start_track
13, 0, MIDI_port, 0
13, 0, Title_t, "Timpani"
13, 0, Program_c, 8, 47
13, 0, Control_c, 8, 7, 127
13, 0, Control_c, 8, 10, 60
13, 480, Control_c, 8, 121, 0
13, 480, Control_c, 8, 0, 0
13, 480, Program_c, 8, 47
13, 480, Control_c, 8, 91, 70
13, 480, Control_c, 8, 93, 5
13, 480, Control_c, 8, 7, 127
13, 480, Control_c, 8, 10, 10
13, 480, Pitch_bend_c, 8, 8192
13, 480, Note_on_c, 8, 51, 122
13, 749, Note_on_c, 8, 51, 0
13, 930, Note_on_c, 8, 51, 120
13, 958, Note_on_c, 8, 51, 0
13, 960, Note_on_c, 8, 51, 126
13, 1229, Note_on_c, 8, 51, 0
13, 1410, Note_on_c, 8, 51, 119
13, 1436, Note_on_c, 8, 51, 0
13, 1440, Note_on_c, 8, 51, 124
13, 1679, Note_on_c, 8, 51, 0
13, 2400, Note_on_c, 8, 51, 105
13, 2519, Note_on_c, 8, 51, 0
13, 3360, Note_on_c, 8, 51, 102
13, 3479, Note_on_c, 8, 51, 0
13, 7680, Note_on_c, 8, 51, 90
13, 7799, Note_on_c, 8, 51, 0
13, 18720, Note_on_c, 8, 51, 127
13, 18959, Note_on_c, 8, 51, 0
13, 19200, Note_on_c, 8, 46, 127
13, 19439, Note_on_c, 8, 46, 0
13, 19680, Note_on_c, 8, 51, 127
13, 19919, Note_on_c, 8, 51, 0
13, 20160, Note_on_c, 8, 46, 127
13, 20399, Note_on_c, 8, 46, 0
13, 20640, Note_on_c, 8, 51, 127
13, 20759, Note_on_c, 8, 51, 0
13, 21840, Note_on_c, 8, 46, 127
13, 21959, Note_on_c, 8, 46, 0
13, 21960, Note_on_c, 8, 51, 127
13, 22079, Note_on_c, 8, 51, 0
13, 22080, Note_on_c, 8, 51, 127
13, 22199, Note_on_c, 8, 51, 0
13, 22320, Note_on_c, 8, 46, 127
13, 22439, Note_on_c, 8, 46, 0
13, 22560, Note_on_c, 8, 51, 127
13, 22679, Note_on_c, 8, 51, 0
13, 24480, Note_on_c, 8, 51, 119
13, 24539, Note_on_c, 8, 51, 0
13, 24540, Note_on_c, 8, 51, 120
13, 24599, Note_on_c, 8, 51, 0
13, 24600, Note_on_c, 8, 51, 122
13, 24659, Note_on_c, 8, 51, 0
13, 24660, Note_on_c, 8, 51, 122
13, 24719, Note_on_c, 8, 51, 0
13, 24720, Note_on_c, 8, 51, 118
13, 24779, Note_on_c, 8, 51, 0
13, 24780, Note_on_c, 8, 51, 115
13, 24839, Note_on_c, 8, 51, 0
13, 24840, Note_on_c, 8, 51, 118
13, 24899, Note_on_c, 8, 51, 0
13, 24900, Note_on_c, 8, 51, 124
13, 24959, Note_on_c, 8, 51, 0
13, 24960, Note_on_c, 8, 51, 127
13, 25019, Note_on_c, 8, 51, 0
13, 25080, Note_on_c, 8, 46, 121
13, 25139, Note_on_c, 8, 46, 0
13, 25920, Note_on_c, 8, 46, 127
13, 26189, Note_on_c, 8, 46, 0
13, 26880, Note_on_c, 8, 46, 127
13, 27149, Note_on_c, 8, 46, 0
13, 32640, Note_on_c, 8, 46, 127
13, 32759, Note_on_c, 8, 46, 0
13, 32760, Note_on_c, 8, 46, 123
13, 32819, Note_on_c, 8, 46, 0
13, 32820, Note_on_c, 8, 46, 121
13, 32879, Note_on_c, 8, 46, 0
13, 32880, Note_on_c, 8, 46, 127
13, 32999, Note_on_c, 8, 46, 0
13, 34200, Note_on_c, 8, 46, 123
13, 34259, Note_on_c, 8, 46, 0
13, 34260, Note_on_c, 8, 46, 121
13, 34319, Note_on_c, 8, 46, 0
13, 34320, Note_on_c, 8, 46, 127
13, 34439, Note_on_c, 8, 46, 0
13, 34440, Note_on_c, 8, 51, 127
13, 34559, Note_on_c, 8, 51, 0
13, 34560, Note_on_c, 8, 51, 127
13, 34679, Note_on_c, 8, 51, 0
13, 34800, Note_on_c, 8, 46, 127
13, 34919, Note_on_c, 8, 46, 0
13, 35040, Note_on_c, 8, 51, 127
13, 35159, Note_on_c, 8, 51, 0
13, 37440, Note_on_c, 8, 46, 127
13, 37499, Note_on_c, 8, 46, 0
13, 37500, Note_on_c, 8, 46, 127
13, 37559, Note_on_c, 8, 46, 0
13, 37560, Note_on_c, 8, 46, 123
13, 37619, Note_on_c, 8, 46, 0
13, 37620, Note_on_c, 8, 46, 121
13, 37679, Note_on_c, 8, 46, 0
13, 37680, Note_on_c, 8, 46, 127
13, 37799, Note_on_c, 8, 46, 0
13, 39000, Note_on_c, 8, 46, 123
13, 39059, Note_on_c, 8, 46, 0
13, 39060, Note_on_c, 8, 46, 121
13, 39119, Note_on_c, 8, 46, 0
13, 39120, Note_on_c, 8, 46, 127
13, 39239, Note_on_c, 8, 46, 0
13, 39240, Note_on_c, 8, 51, 127
13, 39359, Note_on_c, 8, 51, 0
13, 39360, Note_on_c, 8, 51, 127
13, 39479, Note_on_c, 8, 51, 0
13, 39600, Note_on_c, 8, 46, 127
13, 39719, Note_on_c, 8, 46, 0
13, 39840, Note_on_c, 8, 51, 127
13, 39959, Note_on_c, 8, 51, 0
13, 43200, Note_on_c, 8, 46, 127
13, 43319, Note_on_c, 8, 46, 0
13, 43440, Note_on_c, 8, 51, 127
13, 43559, Note_on_c, 8, 51, 0
13, 44160, Note_on_c, 8, 46, 127
13, 44279, Note_on_c, 8, 46, 0
13, 44400, Note_on_c, 8, 46, 127
13, 44519, Note_on_c, 8, 46, 0
13, 44640, Note_on_c, 8, 46, 127
13, 44759, Note_on_c, 8, 46, 0
13, 44880, Note_on_c, 8, 46, 127
13, 44999, Note_on_c, 8, 46, 0
13, 45120, Note_on_c, 8, 46, 127
13, 45239, Note_on_c, 8, 46, 0
13, 45240, Note_on_c, 8, 46, 127
13, 45359, Note_on_c, 8, 46, 0
13, 45360, Note_on_c, 8, 46, 127
13, 45479, Note_on_c, 8, 46, 0
13, 45480, Note_on_c, 8, 46, 127
13, 45599, Note_on_c, 8, 46, 0
13, 45600, Note_on_c, 8, 46, 127
13, 45719, Note_on_c, 8, 46, 0
13, 45840, Note_on_c, 8, 46, 127
13, 45959, Note_on_c, 8, 46, 0
13, 45960, Note_on_c, 8, 46, 127
13, 46079, Note_on_c, 8, 46, 0
13, 46080, Note_on_c, 8, 46, 127
13, 46379, Note_on_c, 8, 46, 0
13, 46379, End_track
14, 0, Start_track
14, 0, MIDI_port, 0
14, 0, Title_t, "The Magic Flute"
14, 0, End_track
15, 0, Start_track
15, 0, MIDI_port, 0
15, 0, Title_t, "Mozart Opera"
15, 0, End_track
16, 0, Start_track
16, 0, MIDI_port, 0
16, 0, Title_t, "Overture"
16, 0, End_track
17, 0, Start_track
17, 0, MIDI_port, 0
17, 0, Title_t, "Adagio/Allegro"
17, 0, End_track
18, 0, Start_track
18, 0, MIDI_port, 0
18, 0, Title_t, "Recorded by dr. Chew"
18, 0, End_track
19, 0, Start_track
19, 0, MIDI_port, 0
19, 0, Title_t, "(c) Creative Labs Inc. 1994"
19, 0, End_track
20, 0, Start_track
20, 0, MIDI_port, 0
20, 0, End_track
0, 0, End_of_file