0, 0, Header, 1, 16, 96
1, 0, Start_track
1, 0, Title_t, "Conduct"
1, 0, Key_signature, 0, "major"
1, 0, Time_signature, 3, 2, 24, 8
1, 0, Time_signature, 3, 2, 24, 8
1, 0, Tempo, 428571
1, 24768, Time_signature, 5, 2, 24, 8
1, 24768, Time_signature, 5, 2, 24, 8
1, 24960, Tempo, 600000
1, 25248, Time_signature, 3, 2, 24, 8
1, 25248, Time_signature, 3, 2, 24, 8
1, 25248, Tempo, 428571
1, 33312, Time_signature, 3, 2, 24, 8
1, 33312, Time_signature, 3, 2, 24, 8
1, 33792, Tempo, 1200000
1, 33888, Tempo, 428571
1, 47232, Tempo, 500000
1, 47328, Tempo, 545454
1, 47424, Tempo, 600000
1, 47424, End_track
2, 0, Start_track
2, 0, Title_t, "Soprano"
2, 0, Key_signature, 0, "major"
2, 0, Time_signature, 3, 2, 24, 8
2, 0, Time_signature, 3, 2, 24, 8
2, 0, Program_c, 0, 52
2, 0, Control_c, 0, 7, 95
2, 0, Note_on_c, 0, 72, 100
2, 288, Note_on_c, 0, 72, 0
2, 288, Note_on_c, 0, 71, 100
2, 384, Note_on_c, 0, 71, 0
2, 1152, Note_on_c, 0, 77, 100
2, 1416, Note_on_c, 0, 77, 0
2, 1416, Note_on_c, 0, 77, 100
2, 1440, Note_on_c, 0, 77, 0
2, 1440, Note_on_c, 0, 76, 100
2, 1536, Note_on_c, 0, 76, 0
2, 2304, Note_on_c, 0, 77, 100
2, 2448, Note_on_c, 0, 77, 0
2, 2448, Note_on_c, 0, 72, 100
2, 2496, Note_on_c, 0, 72, 0
2, 2496, Note_on_c, 0, 69, 100
2, 2592, Note_on_c, 0, 69, 0
2, 2592, Note_on_c, 0, 69, 100
2, 2688, Note_on_c, 0, 69, 0
2, 2688, Note_on_c, 0, 67, 100
2, 2784, Note_on_c, 0, 67, 0
2, 2880, Note_on_c, 0, 67, 100
2, 3072, Note_on_c, 0, 67, 0
2, 3072, Note_on_c, 0, 72, 100
2, 3168, Note_on_c, 0, 72, 0
2, 3168, Note_on_c, 0, 72, 100
2, 3264, Note_on_c, 0, 72, 0
2, 3264, Note_on_c, 0, 71, 100
2, 3360, Note_on_c, 0, 71, 0
2, 3456, Note_on_c, 0, 67, 100
2, 3552, Note_on_c, 0, 67, 0
2, 3552, Note_on_c, 0, 67, 100
2, 3696, Note_on_c, 0, 67, 0
2, 3696, Note_on_c, 0, 74, 100
2, 3744, Note_on_c, 0, 74, 0
2, 3744, Note_on_c, 0, 74, 100
2, 3840, Note_on_c, 0, 74, 0
2, 3840, Note_on_c, 0, 72, 100
2, 3936, Note_on_c, 0, 72, 0
2, 4032, Note_on_c, 0, 76, 100
2, 4224, Note_on_c, 0, 76, 0
2, 4224, Note_on_c, 0, 77, 100
2, 4320, Note_on_c, 0, 77, 0
2, 4320, Note_on_c, 0, 74, 100
2, 4464, Note_on_c, 0, 74, 0
2, 4464, Note_on_c, 0, 74, 100
2, 4512, Note_on_c, 0, 74, 0
2, 4512, Note_on_c, 0, 76, 100
2, 4560, Note_on_c, 0, 76, 0
2, 4560, Note_on_c, 0, 76, 100
2, 4608, Note_on_c, 0, 76, 0
2, 4608, Note_on_c, 0, 72, 100
2, 4800, Note_on_c, 0, 72, 0
2, 4800, Note_on_c, 0, 74, 100
2, 4896, Note_on_c, 0, 74, 0
2, 4896, Note_on_c, 0, 71, 100
2, 5088, Note_on_c, 0, 71, 0
2, 5088, Note_on_c, 0, 72, 100
2, 5136, Note_on_c, 0, 72, 0
2, 5136, Note_on_c, 0, 72, 100
2, 5184, Note_on_c, 0, 72, 0
2, 5184, Note_on_c, 0, 77, 100
2, 5376, Note_on_c, 0, 77, 0
2, 5376, Note_on_c, 0, 76, 100
2, 5472, Note_on_c, 0, 76, 0
2, 5472, Note_on_c, 0, 74, 100
2, 5568, Note_on_c, 0, 74, 0
2, 5568, Note_on_c, 0, 71, 100
2, 5664, Note_on_c, 0, 71, 0
2, 5664, Note_on_c, 0, 72, 100
2, 5760, Note_on_c, 0, 72, 0
2, 5760, Note_on_c, 0, 77, 100
2, 5952, Note_on_c, 0, 77, 0
2, 5952, Note_on_c, 0, 76, 100
2, 6048, Note_on_c, 0, 76, 0
2, 6048, Note_on_c, 0, 74, 100
2, 6144, Note_on_c, 0, 74, 0
2, 6624, Note_on_c, 0, 79, 100
2, 6816, Note_on_c, 0, 79, 0
2, 6816, Note_on_c, 0, 76, 100
2, 6912, Note_on_c, 0, 76, 0
2, 6912, Note_on_c, 0, 73, 100
2, 7008, Note_on_c, 0, 73, 0
2, 7008, Note_on_c, 0, 76, 100
2, 7104, Note_on_c, 0, 76, 0
2, 7104, Note_on_c, 0, 70, 100
2, 7200, Note_on_c, 0, 70, 0
2, 7200, Note_on_c, 0, 69, 100
2, 7296, Note_on_c, 0, 69, 0
2, 7296, Note_on_c, 0, 69, 100
2, 7392, Note_on_c, 0, 69, 0
2, 7392, Note_on_c, 0, 69, 100
2, 7488, Note_on_c, 0, 69, 0
2, 7488, Note_on_c, 0, 69, 100
2, 7680, Note_on_c, 0, 69, 0
2, 7680, Note_on_c, 0, 79, 100
2, 7776, Note_on_c, 0, 79, 0
2, 7776, Note_on_c, 0, 77, 100
2, 7824, Note_on_c, 0, 77, 0
2, 7824, Note_on_c, 0, 74, 100
2, 7872, Note_on_c, 0, 74, 0
2, 7872, Note_on_c, 0, 73, 100
2, 7920, Note_on_c, 0, 73, 0
2, 7920, Note_on_c, 0, 74, 100
2, 7968, Note_on_c, 0, 74, 0
2, 7968, Note_on_c, 0, 76, 100
2, 8016, Note_on_c, 0, 76, 0
2, 8016, Note_on_c, 0, 77, 100
2, 8064, Note_on_c, 0, 77, 0
2, 8064, Note_on_c, 0, 79, 100
2, 8352, Note_on_c, 0, 79, 0
2, 8352, Note_on_c, 0, 77, 100
2, 8448, Note_on_c, 0, 77, 0
2, 8448, Note_on_c, 0, 77, 100
2, 8544, Note_on_c, 0, 77, 0
2, 8544, Note_on_c, 0, 74, 100
2, 8640, Note_on_c, 0, 74, 0
2, 8640, Note_on_c, 0, 71, 100
2, 8736, Note_on_c, 0, 71, 0
2, 8736, Note_on_c, 0, 74, 100
2, 8832, Note_on_c, 0, 74, 0
2, 8832, Note_on_c, 0, 68, 100
2, 8928, Note_on_c, 0, 68, 0
2, 8928, Note_on_c, 0, 67, 100
2, 9072, Note_on_c, 0, 67, 0
2, 9072, Note_on_c, 0, 67, 100
2, 9120, Note_on_c, 0, 67, 0
2, 9120, Note_on_c, 0, 67, 100
2, 9216, Note_on_c, 0, 67, 0
2, 9216, Note_on_c, 0, 67, 100
2, 9312, Note_on_c, 0, 67, 0
2, 9312, Note_on_c, 0, 67, 100
2, 9408, Note_on_c, 0, 67, 0
2, 9408, Note_on_c, 0, 77, 100
2, 9504, Note_on_c, 0, 77, 0
2, 9504, Note_on_c, 0, 76, 100
2, 9552, Note_on_c, 0, 76, 0
2, 9552, Note_on_c, 0, 72, 100
2, 9600, Note_on_c, 0, 72, 0
2, 9600, Note_on_c, 0, 71, 100
2, 9648, Note_on_c, 0, 71, 0
2, 9648, Note_on_c, 0, 72, 100
2, 9696, Note_on_c, 0, 72, 0
2, 9696, Note_on_c, 0, 74, 100
2, 9744, Note_on_c, 0, 74, 0
2, 9744, Note_on_c, 0, 76, 100
2, 9792, Note_on_c, 0, 76, 0
2, 9792, Note_on_c, 0, 77, 100
2, 10080, Note_on_c, 0, 77, 0
2, 10080, Note_on_c, 0, 76, 100
2, 10176, Note_on_c, 0, 76, 0
2, 10176, Note_on_c, 0, 76, 100
2, 10272, Note_on_c, 0, 76, 0
2, 10272, Note_on_c, 0, 76, 100
2, 10368, Note_on_c, 0, 76, 0
2, 10368, Note_on_c, 0, 75, 100
2, 10656, Note_on_c, 0, 75, 0
2, 10656, Note_on_c, 0, 76, 100
2, 10728, Note_on_c, 0, 76, 0
2, 10728, Note_on_c, 0, 76, 100
2, 10752, Note_on_c, 0, 76, 0
2, 10752, Note_on_c, 0, 79, 100
2, 10848, Note_on_c, 0, 79, 0
2, 10848, Note_on_c, 0, 76, 100
2, 10944, Note_on_c, 0, 76, 0
2, 10944, Note_on_c, 0, 73, 100
2, 11136, Note_on_c, 0, 73, 0
2, 11136, Note_on_c, 0, 73, 100
2, 11232, Note_on_c, 0, 73, 0
2, 11232, Note_on_c, 0, 74, 100
2, 11328, Note_on_c, 0, 74, 0
2, 11328, Note_on_c, 0, 77, 100
2, 11424, Note_on_c, 0, 77, 0
2, 11424, Note_on_c, 0, 74, 100
2, 11520, Note_on_c, 0, 74, 0
2, 11520, Note_on_c, 0, 71, 100
2, 11808, Note_on_c, 0, 71, 0
2, 11808, Note_on_c, 0, 72, 100
2, 11904, Note_on_c, 0, 72, 0
2, 11904, Note_on_c, 0, 72, 100
2, 12000, Note_on_c, 0, 72, 0
2, 12000, Note_on_c, 0, 79, 100
2, 12096, Note_on_c, 0, 79, 0
2, 12096, Note_on_c, 0, 78, 100
2, 12240, Note_on_c, 0, 78, 0
2, 12240, Note_on_c, 0, 78, 100
2, 12288, Note_on_c, 0, 78, 0
2, 12288, Note_on_c, 0, 78, 100
2, 12336, Note_on_c, 0, 78, 0
2, 12336, Note_on_c, 0, 78, 100
2, 12384, Note_on_c, 0, 78, 0
2, 12384, Note_on_c, 0, 76, 100
2, 12672, Note_on_c, 0, 76, 0
2, 12672, Note_on_c, 0, 74, 100
2, 12864, Note_on_c, 0, 74, 0
2, 12864, Note_on_c, 0, 74, 100
2, 12960, Note_on_c, 0, 74, 0
2, 12960, Note_on_c, 0, 72, 100
2, 13104, Note_on_c, 0, 72, 0
2, 13104, Note_on_c, 0, 72, 100
2, 13152, Note_on_c, 0, 72, 0
2, 13152, Note_on_c, 0, 72, 100
2, 13248, Note_on_c, 0, 72, 0
2, 13248, Note_on_c, 0, 71, 100
2, 13344, Note_on_c, 0, 71, 0
2, 13344, Note_on_c, 0, 71, 100
2, 13440, Note_on_c, 0, 71, 0
2, 13440, Note_on_c, 0, 74, 100
2, 13536, Note_on_c, 0, 74, 0
2, 13536, Note_on_c, 0, 79, 100
2, 13680, Note_on_c, 0, 79, 0
2, 13680, Note_on_c, 0, 78, 100
2, 13704, Note_on_c, 0, 78, 0
2, 13704, Note_on_c, 0, 76, 100
2, 13728, Note_on_c, 0, 76, 0
2, 13728, Note_on_c, 0, 74, 100
2, 13824, Note_on_c, 0, 74, 0
2, 13824, Note_on_c, 0, 72, 100
2, 13920, Note_on_c, 0, 72, 0
2, 13920, Note_on_c, 0, 71, 100
2, 13992, Note_on_c, 0, 71, 0
2, 13992, Note_on_c, 0, 71, 100
2, 14016, Note_on_c, 0, 71, 0
2, 14016, Note_on_c, 0, 69, 100
2, 14112, Note_on_c, 0, 69, 0
2, 14112, Note_on_c, 0, 67, 100
2, 14208, Note_on_c, 0, 67, 0
2, 14400, Note_on_c, 0, 79, 100
2, 14688, Note_on_c, 0, 79, 0
2, 14688, Note_on_c, 0, 71, 100
2, 14880, Note_on_c, 0, 71, 0
2, 14880, Note_on_c, 0, 76, 100
2, 14976, Note_on_c, 0, 76, 0
2, 14976, Note_on_c, 0, 73, 100
2, 15240, Note_on_c, 0, 73, 0
2, 15240, Note_on_c, 0, 73, 100
2, 15264, Note_on_c, 0, 73, 0
2, 15264, Note_on_c, 0, 74, 100
2, 15360, Note_on_c, 0, 74, 0
2, 15552, Control_c, 0, 7, 60
2, 15552, Note_on_c, 0, 74, 100
2, 15744, Note_on_c, 0, 74, 0
2, 15744, Note_on_c, 0, 76, 100
2, 15792, Note_on_c, 0, 76, 0
2, 15792, Note_on_c, 0, 74, 100
2, 15840, Note_on_c, 0, 74, 0
2, 15840, Note_on_c, 0, 74, 100
2, 15888, Note_on_c, 0, 74, 0
2, 15888, Note_on_c, 0, 72, 100
2, 15936, Note_on_c, 0, 72, 0
2, 15936, Note_on_c, 0, 71, 100
2, 15984, Note_on_c, 0, 71, 0
2, 15984, Note_on_c, 0, 72, 100
2, 16032, Note_on_c, 0, 72, 0
2, 16032, Note_on_c, 0, 72, 100
2, 16128, Note_on_c, 0, 72, 0
2, 16128, Note_on_c, 0, 72, 100
2, 16272, Note_on_c, 0, 72, 0
2, 16272, Note_on_c, 0, 76, 100
2, 16320, Note_on_c, 0, 76, 0
2, 16320, Note_on_c, 0, 74, 100
2, 16368, Note_on_c, 0, 74, 0
2, 16368, Note_on_c, 0, 72, 100
2, 16416, Note_on_c, 0, 72, 0
2, 16416, Note_on_c, 0, 72, 100
2, 16512, Note_on_c, 0, 72, 0
2, 16512, Note_on_c, 0, 71, 100
2, 16608, Note_on_c, 0, 71, 0
2, 16704, Control_c, 0, 7, 95
2, 16704, Note_on_c, 0, 74, 100
2, 16800, Note_on_c, 0, 74, 0
2, 16800, Note_on_c, 0, 74, 100
2, 16944, Note_on_c, 0, 74, 0
2, 16944, Note_on_c, 0, 76, 100
2, 16992, Note_on_c, 0, 76, 0
2, 16992, Note_on_c, 0, 67, 100
2, 17088, Note_on_c, 0, 67, 0
2, 17088, Note_on_c, 0, 66, 100
2, 17184, Note_on_c, 0, 66, 0
2, 17280, Note_on_c, 0, 72, 100
2, 17424, Note_on_c, 0, 72, 0
2, 17424, Note_on_c, 0, 76, 100
2, 17472, Note_on_c, 0, 76, 0
2, 17472, Note_on_c, 0, 74, 100
2, 17520, Note_on_c, 0, 74, 0
2, 17520, Note_on_c, 0, 72, 100
2, 17568, Note_on_c, 0, 72, 0
2, 17568, Note_on_c, 0, 72, 100
2, 17664, Note_on_c, 0, 72, 0
2, 17664, Note_on_c, 0, 71, 100
2, 17760, Note_on_c, 0, 71, 0
2, 17760, Note_on_c, 0, 67, 100
2, 17856, Note_on_c, 0, 67, 0
2, 17856, Note_on_c, 0, 74, 100
2, 18144, Note_on_c, 0, 74, 0
2, 18144, Note_on_c, 0, 74, 100
2, 18432, Note_on_c, 0, 74, 0
2, 18432, Note_on_c, 0, 74, 100
2, 18576, Note_on_c, 0, 74, 0
2, 18576, Note_on_c, 0, 74, 100
2, 18624, Note_on_c, 0, 74, 0
2, 18624, Note_on_c, 0, 72, 100
2, 18672, Note_on_c, 0, 72, 0
2, 18672, Note_on_c, 0, 71, 100
2, 18720, Note_on_c, 0, 71, 0
2, 18720, Note_on_c, 0, 72, 100
2, 18984, Note_on_c, 0, 72, 0
2, 18984, Note_on_c, 0, 72, 100
2, 19008, Note_on_c, 0, 72, 0
2, 19008, Note_on_c, 0, 71, 100
2, 19104, Note_on_c, 0, 71, 0
2, 19104, Note_on_c, 0, 76, 100
2, 19176, Note_on_c, 0, 76, 0
2, 19176, Note_on_c, 0, 76, 100
2, 19200, Note_on_c, 0, 76, 0
2, 19200, Note_on_c, 0, 76, 100
2, 19296, Note_on_c, 0, 76, 0
2, 19296, Note_on_c, 0, 76, 100
2, 19392, Note_on_c, 0, 76, 0
2, 19392, Note_on_c, 0, 76, 100
2, 19488, Note_on_c, 0, 76, 0
2, 19488, Note_on_c, 0, 76, 100
2, 19584, Note_on_c, 0, 76, 0
2, 19584, Note_on_c, 0, 76, 100
2, 19872, Note_on_c, 0, 76, 0
2, 19872, Note_on_c, 0, 76, 100
2, 19920, Note_on_c, 0, 76, 0
2, 19920, Note_on_c, 0, 76, 100
2, 19968, Note_on_c, 0, 76, 0
2, 19968, Note_on_c, 0, 76, 100
2, 20064, Note_on_c, 0, 76, 0
2, 20064, Note_on_c, 0, 76, 100
2, 20160, Note_on_c, 0, 76, 0
2, 20160, Note_on_c, 0, 76, 100
2, 20448, Note_on_c, 0, 76, 0
2, 20448, Note_on_c, 0, 76, 100
2, 20544, Note_on_c, 0, 76, 0
2, 20640, Note_on_c, 0, 69, 100
2, 20736, Note_on_c, 0, 69, 0
2, 20736, Note_on_c, 0, 77, 100
2, 20880, Note_on_c, 0, 77, 0
2, 20880, Note_on_c, 0, 76, 100
2, 20928, Note_on_c, 0, 76, 0
2, 20928, Note_on_c, 0, 77, 100
2, 20976, Note_on_c, 0, 77, 0
2, 20976, Note_on_c, 0, 76, 100
2, 21024, Note_on_c, 0, 76, 0
2, 21024, Note_on_c, 0, 77, 100
2, 21168, Note_on_c, 0, 77, 0
2, 21168, Note_on_c, 0, 76, 100
2, 21216, Note_on_c, 0, 76, 0
2, 21216, Note_on_c, 0, 77, 100
2, 21264, Note_on_c, 0, 77, 0
2, 21264, Note_on_c, 0, 76, 100
2, 21312, Note_on_c, 0, 76, 0
2, 21312, Note_on_c, 0, 77, 100
2, 21504, Note_on_c, 0, 77, 0
2, 21504, Note_on_c, 0, 76, 100
2, 21600, Note_on_c, 0, 76, 0
2, 21600, Control_c, 0, 7, 127
2, 21600, Note_on_c, 0, 75, 100
2, 21636, Control_c, 0, 7, 95
2, 21888, Note_on_c, 0, 75, 0
2, 21888, Control_c, 0, 7, 127
2, 21888, Note_on_c, 0, 74, 100
2, 21924, Control_c, 0, 7, 95
2, 22128, Note_on_c, 0, 74, 0
2, 22128, Note_on_c, 0, 74, 100
2, 22176, Note_on_c, 0, 74, 0
2, 22176, Control_c, 0, 7, 127
2, 22176, Note_on_c, 0, 73, 100
2, 22212, Control_c, 0, 7, 95
2, 22464, Note_on_c, 0, 73, 0
2, 22464, Control_c, 0, 7, 127
2, 22464, Note_on_c, 0, 72, 100
2, 22500, Control_c, 0, 7, 95
2, 22752, Note_on_c, 0, 72, 0
2, 22752, Control_c, 0, 7, 127
2, 22752, Note_on_c, 0, 71, 100
2, 22788, Control_c, 0, 7, 95
2, 22896, Note_on_c, 0, 71, 0
2, 22896, Note_on_c, 0, 71, 100
2, 22944, Note_on_c, 0, 71, 0
2, 22944, Control_c, 0, 7, 95
2, 22944, Note_on_c, 0, 69, 100
2, 23088, Note_on_c, 0, 69, 0
2, 23088, Note_on_c, 0, 69, 100
2, 23136, Note_on_c, 0, 69, 0
2, 23136, Note_on_c, 0, 69, 100
2, 23232, Note_on_c, 0, 69, 0
2, 23232, Note_on_c, 0, 68, 100
2, 23328, Note_on_c, 0, 68, 0
2, 23328, Note_on_c, 0, 69, 100
2, 23424, Note_on_c, 0, 69, 0
2, 23616, Note_on_c, 0, 69, 100
2, 23904, Note_on_c, 0, 69, 0
2, 23904, Note_on_c, 0, 70, 100
2, 24192, Note_on_c, 0, 70, 0
2, 24192, Note_on_c, 0, 79, 100
2, 24384, Note_on_c, 0, 79, 0
2, 24384, Note_on_c, 0, 77, 100
2, 24480, Note_on_c, 0, 77, 0
2, 24480, Note_on_c, 0, 77, 100
2, 24576, Note_on_c, 0, 77, 0
2, 24576, Note_on_c, 0, 75, 100
2, 24672, Note_on_c, 0, 75, 0
2, 24672, Note_on_c, 0, 74, 100
2, 24768, Time_signature, 5, 2, 24, 8
2, 24768, Time_signature, 5, 2, 24, 8
2, 24768, Note_on_c, 0, 74, 0
2, 24768, Note_on_c, 0, 73, 100
2, 24912, Note_on_c, 0, 73, 0
2, 24912, Note_on_c, 0, 73, 100
2, 24960, Note_on_c, 0, 73, 0
2, 24960, Note_on_c, 0, 74, 100
2, 25152, Note_on_c, 0, 74, 0
2, 25248, Time_signature, 3, 2, 24, 8
2, 25248, Time_signature, 3, 2, 24, 8
2, 25296, Note_on_c, 0, 69, 100
2, 25344, Note_on_c, 0, 69, 0
2, 25344, Note_on_c, 0, 69, 100
2, 25440, Note_on_c, 0, 69, 0
2, 25440, Note_on_c, 0, 69, 100
2, 25488, Note_on_c, 0, 69, 0
2, 25488, Note_on_c, 0, 69, 100
2, 25536, Note_on_c, 0, 69, 0
2, 25536, Note_on_c, 0, 69, 100
2, 25872, Note_on_c, 0, 69, 0
2, 25872, Note_on_c, 0, 74, 100
2, 25920, Note_on_c, 0, 74, 0
2, 25920, Note_on_c, 0, 73, 100
2, 25968, Note_on_c, 0, 73, 0
2, 25968, Note_on_c, 0, 74, 100
2, 26016, Note_on_c, 0, 74, 0
2, 26016, Note_on_c, 0, 76, 100
2, 26064, Note_on_c, 0, 76, 0
2, 26064, Note_on_c, 0, 77, 100
2, 26112, Note_on_c, 0, 77, 0
2, 26112, Note_on_c, 0, 79, 100
2, 26400, Note_on_c, 0, 79, 0
2, 26400, Note_on_c, 0, 77, 100
2, 26496, Note_on_c, 0, 77, 0
2, 26496, Note_on_c, 0, 77, 100
2, 26592, Note_on_c, 0, 77, 0
2, 26592, Note_on_c, 0, 77, 100
2, 26688, Note_on_c, 0, 77, 0
2, 26688, Note_on_c, 0, 77, 100
2, 26832, Note_on_c, 0, 77, 0
2, 26832, Note_on_c, 0, 76, 100
2, 26880, Note_on_c, 0, 76, 0
2, 26880, Note_on_c, 0, 77, 100
2, 26928, Note_on_c, 0, 77, 0
2, 26928, Note_on_c, 0, 76, 100
2, 26976, Note_on_c, 0, 76, 0
2, 26976, Note_on_c, 0, 77, 100
2, 27120, Note_on_c, 0, 77, 0
2, 27120, Note_on_c, 0, 76, 100
2, 27168, Note_on_c, 0, 76, 0
2, 27168, Note_on_c, 0, 77, 100
2, 27216, Note_on_c, 0, 77, 0
2, 27216, Note_on_c, 0, 76, 100
2, 27264, Note_on_c, 0, 76, 0
2, 27264, Note_on_c, 0, 77, 100
2, 27360, Note_on_c, 0, 77, 0
2, 27360, Note_on_c, 0, 74, 100
2, 27456, Note_on_c, 0, 74, 0
2, 27456, Note_on_c, 0, 72, 100
2, 27552, Note_on_c, 0, 72, 0
2, 27552, Note_on_c, 0, 71, 100
2, 27600, Note_on_c, 0, 71, 0
2, 27600, Note_on_c, 0, 67, 100
2, 27648, Note_on_c, 0, 67, 0
2, 27648, Note_on_c, 0, 67, 100
2, 27744, Note_on_c, 0, 67, 0
2, 27744, Note_on_c, 0, 67, 100
2, 27840, Note_on_c, 0, 67, 0
2, 27840, Note_on_c, 0, 67, 100
2, 28176, Note_on_c, 0, 67, 0
2, 28176, Note_on_c, 0, 72, 100
2, 28224, Note_on_c, 0, 72, 0
2, 28224, Note_on_c, 0, 71, 100
2, 28272, Note_on_c, 0, 71, 0
2, 28272, Note_on_c, 0, 72, 100
2, 28320, Note_on_c, 0, 72, 0
2, 28320, Note_on_c, 0, 74, 100
2, 28368, Note_on_c, 0, 74, 0
2, 28368, Note_on_c, 0, 76, 100
2, 28416, Note_on_c, 0, 76, 0
2, 28416, Note_on_c, 0, 77, 100
2, 28704, Note_on_c, 0, 77, 0
2, 28704, Note_on_c, 0, 76, 100
2, 28800, Note_on_c, 0, 76, 0
2, 28800, Note_on_c, 0, 76, 100
2, 28896, Note_on_c, 0, 76, 0
2, 28896, Note_on_c, 0, 76, 100
2, 28992, Note_on_c, 0, 76, 0
2, 28992, Note_on_c, 0, 75, 100
2, 29280, Note_on_c, 0, 75, 0
2, 29280, Note_on_c, 0, 76, 100
2, 29328, Note_on_c, 0, 76, 0
2, 29328, Note_on_c, 0, 76, 100
2, 29376, Note_on_c, 0, 76, 0
2, 29376, Note_on_c, 0, 79, 100
2, 29472, Note_on_c, 0, 79, 0
2, 29472, Note_on_c, 0, 76, 100
2, 29568, Note_on_c, 0, 76, 0
2, 29568, Note_on_c, 0, 73, 100
2, 29856, Note_on_c, 0, 73, 0
2, 29856, Note_on_c, 0, 74, 100
2, 29904, Note_on_c, 0, 74, 0
2, 29904, Note_on_c, 0, 74, 100
2, 29952, Note_on_c, 0, 74, 0
2, 29952, Note_on_c, 0, 77, 100
2, 30048, Note_on_c, 0, 77, 0
2, 30048, Note_on_c, 0, 74, 100
2, 30144, Note_on_c, 0, 74, 0
2, 30144, Note_on_c, 0, 71, 100
2, 30432, Note_on_c, 0, 71, 0
2, 30432, Note_on_c, 0, 72, 100
2, 30528, Note_on_c, 0, 72, 0
2, 30528, Note_on_c, 0, 72, 100
2, 30624, Note_on_c, 0, 72, 0
2, 30624, Note_on_c, 0, 79, 100
2, 30720, Note_on_c, 0, 79, 0
2, 30720, Note_on_c, 0, 78, 100
2, 30864, Note_on_c, 0, 78, 0
2, 30864, Note_on_c, 0, 78, 100
2, 30912, Note_on_c, 0, 78, 0
2, 30912, Note_on_c, 0, 78, 100
2, 31008, Note_on_c, 0, 78, 0
2, 31008, Note_on_c, 0, 76, 100
2, 31200, Note_on_c, 0, 76, 0
2, 31200, Note_on_c, 0, 76, 100
2, 31296, Note_on_c, 0, 76, 0
2, 31296, Note_on_c, 0, 74, 100
2, 31584, Note_on_c, 0, 74, 0
2, 31584, Note_on_c, 0, 72, 100
2, 31872, Note_on_c, 0, 72, 0
2, 31872, Note_on_c, 0, 71, 100
2, 32160, Note_on_c, 0, 71, 0
2, 32160, Note_on_c, 0, 72, 100
2, 32448, Note_on_c, 0, 72, 0
2, 32448, Note_on_c, 0, 74, 100
2, 32736, Note_on_c, 0, 74, 0
2, 32736, Note_on_c, 0, 76, 100
2, 33024, Note_on_c, 0, 76, 0
2, 33024, Note_on_c, 0, 77, 100
2, 33312, Time_signature, 3, 2, 24, 8
2, 33312, Time_signature, 3, 2, 24, 8
2, 33312, Note_on_c, 0, 77, 0
2, 33312, Note_on_c, 0, 77, 100
2, 33792, Note_on_c, 0, 77, 0
2, 37344, Note_on_c, 0, 67, 100
2, 37536, Note_on_c, 0, 67, 0
2, 37536, Note_on_c, 0, 72, 100
2, 37632, Note_on_c, 0, 72, 0
2, 37632, Note_on_c, 0, 72, 100
2, 37728, Note_on_c, 0, 72, 0
2, 37728, Note_on_c, 0, 71, 100
2, 37824, Note_on_c, 0, 71, 0
2, 37920, Note_on_c, 0, 67, 100
2, 38112, Note_on_c, 0, 67, 0
2, 38112, Note_on_c, 0, 74, 100
2, 38208, Note_on_c, 0, 74, 0
2, 38208, Note_on_c, 0, 74, 100
2, 38280, Note_on_c, 0, 74, 0
2, 38280, Note_on_c, 0, 74, 100
2, 38304, Note_on_c, 0, 74, 0
2, 38304, Note_on_c, 0, 72, 100
2, 38400, Note_on_c, 0, 72, 0
2, 38496, Note_on_c, 0, 76, 100
2, 38688, Note_on_c, 0, 76, 0
2, 38688, Note_on_c, 0, 77, 100
2, 38784, Note_on_c, 0, 77, 0
2, 38784, Note_on_c, 0, 74, 100
2, 38976, Note_on_c, 0, 74, 0
2, 38976, Note_on_c, 0, 76, 100
2, 39072, Note_on_c, 0, 76, 0
2, 39072, Note_on_c, 0, 72, 100
2, 39264, Note_on_c, 0, 72, 0
2, 39264, Note_on_c, 0, 74, 100
2, 39360, Note_on_c, 0, 74, 0
2, 39360, Note_on_c, 0, 71, 100
2, 39432, Note_on_c, 0, 71, 0
2, 39432, Note_on_c, 0, 71, 100
2, 39456, Note_on_c, 0, 71, 0
2, 39456, Note_on_c, 0, 71, 100
2, 39552, Note_on_c, 0, 71, 0
2, 39552, Note_on_c, 0, 72, 100
2, 39648, Note_on_c, 0, 72, 0
2, 39648, Note_on_c, 0, 77, 100
2, 39840, Note_on_c, 0, 77, 0
2, 39840, Note_on_c, 0, 76, 100
2, 39936, Note_on_c, 0, 76, 0
2, 39936, Note_on_c, 0, 74, 100
2, 40032, Note_on_c, 0, 74, 0
2, 40032, Note_on_c, 0, 71, 100
2, 40128, Note_on_c, 0, 71, 0
2, 40128, Note_on_c, 0, 72, 100
2, 40224, Note_on_c, 0, 72, 0
2, 40224, Note_on_c, 0, 77, 100
2, 40416, Note_on_c, 0, 77, 0
2, 40416, Note_on_c, 0, 76, 100
2, 40512, Note_on_c, 0, 76, 0
2, 40512, Note_on_c, 0, 74, 100
2, 40608, Note_on_c, 0, 74, 0
2, 40608, Note_on_c, 0, 71, 100
2, 40680, Note_on_c, 0, 71, 0
2, 40680, Note_on_c, 0, 71, 100
2, 40704, Note_on_c, 0, 71, 0
2, 40704, Note_on_c, 0, 72, 100
2, 40800, Note_on_c, 0, 72, 0
2, 40800, Note_on_c, 0, 79, 100
2, 40896, Note_on_c, 0, 79, 0
2, 40896, Note_on_c, 0, 76, 100
2, 40992, Note_on_c, 0, 76, 0
2, 40992, Note_on_c, 0, 72, 100
2, 41088, Note_on_c, 0, 72, 0
2, 41088, Note_on_c, 0, 67, 100
2, 41376, Note_on_c, 0, 67, 0
2, 41376, Note_on_c, 0, 79, 100
2, 41664, Note_on_c, 0, 79, 0
2, 41664, Note_on_c, 0, 78, 100
2, 41952, Note_on_c, 0, 78, 0
2, 41952, Note_on_c, 0, 77, 100
2, 42240, Note_on_c, 0, 77, 0
2, 42240, Note_on_c, 0, 76, 100
2, 42528, Note_on_c, 0, 76, 0
2, 42528, Note_on_c, 0, 75, 100
2, 42816, Note_on_c, 0, 75, 0
2, 42816, Note_on_c, 0, 74, 100
2, 43008, Note_on_c, 0, 74, 0
2, 43008, Note_on_c, 0, 79, 100
2, 43104, Note_on_c, 0, 79, 0
2, 43104, Note_on_c, 0, 77, 100
2, 43200, Note_on_c, 0, 77, 0
2, 43200, Note_on_c, 0, 76, 100
2, 43296, Note_on_c, 0, 76, 0
2, 43296, Note_on_c, 0, 74, 100
2, 43392, Note_on_c, 0, 74, 0
2, 43392, Note_on_c, 0, 72, 100
2, 43488, Note_on_c, 0, 72, 0
2, 43488, Note_on_c, 0, 79, 100
2, 43584, Note_on_c, 0, 79, 0
2, 43584, Note_on_c, 0, 79, 100
2, 43680, Note_on_c, 0, 79, 0
2, 43680, Note_on_c, 0, 79, 100
2, 43968, Note_on_c, 0, 79, 0
2, 43968, Note_on_c, 0, 78, 100
2, 44064, Note_on_c, 0, 78, 0
2, 44064, Note_on_c, 0, 78, 100
2, 44160, Note_on_c, 0, 78, 0
2, 44160, Note_on_c, 0, 78, 100
2, 44256, Note_on_c, 0, 78, 0
2, 44256, Note_on_c, 0, 77, 100
2, 44544, Note_on_c, 0, 77, 0
2, 44544, Note_on_c, 0, 76, 100
2, 44640, Note_on_c, 0, 76, 0
2, 44640, Note_on_c, 0, 76, 100
2, 44736, Note_on_c, 0, 76, 0
2, 44736, Note_on_c, 0, 76, 100
2, 44832, Note_on_c, 0, 76, 0
2, 44832, Note_on_c, 0, 75, 100
2, 45120, Note_on_c, 0, 75, 0
2, 45120, Note_on_c, 0, 74, 100
2, 45312, Note_on_c, 0, 74, 0
2, 45312, Note_on_c, 0, 79, 100
2, 45408, Note_on_c, 0, 79, 0
2, 45408, Note_on_c, 0, 77, 100
2, 45504, Note_on_c, 0, 77, 0
2, 45504, Note_on_c, 0, 76, 100
2, 45600, Note_on_c, 0, 76, 0
2, 45600, Note_on_c, 0, 74, 100
2, 45696, Note_on_c, 0, 74, 0
2, 45696, Note_on_c, 0, 72, 100
2, 45792, Note_on_c, 0, 72, 0
2, 46272, Note_on_c, 0, 76, 100
2, 46320, Note_on_c, 0, 76, 0
2, 46320, Note_on_c, 0, 76, 100
2, 46368, Note_on_c, 0, 76, 0
2, 46368, Note_on_c, 0, 74, 100
2, 46560, Note_on_c, 0, 74, 0
2, 46560, Note_on_c, 0, 72, 100
2, 46656, Note_on_c, 0, 72, 0
2, 47136, Note_on_c, 0, 76, 100
2, 47184, Note_on_c, 0, 76, 0
2, 47184, Note_on_c, 0, 76, 100
2, 47232, Note_on_c, 0, 76, 0
2, 47232, Note_on_c, 0, 74, 100
2, 47424, Note_on_c, 0, 74, 0
2, 47424, Note_on_c, 0, 72, 100
2, 47520, Note_on_c, 0, 72, 0
2, 47520, End_track
3, 0, Start_track
3, 0, Title_t, "Alto"
3, 0, Key_signature, 0, "major"
3, 0, Time_signature, 3, 2, 24, 8
3, 0, Time_signature, 3, 2, 24, 8
3, 0, Program_c, 0, 52
3, 0, Control_c, 0, 7, 95
3, 0, Note_on_c, 0, 64, 100
3, 288, Note_on_c, 0, 64, 0
3, 288, Note_on_c, 0, 65, 100
3, 384, Note_on_c, 0, 65, 0
3, 1152, Note_on_c, 0, 67, 100
3, 1416, Note_on_c, 0, 67, 0
3, 1416, Note_on_c, 0, 67, 100
3, 1440, Note_on_c, 0, 67, 0
3, 1440, Note_on_c, 0, 67, 100
3, 1536, Note_on_c, 0, 67, 0
3, 2304, Note_on_c, 0, 69, 100
3, 2448, Note_on_c, 0, 69, 0
3, 2448, Note_on_c, 0, 69, 100
3, 2496, Note_on_c, 0, 69, 0
3, 2496, Note_on_c, 0, 65, 100
3, 2592, Note_on_c, 0, 65, 0
3, 2592, Note_on_c, 0, 65, 100
3, 2688, Note_on_c, 0, 65, 0
3, 2688, Note_on_c, 0, 64, 100
3, 2784, Note_on_c, 0, 64, 0
3, 2880, Note_on_c, 0, 64, 100
3, 3072, Note_on_c, 0, 64, 0
3, 3072, Note_on_c, 0, 69, 100
3, 3168, Note_on_c, 0, 69, 0
3, 3168, Note_on_c, 0, 67, 100
3, 3264, Note_on_c, 0, 67, 0
3, 3264, Note_on_c, 0, 67, 100
3, 3360, Note_on_c, 0, 67, 0
3, 3456, Note_on_c, 0, 67, 100
3, 3552, Note_on_c, 0, 67, 0
3, 3552, Note_on_c, 0, 67, 100
3, 3696, Note_on_c, 0, 67, 0
3, 3696, Note_on_c, 0, 67, 100
3, 3744, Note_on_c, 0, 67, 0
3, 3744, Note_on_c, 0, 67, 100
3, 3840, Note_on_c, 0, 67, 0
3, 3840, Note_on_c, 0, 67, 100
3, 3936, Note_on_c, 0, 67, 0
3, 4032, Note_on_c, 0, 67, 100
3, 4224, Note_on_c, 0, 67, 0
3, 4224, Note_on_c, 0, 65, 100
3, 4320, Note_on_c, 0, 65, 0
3, 4320, Note_on_c, 0, 65, 100
3, 4464, Note_on_c, 0, 65, 0
3, 4464, Note_on_c, 0, 65, 100
3, 4512, Note_on_c, 0, 65, 0
3, 4512, Note_on_c, 0, 64, 100
3, 4560, Note_on_c, 0, 64, 0
3, 4560, Note_on_c, 0, 64, 100
3, 4608, Note_on_c, 0, 64, 0
3, 4608, Note_on_c, 0, 64, 100
3, 4800, Note_on_c, 0, 64, 0
3, 4800, Note_on_c, 0, 69, 100
3, 4896, Note_on_c, 0, 69, 0
3, 4896, Note_on_c, 0, 67, 100
3, 5088, Note_on_c, 0, 67, 0
3, 5088, Note_on_c, 0, 67, 100
3, 5136, Note_on_c, 0, 67, 0
3, 5136, Note_on_c, 0, 67, 100
3, 5184, Note_on_c, 0, 67, 0
3, 5184, Note_on_c, 0, 67, 100
3, 5376, Note_on_c, 0, 67, 0
3, 5376, Note_on_c, 0, 67, 100
3, 5472, Note_on_c, 0, 67, 0
3, 5472, Note_on_c, 0, 67, 100
3, 5568, Note_on_c, 0, 67, 0
3, 5568, Note_on_c, 0, 67, 100
3, 5664, Note_on_c, 0, 67, 0
3, 5664, Note_on_c, 0, 67, 100
3, 5760, Note_on_c, 0, 67, 0
3, 5760, Note_on_c, 0, 67, 100
3, 6048, Note_on_c, 0, 67, 0
3, 6048, Note_on_c, 0, 67, 100
3, 6144, Note_on_c, 0, 67, 0
3, 7248, Note_on_c, 0, 69, 100
3, 7296, Note_on_c, 0, 69, 0
3, 7296, Note_on_c, 0, 67, 100
3, 7344, Note_on_c, 0, 67, 0
3, 7344, Note_on_c, 0, 65, 100
3, 7392, Note_on_c, 0, 65, 0
3, 7392, Note_on_c, 0, 64, 100
3, 7440, Note_on_c, 0, 64, 0
3, 7440, Note_on_c, 0, 62, 100
3, 7488, Note_on_c, 0, 62, 0
3, 7488, Note_on_c, 0, 61, 100
3, 7632, Note_on_c, 0, 61, 0
3, 7632, Note_on_c, 0, 64, 100
3, 7680, Note_on_c, 0, 64, 0
3, 7680, Note_on_c, 0, 69, 100
3, 7776, Note_on_c, 0, 69, 0
3, 7776, Note_on_c, 0, 69, 100
3, 8064, Note_on_c, 0, 69, 0
3, 8064, Note_on_c, 0, 69, 100
3, 8352, Note_on_c, 0, 69, 0
3, 8352, Note_on_c, 0, 69, 100
3, 8448, Note_on_c, 0, 69, 0
3, 8976, Note_on_c, 0, 67, 100
3, 9024, Note_on_c, 0, 67, 0
3, 9024, Note_on_c, 0, 65, 100
3, 9072, Note_on_c, 0, 65, 0
3, 9072, Note_on_c, 0, 64, 100
3, 9120, Note_on_c, 0, 64, 0
3, 9120, Note_on_c, 0, 62, 100
3, 9168, Note_on_c, 0, 62, 0
3, 9168, Note_on_c, 0, 60, 100
3, 9216, Note_on_c, 0, 60, 0
3, 9216, Note_on_c, 0, 59, 100
3, 9312, Note_on_c, 0, 59, 0
3, 9312, Note_on_c, 0, 62, 100
3, 9408, Note_on_c, 0, 62, 0
3, 9408, Note_on_c, 0, 67, 100
3, 9504, Note_on_c, 0, 67, 0
3, 9504, Note_on_c, 0, 67, 100
3, 9600, Note_on_c, 0, 67, 0
3, 9600, Note_on_c, 0, 67, 100
3, 9696, Note_on_c, 0, 67, 0
3, 9696, Note_on_c, 0, 67, 100
3, 9792, Note_on_c, 0, 67, 0
3, 9792, Note_on_c, 0, 67, 100
3, 10080, Note_on_c, 0, 67, 0
3, 10080, Note_on_c, 0, 67, 100
3, 10176, Note_on_c, 0, 67, 0
3, 10176, Note_on_c, 0, 67, 100
3, 10272, Note_on_c, 0, 67, 0
3, 10272, Note_on_c, 0, 67, 100
3, 10368, Note_on_c, 0, 67, 0
3, 10368, Note_on_c, 0, 69, 100
3, 10656, Note_on_c, 0, 69, 0
3, 10656, Note_on_c, 0, 71, 100
3, 10728, Note_on_c, 0, 71, 0
3, 10728, Note_on_c, 0, 71, 100
3, 10752, Note_on_c, 0, 71, 0
3, 10752, Note_on_c, 0, 71, 100
3, 10848, Note_on_c, 0, 71, 0
3, 10848, Note_on_c, 0, 67, 100
3, 10944, Note_on_c, 0, 67, 0
3, 10944, Note_on_c, 0, 67, 100
3, 11136, Note_on_c, 0, 67, 0
3, 11136, Note_on_c, 0, 67, 100
3, 11232, Note_on_c, 0, 67, 0
3, 11232, Note_on_c, 0, 69, 100
3, 11328, Note_on_c, 0, 69, 0
3, 11328, Note_on_c, 0, 69, 100
3, 11424, Note_on_c, 0, 69, 0
3, 11424, Note_on_c, 0, 65, 100
3, 11520, Note_on_c, 0, 65, 0
3, 11520, Note_on_c, 0, 65, 100
3, 11808, Note_on_c, 0, 65, 0
3, 11808, Note_on_c, 0, 67, 100
3, 11904, Note_on_c, 0, 67, 0
3, 11904, Note_on_c, 0, 67, 100
3, 12000, Note_on_c, 0, 67, 0
3, 12000, Note_on_c, 0, 67, 100
3, 12096, Note_on_c, 0, 67, 0
3, 12096, Note_on_c, 0, 69, 100
3, 12240, Note_on_c, 0, 69, 0
3, 12240, Note_on_c, 0, 69, 100
3, 12288, Note_on_c, 0, 69, 0
3, 12288, Note_on_c, 0, 69, 100
3, 12336, Note_on_c, 0, 69, 0
3, 12336, Note_on_c, 0, 69, 100
3, 12384, Note_on_c, 0, 69, 0
3, 12384, Note_on_c, 0, 66, 100
3, 12672, Note_on_c, 0, 66, 0
3, 12672, Note_on_c, 0, 67, 100
3, 12864, Note_on_c, 0, 67, 0
3, 12864, Note_on_c, 0, 67, 100
3, 12960, Note_on_c, 0, 67, 0
3, 12960, Note_on_c, 0, 69, 100
3, 13104, Note_on_c, 0, 69, 0
3, 13104, Note_on_c, 0, 69, 100
3, 13152, Note_on_c, 0, 69, 0
3, 13152, Note_on_c, 0, 69, 100
3, 13248, Note_on_c, 0, 69, 0
3, 13248, Note_on_c, 0, 67, 100
3, 13344, Note_on_c, 0, 67, 0
3, 13344, Note_on_c, 0, 67, 100
3, 13440, Note_on_c, 0, 67, 0
3, 13440, Note_on_c, 0, 67, 100
3, 13536, Note_on_c, 0, 67, 0
3, 13536, Note_on_c, 0, 67, 100
3, 13680, Note_on_c, 0, 67, 0
3, 13680, Note_on_c, 0, 67, 100
3, 13728, Note_on_c, 0, 67, 0
3, 13728, Note_on_c, 0, 67, 100
3, 13824, Note_on_c, 0, 67, 0
3, 13824, Note_on_c, 0, 69, 100
3, 13920, Note_on_c, 0, 69, 0
3, 13920, Note_on_c, 0, 67, 100
3, 13992, Note_on_c, 0, 67, 0
3, 13992, Note_on_c, 0, 67, 100
3, 14016, Note_on_c, 0, 67, 0
3, 14016, Note_on_c, 0, 66, 100
3, 14112, Note_on_c, 0, 66, 0
3, 14112, Note_on_c, 0, 67, 100
3, 14208, Note_on_c, 0, 67, 0
3, 14400, Note_on_c, 0, 79, 100
3, 14688, Note_on_c, 0, 79, 0
3, 14688, Note_on_c, 0, 71, 100
3, 14880, Note_on_c, 0, 71, 0
3, 14880, Note_on_c, 0, 76, 100
3, 14976, Note_on_c, 0, 76, 0
3, 14976, Note_on_c, 0, 73, 100
3, 15240, Note_on_c, 0, 73, 0
3, 15240, Note_on_c, 0, 73, 100
3, 15264, Note_on_c, 0, 73, 0
3, 15264, Note_on_c, 0, 74, 100
3, 15360, Note_on_c, 0, 74, 0
3, 15552, Control_c, 0, 7, 60
3, 15552, Note_on_c, 0, 71, 100
3, 15744, Note_on_c, 0, 71, 0
3, 15744, Note_on_c, 0, 72, 100
3, 15792, Note_on_c, 0, 72, 0
3, 15792, Note_on_c, 0, 71, 100
3, 15840, Note_on_c, 0, 71, 0
3, 15840, Note_on_c, 0, 71, 100
3, 15888, Note_on_c, 0, 71, 0
3, 15888, Note_on_c, 0, 69, 100
3, 15936, Note_on_c, 0, 69, 0
3, 15936, Note_on_c, 0, 68, 100
3, 15984, Note_on_c, 0, 68, 0
3, 15984, Note_on_c, 0, 69, 100
3, 16032, Note_on_c, 0, 69, 0
3, 16032, Note_on_c, 0, 69, 100
3, 16128, Note_on_c, 0, 69, 0
3, 16128, Note_on_c, 0, 69, 100
3, 16272, Note_on_c, 0, 69, 0
3, 16272, Note_on_c, 0, 72, 100
3, 16320, Note_on_c, 0, 72, 0
3, 16320, Note_on_c, 0, 71, 100
3, 16368, Note_on_c, 0, 71, 0
3, 16368, Note_on_c, 0, 69, 100
3, 16416, Note_on_c, 0, 69, 0
3, 16416, Note_on_c, 0, 69, 100
3, 16512, Note_on_c, 0, 69, 0
3, 16512, Note_on_c, 0, 67, 100
3, 16608, Note_on_c, 0, 67, 0
3, 16704, Control_c, 0, 7, 95
3, 16704, Note_on_c, 0, 67, 100
3, 16800, Note_on_c, 0, 67, 0
3, 16800, Note_on_c, 0, 67, 100
3, 16944, Note_on_c, 0, 67, 0
3, 16944, Note_on_c, 0, 67, 100
3, 16992, Note_on_c, 0, 67, 0
3, 16992, Note_on_c, 0, 62, 100
3, 17088, Note_on_c, 0, 62, 0
3, 17088, Note_on_c, 0, 62, 100
3, 17184, Note_on_c, 0, 62, 0
3, 17280, Note_on_c, 0, 66, 100
3, 17376, Note_on_c, 0, 66, 0
3, 17376, Note_on_c, 0, 67, 100
3, 17472, Note_on_c, 0, 67, 0
3, 17472, Note_on_c, 0, 69, 100
3, 17568, Note_on_c, 0, 69, 0
3, 17568, Note_on_c, 0, 69, 100
3, 17664, Note_on_c, 0, 69, 0
3, 17664, Note_on_c, 0, 67, 100
3, 17760, Note_on_c, 0, 67, 0
3, 17856, Note_on_c, 0, 67, 100
3, 18144, Note_on_c, 0, 67, 0
3, 18144, Note_on_c, 0, 67, 100
3, 18336, Note_on_c, 0, 67, 0
3, 18336, Note_on_c, 0, 67, 100
3, 18432, Note_on_c, 0, 67, 0
3, 18432, Note_on_c, 0, 68, 100
3, 18576, Note_on_c, 0, 68, 0
3, 18576, Note_on_c, 0, 68, 100
3, 18624, Note_on_c, 0, 68, 0
3, 18624, Note_on_c, 0, 69, 100
3, 18672, Note_on_c, 0, 69, 0
3, 18672, Note_on_c, 0, 64, 100
3, 18720, Note_on_c, 0, 64, 0
3, 18720, Note_on_c, 0, 69, 100
3, 18984, Note_on_c, 0, 69, 0
3, 18984, Note_on_c, 0, 69, 100
3, 19008, Note_on_c, 0, 69, 0
3, 19008, Note_on_c, 0, 68, 100
3, 19104, Note_on_c, 0, 68, 0
3, 19584, Note_on_c, 0, 68, 100
3, 19848, Note_on_c, 0, 68, 0
3, 19848, Note_on_c, 0, 68, 100
3, 19872, Note_on_c, 0, 68, 0
3, 19872, Note_on_c, 0, 69, 100
3, 19968, Note_on_c, 0, 69, 0
3, 20112, Note_on_c, 0, 69, 100
3, 20160, Note_on_c, 0, 69, 0
3, 20160, Note_on_c, 0, 68, 100
3, 20448, Note_on_c, 0, 68, 0
3, 20448, Note_on_c, 0, 69, 100
3, 20544, Note_on_c, 0, 69, 0
3, 20640, Note_on_c, 0, 69, 100
3, 20736, Note_on_c, 0, 69, 0
3, 20736, Note_on_c, 0, 69, 100
3, 20880, Note_on_c, 0, 69, 0
3, 20880, Note_on_c, 0, 71, 100
3, 20928, Note_on_c, 0, 71, 0
3, 20928, Note_on_c, 0, 69, 100
3, 20976, Note_on_c, 0, 69, 0
3, 20976, Note_on_c, 0, 71, 100
3, 21024, Note_on_c, 0, 71, 0
3, 21024, Note_on_c, 0, 69, 100
3, 21168, Note_on_c, 0, 69, 0
3, 21168, Note_on_c, 0, 71, 100
3, 21216, Note_on_c, 0, 71, 0
3, 21216, Note_on_c, 0, 69, 100
3, 21264, Note_on_c, 0, 69, 0
3, 21264, Note_on_c, 0, 71, 100
3, 21312, Note_on_c, 0, 71, 0
3, 21312, Note_on_c, 0, 69, 100
3, 21504, Note_on_c, 0, 69, 0
3, 21504, Note_on_c, 0, 67, 100
3, 21600, Note_on_c, 0, 67, 0
3, 21600, Control_c, 0, 7, 127
3, 21600, Note_on_c, 0, 66, 100
3, 21636, Control_c, 0, 7, 95
3, 21888, Note_on_c, 0, 66, 0
3, 21888, Control_c, 0, 7, 127
3, 21888, Note_on_c, 0, 65, 100
3, 21924, Control_c, 0, 7, 95
3, 22128, Note_on_c, 0, 65, 0
3, 22128, Note_on_c, 0, 65, 100
3, 22176, Note_on_c, 0, 65, 0
3, 22176, Control_c, 0, 7, 127
3, 22176, Note_on_c, 0, 64, 100
3, 22212, Control_c, 0, 7, 95
3, 22464, Note_on_c, 0, 64, 0
3, 22464, Control_c, 0, 7, 127
3, 22464, Note_on_c, 0, 63, 100
3, 22500, Control_c, 0, 7, 95
3, 22752, Note_on_c, 0, 63, 0
3, 22752, Control_c, 0, 7, 127
3, 22752, Note_on_c, 0, 62, 100
3, 22788, Control_c, 0, 7, 95
3, 22896, Note_on_c, 0, 62, 0
3, 22896, Note_on_c, 0, 62, 100
3, 22944, Note_on_c, 0, 62, 0
3, 22944, Control_c, 0, 7, 95
3, 22944, Note_on_c, 0, 61, 100
3, 23040, Note_on_c, 0, 61, 0
3, 23040, Note_on_c, 0, 66, 100
3, 23136, Note_on_c, 0, 66, 0
3, 23136, Note_on_c, 0, 64, 100
3, 23328, Note_on_c, 0, 64, 0
3, 23328, Note_on_c, 0, 64, 100
3, 23424, Note_on_c, 0, 64, 0
3, 23616, Note_on_c, 0, 69, 100
3, 23904, Note_on_c, 0, 69, 0
3, 23904, Note_on_c, 0, 70, 100
3, 24192, Note_on_c, 0, 70, 0
3, 24192, Note_on_c, 0, 70, 100
3, 24384, Note_on_c, 0, 70, 0
3, 24384, Note_on_c, 0, 69, 100
3, 24480, Note_on_c, 0, 69, 0
3, 24480, Note_on_c, 0, 69, 100
3, 24576, Note_on_c, 0, 69, 0
3, 24576, Note_on_c, 0, 67, 100
3, 24672, Note_on_c, 0, 67, 0
3, 24672, Note_on_c, 0, 71, 100
3, 24768, Time_signature, 5, 2, 24, 8
3, 24768, Time_signature, 5, 2, 24, 8
3, 24768, Note_on_c, 0, 71, 0
3, 24768, Note_on_c, 0, 69, 100
3, 24912, Note_on_c, 0, 69, 0
3, 24912, Note_on_c, 0, 69, 100
3, 24960, Note_on_c, 0, 69, 0
3, 24960, Note_on_c, 0, 68, 100
3, 25152, Note_on_c, 0, 68, 0
3, 25248, Time_signature, 3, 2, 24, 8
3, 25248, Time_signature, 3, 2, 24, 8
3, 25296, Note_on_c, 0, 62, 100
3, 25344, Note_on_c, 0, 62, 0
3, 25344, Note_on_c, 0, 61, 100
3, 25392, Note_on_c, 0, 61, 0
3, 25392, Note_on_c, 0, 62, 100
3, 25440, Note_on_c, 0, 62, 0
3, 25440, Note_on_c, 0, 64, 100
3, 25488, Note_on_c, 0, 64, 0
3, 25488, Note_on_c, 0, 65, 100
3, 25536, Note_on_c, 0, 65, 0
3, 25536, Note_on_c, 0, 67, 100
3, 25824, Note_on_c, 0, 67, 0
3, 25824, Note_on_c, 0, 65, 100
3, 25920, Note_on_c, 0, 65, 0
3, 25920, Note_on_c, 0, 69, 100
3, 26112, Note_on_c, 0, 69, 0
3, 26112, Note_on_c, 0, 69, 100
3, 26400, Note_on_c, 0, 69, 0
3, 26400, Note_on_c, 0, 69, 100
3, 26496, Note_on_c, 0, 69, 0
3, 26496, Note_on_c, 0, 69, 100
3, 26592, Note_on_c, 0, 69, 0
3, 26592, Note_on_c, 0, 69, 100
3, 26688, Note_on_c, 0, 69, 0
3, 26688, Note_on_c, 0, 69, 100
3, 26832, Note_on_c, 0, 69, 0
3, 26832, Note_on_c, 0, 70, 100
3, 26880, Note_on_c, 0, 70, 0
3, 26880, Note_on_c, 0, 69, 100
3, 26928, Note_on_c, 0, 69, 0
3, 26928, Note_on_c, 0, 70, 100
3, 26976, Note_on_c, 0, 70, 0
3, 26976, Note_on_c, 0, 69, 100
3, 27120, Note_on_c, 0, 69, 0
3, 27120, Note_on_c, 0, 70, 100
3, 27168, Note_on_c, 0, 70, 0
3, 27168, Note_on_c, 0, 69, 100
3, 27216, Note_on_c, 0, 69, 0
3, 27216, Note_on_c, 0, 70, 100
3, 27264, Note_on_c, 0, 70, 0
3, 27264, Note_on_c, 0, 69, 100
3, 27360, Note_on_c, 0, 69, 0
3, 27360, Note_on_c, 0, 62, 100
3, 27456, Note_on_c, 0, 62, 0
3, 27456, Note_on_c, 0, 66, 100
3, 27552, Note_on_c, 0, 66, 0
3, 27552, Note_on_c, 0, 67, 100
3, 27648, Note_on_c, 0, 67, 0
3, 27648, Note_on_c, 0, 59, 100
3, 27696, Note_on_c, 0, 59, 0
3, 27696, Note_on_c, 0, 60, 100
3, 27744, Note_on_c, 0, 60, 0
3, 27744, Note_on_c, 0, 62, 100
3, 27792, Note_on_c, 0, 62, 0
3, 27792, Note_on_c, 0, 64, 100
3, 27840, Note_on_c, 0, 64, 0
3, 27840, Note_on_c, 0, 65, 100
3, 28128, Note_on_c, 0, 65, 0
3, 28128, Note_on_c, 0, 64, 100
3, 28224, Note_on_c, 0, 64, 0
3, 28224, Note_on_c, 0, 67, 100
3, 28416, Note_on_c, 0, 67, 0
3, 28416, Note_on_c, 0, 67, 100
3, 28704, Note_on_c, 0, 67, 0
3, 28704, Note_on_c, 0, 67, 100
3, 28800, Note_on_c, 0, 67, 0
3, 28800, Note_on_c, 0, 67, 100
3, 28896, Note_on_c, 0, 67, 0
3, 28896, Note_on_c, 0, 67, 100
3, 28992, Note_on_c, 0, 67, 0
3, 28992, Note_on_c, 0, 69, 100
3, 29280, Note_on_c, 0, 69, 0
3, 29280, Note_on_c, 0, 71, 100
3, 29352, Note_on_c, 0, 71, 0
3, 29352, Note_on_c, 0, 71, 100
3, 29376, Note_on_c, 0, 71, 0
3, 29376, Note_on_c, 0, 71, 100
3, 29472, Note_on_c, 0, 71, 0
3, 29472, Note_on_c, 0, 67, 100
3, 29568, Note_on_c, 0, 67, 0
3, 29568, Note_on_c, 0, 67, 100
3, 29856, Note_on_c, 0, 67, 0
3, 29856, Note_on_c, 0, 69, 100
3, 29928, Note_on_c, 0, 69, 0
3, 29928, Note_on_c, 0, 69, 100
3, 29952, Note_on_c, 0, 69, 0
3, 29952, Note_on_c, 0, 69, 100
3, 30048, Note_on_c, 0, 69, 0
3, 30048, Note_on_c, 0, 65, 100
3, 30144, Note_on_c, 0, 65, 0
3, 30144, Note_on_c, 0, 65, 100
3, 30432, Note_on_c, 0, 65, 0
3, 30432, Note_on_c, 0, 67, 100
3, 30528, Note_on_c, 0, 67, 0
3, 30528, Note_on_c, 0, 67, 100
3, 30720, Note_on_c, 0, 67, 0
3, 30720, Note_on_c, 0, 69, 100
3, 30864, Note_on_c, 0, 69, 0
3, 30864, Note_on_c, 0, 69, 100
3, 30912, Note_on_c, 0, 69, 0
3, 30912, Note_on_c, 0, 69, 100
3, 31008, Note_on_c, 0, 69, 0
3, 31008, Note_on_c, 0, 66, 100
3, 31200, Note_on_c, 0, 66, 0
3, 31200, Note_on_c, 0, 66, 100
3, 31296, Note_on_c, 0, 66, 0
3, 31296, Note_on_c, 0, 67, 100
3, 31584, Note_on_c, 0, 67, 0
3, 31584, Note_on_c, 0, 69, 100
3, 31872, Note_on_c, 0, 69, 0
3, 31872, Note_on_c, 0, 67, 100
3, 32160, Note_on_c, 0, 67, 0
3, 32160, Note_on_c, 0, 69, 100
3, 32448, Note_on_c, 0, 69, 0
3, 32448, Note_on_c, 0, 71, 100
3, 32736, Note_on_c, 0, 71, 0
3, 32736, Note_on_c, 0, 72, 100
3, 33024, Note_on_c, 0, 72, 0
3, 33024, Note_on_c, 0, 71, 100
3, 33312, Time_signature, 3, 2, 24, 8
3, 33312, Time_signature, 3, 2, 24, 8
3, 33312, Note_on_c, 0, 71, 0
3, 33312, Note_on_c, 0, 71, 100
3, 33792, Note_on_c, 0, 71, 0
3, 37344, Note_on_c, 0, 64, 100
3, 37536, Note_on_c, 0, 64, 0
3, 37536, Note_on_c, 0, 69, 100
3, 37632, Note_on_c, 0, 69, 0
3, 37632, Note_on_c, 0, 67, 100
3, 37728, Note_on_c, 0, 67, 0
3, 37728, Note_on_c, 0, 67, 100
3, 37824, Note_on_c, 0, 67, 0
3, 37920, Note_on_c, 0, 67, 100
3, 38112, Note_on_c, 0, 67, 0
3, 38112, Note_on_c, 0, 67, 100
3, 38208, Note_on_c, 0, 67, 0
3, 38208, Note_on_c, 0, 67, 100
3, 38280, Note_on_c, 0, 67, 0
3, 38280, Note_on_c, 0, 67, 100
3, 38304, Note_on_c, 0, 67, 0
3, 38304, Note_on_c, 0, 67, 100
3, 38400, Note_on_c, 0, 67, 0
3, 38496, Note_on_c, 0, 67, 100
3, 38688, Note_on_c, 0, 67, 0
3, 38688, Note_on_c, 0, 65, 100
3, 38784, Note_on_c, 0, 65, 0
3, 38784, Note_on_c, 0, 65, 100
3, 38976, Note_on_c, 0, 65, 0
3, 38976, Note_on_c, 0, 64, 100
3, 39072, Note_on_c, 0, 64, 0
3, 39072, Note_on_c, 0, 64, 100
3, 39264, Note_on_c, 0, 64, 0
3, 39264, Note_on_c, 0, 69, 100
3, 39360, Note_on_c, 0, 69, 0
3, 39360, Note_on_c, 0, 67, 100
3, 39432, Note_on_c, 0, 67, 0
3, 39432, Note_on_c, 0, 67, 100
3, 39456, Note_on_c, 0, 67, 0
3, 39456, Note_on_c, 0, 67, 100
3, 39552, Note_on_c, 0, 67, 0
3, 39552, Note_on_c, 0, 67, 100
3, 39648, Note_on_c, 0, 67, 0
3, 39648, Note_on_c, 0, 67, 100
3, 39840, Note_on_c, 0, 67, 0
3, 39840, Note_on_c, 0, 67, 100
3, 39936, Note_on_c, 0, 67, 0
3, 39936, Note_on_c, 0, 67, 100
3, 40128, Note_on_c, 0, 67, 0
3, 40128, Note_on_c, 0, 67, 100
3, 40224, Note_on_c, 0, 67, 0
3, 40224, Note_on_c, 0, 67, 100
3, 40416, Note_on_c, 0, 67, 0
3, 40416, Note_on_c, 0, 67, 100
3, 40512, Note_on_c, 0, 67, 0
3, 40512, Note_on_c, 0, 67, 100
3, 40608, Note_on_c, 0, 67, 0
3, 40608, Note_on_c, 0, 71, 100
3, 40680, Note_on_c, 0, 71, 0
3, 40680, Note_on_c, 0, 71, 100
3, 40704, Note_on_c, 0, 71, 0
3, 40704, Note_on_c, 0, 72, 100
3, 40800, Note_on_c, 0, 72, 0
3, 40800, Note_on_c, 0, 67, 100
3, 40896, Note_on_c, 0, 67, 0
3, 40896, Note_on_c, 0, 64, 100
3, 40992, Note_on_c, 0, 64, 0
3, 40992, Note_on_c, 0, 60, 100
3, 41088, Note_on_c, 0, 60, 0
3, 41088, Note_on_c, 0, 67, 100
3, 41376, Note_on_c, 0, 67, 0
3, 41376, Note_on_c, 0, 64, 100
3, 41664, Note_on_c, 0, 64, 0
3, 41664, Note_on_c, 0, 69, 100
3, 41952, Note_on_c, 0, 69, 0
3, 41952, Note_on_c, 0, 62, 100
3, 42240, Note_on_c, 0, 62, 0
3, 42240, Note_on_c, 0, 67, 100
3, 42528, Note_on_c, 0, 67, 0
3, 42528, Note_on_c, 0, 60, 100
3, 42816, Note_on_c, 0, 60, 0
3, 42816, Note_on_c, 0, 68, 100
3, 42912, Note_on_c, 0, 68, 0
3, 42912, Note_on_c, 0, 67, 100
3, 43104, Note_on_c, 0, 67, 0
3, 43104, Note_on_c, 0, 69, 100
3, 43200, Note_on_c, 0, 69, 0
3, 43200, Note_on_c, 0, 67, 100
3, 43392, Note_on_c, 0, 67, 0
3, 43392, Note_on_c, 0, 67, 100
3, 43488, Note_on_c, 0, 67, 0
3, 43776, Note_on_c, 0, 69, 100
3, 43872, Note_on_c, 0, 69, 0
3, 43872, Note_on_c, 0, 69, 100
3, 43968, Note_on_c, 0, 69, 0
3, 43968, Note_on_c, 0, 69, 100
3, 44064, Note_on_c, 0, 69, 0
3, 44064, Note_on_c, 0, 72, 100
3, 44208, Note_on_c, 0, 72, 0
3, 44208, Note_on_c, 0, 71, 100
3, 44232, Note_on_c, 0, 71, 0
3, 44232, Note_on_c, 0, 72, 100
3, 44256, Note_on_c, 0, 72, 0
3, 44256, Note_on_c, 0, 71, 100
3, 44352, Note_on_c, 0, 71, 0
3, 44352, Note_on_c, 0, 67, 100
3, 44448, Note_on_c, 0, 67, 0
3, 44448, Note_on_c, 0, 67, 100
3, 44544, Note_on_c, 0, 67, 0
3, 44544, Note_on_c, 0, 67, 100
3, 44736, Note_on_c, 0, 67, 0
3, 44736, Note_on_c, 0, 72, 100
3, 44832, Note_on_c, 0, 72, 0
3, 44832, Note_on_c, 0, 72, 100
3, 45120, Note_on_c, 0, 72, 0
3, 45120, Note_on_c, 0, 71, 100
3, 45312, Note_on_c, 0, 71, 0
3, 45312, Note_on_c, 0, 72, 100
3, 45408, Note_on_c, 0, 72, 0
3, 45408, Note_on_c, 0, 69, 100
3, 45504, Note_on_c, 0, 69, 0
3, 45504, Note_on_c, 0, 67, 100
3, 45696, Note_on_c, 0, 67, 0
3, 45696, Note_on_c, 0, 67, 100
3, 45792, Note_on_c, 0, 67, 0
3, 46272, Note_on_c, 0, 67, 100
3, 46320, Note_on_c, 0, 67, 0
3, 46320, Note_on_c, 0, 67, 100
3, 46368, Note_on_c, 0, 67, 0
3, 46368, Note_on_c, 0, 67, 100
3, 46560, Note_on_c, 0, 67, 0
3, 46560, Note_on_c, 0, 67, 100
3, 46656, Note_on_c, 0, 67, 0
3, 47136, Note_on_c, 0, 67, 100
3, 47184, Note_on_c, 0, 67, 0
3, 47184, Note_on_c, 0, 67, 100
3, 47232, Note_on_c, 0, 67, 0
3, 47232, Note_on_c, 0, 67, 100
3, 47424, Note_on_c, 0, 67, 0
3, 47424, Note_on_c, 0, 67, 100
3, 47520, Note_on_c, 0, 67, 0
3, 47520, End_track
4, 0, Start_track
4, 0, Title_t, "Tenor"
4, 0, Key_signature, 0, "major"
4, 0, Time_signature, 3, 2, 24, 8
4, 0, Time_signature, 3, 2, 24, 8
4, 0, Program_c, 0, 52
4, 0, Control_c, 0, 7, 95
4, 0, Note_on_c, 0, 55, 100
4, 288, Note_on_c, 0, 55, 0
4, 288, Note_on_c, 0, 55, 100
4, 384, Note_on_c, 0, 55, 0
4, 1152, Note_on_c, 0, 62, 100
4, 1416, Note_on_c, 0, 62, 0
4, 1416, Note_on_c, 0, 62, 100
4, 1440, Note_on_c, 0, 62, 0
4, 1440, Note_on_c, 0, 60, 100
4, 1536, Note_on_c, 0, 60, 0
4, 2304, Note_on_c, 0, 60, 100
4, 2448, Note_on_c, 0, 60, 0
4, 2448, Note_on_c, 0, 60, 100
4, 2496, Note_on_c, 0, 60, 0
4, 2496, Note_on_c, 0, 60, 100
4, 2592, Note_on_c, 0, 60, 0
4, 2592, Note_on_c, 0, 60, 100
4, 2688, Note_on_c, 0, 60, 0
4, 2688, Note_on_c, 0, 60, 100
4, 2784, Note_on_c, 0, 60, 0
4, 2976, Note_on_c, 0, 55, 100
4, 3072, Note_on_c, 0, 55, 0
4, 3072, Note_on_c, 0, 64, 100
4, 3168, Note_on_c, 0, 64, 0
4, 3168, Note_on_c, 0, 64, 100
4, 3264, Note_on_c, 0, 64, 0
4, 3264, Note_on_c, 0, 62, 100
4, 3360, Note_on_c, 0, 62, 0
4, 3456, Note_on_c, 0, 59, 100
4, 3552, Note_on_c, 0, 59, 0
4, 3552, Note_on_c, 0, 60, 100
4, 3648, Note_on_c, 0, 60, 0
4, 3648, Note_on_c, 0, 65, 100
4, 3744, Note_on_c, 0, 65, 0
4, 3744, Note_on_c, 0, 65, 100
4, 3840, Note_on_c, 0, 65, 0
4, 3840, Note_on_c, 0, 64, 100
4, 3936, Note_on_c, 0, 64, 0
4, 4032, Note_on_c, 0, 64, 100
4, 4224, Note_on_c, 0, 64, 0
4, 4224, Note_on_c, 0, 60, 100
4, 4320, Note_on_c, 0, 60, 0
4, 4320, Note_on_c, 0, 62, 100
4, 4464, Note_on_c, 0, 62, 0
4, 4464, Note_on_c, 0, 62, 100
4, 4512, Note_on_c, 0, 62, 0
4, 4512, Note_on_c, 0, 59, 100
4, 4560, Note_on_c, 0, 59, 0
4, 4560, Note_on_c, 0, 59, 100
4, 4608, Note_on_c, 0, 59, 0
4, 4608, Note_on_c, 0, 60, 100
4, 4800, Note_on_c, 0, 60, 0
4, 4800, Note_on_c, 0, 65, 100
4, 4896, Note_on_c, 0, 65, 0
4, 4896, Note_on_c, 0, 62, 100
4, 5088, Note_on_c, 0, 62, 0
4, 5088, Note_on_c, 0, 64, 100
4, 5088, Note_on_c, 0, 64, 100
4, 5136, Note_on_c, 0, 64, 0
4, 5136, Note_on_c, 0, 64, 0
4, 5136, Note_on_c, 0, 64, 100
4, 5184, Note_on_c, 0, 64, 0
4, 5184, Note_on_c, 0, 62, 100
4, 5376, Note_on_c, 0, 62, 0
4, 5376, Note_on_c, 0, 60, 100
4, 5472, Note_on_c, 0, 60, 0
4, 5472, Note_on_c, 0, 59, 100
4, 5568, Note_on_c, 0, 59, 0
4, 5568, Note_on_c, 0, 62, 100
4, 5664, Note_on_c, 0, 62, 0
4, 5664, Note_on_c, 0, 60, 100
4, 5760, Note_on_c, 0, 60, 0
4, 5760, Note_on_c, 0, 62, 100
4, 5952, Note_on_c, 0, 62, 0
4, 5952, Note_on_c, 0, 60, 100
4, 6048, Note_on_c, 0, 60, 0
4, 6048, Note_on_c, 0, 59, 100
4, 6144, Note_on_c, 0, 59, 0
4, 7536, Note_on_c, 0, 64, 100
4, 7584, Note_on_c, 0, 64, 0
4, 7584, Note_on_c, 0, 57, 100
4, 7680, Note_on_c, 0, 57, 0
4, 7680, Note_on_c, 0, 61, 100
4, 7776, Note_on_c, 0, 61, 0
4, 7776, Note_on_c, 0, 62, 100
4, 7824, Note_on_c, 0, 62, 0
4, 7824, Note_on_c, 0, 65, 100
4, 7872, Note_on_c, 0, 65, 0
4, 7872, Note_on_c, 0, 67, 100
4, 7920, Note_on_c, 0, 67, 0
4, 7920, Note_on_c, 0, 65, 100
4, 7968, Note_on_c, 0, 65, 0
4, 7968, Note_on_c, 0, 64, 100
4, 8016, Note_on_c, 0, 64, 0
4, 8016, Note_on_c, 0, 62, 100
4, 8064, Note_on_c, 0, 62, 0
4, 8064, Note_on_c, 0, 61, 100
4, 8352, Note_on_c, 0, 61, 0
4, 8352, Note_on_c, 0, 62, 100
4, 8448, Note_on_c, 0, 62, 0
4, 9216, Note_on_c, 0, 62, 100
4, 9264, Note_on_c, 0, 62, 0
4, 9264, Note_on_c, 0, 62, 100
4, 9312, Note_on_c, 0, 62, 0
4, 9312, Note_on_c, 0, 55, 100
4, 9408, Note_on_c, 0, 55, 0
4, 9408, Note_on_c, 0, 59, 100
4, 9504, Note_on_c, 0, 59, 0
4, 9504, Note_on_c, 0, 60, 100
4, 9552, Note_on_c, 0, 60, 0
4, 9552, Note_on_c, 0, 64, 100
4, 9600, Note_on_c, 0, 64, 0
4, 9600, Note_on_c, 0, 65, 100
4, 9648, Note_on_c, 0, 65, 0
4, 9648, Note_on_c, 0, 64, 100
4, 9696, Note_on_c, 0, 64, 0
4, 9696, Note_on_c, 0, 62, 100
4, 9744, Note_on_c, 0, 62, 0
4, 9744, Note_on_c, 0, 60, 100
4, 9792, Note_on_c, 0, 60, 0
4, 9792, Note_on_c, 0, 59, 100
4, 10056, Note_on_c, 0, 59, 0
4, 10056, Note_on_c, 0, 59, 100
4, 10080, Note_on_c, 0, 59, 0
4, 10080, Note_on_c, 0, 60, 100
4, 10176, Note_on_c, 0, 60, 0
4, 10464, Note_on_c, 0, 66, 100
4, 10560, Note_on_c, 0, 66, 0
4, 10560, Note_on_c, 0, 66, 100
4, 10656, Note_on_c, 0, 66, 0
4, 10656, Note_on_c, 0, 59, 100
4, 10944, Note_on_c, 0, 59, 0
4, 10944, Note_on_c, 0, 64, 100
4, 11016, Note_on_c, 0, 64, 0
4, 11016, Note_on_c, 0, 64, 100
4, 11040, Note_on_c, 0, 64, 0
4, 11040, Note_on_c, 0, 64, 100
4, 11136, Note_on_c, 0, 64, 0
4, 11136, Note_on_c, 0, 64, 100
4, 11232, Note_on_c, 0, 64, 0
4, 11232, Note_on_c, 0, 57, 100
4, 11424, Note_on_c, 0, 57, 0
4, 11424, Note_on_c, 0, 57, 100
4, 11520, Note_on_c, 0, 57, 0
4, 11520, Note_on_c, 0, 62, 100
4, 11616, Note_on_c, 0, 62, 0
4, 11616, Note_on_c, 0, 62, 100
4, 11712, Note_on_c, 0, 62, 0
4, 11712, Note_on_c, 0, 62, 100
4, 11808, Note_on_c, 0, 62, 0
4, 11808, Note_on_c, 0, 55, 100
4, 12096, Note_on_c, 0, 55, 0
4, 12096, Note_on_c, 0, 50, 100
4, 12192, Note_on_c, 0, 50, 0
4, 12192, Note_on_c, 0, 62, 100
4, 12288, Note_on_c, 0, 62, 0
4, 12288, Note_on_c, 0, 62, 100
4, 12384, Note_on_c, 0, 62, 0
4, 12384, Note_on_c, 0, 60, 100
4, 12528, Note_on_c, 0, 60, 0
4, 12528, Note_on_c, 0, 60, 100
4, 12576, Note_on_c, 0, 60, 0
4, 12576, Note_on_c, 0, 60, 100
4, 12624, Note_on_c, 0, 60, 0
4, 12624, Note_on_c, 0, 60, 100
4, 12672, Note_on_c, 0, 60, 0
4, 12672, Note_on_c, 0, 59, 100
4, 12768, Note_on_c, 0, 59, 0
4, 12768, Note_on_c, 0, 59, 100
4, 12864, Note_on_c, 0, 59, 0
4, 12864, Note_on_c, 0, 59, 100
4, 12960, Note_on_c, 0, 59, 0
4, 12960, Note_on_c, 0, 54, 100
4, 13104, Note_on_c, 0, 54, 0
4, 13104, Note_on_c, 0, 54, 100
4, 13152, Note_on_c, 0, 54, 0
4, 13152, Note_on_c, 0, 54, 100
4, 13248, Note_on_c, 0, 54, 0
4, 13248, Note_on_c, 0, 55, 100
4, 13344, Note_on_c, 0, 55, 0
4, 13344, Note_on_c, 0, 55, 100
4, 13440, Note_on_c, 0, 55, 0
4, 13440, Note_on_c, 0, 59, 100
4, 13536, Note_on_c, 0, 59, 0
4, 13536, Note_on_c, 0, 59, 100
4, 13680, Note_on_c, 0, 59, 0
4, 13680, Note_on_c, 0, 55, 100
4, 13728, Note_on_c, 0, 55, 0
4, 13728, Note_on_c, 0, 62, 100
4, 13824, Note_on_c, 0, 62, 0
4, 13824, Note_on_c, 0, 64, 100
4, 13920, Note_on_c, 0, 64, 0
4, 13920, Note_on_c, 0, 62, 100
4, 13992, Note_on_c, 0, 62, 0
4, 13992, Note_on_c, 0, 62, 100
4, 14016, Note_on_c, 0, 62, 0
4, 14016, Note_on_c, 0, 62, 100
4, 14112, Note_on_c, 0, 62, 0
4, 14112, Note_on_c, 0, 62, 100
4, 14208, Note_on_c, 0, 62, 0
4, 14400, Note_on_c, 0, 67, 100
4, 14688, Note_on_c, 0, 67, 0
4, 14688, Note_on_c, 0, 59, 100
4, 14880, Note_on_c, 0, 59, 0
4, 14880, Note_on_c, 0, 64, 100
4, 14976, Note_on_c, 0, 64, 0
4, 14976, Note_on_c, 0, 61, 100
4, 15240, Note_on_c, 0, 61, 0
4, 15240, Note_on_c, 0, 61, 100
4, 15264, Note_on_c, 0, 61, 0
4, 15264, Note_on_c, 0, 62, 100
4, 15360, Note_on_c, 0, 62, 0
4, 15648, Control_c, 0, 7, 60
4, 15648, Note_on_c, 0, 62, 100
4, 15744, Note_on_c, 0, 62, 0
4, 15744, Note_on_c, 0, 62, 100
4, 15840, Note_on_c, 0, 62, 0
4, 15840, Note_on_c, 0, 62, 100
4, 16032, Note_on_c, 0, 62, 0
4, 16032, Note_on_c, 0, 62, 100
4, 16128, Note_on_c, 0, 62, 0
4, 16128, Note_on_c, 0, 62, 100
4, 16320, Note_on_c, 0, 62, 0
4, 16320, Note_on_c, 0, 62, 100
4, 16416, Note_on_c, 0, 62, 0
4, 16416, Note_on_c, 0, 62, 100
4, 16512, Note_on_c, 0, 62, 0
4, 16512, Note_on_c, 0, 62, 100
4, 16608, Note_on_c, 0, 62, 0
4, 16704, Control_c, 0, 7, 95
4, 16704, Note_on_c, 0, 59, 100
4, 16800, Note_on_c, 0, 59, 0
4, 16800, Note_on_c, 0, 62, 100
4, 16944, Note_on_c, 0, 62, 0
4, 16944, Note_on_c, 0, 60, 100
4, 16992, Note_on_c, 0, 60, 0
4, 16992, Note_on_c, 0, 59, 100
4, 17088, Note_on_c, 0, 59, 0
4, 17088, Note_on_c, 0, 57, 100
4, 17184, Note_on_c, 0, 57, 0
4, 17280, Note_on_c, 0, 57, 100
4, 17472, Note_on_c, 0, 57, 0
4, 17472, Note_on_c, 0, 62, 100
4, 17568, Note_on_c, 0, 62, 0
4, 17568, Note_on_c, 0, 62, 100
4, 17664, Note_on_c, 0, 62, 0
4, 17664, Note_on_c, 0, 62, 100
4, 17760, Note_on_c, 0, 62, 0
4, 17856, Note_on_c, 0, 59, 100
4, 18144, Note_on_c, 0, 59, 0
4, 18144, Note_on_c, 0, 59, 100
4, 18336, Note_on_c, 0, 59, 0
4, 18336, Note_on_c, 0, 59, 100
4, 18432, Note_on_c, 0, 59, 0
4, 18432, Note_on_c, 0, 59, 100
4, 18576, Note_on_c, 0, 59, 0
4, 18576, Note_on_c, 0, 59, 100
4, 18624, Note_on_c, 0, 59, 0
4, 18624, Note_on_c, 0, 57, 100
4, 18672, Note_on_c, 0, 57, 0
4, 18672, Note_on_c, 0, 56, 100
4, 18720, Note_on_c, 0, 56, 0
4, 18720, Note_on_c, 0, 54, 100
4, 18984, Note_on_c, 0, 54, 0
4, 18984, Note_on_c, 0, 54, 100
4, 19008, Note_on_c, 0, 54, 0
4, 19008, Note_on_c, 0, 56, 100
4, 19104, Note_on_c, 0, 56, 0
4, 19296, Note_on_c, 0, 57, 100
4, 19368, Note_on_c, 0, 57, 0
4, 19368, Note_on_c, 0, 57, 100
4, 19392, Note_on_c, 0, 57, 0
4, 19392, Note_on_c, 0, 56, 100
4, 19440, Note_on_c, 0, 56, 0
4, 19440, Note_on_c, 0, 57, 100
4, 19488, Note_on_c, 0, 57, 0
4, 19488, Note_on_c, 0, 59, 100
4, 19536, Note_on_c, 0, 59, 0
4, 19536, Note_on_c, 0, 60, 100
4, 19584, Note_on_c, 0, 60, 0
4, 19584, Note_on_c, 0, 62, 100
4, 19872, Note_on_c, 0, 62, 0
4, 19872, Note_on_c, 0, 60, 100
4, 19920, Note_on_c, 0, 60, 0
4, 19920, Note_on_c, 0, 57, 100
4, 19968, Note_on_c, 0, 57, 0
4, 19968, Note_on_c, 0, 56, 100
4, 20016, Note_on_c, 0, 56, 0
4, 20016, Note_on_c, 0, 57, 100
4, 20064, Note_on_c, 0, 57, 0
4, 20064, Note_on_c, 0, 59, 100
4, 20112, Note_on_c, 0, 59, 0
4, 20112, Note_on_c, 0, 60, 100
4, 20160, Note_on_c, 0, 60, 0
4, 20160, Note_on_c, 0, 62, 100
4, 20448, Note_on_c, 0, 62, 0
4, 20448, Note_on_c, 0, 60, 100
4, 20544, Note_on_c, 0, 60, 0
4, 20640, Note_on_c, 0, 60, 100
4, 20736, Note_on_c, 0, 60, 0
4, 20736, Note_on_c, 0, 60, 100
4, 20880, Note_on_c, 0, 60, 0
4, 20880, Note_on_c, 0, 59, 100
4, 20928, Note_on_c, 0, 59, 0
4, 20928, Note_on_c, 0, 60, 100
4, 20976, Note_on_c, 0, 60, 0
4, 20976, Note_on_c, 0, 59, 100
4, 21024, Note_on_c, 0, 59, 0
4, 21024, Note_on_c, 0, 60, 100
4, 21168, Note_on_c, 0, 60, 0
4, 21168, Note_on_c, 0, 59, 100
4, 21216, Note_on_c, 0, 59, 0
4, 21216, Note_on_c, 0, 60, 100
4, 21264, Note_on_c, 0, 60, 0
4, 21264, Note_on_c, 0, 59, 100
4, 21312, Note_on_c, 0, 59, 0
4, 21312, Note_on_c, 0, 60, 100
4, 21504, Note_on_c, 0, 60, 0
4, 21504, Note_on_c, 0, 59, 100
4, 21600, Note_on_c, 0, 59, 0
4, 21600, Control_c, 0, 7, 127
4, 21600, Note_on_c, 0, 57, 100
4, 21636, Control_c, 0, 7, 95
4, 21888, Note_on_c, 0, 57, 0
4, 21888, Control_c, 0, 7, 127
4, 21888, Note_on_c, 0, 59, 100
4, 21924, Control_c, 0, 7, 95
4, 22128, Note_on_c, 0, 59, 0
4, 22128, Note_on_c, 0, 59, 100
4, 22176, Note_on_c, 0, 59, 0
4, 22176, Control_c, 0, 7, 127
4, 22176, Note_on_c, 0, 55, 100
4, 22212, Control_c, 0, 7, 95
4, 22464, Note_on_c, 0, 55, 0
4, 22464, Control_c, 0, 7, 127
4, 22464, Note_on_c, 0, 57, 100
4, 22500, Control_c, 0, 7, 95
4, 22752, Note_on_c, 0, 57, 0
4, 22752, Control_c, 0, 7, 127
4, 22752, Note_on_c, 0, 65, 100
4, 22788, Control_c, 0, 7, 95
4, 22896, Note_on_c, 0, 65, 0
4, 22896, Note_on_c, 0, 65, 100
4, 22944, Note_on_c, 0, 65, 0
4, 22944, Control_c, 0, 7, 95
4, 22944, Note_on_c, 0, 64, 100
4, 23040, Note_on_c, 0, 64, 0
4, 23040, Note_on_c, 0, 60, 100
4, 23136, Note_on_c, 0, 60, 0
4, 23136, Note_on_c, 0, 59, 100
4, 23328, Note_on_c, 0, 59, 0
4, 23328, Note_on_c, 0, 57, 100
4, 23424, Note_on_c, 0, 57, 0
4, 23616, Note_on_c, 0, 57, 100
4, 23904, Note_on_c, 0, 57, 0
4, 23904, Note_on_c, 0, 58, 100
4, 24192, Note_on_c, 0, 58, 0
4, 24192, Note_on_c, 0, 52, 100
4, 24384, Note_on_c, 0, 52, 0
4, 24384, Note_on_c, 0, 53, 100
4, 24480, Note_on_c, 0, 53, 0
4, 24480, Note_on_c, 0, 62, 100
4, 24576, Note_on_c, 0, 62, 0
4, 24576, Note_on_c, 0, 58, 100
4, 24672, Note_on_c, 0, 58, 0
4, 24672, Note_on_c, 0, 65, 100
4, 24768, Time_signature, 5, 2, 24, 8
4, 24768, Time_signature, 5, 2, 24, 8
4, 24768, Note_on_c, 0, 65, 0
4, 24768, Note_on_c, 0, 64, 100
4, 24912, Note_on_c, 0, 64, 0
4, 24912, Note_on_c, 0, 64, 100
4, 24960, Note_on_c, 0, 64, 0
4, 24960, Note_on_c, 0, 62, 100
4, 25152, Note_on_c, 0, 62, 0
4, 25248, Time_signature, 3, 2, 24, 8
4, 25248, Time_signature, 3, 2, 24, 8
4, 25584, Note_on_c, 0, 61, 100
4, 25632, Note_on_c, 0, 61, 0
4, 25632, Note_on_c, 0, 61, 100
4, 25824, Note_on_c, 0, 61, 0
4, 25824, Note_on_c, 0, 62, 100
4, 25872, Note_on_c, 0, 62, 0
4, 25872, Note_on_c, 0, 65, 100
4, 25920, Note_on_c, 0, 65, 0
4, 25920, Note_on_c, 0, 67, 100
4, 25968, Note_on_c, 0, 67, 0
4, 25968, Note_on_c, 0, 65, 100
4, 26016, Note_on_c, 0, 65, 0
4, 26016, Note_on_c, 0, 64, 100
4, 26064, Note_on_c, 0, 64, 0
4, 26064, Note_on_c, 0, 62, 100
4, 26112, Note_on_c, 0, 62, 0
4, 26112, Note_on_c, 0, 61, 100
4, 26400, Note_on_c, 0, 61, 0
4, 26400, Note_on_c, 0, 62, 100
4, 26496, Note_on_c, 0, 62, 0
4, 26496, Note_on_c, 0, 65, 100
4, 26592, Note_on_c, 0, 65, 0
4, 26592, Note_on_c, 0, 65, 100
4, 26688, Note_on_c, 0, 65, 0
4, 26688, Note_on_c, 0, 65, 100
4, 26832, Note_on_c, 0, 65, 0
4, 26832, Note_on_c, 0, 67, 100
4, 26880, Note_on_c, 0, 67, 0
4, 26880, Note_on_c, 0, 65, 100
4, 26928, Note_on_c, 0, 65, 0
4, 26928, Note_on_c, 0, 67, 100
4, 26976, Note_on_c, 0, 67, 0
4, 26976, Note_on_c, 0, 65, 100
4, 27120, Note_on_c, 0, 65, 0
4, 27120, Note_on_c, 0, 67, 100
4, 27168, Note_on_c, 0, 67, 0
4, 27168, Note_on_c, 0, 65, 100
4, 27216, Note_on_c, 0, 65, 0
4, 27216, Note_on_c, 0, 67, 100
4, 27264, Note_on_c, 0, 67, 0
4, 27264, Note_on_c, 0, 65, 100
4, 27360, Note_on_c, 0, 65, 0
4, 27360, Note_on_c, 0, 65, 100
4, 27456, Note_on_c, 0, 65, 0
4, 27456, Note_on_c, 0, 62, 100
4, 27552, Note_on_c, 0, 62, 0
4, 27552, Note_on_c, 0, 62, 100
4, 27600, Note_on_c, 0, 62, 0
4, 27600, Note_on_c, 0, 64, 100
4, 27648, Note_on_c, 0, 64, 0
4, 27648, Note_on_c, 0, 65, 100
4, 27696, Note_on_c, 0, 65, 0
4, 27696, Note_on_c, 0, 64, 100
4, 27744, Note_on_c, 0, 64, 0
4, 27744, Note_on_c, 0, 62, 100
4, 27792, Note_on_c, 0, 62, 0
4, 27792, Note_on_c, 0, 60, 100
4, 27840, Note_on_c, 0, 60, 0
4, 27840, Note_on_c, 0, 59, 100
4, 28128, Note_on_c, 0, 59, 0
4, 28128, Note_on_c, 0, 60, 100
4, 28176, Note_on_c, 0, 60, 0
4, 28176, Note_on_c, 0, 67, 100
4, 28224, Note_on_c, 0, 67, 0
4, 28224, Note_on_c, 0, 65, 100
4, 28272, Note_on_c, 0, 65, 0
4, 28272, Note_on_c, 0, 64, 100
4, 28320, Note_on_c, 0, 64, 0
4, 28320, Note_on_c, 0, 62, 100
4, 28368, Note_on_c, 0, 62, 0
4, 28368, Note_on_c, 0, 60, 100
4, 28416, Note_on_c, 0, 60, 0
4, 28416, Note_on_c, 0, 59, 100
4, 28704, Note_on_c, 0, 59, 0
4, 28704, Note_on_c, 0, 60, 100
4, 28800, Note_on_c, 0, 60, 0
4, 29088, Note_on_c, 0, 66, 100
4, 29184, Note_on_c, 0, 66, 0
4, 29184, Note_on_c, 0, 66, 100
4, 29280, Note_on_c, 0, 66, 0
4, 29280, Note_on_c, 0, 59, 100
4, 29568, Note_on_c, 0, 59, 0
4, 29568, Note_on_c, 0, 64, 100
4, 29640, Note_on_c, 0, 64, 0
4, 29640, Note_on_c, 0, 64, 100
4, 29664, Note_on_c, 0, 64, 0
4, 29664, Note_on_c, 0, 64, 100
4, 29760, Note_on_c, 0, 64, 0
4, 29760, Note_on_c, 0, 64, 100
4, 29856, Note_on_c, 0, 64, 0
4, 29856, Note_on_c, 0, 57, 100
4, 30144, Note_on_c, 0, 57, 0
4, 30144, Note_on_c, 0, 62, 100
4, 30216, Note_on_c, 0, 62, 0
4, 30216, Note_on_c, 0, 62, 100
4, 30240, Note_on_c, 0, 62, 0
4, 30240, Note_on_c, 0, 62, 100
4, 30336, Note_on_c, 0, 62, 0
4, 30336, Note_on_c, 0, 62, 100
4, 30432, Note_on_c, 0, 62, 0
4, 30432, Note_on_c, 0, 55, 100
4, 30720, Note_on_c, 0, 55, 0
4, 30720, Note_on_c, 0, 50, 100
4, 30816, Note_on_c, 0, 50, 0
4, 30816, Note_on_c, 0, 62, 100
4, 31008, Note_on_c, 0, 62, 0
4, 31008, Note_on_c, 0, 60, 100
4, 31152, Note_on_c, 0, 60, 0
4, 31152, Note_on_c, 0, 60, 100
4, 31200, Note_on_c, 0, 60, 0
4, 31200, Note_on_c, 0, 60, 100
4, 31296, Note_on_c, 0, 60, 0
4, 31296, Note_on_c, 0, 59, 100
4, 31488, Note_on_c, 0, 59, 0
4, 31488, Note_on_c, 0, 59, 100
4, 31584, Note_on_c, 0, 59, 0
4, 31584, Note_on_c, 0, 54, 100
4, 31872, Note_on_c, 0, 54, 0
4, 31872, Note_on_c, 0, 55, 100
4, 31968, Note_on_c, 0, 55, 0
4, 31968, Note_on_c, 0, 67, 100
4, 32256, Note_on_c, 0, 67, 0
4, 32256, Note_on_c, 0, 66, 100
4, 32544, Note_on_c, 0, 66, 0
4, 32544, Note_on_c, 0, 65, 100
4, 32832, Note_on_c, 0, 65, 0
4, 32832, Note_on_c, 0, 64, 100
4, 32928, Note_on_c, 0, 64, 0
4, 32928, Note_on_c, 0, 62, 100
4, 33024, Note_on_c, 0, 62, 0
4, 33024, Note_on_c, 0, 62, 100
4, 33312, Time_signature, 3, 2, 24, 8
4, 33312, Time_signature, 3, 2, 24, 8
4, 33312, Note_on_c, 0, 62, 0
4, 33312, Note_on_c, 0, 62, 100
4, 33792, Note_on_c, 0, 62, 0
4, 37440, Note_on_c, 0, 55, 100
4, 37536, Note_on_c, 0, 55, 0
4, 37536, Note_on_c, 0, 64, 100
4, 37632, Note_on_c, 0, 64, 0
4, 37632, Note_on_c, 0, 64, 100
4, 37728, Note_on_c, 0, 64, 0
4, 37728, Note_on_c, 0, 62, 100
4, 37824, Note_on_c, 0, 62, 0
4, 37920, Note_on_c, 0, 59, 100
4, 38016, Note_on_c, 0, 59, 0
4, 38016, Note_on_c, 0, 60, 100
4, 38112, Note_on_c, 0, 60, 0
4, 38112, Note_on_c, 0, 65, 100
4, 38208, Note_on_c, 0, 65, 0
4, 38208, Note_on_c, 0, 65, 100
4, 38280, Note_on_c, 0, 65, 0
4, 38280, Note_on_c, 0, 65, 100
4, 38304, Note_on_c, 0, 65, 0
4, 38304, Note_on_c, 0, 64, 100
4, 38400, Note_on_c, 0, 64, 0
4, 38496, Note_on_c, 0, 64, 100
4, 38688, Note_on_c, 0, 64, 0
4, 38688, Note_on_c, 0, 60, 100
4, 38784, Note_on_c, 0, 60, 0
4, 38784, Note_on_c, 0, 62, 100
4, 38976, Note_on_c, 0, 62, 0
4, 38976, Note_on_c, 0, 59, 100
4, 39072, Note_on_c, 0, 59, 0
4, 39072, Note_on_c, 0, 60, 100
4, 39264, Note_on_c, 0, 60, 0
4, 39264, Note_on_c, 0, 65, 100
4, 39360, Note_on_c, 0, 65, 0
4, 39360, Note_on_c, 0, 62, 100
4, 39432, Note_on_c, 0, 62, 0
4, 39432, Note_on_c, 0, 62, 100
4, 39456, Note_on_c, 0, 62, 0
4, 39456, Note_on_c, 0, 62, 100
4, 39552, Note_on_c, 0, 62, 0
4, 39552, Note_on_c, 0, 64, 100
4, 39648, Note_on_c, 0, 64, 0
4, 39648, Note_on_c, 0, 62, 100
4, 39840, Note_on_c, 0, 62, 0
4, 39840, Note_on_c, 0, 60, 100
4, 39936, Note_on_c, 0, 60, 0
4, 39936, Note_on_c, 0, 59, 100
4, 40032, Note_on_c, 0, 59, 0
4, 40032, Note_on_c, 0, 62, 100
4, 40128, Note_on_c, 0, 62, 0
4, 40128, Note_on_c, 0, 60, 100
4, 40224, Note_on_c, 0, 60, 0
4, 40224, Note_on_c, 0, 62, 100
4, 40416, Note_on_c, 0, 62, 0
4, 40416, Note_on_c, 0, 60, 100
4, 40512, Note_on_c, 0, 60, 0
4, 40512, Note_on_c, 0, 59, 100
4, 40680, Note_on_c, 0, 59, 0
4, 40680, Note_on_c, 0, 59, 100
4, 40704, Note_on_c, 0, 59, 0
4, 40704, Note_on_c, 0, 60, 100
4, 40800, Note_on_c, 0, 60, 0
4, 40800, Note_on_c, 0, 67, 100
4, 40896, Note_on_c, 0, 67, 0
4, 40896, Note_on_c, 0, 64, 100
4, 40992, Note_on_c, 0, 64, 0
4, 40992, Note_on_c, 0, 60, 100
4, 41088, Note_on_c, 0, 60, 0
4, 41088, Note_on_c, 0, 55, 100
4, 41376, Note_on_c, 0, 55, 0
4, 41376, Note_on_c, 0, 61, 100
4, 41664, Note_on_c, 0, 61, 0
4, 41664, Note_on_c, 0, 60, 100
4, 41952, Note_on_c, 0, 60, 0
4, 41952, Note_on_c, 0, 59, 100
4, 42240, Note_on_c, 0, 59, 0
4, 42240, Note_on_c, 0, 60, 100
4, 42528, Note_on_c, 0, 60, 0
4, 42528, Note_on_c, 0, 57, 100
4, 42816, Note_on_c, 0, 57, 0
4, 42816, Note_on_c, 0, 59, 100
4, 43008, Note_on_c, 0, 59, 0
4, 43008, Note_on_c, 0, 60, 100
4, 43104, Note_on_c, 0, 60, 0
4, 43104, Note_on_c, 0, 57, 100
4, 43200, Note_on_c, 0, 57, 0
4, 43200, Note_on_c, 0, 60, 100
4, 43296, Note_on_c, 0, 60, 0
4, 43296, Note_on_c, 0, 59, 100
4, 43392, Note_on_c, 0, 59, 0
4, 43392, Note_on_c, 0, 60, 100
4, 43488, Note_on_c, 0, 60, 0
4, 43488, Note_on_c, 0, 64, 100
4, 43536, Note_on_c, 0, 64, 0
4, 43536, Note_on_c, 0, 62, 100
4, 43584, Note_on_c, 0, 62, 0
4, 43584, Note_on_c, 0, 61, 100
4, 43632, Note_on_c, 0, 61, 0
4, 43632, Note_on_c, 0, 58, 100
4, 43680, Note_on_c, 0, 58, 0
4, 43680, Note_on_c, 0, 57, 100
4, 43776, Note_on_c, 0, 57, 0
4, 43776, Note_on_c, 0, 61, 100
4, 43920, Note_on_c, 0, 61, 0
4, 43920, Note_on_c, 0, 59, 100
4, 43944, Note_on_c, 0, 59, 0
4, 43944, Note_on_c, 0, 61, 100
4, 43968, Note_on_c, 0, 61, 0
4, 43968, Note_on_c, 0, 62, 100
4, 44064, Note_on_c, 0, 62, 0
4, 44064, Note_on_c, 0, 62, 100
4, 44112, Note_on_c, 0, 62, 0
4, 44112, Note_on_c, 0, 60, 100
4, 44160, Note_on_c, 0, 60, 0
4, 44160, Note_on_c, 0, 59, 100
4, 44208, Note_on_c, 0, 59, 0
4, 44208, Note_on_c, 0, 57, 100
4, 44256, Note_on_c, 0, 57, 0
4, 44256, Note_on_c, 0, 55, 100
4, 44352, Note_on_c, 0, 55, 0
4, 44352, Note_on_c, 0, 59, 100
4, 44496, Note_on_c, 0, 59, 0
4, 44496, Note_on_c, 0, 57, 100
4, 44520, Note_on_c, 0, 57, 0
4, 44520, Note_on_c, 0, 59, 100
4, 44544, Note_on_c, 0, 59, 0
4, 44544, Note_on_c, 0, 60, 100
4, 44640, Note_on_c, 0, 60, 0
4, 44640, Note_on_c, 0, 64, 100
4, 44688, Note_on_c, 0, 64, 0
4, 44688, Note_on_c, 0, 62, 100
4, 44736, Note_on_c, 0, 62, 0
4, 44736, Note_on_c, 0, 60, 100
4, 44784, Note_on_c, 0, 60, 0
4, 44784, Note_on_c, 0, 59, 100
4, 44832, Note_on_c, 0, 59, 0
4, 44832, Note_on_c, 0, 57, 100
4, 45120, Note_on_c, 0, 57, 0
4, 45120, Note_on_c, 0, 56, 100
4, 45216, Note_on_c, 0, 56, 0
4, 45216, Note_on_c, 0, 55, 100
4, 45408, Note_on_c, 0, 55, 0
4, 45408, Note_on_c, 0, 57, 100
4, 45504, Note_on_c, 0, 57, 0
4, 45504, Note_on_c, 0, 60, 100
4, 45600, Note_on_c, 0, 60, 0
4, 45600, Note_on_c, 0, 59, 100
4, 45696, Note_on_c, 0, 59, 0
4, 45696, Note_on_c, 0, 60, 100
4, 45792, Note_on_c, 0, 60, 0
4, 46272, Note_on_c, 0, 60, 100
4, 46320, Note_on_c, 0, 60, 0
4, 46320, Note_on_c, 0, 60, 100
4, 46368, Note_on_c, 0, 60, 0
4, 46368, Note_on_c, 0, 60, 100
4, 46464, Note_on_c, 0, 60, 0
4, 46464, Note_on_c, 0, 59, 100
4, 46560, Note_on_c, 0, 59, 0
4, 46560, Note_on_c, 0, 60, 100
4, 46656, Note_on_c, 0, 60, 0
4, 47136, Note_on_c, 0, 60, 100
4, 47184, Note_on_c, 0, 60, 0
4, 47184, Note_on_c, 0, 60, 100
4, 47232, Note_on_c, 0, 60, 0
4, 47232, Note_on_c, 0, 60, 100
4, 47328, Note_on_c, 0, 60, 0
4, 47328, Note_on_c, 0, 59, 100
4, 47424, Note_on_c, 0, 59, 0
4, 47424, Note_on_c, 0, 60, 100
4, 47520, Note_on_c, 0, 60, 0
4, 47520, End_track
5, 0, Start_track
5, 0, Title_t, "Bass"
5, 0, Key_signature, 0, "major"
5, 0, Time_signature, 3, 2, 24, 8
5, 0, Time_signature, 3, 2, 24, 8
5, 0, Program_c, 0, 52
5, 0, Control_c, 0, 7, 95
5, 0, Note_on_c, 0, 48, 100
5, 288, Note_on_c, 0, 48, 0
5, 288, Note_on_c, 0, 50, 100
5, 384, Note_on_c, 0, 50, 0
5, 1152, Note_on_c, 0, 47, 100
5, 1416, Note_on_c, 0, 47, 0
5, 1416, Note_on_c, 0, 47, 100
5, 1440, Note_on_c, 0, 47, 0
5, 1440, Note_on_c, 0, 48, 100
5, 1536, Note_on_c, 0, 48, 0
5, 2304, Note_on_c, 0, 48, 100
5, 2448, Note_on_c, 0, 48, 0
5, 2448, Note_on_c, 0, 48, 100
5, 2496, Note_on_c, 0, 48, 0
5, 2496, Note_on_c, 0, 48, 100
5, 2592, Note_on_c, 0, 48, 0
5, 2592, Note_on_c, 0, 48, 100
5, 2688, Note_on_c, 0, 48, 0
5, 2688, Note_on_c, 0, 48, 100
5, 2784, Note_on_c, 0, 48, 0
5, 2976, Note_on_c, 0, 52, 100
5, 3072, Note_on_c, 0, 52, 0
5, 3072, Note_on_c, 0, 53, 100
5, 3168, Note_on_c, 0, 53, 0
5, 3168, Note_on_c, 0, 55, 100
5, 3264, Note_on_c, 0, 55, 0
5, 3264, Note_on_c, 0, 43, 100
5, 3360, Note_on_c, 0, 43, 0
5, 3456, Note_on_c, 0, 55, 100
5, 3552, Note_on_c, 0, 55, 0
5, 3552, Note_on_c, 0, 57, 100
5, 3648, Note_on_c, 0, 57, 0
5, 3648, Note_on_c, 0, 59, 100
5, 3744, Note_on_c, 0, 59, 0
5, 3744, Note_on_c, 0, 60, 100
5, 3840, Note_on_c, 0, 60, 0
5, 3840, Note_on_c, 0, 48, 100
5, 3936, Note_on_c, 0, 48, 0
5, 4032, Note_on_c, 0, 60, 100
5, 4224, Note_on_c, 0, 60, 0
5, 4224, Note_on_c, 0, 57, 100
5, 4320, Note_on_c, 0, 57, 0
5, 4320, Note_on_c, 0, 59, 100
5, 4464, Note_on_c, 0, 59, 0
5, 4464, Note_on_c, 0, 59, 100
5, 4512, Note_on_c, 0, 59, 0
5, 4512, Note_on_c, 0, 55, 100
5, 4560, Note_on_c, 0, 55, 0
5, 4560, Note_on_c, 0, 55, 100
5, 4608, Note_on_c, 0, 55, 0
5, 4608, Note_on_c, 0, 57, 100
5, 4800, Note_on_c, 0, 57, 0
5, 4800, Note_on_c, 0, 53, 100
5, 4896, Note_on_c, 0, 53, 0
5, 4896, Note_on_c, 0, 55, 100
5, 4992, Note_on_c, 0, 55, 0
5, 4992, Note_on_c, 0, 53, 100
5, 5088, Note_on_c, 0, 53, 0
5, 5088, Note_on_c, 0, 52, 100
5, 5184, Note_on_c, 0, 52, 0
5, 5184, Note_on_c, 0, 47, 100
5, 5376, Note_on_c, 0, 47, 0
5, 5376, Note_on_c, 0, 48, 100
5, 5472, Note_on_c, 0, 48, 0
5, 5472, Note_on_c, 0, 55, 100
5, 5568, Note_on_c, 0, 55, 0
5, 5568, Note_on_c, 0, 53, 100
5, 5664, Note_on_c, 0, 53, 0
5, 5664, Note_on_c, 0, 52, 100
5, 5760, Note_on_c, 0, 52, 0
5, 5760, Note_on_c, 0, 59, 100
5, 5952, Note_on_c, 0, 59, 0
5, 5952, Note_on_c, 0, 60, 100
5, 6048, Note_on_c, 0, 60, 0
5, 6048, Note_on_c, 0, 55, 100
5, 6144, Note_on_c, 0, 55, 0
5, 7776, Note_on_c, 0, 57, 100
5, 7872, Note_on_c, 0, 57, 0
5, 7872, Note_on_c, 0, 57, 100
5, 7968, Note_on_c, 0, 57, 0
5, 7968, Note_on_c, 0, 57, 100
5, 8064, Note_on_c, 0, 57, 0
5, 8064, Note_on_c, 0, 57, 100
5, 8328, Note_on_c, 0, 57, 0
5, 8328, Note_on_c, 0, 57, 100
5, 8352, Note_on_c, 0, 57, 0
5, 8352, Note_on_c, 0, 50, 100
5, 8448, Note_on_c, 0, 50, 0
5, 9504, Note_on_c, 0, 55, 100
5, 9696, Note_on_c, 0, 55, 0
5, 9696, Note_on_c, 0, 55, 100
5, 9792, Note_on_c, 0, 55, 0
5, 9792, Note_on_c, 0, 55, 100
5, 10080, Note_on_c, 0, 55, 0
5, 10080, Note_on_c, 0, 48, 100
5, 10176, Note_on_c, 0, 48, 0
5, 10464, Note_on_c, 0, 60, 100
5, 10560, Note_on_c, 0, 60, 0
5, 10560, Note_on_c, 0, 60, 100
5, 10656, Note_on_c, 0, 60, 0
5, 10656, Note_on_c, 0, 55, 100
5, 10944, Note_on_c, 0, 55, 0
5, 10944, Note_on_c, 0, 58, 100
5, 11016, Note_on_c, 0, 58, 0
5, 11016, Note_on_c, 0, 58, 100
5, 11040, Note_on_c, 0, 58, 0
5, 11040, Note_on_c, 0, 58, 100
5, 11136, Note_on_c, 0, 58, 0
5, 11136, Note_on_c, 0, 58, 100
5, 11232, Note_on_c, 0, 58, 0
5, 11232, Note_on_c, 0, 53, 100
5, 11424, Note_on_c, 0, 53, 0
5, 11424, Note_on_c, 0, 53, 100
5, 11520, Note_on_c, 0, 53, 0
5, 11520, Note_on_c, 0, 56, 100
5, 11616, Note_on_c, 0, 56, 0
5, 11616, Note_on_c, 0, 56, 100
5, 11712, Note_on_c, 0, 56, 0
5, 11712, Note_on_c, 0, 56, 100
5, 11808, Note_on_c, 0, 56, 0
5, 11808, Note_on_c, 0, 51, 100
5, 12096, Note_on_c, 0, 51, 0
5, 12096, Note_on_c, 0, 50, 100
5, 12192, Note_on_c, 0, 50, 0
5, 12192, Note_on_c, 0, 50, 100
5, 12288, Note_on_c, 0, 50, 0
5, 12288, Note_on_c, 0, 50, 100
5, 12384, Note_on_c, 0, 50, 0
5, 12384, Note_on_c, 0, 50, 100
5, 12528, Note_on_c, 0, 50, 0
5, 12528, Note_on_c, 0, 50, 100
5, 12576, Note_on_c, 0, 50, 0
5, 12576, Note_on_c, 0, 50, 100
5, 12624, Note_on_c, 0, 50, 0
5, 12624, Note_on_c, 0, 50, 100
5, 12672, Note_on_c, 0, 50, 0
5, 12672, Note_on_c, 0, 50, 100
5, 12768, Note_on_c, 0, 50, 0
5, 12768, Note_on_c, 0, 50, 100
5, 12864, Note_on_c, 0, 50, 0
5, 12864, Note_on_c, 0, 50, 100
5, 12960, Note_on_c, 0, 50, 0
5, 12960, Note_on_c, 0, 50, 100
5, 13104, Note_on_c, 0, 50, 0
5, 13104, Note_on_c, 0, 50, 100
5, 13152, Note_on_c, 0, 50, 0
5, 13152, Note_on_c, 0, 50, 100
5, 13248, Note_on_c, 0, 50, 0
5, 13248, Note_on_c, 0, 55, 100
5, 13344, Note_on_c, 0, 55, 0
5, 13344, Note_on_c, 0, 55, 100
5, 13440, Note_on_c, 0, 55, 0
5, 13440, Note_on_c, 0, 54, 100
5, 13536, Note_on_c, 0, 54, 0
5, 13536, Note_on_c, 0, 52, 100
5, 13680, Note_on_c, 0, 52, 0
5, 13680, Note_on_c, 0, 52, 100
5, 13728, Note_on_c, 0, 52, 0
5, 13728, Note_on_c, 0, 47, 100
5, 13824, Note_on_c, 0, 47, 0
5, 13824, Note_on_c, 0, 48, 100
5, 13920, Note_on_c, 0, 48, 0
5, 13920, Note_on_c, 0, 50, 100
5, 13992, Note_on_c, 0, 50, 0
5, 13992, Note_on_c, 0, 50, 100
5, 14016, Note_on_c, 0, 50, 0
5, 14016, Note_on_c, 0, 50, 100
5, 14112, Note_on_c, 0, 50, 0
5, 14112, Note_on_c, 0, 55, 100
5, 14208, Note_on_c, 0, 55, 0
5, 14400, Note_on_c, 0, 55, 100
5, 14688, Note_on_c, 0, 55, 0
5, 14688, Note_on_c, 0, 47, 100
5, 14880, Note_on_c, 0, 47, 0
5, 14880, Note_on_c, 0, 52, 100
5, 14976, Note_on_c, 0, 52, 0
5, 14976, Note_on_c, 0, 49, 100
5, 15240, Note_on_c, 0, 49, 0
5, 15240, Note_on_c, 0, 49, 100
5, 15264, Note_on_c, 0, 49, 0
5, 15264, Note_on_c, 0, 50, 100
5, 15360, Note_on_c, 0, 50, 0
5, 15936, Control_c, 0, 7, 60
5, 15936, Note_on_c, 0, 50, 100
5, 16032, Note_on_c, 0, 50, 0
5, 16032, Note_on_c, 0, 50, 100
5, 16128, Note_on_c, 0, 50, 0
5, 16128, Note_on_c, 0, 50, 100
5, 16272, Note_on_c, 0, 50, 0
5, 16272, Note_on_c, 0, 50, 100
5, 16320, Note_on_c, 0, 50, 0
5, 16320, Note_on_c, 0, 50, 100
5, 16368, Note_on_c, 0, 50, 0
5, 16368, Note_on_c, 0, 50, 100
5, 16416, Note_on_c, 0, 50, 0
5, 16416, Note_on_c, 0, 55, 100
5, 16512, Note_on_c, 0, 55, 0
5, 16512, Note_on_c, 0, 43, 100
5, 16608, Note_on_c, 0, 43, 0
5, 16704, Control_c, 0, 7, 95
5, 16704, Note_on_c, 0, 55, 100
5, 16800, Note_on_c, 0, 55, 0
5, 16800, Note_on_c, 0, 47, 100
5, 16896, Note_on_c, 0, 47, 0
5, 16896, Note_on_c, 0, 48, 100
5, 16992, Note_on_c, 0, 48, 0
5, 16992, Note_on_c, 0, 50, 100
5, 17088, Note_on_c, 0, 50, 0
5, 17088, Note_on_c, 0, 50, 100
5, 17184, Note_on_c, 0, 50, 0
5, 17280, Note_on_c, 0, 50, 100
5, 17376, Note_on_c, 0, 50, 0
5, 17376, Note_on_c, 0, 52, 100
5, 17472, Note_on_c, 0, 52, 0
5, 17472, Note_on_c, 0, 54, 100
5, 17568, Note_on_c, 0, 54, 0
5, 17568, Note_on_c, 0, 55, 100
5, 17664, Note_on_c, 0, 55, 0
5, 17664, Note_on_c, 0, 43, 100
5, 17760, Note_on_c, 0, 43, 0
5, 17856, Note_on_c, 0, 55, 100
5, 18144, Note_on_c, 0, 55, 0
5, 18144, Note_on_c, 0, 53, 100
5, 18336, Note_on_c, 0, 53, 0
5, 18336, Note_on_c, 0, 53, 100
5, 18432, Note_on_c, 0, 53, 0
5, 18432, Note_on_c, 0, 52, 100
5, 18576, Note_on_c, 0, 52, 0
5, 18576, Note_on_c, 0, 52, 100
5, 18624, Note_on_c, 0, 52, 0
5, 18624, Note_on_c, 0, 52, 100
5, 18672, Note_on_c, 0, 52, 0
5, 18672, Note_on_c, 0, 52, 100
5, 18720, Note_on_c, 0, 52, 0
5, 18720, Note_on_c, 0, 51, 100
5, 18984, Note_on_c, 0, 51, 0
5, 18984, Note_on_c, 0, 51, 100
5, 19008, Note_on_c, 0, 51, 0
5, 19008, Note_on_c, 0, 52, 100
5, 19104, Note_on_c, 0, 52, 0
5, 19584, Note_on_c, 0, 52, 100
5, 19848, Note_on_c, 0, 52, 0
5, 19848, Note_on_c, 0, 52, 100
5, 19872, Note_on_c, 0, 52, 0
5, 19872, Note_on_c, 0, 45, 100
5, 19968, Note_on_c, 0, 45, 0
5, 20112, Note_on_c, 0, 53, 100
5, 20160, Note_on_c, 0, 53, 0
5, 20160, Note_on_c, 0, 52, 100
5, 20448, Note_on_c, 0, 52, 0
5, 20448, Note_on_c, 0, 45, 100
5, 20544, Note_on_c, 0, 45, 0
5, 20640, Note_on_c, 0, 45, 100
5, 20736, Note_on_c, 0, 45, 0
5, 20736, Note_on_c, 0, 57, 100
5, 20880, Note_on_c, 0, 57, 0
5, 20880, Note_on_c, 0, 56, 100
5, 20928, Note_on_c, 0, 56, 0
5, 20928, Note_on_c, 0, 57, 100
5, 20976, Note_on_c, 0, 57, 0
5, 20976, Note_on_c, 0, 56, 100
5, 21024, Note_on_c, 0, 56, 0
5, 21024, Note_on_c, 0, 57, 100
5, 21168, Note_on_c, 0, 57, 0
5, 21168, Note_on_c, 0, 56, 100
5, 21216, Note_on_c, 0, 56, 0
5, 21216, Note_on_c, 0, 57, 100
5, 21264, Note_on_c, 0, 57, 0
5, 21264, Note_on_c, 0, 56, 100
5, 21312, Note_on_c, 0, 56, 0
5, 21312, Note_on_c, 0, 57, 100
5, 21504, Note_on_c, 0, 57, 0
5, 21504, Note_on_c, 0, 59, 100
5, 21600, Note_on_c, 0, 59, 0
5, 21600, Control_c, 0, 7, 127
5, 21600, Note_on_c, 0, 60, 100
5, 21636, Control_c, 0, 7, 95
5, 21888, Note_on_c, 0, 60, 0
5, 21888, Control_c, 0, 7, 127
5, 21888, Note_on_c, 0, 56, 100
5, 21924, Control_c, 0, 7, 95
5, 22128, Note_on_c, 0, 56, 0
5, 22128, Note_on_c, 0, 56, 100
5, 22176, Note_on_c, 0, 56, 0
5, 22176, Control_c, 0, 7, 127
5, 22176, Note_on_c, 0, 58, 100
5, 22212, Control_c, 0, 7, 95
5, 22464, Note_on_c, 0, 58, 0
5, 22464, Control_c, 0, 7, 127
5, 22464, Note_on_c, 0, 54, 100
5, 22500, Control_c, 0, 7, 95
5, 22752, Note_on_c, 0, 54, 0
5, 22752, Control_c, 0, 7, 127
5, 22752, Note_on_c, 0, 56, 100
5, 22788, Control_c, 0, 7, 95
5, 22896, Note_on_c, 0, 56, 0
5, 22896, Note_on_c, 0, 56, 100
5, 22944, Note_on_c, 0, 56, 0
5, 22944, Control_c, 0, 7, 95
5, 22944, Note_on_c, 0, 57, 100
5, 23040, Note_on_c, 0, 57, 0
5, 23040, Note_on_c, 0, 51, 100
5, 23136, Note_on_c, 0, 51, 0
5, 23136, Note_on_c, 0, 52, 100
5, 23328, Note_on_c, 0, 52, 0
5, 23328, Note_on_c, 0, 45, 100
5, 23424, Note_on_c, 0, 45, 0
5, 23616, Note_on_c, 0, 57, 100
5, 23904, Note_on_c, 0, 57, 0
5, 23904, Note_on_c, 0, 58, 100
5, 24192, Note_on_c, 0, 58, 0
5, 24192, Note_on_c, 0, 49, 100
5, 24384, Note_on_c, 0, 49, 0
5, 24384, Note_on_c, 0, 50, 100
5, 24480, Note_on_c, 0, 50, 0
5, 24480, Note_on_c, 0, 50, 100
5, 24576, Note_on_c, 0, 50, 0
5, 24576, Note_on_c, 0, 55, 100
5, 24672, Note_on_c, 0, 55, 0
5, 24672, Note_on_c, 0, 56, 100
5, 24768, Time_signature, 5, 2, 24, 8
5, 24768, Time_signature, 5, 2, 24, 8
5, 24768, Note_on_c, 0, 56, 0
5, 24768, Note_on_c, 0, 57, 100
5, 24912, Note_on_c, 0, 57, 0
5, 24912, Note_on_c, 0, 57, 100
5, 24960, Note_on_c, 0, 57, 0
5, 24960, Note_on_c, 0, 58, 100
5, 25152, Note_on_c, 0, 58, 0
5, 25248, Time_signature, 3, 2, 24, 8
5, 25248, Time_signature, 3, 2, 24, 8
5, 25488, Note_on_c, 0, 58, 100
5, 25536, Note_on_c, 0, 58, 0
5, 25536, Note_on_c, 0, 57, 100
5, 25824, Note_on_c, 0, 57, 0
5, 25824, Note_on_c, 0, 50, 100
5, 25920, Note_on_c, 0, 50, 0
5, 26064, Note_on_c, 0, 58, 100
5, 26112, Note_on_c, 0, 58, 0
5, 26112, Note_on_c, 0, 57, 100
5, 26400, Note_on_c, 0, 57, 0
5, 26400, Note_on_c, 0, 50, 100
5, 26496, Note_on_c, 0, 50, 0
5, 26496, Note_on_c, 0, 62, 100
5, 26592, Note_on_c, 0, 62, 0
5, 26592, Note_on_c, 0, 62, 100
5, 26688, Note_on_c, 0, 62, 0
5, 26688, Note_on_c, 0, 62, 100
5, 26832, Note_on_c, 0, 62, 0
5, 26832, Note_on_c, 0, 61, 100
5, 26880, Note_on_c, 0, 61, 0
5, 26880, Note_on_c, 0, 62, 100
5, 26928, Note_on_c, 0, 62, 0
5, 26928, Note_on_c, 0, 61, 100
5, 26976, Note_on_c, 0, 61, 0
5, 26976, Note_on_c, 0, 62, 100
5, 27120, Note_on_c, 0, 62, 0
5, 27120, Note_on_c, 0, 61, 100
5, 27168, Note_on_c, 0, 61, 0
5, 27168, Note_on_c, 0, 62, 100
5, 27216, Note_on_c, 0, 62, 0
5, 27216, Note_on_c, 0, 61, 100
5, 27264, Note_on_c, 0, 61, 0
5, 27264, Note_on_c, 0, 62, 100
5, 27360, Note_on_c, 0, 62, 0
5, 27360, Note_on_c, 0, 59, 100
5, 27456, Note_on_c, 0, 59, 0
5, 27456, Note_on_c, 0, 56, 100
5, 27552, Note_on_c, 0, 56, 0
5, 27552, Note_on_c, 0, 55, 100
5, 27840, Note_on_c, 0, 55, 0
5, 27840, Note_on_c, 0, 55, 100
5, 28032, Note_on_c, 0, 55, 0
5, 28032, Note_on_c, 0, 55, 100
5, 28128, Note_on_c, 0, 55, 0
5, 28128, Note_on_c, 0, 60, 100
5, 28176, Note_on_c, 0, 60, 0
5, 28176, Note_on_c, 0, 64, 100
5, 28224, Note_on_c, 0, 64, 0
5, 28224, Note_on_c, 0, 62, 100
5, 28272, Note_on_c, 0, 62, 0
5, 28272, Note_on_c, 0, 60, 100
5, 28320, Note_on_c, 0, 60, 0
5, 28320, Note_on_c, 0, 59, 100
5, 28368, Note_on_c, 0, 59, 0
5, 28368, Note_on_c, 0, 57, 100
5, 28416, Note_on_c, 0, 57, 0
5, 28416, Note_on_c, 0, 55, 100
5, 28464, Note_on_c, 0, 55, 0
5, 28464, Note_on_c, 0, 57, 100
5, 28512, Note_on_c, 0, 57, 0
5, 28512, Note_on_c, 0, 55, 100
5, 28560, Note_on_c, 0, 55, 0
5, 28560, Note_on_c, 0, 53, 100
5, 28608, Note_on_c, 0, 53, 0
5, 28608, Note_on_c, 0, 52, 100
5, 28656, Note_on_c, 0, 52, 0
5, 28656, Note_on_c, 0, 50, 100
5, 28704, Note_on_c, 0, 50, 0
5, 28704, Note_on_c, 0, 48, 100
5, 28800, Note_on_c, 0, 48, 0
5, 29088, Note_on_c, 0, 60, 100
5, 29184, Note_on_c, 0, 60, 0
5, 29184, Note_on_c, 0, 60, 100
5, 29280, Note_on_c, 0, 60, 0
5, 29280, Note_on_c, 0, 55, 100
5, 29568, Note_on_c, 0, 55, 0
5, 29568, Note_on_c, 0, 58, 100
5, 29640, Note_on_c, 0, 58, 0
5, 29640, Note_on_c, 0, 58, 100
5, 29664, Note_on_c, 0, 58, 0
5, 29664, Note_on_c, 0, 58, 100
5, 29760, Note_on_c, 0, 58, 0
5, 29760, Note_on_c, 0, 58, 100
5, 29856, Note_on_c, 0, 58, 0
5, 29856, Note_on_c, 0, 53, 100
5, 30144, Note_on_c, 0, 53, 0
5, 30144, Note_on_c, 0, 56, 100
5, 30216, Note_on_c, 0, 56, 0
5, 30216, Note_on_c, 0, 56, 100
5, 30240, Note_on_c, 0, 56, 0
5, 30240, Note_on_c, 0, 56, 100
5, 30336, Note_on_c, 0, 56, 0
5, 30336, Note_on_c, 0, 56, 100
5, 30432, Note_on_c, 0, 56, 0
5, 30432, Note_on_c, 0, 51, 100
5, 30720, Note_on_c, 0, 51, 0
5, 30720, Note_on_c, 0, 50, 100
5, 30912, Note_on_c, 0, 50, 0
5, 30912, Note_on_c, 0, 50, 100
5, 31008, Note_on_c, 0, 50, 0
5, 31008, Note_on_c, 0, 50, 100
5, 31152, Note_on_c, 0, 50, 0
5, 31152, Note_on_c, 0, 50, 100
5, 31200, Note_on_c, 0, 50, 0
5, 31200, Note_on_c, 0, 50, 100
5, 31296, Note_on_c, 0, 50, 0
5, 31296, Note_on_c, 0, 50, 100
5, 31488, Note_on_c, 0, 50, 0
5, 31488, Note_on_c, 0, 50, 100
5, 31584, Note_on_c, 0, 50, 0
5, 31584, Note_on_c, 0, 50, 100
5, 31776, Note_on_c, 0, 50, 0
5, 31776, Note_on_c, 0, 50, 100
5, 31872, Note_on_c, 0, 50, 0
5, 31872, Note_on_c, 0, 55, 100
5, 32160, Note_on_c, 0, 55, 0
5, 32160, Note_on_c, 0, 55, 100
5, 32448, Note_on_c, 0, 55, 0
5, 32448, Note_on_c, 0, 55, 100
5, 32736, Note_on_c, 0, 55, 0
5, 32736, Note_on_c, 0, 55, 100
5, 33024, Note_on_c, 0, 55, 0
5, 33024, Note_on_c, 0, 55, 100
5, 33312, Time_signature, 3, 2, 24, 8
5, 33312, Time_signature, 3, 2, 24, 8
5, 33312, Note_on_c, 0, 55, 0
5, 33312, Note_on_c, 0, 55, 100
5, 33792, Note_on_c, 0, 55, 0
5, 37440, Note_on_c, 0, 52, 100
5, 37536, Note_on_c, 0, 52, 0
5, 37536, Note_on_c, 0, 53, 100
5, 37632, Note_on_c, 0, 53, 0
5, 37632, Note_on_c, 0, 55, 100
5, 37728, Note_on_c, 0, 55, 0
5, 37728, Note_on_c, 0, 43, 100
5, 37824, Note_on_c, 0, 43, 0
5, 37920, Note_on_c, 0, 55, 100
5, 38016, Note_on_c, 0, 55, 0
5, 38016, Note_on_c, 0, 57, 100
5, 38112, Note_on_c, 0, 57, 0
5, 38112, Note_on_c, 0, 59, 100
5, 38208, Note_on_c, 0, 59, 0
5, 38208, Note_on_c, 0, 60, 100
5, 38280, Note_on_c, 0, 60, 0
5, 38280, Note_on_c, 0, 60, 100
5, 38304, Note_on_c, 0, 60, 0
5, 38304, Note_on_c, 0, 48, 100
5, 38400, Note_on_c, 0, 48, 0
5, 38496, Note_on_c, 0, 60, 100
5, 38688, Note_on_c, 0, 60, 0
5, 38688, Note_on_c, 0, 57, 100
5, 38784, Note_on_c, 0, 57, 0
5, 38784, Note_on_c, 0, 59, 100
5, 38976, Note_on_c, 0, 59, 0
5, 38976, Note_on_c, 0, 55, 100
5, 39072, Note_on_c, 0, 55, 0
5, 39072, Note_on_c, 0, 57, 100
5, 39264, Note_on_c, 0, 57, 0
5, 39264, Note_on_c, 0, 53, 100
5, 39360, Note_on_c, 0, 53, 0
5, 39360, Note_on_c, 0, 55, 100
5, 39432, Note_on_c, 0, 55, 0
5, 39432, Note_on_c, 0, 55, 100
5, 39456, Note_on_c, 0, 55, 0
5, 39456, Note_on_c, 0, 53, 100
5, 39552, Note_on_c, 0, 53, 0
5, 39552, Note_on_c, 0, 52, 100
5, 39648, Note_on_c, 0, 52, 0
5, 39648, Note_on_c, 0, 47, 100
5, 39840, Note_on_c, 0, 47, 0
5, 39840, Note_on_c, 0, 48, 100
5, 39936, Note_on_c, 0, 48, 0
5, 39936, Note_on_c, 0, 55, 100
5, 40032, Note_on_c, 0, 55, 0
5, 40032, Note_on_c, 0, 53, 100
5, 40128, Note_on_c, 0, 53, 0
5, 40128, Note_on_c, 0, 52, 100
5, 40224, Note_on_c, 0, 52, 0
5, 40224, Note_on_c, 0, 59, 100
5, 40416, Note_on_c, 0, 59, 0
5, 40416, Note_on_c, 0, 60, 100
5, 40512, Note_on_c, 0, 60, 0
5, 40512, Note_on_c, 0, 55, 100
5, 40608, Note_on_c, 0, 55, 0
5, 40608, Note_on_c, 0, 59, 100
5, 40680, Note_on_c, 0, 59, 0
5, 40680, Note_on_c, 0, 59, 100
5, 40704, Note_on_c, 0, 59, 0
5, 40704, Note_on_c, 0, 60, 100
5, 40800, Note_on_c, 0, 60, 0
5, 40800, Note_on_c, 0, 55, 100
5, 40896, Note_on_c, 0, 55, 0
5, 40896, Note_on_c, 0, 52, 100
5, 40992, Note_on_c, 0, 52, 0
5, 40992, Note_on_c, 0, 48, 100
5, 41088, Note_on_c, 0, 48, 0
5, 41088, Note_on_c, 0, 55, 100
5, 41376, Note_on_c, 0, 55, 0
5, 41376, Note_on_c, 0, 57, 100
5, 41664, Note_on_c, 0, 57, 0
5, 41664, Note_on_c, 0, 50, 100
5, 41952, Note_on_c, 0, 50, 0
5, 41952, Note_on_c, 0, 55, 100
5, 42240, Note_on_c, 0, 55, 0
5, 42240, Note_on_c, 0, 48, 100
5, 42528, Note_on_c, 0, 48, 0
5, 42528, Note_on_c, 0, 54, 100
5, 42816, Note_on_c, 0, 54, 0
5, 42816, Note_on_c, 0, 53, 100
5, 43008, Note_on_c, 0, 53, 0
5, 43008, Note_on_c, 0, 52, 100
5, 43104, Note_on_c, 0, 52, 0
5, 43104, Note_on_c, 0, 53, 100
5, 43200, Note_on_c, 0, 53, 0
5, 43200, Note_on_c, 0, 55, 100
5, 43392, Note_on_c, 0, 55, 0
5, 43392, Note_on_c, 0, 48, 100
5, 43488, Note_on_c, 0, 48, 0
5, 43680, Note_on_c, 0, 57, 100
5, 43728, Note_on_c, 0, 58, 100
5, 43776, Note_on_c, 0, 58, 0
5, 43776, Note_on_c, 0, 57, 0
5, 43776, Note_on_c, 0, 57, 100
5, 43824, Note_on_c, 0, 57, 0
5, 43824, Note_on_c, 0, 55, 100
5, 43872, Note_on_c, 0, 55, 0
5, 43872, Note_on_c, 0, 53, 100
5, 43920, Note_on_c, 0, 53, 0
5, 43920, Note_on_c, 0, 52, 100
5, 43968, Note_on_c, 0, 52, 0
5, 43968, Note_on_c, 0, 50, 100
5, 44064, Note_on_c, 0, 50, 0
5, 44256, Note_on_c, 0, 55, 100
5, 44304, Note_on_c, 0, 55, 0
5, 44304, Note_on_c, 0, 57, 100
5, 44352, Note_on_c, 0, 57, 0
5, 44352, Note_on_c, 0, 55, 100
5, 44400, Note_on_c, 0, 55, 0
5, 44400, Note_on_c, 0, 53, 100
5, 44448, Note_on_c, 0, 53, 0
5, 44448, Note_on_c, 0, 52, 100
5, 44496, Note_on_c, 0, 52, 0
5, 44496, Note_on_c, 0, 50, 100
5, 44544, Note_on_c, 0, 50, 0
5, 44544, Note_on_c, 0, 48, 100
5, 44640, Note_on_c, 0, 48, 0
5, 44640, Note_on_c, 0, 60, 100
5, 44688, Note_on_c, 0, 60, 0
5, 44688, Note_on_c, 0, 59, 100
5, 44736, Note_on_c, 0, 59, 0
5, 44736, Note_on_c, 0, 57, 100
5, 44784, Note_on_c, 0, 57, 0
5, 44784, Note_on_c, 0, 55, 100
5, 44832, Note_on_c, 0, 55, 0
5, 44832, Note_on_c, 0, 54, 100
5, 45120, Note_on_c, 0, 54, 0
5, 45120, Note_on_c, 0, 53, 100
5, 45312, Note_on_c, 0, 53, 0
5, 45312, Note_on_c, 0, 52, 100
5, 45408, Note_on_c, 0, 52, 0
5, 45408, Note_on_c, 0, 53, 100
5, 45504, Note_on_c, 0, 53, 0
5, 45504, Note_on_c, 0, 55, 100
5, 45696, Note_on_c, 0, 55, 0
5, 45696, Note_on_c, 0, 48, 100
5, 45792, Note_on_c, 0, 48, 0
5, 46272, Note_on_c, 0, 60, 100
5, 46320, Note_on_c, 0, 60, 0
5, 46320, Note_on_c, 0, 60, 100
5, 46368, Note_on_c, 0, 60, 0
5, 46368, Note_on_c, 0, 55, 100
5, 46560, Note_on_c, 0, 55, 0
5, 46560, Note_on_c, 0, 48, 100
5, 46656, Note_on_c, 0, 48, 0
5, 47136, Note_on_c, 0, 60, 100
5, 47184, Note_on_c, 0, 60, 0
5, 47184, Note_on_c, 0, 60, 100
5, 47232, Note_on_c, 0, 60, 0
5, 47232, Note_on_c, 0, 55, 100
5, 47424, Note_on_c, 0, 55, 0
5, 47424, Note_on_c, 0, 48, 100
5, 47520, Note_on_c, 0, 48, 0
5, 47520, End_track
6, 0, Start_track
6, 0, Title_t, "Soprano Solo"
6, 0, Key_signature, 0, "major"
6, 0, Time_signature, 3, 2, 24, 8
6, 0, Time_signature, 3, 2, 24, 8
6, 0, Program_c, 1, 68
6, 24768, Time_signature, 5, 2, 24, 8
6, 24768, Time_signature, 5, 2, 24, 8
6, 25248, Time_signature, 3, 2, 24, 8
6, 25248, Time_signature, 3, 2, 24, 8
6, 33312, Time_signature, 3, 2, 24, 8
6, 33312, Time_signature, 3, 2, 24, 8
6, 34176, Control_c, 1, 7, 80
6, 34176, Note_on_c, 1, 74, 100
6, 34320, Note_on_c, 1, 74, 0
6, 34320, Note_on_c, 1, 71, 100
6, 34368, Note_on_c, 1, 71, 0
6, 34368, Note_on_c, 1, 72, 100
6, 34464, Note_on_c, 1, 72, 0
6, 34752, Note_on_c, 1, 77, 100
6, 34896, Note_on_c, 1, 77, 0
6, 34896, Note_on_c, 1, 74, 100
6, 34944, Note_on_c, 1, 74, 0
6, 34944, Note_on_c, 1, 76, 100
6, 35040, Note_on_c, 1, 76, 0
6, 36192, Note_on_c, 1, 79, 100
6, 36432, Note_on_c, 1, 79, 0
6, 36432, Note_on_c, 1, 79, 100
6, 36480, Note_on_c, 1, 79, 0
6, 36480, Note_on_c, 1, 79, 100
6, 36504, Note_on_c, 1, 79, 0
6, 36504, Note_on_c, 1, 77, 100
6, 36672, Note_on_c, 1, 77, 0
6, 36672, Note_on_c, 1, 74, 100
6, 36720, Note_on_c, 1, 74, 0
6, 36720, Note_on_c, 1, 77, 100
6, 36768, Note_on_c, 1, 77, 0
6, 36768, Note_on_c, 1, 77, 100
6, 36960, Note_on_c, 1, 77, 0
6, 36960, Note_on_c, 1, 76, 100
6, 36984, Note_on_c, 1, 76, 0
6, 36984, Note_on_c, 1, 77, 100
6, 37008, Note_on_c, 1, 77, 0
6, 37008, Note_on_c, 1, 74, 100
6, 37032, Note_on_c, 1, 74, 0
6, 37032, Note_on_c, 1, 76, 100
6, 37056, Note_on_c, 1, 76, 0
6, 37056, Note_on_c, 1, 74, 100
6, 37152, Note_on_c, 1, 74, 0
6, 37152, End_track
7, 0, Start_track
7, 0, Title_t, "Alto Solo"
7, 0, Key_signature, 0, "major"
7, 0, Time_signature, 3, 2, 24, 8
7, 0, Time_signature, 3, 2, 24, 8
7, 0, Program_c, 2, 64
7, 24768, Time_signature, 5, 2, 24, 8
7, 24768, Time_signature, 5, 2, 24, 8
7, 25248, Time_signature, 3, 2, 24, 8
7, 25248, Time_signature, 3, 2, 24, 8
7, 33312, Time_signature, 3, 2, 24, 8
7, 33312, Time_signature, 3, 2, 24, 8
7, 34176, Control_c, 2, 7, 80
7, 34176, Note_on_c, 2, 67, 100
7, 34320, Note_on_c, 2, 67, 0
7, 34320, Note_on_c, 2, 67, 100
7, 34368, Note_on_c, 2, 67, 0
7, 34368, Note_on_c, 2, 67, 100
7, 34464, Note_on_c, 2, 67, 0
7, 34752, Note_on_c, 2, 67, 100
7, 34944, Note_on_c, 2, 67, 0
7, 34944, Note_on_c, 2, 67, 100
7, 35040, Note_on_c, 2, 67, 0
7, 35040, Note_on_c, 2, 72, 100
7, 35328, Note_on_c, 2, 72, 0
7, 35328, Note_on_c, 2, 71, 100
7, 35616, Note_on_c, 2, 71, 0
7, 35616, Note_on_c, 2, 69, 100
7, 35880, Note_on_c, 2, 69, 0
7, 35880, Note_on_c, 2, 69, 100
7, 35904, Note_on_c, 2, 69, 0
7, 35904, Note_on_c, 2, 67, 100
7, 36192, Note_on_c, 2, 67, 0
7, 36192, Note_on_c, 2, 67, 100
7, 36384, Note_on_c, 2, 67, 0
7, 36384, Note_on_c, 2, 67, 100
7, 36480, Note_on_c, 2, 67, 0
7, 36480, Note_on_c, 2, 67, 100
7, 36624, Note_on_c, 2, 67, 0
7, 36624, Note_on_c, 2, 67, 100
7, 36672, Note_on_c, 2, 67, 0
7, 36672, Note_on_c, 2, 67, 100
7, 36768, Note_on_c, 2, 67, 0
7, 36768, Note_on_c, 2, 67, 100
7, 37056, Note_on_c, 2, 67, 0
7, 37056, Note_on_c, 2, 67, 100
7, 37152, Note_on_c, 2, 67, 0
7, 37152, End_track
8, 0, Start_track
8, 0, Title_t, "Tenor Solo"
8, 0, Key_signature, 0, "major"
8, 0, Time_signature, 3, 2, 24, 8
8, 0, Time_signature, 3, 2, 24, 8
8, 0, Program_c, 3, 71
8, 24768, Time_signature, 5, 2, 24, 8
8, 24768, Time_signature, 5, 2, 24, 8
8, 25248, Time_signature, 3, 2, 24, 8
8, 25248, Time_signature, 3, 2, 24, 8
8, 33312, Time_signature, 3, 2, 24, 8
8, 33312, Time_signature, 3, 2, 24, 8
8, 34176, Control_c, 3, 7, 80
8, 34176, Note_on_c, 3, 65, 100
8, 34320, Note_on_c, 3, 65, 0
8, 34320, Note_on_c, 3, 62, 100
8, 34368, Note_on_c, 3, 62, 0
8, 34368, Note_on_c, 3, 64, 100
8, 34464, Note_on_c, 3, 64, 0
8, 34752, Note_on_c, 3, 62, 100
8, 34896, Note_on_c, 3, 62, 0
8, 34896, Note_on_c, 3, 59, 100
8, 34944, Note_on_c, 3, 59, 0
8, 34944, Note_on_c, 3, 60, 100
8, 35040, Note_on_c, 3, 60, 0
8, 36192, Note_on_c, 3, 64, 100
8, 36432, Note_on_c, 3, 64, 0
8, 36432, Note_on_c, 3, 64, 100
8, 36480, Note_on_c, 3, 64, 0
8, 36480, Note_on_c, 3, 64, 100
8, 36504, Note_on_c, 3, 64, 0
8, 36504, Note_on_c, 3, 62, 100
8, 36672, Note_on_c, 3, 62, 0
8, 36672, Note_on_c, 3, 59, 100
8, 36720, Note_on_c, 3, 59, 0
8, 36720, Note_on_c, 3, 62, 100
8, 36768, Note_on_c, 3, 62, 0
8, 36768, Note_on_c, 3, 62, 100
8, 36960, Note_on_c, 3, 62, 0
8, 36960, Note_on_c, 3, 60, 100
8, 36984, Note_on_c, 3, 60, 0
8, 36984, Note_on_c, 3, 62, 100
8, 37008, Note_on_c, 3, 62, 0
8, 37008, Note_on_c, 3, 59, 100
8, 37032, Note_on_c, 3, 59, 0
8, 37032, Note_on_c, 3, 60, 100
8, 37056, Note_on_c, 3, 60, 0
8, 37056, Note_on_c, 3, 59, 100
8, 37152, Note_on_c, 3, 59, 0
8, 37152, End_track
9, 0, Start_track
9, 0, Title_t, "Bass Solo"
9, 0, Key_signature, 0, "major"
9, 0, Time_signature, 3, 2, 24, 8
9, 0, Time_signature, 3, 2, 24, 8
9, 0, Program_c, 4, 70
9, 24768, Time_signature, 5, 2, 24, 8
9, 24768, Time_signature, 5, 2, 24, 8
9, 25248, Time_signature, 3, 2, 24, 8
9, 25248, Time_signature, 3, 2, 24, 8
9, 33312, Time_signature, 3, 2, 24, 8
9, 33312, Time_signature, 3, 2, 24, 8
9, 34176, Control_c, 4, 7, 80
9, 34176, Note_on_c, 4, 55, 100
9, 34320, Note_on_c, 4, 55, 0
9, 34320, Note_on_c, 4, 55, 100
9, 34368, Note_on_c, 4, 55, 0
9, 34368, Note_on_c, 4, 48, 100
9, 34464, Note_on_c, 4, 48, 0
9, 34752, Note_on_c, 4, 55, 100
9, 34944, Note_on_c, 4, 55, 0
9, 34944, Note_on_c, 4, 48, 100
9, 35040, Note_on_c, 4, 48, 0
9, 35040, Note_on_c, 4, 57, 100
9, 35328, Note_on_c, 4, 57, 0
9, 35328, Note_on_c, 4, 55, 100
9, 35616, Note_on_c, 4, 55, 0
9, 35616, Note_on_c, 4, 53, 100
9, 35880, Note_on_c, 4, 53, 0
9, 35880, Note_on_c, 4, 53, 100
9, 35904, Note_on_c, 4, 53, 0
9, 35904, Note_on_c, 4, 52, 100
9, 36192, Note_on_c, 4, 52, 0
9, 36192, Note_on_c, 4, 48, 100
9, 36384, Note_on_c, 4, 48, 0
9, 36384, Note_on_c, 4, 48, 100
9, 36480, Note_on_c, 4, 48, 0
9, 36480, Note_on_c, 4, 47, 100
9, 36624, Note_on_c, 4, 47, 0
9, 36624, Note_on_c, 4, 47, 100
9, 36672, Note_on_c, 4, 47, 0
9, 36672, Note_on_c, 4, 47, 100
9, 36768, Note_on_c, 4, 47, 0
9, 36768, Note_on_c, 4, 48, 100
9, 37056, Note_on_c, 4, 48, 0
9, 37056, Note_on_c, 4, 43, 100
9, 37152, Note_on_c, 4, 43, 0
9, 37152, End_track
10, 0, Start_track
10, 0, Title_t, "Timpani"
10, 0, Key_signature, 0, "major"
10, 0, Time_signature, 3, 2, 24, 8
10, 0, Time_signature, 3, 2, 24, 8
10, 0, Control_c, 5, 7, 95
10, 0, Program_c, 5, 47
10, 0, Note_on_c, 5, 48, 100
10, 48, Note_on_c, 5, 48, 0
10, 48, Note_on_c, 5, 48, 100
10, 96, Note_on_c, 5, 48, 0
10, 96, Note_on_c, 5, 48, 100
10, 144, Note_on_c, 5, 48, 0
10, 144, Note_on_c, 5, 48, 100
10, 192, Note_on_c, 5, 48, 0
10, 192, Note_on_c, 5, 48, 100
10, 240, Note_on_c, 5, 48, 0
10, 240, Note_on_c, 5, 48, 100
10, 288, Note_on_c, 5, 48, 0
10, 288, Note_on_c, 5, 50, 100
10, 384, Note_on_c, 5, 50, 0
10, 1152, Note_on_c, 5, 47, 100
10, 1200, Note_on_c, 5, 47, 0
10, 1200, Note_on_c, 5, 47, 100
10, 1248, Note_on_c, 5, 47, 0
10, 1248, Note_on_c, 5, 47, 100
10, 1296, Note_on_c, 5, 47, 0
10, 1296, Note_on_c, 5, 47, 100
10, 1344, Note_on_c, 5, 47, 0
10, 1344, Note_on_c, 5, 47, 100
10, 1392, Note_on_c, 5, 47, 0
10, 1392, Note_on_c, 5, 47, 100
10, 1440, Note_on_c, 5, 47, 0
10, 1440, Note_on_c, 5, 48, 100
10, 1536, Note_on_c, 5, 48, 0
10, 2304, Note_on_c, 5, 48, 100
10, 2352, Note_on_c, 5, 48, 0
10, 2352, Note_on_c, 5, 48, 100
10, 2400, Note_on_c, 5, 48, 0
10, 2400, Note_on_c, 5, 48, 100
10, 2448, Note_on_c, 5, 48, 0
10, 2448, Note_on_c, 5, 48, 100
10, 2496, Note_on_c, 5, 48, 0
10, 2496, Note_on_c, 5, 48, 100
10, 2544, Note_on_c, 5, 48, 0
10, 2544, Note_on_c, 5, 48, 100
10, 2592, Note_on_c, 5, 48, 0
10, 2592, Note_on_c, 5, 48, 100
10, 2688, Note_on_c, 5, 48, 0
10, 2688, Note_on_c, 5, 48, 100
10, 2784, Note_on_c, 5, 48, 0
10, 6336, Note_on_c, 5, 43, 100
10, 6432, Note_on_c, 5, 43, 0
10, 6432, Note_on_c, 5, 52, 100
10, 6528, Note_on_c, 5, 52, 0
10, 6528, Note_on_c, 5, 48, 100
10, 6624, Note_on_c, 5, 48, 0
10, 6624, Note_on_c, 5, 43, 100
10, 6720, Note_on_c, 5, 43, 0
10, 7776, Note_on_c, 5, 50, 100
10, 7872, Note_on_c, 5, 50, 0
10, 8352, Note_on_c, 5, 50, 100
10, 8448, Note_on_c, 5, 50, 0
10, 8928, Note_on_c, 5, 43, 100
10, 9024, Note_on_c, 5, 43, 0
10, 9504, Note_on_c, 5, 48, 100
10, 9600, Note_on_c, 5, 48, 0
10, 10080, Note_on_c, 5, 48, 100
10, 10176, Note_on_c, 5, 48, 0
10, 10368, Note_on_c, 5, 48, 100
10, 10464, Note_on_c, 5, 48, 0
10, 10656, Note_on_c, 5, 43, 100
10, 10752, Note_on_c, 5, 43, 0
10, 10944, Note_on_c, 5, 46, 100
10, 11040, Note_on_c, 5, 46, 0
10, 11232, Note_on_c, 5, 41, 100
10, 11328, Note_on_c, 5, 41, 0
10, 11520, Note_on_c, 5, 44, 100
10, 11616, Note_on_c, 5, 44, 0
10, 11808, Note_on_c, 5, 39, 100
10, 11904, Note_on_c, 5, 39, 0
10, 12096, Note_on_c, 5, 38, 100
10, 12192, Note_on_c, 5, 38, 0
10, 13536, Note_on_c, 5, 52, 100
10, 13632, Note_on_c, 5, 52, 0
10, 13824, Note_on_c, 5, 48, 100
10, 13920, Note_on_c, 5, 48, 0
10, 13920, Note_on_c, 5, 50, 100
10, 14016, Note_on_c, 5, 50, 0
10, 14016, Note_on_c, 5, 52, 100
10, 14112, Note_on_c, 5, 52, 0
10, 14112, Note_on_c, 5, 43, 100
10, 14208, Note_on_c, 5, 43, 0
10, 14400, Note_on_c, 5, 43, 100
10, 14496, Note_on_c, 5, 43, 0
10, 14496, Note_on_c, 5, 43, 100
10, 14592, Note_on_c, 5, 43, 0
10, 14592, Note_on_c, 5, 43, 100
10, 14688, Note_on_c, 5, 43, 0
10, 14688, Note_on_c, 5, 47, 100
10, 14784, Note_on_c, 5, 47, 0
10, 14784, Note_on_c, 5, 47, 100
10, 14880, Note_on_c, 5, 47, 0
10, 14880, Note_on_c, 5, 52, 100
10, 14976, Note_on_c, 5, 52, 0
10, 14976, Note_on_c, 5, 49, 100
10, 15072, Note_on_c, 5, 49, 0
10, 15072, Note_on_c, 5, 49, 100
10, 15168, Note_on_c, 5, 49, 0
10, 15168, Note_on_c, 5, 49, 100
10, 15264, Note_on_c, 5, 49, 0
10, 15264, Note_on_c, 5, 50, 100
10, 15360, Note_on_c, 5, 50, 0
10, 17952, Note_on_c, 5, 47, 100
10, 17976, Note_on_c, 5, 47, 0
10, 18048, Note_on_c, 5, 43, 100
10, 18072, Note_on_c, 5, 43, 0
10, 18240, Note_on_c, 5, 47, 100
10, 18264, Note_on_c, 5, 47, 0
10, 18336, Note_on_c, 5, 41, 100
10, 18360, Note_on_c, 5, 41, 0
10, 18576, Note_on_c, 5, 47, 100
10, 18600, Note_on_c, 5, 47, 0
10, 18624, Note_on_c, 5, 52, 100
10, 18648, Note_on_c, 5, 52, 0
10, 18720, Note_on_c, 5, 51, 100
10, 18768, Note_on_c, 5, 51, 0
10, 18768, Note_on_c, 5, 51, 100
10, 18816, Note_on_c, 5, 51, 0
10, 18816, Note_on_c, 5, 51, 100
10, 18864, Note_on_c, 5, 51, 0
10, 18864, Note_on_c, 5, 51, 100
10, 18912, Note_on_c, 5, 51, 0
10, 18912, Note_on_c, 5, 51, 100
10, 18960, Note_on_c, 5, 51, 0
10, 18960, Note_on_c, 5, 51, 100
10, 19008, Note_on_c, 5, 51, 0
10, 19008, Note_on_c, 5, 52, 100
10, 19104, Note_on_c, 5, 52, 0
10, 20448, Note_on_c, 5, 45, 100
10, 20544, Note_on_c, 5, 45, 0
10, 20736, Note_on_c, 5, 45, 100
10, 20832, Note_on_c, 5, 45, 0
10, 21024, Note_on_c, 5, 45, 100
10, 21120, Note_on_c, 5, 45, 0
10, 21312, Note_on_c, 5, 45, 100
10, 21408, Note_on_c, 5, 45, 0
10, 21600, Control_c, 5, 7, 127
10, 21600, Note_on_c, 5, 48, 100
10, 21636, Control_c, 5, 7, 95
10, 21696, Note_on_c, 5, 48, 0
10, 21888, Control_c, 5, 7, 127
10, 21888, Note_on_c, 5, 44, 100
10, 21924, Control_c, 5, 7, 95
10, 21984, Note_on_c, 5, 44, 0
10, 22176, Control_c, 5, 7, 127
10, 22176, Note_on_c, 5, 46, 100
10, 22212, Control_c, 5, 7, 95
10, 22272, Note_on_c, 5, 46, 0
10, 22464, Control_c, 5, 7, 127
10, 22464, Note_on_c, 5, 42, 100
10, 22500, Control_c, 5, 7, 95
10, 22560, Note_on_c, 5, 42, 0
10, 22752, Control_c, 5, 7, 127
10, 22752, Note_on_c, 5, 44, 100
10, 22788, Control_c, 5, 7, 95
10, 22848, Note_on_c, 5, 44, 0
10, 22944, Control_c, 5, 7, 95
10, 23040, Note_on_c, 5, 51, 100
10, 23136, Note_on_c, 5, 51, 0
10, 23328, Note_on_c, 5, 45, 100
10, 23424, Note_on_c, 5, 45, 0
10, 23616, Note_on_c, 5, 45, 100
10, 23712, Note_on_c, 5, 45, 0
10, 23904, Note_on_c, 5, 46, 100
10, 24000, Note_on_c, 5, 46, 0
10, 24192, Note_on_c, 5, 49, 100
10, 24288, Note_on_c, 5, 49, 0
10, 24480, Note_on_c, 5, 50, 100
10, 24528, Note_on_c, 5, 50, 0
10, 24576, Note_on_c, 5, 43, 100
10, 24624, Note_on_c, 5, 43, 0
10, 24672, Note_on_c, 5, 44, 100
10, 24720, Note_on_c, 5, 44, 0
10, 24768, Time_signature, 5, 2, 24, 8
10, 24768, Time_signature, 5, 2, 24, 8
10, 24768, Note_on_c, 5, 45, 100
10, 24792, Note_on_c, 5, 45, 0
10, 24864, Note_on_c, 5, 45, 100
10, 24888, Note_on_c, 5, 45, 0
10, 24960, Note_on_c, 5, 46, 100
10, 24984, Note_on_c, 5, 46, 0
10, 25248, Time_signature, 3, 2, 24, 8
10, 25248, Time_signature, 3, 2, 24, 8
10, 25248, Note_on_c, 5, 45, 100
10, 25344, Note_on_c, 5, 45, 0
10, 25824, Note_on_c, 5, 50, 100
10, 25920, Note_on_c, 5, 50, 0
10, 26400, Note_on_c, 5, 50, 100
10, 26496, Note_on_c, 5, 50, 0
10, 26688, Note_on_c, 5, 50, 100
10, 26784, Note_on_c, 5, 50, 0
10, 26976, Note_on_c, 5, 50, 100
10, 27072, Note_on_c, 5, 50, 0
10, 27264, Note_on_c, 5, 50, 100
10, 27360, Note_on_c, 5, 50, 0
10, 27552, Note_on_c, 5, 43, 100
10, 27648, Note_on_c, 5, 43, 0
10, 28704, Note_on_c, 5, 48, 100
10, 28800, Note_on_c, 5, 48, 0
10, 28992, Note_on_c, 5, 48, 100
10, 29088, Note_on_c, 5, 48, 0
10, 29280, Note_on_c, 5, 43, 100
10, 29376, Note_on_c, 5, 43, 0
10, 29568, Note_on_c, 5, 46, 100
10, 29664, Note_on_c, 5, 46, 0
10, 29856, Note_on_c, 5, 41, 100
10, 29952, Note_on_c, 5, 41, 0
10, 30144, Note_on_c, 5, 44, 100
10, 30240, Note_on_c, 5, 44, 0
10, 30432, Note_on_c, 5, 51, 100
10, 30528, Note_on_c, 5, 51, 0
10, 30720, Note_on_c, 5, 50, 100
10, 30816, Note_on_c, 5, 50, 0
10, 31008, Note_on_c, 5, 48, 100
10, 31104, Note_on_c, 5, 48, 0
10, 31296, Note_on_c, 5, 47, 100
10, 31392, Note_on_c, 5, 47, 0
10, 31584, Note_on_c, 5, 50, 100
10, 31680, Note_on_c, 5, 50, 0
10, 31872, Note_on_c, 5, 43, 100
10, 31968, Note_on_c, 5, 43, 0
10, 32160, Note_on_c, 5, 43, 100
10, 32256, Note_on_c, 5, 43, 0
10, 32448, Note_on_c, 5, 43, 100
10, 32544, Note_on_c, 5, 43, 0
10, 32736, Note_on_c, 5, 43, 100
10, 32832, Note_on_c, 5, 43, 0
10, 33024, Note_on_c, 5, 43, 100
10, 33120, Note_on_c, 5, 43, 0
10, 33312, Time_signature, 3, 2, 24, 8
10, 33312, Time_signature, 3, 2, 24, 8
10, 33312, Note_on_c, 5, 43, 100
10, 33336, Note_on_c, 5, 43, 0
10, 33336, Note_on_c, 5, 43, 100
10, 33360, Note_on_c, 5, 43, 0
10, 33360, Note_on_c, 5, 43, 100
10, 33384, Note_on_c, 5, 43, 0
10, 33384, Note_on_c, 5, 43, 100
10, 33408, Note_on_c, 5, 43, 0
10, 33408, Note_on_c, 5, 43, 100
10, 33432, Note_on_c, 5, 43, 0
10, 33432, Note_on_c, 5, 43, 100
10, 33456, Note_on_c, 5, 43, 0
10, 33456, Note_on_c, 5, 43, 100
10, 33480, Note_on_c, 5, 43, 0
10, 33480, Note_on_c, 5, 43, 100
10, 33504, Note_on_c, 5, 43, 0
10, 33504, Note_on_c, 5, 43, 100
10, 33528, Note_on_c, 5, 43, 0
10, 33528, Note_on_c, 5, 43, 100
10, 33552, Note_on_c, 5, 43, 0
10, 33552, Note_on_c, 5, 43, 100
10, 33576, Note_on_c, 5, 43, 0
10, 33576, Note_on_c, 5, 43, 100
10, 33600, Note_on_c, 5, 43, 0
10, 33600, Note_on_c, 5, 43, 100
10, 33624, Note_on_c, 5, 43, 0
10, 33624, Note_on_c, 5, 43, 100
10, 33648, Note_on_c, 5, 43, 0
10, 33648, Note_on_c, 5, 43, 100
10, 33672, Note_on_c, 5, 43, 0
10, 33672, Note_on_c, 5, 43, 100
10, 33696, Note_on_c, 5, 43, 0
10, 33696, Note_on_c, 5, 43, 100
10, 33720, Note_on_c, 5, 43, 0
10, 33720, Note_on_c, 5, 43, 100
10, 33744, Note_on_c, 5, 43, 0
10, 33744, Note_on_c, 5, 43, 100
10, 33768, Note_on_c, 5, 43, 0
10, 33768, Note_on_c, 5, 43, 100
10, 33792, Note_on_c, 5, 43, 0
10, 39360, Note_on_c, 5, 43, 100
10, 39456, Note_on_c, 5, 43, 0
10, 39648, Note_on_c, 5, 47, 100
10, 39744, Note_on_c, 5, 47, 0
10, 39936, Note_on_c, 5, 43, 100
10, 40032, Note_on_c, 5, 43, 0
10, 40224, Note_on_c, 5, 47, 100
10, 40320, Note_on_c, 5, 47, 0
10, 40512, Note_on_c, 5, 43, 100
10, 40608, Note_on_c, 5, 43, 0
10, 40800, Note_on_c, 5, 43, 100
10, 40896, Note_on_c, 5, 43, 0
10, 41088, Note_on_c, 5, 43, 100
10, 41184, Note_on_c, 5, 43, 0
10, 41376, Note_on_c, 5, 45, 100
10, 41472, Note_on_c, 5, 45, 0
10, 41664, Note_on_c, 5, 50, 100
10, 41760, Note_on_c, 5, 50, 0
10, 41952, Note_on_c, 5, 43, 100
10, 42048, Note_on_c, 5, 43, 0
10, 42240, Note_on_c, 5, 48, 100
10, 42336, Note_on_c, 5, 48, 0
10, 42528, Note_on_c, 5, 42, 100
10, 42624, Note_on_c, 5, 42, 0
10, 42816, Note_on_c, 5, 41, 100
10, 42912, Note_on_c, 5, 41, 0
10, 43104, Note_on_c, 5, 41, 100
10, 43152, Note_on_c, 5, 41, 0
10, 43200, Note_on_c, 5, 43, 100
10, 43248, Note_on_c, 5, 43, 0
10, 43296, Note_on_c, 5, 43, 100
10, 43344, Note_on_c, 5, 43, 0
10, 43392, Note_on_c, 5, 48, 100
10, 43488, Note_on_c, 5, 48, 0
10, 43968, Note_on_c, 5, 50, 100
10, 44064, Note_on_c, 5, 50, 0
10, 44544, Note_on_c, 5, 48, 100
10, 44640, Note_on_c, 5, 48, 0
10, 45696, Note_on_c, 5, 48, 100
10, 45792, Note_on_c, 5, 48, 0
10, 45984, Note_on_c, 5, 48, 100
10, 46080, Note_on_c, 5, 48, 0
10, 46272, Note_on_c, 5, 48, 100
10, 46368, Note_on_c, 5, 48, 0
10, 46560, Note_on_c, 5, 48, 100
10, 46656, Note_on_c, 5, 48, 0
10, 46848, Note_on_c, 5, 48, 100
10, 46944, Note_on_c, 5, 48, 0
10, 47136, Note_on_c, 5, 48, 100
10, 47184, Note_on_c, 5, 48, 0
10, 47184, Note_on_c, 5, 48, 100
10, 47232, Note_on_c, 5, 48, 0
10, 47232, Note_on_c, 5, 43, 100
10, 47280, Note_on_c, 5, 43, 0
10, 47280, Note_on_c, 5, 43, 100
10, 47328, Note_on_c, 5, 43, 0
10, 47328, Note_on_c, 5, 43, 100
10, 47376, Note_on_c, 5, 43, 0
10, 47376, Note_on_c, 5, 43, 100
10, 47424, Note_on_c, 5, 43, 0
10, 47424, Note_on_c, 5, 48, 100
10, 47520, Note_on_c, 5, 48, 0
10, 47520, End_track
11, 0, Start_track
11, 0, Title_t, "Violin 1"
11, 0, Key_signature, 0, "major"
11, 0, Time_signature, 3, 2, 24, 8
11, 0, Time_signature, 3, 2, 24, 8
11, 0, Control_c, 6, 7, 80
11, 0, Program_c, 6, 48
11, 0, Note_on_c, 6, 72, 100
11, 96, Note_on_c, 6, 72, 0
11, 96, Note_on_c, 6, 60, 100
11, 144, Note_on_c, 6, 60, 0
11, 144, Note_on_c, 6, 72, 100
11, 168, Note_on_c, 6, 72, 0
11, 168, Note_on_c, 6, 74, 100
11, 192, Note_on_c, 6, 74, 0
11, 192, Note_on_c, 6, 72, 100
11, 240, Note_on_c, 6, 72, 0
11, 240, Note_on_c, 6, 71, 100
11, 264, Note_on_c, 6, 71, 0
11, 264, Note_on_c, 6, 72, 100
11, 288, Note_on_c, 6, 72, 0
11, 288, Note_on_c, 6, 71, 100
11, 384, Note_on_c, 6, 71, 0
11, 408, Note_on_c, 6, 69, 100
11, 432, Note_on_c, 6, 69, 0
11, 432, Note_on_c, 6, 67, 100
11, 456, Note_on_c, 6, 67, 0
11, 456, Note_on_c, 6, 66, 100
11, 480, Note_on_c, 6, 66, 0
11, 480, Note_on_c, 6, 67, 100
11, 504, Note_on_c, 6, 67, 0
11, 528, Note_on_c, 6, 69, 100
11, 552, Note_on_c, 6, 69, 0
11, 576, Note_on_c, 6, 71, 100
11, 600, Note_on_c, 6, 71, 0
11, 624, Note_on_c, 6, 69, 100
11, 648, Note_on_c, 6, 69, 0
11, 672, Note_on_c, 6, 67, 100
11, 696, Note_on_c, 6, 67, 0
11, 720, Note_on_c, 6, 69, 100
11, 744, Note_on_c, 6, 69, 0
11, 768, Note_on_c, 6, 71, 100
11, 792, Note_on_c, 6, 71, 0
11, 816, Note_on_c, 6, 72, 100
11, 840, Note_on_c, 6, 72, 0
11, 864, Note_on_c, 6, 74, 100
11, 888, Note_on_c, 6, 74, 0
11, 912, Note_on_c, 6, 72, 100
11, 936, Note_on_c, 6, 72, 0
11, 960, Note_on_c, 6, 71, 100
11, 984, Note_on_c, 6, 71, 0
11, 1008, Note_on_c, 6, 72, 100
11, 1032, Note_on_c, 6, 72, 0
11, 1056, Note_on_c, 6, 74, 100
11, 1080, Note_on_c, 6, 74, 0
11, 1104, Note_on_c, 6, 76, 100
11, 1128, Note_on_c, 6, 76, 0
11, 1152, Note_on_c, 6, 77, 100
11, 1248, Note_on_c, 6, 77, 0
11, 1248, Note_on_c, 6, 67, 100
11, 1296, Note_on_c, 6, 67, 0
11, 1296, Note_on_c, 6, 77, 100
11, 1320, Note_on_c, 6, 77, 0
11, 1320, Note_on_c, 6, 79, 100
11, 1344, Note_on_c, 6, 79, 0
11, 1344, Note_on_c, 6, 77, 100
11, 1392, Note_on_c, 6, 77, 0
11, 1392, Note_on_c, 6, 76, 100
11, 1416, Note_on_c, 6, 76, 0
11, 1416, Note_on_c, 6, 77, 100
11, 1440, Note_on_c, 6, 77, 0
11, 1440, Note_on_c, 6, 76, 100
11, 1536, Note_on_c, 6, 76, 0
11, 1560, Note_on_c, 6, 74, 100
11, 1584, Note_on_c, 6, 74, 0
11, 1584, Note_on_c, 6, 72, 100
11, 1608, Note_on_c, 6, 72, 0
11, 1608, Note_on_c, 6, 71, 100
11, 1632, Note_on_c, 6, 71, 0
11, 1632, Note_on_c, 6, 72, 100
11, 1656, Note_on_c, 6, 72, 0
11, 1680, Note_on_c, 6, 74, 100
11, 1704, Note_on_c, 6, 74, 0
11, 1728, Note_on_c, 6, 76, 100
11, 1752, Note_on_c, 6, 76, 0
11, 1776, Note_on_c, 6, 74, 100
11, 1800, Note_on_c, 6, 74, 0
11, 1824, Note_on_c, 6, 72, 100
11, 1848, Note_on_c, 6, 72, 0
11, 1872, Note_on_c, 6, 74, 100
11, 1896, Note_on_c, 6, 74, 0
11, 1920, Note_on_c, 6, 76, 100
11, 1944, Note_on_c, 6, 76, 0
11, 1968, Note_on_c, 6, 77, 100
11, 1992, Note_on_c, 6, 77, 0
11, 2016, Note_on_c, 6, 79, 100
11, 2040, Note_on_c, 6, 79, 0
11, 2064, Note_on_c, 6, 77, 100
11, 2088, Note_on_c, 6, 77, 0
11, 2112, Note_on_c, 6, 76, 100
11, 2136, Note_on_c, 6, 76, 0
11, 2160, Note_on_c, 6, 77, 100
11, 2184, Note_on_c, 6, 77, 0
11, 2208, Note_on_c, 6, 79, 100
11, 2232, Note_on_c, 6, 79, 0
11, 2256, Note_on_c, 6, 80, 100
11, 2280, Note_on_c, 6, 80, 0
11, 2304, Note_on_c, 6, 81, 100
11, 2400, Note_on_c, 6, 81, 0
11, 2400, Note_on_c, 6, 81, 100
11, 2496, Note_on_c, 6, 81, 0
11, 2496, Note_on_c, 6, 81, 100
11, 2592, Note_on_c, 6, 81, 0
11, 2592, Note_on_c, 6, 81, 100
11, 2688, Note_on_c, 6, 81, 0
11, 2688, Note_on_c, 6, 79, 100
11, 2784, Note_on_c, 6, 79, 0
11, 2784, Note_on_c, 6, 72, 100
11, 2796, Note_on_c, 6, 72, 0
11, 2796, Note_on_c, 6, 74, 100
11, 2808, Note_on_c, 6, 74, 0
11, 2808, Note_on_c, 6, 76, 100
11, 2880, Note_on_c, 6, 76, 0
11, 2880, Note_on_c, 6, 76, 100
11, 2892, Note_on_c, 6, 76, 0
11, 2892, Note_on_c, 6, 77, 100
11, 2904, Note_on_c, 6, 77, 0
11, 2904, Note_on_c, 6, 79, 100
11, 2976, Note_on_c, 6, 79, 0
11, 3048, Note_on_c, 6, 77, 100
11, 3072, Note_on_c, 6, 77, 0
11, 3072, Note_on_c, 6, 76, 100
11, 3120, Note_on_c, 6, 76, 0
11, 3120, Note_on_c, 6, 74, 100
11, 3144, Note_on_c, 6, 74, 0
11, 3144, Note_on_c, 6, 72, 100
11, 3168, Note_on_c, 6, 72, 0
11, 3168, Note_on_c, 6, 72, 100
11, 3264, Note_on_c, 6, 72, 0
11, 3264, Note_on_c, 6, 71, 100
11, 3360, Note_on_c, 6, 71, 0
11, 3360, Note_on_c, 6, 71, 100
11, 3372, Note_on_c, 6, 71, 0
11, 3372, Note_on_c, 6, 72, 100
11, 3384, Note_on_c, 6, 72, 0
11, 3384, Note_on_c, 6, 74, 100
11, 3456, Note_on_c, 6, 74, 0
11, 3456, Note_on_c, 6, 74, 100
11, 3468, Note_on_c, 6, 74, 0
11, 3468, Note_on_c, 6, 76, 100
11, 3480, Note_on_c, 6, 76, 0
11, 3480, Note_on_c, 6, 77, 100
11, 3552, Note_on_c, 6, 77, 0
11, 3624, Note_on_c, 6, 79, 100
11, 3648, Note_on_c, 6, 79, 0
11, 3648, Note_on_c, 6, 77, 100
11, 3696, Note_on_c, 6, 77, 0
11, 3696, Note_on_c, 6, 76, 100
11, 3720, Note_on_c, 6, 76, 0
11, 3720, Note_on_c, 6, 74, 100
11, 3744, Note_on_c, 6, 74, 0
11, 3744, Note_on_c, 6, 74, 100
11, 3840, Note_on_c, 6, 74, 0
11, 3840, Note_on_c, 6, 72, 100
11, 3936, Note_on_c, 6, 72, 0
11, 3936, Note_on_c, 6, 72, 100
11, 3948, Note_on_c, 6, 72, 0
11, 3948, Note_on_c, 6, 74, 100
11, 3960, Note_on_c, 6, 74, 0
11, 3960, Note_on_c, 6, 76, 100
11, 4032, Note_on_c, 6, 76, 0
11, 4032, Note_on_c, 6, 76, 100
11, 4044, Note_on_c, 6, 76, 0
11, 4044, Note_on_c, 6, 77, 100
11, 4056, Note_on_c, 6, 77, 0
11, 4056, Note_on_c, 6, 79, 100
11, 4128, Note_on_c, 6, 79, 0
11, 4224, Note_on_c, 6, 81, 100
11, 4236, Note_on_c, 6, 81, 0
11, 4236, Note_on_c, 6, 83, 100
11, 4248, Note_on_c, 6, 83, 0
11, 4248, Note_on_c, 6, 84, 100
11, 4320, Note_on_c, 6, 84, 0
11, 4320, Note_on_c, 6, 74, 100
11, 4332, Note_on_c, 6, 74, 0
11, 4332, Note_on_c, 6, 76, 100
11, 4344, Note_on_c, 6, 76, 0
11, 4344, Note_on_c, 6, 77, 100
11, 4416, Note_on_c, 6, 77, 0
11, 4512, Note_on_c, 6, 79, 100
11, 4524, Note_on_c, 6, 79, 0
11, 4524, Note_on_c, 6, 81, 100
11, 4536, Note_on_c, 6, 81, 0
11, 4536, Note_on_c, 6, 83, 100
11, 4608, Note_on_c, 6, 83, 0
11, 4608, Note_on_c, 6, 72, 100
11, 4620, Note_on_c, 6, 72, 0
11, 4620, Note_on_c, 6, 74, 100
11, 4632, Note_on_c, 6, 74, 0
11, 4632, Note_on_c, 6, 76, 100
11, 4704, Note_on_c, 6, 76, 0
11, 4800, Note_on_c, 6, 77, 100
11, 4812, Note_on_c, 6, 77, 0
11, 4812, Note_on_c, 6, 79, 100
11, 4824, Note_on_c, 6, 79, 0
11, 4824, Note_on_c, 6, 81, 100
11, 4896, Note_on_c, 6, 81, 0
11, 4896, Note_on_c, 6, 71, 100
11, 4968, Note_on_c, 6, 71, 0
11, 4968, Note_on_c, 6, 84, 100
11, 4992, Note_on_c, 6, 84, 0
11, 4992, Note_on_c, 6, 83, 100
11, 5040, Note_on_c, 6, 83, 0
11, 5040, Note_on_c, 6, 81, 100
11, 5064, Note_on_c, 6, 81, 0
11, 5064, Note_on_c, 6, 79, 100
11, 5088, Note_on_c, 6, 79, 0
11, 5088, Note_on_c, 6, 84, 100
11, 5136, Note_on_c, 6, 84, 0
11, 5136, Note_on_c, 6, 79, 100
11, 5184, Note_on_c, 6, 79, 0
11, 5184, Note_on_c, 6, 83, 100
11, 5280, Note_on_c, 6, 83, 0
11, 5280, Note_on_c, 6, 77, 100
11, 5376, Note_on_c, 6, 77, 0
11, 5376, Note_on_c, 6, 76, 100
11, 5472, Note_on_c, 6, 76, 0
11, 5472, Note_on_c, 6, 74, 100
11, 5544, Note_on_c, 6, 74, 0
11, 5544, Note_on_c, 6, 84, 100
11, 5568, Note_on_c, 6, 84, 0
11, 5568, Note_on_c, 6, 83, 100
11, 5616, Note_on_c, 6, 83, 0
11, 5616, Note_on_c, 6, 81, 100
11, 5640, Note_on_c, 6, 81, 0
11, 5640, Note_on_c, 6, 79, 100
11, 5664, Note_on_c, 6, 79, 0
11, 5664, Note_on_c, 6, 84, 100
11, 5712, Note_on_c, 6, 84, 0
11, 5712, Note_on_c, 6, 79, 100
11, 5760, Note_on_c, 6, 79, 0
11, 5760, Note_on_c, 6, 83, 100
11, 5856, Note_on_c, 6, 83, 0
11, 5856, Note_on_c, 6, 77, 100
11, 5952, Note_on_c, 6, 77, 0
11, 5952, Note_on_c, 6, 76, 100
11, 6048, Note_on_c, 6, 76, 0
11, 6048, Note_on_c, 6, 74, 100
11, 6120, Note_on_c, 6, 74, 0
11, 6120, Note_on_c, 6, 84, 100
11, 6144, Note_on_c, 6, 84, 0
11, 6144, Note_on_c, 6, 83, 100
11, 6192, Note_on_c, 6, 83, 0
11, 6192, Note_on_c, 6, 81, 100
11, 6216, Note_on_c, 6, 81, 0
11, 6216, Note_on_c, 6, 79, 100
11, 6240, Note_on_c, 6, 79, 0
11, 6240, Note_on_c, 6, 84, 100
11, 6288, Note_on_c, 6, 84, 0
11, 6288, Note_on_c, 6, 79, 100
11, 6324, Note_on_c, 6, 79, 0
11, 6324, Note_on_c, 6, 81, 100
11, 6336, Note_on_c, 6, 81, 0
11, 6336, Note_on_c, 6, 79, 100
11, 6384, Note_on_c, 6, 79, 0
11, 6384, Note_on_c, 6, 78, 100
11, 6408, Note_on_c, 6, 78, 0
11, 6408, Note_on_c, 6, 79, 100
11, 6420, Note_on_c, 6, 79, 0
11, 6420, Note_on_c, 6, 77, 100
11, 6432, Note_on_c, 6, 77, 0
11, 6432, Note_on_c, 6, 76, 100
11, 6480, Note_on_c, 6, 76, 0
11, 6480, Note_on_c, 6, 75, 100
11, 6504, Note_on_c, 6, 75, 0
11, 6504, Note_on_c, 6, 76, 100
11, 6516, Note_on_c, 6, 76, 0
11, 6516, Note_on_c, 6, 74, 100
11, 6528, Note_on_c, 6, 74, 0
11, 6528, Note_on_c, 6, 72, 100
11, 6576, Note_on_c, 6, 72, 0
11, 6576, Note_on_c, 6, 71, 100
11, 6600, Note_on_c, 6, 71, 0
11, 6600, Note_on_c, 6, 72, 100
11, 6624, Note_on_c, 6, 72, 0
11, 6624, Note_on_c, 6, 67, 100
11, 6696, Note_on_c, 6, 67, 0
11, 6696, Note_on_c, 6, 67, 100
11, 6720, Note_on_c, 6, 67, 0
11, 6720, Note_on_c, 6, 79, 100
11, 6792, Note_on_c, 6, 79, 0
11, 6792, Note_on_c, 6, 79, 100
11, 6816, Note_on_c, 6, 79, 0
11, 6816, Note_on_c, 6, 76, 100
11, 6888, Note_on_c, 6, 76, 0
11, 6888, Note_on_c, 6, 76, 100
11, 6912, Note_on_c, 6, 76, 0
11, 6912, Note_on_c, 6, 73, 100
11, 6984, Note_on_c, 6, 73, 0
11, 6984, Note_on_c, 6, 73, 100
11, 7008, Note_on_c, 6, 73, 0
11, 7008, Note_on_c, 6, 76, 100
11, 7080, Note_on_c, 6, 76, 0
11, 7080, Note_on_c, 6, 76, 100
11, 7104, Note_on_c, 6, 76, 0
11, 7104, Note_on_c, 6, 70, 100
11, 7176, Note_on_c, 6, 70, 0
11, 7176, Note_on_c, 6, 70, 100
11, 7200, Note_on_c, 6, 70, 0
11, 7200, Note_on_c, 6, 69, 100
11, 7224, Note_on_c, 6, 69, 0
11, 7224, Note_on_c, 6, 81, 100
11, 7248, Note_on_c, 6, 81, 0
11, 7248, Note_on_c, 6, 69, 100
11, 7272, Note_on_c, 6, 69, 0
11, 7272, Note_on_c, 6, 81, 100
11, 7296, Note_on_c, 6, 81, 0
11, 7296, Note_on_c, 6, 79, 100
11, 7320, Note_on_c, 6, 79, 0
11, 7320, Note_on_c, 6, 81, 100
11, 7344, Note_on_c, 6, 81, 0
11, 7344, Note_on_c, 6, 77, 100
11, 7368, Note_on_c, 6, 77, 0
11, 7368, Note_on_c, 6, 81, 100
11, 7392, Note_on_c, 6, 81, 0
11, 7392, Note_on_c, 6, 76, 100
11, 7416, Note_on_c, 6, 76, 0
11, 7416, Note_on_c, 6, 81, 100
11, 7440, Note_on_c, 6, 81, 0
11, 7440, Note_on_c, 6, 74, 100
11, 7464, Note_on_c, 6, 74, 0
11, 7464, Note_on_c, 6, 81, 100
11, 7488, Note_on_c, 6, 81, 0
11, 7488, Note_on_c, 6, 73, 100
11, 7512, Note_on_c, 6, 73, 0
11, 7512, Note_on_c, 6, 81, 100
11, 7536, Note_on_c, 6, 81, 0
11, 7536, Note_on_c, 6, 74, 100
11, 7560, Note_on_c, 6, 74, 0
11, 7560, Note_on_c, 6, 81, 100
11, 7584, Note_on_c, 6, 81, 0
11, 7584, Note_on_c, 6, 73, 100
11, 7608, Note_on_c, 6, 73, 0
11, 7608, Note_on_c, 6, 81, 100
11, 7632, Note_on_c, 6, 81, 0
11, 7632, Note_on_c, 6, 70, 100
11, 7656, Note_on_c, 6, 70, 0
11, 7656, Note_on_c, 6, 81, 100
11, 7680, Note_on_c, 6, 81, 0
11, 7680, Note_on_c, 6, 81, 100
11, 7752, Note_on_c, 6, 81, 0
11, 7752, Note_on_c, 6, 83, 100
11, 7764, Note_on_c, 6, 83, 0
11, 7764, Note_on_c, 6, 85, 100
11, 7776, Note_on_c, 6, 85, 0
11, 7776, Note_on_c, 6, 86, 100
11, 7824, Note_on_c, 6, 86, 0
11, 7824, Note_on_c, 6, 69, 100
11, 7848, Note_on_c, 6, 69, 0
11, 7848, Note_on_c, 6, 81, 100
11, 7872, Note_on_c, 6, 81, 0
11, 7872, Note_on_c, 6, 79, 100
11, 7896, Note_on_c, 6, 79, 0
11, 7896, Note_on_c, 6, 81, 100
11, 7920, Note_on_c, 6, 81, 0
11, 7920, Note_on_c, 6, 77, 100
11, 7944, Note_on_c, 6, 77, 0
11, 7944, Note_on_c, 6, 81, 100
11, 7968, Note_on_c, 6, 81, 0
11, 7968, Note_on_c, 6, 76, 100
11, 7992, Note_on_c, 6, 76, 0
11, 7992, Note_on_c, 6, 81, 100
11, 8016, Note_on_c, 6, 81, 0
11, 8016, Note_on_c, 6, 74, 100
11, 8040, Note_on_c, 6, 74, 0
11, 8040, Note_on_c, 6, 81, 100
11, 8064, Note_on_c, 6, 81, 0
11, 8064, Note_on_c, 6, 73, 100
11, 8088, Note_on_c, 6, 73, 0
11, 8088, Note_on_c, 6, 81, 100
11, 8112, Note_on_c, 6, 81, 0
11, 8112, Note_on_c, 6, 74, 100
11, 8136, Note_on_c, 6, 74, 0
11, 8136, Note_on_c, 6, 81, 100
11, 8160, Note_on_c, 6, 81, 0
11, 8160, Note_on_c, 6, 73, 100
11, 8184, Note_on_c, 6, 73, 0
11, 8184, Note_on_c, 6, 81, 100
11, 8208, Note_on_c, 6, 81, 0
11, 8208, Note_on_c, 6, 70, 100
11, 8232, Note_on_c, 6, 70, 0
11, 8232, Note_on_c, 6, 81, 100
11, 8256, Note_on_c, 6, 81, 0
11, 8256, Note_on_c, 6, 81, 100
11, 8328, Note_on_c, 6, 81, 0
11, 8328, Note_on_c, 6, 83, 100
11, 8340, Note_on_c, 6, 83, 0
11, 8340, Note_on_c, 6, 85, 100
11, 8352, Note_on_c, 6, 85, 0
11, 8352, Note_on_c, 6, 86, 100
11, 8448, Note_on_c, 6, 86, 0
11, 10128, Note_on_c, 6, 76, 100
11, 10224, Note_on_c, 6, 76, 0
11, 10224, Note_on_c, 6, 76, 100
11, 10320, Note_on_c, 6, 76, 0
11, 10320, Note_on_c, 6, 76, 100
11, 10368, Note_on_c, 6, 76, 0
11, 10368, Note_on_c, 6, 75, 100
11, 10416, Note_on_c, 6, 75, 0
11, 10416, Note_on_c, 6, 75, 100
11, 10512, Note_on_c, 6, 75, 0
11, 10512, Note_on_c, 6, 75, 100
11, 10608, Note_on_c, 6, 75, 0
11, 10608, Note_on_c, 6, 75, 100
11, 10656, Note_on_c, 6, 75, 0
11, 10656, Note_on_c, 6, 76, 100
11, 10704, Note_on_c, 6, 76, 0
11, 10704, Note_on_c, 6, 71, 100
11, 10728, Note_on_c, 6, 71, 0
11, 10728, Note_on_c, 6, 76, 100
11, 10752, Note_on_c, 6, 76, 0
11, 10752, Note_on_c, 6, 79, 100
11, 10800, Note_on_c, 6, 79, 0
11, 10800, Note_on_c, 6, 76, 100
11, 10824, Note_on_c, 6, 76, 0
11, 10824, Note_on_c, 6, 79, 100
11, 10848, Note_on_c, 6, 79, 0
11, 10848, Note_on_c, 6, 83, 100
11, 10896, Note_on_c, 6, 83, 0
11, 10896, Note_on_c, 6, 83, 100
11, 10944, Note_on_c, 6, 83, 0
11, 10944, Note_on_c, 6, 73, 100
11, 10992, Note_on_c, 6, 73, 0
11, 10992, Note_on_c, 6, 73, 100
11, 11088, Note_on_c, 6, 73, 0
11, 11088, Note_on_c, 6, 73, 100
11, 11184, Note_on_c, 6, 73, 0
11, 11184, Note_on_c, 6, 73, 100
11, 11232, Note_on_c, 6, 73, 0
11, 11232, Note_on_c, 6, 74, 100
11, 11280, Note_on_c, 6, 74, 0
11, 11280, Note_on_c, 6, 69, 100
11, 11304, Note_on_c, 6, 69, 0
11, 11304, Note_on_c, 6, 74, 100
11, 11328, Note_on_c, 6, 74, 0
11, 11328, Note_on_c, 6, 77, 100
11, 11376, Note_on_c, 6, 77, 0
11, 11376, Note_on_c, 6, 74, 100
11, 11400, Note_on_c, 6, 74, 0
11, 11400, Note_on_c, 6, 77, 100
11, 11424, Note_on_c, 6, 77, 0
11, 11424, Note_on_c, 6, 81, 100
11, 11472, Note_on_c, 6, 81, 0
11, 11472, Note_on_c, 6, 81, 100
11, 11520, Note_on_c, 6, 81, 0
11, 11520, Note_on_c, 6, 71, 100
11, 11568, Note_on_c, 6, 71, 0
11, 11568, Note_on_c, 6, 71, 100
11, 11664, Note_on_c, 6, 71, 100
11, 11712, Note_on_c, 6, 71, 0
11, 11760, Note_on_c, 6, 71, 100
11, 11808, Note_on_c, 6, 71, 0
11, 11808, Note_on_c, 6, 71, 0
11, 11808, Note_on_c, 6, 72, 100
11, 11856, Note_on_c, 6, 72, 0
11, 11856, Note_on_c, 6, 67, 100
11, 11880, Note_on_c, 6, 67, 0
11, 11880, Note_on_c, 6, 72, 100
11, 11904, Note_on_c, 6, 72, 0
11, 11904, Note_on_c, 6, 75, 100
11, 11952, Note_on_c, 6, 75, 0
11, 11952, Note_on_c, 6, 72, 100
11, 11976, Note_on_c, 6, 72, 0
11, 11976, Note_on_c, 6, 75, 100
11, 12000, Note_on_c, 6, 75, 0
11, 12000, Note_on_c, 6, 79, 100
11, 12048, Note_on_c, 6, 79, 0
11, 12048, Note_on_c, 6, 79, 100
11, 12096, Note_on_c, 6, 79, 0
11, 12096, Note_on_c, 6, 78, 100
11, 12144, Note_on_c, 6, 78, 0
11, 12144, Note_on_c, 6, 78, 100
11, 12240, Note_on_c, 6, 78, 100
11, 12288, Note_on_c, 6, 78, 0
11, 12336, Note_on_c, 6, 78, 100
11, 12384, Note_on_c, 6, 78, 0
11, 12384, Note_on_c, 6, 78, 0
11, 12384, Note_on_c, 6, 76, 100
11, 12432, Note_on_c, 6, 76, 0
11, 12432, Note_on_c, 6, 76, 100
11, 12528, Note_on_c, 6, 76, 100
11, 12576, Note_on_c, 6, 76, 0
11, 12624, Note_on_c, 6, 76, 100
11, 12672, Note_on_c, 6, 76, 0
11, 12672, Note_on_c, 6, 76, 0
11, 12672, Note_on_c, 6, 74, 100
11, 12720, Note_on_c, 6, 74, 0
11, 12720, Note_on_c, 6, 76, 100
11, 12744, Note_on_c, 6, 76, 0
11, 12744, Note_on_c, 6, 78, 100
11, 12768, Note_on_c, 6, 78, 0
11, 12768, Note_on_c, 6, 79, 100
11, 12792, Note_on_c, 6, 79, 0
11, 12792, Note_on_c, 6, 81, 100
11, 12816, Note_on_c, 6, 81, 0
11, 12816, Note_on_c, 6, 83, 100
11, 12840, Note_on_c, 6, 83, 0
11, 12840, Note_on_c, 6, 84, 100
11, 12864, Note_on_c, 6, 84, 0
11, 12864, Note_on_c, 6, 86, 100
11, 12912, Note_on_c, 6, 86, 0
11, 12912, Note_on_c, 6, 74, 100
11, 12960, Note_on_c, 6, 74, 0
11, 12960, Note_on_c, 6, 72, 100
11, 13008, Note_on_c, 6, 72, 0
11, 13008, Note_on_c, 6, 74, 100
11, 13032, Note_on_c, 6, 74, 0
11, 13032, Note_on_c, 6, 76, 100
11, 13056, Note_on_c, 6, 76, 0
11, 13056, Note_on_c, 6, 78, 100
11, 13080, Note_on_c, 6, 78, 0
11, 13080, Note_on_c, 6, 79, 100
11, 13104, Note_on_c, 6, 79, 0
11, 13104, Note_on_c, 6, 81, 100
11, 13128, Note_on_c, 6, 81, 0
11, 13128, Note_on_c, 6, 83, 100
11, 13152, Note_on_c, 6, 83, 0
11, 13152, Note_on_c, 6, 84, 100
11, 13200, Note_on_c, 6, 84, 0
11, 13200, Note_on_c, 6, 72, 100
11, 13248, Note_on_c, 6, 72, 0
11, 13248, Note_on_c, 6, 71, 100
11, 13296, Note_on_c, 6, 71, 0
11, 13296, Note_on_c, 6, 72, 100
11, 13320, Note_on_c, 6, 72, 0
11, 13320, Note_on_c, 6, 74, 100
11, 13344, Note_on_c, 6, 74, 0
11, 13344, Note_on_c, 6, 76, 100
11, 13368, Note_on_c, 6, 76, 0
11, 13368, Note_on_c, 6, 78, 100
11, 13392, Note_on_c, 6, 78, 0
11, 13392, Note_on_c, 6, 79, 100
11, 13416, Note_on_c, 6, 79, 0
11, 13416, Note_on_c, 6, 81, 100
11, 13440, Note_on_c, 6, 81, 0
11, 13440, Note_on_c, 6, 83, 100
11, 13488, Note_on_c, 6, 83, 0
11, 13488, Note_on_c, 6, 71, 100
11, 13536, Note_on_c, 6, 71, 0
11, 13536, Note_on_c, 6, 71, 100
11, 13584, Note_on_c, 6, 71, 0
11, 13584, Note_on_c, 6, 72, 100
11, 13608, Note_on_c, 6, 72, 0
11, 13608, Note_on_c, 6, 74, 100
11, 13632, Note_on_c, 6, 74, 0
11, 13632, Note_on_c, 6, 76, 100
11, 13656, Note_on_c, 6, 76, 0
11, 13656, Note_on_c, 6, 78, 100
11, 13680, Note_on_c, 6, 78, 0
11, 13680, Note_on_c, 6, 79, 100
11, 13704, Note_on_c, 6, 79, 0
11, 13704, Note_on_c, 6, 81, 100
11, 13728, Note_on_c, 6, 81, 0
11, 13728, Note_on_c, 6, 83, 100
11, 13776, Note_on_c, 6, 83, 0
11, 13776, Note_on_c, 6, 74, 100
11, 13824, Note_on_c, 6, 74, 0
11, 13824, Note_on_c, 6, 72, 100
11, 13872, Note_on_c, 6, 72, 0
11, 13872, Note_on_c, 6, 81, 100
11, 13920, Note_on_c, 6, 81, 0
11, 13920, Note_on_c, 6, 71, 100
11, 13968, Note_on_c, 6, 71, 0
11, 13968, Note_on_c, 6, 79, 100
11, 14016, Note_on_c, 6, 79, 0
11, 14016, Note_on_c, 6, 69, 100
11, 14064, Note_on_c, 6, 69, 0
11, 14064, Note_on_c, 6, 78, 100
11, 14112, Note_on_c, 6, 78, 0
11, 14112, Note_on_c, 6, 79, 100
11, 14208, Note_on_c, 6, 79, 0
11, 14208, Note_on_c, 6, 55, 100
11, 14256, Note_on_c, 6, 55, 0
11, 14256, Note_on_c, 6, 57, 100
11, 14280, Note_on_c, 6, 57, 0
11, 14280, Note_on_c, 6, 59, 100
11, 14304, Note_on_c, 6, 59, 0
11, 14304, Note_on_c, 6, 60, 100
11, 14328, Note_on_c, 6, 60, 0
11, 14328, Note_on_c, 6, 62, 100
11, 14352, Note_on_c, 6, 62, 0
11, 14352, Note_on_c, 6, 64, 100
11, 14376, Note_on_c, 6, 64, 0
11, 14376, Note_on_c, 6, 66, 100
11, 14400, Note_on_c, 6, 66, 0
11, 14400, Note_on_c, 6, 67, 100
11, 14448, Note_on_c, 6, 67, 0
11, 14448, Note_on_c, 6, 79, 100
11, 14496, Note_on_c, 6, 79, 0
11, 14496, Note_on_c, 6, 79, 100
11, 14544, Note_on_c, 6, 79, 0
11, 14544, Note_on_c, 6, 79, 100
11, 14580, Note_on_c, 6, 79, 0
11, 14580, Note_on_c, 6, 81, 100
11, 14592, Note_on_c, 6, 81, 0
11, 14592, Note_on_c, 6, 79, 100
11, 14640, Note_on_c, 6, 79, 0
11, 14640, Note_on_c, 6, 78, 100
11, 14664, Note_on_c, 6, 78, 0
11, 14664, Note_on_c, 6, 79, 100
11, 14688, Note_on_c, 6, 79, 0
11, 14688, Note_on_c, 6, 71, 100
11, 14736, Note_on_c, 6, 71, 0
11, 14736, Note_on_c, 6, 71, 100
11, 14784, Note_on_c, 6, 71, 0
11, 14784, Note_on_c, 6, 71, 100
11, 14832, Note_on_c, 6, 71, 0
11, 14832, Note_on_c, 6, 71, 100
11, 14880, Note_on_c, 6, 71, 0
11, 14880, Note_on_c, 6, 76, 100
11, 14928, Note_on_c, 6, 76, 0
11, 14928, Note_on_c, 6, 76, 100
11, 14976, Note_on_c, 6, 76, 0
11, 14976, Note_on_c, 6, 73, 100
11, 15024, Note_on_c, 6, 73, 0
11, 15024, Note_on_c, 6, 61, 100
11, 15072, Note_on_c, 6, 61, 0
11, 15072, Note_on_c, 6, 61, 100
11, 15120, Note_on_c, 6, 61, 0
11, 15120, Note_on_c, 6, 61, 100
11, 15156, Note_on_c, 6, 61, 0
11, 15156, Note_on_c, 6, 62, 100
11, 15168, Note_on_c, 6, 62, 0
11, 15168, Note_on_c, 6, 61, 100
11, 15216, Note_on_c, 6, 61, 0
11, 15216, Note_on_c, 6, 59, 100
11, 15240, Note_on_c, 6, 59, 0
11, 15240, Note_on_c, 6, 61, 100
11, 15264, Note_on_c, 6, 61, 0
11, 15264, Note_on_c, 6, 62, 100
11, 15288, Note_on_c, 6, 62, 0
11, 15312, Note_on_c, 6, 66, 100
11, 15360, Note_on_c, 6, 66, 0
11, 15360, Note_on_c, 6, 67, 100
11, 15408, Note_on_c, 6, 67, 0
11, 15408, Note_on_c, 6, 69, 100
11, 15456, Note_on_c, 6, 69, 0
11, 15456, Note_on_c, 6, 71, 100
11, 15504, Note_on_c, 6, 71, 0
11, 15504, Note_on_c, 6, 72, 100
11, 15552, Note_on_c, 6, 72, 0
11, 15552, Control_c, 6, 7, 40
11, 15552, Note_on_c, 6, 74, 100
11, 15600, Note_on_c, 6, 74, 0
11, 15600, Note_on_c, 6, 71, 100
11, 15648, Note_on_c, 6, 71, 0
11, 15648, Note_on_c, 6, 79, 100
11, 15696, Note_on_c, 6, 79, 0
11, 15696, Note_on_c, 6, 78, 100
11, 15744, Note_on_c, 6, 78, 0
11, 15744, Note_on_c, 6, 76, 100
11, 15792, Note_on_c, 6, 76, 0
11, 15792, Note_on_c, 6, 74, 100
11, 15840, Note_on_c, 6, 74, 0
11, 15840, Note_on_c, 6, 74, 100
11, 15888, Note_on_c, 6, 74, 0
11, 15888, Note_on_c, 6, 72, 100
11, 15936, Note_on_c, 6, 72, 0
11, 15936, Note_on_c, 6, 84, 100
11, 15960, Note_on_c, 6, 84, 0
11, 15984, Note_on_c, 6, 83, 100
11, 16008, Note_on_c, 6, 83, 0
11, 16032, Note_on_c, 6, 81, 100
11, 16056, Note_on_c, 6, 81, 0
11, 16080, Note_on_c, 6, 79, 100
11, 16104, Note_on_c, 6, 79, 0
11, 16128, Note_on_c, 6, 78, 100
11, 16152, Note_on_c, 6, 78, 0
11, 16176, Note_on_c, 6, 79, 100
11, 16200, Note_on_c, 6, 79, 0
11, 16224, Note_on_c, 6, 78, 100
11, 16248, Note_on_c, 6, 78, 0
11, 16272, Note_on_c, 6, 76, 100
11, 16296, Note_on_c, 6, 76, 0
11, 16320, Note_on_c, 6, 74, 100
11, 16344, Note_on_c, 6, 74, 0
11, 16368, Note_on_c, 6, 72, 100
11, 16392, Note_on_c, 6, 72, 0
11, 16416, Note_on_c, 6, 72, 100
11, 16428, Note_on_c, 6, 72, 0
11, 16428, Note_on_c, 6, 74, 100
11, 16440, Note_on_c, 6, 74, 0
11, 16440, Note_on_c, 6, 72, 100
11, 16452, Note_on_c, 6, 72, 0
11, 16452, Note_on_c, 6, 74, 100
11, 16464, Note_on_c, 6, 74, 0
11, 16464, Note_on_c, 6, 71, 100
11, 16488, Note_on_c, 6, 71, 0
11, 16488, Note_on_c, 6, 72, 100
11, 16512, Note_on_c, 6, 72, 0
11, 16512, Note_on_c, 6, 71, 100
11, 16608, Note_on_c, 6, 71, 0
11, 16608, Control_c, 6, 7, 80
11, 16608, Note_on_c, 6, 79, 100
11, 16620, Note_on_c, 6, 79, 0
11, 16620, Note_on_c, 6, 81, 100
11, 16632, Note_on_c, 6, 81, 0
11, 16632, Note_on_c, 6, 83, 100
11, 16704, Note_on_c, 6, 83, 0
11, 16704, Note_on_c, 6, 83, 100
11, 16716, Note_on_c, 6, 83, 0
11, 16716, Note_on_c, 6, 84, 100
11, 16728, Note_on_c, 6, 84, 0
11, 16728, Note_on_c, 6, 86, 100
11, 16800, Note_on_c, 6, 86, 0
11, 16884, Note_on_c, 6, 84, 100
11, 16896, Note_on_c, 6, 84, 0
11, 16896, Note_on_c, 6, 83, 100
11, 16944, Note_on_c, 6, 83, 0
11, 16944, Note_on_c, 6, 81, 100
11, 16968, Note_on_c, 6, 81, 0
11, 16968, Note_on_c, 6, 79, 100
11, 16992, Note_on_c, 6, 79, 0
11, 16992, Note_on_c, 6, 79, 100
11, 17088, Note_on_c, 6, 79, 0
11, 17088, Note_on_c, 6, 78, 100
11, 17184, Note_on_c, 6, 78, 0
11, 17184, Note_on_c, 6, 78, 100
11, 17196, Note_on_c, 6, 78, 0
11, 17196, Note_on_c, 6, 79, 100
11, 17208, Note_on_c, 6, 79, 0
11, 17208, Note_on_c, 6, 81, 100
11, 17280, Note_on_c, 6, 81, 0
11, 17280, Note_on_c, 6, 81, 100
11, 17292, Note_on_c, 6, 81, 0
11, 17292, Note_on_c, 6, 83, 100
11, 17304, Note_on_c, 6, 83, 0
11, 17304, Note_on_c, 6, 84, 100
11, 17376, Note_on_c, 6, 84, 0
11, 17460, Note_on_c, 6, 86, 100
11, 17472, Note_on_c, 6, 86, 0
11, 17472, Note_on_c, 6, 84, 100
11, 17520, Note_on_c, 6, 84, 0
11, 17520, Note_on_c, 6, 83, 100
11, 17544, Note_on_c, 6, 83, 0
11, 17544, Note_on_c, 6, 81, 100
11, 17568, Note_on_c, 6, 81, 0
11, 17568, Note_on_c, 6, 81, 100
11, 17664, Note_on_c, 6, 81, 0
11, 17664, Note_on_c, 6, 79, 100
11, 17760, Note_on_c, 6, 79, 0
11, 17760, Note_on_c, 6, 79, 100
11, 17772, Note_on_c, 6, 79, 0
11, 17772, Note_on_c, 6, 81, 100
11, 17784, Note_on_c, 6, 81, 0
11, 17784, Note_on_c, 6, 83, 100
11, 17856, Note_on_c, 6, 83, 0
11, 17856, Note_on_c, 6, 83, 100
11, 17868, Note_on_c, 6, 83, 0
11, 17868, Note_on_c, 6, 84, 100
11, 17880, Note_on_c, 6, 84, 0
11, 17880, Note_on_c, 6, 86, 100
11, 17952, Note_on_c, 6, 86, 0
11, 18048, Note_on_c, 6, 79, 100
11, 18060, Note_on_c, 6, 79, 0
11, 18060, Note_on_c, 6, 81, 100
11, 18072, Note_on_c, 6, 81, 0
11, 18072, Note_on_c, 6, 83, 100
11, 18144, Note_on_c, 6, 83, 0
11, 18144, Note_on_c, 6, 83, 100
11, 18156, Note_on_c, 6, 83, 0
11, 18156, Note_on_c, 6, 84, 100
11, 18168, Note_on_c, 6, 84, 0
11, 18168, Note_on_c, 6, 86, 100
11, 18240, Note_on_c, 6, 86, 0
11, 18336, Note_on_c, 6, 79, 100
11, 18348, Note_on_c, 6, 79, 0
11, 18348, Note_on_c, 6, 81, 100
11, 18360, Note_on_c, 6, 81, 0
11, 18360, Note_on_c, 6, 83, 100
11, 18432, Note_on_c, 6, 83, 0
11, 18432, Note_on_c, 6, 83, 100
11, 18444, Note_on_c, 6, 83, 0
11, 18444, Note_on_c, 6, 84, 100
11, 18456, Note_on_c, 6, 84, 0
11, 18456, Note_on_c, 6, 86, 100
11, 18528, Note_on_c, 6, 86, 0
11, 18576, Note_on_c, 6, 76, 100
11, 18600, Note_on_c, 6, 76, 0
11, 18624, Note_on_c, 6, 76, 100
11, 18648, Note_on_c, 6, 76, 0
11, 18672, Note_on_c, 6, 76, 100
11, 18696, Note_on_c, 6, 76, 0
11, 18720, Note_on_c, 6, 84, 100
11, 18768, Note_on_c, 6, 84, 0
11, 18768, Note_on_c, 6, 84, 100
11, 18864, Note_on_c, 6, 84, 100
11, 18912, Note_on_c, 6, 84, 0
11, 18960, Note_on_c, 6, 84, 100
11, 19008, Note_on_c, 6, 84, 0
11, 19008, Note_on_c, 6, 84, 0
11, 19008, Note_on_c, 6, 83, 100
11, 19104, Note_on_c, 6, 83, 0
11, 19104, Note_on_c, 6, 76, 100
11, 19152, Note_on_c, 6, 76, 0
11, 19200, Note_on_c, 6, 76, 100
11, 19248, Note_on_c, 6, 76, 0
11, 19296, Note_on_c, 6, 64, 100
11, 19344, Note_on_c, 6, 64, 0
11, 19344, Note_on_c, 6, 64, 100
11, 19368, Note_on_c, 6, 64, 0
11, 19368, Note_on_c, 6, 76, 100
11, 19392, Note_on_c, 6, 76, 0
11, 19392, Note_on_c, 6, 74, 100
11, 19416, Note_on_c, 6, 74, 0
11, 19416, Note_on_c, 6, 76, 100
11, 19440, Note_on_c, 6, 76, 0
11, 19440, Note_on_c, 6, 72, 100
11, 19464, Note_on_c, 6, 72, 0
11, 19464, Note_on_c, 6, 76, 100
11, 19488, Note_on_c, 6, 76, 0
11, 19488, Note_on_c, 6, 71, 100
11, 19512, Note_on_c, 6, 71, 0
11, 19512, Note_on_c, 6, 76, 100
11, 19536, Note_on_c, 6, 76, 0
11, 19536, Note_on_c, 6, 69, 100
11, 19560, Note_on_c, 6, 69, 0
11, 19560, Note_on_c, 6, 76, 100
11, 19584, Note_on_c, 6, 76, 0
11, 19584, Note_on_c, 6, 68, 100
11, 19608, Note_on_c, 6, 68, 0
11, 19608, Note_on_c, 6, 76, 100
11, 19632, Note_on_c, 6, 76, 0
11, 19632, Note_on_c, 6, 69, 100
11, 19656, Note_on_c, 6, 69, 0
11, 19656, Note_on_c, 6, 76, 100
11, 19680, Note_on_c, 6, 76, 0
11, 19680, Note_on_c, 6, 68, 100
11, 19704, Note_on_c, 6, 68, 0
11, 19704, Note_on_c, 6, 76, 100
11, 19728, Note_on_c, 6, 76, 0
11, 19728, Note_on_c, 6, 65, 100
11, 19752, Note_on_c, 6, 65, 0
11, 19752, Note_on_c, 6, 76, 100
11, 19776, Note_on_c, 6, 76, 0
11, 19776, Note_on_c, 6, 76, 100
11, 19848, Note_on_c, 6, 76, 0
11, 19848, Note_on_c, 6, 78, 100
11, 19860, Note_on_c, 6, 78, 0
11, 19860, Note_on_c, 6, 80, 100
11, 19872, Note_on_c, 6, 80, 0
11, 19872, Note_on_c, 6, 81, 100
11, 19920, Note_on_c, 6, 81, 0
11, 19920, Note_on_c, 6, 64, 100
11, 19944, Note_on_c, 6, 64, 0
11, 19944, Note_on_c, 6, 76, 100
11, 19968, Note_on_c, 6, 76, 0
11, 19968, Note_on_c, 6, 74, 100
11, 19992, Note_on_c, 6, 74, 0
11, 19992, Note_on_c, 6, 76, 100
11, 20016, Note_on_c, 6, 76, 0
11, 20016, Note_on_c, 6, 72, 100
11, 20040, Note_on_c, 6, 72, 0
11, 20040, Note_on_c, 6, 76, 100
11, 20064, Note_on_c, 6, 76, 0
11, 20064, Note_on_c, 6, 71, 100
11, 20088, Note_on_c, 6, 71, 0
11, 20088, Note_on_c, 6, 76, 100
11, 20112, Note_on_c, 6, 76, 0
11, 20112, Note_on_c, 6, 69, 100
11, 20136, Note_on_c, 6, 69, 0
11, 20136, Note_on_c, 6, 76, 100
11, 20160, Note_on_c, 6, 76, 0
11, 20160, Note_on_c, 6, 68, 100
11, 20184, Note_on_c, 6, 68, 0
11, 20184, Note_on_c, 6, 76, 100
11, 20208, Note_on_c, 6, 76, 0
11, 20208, Note_on_c, 6, 69, 100
11, 20232, Note_on_c, 6, 69, 0
11, 20232, Note_on_c, 6, 76, 100
11, 20256, Note_on_c, 6, 76, 0
11, 20256, Note_on_c, 6, 68, 100
11, 20280, Note_on_c, 6, 68, 0
11, 20280, Note_on_c, 6, 76, 100
11, 20304, Note_on_c, 6, 76, 0
11, 20304, Note_on_c, 6, 65, 100
11, 20328, Note_on_c, 6, 65, 0
11, 20328, Note_on_c, 6, 76, 100
11, 20352, Note_on_c, 6, 76, 0
11, 20352, Note_on_c, 6, 76, 100
11, 20424, Note_on_c, 6, 76, 0
11, 20424, Note_on_c, 6, 78, 100
11, 20436, Note_on_c, 6, 78, 0
11, 20436, Note_on_c, 6, 80, 100
11, 20448, Note_on_c, 6, 80, 0
11, 20448, Note_on_c, 6, 81, 100
11, 20496, Note_on_c, 6, 81, 0
11, 20496, Note_on_c, 6, 72, 100
11, 20544, Note_on_c, 6, 72, 0
11, 20544, Note_on_c, 6, 72, 100
11, 20592, Note_on_c, 6, 72, 0
11, 20592, Note_on_c, 6, 72, 100
11, 20628, Note_on_c, 6, 72, 0
11, 20628, Note_on_c, 6, 71, 100
11, 20640, Note_on_c, 6, 71, 0
11, 20640, Note_on_c, 6, 69, 100
11, 20688, Note_on_c, 6, 69, 0
11, 20688, Note_on_c, 6, 68, 100
11, 20712, Note_on_c, 6, 68, 0
11, 20712, Note_on_c, 6, 69, 100
11, 20736, Note_on_c, 6, 69, 0
11, 20736, Note_on_c, 6, 77, 100
11, 20784, Note_on_c, 6, 77, 0
11, 20784, Note_on_c, 6, 77, 100
11, 20880, Note_on_c, 6, 77, 0
11, 20880, Note_on_c, 6, 76, 100
11, 20928, Note_on_c, 6, 76, 0
11, 20928, Note_on_c, 6, 77, 100
11, 20976, Note_on_c, 6, 77, 0
11, 20976, Note_on_c, 6, 76, 100
11, 21024, Note_on_c, 6, 76, 0
11, 21024, Note_on_c, 6, 77, 100
11, 21072, Note_on_c, 6, 77, 0
11, 21072, Note_on_c, 6, 77, 100
11, 21168, Note_on_c, 6, 77, 0
11, 21168, Note_on_c, 6, 76, 100
11, 21216, Note_on_c, 6, 76, 0
11, 21216, Note_on_c, 6, 77, 100
11, 21264, Note_on_c, 6, 77, 0
11, 21264, Note_on_c, 6, 76, 100
11, 21312, Note_on_c, 6, 76, 0
11, 21312, Note_on_c, 6, 77, 100
11, 21360, Note_on_c, 6, 77, 0
11, 21360, Note_on_c, 6, 77, 100
11, 21408, Note_on_c, 6, 77, 0
11, 21408, Note_on_c, 6, 77, 100
11, 21456, Note_on_c, 6, 77, 0
11, 21456, Note_on_c, 6, 77, 100
11, 21504, Note_on_c, 6, 77, 0
11, 21504, Note_on_c, 6, 76, 100
11, 21552, Note_on_c, 6, 76, 0
11, 21552, Note_on_c, 6, 76, 100
11, 21600, Note_on_c, 6, 76, 0
11, 21600, Control_c, 6, 7, 127
11, 21600, Note_on_c, 6, 87, 100
11, 21636, Control_c, 6, 7, 80
11, 21648, Note_on_c, 6, 87, 0
11, 21648, Note_on_c, 6, 75, 100
11, 21696, Note_on_c, 6, 75, 0
11, 21696, Note_on_c, 6, 75, 100
11, 21744, Note_on_c, 6, 75, 0
11, 21744, Note_on_c, 6, 75, 100
11, 21792, Note_on_c, 6, 75, 0
11, 21792, Note_on_c, 6, 75, 100
11, 21840, Note_on_c, 6, 75, 0
11, 21840, Note_on_c, 6, 75, 100
11, 21888, Note_on_c, 6, 75, 0
11, 21888, Control_c, 6, 7, 127
11, 21888, Note_on_c, 6, 86, 100
11, 21924, Control_c, 6, 7, 80
11, 21936, Note_on_c, 6, 86, 0
11, 21936, Note_on_c, 6, 74, 100
11, 21984, Note_on_c, 6, 74, 0
11, 21984, Note_on_c, 6, 74, 100
11, 22032, Note_on_c, 6, 74, 0
11, 22032, Note_on_c, 6, 74, 100
11, 22080, Note_on_c, 6, 74, 0
11, 22080, Note_on_c, 6, 74, 100
11, 22128, Note_on_c, 6, 74, 0
11, 22128, Note_on_c, 6, 74, 100
11, 22176, Note_on_c, 6, 74, 0
11, 22176, Control_c, 6, 7, 127
11, 22176, Note_on_c, 6, 85, 100
11, 22212, Control_c, 6, 7, 80
11, 22224, Note_on_c, 6, 85, 0
11, 22224, Note_on_c, 6, 73, 100
11, 22272, Note_on_c, 6, 73, 0
11, 22272, Note_on_c, 6, 73, 100
11, 22320, Note_on_c, 6, 73, 0
11, 22320, Note_on_c, 6, 73, 100
11, 22368, Note_on_c, 6, 73, 0
11, 22368, Note_on_c, 6, 73, 100
11, 22416, Note_on_c, 6, 73, 0
11, 22416, Note_on_c, 6, 73, 100
11, 22464, Note_on_c, 6, 73, 0
11, 22464, Control_c, 6, 7, 127
11, 22464, Note_on_c, 6, 84, 100
11, 22500, Control_c, 6, 7, 80
11, 22512, Note_on_c, 6, 84, 0
11, 22512, Note_on_c, 6, 72, 100
11, 22560, Note_on_c, 6, 72, 0
11, 22560, Note_on_c, 6, 72, 100
11, 22608, Note_on_c, 6, 72, 0
11, 22608, Note_on_c, 6, 72, 100
11, 22656, Note_on_c, 6, 72, 0
11, 22656, Note_on_c, 6, 72, 100
11, 22704, Note_on_c, 6, 72, 0
11, 22704, Note_on_c, 6, 72, 100
11, 22752, Note_on_c, 6, 72, 0
11, 22752, Control_c, 6, 7, 127
11, 22752, Note_on_c, 6, 83, 100
11, 22788, Control_c, 6, 7, 80
11, 22800, Note_on_c, 6, 83, 0
11, 22800, Note_on_c, 6, 71, 100
11, 22848, Note_on_c, 6, 71, 0
11, 22848, Note_on_c, 6, 71, 100
11, 22896, Note_on_c, 6, 71, 0
11, 22896, Note_on_c, 6, 71, 100
11, 22944, Note_on_c, 6, 71, 0
11, 22944, Control_c, 6, 7, 80
11, 22944, Note_on_c, 6, 81, 100
11, 22992, Note_on_c, 6, 81, 0
11, 22992, Note_on_c, 6, 69, 100
11, 23040, Note_on_c, 6, 69, 0
11, 23040, Note_on_c, 6, 84, 100
11, 23088, Note_on_c, 6, 84, 0
11, 23088, Note_on_c, 6, 72, 100
11, 23136, Note_on_c, 6, 72, 0
11, 23136, Note_on_c, 6, 71, 100
11, 23184, Note_on_c, 6, 71, 0
11, 23184, Note_on_c, 6, 81, 100
11, 23232, Note_on_c, 6, 81, 0
11, 23232, Note_on_c, 6, 64, 100
11, 23280, Note_on_c, 6, 64, 0
11, 23280, Note_on_c, 6, 80, 100
11, 23328, Note_on_c, 6, 80, 0
11, 23328, Note_on_c, 6, 81, 100
11, 23424, Note_on_c, 6, 81, 0
11, 23424, Note_on_c, 6, 57, 100
11, 23472, Note_on_c, 6, 57, 0
11, 23472, Note_on_c, 6, 59, 100
11, 23496, Note_on_c, 6, 59, 0
11, 23496, Note_on_c, 6, 60, 100
11, 23520, Note_on_c, 6, 60, 0
11, 23520, Note_on_c, 6, 62, 100
11, 23544, Note_on_c, 6, 62, 0
11, 23544, Note_on_c, 6, 64, 100
11, 23568, Note_on_c, 6, 64, 0
11, 23568, Note_on_c, 6, 65, 100
11, 23592, Note_on_c, 6, 65, 0
11, 23592, Note_on_c, 6, 68, 100
11, 23616, Note_on_c, 6, 68, 0
11, 23616, Note_on_c, 6, 69, 100
11, 23664, Note_on_c, 6, 69, 0
11, 23664, Note_on_c, 6, 69, 100
11, 23712, Note_on_c, 6, 69, 0
11, 23712, Note_on_c, 6, 69, 100
11, 23760, Note_on_c, 6, 69, 0
11, 23760, Note_on_c, 6, 69, 100
11, 23796, Note_on_c, 6, 69, 0
11, 23796, Note_on_c, 6, 70, 100
11, 23808, Note_on_c, 6, 70, 0
11, 23808, Note_on_c, 6, 69, 100
11, 23856, Note_on_c, 6, 69, 0
11, 23856, Note_on_c, 6, 68, 100
11, 23880, Note_on_c, 6, 68, 0
11, 23880, Note_on_c, 6, 69, 100
11, 23904, Note_on_c, 6, 69, 0
11, 23904, Note_on_c, 6, 70, 100
11, 23952, Note_on_c, 6, 70, 0
11, 23952, Note_on_c, 6, 70, 100
11, 24000, Note_on_c, 6, 70, 0
11, 24000, Note_on_c, 6, 70, 100
11, 24048, Note_on_c, 6, 70, 0
11, 24048, Note_on_c, 6, 70, 100
11, 24084, Note_on_c, 6, 70, 0
11, 24084, Note_on_c, 6, 72, 100
11, 24096, Note_on_c, 6, 72, 0
11, 24096, Note_on_c, 6, 70, 100
11, 24144, Note_on_c, 6, 70, 0
11, 24144, Note_on_c, 6, 69, 100
11, 24168, Note_on_c, 6, 69, 0
11, 24168, Note_on_c, 6, 70, 100
11, 24192, Note_on_c, 6, 70, 0
11, 24192, Note_on_c, 6, 79, 100
11, 24240, Note_on_c, 6, 79, 0
11, 24240, Note_on_c, 6, 79, 100
11, 24288, Note_on_c, 6, 79, 0
11, 24288, Note_on_c, 6, 79, 100
11, 24336, Note_on_c, 6, 79, 0
11, 24336, Note_on_c, 6, 79, 100
11, 24384, Note_on_c, 6, 79, 0
11, 24384, Note_on_c, 6, 77, 100
11, 24408, Note_on_c, 6, 77, 0
11, 24408, Note_on_c, 6, 74, 100
11, 24432, Note_on_c, 6, 74, 0
11, 24432, Note_on_c, 6, 69, 100
11, 24456, Note_on_c, 6, 69, 0
11, 24456, Note_on_c, 6, 74, 100
11, 24480, Note_on_c, 6, 74, 0
11, 24480, Note_on_c, 6, 77, 100
11, 24504, Note_on_c, 6, 77, 0
11, 24576, Note_on_c, 6, 75, 100
11, 24600, Note_on_c, 6, 75, 0
11, 24672, Note_on_c, 6, 74, 100
11, 24696, Note_on_c, 6, 74, 0
11, 24768, Time_signature, 5, 2, 24, 8
11, 24768, Time_signature, 5, 2, 24, 8
11, 24768, Note_on_c, 6, 73, 100
11, 24864, Note_on_c, 6, 73, 0
11, 24936, Note_on_c, 6, 81, 100
11, 24944, Note_on_c, 6, 81, 0
11, 24944, Note_on_c, 6, 83, 100
11, 24952, Note_on_c, 6, 83, 0
11, 24952, Note_on_c, 6, 85, 100
11, 24960, Note_on_c, 6, 85, 0
11, 24960, Note_on_c, 6, 86, 100
11, 25152, Note_on_c, 6, 86, 0
11, 25248, Time_signature, 3, 2, 24, 8
11, 25248, Time_signature, 3, 2, 24, 8
11, 25296, Note_on_c, 6, 69, 100
11, 25320, Note_on_c, 6, 69, 0
11, 25320, Note_on_c, 6, 81, 100
11, 25344, Note_on_c, 6, 81, 0
11, 25344, Note_on_c, 6, 79, 100
11, 25368, Note_on_c, 6, 79, 0
11, 25368, Note_on_c, 6, 81, 100
11, 25392, Note_on_c, 6, 81, 0
11, 25392, Note_on_c, 6, 77, 100
11, 25416, Note_on_c, 6, 77, 0
11, 25416, Note_on_c, 6, 81, 100
11, 25440, Note_on_c, 6, 81, 0
11, 25440, Note_on_c, 6, 76, 100
11, 25464, Note_on_c, 6, 76, 0
11, 25464, Note_on_c, 6, 81, 100
11, 25488, Note_on_c, 6, 81, 0
11, 25488, Note_on_c, 6, 74, 100
11, 25512, Note_on_c, 6, 74, 0
11, 25512, Note_on_c, 6, 81, 100
11, 25536, Note_on_c, 6, 81, 0
11, 25536, Note_on_c, 6, 73, 100
11, 25560, Note_on_c, 6, 73, 0
11, 25560, Note_on_c, 6, 81, 100
11, 25584, Note_on_c, 6, 81, 0
11, 25584, Note_on_c, 6, 74, 100
11, 25608, Note_on_c, 6, 74, 0
11, 25608, Note_on_c, 6, 81, 100
11, 25632, Note_on_c, 6, 81, 0
11, 25632, Note_on_c, 6, 73, 100
11, 25656, Note_on_c, 6, 73, 0
11, 25656, Note_on_c, 6, 81, 100
11, 25680, Note_on_c, 6, 81, 0
11, 25680, Note_on_c, 6, 70, 100
11, 25704, Note_on_c, 6, 70, 0
11, 25704, Note_on_c, 6, 81, 100
11, 25728, Note_on_c, 6, 81, 0
11, 25728, Note_on_c, 6, 81, 100
11, 25800, Note_on_c, 6, 81, 0
11, 25800, Note_on_c, 6, 83, 100
11, 25812, Note_on_c, 6, 83, 0
11, 25812, Note_on_c, 6, 85, 100
11, 25824, Note_on_c, 6, 85, 0
11, 25824, Note_on_c, 6, 86, 100
11, 25872, Note_on_c, 6, 86, 0
11, 25872, Note_on_c, 6, 69, 100
11, 25896, Note_on_c, 6, 69, 0
11, 25896, Note_on_c, 6, 81, 100
11, 25920, Note_on_c, 6, 81, 0
11, 25920, Note_on_c, 6, 79, 100
11, 25944, Note_on_c, 6, 79, 0
11, 25944, Note_on_c, 6, 81, 100
11, 25968, Note_on_c, 6, 81, 0
11, 25968, Note_on_c, 6, 77, 100
11, 25992, Note_on_c, 6, 77, 0
11, 25992, Note_on_c, 6, 81, 100
11, 26016, Note_on_c, 6, 81, 0
11, 26016, Note_on_c, 6, 76, 100
11, 26040, Note_on_c, 6, 76, 0
11, 26040, Note_on_c, 6, 81, 100
11, 26064, Note_on_c, 6, 81, 0
11, 26064, Note_on_c, 6, 74, 100
11, 26088, Note_on_c, 6, 74, 0
11, 26088, Note_on_c, 6, 81, 100
11, 26112, Note_on_c, 6, 81, 0
11, 26112, Note_on_c, 6, 73, 100
11, 26136, Note_on_c, 6, 73, 0
11, 26136, Note_on_c, 6, 81, 100
11, 26160, Note_on_c, 6, 81, 0
11, 26160, Note_on_c, 6, 74, 100
11, 26184, Note_on_c, 6, 74, 0
11, 26184, Note_on_c, 6, 81, 100
11, 26208, Note_on_c, 6, 81, 0
11, 26208, Note_on_c, 6, 73, 100
11, 26232, Note_on_c, 6, 73, 0
11, 26232, Note_on_c, 6, 81, 100
11, 26256, Note_on_c, 6, 81, 0
11, 26256, Note_on_c, 6, 70, 100
11, 26280, Note_on_c, 6, 70, 0
11, 26280, Note_on_c, 6, 81, 100
11, 26304, Note_on_c, 6, 81, 0
11, 26304, Note_on_c, 6, 81, 100
11, 26376, Note_on_c, 6, 81, 0
11, 26376, Note_on_c, 6, 83, 100
11, 26388, Note_on_c, 6, 83, 0
11, 26388, Note_on_c, 6, 85, 100
11, 26400, Note_on_c, 6, 85, 0
11, 26400, Note_on_c, 6, 86, 100
11, 26496, Note_on_c, 6, 86, 0
11, 26496, Note_on_c, 6, 77, 100
11, 26592, Note_on_c, 6, 77, 0
11, 26592, Note_on_c, 6, 77, 100
11, 26688, Note_on_c, 6, 77, 0
11, 26688, Note_on_c, 6, 77, 100
11, 26736, Note_on_c, 6, 77, 0
11, 26736, Note_on_c, 6, 77, 100
11, 26832, Note_on_c, 6, 77, 0
11, 26832, Note_on_c, 6, 76, 100
11, 26880, Note_on_c, 6, 76, 0
11, 26880, Note_on_c, 6, 77, 100
11, 26928, Note_on_c, 6, 77, 0
11, 26928, Note_on_c, 6, 76, 100
11, 26976, Note_on_c, 6, 76, 0
11, 26976, Note_on_c, 6, 77, 100
11, 27024, Note_on_c, 6, 77, 0
11, 27024, Note_on_c, 6, 77, 100
11, 27120, Note_on_c, 6, 77, 0
11, 27120, Note_on_c, 6, 76, 100
11, 27168, Note_on_c, 6, 76, 0
11, 27168, Note_on_c, 6, 77, 100
11, 27216, Note_on_c, 6, 77, 0
11, 27216, Note_on_c, 6, 76, 100
11, 27264, Note_on_c, 6, 76, 0
11, 27264, Note_on_c, 6, 77, 100
11, 27312, Note_on_c, 6, 77, 0
11, 27312, Note_on_c, 6, 77, 100
11, 27360, Note_on_c, 6, 77, 0
11, 27360, Note_on_c, 6, 86, 100
11, 27408, Note_on_c, 6, 86, 0
11, 27408, Note_on_c, 6, 86, 100
11, 27456, Note_on_c, 6, 86, 0
11, 27456, Note_on_c, 6, 84, 100
11, 27504, Note_on_c, 6, 84, 0
11, 27504, Note_on_c, 6, 84, 100
11, 27552, Note_on_c, 6, 84, 0
11, 27552, Note_on_c, 6, 83, 100
11, 27600, Note_on_c, 6, 83, 0
11, 27600, Note_on_c, 6, 67, 100
11, 27624, Note_on_c, 6, 67, 0
11, 27624, Note_on_c, 6, 79, 100
11, 27648, Note_on_c, 6, 79, 0
11, 27648, Note_on_c, 6, 77, 100
11, 27672, Note_on_c, 6, 77, 0
11, 27672, Note_on_c, 6, 79, 100
11, 27696, Note_on_c, 6, 79, 0
11, 27696, Note_on_c, 6, 76, 100
11, 27720, Note_on_c, 6, 76, 0
11, 27720, Note_on_c, 6, 79, 100
11, 27744, Note_on_c, 6, 79, 0
11, 27744, Note_on_c, 6, 74, 100
11, 27768, Note_on_c, 6, 74, 0
11, 27768, Note_on_c, 6, 79, 100
11, 27792, Note_on_c, 6, 79, 0
11, 27792, Note_on_c, 6, 72, 100
11, 27816, Note_on_c, 6, 72, 0
11, 27816, Note_on_c, 6, 79, 100
11, 27840, Note_on_c, 6, 79, 0
11, 27840, Note_on_c, 6, 71, 100
11, 27864, Note_on_c, 6, 71, 0
11, 27864, Note_on_c, 6, 79, 100
11, 27888, Note_on_c, 6, 79, 0
11, 27888, Note_on_c, 6, 72, 100
11, 27912, Note_on_c, 6, 72, 0
11, 27912, Note_on_c, 6, 79, 100
11, 27936, Note_on_c, 6, 79, 0
11, 27936, Note_on_c, 6, 71, 100
11, 27960, Note_on_c, 6, 71, 0
11, 27960, Note_on_c, 6, 79, 100
11, 27984, Note_on_c, 6, 79, 0
11, 27984, Note_on_c, 6, 69, 100
11, 28008, Note_on_c, 6, 69, 0
11, 28008, Note_on_c, 6, 79, 100
11, 28032, Note_on_c, 6, 79, 0
11, 28032, Note_on_c, 6, 79, 100
11, 28104, Note_on_c, 6, 79, 0
11, 28104, Note_on_c, 6, 81, 100
11, 28116, Note_on_c, 6, 81, 0
11, 28116, Note_on_c, 6, 83, 100
11, 28128, Note_on_c, 6, 83, 0
11, 28128, Note_on_c, 6, 84, 100
11, 28176, Note_on_c, 6, 84, 0
11, 28176, Note_on_c, 6, 67, 100
11, 28200, Note_on_c, 6, 67, 0
11, 28200, Note_on_c, 6, 79, 100
11, 28224, Note_on_c, 6, 79, 0
11, 28224, Note_on_c, 6, 77, 100
11, 28248, Note_on_c, 6, 77, 0
11, 28248, Note_on_c, 6, 79, 100
11, 28272, Note_on_c, 6, 79, 0
11, 28272, Note_on_c, 6, 76, 100
11, 28296, Note_on_c, 6, 76, 0
11, 28296, Note_on_c, 6, 79, 100
11, 28320, Note_on_c, 6, 79, 0
11, 28320, Note_on_c, 6, 74, 100
11, 28344, Note_on_c, 6, 74, 0
11, 28344, Note_on_c, 6, 79, 100
11, 28368, Note_on_c, 6, 79, 0
11, 28368, Note_on_c, 6, 72, 100
11, 28392, Note_on_c, 6, 72, 0
11, 28392, Note_on_c, 6, 79, 100
11, 28416, Note_on_c, 6, 79, 0
11, 28416, Note_on_c, 6, 71, 100
11, 28440, Note_on_c, 6, 71, 0
11, 28440, Note_on_c, 6, 79, 100
11, 28464, Note_on_c, 6, 79, 0
11, 28464, Note_on_c, 6, 72, 100
11, 28488, Note_on_c, 6, 72, 0
11, 28488, Note_on_c, 6, 79, 100
11, 28512, Note_on_c, 6, 79, 0
11, 28512, Note_on_c, 6, 71, 100
11, 28536, Note_on_c, 6, 71, 0
11, 28536, Note_on_c, 6, 79, 100
11, 28560, Note_on_c, 6, 79, 0
11, 28560, Note_on_c, 6, 69, 100
11, 28584, Note_on_c, 6, 69, 0
11, 28584, Note_on_c, 6, 79, 100
11, 28608, Note_on_c, 6, 79, 0
11, 28608, Note_on_c, 6, 79, 100
11, 28680, Note_on_c, 6, 79, 0
11, 28680, Note_on_c, 6, 81, 100
11, 28692, Note_on_c, 6, 81, 0
11, 28692, Note_on_c, 6, 83, 100
11, 28704, Note_on_c, 6, 83, 0
11, 28704, Note_on_c, 6, 84, 100
11, 28752, Note_on_c, 6, 84, 0
11, 28752, Note_on_c, 6, 76, 100
11, 28848, Note_on_c, 6, 76, 100
11, 28896, Note_on_c, 6, 76, 0
11, 28944, Note_on_c, 6, 76, 100
11, 28992, Note_on_c, 6, 76, 0
11, 28992, Note_on_c, 6, 76, 0
11, 28992, Note_on_c, 6, 75, 100
11, 29040, Note_on_c, 6, 75, 0
11, 29040, Note_on_c, 6, 75, 100
11, 29136, Note_on_c, 6, 75, 100
11, 29184, Note_on_c, 6, 75, 0
11, 29232, Note_on_c, 6, 75, 100
11, 29280, Note_on_c, 6, 75, 0
11, 29280, Note_on_c, 6, 75, 0
11, 29280, Note_on_c, 6, 76, 100
11, 29328, Note_on_c, 6, 76, 0
11, 29328, Note_on_c, 6, 71, 100
11, 29352, Note_on_c, 6, 71, 0
11, 29352, Note_on_c, 6, 76, 100
11, 29376, Note_on_c, 6, 76, 0
11, 29376, Note_on_c, 6, 79, 100
11, 29424, Note_on_c, 6, 79, 0
11, 29424, Note_on_c, 6, 76, 100
11, 29448, Note_on_c, 6, 76, 0
11, 29448, Note_on_c, 6, 79, 100
11, 29472, Note_on_c, 6, 79, 0
11, 29472, Note_on_c, 6, 83, 100
11, 29520, Note_on_c, 6, 83, 0
11, 29520, Note_on_c, 6, 83, 100
11, 29568, Note_on_c, 6, 83, 0
11, 29568, Note_on_c, 6, 73, 100
11, 29616, Note_on_c, 6, 73, 0
11, 29616, Note_on_c, 6, 73, 100
11, 29712, Note_on_c, 6, 73, 100
11, 29760, Note_on_c, 6, 73, 0
11, 29808, Note_on_c, 6, 73, 100
11, 29856, Note_on_c, 6, 73, 0
11, 29856, Note_on_c, 6, 73, 0
11, 29856, Note_on_c, 6, 74, 100
11, 29904, Note_on_c, 6, 74, 0
11, 29904, Note_on_c, 6, 69, 100
11, 29928, Note_on_c, 6, 69, 0
11, 29928, Note_on_c, 6, 74, 100
11, 29952, Note_on_c, 6, 74, 0
11, 29952, Note_on_c, 6, 77, 100
11, 30000, Note_on_c, 6, 77, 0
11, 30000, Note_on_c, 6, 74, 100
11, 30024, Note_on_c, 6, 74, 0
11, 30024, Note_on_c, 6, 77, 100
11, 30048, Note_on_c, 6, 77, 0
11, 30048, Note_on_c, 6, 81, 100
11, 30096, Note_on_c, 6, 81, 0
11, 30096, Note_on_c, 6, 81, 100
11, 30144, Note_on_c, 6, 81, 0
11, 30144, Note_on_c, 6, 71, 100
11, 30192, Note_on_c, 6, 71, 0
11, 30192, Note_on_c, 6, 71, 100
11, 30288, Note_on_c, 6, 71, 100
11, 30336, Note_on_c, 6, 71, 0
11, 30384, Note_on_c, 6, 71, 100
11, 30432, Note_on_c, 6, 71, 0
11, 30432, Note_on_c, 6, 71, 0
11, 30432, Note_on_c, 6, 72, 100
11, 30480, Note_on_c, 6, 72, 0
11, 30480, Note_on_c, 6, 67, 100
11, 30504, Note_on_c, 6, 67, 0
11, 30504, Note_on_c, 6, 72, 100
11, 30528, Note_on_c, 6, 72, 0
11, 30528, Note_on_c, 6, 75, 100
11, 30576, Note_on_c, 6, 75, 0
11, 30576, Note_on_c, 6, 72, 100
11, 30600, Note_on_c, 6, 72, 0
11, 30600, Note_on_c, 6, 75, 100
11, 30624, Note_on_c, 6, 75, 0
11, 30624, Note_on_c, 6, 79, 100
11, 30672, Note_on_c, 6, 79, 0
11, 30672, Note_on_c, 6, 79, 100
11, 30720, Note_on_c, 6, 79, 0
11, 30720, Note_on_c, 6, 78, 100
11, 30768, Note_on_c, 6, 78, 0
11, 30768, Note_on_c, 6, 78, 100
11, 30864, Note_on_c, 6, 78, 100
11, 30912, Note_on_c, 6, 78, 0
11, 30960, Note_on_c, 6, 78, 100
11, 31008, Note_on_c, 6, 78, 0
11, 31008, Note_on_c, 6, 78, 0
11, 31008, Note_on_c, 6, 76, 100
11, 31056, Note_on_c, 6, 76, 0
11, 31056, Note_on_c, 6, 76, 100
11, 31152, Note_on_c, 6, 76, 100
11, 31200, Note_on_c, 6, 76, 0
11, 31248, Note_on_c, 6, 76, 100
11, 31296, Note_on_c, 6, 76, 0
11, 31296, Note_on_c, 6, 76, 0
11, 31296, Note_on_c, 6, 74, 100
11, 31344, Note_on_c, 6, 74, 0
11, 31344, Note_on_c, 6, 76, 100
11, 31368, Note_on_c, 6, 76, 0
11, 31368, Note_on_c, 6, 78, 100
11, 31392, Note_on_c, 6, 78, 0
11, 31392, Note_on_c, 6, 79, 100
11, 31416, Note_on_c, 6, 79, 0
11, 31416, Note_on_c, 6, 81, 100
11, 31440, Note_on_c, 6, 81, 0
11, 31440, Note_on_c, 6, 83, 100
11, 31464, Note_on_c, 6, 83, 0
11, 31464, Note_on_c, 6, 84, 100
11, 31488, Note_on_c, 6, 84, 0
11, 31488, Note_on_c, 6, 86, 100
11, 31536, Note_on_c, 6, 86, 0
11, 31536, Note_on_c, 6, 74, 100
11, 31584, Note_on_c, 6, 74, 0
11, 31584, Note_on_c, 6, 72, 100
11, 31632, Note_on_c, 6, 72, 0
11, 31632, Note_on_c, 6, 74, 100
11, 31656, Note_on_c, 6, 74, 0
11, 31656, Note_on_c, 6, 76, 100
11, 31680, Note_on_c, 6, 76, 0
11, 31680, Note_on_c, 6, 78, 100
11, 31704, Note_on_c, 6, 78, 0
11, 31704, Note_on_c, 6, 79, 100
11, 31728, Note_on_c, 6, 79, 0
11, 31728, Note_on_c, 6, 81, 100
11, 31752, Note_on_c, 6, 81, 0
11, 31752, Note_on_c, 6, 83, 100
11, 31776, Note_on_c, 6, 83, 0
11, 31776, Note_on_c, 6, 84, 100
11, 31824, Note_on_c, 6, 84, 0
11, 31824, Note_on_c, 6, 72, 100
11, 31872, Note_on_c, 6, 72, 0
11, 31872, Note_on_c, 6, 71, 100
11, 31920, Note_on_c, 6, 71, 0
11, 31920, Note_on_c, 6, 71, 100
11, 32016, Note_on_c, 6, 71, 100
11, 32064, Note_on_c, 6, 71, 0
11, 32112, Note_on_c, 6, 71, 100
11, 32160, Note_on_c, 6, 71, 0
11, 32160, Note_on_c, 6, 71, 0
11, 32160, Note_on_c, 6, 72, 100
11, 32208, Note_on_c, 6, 72, 0
11, 32208, Note_on_c, 6, 72, 100
11, 32304, Note_on_c, 6, 72, 100
11, 32352, Note_on_c, 6, 72, 0
11, 32400, Note_on_c, 6, 72, 100
11, 32448, Note_on_c, 6, 72, 0
11, 32448, Note_on_c, 6, 72, 0
11, 32448, Note_on_c, 6, 74, 100
11, 32496, Note_on_c, 6, 74, 0
11, 32496, Note_on_c, 6, 76, 100
11, 32520, Note_on_c, 6, 76, 0
11, 32520, Note_on_c, 6, 78, 100
11, 32544, Note_on_c, 6, 78, 0
11, 32544, Note_on_c, 6, 79, 100
11, 32568, Note_on_c, 6, 79, 0
11, 32568, Note_on_c, 6, 81, 100
11, 32592, Note_on_c, 6, 81, 0
11, 32592, Note_on_c, 6, 83, 100
11, 32616, Note_on_c, 6, 83, 0
11, 32616, Note_on_c, 6, 84, 100
11, 32640, Note_on_c, 6, 84, 0
11, 32640, Note_on_c, 6, 86, 100
11, 32688, Note_on_c, 6, 86, 0
11, 32688, Note_on_c, 6, 74, 100
11, 32736, Note_on_c, 6, 74, 0
11, 32736, Note_on_c, 6, 76, 100
11, 32784, Note_on_c, 6, 76, 0
11, 32784, Note_on_c, 6, 78, 100
11, 32808, Note_on_c, 6, 78, 0
11, 32808, Note_on_c, 6, 79, 100
11, 32832, Note_on_c, 6, 79, 0
11, 32832, Note_on_c, 6, 81, 100
11, 32856, Note_on_c, 6, 81, 0
11, 32856, Note_on_c, 6, 83, 100
11, 32880, Note_on_c, 6, 83, 0
11, 32880, Note_on_c, 6, 84, 100
11, 32904, Note_on_c, 6, 84, 0
11, 32904, Note_on_c, 6, 86, 100
11, 32928, Note_on_c, 6, 86, 0
11, 32928, Note_on_c, 6, 88, 100
11, 32976, Note_on_c, 6, 88, 0
11, 32976, Note_on_c, 6, 76, 100
11, 33024, Note_on_c, 6, 76, 0
11, 33024, Note_on_c, 6, 77, 100
11, 33096, Note_on_c, 6, 77, 0
11, 33096, Note_on_c, 6, 77, 100
11, 33120, Note_on_c, 6, 77, 0
11, 33120, Note_on_c, 6, 77, 100
11, 33192, Note_on_c, 6, 77, 0
11, 33192, Note_on_c, 6, 83, 100
11, 33216, Note_on_c, 6, 83, 0
11, 33216, Note_on_c, 6, 83, 100
11, 33288, Note_on_c, 6, 83, 0
11, 33288, Note_on_c, 6, 86, 100
11, 33312, Time_signature, 3, 2, 24, 8
11, 33312, Time_signature, 3, 2, 24, 8
11, 33312, Note_on_c, 6, 86, 0
11, 33312, Note_on_c, 6, 86, 100
11, 33792, Note_on_c, 6, 86, 0
11, 34176, Control_c, 6, 7, 60
11, 34176, Note_on_c, 6, 74, 100
11, 34320, Note_on_c, 6, 74, 0
11, 34320, Note_on_c, 6, 71, 100
11, 34368, Note_on_c, 6, 71, 0
11, 34368, Note_on_c, 6, 72, 100
11, 34464, Note_on_c, 6, 72, 0
11, 34752, Note_on_c, 6, 77, 100
11, 34896, Note_on_c, 6, 77, 0
11, 34896, Note_on_c, 6, 74, 100
11, 34944, Note_on_c, 6, 74, 0
11, 34944, Note_on_c, 6, 76, 100
11, 35040, Note_on_c, 6, 76, 0
11, 35040, Control_c, 6, 7, 40
11, 35040, Note_on_c, 6, 84, 100
11, 35064, Note_on_c, 6, 84, 0
11, 35088, Note_on_c, 6, 84, 100
11, 35112, Note_on_c, 6, 84, 0
11, 35136, Note_on_c, 6, 84, 100
11, 35160, Note_on_c, 6, 84, 0
11, 35184, Note_on_c, 6, 84, 100
11, 35208, Note_on_c, 6, 84, 0
11, 35220, Note_on_c, 6, 86, 100
11, 35232, Note_on_c, 6, 86, 0
11, 35232, Note_on_c, 6, 84, 100
11, 35280, Note_on_c, 6, 84, 0
11, 35280, Note_on_c, 6, 83, 100
11, 35304, Note_on_c, 6, 83, 0
11, 35304, Note_on_c, 6, 84, 100
11, 35328, Note_on_c, 6, 84, 0
11, 35328, Note_on_c, 6, 83, 100
11, 35352, Note_on_c, 6, 83, 0
11, 35376, Note_on_c, 6, 83, 100
11, 35400, Note_on_c, 6, 83, 0
11, 35424, Note_on_c, 6, 83, 100
11, 35448, Note_on_c, 6, 83, 0
11, 35472, Note_on_c, 6, 83, 100
11, 35496, Note_on_c, 6, 83, 0
11, 35508, Note_on_c, 6, 84, 100
11, 35520, Note_on_c, 6, 84, 0
11, 35520, Note_on_c, 6, 83, 100
11, 35568, Note_on_c, 6, 83, 0
11, 35568, Note_on_c, 6, 81, 100
11, 35592, Note_on_c, 6, 81, 0
11, 35592, Note_on_c, 6, 83, 100
11, 35616, Note_on_c, 6, 83, 0
11, 35616, Note_on_c, 6, 81, 100
11, 35640, Note_on_c, 6, 81, 0
11, 35664, Note_on_c, 6, 81, 100
11, 35688, Note_on_c, 6, 81, 0
11, 35712, Note_on_c, 6, 81, 100
11, 35736, Note_on_c, 6, 81, 0
11, 35760, Note_on_c, 6, 81, 100
11, 35784, Note_on_c, 6, 81, 0
11, 35796, Note_on_c, 6, 83, 100
11, 35808, Note_on_c, 6, 83, 0
11, 35808, Note_on_c, 6, 81, 100
11, 35856, Note_on_c, 6, 81, 0
11, 35856, Note_on_c, 6, 79, 100
11, 35880, Note_on_c, 6, 79, 0
11, 35880, Note_on_c, 6, 81, 100
11, 35904, Note_on_c, 6, 81, 0
11, 35904, Note_on_c, 6, 79, 100
11, 35928, Note_on_c, 6, 79, 0
11, 35952, Note_on_c, 6, 79, 100
11, 35976, Note_on_c, 6, 79, 0
11, 36000, Note_on_c, 6, 79, 100
11, 36024, Note_on_c, 6, 79, 0
11, 36048, Note_on_c, 6, 79, 100
11, 36072, Note_on_c, 6, 79, 0
11, 36084, Note_on_c, 6, 81, 100
11, 36096, Note_on_c, 6, 81, 0
11, 36096, Note_on_c, 6, 79, 100
11, 36144, Note_on_c, 6, 79, 0
11, 36144, Note_on_c, 6, 78, 100
11, 36168, Note_on_c, 6, 78, 0
11, 36168, Note_on_c, 6, 79, 100
11, 36192, Note_on_c, 6, 79, 0
11, 36192, Control_c, 6, 7, 60
11, 36192, Note_on_c, 6, 79, 100
11, 36216, Note_on_c, 6, 79, 0
11, 36240, Note_on_c, 6, 76, 100
11, 36264, Note_on_c, 6, 76, 0
11, 36288, Note_on_c, 6, 84, 100
11, 36312, Note_on_c, 6, 84, 0
11, 36336, Note_on_c, 6, 79, 100
11, 36360, Note_on_c, 6, 79, 0
11, 36384, Note_on_c, 6, 76, 100
11, 36408, Note_on_c, 6, 76, 0
11, 36432, Note_on_c, 6, 79, 100
11, 36456, Note_on_c, 6, 79, 0
11, 36480, Note_on_c, 6, 77, 100
11, 36504, Note_on_c, 6, 77, 0
11, 36528, Note_on_c, 6, 74, 100
11, 36552, Note_on_c, 6, 74, 0
11, 36576, Note_on_c, 6, 86, 100
11, 36600, Note_on_c, 6, 86, 0
11, 36624, Note_on_c, 6, 83, 100
11, 36648, Note_on_c, 6, 83, 0
11, 36672, Note_on_c, 6, 77, 100
11, 36696, Note_on_c, 6, 77, 0
11, 36720, Note_on_c, 6, 74, 100
11, 36744, Note_on_c, 6, 74, 0
11, 36768, Note_on_c, 6, 72, 100
11, 36792, Note_on_c, 6, 72, 0
11, 36816, Note_on_c, 6, 71, 100
11, 36840, Note_on_c, 6, 71, 0
11, 36864, Note_on_c, 6, 72, 100
11, 36888, Note_on_c, 6, 72, 0
11, 36912, Note_on_c, 6, 74, 100
11, 36936, Note_on_c, 6, 74, 0
11, 36960, Note_on_c, 6, 76, 100
11, 36984, Note_on_c, 6, 76, 0
11, 37008, Note_on_c, 6, 78, 100
11, 37032, Note_on_c, 6, 78, 0
11, 37056, Note_on_c, 6, 79, 100
11, 37152, Note_on_c, 6, 79, 0
11, 37248, Control_c, 6, 7, 80
11, 37248, Note_on_c, 6, 72, 100
11, 37260, Note_on_c, 6, 72, 0
11, 37260, Note_on_c, 6, 74, 100
11, 37272, Note_on_c, 6, 74, 0
11, 37272, Note_on_c, 6, 76, 100
11, 37344, Note_on_c, 6, 76, 0
11, 37344, Note_on_c, 6, 76, 100
11, 37356, Note_on_c, 6, 76, 0
11, 37356, Note_on_c, 6, 77, 100
11, 37368, Note_on_c, 6, 77, 0
11, 37368, Note_on_c, 6, 79, 100
11, 37440, Note_on_c, 6, 79, 0
11, 37524, Note_on_c, 6, 77, 100
11, 37536, Note_on_c, 6, 77, 0
11, 37536, Note_on_c, 6, 76, 100
11, 37584, Note_on_c, 6, 76, 0
11, 37584, Note_on_c, 6, 74, 100
11, 37608, Note_on_c, 6, 74, 0
11, 37608, Note_on_c, 6, 72, 100
11, 37632, Note_on_c, 6, 72, 0
11, 37632, Note_on_c, 6, 72, 100
11, 37728, Note_on_c, 6, 72, 0
11, 37728, Note_on_c, 6, 71, 100
11, 37824, Note_on_c, 6, 71, 0
11, 37824, Note_on_c, 6, 71, 100
11, 37836, Note_on_c, 6, 71, 0
11, 37836, Note_on_c, 6, 72, 100
11, 37848, Note_on_c, 6, 72, 0
11, 37848, Note_on_c, 6, 74, 100
11, 37920, Note_on_c, 6, 74, 0
11, 37920, Note_on_c, 6, 74, 100
11, 37932, Note_on_c, 6, 74, 0
11, 37932, Note_on_c, 6, 76, 100
11, 37944, Note_on_c, 6, 76, 0
11, 37944, Note_on_c, 6, 77, 100
11, 38016, Note_on_c, 6, 77, 0
11, 38100, Note_on_c, 6, 79, 100
11, 38112, Note_on_c, 6, 79, 0
11, 38112, Note_on_c, 6, 77, 100
11, 38160, Note_on_c, 6, 77, 0
11, 38160, Note_on_c, 6, 76, 100
11, 38184, Note_on_c, 6, 76, 0
11, 38184, Note_on_c, 6, 74, 100
11, 38208, Note_on_c, 6, 74, 0
11, 38208, Note_on_c, 6, 74, 100
11, 38304, Note_on_c, 6, 74, 0
11, 38304, Note_on_c, 6, 72, 100
11, 38400, Note_on_c, 6, 72, 0
11, 38400, Note_on_c, 6, 72, 100
11, 38412, Note_on_c, 6, 72, 0
11, 38412, Note_on_c, 6, 74, 100
11, 38424, Note_on_c, 6, 74, 0
11, 38424, Note_on_c, 6, 76, 100
11, 38496, Note_on_c, 6, 76, 0
11, 38496, Note_on_c, 6, 76, 100
11, 38508, Note_on_c, 6, 76, 0
11, 38508, Note_on_c, 6, 77, 100
11, 38520, Note_on_c, 6, 77, 0
11, 38520, Note_on_c, 6, 79, 100
11, 38592, Note_on_c, 6, 79, 0
11, 38688, Note_on_c, 6, 81, 100
11, 38700, Note_on_c, 6, 81, 0
11, 38700, Note_on_c, 6, 83, 100
11, 38712, Note_on_c, 6, 83, 0
11, 38712, Note_on_c, 6, 84, 100
11, 38784, Note_on_c, 6, 84, 0
11, 38784, Note_on_c, 6, 74, 100
11, 38796, Note_on_c, 6, 74, 0
11, 38796, Note_on_c, 6, 76, 100
11, 38808, Note_on_c, 6, 76, 0
11, 38808, Note_on_c, 6, 77, 100
11, 38880, Note_on_c, 6, 77, 0
11, 38976, Note_on_c, 6, 79, 100
11, 38988, Note_on_c, 6, 79, 0
11, 38988, Note_on_c, 6, 81, 100
11, 39000, Note_on_c, 6, 81, 0
11, 39000, Note_on_c, 6, 83, 100
11, 39072, Note_on_c, 6, 83, 0
11, 39072, Note_on_c, 6, 72, 100
11, 39084, Note_on_c, 6, 72, 0
11, 39084, Note_on_c, 6, 74, 100
11, 39096, Note_on_c, 6, 74, 0
11, 39096, Note_on_c, 6, 76, 100
11, 39168, Note_on_c, 6, 76, 0
11, 39264, Note_on_c, 6, 77, 100
11, 39276, Note_on_c, 6, 77, 0
11, 39276, Note_on_c, 6, 79, 100
11, 39288, Note_on_c, 6, 79, 0
11, 39288, Note_on_c, 6, 81, 100
11, 39360, Note_on_c, 6, 81, 0
11, 39444, Note_on_c, 6, 84, 100
11, 39456, Note_on_c, 6, 84, 0
11, 39456, Note_on_c, 6, 83, 100
11, 39504, Note_on_c, 6, 83, 0
11, 39504, Note_on_c, 6, 81, 100
11, 39528, Note_on_c, 6, 81, 0
11, 39528, Note_on_c, 6, 79, 100
11, 39552, Note_on_c, 6, 79, 0
11, 39552, Note_on_c, 6, 84, 100
11, 39600, Note_on_c, 6, 84, 0
11, 39600, Note_on_c, 6, 79, 100
11, 39648, Note_on_c, 6, 79, 0
11, 39648, Note_on_c, 6, 83, 100
11, 39744, Note_on_c, 6, 83, 0
11, 39744, Note_on_c, 6, 77, 100
11, 39840, Note_on_c, 6, 77, 0
11, 39840, Note_on_c, 6, 76, 100
11, 39936, Note_on_c, 6, 76, 0
11, 39936, Note_on_c, 6, 74, 100
11, 40020, Note_on_c, 6, 84, 100
11, 40032, Note_on_c, 6, 84, 0
11, 40032, Note_on_c, 6, 74, 0
11, 40032, Note_on_c, 6, 83, 100
11, 40080, Note_on_c, 6, 83, 0
11, 40080, Note_on_c, 6, 81, 100
11, 40104, Note_on_c, 6, 81, 0
11, 40104, Note_on_c, 6, 79, 100
11, 40128, Note_on_c, 6, 79, 0
11, 40128, Note_on_c, 6, 84, 100
11, 40176, Note_on_c, 6, 84, 0
11, 40176, Note_on_c, 6, 79, 100
11, 40224, Note_on_c, 6, 79, 0
11, 40224, Note_on_c, 6, 83, 100
11, 40320, Note_on_c, 6, 83, 0
11, 40320, Note_on_c, 6, 77, 100
11, 40416, Note_on_c, 6, 77, 0
11, 40416, Note_on_c, 6, 76, 100
11, 40512, Note_on_c, 6, 76, 0
11, 40512, Note_on_c, 6, 74, 100
11, 40596, Note_on_c, 6, 84, 100
11, 40608, Note_on_c, 6, 84, 0
11, 40608, Note_on_c, 6, 74, 0
11, 40608, Note_on_c, 6, 83, 100
11, 40656, Note_on_c, 6, 83, 0
11, 40656, Note_on_c, 6, 81, 100
11, 40680, Note_on_c, 6, 81, 0
11, 40680, Note_on_c, 6, 79, 100
11, 40704, Note_on_c, 6, 79, 0
11, 40704, Note_on_c, 6, 84, 100
11, 40752, Note_on_c, 6, 84, 0
11, 40752, Note_on_c, 6, 79, 100
11, 40788, Note_on_c, 6, 79, 0
11, 40788, Note_on_c, 6, 81, 100
11, 40800, Note_on_c, 6, 81, 0
11, 40800, Note_on_c, 6, 79, 100
11, 40848, Note_on_c, 6, 79, 0
11, 40848, Note_on_c, 6, 78, 100
11, 40872, Note_on_c, 6, 78, 0
11, 40872, Note_on_c, 6, 79, 100
11, 40884, Note_on_c, 6, 79, 0
11, 40884, Note_on_c, 6, 77, 100
11, 40896, Note_on_c, 6, 77, 0
11, 40896, Note_on_c, 6, 76, 100
11, 40944, Note_on_c, 6, 76, 0
11, 40944, Note_on_c, 6, 75, 100
11, 40968, Note_on_c, 6, 75, 0
11, 40968, Note_on_c, 6, 76, 100
11, 40980, Note_on_c, 6, 76, 0
11, 40980, Note_on_c, 6, 74, 100
11, 40992, Note_on_c, 6, 74, 0
11, 40992, Note_on_c, 6, 72, 100
11, 41040, Note_on_c, 6, 72, 0
11, 41040, Note_on_c, 6, 71, 100
11, 41064, Note_on_c, 6, 71, 0
11, 41064, Note_on_c, 6, 72, 100
11, 41088, Note_on_c, 6, 72, 0
11, 41088, Note_on_c, 6, 67, 100
11, 41136, Note_on_c, 6, 67, 0
11, 41136, Note_on_c, 6, 67, 100
11, 41184, Note_on_c, 6, 67, 0
11, 41184, Note_on_c, 6, 67, 100
11, 41208, Note_on_c, 6, 67, 0
11, 41208, Note_on_c, 6, 79, 100
11, 41232, Note_on_c, 6, 79, 0
11, 41232, Note_on_c, 6, 77, 100
11, 41256, Note_on_c, 6, 77, 0
11, 41256, Note_on_c, 6, 79, 100
11, 41280, Note_on_c, 6, 79, 0
11, 41280, Note_on_c, 6, 76, 100
11, 41304, Note_on_c, 6, 76, 0
11, 41304, Note_on_c, 6, 79, 100
11, 41328, Note_on_c, 6, 79, 0
11, 41328, Note_on_c, 6, 74, 100
11, 41352, Note_on_c, 6, 74, 0
11, 41352, Note_on_c, 6, 79, 100
11, 41376, Note_on_c, 6, 79, 0
11, 41376, Note_on_c, 6, 73, 100
11, 41400, Note_on_c, 6, 73, 0
11, 41400, Note_on_c, 6, 81, 100
11, 41424, Note_on_c, 6, 81, 0
11, 41424, Note_on_c, 6, 74, 100
11, 41448, Note_on_c, 6, 74, 0
11, 41448, Note_on_c, 6, 81, 100
11, 41472, Note_on_c, 6, 81, 0
11, 41472, Note_on_c, 6, 73, 100
11, 41496, Note_on_c, 6, 73, 0
11, 41496, Note_on_c, 6, 81, 100
11, 41520, Note_on_c, 6, 81, 0
11, 41520, Note_on_c, 6, 70, 100
11, 41544, Note_on_c, 6, 70, 0
11, 41544, Note_on_c, 6, 81, 100
11, 41568, Note_on_c, 6, 81, 0
11, 41568, Note_on_c, 6, 81, 100
11, 41640, Note_on_c, 6, 81, 0
11, 41640, Note_on_c, 6, 83, 100
11, 41652, Note_on_c, 6, 83, 0
11, 41652, Note_on_c, 6, 85, 100
11, 41664, Note_on_c, 6, 85, 0
11, 41664, Note_on_c, 6, 86, 100
11, 41712, Note_on_c, 6, 86, 0
11, 41712, Note_on_c, 6, 69, 100
11, 41736, Note_on_c, 6, 69, 0
11, 41736, Note_on_c, 6, 81, 100
11, 41760, Note_on_c, 6, 81, 0
11, 41760, Note_on_c, 6, 66, 100
11, 41784, Note_on_c, 6, 66, 0
11, 41784, Note_on_c, 6, 78, 100
11, 41808, Note_on_c, 6, 78, 0
11, 41808, Note_on_c, 6, 63, 100
11, 41832, Note_on_c, 6, 63, 0
11, 41832, Note_on_c, 6, 75, 100
11, 41856, Note_on_c, 6, 75, 0
11, 41856, Note_on_c, 6, 62, 100
11, 41880, Note_on_c, 6, 62, 0
11, 41880, Note_on_c, 6, 74, 100
11, 41904, Note_on_c, 6, 74, 0
11, 41904, Note_on_c, 6, 60, 100
11, 41928, Note_on_c, 6, 60, 0
11, 41928, Note_on_c, 6, 72, 100
11, 41952, Note_on_c, 6, 72, 0
11, 41952, Note_on_c, 6, 71, 100
11, 41976, Note_on_c, 6, 71, 0
11, 41976, Note_on_c, 6, 79, 100
11, 42000, Note_on_c, 6, 79, 0
11, 42000, Note_on_c, 6, 72, 100
11, 42024, Note_on_c, 6, 72, 0
11, 42024, Note_on_c, 6, 79, 100
11, 42048, Note_on_c, 6, 79, 0
11, 42048, Note_on_c, 6, 71, 100
11, 42072, Note_on_c, 6, 71, 0
11, 42072, Note_on_c, 6, 79, 100
11, 42096, Note_on_c, 6, 79, 0
11, 42096, Note_on_c, 6, 69, 100
11, 42120, Note_on_c, 6, 69, 0
11, 42120, Note_on_c, 6, 79, 100
11, 42144, Note_on_c, 6, 79, 0
11, 42144, Note_on_c, 6, 79, 100
11, 42216, Note_on_c, 6, 79, 0
11, 42216, Note_on_c, 6, 81, 100
11, 42228, Note_on_c, 6, 81, 0
11, 42228, Note_on_c, 6, 83, 100
11, 42240, Note_on_c, 6, 83, 0
11, 42240, Note_on_c, 6, 84, 100
11, 42288, Note_on_c, 6, 84, 0
11, 42288, Note_on_c, 6, 67, 100
11, 42312, Note_on_c, 6, 67, 0
11, 42312, Note_on_c, 6, 79, 100
11, 42336, Note_on_c, 6, 79, 0
11, 42336, Note_on_c, 6, 64, 100
11, 42360, Note_on_c, 6, 64, 0
11, 42360, Note_on_c, 6, 76, 100
11, 42384, Note_on_c, 6, 76, 0
11, 42384, Note_on_c, 6, 62, 100
11, 42408, Note_on_c, 6, 62, 0
11, 42408, Note_on_c, 6, 74, 100
11, 42432, Note_on_c, 6, 74, 0
11, 42432, Note_on_c, 6, 60, 100
11, 42456, Note_on_c, 6, 60, 0
11, 42456, Note_on_c, 6, 72, 100
11, 42480, Note_on_c, 6, 72, 0
11, 42480, Note_on_c, 6, 71, 100
11, 42528, Note_on_c, 6, 71, 0
11, 42528, Note_on_c, 6, 69, 100
11, 42552, Note_on_c, 6, 69, 0
11, 42552, Note_on_c, 6, 81, 100
11, 42576, Note_on_c, 6, 81, 0
11, 42576, Note_on_c, 6, 72, 100
11, 42600, Note_on_c, 6, 72, 0
11, 42600, Note_on_c, 6, 81, 100
11, 42624, Note_on_c, 6, 81, 0
11, 42624, Note_on_c, 6, 75, 100
11, 42648, Note_on_c, 6, 75, 0
11, 42648, Note_on_c, 6, 81, 100
11, 42672, Note_on_c, 6, 81, 0
11, 42672, Note_on_c, 6, 72, 100
11, 42696, Note_on_c, 6, 72, 0
11, 42696, Note_on_c, 6, 81, 100
11, 42720, Note_on_c, 6, 81, 0
11, 42720, Note_on_c, 6, 81, 100
11, 42792, Note_on_c, 6, 81, 0
11, 42792, Note_on_c, 6, 83, 100
11, 42804, Note_on_c, 6, 83, 0
11, 42804, Note_on_c, 6, 84, 100
11, 42816, Note_on_c, 6, 84, 0
11, 42816, Note_on_c, 6, 86, 100
11, 42864, Note_on_c, 6, 86, 0
11, 42912, Note_on_c, 6, 79, 100
11, 42984, Note_on_c, 6, 79, 0
11, 42984, Note_on_c, 6, 81, 100
11, 42996, Note_on_c, 6, 81, 0
11, 42996, Note_on_c, 6, 83, 100
11, 43008, Note_on_c, 6, 83, 0
11, 43008, Note_on_c, 6, 84, 100
11, 43056, Note_on_c, 6, 84, 0
11, 43056, Note_on_c, 6, 79, 100
11, 43104, Note_on_c, 6, 79, 0
11, 43104, Note_on_c, 6, 81, 100
11, 43128, Note_on_c, 6, 81, 0
11, 43152, Note_on_c, 6, 77, 100
11, 43176, Note_on_c, 6, 77, 0
11, 43200, Note_on_c, 6, 76, 100
11, 43224, Note_on_c, 6, 76, 0
11, 43248, Note_on_c, 6, 79, 100
11, 43272, Note_on_c, 6, 79, 0
11, 43296, Note_on_c, 6, 77, 100
11, 43320, Note_on_c, 6, 77, 0
11, 43344, Note_on_c, 6, 74, 100
11, 43368, Note_on_c, 6, 74, 0
11, 43392, Note_on_c, 6, 72, 100
11, 43440, Note_on_c, 6, 72, 0
11, 43440, Note_on_c, 6, 64, 100
11, 43464, Note_on_c, 6, 64, 0
11, 43464, Note_on_c, 6, 76, 100
11, 43488, Note_on_c, 6, 76, 0
11, 43488, Note_on_c, 6, 67, 100
11, 43512, Note_on_c, 6, 67, 0
11, 43512, Note_on_c, 6, 79, 100
11, 43536, Note_on_c, 6, 79, 0
11, 43536, Note_on_c, 6, 65, 100
11, 43560, Note_on_c, 6, 65, 0
11, 43560, Note_on_c, 6, 77, 100
11, 43584, Note_on_c, 6, 77, 0
11, 43584, Note_on_c, 6, 64, 100
11, 43608, Note_on_c, 6, 64, 0
11, 43608, Note_on_c, 6, 76, 100
11, 43632, Note_on_c, 6, 76, 0
11, 43632, Note_on_c, 6, 62, 100
11, 43656, Note_on_c, 6, 62, 0
11, 43656, Note_on_c, 6, 74, 100
11, 43680, Note_on_c, 6, 74, 0
11, 43680, Note_on_c, 6, 73, 100
11, 43704, Note_on_c, 6, 73, 0
11, 43704, Note_on_c, 6, 81, 100
11, 43728, Note_on_c, 6, 81, 0
11, 43728, Note_on_c, 6, 74, 100
11, 43752, Note_on_c, 6, 74, 0
11, 43752, Note_on_c, 6, 81, 100
11, 43776, Note_on_c, 6, 81, 0
11, 43776, Note_on_c, 6, 73, 100
11, 43800, Note_on_c, 6, 73, 0
11, 43800, Note_on_c, 6, 81, 100
11, 43824, Note_on_c, 6, 81, 0
11, 43824, Note_on_c, 6, 70, 100
11, 43848, Note_on_c, 6, 70, 0
11, 43848, Note_on_c, 6, 81, 100
11, 43872, Note_on_c, 6, 81, 0
11, 43872, Note_on_c, 6, 81, 100
11, 43944, Note_on_c, 6, 81, 0
11, 43944, Note_on_c, 6, 83, 100
11, 43956, Note_on_c, 6, 83, 0
11, 43956, Note_on_c, 6, 85, 100
11, 43968, Note_on_c, 6, 85, 0
11, 43968, Note_on_c, 6, 86, 100
11, 44016, Note_on_c, 6, 86, 0
11, 44016, Note_on_c, 6, 69, 100
11, 44040, Note_on_c, 6, 69, 0
11, 44040, Note_on_c, 6, 81, 100
11, 44064, Note_on_c, 6, 81, 0
11, 44064, Note_on_c, 6, 66, 100
11, 44088, Note_on_c, 6, 66, 0
11, 44088, Note_on_c, 6, 78, 100
11, 44112, Note_on_c, 6, 78, 0
11, 44112, Note_on_c, 6, 63, 100
11, 44136, Note_on_c, 6, 63, 0
11, 44136, Note_on_c, 6, 75, 100
11, 44160, Note_on_c, 6, 75, 0
11, 44160, Note_on_c, 6, 62, 100
11, 44184, Note_on_c, 6, 62, 0
11, 44184, Note_on_c, 6, 74, 100
11, 44208, Note_on_c, 6, 74, 0
11, 44208, Note_on_c, 6, 60, 100
11, 44232, Note_on_c, 6, 60, 0
11, 44232, Note_on_c, 6, 72, 100
11, 44256, Note_on_c, 6, 72, 0
11, 44256, Note_on_c, 6, 71, 100
11, 44280, Note_on_c, 6, 71, 0
11, 44280, Note_on_c, 6, 79, 100
11, 44304, Note_on_c, 6, 79, 0
11, 44304, Note_on_c, 6, 72, 100
11, 44328, Note_on_c, 6, 72, 0
11, 44328, Note_on_c, 6, 79, 100
11, 44352, Note_on_c, 6, 79, 0
11, 44352, Note_on_c, 6, 71, 100
11, 44376, Note_on_c, 6, 71, 0
11, 44376, Note_on_c, 6, 79, 100
11, 44400, Note_on_c, 6, 79, 0
11, 44400, Note_on_c, 6, 69, 100
11, 44424, Note_on_c, 6, 69, 0
11, 44424, Note_on_c, 6, 79, 100
11, 44448, Note_on_c, 6, 79, 0
11, 44448, Note_on_c, 6, 79, 100
11, 44520, Note_on_c, 6, 79, 0
11, 44520, Note_on_c, 6, 81, 100
11, 44532, Note_on_c, 6, 81, 0
11, 44532, Note_on_c, 6, 83, 100
11, 44544, Note_on_c, 6, 83, 0
11, 44544, Note_on_c, 6, 84, 100
11, 44592, Note_on_c, 6, 84, 0
11, 44592, Note_on_c, 6, 67, 100
11, 44616, Note_on_c, 6, 67, 0
11, 44616, Note_on_c, 6, 79, 100
11, 44640, Note_on_c, 6, 79, 0
11, 44640, Note_on_c, 6, 64, 100
11, 44664, Note_on_c, 6, 64, 0
11, 44664, Note_on_c, 6, 76, 100
11, 44688, Note_on_c, 6, 76, 0
11, 44688, Note_on_c, 6, 62, 100
11, 44712, Note_on_c, 6, 62, 0
11, 44712, Note_on_c, 6, 74, 100
11, 44736, Note_on_c, 6, 74, 0
11, 44736, Note_on_c, 6, 60, 100
11, 44760, Note_on_c, 6, 60, 0
11, 44760, Note_on_c, 6, 72, 100
11, 44784, Note_on_c, 6, 72, 0
11, 44784, Note_on_c, 6, 59, 100
11, 44808, Note_on_c, 6, 59, 0
11, 44808, Note_on_c, 6, 71, 100
11, 44832, Note_on_c, 6, 71, 0
11, 44832, Note_on_c, 6, 69, 100
11, 44880, Note_on_c, 6, 69, 0
11, 44880, Note_on_c, 6, 72, 100
11, 44904, Note_on_c, 6, 72, 0
11, 44904, Note_on_c, 6, 81, 100
11, 44928, Note_on_c, 6, 81, 0
11, 44928, Note_on_c, 6, 75, 100
11, 44952, Note_on_c, 6, 75, 0
11, 44952, Note_on_c, 6, 81, 100
11, 44976, Note_on_c, 6, 81, 0
11, 44976, Note_on_c, 6, 72, 100
11, 45000, Note_on_c, 6, 72, 0
11, 45000, Note_on_c, 6, 81, 100
11, 45024, Note_on_c, 6, 81, 0
11, 45024, Note_on_c, 6, 81, 100
11, 45096, Note_on_c, 6, 81, 0
11, 45096, Note_on_c, 6, 83, 100
11, 45108, Note_on_c, 6, 83, 0
11, 45108, Note_on_c, 6, 84, 100
11, 45120, Note_on_c, 6, 84, 0
11, 45120, Note_on_c, 6, 86, 100
11, 45216, Note_on_c, 6, 86, 0
11, 45216, Note_on_c, 6, 79, 100
11, 45288, Note_on_c, 6, 79, 0
11, 45288, Note_on_c, 6, 81, 100
11, 45300, Note_on_c, 6, 81, 0
11, 45300, Note_on_c, 6, 83, 100
11, 45312, Note_on_c, 6, 83, 0
11, 45312, Note_on_c, 6, 84, 100
11, 45360, Note_on_c, 6, 84, 0
11, 45360, Note_on_c, 6, 76, 100
11, 45384, Note_on_c, 6, 76, 0
11, 45384, Note_on_c, 6, 79, 100
11, 45408, Note_on_c, 6, 79, 0
11, 45408, Note_on_c, 6, 74, 100
11, 45432, Note_on_c, 6, 74, 0
11, 45432, Note_on_c, 6, 77, 100
11, 45456, Note_on_c, 6, 77, 0
11, 45456, Note_on_c, 6, 74, 100
11, 45480, Note_on_c, 6, 74, 0
11, 45480, Note_on_c, 6, 77, 100
11, 45504, Note_on_c, 6, 77, 0
11, 45504, Note_on_c, 6, 72, 100
11, 45528, Note_on_c, 6, 72, 0
11, 45528, Note_on_c, 6, 76, 100
11, 45552, Note_on_c, 6, 76, 0
11, 45552, Note_on_c, 6, 72, 100
11, 45576, Note_on_c, 6, 72, 0
11, 45576, Note_on_c, 6, 76, 100
11, 45600, Note_on_c, 6, 76, 0
11, 45600, Note_on_c, 6, 71, 100
11, 45624, Note_on_c, 6, 71, 0
11, 45624, Note_on_c, 6, 74, 100
11, 45648, Note_on_c, 6, 74, 0
11, 45648, Note_on_c, 6, 71, 100
11, 45672, Note_on_c, 6, 71, 0
11, 45672, Note_on_c, 6, 74, 100
11, 45696, Note_on_c, 6, 74, 0
11, 45696, Note_on_c, 6, 72, 100
11, 45744, Note_on_c, 6, 72, 0
11, 45744, Note_on_c, 6, 55, 100
11, 45768, Note_on_c, 6, 55, 0
11, 45792, Note_on_c, 6, 55, 100
11, 45816, Note_on_c, 6, 55, 0
11, 45840, Note_on_c, 6, 55, 100
11, 45864, Note_on_c, 6, 55, 0
11, 45888, Note_on_c, 6, 55, 100
11, 45960, Note_on_c, 6, 55, 0
11, 45960, Note_on_c, 6, 57, 100
11, 45972, Note_on_c, 6, 57, 0
11, 45972, Note_on_c, 6, 59, 100
11, 45984, Note_on_c, 6, 59, 0
11, 45984, Note_on_c, 6, 60, 100
11, 46032, Note_on_c, 6, 60, 0
11, 46032, Note_on_c, 6, 55, 100
11, 46056, Note_on_c, 6, 55, 0
11, 46080, Note_on_c, 6, 55, 100
11, 46104, Note_on_c, 6, 55, 0
11, 46128, Note_on_c, 6, 55, 100
11, 46152, Note_on_c, 6, 55, 0
11, 46176, Note_on_c, 6, 55, 100
11, 46248, Note_on_c, 6, 55, 0
11, 46248, Note_on_c, 6, 57, 100
11, 46260, Note_on_c, 6, 57, 0
11, 46260, Note_on_c, 6, 59, 100
11, 46272, Note_on_c, 6, 59, 0
11, 46272, Note_on_c, 6, 60, 100
11, 46320, Note_on_c, 6, 60, 0
11, 46320, Note_on_c, 6, 64, 100
11, 46368, Note_on_c, 6, 64, 0
11, 46368, Note_on_c, 6, 67, 100
11, 46416, Note_on_c, 6, 67, 0
11, 46416, Note_on_c, 6, 66, 100
11, 46464, Note_on_c, 6, 66, 0
11, 46464, Note_on_c, 6, 67, 100
11, 46512, Note_on_c, 6, 67, 0
11, 46512, Note_on_c, 6, 55, 100
11, 46560, Note_on_c, 6, 55, 0
11, 46560, Note_on_c, 6, 60, 100
11, 46608, Note_on_c, 6, 60, 0
11, 46608, Note_on_c, 6, 79, 100
11, 46632, Note_on_c, 6, 79, 0
11, 46656, Note_on_c, 6, 79, 100
11, 46680, Note_on_c, 6, 79, 0
11, 46704, Note_on_c, 6, 79, 100
11, 46728, Note_on_c, 6, 79, 0
11, 46752, Note_on_c, 6, 79, 100
11, 46824, Note_on_c, 6, 79, 0
11, 46824, Note_on_c, 6, 81, 100
11, 46836, Note_on_c, 6, 81, 0
11, 46836, Note_on_c, 6, 83, 100
11, 46848, Note_on_c, 6, 83, 0
11, 46848, Note_on_c, 6, 84, 100
11, 46896, Note_on_c, 6, 84, 0
11, 46896, Note_on_c, 6, 79, 100
11, 46920, Note_on_c, 6, 79, 0
11, 46944, Note_on_c, 6, 79, 100
11, 46968, Note_on_c, 6, 79, 0
11, 46992, Note_on_c, 6, 79, 100
11, 47016, Note_on_c, 6, 79, 0
11, 47040, Note_on_c, 6, 79, 100
11, 47112, Note_on_c, 6, 79, 0
11, 47112, Note_on_c, 6, 81, 100
11, 47124, Note_on_c, 6, 81, 0
11, 47124, Note_on_c, 6, 83, 100
11, 47136, Note_on_c, 6, 83, 0
11, 47136, Note_on_c, 6, 84, 100
11, 47232, Note_on_c, 6, 84, 0
11, 47328, Note_on_c, 6, 83, 100
11, 47424, Note_on_c, 6, 83, 0
11, 47424, Note_on_c, 6, 84, 100
11, 47520, Note_on_c, 6, 84, 0
11, 47520, End_track
12, 0, Start_track
12, 0, Title_t, "Violin 2"
12, 0, Key_signature, 0, "major"
12, 0, Time_signature, 3, 2, 24, 8
12, 0, Time_signature, 3, 2, 24, 8
12, 0, Control_c, 6, 7, 80
12, 0, Program_c, 6, 48
12, 0, Note_on_c, 6, 72, 100
12, 96, Note_on_c, 6, 72, 0
12, 96, Note_on_c, 6, 60, 100
12, 144, Note_on_c, 6, 60, 0
12, 144, Note_on_c, 6, 72, 100
12, 168, Note_on_c, 6, 72, 0
12, 168, Note_on_c, 6, 74, 100
12, 192, Note_on_c, 6, 74, 0
12, 192, Note_on_c, 6, 72, 100
12, 240, Note_on_c, 6, 72, 0
12, 240, Note_on_c, 6, 71, 100
12, 264, Note_on_c, 6, 71, 0
12, 264, Note_on_c, 6, 72, 100
12, 288, Note_on_c, 6, 72, 0
12, 288, Note_on_c, 6, 71, 100
12, 384, Note_on_c, 6, 71, 0
12, 408, Note_on_c, 6, 69, 100
12, 432, Note_on_c, 6, 69, 0
12, 432, Note_on_c, 6, 67, 100
12, 456, Note_on_c, 6, 67, 0
12, 456, Note_on_c, 6, 66, 100
12, 480, Note_on_c, 6, 66, 0
12, 480, Note_on_c, 6, 67, 100
12, 504, Note_on_c, 6, 67, 0
12, 528, Note_on_c, 6, 69, 100
12, 552, Note_on_c, 6, 69, 0
12, 576, Note_on_c, 6, 71, 100
12, 600, Note_on_c, 6, 71, 0
12, 624, Note_on_c, 6, 69, 100
12, 648, Note_on_c, 6, 69, 0
12, 672, Note_on_c, 6, 67, 100
12, 696, Note_on_c, 6, 67, 0
12, 720, Note_on_c, 6, 69, 100
12, 744, Note_on_c, 6, 69, 0
12, 768, Note_on_c, 6, 71, 100
12, 792, Note_on_c, 6, 71, 0
12, 816, Note_on_c, 6, 72, 100
12, 840, Note_on_c, 6, 72, 0
12, 864, Note_on_c, 6, 74, 100
12, 888, Note_on_c, 6, 74, 0
12, 912, Note_on_c, 6, 72, 100
12, 936, Note_on_c, 6, 72, 0
12, 960, Note_on_c, 6, 71, 100
12, 984, Note_on_c, 6, 71, 0
12, 1008, Note_on_c, 6, 72, 100
12, 1032, Note_on_c, 6, 72, 0
12, 1056, Note_on_c, 6, 74, 100
12, 1080, Note_on_c, 6, 74, 0
12, 1104, Note_on_c, 6, 76, 100
12, 1128, Note_on_c, 6, 76, 0
12, 1152, Note_on_c, 6, 77, 100
12, 1248, Note_on_c, 6, 77, 0
12, 1248, Note_on_c, 6, 67, 100
12, 1296, Note_on_c, 6, 67, 0
12, 1296, Note_on_c, 6, 77, 100
12, 1320, Note_on_c, 6, 77, 0
12, 1320, Note_on_c, 6, 79, 100
12, 1344, Note_on_c, 6, 79, 0
12, 1344, Note_on_c, 6, 77, 100
12, 1392, Note_on_c, 6, 77, 0
12, 1392, Note_on_c, 6, 76, 100
12, 1416, Note_on_c, 6, 76, 0
12, 1416, Note_on_c, 6, 77, 100
12, 1440, Note_on_c, 6, 77, 0
12, 1440, Note_on_c, 6, 76, 100
12, 1536, Note_on_c, 6, 76, 0
12, 1560, Note_on_c, 6, 74, 100
12, 1584, Note_on_c, 6, 74, 0
12, 1584, Note_on_c, 6, 72, 100
12, 1608, Note_on_c, 6, 72, 0
12, 1608, Note_on_c, 6, 71, 100
12, 1632, Note_on_c, 6, 71, 0
12, 1632, Note_on_c, 6, 72, 100
12, 1656, Note_on_c, 6, 72, 0
12, 1680, Note_on_c, 6, 74, 100
12, 1704, Note_on_c, 6, 74, 0
12, 1728, Note_on_c, 6, 76, 100
12, 1752, Note_on_c, 6, 76, 0
12, 1776, Note_on_c, 6, 74, 100
12, 1800, Note_on_c, 6, 74, 0
12, 1824, Note_on_c, 6, 72, 100
12, 1848, Note_on_c, 6, 72, 0
12, 1872, Note_on_c, 6, 74, 100
12, 1896, Note_on_c, 6, 74, 0
12, 1920, Note_on_c, 6, 76, 100
12, 1944, Note_on_c, 6, 76, 0
12, 1968, Note_on_c, 6, 77, 100
12, 1992, Note_on_c, 6, 77, 0
12, 2016, Note_on_c, 6, 79, 100
12, 2040, Note_on_c, 6, 79, 0
12, 2064, Note_on_c, 6, 77, 100
12, 2088, Note_on_c, 6, 77, 0
12, 2112, Note_on_c, 6, 76, 100
12, 2136, Note_on_c, 6, 76, 0
12, 2160, Note_on_c, 6, 77, 100
12, 2184, Note_on_c, 6, 77, 0
12, 2208, Note_on_c, 6, 79, 100
12, 2232, Note_on_c, 6, 79, 0
12, 2256, Note_on_c, 6, 80, 100
12, 2280, Note_on_c, 6, 80, 0
12, 2304, Note_on_c, 6, 81, 100
12, 2400, Note_on_c, 6, 81, 0
12, 2400, Note_on_c, 6, 77, 100
12, 2496, Note_on_c, 6, 77, 0
12, 2496, Note_on_c, 6, 77, 100
12, 2592, Note_on_c, 6, 77, 0
12, 2592, Note_on_c, 6, 77, 100
12, 2688, Note_on_c, 6, 77, 0
12, 2688, Note_on_c, 6, 76, 100
12, 2784, Note_on_c, 6, 76, 0
12, 2784, Note_on_c, 6, 72, 100
12, 2796, Note_on_c, 6, 72, 0
12, 2796, Note_on_c, 6, 74, 100
12, 2808, Note_on_c, 6, 74, 0
12, 2808, Note_on_c, 6, 76, 100
12, 2880, Note_on_c, 6, 76, 0
12, 2880, Note_on_c, 6, 76, 100
12, 2892, Note_on_c, 6, 76, 0
12, 2892, Note_on_c, 6, 77, 100
12, 2904, Note_on_c, 6, 77, 0
12, 2904, Note_on_c, 6, 79, 100
12, 2976, Note_on_c, 6, 79, 0
12, 3048, Note_on_c, 6, 77, 100
12, 3072, Note_on_c, 6, 77, 0
12, 3072, Note_on_c, 6, 76, 100
12, 3120, Note_on_c, 6, 76, 0
12, 3120, Note_on_c, 6, 74, 100
12, 3144, Note_on_c, 6, 74, 0
12, 3144, Note_on_c, 6, 72, 100
12, 3168, Note_on_c, 6, 72, 0
12, 3168, Note_on_c, 6, 72, 100
12, 3264, Note_on_c, 6, 72, 0
12, 3264, Note_on_c, 6, 71, 100
12, 3360, Note_on_c, 6, 71, 0
12, 3360, Note_on_c, 6, 71, 100
12, 3372, Note_on_c, 6, 71, 0
12, 3372, Note_on_c, 6, 72, 100
12, 3384, Note_on_c, 6, 72, 0
12, 3384, Note_on_c, 6, 74, 100
12, 3456, Note_on_c, 6, 74, 0
12, 3456, Note_on_c, 6, 74, 100
12, 3468, Note_on_c, 6, 74, 0
12, 3468, Note_on_c, 6, 76, 100
12, 3480, Note_on_c, 6, 76, 0
12, 3480, Note_on_c, 6, 77, 100
12, 3552, Note_on_c, 6, 77, 0
12, 3624, Note_on_c, 6, 79, 100
12, 3648, Note_on_c, 6, 79, 0
12, 3648, Note_on_c, 6, 77, 100
12, 3696, Note_on_c, 6, 77, 0
12, 3696, Note_on_c, 6, 76, 100
12, 3720, Note_on_c, 6, 76, 0
12, 3720, Note_on_c, 6, 74, 100
12, 3744, Note_on_c, 6, 74, 0
12, 3744, Note_on_c, 6, 74, 100
12, 3840, Note_on_c, 6, 74, 0
12, 3840, Note_on_c, 6, 72, 100
12, 3936, Note_on_c, 6, 72, 0
12, 3936, Note_on_c, 6, 72, 100
12, 3948, Note_on_c, 6, 72, 0
12, 3948, Note_on_c, 6, 74, 100
12, 3960, Note_on_c, 6, 74, 0
12, 3960, Note_on_c, 6, 76, 100
12, 4032, Note_on_c, 6, 76, 0
12, 4032, Note_on_c, 6, 76, 100
12, 4044, Note_on_c, 6, 76, 0
12, 4044, Note_on_c, 6, 77, 100
12, 4056, Note_on_c, 6, 77, 0
12, 4056, Note_on_c, 6, 79, 100
12, 4128, Note_on_c, 6, 79, 0
12, 4224, Note_on_c, 6, 81, 100
12, 4236, Note_on_c, 6, 81, 0
12, 4236, Note_on_c, 6, 83, 100
12, 4248, Note_on_c, 6, 83, 0
12, 4248, Note_on_c, 6, 84, 100
12, 4320, Note_on_c, 6, 84, 0
12, 4320, Note_on_c, 6, 74, 100
12, 4332, Note_on_c, 6, 74, 0
12, 4332, Note_on_c, 6, 76, 100
12, 4344, Note_on_c, 6, 76, 0
12, 4344, Note_on_c, 6, 77, 100
12, 4416, Note_on_c, 6, 77, 0
12, 4512, Note_on_c, 6, 79, 100
12, 4524, Note_on_c, 6, 79, 0
12, 4524, Note_on_c, 6, 81, 100
12, 4536, Note_on_c, 6, 81, 0
12, 4536, Note_on_c, 6, 83, 100
12, 4608, Note_on_c, 6, 83, 0
12, 4608, Note_on_c, 6, 72, 100
12, 4620, Note_on_c, 6, 72, 0
12, 4620, Note_on_c, 6, 74, 100
12, 4632, Note_on_c, 6, 74, 0
12, 4632, Note_on_c, 6, 76, 100
12, 4704, Note_on_c, 6, 76, 0
12, 4800, Note_on_c, 6, 77, 100
12, 4812, Note_on_c, 6, 77, 0
12, 4812, Note_on_c, 6, 79, 100
12, 4824, Note_on_c, 6, 79, 0
12, 4824, Note_on_c, 6, 81, 100
12, 4896, Note_on_c, 6, 81, 0
12, 4896, Note_on_c, 6, 67, 100
12, 4992, Note_on_c, 6, 67, 0
12, 4992, Note_on_c, 6, 79, 100
12, 5088, Note_on_c, 6, 79, 0
12, 5088, Note_on_c, 6, 79, 100
12, 5184, Note_on_c, 6, 79, 0
12, 5184, Note_on_c, 6, 79, 100
12, 5280, Note_on_c, 6, 79, 0
12, 5280, Note_on_c, 6, 74, 100
12, 5376, Note_on_c, 6, 74, 0
12, 5376, Note_on_c, 6, 72, 100
12, 5472, Note_on_c, 6, 72, 0
12, 5472, Note_on_c, 6, 71, 100
12, 5568, Note_on_c, 6, 71, 0
12, 5568, Note_on_c, 6, 79, 100
12, 5664, Note_on_c, 6, 79, 0
12, 5664, Note_on_c, 6, 79, 100
12, 5760, Note_on_c, 6, 79, 0
12, 5760, Note_on_c, 6, 79, 100
12, 5856, Note_on_c, 6, 79, 0
12, 5856, Note_on_c, 6, 74, 100
12, 5952, Note_on_c, 6, 74, 0
12, 5952, Note_on_c, 6, 72, 100
12, 6048, Note_on_c, 6, 72, 0
12, 6048, Note_on_c, 6, 71, 100
12, 6144, Note_on_c, 6, 71, 0
12, 8448, Note_on_c, 6, 77, 100
12, 8520, Note_on_c, 6, 77, 0
12, 8520, Note_on_c, 6, 77, 100
12, 8544, Note_on_c, 6, 77, 0
12, 8544, Note_on_c, 6, 74, 100
12, 8616, Note_on_c, 6, 74, 0
12, 8616, Note_on_c, 6, 74, 100
12, 8640, Note_on_c, 6, 74, 0
12, 8640, Note_on_c, 6, 71, 100
12, 8712, Note_on_c, 6, 71, 0
12, 8712, Note_on_c, 6, 71, 100
12, 8736, Note_on_c, 6, 71, 0
12, 8736, Note_on_c, 6, 74, 100
12, 8808, Note_on_c, 6, 74, 0
12, 8808, Note_on_c, 6, 74, 100
12, 8832, Note_on_c, 6, 74, 0
12, 8832, Note_on_c, 6, 68, 100
12, 8904, Note_on_c, 6, 68, 0
12, 8904, Note_on_c, 6, 68, 100
12, 8928, Note_on_c, 6, 68, 0
12, 8928, Note_on_c, 6, 67, 100
12, 8952, Note_on_c, 6, 67, 0
12, 8952, Note_on_c, 6, 79, 100
12, 8976, Note_on_c, 6, 79, 0
12, 8976, Note_on_c, 6, 67, 100
12, 9000, Note_on_c, 6, 67, 0
12, 9000, Note_on_c, 6, 79, 100
12, 9024, Note_on_c, 6, 79, 0
12, 9024, Note_on_c, 6, 77, 100
12, 9048, Note_on_c, 6, 77, 0
12, 9048, Note_on_c, 6, 79, 100
12, 9072, Note_on_c, 6, 79, 0
12, 9072, Note_on_c, 6, 76, 100
12, 9096, Note_on_c, 6, 76, 0
12, 9096, Note_on_c, 6, 79, 100
12, 9120, Note_on_c, 6, 79, 0
12, 9120, Note_on_c, 6, 74, 100
12, 9144, Note_on_c, 6, 74, 0
12, 9144, Note_on_c, 6, 79, 100
12, 9168, Note_on_c, 6, 79, 0
12, 9168, Note_on_c, 6, 72, 100
12, 9192, Note_on_c, 6, 72, 0
12, 9192, Note_on_c, 6, 79, 100
12, 9216, Note_on_c, 6, 79, 0
12, 9216, Note_on_c, 6, 71, 100
12, 9240, Note_on_c, 6, 71, 0
12, 9240, Note_on_c, 6, 79, 100
12, 9264, Note_on_c, 6, 79, 0
12, 9264, Note_on_c, 6, 72, 100
12, 9288, Note_on_c, 6, 72, 0
12, 9288, Note_on_c, 6, 79, 100
12, 9312, Note_on_c, 6, 79, 0
12, 9312, Note_on_c, 6, 71, 100
12, 9336, Note_on_c, 6, 71, 0
12, 9336, Note_on_c, 6, 79, 100
12, 9360, Note_on_c, 6, 79, 0
12, 9360, Note_on_c, 6, 69, 100
12, 9384, Note_on_c, 6, 69, 0
12, 9384, Note_on_c, 6, 79, 100
12, 9408, Note_on_c, 6, 79, 0
12, 9408, Note_on_c, 6, 79, 100
12, 9480, Note_on_c, 6, 79, 0
12, 9480, Note_on_c, 6, 81, 100
12, 9492, Note_on_c, 6, 81, 0
12, 9492, Note_on_c, 6, 83, 100
12, 9504, Note_on_c, 6, 83, 0
12, 9504, Note_on_c, 6, 84, 100
12, 9552, Note_on_c, 6, 84, 0
12, 9552, Note_on_c, 6, 67, 100
12, 9576, Note_on_c, 6, 67, 0
12, 9576, Note_on_c, 6, 79, 100
12, 9600, Note_on_c, 6, 79, 0
12, 9600, Note_on_c, 6, 77, 100
12, 9624, Note_on_c, 6, 77, 0
12, 9624, Note_on_c, 6, 79, 100
12, 9648, Note_on_c, 6, 79, 0
12, 9648, Note_on_c, 6, 76, 100
12, 9672, Note_on_c, 6, 76, 0
12, 9672, Note_on_c, 6, 79, 100
12, 9696, Note_on_c, 6, 79, 0
12, 9696, Note_on_c, 6, 74, 100
12, 9720, Note_on_c, 6, 74, 0
12, 9720, Note_on_c, 6, 79, 100
12, 9744, Note_on_c, 6, 79, 0
12, 9744, Note_on_c, 6, 72, 100
12, 9768, Note_on_c, 6, 72, 0
12, 9768, Note_on_c, 6, 79, 100
12, 9792, Note_on_c, 6, 79, 0
12, 9792, Note_on_c, 6, 71, 100
12, 9816, Note_on_c, 6, 71, 0
12, 9816, Note_on_c, 6, 79, 100
12, 9840, Note_on_c, 6, 79, 0
12, 9840, Note_on_c, 6, 72, 100
12, 9864, Note_on_c, 6, 72, 0
12, 9864, Note_on_c, 6, 79, 100
12, 9888, Note_on_c, 6, 79, 0
12, 9888, Note_on_c, 6, 71, 100
12, 9912, Note_on_c, 6, 71, 0
12, 9912, Note_on_c, 6, 79, 100
12, 9936, Note_on_c, 6, 79, 0
12, 9936, Note_on_c, 6, 69, 100
12, 9960, Note_on_c, 6, 69, 0
12, 9960, Note_on_c, 6, 79, 100
12, 9984, Note_on_c, 6, 79, 0
12, 9984, Note_on_c, 6, 79, 100
12, 10056, Note_on_c, 6, 79, 0
12, 10056, Note_on_c, 6, 81, 100
12, 10068, Note_on_c, 6, 81, 0
12, 10068, Note_on_c, 6, 83, 100
12, 10080, Note_on_c, 6, 83, 0
12, 10080, Note_on_c, 6, 84, 100
12, 10128, Note_on_c, 6, 84, 0
12, 10128, Note_on_c, 6, 76, 100
12, 10224, Note_on_c, 6, 76, 0
12, 10224, Note_on_c, 6, 76, 100
12, 10320, Note_on_c, 6, 76, 0
12, 10320, Note_on_c, 6, 76, 100
12, 10368, Note_on_c, 6, 76, 0
12, 10368, Note_on_c, 6, 75, 100
12, 10416, Note_on_c, 6, 75, 0
12, 10416, Note_on_c, 6, 75, 100
12, 10512, Note_on_c, 6, 75, 0
12, 10512, Note_on_c, 6, 75, 100
12, 10608, Note_on_c, 6, 75, 0
12, 10608, Note_on_c, 6, 75, 100
12, 10656, Note_on_c, 6, 75, 0
12, 10656, Note_on_c, 6, 76, 100
12, 10704, Note_on_c, 6, 76, 0
12, 10704, Note_on_c, 6, 71, 100
12, 10728, Note_on_c, 6, 71, 0
12, 10728, Note_on_c, 6, 76, 100
12, 10752, Note_on_c, 6, 76, 0
12, 10752, Note_on_c, 6, 79, 100
12, 10800, Note_on_c, 6, 79, 0
12, 10800, Note_on_c, 6, 76, 100
12, 10824, Note_on_c, 6, 76, 0
12, 10824, Note_on_c, 6, 79, 100
12, 10848, Note_on_c, 6, 79, 0
12, 10848, Note_on_c, 6, 83, 100
12, 10896, Note_on_c, 6, 83, 0
12, 10896, Note_on_c, 6, 83, 100
12, 10944, Note_on_c, 6, 83, 0
12, 10944, Note_on_c, 6, 73, 100
12, 10992, Note_on_c, 6, 73, 0
12, 10992, Note_on_c, 6, 73, 100
12, 11088, Note_on_c, 6, 73, 0
12, 11088, Note_on_c, 6, 73, 100
12, 11184, Note_on_c, 6, 73, 0
12, 11184, Note_on_c, 6, 73, 100
12, 11232, Note_on_c, 6, 73, 0
12, 11232, Note_on_c, 6, 74, 100
12, 11280, Note_on_c, 6, 74, 0
12, 11280, Note_on_c, 6, 69, 100
12, 11304, Note_on_c, 6, 69, 0
12, 11304, Note_on_c, 6, 74, 100
12, 11328, Note_on_c, 6, 74, 0
12, 11328, Note_on_c, 6, 77, 100
12, 11376, Note_on_c, 6, 77, 0
12, 11376, Note_on_c, 6, 74, 100
12, 11400, Note_on_c, 6, 74, 0
12, 11400, Note_on_c, 6, 77, 100
12, 11424, Note_on_c, 6, 77, 0
12, 11424, Note_on_c, 6, 81, 100
12, 11472, Note_on_c, 6, 81, 0
12, 11472, Note_on_c, 6, 81, 100
12, 11520, Note_on_c, 6, 81, 0
12, 11520, Note_on_c, 6, 71, 100
12, 11568, Note_on_c, 6, 71, 0
12, 11568, Note_on_c, 6, 71, 100
12, 11664, Note_on_c, 6, 71, 100
12, 11712, Note_on_c, 6, 71, 0
12, 11760, Note_on_c, 6, 71, 100
12, 11808, Note_on_c, 6, 71, 0
12, 11808, Note_on_c, 6, 71, 0
12, 11808, Note_on_c, 6, 72, 100
12, 11856, Note_on_c, 6, 72, 0
12, 11856, Note_on_c, 6, 67, 100
12, 11880, Note_on_c, 6, 67, 0
12, 11880, Note_on_c, 6, 72, 100
12, 11904, Note_on_c, 6, 72, 0
12, 11904, Note_on_c, 6, 75, 100
12, 11952, Note_on_c, 6, 75, 0
12, 11952, Note_on_c, 6, 72, 100
12, 11976, Note_on_c, 6, 72, 0
12, 11976, Note_on_c, 6, 75, 100
12, 12000, Note_on_c, 6, 75, 0
12, 12000, Note_on_c, 6, 79, 100
12, 12048, Note_on_c, 6, 79, 0
12, 12048, Note_on_c, 6, 79, 100
12, 12096, Note_on_c, 6, 79, 0
12, 12096, Note_on_c, 6, 78, 100
12, 12144, Note_on_c, 6, 78, 0
12, 12144, Note_on_c, 6, 78, 100
12, 12240, Note_on_c, 6, 78, 100
12, 12288, Note_on_c, 6, 78, 0
12, 12336, Note_on_c, 6, 78, 100
12, 12384, Note_on_c, 6, 78, 0
12, 12384, Note_on_c, 6, 78, 0
12, 12384, Note_on_c, 6, 76, 100
12, 12432, Note_on_c, 6, 76, 0
12, 12432, Note_on_c, 6, 76, 100
12, 12528, Note_on_c, 6, 76, 100
12, 12576, Note_on_c, 6, 76, 0
12, 12624, Note_on_c, 6, 76, 100
12, 12672, Note_on_c, 6, 76, 0
12, 12672, Note_on_c, 6, 76, 0
12, 12672, Note_on_c, 6, 74, 100
12, 12720, Note_on_c, 6, 74, 0
12, 12720, Note_on_c, 6, 76, 100
12, 12744, Note_on_c, 6, 76, 0
12, 12744, Note_on_c, 6, 78, 100
12, 12768, Note_on_c, 6, 78, 0
12, 12768, Note_on_c, 6, 79, 100
12, 12792, Note_on_c, 6, 79, 0
12, 12792, Note_on_c, 6, 81, 100
12, 12816, Note_on_c, 6, 81, 0
12, 12816, Note_on_c, 6, 83, 100
12, 12840, Note_on_c, 6, 83, 0
12, 12840, Note_on_c, 6, 84, 100
12, 12864, Note_on_c, 6, 84, 0
12, 12864, Note_on_c, 6, 86, 100
12, 12912, Note_on_c, 6, 86, 0
12, 12912, Note_on_c, 6, 74, 100
12, 12960, Note_on_c, 6, 74, 0
12, 12960, Note_on_c, 6, 72, 100
12, 13008, Note_on_c, 6, 72, 0
12, 13008, Note_on_c, 6, 74, 100
12, 13032, Note_on_c, 6, 74, 0
12, 13032, Note_on_c, 6, 76, 100
12, 13056, Note_on_c, 6, 76, 0
12, 13056, Note_on_c, 6, 78, 100
12, 13080, Note_on_c, 6, 78, 0
12, 13080, Note_on_c, 6, 79, 100
12, 13104, Note_on_c, 6, 79, 0
12, 13104, Note_on_c, 6, 81, 100
12, 13128, Note_on_c, 6, 81, 0
12, 13128, Note_on_c, 6, 83, 100
12, 13152, Note_on_c, 6, 83, 0
12, 13152, Note_on_c, 6, 84, 100
12, 13200, Note_on_c, 6, 84, 0
12, 13200, Note_on_c, 6, 72, 100
12, 13248, Note_on_c, 6, 72, 0
12, 13248, Note_on_c, 6, 71, 100
12, 13296, Note_on_c, 6, 71, 0
12, 13296, Note_on_c, 6, 72, 100
12, 13320, Note_on_c, 6, 72, 0
12, 13320, Note_on_c, 6, 74, 100
12, 13344, Note_on_c, 6, 74, 0
12, 13344, Note_on_c, 6, 76, 100
12, 13368, Note_on_c, 6, 76, 0
12, 13368, Note_on_c, 6, 78, 100
12, 13392, Note_on_c, 6, 78, 0
12, 13392, Note_on_c, 6, 79, 100
12, 13416, Note_on_c, 6, 79, 0
12, 13416, Note_on_c, 6, 81, 100
12, 13440, Note_on_c, 6, 81, 0
12, 13440, Note_on_c, 6, 79, 100
12, 13488, Note_on_c, 6, 79, 0
12, 13488, Note_on_c, 6, 67, 100
12, 13536, Note_on_c, 6, 67, 0
12, 13536, Note_on_c, 6, 67, 100
12, 13584, Note_on_c, 6, 67, 0
12, 13584, Note_on_c, 6, 69, 100
12, 13608, Note_on_c, 6, 69, 0
12, 13608, Note_on_c, 6, 71, 100
12, 13632, Note_on_c, 6, 71, 0
12, 13632, Note_on_c, 6, 72, 100
12, 13656, Note_on_c, 6, 72, 0
12, 13656, Note_on_c, 6, 74, 100
12, 13680, Note_on_c, 6, 74, 0
12, 13680, Note_on_c, 6, 76, 100
12, 13704, Note_on_c, 6, 76, 0
12, 13704, Note_on_c, 6, 78, 100
12, 13728, Note_on_c, 6, 78, 0
12, 13728, Note_on_c, 6, 79, 100
12, 13776, Note_on_c, 6, 79, 0
12, 13776, Note_on_c, 6, 74, 100
12, 13824, Note_on_c, 6, 74, 0
12, 13824, Note_on_c, 6, 72, 100
12, 13872, Note_on_c, 6, 72, 0
12, 13872, Note_on_c, 6, 81, 100
12, 13920, Note_on_c, 6, 81, 0
12, 13920, Note_on_c, 6, 71, 100
12, 13968, Note_on_c, 6, 71, 0
12, 13968, Note_on_c, 6, 79, 100
12, 14016, Note_on_c, 6, 79, 0
12, 14016, Note_on_c, 6, 69, 100
12, 14064, Note_on_c, 6, 69, 0
12, 14064, Note_on_c, 6, 74, 100
12, 14112, Note_on_c, 6, 74, 0
12, 14112, Note_on_c, 6, 71, 100
12, 14208, Note_on_c, 6, 71, 0
12, 14208, Note_on_c, 6, 55, 100
12, 14256, Note_on_c, 6, 55, 0
12, 14256, Note_on_c, 6, 57, 100
12, 14280, Note_on_c, 6, 57, 0
12, 14280, Note_on_c, 6, 59, 100
12, 14304, Note_on_c, 6, 59, 0
12, 14304, Note_on_c, 6, 60, 100
12, 14328, Note_on_c, 6, 60, 0
12, 14328, Note_on_c, 6, 62, 100
12, 14352, Note_on_c, 6, 62, 0
12, 14352, Note_on_c, 6, 64, 100
12, 14376, Note_on_c, 6, 64, 0
12, 14376, Note_on_c, 6, 66, 100
12, 14400, Note_on_c, 6, 66, 0
12, 14400, Note_on_c, 6, 67, 100
12, 14448, Note_on_c, 6, 67, 0
12, 14448, Note_on_c, 6, 79, 100
12, 14496, Note_on_c, 6, 79, 0
12, 14496, Note_on_c, 6, 79, 100
12, 14544, Note_on_c, 6, 79, 0
12, 14544, Note_on_c, 6, 79, 100
12, 14580, Note_on_c, 6, 79, 0
12, 14580, Note_on_c, 6, 81, 100
12, 14592, Note_on_c, 6, 81, 0
12, 14592, Note_on_c, 6, 79, 100
12, 14640, Note_on_c, 6, 79, 0
12, 14640, Note_on_c, 6, 78, 100
12, 14664, Note_on_c, 6, 78, 0
12, 14664, Note_on_c, 6, 79, 100
12, 14688, Note_on_c, 6, 79, 0
12, 14688, Note_on_c, 6, 71, 100
12, 14736, Note_on_c, 6, 71, 0
12, 14736, Note_on_c, 6, 71, 100
12, 14784, Note_on_c, 6, 71, 0
12, 14784, Note_on_c, 6, 71, 100
12, 14832, Note_on_c, 6, 71, 0
12, 14832, Note_on_c, 6, 71, 100
12, 14880, Note_on_c, 6, 71, 0
12, 14880, Note_on_c, 6, 76, 100
12, 14928, Note_on_c, 6, 76, 0
12, 14928, Note_on_c, 6, 76, 100
12, 14976, Note_on_c, 6, 76, 0
12, 14976, Note_on_c, 6, 73, 100
12, 15024, Note_on_c, 6, 73, 0
12, 15024, Note_on_c, 6, 61, 100
12, 15072, Note_on_c, 6, 61, 0
12, 15072, Note_on_c, 6, 61, 100
12, 15120, Note_on_c, 6, 61, 0
12, 15120, Note_on_c, 6, 61, 100
12, 15156, Note_on_c, 6, 61, 0
12, 15156, Note_on_c, 6, 62, 100
12, 15168, Note_on_c, 6, 62, 0
12, 15168, Note_on_c, 6, 61, 100
12, 15216, Note_on_c, 6, 61, 0
12, 15216, Note_on_c, 6, 59, 100
12, 15240, Note_on_c, 6, 59, 0
12, 15240, Note_on_c, 6, 61, 100
12, 15264, Note_on_c, 6, 61, 0
12, 15264, Note_on_c, 6, 62, 100
12, 15288, Note_on_c, 6, 62, 0
12, 15312, Note_on_c, 6, 66, 100
12, 15360, Note_on_c, 6, 66, 0
12, 15360, Note_on_c, 6, 67, 100
12, 15408, Note_on_c, 6, 67, 0
12, 15408, Note_on_c, 6, 69, 100
12, 15456, Note_on_c, 6, 69, 0
12, 15456, Note_on_c, 6, 71, 100
12, 15504, Note_on_c, 6, 71, 0
12, 15504, Note_on_c, 6, 72, 100
12, 15552, Note_on_c, 6, 72, 0
12, 15552, Control_c, 6, 7, 40
12, 15552, Note_on_c, 6, 74, 100
12, 15600, Note_on_c, 6, 74, 0
12, 15600, Note_on_c, 6, 71, 100
12, 15648, Note_on_c, 6, 71, 0
12, 15648, Note_on_c, 6, 79, 100
12, 15696, Note_on_c, 6, 79, 0
12, 15696, Note_on_c, 6, 78, 100
12, 15744, Note_on_c, 6, 78, 0
12, 15744, Note_on_c, 6, 76, 100
12, 15792, Note_on_c, 6, 76, 0
12, 15792, Note_on_c, 6, 74, 100
12, 15840, Note_on_c, 6, 74, 0
12, 15840, Note_on_c, 6, 74, 100
12, 15888, Note_on_c, 6, 74, 0
12, 15888, Note_on_c, 6, 72, 100
12, 15936, Note_on_c, 6, 72, 0
12, 15936, Note_on_c, 6, 81, 100
12, 15960, Note_on_c, 6, 81, 0
12, 15984, Note_on_c, 6, 79, 100
12, 16008, Note_on_c, 6, 79, 0
12, 16032, Note_on_c, 6, 78, 100
12, 16056, Note_on_c, 6, 78, 0
12, 16080, Note_on_c, 6, 76, 100
12, 16104, Note_on_c, 6, 76, 0
12, 16128, Note_on_c, 6, 74, 100
12, 16152, Note_on_c, 6, 74, 0
12, 16176, Note_on_c, 6, 76, 100
12, 16200, Note_on_c, 6, 76, 0
12, 16224, Note_on_c, 6, 74, 100
12, 16248, Note_on_c, 6, 74, 0
12, 16272, Note_on_c, 6, 72, 100
12, 16296, Note_on_c, 6, 72, 0
12, 16320, Note_on_c, 6, 71, 100
12, 16344, Note_on_c, 6, 71, 0
12, 16368, Note_on_c, 6, 69, 100
12, 16392, Note_on_c, 6, 69, 0
12, 16416, Note_on_c, 6, 69, 100
12, 16428, Note_on_c, 6, 69, 0
12, 16428, Note_on_c, 6, 71, 100
12, 16440, Note_on_c, 6, 71, 0
12, 16440, Note_on_c, 6, 69, 100
12, 16452, Note_on_c, 6, 69, 0
12, 16452, Note_on_c, 6, 71, 100
12, 16464, Note_on_c, 6, 71, 0
12, 16464, Note_on_c, 6, 67, 100
12, 16488, Note_on_c, 6, 67, 0
12, 16488, Note_on_c, 6, 69, 100
12, 16512, Note_on_c, 6, 69, 0
12, 16512, Note_on_c, 6, 67, 100
12, 16608, Note_on_c, 6, 67, 0
12, 16800, Control_c, 6, 7, 80
12, 16800, Note_on_c, 6, 74, 100
12, 16944, Note_on_c, 6, 74, 0
12, 16944, Note_on_c, 6, 76, 100
12, 16992, Note_on_c, 6, 76, 0
12, 16992, Note_on_c, 6, 74, 100
12, 17184, Note_on_c, 6, 74, 0
12, 17376, Note_on_c, 6, 79, 100
12, 17472, Note_on_c, 6, 79, 0
12, 17472, Note_on_c, 6, 78, 100
12, 17568, Note_on_c, 6, 78, 0
12, 17568, Note_on_c, 6, 74, 100
12, 17760, Note_on_c, 6, 74, 0
12, 17952, Note_on_c, 6, 74, 100
12, 18144, Note_on_c, 6, 74, 0
12, 18240, Note_on_c, 6, 79, 100
12, 18336, Note_on_c, 6, 79, 0
12, 18336, Note_on_c, 6, 74, 100
12, 18432, Note_on_c, 6, 74, 0
12, 18528, Note_on_c, 6, 74, 100
12, 18624, Note_on_c, 6, 74, 0
12, 18624, Note_on_c, 6, 72, 100
12, 18648, Note_on_c, 6, 72, 0
12, 18672, Note_on_c, 6, 71, 100
12, 18696, Note_on_c, 6, 71, 0
12, 18720, Note_on_c, 6, 78, 100
12, 18912, Note_on_c, 6, 78, 0
12, 18912, Note_on_c, 6, 78, 100
12, 19008, Note_on_c, 6, 78, 0
12, 19008, Note_on_c, 6, 80, 100
12, 19104, Note_on_c, 6, 80, 0
12, 19104, Note_on_c, 6, 76, 100
12, 19152, Note_on_c, 6, 76, 0
12, 19200, Note_on_c, 6, 76, 100
12, 19248, Note_on_c, 6, 76, 0
12, 19296, Note_on_c, 6, 60, 100
12, 19344, Note_on_c, 6, 60, 0
12, 19344, Note_on_c, 6, 64, 100
12, 19368, Note_on_c, 6, 64, 0
12, 19368, Note_on_c, 6, 76, 100
12, 19392, Note_on_c, 6, 76, 0
12, 19392, Note_on_c, 6, 74, 100
12, 19416, Note_on_c, 6, 74, 0
12, 19416, Note_on_c, 6, 76, 100
12, 19440, Note_on_c, 6, 76, 0
12, 19440, Note_on_c, 6, 72, 100
12, 19464, Note_on_c, 6, 72, 0
12, 19464, Note_on_c, 6, 76, 100
12, 19488, Note_on_c, 6, 76, 0
12, 19488, Note_on_c, 6, 71, 100
12, 19512, Note_on_c, 6, 71, 0
12, 19512, Note_on_c, 6, 76, 100
12, 19536, Note_on_c, 6, 76, 0
12, 19536, Note_on_c, 6, 69, 100
12, 19560, Note_on_c, 6, 69, 0
12, 19560, Note_on_c, 6, 76, 100
12, 19584, Note_on_c, 6, 76, 0
12, 19584, Note_on_c, 6, 68, 100
12, 19608, Note_on_c, 6, 68, 0
12, 19608, Note_on_c, 6, 76, 100
12, 19632, Note_on_c, 6, 76, 0
12, 19632, Note_on_c, 6, 69, 100
12, 19656, Note_on_c, 6, 69, 0
12, 19656, Note_on_c, 6, 76, 100
12, 19680, Note_on_c, 6, 76, 0
12, 19680, Note_on_c, 6, 68, 100
12, 19704, Note_on_c, 6, 68, 0
12, 19704, Note_on_c, 6, 76, 100
12, 19728, Note_on_c, 6, 76, 0
12, 19728, Note_on_c, 6, 65, 100
12, 19752, Note_on_c, 6, 65, 0
12, 19752, Note_on_c, 6, 76, 100
12, 19776, Note_on_c, 6, 76, 0
12, 19776, Note_on_c, 6, 76, 100
12, 19824, Note_on_c, 6, 76, 0
12, 19824, Note_on_c, 6, 74, 100
12, 19872, Note_on_c, 6, 74, 0
12, 19872, Note_on_c, 6, 72, 100
12, 19920, Note_on_c, 6, 72, 0
12, 19920, Note_on_c, 6, 64, 100
12, 19944, Note_on_c, 6, 64, 0
12, 19944, Note_on_c, 6, 76, 100
12, 19968, Note_on_c, 6, 76, 0
12, 19968, Note_on_c, 6, 74, 100
12, 19992, Note_on_c, 6, 74, 0
12, 19992, Note_on_c, 6, 76, 100
12, 20016, Note_on_c, 6, 76, 0
12, 20016, Note_on_c, 6, 72, 100
12, 20040, Note_on_c, 6, 72, 0
12, 20040, Note_on_c, 6, 76, 100
12, 20064, Note_on_c, 6, 76, 0
12, 20064, Note_on_c, 6, 71, 100
12, 20088, Note_on_c, 6, 71, 0
12, 20088, Note_on_c, 6, 76, 100
12, 20112, Note_on_c, 6, 76, 0
12, 20112, Note_on_c, 6, 69, 100
12, 20136, Note_on_c, 6, 69, 0
12, 20136, Note_on_c, 6, 76, 100
12, 20160, Note_on_c, 6, 76, 0
12, 20160, Note_on_c, 6, 68, 100
12, 20184, Note_on_c, 6, 68, 0
12, 20184, Note_on_c, 6, 76, 100
12, 20208, Note_on_c, 6, 76, 0
12, 20208, Note_on_c, 6, 69, 100
12, 20232, Note_on_c, 6, 69, 0
12, 20232, Note_on_c, 6, 76, 100
12, 20256, Note_on_c, 6, 76, 0
12, 20256, Note_on_c, 6, 68, 100
12, 20280, Note_on_c, 6, 68, 0
12, 20280, Note_on_c, 6, 76, 100
12, 20304, Note_on_c, 6, 76, 0
12, 20304, Note_on_c, 6, 65, 100
12, 20328, Note_on_c, 6, 65, 0
12, 20328, Note_on_c, 6, 76, 100
12, 20352, Note_on_c, 6, 76, 0
12, 20352, Note_on_c, 6, 76, 100
12, 20400, Note_on_c, 6, 76, 0
12, 20400, Note_on_c, 6, 74, 100
12, 20448, Note_on_c, 6, 74, 0
12, 20448, Note_on_c, 6, 72, 100
12, 20496, Note_on_c, 6, 72, 0
12, 20496, Note_on_c, 6, 69, 100
12, 20544, Note_on_c, 6, 69, 0
12, 20544, Note_on_c, 6, 69, 100
12, 20592, Note_on_c, 6, 69, 0
12, 20592, Note_on_c, 6, 69, 100
12, 20628, Note_on_c, 6, 69, 0
12, 20628, Note_on_c, 6, 71, 100
12, 20640, Note_on_c, 6, 71, 0
12, 20640, Note_on_c, 6, 69, 100
12, 20688, Note_on_c, 6, 69, 0
12, 20688, Note_on_c, 6, 68, 100
12, 20712, Note_on_c, 6, 68, 0
12, 20712, Note_on_c, 6, 69, 100
12, 20736, Note_on_c, 6, 69, 0
12, 20736, Note_on_c, 6, 72, 100
12, 20880, Note_on_c, 6, 72, 0
12, 20880, Note_on_c, 6, 71, 100
12, 20928, Note_on_c, 6, 71, 0
12, 20928, Note_on_c, 6, 72, 100
12, 20976, Note_on_c, 6, 72, 0
12, 20976, Note_on_c, 6, 71, 100
12, 21024, Note_on_c, 6, 71, 0
12, 21024, Note_on_c, 6, 72, 100
12, 21168, Note_on_c, 6, 72, 0
12, 21168, Note_on_c, 6, 71, 100
12, 21216, Note_on_c, 6, 71, 0
12, 21216, Note_on_c, 6, 72, 100
12, 21264, Note_on_c, 6, 72, 0
12, 21264, Note_on_c, 6, 71, 100
12, 21312, Note_on_c, 6, 71, 0
12, 21312, Note_on_c, 6, 72, 100
12, 21504, Note_on_c, 6, 72, 0
12, 21504, Note_on_c, 6, 71, 100
12, 21600, Note_on_c, 6, 71, 0
12, 21600, Control_c, 6, 7, 127
12, 21600, Note_on_c, 6, 75, 100
12, 21636, Control_c, 6, 7, 80
12, 21648, Note_on_c, 6, 75, 0
12, 21648, Note_on_c, 6, 75, 100
12, 21696, Note_on_c, 6, 75, 0
12, 21696, Note_on_c, 6, 75, 100
12, 21744, Note_on_c, 6, 75, 0
12, 21744, Note_on_c, 6, 75, 100
12, 21792, Note_on_c, 6, 75, 0
12, 21792, Note_on_c, 6, 75, 100
12, 21840, Note_on_c, 6, 75, 0
12, 21840, Note_on_c, 6, 75, 100
12, 21888, Note_on_c, 6, 75, 0
12, 21888, Control_c, 6, 7, 127
12, 21888, Note_on_c, 6, 74, 100
12, 21924, Control_c, 6, 7, 80
12, 21936, Note_on_c, 6, 74, 0
12, 21936, Note_on_c, 6, 74, 100
12, 21984, Note_on_c, 6, 74, 0
12, 21984, Note_on_c, 6, 74, 100
12, 22032, Note_on_c, 6, 74, 0
12, 22032, Note_on_c, 6, 74, 100
12, 22080, Note_on_c, 6, 74, 0
12, 22080, Note_on_c, 6, 74, 100
12, 22128, Note_on_c, 6, 74, 0
12, 22128, Note_on_c, 6, 74, 100
12, 22176, Note_on_c, 6, 74, 0
12, 22176, Control_c, 6, 7, 127
12, 22176, Note_on_c, 6, 73, 100
12, 22212, Control_c, 6, 7, 80
12, 22224, Note_on_c, 6, 73, 0
12, 22224, Note_on_c, 6, 73, 100
12, 22272, Note_on_c, 6, 73, 0
12, 22272, Note_on_c, 6, 73, 100
12, 22320, Note_on_c, 6, 73, 0
12, 22320, Note_on_c, 6, 73, 100
12, 22368, Note_on_c, 6, 73, 0
12, 22368, Note_on_c, 6, 73, 100
12, 22416, Note_on_c, 6, 73, 0
12, 22416, Note_on_c, 6, 73, 100
12, 22464, Note_on_c, 6, 73, 0
12, 22464, Control_c, 6, 7, 127
12, 22464, Note_on_c, 6, 72, 100
12, 22500, Control_c, 6, 7, 80
12, 22512, Note_on_c, 6, 72, 0
12, 22512, Note_on_c, 6, 72, 100
12, 22560, Note_on_c, 6, 72, 0
12, 22560, Note_on_c, 6, 72, 100
12, 22608, Note_on_c, 6, 72, 0
12, 22608, Note_on_c, 6, 72, 100
12, 22656, Note_on_c, 6, 72, 0
12, 22656, Note_on_c, 6, 72, 100
12, 22704, Note_on_c, 6, 72, 0
12, 22704, Note_on_c, 6, 72, 100
12, 22752, Note_on_c, 6, 72, 0
12, 22752, Control_c, 6, 7, 127
12, 22752, Note_on_c, 6, 71, 100
12, 22788, Control_c, 6, 7, 80
12, 22800, Note_on_c, 6, 71, 0
12, 22800, Note_on_c, 6, 71, 100
12, 22848, Note_on_c, 6, 71, 0
12, 22848, Note_on_c, 6, 71, 100
12, 22896, Note_on_c, 6, 71, 0
12, 22896, Note_on_c, 6, 71, 100
12, 22944, Note_on_c, 6, 71, 0
12, 22944, Control_c, 6, 7, 80
12, 22944, Note_on_c, 6, 69, 100
12, 22992, Note_on_c, 6, 69, 0
12, 22992, Note_on_c, 6, 69, 100
12, 23040, Note_on_c, 6, 69, 0
12, 23040, Note_on_c, 6, 78, 100
12, 23088, Note_on_c, 6, 78, 0
12, 23088, Note_on_c, 6, 72, 100
12, 23136, Note_on_c, 6, 72, 0
12, 23136, Note_on_c, 6, 71, 100
12, 23184, Note_on_c, 6, 71, 0
12, 23184, Note_on_c, 6, 81, 100
12, 23232, Note_on_c, 6, 81, 0
12, 23232, Note_on_c, 6, 64, 100
12, 23280, Note_on_c, 6, 64, 0
12, 23280, Note_on_c, 6, 80, 100
12, 23328, Note_on_c, 6, 80, 0
12, 23328, Note_on_c, 6, 81, 100
12, 23424, Note_on_c, 6, 81, 0
12, 23424, Note_on_c, 6, 57, 100
12, 23472, Note_on_c, 6, 57, 0
12, 23472, Note_on_c, 6, 59, 100
12, 23496, Note_on_c, 6, 59, 0
12, 23496, Note_on_c, 6, 60, 100
12, 23520, Note_on_c, 6, 60, 0
12, 23520, Note_on_c, 6, 62, 100
12, 23544, Note_on_c, 6, 62, 0
12, 23544, Note_on_c, 6, 64, 100
12, 23568, Note_on_c, 6, 64, 0
12, 23568, Note_on_c, 6, 65, 100
12, 23592, Note_on_c, 6, 65, 0
12, 23592, Note_on_c, 6, 68, 100
12, 23616, Note_on_c, 6, 68, 0
12, 23616, Note_on_c, 6, 69, 100
12, 23664, Note_on_c, 6, 69, 0
12, 23664, Note_on_c, 6, 69, 100
12, 23712, Note_on_c, 6, 69, 0
12, 23712, Note_on_c, 6, 69, 100
12, 23760, Note_on_c, 6, 69, 0
12, 23760, Note_on_c, 6, 69, 100
12, 23796, Note_on_c, 6, 69, 0
12, 23796, Note_on_c, 6, 70, 100
12, 23808, Note_on_c, 6, 70, 0
12, 23808, Note_on_c, 6, 69, 100
12, 23856, Note_on_c, 6, 69, 0
12, 23856, Note_on_c, 6, 68, 100
12, 23880, Note_on_c, 6, 68, 0
12, 23880, Note_on_c, 6, 69, 100
12, 23904, Note_on_c, 6, 69, 0
12, 23904, Note_on_c, 6, 70, 100
12, 23952, Note_on_c, 6, 70, 0
12, 23952, Note_on_c, 6, 70, 100
12, 24000, Note_on_c, 6, 70, 0
12, 24000, Note_on_c, 6, 70, 100
12, 24048, Note_on_c, 6, 70, 0
12, 24048, Note_on_c, 6, 70, 100
12, 24084, Note_on_c, 6, 70, 0
12, 24084, Note_on_c, 6, 72, 100
12, 24096, Note_on_c, 6, 72, 0
12, 24096, Note_on_c, 6, 70, 100
12, 24144, Note_on_c, 6, 70, 0
12, 24144, Note_on_c, 6, 69, 100
12, 24168, Note_on_c, 6, 69, 0
12, 24168, Note_on_c, 6, 70, 100
12, 24192, Note_on_c, 6, 70, 0
12, 24192, Note_on_c, 6, 79, 100
12, 24240, Note_on_c, 6, 79, 0
12, 24240, Note_on_c, 6, 79, 100
12, 24288, Note_on_c, 6, 79, 0
12, 24288, Note_on_c, 6, 79, 100
12, 24336, Note_on_c, 6, 79, 0
12, 24336, Note_on_c, 6, 79, 100
12, 24384, Note_on_c, 6, 79, 0
12, 24384, Note_on_c, 6, 77, 100
12, 24408, Note_on_c, 6, 77, 0
12, 24408, Note_on_c, 6, 74, 100
12, 24432, Note_on_c, 6, 74, 0
12, 24432, Note_on_c, 6, 69, 100
12, 24456, Note_on_c, 6, 69, 0
12, 24456, Note_on_c, 6, 74, 100
12, 24480, Note_on_c, 6, 74, 0
12, 24480, Note_on_c, 6, 74, 100
12, 24504, Note_on_c, 6, 74, 0
12, 24576, Note_on_c, 6, 70, 100
12, 24600, Note_on_c, 6, 70, 0
12, 24672, Note_on_c, 6, 71, 100
12, 24696, Note_on_c, 6, 71, 0
12, 24768, Time_signature, 5, 2, 24, 8
12, 24768, Time_signature, 5, 2, 24, 8
12, 24768, Note_on_c, 6, 69, 100
12, 24864, Note_on_c, 6, 69, 0
12, 24864, Note_on_c, 6, 81, 100
12, 24960, Note_on_c, 6, 81, 0
12, 24960, Note_on_c, 6, 80, 100
12, 25152, Note_on_c, 6, 80, 0
12, 25248, Time_signature, 3, 2, 24, 8
12, 25248, Time_signature, 3, 2, 24, 8
12, 25296, Note_on_c, 6, 69, 100
12, 25320, Note_on_c, 6, 69, 0
12, 25320, Note_on_c, 6, 81, 100
12, 25344, Note_on_c, 6, 81, 0
12, 25344, Note_on_c, 6, 79, 100
12, 25368, Note_on_c, 6, 79, 0
12, 25368, Note_on_c, 6, 81, 100
12, 25392, Note_on_c, 6, 81, 0
12, 25392, Note_on_c, 6, 77, 100
12, 25416, Note_on_c, 6, 77, 0
12, 25416, Note_on_c, 6, 81, 100
12, 25440, Note_on_c, 6, 81, 0
12, 25440, Note_on_c, 6, 76, 100
12, 25464, Note_on_c, 6, 76, 0
12, 25464, Note_on_c, 6, 81, 100
12, 25488, Note_on_c, 6, 81, 0
12, 25488, Note_on_c, 6, 74, 100
12, 25512, Note_on_c, 6, 74, 0
12, 25512, Note_on_c, 6, 81, 100
12, 25536, Note_on_c, 6, 81, 0
12, 25536, Note_on_c, 6, 73, 100
12, 25560, Note_on_c, 6, 73, 0
12, 25560, Note_on_c, 6, 81, 100
12, 25584, Note_on_c, 6, 81, 0
12, 25584, Note_on_c, 6, 74, 100
12, 25608, Note_on_c, 6, 74, 0
12, 25608, Note_on_c, 6, 81, 100
12, 25632, Note_on_c, 6, 81, 0
12, 25632, Note_on_c, 6, 73, 100
12, 25656, Note_on_c, 6, 73, 0
12, 25656, Note_on_c, 6, 81, 100
12, 25680, Note_on_c, 6, 81, 0
12, 25680, Note_on_c, 6, 70, 100
12, 25704, Note_on_c, 6, 70, 0
12, 25704, Note_on_c, 6, 81, 100
12, 25728, Note_on_c, 6, 81, 0
12, 25728, Note_on_c, 6, 79, 100
12, 25824, Note_on_c, 6, 79, 0
12, 25824, Note_on_c, 6, 77, 100
12, 25872, Note_on_c, 6, 77, 0
12, 25872, Note_on_c, 6, 69, 100
12, 25896, Note_on_c, 6, 69, 0
12, 25896, Note_on_c, 6, 81, 100
12, 25920, Note_on_c, 6, 81, 0
12, 25920, Note_on_c, 6, 79, 100
12, 25944, Note_on_c, 6, 79, 0
12, 25944, Note_on_c, 6, 81, 100
12, 25968, Note_on_c, 6, 81, 0
12, 25968, Note_on_c, 6, 77, 100
12, 25992, Note_on_c, 6, 77, 0
12, 25992, Note_on_c, 6, 81, 100
12, 26016, Note_on_c, 6, 81, 0
12, 26016, Note_on_c, 6, 76, 100
12, 26040, Note_on_c, 6, 76, 0
12, 26040, Note_on_c, 6, 81, 100
12, 26064, Note_on_c, 6, 81, 0
12, 26064, Note_on_c, 6, 74, 100
12, 26088, Note_on_c, 6, 74, 0
12, 26088, Note_on_c, 6, 81, 100
12, 26112, Note_on_c, 6, 81, 0
12, 26112, Note_on_c, 6, 73, 100
12, 26136, Note_on_c, 6, 73, 0
12, 26136, Note_on_c, 6, 81, 100
12, 26160, Note_on_c, 6, 81, 0
12, 26160, Note_on_c, 6, 74, 100
12, 26184, Note_on_c, 6, 74, 0
12, 26184, Note_on_c, 6, 81, 100
12, 26208, Note_on_c, 6, 81, 0
12, 26208, Note_on_c, 6, 73, 100
12, 26232, Note_on_c, 6, 73, 0
12, 26232, Note_on_c, 6, 81, 100
12, 26256, Note_on_c, 6, 81, 0
12, 26256, Note_on_c, 6, 70, 100
12, 26280, Note_on_c, 6, 70, 0
12, 26280, Note_on_c, 6, 81, 100
12, 26304, Note_on_c, 6, 81, 0
12, 26304, Note_on_c, 6, 79, 100
12, 26400, Note_on_c, 6, 79, 0
12, 26400, Note_on_c, 6, 77, 100
12, 26496, Note_on_c, 6, 77, 0
12, 26496, Note_on_c, 6, 69, 100
12, 26592, Note_on_c, 6, 69, 0
12, 26592, Note_on_c, 6, 69, 100
12, 26688, Note_on_c, 6, 69, 0
12, 26688, Note_on_c, 6, 69, 100
12, 26832, Note_on_c, 6, 69, 0
12, 26832, Note_on_c, 6, 70, 100
12, 26880, Note_on_c, 6, 70, 0
12, 26880, Note_on_c, 6, 69, 100
12, 26928, Note_on_c, 6, 69, 0
12, 26928, Note_on_c, 6, 70, 100
12, 26976, Note_on_c, 6, 70, 0
12, 26976, Note_on_c, 6, 69, 100
12, 27120, Note_on_c, 6, 69, 0
12, 27120, Note_on_c, 6, 70, 100
12, 27168, Note_on_c, 6, 70, 0
12, 27168, Note_on_c, 6, 69, 100
12, 27216, Note_on_c, 6, 69, 0
12, 27216, Note_on_c, 6, 70, 100
12, 27264, Note_on_c, 6, 70, 0
12, 27264, Note_on_c, 6, 69, 100
12, 27312, Note_on_c, 6, 69, 0
12, 27312, Note_on_c, 6, 69, 100
12, 27360, Note_on_c, 6, 69, 0
12, 27360, Note_on_c, 6, 74, 100
12, 27408, Note_on_c, 6, 74, 0
12, 27408, Note_on_c, 6, 74, 100
12, 27456, Note_on_c, 6, 74, 0
12, 27456, Note_on_c, 6, 78, 100
12, 27504, Note_on_c, 6, 78, 0
12, 27504, Note_on_c, 6, 78, 100
12, 27552, Note_on_c, 6, 78, 0
12, 27552, Note_on_c, 6, 79, 100
12, 27600, Note_on_c, 6, 79, 0
12, 27600, Note_on_c, 6, 67, 100
12, 27624, Note_on_c, 6, 67, 0
12, 27624, Note_on_c, 6, 79, 100
12, 27648, Note_on_c, 6, 79, 0
12, 27648, Note_on_c, 6, 77, 100
12, 27672, Note_on_c, 6, 77, 0
12, 27672, Note_on_c, 6, 79, 100
12, 27696, Note_on_c, 6, 79, 0
12, 27696, Note_on_c, 6, 76, 100
12, 27720, Note_on_c, 6, 76, 0
12, 27720, Note_on_c, 6, 79, 100
12, 27744, Note_on_c, 6, 79, 0
12, 27744, Note_on_c, 6, 74, 100
12, 27768, Note_on_c, 6, 74, 0
12, 27768, Note_on_c, 6, 79, 100
12, 27792, Note_on_c, 6, 79, 0
12, 27792, Note_on_c, 6, 72, 100
12, 27816, Note_on_c, 6, 72, 0
12, 27816, Note_on_c, 6, 79, 100
12, 27840, Note_on_c, 6, 79, 0
12, 27840, Note_on_c, 6, 71, 100
12, 27864, Note_on_c, 6, 71, 0
12, 27864, Note_on_c, 6, 79, 100
12, 27888, Note_on_c, 6, 79, 0
12, 27888, Note_on_c, 6, 72, 100
12, 27912, Note_on_c, 6, 72, 0
12, 27912, Note_on_c, 6, 79, 100
12, 27936, Note_on_c, 6, 79, 0
12, 27936, Note_on_c, 6, 71, 100
12, 27960, Note_on_c, 6, 71, 0
12, 27960, Note_on_c, 6, 79, 100
12, 27984, Note_on_c, 6, 79, 0
12, 27984, Note_on_c, 6, 69, 100
12, 28008, Note_on_c, 6, 69, 0
12, 28008, Note_on_c, 6, 79, 100
12, 28032, Note_on_c, 6, 79, 0
12, 28032, Note_on_c, 6, 77, 100
12, 28128, Note_on_c, 6, 77, 0
12, 28128, Note_on_c, 6, 76, 100
12, 28176, Note_on_c, 6, 76, 0
12, 28176, Note_on_c, 6, 67, 100
12, 28200, Note_on_c, 6, 67, 0
12, 28200, Note_on_c, 6, 79, 100
12, 28224, Note_on_c, 6, 79, 0
12, 28224, Note_on_c, 6, 77, 100
12, 28248, Note_on_c, 6, 77, 0
12, 28248, Note_on_c, 6, 79, 100
12, 28272, Note_on_c, 6, 79, 0
12, 28272, Note_on_c, 6, 76, 100
12, 28296, Note_on_c, 6, 76, 0
12, 28296, Note_on_c, 6, 79, 100
12, 28320, Note_on_c, 6, 79, 0
12, 28320, Note_on_c, 6, 74, 100
12, 28344, Note_on_c, 6, 74, 0
12, 28344, Note_on_c, 6, 79, 100
12, 28368, Note_on_c, 6, 79, 0
12, 28368, Note_on_c, 6, 72, 100
12, 28392, Note_on_c, 6, 72, 0
12, 28392, Note_on_c, 6, 79, 100
12, 28416, Note_on_c, 6, 79, 0
12, 28416, Note_on_c, 6, 71, 100
12, 28440, Note_on_c, 6, 71, 0
12, 28440, Note_on_c, 6, 79, 100
12, 28464, Note_on_c, 6, 79, 0
12, 28464, Note_on_c, 6, 72, 100
12, 28488, Note_on_c, 6, 72, 0
12, 28488, Note_on_c, 6, 79, 100
12, 28512, Note_on_c, 6, 79, 0
12, 28512, Note_on_c, 6, 71, 100
12, 28536, Note_on_c, 6, 71, 0
12, 28536, Note_on_c, 6, 79, 100
12, 28560, Note_on_c, 6, 79, 0
12, 28560, Note_on_c, 6, 69, 100
12, 28584, Note_on_c, 6, 69, 0
12, 28584, Note_on_c, 6, 79, 100
12, 28608, Note_on_c, 6, 79, 0
12, 28608, Note_on_c, 6, 77, 100
12, 28704, Note_on_c, 6, 77, 0
12, 28704, Note_on_c, 6, 76, 100
12, 28752, Note_on_c, 6, 76, 0
12, 28752, Note_on_c, 6, 67, 100
12, 28848, Note_on_c, 6, 67, 100
12, 28896, Note_on_c, 6, 67, 0
12, 28944, Note_on_c, 6, 67, 100
12, 28992, Note_on_c, 6, 67, 0
12, 28992, Note_on_c, 6, 67, 0
12, 28992, Note_on_c, 6, 66, 100
12, 29040, Note_on_c, 6, 66, 0
12, 29040, Note_on_c, 6, 66, 100
12, 29136, Note_on_c, 6, 66, 100
12, 29184, Note_on_c, 6, 66, 0
12, 29232, Note_on_c, 6, 66, 100
12, 29280, Note_on_c, 6, 66, 0
12, 29280, Note_on_c, 6, 66, 0
12, 29280, Note_on_c, 6, 67, 100
12, 29568, Note_on_c, 6, 67, 0
12, 29568, Note_on_c, 6, 67, 100
12, 29616, Note_on_c, 6, 67, 0
12, 29616, Note_on_c, 6, 67, 100
12, 29712, Note_on_c, 6, 67, 100
12, 29760, Note_on_c, 6, 67, 0
12, 29808, Note_on_c, 6, 67, 100
12, 29856, Note_on_c, 6, 67, 0
12, 29856, Note_on_c, 6, 67, 0
12, 29856, Note_on_c, 6, 69, 100
12, 30144, Note_on_c, 6, 69, 0
12, 30144, Note_on_c, 6, 71, 100
12, 30192, Note_on_c, 6, 71, 0
12, 30192, Note_on_c, 6, 71, 100
12, 30288, Note_on_c, 6, 71, 100
12, 30336, Note_on_c, 6, 71, 0
12, 30384, Note_on_c, 6, 71, 100
12, 30432, Note_on_c, 6, 71, 0
12, 30432, Note_on_c, 6, 71, 0
12, 30432, Note_on_c, 6, 67, 100
12, 30528, Note_on_c, 6, 67, 0
12, 30720, Note_on_c, 6, 62, 100
12, 30768, Note_on_c, 6, 62, 0
12, 30768, Note_on_c, 6, 64, 100
12, 30792, Note_on_c, 6, 64, 0
12, 30792, Note_on_c, 6, 66, 100
12, 30816, Note_on_c, 6, 66, 0
12, 30816, Note_on_c, 6, 67, 100
12, 30840, Note_on_c, 6, 67, 0
12, 30840, Note_on_c, 6, 69, 100
12, 30864, Note_on_c, 6, 69, 0
12, 30864, Note_on_c, 6, 71, 100
12, 30888, Note_on_c, 6, 71, 0
12, 30888, Note_on_c, 6, 72, 100
12, 30912, Note_on_c, 6, 72, 0
12, 30912, Note_on_c, 6, 74, 100
12, 30960, Note_on_c, 6, 74, 0
12, 30960, Note_on_c, 6, 62, 100
12, 31008, Note_on_c, 6, 62, 0
12, 31008, Note_on_c, 6, 60, 100
12, 31056, Note_on_c, 6, 60, 0
12, 31056, Note_on_c, 6, 62, 100
12, 31080, Note_on_c, 6, 62, 0
12, 31080, Note_on_c, 6, 64, 100
12, 31104, Note_on_c, 6, 64, 0
12, 31104, Note_on_c, 6, 66, 100
12, 31128, Note_on_c, 6, 66, 0
12, 31128, Note_on_c, 6, 67, 100
12, 31152, Note_on_c, 6, 67, 0
12, 31152, Note_on_c, 6, 69, 100
12, 31176, Note_on_c, 6, 69, 0
12, 31176, Note_on_c, 6, 71, 100
12, 31200, Note_on_c, 6, 71, 0
12, 31200, Note_on_c, 6, 72, 100
12, 31248, Note_on_c, 6, 72, 0
12, 31248, Note_on_c, 6, 60, 100
12, 31296, Note_on_c, 6, 60, 0
12, 31296, Note_on_c, 6, 59, 100
12, 31344, Note_on_c, 6, 59, 0
12, 31344, Note_on_c, 6, 60, 100
12, 31368, Note_on_c, 6, 60, 0
12, 31368, Note_on_c, 6, 62, 100
12, 31392, Note_on_c, 6, 62, 0
12, 31392, Note_on_c, 6, 64, 100
12, 31416, Note_on_c, 6, 64, 0
12, 31416, Note_on_c, 6, 66, 100
12, 31440, Note_on_c, 6, 66, 0
12, 31440, Note_on_c, 6, 67, 100
12, 31464, Note_on_c, 6, 67, 0
12, 31464, Note_on_c, 6, 69, 100
12, 31488, Note_on_c, 6, 69, 0
12, 31488, Note_on_c, 6, 71, 100
12, 31536, Note_on_c, 6, 71, 0
12, 31536, Note_on_c, 6, 59, 100
12, 31584, Note_on_c, 6, 59, 0
12, 31872, Note_on_c, 6, 55, 100
12, 31920, Note_on_c, 6, 55, 0
12, 31920, Note_on_c, 6, 57, 100
12, 31944, Note_on_c, 6, 57, 0
12, 31944, Note_on_c, 6, 59, 100
12, 31968, Note_on_c, 6, 59, 0
12, 31968, Note_on_c, 6, 60, 100
12, 31992, Note_on_c, 6, 60, 0
12, 31992, Note_on_c, 6, 62, 100
12, 32016, Note_on_c, 6, 62, 0
12, 32016, Note_on_c, 6, 64, 100
12, 32040, Note_on_c, 6, 64, 0
12, 32040, Note_on_c, 6, 66, 100
12, 32064, Note_on_c, 6, 66, 0
12, 32064, Note_on_c, 6, 67, 100
12, 32112, Note_on_c, 6, 67, 0
12, 32112, Note_on_c, 6, 55, 100
12, 32160, Note_on_c, 6, 55, 0
12, 32160, Note_on_c, 6, 57, 100
12, 32208, Note_on_c, 6, 57, 0
12, 32208, Note_on_c, 6, 59, 100
12, 32232, Note_on_c, 6, 59, 0
12, 32232, Note_on_c, 6, 60, 100
12, 32256, Note_on_c, 6, 60, 0
12, 32256, Note_on_c, 6, 62, 100
12, 32280, Note_on_c, 6, 62, 0
12, 32280, Note_on_c, 6, 64, 100
12, 32304, Note_on_c, 6, 64, 0
12, 32304, Note_on_c, 6, 66, 100
12, 32328, Note_on_c, 6, 66, 0
12, 32328, Note_on_c, 6, 67, 100
12, 32352, Note_on_c, 6, 67, 0
12, 32352, Note_on_c, 6, 69, 100
12, 32400, Note_on_c, 6, 69, 0
12, 32400, Note_on_c, 6, 57, 100
12, 32448, Note_on_c, 6, 57, 0
12, 32448, Note_on_c, 6, 59, 100
12, 32496, Note_on_c, 6, 59, 0
12, 32496, Note_on_c, 6, 60, 100
12, 32520, Note_on_c, 6, 60, 0
12, 32520, Note_on_c, 6, 62, 100
12, 32544, Note_on_c, 6, 62, 0
12, 32544, Note_on_c, 6, 64, 100
12, 32568, Note_on_c, 6, 64, 0
12, 32568, Note_on_c, 6, 66, 100
12, 32592, Note_on_c, 6, 66, 0
12, 32592, Note_on_c, 6, 67, 100
12, 32616, Note_on_c, 6, 67, 0
12, 32616, Note_on_c, 6, 69, 100
12, 32640, Note_on_c, 6, 69, 0
12, 32640, Note_on_c, 6, 71, 100
12, 32688, Note_on_c, 6, 71, 0
12, 32688, Note_on_c, 6, 59, 100
12, 32736, Note_on_c, 6, 59, 0
12, 32736, Note_on_c, 6, 60, 100
12, 32784, Note_on_c, 6, 60, 0
12, 32784, Note_on_c, 6, 62, 100
12, 32808, Note_on_c, 6, 62, 0
12, 32808, Note_on_c, 6, 64, 100
12, 32832, Note_on_c, 6, 64, 0
12, 32832, Note_on_c, 6, 66, 100
12, 32856, Note_on_c, 6, 66, 0
12, 32856, Note_on_c, 6, 67, 100
12, 32880, Note_on_c, 6, 67, 0
12, 32880, Note_on_c, 6, 69, 100
12, 32904, Note_on_c, 6, 69, 0
12, 32904, Note_on_c, 6, 71, 100
12, 32928, Note_on_c, 6, 71, 0
12, 32928, Note_on_c, 6, 72, 100
12, 32976, Note_on_c, 6, 72, 0
12, 32976, Note_on_c, 6, 60, 100
12, 33024, Note_on_c, 6, 60, 0
12, 33024, Note_on_c, 6, 71, 100
12, 33096, Note_on_c, 6, 71, 0
12, 33096, Note_on_c, 6, 74, 100
12, 33120, Note_on_c, 6, 74, 0
12, 33120, Note_on_c, 6, 74, 100
12, 33192, Note_on_c, 6, 74, 0
12, 33192, Note_on_c, 6, 77, 100
12, 33216, Note_on_c, 6, 77, 0
12, 33216, Note_on_c, 6, 77, 100
12, 33288, Note_on_c, 6, 77, 0
12, 33288, Note_on_c, 6, 83, 100
12, 33312, Time_signature, 3, 2, 24, 8
12, 33312, Time_signature, 3, 2, 24, 8
12, 33312, Note_on_c, 6, 83, 0
12, 33312, Note_on_c, 6, 83, 100
12, 33792, Note_on_c, 6, 83, 0
12, 34176, Control_c, 6, 7, 60
12, 34176, Note_on_c, 6, 65, 100
12, 34368, Note_on_c, 6, 65, 0
12, 34368, Note_on_c, 6, 64, 100
12, 34464, Note_on_c, 6, 64, 0
12, 34752, Note_on_c, 6, 71, 100
12, 34944, Note_on_c, 6, 71, 0
12, 34944, Note_on_c, 6, 72, 100
12, 35040, Note_on_c, 6, 72, 0
12, 35040, Control_c, 6, 7, 40
12, 35040, Note_on_c, 6, 69, 100
12, 35064, Note_on_c, 6, 69, 0
12, 35088, Note_on_c, 6, 69, 100
12, 35112, Note_on_c, 6, 69, 0
12, 35136, Note_on_c, 6, 69, 100
12, 35160, Note_on_c, 6, 69, 0
12, 35184, Note_on_c, 6, 69, 100
12, 35208, Note_on_c, 6, 69, 0
12, 35220, Note_on_c, 6, 71, 100
12, 35232, Note_on_c, 6, 71, 0
12, 35232, Note_on_c, 6, 69, 100
12, 35280, Note_on_c, 6, 69, 0
12, 35280, Note_on_c, 6, 67, 100
12, 35304, Note_on_c, 6, 67, 0
12, 35304, Note_on_c, 6, 69, 100
12, 35328, Note_on_c, 6, 69, 0
12, 35328, Note_on_c, 6, 67, 100
12, 35352, Note_on_c, 6, 67, 0
12, 35376, Note_on_c, 6, 67, 100
12, 35400, Note_on_c, 6, 67, 0
12, 35424, Note_on_c, 6, 67, 100
12, 35448, Note_on_c, 6, 67, 0
12, 35472, Note_on_c, 6, 67, 100
12, 35496, Note_on_c, 6, 67, 0
12, 35508, Note_on_c, 6, 69, 100
12, 35520, Note_on_c, 6, 69, 0
12, 35520, Note_on_c, 6, 67, 100
12, 35568, Note_on_c, 6, 67, 0
12, 35568, Note_on_c, 6, 66, 100
12, 35592, Note_on_c, 6, 66, 0
12, 35592, Note_on_c, 6, 67, 100
12, 35616, Note_on_c, 6, 67, 0
12, 35616, Note_on_c, 6, 65, 100
12, 35640, Note_on_c, 6, 65, 0
12, 35664, Note_on_c, 6, 65, 100
12, 35688, Note_on_c, 6, 65, 0
12, 35712, Note_on_c, 6, 65, 100
12, 35736, Note_on_c, 6, 65, 0
12, 35760, Note_on_c, 6, 65, 100
12, 35784, Note_on_c, 6, 65, 0
12, 35796, Note_on_c, 6, 67, 100
12, 35808, Note_on_c, 6, 67, 0
12, 35808, Note_on_c, 6, 65, 100
12, 35856, Note_on_c, 6, 65, 0
12, 35856, Note_on_c, 6, 64, 100
12, 35880, Note_on_c, 6, 64, 0
12, 35880, Note_on_c, 6, 65, 100
12, 35904, Note_on_c, 6, 65, 0
12, 35904, Note_on_c, 6, 64, 100
12, 35928, Note_on_c, 6, 64, 0
12, 35952, Note_on_c, 6, 64, 100
12, 35976, Note_on_c, 6, 64, 0
12, 36000, Note_on_c, 6, 64, 100
12, 36024, Note_on_c, 6, 64, 0
12, 36048, Note_on_c, 6, 64, 100
12, 36072, Note_on_c, 6, 64, 0
12, 36084, Note_on_c, 6, 65, 100
12, 36096, Note_on_c, 6, 65, 0
12, 36096, Note_on_c, 6, 64, 100
12, 36144, Note_on_c, 6, 64, 0
12, 36144, Note_on_c, 6, 62, 100
12, 36168, Note_on_c, 6, 62, 0
12, 36168, Note_on_c, 6, 64, 100
12, 36192, Note_on_c, 6, 64, 0
12, 36192, Control_c, 6, 7, 60
12, 36192, Note_on_c, 6, 64, 100
12, 36216, Note_on_c, 6, 64, 0
12, 36240, Note_on_c, 6, 60, 100
12, 36264, Note_on_c, 6, 60, 0
12, 36288, Note_on_c, 6, 67, 100
12, 36312, Note_on_c, 6, 67, 0
12, 36336, Note_on_c, 6, 64, 100
12, 36360, Note_on_c, 6, 64, 0
12, 36384, Note_on_c, 6, 60, 100
12, 36408, Note_on_c, 6, 60, 0
12, 36432, Note_on_c, 6, 64, 100
12, 36456, Note_on_c, 6, 64, 0
12, 36480, Note_on_c, 6, 62, 100
12, 36504, Note_on_c, 6, 62, 0
12, 36528, Note_on_c, 6, 55, 100
12, 36552, Note_on_c, 6, 55, 0
12, 36576, Note_on_c, 6, 71, 100
12, 36600, Note_on_c, 6, 71, 0
12, 36624, Note_on_c, 6, 67, 100
12, 36648, Note_on_c, 6, 67, 0
12, 36672, Note_on_c, 6, 62, 100
12, 36696, Note_on_c, 6, 62, 0
12, 36720, Note_on_c, 6, 59, 100
12, 36744, Note_on_c, 6, 59, 0
12, 36768, Note_on_c, 6, 60, 100
12, 36792, Note_on_c, 6, 60, 0
12, 36816, Note_on_c, 6, 59, 100
12, 36840, Note_on_c, 6, 59, 0
12, 36864, Note_on_c, 6, 60, 100
12, 36888, Note_on_c, 6, 60, 0
12, 36912, Note_on_c, 6, 62, 100
12, 36936, Note_on_c, 6, 62, 0
12, 36960, Note_on_c, 6, 64, 100
12, 36984, Note_on_c, 6, 64, 0
12, 37008, Note_on_c, 6, 66, 100
12, 37032, Note_on_c, 6, 66, 0
12, 37056, Note_on_c, 6, 67, 100
12, 37152, Note_on_c, 6, 67, 0
12, 37440, Note_on_c, 6, 72, 100
12, 37632, Note_on_c, 6, 72, 0
12, 37632, Note_on_c, 6, 67, 100
12, 37824, Note_on_c, 6, 67, 0
12, 38016, Note_on_c, 6, 72, 100
12, 38112, Note_on_c, 6, 72, 0
12, 38112, Note_on_c, 6, 67, 100
12, 38400, Note_on_c, 6, 67, 0
12, 38592, Note_on_c, 6, 72, 100
12, 38784, Note_on_c, 6, 72, 0
12, 38880, Note_on_c, 6, 71, 100
12, 39072, Note_on_c, 6, 71, 0
12, 39168, Note_on_c, 6, 69, 100
12, 39360, Note_on_c, 6, 69, 0
12, 39360, Note_on_c, 6, 71, 100
12, 39456, Note_on_c, 6, 71, 0
12, 39456, Note_on_c, 6, 74, 100
12, 39552, Note_on_c, 6, 74, 0
12, 39552, Note_on_c, 6, 72, 100
12, 39648, Note_on_c, 6, 72, 0
12, 39648, Note_on_c, 6, 79, 100
12, 39744, Note_on_c, 6, 79, 0
12, 39744, Note_on_c, 6, 74, 100
12, 39840, Note_on_c, 6, 74, 0
12, 39840, Note_on_c, 6, 72, 100
12, 39936, Note_on_c, 6, 72, 0
12, 39936, Note_on_c, 6, 71, 100
12, 40032, Note_on_c, 6, 71, 0
12, 40032, Note_on_c, 6, 74, 100
12, 40128, Note_on_c, 6, 74, 0
12, 40128, Note_on_c, 6, 72, 100
12, 40224, Note_on_c, 6, 72, 0
12, 40224, Note_on_c, 6, 79, 100
12, 40320, Note_on_c, 6, 79, 0
12, 40320, Note_on_c, 6, 74, 100
12, 40416, Note_on_c, 6, 74, 0
12, 40416, Note_on_c, 6, 72, 100
12, 40512, Note_on_c, 6, 72, 0
12, 40512, Note_on_c, 6, 71, 100
12, 40704, Note_on_c, 6, 71, 0
12, 40704, Note_on_c, 6, 72, 100
12, 40800, Note_on_c, 6, 72, 0
12, 40800, Note_on_c, 6, 67, 100
12, 40896, Note_on_c, 6, 67, 0
12, 40896, Note_on_c, 6, 64, 100
12, 40992, Note_on_c, 6, 64, 0
12, 40992, Note_on_c, 6, 60, 100
12, 41088, Note_on_c, 6, 60, 0
12, 41088, Note_on_c, 6, 67, 100
12, 41184, Note_on_c, 6, 67, 0
12, 41184, Note_on_c, 6, 67, 100
12, 41208, Note_on_c, 6, 67, 0
12, 41208, Note_on_c, 6, 79, 100
12, 41232, Note_on_c, 6, 79, 0
12, 41232, Note_on_c, 6, 77, 100
12, 41256, Note_on_c, 6, 77, 0
12, 41256, Note_on_c, 6, 79, 100
12, 41280, Note_on_c, 6, 79, 0
12, 41280, Note_on_c, 6, 76, 100
12, 41304, Note_on_c, 6, 76, 0
12, 41304, Note_on_c, 6, 79, 100
12, 41328, Note_on_c, 6, 79, 0
12, 41328, Note_on_c, 6, 74, 100
12, 41352, Note_on_c, 6, 74, 0
12, 41352, Note_on_c, 6, 79, 100
12, 41376, Note_on_c, 6, 79, 0
12, 41376, Note_on_c, 6, 73, 100
12, 41400, Note_on_c, 6, 73, 0
12, 41400, Note_on_c, 6, 81, 100
12, 41424, Note_on_c, 6, 81, 0
12, 41424, Note_on_c, 6, 74, 100
12, 41448, Note_on_c, 6, 74, 0
12, 41448, Note_on_c, 6, 81, 100
12, 41472, Note_on_c, 6, 81, 0
12, 41472, Note_on_c, 6, 73, 100
12, 41496, Note_on_c, 6, 73, 0
12, 41496, Note_on_c, 6, 81, 100
12, 41520, Note_on_c, 6, 81, 0
12, 41520, Note_on_c, 6, 70, 100
12, 41544, Note_on_c, 6, 70, 0
12, 41544, Note_on_c, 6, 81, 100
12, 41568, Note_on_c, 6, 81, 0
12, 41568, Note_on_c, 6, 79, 100
12, 41664, Note_on_c, 6, 79, 0
12, 41664, Note_on_c, 6, 78, 100
12, 41712, Note_on_c, 6, 78, 0
12, 41712, Note_on_c, 6, 69, 100
12, 41736, Note_on_c, 6, 69, 0
12, 41736, Note_on_c, 6, 81, 100
12, 41760, Note_on_c, 6, 81, 0
12, 41760, Note_on_c, 6, 66, 100
12, 41784, Note_on_c, 6, 66, 0
12, 41784, Note_on_c, 6, 78, 100
12, 41808, Note_on_c, 6, 78, 0
12, 41808, Note_on_c, 6, 63, 100
12, 41832, Note_on_c, 6, 63, 0
12, 41832, Note_on_c, 6, 75, 100
12, 41856, Note_on_c, 6, 75, 0
12, 41856, Note_on_c, 6, 62, 100
12, 41880, Note_on_c, 6, 62, 0
12, 41880, Note_on_c, 6, 74, 100
12, 41904, Note_on_c, 6, 74, 0
12, 41904, Note_on_c, 6, 60, 100
12, 41928, Note_on_c, 6, 60, 0
12, 41928, Note_on_c, 6, 72, 100
12, 41952, Note_on_c, 6, 72, 0
12, 41952, Note_on_c, 6, 71, 100
12, 41976, Note_on_c, 6, 71, 0
12, 41976, Note_on_c, 6, 79, 100
12, 42000, Note_on_c, 6, 79, 0
12, 42000, Note_on_c, 6, 72, 100
12, 42024, Note_on_c, 6, 72, 0
12, 42024, Note_on_c, 6, 79, 100
12, 42048, Note_on_c, 6, 79, 0
12, 42048, Note_on_c, 6, 71, 100
12, 42072, Note_on_c, 6, 71, 0
12, 42072, Note_on_c, 6, 79, 100
12, 42096, Note_on_c, 6, 79, 0
12, 42096, Note_on_c, 6, 69, 100
12, 42120, Note_on_c, 6, 69, 0
12, 42120, Note_on_c, 6, 79, 100
12, 42144, Note_on_c, 6, 79, 0
12, 42144, Note_on_c, 6, 79, 100
12, 42216, Note_on_c, 6, 79, 0
12, 42216, Note_on_c, 6, 81, 100
12, 42228, Note_on_c, 6, 81, 0
12, 42228, Note_on_c, 6, 83, 100
12, 42240, Note_on_c, 6, 83, 0
12, 42240, Note_on_c, 6, 84, 100
12, 42288, Note_on_c, 6, 84, 0
12, 42288, Note_on_c, 6, 67, 100
12, 42312, Note_on_c, 6, 67, 0
12, 42312, Note_on_c, 6, 79, 100
12, 42336, Note_on_c, 6, 79, 0
12, 42336, Note_on_c, 6, 64, 100
12, 42360, Note_on_c, 6, 64, 0
12, 42360, Note_on_c, 6, 76, 100
12, 42384, Note_on_c, 6, 76, 0
12, 42384, Note_on_c, 6, 62, 100
12, 42408, Note_on_c, 6, 62, 0
12, 42408, Note_on_c, 6, 74, 100
12, 42432, Note_on_c, 6, 74, 0
12, 42432, Note_on_c, 6, 60, 100
12, 42456, Note_on_c, 6, 60, 0
12, 42456, Note_on_c, 6, 72, 100
12, 42480, Note_on_c, 6, 72, 0
12, 42480, Note_on_c, 6, 71, 100
12, 42528, Note_on_c, 6, 71, 0
12, 42528, Note_on_c, 6, 69, 100
12, 42552, Note_on_c, 6, 69, 0
12, 42552, Note_on_c, 6, 81, 100
12, 42576, Note_on_c, 6, 81, 0
12, 42576, Note_on_c, 6, 72, 100
12, 42600, Note_on_c, 6, 72, 0
12, 42600, Note_on_c, 6, 81, 100
12, 42624, Note_on_c, 6, 81, 0
12, 42624, Note_on_c, 6, 75, 100
12, 42648, Note_on_c, 6, 75, 0
12, 42648, Note_on_c, 6, 81, 100
12, 42672, Note_on_c, 6, 81, 0
12, 42672, Note_on_c, 6, 72, 100
12, 42696, Note_on_c, 6, 72, 0
12, 42696, Note_on_c, 6, 81, 100
12, 42720, Note_on_c, 6, 81, 0
12, 42720, Note_on_c, 6, 81, 100
12, 42792, Note_on_c, 6, 81, 0
12, 42792, Note_on_c, 6, 83, 100
12, 42804, Note_on_c, 6, 83, 0
12, 42804, Note_on_c, 6, 84, 100
12, 42816, Note_on_c, 6, 84, 0
12, 42816, Note_on_c, 6, 83, 100
12, 42864, Note_on_c, 6, 83, 0
12, 42912, Note_on_c, 6, 79, 100
12, 42984, Note_on_c, 6, 79, 0
12, 42984, Note_on_c, 6, 81, 100
12, 42996, Note_on_c, 6, 81, 0
12, 42996, Note_on_c, 6, 83, 100
12, 43008, Note_on_c, 6, 83, 0
12, 43008, Note_on_c, 6, 84, 100
12, 43056, Note_on_c, 6, 84, 0
12, 43056, Note_on_c, 6, 76, 100
12, 43104, Note_on_c, 6, 76, 0
12, 43104, Note_on_c, 6, 69, 100
12, 43128, Note_on_c, 6, 69, 0
12, 43152, Note_on_c, 6, 74, 100
12, 43176, Note_on_c, 6, 74, 0
12, 43200, Note_on_c, 6, 72, 100
12, 43224, Note_on_c, 6, 72, 0
12, 43248, Note_on_c, 6, 76, 100
12, 43272, Note_on_c, 6, 76, 0
12, 43296, Note_on_c, 6, 74, 100
12, 43320, Note_on_c, 6, 74, 0
12, 43344, Note_on_c, 6, 71, 100
12, 43368, Note_on_c, 6, 71, 0
12, 43392, Note_on_c, 6, 72, 100
12, 43440, Note_on_c, 6, 72, 0
12, 43440, Note_on_c, 6, 64, 100
12, 43464, Note_on_c, 6, 64, 0
12, 43464, Note_on_c, 6, 76, 100
12, 43488, Note_on_c, 6, 76, 0
12, 43488, Note_on_c, 6, 67, 100
12, 43512, Note_on_c, 6, 67, 0
12, 43512, Note_on_c, 6, 79, 100
12, 43536, Note_on_c, 6, 79, 0
12, 43536, Note_on_c, 6, 65, 100
12, 43560, Note_on_c, 6, 65, 0
12, 43560, Note_on_c, 6, 77, 100
12, 43584, Note_on_c, 6, 77, 0
12, 43584, Note_on_c, 6, 64, 100
12, 43608, Note_on_c, 6, 64, 0
12, 43608, Note_on_c, 6, 76, 100
12, 43632, Note_on_c, 6, 76, 0
12, 43632, Note_on_c, 6, 62, 100
12, 43656, Note_on_c, 6, 62, 0
12, 43656, Note_on_c, 6, 74, 100
12, 43680, Note_on_c, 6, 74, 0
12, 43680, Note_on_c, 6, 73, 100
12, 43704, Note_on_c, 6, 73, 0
12, 43704, Note_on_c, 6, 81, 100
12, 43728, Note_on_c, 6, 81, 0
12, 43728, Note_on_c, 6, 74, 100
12, 43752, Note_on_c, 6, 74, 0
12, 43752, Note_on_c, 6, 81, 100
12, 43776, Note_on_c, 6, 81, 0
12, 43776, Note_on_c, 6, 73, 100
12, 43800, Note_on_c, 6, 73, 0
12, 43800, Note_on_c, 6, 81, 100
12, 43824, Note_on_c, 6, 81, 0
12, 43824, Note_on_c, 6, 70, 100
12, 43848, Note_on_c, 6, 70, 0
12, 43848, Note_on_c, 6, 81, 100
12, 43872, Note_on_c, 6, 81, 0
12, 43872, Note_on_c, 6, 81, 100
12, 43944, Note_on_c, 6, 81, 0
12, 43944, Note_on_c, 6, 83, 100
12, 43956, Note_on_c, 6, 83, 0
12, 43956, Note_on_c, 6, 85, 100
12, 43968, Note_on_c, 6, 85, 0
12, 43968, Note_on_c, 6, 86, 100
12, 44016, Note_on_c, 6, 86, 0
12, 44016, Note_on_c, 6, 69, 100
12, 44040, Note_on_c, 6, 69, 0
12, 44040, Note_on_c, 6, 81, 100
12, 44064, Note_on_c, 6, 81, 0
12, 44064, Note_on_c, 6, 66, 100
12, 44088, Note_on_c, 6, 66, 0
12, 44088, Note_on_c, 6, 78, 100
12, 44112, Note_on_c, 6, 78, 0
12, 44112, Note_on_c, 6, 63, 100
12, 44136, Note_on_c, 6, 63, 0
12, 44136, Note_on_c, 6, 75, 100
12, 44160, Note_on_c, 6, 75, 0
12, 44160, Note_on_c, 6, 62, 100
12, 44184, Note_on_c, 6, 62, 0
12, 44184, Note_on_c, 6, 74, 100
12, 44208, Note_on_c, 6, 74, 0
12, 44208, Note_on_c, 6, 60, 100
12, 44232, Note_on_c, 6, 60, 0
12, 44232, Note_on_c, 6, 72, 100
12, 44256, Note_on_c, 6, 72, 0
12, 44256, Note_on_c, 6, 71, 100
12, 44280, Note_on_c, 6, 71, 0
12, 44280, Note_on_c, 6, 79, 100
12, 44304, Note_on_c, 6, 79, 0
12, 44304, Note_on_c, 6, 72, 100
12, 44328, Note_on_c, 6, 72, 0
12, 44328, Note_on_c, 6, 79, 100
12, 44352, Note_on_c, 6, 79, 0
12, 44352, Note_on_c, 6, 71, 100
12, 44376, Note_on_c, 6, 71, 0
12, 44376, Note_on_c, 6, 79, 100
12, 44400, Note_on_c, 6, 79, 0
12, 44400, Note_on_c, 6, 69, 100
12, 44424, Note_on_c, 6, 69, 0
12, 44424, Note_on_c, 6, 79, 100
12, 44448, Note_on_c, 6, 79, 0
12, 44448, Note_on_c, 6, 79, 100
12, 44520, Note_on_c, 6, 79, 0
12, 44520, Note_on_c, 6, 81, 100
12, 44532, Note_on_c, 6, 81, 0
12, 44532, Note_on_c, 6, 83, 100
12, 44544, Note_on_c, 6, 83, 0
12, 44544, Note_on_c, 6, 84, 100
12, 44592, Note_on_c, 6, 84, 0
12, 44592, Note_on_c, 6, 67, 100
12, 44616, Note_on_c, 6, 67, 0
12, 44616, Note_on_c, 6, 79, 100
12, 44640, Note_on_c, 6, 79, 0
12, 44640, Note_on_c, 6, 64, 100
12, 44664, Note_on_c, 6, 64, 0
12, 44664, Note_on_c, 6, 76, 100
12, 44688, Note_on_c, 6, 76, 0
12, 44688, Note_on_c, 6, 62, 100
12, 44712, Note_on_c, 6, 62, 0
12, 44712, Note_on_c, 6, 74, 100
12, 44736, Note_on_c, 6, 74, 0
12, 44736, Note_on_c, 6, 60, 100
12, 44760, Note_on_c, 6, 60, 0
12, 44760, Note_on_c, 6, 72, 100
12, 44784, Note_on_c, 6, 72, 0
12, 44784, Note_on_c, 6, 59, 100
12, 44808, Note_on_c, 6, 59, 0
12, 44808, Note_on_c, 6, 71, 100
12, 44832, Note_on_c, 6, 71, 0
12, 44832, Note_on_c, 6, 69, 100
12, 44880, Note_on_c, 6, 69, 0
12, 44880, Note_on_c, 6, 72, 100
12, 44904, Note_on_c, 6, 72, 0
12, 44904, Note_on_c, 6, 81, 100
12, 44928, Note_on_c, 6, 81, 0
12, 44928, Note_on_c, 6, 75, 100
12, 44952, Note_on_c, 6, 75, 0
12, 44952, Note_on_c, 6, 81, 100
12, 44976, Note_on_c, 6, 81, 0
12, 44976, Note_on_c, 6, 72, 100
12, 45000, Note_on_c, 6, 72, 0
12, 45000, Note_on_c, 6, 81, 100
12, 45024, Note_on_c, 6, 81, 0
12, 45024, Note_on_c, 6, 76, 100
12, 45120, Note_on_c, 6, 76, 0
12, 45120, Note_on_c, 6, 74, 100
12, 45216, Note_on_c, 6, 74, 0
12, 45216, Note_on_c, 6, 79, 100
12, 45288, Note_on_c, 6, 79, 0
12, 45288, Note_on_c, 6, 81, 100
12, 45300, Note_on_c, 6, 81, 0
12, 45300, Note_on_c, 6, 83, 100
12, 45312, Note_on_c, 6, 83, 0
12, 45312, Note_on_c, 6, 84, 100
12, 45360, Note_on_c, 6, 84, 0
12, 45360, Note_on_c, 6, 76, 100
12, 45384, Note_on_c, 6, 76, 0
12, 45384, Note_on_c, 6, 79, 100
12, 45408, Note_on_c, 6, 79, 0
12, 45408, Note_on_c, 6, 74, 100
12, 45432, Note_on_c, 6, 74, 0
12, 45432, Note_on_c, 6, 77, 100
12, 45456, Note_on_c, 6, 77, 0
12, 45456, Note_on_c, 6, 74, 100
12, 45480, Note_on_c, 6, 74, 0
12, 45480, Note_on_c, 6, 77, 100
12, 45504, Note_on_c, 6, 77, 0
12, 45504, Note_on_c, 6, 72, 100
12, 45528, Note_on_c, 6, 72, 0
12, 45528, Note_on_c, 6, 76, 100
12, 45552, Note_on_c, 6, 76, 0
12, 45552, Note_on_c, 6, 72, 100
12, 45576, Note_on_c, 6, 72, 0
12, 45576, Note_on_c, 6, 76, 100
12, 45600, Note_on_c, 6, 76, 0
12, 45600, Note_on_c, 6, 71, 100
12, 45624, Note_on_c, 6, 71, 0
12, 45624, Note_on_c, 6, 74, 100
12, 45648, Note_on_c, 6, 74, 0
12, 45648, Note_on_c, 6, 71, 100
12, 45672, Note_on_c, 6, 71, 0
12, 45672, Note_on_c, 6, 74, 100
12, 45696, Note_on_c, 6, 74, 0
12, 45696, Note_on_c, 6, 72, 100
12, 45744, Note_on_c, 6, 72, 0
12, 45744, Note_on_c, 6, 55, 100
12, 45768, Note_on_c, 6, 55, 0
12, 45792, Note_on_c, 6, 55, 100
12, 45816, Note_on_c, 6, 55, 0
12, 45840, Note_on_c, 6, 55, 100
12, 45864, Note_on_c, 6, 55, 0
12, 45888, Note_on_c, 6, 55, 100
12, 45960, Note_on_c, 6, 55, 0
12, 45960, Note_on_c, 6, 57, 100
12, 45972, Note_on_c, 6, 57, 0
12, 45972, Note_on_c, 6, 59, 100
12, 45984, Note_on_c, 6, 59, 0
12, 45984, Note_on_c, 6, 60, 100
12, 46032, Note_on_c, 6, 60, 0
12, 46032, Note_on_c, 6, 55, 100
12, 46056, Note_on_c, 6, 55, 0
12, 46080, Note_on_c, 6, 55, 100
12, 46104, Note_on_c, 6, 55, 0
12, 46128, Note_on_c, 6, 55, 100
12, 46152, Note_on_c, 6, 55, 0
12, 46176, Note_on_c, 6, 55, 100
12, 46248, Note_on_c, 6, 55, 0
12, 46248, Note_on_c, 6, 57, 100
12, 46260, Note_on_c, 6, 57, 0
12, 46260, Note_on_c, 6, 59, 100
12, 46272, Note_on_c, 6, 59, 0
12, 46272, Note_on_c, 6, 60, 100
12, 46320, Note_on_c, 6, 60, 0
12, 46320, Note_on_c, 6, 64, 100
12, 46368, Note_on_c, 6, 64, 0
12, 46368, Note_on_c, 6, 67, 100
12, 46416, Note_on_c, 6, 67, 0
12, 46416, Note_on_c, 6, 66, 100
12, 46464, Note_on_c, 6, 66, 0
12, 46464, Note_on_c, 6, 67, 100
12, 46512, Note_on_c, 6, 67, 0
12, 46512, Note_on_c, 6, 55, 100
12, 46560, Note_on_c, 6, 55, 0
12, 46560, Note_on_c, 6, 60, 100
12, 46608, Note_on_c, 6, 60, 0
12, 46608, Note_on_c, 6, 79, 100
12, 46632, Note_on_c, 6, 79, 0
12, 46656, Note_on_c, 6, 79, 100
12, 46680, Note_on_c, 6, 79, 0
12, 46704, Note_on_c, 6, 79, 100
12, 46728, Note_on_c, 6, 79, 0
12, 46752, Note_on_c, 6, 79, 100
12, 46824, Note_on_c, 6, 79, 0
12, 46824, Note_on_c, 6, 81, 100
12, 46836, Note_on_c, 6, 81, 0
12, 46836, Note_on_c, 6, 83, 100
12, 46848, Note_on_c, 6, 83, 0
12, 46848, Note_on_c, 6, 84, 100
12, 46896, Note_on_c, 6, 84, 0
12, 46896, Note_on_c, 6, 79, 100
12, 46920, Note_on_c, 6, 79, 0
12, 46944, Note_on_c, 6, 79, 100
12, 46968, Note_on_c, 6, 79, 0
12, 46992, Note_on_c, 6, 79, 100
12, 47016, Note_on_c, 6, 79, 0
12, 47040, Note_on_c, 6, 79, 100
12, 47112, Note_on_c, 6, 79, 0
12, 47112, Note_on_c, 6, 81, 100
12, 47124, Note_on_c, 6, 81, 0
12, 47124, Note_on_c, 6, 83, 100
12, 47136, Note_on_c, 6, 83, 0
12, 47136, Note_on_c, 6, 84, 100
12, 47232, Note_on_c, 6, 84, 0
12, 47328, Note_on_c, 6, 79, 100
12, 47424, Note_on_c, 6, 79, 0
12, 47424, Note_on_c, 6, 76, 100
12, 47520, Note_on_c, 6, 76, 0
12, 47520, End_track
13, 0, Start_track
13, 0, Title_t, "Viola"
13, 0, Key_signature, 0, "major"
13, 0, Time_signature, 3, 2, 24, 8
13, 0, Time_signature, 3, 2, 24, 8
13, 0, Control_c, 6, 7, 80
13, 0, Program_c, 6, 48
13, 0, Note_on_c, 6, 67, 100
13, 0, Note_on_c, 6, 64, 100
13, 288, Note_on_c, 6, 64, 0
13, 288, Note_on_c, 6, 67, 0
13, 288, Note_on_c, 6, 67, 100
13, 288, Note_on_c, 6, 62, 100
13, 384, Note_on_c, 6, 62, 0
13, 384, Note_on_c, 6, 67, 0
13, 1152, Note_on_c, 6, 62, 100
13, 1152, Note_on_c, 6, 67, 100
13, 1440, Note_on_c, 6, 67, 0
13, 1440, Note_on_c, 6, 62, 0
13, 1440, Note_on_c, 6, 67, 100
13, 1536, Note_on_c, 6, 67, 0
13, 2304, Note_on_c, 6, 72, 100
13, 2400, Note_on_c, 6, 72, 0
13, 2400, Note_on_c, 6, 72, 100
13, 2496, Note_on_c, 6, 72, 0
13, 2496, Note_on_c, 6, 72, 100
13, 2592, Note_on_c, 6, 72, 0
13, 2592, Note_on_c, 6, 72, 100
13, 2688, Note_on_c, 6, 72, 0
13, 2688, Note_on_c, 6, 72, 100
13, 2784, Note_on_c, 6, 72, 0
13, 2976, Note_on_c, 6, 67, 100
13, 2976, Note_on_c, 6, 72, 100
13, 3072, Note_on_c, 6, 67, 0
13, 3072, Note_on_c, 6, 69, 100
13, 3168, Note_on_c, 6, 72, 0
13, 3168, Note_on_c, 6, 69, 0
13, 3168, Note_on_c, 6, 67, 100
13, 3168, Note_on_c, 6, 64, 100
13, 3264, Note_on_c, 6, 64, 0
13, 3264, Note_on_c, 6, 62, 100
13, 3360, Note_on_c, 6, 62, 0
13, 3360, Note_on_c, 6, 67, 0
13, 3552, Note_on_c, 6, 60, 100
13, 3552, Note_on_c, 6, 67, 100
13, 3648, Note_on_c, 6, 67, 0
13, 3648, Note_on_c, 6, 60, 0
13, 3648, Note_on_c, 6, 67, 100
13, 3744, Note_on_c, 6, 67, 0
13, 3744, Note_on_c, 6, 67, 100
13, 3744, Note_on_c, 6, 65, 100
13, 3840, Note_on_c, 6, 65, 0
13, 3840, Note_on_c, 6, 64, 100
13, 3936, Note_on_c, 6, 64, 0
13, 3936, Note_on_c, 6, 67, 0
13, 4128, Note_on_c, 6, 64, 100
13, 4128, Note_on_c, 6, 72, 100
13, 4224, Note_on_c, 6, 64, 0
13, 4224, Note_on_c, 6, 65, 100
13, 4320, Note_on_c, 6, 72, 0
13, 4320, Note_on_c, 6, 65, 0
13, 4416, Note_on_c, 6, 71, 100
13, 4416, Note_on_c, 6, 64, 100
13, 4512, Note_on_c, 6, 64, 0
13, 4512, Note_on_c, 6, 71, 0
13, 4512, Note_on_c, 6, 64, 100
13, 4608, Note_on_c, 6, 64, 0
13, 4704, Note_on_c, 6, 69, 100
13, 4704, Note_on_c, 6, 72, 100
13, 4800, Note_on_c, 6, 72, 0
13, 4800, Note_on_c, 6, 69, 0
13, 4800, Note_on_c, 6, 74, 100
13, 4896, Note_on_c, 6, 74, 0
13, 4896, Note_on_c, 6, 62, 100
13, 4992, Note_on_c, 6, 62, 0
13, 4992, Note_on_c, 6, 74, 100
13, 5088, Note_on_c, 6, 74, 0
13, 5088, Note_on_c, 6, 72, 100
13, 5184, Note_on_c, 6, 72, 0
13, 5184, Note_on_c, 6, 65, 100
13, 5280, Note_on_c, 6, 65, 0
13, 5280, Note_on_c, 6, 67, 100
13, 5472, Note_on_c, 6, 67, 0
13, 5472, Note_on_c, 6, 67, 100
13, 5568, Note_on_c, 6, 67, 0
13, 5568, Note_on_c, 6, 74, 100
13, 5664, Note_on_c, 6, 74, 0
13, 5664, Note_on_c, 6, 72, 100
13, 5760, Note_on_c, 6, 72, 0
13, 5760, Note_on_c, 6, 65, 100
13, 5856, Note_on_c, 6, 65, 0
13, 5856, Note_on_c, 6, 67, 100
13, 6048, Note_on_c, 6, 67, 0
13, 6048, Note_on_c, 6, 67, 100
13, 6144, Note_on_c, 6, 67, 0
13, 7248, Note_on_c, 6, 65, 100
13, 7272, Note_on_c, 6, 65, 0
13, 7296, Note_on_c, 6, 64, 100
13, 7320, Note_on_c, 6, 64, 0
13, 7344, Note_on_c, 6, 62, 100
13, 7368, Note_on_c, 6, 62, 0
13, 7392, Note_on_c, 6, 61, 100
13, 7416, Note_on_c, 6, 61, 0
13, 7440, Note_on_c, 6, 58, 100
13, 7464, Note_on_c, 6, 58, 0
13, 7488, Note_on_c, 6, 57, 100
13, 7512, Note_on_c, 6, 57, 0
13, 7536, Note_on_c, 6, 58, 100
13, 7560, Note_on_c, 6, 58, 0
13, 7584, Note_on_c, 6, 57, 100
13, 7608, Note_on_c, 6, 57, 0
13, 7632, Note_on_c, 6, 55, 100
13, 7656, Note_on_c, 6, 55, 0
13, 7680, Note_on_c, 6, 57, 100
13, 7704, Note_on_c, 6, 57, 0
13, 7728, Note_on_c, 6, 55, 100
13, 7752, Note_on_c, 6, 55, 0
13, 7776, Note_on_c, 6, 53, 100
13, 7800, Note_on_c, 6, 53, 0
13, 7824, Note_on_c, 6, 65, 100
13, 7848, Note_on_c, 6, 65, 0
13, 7872, Note_on_c, 6, 64, 100
13, 7896, Note_on_c, 6, 64, 0
13, 7920, Note_on_c, 6, 62, 100
13, 7944, Note_on_c, 6, 62, 0
13, 7968, Note_on_c, 6, 61, 100
13, 7992, Note_on_c, 6, 61, 0
13, 8016, Note_on_c, 6, 58, 100
13, 8040, Note_on_c, 6, 58, 0
13, 8064, Note_on_c, 6, 57, 100
13, 8088, Note_on_c, 6, 57, 0
13, 8112, Note_on_c, 6, 58, 100
13, 8136, Note_on_c, 6, 58, 0
13, 8160, Note_on_c, 6, 57, 100
13, 8184, Note_on_c, 6, 57, 0
13, 8208, Note_on_c, 6, 55, 100
13, 8232, Note_on_c, 6, 55, 0
13, 8256, Note_on_c, 6, 57, 100
13, 8280, Note_on_c, 6, 57, 0
13, 8304, Note_on_c, 6, 55, 100
13, 8328, Note_on_c, 6, 55, 0
13, 8352, Note_on_c, 6, 53, 100
13, 8448, Note_on_c, 6, 53, 0
13, 8976, Note_on_c, 6, 64, 100
13, 9000, Note_on_c, 6, 64, 0
13, 9024, Note_on_c, 6, 62, 100
13, 9048, Note_on_c, 6, 62, 0
13, 9072, Note_on_c, 6, 60, 100
13, 9096, Note_on_c, 6, 60, 0
13, 9120, Note_on_c, 6, 59, 100
13, 9144, Note_on_c, 6, 59, 0
13, 9168, Note_on_c, 6, 57, 100
13, 9192, Note_on_c, 6, 57, 0
13, 9216, Note_on_c, 6, 55, 100
13, 9240, Note_on_c, 6, 55, 0
13, 9264, Note_on_c, 6, 57, 100
13, 9288, Note_on_c, 6, 57, 0
13, 9312, Note_on_c, 6, 55, 100
13, 9336, Note_on_c, 6, 55, 0
13, 9360, Note_on_c, 6, 53, 100
13, 9384, Note_on_c, 6, 53, 0
13, 9408, Note_on_c, 6, 55, 100
13, 9432, Note_on_c, 6, 55, 0
13, 9456, Note_on_c, 6, 53, 100
13, 9480, Note_on_c, 6, 53, 0
13, 9504, Note_on_c, 6, 52, 100
13, 9528, Note_on_c, 6, 52, 0
13, 9552, Note_on_c, 6, 64, 100
13, 9576, Note_on_c, 6, 64, 0
13, 9600, Note_on_c, 6, 62, 100
13, 9624, Note_on_c, 6, 62, 0
13, 9648, Note_on_c, 6, 60, 100
13, 9672, Note_on_c, 6, 60, 0
13, 9696, Note_on_c, 6, 59, 100
13, 9720, Note_on_c, 6, 59, 0
13, 9744, Note_on_c, 6, 57, 100
13, 9768, Note_on_c, 6, 57, 0
13, 9792, Note_on_c, 6, 55, 100
13, 9816, Note_on_c, 6, 55, 0
13, 9840, Note_on_c, 6, 57, 100
13, 9864, Note_on_c, 6, 57, 0
13, 9888, Note_on_c, 6, 55, 100
13, 9912, Note_on_c, 6, 55, 0
13, 9936, Note_on_c, 6, 53, 100
13, 9960, Note_on_c, 6, 53, 0
13, 9984, Note_on_c, 6, 55, 100
13, 10008, Note_on_c, 6, 55, 0
13, 10032, Note_on_c, 6, 53, 100
13, 10056, Note_on_c, 6, 53, 0
13, 10080, Note_on_c, 6, 52, 100
13, 10128, Note_on_c, 6, 52, 0
13, 10128, Note_on_c, 6, 67, 100
13, 10224, Note_on_c, 6, 67, 0
13, 10224, Note_on_c, 6, 67, 100
13, 10320, Note_on_c, 6, 67, 0
13, 10320, Note_on_c, 6, 67, 100
13, 10368, Note_on_c, 6, 67, 0
13, 10368, Note_on_c, 6, 66, 100
13, 10416, Note_on_c, 6, 66, 0
13, 10416, Note_on_c, 6, 66, 100
13, 10512, Note_on_c, 6, 66, 0
13, 10512, Note_on_c, 6, 66, 100
13, 10608, Note_on_c, 6, 66, 0
13, 10608, Note_on_c, 6, 66, 100
13, 10656, Note_on_c, 6, 66, 0
13, 10656, Note_on_c, 6, 71, 100
13, 10656, Note_on_c, 6, 67, 100
13, 10704, Note_on_c, 6, 67, 0
13, 10704, Note_on_c, 6, 71, 0
13, 10704, Note_on_c, 6, 71, 100
13, 10704, Note_on_c, 6, 67, 100
13, 10800, Note_on_c, 6, 67, 0
13, 10800, Note_on_c, 6, 71, 0
13, 10800, Note_on_c, 6, 71, 100
13, 10800, Note_on_c, 6, 67, 100
13, 10896, Note_on_c, 6, 67, 0
13, 10896, Note_on_c, 6, 71, 0
13, 10896, Note_on_c, 6, 67, 100
13, 10896, Note_on_c, 6, 67, 100
13, 10944, Note_on_c, 6, 67, 0
13, 10944, Note_on_c, 6, 67, 0
13, 10944, Note_on_c, 6, 67, 100
13, 10944, Note_on_c, 6, 64, 100
13, 10992, Note_on_c, 6, 64, 0
13, 10992, Note_on_c, 6, 67, 0
13, 10992, Note_on_c, 6, 67, 100
13, 10992, Note_on_c, 6, 64, 100
13, 11088, Note_on_c, 6, 64, 0
13, 11088, Note_on_c, 6, 67, 0
13, 11088, Note_on_c, 6, 67, 100
13, 11088, Note_on_c, 6, 64, 100
13, 11184, Note_on_c, 6, 64, 0
13, 11184, Note_on_c, 6, 67, 0
13, 11184, Note_on_c, 6, 64, 100
13, 11184, Note_on_c, 6, 67, 100
13, 11232, Note_on_c, 6, 67, 0
13, 11232, Note_on_c, 6, 64, 0
13, 11232, Note_on_c, 6, 69, 100
13, 11232, Note_on_c, 6, 65, 100
13, 11280, Note_on_c, 6, 65, 0
13, 11280, Note_on_c, 6, 69, 0
13, 11280, Note_on_c, 6, 69, 100
13, 11280, Note_on_c, 6, 65, 100
13, 11376, Note_on_c, 6, 65, 0
13, 11376, Note_on_c, 6, 69, 0
13, 11376, Note_on_c, 6, 69, 100
13, 11376, Note_on_c, 6, 65, 100
13, 11472, Note_on_c, 6, 65, 0
13, 11472, Note_on_c, 6, 69, 0
13, 11472, Note_on_c, 6, 65, 100
13, 11472, Note_on_c, 6, 65, 100
13, 11520, Note_on_c, 6, 65, 0
13, 11520, Note_on_c, 6, 65, 0
13, 11520, Note_on_c, 6, 62, 100
13, 11520, Note_on_c, 6, 65, 100
13, 11568, Note_on_c, 6, 65, 0
13, 11568, Note_on_c, 6, 62, 0
13, 11568, Note_on_c, 6, 62, 100
13, 11568, Note_on_c, 6, 65, 100
13, 11664, Note_on_c, 6, 62, 100
13, 11664, Note_on_c, 6, 65, 100
13, 11712, Note_on_c, 6, 65, 0
13, 11712, Note_on_c, 6, 62, 0
13, 11760, Note_on_c, 6, 62, 100
13, 11760, Note_on_c, 6, 65, 100
13, 11808, Note_on_c, 6, 65, 0
13, 11808, Note_on_c, 6, 62, 0
13, 11808, Note_on_c, 6, 65, 0
13, 11808, Note_on_c, 6, 62, 0
13, 11808, Note_on_c, 6, 60, 100
13, 11808, Note_on_c, 6, 67, 100
13, 11904, Note_on_c, 6, 67, 0
13, 11904, Note_on_c, 6, 60, 0
13, 11904, Note_on_c, 6, 60, 100
13, 11952, Note_on_c, 6, 60, 0
13, 11952, Note_on_c, 6, 67, 100
13, 12000, Note_on_c, 6, 67, 0
13, 12000, Note_on_c, 6, 63, 100
13, 12048, Note_on_c, 6, 63, 0
13, 12048, Note_on_c, 6, 60, 100
13, 12096, Note_on_c, 6, 60, 0
13, 12096, Note_on_c, 6, 62, 100
13, 12144, Note_on_c, 6, 62, 0
13, 12144, Note_on_c, 6, 64, 100
13, 12168, Note_on_c, 6, 64, 0
13, 12168, Note_on_c, 6, 66, 100
13, 12192, Note_on_c, 6, 66, 0
13, 12192, Note_on_c, 6, 67, 100
13, 12216, Note_on_c, 6, 67, 0
13, 12216, Note_on_c, 6, 69, 100
13, 12240, Note_on_c, 6, 69, 0
13, 12240, Note_on_c, 6, 71, 100
13, 12264, Note_on_c, 6, 71, 0
13, 12264, Note_on_c, 6, 72, 100
13, 12288, Note_on_c, 6, 72, 0
13, 12288, Note_on_c, 6, 74, 100
13, 12336, Note_on_c, 6, 74, 0
13, 12336, Note_on_c, 6, 62, 100
13, 12384, Note_on_c, 6, 62, 0
13, 12384, Note_on_c, 6, 60, 100
13, 12432, Note_on_c, 6, 60, 0
13, 12432, Note_on_c, 6, 62, 100
13, 12456, Note_on_c, 6, 62, 0
13, 12456, Note_on_c, 6, 64, 100
13, 12480, Note_on_c, 6, 64, 0
13, 12480, Note_on_c, 6, 66, 100
13, 12504, Note_on_c, 6, 66, 0
13, 12504, Note_on_c, 6, 67, 100
13, 12528, Note_on_c, 6, 67, 0
13, 12528, Note_on_c, 6, 69, 100
13, 12552, Note_on_c, 6, 69, 0
13, 12552, Note_on_c, 6, 71, 100
13, 12576, Note_on_c, 6, 71, 0
13, 12576, Note_on_c, 6, 72, 100
13, 12624, Note_on_c, 6, 72, 0
13, 12624, Note_on_c, 6, 60, 100
13, 12672, Note_on_c, 6, 60, 0
13, 12672, Note_on_c, 6, 59, 100
13, 12720, Note_on_c, 6, 59, 0
13, 12720, Note_on_c, 6, 60, 100
13, 12744, Note_on_c, 6, 60, 0
13, 12744, Note_on_c, 6, 62, 100
13, 12768, Note_on_c, 6, 62, 0
13, 12768, Note_on_c, 6, 64, 100
13, 12792, Note_on_c, 6, 64, 0
13, 12792, Note_on_c, 6, 66, 100
13, 12816, Note_on_c, 6, 66, 0
13, 12816, Note_on_c, 6, 67, 100
13, 12840, Note_on_c, 6, 67, 0
13, 12840, Note_on_c, 6, 69, 100
13, 12864, Note_on_c, 6, 69, 0
13, 12864, Note_on_c, 6, 71, 100
13, 12912, Note_on_c, 6, 71, 0
13, 12912, Note_on_c, 6, 59, 100
13, 12960, Note_on_c, 6, 59, 0
13, 12960, Note_on_c, 6, 57, 100
13, 13008, Note_on_c, 6, 57, 0
13, 13008, Note_on_c, 6, 59, 100
13, 13032, Note_on_c, 6, 59, 0
13, 13032, Note_on_c, 6, 60, 100
13, 13056, Note_on_c, 6, 60, 0
13, 13056, Note_on_c, 6, 62, 100
13, 13080, Note_on_c, 6, 62, 0
13, 13080, Note_on_c, 6, 64, 100
13, 13104, Note_on_c, 6, 64, 0
13, 13104, Note_on_c, 6, 66, 100
13, 13128, Note_on_c, 6, 66, 0
13, 13128, Note_on_c, 6, 67, 100
13, 13152, Note_on_c, 6, 67, 0
13, 13152, Note_on_c, 6, 69, 100
13, 13200, Note_on_c, 6, 69, 0
13, 13200, Note_on_c, 6, 57, 100
13, 13248, Note_on_c, 6, 57, 0
13, 13248, Note_on_c, 6, 55, 100
13, 13296, Note_on_c, 6, 55, 0
13, 13296, Note_on_c, 6, 57, 100
13, 13320, Note_on_c, 6, 57, 0
13, 13320, Note_on_c, 6, 59, 100
13, 13344, Note_on_c, 6, 59, 0
13, 13344, Note_on_c, 6, 60, 100
13, 13368, Note_on_c, 6, 60, 0
13, 13368, Note_on_c, 6, 62, 100
13, 13392, Note_on_c, 6, 62, 0
13, 13392, Note_on_c, 6, 64, 100
13, 13416, Note_on_c, 6, 64, 0
13, 13416, Note_on_c, 6, 66, 100
13, 13440, Note_on_c, 6, 66, 0
13, 13440, Note_on_c, 6, 67, 100
13, 13488, Note_on_c, 6, 67, 0
13, 13488, Note_on_c, 6, 59, 100
13, 13536, Note_on_c, 6, 59, 0
13, 13536, Note_on_c, 6, 64, 100
13, 13584, Note_on_c, 6, 64, 0
13, 13584, Note_on_c, 6, 64, 100
13, 13632, Note_on_c, 6, 64, 0
13, 13632, Note_on_c, 6, 64, 100
13, 13680, Note_on_c, 6, 64, 0
13, 13680, Note_on_c, 6, 64, 100
13, 13728, Note_on_c, 6, 64, 0
13, 13728, Note_on_c, 6, 59, 100
13, 13776, Note_on_c, 6, 59, 0
13, 13776, Note_on_c, 6, 59, 100
13, 13824, Note_on_c, 6, 59, 0
13, 13824, Note_on_c, 6, 57, 100
13, 13872, Note_on_c, 6, 57, 0
13, 13872, Note_on_c, 6, 64, 100
13, 13920, Note_on_c, 6, 64, 0
13, 13920, Note_on_c, 6, 55, 100
13, 13968, Note_on_c, 6, 55, 0
13, 13968, Note_on_c, 6, 62, 100
13, 14016, Note_on_c, 6, 62, 0
13, 14016, Note_on_c, 6, 54, 100
13, 14064, Note_on_c, 6, 54, 0
13, 14064, Note_on_c, 6, 62, 100
13, 14112, Note_on_c, 6, 62, 0
13, 14112, Note_on_c, 6, 62, 100
13, 14208, Note_on_c, 6, 62, 0
13, 14208, Note_on_c, 6, 55, 100
13, 14256, Note_on_c, 6, 55, 0
13, 14256, Note_on_c, 6, 57, 100
13, 14280, Note_on_c, 6, 57, 0
13, 14280, Note_on_c, 6, 59, 100
13, 14304, Note_on_c, 6, 59, 0
13, 14304, Note_on_c, 6, 60, 100
13, 14328, Note_on_c, 6, 60, 0
13, 14328, Note_on_c, 6, 62, 100
13, 14352, Note_on_c, 6, 62, 0
13, 14352, Note_on_c, 6, 64, 100
13, 14376, Note_on_c, 6, 64, 0
13, 14376, Note_on_c, 6, 66, 100
13, 14400, Note_on_c, 6, 66, 0
13, 14400, Note_on_c, 6, 67, 100
13, 14496, Note_on_c, 6, 67, 0
13, 14688, Note_on_c, 6, 59, 100
13, 14736, Note_on_c, 6, 59, 0
13, 14736, Note_on_c, 6, 59, 100
13, 14784, Note_on_c, 6, 59, 0
13, 14784, Note_on_c, 6, 59, 100
13, 14832, Note_on_c, 6, 59, 0
13, 14832, Note_on_c, 6, 59, 100
13, 14880, Note_on_c, 6, 59, 0
13, 14880, Note_on_c, 6, 64, 100
13, 14928, Note_on_c, 6, 64, 0
13, 14928, Note_on_c, 6, 64, 100
13, 14976, Note_on_c, 6, 64, 0
13, 14976, Note_on_c, 6, 61, 100
13, 15024, Note_on_c, 6, 61, 0
13, 15024, Note_on_c, 6, 61, 100
13, 15072, Note_on_c, 6, 61, 0
13, 15072, Note_on_c, 6, 61, 100
13, 15120, Note_on_c, 6, 61, 0
13, 15120, Note_on_c, 6, 61, 100
13, 15156, Note_on_c, 6, 61, 0
13, 15156, Note_on_c, 6, 62, 100
13, 15168, Note_on_c, 6, 62, 0
13, 15168, Note_on_c, 6, 61, 100
13, 15216, Note_on_c, 6, 61, 0
13, 15216, Note_on_c, 6, 59, 100
13, 15240, Note_on_c, 6, 59, 0
13, 15240, Note_on_c, 6, 61, 100
13, 15264, Note_on_c, 6, 61, 0
13, 15264, Note_on_c, 6, 62, 100
13, 15288, Note_on_c, 6, 62, 0
13, 15312, Note_on_c, 6, 62, 100
13, 15360, Note_on_c, 6, 62, 0
13, 15360, Note_on_c, 6, 64, 100
13, 15408, Note_on_c, 6, 64, 0
13, 15408, Note_on_c, 6, 66, 100
13, 15456, Note_on_c, 6, 66, 0
13, 15456, Note_on_c, 6, 67, 100
13, 15504, Note_on_c, 6, 67, 0
13, 15504, Note_on_c, 6, 69, 100
13, 15552, Note_on_c, 6, 69, 0
13, 15552, Control_c, 6, 7, 40
13, 15552, Note_on_c, 6, 71, 100
13, 15600, Note_on_c, 6, 71, 0
13, 15600, Note_on_c, 6, 67, 100
13, 15648, Note_on_c, 6, 67, 0
13, 15648, Note_on_c, 6, 71, 100
13, 15696, Note_on_c, 6, 71, 0
13, 15696, Note_on_c, 6, 74, 100
13, 15744, Note_on_c, 6, 74, 0
13, 15744, Note_on_c, 6, 72, 100
13, 15792, Note_on_c, 6, 72, 0
13, 15792, Note_on_c, 6, 71, 100
13, 15840, Note_on_c, 6, 71, 0
13, 15840, Note_on_c, 6, 71, 100
13, 15888, Note_on_c, 6, 71, 0
13, 15888, Note_on_c, 6, 69, 100
13, 15936, Note_on_c, 6, 69, 0
13, 16800, Control_c, 6, 7, 80
13, 16800, Note_on_c, 6, 67, 100
13, 16992, Note_on_c, 6, 67, 0
13, 16992, Note_on_c, 6, 71, 100
13, 17088, Note_on_c, 6, 71, 0
13, 17088, Note_on_c, 6, 69, 100
13, 17184, Note_on_c, 6, 69, 0
13, 17376, Note_on_c, 6, 67, 100
13, 17472, Note_on_c, 6, 67, 0
13, 17472, Note_on_c, 6, 74, 100
13, 17568, Note_on_c, 6, 74, 0
13, 17568, Note_on_c, 6, 72, 100
13, 17664, Note_on_c, 6, 72, 0
13, 17664, Note_on_c, 6, 71, 100
13, 17760, Note_on_c, 6, 71, 0
13, 17952, Note_on_c, 6, 67, 100
13, 18048, Note_on_c, 6, 67, 0
13, 18048, Note_on_c, 6, 71, 100
13, 18144, Note_on_c, 6, 71, 0
13, 18240, Note_on_c, 6, 62, 100
13, 18336, Note_on_c, 6, 62, 0
13, 18336, Note_on_c, 6, 67, 100
13, 18432, Note_on_c, 6, 67, 0
13, 18528, Note_on_c, 6, 71, 100
13, 18624, Note_on_c, 6, 71, 0
13, 18624, Note_on_c, 6, 69, 100
13, 18648, Note_on_c, 6, 69, 0
13, 18672, Note_on_c, 6, 68, 100
13, 18696, Note_on_c, 6, 68, 0
13, 18720, Note_on_c, 6, 69, 100
13, 18912, Note_on_c, 6, 69, 0
13, 18912, Note_on_c, 6, 66, 100
13, 19008, Note_on_c, 6, 66, 0
13, 19008, Note_on_c, 6, 64, 100
13, 19104, Note_on_c, 6, 64, 0
13, 19296, Note_on_c, 6, 57, 100
13, 19368, Note_on_c, 6, 57, 0
13, 19368, Note_on_c, 6, 57, 100
13, 19392, Note_on_c, 6, 57, 0
13, 19392, Note_on_c, 6, 56, 100
13, 19440, Note_on_c, 6, 56, 0
13, 19440, Note_on_c, 6, 57, 100
13, 19488, Note_on_c, 6, 57, 0
13, 19488, Note_on_c, 6, 59, 100
13, 19536, Note_on_c, 6, 59, 0
13, 19536, Note_on_c, 6, 60, 100
13, 19584, Note_on_c, 6, 60, 0
13, 19584, Note_on_c, 6, 62, 100
13, 19872, Note_on_c, 6, 62, 0
13, 19872, Note_on_c, 6, 60, 100
13, 19920, Note_on_c, 6, 60, 0
13, 19920, Note_on_c, 6, 57, 100
13, 19968, Note_on_c, 6, 57, 0
13, 19968, Note_on_c, 6, 56, 100
13, 20016, Note_on_c, 6, 56, 0
13, 20016, Note_on_c, 6, 57, 100
13, 20064, Note_on_c, 6, 57, 0
13, 20064, Note_on_c, 6, 59, 100
13, 20112, Note_on_c, 6, 59, 0
13, 20112, Note_on_c, 6, 60, 100
13, 20160, Note_on_c, 6, 60, 0
13, 20160, Note_on_c, 6, 62, 100
13, 20448, Note_on_c, 6, 62, 0
13, 20448, Note_on_c, 6, 60, 100
13, 20544, Note_on_c, 6, 60, 0
13, 20640, Note_on_c, 6, 60, 100
13, 20736, Note_on_c, 6, 60, 0
13, 20736, Note_on_c, 6, 65, 100
13, 20784, Note_on_c, 6, 65, 0
13, 20784, Note_on_c, 6, 65, 100
13, 20880, Note_on_c, 6, 65, 0
13, 20880, Note_on_c, 6, 64, 100
13, 20928, Note_on_c, 6, 64, 0
13, 20928, Note_on_c, 6, 65, 100
13, 20976, Note_on_c, 6, 65, 0
13, 20976, Note_on_c, 6, 64, 100
13, 21024, Note_on_c, 6, 64, 0
13, 21024, Note_on_c, 6, 65, 100
13, 21072, Note_on_c, 6, 65, 0
13, 21072, Note_on_c, 6, 65, 100
13, 21168, Note_on_c, 6, 65, 0
13, 21168, Note_on_c, 6, 64, 100
13, 21216, Note_on_c, 6, 64, 0
13, 21216, Note_on_c, 6, 65, 100
13, 21264, Note_on_c, 6, 65, 0
13, 21264, Note_on_c, 6, 64, 100
13, 21312, Note_on_c, 6, 64, 0
13, 21312, Note_on_c, 6, 65, 100
13, 21360, Note_on_c, 6, 65, 0
13, 21360, Note_on_c, 6, 65, 100
13, 21408, Note_on_c, 6, 65, 0
13, 21408, Note_on_c, 6, 65, 100
13, 21456, Note_on_c, 6, 65, 0
13, 21456, Note_on_c, 6, 65, 100
13, 21504, Note_on_c, 6, 65, 0
13, 21504, Note_on_c, 6, 67, 100
13, 21552, Note_on_c, 6, 67, 0
13, 21552, Note_on_c, 6, 67, 100
13, 21600, Note_on_c, 6, 67, 0
13, 21600, Control_c, 6, 7, 127
13, 21600, Note_on_c, 6, 60, 100
13, 21636, Control_c, 6, 7, 80
13, 21648, Note_on_c, 6, 60, 0
13, 21648, Note_on_c, 6, 63, 100
13, 21696, Note_on_c, 6, 63, 0
13, 21696, Note_on_c, 6, 63, 100
13, 21744, Note_on_c, 6, 63, 0
13, 21744, Note_on_c, 6, 63, 100
13, 21792, Note_on_c, 6, 63, 0
13, 21792, Note_on_c, 6, 63, 100
13, 21840, Note_on_c, 6, 63, 0
13, 21840, Note_on_c, 6, 63, 100
13, 21888, Note_on_c, 6, 63, 0
13, 21888, Control_c, 6, 7, 127
13, 21888, Note_on_c, 6, 56, 100
13, 21924, Control_c, 6, 7, 80
13, 21936, Note_on_c, 6, 56, 0
13, 21936, Note_on_c, 6, 62, 100
13, 21984, Note_on_c, 6, 62, 0
13, 21984, Note_on_c, 6, 62, 100
13, 22032, Note_on_c, 6, 62, 0
13, 22032, Note_on_c, 6, 62, 100
13, 22080, Note_on_c, 6, 62, 0
13, 22080, Note_on_c, 6, 62, 100
13, 22128, Note_on_c, 6, 62, 0
13, 22128, Note_on_c, 6, 62, 100
13, 22176, Note_on_c, 6, 62, 0
13, 22176, Control_c, 6, 7, 127
13, 22176, Note_on_c, 6, 58, 100
13, 22212, Control_c, 6, 7, 80
13, 22224, Note_on_c, 6, 58, 0
13, 22224, Note_on_c, 6, 61, 100
13, 22272, Note_on_c, 6, 61, 0
13, 22272, Note_on_c, 6, 61, 100
13, 22320, Note_on_c, 6, 61, 0
13, 22320, Note_on_c, 6, 61, 100
13, 22368, Note_on_c, 6, 61, 0
13, 22368, Note_on_c, 6, 61, 100
13, 22416, Note_on_c, 6, 61, 0
13, 22416, Note_on_c, 6, 61, 100
13, 22464, Note_on_c, 6, 61, 0
13, 22464, Control_c, 6, 7, 127
13, 22464, Note_on_c, 6, 54, 100
13, 22500, Control_c, 6, 7, 80
13, 22512, Note_on_c, 6, 54, 0
13, 22512, Note_on_c, 6, 60, 100
13, 22560, Note_on_c, 6, 60, 0
13, 22560, Note_on_c, 6, 60, 100
13, 22608, Note_on_c, 6, 60, 0
13, 22608, Note_on_c, 6, 60, 100
13, 22656, Note_on_c, 6, 60, 0
13, 22656, Note_on_c, 6, 60, 100
13, 22704, Note_on_c, 6, 60, 0
13, 22704, Note_on_c, 6, 60, 100
13, 22752, Note_on_c, 6, 60, 0
13, 22752, Control_c, 6, 7, 127
13, 22752, Note_on_c, 6, 56, 100
13, 22788, Control_c, 6, 7, 80
13, 22800, Note_on_c, 6, 56, 0
13, 22800, Note_on_c, 6, 59, 100
13, 22848, Note_on_c, 6, 59, 0
13, 22848, Note_on_c, 6, 59, 100
13, 22896, Note_on_c, 6, 59, 0
13, 22896, Note_on_c, 6, 59, 100
13, 22944, Note_on_c, 6, 59, 0
13, 22944, Control_c, 6, 7, 80
13, 22944, Note_on_c, 6, 57, 100
13, 22992, Note_on_c, 6, 57, 0
13, 22992, Note_on_c, 6, 57, 100
13, 23040, Note_on_c, 6, 57, 0
13, 23040, Note_on_c, 6, 57, 100
13, 23088, Note_on_c, 6, 57, 0
13, 23088, Note_on_c, 6, 57, 100
13, 23136, Note_on_c, 6, 57, 0
13, 23136, Note_on_c, 6, 57, 100
13, 23184, Note_on_c, 6, 57, 0
13, 23184, Note_on_c, 6, 57, 100
13, 23232, Note_on_c, 6, 57, 0
13, 23232, Note_on_c, 6, 56, 100
13, 23280, Note_on_c, 6, 56, 0
13, 23280, Note_on_c, 6, 59, 100
13, 23328, Note_on_c, 6, 59, 0
13, 23328, Note_on_c, 6, 57, 100
13, 23424, Note_on_c, 6, 57, 0
13, 23424, Note_on_c, 6, 57, 100
13, 23472, Note_on_c, 6, 57, 0
13, 23472, Note_on_c, 6, 59, 100
13, 23496, Note_on_c, 6, 59, 0
13, 23496, Note_on_c, 6, 60, 100
13, 23520, Note_on_c, 6, 60, 0
13, 23520, Note_on_c, 6, 62, 100
13, 23544, Note_on_c, 6, 62, 0
13, 23544, Note_on_c, 6, 64, 100
13, 23568, Note_on_c, 6, 64, 0
13, 23568, Note_on_c, 6, 65, 100
13, 23592, Note_on_c, 6, 65, 0
13, 23592, Note_on_c, 6, 68, 100
13, 23616, Note_on_c, 6, 68, 0
13, 23616, Note_on_c, 6, 69, 100
13, 23664, Note_on_c, 6, 69, 0
13, 23664, Note_on_c, 6, 57, 100
13, 23712, Note_on_c, 6, 57, 0
13, 23712, Note_on_c, 6, 57, 100
13, 23760, Note_on_c, 6, 57, 0
13, 23760, Note_on_c, 6, 57, 100
13, 23808, Note_on_c, 6, 57, 0
13, 23808, Note_on_c, 6, 57, 100
13, 23856, Note_on_c, 6, 57, 0
13, 23856, Note_on_c, 6, 57, 100
13, 23904, Note_on_c, 6, 57, 0
13, 23904, Note_on_c, 6, 58, 100
13, 23952, Note_on_c, 6, 58, 0
13, 23952, Note_on_c, 6, 58, 100
13, 24000, Note_on_c, 6, 58, 0
13, 24000, Note_on_c, 6, 58, 100
13, 24048, Note_on_c, 6, 58, 0
13, 24048, Note_on_c, 6, 58, 100
13, 24096, Note_on_c, 6, 58, 0
13, 24096, Note_on_c, 6, 58, 100
13, 24144, Note_on_c, 6, 58, 0
13, 24144, Note_on_c, 6, 58, 100
13, 24192, Note_on_c, 6, 58, 0
13, 24192, Note_on_c, 6, 64, 100
13, 24384, Note_on_c, 6, 64, 0
13, 24384, Note_on_c, 6, 62, 100
13, 24480, Note_on_c, 6, 62, 0
13, 24480, Note_on_c, 6, 69, 100
13, 24504, Note_on_c, 6, 69, 0
13, 24576, Note_on_c, 6, 67, 100
13, 24600, Note_on_c, 6, 67, 0
13, 24672, Note_on_c, 6, 65, 100
13, 24696, Note_on_c, 6, 65, 0
13, 24768, Time_signature, 5, 2, 24, 8
13, 24768, Time_signature, 5, 2, 24, 8
13, 24768, Note_on_c, 6, 64, 100
13, 24960, Note_on_c, 6, 64, 0
13, 24960, Note_on_c, 6, 62, 100
13, 25152, Note_on_c, 6, 62, 0
13, 25248, Time_signature, 3, 2, 24, 8
13, 25248, Time_signature, 3, 2, 24, 8
13, 25248, Note_on_c, 6, 61, 100
13, 25296, Note_on_c, 6, 61, 0
13, 25296, Note_on_c, 6, 65, 100
13, 25320, Note_on_c, 6, 65, 0
13, 25344, Note_on_c, 6, 64, 100
13, 25368, Note_on_c, 6, 64, 0
13, 25392, Note_on_c, 6, 62, 100
13, 25416, Note_on_c, 6, 62, 0
13, 25440, Note_on_c, 6, 61, 100
13, 25464, Note_on_c, 6, 61, 0
13, 25488, Note_on_c, 6, 58, 100
13, 25512, Note_on_c, 6, 58, 0
13, 25536, Note_on_c, 6, 57, 100
13, 25560, Note_on_c, 6, 57, 0
13, 25584, Note_on_c, 6, 58, 100
13, 25608, Note_on_c, 6, 58, 0
13, 25632, Note_on_c, 6, 57, 100
13, 25656, Note_on_c, 6, 57, 0
13, 25680, Note_on_c, 6, 55, 100
13, 25704, Note_on_c, 6, 55, 0
13, 25728, Note_on_c, 6, 53, 100
13, 25752, Note_on_c, 6, 53, 0
13, 25776, Note_on_c, 6, 52, 100
13, 25800, Note_on_c, 6, 52, 0
13, 25824, Note_on_c, 6, 50, 100
13, 25872, Note_on_c, 6, 50, 0
13, 25872, Note_on_c, 6, 65, 100
13, 25896, Note_on_c, 6, 65, 0
13, 25920, Note_on_c, 6, 64, 100
13, 25944, Note_on_c, 6, 64, 0
13, 25968, Note_on_c, 6, 62, 100
13, 25992, Note_on_c, 6, 62, 0
13, 26016, Note_on_c, 6, 61, 100
13, 26040, Note_on_c, 6, 61, 0
13, 26064, Note_on_c, 6, 58, 100
13, 26088, Note_on_c, 6, 58, 0
13, 26112, Note_on_c, 6, 57, 100
13, 26136, Note_on_c, 6, 57, 0
13, 26160, Note_on_c, 6, 58, 100
13, 26184, Note_on_c, 6, 58, 0
13, 26208, Note_on_c, 6, 57, 100
13, 26232, Note_on_c, 6, 57, 0
13, 26256, Note_on_c, 6, 55, 100
13, 26280, Note_on_c, 6, 55, 0
13, 26304, Note_on_c, 6, 53, 100
13, 26328, Note_on_c, 6, 53, 0
13, 26352, Note_on_c, 6, 52, 100
13, 26376, Note_on_c, 6, 52, 0
13, 26400, Note_on_c, 6, 50, 100
13, 26496, Note_on_c, 6, 50, 0
13, 26496, Note_on_c, 6, 62, 100
13, 26592, Note_on_c, 6, 62, 0
13, 26592, Note_on_c, 6, 62, 100
13, 26688, Note_on_c, 6, 62, 0
13, 26688, Note_on_c, 6, 65, 100
13, 26736, Note_on_c, 6, 65, 0
13, 26736, Note_on_c, 6, 65, 100
13, 26832, Note_on_c, 6, 65, 0
13, 26832, Note_on_c, 6, 64, 100
13, 26880, Note_on_c, 6, 64, 0
13, 26880, Note_on_c, 6, 65, 100
13, 26928, Note_on_c, 6, 65, 0
13, 26928, Note_on_c, 6, 64, 100
13, 26976, Note_on_c, 6, 64, 0
13, 26976, Note_on_c, 6, 65, 100
13, 27024, Note_on_c, 6, 65, 0
13, 27024, Note_on_c, 6, 65, 100
13, 27120, Note_on_c, 6, 65, 0
13, 27120, Note_on_c, 6, 64, 100
13, 27168, Note_on_c, 6, 64, 0
13, 27168, Note_on_c, 6, 65, 100
13, 27216, Note_on_c, 6, 65, 0
13, 27216, Note_on_c, 6, 64, 100
13, 27264, Note_on_c, 6, 64, 0
13, 27264, Note_on_c, 6, 62, 100
13, 27312, Note_on_c, 6, 62, 0
13, 27312, Note_on_c, 6, 62, 100
13, 27360, Note_on_c, 6, 62, 0
13, 27360, Note_on_c, 6, 59, 100
13, 27408, Note_on_c, 6, 59, 0
13, 27408, Note_on_c, 6, 59, 100
13, 27456, Note_on_c, 6, 59, 0
13, 27456, Note_on_c, 6, 56, 100
13, 27504, Note_on_c, 6, 56, 0
13, 27504, Note_on_c, 6, 56, 100
13, 27552, Note_on_c, 6, 56, 0
13, 27552, Note_on_c, 6, 55, 100
13, 27600, Note_on_c, 6, 55, 0
13, 27600, Note_on_c, 6, 64, 100
13, 27624, Note_on_c, 6, 64, 0
13, 27648, Note_on_c, 6, 62, 100
13, 27672, Note_on_c, 6, 62, 0
13, 27696, Note_on_c, 6, 60, 100
13, 27720, Note_on_c, 6, 60, 0
13, 27744, Note_on_c, 6, 59, 100
13, 27768, Note_on_c, 6, 59, 0
13, 27792, Note_on_c, 6, 57, 100
13, 27816, Note_on_c, 6, 57, 0
13, 27840, Note_on_c, 6, 55, 100
13, 27864, Note_on_c, 6, 55, 0
13, 27888, Note_on_c, 6, 57, 100
13, 27912, Note_on_c, 6, 57, 0
13, 27936, Note_on_c, 6, 55, 100
13, 27960, Note_on_c, 6, 55, 0
13, 27984, Note_on_c, 6, 53, 100
13, 28008, Note_on_c, 6, 53, 0
13, 28032, Note_on_c, 6, 52, 100
13, 28056, Note_on_c, 6, 52, 0
13, 28080, Note_on_c, 6, 50, 100
13, 28104, Note_on_c, 6, 50, 0
13, 28128, Note_on_c, 6, 52, 100
13, 28176, Note_on_c, 6, 52, 0
13, 28176, Note_on_c, 6, 64, 100
13, 28200, Note_on_c, 6, 64, 0
13, 28224, Note_on_c, 6, 62, 100
13, 28248, Note_on_c, 6, 62, 0
13, 28272, Note_on_c, 6, 60, 100
13, 28296, Note_on_c, 6, 60, 0
13, 28320, Note_on_c, 6, 59, 100
13, 28344, Note_on_c, 6, 59, 0
13, 28368, Note_on_c, 6, 57, 100
13, 28392, Note_on_c, 6, 57, 0
13, 28416, Note_on_c, 6, 55, 100
13, 28440, Note_on_c, 6, 55, 0
13, 28464, Note_on_c, 6, 57, 100
13, 28488, Note_on_c, 6, 57, 0
13, 28512, Note_on_c, 6, 55, 100
13, 28536, Note_on_c, 6, 55, 0
13, 28560, Note_on_c, 6, 53, 100
13, 28584, Note_on_c, 6, 53, 0
13, 28608, Note_on_c, 6, 52, 100
13, 28632, Note_on_c, 6, 52, 0
13, 28656, Note_on_c, 6, 50, 100
13, 28680, Note_on_c, 6, 50, 0
13, 28704, Note_on_c, 6, 52, 100
13, 28752, Note_on_c, 6, 52, 0
13, 28752, Note_on_c, 6, 60, 100
13, 28848, Note_on_c, 6, 60, 100
13, 28896, Note_on_c, 6, 60, 0
13, 28944, Note_on_c, 6, 60, 100
13, 28992, Note_on_c, 6, 60, 0
13, 28992, Note_on_c, 6, 60, 0
13, 28992, Note_on_c, 6, 60, 100
13, 29040, Note_on_c, 6, 60, 0
13, 29040, Note_on_c, 6, 60, 100
13, 29136, Note_on_c, 6, 60, 100
13, 29184, Note_on_c, 6, 60, 0
13, 29232, Note_on_c, 6, 60, 100
13, 29280, Note_on_c, 6, 60, 0
13, 29280, Note_on_c, 6, 60, 0
13, 29280, Note_on_c, 6, 59, 100
13, 29568, Note_on_c, 6, 59, 0
13, 29568, Note_on_c, 6, 64, 100
13, 29616, Note_on_c, 6, 64, 0
13, 29616, Note_on_c, 6, 64, 100
13, 29712, Note_on_c, 6, 64, 100
13, 29760, Note_on_c, 6, 64, 0
13, 29808, Note_on_c, 6, 64, 100
13, 29856, Note_on_c, 6, 64, 0
13, 29856, Note_on_c, 6, 64, 0
13, 29856, Note_on_c, 6, 65, 100
13, 30144, Note_on_c, 6, 65, 0
13, 30144, Note_on_c, 6, 65, 100
13, 30144, Note_on_c, 6, 62, 100
13, 30192, Note_on_c, 6, 62, 0
13, 30192, Note_on_c, 6, 65, 0
13, 30192, Note_on_c, 6, 65, 100
13, 30192, Note_on_c, 6, 62, 100
13, 30288, Note_on_c, 6, 65, 100
13, 30288, Note_on_c, 6, 62, 100
13, 30336, Note_on_c, 6, 62, 0
13, 30336, Note_on_c, 6, 65, 0
13, 30384, Note_on_c, 6, 65, 100
13, 30384, Note_on_c, 6, 62, 100
13, 30432, Note_on_c, 6, 62, 0
13, 30432, Note_on_c, 6, 65, 0
13, 30432, Note_on_c, 6, 62, 0
13, 30432, Note_on_c, 6, 65, 0
13, 30432, Note_on_c, 6, 60, 100
13, 30480, Note_on_c, 6, 60, 0
13, 30480, Note_on_c, 6, 67, 100
13, 30528, Note_on_c, 6, 67, 0
13, 30528, Note_on_c, 6, 72, 100
13, 30576, Note_on_c, 6, 72, 0
13, 30576, Note_on_c, 6, 67, 100
13, 30624, Note_on_c, 6, 67, 0
13, 30624, Note_on_c, 6, 63, 100
13, 30672, Note_on_c, 6, 63, 0
13, 30672, Note_on_c, 6, 60, 100
13, 30720, Note_on_c, 6, 60, 0
13, 30720, Note_on_c, 6, 62, 100
13, 30720, Note_on_c, 6, 57, 100
13, 30768, Note_on_c, 6, 57, 0
13, 30768, Note_on_c, 6, 62, 0
13, 30768, Note_on_c, 6, 62, 100
13, 30768, Note_on_c, 6, 57, 100
13, 30864, Note_on_c, 6, 62, 100
13, 30864, Note_on_c, 6, 57, 100
13, 30912, Note_on_c, 6, 57, 0
13, 30912, Note_on_c, 6, 62, 0
13, 30960, Note_on_c, 6, 62, 100
13, 31008, Note_on_c, 6, 57, 0
13, 31008, Note_on_c, 6, 62, 0
13, 31008, Note_on_c, 6, 62, 0
13, 31008, Note_on_c, 6, 54, 100
13, 31008, Note_on_c, 6, 57, 100
13, 31056, Note_on_c, 6, 57, 0
13, 31056, Note_on_c, 6, 54, 0
13, 31056, Note_on_c, 6, 54, 100
13, 31056, Note_on_c, 6, 57, 100
13, 31152, Note_on_c, 6, 54, 100
13, 31152, Note_on_c, 6, 57, 100
13, 31200, Note_on_c, 6, 57, 0
13, 31200, Note_on_c, 6, 54, 0
13, 31248, Note_on_c, 6, 54, 100
13, 31248, Note_on_c, 6, 57, 100
13, 31296, Note_on_c, 6, 57, 0
13, 31296, Note_on_c, 6, 54, 0
13, 31296, Note_on_c, 6, 57, 0
13, 31296, Note_on_c, 6, 54, 0
13, 33024, Note_on_c, 6, 62, 100
13, 33096, Note_on_c, 6, 62, 0
13, 33096, Note_on_c, 6, 59, 100
13, 33120, Note_on_c, 6, 59, 0
13, 33120, Note_on_c, 6, 59, 100
13, 33192, Note_on_c, 6, 59, 0
13, 33192, Note_on_c, 6, 62, 100
13, 33216, Note_on_c, 6, 62, 0
13, 33216, Note_on_c, 6, 62, 100
13, 33288, Note_on_c, 6, 62, 0
13, 33288, Note_on_c, 6, 65, 100
13, 33312, Time_signature, 3, 2, 24, 8
13, 33312, Time_signature, 3, 2, 24, 8
13, 33312, Note_on_c, 6, 65, 0
13, 33312, Note_on_c, 6, 65, 100
13, 33792, Note_on_c, 6, 65, 0
13, 34176, Control_c, 6, 7, 60
13, 34176, Note_on_c, 6, 62, 100
13, 34320, Note_on_c, 6, 62, 0
13, 34320, Note_on_c, 6, 59, 100
13, 34368, Note_on_c, 6, 59, 0
13, 34368, Note_on_c, 6, 60, 100
13, 34464, Note_on_c, 6, 60, 0
13, 34752, Note_on_c, 6, 62, 100
13, 34896, Note_on_c, 6, 62, 0
13, 34896, Note_on_c, 6, 59, 100
13, 34944, Note_on_c, 6, 59, 0
13, 34944, Note_on_c, 6, 60, 100
13, 35040, Note_on_c, 6, 60, 0
13, 35040, Note_on_c, 6, 60, 100
13, 36192, Note_on_c, 6, 60, 0
13, 36192, Control_c, 6, 7, 60
13, 36192, Note_on_c, 6, 64, 100
13, 36216, Note_on_c, 6, 64, 0
13, 36240, Note_on_c, 6, 60, 100
13, 36264, Note_on_c, 6, 60, 0
13, 36288, Note_on_c, 6, 67, 100
13, 36312, Note_on_c, 6, 67, 0
13, 36336, Note_on_c, 6, 64, 100
13, 36360, Note_on_c, 6, 64, 0
13, 36384, Note_on_c, 6, 60, 100
13, 36408, Note_on_c, 6, 60, 0
13, 36432, Note_on_c, 6, 64, 100
13, 36456, Note_on_c, 6, 64, 0
13, 36480, Note_on_c, 6, 62, 100
13, 36504, Note_on_c, 6, 62, 0
13, 36528, Note_on_c, 6, 55, 100
13, 36552, Note_on_c, 6, 55, 0
13, 36576, Note_on_c, 6, 71, 100
13, 36600, Note_on_c, 6, 71, 0
13, 36624, Note_on_c, 6, 67, 100
13, 36648, Note_on_c, 6, 67, 0
13, 36672, Note_on_c, 6, 62, 100
13, 36696, Note_on_c, 6, 62, 0
13, 36720, Note_on_c, 6, 59, 100
13, 36744, Note_on_c, 6, 59, 0
13, 36768, Note_on_c, 6, 60, 100
13, 36792, Note_on_c, 6, 60, 0
13, 36816, Note_on_c, 6, 59, 100
13, 36840, Note_on_c, 6, 59, 0
13, 36864, Note_on_c, 6, 60, 100
13, 36888, Note_on_c, 6, 60, 0
13, 36912, Note_on_c, 6, 62, 100
13, 36936, Note_on_c, 6, 62, 0
13, 36960, Note_on_c, 6, 64, 100
13, 36984, Note_on_c, 6, 64, 0
13, 37008, Note_on_c, 6, 66, 100
13, 37032, Note_on_c, 6, 66, 0
13, 37056, Note_on_c, 6, 67, 100
13, 37152, Note_on_c, 6, 67, 0
13, 37440, Note_on_c, 6, 67, 100
13, 37536, Note_on_c, 6, 67, 0
13, 37536, Note_on_c, 6, 69, 100
13, 37632, Note_on_c, 6, 69, 0
13, 37632, Note_on_c, 6, 64, 100
13, 37728, Note_on_c, 6, 64, 0
13, 37728, Note_on_c, 6, 62, 100
13, 37824, Note_on_c, 6, 62, 0
13, 38016, Note_on_c, 6, 60, 100
13, 38208, Note_on_c, 6, 60, 0
13, 38208, Note_on_c, 6, 65, 100
13, 38304, Note_on_c, 6, 65, 0
13, 38304, Note_on_c, 6, 64, 100
13, 38400, Note_on_c, 6, 64, 0
13, 38592, Note_on_c, 6, 64, 100
13, 38688, Note_on_c, 6, 64, 0
13, 38688, Note_on_c, 6, 65, 100
13, 38784, Note_on_c, 6, 65, 0
13, 38880, Note_on_c, 6, 62, 100
13, 38976, Note_on_c, 6, 62, 0
13, 38976, Note_on_c, 6, 64, 100
13, 39072, Note_on_c, 6, 64, 0
13, 39168, Note_on_c, 6, 60, 100
13, 39264, Note_on_c, 6, 60, 0
13, 39264, Note_on_c, 6, 62, 100
13, 39456, Note_on_c, 6, 62, 0
13, 39456, Note_on_c, 6, 67, 100
13, 39648, Note_on_c, 6, 67, 0
13, 39648, Note_on_c, 6, 65, 100
13, 39744, Note_on_c, 6, 65, 0
13, 39744, Note_on_c, 6, 67, 100
13, 40032, Note_on_c, 6, 67, 0
13, 40032, Note_on_c, 6, 67, 100
13, 40224, Note_on_c, 6, 67, 0
13, 40224, Note_on_c, 6, 65, 100
13, 40320, Note_on_c, 6, 65, 0
13, 40320, Note_on_c, 6, 67, 100
13, 40512, Note_on_c, 6, 67, 0
13, 40512, Note_on_c, 6, 67, 100
13, 40800, Note_on_c, 6, 67, 0
13, 40800, Note_on_c, 6, 67, 100
13, 40896, Note_on_c, 6, 67, 0
13, 40896, Note_on_c, 6, 64, 100
13, 40992, Note_on_c, 6, 64, 0
13, 40992, Note_on_c, 6, 60, 100
13, 41088, Note_on_c, 6, 60, 0
13, 41088, Note_on_c, 6, 55, 100
13, 41184, Note_on_c, 6, 55, 0
13, 41184, Note_on_c, 6, 64, 100
13, 41208, Note_on_c, 6, 64, 0
13, 41232, Note_on_c, 6, 62, 100
13, 41256, Note_on_c, 6, 62, 0
13, 41280, Note_on_c, 6, 61, 100
13, 41304, Note_on_c, 6, 61, 0
13, 41328, Note_on_c, 6, 58, 100
13, 41352, Note_on_c, 6, 58, 0
13, 41376, Note_on_c, 6, 57, 100
13, 41400, Note_on_c, 6, 57, 0
13, 41424, Note_on_c, 6, 58, 100
13, 41448, Note_on_c, 6, 58, 0
13, 41472, Note_on_c, 6, 57, 100
13, 41496, Note_on_c, 6, 57, 0
13, 41520, Note_on_c, 6, 55, 100
13, 41544, Note_on_c, 6, 55, 0
13, 41568, Note_on_c, 6, 53, 100
13, 41592, Note_on_c, 6, 53, 0
13, 41616, Note_on_c, 6, 52, 100
13, 41640, Note_on_c, 6, 52, 0
13, 41664, Note_on_c, 6, 50, 100
13, 41712, Note_on_c, 6, 50, 0
13, 41712, Note_on_c, 6, 66, 100
13, 41736, Note_on_c, 6, 66, 0
13, 41760, Note_on_c, 6, 62, 100
13, 41784, Note_on_c, 6, 62, 0
13, 41808, Note_on_c, 6, 60, 100
13, 41832, Note_on_c, 6, 60, 0
13, 41856, Note_on_c, 6, 59, 100
13, 41880, Note_on_c, 6, 59, 0
13, 41904, Note_on_c, 6, 57, 100
13, 41928, Note_on_c, 6, 57, 0
13, 41952, Note_on_c, 6, 55, 100
13, 41976, Note_on_c, 6, 55, 0
13, 42000, Note_on_c, 6, 57, 100
13, 42024, Note_on_c, 6, 57, 0
13, 42048, Note_on_c, 6, 55, 100
13, 42072, Note_on_c, 6, 55, 0
13, 42096, Note_on_c, 6, 53, 100
13, 42120, Note_on_c, 6, 53, 0
13, 42144, Note_on_c, 6, 55, 100
13, 42168, Note_on_c, 6, 55, 0
13, 42192, Note_on_c, 6, 53, 100
13, 42216, Note_on_c, 6, 53, 0
13, 42240, Note_on_c, 6, 52, 100
13, 42288, Note_on_c, 6, 52, 0
13, 42288, Note_on_c, 6, 64, 100
13, 42312, Note_on_c, 6, 64, 0
13, 42336, Note_on_c, 6, 60, 100
13, 42360, Note_on_c, 6, 60, 0
13, 42384, Note_on_c, 6, 59, 100
13, 42408, Note_on_c, 6, 59, 0
13, 42432, Note_on_c, 6, 57, 100
13, 42456, Note_on_c, 6, 57, 0
13, 42480, Note_on_c, 6, 55, 100
13, 42504, Note_on_c, 6, 55, 0
13, 42528, Note_on_c, 6, 54, 100
13, 42552, Note_on_c, 6, 54, 0
13, 42576, Note_on_c, 6, 57, 100
13, 42600, Note_on_c, 6, 57, 0
13, 42624, Note_on_c, 6, 60, 100
13, 42648, Note_on_c, 6, 60, 0
13, 42672, Note_on_c, 6, 57, 100
13, 42696, Note_on_c, 6, 57, 0
13, 42720, Note_on_c, 6, 57, 100
13, 42744, Note_on_c, 6, 57, 0
13, 42768, Note_on_c, 6, 60, 100
13, 42792, Note_on_c, 6, 60, 0
13, 42816, Note_on_c, 6, 53, 100
13, 42840, Note_on_c, 6, 53, 0
13, 42864, Note_on_c, 6, 62, 100
13, 42888, Note_on_c, 6, 62, 0
13, 42912, Note_on_c, 6, 64, 100
13, 42936, Note_on_c, 6, 64, 0
13, 42960, Note_on_c, 6, 59, 100
13, 42984, Note_on_c, 6, 59, 0
13, 43008, Note_on_c, 6, 60, 100
13, 43032, Note_on_c, 6, 60, 0
13, 43056, Note_on_c, 6, 60, 100
13, 43080, Note_on_c, 6, 60, 0
13, 43104, Note_on_c, 6, 53, 100
13, 43152, Note_on_c, 6, 53, 0
13, 43200, Note_on_c, 6, 55, 100
13, 43248, Note_on_c, 6, 55, 0
13, 43296, Note_on_c, 6, 55, 100
13, 43344, Note_on_c, 6, 55, 0
13, 43392, Note_on_c, 6, 60, 100
13, 43440, Note_on_c, 6, 60, 0
13, 43440, Note_on_c, 6, 60, 100
13, 43464, Note_on_c, 6, 60, 0
13, 43488, Note_on_c, 6, 64, 100
13, 43512, Note_on_c, 6, 64, 0
13, 43536, Note_on_c, 6, 62, 100
13, 43560, Note_on_c, 6, 62, 0
13, 43584, Note_on_c, 6, 61, 100
13, 43608, Note_on_c, 6, 61, 0
13, 43632, Note_on_c, 6, 58, 100
13, 43656, Note_on_c, 6, 58, 0
13, 43680, Note_on_c, 6, 57, 100
13, 43704, Note_on_c, 6, 57, 0
13, 43728, Note_on_c, 6, 58, 100
13, 43752, Note_on_c, 6, 58, 0
13, 43776, Note_on_c, 6, 57, 100
13, 43800, Note_on_c, 6, 57, 0
13, 43824, Note_on_c, 6, 55, 100
13, 43848, Note_on_c, 6, 55, 0
13, 43872, Note_on_c, 6, 57, 100
13, 43896, Note_on_c, 6, 57, 0
13, 43920, Note_on_c, 6, 55, 100
13, 43944, Note_on_c, 6, 55, 0
13, 43968, Note_on_c, 6, 54, 100
13, 44016, Note_on_c, 6, 54, 0
13, 44016, Note_on_c, 6, 66, 100
13, 44040, Note_on_c, 6, 66, 0
13, 44064, Note_on_c, 6, 62, 100
13, 44088, Note_on_c, 6, 62, 0
13, 44112, Note_on_c, 6, 60, 100
13, 44136, Note_on_c, 6, 60, 0
13, 44160, Note_on_c, 6, 59, 100
13, 44184, Note_on_c, 6, 59, 0
13, 44208, Note_on_c, 6, 57, 100
13, 44232, Note_on_c, 6, 57, 0
13, 44256, Note_on_c, 6, 55, 100
13, 44280, Note_on_c, 6, 55, 0
13, 44304, Note_on_c, 6, 56, 100
13, 44328, Note_on_c, 6, 56, 0
13, 44352, Note_on_c, 6, 55, 100
13, 44376, Note_on_c, 6, 55, 0
13, 44400, Note_on_c, 6, 53, 100
13, 44424, Note_on_c, 6, 53, 0
13, 44448, Note_on_c, 6, 55, 100
13, 44472, Note_on_c, 6, 55, 0
13, 44496, Note_on_c, 6, 53, 100
13, 44520, Note_on_c, 6, 53, 0
13, 44544, Note_on_c, 6, 52, 100
13, 44592, Note_on_c, 6, 52, 0
13, 44592, Note_on_c, 6, 64, 100
13, 44616, Note_on_c, 6, 64, 0
13, 44640, Note_on_c, 6, 60, 100
13, 44664, Note_on_c, 6, 60, 0
13, 44688, Note_on_c, 6, 59, 100
13, 44712, Note_on_c, 6, 59, 0
13, 44736, Note_on_c, 6, 57, 100
13, 44760, Note_on_c, 6, 57, 0
13, 44784, Note_on_c, 6, 55, 100
13, 44808, Note_on_c, 6, 55, 0
13, 44832, Note_on_c, 6, 54, 100
13, 44880, Note_on_c, 6, 54, 0
13, 44880, Note_on_c, 6, 57, 100
13, 44928, Note_on_c, 6, 57, 0
13, 44928, Note_on_c, 6, 60, 100
13, 44976, Note_on_c, 6, 60, 0
13, 44976, Note_on_c, 6, 57, 100
13, 45024, Note_on_c, 6, 57, 0
13, 45024, Note_on_c, 6, 57, 100
13, 45072, Note_on_c, 6, 57, 0
13, 45072, Note_on_c, 6, 60, 100
13, 45120, Note_on_c, 6, 60, 0
13, 45120, Note_on_c, 6, 59, 100
13, 45168, Note_on_c, 6, 59, 0
13, 45168, Note_on_c, 6, 62, 100
13, 45216, Note_on_c, 6, 62, 0
13, 45216, Note_on_c, 6, 67, 100
13, 45264, Note_on_c, 6, 67, 0
13, 45264, Note_on_c, 6, 59, 100
13, 45312, Note_on_c, 6, 59, 0
13, 45312, Note_on_c, 6, 60, 100
13, 45360, Note_on_c, 6, 60, 0
13, 45360, Note_on_c, 6, 60, 100
13, 45408, Note_on_c, 6, 60, 0
13, 45408, Note_on_c, 6, 69, 100
13, 45504, Note_on_c, 6, 69, 0
13, 45504, Note_on_c, 6, 67, 100
13, 45696, Note_on_c, 6, 67, 0
13, 45696, Note_on_c, 6, 60, 100
13, 45744, Note_on_c, 6, 60, 0
13, 45744, Note_on_c, 6, 55, 100
13, 45768, Note_on_c, 6, 55, 0
13, 45792, Note_on_c, 6, 55, 100
13, 45816, Note_on_c, 6, 55, 0
13, 45840, Note_on_c, 6, 55, 100
13, 45864, Note_on_c, 6, 55, 0
13, 45888, Note_on_c, 6, 55, 100
13, 45960, Note_on_c, 6, 55, 0
13, 45960, Note_on_c, 6, 57, 100
13, 45972, Note_on_c, 6, 57, 0
13, 45972, Note_on_c, 6, 59, 100
13, 45984, Note_on_c, 6, 59, 0
13, 45984, Note_on_c, 6, 60, 100
13, 46032, Note_on_c, 6, 60, 0
13, 46032, Note_on_c, 6, 55, 100
13, 46056, Note_on_c, 6, 55, 0
13, 46080, Note_on_c, 6, 55, 100
13, 46104, Note_on_c, 6, 55, 0
13, 46128, Note_on_c, 6, 55, 100
13, 46152, Note_on_c, 6, 55, 0
13, 46176, Note_on_c, 6, 55, 100
13, 46248, Note_on_c, 6, 55, 0
13, 46248, Note_on_c, 6, 57, 100
13, 46260, Note_on_c, 6, 57, 0
13, 46260, Note_on_c, 6, 59, 100
13, 46272, Note_on_c, 6, 59, 0
13, 46272, Note_on_c, 6, 60, 100
13, 46320, Note_on_c, 6, 60, 0
13, 46320, Note_on_c, 6, 64, 100
13, 46368, Note_on_c, 6, 64, 0
13, 46368, Note_on_c, 6, 67, 100
13, 46416, Note_on_c, 6, 67, 0
13, 46416, Note_on_c, 6, 66, 100
13, 46464, Note_on_c, 6, 66, 0
13, 46464, Note_on_c, 6, 67, 100
13, 46512, Note_on_c, 6, 67, 0
13, 46512, Note_on_c, 6, 55, 100
13, 46560, Note_on_c, 6, 55, 0
13, 46560, Note_on_c, 6, 60, 100
13, 46608, Note_on_c, 6, 60, 0
13, 46608, Note_on_c, 6, 55, 100
13, 46632, Note_on_c, 6, 55, 0
13, 46656, Note_on_c, 6, 55, 100
13, 46680, Note_on_c, 6, 55, 0
13, 46704, Note_on_c, 6, 55, 100
13, 46728, Note_on_c, 6, 55, 0
13, 46752, Note_on_c, 6, 55, 100
13, 46824, Note_on_c, 6, 55, 0
13, 46824, Note_on_c, 6, 57, 100
13, 46836, Note_on_c, 6, 57, 0
13, 46836, Note_on_c, 6, 59, 100
13, 46848, Note_on_c, 6, 59, 0
13, 46848, Note_on_c, 6, 60, 100
13, 46896, Note_on_c, 6, 60, 0
13, 46896, Note_on_c, 6, 55, 100
13, 46920, Note_on_c, 6, 55, 0
13, 46944, Note_on_c, 6, 55, 100
13, 46968, Note_on_c, 6, 55, 0
13, 46992, Note_on_c, 6, 55, 100
13, 47016, Note_on_c, 6, 55, 0
13, 47040, Note_on_c, 6, 55, 100
13, 47112, Note_on_c, 6, 55, 0
13, 47112, Note_on_c, 6, 57, 100
13, 47124, Note_on_c, 6, 57, 0
13, 47124, Note_on_c, 6, 59, 100
13, 47136, Note_on_c, 6, 59, 0
13, 47136, Note_on_c, 6, 60, 100
13, 47232, Note_on_c, 6, 60, 0
13, 47232, Note_on_c, 6, 62, 100
13, 47424, Note_on_c, 6, 62, 0
13, 47424, Note_on_c, 6, 60, 100
13, 47520, Note_on_c, 6, 60, 0
13, 47520, End_track
14, 0, Start_track
14, 0, Title_t, "Cello/Bass"
14, 0, Key_signature, 0, "major"
14, 0, Time_signature, 3, 2, 24, 8
14, 0, Time_signature, 3, 2, 24, 8
14, 0, Control_c, 6, 7, 80
14, 0, Program_c, 6, 48
14, 0, Note_on_c, 6, 48, 100
14, 0, Note_on_c, 6, 36, 100
14, 48, Note_on_c, 6, 36, 0
14, 48, Note_on_c, 6, 48, 0
14, 48, Note_on_c, 6, 48, 100
14, 96, Note_on_c, 6, 48, 0
14, 96, Note_on_c, 6, 48, 100
14, 144, Note_on_c, 6, 48, 0
14, 144, Note_on_c, 6, 48, 100
14, 192, Note_on_c, 6, 48, 0
14, 192, Note_on_c, 6, 48, 100
14, 240, Note_on_c, 6, 48, 0
14, 240, Note_on_c, 6, 48, 100
14, 288, Note_on_c, 6, 48, 0
14, 288, Note_on_c, 6, 50, 100
14, 384, Note_on_c, 6, 50, 0
14, 1152, Note_on_c, 6, 47, 100
14, 1152, Note_on_c, 6, 35, 100
14, 1200, Note_on_c, 6, 35, 0
14, 1200, Note_on_c, 6, 47, 0
14, 1200, Note_on_c, 6, 47, 100
14, 1248, Note_on_c, 6, 47, 0
14, 1248, Note_on_c, 6, 47, 100
14, 1296, Note_on_c, 6, 47, 0
14, 1296, Note_on_c, 6, 47, 100
14, 1344, Note_on_c, 6, 47, 0
14, 1344, Note_on_c, 6, 47, 100
14, 1392, Note_on_c, 6, 47, 0
14, 1392, Note_on_c, 6, 47, 100
14, 1440, Note_on_c, 6, 47, 0
14, 1440, Note_on_c, 6, 48, 100
14, 1536, Note_on_c, 6, 48, 0
14, 2304, Note_on_c, 6, 48, 100
14, 2304, Note_on_c, 6, 36, 100
14, 2352, Note_on_c, 6, 36, 0
14, 2352, Note_on_c, 6, 48, 0
14, 2352, Note_on_c, 6, 60, 100
14, 2400, Note_on_c, 6, 60, 0
14, 2400, Note_on_c, 6, 60, 100
14, 2448, Note_on_c, 6, 60, 0
14, 2448, Note_on_c, 6, 60, 100
14, 2496, Note_on_c, 6, 60, 0
14, 2496, Note_on_c, 6, 60, 100
14, 2544, Note_on_c, 6, 60, 0
14, 2544, Note_on_c, 6, 60, 100
14, 2592, Note_on_c, 6, 60, 0
14, 2592, Note_on_c, 6, 60, 100
14, 2688, Note_on_c, 6, 60, 0
14, 2688, Note_on_c, 6, 48, 100
14, 2784, Note_on_c, 6, 48, 0
14, 2976, Note_on_c, 6, 52, 100
14, 3072, Note_on_c, 6, 52, 0
14, 3072, Note_on_c, 6, 53, 100
14, 3168, Note_on_c, 6, 53, 0
14, 3168, Note_on_c, 6, 55, 100
14, 3264, Note_on_c, 6, 55, 0
14, 3264, Note_on_c, 6, 43, 100
14, 3360, Note_on_c, 6, 43, 0
14, 3552, Note_on_c, 6, 57, 100
14, 3648, Note_on_c, 6, 57, 0
14, 3648, Note_on_c, 6, 59, 100
14, 3744, Note_on_c, 6, 59, 0
14, 3744, Note_on_c, 6, 60, 100
14, 3840, Note_on_c, 6, 60, 0
14, 3840, Note_on_c, 6, 48, 100
14, 3936, Note_on_c, 6, 48, 0
14, 4128, Note_on_c, 6, 48, 100
14, 4128, Note_on_c, 6, 60, 100
14, 4152, Note_on_c, 6, 60, 0
14, 4152, Note_on_c, 6, 48, 0
14, 4224, Note_on_c, 6, 45, 100
14, 4224, Note_on_c, 6, 57, 100
14, 4248, Note_on_c, 6, 57, 0
14, 4248, Note_on_c, 6, 45, 0
14, 4416, Note_on_c, 6, 47, 100
14, 4416, Note_on_c, 6, 59, 100
14, 4440, Note_on_c, 6, 59, 0
14, 4440, Note_on_c, 6, 47, 0
14, 4512, Note_on_c, 6, 43, 100
14, 4512, Note_on_c, 6, 55, 100
14, 4536, Note_on_c, 6, 55, 0
14, 4536, Note_on_c, 6, 43, 0
14, 4704, Note_on_c, 6, 45, 100
14, 4704, Note_on_c, 6, 57, 100
14, 4728, Note_on_c, 6, 57, 0
14, 4728, Note_on_c, 6, 45, 0
14, 4800, Note_on_c, 6, 41, 100
14, 4800, Note_on_c, 6, 53, 100
14, 4824, Note_on_c, 6, 53, 0
14, 4824, Note_on_c, 6, 41, 0
14, 4896, Note_on_c, 6, 43, 100
14, 4896, Note_on_c, 6, 55, 100
14, 4944, Note_on_c, 6, 55, 0
14, 4944, Note_on_c, 6, 43, 0
14, 4944, Note_on_c, 6, 43, 100
14, 4944, Note_on_c, 6, 55, 100
14, 4992, Note_on_c, 6, 55, 0
14, 4992, Note_on_c, 6, 43, 0
14, 4992, Note_on_c, 6, 41, 100
14, 4992, Note_on_c, 6, 53, 100
14, 5040, Note_on_c, 6, 53, 0
14, 5040, Note_on_c, 6, 41, 0
14, 5040, Note_on_c, 6, 43, 100
14, 5040, Note_on_c, 6, 55, 100
14, 5088, Note_on_c, 6, 55, 0
14, 5088, Note_on_c, 6, 43, 0
14, 5088, Note_on_c, 6, 40, 100
14, 5088, Note_on_c, 6, 52, 100
14, 5136, Note_on_c, 6, 52, 0
14, 5136, Note_on_c, 6, 40, 0
14, 5136, Note_on_c, 6, 43, 100
14, 5136, Note_on_c, 6, 55, 100
14, 5184, Note_on_c, 6, 55, 0
14, 5184, Note_on_c, 6, 43, 0
14, 5184, Note_on_c, 6, 35, 100
14, 5184, Note_on_c, 6, 47, 100
14, 5256, Note_on_c, 6, 47, 0
14, 5256, Note_on_c, 6, 35, 0
14, 5256, Note_on_c, 6, 36, 100
14, 5256, Note_on_c, 6, 48, 100
14, 5280, Note_on_c, 6, 48, 0
14, 5280, Note_on_c, 6, 36, 0
14, 5280, Note_on_c, 6, 35, 100
14, 5280, Note_on_c, 6, 47, 100
14, 5328, Note_on_c, 6, 47, 0
14, 5328, Note_on_c, 6, 35, 0
14, 5328, Note_on_c, 6, 33, 100
14, 5328, Note_on_c, 6, 45, 100
14, 5352, Note_on_c, 6, 45, 0
14, 5352, Note_on_c, 6, 33, 0
14, 5352, Note_on_c, 6, 31, 100
14, 5352, Note_on_c, 6, 43, 100
14, 5376, Note_on_c, 6, 43, 0
14, 5376, Note_on_c, 6, 31, 0
14, 5376, Note_on_c, 6, 36, 100
14, 5376, Note_on_c, 6, 48, 100
14, 5424, Note_on_c, 6, 48, 0
14, 5424, Note_on_c, 6, 36, 0
14, 5424, Note_on_c, 6, 40, 100
14, 5424, Note_on_c, 6, 52, 100
14, 5472, Note_on_c, 6, 52, 0
14, 5472, Note_on_c, 6, 40, 0
14, 5472, Note_on_c, 6, 43, 100
14, 5472, Note_on_c, 6, 55, 100
14, 5520, Note_on_c, 6, 55, 0
14, 5520, Note_on_c, 6, 43, 0
14, 5520, Note_on_c, 6, 43, 100
14, 5520, Note_on_c, 6, 55, 100
14, 5568, Note_on_c, 6, 55, 0
14, 5568, Note_on_c, 6, 43, 0
14, 5568, Note_on_c, 6, 41, 100
14, 5568, Note_on_c, 6, 53, 100
14, 5616, Note_on_c, 6, 53, 0
14, 5616, Note_on_c, 6, 41, 0
14, 5616, Note_on_c, 6, 43, 100
14, 5616, Note_on_c, 6, 55, 100
14, 5664, Note_on_c, 6, 55, 0
14, 5664, Note_on_c, 6, 43, 0
14, 5664, Note_on_c, 6, 40, 100
14, 5664, Note_on_c, 6, 52, 100
14, 5712, Note_on_c, 6, 52, 0
14, 5712, Note_on_c, 6, 40, 0
14, 5712, Note_on_c, 6, 43, 100
14, 5712, Note_on_c, 6, 55, 100
14, 5760, Note_on_c, 6, 55, 0
14, 5760, Note_on_c, 6, 43, 0
14, 5760, Note_on_c, 6, 47, 100
14, 5832, Note_on_c, 6, 47, 0
14, 5832, Note_on_c, 6, 48, 100
14, 5856, Note_on_c, 6, 48, 0
14, 5856, Note_on_c, 6, 47, 100
14, 5904, Note_on_c, 6, 47, 0
14, 5904, Note_on_c, 6, 45, 100
14, 5928, Note_on_c, 6, 45, 0
14, 5928, Note_on_c, 6, 43, 100
14, 5952, Note_on_c, 6, 43, 0
14, 5952, Note_on_c, 6, 52, 100
14, 6000, Note_on_c, 6, 52, 0
14, 6000, Note_on_c, 6, 55, 100
14, 6048, Note_on_c, 6, 55, 0
14, 6048, Note_on_c, 6, 43, 100
14, 6048, Note_on_c, 6, 55, 100
14, 6120, Note_on_c, 6, 55, 0
14, 6120, Note_on_c, 6, 60, 100
14, 6144, Note_on_c, 6, 60, 0
14, 6144, Note_on_c, 6, 43, 0
14, 6144, Note_on_c, 6, 59, 100
14, 6192, Note_on_c, 6, 59, 0
14, 6192, Note_on_c, 6, 57, 100
14, 6216, Note_on_c, 6, 57, 0
14, 6216, Note_on_c, 6, 55, 100
14, 6240, Note_on_c, 6, 55, 0
14, 6240, Note_on_c, 6, 60, 100
14, 6288, Note_on_c, 6, 60, 0
14, 6288, Note_on_c, 6, 55, 100
14, 6336, Note_on_c, 6, 55, 0
14, 6336, Note_on_c, 6, 43, 100
14, 6336, Note_on_c, 6, 55, 100
14, 6384, Note_on_c, 6, 55, 0
14, 6384, Note_on_c, 6, 43, 0
14, 6384, Note_on_c, 6, 55, 100
14, 6432, Note_on_c, 6, 55, 0
14, 6432, Note_on_c, 6, 52, 100
14, 6480, Note_on_c, 6, 52, 0
14, 6480, Note_on_c, 6, 52, 100
14, 6528, Note_on_c, 6, 52, 0
14, 6528, Note_on_c, 6, 48, 100
14, 6576, Note_on_c, 6, 48, 0
14, 6576, Note_on_c, 6, 48, 100
14, 6624, Note_on_c, 6, 48, 0
14, 6624, Note_on_c, 6, 43, 100
14, 6624, Note_on_c, 6, 55, 100
14, 6720, Note_on_c, 6, 55, 0
14, 6720, Note_on_c, 6, 43, 0
14, 7248, Note_on_c, 6, 65, 100
14, 7272, Note_on_c, 6, 65, 0
14, 7296, Note_on_c, 6, 64, 100
14, 7320, Note_on_c, 6, 64, 0
14, 7344, Note_on_c, 6, 62, 100
14, 7368, Note_on_c, 6, 62, 0
14, 7392, Note_on_c, 6, 61, 100
14, 7416, Note_on_c, 6, 61, 0
14, 7440, Note_on_c, 6, 58, 100
14, 7464, Note_on_c, 6, 58, 0
14, 7488, Note_on_c, 6, 57, 100
14, 7512, Note_on_c, 6, 57, 0
14, 7536, Note_on_c, 6, 58, 100
14, 7560, Note_on_c, 6, 58, 0
14, 7584, Note_on_c, 6, 57, 100
14, 7608, Note_on_c, 6, 57, 0
14, 7632, Note_on_c, 6, 55, 100
14, 7656, Note_on_c, 6, 55, 0
14, 7680, Note_on_c, 6, 53, 100
14, 7704, Note_on_c, 6, 53, 0
14, 7728, Note_on_c, 6, 52, 100
14, 7752, Note_on_c, 6, 52, 0
14, 7776, Note_on_c, 6, 50, 100
14, 7800, Note_on_c, 6, 50, 0
14, 7824, Note_on_c, 6, 65, 100
14, 7848, Note_on_c, 6, 65, 0
14, 7872, Note_on_c, 6, 64, 100
14, 7896, Note_on_c, 6, 64, 0
14, 7920, Note_on_c, 6, 62, 100
14, 7944, Note_on_c, 6, 62, 0
14, 7968, Note_on_c, 6, 61, 100
14, 7992, Note_on_c, 6, 61, 0
14, 8016, Note_on_c, 6, 58, 100
14, 8040, Note_on_c, 6, 58, 0
14, 8064, Note_on_c, 6, 57, 100
14, 8088, Note_on_c, 6, 57, 0
14, 8112, Note_on_c, 6, 58, 100
14, 8136, Note_on_c, 6, 58, 0
14, 8160, Note_on_c, 6, 57, 100
14, 8184, Note_on_c, 6, 57, 0
14, 8208, Note_on_c, 6, 55, 100
14, 8232, Note_on_c, 6, 55, 0
14, 8256, Note_on_c, 6, 53, 100
14, 8280, Note_on_c, 6, 53, 0
14, 8304, Note_on_c, 6, 52, 100
14, 8328, Note_on_c, 6, 52, 0
14, 8352, Note_on_c, 6, 50, 100
14, 8448, Note_on_c, 6, 50, 0
14, 8928, Note_on_c, 6, 43, 100
14, 8952, Note_on_c, 6, 43, 0
14, 8976, Note_on_c, 6, 64, 100
14, 9000, Note_on_c, 6, 64, 0
14, 9024, Note_on_c, 6, 62, 100
14, 9048, Note_on_c, 6, 62, 0
14, 9072, Note_on_c, 6, 60, 100
14, 9096, Note_on_c, 6, 60, 0
14, 9120, Note_on_c, 6, 59, 100
14, 9144, Note_on_c, 6, 59, 0
14, 9168, Note_on_c, 6, 57, 100
14, 9192, Note_on_c, 6, 57, 0
14, 9216, Note_on_c, 6, 55, 100
14, 9240, Note_on_c, 6, 55, 0
14, 9264, Note_on_c, 6, 57, 100
14, 9288, Note_on_c, 6, 57, 0
14, 9312, Note_on_c, 6, 55, 100
14, 9336, Note_on_c, 6, 55, 0
14, 9360, Note_on_c, 6, 53, 100
14, 9384, Note_on_c, 6, 53, 0
14, 9408, Note_on_c, 6, 52, 100
14, 9432, Note_on_c, 6, 52, 0
14, 9456, Note_on_c, 6, 50, 100
14, 9480, Note_on_c, 6, 50, 0
14, 9504, Note_on_c, 6, 48, 100
14, 9528, Note_on_c, 6, 48, 0
14, 9552, Note_on_c, 6, 64, 100
14, 9576, Note_on_c, 6, 64, 0
14, 9600, Note_on_c, 6, 62, 100
14, 9624, Note_on_c, 6, 62, 0
14, 9648, Note_on_c, 6, 60, 100
14, 9672, Note_on_c, 6, 60, 0
14, 9696, Note_on_c, 6, 59, 100
14, 9720, Note_on_c, 6, 59, 0
14, 9744, Note_on_c, 6, 57, 100
14, 9768, Note_on_c, 6, 57, 0
14, 9792, Note_on_c, 6, 55, 100
14, 9816, Note_on_c, 6, 55, 0
14, 9840, Note_on_c, 6, 57, 100
14, 9864, Note_on_c, 6, 57, 0
14, 9888, Note_on_c, 6, 55, 100
14, 9912, Note_on_c, 6, 55, 0
14, 9936, Note_on_c, 6, 53, 100
14, 9960, Note_on_c, 6, 53, 0
14, 9984, Note_on_c, 6, 52, 100
14, 10008, Note_on_c, 6, 52, 0
14, 10032, Note_on_c, 6, 50, 100
14, 10056, Note_on_c, 6, 50, 0
14, 10080, Note_on_c, 6, 48, 100
14, 10128, Note_on_c, 6, 48, 0
14, 10128, Note_on_c, 6, 48, 100
14, 10176, Note_on_c, 6, 48, 0
14, 10176, Note_on_c, 6, 48, 100
14, 10224, Note_on_c, 6, 48, 0
14, 10224, Note_on_c, 6, 48, 100
14, 10272, Note_on_c, 6, 48, 0
14, 10272, Note_on_c, 6, 48, 100
14, 10320, Note_on_c, 6, 48, 0
14, 10320, Note_on_c, 6, 48, 100
14, 10368, Note_on_c, 6, 48, 0
14, 10368, Note_on_c, 6, 48, 100
14, 10368, Note_on_c, 6, 36, 100
14, 10416, Note_on_c, 6, 36, 0
14, 10416, Note_on_c, 6, 48, 0
14, 10416, Note_on_c, 6, 60, 100
14, 10464, Note_on_c, 6, 60, 0
14, 10464, Note_on_c, 6, 60, 100
14, 10512, Note_on_c, 6, 60, 0
14, 10512, Note_on_c, 6, 60, 100
14, 10560, Note_on_c, 6, 60, 0
14, 10560, Note_on_c, 6, 60, 100
14, 10608, Note_on_c, 6, 60, 0
14, 10608, Note_on_c, 6, 60, 100
14, 10656, Note_on_c, 6, 60, 0
14, 10656, Note_on_c, 6, 55, 100
14, 10656, Note_on_c, 6, 43, 100
14, 10704, Note_on_c, 6, 43, 0
14, 10704, Note_on_c, 6, 55, 0
14, 10704, Note_on_c, 6, 55, 100
14, 10752, Note_on_c, 6, 55, 0
14, 10752, Note_on_c, 6, 55, 100
14, 10800, Note_on_c, 6, 55, 0
14, 10800, Note_on_c, 6, 55, 100
14, 10848, Note_on_c, 6, 55, 0
14, 10848, Note_on_c, 6, 55, 100
14, 10896, Note_on_c, 6, 55, 0
14, 10896, Note_on_c, 6, 55, 100
14, 10944, Note_on_c, 6, 55, 0
14, 10944, Note_on_c, 6, 46, 100
14, 10992, Note_on_c, 6, 46, 0
14, 10992, Note_on_c, 6, 58, 100
14, 11040, Note_on_c, 6, 58, 0
14, 11040, Note_on_c, 6, 58, 100
14, 11088, Note_on_c, 6, 58, 0
14, 11088, Note_on_c, 6, 58, 100
14, 11136, Note_on_c, 6, 58, 0
14, 11136, Note_on_c, 6, 58, 100
14, 11184, Note_on_c, 6, 58, 0
14, 11184, Note_on_c, 6, 58, 100
14, 11232, Note_on_c, 6, 58, 0
14, 11232, Note_on_c, 6, 41, 100
14, 11280, Note_on_c, 6, 41, 0
14, 11280, Note_on_c, 6, 53, 100
14, 11328, Note_on_c, 6, 53, 0
14, 11328, Note_on_c, 6, 53, 100
14, 11376, Note_on_c, 6, 53, 0
14, 11376, Note_on_c, 6, 53, 100
14, 11424, Note_on_c, 6, 53, 0
14, 11424, Note_on_c, 6, 53, 100
14, 11472, Note_on_c, 6, 53, 0
14, 11472, Note_on_c, 6, 53, 100
14, 11520, Note_on_c, 6, 53, 0
14, 11520, Note_on_c, 6, 44, 100
14, 11568, Note_on_c, 6, 44, 0
14, 11568, Note_on_c, 6, 56, 100
14, 11616, Note_on_c, 6, 56, 0
14, 11616, Note_on_c, 6, 56, 100
14, 11664, Note_on_c, 6, 56, 0
14, 11664, Note_on_c, 6, 56, 100
14, 11712, Note_on_c, 6, 56, 0
14, 11712, Note_on_c, 6, 56, 100
14, 11760, Note_on_c, 6, 56, 0
14, 11760, Note_on_c, 6, 56, 100
14, 11808, Note_on_c, 6, 56, 0
14, 11808, Note_on_c, 6, 39, 100
14, 11856, Note_on_c, 6, 39, 0
14, 11856, Note_on_c, 6, 51, 100
14, 11904, Note_on_c, 6, 51, 0
14, 11904, Note_on_c, 6, 51, 100
14, 11952, Note_on_c, 6, 51, 0
14, 11952, Note_on_c, 6, 51, 100
14, 12000, Note_on_c, 6, 51, 0
14, 12000, Note_on_c, 6, 51, 100
14, 12048, Note_on_c, 6, 51, 0
14, 12048, Note_on_c, 6, 51, 100
14, 12096, Note_on_c, 6, 51, 0
14, 12096, Note_on_c, 6, 50, 100
14, 12144, Note_on_c, 6, 50, 0
14, 12336, Note_on_c, 6, 50, 100
14, 12336, Note_on_c, 6, 38, 100
14, 12384, Note_on_c, 6, 38, 0
14, 12384, Note_on_c, 6, 50, 0
14, 12384, Note_on_c, 6, 48, 100
14, 12384, Note_on_c, 6, 36, 100
14, 12432, Note_on_c, 6, 36, 0
14, 12432, Note_on_c, 6, 48, 0
14, 12624, Note_on_c, 6, 48, 100
14, 12624, Note_on_c, 6, 36, 100
14, 12672, Note_on_c, 6, 36, 0
14, 12672, Note_on_c, 6, 48, 0
14, 12672, Note_on_c, 6, 47, 100
14, 12672, Note_on_c, 6, 35, 100
14, 12720, Note_on_c, 6, 35, 0
14, 12720, Note_on_c, 6, 47, 0
14, 12912, Note_on_c, 6, 47, 100
14, 12912, Note_on_c, 6, 35, 100
14, 12960, Note_on_c, 6, 35, 0
14, 12960, Note_on_c, 6, 47, 0
14, 12960, Note_on_c, 6, 50, 100
14, 12960, Note_on_c, 6, 38, 100
14, 13008, Note_on_c, 6, 38, 0
14, 13008, Note_on_c, 6, 50, 0
14, 13200, Note_on_c, 6, 50, 100
14, 13200, Note_on_c, 6, 38, 100
14, 13248, Note_on_c, 6, 38, 0
14, 13248, Note_on_c, 6, 50, 0
14, 13248, Note_on_c, 6, 55, 100
14, 13248, Note_on_c, 6, 43, 100
14, 13296, Note_on_c, 6, 43, 0
14, 13296, Note_on_c, 6, 55, 0
14, 13488, Note_on_c, 6, 54, 100
14, 13536, Note_on_c, 6, 54, 0
14, 13536, Note_on_c, 6, 52, 100
14, 13584, Note_on_c, 6, 52, 0
14, 13584, Note_on_c, 6, 52, 100
14, 13632, Note_on_c, 6, 52, 0
14, 13632, Note_on_c, 6, 52, 100
14, 13680, Note_on_c, 6, 52, 0
14, 13680, Note_on_c, 6, 52, 100
14, 13728, Note_on_c, 6, 52, 0
14, 13728, Note_on_c, 6, 47, 100
14, 13776, Note_on_c, 6, 47, 0
14, 13776, Note_on_c, 6, 47, 100
14, 13824, Note_on_c, 6, 47, 0
14, 13824, Note_on_c, 6, 48, 100
14, 13872, Note_on_c, 6, 48, 0
14, 13872, Note_on_c, 6, 48, 100
14, 13920, Note_on_c, 6, 48, 0
14, 13920, Note_on_c, 6, 50, 100
14, 13968, Note_on_c, 6, 50, 0
14, 13968, Note_on_c, 6, 50, 100
14, 14016, Note_on_c, 6, 50, 0
14, 14016, Note_on_c, 6, 50, 100
14, 14064, Note_on_c, 6, 50, 0
14, 14064, Note_on_c, 6, 50, 100
14, 14112, Note_on_c, 6, 50, 0
14, 14112, Note_on_c, 6, 43, 100
14, 14208, Note_on_c, 6, 43, 0
14, 14208, Note_on_c, 6, 43, 100
14, 14256, Note_on_c, 6, 43, 0
14, 14256, Note_on_c, 6, 45, 100
14, 14280, Note_on_c, 6, 45, 0
14, 14280, Note_on_c, 6, 47, 100
14, 14304, Note_on_c, 6, 47, 0
14, 14304, Note_on_c, 6, 48, 100
14, 14328, Note_on_c, 6, 48, 0
14, 14328, Note_on_c, 6, 50, 100
14, 14352, Note_on_c, 6, 50, 0
14, 14352, Note_on_c, 6, 52, 100
14, 14376, Note_on_c, 6, 52, 0
14, 14376, Note_on_c, 6, 54, 100
14, 14400, Note_on_c, 6, 54, 0
14, 14400, Note_on_c, 6, 55, 100
14, 14448, Note_on_c, 6, 55, 0
14, 14448, Note_on_c, 6, 55, 100
14, 14496, Note_on_c, 6, 55, 0
14, 14496, Note_on_c, 6, 55, 100
14, 14544, Note_on_c, 6, 55, 0
14, 14544, Note_on_c, 6, 55, 100
14, 14592, Note_on_c, 6, 55, 0
14, 14592, Note_on_c, 6, 55, 100
14, 14640, Note_on_c, 6, 55, 0
14, 14640, Note_on_c, 6, 55, 100
14, 14688, Note_on_c, 6, 55, 0
14, 14688, Note_on_c, 6, 47, 100
14, 14736, Note_on_c, 6, 47, 0
14, 14736, Note_on_c, 6, 47, 100
14, 14784, Note_on_c, 6, 47, 0
14, 14784, Note_on_c, 6, 47, 100
14, 14832, Note_on_c, 6, 47, 0
14, 14832, Note_on_c, 6, 47, 100
14, 14880, Note_on_c, 6, 47, 0
14, 14880, Note_on_c, 6, 52, 100
14, 14928, Note_on_c, 6, 52, 0
14, 14928, Note_on_c, 6, 52, 100
14, 14976, Note_on_c, 6, 52, 0
14, 14976, Note_on_c, 6, 49, 100
14, 14976, Note_on_c, 6, 37, 100
14, 15024, Note_on_c, 6, 37, 0
14, 15024, Note_on_c, 6, 49, 0
14, 15024, Note_on_c, 6, 49, 100
14, 15072, Note_on_c, 6, 49, 0
14, 15072, Note_on_c, 6, 49, 100
14, 15120, Note_on_c, 6, 49, 0
14, 15120, Note_on_c, 6, 49, 100
14, 15168, Note_on_c, 6, 49, 0
14, 15168, Note_on_c, 6, 49, 100
14, 15216, Note_on_c, 6, 49, 0
14, 15216, Note_on_c, 6, 49, 100
14, 15264, Note_on_c, 6, 49, 0
14, 15264, Note_on_c, 6, 50, 100
14, 15360, Note_on_c, 6, 50, 0
14, 15552, Control_c, 6, 7, 40
14, 15552, Note_on_c, 6, 50, 100
14, 15648, Note_on_c, 6, 50, 0
14, 15840, Note_on_c, 6, 50, 100
14, 15936, Note_on_c, 6, 50, 0
14, 16128, Note_on_c, 6, 50, 100
14, 16224, Note_on_c, 6, 50, 0
14, 16416, Note_on_c, 6, 43, 100
14, 16512, Note_on_c, 6, 43, 0
14, 16800, Control_c, 6, 7, 80
14, 16800, Note_on_c, 6, 59, 100
14, 16896, Note_on_c, 6, 59, 0
14, 16896, Note_on_c, 6, 60, 100
14, 16992, Note_on_c, 6, 60, 0
14, 16992, Note_on_c, 6, 62, 100
14, 17088, Note_on_c, 6, 62, 0
14, 17088, Note_on_c, 6, 50, 100
14, 17184, Note_on_c, 6, 50, 0
14, 17376, Note_on_c, 6, 52, 100
14, 17472, Note_on_c, 6, 52, 0
14, 17472, Note_on_c, 6, 54, 100
14, 17568, Note_on_c, 6, 54, 0
14, 17568, Note_on_c, 6, 55, 100
14, 17664, Note_on_c, 6, 55, 0
14, 17664, Note_on_c, 6, 43, 100
14, 17760, Note_on_c, 6, 43, 0
14, 17952, Note_on_c, 6, 59, 100
14, 17976, Note_on_c, 6, 59, 0
14, 18048, Note_on_c, 6, 55, 100
14, 18072, Note_on_c, 6, 55, 0
14, 18240, Note_on_c, 6, 59, 100
14, 18264, Note_on_c, 6, 59, 0
14, 18336, Note_on_c, 6, 53, 100
14, 18360, Note_on_c, 6, 53, 0
14, 18528, Note_on_c, 6, 59, 100
14, 18552, Note_on_c, 6, 59, 0
14, 18624, Note_on_c, 6, 52, 100
14, 18648, Note_on_c, 6, 52, 0
14, 18720, Note_on_c, 6, 51, 100
14, 18720, Note_on_c, 6, 39, 100
14, 18768, Note_on_c, 6, 39, 0
14, 18768, Note_on_c, 6, 51, 0
14, 18768, Note_on_c, 6, 51, 100
14, 18816, Note_on_c, 6, 51, 0
14, 18816, Note_on_c, 6, 51, 100
14, 18864, Note_on_c, 6, 51, 0
14, 18864, Note_on_c, 6, 51, 100
14, 18912, Note_on_c, 6, 51, 0
14, 18912, Note_on_c, 6, 51, 100
14, 18960, Note_on_c, 6, 51, 0
14, 18960, Note_on_c, 6, 51, 100
14, 19008, Note_on_c, 6, 51, 0
14, 19008, Note_on_c, 6, 52, 100
14, 19104, Note_on_c, 6, 52, 0
14, 19104, Note_on_c, 6, 64, 100
14, 19152, Note_on_c, 6, 64, 0
14, 19200, Note_on_c, 6, 64, 100
14, 19248, Note_on_c, 6, 64, 0
14, 19296, Note_on_c, 6, 45, 100
14, 19296, Note_on_c, 6, 52, 100
14, 19344, Note_on_c, 6, 52, 0
14, 19344, Note_on_c, 6, 45, 0
14, 19344, Note_on_c, 6, 60, 100
14, 19368, Note_on_c, 6, 60, 0
14, 19392, Note_on_c, 6, 59, 100
14, 19416, Note_on_c, 6, 59, 0
14, 19440, Note_on_c, 6, 57, 100
14, 19464, Note_on_c, 6, 57, 0
14, 19488, Note_on_c, 6, 56, 100
14, 19512, Note_on_c, 6, 56, 0
14, 19536, Note_on_c, 6, 54, 100
14, 19560, Note_on_c, 6, 54, 0
14, 19584, Note_on_c, 6, 52, 100
14, 19608, Note_on_c, 6, 52, 0
14, 19632, Note_on_c, 6, 53, 100
14, 19656, Note_on_c, 6, 53, 0
14, 19680, Note_on_c, 6, 52, 100
14, 19704, Note_on_c, 6, 52, 0
14, 19728, Note_on_c, 6, 50, 100
14, 19752, Note_on_c, 6, 50, 0
14, 19776, Note_on_c, 6, 48, 100
14, 19800, Note_on_c, 6, 48, 0
14, 19824, Note_on_c, 6, 47, 100
14, 19848, Note_on_c, 6, 47, 0
14, 19872, Note_on_c, 6, 45, 100
14, 19896, Note_on_c, 6, 45, 0
14, 19920, Note_on_c, 6, 60, 100
14, 19944, Note_on_c, 6, 60, 0
14, 19968, Note_on_c, 6, 59, 100
14, 19992, Note_on_c, 6, 59, 0
14, 20016, Note_on_c, 6, 57, 100
14, 20040, Note_on_c, 6, 57, 0
14, 20064, Note_on_c, 6, 56, 100
14, 20088, Note_on_c, 6, 56, 0
14, 20112, Note_on_c, 6, 54, 100
14, 20136, Note_on_c, 6, 54, 0
14, 20160, Note_on_c, 6, 52, 100
14, 20184, Note_on_c, 6, 52, 0
14, 20208, Note_on_c, 6, 53, 100
14, 20232, Note_on_c, 6, 53, 0
14, 20256, Note_on_c, 6, 52, 100
14, 20280, Note_on_c, 6, 52, 0
14, 20304, Note_on_c, 6, 50, 100
14, 20328, Note_on_c, 6, 50, 0
14, 20352, Note_on_c, 6, 48, 100
14, 20376, Note_on_c, 6, 48, 0
14, 20400, Note_on_c, 6, 47, 100
14, 20424, Note_on_c, 6, 47, 0
14, 20448, Note_on_c, 6, 45, 100
14, 20496, Note_on_c, 6, 45, 0
14, 20496, Note_on_c, 6, 57, 100
14, 20544, Note_on_c, 6, 57, 0
14, 20544, Note_on_c, 6, 57, 100
14, 20592, Note_on_c, 6, 57, 0
14, 20592, Note_on_c, 6, 57, 100
14, 20640, Note_on_c, 6, 57, 0
14, 20640, Note_on_c, 6, 57, 100
14, 20688, Note_on_c, 6, 57, 0
14, 20688, Note_on_c, 6, 57, 100
14, 20736, Note_on_c, 6, 57, 0
14, 20736, Note_on_c, 6, 57, 100
14, 20784, Note_on_c, 6, 57, 0
14, 20784, Note_on_c, 6, 45, 100
14, 20832, Note_on_c, 6, 45, 0
14, 20832, Note_on_c, 6, 57, 100
14, 20880, Note_on_c, 6, 57, 0
14, 20880, Note_on_c, 6, 56, 100
14, 20928, Note_on_c, 6, 56, 0
14, 20928, Note_on_c, 6, 57, 100
14, 20976, Note_on_c, 6, 57, 0
14, 20976, Note_on_c, 6, 56, 100
14, 21024, Note_on_c, 6, 56, 0
14, 21024, Note_on_c, 6, 57, 100
14, 21072, Note_on_c, 6, 57, 0
14, 21072, Note_on_c, 6, 45, 100
14, 21120, Note_on_c, 6, 45, 0
14, 21120, Note_on_c, 6, 57, 100
14, 21168, Note_on_c, 6, 57, 0
14, 21168, Note_on_c, 6, 56, 100
14, 21216, Note_on_c, 6, 56, 0
14, 21216, Note_on_c, 6, 57, 100
14, 21264, Note_on_c, 6, 57, 0
14, 21264, Note_on_c, 6, 56, 100
14, 21312, Note_on_c, 6, 56, 0
14, 21312, Note_on_c, 6, 57, 100
14, 21360, Note_on_c, 6, 57, 0
14, 21360, Note_on_c, 6, 57, 100
14, 21408, Note_on_c, 6, 57, 0
14, 21408, Note_on_c, 6, 57, 100
14, 21456, Note_on_c, 6, 57, 0
14, 21456, Note_on_c, 6, 57, 100
14, 21504, Note_on_c, 6, 57, 0
14, 21504, Note_on_c, 6, 59, 100
14, 21552, Note_on_c, 6, 59, 0
14, 21552, Note_on_c, 6, 59, 100
14, 21600, Note_on_c, 6, 59, 0
14, 21600, Control_c, 6, 7, 127
14, 21600, Note_on_c, 6, 60, 100
14, 21636, Control_c, 6, 7, 80
14, 21648, Note_on_c, 6, 60, 0
14, 21648, Note_on_c, 6, 60, 100
14, 21696, Note_on_c, 6, 60, 0
14, 21696, Note_on_c, 6, 60, 100
14, 21744, Note_on_c, 6, 60, 0
14, 21744, Note_on_c, 6, 60, 100
14, 21792, Note_on_c, 6, 60, 0
14, 21792, Note_on_c, 6, 60, 100
14, 21840, Note_on_c, 6, 60, 0
14, 21840, Note_on_c, 6, 60, 100
14, 21888, Note_on_c, 6, 60, 0
14, 21888, Control_c, 6, 7, 127
14, 21888, Note_on_c, 6, 56, 100
14, 21924, Control_c, 6, 7, 80
14, 21936, Note_on_c, 6, 56, 0
14, 21936, Note_on_c, 6, 56, 100
14, 21984, Note_on_c, 6, 56, 0
14, 21984, Note_on_c, 6, 56, 100
14, 22032, Note_on_c, 6, 56, 0
14, 22032, Note_on_c, 6, 56, 100
14, 22080, Note_on_c, 6, 56, 0
14, 22080, Note_on_c, 6, 56, 100
14, 22128, Note_on_c, 6, 56, 0
14, 22128, Note_on_c, 6, 56, 100
14, 22176, Note_on_c, 6, 56, 0
14, 22176, Control_c, 6, 7, 127
14, 22176, Note_on_c, 6, 58, 100
14, 22212, Control_c, 6, 7, 80
14, 22224, Note_on_c, 6, 58, 0
14, 22224, Note_on_c, 6, 58, 100
14, 22272, Note_on_c, 6, 58, 0
14, 22272, Note_on_c, 6, 58, 100
14, 22320, Note_on_c, 6, 58, 0
14, 22320, Note_on_c, 6, 58, 100
14, 22368, Note_on_c, 6, 58, 0
14, 22368, Note_on_c, 6, 58, 100
14, 22416, Note_on_c, 6, 58, 0
14, 22416, Note_on_c, 6, 58, 100
14, 22464, Note_on_c, 6, 58, 0
14, 22464, Control_c, 6, 7, 127
14, 22464, Note_on_c, 6, 54, 100
14, 22500, Control_c, 6, 7, 80
14, 22512, Note_on_c, 6, 54, 0
14, 22512, Note_on_c, 6, 54, 100
14, 22560, Note_on_c, 6, 54, 0
14, 22560, Note_on_c, 6, 54, 100
14, 22608, Note_on_c, 6, 54, 0
14, 22608, Note_on_c, 6, 54, 100
14, 22656, Note_on_c, 6, 54, 0
14, 22656, Note_on_c, 6, 54, 100
14, 22704, Note_on_c, 6, 54, 0
14, 22704, Note_on_c, 6, 54, 100
14, 22752, Note_on_c, 6, 54, 0
14, 22752, Control_c, 6, 7, 127
14, 22752, Note_on_c, 6, 56, 100
14, 22788, Control_c, 6, 7, 80
14, 22800, Note_on_c, 6, 56, 0
14, 22800, Note_on_c, 6, 56, 100
14, 22848, Note_on_c, 6, 56, 0
14, 22848, Note_on_c, 6, 56, 100
14, 22896, Note_on_c, 6, 56, 0
14, 22896, Note_on_c, 6, 56, 100
14, 22944, Note_on_c, 6, 56, 0
14, 22944, Control_c, 6, 7, 80
14, 22944, Note_on_c, 6, 57, 100
14, 22992, Note_on_c, 6, 57, 0
14, 22992, Note_on_c, 6, 57, 100
14, 23040, Note_on_c, 6, 57, 0
14, 23040, Note_on_c, 6, 51, 100
14, 23088, Note_on_c, 6, 51, 0
14, 23088, Note_on_c, 6, 51, 100
14, 23136, Note_on_c, 6, 51, 0
14, 23136, Note_on_c, 6, 52, 100
14, 23184, Note_on_c, 6, 52, 0
14, 23184, Note_on_c, 6, 52, 100
14, 23232, Note_on_c, 6, 52, 0
14, 23232, Note_on_c, 6, 52, 100
14, 23280, Note_on_c, 6, 52, 0
14, 23280, Note_on_c, 6, 52, 100
14, 23328, Note_on_c, 6, 52, 0
14, 23328, Note_on_c, 6, 45, 100
14, 23328, Note_on_c, 6, 57, 100
14, 23424, Note_on_c, 6, 57, 0
14, 23424, Note_on_c, 6, 45, 0
14, 23424, Note_on_c, 6, 45, 100
14, 23472, Note_on_c, 6, 45, 0
14, 23472, Note_on_c, 6, 47, 100
14, 23496, Note_on_c, 6, 47, 0
14, 23496, Note_on_c, 6, 48, 100
14, 23520, Note_on_c, 6, 48, 0
14, 23520, Note_on_c, 6, 50, 100
14, 23544, Note_on_c, 6, 50, 0
14, 23544, Note_on_c, 6, 52, 100
14, 23568, Note_on_c, 6, 52, 0
14, 23568, Note_on_c, 6, 53, 100
14, 23592, Note_on_c, 6, 53, 0
14, 23592, Note_on_c, 6, 56, 100
14, 23616, Note_on_c, 6, 56, 0
14, 23616, Note_on_c, 6, 57, 100
14, 23616, Note_on_c, 6, 45, 100
14, 23664, Note_on_c, 6, 45, 0
14, 23664, Note_on_c, 6, 57, 0
14, 23664, Note_on_c, 6, 57, 100
14, 23712, Note_on_c, 6, 57, 0
14, 23712, Note_on_c, 6, 57, 100
14, 23760, Note_on_c, 6, 57, 0
14, 23760, Note_on_c, 6, 57, 100
14, 23808, Note_on_c, 6, 57, 0
14, 23808, Note_on_c, 6, 57, 100
14, 23856, Note_on_c, 6, 57, 0
14, 23856, Note_on_c, 6, 57, 100
14, 23904, Note_on_c, 6, 57, 0
14, 23904, Note_on_c, 6, 46, 100
14, 23904, Note_on_c, 6, 58, 100
14, 23952, Note_on_c, 6, 58, 0
14, 23952, Note_on_c, 6, 46, 0
14, 23952, Note_on_c, 6, 58, 100
14, 23952, Note_on_c, 6, 58, 100
14, 24000, Note_on_c, 6, 58, 0
14, 24000, Note_on_c, 6, 58, 0
14, 24000, Note_on_c, 6, 58, 100
14, 24000, Note_on_c, 6, 58, 100
14, 24048, Note_on_c, 6, 58, 0
14, 24048, Note_on_c, 6, 58, 0
14, 24048, Note_on_c, 6, 58, 100
14, 24048, Note_on_c, 6, 58, 100
14, 24096, Note_on_c, 6, 58, 0
14, 24096, Note_on_c, 6, 58, 0
14, 24096, Note_on_c, 6, 58, 100
14, 24096, Note_on_c, 6, 58, 100
14, 24144, Note_on_c, 6, 58, 0
14, 24144, Note_on_c, 6, 58, 0
14, 24144, Note_on_c, 6, 58, 100
14, 24144, Note_on_c, 6, 58, 100
14, 24192, Note_on_c, 6, 58, 0
14, 24192, Note_on_c, 6, 58, 0
14, 24192, Note_on_c, 6, 49, 100
14, 24240, Note_on_c, 6, 49, 0
14, 24240, Note_on_c, 6, 49, 100
14, 24288, Note_on_c, 6, 49, 0
14, 24288, Note_on_c, 6, 49, 100
14, 24336, Note_on_c, 6, 49, 0
14, 24336, Note_on_c, 6, 49, 100
14, 24384, Note_on_c, 6, 49, 0
14, 24384, Note_on_c, 6, 50, 100
14, 24432, Note_on_c, 6, 50, 0
14, 24432, Note_on_c, 6, 50, 100
14, 24480, Note_on_c, 6, 50, 0
14, 24480, Note_on_c, 6, 50, 100
14, 24504, Note_on_c, 6, 50, 0
14, 24576, Note_on_c, 6, 55, 100
14, 24600, Note_on_c, 6, 55, 0
14, 24672, Note_on_c, 6, 56, 100
14, 24696, Note_on_c, 6, 56, 0
14, 24768, Time_signature, 5, 2, 24, 8
14, 24768, Time_signature, 5, 2, 24, 8
14, 24768, Note_on_c, 6, 57, 100
14, 24792, Note_on_c, 6, 57, 0
14, 24864, Note_on_c, 6, 45, 100
14, 24888, Note_on_c, 6, 45, 0
14, 24960, Note_on_c, 6, 46, 100
14, 25152, Note_on_c, 6, 46, 0
14, 25248, Time_signature, 3, 2, 24, 8
14, 25248, Time_signature, 3, 2, 24, 8
14, 25248, Note_on_c, 6, 45, 100
14, 25296, Note_on_c, 6, 45, 0
14, 25296, Note_on_c, 6, 65, 100
14, 25320, Note_on_c, 6, 65, 0
14, 25344, Note_on_c, 6, 64, 100
14, 25368, Note_on_c, 6, 64, 0
14, 25392, Note_on_c, 6, 62, 100
14, 25416, Note_on_c, 6, 62, 0
14, 25440, Note_on_c, 6, 61, 100
14, 25464, Note_on_c, 6, 61, 0
14, 25488, Note_on_c, 6, 58, 100
14, 25512, Note_on_c, 6, 58, 0
14, 25536, Note_on_c, 6, 57, 100
14, 25560, Note_on_c, 6, 57, 0
14, 25584, Note_on_c, 6, 58, 100
14, 25608, Note_on_c, 6, 58, 0
14, 25632, Note_on_c, 6, 57, 100
14, 25656, Note_on_c, 6, 57, 0
14, 25680, Note_on_c, 6, 55, 100
14, 25704, Note_on_c, 6, 55, 0
14, 25728, Note_on_c, 6, 53, 100
14, 25752, Note_on_c, 6, 53, 0
14, 25776, Note_on_c, 6, 52, 100
14, 25800, Note_on_c, 6, 52, 0
14, 25824, Note_on_c, 6, 50, 100
14, 25872, Note_on_c, 6, 50, 0
14, 25872, Note_on_c, 6, 65, 100
14, 25896, Note_on_c, 6, 65, 0
14, 25920, Note_on_c, 6, 64, 100
14, 25944, Note_on_c, 6, 64, 0
14, 25968, Note_on_c, 6, 62, 100
14, 25992, Note_on_c, 6, 62, 0
14, 26016, Note_on_c, 6, 61, 100
14, 26040, Note_on_c, 6, 61, 0
14, 26064, Note_on_c, 6, 58, 100
14, 26088, Note_on_c, 6, 58, 0
14, 26112, Note_on_c, 6, 57, 100
14, 26136, Note_on_c, 6, 57, 0
14, 26160, Note_on_c, 6, 58, 100
14, 26184, Note_on_c, 6, 58, 0
14, 26208, Note_on_c, 6, 57, 100
14, 26232, Note_on_c, 6, 57, 0
14, 26256, Note_on_c, 6, 55, 100
14, 26280, Note_on_c, 6, 55, 0
14, 26304, Note_on_c, 6, 53, 100
14, 26328, Note_on_c, 6, 53, 0
14, 26352, Note_on_c, 6, 52, 100
14, 26376, Note_on_c, 6, 52, 0
14, 26400, Note_on_c, 6, 50, 100
14, 26496, Note_on_c, 6, 50, 0
14, 26496, Note_on_c, 6, 62, 100
14, 26592, Note_on_c, 6, 62, 0
14, 26592, Note_on_c, 6, 62, 100
14, 26688, Note_on_c, 6, 62, 0
14, 26688, Note_on_c, 6, 62, 100
14, 26736, Note_on_c, 6, 62, 0
14, 26736, Note_on_c, 6, 50, 100
14, 26784, Note_on_c, 6, 50, 0
14, 26784, Note_on_c, 6, 62, 100
14, 26832, Note_on_c, 6, 62, 0
14, 26832, Note_on_c, 6, 61, 100
14, 26880, Note_on_c, 6, 61, 0
14, 26880, Note_on_c, 6, 62, 100
14, 26928, Note_on_c, 6, 62, 0
14, 26928, Note_on_c, 6, 61, 100
14, 26976, Note_on_c, 6, 61, 0
14, 26976, Note_on_c, 6, 62, 100
14, 27024, Note_on_c, 6, 62, 0
14, 27024, Note_on_c, 6, 50, 100
14, 27072, Note_on_c, 6, 50, 0
14, 27072, Note_on_c, 6, 62, 100
14, 27120, Note_on_c, 6, 62, 0
14, 27120, Note_on_c, 6, 61, 100
14, 27168, Note_on_c, 6, 61, 0
14, 27168, Note_on_c, 6, 62, 100
14, 27216, Note_on_c, 6, 62, 0
14, 27216, Note_on_c, 6, 61, 100
14, 27264, Note_on_c, 6, 61, 0
14, 27264, Note_on_c, 6, 62, 100
14, 27312, Note_on_c, 6, 62, 0
14, 27312, Note_on_c, 6, 62, 100
14, 27360, Note_on_c, 6, 62, 0
14, 27360, Note_on_c, 6, 59, 100
14, 27408, Note_on_c, 6, 59, 0
14, 27408, Note_on_c, 6, 59, 100
14, 27456, Note_on_c, 6, 59, 0
14, 27456, Note_on_c, 6, 56, 100
14, 27504, Note_on_c, 6, 56, 0
14, 27504, Note_on_c, 6, 56, 100
14, 27552, Note_on_c, 6, 56, 0
14, 27552, Note_on_c, 6, 55, 100
14, 27600, Note_on_c, 6, 55, 0
14, 27600, Note_on_c, 6, 64, 100
14, 27624, Note_on_c, 6, 64, 0
14, 27648, Note_on_c, 6, 62, 100
14, 27672, Note_on_c, 6, 62, 0
14, 27696, Note_on_c, 6, 60, 100
14, 27720, Note_on_c, 6, 60, 0
14, 27744, Note_on_c, 6, 59, 100
14, 27768, Note_on_c, 6, 59, 0
14, 27792, Note_on_c, 6, 57, 100
14, 27816, Note_on_c, 6, 57, 0
14, 27840, Note_on_c, 6, 55, 100
14, 27864, Note_on_c, 6, 55, 0
14, 27888, Note_on_c, 6, 57, 100
14, 27912, Note_on_c, 6, 57, 0
14, 27936, Note_on_c, 6, 55, 100
14, 27960, Note_on_c, 6, 55, 0
14, 27984, Note_on_c, 6, 53, 100
14, 28008, Note_on_c, 6, 53, 0
14, 28032, Note_on_c, 6, 52, 100
14, 28056, Note_on_c, 6, 52, 0
14, 28080, Note_on_c, 6, 50, 100
14, 28104, Note_on_c, 6, 50, 0
14, 28128, Note_on_c, 6, 48, 100
14, 28176, Note_on_c, 6, 48, 0
14, 28176, Note_on_c, 6, 64, 100
14, 28200, Note_on_c, 6, 64, 0
14, 28224, Note_on_c, 6, 62, 100
14, 28248, Note_on_c, 6, 62, 0
14, 28272, Note_on_c, 6, 60, 100
14, 28296, Note_on_c, 6, 60, 0
14, 28320, Note_on_c, 6, 59, 100
14, 28344, Note_on_c, 6, 59, 0
14, 28368, Note_on_c, 6, 57, 100
14, 28392, Note_on_c, 6, 57, 0
14, 28416, Note_on_c, 6, 55, 100
14, 28440, Note_on_c, 6, 55, 0
14, 28464, Note_on_c, 6, 57, 100
14, 28488, Note_on_c, 6, 57, 0
14, 28512, Note_on_c, 6, 55, 100
14, 28536, Note_on_c, 6, 55, 0
14, 28560, Note_on_c, 6, 53, 100
14, 28584, Note_on_c, 6, 53, 0
14, 28608, Note_on_c, 6, 52, 100
14, 28632, Note_on_c, 6, 52, 0
14, 28656, Note_on_c, 6, 50, 100
14, 28680, Note_on_c, 6, 50, 0
14, 28704, Note_on_c, 6, 48, 100
14, 28752, Note_on_c, 6, 48, 0
14, 28752, Note_on_c, 6, 48, 100
14, 28848, Note_on_c, 6, 48, 100
14, 28896, Note_on_c, 6, 48, 0
14, 28944, Note_on_c, 6, 48, 100
14, 28992, Note_on_c, 6, 48, 0
14, 28992, Note_on_c, 6, 48, 0
14, 28992, Note_on_c, 6, 60, 100
14, 28992, Note_on_c, 6, 48, 100
14, 29040, Note_on_c, 6, 48, 0
14, 29040, Note_on_c, 6, 60, 0
14, 29040, Note_on_c, 6, 60, 100
14, 29136, Note_on_c, 6, 60, 100
14, 29184, Note_on_c, 6, 60, 0
14, 29232, Note_on_c, 6, 60, 100
14, 29280, Note_on_c, 6, 60, 0
14, 29280, Note_on_c, 6, 60, 0
14, 29280, Note_on_c, 6, 55, 100
14, 29280, Note_on_c, 6, 43, 100
14, 29328, Note_on_c, 6, 43, 0
14, 29328, Note_on_c, 6, 55, 0
14, 29328, Note_on_c, 6, 55, 100
14, 29424, Note_on_c, 6, 55, 100
14, 29472, Note_on_c, 6, 55, 0
14, 29520, Note_on_c, 6, 55, 100
14, 29568, Note_on_c, 6, 55, 0
14, 29568, Note_on_c, 6, 55, 0
14, 29568, Note_on_c, 6, 58, 100
14, 29568, Note_on_c, 6, 46, 100
14, 29616, Note_on_c, 6, 46, 0
14, 29616, Note_on_c, 6, 58, 0
14, 29616, Note_on_c, 6, 58, 100
14, 29712, Note_on_c, 6, 58, 100
14, 29760, Note_on_c, 6, 58, 0
14, 29808, Note_on_c, 6, 58, 100
14, 29856, Note_on_c, 6, 58, 0
14, 29856, Note_on_c, 6, 58, 0
14, 29856, Note_on_c, 6, 41, 100
14, 29856, Note_on_c, 6, 53, 100
14, 29904, Note_on_c, 6, 53, 0
14, 29904, Note_on_c, 6, 41, 0
14, 29904, Note_on_c, 6, 53, 100
14, 29952, Note_on_c, 6, 53, 0
14, 29952, Note_on_c, 6, 53, 100
14, 30000, Note_on_c, 6, 53, 0
14, 30000, Note_on_c, 6, 53, 100
14, 30048, Note_on_c, 6, 53, 0
14, 30048, Note_on_c, 6, 53, 100
14, 30096, Note_on_c, 6, 53, 0
14, 30096, Note_on_c, 6, 53, 100
14, 30144, Note_on_c, 6, 53, 0
14, 30144, Note_on_c, 6, 44, 100
14, 30144, Note_on_c, 6, 56, 100
14, 30192, Note_on_c, 6, 56, 0
14, 30192, Note_on_c, 6, 44, 0
14, 30192, Note_on_c, 6, 56, 100
14, 30240, Note_on_c, 6, 56, 0
14, 30240, Note_on_c, 6, 56, 100
14, 30288, Note_on_c, 6, 56, 0
14, 30288, Note_on_c, 6, 56, 100
14, 30336, Note_on_c, 6, 56, 0
14, 30336, Note_on_c, 6, 56, 100
14, 30384, Note_on_c, 6, 56, 0
14, 30384, Note_on_c, 6, 56, 100
14, 30432, Note_on_c, 6, 56, 0
14, 30432, Note_on_c, 6, 39, 100
14, 30432, Note_on_c, 6, 51, 100
14, 30480, Note_on_c, 6, 51, 0
14, 30480, Note_on_c, 6, 39, 0
14, 30480, Note_on_c, 6, 51, 100
14, 30528, Note_on_c, 6, 51, 0
14, 30528, Note_on_c, 6, 51, 100
14, 30576, Note_on_c, 6, 51, 0
14, 30576, Note_on_c, 6, 51, 100
14, 30624, Note_on_c, 6, 51, 0
14, 30624, Note_on_c, 6, 51, 100
14, 30672, Note_on_c, 6, 51, 0
14, 30672, Note_on_c, 6, 51, 100
14, 30720, Note_on_c, 6, 51, 0
14, 30720, Note_on_c, 6, 50, 100
14, 30768, Note_on_c, 6, 50, 0
14, 30960, Note_on_c, 6, 50, 100
14, 31008, Note_on_c, 6, 50, 0
14, 31008, Note_on_c, 6, 48, 100
14, 31056, Note_on_c, 6, 48, 0
14, 31248, Note_on_c, 6, 48, 100
14, 31296, Note_on_c, 6, 48, 0
14, 31296, Note_on_c, 6, 47, 100
14, 31344, Note_on_c, 6, 47, 0
14, 31536, Note_on_c, 6, 50, 100
14, 31584, Note_on_c, 6, 50, 0
14, 31584, Note_on_c, 6, 50, 100
14, 31632, Note_on_c, 6, 50, 0
14, 31632, Note_on_c, 6, 50, 100
14, 31680, Note_on_c, 6, 50, 0
14, 31680, Note_on_c, 6, 50, 100
14, 31728, Note_on_c, 6, 50, 0
14, 31728, Note_on_c, 6, 50, 100
14, 31776, Note_on_c, 6, 50, 0
14, 31776, Note_on_c, 6, 50, 100
14, 31824, Note_on_c, 6, 50, 0
14, 31824, Note_on_c, 6, 50, 100
14, 31872, Note_on_c, 6, 50, 0
14, 31872, Note_on_c, 6, 43, 100
14, 31920, Note_on_c, 6, 43, 0
14, 31920, Note_on_c, 6, 55, 100
14, 31968, Note_on_c, 6, 55, 0
14, 31968, Note_on_c, 6, 55, 100
14, 32016, Note_on_c, 6, 55, 0
14, 32016, Note_on_c, 6, 55, 100
14, 32064, Note_on_c, 6, 55, 0
14, 32064, Note_on_c, 6, 55, 100
14, 32112, Note_on_c, 6, 55, 0
14, 32112, Note_on_c, 6, 55, 100
14, 32160, Note_on_c, 6, 55, 0
14, 32160, Note_on_c, 6, 43, 100
14, 32208, Note_on_c, 6, 43, 0
14, 32208, Note_on_c, 6, 55, 100
14, 32256, Note_on_c, 6, 55, 0
14, 32256, Note_on_c, 6, 55, 100
14, 32304, Note_on_c, 6, 55, 0
14, 32304, Note_on_c, 6, 55, 100
14, 32352, Note_on_c, 6, 55, 0
14, 32352, Note_on_c, 6, 55, 100
14, 32400, Note_on_c, 6, 55, 0
14, 32400, Note_on_c, 6, 55, 100
14, 32448, Note_on_c, 6, 55, 0
14, 32448, Note_on_c, 6, 55, 100
14, 32496, Note_on_c, 6, 55, 0
14, 32688, Note_on_c, 6, 55, 100
14, 32736, Note_on_c, 6, 55, 0
14, 32736, Note_on_c, 6, 55, 100
14, 32784, Note_on_c, 6, 55, 0
14, 32976, Note_on_c, 6, 55, 100
14, 33024, Note_on_c, 6, 55, 0
14, 33024, Note_on_c, 6, 43, 100
14, 33072, Note_on_c, 6, 43, 0
14, 33072, Note_on_c, 6, 55, 100
14, 33120, Note_on_c, 6, 55, 0
14, 33120, Note_on_c, 6, 50, 100
14, 33168, Note_on_c, 6, 50, 0
14, 33168, Note_on_c, 6, 55, 100
14, 33216, Note_on_c, 6, 55, 0
14, 33216, Note_on_c, 6, 47, 100
14, 33264, Note_on_c, 6, 47, 0
14, 33264, Note_on_c, 6, 50, 100
14, 33312, Time_signature, 3, 2, 24, 8
14, 33312, Time_signature, 3, 2, 24, 8
14, 33312, Note_on_c, 6, 50, 0
14, 33312, Note_on_c, 6, 31, 100
14, 33312, Note_on_c, 6, 43, 100
14, 33792, Note_on_c, 6, 43, 0
14, 33792, Note_on_c, 6, 31, 0
14, 34176, Control_c, 6, 7, 60
14, 34176, Note_on_c, 6, 55, 100
14, 34368, Note_on_c, 6, 55, 0
14, 34368, Note_on_c, 6, 48, 100
14, 34464, Note_on_c, 6, 48, 0
14, 34752, Note_on_c, 6, 55, 100
14, 34944, Note_on_c, 6, 55, 0
14, 34944, Note_on_c, 6, 48, 100
14, 35040, Note_on_c, 6, 48, 0
14, 35040, Control_c, 6, 7, 40
14, 35040, Note_on_c, 6, 48, 100
14, 35088, Note_on_c, 6, 48, 0
14, 35328, Note_on_c, 6, 48, 100
14, 35376, Note_on_c, 6, 48, 0
14, 35616, Note_on_c, 6, 48, 100
14, 35664, Note_on_c, 6, 48, 0
14, 35904, Note_on_c, 6, 48, 100
14, 35952, Note_on_c, 6, 48, 0
14, 36192, Control_c, 6, 7, 60
14, 36192, Note_on_c, 6, 60, 100
14, 36240, Note_on_c, 6, 60, 0
14, 36480, Note_on_c, 6, 59, 100
14, 36528, Note_on_c, 6, 59, 0
14, 37056, Note_on_c, 6, 55, 100
14, 37152, Note_on_c, 6, 55, 0
14, 37152, Note_on_c, 6, 43, 100
14, 37248, Note_on_c, 6, 43, 0
14, 37440, Note_on_c, 6, 52, 100
14, 37536, Note_on_c, 6, 52, 0
14, 37536, Note_on_c, 6, 53, 100
14, 37632, Note_on_c, 6, 53, 0
14, 37632, Note_on_c, 6, 55, 100
14, 37728, Note_on_c, 6, 55, 0
14, 37728, Note_on_c, 6, 43, 100
14, 37824, Note_on_c, 6, 43, 0
14, 37920, Note_on_c, 6, 55, 100
14, 38016, Note_on_c, 6, 55, 0
14, 38016, Note_on_c, 6, 57, 100
14, 38112, Note_on_c, 6, 57, 0
14, 38112, Note_on_c, 6, 59, 100
14, 38208, Note_on_c, 6, 59, 0
14, 38208, Note_on_c, 6, 60, 100
14, 38304, Note_on_c, 6, 60, 0
14, 38304, Note_on_c, 6, 48, 100
14, 38400, Note_on_c, 6, 48, 0
14, 38592, Note_on_c, 6, 60, 100
14, 38616, Note_on_c, 6, 60, 0
14, 38688, Note_on_c, 6, 57, 100
14, 38712, Note_on_c, 6, 57, 0
14, 38880, Note_on_c, 6, 59, 100
14, 38904, Note_on_c, 6, 59, 0
14, 38976, Note_on_c, 6, 55, 100
14, 39000, Note_on_c, 6, 55, 0
14, 39168, Note_on_c, 6, 57, 100
14, 39192, Note_on_c, 6, 57, 0
14, 39264, Note_on_c, 6, 53, 100
14, 39288, Note_on_c, 6, 53, 0
14, 39360, Note_on_c, 6, 55, 100
14, 39408, Note_on_c, 6, 55, 0
14, 39408, Note_on_c, 6, 55, 100
14, 39456, Note_on_c, 6, 55, 0
14, 39456, Note_on_c, 6, 53, 100
14, 39504, Note_on_c, 6, 53, 0
14, 39504, Note_on_c, 6, 55, 100
14, 39552, Note_on_c, 6, 55, 0
14, 39552, Note_on_c, 6, 52, 100
14, 39600, Note_on_c, 6, 52, 0
14, 39600, Note_on_c, 6, 55, 100
14, 39648, Note_on_c, 6, 55, 0
14, 39648, Note_on_c, 6, 47, 100
14, 39720, Note_on_c, 6, 47, 0
14, 39720, Note_on_c, 6, 48, 100
14, 39744, Note_on_c, 6, 48, 0
14, 39744, Note_on_c, 6, 47, 100
14, 39792, Note_on_c, 6, 47, 0
14, 39792, Note_on_c, 6, 45, 100
14, 39816, Note_on_c, 6, 45, 0
14, 39816, Note_on_c, 6, 43, 100
14, 39840, Note_on_c, 6, 43, 0
14, 39840, Note_on_c, 6, 48, 100
14, 39888, Note_on_c, 6, 48, 0
14, 39888, Note_on_c, 6, 52, 100
14, 39936, Note_on_c, 6, 52, 0
14, 39936, Note_on_c, 6, 55, 100
14, 39984, Note_on_c, 6, 55, 0
14, 39984, Note_on_c, 6, 55, 100
14, 40032, Note_on_c, 6, 55, 0
14, 40032, Note_on_c, 6, 53, 100
14, 40080, Note_on_c, 6, 53, 0
14, 40080, Note_on_c, 6, 55, 100
14, 40128, Note_on_c, 6, 55, 0
14, 40128, Note_on_c, 6, 52, 100
14, 40176, Note_on_c, 6, 52, 0
14, 40176, Note_on_c, 6, 55, 100
14, 40224, Note_on_c, 6, 55, 0
14, 40224, Note_on_c, 6, 47, 100
14, 40296, Note_on_c, 6, 47, 0
14, 40296, Note_on_c, 6, 48, 100
14, 40320, Note_on_c, 6, 48, 0
14, 40320, Note_on_c, 6, 47, 100
14, 40368, Note_on_c, 6, 47, 0
14, 40368, Note_on_c, 6, 45, 100
14, 40392, Note_on_c, 6, 45, 0
14, 40392, Note_on_c, 6, 43, 100
14, 40416, Note_on_c, 6, 43, 0
14, 40416, Note_on_c, 6, 48, 100
14, 40464, Note_on_c, 6, 48, 0
14, 40464, Note_on_c, 6, 52, 100
14, 40512, Note_on_c, 6, 52, 0
14, 40512, Note_on_c, 6, 43, 100
14, 40512, Note_on_c, 6, 55, 100
14, 40596, Note_on_c, 6, 60, 100
14, 40608, Note_on_c, 6, 60, 0
14, 40608, Note_on_c, 6, 55, 0
14, 40608, Note_on_c, 6, 43, 0
14, 40608, Note_on_c, 6, 59, 100
14, 40656, Note_on_c, 6, 59, 0
14, 40656, Note_on_c, 6, 57, 100
14, 40680, Note_on_c, 6, 57, 0
14, 40680, Note_on_c, 6, 55, 100
14, 40704, Note_on_c, 6, 55, 0
14, 40704, Note_on_c, 6, 60, 100
14, 40752, Note_on_c, 6, 60, 0
14, 40752, Note_on_c, 6, 55, 100
14, 40800, Note_on_c, 6, 55, 0
14, 40800, Note_on_c, 6, 55, 100
14, 40848, Note_on_c, 6, 55, 0
14, 40848, Note_on_c, 6, 55, 100
14, 40896, Note_on_c, 6, 55, 0
14, 40896, Note_on_c, 6, 52, 100
14, 40944, Note_on_c, 6, 52, 0
14, 40944, Note_on_c, 6, 52, 100
14, 40992, Note_on_c, 6, 52, 0
14, 40992, Note_on_c, 6, 48, 100
14, 41040, Note_on_c, 6, 48, 0
14, 41040, Note_on_c, 6, 48, 100
14, 41088, Note_on_c, 6, 48, 0
14, 41088, Note_on_c, 6, 43, 100
14, 41088, Note_on_c, 6, 55, 100
14, 41136, Note_on_c, 6, 55, 0
14, 41136, Note_on_c, 6, 43, 0
14, 41136, Note_on_c, 6, 55, 100
14, 41160, Note_on_c, 6, 55, 0
14, 41184, Note_on_c, 6, 64, 100
14, 41208, Note_on_c, 6, 64, 0
14, 41232, Note_on_c, 6, 62, 100
14, 41256, Note_on_c, 6, 62, 0
14, 41280, Note_on_c, 6, 61, 100
14, 41304, Note_on_c, 6, 61, 0
14, 41328, Note_on_c, 6, 58, 100
14, 41352, Note_on_c, 6, 58, 0
14, 41376, Note_on_c, 6, 57, 100
14, 41400, Note_on_c, 6, 57, 0
14, 41424, Note_on_c, 6, 58, 100
14, 41448, Note_on_c, 6, 58, 0
14, 41472, Note_on_c, 6, 57, 100
14, 41496, Note_on_c, 6, 57, 0
14, 41520, Note_on_c, 6, 55, 100
14, 41544, Note_on_c, 6, 55, 0
14, 41568, Note_on_c, 6, 53, 100
14, 41592, Note_on_c, 6, 53, 0
14, 41616, Note_on_c, 6, 52, 100
14, 41640, Note_on_c, 6, 52, 0
14, 41664, Note_on_c, 6, 38, 100
14, 41664, Note_on_c, 6, 50, 100
14, 41712, Note_on_c, 6, 50, 0
14, 41712, Note_on_c, 6, 38, 0
14, 41712, Note_on_c, 6, 66, 100
14, 41736, Note_on_c, 6, 66, 0
14, 41760, Note_on_c, 6, 62, 100
14, 41784, Note_on_c, 6, 62, 0
14, 41808, Note_on_c, 6, 60, 100
14, 41832, Note_on_c, 6, 60, 0
14, 41856, Note_on_c, 6, 59, 100
14, 41880, Note_on_c, 6, 59, 0
14, 41904, Note_on_c, 6, 57, 100
14, 41928, Note_on_c, 6, 57, 0
14, 41952, Note_on_c, 6, 43, 100
14, 41952, Note_on_c, 6, 55, 100
14, 41976, Note_on_c, 6, 55, 0
14, 41976, Note_on_c, 6, 43, 0
14, 42000, Note_on_c, 6, 57, 100
14, 42024, Note_on_c, 6, 57, 0
14, 42048, Note_on_c, 6, 55, 100
14, 42072, Note_on_c, 6, 55, 0
14, 42096, Note_on_c, 6, 53, 100
14, 42120, Note_on_c, 6, 53, 0
14, 42144, Note_on_c, 6, 52, 100
14, 42168, Note_on_c, 6, 52, 0
14, 42192, Note_on_c, 6, 50, 100
14, 42216, Note_on_c, 6, 50, 0
14, 42240, Note_on_c, 6, 48, 100
14, 42288, Note_on_c, 6, 48, 0
14, 42288, Note_on_c, 6, 64, 100
14, 42312, Note_on_c, 6, 64, 0
14, 42336, Note_on_c, 6, 60, 100
14, 42360, Note_on_c, 6, 60, 0
14, 42384, Note_on_c, 6, 59, 100
14, 42408, Note_on_c, 6, 59, 0
14, 42432, Note_on_c, 6, 57, 100
14, 42456, Note_on_c, 6, 57, 0
14, 42480, Note_on_c, 6, 55, 100
14, 42504, Note_on_c, 6, 55, 0
14, 42528, Note_on_c, 6, 42, 100
14, 42528, Note_on_c, 6, 54, 100
14, 42552, Note_on_c, 6, 54, 0
14, 42552, Note_on_c, 6, 42, 0
14, 42576, Note_on_c, 6, 57, 100
14, 42600, Note_on_c, 6, 57, 0
14, 42624, Note_on_c, 6, 60, 100
14, 42648, Note_on_c, 6, 60, 0
14, 42672, Note_on_c, 6, 57, 100
14, 42696, Note_on_c, 6, 57, 0
14, 42720, Note_on_c, 6, 53, 100
14, 42744, Note_on_c, 6, 53, 0
14, 42768, Note_on_c, 6, 57, 100
14, 42792, Note_on_c, 6, 57, 0
14, 42816, Note_on_c, 6, 41, 100
14, 42840, Note_on_c, 6, 41, 0
14, 42864, Note_on_c, 6, 59, 100
14, 42888, Note_on_c, 6, 59, 0
14, 42912, Note_on_c, 6, 62, 100
14, 42936, Note_on_c, 6, 62, 0
14, 42960, Note_on_c, 6, 53, 100
14, 42984, Note_on_c, 6, 53, 0
14, 43008, Note_on_c, 6, 52, 100
14, 43032, Note_on_c, 6, 52, 0
14, 43056, Note_on_c, 6, 60, 100
14, 43080, Note_on_c, 6, 60, 0
14, 43104, Note_on_c, 6, 53, 100
14, 43152, Note_on_c, 6, 53, 0
14, 43200, Note_on_c, 6, 55, 100
14, 43248, Note_on_c, 6, 55, 0
14, 43296, Note_on_c, 6, 43, 100
14, 43344, Note_on_c, 6, 43, 0
14, 43392, Note_on_c, 6, 48, 100
14, 43392, Note_on_c, 6, 36, 100
14, 43440, Note_on_c, 6, 36, 0
14, 43440, Note_on_c, 6, 48, 0
14, 43440, Note_on_c, 6, 60, 100
14, 43464, Note_on_c, 6, 60, 0
14, 43488, Note_on_c, 6, 64, 100
14, 43512, Note_on_c, 6, 64, 0
14, 43536, Note_on_c, 6, 62, 100
14, 43560, Note_on_c, 6, 62, 0
14, 43584, Note_on_c, 6, 61, 100
14, 43608, Note_on_c, 6, 61, 0
14, 43632, Note_on_c, 6, 58, 100
14, 43656, Note_on_c, 6, 58, 0
14, 43680, Note_on_c, 6, 57, 100
14, 43704, Note_on_c, 6, 57, 0
14, 43728, Note_on_c, 6, 58, 100
14, 43752, Note_on_c, 6, 58, 0
14, 43776, Note_on_c, 6, 57, 100
14, 43800, Note_on_c, 6, 57, 0
14, 43824, Note_on_c, 6, 55, 100
14, 43848, Note_on_c, 6, 55, 0
14, 43872, Note_on_c, 6, 53, 100
14, 43896, Note_on_c, 6, 53, 0
14, 43920, Note_on_c, 6, 52, 100
14, 43944, Note_on_c, 6, 52, 0
14, 43968, Note_on_c, 6, 50, 100
14, 44016, Note_on_c, 6, 50, 0
14, 44016, Note_on_c, 6, 66, 100
14, 44040, Note_on_c, 6, 66, 0
14, 44064, Note_on_c, 6, 62, 100
14, 44088, Note_on_c, 6, 62, 0
14, 44112, Note_on_c, 6, 60, 100
14, 44136, Note_on_c, 6, 60, 0
14, 44160, Note_on_c, 6, 59, 100
14, 44184, Note_on_c, 6, 59, 0
14, 44208, Note_on_c, 6, 57, 100
14, 44232, Note_on_c, 6, 57, 0
14, 44256, Note_on_c, 6, 55, 100
14, 44280, Note_on_c, 6, 55, 0
14, 44304, Note_on_c, 6, 56, 100
14, 44328, Note_on_c, 6, 56, 0
14, 44352, Note_on_c, 6, 55, 100
14, 44376, Note_on_c, 6, 55, 0
14, 44400, Note_on_c, 6, 53, 100
14, 44424, Note_on_c, 6, 53, 0
14, 44448, Note_on_c, 6, 52, 100
14, 44472, Note_on_c, 6, 52, 0
14, 44496, Note_on_c, 6, 50, 100
14, 44520, Note_on_c, 6, 50, 0
14, 44544, Note_on_c, 6, 48, 100
14, 44592, Note_on_c, 6, 48, 0
14, 44592, Note_on_c, 6, 64, 100
14, 44616, Note_on_c, 6, 64, 0
14, 44640, Note_on_c, 6, 60, 100
14, 44664, Note_on_c, 6, 60, 0
14, 44688, Note_on_c, 6, 59, 100
14, 44712, Note_on_c, 6, 59, 0
14, 44736, Note_on_c, 6, 57, 100
14, 44760, Note_on_c, 6, 57, 0
14, 44784, Note_on_c, 6, 55, 100
14, 44808, Note_on_c, 6, 55, 0
14, 44832, Note_on_c, 6, 54, 100
14, 44880, Note_on_c, 6, 54, 0
14, 44880, Note_on_c, 6, 57, 100
14, 44928, Note_on_c, 6, 57, 0
14, 44928, Note_on_c, 6, 60, 100
14, 44976, Note_on_c, 6, 60, 0
14, 44976, Note_on_c, 6, 57, 100
14, 45024, Note_on_c, 6, 57, 0
14, 45024, Note_on_c, 6, 57, 100
14, 45072, Note_on_c, 6, 57, 0
14, 45072, Note_on_c, 6, 60, 100
14, 45120, Note_on_c, 6, 60, 0
14, 45120, Note_on_c, 6, 53, 100
14, 45168, Note_on_c, 6, 53, 0
14, 45168, Note_on_c, 6, 59, 100
14, 45216, Note_on_c, 6, 59, 0
14, 45216, Note_on_c, 6, 62, 100
14, 45264, Note_on_c, 6, 62, 0
14, 45264, Note_on_c, 6, 53, 100
14, 45312, Note_on_c, 6, 53, 0
14, 45312, Note_on_c, 6, 52, 100
14, 45360, Note_on_c, 6, 52, 0
14, 45360, Note_on_c, 6, 60, 100
14, 45408, Note_on_c, 6, 60, 0
14, 45408, Note_on_c, 6, 53, 100
14, 45456, Note_on_c, 6, 53, 0
14, 45456, Note_on_c, 6, 50, 100
14, 45504, Note_on_c, 6, 50, 0
14, 45504, Note_on_c, 6, 55, 100
14, 45552, Note_on_c, 6, 55, 0
14, 45552, Note_on_c, 6, 53, 100
14, 45600, Note_on_c, 6, 53, 0
14, 45600, Note_on_c, 6, 55, 100
14, 45648, Note_on_c, 6, 55, 0
14, 45648, Note_on_c, 6, 43, 100
14, 45696, Note_on_c, 6, 43, 0
14, 45696, Note_on_c, 6, 48, 100
14, 45744, Note_on_c, 6, 48, 0
14, 45744, Note_on_c, 6, 43, 100
14, 45768, Note_on_c, 6, 43, 0
14, 45792, Note_on_c, 6, 43, 100
14, 45816, Note_on_c, 6, 43, 0
14, 45840, Note_on_c, 6, 43, 100
14, 45864, Note_on_c, 6, 43, 0
14, 45888, Note_on_c, 6, 43, 100
14, 45960, Note_on_c, 6, 43, 0
14, 45960, Note_on_c, 6, 45, 100
14, 45972, Note_on_c, 6, 45, 0
14, 45972, Note_on_c, 6, 47, 100
14, 45984, Note_on_c, 6, 47, 0
14, 45984, Note_on_c, 6, 48, 100
14, 46032, Note_on_c, 6, 48, 0
14, 46032, Note_on_c, 6, 43, 100
14, 46056, Note_on_c, 6, 43, 0
14, 46080, Note_on_c, 6, 43, 100
14, 46104, Note_on_c, 6, 43, 0
14, 46128, Note_on_c, 6, 43, 100
14, 46152, Note_on_c, 6, 43, 0
14, 46176, Note_on_c, 6, 43, 100
14, 46248, Note_on_c, 6, 43, 0
14, 46248, Note_on_c, 6, 45, 100
14, 46260, Note_on_c, 6, 45, 0
14, 46260, Note_on_c, 6, 47, 100
14, 46272, Note_on_c, 6, 47, 0
14, 46272, Note_on_c, 6, 48, 100
14, 46320, Note_on_c, 6, 48, 0
14, 46320, Note_on_c, 6, 52, 100
14, 46368, Note_on_c, 6, 52, 0
14, 46368, Note_on_c, 6, 55, 100
14, 46416, Note_on_c, 6, 55, 0
14, 46416, Note_on_c, 6, 54, 100
14, 46464, Note_on_c, 6, 54, 0
14, 46464, Note_on_c, 6, 55, 100
14, 46512, Note_on_c, 6, 55, 0
14, 46512, Note_on_c, 6, 43, 100
14, 46560, Note_on_c, 6, 43, 0
14, 46560, Note_on_c, 6, 48, 100
14, 46608, Note_on_c, 6, 48, 0
14, 46608, Note_on_c, 6, 55, 100
14, 46632, Note_on_c, 6, 55, 0
14, 46656, Note_on_c, 6, 55, 100
14, 46680, Note_on_c, 6, 55, 0
14, 46704, Note_on_c, 6, 55, 100
14, 46728, Note_on_c, 6, 55, 0
14, 46752, Note_on_c, 6, 55, 100
14, 46824, Note_on_c, 6, 55, 0
14, 46824, Note_on_c, 6, 57, 100
14, 46836, Note_on_c, 6, 57, 0
14, 46836, Note_on_c, 6, 59, 100
14, 46848, Note_on_c, 6, 59, 0
14, 46848, Note_on_c, 6, 60, 100
14, 46896, Note_on_c, 6, 60, 0
14, 46896, Note_on_c, 6, 55, 100
14, 46920, Note_on_c, 6, 55, 0
14, 46944, Note_on_c, 6, 55, 100
14, 46968, Note_on_c, 6, 55, 0
14, 46992, Note_on_c, 6, 55, 100
14, 47016, Note_on_c, 6, 55, 0
14, 47040, Note_on_c, 6, 55, 100
14, 47112, Note_on_c, 6, 55, 0
14, 47112, Note_on_c, 6, 57, 100
14, 47124, Note_on_c, 6, 57, 0
14, 47124, Note_on_c, 6, 59, 100
14, 47136, Note_on_c, 6, 59, 0
14, 47136, Note_on_c, 6, 60, 100
14, 47184, Note_on_c, 6, 60, 0
14, 47184, Note_on_c, 6, 52, 100
14, 47232, Note_on_c, 6, 52, 0
14, 47232, Note_on_c, 6, 55, 100
14, 47280, Note_on_c, 6, 55, 0
14, 47280, Note_on_c, 6, 54, 100
14, 47328, Note_on_c, 6, 54, 0
14, 47328, Note_on_c, 6, 55, 100
14, 47376, Note_on_c, 6, 55, 0
14, 47376, Note_on_c, 6, 43, 100
14, 47424, Note_on_c, 6, 43, 0
14, 47424, Note_on_c, 6, 48, 100
14, 47424, Note_on_c, 6, 36, 100
14, 47520, Note_on_c, 6, 36, 0
14, 47520, Note_on_c, 6, 48, 0
14, 47520, End_track
15, 0, Start_track
15, 0, Title_t, "Organ"
15, 0, Key_signature, 0, "major"
15, 0, Time_signature, 3, 2, 24, 8
15, 0, Time_signature, 3, 2, 24, 8
15, 0, Control_c, 7, 7, 80
15, 0, Program_c, 7, 16
15, 0, Note_on_c, 7, 72, 100
15, 0, Note_on_c, 7, 64, 100
15, 0, Note_on_c, 7, 67, 100
15, 288, Note_on_c, 7, 67, 0
15, 288, Note_on_c, 7, 64, 0
15, 288, Note_on_c, 7, 72, 0
15, 288, Note_on_c, 7, 71, 100
15, 288, Note_on_c, 7, 62, 100
15, 288, Note_on_c, 7, 65, 100
15, 384, Note_on_c, 7, 65, 0
15, 384, Note_on_c, 7, 62, 0
15, 384, Note_on_c, 7, 71, 0
15, 1152, Note_on_c, 7, 77, 100
15, 1152, Note_on_c, 7, 74, 100
15, 1152, Note_on_c, 7, 67, 100
15, 1440, Note_on_c, 7, 67, 0
15, 1440, Note_on_c, 7, 74, 0
15, 1440, Note_on_c, 7, 77, 0
15, 1440, Note_on_c, 7, 76, 100
15, 1440, Note_on_c, 7, 72, 100
15, 1440, Note_on_c, 7, 67, 100
15, 1536, Note_on_c, 7, 67, 0
15, 1536, Note_on_c, 7, 72, 0
15, 1536, Note_on_c, 7, 76, 0
15, 2304, Note_on_c, 7, 72, 100
15, 2304, Note_on_c, 7, 69, 100
15, 2304, Note_on_c, 7, 65, 100
15, 2400, Note_on_c, 7, 65, 0
15, 2400, Note_on_c, 7, 69, 0
15, 2400, Note_on_c, 7, 72, 0
15, 2400, Note_on_c, 7, 69, 100
15, 2400, Note_on_c, 7, 65, 100
15, 2400, Note_on_c, 7, 60, 100
15, 2496, Note_on_c, 7, 60, 0
15, 2496, Note_on_c, 7, 65, 0
15, 2496, Note_on_c, 7, 69, 0
15, 2496, Note_on_c, 7, 72, 100
15, 2496, Note_on_c, 7, 69, 100
15, 2496, Note_on_c, 7, 65, 100
15, 2592, Note_on_c, 7, 65, 0
15, 2592, Note_on_c, 7, 69, 0
15, 2592, Note_on_c, 7, 72, 0
15, 2592, Note_on_c, 7, 72, 100
15, 2592, Note_on_c, 7, 69, 100
15, 2592, Note_on_c, 7, 65, 100
15, 2688, Note_on_c, 7, 65, 0
15, 2688, Note_on_c, 7, 69, 0
15, 2688, Note_on_c, 7, 72, 0
15, 2688, Note_on_c, 7, 72, 100
15, 2688, Note_on_c, 7, 67, 100
15, 2688, Note_on_c, 7, 64, 100
15, 2784, Note_on_c, 7, 64, 0
15, 2784, Note_on_c, 7, 67, 0
15, 2784, Note_on_c, 7, 72, 0
15, 2880, Note_on_c, 7, 67, 100
15, 2880, Note_on_c, 7, 64, 100
15, 2976, Note_on_c, 7, 64, 0
15, 2976, Note_on_c, 7, 67, 0
15, 2976, Note_on_c, 7, 72, 100
15, 2976, Note_on_c, 7, 67, 100
15, 3072, Note_on_c, 7, 67, 0
15, 3072, Note_on_c, 7, 69, 100
15, 3168, Note_on_c, 7, 69, 0
15, 3168, Note_on_c, 7, 72, 0
15, 3168, Note_on_c, 7, 67, 100
15, 3168, Note_on_c, 7, 72, 100
15, 3168, Note_on_c, 7, 64, 100
15, 3264, Note_on_c, 7, 64, 0
15, 3264, Note_on_c, 7, 72, 0
15, 3264, Note_on_c, 7, 71, 100
15, 3264, Note_on_c, 7, 62, 100
15, 3360, Note_on_c, 7, 62, 0
15, 3360, Note_on_c, 7, 71, 0
15, 3360, Note_on_c, 7, 67, 0
15, 3552, Note_on_c, 7, 72, 100
15, 3552, Note_on_c, 7, 79, 100
15, 3648, Note_on_c, 7, 79, 0
15, 3648, Note_on_c, 7, 72, 0
15, 3648, Note_on_c, 7, 67, 100
15, 3744, Note_on_c, 7, 67, 0
15, 3744, Note_on_c, 7, 67, 100
15, 3744, Note_on_c, 7, 74, 100
15, 3744, Note_on_c, 7, 65, 100
15, 3840, Note_on_c, 7, 65, 0
15, 3840, Note_on_c, 7, 74, 0
15, 3840, Note_on_c, 7, 72, 100
15, 3840, Note_on_c, 7, 64, 100
15, 3936, Note_on_c, 7, 64, 0
15, 3936, Note_on_c, 7, 72, 0
15, 3936, Note_on_c, 7, 67, 0
15, 4128, Note_on_c, 7, 72, 100
15, 4128, Note_on_c, 7, 76, 100
15, 4224, Note_on_c, 7, 76, 0
15, 4224, Note_on_c, 7, 77, 100
15, 4320, Note_on_c, 7, 77, 0
15, 4320, Note_on_c, 7, 72, 0
15, 4320, Note_on_c, 7, 65, 100
15, 4320, Note_on_c, 7, 74, 100
15, 4416, Note_on_c, 7, 74, 0
15, 4416, Note_on_c, 7, 65, 0
15, 4416, Note_on_c, 7, 74, 100
15, 4416, Note_on_c, 7, 71, 100
15, 4512, Note_on_c, 7, 71, 0
15, 4512, Note_on_c, 7, 74, 0
15, 4512, Note_on_c, 7, 76, 100
15, 4512, Note_on_c, 7, 71, 100
15, 4608, Note_on_c, 7, 71, 0
15, 4608, Note_on_c, 7, 76, 0
15, 4608, Note_on_c, 7, 64, 100
15, 4608, Note_on_c, 7, 72, 100
15, 4704, Note_on_c, 7, 72, 0
15, 4704, Note_on_c, 7, 64, 0
15, 4704, Note_on_c, 7, 72, 100
15, 4704, Note_on_c, 7, 69, 100
15, 4800, Note_on_c, 7, 69, 0
15, 4800, Note_on_c, 7, 72, 0
15, 4800, Note_on_c, 7, 74, 100
15, 4800, Note_on_c, 7, 65, 100
15, 4896, Note_on_c, 7, 65, 0
15, 4896, Note_on_c, 7, 74, 0
15, 4896, Note_on_c, 7, 71, 100
15, 4896, Note_on_c, 7, 74, 100
15, 4896, Note_on_c, 7, 67, 100
15, 4992, Note_on_c, 7, 67, 0
15, 4992, Note_on_c, 7, 74, 0
15, 4992, Note_on_c, 7, 71, 0
15, 4992, Note_on_c, 7, 74, 100
15, 4992, Note_on_c, 7, 79, 100
15, 5088, Note_on_c, 7, 74, 0
15, 5088, Note_on_c, 7, 72, 100
15, 5184, Note_on_c, 7, 79, 0
15, 5184, Note_on_c, 7, 72, 0
15, 5184, Note_on_c, 7, 77, 100
15, 5184, Note_on_c, 7, 79, 100
15, 5184, Note_on_c, 7, 71, 100
15, 5280, Note_on_c, 7, 71, 0
15, 5280, Note_on_c, 7, 79, 0
15, 5280, Note_on_c, 7, 77, 0
15, 5280, Note_on_c, 7, 67, 100
15, 5280, Note_on_c, 7, 74, 100
15, 5376, Note_on_c, 7, 74, 0
15, 5376, Note_on_c, 7, 67, 0
15, 5376, Note_on_c, 7, 64, 100
15, 5376, Note_on_c, 7, 72, 100
15, 5472, Note_on_c, 7, 72, 0
15, 5472, Note_on_c, 7, 64, 0
15, 5472, Note_on_c, 7, 71, 100
15, 5472, Note_on_c, 7, 62, 100
15, 5568, Note_on_c, 7, 62, 0
15, 5568, Note_on_c, 7, 71, 0
15, 5568, Note_on_c, 7, 74, 100
15, 5568, Note_on_c, 7, 79, 100
15, 5664, Note_on_c, 7, 74, 0
15, 5664, Note_on_c, 7, 72, 100
15, 5760, Note_on_c, 7, 79, 0
15, 5760, Note_on_c, 7, 72, 0
15, 5760, Note_on_c, 7, 79, 100
15, 5760, Note_on_c, 7, 71, 100
15, 5856, Note_on_c, 7, 71, 0
15, 5856, Note_on_c, 7, 79, 0
15, 5856, Note_on_c, 7, 67, 100
15, 5856, Note_on_c, 7, 74, 100
15, 5952, Note_on_c, 7, 74, 0
15, 5952, Note_on_c, 7, 72, 100
15, 6048, Note_on_c, 7, 72, 0
15, 6048, Note_on_c, 7, 67, 0
15, 6048, Note_on_c, 7, 71, 100
15, 6048, Note_on_c, 7, 67, 100
15, 6048, Note_on_c, 7, 62, 100
15, 6144, Note_on_c, 7, 62, 0
15, 6144, Note_on_c, 7, 67, 0
15, 6144, Note_on_c, 7, 71, 0
15, 10080, Note_on_c, 7, 76, 100
15, 10080, Note_on_c, 7, 72, 100
15, 10080, Note_on_c, 7, 67, 100
15, 10368, Note_on_c, 7, 67, 0
15, 10368, Note_on_c, 7, 72, 0
15, 10368, Note_on_c, 7, 76, 0
15, 10368, Note_on_c, 7, 66, 100
15, 10368, Note_on_c, 7, 75, 100
15, 10368, Note_on_c, 7, 69, 100
15, 10656, Note_on_c, 7, 69, 0
15, 10656, Note_on_c, 7, 75, 0
15, 10656, Note_on_c, 7, 66, 0
15, 10656, Note_on_c, 7, 76, 100
15, 10656, Note_on_c, 7, 71, 100
15, 10656, Note_on_c, 7, 67, 100
15, 10944, Note_on_c, 7, 67, 0
15, 10944, Note_on_c, 7, 71, 0
15, 10944, Note_on_c, 7, 76, 0
15, 10944, Note_on_c, 7, 73, 100
15, 10944, Note_on_c, 7, 67, 100
15, 10944, Note_on_c, 7, 64, 100
15, 11232, Note_on_c, 7, 64, 0
15, 11232, Note_on_c, 7, 67, 0
15, 11232, Note_on_c, 7, 73, 0
15, 11232, Note_on_c, 7, 74, 100
15, 11232, Note_on_c, 7, 69, 100
15, 11232, Note_on_c, 7, 65, 100
15, 11520, Note_on_c, 7, 65, 0
15, 11520, Note_on_c, 7, 69, 0
15, 11520, Note_on_c, 7, 74, 0
15, 11520, Note_on_c, 7, 65, 100
15, 11520, Note_on_c, 7, 62, 100
15, 11520, Note_on_c, 7, 71, 100
15, 11808, Note_on_c, 7, 71, 0
15, 11808, Note_on_c, 7, 62, 0
15, 11808, Note_on_c, 7, 65, 0
15, 11808, Note_on_c, 7, 72, 100
15, 11808, Note_on_c, 7, 67, 100
15, 11808, Note_on_c, 7, 63, 100
15, 12096, Note_on_c, 7, 63, 0
15, 12096, Note_on_c, 7, 67, 0
15, 12096, Note_on_c, 7, 72, 0
15, 12096, Note_on_c, 7, 66, 100
15, 12096, Note_on_c, 7, 69, 100
15, 12096, Note_on_c, 7, 74, 100
15, 12384, Note_on_c, 7, 74, 0
15, 12384, Note_on_c, 7, 69, 0
15, 12384, Note_on_c, 7, 66, 0
15, 12384, Note_on_c, 7, 66, 100
15, 12384, Note_on_c, 7, 69, 100
15, 12384, Note_on_c, 7, 76, 100
15, 12672, Note_on_c, 7, 76, 0
15, 12672, Note_on_c, 7, 69, 0
15, 12672, Note_on_c, 7, 66, 0
15, 12672, Note_on_c, 7, 74, 100
15, 12672, Note_on_c, 7, 71, 100
15, 12672, Note_on_c, 7, 67, 100
15, 12960, Note_on_c, 7, 67, 0
15, 12960, Note_on_c, 7, 71, 0
15, 12960, Note_on_c, 7, 74, 0
15, 12960, Note_on_c, 7, 66, 100
15, 12960, Note_on_c, 7, 72, 100
15, 12960, Note_on_c, 7, 69, 100
15, 13248, Note_on_c, 7, 69, 0
15, 13248, Note_on_c, 7, 72, 0
15, 13248, Note_on_c, 7, 66, 0
15, 13248, Note_on_c, 7, 71, 100
15, 13248, Note_on_c, 7, 67, 100
15, 13248, Note_on_c, 7, 62, 100
15, 13440, Note_on_c, 7, 62, 0
15, 13440, Note_on_c, 7, 67, 0
15, 13440, Note_on_c, 7, 71, 0
15, 13440, Note_on_c, 7, 74, 100
15, 13440, Note_on_c, 7, 71, 100
15, 13440, Note_on_c, 7, 67, 100
15, 13536, Note_on_c, 7, 67, 0
15, 13536, Note_on_c, 7, 71, 0
15, 13536, Note_on_c, 7, 74, 0
15, 13536, Note_on_c, 7, 71, 100
15, 13536, Note_on_c, 7, 67, 100
15, 13536, Note_on_c, 7, 62, 100
15, 13728, Note_on_c, 7, 62, 0
15, 13728, Note_on_c, 7, 67, 0
15, 13728, Note_on_c, 7, 71, 0
15, 13728, Note_on_c, 7, 74, 100
15, 13728, Note_on_c, 7, 71, 100
15, 13728, Note_on_c, 7, 67, 100
15, 13824, Note_on_c, 7, 67, 0
15, 13824, Note_on_c, 7, 71, 0
15, 13824, Note_on_c, 7, 74, 0
15, 13824, Note_on_c, 7, 72, 100
15, 13824, Note_on_c, 7, 69, 100
15, 13824, Note_on_c, 7, 64, 100
15, 13920, Note_on_c, 7, 64, 0
15, 13920, Note_on_c, 7, 69, 0
15, 13920, Note_on_c, 7, 72, 0
15, 13920, Note_on_c, 7, 71, 100
15, 13920, Note_on_c, 7, 67, 100
15, 13920, Note_on_c, 7, 62, 100
15, 14016, Note_on_c, 7, 62, 0
15, 14016, Note_on_c, 7, 67, 0
15, 14016, Note_on_c, 7, 71, 0
15, 14016, Note_on_c, 7, 66, 100
15, 14016, Note_on_c, 7, 69, 100
15, 14016, Note_on_c, 7, 62, 100
15, 14112, Note_on_c, 7, 62, 0
15, 14112, Note_on_c, 7, 69, 0
15, 14112, Note_on_c, 7, 66, 0
15, 14112, Note_on_c, 7, 67, 100
15, 14112, Note_on_c, 7, 62, 100
15, 14112, Note_on_c, 7, 59, 100
15, 14208, Note_on_c, 7, 59, 0
15, 14208, Note_on_c, 7, 62, 0
15, 14208, Note_on_c, 7, 67, 0
15, 14400, Note_on_c, 7, 67, 100
15, 14400, Note_on_c, 7, 79, 100
15, 14688, Note_on_c, 7, 79, 0
15, 14688, Note_on_c, 7, 67, 0
15, 14688, Note_on_c, 7, 71, 100
15, 14688, Note_on_c, 7, 59, 100
15, 14880, Note_on_c, 7, 59, 0
15, 14880, Note_on_c, 7, 71, 0
15, 14880, Note_on_c, 7, 76, 100
15, 14880, Note_on_c, 7, 64, 100
15, 14976, Note_on_c, 7, 64, 0
15, 14976, Note_on_c, 7, 76, 0
15, 14976, Note_on_c, 7, 73, 100
15, 14976, Note_on_c, 7, 61, 100
15, 15264, Note_on_c, 7, 61, 0
15, 15264, Note_on_c, 7, 73, 0
15, 15264, Note_on_c, 7, 74, 100
15, 15264, Note_on_c, 7, 62, 100
15, 15360, Note_on_c, 7, 62, 0
15, 15360, Note_on_c, 7, 74, 0
15, 16800, Control_c, 7, 7, 80
15, 16800, Note_on_c, 7, 79, 100
15, 16800, Note_on_c, 7, 74, 100
15, 16800, Note_on_c, 7, 71, 100
15, 16896, Note_on_c, 7, 71, 0
15, 16896, Note_on_c, 7, 67, 100
15, 16944, Note_on_c, 7, 74, 0
15, 16944, Note_on_c, 7, 76, 100
15, 16992, Note_on_c, 7, 67, 0
15, 16992, Note_on_c, 7, 76, 0
15, 16992, Note_on_c, 7, 79, 0
15, 16992, Note_on_c, 7, 74, 100
15, 16992, Note_on_c, 7, 71, 100
15, 17088, Note_on_c, 7, 71, 0
15, 17088, Note_on_c, 7, 69, 100
15, 17184, Note_on_c, 7, 69, 0
15, 17184, Note_on_c, 7, 74, 0
15, 17376, Note_on_c, 7, 84, 100
15, 17376, Note_on_c, 7, 79, 100
15, 17472, Note_on_c, 7, 84, 0
15, 17472, Note_on_c, 7, 74, 100
15, 17568, Note_on_c, 7, 79, 0
15, 17568, Note_on_c, 7, 74, 0
15, 17568, Note_on_c, 7, 74, 100
15, 17568, Note_on_c, 7, 72, 100
15, 17568, Note_on_c, 7, 69, 100
15, 17664, Note_on_c, 7, 69, 0
15, 17664, Note_on_c, 7, 72, 0
15, 17664, Note_on_c, 7, 71, 100
15, 17664, Note_on_c, 7, 67, 100
15, 17760, Note_on_c, 7, 67, 0
15, 17760, Note_on_c, 7, 71, 0
15, 17760, Note_on_c, 7, 74, 0
15, 17952, Note_on_c, 7, 74, 100
15, 17952, Note_on_c, 7, 67, 100
15, 18048, Note_on_c, 7, 67, 0
15, 18048, Note_on_c, 7, 71, 100
15, 18144, Note_on_c, 7, 71, 0
15, 18144, Note_on_c, 7, 74, 0
15, 18240, Note_on_c, 7, 67, 100
15, 18240, Note_on_c, 7, 74, 100
15, 18336, Note_on_c, 7, 74, 0
15, 18336, Note_on_c, 7, 67, 0
15, 18336, Note_on_c, 7, 74, 100
15, 18336, Note_on_c, 7, 79, 100
15, 18432, Note_on_c, 7, 79, 0
15, 18432, Note_on_c, 7, 74, 0
15, 18528, Note_on_c, 7, 71, 100
15, 18528, Note_on_c, 7, 74, 100
15, 18528, Note_on_c, 7, 68, 100
15, 18624, Note_on_c, 7, 74, 0
15, 18624, Note_on_c, 7, 71, 0
15, 18624, Note_on_c, 7, 72, 100
15, 18624, Note_on_c, 7, 69, 100
15, 18672, Note_on_c, 7, 69, 0
15, 18672, Note_on_c, 7, 72, 0
15, 18672, Note_on_c, 7, 71, 100
15, 18672, Note_on_c, 7, 68, 100
15, 18720, Note_on_c, 7, 68, 0
15, 18720, Note_on_c, 7, 68, 0
15, 18720, Note_on_c, 7, 71, 0
15, 18720, Note_on_c, 7, 66, 100
15, 18720, Note_on_c, 7, 69, 100
15, 18720, Note_on_c, 7, 60, 100
15, 19008, Note_on_c, 7, 60, 0
15, 19008, Note_on_c, 7, 69, 0
15, 19008, Note_on_c, 7, 66, 0
15, 19008, Note_on_c, 7, 68, 100
15, 19008, Note_on_c, 7, 64, 100
15, 19008, Note_on_c, 7, 59, 100
15, 19104, Note_on_c, 7, 59, 0
15, 19104, Note_on_c, 7, 64, 0
15, 19104, Note_on_c, 7, 68, 0
15, 20640, Note_on_c, 7, 69, 100
15, 20640, Note_on_c, 7, 69, 100
15, 20640, Note_on_c, 7, 64, 100
15, 20640, Note_on_c, 7, 60, 100
15, 20736, Note_on_c, 7, 60, 0
15, 20736, Note_on_c, 7, 64, 0
15, 20736, Note_on_c, 7, 69, 0
15, 20736, Note_on_c, 7, 69, 0
15, 20736, Note_on_c, 7, 77, 100
15, 20736, Note_on_c, 7, 69, 100
15, 20736, Note_on_c, 7, 72, 100
15, 20880, Note_on_c, 7, 72, 0
15, 20880, Note_on_c, 7, 69, 0
15, 20880, Note_on_c, 7, 77, 0
15, 20880, Note_on_c, 7, 76, 100
15, 20880, Note_on_c, 7, 71, 100
15, 20880, Note_on_c, 7, 71, 100
15, 20928, Note_on_c, 7, 71, 0
15, 20928, Note_on_c, 7, 71, 0
15, 20928, Note_on_c, 7, 76, 0
15, 20928, Note_on_c, 7, 77, 100
15, 20928, Note_on_c, 7, 69, 100
15, 20928, Note_on_c, 7, 72, 100
15, 20976, Note_on_c, 7, 72, 0
15, 20976, Note_on_c, 7, 69, 0
15, 20976, Note_on_c, 7, 77, 0
15, 20976, Note_on_c, 7, 76, 100
15, 20976, Note_on_c, 7, 71, 100
15, 20976, Note_on_c, 7, 71, 100
15, 21024, Note_on_c, 7, 71, 0
15, 21024, Note_on_c, 7, 71, 0
15, 21024, Note_on_c, 7, 76, 0
15, 21024, Note_on_c, 7, 77, 100
15, 21024, Note_on_c, 7, 69, 100
15, 21024, Note_on_c, 7, 72, 100
15, 21168, Note_on_c, 7, 72, 0
15, 21168, Note_on_c, 7, 69, 0
15, 21168, Note_on_c, 7, 77, 0
15, 21168, Note_on_c, 7, 76, 100
15, 21168, Note_on_c, 7, 71, 100
15, 21168, Note_on_c, 7, 71, 100
15, 21216, Note_on_c, 7, 71, 0
15, 21216, Note_on_c, 7, 71, 0
15, 21216, Note_on_c, 7, 76, 0
15, 21216, Note_on_c, 7, 77, 100
15, 21216, Note_on_c, 7, 69, 100
15, 21216, Note_on_c, 7, 72, 100
15, 21264, Note_on_c, 7, 72, 0
15, 21264, Note_on_c, 7, 69, 0
15, 21264, Note_on_c, 7, 77, 0
15, 21264, Note_on_c, 7, 76, 100
15, 21264, Note_on_c, 7, 71, 100
15, 21264, Note_on_c, 7, 71, 100
15, 21312, Note_on_c, 7, 71, 0
15, 21312, Note_on_c, 7, 71, 0
15, 21312, Note_on_c, 7, 76, 0
15, 21312, Note_on_c, 7, 69, 100
15, 21312, Note_on_c, 7, 77, 100
15, 21312, Note_on_c, 7, 72, 100
15, 21504, Note_on_c, 7, 72, 0
15, 21504, Note_on_c, 7, 77, 0
15, 21504, Note_on_c, 7, 69, 0
15, 21504, Note_on_c, 7, 76, 100
15, 21504, Note_on_c, 7, 71, 100
15, 21504, Note_on_c, 7, 67, 100
15, 21600, Note_on_c, 7, 67, 0
15, 21600, Note_on_c, 7, 71, 0
15, 21600, Note_on_c, 7, 76, 0
15, 21600, Note_on_c, 7, 75, 100
15, 21600, Note_on_c, 7, 66, 100
15, 21600, Note_on_c, 7, 69, 100
15, 21888, Note_on_c, 7, 69, 0
15, 21888, Note_on_c, 7, 66, 0
15, 21888, Note_on_c, 7, 75, 0
15, 21888, Note_on_c, 7, 74, 100
15, 21888, Note_on_c, 7, 71, 100
15, 21888, Note_on_c, 7, 65, 100
15, 22176, Note_on_c, 7, 65, 0
15, 22176, Note_on_c, 7, 71, 0
15, 22176, Note_on_c, 7, 74, 0
15, 22176, Note_on_c, 7, 73, 100
15, 22176, Note_on_c, 7, 67, 100
15, 22176, Note_on_c, 7, 64, 100
15, 22464, Note_on_c, 7, 64, 0
15, 22464, Note_on_c, 7, 67, 0
15, 22464, Note_on_c, 7, 73, 0
15, 22464, Note_on_c, 7, 63, 100
15, 22464, Note_on_c, 7, 69, 100
15, 22464, Note_on_c, 7, 72, 100
15, 22752, Note_on_c, 7, 72, 0
15, 22752, Note_on_c, 7, 69, 0
15, 22752, Note_on_c, 7, 63, 0
15, 22752, Note_on_c, 7, 71, 100
15, 22752, Note_on_c, 7, 65, 100
15, 22752, Note_on_c, 7, 62, 100
15, 22944, Note_on_c, 7, 62, 0
15, 22944, Note_on_c, 7, 65, 0
15, 22944, Note_on_c, 7, 71, 0
15, 22944, Note_on_c, 7, 61, 100
15, 22944, Note_on_c, 7, 64, 100
15, 22944, Note_on_c, 7, 69, 100
15, 23040, Note_on_c, 7, 69, 0
15, 23040, Note_on_c, 7, 64, 0
15, 23040, Note_on_c, 7, 61, 0
15, 23040, Note_on_c, 7, 66, 100
15, 23040, Note_on_c, 7, 69, 100
15, 23040, Note_on_c, 7, 60, 100
15, 23136, Note_on_c, 7, 60, 0
15, 23136, Note_on_c, 7, 69, 0
15, 23136, Note_on_c, 7, 66, 0
15, 23136, Note_on_c, 7, 69, 100
15, 23136, Note_on_c, 7, 64, 100
15, 23136, Note_on_c, 7, 59, 100
15, 23232, Note_on_c, 7, 69, 0
15, 23232, Note_on_c, 7, 68, 100
15, 23328, Note_on_c, 7, 59, 0
15, 23328, Note_on_c, 7, 64, 0
15, 23328, Note_on_c, 7, 68, 0
15, 23328, Note_on_c, 7, 69, 100
15, 23328, Note_on_c, 7, 64, 100
15, 23328, Note_on_c, 7, 60, 100
15, 23424, Note_on_c, 7, 60, 0
15, 23424, Note_on_c, 7, 64, 0
15, 23424, Note_on_c, 7, 69, 0
15, 23616, Note_on_c, 7, 69, 100
15, 23904, Note_on_c, 7, 69, 0
15, 23904, Note_on_c, 7, 70, 100
15, 24192, Note_on_c, 7, 70, 0
15, 24192, Note_on_c, 7, 70, 100
15, 24192, Note_on_c, 7, 79, 100
15, 24192, Note_on_c, 7, 76, 100
15, 24384, Note_on_c, 7, 76, 0
15, 24384, Note_on_c, 7, 79, 0
15, 24384, Note_on_c, 7, 70, 0
15, 24384, Note_on_c, 7, 77, 100
15, 24384, Note_on_c, 7, 69, 100
15, 24384, Note_on_c, 7, 74, 100
15, 24480, Note_on_c, 7, 74, 0
15, 24480, Note_on_c, 7, 69, 0
15, 24480, Note_on_c, 7, 77, 0
15, 24480, Note_on_c, 7, 69, 100
15, 24480, Note_on_c, 7, 74, 100
15, 24480, Note_on_c, 7, 77, 100
15, 24504, Note_on_c, 7, 77, 0
15, 24504, Note_on_c, 7, 74, 0
15, 24504, Note_on_c, 7, 69, 0
15, 24576, Note_on_c, 7, 75, 100
15, 24576, Note_on_c, 7, 70, 100
15, 24576, Note_on_c, 7, 67, 100
15, 24600, Note_on_c, 7, 67, 0
15, 24600, Note_on_c, 7, 70, 0
15, 24600, Note_on_c, 7, 75, 0
15, 24672, Note_on_c, 7, 74, 100
15, 24672, Note_on_c, 7, 71, 100
15, 24672, Note_on_c, 7, 65, 100
15, 24696, Note_on_c, 7, 65, 0
15, 24696, Note_on_c, 7, 71, 0
15, 24696, Note_on_c, 7, 74, 0
15, 24768, Time_signature, 5, 2, 24, 8
15, 24768, Time_signature, 5, 2, 24, 8
15, 24768, Note_on_c, 7, 73, 100
15, 24768, Note_on_c, 7, 69, 100
15, 24768, Note_on_c, 7, 64, 100
15, 24960, Note_on_c, 7, 64, 0
15, 24960, Note_on_c, 7, 69, 0
15, 24960, Note_on_c, 7, 73, 0
15, 24960, Note_on_c, 7, 68, 100
15, 24960, Note_on_c, 7, 74, 100
15, 24960, Note_on_c, 7, 62, 100
15, 25152, Note_on_c, 7, 62, 0
15, 25152, Note_on_c, 7, 74, 0
15, 25152, Note_on_c, 7, 68, 0
15, 25248, Time_signature, 3, 2, 24, 8
15, 25248, Time_signature, 3, 2, 24, 8
15, 25248, Note_on_c, 7, 61, 100
15, 25248, Note_on_c, 7, 69, 100
15, 25248, Note_on_c, 7, 64, 100
15, 25344, Note_on_c, 7, 64, 0
15, 25344, Note_on_c, 7, 69, 0
15, 25344, Note_on_c, 7, 61, 0
15, 25824, Note_on_c, 7, 74, 100
15, 25824, Note_on_c, 7, 69, 100
15, 25824, Note_on_c, 7, 65, 100
15, 25920, Note_on_c, 7, 65, 0
15, 25920, Note_on_c, 7, 69, 0
15, 25920, Note_on_c, 7, 74, 0
15, 26400, Note_on_c, 7, 74, 100
15, 26400, Note_on_c, 7, 69, 100
15, 26400, Note_on_c, 7, 65, 100
15, 26688, Note_on_c, 7, 65, 0
15, 26688, Note_on_c, 7, 69, 0
15, 26688, Note_on_c, 7, 74, 0
15, 26688, Note_on_c, 7, 77, 100
15, 26688, Note_on_c, 7, 65, 100
15, 26688, Note_on_c, 7, 69, 100
15, 26832, Note_on_c, 7, 69, 0
15, 26832, Note_on_c, 7, 65, 0
15, 26832, Note_on_c, 7, 77, 0
15, 26832, Note_on_c, 7, 76, 100
15, 26832, Note_on_c, 7, 67, 100
15, 26832, Note_on_c, 7, 70, 100
15, 26880, Note_on_c, 7, 70, 0
15, 26880, Note_on_c, 7, 67, 0
15, 26880, Note_on_c, 7, 76, 0
15, 26880, Note_on_c, 7, 77, 100
15, 26880, Note_on_c, 7, 65, 100
15, 26880, Note_on_c, 7, 69, 100
15, 26928, Note_on_c, 7, 69, 0
15, 26928, Note_on_c, 7, 65, 0
15, 26928, Note_on_c, 7, 77, 0
15, 26928, Note_on_c, 7, 76, 100
15, 26928, Note_on_c, 7, 67, 100
15, 26928, Note_on_c, 7, 70, 100
15, 26976, Note_on_c, 7, 70, 0
15, 26976, Note_on_c, 7, 67, 0
15, 26976, Note_on_c, 7, 76, 0
15, 26976, Note_on_c, 7, 77, 100
15, 26976, Note_on_c, 7, 65, 100
15, 26976, Note_on_c, 7, 69, 100
15, 27120, Note_on_c, 7, 69, 0
15, 27120, Note_on_c, 7, 65, 0
15, 27120, Note_on_c, 7, 77, 0
15, 27120, Note_on_c, 7, 76, 100
15, 27120, Note_on_c, 7, 67, 100
15, 27120, Note_on_c, 7, 70, 100
15, 27168, Note_on_c, 7, 70, 0
15, 27168, Note_on_c, 7, 67, 0
15, 27168, Note_on_c, 7, 76, 0
15, 27168, Note_on_c, 7, 77, 100
15, 27168, Note_on_c, 7, 65, 100
15, 27168, Note_on_c, 7, 69, 100
15, 27216, Note_on_c, 7, 69, 0
15, 27216, Note_on_c, 7, 65, 0
15, 27216, Note_on_c, 7, 77, 0
15, 27216, Note_on_c, 7, 76, 100
15, 27216, Note_on_c, 7, 67, 100
15, 27216, Note_on_c, 7, 70, 100
15, 27264, Note_on_c, 7, 70, 0
15, 27264, Note_on_c, 7, 67, 0
15, 27264, Note_on_c, 7, 76, 0
15, 27264, Note_on_c, 7, 77, 100
15, 27264, Note_on_c, 7, 65, 100
15, 27264, Note_on_c, 7, 69, 100
15, 27360, Note_on_c, 7, 69, 0
15, 27360, Note_on_c, 7, 65, 0
15, 27360, Note_on_c, 7, 77, 0
15, 27360, Note_on_c, 7, 74, 100
15, 27360, Note_on_c, 7, 65, 100
15, 27360, Note_on_c, 7, 62, 100
15, 27456, Note_on_c, 7, 62, 0
15, 27456, Note_on_c, 7, 65, 0
15, 27456, Note_on_c, 7, 74, 0
15, 27456, Note_on_c, 7, 72, 100
15, 27456, Note_on_c, 7, 62, 100
15, 27456, Note_on_c, 7, 66, 100
15, 27552, Note_on_c, 7, 66, 0
15, 27552, Note_on_c, 7, 62, 0
15, 27552, Note_on_c, 7, 72, 0
15, 27552, Note_on_c, 7, 71, 100
15, 27552, Note_on_c, 7, 67, 100
15, 27552, Note_on_c, 7, 62, 100
15, 27648, Note_on_c, 7, 62, 0
15, 27648, Note_on_c, 7, 67, 0
15, 27648, Note_on_c, 7, 71, 0
15, 28704, Note_on_c, 7, 72, 100
15, 28704, Note_on_c, 7, 67, 100
15, 28704, Note_on_c, 7, 64, 100
15, 28992, Note_on_c, 7, 64, 0
15, 28992, Note_on_c, 7, 67, 0
15, 28992, Note_on_c, 7, 72, 0
15, 28992, Note_on_c, 7, 75, 100
15, 28992, Note_on_c, 7, 66, 100
15, 28992, Note_on_c, 7, 69, 100
15, 29280, Note_on_c, 7, 69, 0
15, 29280, Note_on_c, 7, 66, 0
15, 29280, Note_on_c, 7, 75, 0
15, 29280, Note_on_c, 7, 71, 100
15, 29280, Note_on_c, 7, 67, 100
15, 29280, Note_on_c, 7, 64, 100
15, 29568, Note_on_c, 7, 64, 0
15, 29568, Note_on_c, 7, 67, 0
15, 29568, Note_on_c, 7, 71, 0
15, 29568, Note_on_c, 7, 73, 100
15, 29568, Note_on_c, 7, 67, 100
15, 29568, Note_on_c, 7, 64, 100
15, 29856, Note_on_c, 7, 64, 0
15, 29856, Note_on_c, 7, 67, 0
15, 29856, Note_on_c, 7, 73, 0
15, 29856, Note_on_c, 7, 74, 100
15, 29856, Note_on_c, 7, 69, 100
15, 29856, Note_on_c, 7, 65, 100
15, 30144, Note_on_c, 7, 65, 0
15, 30144, Note_on_c, 7, 69, 0
15, 30144, Note_on_c, 7, 74, 0
15, 30144, Note_on_c, 7, 71, 100
15, 30144, Note_on_c, 7, 65, 100
15, 30144, Note_on_c, 7, 62, 100
15, 30432, Note_on_c, 7, 62, 0
15, 30432, Note_on_c, 7, 65, 0
15, 30432, Note_on_c, 7, 71, 0
15, 30432, Note_on_c, 7, 63, 100
15, 30432, Note_on_c, 7, 72, 100
15, 30432, Note_on_c, 7, 67, 100
15, 30720, Note_on_c, 7, 67, 0
15, 30720, Note_on_c, 7, 72, 0
15, 30720, Note_on_c, 7, 63, 0
15, 30720, Note_on_c, 7, 66, 100
15, 30720, Note_on_c, 7, 69, 100
15, 30720, Note_on_c, 7, 74, 100
15, 31008, Note_on_c, 7, 74, 0
15, 31008, Note_on_c, 7, 69, 0
15, 31008, Note_on_c, 7, 66, 0
15, 31008, Note_on_c, 7, 66, 100
15, 31008, Note_on_c, 7, 76, 100
15, 31008, Note_on_c, 7, 69, 100
15, 31296, Note_on_c, 7, 69, 0
15, 31296, Note_on_c, 7, 76, 0
15, 31296, Note_on_c, 7, 66, 0
15, 31296, Note_on_c, 7, 74, 100
15, 31296, Note_on_c, 7, 71, 100
15, 31296, Note_on_c, 7, 67, 100
15, 31584, Note_on_c, 7, 67, 0
15, 31584, Note_on_c, 7, 71, 0
15, 31584, Note_on_c, 7, 74, 0
15, 31584, Note_on_c, 7, 66, 100
15, 31584, Note_on_c, 7, 69, 100
15, 31584, Note_on_c, 7, 72, 100
15, 31872, Note_on_c, 7, 72, 0
15, 31872, Note_on_c, 7, 69, 0
15, 31872, Note_on_c, 7, 66, 0
15, 31872, Note_on_c, 7, 71, 100
15, 31872, Note_on_c, 7, 62, 100
15, 31872, Note_on_c, 7, 67, 100
15, 32160, Note_on_c, 7, 62, 0
15, 32160, Note_on_c, 7, 71, 0
15, 32160, Note_on_c, 7, 72, 100
15, 32160, Note_on_c, 7, 69, 100
15, 32256, Note_on_c, 7, 67, 0
15, 32256, Note_on_c, 7, 66, 100
15, 32448, Note_on_c, 7, 69, 0
15, 32448, Note_on_c, 7, 72, 0
15, 32448, Note_on_c, 7, 74, 100
15, 32448, Note_on_c, 7, 71, 100
15, 32544, Note_on_c, 7, 66, 0
15, 32544, Note_on_c, 7, 65, 100
15, 32736, Note_on_c, 7, 71, 0
15, 32736, Note_on_c, 7, 74, 0
15, 32736, Note_on_c, 7, 76, 100
15, 32736, Note_on_c, 7, 72, 100
15, 32832, Note_on_c, 7, 65, 0
15, 32928, Note_on_c, 7, 72, 100
15, 33024, Note_on_c, 7, 72, 0
15, 33024, Note_on_c, 7, 72, 0
15, 33024, Note_on_c, 7, 76, 0
15, 33024, Note_on_c, 7, 74, 100
15, 33024, Note_on_c, 7, 71, 100
15, 33024, Note_on_c, 7, 65, 100
15, 33312, Time_signature, 3, 2, 24, 8
15, 33312, Time_signature, 3, 2, 24, 8
15, 33312, Note_on_c, 7, 65, 0
15, 33312, Note_on_c, 7, 71, 0
15, 33312, Note_on_c, 7, 74, 0
15, 33312, Note_on_c, 7, 74, 100
15, 33312, Note_on_c, 7, 71, 100
15, 33312, Note_on_c, 7, 67, 100
15, 33312, Note_on_c, 7, 65, 100
15, 33792, Note_on_c, 7, 65, 0
15, 33792, Note_on_c, 7, 67, 0
15, 33792, Note_on_c, 7, 71, 0
15, 33792, Note_on_c, 7, 74, 0
15, 33888, Control_c, 7, 7, 80
15, 33888, Note_on_c, 7, 67, 100
15, 33960, Note_on_c, 7, 67, 0
15, 33960, Note_on_c, 7, 72, 100
15, 33984, Note_on_c, 7, 72, 0
15, 33984, Note_on_c, 7, 76, 100
15, 34032, Note_on_c, 7, 76, 0
15, 34080, Note_on_c, 7, 76, 100
15, 34128, Note_on_c, 7, 76, 0
15, 34464, Note_on_c, 7, 72, 100
15, 34536, Note_on_c, 7, 72, 0
15, 34536, Note_on_c, 7, 76, 100
15, 34560, Note_on_c, 7, 76, 0
15, 34560, Note_on_c, 7, 79, 100
15, 34608, Note_on_c, 7, 79, 0
15, 34656, Note_on_c, 7, 79, 100
15, 34704, Note_on_c, 7, 79, 0
15, 37440, Note_on_c, 7, 72, 100
15, 37440, Note_on_c, 7, 67, 100
15, 37536, Note_on_c, 7, 67, 0
15, 37536, Note_on_c, 7, 69, 100
15, 37632, Note_on_c, 7, 69, 0
15, 37632, Note_on_c, 7, 72, 0
15, 37632, Note_on_c, 7, 72, 100
15, 37632, Note_on_c, 7, 64, 100
15, 37632, Note_on_c, 7, 67, 100
15, 37728, Note_on_c, 7, 64, 0
15, 37728, Note_on_c, 7, 72, 0
15, 37728, Note_on_c, 7, 71, 100
15, 37728, Note_on_c, 7, 62, 100
15, 37824, Note_on_c, 7, 67, 0
15, 37824, Note_on_c, 7, 62, 0
15, 37824, Note_on_c, 7, 71, 0
15, 38016, Note_on_c, 7, 72, 100
15, 38016, Note_on_c, 7, 79, 100
15, 38112, Note_on_c, 7, 79, 0
15, 38112, Note_on_c, 7, 77, 100
15, 38208, Note_on_c, 7, 77, 0
15, 38208, Note_on_c, 7, 72, 0
15, 38208, Note_on_c, 7, 65, 100
15, 38208, Note_on_c, 7, 74, 100
15, 38208, Note_on_c, 7, 67, 100
15, 38304, Note_on_c, 7, 74, 0
15, 38304, Note_on_c, 7, 65, 0
15, 38304, Note_on_c, 7, 72, 100
15, 38304, Note_on_c, 7, 64, 100
15, 38400, Note_on_c, 7, 67, 0
15, 38400, Note_on_c, 7, 64, 0
15, 38400, Note_on_c, 7, 72, 0
15, 38592, Note_on_c, 7, 72, 100
15, 38592, Note_on_c, 7, 76, 100
15, 38688, Note_on_c, 7, 76, 0
15, 38688, Note_on_c, 7, 77, 100
15, 38784, Note_on_c, 7, 77, 0
15, 38784, Note_on_c, 7, 72, 0
15, 38880, Note_on_c, 7, 74, 100
15, 38880, Note_on_c, 7, 71, 100
15, 38976, Note_on_c, 7, 74, 0
15, 38976, Note_on_c, 7, 76, 100
15, 39072, Note_on_c, 7, 71, 0
15, 39072, Note_on_c, 7, 76, 0
15, 39168, Note_on_c, 7, 72, 100
15, 39168, Note_on_c, 7, 69, 100
15, 39264, Note_on_c, 7, 72, 0
15, 39264, Note_on_c, 7, 74, 100
15, 39360, Note_on_c, 7, 69, 0
15, 39360, Note_on_c, 7, 74, 0
15, 39360, Note_on_c, 7, 71, 100
15, 39360, Note_on_c, 7, 67, 100
15, 39360, Note_on_c, 7, 62, 100
15, 39456, Note_on_c, 7, 62, 0
15, 39456, Note_on_c, 7, 67, 0
15, 39456, Note_on_c, 7, 71, 0
15, 39456, Note_on_c, 7, 79, 100
15, 39456, Note_on_c, 7, 74, 100
15, 39552, Note_on_c, 7, 74, 0
15, 39552, Note_on_c, 7, 72, 100
15, 39648, Note_on_c, 7, 72, 0
15, 39648, Note_on_c, 7, 79, 0
15, 39648, Note_on_c, 7, 79, 100
15, 39648, Note_on_c, 7, 71, 100
15, 39744, Note_on_c, 7, 71, 0
15, 39744, Note_on_c, 7, 79, 0
15, 39744, Note_on_c, 7, 77, 100
15, 39744, Note_on_c, 7, 74, 100
15, 39744, Note_on_c, 7, 67, 100
15, 39840, Note_on_c, 7, 74, 0
15, 39840, Note_on_c, 7, 77, 0
15, 39840, Note_on_c, 7, 76, 100
15, 39840, Note_on_c, 7, 72, 100
15, 39936, Note_on_c, 7, 67, 0
15, 39936, Note_on_c, 7, 72, 0
15, 39936, Note_on_c, 7, 76, 0
15, 39936, Note_on_c, 7, 74, 100
15, 39936, Note_on_c, 7, 71, 100
15, 39936, Note_on_c, 7, 67, 100
15, 40032, Note_on_c, 7, 67, 0
15, 40032, Note_on_c, 7, 71, 0
15, 40032, Note_on_c, 7, 74, 0
15, 40032, Note_on_c, 7, 74, 100
15, 40032, Note_on_c, 7, 79, 100
15, 40128, Note_on_c, 7, 74, 0
15, 40128, Note_on_c, 7, 72, 100
15, 40224, Note_on_c, 7, 79, 0
15, 40224, Note_on_c, 7, 72, 0
15, 40224, Note_on_c, 7, 79, 100
15, 40224, Note_on_c, 7, 71, 100
15, 40320, Note_on_c, 7, 71, 0
15, 40320, Note_on_c, 7, 79, 0
15, 40320, Note_on_c, 7, 77, 100
15, 40320, Note_on_c, 7, 74, 100
15, 40320, Note_on_c, 7, 67, 100
15, 40416, Note_on_c, 7, 74, 0
15, 40416, Note_on_c, 7, 77, 0
15, 40416, Note_on_c, 7, 76, 100
15, 40416, Note_on_c, 7, 72, 100
15, 40512, Note_on_c, 7, 67, 0
15, 40512, Note_on_c, 7, 72, 0
15, 40512, Note_on_c, 7, 76, 0
15, 40512, Note_on_c, 7, 74, 100
15, 40512, Note_on_c, 7, 71, 100
15, 40512, Note_on_c, 7, 67, 100
15, 40608, Note_on_c, 7, 67, 0
15, 40608, Note_on_c, 7, 71, 0
15, 40608, Note_on_c, 7, 74, 0
15, 40800, Note_on_c, 7, 67, 100
15, 40800, Note_on_c, 7, 79, 100
15, 40896, Note_on_c, 7, 79, 0
15, 40896, Note_on_c, 7, 67, 0
15, 40896, Note_on_c, 7, 64, 100
15, 40896, Note_on_c, 7, 76, 100
15, 40992, Note_on_c, 7, 76, 0
15, 40992, Note_on_c, 7, 64, 0
15, 40992, Note_on_c, 7, 60, 100
15, 40992, Note_on_c, 7, 72, 100
15, 41088, Note_on_c, 7, 72, 0
15, 41088, Note_on_c, 7, 60, 0
15, 41088, Note_on_c, 7, 67, 100
15, 41376, Note_on_c, 7, 67, 0
15, 41376, Note_on_c, 7, 73, 100
15, 41376, Note_on_c, 7, 67, 100
15, 41376, Note_on_c, 7, 64, 100
15, 41664, Note_on_c, 7, 64, 0
15, 41664, Note_on_c, 7, 67, 0
15, 41664, Note_on_c, 7, 73, 0
15, 41664, Note_on_c, 7, 66, 100
15, 41664, Note_on_c, 7, 69, 100
15, 41664, Note_on_c, 7, 72, 100
15, 41952, Note_on_c, 7, 72, 0
15, 41952, Note_on_c, 7, 69, 0
15, 41952, Note_on_c, 7, 66, 0
15, 41952, Note_on_c, 7, 71, 100
15, 41952, Note_on_c, 7, 65, 100
15, 41952, Note_on_c, 7, 62, 100
15, 42240, Note_on_c, 7, 62, 0
15, 42240, Note_on_c, 7, 65, 0
15, 42240, Note_on_c, 7, 71, 0
15, 42240, Note_on_c, 7, 72, 100
15, 42240, Note_on_c, 7, 67, 100
15, 42240, Note_on_c, 7, 64, 100
15, 42528, Note_on_c, 7, 64, 0
15, 42528, Note_on_c, 7, 67, 0
15, 42528, Note_on_c, 7, 72, 0
15, 42528, Note_on_c, 7, 75, 100
15, 42528, Note_on_c, 7, 66, 100
15, 42528, Note_on_c, 7, 69, 100
15, 42816, Note_on_c, 7, 69, 0
15, 42816, Note_on_c, 7, 66, 0
15, 42816, Note_on_c, 7, 75, 0
15, 42816, Note_on_c, 7, 68, 100
15, 42816, Note_on_c, 7, 74, 100
15, 42816, Note_on_c, 7, 71, 100
15, 42912, Note_on_c, 7, 68, 0
15, 42912, Note_on_c, 7, 67, 100
15, 43008, Note_on_c, 7, 71, 0
15, 43008, Note_on_c, 7, 74, 0
15, 43008, Note_on_c, 7, 72, 100
15, 43008, Note_on_c, 7, 64, 100
15, 43104, Note_on_c, 7, 64, 0
15, 43104, Note_on_c, 7, 72, 0
15, 43104, Note_on_c, 7, 67, 0
15, 43104, Note_on_c, 7, 69, 100
15, 43104, Note_on_c, 7, 65, 100
15, 43200, Note_on_c, 7, 65, 0
15, 43200, Note_on_c, 7, 69, 0
15, 43200, Note_on_c, 7, 67, 100
15, 43200, Note_on_c, 7, 72, 100
15, 43200, Note_on_c, 7, 64, 100
15, 43296, Note_on_c, 7, 64, 0
15, 43296, Note_on_c, 7, 72, 0
15, 43296, Note_on_c, 7, 71, 100
15, 43296, Note_on_c, 7, 62, 100
15, 43392, Note_on_c, 7, 62, 0
15, 43392, Note_on_c, 7, 71, 0
15, 43392, Note_on_c, 7, 67, 0
15, 43392, Note_on_c, 7, 72, 100
15, 43392, Note_on_c, 7, 67, 100
15, 43392, Note_on_c, 7, 64, 100
15, 43488, Note_on_c, 7, 64, 0
15, 43488, Note_on_c, 7, 67, 0
15, 43488, Note_on_c, 7, 72, 0
15, 45408, Note_on_c, 7, 69, 100
15, 45408, Note_on_c, 7, 77, 100
15, 45504, Note_on_c, 7, 77, 0
15, 45504, Note_on_c, 7, 69, 0
15, 45504, Note_on_c, 7, 67, 100
15, 45504, Note_on_c, 7, 76, 100
15, 45504, Note_on_c, 7, 72, 100
15, 45600, Note_on_c, 7, 72, 0
15, 45600, Note_on_c, 7, 76, 0
15, 45600, Note_on_c, 7, 74, 100
15, 45600, Note_on_c, 7, 71, 100
15, 45696, Note_on_c, 7, 71, 0
15, 45696, Note_on_c, 7, 74, 0
15, 45696, Note_on_c, 7, 67, 0
15, 45696, Note_on_c, 7, 72, 100
15, 45696, Note_on_c, 7, 67, 100
15, 45696, Note_on_c, 7, 64, 100
15, 45792, Note_on_c, 7, 64, 0
15, 45792, Note_on_c, 7, 67, 0
15, 45792, Note_on_c, 7, 72, 0
15, 46272, Note_on_c, 7, 76, 100
15, 46272, Note_on_c, 7, 67, 100
15, 46272, Note_on_c, 7, 72, 100
15, 46368, Note_on_c, 7, 72, 0
15, 46368, Note_on_c, 7, 67, 0
15, 46368, Note_on_c, 7, 76, 0
15, 46368, Note_on_c, 7, 74, 100
15, 46368, Note_on_c, 7, 67, 100
15, 46368, Note_on_c, 7, 72, 100
15, 46464, Note_on_c, 7, 72, 0
15, 46464, Note_on_c, 7, 71, 100
15, 46560, Note_on_c, 7, 71, 0
15, 46560, Note_on_c, 7, 67, 0
15, 46560, Note_on_c, 7, 74, 0
15, 46560, Note_on_c, 7, 72, 100
15, 46560, Note_on_c, 7, 67, 100
15, 46656, Note_on_c, 7, 67, 0
15, 46656, Note_on_c, 7, 72, 0
15, 46656, Note_on_c, 7, 77, 100
15, 46656, Note_on_c, 7, 74, 100
15, 46848, Note_on_c, 7, 74, 0
15, 46848, Note_on_c, 7, 77, 0
15, 46848, Note_on_c, 7, 76, 100
15, 46848, Note_on_c, 7, 72, 100
15, 46944, Note_on_c, 7, 72, 0
15, 46944, Note_on_c, 7, 76, 0
15, 46944, Note_on_c, 7, 77, 100
15, 46944, Note_on_c, 7, 74, 100
15, 47136, Note_on_c, 7, 74, 0
15, 47136, Note_on_c, 7, 77, 0
15, 47136, Note_on_c, 7, 76, 100
15, 47136, Note_on_c, 7, 67, 100
15, 47136, Note_on_c, 7, 72, 100
15, 47232, Note_on_c, 7, 72, 0
15, 47232, Note_on_c, 7, 67, 0
15, 47232, Note_on_c, 7, 76, 0
15, 47232, Note_on_c, 7, 74, 100
15, 47232, Note_on_c, 7, 67, 100
15, 47232, Note_on_c, 7, 72, 100
15, 47328, Note_on_c, 7, 72, 0
15, 47328, Note_on_c, 7, 71, 100
15, 47424, Note_on_c, 7, 71, 0
15, 47424, Note_on_c, 7, 67, 0
15, 47424, Note_on_c, 7, 74, 0
15, 47424, Note_on_c, 7, 72, 100
15, 47424, Note_on_c, 7, 67, 100
15, 47424, Note_on_c, 7, 64, 100
15, 47520, Note_on_c, 7, 64, 0
15, 47520, Note_on_c, 7, 67, 0
15, 47520, Note_on_c, 7, 72, 0
15, 47520, End_track
16, 0, Start_track
16, 0, Title_t, "Organ"
16, 0, Key_signature, 0, "major"
16, 0, Time_signature, 3, 2, 24, 8
16, 0, Time_signature, 3, 2, 24, 8
16, 0, Program_c, 7, 16
16, 0, Note_on_c, 7, 48, 100
16, 0, Note_on_c, 7, 36, 100
16, 288, Note_on_c, 7, 36, 0
16, 288, Note_on_c, 7, 48, 0
16, 288, Note_on_c, 7, 50, 100
16, 288, Note_on_c, 7, 38, 100
16, 384, Note_on_c, 7, 38, 0
16, 384, Note_on_c, 7, 50, 0
16, 1152, Note_on_c, 7, 47, 100
16, 1152, Note_on_c, 7, 35, 100
16, 1440, Note_on_c, 7, 35, 0
16, 1440, Note_on_c, 7, 47, 0
16, 1440, Note_on_c, 7, 48, 100
16, 1536, Note_on_c, 7, 48, 0
16, 2304, Note_on_c, 7, 48, 100
16, 2304, Note_on_c, 7, 36, 100
16, 2592, Note_on_c, 7, 36, 0
16, 2592, Note_on_c, 7, 48, 0
16, 2592, Note_on_c, 7, 48, 100
16, 2592, Note_on_c, 7, 36, 100
16, 2688, Note_on_c, 7, 36, 0
16, 2688, Note_on_c, 7, 48, 0
16, 2688, Note_on_c, 7, 48, 100
16, 2688, Note_on_c, 7, 60, 100
16, 2784, Note_on_c, 7, 60, 0
16, 2784, Note_on_c, 7, 48, 0
16, 2976, Note_on_c, 7, 40, 100
16, 2976, Note_on_c, 7, 52, 100
16, 3072, Note_on_c, 7, 52, 0
16, 3072, Note_on_c, 7, 40, 0
16, 3072, Note_on_c, 7, 41, 100
16, 3072, Note_on_c, 7, 53, 100
16, 3168, Note_on_c, 7, 53, 0
16, 3168, Note_on_c, 7, 41, 0
16, 3168, Note_on_c, 7, 43, 100
16, 3168, Note_on_c, 7, 55, 100
16, 3264, Note_on_c, 7, 55, 0
16, 3264, Note_on_c, 7, 43, 0
16, 3264, Note_on_c, 7, 31, 100
16, 3264, Note_on_c, 7, 43, 100
16, 3360, Note_on_c, 7, 43, 0
16, 3360, Note_on_c, 7, 31, 0
16, 3552, Note_on_c, 7, 45, 100
16, 3552, Note_on_c, 7, 57, 100
16, 3648, Note_on_c, 7, 57, 0
16, 3648, Note_on_c, 7, 45, 0
16, 3648, Note_on_c, 7, 47, 100
16, 3648, Note_on_c, 7, 59, 100
16, 3744, Note_on_c, 7, 59, 0
16, 3744, Note_on_c, 7, 47, 0
16, 3744, Note_on_c, 7, 48, 100
16, 3744, Note_on_c, 7, 60, 100
16, 3840, Note_on_c, 7, 60, 0
16, 3840, Note_on_c, 7, 48, 0
16, 3840, Note_on_c, 7, 36, 100
16, 3840, Note_on_c, 7, 48, 100
16, 3936, Note_on_c, 7, 48, 0
16, 3936, Note_on_c, 7, 36, 0
16, 4128, Note_on_c, 7, 48, 100
16, 4128, Note_on_c, 7, 60, 100
16, 4224, Note_on_c, 7, 60, 0
16, 4224, Note_on_c, 7, 48, 0
16, 4224, Note_on_c, 7, 45, 100
16, 4224, Note_on_c, 7, 57, 100
16, 4320, Note_on_c, 7, 57, 0
16, 4320, Note_on_c, 7, 45, 0
16, 4416, Note_on_c, 7, 47, 100
16, 4416, Note_on_c, 7, 59, 100
16, 4512, Note_on_c, 7, 59, 0
16, 4512, Note_on_c, 7, 47, 0
16, 4512, Note_on_c, 7, 55, 100
16, 4512, Note_on_c, 7, 43, 100
16, 4608, Note_on_c, 7, 43, 0
16, 4608, Note_on_c, 7, 55, 0
16, 4704, Note_on_c, 7, 57, 100
16, 4704, Note_on_c, 7, 45, 100
16, 4800, Note_on_c, 7, 45, 0
16, 4800, Note_on_c, 7, 57, 0
16, 4800, Note_on_c, 7, 53, 100
16, 4800, Note_on_c, 7, 41, 100
16, 4896, Note_on_c, 7, 41, 0
16, 4896, Note_on_c, 7, 53, 0
16, 4896, Note_on_c, 7, 43, 100
16, 4896, Note_on_c, 7, 55, 100
16, 4944, Note_on_c, 7, 55, 0
16, 4944, Note_on_c, 7, 43, 0
16, 4944, Note_on_c, 7, 43, 100
16, 4944, Note_on_c, 7, 55, 100
16, 4992, Note_on_c, 7, 55, 0
16, 4992, Note_on_c, 7, 43, 0
16, 4992, Note_on_c, 7, 41, 100
16, 4992, Note_on_c, 7, 53, 100
16, 5040, Note_on_c, 7, 53, 0
16, 5040, Note_on_c, 7, 41, 0
16, 5040, Note_on_c, 7, 43, 100
16, 5040, Note_on_c, 7, 55, 100
16, 5088, Note_on_c, 7, 55, 0
16, 5088, Note_on_c, 7, 43, 0
16, 5088, Note_on_c, 7, 40, 100
16, 5088, Note_on_c, 7, 52, 100
16, 5136, Note_on_c, 7, 52, 0
16, 5136, Note_on_c, 7, 40, 0
16, 5136, Note_on_c, 7, 43, 100
16, 5136, Note_on_c, 7, 55, 100
16, 5184, Note_on_c, 7, 55, 0
16, 5184, Note_on_c, 7, 43, 0
16, 5184, Note_on_c, 7, 35, 100
16, 5184, Note_on_c, 7, 47, 100
16, 5256, Note_on_c, 7, 47, 0
16, 5256, Note_on_c, 7, 35, 0
16, 5256, Note_on_c, 7, 36, 100
16, 5256, Note_on_c, 7, 48, 100
16, 5280, Note_on_c, 7, 48, 0
16, 5280, Note_on_c, 7, 36, 0
16, 5280, Note_on_c, 7, 35, 100
16, 5280, Note_on_c, 7, 47, 100
16, 5328, Note_on_c, 7, 47, 0
16, 5328, Note_on_c, 7, 35, 0
16, 5328, Note_on_c, 7, 33, 100
16, 5328, Note_on_c, 7, 45, 100
16, 5352, Note_on_c, 7, 45, 0
16, 5352, Note_on_c, 7, 33, 0
16, 5352, Note_on_c, 7, 31, 100
16, 5352, Note_on_c, 7, 43, 100
16, 5376, Note_on_c, 7, 43, 0
16, 5376, Note_on_c, 7, 31, 0
16, 5376, Note_on_c, 7, 36, 100
16, 5376, Note_on_c, 7, 48, 100
16, 5424, Note_on_c, 7, 48, 0
16, 5424, Note_on_c, 7, 36, 0
16, 5424, Note_on_c, 7, 40, 100
16, 5424, Note_on_c, 7, 52, 100
16, 5472, Note_on_c, 7, 52, 0
16, 5472, Note_on_c, 7, 40, 0
16, 5472, Note_on_c, 7, 43, 100
16, 5472, Note_on_c, 7, 55, 100
16, 5520, Note_on_c, 7, 55, 0
16, 5520, Note_on_c, 7, 43, 0
16, 5520, Note_on_c, 7, 43, 100
16, 5520, Note_on_c, 7, 55, 100
16, 5568, Note_on_c, 7, 55, 0
16, 5568, Note_on_c, 7, 43, 0
16, 5568, Note_on_c, 7, 41, 100
16, 5568, Note_on_c, 7, 53, 100
16, 5616, Note_on_c, 7, 53, 0
16, 5616, Note_on_c, 7, 41, 0
16, 5616, Note_on_c, 7, 43, 100
16, 5616, Note_on_c, 7, 55, 100
16, 5664, Note_on_c, 7, 55, 0
16, 5664, Note_on_c, 7, 43, 0
16, 5664, Note_on_c, 7, 40, 100
16, 5664, Note_on_c, 7, 52, 100
16, 5712, Note_on_c, 7, 52, 0
16, 5712, Note_on_c, 7, 40, 0
16, 5712, Note_on_c, 7, 43, 100
16, 5712, Note_on_c, 7, 55, 100
16, 5760, Note_on_c, 7, 55, 0
16, 5760, Note_on_c, 7, 43, 0
16, 5760, Note_on_c, 7, 35, 100
16, 5760, Note_on_c, 7, 47, 100
16, 5832, Note_on_c, 7, 47, 0
16, 5832, Note_on_c, 7, 35, 0
16, 5832, Note_on_c, 7, 36, 100
16, 5832, Note_on_c, 7, 48, 100
16, 5856, Note_on_c, 7, 48, 0
16, 5856, Note_on_c, 7, 36, 0
16, 5856, Note_on_c, 7, 35, 100
16, 5856, Note_on_c, 7, 47, 100
16, 5904, Note_on_c, 7, 47, 0
16, 5904, Note_on_c, 7, 35, 0
16, 5904, Note_on_c, 7, 33, 100
16, 5904, Note_on_c, 7, 45, 100
16, 5928, Note_on_c, 7, 45, 0
16, 5928, Note_on_c, 7, 33, 0
16, 5928, Note_on_c, 7, 31, 100
16, 5928, Note_on_c, 7, 43, 100
16, 5952, Note_on_c, 7, 43, 0
16, 5952, Note_on_c, 7, 31, 0
16, 5952, Note_on_c, 7, 36, 100
16, 5952, Note_on_c, 7, 48, 100
16, 6000, Note_on_c, 7, 48, 0
16, 6000, Note_on_c, 7, 36, 0
16, 6000, Note_on_c, 7, 40, 100
16, 6000, Note_on_c, 7, 52, 100
16, 6048, Note_on_c, 7, 52, 0
16, 6048, Note_on_c, 7, 40, 0
16, 6048, Note_on_c, 7, 55, 100
16, 6048, Note_on_c, 7, 43, 100
16, 6144, Note_on_c, 7, 43, 0
16, 6144, Note_on_c, 7, 55, 0
16, 10080, Note_on_c, 7, 48, 100
16, 10080, Note_on_c, 7, 36, 100
16, 10368, Note_on_c, 7, 36, 0
16, 10368, Note_on_c, 7, 48, 0
16, 10368, Note_on_c, 7, 48, 100
16, 10368, Note_on_c, 7, 36, 100
16, 10656, Note_on_c, 7, 36, 0
16, 10656, Note_on_c, 7, 48, 0
16, 10656, Note_on_c, 7, 55, 100
16, 10656, Note_on_c, 7, 43, 100
16, 10944, Note_on_c, 7, 43, 0
16, 10944, Note_on_c, 7, 55, 0
16, 10944, Note_on_c, 7, 58, 100
16, 10944, Note_on_c, 7, 46, 100
16, 11232, Note_on_c, 7, 46, 0
16, 11232, Note_on_c, 7, 58, 0
16, 11232, Note_on_c, 7, 41, 100
16, 11232, Note_on_c, 7, 53, 100
16, 11520, Note_on_c, 7, 53, 0
16, 11520, Note_on_c, 7, 41, 0
16, 11520, Note_on_c, 7, 44, 100
16, 11520, Note_on_c, 7, 56, 100
16, 11808, Note_on_c, 7, 56, 0
16, 11808, Note_on_c, 7, 44, 0
16, 11808, Note_on_c, 7, 39, 100
16, 11808, Note_on_c, 7, 51, 100
16, 12096, Note_on_c, 7, 51, 0
16, 12096, Note_on_c, 7, 39, 0
16, 12096, Note_on_c, 7, 50, 100
16, 12096, Note_on_c, 7, 38, 100
16, 12384, Note_on_c, 7, 38, 0
16, 12384, Note_on_c, 7, 50, 0
16, 12384, Note_on_c, 7, 48, 100
16, 12384, Note_on_c, 7, 36, 100
16, 12672, Note_on_c, 7, 36, 0
16, 12672, Note_on_c, 7, 48, 0
16, 12672, Note_on_c, 7, 47, 100
16, 12672, Note_on_c, 7, 35, 100
16, 12960, Note_on_c, 7, 35, 0
16, 12960, Note_on_c, 7, 47, 0
16, 12960, Note_on_c, 7, 50, 100
16, 12960, Note_on_c, 7, 38, 100
16, 13248, Note_on_c, 7, 38, 0
16, 13248, Note_on_c, 7, 50, 0
16, 13248, Note_on_c, 7, 55, 100
16, 13248, Note_on_c, 7, 43, 100
16, 13440, Note_on_c, 7, 43, 0
16, 13440, Note_on_c, 7, 55, 0
16, 13440, Note_on_c, 7, 54, 100
16, 13440, Note_on_c, 7, 42, 100
16, 13536, Note_on_c, 7, 42, 0
16, 13536, Note_on_c, 7, 54, 0
16, 13536, Note_on_c, 7, 52, 100
16, 13536, Note_on_c, 7, 40, 100
16, 13728, Note_on_c, 7, 40, 0
16, 13728, Note_on_c, 7, 52, 0
16, 13728, Note_on_c, 7, 47, 100
16, 13728, Note_on_c, 7, 35, 100
16, 13824, Note_on_c, 7, 35, 0
16, 13824, Note_on_c, 7, 47, 0
16, 13824, Note_on_c, 7, 48, 100
16, 13824, Note_on_c, 7, 36, 100
16, 13920, Note_on_c, 7, 36, 0
16, 13920, Note_on_c, 7, 48, 0
16, 13920, Note_on_c, 7, 50, 100
16, 13920, Note_on_c, 7, 38, 100
16, 14112, Note_on_c, 7, 38, 0
16, 14112, Note_on_c, 7, 50, 0
16, 14112, Note_on_c, 7, 43, 100
16, 14112, Note_on_c, 7, 55, 100
16, 14208, Note_on_c, 7, 55, 0
16, 14208, Note_on_c, 7, 43, 0
16, 14400, Note_on_c, 7, 43, 100
16, 14400, Note_on_c, 7, 55, 100
16, 14688, Note_on_c, 7, 55, 0
16, 14688, Note_on_c, 7, 43, 0
16, 14688, Note_on_c, 7, 47, 100
16, 14688, Note_on_c, 7, 35, 100
16, 14880, Note_on_c, 7, 35, 0
16, 14880, Note_on_c, 7, 47, 0
16, 14880, Note_on_c, 7, 52, 100
16, 14880, Note_on_c, 7, 40, 100
16, 14976, Note_on_c, 7, 40, 0
16, 14976, Note_on_c, 7, 52, 0
16, 14976, Note_on_c, 7, 49, 100
16, 14976, Note_on_c, 7, 37, 100
16, 15264, Note_on_c, 7, 37, 0
16, 15264, Note_on_c, 7, 49, 0
16, 15264, Note_on_c, 7, 50, 100
16, 15264, Note_on_c, 7, 38, 100
16, 15360, Note_on_c, 7, 38, 0
16, 15360, Note_on_c, 7, 50, 0
16, 16800, Note_on_c, 7, 59, 100
16, 16800, Note_on_c, 7, 47, 100
16, 16896, Note_on_c, 7, 47, 0
16, 16896, Note_on_c, 7, 59, 0
16, 16896, Note_on_c, 7, 48, 100
16, 16896, Note_on_c, 7, 60, 100
16, 16992, Note_on_c, 7, 60, 0
16, 16992, Note_on_c, 7, 48, 0
16, 16992, Note_on_c, 7, 50, 100
16, 16992, Note_on_c, 7, 62, 100
16, 17088, Note_on_c, 7, 62, 0
16, 17088, Note_on_c, 7, 50, 0
16, 17088, Note_on_c, 7, 38, 100
16, 17088, Note_on_c, 7, 50, 100
16, 17184, Note_on_c, 7, 50, 0
16, 17184, Note_on_c, 7, 38, 0
16, 17376, Note_on_c, 7, 40, 100
16, 17376, Note_on_c, 7, 52, 100
16, 17472, Note_on_c, 7, 52, 0
16, 17472, Note_on_c, 7, 40, 0
16, 17472, Note_on_c, 7, 42, 100
16, 17472, Note_on_c, 7, 54, 100
16, 17568, Note_on_c, 7, 54, 0
16, 17568, Note_on_c, 7, 42, 0
16, 17568, Note_on_c, 7, 43, 100
16, 17568, Note_on_c, 7, 55, 100
16, 17664, Note_on_c, 7, 55, 0
16, 17664, Note_on_c, 7, 43, 0
16, 17664, Note_on_c, 7, 31, 100
16, 17664, Note_on_c, 7, 43, 100
16, 17760, Note_on_c, 7, 43, 0
16, 17760, Note_on_c, 7, 31, 0
16, 17952, Note_on_c, 7, 47, 100
16, 17952, Note_on_c, 7, 59, 100
16, 18048, Note_on_c, 7, 59, 0
16, 18048, Note_on_c, 7, 47, 0
16, 18048, Note_on_c, 7, 55, 100
16, 18048, Note_on_c, 7, 43, 100
16, 18144, Note_on_c, 7, 43, 0
16, 18144, Note_on_c, 7, 55, 0
16, 18240, Note_on_c, 7, 59, 100
16, 18240, Note_on_c, 7, 47, 100
16, 18336, Note_on_c, 7, 47, 0
16, 18336, Note_on_c, 7, 59, 0
16, 18336, Note_on_c, 7, 53, 100
16, 18336, Note_on_c, 7, 41, 100
16, 18432, Note_on_c, 7, 41, 0
16, 18432, Note_on_c, 7, 53, 0
16, 18528, Note_on_c, 7, 59, 100
16, 18528, Note_on_c, 7, 47, 100
16, 18624, Note_on_c, 7, 47, 0
16, 18624, Note_on_c, 7, 59, 0
16, 18624, Note_on_c, 7, 52, 100
16, 18624, Note_on_c, 7, 40, 100
16, 18720, Note_on_c, 7, 40, 0
16, 18720, Note_on_c, 7, 52, 0
16, 18720, Note_on_c, 7, 51, 100
16, 18720, Note_on_c, 7, 39, 100
16, 19008, Note_on_c, 7, 39, 0
16, 19008, Note_on_c, 7, 51, 0
16, 19008, Note_on_c, 7, 52, 100
16, 19008, Note_on_c, 7, 40, 100
16, 19104, Note_on_c, 7, 40, 0
16, 19104, Note_on_c, 7, 52, 0
16, 20640, Note_on_c, 7, 45, 100
16, 20640, Note_on_c, 7, 33, 100
16, 20736, Note_on_c, 7, 33, 0
16, 20736, Note_on_c, 7, 45, 0
16, 20736, Note_on_c, 7, 45, 100
16, 20736, Note_on_c, 7, 57, 100
16, 20880, Note_on_c, 7, 57, 0
16, 20880, Note_on_c, 7, 45, 0
16, 20880, Note_on_c, 7, 44, 100
16, 20880, Note_on_c, 7, 56, 100
16, 20928, Note_on_c, 7, 56, 0
16, 20928, Note_on_c, 7, 44, 0
16, 20928, Note_on_c, 7, 45, 100
16, 20928, Note_on_c, 7, 57, 100
16, 20976, Note_on_c, 7, 57, 0
16, 20976, Note_on_c, 7, 45, 0
16, 20976, Note_on_c, 7, 44, 100
16, 20976, Note_on_c, 7, 56, 100
16, 21024, Note_on_c, 7, 56, 0
16, 21024, Note_on_c, 7, 44, 0
16, 21024, Note_on_c, 7, 45, 100
16, 21024, Note_on_c, 7, 57, 100
16, 21168, Note_on_c, 7, 57, 0
16, 21168, Note_on_c, 7, 45, 0
16, 21168, Note_on_c, 7, 44, 100
16, 21168, Note_on_c, 7, 56, 100
16, 21216, Note_on_c, 7, 56, 0
16, 21216, Note_on_c, 7, 44, 0
16, 21216, Note_on_c, 7, 45, 100
16, 21216, Note_on_c, 7, 57, 100
16, 21264, Note_on_c, 7, 57, 0
16, 21264, Note_on_c, 7, 45, 0
16, 21264, Note_on_c, 7, 44, 100
16, 21264, Note_on_c, 7, 56, 100
16, 21312, Note_on_c, 7, 56, 0
16, 21312, Note_on_c, 7, 44, 0
16, 21312, Note_on_c, 7, 57, 100
16, 21312, Note_on_c, 7, 45, 100
16, 21504, Note_on_c, 7, 45, 0
16, 21504, Note_on_c, 7, 57, 0
16, 21504, Note_on_c, 7, 47, 100
16, 21504, Note_on_c, 7, 59, 100
16, 21600, Note_on_c, 7, 59, 0
16, 21600, Note_on_c, 7, 47, 0
16, 21600, Control_c, 7, 7, 127
16, 21600, Note_on_c, 7, 48, 100
16, 21600, Note_on_c, 7, 60, 100
16, 21636, Control_c, 7, 7, 80
16, 21648, Note_on_c, 7, 60, 0
16, 21648, Note_on_c, 7, 48, 0
16, 21648, Note_on_c, 7, 48, 100
16, 21648, Note_on_c, 7, 60, 100
16, 21696, Note_on_c, 7, 60, 0
16, 21696, Note_on_c, 7, 48, 0
16, 21696, Note_on_c, 7, 48, 100
16, 21696, Note_on_c, 7, 60, 100
16, 21744, Note_on_c, 7, 60, 0
16, 21744, Note_on_c, 7, 48, 0
16, 21744, Note_on_c, 7, 48, 100
16, 21744, Note_on_c, 7, 60, 100
16, 21792, Note_on_c, 7, 60, 0
16, 21792, Note_on_c, 7, 48, 0
16, 21792, Note_on_c, 7, 48, 100
16, 21792, Note_on_c, 7, 60, 100
16, 21840, Note_on_c, 7, 60, 0
16, 21840, Note_on_c, 7, 48, 0
16, 21840, Note_on_c, 7, 48, 100
16, 21840, Note_on_c, 7, 60, 100
16, 21888, Note_on_c, 7, 60, 0
16, 21888, Note_on_c, 7, 48, 0
16, 21888, Control_c, 7, 7, 127
16, 21888, Note_on_c, 7, 44, 100
16, 21888, Note_on_c, 7, 56, 100
16, 21924, Control_c, 7, 7, 80
16, 21936, Note_on_c, 7, 56, 0
16, 21936, Note_on_c, 7, 44, 0
16, 21936, Note_on_c, 7, 44, 100
16, 21936, Note_on_c, 7, 56, 100
16, 21984, Note_on_c, 7, 56, 0
16, 21984, Note_on_c, 7, 44, 0
16, 21984, Note_on_c, 7, 44, 100
16, 21984, Note_on_c, 7, 56, 100
16, 22032, Note_on_c, 7, 56, 0
16, 22032, Note_on_c, 7, 44, 0
16, 22032, Note_on_c, 7, 44, 100
16, 22032, Note_on_c, 7, 56, 100
16, 22080, Note_on_c, 7, 56, 0
16, 22080, Note_on_c, 7, 44, 0
16, 22080, Note_on_c, 7, 44, 100
16, 22080, Note_on_c, 7, 56, 100
16, 22128, Note_on_c, 7, 56, 0
16, 22128, Note_on_c, 7, 44, 0
16, 22128, Note_on_c, 7, 44, 100
16, 22128, Note_on_c, 7, 56, 100
16, 22176, Note_on_c, 7, 56, 0
16, 22176, Note_on_c, 7, 44, 0
16, 22176, Control_c, 7, 7, 127
16, 22176, Note_on_c, 7, 46, 100
16, 22176, Note_on_c, 7, 58, 100
16, 22212, Control_c, 7, 7, 80
16, 22224, Note_on_c, 7, 58, 0
16, 22224, Note_on_c, 7, 46, 0
16, 22224, Note_on_c, 7, 46, 100
16, 22224, Note_on_c, 7, 58, 100
16, 22272, Note_on_c, 7, 58, 0
16, 22272, Note_on_c, 7, 46, 0
16, 22272, Note_on_c, 7, 46, 100
16, 22272, Note_on_c, 7, 58, 100
16, 22320, Note_on_c, 7, 58, 0
16, 22320, Note_on_c, 7, 46, 0
16, 22320, Note_on_c, 7, 46, 100
16, 22320, Note_on_c, 7, 58, 100
16, 22368, Note_on_c, 7, 58, 0
16, 22368, Note_on_c, 7, 46, 0
16, 22368, Note_on_c, 7, 46, 100
16, 22368, Note_on_c, 7, 58, 100
16, 22416, Note_on_c, 7, 58, 0
16, 22416, Note_on_c, 7, 46, 0
16, 22416, Note_on_c, 7, 46, 100
16, 22416, Note_on_c, 7, 58, 100
16, 22464, Note_on_c, 7, 58, 0
16, 22464, Note_on_c, 7, 46, 0
16, 22464, Control_c, 7, 7, 127
16, 22464, Note_on_c, 7, 42, 100
16, 22464, Note_on_c, 7, 54, 100
16, 22500, Control_c, 7, 7, 80
16, 22512, Note_on_c, 7, 54, 0
16, 22512, Note_on_c, 7, 42, 0
16, 22512, Note_on_c, 7, 42, 100
16, 22512, Note_on_c, 7, 54, 100
16, 22560, Note_on_c, 7, 54, 0
16, 22560, Note_on_c, 7, 42, 0
16, 22560, Note_on_c, 7, 42, 100
16, 22560, Note_on_c, 7, 54, 100
16, 22608, Note_on_c, 7, 54, 0
16, 22608, Note_on_c, 7, 42, 0
16, 22608, Note_on_c, 7, 42, 100
16, 22608, Note_on_c, 7, 54, 100
16, 22656, Note_on_c, 7, 54, 0
16, 22656, Note_on_c, 7, 42, 0
16, 22656, Note_on_c, 7, 42, 100
16, 22656, Note_on_c, 7, 54, 100
16, 22704, Note_on_c, 7, 54, 0
16, 22704, Note_on_c, 7, 42, 0
16, 22704, Note_on_c, 7, 42, 100
16, 22704, Note_on_c, 7, 54, 100
16, 22752, Note_on_c, 7, 54, 0
16, 22752, Note_on_c, 7, 42, 0
16, 22752, Control_c, 7, 7, 127
16, 22752, Note_on_c, 7, 44, 100
16, 22752, Note_on_c, 7, 56, 100
16, 22788, Control_c, 7, 7, 80
16, 22800, Note_on_c, 7, 56, 0
16, 22800, Note_on_c, 7, 44, 0
16, 22800, Note_on_c, 7, 44, 100
16, 22800, Note_on_c, 7, 56, 100
16, 22848, Note_on_c, 7, 56, 0
16, 22848, Note_on_c, 7, 44, 0
16, 22848, Note_on_c, 7, 44, 100
16, 22848, Note_on_c, 7, 56, 100
16, 22896, Note_on_c, 7, 56, 0
16, 22896, Note_on_c, 7, 44, 0
16, 22896, Note_on_c, 7, 44, 100
16, 22896, Note_on_c, 7, 56, 100
16, 22944, Note_on_c, 7, 56, 0
16, 22944, Note_on_c, 7, 44, 0
16, 22944, Control_c, 7, 7, 80
16, 22944, Note_on_c, 7, 45, 100
16, 22944, Note_on_c, 7, 57, 100
16, 22992, Note_on_c, 7, 57, 0
16, 22992, Note_on_c, 7, 45, 0
16, 22992, Note_on_c, 7, 45, 100
16, 22992, Note_on_c, 7, 57, 100
16, 23040, Note_on_c, 7, 57, 0
16, 23040, Note_on_c, 7, 45, 0
16, 23040, Note_on_c, 7, 39, 100
16, 23040, Note_on_c, 7, 51, 100
16, 23088, Note_on_c, 7, 51, 0
16, 23088, Note_on_c, 7, 39, 0
16, 23088, Note_on_c, 7, 39, 100
16, 23088, Note_on_c, 7, 51, 100
16, 23136, Note_on_c, 7, 51, 0
16, 23136, Note_on_c, 7, 39, 0
16, 23136, Note_on_c, 7, 40, 100
16, 23136, Note_on_c, 7, 52, 100
16, 23184, Note_on_c, 7, 52, 0
16, 23184, Note_on_c, 7, 40, 0
16, 23184, Note_on_c, 7, 40, 100
16, 23184, Note_on_c, 7, 52, 100
16, 23232, Note_on_c, 7, 52, 0
16, 23232, Note_on_c, 7, 40, 0
16, 23232, Note_on_c, 7, 40, 100
16, 23232, Note_on_c, 7, 52, 100
16, 23280, Note_on_c, 7, 52, 0
16, 23280, Note_on_c, 7, 40, 0
16, 23280, Note_on_c, 7, 40, 100
16, 23280, Note_on_c, 7, 52, 100
16, 23328, Note_on_c, 7, 52, 0
16, 23328, Note_on_c, 7, 40, 0
16, 23328, Note_on_c, 7, 45, 100
16, 23328, Note_on_c, 7, 57, 100
16, 23424, Note_on_c, 7, 57, 0
16, 23424, Note_on_c, 7, 45, 0
16, 23616, Note_on_c, 7, 45, 100
16, 23616, Note_on_c, 7, 57, 100
16, 23904, Note_on_c, 7, 57, 0
16, 23904, Note_on_c, 7, 45, 0
16, 23904, Note_on_c, 7, 46, 100
16, 23904, Note_on_c, 7, 58, 100
16, 24192, Note_on_c, 7, 58, 0
16, 24192, Note_on_c, 7, 46, 0
16, 24192, Note_on_c, 7, 49, 100
16, 24192, Note_on_c, 7, 61, 100
16, 24384, Note_on_c, 7, 61, 0
16, 24384, Note_on_c, 7, 49, 0
16, 24384, Note_on_c, 7, 50, 100
16, 24384, Note_on_c, 7, 62, 100
16, 24480, Note_on_c, 7, 62, 0
16, 24480, Note_on_c, 7, 50, 0
16, 24480, Note_on_c, 7, 50, 100
16, 24480, Note_on_c, 7, 62, 100
16, 24504, Note_on_c, 7, 62, 0
16, 24504, Note_on_c, 7, 50, 0
16, 24576, Note_on_c, 7, 55, 100
16, 24600, Note_on_c, 7, 55, 0
16, 24672, Note_on_c, 7, 56, 100
16, 24696, Note_on_c, 7, 56, 0
16, 24768, Time_signature, 5, 2, 24, 8
16, 24768, Time_signature, 5, 2, 24, 8
16, 24768, Note_on_c, 7, 57, 100
16, 24792, Note_on_c, 7, 57, 0
16, 24864, Note_on_c, 7, 45, 100
16, 24888, Note_on_c, 7, 45, 0
16, 24960, Note_on_c, 7, 46, 100
16, 25152, Note_on_c, 7, 46, 0
16, 25248, Time_signature, 3, 2, 24, 8
16, 25248, Time_signature, 3, 2, 24, 8
16, 25248, Note_on_c, 7, 45, 100
16, 25248, Note_on_c, 7, 57, 100
16, 25344, Note_on_c, 7, 57, 0
16, 25344, Note_on_c, 7, 45, 0
16, 25824, Note_on_c, 7, 50, 100
16, 25824, Note_on_c, 7, 38, 100
16, 25920, Note_on_c, 7, 38, 0
16, 25920, Note_on_c, 7, 50, 0
16, 26400, Note_on_c, 7, 50, 100
16, 26400, Note_on_c, 7, 62, 100
16, 26688, Note_on_c, 7, 62, 0
16, 26688, Note_on_c, 7, 50, 0
16, 26688, Note_on_c, 7, 50, 100
16, 26688, Note_on_c, 7, 62, 100
16, 26832, Note_on_c, 7, 62, 0
16, 26832, Note_on_c, 7, 50, 0
16, 26832, Note_on_c, 7, 49, 100
16, 26832, Note_on_c, 7, 61, 100
16, 26880, Note_on_c, 7, 61, 0
16, 26880, Note_on_c, 7, 49, 0
16, 26880, Note_on_c, 7, 50, 100
16, 26880, Note_on_c, 7, 62, 100
16, 26928, Note_on_c, 7, 62, 0
16, 26928, Note_on_c, 7, 50, 0
16, 26928, Note_on_c, 7, 49, 100
16, 26928, Note_on_c, 7, 61, 100
16, 26976, Note_on_c, 7, 61, 0
16, 26976, Note_on_c, 7, 49, 0
16, 26976, Note_on_c, 7, 50, 100
16, 26976, Note_on_c, 7, 62, 100
16, 27120, Note_on_c, 7, 62, 0
16, 27120, Note_on_c, 7, 50, 0
16, 27120, Note_on_c, 7, 49, 100
16, 27120, Note_on_c, 7, 61, 100
16, 27168, Note_on_c, 7, 61, 0
16, 27168, Note_on_c, 7, 49, 0
16, 27168, Note_on_c, 7, 50, 100
16, 27168, Note_on_c, 7, 62, 100
16, 27216, Note_on_c, 7, 62, 0
16, 27216, Note_on_c, 7, 50, 0
16, 27216, Note_on_c, 7, 49, 100
16, 27216, Note_on_c, 7, 61, 100
16, 27264, Note_on_c, 7, 61, 0
16, 27264, Note_on_c, 7, 49, 0
16, 27264, Note_on_c, 7, 50, 100
16, 27264, Note_on_c, 7, 62, 100
16, 27360, Note_on_c, 7, 62, 0
16, 27360, Note_on_c, 7, 50, 0
16, 27360, Note_on_c, 7, 47, 100
16, 27360, Note_on_c, 7, 59, 100
16, 27456, Note_on_c, 7, 59, 0
16, 27456, Note_on_c, 7, 47, 0
16, 27456, Note_on_c, 7, 44, 100
16, 27456, Note_on_c, 7, 56, 100
16, 27552, Note_on_c, 7, 56, 0
16, 27552, Note_on_c, 7, 44, 0
16, 27552, Note_on_c, 7, 55, 100
16, 27552, Note_on_c, 7, 43, 100
16, 27648, Note_on_c, 7, 43, 0
16, 27648, Note_on_c, 7, 55, 0
16, 28704, Note_on_c, 7, 48, 100
16, 28704, Note_on_c, 7, 36, 100
16, 28992, Note_on_c, 7, 36, 0
16, 28992, Note_on_c, 7, 48, 0
16, 28992, Note_on_c, 7, 48, 100
16, 28992, Note_on_c, 7, 36, 100
16, 29280, Note_on_c, 7, 36, 0
16, 29280, Note_on_c, 7, 48, 0
16, 29280, Note_on_c, 7, 43, 100
16, 29280, Note_on_c, 7, 55, 100
16, 29568, Note_on_c, 7, 55, 0
16, 29568, Note_on_c, 7, 43, 0
16, 29568, Note_on_c, 7, 46, 100
16, 29568, Note_on_c, 7, 58, 100
16, 29856, Note_on_c, 7, 58, 0
16, 29856, Note_on_c, 7, 46, 0
16, 29856, Note_on_c, 7, 41, 100
16, 29856, Note_on_c, 7, 53, 100
16, 30144, Note_on_c, 7, 53, 0
16, 30144, Note_on_c, 7, 41, 0
16, 30144, Note_on_c, 7, 44, 100
16, 30144, Note_on_c, 7, 56, 100
16, 30432, Note_on_c, 7, 56, 0
16, 30432, Note_on_c, 7, 44, 0
16, 30432, Note_on_c, 7, 39, 100
16, 30432, Note_on_c, 7, 51, 100
16, 30720, Note_on_c, 7, 51, 0
16, 30720, Note_on_c, 7, 39, 0
16, 30720, Note_on_c, 7, 38, 100
16, 30720, Note_on_c, 7, 50, 100
16, 31008, Note_on_c, 7, 50, 0
16, 31008, Note_on_c, 7, 38, 0
16, 31008, Note_on_c, 7, 48, 100
16, 31008, Note_on_c, 7, 36, 100
16, 31296, Note_on_c, 7, 36, 0
16, 31296, Note_on_c, 7, 48, 0
16, 31296, Note_on_c, 7, 50, 100
16, 31296, Note_on_c, 7, 38, 100
16, 31584, Note_on_c, 7, 38, 0
16, 31584, Note_on_c, 7, 50, 0
16, 31584, Note_on_c, 7, 50, 100
16, 31584, Note_on_c, 7, 38, 100
16, 31872, Note_on_c, 7, 38, 0
16, 31872, Note_on_c, 7, 50, 0
16, 31872, Note_on_c, 7, 55, 100
16, 31872, Note_on_c, 7, 43, 100
16, 32160, Note_on_c, 7, 43, 0
16, 32160, Note_on_c, 7, 55, 0
16, 32160, Note_on_c, 7, 55, 100
16, 32160, Note_on_c, 7, 43, 100
16, 32448, Note_on_c, 7, 43, 0
16, 32448, Note_on_c, 7, 55, 0
16, 32448, Note_on_c, 7, 55, 100
16, 32448, Note_on_c, 7, 43, 100
16, 32736, Note_on_c, 7, 43, 0
16, 32736, Note_on_c, 7, 55, 0
16, 32736, Note_on_c, 7, 55, 100
16, 32736, Note_on_c, 7, 43, 100
16, 33024, Note_on_c, 7, 43, 0
16, 33024, Note_on_c, 7, 55, 0
16, 33024, Note_on_c, 7, 43, 100
16, 33072, Note_on_c, 7, 43, 0
16, 33072, Note_on_c, 7, 55, 100
16, 33120, Note_on_c, 7, 55, 0
16, 33120, Note_on_c, 7, 50, 100
16, 33168, Note_on_c, 7, 50, 0
16, 33168, Note_on_c, 7, 55, 100
16, 33216, Note_on_c, 7, 55, 0
16, 33216, Note_on_c, 7, 47, 100
16, 33264, Note_on_c, 7, 47, 0
16, 33264, Note_on_c, 7, 50, 100
16, 33312, Time_signature, 3, 2, 24, 8
16, 33312, Time_signature, 3, 2, 24, 8
16, 33312, Note_on_c, 7, 50, 0
16, 33312, Note_on_c, 7, 43, 100
16, 33312, Note_on_c, 7, 55, 100
16, 33792, Note_on_c, 7, 55, 0
16, 33792, Note_on_c, 7, 43, 0
16, 33888, Note_on_c, 7, 55, 100
16, 33960, Note_on_c, 7, 55, 0
16, 33960, Note_on_c, 7, 60, 100
16, 33984, Note_on_c, 7, 60, 0
16, 33984, Note_on_c, 7, 64, 100
16, 34032, Note_on_c, 7, 64, 0
16, 34080, Note_on_c, 7, 64, 100
16, 34128, Note_on_c, 7, 64, 0
16, 34464, Note_on_c, 7, 60, 100
16, 34536, Note_on_c, 7, 60, 0
16, 34536, Note_on_c, 7, 64, 100
16, 34560, Note_on_c, 7, 64, 0
16, 34560, Note_on_c, 7, 67, 100
16, 34608, Note_on_c, 7, 67, 0
16, 34656, Note_on_c, 7, 67, 100
16, 34704, Note_on_c, 7, 67, 0
16, 37440, Note_on_c, 7, 40, 100
16, 37440, Note_on_c, 7, 52, 100
16, 37536, Note_on_c, 7, 52, 0
16, 37536, Note_on_c, 7, 40, 0
16, 37536, Note_on_c, 7, 41, 100
16, 37536, Note_on_c, 7, 53, 100
16, 37632, Note_on_c, 7, 53, 0
16, 37632, Note_on_c, 7, 41, 0
16, 37632, Note_on_c, 7, 43, 100
16, 37632, Note_on_c, 7, 55, 100
16, 37728, Note_on_c, 7, 55, 0
16, 37728, Note_on_c, 7, 43, 0
16, 37728, Note_on_c, 7, 31, 100
16, 37728, Note_on_c, 7, 43, 100
16, 37824, Note_on_c, 7, 43, 0
16, 37824, Note_on_c, 7, 31, 0
16, 37920, Note_on_c, 7, 43, 100
16, 37920, Note_on_c, 7, 55, 100
16, 38016, Note_on_c, 7, 55, 0
16, 38016, Note_on_c, 7, 43, 0
16, 38016, Note_on_c, 7, 45, 100
16, 38016, Note_on_c, 7, 57, 100
16, 38112, Note_on_c, 7, 57, 0
16, 38112, Note_on_c, 7, 45, 0
16, 38112, Note_on_c, 7, 47, 100
16, 38112, Note_on_c, 7, 59, 100
16, 38208, Note_on_c, 7, 59, 0
16, 38208, Note_on_c, 7, 47, 0
16, 38208, Note_on_c, 7, 48, 100
16, 38208, Note_on_c, 7, 60, 100
16, 38304, Note_on_c, 7, 60, 0
16, 38304, Note_on_c, 7, 48, 0
16, 38304, Note_on_c, 7, 36, 100
16, 38304, Note_on_c, 7, 48, 100
16, 38400, Note_on_c, 7, 48, 0
16, 38400, Note_on_c, 7, 36, 0
16, 38592, Note_on_c, 7, 60, 100
16, 38592, Note_on_c, 7, 48, 100
16, 38688, Note_on_c, 7, 48, 0
16, 38688, Note_on_c, 7, 60, 0
16, 38688, Note_on_c, 7, 57, 100
16, 38688, Note_on_c, 7, 45, 100
16, 38784, Note_on_c, 7, 45, 0
16, 38784, Note_on_c, 7, 57, 0
16, 38880, Note_on_c, 7, 59, 100
16, 38880, Note_on_c, 7, 47, 100
16, 38976, Note_on_c, 7, 47, 0
16, 38976, Note_on_c, 7, 59, 0
16, 38976, Note_on_c, 7, 55, 100
16, 38976, Note_on_c, 7, 43, 100
16, 39072, Note_on_c, 7, 43, 0
16, 39072, Note_on_c, 7, 55, 0
16, 39168, Note_on_c, 7, 57, 100
16, 39168, Note_on_c, 7, 45, 100
16, 39264, Note_on_c, 7, 45, 0
16, 39264, Note_on_c, 7, 57, 0
16, 39264, Note_on_c, 7, 53, 100
16, 39264, Note_on_c, 7, 41, 100
16, 39360, Note_on_c, 7, 41, 0
16, 39360, Note_on_c, 7, 53, 0
16, 39360, Note_on_c, 7, 43, 100
16, 39360, Note_on_c, 7, 55, 100
16, 39408, Note_on_c, 7, 55, 0
16, 39408, Note_on_c, 7, 43, 0
16, 39408, Note_on_c, 7, 43, 100
16, 39408, Note_on_c, 7, 55, 100
16, 39456, Note_on_c, 7, 55, 0
16, 39456, Note_on_c, 7, 43, 0
16, 39456, Note_on_c, 7, 41, 100
16, 39456, Note_on_c, 7, 53, 100
16, 39504, Note_on_c, 7, 53, 0
16, 39504, Note_on_c, 7, 41, 0
16, 39504, Note_on_c, 7, 43, 100
16, 39504, Note_on_c, 7, 55, 100
16, 39552, Note_on_c, 7, 55, 0
16, 39552, Note_on_c, 7, 43, 0
16, 39552, Note_on_c, 7, 40, 100
16, 39552, Note_on_c, 7, 52, 100
16, 39600, Note_on_c, 7, 52, 0
16, 39600, Note_on_c, 7, 40, 0
16, 39600, Note_on_c, 7, 43, 100
16, 39600, Note_on_c, 7, 55, 100
16, 39648, Note_on_c, 7, 55, 0
16, 39648, Note_on_c, 7, 43, 0
16, 39648, Note_on_c, 7, 35, 100
16, 39648, Note_on_c, 7, 47, 100
16, 39720, Note_on_c, 7, 47, 0
16, 39720, Note_on_c, 7, 35, 0
16, 39720, Note_on_c, 7, 36, 100
16, 39720, Note_on_c, 7, 48, 100
16, 39744, Note_on_c, 7, 48, 0
16, 39744, Note_on_c, 7, 36, 0
16, 39744, Note_on_c, 7, 35, 100
16, 39744, Note_on_c, 7, 47, 100
16, 39792, Note_on_c, 7, 47, 0
16, 39792, Note_on_c, 7, 35, 0
16, 39792, Note_on_c, 7, 33, 100
16, 39792, Note_on_c, 7, 45, 100
16, 39816, Note_on_c, 7, 45, 0
16, 39816, Note_on_c, 7, 33, 0
16, 39816, Note_on_c, 7, 31, 100
16, 39816, Note_on_c, 7, 43, 100
16, 39840, Note_on_c, 7, 43, 0
16, 39840, Note_on_c, 7, 31, 0
16, 39840, Note_on_c, 7, 36, 100
16, 39840, Note_on_c, 7, 48, 100
16, 39888, Note_on_c, 7, 48, 0
16, 39888, Note_on_c, 7, 36, 0
16, 39888, Note_on_c, 7, 40, 100
16, 39888, Note_on_c, 7, 52, 100
16, 39936, Note_on_c, 7, 52, 0
16, 39936, Note_on_c, 7, 40, 0
16, 39936, Note_on_c, 7, 43, 100
16, 39936, Note_on_c, 7, 55, 100
16, 39984, Note_on_c, 7, 55, 0
16, 39984, Note_on_c, 7, 43, 0
16, 39984, Note_on_c, 7, 43, 100
16, 39984, Note_on_c, 7, 55, 100
16, 40032, Note_on_c, 7, 55, 0
16, 40032, Note_on_c, 7, 43, 0
16, 40032, Note_on_c, 7, 41, 100
16, 40032, Note_on_c, 7, 53, 100
16, 40080, Note_on_c, 7, 53, 0
16, 40080, Note_on_c, 7, 41, 0
16, 40080, Note_on_c, 7, 43, 100
16, 40080, Note_on_c, 7, 55, 100
16, 40128, Note_on_c, 7, 55, 0
16, 40128, Note_on_c, 7, 43, 0
16, 40128, Note_on_c, 7, 40, 100
16, 40128, Note_on_c, 7, 52, 100
16, 40176, Note_on_c, 7, 52, 0
16, 40176, Note_on_c, 7, 40, 0
16, 40176, Note_on_c, 7, 43, 100
16, 40176, Note_on_c, 7, 55, 100
16, 40224, Note_on_c, 7, 55, 0
16, 40224, Note_on_c, 7, 43, 0
16, 40224, Note_on_c, 7, 35, 100
16, 40224, Note_on_c, 7, 47, 100
16, 40296, Note_on_c, 7, 47, 0
16, 40296, Note_on_c, 7, 35, 0
16, 40296, Note_on_c, 7, 36, 100
16, 40296, Note_on_c, 7, 48, 100
16, 40320, Note_on_c, 7, 48, 0
16, 40320, Note_on_c, 7, 36, 0
16, 40320, Note_on_c, 7, 35, 100
16, 40320, Note_on_c, 7, 47, 100
16, 40368, Note_on_c, 7, 47, 0
16, 40368, Note_on_c, 7, 35, 0
16, 40368, Note_on_c, 7, 33, 100
16, 40368, Note_on_c, 7, 45, 100
16, 40392, Note_on_c, 7, 45, 0
16, 40392, Note_on_c, 7, 33, 0
16, 40392, Note_on_c, 7, 31, 100
16, 40392, Note_on_c, 7, 43, 100
16, 40416, Note_on_c, 7, 43, 0
16, 40416, Note_on_c, 7, 31, 0
16, 40416, Note_on_c, 7, 36, 100
16, 40416, Note_on_c, 7, 48, 100
16, 40464, Note_on_c, 7, 48, 0
16, 40464, Note_on_c, 7, 36, 0
16, 40464, Note_on_c, 7, 40, 100
16, 40464, Note_on_c, 7, 52, 100
16, 40512, Note_on_c, 7, 52, 0
16, 40512, Note_on_c, 7, 40, 0
16, 40512, Note_on_c, 7, 43, 100
16, 40512, Note_on_c, 7, 55, 100
16, 40608, Note_on_c, 7, 55, 0
16, 40608, Note_on_c, 7, 43, 0
16, 40800, Note_on_c, 7, 43, 100
16, 40800, Note_on_c, 7, 55, 100
16, 40896, Note_on_c, 7, 55, 0
16, 40896, Note_on_c, 7, 43, 0
16, 40896, Note_on_c, 7, 40, 100
16, 40896, Note_on_c, 7, 52, 100
16, 40992, Note_on_c, 7, 52, 0
16, 40992, Note_on_c, 7, 40, 0
16, 40992, Note_on_c, 7, 48, 100
16, 40992, Note_on_c, 7, 36, 100
16, 41088, Note_on_c, 7, 36, 0
16, 41088, Note_on_c, 7, 48, 0
16, 41088, Note_on_c, 7, 43, 100
16, 41088, Note_on_c, 7, 55, 100
16, 41376, Note_on_c, 7, 55, 0
16, 41376, Note_on_c, 7, 43, 0
16, 41376, Note_on_c, 7, 57, 100
16, 41376, Note_on_c, 7, 45, 100
16, 41664, Note_on_c, 7, 45, 0
16, 41664, Note_on_c, 7, 57, 0
16, 41664, Note_on_c, 7, 50, 100
16, 41664, Note_on_c, 7, 38, 100
16, 41952, Note_on_c, 7, 38, 0
16, 41952, Note_on_c, 7, 50, 0
16, 41952, Note_on_c, 7, 55, 100
16, 41952, Note_on_c, 7, 43, 100
16, 42240, Note_on_c, 7, 43, 0
16, 42240, Note_on_c, 7, 55, 0
16, 42240, Note_on_c, 7, 48, 100
16, 42240, Note_on_c, 7, 36, 100
16, 42528, Note_on_c, 7, 36, 0
16, 42528, Note_on_c, 7, 48, 0
16, 42528, Note_on_c, 7, 54, 100
16, 42528, Note_on_c, 7, 42, 100
16, 42816, Note_on_c, 7, 42, 0
16, 42816, Note_on_c, 7, 54, 0
16, 42816, Note_on_c, 7, 53, 100
16, 42816, Note_on_c, 7, 41, 100
16, 43104, Note_on_c, 7, 41, 0
16, 43104, Note_on_c, 7, 53, 0
16, 43104, Note_on_c, 7, 53, 100
16, 43104, Note_on_c, 7, 41, 100
16, 43200, Note_on_c, 7, 41, 0
16, 43200, Note_on_c, 7, 53, 0
16, 43200, Note_on_c, 7, 55, 100
16, 43200, Note_on_c, 7, 43, 100
16, 43392, Note_on_c, 7, 43, 0
16, 43392, Note_on_c, 7, 55, 0
16, 43392, Note_on_c, 7, 48, 100
16, 43392, Note_on_c, 7, 36, 100
16, 43488, Note_on_c, 7, 36, 0
16, 43488, Note_on_c, 7, 48, 0
16, 45408, Note_on_c, 7, 41, 100
16, 45408, Note_on_c, 7, 53, 100
16, 45456, Note_on_c, 7, 53, 0
16, 45456, Note_on_c, 7, 41, 0
16, 45456, Note_on_c, 7, 38, 100
16, 45456, Note_on_c, 7, 50, 100
16, 45504, Note_on_c, 7, 50, 0
16, 45504, Note_on_c, 7, 38, 0
16, 45504, Note_on_c, 7, 43, 100
16, 45504, Note_on_c, 7, 55, 100
16, 45552, Note_on_c, 7, 55, 0
16, 45552, Note_on_c, 7, 43, 0
16, 45552, Note_on_c, 7, 41, 100
16, 45552, Note_on_c, 7, 53, 100
16, 45600, Note_on_c, 7, 53, 0
16, 45600, Note_on_c, 7, 41, 0
16, 45600, Note_on_c, 7, 43, 100
16, 45600, Note_on_c, 7, 55, 100
16, 45648, Note_on_c, 7, 55, 0
16, 45648, Note_on_c, 7, 43, 0
16, 45648, Note_on_c, 7, 31, 100
16, 45648, Note_on_c, 7, 43, 100
16, 45696, Note_on_c, 7, 43, 0
16, 45696, Note_on_c, 7, 31, 0
16, 45696, Note_on_c, 7, 48, 100
16, 45696, Note_on_c, 7, 36, 100
16, 45792, Note_on_c, 7, 36, 0
16, 45792, Note_on_c, 7, 48, 0
16, 46272, Note_on_c, 7, 48, 100
16, 46272, Note_on_c, 7, 60, 100
16, 46368, Note_on_c, 7, 60, 0
16, 46368, Note_on_c, 7, 48, 0
16, 46368, Note_on_c, 7, 55, 100
16, 46368, Note_on_c, 7, 43, 100
16, 46560, Note_on_c, 7, 43, 0
16, 46560, Note_on_c, 7, 55, 0
16, 46560, Note_on_c, 7, 48, 100
16, 46560, Note_on_c, 7, 36, 100
16, 46656, Note_on_c, 7, 36, 0
16, 46656, Note_on_c, 7, 48, 0
16, 46656, Note_on_c, 7, 55, 100
16, 46656, Note_on_c, 7, 43, 100
16, 46848, Note_on_c, 7, 43, 0
16, 46848, Note_on_c, 7, 55, 0
16, 46848, Note_on_c, 7, 55, 100
16, 46848, Note_on_c, 7, 43, 100
16, 47136, Note_on_c, 7, 43, 0
16, 47136, Note_on_c, 7, 55, 0
16, 47136, Note_on_c, 7, 48, 100
16, 47136, Note_on_c, 7, 60, 100
16, 47232, Note_on_c, 7, 60, 0
16, 47232, Note_on_c, 7, 48, 0
16, 47232, Note_on_c, 7, 55, 100
16, 47232, Note_on_c, 7, 43, 100
16, 47424, Note_on_c, 7, 43, 0
16, 47424, Note_on_c, 7, 55, 0
16, 47424, Note_on_c, 7, 48, 100
16, 47424, Note_on_c, 7, 36, 100
16, 47520, Note_on_c, 7, 36, 0
16, 47520, Note_on_c, 7, 48, 0
16, 47520, End_track
0, 0, End_of_file