0, 0, Header, 1, 3, 192
1, 0, Start_track
1, 0, Title_t, "Sonatina III  Rondo"
1, 0, Text_t, "By W. A. Mozart"
1, 0, Copyright_t, "Copyright \251 <Year> by <Name>"
1, 0, Copyright_t, "All Rights Reserved"
1, 0, Text_t, "Generated by NoteWorthy Composer"
1, 0, Tempo, 461538
1, 0, Key_signature, 2, "major"
1, 0, Time_signature, 2, 2, 24, 8
1, 3072, Tempo, 461538
1, 12288, Key_signature, 1, "major"
1, 24576, Key_signature, 2, "major"
1, 24576, End_track
2, 0, Start_track
2, 0, MIDI_port, 0
2, 0, Title_t, "Right Hand"
2, 0, Program_c, 0, 0
2, 0, Control_c, 0, 7, 127
2, 0, Control_c, 0, 10, 64
2, 0, Note_on_c, 0, 69, 92
2, 94, Note_on_c, 0, 69, 0
2, 96, Note_on_c, 0, 66, 92
2, 96, Note_on_c, 0, 74, 92
2, 128, Note_on_c, 0, 66, 0
2, 128, Note_on_c, 0, 74, 0
2, 192, Note_on_c, 0, 66, 92
2, 192, Note_on_c, 0, 74, 92
2, 288, Note_on_c, 0, 66, 0
2, 288, Note_on_c, 0, 74, 0
2, 288, Note_on_c, 0, 73, 92
2, 288, Note_on_c, 0, 76, 92
2, 384, Note_on_c, 0, 73, 0
2, 384, Note_on_c, 0, 76, 0
2, 384, Note_on_c, 0, 74, 92
2, 384, Note_on_c, 0, 78, 92
2, 478, Note_on_c, 0, 74, 0
2, 478, Note_on_c, 0, 78, 0
2, 480, Note_on_c, 0, 78, 92
2, 480, Note_on_c, 0, 81, 92
2, 576, Note_on_c, 0, 78, 0
2, 576, Note_on_c, 0, 81, 0
2, 576, Note_on_c, 0, 76, 92
2, 576, Note_on_c, 0, 79, 92
2, 670, Note_on_c, 0, 76, 0
2, 670, Note_on_c, 0, 79, 0
2, 672, Note_on_c, 0, 74, 92
2, 672, Note_on_c, 0, 78, 92
2, 704, Note_on_c, 0, 74, 0
2, 704, Note_on_c, 0, 78, 0
2, 768, Note_on_c, 0, 73, 92
2, 768, Note_on_c, 0, 76, 92
2, 800, Note_on_c, 0, 73, 0
2, 800, Note_on_c, 0, 76, 0
2, 864, Note_on_c, 0, 79, 92
2, 864, Note_on_c, 0, 83, 92
2, 960, Note_on_c, 0, 79, 0
2, 960, Note_on_c, 0, 83, 0
2, 960, Note_on_c, 0, 78, 92
2, 960, Note_on_c, 0, 81, 92
2, 1054, Note_on_c, 0, 78, 0
2, 1054, Note_on_c, 0, 81, 0
2, 1056, Note_on_c, 0, 76, 92
2, 1056, Note_on_c, 0, 79, 92
2, 1088, Note_on_c, 0, 76, 0
2, 1088, Note_on_c, 0, 79, 0
2, 1152, Note_on_c, 0, 74, 92
2, 1152, Note_on_c, 0, 78, 92
2, 1184, Note_on_c, 0, 74, 0
2, 1184, Note_on_c, 0, 78, 0
2, 1248, Note_on_c, 0, 73, 92
2, 1248, Note_on_c, 0, 76, 92
2, 1296, Note_on_c, 0, 73, 0
2, 1296, Note_on_c, 0, 76, 0
2, 1296, Note_on_c, 0, 74, 92
2, 1344, Note_on_c, 0, 74, 0
2, 1344, Note_on_c, 0, 76, 92
2, 1392, Note_on_c, 0, 76, 0
2, 1392, Note_on_c, 0, 78, 92
2, 1438, Note_on_c, 0, 78, 0
2, 1440, Note_on_c, 0, 73, 92
2, 1440, Note_on_c, 0, 76, 92
2, 1472, Note_on_c, 0, 73, 0
2, 1472, Note_on_c, 0, 76, 0
2, 1536, Note_on_c, 0, 69, 92
2, 1568, Note_on_c, 0, 69, 0
2, 1632, Note_on_c, 0, 69, 92
2, 1632, Note_on_c, 0, 74, 92
2, 1664, Note_on_c, 0, 69, 0
2, 1664, Note_on_c, 0, 74, 0
2, 1728, Note_on_c, 0, 69, 92
2, 1728, Note_on_c, 0, 74, 92
2, 1824, Note_on_c, 0, 69, 0
2, 1824, Note_on_c, 0, 74, 0
2, 1824, Note_on_c, 0, 73, 92
2, 1824, Note_on_c, 0, 76, 92
2, 1920, Note_on_c, 0, 73, 0
2, 1920, Note_on_c, 0, 76, 0
2, 1920, Note_on_c, 0, 74, 92
2, 1920, Note_on_c, 0, 78, 92
2, 2014, Note_on_c, 0, 74, 0
2, 2014, Note_on_c, 0, 78, 0
2, 2016, Note_on_c, 0, 78, 92
2, 2016, Note_on_c, 0, 81, 92
2, 2112, Note_on_c, 0, 78, 0
2, 2112, Note_on_c, 0, 81, 0
2, 2112, Note_on_c, 0, 76, 92
2, 2112, Note_on_c, 0, 79, 92
2, 2206, Note_on_c, 0, 76, 0
2, 2206, Note_on_c, 0, 79, 0
2, 2208, Note_on_c, 0, 74, 92
2, 2208, Note_on_c, 0, 78, 92
2, 2240, Note_on_c, 0, 74, 0
2, 2240, Note_on_c, 0, 78, 0
2, 2304, Note_on_c, 0, 73, 92
2, 2304, Note_on_c, 0, 76, 92
2, 2336, Note_on_c, 0, 73, 0
2, 2336, Note_on_c, 0, 76, 0
2, 2400, Note_on_c, 0, 79, 92
2, 2400, Note_on_c, 0, 83, 92
2, 2496, Note_on_c, 0, 79, 0
2, 2496, Note_on_c, 0, 83, 0
2, 2496, Note_on_c, 0, 78, 92
2, 2496, Note_on_c, 0, 81, 92
2, 2590, Note_on_c, 0, 78, 0
2, 2590, Note_on_c, 0, 81, 0
2, 2592, Note_on_c, 0, 76, 92
2, 2592, Note_on_c, 0, 79, 92
2, 2624, Note_on_c, 0, 76, 0
2, 2624, Note_on_c, 0, 79, 0
2, 2688, Note_on_c, 0, 73, 92
2, 2688, Note_on_c, 0, 76, 92
2, 2720, Note_on_c, 0, 73, 0
2, 2720, Note_on_c, 0, 76, 0
2, 2784, Note_on_c, 0, 74, 92
2, 2944, Note_on_c, 0, 74, 0
2, 3072, Note_on_c, 0, 69, 92
2, 3166, Note_on_c, 0, 69, 0
2, 3168, Note_on_c, 0, 66, 92
2, 3168, Note_on_c, 0, 74, 92
2, 3200, Note_on_c, 0, 66, 0
2, 3200, Note_on_c, 0, 74, 0
2, 3264, Note_on_c, 0, 66, 92
2, 3264, Note_on_c, 0, 74, 92
2, 3360, Note_on_c, 0, 66, 0
2, 3360, Note_on_c, 0, 74, 0
2, 3360, Note_on_c, 0, 73, 92
2, 3360, Note_on_c, 0, 76, 92
2, 3456, Note_on_c, 0, 73, 0
2, 3456, Note_on_c, 0, 76, 0
2, 3456, Note_on_c, 0, 74, 92
2, 3456, Note_on_c, 0, 78, 92
2, 3550, Note_on_c, 0, 74, 0
2, 3550, Note_on_c, 0, 78, 0
2, 3552, Note_on_c, 0, 78, 92
2, 3552, Note_on_c, 0, 81, 92
2, 3648, Note_on_c, 0, 78, 0
2, 3648, Note_on_c, 0, 81, 0
2, 3648, Note_on_c, 0, 76, 92
2, 3648, Note_on_c, 0, 79, 92
2, 3742, Note_on_c, 0, 76, 0
2, 3742, Note_on_c, 0, 79, 0
2, 3744, Note_on_c, 0, 74, 92
2, 3744, Note_on_c, 0, 78, 92
2, 3776, Note_on_c, 0, 74, 0
2, 3776, Note_on_c, 0, 78, 0
2, 3840, Note_on_c, 0, 73, 92
2, 3840, Note_on_c, 0, 76, 92
2, 3872, Note_on_c, 0, 73, 0
2, 3872, Note_on_c, 0, 76, 0
2, 3936, Note_on_c, 0, 79, 92
2, 3936, Note_on_c, 0, 83, 92
2, 4032, Note_on_c, 0, 79, 0
2, 4032, Note_on_c, 0, 83, 0
2, 4032, Note_on_c, 0, 78, 92
2, 4032, Note_on_c, 0, 81, 92
2, 4126, Note_on_c, 0, 78, 0
2, 4126, Note_on_c, 0, 81, 0
2, 4128, Note_on_c, 0, 76, 92
2, 4128, Note_on_c, 0, 79, 92
2, 4160, Note_on_c, 0, 76, 0
2, 4160, Note_on_c, 0, 79, 0
2, 4224, Note_on_c, 0, 74, 92
2, 4224, Note_on_c, 0, 78, 92
2, 4256, Note_on_c, 0, 74, 0
2, 4256, Note_on_c, 0, 78, 0
2, 4320, Note_on_c, 0, 73, 92
2, 4320, Note_on_c, 0, 76, 92
2, 4368, Note_on_c, 0, 73, 0
2, 4368, Note_on_c, 0, 76, 0
2, 4368, Note_on_c, 0, 74, 92
2, 4416, Note_on_c, 0, 74, 0
2, 4416, Note_on_c, 0, 76, 92
2, 4464, Note_on_c, 0, 76, 0
2, 4464, Note_on_c, 0, 78, 92
2, 4510, Note_on_c, 0, 78, 0
2, 4512, Note_on_c, 0, 73, 92
2, 4512, Note_on_c, 0, 76, 92
2, 4544, Note_on_c, 0, 73, 0
2, 4544, Note_on_c, 0, 76, 0
2, 4608, Note_on_c, 0, 69, 92
2, 4640, Note_on_c, 0, 69, 0
2, 4704, Note_on_c, 0, 69, 92
2, 4704, Note_on_c, 0, 74, 92
2, 4736, Note_on_c, 0, 69, 0
2, 4736, Note_on_c, 0, 74, 0
2, 4800, Note_on_c, 0, 69, 92
2, 4800, Note_on_c, 0, 74, 92
2, 4896, Note_on_c, 0, 69, 0
2, 4896, Note_on_c, 0, 74, 0
2, 4896, Note_on_c, 0, 73, 92
2, 4896, Note_on_c, 0, 76, 92
2, 4992, Note_on_c, 0, 73, 0
2, 4992, Note_on_c, 0, 76, 0
2, 4992, Note_on_c, 0, 74, 92
2, 4992, Note_on_c, 0, 78, 92
2, 5086, Note_on_c, 0, 74, 0
2, 5086, Note_on_c, 0, 78, 0
2, 5088, Note_on_c, 0, 78, 92
2, 5088, Note_on_c, 0, 81, 92
2, 5184, Note_on_c, 0, 78, 0
2, 5184, Note_on_c, 0, 81, 0
2, 5184, Note_on_c, 0, 76, 92
2, 5184, Note_on_c, 0, 79, 92
2, 5278, Note_on_c, 0, 76, 0
2, 5278, Note_on_c, 0, 79, 0
2, 5280, Note_on_c, 0, 74, 92
2, 5280, Note_on_c, 0, 78, 92
2, 5312, Note_on_c, 0, 74, 0
2, 5312, Note_on_c, 0, 78, 0
2, 5376, Note_on_c, 0, 73, 92
2, 5376, Note_on_c, 0, 76, 92
2, 5408, Note_on_c, 0, 73, 0
2, 5408, Note_on_c, 0, 76, 0
2, 5472, Note_on_c, 0, 79, 92
2, 5472, Note_on_c, 0, 83, 92
2, 5568, Note_on_c, 0, 79, 0
2, 5568, Note_on_c, 0, 83, 0
2, 5568, Note_on_c, 0, 78, 92
2, 5568, Note_on_c, 0, 81, 92
2, 5662, Note_on_c, 0, 78, 0
2, 5662, Note_on_c, 0, 81, 0
2, 5664, Note_on_c, 0, 76, 92
2, 5664, Note_on_c, 0, 79, 92
2, 5696, Note_on_c, 0, 76, 0
2, 5696, Note_on_c, 0, 79, 0
2, 5760, Note_on_c, 0, 73, 92
2, 5760, Note_on_c, 0, 76, 92
2, 5792, Note_on_c, 0, 73, 0
2, 5792, Note_on_c, 0, 76, 0
2, 5856, Note_on_c, 0, 74, 92
2, 6016, Note_on_c, 0, 74, 0
2, 6144, Note_on_c, 0, 69, 92
2, 6238, Note_on_c, 0, 69, 0
2, 6240, Note_on_c, 0, 73, 92
2, 6240, Note_on_c, 0, 76, 92
2, 6272, Note_on_c, 0, 73, 0
2, 6272, Note_on_c, 0, 76, 0
2, 6336, Note_on_c, 0, 73, 92
2, 6336, Note_on_c, 0, 76, 92
2, 6432, Note_on_c, 0, 73, 0
2, 6432, Note_on_c, 0, 76, 0
2, 6432, Note_on_c, 0, 74, 92
2, 6432, Note_on_c, 0, 78, 92
2, 6528, Note_on_c, 0, 74, 0
2, 6528, Note_on_c, 0, 78, 0
2, 6528, Note_on_c, 0, 76, 92
2, 6528, Note_on_c, 0, 79, 92
2, 6622, Note_on_c, 0, 76, 0
2, 6622, Note_on_c, 0, 79, 0
2, 6624, Note_on_c, 0, 79, 92
2, 6624, Note_on_c, 0, 83, 92
2, 6720, Note_on_c, 0, 79, 0
2, 6720, Note_on_c, 0, 83, 0
2, 6720, Note_on_c, 0, 78, 92
2, 6720, Note_on_c, 0, 81, 92
2, 6814, Note_on_c, 0, 78, 0
2, 6814, Note_on_c, 0, 81, 0
2, 6816, Note_on_c, 0, 76, 92
2, 6816, Note_on_c, 0, 79, 92
2, 6848, Note_on_c, 0, 76, 0
2, 6848, Note_on_c, 0, 79, 0
2, 6912, Note_on_c, 0, 74, 92
2, 6912, Note_on_c, 0, 78, 92
2, 6944, Note_on_c, 0, 74, 0
2, 6944, Note_on_c, 0, 78, 0
2, 7008, Note_on_c, 0, 73, 92
2, 7008, Note_on_c, 0, 76, 92
2, 7040, Note_on_c, 0, 73, 0
2, 7040, Note_on_c, 0, 76, 0
2, 7104, Note_on_c, 0, 73, 92
2, 7104, Note_on_c, 0, 76, 92
2, 7200, Note_on_c, 0, 73, 0
2, 7200, Note_on_c, 0, 76, 0
2, 7200, Note_on_c, 0, 74, 92
2, 7200, Note_on_c, 0, 78, 92
2, 7296, Note_on_c, 0, 74, 0
2, 7296, Note_on_c, 0, 78, 0
2, 7296, Note_on_c, 0, 76, 92
2, 7296, Note_on_c, 0, 79, 92
2, 7390, Note_on_c, 0, 76, 0
2, 7390, Note_on_c, 0, 79, 0
2, 7392, Note_on_c, 0, 78, 92
2, 7392, Note_on_c, 0, 81, 92
2, 7536, Note_on_c, 0, 78, 0
2, 7536, Note_on_c, 0, 81, 0
2, 7536, Note_on_c, 0, 83, 92
2, 7560, Note_on_c, 0, 83, 0
2, 7560, Note_on_c, 0, 85, 92
2, 7582, Note_on_c, 0, 85, 0
2, 7584, Note_on_c, 0, 86, 92
2, 7616, Note_on_c, 0, 86, 0
2, 7680, Note_on_c, 0, 69, 92
2, 7712, Note_on_c, 0, 69, 0
2, 7776, Note_on_c, 0, 66, 92
2, 7776, Note_on_c, 0, 74, 92
2, 7808, Note_on_c, 0, 66, 0
2, 7808, Note_on_c, 0, 74, 0
2, 7872, Note_on_c, 0, 66, 92
2, 7872, Note_on_c, 0, 74, 92
2, 7968, Note_on_c, 0, 66, 0
2, 7968, Note_on_c, 0, 74, 0
2, 7968, Note_on_c, 0, 73, 92
2, 7968, Note_on_c, 0, 76, 92
2, 8064, Note_on_c, 0, 73, 0
2, 8064, Note_on_c, 0, 76, 0
2, 8064, Note_on_c, 0, 74, 92
2, 8064, Note_on_c, 0, 78, 92
2, 8158, Note_on_c, 0, 74, 0
2, 8158, Note_on_c, 0, 78, 0
2, 8160, Note_on_c, 0, 78, 92
2, 8160, Note_on_c, 0, 81, 92
2, 8256, Note_on_c, 0, 78, 0
2, 8256, Note_on_c, 0, 81, 0
2, 8256, Note_on_c, 0, 76, 92
2, 8256, Note_on_c, 0, 79, 92
2, 8350, Note_on_c, 0, 76, 0
2, 8350, Note_on_c, 0, 79, 0
2, 8352, Note_on_c, 0, 74, 92
2, 8352, Note_on_c, 0, 78, 92
2, 8384, Note_on_c, 0, 74, 0
2, 8384, Note_on_c, 0, 78, 0
2, 8448, Note_on_c, 0, 73, 92
2, 8448, Note_on_c, 0, 76, 92
2, 8480, Note_on_c, 0, 73, 0
2, 8480, Note_on_c, 0, 76, 0
2, 8544, Note_on_c, 0, 74, 92
2, 8544, Note_on_c, 0, 83, 92
2, 8640, Note_on_c, 0, 74, 0
2, 8640, Note_on_c, 0, 83, 0
2, 8640, Note_on_c, 0, 78, 92
2, 8640, Note_on_c, 0, 81, 92
2, 8734, Note_on_c, 0, 78, 0
2, 8734, Note_on_c, 0, 81, 0
2, 8736, Note_on_c, 0, 76, 92
2, 8736, Note_on_c, 0, 79, 92
2, 8768, Note_on_c, 0, 76, 0
2, 8768, Note_on_c, 0, 79, 0
2, 8832, Note_on_c, 0, 73, 92
2, 8832, Note_on_c, 0, 76, 92
2, 8864, Note_on_c, 0, 73, 0
2, 8864, Note_on_c, 0, 76, 0
2, 8928, Note_on_c, 0, 74, 92
2, 9088, Note_on_c, 0, 74, 0
2, 9216, Note_on_c, 0, 69, 92
2, 9310, Note_on_c, 0, 69, 0
2, 9312, Note_on_c, 0, 73, 92
2, 9312, Note_on_c, 0, 76, 92
2, 9344, Note_on_c, 0, 73, 0
2, 9344, Note_on_c, 0, 76, 0
2, 9408, Note_on_c, 0, 73, 92
2, 9408, Note_on_c, 0, 76, 92
2, 9504, Note_on_c, 0, 73, 0
2, 9504, Note_on_c, 0, 76, 0
2, 9504, Note_on_c, 0, 74, 92
2, 9504, Note_on_c, 0, 78, 92
2, 9600, Note_on_c, 0, 74, 0
2, 9600, Note_on_c, 0, 78, 0
2, 9600, Note_on_c, 0, 76, 92
2, 9600, Note_on_c, 0, 79, 92
2, 9694, Note_on_c, 0, 76, 0
2, 9694, Note_on_c, 0, 79, 0
2, 9696, Note_on_c, 0, 79, 92
2, 9696, Note_on_c, 0, 83, 92
2, 9792, Note_on_c, 0, 79, 0
2, 9792, Note_on_c, 0, 83, 0
2, 9792, Note_on_c, 0, 78, 92
2, 9792, Note_on_c, 0, 81, 92
2, 9886, Note_on_c, 0, 78, 0
2, 9886, Note_on_c, 0, 81, 0
2, 9888, Note_on_c, 0, 76, 92
2, 9888, Note_on_c, 0, 79, 92
2, 9920, Note_on_c, 0, 76, 0
2, 9920, Note_on_c, 0, 79, 0
2, 9984, Note_on_c, 0, 74, 92
2, 9984, Note_on_c, 0, 78, 92
2, 10016, Note_on_c, 0, 74, 0
2, 10016, Note_on_c, 0, 78, 0
2, 10080, Note_on_c, 0, 73, 92
2, 10080, Note_on_c, 0, 76, 92
2, 10112, Note_on_c, 0, 73, 0
2, 10112, Note_on_c, 0, 76, 0
2, 10176, Note_on_c, 0, 73, 92
2, 10176, Note_on_c, 0, 76, 92
2, 10272, Note_on_c, 0, 73, 0
2, 10272, Note_on_c, 0, 76, 0
2, 10272, Note_on_c, 0, 74, 92
2, 10272, Note_on_c, 0, 78, 92
2, 10368, Note_on_c, 0, 74, 0
2, 10368, Note_on_c, 0, 78, 0
2, 10368, Note_on_c, 0, 76, 92
2, 10368, Note_on_c, 0, 79, 92
2, 10462, Note_on_c, 0, 76, 0
2, 10462, Note_on_c, 0, 79, 0
2, 10464, Note_on_c, 0, 78, 92
2, 10464, Note_on_c, 0, 81, 92
2, 10608, Note_on_c, 0, 78, 0
2, 10608, Note_on_c, 0, 81, 0
2, 10608, Note_on_c, 0, 83, 92
2, 10632, Note_on_c, 0, 83, 0
2, 10632, Note_on_c, 0, 85, 92
2, 10654, Note_on_c, 0, 85, 0
2, 10656, Note_on_c, 0, 86, 92
2, 10688, Note_on_c, 0, 86, 0
2, 10752, Note_on_c, 0, 69, 92
2, 10784, Note_on_c, 0, 69, 0
2, 10848, Note_on_c, 0, 66, 92
2, 10848, Note_on_c, 0, 74, 92
2, 10880, Note_on_c, 0, 66, 0
2, 10880, Note_on_c, 0, 74, 0
2, 10944, Note_on_c, 0, 66, 92
2, 10944, Note_on_c, 0, 74, 92
2, 11040, Note_on_c, 0, 66, 0
2, 11040, Note_on_c, 0, 74, 0
2, 11040, Note_on_c, 0, 73, 92
2, 11040, Note_on_c, 0, 76, 92
2, 11136, Note_on_c, 0, 73, 0
2, 11136, Note_on_c, 0, 76, 0
2, 11136, Note_on_c, 0, 74, 92
2, 11136, Note_on_c, 0, 78, 92
2, 11230, Note_on_c, 0, 74, 0
2, 11230, Note_on_c, 0, 78, 0
2, 11232, Note_on_c, 0, 78, 92
2, 11232, Note_on_c, 0, 81, 92
2, 11328, Note_on_c, 0, 78, 0
2, 11328, Note_on_c, 0, 81, 0
2, 11328, Note_on_c, 0, 76, 92
2, 11328, Note_on_c, 0, 79, 92
2, 11422, Note_on_c, 0, 76, 0
2, 11422, Note_on_c, 0, 79, 0
2, 11424, Note_on_c, 0, 74, 92
2, 11424, Note_on_c, 0, 78, 92
2, 11456, Note_on_c, 0, 74, 0
2, 11456, Note_on_c, 0, 78, 0
2, 11520, Note_on_c, 0, 73, 92
2, 11520, Note_on_c, 0, 76, 92
2, 11552, Note_on_c, 0, 73, 0
2, 11552, Note_on_c, 0, 76, 0
2, 11616, Note_on_c, 0, 74, 92
2, 11616, Note_on_c, 0, 83, 92
2, 11712, Note_on_c, 0, 74, 0
2, 11712, Note_on_c, 0, 83, 0
2, 11712, Note_on_c, 0, 78, 92
2, 11712, Note_on_c, 0, 81, 92
2, 11806, Note_on_c, 0, 78, 0
2, 11806, Note_on_c, 0, 81, 0
2, 11808, Note_on_c, 0, 76, 92
2, 11808, Note_on_c, 0, 79, 92
2, 11840, Note_on_c, 0, 76, 0
2, 11840, Note_on_c, 0, 79, 0
2, 11904, Note_on_c, 0, 73, 92
2, 11904, Note_on_c, 0, 76, 92
2, 11936, Note_on_c, 0, 73, 0
2, 11936, Note_on_c, 0, 76, 0
2, 12000, Note_on_c, 0, 74, 92
2, 12160, Note_on_c, 0, 74, 0
2, 12288, Note_on_c, 0, 74, 45
2, 12320, Note_on_c, 0, 74, 0
2, 12384, Note_on_c, 0, 79, 45
2, 12768, Note_on_c, 0, 79, 0
2, 12768, Note_on_c, 0, 81, 45
2, 13088, Note_on_c, 0, 74, 45
2, 13104, Note_on_c, 0, 81, 0
2, 13133, Note_on_c, 0, 74, 0
2, 13152, Note_on_c, 0, 79, 45
2, 13152, Note_on_c, 0, 83, 45
2, 13536, Note_on_c, 0, 79, 0
2, 13536, Note_on_c, 0, 83, 0
2, 13536, Note_on_c, 0, 81, 45
2, 13536, Note_on_c, 0, 84, 45
2, 13872, Note_on_c, 0, 81, 0
2, 13872, Note_on_c, 0, 84, 0
2, 13920, Note_on_c, 0, 83, 45
2, 13920, Note_on_c, 0, 86, 45
2, 13984, Note_on_c, 0, 83, 0
2, 13984, Note_on_c, 0, 86, 0
2, 13984, Note_on_c, 0, 81, 45
2, 13984, Note_on_c, 0, 84, 45
2, 14048, Note_on_c, 0, 81, 0
2, 14048, Note_on_c, 0, 84, 0
2, 14048, Note_on_c, 0, 79, 45
2, 14048, Note_on_c, 0, 83, 45
2, 14110, Note_on_c, 0, 79, 0
2, 14110, Note_on_c, 0, 83, 0
2, 14112, Note_on_c, 0, 81, 45
2, 14176, Note_on_c, 0, 81, 0
2, 14176, Note_on_c, 0, 79, 45
2, 14240, Note_on_c, 0, 79, 0
2, 14240, Note_on_c, 0, 78, 45
2, 14302, Note_on_c, 0, 78, 0
2, 14304, Note_on_c, 0, 83, 45
2, 14368, Note_on_c, 0, 83, 0
2, 14368, Note_on_c, 0, 81, 45
2, 14432, Note_on_c, 0, 81, 0
2, 14432, Note_on_c, 0, 79, 45
2, 14494, Note_on_c, 0, 79, 0
2, 14496, Note_on_c, 0, 78, 45
2, 14560, Note_on_c, 0, 78, 0
2, 14560, Note_on_c, 0, 76, 45
2, 14624, Note_on_c, 0, 76, 0
2, 14624, Note_on_c, 0, 71, 45
2, 14624, Note_on_c, 0, 74, 45
2, 14686, Note_on_c, 0, 71, 0
2, 14686, Note_on_c, 0, 74, 0
2, 14688, Note_on_c, 0, 69, 45
2, 14688, Note_on_c, 0, 72, 45
2, 14720, Note_on_c, 0, 69, 0
2, 14720, Note_on_c, 0, 72, 0
2, 14880, Note_on_c, 0, 67, 45
2, 14880, Note_on_c, 0, 71, 45
2, 14912, Note_on_c, 0, 67, 0
2, 14912, Note_on_c, 0, 71, 0
2, 15072, Note_on_c, 0, 66, 45
2, 15072, Note_on_c, 0, 69, 45
2, 15232, Note_on_c, 0, 66, 0
2, 15232, Note_on_c, 0, 69, 0
2, 15360, Note_on_c, 0, 74, 45
2, 15392, Note_on_c, 0, 74, 0
2, 15456, Note_on_c, 0, 79, 45
2, 15840, Note_on_c, 0, 79, 0
2, 15840, Note_on_c, 0, 81, 45
2, 16160, Note_on_c, 0, 74, 45
2, 16176, Note_on_c, 0, 81, 0
2, 16205, Note_on_c, 0, 74, 0
2, 16224, Note_on_c, 0, 79, 45
2, 16224, Note_on_c, 0, 83, 45
2, 16608, Note_on_c, 0, 79, 0
2, 16608, Note_on_c, 0, 83, 0
2, 16608, Note_on_c, 0, 81, 45
2, 16608, Note_on_c, 0, 84, 45
2, 16944, Note_on_c, 0, 81, 0
2, 16944, Note_on_c, 0, 84, 0
2, 16992, Note_on_c, 0, 83, 45
2, 16992, Note_on_c, 0, 86, 45
2, 17056, Note_on_c, 0, 83, 0
2, 17056, Note_on_c, 0, 86, 0
2, 17056, Note_on_c, 0, 81, 45
2, 17056, Note_on_c, 0, 84, 45
2, 17120, Note_on_c, 0, 81, 0
2, 17120, Note_on_c, 0, 84, 0
2, 17120, Note_on_c, 0, 79, 45
2, 17120, Note_on_c, 0, 83, 45
2, 17182, Note_on_c, 0, 79, 0
2, 17182, Note_on_c, 0, 83, 0
2, 17184, Note_on_c, 0, 81, 45
2, 17248, Note_on_c, 0, 81, 0
2, 17248, Note_on_c, 0, 79, 45
2, 17312, Note_on_c, 0, 79, 0
2, 17312, Note_on_c, 0, 78, 45
2, 17374, Note_on_c, 0, 78, 0
2, 17376, Note_on_c, 0, 83, 45
2, 17440, Note_on_c, 0, 83, 0
2, 17440, Note_on_c, 0, 81, 45
2, 17504, Note_on_c, 0, 81, 0
2, 17504, Note_on_c, 0, 79, 45
2, 17566, Note_on_c, 0, 79, 0
2, 17568, Note_on_c, 0, 78, 45
2, 17632, Note_on_c, 0, 78, 0
2, 17632, Note_on_c, 0, 76, 45
2, 17696, Note_on_c, 0, 76, 0
2, 17696, Note_on_c, 0, 71, 45
2, 17696, Note_on_c, 0, 74, 45
2, 17758, Note_on_c, 0, 71, 0
2, 17758, Note_on_c, 0, 74, 0
2, 17760, Note_on_c, 0, 69, 45
2, 17760, Note_on_c, 0, 72, 45
2, 17792, Note_on_c, 0, 69, 0
2, 17792, Note_on_c, 0, 72, 0
2, 17952, Note_on_c, 0, 67, 45
2, 17952, Note_on_c, 0, 71, 45
2, 17984, Note_on_c, 0, 67, 0
2, 17984, Note_on_c, 0, 71, 0
2, 18144, Note_on_c, 0, 66, 45
2, 18144, Note_on_c, 0, 69, 45
2, 18304, Note_on_c, 0, 66, 0
2, 18304, Note_on_c, 0, 69, 0
2, 18432, Note_on_c, 0, 74, 92
2, 18464, Note_on_c, 0, 74, 0
2, 18528, Note_on_c, 0, 84, 92
2, 18592, Note_on_c, 0, 84, 0
2, 18592, Note_on_c, 0, 81, 92
2, 18656, Note_on_c, 0, 81, 0
2, 18656, Note_on_c, 0, 78, 92
2, 18718, Note_on_c, 0, 78, 0
2, 18720, Note_on_c, 0, 74, 92
2, 18762, Note_on_c, 0, 74, 0
2, 18784, Note_on_c, 0, 74, 92
2, 18826, Note_on_c, 0, 74, 0
2, 18848, Note_on_c, 0, 74, 92
2, 18890, Note_on_c, 0, 74, 0
2, 18912, Note_on_c, 0, 79, 92
2, 18976, Note_on_c, 0, 79, 0
2, 18976, Note_on_c, 0, 83, 92
2, 19040, Note_on_c, 0, 83, 0
2, 19040, Note_on_c, 0, 86, 92
2, 19102, Note_on_c, 0, 86, 0
2, 19104, Note_on_c, 0, 86, 92
2, 19146, Note_on_c, 0, 86, 0
2, 19168, Note_on_c, 0, 86, 92
2, 19210, Note_on_c, 0, 86, 0
2, 19232, Note_on_c, 0, 86, 92
2, 19274, Note_on_c, 0, 86, 0
2, 19296, Note_on_c, 0, 84, 92
2, 19360, Note_on_c, 0, 84, 0
2, 19360, Note_on_c, 0, 81, 92
2, 19424, Note_on_c, 0, 81, 0
2, 19424, Note_on_c, 0, 78, 92
2, 19486, Note_on_c, 0, 78, 0
2, 19488, Note_on_c, 0, 74, 92
2, 19530, Note_on_c, 0, 74, 0
2, 19552, Note_on_c, 0, 74, 92
2, 19594, Note_on_c, 0, 74, 0
2, 19616, Note_on_c, 0, 74, 92
2, 19658, Note_on_c, 0, 74, 0
2, 19680, Note_on_c, 0, 79, 92
2, 19744, Note_on_c, 0, 79, 0
2, 19744, Note_on_c, 0, 83, 92
2, 19808, Note_on_c, 0, 83, 0
2, 19808, Note_on_c, 0, 86, 92
2, 19870, Note_on_c, 0, 86, 0
2, 19872, Note_on_c, 0, 86, 92
2, 19914, Note_on_c, 0, 86, 0
2, 19936, Note_on_c, 0, 86, 92
2, 19978, Note_on_c, 0, 86, 0
2, 20000, Note_on_c, 0, 86, 92
2, 20042, Note_on_c, 0, 86, 0
2, 20064, Note_on_c, 0, 76, 45
2, 20064, Note_on_c, 0, 84, 45
2, 20448, Note_on_c, 0, 76, 0
2, 20448, Note_on_c, 0, 84, 0
2, 20448, Note_on_c, 0, 74, 45
2, 20448, Note_on_c, 0, 83, 45
2, 20480, Note_on_c, 0, 74, 0
2, 20480, Note_on_c, 0, 83, 0
2, 20640, Note_on_c, 0, 71, 45
2, 20640, Note_on_c, 0, 79, 45
2, 20672, Note_on_c, 0, 71, 0
2, 20672, Note_on_c, 0, 79, 0
2, 20832, Note_on_c, 0, 72, 45
2, 20832, Note_on_c, 0, 81, 45
2, 20864, Note_on_c, 0, 72, 0
2, 20864, Note_on_c, 0, 81, 0
2, 21024, Note_on_c, 0, 69, 45
2, 21024, Note_on_c, 0, 78, 45
2, 21056, Note_on_c, 0, 69, 0
2, 21056, Note_on_c, 0, 78, 0
2, 21216, Note_on_c, 0, 71, 45
2, 21216, Note_on_c, 0, 79, 45
2, 21376, Note_on_c, 0, 71, 0
2, 21376, Note_on_c, 0, 79, 0
2, 21504, Note_on_c, 0, 74, 92
2, 21536, Note_on_c, 0, 74, 0
2, 21600, Note_on_c, 0, 84, 92
2, 21664, Note_on_c, 0, 84, 0
2, 21664, Note_on_c, 0, 81, 92
2, 21728, Note_on_c, 0, 81, 0
2, 21728, Note_on_c, 0, 78, 92
2, 21790, Note_on_c, 0, 78, 0
2, 21792, Note_on_c, 0, 74, 92
2, 21834, Note_on_c, 0, 74, 0
2, 21856, Note_on_c, 0, 74, 92
2, 21898, Note_on_c, 0, 74, 0
2, 21920, Note_on_c, 0, 74, 92
2, 21962, Note_on_c, 0, 74, 0
2, 21984, Note_on_c, 0, 79, 92
2, 22048, Note_on_c, 0, 79, 0
2, 22048, Note_on_c, 0, 83, 92
2, 22112, Note_on_c, 0, 83, 0
2, 22112, Note_on_c, 0, 86, 92
2, 22174, Note_on_c, 0, 86, 0
2, 22176, Note_on_c, 0, 86, 92
2, 22218, Note_on_c, 0, 86, 0
2, 22240, Note_on_c, 0, 86, 92
2, 22282, Note_on_c, 0, 86, 0
2, 22304, Note_on_c, 0, 86, 92
2, 22346, Note_on_c, 0, 86, 0
2, 22368, Note_on_c, 0, 84, 92
2, 22432, Note_on_c, 0, 84, 0
2, 22432, Note_on_c, 0, 81, 92
2, 22496, Note_on_c, 0, 81, 0
2, 22496, Note_on_c, 0, 78, 92
2, 22558, Note_on_c, 0, 78, 0
2, 22560, Note_on_c, 0, 74, 92
2, 22602, Note_on_c, 0, 74, 0
2, 22624, Note_on_c, 0, 74, 92
2, 22666, Note_on_c, 0, 74, 0
2, 22688, Note_on_c, 0, 74, 92
2, 22730, Note_on_c, 0, 74, 0
2, 22752, Note_on_c, 0, 79, 92
2, 22816, Note_on_c, 0, 79, 0
2, 22816, Note_on_c, 0, 83, 92
2, 22880, Note_on_c, 0, 83, 0
2, 22880, Note_on_c, 0, 86, 92
2, 22942, Note_on_c, 0, 86, 0
2, 22944, Note_on_c, 0, 86, 92
2, 22986, Note_on_c, 0, 86, 0
2, 23008, Note_on_c, 0, 86, 92
2, 23050, Note_on_c, 0, 86, 0
2, 23072, Note_on_c, 0, 86, 92
2, 23114, Note_on_c, 0, 86, 0
2, 23136, Note_on_c, 0, 76, 45
2, 23136, Note_on_c, 0, 84, 45
2, 23520, Note_on_c, 0, 76, 0
2, 23520, Note_on_c, 0, 84, 0
2, 23520, Note_on_c, 0, 74, 45
2, 23520, Note_on_c, 0, 83, 45
2, 23552, Note_on_c, 0, 74, 0
2, 23552, Note_on_c, 0, 83, 0
2, 23712, Note_on_c, 0, 71, 45
2, 23712, Note_on_c, 0, 79, 45
2, 23744, Note_on_c, 0, 71, 0
2, 23744, Note_on_c, 0, 79, 0
2, 23904, Note_on_c, 0, 72, 45
2, 23904, Note_on_c, 0, 81, 45
2, 23936, Note_on_c, 0, 72, 0
2, 23936, Note_on_c, 0, 81, 0
2, 24096, Note_on_c, 0, 69, 45
2, 24096, Note_on_c, 0, 78, 45
2, 24128, Note_on_c, 0, 69, 0
2, 24128, Note_on_c, 0, 78, 0
2, 24288, Note_on_c, 0, 71, 45
2, 24288, Note_on_c, 0, 79, 45
2, 24448, Note_on_c, 0, 71, 0
2, 24448, Note_on_c, 0, 79, 0
2, 24576, Note_on_c, 0, 69, 92
2, 24670, Note_on_c, 0, 69, 0
2, 24672, Note_on_c, 0, 66, 92
2, 24672, Note_on_c, 0, 74, 92
2, 24704, Note_on_c, 0, 66, 0
2, 24704, Note_on_c, 0, 74, 0
2, 24768, Note_on_c, 0, 66, 92
2, 24768, Note_on_c, 0, 74, 92
2, 24864, Note_on_c, 0, 66, 0
2, 24864, Note_on_c, 0, 74, 0
2, 24864, Note_on_c, 0, 73, 92
2, 24864, Note_on_c, 0, 76, 92
2, 24960, Note_on_c, 0, 73, 0
2, 24960, Note_on_c, 0, 76, 0
2, 24960, Note_on_c, 0, 74, 92
2, 24960, Note_on_c, 0, 78, 92
2, 25054, Note_on_c, 0, 74, 0
2, 25054, Note_on_c, 0, 78, 0
2, 25056, Note_on_c, 0, 78, 92
2, 25056, Note_on_c, 0, 81, 92
2, 25152, Note_on_c, 0, 78, 0
2, 25152, Note_on_c, 0, 81, 0
2, 25152, Note_on_c, 0, 76, 92
2, 25152, Note_on_c, 0, 79, 92
2, 25246, Note_on_c, 0, 76, 0
2, 25246, Note_on_c, 0, 79, 0
2, 25248, Note_on_c, 0, 74, 92
2, 25248, Note_on_c, 0, 78, 92
2, 25280, Note_on_c, 0, 74, 0
2, 25280, Note_on_c, 0, 78, 0
2, 25344, Note_on_c, 0, 73, 92
2, 25344, Note_on_c, 0, 76, 92
2, 25376, Note_on_c, 0, 73, 0
2, 25376, Note_on_c, 0, 76, 0
2, 25440, Note_on_c, 0, 79, 92
2, 25440, Note_on_c, 0, 83, 92
2, 25536, Note_on_c, 0, 79, 0
2, 25536, Note_on_c, 0, 83, 0
2, 25536, Note_on_c, 0, 78, 92
2, 25536, Note_on_c, 0, 81, 92
2, 25630, Note_on_c, 0, 78, 0
2, 25630, Note_on_c, 0, 81, 0
2, 25632, Note_on_c, 0, 76, 92
2, 25632, Note_on_c, 0, 79, 92
2, 25664, Note_on_c, 0, 76, 0
2, 25664, Note_on_c, 0, 79, 0
2, 25728, Note_on_c, 0, 74, 92
2, 25728, Note_on_c, 0, 78, 92
2, 25760, Note_on_c, 0, 74, 0
2, 25760, Note_on_c, 0, 78, 0
2, 25824, Note_on_c, 0, 73, 92
2, 25824, Note_on_c, 0, 76, 92
2, 25872, Note_on_c, 0, 73, 0
2, 25872, Note_on_c, 0, 76, 0
2, 25872, Note_on_c, 0, 74, 92
2, 25920, Note_on_c, 0, 74, 0
2, 25920, Note_on_c, 0, 76, 92
2, 25968, Note_on_c, 0, 76, 0
2, 25968, Note_on_c, 0, 78, 92
2, 26014, Note_on_c, 0, 78, 0
2, 26016, Note_on_c, 0, 73, 92
2, 26016, Note_on_c, 0, 76, 92
2, 26048, Note_on_c, 0, 73, 0
2, 26048, Note_on_c, 0, 76, 0
2, 26112, Note_on_c, 0, 69, 92
2, 26144, Note_on_c, 0, 69, 0
2, 26208, Note_on_c, 0, 69, 92
2, 26208, Note_on_c, 0, 74, 92
2, 26240, Note_on_c, 0, 69, 0
2, 26240, Note_on_c, 0, 74, 0
2, 26304, Note_on_c, 0, 69, 92
2, 26304, Note_on_c, 0, 74, 92
2, 26400, Note_on_c, 0, 69, 0
2, 26400, Note_on_c, 0, 74, 0
2, 26400, Note_on_c, 0, 73, 92
2, 26400, Note_on_c, 0, 76, 92
2, 26496, Note_on_c, 0, 73, 0
2, 26496, Note_on_c, 0, 76, 0
2, 26496, Note_on_c, 0, 74, 92
2, 26496, Note_on_c, 0, 78, 92
2, 26590, Note_on_c, 0, 74, 0
2, 26590, Note_on_c, 0, 78, 0
2, 26592, Note_on_c, 0, 78, 92
2, 26592, Note_on_c, 0, 81, 92
2, 26688, Note_on_c, 0, 78, 0
2, 26688, Note_on_c, 0, 81, 0
2, 26688, Note_on_c, 0, 76, 92
2, 26688, Note_on_c, 0, 79, 92
2, 26782, Note_on_c, 0, 76, 0
2, 26782, Note_on_c, 0, 79, 0
2, 26784, Note_on_c, 0, 74, 92
2, 26784, Note_on_c, 0, 78, 92
2, 26816, Note_on_c, 0, 74, 0
2, 26816, Note_on_c, 0, 78, 0
2, 26880, Note_on_c, 0, 73, 92
2, 26880, Note_on_c, 0, 76, 92
2, 26912, Note_on_c, 0, 73, 0
2, 26912, Note_on_c, 0, 76, 0
2, 26976, Note_on_c, 0, 79, 92
2, 26976, Note_on_c, 0, 83, 92
2, 27072, Note_on_c, 0, 79, 0
2, 27072, Note_on_c, 0, 83, 0
2, 27072, Note_on_c, 0, 78, 92
2, 27072, Note_on_c, 0, 81, 92
2, 27166, Note_on_c, 0, 78, 0
2, 27166, Note_on_c, 0, 81, 0
2, 27168, Note_on_c, 0, 76, 92
2, 27168, Note_on_c, 0, 79, 92
2, 27200, Note_on_c, 0, 76, 0
2, 27200, Note_on_c, 0, 79, 0
2, 27264, Note_on_c, 0, 73, 92
2, 27264, Note_on_c, 0, 76, 92
2, 27296, Note_on_c, 0, 73, 0
2, 27296, Note_on_c, 0, 76, 0
2, 27360, Note_on_c, 0, 74, 92
2, 27520, Note_on_c, 0, 74, 0
2, 27648, Note_on_c, 0, 69, 92
2, 27742, Note_on_c, 0, 69, 0
2, 27744, Note_on_c, 0, 73, 92
2, 27744, Note_on_c, 0, 76, 92
2, 27776, Note_on_c, 0, 73, 0
2, 27776, Note_on_c, 0, 76, 0
2, 27840, Note_on_c, 0, 73, 92
2, 27840, Note_on_c, 0, 76, 92
2, 27936, Note_on_c, 0, 73, 0
2, 27936, Note_on_c, 0, 76, 0
2, 27936, Note_on_c, 0, 74, 92
2, 27936, Note_on_c, 0, 78, 92
2, 28032, Note_on_c, 0, 74, 0
2, 28032, Note_on_c, 0, 78, 0
2, 28032, Note_on_c, 0, 76, 92
2, 28032, Note_on_c, 0, 79, 92
2, 28126, Note_on_c, 0, 76, 0
2, 28126, Note_on_c, 0, 79, 0
2, 28128, Note_on_c, 0, 79, 92
2, 28128, Note_on_c, 0, 83, 92
2, 28224, Note_on_c, 0, 79, 0
2, 28224, Note_on_c, 0, 83, 0
2, 28224, Note_on_c, 0, 78, 92
2, 28224, Note_on_c, 0, 81, 92
2, 28318, Note_on_c, 0, 78, 0
2, 28318, Note_on_c, 0, 81, 0
2, 28320, Note_on_c, 0, 76, 92
2, 28320, Note_on_c, 0, 79, 92
2, 28352, Note_on_c, 0, 76, 0
2, 28352, Note_on_c, 0, 79, 0
2, 28416, Note_on_c, 0, 74, 92
2, 28416, Note_on_c, 0, 78, 92
2, 28448, Note_on_c, 0, 74, 0
2, 28448, Note_on_c, 0, 78, 0
2, 28512, Note_on_c, 0, 73, 92
2, 28512, Note_on_c, 0, 76, 92
2, 28544, Note_on_c, 0, 73, 0
2, 28544, Note_on_c, 0, 76, 0
2, 28608, Note_on_c, 0, 73, 92
2, 28608, Note_on_c, 0, 76, 92
2, 28704, Note_on_c, 0, 73, 0
2, 28704, Note_on_c, 0, 76, 0
2, 28704, Note_on_c, 0, 74, 92
2, 28704, Note_on_c, 0, 78, 92
2, 28800, Note_on_c, 0, 74, 0
2, 28800, Note_on_c, 0, 78, 0
2, 28800, Note_on_c, 0, 76, 92
2, 28800, Note_on_c, 0, 79, 92
2, 28894, Note_on_c, 0, 76, 0
2, 28894, Note_on_c, 0, 79, 0
2, 28896, Note_on_c, 0, 78, 92
2, 28896, Note_on_c, 0, 81, 92
2, 29040, Note_on_c, 0, 78, 0
2, 29040, Note_on_c, 0, 81, 0
2, 29040, Note_on_c, 0, 83, 92
2, 29064, Note_on_c, 0, 83, 0
2, 29064, Note_on_c, 0, 85, 92
2, 29086, Note_on_c, 0, 85, 0
2, 29088, Note_on_c, 0, 86, 92
2, 29120, Note_on_c, 0, 86, 0
2, 29184, Note_on_c, 0, 69, 92
2, 29216, Note_on_c, 0, 69, 0
2, 29280, Note_on_c, 0, 66, 92
2, 29280, Note_on_c, 0, 74, 92
2, 29312, Note_on_c, 0, 66, 0
2, 29312, Note_on_c, 0, 74, 0
2, 29376, Note_on_c, 0, 66, 92
2, 29376, Note_on_c, 0, 74, 92
2, 29472, Note_on_c, 0, 66, 0
2, 29472, Note_on_c, 0, 74, 0
2, 29472, Note_on_c, 0, 73, 92
2, 29472, Note_on_c, 0, 76, 92
2, 29568, Note_on_c, 0, 73, 0
2, 29568, Note_on_c, 0, 76, 0
2, 29568, Note_on_c, 0, 74, 92
2, 29568, Note_on_c, 0, 78, 92
2, 29662, Note_on_c, 0, 74, 0
2, 29662, Note_on_c, 0, 78, 0
2, 29664, Note_on_c, 0, 78, 92
2, 29664, Note_on_c, 0, 81, 92
2, 29760, Note_on_c, 0, 78, 0
2, 29760, Note_on_c, 0, 81, 0
2, 29760, Note_on_c, 0, 76, 92
2, 29760, Note_on_c, 0, 79, 92
2, 29854, Note_on_c, 0, 76, 0
2, 29854, Note_on_c, 0, 79, 0
2, 29856, Note_on_c, 0, 74, 92
2, 29856, Note_on_c, 0, 78, 92
2, 29888, Note_on_c, 0, 74, 0
2, 29888, Note_on_c, 0, 78, 0
2, 29952, Note_on_c, 0, 73, 92
2, 29952, Note_on_c, 0, 76, 92
2, 29984, Note_on_c, 0, 73, 0
2, 29984, Note_on_c, 0, 76, 0
2, 30048, Note_on_c, 0, 74, 92
2, 30048, Note_on_c, 0, 83, 92
2, 30144, Note_on_c, 0, 74, 0
2, 30144, Note_on_c, 0, 83, 0
2, 30144, Note_on_c, 0, 78, 92
2, 30144, Note_on_c, 0, 81, 92
2, 30238, Note_on_c, 0, 78, 0
2, 30238, Note_on_c, 0, 81, 0
2, 30240, Note_on_c, 0, 76, 92
2, 30240, Note_on_c, 0, 79, 92
2, 30272, Note_on_c, 0, 76, 0
2, 30272, Note_on_c, 0, 79, 0
2, 30336, Note_on_c, 0, 73, 92
2, 30336, Note_on_c, 0, 76, 92
2, 30368, Note_on_c, 0, 73, 0
2, 30368, Note_on_c, 0, 76, 0
2, 30432, Note_on_c, 0, 74, 92
2, 30592, Note_on_c, 0, 74, 0
2, 30720, Note_on_c, 0, 78, 60
2, 30814, Note_on_c, 0, 78, 0
2, 30816, Note_on_c, 0, 71, 60
2, 30912, Note_on_c, 0, 71, 0
2, 30912, Note_on_c, 0, 74, 60
2, 31008, Note_on_c, 0, 74, 0
2, 31008, Note_on_c, 0, 78, 60
2, 31104, Note_on_c, 0, 78, 0
2, 31104, Note_on_c, 0, 83, 60
2, 31198, Note_on_c, 0, 83, 0
2, 31200, Note_on_c, 0, 82, 60
2, 31296, Note_on_c, 0, 82, 0
2, 31296, Note_on_c, 0, 85, 60
2, 31392, Note_on_c, 0, 85, 0
2, 31392, Note_on_c, 0, 78, 60
2, 31488, Note_on_c, 0, 78, 0
2, 31488, Note_on_c, 0, 82, 60
2, 31582, Note_on_c, 0, 82, 0
2, 31584, Note_on_c, 0, 83, 60
2, 31680, Note_on_c, 0, 83, 0
2, 31680, Note_on_c, 0, 74, 60
2, 31776, Note_on_c, 0, 74, 0
2, 31776, Note_on_c, 0, 78, 60
2, 31872, Note_on_c, 0, 78, 0
2, 31872, Note_on_c, 0, 71, 60
2, 31966, Note_on_c, 0, 71, 0
2, 31968, Note_on_c, 0, 72, 60
2, 32064, Note_on_c, 0, 72, 0
2, 32064, Note_on_c, 0, 73, 60
2, 32160, Note_on_c, 0, 73, 0
2, 32160, Note_on_c, 0, 66, 60
2, 32254, Note_on_c, 0, 66, 0
2, 32256, Note_on_c, 0, 78, 60
2, 32288, Note_on_c, 0, 78, 0
2, 32352, Note_on_c, 0, 71, 60
2, 32448, Note_on_c, 0, 71, 0
2, 32448, Note_on_c, 0, 74, 60
2, 32544, Note_on_c, 0, 74, 0
2, 32544, Note_on_c, 0, 78, 60
2, 32640, Note_on_c, 0, 78, 0
2, 32640, Note_on_c, 0, 83, 60
2, 32734, Note_on_c, 0, 83, 0
2, 32736, Note_on_c, 0, 82, 60
2, 32832, Note_on_c, 0, 82, 0
2, 32832, Note_on_c, 0, 85, 60
2, 32928, Note_on_c, 0, 85, 0
2, 32928, Note_on_c, 0, 78, 60
2, 33024, Note_on_c, 0, 78, 0
2, 33024, Note_on_c, 0, 82, 60
2, 33118, Note_on_c, 0, 82, 0
2, 33120, Note_on_c, 0, 83, 60
2, 33216, Note_on_c, 0, 83, 0
2, 33216, Note_on_c, 0, 74, 60
2, 33312, Note_on_c, 0, 74, 0
2, 33312, Note_on_c, 0, 78, 60
2, 33408, Note_on_c, 0, 78, 0
2, 33408, Note_on_c, 0, 66, 60
2, 33502, Note_on_c, 0, 66, 0
2, 33504, Note_on_c, 0, 71, 60
2, 33664, Note_on_c, 0, 71, 0
2, 33792, Note_on_c, 0, 78, 60
2, 33886, Note_on_c, 0, 78, 0
2, 33888, Note_on_c, 0, 71, 60
2, 33984, Note_on_c, 0, 71, 0
2, 33984, Note_on_c, 0, 74, 60
2, 34080, Note_on_c, 0, 74, 0
2, 34080, Note_on_c, 0, 78, 60
2, 34176, Note_on_c, 0, 78, 0
2, 34176, Note_on_c, 0, 83, 60
2, 34270, Note_on_c, 0, 83, 0
2, 34272, Note_on_c, 0, 82, 60
2, 34368, Note_on_c, 0, 82, 0
2, 34368, Note_on_c, 0, 85, 60
2, 34464, Note_on_c, 0, 85, 0
2, 34464, Note_on_c, 0, 78, 60
2, 34560, Note_on_c, 0, 78, 0
2, 34560, Note_on_c, 0, 82, 60
2, 34654, Note_on_c, 0, 82, 0
2, 34656, Note_on_c, 0, 83, 60
2, 34752, Note_on_c, 0, 83, 0
2, 34752, Note_on_c, 0, 74, 60
2, 34848, Note_on_c, 0, 74, 0
2, 34848, Note_on_c, 0, 78, 60
2, 34944, Note_on_c, 0, 78, 0
2, 34944, Note_on_c, 0, 71, 60
2, 35038, Note_on_c, 0, 71, 0
2, 35040, Note_on_c, 0, 72, 60
2, 35136, Note_on_c, 0, 72, 0
2, 35136, Note_on_c, 0, 73, 60
2, 35232, Note_on_c, 0, 73, 0
2, 35232, Note_on_c, 0, 66, 60
2, 35326, Note_on_c, 0, 66, 0
2, 35328, Note_on_c, 0, 78, 60
2, 35360, Note_on_c, 0, 78, 0
2, 35424, Note_on_c, 0, 71, 60
2, 35520, Note_on_c, 0, 71, 0
2, 35520, Note_on_c, 0, 74, 60
2, 35616, Note_on_c, 0, 74, 0
2, 35616, Note_on_c, 0, 78, 60
2, 35712, Note_on_c, 0, 78, 0
2, 35712, Note_on_c, 0, 83, 60
2, 35806, Note_on_c, 0, 83, 0
2, 35808, Note_on_c, 0, 82, 60
2, 35904, Note_on_c, 0, 82, 0
2, 35904, Note_on_c, 0, 85, 60
2, 36000, Note_on_c, 0, 85, 0
2, 36000, Note_on_c, 0, 78, 60
2, 36096, Note_on_c, 0, 78, 0
2, 36096, Note_on_c, 0, 82, 60
2, 36190, Note_on_c, 0, 82, 0
2, 36192, Note_on_c, 0, 83, 60
2, 36288, Note_on_c, 0, 83, 0
2, 36288, Note_on_c, 0, 74, 60
2, 36384, Note_on_c, 0, 74, 0
2, 36384, Note_on_c, 0, 78, 60
2, 36480, Note_on_c, 0, 78, 0
2, 36480, Note_on_c, 0, 66, 60
2, 36574, Note_on_c, 0, 66, 0
2, 36576, Note_on_c, 0, 71, 60
2, 36736, Note_on_c, 0, 71, 0
2, 36864, Note_on_c, 0, 73, 92
2, 36958, Note_on_c, 0, 73, 0
2, 36960, Note_on_c, 0, 78, 92
2, 37056, Note_on_c, 0, 78, 0
2, 37056, Note_on_c, 0, 73, 92
2, 37150, Note_on_c, 0, 73, 0
2, 37152, Note_on_c, 0, 73, 92
2, 37184, Note_on_c, 0, 73, 0
2, 37248, Note_on_c, 0, 73, 92
2, 37280, Note_on_c, 0, 73, 0
2, 37344, Note_on_c, 0, 74, 92
2, 37440, Note_on_c, 0, 74, 0
2, 37440, Note_on_c, 0, 73, 92
2, 37534, Note_on_c, 0, 73, 0
2, 37536, Note_on_c, 0, 73, 92
2, 37568, Note_on_c, 0, 73, 0
2, 37632, Note_on_c, 0, 78, 92
2, 37664, Note_on_c, 0, 78, 0
2, 37728, Note_on_c, 0, 85, 92
2, 37824, Note_on_c, 0, 85, 0
2, 37824, Note_on_c, 0, 78, 92
2, 37918, Note_on_c, 0, 78, 0
2, 37920, Note_on_c, 0, 78, 92
2, 37952, Note_on_c, 0, 78, 0
2, 38016, Note_on_c, 0, 78, 92
2, 38048, Note_on_c, 0, 78, 0
2, 38112, Note_on_c, 0, 76, 92
2, 38208, Note_on_c, 0, 76, 0
2, 38208, Note_on_c, 0, 78, 92
2, 38302, Note_on_c, 0, 78, 0
2, 38304, Note_on_c, 0, 78, 92
2, 38336, Note_on_c, 0, 78, 0
2, 38400, Note_on_c, 0, 78, 60
2, 38432, Note_on_c, 0, 78, 0
2, 38496, Note_on_c, 0, 71, 60
2, 38592, Note_on_c, 0, 71, 0
2, 38592, Note_on_c, 0, 74, 60
2, 38688, Note_on_c, 0, 74, 0
2, 38688, Note_on_c, 0, 78, 60
2, 38784, Note_on_c, 0, 78, 0
2, 38784, Note_on_c, 0, 83, 60
2, 38878, Note_on_c, 0, 83, 0
2, 38880, Note_on_c, 0, 82, 60
2, 38976, Note_on_c, 0, 82, 0
2, 38976, Note_on_c, 0, 85, 60
2, 39072, Note_on_c, 0, 85, 0
2, 39072, Note_on_c, 0, 78, 60
2, 39168, Note_on_c, 0, 78, 0
2, 39168, Note_on_c, 0, 82, 60
2, 39262, Note_on_c, 0, 82, 0
2, 39264, Note_on_c, 0, 83, 60
2, 39360, Note_on_c, 0, 83, 0
2, 39360, Note_on_c, 0, 74, 60
2, 39456, Note_on_c, 0, 74, 0
2, 39456, Note_on_c, 0, 78, 60
2, 39552, Note_on_c, 0, 78, 0
2, 39552, Note_on_c, 0, 66, 60
2, 39646, Note_on_c, 0, 66, 0
2, 39648, Note_on_c, 0, 71, 60
2, 39808, Note_on_c, 0, 71, 0
2, 39936, Note_on_c, 0, 73, 92
2, 40030, Note_on_c, 0, 73, 0
2, 40032, Note_on_c, 0, 78, 92
2, 40128, Note_on_c, 0, 78, 0
2, 40128, Note_on_c, 0, 73, 92
2, 40222, Note_on_c, 0, 73, 0
2, 40224, Note_on_c, 0, 73, 92
2, 40256, Note_on_c, 0, 73, 0
2, 40320, Note_on_c, 0, 73, 92
2, 40352, Note_on_c, 0, 73, 0
2, 40416, Note_on_c, 0, 74, 92
2, 40512, Note_on_c, 0, 74, 0
2, 40512, Note_on_c, 0, 73, 92
2, 40606, Note_on_c, 0, 73, 0
2, 40608, Note_on_c, 0, 73, 92
2, 40640, Note_on_c, 0, 73, 0
2, 40704, Note_on_c, 0, 78, 92
2, 40736, Note_on_c, 0, 78, 0
2, 40800, Note_on_c, 0, 85, 92
2, 40896, Note_on_c, 0, 85, 0
2, 40896, Note_on_c, 0, 78, 92
2, 40990, Note_on_c, 0, 78, 0
2, 40992, Note_on_c, 0, 78, 92
2, 41024, Note_on_c, 0, 78, 0
2, 41088, Note_on_c, 0, 78, 92
2, 41120, Note_on_c, 0, 78, 0
2, 41184, Note_on_c, 0, 76, 92
2, 41280, Note_on_c, 0, 76, 0
2, 41280, Note_on_c, 0, 78, 92
2, 41374, Note_on_c, 0, 78, 0
2, 41376, Note_on_c, 0, 78, 92
2, 41408, Note_on_c, 0, 78, 0
2, 41472, Note_on_c, 0, 78, 60
2, 41504, Note_on_c, 0, 78, 0
2, 41568, Note_on_c, 0, 71, 60
2, 41664, Note_on_c, 0, 71, 0
2, 41664, Note_on_c, 0, 74, 60
2, 41760, Note_on_c, 0, 74, 0
2, 41760, Note_on_c, 0, 78, 60
2, 41856, Note_on_c, 0, 78, 0
2, 41856, Note_on_c, 0, 83, 60
2, 41950, Note_on_c, 0, 83, 0
2, 41952, Note_on_c, 0, 82, 60
2, 42048, Note_on_c, 0, 82, 0
2, 42048, Note_on_c, 0, 85, 60
2, 42144, Note_on_c, 0, 85, 0
2, 42144, Note_on_c, 0, 78, 60
2, 42240, Note_on_c, 0, 78, 0
2, 42240, Note_on_c, 0, 82, 60
2, 42334, Note_on_c, 0, 82, 0
2, 42336, Note_on_c, 0, 83, 60
2, 42432, Note_on_c, 0, 83, 0
2, 42432, Note_on_c, 0, 74, 60
2, 42528, Note_on_c, 0, 74, 0
2, 42528, Note_on_c, 0, 78, 60
2, 42624, Note_on_c, 0, 78, 0
2, 42624, Note_on_c, 0, 66, 60
2, 42718, Note_on_c, 0, 66, 0
2, 42720, Note_on_c, 0, 71, 60
2, 42880, Note_on_c, 0, 71, 0
2, 43008, Note_on_c, 0, 69, 60
2, 43102, Note_on_c, 0, 69, 0
2, 43104, Note_on_c, 0, 66, 60
2, 43104, Note_on_c, 0, 74, 60
2, 43136, Note_on_c, 0, 66, 0
2, 43136, Note_on_c, 0, 74, 0
2, 43200, Note_on_c, 0, 66, 60
2, 43200, Note_on_c, 0, 74, 60
2, 43296, Note_on_c, 0, 66, 0
2, 43296, Note_on_c, 0, 74, 0
2, 43296, Note_on_c, 0, 73, 60
2, 43296, Note_on_c, 0, 76, 60
2, 43392, Note_on_c, 0, 73, 0
2, 43392, Note_on_c, 0, 76, 0
2, 43392, Note_on_c, 0, 74, 60
2, 43392, Note_on_c, 0, 78, 60
2, 43486, Note_on_c, 0, 74, 0
2, 43486, Note_on_c, 0, 78, 0
2, 43488, Note_on_c, 0, 78, 60
2, 43488, Note_on_c, 0, 81, 60
2, 43584, Note_on_c, 0, 78, 0
2, 43584, Note_on_c, 0, 81, 0
2, 43584, Note_on_c, 0, 76, 60
2, 43584, Note_on_c, 0, 79, 60
2, 43678, Note_on_c, 0, 76, 0
2, 43678, Note_on_c, 0, 79, 0
2, 43680, Note_on_c, 0, 74, 60
2, 43680, Note_on_c, 0, 78, 60
2, 43712, Note_on_c, 0, 74, 0
2, 43712, Note_on_c, 0, 78, 0
2, 43776, Note_on_c, 0, 73, 60
2, 43776, Note_on_c, 0, 76, 60
2, 43808, Note_on_c, 0, 73, 0
2, 43808, Note_on_c, 0, 76, 0
2, 43872, Note_on_c, 0, 79, 60
2, 43872, Note_on_c, 0, 83, 60
2, 43968, Note_on_c, 0, 79, 0
2, 43968, Note_on_c, 0, 83, 0
2, 43968, Note_on_c, 0, 78, 60
2, 43968, Note_on_c, 0, 81, 60
2, 44062, Note_on_c, 0, 78, 0
2, 44062, Note_on_c, 0, 81, 0
2, 44064, Note_on_c, 0, 76, 60
2, 44064, Note_on_c, 0, 79, 60
2, 44096, Note_on_c, 0, 76, 0
2, 44096, Note_on_c, 0, 79, 0
2, 44160, Note_on_c, 0, 74, 60
2, 44160, Note_on_c, 0, 78, 60
2, 44192, Note_on_c, 0, 74, 0
2, 44192, Note_on_c, 0, 78, 0
2, 44256, Note_on_c, 0, 73, 60
2, 44256, Note_on_c, 0, 76, 60
2, 44304, Note_on_c, 0, 73, 0
2, 44304, Note_on_c, 0, 76, 0
2, 44304, Note_on_c, 0, 74, 60
2, 44352, Note_on_c, 0, 74, 0
2, 44352, Note_on_c, 0, 76, 60
2, 44400, Note_on_c, 0, 76, 0
2, 44400, Note_on_c, 0, 78, 60
2, 44446, Note_on_c, 0, 78, 0
2, 44448, Note_on_c, 0, 73, 60
2, 44448, Note_on_c, 0, 76, 60
2, 44480, Note_on_c, 0, 73, 0
2, 44480, Note_on_c, 0, 76, 0
2, 44544, Note_on_c, 0, 69, 60
2, 44576, Note_on_c, 0, 69, 0
2, 44640, Note_on_c, 0, 69, 60
2, 44640, Note_on_c, 0, 74, 60
2, 44672, Note_on_c, 0, 69, 0
2, 44672, Note_on_c, 0, 74, 0
2, 44736, Note_on_c, 0, 69, 60
2, 44736, Note_on_c, 0, 74, 60
2, 44832, Note_on_c, 0, 69, 0
2, 44832, Note_on_c, 0, 74, 0
2, 44832, Note_on_c, 0, 73, 60
2, 44832, Note_on_c, 0, 76, 60
2, 44928, Note_on_c, 0, 73, 0
2, 44928, Note_on_c, 0, 76, 0
2, 44928, Note_on_c, 0, 74, 60
2, 44928, Note_on_c, 0, 78, 60
2, 45022, Note_on_c, 0, 74, 0
2, 45022, Note_on_c, 0, 78, 0
2, 45024, Note_on_c, 0, 78, 60
2, 45024, Note_on_c, 0, 81, 60
2, 45120, Note_on_c, 0, 78, 0
2, 45120, Note_on_c, 0, 81, 0
2, 45120, Note_on_c, 0, 76, 60
2, 45120, Note_on_c, 0, 79, 60
2, 45214, Note_on_c, 0, 76, 0
2, 45214, Note_on_c, 0, 79, 0
2, 45216, Note_on_c, 0, 74, 60
2, 45216, Note_on_c, 0, 78, 60
2, 45248, Note_on_c, 0, 74, 0
2, 45248, Note_on_c, 0, 78, 0
2, 45312, Note_on_c, 0, 73, 60
2, 45312, Note_on_c, 0, 76, 60
2, 45344, Note_on_c, 0, 73, 0
2, 45344, Note_on_c, 0, 76, 0
2, 45408, Note_on_c, 0, 79, 60
2, 45408, Note_on_c, 0, 83, 60
2, 45504, Note_on_c, 0, 79, 0
2, 45504, Note_on_c, 0, 83, 0
2, 45504, Note_on_c, 0, 78, 60
2, 45504, Note_on_c, 0, 81, 60
2, 45598, Note_on_c, 0, 78, 0
2, 45598, Note_on_c, 0, 81, 0
2, 45600, Note_on_c, 0, 76, 60
2, 45600, Note_on_c, 0, 79, 60
2, 45632, Note_on_c, 0, 76, 0
2, 45632, Note_on_c, 0, 79, 0
2, 45696, Note_on_c, 0, 73, 60
2, 45696, Note_on_c, 0, 76, 60
2, 45728, Note_on_c, 0, 73, 0
2, 45728, Note_on_c, 0, 76, 0
2, 45792, Note_on_c, 0, 74, 60
2, 45952, Note_on_c, 0, 74, 0
2, 46080, Note_on_c, 0, 69, 60
2, 46174, Note_on_c, 0, 69, 0
2, 46176, Note_on_c, 0, 66, 60
2, 46176, Note_on_c, 0, 74, 60
2, 46208, Note_on_c, 0, 66, 0
2, 46208, Note_on_c, 0, 74, 0
2, 46272, Note_on_c, 0, 66, 60
2, 46272, Note_on_c, 0, 74, 60
2, 46368, Note_on_c, 0, 66, 0
2, 46368, Note_on_c, 0, 74, 0
2, 46368, Note_on_c, 0, 73, 60
2, 46368, Note_on_c, 0, 76, 60
2, 46464, Note_on_c, 0, 73, 0
2, 46464, Note_on_c, 0, 76, 0
2, 46464, Note_on_c, 0, 74, 60
2, 46464, Note_on_c, 0, 78, 60
2, 46558, Note_on_c, 0, 74, 0
2, 46558, Note_on_c, 0, 78, 0
2, 46560, Note_on_c, 0, 78, 60
2, 46560, Note_on_c, 0, 81, 60
2, 46656, Note_on_c, 0, 78, 0
2, 46656, Note_on_c, 0, 81, 0
2, 46656, Note_on_c, 0, 76, 60
2, 46656, Note_on_c, 0, 79, 60
2, 46750, Note_on_c, 0, 76, 0
2, 46750, Note_on_c, 0, 79, 0
2, 46752, Note_on_c, 0, 74, 60
2, 46752, Note_on_c, 0, 78, 60
2, 46784, Note_on_c, 0, 74, 0
2, 46784, Note_on_c, 0, 78, 0
2, 46848, Note_on_c, 0, 73, 60
2, 46848, Note_on_c, 0, 76, 60
2, 46880, Note_on_c, 0, 73, 0
2, 46880, Note_on_c, 0, 76, 0
2, 46944, Note_on_c, 0, 79, 60
2, 46944, Note_on_c, 0, 83, 60
2, 47040, Note_on_c, 0, 79, 0
2, 47040, Note_on_c, 0, 83, 0
2, 47040, Note_on_c, 0, 78, 60
2, 47040, Note_on_c, 0, 81, 60
2, 47134, Note_on_c, 0, 78, 0
2, 47134, Note_on_c, 0, 81, 0
2, 47136, Note_on_c, 0, 76, 60
2, 47136, Note_on_c, 0, 79, 60
2, 47168, Note_on_c, 0, 76, 0
2, 47168, Note_on_c, 0, 79, 0
2, 47232, Note_on_c, 0, 74, 60
2, 47232, Note_on_c, 0, 78, 60
2, 47264, Note_on_c, 0, 74, 0
2, 47264, Note_on_c, 0, 78, 0
2, 47328, Note_on_c, 0, 73, 60
2, 47328, Note_on_c, 0, 76, 60
2, 47376, Note_on_c, 0, 73, 0
2, 47376, Note_on_c, 0, 76, 0
2, 47376, Note_on_c, 0, 74, 60
2, 47424, Note_on_c, 0, 74, 0
2, 47424, Note_on_c, 0, 76, 60
2, 47472, Note_on_c, 0, 76, 0
2, 47472, Note_on_c, 0, 78, 60
2, 47518, Note_on_c, 0, 78, 0
2, 47520, Note_on_c, 0, 73, 60
2, 47520, Note_on_c, 0, 76, 60
2, 47552, Note_on_c, 0, 73, 0
2, 47552, Note_on_c, 0, 76, 0
2, 47616, Note_on_c, 0, 69, 60
2, 47648, Note_on_c, 0, 69, 0
2, 47712, Note_on_c, 0, 69, 60
2, 47712, Note_on_c, 0, 74, 60
2, 47744, Note_on_c, 0, 69, 0
2, 47744, Note_on_c, 0, 74, 0
2, 47808, Note_on_c, 0, 69, 60
2, 47808, Note_on_c, 0, 74, 60
2, 47904, Note_on_c, 0, 69, 0
2, 47904, Note_on_c, 0, 74, 0
2, 47904, Note_on_c, 0, 73, 60
2, 47904, Note_on_c, 0, 76, 60
2, 48000, Note_on_c, 0, 73, 0
2, 48000, Note_on_c, 0, 76, 0
2, 48000, Note_on_c, 0, 74, 60
2, 48000, Note_on_c, 0, 78, 60
2, 48094, Note_on_c, 0, 74, 0
2, 48094, Note_on_c, 0, 78, 0
2, 48096, Note_on_c, 0, 78, 60
2, 48096, Note_on_c, 0, 81, 60
2, 48192, Note_on_c, 0, 78, 0
2, 48192, Note_on_c, 0, 81, 0
2, 48192, Note_on_c, 0, 76, 60
2, 48192, Note_on_c, 0, 79, 60
2, 48286, Note_on_c, 0, 76, 0
2, 48286, Note_on_c, 0, 79, 0
2, 48288, Note_on_c, 0, 74, 60
2, 48288, Note_on_c, 0, 78, 60
2, 48320, Note_on_c, 0, 74, 0
2, 48320, Note_on_c, 0, 78, 0
2, 48384, Note_on_c, 0, 73, 60
2, 48384, Note_on_c, 0, 76, 60
2, 48416, Note_on_c, 0, 73, 0
2, 48416, Note_on_c, 0, 76, 0
2, 48480, Note_on_c, 0, 79, 60
2, 48480, Note_on_c, 0, 83, 60
2, 48576, Note_on_c, 0, 79, 0
2, 48576, Note_on_c, 0, 83, 0
2, 48576, Note_on_c, 0, 78, 60
2, 48576, Note_on_c, 0, 81, 60
2, 48670, Note_on_c, 0, 78, 0
2, 48670, Note_on_c, 0, 81, 0
2, 48672, Note_on_c, 0, 76, 60
2, 48672, Note_on_c, 0, 79, 60
2, 48704, Note_on_c, 0, 76, 0
2, 48704, Note_on_c, 0, 79, 0
2, 48768, Note_on_c, 0, 73, 60
2, 48768, Note_on_c, 0, 76, 60
2, 48800, Note_on_c, 0, 73, 0
2, 48800, Note_on_c, 0, 76, 0
2, 48864, Note_on_c, 0, 74, 60
2, 49024, Note_on_c, 0, 74, 0
2, 49152, Note_on_c, 0, 69, 92
2, 49246, Note_on_c, 0, 69, 0
2, 49248, Note_on_c, 0, 73, 45
2, 49248, Note_on_c, 0, 76, 45
2, 49280, Note_on_c, 0, 73, 0
2, 49280, Note_on_c, 0, 76, 0
2, 49344, Note_on_c, 0, 73, 45
2, 49344, Note_on_c, 0, 76, 45
2, 49440, Note_on_c, 0, 73, 0
2, 49440, Note_on_c, 0, 76, 0
2, 49440, Note_on_c, 0, 74, 45
2, 49440, Note_on_c, 0, 78, 45
2, 49536, Note_on_c, 0, 74, 0
2, 49536, Note_on_c, 0, 78, 0
2, 49536, Note_on_c, 0, 76, 45
2, 49536, Note_on_c, 0, 79, 45
2, 49630, Note_on_c, 0, 76, 0
2, 49630, Note_on_c, 0, 79, 0
2, 49632, Note_on_c, 0, 79, 45
2, 49632, Note_on_c, 0, 83, 45
2, 49728, Note_on_c, 0, 79, 0
2, 49728, Note_on_c, 0, 83, 0
2, 49728, Note_on_c, 0, 78, 45
2, 49728, Note_on_c, 0, 81, 45
2, 49822, Note_on_c, 0, 78, 0
2, 49822, Note_on_c, 0, 81, 0
2, 49824, Note_on_c, 0, 76, 45
2, 49824, Note_on_c, 0, 79, 45
2, 49856, Note_on_c, 0, 76, 0
2, 49856, Note_on_c, 0, 79, 0
2, 49920, Note_on_c, 0, 74, 45
2, 49920, Note_on_c, 0, 78, 45
2, 49952, Note_on_c, 0, 74, 0
2, 49952, Note_on_c, 0, 78, 0
2, 50016, Note_on_c, 0, 73, 45
2, 50016, Note_on_c, 0, 76, 45
2, 50048, Note_on_c, 0, 73, 0
2, 50048, Note_on_c, 0, 76, 0
2, 50112, Note_on_c, 0, 73, 45
2, 50112, Note_on_c, 0, 76, 45
2, 50208, Note_on_c, 0, 73, 0
2, 50208, Note_on_c, 0, 76, 0
2, 50208, Note_on_c, 0, 74, 45
2, 50208, Note_on_c, 0, 78, 45
2, 50304, Note_on_c, 0, 74, 0
2, 50304, Note_on_c, 0, 78, 0
2, 50304, Note_on_c, 0, 76, 45
2, 50304, Note_on_c, 0, 79, 45
2, 50398, Note_on_c, 0, 76, 0
2, 50398, Note_on_c, 0, 79, 0
2, 50400, Note_on_c, 0, 78, 45
2, 50400, Note_on_c, 0, 81, 45
2, 50544, Note_on_c, 0, 78, 0
2, 50544, Note_on_c, 0, 81, 0
2, 50544, Note_on_c, 0, 83, 45
2, 50568, Note_on_c, 0, 83, 0
2, 50568, Note_on_c, 0, 85, 45
2, 50592, Note_on_c, 0, 85, 0
2, 50592, Note_on_c, 0, 86, 45
2, 50686, Note_on_c, 0, 86, 0
2, 50688, Note_on_c, 0, 69, 92
2, 50720, Note_on_c, 0, 69, 0
2, 50784, Note_on_c, 0, 66, 92
2, 50784, Note_on_c, 0, 74, 92
2, 50816, Note_on_c, 0, 66, 0
2, 50816, Note_on_c, 0, 74, 0
2, 50880, Note_on_c, 0, 66, 92
2, 50880, Note_on_c, 0, 74, 92
2, 50976, Note_on_c, 0, 66, 0
2, 50976, Note_on_c, 0, 74, 0
2, 50976, Note_on_c, 0, 73, 92
2, 50976, Note_on_c, 0, 76, 92
2, 51072, Note_on_c, 0, 73, 0
2, 51072, Note_on_c, 0, 76, 0
2, 51072, Note_on_c, 0, 74, 92
2, 51072, Note_on_c, 0, 78, 92
2, 51166, Note_on_c, 0, 74, 0
2, 51166, Note_on_c, 0, 78, 0
2, 51168, Note_on_c, 0, 78, 92
2, 51168, Note_on_c, 0, 81, 92
2, 51264, Note_on_c, 0, 78, 0
2, 51264, Note_on_c, 0, 81, 0
2, 51264, Note_on_c, 0, 76, 92
2, 51264, Note_on_c, 0, 79, 92
2, 51358, Note_on_c, 0, 76, 0
2, 51358, Note_on_c, 0, 79, 0
2, 51360, Note_on_c, 0, 74, 92
2, 51360, Note_on_c, 0, 78, 92
2, 51392, Note_on_c, 0, 74, 0
2, 51392, Note_on_c, 0, 78, 0
2, 51456, Note_on_c, 0, 73, 92
2, 51456, Note_on_c, 0, 76, 92
2, 51488, Note_on_c, 0, 73, 0
2, 51488, Note_on_c, 0, 76, 0
2, 51552, Note_on_c, 0, 79, 92
2, 51552, Note_on_c, 0, 83, 92
2, 51648, Note_on_c, 0, 79, 0
2, 51648, Note_on_c, 0, 83, 0
2, 51648, Note_on_c, 0, 78, 92
2, 51648, Note_on_c, 0, 81, 92
2, 51742, Note_on_c, 0, 78, 0
2, 51742, Note_on_c, 0, 81, 0
2, 51744, Note_on_c, 0, 76, 92
2, 51744, Note_on_c, 0, 79, 92
2, 51776, Note_on_c, 0, 76, 0
2, 51776, Note_on_c, 0, 79, 0
2, 51840, Note_on_c, 0, 73, 92
2, 51840, Note_on_c, 0, 76, 92
2, 51872, Note_on_c, 0, 73, 0
2, 51872, Note_on_c, 0, 76, 0
2, 51936, Note_on_c, 0, 74, 92
2, 52096, Note_on_c, 0, 74, 0
2, 52224, Note_on_c, 0, 69, 92
2, 52318, Note_on_c, 0, 69, 0
2, 52320, Note_on_c, 0, 73, 45
2, 52320, Note_on_c, 0, 76, 45
2, 52352, Note_on_c, 0, 73, 0
2, 52352, Note_on_c, 0, 76, 0
2, 52416, Note_on_c, 0, 73, 45
2, 52416, Note_on_c, 0, 76, 45
2, 52512, Note_on_c, 0, 73, 0
2, 52512, Note_on_c, 0, 76, 0
2, 52512, Note_on_c, 0, 74, 45
2, 52512, Note_on_c, 0, 78, 45
2, 52608, Note_on_c, 0, 74, 0
2, 52608, Note_on_c, 0, 78, 0
2, 52608, Note_on_c, 0, 76, 45
2, 52608, Note_on_c, 0, 79, 45
2, 52702, Note_on_c, 0, 76, 0
2, 52702, Note_on_c, 0, 79, 0
2, 52704, Note_on_c, 0, 79, 45
2, 52704, Note_on_c, 0, 83, 45
2, 52800, Note_on_c, 0, 79, 0
2, 52800, Note_on_c, 0, 83, 0
2, 52800, Note_on_c, 0, 78, 45
2, 52800, Note_on_c, 0, 81, 45
2, 52894, Note_on_c, 0, 78, 0
2, 52894, Note_on_c, 0, 81, 0
2, 52896, Note_on_c, 0, 76, 45
2, 52896, Note_on_c, 0, 79, 45
2, 52928, Note_on_c, 0, 76, 0
2, 52928, Note_on_c, 0, 79, 0
2, 52992, Note_on_c, 0, 74, 45
2, 52992, Note_on_c, 0, 78, 45
2, 53024, Note_on_c, 0, 74, 0
2, 53024, Note_on_c, 0, 78, 0
2, 53088, Note_on_c, 0, 73, 45
2, 53088, Note_on_c, 0, 76, 45
2, 53120, Note_on_c, 0, 73, 0
2, 53120, Note_on_c, 0, 76, 0
2, 53184, Note_on_c, 0, 73, 45
2, 53184, Note_on_c, 0, 76, 45
2, 53280, Note_on_c, 0, 73, 0
2, 53280, Note_on_c, 0, 76, 0
2, 53280, Note_on_c, 0, 74, 45
2, 53280, Note_on_c, 0, 78, 45
2, 53376, Note_on_c, 0, 74, 0
2, 53376, Note_on_c, 0, 78, 0
2, 53376, Note_on_c, 0, 76, 45
2, 53376, Note_on_c, 0, 79, 45
2, 53470, Note_on_c, 0, 76, 0
2, 53470, Note_on_c, 0, 79, 0
2, 53472, Note_on_c, 0, 78, 45
2, 53472, Note_on_c, 0, 81, 45
2, 53616, Note_on_c, 0, 78, 0
2, 53616, Note_on_c, 0, 81, 0
2, 53616, Note_on_c, 0, 83, 45
2, 53640, Note_on_c, 0, 83, 0
2, 53640, Note_on_c, 0, 85, 45
2, 53664, Note_on_c, 0, 85, 0
2, 53664, Note_on_c, 0, 86, 45
2, 53758, Note_on_c, 0, 86, 0
2, 53760, Note_on_c, 0, 69, 92
2, 53792, Note_on_c, 0, 69, 0
2, 53856, Note_on_c, 0, 66, 92
2, 53856, Note_on_c, 0, 74, 92
2, 53888, Note_on_c, 0, 66, 0
2, 53888, Note_on_c, 0, 74, 0
2, 53952, Note_on_c, 0, 66, 92
2, 53952, Note_on_c, 0, 74, 92
2, 54048, Note_on_c, 0, 66, 0
2, 54048, Note_on_c, 0, 74, 0
2, 54048, Note_on_c, 0, 73, 92
2, 54048, Note_on_c, 0, 76, 92
2, 54144, Note_on_c, 0, 73, 0
2, 54144, Note_on_c, 0, 76, 0
2, 54144, Note_on_c, 0, 74, 92
2, 54144, Note_on_c, 0, 78, 92
2, 54238, Note_on_c, 0, 74, 0
2, 54238, Note_on_c, 0, 78, 0
2, 54240, Note_on_c, 0, 78, 92
2, 54240, Note_on_c, 0, 81, 92
2, 54336, Note_on_c, 0, 78, 0
2, 54336, Note_on_c, 0, 81, 0
2, 54336, Note_on_c, 0, 76, 92
2, 54336, Note_on_c, 0, 79, 92
2, 54430, Note_on_c, 0, 76, 0
2, 54430, Note_on_c, 0, 79, 0
2, 54432, Note_on_c, 0, 74, 92
2, 54432, Note_on_c, 0, 78, 92
2, 54464, Note_on_c, 0, 74, 0
2, 54464, Note_on_c, 0, 78, 0
2, 54528, Note_on_c, 0, 73, 92
2, 54528, Note_on_c, 0, 76, 92
2, 54560, Note_on_c, 0, 73, 0
2, 54560, Note_on_c, 0, 76, 0
2, 54624, Note_on_c, 0, 79, 92
2, 54624, Note_on_c, 0, 83, 92
2, 54720, Note_on_c, 0, 79, 0
2, 54720, Note_on_c, 0, 83, 0
2, 54720, Note_on_c, 0, 78, 92
2, 54720, Note_on_c, 0, 81, 92
2, 54814, Note_on_c, 0, 78, 0
2, 54814, Note_on_c, 0, 81, 0
2, 54816, Note_on_c, 0, 76, 92
2, 54816, Note_on_c, 0, 79, 92
2, 54848, Note_on_c, 0, 76, 0
2, 54848, Note_on_c, 0, 79, 0
2, 54912, Note_on_c, 0, 73, 92
2, 54912, Note_on_c, 0, 76, 92
2, 54944, Note_on_c, 0, 73, 0
2, 54944, Note_on_c, 0, 76, 0
2, 55008, Note_on_c, 0, 74, 92
2, 55168, Note_on_c, 0, 74, 0
2, 55296, Note_on_c, 0, 74, 92
2, 55328, Note_on_c, 0, 74, 0
2, 55392, Note_on_c, 0, 74, 92
2, 55488, Note_on_c, 0, 74, 0
2, 55488, Note_on_c, 0, 76, 92
2, 55536, Note_on_c, 0, 76, 0
2, 55536, Note_on_c, 0, 78, 92
2, 55584, Note_on_c, 0, 78, 0
2, 55584, Note_on_c, 0, 79, 92
2, 55632, Note_on_c, 0, 79, 0
2, 55632, Note_on_c, 0, 81, 92
2, 55680, Note_on_c, 0, 81, 0
2, 55680, Note_on_c, 0, 83, 92
2, 55728, Note_on_c, 0, 83, 0
2, 55728, Note_on_c, 0, 85, 92
2, 55774, Note_on_c, 0, 85, 0
2, 55776, Note_on_c, 0, 86, 92
2, 55808, Note_on_c, 0, 86, 0
2, 55872, Note_on_c, 0, 81, 92
2, 55904, Note_on_c, 0, 81, 0
2, 56064, Note_on_c, 0, 74, 45
2, 56096, Note_on_c, 0, 74, 0
2, 56160, Note_on_c, 0, 74, 45
2, 56256, Note_on_c, 0, 74, 0
2, 56256, Note_on_c, 0, 76, 45
2, 56304, Note_on_c, 0, 76, 0
2, 56304, Note_on_c, 0, 78, 45
2, 56352, Note_on_c, 0, 78, 0
2, 56352, Note_on_c, 0, 79, 45
2, 56400, Note_on_c, 0, 79, 0
2, 56400, Note_on_c, 0, 81, 45
2, 56448, Note_on_c, 0, 81, 0
2, 56448, Note_on_c, 0, 83, 45
2, 56496, Note_on_c, 0, 83, 0
2, 56496, Note_on_c, 0, 85, 45
2, 56542, Note_on_c, 0, 85, 0
2, 56544, Note_on_c, 0, 86, 45
2, 56576, Note_on_c, 0, 86, 0
2, 56592, Note_on_c, 0, 81, 47
2, 56640, Note_on_c, 0, 81, 0
2, 56640, Note_on_c, 0, 79, 50
2, 56688, Note_on_c, 0, 79, 0
2, 56688, Note_on_c, 0, 78, 53
2, 56734, Note_on_c, 0, 78, 0
2, 56736, Note_on_c, 0, 83, 56
2, 56768, Note_on_c, 0, 83, 0
2, 56784, Note_on_c, 0, 79, 59
2, 56832, Note_on_c, 0, 79, 0
2, 56832, Note_on_c, 0, 78, 62
2, 56880, Note_on_c, 0, 78, 0
2, 56880, Note_on_c, 0, 76, 65
2, 56926, Note_on_c, 0, 76, 0
2, 56928, Note_on_c, 0, 81, 68
2, 56960, Note_on_c, 0, 81, 0
2, 56976, Note_on_c, 0, 78, 71
2, 57024, Note_on_c, 0, 78, 0
2, 57024, Note_on_c, 0, 76, 74
2, 57072, Note_on_c, 0, 76, 0
2, 57072, Note_on_c, 0, 74, 77
2, 57118, Note_on_c, 0, 74, 0
2, 57120, Note_on_c, 0, 79, 80
2, 57152, Note_on_c, 0, 79, 0
2, 57168, Note_on_c, 0, 76, 83
2, 57216, Note_on_c, 0, 76, 0
2, 57216, Note_on_c, 0, 74, 86
2, 57264, Note_on_c, 0, 74, 0
2, 57264, Note_on_c, 0, 73, 89
2, 57310, Note_on_c, 0, 73, 0
2, 57312, Note_on_c, 0, 74, 92
2, 57360, Note_on_c, 0, 74, 0
2, 57600, Note_on_c, 0, 74, 92
2, 57632, Note_on_c, 0, 74, 0
2, 57696, Note_on_c, 0, 74, 92
2, 57792, Note_on_c, 0, 74, 0
2, 57792, Note_on_c, 0, 76, 92
2, 57840, Note_on_c, 0, 76, 0
2, 57840, Note_on_c, 0, 78, 92
2, 57888, Note_on_c, 0, 78, 0
2, 57888, Note_on_c, 0, 79, 92
2, 57936, Note_on_c, 0, 79, 0
2, 57936, Note_on_c, 0, 81, 92
2, 57984, Note_on_c, 0, 81, 0
2, 57984, Note_on_c, 0, 83, 92
2, 58032, Note_on_c, 0, 83, 0
2, 58032, Note_on_c, 0, 85, 92
2, 58078, Note_on_c, 0, 85, 0
2, 58080, Note_on_c, 0, 86, 92
2, 58112, Note_on_c, 0, 86, 0
2, 58176, Note_on_c, 0, 81, 92
2, 58208, Note_on_c, 0, 81, 0
2, 58368, Note_on_c, 0, 74, 92
2, 58400, Note_on_c, 0, 74, 0
2, 58464, Note_on_c, 0, 74, 45
2, 58560, Note_on_c, 0, 74, 0
2, 58560, Note_on_c, 0, 76, 45
2, 58608, Note_on_c, 0, 76, 0
2, 58608, Note_on_c, 0, 78, 45
2, 58656, Note_on_c, 0, 78, 0
2, 58656, Note_on_c, 0, 79, 45
2, 58704, Note_on_c, 0, 79, 0
2, 58704, Note_on_c, 0, 81, 45
2, 58752, Note_on_c, 0, 81, 0
2, 58752, Note_on_c, 0, 83, 45
2, 58800, Note_on_c, 0, 83, 0
2, 58800, Note_on_c, 0, 85, 45
2, 58846, Note_on_c, 0, 85, 0
2, 58848, Note_on_c, 0, 86, 45
2, 58880, Note_on_c, 0, 86, 0
2, 58896, Note_on_c, 0, 81, 47
2, 58944, Note_on_c, 0, 81, 0
2, 58944, Note_on_c, 0, 79, 50
2, 58992, Note_on_c, 0, 79, 0
2, 58992, Note_on_c, 0, 78, 53
2, 59038, Note_on_c, 0, 78, 0
2, 59040, Note_on_c, 0, 83, 56
2, 59072, Note_on_c, 0, 83, 0
2, 59088, Note_on_c, 0, 79, 59
2, 59136, Note_on_c, 0, 79, 0
2, 59136, Note_on_c, 0, 78, 62
2, 59184, Note_on_c, 0, 78, 0
2, 59184, Note_on_c, 0, 76, 65
2, 59230, Note_on_c, 0, 76, 0
2, 59232, Note_on_c, 0, 81, 68
2, 59264, Note_on_c, 0, 81, 0
2, 59280, Note_on_c, 0, 78, 71
2, 59328, Note_on_c, 0, 78, 0
2, 59328, Note_on_c, 0, 76, 74
2, 59376, Note_on_c, 0, 76, 0
2, 59376, Note_on_c, 0, 74, 77
2, 59422, Note_on_c, 0, 74, 0
2, 59424, Note_on_c, 0, 79, 80
2, 59456, Note_on_c, 0, 79, 0
2, 59472, Note_on_c, 0, 76, 83
2, 59520, Note_on_c, 0, 76, 0
2, 59520, Note_on_c, 0, 74, 86
2, 59568, Note_on_c, 0, 74, 0
2, 59568, Note_on_c, 0, 73, 89
2, 59614, Note_on_c, 0, 73, 0
2, 59616, Note_on_c, 0, 74, 92
2, 59648, Note_on_c, 0, 74, 0
2, 59712, Note_on_c, 0, 78, 92
2, 59744, Note_on_c, 0, 78, 0
2, 59808, Note_on_c, 0, 81, 92
2, 59840, Note_on_c, 0, 81, 0
2, 59904, Note_on_c, 0, 78, 92
2, 59936, Note_on_c, 0, 78, 0
2, 60000, Note_on_c, 0, 74, 92
2, 60032, Note_on_c, 0, 74, 0
2, 60096, Note_on_c, 0, 78, 92
2, 60128, Note_on_c, 0, 78, 0
2, 60192, Note_on_c, 0, 81, 92
2, 60224, Note_on_c, 0, 81, 0
2, 60288, Note_on_c, 0, 78, 92
2, 60320, Note_on_c, 0, 78, 0
2, 60384, Note_on_c, 0, 74, 92
2, 60544, Note_on_c, 0, 74, 0
2, 60576, Note_on_c, 0, 78, 92
2, 60576, Note_on_c, 0, 86, 92
2, 60736, Note_on_c, 0, 78, 0
2, 60736, Note_on_c, 0, 86, 0
2, 60768, Note_on_c, 0, 78, 92
2, 60768, Note_on_c, 0, 86, 92
2, 60928, Note_on_c, 0, 78, 0
2, 60928, Note_on_c, 0, 86, 0
2, 60928, End_track
3, 0, Start_track
3, 0, MIDI_port, 0
3, 0, Title_t, "Left Hand"
3, 0, Program_c, 1, 0
3, 0, Control_c, 1, 7, 127
3, 0, Control_c, 1, 10, 64
3, 96, Note_on_c, 1, 50, 92
3, 256, Note_on_c, 1, 50, 0
3, 384, Note_on_c, 1, 50, 92
3, 416, Note_on_c, 1, 50, 0
3, 480, Note_on_c, 1, 57, 92
3, 736, Note_on_c, 1, 57, 0
3, 768, Note_on_c, 1, 55, 92
3, 800, Note_on_c, 1, 55, 0
3, 864, Note_on_c, 1, 54, 92
3, 912, Note_on_c, 1, 54, 0
3, 1056, Note_on_c, 1, 55, 92
3, 1104, Note_on_c, 1, 55, 0
3, 1248, Note_on_c, 1, 57, 92
3, 1408, Note_on_c, 1, 57, 0
3, 1632, Note_on_c, 1, 54, 92
3, 1664, Note_on_c, 1, 54, 0
3, 1728, Note_on_c, 1, 54, 92
3, 1824, Note_on_c, 1, 54, 0
3, 1824, Note_on_c, 1, 52, 92
3, 1920, Note_on_c, 1, 52, 0
3, 1920, Note_on_c, 1, 50, 92
3, 2014, Note_on_c, 1, 50, 0
3, 2016, Note_on_c, 1, 57, 92
3, 2272, Note_on_c, 1, 57, 0
3, 2304, Note_on_c, 1, 55, 92
3, 2336, Note_on_c, 1, 55, 0
3, 2400, Note_on_c, 1, 54, 92
3, 2560, Note_on_c, 1, 54, 0
3, 2592, Note_on_c, 1, 55, 92
3, 2624, Note_on_c, 1, 55, 0
3, 2688, Note_on_c, 1, 57, 92
3, 2720, Note_on_c, 1, 57, 0
3, 2784, Note_on_c, 1, 62, 92
3, 2816, Note_on_c, 1, 62, 0
3, 2880, Note_on_c, 1, 57, 92
3, 2912, Note_on_c, 1, 57, 0
3, 2976, Note_on_c, 1, 50, 92
3, 3008, Note_on_c, 1, 50, 0
3, 3168, Note_on_c, 1, 50, 92
3, 3328, Note_on_c, 1, 50, 0
3, 3456, Note_on_c, 1, 50, 92
3, 3488, Note_on_c, 1, 50, 0
3, 3552, Note_on_c, 1, 57, 92
3, 3808, Note_on_c, 1, 57, 0
3, 3840, Note_on_c, 1, 55, 92
3, 3872, Note_on_c, 1, 55, 0
3, 3936, Note_on_c, 1, 54, 92
3, 3984, Note_on_c, 1, 54, 0
3, 4128, Note_on_c, 1, 55, 92
3, 4176, Note_on_c, 1, 55, 0
3, 4320, Note_on_c, 1, 57, 92
3, 4480, Note_on_c, 1, 57, 0
3, 4704, Note_on_c, 1, 54, 92
3, 4736, Note_on_c, 1, 54, 0
3, 4800, Note_on_c, 1, 54, 92
3, 4896, Note_on_c, 1, 54, 0
3, 4896, Note_on_c, 1, 52, 92
3, 4992, Note_on_c, 1, 52, 0
3, 4992, Note_on_c, 1, 50, 92
3, 5086, Note_on_c, 1, 50, 0
3, 5088, Note_on_c, 1, 57, 92
3, 5344, Note_on_c, 1, 57, 0
3, 5376, Note_on_c, 1, 55, 92
3, 5408, Note_on_c, 1, 55, 0
3, 5472, Note_on_c, 1, 54, 92
3, 5632, Note_on_c, 1, 54, 0
3, 5664, Note_on_c, 1, 55, 92
3, 5696, Note_on_c, 1, 55, 0
3, 5760, Note_on_c, 1, 57, 92
3, 5792, Note_on_c, 1, 57, 0
3, 5856, Note_on_c, 1, 62, 92
3, 5888, Note_on_c, 1, 62, 0
3, 5952, Note_on_c, 1, 57, 92
3, 5984, Note_on_c, 1, 57, 0
3, 6048, Note_on_c, 1, 50, 92
3, 6080, Note_on_c, 1, 50, 0
3, 6240, Note_on_c, 1, 69, 92
3, 6432, Note_on_c, 1, 69, 0
3, 6432, Note_on_c, 1, 67, 92
3, 6624, Note_on_c, 1, 67, 0
3, 6624, Note_on_c, 1, 66, 92
3, 6784, Note_on_c, 1, 66, 0
3, 7008, Note_on_c, 1, 57, 92
3, 7200, Note_on_c, 1, 57, 0
3, 7200, Note_on_c, 1, 55, 92
3, 7392, Note_on_c, 1, 55, 0
3, 7392, Note_on_c, 1, 54, 92
3, 7552, Note_on_c, 1, 54, 0
3, 7776, Note_on_c, 1, 50, 92
3, 7936, Note_on_c, 1, 50, 0
3, 8160, Note_on_c, 1, 57, 92
3, 8416, Note_on_c, 1, 57, 0
3, 8448, Note_on_c, 1, 55, 92
3, 8480, Note_on_c, 1, 55, 0
3, 8544, Note_on_c, 1, 54, 92
3, 8640, Note_on_c, 1, 54, 0
3, 8640, Note_on_c, 1, 59, 92
3, 8734, Note_on_c, 1, 59, 0
3, 8736, Note_on_c, 1, 55, 92
3, 8768, Note_on_c, 1, 55, 0
3, 8832, Note_on_c, 1, 57, 92
3, 8864, Note_on_c, 1, 57, 0
3, 8928, Note_on_c, 1, 50, 92
3, 9088, Note_on_c, 1, 50, 0
3, 9312, Note_on_c, 1, 69, 92
3, 9504, Note_on_c, 1, 69, 0
3, 9504, Note_on_c, 1, 67, 92
3, 9696, Note_on_c, 1, 67, 0
3, 9696, Note_on_c, 1, 66, 92
3, 9856, Note_on_c, 1, 66, 0
3, 10080, Note_on_c, 1, 57, 92
3, 10272, Note_on_c, 1, 57, 0
3, 10272, Note_on_c, 1, 55, 92
3, 10464, Note_on_c, 1, 55, 0
3, 10464, Note_on_c, 1, 54, 92
3, 10624, Note_on_c, 1, 54, 0
3, 10848, Note_on_c, 1, 50, 92
3, 11008, Note_on_c, 1, 50, 0
3, 11232, Note_on_c, 1, 57, 92
3, 11488, Note_on_c, 1, 57, 0
3, 11520, Note_on_c, 1, 55, 92
3, 11552, Note_on_c, 1, 55, 0
3, 11616, Note_on_c, 1, 54, 92
3, 11712, Note_on_c, 1, 54, 0
3, 11712, Note_on_c, 1, 59, 92
3, 11806, Note_on_c, 1, 59, 0
3, 11808, Note_on_c, 1, 55, 92
3, 11840, Note_on_c, 1, 55, 0
3, 11904, Note_on_c, 1, 57, 92
3, 11936, Note_on_c, 1, 57, 0
3, 12000, Note_on_c, 1, 50, 92
3, 12160, Note_on_c, 1, 50, 0
3, 12384, Note_on_c, 1, 55, 45
3, 12448, Note_on_c, 1, 55, 0
3, 12448, Note_on_c, 1, 59, 45
3, 12512, Note_on_c, 1, 59, 0
3, 12512, Note_on_c, 1, 62, 45
3, 12574, Note_on_c, 1, 62, 0
3, 12576, Note_on_c, 1, 67, 45
3, 12618, Note_on_c, 1, 67, 0
3, 12640, Note_on_c, 1, 67, 45
3, 12682, Note_on_c, 1, 67, 0
3, 12704, Note_on_c, 1, 67, 45
3, 12746, Note_on_c, 1, 67, 0
3, 12768, Note_on_c, 1, 66, 45
3, 12810, Note_on_c, 1, 66, 0
3, 12832, Note_on_c, 1, 64, 45
3, 12874, Note_on_c, 1, 64, 0
3, 12896, Note_on_c, 1, 62, 45
3, 12938, Note_on_c, 1, 62, 0
3, 12960, Note_on_c, 1, 60, 45
3, 13002, Note_on_c, 1, 60, 0
3, 13024, Note_on_c, 1, 59, 45
3, 13066, Note_on_c, 1, 59, 0
3, 13088, Note_on_c, 1, 57, 45
3, 13130, Note_on_c, 1, 57, 0
3, 13152, Note_on_c, 1, 55, 45
3, 13216, Note_on_c, 1, 55, 0
3, 13216, Note_on_c, 1, 59, 45
3, 13280, Note_on_c, 1, 59, 0
3, 13280, Note_on_c, 1, 62, 45
3, 13342, Note_on_c, 1, 62, 0
3, 13344, Note_on_c, 1, 67, 45
3, 13386, Note_on_c, 1, 67, 0
3, 13408, Note_on_c, 1, 67, 45
3, 13450, Note_on_c, 1, 67, 0
3, 13472, Note_on_c, 1, 67, 45
3, 13514, Note_on_c, 1, 67, 0
3, 13536, Note_on_c, 1, 66, 45
3, 13578, Note_on_c, 1, 66, 0
3, 13600, Note_on_c, 1, 64, 45
3, 13642, Note_on_c, 1, 64, 0
3, 13664, Note_on_c, 1, 62, 45
3, 13706, Note_on_c, 1, 62, 0
3, 13728, Note_on_c, 1, 60, 45
3, 13770, Note_on_c, 1, 60, 0
3, 13792, Note_on_c, 1, 59, 45
3, 13834, Note_on_c, 1, 59, 0
3, 13856, Note_on_c, 1, 57, 45
3, 13898, Note_on_c, 1, 57, 0
3, 13920, Note_on_c, 1, 55, 45
3, 13982, Note_on_c, 1, 55, 0
3, 14112, Note_on_c, 1, 78, 45
3, 14176, Note_on_c, 1, 78, 0
3, 14176, Note_on_c, 1, 76, 45
3, 14240, Note_on_c, 1, 76, 0
3, 14240, Note_on_c, 1, 74, 45
3, 14302, Note_on_c, 1, 74, 0
3, 14304, Note_on_c, 1, 79, 45
3, 14368, Note_on_c, 1, 79, 0
3, 14368, Note_on_c, 1, 78, 45
3, 14432, Note_on_c, 1, 78, 0
3, 14432, Note_on_c, 1, 76, 45
3, 14494, Note_on_c, 1, 76, 0
3, 14496, Note_on_c, 1, 74, 45
3, 14560, Note_on_c, 1, 74, 0
3, 14560, Note_on_c, 1, 72, 45
3, 14622, Note_on_c, 1, 72, 0
3, 14688, Note_on_c, 1, 54, 45
3, 14720, Note_on_c, 1, 54, 0
3, 14880, Note_on_c, 1, 55, 45
3, 14912, Note_on_c, 1, 55, 0
3, 15072, Note_on_c, 1, 50, 45
3, 15232, Note_on_c, 1, 50, 0
3, 15456, Note_on_c, 1, 55, 45
3, 15520, Note_on_c, 1, 55, 0
3, 15520, Note_on_c, 1, 59, 45
3, 15584, Note_on_c, 1, 59, 0
3, 15584, Note_on_c, 1, 62, 45
3, 15646, Note_on_c, 1, 62, 0
3, 15648, Note_on_c, 1, 67, 45
3, 15690, Note_on_c, 1, 67, 0
3, 15712, Note_on_c, 1, 67, 45
3, 15754, Note_on_c, 1, 67, 0
3, 15776, Note_on_c, 1, 67, 45
3, 15818, Note_on_c, 1, 67, 0
3, 15840, Note_on_c, 1, 66, 45
3, 15882, Note_on_c, 1, 66, 0
3, 15904, Note_on_c, 1, 64, 45
3, 15946, Note_on_c, 1, 64, 0
3, 15968, Note_on_c, 1, 62, 45
3, 16010, Note_on_c, 1, 62, 0
3, 16032, Note_on_c, 1, 60, 45
3, 16074, Note_on_c, 1, 60, 0
3, 16096, Note_on_c, 1, 59, 45
3, 16138, Note_on_c, 1, 59, 0
3, 16160, Note_on_c, 1, 57, 45
3, 16202, Note_on_c, 1, 57, 0
3, 16224, Note_on_c, 1, 55, 45
3, 16288, Note_on_c, 1, 55, 0
3, 16288, Note_on_c, 1, 59, 45
3, 16352, Note_on_c, 1, 59, 0
3, 16352, Note_on_c, 1, 62, 45
3, 16414, Note_on_c, 1, 62, 0
3, 16416, Note_on_c, 1, 67, 45
3, 16458, Note_on_c, 1, 67, 0
3, 16480, Note_on_c, 1, 67, 45
3, 16522, Note_on_c, 1, 67, 0
3, 16544, Note_on_c, 1, 67, 45
3, 16586, Note_on_c, 1, 67, 0
3, 16608, Note_on_c, 1, 66, 45
3, 16650, Note_on_c, 1, 66, 0
3, 16672, Note_on_c, 1, 64, 45
3, 16714, Note_on_c, 1, 64, 0
3, 16736, Note_on_c, 1, 62, 45
3, 16778, Note_on_c, 1, 62, 0
3, 16800, Note_on_c, 1, 60, 45
3, 16842, Note_on_c, 1, 60, 0
3, 16864, Note_on_c, 1, 59, 45
3, 16906, Note_on_c, 1, 59, 0
3, 16928, Note_on_c, 1, 57, 45
3, 16970, Note_on_c, 1, 57, 0
3, 16992, Note_on_c, 1, 55, 45
3, 17054, Note_on_c, 1, 55, 0
3, 17184, Note_on_c, 1, 78, 45
3, 17248, Note_on_c, 1, 78, 0
3, 17248, Note_on_c, 1, 76, 45
3, 17312, Note_on_c, 1, 76, 0
3, 17312, Note_on_c, 1, 74, 45
3, 17374, Note_on_c, 1, 74, 0
3, 17376, Note_on_c, 1, 79, 45
3, 17440, Note_on_c, 1, 79, 0
3, 17440, Note_on_c, 1, 78, 45
3, 17504, Note_on_c, 1, 78, 0
3, 17504, Note_on_c, 1, 76, 45
3, 17566, Note_on_c, 1, 76, 0
3, 17568, Note_on_c, 1, 74, 45
3, 17632, Note_on_c, 1, 74, 0
3, 17632, Note_on_c, 1, 72, 45
3, 17694, Note_on_c, 1, 72, 0
3, 17760, Note_on_c, 1, 54, 45
3, 17792, Note_on_c, 1, 54, 0
3, 17952, Note_on_c, 1, 55, 45
3, 17984, Note_on_c, 1, 55, 0
3, 18144, Note_on_c, 1, 50, 45
3, 18304, Note_on_c, 1, 50, 0
3, 18528, Note_on_c, 1, 62, 92
3, 18528, Note_on_c, 1, 69, 92
3, 18560, Note_on_c, 1, 62, 0
3, 18560, Note_on_c, 1, 69, 0
3, 18720, Note_on_c, 1, 69, 92
3, 18720, Note_on_c, 1, 72, 92
3, 18752, Note_on_c, 1, 69, 0
3, 18752, Note_on_c, 1, 72, 0
3, 18912, Note_on_c, 1, 67, 92
3, 18912, Note_on_c, 1, 71, 92
3, 18944, Note_on_c, 1, 67, 0
3, 18944, Note_on_c, 1, 71, 0
3, 19104, Note_on_c, 1, 67, 92
3, 19104, Note_on_c, 1, 71, 92
3, 19136, Note_on_c, 1, 67, 0
3, 19136, Note_on_c, 1, 71, 0
3, 19296, Note_on_c, 1, 62, 92
3, 19296, Note_on_c, 1, 69, 92
3, 19328, Note_on_c, 1, 62, 0
3, 19328, Note_on_c, 1, 69, 0
3, 19488, Note_on_c, 1, 69, 92
3, 19488, Note_on_c, 1, 72, 92
3, 19520, Note_on_c, 1, 69, 0
3, 19520, Note_on_c, 1, 72, 0
3, 19680, Note_on_c, 1, 67, 92
3, 19680, Note_on_c, 1, 71, 92
3, 19840, Note_on_c, 1, 67, 0
3, 19840, Note_on_c, 1, 71, 0
3, 20064, Note_on_c, 1, 60, 45
3, 20128, Note_on_c, 1, 60, 0
3, 20128, Note_on_c, 1, 64, 45
3, 20192, Note_on_c, 1, 64, 0
3, 20192, Note_on_c, 1, 62, 45
3, 20254, Note_on_c, 1, 62, 0
3, 20256, Note_on_c, 1, 60, 45
3, 20298, Note_on_c, 1, 60, 0
3, 20320, Note_on_c, 1, 64, 45
3, 20362, Note_on_c, 1, 64, 0
3, 20384, Note_on_c, 1, 66, 45
3, 20426, Note_on_c, 1, 66, 0
3, 20448, Note_on_c, 1, 67, 45
3, 20512, Note_on_c, 1, 67, 0
3, 20512, Note_on_c, 1, 66, 45
3, 20576, Note_on_c, 1, 66, 0
3, 20576, Note_on_c, 1, 67, 45
3, 20638, Note_on_c, 1, 67, 0
3, 20640, Note_on_c, 1, 64, 45
3, 20682, Note_on_c, 1, 64, 0
3, 20704, Note_on_c, 1, 63, 45
3, 20746, Note_on_c, 1, 63, 0
3, 20768, Note_on_c, 1, 64, 45
3, 20810, Note_on_c, 1, 64, 0
3, 20832, Note_on_c, 1, 60, 45
3, 20896, Note_on_c, 1, 60, 0
3, 20896, Note_on_c, 1, 59, 45
3, 20960, Note_on_c, 1, 59, 0
3, 20960, Note_on_c, 1, 60, 45
3, 21022, Note_on_c, 1, 60, 0
3, 21024, Note_on_c, 1, 62, 45
3, 21066, Note_on_c, 1, 62, 0
3, 21088, Note_on_c, 1, 61, 45
3, 21130, Note_on_c, 1, 61, 0
3, 21152, Note_on_c, 1, 62, 45
3, 21194, Note_on_c, 1, 62, 0
3, 21216, Note_on_c, 1, 55, 45
3, 21376, Note_on_c, 1, 55, 0
3, 21600, Note_on_c, 1, 62, 92
3, 21600, Note_on_c, 1, 69, 92
3, 21632, Note_on_c, 1, 62, 0
3, 21632, Note_on_c, 1, 69, 0
3, 21792, Note_on_c, 1, 69, 92
3, 21792, Note_on_c, 1, 72, 92
3, 21824, Note_on_c, 1, 69, 0
3, 21824, Note_on_c, 1, 72, 0
3, 21984, Note_on_c, 1, 67, 92
3, 21984, Note_on_c, 1, 71, 92
3, 22016, Note_on_c, 1, 67, 0
3, 22016, Note_on_c, 1, 71, 0
3, 22176, Note_on_c, 1, 67, 92
3, 22176, Note_on_c, 1, 71, 92
3, 22208, Note_on_c, 1, 67, 0
3, 22208, Note_on_c, 1, 71, 0
3, 22368, Note_on_c, 1, 62, 92
3, 22368, Note_on_c, 1, 69, 92
3, 22400, Note_on_c, 1, 62, 0
3, 22400, Note_on_c, 1, 69, 0
3, 22560, Note_on_c, 1, 69, 92
3, 22560, Note_on_c, 1, 72, 92
3, 22592, Note_on_c, 1, 69, 0
3, 22592, Note_on_c, 1, 72, 0
3, 22752, Note_on_c, 1, 67, 92
3, 22752, Note_on_c, 1, 71, 92
3, 22912, Note_on_c, 1, 67, 0
3, 22912, Note_on_c, 1, 71, 0
3, 23136, Note_on_c, 1, 60, 45
3, 23200, Note_on_c, 1, 60, 0
3, 23200, Note_on_c, 1, 64, 45
3, 23264, Note_on_c, 1, 64, 0
3, 23264, Note_on_c, 1, 62, 45
3, 23326, Note_on_c, 1, 62, 0
3, 23328, Note_on_c, 1, 60, 45
3, 23370, Note_on_c, 1, 60, 0
3, 23392, Note_on_c, 1, 64, 45
3, 23434, Note_on_c, 1, 64, 0
3, 23456, Note_on_c, 1, 66, 45
3, 23498, Note_on_c, 1, 66, 0
3, 23520, Note_on_c, 1, 67, 45
3, 23584, Note_on_c, 1, 67, 0
3, 23584, Note_on_c, 1, 66, 45
3, 23648, Note_on_c, 1, 66, 0
3, 23648, Note_on_c, 1, 67, 45
3, 23710, Note_on_c, 1, 67, 0
3, 23712, Note_on_c, 1, 64, 45
3, 23754, Note_on_c, 1, 64, 0
3, 23776, Note_on_c, 1, 63, 45
3, 23818, Note_on_c, 1, 63, 0
3, 23840, Note_on_c, 1, 64, 45
3, 23882, Note_on_c, 1, 64, 0
3, 23904, Note_on_c, 1, 60, 45
3, 23968, Note_on_c, 1, 60, 0
3, 23968, Note_on_c, 1, 59, 45
3, 24032, Note_on_c, 1, 59, 0
3, 24032, Note_on_c, 1, 60, 45
3, 24094, Note_on_c, 1, 60, 0
3, 24096, Note_on_c, 1, 62, 45
3, 24138, Note_on_c, 1, 62, 0
3, 24160, Note_on_c, 1, 61, 45
3, 24202, Note_on_c, 1, 61, 0
3, 24224, Note_on_c, 1, 62, 45
3, 24266, Note_on_c, 1, 62, 0
3, 24288, Note_on_c, 1, 55, 45
3, 24448, Note_on_c, 1, 55, 0
3, 24672, Note_on_c, 1, 50, 92
3, 24832, Note_on_c, 1, 50, 0
3, 24960, Note_on_c, 1, 50, 92
3, 24992, Note_on_c, 1, 50, 0
3, 25056, Note_on_c, 1, 57, 92
3, 25312, Note_on_c, 1, 57, 0
3, 25344, Note_on_c, 1, 55, 92
3, 25376, Note_on_c, 1, 55, 0
3, 25440, Note_on_c, 1, 54, 92
3, 25488, Note_on_c, 1, 54, 0
3, 25632, Note_on_c, 1, 55, 92
3, 25680, Note_on_c, 1, 55, 0
3, 25824, Note_on_c, 1, 57, 92
3, 25984, Note_on_c, 1, 57, 0
3, 26208, Note_on_c, 1, 54, 92
3, 26240, Note_on_c, 1, 54, 0
3, 26304, Note_on_c, 1, 54, 92
3, 26400, Note_on_c, 1, 54, 0
3, 26400, Note_on_c, 1, 52, 92
3, 26496, Note_on_c, 1, 52, 0
3, 26496, Note_on_c, 1, 50, 92
3, 26590, Note_on_c, 1, 50, 0
3, 26592, Note_on_c, 1, 57, 92
3, 26848, Note_on_c, 1, 57, 0
3, 26880, Note_on_c, 1, 55, 92
3, 26912, Note_on_c, 1, 55, 0
3, 26976, Note_on_c, 1, 54, 92
3, 27136, Note_on_c, 1, 54, 0
3, 27168, Note_on_c, 1, 55, 92
3, 27200, Note_on_c, 1, 55, 0
3, 27264, Note_on_c, 1, 57, 92
3, 27296, Note_on_c, 1, 57, 0
3, 27360, Note_on_c, 1, 62, 92
3, 27392, Note_on_c, 1, 62, 0
3, 27456, Note_on_c, 1, 57, 92
3, 27488, Note_on_c, 1, 57, 0
3, 27552, Note_on_c, 1, 50, 92
3, 27584, Note_on_c, 1, 50, 0
3, 27744, Note_on_c, 1, 69, 92
3, 27936, Note_on_c, 1, 69, 0
3, 27936, Note_on_c, 1, 67, 92
3, 28128, Note_on_c, 1, 67, 0
3, 28128, Note_on_c, 1, 66, 92
3, 28288, Note_on_c, 1, 66, 0
3, 28512, Note_on_c, 1, 57, 92
3, 28704, Note_on_c, 1, 57, 0
3, 28704, Note_on_c, 1, 55, 92
3, 28896, Note_on_c, 1, 55, 0
3, 28896, Note_on_c, 1, 54, 92
3, 29056, Note_on_c, 1, 54, 0
3, 29280, Note_on_c, 1, 50, 92
3, 29440, Note_on_c, 1, 50, 0
3, 29664, Note_on_c, 1, 57, 92
3, 29920, Note_on_c, 1, 57, 0
3, 29952, Note_on_c, 1, 55, 92
3, 29984, Note_on_c, 1, 55, 0
3, 30048, Note_on_c, 1, 54, 92
3, 30208, Note_on_c, 1, 54, 0
3, 30240, Note_on_c, 1, 55, 92
3, 30272, Note_on_c, 1, 55, 0
3, 30336, Note_on_c, 1, 57, 92
3, 30368, Note_on_c, 1, 57, 0
3, 30432, Note_on_c, 1, 50, 92
3, 30592, Note_on_c, 1, 50, 0
3, 30816, Note_on_c, 1, 59, 60
3, 30816, Note_on_c, 1, 62, 60
3, 30912, Note_on_c, 1, 62, 0
3, 30912, Note_on_c, 1, 66, 60
3, 31008, Note_on_c, 1, 66, 0
3, 31008, Note_on_c, 1, 62, 60
3, 31104, Note_on_c, 1, 62, 0
3, 31104, Note_on_c, 1, 66, 60
3, 31198, Note_on_c, 1, 66, 0
3, 31200, Note_on_c, 1, 64, 60
3, 31296, Note_on_c, 1, 64, 0
3, 31296, Note_on_c, 1, 66, 60
3, 31392, Note_on_c, 1, 66, 0
3, 31392, Note_on_c, 1, 64, 60
3, 31488, Note_on_c, 1, 64, 0
3, 31488, Note_on_c, 1, 66, 60
3, 31536, Note_on_c, 1, 59, 0
3, 31582, Note_on_c, 1, 66, 0
3, 31584, Note_on_c, 1, 59, 60
3, 31584, Note_on_c, 1, 62, 60
3, 31680, Note_on_c, 1, 62, 0
3, 31680, Note_on_c, 1, 66, 60
3, 31776, Note_on_c, 1, 66, 0
3, 31776, Note_on_c, 1, 62, 60
3, 31872, Note_on_c, 1, 62, 0
3, 31872, Note_on_c, 1, 66, 60
3, 31966, Note_on_c, 1, 66, 0
3, 31968, Note_on_c, 1, 64, 60
3, 32064, Note_on_c, 1, 64, 0
3, 32064, Note_on_c, 1, 66, 60
3, 32160, Note_on_c, 1, 66, 0
3, 32160, Note_on_c, 1, 64, 60
3, 32256, Note_on_c, 1, 64, 0
3, 32256, Note_on_c, 1, 66, 60
3, 32304, Note_on_c, 1, 59, 0
3, 32350, Note_on_c, 1, 66, 0
3, 32352, Note_on_c, 1, 59, 60
3, 32352, Note_on_c, 1, 62, 60
3, 32448, Note_on_c, 1, 62, 0
3, 32448, Note_on_c, 1, 66, 60
3, 32544, Note_on_c, 1, 66, 0
3, 32544, Note_on_c, 1, 62, 60
3, 32640, Note_on_c, 1, 62, 0
3, 32640, Note_on_c, 1, 66, 60
3, 32734, Note_on_c, 1, 66, 0
3, 32736, Note_on_c, 1, 64, 60
3, 32832, Note_on_c, 1, 64, 0
3, 32832, Note_on_c, 1, 66, 60
3, 32928, Note_on_c, 1, 66, 0
3, 32928, Note_on_c, 1, 64, 60
3, 33024, Note_on_c, 1, 64, 0
3, 33024, Note_on_c, 1, 66, 60
3, 33072, Note_on_c, 1, 59, 0
3, 33118, Note_on_c, 1, 66, 0
3, 33120, Note_on_c, 1, 59, 60
3, 33120, Note_on_c, 1, 62, 60
3, 33216, Note_on_c, 1, 62, 0
3, 33216, Note_on_c, 1, 66, 60
3, 33280, Note_on_c, 1, 59, 0
3, 33312, Note_on_c, 1, 66, 0
3, 33312, Note_on_c, 1, 54, 60
3, 33312, Note_on_c, 1, 61, 60
3, 33408, Note_on_c, 1, 61, 0
3, 33408, Note_on_c, 1, 64, 60
3, 33472, Note_on_c, 1, 54, 0
3, 33502, Note_on_c, 1, 64, 0
3, 33504, Note_on_c, 1, 59, 60
3, 33504, Note_on_c, 1, 62, 60
3, 33664, Note_on_c, 1, 59, 0
3, 33664, Note_on_c, 1, 62, 0
3, 33888, Note_on_c, 1, 59, 60
3, 33888, Note_on_c, 1, 62, 60
3, 33984, Note_on_c, 1, 62, 0
3, 33984, Note_on_c, 1, 66, 60
3, 34080, Note_on_c, 1, 66, 0
3, 34080, Note_on_c, 1, 62, 60
3, 34176, Note_on_c, 1, 62, 0
3, 34176, Note_on_c, 1, 66, 60
3, 34270, Note_on_c, 1, 66, 0
3, 34272, Note_on_c, 1, 64, 60
3, 34368, Note_on_c, 1, 64, 0
3, 34368, Note_on_c, 1, 66, 60
3, 34464, Note_on_c, 1, 66, 0
3, 34464, Note_on_c, 1, 64, 60
3, 34560, Note_on_c, 1, 64, 0
3, 34560, Note_on_c, 1, 66, 60
3, 34608, Note_on_c, 1, 59, 0
3, 34654, Note_on_c, 1, 66, 0
3, 34656, Note_on_c, 1, 59, 60
3, 34656, Note_on_c, 1, 62, 60
3, 34752, Note_on_c, 1, 62, 0
3, 34752, Note_on_c, 1, 66, 60
3, 34848, Note_on_c, 1, 66, 0
3, 34848, Note_on_c, 1, 62, 60
3, 34944, Note_on_c, 1, 62, 0
3, 34944, Note_on_c, 1, 66, 60
3, 35038, Note_on_c, 1, 66, 0
3, 35040, Note_on_c, 1, 64, 60
3, 35136, Note_on_c, 1, 64, 0
3, 35136, Note_on_c, 1, 66, 60
3, 35232, Note_on_c, 1, 66, 0
3, 35232, Note_on_c, 1, 64, 60
3, 35328, Note_on_c, 1, 64, 0
3, 35328, Note_on_c, 1, 66, 60
3, 35376, Note_on_c, 1, 59, 0
3, 35422, Note_on_c, 1, 66, 0
3, 35424, Note_on_c, 1, 59, 60
3, 35424, Note_on_c, 1, 62, 60
3, 35520, Note_on_c, 1, 62, 0
3, 35520, Note_on_c, 1, 66, 60
3, 35616, Note_on_c, 1, 66, 0
3, 35616, Note_on_c, 1, 62, 60
3, 35712, Note_on_c, 1, 62, 0
3, 35712, Note_on_c, 1, 66, 60
3, 35806, Note_on_c, 1, 66, 0
3, 35808, Note_on_c, 1, 64, 60
3, 35904, Note_on_c, 1, 64, 0
3, 35904, Note_on_c, 1, 66, 60
3, 36000, Note_on_c, 1, 66, 0
3, 36000, Note_on_c, 1, 64, 60
3, 36096, Note_on_c, 1, 64, 0
3, 36096, Note_on_c, 1, 66, 60
3, 36144, Note_on_c, 1, 59, 0
3, 36190, Note_on_c, 1, 66, 0
3, 36192, Note_on_c, 1, 59, 60
3, 36192, Note_on_c, 1, 62, 60
3, 36288, Note_on_c, 1, 62, 0
3, 36288, Note_on_c, 1, 66, 60
3, 36352, Note_on_c, 1, 59, 0
3, 36384, Note_on_c, 1, 66, 0
3, 36384, Note_on_c, 1, 54, 60
3, 36384, Note_on_c, 1, 61, 60
3, 36480, Note_on_c, 1, 61, 0
3, 36480, Note_on_c, 1, 64, 60
3, 36544, Note_on_c, 1, 54, 0
3, 36574, Note_on_c, 1, 64, 0
3, 36576, Note_on_c, 1, 59, 60
3, 36576, Note_on_c, 1, 62, 60
3, 36736, Note_on_c, 1, 59, 0
3, 36736, Note_on_c, 1, 62, 0
3, 37056, Note_on_c, 1, 66, 92
3, 37056, Note_on_c, 1, 70, 92
3, 37088, Note_on_c, 1, 66, 0
3, 37088, Note_on_c, 1, 70, 0
3, 37152, Note_on_c, 1, 66, 92
3, 37152, Note_on_c, 1, 70, 92
3, 37184, Note_on_c, 1, 66, 0
3, 37184, Note_on_c, 1, 70, 0
3, 37248, Note_on_c, 1, 66, 92
3, 37248, Note_on_c, 1, 70, 92
3, 37280, Note_on_c, 1, 66, 0
3, 37280, Note_on_c, 1, 70, 0
3, 37344, Note_on_c, 1, 65, 92
3, 37344, Note_on_c, 1, 71, 92
3, 37440, Note_on_c, 1, 65, 0
3, 37440, Note_on_c, 1, 71, 0
3, 37440, Note_on_c, 1, 66, 92
3, 37440, Note_on_c, 1, 70, 92
3, 37534, Note_on_c, 1, 66, 0
3, 37534, Note_on_c, 1, 70, 0
3, 37536, Note_on_c, 1, 66, 92
3, 37536, Note_on_c, 1, 70, 92
3, 37568, Note_on_c, 1, 66, 0
3, 37568, Note_on_c, 1, 70, 0
3, 37824, Note_on_c, 1, 66, 92
3, 37824, Note_on_c, 1, 70, 92
3, 37856, Note_on_c, 1, 66, 0
3, 37856, Note_on_c, 1, 70, 0
3, 37920, Note_on_c, 1, 66, 92
3, 37920, Note_on_c, 1, 70, 92
3, 37952, Note_on_c, 1, 66, 0
3, 37952, Note_on_c, 1, 70, 0
3, 38016, Note_on_c, 1, 66, 92
3, 38016, Note_on_c, 1, 70, 92
3, 38048, Note_on_c, 1, 66, 0
3, 38048, Note_on_c, 1, 70, 0
3, 38112, Note_on_c, 1, 67, 92
3, 38112, Note_on_c, 1, 71, 92
3, 38208, Note_on_c, 1, 67, 0
3, 38208, Note_on_c, 1, 71, 0
3, 38208, Note_on_c, 1, 66, 92
3, 38208, Note_on_c, 1, 70, 92
3, 38302, Note_on_c, 1, 66, 0
3, 38302, Note_on_c, 1, 70, 0
3, 38304, Note_on_c, 1, 66, 92
3, 38304, Note_on_c, 1, 70, 92
3, 38336, Note_on_c, 1, 66, 0
3, 38336, Note_on_c, 1, 70, 0
3, 38496, Note_on_c, 1, 59, 60
3, 38496, Note_on_c, 1, 62, 60
3, 38592, Note_on_c, 1, 62, 0
3, 38592, Note_on_c, 1, 66, 60
3, 38688, Note_on_c, 1, 66, 0
3, 38688, Note_on_c, 1, 62, 60
3, 38784, Note_on_c, 1, 62, 0
3, 38784, Note_on_c, 1, 66, 60
3, 38878, Note_on_c, 1, 66, 0
3, 38880, Note_on_c, 1, 64, 60
3, 38976, Note_on_c, 1, 64, 0
3, 38976, Note_on_c, 1, 66, 60
3, 39072, Note_on_c, 1, 66, 0
3, 39072, Note_on_c, 1, 64, 60
3, 39168, Note_on_c, 1, 64, 0
3, 39168, Note_on_c, 1, 66, 60
3, 39216, Note_on_c, 1, 59, 0
3, 39262, Note_on_c, 1, 66, 0
3, 39264, Note_on_c, 1, 59, 60
3, 39264, Note_on_c, 1, 62, 60
3, 39360, Note_on_c, 1, 62, 0
3, 39360, Note_on_c, 1, 66, 60
3, 39424, Note_on_c, 1, 59, 0
3, 39456, Note_on_c, 1, 66, 0
3, 39456, Note_on_c, 1, 54, 60
3, 39456, Note_on_c, 1, 61, 60
3, 39552, Note_on_c, 1, 61, 0
3, 39552, Note_on_c, 1, 64, 60
3, 39616, Note_on_c, 1, 54, 0
3, 39646, Note_on_c, 1, 64, 0
3, 39648, Note_on_c, 1, 59, 60
3, 39648, Note_on_c, 1, 62, 60
3, 39808, Note_on_c, 1, 59, 0
3, 39808, Note_on_c, 1, 62, 0
3, 40128, Note_on_c, 1, 66, 92
3, 40128, Note_on_c, 1, 70, 92
3, 40160, Note_on_c, 1, 66, 0
3, 40160, Note_on_c, 1, 70, 0
3, 40224, Note_on_c, 1, 66, 92
3, 40224, Note_on_c, 1, 70, 92
3, 40256, Note_on_c, 1, 66, 0
3, 40256, Note_on_c, 1, 70, 0
3, 40320, Note_on_c, 1, 66, 92
3, 40320, Note_on_c, 1, 70, 92
3, 40352, Note_on_c, 1, 66, 0
3, 40352, Note_on_c, 1, 70, 0
3, 40416, Note_on_c, 1, 65, 92
3, 40416, Note_on_c, 1, 71, 92
3, 40512, Note_on_c, 1, 65, 0
3, 40512, Note_on_c, 1, 71, 0
3, 40512, Note_on_c, 1, 66, 92
3, 40512, Note_on_c, 1, 70, 92
3, 40606, Note_on_c, 1, 66, 0
3, 40606, Note_on_c, 1, 70, 0
3, 40608, Note_on_c, 1, 66, 92
3, 40608, Note_on_c, 1, 70, 92
3, 40640, Note_on_c, 1, 66, 0
3, 40640, Note_on_c, 1, 70, 0
3, 40896, Note_on_c, 1, 66, 92
3, 40896, Note_on_c, 1, 70, 92
3, 40928, Note_on_c, 1, 66, 0
3, 40928, Note_on_c, 1, 70, 0
3, 40992, Note_on_c, 1, 66, 92
3, 40992, Note_on_c, 1, 70, 92
3, 41024, Note_on_c, 1, 66, 0
3, 41024, Note_on_c, 1, 70, 0
3, 41088, Note_on_c, 1, 66, 92
3, 41088, Note_on_c, 1, 70, 92
3, 41120, Note_on_c, 1, 66, 0
3, 41120, Note_on_c, 1, 70, 0
3, 41184, Note_on_c, 1, 67, 92
3, 41184, Note_on_c, 1, 71, 92
3, 41280, Note_on_c, 1, 67, 0
3, 41280, Note_on_c, 1, 71, 0
3, 41280, Note_on_c, 1, 66, 92
3, 41280, Note_on_c, 1, 70, 92
3, 41374, Note_on_c, 1, 66, 0
3, 41374, Note_on_c, 1, 70, 0
3, 41376, Note_on_c, 1, 66, 92
3, 41376, Note_on_c, 1, 70, 92
3, 41408, Note_on_c, 1, 66, 0
3, 41408, Note_on_c, 1, 70, 0
3, 41568, Note_on_c, 1, 59, 60
3, 41568, Note_on_c, 1, 62, 60
3, 41664, Note_on_c, 1, 62, 0
3, 41664, Note_on_c, 1, 66, 60
3, 41760, Note_on_c, 1, 66, 0
3, 41760, Note_on_c, 1, 62, 60
3, 41856, Note_on_c, 1, 62, 0
3, 41856, Note_on_c, 1, 66, 60
3, 41950, Note_on_c, 1, 66, 0
3, 41952, Note_on_c, 1, 64, 60
3, 42048, Note_on_c, 1, 64, 0
3, 42048, Note_on_c, 1, 66, 60
3, 42144, Note_on_c, 1, 66, 0
3, 42144, Note_on_c, 1, 64, 60
3, 42240, Note_on_c, 1, 64, 0
3, 42240, Note_on_c, 1, 66, 60
3, 42288, Note_on_c, 1, 59, 0
3, 42334, Note_on_c, 1, 66, 0
3, 42336, Note_on_c, 1, 59, 60
3, 42336, Note_on_c, 1, 62, 60
3, 42432, Note_on_c, 1, 62, 0
3, 42432, Note_on_c, 1, 66, 60
3, 42496, Note_on_c, 1, 59, 0
3, 42528, Note_on_c, 1, 66, 0
3, 42528, Note_on_c, 1, 54, 60
3, 42528, Note_on_c, 1, 61, 60
3, 42624, Note_on_c, 1, 61, 0
3, 42624, Note_on_c, 1, 64, 60
3, 42688, Note_on_c, 1, 54, 0
3, 42718, Note_on_c, 1, 64, 0
3, 42720, Note_on_c, 1, 59, 60
3, 42720, Note_on_c, 1, 62, 60
3, 42880, Note_on_c, 1, 59, 0
3, 42880, Note_on_c, 1, 62, 0
3, 43104, Note_on_c, 1, 50, 60
3, 43264, Note_on_c, 1, 50, 0
3, 43392, Note_on_c, 1, 50, 60
3, 43424, Note_on_c, 1, 50, 0
3, 43488, Note_on_c, 1, 57, 60
3, 43744, Note_on_c, 1, 57, 0
3, 43776, Note_on_c, 1, 55, 60
3, 43808, Note_on_c, 1, 55, 0
3, 43872, Note_on_c, 1, 54, 60
3, 43920, Note_on_c, 1, 54, 0
3, 44064, Note_on_c, 1, 55, 60
3, 44112, Note_on_c, 1, 55, 0
3, 44256, Note_on_c, 1, 57, 60
3, 44304, Note_on_c, 1, 57, 0
3, 44640, Note_on_c, 1, 54, 60
3, 44672, Note_on_c, 1, 54, 0
3, 44736, Note_on_c, 1, 54, 60
3, 44832, Note_on_c, 1, 54, 0
3, 44832, Note_on_c, 1, 52, 60
3, 44928, Note_on_c, 1, 52, 0
3, 44928, Note_on_c, 1, 50, 60
3, 45022, Note_on_c, 1, 50, 0
3, 45024, Note_on_c, 1, 57, 60
3, 45280, Note_on_c, 1, 57, 0
3, 45312, Note_on_c, 1, 55, 60
3, 45344, Note_on_c, 1, 55, 0
3, 45408, Note_on_c, 1, 54, 60
3, 45568, Note_on_c, 1, 54, 0
3, 45600, Note_on_c, 1, 55, 60
3, 45632, Note_on_c, 1, 55, 0
3, 45696, Note_on_c, 1, 57, 60
3, 45728, Note_on_c, 1, 57, 0
3, 45792, Note_on_c, 1, 62, 60
3, 45824, Note_on_c, 1, 62, 0
3, 45888, Note_on_c, 1, 57, 60
3, 45920, Note_on_c, 1, 57, 0
3, 45984, Note_on_c, 1, 50, 60
3, 46016, Note_on_c, 1, 50, 0
3, 46176, Note_on_c, 1, 50, 60
3, 46336, Note_on_c, 1, 50, 0
3, 46464, Note_on_c, 1, 50, 60
3, 46496, Note_on_c, 1, 50, 0
3, 46560, Note_on_c, 1, 57, 60
3, 46816, Note_on_c, 1, 57, 0
3, 46848, Note_on_c, 1, 55, 60
3, 46880, Note_on_c, 1, 55, 0
3, 46944, Note_on_c, 1, 54, 60
3, 46992, Note_on_c, 1, 54, 0
3, 47136, Note_on_c, 1, 55, 60
3, 47184, Note_on_c, 1, 55, 0
3, 47328, Note_on_c, 1, 57, 60
3, 47376, Note_on_c, 1, 57, 0
3, 47712, Note_on_c, 1, 54, 60
3, 47744, Note_on_c, 1, 54, 0
3, 47808, Note_on_c, 1, 54, 60
3, 47904, Note_on_c, 1, 54, 0
3, 47904, Note_on_c, 1, 52, 60
3, 48000, Note_on_c, 1, 52, 0
3, 48000, Note_on_c, 1, 50, 60
3, 48094, Note_on_c, 1, 50, 0
3, 48096, Note_on_c, 1, 57, 60
3, 48352, Note_on_c, 1, 57, 0
3, 48384, Note_on_c, 1, 55, 60
3, 48416, Note_on_c, 1, 55, 0
3, 48480, Note_on_c, 1, 54, 60
3, 48640, Note_on_c, 1, 54, 0
3, 48672, Note_on_c, 1, 55, 60
3, 48704, Note_on_c, 1, 55, 0
3, 48768, Note_on_c, 1, 57, 60
3, 48800, Note_on_c, 1, 57, 0
3, 48864, Note_on_c, 1, 62, 60
3, 48896, Note_on_c, 1, 62, 0
3, 48960, Note_on_c, 1, 57, 60
3, 48992, Note_on_c, 1, 57, 0
3, 49056, Note_on_c, 1, 50, 60
3, 49088, Note_on_c, 1, 50, 0
3, 49248, Note_on_c, 1, 69, 45
3, 49440, Note_on_c, 1, 69, 0
3, 49440, Note_on_c, 1, 67, 45
3, 49632, Note_on_c, 1, 67, 0
3, 49632, Note_on_c, 1, 66, 45
3, 49792, Note_on_c, 1, 66, 0
3, 50016, Note_on_c, 1, 57, 45
3, 50208, Note_on_c, 1, 57, 0
3, 50208, Note_on_c, 1, 55, 45
3, 50400, Note_on_c, 1, 55, 0
3, 50400, Note_on_c, 1, 54, 45
3, 50560, Note_on_c, 1, 54, 0
3, 50784, Note_on_c, 1, 50, 92
3, 50944, Note_on_c, 1, 50, 0
3, 51168, Note_on_c, 1, 57, 92
3, 51424, Note_on_c, 1, 57, 0
3, 51456, Note_on_c, 1, 55, 92
3, 51488, Note_on_c, 1, 55, 0
3, 51552, Note_on_c, 1, 54, 92
3, 51712, Note_on_c, 1, 54, 0
3, 51744, Note_on_c, 1, 55, 92
3, 51776, Note_on_c, 1, 55, 0
3, 51840, Note_on_c, 1, 57, 92
3, 51872, Note_on_c, 1, 57, 0
3, 51936, Note_on_c, 1, 50, 92
3, 52096, Note_on_c, 1, 50, 0
3, 52320, Note_on_c, 1, 69, 45
3, 52512, Note_on_c, 1, 69, 0
3, 52512, Note_on_c, 1, 67, 45
3, 52704, Note_on_c, 1, 67, 0
3, 52704, Note_on_c, 1, 66, 45
3, 52864, Note_on_c, 1, 66, 0
3, 53088, Note_on_c, 1, 57, 45
3, 53280, Note_on_c, 1, 57, 0
3, 53280, Note_on_c, 1, 55, 45
3, 53472, Note_on_c, 1, 55, 0
3, 53472, Note_on_c, 1, 54, 45
3, 53632, Note_on_c, 1, 54, 0
3, 53856, Note_on_c, 1, 50, 92
3, 54016, Note_on_c, 1, 50, 0
3, 54240, Note_on_c, 1, 57, 92
3, 54496, Note_on_c, 1, 57, 0
3, 54528, Note_on_c, 1, 55, 92
3, 54560, Note_on_c, 1, 55, 0
3, 54624, Note_on_c, 1, 54, 92
3, 54784, Note_on_c, 1, 54, 0
3, 54816, Note_on_c, 1, 55, 92
3, 54848, Note_on_c, 1, 55, 0
3, 54912, Note_on_c, 1, 57, 92
3, 54944, Note_on_c, 1, 57, 0
3, 55008, Note_on_c, 1, 50, 92
3, 55008, Note_on_c, 1, 54, 92
3, 55104, Note_on_c, 1, 50, 0
3, 55104, Note_on_c, 1, 54, 0
3, 55104, Note_on_c, 1, 57, 92
3, 55200, Note_on_c, 1, 57, 0
3, 55200, Note_on_c, 1, 50, 92
3, 55200, Note_on_c, 1, 54, 92
3, 55296, Note_on_c, 1, 50, 0
3, 55296, Note_on_c, 1, 54, 0
3, 55296, Note_on_c, 1, 57, 92
3, 55390, Note_on_c, 1, 57, 0
3, 55392, Note_on_c, 1, 50, 92
3, 55392, Note_on_c, 1, 59, 92
3, 55488, Note_on_c, 1, 50, 0
3, 55488, Note_on_c, 1, 59, 0
3, 55488, Note_on_c, 1, 55, 92
3, 55584, Note_on_c, 1, 55, 0
3, 55584, Note_on_c, 1, 59, 92
3, 55680, Note_on_c, 1, 59, 0
3, 55680, Note_on_c, 1, 55, 92
3, 55774, Note_on_c, 1, 55, 0
3, 55776, Note_on_c, 1, 50, 92
3, 55776, Note_on_c, 1, 54, 92
3, 55872, Note_on_c, 1, 50, 0
3, 55872, Note_on_c, 1, 54, 0
3, 55872, Note_on_c, 1, 57, 92
3, 55968, Note_on_c, 1, 57, 0
3, 55968, Note_on_c, 1, 54, 92
3, 56064, Note_on_c, 1, 54, 0
3, 56064, Note_on_c, 1, 57, 45
3, 56158, Note_on_c, 1, 57, 0
3, 56160, Note_on_c, 1, 50, 45
3, 56160, Note_on_c, 1, 59, 45
3, 56256, Note_on_c, 1, 50, 0
3, 56256, Note_on_c, 1, 59, 0
3, 56256, Note_on_c, 1, 55, 45
3, 56352, Note_on_c, 1, 55, 0
3, 56352, Note_on_c, 1, 59, 45
3, 56448, Note_on_c, 1, 59, 0
3, 56448, Note_on_c, 1, 55, 45
3, 56542, Note_on_c, 1, 55, 0
3, 56544, Note_on_c, 1, 50, 45
3, 56544, Note_on_c, 1, 54, 45
3, 56640, Note_on_c, 1, 50, 0
3, 56640, Note_on_c, 1, 54, 0
3, 56640, Note_on_c, 1, 57, 50
3, 56736, Note_on_c, 1, 57, 0
3, 56736, Note_on_c, 1, 55, 56
3, 56832, Note_on_c, 1, 55, 0
3, 56832, Note_on_c, 1, 57, 62
3, 56926, Note_on_c, 1, 57, 0
3, 56928, Note_on_c, 1, 45, 68
3, 56928, Note_on_c, 1, 54, 68
3, 57024, Note_on_c, 1, 45, 0
3, 57024, Note_on_c, 1, 54, 0
3, 57024, Note_on_c, 1, 57, 74
3, 57120, Note_on_c, 1, 57, 0
3, 57120, Note_on_c, 1, 45, 80
3, 57120, Note_on_c, 1, 52, 80
3, 57216, Note_on_c, 1, 45, 0
3, 57216, Note_on_c, 1, 52, 0
3, 57216, Note_on_c, 1, 55, 86
3, 57310, Note_on_c, 1, 55, 0
3, 57312, Note_on_c, 1, 50, 92
3, 57312, Note_on_c, 1, 54, 92
3, 57408, Note_on_c, 1, 50, 0
3, 57408, Note_on_c, 1, 54, 0
3, 57408, Note_on_c, 1, 57, 92
3, 57504, Note_on_c, 1, 57, 0
3, 57504, Note_on_c, 1, 54, 92
3, 57600, Note_on_c, 1, 54, 0
3, 57600, Note_on_c, 1, 57, 92
3, 57694, Note_on_c, 1, 57, 0
3, 57696, Note_on_c, 1, 50, 92
3, 57696, Note_on_c, 1, 59, 92
3, 57792, Note_on_c, 1, 50, 0
3, 57792, Note_on_c, 1, 59, 0
3, 57792, Note_on_c, 1, 57, 92
3, 57888, Note_on_c, 1, 57, 0
3, 57888, Note_on_c, 1, 59, 92
3, 57984, Note_on_c, 1, 59, 0
3, 57984, Note_on_c, 1, 55, 92
3, 58078, Note_on_c, 1, 55, 0
3, 58080, Note_on_c, 1, 50, 92
3, 58080, Note_on_c, 1, 54, 92
3, 58176, Note_on_c, 1, 50, 0
3, 58176, Note_on_c, 1, 54, 0
3, 58176, Note_on_c, 1, 57, 92
3, 58272, Note_on_c, 1, 57, 0
3, 58272, Note_on_c, 1, 54, 92
3, 58368, Note_on_c, 1, 54, 0
3, 58368, Note_on_c, 1, 57, 92
3, 58462, Note_on_c, 1, 57, 0
3, 58464, Note_on_c, 1, 50, 45
3, 58464, Note_on_c, 1, 59, 45
3, 58560, Note_on_c, 1, 50, 0
3, 58560, Note_on_c, 1, 59, 0
3, 58560, Note_on_c, 1, 55, 45
3, 58656, Note_on_c, 1, 55, 0
3, 58656, Note_on_c, 1, 59, 45
3, 58752, Note_on_c, 1, 59, 0
3, 58752, Note_on_c, 1, 55, 45
3, 58846, Note_on_c, 1, 55, 0
3, 58848, Note_on_c, 1, 50, 45
3, 58848, Note_on_c, 1, 54, 45
3, 58944, Note_on_c, 1, 50, 0
3, 58944, Note_on_c, 1, 54, 0
3, 58944, Note_on_c, 1, 57, 50
3, 59040, Note_on_c, 1, 57, 0
3, 59040, Note_on_c, 1, 55, 56
3, 59136, Note_on_c, 1, 55, 0
3, 59136, Note_on_c, 1, 59, 62
3, 59230, Note_on_c, 1, 59, 0
3, 59232, Note_on_c, 1, 45, 68
3, 59232, Note_on_c, 1, 54, 68
3, 59328, Note_on_c, 1, 45, 0
3, 59328, Note_on_c, 1, 54, 0
3, 59328, Note_on_c, 1, 57, 74
3, 59424, Note_on_c, 1, 57, 0
3, 59424, Note_on_c, 1, 45, 80
3, 59424, Note_on_c, 1, 52, 80
3, 59520, Note_on_c, 1, 45, 0
3, 59520, Note_on_c, 1, 52, 0
3, 59520, Note_on_c, 1, 55, 86
3, 59614, Note_on_c, 1, 55, 0
3, 59616, Note_on_c, 1, 50, 92
3, 59648, Note_on_c, 1, 50, 0
3, 59712, Note_on_c, 1, 54, 92
3, 59744, Note_on_c, 1, 54, 0
3, 59808, Note_on_c, 1, 57, 92
3, 59840, Note_on_c, 1, 57, 0
3, 59904, Note_on_c, 1, 54, 92
3, 59936, Note_on_c, 1, 54, 0
3, 60000, Note_on_c, 1, 50, 92
3, 60032, Note_on_c, 1, 50, 0
3, 60096, Note_on_c, 1, 54, 92
3, 60128, Note_on_c, 1, 54, 0
3, 60192, Note_on_c, 1, 57, 92
3, 60224, Note_on_c, 1, 57, 0
3, 60288, Note_on_c, 1, 54, 92
3, 60320, Note_on_c, 1, 54, 0
3, 60384, Note_on_c, 1, 50, 92
3, 60544, Note_on_c, 1, 50, 0
3, 60576, Note_on_c, 1, 62, 92
3, 60736, Note_on_c, 1, 62, 0
3, 60768, Note_on_c, 1, 50, 92
3, 60928, Note_on_c, 1, 50, 0
3, 60928, End_track
0, 0, End_of_file