0, 0, Header, 1, 5, 240
1, 0, Start_track
1, 0, Time_signature, 2, 2, 24, 8
1, 0, Key_signature, 0, "major"
1, 0, Tempo, 833333
1, 84240, Tempo, 937500
1, 84480, Tempo, 1071429
1, 84720, Tempo, 1250000
1, 84960, Tempo, 750000
1, 105360, Tempo, 895522
1, 105600, Tempo, 1090909
1, 105840, Tempo, 1428571
1, 106080, Tempo, 416667
1, 106800, Tempo, 416667
1, 126960, Tempo, 560748
1, 127200, Tempo, 666667
1, 148080, Tempo, 740741
1, 148320, Tempo, 833333
1, 168720, Tempo, 909091
1, 168960, Tempo, 983607
1, 169200, Tempo, 1090909
1, 169440, Tempo, 1071429
1, 189840, Tempo, 1153846
1, 190080, Tempo, 1250000
1, 190320, Tempo, 1363636
1, 190560, Tempo, 833333
1, 200400, Tempo, 937500
1, 200640, Tempo, 1071429
1, 200880, Tempo, 1250000
1, 201120, Tempo, 769231
1, 210960, Tempo, 857143
1, 211200, Tempo, 967742
1, 211440, Tempo, 1111111
1, 211680, Time_signature, 4, 2, 24, 8
1, 211680, Tempo, 1304348
1, 231120, Tempo, 1363636
1, 231360, Tempo, 1428571
1, 231600, Tempo, 1463415
1, 231840, Tempo, 1538462
1, 232080, Tempo, 1621622
1, 232320, Tempo, 1714286
1, 232560, Tempo, 1764706
1, 232800, Time_signature, 3, 2, 24, 8
1, 232800, Tempo, 454545
1, 267360, Time_signature, 4, 2, 24, 8
1, 267360, Tempo, 300000
1, 268560, Tempo, 363636
1, 268800, Tempo, 461538
1, 269040, Tempo, 631579
1, 269280, Tempo, 1000000
1, 269520, Tempo, 281690
1, 269760, Tempo, 266667
1, 270000, Tempo, 252101
1, 270240, Tempo, 400000
1, 270480, Tempo, 368098
1, 270720, Tempo, 342857
1, 270960, Tempo, 319149
1, 271200, Tempo, 300000
1, 271440, Tempo, 342857
1, 271680, Tempo, 400000
1, 271920, Tempo, 480000
1, 272160, Tempo, 400000
1, 272400, Tempo, 437956
1, 272640, Tempo, 480000
1, 272880, Tempo, 535714
1, 273120, Tempo, 600000
1, 273120, End_track
2, 0, Start_track
2, 0, MIDI_port, 0
2, 0, Title_t, "Variations on ""Je Suis Lindor"""
2, 0, Program_c, 0, 0
2, 0, Control_c, 0, 7, 127
2, 0, Control_c, 0, 10, 80
2, 375, Note_on_c, 0, 39, 72
2, 390, Note_on_c, 0, 43, 72
2, 405, Note_on_c, 0, 46, 72
2, 420, Note_on_c, 0, 55, 72
2, 435, Note_on_c, 0, 58, 72
2, 450, Note_on_c, 0, 63, 72
2, 465, Note_on_c, 0, 67, 72
2, 480, Note_on_c, 0, 70, 72
2, 672, Note_on_c, 0, 70, 0
2, 672, Note_on_c, 0, 39, 0
2, 672, Note_on_c, 0, 58, 0
2, 672, Note_on_c, 0, 43, 0
2, 672, Note_on_c, 0, 46, 0
2, 672, Note_on_c, 0, 55, 0
2, 672, Note_on_c, 0, 63, 0
2, 672, Note_on_c, 0, 67, 0
2, 720, Note_on_c, 0, 67, 72
2, 780, Note_on_c, 0, 67, 0
2, 840, Note_on_c, 0, 67, 72
2, 900, Note_on_c, 0, 67, 0
2, 960, Note_on_c, 0, 67, 72
2, 1248, Note_on_c, 0, 67, 0
2, 1320, Note_on_c, 0, 63, 72
2, 1440, Note_on_c, 0, 63, 0
2, 1440, Note_on_c, 0, 65, 72
2, 1464, Note_on_c, 0, 65, 0
2, 1560, Note_on_c, 0, 65, 72
2, 1584, Note_on_c, 0, 65, 0
2, 1680, Note_on_c, 0, 65, 72
2, 1800, Note_on_c, 0, 65, 0
2, 1800, Note_on_c, 0, 67, 72
2, 1920, Note_on_c, 0, 67, 0
2, 1920, Note_on_c, 0, 70, 72
2, 2040, Note_on_c, 0, 70, 0
2, 2040, Note_on_c, 0, 70, 72
2, 2070, Note_on_c, 0, 70, 0
2, 2070, Note_on_c, 0, 68, 72
2, 2100, Note_on_c, 0, 68, 0
2, 2100, Note_on_c, 0, 67, 72
2, 2130, Note_on_c, 0, 67, 0
2, 2130, Note_on_c, 0, 68, 72
2, 2160, Note_on_c, 0, 68, 0
2, 2160, Note_on_c, 0, 67, 72
2, 2280, Note_on_c, 0, 67, 0
2, 2370, Note_on_c, 0, 67, 80
2, 2382, Note_on_c, 0, 67, 0
2, 2385, Note_on_c, 0, 70, 80
2, 2397, Note_on_c, 0, 70, 0
2, 2400, Note_on_c, 0, 75, 72
2, 2592, Note_on_c, 0, 75, 0
2, 2640, Note_on_c, 0, 74, 72
2, 2664, Note_on_c, 0, 74, 0
2, 2760, Note_on_c, 0, 74, 56
2, 2820, Note_on_c, 0, 74, 0
2, 2820, Note_on_c, 0, 77, 56
2, 2880, Note_on_c, 0, 77, 0
2, 2880, Note_on_c, 0, 75, 56
2, 3120, Note_on_c, 0, 75, 0
2, 3120, Note_on_c, 0, 74, 56
2, 3144, Note_on_c, 0, 74, 0
2, 3240, Note_on_c, 0, 74, 72
2, 3300, Note_on_c, 0, 74, 0
2, 3300, Note_on_c, 0, 77, 72
2, 3360, Note_on_c, 0, 77, 0
2, 3360, Note_on_c, 0, 75, 72
2, 3456, Note_on_c, 0, 75, 0
2, 3480, Note_on_c, 0, 70, 72
2, 3600, Note_on_c, 0, 70, 0
2, 3600, Note_on_c, 0, 68, 72
2, 3720, Note_on_c, 0, 68, 0
2, 3720, Note_on_c, 0, 67, 72
2, 3840, Note_on_c, 0, 67, 0
2, 3840, Note_on_c, 0, 67, 72
2, 4080, Note_on_c, 0, 67, 0
2, 4080, Note_on_c, 0, 65, 64
2, 4176, Note_on_c, 0, 65, 0
2, 4215, Note_on_c, 0, 39, 72
2, 4230, Note_on_c, 0, 43, 72
2, 4245, Note_on_c, 0, 46, 72
2, 4260, Note_on_c, 0, 55, 72
2, 4275, Note_on_c, 0, 58, 72
2, 4290, Note_on_c, 0, 63, 72
2, 4305, Note_on_c, 0, 67, 72
2, 4320, Note_on_c, 0, 70, 72
2, 4512, Note_on_c, 0, 70, 0
2, 4512, Note_on_c, 0, 39, 0
2, 4512, Note_on_c, 0, 58, 0
2, 4512, Note_on_c, 0, 43, 0
2, 4512, Note_on_c, 0, 46, 0
2, 4512, Note_on_c, 0, 55, 0
2, 4512, Note_on_c, 0, 63, 0
2, 4512, Note_on_c, 0, 67, 0
2, 4560, Note_on_c, 0, 67, 72
2, 4608, Note_on_c, 0, 67, 0
2, 4680, Note_on_c, 0, 67, 72
2, 4728, Note_on_c, 0, 67, 0
2, 4800, Note_on_c, 0, 67, 72
2, 5088, Note_on_c, 0, 67, 0
2, 5160, Note_on_c, 0, 63, 64
2, 5256, Note_on_c, 0, 63, 0
2, 5280, Note_on_c, 0, 65, 72
2, 5304, Note_on_c, 0, 65, 0
2, 5400, Note_on_c, 0, 65, 72
2, 5424, Note_on_c, 0, 65, 0
2, 5520, Note_on_c, 0, 65, 72
2, 5640, Note_on_c, 0, 65, 0
2, 5640, Note_on_c, 0, 67, 72
2, 5760, Note_on_c, 0, 67, 0
2, 5760, Note_on_c, 0, 70, 72
2, 5880, Note_on_c, 0, 70, 0
2, 5880, Note_on_c, 0, 70, 72
2, 5910, Note_on_c, 0, 70, 0
2, 5910, Note_on_c, 0, 68, 72
2, 5940, Note_on_c, 0, 68, 0
2, 5940, Note_on_c, 0, 67, 72
2, 5970, Note_on_c, 0, 67, 0
2, 5970, Note_on_c, 0, 68, 72
2, 6000, Note_on_c, 0, 68, 0
2, 6000, Note_on_c, 0, 67, 72
2, 6120, Note_on_c, 0, 67, 0
2, 6210, Note_on_c, 0, 67, 80
2, 6222, Note_on_c, 0, 67, 0
2, 6225, Note_on_c, 0, 70, 80
2, 6237, Note_on_c, 0, 70, 0
2, 6240, Note_on_c, 0, 75, 72
2, 6432, Note_on_c, 0, 75, 0
2, 6480, Note_on_c, 0, 74, 72
2, 6504, Note_on_c, 0, 74, 0
2, 6600, Note_on_c, 0, 74, 56
2, 6660, Note_on_c, 0, 74, 0
2, 6660, Note_on_c, 0, 77, 56
2, 6720, Note_on_c, 0, 77, 0
2, 6720, Note_on_c, 0, 75, 56
2, 6960, Note_on_c, 0, 75, 0
2, 6960, Note_on_c, 0, 74, 56
2, 6984, Note_on_c, 0, 74, 0
2, 7080, Note_on_c, 0, 74, 72
2, 7140, Note_on_c, 0, 74, 0
2, 7140, Note_on_c, 0, 77, 72
2, 7200, Note_on_c, 0, 77, 0
2, 7200, Note_on_c, 0, 75, 72
2, 7296, Note_on_c, 0, 75, 0
2, 7320, Note_on_c, 0, 70, 72
2, 7440, Note_on_c, 0, 70, 0
2, 7440, Note_on_c, 0, 68, 72
2, 7560, Note_on_c, 0, 68, 0
2, 7560, Note_on_c, 0, 67, 72
2, 7680, Note_on_c, 0, 67, 0
2, 7680, Note_on_c, 0, 67, 72
2, 7920, Note_on_c, 0, 67, 0
2, 7920, Note_on_c, 0, 65, 64
2, 8016, Note_on_c, 0, 65, 0
2, 8160, Note_on_c, 0, 65, 80
2, 8352, Note_on_c, 0, 65, 0
2, 8400, Note_on_c, 0, 65, 80
2, 8520, Note_on_c, 0, 65, 0
2, 8520, Note_on_c, 0, 68, 80
2, 8640, Note_on_c, 0, 68, 0
2, 8640, Note_on_c, 0, 68, 80
2, 8832, Note_on_c, 0, 68, 0
2, 8880, Note_on_c, 0, 67, 80
2, 9000, Note_on_c, 0, 67, 0
2, 9000, Note_on_c, 0, 70, 80
2, 9048, Note_on_c, 0, 70, 0
2, 9120, Note_on_c, 0, 70, 80
2, 9240, Note_on_c, 0, 70, 0
2, 9240, Note_on_c, 0, 65, 80
2, 9288, Note_on_c, 0, 65, 0
2, 9360, Note_on_c, 0, 65, 80
2, 9408, Note_on_c, 0, 65, 0
2, 9480, Note_on_c, 0, 68, 80
2, 9528, Note_on_c, 0, 68, 0
2, 9600, Note_on_c, 0, 68, 80
2, 9792, Note_on_c, 0, 68, 0
2, 9840, Note_on_c, 0, 67, 80
2, 9936, Note_on_c, 0, 67, 0
2, 9960, Note_on_c, 0, 70, 80
2, 10056, Note_on_c, 0, 70, 0
2, 10080, Note_on_c, 0, 75, 80
2, 10176, Note_on_c, 0, 75, 0
2, 10200, Note_on_c, 0, 74, 80
2, 10392, Note_on_c, 0, 74, 0
2, 10440, Note_on_c, 0, 72, 80
2, 10488, Note_on_c, 0, 72, 0
2, 10500, Note_on_c, 0, 70, 80
2, 10548, Note_on_c, 0, 70, 0
2, 10560, Note_on_c, 0, 75, 80
2, 10656, Note_on_c, 0, 75, 0
2, 10680, Note_on_c, 0, 74, 80
2, 10872, Note_on_c, 0, 74, 0
2, 10920, Note_on_c, 0, 72, 80
2, 10968, Note_on_c, 0, 72, 0
2, 10980, Note_on_c, 0, 70, 80
2, 11028, Note_on_c, 0, 70, 0
2, 11040, Note_on_c, 0, 75, 80
2, 11136, Note_on_c, 0, 75, 0
2, 11160, Note_on_c, 0, 70, 80
2, 11256, Note_on_c, 0, 70, 0
2, 11280, Note_on_c, 0, 74, 80
2, 11328, Note_on_c, 0, 74, 0
2, 11340, Note_on_c, 0, 72, 80
2, 11364, Note_on_c, 0, 72, 0
2, 11400, Note_on_c, 0, 70, 80
2, 11424, Note_on_c, 0, 70, 0
2, 11460, Note_on_c, 0, 68, 80
2, 11484, Note_on_c, 0, 68, 0
2, 11520, Note_on_c, 0, 67, 80
2, 11712, Note_on_c, 0, 67, 0
2, 11760, Note_on_c, 0, 65, 80
2, 11952, Note_on_c, 0, 65, 0
2, 12000, Note_on_c, 0, 65, 80
2, 12096, Note_on_c, 0, 65, 0
2, 12120, Note_on_c, 0, 66, 80
2, 12216, Note_on_c, 0, 66, 0
2, 12240, Note_on_c, 0, 67, 80
2, 12336, Note_on_c, 0, 67, 0
2, 12360, Note_on_c, 0, 70, 80
2, 12456, Note_on_c, 0, 70, 0
2, 12480, Note_on_c, 0, 75, 80
2, 12600, Note_on_c, 0, 75, 0
2, 12600, Note_on_c, 0, 74, 80
2, 12840, Note_on_c, 0, 74, 0
2, 12840, Note_on_c, 0, 72, 80
2, 12900, Note_on_c, 0, 72, 0
2, 12900, Note_on_c, 0, 70, 80
2, 12960, Note_on_c, 0, 70, 0
2, 12960, Note_on_c, 0, 75, 80
2, 13080, Note_on_c, 0, 75, 0
2, 13080, Note_on_c, 0, 74, 80
2, 13320, Note_on_c, 0, 74, 0
2, 13320, Note_on_c, 0, 72, 80
2, 13380, Note_on_c, 0, 72, 0
2, 13380, Note_on_c, 0, 70, 80
2, 13440, Note_on_c, 0, 70, 0
2, 13440, Note_on_c, 0, 75, 80
2, 13500, Note_on_c, 0, 75, 0
2, 13500, Note_on_c, 0, 74, 80
2, 13524, Note_on_c, 0, 74, 0
2, 13560, Note_on_c, 0, 75, 80
2, 13584, Note_on_c, 0, 75, 0
2, 13620, Note_on_c, 0, 70, 80
2, 13644, Note_on_c, 0, 70, 0
2, 13680, Note_on_c, 0, 74, 80
2, 13740, Note_on_c, 0, 74, 0
2, 13740, Note_on_c, 0, 72, 80
2, 13800, Note_on_c, 0, 72, 0
2, 13800, Note_on_c, 0, 70, 80
2, 13860, Note_on_c, 0, 70, 0
2, 13860, Note_on_c, 0, 68, 80
2, 13920, Note_on_c, 0, 68, 0
2, 13920, Note_on_c, 0, 67, 80
2, 14112, Note_on_c, 0, 67, 0
2, 14160, Note_on_c, 0, 67, 80
2, 14220, Note_on_c, 0, 67, 0
2, 14220, Note_on_c, 0, 65, 80
2, 14280, Note_on_c, 0, 65, 0
2, 14280, Note_on_c, 0, 63, 80
2, 14340, Note_on_c, 0, 63, 0
2, 14340, Note_on_c, 0, 65, 80
2, 14400, Note_on_c, 0, 65, 0
2, 14400, Note_on_c, 0, 63, 80
2, 14640, Note_on_c, 0, 63, 0
2, 14880, Note_on_c, 0, 65, 80
2, 15072, Note_on_c, 0, 65, 0
2, 15120, Note_on_c, 0, 65, 80
2, 15216, Note_on_c, 0, 65, 0
2, 15240, Note_on_c, 0, 68, 80
2, 15336, Note_on_c, 0, 68, 0
2, 15360, Note_on_c, 0, 68, 80
2, 15552, Note_on_c, 0, 68, 0
2, 15600, Note_on_c, 0, 67, 80
2, 15696, Note_on_c, 0, 67, 0
2, 15720, Note_on_c, 0, 70, 80
2, 15816, Note_on_c, 0, 70, 0
2, 15840, Note_on_c, 0, 70, 80
2, 15936, Note_on_c, 0, 70, 0
2, 15960, Note_on_c, 0, 65, 80
2, 16056, Note_on_c, 0, 65, 0
2, 16080, Note_on_c, 0, 65, 80
2, 16176, Note_on_c, 0, 65, 0
2, 16200, Note_on_c, 0, 68, 80
2, 16296, Note_on_c, 0, 68, 0
2, 16320, Note_on_c, 0, 68, 80
2, 16512, Note_on_c, 0, 68, 0
2, 16560, Note_on_c, 0, 67, 80
2, 16656, Note_on_c, 0, 67, 0
2, 16680, Note_on_c, 0, 70, 80
2, 16776, Note_on_c, 0, 70, 0
2, 16800, Note_on_c, 0, 75, 80
2, 16896, Note_on_c, 0, 75, 0
2, 16920, Note_on_c, 0, 74, 80
2, 17112, Note_on_c, 0, 74, 0
2, 17160, Note_on_c, 0, 72, 80
2, 17208, Note_on_c, 0, 72, 0
2, 17220, Note_on_c, 0, 70, 80
2, 17268, Note_on_c, 0, 70, 0
2, 17280, Note_on_c, 0, 75, 80
2, 17376, Note_on_c, 0, 75, 0
2, 17400, Note_on_c, 0, 74, 80
2, 17592, Note_on_c, 0, 74, 0
2, 17640, Note_on_c, 0, 72, 80
2, 17688, Note_on_c, 0, 72, 0
2, 17700, Note_on_c, 0, 70, 80
2, 17748, Note_on_c, 0, 70, 0
2, 17760, Note_on_c, 0, 75, 80
2, 17856, Note_on_c, 0, 75, 0
2, 17880, Note_on_c, 0, 70, 80
2, 17976, Note_on_c, 0, 70, 0
2, 18000, Note_on_c, 0, 74, 80
2, 18048, Note_on_c, 0, 74, 0
2, 18060, Note_on_c, 0, 72, 80
2, 18108, Note_on_c, 0, 72, 0
2, 18120, Note_on_c, 0, 70, 80
2, 18168, Note_on_c, 0, 70, 0
2, 18180, Note_on_c, 0, 68, 80
2, 18228, Note_on_c, 0, 68, 0
2, 18240, Note_on_c, 0, 67, 80
2, 18432, Note_on_c, 0, 67, 0
2, 18480, Note_on_c, 0, 65, 80
2, 18672, Note_on_c, 0, 65, 0
2, 18720, Note_on_c, 0, 65, 80
2, 18816, Note_on_c, 0, 65, 0
2, 18840, Note_on_c, 0, 66, 80
2, 18936, Note_on_c, 0, 66, 0
2, 18960, Note_on_c, 0, 67, 80
2, 19056, Note_on_c, 0, 67, 0
2, 19080, Note_on_c, 0, 70, 80
2, 19176, Note_on_c, 0, 70, 0
2, 19200, Note_on_c, 0, 75, 80
2, 19296, Note_on_c, 0, 75, 0
2, 19320, Note_on_c, 0, 74, 80
2, 19512, Note_on_c, 0, 74, 0
2, 19560, Note_on_c, 0, 72, 80
2, 19608, Note_on_c, 0, 72, 0
2, 19620, Note_on_c, 0, 70, 80
2, 19668, Note_on_c, 0, 70, 0
2, 19680, Note_on_c, 0, 75, 80
2, 19776, Note_on_c, 0, 75, 0
2, 19800, Note_on_c, 0, 74, 80
2, 19992, Note_on_c, 0, 74, 0
2, 20040, Note_on_c, 0, 72, 80
2, 20088, Note_on_c, 0, 72, 0
2, 20100, Note_on_c, 0, 70, 80
2, 20148, Note_on_c, 0, 70, 0
2, 20160, Note_on_c, 0, 75, 80
2, 20208, Note_on_c, 0, 75, 0
2, 20220, Note_on_c, 0, 74, 80
2, 20268, Note_on_c, 0, 74, 0
2, 20280, Note_on_c, 0, 75, 80
2, 20328, Note_on_c, 0, 75, 0
2, 20340, Note_on_c, 0, 70, 80
2, 20388, Note_on_c, 0, 70, 0
2, 20400, Note_on_c, 0, 74, 80
2, 20448, Note_on_c, 0, 74, 0
2, 20460, Note_on_c, 0, 72, 80
2, 20508, Note_on_c, 0, 72, 0
2, 20520, Note_on_c, 0, 70, 80
2, 20568, Note_on_c, 0, 70, 0
2, 20580, Note_on_c, 0, 68, 80
2, 20628, Note_on_c, 0, 68, 0
2, 20640, Note_on_c, 0, 67, 80
2, 20832, Note_on_c, 0, 67, 0
2, 20880, Note_on_c, 0, 67, 80
2, 20928, Note_on_c, 0, 67, 0
2, 20940, Note_on_c, 0, 65, 80
2, 20988, Note_on_c, 0, 65, 0
2, 21000, Note_on_c, 0, 63, 80
2, 21048, Note_on_c, 0, 63, 0
2, 21060, Note_on_c, 0, 65, 80
2, 21108, Note_on_c, 0, 65, 0
2, 21120, Note_on_c, 0, 63, 80
2, 21312, Note_on_c, 0, 63, 0
2, 21600, Note_on_c, 0, 69, 80
2, 21660, Note_on_c, 0, 69, 0
2, 21660, Note_on_c, 0, 70, 80
2, 21720, Note_on_c, 0, 70, 0
2, 21720, Note_on_c, 0, 66, 80
2, 21780, Note_on_c, 0, 66, 0
2, 21780, Note_on_c, 0, 67, 80
2, 21840, Note_on_c, 0, 67, 0
2, 21840, Note_on_c, 0, 66, 80
2, 21900, Note_on_c, 0, 66, 0
2, 21900, Note_on_c, 0, 67, 80
2, 21960, Note_on_c, 0, 67, 0
2, 21960, Note_on_c, 0, 66, 80
2, 22020, Note_on_c, 0, 66, 0
2, 22020, Note_on_c, 0, 67, 80
2, 22080, Note_on_c, 0, 67, 0
2, 22080, Note_on_c, 0, 66, 80
2, 22140, Note_on_c, 0, 66, 0
2, 22140, Note_on_c, 0, 67, 80
2, 22200, Note_on_c, 0, 67, 0
2, 22200, Note_on_c, 0, 62, 80
2, 22260, Note_on_c, 0, 62, 0
2, 22260, Note_on_c, 0, 63, 80
2, 22320, Note_on_c, 0, 63, 0
2, 22320, Note_on_c, 0, 62, 80
2, 22380, Note_on_c, 0, 62, 0
2, 22380, Note_on_c, 0, 63, 80
2, 22440, Note_on_c, 0, 63, 0
2, 22440, Note_on_c, 0, 62, 80
2, 22500, Note_on_c, 0, 62, 0
2, 22500, Note_on_c, 0, 63, 80
2, 22560, Note_on_c, 0, 63, 0
2, 22560, Note_on_c, 0, 64, 80
2, 22608, Note_on_c, 0, 64, 0
2, 22620, Note_on_c, 0, 65, 80
2, 22668, Note_on_c, 0, 65, 0
2, 22680, Note_on_c, 0, 67, 80
2, 22728, Note_on_c, 0, 67, 0
2, 22740, Note_on_c, 0, 65, 80
2, 22788, Note_on_c, 0, 65, 0
2, 22800, Note_on_c, 0, 67, 80
2, 22848, Note_on_c, 0, 67, 0
2, 22860, Note_on_c, 0, 65, 80
2, 22908, Note_on_c, 0, 65, 0
2, 22920, Note_on_c, 0, 68, 80
2, 22968, Note_on_c, 0, 68, 0
2, 22980, Note_on_c, 0, 67, 80
2, 23028, Note_on_c, 0, 67, 0
2, 23040, Note_on_c, 0, 70, 80
2, 23088, Note_on_c, 0, 70, 0
2, 23100, Note_on_c, 0, 68, 80
2, 23148, Note_on_c, 0, 68, 0
2, 23160, Note_on_c, 0, 72, 80
2, 23208, Note_on_c, 0, 72, 0
2, 23220, Note_on_c, 0, 68, 80
2, 23268, Note_on_c, 0, 68, 0
2, 23280, Note_on_c, 0, 66, 80
2, 23328, Note_on_c, 0, 66, 0
2, 23340, Note_on_c, 0, 67, 80
2, 23388, Note_on_c, 0, 67, 0
2, 23400, Note_on_c, 0, 68, 80
2, 23448, Note_on_c, 0, 68, 0
2, 23460, Note_on_c, 0, 67, 80
2, 23508, Note_on_c, 0, 67, 0
2, 23520, Note_on_c, 0, 75, 80
2, 23568, Note_on_c, 0, 75, 0
2, 23580, Note_on_c, 0, 79, 80
2, 23628, Note_on_c, 0, 79, 0
2, 23640, Note_on_c, 0, 77, 80
2, 23688, Note_on_c, 0, 77, 0
2, 23700, Note_on_c, 0, 75, 80
2, 23748, Note_on_c, 0, 75, 0
2, 23760, Note_on_c, 0, 74, 80
2, 23808, Note_on_c, 0, 74, 0
2, 24000, Note_on_c, 0, 75, 80
2, 24048, Note_on_c, 0, 75, 0
2, 24060, Note_on_c, 0, 79, 80
2, 24108, Note_on_c, 0, 79, 0
2, 24120, Note_on_c, 0, 77, 80
2, 24168, Note_on_c, 0, 77, 0
2, 24180, Note_on_c, 0, 75, 80
2, 24228, Note_on_c, 0, 75, 0
2, 24240, Note_on_c, 0, 74, 80
2, 24288, Note_on_c, 0, 74, 0
2, 24480, Note_on_c, 0, 75, 80
2, 24528, Note_on_c, 0, 75, 0
2, 24540, Note_on_c, 0, 74, 80
2, 24588, Note_on_c, 0, 74, 0
2, 24600, Note_on_c, 0, 72, 80
2, 24648, Note_on_c, 0, 72, 0
2, 24660, Note_on_c, 0, 70, 80
2, 24708, Note_on_c, 0, 70, 0
2, 24720, Note_on_c, 0, 69, 80
2, 24768, Note_on_c, 0, 69, 0
2, 24780, Note_on_c, 0, 68, 80
2, 24828, Note_on_c, 0, 68, 0
2, 24840, Note_on_c, 0, 67, 80
2, 24888, Note_on_c, 0, 67, 0
2, 24900, Note_on_c, 0, 70, 80
2, 24948, Note_on_c, 0, 70, 0
2, 24960, Note_on_c, 0, 68, 80
2, 25056, Note_on_c, 0, 68, 0
2, 25080, Note_on_c, 0, 68, 80
2, 25104, Note_on_c, 0, 68, 0
2, 25110, Note_on_c, 0, 67, 80
2, 25134, Note_on_c, 0, 67, 0
2, 25140, Note_on_c, 0, 65, 80
2, 25164, Note_on_c, 0, 65, 0
2, 25170, Note_on_c, 0, 67, 80
2, 25194, Note_on_c, 0, 67, 0
2, 25200, Note_on_c, 0, 65, 80
2, 25392, Note_on_c, 0, 65, 0
2, 25440, Note_on_c, 0, 69, 80
2, 25488, Note_on_c, 0, 69, 0
2, 25500, Note_on_c, 0, 70, 80
2, 25548, Note_on_c, 0, 70, 0
2, 25560, Note_on_c, 0, 66, 80
2, 25608, Note_on_c, 0, 66, 0
2, 25620, Note_on_c, 0, 67, 80
2, 25668, Note_on_c, 0, 67, 0
2, 25680, Note_on_c, 0, 66, 80
2, 25728, Note_on_c, 0, 66, 0
2, 25740, Note_on_c, 0, 67, 80
2, 25788, Note_on_c, 0, 67, 0
2, 25800, Note_on_c, 0, 66, 80
2, 25848, Note_on_c, 0, 66, 0
2, 25860, Note_on_c, 0, 67, 80
2, 25908, Note_on_c, 0, 67, 0
2, 25920, Note_on_c, 0, 66, 80
2, 25968, Note_on_c, 0, 66, 0
2, 25980, Note_on_c, 0, 67, 80
2, 26028, Note_on_c, 0, 67, 0
2, 26040, Note_on_c, 0, 62, 80
2, 26088, Note_on_c, 0, 62, 0
2, 26100, Note_on_c, 0, 63, 80
2, 26148, Note_on_c, 0, 63, 0
2, 26160, Note_on_c, 0, 62, 80
2, 26208, Note_on_c, 0, 62, 0
2, 26220, Note_on_c, 0, 63, 80
2, 26268, Note_on_c, 0, 63, 0
2, 26280, Note_on_c, 0, 62, 80
2, 26328, Note_on_c, 0, 62, 0
2, 26340, Note_on_c, 0, 63, 80
2, 26388, Note_on_c, 0, 63, 0
2, 26400, Note_on_c, 0, 64, 80
2, 26448, Note_on_c, 0, 64, 0
2, 26460, Note_on_c, 0, 65, 80
2, 26508, Note_on_c, 0, 65, 0
2, 26520, Note_on_c, 0, 67, 80
2, 26568, Note_on_c, 0, 67, 0
2, 26580, Note_on_c, 0, 65, 80
2, 26628, Note_on_c, 0, 65, 0
2, 26640, Note_on_c, 0, 67, 80
2, 26688, Note_on_c, 0, 67, 0
2, 26700, Note_on_c, 0, 65, 80
2, 26748, Note_on_c, 0, 65, 0
2, 26760, Note_on_c, 0, 68, 80
2, 26808, Note_on_c, 0, 68, 0
2, 26820, Note_on_c, 0, 67, 80
2, 26868, Note_on_c, 0, 67, 0
2, 26880, Note_on_c, 0, 70, 80
2, 26928, Note_on_c, 0, 70, 0
2, 26940, Note_on_c, 0, 68, 80
2, 26988, Note_on_c, 0, 68, 0
2, 27000, Note_on_c, 0, 72, 80
2, 27048, Note_on_c, 0, 72, 0
2, 27060, Note_on_c, 0, 68, 80
2, 27108, Note_on_c, 0, 68, 0
2, 27120, Note_on_c, 0, 66, 80
2, 27168, Note_on_c, 0, 66, 0
2, 27180, Note_on_c, 0, 67, 80
2, 27228, Note_on_c, 0, 67, 0
2, 27240, Note_on_c, 0, 68, 80
2, 27288, Note_on_c, 0, 68, 0
2, 27300, Note_on_c, 0, 67, 80
2, 27348, Note_on_c, 0, 67, 0
2, 27360, Note_on_c, 0, 75, 80
2, 27408, Note_on_c, 0, 75, 0
2, 27420, Note_on_c, 0, 79, 80
2, 27468, Note_on_c, 0, 79, 0
2, 27480, Note_on_c, 0, 77, 80
2, 27528, Note_on_c, 0, 77, 0
2, 27540, Note_on_c, 0, 75, 80
2, 27588, Note_on_c, 0, 75, 0
2, 27600, Note_on_c, 0, 74, 80
2, 27648, Note_on_c, 0, 74, 0
2, 27840, Note_on_c, 0, 75, 80
2, 27888, Note_on_c, 0, 75, 0
2, 27900, Note_on_c, 0, 79, 80
2, 27948, Note_on_c, 0, 79, 0
2, 27960, Note_on_c, 0, 77, 80
2, 28008, Note_on_c, 0, 77, 0
2, 28020, Note_on_c, 0, 75, 80
2, 28068, Note_on_c, 0, 75, 0
2, 28080, Note_on_c, 0, 74, 80
2, 28128, Note_on_c, 0, 74, 0
2, 28320, Note_on_c, 0, 75, 80
2, 28368, Note_on_c, 0, 75, 0
2, 28380, Note_on_c, 0, 74, 80
2, 28428, Note_on_c, 0, 74, 0
2, 28440, Note_on_c, 0, 72, 80
2, 28488, Note_on_c, 0, 72, 0
2, 28500, Note_on_c, 0, 70, 80
2, 28548, Note_on_c, 0, 70, 0
2, 28560, Note_on_c, 0, 69, 80
2, 28608, Note_on_c, 0, 69, 0
2, 28620, Note_on_c, 0, 68, 80
2, 28668, Note_on_c, 0, 68, 0
2, 28680, Note_on_c, 0, 67, 80
2, 28728, Note_on_c, 0, 67, 0
2, 28740, Note_on_c, 0, 70, 80
2, 28788, Note_on_c, 0, 70, 0
2, 28800, Note_on_c, 0, 68, 80
2, 28896, Note_on_c, 0, 68, 0
2, 28920, Note_on_c, 0, 68, 80
2, 28944, Note_on_c, 0, 68, 0
2, 28950, Note_on_c, 0, 67, 80
2, 28974, Note_on_c, 0, 67, 0
2, 28980, Note_on_c, 0, 65, 80
2, 29004, Note_on_c, 0, 65, 0
2, 29010, Note_on_c, 0, 67, 80
2, 29034, Note_on_c, 0, 67, 0
2, 29040, Note_on_c, 0, 65, 80
2, 29232, Note_on_c, 0, 65, 0
2, 29280, Note_on_c, 0, 70, 56
2, 29340, Note_on_c, 0, 70, 0
2, 29340, Note_on_c, 0, 65, 56
2, 29400, Note_on_c, 0, 65, 0
2, 29400, Note_on_c, 0, 64, 56
2, 29460, Note_on_c, 0, 64, 0
2, 29460, Note_on_c, 0, 65, 56
2, 29520, Note_on_c, 0, 65, 0
2, 29520, Note_on_c, 0, 64, 56
2, 29580, Note_on_c, 0, 64, 0
2, 29580, Note_on_c, 0, 65, 56
2, 29640, Note_on_c, 0, 65, 0
2, 29640, Note_on_c, 0, 67, 56
2, 29700, Note_on_c, 0, 67, 0
2, 29700, Note_on_c, 0, 68, 56
2, 29760, Note_on_c, 0, 68, 0
2, 29760, Note_on_c, 0, 67, 56
2, 29820, Note_on_c, 0, 67, 0
2, 29820, Note_on_c, 0, 62, 56
2, 29880, Note_on_c, 0, 62, 0
2, 29880, Note_on_c, 0, 63, 56
2, 29940, Note_on_c, 0, 63, 0
2, 29940, Note_on_c, 0, 65, 56
2, 30000, Note_on_c, 0, 65, 0
2, 30000, Note_on_c, 0, 66, 56
2, 30060, Note_on_c, 0, 66, 0
2, 30060, Note_on_c, 0, 67, 56
2, 30120, Note_on_c, 0, 67, 0
2, 30120, Note_on_c, 0, 68, 56
2, 30180, Note_on_c, 0, 68, 0
2, 30180, Note_on_c, 0, 69, 56
2, 30240, Note_on_c, 0, 69, 0
2, 30240, Note_on_c, 0, 70, 56
2, 30300, Note_on_c, 0, 70, 0
2, 30300, Note_on_c, 0, 65, 56
2, 30360, Note_on_c, 0, 65, 0
2, 30360, Note_on_c, 0, 64, 56
2, 30420, Note_on_c, 0, 64, 0
2, 30420, Note_on_c, 0, 65, 56
2, 30480, Note_on_c, 0, 65, 0
2, 30480, Note_on_c, 0, 64, 56
2, 30540, Note_on_c, 0, 64, 0
2, 30540, Note_on_c, 0, 65, 56
2, 30600, Note_on_c, 0, 65, 0
2, 30600, Note_on_c, 0, 67, 56
2, 30660, Note_on_c, 0, 67, 0
2, 30660, Note_on_c, 0, 68, 56
2, 30720, Note_on_c, 0, 68, 0
2, 30720, Note_on_c, 0, 67, 56
2, 30780, Note_on_c, 0, 67, 0
2, 30780, Note_on_c, 0, 68, 56
2, 30840, Note_on_c, 0, 68, 0
2, 30840, Note_on_c, 0, 69, 56
2, 30900, Note_on_c, 0, 69, 0
2, 30900, Note_on_c, 0, 70, 56
2, 30960, Note_on_c, 0, 70, 0
2, 30960, Note_on_c, 0, 71, 56
2, 31020, Note_on_c, 0, 71, 0
2, 31020, Note_on_c, 0, 72, 56
2, 31080, Note_on_c, 0, 72, 0
2, 31080, Note_on_c, 0, 73, 56
2, 31140, Note_on_c, 0, 73, 0
2, 31140, Note_on_c, 0, 74, 56
2, 31200, Note_on_c, 0, 74, 0
2, 31200, Note_on_c, 0, 75, 80
2, 31248, Note_on_c, 0, 75, 0
2, 31260, Note_on_c, 0, 74, 80
2, 31308, Note_on_c, 0, 74, 0
2, 31320, Note_on_c, 0, 73, 80
2, 31368, Note_on_c, 0, 73, 0
2, 31380, Note_on_c, 0, 74, 80
2, 31428, Note_on_c, 0, 74, 0
2, 31680, Note_on_c, 0, 75, 80
2, 31728, Note_on_c, 0, 75, 0
2, 31740, Note_on_c, 0, 74, 80
2, 31788, Note_on_c, 0, 74, 0
2, 31800, Note_on_c, 0, 73, 80
2, 31848, Note_on_c, 0, 73, 0
2, 31860, Note_on_c, 0, 74, 80
2, 31908, Note_on_c, 0, 74, 0
2, 32160, Note_on_c, 0, 75, 80
2, 32208, Note_on_c, 0, 75, 0
2, 32220, Note_on_c, 0, 77, 80
2, 32268, Note_on_c, 0, 77, 0
2, 32280, Note_on_c, 0, 79, 80
2, 32328, Note_on_c, 0, 79, 0
2, 32340, Note_on_c, 0, 70, 80
2, 32388, Note_on_c, 0, 70, 0
2, 32400, Note_on_c, 0, 72, 80
2, 32448, Note_on_c, 0, 72, 0
2, 32460, Note_on_c, 0, 74, 80
2, 32508, Note_on_c, 0, 74, 0
2, 32520, Note_on_c, 0, 75, 80
2, 32568, Note_on_c, 0, 75, 0
2, 32580, Note_on_c, 0, 68, 80
2, 32628, Note_on_c, 0, 68, 0
2, 32640, Note_on_c, 0, 67, 80
2, 32688, Note_on_c, 0, 67, 0
2, 32700, Note_on_c, 0, 68, 80
2, 32748, Note_on_c, 0, 68, 0
2, 32760, Note_on_c, 0, 70, 80
2, 32808, Note_on_c, 0, 70, 0
2, 32820, Note_on_c, 0, 63, 80
2, 32868, Note_on_c, 0, 63, 0
2, 32880, Note_on_c, 0, 65, 80
2, 32928, Note_on_c, 0, 65, 0
2, 32940, Note_on_c, 0, 67, 80
2, 32988, Note_on_c, 0, 67, 0
2, 33000, Note_on_c, 0, 68, 80
2, 33048, Note_on_c, 0, 68, 0
2, 33060, Note_on_c, 0, 62, 80
2, 33108, Note_on_c, 0, 62, 0
2, 33120, Note_on_c, 0, 63, 80
2, 33168, Note_on_c, 0, 63, 0
2, 33180, Note_on_c, 0, 67, 80
2, 33228, Note_on_c, 0, 67, 0
2, 33240, Note_on_c, 0, 68, 80
2, 33288, Note_on_c, 0, 68, 0
2, 33300, Note_on_c, 0, 69, 80
2, 33348, Note_on_c, 0, 69, 0
2, 33360, Note_on_c, 0, 70, 80
2, 33408, Note_on_c, 0, 70, 0
2, 33420, Note_on_c, 0, 71, 80
2, 33468, Note_on_c, 0, 71, 0
2, 33480, Note_on_c, 0, 72, 80
2, 33528, Note_on_c, 0, 72, 0
2, 33540, Note_on_c, 0, 74, 80
2, 33588, Note_on_c, 0, 74, 0
2, 33600, Note_on_c, 0, 75, 80
2, 33648, Note_on_c, 0, 75, 0
2, 33660, Note_on_c, 0, 74, 80
2, 33708, Note_on_c, 0, 74, 0
2, 33720, Note_on_c, 0, 73, 80
2, 33768, Note_on_c, 0, 73, 0
2, 33780, Note_on_c, 0, 74, 80
2, 33828, Note_on_c, 0, 74, 0
2, 34080, Note_on_c, 0, 75, 80
2, 34128, Note_on_c, 0, 75, 0
2, 34140, Note_on_c, 0, 74, 80
2, 34188, Note_on_c, 0, 74, 0
2, 34200, Note_on_c, 0, 73, 80
2, 34248, Note_on_c, 0, 73, 0
2, 34260, Note_on_c, 0, 74, 80
2, 34308, Note_on_c, 0, 74, 0
2, 34560, Note_on_c, 0, 75, 80
2, 34608, Note_on_c, 0, 75, 0
2, 34620, Note_on_c, 0, 77, 80
2, 34668, Note_on_c, 0, 77, 0
2, 34680, Note_on_c, 0, 79, 80
2, 34728, Note_on_c, 0, 79, 0
2, 34740, Note_on_c, 0, 71, 80
2, 34788, Note_on_c, 0, 71, 0
2, 34800, Note_on_c, 0, 72, 80
2, 34848, Note_on_c, 0, 72, 0
2, 34860, Note_on_c, 0, 74, 80
2, 34908, Note_on_c, 0, 74, 0
2, 34920, Note_on_c, 0, 75, 80
2, 34968, Note_on_c, 0, 75, 0
2, 34980, Note_on_c, 0, 68, 80
2, 35028, Note_on_c, 0, 68, 0
2, 35040, Note_on_c, 0, 67, 80
2, 35088, Note_on_c, 0, 67, 0
2, 35100, Note_on_c, 0, 68, 80
2, 35148, Note_on_c, 0, 68, 0
2, 35160, Note_on_c, 0, 70, 80
2, 35208, Note_on_c, 0, 70, 0
2, 35220, Note_on_c, 0, 64, 80
2, 35268, Note_on_c, 0, 64, 0
2, 35280, Note_on_c, 0, 65, 80
2, 35328, Note_on_c, 0, 65, 0
2, 35340, Note_on_c, 0, 67, 80
2, 35388, Note_on_c, 0, 67, 0
2, 35400, Note_on_c, 0, 68, 80
2, 35448, Note_on_c, 0, 68, 0
2, 35460, Note_on_c, 0, 62, 80
2, 35508, Note_on_c, 0, 62, 0
2, 35520, Note_on_c, 0, 63, 80
2, 35712, Note_on_c, 0, 63, 0
2, 36000, Note_on_c, 0, 70, 56
2, 36048, Note_on_c, 0, 70, 0
2, 36060, Note_on_c, 0, 65, 56
2, 36108, Note_on_c, 0, 65, 0
2, 36120, Note_on_c, 0, 64, 56
2, 36168, Note_on_c, 0, 64, 0
2, 36180, Note_on_c, 0, 65, 56
2, 36228, Note_on_c, 0, 65, 0
2, 36240, Note_on_c, 0, 64, 56
2, 36288, Note_on_c, 0, 64, 0
2, 36300, Note_on_c, 0, 65, 56
2, 36348, Note_on_c, 0, 65, 0
2, 36360, Note_on_c, 0, 67, 56
2, 36408, Note_on_c, 0, 67, 0
2, 36420, Note_on_c, 0, 68, 56
2, 36468, Note_on_c, 0, 68, 0
2, 36480, Note_on_c, 0, 67, 56
2, 36540, Note_on_c, 0, 67, 0
2, 36540, Note_on_c, 0, 62, 56
2, 36600, Note_on_c, 0, 62, 0
2, 36600, Note_on_c, 0, 63, 56
2, 36660, Note_on_c, 0, 63, 0
2, 36660, Note_on_c, 0, 65, 56
2, 36720, Note_on_c, 0, 65, 0
2, 36720, Note_on_c, 0, 66, 56
2, 36780, Note_on_c, 0, 66, 0
2, 36780, Note_on_c, 0, 67, 56
2, 36840, Note_on_c, 0, 67, 0
2, 36840, Note_on_c, 0, 68, 56
2, 36900, Note_on_c, 0, 68, 0
2, 36900, Note_on_c, 0, 69, 56
2, 36960, Note_on_c, 0, 69, 0
2, 36960, Note_on_c, 0, 70, 56
2, 37020, Note_on_c, 0, 70, 0
2, 37020, Note_on_c, 0, 65, 56
2, 37080, Note_on_c, 0, 65, 0
2, 37080, Note_on_c, 0, 64, 56
2, 37140, Note_on_c, 0, 64, 0
2, 37140, Note_on_c, 0, 65, 56
2, 37200, Note_on_c, 0, 65, 0
2, 37200, Note_on_c, 0, 64, 56
2, 37260, Note_on_c, 0, 64, 0
2, 37260, Note_on_c, 0, 65, 56
2, 37320, Note_on_c, 0, 65, 0
2, 37320, Note_on_c, 0, 67, 56
2, 37380, Note_on_c, 0, 67, 0
2, 37380, Note_on_c, 0, 68, 56
2, 37440, Note_on_c, 0, 68, 0
2, 37440, Note_on_c, 0, 67, 56
2, 37500, Note_on_c, 0, 67, 0
2, 37500, Note_on_c, 0, 68, 56
2, 37560, Note_on_c, 0, 68, 0
2, 37560, Note_on_c, 0, 69, 56
2, 37620, Note_on_c, 0, 69, 0
2, 37620, Note_on_c, 0, 70, 56
2, 37680, Note_on_c, 0, 70, 0
2, 37680, Note_on_c, 0, 71, 56
2, 37740, Note_on_c, 0, 71, 0
2, 37740, Note_on_c, 0, 72, 56
2, 37800, Note_on_c, 0, 72, 0
2, 37800, Note_on_c, 0, 73, 56
2, 37860, Note_on_c, 0, 73, 0
2, 37860, Note_on_c, 0, 74, 56
2, 37920, Note_on_c, 0, 74, 0
2, 37920, Note_on_c, 0, 75, 80
2, 37980, Note_on_c, 0, 75, 0
2, 37980, Note_on_c, 0, 74, 80
2, 38040, Note_on_c, 0, 74, 0
2, 38040, Note_on_c, 0, 73, 80
2, 38100, Note_on_c, 0, 73, 0
2, 38100, Note_on_c, 0, 74, 80
2, 38160, Note_on_c, 0, 74, 0
2, 38400, Note_on_c, 0, 75, 80
2, 38448, Note_on_c, 0, 75, 0
2, 38460, Note_on_c, 0, 74, 80
2, 38508, Note_on_c, 0, 74, 0
2, 38520, Note_on_c, 0, 73, 80
2, 38568, Note_on_c, 0, 73, 0
2, 38580, Note_on_c, 0, 74, 80
2, 38628, Note_on_c, 0, 74, 0
2, 38880, Note_on_c, 0, 75, 80
2, 38928, Note_on_c, 0, 75, 0
2, 38940, Note_on_c, 0, 77, 80
2, 38988, Note_on_c, 0, 77, 0
2, 39000, Note_on_c, 0, 79, 80
2, 39024, Note_on_c, 0, 79, 0
2, 39060, Note_on_c, 0, 70, 80
2, 39084, Note_on_c, 0, 70, 0
2, 39120, Note_on_c, 0, 72, 80
2, 39168, Note_on_c, 0, 72, 0
2, 39180, Note_on_c, 0, 74, 80
2, 39228, Note_on_c, 0, 74, 0
2, 39240, Note_on_c, 0, 75, 80
2, 39264, Note_on_c, 0, 75, 0
2, 39300, Note_on_c, 0, 68, 80
2, 39324, Note_on_c, 0, 68, 0
2, 39360, Note_on_c, 0, 67, 80
2, 39408, Note_on_c, 0, 67, 0
2, 39420, Note_on_c, 0, 68, 80
2, 39468, Note_on_c, 0, 68, 0
2, 39480, Note_on_c, 0, 70, 80
2, 39504, Note_on_c, 0, 70, 0
2, 39540, Note_on_c, 0, 63, 80
2, 39564, Note_on_c, 0, 63, 0
2, 39600, Note_on_c, 0, 65, 80
2, 39648, Note_on_c, 0, 65, 0
2, 39660, Note_on_c, 0, 67, 80
2, 39708, Note_on_c, 0, 67, 0
2, 39720, Note_on_c, 0, 68, 80
2, 39744, Note_on_c, 0, 68, 0
2, 39780, Note_on_c, 0, 62, 80
2, 39804, Note_on_c, 0, 62, 0
2, 39840, Note_on_c, 0, 63, 80
2, 39888, Note_on_c, 0, 63, 0
2, 39900, Note_on_c, 0, 67, 80
2, 39948, Note_on_c, 0, 67, 0
2, 39960, Note_on_c, 0, 68, 80
2, 40008, Note_on_c, 0, 68, 0
2, 40020, Note_on_c, 0, 69, 80
2, 40068, Note_on_c, 0, 69, 0
2, 40080, Note_on_c, 0, 70, 80
2, 40128, Note_on_c, 0, 70, 0
2, 40140, Note_on_c, 0, 71, 80
2, 40188, Note_on_c, 0, 71, 0
2, 40200, Note_on_c, 0, 72, 80
2, 40248, Note_on_c, 0, 72, 0
2, 40260, Note_on_c, 0, 74, 80
2, 40308, Note_on_c, 0, 74, 0
2, 40320, Note_on_c, 0, 75, 80
2, 40368, Note_on_c, 0, 75, 0
2, 40380, Note_on_c, 0, 74, 80
2, 40428, Note_on_c, 0, 74, 0
2, 40440, Note_on_c, 0, 73, 80
2, 40488, Note_on_c, 0, 73, 0
2, 40500, Note_on_c, 0, 74, 80
2, 40548, Note_on_c, 0, 74, 0
2, 40800, Note_on_c, 0, 75, 80
2, 40848, Note_on_c, 0, 75, 0
2, 40860, Note_on_c, 0, 74, 80
2, 40908, Note_on_c, 0, 74, 0
2, 40920, Note_on_c, 0, 73, 80
2, 40968, Note_on_c, 0, 73, 0
2, 40980, Note_on_c, 0, 74, 80
2, 41028, Note_on_c, 0, 74, 0
2, 41280, Note_on_c, 0, 75, 80
2, 41328, Note_on_c, 0, 75, 0
2, 41340, Note_on_c, 0, 77, 80
2, 41388, Note_on_c, 0, 77, 0
2, 41400, Note_on_c, 0, 79, 80
2, 41424, Note_on_c, 0, 79, 0
2, 41460, Note_on_c, 0, 71, 80
2, 41484, Note_on_c, 0, 71, 0
2, 41520, Note_on_c, 0, 72, 80
2, 41568, Note_on_c, 0, 72, 0
2, 41580, Note_on_c, 0, 74, 80
2, 41628, Note_on_c, 0, 74, 0
2, 41640, Note_on_c, 0, 75, 80
2, 41664, Note_on_c, 0, 75, 0
2, 41700, Note_on_c, 0, 68, 80
2, 41724, Note_on_c, 0, 68, 0
2, 41760, Note_on_c, 0, 67, 80
2, 41808, Note_on_c, 0, 67, 0
2, 41820, Note_on_c, 0, 68, 80
2, 41868, Note_on_c, 0, 68, 0
2, 41880, Note_on_c, 0, 70, 80
2, 41928, Note_on_c, 0, 70, 0
2, 41940, Note_on_c, 0, 64, 80
2, 41988, Note_on_c, 0, 64, 0
2, 42000, Note_on_c, 0, 65, 80
2, 42048, Note_on_c, 0, 65, 0
2, 42060, Note_on_c, 0, 67, 80
2, 42108, Note_on_c, 0, 67, 0
2, 42120, Note_on_c, 0, 68, 80
2, 42168, Note_on_c, 0, 68, 0
2, 42180, Note_on_c, 0, 62, 80
2, 42228, Note_on_c, 0, 62, 0
2, 42240, Note_on_c, 0, 63, 80
2, 42432, Note_on_c, 0, 63, 0
2, 42720, Note_on_c, 0, 70, 80
2, 42816, Note_on_c, 0, 70, 0
2, 42840, Note_on_c, 0, 67, 80
2, 42888, Note_on_c, 0, 67, 0
2, 42960, Note_on_c, 0, 67, 80
2, 43008, Note_on_c, 0, 67, 0
2, 43080, Note_on_c, 0, 67, 80
2, 43128, Note_on_c, 0, 67, 0
2, 43200, Note_on_c, 0, 67, 80
2, 43488, Note_on_c, 0, 67, 0
2, 43560, Note_on_c, 0, 63, 80
2, 43656, Note_on_c, 0, 63, 0
2, 43680, Note_on_c, 0, 65, 80
2, 43728, Note_on_c, 0, 65, 0
2, 43800, Note_on_c, 0, 65, 80
2, 43848, Note_on_c, 0, 65, 0
2, 43920, Note_on_c, 0, 65, 80
2, 44016, Note_on_c, 0, 65, 0
2, 44040, Note_on_c, 0, 67, 80
2, 44136, Note_on_c, 0, 67, 0
2, 44160, Note_on_c, 0, 70, 80
2, 44256, Note_on_c, 0, 70, 0
2, 44280, Note_on_c, 0, 70, 80
2, 44304, Note_on_c, 0, 70, 0
2, 44310, Note_on_c, 0, 68, 80
2, 44334, Note_on_c, 0, 68, 0
2, 44340, Note_on_c, 0, 67, 80
2, 44364, Note_on_c, 0, 67, 0
2, 44370, Note_on_c, 0, 68, 80
2, 44394, Note_on_c, 0, 68, 0
2, 44400, Note_on_c, 0, 67, 80
2, 44496, Note_on_c, 0, 67, 0
2, 44610, Note_on_c, 0, 67, 80
2, 44622, Note_on_c, 0, 67, 0
2, 44625, Note_on_c, 0, 70, 80
2, 44637, Note_on_c, 0, 70, 0
2, 44640, Note_on_c, 0, 75, 80
2, 44832, Note_on_c, 0, 75, 0
2, 44880, Note_on_c, 0, 74, 80
2, 44976, Note_on_c, 0, 74, 0
2, 45000, Note_on_c, 0, 80, 80
2, 45024, Note_on_c, 0, 80, 0
2, 45030, Note_on_c, 0, 74, 80
2, 45078, Note_on_c, 0, 74, 0
2, 45090, Note_on_c, 0, 67, 80
2, 45102, Note_on_c, 0, 67, 0
2, 45105, Note_on_c, 0, 70, 80
2, 45117, Note_on_c, 0, 70, 0
2, 45120, Note_on_c, 0, 75, 80
2, 45312, Note_on_c, 0, 75, 0
2, 45360, Note_on_c, 0, 74, 80
2, 45456, Note_on_c, 0, 74, 0
2, 45480, Note_on_c, 0, 80, 80
2, 45504, Note_on_c, 0, 80, 0
2, 45510, Note_on_c, 0, 74, 80
2, 45582, Note_on_c, 0, 74, 0
2, 45600, Note_on_c, 0, 75, 80
2, 45696, Note_on_c, 0, 75, 0
2, 45720, Note_on_c, 0, 70, 80
2, 45816, Note_on_c, 0, 70, 0
2, 45840, Note_on_c, 0, 68, 80
2, 45936, Note_on_c, 0, 68, 0
2, 45960, Note_on_c, 0, 67, 80
2, 46056, Note_on_c, 0, 67, 0
2, 46080, Note_on_c, 0, 67, 80
2, 46272, Note_on_c, 0, 67, 0
2, 46320, Note_on_c, 0, 65, 80
2, 46416, Note_on_c, 0, 65, 0
2, 46560, Note_on_c, 0, 70, 80
2, 46656, Note_on_c, 0, 70, 0
2, 46680, Note_on_c, 0, 67, 80
2, 46776, Note_on_c, 0, 67, 0
2, 46800, Note_on_c, 0, 67, 80
2, 46896, Note_on_c, 0, 67, 0
2, 46920, Note_on_c, 0, 67, 80
2, 47016, Note_on_c, 0, 67, 0
2, 47040, Note_on_c, 0, 67, 80
2, 47328, Note_on_c, 0, 67, 0
2, 47400, Note_on_c, 0, 63, 80
2, 47496, Note_on_c, 0, 63, 0
2, 47520, Note_on_c, 0, 65, 80
2, 47616, Note_on_c, 0, 65, 0
2, 47640, Note_on_c, 0, 65, 80
2, 47736, Note_on_c, 0, 65, 0
2, 47760, Note_on_c, 0, 65, 80
2, 47856, Note_on_c, 0, 65, 0
2, 47880, Note_on_c, 0, 67, 80
2, 47976, Note_on_c, 0, 67, 0
2, 48000, Note_on_c, 0, 70, 80
2, 48096, Note_on_c, 0, 70, 0
2, 48120, Note_on_c, 0, 70, 80
2, 48144, Note_on_c, 0, 70, 0
2, 48150, Note_on_c, 0, 68, 80
2, 48174, Note_on_c, 0, 68, 0
2, 48180, Note_on_c, 0, 67, 80
2, 48204, Note_on_c, 0, 67, 0
2, 48210, Note_on_c, 0, 68, 80
2, 48234, Note_on_c, 0, 68, 0
2, 48240, Note_on_c, 0, 67, 80
2, 48336, Note_on_c, 0, 67, 0
2, 48450, Note_on_c, 0, 67, 80
2, 48462, Note_on_c, 0, 67, 0
2, 48465, Note_on_c, 0, 70, 80
2, 48477, Note_on_c, 0, 70, 0
2, 48480, Note_on_c, 0, 75, 80
2, 48672, Note_on_c, 0, 75, 0
2, 48720, Note_on_c, 0, 74, 80
2, 48816, Note_on_c, 0, 74, 0
2, 48840, Note_on_c, 0, 80, 80
2, 48864, Note_on_c, 0, 80, 0
2, 48870, Note_on_c, 0, 74, 80
2, 48918, Note_on_c, 0, 74, 0
2, 48930, Note_on_c, 0, 67, 80
2, 48942, Note_on_c, 0, 67, 0
2, 48945, Note_on_c, 0, 70, 80
2, 48957, Note_on_c, 0, 70, 0
2, 48960, Note_on_c, 0, 75, 80
2, 49152, Note_on_c, 0, 75, 0
2, 49200, Note_on_c, 0, 74, 80
2, 49296, Note_on_c, 0, 74, 0
2, 49320, Note_on_c, 0, 80, 80
2, 49344, Note_on_c, 0, 80, 0
2, 49350, Note_on_c, 0, 74, 80
2, 49422, Note_on_c, 0, 74, 0
2, 49440, Note_on_c, 0, 75, 80
2, 49536, Note_on_c, 0, 75, 0
2, 49560, Note_on_c, 0, 70, 80
2, 49656, Note_on_c, 0, 70, 0
2, 49680, Note_on_c, 0, 68, 80
2, 49776, Note_on_c, 0, 68, 0
2, 49800, Note_on_c, 0, 67, 80
2, 49896, Note_on_c, 0, 67, 0
2, 49920, Note_on_c, 0, 67, 80
2, 50112, Note_on_c, 0, 67, 0
2, 50160, Note_on_c, 0, 65, 80
2, 50256, Note_on_c, 0, 65, 0
2, 51240, Note_on_c, 0, 82, 80
2, 51336, Note_on_c, 0, 82, 0
2, 51360, Note_on_c, 0, 82, 80
2, 51456, Note_on_c, 0, 82, 0
2, 51480, Note_on_c, 0, 77, 80
2, 51576, Note_on_c, 0, 77, 0
2, 51600, Note_on_c, 0, 77, 80
2, 51696, Note_on_c, 0, 77, 0
2, 51720, Note_on_c, 0, 80, 80
2, 51816, Note_on_c, 0, 80, 0
2, 51840, Note_on_c, 0, 80, 80
2, 52032, Note_on_c, 0, 80, 0
2, 52080, Note_on_c, 0, 79, 80
2, 52176, Note_on_c, 0, 79, 0
2, 52200, Note_on_c, 0, 70, 80
2, 52296, Note_on_c, 0, 70, 0
2, 52320, Note_on_c, 0, 75, 80
2, 52416, Note_on_c, 0, 75, 0
2, 52440, Note_on_c, 0, 74, 80
2, 52632, Note_on_c, 0, 74, 0
2, 52680, Note_on_c, 0, 72, 80
2, 52728, Note_on_c, 0, 72, 0
2, 52740, Note_on_c, 0, 70, 80
2, 52788, Note_on_c, 0, 70, 0
2, 52800, Note_on_c, 0, 75, 80
2, 52896, Note_on_c, 0, 75, 0
2, 52920, Note_on_c, 0, 74, 80
2, 53112, Note_on_c, 0, 74, 0
2, 53160, Note_on_c, 0, 72, 80
2, 53208, Note_on_c, 0, 72, 0
2, 53220, Note_on_c, 0, 70, 80
2, 53268, Note_on_c, 0, 70, 0
2, 53280, Note_on_c, 0, 75, 80
2, 53376, Note_on_c, 0, 75, 0
2, 53400, Note_on_c, 0, 70, 80
2, 53496, Note_on_c, 0, 70, 0
2, 53520, Note_on_c, 0, 74, 80
2, 53568, Note_on_c, 0, 74, 0
2, 53580, Note_on_c, 0, 72, 80
2, 53628, Note_on_c, 0, 72, 0
2, 53640, Note_on_c, 0, 70, 80
2, 53688, Note_on_c, 0, 70, 0
2, 53700, Note_on_c, 0, 68, 80
2, 53748, Note_on_c, 0, 68, 0
2, 53760, Note_on_c, 0, 67, 80
2, 53952, Note_on_c, 0, 67, 0
2, 54000, Note_on_c, 0, 65, 80
2, 54096, Note_on_c, 0, 65, 0
2, 54120, Note_on_c, 0, 70, 80
2, 54216, Note_on_c, 0, 70, 0
2, 54240, Note_on_c, 0, 68, 80
2, 54432, Note_on_c, 0, 68, 0
2, 54480, Note_on_c, 0, 67, 80
2, 54576, Note_on_c, 0, 67, 0
2, 54600, Note_on_c, 0, 70, 80
2, 54696, Note_on_c, 0, 70, 0
2, 54720, Note_on_c, 0, 75, 80
2, 54816, Note_on_c, 0, 75, 0
2, 54840, Note_on_c, 0, 74, 80
2, 55032, Note_on_c, 0, 74, 0
2, 55080, Note_on_c, 0, 72, 80
2, 55128, Note_on_c, 0, 72, 0
2, 55140, Note_on_c, 0, 70, 80
2, 55188, Note_on_c, 0, 70, 0
2, 55200, Note_on_c, 0, 75, 80
2, 55296, Note_on_c, 0, 75, 0
2, 55320, Note_on_c, 0, 74, 80
2, 55512, Note_on_c, 0, 74, 0
2, 55560, Note_on_c, 0, 72, 80
2, 55608, Note_on_c, 0, 72, 0
2, 55620, Note_on_c, 0, 70, 80
2, 55668, Note_on_c, 0, 70, 0
2, 55680, Note_on_c, 0, 75, 80
2, 55728, Note_on_c, 0, 75, 0
2, 55740, Note_on_c, 0, 74, 80
2, 55788, Note_on_c, 0, 74, 0
2, 55800, Note_on_c, 0, 75, 80
2, 55848, Note_on_c, 0, 75, 0
2, 55860, Note_on_c, 0, 70, 80
2, 55908, Note_on_c, 0, 70, 0
2, 55920, Note_on_c, 0, 72, 80
2, 55968, Note_on_c, 0, 72, 0
2, 55980, Note_on_c, 0, 71, 80
2, 56028, Note_on_c, 0, 71, 0
2, 56040, Note_on_c, 0, 72, 80
2, 56088, Note_on_c, 0, 72, 0
2, 56100, Note_on_c, 0, 68, 80
2, 56148, Note_on_c, 0, 68, 0
2, 56160, Note_on_c, 0, 67, 80
2, 56352, Note_on_c, 0, 67, 0
2, 56400, Note_on_c, 0, 65, 80
2, 56592, Note_on_c, 0, 65, 0
2, 56640, Note_on_c, 0, 63, 80
2, 57024, Note_on_c, 0, 63, 0
2, 57960, Note_on_c, 0, 82, 80
2, 58056, Note_on_c, 0, 82, 0
2, 58080, Note_on_c, 0, 82, 80
2, 58176, Note_on_c, 0, 82, 0
2, 58200, Note_on_c, 0, 77, 80
2, 58296, Note_on_c, 0, 77, 0
2, 58320, Note_on_c, 0, 77, 80
2, 58416, Note_on_c, 0, 77, 0
2, 58440, Note_on_c, 0, 80, 80
2, 58536, Note_on_c, 0, 80, 0
2, 58560, Note_on_c, 0, 80, 80
2, 58752, Note_on_c, 0, 80, 0
2, 58800, Note_on_c, 0, 79, 80
2, 58896, Note_on_c, 0, 79, 0
2, 58920, Note_on_c, 0, 70, 80
2, 59016, Note_on_c, 0, 70, 0
2, 59040, Note_on_c, 0, 75, 80
2, 59136, Note_on_c, 0, 75, 0
2, 59160, Note_on_c, 0, 74, 80
2, 59352, Note_on_c, 0, 74, 0
2, 59400, Note_on_c, 0, 72, 80
2, 59448, Note_on_c, 0, 72, 0
2, 59460, Note_on_c, 0, 70, 80
2, 59508, Note_on_c, 0, 70, 0
2, 59520, Note_on_c, 0, 75, 80
2, 59616, Note_on_c, 0, 75, 0
2, 59640, Note_on_c, 0, 74, 80
2, 59832, Note_on_c, 0, 74, 0
2, 59880, Note_on_c, 0, 72, 80
2, 59928, Note_on_c, 0, 72, 0
2, 59940, Note_on_c, 0, 70, 80
2, 59988, Note_on_c, 0, 70, 0
2, 60000, Note_on_c, 0, 75, 80
2, 60096, Note_on_c, 0, 75, 0
2, 60120, Note_on_c, 0, 70, 80
2, 60216, Note_on_c, 0, 70, 0
2, 60240, Note_on_c, 0, 74, 80
2, 60288, Note_on_c, 0, 74, 0
2, 60300, Note_on_c, 0, 72, 80
2, 60348, Note_on_c, 0, 72, 0
2, 60360, Note_on_c, 0, 70, 80
2, 60408, Note_on_c, 0, 70, 0
2, 60420, Note_on_c, 0, 68, 80
2, 60468, Note_on_c, 0, 68, 0
2, 60480, Note_on_c, 0, 67, 80
2, 60672, Note_on_c, 0, 67, 0
2, 60720, Note_on_c, 0, 65, 80
2, 60816, Note_on_c, 0, 65, 0
2, 60840, Note_on_c, 0, 70, 80
2, 60936, Note_on_c, 0, 70, 0
2, 60960, Note_on_c, 0, 68, 80
2, 61152, Note_on_c, 0, 68, 0
2, 61200, Note_on_c, 0, 67, 80
2, 61296, Note_on_c, 0, 67, 0
2, 61320, Note_on_c, 0, 70, 80
2, 61416, Note_on_c, 0, 70, 0
2, 61440, Note_on_c, 0, 75, 80
2, 61536, Note_on_c, 0, 75, 0
2, 61560, Note_on_c, 0, 74, 80
2, 61752, Note_on_c, 0, 74, 0
2, 61800, Note_on_c, 0, 72, 80
2, 61848, Note_on_c, 0, 72, 0
2, 61860, Note_on_c, 0, 70, 80
2, 61908, Note_on_c, 0, 70, 0
2, 61920, Note_on_c, 0, 75, 80
2, 62016, Note_on_c, 0, 75, 0
2, 62040, Note_on_c, 0, 74, 80
2, 62232, Note_on_c, 0, 74, 0
2, 62280, Note_on_c, 0, 72, 80
2, 62328, Note_on_c, 0, 72, 0
2, 62340, Note_on_c, 0, 70, 80
2, 62388, Note_on_c, 0, 70, 0
2, 62400, Note_on_c, 0, 75, 80
2, 62448, Note_on_c, 0, 75, 0
2, 62460, Note_on_c, 0, 74, 80
2, 62508, Note_on_c, 0, 74, 0
2, 62520, Note_on_c, 0, 75, 80
2, 62568, Note_on_c, 0, 75, 0
2, 62580, Note_on_c, 0, 70, 80
2, 62628, Note_on_c, 0, 70, 0
2, 62640, Note_on_c, 0, 72, 80
2, 62688, Note_on_c, 0, 72, 0
2, 62700, Note_on_c, 0, 71, 80
2, 62748, Note_on_c, 0, 71, 0
2, 62760, Note_on_c, 0, 72, 80
2, 62808, Note_on_c, 0, 72, 0
2, 62820, Note_on_c, 0, 68, 80
2, 62868, Note_on_c, 0, 68, 0
2, 62880, Note_on_c, 0, 67, 80
2, 63072, Note_on_c, 0, 67, 0
2, 63120, Note_on_c, 0, 65, 80
2, 63312, Note_on_c, 0, 65, 0
2, 63360, Note_on_c, 0, 63, 80
2, 63552, Note_on_c, 0, 63, 0
2, 63930, Note_on_c, 0, 82, 56
2, 63960, Note_on_c, 0, 82, 0
2, 63960, Note_on_c, 0, 82, 56
2, 63975, Note_on_c, 0, 82, 0
2, 63975, Note_on_c, 0, 84, 56
2, 63990, Note_on_c, 0, 84, 0
2, 63990, Note_on_c, 0, 82, 56
2, 64005, Note_on_c, 0, 82, 0
2, 64005, Note_on_c, 0, 84, 56
2, 64020, Note_on_c, 0, 84, 0
2, 64020, Note_on_c, 0, 82, 56
2, 64030, Note_on_c, 0, 82, 0
2, 64030, Note_on_c, 0, 84, 56
2, 64040, Note_on_c, 0, 84, 0
2, 64040, Note_on_c, 0, 82, 56
2, 64050, Note_on_c, 0, 82, 0
2, 64050, Note_on_c, 0, 81, 56
2, 64065, Note_on_c, 0, 81, 0
2, 64065, Note_on_c, 0, 82, 56
2, 64080, Note_on_c, 0, 82, 0
2, 64080, Note_on_c, 0, 87, 56
2, 64200, Note_on_c, 0, 87, 0
2, 64200, Note_on_c, 0, 82, 56
2, 64248, Note_on_c, 0, 82, 0
2, 64410, Note_on_c, 0, 79, 56
2, 64440, Note_on_c, 0, 79, 0
2, 64440, Note_on_c, 0, 79, 56
2, 64455, Note_on_c, 0, 79, 0
2, 64455, Note_on_c, 0, 80, 56
2, 64470, Note_on_c, 0, 80, 0
2, 64470, Note_on_c, 0, 79, 56
2, 64485, Note_on_c, 0, 79, 0
2, 64485, Note_on_c, 0, 80, 56
2, 64500, Note_on_c, 0, 80, 0
2, 64500, Note_on_c, 0, 79, 56
2, 64510, Note_on_c, 0, 79, 0
2, 64510, Note_on_c, 0, 80, 56
2, 64520, Note_on_c, 0, 80, 0
2, 64520, Note_on_c, 0, 79, 56
2, 64530, Note_on_c, 0, 79, 0
2, 64530, Note_on_c, 0, 78, 56
2, 64545, Note_on_c, 0, 78, 0
2, 64545, Note_on_c, 0, 79, 56
2, 64560, Note_on_c, 0, 79, 0
2, 64560, Note_on_c, 0, 82, 56
2, 64680, Note_on_c, 0, 82, 0
2, 64680, Note_on_c, 0, 75, 56
2, 64728, Note_on_c, 0, 75, 0
2, 64890, Note_on_c, 0, 77, 56
2, 64920, Note_on_c, 0, 77, 0
2, 64920, Note_on_c, 0, 77, 56
2, 64935, Note_on_c, 0, 77, 0
2, 64935, Note_on_c, 0, 79, 56
2, 64950, Note_on_c, 0, 79, 0
2, 64950, Note_on_c, 0, 77, 56
2, 64965, Note_on_c, 0, 77, 0
2, 64965, Note_on_c, 0, 79, 56
2, 64980, Note_on_c, 0, 79, 0
2, 64980, Note_on_c, 0, 77, 56
2, 64990, Note_on_c, 0, 77, 0
2, 64990, Note_on_c, 0, 79, 56
2, 65000, Note_on_c, 0, 79, 0
2, 65000, Note_on_c, 0, 77, 56
2, 65010, Note_on_c, 0, 77, 0
2, 65010, Note_on_c, 0, 76, 56
2, 65025, Note_on_c, 0, 76, 0
2, 65025, Note_on_c, 0, 77, 56
2, 65037, Note_on_c, 0, 77, 0
2, 65130, Note_on_c, 0, 79, 56
2, 65154, Note_on_c, 0, 79, 0
2, 65160, Note_on_c, 0, 79, 56
2, 65172, Note_on_c, 0, 79, 0
2, 65175, Note_on_c, 0, 80, 56
2, 65187, Note_on_c, 0, 80, 0
2, 65190, Note_on_c, 0, 79, 56
2, 65202, Note_on_c, 0, 79, 0
2, 65205, Note_on_c, 0, 80, 56
2, 65217, Note_on_c, 0, 80, 0
2, 65220, Note_on_c, 0, 79, 56
2, 65228, Note_on_c, 0, 79, 0
2, 65230, Note_on_c, 0, 80, 56
2, 65238, Note_on_c, 0, 80, 0
2, 65240, Note_on_c, 0, 79, 56
2, 65248, Note_on_c, 0, 79, 0
2, 65250, Note_on_c, 0, 78, 56
2, 65262, Note_on_c, 0, 78, 0
2, 65265, Note_on_c, 0, 79, 56
2, 65277, Note_on_c, 0, 79, 0
2, 65340, Note_on_c, 0, 80, 56
2, 65352, Note_on_c, 0, 80, 0
2, 65355, Note_on_c, 0, 82, 56
2, 65367, Note_on_c, 0, 82, 0
2, 65370, Note_on_c, 0, 80, 56
2, 65382, Note_on_c, 0, 80, 0
2, 65385, Note_on_c, 0, 79, 56
2, 65397, Note_on_c, 0, 79, 0
2, 65400, Note_on_c, 0, 84, 56
2, 65424, Note_on_c, 0, 84, 0
2, 65460, Note_on_c, 0, 80, 56
2, 65484, Note_on_c, 0, 80, 0
2, 65520, Note_on_c, 0, 80, 56
2, 65568, Note_on_c, 0, 80, 0
2, 65580, Note_on_c, 0, 79, 56
2, 65592, Note_on_c, 0, 79, 0
2, 65610, Note_on_c, 0, 77, 56
2, 65622, Note_on_c, 0, 77, 0
2, 65625, Note_on_c, 0, 79, 56
2, 65637, Note_on_c, 0, 79, 0
2, 65640, Note_on_c, 0, 77, 56
2, 65688, Note_on_c, 0, 77, 0
2, 65700, Note_on_c, 0, 75, 56
2, 65748, Note_on_c, 0, 75, 0
2, 65850, Note_on_c, 0, 87, 56
2, 65874, Note_on_c, 0, 87, 0
2, 65880, Note_on_c, 0, 87, 56
2, 65892, Note_on_c, 0, 87, 0
2, 65895, Note_on_c, 0, 89, 56
2, 65907, Note_on_c, 0, 89, 0
2, 65910, Note_on_c, 0, 87, 56
2, 65922, Note_on_c, 0, 87, 0
2, 65925, Note_on_c, 0, 89, 56
2, 65937, Note_on_c, 0, 89, 0
2, 65940, Note_on_c, 0, 87, 56
2, 65948, Note_on_c, 0, 87, 0
2, 65950, Note_on_c, 0, 89, 56
2, 65958, Note_on_c, 0, 89, 0
2, 65960, Note_on_c, 0, 87, 56
2, 65968, Note_on_c, 0, 87, 0
2, 65970, Note_on_c, 0, 86, 56
2, 65982, Note_on_c, 0, 86, 0
2, 65985, Note_on_c, 0, 87, 56
2, 65997, Note_on_c, 0, 87, 0
2, 66000, Note_on_c, 0, 86, 56
2, 66048, Note_on_c, 0, 86, 0
2, 66090, Note_on_c, 0, 74, 56
2, 66114, Note_on_c, 0, 74, 0
2, 66120, Note_on_c, 0, 74, 56
2, 66132, Note_on_c, 0, 74, 0
2, 66135, Note_on_c, 0, 75, 56
2, 66147, Note_on_c, 0, 75, 0
2, 66150, Note_on_c, 0, 74, 56
2, 66162, Note_on_c, 0, 74, 0
2, 66165, Note_on_c, 0, 75, 56
2, 66177, Note_on_c, 0, 75, 0
2, 66180, Note_on_c, 0, 74, 56
2, 66188, Note_on_c, 0, 74, 0
2, 66190, Note_on_c, 0, 75, 56
2, 66198, Note_on_c, 0, 75, 0
2, 66200, Note_on_c, 0, 74, 56
2, 66208, Note_on_c, 0, 74, 0
2, 66210, Note_on_c, 0, 72, 56
2, 66222, Note_on_c, 0, 72, 0
2, 66225, Note_on_c, 0, 74, 56
2, 66237, Note_on_c, 0, 74, 0
2, 66240, Note_on_c, 0, 75, 56
2, 66288, Note_on_c, 0, 75, 0
2, 66330, Note_on_c, 0, 87, 56
2, 66354, Note_on_c, 0, 87, 0
2, 66360, Note_on_c, 0, 87, 56
2, 66372, Note_on_c, 0, 87, 0
2, 66375, Note_on_c, 0, 89, 56
2, 66387, Note_on_c, 0, 89, 0
2, 66390, Note_on_c, 0, 87, 56
2, 66402, Note_on_c, 0, 87, 0
2, 66405, Note_on_c, 0, 89, 56
2, 66417, Note_on_c, 0, 89, 0
2, 66420, Note_on_c, 0, 87, 56
2, 66428, Note_on_c, 0, 87, 0
2, 66430, Note_on_c, 0, 89, 56
2, 66438, Note_on_c, 0, 89, 0
2, 66440, Note_on_c, 0, 87, 56
2, 66448, Note_on_c, 0, 87, 0
2, 66450, Note_on_c, 0, 86, 56
2, 66462, Note_on_c, 0, 86, 0
2, 66465, Note_on_c, 0, 87, 56
2, 66477, Note_on_c, 0, 87, 0
2, 66480, Note_on_c, 0, 86, 56
2, 66528, Note_on_c, 0, 86, 0
2, 66570, Note_on_c, 0, 74, 56
2, 66594, Note_on_c, 0, 74, 0
2, 66600, Note_on_c, 0, 74, 56
2, 66612, Note_on_c, 0, 74, 0
2, 66615, Note_on_c, 0, 75, 56
2, 66627, Note_on_c, 0, 75, 0
2, 66630, Note_on_c, 0, 74, 56
2, 66642, Note_on_c, 0, 74, 0
2, 66645, Note_on_c, 0, 75, 56
2, 66657, Note_on_c, 0, 75, 0
2, 66660, Note_on_c, 0, 74, 56
2, 66668, Note_on_c, 0, 74, 0
2, 66670, Note_on_c, 0, 75, 56
2, 66678, Note_on_c, 0, 75, 0
2, 66680, Note_on_c, 0, 74, 56
2, 66688, Note_on_c, 0, 74, 0
2, 66690, Note_on_c, 0, 72, 56
2, 66702, Note_on_c, 0, 72, 0
2, 66705, Note_on_c, 0, 74, 56
2, 66717, Note_on_c, 0, 74, 0
2, 66720, Note_on_c, 0, 75, 56
2, 66768, Note_on_c, 0, 75, 0
2, 66780, Note_on_c, 0, 79, 56
2, 66828, Note_on_c, 0, 79, 0
2, 66840, Note_on_c, 0, 82, 56
2, 66864, Note_on_c, 0, 82, 0
2, 66900, Note_on_c, 0, 82, 56
2, 66924, Note_on_c, 0, 82, 0
2, 66960, Note_on_c, 0, 82, 56
2, 67008, Note_on_c, 0, 82, 0
2, 67020, Note_on_c, 0, 81, 56
2, 67068, Note_on_c, 0, 81, 0
2, 67080, Note_on_c, 0, 80, 56
2, 67128, Note_on_c, 0, 80, 0
2, 67140, Note_on_c, 0, 79, 56
2, 67188, Note_on_c, 0, 79, 0
2, 67200, Note_on_c, 0, 82, 56
2, 67344, Note_on_c, 0, 82, 0
2, 67380, Note_on_c, 0, 79, 56
2, 67428, Note_on_c, 0, 79, 0
2, 67440, Note_on_c, 0, 77, 56
2, 67536, Note_on_c, 0, 77, 0
2, 67770, Note_on_c, 0, 82, 56
2, 67794, Note_on_c, 0, 82, 0
2, 67800, Note_on_c, 0, 82, 56
2, 67812, Note_on_c, 0, 82, 0
2, 67815, Note_on_c, 0, 84, 56
2, 67827, Note_on_c, 0, 84, 0
2, 67830, Note_on_c, 0, 82, 56
2, 67842, Note_on_c, 0, 82, 0
2, 67845, Note_on_c, 0, 84, 56
2, 67857, Note_on_c, 0, 84, 0
2, 67860, Note_on_c, 0, 82, 56
2, 67868, Note_on_c, 0, 82, 0
2, 67870, Note_on_c, 0, 84, 56
2, 67878, Note_on_c, 0, 84, 0
2, 67880, Note_on_c, 0, 82, 56
2, 67888, Note_on_c, 0, 82, 0
2, 67890, Note_on_c, 0, 81, 56
2, 67902, Note_on_c, 0, 81, 0
2, 67905, Note_on_c, 0, 82, 56
2, 67917, Note_on_c, 0, 82, 0
2, 67920, Note_on_c, 0, 87, 56
2, 68040, Note_on_c, 0, 87, 0
2, 68040, Note_on_c, 0, 82, 56
2, 68094, Note_on_c, 0, 82, 0
2, 68250, Note_on_c, 0, 79, 56
2, 68274, Note_on_c, 0, 79, 0
2, 68280, Note_on_c, 0, 79, 56
2, 68292, Note_on_c, 0, 79, 0
2, 68295, Note_on_c, 0, 80, 56
2, 68307, Note_on_c, 0, 80, 0
2, 68310, Note_on_c, 0, 79, 56
2, 68322, Note_on_c, 0, 79, 0
2, 68325, Note_on_c, 0, 80, 56
2, 68337, Note_on_c, 0, 80, 0
2, 68340, Note_on_c, 0, 79, 56
2, 68348, Note_on_c, 0, 79, 0
2, 68350, Note_on_c, 0, 80, 56
2, 68358, Note_on_c, 0, 80, 0
2, 68360, Note_on_c, 0, 79, 56
2, 68368, Note_on_c, 0, 79, 0
2, 68370, Note_on_c, 0, 78, 56
2, 68382, Note_on_c, 0, 78, 0
2, 68385, Note_on_c, 0, 79, 56
2, 68397, Note_on_c, 0, 79, 0
2, 68400, Note_on_c, 0, 82, 56
2, 68520, Note_on_c, 0, 82, 0
2, 68520, Note_on_c, 0, 75, 56
2, 68568, Note_on_c, 0, 75, 0
2, 68730, Note_on_c, 0, 77, 56
2, 68754, Note_on_c, 0, 77, 0
2, 68760, Note_on_c, 0, 77, 56
2, 68772, Note_on_c, 0, 77, 0
2, 68775, Note_on_c, 0, 79, 56
2, 68787, Note_on_c, 0, 79, 0
2, 68790, Note_on_c, 0, 77, 56
2, 68802, Note_on_c, 0, 77, 0
2, 68805, Note_on_c, 0, 79, 56
2, 68817, Note_on_c, 0, 79, 0
2, 68820, Note_on_c, 0, 77, 56
2, 68828, Note_on_c, 0, 77, 0
2, 68830, Note_on_c, 0, 79, 56
2, 68838, Note_on_c, 0, 79, 0
2, 68840, Note_on_c, 0, 77, 56
2, 68848, Note_on_c, 0, 77, 0
2, 68850, Note_on_c, 0, 76, 56
2, 68862, Note_on_c, 0, 76, 0
2, 68865, Note_on_c, 0, 77, 56
2, 68877, Note_on_c, 0, 77, 0
2, 68970, Note_on_c, 0, 79, 56
2, 68994, Note_on_c, 0, 79, 0
2, 69000, Note_on_c, 0, 79, 56
2, 69012, Note_on_c, 0, 79, 0
2, 69015, Note_on_c, 0, 80, 56
2, 69027, Note_on_c, 0, 80, 0
2, 69030, Note_on_c, 0, 79, 56
2, 69042, Note_on_c, 0, 79, 0
2, 69045, Note_on_c, 0, 80, 56
2, 69057, Note_on_c, 0, 80, 0
2, 69060, Note_on_c, 0, 79, 56
2, 69068, Note_on_c, 0, 79, 0
2, 69070, Note_on_c, 0, 80, 56
2, 69078, Note_on_c, 0, 80, 0
2, 69080, Note_on_c, 0, 79, 56
2, 69088, Note_on_c, 0, 79, 0
2, 69090, Note_on_c, 0, 78, 56
2, 69102, Note_on_c, 0, 78, 0
2, 69105, Note_on_c, 0, 79, 56
2, 69117, Note_on_c, 0, 79, 0
2, 69180, Note_on_c, 0, 80, 56
2, 69192, Note_on_c, 0, 80, 0
2, 69195, Note_on_c, 0, 82, 56
2, 69207, Note_on_c, 0, 82, 0
2, 69210, Note_on_c, 0, 80, 56
2, 69222, Note_on_c, 0, 80, 0
2, 69225, Note_on_c, 0, 79, 56
2, 69237, Note_on_c, 0, 79, 0
2, 69240, Note_on_c, 0, 84, 56
2, 69264, Note_on_c, 0, 84, 0
2, 69300, Note_on_c, 0, 80, 56
2, 69324, Note_on_c, 0, 80, 0
2, 69360, Note_on_c, 0, 80, 56
2, 69408, Note_on_c, 0, 80, 0
2, 69420, Note_on_c, 0, 79, 56
2, 69432, Note_on_c, 0, 79, 0
2, 69450, Note_on_c, 0, 77, 56
2, 69462, Note_on_c, 0, 77, 0
2, 69465, Note_on_c, 0, 79, 56
2, 69477, Note_on_c, 0, 79, 0
2, 69480, Note_on_c, 0, 77, 56
2, 69528, Note_on_c, 0, 77, 0
2, 69540, Note_on_c, 0, 75, 56
2, 69588, Note_on_c, 0, 75, 0
2, 69690, Note_on_c, 0, 87, 56
2, 69714, Note_on_c, 0, 87, 0
2, 69720, Note_on_c, 0, 87, 56
2, 69732, Note_on_c, 0, 87, 0
2, 69735, Note_on_c, 0, 89, 56
2, 69747, Note_on_c, 0, 89, 0
2, 69750, Note_on_c, 0, 87, 56
2, 69762, Note_on_c, 0, 87, 0
2, 69765, Note_on_c, 0, 89, 56
2, 69777, Note_on_c, 0, 89, 0
2, 69780, Note_on_c, 0, 87, 56
2, 69788, Note_on_c, 0, 87, 0
2, 69790, Note_on_c, 0, 89, 56
2, 69798, Note_on_c, 0, 89, 0
2, 69800, Note_on_c, 0, 87, 56
2, 69808, Note_on_c, 0, 87, 0
2, 69810, Note_on_c, 0, 86, 56
2, 69822, Note_on_c, 0, 86, 0
2, 69825, Note_on_c, 0, 87, 56
2, 69837, Note_on_c, 0, 87, 0
2, 69840, Note_on_c, 0, 86, 56
2, 69888, Note_on_c, 0, 86, 0
2, 69930, Note_on_c, 0, 74, 56
2, 69954, Note_on_c, 0, 74, 0
2, 69960, Note_on_c, 0, 74, 56
2, 69972, Note_on_c, 0, 74, 0
2, 69975, Note_on_c, 0, 75, 56
2, 69987, Note_on_c, 0, 75, 0
2, 69990, Note_on_c, 0, 74, 56
2, 70002, Note_on_c, 0, 74, 0
2, 70005, Note_on_c, 0, 75, 56
2, 70017, Note_on_c, 0, 75, 0
2, 70020, Note_on_c, 0, 74, 56
2, 70028, Note_on_c, 0, 74, 0
2, 70030, Note_on_c, 0, 75, 56
2, 70038, Note_on_c, 0, 75, 0
2, 70040, Note_on_c, 0, 74, 56
2, 70048, Note_on_c, 0, 74, 0
2, 70050, Note_on_c, 0, 72, 56
2, 70062, Note_on_c, 0, 72, 0
2, 70065, Note_on_c, 0, 74, 56
2, 70077, Note_on_c, 0, 74, 0
2, 70080, Note_on_c, 0, 75, 56
2, 70128, Note_on_c, 0, 75, 0
2, 70170, Note_on_c, 0, 87, 56
2, 70194, Note_on_c, 0, 87, 0
2, 70200, Note_on_c, 0, 87, 56
2, 70212, Note_on_c, 0, 87, 0
2, 70215, Note_on_c, 0, 89, 56
2, 70227, Note_on_c, 0, 89, 0
2, 70230, Note_on_c, 0, 87, 56
2, 70242, Note_on_c, 0, 87, 0
2, 70245, Note_on_c, 0, 89, 56
2, 70257, Note_on_c, 0, 89, 0
2, 70260, Note_on_c, 0, 87, 56
2, 70268, Note_on_c, 0, 87, 0
2, 70270, Note_on_c, 0, 89, 56
2, 70278, Note_on_c, 0, 89, 0
2, 70280, Note_on_c, 0, 87, 56
2, 70288, Note_on_c, 0, 87, 0
2, 70290, Note_on_c, 0, 86, 56
2, 70302, Note_on_c, 0, 86, 0
2, 70305, Note_on_c, 0, 87, 56
2, 70317, Note_on_c, 0, 87, 0
2, 70320, Note_on_c, 0, 86, 56
2, 70368, Note_on_c, 0, 86, 0
2, 70410, Note_on_c, 0, 74, 56
2, 70434, Note_on_c, 0, 74, 0
2, 70440, Note_on_c, 0, 74, 56
2, 70452, Note_on_c, 0, 74, 0
2, 70455, Note_on_c, 0, 75, 56
2, 70467, Note_on_c, 0, 75, 0
2, 70470, Note_on_c, 0, 74, 56
2, 70482, Note_on_c, 0, 74, 0
2, 70485, Note_on_c, 0, 75, 56
2, 70497, Note_on_c, 0, 75, 0
2, 70500, Note_on_c, 0, 74, 56
2, 70508, Note_on_c, 0, 74, 0
2, 70510, Note_on_c, 0, 75, 56
2, 70518, Note_on_c, 0, 75, 0
2, 70520, Note_on_c, 0, 74, 56
2, 70528, Note_on_c, 0, 74, 0
2, 70530, Note_on_c, 0, 72, 56
2, 70542, Note_on_c, 0, 72, 0
2, 70545, Note_on_c, 0, 74, 56
2, 70557, Note_on_c, 0, 74, 0
2, 70560, Note_on_c, 0, 75, 56
2, 70608, Note_on_c, 0, 75, 0
2, 70620, Note_on_c, 0, 79, 56
2, 70668, Note_on_c, 0, 79, 0
2, 70680, Note_on_c, 0, 82, 56
2, 70728, Note_on_c, 0, 82, 0
2, 70740, Note_on_c, 0, 82, 56
2, 70788, Note_on_c, 0, 82, 0
2, 70800, Note_on_c, 0, 82, 56
2, 70848, Note_on_c, 0, 82, 0
2, 70860, Note_on_c, 0, 81, 56
2, 70908, Note_on_c, 0, 81, 0
2, 70920, Note_on_c, 0, 80, 56
2, 70968, Note_on_c, 0, 80, 0
2, 70980, Note_on_c, 0, 79, 56
2, 71028, Note_on_c, 0, 79, 0
2, 71040, Note_on_c, 0, 82, 56
2, 71184, Note_on_c, 0, 82, 0
2, 71220, Note_on_c, 0, 79, 56
2, 71268, Note_on_c, 0, 79, 0
2, 71280, Note_on_c, 0, 77, 56
2, 71376, Note_on_c, 0, 77, 0
2, 71580, Note_on_c, 0, 79, 80
2, 71592, Note_on_c, 0, 79, 0
2, 71595, Note_on_c, 0, 77, 80
2, 71607, Note_on_c, 0, 77, 0
2, 71610, Note_on_c, 0, 76, 80
2, 71622, Note_on_c, 0, 76, 0
2, 71625, Note_on_c, 0, 77, 80
2, 71637, Note_on_c, 0, 77, 0
2, 71640, Note_on_c, 0, 80, 80
2, 71688, Note_on_c, 0, 80, 0
2, 71700, Note_on_c, 0, 75, 80
2, 71712, Note_on_c, 0, 75, 0
2, 71715, Note_on_c, 0, 74, 80
2, 71727, Note_on_c, 0, 74, 0
2, 71730, Note_on_c, 0, 72, 80
2, 71742, Note_on_c, 0, 72, 0
2, 71745, Note_on_c, 0, 74, 80
2, 71757, Note_on_c, 0, 74, 0
2, 71760, Note_on_c, 0, 77, 80
2, 71808, Note_on_c, 0, 77, 0
2, 71820, Note_on_c, 0, 70, 80
2, 71916, Note_on_c, 0, 70, 0
2, 71940, Note_on_c, 0, 68, 80
2, 71988, Note_on_c, 0, 68, 0
2, 72000, Note_on_c, 0, 67, 80
2, 72024, Note_on_c, 0, 67, 0
2, 72030, Note_on_c, 0, 70, 80
2, 72054, Note_on_c, 0, 70, 0
2, 72060, Note_on_c, 0, 72, 80
2, 72084, Note_on_c, 0, 72, 0
2, 72090, Note_on_c, 0, 74, 80
2, 72114, Note_on_c, 0, 74, 0
2, 72120, Note_on_c, 0, 75, 80
2, 72144, Note_on_c, 0, 75, 0
2, 72150, Note_on_c, 0, 77, 80
2, 72174, Note_on_c, 0, 77, 0
2, 72180, Note_on_c, 0, 79, 80
2, 72204, Note_on_c, 0, 79, 0
2, 72210, Note_on_c, 0, 80, 80
2, 72234, Note_on_c, 0, 80, 0
2, 72240, Note_on_c, 0, 82, 80
2, 72264, Note_on_c, 0, 82, 0
2, 72270, Note_on_c, 0, 84, 80
2, 72294, Note_on_c, 0, 84, 0
2, 72300, Note_on_c, 0, 86, 80
2, 72324, Note_on_c, 0, 86, 0
2, 72330, Note_on_c, 0, 87, 80
2, 72354, Note_on_c, 0, 87, 0
2, 72360, Note_on_c, 0, 82, 80
2, 72408, Note_on_c, 0, 82, 0
2, 72540, Note_on_c, 0, 79, 80
2, 72552, Note_on_c, 0, 79, 0
2, 72555, Note_on_c, 0, 77, 80
2, 72567, Note_on_c, 0, 77, 0
2, 72570, Note_on_c, 0, 76, 80
2, 72582, Note_on_c, 0, 76, 0
2, 72585, Note_on_c, 0, 77, 80
2, 72597, Note_on_c, 0, 77, 0
2, 72600, Note_on_c, 0, 80, 80
2, 72648, Note_on_c, 0, 80, 0
2, 72660, Note_on_c, 0, 75, 80
2, 72672, Note_on_c, 0, 75, 0
2, 72675, Note_on_c, 0, 74, 80
2, 72687, Note_on_c, 0, 74, 0
2, 72690, Note_on_c, 0, 72, 80
2, 72702, Note_on_c, 0, 72, 0
2, 72705, Note_on_c, 0, 74, 80
2, 72717, Note_on_c, 0, 74, 0
2, 72720, Note_on_c, 0, 77, 80
2, 72768, Note_on_c, 0, 77, 0
2, 72780, Note_on_c, 0, 70, 80
2, 72876, Note_on_c, 0, 70, 0
2, 72900, Note_on_c, 0, 68, 80
2, 72948, Note_on_c, 0, 68, 0
2, 72960, Note_on_c, 0, 67, 80
2, 72984, Note_on_c, 0, 67, 0
2, 72990, Note_on_c, 0, 70, 80
2, 73014, Note_on_c, 0, 70, 0
2, 73020, Note_on_c, 0, 68, 80
2, 73044, Note_on_c, 0, 68, 0
2, 73050, Note_on_c, 0, 67, 80
2, 73074, Note_on_c, 0, 67, 0
2, 73080, Note_on_c, 0, 68, 80
2, 73104, Note_on_c, 0, 68, 0
2, 73110, Note_on_c, 0, 70, 80
2, 73134, Note_on_c, 0, 70, 0
2, 73140, Note_on_c, 0, 72, 80
2, 73164, Note_on_c, 0, 72, 0
2, 73170, Note_on_c, 0, 74, 80
2, 73194, Note_on_c, 0, 74, 0
2, 73200, Note_on_c, 0, 75, 80
2, 73224, Note_on_c, 0, 75, 0
2, 73230, Note_on_c, 0, 77, 80
2, 73254, Note_on_c, 0, 77, 0
2, 73260, Note_on_c, 0, 79, 80
2, 73284, Note_on_c, 0, 79, 0
2, 73290, Note_on_c, 0, 80, 80
2, 73314, Note_on_c, 0, 80, 0
2, 73320, Note_on_c, 0, 82, 80
2, 73368, Note_on_c, 0, 82, 0
2, 73380, Note_on_c, 0, 75, 80
2, 73428, Note_on_c, 0, 75, 0
2, 73440, Note_on_c, 0, 74, 80
2, 73464, Note_on_c, 0, 74, 0
2, 73470, Note_on_c, 0, 75, 80
2, 73494, Note_on_c, 0, 75, 0
2, 73500, Note_on_c, 0, 77, 80
2, 73524, Note_on_c, 0, 77, 0
2, 73530, Note_on_c, 0, 79, 80
2, 73554, Note_on_c, 0, 79, 0
2, 73560, Note_on_c, 0, 80, 80
2, 73608, Note_on_c, 0, 80, 0
2, 73620, Note_on_c, 0, 75, 80
2, 73668, Note_on_c, 0, 75, 0
2, 73680, Note_on_c, 0, 74, 80
2, 73704, Note_on_c, 0, 74, 0
2, 73710, Note_on_c, 0, 75, 80
2, 73734, Note_on_c, 0, 75, 0
2, 73740, Note_on_c, 0, 77, 80
2, 73764, Note_on_c, 0, 77, 0
2, 73770, Note_on_c, 0, 79, 80
2, 73794, Note_on_c, 0, 79, 0
2, 73800, Note_on_c, 0, 80, 80
2, 73848, Note_on_c, 0, 80, 0
2, 73860, Note_on_c, 0, 75, 80
2, 73908, Note_on_c, 0, 75, 0
2, 73920, Note_on_c, 0, 74, 80
2, 73944, Note_on_c, 0, 74, 0
2, 73950, Note_on_c, 0, 75, 80
2, 73974, Note_on_c, 0, 75, 0
2, 73980, Note_on_c, 0, 77, 80
2, 74004, Note_on_c, 0, 77, 0
2, 74010, Note_on_c, 0, 79, 80
2, 74034, Note_on_c, 0, 79, 0
2, 74040, Note_on_c, 0, 80, 80
2, 74088, Note_on_c, 0, 80, 0
2, 74100, Note_on_c, 0, 75, 80
2, 74148, Note_on_c, 0, 75, 0
2, 74160, Note_on_c, 0, 74, 80
2, 74184, Note_on_c, 0, 74, 0
2, 74190, Note_on_c, 0, 75, 80
2, 74214, Note_on_c, 0, 75, 0
2, 74220, Note_on_c, 0, 77, 80
2, 74244, Note_on_c, 0, 77, 0
2, 74250, Note_on_c, 0, 79, 80
2, 74274, Note_on_c, 0, 79, 0
2, 74280, Note_on_c, 0, 80, 80
2, 74328, Note_on_c, 0, 80, 0
2, 74340, Note_on_c, 0, 74, 80
2, 74388, Note_on_c, 0, 74, 0
2, 74460, Note_on_c, 0, 77, 80
2, 74472, Note_on_c, 0, 77, 0
2, 74475, Note_on_c, 0, 75, 80
2, 74487, Note_on_c, 0, 75, 0
2, 74490, Note_on_c, 0, 74, 80
2, 74502, Note_on_c, 0, 74, 0
2, 74505, Note_on_c, 0, 75, 80
2, 74517, Note_on_c, 0, 75, 0
2, 74520, Note_on_c, 0, 79, 80
2, 74544, Note_on_c, 0, 79, 0
2, 74580, Note_on_c, 0, 70, 80
2, 74604, Note_on_c, 0, 70, 0
2, 74700, Note_on_c, 0, 74, 80
2, 74712, Note_on_c, 0, 74, 0
2, 74715, Note_on_c, 0, 72, 80
2, 74727, Note_on_c, 0, 72, 0
2, 74730, Note_on_c, 0, 71, 80
2, 74742, Note_on_c, 0, 71, 0
2, 74745, Note_on_c, 0, 72, 80
2, 74757, Note_on_c, 0, 72, 0
2, 74760, Note_on_c, 0, 75, 80
2, 74784, Note_on_c, 0, 75, 0
2, 74820, Note_on_c, 0, 68, 80
2, 74844, Note_on_c, 0, 68, 0
2, 74940, Note_on_c, 0, 68, 80
2, 74952, Note_on_c, 0, 68, 0
2, 74955, Note_on_c, 0, 67, 80
2, 74967, Note_on_c, 0, 67, 0
2, 74970, Note_on_c, 0, 66, 80
2, 74982, Note_on_c, 0, 66, 0
2, 74985, Note_on_c, 0, 67, 80
2, 74997, Note_on_c, 0, 67, 0
2, 75000, Note_on_c, 0, 70, 80
2, 75048, Note_on_c, 0, 70, 0
2, 75060, Note_on_c, 0, 63, 80
2, 75108, Note_on_c, 0, 63, 0
2, 75180, Note_on_c, 0, 67, 80
2, 75192, Note_on_c, 0, 67, 0
2, 75195, Note_on_c, 0, 65, 80
2, 75207, Note_on_c, 0, 65, 0
2, 75210, Note_on_c, 0, 64, 80
2, 75222, Note_on_c, 0, 64, 0
2, 75225, Note_on_c, 0, 65, 80
2, 75237, Note_on_c, 0, 65, 0
2, 75240, Note_on_c, 0, 68, 80
2, 75288, Note_on_c, 0, 68, 0
2, 75300, Note_on_c, 0, 62, 80
2, 75348, Note_on_c, 0, 62, 0
2, 75390, Note_on_c, 0, 63, 80
2, 75414, Note_on_c, 0, 63, 0
2, 75420, Note_on_c, 0, 65, 80
2, 75444, Note_on_c, 0, 65, 0
2, 75450, Note_on_c, 0, 67, 80
2, 75474, Note_on_c, 0, 67, 0
2, 75480, Note_on_c, 0, 68, 80
2, 75504, Note_on_c, 0, 68, 0
2, 75510, Note_on_c, 0, 70, 80
2, 75534, Note_on_c, 0, 70, 0
2, 75540, Note_on_c, 0, 72, 80
2, 75564, Note_on_c, 0, 72, 0
2, 75570, Note_on_c, 0, 74, 80
2, 75594, Note_on_c, 0, 74, 0
2, 75600, Note_on_c, 0, 75, 80
2, 75624, Note_on_c, 0, 75, 0
2, 75630, Note_on_c, 0, 77, 80
2, 75654, Note_on_c, 0, 77, 0
2, 75660, Note_on_c, 0, 79, 80
2, 75684, Note_on_c, 0, 79, 0
2, 75690, Note_on_c, 0, 80, 80
2, 75714, Note_on_c, 0, 80, 0
2, 75720, Note_on_c, 0, 82, 80
2, 75744, Note_on_c, 0, 82, 0
2, 75750, Note_on_c, 0, 79, 80
2, 75774, Note_on_c, 0, 79, 0
2, 75780, Note_on_c, 0, 77, 80
2, 75804, Note_on_c, 0, 77, 0
2, 75810, Note_on_c, 0, 75, 80
2, 75834, Note_on_c, 0, 75, 0
2, 75840, Note_on_c, 0, 74, 80
2, 75864, Note_on_c, 0, 74, 0
2, 75870, Note_on_c, 0, 75, 80
2, 75894, Note_on_c, 0, 75, 0
2, 75900, Note_on_c, 0, 77, 80
2, 75924, Note_on_c, 0, 77, 0
2, 75930, Note_on_c, 0, 79, 80
2, 75954, Note_on_c, 0, 79, 0
2, 75960, Note_on_c, 0, 80, 80
2, 75984, Note_on_c, 0, 80, 0
2, 75990, Note_on_c, 0, 79, 80
2, 76014, Note_on_c, 0, 79, 0
2, 76020, Note_on_c, 0, 77, 80
2, 76044, Note_on_c, 0, 77, 0
2, 76050, Note_on_c, 0, 75, 80
2, 76074, Note_on_c, 0, 75, 0
2, 76080, Note_on_c, 0, 74, 80
2, 76104, Note_on_c, 0, 74, 0
2, 76110, Note_on_c, 0, 75, 80
2, 76134, Note_on_c, 0, 75, 0
2, 76140, Note_on_c, 0, 77, 80
2, 76164, Note_on_c, 0, 77, 0
2, 76170, Note_on_c, 0, 79, 80
2, 76194, Note_on_c, 0, 79, 0
2, 76200, Note_on_c, 0, 80, 80
2, 76224, Note_on_c, 0, 80, 0
2, 76230, Note_on_c, 0, 79, 80
2, 76254, Note_on_c, 0, 79, 0
2, 76260, Note_on_c, 0, 77, 80
2, 76284, Note_on_c, 0, 77, 0
2, 76290, Note_on_c, 0, 75, 80
2, 76314, Note_on_c, 0, 75, 0
2, 76320, Note_on_c, 0, 74, 80
2, 76344, Note_on_c, 0, 74, 0
2, 76350, Note_on_c, 0, 75, 80
2, 76374, Note_on_c, 0, 75, 0
2, 76380, Note_on_c, 0, 77, 80
2, 76404, Note_on_c, 0, 77, 0
2, 76410, Note_on_c, 0, 79, 80
2, 76434, Note_on_c, 0, 79, 0
2, 76440, Note_on_c, 0, 80, 80
2, 76464, Note_on_c, 0, 80, 0
2, 76470, Note_on_c, 0, 79, 80
2, 76494, Note_on_c, 0, 79, 0
2, 76500, Note_on_c, 0, 77, 80
2, 76524, Note_on_c, 0, 77, 0
2, 76530, Note_on_c, 0, 75, 80
2, 76554, Note_on_c, 0, 75, 0
2, 76560, Note_on_c, 0, 74, 80
2, 76584, Note_on_c, 0, 74, 0
2, 76590, Note_on_c, 0, 75, 80
2, 76614, Note_on_c, 0, 75, 0
2, 76620, Note_on_c, 0, 77, 80
2, 76644, Note_on_c, 0, 77, 0
2, 76650, Note_on_c, 0, 79, 80
2, 76674, Note_on_c, 0, 79, 0
2, 76680, Note_on_c, 0, 80, 80
2, 76704, Note_on_c, 0, 80, 0
2, 76710, Note_on_c, 0, 77, 80
2, 76734, Note_on_c, 0, 77, 0
2, 76740, Note_on_c, 0, 75, 80
2, 76764, Note_on_c, 0, 75, 0
2, 76770, Note_on_c, 0, 74, 80
2, 76794, Note_on_c, 0, 74, 0
2, 76860, Note_on_c, 0, 77, 80
2, 76872, Note_on_c, 0, 77, 0
2, 76875, Note_on_c, 0, 75, 80
2, 76887, Note_on_c, 0, 75, 0
2, 76890, Note_on_c, 0, 74, 80
2, 76902, Note_on_c, 0, 74, 0
2, 76905, Note_on_c, 0, 75, 80
2, 76917, Note_on_c, 0, 75, 0
2, 76920, Note_on_c, 0, 79, 80
2, 76944, Note_on_c, 0, 79, 0
2, 76980, Note_on_c, 0, 71, 80
2, 77004, Note_on_c, 0, 71, 0
2, 77100, Note_on_c, 0, 74, 80
2, 77112, Note_on_c, 0, 74, 0
2, 77115, Note_on_c, 0, 72, 80
2, 77127, Note_on_c, 0, 72, 0
2, 77130, Note_on_c, 0, 71, 80
2, 77142, Note_on_c, 0, 71, 0
2, 77145, Note_on_c, 0, 72, 80
2, 77157, Note_on_c, 0, 72, 0
2, 77160, Note_on_c, 0, 75, 80
2, 77184, Note_on_c, 0, 75, 0
2, 77220, Note_on_c, 0, 68, 80
2, 77244, Note_on_c, 0, 68, 0
2, 77340, Note_on_c, 0, 68, 80
2, 77352, Note_on_c, 0, 68, 0
2, 77355, Note_on_c, 0, 67, 80
2, 77367, Note_on_c, 0, 67, 0
2, 77370, Note_on_c, 0, 66, 80
2, 77382, Note_on_c, 0, 66, 0
2, 77385, Note_on_c, 0, 67, 80
2, 77397, Note_on_c, 0, 67, 0
2, 77400, Note_on_c, 0, 70, 80
2, 77448, Note_on_c, 0, 70, 0
2, 77460, Note_on_c, 0, 64, 80
2, 77508, Note_on_c, 0, 64, 0
2, 77580, Note_on_c, 0, 67, 80
2, 77592, Note_on_c, 0, 67, 0
2, 77595, Note_on_c, 0, 65, 80
2, 77607, Note_on_c, 0, 65, 0
2, 77610, Note_on_c, 0, 64, 80
2, 77622, Note_on_c, 0, 64, 0
2, 77625, Note_on_c, 0, 65, 80
2, 77637, Note_on_c, 0, 65, 0
2, 77640, Note_on_c, 0, 68, 80
2, 77688, Note_on_c, 0, 68, 0
2, 77700, Note_on_c, 0, 62, 80
2, 77748, Note_on_c, 0, 62, 0
2, 77760, Note_on_c, 0, 62, 80
2, 77952, Note_on_c, 0, 62, 0
2, 78000, Note_on_c, 0, 63, 80
2, 78096, Note_on_c, 0, 63, 0
2, 78300, Note_on_c, 0, 79, 80
2, 78312, Note_on_c, 0, 79, 0
2, 78315, Note_on_c, 0, 77, 80
2, 78327, Note_on_c, 0, 77, 0
2, 78330, Note_on_c, 0, 76, 80
2, 78342, Note_on_c, 0, 76, 0
2, 78345, Note_on_c, 0, 77, 80
2, 78357, Note_on_c, 0, 77, 0
2, 78360, Note_on_c, 0, 80, 80
2, 78408, Note_on_c, 0, 80, 0
2, 78420, Note_on_c, 0, 75, 80
2, 78432, Note_on_c, 0, 75, 0
2, 78435, Note_on_c, 0, 74, 80
2, 78447, Note_on_c, 0, 74, 0
2, 78450, Note_on_c, 0, 72, 80
2, 78462, Note_on_c, 0, 72, 0
2, 78465, Note_on_c, 0, 74, 80
2, 78477, Note_on_c, 0, 74, 0
2, 78480, Note_on_c, 0, 77, 80
2, 78528, Note_on_c, 0, 77, 0
2, 78540, Note_on_c, 0, 70, 80
2, 78636, Note_on_c, 0, 70, 0
2, 78660, Note_on_c, 0, 68, 80
2, 78708, Note_on_c, 0, 68, 0
2, 78720, Note_on_c, 0, 67, 80
2, 78744, Note_on_c, 0, 67, 0
2, 78750, Note_on_c, 0, 70, 80
2, 78774, Note_on_c, 0, 70, 0
2, 78780, Note_on_c, 0, 72, 80
2, 78804, Note_on_c, 0, 72, 0
2, 78810, Note_on_c, 0, 74, 80
2, 78834, Note_on_c, 0, 74, 0
2, 78840, Note_on_c, 0, 75, 80
2, 78864, Note_on_c, 0, 75, 0
2, 78870, Note_on_c, 0, 77, 80
2, 78894, Note_on_c, 0, 77, 0
2, 78900, Note_on_c, 0, 79, 80
2, 78924, Note_on_c, 0, 79, 0
2, 78930, Note_on_c, 0, 80, 80
2, 78954, Note_on_c, 0, 80, 0
2, 78960, Note_on_c, 0, 82, 80
2, 78984, Note_on_c, 0, 82, 0
2, 78990, Note_on_c, 0, 84, 80
2, 79014, Note_on_c, 0, 84, 0
2, 79020, Note_on_c, 0, 86, 80
2, 79044, Note_on_c, 0, 86, 0
2, 79050, Note_on_c, 0, 87, 80
2, 79074, Note_on_c, 0, 87, 0
2, 79080, Note_on_c, 0, 82, 80
2, 79128, Note_on_c, 0, 82, 0
2, 79260, Note_on_c, 0, 79, 80
2, 79272, Note_on_c, 0, 79, 0
2, 79275, Note_on_c, 0, 77, 80
2, 79287, Note_on_c, 0, 77, 0
2, 79290, Note_on_c, 0, 76, 80
2, 79302, Note_on_c, 0, 76, 0
2, 79305, Note_on_c, 0, 77, 80
2, 79317, Note_on_c, 0, 77, 0
2, 79320, Note_on_c, 0, 80, 80
2, 79368, Note_on_c, 0, 80, 0
2, 79380, Note_on_c, 0, 75, 80
2, 79392, Note_on_c, 0, 75, 0
2, 79395, Note_on_c, 0, 74, 80
2, 79407, Note_on_c, 0, 74, 0
2, 79410, Note_on_c, 0, 72, 80
2, 79422, Note_on_c, 0, 72, 0
2, 79425, Note_on_c, 0, 74, 80
2, 79437, Note_on_c, 0, 74, 0
2, 79440, Note_on_c, 0, 77, 80
2, 79488, Note_on_c, 0, 77, 0
2, 79500, Note_on_c, 0, 70, 80
2, 79596, Note_on_c, 0, 70, 0
2, 79620, Note_on_c, 0, 68, 80
2, 79668, Note_on_c, 0, 68, 0
2, 79680, Note_on_c, 0, 67, 80
2, 79704, Note_on_c, 0, 67, 0
2, 79710, Note_on_c, 0, 70, 80
2, 79734, Note_on_c, 0, 70, 0
2, 79740, Note_on_c, 0, 68, 80
2, 79764, Note_on_c, 0, 68, 0
2, 79770, Note_on_c, 0, 67, 80
2, 79794, Note_on_c, 0, 67, 0
2, 79800, Note_on_c, 0, 68, 80
2, 79824, Note_on_c, 0, 68, 0
2, 79830, Note_on_c, 0, 70, 80
2, 79854, Note_on_c, 0, 70, 0
2, 79860, Note_on_c, 0, 72, 80
2, 79884, Note_on_c, 0, 72, 0
2, 79890, Note_on_c, 0, 74, 80
2, 79914, Note_on_c, 0, 74, 0
2, 79920, Note_on_c, 0, 75, 80
2, 79944, Note_on_c, 0, 75, 0
2, 79950, Note_on_c, 0, 77, 80
2, 79974, Note_on_c, 0, 77, 0
2, 79980, Note_on_c, 0, 79, 80
2, 80004, Note_on_c, 0, 79, 0
2, 80010, Note_on_c, 0, 80, 80
2, 80034, Note_on_c, 0, 80, 0
2, 80040, Note_on_c, 0, 82, 80
2, 80088, Note_on_c, 0, 82, 0
2, 80100, Note_on_c, 0, 75, 80
2, 80148, Note_on_c, 0, 75, 0
2, 80160, Note_on_c, 0, 74, 80
2, 80184, Note_on_c, 0, 74, 0
2, 80190, Note_on_c, 0, 75, 80
2, 80214, Note_on_c, 0, 75, 0
2, 80220, Note_on_c, 0, 77, 80
2, 80244, Note_on_c, 0, 77, 0
2, 80250, Note_on_c, 0, 79, 80
2, 80274, Note_on_c, 0, 79, 0
2, 80280, Note_on_c, 0, 80, 80
2, 80328, Note_on_c, 0, 80, 0
2, 80340, Note_on_c, 0, 75, 80
2, 80388, Note_on_c, 0, 75, 0
2, 80400, Note_on_c, 0, 74, 80
2, 80424, Note_on_c, 0, 74, 0
2, 80430, Note_on_c, 0, 75, 80
2, 80454, Note_on_c, 0, 75, 0
2, 80460, Note_on_c, 0, 77, 80
2, 80484, Note_on_c, 0, 77, 0
2, 80490, Note_on_c, 0, 79, 80
2, 80514, Note_on_c, 0, 79, 0
2, 80520, Note_on_c, 0, 80, 80
2, 80568, Note_on_c, 0, 80, 0
2, 80580, Note_on_c, 0, 75, 80
2, 80628, Note_on_c, 0, 75, 0
2, 80640, Note_on_c, 0, 74, 80
2, 80664, Note_on_c, 0, 74, 0
2, 80670, Note_on_c, 0, 75, 80
2, 80694, Note_on_c, 0, 75, 0
2, 80700, Note_on_c, 0, 77, 80
2, 80724, Note_on_c, 0, 77, 0
2, 80730, Note_on_c, 0, 79, 80
2, 80754, Note_on_c, 0, 79, 0
2, 80760, Note_on_c, 0, 80, 80
2, 80808, Note_on_c, 0, 80, 0
2, 80820, Note_on_c, 0, 75, 80
2, 80868, Note_on_c, 0, 75, 0
2, 80880, Note_on_c, 0, 74, 80
2, 80904, Note_on_c, 0, 74, 0
2, 80910, Note_on_c, 0, 75, 80
2, 80934, Note_on_c, 0, 75, 0
2, 80940, Note_on_c, 0, 77, 80
2, 80964, Note_on_c, 0, 77, 0
2, 80970, Note_on_c, 0, 79, 80
2, 80994, Note_on_c, 0, 79, 0
2, 81000, Note_on_c, 0, 80, 80
2, 81048, Note_on_c, 0, 80, 0
2, 81060, Note_on_c, 0, 74, 80
2, 81108, Note_on_c, 0, 74, 0
2, 81180, Note_on_c, 0, 77, 80
2, 81192, Note_on_c, 0, 77, 0
2, 81195, Note_on_c, 0, 75, 80
2, 81207, Note_on_c, 0, 75, 0
2, 81210, Note_on_c, 0, 74, 80
2, 81222, Note_on_c, 0, 74, 0
2, 81225, Note_on_c, 0, 75, 80
2, 81237, Note_on_c, 0, 75, 0
2, 81240, Note_on_c, 0, 79, 80
2, 81264, Note_on_c, 0, 79, 0
2, 81300, Note_on_c, 0, 70, 80
2, 81324, Note_on_c, 0, 70, 0
2, 81420, Note_on_c, 0, 74, 80
2, 81432, Note_on_c, 0, 74, 0
2, 81435, Note_on_c, 0, 72, 80
2, 81447, Note_on_c, 0, 72, 0
2, 81450, Note_on_c, 0, 71, 80
2, 81462, Note_on_c, 0, 71, 0
2, 81465, Note_on_c, 0, 72, 80
2, 81477, Note_on_c, 0, 72, 0
2, 81480, Note_on_c, 0, 75, 80
2, 81504, Note_on_c, 0, 75, 0
2, 81540, Note_on_c, 0, 68, 80
2, 81564, Note_on_c, 0, 68, 0
2, 81660, Note_on_c, 0, 68, 80
2, 81672, Note_on_c, 0, 68, 0
2, 81675, Note_on_c, 0, 67, 80
2, 81687, Note_on_c, 0, 67, 0
2, 81690, Note_on_c, 0, 66, 80
2, 81702, Note_on_c, 0, 66, 0
2, 81705, Note_on_c, 0, 67, 80
2, 81717, Note_on_c, 0, 67, 0
2, 81720, Note_on_c, 0, 70, 80
2, 81768, Note_on_c, 0, 70, 0
2, 81780, Note_on_c, 0, 63, 80
2, 81828, Note_on_c, 0, 63, 0
2, 81900, Note_on_c, 0, 67, 80
2, 81912, Note_on_c, 0, 67, 0
2, 81915, Note_on_c, 0, 65, 80
2, 81927, Note_on_c, 0, 65, 0
2, 81930, Note_on_c, 0, 64, 80
2, 81942, Note_on_c, 0, 64, 0
2, 81945, Note_on_c, 0, 65, 80
2, 81957, Note_on_c, 0, 65, 0
2, 81960, Note_on_c, 0, 68, 80
2, 82008, Note_on_c, 0, 68, 0
2, 82020, Note_on_c, 0, 62, 80
2, 82068, Note_on_c, 0, 62, 0
2, 82110, Note_on_c, 0, 63, 80
2, 82134, Note_on_c, 0, 63, 0
2, 82140, Note_on_c, 0, 65, 80
2, 82164, Note_on_c, 0, 65, 0
2, 82170, Note_on_c, 0, 67, 80
2, 82194, Note_on_c, 0, 67, 0
2, 82200, Note_on_c, 0, 68, 80
2, 82224, Note_on_c, 0, 68, 0
2, 82230, Note_on_c, 0, 70, 80
2, 82254, Note_on_c, 0, 70, 0
2, 82260, Note_on_c, 0, 72, 80
2, 82284, Note_on_c, 0, 72, 0
2, 82290, Note_on_c, 0, 74, 80
2, 82314, Note_on_c, 0, 74, 0
2, 82320, Note_on_c, 0, 75, 80
2, 82344, Note_on_c, 0, 75, 0
2, 82350, Note_on_c, 0, 77, 80
2, 82374, Note_on_c, 0, 77, 0
2, 82380, Note_on_c, 0, 79, 80
2, 82404, Note_on_c, 0, 79, 0
2, 82410, Note_on_c, 0, 80, 80
2, 82434, Note_on_c, 0, 80, 0
2, 82440, Note_on_c, 0, 82, 80
2, 82464, Note_on_c, 0, 82, 0
2, 82470, Note_on_c, 0, 79, 80
2, 82494, Note_on_c, 0, 79, 0
2, 82500, Note_on_c, 0, 77, 80
2, 82524, Note_on_c, 0, 77, 0
2, 82530, Note_on_c, 0, 75, 80
2, 82554, Note_on_c, 0, 75, 0
2, 82560, Note_on_c, 0, 74, 80
2, 82584, Note_on_c, 0, 74, 0
2, 82590, Note_on_c, 0, 75, 80
2, 82614, Note_on_c, 0, 75, 0
2, 82620, Note_on_c, 0, 77, 80
2, 82644, Note_on_c, 0, 77, 0
2, 82650, Note_on_c, 0, 79, 80
2, 82674, Note_on_c, 0, 79, 0
2, 82680, Note_on_c, 0, 80, 80
2, 82704, Note_on_c, 0, 80, 0
2, 82710, Note_on_c, 0, 79, 80
2, 82734, Note_on_c, 0, 79, 0
2, 82740, Note_on_c, 0, 77, 80
2, 82764, Note_on_c, 0, 77, 0
2, 82770, Note_on_c, 0, 75, 80
2, 82794, Note_on_c, 0, 75, 0
2, 82800, Note_on_c, 0, 74, 80
2, 82824, Note_on_c, 0, 74, 0
2, 82830, Note_on_c, 0, 75, 80
2, 82854, Note_on_c, 0, 75, 0
2, 82860, Note_on_c, 0, 77, 80
2, 82884, Note_on_c, 0, 77, 0
2, 82890, Note_on_c, 0, 79, 80
2, 82914, Note_on_c, 0, 79, 0
2, 82920, Note_on_c, 0, 80, 80
2, 82944, Note_on_c, 0, 80, 0
2, 82950, Note_on_c, 0, 79, 80
2, 82974, Note_on_c, 0, 79, 0
2, 82980, Note_on_c, 0, 77, 80
2, 83004, Note_on_c, 0, 77, 0
2, 83010, Note_on_c, 0, 75, 80
2, 83034, Note_on_c, 0, 75, 0
2, 83040, Note_on_c, 0, 74, 80
2, 83064, Note_on_c, 0, 74, 0
2, 83070, Note_on_c, 0, 75, 80
2, 83094, Note_on_c, 0, 75, 0
2, 83100, Note_on_c, 0, 77, 80
2, 83124, Note_on_c, 0, 77, 0
2, 83130, Note_on_c, 0, 79, 80
2, 83154, Note_on_c, 0, 79, 0
2, 83160, Note_on_c, 0, 80, 80
2, 83184, Note_on_c, 0, 80, 0
2, 83190, Note_on_c, 0, 79, 80
2, 83214, Note_on_c, 0, 79, 0
2, 83220, Note_on_c, 0, 77, 80
2, 83244, Note_on_c, 0, 77, 0
2, 83250, Note_on_c, 0, 75, 80
2, 83274, Note_on_c, 0, 75, 0
2, 83280, Note_on_c, 0, 74, 80
2, 83304, Note_on_c, 0, 74, 0
2, 83310, Note_on_c, 0, 75, 80
2, 83334, Note_on_c, 0, 75, 0
2, 83340, Note_on_c, 0, 77, 80
2, 83364, Note_on_c, 0, 77, 0
2, 83370, Note_on_c, 0, 79, 80
2, 83394, Note_on_c, 0, 79, 0
2, 83400, Note_on_c, 0, 80, 80
2, 83424, Note_on_c, 0, 80, 0
2, 83430, Note_on_c, 0, 77, 80
2, 83454, Note_on_c, 0, 77, 0
2, 83460, Note_on_c, 0, 75, 80
2, 83484, Note_on_c, 0, 75, 0
2, 83490, Note_on_c, 0, 74, 80
2, 83514, Note_on_c, 0, 74, 0
2, 83580, Note_on_c, 0, 77, 80
2, 83592, Note_on_c, 0, 77, 0
2, 83595, Note_on_c, 0, 75, 80
2, 83607, Note_on_c, 0, 75, 0
2, 83610, Note_on_c, 0, 74, 80
2, 83622, Note_on_c, 0, 74, 0
2, 83625, Note_on_c, 0, 75, 80
2, 83637, Note_on_c, 0, 75, 0
2, 83640, Note_on_c, 0, 79, 80
2, 83664, Note_on_c, 0, 79, 0
2, 83700, Note_on_c, 0, 71, 80
2, 83724, Note_on_c, 0, 71, 0
2, 83820, Note_on_c, 0, 74, 80
2, 83832, Note_on_c, 0, 74, 0
2, 83835, Note_on_c, 0, 72, 80
2, 83847, Note_on_c, 0, 72, 0
2, 83850, Note_on_c, 0, 71, 80
2, 83862, Note_on_c, 0, 71, 0
2, 83865, Note_on_c, 0, 72, 80
2, 83877, Note_on_c, 0, 72, 0
2, 83880, Note_on_c, 0, 75, 80
2, 83904, Note_on_c, 0, 75, 0
2, 83940, Note_on_c, 0, 68, 80
2, 83964, Note_on_c, 0, 68, 0
2, 84060, Note_on_c, 0, 68, 80
2, 84072, Note_on_c, 0, 68, 0
2, 84075, Note_on_c, 0, 67, 80
2, 84087, Note_on_c, 0, 67, 0
2, 84090, Note_on_c, 0, 66, 80
2, 84102, Note_on_c, 0, 66, 0
2, 84105, Note_on_c, 0, 67, 80
2, 84117, Note_on_c, 0, 67, 0
2, 84120, Note_on_c, 0, 70, 80
2, 84168, Note_on_c, 0, 70, 0
2, 84180, Note_on_c, 0, 64, 80
2, 84228, Note_on_c, 0, 64, 0
2, 84300, Note_on_c, 0, 67, 80
2, 84312, Note_on_c, 0, 67, 0
2, 84315, Note_on_c, 0, 65, 80
2, 84327, Note_on_c, 0, 65, 0
2, 84330, Note_on_c, 0, 64, 80
2, 84342, Note_on_c, 0, 64, 0
2, 84345, Note_on_c, 0, 65, 80
2, 84357, Note_on_c, 0, 65, 0
2, 84360, Note_on_c, 0, 68, 80
2, 84408, Note_on_c, 0, 68, 0
2, 84420, Note_on_c, 0, 62, 80
2, 84468, Note_on_c, 0, 62, 0
2, 84480, Note_on_c, 0, 62, 80
2, 84672, Note_on_c, 0, 62, 0
2, 84720, Note_on_c, 0, 63, 80
2, 84816, Note_on_c, 0, 63, 0
2, 86040, Note_on_c, 0, 82, 64
2, 86136, Note_on_c, 0, 82, 0
2, 86160, Note_on_c, 0, 80, 64
2, 86256, Note_on_c, 0, 80, 0
2, 86280, Note_on_c, 0, 79, 64
2, 86376, Note_on_c, 0, 79, 0
2, 86400, Note_on_c, 0, 77, 64
2, 86496, Note_on_c, 0, 77, 0
2, 86520, Note_on_c, 0, 70, 64
2, 86616, Note_on_c, 0, 70, 0
2, 86640, Note_on_c, 0, 75, 64
2, 86736, Note_on_c, 0, 75, 0
2, 87000, Note_on_c, 0, 87, 64
2, 87096, Note_on_c, 0, 87, 0
2, 87120, Note_on_c, 0, 86, 64
2, 87216, Note_on_c, 0, 86, 0
2, 87480, Note_on_c, 0, 87, 64
2, 87576, Note_on_c, 0, 87, 0
2, 87600, Note_on_c, 0, 86, 64
2, 87696, Note_on_c, 0, 86, 0
2, 89880, Note_on_c, 0, 82, 64
2, 89976, Note_on_c, 0, 82, 0
2, 90000, Note_on_c, 0, 80, 64
2, 90096, Note_on_c, 0, 80, 0
2, 90120, Note_on_c, 0, 79, 64
2, 90216, Note_on_c, 0, 79, 0
2, 90240, Note_on_c, 0, 77, 64
2, 90336, Note_on_c, 0, 77, 0
2, 90360, Note_on_c, 0, 70, 64
2, 90456, Note_on_c, 0, 70, 0
2, 90480, Note_on_c, 0, 75, 64
2, 90576, Note_on_c, 0, 75, 0
2, 90840, Note_on_c, 0, 87, 64
2, 90936, Note_on_c, 0, 87, 0
2, 90960, Note_on_c, 0, 86, 64
2, 91056, Note_on_c, 0, 86, 0
2, 91320, Note_on_c, 0, 87, 64
2, 91416, Note_on_c, 0, 87, 0
2, 91440, Note_on_c, 0, 86, 64
2, 91536, Note_on_c, 0, 86, 0
2, 92760, Note_on_c, 0, 82, 64
2, 92856, Note_on_c, 0, 82, 0
2, 92880, Note_on_c, 0, 81, 64
2, 92976, Note_on_c, 0, 81, 0
2, 93000, Note_on_c, 0, 80, 64
2, 93096, Note_on_c, 0, 80, 0
2, 93120, Note_on_c, 0, 79, 64
2, 93216, Note_on_c, 0, 79, 0
2, 93720, Note_on_c, 0, 82, 64
2, 93816, Note_on_c, 0, 82, 0
2, 93840, Note_on_c, 0, 84, 64
2, 93936, Note_on_c, 0, 84, 0
2, 93960, Note_on_c, 0, 86, 64
2, 94056, Note_on_c, 0, 86, 0
2, 94080, Note_on_c, 0, 87, 64
2, 94176, Note_on_c, 0, 87, 0
2, 94680, Note_on_c, 0, 80, 64
2, 94776, Note_on_c, 0, 80, 0
2, 94800, Note_on_c, 0, 80, 64
2, 94896, Note_on_c, 0, 80, 0
2, 94920, Note_on_c, 0, 80, 64
2, 95016, Note_on_c, 0, 80, 0
2, 95160, Note_on_c, 0, 80, 64
2, 95256, Note_on_c, 0, 80, 0
2, 95280, Note_on_c, 0, 80, 64
2, 95376, Note_on_c, 0, 80, 0
2, 95400, Note_on_c, 0, 80, 64
2, 95496, Note_on_c, 0, 80, 0
2, 95520, Note_on_c, 0, 79, 64
2, 95616, Note_on_c, 0, 79, 0
2, 95640, Note_on_c, 0, 83, 64
2, 95736, Note_on_c, 0, 83, 0
2, 95760, Note_on_c, 0, 84, 64
2, 95856, Note_on_c, 0, 84, 0
2, 95880, Note_on_c, 0, 81, 64
2, 95976, Note_on_c, 0, 81, 0
2, 96000, Note_on_c, 0, 82, 64
2, 96096, Note_on_c, 0, 82, 0
2, 97080, Note_on_c, 0, 80, 64
2, 97176, Note_on_c, 0, 80, 0
2, 97200, Note_on_c, 0, 80, 64
2, 97296, Note_on_c, 0, 80, 0
2, 97320, Note_on_c, 0, 80, 64
2, 97416, Note_on_c, 0, 80, 0
2, 97560, Note_on_c, 0, 80, 64
2, 97656, Note_on_c, 0, 80, 0
2, 97680, Note_on_c, 0, 80, 64
2, 97776, Note_on_c, 0, 80, 0
2, 97800, Note_on_c, 0, 80, 64
2, 97896, Note_on_c, 0, 80, 0
2, 97920, Note_on_c, 0, 79, 64
2, 98016, Note_on_c, 0, 79, 0
2, 98040, Note_on_c, 0, 83, 64
2, 98136, Note_on_c, 0, 83, 0
2, 98160, Note_on_c, 0, 84, 64
2, 98256, Note_on_c, 0, 84, 0
2, 98280, Note_on_c, 0, 81, 64
2, 98376, Note_on_c, 0, 81, 0
2, 98400, Note_on_c, 0, 82, 64
2, 98496, Note_on_c, 0, 82, 0
2, 98840, Note_on_c, 0, 74, 64
2, 98872, Note_on_c, 0, 74, 0
2, 98880, Note_on_c, 0, 74, 64
2, 99072, Note_on_c, 0, 74, 0
2, 99120, Note_on_c, 0, 75, 64
2, 99216, Note_on_c, 0, 75, 0
2, 99480, Note_on_c, 0, 82, 64
2, 99576, Note_on_c, 0, 82, 0
2, 99600, Note_on_c, 0, 81, 64
2, 99696, Note_on_c, 0, 81, 0
2, 99720, Note_on_c, 0, 80, 64
2, 99816, Note_on_c, 0, 80, 0
2, 99840, Note_on_c, 0, 79, 64
2, 99936, Note_on_c, 0, 79, 0
2, 100440, Note_on_c, 0, 82, 64
2, 100536, Note_on_c, 0, 82, 0
2, 100560, Note_on_c, 0, 84, 64
2, 100656, Note_on_c, 0, 84, 0
2, 100680, Note_on_c, 0, 86, 64
2, 100776, Note_on_c, 0, 86, 0
2, 100800, Note_on_c, 0, 87, 64
2, 100896, Note_on_c, 0, 87, 0
2, 101400, Note_on_c, 0, 80, 64
2, 101496, Note_on_c, 0, 80, 0
2, 101520, Note_on_c, 0, 80, 64
2, 101616, Note_on_c, 0, 80, 0
2, 101640, Note_on_c, 0, 80, 64
2, 101736, Note_on_c, 0, 80, 0
2, 101880, Note_on_c, 0, 80, 64
2, 101976, Note_on_c, 0, 80, 0
2, 102000, Note_on_c, 0, 80, 64
2, 102096, Note_on_c, 0, 80, 0
2, 102120, Note_on_c, 0, 80, 64
2, 102216, Note_on_c, 0, 80, 0
2, 102240, Note_on_c, 0, 79, 64
2, 102336, Note_on_c, 0, 79, 0
2, 102360, Note_on_c, 0, 83, 64
2, 102456, Note_on_c, 0, 83, 0
2, 102480, Note_on_c, 0, 84, 64
2, 102576, Note_on_c, 0, 84, 0
2, 102600, Note_on_c, 0, 81, 64
2, 102696, Note_on_c, 0, 81, 0
2, 102720, Note_on_c, 0, 82, 64
2, 102816, Note_on_c, 0, 82, 0
2, 103800, Note_on_c, 0, 80, 64
2, 103896, Note_on_c, 0, 80, 0
2, 103920, Note_on_c, 0, 80, 64
2, 104016, Note_on_c, 0, 80, 0
2, 104040, Note_on_c, 0, 80, 64
2, 104136, Note_on_c, 0, 80, 0
2, 104280, Note_on_c, 0, 80, 64
2, 104376, Note_on_c, 0, 80, 0
2, 104400, Note_on_c, 0, 80, 64
2, 104496, Note_on_c, 0, 80, 0
2, 104520, Note_on_c, 0, 80, 64
2, 104616, Note_on_c, 0, 80, 0
2, 104640, Note_on_c, 0, 79, 64
2, 104736, Note_on_c, 0, 79, 0
2, 104760, Note_on_c, 0, 83, 64
2, 104856, Note_on_c, 0, 83, 0
2, 104880, Note_on_c, 0, 84, 64
2, 104976, Note_on_c, 0, 84, 0
2, 105000, Note_on_c, 0, 81, 64
2, 105096, Note_on_c, 0, 81, 0
2, 105120, Note_on_c, 0, 82, 64
2, 105216, Note_on_c, 0, 82, 0
2, 105560, Note_on_c, 0, 74, 64
2, 105592, Note_on_c, 0, 74, 0
2, 105600, Note_on_c, 0, 74, 64
2, 105792, Note_on_c, 0, 74, 0
2, 105840, Note_on_c, 0, 75, 64
2, 105936, Note_on_c, 0, 75, 0
2, 106080, Note_on_c, 0, 70, 80
2, 106140, Note_on_c, 0, 70, 0
2, 106140, Note_on_c, 0, 82, 80
2, 106188, Note_on_c, 0, 82, 0
2, 106200, Note_on_c, 0, 67, 80
2, 106260, Note_on_c, 0, 67, 0
2, 106260, Note_on_c, 0, 79, 80
2, 106308, Note_on_c, 0, 79, 0
2, 106320, Note_on_c, 0, 67, 80
2, 106380, Note_on_c, 0, 67, 0
2, 106380, Note_on_c, 0, 79, 80
2, 106428, Note_on_c, 0, 79, 0
2, 106440, Note_on_c, 0, 67, 80
2, 106500, Note_on_c, 0, 67, 0
2, 106500, Note_on_c, 0, 79, 80
2, 106548, Note_on_c, 0, 79, 0
2, 106560, Note_on_c, 0, 67, 80
2, 106620, Note_on_c, 0, 67, 0
2, 106620, Note_on_c, 0, 79, 80
2, 106668, Note_on_c, 0, 79, 0
2, 106680, Note_on_c, 0, 63, 80
2, 106740, Note_on_c, 0, 63, 0
2, 106740, Note_on_c, 0, 75, 80
2, 106788, Note_on_c, 0, 75, 0
2, 106800, Note_on_c, 0, 63, 80
2, 106860, Note_on_c, 0, 63, 0
2, 106860, Note_on_c, 0, 75, 80
2, 106908, Note_on_c, 0, 75, 0
2, 106920, Note_on_c, 0, 63, 80
2, 106980, Note_on_c, 0, 63, 0
2, 106980, Note_on_c, 0, 75, 80
2, 107028, Note_on_c, 0, 75, 0
2, 107040, Note_on_c, 0, 64, 80
2, 107100, Note_on_c, 0, 64, 0
2, 107100, Note_on_c, 0, 76, 80
2, 107148, Note_on_c, 0, 76, 0
2, 107160, Note_on_c, 0, 65, 80
2, 107220, Note_on_c, 0, 65, 0
2, 107220, Note_on_c, 0, 77, 80
2, 107268, Note_on_c, 0, 77, 0
2, 107280, Note_on_c, 0, 66, 80
2, 107340, Note_on_c, 0, 66, 0
2, 107340, Note_on_c, 0, 78, 80
2, 107388, Note_on_c, 0, 78, 0
2, 107400, Note_on_c, 0, 67, 80
2, 107460, Note_on_c, 0, 67, 0
2, 107460, Note_on_c, 0, 79, 80
2, 107508, Note_on_c, 0, 79, 0
2, 107520, Note_on_c, 0, 70, 80
2, 107580, Note_on_c, 0, 70, 0
2, 107580, Note_on_c, 0, 82, 80
2, 107628, Note_on_c, 0, 82, 0
2, 107640, Note_on_c, 0, 68, 80
2, 107700, Note_on_c, 0, 68, 0
2, 107700, Note_on_c, 0, 80, 80
2, 107748, Note_on_c, 0, 80, 0
2, 107760, Note_on_c, 0, 67, 80
2, 107820, Note_on_c, 0, 67, 0
2, 107820, Note_on_c, 0, 79, 80
2, 107868, Note_on_c, 0, 79, 0
2, 107880, Note_on_c, 0, 70, 80
2, 107940, Note_on_c, 0, 70, 0
2, 107940, Note_on_c, 0, 82, 80
2, 107988, Note_on_c, 0, 82, 0
2, 108000, Note_on_c, 0, 63, 80
2, 108060, Note_on_c, 0, 63, 0
2, 108060, Note_on_c, 0, 75, 80
2, 108108, Note_on_c, 0, 75, 0
2, 108120, Note_on_c, 0, 75, 80
2, 108180, Note_on_c, 0, 75, 0
2, 108180, Note_on_c, 0, 87, 80
2, 108228, Note_on_c, 0, 87, 0
2, 108240, Note_on_c, 0, 74, 80
2, 108300, Note_on_c, 0, 74, 0
2, 108300, Note_on_c, 0, 86, 80
2, 108348, Note_on_c, 0, 86, 0
2, 108360, Note_on_c, 0, 62, 80
2, 108420, Note_on_c, 0, 62, 0
2, 108420, Note_on_c, 0, 74, 80
2, 108468, Note_on_c, 0, 74, 0
2, 108480, Note_on_c, 0, 63, 80
2, 108540, Note_on_c, 0, 63, 0
2, 108540, Note_on_c, 0, 75, 80
2, 108588, Note_on_c, 0, 75, 0
2, 108600, Note_on_c, 0, 75, 80
2, 108660, Note_on_c, 0, 75, 0
2, 108660, Note_on_c, 0, 87, 80
2, 108708, Note_on_c, 0, 87, 0
2, 108720, Note_on_c, 0, 74, 80
2, 108780, Note_on_c, 0, 74, 0
2, 108780, Note_on_c, 0, 86, 80
2, 108828, Note_on_c, 0, 86, 0
2, 108840, Note_on_c, 0, 62, 80
2, 108900, Note_on_c, 0, 62, 0
2, 108900, Note_on_c, 0, 74, 80
2, 108948, Note_on_c, 0, 74, 0
2, 108960, Note_on_c, 0, 63, 80
2, 109020, Note_on_c, 0, 63, 0
2, 109020, Note_on_c, 0, 75, 80
2, 109068, Note_on_c, 0, 75, 0
2, 109080, Note_on_c, 0, 70, 80
2, 109140, Note_on_c, 0, 70, 0
2, 109140, Note_on_c, 0, 82, 80
2, 109188, Note_on_c, 0, 82, 0
2, 109200, Note_on_c, 0, 68, 80
2, 109260, Note_on_c, 0, 68, 0
2, 109260, Note_on_c, 0, 80, 80
2, 109308, Note_on_c, 0, 80, 0
2, 109320, Note_on_c, 0, 67, 80
2, 109380, Note_on_c, 0, 67, 0
2, 109380, Note_on_c, 0, 79, 80
2, 109428, Note_on_c, 0, 79, 0
2, 109440, Note_on_c, 0, 67, 80
2, 109500, Note_on_c, 0, 67, 0
2, 109500, Note_on_c, 0, 79, 80
2, 109548, Note_on_c, 0, 79, 0
2, 109560, Note_on_c, 0, 70, 80
2, 109620, Note_on_c, 0, 70, 0
2, 109620, Note_on_c, 0, 82, 80
2, 109668, Note_on_c, 0, 82, 0
2, 109680, Note_on_c, 0, 65, 80
2, 109740, Note_on_c, 0, 65, 0
2, 109740, Note_on_c, 0, 77, 80
2, 109788, Note_on_c, 0, 77, 0
2, 109920, Note_on_c, 0, 70, 80
2, 109980, Note_on_c, 0, 70, 0
2, 109980, Note_on_c, 0, 82, 80
2, 110028, Note_on_c, 0, 82, 0
2, 110040, Note_on_c, 0, 67, 80
2, 110100, Note_on_c, 0, 67, 0
2, 110100, Note_on_c, 0, 79, 80
2, 110148, Note_on_c, 0, 79, 0
2, 110160, Note_on_c, 0, 67, 80
2, 110220, Note_on_c, 0, 67, 0
2, 110220, Note_on_c, 0, 79, 80
2, 110268, Note_on_c, 0, 79, 0
2, 110280, Note_on_c, 0, 67, 80
2, 110340, Note_on_c, 0, 67, 0
2, 110340, Note_on_c, 0, 79, 80
2, 110388, Note_on_c, 0, 79, 0
2, 110400, Note_on_c, 0, 67, 80
2, 110460, Note_on_c, 0, 67, 0
2, 110460, Note_on_c, 0, 79, 80
2, 110508, Note_on_c, 0, 79, 0
2, 110520, Note_on_c, 0, 63, 80
2, 110580, Note_on_c, 0, 63, 0
2, 110580, Note_on_c, 0, 75, 80
2, 110628, Note_on_c, 0, 75, 0
2, 110640, Note_on_c, 0, 63, 80
2, 110700, Note_on_c, 0, 63, 0
2, 110700, Note_on_c, 0, 75, 80
2, 110748, Note_on_c, 0, 75, 0
2, 110760, Note_on_c, 0, 63, 80
2, 110820, Note_on_c, 0, 63, 0
2, 110820, Note_on_c, 0, 75, 80
2, 110868, Note_on_c, 0, 75, 0
2, 110880, Note_on_c, 0, 64, 80
2, 110940, Note_on_c, 0, 64, 0
2, 110940, Note_on_c, 0, 76, 80
2, 110988, Note_on_c, 0, 76, 0
2, 111000, Note_on_c, 0, 65, 80
2, 111060, Note_on_c, 0, 65, 0
2, 111060, Note_on_c, 0, 77, 80
2, 111108, Note_on_c, 0, 77, 0
2, 111120, Note_on_c, 0, 66, 80
2, 111180, Note_on_c, 0, 66, 0
2, 111180, Note_on_c, 0, 78, 80
2, 111228, Note_on_c, 0, 78, 0
2, 111240, Note_on_c, 0, 67, 80
2, 111300, Note_on_c, 0, 67, 0
2, 111300, Note_on_c, 0, 79, 80
2, 111348, Note_on_c, 0, 79, 0
2, 111360, Note_on_c, 0, 70, 80
2, 111420, Note_on_c, 0, 70, 0
2, 111420, Note_on_c, 0, 82, 80
2, 111468, Note_on_c, 0, 82, 0
2, 111480, Note_on_c, 0, 68, 80
2, 111540, Note_on_c, 0, 68, 0
2, 111540, Note_on_c, 0, 80, 80
2, 111588, Note_on_c, 0, 80, 0
2, 111600, Note_on_c, 0, 67, 80
2, 111660, Note_on_c, 0, 67, 0
2, 111660, Note_on_c, 0, 79, 80
2, 111708, Note_on_c, 0, 79, 0
2, 111720, Note_on_c, 0, 70, 80
2, 111780, Note_on_c, 0, 70, 0
2, 111780, Note_on_c, 0, 82, 80
2, 111828, Note_on_c, 0, 82, 0
2, 111840, Note_on_c, 0, 63, 80
2, 111900, Note_on_c, 0, 63, 0
2, 111900, Note_on_c, 0, 75, 80
2, 111948, Note_on_c, 0, 75, 0
2, 111960, Note_on_c, 0, 75, 80
2, 112020, Note_on_c, 0, 75, 0
2, 112020, Note_on_c, 0, 87, 80
2, 112068, Note_on_c, 0, 87, 0
2, 112080, Note_on_c, 0, 74, 80
2, 112140, Note_on_c, 0, 74, 0
2, 112140, Note_on_c, 0, 86, 80
2, 112188, Note_on_c, 0, 86, 0
2, 112200, Note_on_c, 0, 62, 80
2, 112260, Note_on_c, 0, 62, 0
2, 112260, Note_on_c, 0, 74, 80
2, 112308, Note_on_c, 0, 74, 0
2, 112320, Note_on_c, 0, 63, 80
2, 112380, Note_on_c, 0, 63, 0
2, 112380, Note_on_c, 0, 75, 80
2, 112428, Note_on_c, 0, 75, 0
2, 112440, Note_on_c, 0, 75, 80
2, 112500, Note_on_c, 0, 75, 0
2, 112500, Note_on_c, 0, 87, 80
2, 112548, Note_on_c, 0, 87, 0
2, 112560, Note_on_c, 0, 74, 80
2, 112620, Note_on_c, 0, 74, 0
2, 112620, Note_on_c, 0, 86, 80
2, 112668, Note_on_c, 0, 86, 0
2, 112680, Note_on_c, 0, 62, 80
2, 112740, Note_on_c, 0, 62, 0
2, 112740, Note_on_c, 0, 74, 80
2, 112788, Note_on_c, 0, 74, 0
2, 112800, Note_on_c, 0, 63, 80
2, 112860, Note_on_c, 0, 63, 0
2, 112860, Note_on_c, 0, 75, 80
2, 112908, Note_on_c, 0, 75, 0
2, 112920, Note_on_c, 0, 70, 80
2, 112980, Note_on_c, 0, 70, 0
2, 112980, Note_on_c, 0, 82, 80
2, 113028, Note_on_c, 0, 82, 0
2, 113040, Note_on_c, 0, 68, 80
2, 113100, Note_on_c, 0, 68, 0
2, 113100, Note_on_c, 0, 80, 80
2, 113148, Note_on_c, 0, 80, 0
2, 113160, Note_on_c, 0, 67, 80
2, 113220, Note_on_c, 0, 67, 0
2, 113220, Note_on_c, 0, 79, 80
2, 113268, Note_on_c, 0, 79, 0
2, 113280, Note_on_c, 0, 67, 80
2, 113340, Note_on_c, 0, 67, 0
2, 113340, Note_on_c, 0, 79, 80
2, 113388, Note_on_c, 0, 79, 0
2, 113400, Note_on_c, 0, 70, 80
2, 113460, Note_on_c, 0, 70, 0
2, 113460, Note_on_c, 0, 82, 80
2, 113508, Note_on_c, 0, 82, 0
2, 113520, Note_on_c, 0, 65, 80
2, 113580, Note_on_c, 0, 65, 0
2, 113580, Note_on_c, 0, 77, 80
2, 113628, Note_on_c, 0, 77, 0
2, 113760, Note_on_c, 0, 64, 80
2, 113820, Note_on_c, 0, 64, 0
2, 113820, Note_on_c, 0, 76, 80
2, 113868, Note_on_c, 0, 76, 0
2, 113880, Note_on_c, 0, 65, 80
2, 113940, Note_on_c, 0, 65, 0
2, 113940, Note_on_c, 0, 77, 80
2, 113988, Note_on_c, 0, 77, 0
2, 114000, Note_on_c, 0, 67, 80
2, 114060, Note_on_c, 0, 67, 0
2, 114060, Note_on_c, 0, 79, 80
2, 114108, Note_on_c, 0, 79, 0
2, 114120, Note_on_c, 0, 68, 80
2, 114180, Note_on_c, 0, 68, 0
2, 114180, Note_on_c, 0, 80, 80
2, 114228, Note_on_c, 0, 80, 0
2, 114240, Note_on_c, 0, 66, 80
2, 114300, Note_on_c, 0, 66, 0
2, 114300, Note_on_c, 0, 78, 80
2, 114348, Note_on_c, 0, 78, 0
2, 114360, Note_on_c, 0, 67, 80
2, 114420, Note_on_c, 0, 67, 0
2, 114420, Note_on_c, 0, 79, 80
2, 114468, Note_on_c, 0, 79, 0
2, 114480, Note_on_c, 0, 69, 80
2, 114540, Note_on_c, 0, 69, 0
2, 114540, Note_on_c, 0, 81, 80
2, 114588, Note_on_c, 0, 81, 0
2, 114600, Note_on_c, 0, 70, 80
2, 114660, Note_on_c, 0, 70, 0
2, 114660, Note_on_c, 0, 82, 80
2, 114708, Note_on_c, 0, 82, 0
2, 114720, Note_on_c, 0, 64, 80
2, 114780, Note_on_c, 0, 64, 0
2, 114780, Note_on_c, 0, 76, 80
2, 114828, Note_on_c, 0, 76, 0
2, 114840, Note_on_c, 0, 65, 80
2, 114900, Note_on_c, 0, 65, 0
2, 114900, Note_on_c, 0, 77, 80
2, 114948, Note_on_c, 0, 77, 0
2, 114960, Note_on_c, 0, 67, 80
2, 115020, Note_on_c, 0, 67, 0
2, 115020, Note_on_c, 0, 79, 80
2, 115068, Note_on_c, 0, 79, 0
2, 115080, Note_on_c, 0, 68, 80
2, 115140, Note_on_c, 0, 68, 0
2, 115140, Note_on_c, 0, 80, 80
2, 115188, Note_on_c, 0, 80, 0
2, 115200, Note_on_c, 0, 66, 80
2, 115260, Note_on_c, 0, 66, 0
2, 115260, Note_on_c, 0, 78, 80
2, 115308, Note_on_c, 0, 78, 0
2, 115320, Note_on_c, 0, 67, 80
2, 115380, Note_on_c, 0, 67, 0
2, 115380, Note_on_c, 0, 79, 80
2, 115428, Note_on_c, 0, 79, 0
2, 115440, Note_on_c, 0, 69, 80
2, 115500, Note_on_c, 0, 69, 0
2, 115500, Note_on_c, 0, 81, 80
2, 115548, Note_on_c, 0, 81, 0
2, 115560, Note_on_c, 0, 70, 80
2, 115620, Note_on_c, 0, 70, 0
2, 115620, Note_on_c, 0, 82, 80
2, 115668, Note_on_c, 0, 82, 0
2, 115680, Note_on_c, 0, 75, 80
2, 115740, Note_on_c, 0, 75, 0
2, 115740, Note_on_c, 0, 87, 80
2, 115788, Note_on_c, 0, 87, 0
2, 115800, Note_on_c, 0, 74, 80
2, 115860, Note_on_c, 0, 74, 0
2, 115860, Note_on_c, 0, 86, 80
2, 115908, Note_on_c, 0, 86, 0
2, 115920, Note_on_c, 0, 72, 80
2, 115980, Note_on_c, 0, 72, 0
2, 115980, Note_on_c, 0, 84, 80
2, 116028, Note_on_c, 0, 84, 0
2, 116040, Note_on_c, 0, 70, 80
2, 116100, Note_on_c, 0, 70, 0
2, 116100, Note_on_c, 0, 82, 80
2, 116148, Note_on_c, 0, 82, 0
2, 116160, Note_on_c, 0, 75, 80
2, 116220, Note_on_c, 0, 75, 0
2, 116220, Note_on_c, 0, 87, 80
2, 116268, Note_on_c, 0, 87, 0
2, 116280, Note_on_c, 0, 74, 80
2, 116340, Note_on_c, 0, 74, 0
2, 116340, Note_on_c, 0, 86, 80
2, 116388, Note_on_c, 0, 86, 0
2, 116400, Note_on_c, 0, 72, 80
2, 116460, Note_on_c, 0, 72, 0
2, 116460, Note_on_c, 0, 84, 80
2, 116508, Note_on_c, 0, 84, 0
2, 116520, Note_on_c, 0, 70, 80
2, 116580, Note_on_c, 0, 70, 0
2, 116580, Note_on_c, 0, 82, 80
2, 116628, Note_on_c, 0, 82, 0
2, 116640, Note_on_c, 0, 75, 80
2, 116700, Note_on_c, 0, 75, 0
2, 116700, Note_on_c, 0, 87, 80
2, 116748, Note_on_c, 0, 87, 0
2, 116760, Note_on_c, 0, 70, 80
2, 116820, Note_on_c, 0, 70, 0
2, 116820, Note_on_c, 0, 82, 80
2, 116868, Note_on_c, 0, 82, 0
2, 116880, Note_on_c, 0, 72, 80
2, 116940, Note_on_c, 0, 72, 0
2, 116940, Note_on_c, 0, 84, 80
2, 116988, Note_on_c, 0, 84, 0
2, 117000, Note_on_c, 0, 65, 80
2, 117060, Note_on_c, 0, 65, 0
2, 117060, Note_on_c, 0, 77, 80
2, 117108, Note_on_c, 0, 77, 0
2, 117120, Note_on_c, 0, 70, 80
2, 117180, Note_on_c, 0, 70, 0
2, 117180, Note_on_c, 0, 82, 80
2, 117228, Note_on_c, 0, 82, 0
2, 117240, Note_on_c, 0, 63, 80
2, 117300, Note_on_c, 0, 63, 0
2, 117300, Note_on_c, 0, 75, 80
2, 117348, Note_on_c, 0, 75, 0
2, 117360, Note_on_c, 0, 68, 80
2, 117420, Note_on_c, 0, 68, 0
2, 117420, Note_on_c, 0, 80, 80
2, 117468, Note_on_c, 0, 80, 0
2, 117480, Note_on_c, 0, 62, 80
2, 117540, Note_on_c, 0, 62, 0
2, 117540, Note_on_c, 0, 74, 80
2, 117588, Note_on_c, 0, 74, 0
2, 117600, Note_on_c, 0, 63, 80
2, 117660, Note_on_c, 0, 63, 0
2, 117660, Note_on_c, 0, 75, 80
2, 117708, Note_on_c, 0, 75, 0
2, 117720, Note_on_c, 0, 66, 80
2, 117780, Note_on_c, 0, 66, 0
2, 117780, Note_on_c, 0, 78, 80
2, 117828, Note_on_c, 0, 78, 0
2, 117840, Note_on_c, 0, 69, 80
2, 117900, Note_on_c, 0, 69, 0
2, 117900, Note_on_c, 0, 81, 80
2, 117948, Note_on_c, 0, 81, 0
2, 117960, Note_on_c, 0, 72, 80
2, 118020, Note_on_c, 0, 72, 0
2, 118020, Note_on_c, 0, 84, 80
2, 118068, Note_on_c, 0, 84, 0
2, 118080, Note_on_c, 0, 75, 80
2, 118140, Note_on_c, 0, 75, 0
2, 118140, Note_on_c, 0, 87, 80
2, 118188, Note_on_c, 0, 87, 0
2, 118200, Note_on_c, 0, 74, 80
2, 118260, Note_on_c, 0, 74, 0
2, 118260, Note_on_c, 0, 86, 80
2, 118308, Note_on_c, 0, 86, 0
2, 118320, Note_on_c, 0, 72, 80
2, 118380, Note_on_c, 0, 72, 0
2, 118380, Note_on_c, 0, 84, 80
2, 118428, Note_on_c, 0, 84, 0
2, 118440, Note_on_c, 0, 70, 80
2, 118500, Note_on_c, 0, 70, 0
2, 118500, Note_on_c, 0, 82, 80
2, 118548, Note_on_c, 0, 82, 0
2, 118560, Note_on_c, 0, 75, 80
2, 118620, Note_on_c, 0, 75, 0
2, 118620, Note_on_c, 0, 87, 80
2, 118668, Note_on_c, 0, 87, 0
2, 118680, Note_on_c, 0, 74, 80
2, 118740, Note_on_c, 0, 74, 0
2, 118740, Note_on_c, 0, 86, 80
2, 118788, Note_on_c, 0, 86, 0
2, 118800, Note_on_c, 0, 72, 80
2, 118860, Note_on_c, 0, 72, 0
2, 118860, Note_on_c, 0, 84, 80
2, 118908, Note_on_c, 0, 84, 0
2, 118920, Note_on_c, 0, 70, 80
2, 118980, Note_on_c, 0, 70, 0
2, 118980, Note_on_c, 0, 82, 80
2, 119028, Note_on_c, 0, 82, 0
2, 119040, Note_on_c, 0, 75, 80
2, 119100, Note_on_c, 0, 75, 0
2, 119100, Note_on_c, 0, 87, 80
2, 119148, Note_on_c, 0, 87, 0
2, 119160, Note_on_c, 0, 71, 80
2, 119220, Note_on_c, 0, 71, 0
2, 119220, Note_on_c, 0, 83, 80
2, 119268, Note_on_c, 0, 83, 0
2, 119280, Note_on_c, 0, 72, 80
2, 119340, Note_on_c, 0, 72, 0
2, 119340, Note_on_c, 0, 84, 80
2, 119388, Note_on_c, 0, 84, 0
2, 119400, Note_on_c, 0, 65, 80
2, 119460, Note_on_c, 0, 65, 0
2, 119460, Note_on_c, 0, 77, 80
2, 119508, Note_on_c, 0, 77, 0
2, 119520, Note_on_c, 0, 70, 80
2, 119580, Note_on_c, 0, 70, 0
2, 119580, Note_on_c, 0, 82, 80
2, 119628, Note_on_c, 0, 82, 0
2, 119640, Note_on_c, 0, 63, 80
2, 119700, Note_on_c, 0, 63, 0
2, 119700, Note_on_c, 0, 75, 80
2, 119748, Note_on_c, 0, 75, 0
2, 119760, Note_on_c, 0, 68, 80
2, 119820, Note_on_c, 0, 68, 0
2, 119820, Note_on_c, 0, 80, 80
2, 119868, Note_on_c, 0, 80, 0
2, 119880, Note_on_c, 0, 62, 80
2, 119940, Note_on_c, 0, 62, 0
2, 119940, Note_on_c, 0, 74, 80
2, 119988, Note_on_c, 0, 74, 0
2, 120000, Note_on_c, 0, 63, 80
2, 120048, Note_on_c, 0, 63, 0
2, 120060, Note_on_c, 0, 75, 80
2, 120108, Note_on_c, 0, 75, 0
2, 120480, Note_on_c, 0, 64, 80
2, 120540, Note_on_c, 0, 64, 0
2, 120540, Note_on_c, 0, 76, 80
2, 120588, Note_on_c, 0, 76, 0
2, 120600, Note_on_c, 0, 65, 80
2, 120660, Note_on_c, 0, 65, 0
2, 120660, Note_on_c, 0, 77, 80
2, 120708, Note_on_c, 0, 77, 0
2, 120720, Note_on_c, 0, 67, 80
2, 120780, Note_on_c, 0, 67, 0
2, 120780, Note_on_c, 0, 79, 80
2, 120828, Note_on_c, 0, 79, 0
2, 120840, Note_on_c, 0, 68, 80
2, 120900, Note_on_c, 0, 68, 0
2, 120900, Note_on_c, 0, 80, 80
2, 120948, Note_on_c, 0, 80, 0
2, 120960, Note_on_c, 0, 66, 80
2, 121020, Note_on_c, 0, 66, 0
2, 121020, Note_on_c, 0, 78, 80
2, 121068, Note_on_c, 0, 78, 0
2, 121080, Note_on_c, 0, 67, 80
2, 121140, Note_on_c, 0, 67, 0
2, 121140, Note_on_c, 0, 79, 80
2, 121188, Note_on_c, 0, 79, 0
2, 121200, Note_on_c, 0, 69, 80
2, 121260, Note_on_c, 0, 69, 0
2, 121260, Note_on_c, 0, 81, 80
2, 121308, Note_on_c, 0, 81, 0
2, 121320, Note_on_c, 0, 70, 80
2, 121380, Note_on_c, 0, 70, 0
2, 121380, Note_on_c, 0, 82, 80
2, 121428, Note_on_c, 0, 82, 0
2, 121440, Note_on_c, 0, 64, 80
2, 121500, Note_on_c, 0, 64, 0
2, 121500, Note_on_c, 0, 76, 80
2, 121548, Note_on_c, 0, 76, 0
2, 121560, Note_on_c, 0, 65, 80
2, 121620, Note_on_c, 0, 65, 0
2, 121620, Note_on_c, 0, 77, 80
2, 121668, Note_on_c, 0, 77, 0
2, 121680, Note_on_c, 0, 67, 80
2, 121740, Note_on_c, 0, 67, 0
2, 121740, Note_on_c, 0, 79, 80
2, 121788, Note_on_c, 0, 79, 0
2, 121800, Note_on_c, 0, 68, 80
2, 121860, Note_on_c, 0, 68, 0
2, 121860, Note_on_c, 0, 80, 80
2, 121908, Note_on_c, 0, 80, 0
2, 121920, Note_on_c, 0, 66, 80
2, 121980, Note_on_c, 0, 66, 0
2, 121980, Note_on_c, 0, 78, 80
2, 122028, Note_on_c, 0, 78, 0
2, 122040, Note_on_c, 0, 67, 80
2, 122100, Note_on_c, 0, 67, 0
2, 122100, Note_on_c, 0, 79, 80
2, 122148, Note_on_c, 0, 79, 0
2, 122160, Note_on_c, 0, 69, 80
2, 122220, Note_on_c, 0, 69, 0
2, 122220, Note_on_c, 0, 81, 80
2, 122268, Note_on_c, 0, 81, 0
2, 122280, Note_on_c, 0, 70, 80
2, 122340, Note_on_c, 0, 70, 0
2, 122340, Note_on_c, 0, 82, 80
2, 122388, Note_on_c, 0, 82, 0
2, 122400, Note_on_c, 0, 75, 80
2, 122460, Note_on_c, 0, 75, 0
2, 122460, Note_on_c, 0, 87, 80
2, 122508, Note_on_c, 0, 87, 0
2, 122520, Note_on_c, 0, 74, 80
2, 122580, Note_on_c, 0, 74, 0
2, 122580, Note_on_c, 0, 86, 80
2, 122628, Note_on_c, 0, 86, 0
2, 122640, Note_on_c, 0, 72, 80
2, 122700, Note_on_c, 0, 72, 0
2, 122700, Note_on_c, 0, 84, 80
2, 122748, Note_on_c, 0, 84, 0
2, 122760, Note_on_c, 0, 70, 80
2, 122820, Note_on_c, 0, 70, 0
2, 122820, Note_on_c, 0, 82, 80
2, 122868, Note_on_c, 0, 82, 0
2, 122880, Note_on_c, 0, 75, 80
2, 122940, Note_on_c, 0, 75, 0
2, 122940, Note_on_c, 0, 87, 80
2, 122988, Note_on_c, 0, 87, 0
2, 123000, Note_on_c, 0, 74, 80
2, 123060, Note_on_c, 0, 74, 0
2, 123060, Note_on_c, 0, 86, 80
2, 123108, Note_on_c, 0, 86, 0
2, 123120, Note_on_c, 0, 72, 80
2, 123180, Note_on_c, 0, 72, 0
2, 123180, Note_on_c, 0, 84, 80
2, 123228, Note_on_c, 0, 84, 0
2, 123240, Note_on_c, 0, 70, 80
2, 123300, Note_on_c, 0, 70, 0
2, 123300, Note_on_c, 0, 82, 80
2, 123348, Note_on_c, 0, 82, 0
2, 123360, Note_on_c, 0, 75, 80
2, 123420, Note_on_c, 0, 75, 0
2, 123420, Note_on_c, 0, 87, 80
2, 123468, Note_on_c, 0, 87, 0
2, 123480, Note_on_c, 0, 70, 80
2, 123540, Note_on_c, 0, 70, 0
2, 123540, Note_on_c, 0, 82, 80
2, 123588, Note_on_c, 0, 82, 0
2, 123600, Note_on_c, 0, 72, 80
2, 123660, Note_on_c, 0, 72, 0
2, 123660, Note_on_c, 0, 84, 80
2, 123708, Note_on_c, 0, 84, 0
2, 123720, Note_on_c, 0, 65, 80
2, 123780, Note_on_c, 0, 65, 0
2, 123780, Note_on_c, 0, 77, 80
2, 123828, Note_on_c, 0, 77, 0
2, 123840, Note_on_c, 0, 70, 80
2, 123900, Note_on_c, 0, 70, 0
2, 123900, Note_on_c, 0, 82, 80
2, 123948, Note_on_c, 0, 82, 0
2, 123960, Note_on_c, 0, 63, 80
2, 124020, Note_on_c, 0, 63, 0
2, 124020, Note_on_c, 0, 75, 80
2, 124068, Note_on_c, 0, 75, 0
2, 124080, Note_on_c, 0, 68, 80
2, 124140, Note_on_c, 0, 68, 0
2, 124140, Note_on_c, 0, 80, 80
2, 124188, Note_on_c, 0, 80, 0
2, 124200, Note_on_c, 0, 62, 80
2, 124260, Note_on_c, 0, 62, 0
2, 124260, Note_on_c, 0, 74, 80
2, 124308, Note_on_c, 0, 74, 0
2, 124320, Note_on_c, 0, 63, 80
2, 124380, Note_on_c, 0, 63, 0
2, 124380, Note_on_c, 0, 75, 80
2, 124428, Note_on_c, 0, 75, 0
2, 124440, Note_on_c, 0, 66, 80
2, 124500, Note_on_c, 0, 66, 0
2, 124500, Note_on_c, 0, 78, 80
2, 124548, Note_on_c, 0, 78, 0
2, 124560, Note_on_c, 0, 69, 80
2, 124620, Note_on_c, 0, 69, 0
2, 124620, Note_on_c, 0, 81, 80
2, 124668, Note_on_c, 0, 81, 0
2, 124680, Note_on_c, 0, 72, 80
2, 124740, Note_on_c, 0, 72, 0
2, 124740, Note_on_c, 0, 84, 80
2, 124788, Note_on_c, 0, 84, 0
2, 124800, Note_on_c, 0, 75, 80
2, 124860, Note_on_c, 0, 75, 0
2, 124860, Note_on_c, 0, 87, 80
2, 124908, Note_on_c, 0, 87, 0
2, 124920, Note_on_c, 0, 74, 80
2, 124980, Note_on_c, 0, 74, 0
2, 124980, Note_on_c, 0, 86, 80
2, 125028, Note_on_c, 0, 86, 0
2, 125040, Note_on_c, 0, 72, 80
2, 125100, Note_on_c, 0, 72, 0
2, 125100, Note_on_c, 0, 84, 80
2, 125148, Note_on_c, 0, 84, 0
2, 125160, Note_on_c, 0, 70, 80
2, 125220, Note_on_c, 0, 70, 0
2, 125220, Note_on_c, 0, 82, 80
2, 125268, Note_on_c, 0, 82, 0
2, 125280, Note_on_c, 0, 75, 80
2, 125340, Note_on_c, 0, 75, 0
2, 125340, Note_on_c, 0, 87, 80
2, 125388, Note_on_c, 0, 87, 0
2, 125400, Note_on_c, 0, 74, 80
2, 125460, Note_on_c, 0, 74, 0
2, 125460, Note_on_c, 0, 86, 80
2, 125508, Note_on_c, 0, 86, 0
2, 125520, Note_on_c, 0, 72, 80
2, 125580, Note_on_c, 0, 72, 0
2, 125580, Note_on_c, 0, 84, 80
2, 125628, Note_on_c, 0, 84, 0
2, 125640, Note_on_c, 0, 70, 80
2, 125700, Note_on_c, 0, 70, 0
2, 125700, Note_on_c, 0, 82, 80
2, 125748, Note_on_c, 0, 82, 0
2, 125760, Note_on_c, 0, 75, 80
2, 125820, Note_on_c, 0, 75, 0
2, 125820, Note_on_c, 0, 87, 80
2, 125868, Note_on_c, 0, 87, 0
2, 125880, Note_on_c, 0, 71, 80
2, 125940, Note_on_c, 0, 71, 0
2, 125940, Note_on_c, 0, 83, 80
2, 125988, Note_on_c, 0, 83, 0
2, 126000, Note_on_c, 0, 72, 80
2, 126060, Note_on_c, 0, 72, 0
2, 126060, Note_on_c, 0, 84, 80
2, 126108, Note_on_c, 0, 84, 0
2, 126120, Note_on_c, 0, 65, 80
2, 126180, Note_on_c, 0, 65, 0
2, 126180, Note_on_c, 0, 77, 80
2, 126228, Note_on_c, 0, 77, 0
2, 126240, Note_on_c, 0, 70, 80
2, 126300, Note_on_c, 0, 70, 0
2, 126300, Note_on_c, 0, 82, 80
2, 126348, Note_on_c, 0, 82, 0
2, 126360, Note_on_c, 0, 63, 80
2, 126420, Note_on_c, 0, 63, 0
2, 126420, Note_on_c, 0, 75, 80
2, 126468, Note_on_c, 0, 75, 0
2, 126480, Note_on_c, 0, 68, 80
2, 126540, Note_on_c, 0, 68, 0
2, 126540, Note_on_c, 0, 80, 80
2, 126588, Note_on_c, 0, 80, 0
2, 126600, Note_on_c, 0, 62, 80
2, 126660, Note_on_c, 0, 62, 0
2, 126660, Note_on_c, 0, 74, 80
2, 126708, Note_on_c, 0, 74, 0
2, 126720, Note_on_c, 0, 63, 80
2, 126768, Note_on_c, 0, 63, 0
2, 126780, Note_on_c, 0, 75, 80
2, 126828, Note_on_c, 0, 75, 0
2, 127200, Note_on_c, 0, 70, 80
2, 127392, Note_on_c, 0, 70, 0
2, 127440, Note_on_c, 0, 67, 80
2, 127536, Note_on_c, 0, 67, 0
2, 127560, Note_on_c, 0, 67, 80
2, 127656, Note_on_c, 0, 67, 0
2, 127680, Note_on_c, 0, 67, 80
2, 127968, Note_on_c, 0, 67, 0
2, 128040, Note_on_c, 0, 63, 80
2, 128136, Note_on_c, 0, 63, 0
2, 128160, Note_on_c, 0, 65, 80
2, 128256, Note_on_c, 0, 65, 0
2, 128280, Note_on_c, 0, 65, 80
2, 128376, Note_on_c, 0, 65, 0
2, 128400, Note_on_c, 0, 65, 80
2, 128496, Note_on_c, 0, 65, 0
2, 128520, Note_on_c, 0, 67, 80
2, 128616, Note_on_c, 0, 67, 0
2, 128640, Note_on_c, 0, 70, 80
2, 128736, Note_on_c, 0, 70, 0
2, 128760, Note_on_c, 0, 70, 80
2, 128784, Note_on_c, 0, 70, 0
2, 128790, Note_on_c, 0, 68, 80
2, 128814, Note_on_c, 0, 68, 0
2, 128820, Note_on_c, 0, 67, 80
2, 128844, Note_on_c, 0, 67, 0
2, 128850, Note_on_c, 0, 68, 80
2, 128874, Note_on_c, 0, 68, 0
2, 128880, Note_on_c, 0, 67, 80
2, 128976, Note_on_c, 0, 67, 0
2, 129120, Note_on_c, 0, 70, 80
2, 129408, Note_on_c, 0, 70, 0
2, 129480, Note_on_c, 0, 74, 80
2, 129528, Note_on_c, 0, 74, 0
2, 129540, Note_on_c, 0, 70, 80
2, 129588, Note_on_c, 0, 70, 0
2, 129600, Note_on_c, 0, 75, 80
2, 129648, Note_on_c, 0, 75, 0
2, 129660, Note_on_c, 0, 70, 80
2, 129708, Note_on_c, 0, 70, 0
2, 129720, Note_on_c, 0, 70, 80
2, 129912, Note_on_c, 0, 70, 0
2, 129960, Note_on_c, 0, 74, 80
2, 130008, Note_on_c, 0, 74, 0
2, 130020, Note_on_c, 0, 70, 80
2, 130068, Note_on_c, 0, 70, 0
2, 130080, Note_on_c, 0, 75, 80
2, 130176, Note_on_c, 0, 75, 0
2, 130200, Note_on_c, 0, 70, 80
2, 130296, Note_on_c, 0, 70, 0
2, 130320, Note_on_c, 0, 68, 80
2, 130416, Note_on_c, 0, 68, 0
2, 130440, Note_on_c, 0, 67, 80
2, 130536, Note_on_c, 0, 67, 0
2, 130560, Note_on_c, 0, 67, 80
2, 130752, Note_on_c, 0, 67, 0
2, 130800, Note_on_c, 0, 65, 80
2, 130896, Note_on_c, 0, 65, 0
2, 131040, Note_on_c, 0, 70, 80
2, 131232, Note_on_c, 0, 70, 0
2, 131280, Note_on_c, 0, 67, 80
2, 131376, Note_on_c, 0, 67, 0
2, 131400, Note_on_c, 0, 67, 80
2, 131496, Note_on_c, 0, 67, 0
2, 131520, Note_on_c, 0, 67, 80
2, 131808, Note_on_c, 0, 67, 0
2, 131880, Note_on_c, 0, 63, 80
2, 131976, Note_on_c, 0, 63, 0
2, 132000, Note_on_c, 0, 65, 80
2, 132096, Note_on_c, 0, 65, 0
2, 132120, Note_on_c, 0, 65, 80
2, 132216, Note_on_c, 0, 65, 0
2, 132240, Note_on_c, 0, 65, 80
2, 132336, Note_on_c, 0, 65, 0
2, 132360, Note_on_c, 0, 67, 80
2, 132456, Note_on_c, 0, 67, 0
2, 132480, Note_on_c, 0, 70, 80
2, 132576, Note_on_c, 0, 70, 0
2, 132600, Note_on_c, 0, 70, 80
2, 132624, Note_on_c, 0, 70, 0
2, 132630, Note_on_c, 0, 68, 80
2, 132654, Note_on_c, 0, 68, 0
2, 132660, Note_on_c, 0, 67, 80
2, 132684, Note_on_c, 0, 67, 0
2, 132690, Note_on_c, 0, 68, 80
2, 132714, Note_on_c, 0, 68, 0
2, 132720, Note_on_c, 0, 67, 80
2, 132816, Note_on_c, 0, 67, 0
2, 132960, Note_on_c, 0, 70, 80
2, 133248, Note_on_c, 0, 70, 0
2, 133320, Note_on_c, 0, 74, 80
2, 133368, Note_on_c, 0, 74, 0
2, 133380, Note_on_c, 0, 70, 80
2, 133428, Note_on_c, 0, 70, 0
2, 133440, Note_on_c, 0, 75, 80
2, 133488, Note_on_c, 0, 75, 0
2, 133500, Note_on_c, 0, 70, 80
2, 133548, Note_on_c, 0, 70, 0
2, 133560, Note_on_c, 0, 70, 80
2, 133752, Note_on_c, 0, 70, 0
2, 133800, Note_on_c, 0, 74, 80
2, 133848, Note_on_c, 0, 74, 0
2, 133860, Note_on_c, 0, 70, 80
2, 133908, Note_on_c, 0, 70, 0
2, 133920, Note_on_c, 0, 75, 80
2, 134016, Note_on_c, 0, 75, 0
2, 134040, Note_on_c, 0, 70, 80
2, 134136, Note_on_c, 0, 70, 0
2, 134160, Note_on_c, 0, 68, 80
2, 134256, Note_on_c, 0, 68, 0
2, 134280, Note_on_c, 0, 67, 80
2, 134376, Note_on_c, 0, 67, 0
2, 134400, Note_on_c, 0, 67, 80
2, 134592, Note_on_c, 0, 67, 0
2, 134640, Note_on_c, 0, 65, 80
2, 134736, Note_on_c, 0, 65, 0
2, 134880, Note_on_c, 0, 65, 80
2, 134976, Note_on_c, 0, 65, 0
2, 135000, Note_on_c, 0, 65, 80
2, 135096, Note_on_c, 0, 65, 0
2, 135120, Note_on_c, 0, 65, 80
2, 135216, Note_on_c, 0, 65, 0
2, 135240, Note_on_c, 0, 70, 80
2, 135336, Note_on_c, 0, 70, 0
2, 135360, Note_on_c, 0, 68, 80
2, 135552, Note_on_c, 0, 68, 0
2, 135600, Note_on_c, 0, 67, 80
2, 135696, Note_on_c, 0, 67, 0
2, 135720, Note_on_c, 0, 75, 80
2, 135936, Note_on_c, 0, 75, 0
2, 135960, Note_on_c, 0, 74, 80
2, 136008, Note_on_c, 0, 74, 0
2, 136020, Note_on_c, 0, 72, 80
2, 136068, Note_on_c, 0, 72, 0
2, 136080, Note_on_c, 0, 70, 80
2, 136176, Note_on_c, 0, 70, 0
2, 136200, Note_on_c, 0, 82, 80
2, 136296, Note_on_c, 0, 82, 0
2, 136320, Note_on_c, 0, 80, 80
2, 136512, Note_on_c, 0, 80, 0
2, 136560, Note_on_c, 0, 79, 80
2, 136656, Note_on_c, 0, 79, 0
2, 136680, Note_on_c, 0, 70, 80
2, 136776, Note_on_c, 0, 70, 0
2, 136800, Note_on_c, 0, 75, 80
2, 136896, Note_on_c, 0, 75, 0
2, 136920, Note_on_c, 0, 74, 80
2, 137112, Note_on_c, 0, 74, 0
2, 137160, Note_on_c, 0, 77, 80
2, 137256, Note_on_c, 0, 77, 0
2, 137280, Note_on_c, 0, 75, 80
2, 137376, Note_on_c, 0, 75, 0
2, 137400, Note_on_c, 0, 74, 80
2, 137592, Note_on_c, 0, 74, 0
2, 137640, Note_on_c, 0, 72, 80
2, 137688, Note_on_c, 0, 72, 0
2, 137700, Note_on_c, 0, 70, 80
2, 137748, Note_on_c, 0, 70, 0
2, 137760, Note_on_c, 0, 75, 80
2, 137856, Note_on_c, 0, 75, 0
2, 137880, Note_on_c, 0, 70, 80
2, 137976, Note_on_c, 0, 70, 0
2, 138000, Note_on_c, 0, 72, 80
2, 138096, Note_on_c, 0, 72, 0
2, 138120, Note_on_c, 0, 70, 80
2, 138168, Note_on_c, 0, 70, 0
2, 138180, Note_on_c, 0, 68, 80
2, 138228, Note_on_c, 0, 68, 0
2, 138240, Note_on_c, 0, 67, 80
2, 138432, Note_on_c, 0, 67, 0
2, 138480, Note_on_c, 0, 65, 80
2, 138576, Note_on_c, 0, 65, 0
2, 138600, Note_on_c, 0, 70, 80
2, 138696, Note_on_c, 0, 70, 0
2, 138720, Note_on_c, 0, 68, 80
2, 138816, Note_on_c, 0, 68, 0
2, 138840, Note_on_c, 0, 67, 80
2, 139032, Note_on_c, 0, 67, 0
2, 139080, Note_on_c, 0, 75, 80
2, 139296, Note_on_c, 0, 75, 0
2, 139320, Note_on_c, 0, 74, 80
2, 139512, Note_on_c, 0, 74, 0
2, 139560, Note_on_c, 0, 77, 80
2, 139656, Note_on_c, 0, 77, 0
2, 139680, Note_on_c, 0, 75, 80
2, 139776, Note_on_c, 0, 75, 0
2, 139800, Note_on_c, 0, 74, 80
2, 139992, Note_on_c, 0, 74, 0
2, 140040, Note_on_c, 0, 80, 80
2, 140088, Note_on_c, 0, 80, 0
2, 140100, Note_on_c, 0, 74, 80
2, 140148, Note_on_c, 0, 74, 0
2, 140160, Note_on_c, 0, 75, 80
2, 140208, Note_on_c, 0, 75, 0
2, 140220, Note_on_c, 0, 74, 80
2, 140268, Note_on_c, 0, 74, 0
2, 140280, Note_on_c, 0, 75, 80
2, 140328, Note_on_c, 0, 75, 0
2, 140340, Note_on_c, 0, 70, 80
2, 140388, Note_on_c, 0, 70, 0
2, 140400, Note_on_c, 0, 74, 80
2, 140448, Note_on_c, 0, 74, 0
2, 140460, Note_on_c, 0, 72, 80
2, 140508, Note_on_c, 0, 72, 0
2, 140520, Note_on_c, 0, 70, 80
2, 140568, Note_on_c, 0, 70, 0
2, 140580, Note_on_c, 0, 68, 80
2, 140628, Note_on_c, 0, 68, 0
2, 140640, Note_on_c, 0, 67, 80
2, 140832, Note_on_c, 0, 67, 0
2, 140880, Note_on_c, 0, 65, 80
2, 140976, Note_on_c, 0, 65, 0
2, 141000, Note_on_c, 0, 70, 80
2, 141096, Note_on_c, 0, 70, 0
2, 141120, Note_on_c, 0, 63, 80
2, 141408, Note_on_c, 0, 63, 0
2, 141420, Note_on_c, 0, 62, 80
2, 141468, Note_on_c, 0, 62, 0
2, 141480, Note_on_c, 0, 63, 80
2, 141528, Note_on_c, 0, 63, 0
2, 141540, Note_on_c, 0, 64, 80
2, 141588, Note_on_c, 0, 64, 0
2, 141600, Note_on_c, 0, 65, 80
2, 141696, Note_on_c, 0, 65, 0
2, 141720, Note_on_c, 0, 65, 80
2, 141816, Note_on_c, 0, 65, 0
2, 141840, Note_on_c, 0, 65, 80
2, 141936, Note_on_c, 0, 65, 0
2, 141960, Note_on_c, 0, 70, 80
2, 142056, Note_on_c, 0, 70, 0
2, 142080, Note_on_c, 0, 68, 80
2, 142272, Note_on_c, 0, 68, 0
2, 142320, Note_on_c, 0, 67, 80
2, 142416, Note_on_c, 0, 67, 0
2, 142440, Note_on_c, 0, 75, 80
2, 142656, Note_on_c, 0, 75, 0
2, 142680, Note_on_c, 0, 74, 80
2, 142728, Note_on_c, 0, 74, 0
2, 142740, Note_on_c, 0, 72, 80
2, 142788, Note_on_c, 0, 72, 0
2, 142800, Note_on_c, 0, 70, 80
2, 142896, Note_on_c, 0, 70, 0
2, 142920, Note_on_c, 0, 82, 80
2, 143016, Note_on_c, 0, 82, 0
2, 143040, Note_on_c, 0, 80, 80
2, 143232, Note_on_c, 0, 80, 0
2, 143280, Note_on_c, 0, 79, 80
2, 143376, Note_on_c, 0, 79, 0
2, 143400, Note_on_c, 0, 70, 80
2, 143496, Note_on_c, 0, 70, 0
2, 143520, Note_on_c, 0, 75, 80
2, 143616, Note_on_c, 0, 75, 0
2, 143640, Note_on_c, 0, 74, 80
2, 143832, Note_on_c, 0, 74, 0
2, 143880, Note_on_c, 0, 77, 80
2, 143976, Note_on_c, 0, 77, 0
2, 144000, Note_on_c, 0, 75, 80
2, 144096, Note_on_c, 0, 75, 0
2, 144120, Note_on_c, 0, 74, 80
2, 144312, Note_on_c, 0, 74, 0
2, 144360, Note_on_c, 0, 72, 80
2, 144408, Note_on_c, 0, 72, 0
2, 144420, Note_on_c, 0, 70, 80
2, 144468, Note_on_c, 0, 70, 0
2, 144480, Note_on_c, 0, 75, 80
2, 144576, Note_on_c, 0, 75, 0
2, 144600, Note_on_c, 0, 70, 80
2, 144696, Note_on_c, 0, 70, 0
2, 144720, Note_on_c, 0, 72, 80
2, 144816, Note_on_c, 0, 72, 0
2, 144840, Note_on_c, 0, 70, 80
2, 144888, Note_on_c, 0, 70, 0
2, 144900, Note_on_c, 0, 68, 80
2, 144948, Note_on_c, 0, 68, 0
2, 144960, Note_on_c, 0, 67, 80
2, 145152, Note_on_c, 0, 67, 0
2, 145200, Note_on_c, 0, 65, 80
2, 145296, Note_on_c, 0, 65, 0
2, 145320, Note_on_c, 0, 70, 80
2, 145416, Note_on_c, 0, 70, 0
2, 145440, Note_on_c, 0, 68, 80
2, 145536, Note_on_c, 0, 68, 0
2, 145560, Note_on_c, 0, 67, 80
2, 145752, Note_on_c, 0, 67, 0
2, 145800, Note_on_c, 0, 75, 80
2, 146016, Note_on_c, 0, 75, 0
2, 146040, Note_on_c, 0, 74, 80
2, 146232, Note_on_c, 0, 74, 0
2, 146280, Note_on_c, 0, 77, 80
2, 146376, Note_on_c, 0, 77, 0
2, 146400, Note_on_c, 0, 75, 80
2, 146496, Note_on_c, 0, 75, 0
2, 146520, Note_on_c, 0, 74, 80
2, 146712, Note_on_c, 0, 74, 0
2, 146760, Note_on_c, 0, 80, 80
2, 146808, Note_on_c, 0, 80, 0
2, 146820, Note_on_c, 0, 74, 80
2, 146868, Note_on_c, 0, 74, 0
2, 146880, Note_on_c, 0, 75, 80
2, 146928, Note_on_c, 0, 75, 0
2, 146940, Note_on_c, 0, 74, 80
2, 146988, Note_on_c, 0, 74, 0
2, 147000, Note_on_c, 0, 75, 80
2, 147048, Note_on_c, 0, 75, 0
2, 147060, Note_on_c, 0, 70, 80
2, 147108, Note_on_c, 0, 70, 0
2, 147120, Note_on_c, 0, 74, 80
2, 147168, Note_on_c, 0, 74, 0
2, 147180, Note_on_c, 0, 72, 80
2, 147228, Note_on_c, 0, 72, 0
2, 147240, Note_on_c, 0, 70, 80
2, 147288, Note_on_c, 0, 70, 0
2, 147300, Note_on_c, 0, 68, 80
2, 147348, Note_on_c, 0, 68, 0
2, 147360, Note_on_c, 0, 67, 80
2, 147552, Note_on_c, 0, 67, 0
2, 147600, Note_on_c, 0, 65, 80
2, 147696, Note_on_c, 0, 65, 0
2, 147720, Note_on_c, 0, 70, 80
2, 147816, Note_on_c, 0, 70, 0
2, 147840, Note_on_c, 0, 63, 80
2, 148128, Note_on_c, 0, 63, 0
2, 148275, Note_on_c, 0, 70, 80
2, 148290, Note_on_c, 0, 75, 80
2, 148305, Note_on_c, 0, 79, 80
2, 148320, Note_on_c, 0, 82, 80
2, 148380, Note_on_c, 0, 82, 0
2, 148380, Note_on_c, 0, 70, 0
2, 148380, Note_on_c, 0, 75, 0
2, 148380, Note_on_c, 0, 79, 0
2, 148515, Note_on_c, 0, 67, 80
2, 148530, Note_on_c, 0, 70, 80
2, 148545, Note_on_c, 0, 75, 80
2, 148560, Note_on_c, 0, 79, 80
2, 148620, Note_on_c, 0, 79, 0
2, 148620, Note_on_c, 0, 67, 0
2, 148620, Note_on_c, 0, 70, 0
2, 148620, Note_on_c, 0, 75, 0
2, 148755, Note_on_c, 0, 63, 80
2, 148770, Note_on_c, 0, 67, 80
2, 148785, Note_on_c, 0, 70, 80
2, 148800, Note_on_c, 0, 75, 80
2, 148860, Note_on_c, 0, 75, 0
2, 148860, Note_on_c, 0, 63, 0
2, 148860, Note_on_c, 0, 67, 0
2, 148860, Note_on_c, 0, 70, 0
2, 149100, Note_on_c, 0, 75, 80
2, 149124, Note_on_c, 0, 75, 0
2, 149130, Note_on_c, 0, 74, 80
2, 149154, Note_on_c, 0, 74, 0
2, 149160, Note_on_c, 0, 72, 80
2, 149184, Note_on_c, 0, 72, 0
2, 149190, Note_on_c, 0, 70, 80
2, 149214, Note_on_c, 0, 70, 0
2, 149220, Note_on_c, 0, 68, 80
2, 149244, Note_on_c, 0, 68, 0
2, 149250, Note_on_c, 0, 67, 80
2, 149274, Note_on_c, 0, 67, 0
2, 149280, Note_on_c, 0, 65, 80
2, 149328, Note_on_c, 0, 65, 0
2, 149340, Note_on_c, 0, 77, 80
2, 149364, Note_on_c, 0, 77, 0
2, 149370, Note_on_c, 0, 75, 80
2, 149394, Note_on_c, 0, 75, 0
2, 149400, Note_on_c, 0, 74, 80
2, 149424, Note_on_c, 0, 74, 0
2, 149430, Note_on_c, 0, 72, 80
2, 149454, Note_on_c, 0, 72, 0
2, 149460, Note_on_c, 0, 70, 80
2, 149484, Note_on_c, 0, 70, 0
2, 149490, Note_on_c, 0, 68, 80
2, 149514, Note_on_c, 0, 68, 0
2, 149520, Note_on_c, 0, 67, 80
2, 149568, Note_on_c, 0, 67, 0
2, 149580, Note_on_c, 0, 79, 80
2, 149604, Note_on_c, 0, 79, 0
2, 149610, Note_on_c, 0, 77, 80
2, 149634, Note_on_c, 0, 77, 0
2, 149640, Note_on_c, 0, 75, 80
2, 149664, Note_on_c, 0, 75, 0
2, 149670, Note_on_c, 0, 74, 80
2, 149694, Note_on_c, 0, 74, 0
2, 149700, Note_on_c, 0, 72, 80
2, 149724, Note_on_c, 0, 72, 0
2, 149730, Note_on_c, 0, 70, 80
2, 149754, Note_on_c, 0, 70, 0
2, 149760, Note_on_c, 0, 68, 80
2, 149808, Note_on_c, 0, 68, 0
2, 149850, Note_on_c, 0, 70, 80
2, 149865, Note_on_c, 0, 77, 80
2, 149880, Note_on_c, 0, 80, 80
2, 149910, Note_on_c, 0, 80, 0
2, 149910, Note_on_c, 0, 77, 0
2, 149910, Note_on_c, 0, 70, 0
2, 149970, Note_on_c, 0, 70, 80
2, 149985, Note_on_c, 0, 75, 80
2, 150000, Note_on_c, 0, 79, 80
2, 150048, Note_on_c, 0, 79, 0
2, 150048, Note_on_c, 0, 75, 0
2, 150048, Note_on_c, 0, 70, 0
2, 150300, Note_on_c, 0, 75, 80
2, 150324, Note_on_c, 0, 75, 0
2, 150330, Note_on_c, 0, 74, 80
2, 150354, Note_on_c, 0, 74, 0
2, 150360, Note_on_c, 0, 72, 80
2, 150384, Note_on_c, 0, 72, 0
2, 150390, Note_on_c, 0, 70, 80
2, 150414, Note_on_c, 0, 70, 0
2, 150420, Note_on_c, 0, 68, 80
2, 150444, Note_on_c, 0, 68, 0
2, 150450, Note_on_c, 0, 67, 80
2, 150474, Note_on_c, 0, 67, 0
2, 150480, Note_on_c, 0, 65, 80
2, 150528, Note_on_c, 0, 65, 0
2, 150540, Note_on_c, 0, 67, 80
2, 150564, Note_on_c, 0, 67, 0
2, 150570, Note_on_c, 0, 68, 80
2, 150594, Note_on_c, 0, 68, 0
2, 150600, Note_on_c, 0, 70, 80
2, 150624, Note_on_c, 0, 70, 0
2, 150630, Note_on_c, 0, 68, 80
2, 150654, Note_on_c, 0, 68, 0
2, 150660, Note_on_c, 0, 67, 80
2, 150684, Note_on_c, 0, 67, 0
2, 150690, Note_on_c, 0, 65, 80
2, 150714, Note_on_c, 0, 65, 0
2, 150720, Note_on_c, 0, 67, 80
2, 150816, Note_on_c, 0, 67, 0
2, 150840, Note_on_c, 0, 75, 80
2, 151032, Note_on_c, 0, 75, 0
2, 151080, Note_on_c, 0, 74, 80
2, 151176, Note_on_c, 0, 74, 0
2, 151200, Note_on_c, 0, 75, 80
2, 151248, Note_on_c, 0, 75, 0
2, 151260, Note_on_c, 0, 82, 80
2, 151284, Note_on_c, 0, 82, 0
2, 151290, Note_on_c, 0, 80, 80
2, 151314, Note_on_c, 0, 80, 0
2, 151320, Note_on_c, 0, 79, 80
2, 151344, Note_on_c, 0, 79, 0
2, 151350, Note_on_c, 0, 77, 80
2, 151374, Note_on_c, 0, 77, 0
2, 151380, Note_on_c, 0, 75, 80
2, 151404, Note_on_c, 0, 75, 0
2, 151410, Note_on_c, 0, 74, 80
2, 151434, Note_on_c, 0, 74, 0
2, 151440, Note_on_c, 0, 72, 80
2, 151464, Note_on_c, 0, 72, 0
2, 151470, Note_on_c, 0, 70, 80
2, 151494, Note_on_c, 0, 70, 0
2, 151500, Note_on_c, 0, 68, 80
2, 151524, Note_on_c, 0, 68, 0
2, 151530, Note_on_c, 0, 67, 80
2, 151554, Note_on_c, 0, 67, 0
2, 151560, Note_on_c, 0, 65, 80
2, 151584, Note_on_c, 0, 65, 0
2, 151590, Note_on_c, 0, 63, 80
2, 151614, Note_on_c, 0, 63, 0
2, 151620, Note_on_c, 0, 62, 80
2, 151644, Note_on_c, 0, 62, 0
2, 151650, Note_on_c, 0, 60, 80
2, 151674, Note_on_c, 0, 60, 0
2, 151680, Note_on_c, 0, 58, 80
2, 151728, Note_on_c, 0, 58, 0
2, 151740, Note_on_c, 0, 60, 80
2, 151764, Note_on_c, 0, 60, 0
2, 151770, Note_on_c, 0, 62, 80
2, 151794, Note_on_c, 0, 62, 0
2, 151800, Note_on_c, 0, 63, 80
2, 151824, Note_on_c, 0, 63, 0
2, 151830, Note_on_c, 0, 65, 80
2, 151854, Note_on_c, 0, 65, 0
2, 151860, Note_on_c, 0, 67, 80
2, 151884, Note_on_c, 0, 67, 0
2, 151890, Note_on_c, 0, 69, 80
2, 151914, Note_on_c, 0, 69, 0
2, 151920, Note_on_c, 0, 70, 80
2, 152016, Note_on_c, 0, 70, 0
2, 152115, Note_on_c, 0, 70, 80
2, 152130, Note_on_c, 0, 75, 80
2, 152145, Note_on_c, 0, 79, 80
2, 152160, Note_on_c, 0, 82, 80
2, 152220, Note_on_c, 0, 82, 0
2, 152220, Note_on_c, 0, 70, 0
2, 152220, Note_on_c, 0, 75, 0
2, 152220, Note_on_c, 0, 79, 0
2, 152355, Note_on_c, 0, 67, 80
2, 152370, Note_on_c, 0, 70, 80
2, 152385, Note_on_c, 0, 75, 80
2, 152400, Note_on_c, 0, 79, 80
2, 152460, Note_on_c, 0, 79, 0
2, 152460, Note_on_c, 0, 67, 0
2, 152460, Note_on_c, 0, 70, 0
2, 152460, Note_on_c, 0, 75, 0
2, 152595, Note_on_c, 0, 63, 80
2, 152610, Note_on_c, 0, 67, 80
2, 152625, Note_on_c, 0, 70, 80
2, 152640, Note_on_c, 0, 75, 80
2, 152736, Note_on_c, 0, 75, 0
2, 152736, Note_on_c, 0, 63, 0
2, 152736, Note_on_c, 0, 67, 0
2, 152736, Note_on_c, 0, 70, 0
2, 152940, Note_on_c, 0, 75, 80
2, 152964, Note_on_c, 0, 75, 0
2, 152970, Note_on_c, 0, 74, 80
2, 152994, Note_on_c, 0, 74, 0
2, 153000, Note_on_c, 0, 72, 80
2, 153024, Note_on_c, 0, 72, 0
2, 153030, Note_on_c, 0, 70, 80
2, 153054, Note_on_c, 0, 70, 0
2, 153060, Note_on_c, 0, 68, 80
2, 153084, Note_on_c, 0, 68, 0
2, 153090, Note_on_c, 0, 67, 80
2, 153114, Note_on_c, 0, 67, 0
2, 153120, Note_on_c, 0, 65, 80
2, 153168, Note_on_c, 0, 65, 0
2, 153180, Note_on_c, 0, 77, 80
2, 153204, Note_on_c, 0, 77, 0
2, 153210, Note_on_c, 0, 75, 80
2, 153234, Note_on_c, 0, 75, 0
2, 153240, Note_on_c, 0, 74, 80
2, 153264, Note_on_c, 0, 74, 0
2, 153270, Note_on_c, 0, 72, 80
2, 153294, Note_on_c, 0, 72, 0
2, 153300, Note_on_c, 0, 70, 80
2, 153324, Note_on_c, 0, 70, 0
2, 153330, Note_on_c, 0, 68, 80
2, 153354, Note_on_c, 0, 68, 0
2, 153360, Note_on_c, 0, 67, 80
2, 153408, Note_on_c, 0, 67, 0
2, 153420, Note_on_c, 0, 79, 80
2, 153444, Note_on_c, 0, 79, 0
2, 153450, Note_on_c, 0, 77, 80
2, 153474, Note_on_c, 0, 77, 0
2, 153480, Note_on_c, 0, 75, 80
2, 153504, Note_on_c, 0, 75, 0
2, 153510, Note_on_c, 0, 74, 80
2, 153534, Note_on_c, 0, 74, 0
2, 153540, Note_on_c, 0, 72, 80
2, 153564, Note_on_c, 0, 72, 0
2, 153570, Note_on_c, 0, 70, 80
2, 153594, Note_on_c, 0, 70, 0
2, 153600, Note_on_c, 0, 68, 80
2, 153648, Note_on_c, 0, 68, 0
2, 153690, Note_on_c, 0, 70, 80
2, 153705, Note_on_c, 0, 77, 80
2, 153720, Note_on_c, 0, 80, 80
2, 153750, Note_on_c, 0, 80, 0
2, 153750, Note_on_c, 0, 77, 0
2, 153750, Note_on_c, 0, 70, 0
2, 153810, Note_on_c, 0, 70, 80
2, 153825, Note_on_c, 0, 75, 80
2, 153840, Note_on_c, 0, 79, 80
2, 153888, Note_on_c, 0, 79, 0
2, 153888, Note_on_c, 0, 75, 0
2, 153888, Note_on_c, 0, 70, 0
2, 154140, Note_on_c, 0, 75, 80
2, 154164, Note_on_c, 0, 75, 0
2, 154170, Note_on_c, 0, 74, 80
2, 154194, Note_on_c, 0, 74, 0
2, 154200, Note_on_c, 0, 72, 80
2, 154224, Note_on_c, 0, 72, 0
2, 154230, Note_on_c, 0, 70, 80
2, 154254, Note_on_c, 0, 70, 0
2, 154260, Note_on_c, 0, 68, 80
2, 154284, Note_on_c, 0, 68, 0
2, 154290, Note_on_c, 0, 67, 80
2, 154314, Note_on_c, 0, 67, 0
2, 154320, Note_on_c, 0, 65, 80
2, 154368, Note_on_c, 0, 65, 0
2, 154380, Note_on_c, 0, 67, 80
2, 154404, Note_on_c, 0, 67, 0
2, 154410, Note_on_c, 0, 68, 80
2, 154434, Note_on_c, 0, 68, 0
2, 154440, Note_on_c, 0, 70, 80
2, 154464, Note_on_c, 0, 70, 0
2, 154470, Note_on_c, 0, 68, 80
2, 154494, Note_on_c, 0, 68, 0
2, 154500, Note_on_c, 0, 67, 80
2, 154524, Note_on_c, 0, 67, 0
2, 154530, Note_on_c, 0, 65, 80
2, 154554, Note_on_c, 0, 65, 0
2, 154560, Note_on_c, 0, 67, 80
2, 154656, Note_on_c, 0, 67, 0
2, 154680, Note_on_c, 0, 75, 80
2, 154872, Note_on_c, 0, 75, 0
2, 154920, Note_on_c, 0, 74, 80
2, 155016, Note_on_c, 0, 74, 0
2, 155040, Note_on_c, 0, 75, 80
2, 155088, Note_on_c, 0, 75, 0
2, 155100, Note_on_c, 0, 82, 80
2, 155124, Note_on_c, 0, 82, 0
2, 155130, Note_on_c, 0, 80, 80
2, 155154, Note_on_c, 0, 80, 0
2, 155160, Note_on_c, 0, 79, 80
2, 155184, Note_on_c, 0, 79, 0
2, 155190, Note_on_c, 0, 77, 80
2, 155214, Note_on_c, 0, 77, 0
2, 155220, Note_on_c, 0, 75, 80
2, 155244, Note_on_c, 0, 75, 0
2, 155250, Note_on_c, 0, 74, 80
2, 155274, Note_on_c, 0, 74, 0
2, 155280, Note_on_c, 0, 72, 80
2, 155304, Note_on_c, 0, 72, 0
2, 155310, Note_on_c, 0, 70, 80
2, 155334, Note_on_c, 0, 70, 0
2, 155340, Note_on_c, 0, 68, 80
2, 155364, Note_on_c, 0, 68, 0
2, 155370, Note_on_c, 0, 67, 80
2, 155394, Note_on_c, 0, 67, 0
2, 155400, Note_on_c, 0, 65, 80
2, 155424, Note_on_c, 0, 65, 0
2, 155430, Note_on_c, 0, 63, 80
2, 155454, Note_on_c, 0, 63, 0
2, 155460, Note_on_c, 0, 62, 80
2, 155484, Note_on_c, 0, 62, 0
2, 155490, Note_on_c, 0, 60, 80
2, 155514, Note_on_c, 0, 60, 0
2, 155520, Note_on_c, 0, 58, 80
2, 155568, Note_on_c, 0, 58, 0
2, 155580, Note_on_c, 0, 60, 80
2, 155604, Note_on_c, 0, 60, 0
2, 155610, Note_on_c, 0, 62, 80
2, 155634, Note_on_c, 0, 62, 0
2, 155640, Note_on_c, 0, 63, 80
2, 155664, Note_on_c, 0, 63, 0
2, 155670, Note_on_c, 0, 65, 80
2, 155694, Note_on_c, 0, 65, 0
2, 155700, Note_on_c, 0, 67, 80
2, 155724, Note_on_c, 0, 67, 0
2, 155730, Note_on_c, 0, 69, 80
2, 155754, Note_on_c, 0, 69, 0
2, 155760, Note_on_c, 0, 70, 80
2, 155904, Note_on_c, 0, 70, 0
2, 155970, Note_on_c, 0, 77, 80
2, 155982, Note_on_c, 0, 77, 0
2, 155985, Note_on_c, 0, 79, 80
2, 155997, Note_on_c, 0, 79, 0
2, 156000, Note_on_c, 0, 80, 80
2, 156030, Note_on_c, 0, 80, 0
2, 156060, Note_on_c, 0, 77, 80
2, 156090, Note_on_c, 0, 77, 0
2, 156120, Note_on_c, 0, 74, 80
2, 156150, Note_on_c, 0, 74, 0
2, 156180, Note_on_c, 0, 70, 80
2, 156210, Note_on_c, 0, 70, 0
2, 156240, Note_on_c, 0, 68, 80
2, 156252, Note_on_c, 0, 68, 0
2, 156255, Note_on_c, 0, 70, 80
2, 156267, Note_on_c, 0, 70, 0
2, 156270, Note_on_c, 0, 68, 80
2, 156282, Note_on_c, 0, 68, 0
2, 156285, Note_on_c, 0, 70, 80
2, 156297, Note_on_c, 0, 70, 0
2, 156300, Note_on_c, 0, 68, 80
2, 156312, Note_on_c, 0, 68, 0
2, 156315, Note_on_c, 0, 70, 80
2, 156327, Note_on_c, 0, 70, 0
2, 156330, Note_on_c, 0, 68, 80
2, 156342, Note_on_c, 0, 68, 0
2, 156345, Note_on_c, 0, 70, 80
2, 156357, Note_on_c, 0, 70, 0
2, 156360, Note_on_c, 0, 68, 80
2, 156408, Note_on_c, 0, 68, 0
2, 156420, Note_on_c, 0, 67, 80
2, 156444, Note_on_c, 0, 67, 0
2, 156450, Note_on_c, 0, 68, 80
2, 156474, Note_on_c, 0, 68, 0
2, 156480, Note_on_c, 0, 67, 80
2, 156504, Note_on_c, 0, 67, 0
2, 156510, Note_on_c, 0, 70, 80
2, 156534, Note_on_c, 0, 70, 0
2, 156540, Note_on_c, 0, 72, 80
2, 156564, Note_on_c, 0, 72, 0
2, 156570, Note_on_c, 0, 74, 80
2, 156594, Note_on_c, 0, 74, 0
2, 156600, Note_on_c, 0, 75, 80
2, 156624, Note_on_c, 0, 75, 0
2, 156630, Note_on_c, 0, 77, 80
2, 156654, Note_on_c, 0, 77, 0
2, 156660, Note_on_c, 0, 79, 80
2, 156684, Note_on_c, 0, 79, 0
2, 156690, Note_on_c, 0, 80, 80
2, 156714, Note_on_c, 0, 80, 0
2, 156720, Note_on_c, 0, 82, 80
2, 156744, Note_on_c, 0, 82, 0
2, 156750, Note_on_c, 0, 84, 80
2, 156774, Note_on_c, 0, 84, 0
2, 156780, Note_on_c, 0, 86, 80
2, 156804, Note_on_c, 0, 86, 0
2, 156810, Note_on_c, 0, 87, 80
2, 156834, Note_on_c, 0, 87, 0
2, 156840, Note_on_c, 0, 82, 80
2, 156888, Note_on_c, 0, 82, 0
2, 156930, Note_on_c, 0, 62, 80
2, 156945, Note_on_c, 0, 65, 80
2, 156960, Note_on_c, 0, 70, 80
2, 157152, Note_on_c, 0, 70, 0
2, 157152, Note_on_c, 0, 65, 0
2, 157152, Note_on_c, 0, 62, 0
2, 157260, Note_on_c, 0, 77, 80
2, 157308, Note_on_c, 0, 77, 0
2, 157320, Note_on_c, 0, 74, 80
2, 157368, Note_on_c, 0, 74, 0
2, 157380, Note_on_c, 0, 70, 80
2, 157404, Note_on_c, 0, 70, 0
2, 157410, Note_on_c, 0, 67, 80
2, 157425, Note_on_c, 0, 70, 80
2, 157440, Note_on_c, 0, 75, 80
2, 157632, Note_on_c, 0, 75, 0
2, 157632, Note_on_c, 0, 70, 0
2, 157632, Note_on_c, 0, 67, 0
2, 157740, Note_on_c, 0, 82, 80
2, 157788, Note_on_c, 0, 82, 0
2, 157800, Note_on_c, 0, 79, 80
2, 157848, Note_on_c, 0, 79, 0
2, 157860, Note_on_c, 0, 75, 80
2, 157908, Note_on_c, 0, 75, 0
2, 157920, Note_on_c, 0, 80, 80
2, 157944, Note_on_c, 0, 80, 0
2, 157950, Note_on_c, 0, 82, 80
2, 157974, Note_on_c, 0, 82, 0
2, 157980, Note_on_c, 0, 84, 80
2, 158004, Note_on_c, 0, 84, 0
2, 158010, Note_on_c, 0, 82, 80
2, 158034, Note_on_c, 0, 82, 0
2, 158040, Note_on_c, 0, 80, 80
2, 158064, Note_on_c, 0, 80, 0
2, 158070, Note_on_c, 0, 79, 80
2, 158094, Note_on_c, 0, 79, 0
2, 158100, Note_on_c, 0, 77, 80
2, 158124, Note_on_c, 0, 77, 0
2, 158130, Note_on_c, 0, 76, 80
2, 158154, Note_on_c, 0, 76, 0
2, 158160, Note_on_c, 0, 77, 80
2, 158184, Note_on_c, 0, 77, 0
2, 158190, Note_on_c, 0, 79, 80
2, 158214, Note_on_c, 0, 79, 0
2, 158220, Note_on_c, 0, 80, 80
2, 158244, Note_on_c, 0, 80, 0
2, 158250, Note_on_c, 0, 79, 80
2, 158274, Note_on_c, 0, 79, 0
2, 158280, Note_on_c, 0, 77, 80
2, 158304, Note_on_c, 0, 77, 0
2, 158310, Note_on_c, 0, 75, 80
2, 158334, Note_on_c, 0, 75, 0
2, 158340, Note_on_c, 0, 74, 80
2, 158364, Note_on_c, 0, 74, 0
2, 158370, Note_on_c, 0, 72, 80
2, 158394, Note_on_c, 0, 72, 0
2, 158400, Note_on_c, 0, 74, 80
2, 158424, Note_on_c, 0, 74, 0
2, 158430, Note_on_c, 0, 75, 80
2, 158454, Note_on_c, 0, 75, 0
2, 158460, Note_on_c, 0, 77, 80
2, 158484, Note_on_c, 0, 77, 0
2, 158490, Note_on_c, 0, 75, 80
2, 158514, Note_on_c, 0, 75, 0
2, 158520, Note_on_c, 0, 74, 80
2, 158544, Note_on_c, 0, 74, 0
2, 158550, Note_on_c, 0, 72, 80
2, 158574, Note_on_c, 0, 72, 0
2, 158580, Note_on_c, 0, 70, 80
2, 158604, Note_on_c, 0, 70, 0
2, 158610, Note_on_c, 0, 69, 80
2, 158634, Note_on_c, 0, 69, 0
2, 158640, Note_on_c, 0, 70, 80
2, 158664, Note_on_c, 0, 70, 0
2, 158670, Note_on_c, 0, 69, 80
2, 158694, Note_on_c, 0, 69, 0
2, 158700, Note_on_c, 0, 70, 80
2, 158724, Note_on_c, 0, 70, 0
2, 158730, Note_on_c, 0, 72, 80
2, 158754, Note_on_c, 0, 72, 0
2, 158760, Note_on_c, 0, 70, 80
2, 158784, Note_on_c, 0, 70, 0
2, 158790, Note_on_c, 0, 68, 80
2, 158814, Note_on_c, 0, 68, 0
2, 158820, Note_on_c, 0, 67, 80
2, 158844, Note_on_c, 0, 67, 0
2, 158850, Note_on_c, 0, 66, 80
2, 158874, Note_on_c, 0, 66, 0
2, 158880, Note_on_c, 0, 67, 80
2, 158904, Note_on_c, 0, 67, 0
2, 158910, Note_on_c, 0, 68, 80
2, 158934, Note_on_c, 0, 68, 0
2, 158940, Note_on_c, 0, 70, 80
2, 158964, Note_on_c, 0, 70, 0
2, 158970, Note_on_c, 0, 72, 80
2, 158994, Note_on_c, 0, 72, 0
2, 159000, Note_on_c, 0, 74, 80
2, 159024, Note_on_c, 0, 74, 0
2, 159030, Note_on_c, 0, 75, 80
2, 159054, Note_on_c, 0, 75, 0
2, 159060, Note_on_c, 0, 77, 80
2, 159084, Note_on_c, 0, 77, 0
2, 159090, Note_on_c, 0, 79, 80
2, 159114, Note_on_c, 0, 79, 0
2, 159120, Note_on_c, 0, 72, 80
2, 159144, Note_on_c, 0, 72, 0
2, 159150, Note_on_c, 0, 74, 80
2, 159174, Note_on_c, 0, 74, 0
2, 159180, Note_on_c, 0, 75, 80
2, 159204, Note_on_c, 0, 75, 0
2, 159210, Note_on_c, 0, 77, 80
2, 159234, Note_on_c, 0, 77, 0
2, 159240, Note_on_c, 0, 79, 80
2, 159264, Note_on_c, 0, 79, 0
2, 159270, Note_on_c, 0, 80, 80
2, 159294, Note_on_c, 0, 80, 0
2, 159300, Note_on_c, 0, 82, 80
2, 159324, Note_on_c, 0, 82, 0
2, 159330, Note_on_c, 0, 84, 80
2, 159354, Note_on_c, 0, 84, 0
2, 159360, Note_on_c, 0, 84, 80
2, 159384, Note_on_c, 0, 84, 0
2, 159390, Note_on_c, 0, 82, 80
2, 159414, Note_on_c, 0, 82, 0
2, 159420, Note_on_c, 0, 81, 80
2, 159444, Note_on_c, 0, 81, 0
2, 159450, Note_on_c, 0, 82, 80
2, 159474, Note_on_c, 0, 82, 0
2, 159480, Note_on_c, 0, 80, 80
2, 159504, Note_on_c, 0, 80, 0
2, 159510, Note_on_c, 0, 79, 80
2, 159534, Note_on_c, 0, 79, 0
2, 159540, Note_on_c, 0, 77, 80
2, 159564, Note_on_c, 0, 77, 0
2, 159570, Note_on_c, 0, 75, 80
2, 159594, Note_on_c, 0, 75, 0
2, 159600, Note_on_c, 0, 82, 80
2, 159624, Note_on_c, 0, 82, 0
2, 159630, Note_on_c, 0, 80, 80
2, 159654, Note_on_c, 0, 80, 0
2, 159660, Note_on_c, 0, 79, 80
2, 159684, Note_on_c, 0, 79, 0
2, 159690, Note_on_c, 0, 80, 80
2, 159714, Note_on_c, 0, 80, 0
2, 159720, Note_on_c, 0, 79, 80
2, 159744, Note_on_c, 0, 79, 0
2, 159750, Note_on_c, 0, 77, 80
2, 159774, Note_on_c, 0, 77, 0
2, 159780, Note_on_c, 0, 75, 80
2, 159804, Note_on_c, 0, 75, 0
2, 159810, Note_on_c, 0, 74, 80
2, 159834, Note_on_c, 0, 74, 0
2, 159840, Note_on_c, 0, 75, 80
2, 159864, Note_on_c, 0, 75, 0
2, 159870, Note_on_c, 0, 77, 80
2, 159894, Note_on_c, 0, 77, 0
2, 159900, Note_on_c, 0, 79, 80
2, 159924, Note_on_c, 0, 79, 0
2, 159930, Note_on_c, 0, 80, 80
2, 159954, Note_on_c, 0, 80, 0
2, 159960, Note_on_c, 0, 82, 80
2, 159984, Note_on_c, 0, 82, 0
2, 159990, Note_on_c, 0, 80, 80
2, 160014, Note_on_c, 0, 80, 0
2, 160020, Note_on_c, 0, 79, 80
2, 160044, Note_on_c, 0, 79, 0
2, 160050, Note_on_c, 0, 77, 80
2, 160074, Note_on_c, 0, 77, 0
2, 160080, Note_on_c, 0, 75, 80
2, 160104, Note_on_c, 0, 75, 0
2, 160110, Note_on_c, 0, 74, 80
2, 160134, Note_on_c, 0, 74, 0
2, 160140, Note_on_c, 0, 72, 80
2, 160164, Note_on_c, 0, 72, 0
2, 160170, Note_on_c, 0, 70, 80
2, 160194, Note_on_c, 0, 70, 0
2, 160200, Note_on_c, 0, 68, 80
2, 160224, Note_on_c, 0, 68, 0
2, 160230, Note_on_c, 0, 67, 80
2, 160254, Note_on_c, 0, 67, 0
2, 160260, Note_on_c, 0, 65, 80
2, 160284, Note_on_c, 0, 65, 0
2, 160290, Note_on_c, 0, 63, 80
2, 160314, Note_on_c, 0, 63, 0
2, 160560, Note_on_c, 0, 80, 80
2, 160572, Note_on_c, 0, 80, 0
2, 160575, Note_on_c, 0, 82, 80
2, 160587, Note_on_c, 0, 82, 0
2, 160590, Note_on_c, 0, 80, 80
2, 160602, Note_on_c, 0, 80, 0
2, 160605, Note_on_c, 0, 82, 80
2, 160617, Note_on_c, 0, 82, 0
2, 160620, Note_on_c, 0, 80, 80
2, 160668, Note_on_c, 0, 80, 0
2, 160800, Note_on_c, 0, 80, 80
2, 160812, Note_on_c, 0, 80, 0
2, 160815, Note_on_c, 0, 82, 80
2, 160827, Note_on_c, 0, 82, 0
2, 160830, Note_on_c, 0, 80, 80
2, 160842, Note_on_c, 0, 80, 0
2, 160845, Note_on_c, 0, 82, 80
2, 160857, Note_on_c, 0, 82, 0
2, 160860, Note_on_c, 0, 80, 80
2, 160908, Note_on_c, 0, 80, 0
2, 161040, Note_on_c, 0, 80, 80
2, 161136, Note_on_c, 0, 80, 0
2, 161160, Note_on_c, 0, 74, 80
2, 161256, Note_on_c, 0, 74, 0
2, 161280, Note_on_c, 0, 75, 80
2, 161376, Note_on_c, 0, 75, 0
2, 161400, Note_on_c, 0, 82, 80
2, 161496, Note_on_c, 0, 82, 0
2, 161520, Note_on_c, 0, 84, 80
2, 161616, Note_on_c, 0, 84, 0
2, 161640, Note_on_c, 0, 87, 80
2, 161736, Note_on_c, 0, 87, 0
2, 161760, Note_on_c, 0, 82, 80
2, 161784, Note_on_c, 0, 82, 0
2, 161790, Note_on_c, 0, 80, 80
2, 161814, Note_on_c, 0, 80, 0
2, 161820, Note_on_c, 0, 79, 80
2, 161844, Note_on_c, 0, 79, 0
2, 161850, Note_on_c, 0, 77, 80
2, 161874, Note_on_c, 0, 77, 0
2, 161880, Note_on_c, 0, 75, 80
2, 161904, Note_on_c, 0, 75, 0
2, 161910, Note_on_c, 0, 74, 80
2, 161934, Note_on_c, 0, 74, 0
2, 161940, Note_on_c, 0, 72, 80
2, 161964, Note_on_c, 0, 72, 0
2, 161970, Note_on_c, 0, 70, 80
2, 161994, Note_on_c, 0, 70, 0
2, 162240, Note_on_c, 0, 62, 80
2, 162480, Note_on_c, 0, 62, 0
2, 162480, Note_on_c, 0, 63, 80
2, 162576, Note_on_c, 0, 63, 0
2, 162690, Note_on_c, 0, 77, 80
2, 162702, Note_on_c, 0, 77, 0
2, 162705, Note_on_c, 0, 79, 80
2, 162717, Note_on_c, 0, 79, 0
2, 162720, Note_on_c, 0, 80, 80
2, 162738, Note_on_c, 0, 80, 0
2, 162780, Note_on_c, 0, 77, 80
2, 162798, Note_on_c, 0, 77, 0
2, 162840, Note_on_c, 0, 74, 80
2, 162858, Note_on_c, 0, 74, 0
2, 162900, Note_on_c, 0, 70, 80
2, 162918, Note_on_c, 0, 70, 0
2, 162960, Note_on_c, 0, 68, 80
2, 162972, Note_on_c, 0, 68, 0
2, 162975, Note_on_c, 0, 70, 80
2, 162987, Note_on_c, 0, 70, 0
2, 162990, Note_on_c, 0, 68, 80
2, 163002, Note_on_c, 0, 68, 0
2, 163005, Note_on_c, 0, 70, 80
2, 163017, Note_on_c, 0, 70, 0
2, 163020, Note_on_c, 0, 68, 80
2, 163032, Note_on_c, 0, 68, 0
2, 163035, Note_on_c, 0, 70, 80
2, 163047, Note_on_c, 0, 70, 0
2, 163050, Note_on_c, 0, 68, 80
2, 163062, Note_on_c, 0, 68, 0
2, 163065, Note_on_c, 0, 70, 80
2, 163077, Note_on_c, 0, 70, 0
2, 163080, Note_on_c, 0, 68, 80
2, 163128, Note_on_c, 0, 68, 0
2, 163140, Note_on_c, 0, 67, 80
2, 163164, Note_on_c, 0, 67, 0
2, 163170, Note_on_c, 0, 68, 80
2, 163194, Note_on_c, 0, 68, 0
2, 163200, Note_on_c, 0, 67, 80
2, 163224, Note_on_c, 0, 67, 0
2, 163230, Note_on_c, 0, 70, 80
2, 163254, Note_on_c, 0, 70, 0
2, 163260, Note_on_c, 0, 72, 80
2, 163284, Note_on_c, 0, 72, 0
2, 163290, Note_on_c, 0, 74, 80
2, 163314, Note_on_c, 0, 74, 0
2, 163320, Note_on_c, 0, 75, 80
2, 163344, Note_on_c, 0, 75, 0
2, 163350, Note_on_c, 0, 77, 80
2, 163374, Note_on_c, 0, 77, 0
2, 163380, Note_on_c, 0, 79, 80
2, 163404, Note_on_c, 0, 79, 0
2, 163410, Note_on_c, 0, 80, 80
2, 163434, Note_on_c, 0, 80, 0
2, 163440, Note_on_c, 0, 82, 80
2, 163464, Note_on_c, 0, 82, 0
2, 163470, Note_on_c, 0, 84, 80
2, 163494, Note_on_c, 0, 84, 0
2, 163500, Note_on_c, 0, 86, 80
2, 163524, Note_on_c, 0, 86, 0
2, 163530, Note_on_c, 0, 87, 80
2, 163554, Note_on_c, 0, 87, 0
2, 163560, Note_on_c, 0, 82, 80
2, 163608, Note_on_c, 0, 82, 0
2, 163650, Note_on_c, 0, 62, 80
2, 163665, Note_on_c, 0, 65, 80
2, 163680, Note_on_c, 0, 70, 80
2, 163872, Note_on_c, 0, 70, 0
2, 163872, Note_on_c, 0, 65, 0
2, 163872, Note_on_c, 0, 62, 0
2, 163980, Note_on_c, 0, 77, 80
2, 164028, Note_on_c, 0, 77, 0
2, 164040, Note_on_c, 0, 74, 80
2, 164088, Note_on_c, 0, 74, 0
2, 164100, Note_on_c, 0, 70, 80
2, 164124, Note_on_c, 0, 70, 0
2, 164130, Note_on_c, 0, 67, 80
2, 164145, Note_on_c, 0, 70, 80
2, 164160, Note_on_c, 0, 75, 80
2, 164352, Note_on_c, 0, 75, 0
2, 164352, Note_on_c, 0, 70, 0
2, 164352, Note_on_c, 0, 67, 0
2, 164460, Note_on_c, 0, 82, 80
2, 164508, Note_on_c, 0, 82, 0
2, 164520, Note_on_c, 0, 79, 80
2, 164568, Note_on_c, 0, 79, 0
2, 164580, Note_on_c, 0, 75, 80
2, 164628, Note_on_c, 0, 75, 0
2, 164640, Note_on_c, 0, 80, 80
2, 164664, Note_on_c, 0, 80, 0
2, 164670, Note_on_c, 0, 82, 80
2, 164694, Note_on_c, 0, 82, 0
2, 164700, Note_on_c, 0, 84, 80
2, 164724, Note_on_c, 0, 84, 0
2, 164730, Note_on_c, 0, 82, 80
2, 164754, Note_on_c, 0, 82, 0
2, 164760, Note_on_c, 0, 80, 80
2, 164784, Note_on_c, 0, 80, 0
2, 164790, Note_on_c, 0, 79, 80
2, 164814, Note_on_c, 0, 79, 0
2, 164820, Note_on_c, 0, 77, 80
2, 164844, Note_on_c, 0, 77, 0
2, 164850, Note_on_c, 0, 76, 80
2, 164874, Note_on_c, 0, 76, 0
2, 164880, Note_on_c, 0, 77, 80
2, 164904, Note_on_c, 0, 77, 0
2, 164910, Note_on_c, 0, 79, 80
2, 164934, Note_on_c, 0, 79, 0
2, 164940, Note_on_c, 0, 80, 80
2, 164964, Note_on_c, 0, 80, 0
2, 164970, Note_on_c, 0, 79, 80
2, 164994, Note_on_c, 0, 79, 0
2, 165000, Note_on_c, 0, 77, 80
2, 165024, Note_on_c, 0, 77, 0
2, 165030, Note_on_c, 0, 75, 80
2, 165054, Note_on_c, 0, 75, 0
2, 165060, Note_on_c, 0, 74, 80
2, 165084, Note_on_c, 0, 74, 0
2, 165090, Note_on_c, 0, 72, 80
2, 165114, Note_on_c, 0, 72, 0
2, 165120, Note_on_c, 0, 74, 80
2, 165144, Note_on_c, 0, 74, 0
2, 165150, Note_on_c, 0, 75, 80
2, 165174, Note_on_c, 0, 75, 0
2, 165180, Note_on_c, 0, 77, 80
2, 165204, Note_on_c, 0, 77, 0
2, 165210, Note_on_c, 0, 75, 80
2, 165234, Note_on_c, 0, 75, 0
2, 165240, Note_on_c, 0, 74, 80
2, 165264, Note_on_c, 0, 74, 0
2, 165270, Note_on_c, 0, 72, 80
2, 165294, Note_on_c, 0, 72, 0
2, 165300, Note_on_c, 0, 70, 80
2, 165324, Note_on_c, 0, 70, 0
2, 165330, Note_on_c, 0, 69, 80
2, 165354, Note_on_c, 0, 69, 0
2, 165360, Note_on_c, 0, 70, 80
2, 165384, Note_on_c, 0, 70, 0
2, 165390, Note_on_c, 0, 69, 80
2, 165414, Note_on_c, 0, 69, 0
2, 165420, Note_on_c, 0, 70, 80
2, 165444, Note_on_c, 0, 70, 0
2, 165450, Note_on_c, 0, 72, 80
2, 165474, Note_on_c, 0, 72, 0
2, 165480, Note_on_c, 0, 70, 80
2, 165504, Note_on_c, 0, 70, 0
2, 165510, Note_on_c, 0, 68, 80
2, 165534, Note_on_c, 0, 68, 0
2, 165540, Note_on_c, 0, 67, 80
2, 165564, Note_on_c, 0, 67, 0
2, 165570, Note_on_c, 0, 66, 80
2, 165594, Note_on_c, 0, 66, 0
2, 165600, Note_on_c, 0, 67, 80
2, 165624, Note_on_c, 0, 67, 0
2, 165630, Note_on_c, 0, 68, 80
2, 165654, Note_on_c, 0, 68, 0
2, 165660, Note_on_c, 0, 70, 80
2, 165684, Note_on_c, 0, 70, 0
2, 165690, Note_on_c, 0, 72, 80
2, 165714, Note_on_c, 0, 72, 0
2, 165720, Note_on_c, 0, 74, 80
2, 165744, Note_on_c, 0, 74, 0
2, 165750, Note_on_c, 0, 75, 80
2, 165774, Note_on_c, 0, 75, 0
2, 165780, Note_on_c, 0, 77, 80
2, 165804, Note_on_c, 0, 77, 0
2, 165810, Note_on_c, 0, 79, 80
2, 165834, Note_on_c, 0, 79, 0
2, 165840, Note_on_c, 0, 72, 80
2, 165864, Note_on_c, 0, 72, 0
2, 165870, Note_on_c, 0, 74, 80
2, 165894, Note_on_c, 0, 74, 0
2, 165900, Note_on_c, 0, 75, 80
2, 165924, Note_on_c, 0, 75, 0
2, 165930, Note_on_c, 0, 77, 80
2, 165954, Note_on_c, 0, 77, 0
2, 165960, Note_on_c, 0, 79, 80
2, 165984, Note_on_c, 0, 79, 0
2, 165990, Note_on_c, 0, 80, 80
2, 166014, Note_on_c, 0, 80, 0
2, 166020, Note_on_c, 0, 82, 80
2, 166044, Note_on_c, 0, 82, 0
2, 166050, Note_on_c, 0, 84, 80
2, 166074, Note_on_c, 0, 84, 0
2, 166080, Note_on_c, 0, 84, 80
2, 166104, Note_on_c, 0, 84, 0
2, 166110, Note_on_c, 0, 82, 80
2, 166134, Note_on_c, 0, 82, 0
2, 166140, Note_on_c, 0, 81, 80
2, 166164, Note_on_c, 0, 81, 0
2, 166170, Note_on_c, 0, 82, 80
2, 166194, Note_on_c, 0, 82, 0
2, 166200, Note_on_c, 0, 80, 80
2, 166224, Note_on_c, 0, 80, 0
2, 166230, Note_on_c, 0, 79, 80
2, 166254, Note_on_c, 0, 79, 0
2, 166260, Note_on_c, 0, 77, 80
2, 166284, Note_on_c, 0, 77, 0
2, 166290, Note_on_c, 0, 75, 80
2, 166314, Note_on_c, 0, 75, 0
2, 166320, Note_on_c, 0, 82, 80
2, 166344, Note_on_c, 0, 82, 0
2, 166350, Note_on_c, 0, 80, 80
2, 166374, Note_on_c, 0, 80, 0
2, 166380, Note_on_c, 0, 79, 80
2, 166404, Note_on_c, 0, 79, 0
2, 166410, Note_on_c, 0, 80, 80
2, 166434, Note_on_c, 0, 80, 0
2, 166440, Note_on_c, 0, 79, 80
2, 166464, Note_on_c, 0, 79, 0
2, 166470, Note_on_c, 0, 77, 80
2, 166494, Note_on_c, 0, 77, 0
2, 166500, Note_on_c, 0, 75, 80
2, 166524, Note_on_c, 0, 75, 0
2, 166530, Note_on_c, 0, 74, 80
2, 166554, Note_on_c, 0, 74, 0
2, 166560, Note_on_c, 0, 75, 80
2, 166584, Note_on_c, 0, 75, 0
2, 166590, Note_on_c, 0, 77, 80
2, 166614, Note_on_c, 0, 77, 0
2, 166620, Note_on_c, 0, 79, 80
2, 166644, Note_on_c, 0, 79, 0
2, 166650, Note_on_c, 0, 80, 80
2, 166674, Note_on_c, 0, 80, 0
2, 166680, Note_on_c, 0, 82, 80
2, 166704, Note_on_c, 0, 82, 0
2, 166710, Note_on_c, 0, 80, 80
2, 166734, Note_on_c, 0, 80, 0
2, 166740, Note_on_c, 0, 79, 80
2, 166764, Note_on_c, 0, 79, 0
2, 166770, Note_on_c, 0, 77, 80
2, 166794, Note_on_c, 0, 77, 0
2, 166800, Note_on_c, 0, 75, 80
2, 166824, Note_on_c, 0, 75, 0
2, 166830, Note_on_c, 0, 74, 80
2, 166854, Note_on_c, 0, 74, 0
2, 166860, Note_on_c, 0, 72, 80
2, 166884, Note_on_c, 0, 72, 0
2, 166890, Note_on_c, 0, 70, 80
2, 166914, Note_on_c, 0, 70, 0
2, 166920, Note_on_c, 0, 68, 80
2, 166944, Note_on_c, 0, 68, 0
2, 166950, Note_on_c, 0, 67, 80
2, 166974, Note_on_c, 0, 67, 0
2, 166980, Note_on_c, 0, 65, 80
2, 167004, Note_on_c, 0, 65, 0
2, 167010, Note_on_c, 0, 63, 80
2, 167034, Note_on_c, 0, 63, 0
2, 167280, Note_on_c, 0, 80, 80
2, 167292, Note_on_c, 0, 80, 0
2, 167295, Note_on_c, 0, 82, 80
2, 167307, Note_on_c, 0, 82, 0
2, 167310, Note_on_c, 0, 80, 80
2, 167322, Note_on_c, 0, 80, 0
2, 167325, Note_on_c, 0, 82, 80
2, 167337, Note_on_c, 0, 82, 0
2, 167340, Note_on_c, 0, 80, 80
2, 167388, Note_on_c, 0, 80, 0
2, 167520, Note_on_c, 0, 80, 80
2, 167532, Note_on_c, 0, 80, 0
2, 167535, Note_on_c, 0, 82, 80
2, 167547, Note_on_c, 0, 82, 0
2, 167550, Note_on_c, 0, 80, 80
2, 167562, Note_on_c, 0, 80, 0
2, 167565, Note_on_c, 0, 82, 80
2, 167577, Note_on_c, 0, 82, 0
2, 167580, Note_on_c, 0, 80, 80
2, 167628, Note_on_c, 0, 80, 0
2, 167760, Note_on_c, 0, 80, 80
2, 167856, Note_on_c, 0, 80, 0
2, 167880, Note_on_c, 0, 74, 80
2, 167976, Note_on_c, 0, 74, 0
2, 168000, Note_on_c, 0, 75, 80
2, 168096, Note_on_c, 0, 75, 0
2, 168120, Note_on_c, 0, 82, 80
2, 168216, Note_on_c, 0, 82, 0
2, 168240, Note_on_c, 0, 84, 80
2, 168336, Note_on_c, 0, 84, 0
2, 168360, Note_on_c, 0, 87, 80
2, 168456, Note_on_c, 0, 87, 0
2, 168480, Note_on_c, 0, 82, 80
2, 168504, Note_on_c, 0, 82, 0
2, 168510, Note_on_c, 0, 80, 80
2, 168534, Note_on_c, 0, 80, 0
2, 168540, Note_on_c, 0, 79, 80
2, 168564, Note_on_c, 0, 79, 0
2, 168570, Note_on_c, 0, 77, 80
2, 168594, Note_on_c, 0, 77, 0
2, 168600, Note_on_c, 0, 75, 80
2, 168624, Note_on_c, 0, 75, 0
2, 168630, Note_on_c, 0, 74, 80
2, 168654, Note_on_c, 0, 74, 0
2, 168660, Note_on_c, 0, 72, 80
2, 168684, Note_on_c, 0, 72, 0
2, 168690, Note_on_c, 0, 70, 80
2, 168714, Note_on_c, 0, 70, 0
2, 168960, Note_on_c, 0, 62, 80
2, 169200, Note_on_c, 0, 62, 0
2, 169200, Note_on_c, 0, 63, 80
2, 169296, Note_on_c, 0, 63, 0
2, 169320, Note_on_c, 0, 70, 64
2, 169416, Note_on_c, 0, 70, 0
2, 169440, Note_on_c, 0, 66, 64
2, 169500, Note_on_c, 0, 66, 0
2, 169500, Note_on_c, 0, 68, 64
2, 169520, Note_on_c, 0, 68, 0
2, 169520, Note_on_c, 0, 66, 64
2, 169540, Note_on_c, 0, 66, 0
2, 169540, Note_on_c, 0, 65, 64
2, 169560, Note_on_c, 0, 65, 0
2, 169560, Note_on_c, 0, 66, 64
2, 169620, Note_on_c, 0, 66, 0
2, 169620, Note_on_c, 0, 68, 64
2, 169680, Note_on_c, 0, 68, 0
2, 169680, Note_on_c, 0, 70, 64
2, 169800, Note_on_c, 0, 70, 0
2, 169800, Note_on_c, 0, 62, 64
2, 169920, Note_on_c, 0, 62, 0
2, 169920, Note_on_c, 0, 63, 64
2, 170280, Note_on_c, 0, 63, 0
2, 170280, Note_on_c, 0, 66, 64
2, 170460, Note_on_c, 0, 66, 0
2, 170460, Note_on_c, 0, 65, 64
2, 170520, Note_on_c, 0, 65, 0
2, 170520, Note_on_c, 0, 68, 64
2, 170580, Note_on_c, 0, 68, 0
2, 170580, Note_on_c, 0, 62, 64
2, 170640, Note_on_c, 0, 62, 0
2, 170640, Note_on_c, 0, 63, 64
2, 170760, Note_on_c, 0, 63, 0
2, 170760, Note_on_c, 0, 70, 64
2, 170940, Note_on_c, 0, 70, 0
2, 170940, Note_on_c, 0, 68, 64
2, 171000, Note_on_c, 0, 68, 0
2, 171000, Note_on_c, 0, 71, 64
2, 171060, Note_on_c, 0, 71, 0
2, 171060, Note_on_c, 0, 65, 64
2, 171120, Note_on_c, 0, 65, 0
2, 171120, Note_on_c, 0, 66, 64
2, 171240, Note_on_c, 0, 66, 0
2, 171240, Note_on_c, 0, 70, 64
2, 171360, Note_on_c, 0, 70, 0
2, 171360, Note_on_c, 0, 75, 64
2, 171384, Note_on_c, 0, 75, 0
2, 171420, Note_on_c, 0, 70, 64
2, 171480, Note_on_c, 0, 70, 0
2, 171480, Note_on_c, 0, 71, 64
2, 171540, Note_on_c, 0, 71, 0
2, 171540, Note_on_c, 0, 70, 64
2, 171600, Note_on_c, 0, 70, 0
2, 171660, Note_on_c, 0, 80, 64
2, 171720, Note_on_c, 0, 80, 0
2, 171720, Note_on_c, 0, 77, 64
2, 171780, Note_on_c, 0, 77, 0
2, 171780, Note_on_c, 0, 74, 64
2, 171840, Note_on_c, 0, 74, 0
2, 171840, Note_on_c, 0, 75, 64
2, 171864, Note_on_c, 0, 75, 0
2, 171900, Note_on_c, 0, 70, 64
2, 171960, Note_on_c, 0, 70, 0
2, 171960, Note_on_c, 0, 71, 64
2, 172020, Note_on_c, 0, 71, 0
2, 172020, Note_on_c, 0, 70, 64
2, 172080, Note_on_c, 0, 70, 0
2, 172140, Note_on_c, 0, 80, 64
2, 172200, Note_on_c, 0, 80, 0
2, 172200, Note_on_c, 0, 77, 64
2, 172260, Note_on_c, 0, 77, 0
2, 172260, Note_on_c, 0, 74, 64
2, 172320, Note_on_c, 0, 74, 0
2, 172320, Note_on_c, 0, 75, 64
2, 172380, Note_on_c, 0, 75, 0
2, 172380, Note_on_c, 0, 78, 64
2, 172440, Note_on_c, 0, 78, 0
2, 172500, Note_on_c, 0, 70, 64
2, 172524, Note_on_c, 0, 70, 0
2, 172620, Note_on_c, 0, 68, 64
2, 172644, Note_on_c, 0, 68, 0
2, 172740, Note_on_c, 0, 66, 64
2, 172764, Note_on_c, 0, 66, 0
2, 172800, Note_on_c, 0, 66, 64
2, 172860, Note_on_c, 0, 66, 0
2, 172860, Note_on_c, 0, 70, 64
2, 172920, Note_on_c, 0, 70, 0
2, 172920, Note_on_c, 0, 69, 64
2, 172980, Note_on_c, 0, 69, 0
2, 172980, Note_on_c, 0, 70, 64
2, 173040, Note_on_c, 0, 70, 0
2, 173040, Note_on_c, 0, 65, 64
2, 173160, Note_on_c, 0, 65, 0
2, 173160, Note_on_c, 0, 70, 64
2, 173280, Note_on_c, 0, 70, 0
2, 173280, Note_on_c, 0, 66, 64
2, 173340, Note_on_c, 0, 66, 0
2, 173340, Note_on_c, 0, 68, 64
2, 173360, Note_on_c, 0, 68, 0
2, 173360, Note_on_c, 0, 66, 64
2, 173380, Note_on_c, 0, 66, 0
2, 173380, Note_on_c, 0, 65, 64
2, 173400, Note_on_c, 0, 65, 0
2, 173400, Note_on_c, 0, 66, 64
2, 173460, Note_on_c, 0, 66, 0
2, 173460, Note_on_c, 0, 68, 64
2, 173520, Note_on_c, 0, 68, 0
2, 173520, Note_on_c, 0, 70, 64
2, 173640, Note_on_c, 0, 70, 0
2, 173640, Note_on_c, 0, 62, 64
2, 173760, Note_on_c, 0, 62, 0
2, 173760, Note_on_c, 0, 63, 64
2, 174120, Note_on_c, 0, 63, 0
2, 174120, Note_on_c, 0, 66, 64
2, 174300, Note_on_c, 0, 66, 0
2, 174300, Note_on_c, 0, 65, 64
2, 174360, Note_on_c, 0, 65, 0
2, 174360, Note_on_c, 0, 68, 64
2, 174420, Note_on_c, 0, 68, 0
2, 174420, Note_on_c, 0, 62, 64
2, 174480, Note_on_c, 0, 62, 0
2, 174480, Note_on_c, 0, 63, 64
2, 174600, Note_on_c, 0, 63, 0
2, 174600, Note_on_c, 0, 70, 64
2, 174780, Note_on_c, 0, 70, 0
2, 174780, Note_on_c, 0, 68, 64
2, 174840, Note_on_c, 0, 68, 0
2, 174840, Note_on_c, 0, 71, 64
2, 174900, Note_on_c, 0, 71, 0
2, 174900, Note_on_c, 0, 65, 64
2, 174960, Note_on_c, 0, 65, 0
2, 174960, Note_on_c, 0, 66, 64
2, 175080, Note_on_c, 0, 66, 0
2, 175080, Note_on_c, 0, 70, 64
2, 175200, Note_on_c, 0, 70, 0
2, 175200, Note_on_c, 0, 75, 64
2, 175224, Note_on_c, 0, 75, 0
2, 175260, Note_on_c, 0, 70, 64
2, 175320, Note_on_c, 0, 70, 0
2, 175320, Note_on_c, 0, 71, 64
2, 175380, Note_on_c, 0, 71, 0
2, 175380, Note_on_c, 0, 70, 64
2, 175440, Note_on_c, 0, 70, 0
2, 175500, Note_on_c, 0, 80, 64
2, 175560, Note_on_c, 0, 80, 0
2, 175560, Note_on_c, 0, 77, 64
2, 175620, Note_on_c, 0, 77, 0
2, 175620, Note_on_c, 0, 74, 64
2, 175680, Note_on_c, 0, 74, 0
2, 175680, Note_on_c, 0, 75, 64
2, 175704, Note_on_c, 0, 75, 0
2, 175740, Note_on_c, 0, 70, 64
2, 175800, Note_on_c, 0, 70, 0
2, 175800, Note_on_c, 0, 71, 64
2, 175860, Note_on_c, 0, 71, 0
2, 175860, Note_on_c, 0, 70, 64
2, 175920, Note_on_c, 0, 70, 0
2, 175980, Note_on_c, 0, 80, 64
2, 176040, Note_on_c, 0, 80, 0
2, 176040, Note_on_c, 0, 77, 64
2, 176100, Note_on_c, 0, 77, 0
2, 176100, Note_on_c, 0, 74, 64
2, 176160, Note_on_c, 0, 74, 0
2, 176160, Note_on_c, 0, 75, 64
2, 176220, Note_on_c, 0, 75, 0
2, 176220, Note_on_c, 0, 78, 64
2, 176280, Note_on_c, 0, 78, 0
2, 176340, Note_on_c, 0, 70, 64
2, 176364, Note_on_c, 0, 70, 0
2, 176460, Note_on_c, 0, 68, 64
2, 176484, Note_on_c, 0, 68, 0
2, 176580, Note_on_c, 0, 66, 64
2, 176604, Note_on_c, 0, 66, 0
2, 176640, Note_on_c, 0, 66, 64
2, 176700, Note_on_c, 0, 66, 0
2, 176700, Note_on_c, 0, 70, 64
2, 176760, Note_on_c, 0, 70, 0
2, 176760, Note_on_c, 0, 69, 64
2, 176820, Note_on_c, 0, 69, 0
2, 176820, Note_on_c, 0, 70, 64
2, 176880, Note_on_c, 0, 70, 0
2, 176880, Note_on_c, 0, 65, 64
2, 177000, Note_on_c, 0, 65, 0
2, 177090, Note_on_c, 0, 70, 64
2, 177120, Note_on_c, 0, 70, 0
2, 177120, Note_on_c, 0, 80, 80
2, 177192, Note_on_c, 0, 80, 0
2, 177210, Note_on_c, 0, 77, 80
2, 177234, Note_on_c, 0, 77, 0
2, 177240, Note_on_c, 0, 74, 80
2, 177312, Note_on_c, 0, 74, 0
2, 177330, Note_on_c, 0, 74, 80
2, 177354, Note_on_c, 0, 74, 0
2, 177360, Note_on_c, 0, 80, 80
2, 177432, Note_on_c, 0, 80, 0
2, 177450, Note_on_c, 0, 77, 80
2, 177474, Note_on_c, 0, 77, 0
2, 177480, Note_on_c, 0, 74, 80
2, 177552, Note_on_c, 0, 74, 0
2, 177570, Note_on_c, 0, 74, 80
2, 177594, Note_on_c, 0, 74, 0
2, 177600, Note_on_c, 0, 75, 80
2, 177612, Note_on_c, 0, 75, 0
2, 177615, Note_on_c, 0, 77, 80
2, 177627, Note_on_c, 0, 77, 0
2, 177630, Note_on_c, 0, 75, 80
2, 177642, Note_on_c, 0, 75, 0
2, 177645, Note_on_c, 0, 74, 80
2, 177657, Note_on_c, 0, 74, 0
2, 177660, Note_on_c, 0, 75, 80
2, 177684, Note_on_c, 0, 75, 0
2, 177690, Note_on_c, 0, 77, 80
2, 177714, Note_on_c, 0, 77, 0
2, 177720, Note_on_c, 0, 78, 80
2, 177732, Note_on_c, 0, 78, 0
2, 177735, Note_on_c, 0, 80, 80
2, 177747, Note_on_c, 0, 80, 0
2, 177750, Note_on_c, 0, 78, 80
2, 177762, Note_on_c, 0, 78, 0
2, 177765, Note_on_c, 0, 77, 80
2, 177777, Note_on_c, 0, 77, 0
2, 177780, Note_on_c, 0, 78, 80
2, 177804, Note_on_c, 0, 78, 0
2, 177810, Note_on_c, 0, 80, 80
2, 177834, Note_on_c, 0, 80, 0
2, 177840, Note_on_c, 0, 82, 80
2, 177936, Note_on_c, 0, 82, 0
2, 178050, Note_on_c, 0, 58, 64
2, 178074, Note_on_c, 0, 58, 0
2, 178080, Note_on_c, 0, 68, 64
2, 178152, Note_on_c, 0, 68, 0
2, 178170, Note_on_c, 0, 65, 64
2, 178194, Note_on_c, 0, 65, 0
2, 178200, Note_on_c, 0, 62, 64
2, 178272, Note_on_c, 0, 62, 0
2, 178290, Note_on_c, 0, 62, 64
2, 178314, Note_on_c, 0, 62, 0
2, 178320, Note_on_c, 0, 68, 64
2, 178392, Note_on_c, 0, 68, 0
2, 178410, Note_on_c, 0, 65, 64
2, 178434, Note_on_c, 0, 65, 0
2, 178440, Note_on_c, 0, 62, 64
2, 178512, Note_on_c, 0, 62, 0
2, 178530, Note_on_c, 0, 62, 64
2, 178554, Note_on_c, 0, 62, 0
2, 178560, Note_on_c, 0, 63, 64
2, 178572, Note_on_c, 0, 63, 0
2, 178575, Note_on_c, 0, 65, 64
2, 178587, Note_on_c, 0, 65, 0
2, 178590, Note_on_c, 0, 63, 64
2, 178602, Note_on_c, 0, 63, 0
2, 178605, Note_on_c, 0, 62, 64
2, 178617, Note_on_c, 0, 62, 0
2, 178620, Note_on_c, 0, 63, 64
2, 178644, Note_on_c, 0, 63, 0
2, 178650, Note_on_c, 0, 65, 64
2, 178674, Note_on_c, 0, 65, 0
2, 178680, Note_on_c, 0, 66, 64
2, 178692, Note_on_c, 0, 66, 0
2, 178695, Note_on_c, 0, 68, 64
2, 178707, Note_on_c, 0, 68, 0
2, 178710, Note_on_c, 0, 66, 64
2, 178722, Note_on_c, 0, 66, 0
2, 178725, Note_on_c, 0, 65, 64
2, 178737, Note_on_c, 0, 65, 0
2, 178740, Note_on_c, 0, 66, 64
2, 178764, Note_on_c, 0, 66, 0
2, 178770, Note_on_c, 0, 68, 64
2, 178794, Note_on_c, 0, 68, 0
2, 178800, Note_on_c, 0, 70, 64
2, 178896, Note_on_c, 0, 70, 0
2, 178920, Note_on_c, 0, 82, 80
2, 179088, Note_on_c, 0, 82, 0
2, 179100, Note_on_c, 0, 80, 80
2, 179148, Note_on_c, 0, 80, 0
2, 179160, Note_on_c, 0, 82, 80
2, 179208, Note_on_c, 0, 82, 0
2, 179220, Note_on_c, 0, 83, 80
2, 179268, Note_on_c, 0, 83, 0
2, 179280, Note_on_c, 0, 83, 80
2, 179312, Note_on_c, 0, 83, 0
2, 179320, Note_on_c, 0, 82, 80
2, 179352, Note_on_c, 0, 82, 0
2, 179360, Note_on_c, 0, 80, 80
2, 179392, Note_on_c, 0, 80, 0
2, 179400, Note_on_c, 0, 78, 80
2, 179432, Note_on_c, 0, 78, 0
2, 179440, Note_on_c, 0, 77, 80
2, 179472, Note_on_c, 0, 77, 0
2, 179480, Note_on_c, 0, 75, 80
2, 179512, Note_on_c, 0, 75, 0
2, 179520, Note_on_c, 0, 75, 80
2, 179712, Note_on_c, 0, 75, 0
2, 179760, Note_on_c, 0, 74, 80
2, 179952, Note_on_c, 0, 74, 0
2, 180060, Note_on_c, 0, 75, 80
2, 180108, Note_on_c, 0, 75, 0
2, 180120, Note_on_c, 0, 74, 80
2, 180168, Note_on_c, 0, 74, 0
2, 180180, Note_on_c, 0, 75, 80
2, 180228, Note_on_c, 0, 75, 0
2, 180300, Note_on_c, 0, 71, 80
2, 180348, Note_on_c, 0, 71, 0
2, 180360, Note_on_c, 0, 70, 80
2, 180408, Note_on_c, 0, 70, 0
2, 180420, Note_on_c, 0, 71, 80
2, 180468, Note_on_c, 0, 71, 0
2, 180540, Note_on_c, 0, 70, 80
2, 180588, Note_on_c, 0, 70, 0
2, 180600, Note_on_c, 0, 69, 80
2, 180648, Note_on_c, 0, 69, 0
2, 180660, Note_on_c, 0, 70, 80
2, 180708, Note_on_c, 0, 70, 0
2, 180780, Note_on_c, 0, 65, 80
2, 180828, Note_on_c, 0, 65, 0
2, 180840, Note_on_c, 0, 68, 80
2, 180888, Note_on_c, 0, 68, 0
2, 180900, Note_on_c, 0, 62, 80
2, 180948, Note_on_c, 0, 62, 0
2, 180960, Note_on_c, 0, 62, 80
2, 181152, Note_on_c, 0, 62, 0
2, 181200, Note_on_c, 0, 63, 80
2, 181296, Note_on_c, 0, 63, 0
2, 181320, Note_on_c, 0, 82, 80
2, 181488, Note_on_c, 0, 82, 0
2, 181500, Note_on_c, 0, 79, 80
2, 181548, Note_on_c, 0, 79, 0
2, 181560, Note_on_c, 0, 80, 80
2, 181608, Note_on_c, 0, 80, 0
2, 181620, Note_on_c, 0, 82, 80
2, 181668, Note_on_c, 0, 82, 0
2, 181680, Note_on_c, 0, 83, 80
2, 181712, Note_on_c, 0, 83, 0
2, 181720, Note_on_c, 0, 82, 80
2, 181752, Note_on_c, 0, 82, 0
2, 181760, Note_on_c, 0, 80, 80
2, 181792, Note_on_c, 0, 80, 0
2, 181800, Note_on_c, 0, 78, 80
2, 181832, Note_on_c, 0, 78, 0
2, 181840, Note_on_c, 0, 77, 80
2, 181872, Note_on_c, 0, 77, 0
2, 181880, Note_on_c, 0, 75, 80
2, 181912, Note_on_c, 0, 75, 0
2, 181920, Note_on_c, 0, 75, 80
2, 182112, Note_on_c, 0, 75, 0
2, 182160, Note_on_c, 0, 74, 80
2, 182256, Note_on_c, 0, 74, 0
2, 182280, Note_on_c, 0, 70, 80
2, 182376, Note_on_c, 0, 70, 0
2, 182460, Note_on_c, 0, 77, 80
2, 182472, Note_on_c, 0, 77, 0
2, 182475, Note_on_c, 0, 75, 80
2, 182487, Note_on_c, 0, 75, 0
2, 182490, Note_on_c, 0, 74, 80
2, 182502, Note_on_c, 0, 74, 0
2, 182505, Note_on_c, 0, 75, 80
2, 182517, Note_on_c, 0, 75, 0
2, 182520, Note_on_c, 0, 78, 80
2, 182568, Note_on_c, 0, 78, 0
2, 182580, Note_on_c, 0, 70, 80
2, 182628, Note_on_c, 0, 70, 0
2, 182700, Note_on_c, 0, 73, 80
2, 182712, Note_on_c, 0, 73, 0
2, 182715, Note_on_c, 0, 71, 80
2, 182727, Note_on_c, 0, 71, 0
2, 182730, Note_on_c, 0, 70, 80
2, 182742, Note_on_c, 0, 70, 0
2, 182745, Note_on_c, 0, 71, 80
2, 182757, Note_on_c, 0, 71, 0
2, 182760, Note_on_c, 0, 75, 80
2, 182808, Note_on_c, 0, 75, 0
2, 182820, Note_on_c, 0, 68, 80
2, 182868, Note_on_c, 0, 68, 0
2, 182880, Note_on_c, 0, 66, 64
2, 182928, Note_on_c, 0, 66, 0
2, 182940, Note_on_c, 0, 68, 64
2, 182956, Note_on_c, 0, 68, 0
2, 182960, Note_on_c, 0, 66, 64
2, 182976, Note_on_c, 0, 66, 0
2, 182980, Note_on_c, 0, 65, 64
2, 182996, Note_on_c, 0, 65, 0
2, 183000, Note_on_c, 0, 66, 64
2, 183048, Note_on_c, 0, 66, 0
2, 183060, Note_on_c, 0, 68, 64
2, 183108, Note_on_c, 0, 68, 0
2, 183120, Note_on_c, 0, 70, 64
2, 183216, Note_on_c, 0, 70, 0
2, 183240, Note_on_c, 0, 62, 64
2, 183360, Note_on_c, 0, 62, 0
2, 183360, Note_on_c, 0, 62, 64
2, 183600, Note_on_c, 0, 62, 0
2, 183600, Note_on_c, 0, 63, 64
2, 183696, Note_on_c, 0, 63, 0
2, 183810, Note_on_c, 0, 70, 80
2, 183834, Note_on_c, 0, 70, 0
2, 183840, Note_on_c, 0, 80, 80
2, 183912, Note_on_c, 0, 80, 0
2, 183930, Note_on_c, 0, 77, 80
2, 183954, Note_on_c, 0, 77, 0
2, 183960, Note_on_c, 0, 74, 80
2, 184032, Note_on_c, 0, 74, 0
2, 184050, Note_on_c, 0, 74, 80
2, 184074, Note_on_c, 0, 74, 0
2, 184080, Note_on_c, 0, 80, 80
2, 184152, Note_on_c, 0, 80, 0
2, 184170, Note_on_c, 0, 77, 80
2, 184194, Note_on_c, 0, 77, 0
2, 184200, Note_on_c, 0, 74, 80
2, 184272, Note_on_c, 0, 74, 0
2, 184290, Note_on_c, 0, 74, 80
2, 184314, Note_on_c, 0, 74, 0
2, 184320, Note_on_c, 0, 75, 80
2, 184332, Note_on_c, 0, 75, 0
2, 184335, Note_on_c, 0, 77, 80
2, 184347, Note_on_c, 0, 77, 0
2, 184350, Note_on_c, 0, 75, 80
2, 184362, Note_on_c, 0, 75, 0
2, 184365, Note_on_c, 0, 74, 80
2, 184377, Note_on_c, 0, 74, 0
2, 184380, Note_on_c, 0, 75, 80
2, 184404, Note_on_c, 0, 75, 0
2, 184410, Note_on_c, 0, 77, 80
2, 184434, Note_on_c, 0, 77, 0
2, 184440, Note_on_c, 0, 78, 80
2, 184452, Note_on_c, 0, 78, 0
2, 184455, Note_on_c, 0, 80, 80
2, 184467, Note_on_c, 0, 80, 0
2, 184470, Note_on_c, 0, 78, 80
2, 184482, Note_on_c, 0, 78, 0
2, 184485, Note_on_c, 0, 77, 80
2, 184497, Note_on_c, 0, 77, 0
2, 184500, Note_on_c, 0, 78, 80
2, 184524, Note_on_c, 0, 78, 0
2, 184530, Note_on_c, 0, 80, 80
2, 184554, Note_on_c, 0, 80, 0
2, 184560, Note_on_c, 0, 82, 80
2, 184656, Note_on_c, 0, 82, 0
2, 184770, Note_on_c, 0, 58, 64
2, 184794, Note_on_c, 0, 58, 0
2, 184800, Note_on_c, 0, 68, 64
2, 184872, Note_on_c, 0, 68, 0
2, 184890, Note_on_c, 0, 65, 64
2, 184914, Note_on_c, 0, 65, 0
2, 184920, Note_on_c, 0, 62, 64
2, 184992, Note_on_c, 0, 62, 0
2, 185010, Note_on_c, 0, 62, 64
2, 185034, Note_on_c, 0, 62, 0
2, 185040, Note_on_c, 0, 68, 64
2, 185112, Note_on_c, 0, 68, 0
2, 185130, Note_on_c, 0, 65, 64
2, 185154, Note_on_c, 0, 65, 0
2, 185160, Note_on_c, 0, 62, 64
2, 185232, Note_on_c, 0, 62, 0
2, 185250, Note_on_c, 0, 62, 64
2, 185274, Note_on_c, 0, 62, 0
2, 185280, Note_on_c, 0, 63, 64
2, 185292, Note_on_c, 0, 63, 0
2, 185295, Note_on_c, 0, 65, 64
2, 185307, Note_on_c, 0, 65, 0
2, 185310, Note_on_c, 0, 63, 64
2, 185322, Note_on_c, 0, 63, 0
2, 185325, Note_on_c, 0, 62, 64
2, 185337, Note_on_c, 0, 62, 0
2, 185340, Note_on_c, 0, 63, 64
2, 185364, Note_on_c, 0, 63, 0
2, 185370, Note_on_c, 0, 65, 64
2, 185394, Note_on_c, 0, 65, 0
2, 185400, Note_on_c, 0, 66, 64
2, 185412, Note_on_c, 0, 66, 0
2, 185415, Note_on_c, 0, 68, 64
2, 185427, Note_on_c, 0, 68, 0
2, 185430, Note_on_c, 0, 66, 64
2, 185442, Note_on_c, 0, 66, 0
2, 185445, Note_on_c, 0, 65, 64
2, 185457, Note_on_c, 0, 65, 0
2, 185460, Note_on_c, 0, 66, 64
2, 185484, Note_on_c, 0, 66, 0
2, 185490, Note_on_c, 0, 68, 64
2, 185514, Note_on_c, 0, 68, 0
2, 185520, Note_on_c, 0, 70, 64
2, 185616, Note_on_c, 0, 70, 0
2, 185640, Note_on_c, 0, 82, 64
2, 185808, Note_on_c, 0, 82, 0
2, 185820, Note_on_c, 0, 80, 64
2, 185868, Note_on_c, 0, 80, 0
2, 185880, Note_on_c, 0, 82, 64
2, 185928, Note_on_c, 0, 82, 0
2, 185940, Note_on_c, 0, 83, 64
2, 185988, Note_on_c, 0, 83, 0
2, 186000, Note_on_c, 0, 83, 64
2, 186032, Note_on_c, 0, 83, 0
2, 186040, Note_on_c, 0, 82, 64
2, 186072, Note_on_c, 0, 82, 0
2, 186080, Note_on_c, 0, 80, 64
2, 186112, Note_on_c, 0, 80, 0
2, 186120, Note_on_c, 0, 78, 64
2, 186152, Note_on_c, 0, 78, 0
2, 186160, Note_on_c, 0, 77, 64
2, 186192, Note_on_c, 0, 77, 0
2, 186200, Note_on_c, 0, 75, 64
2, 186232, Note_on_c, 0, 75, 0
2, 186240, Note_on_c, 0, 75, 64
2, 186432, Note_on_c, 0, 75, 0
2, 186480, Note_on_c, 0, 74, 64
2, 186672, Note_on_c, 0, 74, 0
2, 186780, Note_on_c, 0, 75, 80
2, 186828, Note_on_c, 0, 75, 0
2, 186840, Note_on_c, 0, 74, 80
2, 186888, Note_on_c, 0, 74, 0
2, 186900, Note_on_c, 0, 75, 80
2, 186948, Note_on_c, 0, 75, 0
2, 187020, Note_on_c, 0, 71, 80
2, 187068, Note_on_c, 0, 71, 0
2, 187080, Note_on_c, 0, 70, 80
2, 187128, Note_on_c, 0, 70, 0
2, 187140, Note_on_c, 0, 71, 80
2, 187188, Note_on_c, 0, 71, 0
2, 187260, Note_on_c, 0, 70, 80
2, 187308, Note_on_c, 0, 70, 0
2, 187320, Note_on_c, 0, 69, 80
2, 187368, Note_on_c, 0, 69, 0
2, 187380, Note_on_c, 0, 70, 80
2, 187428, Note_on_c, 0, 70, 0
2, 187500, Note_on_c, 0, 65, 80
2, 187548, Note_on_c, 0, 65, 0
2, 187560, Note_on_c, 0, 68, 80
2, 187608, Note_on_c, 0, 68, 0
2, 187620, Note_on_c, 0, 62, 80
2, 187668, Note_on_c, 0, 62, 0
2, 187680, Note_on_c, 0, 62, 80
2, 187872, Note_on_c, 0, 62, 0
2, 187920, Note_on_c, 0, 63, 80
2, 188016, Note_on_c, 0, 63, 0
2, 188040, Note_on_c, 0, 82, 80
2, 188208, Note_on_c, 0, 82, 0
2, 188220, Note_on_c, 0, 79, 80
2, 188268, Note_on_c, 0, 79, 0
2, 188280, Note_on_c, 0, 80, 80
2, 188328, Note_on_c, 0, 80, 0
2, 188340, Note_on_c, 0, 82, 80
2, 188388, Note_on_c, 0, 82, 0
2, 188400, Note_on_c, 0, 83, 80
2, 188432, Note_on_c, 0, 83, 0
2, 188440, Note_on_c, 0, 82, 80
2, 188472, Note_on_c, 0, 82, 0
2, 188480, Note_on_c, 0, 80, 80
2, 188512, Note_on_c, 0, 80, 0
2, 188520, Note_on_c, 0, 78, 80
2, 188552, Note_on_c, 0, 78, 0
2, 188560, Note_on_c, 0, 77, 80
2, 188592, Note_on_c, 0, 77, 0
2, 188600, Note_on_c, 0, 75, 80
2, 188632, Note_on_c, 0, 75, 0
2, 188640, Note_on_c, 0, 75, 80
2, 188832, Note_on_c, 0, 75, 0
2, 188880, Note_on_c, 0, 74, 80
2, 188976, Note_on_c, 0, 74, 0
2, 189000, Note_on_c, 0, 70, 80
2, 189096, Note_on_c, 0, 70, 0
2, 189180, Note_on_c, 0, 77, 80
2, 189192, Note_on_c, 0, 77, 0
2, 189195, Note_on_c, 0, 75, 80
2, 189207, Note_on_c, 0, 75, 0
2, 189210, Note_on_c, 0, 74, 80
2, 189222, Note_on_c, 0, 74, 0
2, 189225, Note_on_c, 0, 75, 80
2, 189237, Note_on_c, 0, 75, 0
2, 189240, Note_on_c, 0, 78, 80
2, 189288, Note_on_c, 0, 78, 0
2, 189300, Note_on_c, 0, 70, 80
2, 189348, Note_on_c, 0, 70, 0
2, 189420, Note_on_c, 0, 73, 80
2, 189432, Note_on_c, 0, 73, 0
2, 189435, Note_on_c, 0, 71, 80
2, 189447, Note_on_c, 0, 71, 0
2, 189450, Note_on_c, 0, 70, 80
2, 189462, Note_on_c, 0, 70, 0
2, 189465, Note_on_c, 0, 71, 80
2, 189477, Note_on_c, 0, 71, 0
2, 189480, Note_on_c, 0, 75, 80
2, 189528, Note_on_c, 0, 75, 0
2, 189540, Note_on_c, 0, 68, 80
2, 189588, Note_on_c, 0, 68, 0
2, 189600, Note_on_c, 0, 66, 64
2, 189648, Note_on_c, 0, 66, 0
2, 189660, Note_on_c, 0, 68, 64
2, 189676, Note_on_c, 0, 68, 0
2, 189680, Note_on_c, 0, 66, 64
2, 189696, Note_on_c, 0, 66, 0
2, 189700, Note_on_c, 0, 65, 64
2, 189716, Note_on_c, 0, 65, 0
2, 189720, Note_on_c, 0, 66, 64
2, 189768, Note_on_c, 0, 66, 0
2, 189780, Note_on_c, 0, 68, 64
2, 189828, Note_on_c, 0, 68, 0
2, 189840, Note_on_c, 0, 70, 64
2, 189936, Note_on_c, 0, 70, 0
2, 189960, Note_on_c, 0, 62, 64
2, 190080, Note_on_c, 0, 62, 0
2, 190080, Note_on_c, 0, 62, 64
2, 190320, Note_on_c, 0, 62, 0
2, 190320, Note_on_c, 0, 63, 64
2, 190416, Note_on_c, 0, 63, 0
2, 190590, Note_on_c, 0, 82, 48
2, 190620, Note_on_c, 0, 82, 0
2, 190620, Note_on_c, 0, 70, 48
2, 190650, Note_on_c, 0, 70, 0
2, 190650, Note_on_c, 0, 82, 48
2, 190680, Note_on_c, 0, 82, 0
2, 190680, Note_on_c, 0, 70, 48
2, 190710, Note_on_c, 0, 70, 0
2, 190710, Note_on_c, 0, 82, 48
2, 190740, Note_on_c, 0, 82, 0
2, 190740, Note_on_c, 0, 70, 48
2, 190770, Note_on_c, 0, 70, 0
2, 190770, Note_on_c, 0, 82, 48
2, 190800, Note_on_c, 0, 82, 0
2, 190800, Note_on_c, 0, 70, 48
2, 190830, Note_on_c, 0, 70, 0
2, 190830, Note_on_c, 0, 82, 48
2, 190860, Note_on_c, 0, 82, 0
2, 190860, Note_on_c, 0, 70, 48
2, 190890, Note_on_c, 0, 70, 0
2, 190890, Note_on_c, 0, 82, 48
2, 190920, Note_on_c, 0, 82, 0
2, 190920, Note_on_c, 0, 70, 48
2, 190950, Note_on_c, 0, 70, 0
2, 190950, Note_on_c, 0, 82, 48
2, 190980, Note_on_c, 0, 82, 0
2, 190980, Note_on_c, 0, 70, 48
2, 191010, Note_on_c, 0, 70, 0
2, 191010, Note_on_c, 0, 82, 48
2, 191040, Note_on_c, 0, 82, 0
2, 191040, Note_on_c, 0, 70, 48
2, 191070, Note_on_c, 0, 70, 0
2, 191070, Note_on_c, 0, 82, 48
2, 191100, Note_on_c, 0, 82, 0
2, 191100, Note_on_c, 0, 70, 48
2, 191130, Note_on_c, 0, 70, 0
2, 191130, Note_on_c, 0, 82, 48
2, 191160, Note_on_c, 0, 82, 0
2, 191160, Note_on_c, 0, 70, 48
2, 191190, Note_on_c, 0, 70, 0
2, 191190, Note_on_c, 0, 82, 48
2, 191220, Note_on_c, 0, 82, 0
2, 191220, Note_on_c, 0, 70, 48
2, 191250, Note_on_c, 0, 70, 0
2, 191250, Note_on_c, 0, 82, 48
2, 191280, Note_on_c, 0, 82, 0
2, 191280, Note_on_c, 0, 70, 48
2, 191310, Note_on_c, 0, 70, 0
2, 191310, Note_on_c, 0, 82, 48
2, 191340, Note_on_c, 0, 82, 0
2, 191340, Note_on_c, 0, 70, 48
2, 191370, Note_on_c, 0, 70, 0
2, 191370, Note_on_c, 0, 82, 48
2, 191400, Note_on_c, 0, 82, 0
2, 191400, Note_on_c, 0, 70, 48
2, 191430, Note_on_c, 0, 70, 0
2, 191430, Note_on_c, 0, 82, 48
2, 191460, Note_on_c, 0, 82, 0
2, 191460, Note_on_c, 0, 70, 48
2, 191490, Note_on_c, 0, 70, 0
2, 191490, Note_on_c, 0, 82, 48
2, 191520, Note_on_c, 0, 82, 0
2, 191520, Note_on_c, 0, 70, 48
2, 191550, Note_on_c, 0, 70, 0
2, 191550, Note_on_c, 0, 82, 48
2, 191580, Note_on_c, 0, 82, 0
2, 191580, Note_on_c, 0, 70, 48
2, 191610, Note_on_c, 0, 70, 0
2, 191610, Note_on_c, 0, 82, 48
2, 191640, Note_on_c, 0, 82, 0
2, 191640, Note_on_c, 0, 70, 48
2, 191670, Note_on_c, 0, 70, 0
2, 191670, Note_on_c, 0, 82, 48
2, 191700, Note_on_c, 0, 82, 0
2, 191700, Note_on_c, 0, 70, 48
2, 191730, Note_on_c, 0, 70, 0
2, 191730, Note_on_c, 0, 82, 48
2, 191760, Note_on_c, 0, 82, 0
2, 191760, Note_on_c, 0, 70, 48
2, 191790, Note_on_c, 0, 70, 0
2, 191790, Note_on_c, 0, 82, 48
2, 191820, Note_on_c, 0, 82, 0
2, 191820, Note_on_c, 0, 70, 48
2, 191850, Note_on_c, 0, 70, 0
2, 191850, Note_on_c, 0, 82, 48
2, 191880, Note_on_c, 0, 82, 0
2, 191880, Note_on_c, 0, 70, 48
2, 191910, Note_on_c, 0, 70, 0
2, 191910, Note_on_c, 0, 82, 48
2, 191940, Note_on_c, 0, 82, 0
2, 191940, Note_on_c, 0, 70, 48
2, 191970, Note_on_c, 0, 70, 0
2, 191970, Note_on_c, 0, 82, 48
2, 192000, Note_on_c, 0, 82, 0
2, 192000, Note_on_c, 0, 70, 48
2, 192030, Note_on_c, 0, 70, 0
2, 192030, Note_on_c, 0, 82, 48
2, 192060, Note_on_c, 0, 82, 0
2, 192060, Note_on_c, 0, 70, 48
2, 192090, Note_on_c, 0, 70, 0
2, 192090, Note_on_c, 0, 82, 48
2, 192120, Note_on_c, 0, 82, 0
2, 192120, Note_on_c, 0, 70, 48
2, 192150, Note_on_c, 0, 70, 0
2, 192150, Note_on_c, 0, 82, 48
2, 192180, Note_on_c, 0, 82, 0
2, 192180, Note_on_c, 0, 70, 48
2, 192210, Note_on_c, 0, 70, 0
2, 192210, Note_on_c, 0, 82, 48
2, 192240, Note_on_c, 0, 82, 0
2, 192240, Note_on_c, 0, 70, 48
2, 192270, Note_on_c, 0, 70, 0
2, 192270, Note_on_c, 0, 82, 48
2, 192300, Note_on_c, 0, 82, 0
2, 192300, Note_on_c, 0, 70, 48
2, 192330, Note_on_c, 0, 70, 0
2, 192330, Note_on_c, 0, 82, 48
2, 192360, Note_on_c, 0, 82, 0
2, 192360, Note_on_c, 0, 70, 48
2, 192390, Note_on_c, 0, 70, 0
2, 192390, Note_on_c, 0, 82, 48
2, 192420, Note_on_c, 0, 82, 0
2, 192420, Note_on_c, 0, 70, 48
2, 192450, Note_on_c, 0, 70, 0
2, 192450, Note_on_c, 0, 82, 48
2, 192480, Note_on_c, 0, 82, 0
2, 192480, Note_on_c, 0, 70, 48
2, 192510, Note_on_c, 0, 70, 0
2, 192510, Note_on_c, 0, 82, 48
2, 192540, Note_on_c, 0, 82, 0
2, 192540, Note_on_c, 0, 70, 48
2, 192570, Note_on_c, 0, 70, 0
2, 192570, Note_on_c, 0, 82, 48
2, 192600, Note_on_c, 0, 82, 0
2, 192600, Note_on_c, 0, 70, 48
2, 192630, Note_on_c, 0, 70, 0
2, 192630, Note_on_c, 0, 82, 48
2, 192660, Note_on_c, 0, 82, 0
2, 192660, Note_on_c, 0, 70, 48
2, 192690, Note_on_c, 0, 70, 0
2, 192690, Note_on_c, 0, 82, 48
2, 192720, Note_on_c, 0, 82, 0
2, 192720, Note_on_c, 0, 70, 48
2, 192750, Note_on_c, 0, 70, 0
2, 192750, Note_on_c, 0, 82, 48
2, 192780, Note_on_c, 0, 82, 0
2, 192780, Note_on_c, 0, 70, 48
2, 192810, Note_on_c, 0, 70, 0
2, 192810, Note_on_c, 0, 82, 48
2, 192840, Note_on_c, 0, 82, 0
2, 192840, Note_on_c, 0, 70, 48
2, 192870, Note_on_c, 0, 70, 0
2, 192870, Note_on_c, 0, 82, 48
2, 192900, Note_on_c, 0, 82, 0
2, 192900, Note_on_c, 0, 70, 48
2, 192930, Note_on_c, 0, 70, 0
2, 192930, Note_on_c, 0, 82, 48
2, 192960, Note_on_c, 0, 82, 0
2, 192960, Note_on_c, 0, 70, 48
2, 192990, Note_on_c, 0, 70, 0
2, 192990, Note_on_c, 0, 82, 48
2, 193020, Note_on_c, 0, 82, 0
2, 193020, Note_on_c, 0, 70, 48
2, 193050, Note_on_c, 0, 70, 0
2, 193050, Note_on_c, 0, 82, 48
2, 193080, Note_on_c, 0, 82, 0
2, 193080, Note_on_c, 0, 70, 48
2, 193110, Note_on_c, 0, 70, 0
2, 193110, Note_on_c, 0, 82, 48
2, 193140, Note_on_c, 0, 82, 0
2, 193140, Note_on_c, 0, 70, 48
2, 193170, Note_on_c, 0, 70, 0
2, 193170, Note_on_c, 0, 82, 48
2, 193200, Note_on_c, 0, 82, 0
2, 193200, Note_on_c, 0, 70, 48
2, 193230, Note_on_c, 0, 70, 0
2, 193230, Note_on_c, 0, 82, 48
2, 193260, Note_on_c, 0, 82, 0
2, 193260, Note_on_c, 0, 70, 48
2, 193290, Note_on_c, 0, 70, 0
2, 193290, Note_on_c, 0, 82, 48
2, 193320, Note_on_c, 0, 82, 0
2, 193320, Note_on_c, 0, 70, 48
2, 193350, Note_on_c, 0, 70, 0
2, 193350, Note_on_c, 0, 82, 48
2, 193380, Note_on_c, 0, 82, 0
2, 193380, Note_on_c, 0, 70, 48
2, 193410, Note_on_c, 0, 70, 0
2, 193410, Note_on_c, 0, 82, 48
2, 193440, Note_on_c, 0, 82, 0
2, 193440, Note_on_c, 0, 70, 48
2, 193470, Note_on_c, 0, 70, 0
2, 193470, Note_on_c, 0, 82, 48
2, 193500, Note_on_c, 0, 82, 0
2, 193500, Note_on_c, 0, 70, 48
2, 193530, Note_on_c, 0, 70, 0
2, 193530, Note_on_c, 0, 82, 48
2, 193560, Note_on_c, 0, 82, 0
2, 193560, Note_on_c, 0, 70, 48
2, 193590, Note_on_c, 0, 70, 0
2, 193590, Note_on_c, 0, 82, 48
2, 193620, Note_on_c, 0, 82, 0
2, 193620, Note_on_c, 0, 70, 48
2, 193650, Note_on_c, 0, 70, 0
2, 193650, Note_on_c, 0, 82, 48
2, 193680, Note_on_c, 0, 82, 0
2, 193680, Note_on_c, 0, 70, 48
2, 193710, Note_on_c, 0, 70, 0
2, 193710, Note_on_c, 0, 82, 48
2, 193740, Note_on_c, 0, 82, 0
2, 193740, Note_on_c, 0, 70, 48
2, 193770, Note_on_c, 0, 70, 0
2, 193770, Note_on_c, 0, 82, 48
2, 193800, Note_on_c, 0, 82, 0
2, 193800, Note_on_c, 0, 70, 48
2, 193830, Note_on_c, 0, 70, 0
2, 193830, Note_on_c, 0, 82, 48
2, 193860, Note_on_c, 0, 82, 0
2, 193860, Note_on_c, 0, 70, 48
2, 193890, Note_on_c, 0, 70, 0
2, 193890, Note_on_c, 0, 82, 48
2, 193920, Note_on_c, 0, 82, 0
2, 193920, Note_on_c, 0, 70, 48
2, 193950, Note_on_c, 0, 70, 0
2, 193950, Note_on_c, 0, 82, 48
2, 193980, Note_on_c, 0, 82, 0
2, 193980, Note_on_c, 0, 70, 48
2, 194010, Note_on_c, 0, 70, 0
2, 194010, Note_on_c, 0, 82, 48
2, 194040, Note_on_c, 0, 82, 0
2, 194040, Note_on_c, 0, 70, 48
2, 194070, Note_on_c, 0, 70, 0
2, 194070, Note_on_c, 0, 82, 48
2, 194100, Note_on_c, 0, 82, 0
2, 194100, Note_on_c, 0, 70, 48
2, 194130, Note_on_c, 0, 70, 0
2, 194130, Note_on_c, 0, 82, 48
2, 194160, Note_on_c, 0, 82, 0
2, 194160, Note_on_c, 0, 70, 48
2, 194190, Note_on_c, 0, 70, 0
2, 194190, Note_on_c, 0, 82, 48
2, 194220, Note_on_c, 0, 82, 0
2, 194220, Note_on_c, 0, 70, 48
2, 194250, Note_on_c, 0, 70, 0
2, 194250, Note_on_c, 0, 82, 48
2, 194280, Note_on_c, 0, 82, 0
2, 194280, Note_on_c, 0, 70, 48
2, 194310, Note_on_c, 0, 70, 0
2, 194310, Note_on_c, 0, 82, 48
2, 194340, Note_on_c, 0, 82, 0
2, 194340, Note_on_c, 0, 70, 48
2, 194370, Note_on_c, 0, 70, 0
2, 194370, Note_on_c, 0, 82, 48
2, 194400, Note_on_c, 0, 82, 0
2, 194400, Note_on_c, 0, 70, 48
2, 194430, Note_on_c, 0, 70, 0
2, 194430, Note_on_c, 0, 82, 48
2, 194460, Note_on_c, 0, 82, 0
2, 194460, Note_on_c, 0, 70, 48
2, 194490, Note_on_c, 0, 70, 0
2, 194490, Note_on_c, 0, 82, 48
2, 194520, Note_on_c, 0, 82, 0
2, 194520, Note_on_c, 0, 70, 48
2, 194550, Note_on_c, 0, 70, 0
2, 194550, Note_on_c, 0, 82, 48
2, 194580, Note_on_c, 0, 82, 0
2, 194580, Note_on_c, 0, 70, 48
2, 194610, Note_on_c, 0, 70, 0
2, 194610, Note_on_c, 0, 82, 48
2, 194640, Note_on_c, 0, 82, 0
2, 194640, Note_on_c, 0, 70, 48
2, 194670, Note_on_c, 0, 70, 0
2, 194670, Note_on_c, 0, 82, 48
2, 194700, Note_on_c, 0, 82, 0
2, 194700, Note_on_c, 0, 70, 48
2, 194730, Note_on_c, 0, 70, 0
2, 194730, Note_on_c, 0, 82, 48
2, 194760, Note_on_c, 0, 82, 0
2, 194760, Note_on_c, 0, 70, 48
2, 194790, Note_on_c, 0, 70, 0
2, 194790, Note_on_c, 0, 82, 48
2, 194820, Note_on_c, 0, 82, 0
2, 194820, Note_on_c, 0, 70, 48
2, 194850, Note_on_c, 0, 70, 0
2, 194850, Note_on_c, 0, 82, 48
2, 194880, Note_on_c, 0, 82, 0
2, 194880, Note_on_c, 0, 70, 48
2, 194910, Note_on_c, 0, 70, 0
2, 194910, Note_on_c, 0, 82, 48
2, 194940, Note_on_c, 0, 82, 0
2, 194940, Note_on_c, 0, 70, 48
2, 194970, Note_on_c, 0, 70, 0
2, 194970, Note_on_c, 0, 82, 48
2, 195000, Note_on_c, 0, 82, 0
2, 195000, Note_on_c, 0, 70, 48
2, 195030, Note_on_c, 0, 70, 0
2, 195030, Note_on_c, 0, 82, 48
2, 195060, Note_on_c, 0, 82, 0
2, 195060, Note_on_c, 0, 70, 48
2, 195090, Note_on_c, 0, 70, 0
2, 195090, Note_on_c, 0, 82, 48
2, 195120, Note_on_c, 0, 82, 0
2, 195120, Note_on_c, 0, 70, 48
2, 195150, Note_on_c, 0, 70, 0
2, 195150, Note_on_c, 0, 82, 48
2, 195180, Note_on_c, 0, 82, 0
2, 195180, Note_on_c, 0, 70, 48
2, 195210, Note_on_c, 0, 70, 0
2, 195210, Note_on_c, 0, 82, 48
2, 195240, Note_on_c, 0, 82, 0
2, 195240, Note_on_c, 0, 70, 48
2, 195270, Note_on_c, 0, 70, 0
2, 195270, Note_on_c, 0, 82, 48
2, 195300, Note_on_c, 0, 82, 0
2, 195300, Note_on_c, 0, 70, 48
2, 195330, Note_on_c, 0, 70, 0
2, 195330, Note_on_c, 0, 82, 48
2, 195360, Note_on_c, 0, 82, 0
2, 195360, Note_on_c, 0, 70, 48
2, 195390, Note_on_c, 0, 70, 0
2, 195390, Note_on_c, 0, 82, 48
2, 195420, Note_on_c, 0, 82, 0
2, 195420, Note_on_c, 0, 70, 48
2, 195450, Note_on_c, 0, 70, 0
2, 195450, Note_on_c, 0, 82, 48
2, 195480, Note_on_c, 0, 82, 0
2, 195480, Note_on_c, 0, 70, 48
2, 195510, Note_on_c, 0, 70, 0
2, 195510, Note_on_c, 0, 82, 48
2, 195540, Note_on_c, 0, 82, 0
2, 195540, Note_on_c, 0, 70, 48
2, 195570, Note_on_c, 0, 70, 0
2, 195570, Note_on_c, 0, 82, 48
2, 195600, Note_on_c, 0, 82, 0
2, 195600, Note_on_c, 0, 70, 48
2, 195630, Note_on_c, 0, 70, 0
2, 195630, Note_on_c, 0, 82, 48
2, 195660, Note_on_c, 0, 82, 0
2, 195660, Note_on_c, 0, 70, 48
2, 195690, Note_on_c, 0, 70, 0
2, 195690, Note_on_c, 0, 82, 48
2, 195720, Note_on_c, 0, 82, 0
2, 195720, Note_on_c, 0, 70, 48
2, 195750, Note_on_c, 0, 70, 0
2, 195750, Note_on_c, 0, 82, 48
2, 195780, Note_on_c, 0, 82, 0
2, 195780, Note_on_c, 0, 70, 48
2, 195810, Note_on_c, 0, 70, 0
2, 195810, Note_on_c, 0, 82, 48
2, 195840, Note_on_c, 0, 82, 0
2, 195840, Note_on_c, 0, 70, 48
2, 195870, Note_on_c, 0, 70, 0
2, 195870, Note_on_c, 0, 82, 48
2, 195900, Note_on_c, 0, 82, 0
2, 195900, Note_on_c, 0, 70, 48
2, 195930, Note_on_c, 0, 70, 0
2, 195930, Note_on_c, 0, 82, 48
2, 195960, Note_on_c, 0, 82, 0
2, 195960, Note_on_c, 0, 70, 48
2, 195990, Note_on_c, 0, 70, 0
2, 195990, Note_on_c, 0, 82, 48
2, 196020, Note_on_c, 0, 82, 0
2, 196020, Note_on_c, 0, 70, 48
2, 196050, Note_on_c, 0, 70, 0
2, 196050, Note_on_c, 0, 82, 48
2, 196080, Note_on_c, 0, 82, 0
2, 196080, Note_on_c, 0, 70, 48
2, 196110, Note_on_c, 0, 70, 0
2, 196110, Note_on_c, 0, 82, 48
2, 196140, Note_on_c, 0, 82, 0
2, 196140, Note_on_c, 0, 70, 48
2, 196170, Note_on_c, 0, 70, 0
2, 196170, Note_on_c, 0, 82, 48
2, 196200, Note_on_c, 0, 82, 0
2, 196200, Note_on_c, 0, 70, 48
2, 196230, Note_on_c, 0, 70, 0
2, 196230, Note_on_c, 0, 82, 48
2, 196260, Note_on_c, 0, 82, 0
2, 196260, Note_on_c, 0, 70, 48
2, 196290, Note_on_c, 0, 70, 0
2, 196290, Note_on_c, 0, 82, 48
2, 196320, Note_on_c, 0, 82, 0
2, 196320, Note_on_c, 0, 70, 48
2, 196350, Note_on_c, 0, 70, 0
2, 196350, Note_on_c, 0, 82, 48
2, 196380, Note_on_c, 0, 82, 0
2, 196380, Note_on_c, 0, 70, 48
2, 196410, Note_on_c, 0, 70, 0
2, 196410, Note_on_c, 0, 82, 48
2, 196440, Note_on_c, 0, 82, 0
2, 196440, Note_on_c, 0, 70, 48
2, 196470, Note_on_c, 0, 70, 0
2, 196470, Note_on_c, 0, 82, 48
2, 196500, Note_on_c, 0, 82, 0
2, 196500, Note_on_c, 0, 70, 48
2, 196530, Note_on_c, 0, 70, 0
2, 196530, Note_on_c, 0, 82, 48
2, 196560, Note_on_c, 0, 82, 0
2, 196560, Note_on_c, 0, 70, 48
2, 196590, Note_on_c, 0, 70, 0
2, 196590, Note_on_c, 0, 82, 48
2, 196620, Note_on_c, 0, 82, 0
2, 196620, Note_on_c, 0, 70, 48
2, 196650, Note_on_c, 0, 70, 0
2, 196650, Note_on_c, 0, 82, 48
2, 196680, Note_on_c, 0, 82, 0
2, 196680, Note_on_c, 0, 70, 48
2, 196710, Note_on_c, 0, 70, 0
2, 196710, Note_on_c, 0, 82, 48
2, 196740, Note_on_c, 0, 82, 0
2, 196740, Note_on_c, 0, 70, 48
2, 196770, Note_on_c, 0, 70, 0
2, 196770, Note_on_c, 0, 82, 48
2, 196800, Note_on_c, 0, 82, 0
2, 196800, Note_on_c, 0, 70, 56
2, 196830, Note_on_c, 0, 70, 0
2, 196830, Note_on_c, 0, 82, 56
2, 196860, Note_on_c, 0, 82, 0
2, 196860, Note_on_c, 0, 70, 56
2, 196890, Note_on_c, 0, 70, 0
2, 196890, Note_on_c, 0, 82, 56
2, 196920, Note_on_c, 0, 82, 0
2, 196920, Note_on_c, 0, 70, 56
2, 196950, Note_on_c, 0, 70, 0
2, 196950, Note_on_c, 0, 82, 56
2, 196980, Note_on_c, 0, 82, 0
2, 196980, Note_on_c, 0, 70, 56
2, 197010, Note_on_c, 0, 70, 0
2, 197010, Note_on_c, 0, 82, 56
2, 197040, Note_on_c, 0, 82, 0
2, 197040, Note_on_c, 0, 70, 64
2, 197070, Note_on_c, 0, 70, 0
2, 197070, Note_on_c, 0, 82, 64
2, 197100, Note_on_c, 0, 82, 0
2, 197100, Note_on_c, 0, 70, 64
2, 197130, Note_on_c, 0, 70, 0
2, 197130, Note_on_c, 0, 82, 64
2, 197160, Note_on_c, 0, 82, 0
2, 197160, Note_on_c, 0, 70, 64
2, 197190, Note_on_c, 0, 70, 0
2, 197190, Note_on_c, 0, 82, 64
2, 197220, Note_on_c, 0, 82, 0
2, 197220, Note_on_c, 0, 70, 64
2, 197250, Note_on_c, 0, 70, 0
2, 197250, Note_on_c, 0, 82, 64
2, 197280, Note_on_c, 0, 82, 0
2, 197280, Note_on_c, 0, 82, 64
2, 197340, Note_on_c, 0, 82, 0
2, 197400, Note_on_c, 0, 83, 64
2, 197460, Note_on_c, 0, 83, 0
2, 197520, Note_on_c, 0, 84, 64
2, 197580, Note_on_c, 0, 84, 0
2, 197700, Note_on_c, 0, 80, 64
2, 197760, Note_on_c, 0, 80, 0
2, 197760, Note_on_c, 0, 79, 80
2, 197808, Note_on_c, 0, 79, 0
2, 197820, Note_on_c, 0, 82, 80
2, 197868, Note_on_c, 0, 82, 0
2, 197940, Note_on_c, 0, 75, 80
2, 197988, Note_on_c, 0, 75, 0
2, 198000, Note_on_c, 0, 77, 80
2, 198048, Note_on_c, 0, 77, 0
2, 198060, Note_on_c, 0, 80, 80
2, 198108, Note_on_c, 0, 80, 0
2, 198180, Note_on_c, 0, 74, 80
2, 198228, Note_on_c, 0, 74, 0
2, 198240, Note_on_c, 0, 75, 80
2, 198264, Note_on_c, 0, 75, 0
2, 198270, Note_on_c, 0, 77, 80
2, 198294, Note_on_c, 0, 77, 0
2, 198300, Note_on_c, 0, 79, 80
2, 198324, Note_on_c, 0, 79, 0
2, 198330, Note_on_c, 0, 80, 80
2, 198354, Note_on_c, 0, 80, 0
2, 198360, Note_on_c, 0, 82, 80
2, 198384, Note_on_c, 0, 82, 0
2, 198390, Note_on_c, 0, 80, 80
2, 198414, Note_on_c, 0, 80, 0
2, 198420, Note_on_c, 0, 79, 80
2, 198444, Note_on_c, 0, 79, 0
2, 198450, Note_on_c, 0, 77, 80
2, 198474, Note_on_c, 0, 77, 0
2, 198480, Note_on_c, 0, 75, 80
2, 198504, Note_on_c, 0, 75, 0
2, 198510, Note_on_c, 0, 74, 80
2, 198534, Note_on_c, 0, 74, 0
2, 198540, Note_on_c, 0, 72, 80
2, 198564, Note_on_c, 0, 72, 0
2, 198570, Note_on_c, 0, 70, 80
2, 198594, Note_on_c, 0, 70, 0
2, 198600, Note_on_c, 0, 68, 80
2, 198624, Note_on_c, 0, 68, 0
2, 198630, Note_on_c, 0, 67, 80
2, 198654, Note_on_c, 0, 67, 0
2, 198660, Note_on_c, 0, 65, 80
2, 198684, Note_on_c, 0, 65, 0
2, 198690, Note_on_c, 0, 63, 80
2, 198714, Note_on_c, 0, 63, 0
2, 198720, Note_on_c, 0, 70, 48
2, 198750, Note_on_c, 0, 70, 0
2, 198750, Note_on_c, 0, 82, 48
2, 198780, Note_on_c, 0, 82, 0
2, 198780, Note_on_c, 0, 70, 48
2, 198810, Note_on_c, 0, 70, 0
2, 198810, Note_on_c, 0, 82, 48
2, 198840, Note_on_c, 0, 82, 0
2, 198840, Note_on_c, 0, 70, 48
2, 198870, Note_on_c, 0, 70, 0
2, 198870, Note_on_c, 0, 82, 48
2, 198900, Note_on_c, 0, 82, 0
2, 198900, Note_on_c, 0, 70, 48
2, 198930, Note_on_c, 0, 70, 0
2, 198930, Note_on_c, 0, 82, 48
2, 198960, Note_on_c, 0, 82, 0
2, 198960, Note_on_c, 0, 70, 48
2, 198990, Note_on_c, 0, 70, 0
2, 198990, Note_on_c, 0, 82, 48
2, 199020, Note_on_c, 0, 82, 0
2, 199020, Note_on_c, 0, 70, 48
2, 199050, Note_on_c, 0, 70, 0
2, 199050, Note_on_c, 0, 82, 48
2, 199080, Note_on_c, 0, 82, 0
2, 199080, Note_on_c, 0, 70, 48
2, 199110, Note_on_c, 0, 70, 0
2, 199110, Note_on_c, 0, 82, 48
2, 199140, Note_on_c, 0, 82, 0
2, 199140, Note_on_c, 0, 70, 48
2, 199170, Note_on_c, 0, 70, 0
2, 199170, Note_on_c, 0, 82, 48
2, 199200, Note_on_c, 0, 82, 0
2, 199200, Note_on_c, 0, 70, 48
2, 199230, Note_on_c, 0, 70, 0
2, 199230, Note_on_c, 0, 82, 48
2, 199260, Note_on_c, 0, 82, 0
2, 199260, Note_on_c, 0, 70, 48
2, 199290, Note_on_c, 0, 70, 0
2, 199290, Note_on_c, 0, 82, 48
2, 199320, Note_on_c, 0, 82, 0
2, 199320, Note_on_c, 0, 70, 48
2, 199350, Note_on_c, 0, 70, 0
2, 199350, Note_on_c, 0, 82, 48
2, 199380, Note_on_c, 0, 82, 0
2, 199380, Note_on_c, 0, 70, 48
2, 199410, Note_on_c, 0, 70, 0
2, 199410, Note_on_c, 0, 82, 48
2, 199440, Note_on_c, 0, 82, 0
2, 199440, Note_on_c, 0, 70, 48
2, 199470, Note_on_c, 0, 70, 0
2, 199470, Note_on_c, 0, 82, 48
2, 199500, Note_on_c, 0, 82, 0
2, 199500, Note_on_c, 0, 70, 48
2, 199530, Note_on_c, 0, 70, 0
2, 199530, Note_on_c, 0, 82, 48
2, 199560, Note_on_c, 0, 82, 0
2, 199560, Note_on_c, 0, 70, 48
2, 199590, Note_on_c, 0, 70, 0
2, 199590, Note_on_c, 0, 82, 48
2, 199620, Note_on_c, 0, 82, 0
2, 199620, Note_on_c, 0, 70, 48
2, 199650, Note_on_c, 0, 70, 0
2, 199650, Note_on_c, 0, 82, 48
2, 199680, Note_on_c, 0, 82, 0
2, 199680, Note_on_c, 0, 82, 80
2, 199728, Note_on_c, 0, 82, 0
2, 199800, Note_on_c, 0, 83, 80
2, 199848, Note_on_c, 0, 83, 0
2, 199920, Note_on_c, 0, 84, 80
2, 200016, Note_on_c, 0, 84, 0
2, 200100, Note_on_c, 0, 80, 80
2, 200148, Note_on_c, 0, 80, 0
2, 200160, Note_on_c, 0, 79, 80
2, 200208, Note_on_c, 0, 79, 0
2, 200220, Note_on_c, 0, 82, 80
2, 200268, Note_on_c, 0, 82, 0
2, 200340, Note_on_c, 0, 75, 80
2, 200388, Note_on_c, 0, 75, 0
2, 200400, Note_on_c, 0, 77, 80
2, 200448, Note_on_c, 0, 77, 0
2, 200460, Note_on_c, 0, 80, 80
2, 200508, Note_on_c, 0, 80, 0
2, 200580, Note_on_c, 0, 74, 80
2, 200628, Note_on_c, 0, 74, 0
2, 200640, Note_on_c, 0, 74, 80
2, 200832, Note_on_c, 0, 74, 0
2, 200880, Note_on_c, 0, 75, 80
2, 200976, Note_on_c, 0, 75, 0
2, 202080, Note_on_c, 0, 65, 80
2, 202368, Note_on_c, 0, 65, 0
2, 202440, Note_on_c, 0, 67, 80
2, 202536, Note_on_c, 0, 67, 0
2, 202560, Note_on_c, 0, 70, 80
2, 202680, Note_on_c, 0, 70, 0
2, 202680, Note_on_c, 0, 68, 80
2, 202800, Note_on_c, 0, 68, 0
2, 202800, Note_on_c, 0, 67, 80
2, 202920, Note_on_c, 0, 67, 0
2, 203040, Note_on_c, 0, 75, 80
2, 203232, Note_on_c, 0, 75, 0
2, 203280, Note_on_c, 0, 74, 80
2, 203376, Note_on_c, 0, 74, 0
2, 203400, Note_on_c, 0, 74, 80
2, 203448, Note_on_c, 0, 74, 0
2, 203460, Note_on_c, 0, 77, 80
2, 203508, Note_on_c, 0, 77, 0
2, 203520, Note_on_c, 0, 75, 80
2, 203712, Note_on_c, 0, 75, 0
2, 203760, Note_on_c, 0, 74, 80
2, 203856, Note_on_c, 0, 74, 0
2, 203880, Note_on_c, 0, 74, 80
2, 203928, Note_on_c, 0, 74, 0
2, 203940, Note_on_c, 0, 77, 80
2, 203988, Note_on_c, 0, 77, 0
2, 204000, Note_on_c, 0, 75, 80
2, 204096, Note_on_c, 0, 75, 0
2, 204120, Note_on_c, 0, 70, 80
2, 204240, Note_on_c, 0, 70, 0
2, 204240, Note_on_c, 0, 68, 80
2, 204360, Note_on_c, 0, 68, 0
2, 204360, Note_on_c, 0, 67, 80
2, 204480, Note_on_c, 0, 67, 0
2, 204480, Note_on_c, 0, 67, 80
2, 204672, Note_on_c, 0, 67, 0
2, 204720, Note_on_c, 0, 65, 80
2, 204912, Note_on_c, 0, 65, 0
2, 204960, Note_on_c, 0, 65, 80
2, 205152, Note_on_c, 0, 65, 0
2, 205200, Note_on_c, 0, 65, 80
2, 205296, Note_on_c, 0, 65, 0
2, 205320, Note_on_c, 0, 68, 80
2, 205416, Note_on_c, 0, 68, 0
2, 205440, Note_on_c, 0, 68, 80
2, 205536, Note_on_c, 0, 68, 0
2, 205560, Note_on_c, 0, 66, 80
2, 205752, Note_on_c, 0, 66, 0
2, 205800, Note_on_c, 0, 65, 80
2, 205848, Note_on_c, 0, 65, 0
2, 205860, Note_on_c, 0, 63, 80
2, 205908, Note_on_c, 0, 63, 0
2, 205920, Note_on_c, 0, 70, 80
2, 206016, Note_on_c, 0, 70, 0
2, 206040, Note_on_c, 0, 65, 80
2, 206136, Note_on_c, 0, 65, 0
2, 206160, Note_on_c, 0, 65, 80
2, 206256, Note_on_c, 0, 65, 0
2, 206280, Note_on_c, 0, 68, 80
2, 206376, Note_on_c, 0, 68, 0
2, 206400, Note_on_c, 0, 68, 80
2, 206496, Note_on_c, 0, 68, 0
2, 206520, Note_on_c, 0, 67, 80
2, 206712, Note_on_c, 0, 67, 0
2, 206760, Note_on_c, 0, 75, 80
2, 206856, Note_on_c, 0, 75, 0
2, 206880, Note_on_c, 0, 75, 80
2, 206976, Note_on_c, 0, 75, 0
2, 207000, Note_on_c, 0, 74, 80
2, 207192, Note_on_c, 0, 74, 0
2, 207240, Note_on_c, 0, 72, 80
2, 207288, Note_on_c, 0, 72, 0
2, 207300, Note_on_c, 0, 70, 80
2, 207348, Note_on_c, 0, 70, 0
2, 207360, Note_on_c, 0, 75, 80
2, 207456, Note_on_c, 0, 75, 0
2, 207480, Note_on_c, 0, 74, 80
2, 207672, Note_on_c, 0, 74, 0
2, 207720, Note_on_c, 0, 72, 80
2, 207768, Note_on_c, 0, 72, 0
2, 207780, Note_on_c, 0, 70, 80
2, 207828, Note_on_c, 0, 70, 0
2, 207840, Note_on_c, 0, 75, 80
2, 207936, Note_on_c, 0, 75, 0
2, 207960, Note_on_c, 0, 70, 80
2, 208056, Note_on_c, 0, 70, 0
2, 208080, Note_on_c, 0, 74, 80
2, 208128, Note_on_c, 0, 74, 0
2, 208140, Note_on_c, 0, 72, 80
2, 208188, Note_on_c, 0, 72, 0
2, 208200, Note_on_c, 0, 70, 80
2, 208248, Note_on_c, 0, 70, 0
2, 208260, Note_on_c, 0, 68, 80
2, 208308, Note_on_c, 0, 68, 0
2, 208320, Note_on_c, 0, 67, 80
2, 208512, Note_on_c, 0, 67, 0
2, 208560, Note_on_c, 0, 65, 80
2, 208656, Note_on_c, 0, 65, 0
2, 208680, Note_on_c, 0, 70, 80
2, 208776, Note_on_c, 0, 70, 0
2, 208800, Note_on_c, 0, 68, 80
2, 208992, Note_on_c, 0, 68, 0
2, 209040, Note_on_c, 0, 67, 80
2, 209136, Note_on_c, 0, 67, 0
2, 209160, Note_on_c, 0, 70, 80
2, 209256, Note_on_c, 0, 70, 0
2, 209280, Note_on_c, 0, 75, 80
2, 209376, Note_on_c, 0, 75, 0
2, 209400, Note_on_c, 0, 74, 80
2, 209592, Note_on_c, 0, 74, 0
2, 209640, Note_on_c, 0, 77, 80
2, 209736, Note_on_c, 0, 77, 0
2, 209760, Note_on_c, 0, 75, 80
2, 209856, Note_on_c, 0, 75, 0
2, 209880, Note_on_c, 0, 74, 80
2, 210072, Note_on_c, 0, 74, 0
2, 210120, Note_on_c, 0, 80, 80
2, 210168, Note_on_c, 0, 80, 0
2, 210180, Note_on_c, 0, 74, 80
2, 210228, Note_on_c, 0, 74, 0
2, 210240, Note_on_c, 0, 75, 80
2, 210336, Note_on_c, 0, 75, 0
2, 210360, Note_on_c, 0, 70, 80
2, 210456, Note_on_c, 0, 70, 0
2, 210480, Note_on_c, 0, 74, 80
2, 210528, Note_on_c, 0, 74, 0
2, 210540, Note_on_c, 0, 72, 80
2, 210588, Note_on_c, 0, 72, 0
2, 210600, Note_on_c, 0, 70, 80
2, 210648, Note_on_c, 0, 70, 0
2, 210660, Note_on_c, 0, 68, 80
2, 210708, Note_on_c, 0, 68, 0
2, 210720, Note_on_c, 0, 67, 80
2, 210912, Note_on_c, 0, 67, 0
2, 210960, Note_on_c, 0, 65, 80
2, 211056, Note_on_c, 0, 65, 0
2, 211080, Note_on_c, 0, 70, 80
2, 211176, Note_on_c, 0, 70, 0
2, 211200, Note_on_c, 0, 63, 80
2, 211392, Note_on_c, 0, 63, 0
2, 211560, Note_on_c, 0, 70, 64
2, 211656, Note_on_c, 0, 70, 0
2, 211680, Note_on_c, 0, 70, 64
2, 212040, Note_on_c, 0, 70, 0
2, 212040, Note_on_c, 0, 69, 64
2, 212100, Note_on_c, 0, 69, 0
2, 212100, Note_on_c, 0, 70, 64
2, 212160, Note_on_c, 0, 70, 0
2, 212160, Note_on_c, 0, 67, 64
2, 212280, Note_on_c, 0, 67, 0
2, 212280, Note_on_c, 0, 67, 64
2, 212400, Note_on_c, 0, 67, 0
2, 212400, Note_on_c, 0, 67, 64
2, 212520, Note_on_c, 0, 67, 0
2, 212520, Note_on_c, 0, 67, 64
2, 212640, Note_on_c, 0, 67, 0
2, 212640, Note_on_c, 0, 67, 64
2, 212820, Note_on_c, 0, 67, 0
2, 212820, Note_on_c, 0, 68, 64
2, 212850, Note_on_c, 0, 68, 0
2, 212850, Note_on_c, 0, 67, 64
2, 212880, Note_on_c, 0, 67, 0
2, 212880, Note_on_c, 0, 70, 64
2, 212940, Note_on_c, 0, 70, 0
2, 212940, Note_on_c, 0, 68, 64
2, 213000, Note_on_c, 0, 68, 0
2, 213000, Note_on_c, 0, 67, 64
2, 213060, Note_on_c, 0, 67, 0
2, 213060, Note_on_c, 0, 65, 64
2, 213120, Note_on_c, 0, 65, 0
2, 213120, Note_on_c, 0, 63, 64
2, 213240, Note_on_c, 0, 63, 0
2, 213240, Note_on_c, 0, 63, 64
2, 213480, Note_on_c, 0, 63, 0
2, 213480, Note_on_c, 0, 63, 64
2, 213600, Note_on_c, 0, 63, 0
2, 213600, Note_on_c, 0, 64, 64
2, 213660, Note_on_c, 0, 64, 0
2, 213660, Note_on_c, 0, 65, 64
2, 213684, Note_on_c, 0, 65, 0
2, 213720, Note_on_c, 0, 65, 64
2, 213744, Note_on_c, 0, 65, 0
2, 213780, Note_on_c, 0, 65, 64
2, 213804, Note_on_c, 0, 65, 0
2, 213840, Note_on_c, 0, 64, 64
2, 213900, Note_on_c, 0, 64, 0
2, 213900, Note_on_c, 0, 65, 64
2, 213924, Note_on_c, 0, 65, 0
2, 213960, Note_on_c, 0, 65, 64
2, 213984, Note_on_c, 0, 65, 0
2, 214020, Note_on_c, 0, 65, 64
2, 214044, Note_on_c, 0, 65, 0
2, 214080, Note_on_c, 0, 66, 64
2, 214140, Note_on_c, 0, 66, 0
2, 214140, Note_on_c, 0, 67, 64
2, 214164, Note_on_c, 0, 67, 0
2, 214200, Note_on_c, 0, 67, 64
2, 214224, Note_on_c, 0, 67, 0
2, 214260, Note_on_c, 0, 67, 64
2, 214284, Note_on_c, 0, 67, 0
2, 214320, Note_on_c, 0, 66, 64
2, 214380, Note_on_c, 0, 66, 0
2, 214380, Note_on_c, 0, 67, 64
2, 214404, Note_on_c, 0, 67, 0
2, 214440, Note_on_c, 0, 67, 64
2, 214464, Note_on_c, 0, 67, 0
2, 214500, Note_on_c, 0, 67, 64
2, 214524, Note_on_c, 0, 67, 0
2, 214560, Note_on_c, 0, 70, 64
2, 214680, Note_on_c, 0, 70, 0
2, 214680, Note_on_c, 0, 69, 64
2, 214740, Note_on_c, 0, 69, 0
2, 214740, Note_on_c, 0, 68, 64
2, 214860, Note_on_c, 0, 68, 0
2, 214860, Note_on_c, 0, 70, 64
2, 214890, Note_on_c, 0, 70, 0
2, 214890, Note_on_c, 0, 72, 64
2, 214920, Note_on_c, 0, 72, 0
2, 214920, Note_on_c, 0, 70, 64
2, 214980, Note_on_c, 0, 70, 0
2, 214980, Note_on_c, 0, 68, 64
2, 215040, Note_on_c, 0, 68, 0
2, 215040, Note_on_c, 0, 67, 64
2, 215070, Note_on_c, 0, 67, 0
2, 215070, Note_on_c, 0, 70, 64
2, 215100, Note_on_c, 0, 70, 0
2, 215100, Note_on_c, 0, 68, 64
2, 215130, Note_on_c, 0, 68, 0
2, 215130, Note_on_c, 0, 67, 64
2, 215160, Note_on_c, 0, 67, 0
2, 215160, Note_on_c, 0, 68, 64
2, 215190, Note_on_c, 0, 68, 0
2, 215190, Note_on_c, 0, 70, 64
2, 215220, Note_on_c, 0, 70, 0
2, 215220, Note_on_c, 0, 72, 64
2, 215250, Note_on_c, 0, 72, 0
2, 215250, Note_on_c, 0, 74, 64
2, 215280, Note_on_c, 0, 74, 0
2, 215280, Note_on_c, 0, 75, 64
2, 215310, Note_on_c, 0, 75, 0
2, 215310, Note_on_c, 0, 77, 64
2, 215340, Note_on_c, 0, 77, 0
2, 215340, Note_on_c, 0, 79, 64
2, 215370, Note_on_c, 0, 79, 0
2, 215370, Note_on_c, 0, 80, 64
2, 215400, Note_on_c, 0, 80, 0
2, 215400, Note_on_c, 0, 82, 64
2, 215430, Note_on_c, 0, 82, 0
2, 215430, Note_on_c, 0, 79, 64
2, 215460, Note_on_c, 0, 79, 0
2, 215460, Note_on_c, 0, 80, 64
2, 215490, Note_on_c, 0, 80, 0
2, 215490, Note_on_c, 0, 77, 64
2, 215520, Note_on_c, 0, 77, 0
2, 215520, Note_on_c, 0, 77, 64
2, 215580, Note_on_c, 0, 77, 0
2, 215580, Note_on_c, 0, 75, 64
2, 215610, Note_on_c, 0, 75, 0
2, 215640, Note_on_c, 0, 75, 64
2, 215820, Note_on_c, 0, 75, 0
2, 215820, Note_on_c, 0, 77, 64
2, 215850, Note_on_c, 0, 77, 0
2, 215850, Note_on_c, 0, 79, 64
2, 215880, Note_on_c, 0, 79, 0
2, 215880, Note_on_c, 0, 77, 64
2, 215910, Note_on_c, 0, 77, 0
2, 215940, Note_on_c, 0, 75, 64
2, 216000, Note_on_c, 0, 75, 0
2, 216000, Note_on_c, 0, 75, 64
2, 216090, Note_on_c, 0, 75, 0
2, 216090, Note_on_c, 0, 74, 64
2, 216120, Note_on_c, 0, 74, 0
2, 216120, Note_on_c, 0, 80, 64
2, 216240, Note_on_c, 0, 80, 0
2, 216300, Note_on_c, 0, 80, 64
2, 216360, Note_on_c, 0, 80, 0
2, 216360, Note_on_c, 0, 77, 64
2, 216420, Note_on_c, 0, 77, 0
2, 216420, Note_on_c, 0, 74, 64
2, 216480, Note_on_c, 0, 74, 0
2, 216480, Note_on_c, 0, 77, 64
2, 216540, Note_on_c, 0, 77, 0
2, 216540, Note_on_c, 0, 75, 64
2, 216570, Note_on_c, 0, 75, 0
2, 216600, Note_on_c, 0, 75, 64
2, 216780, Note_on_c, 0, 75, 0
2, 216780, Note_on_c, 0, 77, 64
2, 216810, Note_on_c, 0, 77, 0
2, 216810, Note_on_c, 0, 79, 64
2, 216840, Note_on_c, 0, 79, 0
2, 216840, Note_on_c, 0, 77, 64
2, 216870, Note_on_c, 0, 77, 0
2, 216900, Note_on_c, 0, 75, 64
2, 216960, Note_on_c, 0, 75, 0
2, 216960, Note_on_c, 0, 75, 64
2, 216990, Note_on_c, 0, 75, 0
2, 216990, Note_on_c, 0, 74, 64
2, 217020, Note_on_c, 0, 74, 0
2, 217020, Note_on_c, 0, 77, 64
2, 217050, Note_on_c, 0, 77, 0
2, 217050, Note_on_c, 0, 75, 64
2, 217080, Note_on_c, 0, 75, 0
2, 217080, Note_on_c, 0, 79, 64
2, 217110, Note_on_c, 0, 79, 0
2, 217110, Note_on_c, 0, 77, 64
2, 217140, Note_on_c, 0, 77, 0
2, 217140, Note_on_c, 0, 80, 64
2, 217170, Note_on_c, 0, 80, 0
2, 217170, Note_on_c, 0, 79, 64
2, 217200, Note_on_c, 0, 79, 0
2, 217200, Note_on_c, 0, 82, 64
2, 217230, Note_on_c, 0, 82, 0
2, 217230, Note_on_c, 0, 80, 64
2, 217260, Note_on_c, 0, 80, 0
2, 217260, Note_on_c, 0, 84, 64
2, 217290, Note_on_c, 0, 84, 0
2, 217290, Note_on_c, 0, 80, 64
2, 217320, Note_on_c, 0, 80, 0
2, 217320, Note_on_c, 0, 79, 64
2, 217350, Note_on_c, 0, 79, 0
2, 217350, Note_on_c, 0, 77, 64
2, 217380, Note_on_c, 0, 77, 0
2, 217380, Note_on_c, 0, 75, 64
2, 217410, Note_on_c, 0, 75, 0
2, 217410, Note_on_c, 0, 74, 64
2, 217440, Note_on_c, 0, 74, 0
2, 217440, Note_on_c, 0, 75, 64
2, 217470, Note_on_c, 0, 75, 0
2, 217470, Note_on_c, 0, 77, 64
2, 217480, Note_on_c, 0, 77, 0
2, 217480, Note_on_c, 0, 75, 64
2, 217490, Note_on_c, 0, 75, 0
2, 217490, Note_on_c, 0, 74, 64
2, 217500, Note_on_c, 0, 74, 0
2, 217500, Note_on_c, 0, 75, 64
2, 217530, Note_on_c, 0, 75, 0
2, 217530, Note_on_c, 0, 77, 64
2, 217560, Note_on_c, 0, 77, 0
2, 217560, Note_on_c, 0, 79, 64
2, 217590, Note_on_c, 0, 79, 0
2, 217620, Note_on_c, 0, 77, 64
2, 217680, Note_on_c, 0, 77, 0
2, 217680, Note_on_c, 0, 75, 64
2, 217740, Note_on_c, 0, 75, 0
2, 217740, Note_on_c, 0, 74, 64
2, 217800, Note_on_c, 0, 74, 0
2, 217800, Note_on_c, 0, 72, 64
2, 217860, Note_on_c, 0, 72, 0
2, 217860, Note_on_c, 0, 70, 64
2, 217920, Note_on_c, 0, 70, 0
2, 217920, Note_on_c, 0, 70, 64
2, 217980, Note_on_c, 0, 70, 0
2, 217980, Note_on_c, 0, 69, 64
2, 218040, Note_on_c, 0, 69, 0
2, 218040, Note_on_c, 0, 77, 64
2, 218070, Note_on_c, 0, 77, 0
2, 218100, Note_on_c, 0, 68, 64
2, 218160, Note_on_c, 0, 68, 0
2, 218160, Note_on_c, 0, 68, 64
2, 218220, Note_on_c, 0, 68, 0
2, 218220, Note_on_c, 0, 67, 64
2, 218280, Note_on_c, 0, 67, 0
2, 218280, Note_on_c, 0, 75, 64
2, 218310, Note_on_c, 0, 75, 0
2, 218340, Note_on_c, 0, 67, 64
2, 218400, Note_on_c, 0, 67, 0
2, 218400, Note_on_c, 0, 70, 64
2, 218430, Note_on_c, 0, 70, 0
2, 218460, Note_on_c, 0, 70, 64
2, 218520, Note_on_c, 0, 70, 0
2, 218520, Note_on_c, 0, 69, 64
2, 218580, Note_on_c, 0, 69, 0
2, 218580, Note_on_c, 0, 70, 64
2, 218640, Note_on_c, 0, 70, 0
2, 218640, Note_on_c, 0, 72, 64
2, 218700, Note_on_c, 0, 72, 0
2, 218700, Note_on_c, 0, 70, 64
2, 218760, Note_on_c, 0, 70, 0
2, 218760, Note_on_c, 0, 68, 64
2, 218820, Note_on_c, 0, 68, 0
2, 218820, Note_on_c, 0, 67, 64
2, 218880, Note_on_c, 0, 67, 0
2, 218880, Note_on_c, 0, 65, 64
2, 219120, Note_on_c, 0, 65, 0
2, 219360, Note_on_c, 0, 70, 64
2, 219552, Note_on_c, 0, 70, 0
2, 219600, Note_on_c, 0, 65, 64
2, 219792, Note_on_c, 0, 65, 0
2, 219840, Note_on_c, 0, 65, 64
2, 220032, Note_on_c, 0, 65, 0
2, 220080, Note_on_c, 0, 68, 64
2, 220272, Note_on_c, 0, 68, 0
2, 220320, Note_on_c, 0, 68, 64
2, 220470, Note_on_c, 0, 68, 0
2, 220470, Note_on_c, 0, 67, 64
2, 220500, Note_on_c, 0, 67, 0
2, 220500, Note_on_c, 0, 65, 64
2, 220520, Note_on_c, 0, 65, 0
2, 220520, Note_on_c, 0, 63, 64
2, 220540, Note_on_c, 0, 63, 0
2, 220540, Note_on_c, 0, 62, 64
2, 220560, Note_on_c, 0, 62, 0
2, 220560, Note_on_c, 0, 63, 64
2, 220600, Note_on_c, 0, 63, 0
2, 220600, Note_on_c, 0, 65, 64
2, 220640, Note_on_c, 0, 65, 0
2, 220640, Note_on_c, 0, 67, 64
2, 220680, Note_on_c, 0, 67, 0
2, 220680, Note_on_c, 0, 68, 64
2, 220710, Note_on_c, 0, 68, 0
2, 220710, Note_on_c, 0, 70, 64
2, 220740, Note_on_c, 0, 70, 0
2, 220740, Note_on_c, 0, 72, 64
2, 220770, Note_on_c, 0, 72, 0
2, 220770, Note_on_c, 0, 74, 64
2, 220800, Note_on_c, 0, 74, 0
2, 220800, Note_on_c, 0, 75, 64
2, 220820, Note_on_c, 0, 75, 0
2, 220820, Note_on_c, 0, 77, 64
2, 220840, Note_on_c, 0, 77, 0
2, 220840, Note_on_c, 0, 79, 64
2, 220860, Note_on_c, 0, 79, 0
2, 220860, Note_on_c, 0, 80, 64
2, 220880, Note_on_c, 0, 80, 0
2, 220880, Note_on_c, 0, 82, 64
2, 220900, Note_on_c, 0, 82, 0
2, 220900, Note_on_c, 0, 84, 64
2, 220920, Note_on_c, 0, 84, 0
2, 220920, Note_on_c, 0, 86, 64
2, 220935, Note_on_c, 0, 86, 0
2, 220935, Note_on_c, 0, 87, 64
2, 220950, Note_on_c, 0, 87, 0
2, 220950, Note_on_c, 0, 86, 64
2, 220965, Note_on_c, 0, 86, 0
2, 220965, Note_on_c, 0, 84, 64
2, 220980, Note_on_c, 0, 84, 0
2, 220980, Note_on_c, 0, 82, 64
2, 220995, Note_on_c, 0, 82, 0
2, 220995, Note_on_c, 0, 80, 64
2, 221010, Note_on_c, 0, 80, 0
2, 221010, Note_on_c, 0, 79, 64
2, 221025, Note_on_c, 0, 79, 0
2, 221025, Note_on_c, 0, 77, 64
2, 221040, Note_on_c, 0, 77, 0
2, 221040, Note_on_c, 0, 75, 64
2, 221055, Note_on_c, 0, 75, 0
2, 221055, Note_on_c, 0, 74, 64
2, 221070, Note_on_c, 0, 74, 0
2, 221070, Note_on_c, 0, 72, 64
2, 221085, Note_on_c, 0, 72, 0
2, 221085, Note_on_c, 0, 70, 64
2, 221100, Note_on_c, 0, 70, 0
2, 221100, Note_on_c, 0, 68, 64
2, 221115, Note_on_c, 0, 68, 0
2, 221115, Note_on_c, 0, 67, 64
2, 221130, Note_on_c, 0, 67, 0
2, 221130, Note_on_c, 0, 65, 64
2, 221145, Note_on_c, 0, 65, 0
2, 221145, Note_on_c, 0, 63, 64
2, 221160, Note_on_c, 0, 63, 0
2, 221160, Note_on_c, 0, 62, 64
2, 221180, Note_on_c, 0, 62, 0
2, 221180, Note_on_c, 0, 63, 64
2, 221200, Note_on_c, 0, 63, 0
2, 221200, Note_on_c, 0, 65, 64
2, 221220, Note_on_c, 0, 65, 0
2, 221220, Note_on_c, 0, 63, 64
2, 221240, Note_on_c, 0, 63, 0
2, 221240, Note_on_c, 0, 67, 64
2, 221260, Note_on_c, 0, 67, 0
2, 221260, Note_on_c, 0, 63, 64
2, 221280, Note_on_c, 0, 63, 0
2, 221280, Note_on_c, 0, 70, 56
2, 221520, Note_on_c, 0, 70, 0
2, 221520, Note_on_c, 0, 65, 56
2, 221760, Note_on_c, 0, 65, 0
2, 221760, Note_on_c, 0, 65, 56
2, 222000, Note_on_c, 0, 65, 0
2, 222000, Note_on_c, 0, 68, 56
2, 222240, Note_on_c, 0, 68, 0
2, 222240, Note_on_c, 0, 68, 64
2, 222390, Note_on_c, 0, 68, 0
2, 222390, Note_on_c, 0, 67, 64
2, 222420, Note_on_c, 0, 67, 0
2, 222420, Note_on_c, 0, 65, 64
2, 222440, Note_on_c, 0, 65, 0
2, 222440, Note_on_c, 0, 63, 64
2, 222460, Note_on_c, 0, 63, 0
2, 222460, Note_on_c, 0, 62, 64
2, 222480, Note_on_c, 0, 62, 0
2, 222480, Note_on_c, 0, 63, 64
2, 222500, Note_on_c, 0, 63, 0
2, 222500, Note_on_c, 0, 64, 64
2, 222520, Note_on_c, 0, 64, 0
2, 222520, Note_on_c, 0, 65, 64
2, 222540, Note_on_c, 0, 65, 0
2, 222540, Note_on_c, 0, 66, 64
2, 222560, Note_on_c, 0, 66, 0
2, 222560, Note_on_c, 0, 67, 64
2, 222580, Note_on_c, 0, 67, 0
2, 222580, Note_on_c, 0, 68, 64
2, 222600, Note_on_c, 0, 68, 0
2, 222600, Note_on_c, 0, 69, 64
2, 222620, Note_on_c, 0, 69, 0
2, 222620, Note_on_c, 0, 70, 64
2, 222640, Note_on_c, 0, 70, 0
2, 222640, Note_on_c, 0, 71, 64
2, 222660, Note_on_c, 0, 71, 0
2, 222660, Note_on_c, 0, 72, 64
2, 222680, Note_on_c, 0, 72, 0
2, 222680, Note_on_c, 0, 73, 64
2, 222700, Note_on_c, 0, 73, 0
2, 222700, Note_on_c, 0, 74, 64
2, 222720, Note_on_c, 0, 74, 0
2, 222720, Note_on_c, 0, 75, 64
2, 222750, Note_on_c, 0, 75, 0
2, 222750, Note_on_c, 0, 76, 64
2, 222780, Note_on_c, 0, 76, 0
2, 222780, Note_on_c, 0, 77, 64
2, 222810, Note_on_c, 0, 77, 0
2, 222810, Note_on_c, 0, 78, 64
2, 222840, Note_on_c, 0, 78, 0
2, 222840, Note_on_c, 0, 79, 64
2, 222870, Note_on_c, 0, 79, 0
2, 222870, Note_on_c, 0, 80, 64
2, 222900, Note_on_c, 0, 80, 0
2, 222900, Note_on_c, 0, 81, 64
2, 222930, Note_on_c, 0, 81, 0
2, 222930, Note_on_c, 0, 82, 64
2, 222960, Note_on_c, 0, 82, 0
2, 222960, Note_on_c, 0, 83, 64
2, 222990, Note_on_c, 0, 83, 0
2, 222990, Note_on_c, 0, 84, 64
2, 223020, Note_on_c, 0, 84, 0
2, 223020, Note_on_c, 0, 85, 64
2, 223050, Note_on_c, 0, 85, 0
2, 223050, Note_on_c, 0, 86, 64
2, 223080, Note_on_c, 0, 86, 0
2, 223080, Note_on_c, 0, 87, 64
2, 223110, Note_on_c, 0, 87, 0
2, 223110, Note_on_c, 0, 89, 64
2, 223120, Note_on_c, 0, 89, 0
2, 223120, Note_on_c, 0, 87, 64
2, 223130, Note_on_c, 0, 87, 0
2, 223130, Note_on_c, 0, 86, 64
2, 223140, Note_on_c, 0, 86, 0
2, 223140, Note_on_c, 0, 87, 64
2, 223170, Note_on_c, 0, 87, 0
2, 223170, Note_on_c, 0, 89, 64
2, 223200, Note_on_c, 0, 89, 0
2, 223200, Note_on_c, 0, 87, 64
2, 223440, Note_on_c, 0, 87, 0
2, 223440, Note_on_c, 0, 86, 64
2, 223560, Note_on_c, 0, 86, 0
2, 223740, Note_on_c, 0, 87, 64
2, 223755, Note_on_c, 0, 87, 0
2, 223755, Note_on_c, 0, 86, 64
2, 223770, Note_on_c, 0, 86, 0
2, 223770, Note_on_c, 0, 84, 64
2, 223785, Note_on_c, 0, 84, 0
2, 223785, Note_on_c, 0, 86, 64
2, 223800, Note_on_c, 0, 86, 0
2, 223800, Note_on_c, 0, 87, 64
2, 223860, Note_on_c, 0, 87, 0
2, 223860, Note_on_c, 0, 89, 64
2, 223920, Note_on_c, 0, 89, 0
2, 223920, Note_on_c, 0, 87, 64
2, 223980, Note_on_c, 0, 87, 0
2, 223980, Note_on_c, 0, 86, 64
2, 224040, Note_on_c, 0, 86, 0
2, 224040, Note_on_c, 0, 84, 64
2, 224100, Note_on_c, 0, 84, 0
2, 224100, Note_on_c, 0, 82, 64
2, 224145, Note_on_c, 0, 82, 0
2, 224145, Note_on_c, 0, 77, 64
2, 224160, Note_on_c, 0, 77, 0
2, 224160, Note_on_c, 0, 87, 64
2, 224400, Note_on_c, 0, 87, 0
2, 224400, Note_on_c, 0, 86, 64
2, 224520, Note_on_c, 0, 86, 0
2, 224700, Note_on_c, 0, 87, 64
2, 224715, Note_on_c, 0, 87, 0
2, 224715, Note_on_c, 0, 86, 64
2, 224730, Note_on_c, 0, 86, 0
2, 224730, Note_on_c, 0, 84, 64
2, 224745, Note_on_c, 0, 84, 0
2, 224745, Note_on_c, 0, 86, 64
2, 224760, Note_on_c, 0, 86, 0
2, 224760, Note_on_c, 0, 87, 64
2, 224820, Note_on_c, 0, 87, 0
2, 224820, Note_on_c, 0, 89, 64
2, 224880, Note_on_c, 0, 89, 0
2, 224880, Note_on_c, 0, 87, 64
2, 224940, Note_on_c, 0, 87, 0
2, 224940, Note_on_c, 0, 86, 64
2, 225000, Note_on_c, 0, 86, 0
2, 225000, Note_on_c, 0, 84, 64
2, 225060, Note_on_c, 0, 84, 0
2, 225060, Note_on_c, 0, 82, 64
2, 225120, Note_on_c, 0, 82, 0
2, 225120, Note_on_c, 0, 87, 64
2, 225180, Note_on_c, 0, 87, 0
2, 225180, Note_on_c, 0, 86, 64
2, 225195, Note_on_c, 0, 86, 0
2, 225240, Note_on_c, 0, 87, 64
2, 225300, Note_on_c, 0, 87, 0
2, 225300, Note_on_c, 0, 86, 64
2, 225315, Note_on_c, 0, 86, 0
2, 225360, Note_on_c, 0, 87, 64
2, 225420, Note_on_c, 0, 87, 0
2, 225420, Note_on_c, 0, 86, 64
2, 225435, Note_on_c, 0, 86, 0
2, 225480, Note_on_c, 0, 84, 64
2, 225540, Note_on_c, 0, 84, 0
2, 225540, Note_on_c, 0, 83, 64
2, 225555, Note_on_c, 0, 83, 0
2, 225600, Note_on_c, 0, 86, 64
2, 225630, Note_on_c, 0, 86, 0
2, 225630, Note_on_c, 0, 84, 64
2, 225660, Note_on_c, 0, 84, 0
2, 225660, Note_on_c, 0, 83, 64
2, 225690, Note_on_c, 0, 83, 0
2, 225690, Note_on_c, 0, 84, 64
2, 225720, Note_on_c, 0, 84, 0
2, 225720, Note_on_c, 0, 82, 64
2, 225750, Note_on_c, 0, 82, 0
2, 225750, Note_on_c, 0, 80, 64
2, 225780, Note_on_c, 0, 80, 0
2, 225780, Note_on_c, 0, 79, 64
2, 225810, Note_on_c, 0, 79, 0
2, 225810, Note_on_c, 0, 80, 64
2, 225840, Note_on_c, 0, 80, 0
2, 225840, Note_on_c, 0, 79, 64
2, 225870, Note_on_c, 0, 79, 0
2, 225870, Note_on_c, 0, 77, 64
2, 225900, Note_on_c, 0, 77, 0
2, 225900, Note_on_c, 0, 76, 64
2, 225930, Note_on_c, 0, 76, 0
2, 225930, Note_on_c, 0, 77, 64
2, 225960, Note_on_c, 0, 77, 0
2, 225960, Note_on_c, 0, 79, 64
2, 225990, Note_on_c, 0, 79, 0
2, 225990, Note_on_c, 0, 80, 64
2, 226020, Note_on_c, 0, 80, 0
2, 226020, Note_on_c, 0, 82, 64
2, 226050, Note_on_c, 0, 82, 0
2, 226050, Note_on_c, 0, 84, 64
2, 226080, Note_on_c, 0, 84, 0
2, 226080, Note_on_c, 0, 84, 64
2, 226200, Note_on_c, 0, 84, 0
2, 226200, Note_on_c, 0, 75, 64
2, 226224, Note_on_c, 0, 75, 0
2, 226320, Note_on_c, 0, 75, 64
2, 226440, Note_on_c, 0, 75, 0
2, 226440, Note_on_c, 0, 82, 64
2, 226480, Note_on_c, 0, 82, 0
2, 226480, Note_on_c, 0, 79, 64
2, 226520, Note_on_c, 0, 79, 0
2, 226520, Note_on_c, 0, 75, 64
2, 226560, Note_on_c, 0, 75, 0
2, 226560, Note_on_c, 0, 75, 64
2, 226620, Note_on_c, 0, 75, 0
2, 226620, Note_on_c, 0, 74, 64
2, 226680, Note_on_c, 0, 74, 0
2, 226680, Note_on_c, 0, 80, 64
2, 226860, Note_on_c, 0, 80, 0
2, 226860, Note_on_c, 0, 82, 64
2, 226890, Note_on_c, 0, 82, 0
2, 226890, Note_on_c, 0, 80, 64
2, 226920, Note_on_c, 0, 80, 0
2, 226920, Note_on_c, 0, 79, 64
2, 226950, Note_on_c, 0, 79, 0
2, 226950, Note_on_c, 0, 77, 64
2, 226980, Note_on_c, 0, 77, 0
2, 226980, Note_on_c, 0, 75, 64
2, 227010, Note_on_c, 0, 75, 0
2, 227010, Note_on_c, 0, 74, 64
2, 227040, Note_on_c, 0, 74, 0
2, 227040, Note_on_c, 0, 74, 64
2, 227100, Note_on_c, 0, 74, 0
2, 227100, Note_on_c, 0, 75, 64
2, 227115, Note_on_c, 0, 75, 0
2, 227115, Note_on_c, 0, 74, 64
2, 227130, Note_on_c, 0, 74, 0
2, 227130, Note_on_c, 0, 72, 64
2, 227145, Note_on_c, 0, 72, 0
2, 227145, Note_on_c, 0, 74, 64
2, 227160, Note_on_c, 0, 74, 0
2, 227160, Note_on_c, 0, 77, 64
2, 227250, Note_on_c, 0, 77, 0
2, 227250, Note_on_c, 0, 75, 64
2, 227280, Note_on_c, 0, 75, 0
2, 227280, Note_on_c, 0, 75, 64
2, 227400, Note_on_c, 0, 75, 0
2, 227400, Note_on_c, 0, 63, 64
2, 227535, Note_on_c, 0, 63, 0
2, 227535, Note_on_c, 0, 65, 64
2, 227550, Note_on_c, 0, 65, 0
2, 227550, Note_on_c, 0, 63, 64
2, 227565, Note_on_c, 0, 63, 0
2, 227565, Note_on_c, 0, 62, 64
2, 227580, Note_on_c, 0, 62, 0
2, 227580, Note_on_c, 0, 63, 64
2, 227595, Note_on_c, 0, 63, 0
2, 227595, Note_on_c, 0, 64, 64
2, 227610, Note_on_c, 0, 64, 0
2, 227610, Note_on_c, 0, 65, 64
2, 227625, Note_on_c, 0, 65, 0
2, 227625, Note_on_c, 0, 66, 64
2, 227640, Note_on_c, 0, 66, 0
2, 227640, Note_on_c, 0, 67, 64
2, 227655, Note_on_c, 0, 67, 0
2, 227655, Note_on_c, 0, 68, 64
2, 227670, Note_on_c, 0, 68, 0
2, 227670, Note_on_c, 0, 69, 64
2, 227685, Note_on_c, 0, 69, 0
2, 227685, Note_on_c, 0, 70, 64
2, 227700, Note_on_c, 0, 70, 0
2, 227700, Note_on_c, 0, 71, 64
2, 227715, Note_on_c, 0, 71, 0
2, 227715, Note_on_c, 0, 72, 64
2, 227730, Note_on_c, 0, 72, 0
2, 227730, Note_on_c, 0, 73, 64
2, 227745, Note_on_c, 0, 73, 0
2, 227745, Note_on_c, 0, 74, 64
2, 227760, Note_on_c, 0, 74, 0
2, 227760, Note_on_c, 0, 75, 64
2, 227790, Note_on_c, 0, 75, 0
2, 227790, Note_on_c, 0, 76, 64
2, 227820, Note_on_c, 0, 76, 0
2, 227820, Note_on_c, 0, 77, 64
2, 227850, Note_on_c, 0, 77, 0
2, 227850, Note_on_c, 0, 78, 64
2, 227880, Note_on_c, 0, 78, 0
2, 227880, Note_on_c, 0, 77, 64
2, 227910, Note_on_c, 0, 77, 0
2, 227910, Note_on_c, 0, 80, 64
2, 227940, Note_on_c, 0, 80, 0
2, 227940, Note_on_c, 0, 78, 64
2, 227960, Note_on_c, 0, 78, 0
2, 227960, Note_on_c, 0, 77, 64
2, 227980, Note_on_c, 0, 77, 0
2, 227980, Note_on_c, 0, 75, 64
2, 228000, Note_on_c, 0, 75, 0
2, 228000, Note_on_c, 0, 75, 64
2, 228180, Note_on_c, 0, 75, 0
2, 228180, Note_on_c, 0, 74, 64
2, 228195, Note_on_c, 0, 74, 0
2, 228195, Note_on_c, 0, 75, 64
2, 228210, Note_on_c, 0, 75, 0
2, 228210, Note_on_c, 0, 77, 64
2, 228225, Note_on_c, 0, 77, 0
2, 228225, Note_on_c, 0, 75, 64
2, 228240, Note_on_c, 0, 75, 0
2, 228240, Note_on_c, 0, 74, 64
2, 228360, Note_on_c, 0, 74, 0
2, 228600, Note_on_c, 0, 74, 64
2, 228648, Note_on_c, 0, 74, 0
2, 228660, Note_on_c, 0, 75, 64
2, 228684, Note_on_c, 0, 75, 0
2, 228690, Note_on_c, 0, 77, 64
2, 228714, Note_on_c, 0, 77, 0
2, 228720, Note_on_c, 0, 75, 64
2, 228768, Note_on_c, 0, 75, 0
2, 228780, Note_on_c, 0, 77, 64
2, 228804, Note_on_c, 0, 77, 0
2, 228810, Note_on_c, 0, 74, 64
2, 228834, Note_on_c, 0, 74, 0
2, 228840, Note_on_c, 0, 72, 64
2, 228888, Note_on_c, 0, 72, 0
2, 228900, Note_on_c, 0, 74, 64
2, 228924, Note_on_c, 0, 74, 0
2, 228930, Note_on_c, 0, 70, 64
2, 228954, Note_on_c, 0, 70, 0
2, 228960, Note_on_c, 0, 75, 64
2, 228960, Note_on_c, 0, 87, 64
2, 229200, Note_on_c, 0, 87, 0
2, 229200, Note_on_c, 0, 75, 0
2, 229200, Note_on_c, 0, 74, 64
2, 229200, Note_on_c, 0, 86, 64
2, 229320, Note_on_c, 0, 86, 0
2, 229320, Note_on_c, 0, 74, 0
2, 229485, Note_on_c, 0, 74, 64
2, 229500, Note_on_c, 0, 86, 64
2, 229523, Note_on_c, 0, 86, 0
2, 229523, Note_on_c, 0, 74, 0
2, 229545, Note_on_c, 0, 75, 64
2, 229560, Note_on_c, 0, 87, 64
2, 229583, Note_on_c, 0, 87, 0
2, 229583, Note_on_c, 0, 75, 0
2, 229605, Note_on_c, 0, 77, 64
2, 229620, Note_on_c, 0, 89, 64
2, 229643, Note_on_c, 0, 89, 0
2, 229643, Note_on_c, 0, 77, 0
2, 229665, Note_on_c, 0, 75, 64
2, 229680, Note_on_c, 0, 87, 64
2, 229703, Note_on_c, 0, 87, 0
2, 229703, Note_on_c, 0, 75, 0
2, 229725, Note_on_c, 0, 74, 64
2, 229740, Note_on_c, 0, 86, 64
2, 229763, Note_on_c, 0, 86, 0
2, 229763, Note_on_c, 0, 74, 0
2, 229785, Note_on_c, 0, 72, 64
2, 229800, Note_on_c, 0, 84, 64
2, 229818, Note_on_c, 0, 72, 0
2, 229841, Note_on_c, 0, 84, 0
2, 229845, Note_on_c, 0, 70, 64
2, 229860, Note_on_c, 0, 82, 64
2, 229884, Note_on_c, 0, 70, 0
2, 229914, Note_on_c, 0, 82, 0
2, 229920, Note_on_c, 0, 87, 64
2, 229920, Note_on_c, 0, 75, 64
2, 229968, Note_on_c, 0, 75, 0
2, 229968, Note_on_c, 0, 87, 0
2, 229980, Note_on_c, 0, 86, 64
2, 229980, Note_on_c, 0, 74, 64
2, 229995, Note_on_c, 0, 74, 0
2, 229995, Note_on_c, 0, 86, 0
2, 230040, Note_on_c, 0, 75, 64
2, 230040, Note_on_c, 0, 87, 64
2, 230088, Note_on_c, 0, 87, 0
2, 230088, Note_on_c, 0, 75, 0
2, 230100, Note_on_c, 0, 74, 64
2, 230100, Note_on_c, 0, 86, 64
2, 230115, Note_on_c, 0, 86, 0
2, 230115, Note_on_c, 0, 74, 0
2, 230160, Note_on_c, 0, 75, 64
2, 230160, Note_on_c, 0, 87, 64
2, 230220, Note_on_c, 0, 87, 0
2, 230220, Note_on_c, 0, 75, 0
2, 230220, Note_on_c, 0, 73, 64
2, 230220, Note_on_c, 0, 85, 64
2, 230280, Note_on_c, 0, 85, 0
2, 230280, Note_on_c, 0, 73, 0
2, 230280, Note_on_c, 0, 72, 64
2, 230280, Note_on_c, 0, 84, 64
2, 230340, Note_on_c, 0, 84, 0
2, 230340, Note_on_c, 0, 72, 0
2, 230340, Note_on_c, 0, 71, 64
2, 230340, Note_on_c, 0, 83, 64
2, 230400, Note_on_c, 0, 83, 0
2, 230400, Note_on_c, 0, 71, 0
2, 230400, Note_on_c, 0, 72, 64
2, 230445, Note_on_c, 0, 72, 0
2, 230445, Note_on_c, 0, 84, 64
2, 230460, Note_on_c, 0, 84, 0
2, 230460, Note_on_c, 0, 70, 64
2, 230505, Note_on_c, 0, 70, 0
2, 230505, Note_on_c, 0, 82, 64
2, 230520, Note_on_c, 0, 82, 0
2, 230520, Note_on_c, 0, 68, 64
2, 230565, Note_on_c, 0, 68, 0
2, 230565, Note_on_c, 0, 80, 64
2, 230580, Note_on_c, 0, 80, 0
2, 230580, Note_on_c, 0, 67, 64
2, 230625, Note_on_c, 0, 67, 0
2, 230625, Note_on_c, 0, 79, 64
2, 230640, Note_on_c, 0, 79, 0
2, 230640, Note_on_c, 0, 65, 64
2, 230685, Note_on_c, 0, 65, 0
2, 230685, Note_on_c, 0, 77, 64
2, 230700, Note_on_c, 0, 77, 0
2, 230700, Note_on_c, 0, 63, 64
2, 230745, Note_on_c, 0, 63, 0
2, 230745, Note_on_c, 0, 75, 64
2, 230760, Note_on_c, 0, 75, 0
2, 230760, Note_on_c, 0, 62, 64
2, 230805, Note_on_c, 0, 62, 0
2, 230805, Note_on_c, 0, 74, 64
2, 230820, Note_on_c, 0, 74, 0
2, 230820, Note_on_c, 0, 60, 64
2, 230865, Note_on_c, 0, 60, 0
2, 230865, Note_on_c, 0, 72, 64
2, 230880, Note_on_c, 0, 72, 0
2, 230880, Note_on_c, 0, 70, 64
2, 231030, Note_on_c, 0, 70, 0
2, 231030, Note_on_c, 0, 72, 64
2, 231060, Note_on_c, 0, 72, 0
2, 231060, Note_on_c, 0, 70, 64
2, 231090, Note_on_c, 0, 70, 0
2, 231090, Note_on_c, 0, 69, 64
2, 231120, Note_on_c, 0, 69, 0
2, 231120, Note_on_c, 0, 70, 64
2, 231140, Note_on_c, 0, 70, 0
2, 231140, Note_on_c, 0, 71, 64
2, 231160, Note_on_c, 0, 71, 0
2, 231160, Note_on_c, 0, 72, 64
2, 231180, Note_on_c, 0, 72, 0
2, 231180, Note_on_c, 0, 73, 64
2, 231200, Note_on_c, 0, 73, 0
2, 231200, Note_on_c, 0, 74, 64
2, 231220, Note_on_c, 0, 74, 0
2, 231220, Note_on_c, 0, 75, 64
2, 231240, Note_on_c, 0, 75, 0
2, 231240, Note_on_c, 0, 76, 64
2, 231260, Note_on_c, 0, 76, 0
2, 231260, Note_on_c, 0, 77, 64
2, 231280, Note_on_c, 0, 77, 0
2, 231280, Note_on_c, 0, 78, 64
2, 231300, Note_on_c, 0, 78, 0
2, 231300, Note_on_c, 0, 79, 64
2, 231320, Note_on_c, 0, 79, 0
2, 231320, Note_on_c, 0, 80, 64
2, 231340, Note_on_c, 0, 80, 0
2, 231340, Note_on_c, 0, 81, 64
2, 231360, Note_on_c, 0, 81, 0
2, 231360, Note_on_c, 0, 82, 64
2, 231390, Note_on_c, 0, 82, 0
2, 231390, Note_on_c, 0, 79, 64
2, 231420, Note_on_c, 0, 79, 0
2, 231420, Note_on_c, 0, 80, 64
2, 231450, Note_on_c, 0, 80, 0
2, 231450, Note_on_c, 0, 77, 64
2, 231480, Note_on_c, 0, 77, 0
2, 231480, Note_on_c, 0, 77, 64
2, 231510, Note_on_c, 0, 77, 0
2, 231510, Note_on_c, 0, 79, 64
2, 231520, Note_on_c, 0, 79, 0
2, 231520, Note_on_c, 0, 77, 64
2, 231530, Note_on_c, 0, 77, 0
2, 231530, Note_on_c, 0, 76, 64
2, 231540, Note_on_c, 0, 76, 0
2, 231540, Note_on_c, 0, 77, 64
2, 231570, Note_on_c, 0, 77, 0
2, 231570, Note_on_c, 0, 79, 64
2, 231600, Note_on_c, 0, 79, 0
2, 231600, Note_on_c, 0, 80, 64
2, 231720, Note_on_c, 0, 80, 0
2, 231780, Note_on_c, 0, 74, 64
2, 231840, Note_on_c, 0, 74, 0
2, 231840, Note_on_c, 0, 74, 64
2, 232320, Note_on_c, 0, 74, 0
2, 232320, Note_on_c, 0, 75, 64
2, 232440, Note_on_c, 0, 75, 0
2, 232440, Note_on_c, 0, 74, 64
2, 232500, Note_on_c, 0, 74, 0
2, 232500, Note_on_c, 0, 75, 64
2, 232560, Note_on_c, 0, 75, 0
2, 232560, Note_on_c, 0, 77, 64
2, 232620, Note_on_c, 0, 77, 0
2, 232620, Note_on_c, 0, 75, 64
2, 232680, Note_on_c, 0, 75, 0
2, 232680, Note_on_c, 0, 74, 64
2, 232740, Note_on_c, 0, 74, 0
2, 232740, Note_on_c, 0, 72, 64
2, 232800, Note_on_c, 0, 72, 0
2, 232800, Note_on_c, 0, 70, 72
2, 232992, Note_on_c, 0, 70, 0
2, 233040, Note_on_c, 0, 67, 64
2, 233136, Note_on_c, 0, 67, 0
2, 233280, Note_on_c, 0, 67, 64
2, 233376, Note_on_c, 0, 67, 0
2, 233520, Note_on_c, 0, 67, 72
2, 233904, Note_on_c, 0, 67, 0
2, 234000, Note_on_c, 0, 63, 64
2, 234240, Note_on_c, 0, 63, 0
2, 234240, Note_on_c, 0, 65, 72
2, 234432, Note_on_c, 0, 65, 0
2, 234480, Note_on_c, 0, 65, 64
2, 234576, Note_on_c, 0, 65, 0
2, 234720, Note_on_c, 0, 67, 64
2, 234816, Note_on_c, 0, 67, 0
2, 234960, Note_on_c, 0, 70, 72
2, 235152, Note_on_c, 0, 70, 0
2, 235200, Note_on_c, 0, 68, 64
2, 235296, Note_on_c, 0, 68, 0
2, 235440, Note_on_c, 0, 67, 64
2, 235536, Note_on_c, 0, 67, 0
2, 235680, Note_on_c, 0, 75, 72
2, 236064, Note_on_c, 0, 75, 0
2, 236160, Note_on_c, 0, 77, 64
2, 236208, Note_on_c, 0, 77, 0
2, 236280, Note_on_c, 0, 74, 64
2, 236328, Note_on_c, 0, 74, 0
2, 236400, Note_on_c, 0, 75, 72
2, 236784, Note_on_c, 0, 75, 0
2, 236880, Note_on_c, 0, 77, 64
2, 236928, Note_on_c, 0, 77, 0
2, 237000, Note_on_c, 0, 74, 64
2, 237048, Note_on_c, 0, 74, 0
2, 237120, Note_on_c, 0, 75, 72
2, 237240, Note_on_c, 0, 75, 0
2, 237240, Note_on_c, 0, 70, 64
2, 237288, Note_on_c, 0, 70, 0
2, 237360, Note_on_c, 0, 68, 64
2, 237456, Note_on_c, 0, 68, 0
2, 237600, Note_on_c, 0, 67, 64
2, 237696, Note_on_c, 0, 67, 0
2, 237840, Note_on_c, 0, 67, 72
2, 238224, Note_on_c, 0, 67, 0
2, 238320, Note_on_c, 0, 65, 64
2, 238512, Note_on_c, 0, 65, 0
2, 238560, Note_on_c, 0, 70, 72
2, 238752, Note_on_c, 0, 70, 0
2, 238800, Note_on_c, 0, 67, 64
2, 238896, Note_on_c, 0, 67, 0
2, 239040, Note_on_c, 0, 67, 64
2, 239136, Note_on_c, 0, 67, 0
2, 239280, Note_on_c, 0, 67, 72
2, 239664, Note_on_c, 0, 67, 0
2, 239760, Note_on_c, 0, 63, 64
2, 240000, Note_on_c, 0, 63, 0
2, 240000, Note_on_c, 0, 65, 72
2, 240192, Note_on_c, 0, 65, 0
2, 240240, Note_on_c, 0, 65, 64
2, 240336, Note_on_c, 0, 65, 0
2, 240480, Note_on_c, 0, 67, 64
2, 240576, Note_on_c, 0, 67, 0
2, 240720, Note_on_c, 0, 70, 72
2, 240912, Note_on_c, 0, 70, 0
2, 240960, Note_on_c, 0, 68, 64
2, 241056, Note_on_c, 0, 68, 0
2, 241200, Note_on_c, 0, 67, 64
2, 241296, Note_on_c, 0, 67, 0
2, 241440, Note_on_c, 0, 75, 72
2, 241824, Note_on_c, 0, 75, 0
2, 241920, Note_on_c, 0, 77, 64
2, 241968, Note_on_c, 0, 77, 0
2, 242040, Note_on_c, 0, 74, 64
2, 242088, Note_on_c, 0, 74, 0
2, 242160, Note_on_c, 0, 75, 72
2, 242544, Note_on_c, 0, 75, 0
2, 242640, Note_on_c, 0, 77, 64
2, 242688, Note_on_c, 0, 77, 0
2, 242760, Note_on_c, 0, 74, 64
2, 242808, Note_on_c, 0, 74, 0
2, 242880, Note_on_c, 0, 75, 72
2, 243000, Note_on_c, 0, 75, 0
2, 243000, Note_on_c, 0, 70, 64
2, 243048, Note_on_c, 0, 70, 0
2, 243120, Note_on_c, 0, 68, 64
2, 243216, Note_on_c, 0, 68, 0
2, 243360, Note_on_c, 0, 67, 64
2, 243456, Note_on_c, 0, 67, 0
2, 243600, Note_on_c, 0, 67, 72
2, 243984, Note_on_c, 0, 67, 0
2, 244080, Note_on_c, 0, 65, 64
2, 244272, Note_on_c, 0, 65, 0
2, 244320, Note_on_c, 0, 65, 64
2, 244416, Note_on_c, 0, 65, 0
2, 244560, Note_on_c, 0, 65, 72
2, 244848, Note_on_c, 0, 65, 0
2, 244920, Note_on_c, 0, 68, 64
2, 244968, Note_on_c, 0, 68, 0
2, 245040, Note_on_c, 0, 68, 72
2, 245160, Note_on_c, 0, 68, 0
2, 245160, Note_on_c, 0, 67, 64
2, 245208, Note_on_c, 0, 67, 0
2, 245280, Note_on_c, 0, 67, 64
2, 245376, Note_on_c, 0, 67, 0
2, 245640, Note_on_c, 0, 70, 64
2, 245688, Note_on_c, 0, 70, 0
2, 245760, Note_on_c, 0, 70, 72
2, 245880, Note_on_c, 0, 70, 0
2, 245880, Note_on_c, 0, 65, 64
2, 245928, Note_on_c, 0, 65, 0
2, 246000, Note_on_c, 0, 65, 64
2, 246288, Note_on_c, 0, 65, 0
2, 246360, Note_on_c, 0, 68, 64
2, 246408, Note_on_c, 0, 68, 0
2, 246480, Note_on_c, 0, 68, 72
2, 246600, Note_on_c, 0, 68, 0
2, 246600, Note_on_c, 0, 67, 64
2, 246648, Note_on_c, 0, 67, 0
2, 246720, Note_on_c, 0, 67, 64
2, 246816, Note_on_c, 0, 67, 0
2, 247080, Note_on_c, 0, 70, 64
2, 247128, Note_on_c, 0, 70, 0
2, 247200, Note_on_c, 0, 75, 72
2, 247320, Note_on_c, 0, 75, 0
2, 247320, Note_on_c, 0, 74, 64
2, 247368, Note_on_c, 0, 74, 0
2, 247440, Note_on_c, 0, 74, 64
2, 247536, Note_on_c, 0, 74, 0
2, 247680, Note_on_c, 0, 72, 64
2, 247728, Note_on_c, 0, 72, 0
2, 247800, Note_on_c, 0, 70, 64
2, 247848, Note_on_c, 0, 70, 0
2, 247920, Note_on_c, 0, 75, 72
2, 248040, Note_on_c, 0, 75, 0
2, 248040, Note_on_c, 0, 74, 64
2, 248088, Note_on_c, 0, 74, 0
2, 248160, Note_on_c, 0, 74, 64
2, 248256, Note_on_c, 0, 74, 0
2, 248640, Note_on_c, 0, 75, 72
2, 248736, Note_on_c, 0, 75, 0
2, 248760, Note_on_c, 0, 74, 64
2, 248856, Note_on_c, 0, 74, 0
2, 248880, Note_on_c, 0, 75, 64
2, 248928, Note_on_c, 0, 75, 0
2, 249000, Note_on_c, 0, 70, 64
2, 249048, Note_on_c, 0, 70, 0
2, 249120, Note_on_c, 0, 72, 64
2, 249216, Note_on_c, 0, 72, 0
2, 249240, Note_on_c, 0, 68, 64
2, 249336, Note_on_c, 0, 68, 0
2, 249360, Note_on_c, 0, 67, 72
2, 249456, Note_on_c, 0, 67, 0
2, 249480, Note_on_c, 0, 70, 64
2, 249576, Note_on_c, 0, 70, 0
2, 249600, Note_on_c, 0, 63, 64
2, 249648, Note_on_c, 0, 63, 0
2, 249720, Note_on_c, 0, 67, 64
2, 249768, Note_on_c, 0, 67, 0
2, 249840, Note_on_c, 0, 65, 64
2, 249936, Note_on_c, 0, 65, 0
2, 249960, Note_on_c, 0, 62, 64
2, 250056, Note_on_c, 0, 62, 0
2, 250080, Note_on_c, 0, 63, 72
2, 250176, Note_on_c, 0, 63, 0
2, 250200, Note_on_c, 0, 67, 64
2, 250248, Note_on_c, 0, 67, 0
2, 250320, Note_on_c, 0, 70, 64
2, 250368, Note_on_c, 0, 70, 0
2, 250440, Note_on_c, 0, 67, 64
2, 250488, Note_on_c, 0, 67, 0
2, 250560, Note_on_c, 0, 70, 64
2, 250608, Note_on_c, 0, 70, 0
2, 250680, Note_on_c, 0, 75, 64
2, 250728, Note_on_c, 0, 75, 0
2, 250800, Note_on_c, 0, 75, 72
2, 250920, Note_on_c, 0, 75, 0
2, 250920, Note_on_c, 0, 74, 64
2, 250968, Note_on_c, 0, 74, 0
2, 251040, Note_on_c, 0, 74, 64
2, 251136, Note_on_c, 0, 74, 0
2, 251280, Note_on_c, 0, 72, 64
2, 251328, Note_on_c, 0, 72, 0
2, 251400, Note_on_c, 0, 70, 64
2, 251448, Note_on_c, 0, 70, 0
2, 251520, Note_on_c, 0, 75, 72
2, 251640, Note_on_c, 0, 75, 0
2, 251640, Note_on_c, 0, 74, 64
2, 251688, Note_on_c, 0, 74, 0
2, 251760, Note_on_c, 0, 74, 64
2, 251856, Note_on_c, 0, 74, 0
2, 252240, Note_on_c, 0, 75, 64
2, 252336, Note_on_c, 0, 75, 0
2, 252360, Note_on_c, 0, 74, 56
2, 252456, Note_on_c, 0, 74, 0
2, 252480, Note_on_c, 0, 75, 56
2, 252528, Note_on_c, 0, 75, 0
2, 252600, Note_on_c, 0, 70, 56
2, 252648, Note_on_c, 0, 70, 0
2, 252720, Note_on_c, 0, 72, 56
2, 252816, Note_on_c, 0, 72, 0
2, 252840, Note_on_c, 0, 68, 56
2, 252936, Note_on_c, 0, 68, 0
2, 252960, Note_on_c, 0, 67, 64
2, 253056, Note_on_c, 0, 67, 0
2, 253080, Note_on_c, 0, 70, 56
2, 253176, Note_on_c, 0, 70, 0
2, 253200, Note_on_c, 0, 63, 56
2, 253248, Note_on_c, 0, 63, 0
2, 253320, Note_on_c, 0, 67, 56
2, 253368, Note_on_c, 0, 67, 0
2, 253440, Note_on_c, 0, 65, 56
2, 253536, Note_on_c, 0, 65, 0
2, 253560, Note_on_c, 0, 62, 56
2, 253656, Note_on_c, 0, 62, 0
2, 253680, Note_on_c, 0, 63, 64
2, 253776, Note_on_c, 0, 63, 0
2, 253800, Note_on_c, 0, 62, 56
2, 253848, Note_on_c, 0, 62, 0
2, 253920, Note_on_c, 0, 63, 56
2, 253968, Note_on_c, 0, 63, 0
2, 254040, Note_on_c, 0, 65, 56
2, 254088, Note_on_c, 0, 65, 0
2, 254160, Note_on_c, 0, 67, 56
2, 254208, Note_on_c, 0, 67, 0
2, 254280, Note_on_c, 0, 68, 56
2, 254328, Note_on_c, 0, 68, 0
2, 254400, Note_on_c, 0, 70, 80
2, 254592, Note_on_c, 0, 70, 0
2, 254640, Note_on_c, 0, 65, 72
2, 254928, Note_on_c, 0, 65, 0
2, 255000, Note_on_c, 0, 68, 64
2, 255048, Note_on_c, 0, 68, 0
2, 255120, Note_on_c, 0, 68, 72
2, 255240, Note_on_c, 0, 68, 0
2, 255240, Note_on_c, 0, 67, 64
2, 255288, Note_on_c, 0, 67, 0
2, 255360, Note_on_c, 0, 67, 64
2, 255456, Note_on_c, 0, 67, 0
2, 255720, Note_on_c, 0, 82, 64
2, 255768, Note_on_c, 0, 82, 0
2, 255840, Note_on_c, 0, 82, 72
2, 255960, Note_on_c, 0, 82, 0
2, 255960, Note_on_c, 0, 77, 64
2, 256008, Note_on_c, 0, 77, 0
2, 256080, Note_on_c, 0, 77, 64
2, 256368, Note_on_c, 0, 77, 0
2, 256440, Note_on_c, 0, 80, 64
2, 256488, Note_on_c, 0, 80, 0
2, 256560, Note_on_c, 0, 80, 72
2, 256680, Note_on_c, 0, 80, 0
2, 256680, Note_on_c, 0, 79, 64
2, 256728, Note_on_c, 0, 79, 0
2, 256800, Note_on_c, 0, 79, 64
2, 256896, Note_on_c, 0, 79, 0
2, 257160, Note_on_c, 0, 70, 64
2, 257208, Note_on_c, 0, 70, 0
2, 257280, Note_on_c, 0, 75, 72
2, 257400, Note_on_c, 0, 75, 0
2, 257400, Note_on_c, 0, 74, 64
2, 257448, Note_on_c, 0, 74, 0
2, 257520, Note_on_c, 0, 74, 64
2, 257616, Note_on_c, 0, 74, 0
2, 257760, Note_on_c, 0, 72, 64
2, 257808, Note_on_c, 0, 72, 0
2, 257880, Note_on_c, 0, 70, 64
2, 257928, Note_on_c, 0, 70, 0
2, 258000, Note_on_c, 0, 75, 72
2, 258120, Note_on_c, 0, 75, 0
2, 258120, Note_on_c, 0, 74, 64
2, 258168, Note_on_c, 0, 74, 0
2, 258240, Note_on_c, 0, 74, 64
2, 258336, Note_on_c, 0, 74, 0
2, 258720, Note_on_c, 0, 75, 56
2, 258816, Note_on_c, 0, 75, 0
2, 258840, Note_on_c, 0, 74, 56
2, 258936, Note_on_c, 0, 74, 0
2, 258960, Note_on_c, 0, 75, 56
2, 259008, Note_on_c, 0, 75, 0
2, 259080, Note_on_c, 0, 70, 56
2, 259128, Note_on_c, 0, 70, 0
2, 259200, Note_on_c, 0, 72, 56
2, 259296, Note_on_c, 0, 72, 0
2, 259320, Note_on_c, 0, 68, 56
2, 259416, Note_on_c, 0, 68, 0
2, 259440, Note_on_c, 0, 67, 64
2, 259536, Note_on_c, 0, 67, 0
2, 259560, Note_on_c, 0, 70, 56
2, 259656, Note_on_c, 0, 70, 0
2, 259680, Note_on_c, 0, 63, 56
2, 259728, Note_on_c, 0, 63, 0
2, 259800, Note_on_c, 0, 67, 56
2, 259848, Note_on_c, 0, 67, 0
2, 259920, Note_on_c, 0, 65, 56
2, 260016, Note_on_c, 0, 65, 0
2, 260040, Note_on_c, 0, 62, 56
2, 260136, Note_on_c, 0, 62, 0
2, 260160, Note_on_c, 0, 63, 64
2, 260256, Note_on_c, 0, 63, 0
2, 260280, Note_on_c, 0, 67, 56
2, 260328, Note_on_c, 0, 67, 0
2, 260400, Note_on_c, 0, 70, 56
2, 260448, Note_on_c, 0, 70, 0
2, 260520, Note_on_c, 0, 75, 56
2, 260568, Note_on_c, 0, 75, 0
2, 260640, Note_on_c, 0, 79, 56
2, 260688, Note_on_c, 0, 79, 0
2, 260760, Note_on_c, 0, 82, 56
2, 260808, Note_on_c, 0, 82, 0
2, 260880, Note_on_c, 0, 75, 80
2, 260880, Note_on_c, 0, 87, 80
2, 261000, Note_on_c, 0, 87, 0
2, 261000, Note_on_c, 0, 75, 0
2, 261000, Note_on_c, 0, 74, 72
2, 261000, Note_on_c, 0, 86, 72
2, 261048, Note_on_c, 0, 86, 0
2, 261048, Note_on_c, 0, 74, 0
2, 261120, Note_on_c, 0, 74, 72
2, 261120, Note_on_c, 0, 86, 72
2, 261216, Note_on_c, 0, 86, 0
2, 261216, Note_on_c, 0, 74, 0
2, 261360, Note_on_c, 0, 72, 72
2, 261360, Note_on_c, 0, 84, 72
2, 261408, Note_on_c, 0, 84, 0
2, 261408, Note_on_c, 0, 72, 0
2, 261480, Note_on_c, 0, 70, 72
2, 261480, Note_on_c, 0, 82, 72
2, 261528, Note_on_c, 0, 82, 0
2, 261528, Note_on_c, 0, 70, 0
2, 261600, Note_on_c, 0, 87, 80
2, 261600, Note_on_c, 0, 75, 80
2, 261720, Note_on_c, 0, 75, 0
2, 261720, Note_on_c, 0, 87, 0
2, 261720, Note_on_c, 0, 86, 72
2, 261720, Note_on_c, 0, 74, 72
2, 261768, Note_on_c, 0, 74, 0
2, 261768, Note_on_c, 0, 86, 0
2, 261840, Note_on_c, 0, 86, 72
2, 261840, Note_on_c, 0, 74, 72
2, 261936, Note_on_c, 0, 74, 0
2, 261936, Note_on_c, 0, 86, 0
2, 262320, Note_on_c, 0, 75, 48
2, 262320, Note_on_c, 0, 87, 48
2, 262416, Note_on_c, 0, 87, 0
2, 262416, Note_on_c, 0, 75, 0
2, 262440, Note_on_c, 0, 73, 48
2, 262440, Note_on_c, 0, 85, 48
2, 262536, Note_on_c, 0, 85, 0
2, 262536, Note_on_c, 0, 73, 0
2, 262560, Note_on_c, 0, 85, 48
2, 262560, Note_on_c, 0, 73, 48
2, 262752, Note_on_c, 0, 73, 0
2, 262752, Note_on_c, 0, 85, 0
2, 262800, Note_on_c, 0, 72, 48
2, 262800, Note_on_c, 0, 84, 48
2, 262896, Note_on_c, 0, 84, 0
2, 262896, Note_on_c, 0, 72, 0
2, 262920, Note_on_c, 0, 70, 48
2, 262920, Note_on_c, 0, 82, 48
2, 263016, Note_on_c, 0, 82, 0
2, 263016, Note_on_c, 0, 70, 0
2, 263040, Note_on_c, 0, 87, 48
2, 263040, Note_on_c, 0, 75, 48
2, 263136, Note_on_c, 0, 75, 0
2, 263136, Note_on_c, 0, 87, 0
2, 263160, Note_on_c, 0, 85, 48
2, 263160, Note_on_c, 0, 73, 48
2, 263256, Note_on_c, 0, 73, 0
2, 263256, Note_on_c, 0, 85, 0
2, 263280, Note_on_c, 0, 73, 48
2, 263280, Note_on_c, 0, 85, 48
2, 263472, Note_on_c, 0, 85, 0
2, 263472, Note_on_c, 0, 73, 0
2, 263760, Note_on_c, 0, 84, 80
2, 263856, Note_on_c, 0, 84, 0
2, 263880, Note_on_c, 0, 86, 80
2, 263976, Note_on_c, 0, 86, 0
2, 264000, Note_on_c, 0, 87, 80
2, 264096, Note_on_c, 0, 87, 0
2, 264120, Note_on_c, 0, 79, 80
2, 264168, Note_on_c, 0, 79, 0
2, 264180, Note_on_c, 0, 80, 80
2, 264204, Note_on_c, 0, 80, 0
2, 264210, Note_on_c, 0, 82, 80
2, 264234, Note_on_c, 0, 82, 0
2, 264240, Note_on_c, 0, 80, 80
2, 264336, Note_on_c, 0, 80, 0
2, 264360, Note_on_c, 0, 82, 80
2, 264456, Note_on_c, 0, 82, 0
2, 264480, Note_on_c, 0, 84, 80
2, 264576, Note_on_c, 0, 84, 0
2, 264600, Note_on_c, 0, 76, 80
2, 264657, Note_on_c, 0, 76, 0
2, 264660, Note_on_c, 0, 77, 80
2, 264684, Note_on_c, 0, 77, 0
2, 264690, Note_on_c, 0, 79, 80
2, 264714, Note_on_c, 0, 79, 0
2, 264720, Note_on_c, 0, 77, 80
2, 264816, Note_on_c, 0, 77, 0
2, 264840, Note_on_c, 0, 79, 80
2, 264936, Note_on_c, 0, 79, 0
2, 264960, Note_on_c, 0, 80, 80
2, 265056, Note_on_c, 0, 80, 0
2, 265080, Note_on_c, 0, 71, 80
2, 265128, Note_on_c, 0, 71, 0
2, 265140, Note_on_c, 0, 72, 80
2, 265164, Note_on_c, 0, 72, 0
2, 265170, Note_on_c, 0, 74, 80
2, 265194, Note_on_c, 0, 74, 0
2, 265200, Note_on_c, 0, 72, 80
2, 265296, Note_on_c, 0, 72, 0
2, 265320, Note_on_c, 0, 74, 80
2, 265416, Note_on_c, 0, 74, 0
2, 265440, Note_on_c, 0, 75, 80
2, 265536, Note_on_c, 0, 75, 0
2, 265560, Note_on_c, 0, 67, 80
2, 265608, Note_on_c, 0, 67, 0
2, 265620, Note_on_c, 0, 68, 80
2, 265644, Note_on_c, 0, 68, 0
2, 265650, Note_on_c, 0, 70, 80
2, 265674, Note_on_c, 0, 70, 0
2, 265680, Note_on_c, 0, 68, 80
2, 265776, Note_on_c, 0, 68, 0
2, 265800, Note_on_c, 0, 70, 80
2, 265896, Note_on_c, 0, 70, 0
2, 265920, Note_on_c, 0, 72, 80
2, 266016, Note_on_c, 0, 72, 0
2, 266040, Note_on_c, 0, 64, 80
2, 266088, Note_on_c, 0, 64, 0
2, 266100, Note_on_c, 0, 65, 80
2, 266124, Note_on_c, 0, 65, 0
2, 266130, Note_on_c, 0, 67, 80
2, 266154, Note_on_c, 0, 67, 0
2, 266160, Note_on_c, 0, 65, 80
2, 266256, Note_on_c, 0, 65, 0
2, 266280, Note_on_c, 0, 67, 80
2, 266376, Note_on_c, 0, 67, 0
2, 266400, Note_on_c, 0, 68, 80
2, 266496, Note_on_c, 0, 68, 0
2, 266520, Note_on_c, 0, 59, 80
2, 266568, Note_on_c, 0, 59, 0
2, 266640, Note_on_c, 0, 58, 80
2, 266736, Note_on_c, 0, 58, 0
2, 266880, Note_on_c, 0, 57, 80
2, 267264, Note_on_c, 0, 57, 0
2, 267360, Note_on_c, 0, 57, 80
2, 267408, Note_on_c, 0, 57, 0
2, 267420, Note_on_c, 0, 60, 80
2, 267468, Note_on_c, 0, 60, 0
2, 267480, Note_on_c, 0, 63, 80
2, 267528, Note_on_c, 0, 63, 0
2, 267540, Note_on_c, 0, 66, 80
2, 267588, Note_on_c, 0, 66, 0
2, 267600, Note_on_c, 0, 69, 80
2, 267648, Note_on_c, 0, 69, 0
2, 267660, Note_on_c, 0, 72, 80
2, 267708, Note_on_c, 0, 72, 0
2, 267720, Note_on_c, 0, 75, 80
2, 267768, Note_on_c, 0, 75, 0
2, 267780, Note_on_c, 0, 78, 80
2, 267828, Note_on_c, 0, 78, 0
2, 267840, Note_on_c, 0, 81, 80
2, 267888, Note_on_c, 0, 81, 0
2, 267900, Note_on_c, 0, 84, 80
2, 267948, Note_on_c, 0, 84, 0
2, 267960, Note_on_c, 0, 87, 80
2, 268008, Note_on_c, 0, 87, 0
2, 268020, Note_on_c, 0, 84, 80
2, 268068, Note_on_c, 0, 84, 0
2, 268080, Note_on_c, 0, 81, 80
2, 268128, Note_on_c, 0, 81, 0
2, 268140, Note_on_c, 0, 78, 80
2, 268188, Note_on_c, 0, 78, 0
2, 268200, Note_on_c, 0, 75, 80
2, 268248, Note_on_c, 0, 75, 0
2, 268260, Note_on_c, 0, 72, 80
2, 268308, Note_on_c, 0, 72, 0
2, 268320, Note_on_c, 0, 69, 80
2, 268368, Note_on_c, 0, 69, 0
2, 268380, Note_on_c, 0, 66, 80
2, 268428, Note_on_c, 0, 66, 0
2, 268440, Note_on_c, 0, 63, 80
2, 268488, Note_on_c, 0, 63, 0
2, 268500, Note_on_c, 0, 60, 80
2, 268548, Note_on_c, 0, 60, 0
2, 270600, Note_on_c, 0, 70, 80
2, 270768, Note_on_c, 0, 70, 0
2, 270780, Note_on_c, 0, 72, 80
2, 270828, Note_on_c, 0, 72, 0
2, 270840, Note_on_c, 0, 70, 80
2, 270888, Note_on_c, 0, 70, 0
2, 270900, Note_on_c, 0, 69, 80
2, 270948, Note_on_c, 0, 69, 0
2, 270960, Note_on_c, 0, 70, 80
2, 270984, Note_on_c, 0, 70, 0
2, 270990, Note_on_c, 0, 72, 80
2, 271014, Note_on_c, 0, 72, 0
2, 271020, Note_on_c, 0, 74, 80
2, 271044, Note_on_c, 0, 74, 0
2, 271050, Note_on_c, 0, 75, 80
2, 271074, Note_on_c, 0, 75, 0
2, 271080, Note_on_c, 0, 77, 80
2, 271104, Note_on_c, 0, 77, 0
2, 271110, Note_on_c, 0, 79, 80
2, 271134, Note_on_c, 0, 79, 0
2, 271140, Note_on_c, 0, 80, 80
2, 271164, Note_on_c, 0, 80, 0
2, 271170, Note_on_c, 0, 82, 80
2, 271194, Note_on_c, 0, 82, 0
2, 271200, Note_on_c, 0, 84, 80
2, 271224, Note_on_c, 0, 84, 0
2, 271230, Note_on_c, 0, 86, 80
2, 271254, Note_on_c, 0, 86, 0
2, 271260, Note_on_c, 0, 87, 80
2, 271284, Note_on_c, 0, 87, 0
2, 271290, Note_on_c, 0, 86, 80
2, 271314, Note_on_c, 0, 86, 0
2, 271320, Note_on_c, 0, 84, 80
2, 271344, Note_on_c, 0, 84, 0
2, 271350, Note_on_c, 0, 82, 80
2, 271374, Note_on_c, 0, 82, 0
2, 271380, Note_on_c, 0, 80, 80
2, 271404, Note_on_c, 0, 80, 0
2, 271410, Note_on_c, 0, 79, 80
2, 271434, Note_on_c, 0, 79, 0
2, 271440, Note_on_c, 0, 77, 80
2, 271464, Note_on_c, 0, 77, 0
2, 271470, Note_on_c, 0, 75, 80
2, 271494, Note_on_c, 0, 75, 0
2, 271500, Note_on_c, 0, 74, 80
2, 271524, Note_on_c, 0, 74, 0
2, 271530, Note_on_c, 0, 72, 80
2, 271554, Note_on_c, 0, 72, 0
2, 271560, Note_on_c, 0, 70, 80
2, 271584, Note_on_c, 0, 70, 0
2, 271590, Note_on_c, 0, 68, 80
2, 271614, Note_on_c, 0, 68, 0
2, 271620, Note_on_c, 0, 67, 80
2, 271644, Note_on_c, 0, 67, 0
2, 271650, Note_on_c, 0, 65, 80
2, 271674, Note_on_c, 0, 65, 0
2, 274020, Note_on_c, 0, 62, 56
2, 274068, Note_on_c, 0, 62, 0
2, 274080, Note_on_c, 0, 62, 48
2, 275040, Note_on_c, 0, 62, 0
2, 275040, Note_on_c, 0, 63, 32
2, 275490, Note_on_c, 0, 63, 0
2, 275490, End_track
3, 0, Start_track
3, 0, MIDI_port, 0
3, 0, Title_t, "by W. A. Mozart  K. 354/299a"
3, 0, Program_c, 1, 0
3, 0, Control_c, 1, 7, 118
3, 0, Control_c, 1, 10, 72
3, 720, Note_on_c, 1, 63, 72
3, 780, Note_on_c, 1, 63, 0
3, 840, Note_on_c, 1, 63, 72
3, 900, Note_on_c, 1, 63, 0
3, 960, Note_on_c, 1, 63, 72
3, 1248, Note_on_c, 1, 63, 0
3, 1320, Note_on_c, 1, 58, 72
3, 1440, Note_on_c, 1, 58, 0
3, 1440, Note_on_c, 1, 62, 72
3, 1464, Note_on_c, 1, 62, 0
3, 1560, Note_on_c, 1, 62, 72
3, 1584, Note_on_c, 1, 62, 0
3, 1680, Note_on_c, 1, 62, 72
3, 1800, Note_on_c, 1, 62, 0
3, 1800, Note_on_c, 1, 63, 72
3, 1920, Note_on_c, 1, 63, 0
3, 1920, Note_on_c, 1, 65, 72
3, 2160, Note_on_c, 1, 65, 0
3, 2160, Note_on_c, 1, 63, 72
3, 2280, Note_on_c, 1, 63, 0
3, 2400, Note_on_c, 1, 58, 72
3, 2520, Note_on_c, 1, 58, 0
3, 2520, Note_on_c, 1, 58, 72
3, 2640, Note_on_c, 1, 58, 0
3, 2640, Note_on_c, 1, 58, 72
3, 2664, Note_on_c, 1, 58, 0
3, 2760, Note_on_c, 1, 58, 56
3, 2880, Note_on_c, 1, 58, 0
3, 2880, Note_on_c, 1, 58, 56
3, 3000, Note_on_c, 1, 58, 0
3, 3000, Note_on_c, 1, 58, 56
3, 3120, Note_on_c, 1, 58, 0
3, 3120, Note_on_c, 1, 58, 56
3, 3144, Note_on_c, 1, 58, 0
3, 3240, Note_on_c, 1, 58, 72
3, 3360, Note_on_c, 1, 58, 0
3, 3360, Note_on_c, 1, 58, 72
3, 3456, Note_on_c, 1, 58, 0
3, 3480, Note_on_c, 1, 67, 72
3, 3600, Note_on_c, 1, 67, 0
3, 3600, Note_on_c, 1, 65, 72
3, 3720, Note_on_c, 1, 65, 0
3, 3720, Note_on_c, 1, 63, 72
3, 3840, Note_on_c, 1, 63, 0
3, 3840, Note_on_c, 1, 63, 72
3, 4080, Note_on_c, 1, 63, 0
3, 4080, Note_on_c, 1, 62, 64
3, 4176, Note_on_c, 1, 62, 0
3, 4560, Note_on_c, 1, 63, 72
3, 4608, Note_on_c, 1, 63, 0
3, 4680, Note_on_c, 1, 63, 72
3, 4728, Note_on_c, 1, 63, 0
3, 4800, Note_on_c, 1, 63, 72
3, 5088, Note_on_c, 1, 63, 0
3, 5160, Note_on_c, 1, 58, 64
3, 5256, Note_on_c, 1, 58, 0
3, 5280, Note_on_c, 1, 62, 72
3, 5304, Note_on_c, 1, 62, 0
3, 5400, Note_on_c, 1, 62, 72
3, 5424, Note_on_c, 1, 62, 0
3, 5520, Note_on_c, 1, 62, 72
3, 5640, Note_on_c, 1, 62, 0
3, 5640, Note_on_c, 1, 63, 72
3, 5760, Note_on_c, 1, 63, 0
3, 5760, Note_on_c, 1, 65, 72
3, 6000, Note_on_c, 1, 65, 0
3, 6000, Note_on_c, 1, 63, 72
3, 6120, Note_on_c, 1, 63, 0
3, 6240, Note_on_c, 1, 58, 72
3, 6360, Note_on_c, 1, 58, 0
3, 6360, Note_on_c, 1, 58, 72
3, 6480, Note_on_c, 1, 58, 0
3, 6480, Note_on_c, 1, 58, 72
3, 6504, Note_on_c, 1, 58, 0
3, 6600, Note_on_c, 1, 58, 56
3, 6720, Note_on_c, 1, 58, 0
3, 6720, Note_on_c, 1, 58, 56
3, 6840, Note_on_c, 1, 58, 0
3, 6840, Note_on_c, 1, 58, 56
3, 6960, Note_on_c, 1, 58, 0
3, 6960, Note_on_c, 1, 58, 56
3, 6984, Note_on_c, 1, 58, 0
3, 7080, Note_on_c, 1, 58, 72
3, 7200, Note_on_c, 1, 58, 0
3, 7200, Note_on_c, 1, 58, 72
3, 7296, Note_on_c, 1, 58, 0
3, 7320, Note_on_c, 1, 67, 72
3, 7440, Note_on_c, 1, 67, 0
3, 7440, Note_on_c, 1, 65, 72
3, 7560, Note_on_c, 1, 65, 0
3, 7560, Note_on_c, 1, 63, 72
3, 7680, Note_on_c, 1, 63, 0
3, 7680, Note_on_c, 1, 63, 72
3, 7920, Note_on_c, 1, 63, 0
3, 7920, Note_on_c, 1, 62, 64
3, 8016, Note_on_c, 1, 62, 0
3, 8160, Note_on_c, 1, 62, 80
3, 8352, Note_on_c, 1, 62, 0
3, 8640, Note_on_c, 1, 65, 80
3, 8880, Note_on_c, 1, 65, 0
3, 8880, Note_on_c, 1, 63, 80
3, 9000, Note_on_c, 1, 63, 0
3, 9240, Note_on_c, 1, 58, 80
3, 9288, Note_on_c, 1, 58, 0
3, 9360, Note_on_c, 1, 58, 80
3, 9408, Note_on_c, 1, 58, 0
3, 9480, Note_on_c, 1, 58, 80
3, 9480, Note_on_c, 1, 65, 80
3, 9528, Note_on_c, 1, 65, 0
3, 9528, Note_on_c, 1, 58, 0
3, 9600, Note_on_c, 1, 65, 80
3, 9792, Note_on_c, 1, 65, 0
3, 9840, Note_on_c, 1, 63, 80
3, 9936, Note_on_c, 1, 63, 0
3, 10080, Note_on_c, 1, 65, 80
3, 10080, Note_on_c, 1, 68, 80
3, 10464, Note_on_c, 1, 68, 0
3, 10464, Note_on_c, 1, 65, 0
3, 10560, Note_on_c, 1, 68, 80
3, 10560, Note_on_c, 1, 65, 80
3, 10944, Note_on_c, 1, 65, 0
3, 10944, Note_on_c, 1, 68, 0
3, 11040, Note_on_c, 1, 67, 80
3, 11232, Note_on_c, 1, 67, 0
3, 11280, Note_on_c, 1, 68, 80
3, 11376, Note_on_c, 1, 68, 0
3, 11400, Note_on_c, 1, 67, 80
3, 11424, Note_on_c, 1, 67, 0
3, 11460, Note_on_c, 1, 65, 80
3, 11484, Note_on_c, 1, 65, 0
3, 11520, Note_on_c, 1, 63, 80
3, 11712, Note_on_c, 1, 63, 0
3, 11760, Note_on_c, 1, 62, 80
3, 11952, Note_on_c, 1, 62, 0
3, 12000, Note_on_c, 1, 62, 80
3, 12192, Note_on_c, 1, 62, 0
3, 12240, Note_on_c, 1, 63, 80
3, 12336, Note_on_c, 1, 63, 0
3, 12600, Note_on_c, 1, 65, 80
3, 12696, Note_on_c, 1, 65, 0
3, 12720, Note_on_c, 1, 68, 80
3, 12912, Note_on_c, 1, 68, 0
3, 13080, Note_on_c, 1, 65, 80
3, 13176, Note_on_c, 1, 65, 0
3, 13200, Note_on_c, 1, 68, 80
3, 13392, Note_on_c, 1, 68, 0
3, 13440, Note_on_c, 1, 67, 80
3, 13536, Note_on_c, 1, 67, 0
3, 13560, Note_on_c, 1, 67, 80
3, 13656, Note_on_c, 1, 67, 0
3, 13680, Note_on_c, 1, 68, 80
3, 13800, Note_on_c, 1, 68, 0
3, 13800, Note_on_c, 1, 67, 80
3, 13860, Note_on_c, 1, 67, 0
3, 13860, Note_on_c, 1, 65, 80
3, 13920, Note_on_c, 1, 65, 0
3, 13920, Note_on_c, 1, 63, 80
3, 14112, Note_on_c, 1, 63, 0
3, 14160, Note_on_c, 1, 63, 80
3, 14220, Note_on_c, 1, 63, 0
3, 14220, Note_on_c, 1, 62, 80
3, 14280, Note_on_c, 1, 62, 0
3, 14280, Note_on_c, 1, 60, 80
3, 14340, Note_on_c, 1, 60, 0
3, 14340, Note_on_c, 1, 62, 80
3, 14400, Note_on_c, 1, 62, 0
3, 14400, Note_on_c, 1, 63, 80
3, 14640, Note_on_c, 1, 63, 0
3, 14880, Note_on_c, 1, 62, 80
3, 15072, Note_on_c, 1, 62, 0
3, 15360, Note_on_c, 1, 65, 80
3, 15552, Note_on_c, 1, 65, 0
3, 15600, Note_on_c, 1, 63, 80
3, 15696, Note_on_c, 1, 63, 0
3, 15960, Note_on_c, 1, 58, 80
3, 16056, Note_on_c, 1, 58, 0
3, 16080, Note_on_c, 1, 58, 80
3, 16176, Note_on_c, 1, 58, 0
3, 16200, Note_on_c, 1, 65, 80
3, 16200, Note_on_c, 1, 58, 80
3, 16296, Note_on_c, 1, 58, 0
3, 16296, Note_on_c, 1, 65, 0
3, 16320, Note_on_c, 1, 65, 80
3, 16512, Note_on_c, 1, 65, 0
3, 16560, Note_on_c, 1, 63, 80
3, 16656, Note_on_c, 1, 63, 0
3, 16800, Note_on_c, 1, 68, 80
3, 16800, Note_on_c, 1, 65, 80
3, 17184, Note_on_c, 1, 65, 0
3, 17184, Note_on_c, 1, 68, 0
3, 17280, Note_on_c, 1, 65, 80
3, 17280, Note_on_c, 1, 68, 80
3, 17664, Note_on_c, 1, 68, 0
3, 17664, Note_on_c, 1, 65, 0
3, 17760, Note_on_c, 1, 67, 80
3, 17952, Note_on_c, 1, 67, 0
3, 18000, Note_on_c, 1, 68, 80
3, 18096, Note_on_c, 1, 68, 0
3, 18120, Note_on_c, 1, 67, 80
3, 18168, Note_on_c, 1, 67, 0
3, 18180, Note_on_c, 1, 65, 80
3, 18228, Note_on_c, 1, 65, 0
3, 18240, Note_on_c, 1, 63, 80
3, 18432, Note_on_c, 1, 63, 0
3, 18480, Note_on_c, 1, 62, 80
3, 18672, Note_on_c, 1, 62, 0
3, 18720, Note_on_c, 1, 62, 80
3, 18912, Note_on_c, 1, 62, 0
3, 18960, Note_on_c, 1, 63, 80
3, 19056, Note_on_c, 1, 63, 0
3, 19320, Note_on_c, 1, 65, 80
3, 19416, Note_on_c, 1, 65, 0
3, 19440, Note_on_c, 1, 68, 80
3, 19632, Note_on_c, 1, 68, 0
3, 19800, Note_on_c, 1, 65, 80
3, 19896, Note_on_c, 1, 65, 0
3, 19920, Note_on_c, 1, 68, 80
3, 20112, Note_on_c, 1, 68, 0
3, 20160, Note_on_c, 1, 67, 80
3, 20256, Note_on_c, 1, 67, 0
3, 20280, Note_on_c, 1, 67, 80
3, 20376, Note_on_c, 1, 67, 0
3, 20400, Note_on_c, 1, 68, 80
3, 20496, Note_on_c, 1, 68, 0
3, 20520, Note_on_c, 1, 67, 80
3, 20568, Note_on_c, 1, 67, 0
3, 20580, Note_on_c, 1, 65, 80
3, 20628, Note_on_c, 1, 65, 0
3, 20640, Note_on_c, 1, 63, 80
3, 20832, Note_on_c, 1, 63, 0
3, 20880, Note_on_c, 1, 63, 80
3, 20928, Note_on_c, 1, 63, 0
3, 20940, Note_on_c, 1, 62, 80
3, 20988, Note_on_c, 1, 62, 0
3, 21000, Note_on_c, 1, 60, 80
3, 21048, Note_on_c, 1, 60, 0
3, 21060, Note_on_c, 1, 62, 80
3, 21108, Note_on_c, 1, 62, 0
3, 21120, Note_on_c, 1, 63, 80
3, 21312, Note_on_c, 1, 63, 0
3, 23820, Note_on_c, 1, 80, 64
3, 23868, Note_on_c, 1, 80, 0
3, 23880, Note_on_c, 1, 77, 64
3, 23928, Note_on_c, 1, 77, 0
3, 23940, Note_on_c, 1, 74, 64
3, 23988, Note_on_c, 1, 74, 0
3, 24000, Note_on_c, 1, 75, 64
3, 24048, Note_on_c, 1, 75, 0
3, 24300, Note_on_c, 1, 80, 64
3, 24348, Note_on_c, 1, 80, 0
3, 24360, Note_on_c, 1, 77, 64
3, 24408, Note_on_c, 1, 77, 0
3, 24420, Note_on_c, 1, 74, 64
3, 24468, Note_on_c, 1, 74, 0
3, 24480, Note_on_c, 1, 75, 80
3, 24528, Note_on_c, 1, 75, 0
3, 27660, Note_on_c, 1, 80, 64
3, 27708, Note_on_c, 1, 80, 0
3, 27720, Note_on_c, 1, 77, 64
3, 27768, Note_on_c, 1, 77, 0
3, 27780, Note_on_c, 1, 74, 64
3, 27828, Note_on_c, 1, 74, 0
3, 27840, Note_on_c, 1, 75, 64
3, 27888, Note_on_c, 1, 75, 0
3, 28140, Note_on_c, 1, 80, 64
3, 28188, Note_on_c, 1, 80, 0
3, 28200, Note_on_c, 1, 77, 64
3, 28248, Note_on_c, 1, 77, 0
3, 28260, Note_on_c, 1, 74, 64
3, 28308, Note_on_c, 1, 74, 0
3, 28320, Note_on_c, 1, 75, 64
3, 28368, Note_on_c, 1, 75, 0
3, 31440, Note_on_c, 1, 72, 56
3, 31488, Note_on_c, 1, 72, 0
3, 31500, Note_on_c, 1, 70, 56
3, 31548, Note_on_c, 1, 70, 0
3, 31560, Note_on_c, 1, 69, 56
3, 31608, Note_on_c, 1, 69, 0
3, 31620, Note_on_c, 1, 70, 56
3, 31668, Note_on_c, 1, 70, 0
3, 31920, Note_on_c, 1, 72, 56
3, 31968, Note_on_c, 1, 72, 0
3, 31980, Note_on_c, 1, 70, 56
3, 32028, Note_on_c, 1, 70, 0
3, 32040, Note_on_c, 1, 69, 56
3, 32088, Note_on_c, 1, 69, 0
3, 32100, Note_on_c, 1, 70, 56
3, 32148, Note_on_c, 1, 70, 0
3, 32280, Note_on_c, 1, 63, 80
3, 32376, Note_on_c, 1, 63, 0
3, 32520, Note_on_c, 1, 63, 80
3, 32616, Note_on_c, 1, 63, 0
3, 32760, Note_on_c, 1, 55, 80
3, 32856, Note_on_c, 1, 55, 0
3, 33000, Note_on_c, 1, 56, 80
3, 33096, Note_on_c, 1, 56, 0
3, 33120, Note_on_c, 1, 55, 80
3, 33312, Note_on_c, 1, 55, 0
3, 33840, Note_on_c, 1, 72, 64
3, 33888, Note_on_c, 1, 72, 0
3, 33900, Note_on_c, 1, 70, 64
3, 33948, Note_on_c, 1, 70, 0
3, 33960, Note_on_c, 1, 69, 64
3, 34008, Note_on_c, 1, 69, 0
3, 34020, Note_on_c, 1, 70, 64
3, 34068, Note_on_c, 1, 70, 0
3, 34320, Note_on_c, 1, 72, 64
3, 34368, Note_on_c, 1, 72, 0
3, 34380, Note_on_c, 1, 70, 64
3, 34428, Note_on_c, 1, 70, 0
3, 34440, Note_on_c, 1, 69, 64
3, 34488, Note_on_c, 1, 69, 0
3, 34500, Note_on_c, 1, 70, 64
3, 34548, Note_on_c, 1, 70, 0
3, 34680, Note_on_c, 1, 63, 80
3, 34776, Note_on_c, 1, 63, 0
3, 34920, Note_on_c, 1, 63, 80
3, 35016, Note_on_c, 1, 63, 0
3, 38160, Note_on_c, 1, 72, 56
3, 38208, Note_on_c, 1, 72, 0
3, 38220, Note_on_c, 1, 70, 56
3, 38268, Note_on_c, 1, 70, 0
3, 38280, Note_on_c, 1, 69, 56
3, 38328, Note_on_c, 1, 69, 0
3, 38340, Note_on_c, 1, 70, 56
3, 38388, Note_on_c, 1, 70, 0
3, 38640, Note_on_c, 1, 72, 64
3, 38688, Note_on_c, 1, 72, 0
3, 38700, Note_on_c, 1, 70, 64
3, 38748, Note_on_c, 1, 70, 0
3, 38760, Note_on_c, 1, 69, 64
3, 38808, Note_on_c, 1, 69, 0
3, 38820, Note_on_c, 1, 70, 64
3, 38868, Note_on_c, 1, 70, 0
3, 39000, Note_on_c, 1, 63, 80
3, 39096, Note_on_c, 1, 63, 0
3, 39240, Note_on_c, 1, 63, 80
3, 39336, Note_on_c, 1, 63, 0
3, 39480, Note_on_c, 1, 55, 80
3, 39576, Note_on_c, 1, 55, 0
3, 39720, Note_on_c, 1, 56, 80
3, 39816, Note_on_c, 1, 56, 0
3, 39840, Note_on_c, 1, 55, 80
3, 40032, Note_on_c, 1, 55, 0
3, 40560, Note_on_c, 1, 72, 64
3, 40608, Note_on_c, 1, 72, 0
3, 40620, Note_on_c, 1, 70, 64
3, 40668, Note_on_c, 1, 70, 0
3, 40680, Note_on_c, 1, 69, 64
3, 40728, Note_on_c, 1, 69, 0
3, 40740, Note_on_c, 1, 70, 64
3, 40788, Note_on_c, 1, 70, 0
3, 41040, Note_on_c, 1, 72, 64
3, 41088, Note_on_c, 1, 72, 0
3, 41100, Note_on_c, 1, 70, 64
3, 41148, Note_on_c, 1, 70, 0
3, 41160, Note_on_c, 1, 69, 64
3, 41208, Note_on_c, 1, 69, 0
3, 41220, Note_on_c, 1, 70, 64
3, 41268, Note_on_c, 1, 70, 0
3, 41400, Note_on_c, 1, 63, 80
3, 41496, Note_on_c, 1, 63, 0
3, 41640, Note_on_c, 1, 63, 80
3, 41736, Note_on_c, 1, 63, 0
3, 42720, Note_on_c, 1, 67, 80
3, 42816, Note_on_c, 1, 67, 0
3, 42840, Note_on_c, 1, 63, 80
3, 42888, Note_on_c, 1, 63, 0
3, 42960, Note_on_c, 1, 63, 80
3, 43008, Note_on_c, 1, 63, 0
3, 43080, Note_on_c, 1, 63, 80
3, 43128, Note_on_c, 1, 63, 0
3, 43200, Note_on_c, 1, 63, 80
3, 43488, Note_on_c, 1, 63, 0
3, 43560, Note_on_c, 1, 58, 80
3, 43656, Note_on_c, 1, 58, 0
3, 43680, Note_on_c, 1, 63, 80
3, 43728, Note_on_c, 1, 63, 0
3, 43800, Note_on_c, 1, 63, 80
3, 43848, Note_on_c, 1, 63, 0
3, 43920, Note_on_c, 1, 63, 80
3, 44016, Note_on_c, 1, 63, 0
3, 44040, Note_on_c, 1, 63, 80
3, 44136, Note_on_c, 1, 63, 0
3, 44160, Note_on_c, 1, 63, 80
3, 44256, Note_on_c, 1, 63, 0
3, 44280, Note_on_c, 1, 65, 80
3, 44376, Note_on_c, 1, 65, 0
3, 44400, Note_on_c, 1, 67, 80
3, 44496, Note_on_c, 1, 67, 0
3, 44880, Note_on_c, 1, 65, 80
3, 44976, Note_on_c, 1, 65, 0
3, 45360, Note_on_c, 1, 65, 80
3, 45456, Note_on_c, 1, 65, 0
3, 45720, Note_on_c, 1, 67, 80
3, 45816, Note_on_c, 1, 67, 0
3, 45840, Note_on_c, 1, 65, 80
3, 45936, Note_on_c, 1, 65, 0
3, 45960, Note_on_c, 1, 63, 80
3, 46056, Note_on_c, 1, 63, 0
3, 46080, Note_on_c, 1, 63, 80
3, 46272, Note_on_c, 1, 63, 0
3, 46320, Note_on_c, 1, 62, 80
3, 46416, Note_on_c, 1, 62, 0
3, 46560, Note_on_c, 1, 67, 80
3, 46656, Note_on_c, 1, 67, 0
3, 46680, Note_on_c, 1, 63, 80
3, 46776, Note_on_c, 1, 63, 0
3, 46800, Note_on_c, 1, 63, 80
3, 46896, Note_on_c, 1, 63, 0
3, 46920, Note_on_c, 1, 63, 80
3, 47016, Note_on_c, 1, 63, 0
3, 47040, Note_on_c, 1, 63, 80
3, 47328, Note_on_c, 1, 63, 0
3, 47400, Note_on_c, 1, 58, 80
3, 47496, Note_on_c, 1, 58, 0
3, 47520, Note_on_c, 1, 63, 80
3, 47616, Note_on_c, 1, 63, 0
3, 47640, Note_on_c, 1, 63, 80
3, 47736, Note_on_c, 1, 63, 0
3, 47760, Note_on_c, 1, 63, 80
3, 47856, Note_on_c, 1, 63, 0
3, 47880, Note_on_c, 1, 63, 80
3, 47976, Note_on_c, 1, 63, 0
3, 48000, Note_on_c, 1, 63, 80
3, 48096, Note_on_c, 1, 63, 0
3, 48120, Note_on_c, 1, 65, 80
3, 48216, Note_on_c, 1, 65, 0
3, 48240, Note_on_c, 1, 67, 80
3, 48336, Note_on_c, 1, 67, 0
3, 48720, Note_on_c, 1, 65, 80
3, 48816, Note_on_c, 1, 65, 0
3, 49200, Note_on_c, 1, 65, 80
3, 49296, Note_on_c, 1, 65, 0
3, 49560, Note_on_c, 1, 67, 80
3, 49656, Note_on_c, 1, 67, 0
3, 49680, Note_on_c, 1, 65, 80
3, 49776, Note_on_c, 1, 65, 0
3, 49800, Note_on_c, 1, 63, 80
3, 49896, Note_on_c, 1, 63, 0
3, 49920, Note_on_c, 1, 63, 80
3, 50112, Note_on_c, 1, 63, 0
3, 50160, Note_on_c, 1, 62, 80
3, 50256, Note_on_c, 1, 62, 0
3, 50400, Note_on_c, 1, 70, 80
3, 50496, Note_on_c, 1, 70, 0
3, 50520, Note_on_c, 1, 65, 80
3, 50616, Note_on_c, 1, 65, 0
3, 50640, Note_on_c, 1, 65, 80
3, 50736, Note_on_c, 1, 65, 0
3, 50760, Note_on_c, 1, 68, 80
3, 50856, Note_on_c, 1, 68, 0
3, 50880, Note_on_c, 1, 68, 80
3, 51072, Note_on_c, 1, 68, 0
3, 51120, Note_on_c, 1, 67, 80
3, 51216, Note_on_c, 1, 67, 0
3, 51360, Note_on_c, 1, 74, 80
3, 51456, Note_on_c, 1, 74, 0
3, 51600, Note_on_c, 1, 74, 80
3, 51696, Note_on_c, 1, 74, 0
3, 51720, Note_on_c, 1, 77, 80
3, 51816, Note_on_c, 1, 77, 0
3, 51840, Note_on_c, 1, 77, 80
3, 52032, Note_on_c, 1, 77, 0
3, 52080, Note_on_c, 1, 75, 80
3, 52176, Note_on_c, 1, 75, 0
3, 52320, Note_on_c, 1, 68, 80
3, 52704, Note_on_c, 1, 68, 0
3, 52800, Note_on_c, 1, 68, 80
3, 53184, Note_on_c, 1, 68, 0
3, 54240, Note_on_c, 1, 65, 80
3, 54432, Note_on_c, 1, 65, 0
3, 54480, Note_on_c, 1, 63, 80
3, 54576, Note_on_c, 1, 63, 0
3, 54720, Note_on_c, 1, 68, 80
3, 55104, Note_on_c, 1, 68, 0
3, 55200, Note_on_c, 1, 68, 80
3, 55584, Note_on_c, 1, 68, 0
3, 55680, Note_on_c, 1, 63, 80
3, 56064, Note_on_c, 1, 63, 0
3, 56160, Note_on_c, 1, 63, 80
3, 56352, Note_on_c, 1, 63, 0
3, 56400, Note_on_c, 1, 62, 80
3, 56592, Note_on_c, 1, 62, 0
3, 57120, Note_on_c, 1, 70, 80
3, 57216, Note_on_c, 1, 70, 0
3, 57240, Note_on_c, 1, 65, 80
3, 57336, Note_on_c, 1, 65, 0
3, 57360, Note_on_c, 1, 65, 80
3, 57456, Note_on_c, 1, 65, 0
3, 57480, Note_on_c, 1, 68, 80
3, 57576, Note_on_c, 1, 68, 0
3, 57600, Note_on_c, 1, 68, 80
3, 57792, Note_on_c, 1, 68, 0
3, 57840, Note_on_c, 1, 67, 80
3, 57936, Note_on_c, 1, 67, 0
3, 58080, Note_on_c, 1, 74, 80
3, 58176, Note_on_c, 1, 74, 0
3, 58320, Note_on_c, 1, 74, 80
3, 58416, Note_on_c, 1, 74, 0
3, 58440, Note_on_c, 1, 77, 80
3, 58536, Note_on_c, 1, 77, 0
3, 58560, Note_on_c, 1, 77, 80
3, 58752, Note_on_c, 1, 77, 0
3, 58800, Note_on_c, 1, 75, 80
3, 58896, Note_on_c, 1, 75, 0
3, 59040, Note_on_c, 1, 68, 80
3, 59424, Note_on_c, 1, 68, 0
3, 59520, Note_on_c, 1, 68, 80
3, 59904, Note_on_c, 1, 68, 0
3, 60960, Note_on_c, 1, 65, 80
3, 61152, Note_on_c, 1, 65, 0
3, 61200, Note_on_c, 1, 63, 80
3, 61296, Note_on_c, 1, 63, 0
3, 61440, Note_on_c, 1, 68, 80
3, 61824, Note_on_c, 1, 68, 0
3, 61920, Note_on_c, 1, 68, 80
3, 62304, Note_on_c, 1, 68, 0
3, 62400, Note_on_c, 1, 63, 80
3, 62784, Note_on_c, 1, 63, 0
3, 62880, Note_on_c, 1, 63, 80
3, 63072, Note_on_c, 1, 63, 0
3, 63120, Note_on_c, 1, 62, 80
3, 63312, Note_on_c, 1, 62, 0
3, 63840, Note_on_c, 1, 67, 56
3, 64032, Note_on_c, 1, 67, 0
3, 64200, Note_on_c, 1, 67, 56
3, 64296, Note_on_c, 1, 67, 0
3, 64320, Note_on_c, 1, 70, 56
3, 64512, Note_on_c, 1, 70, 0
3, 64680, Note_on_c, 1, 70, 56
3, 64776, Note_on_c, 1, 70, 0
3, 64800, Note_on_c, 1, 72, 56
3, 64992, Note_on_c, 1, 72, 0
3, 65040, Note_on_c, 1, 74, 56
3, 65232, Note_on_c, 1, 74, 0
3, 65280, Note_on_c, 1, 75, 56
3, 65376, Note_on_c, 1, 75, 0
3, 65400, Note_on_c, 1, 77, 56
3, 65496, Note_on_c, 1, 77, 0
3, 65520, Note_on_c, 1, 75, 56
3, 65616, Note_on_c, 1, 75, 0
3, 65760, Note_on_c, 1, 70, 56
3, 65952, Note_on_c, 1, 70, 0
3, 66000, Note_on_c, 1, 70, 56
3, 66192, Note_on_c, 1, 70, 0
3, 66240, Note_on_c, 1, 70, 56
3, 66432, Note_on_c, 1, 70, 0
3, 66480, Note_on_c, 1, 70, 56
3, 66672, Note_on_c, 1, 70, 0
3, 66720, Note_on_c, 1, 70, 56
3, 67008, Note_on_c, 1, 70, 0
3, 67080, Note_on_c, 1, 70, 56
3, 67176, Note_on_c, 1, 70, 0
3, 67200, Note_on_c, 1, 63, 56
3, 67392, Note_on_c, 1, 63, 0
3, 67440, Note_on_c, 1, 62, 56
3, 67536, Note_on_c, 1, 62, 0
3, 67680, Note_on_c, 1, 67, 56
3, 67872, Note_on_c, 1, 67, 0
3, 68040, Note_on_c, 1, 67, 56
3, 68136, Note_on_c, 1, 67, 0
3, 68160, Note_on_c, 1, 70, 56
3, 68352, Note_on_c, 1, 70, 0
3, 68520, Note_on_c, 1, 70, 56
3, 68616, Note_on_c, 1, 70, 0
3, 68640, Note_on_c, 1, 72, 56
3, 68832, Note_on_c, 1, 72, 0
3, 68880, Note_on_c, 1, 74, 56
3, 69072, Note_on_c, 1, 74, 0
3, 69120, Note_on_c, 1, 75, 56
3, 69216, Note_on_c, 1, 75, 0
3, 69240, Note_on_c, 1, 77, 56
3, 69336, Note_on_c, 1, 77, 0
3, 69360, Note_on_c, 1, 75, 56
3, 69456, Note_on_c, 1, 75, 0
3, 69600, Note_on_c, 1, 70, 56
3, 69792, Note_on_c, 1, 70, 0
3, 69840, Note_on_c, 1, 70, 56
3, 70032, Note_on_c, 1, 70, 0
3, 70080, Note_on_c, 1, 70, 56
3, 70272, Note_on_c, 1, 70, 0
3, 70320, Note_on_c, 1, 70, 56
3, 70512, Note_on_c, 1, 70, 0
3, 70560, Note_on_c, 1, 70, 56
3, 70848, Note_on_c, 1, 70, 0
3, 70920, Note_on_c, 1, 70, 56
3, 71016, Note_on_c, 1, 70, 0
3, 71040, Note_on_c, 1, 63, 56
3, 71232, Note_on_c, 1, 63, 0
3, 71280, Note_on_c, 1, 62, 56
3, 71376, Note_on_c, 1, 62, 0
3, 73440, Note_on_c, 1, 68, 80
3, 73632, Note_on_c, 1, 68, 0
3, 73680, Note_on_c, 1, 68, 80
3, 73872, Note_on_c, 1, 68, 0
3, 73920, Note_on_c, 1, 68, 80
3, 74112, Note_on_c, 1, 68, 0
3, 74160, Note_on_c, 1, 68, 80
3, 74304, Note_on_c, 1, 68, 0
3, 74340, Note_on_c, 1, 65, 80
3, 74388, Note_on_c, 1, 65, 0
3, 74400, Note_on_c, 1, 63, 80
3, 74496, Note_on_c, 1, 63, 0
3, 74640, Note_on_c, 1, 63, 80
3, 74736, Note_on_c, 1, 63, 0
3, 75000, Note_on_c, 1, 58, 80
3, 75096, Note_on_c, 1, 58, 0
3, 75120, Note_on_c, 1, 58, 80
3, 75216, Note_on_c, 1, 58, 0
3, 75240, Note_on_c, 1, 58, 80
3, 75336, Note_on_c, 1, 58, 0
3, 75360, Note_on_c, 1, 58, 80
3, 75456, Note_on_c, 1, 58, 0
3, 75840, Note_on_c, 1, 68, 80
3, 76032, Note_on_c, 1, 68, 0
3, 76080, Note_on_c, 1, 68, 80
3, 76272, Note_on_c, 1, 68, 0
3, 76320, Note_on_c, 1, 68, 80
3, 76512, Note_on_c, 1, 68, 0
3, 76560, Note_on_c, 1, 68, 80
3, 76704, Note_on_c, 1, 68, 0
3, 76740, Note_on_c, 1, 65, 80
3, 76788, Note_on_c, 1, 65, 0
3, 76800, Note_on_c, 1, 63, 80
3, 76896, Note_on_c, 1, 63, 0
3, 77040, Note_on_c, 1, 63, 80
3, 77136, Note_on_c, 1, 63, 0
3, 77400, Note_on_c, 1, 58, 80
3, 77496, Note_on_c, 1, 58, 0
3, 77520, Note_on_c, 1, 58, 80
3, 77616, Note_on_c, 1, 58, 0
3, 77640, Note_on_c, 1, 58, 80
3, 77736, Note_on_c, 1, 58, 0
3, 77760, Note_on_c, 1, 58, 80
3, 77952, Note_on_c, 1, 58, 0
3, 78000, Note_on_c, 1, 58, 80
3, 78096, Note_on_c, 1, 58, 0
3, 80160, Note_on_c, 1, 68, 80
3, 80352, Note_on_c, 1, 68, 0
3, 80400, Note_on_c, 1, 68, 80
3, 80592, Note_on_c, 1, 68, 0
3, 80640, Note_on_c, 1, 68, 80
3, 80832, Note_on_c, 1, 68, 0
3, 80880, Note_on_c, 1, 68, 80
3, 81024, Note_on_c, 1, 68, 0
3, 81060, Note_on_c, 1, 65, 80
3, 81108, Note_on_c, 1, 65, 0
3, 81120, Note_on_c, 1, 63, 80
3, 81216, Note_on_c, 1, 63, 0
3, 81360, Note_on_c, 1, 63, 80
3, 81456, Note_on_c, 1, 63, 0
3, 81720, Note_on_c, 1, 58, 80
3, 81816, Note_on_c, 1, 58, 0
3, 81840, Note_on_c, 1, 58, 80
3, 81936, Note_on_c, 1, 58, 0
3, 81960, Note_on_c, 1, 58, 80
3, 82056, Note_on_c, 1, 58, 0
3, 82080, Note_on_c, 1, 58, 80
3, 82176, Note_on_c, 1, 58, 0
3, 82560, Note_on_c, 1, 68, 80
3, 82752, Note_on_c, 1, 68, 0
3, 82800, Note_on_c, 1, 68, 80
3, 82992, Note_on_c, 1, 68, 0
3, 83040, Note_on_c, 1, 68, 80
3, 83232, Note_on_c, 1, 68, 0
3, 83280, Note_on_c, 1, 68, 80
3, 83424, Note_on_c, 1, 68, 0
3, 83460, Note_on_c, 1, 65, 80
3, 83508, Note_on_c, 1, 65, 0
3, 83520, Note_on_c, 1, 63, 80
3, 83616, Note_on_c, 1, 63, 0
3, 83760, Note_on_c, 1, 63, 80
3, 83856, Note_on_c, 1, 63, 0
3, 84120, Note_on_c, 1, 58, 80
3, 84216, Note_on_c, 1, 58, 0
3, 84240, Note_on_c, 1, 58, 80
3, 84336, Note_on_c, 1, 58, 0
3, 84360, Note_on_c, 1, 58, 80
3, 84456, Note_on_c, 1, 58, 0
3, 84480, Note_on_c, 1, 58, 80
3, 84672, Note_on_c, 1, 58, 0
3, 84720, Note_on_c, 1, 58, 80
3, 84816, Note_on_c, 1, 58, 0
3, 85000, Note_on_c, 1, 67, 64
3, 85032, Note_on_c, 1, 67, 0
3, 85040, Note_on_c, 1, 70, 64
3, 85072, Note_on_c, 1, 70, 0
3, 85120, Note_on_c, 1, 63, 64
3, 85152, Note_on_c, 1, 63, 0
3, 85160, Note_on_c, 1, 67, 64
3, 85192, Note_on_c, 1, 67, 0
3, 85240, Note_on_c, 1, 63, 64
3, 85272, Note_on_c, 1, 63, 0
3, 85280, Note_on_c, 1, 67, 64
3, 85312, Note_on_c, 1, 67, 0
3, 85360, Note_on_c, 1, 63, 64
3, 85392, Note_on_c, 1, 63, 0
3, 85400, Note_on_c, 1, 67, 64
3, 85432, Note_on_c, 1, 67, 0
3, 85480, Note_on_c, 1, 63, 64
3, 85512, Note_on_c, 1, 63, 0
3, 85520, Note_on_c, 1, 67, 64
3, 85552, Note_on_c, 1, 67, 0
3, 85600, Note_on_c, 1, 63, 64
3, 85632, Note_on_c, 1, 63, 0
3, 85640, Note_on_c, 1, 67, 64
3, 85672, Note_on_c, 1, 67, 0
3, 85720, Note_on_c, 1, 63, 64
3, 85752, Note_on_c, 1, 63, 0
3, 85760, Note_on_c, 1, 67, 64
3, 85792, Note_on_c, 1, 67, 0
3, 85840, Note_on_c, 1, 58, 64
3, 85872, Note_on_c, 1, 58, 0
3, 85880, Note_on_c, 1, 63, 64
3, 85912, Note_on_c, 1, 63, 0
3, 85960, Note_on_c, 1, 63, 64
3, 85992, Note_on_c, 1, 63, 0
3, 86000, Note_on_c, 1, 65, 64
3, 86032, Note_on_c, 1, 65, 0
3, 86080, Note_on_c, 1, 63, 64
3, 86112, Note_on_c, 1, 63, 0
3, 86120, Note_on_c, 1, 65, 64
3, 86152, Note_on_c, 1, 65, 0
3, 86200, Note_on_c, 1, 62, 64
3, 86232, Note_on_c, 1, 62, 0
3, 86240, Note_on_c, 1, 65, 64
3, 86272, Note_on_c, 1, 65, 0
3, 86320, Note_on_c, 1, 63, 64
3, 86352, Note_on_c, 1, 63, 0
3, 86360, Note_on_c, 1, 67, 64
3, 86392, Note_on_c, 1, 67, 0
3, 86440, Note_on_c, 1, 60, 64
3, 86472, Note_on_c, 1, 60, 0
3, 86480, Note_on_c, 1, 68, 64
3, 86512, Note_on_c, 1, 68, 0
3, 86560, Note_on_c, 1, 62, 64
3, 86592, Note_on_c, 1, 62, 0
3, 86600, Note_on_c, 1, 68, 64
3, 86632, Note_on_c, 1, 68, 0
3, 86680, Note_on_c, 1, 63, 64
3, 86712, Note_on_c, 1, 63, 0
3, 86720, Note_on_c, 1, 67, 64
3, 86752, Note_on_c, 1, 67, 0
3, 86800, Note_on_c, 1, 68, 64
3, 86832, Note_on_c, 1, 68, 0
3, 86840, Note_on_c, 1, 70, 64
3, 86872, Note_on_c, 1, 70, 0
3, 86920, Note_on_c, 1, 67, 64
3, 86952, Note_on_c, 1, 67, 0
3, 86960, Note_on_c, 1, 70, 64
3, 86992, Note_on_c, 1, 70, 0
3, 87040, Note_on_c, 1, 67, 64
3, 87072, Note_on_c, 1, 67, 0
3, 87080, Note_on_c, 1, 70, 64
3, 87112, Note_on_c, 1, 70, 0
3, 87160, Note_on_c, 1, 68, 64
3, 87192, Note_on_c, 1, 68, 0
3, 87200, Note_on_c, 1, 70, 64
3, 87232, Note_on_c, 1, 70, 0
3, 87280, Note_on_c, 1, 68, 64
3, 87312, Note_on_c, 1, 68, 0
3, 87320, Note_on_c, 1, 70, 64
3, 87352, Note_on_c, 1, 70, 0
3, 87400, Note_on_c, 1, 67, 64
3, 87432, Note_on_c, 1, 67, 0
3, 87440, Note_on_c, 1, 70, 64
3, 87472, Note_on_c, 1, 70, 0
3, 87520, Note_on_c, 1, 67, 64
3, 87552, Note_on_c, 1, 67, 0
3, 87560, Note_on_c, 1, 70, 64
3, 87592, Note_on_c, 1, 70, 0
3, 87640, Note_on_c, 1, 68, 64
3, 87672, Note_on_c, 1, 68, 0
3, 87680, Note_on_c, 1, 70, 64
3, 87712, Note_on_c, 1, 70, 0
3, 87760, Note_on_c, 1, 68, 64
3, 87792, Note_on_c, 1, 68, 0
3, 87800, Note_on_c, 1, 70, 64
3, 87832, Note_on_c, 1, 70, 0
3, 87880, Note_on_c, 1, 67, 64
3, 87912, Note_on_c, 1, 67, 0
3, 87920, Note_on_c, 1, 70, 64
3, 87952, Note_on_c, 1, 70, 0
3, 88000, Note_on_c, 1, 67, 64
3, 88032, Note_on_c, 1, 67, 0
3, 88040, Note_on_c, 1, 70, 64
3, 88072, Note_on_c, 1, 70, 0
3, 88120, Note_on_c, 1, 65, 64
3, 88152, Note_on_c, 1, 65, 0
3, 88160, Note_on_c, 1, 68, 64
3, 88192, Note_on_c, 1, 68, 0
3, 88240, Note_on_c, 1, 63, 64
3, 88272, Note_on_c, 1, 63, 0
3, 88280, Note_on_c, 1, 67, 64
3, 88312, Note_on_c, 1, 67, 0
3, 88360, Note_on_c, 1, 63, 64
3, 88392, Note_on_c, 1, 63, 0
3, 88400, Note_on_c, 1, 67, 64
3, 88432, Note_on_c, 1, 67, 0
3, 88480, Note_on_c, 1, 63, 64
3, 88512, Note_on_c, 1, 63, 0
3, 88520, Note_on_c, 1, 70, 64
3, 88552, Note_on_c, 1, 70, 0
3, 88600, Note_on_c, 1, 62, 64
3, 88632, Note_on_c, 1, 62, 0
3, 88640, Note_on_c, 1, 65, 64
3, 88672, Note_on_c, 1, 65, 0
3, 88720, Note_on_c, 1, 62, 64
3, 88752, Note_on_c, 1, 62, 0
3, 88760, Note_on_c, 1, 65, 64
3, 88792, Note_on_c, 1, 65, 0
3, 88840, Note_on_c, 1, 67, 64
3, 88872, Note_on_c, 1, 67, 0
3, 88880, Note_on_c, 1, 70, 64
3, 88912, Note_on_c, 1, 70, 0
3, 88960, Note_on_c, 1, 63, 64
3, 88992, Note_on_c, 1, 63, 0
3, 89000, Note_on_c, 1, 67, 64
3, 89032, Note_on_c, 1, 67, 0
3, 89080, Note_on_c, 1, 63, 64
3, 89112, Note_on_c, 1, 63, 0
3, 89120, Note_on_c, 1, 67, 64
3, 89152, Note_on_c, 1, 67, 0
3, 89200, Note_on_c, 1, 63, 64
3, 89232, Note_on_c, 1, 63, 0
3, 89240, Note_on_c, 1, 67, 64
3, 89272, Note_on_c, 1, 67, 0
3, 89320, Note_on_c, 1, 63, 64
3, 89352, Note_on_c, 1, 63, 0
3, 89360, Note_on_c, 1, 67, 64
3, 89392, Note_on_c, 1, 67, 0
3, 89440, Note_on_c, 1, 63, 64
3, 89472, Note_on_c, 1, 63, 0
3, 89480, Note_on_c, 1, 67, 64
3, 89512, Note_on_c, 1, 67, 0
3, 89560, Note_on_c, 1, 63, 64
3, 89592, Note_on_c, 1, 63, 0
3, 89600, Note_on_c, 1, 67, 64
3, 89632, Note_on_c, 1, 67, 0
3, 89680, Note_on_c, 1, 58, 64
3, 89712, Note_on_c, 1, 58, 0
3, 89720, Note_on_c, 1, 63, 64
3, 89752, Note_on_c, 1, 63, 0
3, 89800, Note_on_c, 1, 63, 64
3, 89832, Note_on_c, 1, 63, 0
3, 89840, Note_on_c, 1, 65, 64
3, 89872, Note_on_c, 1, 65, 0
3, 89920, Note_on_c, 1, 63, 64
3, 89952, Note_on_c, 1, 63, 0
3, 89960, Note_on_c, 1, 65, 64
3, 89992, Note_on_c, 1, 65, 0
3, 90040, Note_on_c, 1, 62, 64
3, 90072, Note_on_c, 1, 62, 0
3, 90080, Note_on_c, 1, 65, 64
3, 90112, Note_on_c, 1, 65, 0
3, 90160, Note_on_c, 1, 63, 64
3, 90192, Note_on_c, 1, 63, 0
3, 90200, Note_on_c, 1, 67, 64
3, 90232, Note_on_c, 1, 67, 0
3, 90280, Note_on_c, 1, 60, 64
3, 90312, Note_on_c, 1, 60, 0
3, 90320, Note_on_c, 1, 68, 64
3, 90352, Note_on_c, 1, 68, 0
3, 90400, Note_on_c, 1, 62, 64
3, 90432, Note_on_c, 1, 62, 0
3, 90440, Note_on_c, 1, 68, 64
3, 90472, Note_on_c, 1, 68, 0
3, 90520, Note_on_c, 1, 63, 64
3, 90552, Note_on_c, 1, 63, 0
3, 90560, Note_on_c, 1, 67, 64
3, 90592, Note_on_c, 1, 67, 0
3, 90640, Note_on_c, 1, 68, 64
3, 90672, Note_on_c, 1, 68, 0
3, 90680, Note_on_c, 1, 70, 64
3, 90712, Note_on_c, 1, 70, 0
3, 90760, Note_on_c, 1, 67, 64
3, 90792, Note_on_c, 1, 67, 0
3, 90800, Note_on_c, 1, 70, 64
3, 90832, Note_on_c, 1, 70, 0
3, 90880, Note_on_c, 1, 67, 64
3, 90912, Note_on_c, 1, 67, 0
3, 90920, Note_on_c, 1, 70, 64
3, 90952, Note_on_c, 1, 70, 0
3, 91000, Note_on_c, 1, 68, 64
3, 91032, Note_on_c, 1, 68, 0
3, 91040, Note_on_c, 1, 70, 64
3, 91072, Note_on_c, 1, 70, 0
3, 91120, Note_on_c, 1, 68, 64
3, 91152, Note_on_c, 1, 68, 0
3, 91160, Note_on_c, 1, 70, 64
3, 91192, Note_on_c, 1, 70, 0
3, 91240, Note_on_c, 1, 67, 64
3, 91272, Note_on_c, 1, 67, 0
3, 91280, Note_on_c, 1, 70, 64
3, 91312, Note_on_c, 1, 70, 0
3, 91360, Note_on_c, 1, 67, 64
3, 91392, Note_on_c, 1, 67, 0
3, 91400, Note_on_c, 1, 70, 64
3, 91432, Note_on_c, 1, 70, 0
3, 91480, Note_on_c, 1, 68, 64
3, 91512, Note_on_c, 1, 68, 0
3, 91520, Note_on_c, 1, 70, 64
3, 91552, Note_on_c, 1, 70, 0
3, 91600, Note_on_c, 1, 68, 64
3, 91632, Note_on_c, 1, 68, 0
3, 91640, Note_on_c, 1, 70, 64
3, 91672, Note_on_c, 1, 70, 0
3, 91720, Note_on_c, 1, 67, 64
3, 91752, Note_on_c, 1, 67, 0
3, 91760, Note_on_c, 1, 70, 64
3, 91792, Note_on_c, 1, 70, 0
3, 91840, Note_on_c, 1, 67, 64
3, 91872, Note_on_c, 1, 67, 0
3, 91880, Note_on_c, 1, 70, 64
3, 91912, Note_on_c, 1, 70, 0
3, 91960, Note_on_c, 1, 65, 64
3, 91992, Note_on_c, 1, 65, 0
3, 92000, Note_on_c, 1, 68, 64
3, 92032, Note_on_c, 1, 68, 0
3, 92080, Note_on_c, 1, 63, 64
3, 92112, Note_on_c, 1, 63, 0
3, 92120, Note_on_c, 1, 67, 64
3, 92152, Note_on_c, 1, 67, 0
3, 92200, Note_on_c, 1, 63, 64
3, 92232, Note_on_c, 1, 63, 0
3, 92240, Note_on_c, 1, 67, 64
3, 92272, Note_on_c, 1, 67, 0
3, 92320, Note_on_c, 1, 63, 64
3, 92352, Note_on_c, 1, 63, 0
3, 92360, Note_on_c, 1, 70, 64
3, 92392, Note_on_c, 1, 70, 0
3, 92440, Note_on_c, 1, 62, 64
3, 92472, Note_on_c, 1, 62, 0
3, 92480, Note_on_c, 1, 65, 64
3, 92512, Note_on_c, 1, 65, 0
3, 92560, Note_on_c, 1, 62, 64
3, 92592, Note_on_c, 1, 62, 0
3, 92600, Note_on_c, 1, 65, 64
3, 92632, Note_on_c, 1, 65, 0
3, 92680, Note_on_c, 1, 62, 64
3, 92712, Note_on_c, 1, 62, 0
3, 92720, Note_on_c, 1, 70, 64
3, 92752, Note_on_c, 1, 70, 0
3, 92800, Note_on_c, 1, 62, 64
3, 92832, Note_on_c, 1, 62, 0
3, 92840, Note_on_c, 1, 70, 64
3, 92872, Note_on_c, 1, 70, 0
3, 92920, Note_on_c, 1, 63, 64
3, 92952, Note_on_c, 1, 63, 0
3, 92960, Note_on_c, 1, 72, 64
3, 92992, Note_on_c, 1, 72, 0
3, 93040, Note_on_c, 1, 65, 64
3, 93072, Note_on_c, 1, 65, 0
3, 93080, Note_on_c, 1, 74, 64
3, 93112, Note_on_c, 1, 74, 0
3, 93160, Note_on_c, 1, 67, 64
3, 93192, Note_on_c, 1, 67, 0
3, 93200, Note_on_c, 1, 75, 64
3, 93232, Note_on_c, 1, 75, 0
3, 93280, Note_on_c, 1, 66, 64
3, 93312, Note_on_c, 1, 66, 0
3, 93320, Note_on_c, 1, 75, 64
3, 93352, Note_on_c, 1, 75, 0
3, 93400, Note_on_c, 1, 66, 64
3, 93432, Note_on_c, 1, 66, 0
3, 93440, Note_on_c, 1, 75, 64
3, 93472, Note_on_c, 1, 75, 0
3, 93520, Note_on_c, 1, 66, 64
3, 93552, Note_on_c, 1, 66, 0
3, 93560, Note_on_c, 1, 75, 64
3, 93592, Note_on_c, 1, 75, 0
3, 93640, Note_on_c, 1, 65, 64
3, 93672, Note_on_c, 1, 65, 0
3, 93680, Note_on_c, 1, 74, 64
3, 93712, Note_on_c, 1, 74, 0
3, 93760, Note_on_c, 1, 62, 64
3, 93792, Note_on_c, 1, 62, 0
3, 93800, Note_on_c, 1, 70, 64
3, 93832, Note_on_c, 1, 70, 0
3, 93880, Note_on_c, 1, 63, 64
3, 93912, Note_on_c, 1, 63, 0
3, 93920, Note_on_c, 1, 69, 64
3, 93952, Note_on_c, 1, 69, 0
3, 94000, Note_on_c, 1, 65, 64
3, 94032, Note_on_c, 1, 65, 0
3, 94040, Note_on_c, 1, 68, 64
3, 94072, Note_on_c, 1, 68, 0
3, 94120, Note_on_c, 1, 63, 64
3, 94152, Note_on_c, 1, 63, 0
3, 94160, Note_on_c, 1, 66, 64
3, 94192, Note_on_c, 1, 66, 0
3, 94240, Note_on_c, 1, 63, 64
3, 94272, Note_on_c, 1, 63, 0
3, 94280, Note_on_c, 1, 66, 64
3, 94312, Note_on_c, 1, 66, 0
3, 94360, Note_on_c, 1, 66, 64
3, 94392, Note_on_c, 1, 66, 0
3, 94400, Note_on_c, 1, 75, 64
3, 94432, Note_on_c, 1, 75, 0
3, 94480, Note_on_c, 1, 66, 64
3, 94512, Note_on_c, 1, 66, 0
3, 94520, Note_on_c, 1, 75, 64
3, 94552, Note_on_c, 1, 75, 0
3, 94600, Note_on_c, 1, 65, 64
3, 94632, Note_on_c, 1, 65, 0
3, 94640, Note_on_c, 1, 75, 64
3, 94672, Note_on_c, 1, 75, 0
3, 94720, Note_on_c, 1, 65, 64
3, 94752, Note_on_c, 1, 65, 0
3, 94760, Note_on_c, 1, 74, 64
3, 94792, Note_on_c, 1, 74, 0
3, 94840, Note_on_c, 1, 63, 64
3, 94872, Note_on_c, 1, 63, 0
3, 94880, Note_on_c, 1, 72, 64
3, 94912, Note_on_c, 1, 72, 0
3, 94960, Note_on_c, 1, 62, 64
3, 94992, Note_on_c, 1, 62, 0
3, 95000, Note_on_c, 1, 70, 64
3, 95032, Note_on_c, 1, 70, 0
3, 95080, Note_on_c, 1, 65, 64
3, 95112, Note_on_c, 1, 65, 0
3, 95120, Note_on_c, 1, 75, 64
3, 95152, Note_on_c, 1, 75, 0
3, 95200, Note_on_c, 1, 65, 64
3, 95232, Note_on_c, 1, 65, 0
3, 95240, Note_on_c, 1, 74, 64
3, 95272, Note_on_c, 1, 74, 0
3, 95320, Note_on_c, 1, 63, 64
3, 95352, Note_on_c, 1, 63, 0
3, 95360, Note_on_c, 1, 72, 64
3, 95392, Note_on_c, 1, 72, 0
3, 95440, Note_on_c, 1, 62, 64
3, 95472, Note_on_c, 1, 62, 0
3, 95480, Note_on_c, 1, 70, 64
3, 95512, Note_on_c, 1, 70, 0
3, 95560, Note_on_c, 1, 63, 64
3, 95592, Note_on_c, 1, 63, 0
3, 95600, Note_on_c, 1, 70, 64
3, 95632, Note_on_c, 1, 70, 0
3, 95680, Note_on_c, 1, 63, 64
3, 95712, Note_on_c, 1, 63, 0
3, 95720, Note_on_c, 1, 67, 64
3, 95752, Note_on_c, 1, 67, 0
3, 95800, Note_on_c, 1, 63, 64
3, 95832, Note_on_c, 1, 63, 0
3, 95840, Note_on_c, 1, 68, 64
3, 95872, Note_on_c, 1, 68, 0
3, 95920, Note_on_c, 1, 63, 64
3, 95952, Note_on_c, 1, 63, 0
3, 95960, Note_on_c, 1, 66, 64
3, 95992, Note_on_c, 1, 66, 0
3, 96040, Note_on_c, 1, 63, 64
3, 96072, Note_on_c, 1, 63, 0
3, 96080, Note_on_c, 1, 67, 64
3, 96112, Note_on_c, 1, 67, 0
3, 96160, Note_on_c, 1, 67, 64
3, 96192, Note_on_c, 1, 67, 0
3, 96200, Note_on_c, 1, 70, 64
3, 96232, Note_on_c, 1, 70, 0
3, 96280, Note_on_c, 1, 68, 64
3, 96312, Note_on_c, 1, 68, 0
3, 96320, Note_on_c, 1, 70, 64
3, 96352, Note_on_c, 1, 70, 0
3, 96400, Note_on_c, 1, 65, 64
3, 96432, Note_on_c, 1, 65, 0
3, 96440, Note_on_c, 1, 70, 64
3, 96472, Note_on_c, 1, 70, 0
3, 96520, Note_on_c, 1, 67, 64
3, 96552, Note_on_c, 1, 67, 0
3, 96560, Note_on_c, 1, 70, 64
3, 96592, Note_on_c, 1, 70, 0
3, 96640, Note_on_c, 1, 70, 64
3, 96672, Note_on_c, 1, 70, 0
3, 96680, Note_on_c, 1, 75, 64
3, 96712, Note_on_c, 1, 75, 0
3, 96760, Note_on_c, 1, 75, 64
3, 96792, Note_on_c, 1, 75, 0
3, 96800, Note_on_c, 1, 79, 64
3, 96832, Note_on_c, 1, 79, 0
3, 96880, Note_on_c, 1, 79, 64
3, 96912, Note_on_c, 1, 79, 0
3, 96920, Note_on_c, 1, 82, 64
3, 96952, Note_on_c, 1, 82, 0
3, 97000, Note_on_c, 1, 65, 64
3, 97032, Note_on_c, 1, 65, 0
3, 97040, Note_on_c, 1, 75, 64
3, 97072, Note_on_c, 1, 75, 0
3, 97120, Note_on_c, 1, 65, 64
3, 97152, Note_on_c, 1, 65, 0
3, 97160, Note_on_c, 1, 74, 64
3, 97192, Note_on_c, 1, 74, 0
3, 97240, Note_on_c, 1, 63, 64
3, 97272, Note_on_c, 1, 63, 0
3, 97280, Note_on_c, 1, 72, 64
3, 97312, Note_on_c, 1, 72, 0
3, 97360, Note_on_c, 1, 62, 64
3, 97392, Note_on_c, 1, 62, 0
3, 97400, Note_on_c, 1, 70, 64
3, 97432, Note_on_c, 1, 70, 0
3, 97480, Note_on_c, 1, 65, 64
3, 97512, Note_on_c, 1, 65, 0
3, 97520, Note_on_c, 1, 75, 64
3, 97552, Note_on_c, 1, 75, 0
3, 97600, Note_on_c, 1, 65, 64
3, 97632, Note_on_c, 1, 65, 0
3, 97640, Note_on_c, 1, 74, 64
3, 97672, Note_on_c, 1, 74, 0
3, 97720, Note_on_c, 1, 63, 64
3, 97752, Note_on_c, 1, 63, 0
3, 97760, Note_on_c, 1, 72, 64
3, 97792, Note_on_c, 1, 72, 0
3, 97840, Note_on_c, 1, 62, 64
3, 97872, Note_on_c, 1, 62, 0
3, 97880, Note_on_c, 1, 70, 64
3, 97912, Note_on_c, 1, 70, 0
3, 97960, Note_on_c, 1, 63, 64
3, 97992, Note_on_c, 1, 63, 0
3, 98000, Note_on_c, 1, 70, 64
3, 98032, Note_on_c, 1, 70, 0
3, 98080, Note_on_c, 1, 63, 64
3, 98112, Note_on_c, 1, 63, 0
3, 98120, Note_on_c, 1, 67, 64
3, 98152, Note_on_c, 1, 67, 0
3, 98200, Note_on_c, 1, 63, 64
3, 98232, Note_on_c, 1, 63, 0
3, 98240, Note_on_c, 1, 68, 64
3, 98272, Note_on_c, 1, 68, 0
3, 98320, Note_on_c, 1, 63, 64
3, 98352, Note_on_c, 1, 63, 0
3, 98360, Note_on_c, 1, 66, 64
3, 98392, Note_on_c, 1, 66, 0
3, 98440, Note_on_c, 1, 63, 64
3, 98472, Note_on_c, 1, 63, 0
3, 98480, Note_on_c, 1, 67, 64
3, 98512, Note_on_c, 1, 67, 0
3, 98560, Note_on_c, 1, 67, 64
3, 98592, Note_on_c, 1, 67, 0
3, 98600, Note_on_c, 1, 70, 64
3, 98632, Note_on_c, 1, 70, 0
3, 98680, Note_on_c, 1, 68, 64
3, 98712, Note_on_c, 1, 68, 0
3, 98720, Note_on_c, 1, 70, 64
3, 98752, Note_on_c, 1, 70, 0
3, 98800, Note_on_c, 1, 65, 64
3, 98832, Note_on_c, 1, 65, 0
3, 98840, Note_on_c, 1, 70, 64
3, 98840, Note_on_c, 1, 68, 64
3, 98872, Note_on_c, 1, 68, 0
3, 98872, Note_on_c, 1, 70, 0
3, 98880, Note_on_c, 1, 70, 64
3, 98880, Note_on_c, 1, 68, 64
3, 99072, Note_on_c, 1, 68, 0
3, 99072, Note_on_c, 1, 70, 0
3, 99120, Note_on_c, 1, 70, 64
3, 99216, Note_on_c, 1, 70, 0
3, 99400, Note_on_c, 1, 62, 64
3, 99432, Note_on_c, 1, 62, 0
3, 99440, Note_on_c, 1, 70, 64
3, 99472, Note_on_c, 1, 70, 0
3, 99520, Note_on_c, 1, 62, 64
3, 99552, Note_on_c, 1, 62, 0
3, 99560, Note_on_c, 1, 70, 64
3, 99592, Note_on_c, 1, 70, 0
3, 99640, Note_on_c, 1, 63, 64
3, 99672, Note_on_c, 1, 63, 0
3, 99680, Note_on_c, 1, 72, 64
3, 99712, Note_on_c, 1, 72, 0
3, 99760, Note_on_c, 1, 65, 64
3, 99792, Note_on_c, 1, 65, 0
3, 99800, Note_on_c, 1, 74, 64
3, 99832, Note_on_c, 1, 74, 0
3, 99880, Note_on_c, 1, 67, 64
3, 99912, Note_on_c, 1, 67, 0
3, 99920, Note_on_c, 1, 75, 64
3, 99952, Note_on_c, 1, 75, 0
3, 100000, Note_on_c, 1, 66, 64
3, 100032, Note_on_c, 1, 66, 0
3, 100040, Note_on_c, 1, 75, 64
3, 100072, Note_on_c, 1, 75, 0
3, 100120, Note_on_c, 1, 66, 64
3, 100152, Note_on_c, 1, 66, 0
3, 100160, Note_on_c, 1, 75, 64
3, 100192, Note_on_c, 1, 75, 0
3, 100240, Note_on_c, 1, 66, 64
3, 100272, Note_on_c, 1, 66, 0
3, 100280, Note_on_c, 1, 75, 64
3, 100312, Note_on_c, 1, 75, 0
3, 100360, Note_on_c, 1, 65, 64
3, 100392, Note_on_c, 1, 65, 0
3, 100400, Note_on_c, 1, 74, 64
3, 100432, Note_on_c, 1, 74, 0
3, 100480, Note_on_c, 1, 62, 64
3, 100512, Note_on_c, 1, 62, 0
3, 100520, Note_on_c, 1, 70, 64
3, 100552, Note_on_c, 1, 70, 0
3, 100600, Note_on_c, 1, 63, 64
3, 100632, Note_on_c, 1, 63, 0
3, 100640, Note_on_c, 1, 69, 64
3, 100672, Note_on_c, 1, 69, 0
3, 100720, Note_on_c, 1, 65, 64
3, 100752, Note_on_c, 1, 65, 0
3, 100760, Note_on_c, 1, 68, 64
3, 100792, Note_on_c, 1, 68, 0
3, 100840, Note_on_c, 1, 63, 64
3, 100872, Note_on_c, 1, 63, 0
3, 100880, Note_on_c, 1, 66, 64
3, 100912, Note_on_c, 1, 66, 0
3, 100960, Note_on_c, 1, 63, 64
3, 100992, Note_on_c, 1, 63, 0
3, 101000, Note_on_c, 1, 66, 64
3, 101032, Note_on_c, 1, 66, 0
3, 101080, Note_on_c, 1, 66, 64
3, 101112, Note_on_c, 1, 66, 0
3, 101120, Note_on_c, 1, 75, 64
3, 101152, Note_on_c, 1, 75, 0
3, 101200, Note_on_c, 1, 66, 64
3, 101232, Note_on_c, 1, 66, 0
3, 101240, Note_on_c, 1, 75, 64
3, 101272, Note_on_c, 1, 75, 0
3, 101320, Note_on_c, 1, 65, 64
3, 101352, Note_on_c, 1, 65, 0
3, 101360, Note_on_c, 1, 75, 64
3, 101392, Note_on_c, 1, 75, 0
3, 101440, Note_on_c, 1, 65, 64
3, 101472, Note_on_c, 1, 65, 0
3, 101480, Note_on_c, 1, 74, 64
3, 101512, Note_on_c, 1, 74, 0
3, 101560, Note_on_c, 1, 63, 64
3, 101592, Note_on_c, 1, 63, 0
3, 101600, Note_on_c, 1, 72, 64
3, 101632, Note_on_c, 1, 72, 0
3, 101680, Note_on_c, 1, 62, 64
3, 101712, Note_on_c, 1, 62, 0
3, 101720, Note_on_c, 1, 70, 64
3, 101752, Note_on_c, 1, 70, 0
3, 101800, Note_on_c, 1, 65, 64
3, 101832, Note_on_c, 1, 65, 0
3, 101840, Note_on_c, 1, 75, 64
3, 101872, Note_on_c, 1, 75, 0
3, 101920, Note_on_c, 1, 65, 64
3, 101952, Note_on_c, 1, 65, 0
3, 101960, Note_on_c, 1, 74, 64
3, 101992, Note_on_c, 1, 74, 0
3, 102040, Note_on_c, 1, 63, 64
3, 102072, Note_on_c, 1, 63, 0
3, 102080, Note_on_c, 1, 72, 64
3, 102112, Note_on_c, 1, 72, 0
3, 102160, Note_on_c, 1, 62, 64
3, 102192, Note_on_c, 1, 62, 0
3, 102200, Note_on_c, 1, 70, 64
3, 102232, Note_on_c, 1, 70, 0
3, 102280, Note_on_c, 1, 63, 64
3, 102312, Note_on_c, 1, 63, 0
3, 102320, Note_on_c, 1, 70, 64
3, 102352, Note_on_c, 1, 70, 0
3, 102400, Note_on_c, 1, 63, 64
3, 102432, Note_on_c, 1, 63, 0
3, 102440, Note_on_c, 1, 67, 64
3, 102472, Note_on_c, 1, 67, 0
3, 102520, Note_on_c, 1, 63, 64
3, 102552, Note_on_c, 1, 63, 0
3, 102560, Note_on_c, 1, 68, 64
3, 102592, Note_on_c, 1, 68, 0
3, 102640, Note_on_c, 1, 63, 64
3, 102672, Note_on_c, 1, 63, 0
3, 102680, Note_on_c, 1, 66, 64
3, 102712, Note_on_c, 1, 66, 0
3, 102760, Note_on_c, 1, 63, 64
3, 102792, Note_on_c, 1, 63, 0
3, 102800, Note_on_c, 1, 67, 64
3, 102832, Note_on_c, 1, 67, 0
3, 102880, Note_on_c, 1, 67, 64
3, 102912, Note_on_c, 1, 67, 0
3, 102920, Note_on_c, 1, 70, 64
3, 102952, Note_on_c, 1, 70, 0
3, 103000, Note_on_c, 1, 68, 64
3, 103032, Note_on_c, 1, 68, 0
3, 103040, Note_on_c, 1, 70, 64
3, 103072, Note_on_c, 1, 70, 0
3, 103120, Note_on_c, 1, 65, 64
3, 103152, Note_on_c, 1, 65, 0
3, 103160, Note_on_c, 1, 70, 64
3, 103192, Note_on_c, 1, 70, 0
3, 103240, Note_on_c, 1, 67, 64
3, 103272, Note_on_c, 1, 67, 0
3, 103280, Note_on_c, 1, 70, 64
3, 103312, Note_on_c, 1, 70, 0
3, 103360, Note_on_c, 1, 70, 64
3, 103392, Note_on_c, 1, 70, 0
3, 103400, Note_on_c, 1, 75, 64
3, 103432, Note_on_c, 1, 75, 0
3, 103480, Note_on_c, 1, 75, 64
3, 103512, Note_on_c, 1, 75, 0
3, 103520, Note_on_c, 1, 79, 64
3, 103552, Note_on_c, 1, 79, 0
3, 103600, Note_on_c, 1, 79, 64
3, 103632, Note_on_c, 1, 79, 0
3, 103640, Note_on_c, 1, 82, 64
3, 103672, Note_on_c, 1, 82, 0
3, 103720, Note_on_c, 1, 65, 64
3, 103752, Note_on_c, 1, 65, 0
3, 103760, Note_on_c, 1, 75, 64
3, 103792, Note_on_c, 1, 75, 0
3, 103840, Note_on_c, 1, 65, 64
3, 103872, Note_on_c, 1, 65, 0
3, 103880, Note_on_c, 1, 74, 64
3, 103912, Note_on_c, 1, 74, 0
3, 103960, Note_on_c, 1, 63, 64
3, 103992, Note_on_c, 1, 63, 0
3, 104000, Note_on_c, 1, 72, 64
3, 104032, Note_on_c, 1, 72, 0
3, 104080, Note_on_c, 1, 62, 64
3, 104112, Note_on_c, 1, 62, 0
3, 104120, Note_on_c, 1, 70, 64
3, 104152, Note_on_c, 1, 70, 0
3, 104200, Note_on_c, 1, 65, 64
3, 104232, Note_on_c, 1, 65, 0
3, 104240, Note_on_c, 1, 75, 64
3, 104272, Note_on_c, 1, 75, 0
3, 104320, Note_on_c, 1, 65, 64
3, 104352, Note_on_c, 1, 65, 0
3, 104360, Note_on_c, 1, 74, 64
3, 104392, Note_on_c, 1, 74, 0
3, 104440, Note_on_c, 1, 63, 64
3, 104472, Note_on_c, 1, 63, 0
3, 104480, Note_on_c, 1, 72, 64
3, 104512, Note_on_c, 1, 72, 0
3, 104560, Note_on_c, 1, 62, 64
3, 104592, Note_on_c, 1, 62, 0
3, 104600, Note_on_c, 1, 70, 64
3, 104632, Note_on_c, 1, 70, 0
3, 104680, Note_on_c, 1, 63, 64
3, 104712, Note_on_c, 1, 63, 0
3, 104720, Note_on_c, 1, 70, 64
3, 104752, Note_on_c, 1, 70, 0
3, 104800, Note_on_c, 1, 63, 64
3, 104832, Note_on_c, 1, 63, 0
3, 104840, Note_on_c, 1, 67, 64
3, 104872, Note_on_c, 1, 67, 0
3, 104920, Note_on_c, 1, 63, 64
3, 104952, Note_on_c, 1, 63, 0
3, 104960, Note_on_c, 1, 68, 64
3, 104992, Note_on_c, 1, 68, 0
3, 105040, Note_on_c, 1, 63, 64
3, 105072, Note_on_c, 1, 63, 0
3, 105080, Note_on_c, 1, 66, 64
3, 105112, Note_on_c, 1, 66, 0
3, 105160, Note_on_c, 1, 63, 64
3, 105192, Note_on_c, 1, 63, 0
3, 105200, Note_on_c, 1, 67, 64
3, 105232, Note_on_c, 1, 67, 0
3, 105280, Note_on_c, 1, 67, 64
3, 105312, Note_on_c, 1, 67, 0
3, 105320, Note_on_c, 1, 70, 64
3, 105352, Note_on_c, 1, 70, 0
3, 105400, Note_on_c, 1, 68, 64
3, 105432, Note_on_c, 1, 68, 0
3, 105440, Note_on_c, 1, 70, 64
3, 105472, Note_on_c, 1, 70, 0
3, 105520, Note_on_c, 1, 65, 64
3, 105552, Note_on_c, 1, 65, 0
3, 105560, Note_on_c, 1, 68, 64
3, 105560, Note_on_c, 1, 70, 64
3, 105592, Note_on_c, 1, 70, 0
3, 105592, Note_on_c, 1, 68, 0
3, 105600, Note_on_c, 1, 68, 64
3, 105600, Note_on_c, 1, 70, 64
3, 105792, Note_on_c, 1, 70, 0
3, 105792, Note_on_c, 1, 68, 0
3, 105840, Note_on_c, 1, 70, 64
3, 105936, Note_on_c, 1, 70, 0
3, 109440, Note_on_c, 1, 55, 80
3, 109632, Note_on_c, 1, 55, 0
3, 109680, Note_on_c, 1, 53, 80
3, 109776, Note_on_c, 1, 53, 0
3, 113280, Note_on_c, 1, 55, 80
3, 113472, Note_on_c, 1, 55, 0
3, 113520, Note_on_c, 1, 53, 80
3, 113616, Note_on_c, 1, 53, 0
3, 113760, Note_on_c, 1, 61, 80
3, 113856, Note_on_c, 1, 61, 0
3, 113880, Note_on_c, 1, 62, 80
3, 113976, Note_on_c, 1, 62, 0
3, 114000, Note_on_c, 1, 63, 80
3, 114096, Note_on_c, 1, 63, 0
3, 114120, Note_on_c, 1, 65, 80
3, 114216, Note_on_c, 1, 65, 0
3, 114240, Note_on_c, 1, 62, 80
3, 114336, Note_on_c, 1, 62, 0
3, 114360, Note_on_c, 1, 63, 80
3, 114456, Note_on_c, 1, 63, 0
3, 114480, Note_on_c, 1, 66, 80
3, 114576, Note_on_c, 1, 66, 0
3, 114600, Note_on_c, 1, 67, 80
3, 114696, Note_on_c, 1, 67, 0
3, 115800, Note_on_c, 1, 56, 80
3, 115992, Note_on_c, 1, 56, 0
3, 116040, Note_on_c, 1, 56, 80
3, 116136, Note_on_c, 1, 56, 0
3, 116280, Note_on_c, 1, 53, 80
3, 116472, Note_on_c, 1, 53, 0
3, 116520, Note_on_c, 1, 53, 80
3, 116616, Note_on_c, 1, 53, 0
3, 116760, Note_on_c, 1, 51, 80
3, 116856, Note_on_c, 1, 51, 0
3, 117000, Note_on_c, 1, 51, 80
3, 117096, Note_on_c, 1, 51, 0
3, 117240, Note_on_c, 1, 55, 80
3, 117336, Note_on_c, 1, 55, 0
3, 117480, Note_on_c, 1, 56, 80
3, 117576, Note_on_c, 1, 56, 0
3, 117600, Note_on_c, 1, 57, 80
3, 117984, Note_on_c, 1, 57, 0
3, 118080, Note_on_c, 1, 56, 80
3, 118176, Note_on_c, 1, 56, 0
3, 118200, Note_on_c, 1, 56, 80
3, 118488, Note_on_c, 1, 56, 0
3, 118560, Note_on_c, 1, 54, 80
3, 118656, Note_on_c, 1, 54, 0
3, 118680, Note_on_c, 1, 53, 80
3, 118968, Note_on_c, 1, 53, 0
3, 120480, Note_on_c, 1, 61, 80
3, 120576, Note_on_c, 1, 61, 0
3, 120600, Note_on_c, 1, 62, 80
3, 120696, Note_on_c, 1, 62, 0
3, 120720, Note_on_c, 1, 63, 80
3, 120816, Note_on_c, 1, 63, 0
3, 120840, Note_on_c, 1, 65, 80
3, 120936, Note_on_c, 1, 65, 0
3, 120960, Note_on_c, 1, 62, 80
3, 121056, Note_on_c, 1, 62, 0
3, 121080, Note_on_c, 1, 63, 80
3, 121176, Note_on_c, 1, 63, 0
3, 121200, Note_on_c, 1, 66, 80
3, 121296, Note_on_c, 1, 66, 0
3, 121320, Note_on_c, 1, 67, 80
3, 121416, Note_on_c, 1, 67, 0
3, 122520, Note_on_c, 1, 56, 80
3, 122712, Note_on_c, 1, 56, 0
3, 122760, Note_on_c, 1, 56, 80
3, 122856, Note_on_c, 1, 56, 0
3, 123000, Note_on_c, 1, 53, 80
3, 123192, Note_on_c, 1, 53, 0
3, 123240, Note_on_c, 1, 53, 80
3, 123336, Note_on_c, 1, 53, 0
3, 123480, Note_on_c, 1, 51, 80
3, 123576, Note_on_c, 1, 51, 0
3, 123720, Note_on_c, 1, 51, 80
3, 123816, Note_on_c, 1, 51, 0
3, 123960, Note_on_c, 1, 55, 80
3, 124056, Note_on_c, 1, 55, 0
3, 124200, Note_on_c, 1, 56, 80
3, 124296, Note_on_c, 1, 56, 0
3, 124320, Note_on_c, 1, 57, 80
3, 124704, Note_on_c, 1, 57, 0
3, 124800, Note_on_c, 1, 56, 80
3, 124896, Note_on_c, 1, 56, 0
3, 124920, Note_on_c, 1, 56, 80
3, 125208, Note_on_c, 1, 56, 0
3, 125280, Note_on_c, 1, 54, 80
3, 125376, Note_on_c, 1, 54, 0
3, 125400, Note_on_c, 1, 53, 80
3, 125688, Note_on_c, 1, 53, 0
3, 127200, Note_on_c, 1, 67, 80
3, 127392, Note_on_c, 1, 67, 0
3, 127440, Note_on_c, 1, 63, 80
3, 127536, Note_on_c, 1, 63, 0
3, 127560, Note_on_c, 1, 63, 80
3, 127656, Note_on_c, 1, 63, 0
3, 127680, Note_on_c, 1, 63, 80
3, 127968, Note_on_c, 1, 63, 0
3, 128160, Note_on_c, 1, 63, 80
3, 128256, Note_on_c, 1, 63, 0
3, 128280, Note_on_c, 1, 63, 80
3, 128376, Note_on_c, 1, 63, 0
3, 128400, Note_on_c, 1, 63, 80
3, 128592, Note_on_c, 1, 63, 0
3, 128640, Note_on_c, 1, 63, 80
3, 128736, Note_on_c, 1, 63, 0
3, 128760, Note_on_c, 1, 65, 80
3, 128856, Note_on_c, 1, 65, 0
3, 128880, Note_on_c, 1, 63, 80
3, 128976, Note_on_c, 1, 63, 0
3, 129120, Note_on_c, 1, 67, 80
3, 129312, Note_on_c, 1, 67, 0
3, 129360, Note_on_c, 1, 68, 80
3, 129456, Note_on_c, 1, 68, 0
3, 129480, Note_on_c, 1, 65, 80
3, 129576, Note_on_c, 1, 65, 0
3, 129600, Note_on_c, 1, 63, 80
3, 129696, Note_on_c, 1, 63, 0
3, 129720, Note_on_c, 1, 67, 80
3, 129816, Note_on_c, 1, 67, 0
3, 129840, Note_on_c, 1, 68, 80
3, 129936, Note_on_c, 1, 68, 0
3, 129960, Note_on_c, 1, 65, 80
3, 130056, Note_on_c, 1, 65, 0
3, 130080, Note_on_c, 1, 63, 80
3, 130176, Note_on_c, 1, 63, 0
3, 130200, Note_on_c, 1, 67, 80
3, 130296, Note_on_c, 1, 67, 0
3, 130320, Note_on_c, 1, 65, 80
3, 130416, Note_on_c, 1, 65, 0
3, 130440, Note_on_c, 1, 63, 80
3, 130536, Note_on_c, 1, 63, 0
3, 130560, Note_on_c, 1, 63, 80
3, 130752, Note_on_c, 1, 63, 0
3, 130800, Note_on_c, 1, 62, 80
3, 130896, Note_on_c, 1, 62, 0
3, 131040, Note_on_c, 1, 67, 80
3, 131232, Note_on_c, 1, 67, 0
3, 131280, Note_on_c, 1, 63, 80
3, 131376, Note_on_c, 1, 63, 0
3, 131400, Note_on_c, 1, 63, 80
3, 131496, Note_on_c, 1, 63, 0
3, 131520, Note_on_c, 1, 63, 80
3, 131808, Note_on_c, 1, 63, 0
3, 132000, Note_on_c, 1, 63, 80
3, 132096, Note_on_c, 1, 63, 0
3, 132120, Note_on_c, 1, 63, 80
3, 132216, Note_on_c, 1, 63, 0
3, 132240, Note_on_c, 1, 63, 80
3, 132432, Note_on_c, 1, 63, 0
3, 132480, Note_on_c, 1, 63, 80
3, 132576, Note_on_c, 1, 63, 0
3, 132600, Note_on_c, 1, 65, 80
3, 132696, Note_on_c, 1, 65, 0
3, 132720, Note_on_c, 1, 63, 80
3, 132816, Note_on_c, 1, 63, 0
3, 132960, Note_on_c, 1, 67, 80
3, 133152, Note_on_c, 1, 67, 0
3, 133200, Note_on_c, 1, 68, 80
3, 133296, Note_on_c, 1, 68, 0
3, 133320, Note_on_c, 1, 65, 80
3, 133416, Note_on_c, 1, 65, 0
3, 133440, Note_on_c, 1, 63, 80
3, 133536, Note_on_c, 1, 63, 0
3, 133560, Note_on_c, 1, 67, 80
3, 133656, Note_on_c, 1, 67, 0
3, 133680, Note_on_c, 1, 68, 80
3, 133776, Note_on_c, 1, 68, 0
3, 133800, Note_on_c, 1, 65, 80
3, 133896, Note_on_c, 1, 65, 0
3, 133920, Note_on_c, 1, 63, 80
3, 134016, Note_on_c, 1, 63, 0
3, 134040, Note_on_c, 1, 67, 80
3, 134136, Note_on_c, 1, 67, 0
3, 134160, Note_on_c, 1, 65, 80
3, 134256, Note_on_c, 1, 65, 0
3, 134280, Note_on_c, 1, 63, 80
3, 134376, Note_on_c, 1, 63, 0
3, 134400, Note_on_c, 1, 63, 80
3, 134592, Note_on_c, 1, 63, 0
3, 134640, Note_on_c, 1, 62, 80
3, 134736, Note_on_c, 1, 62, 0
3, 134880, Note_on_c, 1, 62, 80
3, 134976, Note_on_c, 1, 62, 0
3, 135000, Note_on_c, 1, 63, 80
3, 135096, Note_on_c, 1, 63, 0
3, 135120, Note_on_c, 1, 62, 80
3, 135216, Note_on_c, 1, 62, 0
3, 135240, Note_on_c, 1, 65, 80
3, 135240, Note_on_c, 1, 62, 80
3, 135336, Note_on_c, 1, 62, 0
3, 135336, Note_on_c, 1, 65, 0
3, 135360, Note_on_c, 1, 65, 80
3, 135552, Note_on_c, 1, 65, 0
3, 135600, Note_on_c, 1, 63, 80
3, 135696, Note_on_c, 1, 63, 0
3, 135720, Note_on_c, 1, 67, 80
3, 135816, Note_on_c, 1, 67, 0
3, 135840, Note_on_c, 1, 65, 80
3, 135936, Note_on_c, 1, 65, 0
3, 135960, Note_on_c, 1, 63, 80
3, 135960, Note_on_c, 1, 69, 80
3, 136056, Note_on_c, 1, 69, 0
3, 136056, Note_on_c, 1, 63, 0
3, 136080, Note_on_c, 1, 65, 80
3, 136176, Note_on_c, 1, 65, 0
3, 136200, Note_on_c, 1, 74, 80
3, 136296, Note_on_c, 1, 74, 0
3, 136320, Note_on_c, 1, 70, 80
3, 136320, Note_on_c, 1, 77, 80
3, 136512, Note_on_c, 1, 77, 0
3, 136512, Note_on_c, 1, 70, 0
3, 136560, Note_on_c, 1, 70, 80
3, 136560, Note_on_c, 1, 75, 80
3, 136656, Note_on_c, 1, 75, 0
3, 136656, Note_on_c, 1, 70, 0
3, 136800, Note_on_c, 1, 68, 80
3, 137184, Note_on_c, 1, 68, 0
3, 137280, Note_on_c, 1, 68, 80
3, 137568, Note_on_c, 1, 68, 0
3, 137640, Note_on_c, 1, 65, 80
3, 137736, Note_on_c, 1, 65, 0
3, 137760, Note_on_c, 1, 63, 80
3, 138048, Note_on_c, 1, 63, 0
3, 138120, Note_on_c, 1, 65, 80
3, 138216, Note_on_c, 1, 65, 0
3, 138240, Note_on_c, 1, 63, 80
3, 138528, Note_on_c, 1, 63, 0
3, 138600, Note_on_c, 1, 62, 80
3, 138696, Note_on_c, 1, 62, 0
3, 138720, Note_on_c, 1, 62, 80
3, 138720, Note_on_c, 1, 65, 80
3, 138912, Note_on_c, 1, 65, 0
3, 138912, Note_on_c, 1, 62, 0
3, 138960, Note_on_c, 1, 63, 80
3, 139056, Note_on_c, 1, 63, 0
3, 139080, Note_on_c, 1, 66, 80
3, 139080, Note_on_c, 1, 69, 80
3, 139176, Note_on_c, 1, 69, 0
3, 139176, Note_on_c, 1, 66, 0
3, 139200, Note_on_c, 1, 68, 80
3, 139584, Note_on_c, 1, 68, 0
3, 139680, Note_on_c, 1, 68, 80
3, 139968, Note_on_c, 1, 68, 0
3, 140040, Note_on_c, 1, 70, 80
3, 140136, Note_on_c, 1, 70, 0
3, 140160, Note_on_c, 1, 70, 80
3, 140352, Note_on_c, 1, 70, 0
3, 140400, Note_on_c, 1, 68, 80
3, 140496, Note_on_c, 1, 68, 0
3, 140520, Note_on_c, 1, 67, 80
3, 140568, Note_on_c, 1, 67, 0
3, 140580, Note_on_c, 1, 65, 80
3, 140628, Note_on_c, 1, 65, 0
3, 140640, Note_on_c, 1, 63, 80
3, 140928, Note_on_c, 1, 63, 0
3, 141000, Note_on_c, 1, 62, 80
3, 141096, Note_on_c, 1, 62, 0
3, 141600, Note_on_c, 1, 62, 80
3, 141696, Note_on_c, 1, 62, 0
3, 141720, Note_on_c, 1, 63, 80
3, 141816, Note_on_c, 1, 63, 0
3, 141840, Note_on_c, 1, 62, 80
3, 141936, Note_on_c, 1, 62, 0
3, 141960, Note_on_c, 1, 62, 80
3, 141960, Note_on_c, 1, 65, 80
3, 142056, Note_on_c, 1, 65, 0
3, 142056, Note_on_c, 1, 62, 0
3, 142080, Note_on_c, 1, 65, 80
3, 142272, Note_on_c, 1, 65, 0
3, 142320, Note_on_c, 1, 63, 80
3, 142416, Note_on_c, 1, 63, 0
3, 142440, Note_on_c, 1, 67, 80
3, 142536, Note_on_c, 1, 67, 0
3, 142560, Note_on_c, 1, 65, 80
3, 142656, Note_on_c, 1, 65, 0
3, 142680, Note_on_c, 1, 69, 80
3, 142680, Note_on_c, 1, 63, 80
3, 142776, Note_on_c, 1, 63, 0
3, 142776, Note_on_c, 1, 69, 0
3, 142800, Note_on_c, 1, 65, 80
3, 142896, Note_on_c, 1, 65, 0
3, 142920, Note_on_c, 1, 74, 80
3, 143016, Note_on_c, 1, 74, 0
3, 143040, Note_on_c, 1, 77, 80
3, 143040, Note_on_c, 1, 70, 80
3, 143232, Note_on_c, 1, 70, 0
3, 143232, Note_on_c, 1, 77, 0
3, 143280, Note_on_c, 1, 75, 80
3, 143280, Note_on_c, 1, 70, 80
3, 143376, Note_on_c, 1, 70, 0
3, 143376, Note_on_c, 1, 75, 0
3, 143520, Note_on_c, 1, 68, 80
3, 143904, Note_on_c, 1, 68, 0
3, 144000, Note_on_c, 1, 68, 80
3, 144288, Note_on_c, 1, 68, 0
3, 144360, Note_on_c, 1, 65, 80
3, 144456, Note_on_c, 1, 65, 0
3, 144480, Note_on_c, 1, 63, 80
3, 144768, Note_on_c, 1, 63, 0
3, 144840, Note_on_c, 1, 65, 80
3, 144936, Note_on_c, 1, 65, 0
3, 144960, Note_on_c, 1, 63, 80
3, 145248, Note_on_c, 1, 63, 0
3, 145320, Note_on_c, 1, 62, 80
3, 145416, Note_on_c, 1, 62, 0
3, 145440, Note_on_c, 1, 65, 80
3, 145440, Note_on_c, 1, 62, 80
3, 145632, Note_on_c, 1, 62, 0
3, 145632, Note_on_c, 1, 65, 0
3, 145680, Note_on_c, 1, 63, 80
3, 145776, Note_on_c, 1, 63, 0
3, 145800, Note_on_c, 1, 69, 80
3, 145800, Note_on_c, 1, 66, 80
3, 145896, Note_on_c, 1, 66, 0
3, 145896, Note_on_c, 1, 69, 0
3, 145920, Note_on_c, 1, 68, 80
3, 146304, Note_on_c, 1, 68, 0
3, 146400, Note_on_c, 1, 68, 80
3, 146688, Note_on_c, 1, 68, 0
3, 146760, Note_on_c, 1, 70, 80
3, 146856, Note_on_c, 1, 70, 0
3, 146880, Note_on_c, 1, 70, 80
3, 147072, Note_on_c, 1, 70, 0
3, 147120, Note_on_c, 1, 68, 80
3, 147216, Note_on_c, 1, 68, 0
3, 147240, Note_on_c, 1, 67, 80
3, 147288, Note_on_c, 1, 67, 0
3, 147300, Note_on_c, 1, 65, 80
3, 147348, Note_on_c, 1, 65, 0
3, 147360, Note_on_c, 1, 63, 80
3, 147648, Note_on_c, 1, 63, 0
3, 147720, Note_on_c, 1, 62, 80
3, 147816, Note_on_c, 1, 62, 0
3, 147840, Note_on_c, 1, 58, 80
3, 148128, Note_on_c, 1, 58, 0
3, 157920, Note_on_c, 1, 65, 80
3, 157920, Note_on_c, 1, 68, 80
3, 158112, Note_on_c, 1, 68, 0
3, 158112, Note_on_c, 1, 65, 0
3, 158160, Note_on_c, 1, 65, 80
3, 158160, Note_on_c, 1, 68, 80
3, 158352, Note_on_c, 1, 68, 0
3, 158352, Note_on_c, 1, 65, 0
3, 158400, Note_on_c, 1, 65, 80
3, 158400, Note_on_c, 1, 68, 80
3, 158592, Note_on_c, 1, 68, 0
3, 158592, Note_on_c, 1, 65, 0
3, 158640, Note_on_c, 1, 62, 80
3, 158832, Note_on_c, 1, 62, 0
3, 158880, Note_on_c, 1, 63, 80
3, 159168, Note_on_c, 1, 63, 0
3, 159240, Note_on_c, 1, 65, 80
3, 159336, Note_on_c, 1, 65, 0
3, 159360, Note_on_c, 1, 67, 80
3, 159456, Note_on_c, 1, 67, 0
3, 159600, Note_on_c, 1, 65, 80
3, 159600, Note_on_c, 1, 68, 80
3, 159696, Note_on_c, 1, 68, 0
3, 159696, Note_on_c, 1, 65, 0
3, 159840, Note_on_c, 1, 67, 80
3, 159936, Note_on_c, 1, 67, 0
3, 160560, Note_on_c, 1, 77, 80
3, 160656, Note_on_c, 1, 77, 0
3, 160800, Note_on_c, 1, 77, 80
3, 160896, Note_on_c, 1, 77, 0
3, 161040, Note_on_c, 1, 77, 80
3, 161136, Note_on_c, 1, 77, 0
3, 161160, Note_on_c, 1, 70, 80
3, 161256, Note_on_c, 1, 70, 0
3, 161280, Note_on_c, 1, 75, 80
3, 161376, Note_on_c, 1, 75, 0
3, 161400, Note_on_c, 1, 75, 80
3, 161496, Note_on_c, 1, 75, 0
3, 161520, Note_on_c, 1, 75, 80
3, 161616, Note_on_c, 1, 75, 0
3, 161640, Note_on_c, 1, 75, 80
3, 161736, Note_on_c, 1, 75, 0
3, 162000, Note_on_c, 1, 68, 80
3, 162024, Note_on_c, 1, 68, 0
3, 162030, Note_on_c, 1, 67, 80
3, 162054, Note_on_c, 1, 67, 0
3, 162060, Note_on_c, 1, 65, 80
3, 162084, Note_on_c, 1, 65, 0
3, 162090, Note_on_c, 1, 63, 80
3, 162114, Note_on_c, 1, 63, 0
3, 162120, Note_on_c, 1, 62, 80
3, 162144, Note_on_c, 1, 62, 0
3, 162150, Note_on_c, 1, 60, 80
3, 162174, Note_on_c, 1, 60, 0
3, 162180, Note_on_c, 1, 58, 80
3, 162204, Note_on_c, 1, 58, 0
3, 162210, Note_on_c, 1, 56, 80
3, 162234, Note_on_c, 1, 56, 0
3, 162240, Note_on_c, 1, 56, 80
3, 162480, Note_on_c, 1, 56, 0
3, 162480, Note_on_c, 1, 55, 80
3, 162576, Note_on_c, 1, 55, 0
3, 164640, Note_on_c, 1, 68, 80
3, 164640, Note_on_c, 1, 65, 80
3, 164832, Note_on_c, 1, 65, 0
3, 164832, Note_on_c, 1, 68, 0
3, 164880, Note_on_c, 1, 68, 80
3, 164880, Note_on_c, 1, 65, 80
3, 165072, Note_on_c, 1, 65, 0
3, 165072, Note_on_c, 1, 68, 0
3, 165120, Note_on_c, 1, 68, 80
3, 165120, Note_on_c, 1, 65, 80
3, 165312, Note_on_c, 1, 65, 0
3, 165312, Note_on_c, 1, 68, 0
3, 165360, Note_on_c, 1, 62, 80
3, 165552, Note_on_c, 1, 62, 0
3, 165600, Note_on_c, 1, 63, 80
3, 165888, Note_on_c, 1, 63, 0
3, 165960, Note_on_c, 1, 65, 80
3, 166056, Note_on_c, 1, 65, 0
3, 166080, Note_on_c, 1, 67, 80
3, 166176, Note_on_c, 1, 67, 0
3, 166320, Note_on_c, 1, 68, 80
3, 166320, Note_on_c, 1, 65, 80
3, 166416, Note_on_c, 1, 65, 0
3, 166416, Note_on_c, 1, 68, 0
3, 166560, Note_on_c, 1, 67, 80
3, 166656, Note_on_c, 1, 67, 0
3, 167280, Note_on_c, 1, 77, 80
3, 167376, Note_on_c, 1, 77, 0
3, 167520, Note_on_c, 1, 77, 80
3, 167616, Note_on_c, 1, 77, 0
3, 167760, Note_on_c, 1, 77, 80
3, 167856, Note_on_c, 1, 77, 0
3, 167880, Note_on_c, 1, 70, 80
3, 167976, Note_on_c, 1, 70, 0
3, 168000, Note_on_c, 1, 75, 80
3, 168096, Note_on_c, 1, 75, 0
3, 168120, Note_on_c, 1, 75, 80
3, 168216, Note_on_c, 1, 75, 0
3, 168240, Note_on_c, 1, 75, 80
3, 168336, Note_on_c, 1, 75, 0
3, 168360, Note_on_c, 1, 75, 80
3, 168456, Note_on_c, 1, 75, 0
3, 168720, Note_on_c, 1, 68, 80
3, 168744, Note_on_c, 1, 68, 0
3, 168750, Note_on_c, 1, 67, 80
3, 168774, Note_on_c, 1, 67, 0
3, 168780, Note_on_c, 1, 65, 80
3, 168804, Note_on_c, 1, 65, 0
3, 168810, Note_on_c, 1, 63, 80
3, 168834, Note_on_c, 1, 63, 0
3, 168840, Note_on_c, 1, 62, 80
3, 168864, Note_on_c, 1, 62, 0
3, 168870, Note_on_c, 1, 60, 80
3, 168894, Note_on_c, 1, 60, 0
3, 168900, Note_on_c, 1, 58, 80
3, 168924, Note_on_c, 1, 58, 0
3, 168930, Note_on_c, 1, 56, 80
3, 168954, Note_on_c, 1, 56, 0
3, 168960, Note_on_c, 1, 56, 80
3, 169200, Note_on_c, 1, 56, 0
3, 169200, Note_on_c, 1, 55, 80
3, 169296, Note_on_c, 1, 55, 0
3, 170400, Note_on_c, 1, 59, 64
3, 170640, Note_on_c, 1, 59, 0
3, 170640, Note_on_c, 1, 58, 64
3, 170880, Note_on_c, 1, 58, 0
3, 170880, Note_on_c, 1, 58, 64
3, 171240, Note_on_c, 1, 58, 0
3, 171480, Note_on_c, 1, 66, 64
3, 171600, Note_on_c, 1, 66, 0
3, 171600, Note_on_c, 1, 65, 64
3, 171720, Note_on_c, 1, 65, 0
3, 171720, Note_on_c, 1, 68, 64
3, 171840, Note_on_c, 1, 68, 0
3, 171960, Note_on_c, 1, 66, 64
3, 172080, Note_on_c, 1, 66, 0
3, 172080, Note_on_c, 1, 65, 64
3, 172200, Note_on_c, 1, 65, 0
3, 172200, Note_on_c, 1, 68, 64
3, 172320, Note_on_c, 1, 68, 0
3, 172320, Note_on_c, 1, 66, 64
3, 172440, Note_on_c, 1, 66, 0
3, 172500, Note_on_c, 1, 66, 64
3, 172524, Note_on_c, 1, 66, 0
3, 172620, Note_on_c, 1, 65, 64
3, 172644, Note_on_c, 1, 65, 0
3, 172740, Note_on_c, 1, 63, 64
3, 172764, Note_on_c, 1, 63, 0
3, 172800, Note_on_c, 1, 63, 64
3, 173040, Note_on_c, 1, 63, 0
3, 173040, Note_on_c, 1, 62, 64
3, 173160, Note_on_c, 1, 62, 0
3, 174240, Note_on_c, 1, 59, 64
3, 174480, Note_on_c, 1, 59, 0
3, 174480, Note_on_c, 1, 58, 64
3, 174720, Note_on_c, 1, 58, 0
3, 174720, Note_on_c, 1, 58, 64
3, 175080, Note_on_c, 1, 58, 0
3, 175320, Note_on_c, 1, 66, 64
3, 175440, Note_on_c, 1, 66, 0
3, 175440, Note_on_c, 1, 65, 64
3, 175560, Note_on_c, 1, 65, 0
3, 175560, Note_on_c, 1, 68, 64
3, 175680, Note_on_c, 1, 68, 0
3, 175800, Note_on_c, 1, 66, 64
3, 175920, Note_on_c, 1, 66, 0
3, 175920, Note_on_c, 1, 65, 64
3, 176040, Note_on_c, 1, 65, 0
3, 176040, Note_on_c, 1, 68, 64
3, 176160, Note_on_c, 1, 68, 0
3, 176160, Note_on_c, 1, 66, 64
3, 176280, Note_on_c, 1, 66, 0
3, 176340, Note_on_c, 1, 66, 64
3, 176364, Note_on_c, 1, 66, 0
3, 176460, Note_on_c, 1, 65, 64
3, 176484, Note_on_c, 1, 65, 0
3, 176580, Note_on_c, 1, 63, 64
3, 176604, Note_on_c, 1, 63, 0
3, 176640, Note_on_c, 1, 63, 64
3, 176880, Note_on_c, 1, 63, 0
3, 176880, Note_on_c, 1, 62, 64
3, 177000, Note_on_c, 1, 62, 0
3, 177120, Note_on_c, 1, 56, 80
3, 177216, Note_on_c, 1, 56, 0
3, 177240, Note_on_c, 1, 56, 80
3, 177432, Note_on_c, 1, 56, 0
3, 177480, Note_on_c, 1, 53, 80
3, 177576, Note_on_c, 1, 53, 0
3, 177600, Note_on_c, 1, 51, 80
3, 177696, Note_on_c, 1, 51, 0
3, 178080, Note_on_c, 1, 56, 64
3, 178176, Note_on_c, 1, 56, 0
3, 178200, Note_on_c, 1, 56, 64
3, 178392, Note_on_c, 1, 56, 0
3, 178440, Note_on_c, 1, 53, 64
3, 178536, Note_on_c, 1, 53, 0
3, 178560, Note_on_c, 1, 51, 64
3, 178656, Note_on_c, 1, 51, 0
3, 179580, Note_on_c, 1, 68, 80
3, 179640, Note_on_c, 1, 68, 0
3, 179640, Note_on_c, 1, 70, 80
3, 179700, Note_on_c, 1, 70, 0
3, 179700, Note_on_c, 1, 71, 80
3, 179760, Note_on_c, 1, 71, 0
3, 179760, Note_on_c, 1, 70, 80
3, 179820, Note_on_c, 1, 70, 0
3, 179820, Note_on_c, 1, 68, 80
3, 179880, Note_on_c, 1, 68, 0
3, 179880, Note_on_c, 1, 67, 80
3, 179940, Note_on_c, 1, 67, 0
3, 179940, Note_on_c, 1, 68, 80
3, 180000, Note_on_c, 1, 68, 0
3, 180060, Note_on_c, 1, 66, 80
3, 180108, Note_on_c, 1, 66, 0
3, 180120, Note_on_c, 1, 65, 80
3, 180168, Note_on_c, 1, 65, 0
3, 180180, Note_on_c, 1, 66, 80
3, 180228, Note_on_c, 1, 66, 0
3, 180300, Note_on_c, 1, 68, 80
3, 180348, Note_on_c, 1, 68, 0
3, 180360, Note_on_c, 1, 67, 80
3, 180408, Note_on_c, 1, 67, 0
3, 180420, Note_on_c, 1, 68, 80
3, 180468, Note_on_c, 1, 68, 0
3, 180540, Note_on_c, 1, 66, 80
3, 180588, Note_on_c, 1, 66, 0
3, 180600, Note_on_c, 1, 65, 80
3, 180648, Note_on_c, 1, 65, 0
3, 180660, Note_on_c, 1, 66, 80
3, 180708, Note_on_c, 1, 66, 0
3, 180780, Note_on_c, 1, 62, 80
3, 180828, Note_on_c, 1, 62, 0
3, 180840, Note_on_c, 1, 65, 80
3, 180888, Note_on_c, 1, 65, 0
3, 180900, Note_on_c, 1, 56, 80
3, 180948, Note_on_c, 1, 56, 0
3, 180960, Note_on_c, 1, 56, 80
3, 181152, Note_on_c, 1, 56, 0
3, 181200, Note_on_c, 1, 54, 80
3, 181200, Note_on_c, 1, 58, 80
3, 181296, Note_on_c, 1, 58, 0
3, 181296, Note_on_c, 1, 54, 0
3, 181800, Note_on_c, 1, 68, 80
3, 181980, Note_on_c, 1, 68, 0
3, 181980, Note_on_c, 1, 67, 80
3, 182040, Note_on_c, 1, 67, 0
3, 182040, Note_on_c, 1, 68, 80
3, 182100, Note_on_c, 1, 68, 0
3, 182100, Note_on_c, 1, 70, 80
3, 182160, Note_on_c, 1, 70, 0
3, 182160, Note_on_c, 1, 71, 80
3, 182200, Note_on_c, 1, 71, 0
3, 182200, Note_on_c, 1, 70, 80
3, 182240, Note_on_c, 1, 70, 0
3, 182240, Note_on_c, 1, 68, 80
3, 182280, Note_on_c, 1, 68, 0
3, 182280, Note_on_c, 1, 68, 80
3, 182320, Note_on_c, 1, 68, 0
3, 182320, Note_on_c, 1, 66, 80
3, 182360, Note_on_c, 1, 66, 0
3, 182360, Note_on_c, 1, 65, 80
3, 182400, Note_on_c, 1, 65, 0
3, 182400, Note_on_c, 1, 66, 80
3, 182496, Note_on_c, 1, 66, 0
3, 182640, Note_on_c, 1, 68, 80
3, 182736, Note_on_c, 1, 68, 0
3, 183240, Note_on_c, 1, 58, 64
3, 183240, Note_on_c, 1, 56, 64
3, 183360, Note_on_c, 1, 56, 0
3, 183360, Note_on_c, 1, 58, 0
3, 183360, Note_on_c, 1, 58, 64
3, 183360, Note_on_c, 1, 56, 64
3, 183600, Note_on_c, 1, 56, 0
3, 183600, Note_on_c, 1, 58, 0
3, 183600, Note_on_c, 1, 58, 64
3, 183713, Note_on_c, 1, 58, 0
3, 183840, Note_on_c, 1, 56, 80
3, 183936, Note_on_c, 1, 56, 0
3, 183960, Note_on_c, 1, 56, 80
3, 184152, Note_on_c, 1, 56, 0
3, 184200, Note_on_c, 1, 53, 80
3, 184296, Note_on_c, 1, 53, 0
3, 184320, Note_on_c, 1, 51, 80
3, 184416, Note_on_c, 1, 51, 0
3, 184800, Note_on_c, 1, 56, 64
3, 184896, Note_on_c, 1, 56, 0
3, 184920, Note_on_c, 1, 56, 64
3, 185112, Note_on_c, 1, 56, 0
3, 185160, Note_on_c, 1, 53, 64
3, 185256, Note_on_c, 1, 53, 0
3, 185280, Note_on_c, 1, 51, 64
3, 185376, Note_on_c, 1, 51, 0
3, 186300, Note_on_c, 1, 68, 64
3, 186348, Note_on_c, 1, 68, 0
3, 186360, Note_on_c, 1, 70, 64
3, 186408, Note_on_c, 1, 70, 0
3, 186420, Note_on_c, 1, 71, 64
3, 186468, Note_on_c, 1, 71, 0
3, 186480, Note_on_c, 1, 70, 64
3, 186528, Note_on_c, 1, 70, 0
3, 186540, Note_on_c, 1, 68, 64
3, 186588, Note_on_c, 1, 68, 0
3, 186600, Note_on_c, 1, 67, 64
3, 186648, Note_on_c, 1, 67, 0
3, 186660, Note_on_c, 1, 68, 64
3, 186708, Note_on_c, 1, 68, 0
3, 186780, Note_on_c, 1, 66, 80
3, 186828, Note_on_c, 1, 66, 0
3, 186840, Note_on_c, 1, 65, 80
3, 186888, Note_on_c, 1, 65, 0
3, 186900, Note_on_c, 1, 66, 80
3, 186948, Note_on_c, 1, 66, 0
3, 187020, Note_on_c, 1, 68, 80
3, 187068, Note_on_c, 1, 68, 0
3, 187080, Note_on_c, 1, 67, 80
3, 187128, Note_on_c, 1, 67, 0
3, 187140, Note_on_c, 1, 68, 80
3, 187188, Note_on_c, 1, 68, 0
3, 187260, Note_on_c, 1, 66, 80
3, 187308, Note_on_c, 1, 66, 0
3, 187320, Note_on_c, 1, 65, 80
3, 187368, Note_on_c, 1, 65, 0
3, 187380, Note_on_c, 1, 66, 80
3, 187428, Note_on_c, 1, 66, 0
3, 187500, Note_on_c, 1, 62, 80
3, 187548, Note_on_c, 1, 62, 0
3, 187560, Note_on_c, 1, 65, 80
3, 187608, Note_on_c, 1, 65, 0
3, 187620, Note_on_c, 1, 56, 80
3, 187668, Note_on_c, 1, 56, 0
3, 187680, Note_on_c, 1, 56, 80
3, 187872, Note_on_c, 1, 56, 0
3, 187920, Note_on_c, 1, 58, 80
3, 187920, Note_on_c, 1, 54, 80
3, 188016, Note_on_c, 1, 54, 0
3, 188016, Note_on_c, 1, 58, 0
3, 188520, Note_on_c, 1, 68, 80
3, 188688, Note_on_c, 1, 68, 0
3, 188700, Note_on_c, 1, 67, 80
3, 188748, Note_on_c, 1, 67, 0
3, 188760, Note_on_c, 1, 68, 80
3, 188808, Note_on_c, 1, 68, 0
3, 188820, Note_on_c, 1, 70, 80
3, 188868, Note_on_c, 1, 70, 0
3, 188880, Note_on_c, 1, 71, 80
3, 188912, Note_on_c, 1, 71, 0
3, 188920, Note_on_c, 1, 70, 80
3, 188952, Note_on_c, 1, 70, 0
3, 188960, Note_on_c, 1, 68, 80
3, 188992, Note_on_c, 1, 68, 0
3, 189000, Note_on_c, 1, 68, 80
3, 189032, Note_on_c, 1, 68, 0
3, 189040, Note_on_c, 1, 66, 80
3, 189072, Note_on_c, 1, 66, 0
3, 189080, Note_on_c, 1, 65, 80
3, 189112, Note_on_c, 1, 65, 0
3, 189120, Note_on_c, 1, 66, 80
3, 189216, Note_on_c, 1, 66, 0
3, 189360, Note_on_c, 1, 68, 80
3, 189456, Note_on_c, 1, 68, 0
3, 189960, Note_on_c, 1, 56, 64
3, 189960, Note_on_c, 1, 58, 64
3, 190080, Note_on_c, 1, 58, 0
3, 190080, Note_on_c, 1, 56, 0
3, 190080, Note_on_c, 1, 56, 64
3, 190080, Note_on_c, 1, 58, 64
3, 190320, Note_on_c, 1, 58, 0
3, 190320, Note_on_c, 1, 56, 0
3, 190320, Note_on_c, 1, 58, 64
3, 190433, Note_on_c, 1, 58, 0
3, 190560, Note_on_c, 1, 70, 80
3, 190656, Note_on_c, 1, 70, 0
3, 190680, Note_on_c, 1, 67, 80
3, 190776, Note_on_c, 1, 67, 0
3, 190800, Note_on_c, 1, 67, 80
3, 190896, Note_on_c, 1, 67, 0
3, 190920, Note_on_c, 1, 67, 80
3, 191016, Note_on_c, 1, 67, 0
3, 191040, Note_on_c, 1, 67, 80
3, 191328, Note_on_c, 1, 67, 0
3, 191400, Note_on_c, 1, 63, 80
3, 191496, Note_on_c, 1, 63, 0
3, 191520, Note_on_c, 1, 65, 80
3, 191616, Note_on_c, 1, 65, 0
3, 191640, Note_on_c, 1, 65, 80
3, 191736, Note_on_c, 1, 65, 0
3, 191760, Note_on_c, 1, 65, 80
3, 191856, Note_on_c, 1, 65, 0
3, 191880, Note_on_c, 1, 67, 80
3, 191976, Note_on_c, 1, 67, 0
3, 192000, Note_on_c, 1, 68, 80
3, 192096, Note_on_c, 1, 68, 0
3, 192120, Note_on_c, 1, 65, 80
3, 192168, Note_on_c, 1, 65, 0
3, 192180, Note_on_c, 1, 68, 80
3, 192228, Note_on_c, 1, 68, 0
3, 192240, Note_on_c, 1, 67, 80
3, 192336, Note_on_c, 1, 67, 0
3, 192480, Note_on_c, 1, 63, 80
3, 192672, Note_on_c, 1, 63, 0
3, 192720, Note_on_c, 1, 62, 80
3, 192768, Note_on_c, 1, 62, 0
3, 192780, Note_on_c, 1, 63, 80
3, 192828, Note_on_c, 1, 63, 0
3, 192840, Note_on_c, 1, 65, 80
3, 192888, Note_on_c, 1, 65, 0
3, 192900, Note_on_c, 1, 62, 80
3, 192948, Note_on_c, 1, 62, 0
3, 192960, Note_on_c, 1, 63, 80
3, 193152, Note_on_c, 1, 63, 0
3, 193200, Note_on_c, 1, 62, 80
3, 193248, Note_on_c, 1, 62, 0
3, 193260, Note_on_c, 1, 63, 80
3, 193308, Note_on_c, 1, 63, 0
3, 193320, Note_on_c, 1, 65, 80
3, 193368, Note_on_c, 1, 65, 0
3, 193380, Note_on_c, 1, 62, 80
3, 193428, Note_on_c, 1, 62, 0
3, 193440, Note_on_c, 1, 63, 80
3, 193560, Note_on_c, 1, 63, 0
3, 193560, Note_on_c, 1, 58, 80
3, 193680, Note_on_c, 1, 58, 0
3, 193680, Note_on_c, 1, 56, 80
3, 193800, Note_on_c, 1, 56, 0
3, 193800, Note_on_c, 1, 55, 80
3, 193920, Note_on_c, 1, 55, 0
3, 193920, Note_on_c, 1, 55, 80
3, 194112, Note_on_c, 1, 55, 0
3, 194160, Note_on_c, 1, 53, 80
3, 194352, Note_on_c, 1, 53, 0
3, 194400, Note_on_c, 1, 53, 80
3, 194496, Note_on_c, 1, 53, 0
3, 194520, Note_on_c, 1, 53, 80
3, 194616, Note_on_c, 1, 53, 0
3, 194640, Note_on_c, 1, 53, 80
3, 194736, Note_on_c, 1, 53, 0
3, 194760, Note_on_c, 1, 56, 80
3, 194856, Note_on_c, 1, 56, 0
3, 194880, Note_on_c, 1, 56, 80
3, 195072, Note_on_c, 1, 56, 0
3, 195120, Note_on_c, 1, 55, 80
3, 195216, Note_on_c, 1, 55, 0
3, 195240, Note_on_c, 1, 58, 80
3, 195336, Note_on_c, 1, 58, 0
3, 195360, Note_on_c, 1, 58, 80
3, 195456, Note_on_c, 1, 58, 0
3, 195480, Note_on_c, 1, 53, 80
3, 195576, Note_on_c, 1, 53, 0
3, 195600, Note_on_c, 1, 53, 80
3, 195696, Note_on_c, 1, 53, 0
3, 195720, Note_on_c, 1, 56, 80
3, 195816, Note_on_c, 1, 56, 0
3, 195840, Note_on_c, 1, 56, 80
3, 196032, Note_on_c, 1, 56, 0
3, 196080, Note_on_c, 1, 55, 80
3, 196176, Note_on_c, 1, 55, 0
3, 196200, Note_on_c, 1, 58, 80
3, 196296, Note_on_c, 1, 58, 0
3, 196320, Note_on_c, 1, 63, 80
3, 196416, Note_on_c, 1, 63, 0
3, 196440, Note_on_c, 1, 62, 80
3, 196632, Note_on_c, 1, 62, 0
3, 196680, Note_on_c, 1, 60, 80
3, 196728, Note_on_c, 1, 60, 0
3, 196740, Note_on_c, 1, 58, 80
3, 196788, Note_on_c, 1, 58, 0
3, 196800, Note_on_c, 1, 63, 80
3, 196896, Note_on_c, 1, 63, 0
3, 196920, Note_on_c, 1, 62, 80
3, 197112, Note_on_c, 1, 62, 0
3, 197160, Note_on_c, 1, 60, 80
3, 197208, Note_on_c, 1, 60, 0
3, 197220, Note_on_c, 1, 58, 80
3, 197268, Note_on_c, 1, 58, 0
3, 197280, Note_on_c, 1, 70, 80
3, 197340, Note_on_c, 1, 70, 0
3, 197400, Note_on_c, 1, 71, 80
3, 197460, Note_on_c, 1, 71, 0
3, 197520, Note_on_c, 1, 72, 80
3, 197580, Note_on_c, 1, 72, 0
3, 198720, Note_on_c, 1, 63, 80
3, 198816, Note_on_c, 1, 63, 0
3, 198840, Note_on_c, 1, 62, 80
3, 199032, Note_on_c, 1, 62, 0
3, 199080, Note_on_c, 1, 60, 80
3, 199128, Note_on_c, 1, 60, 0
3, 199140, Note_on_c, 1, 58, 80
3, 199188, Note_on_c, 1, 58, 0
3, 199200, Note_on_c, 1, 63, 80
3, 199296, Note_on_c, 1, 63, 0
3, 199320, Note_on_c, 1, 62, 80
3, 199512, Note_on_c, 1, 62, 0
3, 199560, Note_on_c, 1, 60, 80
3, 199608, Note_on_c, 1, 60, 0
3, 199620, Note_on_c, 1, 58, 80
3, 199668, Note_on_c, 1, 58, 0
3, 199680, Note_on_c, 1, 70, 80
3, 199728, Note_on_c, 1, 70, 0
3, 199800, Note_on_c, 1, 71, 80
3, 199848, Note_on_c, 1, 71, 0
3, 199920, Note_on_c, 1, 72, 80
3, 200016, Note_on_c, 1, 72, 0
3, 200640, Note_on_c, 1, 68, 80
3, 200640, Note_on_c, 1, 70, 80
3, 200832, Note_on_c, 1, 70, 0
3, 200832, Note_on_c, 1, 68, 0
3, 200880, Note_on_c, 1, 70, 80
3, 200880, Note_on_c, 1, 67, 80
3, 200976, Note_on_c, 1, 67, 0
3, 200976, Note_on_c, 1, 70, 0
3, 201120, Note_on_c, 1, 70, 80
3, 201312, Note_on_c, 1, 70, 0
3, 201360, Note_on_c, 1, 67, 80
3, 201456, Note_on_c, 1, 67, 0
3, 201480, Note_on_c, 1, 67, 80
3, 201576, Note_on_c, 1, 67, 0
3, 201600, Note_on_c, 1, 67, 80
3, 201888, Note_on_c, 1, 67, 0
3, 201960, Note_on_c, 1, 63, 80
3, 202176, Note_on_c, 1, 63, 0
3, 202200, Note_on_c, 1, 62, 80
3, 202296, Note_on_c, 1, 62, 0
3, 202320, Note_on_c, 1, 61, 80
3, 202512, Note_on_c, 1, 61, 0
3, 202560, Note_on_c, 1, 63, 80
3, 202680, Note_on_c, 1, 63, 0
3, 202680, Note_on_c, 1, 65, 80
3, 202800, Note_on_c, 1, 65, 0
3, 202800, Note_on_c, 1, 63, 80
3, 202920, Note_on_c, 1, 63, 0
3, 203040, Note_on_c, 1, 67, 80
3, 203232, Note_on_c, 1, 67, 0
3, 203280, Note_on_c, 1, 68, 80
3, 203376, Note_on_c, 1, 68, 0
3, 203400, Note_on_c, 1, 68, 80
3, 203448, Note_on_c, 1, 68, 0
3, 203520, Note_on_c, 1, 67, 80
3, 203712, Note_on_c, 1, 67, 0
3, 203760, Note_on_c, 1, 68, 80
3, 203856, Note_on_c, 1, 68, 0
3, 203880, Note_on_c, 1, 68, 80
3, 203928, Note_on_c, 1, 68, 0
3, 204000, Note_on_c, 1, 67, 80
3, 204096, Note_on_c, 1, 67, 0
3, 204120, Note_on_c, 1, 67, 80
3, 204240, Note_on_c, 1, 67, 0
3, 204240, Note_on_c, 1, 65, 80
3, 204360, Note_on_c, 1, 65, 0
3, 204360, Note_on_c, 1, 63, 80
3, 204480, Note_on_c, 1, 63, 0
3, 204480, Note_on_c, 1, 63, 80
3, 204672, Note_on_c, 1, 63, 0
3, 204720, Note_on_c, 1, 62, 80
3, 204912, Note_on_c, 1, 62, 0
3, 204960, Note_on_c, 1, 62, 80
3, 205152, Note_on_c, 1, 62, 0
3, 205200, Note_on_c, 1, 62, 80
3, 205296, Note_on_c, 1, 62, 0
3, 205320, Note_on_c, 1, 65, 80
3, 205416, Note_on_c, 1, 65, 0
3, 205440, Note_on_c, 1, 63, 80
3, 205728, Note_on_c, 1, 63, 0
3, 205920, Note_on_c, 1, 62, 80
3, 206016, Note_on_c, 1, 62, 0
3, 206160, Note_on_c, 1, 62, 80
3, 206256, Note_on_c, 1, 62, 0
3, 206280, Note_on_c, 1, 65, 80
3, 206376, Note_on_c, 1, 65, 0
3, 206400, Note_on_c, 1, 65, 80
3, 206496, Note_on_c, 1, 65, 0
3, 206520, Note_on_c, 1, 63, 80
3, 206712, Note_on_c, 1, 63, 0
3, 206760, Note_on_c, 1, 69, 80
3, 206856, Note_on_c, 1, 69, 0
3, 206880, Note_on_c, 1, 68, 80
3, 207264, Note_on_c, 1, 68, 0
3, 207360, Note_on_c, 1, 70, 80
3, 207744, Note_on_c, 1, 70, 0
3, 207840, Note_on_c, 1, 63, 80
3, 208128, Note_on_c, 1, 63, 0
3, 208200, Note_on_c, 1, 65, 80
3, 208296, Note_on_c, 1, 65, 0
3, 208320, Note_on_c, 1, 63, 80
3, 208512, Note_on_c, 1, 63, 0
3, 208560, Note_on_c, 1, 62, 80
3, 208656, Note_on_c, 1, 62, 0
3, 208800, Note_on_c, 1, 65, 80
3, 208992, Note_on_c, 1, 65, 0
3, 209040, Note_on_c, 1, 63, 80
3, 209136, Note_on_c, 1, 63, 0
3, 209280, Note_on_c, 1, 68, 80
3, 209664, Note_on_c, 1, 68, 0
3, 209760, Note_on_c, 1, 68, 80
3, 210048, Note_on_c, 1, 68, 0
3, 210240, Note_on_c, 1, 63, 80
3, 210528, Note_on_c, 1, 63, 0
3, 210600, Note_on_c, 1, 65, 80
3, 210696, Note_on_c, 1, 65, 0
3, 210720, Note_on_c, 1, 63, 80
3, 210912, Note_on_c, 1, 63, 0
3, 210960, Note_on_c, 1, 62, 80
3, 211056, Note_on_c, 1, 62, 0
3, 211200, Note_on_c, 1, 58, 80
3, 211392, Note_on_c, 1, 58, 0
3, 211680, Note_on_c, 1, 55, 56
3, 212160, Note_on_c, 1, 55, 0
3, 212160, Note_on_c, 1, 58, 56
3, 212280, Note_on_c, 1, 58, 0
3, 212280, Note_on_c, 1, 58, 56
3, 212400, Note_on_c, 1, 58, 0
3, 212400, Note_on_c, 1, 58, 56
3, 212520, Note_on_c, 1, 58, 0
3, 212520, Note_on_c, 1, 58, 56
3, 212640, Note_on_c, 1, 58, 0
3, 212640, Note_on_c, 1, 58, 56
3, 213000, Note_on_c, 1, 58, 0
3, 213000, Note_on_c, 1, 56, 56
3, 213120, Note_on_c, 1, 56, 0
3, 213120, Note_on_c, 1, 55, 56
3, 213360, Note_on_c, 1, 55, 0
3, 213360, Note_on_c, 1, 58, 56
3, 213600, Note_on_c, 1, 58, 0
3, 213600, Note_on_c, 1, 60, 56
3, 213840, Note_on_c, 1, 60, 0
3, 213840, Note_on_c, 1, 60, 56
3, 214080, Note_on_c, 1, 60, 0
3, 214080, Note_on_c, 1, 62, 56
3, 214320, Note_on_c, 1, 62, 0
3, 214320, Note_on_c, 1, 62, 56
3, 214560, Note_on_c, 1, 62, 0
3, 214560, Note_on_c, 1, 63, 56
3, 214800, Note_on_c, 1, 63, 0
3, 214800, Note_on_c, 1, 65, 56
3, 215040, Note_on_c, 1, 65, 0
3, 215040, Note_on_c, 1, 63, 56
3, 215280, Note_on_c, 1, 63, 0
3, 215640, Note_on_c, 1, 58, 56
3, 215760, Note_on_c, 1, 58, 0
3, 215760, Note_on_c, 1, 58, 56
3, 215880, Note_on_c, 1, 58, 0
3, 215880, Note_on_c, 1, 58, 56
3, 216000, Note_on_c, 1, 58, 0
3, 216120, Note_on_c, 1, 58, 56
3, 216360, Note_on_c, 1, 58, 0
3, 216360, Note_on_c, 1, 58, 56
3, 216480, Note_on_c, 1, 58, 0
3, 216600, Note_on_c, 1, 58, 56
3, 216720, Note_on_c, 1, 58, 0
3, 216720, Note_on_c, 1, 58, 56
3, 216840, Note_on_c, 1, 58, 0
3, 216840, Note_on_c, 1, 58, 56
3, 216960, Note_on_c, 1, 58, 0
3, 217080, Note_on_c, 1, 58, 56
3, 217320, Note_on_c, 1, 58, 0
3, 217320, Note_on_c, 1, 58, 56
3, 217440, Note_on_c, 1, 58, 0
3, 217440, Note_on_c, 1, 58, 56
3, 217680, Note_on_c, 1, 58, 0
3, 217860, Note_on_c, 1, 58, 56
3, 217920, Note_on_c, 1, 58, 0
3, 217920, Note_on_c, 1, 58, 56
3, 217980, Note_on_c, 1, 58, 0
3, 217980, Note_on_c, 1, 57, 56
3, 218040, Note_on_c, 1, 57, 0
3, 218100, Note_on_c, 1, 56, 56
3, 218160, Note_on_c, 1, 56, 0
3, 218160, Note_on_c, 1, 56, 56
3, 218220, Note_on_c, 1, 56, 0
3, 218220, Note_on_c, 1, 55, 56
3, 218280, Note_on_c, 1, 55, 0
3, 218520, Note_on_c, 1, 55, 56
3, 218640, Note_on_c, 1, 55, 0
3, 218640, Note_on_c, 1, 55, 56
3, 218760, Note_on_c, 1, 55, 0
3, 218760, Note_on_c, 1, 55, 56
3, 218880, Note_on_c, 1, 55, 0
3, 218880, Note_on_c, 1, 53, 56
3, 219000, Note_on_c, 1, 53, 0
3, 219360, Note_on_c, 1, 62, 56
3, 219360, Note_on_c, 1, 65, 56
3, 219600, Note_on_c, 1, 65, 0
3, 219600, Note_on_c, 1, 62, 0
3, 219600, Note_on_c, 1, 62, 56
3, 219840, Note_on_c, 1, 62, 0
3, 219840, Note_on_c, 1, 62, 56
3, 220080, Note_on_c, 1, 62, 0
3, 220080, Note_on_c, 1, 62, 56
3, 220080, Note_on_c, 1, 65, 56
3, 220320, Note_on_c, 1, 65, 0
3, 220320, Note_on_c, 1, 62, 0
3, 220320, Note_on_c, 1, 62, 56
3, 220320, Note_on_c, 1, 65, 56
3, 221280, Note_on_c, 1, 65, 0
3, 221280, Note_on_c, 1, 62, 0
3, 221280, Note_on_c, 1, 65, 56
3, 221520, Note_on_c, 1, 65, 0
3, 221520, Note_on_c, 1, 62, 56
3, 221760, Note_on_c, 1, 62, 0
3, 221760, Note_on_c, 1, 62, 56
3, 222000, Note_on_c, 1, 62, 0
3, 222000, Note_on_c, 1, 62, 56
3, 222000, Note_on_c, 1, 65, 56
3, 222240, Note_on_c, 1, 65, 0
3, 222240, Note_on_c, 1, 62, 0
3, 222240, Note_on_c, 1, 62, 56
3, 222240, Note_on_c, 1, 65, 56
3, 223200, Note_on_c, 1, 65, 0
3, 223200, Note_on_c, 1, 62, 0
3, 223320, Note_on_c, 1, 65, 56
3, 223440, Note_on_c, 1, 65, 0
3, 223440, Note_on_c, 1, 65, 56
3, 223560, Note_on_c, 1, 65, 0
3, 223560, Note_on_c, 1, 65, 56
3, 223680, Note_on_c, 1, 65, 0
3, 223680, Note_on_c, 1, 65, 56
3, 224160, Note_on_c, 1, 65, 0
3, 224280, Note_on_c, 1, 65, 56
3, 224400, Note_on_c, 1, 65, 0
3, 224400, Note_on_c, 1, 65, 56
3, 224520, Note_on_c, 1, 65, 0
3, 224520, Note_on_c, 1, 65, 56
3, 224640, Note_on_c, 1, 65, 0
3, 224640, Note_on_c, 1, 65, 56
3, 225120, Note_on_c, 1, 65, 0
3, 225120, Note_on_c, 1, 63, 56
3, 225360, Note_on_c, 1, 63, 0
3, 225600, Note_on_c, 1, 63, 56
3, 225840, Note_on_c, 1, 63, 0
3, 225840, Note_on_c, 1, 65, 56
3, 226080, Note_on_c, 1, 65, 0
3, 226200, Note_on_c, 1, 67, 56
3, 226320, Note_on_c, 1, 67, 0
3, 226320, Note_on_c, 1, 67, 56
3, 226440, Note_on_c, 1, 67, 0
3, 226440, Note_on_c, 1, 67, 56
3, 226560, Note_on_c, 1, 67, 0
3, 226680, Note_on_c, 1, 68, 56
3, 226680, Note_on_c, 1, 65, 56
3, 226800, Note_on_c, 1, 65, 0
3, 226800, Note_on_c, 1, 68, 0
3, 226800, Note_on_c, 1, 68, 56
3, 226800, Note_on_c, 1, 65, 56
3, 226920, Note_on_c, 1, 65, 0
3, 226920, Note_on_c, 1, 68, 0
3, 226920, Note_on_c, 1, 68, 56
3, 226920, Note_on_c, 1, 65, 56
3, 227040, Note_on_c, 1, 65, 0
3, 227040, Note_on_c, 1, 68, 0
3, 227040, Note_on_c, 1, 68, 56
3, 227280, Note_on_c, 1, 68, 0
3, 227280, Note_on_c, 1, 67, 56
3, 227400, Note_on_c, 1, 67, 0
3, 227520, Note_on_c, 1, 57, 56
3, 227520, Note_on_c, 1, 54, 56
3, 228000, Note_on_c, 1, 54, 0
3, 228000, Note_on_c, 1, 57, 0
3, 228120, Note_on_c, 1, 56, 56
3, 228120, Note_on_c, 1, 53, 56
3, 228240, Note_on_c, 1, 53, 0
3, 228240, Note_on_c, 1, 56, 0
3, 228240, Note_on_c, 1, 56, 56
3, 228240, Note_on_c, 1, 53, 56
3, 228360, Note_on_c, 1, 53, 0
3, 228360, Note_on_c, 1, 56, 0
3, 228360, Note_on_c, 1, 56, 56
3, 228360, Note_on_c, 1, 53, 56
3, 228480, Note_on_c, 1, 53, 0
3, 228480, Note_on_c, 1, 56, 0
3, 228480, Note_on_c, 1, 56, 56
3, 228480, Note_on_c, 1, 53, 56
3, 228960, Note_on_c, 1, 53, 0
3, 228960, Note_on_c, 1, 56, 0
3, 229080, Note_on_c, 1, 50, 56
3, 229080, Note_on_c, 1, 53, 56
3, 229176, Note_on_c, 1, 53, 0
3, 229176, Note_on_c, 1, 50, 0
3, 229200, Note_on_c, 1, 50, 56
3, 229200, Note_on_c, 1, 53, 56
3, 229296, Note_on_c, 1, 53, 0
3, 229296, Note_on_c, 1, 50, 0
3, 229320, Note_on_c, 1, 50, 56
3, 229320, Note_on_c, 1, 53, 56
3, 229416, Note_on_c, 1, 53, 0
3, 229416, Note_on_c, 1, 50, 0
3, 229440, Note_on_c, 1, 50, 56
3, 229440, Note_on_c, 1, 53, 56
3, 229824, Note_on_c, 1, 53, 0
3, 229824, Note_on_c, 1, 50, 0
3, 229920, Note_on_c, 1, 51, 56
3, 230160, Note_on_c, 1, 51, 0
3, 230160, Note_on_c, 1, 51, 56
3, 230640, Note_on_c, 1, 51, 0
3, 230640, Note_on_c, 1, 53, 56
3, 230880, Note_on_c, 1, 53, 0
3, 230880, Note_on_c, 1, 67, 56
3, 231120, Note_on_c, 1, 67, 0
3, 231120, Note_on_c, 1, 67, 56
3, 231360, Note_on_c, 1, 67, 0
3, 231360, Note_on_c, 1, 67, 56
3, 231600, Note_on_c, 1, 67, 0
3, 231600, Note_on_c, 1, 65, 56
3, 231720, Note_on_c, 1, 65, 0
3, 231780, Note_on_c, 1, 70, 56
3, 231780, Note_on_c, 1, 68, 56
3, 231840, Note_on_c, 1, 68, 0
3, 231840, Note_on_c, 1, 70, 0
3, 231840, Note_on_c, 1, 68, 56
3, 231840, Note_on_c, 1, 70, 56
3, 232320, Note_on_c, 1, 70, 0
3, 232320, Note_on_c, 1, 68, 0
3, 232320, Note_on_c, 1, 70, 56
3, 232440, Note_on_c, 1, 70, 0
3, 232800, Note_on_c, 1, 58, 72
3, 232800, Note_on_c, 1, 63, 72
3, 232800, Note_on_c, 1, 67, 72
3, 232992, Note_on_c, 1, 67, 0
3, 232992, Note_on_c, 1, 63, 0
3, 232992, Note_on_c, 1, 58, 0
3, 233040, Note_on_c, 1, 58, 64
3, 233040, Note_on_c, 1, 63, 64
3, 233136, Note_on_c, 1, 63, 0
3, 233136, Note_on_c, 1, 58, 0
3, 233280, Note_on_c, 1, 58, 64
3, 233280, Note_on_c, 1, 63, 64
3, 233376, Note_on_c, 1, 63, 0
3, 233376, Note_on_c, 1, 58, 0
3, 233520, Note_on_c, 1, 58, 72
3, 233520, Note_on_c, 1, 63, 72
3, 233904, Note_on_c, 1, 63, 0
3, 233904, Note_on_c, 1, 58, 0
3, 234000, Note_on_c, 1, 58, 64
3, 234240, Note_on_c, 1, 58, 0
3, 234240, Note_on_c, 1, 58, 72
3, 234240, Note_on_c, 1, 62, 72
3, 234432, Note_on_c, 1, 62, 0
3, 234432, Note_on_c, 1, 58, 0
3, 234480, Note_on_c, 1, 58, 64
3, 234576, Note_on_c, 1, 58, 0
3, 234720, Note_on_c, 1, 58, 64
3, 234720, Note_on_c, 1, 63, 64
3, 234816, Note_on_c, 1, 63, 0
3, 234816, Note_on_c, 1, 58, 0
3, 234960, Note_on_c, 1, 65, 72
3, 235152, Note_on_c, 1, 65, 0
3, 235200, Note_on_c, 1, 62, 64
3, 235296, Note_on_c, 1, 62, 0
3, 235440, Note_on_c, 1, 58, 64
3, 235440, Note_on_c, 1, 63, 64
3, 235536, Note_on_c, 1, 63, 0
3, 235536, Note_on_c, 1, 58, 0
3, 235680, Note_on_c, 1, 70, 72
3, 235680, Note_on_c, 1, 67, 72
3, 236064, Note_on_c, 1, 67, 0
3, 236064, Note_on_c, 1, 70, 0
3, 236160, Note_on_c, 1, 68, 64
3, 236160, Note_on_c, 1, 70, 64
3, 236256, Note_on_c, 1, 70, 0
3, 236256, Note_on_c, 1, 68, 0
3, 236400, Note_on_c, 1, 67, 72
3, 236400, Note_on_c, 1, 70, 72
3, 236784, Note_on_c, 1, 70, 0
3, 236784, Note_on_c, 1, 67, 0
3, 236880, Note_on_c, 1, 70, 64
3, 236880, Note_on_c, 1, 68, 64
3, 236976, Note_on_c, 1, 68, 0
3, 236976, Note_on_c, 1, 70, 0
3, 237120, Note_on_c, 1, 67, 72
3, 237360, Note_on_c, 1, 67, 0
3, 237360, Note_on_c, 1, 65, 64
3, 237456, Note_on_c, 1, 65, 0
3, 237600, Note_on_c, 1, 63, 64
3, 237696, Note_on_c, 1, 63, 0
3, 237840, Note_on_c, 1, 63, 72
3, 237840, Note_on_c, 1, 58, 72
3, 238224, Note_on_c, 1, 58, 0
3, 238224, Note_on_c, 1, 63, 0
3, 238320, Note_on_c, 1, 58, 64
3, 238320, Note_on_c, 1, 62, 64
3, 238512, Note_on_c, 1, 62, 0
3, 238512, Note_on_c, 1, 58, 0
3, 238560, Note_on_c, 1, 67, 72
3, 238560, Note_on_c, 1, 63, 72
3, 238560, Note_on_c, 1, 58, 72
3, 238752, Note_on_c, 1, 58, 0
3, 238752, Note_on_c, 1, 63, 0
3, 238752, Note_on_c, 1, 67, 0
3, 238800, Note_on_c, 1, 63, 64
3, 238800, Note_on_c, 1, 58, 64
3, 238896, Note_on_c, 1, 58, 0
3, 238896, Note_on_c, 1, 63, 0
3, 239040, Note_on_c, 1, 63, 64
3, 239040, Note_on_c, 1, 58, 64
3, 239136, Note_on_c, 1, 58, 0
3, 239136, Note_on_c, 1, 63, 0
3, 239280, Note_on_c, 1, 63, 72
3, 239280, Note_on_c, 1, 58, 72
3, 239664, Note_on_c, 1, 58, 0
3, 239664, Note_on_c, 1, 63, 0
3, 239760, Note_on_c, 1, 58, 64
3, 240000, Note_on_c, 1, 58, 0
3, 240000, Note_on_c, 1, 62, 72
3, 240000, Note_on_c, 1, 58, 72
3, 240192, Note_on_c, 1, 58, 0
3, 240192, Note_on_c, 1, 62, 0
3, 240240, Note_on_c, 1, 58, 64
3, 240336, Note_on_c, 1, 58, 0
3, 240480, Note_on_c, 1, 63, 64
3, 240480, Note_on_c, 1, 58, 64
3, 240576, Note_on_c, 1, 58, 0
3, 240576, Note_on_c, 1, 63, 0
3, 240720, Note_on_c, 1, 65, 72
3, 240912, Note_on_c, 1, 65, 0
3, 240960, Note_on_c, 1, 62, 64
3, 241056, Note_on_c, 1, 62, 0
3, 241200, Note_on_c, 1, 63, 64
3, 241200, Note_on_c, 1, 58, 64
3, 241296, Note_on_c, 1, 58, 0
3, 241296, Note_on_c, 1, 63, 0
3, 241440, Note_on_c, 1, 67, 72
3, 241440, Note_on_c, 1, 70, 72
3, 241824, Note_on_c, 1, 70, 0
3, 241824, Note_on_c, 1, 67, 0
3, 241920, Note_on_c, 1, 70, 64
3, 241920, Note_on_c, 1, 68, 64
3, 242016, Note_on_c, 1, 68, 0
3, 242016, Note_on_c, 1, 70, 0
3, 242160, Note_on_c, 1, 70, 72
3, 242160, Note_on_c, 1, 67, 72
3, 242544, Note_on_c, 1, 67, 0
3, 242544, Note_on_c, 1, 70, 0
3, 242640, Note_on_c, 1, 68, 64
3, 242640, Note_on_c, 1, 70, 64
3, 242736, Note_on_c, 1, 70, 0
3, 242736, Note_on_c, 1, 68, 0
3, 242880, Note_on_c, 1, 67, 72
3, 243120, Note_on_c, 1, 67, 0
3, 243120, Note_on_c, 1, 65, 64
3, 243216, Note_on_c, 1, 65, 0
3, 243360, Note_on_c, 1, 63, 64
3, 243456, Note_on_c, 1, 63, 0
3, 243600, Note_on_c, 1, 58, 72
3, 243600, Note_on_c, 1, 63, 72
3, 243984, Note_on_c, 1, 63, 0
3, 243984, Note_on_c, 1, 58, 0
3, 244080, Note_on_c, 1, 62, 64
3, 244080, Note_on_c, 1, 58, 64
3, 244272, Note_on_c, 1, 58, 0
3, 244272, Note_on_c, 1, 62, 0
3, 244320, Note_on_c, 1, 62, 64
3, 244416, Note_on_c, 1, 62, 0
3, 244560, Note_on_c, 1, 62, 72
3, 244848, Note_on_c, 1, 62, 0
3, 244920, Note_on_c, 1, 65, 64
3, 244968, Note_on_c, 1, 65, 0
3, 245040, Note_on_c, 1, 65, 72
3, 245160, Note_on_c, 1, 65, 0
3, 245160, Note_on_c, 1, 63, 64
3, 245208, Note_on_c, 1, 63, 0
3, 245280, Note_on_c, 1, 63, 64
3, 245376, Note_on_c, 1, 63, 0
3, 245880, Note_on_c, 1, 62, 64
3, 245928, Note_on_c, 1, 62, 0
3, 246000, Note_on_c, 1, 62, 64
3, 246288, Note_on_c, 1, 62, 0
3, 246360, Note_on_c, 1, 65, 64
3, 246408, Note_on_c, 1, 65, 0
3, 246480, Note_on_c, 1, 65, 72
3, 246600, Note_on_c, 1, 65, 0
3, 246600, Note_on_c, 1, 63, 64
3, 246648, Note_on_c, 1, 63, 0
3, 246720, Note_on_c, 1, 63, 64
3, 246816, Note_on_c, 1, 63, 0
3, 247200, Note_on_c, 1, 68, 72
3, 247440, Note_on_c, 1, 68, 0
3, 247440, Note_on_c, 1, 68, 64
3, 247536, Note_on_c, 1, 68, 0
3, 247920, Note_on_c, 1, 70, 72
3, 248160, Note_on_c, 1, 70, 0
3, 248160, Note_on_c, 1, 70, 64
3, 248256, Note_on_c, 1, 70, 0
3, 248640, Note_on_c, 1, 63, 72
3, 248832, Note_on_c, 1, 63, 0
3, 249120, Note_on_c, 1, 63, 64
3, 249312, Note_on_c, 1, 63, 0
3, 249360, Note_on_c, 1, 63, 72
3, 249552, Note_on_c, 1, 63, 0
3, 249840, Note_on_c, 1, 56, 64
3, 250032, Note_on_c, 1, 56, 0
3, 250080, Note_on_c, 1, 55, 72
3, 250272, Note_on_c, 1, 55, 0
3, 250800, Note_on_c, 1, 68, 72
3, 251040, Note_on_c, 1, 68, 0
3, 251040, Note_on_c, 1, 68, 64
3, 251136, Note_on_c, 1, 68, 0
3, 251520, Note_on_c, 1, 70, 72
3, 251760, Note_on_c, 1, 70, 0
3, 251760, Note_on_c, 1, 70, 64
3, 251856, Note_on_c, 1, 70, 0
3, 252240, Note_on_c, 1, 63, 64
3, 252432, Note_on_c, 1, 63, 0
3, 252720, Note_on_c, 1, 63, 56
3, 252912, Note_on_c, 1, 63, 0
3, 252960, Note_on_c, 1, 63, 64
3, 253152, Note_on_c, 1, 63, 0
3, 253440, Note_on_c, 1, 56, 56
3, 253632, Note_on_c, 1, 56, 0
3, 253680, Note_on_c, 1, 55, 64
3, 253872, Note_on_c, 1, 55, 0
3, 254640, Note_on_c, 1, 62, 72
3, 254928, Note_on_c, 1, 62, 0
3, 255000, Note_on_c, 1, 65, 64
3, 255048, Note_on_c, 1, 65, 0
3, 255120, Note_on_c, 1, 65, 72
3, 255240, Note_on_c, 1, 65, 0
3, 255240, Note_on_c, 1, 63, 64
3, 255288, Note_on_c, 1, 63, 0
3, 255360, Note_on_c, 1, 63, 64
3, 255456, Note_on_c, 1, 63, 0
3, 255960, Note_on_c, 1, 74, 64
3, 256008, Note_on_c, 1, 74, 0
3, 256080, Note_on_c, 1, 74, 64
3, 256368, Note_on_c, 1, 74, 0
3, 256440, Note_on_c, 1, 77, 64
3, 256488, Note_on_c, 1, 77, 0
3, 256560, Note_on_c, 1, 77, 72
3, 256680, Note_on_c, 1, 77, 0
3, 256680, Note_on_c, 1, 75, 64
3, 256728, Note_on_c, 1, 75, 0
3, 256800, Note_on_c, 1, 75, 64
3, 256896, Note_on_c, 1, 75, 0
3, 257280, Note_on_c, 1, 68, 72
3, 257520, Note_on_c, 1, 68, 0
3, 257520, Note_on_c, 1, 68, 64
3, 257616, Note_on_c, 1, 68, 0
3, 258000, Note_on_c, 1, 70, 72
3, 258240, Note_on_c, 1, 70, 0
3, 258240, Note_on_c, 1, 70, 64
3, 258336, Note_on_c, 1, 70, 0
3, 258720, Note_on_c, 1, 63, 56
3, 258912, Note_on_c, 1, 63, 0
3, 259200, Note_on_c, 1, 63, 56
3, 259392, Note_on_c, 1, 63, 0
3, 259440, Note_on_c, 1, 63, 64
3, 259632, Note_on_c, 1, 63, 0
3, 259920, Note_on_c, 1, 56, 56
3, 260112, Note_on_c, 1, 56, 0
3, 260160, Note_on_c, 1, 55, 64
3, 260352, Note_on_c, 1, 55, 0
3, 260880, Note_on_c, 1, 56, 80
3, 260880, Note_on_c, 1, 53, 80
3, 261120, Note_on_c, 1, 53, 0
3, 261120, Note_on_c, 1, 56, 0
3, 261120, Note_on_c, 1, 56, 72
3, 261120, Note_on_c, 1, 53, 72
3, 261216, Note_on_c, 1, 53, 0
3, 261216, Note_on_c, 1, 56, 0
3, 261600, Note_on_c, 1, 53, 80
3, 261600, Note_on_c, 1, 50, 80
3, 261840, Note_on_c, 1, 50, 0
3, 261840, Note_on_c, 1, 53, 0
3, 261840, Note_on_c, 1, 50, 72
3, 261840, Note_on_c, 1, 53, 72
3, 261936, Note_on_c, 1, 53, 0
3, 261936, Note_on_c, 1, 50, 0
3, 262320, Note_on_c, 1, 58, 48
3, 262320, Note_on_c, 1, 63, 48
3, 262512, Note_on_c, 1, 63, 0
3, 262512, Note_on_c, 1, 58, 0
3, 262560, Note_on_c, 1, 58, 48
3, 262560, Note_on_c, 1, 63, 48
3, 262752, Note_on_c, 1, 63, 0
3, 262752, Note_on_c, 1, 58, 0
3, 263040, Note_on_c, 1, 63, 48
3, 263040, Note_on_c, 1, 58, 48
3, 263232, Note_on_c, 1, 58, 0
3, 263232, Note_on_c, 1, 63, 0
3, 263280, Note_on_c, 1, 64, 48
3, 263280, Note_on_c, 1, 58, 48
3, 263472, Note_on_c, 1, 58, 0
3, 263472, Note_on_c, 1, 64, 0
3, 263760, Note_on_c, 1, 60, 80
3, 263760, Note_on_c, 1, 65, 80
3, 263952, Note_on_c, 1, 65, 0
3, 263952, Note_on_c, 1, 60, 0
3, 270000, Note_on_c, 1, 58, 80
3, 270064, Note_on_c, 1, 58, 0
3, 270080, Note_on_c, 1, 63, 80
3, 270144, Note_on_c, 1, 63, 0
3, 270160, Note_on_c, 1, 67, 80
3, 270224, Note_on_c, 1, 67, 0
3, 270240, Note_on_c, 1, 70, 80
3, 270432, Note_on_c, 1, 70, 0
3, 271680, Note_on_c, 1, 63, 80
3, 271704, Note_on_c, 1, 63, 0
3, 271710, Note_on_c, 1, 62, 80
3, 271734, Note_on_c, 1, 62, 0
3, 271740, Note_on_c, 1, 60, 80
3, 271764, Note_on_c, 1, 60, 0
3, 271770, Note_on_c, 1, 58, 80
3, 271794, Note_on_c, 1, 58, 0
3, 271800, Note_on_c, 1, 56, 80
3, 271824, Note_on_c, 1, 56, 0
3, 271830, Note_on_c, 1, 55, 80
3, 271854, Note_on_c, 1, 55, 0
3, 271860, Note_on_c, 1, 53, 80
3, 271884, Note_on_c, 1, 53, 0
3, 271890, Note_on_c, 1, 51, 80
3, 271914, Note_on_c, 1, 51, 0
3, 271920, Note_on_c, 1, 50, 80
3, 271968, Note_on_c, 1, 50, 0
3, 271980, Note_on_c, 1, 48, 80
3, 272028, Note_on_c, 1, 48, 0
3, 272040, Note_on_c, 1, 46, 80
3, 272136, Note_on_c, 1, 46, 0
3, 274020, Note_on_c, 1, 56, 56
3, 274020, Note_on_c, 1, 58, 56
3, 274068, Note_on_c, 1, 58, 0
3, 274068, Note_on_c, 1, 56, 0
3, 274080, Note_on_c, 1, 56, 48
3, 274080, Note_on_c, 1, 58, 48
3, 274848, Note_on_c, 1, 56, 0
3, 275040, Note_on_c, 1, 55, 32
3, 275490, Note_on_c, 1, 55, 0
3, 275490, Note_on_c, 1, 58, 0
3, 275490, End_track
4, 0, Start_track
4, 0, MIDI_port, 0
4, 0, Title_t, "MIDI by Marty Weimer 10/25/95"
4, 0, Program_c, 2, 0
4, 0, Control_c, 2, 7, 118
4, 0, Control_c, 2, 10, 56
4, 2400, Note_on_c, 2, 55, 72
4, 2520, Note_on_c, 2, 55, 0
4, 2520, Note_on_c, 2, 55, 72
4, 2640, Note_on_c, 2, 55, 0
4, 2640, Note_on_c, 2, 56, 72
4, 2664, Note_on_c, 2, 56, 0
4, 2760, Note_on_c, 2, 56, 56
4, 2880, Note_on_c, 2, 56, 0
4, 2880, Note_on_c, 2, 55, 56
4, 3000, Note_on_c, 2, 55, 0
4, 3000, Note_on_c, 2, 55, 56
4, 3120, Note_on_c, 2, 55, 0
4, 3120, Note_on_c, 2, 56, 56
4, 3144, Note_on_c, 2, 56, 0
4, 3240, Note_on_c, 2, 56, 72
4, 3360, Note_on_c, 2, 56, 0
4, 3360, Note_on_c, 2, 55, 72
4, 3456, Note_on_c, 2, 55, 0
4, 6240, Note_on_c, 2, 55, 72
4, 6360, Note_on_c, 2, 55, 0
4, 6360, Note_on_c, 2, 55, 72
4, 6480, Note_on_c, 2, 55, 0
4, 6480, Note_on_c, 2, 56, 72
4, 6504, Note_on_c, 2, 56, 0
4, 6600, Note_on_c, 2, 56, 56
4, 6720, Note_on_c, 2, 56, 0
4, 6720, Note_on_c, 2, 55, 56
4, 6840, Note_on_c, 2, 55, 0
4, 6840, Note_on_c, 2, 55, 56
4, 6960, Note_on_c, 2, 55, 0
4, 6960, Note_on_c, 2, 56, 56
4, 6984, Note_on_c, 2, 56, 0
4, 7080, Note_on_c, 2, 56, 72
4, 7200, Note_on_c, 2, 56, 0
4, 7200, Note_on_c, 2, 55, 72
4, 7296, Note_on_c, 2, 55, 0
4, 8160, Note_on_c, 2, 58, 80
4, 8352, Note_on_c, 2, 58, 0
4, 8400, Note_on_c, 2, 58, 80
4, 8520, Note_on_c, 2, 58, 0
4, 8520, Note_on_c, 2, 58, 80
4, 8640, Note_on_c, 2, 58, 0
4, 8640, Note_on_c, 2, 58, 80
4, 8832, Note_on_c, 2, 58, 0
4, 9240, Note_on_c, 2, 46, 80
4, 9288, Note_on_c, 2, 46, 0
4, 9360, Note_on_c, 2, 50, 80
4, 9408, Note_on_c, 2, 50, 0
4, 9480, Note_on_c, 2, 46, 80
4, 9528, Note_on_c, 2, 46, 0
4, 9720, Note_on_c, 2, 51, 80
4, 9816, Note_on_c, 2, 51, 0
4, 9840, Note_on_c, 2, 55, 80
4, 9936, Note_on_c, 2, 55, 0
4, 9960, Note_on_c, 2, 51, 80
4, 10056, Note_on_c, 2, 51, 0
4, 10080, Note_on_c, 2, 58, 80
4, 10176, Note_on_c, 2, 58, 0
4, 10200, Note_on_c, 2, 58, 80
4, 10296, Note_on_c, 2, 58, 0
4, 10320, Note_on_c, 2, 58, 80
4, 10416, Note_on_c, 2, 58, 0
4, 10440, Note_on_c, 2, 58, 80
4, 10536, Note_on_c, 2, 58, 0
4, 10560, Note_on_c, 2, 58, 80
4, 10656, Note_on_c, 2, 58, 0
4, 10680, Note_on_c, 2, 58, 80
4, 10776, Note_on_c, 2, 58, 0
4, 10800, Note_on_c, 2, 58, 80
4, 10896, Note_on_c, 2, 58, 0
4, 10920, Note_on_c, 2, 58, 80
4, 11016, Note_on_c, 2, 58, 0
4, 11040, Note_on_c, 2, 58, 80
4, 11232, Note_on_c, 2, 58, 0
4, 11280, Note_on_c, 2, 56, 80
4, 11472, Note_on_c, 2, 56, 0
4, 11520, Note_on_c, 2, 58, 80
4, 11712, Note_on_c, 2, 58, 0
4, 11760, Note_on_c, 2, 58, 80
4, 11760, Note_on_c, 2, 56, 80
4, 11952, Note_on_c, 2, 56, 0
4, 11952, Note_on_c, 2, 58, 0
4, 12000, Note_on_c, 2, 58, 80
4, 12000, Note_on_c, 2, 56, 80
4, 12192, Note_on_c, 2, 56, 0
4, 12240, Note_on_c, 2, 55, 80
4, 12336, Note_on_c, 2, 55, 0
4, 12336, Note_on_c, 2, 58, 0
4, 12480, Note_on_c, 2, 53, 80
4, 12540, Note_on_c, 2, 53, 0
4, 12540, Note_on_c, 2, 58, 80
4, 12600, Note_on_c, 2, 58, 0
4, 12600, Note_on_c, 2, 56, 80
4, 12660, Note_on_c, 2, 56, 0
4, 12660, Note_on_c, 2, 58, 80
4, 12720, Note_on_c, 2, 58, 0
4, 12720, Note_on_c, 2, 53, 80
4, 12780, Note_on_c, 2, 53, 0
4, 12780, Note_on_c, 2, 58, 80
4, 12840, Note_on_c, 2, 58, 0
4, 12840, Note_on_c, 2, 56, 80
4, 12900, Note_on_c, 2, 56, 0
4, 12900, Note_on_c, 2, 58, 80
4, 12960, Note_on_c, 2, 58, 0
4, 12960, Note_on_c, 2, 53, 80
4, 13020, Note_on_c, 2, 53, 0
4, 13020, Note_on_c, 2, 58, 80
4, 13080, Note_on_c, 2, 58, 0
4, 13080, Note_on_c, 2, 56, 80
4, 13140, Note_on_c, 2, 56, 0
4, 13140, Note_on_c, 2, 58, 80
4, 13200, Note_on_c, 2, 58, 0
4, 13200, Note_on_c, 2, 53, 80
4, 13260, Note_on_c, 2, 53, 0
4, 13260, Note_on_c, 2, 58, 80
4, 13320, Note_on_c, 2, 58, 0
4, 13320, Note_on_c, 2, 56, 80
4, 13380, Note_on_c, 2, 56, 0
4, 13380, Note_on_c, 2, 58, 80
4, 13440, Note_on_c, 2, 58, 0
4, 13440, Note_on_c, 2, 58, 80
4, 13536, Note_on_c, 2, 58, 0
4, 13560, Note_on_c, 2, 51, 80
4, 13656, Note_on_c, 2, 51, 0
4, 13680, Note_on_c, 2, 58, 80
4, 13872, Note_on_c, 2, 58, 0
4, 13920, Note_on_c, 2, 58, 80
4, 14112, Note_on_c, 2, 58, 0
4, 14160, Note_on_c, 2, 56, 80
4, 14352, Note_on_c, 2, 56, 0
4, 14400, Note_on_c, 2, 55, 80
4, 14496, Note_on_c, 2, 55, 0
4, 14880, Note_on_c, 2, 58, 80
4, 15072, Note_on_c, 2, 58, 0
4, 15120, Note_on_c, 2, 58, 80
4, 15216, Note_on_c, 2, 58, 0
4, 15240, Note_on_c, 2, 58, 80
4, 15336, Note_on_c, 2, 58, 0
4, 15360, Note_on_c, 2, 58, 80
4, 15552, Note_on_c, 2, 58, 0
4, 15960, Note_on_c, 2, 46, 80
4, 16056, Note_on_c, 2, 46, 0
4, 16080, Note_on_c, 2, 50, 80
4, 16176, Note_on_c, 2, 50, 0
4, 16200, Note_on_c, 2, 46, 80
4, 16296, Note_on_c, 2, 46, 0
4, 16440, Note_on_c, 2, 51, 80
4, 16536, Note_on_c, 2, 51, 0
4, 16560, Note_on_c, 2, 55, 80
4, 16656, Note_on_c, 2, 55, 0
4, 16680, Note_on_c, 2, 51, 80
4, 16776, Note_on_c, 2, 51, 0
4, 16800, Note_on_c, 2, 58, 80
4, 16896, Note_on_c, 2, 58, 0
4, 16920, Note_on_c, 2, 58, 80
4, 17016, Note_on_c, 2, 58, 0
4, 17040, Note_on_c, 2, 58, 80
4, 17136, Note_on_c, 2, 58, 0
4, 17160, Note_on_c, 2, 58, 80
4, 17256, Note_on_c, 2, 58, 0
4, 17280, Note_on_c, 2, 58, 80
4, 17376, Note_on_c, 2, 58, 0
4, 17400, Note_on_c, 2, 58, 80
4, 17496, Note_on_c, 2, 58, 0
4, 17520, Note_on_c, 2, 58, 80
4, 17616, Note_on_c, 2, 58, 0
4, 17640, Note_on_c, 2, 58, 80
4, 17736, Note_on_c, 2, 58, 0
4, 17760, Note_on_c, 2, 58, 80
4, 17952, Note_on_c, 2, 58, 0
4, 18000, Note_on_c, 2, 56, 80
4, 18192, Note_on_c, 2, 56, 0
4, 18240, Note_on_c, 2, 58, 80
4, 18432, Note_on_c, 2, 58, 0
4, 18480, Note_on_c, 2, 56, 80
4, 18480, Note_on_c, 2, 58, 80
4, 18672, Note_on_c, 2, 58, 0
4, 18672, Note_on_c, 2, 56, 0
4, 18720, Note_on_c, 2, 56, 80
4, 18720, Note_on_c, 2, 58, 80
4, 18912, Note_on_c, 2, 56, 0
4, 18960, Note_on_c, 2, 55, 80
4, 19056, Note_on_c, 2, 55, 0
4, 19056, Note_on_c, 2, 58, 0
4, 19200, Note_on_c, 2, 53, 80
4, 19248, Note_on_c, 2, 53, 0
4, 19260, Note_on_c, 2, 58, 80
4, 19308, Note_on_c, 2, 58, 0
4, 19320, Note_on_c, 2, 56, 80
4, 19368, Note_on_c, 2, 56, 0
4, 19380, Note_on_c, 2, 58, 80
4, 19428, Note_on_c, 2, 58, 0
4, 19440, Note_on_c, 2, 53, 80
4, 19488, Note_on_c, 2, 53, 0
4, 19500, Note_on_c, 2, 58, 80
4, 19548, Note_on_c, 2, 58, 0
4, 19560, Note_on_c, 2, 56, 80
4, 19608, Note_on_c, 2, 56, 0
4, 19620, Note_on_c, 2, 58, 80
4, 19668, Note_on_c, 2, 58, 0
4, 19680, Note_on_c, 2, 53, 80
4, 19728, Note_on_c, 2, 53, 0
4, 19740, Note_on_c, 2, 58, 80
4, 19788, Note_on_c, 2, 58, 0
4, 19800, Note_on_c, 2, 56, 80
4, 19848, Note_on_c, 2, 56, 0
4, 19860, Note_on_c, 2, 58, 80
4, 19908, Note_on_c, 2, 58, 0
4, 19920, Note_on_c, 2, 53, 80
4, 19968, Note_on_c, 2, 53, 0
4, 19980, Note_on_c, 2, 58, 80
4, 20028, Note_on_c, 2, 58, 0
4, 20040, Note_on_c, 2, 56, 80
4, 20088, Note_on_c, 2, 56, 0
4, 20100, Note_on_c, 2, 58, 80
4, 20148, Note_on_c, 2, 58, 0
4, 20160, Note_on_c, 2, 58, 80
4, 20256, Note_on_c, 2, 58, 0
4, 20280, Note_on_c, 2, 51, 80
4, 20376, Note_on_c, 2, 51, 0
4, 20400, Note_on_c, 2, 58, 80
4, 20592, Note_on_c, 2, 58, 0
4, 20640, Note_on_c, 2, 58, 80
4, 20832, Note_on_c, 2, 58, 0
4, 20880, Note_on_c, 2, 56, 80
4, 21072, Note_on_c, 2, 56, 0
4, 21120, Note_on_c, 2, 55, 80
4, 21216, Note_on_c, 2, 55, 0
4, 21600, Note_on_c, 2, 55, 80
4, 21696, Note_on_c, 2, 55, 0
4, 21720, Note_on_c, 2, 58, 80
4, 21816, Note_on_c, 2, 58, 0
4, 21960, Note_on_c, 2, 58, 80
4, 22056, Note_on_c, 2, 58, 0
4, 22080, Note_on_c, 2, 58, 80
4, 22176, Note_on_c, 2, 58, 0
4, 22200, Note_on_c, 2, 55, 80
4, 22296, Note_on_c, 2, 55, 0
4, 22440, Note_on_c, 2, 58, 80
4, 22536, Note_on_c, 2, 58, 0
4, 22560, Note_on_c, 2, 60, 80
4, 22848, Note_on_c, 2, 60, 0
4, 22920, Note_on_c, 2, 62, 80
4, 23016, Note_on_c, 2, 62, 0
4, 23040, Note_on_c, 2, 63, 80
4, 23136, Note_on_c, 2, 63, 0
4, 23160, Note_on_c, 2, 65, 80
4, 23256, Note_on_c, 2, 65, 0
4, 23640, Note_on_c, 2, 58, 80
4, 23736, Note_on_c, 2, 58, 0
4, 23760, Note_on_c, 2, 58, 80
4, 23952, Note_on_c, 2, 58, 0
4, 24120, Note_on_c, 2, 58, 80
4, 24216, Note_on_c, 2, 58, 0
4, 24240, Note_on_c, 2, 58, 80
4, 24432, Note_on_c, 2, 58, 0
4, 24600, Note_on_c, 2, 58, 80
4, 24792, Note_on_c, 2, 58, 0
4, 24840, Note_on_c, 2, 58, 80
4, 24936, Note_on_c, 2, 58, 0
4, 24960, Note_on_c, 2, 51, 80
4, 25152, Note_on_c, 2, 51, 0
4, 25200, Note_on_c, 2, 50, 80
4, 25392, Note_on_c, 2, 50, 0
4, 25440, Note_on_c, 2, 55, 80
4, 25536, Note_on_c, 2, 55, 0
4, 25560, Note_on_c, 2, 58, 80
4, 25656, Note_on_c, 2, 58, 0
4, 25800, Note_on_c, 2, 58, 80
4, 25896, Note_on_c, 2, 58, 0
4, 25920, Note_on_c, 2, 58, 80
4, 26016, Note_on_c, 2, 58, 0
4, 26040, Note_on_c, 2, 55, 80
4, 26136, Note_on_c, 2, 55, 0
4, 26280, Note_on_c, 2, 58, 80
4, 26376, Note_on_c, 2, 58, 0
4, 26400, Note_on_c, 2, 60, 80
4, 26688, Note_on_c, 2, 60, 0
4, 26760, Note_on_c, 2, 62, 80
4, 26856, Note_on_c, 2, 62, 0
4, 26880, Note_on_c, 2, 63, 80
4, 26976, Note_on_c, 2, 63, 0
4, 27000, Note_on_c, 2, 65, 80
4, 27096, Note_on_c, 2, 65, 0
4, 27480, Note_on_c, 2, 58, 80
4, 27576, Note_on_c, 2, 58, 0
4, 27600, Note_on_c, 2, 58, 80
4, 27792, Note_on_c, 2, 58, 0
4, 27960, Note_on_c, 2, 58, 80
4, 28056, Note_on_c, 2, 58, 0
4, 28080, Note_on_c, 2, 58, 80
4, 28272, Note_on_c, 2, 58, 0
4, 28440, Note_on_c, 2, 58, 80
4, 28632, Note_on_c, 2, 58, 0
4, 28680, Note_on_c, 2, 58, 80
4, 28776, Note_on_c, 2, 58, 0
4, 28800, Note_on_c, 2, 51, 80
4, 28992, Note_on_c, 2, 51, 0
4, 29040, Note_on_c, 2, 50, 80
4, 29232, Note_on_c, 2, 50, 0
4, 29280, Note_on_c, 2, 58, 56
4, 29472, Note_on_c, 2, 58, 0
4, 29640, Note_on_c, 2, 58, 56
4, 29736, Note_on_c, 2, 58, 0
4, 29760, Note_on_c, 2, 58, 56
4, 29952, Note_on_c, 2, 58, 0
4, 30120, Note_on_c, 2, 58, 56
4, 30216, Note_on_c, 2, 58, 0
4, 30240, Note_on_c, 2, 58, 56
4, 30432, Note_on_c, 2, 58, 0
4, 30600, Note_on_c, 2, 58, 56
4, 30696, Note_on_c, 2, 58, 0
4, 30720, Note_on_c, 2, 58, 56
4, 30912, Note_on_c, 2, 58, 0
4, 31320, Note_on_c, 2, 65, 80
4, 31320, Note_on_c, 2, 68, 80
4, 31512, Note_on_c, 2, 68, 0
4, 31512, Note_on_c, 2, 65, 0
4, 31560, Note_on_c, 2, 65, 80
4, 31656, Note_on_c, 2, 65, 0
4, 31800, Note_on_c, 2, 65, 80
4, 31800, Note_on_c, 2, 58, 80
4, 31992, Note_on_c, 2, 58, 0
4, 31992, Note_on_c, 2, 65, 0
4, 32040, Note_on_c, 2, 65, 80
4, 32040, Note_on_c, 2, 58, 80
4, 32136, Note_on_c, 2, 58, 0
4, 32136, Note_on_c, 2, 65, 0
4, 32280, Note_on_c, 2, 55, 80
4, 32376, Note_on_c, 2, 55, 0
4, 32520, Note_on_c, 2, 56, 80
4, 32616, Note_on_c, 2, 56, 0
4, 32760, Note_on_c, 2, 51, 80
4, 32856, Note_on_c, 2, 51, 0
4, 33000, Note_on_c, 2, 53, 80
4, 33096, Note_on_c, 2, 53, 0
4, 33120, Note_on_c, 2, 51, 80
4, 33312, Note_on_c, 2, 51, 0
4, 33720, Note_on_c, 2, 68, 80
4, 33720, Note_on_c, 2, 65, 80
4, 33912, Note_on_c, 2, 65, 0
4, 33912, Note_on_c, 2, 68, 0
4, 33960, Note_on_c, 2, 65, 80
4, 34056, Note_on_c, 2, 65, 0
4, 34200, Note_on_c, 2, 58, 80
4, 34200, Note_on_c, 2, 65, 80
4, 34392, Note_on_c, 2, 65, 0
4, 34392, Note_on_c, 2, 58, 0
4, 34440, Note_on_c, 2, 58, 80
4, 34440, Note_on_c, 2, 65, 80
4, 34536, Note_on_c, 2, 65, 0
4, 34536, Note_on_c, 2, 58, 0
4, 34680, Note_on_c, 2, 55, 80
4, 34776, Note_on_c, 2, 55, 0
4, 34920, Note_on_c, 2, 56, 80
4, 35016, Note_on_c, 2, 56, 0
4, 35160, Note_on_c, 2, 55, 80
4, 35256, Note_on_c, 2, 55, 0
4, 35280, Note_on_c, 2, 56, 80
4, 35376, Note_on_c, 2, 56, 0
4, 35400, Note_on_c, 2, 53, 80
4, 35496, Note_on_c, 2, 53, 0
4, 35520, Note_on_c, 2, 51, 80
4, 35616, Note_on_c, 2, 51, 0
4, 35640, Note_on_c, 2, 46, 80
4, 35736, Note_on_c, 2, 46, 0
4, 35760, Note_on_c, 2, 39, 80
4, 35952, Note_on_c, 2, 39, 0
4, 36000, Note_on_c, 2, 58, 56
4, 36192, Note_on_c, 2, 58, 0
4, 36360, Note_on_c, 2, 58, 56
4, 36456, Note_on_c, 2, 58, 0
4, 36480, Note_on_c, 2, 58, 56
4, 36672, Note_on_c, 2, 58, 0
4, 36840, Note_on_c, 2, 58, 56
4, 36936, Note_on_c, 2, 58, 0
4, 36960, Note_on_c, 2, 58, 56
4, 37152, Note_on_c, 2, 58, 0
4, 37320, Note_on_c, 2, 58, 56
4, 37416, Note_on_c, 2, 58, 0
4, 37440, Note_on_c, 2, 58, 56
4, 37632, Note_on_c, 2, 58, 0
4, 38040, Note_on_c, 2, 68, 80
4, 38040, Note_on_c, 2, 65, 80
4, 38232, Note_on_c, 2, 65, 0
4, 38232, Note_on_c, 2, 68, 0
4, 38280, Note_on_c, 2, 65, 80
4, 38376, Note_on_c, 2, 65, 0
4, 38520, Note_on_c, 2, 58, 80
4, 38520, Note_on_c, 2, 65, 80
4, 38712, Note_on_c, 2, 65, 0
4, 38712, Note_on_c, 2, 58, 0
4, 38760, Note_on_c, 2, 58, 80
4, 38760, Note_on_c, 2, 65, 80
4, 38856, Note_on_c, 2, 65, 0
4, 38856, Note_on_c, 2, 58, 0
4, 39000, Note_on_c, 2, 55, 80
4, 39096, Note_on_c, 2, 55, 0
4, 39240, Note_on_c, 2, 56, 80
4, 39336, Note_on_c, 2, 56, 0
4, 39480, Note_on_c, 2, 51, 80
4, 39576, Note_on_c, 2, 51, 0
4, 39720, Note_on_c, 2, 53, 80
4, 39816, Note_on_c, 2, 53, 0
4, 39840, Note_on_c, 2, 51, 80
4, 40032, Note_on_c, 2, 51, 0
4, 40440, Note_on_c, 2, 65, 80
4, 40440, Note_on_c, 2, 68, 80
4, 40632, Note_on_c, 2, 68, 0
4, 40632, Note_on_c, 2, 65, 0
4, 40680, Note_on_c, 2, 65, 80
4, 40776, Note_on_c, 2, 65, 0
4, 40920, Note_on_c, 2, 65, 80
4, 40920, Note_on_c, 2, 58, 80
4, 41112, Note_on_c, 2, 58, 0
4, 41112, Note_on_c, 2, 65, 0
4, 41160, Note_on_c, 2, 65, 80
4, 41160, Note_on_c, 2, 58, 80
4, 41256, Note_on_c, 2, 58, 0
4, 41256, Note_on_c, 2, 65, 0
4, 41400, Note_on_c, 2, 55, 80
4, 41496, Note_on_c, 2, 55, 0
4, 41640, Note_on_c, 2, 56, 80
4, 41736, Note_on_c, 2, 56, 0
4, 41880, Note_on_c, 2, 55, 80
4, 41976, Note_on_c, 2, 55, 0
4, 42000, Note_on_c, 2, 56, 80
4, 42096, Note_on_c, 2, 56, 0
4, 42120, Note_on_c, 2, 53, 80
4, 42216, Note_on_c, 2, 53, 0
4, 42240, Note_on_c, 2, 51, 80
4, 42336, Note_on_c, 2, 51, 0
4, 42360, Note_on_c, 2, 46, 80
4, 42456, Note_on_c, 2, 46, 0
4, 42480, Note_on_c, 2, 39, 80
4, 42672, Note_on_c, 2, 39, 0
4, 43680, Note_on_c, 2, 60, 80
4, 43728, Note_on_c, 2, 60, 0
4, 43800, Note_on_c, 2, 60, 80
4, 43848, Note_on_c, 2, 60, 0
4, 43920, Note_on_c, 2, 60, 80
4, 44016, Note_on_c, 2, 60, 0
4, 44040, Note_on_c, 2, 63, 80
4, 44136, Note_on_c, 2, 63, 0
4, 47520, Note_on_c, 2, 60, 80
4, 47616, Note_on_c, 2, 60, 0
4, 47640, Note_on_c, 2, 60, 80
4, 47736, Note_on_c, 2, 60, 0
4, 47760, Note_on_c, 2, 60, 80
4, 47856, Note_on_c, 2, 60, 0
4, 47880, Note_on_c, 2, 63, 80
4, 47976, Note_on_c, 2, 63, 0
4, 50400, Note_on_c, 2, 62, 80
4, 50496, Note_on_c, 2, 62, 0
4, 50640, Note_on_c, 2, 62, 80
4, 50736, Note_on_c, 2, 62, 0
4, 50760, Note_on_c, 2, 65, 80
4, 50856, Note_on_c, 2, 65, 0
4, 50880, Note_on_c, 2, 65, 80
4, 51072, Note_on_c, 2, 65, 0
4, 51120, Note_on_c, 2, 63, 80
4, 51216, Note_on_c, 2, 63, 0
4, 52320, Note_on_c, 2, 65, 80
4, 52608, Note_on_c, 2, 65, 0
4, 52680, Note_on_c, 2, 63, 80
4, 52728, Note_on_c, 2, 63, 0
4, 52740, Note_on_c, 2, 62, 80
4, 52788, Note_on_c, 2, 62, 0
4, 52800, Note_on_c, 2, 65, 80
4, 53088, Note_on_c, 2, 65, 0
4, 53160, Note_on_c, 2, 63, 80
4, 53208, Note_on_c, 2, 63, 0
4, 53220, Note_on_c, 2, 62, 80
4, 53268, Note_on_c, 2, 62, 0
4, 53280, Note_on_c, 2, 63, 80
4, 53664, Note_on_c, 2, 63, 0
4, 53760, Note_on_c, 2, 63, 80
4, 53952, Note_on_c, 2, 63, 0
4, 54000, Note_on_c, 2, 62, 80
4, 54192, Note_on_c, 2, 62, 0
4, 54720, Note_on_c, 2, 65, 80
4, 55008, Note_on_c, 2, 65, 0
4, 55080, Note_on_c, 2, 63, 80
4, 55128, Note_on_c, 2, 63, 0
4, 55140, Note_on_c, 2, 62, 80
4, 55188, Note_on_c, 2, 62, 0
4, 55200, Note_on_c, 2, 65, 80
4, 55488, Note_on_c, 2, 65, 0
4, 55560, Note_on_c, 2, 63, 80
4, 55608, Note_on_c, 2, 63, 0
4, 55620, Note_on_c, 2, 62, 80
4, 55668, Note_on_c, 2, 62, 0
4, 57120, Note_on_c, 2, 62, 80
4, 57216, Note_on_c, 2, 62, 0
4, 57360, Note_on_c, 2, 62, 80
4, 57456, Note_on_c, 2, 62, 0
4, 57480, Note_on_c, 2, 65, 80
4, 57576, Note_on_c, 2, 65, 0
4, 57600, Note_on_c, 2, 65, 80
4, 57792, Note_on_c, 2, 65, 0
4, 57840, Note_on_c, 2, 63, 80
4, 57936, Note_on_c, 2, 63, 0
4, 59040, Note_on_c, 2, 65, 80
4, 59328, Note_on_c, 2, 65, 0
4, 59400, Note_on_c, 2, 63, 80
4, 59448, Note_on_c, 2, 63, 0
4, 59460, Note_on_c, 2, 62, 80
4, 59508, Note_on_c, 2, 62, 0
4, 59520, Note_on_c, 2, 65, 80
4, 59808, Note_on_c, 2, 65, 0
4, 59880, Note_on_c, 2, 63, 80
4, 59928, Note_on_c, 2, 63, 0
4, 59940, Note_on_c, 2, 62, 80
4, 59988, Note_on_c, 2, 62, 0
4, 60000, Note_on_c, 2, 63, 80
4, 60384, Note_on_c, 2, 63, 0
4, 60480, Note_on_c, 2, 63, 80
4, 60672, Note_on_c, 2, 63, 0
4, 60720, Note_on_c, 2, 62, 80
4, 60912, Note_on_c, 2, 62, 0
4, 61440, Note_on_c, 2, 65, 80
4, 61728, Note_on_c, 2, 65, 0
4, 61800, Note_on_c, 2, 63, 80
4, 61848, Note_on_c, 2, 63, 0
4, 61860, Note_on_c, 2, 62, 80
4, 61908, Note_on_c, 2, 62, 0
4, 61920, Note_on_c, 2, 65, 80
4, 62208, Note_on_c, 2, 65, 0
4, 62280, Note_on_c, 2, 63, 80
4, 62328, Note_on_c, 2, 63, 0
4, 62340, Note_on_c, 2, 62, 80
4, 62388, Note_on_c, 2, 62, 0
4, 63840, Note_on_c, 2, 63, 56
4, 64032, Note_on_c, 2, 63, 0
4, 64200, Note_on_c, 2, 63, 56
4, 64296, Note_on_c, 2, 63, 0
4, 64320, Note_on_c, 2, 63, 56
4, 64512, Note_on_c, 2, 63, 0
4, 64680, Note_on_c, 2, 67, 56
4, 64776, Note_on_c, 2, 67, 0
4, 64800, Note_on_c, 2, 68, 56
4, 64992, Note_on_c, 2, 68, 0
4, 65040, Note_on_c, 2, 70, 56
4, 65232, Note_on_c, 2, 70, 0
4, 65280, Note_on_c, 2, 72, 56
4, 65376, Note_on_c, 2, 72, 0
4, 65400, Note_on_c, 2, 74, 56
4, 65496, Note_on_c, 2, 74, 0
4, 65760, Note_on_c, 2, 67, 56
4, 65952, Note_on_c, 2, 67, 0
4, 66000, Note_on_c, 2, 68, 56
4, 66192, Note_on_c, 2, 68, 0
4, 66240, Note_on_c, 2, 67, 56
4, 66432, Note_on_c, 2, 67, 0
4, 66480, Note_on_c, 2, 68, 56
4, 66672, Note_on_c, 2, 68, 0
4, 66720, Note_on_c, 2, 67, 56
4, 66840, Note_on_c, 2, 67, 0
4, 66840, Note_on_c, 2, 63, 56
4, 66960, Note_on_c, 2, 63, 0
4, 66960, Note_on_c, 2, 62, 56
4, 67080, Note_on_c, 2, 62, 0
4, 67080, Note_on_c, 2, 63, 56
4, 67200, Note_on_c, 2, 63, 0
4, 67200, Note_on_c, 2, 58, 56
4, 67536, Note_on_c, 2, 58, 0
4, 67680, Note_on_c, 2, 63, 56
4, 67872, Note_on_c, 2, 63, 0
4, 68040, Note_on_c, 2, 63, 56
4, 68136, Note_on_c, 2, 63, 0
4, 68160, Note_on_c, 2, 63, 56
4, 68352, Note_on_c, 2, 63, 0
4, 68520, Note_on_c, 2, 67, 56
4, 68616, Note_on_c, 2, 67, 0
4, 68640, Note_on_c, 2, 68, 56
4, 68832, Note_on_c, 2, 68, 0
4, 68880, Note_on_c, 2, 70, 56
4, 69072, Note_on_c, 2, 70, 0
4, 69120, Note_on_c, 2, 72, 56
4, 69216, Note_on_c, 2, 72, 0
4, 69240, Note_on_c, 2, 74, 56
4, 69336, Note_on_c, 2, 74, 0
4, 69600, Note_on_c, 2, 67, 56
4, 69792, Note_on_c, 2, 67, 0
4, 69840, Note_on_c, 2, 68, 56
4, 70032, Note_on_c, 2, 68, 0
4, 70080, Note_on_c, 2, 67, 56
4, 70272, Note_on_c, 2, 67, 0
4, 70320, Note_on_c, 2, 68, 56
4, 70512, Note_on_c, 2, 68, 0
4, 70560, Note_on_c, 2, 67, 56
4, 70656, Note_on_c, 2, 67, 0
4, 70680, Note_on_c, 2, 63, 56
4, 70776, Note_on_c, 2, 63, 0
4, 70800, Note_on_c, 2, 62, 56
4, 70896, Note_on_c, 2, 62, 0
4, 70920, Note_on_c, 2, 63, 56
4, 71016, Note_on_c, 2, 63, 0
4, 71040, Note_on_c, 2, 58, 56
4, 71376, Note_on_c, 2, 58, 0
4, 71520, Note_on_c, 2, 58, 80
4, 71616, Note_on_c, 2, 58, 0
4, 71640, Note_on_c, 2, 65, 80
4, 71736, Note_on_c, 2, 65, 0
4, 71760, Note_on_c, 2, 62, 80
4, 71856, Note_on_c, 2, 62, 0
4, 71880, Note_on_c, 2, 58, 80
4, 71976, Note_on_c, 2, 58, 0
4, 72000, Note_on_c, 2, 51, 80
4, 72096, Note_on_c, 2, 51, 0
4, 72120, Note_on_c, 2, 58, 80
4, 72216, Note_on_c, 2, 58, 0
4, 72240, Note_on_c, 2, 55, 80
4, 72336, Note_on_c, 2, 55, 0
4, 72360, Note_on_c, 2, 51, 80
4, 72456, Note_on_c, 2, 51, 0
4, 72480, Note_on_c, 2, 46, 80
4, 72576, Note_on_c, 2, 46, 0
4, 72600, Note_on_c, 2, 53, 80
4, 72696, Note_on_c, 2, 53, 0
4, 72720, Note_on_c, 2, 50, 80
4, 72816, Note_on_c, 2, 50, 0
4, 72840, Note_on_c, 2, 46, 80
4, 72936, Note_on_c, 2, 46, 0
4, 72960, Note_on_c, 2, 39, 80
4, 73056, Note_on_c, 2, 39, 0
4, 73080, Note_on_c, 2, 46, 80
4, 73176, Note_on_c, 2, 46, 0
4, 73200, Note_on_c, 2, 43, 80
4, 73296, Note_on_c, 2, 43, 0
4, 73320, Note_on_c, 2, 39, 80
4, 73416, Note_on_c, 2, 39, 0
4, 73440, Note_on_c, 2, 65, 80
4, 73632, Note_on_c, 2, 65, 0
4, 73680, Note_on_c, 2, 65, 80
4, 73872, Note_on_c, 2, 65, 0
4, 73920, Note_on_c, 2, 65, 80
4, 74112, Note_on_c, 2, 65, 0
4, 74160, Note_on_c, 2, 65, 80
4, 74304, Note_on_c, 2, 65, 0
4, 74340, Note_on_c, 2, 58, 80
4, 74388, Note_on_c, 2, 58, 0
4, 74400, Note_on_c, 2, 58, 80
4, 74496, Note_on_c, 2, 58, 0
4, 74640, Note_on_c, 2, 60, 80
4, 74736, Note_on_c, 2, 60, 0
4, 75000, Note_on_c, 2, 55, 80
4, 75096, Note_on_c, 2, 55, 0
4, 75120, Note_on_c, 2, 56, 80
4, 75216, Note_on_c, 2, 56, 0
4, 75240, Note_on_c, 2, 53, 80
4, 75336, Note_on_c, 2, 53, 0
4, 75360, Note_on_c, 2, 55, 80
4, 75456, Note_on_c, 2, 55, 0
4, 75840, Note_on_c, 2, 65, 80
4, 76032, Note_on_c, 2, 65, 0
4, 76080, Note_on_c, 2, 65, 80
4, 76272, Note_on_c, 2, 65, 0
4, 76320, Note_on_c, 2, 65, 80
4, 76512, Note_on_c, 2, 65, 0
4, 76560, Note_on_c, 2, 65, 80
4, 76704, Note_on_c, 2, 65, 0
4, 76740, Note_on_c, 2, 58, 80
4, 76788, Note_on_c, 2, 58, 0
4, 76800, Note_on_c, 2, 58, 80
4, 76896, Note_on_c, 2, 58, 0
4, 77040, Note_on_c, 2, 60, 80
4, 77136, Note_on_c, 2, 60, 0
4, 77400, Note_on_c, 2, 55, 80
4, 77496, Note_on_c, 2, 55, 0
4, 77520, Note_on_c, 2, 56, 80
4, 77616, Note_on_c, 2, 56, 0
4, 77640, Note_on_c, 2, 53, 80
4, 77736, Note_on_c, 2, 53, 0
4, 77760, Note_on_c, 2, 53, 80
4, 77760, Note_on_c, 2, 56, 80
4, 77952, Note_on_c, 2, 56, 0
4, 77952, Note_on_c, 2, 53, 0
4, 78000, Note_on_c, 2, 55, 80
4, 78096, Note_on_c, 2, 55, 0
4, 78240, Note_on_c, 2, 58, 80
4, 78336, Note_on_c, 2, 58, 0
4, 78360, Note_on_c, 2, 65, 80
4, 78456, Note_on_c, 2, 65, 0
4, 78480, Note_on_c, 2, 62, 80
4, 78576, Note_on_c, 2, 62, 0
4, 78600, Note_on_c, 2, 58, 80
4, 78696, Note_on_c, 2, 58, 0
4, 78720, Note_on_c, 2, 51, 80
4, 78816, Note_on_c, 2, 51, 0
4, 78840, Note_on_c, 2, 58, 80
4, 78936, Note_on_c, 2, 58, 0
4, 78960, Note_on_c, 2, 55, 80
4, 79056, Note_on_c, 2, 55, 0
4, 79080, Note_on_c, 2, 51, 80
4, 79176, Note_on_c, 2, 51, 0
4, 79200, Note_on_c, 2, 46, 80
4, 79296, Note_on_c, 2, 46, 0
4, 79320, Note_on_c, 2, 53, 80
4, 79416, Note_on_c, 2, 53, 0
4, 79440, Note_on_c, 2, 50, 80
4, 79536, Note_on_c, 2, 50, 0
4, 79560, Note_on_c, 2, 46, 80
4, 79656, Note_on_c, 2, 46, 0
4, 79680, Note_on_c, 2, 39, 80
4, 79776, Note_on_c, 2, 39, 0
4, 79800, Note_on_c, 2, 46, 80
4, 79896, Note_on_c, 2, 46, 0
4, 79920, Note_on_c, 2, 43, 80
4, 80016, Note_on_c, 2, 43, 0
4, 80040, Note_on_c, 2, 39, 80
4, 80136, Note_on_c, 2, 39, 0
4, 80160, Note_on_c, 2, 65, 80
4, 80352, Note_on_c, 2, 65, 0
4, 80400, Note_on_c, 2, 65, 80
4, 80592, Note_on_c, 2, 65, 0
4, 80640, Note_on_c, 2, 65, 80
4, 80832, Note_on_c, 2, 65, 0
4, 80880, Note_on_c, 2, 65, 80
4, 81024, Note_on_c, 2, 65, 0
4, 81060, Note_on_c, 2, 58, 80
4, 81108, Note_on_c, 2, 58, 0
4, 81120, Note_on_c, 2, 58, 80
4, 81216, Note_on_c, 2, 58, 0
4, 81360, Note_on_c, 2, 60, 80
4, 81456, Note_on_c, 2, 60, 0
4, 81720, Note_on_c, 2, 55, 80
4, 81816, Note_on_c, 2, 55, 0
4, 81840, Note_on_c, 2, 56, 80
4, 81936, Note_on_c, 2, 56, 0
4, 81960, Note_on_c, 2, 53, 80
4, 82056, Note_on_c, 2, 53, 0
4, 82080, Note_on_c, 2, 55, 80
4, 82176, Note_on_c, 2, 55, 0
4, 82560, Note_on_c, 2, 65, 80
4, 82752, Note_on_c, 2, 65, 0
4, 82800, Note_on_c, 2, 65, 80
4, 82992, Note_on_c, 2, 65, 0
4, 83040, Note_on_c, 2, 65, 80
4, 83232, Note_on_c, 2, 65, 0
4, 83280, Note_on_c, 2, 65, 80
4, 83424, Note_on_c, 2, 65, 0
4, 83460, Note_on_c, 2, 58, 80
4, 83508, Note_on_c, 2, 58, 0
4, 83520, Note_on_c, 2, 58, 80
4, 83616, Note_on_c, 2, 58, 0
4, 83760, Note_on_c, 2, 60, 80
4, 83856, Note_on_c, 2, 60, 0
4, 84120, Note_on_c, 2, 55, 80
4, 84216, Note_on_c, 2, 55, 0
4, 84240, Note_on_c, 2, 56, 80
4, 84336, Note_on_c, 2, 56, 0
4, 84360, Note_on_c, 2, 53, 80
4, 84456, Note_on_c, 2, 53, 0
4, 84480, Note_on_c, 2, 56, 80
4, 84480, Note_on_c, 2, 53, 80
4, 84672, Note_on_c, 2, 53, 0
4, 84672, Note_on_c, 2, 56, 0
4, 84720, Note_on_c, 2, 55, 80
4, 84816, Note_on_c, 2, 55, 0
4, 86760, Note_on_c, 2, 62, 64
4, 86856, Note_on_c, 2, 62, 0
4, 86880, Note_on_c, 2, 63, 64
4, 86976, Note_on_c, 2, 63, 0
4, 87240, Note_on_c, 2, 62, 64
4, 87336, Note_on_c, 2, 62, 0
4, 87360, Note_on_c, 2, 63, 64
4, 87456, Note_on_c, 2, 63, 0
4, 87720, Note_on_c, 2, 62, 64
4, 87816, Note_on_c, 2, 62, 0
4, 87840, Note_on_c, 2, 63, 64
4, 87936, Note_on_c, 2, 63, 0
4, 87960, Note_on_c, 2, 55, 64
4, 88056, Note_on_c, 2, 55, 0
4, 88080, Note_on_c, 2, 56, 64
4, 88176, Note_on_c, 2, 56, 0
4, 88200, Note_on_c, 2, 57, 64
4, 88296, Note_on_c, 2, 57, 0
4, 88320, Note_on_c, 2, 58, 64
4, 88416, Note_on_c, 2, 58, 0
4, 88440, Note_on_c, 2, 58, 64
4, 88536, Note_on_c, 2, 58, 0
4, 90600, Note_on_c, 2, 62, 64
4, 90696, Note_on_c, 2, 62, 0
4, 90720, Note_on_c, 2, 63, 64
4, 90816, Note_on_c, 2, 63, 0
4, 91080, Note_on_c, 2, 62, 64
4, 91176, Note_on_c, 2, 62, 0
4, 91200, Note_on_c, 2, 63, 64
4, 91296, Note_on_c, 2, 63, 0
4, 91560, Note_on_c, 2, 62, 64
4, 91656, Note_on_c, 2, 62, 0
4, 91680, Note_on_c, 2, 63, 64
4, 91776, Note_on_c, 2, 63, 0
4, 91800, Note_on_c, 2, 55, 64
4, 91896, Note_on_c, 2, 55, 0
4, 91920, Note_on_c, 2, 56, 64
4, 92016, Note_on_c, 2, 56, 0
4, 92040, Note_on_c, 2, 57, 64
4, 92136, Note_on_c, 2, 57, 0
4, 92160, Note_on_c, 2, 58, 64
4, 92256, Note_on_c, 2, 58, 0
4, 92280, Note_on_c, 2, 58, 64
4, 92376, Note_on_c, 2, 58, 0
4, 93240, Note_on_c, 2, 63, 64
4, 93336, Note_on_c, 2, 63, 0
4, 93360, Note_on_c, 2, 59, 64
4, 93456, Note_on_c, 2, 59, 0
4, 93480, Note_on_c, 2, 57, 64
4, 93576, Note_on_c, 2, 57, 0
4, 93600, Note_on_c, 2, 58, 64
4, 93696, Note_on_c, 2, 58, 0
4, 94200, Note_on_c, 2, 51, 64
4, 94296, Note_on_c, 2, 51, 0
4, 94320, Note_on_c, 2, 47, 64
4, 94416, Note_on_c, 2, 47, 0
4, 94440, Note_on_c, 2, 45, 64
4, 94536, Note_on_c, 2, 45, 0
4, 94560, Note_on_c, 2, 46, 64
4, 94656, Note_on_c, 2, 46, 0
4, 95040, Note_on_c, 2, 56, 64
4, 95136, Note_on_c, 2, 56, 0
4, 96120, Note_on_c, 2, 64, 64
4, 96216, Note_on_c, 2, 64, 0
4, 96240, Note_on_c, 2, 65, 64
4, 96336, Note_on_c, 2, 65, 0
4, 96360, Note_on_c, 2, 62, 64
4, 96456, Note_on_c, 2, 62, 0
4, 96480, Note_on_c, 2, 63, 64
4, 96576, Note_on_c, 2, 63, 0
4, 96600, Note_on_c, 2, 58, 64
4, 96696, Note_on_c, 2, 58, 0
4, 96720, Note_on_c, 2, 55, 64
4, 96816, Note_on_c, 2, 55, 0
4, 96840, Note_on_c, 2, 51, 64
4, 96936, Note_on_c, 2, 51, 0
4, 96960, Note_on_c, 2, 58, 64
4, 97056, Note_on_c, 2, 58, 0
4, 97440, Note_on_c, 2, 56, 64
4, 97536, Note_on_c, 2, 56, 0
4, 98520, Note_on_c, 2, 64, 64
4, 98616, Note_on_c, 2, 64, 0
4, 98640, Note_on_c, 2, 65, 64
4, 98736, Note_on_c, 2, 65, 0
4, 98760, Note_on_c, 2, 62, 64
4, 98856, Note_on_c, 2, 62, 0
4, 98880, Note_on_c, 2, 65, 64
4, 99072, Note_on_c, 2, 65, 0
4, 99120, Note_on_c, 2, 67, 64
4, 99216, Note_on_c, 2, 67, 0
4, 99960, Note_on_c, 2, 63, 64
4, 100056, Note_on_c, 2, 63, 0
4, 100080, Note_on_c, 2, 59, 64
4, 100176, Note_on_c, 2, 59, 0
4, 100200, Note_on_c, 2, 57, 64
4, 100296, Note_on_c, 2, 57, 0
4, 100320, Note_on_c, 2, 58, 64
4, 100416, Note_on_c, 2, 58, 0
4, 100920, Note_on_c, 2, 51, 64
4, 101016, Note_on_c, 2, 51, 0
4, 101040, Note_on_c, 2, 47, 64
4, 101136, Note_on_c, 2, 47, 0
4, 101160, Note_on_c, 2, 45, 64
4, 101256, Note_on_c, 2, 45, 0
4, 101280, Note_on_c, 2, 46, 64
4, 101376, Note_on_c, 2, 46, 0
4, 101760, Note_on_c, 2, 56, 64
4, 101856, Note_on_c, 2, 56, 0
4, 102840, Note_on_c, 2, 64, 64
4, 102936, Note_on_c, 2, 64, 0
4, 102960, Note_on_c, 2, 65, 64
4, 103056, Note_on_c, 2, 65, 0
4, 103080, Note_on_c, 2, 62, 64
4, 103176, Note_on_c, 2, 62, 0
4, 103200, Note_on_c, 2, 63, 64
4, 103296, Note_on_c, 2, 63, 0
4, 103320, Note_on_c, 2, 58, 64
4, 103416, Note_on_c, 2, 58, 0
4, 103440, Note_on_c, 2, 55, 64
4, 103536, Note_on_c, 2, 55, 0
4, 103560, Note_on_c, 2, 51, 64
4, 103656, Note_on_c, 2, 51, 0
4, 103680, Note_on_c, 2, 58, 64
4, 103776, Note_on_c, 2, 58, 0
4, 104160, Note_on_c, 2, 56, 64
4, 104256, Note_on_c, 2, 56, 0
4, 105240, Note_on_c, 2, 64, 64
4, 105336, Note_on_c, 2, 64, 0
4, 105360, Note_on_c, 2, 65, 64
4, 105456, Note_on_c, 2, 65, 0
4, 105480, Note_on_c, 2, 62, 64
4, 105576, Note_on_c, 2, 62, 0
4, 105600, Note_on_c, 2, 65, 64
4, 105792, Note_on_c, 2, 65, 0
4, 105840, Note_on_c, 2, 67, 64
4, 105936, Note_on_c, 2, 67, 0
4, 106080, Note_on_c, 2, 51, 80
4, 106464, Note_on_c, 2, 51, 0
4, 106560, Note_on_c, 2, 51, 80
4, 106848, Note_on_c, 2, 51, 0
4, 106920, Note_on_c, 2, 58, 80
4, 107016, Note_on_c, 2, 58, 0
4, 107040, Note_on_c, 2, 60, 80
4, 107232, Note_on_c, 2, 60, 0
4, 107280, Note_on_c, 2, 62, 80
4, 107472, Note_on_c, 2, 62, 0
4, 107520, Note_on_c, 2, 63, 80
4, 107616, Note_on_c, 2, 63, 0
4, 107640, Note_on_c, 2, 65, 80
4, 107736, Note_on_c, 2, 65, 0
4, 108120, Note_on_c, 2, 58, 80
4, 108312, Note_on_c, 2, 58, 0
4, 108600, Note_on_c, 2, 58, 80
4, 108792, Note_on_c, 2, 58, 0
4, 109080, Note_on_c, 2, 58, 80
4, 109272, Note_on_c, 2, 58, 0
4, 109320, Note_on_c, 2, 58, 80
4, 109416, Note_on_c, 2, 58, 0
4, 109440, Note_on_c, 2, 51, 80
4, 109632, Note_on_c, 2, 51, 0
4, 109680, Note_on_c, 2, 50, 80
4, 109776, Note_on_c, 2, 50, 0
4, 109920, Note_on_c, 2, 51, 80
4, 110304, Note_on_c, 2, 51, 0
4, 110400, Note_on_c, 2, 51, 80
4, 110688, Note_on_c, 2, 51, 0
4, 110760, Note_on_c, 2, 58, 80
4, 110856, Note_on_c, 2, 58, 0
4, 110880, Note_on_c, 2, 60, 80
4, 111072, Note_on_c, 2, 60, 0
4, 111120, Note_on_c, 2, 62, 80
4, 111312, Note_on_c, 2, 62, 0
4, 111360, Note_on_c, 2, 63, 80
4, 111456, Note_on_c, 2, 63, 0
4, 111480, Note_on_c, 2, 65, 80
4, 111576, Note_on_c, 2, 65, 0
4, 111960, Note_on_c, 2, 58, 80
4, 112152, Note_on_c, 2, 58, 0
4, 112440, Note_on_c, 2, 58, 80
4, 112632, Note_on_c, 2, 58, 0
4, 112920, Note_on_c, 2, 58, 80
4, 113112, Note_on_c, 2, 58, 0
4, 113160, Note_on_c, 2, 58, 80
4, 113256, Note_on_c, 2, 58, 0
4, 113280, Note_on_c, 2, 51, 80
4, 113472, Note_on_c, 2, 51, 0
4, 113520, Note_on_c, 2, 50, 80
4, 113616, Note_on_c, 2, 50, 0
4, 113760, Note_on_c, 2, 58, 80
4, 114144, Note_on_c, 2, 58, 0
4, 114240, Note_on_c, 2, 58, 80
4, 114624, Note_on_c, 2, 58, 0
4, 114720, Note_on_c, 2, 49, 80
4, 114816, Note_on_c, 2, 49, 0
4, 114840, Note_on_c, 2, 50, 80
4, 114936, Note_on_c, 2, 50, 0
4, 114960, Note_on_c, 2, 51, 80
4, 115056, Note_on_c, 2, 51, 0
4, 115080, Note_on_c, 2, 53, 80
4, 115176, Note_on_c, 2, 53, 0
4, 115200, Note_on_c, 2, 50, 80
4, 115296, Note_on_c, 2, 50, 0
4, 115320, Note_on_c, 2, 51, 80
4, 115416, Note_on_c, 2, 51, 0
4, 115440, Note_on_c, 2, 54, 80
4, 115536, Note_on_c, 2, 54, 0
4, 115560, Note_on_c, 2, 55, 80
4, 115656, Note_on_c, 2, 55, 0
4, 115800, Note_on_c, 2, 53, 80
4, 115992, Note_on_c, 2, 53, 0
4, 116040, Note_on_c, 2, 53, 80
4, 116136, Note_on_c, 2, 53, 0
4, 116280, Note_on_c, 2, 46, 80
4, 116472, Note_on_c, 2, 46, 0
4, 116520, Note_on_c, 2, 46, 80
4, 116616, Note_on_c, 2, 46, 0
4, 116760, Note_on_c, 2, 46, 80
4, 116856, Note_on_c, 2, 46, 0
4, 117000, Note_on_c, 2, 48, 80
4, 117096, Note_on_c, 2, 48, 0
4, 117240, Note_on_c, 2, 51, 80
4, 117336, Note_on_c, 2, 51, 0
4, 117480, Note_on_c, 2, 53, 80
4, 117576, Note_on_c, 2, 53, 0
4, 117600, Note_on_c, 2, 54, 80
4, 117600, Note_on_c, 2, 51, 80
4, 117984, Note_on_c, 2, 51, 0
4, 117984, Note_on_c, 2, 54, 0
4, 118080, Note_on_c, 2, 53, 80
4, 118176, Note_on_c, 2, 53, 0
4, 118200, Note_on_c, 2, 50, 80
4, 118200, Note_on_c, 2, 53, 80
4, 118488, Note_on_c, 2, 53, 0
4, 118488, Note_on_c, 2, 50, 0
4, 118560, Note_on_c, 2, 48, 80
4, 118656, Note_on_c, 2, 48, 0
4, 118680, Note_on_c, 2, 50, 80
4, 118680, Note_on_c, 2, 46, 80
4, 118968, Note_on_c, 2, 46, 0
4, 118968, Note_on_c, 2, 50, 0
4, 119160, Note_on_c, 2, 51, 80
4, 119352, Note_on_c, 2, 51, 0
4, 119400, Note_on_c, 2, 51, 80
4, 119616, Note_on_c, 2, 51, 0
4, 119640, Note_on_c, 2, 55, 80
4, 119736, Note_on_c, 2, 55, 0
4, 119760, Note_on_c, 2, 53, 80
4, 119856, Note_on_c, 2, 53, 0
4, 119880, Note_on_c, 2, 56, 80
4, 119976, Note_on_c, 2, 56, 0
4, 120000, Note_on_c, 2, 55, 80
4, 120096, Note_on_c, 2, 55, 0
4, 120480, Note_on_c, 2, 58, 80
4, 120864, Note_on_c, 2, 58, 0
4, 120960, Note_on_c, 2, 58, 80
4, 121344, Note_on_c, 2, 58, 0
4, 121440, Note_on_c, 2, 49, 80
4, 121536, Note_on_c, 2, 49, 0
4, 121560, Note_on_c, 2, 50, 80
4, 121656, Note_on_c, 2, 50, 0
4, 121680, Note_on_c, 2, 51, 80
4, 121776, Note_on_c, 2, 51, 0
4, 121800, Note_on_c, 2, 53, 80
4, 121896, Note_on_c, 2, 53, 0
4, 121920, Note_on_c, 2, 50, 80
4, 122016, Note_on_c, 2, 50, 0
4, 122040, Note_on_c, 2, 51, 80
4, 122136, Note_on_c, 2, 51, 0
4, 122160, Note_on_c, 2, 54, 80
4, 122256, Note_on_c, 2, 54, 0
4, 122280, Note_on_c, 2, 55, 80
4, 122376, Note_on_c, 2, 55, 0
4, 122520, Note_on_c, 2, 53, 80
4, 122712, Note_on_c, 2, 53, 0
4, 122760, Note_on_c, 2, 53, 80
4, 122856, Note_on_c, 2, 53, 0
4, 123000, Note_on_c, 2, 46, 80
4, 123192, Note_on_c, 2, 46, 0
4, 123240, Note_on_c, 2, 46, 80
4, 123336, Note_on_c, 2, 46, 0
4, 123480, Note_on_c, 2, 46, 80
4, 123576, Note_on_c, 2, 46, 0
4, 123720, Note_on_c, 2, 48, 80
4, 123816, Note_on_c, 2, 48, 0
4, 123960, Note_on_c, 2, 51, 80
4, 124056, Note_on_c, 2, 51, 0
4, 124200, Note_on_c, 2, 53, 80
4, 124296, Note_on_c, 2, 53, 0
4, 124320, Note_on_c, 2, 51, 80
4, 124320, Note_on_c, 2, 54, 80
4, 124704, Note_on_c, 2, 54, 0
4, 124704, Note_on_c, 2, 51, 0
4, 124800, Note_on_c, 2, 53, 80
4, 124896, Note_on_c, 2, 53, 0
4, 124920, Note_on_c, 2, 53, 80
4, 124920, Note_on_c, 2, 50, 80
4, 125208, Note_on_c, 2, 50, 0
4, 125208, Note_on_c, 2, 53, 0
4, 125280, Note_on_c, 2, 48, 80
4, 125376, Note_on_c, 2, 48, 0
4, 125400, Note_on_c, 2, 46, 80
4, 125400, Note_on_c, 2, 50, 80
4, 125688, Note_on_c, 2, 50, 0
4, 125688, Note_on_c, 2, 46, 0
4, 125880, Note_on_c, 2, 51, 80
4, 126072, Note_on_c, 2, 51, 0
4, 126120, Note_on_c, 2, 51, 80
4, 126336, Note_on_c, 2, 51, 0
4, 126360, Note_on_c, 2, 55, 80
4, 126456, Note_on_c, 2, 55, 0
4, 126480, Note_on_c, 2, 53, 80
4, 126576, Note_on_c, 2, 53, 0
4, 126600, Note_on_c, 2, 56, 80
4, 126696, Note_on_c, 2, 56, 0
4, 126720, Note_on_c, 2, 55, 80
4, 126816, Note_on_c, 2, 55, 0
4, 134880, Note_on_c, 2, 58, 80
4, 134976, Note_on_c, 2, 58, 0
4, 135000, Note_on_c, 2, 57, 80
4, 135096, Note_on_c, 2, 57, 0
4, 135120, Note_on_c, 2, 58, 80
4, 135216, Note_on_c, 2, 58, 0
4, 135240, Note_on_c, 2, 58, 80
4, 135336, Note_on_c, 2, 58, 0
4, 135360, Note_on_c, 2, 58, 80
4, 135552, Note_on_c, 2, 58, 0
4, 136800, Note_on_c, 2, 65, 80
4, 137184, Note_on_c, 2, 65, 0
4, 137280, Note_on_c, 2, 65, 80
4, 137568, Note_on_c, 2, 65, 0
4, 137640, Note_on_c, 2, 62, 80
4, 137736, Note_on_c, 2, 62, 0
4, 139200, Note_on_c, 2, 65, 80
4, 139584, Note_on_c, 2, 65, 0
4, 139680, Note_on_c, 2, 65, 80
4, 139968, Note_on_c, 2, 65, 0
4, 141600, Note_on_c, 2, 58, 80
4, 141696, Note_on_c, 2, 58, 0
4, 141720, Note_on_c, 2, 57, 80
4, 141816, Note_on_c, 2, 57, 0
4, 141840, Note_on_c, 2, 58, 80
4, 141936, Note_on_c, 2, 58, 0
4, 141960, Note_on_c, 2, 58, 80
4, 142056, Note_on_c, 2, 58, 0
4, 142080, Note_on_c, 2, 58, 80
4, 142272, Note_on_c, 2, 58, 0
4, 143520, Note_on_c, 2, 65, 80
4, 143904, Note_on_c, 2, 65, 0
4, 144000, Note_on_c, 2, 65, 80
4, 144288, Note_on_c, 2, 65, 0
4, 144360, Note_on_c, 2, 62, 80
4, 144456, Note_on_c, 2, 62, 0
4, 145920, Note_on_c, 2, 65, 80
4, 146304, Note_on_c, 2, 65, 0
4, 146400, Note_on_c, 2, 65, 80
4, 146688, Note_on_c, 2, 65, 0
4, 147840, Note_on_c, 2, 55, 80
4, 148128, Note_on_c, 2, 55, 0
4, 157920, Note_on_c, 2, 58, 80
4, 157920, Note_on_c, 2, 62, 80
4, 158112, Note_on_c, 2, 62, 0
4, 158112, Note_on_c, 2, 58, 0
4, 158160, Note_on_c, 2, 58, 80
4, 158160, Note_on_c, 2, 62, 80
4, 158352, Note_on_c, 2, 62, 0
4, 158352, Note_on_c, 2, 58, 0
4, 158400, Note_on_c, 2, 58, 80
4, 158400, Note_on_c, 2, 62, 80
4, 158592, Note_on_c, 2, 62, 0
4, 158592, Note_on_c, 2, 58, 0
4, 158640, Note_on_c, 2, 58, 80
4, 158832, Note_on_c, 2, 58, 0
4, 159120, Note_on_c, 2, 56, 80
4, 159312, Note_on_c, 2, 56, 0
4, 159360, Note_on_c, 2, 58, 80
4, 159456, Note_on_c, 2, 58, 0
4, 159600, Note_on_c, 2, 62, 80
4, 159600, Note_on_c, 2, 58, 80
4, 159696, Note_on_c, 2, 58, 0
4, 159696, Note_on_c, 2, 62, 0
4, 159840, Note_on_c, 2, 63, 80
4, 159936, Note_on_c, 2, 63, 0
4, 160320, Note_on_c, 2, 68, 80
4, 160344, Note_on_c, 2, 68, 0
4, 160350, Note_on_c, 2, 70, 80
4, 160374, Note_on_c, 2, 70, 0
4, 160380, Note_on_c, 2, 72, 80
4, 160404, Note_on_c, 2, 72, 0
4, 160410, Note_on_c, 2, 70, 80
4, 160434, Note_on_c, 2, 70, 0
4, 160440, Note_on_c, 2, 68, 80
4, 160464, Note_on_c, 2, 68, 0
4, 160470, Note_on_c, 2, 67, 80
4, 160494, Note_on_c, 2, 67, 0
4, 160500, Note_on_c, 2, 65, 80
4, 160524, Note_on_c, 2, 65, 0
4, 160530, Note_on_c, 2, 64, 80
4, 160554, Note_on_c, 2, 64, 0
4, 160560, Note_on_c, 2, 65, 80
4, 160584, Note_on_c, 2, 65, 0
4, 160590, Note_on_c, 2, 67, 80
4, 160614, Note_on_c, 2, 67, 0
4, 160620, Note_on_c, 2, 68, 80
4, 160644, Note_on_c, 2, 68, 0
4, 160650, Note_on_c, 2, 67, 80
4, 160674, Note_on_c, 2, 67, 0
4, 160680, Note_on_c, 2, 65, 80
4, 160704, Note_on_c, 2, 65, 0
4, 160710, Note_on_c, 2, 63, 80
4, 160734, Note_on_c, 2, 63, 0
4, 160740, Note_on_c, 2, 62, 80
4, 160764, Note_on_c, 2, 62, 0
4, 160770, Note_on_c, 2, 60, 80
4, 160794, Note_on_c, 2, 60, 0
4, 160800, Note_on_c, 2, 62, 80
4, 160824, Note_on_c, 2, 62, 0
4, 160830, Note_on_c, 2, 63, 80
4, 160854, Note_on_c, 2, 63, 0
4, 160860, Note_on_c, 2, 65, 80
4, 160884, Note_on_c, 2, 65, 0
4, 160890, Note_on_c, 2, 63, 80
4, 160914, Note_on_c, 2, 63, 0
4, 160920, Note_on_c, 2, 62, 80
4, 160944, Note_on_c, 2, 62, 0
4, 160950, Note_on_c, 2, 60, 80
4, 160974, Note_on_c, 2, 60, 0
4, 160980, Note_on_c, 2, 58, 80
4, 161004, Note_on_c, 2, 58, 0
4, 161010, Note_on_c, 2, 57, 80
4, 161034, Note_on_c, 2, 57, 0
4, 161040, Note_on_c, 2, 58, 80
4, 161064, Note_on_c, 2, 58, 0
4, 161070, Note_on_c, 2, 57, 80
4, 161094, Note_on_c, 2, 57, 0
4, 161100, Note_on_c, 2, 58, 80
4, 161124, Note_on_c, 2, 58, 0
4, 161130, Note_on_c, 2, 60, 80
4, 161154, Note_on_c, 2, 60, 0
4, 161160, Note_on_c, 2, 58, 80
4, 161184, Note_on_c, 2, 58, 0
4, 161190, Note_on_c, 2, 56, 80
4, 161214, Note_on_c, 2, 56, 0
4, 161220, Note_on_c, 2, 55, 80
4, 161244, Note_on_c, 2, 55, 0
4, 161250, Note_on_c, 2, 53, 80
4, 161274, Note_on_c, 2, 53, 0
4, 161280, Note_on_c, 2, 55, 80
4, 161304, Note_on_c, 2, 55, 0
4, 161310, Note_on_c, 2, 53, 80
4, 161334, Note_on_c, 2, 53, 0
4, 161340, Note_on_c, 2, 51, 80
4, 161364, Note_on_c, 2, 51, 0
4, 161370, Note_on_c, 2, 50, 80
4, 161394, Note_on_c, 2, 50, 0
4, 161400, Note_on_c, 2, 48, 80
4, 161424, Note_on_c, 2, 48, 0
4, 161430, Note_on_c, 2, 46, 80
4, 161454, Note_on_c, 2, 46, 0
4, 161460, Note_on_c, 2, 44, 80
4, 161484, Note_on_c, 2, 44, 0
4, 161490, Note_on_c, 2, 43, 80
4, 161514, Note_on_c, 2, 43, 0
4, 161520, Note_on_c, 2, 44, 80
4, 161544, Note_on_c, 2, 44, 0
4, 161550, Note_on_c, 2, 46, 80
4, 161574, Note_on_c, 2, 46, 0
4, 161580, Note_on_c, 2, 48, 80
4, 161604, Note_on_c, 2, 48, 0
4, 161610, Note_on_c, 2, 50, 80
4, 161634, Note_on_c, 2, 50, 0
4, 161640, Note_on_c, 2, 51, 80
4, 161664, Note_on_c, 2, 51, 0
4, 161670, Note_on_c, 2, 53, 80
4, 161694, Note_on_c, 2, 53, 0
4, 161700, Note_on_c, 2, 55, 80
4, 161724, Note_on_c, 2, 55, 0
4, 161730, Note_on_c, 2, 56, 80
4, 161754, Note_on_c, 2, 56, 0
4, 161760, Note_on_c, 2, 58, 80
4, 161952, Note_on_c, 2, 58, 0
4, 162240, Note_on_c, 2, 53, 80
4, 162240, Note_on_c, 2, 58, 80
4, 162480, Note_on_c, 2, 58, 0
4, 162480, Note_on_c, 2, 53, 0
4, 162480, Note_on_c, 2, 58, 80
4, 162576, Note_on_c, 2, 58, 0
4, 164640, Note_on_c, 2, 62, 80
4, 164640, Note_on_c, 2, 58, 80
4, 164832, Note_on_c, 2, 58, 0
4, 164832, Note_on_c, 2, 62, 0
4, 164880, Note_on_c, 2, 62, 80
4, 164880, Note_on_c, 2, 58, 80
4, 165072, Note_on_c, 2, 58, 0
4, 165072, Note_on_c, 2, 62, 0
4, 165120, Note_on_c, 2, 62, 80
4, 165120, Note_on_c, 2, 58, 80
4, 165312, Note_on_c, 2, 58, 0
4, 165312, Note_on_c, 2, 62, 0
4, 165360, Note_on_c, 2, 58, 80
4, 165552, Note_on_c, 2, 58, 0
4, 165840, Note_on_c, 2, 56, 80
4, 166032, Note_on_c, 2, 56, 0
4, 166080, Note_on_c, 2, 58, 80
4, 166176, Note_on_c, 2, 58, 0
4, 166320, Note_on_c, 2, 58, 80
4, 166320, Note_on_c, 2, 62, 80
4, 166416, Note_on_c, 2, 62, 0
4, 166416, Note_on_c, 2, 58, 0
4, 166560, Note_on_c, 2, 63, 80
4, 166656, Note_on_c, 2, 63, 0
4, 167040, Note_on_c, 2, 68, 80
4, 167064, Note_on_c, 2, 68, 0
4, 167070, Note_on_c, 2, 70, 80
4, 167094, Note_on_c, 2, 70, 0
4, 167100, Note_on_c, 2, 72, 80
4, 167124, Note_on_c, 2, 72, 0
4, 167130, Note_on_c, 2, 70, 80
4, 167154, Note_on_c, 2, 70, 0
4, 167160, Note_on_c, 2, 68, 80
4, 167184, Note_on_c, 2, 68, 0
4, 167190, Note_on_c, 2, 67, 80
4, 167214, Note_on_c, 2, 67, 0
4, 167220, Note_on_c, 2, 65, 80
4, 167244, Note_on_c, 2, 65, 0
4, 167250, Note_on_c, 2, 64, 80
4, 167274, Note_on_c, 2, 64, 0
4, 167280, Note_on_c, 2, 65, 80
4, 167304, Note_on_c, 2, 65, 0
4, 167310, Note_on_c, 2, 67, 80
4, 167334, Note_on_c, 2, 67, 0
4, 167340, Note_on_c, 2, 68, 80
4, 167364, Note_on_c, 2, 68, 0
4, 167370, Note_on_c, 2, 67, 80
4, 167394, Note_on_c, 2, 67, 0
4, 167400, Note_on_c, 2, 65, 80
4, 167424, Note_on_c, 2, 65, 0
4, 167430, Note_on_c, 2, 63, 80
4, 167454, Note_on_c, 2, 63, 0
4, 167460, Note_on_c, 2, 62, 80
4, 167484, Note_on_c, 2, 62, 0
4, 167490, Note_on_c, 2, 60, 80
4, 167514, Note_on_c, 2, 60, 0
4, 167520, Note_on_c, 2, 62, 80
4, 167544, Note_on_c, 2, 62, 0
4, 167550, Note_on_c, 2, 63, 80
4, 167574, Note_on_c, 2, 63, 0
4, 167580, Note_on_c, 2, 65, 80
4, 167604, Note_on_c, 2, 65, 0
4, 167610, Note_on_c, 2, 63, 80
4, 167634, Note_on_c, 2, 63, 0
4, 167640, Note_on_c, 2, 62, 80
4, 167664, Note_on_c, 2, 62, 0
4, 167670, Note_on_c, 2, 60, 80
4, 167694, Note_on_c, 2, 60, 0
4, 167700, Note_on_c, 2, 58, 80
4, 167724, Note_on_c, 2, 58, 0
4, 167730, Note_on_c, 2, 57, 80
4, 167754, Note_on_c, 2, 57, 0
4, 167760, Note_on_c, 2, 58, 80
4, 167784, Note_on_c, 2, 58, 0
4, 167790, Note_on_c, 2, 57, 80
4, 167814, Note_on_c, 2, 57, 0
4, 167820, Note_on_c, 2, 58, 80
4, 167844, Note_on_c, 2, 58, 0
4, 167850, Note_on_c, 2, 60, 80
4, 167874, Note_on_c, 2, 60, 0
4, 167880, Note_on_c, 2, 58, 80
4, 167904, Note_on_c, 2, 58, 0
4, 167910, Note_on_c, 2, 56, 80
4, 167934, Note_on_c, 2, 56, 0
4, 167940, Note_on_c, 2, 55, 80
4, 167964, Note_on_c, 2, 55, 0
4, 167970, Note_on_c, 2, 53, 80
4, 167994, Note_on_c, 2, 53, 0
4, 168000, Note_on_c, 2, 55, 80
4, 168024, Note_on_c, 2, 55, 0
4, 168030, Note_on_c, 2, 53, 80
4, 168054, Note_on_c, 2, 53, 0
4, 168060, Note_on_c, 2, 51, 80
4, 168084, Note_on_c, 2, 51, 0
4, 168090, Note_on_c, 2, 50, 80
4, 168114, Note_on_c, 2, 50, 0
4, 168120, Note_on_c, 2, 48, 80
4, 168144, Note_on_c, 2, 48, 0
4, 168150, Note_on_c, 2, 46, 80
4, 168174, Note_on_c, 2, 46, 0
4, 168180, Note_on_c, 2, 44, 80
4, 168204, Note_on_c, 2, 44, 0
4, 168210, Note_on_c, 2, 43, 80
4, 168234, Note_on_c, 2, 43, 0
4, 168240, Note_on_c, 2, 44, 80
4, 168264, Note_on_c, 2, 44, 0
4, 168270, Note_on_c, 2, 46, 80
4, 168294, Note_on_c, 2, 46, 0
4, 168300, Note_on_c, 2, 48, 80
4, 168324, Note_on_c, 2, 48, 0
4, 168330, Note_on_c, 2, 50, 80
4, 168354, Note_on_c, 2, 50, 0
4, 168360, Note_on_c, 2, 51, 80
4, 168384, Note_on_c, 2, 51, 0
4, 168390, Note_on_c, 2, 53, 80
4, 168414, Note_on_c, 2, 53, 0
4, 168420, Note_on_c, 2, 55, 80
4, 168444, Note_on_c, 2, 55, 0
4, 168450, Note_on_c, 2, 56, 80
4, 168474, Note_on_c, 2, 56, 0
4, 168480, Note_on_c, 2, 58, 80
4, 168672, Note_on_c, 2, 58, 0
4, 168960, Note_on_c, 2, 58, 80
4, 168960, Note_on_c, 2, 53, 80
4, 169200, Note_on_c, 2, 53, 0
4, 169200, Note_on_c, 2, 58, 0
4, 169200, Note_on_c, 2, 58, 80
4, 169296, Note_on_c, 2, 58, 0
4, 169800, Note_on_c, 2, 58, 64
4, 169920, Note_on_c, 2, 58, 0
4, 169920, Note_on_c, 2, 54, 64
4, 169980, Note_on_c, 2, 54, 0
4, 169980, Note_on_c, 2, 56, 64
4, 170000, Note_on_c, 2, 56, 0
4, 170000, Note_on_c, 2, 54, 64
4, 170020, Note_on_c, 2, 54, 0
4, 170020, Note_on_c, 2, 53, 64
4, 170040, Note_on_c, 2, 53, 0
4, 170040, Note_on_c, 2, 54, 64
4, 170100, Note_on_c, 2, 54, 0
4, 170100, Note_on_c, 2, 56, 64
4, 170160, Note_on_c, 2, 56, 0
4, 170160, Note_on_c, 2, 58, 64
4, 170280, Note_on_c, 2, 58, 0
4, 170280, Note_on_c, 2, 51, 64
4, 170400, Note_on_c, 2, 51, 0
4, 170400, Note_on_c, 2, 56, 64
4, 170640, Note_on_c, 2, 56, 0
4, 170640, Note_on_c, 2, 54, 64
4, 170760, Note_on_c, 2, 54, 0
4, 170760, Note_on_c, 2, 51, 64
4, 170880, Note_on_c, 2, 51, 0
4, 170880, Note_on_c, 2, 50, 64
4, 171120, Note_on_c, 2, 50, 0
4, 171120, Note_on_c, 2, 51, 64
4, 171240, Note_on_c, 2, 51, 0
4, 171480, Note_on_c, 2, 63, 64
4, 171600, Note_on_c, 2, 63, 0
4, 171600, Note_on_c, 2, 62, 64
4, 171720, Note_on_c, 2, 62, 0
4, 171720, Note_on_c, 2, 65, 64
4, 171840, Note_on_c, 2, 65, 0
4, 171960, Note_on_c, 2, 63, 64
4, 172080, Note_on_c, 2, 63, 0
4, 172080, Note_on_c, 2, 62, 64
4, 172200, Note_on_c, 2, 62, 0
4, 172200, Note_on_c, 2, 65, 64
4, 172320, Note_on_c, 2, 65, 0
4, 172320, Note_on_c, 2, 63, 64
4, 172440, Note_on_c, 2, 63, 0
4, 172440, Note_on_c, 2, 54, 64
4, 172560, Note_on_c, 2, 54, 0
4, 172560, Note_on_c, 2, 56, 64
4, 172680, Note_on_c, 2, 56, 0
4, 172680, Note_on_c, 2, 57, 64
4, 172800, Note_on_c, 2, 57, 0
4, 172800, Note_on_c, 2, 58, 64
4, 173160, Note_on_c, 2, 58, 0
4, 173640, Note_on_c, 2, 58, 64
4, 173760, Note_on_c, 2, 58, 0
4, 173760, Note_on_c, 2, 54, 64
4, 173820, Note_on_c, 2, 54, 0
4, 173820, Note_on_c, 2, 56, 64
4, 173840, Note_on_c, 2, 56, 0
4, 173840, Note_on_c, 2, 54, 64
4, 173860, Note_on_c, 2, 54, 0
4, 173860, Note_on_c, 2, 53, 64
4, 173880, Note_on_c, 2, 53, 0
4, 173880, Note_on_c, 2, 54, 64
4, 173940, Note_on_c, 2, 54, 0
4, 173940, Note_on_c, 2, 56, 64
4, 174000, Note_on_c, 2, 56, 0
4, 174000, Note_on_c, 2, 58, 64
4, 174120, Note_on_c, 2, 58, 0
4, 174120, Note_on_c, 2, 51, 64
4, 174240, Note_on_c, 2, 51, 0
4, 174240, Note_on_c, 2, 56, 64
4, 174480, Note_on_c, 2, 56, 0
4, 174480, Note_on_c, 2, 54, 64
4, 174600, Note_on_c, 2, 54, 0
4, 174600, Note_on_c, 2, 51, 64
4, 174720, Note_on_c, 2, 51, 0
4, 174720, Note_on_c, 2, 50, 64
4, 174960, Note_on_c, 2, 50, 0
4, 174960, Note_on_c, 2, 51, 64
4, 175080, Note_on_c, 2, 51, 0
4, 175320, Note_on_c, 2, 63, 64
4, 175440, Note_on_c, 2, 63, 0
4, 175440, Note_on_c, 2, 62, 64
4, 175560, Note_on_c, 2, 62, 0
4, 175560, Note_on_c, 2, 65, 64
4, 175680, Note_on_c, 2, 65, 0
4, 175800, Note_on_c, 2, 63, 64
4, 175920, Note_on_c, 2, 63, 0
4, 175920, Note_on_c, 2, 62, 64
4, 176040, Note_on_c, 2, 62, 0
4, 176040, Note_on_c, 2, 65, 64
4, 176160, Note_on_c, 2, 65, 0
4, 176160, Note_on_c, 2, 63, 64
4, 176280, Note_on_c, 2, 63, 0
4, 176280, Note_on_c, 2, 54, 64
4, 176400, Note_on_c, 2, 54, 0
4, 176400, Note_on_c, 2, 56, 64
4, 176520, Note_on_c, 2, 56, 0
4, 176520, Note_on_c, 2, 57, 64
4, 176640, Note_on_c, 2, 57, 0
4, 176640, Note_on_c, 2, 58, 64
4, 177000, Note_on_c, 2, 58, 0
4, 177120, Note_on_c, 2, 53, 80
4, 177216, Note_on_c, 2, 53, 0
4, 177240, Note_on_c, 2, 53, 80
4, 177432, Note_on_c, 2, 53, 0
4, 177480, Note_on_c, 2, 46, 80
4, 177576, Note_on_c, 2, 46, 0
4, 177600, Note_on_c, 2, 46, 80
4, 177696, Note_on_c, 2, 46, 0
4, 178080, Note_on_c, 2, 53, 64
4, 178176, Note_on_c, 2, 53, 0
4, 178200, Note_on_c, 2, 53, 64
4, 178392, Note_on_c, 2, 53, 0
4, 178440, Note_on_c, 2, 46, 64
4, 178536, Note_on_c, 2, 46, 0
4, 178560, Note_on_c, 2, 46, 64
4, 178656, Note_on_c, 2, 46, 0
4, 179040, Note_on_c, 2, 63, 80
4, 179184, Note_on_c, 2, 63, 0
4, 179220, Note_on_c, 2, 61, 80
4, 179268, Note_on_c, 2, 61, 0
4, 179280, Note_on_c, 2, 59, 80
4, 179376, Note_on_c, 2, 59, 0
4, 179400, Note_on_c, 2, 65, 80
4, 179904, Note_on_c, 2, 65, 0
4, 180000, Note_on_c, 2, 63, 80
4, 180096, Note_on_c, 2, 63, 0
4, 180240, Note_on_c, 2, 63, 80
4, 180336, Note_on_c, 2, 63, 0
4, 180480, Note_on_c, 2, 63, 80
4, 180576, Note_on_c, 2, 63, 0
4, 180720, Note_on_c, 2, 58, 80
4, 180816, Note_on_c, 2, 58, 0
4, 180960, Note_on_c, 2, 47, 80
4, 181104, Note_on_c, 2, 47, 0
4, 181140, Note_on_c, 2, 46, 80
4, 181164, Note_on_c, 2, 46, 0
4, 181170, Note_on_c, 2, 44, 80
4, 181194, Note_on_c, 2, 44, 0
4, 181200, Note_on_c, 2, 42, 80
4, 181344, Note_on_c, 2, 42, 0
4, 181380, Note_on_c, 2, 41, 80
4, 181404, Note_on_c, 2, 41, 0
4, 181410, Note_on_c, 2, 39, 80
4, 181434, Note_on_c, 2, 39, 0
4, 181440, Note_on_c, 2, 38, 80
4, 181632, Note_on_c, 2, 38, 0
4, 183240, Note_on_c, 2, 53, 64
4, 183360, Note_on_c, 2, 53, 0
4, 183360, Note_on_c, 2, 53, 64
4, 183600, Note_on_c, 2, 53, 0
4, 183600, Note_on_c, 2, 54, 64
4, 183713, Note_on_c, 2, 54, 0
4, 183840, Note_on_c, 2, 53, 80
4, 183936, Note_on_c, 2, 53, 0
4, 183960, Note_on_c, 2, 53, 80
4, 184152, Note_on_c, 2, 53, 0
4, 184200, Note_on_c, 2, 46, 80
4, 184296, Note_on_c, 2, 46, 0
4, 184320, Note_on_c, 2, 46, 80
4, 184416, Note_on_c, 2, 46, 0
4, 184800, Note_on_c, 2, 53, 64
4, 184896, Note_on_c, 2, 53, 0
4, 184920, Note_on_c, 2, 53, 64
4, 185112, Note_on_c, 2, 53, 0
4, 185160, Note_on_c, 2, 46, 64
4, 185256, Note_on_c, 2, 46, 0
4, 185280, Note_on_c, 2, 46, 64
4, 185376, Note_on_c, 2, 46, 0
4, 185760, Note_on_c, 2, 63, 64
4, 185904, Note_on_c, 2, 63, 0
4, 185940, Note_on_c, 2, 61, 64
4, 185988, Note_on_c, 2, 61, 0
4, 186000, Note_on_c, 2, 59, 64
4, 186096, Note_on_c, 2, 59, 0
4, 186120, Note_on_c, 2, 65, 64
4, 186624, Note_on_c, 2, 65, 0
4, 186720, Note_on_c, 2, 63, 80
4, 186816, Note_on_c, 2, 63, 0
4, 186960, Note_on_c, 2, 63, 80
4, 187056, Note_on_c, 2, 63, 0
4, 187200, Note_on_c, 2, 63, 80
4, 187296, Note_on_c, 2, 63, 0
4, 187440, Note_on_c, 2, 58, 80
4, 187536, Note_on_c, 2, 58, 0
4, 187680, Note_on_c, 2, 47, 80
4, 187824, Note_on_c, 2, 47, 0
4, 187860, Note_on_c, 2, 46, 80
4, 187884, Note_on_c, 2, 46, 0
4, 187890, Note_on_c, 2, 44, 80
4, 187914, Note_on_c, 2, 44, 0
4, 187920, Note_on_c, 2, 42, 80
4, 188064, Note_on_c, 2, 42, 0
4, 188100, Note_on_c, 2, 41, 80
4, 188124, Note_on_c, 2, 41, 0
4, 188130, Note_on_c, 2, 39, 80
4, 188154, Note_on_c, 2, 39, 0
4, 188160, Note_on_c, 2, 38, 80
4, 188352, Note_on_c, 2, 38, 0
4, 189960, Note_on_c, 2, 53, 64
4, 190080, Note_on_c, 2, 53, 0
4, 190080, Note_on_c, 2, 53, 64
4, 190320, Note_on_c, 2, 53, 0
4, 190320, Note_on_c, 2, 54, 64
4, 190433, Note_on_c, 2, 54, 0
4, 190560, Note_on_c, 2, 67, 80
4, 190656, Note_on_c, 2, 67, 0
4, 190680, Note_on_c, 2, 63, 80
4, 190776, Note_on_c, 2, 63, 0
4, 190800, Note_on_c, 2, 63, 80
4, 190896, Note_on_c, 2, 63, 0
4, 190920, Note_on_c, 2, 63, 80
4, 191016, Note_on_c, 2, 63, 0
4, 191040, Note_on_c, 2, 63, 80
4, 191328, Note_on_c, 2, 63, 0
4, 191400, Note_on_c, 2, 55, 80
4, 191496, Note_on_c, 2, 55, 0
4, 191520, Note_on_c, 2, 58, 80
4, 191616, Note_on_c, 2, 58, 0
4, 191640, Note_on_c, 2, 58, 80
4, 191736, Note_on_c, 2, 58, 0
4, 191760, Note_on_c, 2, 58, 80
4, 191856, Note_on_c, 2, 58, 0
4, 191880, Note_on_c, 2, 63, 80
4, 191976, Note_on_c, 2, 63, 0
4, 192000, Note_on_c, 2, 62, 80
4, 192096, Note_on_c, 2, 62, 0
4, 192240, Note_on_c, 2, 63, 80
4, 192336, Note_on_c, 2, 63, 0
4, 193920, Note_on_c, 2, 51, 80
4, 194112, Note_on_c, 2, 51, 0
4, 194160, Note_on_c, 2, 50, 80
4, 194352, Note_on_c, 2, 50, 0
4, 194400, Note_on_c, 2, 50, 80
4, 194496, Note_on_c, 2, 50, 0
4, 194520, Note_on_c, 2, 50, 80
4, 194616, Note_on_c, 2, 50, 0
4, 194640, Note_on_c, 2, 50, 80
4, 194736, Note_on_c, 2, 50, 0
4, 194760, Note_on_c, 2, 53, 80
4, 194856, Note_on_c, 2, 53, 0
4, 194880, Note_on_c, 2, 53, 80
4, 195072, Note_on_c, 2, 53, 0
4, 195120, Note_on_c, 2, 51, 80
4, 195216, Note_on_c, 2, 51, 0
4, 195480, Note_on_c, 2, 50, 80
4, 195576, Note_on_c, 2, 50, 0
4, 195600, Note_on_c, 2, 50, 80
4, 195696, Note_on_c, 2, 50, 0
4, 195720, Note_on_c, 2, 53, 80
4, 195816, Note_on_c, 2, 53, 0
4, 195840, Note_on_c, 2, 53, 80
4, 196032, Note_on_c, 2, 53, 0
4, 196080, Note_on_c, 2, 51, 80
4, 196176, Note_on_c, 2, 51, 0
4, 196320, Note_on_c, 2, 56, 80
4, 196704, Note_on_c, 2, 56, 0
4, 196800, Note_on_c, 2, 56, 80
4, 197184, Note_on_c, 2, 56, 0
4, 197280, Note_on_c, 2, 63, 80
4, 197340, Note_on_c, 2, 63, 0
4, 197520, Note_on_c, 2, 63, 80
4, 197580, Note_on_c, 2, 63, 0
4, 197880, Note_on_c, 2, 55, 80
4, 197976, Note_on_c, 2, 55, 0
4, 198000, Note_on_c, 2, 56, 80
4, 198096, Note_on_c, 2, 56, 0
4, 198120, Note_on_c, 2, 53, 80
4, 198216, Note_on_c, 2, 53, 0
4, 198240, Note_on_c, 2, 55, 80
4, 198336, Note_on_c, 2, 55, 0
4, 198720, Note_on_c, 2, 56, 80
4, 199104, Note_on_c, 2, 56, 0
4, 199200, Note_on_c, 2, 56, 80
4, 199584, Note_on_c, 2, 56, 0
4, 199680, Note_on_c, 2, 63, 80
4, 199728, Note_on_c, 2, 63, 0
4, 199920, Note_on_c, 2, 63, 80
4, 200016, Note_on_c, 2, 63, 0
4, 200280, Note_on_c, 2, 55, 80
4, 200376, Note_on_c, 2, 55, 0
4, 200400, Note_on_c, 2, 56, 80
4, 200496, Note_on_c, 2, 56, 0
4, 200520, Note_on_c, 2, 53, 80
4, 200616, Note_on_c, 2, 53, 0
4, 200640, Note_on_c, 2, 65, 80
4, 200832, Note_on_c, 2, 65, 0
4, 200880, Note_on_c, 2, 63, 80
4, 200976, Note_on_c, 2, 63, 0
4, 201120, Note_on_c, 2, 67, 80
4, 201312, Note_on_c, 2, 67, 0
4, 201360, Note_on_c, 2, 63, 80
4, 201456, Note_on_c, 2, 63, 0
4, 201480, Note_on_c, 2, 63, 80
4, 201576, Note_on_c, 2, 63, 0
4, 201600, Note_on_c, 2, 63, 80
4, 201888, Note_on_c, 2, 63, 0
4, 201960, Note_on_c, 2, 55, 80
4, 202056, Note_on_c, 2, 55, 0
4, 202560, Note_on_c, 2, 60, 80
4, 202680, Note_on_c, 2, 60, 0
4, 202680, Note_on_c, 2, 62, 80
4, 202800, Note_on_c, 2, 62, 0
4, 205440, Note_on_c, 2, 60, 80
4, 205728, Note_on_c, 2, 60, 0
4, 206400, Note_on_c, 2, 62, 80
4, 206496, Note_on_c, 2, 62, 0
4, 206760, Note_on_c, 2, 66, 80
4, 206856, Note_on_c, 2, 66, 0
4, 206880, Note_on_c, 2, 65, 80
4, 207264, Note_on_c, 2, 65, 0
4, 207360, Note_on_c, 2, 65, 80
4, 207744, Note_on_c, 2, 65, 0
4, 208800, Note_on_c, 2, 62, 80
4, 208992, Note_on_c, 2, 62, 0
4, 209280, Note_on_c, 2, 65, 80
4, 209664, Note_on_c, 2, 65, 0
4, 209760, Note_on_c, 2, 65, 80
4, 210048, Note_on_c, 2, 65, 0
4, 211200, Note_on_c, 2, 55, 80
4, 211392, Note_on_c, 2, 55, 0
4, 213360, Note_on_c, 2, 55, 56
4, 213600, Note_on_c, 2, 55, 0
4, 213600, Note_on_c, 2, 56, 56
4, 213840, Note_on_c, 2, 56, 0
4, 213840, Note_on_c, 2, 56, 56
4, 214080, Note_on_c, 2, 56, 0
4, 214080, Note_on_c, 2, 58, 56
4, 214320, Note_on_c, 2, 58, 0
4, 214320, Note_on_c, 2, 58, 56
4, 214560, Note_on_c, 2, 58, 0
4, 214560, Note_on_c, 2, 60, 56
4, 214800, Note_on_c, 2, 60, 0
4, 214800, Note_on_c, 2, 62, 56
4, 215040, Note_on_c, 2, 62, 0
4, 215640, Note_on_c, 2, 55, 56
4, 215760, Note_on_c, 2, 55, 0
4, 215760, Note_on_c, 2, 55, 56
4, 215880, Note_on_c, 2, 55, 0
4, 215880, Note_on_c, 2, 55, 56
4, 216000, Note_on_c, 2, 55, 0
4, 216120, Note_on_c, 2, 56, 56
4, 216360, Note_on_c, 2, 56, 0
4, 216360, Note_on_c, 2, 56, 56
4, 216480, Note_on_c, 2, 56, 0
4, 216600, Note_on_c, 2, 55, 56
4, 216720, Note_on_c, 2, 55, 0
4, 216720, Note_on_c, 2, 55, 56
4, 216840, Note_on_c, 2, 55, 0
4, 216840, Note_on_c, 2, 55, 56
4, 216960, Note_on_c, 2, 55, 0
4, 217080, Note_on_c, 2, 56, 56
4, 217320, Note_on_c, 2, 56, 0
4, 217320, Note_on_c, 2, 56, 56
4, 217440, Note_on_c, 2, 56, 0
4, 217440, Note_on_c, 2, 55, 56
4, 217680, Note_on_c, 2, 55, 0
4, 217920, Note_on_c, 2, 50, 56
4, 218160, Note_on_c, 2, 50, 0
4, 218160, Note_on_c, 2, 51, 56
4, 218400, Note_on_c, 2, 51, 0
4, 218520, Note_on_c, 2, 51, 56
4, 218640, Note_on_c, 2, 51, 0
4, 218640, Note_on_c, 2, 51, 56
4, 218760, Note_on_c, 2, 51, 0
4, 218760, Note_on_c, 2, 51, 56
4, 218880, Note_on_c, 2, 51, 0
4, 218880, Note_on_c, 2, 50, 56
4, 219000, Note_on_c, 2, 50, 0
4, 219000, Note_on_c, 2, 58, 56
4, 219120, Note_on_c, 2, 58, 0
4, 219120, Note_on_c, 2, 53, 56
4, 219240, Note_on_c, 2, 53, 0
4, 219240, Note_on_c, 2, 50, 56
4, 219360, Note_on_c, 2, 50, 0
4, 219360, Note_on_c, 2, 58, 56
4, 219600, Note_on_c, 2, 58, 0
4, 219600, Note_on_c, 2, 58, 56
4, 219840, Note_on_c, 2, 58, 0
4, 219840, Note_on_c, 2, 58, 56
4, 220080, Note_on_c, 2, 58, 0
4, 220080, Note_on_c, 2, 58, 56
4, 220320, Note_on_c, 2, 58, 0
4, 220320, Note_on_c, 2, 58, 56
4, 221280, Note_on_c, 2, 58, 0
4, 221280, Note_on_c, 2, 62, 56
4, 221520, Note_on_c, 2, 62, 0
4, 221520, Note_on_c, 2, 58, 56
4, 221760, Note_on_c, 2, 58, 0
4, 221760, Note_on_c, 2, 58, 56
4, 222000, Note_on_c, 2, 58, 0
4, 222000, Note_on_c, 2, 58, 56
4, 222240, Note_on_c, 2, 58, 0
4, 222240, Note_on_c, 2, 58, 56
4, 223200, Note_on_c, 2, 58, 0
4, 223320, Note_on_c, 2, 62, 56
4, 223440, Note_on_c, 2, 62, 0
4, 223440, Note_on_c, 2, 62, 56
4, 223560, Note_on_c, 2, 62, 0
4, 223560, Note_on_c, 2, 62, 56
4, 223680, Note_on_c, 2, 62, 0
4, 223680, Note_on_c, 2, 62, 56
4, 224160, Note_on_c, 2, 62, 0
4, 224280, Note_on_c, 2, 58, 56
4, 224400, Note_on_c, 2, 58, 0
4, 224400, Note_on_c, 2, 58, 56
4, 224520, Note_on_c, 2, 58, 0
4, 224520, Note_on_c, 2, 58, 56
4, 224640, Note_on_c, 2, 58, 0
4, 224640, Note_on_c, 2, 58, 56
4, 225120, Note_on_c, 2, 58, 0
4, 225120, Note_on_c, 2, 58, 56
4, 225360, Note_on_c, 2, 58, 0
4, 225600, Note_on_c, 2, 60, 56
4, 226080, Note_on_c, 2, 60, 0
4, 226200, Note_on_c, 2, 63, 56
4, 226320, Note_on_c, 2, 63, 0
4, 226320, Note_on_c, 2, 63, 56
4, 226440, Note_on_c, 2, 63, 0
4, 226440, Note_on_c, 2, 63, 56
4, 226560, Note_on_c, 2, 63, 0
4, 226680, Note_on_c, 2, 62, 56
4, 226800, Note_on_c, 2, 62, 0
4, 226800, Note_on_c, 2, 62, 56
4, 226920, Note_on_c, 2, 62, 0
4, 226920, Note_on_c, 2, 62, 56
4, 227040, Note_on_c, 2, 62, 0
4, 227040, Note_on_c, 2, 65, 56
4, 227280, Note_on_c, 2, 65, 0
4, 227520, Note_on_c, 2, 51, 56
4, 228000, Note_on_c, 2, 51, 0
4, 228120, Note_on_c, 2, 50, 56
4, 228240, Note_on_c, 2, 50, 0
4, 228240, Note_on_c, 2, 50, 56
4, 228360, Note_on_c, 2, 50, 0
4, 228360, Note_on_c, 2, 50, 56
4, 228480, Note_on_c, 2, 50, 0
4, 228480, Note_on_c, 2, 50, 56
4, 228960, Note_on_c, 2, 50, 0
4, 229080, Note_on_c, 2, 46, 56
4, 229176, Note_on_c, 2, 46, 0
4, 229200, Note_on_c, 2, 46, 56
4, 229296, Note_on_c, 2, 46, 0
4, 229320, Note_on_c, 2, 46, 56
4, 229416, Note_on_c, 2, 46, 0
4, 229440, Note_on_c, 2, 46, 56
4, 229824, Note_on_c, 2, 46, 0
4, 229920, Note_on_c, 2, 46, 56
4, 230400, Note_on_c, 2, 46, 0
4, 230880, Note_on_c, 2, 63, 56
4, 231120, Note_on_c, 2, 63, 0
4, 231120, Note_on_c, 2, 63, 56
4, 231360, Note_on_c, 2, 63, 0
4, 231360, Note_on_c, 2, 63, 56
4, 231600, Note_on_c, 2, 63, 0
4, 231600, Note_on_c, 2, 62, 56
4, 231720, Note_on_c, 2, 62, 0
4, 231780, Note_on_c, 2, 65, 56
4, 231840, Note_on_c, 2, 65, 0
4, 231840, Note_on_c, 2, 65, 56
4, 232320, Note_on_c, 2, 65, 0
4, 232320, Note_on_c, 2, 67, 56
4, 232440, Note_on_c, 2, 67, 0
4, 232800, Note_on_c, 2, 39, 72
4, 232896, Note_on_c, 2, 39, 0
4, 232920, Note_on_c, 2, 43, 64
4, 232968, Note_on_c, 2, 43, 0
4, 233040, Note_on_c, 2, 46, 64
4, 233088, Note_on_c, 2, 46, 0
4, 233160, Note_on_c, 2, 51, 64
4, 233208, Note_on_c, 2, 51, 0
4, 233280, Note_on_c, 2, 46, 64
4, 233328, Note_on_c, 2, 46, 0
4, 233400, Note_on_c, 2, 43, 64
4, 233448, Note_on_c, 2, 43, 0
4, 233520, Note_on_c, 2, 39, 72
4, 233616, Note_on_c, 2, 39, 0
4, 233640, Note_on_c, 2, 43, 64
4, 233688, Note_on_c, 2, 43, 0
4, 233760, Note_on_c, 2, 46, 64
4, 233808, Note_on_c, 2, 46, 0
4, 233880, Note_on_c, 2, 51, 64
4, 233928, Note_on_c, 2, 51, 0
4, 234000, Note_on_c, 2, 46, 64
4, 234048, Note_on_c, 2, 46, 0
4, 234120, Note_on_c, 2, 43, 64
4, 234168, Note_on_c, 2, 43, 0
4, 238560, Note_on_c, 2, 39, 72
4, 238656, Note_on_c, 2, 39, 0
4, 238680, Note_on_c, 2, 43, 64
4, 238728, Note_on_c, 2, 43, 0
4, 238800, Note_on_c, 2, 46, 64
4, 238848, Note_on_c, 2, 46, 0
4, 238920, Note_on_c, 2, 51, 64
4, 238968, Note_on_c, 2, 51, 0
4, 239040, Note_on_c, 2, 46, 64
4, 239088, Note_on_c, 2, 46, 0
4, 239160, Note_on_c, 2, 43, 64
4, 239208, Note_on_c, 2, 43, 0
4, 239280, Note_on_c, 2, 39, 72
4, 239376, Note_on_c, 2, 39, 0
4, 239400, Note_on_c, 2, 43, 64
4, 239448, Note_on_c, 2, 43, 0
4, 239520, Note_on_c, 2, 46, 64
4, 239568, Note_on_c, 2, 46, 0
4, 239640, Note_on_c, 2, 51, 64
4, 239688, Note_on_c, 2, 51, 0
4, 239760, Note_on_c, 2, 46, 64
4, 239808, Note_on_c, 2, 46, 0
4, 239880, Note_on_c, 2, 43, 64
4, 239928, Note_on_c, 2, 43, 0
4, 244560, Note_on_c, 2, 58, 72
4, 244944, Note_on_c, 2, 58, 0
4, 245040, Note_on_c, 2, 58, 72
4, 245280, Note_on_c, 2, 58, 0
4, 245280, Note_on_c, 2, 58, 64
4, 245376, Note_on_c, 2, 58, 0
4, 245760, Note_on_c, 2, 58, 72
4, 246000, Note_on_c, 2, 58, 0
4, 246000, Note_on_c, 2, 58, 64
4, 246384, Note_on_c, 2, 58, 0
4, 246480, Note_on_c, 2, 58, 72
4, 246720, Note_on_c, 2, 58, 0
4, 246720, Note_on_c, 2, 58, 64
4, 246816, Note_on_c, 2, 58, 0
4, 247200, Note_on_c, 2, 65, 72
4, 247440, Note_on_c, 2, 65, 0
4, 247440, Note_on_c, 2, 65, 64
4, 247536, Note_on_c, 2, 65, 0
4, 247920, Note_on_c, 2, 65, 72
4, 248160, Note_on_c, 2, 65, 0
4, 248160, Note_on_c, 2, 65, 64
4, 248256, Note_on_c, 2, 65, 0
4, 248640, Note_on_c, 2, 55, 72
4, 248832, Note_on_c, 2, 55, 0
4, 249120, Note_on_c, 2, 56, 64
4, 249312, Note_on_c, 2, 56, 0
4, 249360, Note_on_c, 2, 58, 72
4, 249552, Note_on_c, 2, 58, 0
4, 249840, Note_on_c, 2, 53, 64
4, 250032, Note_on_c, 2, 53, 0
4, 250800, Note_on_c, 2, 65, 72
4, 251040, Note_on_c, 2, 65, 0
4, 251040, Note_on_c, 2, 65, 64
4, 251136, Note_on_c, 2, 65, 0
4, 251520, Note_on_c, 2, 65, 72
4, 251760, Note_on_c, 2, 65, 0
4, 251760, Note_on_c, 2, 65, 64
4, 251856, Note_on_c, 2, 65, 0
4, 252240, Note_on_c, 2, 55, 64
4, 252432, Note_on_c, 2, 55, 0
4, 252720, Note_on_c, 2, 56, 56
4, 252912, Note_on_c, 2, 56, 0
4, 252960, Note_on_c, 2, 58, 64
4, 253152, Note_on_c, 2, 58, 0
4, 253440, Note_on_c, 2, 53, 56
4, 253632, Note_on_c, 2, 53, 0
4, 254640, Note_on_c, 2, 58, 72
4, 255024, Note_on_c, 2, 58, 0
4, 255120, Note_on_c, 2, 58, 72
4, 255360, Note_on_c, 2, 58, 0
4, 255360, Note_on_c, 2, 58, 64
4, 255456, Note_on_c, 2, 58, 0
4, 255840, Note_on_c, 2, 70, 72
4, 256080, Note_on_c, 2, 70, 0
4, 256080, Note_on_c, 2, 70, 64
4, 256464, Note_on_c, 2, 70, 0
4, 256560, Note_on_c, 2, 70, 72
4, 256800, Note_on_c, 2, 70, 0
4, 256800, Note_on_c, 2, 70, 64
4, 256896, Note_on_c, 2, 70, 0
4, 257280, Note_on_c, 2, 65, 72
4, 257520, Note_on_c, 2, 65, 0
4, 257520, Note_on_c, 2, 65, 64
4, 257616, Note_on_c, 2, 65, 0
4, 258000, Note_on_c, 2, 65, 72
4, 258240, Note_on_c, 2, 65, 0
4, 258240, Note_on_c, 2, 65, 64
4, 258336, Note_on_c, 2, 65, 0
4, 258720, Note_on_c, 2, 55, 56
4, 258912, Note_on_c, 2, 55, 0
4, 259200, Note_on_c, 2, 56, 56
4, 259392, Note_on_c, 2, 56, 0
4, 259440, Note_on_c, 2, 58, 64
4, 259632, Note_on_c, 2, 58, 0
4, 259920, Note_on_c, 2, 53, 56
4, 260112, Note_on_c, 2, 53, 0
4, 260880, Note_on_c, 2, 50, 80
4, 261120, Note_on_c, 2, 50, 0
4, 261120, Note_on_c, 2, 50, 72
4, 261216, Note_on_c, 2, 50, 0
4, 261600, Note_on_c, 2, 46, 80
4, 261840, Note_on_c, 2, 46, 0
4, 261840, Note_on_c, 2, 46, 72
4, 261936, Note_on_c, 2, 46, 0
4, 262320, Note_on_c, 2, 55, 48
4, 262512, Note_on_c, 2, 55, 0
4, 262560, Note_on_c, 2, 55, 48
4, 262752, Note_on_c, 2, 55, 0
4, 263040, Note_on_c, 2, 55, 48
4, 263232, Note_on_c, 2, 55, 0
4, 263280, Note_on_c, 2, 55, 48
4, 263472, Note_on_c, 2, 55, 0
4, 263760, Note_on_c, 2, 56, 80
4, 263952, Note_on_c, 2, 56, 0
4, 265080, Note_on_c, 2, 59, 80
4, 265176, Note_on_c, 2, 59, 0
4, 265200, Note_on_c, 2, 60, 80
4, 265296, Note_on_c, 2, 60, 0
4, 265320, Note_on_c, 2, 62, 80
4, 265416, Note_on_c, 2, 62, 0
4, 265440, Note_on_c, 2, 63, 80
4, 265536, Note_on_c, 2, 63, 0
4, 265560, Note_on_c, 2, 55, 80
4, 265656, Note_on_c, 2, 55, 0
4, 265680, Note_on_c, 2, 56, 80
4, 265776, Note_on_c, 2, 56, 0
4, 265800, Note_on_c, 2, 58, 80
4, 265896, Note_on_c, 2, 58, 0
4, 265920, Note_on_c, 2, 60, 80
4, 266016, Note_on_c, 2, 60, 0
4, 266040, Note_on_c, 2, 52, 80
4, 266136, Note_on_c, 2, 52, 0
4, 266160, Note_on_c, 2, 53, 80
4, 266256, Note_on_c, 2, 53, 0
4, 266280, Note_on_c, 2, 55, 80
4, 266376, Note_on_c, 2, 55, 0
4, 266400, Note_on_c, 2, 56, 80
4, 266496, Note_on_c, 2, 56, 0
4, 266520, Note_on_c, 2, 47, 80
4, 266568, Note_on_c, 2, 47, 0
4, 266640, Note_on_c, 2, 46, 80
4, 266736, Note_on_c, 2, 46, 0
4, 266880, Note_on_c, 2, 45, 80
4, 268512, Note_on_c, 2, 45, 0
4, 268560, Note_on_c, 2, 57, 80
4, 268608, Note_on_c, 2, 57, 0
4, 268620, Note_on_c, 2, 54, 80
4, 268668, Note_on_c, 2, 54, 0
4, 268680, Note_on_c, 2, 51, 80
4, 268728, Note_on_c, 2, 51, 0
4, 268740, Note_on_c, 2, 48, 80
4, 268788, Note_on_c, 2, 48, 0
4, 269760, Note_on_c, 2, 46, 80
4, 269824, Note_on_c, 2, 46, 0
4, 269840, Note_on_c, 2, 51, 80
4, 269904, Note_on_c, 2, 51, 0
4, 269920, Note_on_c, 2, 55, 80
4, 269984, Note_on_c, 2, 55, 0
4, 272160, Note_on_c, 2, 45, 80
4, 272352, Note_on_c, 2, 45, 0
4, 272400, Note_on_c, 2, 46, 80
4, 272592, Note_on_c, 2, 46, 0
4, 274020, Note_on_c, 2, 53, 56
4, 274068, Note_on_c, 2, 53, 0
4, 274080, Note_on_c, 2, 53, 48
4, 275040, Note_on_c, 2, 53, 0
4, 275040, Note_on_c, 2, 51, 32
4, 275490, Note_on_c, 2, 51, 0
4, 275490, End_track
5, 0, Start_track
5, 0, MIDI_port, 0
5, 0, Title_t, "weimermt@libby.org  Eureka, MT"
5, 0, Program_c, 3, 0
5, 0, Control_c, 3, 7, 118
5, 0, Control_c, 3, 10, 48
5, 1080, Note_on_c, 3, 51, 56
5, 1200, Note_on_c, 3, 51, 0
5, 1200, Note_on_c, 3, 39, 56
5, 1320, Note_on_c, 3, 39, 0
5, 1320, Note_on_c, 3, 43, 56
5, 1440, Note_on_c, 3, 43, 0
5, 1440, Note_on_c, 3, 46, 56
5, 1800, Note_on_c, 3, 46, 0
5, 1800, Note_on_c, 3, 51, 64
5, 1896, Note_on_c, 3, 51, 0
5, 1920, Note_on_c, 3, 50, 64
5, 2016, Note_on_c, 3, 50, 0
5, 2040, Note_on_c, 3, 46, 64
5, 2136, Note_on_c, 3, 46, 0
5, 2160, Note_on_c, 3, 51, 64
5, 2256, Note_on_c, 3, 51, 0
5, 2280, Note_on_c, 3, 39, 64
5, 2376, Note_on_c, 3, 39, 0
5, 2400, Note_on_c, 3, 51, 72
5, 2784, Note_on_c, 3, 51, 0
5, 2880, Note_on_c, 3, 51, 56
5, 3264, Note_on_c, 3, 51, 0
5, 3360, Note_on_c, 3, 51, 72
5, 3456, Note_on_c, 3, 51, 0
5, 3480, Note_on_c, 3, 43, 72
5, 3600, Note_on_c, 3, 43, 0
5, 3600, Note_on_c, 3, 44, 72
5, 3720, Note_on_c, 3, 44, 0
5, 3720, Note_on_c, 3, 45, 72
5, 3840, Note_on_c, 3, 45, 0
5, 3840, Note_on_c, 3, 46, 72
5, 3936, Note_on_c, 3, 46, 0
5, 3960, Note_on_c, 3, 58, 64
5, 4020, Note_on_c, 3, 58, 0
5, 4020, Note_on_c, 3, 57, 64
5, 4080, Note_on_c, 3, 57, 0
5, 4080, Note_on_c, 3, 58, 64
5, 4140, Note_on_c, 3, 58, 0
5, 4200, Note_on_c, 3, 46, 72
5, 4296, Note_on_c, 3, 46, 0
5, 4920, Note_on_c, 3, 51, 48
5, 5040, Note_on_c, 3, 51, 0
5, 5040, Note_on_c, 3, 39, 48
5, 5160, Note_on_c, 3, 39, 0
5, 5160, Note_on_c, 3, 43, 48
5, 5280, Note_on_c, 3, 43, 0
5, 5280, Note_on_c, 3, 46, 56
5, 5640, Note_on_c, 3, 46, 0
5, 5640, Note_on_c, 3, 51, 64
5, 5736, Note_on_c, 3, 51, 0
5, 5760, Note_on_c, 3, 50, 64
5, 5856, Note_on_c, 3, 50, 0
5, 5880, Note_on_c, 3, 46, 64
5, 5976, Note_on_c, 3, 46, 0
5, 6000, Note_on_c, 3, 51, 64
5, 6096, Note_on_c, 3, 51, 0
5, 6120, Note_on_c, 3, 39, 64
5, 6216, Note_on_c, 3, 39, 0
5, 6240, Note_on_c, 3, 51, 72
5, 6624, Note_on_c, 3, 51, 0
5, 6720, Note_on_c, 3, 51, 56
5, 7104, Note_on_c, 3, 51, 0
5, 7200, Note_on_c, 3, 51, 72
5, 7296, Note_on_c, 3, 51, 0
5, 7320, Note_on_c, 3, 43, 72
5, 7440, Note_on_c, 3, 43, 0
5, 7440, Note_on_c, 3, 44, 72
5, 7560, Note_on_c, 3, 44, 0
5, 7560, Note_on_c, 3, 45, 72
5, 7680, Note_on_c, 3, 45, 0
5, 7680, Note_on_c, 3, 46, 72
5, 7776, Note_on_c, 3, 46, 0
5, 7800, Note_on_c, 3, 58, 64
5, 7860, Note_on_c, 3, 58, 0
5, 7860, Note_on_c, 3, 57, 64
5, 7920, Note_on_c, 3, 57, 0
5, 7920, Note_on_c, 3, 58, 64
5, 7980, Note_on_c, 3, 58, 0
5, 8040, Note_on_c, 3, 46, 72
5, 8136, Note_on_c, 3, 46, 0
5, 8280, Note_on_c, 3, 46, 80
5, 8376, Note_on_c, 3, 46, 0
5, 8400, Note_on_c, 3, 50, 80
5, 8520, Note_on_c, 3, 50, 0
5, 8520, Note_on_c, 3, 46, 80
5, 8640, Note_on_c, 3, 46, 0
5, 8760, Note_on_c, 3, 51, 80
5, 8880, Note_on_c, 3, 51, 0
5, 8880, Note_on_c, 3, 55, 80
5, 9000, Note_on_c, 3, 55, 0
5, 9000, Note_on_c, 3, 51, 80
5, 9048, Note_on_c, 3, 51, 0
5, 9240, Note_on_c, 3, 34, 80
5, 9288, Note_on_c, 3, 34, 0
5, 9360, Note_on_c, 3, 38, 80
5, 9408, Note_on_c, 3, 38, 0
5, 9480, Note_on_c, 3, 34, 80
5, 9528, Note_on_c, 3, 34, 0
5, 9720, Note_on_c, 3, 39, 80
5, 9816, Note_on_c, 3, 39, 0
5, 9840, Note_on_c, 3, 43, 80
5, 9936, Note_on_c, 3, 43, 0
5, 9960, Note_on_c, 3, 39, 80
5, 10056, Note_on_c, 3, 39, 0
5, 10080, Note_on_c, 3, 46, 80
5, 10080, Note_on_c, 3, 53, 80
5, 10464, Note_on_c, 3, 53, 0
5, 10464, Note_on_c, 3, 46, 0
5, 10560, Note_on_c, 3, 53, 80
5, 10560, Note_on_c, 3, 46, 80
5, 10944, Note_on_c, 3, 46, 0
5, 10944, Note_on_c, 3, 53, 0
5, 11040, Note_on_c, 3, 51, 80
5, 11232, Note_on_c, 3, 51, 0
5, 11280, Note_on_c, 3, 44, 80
5, 11472, Note_on_c, 3, 44, 0
5, 11520, Note_on_c, 3, 46, 80
5, 11712, Note_on_c, 3, 46, 0
5, 11760, Note_on_c, 3, 46, 80
5, 11952, Note_on_c, 3, 46, 0
5, 12000, Note_on_c, 3, 51, 80
5, 12336, Note_on_c, 3, 51, 0
5, 13440, Note_on_c, 3, 51, 80
5, 13536, Note_on_c, 3, 51, 0
5, 13560, Note_on_c, 3, 51, 80
5, 13656, Note_on_c, 3, 51, 0
5, 13680, Note_on_c, 3, 56, 80
5, 13872, Note_on_c, 3, 56, 0
5, 13920, Note_on_c, 3, 58, 80
5, 14112, Note_on_c, 3, 58, 0
5, 14160, Note_on_c, 3, 46, 80
5, 14352, Note_on_c, 3, 46, 0
5, 14400, Note_on_c, 3, 51, 80
5, 14496, Note_on_c, 3, 51, 0
5, 14520, Note_on_c, 3, 46, 80
5, 14616, Note_on_c, 3, 46, 0
5, 14640, Note_on_c, 3, 39, 80
5, 14832, Note_on_c, 3, 39, 0
5, 15000, Note_on_c, 3, 46, 80
5, 15096, Note_on_c, 3, 46, 0
5, 15120, Note_on_c, 3, 50, 80
5, 15216, Note_on_c, 3, 50, 0
5, 15240, Note_on_c, 3, 46, 80
5, 15336, Note_on_c, 3, 46, 0
5, 15480, Note_on_c, 3, 51, 80
5, 15576, Note_on_c, 3, 51, 0
5, 15600, Note_on_c, 3, 55, 80
5, 15696, Note_on_c, 3, 55, 0
5, 15720, Note_on_c, 3, 51, 80
5, 15816, Note_on_c, 3, 51, 0
5, 15960, Note_on_c, 3, 34, 80
5, 16056, Note_on_c, 3, 34, 0
5, 16080, Note_on_c, 3, 38, 80
5, 16176, Note_on_c, 3, 38, 0
5, 16200, Note_on_c, 3, 34, 80
5, 16296, Note_on_c, 3, 34, 0
5, 16440, Note_on_c, 3, 39, 80
5, 16536, Note_on_c, 3, 39, 0
5, 16560, Note_on_c, 3, 43, 80
5, 16656, Note_on_c, 3, 43, 0
5, 16680, Note_on_c, 3, 39, 80
5, 16776, Note_on_c, 3, 39, 0
5, 16800, Note_on_c, 3, 53, 80
5, 16800, Note_on_c, 3, 46, 80
5, 17184, Note_on_c, 3, 46, 0
5, 17184, Note_on_c, 3, 53, 0
5, 17280, Note_on_c, 3, 46, 80
5, 17280, Note_on_c, 3, 53, 80
5, 17664, Note_on_c, 3, 53, 0
5, 17664, Note_on_c, 3, 46, 0
5, 17760, Note_on_c, 3, 51, 80
5, 17952, Note_on_c, 3, 51, 0
5, 18000, Note_on_c, 3, 44, 80
5, 18192, Note_on_c, 3, 44, 0
5, 18240, Note_on_c, 3, 46, 80
5, 18432, Note_on_c, 3, 46, 0
5, 18480, Note_on_c, 3, 46, 80
5, 18672, Note_on_c, 3, 46, 0
5, 18720, Note_on_c, 3, 51, 80
5, 19056, Note_on_c, 3, 51, 0
5, 20160, Note_on_c, 3, 51, 80
5, 20256, Note_on_c, 3, 51, 0
5, 20280, Note_on_c, 3, 51, 80
5, 20376, Note_on_c, 3, 51, 0
5, 20400, Note_on_c, 3, 56, 80
5, 20592, Note_on_c, 3, 56, 0
5, 20640, Note_on_c, 3, 58, 80
5, 20832, Note_on_c, 3, 58, 0
5, 20880, Note_on_c, 3, 46, 80
5, 21072, Note_on_c, 3, 46, 0
5, 21120, Note_on_c, 3, 51, 80
5, 21216, Note_on_c, 3, 51, 0
5, 21240, Note_on_c, 3, 46, 80
5, 21336, Note_on_c, 3, 46, 0
5, 21360, Note_on_c, 3, 39, 80
5, 21552, Note_on_c, 3, 39, 0
5, 21600, Note_on_c, 3, 51, 80
5, 21792, Note_on_c, 3, 51, 0
5, 21960, Note_on_c, 3, 51, 80
5, 22056, Note_on_c, 3, 51, 0
5, 22080, Note_on_c, 3, 51, 80
5, 22272, Note_on_c, 3, 51, 0
5, 22440, Note_on_c, 3, 55, 80
5, 22536, Note_on_c, 3, 55, 0
5, 22560, Note_on_c, 3, 56, 80
5, 22848, Note_on_c, 3, 56, 0
5, 22920, Note_on_c, 3, 58, 80
5, 23016, Note_on_c, 3, 58, 0
5, 23040, Note_on_c, 3, 60, 80
5, 23136, Note_on_c, 3, 60, 0
5, 23160, Note_on_c, 3, 62, 80
5, 23256, Note_on_c, 3, 62, 0
5, 23280, Note_on_c, 3, 63, 80
5, 23472, Note_on_c, 3, 63, 0
5, 23640, Note_on_c, 3, 55, 80
5, 23736, Note_on_c, 3, 55, 0
5, 23760, Note_on_c, 3, 56, 80
5, 23952, Note_on_c, 3, 56, 0
5, 24120, Note_on_c, 3, 55, 80
5, 24216, Note_on_c, 3, 55, 0
5, 24240, Note_on_c, 3, 56, 80
5, 24432, Note_on_c, 3, 56, 0
5, 24600, Note_on_c, 3, 55, 80
5, 24696, Note_on_c, 3, 55, 0
5, 24720, Note_on_c, 3, 50, 80
5, 24816, Note_on_c, 3, 50, 0
5, 24840, Note_on_c, 3, 51, 80
5, 24936, Note_on_c, 3, 51, 0
5, 24960, Note_on_c, 3, 46, 80
5, 25344, Note_on_c, 3, 46, 0
5, 25440, Note_on_c, 3, 51, 80
5, 25632, Note_on_c, 3, 51, 0
5, 25800, Note_on_c, 3, 51, 80
5, 25896, Note_on_c, 3, 51, 0
5, 25920, Note_on_c, 3, 51, 80
5, 26112, Note_on_c, 3, 51, 0
5, 26280, Note_on_c, 3, 55, 80
5, 26376, Note_on_c, 3, 55, 0
5, 26400, Note_on_c, 3, 56, 80
5, 26688, Note_on_c, 3, 56, 0
5, 26760, Note_on_c, 3, 58, 80
5, 26856, Note_on_c, 3, 58, 0
5, 26880, Note_on_c, 3, 60, 80
5, 26976, Note_on_c, 3, 60, 0
5, 27000, Note_on_c, 3, 62, 80
5, 27096, Note_on_c, 3, 62, 0
5, 27120, Note_on_c, 3, 63, 80
5, 27312, Note_on_c, 3, 63, 0
5, 27480, Note_on_c, 3, 55, 80
5, 27576, Note_on_c, 3, 55, 0
5, 27600, Note_on_c, 3, 56, 80
5, 27792, Note_on_c, 3, 56, 0
5, 27960, Note_on_c, 3, 55, 80
5, 28056, Note_on_c, 3, 55, 0
5, 28080, Note_on_c, 3, 56, 80
5, 28272, Note_on_c, 3, 56, 0
5, 28440, Note_on_c, 3, 55, 80
5, 28536, Note_on_c, 3, 55, 0
5, 28560, Note_on_c, 3, 50, 80
5, 28656, Note_on_c, 3, 50, 0
5, 28680, Note_on_c, 3, 51, 80
5, 28776, Note_on_c, 3, 51, 0
5, 28800, Note_on_c, 3, 46, 80
5, 29184, Note_on_c, 3, 46, 0
5, 29280, Note_on_c, 3, 50, 56
5, 29340, Note_on_c, 3, 50, 0
5, 29400, Note_on_c, 3, 46, 56
5, 29496, Note_on_c, 3, 46, 0
5, 29640, Note_on_c, 3, 50, 56
5, 29736, Note_on_c, 3, 50, 0
5, 29760, Note_on_c, 3, 51, 56
5, 29820, Note_on_c, 3, 51, 0
5, 29880, Note_on_c, 3, 46, 56
5, 29976, Note_on_c, 3, 46, 0
5, 30120, Note_on_c, 3, 51, 56
5, 30216, Note_on_c, 3, 51, 0
5, 30240, Note_on_c, 3, 50, 56
5, 30300, Note_on_c, 3, 50, 0
5, 30360, Note_on_c, 3, 46, 56
5, 30456, Note_on_c, 3, 46, 0
5, 30600, Note_on_c, 3, 50, 56
5, 30696, Note_on_c, 3, 50, 0
5, 30720, Note_on_c, 3, 51, 56
5, 30912, Note_on_c, 3, 51, 0
5, 31200, Note_on_c, 3, 58, 80
5, 31584, Note_on_c, 3, 58, 0
5, 31680, Note_on_c, 3, 56, 80
5, 32064, Note_on_c, 3, 56, 0
5, 32760, Note_on_c, 3, 46, 80
5, 32856, Note_on_c, 3, 46, 0
5, 33000, Note_on_c, 3, 46, 80
5, 33096, Note_on_c, 3, 46, 0
5, 33120, Note_on_c, 3, 51, 80
5, 33312, Note_on_c, 3, 51, 0
5, 33600, Note_on_c, 3, 58, 80
5, 33984, Note_on_c, 3, 58, 0
5, 34080, Note_on_c, 3, 56, 80
5, 34464, Note_on_c, 3, 56, 0
5, 35040, Note_on_c, 3, 46, 80
5, 35424, Note_on_c, 3, 46, 0
5, 35760, Note_on_c, 3, 39, 80
5, 35952, Note_on_c, 3, 39, 0
5, 36000, Note_on_c, 3, 50, 56
5, 36048, Note_on_c, 3, 50, 0
5, 36120, Note_on_c, 3, 46, 56
5, 36168, Note_on_c, 3, 46, 0
5, 36360, Note_on_c, 3, 50, 56
5, 36456, Note_on_c, 3, 50, 0
5, 36480, Note_on_c, 3, 51, 56
5, 36528, Note_on_c, 3, 51, 0
5, 36600, Note_on_c, 3, 46, 56
5, 36648, Note_on_c, 3, 46, 0
5, 36840, Note_on_c, 3, 51, 56
5, 36936, Note_on_c, 3, 51, 0
5, 36960, Note_on_c, 3, 50, 56
5, 37008, Note_on_c, 3, 50, 0
5, 37080, Note_on_c, 3, 46, 56
5, 37128, Note_on_c, 3, 46, 0
5, 37320, Note_on_c, 3, 50, 56
5, 37416, Note_on_c, 3, 50, 0
5, 37440, Note_on_c, 3, 51, 56
5, 37632, Note_on_c, 3, 51, 0
5, 37920, Note_on_c, 3, 58, 80
5, 38304, Note_on_c, 3, 58, 0
5, 38400, Note_on_c, 3, 56, 80
5, 38784, Note_on_c, 3, 56, 0
5, 39480, Note_on_c, 3, 46, 80
5, 39576, Note_on_c, 3, 46, 0
5, 39720, Note_on_c, 3, 46, 80
5, 39816, Note_on_c, 3, 46, 0
5, 39840, Note_on_c, 3, 51, 80
5, 40032, Note_on_c, 3, 51, 0
5, 40320, Note_on_c, 3, 58, 80
5, 40704, Note_on_c, 3, 58, 0
5, 40800, Note_on_c, 3, 56, 80
5, 41184, Note_on_c, 3, 56, 0
5, 41760, Note_on_c, 3, 46, 80
5, 42144, Note_on_c, 3, 46, 0
5, 42480, Note_on_c, 3, 39, 80
5, 42672, Note_on_c, 3, 39, 0
5, 42720, Note_on_c, 3, 39, 80
5, 42780, Note_on_c, 3, 39, 0
5, 42780, Note_on_c, 3, 38, 80
5, 42840, Note_on_c, 3, 38, 0
5, 42840, Note_on_c, 3, 39, 80
5, 42900, Note_on_c, 3, 39, 0
5, 42900, Note_on_c, 3, 38, 80
5, 42960, Note_on_c, 3, 38, 0
5, 42960, Note_on_c, 3, 39, 80
5, 43020, Note_on_c, 3, 39, 0
5, 43020, Note_on_c, 3, 38, 80
5, 43080, Note_on_c, 3, 38, 0
5, 43080, Note_on_c, 3, 39, 80
5, 43140, Note_on_c, 3, 39, 0
5, 43140, Note_on_c, 3, 38, 80
5, 43200, Note_on_c, 3, 38, 0
5, 43200, Note_on_c, 3, 39, 80
5, 43260, Note_on_c, 3, 39, 0
5, 43260, Note_on_c, 3, 38, 80
5, 43320, Note_on_c, 3, 38, 0
5, 43320, Note_on_c, 3, 39, 80
5, 43380, Note_on_c, 3, 39, 0
5, 43380, Note_on_c, 3, 38, 80
5, 43440, Note_on_c, 3, 38, 0
5, 43440, Note_on_c, 3, 39, 80
5, 43500, Note_on_c, 3, 39, 0
5, 43500, Note_on_c, 3, 41, 80
5, 43560, Note_on_c, 3, 41, 0
5, 43560, Note_on_c, 3, 43, 80
5, 43620, Note_on_c, 3, 43, 0
5, 43620, Note_on_c, 3, 39, 80
5, 43680, Note_on_c, 3, 39, 0
5, 43680, Note_on_c, 3, 44, 80
5, 43740, Note_on_c, 3, 44, 0
5, 43740, Note_on_c, 3, 48, 80
5, 43800, Note_on_c, 3, 48, 0
5, 43800, Note_on_c, 3, 51, 80
5, 43860, Note_on_c, 3, 51, 0
5, 43860, Note_on_c, 3, 56, 80
5, 43920, Note_on_c, 3, 56, 0
5, 43920, Note_on_c, 3, 44, 80
5, 43980, Note_on_c, 3, 44, 0
5, 43980, Note_on_c, 3, 56, 80
5, 44040, Note_on_c, 3, 56, 0
5, 44040, Note_on_c, 3, 46, 80
5, 44100, Note_on_c, 3, 46, 0
5, 44100, Note_on_c, 3, 58, 80
5, 44160, Note_on_c, 3, 58, 0
5, 44160, Note_on_c, 3, 48, 80
5, 44220, Note_on_c, 3, 48, 0
5, 44220, Note_on_c, 3, 60, 80
5, 44280, Note_on_c, 3, 60, 0
5, 44280, Note_on_c, 3, 50, 80
5, 44340, Note_on_c, 3, 50, 0
5, 44340, Note_on_c, 3, 62, 80
5, 44400, Note_on_c, 3, 62, 0
5, 44400, Note_on_c, 3, 63, 80
5, 44460, Note_on_c, 3, 63, 0
5, 44460, Note_on_c, 3, 58, 80
5, 44520, Note_on_c, 3, 58, 0
5, 44520, Note_on_c, 3, 55, 80
5, 44580, Note_on_c, 3, 55, 0
5, 44580, Note_on_c, 3, 58, 80
5, 44640, Note_on_c, 3, 58, 0
5, 44640, Note_on_c, 3, 51, 80
5, 44700, Note_on_c, 3, 51, 0
5, 44700, Note_on_c, 3, 53, 80
5, 44760, Note_on_c, 3, 53, 0
5, 44760, Note_on_c, 3, 55, 80
5, 44820, Note_on_c, 3, 55, 0
5, 44820, Note_on_c, 3, 56, 80
5, 44880, Note_on_c, 3, 56, 0
5, 44880, Note_on_c, 3, 58, 80
5, 44940, Note_on_c, 3, 58, 0
5, 44940, Note_on_c, 3, 56, 80
5, 45000, Note_on_c, 3, 56, 0
5, 45000, Note_on_c, 3, 55, 80
5, 45060, Note_on_c, 3, 55, 0
5, 45060, Note_on_c, 3, 53, 80
5, 45120, Note_on_c, 3, 53, 0
5, 45120, Note_on_c, 3, 51, 80
5, 45180, Note_on_c, 3, 51, 0
5, 45180, Note_on_c, 3, 53, 80
5, 45240, Note_on_c, 3, 53, 0
5, 45240, Note_on_c, 3, 55, 80
5, 45300, Note_on_c, 3, 55, 0
5, 45300, Note_on_c, 3, 56, 80
5, 45360, Note_on_c, 3, 56, 0
5, 45360, Note_on_c, 3, 58, 80
5, 45420, Note_on_c, 3, 58, 0
5, 45420, Note_on_c, 3, 56, 80
5, 45480, Note_on_c, 3, 56, 0
5, 45480, Note_on_c, 3, 55, 80
5, 45540, Note_on_c, 3, 55, 0
5, 45540, Note_on_c, 3, 53, 80
5, 45600, Note_on_c, 3, 53, 0
5, 45600, Note_on_c, 3, 51, 80
5, 45660, Note_on_c, 3, 51, 0
5, 45660, Note_on_c, 3, 53, 80
5, 45720, Note_on_c, 3, 53, 0
5, 45720, Note_on_c, 3, 55, 80
5, 45780, Note_on_c, 3, 55, 0
5, 45780, Note_on_c, 3, 51, 80
5, 45840, Note_on_c, 3, 51, 0
5, 45840, Note_on_c, 3, 50, 80
5, 45900, Note_on_c, 3, 50, 0
5, 45900, Note_on_c, 3, 46, 80
5, 45960, Note_on_c, 3, 46, 0
5, 45960, Note_on_c, 3, 51, 80
5, 46020, Note_on_c, 3, 51, 0
5, 46020, Note_on_c, 3, 55, 80
5, 46080, Note_on_c, 3, 55, 0
5, 46080, Note_on_c, 3, 46, 80
5, 46140, Note_on_c, 3, 46, 0
5, 46140, Note_on_c, 3, 58, 80
5, 46200, Note_on_c, 3, 58, 0
5, 46200, Note_on_c, 3, 57, 80
5, 46260, Note_on_c, 3, 57, 0
5, 46260, Note_on_c, 3, 58, 80
5, 46320, Note_on_c, 3, 58, 0
5, 46320, Note_on_c, 3, 46, 80
5, 46380, Note_on_c, 3, 46, 0
5, 46380, Note_on_c, 3, 44, 80
5, 46440, Note_on_c, 3, 44, 0
5, 46440, Note_on_c, 3, 43, 80
5, 46500, Note_on_c, 3, 43, 0
5, 46500, Note_on_c, 3, 41, 80
5, 46560, Note_on_c, 3, 41, 0
5, 46560, Note_on_c, 3, 39, 80
5, 46620, Note_on_c, 3, 39, 0
5, 46620, Note_on_c, 3, 38, 80
5, 46680, Note_on_c, 3, 38, 0
5, 46680, Note_on_c, 3, 39, 80
5, 46740, Note_on_c, 3, 39, 0
5, 46740, Note_on_c, 3, 38, 80
5, 46800, Note_on_c, 3, 38, 0
5, 46800, Note_on_c, 3, 39, 80
5, 46860, Note_on_c, 3, 39, 0
5, 46860, Note_on_c, 3, 38, 80
5, 46920, Note_on_c, 3, 38, 0
5, 46920, Note_on_c, 3, 39, 80
5, 46980, Note_on_c, 3, 39, 0
5, 46980, Note_on_c, 3, 38, 80
5, 47040, Note_on_c, 3, 38, 0
5, 47040, Note_on_c, 3, 39, 80
5, 47100, Note_on_c, 3, 39, 0
5, 47100, Note_on_c, 3, 38, 80
5, 47160, Note_on_c, 3, 38, 0
5, 47160, Note_on_c, 3, 39, 80
5, 47220, Note_on_c, 3, 39, 0
5, 47220, Note_on_c, 3, 38, 80
5, 47280, Note_on_c, 3, 38, 0
5, 47280, Note_on_c, 3, 39, 80
5, 47340, Note_on_c, 3, 39, 0
5, 47340, Note_on_c, 3, 41, 80
5, 47400, Note_on_c, 3, 41, 0
5, 47400, Note_on_c, 3, 43, 80
5, 47460, Note_on_c, 3, 43, 0
5, 47460, Note_on_c, 3, 39, 80
5, 47520, Note_on_c, 3, 39, 0
5, 47520, Note_on_c, 3, 44, 80
5, 47580, Note_on_c, 3, 44, 0
5, 47580, Note_on_c, 3, 48, 80
5, 47640, Note_on_c, 3, 48, 0
5, 47640, Note_on_c, 3, 51, 80
5, 47700, Note_on_c, 3, 51, 0
5, 47700, Note_on_c, 3, 56, 80
5, 47760, Note_on_c, 3, 56, 0
5, 47760, Note_on_c, 3, 44, 80
5, 47820, Note_on_c, 3, 44, 0
5, 47820, Note_on_c, 3, 56, 80
5, 47880, Note_on_c, 3, 56, 0
5, 47880, Note_on_c, 3, 46, 80
5, 47940, Note_on_c, 3, 46, 0
5, 47940, Note_on_c, 3, 58, 80
5, 48000, Note_on_c, 3, 58, 0
5, 48000, Note_on_c, 3, 48, 80
5, 48060, Note_on_c, 3, 48, 0
5, 48060, Note_on_c, 3, 60, 80
5, 48120, Note_on_c, 3, 60, 0
5, 48120, Note_on_c, 3, 50, 80
5, 48180, Note_on_c, 3, 50, 0
5, 48180, Note_on_c, 3, 62, 80
5, 48240, Note_on_c, 3, 62, 0
5, 48240, Note_on_c, 3, 63, 80
5, 48300, Note_on_c, 3, 63, 0
5, 48300, Note_on_c, 3, 58, 80
5, 48360, Note_on_c, 3, 58, 0
5, 48360, Note_on_c, 3, 55, 80
5, 48420, Note_on_c, 3, 55, 0
5, 48420, Note_on_c, 3, 58, 80
5, 48480, Note_on_c, 3, 58, 0
5, 48480, Note_on_c, 3, 51, 80
5, 48540, Note_on_c, 3, 51, 0
5, 48540, Note_on_c, 3, 53, 80
5, 48600, Note_on_c, 3, 53, 0
5, 48600, Note_on_c, 3, 55, 80
5, 48660, Note_on_c, 3, 55, 0
5, 48660, Note_on_c, 3, 56, 80
5, 48720, Note_on_c, 3, 56, 0
5, 48720, Note_on_c, 3, 58, 80
5, 48780, Note_on_c, 3, 58, 0
5, 48780, Note_on_c, 3, 56, 80
5, 48840, Note_on_c, 3, 56, 0
5, 48840, Note_on_c, 3, 55, 80
5, 48900, Note_on_c, 3, 55, 0
5, 48900, Note_on_c, 3, 53, 80
5, 48960, Note_on_c, 3, 53, 0
5, 48960, Note_on_c, 3, 51, 80
5, 49020, Note_on_c, 3, 51, 0
5, 49020, Note_on_c, 3, 53, 80
5, 49080, Note_on_c, 3, 53, 0
5, 49080, Note_on_c, 3, 55, 80
5, 49140, Note_on_c, 3, 55, 0
5, 49140, Note_on_c, 3, 56, 80
5, 49200, Note_on_c, 3, 56, 0
5, 49200, Note_on_c, 3, 58, 80
5, 49260, Note_on_c, 3, 58, 0
5, 49260, Note_on_c, 3, 56, 80
5, 49320, Note_on_c, 3, 56, 0
5, 49320, Note_on_c, 3, 55, 80
5, 49380, Note_on_c, 3, 55, 0
5, 49380, Note_on_c, 3, 53, 80
5, 49440, Note_on_c, 3, 53, 0
5, 49440, Note_on_c, 3, 51, 80
5, 49500, Note_on_c, 3, 51, 0
5, 49500, Note_on_c, 3, 53, 80
5, 49560, Note_on_c, 3, 53, 0
5, 49560, Note_on_c, 3, 55, 80
5, 49620, Note_on_c, 3, 55, 0
5, 49620, Note_on_c, 3, 51, 80
5, 49680, Note_on_c, 3, 51, 0
5, 49680, Note_on_c, 3, 50, 80
5, 49740, Note_on_c, 3, 50, 0
5, 49740, Note_on_c, 3, 46, 80
5, 49800, Note_on_c, 3, 46, 0
5, 49800, Note_on_c, 3, 51, 80
5, 49860, Note_on_c, 3, 51, 0
5, 49860, Note_on_c, 3, 55, 80
5, 49920, Note_on_c, 3, 55, 0
5, 49920, Note_on_c, 3, 46, 80
5, 49980, Note_on_c, 3, 46, 0
5, 49980, Note_on_c, 3, 58, 80
5, 50040, Note_on_c, 3, 58, 0
5, 50040, Note_on_c, 3, 57, 80
5, 50100, Note_on_c, 3, 57, 0
5, 50100, Note_on_c, 3, 58, 80
5, 50160, Note_on_c, 3, 58, 0
5, 50160, Note_on_c, 3, 53, 80
5, 50220, Note_on_c, 3, 53, 0
5, 50220, Note_on_c, 3, 58, 80
5, 50280, Note_on_c, 3, 58, 0
5, 50280, Note_on_c, 3, 50, 80
5, 50340, Note_on_c, 3, 50, 0
5, 50340, Note_on_c, 3, 53, 80
5, 50400, Note_on_c, 3, 53, 0
5, 50400, Note_on_c, 3, 46, 80
5, 50460, Note_on_c, 3, 46, 0
5, 50460, Note_on_c, 3, 45, 80
5, 50520, Note_on_c, 3, 45, 0
5, 50520, Note_on_c, 3, 46, 80
5, 50580, Note_on_c, 3, 46, 0
5, 50580, Note_on_c, 3, 48, 80
5, 50640, Note_on_c, 3, 48, 0
5, 50640, Note_on_c, 3, 50, 80
5, 50700, Note_on_c, 3, 50, 0
5, 50700, Note_on_c, 3, 48, 80
5, 50760, Note_on_c, 3, 48, 0
5, 50760, Note_on_c, 3, 50, 80
5, 50820, Note_on_c, 3, 50, 0
5, 50820, Note_on_c, 3, 46, 80
5, 50880, Note_on_c, 3, 46, 0
5, 50880, Note_on_c, 3, 51, 80
5, 50940, Note_on_c, 3, 51, 0
5, 50940, Note_on_c, 3, 50, 80
5, 51000, Note_on_c, 3, 50, 0
5, 51000, Note_on_c, 3, 51, 80
5, 51060, Note_on_c, 3, 51, 0
5, 51060, Note_on_c, 3, 53, 80
5, 51120, Note_on_c, 3, 53, 0
5, 51120, Note_on_c, 3, 55, 80
5, 51180, Note_on_c, 3, 55, 0
5, 51180, Note_on_c, 3, 53, 80
5, 51240, Note_on_c, 3, 53, 0
5, 51240, Note_on_c, 3, 55, 80
5, 51300, Note_on_c, 3, 55, 0
5, 51300, Note_on_c, 3, 51, 80
5, 51360, Note_on_c, 3, 51, 0
5, 51360, Note_on_c, 3, 58, 80
5, 51420, Note_on_c, 3, 58, 0
5, 51420, Note_on_c, 3, 57, 80
5, 51480, Note_on_c, 3, 57, 0
5, 51480, Note_on_c, 3, 58, 80
5, 51540, Note_on_c, 3, 58, 0
5, 51540, Note_on_c, 3, 60, 80
5, 51600, Note_on_c, 3, 60, 0
5, 51600, Note_on_c, 3, 62, 80
5, 51660, Note_on_c, 3, 62, 0
5, 51660, Note_on_c, 3, 60, 80
5, 51720, Note_on_c, 3, 60, 0
5, 51720, Note_on_c, 3, 62, 80
5, 51780, Note_on_c, 3, 62, 0
5, 51780, Note_on_c, 3, 58, 80
5, 51840, Note_on_c, 3, 58, 0
5, 51840, Note_on_c, 3, 63, 80
5, 51900, Note_on_c, 3, 63, 0
5, 51900, Note_on_c, 3, 62, 80
5, 51960, Note_on_c, 3, 62, 0
5, 51960, Note_on_c, 3, 63, 80
5, 52020, Note_on_c, 3, 63, 0
5, 52020, Note_on_c, 3, 58, 80
5, 52080, Note_on_c, 3, 58, 0
5, 52080, Note_on_c, 3, 55, 80
5, 52140, Note_on_c, 3, 55, 0
5, 52140, Note_on_c, 3, 53, 80
5, 52200, Note_on_c, 3, 53, 0
5, 52200, Note_on_c, 3, 55, 80
5, 52260, Note_on_c, 3, 55, 0
5, 52260, Note_on_c, 3, 51, 80
5, 52320, Note_on_c, 3, 51, 0
5, 52320, Note_on_c, 3, 46, 80
5, 52380, Note_on_c, 3, 46, 0
5, 52380, Note_on_c, 3, 48, 80
5, 52440, Note_on_c, 3, 48, 0
5, 52440, Note_on_c, 3, 50, 80
5, 52500, Note_on_c, 3, 50, 0
5, 52500, Note_on_c, 3, 51, 80
5, 52560, Note_on_c, 3, 51, 0
5, 52560, Note_on_c, 3, 53, 80
5, 52620, Note_on_c, 3, 53, 0
5, 52620, Note_on_c, 3, 55, 80
5, 52680, Note_on_c, 3, 55, 0
5, 52680, Note_on_c, 3, 56, 80
5, 52800, Note_on_c, 3, 56, 0
5, 52800, Note_on_c, 3, 46, 80
5, 52860, Note_on_c, 3, 46, 0
5, 52860, Note_on_c, 3, 48, 80
5, 52920, Note_on_c, 3, 48, 0
5, 52920, Note_on_c, 3, 50, 80
5, 52980, Note_on_c, 3, 50, 0
5, 52980, Note_on_c, 3, 51, 80
5, 53040, Note_on_c, 3, 51, 0
5, 53040, Note_on_c, 3, 53, 80
5, 53100, Note_on_c, 3, 53, 0
5, 53100, Note_on_c, 3, 55, 80
5, 53160, Note_on_c, 3, 55, 0
5, 53160, Note_on_c, 3, 56, 80
5, 53220, Note_on_c, 3, 56, 0
5, 53220, Note_on_c, 3, 58, 80
5, 53280, Note_on_c, 3, 58, 0
5, 53280, Note_on_c, 3, 55, 80
5, 53340, Note_on_c, 3, 55, 0
5, 53340, Note_on_c, 3, 53, 80
5, 53400, Note_on_c, 3, 53, 0
5, 53400, Note_on_c, 3, 55, 80
5, 53460, Note_on_c, 3, 55, 0
5, 53460, Note_on_c, 3, 51, 80
5, 53520, Note_on_c, 3, 51, 0
5, 53520, Note_on_c, 3, 56, 80
5, 53580, Note_on_c, 3, 56, 0
5, 53580, Note_on_c, 3, 55, 80
5, 53640, Note_on_c, 3, 55, 0
5, 53640, Note_on_c, 3, 56, 80
5, 53700, Note_on_c, 3, 56, 0
5, 53700, Note_on_c, 3, 53, 80
5, 53760, Note_on_c, 3, 53, 0
5, 53760, Note_on_c, 3, 58, 80
5, 53820, Note_on_c, 3, 58, 0
5, 53820, Note_on_c, 3, 55, 80
5, 53880, Note_on_c, 3, 55, 0
5, 53880, Note_on_c, 3, 51, 80
5, 53940, Note_on_c, 3, 51, 0
5, 53940, Note_on_c, 3, 55, 80
5, 54000, Note_on_c, 3, 55, 0
5, 54000, Note_on_c, 3, 58, 80
5, 54060, Note_on_c, 3, 58, 0
5, 54060, Note_on_c, 3, 46, 80
5, 54120, Note_on_c, 3, 46, 0
5, 54120, Note_on_c, 3, 48, 80
5, 54180, Note_on_c, 3, 48, 0
5, 54180, Note_on_c, 3, 50, 80
5, 54240, Note_on_c, 3, 50, 0
5, 54240, Note_on_c, 3, 51, 80
5, 54300, Note_on_c, 3, 51, 0
5, 54300, Note_on_c, 3, 50, 80
5, 54360, Note_on_c, 3, 50, 0
5, 54360, Note_on_c, 3, 51, 80
5, 54420, Note_on_c, 3, 51, 0
5, 54420, Note_on_c, 3, 50, 80
5, 54480, Note_on_c, 3, 50, 0
5, 54480, Note_on_c, 3, 51, 80
5, 54540, Note_on_c, 3, 51, 0
5, 54540, Note_on_c, 3, 46, 80
5, 54600, Note_on_c, 3, 46, 0
5, 54600, Note_on_c, 3, 43, 80
5, 54660, Note_on_c, 3, 43, 0
5, 54660, Note_on_c, 3, 39, 80
5, 54720, Note_on_c, 3, 39, 0
5, 54720, Note_on_c, 3, 34, 80
5, 54780, Note_on_c, 3, 34, 0
5, 54780, Note_on_c, 3, 36, 80
5, 54840, Note_on_c, 3, 36, 0
5, 54840, Note_on_c, 3, 38, 80
5, 54900, Note_on_c, 3, 38, 0
5, 54900, Note_on_c, 3, 39, 80
5, 54960, Note_on_c, 3, 39, 0
5, 54960, Note_on_c, 3, 41, 80
5, 55020, Note_on_c, 3, 41, 0
5, 55020, Note_on_c, 3, 43, 80
5, 55080, Note_on_c, 3, 43, 0
5, 55080, Note_on_c, 3, 44, 80
5, 55200, Note_on_c, 3, 44, 0
5, 55200, Note_on_c, 3, 34, 80
5, 55260, Note_on_c, 3, 34, 0
5, 55260, Note_on_c, 3, 36, 80
5, 55320, Note_on_c, 3, 36, 0
5, 55320, Note_on_c, 3, 38, 80
5, 55380, Note_on_c, 3, 38, 0
5, 55380, Note_on_c, 3, 39, 80
5, 55440, Note_on_c, 3, 39, 0
5, 55440, Note_on_c, 3, 41, 80
5, 55500, Note_on_c, 3, 41, 0
5, 55500, Note_on_c, 3, 43, 80
5, 55560, Note_on_c, 3, 43, 0
5, 55560, Note_on_c, 3, 44, 80
5, 55620, Note_on_c, 3, 44, 0
5, 55620, Note_on_c, 3, 46, 80
5, 55680, Note_on_c, 3, 46, 0
5, 55680, Note_on_c, 3, 43, 80
5, 55740, Note_on_c, 3, 43, 0
5, 55740, Note_on_c, 3, 41, 80
5, 55800, Note_on_c, 3, 41, 0
5, 55800, Note_on_c, 3, 43, 80
5, 55860, Note_on_c, 3, 43, 0
5, 55860, Note_on_c, 3, 39, 80
5, 55920, Note_on_c, 3, 39, 0
5, 55920, Note_on_c, 3, 44, 80
5, 55980, Note_on_c, 3, 44, 0
5, 55980, Note_on_c, 3, 43, 80
5, 56040, Note_on_c, 3, 43, 0
5, 56040, Note_on_c, 3, 44, 80
5, 56100, Note_on_c, 3, 44, 0
5, 56100, Note_on_c, 3, 48, 80
5, 56160, Note_on_c, 3, 48, 0
5, 56160, Note_on_c, 3, 46, 80
5, 56220, Note_on_c, 3, 46, 0
5, 56220, Note_on_c, 3, 43, 80
5, 56280, Note_on_c, 3, 43, 0
5, 56280, Note_on_c, 3, 39, 80
5, 56340, Note_on_c, 3, 39, 0
5, 56340, Note_on_c, 3, 43, 80
5, 56400, Note_on_c, 3, 43, 0
5, 56400, Note_on_c, 3, 46, 80
5, 56460, Note_on_c, 3, 46, 0
5, 56460, Note_on_c, 3, 45, 80
5, 56520, Note_on_c, 3, 45, 0
5, 56520, Note_on_c, 3, 46, 80
5, 56580, Note_on_c, 3, 46, 0
5, 56580, Note_on_c, 3, 34, 80
5, 56640, Note_on_c, 3, 34, 0
5, 56640, Note_on_c, 3, 39, 80
5, 56700, Note_on_c, 3, 39, 0
5, 56700, Note_on_c, 3, 38, 80
5, 56760, Note_on_c, 3, 38, 0
5, 56760, Note_on_c, 3, 39, 80
5, 56820, Note_on_c, 3, 39, 0
5, 56820, Note_on_c, 3, 38, 80
5, 56880, Note_on_c, 3, 38, 0
5, 56880, Note_on_c, 3, 39, 80
5, 56940, Note_on_c, 3, 39, 0
5, 56940, Note_on_c, 3, 41, 80
5, 57000, Note_on_c, 3, 41, 0
5, 57000, Note_on_c, 3, 43, 80
5, 57060, Note_on_c, 3, 43, 0
5, 57060, Note_on_c, 3, 45, 80
5, 57120, Note_on_c, 3, 45, 0
5, 57120, Note_on_c, 3, 46, 80
5, 57180, Note_on_c, 3, 46, 0
5, 57180, Note_on_c, 3, 45, 80
5, 57240, Note_on_c, 3, 45, 0
5, 57240, Note_on_c, 3, 46, 80
5, 57300, Note_on_c, 3, 46, 0
5, 57300, Note_on_c, 3, 48, 80
5, 57360, Note_on_c, 3, 48, 0
5, 57360, Note_on_c, 3, 50, 80
5, 57420, Note_on_c, 3, 50, 0
5, 57420, Note_on_c, 3, 48, 80
5, 57480, Note_on_c, 3, 48, 0
5, 57480, Note_on_c, 3, 50, 80
5, 57540, Note_on_c, 3, 50, 0
5, 57540, Note_on_c, 3, 46, 80
5, 57600, Note_on_c, 3, 46, 0
5, 57600, Note_on_c, 3, 51, 80
5, 57660, Note_on_c, 3, 51, 0
5, 57660, Note_on_c, 3, 50, 80
5, 57720, Note_on_c, 3, 50, 0
5, 57720, Note_on_c, 3, 51, 80
5, 57780, Note_on_c, 3, 51, 0
5, 57780, Note_on_c, 3, 53, 80
5, 57840, Note_on_c, 3, 53, 0
5, 57840, Note_on_c, 3, 55, 80
5, 57900, Note_on_c, 3, 55, 0
5, 57900, Note_on_c, 3, 53, 80
5, 57960, Note_on_c, 3, 53, 0
5, 57960, Note_on_c, 3, 55, 80
5, 58020, Note_on_c, 3, 55, 0
5, 58020, Note_on_c, 3, 51, 80
5, 58080, Note_on_c, 3, 51, 0
5, 58080, Note_on_c, 3, 58, 80
5, 58140, Note_on_c, 3, 58, 0
5, 58140, Note_on_c, 3, 57, 80
5, 58200, Note_on_c, 3, 57, 0
5, 58200, Note_on_c, 3, 58, 80
5, 58260, Note_on_c, 3, 58, 0
5, 58260, Note_on_c, 3, 60, 80
5, 58320, Note_on_c, 3, 60, 0
5, 58320, Note_on_c, 3, 62, 80
5, 58380, Note_on_c, 3, 62, 0
5, 58380, Note_on_c, 3, 60, 80
5, 58440, Note_on_c, 3, 60, 0
5, 58440, Note_on_c, 3, 62, 80
5, 58500, Note_on_c, 3, 62, 0
5, 58500, Note_on_c, 3, 58, 80
5, 58560, Note_on_c, 3, 58, 0
5, 58560, Note_on_c, 3, 63, 80
5, 58620, Note_on_c, 3, 63, 0
5, 58620, Note_on_c, 3, 62, 80
5, 58680, Note_on_c, 3, 62, 0
5, 58680, Note_on_c, 3, 63, 80
5, 58740, Note_on_c, 3, 63, 0
5, 58740, Note_on_c, 3, 58, 80
5, 58800, Note_on_c, 3, 58, 0
5, 58800, Note_on_c, 3, 55, 80
5, 58860, Note_on_c, 3, 55, 0
5, 58860, Note_on_c, 3, 53, 80
5, 58920, Note_on_c, 3, 53, 0
5, 58920, Note_on_c, 3, 55, 80
5, 58980, Note_on_c, 3, 55, 0
5, 58980, Note_on_c, 3, 51, 80
5, 59040, Note_on_c, 3, 51, 0
5, 59040, Note_on_c, 3, 46, 80
5, 59100, Note_on_c, 3, 46, 0
5, 59100, Note_on_c, 3, 48, 80
5, 59160, Note_on_c, 3, 48, 0
5, 59160, Note_on_c, 3, 50, 80
5, 59220, Note_on_c, 3, 50, 0
5, 59220, Note_on_c, 3, 51, 80
5, 59280, Note_on_c, 3, 51, 0
5, 59280, Note_on_c, 3, 53, 80
5, 59340, Note_on_c, 3, 53, 0
5, 59340, Note_on_c, 3, 55, 80
5, 59400, Note_on_c, 3, 55, 0
5, 59400, Note_on_c, 3, 56, 80
5, 59520, Note_on_c, 3, 56, 0
5, 59520, Note_on_c, 3, 46, 80
5, 59580, Note_on_c, 3, 46, 0
5, 59580, Note_on_c, 3, 48, 80
5, 59640, Note_on_c, 3, 48, 0
5, 59640, Note_on_c, 3, 50, 80
5, 59700, Note_on_c, 3, 50, 0
5, 59700, Note_on_c, 3, 51, 80
5, 59760, Note_on_c, 3, 51, 0
5, 59760, Note_on_c, 3, 53, 80
5, 59820, Note_on_c, 3, 53, 0
5, 59820, Note_on_c, 3, 55, 80
5, 59880, Note_on_c, 3, 55, 0
5, 59880, Note_on_c, 3, 56, 80
5, 59940, Note_on_c, 3, 56, 0
5, 59940, Note_on_c, 3, 58, 80
5, 60000, Note_on_c, 3, 58, 0
5, 60000, Note_on_c, 3, 55, 80
5, 60060, Note_on_c, 3, 55, 0
5, 60060, Note_on_c, 3, 53, 80
5, 60120, Note_on_c, 3, 53, 0
5, 60120, Note_on_c, 3, 55, 80
5, 60180, Note_on_c, 3, 55, 0
5, 60180, Note_on_c, 3, 51, 80
5, 60240, Note_on_c, 3, 51, 0
5, 60240, Note_on_c, 3, 56, 80
5, 60300, Note_on_c, 3, 56, 0
5, 60300, Note_on_c, 3, 55, 80
5, 60360, Note_on_c, 3, 55, 0
5, 60360, Note_on_c, 3, 56, 80
5, 60420, Note_on_c, 3, 56, 0
5, 60420, Note_on_c, 3, 53, 80
5, 60480, Note_on_c, 3, 53, 0
5, 60480, Note_on_c, 3, 58, 80
5, 60540, Note_on_c, 3, 58, 0
5, 60540, Note_on_c, 3, 55, 80
5, 60600, Note_on_c, 3, 55, 0
5, 60600, Note_on_c, 3, 51, 80
5, 60660, Note_on_c, 3, 51, 0
5, 60660, Note_on_c, 3, 55, 80
5, 60720, Note_on_c, 3, 55, 0
5, 60720, Note_on_c, 3, 58, 80
5, 60780, Note_on_c, 3, 58, 0
5, 60780, Note_on_c, 3, 46, 80
5, 60840, Note_on_c, 3, 46, 0
5, 60840, Note_on_c, 3, 48, 80
5, 60900, Note_on_c, 3, 48, 0
5, 60900, Note_on_c, 3, 50, 80
5, 60960, Note_on_c, 3, 50, 0
5, 60960, Note_on_c, 3, 51, 80
5, 61020, Note_on_c, 3, 51, 0
5, 61020, Note_on_c, 3, 50, 80
5, 61080, Note_on_c, 3, 50, 0
5, 61080, Note_on_c, 3, 51, 80
5, 61140, Note_on_c, 3, 51, 0
5, 61140, Note_on_c, 3, 50, 80
5, 61200, Note_on_c, 3, 50, 0
5, 61200, Note_on_c, 3, 51, 80
5, 61260, Note_on_c, 3, 51, 0
5, 61260, Note_on_c, 3, 46, 80
5, 61320, Note_on_c, 3, 46, 0
5, 61320, Note_on_c, 3, 43, 80
5, 61380, Note_on_c, 3, 43, 0
5, 61380, Note_on_c, 3, 39, 80
5, 61440, Note_on_c, 3, 39, 0
5, 61440, Note_on_c, 3, 34, 80
5, 61500, Note_on_c, 3, 34, 0
5, 61500, Note_on_c, 3, 36, 80
5, 61560, Note_on_c, 3, 36, 0
5, 61560, Note_on_c, 3, 38, 80
5, 61620, Note_on_c, 3, 38, 0
5, 61620, Note_on_c, 3, 39, 80
5, 61680, Note_on_c, 3, 39, 0
5, 61680, Note_on_c, 3, 41, 80
5, 61740, Note_on_c, 3, 41, 0
5, 61740, Note_on_c, 3, 43, 80
5, 61800, Note_on_c, 3, 43, 0
5, 61800, Note_on_c, 3, 44, 80
5, 61920, Note_on_c, 3, 44, 0
5, 61920, Note_on_c, 3, 34, 80
5, 61980, Note_on_c, 3, 34, 0
5, 61980, Note_on_c, 3, 36, 80
5, 62040, Note_on_c, 3, 36, 0
5, 62040, Note_on_c, 3, 38, 80
5, 62100, Note_on_c, 3, 38, 0
5, 62100, Note_on_c, 3, 39, 80
5, 62160, Note_on_c, 3, 39, 0
5, 62160, Note_on_c, 3, 41, 80
5, 62220, Note_on_c, 3, 41, 0
5, 62220, Note_on_c, 3, 43, 80
5, 62280, Note_on_c, 3, 43, 0
5, 62280, Note_on_c, 3, 44, 80
5, 62340, Note_on_c, 3, 44, 0
5, 62340, Note_on_c, 3, 46, 80
5, 62400, Note_on_c, 3, 46, 0
5, 62400, Note_on_c, 3, 43, 80
5, 62460, Note_on_c, 3, 43, 0
5, 62460, Note_on_c, 3, 41, 80
5, 62520, Note_on_c, 3, 41, 0
5, 62520, Note_on_c, 3, 43, 80
5, 62580, Note_on_c, 3, 43, 0
5, 62580, Note_on_c, 3, 39, 80
5, 62640, Note_on_c, 3, 39, 0
5, 62640, Note_on_c, 3, 44, 80
5, 62700, Note_on_c, 3, 44, 0
5, 62700, Note_on_c, 3, 43, 80
5, 62760, Note_on_c, 3, 43, 0
5, 62760, Note_on_c, 3, 44, 80
5, 62820, Note_on_c, 3, 44, 0
5, 62820, Note_on_c, 3, 48, 80
5, 62880, Note_on_c, 3, 48, 0
5, 62880, Note_on_c, 3, 46, 80
5, 62940, Note_on_c, 3, 46, 0
5, 62940, Note_on_c, 3, 43, 80
5, 63000, Note_on_c, 3, 43, 0
5, 63000, Note_on_c, 3, 39, 80
5, 63060, Note_on_c, 3, 39, 0
5, 63060, Note_on_c, 3, 43, 80
5, 63120, Note_on_c, 3, 43, 0
5, 63120, Note_on_c, 3, 46, 80
5, 63180, Note_on_c, 3, 46, 0
5, 63180, Note_on_c, 3, 45, 80
5, 63240, Note_on_c, 3, 45, 0
5, 63240, Note_on_c, 3, 46, 80
5, 63300, Note_on_c, 3, 46, 0
5, 63300, Note_on_c, 3, 34, 80
5, 63360, Note_on_c, 3, 34, 0
5, 63360, Note_on_c, 3, 39, 80
5, 63420, Note_on_c, 3, 39, 0
5, 63420, Note_on_c, 3, 43, 80
5, 63480, Note_on_c, 3, 43, 0
5, 63480, Note_on_c, 3, 46, 80
5, 63540, Note_on_c, 3, 46, 0
5, 63540, Note_on_c, 3, 51, 80
5, 63600, Note_on_c, 3, 51, 0
5, 63600, Note_on_c, 3, 39, 80
5, 63720, Note_on_c, 3, 39, 0
5, 71520, Note_on_c, 3, 58, 80
5, 71904, Note_on_c, 3, 58, 0
5, 72000, Note_on_c, 3, 51, 80
5, 72384, Note_on_c, 3, 51, 0
5, 72480, Note_on_c, 3, 46, 80
5, 72864, Note_on_c, 3, 46, 0
5, 72960, Note_on_c, 3, 39, 80
5, 73344, Note_on_c, 3, 39, 0
5, 73440, Note_on_c, 3, 58, 80
5, 73584, Note_on_c, 3, 58, 0
5, 73620, Note_on_c, 3, 59, 80
5, 73668, Note_on_c, 3, 59, 0
5, 73680, Note_on_c, 3, 58, 80
5, 73824, Note_on_c, 3, 58, 0
5, 73860, Note_on_c, 3, 59, 80
5, 73908, Note_on_c, 3, 59, 0
5, 73920, Note_on_c, 3, 58, 80
5, 74064, Note_on_c, 3, 58, 0
5, 74100, Note_on_c, 3, 59, 80
5, 74148, Note_on_c, 3, 59, 0
5, 74160, Note_on_c, 3, 58, 80
5, 74304, Note_on_c, 3, 58, 0
5, 74340, Note_on_c, 3, 56, 80
5, 74388, Note_on_c, 3, 56, 0
5, 74400, Note_on_c, 3, 55, 80
5, 74496, Note_on_c, 3, 55, 0
5, 74640, Note_on_c, 3, 56, 80
5, 74736, Note_on_c, 3, 56, 0
5, 74880, Note_on_c, 3, 46, 80
5, 75264, Note_on_c, 3, 46, 0
5, 75360, Note_on_c, 3, 51, 80
5, 75456, Note_on_c, 3, 51, 0
5, 75840, Note_on_c, 3, 58, 80
5, 75984, Note_on_c, 3, 58, 0
5, 76020, Note_on_c, 3, 59, 80
5, 76068, Note_on_c, 3, 59, 0
5, 76080, Note_on_c, 3, 58, 80
5, 76224, Note_on_c, 3, 58, 0
5, 76260, Note_on_c, 3, 59, 80
5, 76308, Note_on_c, 3, 59, 0
5, 76320, Note_on_c, 3, 58, 80
5, 76464, Note_on_c, 3, 58, 0
5, 76500, Note_on_c, 3, 59, 80
5, 76548, Note_on_c, 3, 59, 0
5, 76560, Note_on_c, 3, 58, 80
5, 76704, Note_on_c, 3, 58, 0
5, 76740, Note_on_c, 3, 56, 80
5, 76788, Note_on_c, 3, 56, 0
5, 76800, Note_on_c, 3, 55, 80
5, 76896, Note_on_c, 3, 55, 0
5, 77040, Note_on_c, 3, 56, 80
5, 77136, Note_on_c, 3, 56, 0
5, 77280, Note_on_c, 3, 46, 80
5, 77664, Note_on_c, 3, 46, 0
5, 77760, Note_on_c, 3, 51, 80
5, 77856, Note_on_c, 3, 51, 0
5, 77880, Note_on_c, 3, 46, 80
5, 77976, Note_on_c, 3, 46, 0
5, 78000, Note_on_c, 3, 39, 80
5, 78096, Note_on_c, 3, 39, 0
5, 78240, Note_on_c, 3, 58, 80
5, 78624, Note_on_c, 3, 58, 0
5, 78720, Note_on_c, 3, 51, 80
5, 79104, Note_on_c, 3, 51, 0
5, 79200, Note_on_c, 3, 46, 80
5, 79584, Note_on_c, 3, 46, 0
5, 79680, Note_on_c, 3, 39, 80
5, 80064, Note_on_c, 3, 39, 0
5, 80160, Note_on_c, 3, 58, 80
5, 80304, Note_on_c, 3, 58, 0
5, 80340, Note_on_c, 3, 59, 80
5, 80388, Note_on_c, 3, 59, 0
5, 80400, Note_on_c, 3, 58, 80
5, 80544, Note_on_c, 3, 58, 0
5, 80580, Note_on_c, 3, 59, 80
5, 80628, Note_on_c, 3, 59, 0
5, 80640, Note_on_c, 3, 58, 80
5, 80784, Note_on_c, 3, 58, 0
5, 80820, Note_on_c, 3, 59, 80
5, 80868, Note_on_c, 3, 59, 0
5, 80880, Note_on_c, 3, 58, 80
5, 81024, Note_on_c, 3, 58, 0
5, 81060, Note_on_c, 3, 56, 80
5, 81108, Note_on_c, 3, 56, 0
5, 81120, Note_on_c, 3, 55, 80
5, 81216, Note_on_c, 3, 55, 0
5, 81360, Note_on_c, 3, 56, 80
5, 81456, Note_on_c, 3, 56, 0
5, 81600, Note_on_c, 3, 46, 80
5, 81984, Note_on_c, 3, 46, 0
5, 82080, Note_on_c, 3, 51, 80
5, 82176, Note_on_c, 3, 51, 0
5, 82560, Note_on_c, 3, 58, 80
5, 82704, Note_on_c, 3, 58, 0
5, 82740, Note_on_c, 3, 59, 80
5, 82788, Note_on_c, 3, 59, 0
5, 82800, Note_on_c, 3, 58, 80
5, 82944, Note_on_c, 3, 58, 0
5, 82980, Note_on_c, 3, 59, 80
5, 83028, Note_on_c, 3, 59, 0
5, 83040, Note_on_c, 3, 58, 80
5, 83184, Note_on_c, 3, 58, 0
5, 83220, Note_on_c, 3, 59, 80
5, 83268, Note_on_c, 3, 59, 0
5, 83280, Note_on_c, 3, 58, 80
5, 83424, Note_on_c, 3, 58, 0
5, 83460, Note_on_c, 3, 56, 80
5, 83508, Note_on_c, 3, 56, 0
5, 83520, Note_on_c, 3, 55, 80
5, 83616, Note_on_c, 3, 55, 0
5, 83760, Note_on_c, 3, 56, 80
5, 83856, Note_on_c, 3, 56, 0
5, 84000, Note_on_c, 3, 46, 80
5, 84384, Note_on_c, 3, 46, 0
5, 84480, Note_on_c, 3, 51, 80
5, 84576, Note_on_c, 3, 51, 0
5, 84600, Note_on_c, 3, 46, 80
5, 84696, Note_on_c, 3, 46, 0
5, 84720, Note_on_c, 3, 39, 80
5, 84816, Note_on_c, 3, 39, 0
5, 84960, Note_on_c, 3, 39, 64
5, 85056, Note_on_c, 3, 39, 0
5, 85080, Note_on_c, 3, 51, 64
5, 85176, Note_on_c, 3, 51, 0
5, 85200, Note_on_c, 3, 58, 64
5, 85296, Note_on_c, 3, 58, 0
5, 85320, Note_on_c, 3, 55, 64
5, 85416, Note_on_c, 3, 55, 0
5, 85440, Note_on_c, 3, 51, 64
5, 85536, Note_on_c, 3, 51, 0
5, 85560, Note_on_c, 3, 46, 64
5, 85656, Note_on_c, 3, 46, 0
5, 85680, Note_on_c, 3, 43, 64
5, 85776, Note_on_c, 3, 43, 0
5, 85800, Note_on_c, 3, 39, 64
5, 85896, Note_on_c, 3, 39, 0
5, 85920, Note_on_c, 3, 46, 64
5, 86016, Note_on_c, 3, 46, 0
5, 88560, Note_on_c, 3, 46, 64
5, 88656, Note_on_c, 3, 46, 0
5, 88680, Note_on_c, 3, 46, 64
5, 88776, Note_on_c, 3, 46, 0
5, 88800, Note_on_c, 3, 39, 64
5, 88896, Note_on_c, 3, 39, 0
5, 88920, Note_on_c, 3, 51, 64
5, 89016, Note_on_c, 3, 51, 0
5, 89040, Note_on_c, 3, 58, 64
5, 89136, Note_on_c, 3, 58, 0
5, 89160, Note_on_c, 3, 55, 64
5, 89256, Note_on_c, 3, 55, 0
5, 89280, Note_on_c, 3, 51, 64
5, 89376, Note_on_c, 3, 51, 0
5, 89400, Note_on_c, 3, 46, 64
5, 89496, Note_on_c, 3, 46, 0
5, 89520, Note_on_c, 3, 43, 64
5, 89616, Note_on_c, 3, 43, 0
5, 89640, Note_on_c, 3, 39, 64
5, 89736, Note_on_c, 3, 39, 0
5, 89760, Note_on_c, 3, 46, 64
5, 89856, Note_on_c, 3, 46, 0
5, 92400, Note_on_c, 3, 46, 64
5, 92496, Note_on_c, 3, 46, 0
5, 92520, Note_on_c, 3, 46, 64
5, 92616, Note_on_c, 3, 46, 0
5, 92640, Note_on_c, 3, 46, 64
5, 92736, Note_on_c, 3, 46, 0
5, 93240, Note_on_c, 3, 51, 64
5, 93336, Note_on_c, 3, 51, 0
5, 93360, Note_on_c, 3, 47, 64
5, 93456, Note_on_c, 3, 47, 0
5, 93480, Note_on_c, 3, 45, 64
5, 93576, Note_on_c, 3, 45, 0
5, 93600, Note_on_c, 3, 46, 64
5, 93696, Note_on_c, 3, 46, 0
5, 94200, Note_on_c, 3, 39, 64
5, 94296, Note_on_c, 3, 39, 0
5, 94320, Note_on_c, 3, 35, 64
5, 94416, Note_on_c, 3, 35, 0
5, 94440, Note_on_c, 3, 33, 64
5, 94536, Note_on_c, 3, 33, 0
5, 94560, Note_on_c, 3, 34, 64
5, 94656, Note_on_c, 3, 34, 0
5, 95040, Note_on_c, 3, 44, 64
5, 95136, Note_on_c, 3, 44, 0
5, 96120, Note_on_c, 3, 58, 64
5, 96216, Note_on_c, 3, 58, 0
5, 96240, Note_on_c, 3, 58, 64
5, 96336, Note_on_c, 3, 58, 0
5, 96360, Note_on_c, 3, 58, 64
5, 96456, Note_on_c, 3, 58, 0
5, 96600, Note_on_c, 3, 46, 64
5, 96696, Note_on_c, 3, 46, 0
5, 96720, Note_on_c, 3, 43, 64
5, 96816, Note_on_c, 3, 43, 0
5, 96840, Note_on_c, 3, 39, 64
5, 96936, Note_on_c, 3, 39, 0
5, 96960, Note_on_c, 3, 46, 64
5, 97056, Note_on_c, 3, 46, 0
5, 97440, Note_on_c, 3, 44, 64
5, 97536, Note_on_c, 3, 44, 0
5, 98520, Note_on_c, 3, 58, 64
5, 98616, Note_on_c, 3, 58, 0
5, 98640, Note_on_c, 3, 58, 64
5, 98736, Note_on_c, 3, 58, 0
5, 98760, Note_on_c, 3, 58, 64
5, 98856, Note_on_c, 3, 58, 0
5, 98880, Note_on_c, 3, 63, 64
5, 98976, Note_on_c, 3, 63, 0
5, 99000, Note_on_c, 3, 58, 64
5, 99096, Note_on_c, 3, 58, 0
5, 99120, Note_on_c, 3, 51, 64
5, 99216, Note_on_c, 3, 51, 0
5, 99360, Note_on_c, 3, 46, 64
5, 99456, Note_on_c, 3, 46, 0
5, 99960, Note_on_c, 3, 51, 64
5, 100056, Note_on_c, 3, 51, 0
5, 100080, Note_on_c, 3, 47, 64
5, 100176, Note_on_c, 3, 47, 0
5, 100200, Note_on_c, 3, 45, 64
5, 100296, Note_on_c, 3, 45, 0
5, 100320, Note_on_c, 3, 46, 64
5, 100416, Note_on_c, 3, 46, 0
5, 100920, Note_on_c, 3, 39, 64
5, 101016, Note_on_c, 3, 39, 0
5, 101040, Note_on_c, 3, 35, 64
5, 101136, Note_on_c, 3, 35, 0
5, 101160, Note_on_c, 3, 33, 64
5, 101256, Note_on_c, 3, 33, 0
5, 101280, Note_on_c, 3, 34, 64
5, 101376, Note_on_c, 3, 34, 0
5, 101760, Note_on_c, 3, 44, 64
5, 101856, Note_on_c, 3, 44, 0
5, 102840, Note_on_c, 3, 58, 64
5, 102936, Note_on_c, 3, 58, 0
5, 102960, Note_on_c, 3, 58, 64
5, 103056, Note_on_c, 3, 58, 0
5, 103080, Note_on_c, 3, 58, 64
5, 103176, Note_on_c, 3, 58, 0
5, 103320, Note_on_c, 3, 46, 64
5, 103416, Note_on_c, 3, 46, 0
5, 103440, Note_on_c, 3, 43, 64
5, 103536, Note_on_c, 3, 43, 0
5, 103560, Note_on_c, 3, 39, 64
5, 103656, Note_on_c, 3, 39, 0
5, 103680, Note_on_c, 3, 46, 64
5, 103776, Note_on_c, 3, 46, 0
5, 104160, Note_on_c, 3, 44, 64
5, 104256, Note_on_c, 3, 44, 0
5, 105240, Note_on_c, 3, 58, 64
5, 105336, Note_on_c, 3, 58, 0
5, 105360, Note_on_c, 3, 58, 64
5, 105456, Note_on_c, 3, 58, 0
5, 105480, Note_on_c, 3, 58, 64
5, 105576, Note_on_c, 3, 58, 0
5, 105600, Note_on_c, 3, 63, 64
5, 105696, Note_on_c, 3, 63, 0
5, 105720, Note_on_c, 3, 58, 64
5, 105816, Note_on_c, 3, 58, 0
5, 105840, Note_on_c, 3, 51, 64
5, 105936, Note_on_c, 3, 51, 0
5, 106080, Note_on_c, 3, 39, 80
5, 106464, Note_on_c, 3, 39, 0
5, 106560, Note_on_c, 3, 39, 80
5, 106848, Note_on_c, 3, 39, 0
5, 106920, Note_on_c, 3, 55, 80
5, 107016, Note_on_c, 3, 55, 0
5, 107040, Note_on_c, 3, 56, 80
5, 107232, Note_on_c, 3, 56, 0
5, 107280, Note_on_c, 3, 58, 80
5, 107472, Note_on_c, 3, 58, 0
5, 107520, Note_on_c, 3, 60, 80
5, 107616, Note_on_c, 3, 60, 0
5, 107640, Note_on_c, 3, 62, 80
5, 107736, Note_on_c, 3, 62, 0
5, 107760, Note_on_c, 3, 63, 80
5, 107856, Note_on_c, 3, 63, 0
5, 108120, Note_on_c, 3, 55, 80
5, 108216, Note_on_c, 3, 55, 0
5, 108240, Note_on_c, 3, 56, 80
5, 108336, Note_on_c, 3, 56, 0
5, 108600, Note_on_c, 3, 55, 80
5, 108696, Note_on_c, 3, 55, 0
5, 108720, Note_on_c, 3, 56, 80
5, 108816, Note_on_c, 3, 56, 0
5, 109080, Note_on_c, 3, 55, 80
5, 109176, Note_on_c, 3, 55, 0
5, 109200, Note_on_c, 3, 50, 80
5, 109296, Note_on_c, 3, 50, 0
5, 109320, Note_on_c, 3, 51, 80
5, 109416, Note_on_c, 3, 51, 0
5, 109440, Note_on_c, 3, 46, 80
5, 109776, Note_on_c, 3, 46, 0
5, 109920, Note_on_c, 3, 39, 80
5, 110304, Note_on_c, 3, 39, 0
5, 110400, Note_on_c, 3, 39, 80
5, 110688, Note_on_c, 3, 39, 0
5, 110760, Note_on_c, 3, 55, 80
5, 110856, Note_on_c, 3, 55, 0
5, 110880, Note_on_c, 3, 56, 80
5, 111072, Note_on_c, 3, 56, 0
5, 111120, Note_on_c, 3, 58, 80
5, 111312, Note_on_c, 3, 58, 0
5, 111360, Note_on_c, 3, 60, 80
5, 111456, Note_on_c, 3, 60, 0
5, 111480, Note_on_c, 3, 62, 80
5, 111576, Note_on_c, 3, 62, 0
5, 111600, Note_on_c, 3, 63, 80
5, 111696, Note_on_c, 3, 63, 0
5, 111960, Note_on_c, 3, 55, 80
5, 112056, Note_on_c, 3, 55, 0
5, 112080, Note_on_c, 3, 56, 80
5, 112176, Note_on_c, 3, 56, 0
5, 112440, Note_on_c, 3, 55, 80
5, 112536, Note_on_c, 3, 55, 0
5, 112560, Note_on_c, 3, 56, 80
5, 112656, Note_on_c, 3, 56, 0
5, 112920, Note_on_c, 3, 55, 80
5, 113016, Note_on_c, 3, 55, 0
5, 113040, Note_on_c, 3, 50, 80
5, 113136, Note_on_c, 3, 50, 0
5, 113160, Note_on_c, 3, 51, 80
5, 113256, Note_on_c, 3, 51, 0
5, 113280, Note_on_c, 3, 46, 80
5, 113616, Note_on_c, 3, 46, 0
5, 114720, Note_on_c, 3, 46, 80
5, 115104, Note_on_c, 3, 46, 0
5, 115200, Note_on_c, 3, 46, 80
5, 115584, Note_on_c, 3, 46, 0
5, 115680, Note_on_c, 3, 46, 80
5, 116064, Note_on_c, 3, 46, 0
5, 116160, Note_on_c, 3, 44, 80
5, 116544, Note_on_c, 3, 44, 0
5, 116760, Note_on_c, 3, 43, 80
5, 116856, Note_on_c, 3, 43, 0
5, 117000, Note_on_c, 3, 44, 80
5, 117096, Note_on_c, 3, 44, 0
5, 117240, Note_on_c, 3, 46, 80
5, 117336, Note_on_c, 3, 46, 0
5, 117480, Note_on_c, 3, 47, 80
5, 117576, Note_on_c, 3, 47, 0
5, 117600, Note_on_c, 3, 48, 80
5, 117984, Note_on_c, 3, 48, 0
5, 118080, Note_on_c, 3, 47, 80
5, 118176, Note_on_c, 3, 47, 0
5, 118200, Note_on_c, 3, 46, 80
5, 118488, Note_on_c, 3, 46, 0
5, 118560, Note_on_c, 3, 45, 80
5, 118656, Note_on_c, 3, 45, 0
5, 118680, Note_on_c, 3, 44, 80
5, 118968, Note_on_c, 3, 44, 0
5, 119040, Note_on_c, 3, 43, 80
5, 119232, Note_on_c, 3, 43, 0
5, 119280, Note_on_c, 3, 44, 80
5, 119376, Note_on_c, 3, 44, 0
5, 119400, Note_on_c, 3, 45, 80
5, 119496, Note_on_c, 3, 45, 0
5, 120000, Note_on_c, 3, 51, 80
5, 120096, Note_on_c, 3, 51, 0
5, 120120, Note_on_c, 3, 46, 80
5, 120216, Note_on_c, 3, 46, 0
5, 120240, Note_on_c, 3, 39, 80
5, 120336, Note_on_c, 3, 39, 0
5, 121440, Note_on_c, 3, 46, 80
5, 121824, Note_on_c, 3, 46, 0
5, 121920, Note_on_c, 3, 46, 80
5, 122304, Note_on_c, 3, 46, 0
5, 122400, Note_on_c, 3, 46, 80
5, 122784, Note_on_c, 3, 46, 0
5, 122880, Note_on_c, 3, 44, 80
5, 123264, Note_on_c, 3, 44, 0
5, 123480, Note_on_c, 3, 43, 80
5, 123576, Note_on_c, 3, 43, 0
5, 123720, Note_on_c, 3, 44, 80
5, 123816, Note_on_c, 3, 44, 0
5, 123960, Note_on_c, 3, 46, 80
5, 124056, Note_on_c, 3, 46, 0
5, 124200, Note_on_c, 3, 47, 80
5, 124296, Note_on_c, 3, 47, 0
5, 124320, Note_on_c, 3, 48, 80
5, 124704, Note_on_c, 3, 48, 0
5, 124800, Note_on_c, 3, 47, 80
5, 124896, Note_on_c, 3, 47, 0
5, 124920, Note_on_c, 3, 46, 80
5, 125208, Note_on_c, 3, 46, 0
5, 125280, Note_on_c, 3, 45, 80
5, 125376, Note_on_c, 3, 45, 0
5, 125400, Note_on_c, 3, 44, 80
5, 125688, Note_on_c, 3, 44, 0
5, 125760, Note_on_c, 3, 43, 80
5, 125952, Note_on_c, 3, 43, 0
5, 126000, Note_on_c, 3, 44, 80
5, 126096, Note_on_c, 3, 44, 0
5, 126120, Note_on_c, 3, 45, 80
5, 126216, Note_on_c, 3, 45, 0
5, 126720, Note_on_c, 3, 51, 80
5, 126816, Note_on_c, 3, 51, 0
5, 126840, Note_on_c, 3, 46, 80
5, 126936, Note_on_c, 3, 46, 0
5, 126960, Note_on_c, 3, 39, 80
5, 127056, Note_on_c, 3, 39, 0
5, 127200, Note_on_c, 3, 39, 80
5, 127260, Note_on_c, 3, 39, 0
5, 127260, Note_on_c, 3, 51, 80
5, 127320, Note_on_c, 3, 51, 0
5, 127320, Note_on_c, 3, 38, 80
5, 127380, Note_on_c, 3, 38, 0
5, 127380, Note_on_c, 3, 50, 80
5, 127440, Note_on_c, 3, 50, 0
5, 127440, Note_on_c, 3, 39, 80
5, 127500, Note_on_c, 3, 39, 0
5, 127500, Note_on_c, 3, 51, 80
5, 127560, Note_on_c, 3, 51, 0
5, 127560, Note_on_c, 3, 38, 80
5, 127620, Note_on_c, 3, 38, 0
5, 127620, Note_on_c, 3, 50, 80
5, 127680, Note_on_c, 3, 50, 0
5, 127680, Note_on_c, 3, 39, 80
5, 127740, Note_on_c, 3, 39, 0
5, 127740, Note_on_c, 3, 51, 80
5, 127800, Note_on_c, 3, 51, 0
5, 127800, Note_on_c, 3, 38, 80
5, 127860, Note_on_c, 3, 38, 0
5, 127860, Note_on_c, 3, 50, 80
5, 127920, Note_on_c, 3, 50, 0
5, 127920, Note_on_c, 3, 36, 80
5, 127980, Note_on_c, 3, 36, 0
5, 127980, Note_on_c, 3, 48, 80
5, 128040, Note_on_c, 3, 48, 0
5, 128040, Note_on_c, 3, 34, 80
5, 128100, Note_on_c, 3, 34, 0
5, 128100, Note_on_c, 3, 46, 80
5, 128160, Note_on_c, 3, 46, 0
5, 128160, Note_on_c, 3, 32, 80
5, 128220, Note_on_c, 3, 32, 0
5, 128220, Note_on_c, 3, 44, 80
5, 128280, Note_on_c, 3, 44, 0
5, 128280, Note_on_c, 3, 33, 80
5, 128340, Note_on_c, 3, 33, 0
5, 128340, Note_on_c, 3, 45, 80
5, 128400, Note_on_c, 3, 45, 0
5, 128400, Note_on_c, 3, 34, 80
5, 128460, Note_on_c, 3, 34, 0
5, 128460, Note_on_c, 3, 46, 80
5, 128520, Note_on_c, 3, 46, 0
5, 128520, Note_on_c, 3, 35, 80
5, 128580, Note_on_c, 3, 35, 0
5, 128580, Note_on_c, 3, 47, 80
5, 128640, Note_on_c, 3, 47, 0
5, 128640, Note_on_c, 3, 36, 80
5, 128700, Note_on_c, 3, 36, 0
5, 128700, Note_on_c, 3, 48, 80
5, 128760, Note_on_c, 3, 48, 0
5, 128760, Note_on_c, 3, 38, 80
5, 128820, Note_on_c, 3, 38, 0
5, 128820, Note_on_c, 3, 50, 80
5, 128880, Note_on_c, 3, 50, 0
5, 128880, Note_on_c, 3, 39, 80
5, 128940, Note_on_c, 3, 39, 0
5, 128940, Note_on_c, 3, 51, 80
5, 129000, Note_on_c, 3, 51, 0
5, 129000, Note_on_c, 3, 46, 80
5, 129060, Note_on_c, 3, 46, 0
5, 129060, Note_on_c, 3, 58, 80
5, 129120, Note_on_c, 3, 58, 0
5, 129120, Note_on_c, 3, 39, 80
5, 129180, Note_on_c, 3, 39, 0
5, 129180, Note_on_c, 3, 51, 80
5, 129240, Note_on_c, 3, 51, 0
5, 129240, Note_on_c, 3, 51, 80
5, 129300, Note_on_c, 3, 51, 0
5, 129300, Note_on_c, 3, 63, 80
5, 129360, Note_on_c, 3, 63, 0
5, 129360, Note_on_c, 3, 50, 80
5, 129420, Note_on_c, 3, 50, 0
5, 129420, Note_on_c, 3, 62, 80
5, 129480, Note_on_c, 3, 62, 0
5, 129480, Note_on_c, 3, 44, 80
5, 129540, Note_on_c, 3, 44, 0
5, 129540, Note_on_c, 3, 56, 80
5, 129600, Note_on_c, 3, 56, 0
5, 129600, Note_on_c, 3, 43, 80
5, 129660, Note_on_c, 3, 43, 0
5, 129660, Note_on_c, 3, 55, 80
5, 129720, Note_on_c, 3, 55, 0
5, 129720, Note_on_c, 3, 51, 80
5, 129780, Note_on_c, 3, 51, 0
5, 129780, Note_on_c, 3, 63, 80
5, 129840, Note_on_c, 3, 63, 0
5, 129840, Note_on_c, 3, 50, 80
5, 129900, Note_on_c, 3, 50, 0
5, 129900, Note_on_c, 3, 62, 80
5, 129960, Note_on_c, 3, 62, 0
5, 129960, Note_on_c, 3, 44, 80
5, 130020, Note_on_c, 3, 44, 0
5, 130020, Note_on_c, 3, 56, 80
5, 130080, Note_on_c, 3, 56, 0
5, 130080, Note_on_c, 3, 43, 80
5, 130140, Note_on_c, 3, 43, 0
5, 130140, Note_on_c, 3, 55, 80
5, 130200, Note_on_c, 3, 55, 0
5, 130200, Note_on_c, 3, 39, 80
5, 130260, Note_on_c, 3, 39, 0
5, 130260, Note_on_c, 3, 51, 80
5, 130320, Note_on_c, 3, 51, 0
5, 130320, Note_on_c, 3, 44, 80
5, 130380, Note_on_c, 3, 44, 0
5, 130380, Note_on_c, 3, 56, 80
5, 130440, Note_on_c, 3, 56, 0
5, 130440, Note_on_c, 3, 45, 80
5, 130500, Note_on_c, 3, 45, 0
5, 130500, Note_on_c, 3, 57, 80
5, 130560, Note_on_c, 3, 57, 0
5, 130560, Note_on_c, 3, 46, 80
5, 130620, Note_on_c, 3, 46, 0
5, 130620, Note_on_c, 3, 58, 80
5, 130680, Note_on_c, 3, 58, 0
5, 130680, Note_on_c, 3, 45, 80
5, 130740, Note_on_c, 3, 45, 0
5, 130740, Note_on_c, 3, 57, 80
5, 130800, Note_on_c, 3, 57, 0
5, 130800, Note_on_c, 3, 46, 80
5, 130860, Note_on_c, 3, 46, 0
5, 130860, Note_on_c, 3, 50, 80
5, 130920, Note_on_c, 3, 50, 0
5, 130920, Note_on_c, 3, 53, 80
5, 130980, Note_on_c, 3, 53, 0
5, 130980, Note_on_c, 3, 58, 80
5, 131040, Note_on_c, 3, 58, 0
5, 131040, Note_on_c, 3, 39, 80
5, 131100, Note_on_c, 3, 39, 0
5, 131100, Note_on_c, 3, 51, 80
5, 131160, Note_on_c, 3, 51, 0
5, 131160, Note_on_c, 3, 38, 80
5, 131220, Note_on_c, 3, 38, 0
5, 131220, Note_on_c, 3, 50, 80
5, 131280, Note_on_c, 3, 50, 0
5, 131280, Note_on_c, 3, 39, 80
5, 131340, Note_on_c, 3, 39, 0
5, 131340, Note_on_c, 3, 51, 80
5, 131400, Note_on_c, 3, 51, 0
5, 131400, Note_on_c, 3, 38, 80
5, 131460, Note_on_c, 3, 38, 0
5, 131460, Note_on_c, 3, 50, 80
5, 131520, Note_on_c, 3, 50, 0
5, 131520, Note_on_c, 3, 39, 80
5, 131580, Note_on_c, 3, 39, 0
5, 131580, Note_on_c, 3, 51, 80
5, 131640, Note_on_c, 3, 51, 0
5, 131640, Note_on_c, 3, 38, 80
5, 131700, Note_on_c, 3, 38, 0
5, 131700, Note_on_c, 3, 50, 80
5, 131760, Note_on_c, 3, 50, 0
5, 131760, Note_on_c, 3, 36, 80
5, 131820, Note_on_c, 3, 36, 0
5, 131820, Note_on_c, 3, 48, 80
5, 131880, Note_on_c, 3, 48, 0
5, 131880, Note_on_c, 3, 34, 80
5, 131940, Note_on_c, 3, 34, 0
5, 131940, Note_on_c, 3, 46, 80
5, 132000, Note_on_c, 3, 46, 0
5, 132000, Note_on_c, 3, 32, 80
5, 132060, Note_on_c, 3, 32, 0
5, 132060, Note_on_c, 3, 44, 80
5, 132120, Note_on_c, 3, 44, 0
5, 132120, Note_on_c, 3, 33, 80
5, 132180, Note_on_c, 3, 33, 0
5, 132180, Note_on_c, 3, 45, 80
5, 132240, Note_on_c, 3, 45, 0
5, 132240, Note_on_c, 3, 34, 80
5, 132300, Note_on_c, 3, 34, 0
5, 132300, Note_on_c, 3, 46, 80
5, 132360, Note_on_c, 3, 46, 0
5, 132360, Note_on_c, 3, 35, 80
5, 132420, Note_on_c, 3, 35, 0
5, 132420, Note_on_c, 3, 47, 80
5, 132480, Note_on_c, 3, 47, 0
5, 132480, Note_on_c, 3, 36, 80
5, 132540, Note_on_c, 3, 36, 0
5, 132540, Note_on_c, 3, 48, 80
5, 132600, Note_on_c, 3, 48, 0
5, 132600, Note_on_c, 3, 38, 80
5, 132660, Note_on_c, 3, 38, 0
5, 132660, Note_on_c, 3, 50, 80
5, 132720, Note_on_c, 3, 50, 0
5, 132720, Note_on_c, 3, 39, 80
5, 132780, Note_on_c, 3, 39, 0
5, 132780, Note_on_c, 3, 51, 80
5, 132840, Note_on_c, 3, 51, 0
5, 132840, Note_on_c, 3, 46, 80
5, 132900, Note_on_c, 3, 46, 0
5, 132900, Note_on_c, 3, 58, 80
5, 132960, Note_on_c, 3, 58, 0
5, 132960, Note_on_c, 3, 39, 80
5, 133020, Note_on_c, 3, 39, 0
5, 133020, Note_on_c, 3, 51, 80
5, 133080, Note_on_c, 3, 51, 0
5, 133080, Note_on_c, 3, 51, 80
5, 133140, Note_on_c, 3, 51, 0
5, 133140, Note_on_c, 3, 63, 80
5, 133200, Note_on_c, 3, 63, 0
5, 133200, Note_on_c, 3, 50, 80
5, 133260, Note_on_c, 3, 50, 0
5, 133260, Note_on_c, 3, 62, 80
5, 133320, Note_on_c, 3, 62, 0
5, 133320, Note_on_c, 3, 44, 80
5, 133380, Note_on_c, 3, 44, 0
5, 133380, Note_on_c, 3, 56, 80
5, 133440, Note_on_c, 3, 56, 0
5, 133440, Note_on_c, 3, 43, 80
5, 133500, Note_on_c, 3, 43, 0
5, 133500, Note_on_c, 3, 55, 80
5, 133560, Note_on_c, 3, 55, 0
5, 133560, Note_on_c, 3, 51, 80
5, 133620, Note_on_c, 3, 51, 0
5, 133620, Note_on_c, 3, 63, 80
5, 133680, Note_on_c, 3, 63, 0
5, 133680, Note_on_c, 3, 50, 80
5, 133740, Note_on_c, 3, 50, 0
5, 133740, Note_on_c, 3, 62, 80
5, 133800, Note_on_c, 3, 62, 0
5, 133800, Note_on_c, 3, 44, 80
5, 133860, Note_on_c, 3, 44, 0
5, 133860, Note_on_c, 3, 56, 80
5, 133920, Note_on_c, 3, 56, 0
5, 133920, Note_on_c, 3, 43, 80
5, 133980, Note_on_c, 3, 43, 0
5, 133980, Note_on_c, 3, 55, 80
5, 134040, Note_on_c, 3, 55, 0
5, 134040, Note_on_c, 3, 39, 80
5, 134100, Note_on_c, 3, 39, 0
5, 134100, Note_on_c, 3, 51, 80
5, 134160, Note_on_c, 3, 51, 0
5, 134160, Note_on_c, 3, 44, 80
5, 134220, Note_on_c, 3, 44, 0
5, 134220, Note_on_c, 3, 56, 80
5, 134280, Note_on_c, 3, 56, 0
5, 134280, Note_on_c, 3, 45, 80
5, 134340, Note_on_c, 3, 45, 0
5, 134340, Note_on_c, 3, 57, 80
5, 134400, Note_on_c, 3, 57, 0
5, 134400, Note_on_c, 3, 46, 80
5, 134460, Note_on_c, 3, 46, 0
5, 134460, Note_on_c, 3, 58, 80
5, 134520, Note_on_c, 3, 58, 0
5, 134520, Note_on_c, 3, 45, 80
5, 134580, Note_on_c, 3, 45, 0
5, 134580, Note_on_c, 3, 57, 80
5, 134640, Note_on_c, 3, 57, 0
5, 134640, Note_on_c, 3, 46, 80
5, 134700, Note_on_c, 3, 46, 0
5, 134700, Note_on_c, 3, 50, 80
5, 134760, Note_on_c, 3, 50, 0
5, 134760, Note_on_c, 3, 53, 80
5, 134820, Note_on_c, 3, 53, 0
5, 134820, Note_on_c, 3, 58, 80
5, 134880, Note_on_c, 3, 58, 0
5, 134880, Note_on_c, 3, 34, 80
5, 134940, Note_on_c, 3, 34, 0
5, 134940, Note_on_c, 3, 46, 80
5, 135000, Note_on_c, 3, 46, 0
5, 135000, Note_on_c, 3, 36, 80
5, 135060, Note_on_c, 3, 36, 0
5, 135060, Note_on_c, 3, 48, 80
5, 135120, Note_on_c, 3, 48, 0
5, 135120, Note_on_c, 3, 38, 80
5, 135180, Note_on_c, 3, 38, 0
5, 135180, Note_on_c, 3, 50, 80
5, 135240, Note_on_c, 3, 50, 0
5, 135240, Note_on_c, 3, 34, 80
5, 135300, Note_on_c, 3, 34, 0
5, 135300, Note_on_c, 3, 46, 80
5, 135360, Note_on_c, 3, 46, 0
5, 135360, Note_on_c, 3, 39, 80
5, 135420, Note_on_c, 3, 39, 0
5, 135420, Note_on_c, 3, 51, 80
5, 135480, Note_on_c, 3, 51, 0
5, 135480, Note_on_c, 3, 41, 80
5, 135540, Note_on_c, 3, 41, 0
5, 135540, Note_on_c, 3, 53, 80
5, 135600, Note_on_c, 3, 53, 0
5, 135600, Note_on_c, 3, 43, 80
5, 135660, Note_on_c, 3, 43, 0
5, 135660, Note_on_c, 3, 55, 80
5, 135720, Note_on_c, 3, 55, 0
5, 135720, Note_on_c, 3, 45, 80
5, 135780, Note_on_c, 3, 45, 0
5, 135780, Note_on_c, 3, 57, 80
5, 135840, Note_on_c, 3, 57, 0
5, 135840, Note_on_c, 3, 46, 80
5, 135900, Note_on_c, 3, 46, 0
5, 135900, Note_on_c, 3, 58, 80
5, 135960, Note_on_c, 3, 58, 0
5, 135960, Note_on_c, 3, 48, 80
5, 136020, Note_on_c, 3, 48, 0
5, 136020, Note_on_c, 3, 60, 80
5, 136080, Note_on_c, 3, 60, 0
5, 136080, Note_on_c, 3, 50, 80
5, 136140, Note_on_c, 3, 50, 0
5, 136140, Note_on_c, 3, 62, 80
5, 136200, Note_on_c, 3, 62, 0
5, 136200, Note_on_c, 3, 46, 80
5, 136260, Note_on_c, 3, 46, 0
5, 136260, Note_on_c, 3, 58, 80
5, 136320, Note_on_c, 3, 58, 0
5, 136320, Note_on_c, 3, 51, 80
5, 136380, Note_on_c, 3, 51, 0
5, 136380, Note_on_c, 3, 63, 80
5, 136440, Note_on_c, 3, 63, 0
5, 136440, Note_on_c, 3, 46, 80
5, 136500, Note_on_c, 3, 46, 0
5, 136500, Note_on_c, 3, 58, 80
5, 136560, Note_on_c, 3, 58, 0
5, 136560, Note_on_c, 3, 43, 80
5, 136620, Note_on_c, 3, 43, 0
5, 136620, Note_on_c, 3, 55, 80
5, 136680, Note_on_c, 3, 55, 0
5, 136680, Note_on_c, 3, 39, 80
5, 136740, Note_on_c, 3, 39, 0
5, 136740, Note_on_c, 3, 51, 80
5, 136800, Note_on_c, 3, 51, 0
5, 136800, Note_on_c, 3, 34, 80
5, 136860, Note_on_c, 3, 34, 0
5, 136860, Note_on_c, 3, 46, 80
5, 136920, Note_on_c, 3, 46, 0
5, 136920, Note_on_c, 3, 46, 80
5, 136980, Note_on_c, 3, 46, 0
5, 136980, Note_on_c, 3, 58, 80
5, 137040, Note_on_c, 3, 58, 0
5, 137040, Note_on_c, 3, 47, 80
5, 137100, Note_on_c, 3, 47, 0
5, 137100, Note_on_c, 3, 59, 80
5, 137160, Note_on_c, 3, 59, 0
5, 137160, Note_on_c, 3, 35, 80
5, 137220, Note_on_c, 3, 35, 0
5, 137220, Note_on_c, 3, 47, 80
5, 137280, Note_on_c, 3, 47, 0
5, 137280, Note_on_c, 3, 34, 80
5, 137340, Note_on_c, 3, 34, 0
5, 137340, Note_on_c, 3, 46, 80
5, 137400, Note_on_c, 3, 46, 0
5, 137400, Note_on_c, 3, 46, 80
5, 137460, Note_on_c, 3, 46, 0
5, 137460, Note_on_c, 3, 58, 80
5, 137520, Note_on_c, 3, 58, 0
5, 137520, Note_on_c, 3, 44, 80
5, 137580, Note_on_c, 3, 44, 0
5, 137580, Note_on_c, 3, 56, 80
5, 137640, Note_on_c, 3, 56, 0
5, 137640, Note_on_c, 3, 32, 80
5, 137700, Note_on_c, 3, 32, 0
5, 137700, Note_on_c, 3, 44, 80
5, 137760, Note_on_c, 3, 44, 0
5, 137760, Note_on_c, 3, 31, 80
5, 137820, Note_on_c, 3, 31, 0
5, 137820, Note_on_c, 3, 43, 80
5, 137880, Note_on_c, 3, 43, 0
5, 137880, Note_on_c, 3, 43, 80
5, 137940, Note_on_c, 3, 43, 0
5, 137940, Note_on_c, 3, 55, 80
5, 138000, Note_on_c, 3, 55, 0
5, 138000, Note_on_c, 3, 32, 80
5, 138060, Note_on_c, 3, 32, 0
5, 138060, Note_on_c, 3, 44, 80
5, 138120, Note_on_c, 3, 44, 0
5, 138120, Note_on_c, 3, 44, 80
5, 138180, Note_on_c, 3, 44, 0
5, 138180, Note_on_c, 3, 56, 80
5, 138240, Note_on_c, 3, 56, 0
5, 138240, Note_on_c, 3, 46, 80
5, 138300, Note_on_c, 3, 46, 0
5, 138300, Note_on_c, 3, 58, 80
5, 138360, Note_on_c, 3, 58, 0
5, 138360, Note_on_c, 3, 45, 80
5, 138420, Note_on_c, 3, 45, 0
5, 138420, Note_on_c, 3, 57, 80
5, 138480, Note_on_c, 3, 57, 0
5, 138480, Note_on_c, 3, 46, 80
5, 138540, Note_on_c, 3, 46, 0
5, 138540, Note_on_c, 3, 58, 80
5, 138600, Note_on_c, 3, 58, 0
5, 138600, Note_on_c, 3, 34, 80
5, 138660, Note_on_c, 3, 34, 0
5, 138660, Note_on_c, 3, 46, 80
5, 138720, Note_on_c, 3, 46, 0
5, 138720, Note_on_c, 3, 35, 80
5, 138780, Note_on_c, 3, 35, 0
5, 138780, Note_on_c, 3, 47, 80
5, 138840, Note_on_c, 3, 47, 0
5, 138840, Note_on_c, 3, 47, 80
5, 138900, Note_on_c, 3, 47, 0
5, 138900, Note_on_c, 3, 59, 80
5, 138960, Note_on_c, 3, 59, 0
5, 138960, Note_on_c, 3, 48, 80
5, 139020, Note_on_c, 3, 48, 0
5, 139020, Note_on_c, 3, 60, 80
5, 139080, Note_on_c, 3, 60, 0
5, 139080, Note_on_c, 3, 36, 80
5, 139140, Note_on_c, 3, 36, 0
5, 139140, Note_on_c, 3, 48, 80
5, 139200, Note_on_c, 3, 48, 0
5, 139200, Note_on_c, 3, 34, 80
5, 139260, Note_on_c, 3, 34, 0
5, 139260, Note_on_c, 3, 46, 80
5, 139320, Note_on_c, 3, 46, 0
5, 139320, Note_on_c, 3, 46, 80
5, 139380, Note_on_c, 3, 46, 0
5, 139380, Note_on_c, 3, 58, 80
5, 139440, Note_on_c, 3, 58, 0
5, 139440, Note_on_c, 3, 47, 80
5, 139500, Note_on_c, 3, 47, 0
5, 139500, Note_on_c, 3, 59, 80
5, 139560, Note_on_c, 3, 59, 0
5, 139560, Note_on_c, 3, 35, 80
5, 139620, Note_on_c, 3, 35, 0
5, 139620, Note_on_c, 3, 47, 80
5, 139680, Note_on_c, 3, 47, 0
5, 139680, Note_on_c, 3, 34, 80
5, 139740, Note_on_c, 3, 34, 0
5, 139740, Note_on_c, 3, 46, 80
5, 139800, Note_on_c, 3, 46, 0
5, 139800, Note_on_c, 3, 46, 80
5, 139860, Note_on_c, 3, 46, 0
5, 139860, Note_on_c, 3, 58, 80
5, 139920, Note_on_c, 3, 58, 0
5, 139920, Note_on_c, 3, 44, 80
5, 139980, Note_on_c, 3, 44, 0
5, 139980, Note_on_c, 3, 56, 80
5, 140040, Note_on_c, 3, 56, 0
5, 140040, Note_on_c, 3, 32, 80
5, 140100, Note_on_c, 3, 32, 0
5, 140100, Note_on_c, 3, 44, 80
5, 140160, Note_on_c, 3, 44, 0
5, 140160, Note_on_c, 3, 31, 80
5, 140220, Note_on_c, 3, 31, 0
5, 140220, Note_on_c, 3, 43, 80
5, 140280, Note_on_c, 3, 43, 0
5, 140280, Note_on_c, 3, 43, 80
5, 140340, Note_on_c, 3, 43, 0
5, 140340, Note_on_c, 3, 55, 80
5, 140400, Note_on_c, 3, 55, 0
5, 140400, Note_on_c, 3, 32, 80
5, 140460, Note_on_c, 3, 32, 0
5, 140460, Note_on_c, 3, 44, 80
5, 140520, Note_on_c, 3, 44, 0
5, 140520, Note_on_c, 3, 44, 80
5, 140580, Note_on_c, 3, 44, 0
5, 140580, Note_on_c, 3, 56, 80
5, 140640, Note_on_c, 3, 56, 0
5, 140640, Note_on_c, 3, 46, 80
5, 140700, Note_on_c, 3, 46, 0
5, 140700, Note_on_c, 3, 58, 80
5, 140760, Note_on_c, 3, 58, 0
5, 140760, Note_on_c, 3, 45, 80
5, 140820, Note_on_c, 3, 45, 0
5, 140820, Note_on_c, 3, 57, 80
5, 140880, Note_on_c, 3, 57, 0
5, 140880, Note_on_c, 3, 46, 80
5, 140940, Note_on_c, 3, 46, 0
5, 140940, Note_on_c, 3, 58, 80
5, 141000, Note_on_c, 3, 58, 0
5, 141000, Note_on_c, 3, 34, 80
5, 141060, Note_on_c, 3, 34, 0
5, 141060, Note_on_c, 3, 46, 80
5, 141120, Note_on_c, 3, 46, 0
5, 141120, Note_on_c, 3, 39, 80
5, 141180, Note_on_c, 3, 39, 0
5, 141180, Note_on_c, 3, 43, 80
5, 141240, Note_on_c, 3, 43, 0
5, 141240, Note_on_c, 3, 46, 80
5, 141300, Note_on_c, 3, 46, 0
5, 141300, Note_on_c, 3, 51, 80
5, 141360, Note_on_c, 3, 51, 0
5, 141360, Note_on_c, 3, 39, 80
5, 141480, Note_on_c, 3, 39, 0
5, 141600, Note_on_c, 3, 34, 80
5, 141660, Note_on_c, 3, 34, 0
5, 141660, Note_on_c, 3, 46, 80
5, 141720, Note_on_c, 3, 46, 0
5, 141720, Note_on_c, 3, 36, 80
5, 141780, Note_on_c, 3, 36, 0
5, 141780, Note_on_c, 3, 48, 80
5, 141840, Note_on_c, 3, 48, 0
5, 141840, Note_on_c, 3, 38, 80
5, 141900, Note_on_c, 3, 38, 0
5, 141900, Note_on_c, 3, 50, 80
5, 141960, Note_on_c, 3, 50, 0
5, 141960, Note_on_c, 3, 34, 80
5, 142020, Note_on_c, 3, 34, 0
5, 142020, Note_on_c, 3, 46, 80
5, 142080, Note_on_c, 3, 46, 0
5, 142080, Note_on_c, 3, 39, 80
5, 142140, Note_on_c, 3, 39, 0
5, 142140, Note_on_c, 3, 51, 80
5, 142200, Note_on_c, 3, 51, 0
5, 142200, Note_on_c, 3, 41, 80
5, 142260, Note_on_c, 3, 41, 0
5, 142260, Note_on_c, 3, 53, 80
5, 142320, Note_on_c, 3, 53, 0
5, 142320, Note_on_c, 3, 43, 80
5, 142380, Note_on_c, 3, 43, 0
5, 142380, Note_on_c, 3, 55, 80
5, 142440, Note_on_c, 3, 55, 0
5, 142440, Note_on_c, 3, 45, 80
5, 142500, Note_on_c, 3, 45, 0
5, 142500, Note_on_c, 3, 57, 80
5, 142560, Note_on_c, 3, 57, 0
5, 142560, Note_on_c, 3, 46, 80
5, 142620, Note_on_c, 3, 46, 0
5, 142620, Note_on_c, 3, 58, 80
5, 142680, Note_on_c, 3, 58, 0
5, 142680, Note_on_c, 3, 48, 80
5, 142740, Note_on_c, 3, 48, 0
5, 142740, Note_on_c, 3, 60, 80
5, 142800, Note_on_c, 3, 60, 0
5, 142800, Note_on_c, 3, 50, 80
5, 142860, Note_on_c, 3, 50, 0
5, 142860, Note_on_c, 3, 62, 80
5, 142920, Note_on_c, 3, 62, 0
5, 142920, Note_on_c, 3, 46, 80
5, 142980, Note_on_c, 3, 46, 0
5, 142980, Note_on_c, 3, 58, 80
5, 143040, Note_on_c, 3, 58, 0
5, 143040, Note_on_c, 3, 51, 80
5, 143100, Note_on_c, 3, 51, 0
5, 143100, Note_on_c, 3, 63, 80
5, 143160, Note_on_c, 3, 63, 0
5, 143160, Note_on_c, 3, 46, 80
5, 143220, Note_on_c, 3, 46, 0
5, 143220, Note_on_c, 3, 58, 80
5, 143280, Note_on_c, 3, 58, 0
5, 143280, Note_on_c, 3, 43, 80
5, 143340, Note_on_c, 3, 43, 0
5, 143340, Note_on_c, 3, 55, 80
5, 143400, Note_on_c, 3, 55, 0
5, 143400, Note_on_c, 3, 39, 80
5, 143460, Note_on_c, 3, 39, 0
5, 143460, Note_on_c, 3, 51, 80
5, 143520, Note_on_c, 3, 51, 0
5, 143520, Note_on_c, 3, 34, 80
5, 143580, Note_on_c, 3, 34, 0
5, 143580, Note_on_c, 3, 46, 80
5, 143640, Note_on_c, 3, 46, 0
5, 143640, Note_on_c, 3, 46, 80
5, 143700, Note_on_c, 3, 46, 0
5, 143700, Note_on_c, 3, 58, 80
5, 143760, Note_on_c, 3, 58, 0
5, 143760, Note_on_c, 3, 47, 80
5, 143820, Note_on_c, 3, 47, 0
5, 143820, Note_on_c, 3, 59, 80
5, 143880, Note_on_c, 3, 59, 0
5, 143880, Note_on_c, 3, 35, 80
5, 143940, Note_on_c, 3, 35, 0
5, 143940, Note_on_c, 3, 47, 80
5, 144000, Note_on_c, 3, 47, 0
5, 144000, Note_on_c, 3, 34, 80
5, 144060, Note_on_c, 3, 34, 0
5, 144060, Note_on_c, 3, 46, 80
5, 144120, Note_on_c, 3, 46, 0
5, 144120, Note_on_c, 3, 46, 80
5, 144180, Note_on_c, 3, 46, 0
5, 144180, Note_on_c, 3, 58, 80
5, 144240, Note_on_c, 3, 58, 0
5, 144240, Note_on_c, 3, 44, 80
5, 144300, Note_on_c, 3, 44, 0
5, 144300, Note_on_c, 3, 56, 80
5, 144360, Note_on_c, 3, 56, 0
5, 144360, Note_on_c, 3, 32, 80
5, 144420, Note_on_c, 3, 32, 0
5, 144420, Note_on_c, 3, 44, 80
5, 144480, Note_on_c, 3, 44, 0
5, 144480, Note_on_c, 3, 31, 80
5, 144540, Note_on_c, 3, 31, 0
5, 144540, Note_on_c, 3, 43, 80
5, 144600, Note_on_c, 3, 43, 0
5, 144600, Note_on_c, 3, 43, 80
5, 144660, Note_on_c, 3, 43, 0
5, 144660, Note_on_c, 3, 55, 80
5, 144720, Note_on_c, 3, 55, 0
5, 144720, Note_on_c, 3, 32, 80
5, 144780, Note_on_c, 3, 32, 0
5, 144780, Note_on_c, 3, 44, 80
5, 144840, Note_on_c, 3, 44, 0
5, 144840, Note_on_c, 3, 44, 80
5, 144900, Note_on_c, 3, 44, 0
5, 144900, Note_on_c, 3, 56, 80
5, 144960, Note_on_c, 3, 56, 0
5, 144960, Note_on_c, 3, 46, 80
5, 145020, Note_on_c, 3, 46, 0
5, 145020, Note_on_c, 3, 58, 80
5, 145080, Note_on_c, 3, 58, 0
5, 145080, Note_on_c, 3, 45, 80
5, 145140, Note_on_c, 3, 45, 0
5, 145140, Note_on_c, 3, 57, 80
5, 145200, Note_on_c, 3, 57, 0
5, 145200, Note_on_c, 3, 46, 80
5, 145260, Note_on_c, 3, 46, 0
5, 145260, Note_on_c, 3, 58, 80
5, 145320, Note_on_c, 3, 58, 0
5, 145320, Note_on_c, 3, 34, 80
5, 145380, Note_on_c, 3, 34, 0
5, 145380, Note_on_c, 3, 46, 80
5, 145440, Note_on_c, 3, 46, 0
5, 145440, Note_on_c, 3, 35, 80
5, 145500, Note_on_c, 3, 35, 0
5, 145500, Note_on_c, 3, 47, 80
5, 145560, Note_on_c, 3, 47, 0
5, 145560, Note_on_c, 3, 47, 80
5, 145620, Note_on_c, 3, 47, 0
5, 145620, Note_on_c, 3, 59, 80
5, 145680, Note_on_c, 3, 59, 0
5, 145680, Note_on_c, 3, 48, 80
5, 145740, Note_on_c, 3, 48, 0
5, 145740, Note_on_c, 3, 60, 80
5, 145800, Note_on_c, 3, 60, 0
5, 145800, Note_on_c, 3, 36, 80
5, 145860, Note_on_c, 3, 36, 0
5, 145860, Note_on_c, 3, 48, 80
5, 145920, Note_on_c, 3, 48, 0
5, 145920, Note_on_c, 3, 34, 80
5, 145980, Note_on_c, 3, 34, 0
5, 145980, Note_on_c, 3, 46, 80
5, 146040, Note_on_c, 3, 46, 0
5, 146040, Note_on_c, 3, 46, 80
5, 146100, Note_on_c, 3, 46, 0
5, 146100, Note_on_c, 3, 58, 80
5, 146160, Note_on_c, 3, 58, 0
5, 146160, Note_on_c, 3, 47, 80
5, 146220, Note_on_c, 3, 47, 0
5, 146220, Note_on_c, 3, 59, 80
5, 146280, Note_on_c, 3, 59, 0
5, 146280, Note_on_c, 3, 35, 80
5, 146340, Note_on_c, 3, 35, 0
5, 146340, Note_on_c, 3, 47, 80
5, 146400, Note_on_c, 3, 47, 0
5, 146400, Note_on_c, 3, 34, 80
5, 146460, Note_on_c, 3, 34, 0
5, 146460, Note_on_c, 3, 46, 80
5, 146520, Note_on_c, 3, 46, 0
5, 146520, Note_on_c, 3, 46, 80
5, 146580, Note_on_c, 3, 46, 0
5, 146580, Note_on_c, 3, 58, 80
5, 146640, Note_on_c, 3, 58, 0
5, 146640, Note_on_c, 3, 44, 80
5, 146700, Note_on_c, 3, 44, 0
5, 146700, Note_on_c, 3, 56, 80
5, 146760, Note_on_c, 3, 56, 0
5, 146760, Note_on_c, 3, 32, 80
5, 146820, Note_on_c, 3, 32, 0
5, 146820, Note_on_c, 3, 44, 80
5, 146880, Note_on_c, 3, 44, 0
5, 146880, Note_on_c, 3, 31, 80
5, 146940, Note_on_c, 3, 31, 0
5, 146940, Note_on_c, 3, 43, 80
5, 147000, Note_on_c, 3, 43, 0
5, 147000, Note_on_c, 3, 43, 80
5, 147060, Note_on_c, 3, 43, 0
5, 147060, Note_on_c, 3, 55, 80
5, 147120, Note_on_c, 3, 55, 0
5, 147120, Note_on_c, 3, 32, 80
5, 147180, Note_on_c, 3, 32, 0
5, 147180, Note_on_c, 3, 44, 80
5, 147240, Note_on_c, 3, 44, 0
5, 147240, Note_on_c, 3, 44, 80
5, 147300, Note_on_c, 3, 44, 0
5, 147300, Note_on_c, 3, 56, 80
5, 147360, Note_on_c, 3, 56, 0
5, 147360, Note_on_c, 3, 46, 80
5, 147420, Note_on_c, 3, 46, 0
5, 147420, Note_on_c, 3, 58, 80
5, 147480, Note_on_c, 3, 58, 0
5, 147480, Note_on_c, 3, 45, 80
5, 147540, Note_on_c, 3, 45, 0
5, 147540, Note_on_c, 3, 57, 80
5, 147600, Note_on_c, 3, 57, 0
5, 147600, Note_on_c, 3, 46, 80
5, 147660, Note_on_c, 3, 46, 0
5, 147660, Note_on_c, 3, 58, 80
5, 147720, Note_on_c, 3, 58, 0
5, 147720, Note_on_c, 3, 34, 80
5, 147780, Note_on_c, 3, 34, 0
5, 147780, Note_on_c, 3, 46, 80
5, 147840, Note_on_c, 3, 46, 0
5, 147840, Note_on_c, 3, 39, 80
5, 147900, Note_on_c, 3, 39, 0
5, 147900, Note_on_c, 3, 43, 80
5, 147960, Note_on_c, 3, 43, 0
5, 147960, Note_on_c, 3, 46, 80
5, 148020, Note_on_c, 3, 46, 0
5, 148020, Note_on_c, 3, 51, 80
5, 148080, Note_on_c, 3, 51, 0
5, 148080, Note_on_c, 3, 39, 80
5, 148200, Note_on_c, 3, 39, 0
5, 148275, Note_on_c, 3, 39, 80
5, 148290, Note_on_c, 3, 43, 80
5, 148305, Note_on_c, 3, 46, 80
5, 148320, Note_on_c, 3, 51, 80
5, 148380, Note_on_c, 3, 51, 0
5, 148380, Note_on_c, 3, 39, 0
5, 148380, Note_on_c, 3, 43, 0
5, 148380, Note_on_c, 3, 46, 0
5, 148515, Note_on_c, 3, 39, 80
5, 148530, Note_on_c, 3, 43, 80
5, 148545, Note_on_c, 3, 46, 80
5, 148560, Note_on_c, 3, 51, 80
5, 148620, Note_on_c, 3, 51, 0
5, 148620, Note_on_c, 3, 39, 0
5, 148620, Note_on_c, 3, 43, 0
5, 148620, Note_on_c, 3, 46, 0
5, 148755, Note_on_c, 3, 39, 80
5, 148770, Note_on_c, 3, 43, 80
5, 148785, Note_on_c, 3, 46, 80
5, 148800, Note_on_c, 3, 51, 80
5, 148860, Note_on_c, 3, 51, 0
5, 148860, Note_on_c, 3, 39, 0
5, 148860, Note_on_c, 3, 43, 0
5, 148860, Note_on_c, 3, 46, 0
5, 149010, Note_on_c, 3, 43, 80
5, 149025, Note_on_c, 3, 46, 80
5, 149040, Note_on_c, 3, 51, 80
5, 149100, Note_on_c, 3, 51, 0
5, 149100, Note_on_c, 3, 46, 0
5, 149100, Note_on_c, 3, 43, 0
5, 149250, Note_on_c, 3, 44, 80
5, 149265, Note_on_c, 3, 48, 80
5, 149280, Note_on_c, 3, 51, 80
5, 149340, Note_on_c, 3, 51, 0
5, 149340, Note_on_c, 3, 48, 0
5, 149340, Note_on_c, 3, 44, 0
5, 149490, Note_on_c, 3, 46, 80
5, 149505, Note_on_c, 3, 51, 80
5, 149520, Note_on_c, 3, 55, 80
5, 149580, Note_on_c, 3, 55, 0
5, 149580, Note_on_c, 3, 51, 0
5, 149580, Note_on_c, 3, 46, 0
5, 149730, Note_on_c, 3, 48, 80
5, 149745, Note_on_c, 3, 51, 80
5, 149760, Note_on_c, 3, 56, 80
5, 149808, Note_on_c, 3, 56, 0
5, 149808, Note_on_c, 3, 51, 0
5, 149808, Note_on_c, 3, 48, 0
5, 149850, Note_on_c, 3, 50, 80
5, 149865, Note_on_c, 3, 53, 80
5, 149880, Note_on_c, 3, 58, 80
5, 149910, Note_on_c, 3, 58, 0
5, 149910, Note_on_c, 3, 53, 0
5, 149910, Note_on_c, 3, 50, 0
5, 149970, Note_on_c, 3, 51, 80
5, 149985, Note_on_c, 3, 55, 80
5, 150000, Note_on_c, 3, 58, 80
5, 150048, Note_on_c, 3, 58, 0
5, 150048, Note_on_c, 3, 55, 0
5, 150048, Note_on_c, 3, 51, 0
5, 150060, Note_on_c, 3, 55, 80
5, 150084, Note_on_c, 3, 55, 0
5, 150090, Note_on_c, 3, 56, 80
5, 150114, Note_on_c, 3, 56, 0
5, 150120, Note_on_c, 3, 58, 80
5, 150144, Note_on_c, 3, 58, 0
5, 150150, Note_on_c, 3, 60, 80
5, 150174, Note_on_c, 3, 60, 0
5, 150180, Note_on_c, 3, 62, 80
5, 150204, Note_on_c, 3, 62, 0
5, 150210, Note_on_c, 3, 58, 80
5, 150234, Note_on_c, 3, 58, 0
5, 150240, Note_on_c, 3, 63, 80
5, 150528, Note_on_c, 3, 63, 0
5, 150600, Note_on_c, 3, 62, 80
5, 150696, Note_on_c, 3, 62, 0
5, 150780, Note_on_c, 3, 63, 80
5, 150810, Note_on_c, 3, 63, 0
5, 150810, Note_on_c, 3, 62, 80
5, 150840, Note_on_c, 3, 62, 0
5, 150840, Note_on_c, 3, 60, 80
5, 150870, Note_on_c, 3, 60, 0
5, 150870, Note_on_c, 3, 58, 80
5, 150900, Note_on_c, 3, 58, 0
5, 150900, Note_on_c, 3, 56, 80
5, 150930, Note_on_c, 3, 56, 0
5, 150930, Note_on_c, 3, 55, 80
5, 150960, Note_on_c, 3, 55, 0
5, 150960, Note_on_c, 3, 53, 80
5, 151020, Note_on_c, 3, 53, 0
5, 151020, Note_on_c, 3, 55, 80
5, 151050, Note_on_c, 3, 55, 0
5, 151050, Note_on_c, 3, 56, 80
5, 151080, Note_on_c, 3, 56, 0
5, 151080, Note_on_c, 3, 58, 80
5, 151110, Note_on_c, 3, 58, 0
5, 151110, Note_on_c, 3, 56, 80
5, 151140, Note_on_c, 3, 56, 0
5, 151140, Note_on_c, 3, 55, 80
5, 151170, Note_on_c, 3, 55, 0
5, 151170, Note_on_c, 3, 53, 80
5, 151200, Note_on_c, 3, 53, 0
5, 151200, Note_on_c, 3, 58, 80
5, 151296, Note_on_c, 3, 58, 0
5, 151320, Note_on_c, 3, 51, 80
5, 151416, Note_on_c, 3, 51, 0
5, 151440, Note_on_c, 3, 44, 80
5, 151536, Note_on_c, 3, 44, 0
5, 151560, Note_on_c, 3, 45, 80
5, 151656, Note_on_c, 3, 45, 0
5, 151680, Note_on_c, 3, 46, 80
5, 151872, Note_on_c, 3, 46, 0
5, 151920, Note_on_c, 3, 46, 80
5, 151944, Note_on_c, 3, 46, 0
5, 151950, Note_on_c, 3, 45, 80
5, 151974, Note_on_c, 3, 45, 0
5, 151980, Note_on_c, 3, 46, 80
5, 152004, Note_on_c, 3, 46, 0
5, 152010, Note_on_c, 3, 48, 80
5, 152034, Note_on_c, 3, 48, 0
5, 152040, Note_on_c, 3, 46, 80
5, 152064, Note_on_c, 3, 46, 0
5, 152070, Note_on_c, 3, 44, 80
5, 152094, Note_on_c, 3, 44, 0
5, 152100, Note_on_c, 3, 43, 80
5, 152115, Note_on_c, 3, 39, 80
5, 152127, Note_on_c, 3, 39, 0
5, 152127, Note_on_c, 3, 43, 0
5, 152130, Note_on_c, 3, 41, 80
5, 152130, Note_on_c, 3, 39, 80
5, 152130, Note_on_c, 3, 43, 80
5, 152145, Note_on_c, 3, 46, 80
5, 152157, Note_on_c, 3, 41, 0
5, 152160, Note_on_c, 3, 51, 80
5, 152220, Note_on_c, 3, 51, 0
5, 152220, Note_on_c, 3, 46, 0
5, 152220, Note_on_c, 3, 43, 0
5, 152220, Note_on_c, 3, 39, 0
5, 152355, Note_on_c, 3, 39, 80
5, 152370, Note_on_c, 3, 43, 80
5, 152385, Note_on_c, 3, 46, 80
5, 152400, Note_on_c, 3, 51, 80
5, 152460, Note_on_c, 3, 51, 0
5, 152460, Note_on_c, 3, 39, 0
5, 152460, Note_on_c, 3, 43, 0
5, 152460, Note_on_c, 3, 46, 0
5, 152595, Note_on_c, 3, 39, 80
5, 152610, Note_on_c, 3, 43, 80
5, 152625, Note_on_c, 3, 46, 80
5, 152640, Note_on_c, 3, 51, 80
5, 152736, Note_on_c, 3, 51, 0
5, 152736, Note_on_c, 3, 39, 0
5, 152736, Note_on_c, 3, 43, 0
5, 152736, Note_on_c, 3, 46, 0
5, 152850, Note_on_c, 3, 43, 80
5, 152865, Note_on_c, 3, 46, 80
5, 152880, Note_on_c, 3, 51, 80
5, 152940, Note_on_c, 3, 51, 0
5, 152940, Note_on_c, 3, 46, 0
5, 152940, Note_on_c, 3, 43, 0
5, 153090, Note_on_c, 3, 44, 80
5, 153105, Note_on_c, 3, 48, 80
5, 153120, Note_on_c, 3, 51, 80
5, 153180, Note_on_c, 3, 51, 0
5, 153180, Note_on_c, 3, 48, 0
5, 153180, Note_on_c, 3, 44, 0
5, 153330, Note_on_c, 3, 46, 80
5, 153345, Note_on_c, 3, 51, 80
5, 153360, Note_on_c, 3, 55, 80
5, 153420, Note_on_c, 3, 55, 0
5, 153420, Note_on_c, 3, 51, 0
5, 153420, Note_on_c, 3, 46, 0
5, 153570, Note_on_c, 3, 48, 80
5, 153585, Note_on_c, 3, 51, 80
5, 153600, Note_on_c, 3, 56, 80
5, 153648, Note_on_c, 3, 56, 0
5, 153648, Note_on_c, 3, 51, 0
5, 153648, Note_on_c, 3, 48, 0
5, 153690, Note_on_c, 3, 50, 80
5, 153705, Note_on_c, 3, 53, 80
5, 153720, Note_on_c, 3, 58, 80
5, 153750, Note_on_c, 3, 58, 0
5, 153750, Note_on_c, 3, 53, 0
5, 153750, Note_on_c, 3, 50, 0
5, 153810, Note_on_c, 3, 51, 80
5, 153825, Note_on_c, 3, 55, 80
5, 153840, Note_on_c, 3, 58, 80
5, 153888, Note_on_c, 3, 58, 0
5, 153888, Note_on_c, 3, 55, 0
5, 153888, Note_on_c, 3, 51, 0
5, 153900, Note_on_c, 3, 55, 80
5, 153930, Note_on_c, 3, 55, 0
5, 153930, Note_on_c, 3, 56, 80
5, 153960, Note_on_c, 3, 56, 0
5, 153960, Note_on_c, 3, 58, 80
5, 153990, Note_on_c, 3, 58, 0
5, 153990, Note_on_c, 3, 60, 80
5, 154020, Note_on_c, 3, 60, 0
5, 154020, Note_on_c, 3, 62, 80
5, 154050, Note_on_c, 3, 62, 0
5, 154050, Note_on_c, 3, 58, 80
5, 154080, Note_on_c, 3, 58, 0
5, 154080, Note_on_c, 3, 63, 80
5, 154440, Note_on_c, 3, 63, 0
5, 154440, Note_on_c, 3, 62, 80
5, 154536, Note_on_c, 3, 62, 0
5, 154620, Note_on_c, 3, 63, 80
5, 154650, Note_on_c, 3, 63, 0
5, 154650, Note_on_c, 3, 62, 80
5, 154680, Note_on_c, 3, 62, 0
5, 154680, Note_on_c, 3, 60, 80
5, 154710, Note_on_c, 3, 60, 0
5, 154710, Note_on_c, 3, 58, 80
5, 154740, Note_on_c, 3, 58, 0
5, 154740, Note_on_c, 3, 56, 80
5, 154770, Note_on_c, 3, 56, 0
5, 154770, Note_on_c, 3, 55, 80
5, 154800, Note_on_c, 3, 55, 0
5, 154800, Note_on_c, 3, 53, 80
5, 154860, Note_on_c, 3, 53, 0
5, 154860, Note_on_c, 3, 55, 80
5, 154890, Note_on_c, 3, 55, 0
5, 154890, Note_on_c, 3, 56, 80
5, 154920, Note_on_c, 3, 56, 0
5, 154920, Note_on_c, 3, 58, 80
5, 154950, Note_on_c, 3, 58, 0
5, 154950, Note_on_c, 3, 56, 80
5, 154980, Note_on_c, 3, 56, 0
5, 154980, Note_on_c, 3, 55, 80
5, 155010, Note_on_c, 3, 55, 0
5, 155010, Note_on_c, 3, 53, 80
5, 155040, Note_on_c, 3, 53, 0
5, 155040, Note_on_c, 3, 58, 80
5, 155136, Note_on_c, 3, 58, 0
5, 155160, Note_on_c, 3, 51, 80
5, 155256, Note_on_c, 3, 51, 0
5, 155280, Note_on_c, 3, 44, 80
5, 155376, Note_on_c, 3, 44, 0
5, 155400, Note_on_c, 3, 45, 80
5, 155496, Note_on_c, 3, 45, 0
5, 155520, Note_on_c, 3, 46, 80
5, 155820, Note_on_c, 3, 46, 0
5, 155820, Note_on_c, 3, 44, 80
5, 155850, Note_on_c, 3, 44, 0
5, 155850, Note_on_c, 3, 43, 80
5, 155880, Note_on_c, 3, 43, 0
5, 155880, Note_on_c, 3, 41, 80
5, 155910, Note_on_c, 3, 41, 0
5, 155910, Note_on_c, 3, 39, 80
5, 155940, Note_on_c, 3, 39, 0
5, 155940, Note_on_c, 3, 38, 80
5, 155970, Note_on_c, 3, 38, 0
5, 155970, Note_on_c, 3, 36, 80
5, 156000, Note_on_c, 3, 36, 0
5, 156000, Note_on_c, 3, 34, 80
5, 156192, Note_on_c, 3, 34, 0
5, 156300, Note_on_c, 3, 53, 80
5, 156348, Note_on_c, 3, 53, 0
5, 156360, Note_on_c, 3, 50, 80
5, 156408, Note_on_c, 3, 50, 0
5, 156420, Note_on_c, 3, 46, 80
5, 156468, Note_on_c, 3, 46, 0
5, 156480, Note_on_c, 3, 51, 80
5, 156672, Note_on_c, 3, 51, 0
5, 156780, Note_on_c, 3, 58, 80
5, 156828, Note_on_c, 3, 58, 0
5, 156840, Note_on_c, 3, 55, 80
5, 156888, Note_on_c, 3, 55, 0
5, 156900, Note_on_c, 3, 51, 80
5, 156948, Note_on_c, 3, 51, 0
5, 156960, Note_on_c, 3, 56, 80
5, 156990, Note_on_c, 3, 56, 0
5, 157020, Note_on_c, 3, 53, 80
5, 157050, Note_on_c, 3, 53, 0
5, 157080, Note_on_c, 3, 50, 80
5, 157110, Note_on_c, 3, 50, 0
5, 157140, Note_on_c, 3, 46, 80
5, 157170, Note_on_c, 3, 46, 0
5, 157200, Note_on_c, 3, 44, 80
5, 157212, Note_on_c, 3, 44, 0
5, 157215, Note_on_c, 3, 46, 80
5, 157227, Note_on_c, 3, 46, 0
5, 157230, Note_on_c, 3, 44, 80
5, 157242, Note_on_c, 3, 44, 0
5, 157245, Note_on_c, 3, 46, 80
5, 157257, Note_on_c, 3, 46, 0
5, 157260, Note_on_c, 3, 44, 80
5, 157272, Note_on_c, 3, 44, 0
5, 157275, Note_on_c, 3, 46, 80
5, 157287, Note_on_c, 3, 46, 0
5, 157290, Note_on_c, 3, 44, 80
5, 157302, Note_on_c, 3, 44, 0
5, 157305, Note_on_c, 3, 46, 80
5, 157317, Note_on_c, 3, 46, 0
5, 157320, Note_on_c, 3, 44, 80
5, 157368, Note_on_c, 3, 44, 0
5, 157380, Note_on_c, 3, 43, 80
5, 157404, Note_on_c, 3, 43, 0
5, 157410, Note_on_c, 3, 44, 80
5, 157434, Note_on_c, 3, 44, 0
5, 157440, Note_on_c, 3, 43, 80
5, 157464, Note_on_c, 3, 43, 0
5, 157470, Note_on_c, 3, 46, 80
5, 157494, Note_on_c, 3, 46, 0
5, 157500, Note_on_c, 3, 48, 80
5, 157524, Note_on_c, 3, 48, 0
5, 157530, Note_on_c, 3, 50, 80
5, 157554, Note_on_c, 3, 50, 0
5, 157560, Note_on_c, 3, 51, 80
5, 157584, Note_on_c, 3, 51, 0
5, 157590, Note_on_c, 3, 53, 80
5, 157614, Note_on_c, 3, 53, 0
5, 157620, Note_on_c, 3, 55, 80
5, 157644, Note_on_c, 3, 55, 0
5, 157650, Note_on_c, 3, 56, 80
5, 157674, Note_on_c, 3, 56, 0
5, 157680, Note_on_c, 3, 58, 80
5, 157704, Note_on_c, 3, 58, 0
5, 157710, Note_on_c, 3, 60, 80
5, 157734, Note_on_c, 3, 60, 0
5, 157740, Note_on_c, 3, 62, 80
5, 157764, Note_on_c, 3, 62, 0
5, 157770, Note_on_c, 3, 63, 80
5, 157794, Note_on_c, 3, 63, 0
5, 157800, Note_on_c, 3, 58, 80
5, 157848, Note_on_c, 3, 58, 0
5, 162210, Note_on_c, 3, 46, 80
5, 162234, Note_on_c, 3, 46, 0
5, 162240, Note_on_c, 3, 51, 80
5, 162360, Note_on_c, 3, 51, 0
5, 162360, Note_on_c, 3, 46, 80
5, 162480, Note_on_c, 3, 46, 0
5, 162480, Note_on_c, 3, 39, 80
5, 162576, Note_on_c, 3, 39, 0
5, 162720, Note_on_c, 3, 34, 80
5, 162912, Note_on_c, 3, 34, 0
5, 163020, Note_on_c, 3, 53, 80
5, 163068, Note_on_c, 3, 53, 0
5, 163080, Note_on_c, 3, 50, 80
5, 163128, Note_on_c, 3, 50, 0
5, 163140, Note_on_c, 3, 46, 80
5, 163188, Note_on_c, 3, 46, 0
5, 163200, Note_on_c, 3, 51, 80
5, 163392, Note_on_c, 3, 51, 0
5, 163500, Note_on_c, 3, 58, 80
5, 163548, Note_on_c, 3, 58, 0
5, 163560, Note_on_c, 3, 55, 80
5, 163608, Note_on_c, 3, 55, 0
5, 163620, Note_on_c, 3, 51, 80
5, 163668, Note_on_c, 3, 51, 0
5, 163680, Note_on_c, 3, 56, 80
5, 163698, Note_on_c, 3, 56, 0
5, 163740, Note_on_c, 3, 53, 80
5, 163758, Note_on_c, 3, 53, 0
5, 163800, Note_on_c, 3, 50, 80
5, 163818, Note_on_c, 3, 50, 0
5, 163860, Note_on_c, 3, 46, 80
5, 163878, Note_on_c, 3, 46, 0
5, 163920, Note_on_c, 3, 44, 80
5, 163932, Note_on_c, 3, 44, 0
5, 163935, Note_on_c, 3, 46, 80
5, 163947, Note_on_c, 3, 46, 0
5, 163950, Note_on_c, 3, 44, 80
5, 163962, Note_on_c, 3, 44, 0
5, 163965, Note_on_c, 3, 46, 80
5, 163977, Note_on_c, 3, 46, 0
5, 163980, Note_on_c, 3, 44, 80
5, 163992, Note_on_c, 3, 44, 0
5, 163995, Note_on_c, 3, 46, 80
5, 164007, Note_on_c, 3, 46, 0
5, 164010, Note_on_c, 3, 44, 80
5, 164022, Note_on_c, 3, 44, 0
5, 164025, Note_on_c, 3, 46, 80
5, 164037, Note_on_c, 3, 46, 0
5, 164040, Note_on_c, 3, 44, 80
5, 164088, Note_on_c, 3, 44, 0
5, 164100, Note_on_c, 3, 43, 80
5, 164124, Note_on_c, 3, 43, 0
5, 164130, Note_on_c, 3, 44, 80
5, 164154, Note_on_c, 3, 44, 0
5, 164160, Note_on_c, 3, 43, 80
5, 164190, Note_on_c, 3, 43, 0
5, 164190, Note_on_c, 3, 46, 80
5, 164220, Note_on_c, 3, 46, 0
5, 164220, Note_on_c, 3, 48, 80
5, 164250, Note_on_c, 3, 48, 0
5, 164250, Note_on_c, 3, 50, 80
5, 164280, Note_on_c, 3, 50, 0
5, 164280, Note_on_c, 3, 51, 80
5, 164310, Note_on_c, 3, 51, 0
5, 164310, Note_on_c, 3, 53, 80
5, 164340, Note_on_c, 3, 53, 0
5, 164340, Note_on_c, 3, 55, 80
5, 164370, Note_on_c, 3, 55, 0
5, 164370, Note_on_c, 3, 56, 80
5, 164400, Note_on_c, 3, 56, 0
5, 164400, Note_on_c, 3, 58, 80
5, 164430, Note_on_c, 3, 58, 0
5, 164430, Note_on_c, 3, 60, 80
5, 164460, Note_on_c, 3, 60, 0
5, 164460, Note_on_c, 3, 62, 80
5, 164490, Note_on_c, 3, 62, 0
5, 164490, Note_on_c, 3, 63, 80
5, 164520, Note_on_c, 3, 63, 0
5, 164520, Note_on_c, 3, 58, 80
5, 164580, Note_on_c, 3, 58, 0
5, 168930, Note_on_c, 3, 46, 80
5, 168954, Note_on_c, 3, 46, 0
5, 168960, Note_on_c, 3, 51, 80
5, 169080, Note_on_c, 3, 51, 0
5, 169080, Note_on_c, 3, 46, 80
5, 169200, Note_on_c, 3, 46, 0
5, 169200, Note_on_c, 3, 39, 80
5, 169296, Note_on_c, 3, 39, 0
5, 177120, Note_on_c, 3, 46, 80
5, 177216, Note_on_c, 3, 46, 0
5, 177240, Note_on_c, 3, 47, 80
5, 177336, Note_on_c, 3, 47, 0
5, 177360, Note_on_c, 3, 46, 80
5, 177456, Note_on_c, 3, 46, 0
5, 177480, Note_on_c, 3, 44, 80
5, 177576, Note_on_c, 3, 44, 0
5, 177600, Note_on_c, 3, 42, 80
5, 177696, Note_on_c, 3, 42, 0
5, 178080, Note_on_c, 3, 46, 64
5, 178176, Note_on_c, 3, 46, 0
5, 178200, Note_on_c, 3, 47, 64
5, 178296, Note_on_c, 3, 47, 0
5, 178320, Note_on_c, 3, 46, 64
5, 178416, Note_on_c, 3, 46, 0
5, 178440, Note_on_c, 3, 44, 64
5, 178536, Note_on_c, 3, 44, 0
5, 178560, Note_on_c, 3, 42, 64
5, 178656, Note_on_c, 3, 42, 0
5, 179040, Note_on_c, 3, 59, 80
5, 179184, Note_on_c, 3, 59, 0
5, 179220, Note_on_c, 3, 58, 80
5, 179268, Note_on_c, 3, 58, 0
5, 179280, Note_on_c, 3, 56, 80
5, 179472, Note_on_c, 3, 56, 0
5, 179520, Note_on_c, 3, 58, 80
5, 179904, Note_on_c, 3, 58, 0
5, 180000, Note_on_c, 3, 59, 80
5, 180096, Note_on_c, 3, 59, 0
5, 180240, Note_on_c, 3, 56, 80
5, 180336, Note_on_c, 3, 56, 0
5, 180480, Note_on_c, 3, 58, 80
5, 180576, Note_on_c, 3, 58, 0
5, 180720, Note_on_c, 3, 46, 80
5, 180816, Note_on_c, 3, 46, 0
5, 180960, Note_on_c, 3, 35, 80
5, 181152, Note_on_c, 3, 35, 0
5, 181200, Note_on_c, 3, 30, 80
5, 181392, Note_on_c, 3, 30, 0
5, 183240, Note_on_c, 3, 46, 64
5, 183360, Note_on_c, 3, 46, 0
5, 183360, Note_on_c, 3, 51, 64
5, 183480, Note_on_c, 3, 51, 0
5, 183480, Note_on_c, 3, 46, 64
5, 183600, Note_on_c, 3, 46, 0
5, 183600, Note_on_c, 3, 39, 64
5, 183696, Note_on_c, 3, 39, 0
5, 183840, Note_on_c, 3, 46, 80
5, 183936, Note_on_c, 3, 46, 0
5, 183960, Note_on_c, 3, 47, 80
5, 184056, Note_on_c, 3, 47, 0
5, 184080, Note_on_c, 3, 46, 80
5, 184176, Note_on_c, 3, 46, 0
5, 184200, Note_on_c, 3, 44, 80
5, 184296, Note_on_c, 3, 44, 0
5, 184320, Note_on_c, 3, 42, 80
5, 184416, Note_on_c, 3, 42, 0
5, 184800, Note_on_c, 3, 46, 64
5, 184896, Note_on_c, 3, 46, 0
5, 184920, Note_on_c, 3, 47, 64
5, 185016, Note_on_c, 3, 47, 0
5, 185040, Note_on_c, 3, 46, 64
5, 185136, Note_on_c, 3, 46, 0
5, 185160, Note_on_c, 3, 44, 64
5, 185256, Note_on_c, 3, 44, 0
5, 185280, Note_on_c, 3, 42, 64
5, 185376, Note_on_c, 3, 42, 0
5, 185760, Note_on_c, 3, 59, 64
5, 185904, Note_on_c, 3, 59, 0
5, 185940, Note_on_c, 3, 58, 64
5, 185988, Note_on_c, 3, 58, 0
5, 186000, Note_on_c, 3, 56, 64
5, 186192, Note_on_c, 3, 56, 0
5, 186240, Note_on_c, 3, 58, 64
5, 186624, Note_on_c, 3, 58, 0
5, 186720, Note_on_c, 3, 59, 80
5, 186816, Note_on_c, 3, 59, 0
5, 186960, Note_on_c, 3, 56, 80
5, 187056, Note_on_c, 3, 56, 0
5, 187200, Note_on_c, 3, 58, 80
5, 187296, Note_on_c, 3, 58, 0
5, 187440, Note_on_c, 3, 46, 80
5, 187536, Note_on_c, 3, 46, 0
5, 187680, Note_on_c, 3, 35, 80
5, 187872, Note_on_c, 3, 35, 0
5, 187920, Note_on_c, 3, 30, 80
5, 188112, Note_on_c, 3, 30, 0
5, 189960, Note_on_c, 3, 46, 64
5, 190080, Note_on_c, 3, 46, 0
5, 190080, Note_on_c, 3, 51, 64
5, 190200, Note_on_c, 3, 51, 0
5, 190200, Note_on_c, 3, 46, 64
5, 190320, Note_on_c, 3, 46, 0
5, 190320, Note_on_c, 3, 39, 64
5, 190416, Note_on_c, 3, 39, 0
5, 192480, Note_on_c, 3, 55, 80
5, 192672, Note_on_c, 3, 55, 0
5, 192720, Note_on_c, 3, 56, 80
5, 192912, Note_on_c, 3, 56, 0
5, 192960, Note_on_c, 3, 55, 80
5, 193152, Note_on_c, 3, 55, 0
5, 193200, Note_on_c, 3, 56, 80
5, 193392, Note_on_c, 3, 56, 0
5, 193440, Note_on_c, 3, 55, 80
5, 193560, Note_on_c, 3, 55, 0
5, 193560, Note_on_c, 3, 55, 80
5, 193680, Note_on_c, 3, 55, 0
5, 193680, Note_on_c, 3, 53, 80
5, 193800, Note_on_c, 3, 53, 0
5, 193800, Note_on_c, 3, 51, 80
5, 193920, Note_on_c, 3, 51, 0
5, 193920, Note_on_c, 3, 46, 80
5, 194304, Note_on_c, 3, 46, 0
5, 194880, Note_on_c, 3, 46, 80
5, 195264, Note_on_c, 3, 46, 0
5, 195840, Note_on_c, 3, 46, 80
5, 196224, Note_on_c, 3, 46, 0
5, 196320, Note_on_c, 3, 53, 80
5, 196704, Note_on_c, 3, 53, 0
5, 196800, Note_on_c, 3, 53, 80
5, 197184, Note_on_c, 3, 53, 0
5, 197280, Note_on_c, 3, 55, 80
5, 197340, Note_on_c, 3, 55, 0
5, 197520, Note_on_c, 3, 56, 80
5, 197580, Note_on_c, 3, 56, 0
5, 197760, Note_on_c, 3, 46, 80
5, 198144, Note_on_c, 3, 46, 0
5, 198240, Note_on_c, 3, 51, 80
5, 198336, Note_on_c, 3, 51, 0
5, 198720, Note_on_c, 3, 53, 80
5, 199104, Note_on_c, 3, 53, 0
5, 199200, Note_on_c, 3, 53, 80
5, 199584, Note_on_c, 3, 53, 0
5, 199680, Note_on_c, 3, 55, 80
5, 199728, Note_on_c, 3, 55, 0
5, 199920, Note_on_c, 3, 56, 80
5, 200016, Note_on_c, 3, 56, 0
5, 200160, Note_on_c, 3, 46, 80
5, 200544, Note_on_c, 3, 46, 0
5, 200640, Note_on_c, 3, 51, 80
5, 200736, Note_on_c, 3, 51, 0
5, 200760, Note_on_c, 3, 46, 80
5, 200856, Note_on_c, 3, 46, 0
5, 200880, Note_on_c, 3, 39, 80
5, 200976, Note_on_c, 3, 39, 0
5, 201150, Note_on_c, 3, 51, 48
5, 201180, Note_on_c, 3, 51, 0
5, 201180, Note_on_c, 3, 39, 48
5, 201210, Note_on_c, 3, 39, 0
5, 201210, Note_on_c, 3, 51, 48
5, 201240, Note_on_c, 3, 51, 0
5, 201240, Note_on_c, 3, 39, 48
5, 201270, Note_on_c, 3, 39, 0
5, 201270, Note_on_c, 3, 51, 48
5, 201300, Note_on_c, 3, 51, 0
5, 201300, Note_on_c, 3, 39, 48
5, 201330, Note_on_c, 3, 39, 0
5, 201330, Note_on_c, 3, 51, 48
5, 201360, Note_on_c, 3, 51, 0
5, 201360, Note_on_c, 3, 39, 48
5, 201390, Note_on_c, 3, 39, 0
5, 201390, Note_on_c, 3, 51, 48
5, 201420, Note_on_c, 3, 51, 0
5, 201420, Note_on_c, 3, 39, 48
5, 201450, Note_on_c, 3, 39, 0
5, 201450, Note_on_c, 3, 51, 48
5, 201480, Note_on_c, 3, 51, 0
5, 201480, Note_on_c, 3, 39, 48
5, 201510, Note_on_c, 3, 39, 0
5, 201510, Note_on_c, 3, 51, 48
5, 201540, Note_on_c, 3, 51, 0
5, 201540, Note_on_c, 3, 39, 48
5, 201570, Note_on_c, 3, 39, 0
5, 201570, Note_on_c, 3, 51, 48
5, 201600, Note_on_c, 3, 51, 0
5, 201600, Note_on_c, 3, 39, 48
5, 201630, Note_on_c, 3, 39, 0
5, 201630, Note_on_c, 3, 51, 48
5, 201660, Note_on_c, 3, 51, 0
5, 201660, Note_on_c, 3, 39, 48
5, 201690, Note_on_c, 3, 39, 0
5, 201690, Note_on_c, 3, 51, 48
5, 201720, Note_on_c, 3, 51, 0
5, 201720, Note_on_c, 3, 39, 48
5, 201750, Note_on_c, 3, 39, 0
5, 201750, Note_on_c, 3, 51, 48
5, 201780, Note_on_c, 3, 51, 0
5, 201780, Note_on_c, 3, 39, 48
5, 201810, Note_on_c, 3, 39, 0
5, 201810, Note_on_c, 3, 51, 48
5, 201840, Note_on_c, 3, 51, 0
5, 201840, Note_on_c, 3, 39, 48
5, 201870, Note_on_c, 3, 39, 0
5, 201870, Note_on_c, 3, 51, 48
5, 201900, Note_on_c, 3, 51, 0
5, 201900, Note_on_c, 3, 39, 48
5, 201930, Note_on_c, 3, 39, 0
5, 201930, Note_on_c, 3, 51, 48
5, 201960, Note_on_c, 3, 51, 0
5, 201960, Note_on_c, 3, 39, 48
5, 201990, Note_on_c, 3, 39, 0
5, 201990, Note_on_c, 3, 51, 48
5, 202020, Note_on_c, 3, 51, 0
5, 202020, Note_on_c, 3, 39, 48
5, 202050, Note_on_c, 3, 39, 0
5, 202050, Note_on_c, 3, 51, 48
5, 202080, Note_on_c, 3, 51, 0
5, 202080, Note_on_c, 3, 39, 48
5, 202110, Note_on_c, 3, 39, 0
5, 202110, Note_on_c, 3, 51, 48
5, 202140, Note_on_c, 3, 51, 0
5, 202140, Note_on_c, 3, 39, 48
5, 202170, Note_on_c, 3, 39, 0
5, 202170, Note_on_c, 3, 51, 48
5, 202200, Note_on_c, 3, 51, 0
5, 202200, Note_on_c, 3, 39, 48
5, 202230, Note_on_c, 3, 39, 0
5, 202230, Note_on_c, 3, 51, 48
5, 202260, Note_on_c, 3, 51, 0
5, 202260, Note_on_c, 3, 39, 48
5, 202290, Note_on_c, 3, 39, 0
5, 202290, Note_on_c, 3, 51, 48
5, 202320, Note_on_c, 3, 51, 0
5, 202320, Note_on_c, 3, 39, 48
5, 202350, Note_on_c, 3, 39, 0
5, 202350, Note_on_c, 3, 51, 48
5, 202380, Note_on_c, 3, 51, 0
5, 202380, Note_on_c, 3, 39, 48
5, 202410, Note_on_c, 3, 39, 0
5, 202410, Note_on_c, 3, 51, 48
5, 202440, Note_on_c, 3, 51, 0
5, 202440, Note_on_c, 3, 39, 48
5, 202470, Note_on_c, 3, 39, 0
5, 202470, Note_on_c, 3, 51, 48
5, 202500, Note_on_c, 3, 51, 0
5, 202500, Note_on_c, 3, 39, 48
5, 202530, Note_on_c, 3, 39, 0
5, 202530, Note_on_c, 3, 51, 48
5, 202560, Note_on_c, 3, 51, 0
5, 202560, Note_on_c, 3, 39, 48
5, 202590, Note_on_c, 3, 39, 0
5, 202590, Note_on_c, 3, 51, 48
5, 202620, Note_on_c, 3, 51, 0
5, 202620, Note_on_c, 3, 39, 48
5, 202650, Note_on_c, 3, 39, 0
5, 202650, Note_on_c, 3, 51, 48
5, 202680, Note_on_c, 3, 51, 0
5, 202680, Note_on_c, 3, 39, 48
5, 202710, Note_on_c, 3, 39, 0
5, 202710, Note_on_c, 3, 51, 48
5, 202740, Note_on_c, 3, 51, 0
5, 202740, Note_on_c, 3, 39, 48
5, 202770, Note_on_c, 3, 39, 0
5, 202770, Note_on_c, 3, 51, 48
5, 202800, Note_on_c, 3, 51, 0
5, 202800, Note_on_c, 3, 39, 48
5, 202830, Note_on_c, 3, 39, 0
5, 202830, Note_on_c, 3, 51, 48
5, 202860, Note_on_c, 3, 51, 0
5, 202860, Note_on_c, 3, 39, 48
5, 202890, Note_on_c, 3, 39, 0
5, 202890, Note_on_c, 3, 51, 48
5, 202920, Note_on_c, 3, 51, 0
5, 202920, Note_on_c, 3, 39, 48
5, 202950, Note_on_c, 3, 39, 0
5, 202950, Note_on_c, 3, 51, 48
5, 202980, Note_on_c, 3, 51, 0
5, 202980, Note_on_c, 3, 39, 48
5, 203010, Note_on_c, 3, 39, 0
5, 203010, Note_on_c, 3, 51, 48
5, 203040, Note_on_c, 3, 51, 0
5, 203040, Note_on_c, 3, 39, 48
5, 203070, Note_on_c, 3, 39, 0
5, 203070, Note_on_c, 3, 51, 48
5, 203100, Note_on_c, 3, 51, 0
5, 203100, Note_on_c, 3, 39, 48
5, 203130, Note_on_c, 3, 39, 0
5, 203130, Note_on_c, 3, 51, 48
5, 203160, Note_on_c, 3, 51, 0
5, 203160, Note_on_c, 3, 39, 48
5, 203190, Note_on_c, 3, 39, 0
5, 203190, Note_on_c, 3, 51, 48
5, 203220, Note_on_c, 3, 51, 0
5, 203220, Note_on_c, 3, 39, 48
5, 203250, Note_on_c, 3, 39, 0
5, 203250, Note_on_c, 3, 51, 48
5, 203280, Note_on_c, 3, 51, 0
5, 203280, Note_on_c, 3, 39, 48
5, 203310, Note_on_c, 3, 39, 0
5, 203310, Note_on_c, 3, 51, 48
5, 203340, Note_on_c, 3, 51, 0
5, 203340, Note_on_c, 3, 39, 48
5, 203370, Note_on_c, 3, 39, 0
5, 203370, Note_on_c, 3, 51, 48
5, 203400, Note_on_c, 3, 51, 0
5, 203400, Note_on_c, 3, 39, 48
5, 203430, Note_on_c, 3, 39, 0
5, 203430, Note_on_c, 3, 51, 48
5, 203460, Note_on_c, 3, 51, 0
5, 203460, Note_on_c, 3, 39, 48
5, 203490, Note_on_c, 3, 39, 0
5, 203490, Note_on_c, 3, 51, 48
5, 203520, Note_on_c, 3, 51, 0
5, 203520, Note_on_c, 3, 39, 48
5, 203550, Note_on_c, 3, 39, 0
5, 203550, Note_on_c, 3, 51, 48
5, 203580, Note_on_c, 3, 51, 0
5, 203580, Note_on_c, 3, 39, 48
5, 203610, Note_on_c, 3, 39, 0
5, 203610, Note_on_c, 3, 51, 48
5, 203640, Note_on_c, 3, 51, 0
5, 203640, Note_on_c, 3, 39, 48
5, 203670, Note_on_c, 3, 39, 0
5, 203670, Note_on_c, 3, 51, 48
5, 203700, Note_on_c, 3, 51, 0
5, 203700, Note_on_c, 3, 39, 48
5, 203730, Note_on_c, 3, 39, 0
5, 203730, Note_on_c, 3, 51, 48
5, 203760, Note_on_c, 3, 51, 0
5, 203760, Note_on_c, 3, 39, 48
5, 203790, Note_on_c, 3, 39, 0
5, 203790, Note_on_c, 3, 51, 48
5, 203820, Note_on_c, 3, 51, 0
5, 203820, Note_on_c, 3, 39, 48
5, 203850, Note_on_c, 3, 39, 0
5, 203850, Note_on_c, 3, 51, 48
5, 203880, Note_on_c, 3, 51, 0
5, 203880, Note_on_c, 3, 39, 48
5, 203910, Note_on_c, 3, 39, 0
5, 203910, Note_on_c, 3, 51, 48
5, 203940, Note_on_c, 3, 51, 0
5, 203940, Note_on_c, 3, 39, 48
5, 203970, Note_on_c, 3, 39, 0
5, 203970, Note_on_c, 3, 51, 48
5, 204000, Note_on_c, 3, 51, 0
5, 204000, Note_on_c, 3, 39, 48
5, 204030, Note_on_c, 3, 39, 0
5, 204030, Note_on_c, 3, 51, 48
5, 204060, Note_on_c, 3, 51, 0
5, 204060, Note_on_c, 3, 39, 48
5, 204090, Note_on_c, 3, 39, 0
5, 204090, Note_on_c, 3, 51, 48
5, 204120, Note_on_c, 3, 51, 0
5, 204120, Note_on_c, 3, 39, 48
5, 204150, Note_on_c, 3, 39, 0
5, 204150, Note_on_c, 3, 51, 48
5, 204180, Note_on_c, 3, 51, 0
5, 204180, Note_on_c, 3, 39, 48
5, 204210, Note_on_c, 3, 39, 0
5, 204210, Note_on_c, 3, 51, 48
5, 204240, Note_on_c, 3, 51, 0
5, 204240, Note_on_c, 3, 38, 48
5, 204270, Note_on_c, 3, 38, 0
5, 204270, Note_on_c, 3, 50, 48
5, 204300, Note_on_c, 3, 50, 0
5, 204300, Note_on_c, 3, 38, 48
5, 204330, Note_on_c, 3, 38, 0
5, 204330, Note_on_c, 3, 50, 48
5, 204360, Note_on_c, 3, 50, 0
5, 204360, Note_on_c, 3, 39, 48
5, 204390, Note_on_c, 3, 39, 0
5, 204390, Note_on_c, 3, 51, 48
5, 204420, Note_on_c, 3, 51, 0
5, 204420, Note_on_c, 3, 39, 48
5, 204450, Note_on_c, 3, 39, 0
5, 204450, Note_on_c, 3, 51, 48
5, 204480, Note_on_c, 3, 51, 0
5, 204480, Note_on_c, 3, 34, 48
5, 204510, Note_on_c, 3, 34, 0
5, 204510, Note_on_c, 3, 46, 48
5, 204540, Note_on_c, 3, 46, 0
5, 204540, Note_on_c, 3, 34, 48
5, 204570, Note_on_c, 3, 34, 0
5, 204570, Note_on_c, 3, 46, 48
5, 204600, Note_on_c, 3, 46, 0
5, 204600, Note_on_c, 3, 34, 48
5, 204630, Note_on_c, 3, 34, 0
5, 204630, Note_on_c, 3, 46, 48
5, 204660, Note_on_c, 3, 46, 0
5, 204660, Note_on_c, 3, 34, 48
5, 204690, Note_on_c, 3, 34, 0
5, 204690, Note_on_c, 3, 46, 48
5, 204720, Note_on_c, 3, 46, 0
5, 204720, Note_on_c, 3, 34, 48
5, 204750, Note_on_c, 3, 34, 0
5, 204750, Note_on_c, 3, 46, 48
5, 204780, Note_on_c, 3, 46, 0
5, 204780, Note_on_c, 3, 34, 48
5, 204810, Note_on_c, 3, 34, 0
5, 204810, Note_on_c, 3, 46, 48
5, 204840, Note_on_c, 3, 46, 0
5, 204840, Note_on_c, 3, 34, 48
5, 204870, Note_on_c, 3, 34, 0
5, 204870, Note_on_c, 3, 46, 48
5, 204900, Note_on_c, 3, 46, 0
5, 204900, Note_on_c, 3, 34, 48
5, 204930, Note_on_c, 3, 34, 0
5, 204930, Note_on_c, 3, 46, 48
5, 204960, Note_on_c, 3, 46, 0
5, 204960, Note_on_c, 3, 34, 48
5, 204990, Note_on_c, 3, 34, 0
5, 204990, Note_on_c, 3, 46, 48
5, 205020, Note_on_c, 3, 46, 0
5, 205020, Note_on_c, 3, 34, 48
5, 205050, Note_on_c, 3, 34, 0
5, 205050, Note_on_c, 3, 46, 48
5, 205080, Note_on_c, 3, 46, 0
5, 205080, Note_on_c, 3, 34, 48
5, 205110, Note_on_c, 3, 34, 0
5, 205110, Note_on_c, 3, 46, 48
5, 205140, Note_on_c, 3, 46, 0
5, 205140, Note_on_c, 3, 34, 48
5, 205170, Note_on_c, 3, 34, 0
5, 205170, Note_on_c, 3, 46, 48
5, 205200, Note_on_c, 3, 46, 0
5, 205200, Note_on_c, 3, 34, 48
5, 205230, Note_on_c, 3, 34, 0
5, 205230, Note_on_c, 3, 46, 48
5, 205260, Note_on_c, 3, 46, 0
5, 205260, Note_on_c, 3, 34, 48
5, 205290, Note_on_c, 3, 34, 0
5, 205290, Note_on_c, 3, 46, 48
5, 205320, Note_on_c, 3, 46, 0
5, 205320, Note_on_c, 3, 34, 48
5, 205350, Note_on_c, 3, 34, 0
5, 205350, Note_on_c, 3, 46, 48
5, 205380, Note_on_c, 3, 46, 0
5, 205380, Note_on_c, 3, 34, 48
5, 205410, Note_on_c, 3, 34, 0
5, 205410, Note_on_c, 3, 46, 48
5, 205440, Note_on_c, 3, 46, 0
5, 205440, Note_on_c, 3, 33, 48
5, 205470, Note_on_c, 3, 33, 0
5, 205470, Note_on_c, 3, 45, 48
5, 205500, Note_on_c, 3, 45, 0
5, 205500, Note_on_c, 3, 33, 48
5, 205530, Note_on_c, 3, 33, 0
5, 205530, Note_on_c, 3, 45, 48
5, 205560, Note_on_c, 3, 45, 0
5, 205560, Note_on_c, 3, 33, 48
5, 205590, Note_on_c, 3, 33, 0
5, 205590, Note_on_c, 3, 45, 48
5, 205620, Note_on_c, 3, 45, 0
5, 205620, Note_on_c, 3, 33, 48
5, 205650, Note_on_c, 3, 33, 0
5, 205650, Note_on_c, 3, 45, 48
5, 205680, Note_on_c, 3, 45, 0
5, 205680, Note_on_c, 3, 33, 48
5, 205710, Note_on_c, 3, 33, 0
5, 205710, Note_on_c, 3, 45, 48
5, 205740, Note_on_c, 3, 45, 0
5, 205740, Note_on_c, 3, 33, 48
5, 205770, Note_on_c, 3, 33, 0
5, 205770, Note_on_c, 3, 45, 48
5, 205800, Note_on_c, 3, 45, 0
5, 205800, Note_on_c, 3, 33, 48
5, 205830, Note_on_c, 3, 33, 0
5, 205830, Note_on_c, 3, 45, 48
5, 205860, Note_on_c, 3, 45, 0
5, 205860, Note_on_c, 3, 33, 48
5, 205890, Note_on_c, 3, 33, 0
5, 205890, Note_on_c, 3, 45, 48
5, 205920, Note_on_c, 3, 45, 0
5, 205920, Note_on_c, 3, 34, 48
5, 205950, Note_on_c, 3, 34, 0
5, 205950, Note_on_c, 3, 46, 48
5, 205980, Note_on_c, 3, 46, 0
5, 205980, Note_on_c, 3, 34, 48
5, 206010, Note_on_c, 3, 34, 0
5, 206010, Note_on_c, 3, 46, 48
5, 206040, Note_on_c, 3, 46, 0
5, 206040, Note_on_c, 3, 34, 48
5, 206070, Note_on_c, 3, 34, 0
5, 206070, Note_on_c, 3, 46, 48
5, 206100, Note_on_c, 3, 46, 0
5, 206100, Note_on_c, 3, 34, 48
5, 206130, Note_on_c, 3, 34, 0
5, 206130, Note_on_c, 3, 46, 48
5, 206160, Note_on_c, 3, 46, 0
5, 206160, Note_on_c, 3, 35, 48
5, 206190, Note_on_c, 3, 35, 0
5, 206190, Note_on_c, 3, 47, 48
5, 206220, Note_on_c, 3, 47, 0
5, 206220, Note_on_c, 3, 35, 48
5, 206250, Note_on_c, 3, 35, 0
5, 206250, Note_on_c, 3, 47, 48
5, 206280, Note_on_c, 3, 47, 0
5, 206280, Note_on_c, 3, 35, 48
5, 206310, Note_on_c, 3, 35, 0
5, 206310, Note_on_c, 3, 47, 48
5, 206340, Note_on_c, 3, 47, 0
5, 206340, Note_on_c, 3, 35, 48
5, 206370, Note_on_c, 3, 35, 0
5, 206370, Note_on_c, 3, 47, 48
5, 206400, Note_on_c, 3, 47, 0
5, 206400, Note_on_c, 3, 36, 48
5, 206430, Note_on_c, 3, 36, 0
5, 206430, Note_on_c, 3, 48, 48
5, 206460, Note_on_c, 3, 48, 0
5, 206460, Note_on_c, 3, 36, 48
5, 206490, Note_on_c, 3, 36, 0
5, 206490, Note_on_c, 3, 48, 48
5, 206520, Note_on_c, 3, 48, 0
5, 206520, Note_on_c, 3, 36, 48
5, 206550, Note_on_c, 3, 36, 0
5, 206550, Note_on_c, 3, 48, 48
5, 206580, Note_on_c, 3, 48, 0
5, 206580, Note_on_c, 3, 36, 48
5, 206610, Note_on_c, 3, 36, 0
5, 206610, Note_on_c, 3, 48, 48
5, 206640, Note_on_c, 3, 48, 0
5, 206640, Note_on_c, 3, 36, 48
5, 206670, Note_on_c, 3, 36, 0
5, 206670, Note_on_c, 3, 48, 48
5, 206700, Note_on_c, 3, 48, 0
5, 206700, Note_on_c, 3, 36, 48
5, 206730, Note_on_c, 3, 36, 0
5, 206730, Note_on_c, 3, 48, 48
5, 206760, Note_on_c, 3, 48, 0
5, 206760, Note_on_c, 3, 36, 48
5, 206790, Note_on_c, 3, 36, 0
5, 206790, Note_on_c, 3, 48, 48
5, 206820, Note_on_c, 3, 48, 0
5, 206820, Note_on_c, 3, 36, 48
5, 206850, Note_on_c, 3, 36, 0
5, 206850, Note_on_c, 3, 48, 48
5, 206880, Note_on_c, 3, 48, 0
5, 206880, Note_on_c, 3, 34, 48
5, 206910, Note_on_c, 3, 34, 0
5, 206910, Note_on_c, 3, 46, 48
5, 206940, Note_on_c, 3, 46, 0
5, 206940, Note_on_c, 3, 34, 48
5, 206970, Note_on_c, 3, 34, 0
5, 206970, Note_on_c, 3, 46, 48
5, 207000, Note_on_c, 3, 46, 0
5, 207000, Note_on_c, 3, 34, 48
5, 207030, Note_on_c, 3, 34, 0
5, 207030, Note_on_c, 3, 46, 48
5, 207060, Note_on_c, 3, 46, 0
5, 207060, Note_on_c, 3, 34, 48
5, 207090, Note_on_c, 3, 34, 0
5, 207090, Note_on_c, 3, 46, 48
5, 207120, Note_on_c, 3, 46, 0
5, 207120, Note_on_c, 3, 34, 48
5, 207150, Note_on_c, 3, 34, 0
5, 207150, Note_on_c, 3, 46, 48
5, 207180, Note_on_c, 3, 46, 0
5, 207180, Note_on_c, 3, 34, 48
5, 207210, Note_on_c, 3, 34, 0
5, 207210, Note_on_c, 3, 46, 48
5, 207240, Note_on_c, 3, 46, 0
5, 207240, Note_on_c, 3, 34, 48
5, 207270, Note_on_c, 3, 34, 0
5, 207270, Note_on_c, 3, 46, 48
5, 207300, Note_on_c, 3, 46, 0
5, 207300, Note_on_c, 3, 34, 48
5, 207330, Note_on_c, 3, 34, 0
5, 207330, Note_on_c, 3, 46, 48
5, 207360, Note_on_c, 3, 46, 0
5, 207360, Note_on_c, 3, 32, 48
5, 207390, Note_on_c, 3, 32, 0
5, 207390, Note_on_c, 3, 44, 48
5, 207420, Note_on_c, 3, 44, 0
5, 207420, Note_on_c, 3, 32, 48
5, 207450, Note_on_c, 3, 32, 0
5, 207450, Note_on_c, 3, 44, 48
5, 207480, Note_on_c, 3, 44, 0
5, 207480, Note_on_c, 3, 32, 48
5, 207510, Note_on_c, 3, 32, 0
5, 207510, Note_on_c, 3, 44, 48
5, 207540, Note_on_c, 3, 44, 0
5, 207540, Note_on_c, 3, 32, 48
5, 207570, Note_on_c, 3, 32, 0
5, 207570, Note_on_c, 3, 44, 48
5, 207600, Note_on_c, 3, 44, 0
5, 207600, Note_on_c, 3, 32, 48
5, 207630, Note_on_c, 3, 32, 0
5, 207630, Note_on_c, 3, 44, 48
5, 207660, Note_on_c, 3, 44, 0
5, 207660, Note_on_c, 3, 32, 48
5, 207690, Note_on_c, 3, 32, 0
5, 207690, Note_on_c, 3, 44, 48
5, 207720, Note_on_c, 3, 44, 0
5, 207720, Note_on_c, 3, 32, 48
5, 207750, Note_on_c, 3, 32, 0
5, 207750, Note_on_c, 3, 44, 48
5, 207780, Note_on_c, 3, 44, 0
5, 207780, Note_on_c, 3, 32, 48
5, 207810, Note_on_c, 3, 32, 0
5, 207810, Note_on_c, 3, 44, 48
5, 207840, Note_on_c, 3, 44, 0
5, 207840, Note_on_c, 3, 31, 80
5, 207897, Note_on_c, 3, 31, 0
5, 207900, Note_on_c, 3, 34, 80
5, 207957, Note_on_c, 3, 34, 0
5, 207960, Note_on_c, 3, 39, 80
5, 208017, Note_on_c, 3, 39, 0
5, 208020, Note_on_c, 3, 43, 80
5, 208077, Note_on_c, 3, 43, 0
5, 208080, Note_on_c, 3, 32, 80
5, 208137, Note_on_c, 3, 32, 0
5, 208140, Note_on_c, 3, 36, 80
5, 208197, Note_on_c, 3, 36, 0
5, 208200, Note_on_c, 3, 41, 80
5, 208257, Note_on_c, 3, 41, 0
5, 208260, Note_on_c, 3, 44, 80
5, 208317, Note_on_c, 3, 44, 0
5, 208320, Note_on_c, 3, 34, 80
5, 208368, Note_on_c, 3, 34, 0
5, 208380, Note_on_c, 3, 39, 80
5, 208428, Note_on_c, 3, 39, 0
5, 208440, Note_on_c, 3, 43, 80
5, 208488, Note_on_c, 3, 43, 0
5, 208500, Note_on_c, 3, 46, 80
5, 208548, Note_on_c, 3, 46, 0
5, 208560, Note_on_c, 3, 34, 80
5, 208608, Note_on_c, 3, 34, 0
5, 208620, Note_on_c, 3, 38, 80
5, 208668, Note_on_c, 3, 38, 0
5, 208680, Note_on_c, 3, 41, 80
5, 208728, Note_on_c, 3, 41, 0
5, 208740, Note_on_c, 3, 46, 80
5, 208788, Note_on_c, 3, 46, 0
5, 208800, Note_on_c, 3, 51, 80
5, 208848, Note_on_c, 3, 51, 0
5, 208860, Note_on_c, 3, 50, 80
5, 208908, Note_on_c, 3, 50, 0
5, 208920, Note_on_c, 3, 51, 80
5, 208968, Note_on_c, 3, 51, 0
5, 208980, Note_on_c, 3, 50, 80
5, 209028, Note_on_c, 3, 50, 0
5, 209040, Note_on_c, 3, 51, 80
5, 209088, Note_on_c, 3, 51, 0
5, 209100, Note_on_c, 3, 46, 80
5, 209148, Note_on_c, 3, 46, 0
5, 209160, Note_on_c, 3, 43, 80
5, 209208, Note_on_c, 3, 43, 0
5, 209220, Note_on_c, 3, 39, 80
5, 209268, Note_on_c, 3, 39, 0
5, 209280, Note_on_c, 3, 34, 48
5, 209310, Note_on_c, 3, 34, 0
5, 209310, Note_on_c, 3, 46, 48
5, 209340, Note_on_c, 3, 46, 0
5, 209340, Note_on_c, 3, 34, 48
5, 209370, Note_on_c, 3, 34, 0
5, 209370, Note_on_c, 3, 46, 48
5, 209400, Note_on_c, 3, 46, 0
5, 209400, Note_on_c, 3, 34, 48
5, 209430, Note_on_c, 3, 34, 0
5, 209430, Note_on_c, 3, 46, 48
5, 209460, Note_on_c, 3, 46, 0
5, 209460, Note_on_c, 3, 34, 48
5, 209490, Note_on_c, 3, 34, 0
5, 209490, Note_on_c, 3, 46, 48
5, 209520, Note_on_c, 3, 46, 0
5, 209520, Note_on_c, 3, 35, 48
5, 209550, Note_on_c, 3, 35, 0
5, 209550, Note_on_c, 3, 47, 48
5, 209580, Note_on_c, 3, 47, 0
5, 209580, Note_on_c, 3, 35, 48
5, 209610, Note_on_c, 3, 35, 0
5, 209610, Note_on_c, 3, 47, 48
5, 209640, Note_on_c, 3, 47, 0
5, 209640, Note_on_c, 3, 35, 48
5, 209670, Note_on_c, 3, 35, 0
5, 209670, Note_on_c, 3, 47, 48
5, 209700, Note_on_c, 3, 47, 0
5, 209700, Note_on_c, 3, 35, 48
5, 209730, Note_on_c, 3, 35, 0
5, 209730, Note_on_c, 3, 47, 48
5, 209760, Note_on_c, 3, 47, 0
5, 209760, Note_on_c, 3, 34, 48
5, 209790, Note_on_c, 3, 34, 0
5, 209790, Note_on_c, 3, 46, 48
5, 209820, Note_on_c, 3, 46, 0
5, 209820, Note_on_c, 3, 34, 48
5, 209850, Note_on_c, 3, 34, 0
5, 209850, Note_on_c, 3, 46, 48
5, 209880, Note_on_c, 3, 46, 0
5, 209880, Note_on_c, 3, 34, 48
5, 209910, Note_on_c, 3, 34, 0
5, 209910, Note_on_c, 3, 46, 48
5, 209940, Note_on_c, 3, 46, 0
5, 209940, Note_on_c, 3, 34, 48
5, 209970, Note_on_c, 3, 34, 0
5, 209970, Note_on_c, 3, 46, 48
5, 210000, Note_on_c, 3, 46, 0
5, 210000, Note_on_c, 3, 32, 48
5, 210030, Note_on_c, 3, 32, 0
5, 210030, Note_on_c, 3, 44, 48
5, 210060, Note_on_c, 3, 44, 0
5, 210060, Note_on_c, 3, 32, 48
5, 210090, Note_on_c, 3, 32, 0
5, 210090, Note_on_c, 3, 44, 48
5, 210120, Note_on_c, 3, 44, 0
5, 210120, Note_on_c, 3, 32, 48
5, 210150, Note_on_c, 3, 32, 0
5, 210150, Note_on_c, 3, 44, 48
5, 210180, Note_on_c, 3, 44, 0
5, 210180, Note_on_c, 3, 32, 48
5, 210210, Note_on_c, 3, 32, 0
5, 210210, Note_on_c, 3, 44, 48
5, 210240, Note_on_c, 3, 44, 0
5, 210240, Note_on_c, 3, 31, 80
5, 210288, Note_on_c, 3, 31, 0
5, 210300, Note_on_c, 3, 34, 80
5, 210348, Note_on_c, 3, 34, 0
5, 210360, Note_on_c, 3, 39, 80
5, 210408, Note_on_c, 3, 39, 0
5, 210420, Note_on_c, 3, 43, 80
5, 210468, Note_on_c, 3, 43, 0
5, 210480, Note_on_c, 3, 32, 80
5, 210528, Note_on_c, 3, 32, 0
5, 210540, Note_on_c, 3, 36, 80
5, 210588, Note_on_c, 3, 36, 0
5, 210600, Note_on_c, 3, 41, 80
5, 210648, Note_on_c, 3, 41, 0
5, 210660, Note_on_c, 3, 44, 80
5, 210708, Note_on_c, 3, 44, 0
5, 210720, Note_on_c, 3, 34, 80
5, 210768, Note_on_c, 3, 34, 0
5, 210780, Note_on_c, 3, 39, 80
5, 210828, Note_on_c, 3, 39, 0
5, 210840, Note_on_c, 3, 43, 80
5, 210888, Note_on_c, 3, 43, 0
5, 210900, Note_on_c, 3, 46, 80
5, 210948, Note_on_c, 3, 46, 0
5, 210960, Note_on_c, 3, 34, 80
5, 211008, Note_on_c, 3, 34, 0
5, 211020, Note_on_c, 3, 38, 80
5, 211068, Note_on_c, 3, 38, 0
5, 211080, Note_on_c, 3, 41, 80
5, 211128, Note_on_c, 3, 41, 0
5, 211140, Note_on_c, 3, 46, 80
5, 211188, Note_on_c, 3, 46, 0
5, 211200, Note_on_c, 3, 39, 80
5, 211248, Note_on_c, 3, 39, 0
5, 211260, Note_on_c, 3, 43, 80
5, 211308, Note_on_c, 3, 43, 0
5, 211320, Note_on_c, 3, 46, 80
5, 211368, Note_on_c, 3, 46, 0
5, 211380, Note_on_c, 3, 51, 80
5, 211428, Note_on_c, 3, 51, 0
5, 211440, Note_on_c, 3, 39, 80
5, 211536, Note_on_c, 3, 39, 0
5, 211680, Note_on_c, 3, 51, 56
5, 212160, Note_on_c, 3, 51, 0
5, 212160, Note_on_c, 3, 51, 56
5, 212400, Note_on_c, 3, 51, 0
5, 212640, Note_on_c, 3, 51, 56
5, 213120, Note_on_c, 3, 51, 0
5, 213120, Note_on_c, 3, 51, 56
5, 213360, Note_on_c, 3, 51, 0
5, 215520, Note_on_c, 3, 51, 56
5, 216000, Note_on_c, 3, 51, 0
5, 216000, Note_on_c, 3, 53, 56
5, 216240, Note_on_c, 3, 53, 0
5, 216240, Note_on_c, 3, 46, 56
5, 216480, Note_on_c, 3, 46, 0
5, 216480, Note_on_c, 3, 51, 56
5, 216960, Note_on_c, 3, 51, 0
5, 216960, Note_on_c, 3, 53, 56
5, 217200, Note_on_c, 3, 53, 0
5, 217200, Note_on_c, 3, 46, 56
5, 217440, Note_on_c, 3, 46, 0
5, 218520, Note_on_c, 3, 46, 56
5, 218640, Note_on_c, 3, 46, 0
5, 218640, Note_on_c, 3, 46, 56
5, 218760, Note_on_c, 3, 46, 0
5, 218760, Note_on_c, 3, 46, 56
5, 218880, Note_on_c, 3, 46, 0
5, 218880, Note_on_c, 3, 46, 56
5, 219000, Note_on_c, 3, 46, 0
5, 219000, Note_on_c, 3, 46, 56
5, 219120, Note_on_c, 3, 46, 0
5, 219120, Note_on_c, 3, 41, 56
5, 219240, Note_on_c, 3, 41, 0
5, 219240, Note_on_c, 3, 38, 56
5, 219360, Note_on_c, 3, 38, 0
5, 219360, Note_on_c, 3, 34, 56
5, 219420, Note_on_c, 3, 34, 0
5, 219420, Note_on_c, 3, 46, 56
5, 219480, Note_on_c, 3, 46, 0
5, 219480, Note_on_c, 3, 46, 56
5, 219540, Note_on_c, 3, 46, 0
5, 219540, Note_on_c, 3, 46, 56
5, 219600, Note_on_c, 3, 46, 0
5, 219600, Note_on_c, 3, 38, 56
5, 219660, Note_on_c, 3, 38, 0
5, 219660, Note_on_c, 3, 46, 56
5, 219720, Note_on_c, 3, 46, 0
5, 219720, Note_on_c, 3, 46, 56
5, 219780, Note_on_c, 3, 46, 0
5, 219780, Note_on_c, 3, 46, 56
5, 219840, Note_on_c, 3, 46, 0
5, 219840, Note_on_c, 3, 41, 56
5, 219900, Note_on_c, 3, 41, 0
5, 219900, Note_on_c, 3, 46, 56
5, 219960, Note_on_c, 3, 46, 0
5, 219960, Note_on_c, 3, 46, 56
5, 220020, Note_on_c, 3, 46, 0
5, 220020, Note_on_c, 3, 46, 56
5, 220080, Note_on_c, 3, 46, 0
5, 220080, Note_on_c, 3, 34, 56
5, 220140, Note_on_c, 3, 34, 0
5, 220140, Note_on_c, 3, 46, 56
5, 220200, Note_on_c, 3, 46, 0
5, 220200, Note_on_c, 3, 46, 56
5, 220260, Note_on_c, 3, 46, 0
5, 220260, Note_on_c, 3, 46, 56
5, 220320, Note_on_c, 3, 46, 0
5, 220320, Note_on_c, 3, 39, 56
5, 220368, Note_on_c, 3, 39, 0
5, 220380, Note_on_c, 3, 46, 56
5, 220428, Note_on_c, 3, 46, 0
5, 220440, Note_on_c, 3, 46, 56
5, 220488, Note_on_c, 3, 46, 0
5, 220500, Note_on_c, 3, 46, 56
5, 220548, Note_on_c, 3, 46, 0
5, 220560, Note_on_c, 3, 43, 56
5, 220608, Note_on_c, 3, 43, 0
5, 220620, Note_on_c, 3, 46, 56
5, 220668, Note_on_c, 3, 46, 0
5, 220680, Note_on_c, 3, 46, 56
5, 220728, Note_on_c, 3, 46, 0
5, 220740, Note_on_c, 3, 46, 56
5, 220788, Note_on_c, 3, 46, 0
5, 220800, Note_on_c, 3, 39, 56
5, 220848, Note_on_c, 3, 39, 0
5, 220860, Note_on_c, 3, 46, 56
5, 220908, Note_on_c, 3, 46, 0
5, 220920, Note_on_c, 3, 46, 56
5, 220968, Note_on_c, 3, 46, 0
5, 220980, Note_on_c, 3, 46, 56
5, 221028, Note_on_c, 3, 46, 0
5, 221040, Note_on_c, 3, 43, 56
5, 221088, Note_on_c, 3, 43, 0
5, 221100, Note_on_c, 3, 46, 56
5, 221148, Note_on_c, 3, 46, 0
5, 221160, Note_on_c, 3, 46, 56
5, 221208, Note_on_c, 3, 46, 0
5, 221220, Note_on_c, 3, 46, 56
5, 221268, Note_on_c, 3, 46, 0
5, 221280, Note_on_c, 3, 34, 56
5, 221320, Note_on_c, 3, 34, 0
5, 221320, Note_on_c, 3, 46, 56
5, 221360, Note_on_c, 3, 46, 0
5, 221360, Note_on_c, 3, 46, 56
5, 221400, Note_on_c, 3, 46, 0
5, 221400, Note_on_c, 3, 46, 56
5, 221440, Note_on_c, 3, 46, 0
5, 221440, Note_on_c, 3, 46, 56
5, 221480, Note_on_c, 3, 46, 0
5, 221480, Note_on_c, 3, 46, 56
5, 221520, Note_on_c, 3, 46, 0
5, 221520, Note_on_c, 3, 38, 56
5, 221560, Note_on_c, 3, 38, 0
5, 221560, Note_on_c, 3, 46, 56
5, 221600, Note_on_c, 3, 46, 0
5, 221600, Note_on_c, 3, 46, 56
5, 221640, Note_on_c, 3, 46, 0
5, 221640, Note_on_c, 3, 46, 56
5, 221680, Note_on_c, 3, 46, 0
5, 221680, Note_on_c, 3, 46, 56
5, 221720, Note_on_c, 3, 46, 0
5, 221720, Note_on_c, 3, 46, 56
5, 221760, Note_on_c, 3, 46, 0
5, 221760, Note_on_c, 3, 41, 56
5, 221800, Note_on_c, 3, 41, 0
5, 221800, Note_on_c, 3, 46, 56
5, 221840, Note_on_c, 3, 46, 0
5, 221840, Note_on_c, 3, 46, 56
5, 221880, Note_on_c, 3, 46, 0
5, 221880, Note_on_c, 3, 46, 56
5, 221920, Note_on_c, 3, 46, 0
5, 221920, Note_on_c, 3, 46, 56
5, 221960, Note_on_c, 3, 46, 0
5, 221960, Note_on_c, 3, 46, 56
5, 222000, Note_on_c, 3, 46, 0
5, 222000, Note_on_c, 3, 34, 56
5, 222040, Note_on_c, 3, 34, 0
5, 222040, Note_on_c, 3, 46, 56
5, 222080, Note_on_c, 3, 46, 0
5, 222080, Note_on_c, 3, 46, 56
5, 222120, Note_on_c, 3, 46, 0
5, 222120, Note_on_c, 3, 46, 56
5, 222160, Note_on_c, 3, 46, 0
5, 222160, Note_on_c, 3, 46, 56
5, 222200, Note_on_c, 3, 46, 0
5, 222200, Note_on_c, 3, 46, 56
5, 222240, Note_on_c, 3, 46, 0
5, 222240, Note_on_c, 3, 39, 56
5, 222280, Note_on_c, 3, 39, 0
5, 222280, Note_on_c, 3, 46, 56
5, 222320, Note_on_c, 3, 46, 0
5, 222320, Note_on_c, 3, 46, 56
5, 222360, Note_on_c, 3, 46, 0
5, 222360, Note_on_c, 3, 46, 56
5, 222400, Note_on_c, 3, 46, 0
5, 222400, Note_on_c, 3, 46, 56
5, 222440, Note_on_c, 3, 46, 0
5, 222440, Note_on_c, 3, 46, 56
5, 222480, Note_on_c, 3, 46, 0
5, 222480, Note_on_c, 3, 43, 56
5, 222520, Note_on_c, 3, 43, 0
5, 222520, Note_on_c, 3, 46, 56
5, 222560, Note_on_c, 3, 46, 0
5, 222560, Note_on_c, 3, 46, 56
5, 222600, Note_on_c, 3, 46, 0
5, 222600, Note_on_c, 3, 46, 56
5, 222640, Note_on_c, 3, 46, 0
5, 222640, Note_on_c, 3, 46, 56
5, 222680, Note_on_c, 3, 46, 0
5, 222680, Note_on_c, 3, 46, 56
5, 222720, Note_on_c, 3, 46, 0
5, 222720, Note_on_c, 3, 39, 56
5, 223056, Note_on_c, 3, 39, 0
5, 223320, Note_on_c, 3, 58, 56
5, 223440, Note_on_c, 3, 58, 0
5, 223440, Note_on_c, 3, 58, 56
5, 223560, Note_on_c, 3, 58, 0
5, 223560, Note_on_c, 3, 58, 56
5, 223680, Note_on_c, 3, 58, 0
5, 223680, Note_on_c, 3, 58, 56
5, 224160, Note_on_c, 3, 58, 0
5, 224280, Note_on_c, 3, 56, 56
5, 224400, Note_on_c, 3, 56, 0
5, 224400, Note_on_c, 3, 56, 56
5, 224520, Note_on_c, 3, 56, 0
5, 224520, Note_on_c, 3, 56, 56
5, 224640, Note_on_c, 3, 56, 0
5, 224640, Note_on_c, 3, 56, 56
5, 225120, Note_on_c, 3, 56, 0
5, 225120, Note_on_c, 3, 55, 56
5, 225360, Note_on_c, 3, 55, 0
5, 225600, Note_on_c, 3, 56, 56
5, 226080, Note_on_c, 3, 56, 0
5, 226200, Note_on_c, 3, 58, 56
5, 226320, Note_on_c, 3, 58, 0
5, 226320, Note_on_c, 3, 58, 56
5, 226440, Note_on_c, 3, 58, 0
5, 226440, Note_on_c, 3, 58, 56
5, 226560, Note_on_c, 3, 58, 0
5, 226680, Note_on_c, 3, 59, 56
5, 226800, Note_on_c, 3, 59, 0
5, 226800, Note_on_c, 3, 59, 56
5, 226920, Note_on_c, 3, 59, 0
5, 226920, Note_on_c, 3, 59, 56
5, 227040, Note_on_c, 3, 59, 0
5, 227040, Note_on_c, 3, 60, 56
5, 227280, Note_on_c, 3, 60, 0
5, 227280, Note_on_c, 3, 60, 56
5, 227400, Note_on_c, 3, 60, 0
5, 227520, Note_on_c, 3, 48, 56
5, 228000, Note_on_c, 3, 48, 0
5, 228120, Note_on_c, 3, 46, 56
5, 228240, Note_on_c, 3, 46, 0
5, 228240, Note_on_c, 3, 46, 56
5, 228360, Note_on_c, 3, 46, 0
5, 228360, Note_on_c, 3, 46, 56
5, 228480, Note_on_c, 3, 46, 0
5, 228480, Note_on_c, 3, 46, 56
5, 228960, Note_on_c, 3, 46, 0
5, 229080, Note_on_c, 3, 44, 56
5, 229176, Note_on_c, 3, 44, 0
5, 229200, Note_on_c, 3, 44, 56
5, 229296, Note_on_c, 3, 44, 0
5, 229320, Note_on_c, 3, 44, 56
5, 229416, Note_on_c, 3, 44, 0
5, 229440, Note_on_c, 3, 44, 56
5, 229824, Note_on_c, 3, 44, 0
5, 229920, Note_on_c, 3, 43, 56
5, 230400, Note_on_c, 3, 43, 0
5, 230400, Note_on_c, 3, 44, 56
5, 230880, Note_on_c, 3, 44, 0
5, 230880, Note_on_c, 3, 58, 56
5, 231120, Note_on_c, 3, 58, 0
5, 231120, Note_on_c, 3, 58, 56
5, 231360, Note_on_c, 3, 58, 0
5, 231360, Note_on_c, 3, 58, 56
5, 231600, Note_on_c, 3, 58, 0
5, 231600, Note_on_c, 3, 58, 56
5, 231720, Note_on_c, 3, 58, 0
5, 231840, Note_on_c, 3, 63, 56
5, 232080, Note_on_c, 3, 63, 0
5, 232080, Note_on_c, 3, 58, 56
5, 232320, Note_on_c, 3, 58, 0
5, 232320, Note_on_c, 3, 51, 56
5, 232560, Note_on_c, 3, 51, 0
5, 232800, Note_on_c, 3, 39, 72
5, 233376, Note_on_c, 3, 39, 0
5, 233520, Note_on_c, 3, 39, 72
5, 234096, Note_on_c, 3, 39, 0
5, 234240, Note_on_c, 3, 34, 72
5, 234360, Note_on_c, 3, 34, 0
5, 234360, Note_on_c, 3, 46, 64
5, 234408, Note_on_c, 3, 46, 0
5, 234480, Note_on_c, 3, 38, 64
5, 234528, Note_on_c, 3, 38, 0
5, 234600, Note_on_c, 3, 46, 64
5, 234648, Note_on_c, 3, 46, 0
5, 234720, Note_on_c, 3, 39, 64
5, 234768, Note_on_c, 3, 39, 0
5, 234840, Note_on_c, 3, 46, 64
5, 234888, Note_on_c, 3, 46, 0
5, 234960, Note_on_c, 3, 38, 72
5, 235056, Note_on_c, 3, 38, 0
5, 235080, Note_on_c, 3, 46, 64
5, 235128, Note_on_c, 3, 46, 0
5, 235200, Note_on_c, 3, 34, 64
5, 235248, Note_on_c, 3, 34, 0
5, 235320, Note_on_c, 3, 46, 64
5, 235368, Note_on_c, 3, 46, 0
5, 235440, Note_on_c, 3, 39, 64
5, 235488, Note_on_c, 3, 39, 0
5, 235560, Note_on_c, 3, 46, 64
5, 235608, Note_on_c, 3, 46, 0
5, 235680, Note_on_c, 3, 39, 72
5, 235776, Note_on_c, 3, 39, 0
5, 235800, Note_on_c, 3, 51, 64
5, 235848, Note_on_c, 3, 51, 0
5, 235920, Note_on_c, 3, 43, 64
5, 235968, Note_on_c, 3, 43, 0
5, 236040, Note_on_c, 3, 55, 64
5, 236088, Note_on_c, 3, 55, 0
5, 236160, Note_on_c, 3, 46, 64
5, 236208, Note_on_c, 3, 46, 0
5, 236280, Note_on_c, 3, 58, 64
5, 236328, Note_on_c, 3, 58, 0
5, 236400, Note_on_c, 3, 39, 72
5, 236496, Note_on_c, 3, 39, 0
5, 236520, Note_on_c, 3, 51, 64
5, 236568, Note_on_c, 3, 51, 0
5, 236640, Note_on_c, 3, 43, 64
5, 236688, Note_on_c, 3, 43, 0
5, 236760, Note_on_c, 3, 55, 64
5, 236808, Note_on_c, 3, 55, 0
5, 236880, Note_on_c, 3, 46, 64
5, 236928, Note_on_c, 3, 46, 0
5, 237000, Note_on_c, 3, 58, 64
5, 237048, Note_on_c, 3, 58, 0
5, 237120, Note_on_c, 3, 39, 72
5, 237240, Note_on_c, 3, 39, 0
5, 237240, Note_on_c, 3, 51, 64
5, 237288, Note_on_c, 3, 51, 0
5, 237360, Note_on_c, 3, 38, 64
5, 237408, Note_on_c, 3, 38, 0
5, 237480, Note_on_c, 3, 50, 64
5, 237528, Note_on_c, 3, 50, 0
5, 237600, Note_on_c, 3, 39, 64
5, 237648, Note_on_c, 3, 39, 0
5, 237720, Note_on_c, 3, 51, 64
5, 237768, Note_on_c, 3, 51, 0
5, 237840, Note_on_c, 3, 34, 72
5, 237936, Note_on_c, 3, 34, 0
5, 237960, Note_on_c, 3, 45, 64
5, 238056, Note_on_c, 3, 45, 0
5, 238080, Note_on_c, 3, 46, 64
5, 238176, Note_on_c, 3, 46, 0
5, 238200, Note_on_c, 3, 45, 64
5, 238296, Note_on_c, 3, 45, 0
5, 238320, Note_on_c, 3, 46, 64
5, 238512, Note_on_c, 3, 46, 0
5, 238560, Note_on_c, 3, 39, 72
5, 239136, Note_on_c, 3, 39, 0
5, 239280, Note_on_c, 3, 39, 72
5, 239856, Note_on_c, 3, 39, 0
5, 240000, Note_on_c, 3, 34, 72
5, 240120, Note_on_c, 3, 34, 0
5, 240120, Note_on_c, 3, 46, 64
5, 240168, Note_on_c, 3, 46, 0
5, 240240, Note_on_c, 3, 38, 64
5, 240288, Note_on_c, 3, 38, 0
5, 240360, Note_on_c, 3, 46, 64
5, 240408, Note_on_c, 3, 46, 0
5, 240480, Note_on_c, 3, 39, 64
5, 240528, Note_on_c, 3, 39, 0
5, 240600, Note_on_c, 3, 46, 64
5, 240648, Note_on_c, 3, 46, 0
5, 240720, Note_on_c, 3, 38, 72
5, 240816, Note_on_c, 3, 38, 0
5, 240840, Note_on_c, 3, 46, 64
5, 240888, Note_on_c, 3, 46, 0
5, 240960, Note_on_c, 3, 34, 64
5, 241008, Note_on_c, 3, 34, 0
5, 241080, Note_on_c, 3, 46, 64
5, 241128, Note_on_c, 3, 46, 0
5, 241200, Note_on_c, 3, 39, 64
5, 241248, Note_on_c, 3, 39, 0
5, 241320, Note_on_c, 3, 46, 64
5, 241368, Note_on_c, 3, 46, 0
5, 241440, Note_on_c, 3, 39, 72
5, 241536, Note_on_c, 3, 39, 0
5, 241560, Note_on_c, 3, 51, 64
5, 241608, Note_on_c, 3, 51, 0
5, 241680, Note_on_c, 3, 43, 64
5, 241728, Note_on_c, 3, 43, 0
5, 241800, Note_on_c, 3, 55, 64
5, 241848, Note_on_c, 3, 55, 0
5, 241920, Note_on_c, 3, 46, 64
5, 241968, Note_on_c, 3, 46, 0
5, 242040, Note_on_c, 3, 58, 64
5, 242088, Note_on_c, 3, 58, 0
5, 242160, Note_on_c, 3, 39, 72
5, 242256, Note_on_c, 3, 39, 0
5, 242280, Note_on_c, 3, 51, 64
5, 242328, Note_on_c, 3, 51, 0
5, 242400, Note_on_c, 3, 43, 64
5, 242448, Note_on_c, 3, 43, 0
5, 242520, Note_on_c, 3, 55, 64
5, 242568, Note_on_c, 3, 55, 0
5, 242640, Note_on_c, 3, 46, 64
5, 242688, Note_on_c, 3, 46, 0
5, 242760, Note_on_c, 3, 58, 64
5, 242808, Note_on_c, 3, 58, 0
5, 242880, Note_on_c, 3, 39, 72
5, 243000, Note_on_c, 3, 39, 0
5, 243000, Note_on_c, 3, 51, 64
5, 243048, Note_on_c, 3, 51, 0
5, 243120, Note_on_c, 3, 38, 64
5, 243168, Note_on_c, 3, 38, 0
5, 243240, Note_on_c, 3, 50, 64
5, 243288, Note_on_c, 3, 50, 0
5, 243360, Note_on_c, 3, 39, 64
5, 243408, Note_on_c, 3, 39, 0
5, 243480, Note_on_c, 3, 51, 64
5, 243528, Note_on_c, 3, 51, 0
5, 243600, Note_on_c, 3, 34, 72
5, 243696, Note_on_c, 3, 34, 0
5, 243720, Note_on_c, 3, 45, 64
5, 243816, Note_on_c, 3, 45, 0
5, 243840, Note_on_c, 3, 46, 64
5, 243936, Note_on_c, 3, 46, 0
5, 243960, Note_on_c, 3, 45, 64
5, 244056, Note_on_c, 3, 45, 0
5, 244080, Note_on_c, 3, 46, 64
5, 244272, Note_on_c, 3, 46, 0
5, 244320, Note_on_c, 3, 34, 64
5, 244368, Note_on_c, 3, 34, 0
5, 244440, Note_on_c, 3, 46, 64
5, 244488, Note_on_c, 3, 46, 0
5, 244560, Note_on_c, 3, 38, 72
5, 244656, Note_on_c, 3, 38, 0
5, 244680, Note_on_c, 3, 46, 64
5, 244728, Note_on_c, 3, 46, 0
5, 244800, Note_on_c, 3, 34, 64
5, 244848, Note_on_c, 3, 34, 0
5, 244920, Note_on_c, 3, 46, 64
5, 244968, Note_on_c, 3, 46, 0
5, 245040, Note_on_c, 3, 39, 72
5, 245160, Note_on_c, 3, 39, 0
5, 245160, Note_on_c, 3, 46, 64
5, 245208, Note_on_c, 3, 46, 0
5, 245280, Note_on_c, 3, 43, 64
5, 245328, Note_on_c, 3, 43, 0
5, 245400, Note_on_c, 3, 46, 64
5, 245448, Note_on_c, 3, 46, 0
5, 245520, Note_on_c, 3, 39, 64
5, 245568, Note_on_c, 3, 39, 0
5, 245640, Note_on_c, 3, 46, 64
5, 245688, Note_on_c, 3, 46, 0
5, 245760, Note_on_c, 3, 34, 72
5, 245880, Note_on_c, 3, 34, 0
5, 245880, Note_on_c, 3, 46, 64
5, 245928, Note_on_c, 3, 46, 0
5, 246000, Note_on_c, 3, 38, 64
5, 246048, Note_on_c, 3, 38, 0
5, 246120, Note_on_c, 3, 46, 64
5, 246168, Note_on_c, 3, 46, 0
5, 246240, Note_on_c, 3, 34, 64
5, 246288, Note_on_c, 3, 34, 0
5, 246360, Note_on_c, 3, 46, 64
5, 246408, Note_on_c, 3, 46, 0
5, 246480, Note_on_c, 3, 39, 72
5, 246600, Note_on_c, 3, 39, 0
5, 246600, Note_on_c, 3, 46, 64
5, 246648, Note_on_c, 3, 46, 0
5, 246720, Note_on_c, 3, 43, 64
5, 246768, Note_on_c, 3, 43, 0
5, 246840, Note_on_c, 3, 46, 64
5, 246888, Note_on_c, 3, 46, 0
5, 246960, Note_on_c, 3, 39, 64
5, 247008, Note_on_c, 3, 39, 0
5, 247080, Note_on_c, 3, 46, 64
5, 247128, Note_on_c, 3, 46, 0
5, 247200, Note_on_c, 3, 34, 72
5, 247200, Note_on_c, 3, 46, 72
5, 247440, Note_on_c, 3, 46, 0
5, 247440, Note_on_c, 3, 34, 0
5, 247440, Note_on_c, 3, 46, 64
5, 247536, Note_on_c, 3, 46, 0
5, 247920, Note_on_c, 3, 32, 72
5, 247920, Note_on_c, 3, 44, 72
5, 248160, Note_on_c, 3, 44, 0
5, 248160, Note_on_c, 3, 32, 0
5, 248160, Note_on_c, 3, 44, 64
5, 248256, Note_on_c, 3, 44, 0
5, 249840, Note_on_c, 3, 46, 64
5, 250032, Note_on_c, 3, 46, 0
5, 250080, Note_on_c, 3, 51, 72
5, 250272, Note_on_c, 3, 51, 0
5, 250800, Note_on_c, 3, 46, 72
5, 250800, Note_on_c, 3, 34, 72
5, 251040, Note_on_c, 3, 34, 0
5, 251040, Note_on_c, 3, 46, 0
5, 251040, Note_on_c, 3, 46, 64
5, 251136, Note_on_c, 3, 46, 0
5, 251520, Note_on_c, 3, 44, 72
5, 251520, Note_on_c, 3, 32, 72
5, 251760, Note_on_c, 3, 32, 0
5, 251760, Note_on_c, 3, 44, 0
5, 251760, Note_on_c, 3, 44, 64
5, 251856, Note_on_c, 3, 44, 0
5, 253440, Note_on_c, 3, 46, 56
5, 253632, Note_on_c, 3, 46, 0
5, 253680, Note_on_c, 3, 51, 64
5, 253872, Note_on_c, 3, 51, 0
5, 254400, Note_on_c, 3, 34, 64
5, 254448, Note_on_c, 3, 34, 0
5, 254520, Note_on_c, 3, 46, 64
5, 254568, Note_on_c, 3, 46, 0
5, 254640, Note_on_c, 3, 38, 72
5, 254736, Note_on_c, 3, 38, 0
5, 254760, Note_on_c, 3, 46, 64
5, 254808, Note_on_c, 3, 46, 0
5, 254880, Note_on_c, 3, 34, 64
5, 254928, Note_on_c, 3, 34, 0
5, 255000, Note_on_c, 3, 46, 64
5, 255048, Note_on_c, 3, 46, 0
5, 255120, Note_on_c, 3, 39, 72
5, 255240, Note_on_c, 3, 39, 0
5, 255240, Note_on_c, 3, 46, 64
5, 255288, Note_on_c, 3, 46, 0
5, 255360, Note_on_c, 3, 43, 64
5, 255408, Note_on_c, 3, 43, 0
5, 255480, Note_on_c, 3, 46, 64
5, 255528, Note_on_c, 3, 46, 0
5, 255600, Note_on_c, 3, 39, 64
5, 255648, Note_on_c, 3, 39, 0
5, 255720, Note_on_c, 3, 46, 64
5, 255768, Note_on_c, 3, 46, 0
5, 255840, Note_on_c, 3, 34, 72
5, 255960, Note_on_c, 3, 34, 0
5, 255960, Note_on_c, 3, 46, 64
5, 256008, Note_on_c, 3, 46, 0
5, 256080, Note_on_c, 3, 38, 64
5, 256128, Note_on_c, 3, 38, 0
5, 256200, Note_on_c, 3, 46, 64
5, 256248, Note_on_c, 3, 46, 0
5, 256320, Note_on_c, 3, 34, 64
5, 256368, Note_on_c, 3, 34, 0
5, 256440, Note_on_c, 3, 46, 64
5, 256488, Note_on_c, 3, 46, 0
5, 256560, Note_on_c, 3, 39, 72
5, 256680, Note_on_c, 3, 39, 0
5, 256680, Note_on_c, 3, 46, 64
5, 256728, Note_on_c, 3, 46, 0
5, 256800, Note_on_c, 3, 43, 64
5, 256848, Note_on_c, 3, 43, 0
5, 256920, Note_on_c, 3, 46, 64
5, 256968, Note_on_c, 3, 46, 0
5, 257040, Note_on_c, 3, 39, 64
5, 257088, Note_on_c, 3, 39, 0
5, 257160, Note_on_c, 3, 46, 64
5, 257208, Note_on_c, 3, 46, 0
5, 257280, Note_on_c, 3, 46, 72
5, 257280, Note_on_c, 3, 34, 72
5, 257520, Note_on_c, 3, 34, 0
5, 257520, Note_on_c, 3, 46, 0
5, 257520, Note_on_c, 3, 46, 64
5, 257616, Note_on_c, 3, 46, 0
5, 258000, Note_on_c, 3, 44, 72
5, 258000, Note_on_c, 3, 32, 72
5, 258240, Note_on_c, 3, 32, 0
5, 258240, Note_on_c, 3, 44, 0
5, 258240, Note_on_c, 3, 44, 64
5, 258336, Note_on_c, 3, 44, 0
5, 259920, Note_on_c, 3, 46, 56
5, 260112, Note_on_c, 3, 46, 0
5, 260160, Note_on_c, 3, 51, 64
5, 260352, Note_on_c, 3, 51, 0
5, 260880, Note_on_c, 3, 46, 80
5, 261120, Note_on_c, 3, 46, 0
5, 261120, Note_on_c, 3, 46, 72
5, 261216, Note_on_c, 3, 46, 0
5, 261600, Note_on_c, 3, 44, 80
5, 261840, Note_on_c, 3, 44, 0
5, 261840, Note_on_c, 3, 44, 72
5, 261936, Note_on_c, 3, 44, 0
5, 266520, Note_on_c, 3, 35, 80
5, 266568, Note_on_c, 3, 35, 0
5, 266640, Note_on_c, 3, 34, 80
5, 266736, Note_on_c, 3, 34, 0
5, 266880, Note_on_c, 3, 33, 80
5, 268512, Note_on_c, 3, 33, 0
5, 268800, Note_on_c, 3, 45, 80
5, 268848, Note_on_c, 3, 45, 0
5, 268860, Note_on_c, 3, 42, 80
5, 268908, Note_on_c, 3, 42, 0
5, 268920, Note_on_c, 3, 39, 80
5, 268968, Note_on_c, 3, 39, 0
5, 268980, Note_on_c, 3, 36, 80
5, 269028, Note_on_c, 3, 36, 0
5, 269040, Note_on_c, 3, 33, 80
5, 269232, Note_on_c, 3, 33, 0
5, 269280, Note_on_c, 3, 34, 80
5, 269584, Note_on_c, 3, 34, 0
5, 269600, Note_on_c, 3, 39, 80
5, 269664, Note_on_c, 3, 39, 0
5, 269680, Note_on_c, 3, 43, 80
5, 269744, Note_on_c, 3, 43, 0
5, 272640, Note_on_c, 3, 33, 80
5, 272832, Note_on_c, 3, 33, 0
5, 272880, Note_on_c, 3, 34, 80
5, 273072, Note_on_c, 3, 34, 0
5, 274020, Note_on_c, 3, 46, 56
5, 274068, Note_on_c, 3, 46, 0
5, 274080, Note_on_c, 3, 46, 48
5, 274080, Note_on_c, 3, 39, 48
5, 275490, Note_on_c, 3, 39, 0
5, 275490, Note_on_c, 3, 46, 0
5, 275490, End_track
0, 0, End_of_file