0, 0, Header, 1, 8, 120
1, 0, Start_track
1, 0, MIDI_port, 0
1, 0, System_exclusive, 05, 7E, 7F, 09, 01, F7
1, 0, MIDI_port, 0
1, 0, Time_signature, 4, 2, 24, 8
1, 0, Key_signature, 0, "major"
1, 0, Tempo, 789474
1, 480, Time_signature, 2, 2, 24, 8
1, 480, Key_signature, 1, "major"
1, 480, Marker_t, "Theme ""Andante"""
1, 2160, Tempo, 789474
1, 2202, Tempo, 800000
1, 2244, Tempo, 810811
1, 2286, Tempo, 821918
1, 2328, Tempo, 833333
1, 2370, Tempo, 845070
1, 2412, Tempo, 857143
1, 2454, Tempo, 869565
1, 2496, Tempo, 882353
1, 2538, Tempo, 895522
1, 2581, Tempo, 909091
1, 2582, Tempo, 789474
1, 4080, Tempo, 789474
1, 4122, Tempo, 800000
1, 4164, Tempo, 810811
1, 4206, Tempo, 821918
1, 4248, Tempo, 833333
1, 4290, Tempo, 845070
1, 4332, Tempo, 857143
1, 4374, Tempo, 869565
1, 4416, Tempo, 882353
1, 4458, Tempo, 895522
1, 4500, Tempo, 909091
1, 4501, Tempo, 789474
1, 5220, Tempo, 789474
1, 5238, Tempo, 800000
1, 5256, Tempo, 810811
1, 5274, Tempo, 821918
1, 5292, Tempo, 833333
1, 5310, Tempo, 845070
1, 5328, Tempo, 857143
1, 5346, Tempo, 869565
1, 5364, Tempo, 882353
1, 5382, Tempo, 895522
1, 5400, Tempo, 909091
1, 5401, Tempo, 789474
1, 6480, Tempo, 789474
1, 6522, Tempo, 800000
1, 6564, Tempo, 810811
1, 6606, Tempo, 821918
1, 6648, Tempo, 833333
1, 6690, Tempo, 845070
1, 6732, Tempo, 857143
1, 6774, Tempo, 869565
1, 6816, Tempo, 882353
1, 6858, Tempo, 895522
1, 6900, Tempo, 909091
1, 6901, Tempo, 789474
1, 8880, Tempo, 789474
1, 8922, Tempo, 800000
1, 8964, Tempo, 810811
1, 9006, Tempo, 821918
1, 9048, Tempo, 833333
1, 9090, Tempo, 845070
1, 9132, Tempo, 857143
1, 9174, Tempo, 869565
1, 9216, Tempo, 882353
1, 9258, Tempo, 895522
1, 9300, Tempo, 909091
1, 9300, Marker_t, "Var. I"
1, 9301, Tempo, 789474
1, 11040, Tempo, 789474
1, 11049, Tempo, 800000
1, 11058, Tempo, 810811
1, 11067, Tempo, 821918
1, 11077, Tempo, 833333
1, 11086, Tempo, 845070
1, 11095, Tempo, 857143
1, 11104, Tempo, 869565
1, 11114, Tempo, 882353
1, 11123, Tempo, 895522
1, 11132, Tempo, 909091
1, 11141, Tempo, 923077
1, 11151, Tempo, 937500
1, 11160, Tempo, 952381
1, 11169, Tempo, 967742
1, 11178, Tempo, 983607
1, 11188, Tempo, 1000000
1, 11189, Tempo, 789474
1, 12960, Tempo, 789474
1, 12975, Tempo, 800000
1, 12990, Tempo, 810811
1, 13005, Tempo, 821918
1, 13021, Tempo, 833333
1, 13036, Tempo, 845070
1, 13051, Tempo, 857143
1, 13067, Tempo, 869565
1, 13082, Tempo, 882353
1, 13097, Tempo, 895522
1, 13113, Tempo, 909091
1, 13114, Tempo, 789474
1, 15360, Tempo, 789474
1, 15375, Tempo, 800000
1, 15390, Tempo, 810811
1, 15405, Tempo, 821918
1, 15420, Tempo, 833333
1, 15435, Tempo, 845070
1, 15450, Tempo, 857143
1, 15465, Tempo, 869565
1, 15480, Tempo, 882353
1, 15495, Tempo, 895522
1, 15510, Tempo, 909091
1, 15511, Tempo, 789474
1, 17760, Tempo, 789474
1, 17784, Tempo, 800000
1, 17808, Tempo, 810811
1, 17832, Tempo, 821918
1, 17856, Tempo, 833333
1, 17880, Tempo, 845070
1, 17904, Tempo, 857143
1, 17928, Tempo, 869565
1, 17940, Marker_t, "Var. II"
1, 17952, Tempo, 882353
1, 17976, Tempo, 895522
1, 18000, Tempo, 909091
1, 18001, Tempo, 789474
1, 26160, Tempo, 789474
1, 26182, Tempo, 800000
1, 26205, Tempo, 810811
1, 26227, Tempo, 821918
1, 26250, Tempo, 833333
1, 26272, Tempo, 845070
1, 26295, Tempo, 857143
1, 26317, Tempo, 869565
1, 26340, Tempo, 882353
1, 26362, Tempo, 895522
1, 26385, Tempo, 909091
1, 26407, Tempo, 923077
1, 26430, Tempo, 937500
1, 26452, Tempo, 952381
1, 26475, Tempo, 967742
1, 26497, Tempo, 983607
1, 26520, Tempo, 1000000
1, 26521, Tempo, 789474
1, 26535, Marker_t, "Var. III"
1, 34800, Tempo, 789474
1, 34826, Tempo, 800000
1, 34852, Tempo, 810811
1, 34879, Tempo, 821918
1, 34905, Tempo, 833333
1, 34932, Tempo, 845070
1, 34958, Tempo, 857143
1, 34985, Tempo, 869565
1, 35011, Tempo, 882353
1, 35037, Tempo, 895522
1, 35064, Tempo, 909091
1, 35090, Tempo, 923077
1, 35117, Tempo, 937500
1, 35143, Tempo, 952381
1, 35170, Tempo, 967742
1, 35196, Tempo, 983607
1, 35223, Tempo, 1000000
1, 35223, Marker_t, "Var. IV"
1, 35224, Tempo, 789474
1, 35280, Key_signature, -2, "major"
1, 43860, Marker_t, "Var. V"
1, 43920, Key_signature, 1, "major"
1, 53760, Tempo, 789474
1, 53775, Tempo, 800000
1, 53790, Tempo, 810811
1, 53805, Tempo, 821918
1, 53820, Tempo, 833333
1, 53835, Tempo, 845070
1, 53850, Tempo, 857143
1, 53865, Tempo, 869565
1, 53880, Tempo, 882353
1, 53895, Tempo, 895522
1, 53910, Tempo, 909091
1, 53925, Tempo, 923077
1, 53940, Tempo, 937500
1, 53955, Tempo, 952381
1, 53970, Tempo, 967742
1, 53985, Tempo, 983607
1, 54000, Tempo, 1000000
1, 54001, Tempo, 789474
1, 58680, Tempo, 789474
1, 58707, Tempo, 800000
1, 58735, Tempo, 810811
1, 58763, Tempo, 821918
1, 58790, Tempo, 833333
1, 58818, Tempo, 845070
1, 58846, Tempo, 857143
1, 58873, Tempo, 869565
1, 58901, Tempo, 882353
1, 58929, Tempo, 895522
1, 58956, Tempo, 909091
1, 58984, Tempo, 923077
1, 59012, Tempo, 937500
1, 59040, Tempo, 952381
1, 59067, Tempo, 967742
1, 59095, Tempo, 983607
1, 59123, Tempo, 1000000
1, 59150, Tempo, 1016949
1, 59178, Tempo, 1034483
1, 59206, Tempo, 1052632
1, 59233, Tempo, 1071429
1, 59261, Tempo, 1090909
1, 59289, Tempo, 1111111
1, 59316, Tempo, 1132075
1, 59344, Tempo, 1153846
1, 59372, Tempo, 1176471
1, 59400, Tempo, 1200000
1, 59401, Tempo, 789474
1, 59401, End_track
2, 0, Start_track
2, 0, MIDI_port, 0
2, 0, Title_t, "Primo"
2, 0, Program_c, 0, 0
2, 0, Control_c, 0, 121, 0
2, 0, Control_c, 0, 7, 127
2, 0, Control_c, 0, 10, 84
2, 0, Control_c, 0, 91, 101
2, 656, Note_on_c, 0, 74, 89
2, 674, Control_c, 0, 64, 127
2, 717, Note_on_c, 0, 74, 0
2, 717, Control_c, 0, 64, 0
2, 719, Note_on_c, 0, 79, 89
2, 720, Note_on_c, 0, 71, 64
2, 720, Note_on_c, 0, 67, 68
2, 720, Note_on_c, 0, 74, 64
2, 728, Control_c, 0, 64, 127
2, 746, Control_c, 0, 64, 127
2, 774, Control_c, 0, 64, 0
2, 775, Note_on_c, 0, 74, 0
2, 777, Note_on_c, 0, 67, 0
2, 778, Note_on_c, 0, 71, 0
2, 779, Control_c, 0, 64, 0
2, 780, Note_on_c, 0, 79, 0
2, 782, Note_on_c, 0, 83, 93
2, 805, Control_c, 0, 64, 127
2, 835, Control_c, 0, 64, 0
2, 838, Note_on_c, 0, 81, 93
2, 839, Note_on_c, 0, 83, 0
2, 840, Note_on_c, 0, 66, 60
2, 840, Note_on_c, 0, 72, 76
2, 840, Note_on_c, 0, 74, 76
2, 849, Control_c, 0, 64, 127
2, 865, Control_c, 0, 64, 127
2, 893, Control_c, 0, 64, 0
2, 898, Note_on_c, 0, 74, 0
2, 900, Note_on_c, 0, 72, 0
2, 900, Note_on_c, 0, 66, 0
2, 900, Control_c, 0, 64, 0
2, 901, Note_on_c, 0, 81, 0
2, 901, Note_on_c, 0, 78, 80
2, 923, Control_c, 0, 64, 127
2, 956, Control_c, 0, 64, 0
2, 958, Note_on_c, 0, 86, 89
2, 959, Note_on_c, 0, 78, 0
2, 960, Note_on_c, 0, 67, 60
2, 960, Note_on_c, 0, 71, 68
2, 960, Note_on_c, 0, 74, 68
2, 968, Control_c, 0, 64, 127
2, 1004, Control_c, 0, 64, 127
2, 1022, Control_c, 0, 64, 0
2, 1026, Note_on_c, 0, 67, 0
2, 1027, Note_on_c, 0, 71, 0
2, 1029, Note_on_c, 0, 74, 0
2, 1125, Note_on_c, 0, 86, 0
2, 1138, Control_c, 0, 64, 0
2, 1142, Note_on_c, 0, 83, 89
2, 1167, Control_c, 0, 64, 127
2, 1184, Note_on_c, 0, 83, 0
2, 1184, Note_on_c, 0, 79, 80
2, 1184, Control_c, 0, 64, 0
2, 1195, Note_on_c, 0, 79, 0
2, 1199, Note_on_c, 0, 81, 93
2, 1200, Note_on_c, 0, 66, 60
2, 1200, Note_on_c, 0, 74, 76
2, 1200, Note_on_c, 0, 69, 89
2, 1209, Control_c, 0, 64, 127
2, 1226, Control_c, 0, 64, 127
2, 1251, Control_c, 0, 64, 0
2, 1254, Note_on_c, 0, 69, 0
2, 1256, Control_c, 0, 64, 0
2, 1257, Note_on_c, 0, 74, 0
2, 1257, Note_on_c, 0, 66, 0
2, 1257, Note_on_c, 0, 78, 89
2, 1259, Note_on_c, 0, 81, 0
2, 1279, Control_c, 0, 64, 127
2, 1300, Note_on_c, 0, 78, 0
2, 1300, Control_c, 0, 64, 0
2, 1304, Note_on_c, 0, 74, 80
2, 1315, Note_on_c, 0, 74, 0
2, 1319, Note_on_c, 0, 76, 89
2, 1320, Note_on_c, 0, 67, 80
2, 1320, Note_on_c, 0, 69, 85
2, 1320, Note_on_c, 0, 73, 64
2, 1329, Control_c, 0, 64, 127
2, 1336, Control_c, 0, 64, 127
2, 1357, Note_on_c, 0, 78, 85
2, 1358, Note_on_c, 0, 76, 0
2, 1363, Control_c, 0, 64, 0
2, 1364, Note_on_c, 0, 76, 80
2, 1368, Note_on_c, 0, 78, 0
2, 1371, Note_on_c, 0, 76, 0
2, 1371, Note_on_c, 0, 74, 93
2, 1372, Control_c, 0, 64, 0
2, 1377, Note_on_c, 0, 73, 0
2, 1377, Note_on_c, 0, 69, 0
2, 1378, Note_on_c, 0, 67, 0
2, 1380, Note_on_c, 0, 74, 0
2, 1383, Note_on_c, 0, 76, 89
2, 1421, Note_on_c, 0, 76, 0
2, 1423, Note_on_c, 0, 78, 68
2, 1438, Note_on_c, 0, 74, 93
2, 1439, Note_on_c, 0, 78, 0
2, 1440, Note_on_c, 0, 66, 72
2, 1440, Note_on_c, 0, 69, 68
2, 1448, Control_c, 0, 64, 127
2, 1467, Control_c, 0, 64, 127
2, 1498, Control_c, 0, 64, 0
2, 1499, Note_on_c, 0, 66, 0
2, 1500, Note_on_c, 0, 69, 0
2, 1566, Note_on_c, 0, 74, 0
2, 1568, Control_c, 0, 64, 0
2, 1597, Note_on_c, 0, 76, 93
2, 1604, Note_on_c, 0, 74, 68
2, 1608, Note_on_c, 0, 76, 0
2, 1611, Note_on_c, 0, 74, 0
2, 1611, Note_on_c, 0, 73, 60
2, 1618, Note_on_c, 0, 73, 0
2, 1623, Note_on_c, 0, 74, 98
2, 1659, Note_on_c, 0, 74, 0
2, 1663, Note_on_c, 0, 76, 68
2, 1674, Note_on_c, 0, 76, 0
2, 1678, Note_on_c, 0, 77, 51
2, 1680, Note_on_c, 0, 71, 64
2, 1680, Note_on_c, 0, 67, 64
2, 1689, Note_on_c, 0, 67, 0
2, 1691, Note_on_c, 0, 71, 0
2, 1691, Note_on_c, 0, 77, 0
2, 1737, Note_on_c, 0, 77, 80
2, 1742, Note_on_c, 0, 67, 85
2, 1742, Note_on_c, 0, 71, 76
2, 1746, Note_on_c, 0, 77, 0
2, 1751, Note_on_c, 0, 67, 0
2, 1752, Note_on_c, 0, 71, 0
2, 1800, Note_on_c, 0, 71, 93
2, 1800, Note_on_c, 0, 67, 93
2, 1800, Note_on_c, 0, 77, 113
2, 1809, Note_on_c, 0, 67, 0
2, 1812, Note_on_c, 0, 77, 0
2, 1813, Note_on_c, 0, 71, 0
2, 1861, Note_on_c, 0, 67, 89
2, 1861, Note_on_c, 0, 71, 93
2, 1862, Note_on_c, 0, 77, 93
2, 1871, Note_on_c, 0, 77, 0
2, 1872, Note_on_c, 0, 67, 0
2, 1874, Note_on_c, 0, 71, 0
2, 1920, Note_on_c, 0, 72, 80
2, 1920, Note_on_c, 0, 67, 80
2, 1921, Note_on_c, 0, 78, 98
2, 1937, Control_c, 0, 64, 127
2, 1951, Note_on_c, 0, 78, 0
2, 1954, Note_on_c, 0, 76, 89
2, 1982, Note_on_c, 0, 75, 76
2, 1984, Note_on_c, 0, 76, 0
2, 1994, Control_c, 0, 64, 127
2, 2011, Note_on_c, 0, 78, 89
2, 2012, Note_on_c, 0, 75, 0
2, 2015, Control_c, 0, 64, 0
2, 2038, Control_c, 0, 64, 0
2, 2039, Note_on_c, 0, 72, 0
2, 2040, Note_on_c, 0, 74, 80
2, 2040, Note_on_c, 0, 79, 98
2, 2041, Note_on_c, 0, 78, 0
2, 2064, Control_c, 0, 64, 127
2, 2073, Control_c, 0, 64, 127
2, 2079, Note_on_c, 0, 79, 0
2, 2101, Note_on_c, 0, 79, 98
2, 2101, Control_c, 0, 64, 0
2, 2127, Control_c, 0, 64, 127
2, 2151, Note_on_c, 0, 79, 0
2, 2152, Control_c, 0, 64, 0
2, 2154, Control_c, 0, 64, 0
2, 2156, Note_on_c, 0, 67, 0
2, 2159, Note_on_c, 0, 81, 98
2, 2160, Note_on_c, 0, 76, 93
2, 2162, Note_on_c, 0, 74, 0
2, 2194, Control_c, 0, 64, 127
2, 2224, Control_c, 0, 64, 127
2, 2279, Control_c, 0, 64, 0
2, 2280, Note_on_c, 0, 74, 76
2, 2287, Note_on_c, 0, 76, 0
2, 2314, Note_on_c, 0, 81, 0
2, 2317, Note_on_c, 0, 83, 85
2, 2324, Note_on_c, 0, 81, 89
2, 2330, Note_on_c, 0, 83, 0
2, 2331, Note_on_c, 0, 79, 76
2, 2331, Control_c, 0, 64, 0
2, 2332, Note_on_c, 0, 81, 0
2, 2339, Note_on_c, 0, 79, 0
2, 2341, Note_on_c, 0, 72, 76
2, 2342, Note_on_c, 0, 81, 98
2, 2343, Note_on_c, 0, 74, 0
2, 2378, Note_on_c, 0, 83, 89
2, 2380, Note_on_c, 0, 81, 0
2, 2391, Note_on_c, 0, 83, 0
2, 2397, Note_on_c, 0, 79, 89
2, 2400, Note_on_c, 0, 72, 0
2, 2400, Note_on_c, 0, 71, 80
2, 2431, Control_c, 0, 64, 127
2, 2436, Control_c, 0, 64, 127
2, 2517, Control_c, 0, 64, 0
2, 2521, Control_c, 0, 64, 0
2, 2527, Note_on_c, 0, 79, 0
2, 2530, Note_on_c, 0, 71, 0
2, 2581, Note_on_c, 0, 74, 62
2, 2602, Control_c, 0, 64, 127
2, 2638, Note_on_c, 0, 79, 62
2, 2638, Control_c, 0, 64, 0
2, 2640, Note_on_c, 0, 67, 50
2, 2640, Note_on_c, 0, 71, 59
2, 2640, Note_on_c, 0, 74, 52
2, 2644, Note_on_c, 0, 74, 0
2, 2650, Control_c, 0, 64, 127
2, 2677, Control_c, 0, 64, 127
2, 2694, Note_on_c, 0, 71, 0
2, 2694, Note_on_c, 0, 74, 0
2, 2695, Note_on_c, 0, 67, 0
2, 2695, Control_c, 0, 64, 0
2, 2697, Note_on_c, 0, 83, 59
2, 2701, Note_on_c, 0, 79, 0
2, 2756, Control_c, 0, 64, 0
2, 2758, Note_on_c, 0, 81, 76
2, 2760, Note_on_c, 0, 66, 49
2, 2760, Note_on_c, 0, 74, 51
2, 2760, Note_on_c, 0, 72, 64
2, 2761, Note_on_c, 0, 83, 0
2, 2769, Control_c, 0, 64, 127
2, 2784, Control_c, 0, 64, 127
2, 2814, Control_c, 0, 64, 0
2, 2816, Note_on_c, 0, 78, 59
2, 2818, Control_c, 0, 64, 0
2, 2819, Note_on_c, 0, 74, 0
2, 2819, Note_on_c, 0, 72, 0
2, 2820, Note_on_c, 0, 81, 0
2, 2820, Note_on_c, 0, 66, 0
2, 2846, Control_c, 0, 64, 127
2, 2877, Note_on_c, 0, 78, 0
2, 2877, Control_c, 0, 64, 0
2, 2878, Note_on_c, 0, 86, 62
2, 2880, Note_on_c, 0, 67, 51
2, 2880, Note_on_c, 0, 71, 53
2, 2880, Note_on_c, 0, 74, 55
2, 2888, Control_c, 0, 64, 127
2, 2913, Control_c, 0, 64, 127
2, 2948, Control_c, 0, 64, 0
2, 2949, Note_on_c, 0, 67, 0
2, 2950, Note_on_c, 0, 74, 0
2, 2951, Note_on_c, 0, 71, 0
2, 3055, Control_c, 0, 64, 0
2, 3062, Note_on_c, 0, 83, 76
2, 3063, Note_on_c, 0, 86, 0
2, 3091, Control_c, 0, 64, 127
2, 3104, Note_on_c, 0, 83, 0
2, 3105, Note_on_c, 0, 79, 68
2, 3106, Control_c, 0, 64, 0
2, 3120, Note_on_c, 0, 66, 52
2, 3120, Note_on_c, 0, 74, 62
2, 3120, Note_on_c, 0, 69, 72
2, 3121, Note_on_c, 0, 81, 80
2, 3124, Note_on_c, 0, 79, 0
2, 3126, Control_c, 0, 64, 127
2, 3151, Control_c, 0, 64, 127
2, 3169, Note_on_c, 0, 69, 0
2, 3171, Note_on_c, 0, 66, 0
2, 3172, Control_c, 0, 64, 0
2, 3172, Control_c, 0, 64, 0
2, 3173, Note_on_c, 0, 74, 0
2, 3182, Note_on_c, 0, 78, 72
2, 3185, Note_on_c, 0, 81, 0
2, 3204, Control_c, 0, 64, 127
2, 3224, Note_on_c, 0, 74, 76
2, 3225, Note_on_c, 0, 78, 0
2, 3226, Control_c, 0, 64, 0
2, 3237, Note_on_c, 0, 74, 0
2, 3240, Note_on_c, 0, 76, 85
2, 3240, Note_on_c, 0, 73, 64
2, 3240, Note_on_c, 0, 67, 59
2, 3240, Note_on_c, 0, 69, 68
2, 3251, Control_c, 0, 64, 127
2, 3261, Control_c, 0, 64, 127
2, 3277, Note_on_c, 0, 78, 62
2, 3278, Note_on_c, 0, 76, 0
2, 3284, Note_on_c, 0, 76, 60
2, 3287, Note_on_c, 0, 69, 0
2, 3287, Control_c, 0, 64, 0
2, 3288, Note_on_c, 0, 67, 0
2, 3289, Note_on_c, 0, 73, 0
2, 3290, Note_on_c, 0, 76, 0
2, 3290, Note_on_c, 0, 78, 0
2, 3290, Control_c, 0, 64, 0
2, 3291, Note_on_c, 0, 74, 64
2, 3300, Note_on_c, 0, 74, 0
2, 3301, Note_on_c, 0, 76, 76
2, 3337, Note_on_c, 0, 78, 62
2, 3338, Note_on_c, 0, 76, 0
2, 3354, Note_on_c, 0, 78, 0
2, 3360, Note_on_c, 0, 74, 68
2, 3360, Note_on_c, 0, 66, 50
2, 3360, Note_on_c, 0, 69, 72
2, 3368, Control_c, 0, 64, 127
2, 3389, Control_c, 0, 64, 127
2, 3413, Note_on_c, 0, 69, 0
2, 3413, Note_on_c, 0, 66, 0
2, 3415, Control_c, 0, 64, 0
2, 3486, Control_c, 0, 64, 0
2, 3487, Note_on_c, 0, 74, 0
2, 3517, Note_on_c, 0, 76, 76
2, 3524, Note_on_c, 0, 74, 64
2, 3527, Note_on_c, 0, 76, 0
2, 3531, Note_on_c, 0, 73, 60
2, 3532, Note_on_c, 0, 74, 0
2, 3538, Note_on_c, 0, 73, 0
2, 3543, Note_on_c, 0, 74, 68
2, 3580, Note_on_c, 0, 74, 0
2, 3583, Note_on_c, 0, 76, 76
2, 3600, Note_on_c, 0, 76, 0
2, 3600, Note_on_c, 0, 77, 72
2, 3600, Note_on_c, 0, 67, 68
2, 3600, Note_on_c, 0, 71, 72
2, 3610, Note_on_c, 0, 71, 0
2, 3610, Note_on_c, 0, 67, 0
2, 3612, Note_on_c, 0, 77, 0
2, 3657, Note_on_c, 0, 77, 76
2, 3662, Note_on_c, 0, 71, 76
2, 3662, Note_on_c, 0, 67, 64
2, 3668, Note_on_c, 0, 77, 0
2, 3671, Note_on_c, 0, 67, 0
2, 3672, Note_on_c, 0, 71, 0
2, 3720, Note_on_c, 0, 77, 93
2, 3720, Note_on_c, 0, 67, 72
2, 3720, Note_on_c, 0, 71, 89
2, 3729, Note_on_c, 0, 67, 0
2, 3731, Note_on_c, 0, 71, 0
2, 3732, Note_on_c, 0, 77, 0
2, 3776, Note_on_c, 0, 77, 93
2, 3781, Note_on_c, 0, 67, 76
2, 3781, Note_on_c, 0, 71, 89
2, 3788, Note_on_c, 0, 77, 0
2, 3790, Note_on_c, 0, 67, 0
2, 3792, Note_on_c, 0, 71, 0
2, 3840, Note_on_c, 0, 72, 76
2, 3840, Note_on_c, 0, 67, 76
2, 3841, Note_on_c, 0, 78, 76
2, 3863, Control_c, 0, 64, 127
2, 3869, Note_on_c, 0, 76, 85
2, 3872, Note_on_c, 0, 78, 0
2, 3900, Note_on_c, 0, 76, 0
2, 3902, Note_on_c, 0, 75, 76
2, 3931, Note_on_c, 0, 78, 62
2, 3935, Note_on_c, 0, 75, 0
2, 3938, Control_c, 0, 64, 127
2, 3953, Control_c, 0, 64, 0
2, 3955, Control_c, 0, 64, 0
2, 3958, Note_on_c, 0, 72, 0
2, 3960, Note_on_c, 0, 74, 80
2, 3960, Note_on_c, 0, 79, 72
2, 3962, Note_on_c, 0, 78, 0
2, 3985, Control_c, 0, 64, 127
2, 3999, Note_on_c, 0, 79, 0
2, 4016, Control_c, 0, 64, 0
2, 4019, Control_c, 0, 64, 127
2, 4021, Note_on_c, 0, 79, 98
2, 4037, Control_c, 0, 64, 127
2, 4071, Control_c, 0, 64, 0
2, 4074, Control_c, 0, 64, 0
2, 4075, Note_on_c, 0, 79, 0
2, 4078, Note_on_c, 0, 67, 0
2, 4079, Note_on_c, 0, 81, 85
2, 4080, Note_on_c, 0, 76, 76
2, 4084, Note_on_c, 0, 74, 0
2, 4122, Control_c, 0, 64, 127
2, 4147, Control_c, 0, 64, 127
2, 4196, Control_c, 0, 64, 0
2, 4200, Note_on_c, 0, 74, 76
2, 4206, Note_on_c, 0, 76, 0
2, 4236, Control_c, 0, 64, 127
2, 4237, Note_on_c, 0, 81, 0
2, 4237, Note_on_c, 0, 83, 72
2, 4244, Note_on_c, 0, 79, 68
2, 4249, Control_c, 0, 64, 0
2, 4251, Note_on_c, 0, 83, 0
2, 4251, Note_on_c, 0, 81, 76
2, 4251, Control_c, 0, 64, 0
2, 4252, Note_on_c, 0, 79, 0
2, 4260, Note_on_c, 0, 81, 93
2, 4261, Note_on_c, 0, 81, 0
2, 4261, Note_on_c, 0, 72, 76
2, 4262, Note_on_c, 0, 74, 0
2, 4297, Note_on_c, 0, 81, 0
2, 4303, Note_on_c, 0, 83, 89
2, 4318, Note_on_c, 0, 83, 0
2, 4320, Note_on_c, 0, 72, 0
2, 4320, Note_on_c, 0, 79, 57
2, 4320, Note_on_c, 0, 71, 80
2, 4346, Control_c, 0, 64, 127
2, 4449, Note_on_c, 0, 79, 0
2, 4450, Control_c, 0, 64, 0
2, 4459, Control_c, 0, 64, 127
2, 4492, Control_c, 0, 64, 0
2, 4496, Note_on_c, 0, 71, 102
2, 4497, Note_on_c, 0, 71, 0
2, 4514, Control_c, 0, 64, 127
2, 4555, Note_on_c, 0, 71, 0
2, 4558, Note_on_c, 0, 76, 102
2, 4560, Control_c, 0, 64, 0
2, 4560, Note_on_c, 0, 64, 80
2, 4560, Note_on_c, 0, 71, 80
2, 4560, Note_on_c, 0, 67, 89
2, 4576, Control_c, 0, 64, 127
2, 4591, Control_c, 0, 64, 127
2, 4596, Note_on_c, 0, 71, 0
2, 4597, Note_on_c, 0, 67, 0
2, 4600, Note_on_c, 0, 64, 0
2, 4619, Control_c, 0, 64, 0
2, 4621, Note_on_c, 0, 76, 0
2, 4622, Note_on_c, 0, 79, 98
2, 4628, Control_c, 0, 64, 0
2, 4646, Control_c, 0, 64, 127
2, 4677, Control_c, 0, 64, 0
2, 4680, Note_on_c, 0, 69, 80
2, 4680, Note_on_c, 0, 63, 76
2, 4680, Note_on_c, 0, 59, 85
2, 4680, Note_on_c, 0, 78, 93
2, 4683, Note_on_c, 0, 79, 0
2, 4698, Control_c, 0, 64, 127
2, 4705, Control_c, 0, 64, 127
2, 4735, Control_c, 0, 64, 0
2, 4736, Note_on_c, 0, 63, 0
2, 4737, Note_on_c, 0, 69, 0
2, 4738, Note_on_c, 0, 78, 0
2, 4738, Note_on_c, 0, 59, 0
2, 4741, Note_on_c, 0, 75, 89
2, 4760, Control_c, 0, 64, 127
2, 4769, Control_c, 0, 64, 0
2, 4800, Note_on_c, 0, 75, 0
2, 4800, Control_c, 0, 64, 0
2, 4800, Note_on_c, 0, 83, 107
2, 4800, Note_on_c, 0, 67, 98
2, 4822, Control_c, 0, 64, 127
2, 4833, Control_c, 0, 64, 127
2, 4852, Control_c, 0, 64, 0
2, 4860, Note_on_c, 0, 67, 0
2, 4862, Note_on_c, 0, 64, 98
2, 4877, Control_c, 0, 64, 127
2, 4908, Control_c, 0, 64, 0
2, 4920, Note_on_c, 0, 62, 98
2, 4921, Note_on_c, 0, 64, 0
2, 4930, Control_c, 0, 64, 127
2, 4937, Note_on_c, 0, 62, 0
2, 4962, Note_on_c, 0, 83, 0
2, 4976, Control_c, 0, 64, 0
2, 4977, Control_c, 0, 64, 0
2, 4981, Note_on_c, 0, 77, 102
2, 4981, Note_on_c, 0, 83, 102
2, 4996, Control_c, 0, 64, 127
2, 5003, Note_on_c, 0, 83, 0
2, 5003, Control_c, 0, 64, 127
2, 5033, Control_c, 0, 64, 0
2, 5036, Control_c, 0, 64, 0
2, 5040, Note_on_c, 0, 76, 89
2, 5041, Note_on_c, 0, 84, 93
2, 5043, Note_on_c, 0, 77, 0
2, 5059, Control_c, 0, 64, 127
2, 5085, Control_c, 0, 64, 0
2, 5088, Note_on_c, 0, 84, 0
2, 5088, Note_on_c, 0, 83, 85
2, 5095, Control_c, 0, 64, 127
2, 5098, Note_on_c, 0, 83, 0
2, 5102, Note_on_c, 0, 86, 98
2, 5130, Control_c, 0, 64, 127
2, 5141, Control_c, 0, 64, 0
2, 5143, Note_on_c, 0, 86, 0
2, 5144, Note_on_c, 0, 84, 80
2, 5157, Note_on_c, 0, 84, 0
2, 5160, Note_on_c, 0, 88, 93
2, 5170, Note_on_c, 0, 76, 0
2, 5187, Control_c, 0, 64, 127
2, 5189, Control_c, 0, 64, 0
2, 5219, Control_c, 0, 64, 0
2, 5221, Note_on_c, 0, 69, 72
2, 5222, Note_on_c, 0, 88, 0
2, 5222, Note_on_c, 0, 76, 76
2, 5242, Control_c, 0, 64, 127
2, 5248, Control_c, 0, 64, 127
2, 5280, Note_on_c, 0, 71, 85
2, 5281, Note_on_c, 0, 76, 0
2, 5281, Note_on_c, 0, 79, 93
2, 5281, Control_c, 0, 64, 0
2, 5282, Note_on_c, 0, 69, 0
2, 5282, Control_c, 0, 64, 0
2, 5329, Control_c, 0, 64, 127
2, 5344, Control_c, 0, 64, 127
2, 5393, Control_c, 0, 64, 0
2, 5395, Control_c, 0, 64, 0
2, 5398, Note_on_c, 0, 79, 0
2, 5398, Note_on_c, 0, 78, 85
2, 5400, Note_on_c, 0, 71, 0
2, 5400, Note_on_c, 0, 69, 76
2, 5421, Control_c, 0, 64, 127
2, 5438, Control_c, 0, 64, 127
2, 5446, Control_c, 0, 64, 0
2, 5457, Control_c, 0, 64, 0
2, 5458, Note_on_c, 0, 69, 0
2, 5459, Note_on_c, 0, 78, 0
2, 5461, Note_on_c, 0, 86, 102
2, 5461, Note_on_c, 0, 74, 85
2, 5478, Control_c, 0, 64, 127
2, 5520, Control_c, 0, 64, 0
2, 5521, Note_on_c, 0, 76, 89
2, 5524, Note_on_c, 0, 86, 0
2, 5530, Control_c, 0, 64, 127
2, 5538, Control_c, 0, 64, 127
2, 5559, Note_on_c, 0, 76, 0
2, 5572, Control_c, 0, 64, 0
2, 5581, Note_on_c, 0, 74, 0
2, 5582, Note_on_c, 0, 72, 89
2, 5582, Note_on_c, 0, 76, 98
2, 5583, Control_c, 0, 64, 0
2, 5597, Note_on_c, 0, 76, 0
2, 5625, Note_on_c, 0, 71, 89
2, 5627, Note_on_c, 0, 72, 0
2, 5640, Note_on_c, 0, 69, 64
2, 5642, Note_on_c, 0, 71, 0
2, 5672, Control_c, 0, 64, 127
2, 5696, Note_on_c, 0, 88, 102
2, 5699, Control_c, 0, 64, 0
2, 5700, Note_on_c, 0, 69, 0
2, 5701, Note_on_c, 0, 67, 89
2, 5710, Control_c, 0, 64, 127
2, 5737, Control_c, 0, 64, 127
2, 5758, Control_c, 0, 64, 0
2, 5759, Control_c, 0, 64, 0
2, 5760, Note_on_c, 0, 67, 0
2, 5760, Note_on_c, 0, 72, 93
2, 5761, Note_on_c, 0, 88, 0
2, 5761, Note_on_c, 0, 78, 93
2, 5781, Control_c, 0, 64, 127
2, 5792, Control_c, 0, 64, 127
2, 5800, Note_on_c, 0, 78, 0
2, 5813, Control_c, 0, 64, 0
2, 5821, Note_on_c, 0, 72, 0
2, 5822, Note_on_c, 0, 71, 93
2, 5822, Note_on_c, 0, 78, 113
2, 5828, Control_c, 0, 64, 0
2, 5833, Note_on_c, 0, 78, 0
2, 5865, Note_on_c, 0, 69, 80
2, 5869, Note_on_c, 0, 71, 0
2, 5880, Note_on_c, 0, 74, 89
2, 5882, Note_on_c, 0, 69, 0
2, 5936, Note_on_c, 0, 74, 93
2, 5941, Note_on_c, 0, 72, 89
2, 5943, Note_on_c, 0, 74, 0
2, 5950, Control_c, 0, 64, 127
2, 5958, Control_c, 0, 64, 127
2, 5964, Note_on_c, 0, 72, 0
2, 5996, Control_c, 0, 64, 0
2, 5999, Note_on_c, 0, 74, 0
2, 6000, Note_on_c, 0, 71, 72
2, 6000, Note_on_c, 0, 67, 76
2, 6000, Note_on_c, 0, 62, 64
2, 6001, Note_on_c, 0, 79, 89
2, 6002, Control_c, 0, 64, 0
2, 6023, Control_c, 0, 64, 127
2, 6034, Control_c, 0, 64, 127
2, 6055, Note_on_c, 0, 62, 0
2, 6057, Note_on_c, 0, 83, 93
2, 6058, Note_on_c, 0, 71, 0
2, 6058, Note_on_c, 0, 67, 0
2, 6058, Control_c, 0, 64, 0
2, 6060, Note_on_c, 0, 79, 0
2, 6061, Control_c, 0, 64, 0
2, 6091, Control_c, 0, 64, 127
2, 6117, Control_c, 0, 64, 0
2, 6118, Note_on_c, 0, 83, 0
2, 6118, Note_on_c, 0, 81, 93
2, 6120, Note_on_c, 0, 72, 76
2, 6120, Note_on_c, 0, 66, 72
2, 6120, Note_on_c, 0, 62, 80
2, 6130, Control_c, 0, 64, 127
2, 6147, Control_c, 0, 64, 127
2, 6171, Control_c, 0, 64, 0
2, 6176, Note_on_c, 0, 78, 85
2, 6178, Note_on_c, 0, 81, 0
2, 6183, Note_on_c, 0, 66, 0
2, 6183, Control_c, 0, 64, 0
2, 6184, Note_on_c, 0, 62, 0
2, 6188, Note_on_c, 0, 72, 0
2, 6204, Control_c, 0, 64, 127
2, 6234, Control_c, 0, 64, 0
2, 6237, Note_on_c, 0, 78, 0
2, 6239, Note_on_c, 0, 86, 98
2, 6240, Note_on_c, 0, 71, 80
2, 6240, Note_on_c, 0, 62, 80
2, 6240, Note_on_c, 0, 67, 89
2, 6244, Control_c, 0, 64, 127
2, 6288, Control_c, 0, 64, 127
2, 6297, Control_c, 0, 64, 0
2, 6304, Note_on_c, 0, 62, 0
2, 6305, Note_on_c, 0, 67, 0
2, 6306, Note_on_c, 0, 71, 0
2, 6360, Note_on_c, 0, 72, 80
2, 6360, Note_on_c, 0, 62, 80
2, 6360, Note_on_c, 0, 66, 80
2, 6373, Control_c, 0, 64, 127
2, 6410, Control_c, 0, 64, 0
2, 6416, Note_on_c, 0, 84, 85
2, 6417, Note_on_c, 0, 62, 0
2, 6418, Note_on_c, 0, 66, 0
2, 6419, Note_on_c, 0, 86, 0
2, 6419, Note_on_c, 0, 72, 0
2, 6438, Control_c, 0, 64, 127
2, 6463, Note_on_c, 0, 81, 72
2, 6465, Note_on_c, 0, 84, 0
2, 6468, Control_c, 0, 64, 0
2, 6470, Control_c, 0, 64, 0
2, 6479, Note_on_c, 0, 79, 80
2, 6480, Note_on_c, 0, 81, 0
2, 6480, Note_on_c, 0, 74, 76
2, 6480, Note_on_c, 0, 67, 80
2, 6481, Note_on_c, 0, 79, 93
2, 6487, Control_c, 0, 64, 127
2, 6487, Control_c, 0, 64, 127
2, 6498, Note_on_c, 0, 79, 0
2, 6510, Note_on_c, 0, 67, 0
2, 6510, Note_on_c, 0, 74, 0
2, 6519, Note_on_c, 0, 79, 0
2, 6534, Control_c, 0, 64, 0
2, 6538, Control_c, 0, 64, 0
2, 6542, Note_on_c, 0, 74, 80
2, 6542, Note_on_c, 0, 71, 89
2, 6542, Note_on_c, 0, 79, 93
2, 6550, Control_c, 0, 64, 127
2, 6559, Control_c, 0, 64, 127
2, 6570, Note_on_c, 0, 79, 0
2, 6583, Note_on_c, 0, 71, 0
2, 6584, Note_on_c, 0, 74, 0
2, 6595, Control_c, 0, 64, 0
2, 6600, Note_on_c, 0, 79, 93
2, 6600, Note_on_c, 0, 71, 89
2, 6600, Note_on_c, 0, 74, 89
2, 6603, Control_c, 0, 64, 0
2, 6610, Control_c, 0, 64, 127
2, 6621, Note_on_c, 0, 79, 0
2, 6623, Control_c, 0, 64, 127
2, 6634, Note_on_c, 0, 74, 0
2, 6634, Note_on_c, 0, 71, 0
2, 6647, Note_on_c, 0, 83, 64
2, 6654, Note_on_c, 0, 83, 0
2, 6654, Note_on_c, 0, 81, 89
2, 6657, Control_c, 0, 64, 0
2, 6661, Note_on_c, 0, 81, 0
2, 6661, Note_on_c, 0, 72, 80
2, 6661, Note_on_c, 0, 74, 68
2, 6661, Control_c, 0, 64, 0
2, 6662, Note_on_c, 0, 79, 76
2, 6668, Note_on_c, 0, 81, 102
2, 6670, Note_on_c, 0, 79, 0
2, 6683, Control_c, 0, 64, 127
2, 6697, Note_on_c, 0, 74, 0
2, 6698, Note_on_c, 0, 72, 0
2, 6704, Note_on_c, 0, 81, 0
2, 6710, Note_on_c, 0, 83, 80
2, 6719, Note_on_c, 0, 83, 0
2, 6720, Note_on_c, 0, 79, 93
2, 6720, Note_on_c, 0, 71, 76
2, 6720, Note_on_c, 0, 74, 76
2, 6721, Control_c, 0, 64, 0
2, 6748, Control_c, 0, 64, 127
2, 6752, Control_c, 0, 64, 127
2, 6838, Control_c, 0, 64, 0
2, 6838, Control_c, 0, 64, 0
2, 6845, Note_on_c, 0, 79, 0
2, 6846, Note_on_c, 0, 74, 0
2, 6846, Note_on_c, 0, 71, 0
2, 6903, Note_on_c, 0, 71, 56
2, 6926, Control_c, 0, 64, 127
2, 6958, Control_c, 0, 64, 0
2, 6960, Note_on_c, 0, 64, 51
2, 6960, Note_on_c, 0, 67, 52
2, 6960, Note_on_c, 0, 71, 55
2, 6961, Note_on_c, 0, 76, 49
2, 6963, Note_on_c, 0, 71, 0
2, 6971, Control_c, 0, 64, 127
2, 7016, Note_on_c, 0, 71, 0
2, 7017, Note_on_c, 0, 64, 0
2, 7018, Note_on_c, 0, 67, 0
2, 7022, Note_on_c, 0, 79, 51
2, 7022, Control_c, 0, 64, 0
2, 7023, Note_on_c, 0, 76, 0
2, 7080, Note_on_c, 0, 78, 56
2, 7080, Note_on_c, 0, 69, 48
2, 7080, Note_on_c, 0, 63, 50
2, 7080, Note_on_c, 0, 59, 50
2, 7082, Note_on_c, 0, 79, 0
2, 7093, Control_c, 0, 64, 127
2, 7116, Control_c, 0, 64, 127
2, 7131, Note_on_c, 0, 63, 0
2, 7133, Note_on_c, 0, 69, 0
2, 7134, Note_on_c, 0, 59, 0
2, 7135, Control_c, 0, 64, 0
2, 7136, Note_on_c, 0, 75, 57
2, 7137, Note_on_c, 0, 78, 0
2, 7154, Control_c, 0, 64, 0
2, 7173, Control_c, 0, 64, 127
2, 7193, Control_c, 0, 64, 0
2, 7194, Note_on_c, 0, 75, 0
2, 7197, Note_on_c, 0, 83, 55
2, 7200, Note_on_c, 0, 67, 68
2, 7209, Control_c, 0, 64, 127
2, 7240, Control_c, 0, 64, 127
2, 7260, Note_on_c, 0, 67, 0
2, 7260, Control_c, 0, 64, 0
2, 7262, Note_on_c, 0, 64, 76
2, 7288, Control_c, 0, 64, 127
2, 7315, Control_c, 0, 64, 0
2, 7320, Note_on_c, 0, 62, 72
2, 7324, Note_on_c, 0, 64, 0
2, 7334, Control_c, 0, 64, 127
2, 7339, Note_on_c, 0, 62, 0
2, 7341, Note_on_c, 0, 83, 0
2, 7376, Note_on_c, 0, 83, 80
2, 7377, Control_c, 0, 64, 0
2, 7381, Note_on_c, 0, 77, 72
2, 7382, Control_c, 0, 64, 0
2, 7404, Control_c, 0, 64, 127
2, 7408, Control_c, 0, 64, 127
2, 7432, Control_c, 0, 64, 0
2, 7438, Note_on_c, 0, 83, 0
2, 7438, Control_c, 0, 64, 0
2, 7440, Note_on_c, 0, 76, 68
2, 7441, Note_on_c, 0, 84, 76
2, 7442, Note_on_c, 0, 77, 0
2, 7480, Control_c, 0, 64, 127
2, 7483, Note_on_c, 0, 83, 72
2, 7486, Note_on_c, 0, 84, 0
2, 7500, Note_on_c, 0, 83, 0
2, 7502, Note_on_c, 0, 86, 80
2, 7542, Note_on_c, 0, 86, 0
2, 7544, Note_on_c, 0, 84, 64
2, 7553, Note_on_c, 0, 76, 0
2, 7555, Control_c, 0, 64, 127
2, 7556, Control_c, 0, 64, 0
2, 7560, Note_on_c, 0, 84, 0
2, 7560, Note_on_c, 0, 88, 64
2, 7561, Control_c, 0, 64, 0
2, 7602, Control_c, 0, 64, 127
2, 7616, Control_c, 0, 64, 0
2, 7621, Note_on_c, 0, 69, 76
2, 7622, Note_on_c, 0, 88, 0
2, 7622, Note_on_c, 0, 76, 57
2, 7639, Control_c, 0, 64, 127
2, 7652, Control_c, 0, 64, 127
2, 7676, Control_c, 0, 64, 0
2, 7677, Control_c, 0, 64, 0
2, 7678, Note_on_c, 0, 76, 0
2, 7678, Note_on_c, 0, 79, 72
2, 7680, Note_on_c, 0, 69, 0
2, 7680, Note_on_c, 0, 71, 56
2, 7723, Control_c, 0, 64, 127
2, 7728, Control_c, 0, 64, 127
2, 7794, Control_c, 0, 64, 0
2, 7796, Control_c, 0, 64, 0
2, 7800, Note_on_c, 0, 71, 0
2, 7800, Note_on_c, 0, 78, 57
2, 7800, Note_on_c, 0, 69, 60
2, 7801, Note_on_c, 0, 79, 0
2, 7817, Control_c, 0, 64, 127
2, 7834, Control_c, 0, 64, 127
2, 7837, Note_on_c, 0, 69, 0
2, 7856, Control_c, 0, 64, 0
2, 7857, Control_c, 0, 64, 0
2, 7861, Note_on_c, 0, 74, 80
2, 7861, Note_on_c, 0, 86, 64
2, 7865, Note_on_c, 0, 78, 0
2, 7886, Control_c, 0, 64, 127
2, 7919, Control_c, 0, 64, 0
2, 7920, Note_on_c, 0, 86, 0
2, 7921, Note_on_c, 0, 76, 62
2, 7930, Control_c, 0, 64, 127
2, 7939, Control_c, 0, 64, 127
2, 7957, Note_on_c, 0, 76, 0
2, 7973, Control_c, 0, 64, 0
2, 7981, Note_on_c, 0, 74, 0
2, 7982, Note_on_c, 0, 72, 76
2, 7982, Note_on_c, 0, 76, 76
2, 7982, Control_c, 0, 64, 0
2, 7995, Note_on_c, 0, 76, 0
2, 8025, Note_on_c, 0, 72, 0
2, 8025, Note_on_c, 0, 71, 76
2, 8040, Note_on_c, 0, 69, 72
2, 8044, Note_on_c, 0, 71, 0
2, 8096, Note_on_c, 0, 88, 80
2, 8098, Note_on_c, 0, 69, 0
2, 8101, Note_on_c, 0, 67, 76
2, 8114, Control_c, 0, 64, 127
2, 8160, Note_on_c, 0, 72, 89
2, 8161, Note_on_c, 0, 67, 0
2, 8161, Note_on_c, 0, 78, 62
2, 8163, Note_on_c, 0, 88, 0
2, 8165, Control_c, 0, 64, 0
2, 8177, Control_c, 0, 64, 127
2, 8191, Control_c, 0, 64, 127
2, 8198, Note_on_c, 0, 78, 0
2, 8214, Control_c, 0, 64, 0
2, 8222, Note_on_c, 0, 71, 80
2, 8224, Note_on_c, 0, 72, 0
2, 8224, Note_on_c, 0, 78, 62
2, 8228, Control_c, 0, 64, 0
2, 8234, Note_on_c, 0, 78, 0
2, 8262, Note_on_c, 0, 71, 0
2, 8265, Note_on_c, 0, 69, 80
2, 8280, Note_on_c, 0, 74, 80
2, 8286, Note_on_c, 0, 69, 0
2, 8297, Control_c, 0, 64, 127
2, 8336, Note_on_c, 0, 74, 68
2, 8338, Control_c, 0, 64, 0
2, 8339, Note_on_c, 0, 74, 0
2, 8341, Note_on_c, 0, 72, 85
2, 8348, Control_c, 0, 64, 127
2, 8362, Control_c, 0, 64, 127
2, 8363, Note_on_c, 0, 72, 0
2, 8392, Control_c, 0, 64, 0
2, 8400, Control_c, 0, 64, 0
2, 8400, Note_on_c, 0, 71, 76
2, 8400, Note_on_c, 0, 67, 76
2, 8400, Note_on_c, 0, 62, 76
2, 8401, Note_on_c, 0, 79, 62
2, 8406, Note_on_c, 0, 74, 0
2, 8418, Control_c, 0, 64, 127
2, 8431, Control_c, 0, 64, 127
2, 8455, Note_on_c, 0, 62, 0
2, 8457, Control_c, 0, 64, 0
2, 8458, Note_on_c, 0, 67, 0
2, 8458, Control_c, 0, 64, 0
2, 8459, Note_on_c, 0, 71, 0
2, 8462, Note_on_c, 0, 79, 0
2, 8462, Note_on_c, 0, 83, 59
2, 8491, Control_c, 0, 64, 127
2, 8518, Note_on_c, 0, 81, 76
2, 8520, Note_on_c, 0, 72, 76
2, 8520, Note_on_c, 0, 62, 76
2, 8520, Note_on_c, 0, 66, 72
2, 8522, Control_c, 0, 64, 0
2, 8523, Note_on_c, 0, 83, 0
2, 8533, Control_c, 0, 64, 127
2, 8555, Control_c, 0, 64, 127
2, 8576, Note_on_c, 0, 62, 0
2, 8576, Note_on_c, 0, 66, 0
2, 8576, Control_c, 0, 64, 0
2, 8576, Note_on_c, 0, 78, 62
2, 8578, Control_c, 0, 64, 0
2, 8579, Note_on_c, 0, 81, 0
2, 8580, Note_on_c, 0, 72, 0
2, 8618, Control_c, 0, 64, 127
2, 8636, Control_c, 0, 64, 0
2, 8638, Note_on_c, 0, 78, 0
2, 8640, Note_on_c, 0, 86, 72
2, 8640, Note_on_c, 0, 67, 80
2, 8640, Note_on_c, 0, 71, 76
2, 8640, Note_on_c, 0, 62, 62
2, 8649, Control_c, 0, 64, 127
2, 8701, Control_c, 0, 64, 127
2, 8702, Control_c, 0, 64, 0
2, 8704, Note_on_c, 0, 62, 0
2, 8707, Note_on_c, 0, 67, 0
2, 8708, Note_on_c, 0, 71, 0
2, 8760, Note_on_c, 0, 72, 80
2, 8760, Note_on_c, 0, 66, 72
2, 8760, Note_on_c, 0, 62, 72
2, 8774, Control_c, 0, 64, 127
2, 8804, Control_c, 0, 64, 0
2, 8806, Note_on_c, 0, 62, 0
2, 8808, Note_on_c, 0, 66, 0
2, 8809, Note_on_c, 0, 72, 0
2, 8820, Note_on_c, 0, 86, 0
2, 8821, Note_on_c, 0, 84, 89
2, 8838, Control_c, 0, 64, 127
2, 8863, Note_on_c, 0, 81, 76
2, 8866, Note_on_c, 0, 84, 0
2, 8870, Control_c, 0, 64, 0
2, 8871, Control_c, 0, 64, 0
2, 8879, Note_on_c, 0, 79, 64
2, 8880, Note_on_c, 0, 67, 85
2, 8880, Note_on_c, 0, 74, 60
2, 8883, Note_on_c, 0, 81, 0
2, 8897, Control_c, 0, 64, 127
2, 8902, Control_c, 0, 64, 127
2, 8909, Note_on_c, 0, 74, 0
2, 8911, Note_on_c, 0, 67, 0
2, 8919, Note_on_c, 0, 79, 0
2, 8934, Control_c, 0, 64, 0
2, 8938, Control_c, 0, 64, 0
2, 8942, Note_on_c, 0, 79, 72
2, 8942, Note_on_c, 0, 71, 93
2, 8942, Note_on_c, 0, 74, 80
2, 8960, Control_c, 0, 64, 127
2, 8961, Control_c, 0, 64, 127
2, 8981, Note_on_c, 0, 79, 0
2, 8982, Note_on_c, 0, 74, 0
2, 8983, Note_on_c, 0, 71, 0
2, 8994, Control_c, 0, 64, 0
2, 8999, Note_on_c, 0, 79, 76
2, 9000, Note_on_c, 0, 74, 76
2, 9000, Note_on_c, 0, 71, 80
2, 9001, Control_c, 0, 64, 0
2, 9017, Control_c, 0, 64, 127
2, 9023, Control_c, 0, 64, 127
2, 9024, Note_on_c, 0, 79, 0
2, 9030, Note_on_c, 0, 74, 0
2, 9033, Note_on_c, 0, 71, 0
2, 9037, Note_on_c, 0, 83, 76
2, 9044, Note_on_c, 0, 81, 76
2, 9048, Note_on_c, 0, 83, 0
2, 9050, Note_on_c, 0, 81, 0
2, 9051, Note_on_c, 0, 79, 64
2, 9058, Control_c, 0, 64, 0
2, 9059, Note_on_c, 0, 79, 0
2, 9060, Control_c, 0, 64, 0
2, 9061, Note_on_c, 0, 74, 76
2, 9061, Note_on_c, 0, 72, 76
2, 9063, Note_on_c, 0, 81, 76
2, 9085, Control_c, 0, 64, 127
2, 9097, Note_on_c, 0, 72, 0
2, 9098, Note_on_c, 0, 74, 0
2, 9100, Note_on_c, 0, 81, 0
2, 9103, Note_on_c, 0, 83, 80
2, 9116, Note_on_c, 0, 83, 0
2, 9118, Control_c, 0, 64, 0
2, 9120, Note_on_c, 0, 74, 68
2, 9120, Note_on_c, 0, 71, 76
2, 9121, Note_on_c, 0, 79, 76
2, 9139, Control_c, 0, 64, 127
2, 9145, Control_c, 0, 64, 127
2, 9235, Control_c, 0, 64, 0
2, 9240, Note_on_c, 0, 79, 0
2, 9243, Control_c, 0, 64, 0
2, 9245, Note_on_c, 0, 71, 0
2, 9246, Note_on_c, 0, 74, 0
2, 9301, Note_on_c, 0, 71, 93
2, 9330, Note_on_c, 0, 71, 0
2, 9330, Note_on_c, 0, 79, 93
2, 9359, Note_on_c, 0, 79, 0
2, 9360, Note_on_c, 0, 74, 72
2, 9361, Note_on_c, 0, 67, 76
2, 9361, Note_on_c, 0, 71, 76
2, 9362, Control_c, 0, 64, 127
2, 9364, Control_c, 0, 64, 127
2, 9385, Note_on_c, 0, 74, 0
2, 9389, Note_on_c, 0, 83, 76
2, 9405, Control_c, 0, 64, 0
2, 9420, Note_on_c, 0, 83, 0
2, 9422, Note_on_c, 0, 79, 85
2, 9436, Control_c, 0, 64, 127
2, 9446, Note_on_c, 0, 71, 0
2, 9448, Note_on_c, 0, 79, 0
2, 9448, Note_on_c, 0, 67, 0
2, 9449, Control_c, 0, 64, 0
2, 9450, Note_on_c, 0, 86, 80
2, 9476, Control_c, 0, 64, 127
2, 9479, Note_on_c, 0, 83, 76
2, 9479, Control_c, 0, 64, 0
2, 9480, Note_on_c, 0, 69, 85
2, 9480, Note_on_c, 0, 66, 62
2, 9481, Note_on_c, 0, 86, 0
2, 9482, Control_c, 0, 64, 0
2, 9492, Control_c, 0, 64, 127
2, 9508, Note_on_c, 0, 83, 0
2, 9508, Note_on_c, 0, 84, 76
2, 9512, Note_on_c, 0, 69, 0
2, 9513, Note_on_c, 0, 66, 0
2, 9536, Note_on_c, 0, 81, 80
2, 9537, Note_on_c, 0, 84, 0
2, 9541, Note_on_c, 0, 69, 62
2, 9541, Control_c, 0, 64, 0
2, 9541, Note_on_c, 0, 72, 76
2, 9553, Control_c, 0, 64, 127
2, 9563, Control_c, 0, 64, 127
2, 9566, Note_on_c, 0, 81, 0
2, 9569, Note_on_c, 0, 78, 72
2, 9574, Note_on_c, 0, 72, 0
2, 9574, Note_on_c, 0, 69, 0
2, 9586, Note_on_c, 0, 78, 0
2, 9591, Control_c, 0, 64, 0
2, 9600, Note_on_c, 0, 79, 85
2, 9601, Note_on_c, 0, 71, 76
2, 9601, Note_on_c, 0, 67, 76
2, 9603, Control_c, 0, 64, 0
2, 9608, Note_on_c, 0, 79, 0
2, 9619, Control_c, 0, 64, 127
2, 9630, Note_on_c, 0, 81, 72
2, 9637, Note_on_c, 0, 79, 62
2, 9640, Note_on_c, 0, 81, 0
2, 9644, Note_on_c, 0, 78, 55
2, 9646, Note_on_c, 0, 79, 0
2, 9650, Note_on_c, 0, 78, 0
2, 9660, Note_on_c, 0, 79, 89
2, 9673, Note_on_c, 0, 79, 0
2, 9690, Note_on_c, 0, 81, 89
2, 9698, Note_on_c, 0, 81, 0
2, 9702, Note_on_c, 0, 67, 0
2, 9702, Note_on_c, 0, 71, 0
2, 9714, Control_c, 0, 64, 0
2, 9720, Note_on_c, 0, 83, 89
2, 9747, Note_on_c, 0, 83, 0
2, 9748, Note_on_c, 0, 84, 72
2, 9778, Note_on_c, 0, 84, 0
2, 9781, Note_on_c, 0, 86, 85
2, 9799, Control_c, 0, 64, 127
2, 9806, Note_on_c, 0, 86, 0
2, 9809, Note_on_c, 0, 83, 76
2, 9838, Note_on_c, 0, 83, 0
2, 9841, Note_on_c, 0, 66, 76
2, 9841, Note_on_c, 0, 69, 80
2, 9841, Note_on_c, 0, 80, 62
2, 9843, Control_c, 0, 64, 0
2, 9866, Note_on_c, 0, 80, 0
2, 9869, Note_on_c, 0, 81, 76
2, 9871, Control_c, 0, 64, 127
2, 9898, Note_on_c, 0, 81, 0
2, 9902, Note_on_c, 0, 86, 72
2, 9930, Note_on_c, 0, 86, 0
2, 9930, Note_on_c, 0, 78, 50
2, 9939, Control_c, 0, 64, 127
2, 9948, Control_c, 0, 64, 0
2, 9958, Note_on_c, 0, 78, 0
2, 9960, Note_on_c, 0, 81, 72
2, 9960, Note_on_c, 0, 64, 76
2, 9961, Note_on_c, 0, 66, 0
2, 9962, Control_c, 0, 64, 0
2, 9987, Control_c, 0, 64, 127
2, 9988, Note_on_c, 0, 80, 72
2, 9990, Note_on_c, 0, 81, 0
2, 10019, Note_on_c, 0, 80, 0
2, 10021, Note_on_c, 0, 79, 76
2, 10023, Control_c, 0, 64, 127
2, 10028, Note_on_c, 0, 69, 0
2, 10030, Note_on_c, 0, 64, 0
2, 10033, Note_on_c, 0, 79, 0
2, 10049, Control_c, 0, 64, 0
2, 10050, Note_on_c, 0, 75, 56
2, 10078, Note_on_c, 0, 75, 0
2, 10079, Note_on_c, 0, 76, 76
2, 10081, Note_on_c, 0, 69, 72
2, 10081, Note_on_c, 0, 67, 68
2, 10082, Control_c, 0, 64, 0
2, 10108, Control_c, 0, 64, 127
2, 10109, Note_on_c, 0, 78, 72
2, 10111, Note_on_c, 0, 76, 0
2, 10137, Note_on_c, 0, 78, 0
2, 10142, Note_on_c, 0, 79, 76
2, 10170, Note_on_c, 0, 73, 62
2, 10172, Note_on_c, 0, 79, 0
2, 10181, Note_on_c, 0, 73, 0
2, 10181, Control_c, 0, 64, 127
2, 10199, Note_on_c, 0, 67, 0
2, 10200, Control_c, 0, 64, 0
2, 10200, Control_c, 0, 64, 0
2, 10200, Note_on_c, 0, 66, 62
2, 10200, Note_on_c, 0, 76, 72
2, 10222, Control_c, 0, 64, 127
2, 10229, Note_on_c, 0, 76, 0
2, 10232, Control_c, 0, 64, 127
2, 10233, Note_on_c, 0, 74, 80
2, 10241, Note_on_c, 0, 74, 0
2, 10251, Control_c, 0, 64, 0
2, 10262, Note_on_c, 0, 66, 0
2, 10263, Note_on_c, 0, 85, 80
2, 10266, Note_on_c, 0, 69, 0
2, 10269, Control_c, 0, 64, 0
2, 10281, Control_c, 0, 64, 127
2, 10289, Note_on_c, 0, 85, 0
2, 10291, Note_on_c, 0, 86, 80
2, 10314, Control_c, 0, 64, 0
2, 10321, Note_on_c, 0, 71, 55
2, 10321, Note_on_c, 0, 67, 57
2, 10321, Note_on_c, 0, 84, 85
2, 10322, Note_on_c, 0, 86, 0
2, 10329, Control_c, 0, 64, 127
2, 10346, Control_c, 0, 64, 127
2, 10354, Note_on_c, 0, 84, 0
2, 10354, Note_on_c, 0, 83, 85
2, 10357, Control_c, 0, 64, 0
2, 10359, Note_on_c, 0, 67, 0
2, 10360, Note_on_c, 0, 71, 0
2, 10382, Note_on_c, 0, 71, 62
2, 10382, Note_on_c, 0, 67, 72
2, 10382, Note_on_c, 0, 81, 76
2, 10385, Note_on_c, 0, 83, 0
2, 10410, Note_on_c, 0, 81, 0
2, 10410, Note_on_c, 0, 79, 76
2, 10423, Control_c, 0, 64, 127
2, 10424, Note_on_c, 0, 67, 0
2, 10425, Note_on_c, 0, 71, 0
2, 10433, Control_c, 0, 64, 0
2, 10438, Note_on_c, 0, 79, 0
2, 10440, Note_on_c, 0, 78, 72
2, 10440, Note_on_c, 0, 71, 89
2, 10440, Note_on_c, 0, 67, 89
2, 10468, Note_on_c, 0, 79, 80
2, 10469, Note_on_c, 0, 78, 0
2, 10471, Control_c, 0, 64, 127
2, 10482, Note_on_c, 0, 67, 0
2, 10484, Note_on_c, 0, 71, 0
2, 10486, Control_c, 0, 64, 0
2, 10496, Note_on_c, 0, 81, 93
2, 10499, Note_on_c, 0, 79, 0
2, 10501, Note_on_c, 0, 67, 89
2, 10501, Note_on_c, 0, 71, 93
2, 10529, Note_on_c, 0, 83, 85
2, 10530, Note_on_c, 0, 81, 0
2, 10531, Control_c, 0, 64, 127
2, 10532, Note_on_c, 0, 67, 0
2, 10534, Note_on_c, 0, 71, 0
2, 10543, Note_on_c, 0, 83, 0
2, 10550, Control_c, 0, 64, 0
2, 10560, Note_on_c, 0, 84, 85
2, 10561, Note_on_c, 0, 72, 89
2, 10561, Note_on_c, 0, 67, 93
2, 10565, Control_c, 0, 64, 0
2, 10568, Note_on_c, 0, 84, 0
2, 10589, Note_on_c, 0, 86, 76
2, 10594, Control_c, 0, 64, 127
2, 10596, Note_on_c, 0, 84, 64
2, 10598, Note_on_c, 0, 86, 0
2, 10605, Note_on_c, 0, 84, 0
2, 10608, Note_on_c, 0, 83, 60
2, 10617, Note_on_c, 0, 84, 80
2, 10618, Note_on_c, 0, 83, 0
2, 10631, Note_on_c, 0, 84, 0
2, 10650, Note_on_c, 0, 88, 93
2, 10658, Note_on_c, 0, 88, 0
2, 10679, Note_on_c, 0, 85, 85
2, 10680, Note_on_c, 0, 71, 76
2, 10685, Control_c, 0, 64, 0
2, 10688, Note_on_c, 0, 72, 0
2, 10704, Control_c, 0, 64, 127
2, 10705, Control_c, 0, 64, 127
2, 10708, Note_on_c, 0, 85, 0
2, 10708, Note_on_c, 0, 86, 76
2, 10710, Control_c, 0, 64, 0
2, 10741, Note_on_c, 0, 86, 0
2, 10741, Note_on_c, 0, 83, 80
2, 10744, Note_on_c, 0, 71, 0
2, 10748, Note_on_c, 0, 67, 0
2, 10749, Control_c, 0, 64, 0
2, 10770, Note_on_c, 0, 83, 0
2, 10770, Note_on_c, 0, 79, 85
2, 10778, Note_on_c, 0, 79, 0
2, 10801, Note_on_c, 0, 76, 85
2, 10801, Note_on_c, 0, 67, 80
2, 10801, Note_on_c, 0, 69, 85
2, 10810, Note_on_c, 0, 76, 0
2, 10819, Control_c, 0, 64, 127
2, 10829, Note_on_c, 0, 83, 80
2, 10842, Note_on_c, 0, 83, 0
2, 10843, Note_on_c, 0, 81, 62
2, 10850, Note_on_c, 0, 80, 60
2, 10851, Note_on_c, 0, 81, 0
2, 10860, Note_on_c, 0, 80, 0
2, 10862, Note_on_c, 0, 81, 93
2, 10871, Note_on_c, 0, 81, 0
2, 10892, Note_on_c, 0, 83, 72
2, 10900, Note_on_c, 0, 83, 0
2, 10915, Control_c, 0, 64, 0
2, 10920, Note_on_c, 0, 69, 0
2, 10920, Note_on_c, 0, 86, 76
2, 10922, Note_on_c, 0, 67, 0
2, 10933, Control_c, 0, 64, 127
2, 10948, Note_on_c, 0, 85, 68
2, 10949, Note_on_c, 0, 86, 0
2, 10963, Note_on_c, 0, 85, 0
2, 10975, Control_c, 0, 64, 0
2, 10981, Note_on_c, 0, 84, 80
2, 10981, Note_on_c, 0, 69, 80
2, 10981, Note_on_c, 0, 66, 76
2, 10982, Control_c, 0, 64, 127
2, 11001, Note_on_c, 0, 69, 0
2, 11002, Note_on_c, 0, 66, 0
2, 11009, Note_on_c, 0, 84, 0
2, 11010, Note_on_c, 0, 80, 68
2, 11017, Control_c, 0, 64, 127
2, 11028, Control_c, 0, 64, 0
2, 11029, Note_on_c, 0, 80, 0
2, 11040, Note_on_c, 0, 81, 89
2, 11041, Note_on_c, 0, 72, 85
2, 11041, Note_on_c, 0, 66, 80
2, 11043, Control_c, 0, 64, 0
2, 11069, Note_on_c, 0, 83, 76
2, 11071, Note_on_c, 0, 81, 0
2, 11072, Control_c, 0, 64, 127
2, 11094, Note_on_c, 0, 83, 0
2, 11102, Note_on_c, 0, 84, 89
2, 11128, Note_on_c, 0, 84, 0
2, 11128, Note_on_c, 0, 66, 0
2, 11131, Note_on_c, 0, 78, 62
2, 11131, Note_on_c, 0, 69, 85
2, 11138, Note_on_c, 0, 72, 0
2, 11142, Note_on_c, 0, 69, 0
2, 11156, Note_on_c, 0, 78, 0
2, 11160, Note_on_c, 0, 81, 60
2, 11160, Note_on_c, 0, 71, 80
2, 11160, Note_on_c, 0, 67, 68
2, 11165, Control_c, 0, 64, 0
2, 11185, Control_c, 0, 64, 127
2, 11188, Note_on_c, 0, 79, 85
2, 11192, Note_on_c, 0, 81, 0
2, 11197, Control_c, 0, 64, 127
2, 11204, Note_on_c, 0, 79, 0
2, 11216, Note_on_c, 0, 71, 70
2, 11218, Control_c, 0, 64, 0
2, 11221, Note_on_c, 0, 67, 0
2, 11222, Note_on_c, 0, 71, 0
2, 11231, Control_c, 0, 64, 0
2, 11244, Note_on_c, 0, 79, 75
2, 11245, Note_on_c, 0, 71, 0
2, 11261, Control_c, 0, 64, 127
2, 11273, Note_on_c, 0, 79, 0
2, 11274, Control_c, 0, 64, 0
2, 11280, Note_on_c, 0, 74, 56
2, 11280, Control_c, 0, 64, 127
2, 11281, Note_on_c, 0, 71, 56
2, 11281, Note_on_c, 0, 67, 64
2, 11295, Control_c, 0, 64, 127
2, 11306, Note_on_c, 0, 74, 0
2, 11309, Note_on_c, 0, 83, 56
2, 11337, Control_c, 0, 64, 0
2, 11342, Note_on_c, 0, 79, 68
2, 11344, Note_on_c, 0, 83, 0
2, 11362, Control_c, 0, 64, 127
2, 11370, Note_on_c, 0, 79, 0
2, 11370, Note_on_c, 0, 86, 60
2, 11374, Note_on_c, 0, 67, 0
2, 11376, Note_on_c, 0, 71, 0
2, 11398, Note_on_c, 0, 86, 0
2, 11400, Note_on_c, 0, 83, 62
2, 11400, Note_on_c, 0, 66, 53
2, 11400, Note_on_c, 0, 69, 59
2, 11404, Control_c, 0, 64, 0
2, 11406, Control_c, 0, 64, 0
2, 11418, Control_c, 0, 64, 127
2, 11428, Note_on_c, 0, 69, 0
2, 11428, Note_on_c, 0, 84, 57
2, 11429, Note_on_c, 0, 66, 0
2, 11429, Note_on_c, 0, 83, 0
2, 11429, Control_c, 0, 64, 127
2, 11458, Note_on_c, 0, 84, 0
2, 11461, Note_on_c, 0, 81, 62
2, 11461, Note_on_c, 0, 69, 62
2, 11461, Note_on_c, 0, 72, 56
2, 11465, Control_c, 0, 64, 0
2, 11465, Control_c, 0, 64, 0
2, 11481, Control_c, 0, 64, 127
2, 11484, Control_c, 0, 64, 127
2, 11490, Note_on_c, 0, 78, 60
2, 11491, Note_on_c, 0, 81, 0
2, 11494, Note_on_c, 0, 69, 0
2, 11494, Note_on_c, 0, 72, 0
2, 11514, Note_on_c, 0, 78, 0
2, 11520, Note_on_c, 0, 79, 72
2, 11521, Note_on_c, 0, 71, 56
2, 11521, Note_on_c, 0, 67, 53
2, 11525, Control_c, 0, 64, 0
2, 11525, Control_c, 0, 64, 0
2, 11528, Note_on_c, 0, 79, 0
2, 11546, Control_c, 0, 64, 127
2, 11549, Note_on_c, 0, 81, 59
2, 11561, Note_on_c, 0, 81, 0
2, 11563, Note_on_c, 0, 79, 48
2, 11566, Control_c, 0, 64, 127
2, 11569, Note_on_c, 0, 79, 0
2, 11569, Note_on_c, 0, 78, 53
2, 11578, Note_on_c, 0, 78, 0
2, 11582, Note_on_c, 0, 79, 62
2, 11584, Control_c, 0, 64, 0
2, 11594, Note_on_c, 0, 79, 0
2, 11612, Note_on_c, 0, 81, 72
2, 11620, Note_on_c, 0, 81, 0
2, 11642, Note_on_c, 0, 67, 0
2, 11645, Note_on_c, 0, 83, 76
2, 11646, Note_on_c, 0, 71, 0
2, 11647, Control_c, 0, 64, 0
2, 11651, Control_c, 0, 64, 127
2, 11673, Note_on_c, 0, 83, 0
2, 11673, Note_on_c, 0, 84, 62
2, 11680, Control_c, 0, 64, 0
2, 11701, Note_on_c, 0, 84, 0
2, 11702, Note_on_c, 0, 86, 72
2, 11718, Control_c, 0, 64, 127
2, 11728, Note_on_c, 0, 86, 0
2, 11728, Control_c, 0, 64, 127
2, 11730, Note_on_c, 0, 83, 56
2, 11753, Note_on_c, 0, 83, 0
2, 11761, Note_on_c, 0, 80, 51
2, 11761, Note_on_c, 0, 66, 56
2, 11761, Note_on_c, 0, 69, 55
2, 11762, Control_c, 0, 64, 0
2, 11763, Control_c, 0, 64, 0
2, 11789, Note_on_c, 0, 80, 0
2, 11789, Note_on_c, 0, 81, 64
2, 11792, Control_c, 0, 64, 127
2, 11793, Control_c, 0, 64, 127
2, 11819, Note_on_c, 0, 81, 0
2, 11819, Control_c, 0, 64, 0
2, 11822, Note_on_c, 0, 86, 72
2, 11844, Control_c, 0, 64, 127
2, 11848, Note_on_c, 0, 86, 0
2, 11850, Note_on_c, 0, 78, 52
2, 11878, Note_on_c, 0, 78, 0
2, 11879, Note_on_c, 0, 81, 62
2, 11880, Note_on_c, 0, 66, 0
2, 11880, Note_on_c, 0, 64, 62
2, 11882, Control_c, 0, 64, 0
2, 11882, Control_c, 0, 64, 0
2, 11907, Control_c, 0, 64, 127
2, 11908, Note_on_c, 0, 80, 64
2, 11909, Note_on_c, 0, 81, 0
2, 11912, Control_c, 0, 64, 127
2, 11924, Control_c, 0, 64, 0
2, 11938, Note_on_c, 0, 80, 0
2, 11941, Note_on_c, 0, 79, 62
2, 11945, Control_c, 0, 64, 127
2, 11953, Note_on_c, 0, 79, 0
2, 11953, Note_on_c, 0, 64, 0
2, 11954, Note_on_c, 0, 69, 0
2, 11970, Note_on_c, 0, 75, 55
2, 11977, Control_c, 0, 64, 0
2, 12000, Note_on_c, 0, 76, 60
2, 12001, Note_on_c, 0, 75, 0
2, 12001, Note_on_c, 0, 69, 64
2, 12001, Note_on_c, 0, 67, 64
2, 12003, Control_c, 0, 64, 0
2, 12022, Control_c, 0, 64, 127
2, 12029, Note_on_c, 0, 78, 56
2, 12031, Control_c, 0, 64, 0
2, 12032, Note_on_c, 0, 76, 0
2, 12033, Control_c, 0, 64, 127
2, 12056, Note_on_c, 0, 78, 0
2, 12060, Control_c, 0, 64, 127
2, 12062, Note_on_c, 0, 79, 53
2, 12088, Note_on_c, 0, 79, 0
2, 12090, Note_on_c, 0, 73, 57
2, 12112, Note_on_c, 0, 73, 0
2, 12116, Note_on_c, 0, 67, 0
2, 12120, Note_on_c, 0, 76, 52
2, 12120, Note_on_c, 0, 66, 57
2, 12124, Control_c, 0, 64, 0
2, 12125, Control_c, 0, 64, 0
2, 12148, Note_on_c, 0, 76, 0
2, 12148, Control_c, 0, 64, 127
2, 12153, Note_on_c, 0, 74, 55
2, 12153, Control_c, 0, 64, 127
2, 12160, Note_on_c, 0, 74, 0
2, 12169, Control_c, 0, 64, 0
2, 12182, Note_on_c, 0, 85, 68
2, 12185, Note_on_c, 0, 66, 0
2, 12186, Note_on_c, 0, 69, 0
2, 12190, Control_c, 0, 64, 0
2, 12201, Control_c, 0, 64, 127
2, 12209, Note_on_c, 0, 85, 0
2, 12211, Note_on_c, 0, 86, 72
2, 12238, Control_c, 0, 64, 0
2, 12241, Note_on_c, 0, 71, 46
2, 12241, Note_on_c, 0, 67, 56
2, 12241, Note_on_c, 0, 84, 76
2, 12242, Note_on_c, 0, 86, 0
2, 12245, Control_c, 0, 64, 127
2, 12267, Control_c, 0, 64, 127
2, 12273, Note_on_c, 0, 84, 0
2, 12274, Note_on_c, 0, 83, 62
2, 12276, Note_on_c, 0, 67, 0
2, 12280, Note_on_c, 0, 71, 0
2, 12283, Control_c, 0, 64, 0
2, 12302, Note_on_c, 0, 81, 64
2, 12302, Note_on_c, 0, 71, 62
2, 12302, Note_on_c, 0, 67, 76
2, 12303, Note_on_c, 0, 83, 0
2, 12315, Control_c, 0, 64, 127
2, 12326, Control_c, 0, 64, 0
2, 12331, Note_on_c, 0, 79, 76
2, 12333, Note_on_c, 0, 81, 0
2, 12344, Note_on_c, 0, 67, 0
2, 12347, Note_on_c, 0, 71, 0
2, 12360, Note_on_c, 0, 78, 64
2, 12360, Note_on_c, 0, 71, 68
2, 12360, Note_on_c, 0, 67, 72
2, 12361, Note_on_c, 0, 79, 0
2, 12391, Note_on_c, 0, 78, 0
2, 12392, Control_c, 0, 64, 127
2, 12393, Note_on_c, 0, 79, 68
2, 12399, Note_on_c, 0, 67, 0
2, 12401, Note_on_c, 0, 71, 0
2, 12403, Control_c, 0, 64, 0
2, 12421, Note_on_c, 0, 81, 76
2, 12421, Note_on_c, 0, 71, 80
2, 12421, Note_on_c, 0, 67, 80
2, 12424, Note_on_c, 0, 79, 0
2, 12449, Control_c, 0, 64, 127
2, 12449, Note_on_c, 0, 83, 80
2, 12452, Note_on_c, 0, 67, 0
2, 12454, Note_on_c, 0, 71, 0
2, 12456, Note_on_c, 0, 81, 0
2, 12464, Note_on_c, 0, 83, 0
2, 12480, Note_on_c, 0, 84, 76
2, 12481, Note_on_c, 0, 72, 62
2, 12481, Note_on_c, 0, 67, 64
2, 12482, Control_c, 0, 64, 0
2, 12485, Control_c, 0, 64, 0
2, 12489, Note_on_c, 0, 84, 0
2, 12514, Note_on_c, 0, 86, 72
2, 12515, Control_c, 0, 64, 127
2, 12522, Note_on_c, 0, 84, 50
2, 12523, Note_on_c, 0, 86, 0
2, 12530, Note_on_c, 0, 83, 62
2, 12531, Note_on_c, 0, 84, 0
2, 12542, Note_on_c, 0, 83, 0
2, 12542, Note_on_c, 0, 84, 62
2, 12553, Note_on_c, 0, 84, 0
2, 12572, Note_on_c, 0, 88, 80
2, 12581, Note_on_c, 0, 88, 0
2, 12600, Note_on_c, 0, 85, 64
2, 12600, Note_on_c, 0, 71, 76
2, 12604, Control_c, 0, 64, 0
2, 12606, Note_on_c, 0, 72, 0
2, 12623, Control_c, 0, 64, 127
2, 12625, Note_on_c, 0, 85, 0
2, 12625, Control_c, 0, 64, 127
2, 12628, Note_on_c, 0, 86, 62
2, 12640, Control_c, 0, 64, 0
2, 12659, Note_on_c, 0, 86, 0
2, 12661, Note_on_c, 0, 83, 76
2, 12668, Note_on_c, 0, 71, 0
2, 12669, Note_on_c, 0, 67, 0
2, 12669, Control_c, 0, 64, 0
2, 12678, Control_c, 0, 64, 127
2, 12688, Note_on_c, 0, 83, 0
2, 12689, Note_on_c, 0, 79, 64
2, 12697, Note_on_c, 0, 79, 0
2, 12718, Note_on_c, 0, 76, 80
2, 12718, Control_c, 0, 64, 0
2, 12721, Note_on_c, 0, 67, 62
2, 12721, Note_on_c, 0, 69, 72
2, 12725, Note_on_c, 0, 76, 0
2, 12741, Control_c, 0, 64, 127
2, 12749, Note_on_c, 0, 83, 80
2, 12762, Note_on_c, 0, 83, 0
2, 12763, Note_on_c, 0, 81, 57
2, 12769, Note_on_c, 0, 80, 72
2, 12771, Note_on_c, 0, 81, 0
2, 12779, Note_on_c, 0, 80, 0
2, 12783, Note_on_c, 0, 81, 76
2, 12791, Note_on_c, 0, 81, 0
2, 12811, Note_on_c, 0, 83, 76
2, 12818, Note_on_c, 0, 83, 0
2, 12833, Control_c, 0, 64, 0
2, 12838, Note_on_c, 0, 69, 0
2, 12839, Note_on_c, 0, 67, 0
2, 12840, Note_on_c, 0, 86, 72
2, 12854, Control_c, 0, 64, 127
2, 12868, Note_on_c, 0, 85, 68
2, 12870, Note_on_c, 0, 86, 0
2, 12898, Control_c, 0, 64, 0
2, 12900, Note_on_c, 0, 85, 0
2, 12901, Note_on_c, 0, 66, 60
2, 12901, Note_on_c, 0, 69, 64
2, 12903, Note_on_c, 0, 84, 55
2, 12905, Control_c, 0, 64, 127
2, 12924, Note_on_c, 0, 69, 0
2, 12924, Note_on_c, 0, 66, 0
2, 12928, Note_on_c, 0, 84, 0
2, 12930, Note_on_c, 0, 80, 57
2, 12938, Control_c, 0, 64, 127
2, 12952, Note_on_c, 0, 80, 0
2, 12958, Note_on_c, 0, 81, 64
2, 12961, Note_on_c, 0, 72, 68
2, 12961, Note_on_c, 0, 66, 59
2, 12962, Control_c, 0, 64, 0
2, 12964, Control_c, 0, 64, 0
2, 12989, Note_on_c, 0, 83, 62
2, 12990, Note_on_c, 0, 81, 0
2, 12992, Control_c, 0, 64, 127
2, 13013, Note_on_c, 0, 83, 0
2, 13022, Note_on_c, 0, 84, 68
2, 13042, Control_c, 0, 64, 127
2, 13045, Note_on_c, 0, 66, 0
2, 13049, Note_on_c, 0, 84, 0
2, 13051, Note_on_c, 0, 78, 59
2, 13051, Note_on_c, 0, 69, 60
2, 13058, Note_on_c, 0, 72, 0
2, 13061, Note_on_c, 0, 69, 0
2, 13077, Note_on_c, 0, 78, 0
2, 13078, Control_c, 0, 64, 0
2, 13080, Note_on_c, 0, 81, 51
2, 13080, Note_on_c, 0, 71, 62
2, 13080, Note_on_c, 0, 67, 57
2, 13082, Control_c, 0, 64, 0
2, 13102, Control_c, 0, 64, 127
2, 13111, Note_on_c, 0, 81, 0
2, 13112, Control_c, 0, 64, 127
2, 13113, Note_on_c, 0, 79, 64
2, 13123, Note_on_c, 0, 79, 0
2, 13127, Control_c, 0, 64, 0
2, 13138, Note_on_c, 0, 71, 0
2, 13142, Note_on_c, 0, 71, 80
2, 13143, Note_on_c, 0, 67, 0
2, 13149, Control_c, 0, 64, 0
2, 13163, Control_c, 0, 64, 127
2, 13166, Note_on_c, 0, 71, 0
2, 13171, Note_on_c, 0, 79, 85
2, 13178, Note_on_c, 0, 79, 0
2, 13201, Note_on_c, 0, 71, 76
2, 13201, Note_on_c, 0, 64, 89
2, 13201, Note_on_c, 0, 67, 89
2, 13202, Control_c, 0, 64, 0
2, 13206, Note_on_c, 0, 76, 72
2, 13214, Control_c, 0, 64, 127
2, 13229, Control_c, 0, 64, 127
2, 13234, Note_on_c, 0, 83, 80
2, 13235, Note_on_c, 0, 76, 0
2, 13263, Note_on_c, 0, 79, 93
2, 13264, Note_on_c, 0, 83, 0
2, 13268, Control_c, 0, 64, 0
2, 13292, Note_on_c, 0, 79, 0
2, 13292, Note_on_c, 0, 88, 93
2, 13293, Control_c, 0, 64, 127
2, 13297, Note_on_c, 0, 67, 0
2, 13301, Note_on_c, 0, 64, 0
2, 13316, Note_on_c, 0, 88, 0
2, 13320, Note_on_c, 0, 87, 76
2, 13320, Note_on_c, 0, 66, 72
2, 13320, Note_on_c, 0, 69, 80
2, 13327, Control_c, 0, 64, 0
2, 13327, Control_c, 0, 64, 0
2, 13346, Note_on_c, 0, 69, 0
2, 13347, Control_c, 0, 64, 127
2, 13350, Control_c, 0, 64, 127
2, 13353, Note_on_c, 0, 87, 0
2, 13353, Note_on_c, 0, 83, 85
2, 13359, Note_on_c, 0, 66, 0
2, 13363, Control_c, 0, 64, 0
2, 13380, Control_c, 0, 64, 0
2, 13381, Note_on_c, 0, 81, 89
2, 13381, Control_c, 0, 64, 127
2, 13381, Note_on_c, 0, 66, 85
2, 13381, Note_on_c, 0, 63, 72
2, 13384, Note_on_c, 0, 83, 0
2, 13390, Note_on_c, 0, 81, 0
2, 13395, Control_c, 0, 64, 127
2, 13410, Note_on_c, 0, 78, 76
2, 13412, Note_on_c, 0, 63, 0
2, 13413, Note_on_c, 0, 66, 0
2, 13416, Note_on_c, 0, 71, 0
2, 13423, Note_on_c, 0, 78, 0
2, 13435, Control_c, 0, 64, 0
2, 13440, Control_c, 0, 64, 0
2, 13441, Note_on_c, 0, 79, 93
2, 13441, Note_on_c, 0, 67, 80
2, 13441, Note_on_c, 0, 71, 80
2, 13441, Note_on_c, 0, 64, 80
2, 13451, Note_on_c, 0, 79, 0
2, 13455, Control_c, 0, 64, 127
2, 13468, Note_on_c, 0, 81, 89
2, 13476, Note_on_c, 0, 79, 51
2, 13477, Note_on_c, 0, 81, 0
2, 13483, Note_on_c, 0, 78, 80
2, 13485, Note_on_c, 0, 79, 0
2, 13486, Control_c, 0, 64, 127
2, 13489, Control_c, 0, 64, 0
2, 13492, Note_on_c, 0, 78, 0
2, 13497, Note_on_c, 0, 79, 80
2, 13506, Note_on_c, 0, 64, 0
2, 13506, Note_on_c, 0, 67, 0
2, 13507, Note_on_c, 0, 79, 0
2, 13508, Note_on_c, 0, 71, 0
2, 13517, Control_c, 0, 64, 0
2, 13525, Note_on_c, 0, 81, 98
2, 13535, Note_on_c, 0, 81, 0
2, 13558, Note_on_c, 0, 83, 93
2, 13560, Note_on_c, 0, 77, 80
2, 13560, Note_on_c, 0, 67, 89
2, 13570, Control_c, 0, 64, 127
2, 13570, Control_c, 0, 64, 127
2, 13573, Note_on_c, 0, 83, 0
2, 13588, Note_on_c, 0, 84, 89
2, 13598, Note_on_c, 0, 84, 0
2, 13615, Control_c, 0, 64, 0
2, 13616, Note_on_c, 0, 86, 76
2, 13619, Control_c, 0, 64, 0
2, 13621, Note_on_c, 0, 84, 72
2, 13621, Note_on_c, 0, 71, 89
2, 13622, Note_on_c, 0, 77, 0
2, 13623, Note_on_c, 0, 84, 0
2, 13635, Control_c, 0, 64, 127
2, 13638, Note_on_c, 0, 86, 0
2, 13642, Control_c, 0, 64, 127
2, 13649, Note_on_c, 0, 87, 98
2, 13659, Note_on_c, 0, 87, 0
2, 13671, Control_c, 0, 64, 0
2, 13678, Control_c, 0, 64, 0
2, 13680, Note_on_c, 0, 88, 89
2, 13681, Note_on_c, 0, 72, 57
2, 13683, Note_on_c, 0, 71, 0
2, 13698, Control_c, 0, 64, 127
2, 13701, Note_on_c, 0, 88, 0
2, 13703, Control_c, 0, 64, 127
2, 13709, Note_on_c, 0, 80, 80
2, 13728, Note_on_c, 0, 80, 0
2, 13737, Control_c, 0, 64, 0
2, 13741, Control_c, 0, 64, 0
2, 13742, Note_on_c, 0, 81, 89
2, 13748, Note_on_c, 0, 72, 0
2, 13750, Note_on_c, 0, 67, 0
2, 13762, Control_c, 0, 64, 127
2, 13771, Note_on_c, 0, 83, 80
2, 13772, Note_on_c, 0, 81, 0
2, 13799, Note_on_c, 0, 83, 0
2, 13799, Control_c, 0, 64, 0
2, 13800, Note_on_c, 0, 84, 89
2, 13825, Control_c, 0, 64, 127
2, 13831, Note_on_c, 0, 84, 0
2, 13833, Note_on_c, 0, 76, 76
2, 13861, Note_on_c, 0, 76, 0
2, 13861, Control_c, 0, 64, 0
2, 13861, Note_on_c, 0, 69, 89
2, 13863, Note_on_c, 0, 83, 80
2, 13884, Control_c, 0, 64, 127
2, 13890, Control_c, 0, 64, 127
2, 13891, Note_on_c, 0, 81, 80
2, 13892, Note_on_c, 0, 83, 0
2, 13919, Note_on_c, 0, 81, 0
2, 13921, Control_c, 0, 64, 0
2, 13921, Note_on_c, 0, 71, 93
2, 13921, Note_on_c, 0, 79, 89
2, 13923, Control_c, 0, 64, 0
2, 13924, Note_on_c, 0, 69, 0
2, 13951, Note_on_c, 0, 79, 0
2, 13954, Note_on_c, 0, 82, 76
2, 13957, Control_c, 0, 64, 127
2, 13958, Control_c, 0, 64, 127
2, 13979, Control_c, 0, 64, 0
2, 13980, Control_c, 0, 64, 0
2, 13981, Note_on_c, 0, 71, 0
2, 13982, Note_on_c, 0, 73, 89
2, 13983, Note_on_c, 0, 83, 89
2, 13984, Note_on_c, 0, 82, 0
2, 14003, Control_c, 0, 64, 127
2, 14006, Control_c, 0, 64, 127
2, 14011, Note_on_c, 0, 79, 80
2, 14013, Note_on_c, 0, 83, 0
2, 14022, Note_on_c, 0, 79, 0
2, 14040, Note_on_c, 0, 78, 93
2, 14040, Note_on_c, 0, 74, 93
2, 14041, Control_c, 0, 64, 0
2, 14043, Control_c, 0, 64, 0
2, 14044, Note_on_c, 0, 73, 0
2, 14059, Control_c, 0, 64, 127
2, 14068, Control_c, 0, 64, 127
2, 14073, Note_on_c, 0, 78, 0
2, 14073, Note_on_c, 0, 85, 76
2, 14078, Note_on_c, 0, 74, 0
2, 14095, Control_c, 0, 64, 0
2, 14096, Note_on_c, 0, 85, 0
2, 14101, Note_on_c, 0, 69, 93
2, 14101, Note_on_c, 0, 66, 72
2, 14102, Note_on_c, 0, 86, 93
2, 14103, Control_c, 0, 64, 0
2, 14119, Control_c, 0, 64, 127
2, 14120, Control_c, 0, 64, 127
2, 14126, Note_on_c, 0, 69, 0
2, 14128, Note_on_c, 0, 66, 0
2, 14131, Note_on_c, 0, 74, 76
2, 14132, Note_on_c, 0, 86, 0
2, 14144, Note_on_c, 0, 74, 0
2, 14161, Note_on_c, 0, 71, 76
2, 14161, Note_on_c, 0, 74, 80
2, 14161, Note_on_c, 0, 67, 72
2, 14162, Control_c, 0, 64, 0
2, 14166, Note_on_c, 0, 76, 76
2, 14166, Control_c, 0, 64, 0
2, 14189, Control_c, 0, 64, 127
2, 14194, Note_on_c, 0, 76, 0
2, 14194, Note_on_c, 0, 82, 76
2, 14195, Control_c, 0, 64, 127
2, 14196, Control_c, 0, 64, 0
2, 14222, Note_on_c, 0, 83, 93
2, 14223, Note_on_c, 0, 82, 0
2, 14252, Note_on_c, 0, 84, 85
2, 14255, Note_on_c, 0, 83, 0
2, 14280, Note_on_c, 0, 85, 89
2, 14281, Note_on_c, 0, 84, 0
2, 14285, Control_c, 0, 64, 127
2, 14298, Control_c, 0, 64, 0
2, 14310, Note_on_c, 0, 85, 0
2, 14313, Note_on_c, 0, 86, 89
2, 14332, Control_c, 0, 64, 127
2, 14338, Control_c, 0, 64, 0
2, 14342, Note_on_c, 0, 87, 89
2, 14343, Note_on_c, 0, 86, 0
2, 14359, Control_c, 0, 64, 127
2, 14364, Note_on_c, 0, 71, 0
2, 14365, Note_on_c, 0, 74, 0
2, 14366, Note_on_c, 0, 87, 0
2, 14368, Note_on_c, 0, 67, 0
2, 14369, Note_on_c, 0, 88, 93
2, 14398, Control_c, 0, 64, 0
2, 14400, Note_on_c, 0, 88, 0
2, 14400, Note_on_c, 0, 86, 93
2, 14401, Note_on_c, 0, 74, 85
2, 14401, Note_on_c, 0, 72, 89
2, 14401, Note_on_c, 0, 69, 85
2, 14401, Control_c, 0, 64, 0
2, 14421, Control_c, 0, 64, 127
2, 14429, Control_c, 0, 64, 127
2, 14429, Note_on_c, 0, 85, 89
2, 14431, Note_on_c, 0, 86, 0
2, 14437, Control_c, 0, 64, 0
2, 14457, Note_on_c, 0, 85, 0
2, 14462, Note_on_c, 0, 84, 80
2, 14467, Control_c, 0, 64, 127
2, 14483, Note_on_c, 0, 84, 0
2, 14487, Control_c, 0, 64, 0
2, 14490, Note_on_c, 0, 83, 85
2, 14507, Control_c, 0, 64, 127
2, 14518, Control_c, 0, 64, 0
2, 14520, Note_on_c, 0, 80, 72
2, 14521, Note_on_c, 0, 83, 0
2, 14541, Control_c, 0, 64, 127
2, 14548, Note_on_c, 0, 81, 85
2, 14549, Note_on_c, 0, 80, 0
2, 14562, Control_c, 0, 64, 0
2, 14579, Note_on_c, 0, 81, 0
2, 14581, Note_on_c, 0, 84, 85
2, 14591, Control_c, 0, 64, 127
2, 14609, Note_on_c, 0, 84, 0
2, 14609, Note_on_c, 0, 78, 72
2, 14617, Note_on_c, 0, 78, 0
2, 14632, Note_on_c, 0, 74, 0
2, 14634, Note_on_c, 0, 72, 0
2, 14635, Note_on_c, 0, 69, 0
2, 14635, Control_c, 0, 64, 0
2, 14640, Note_on_c, 0, 79, 93
2, 14640, Control_c, 0, 64, 0
2, 14660, Control_c, 0, 64, 127
2, 14669, Note_on_c, 0, 71, 76
2, 14671, Note_on_c, 0, 79, 0
2, 14695, Note_on_c, 0, 71, 0
2, 14698, Control_c, 0, 64, 0
2, 14702, Note_on_c, 0, 74, 85
2, 14702, Note_on_c, 0, 71, 89
2, 14708, Control_c, 0, 64, 127
2, 14718, Control_c, 0, 64, 127
2, 14726, Note_on_c, 0, 71, 0
2, 14730, Note_on_c, 0, 74, 0
2, 14730, Note_on_c, 0, 79, 76
2, 14736, Note_on_c, 0, 79, 0
2, 14759, Control_c, 0, 64, 0
2, 14760, Note_on_c, 0, 83, 93
2, 14760, Note_on_c, 0, 67, 89
2, 14761, Control_c, 0, 64, 0
2, 14778, Control_c, 0, 64, 127
2, 14780, Control_c, 0, 64, 127
2, 14787, Note_on_c, 0, 83, 0
2, 14788, Note_on_c, 0, 67, 0
2, 14793, Note_on_c, 0, 84, 72
2, 14793, Note_on_c, 0, 66, 68
2, 14814, Note_on_c, 0, 66, 0
2, 14817, Control_c, 0, 64, 0
2, 14820, Note_on_c, 0, 84, 0
2, 14821, Note_on_c, 0, 81, 93
2, 14821, Note_on_c, 0, 72, 89
2, 14823, Control_c, 0, 64, 0
2, 14834, Control_c, 0, 64, 127
2, 14842, Control_c, 0, 64, 127
2, 14847, Note_on_c, 0, 72, 0
2, 14849, Note_on_c, 0, 78, 64
2, 14851, Note_on_c, 0, 81, 0
2, 14851, Note_on_c, 0, 69, 80
2, 14857, Note_on_c, 0, 69, 0
2, 14858, Note_on_c, 0, 78, 0
2, 14874, Control_c, 0, 64, 0
2, 14876, Control_c, 0, 64, 0
2, 14880, Note_on_c, 0, 86, 98
2, 14881, Note_on_c, 0, 77, 89
2, 14881, Note_on_c, 0, 67, 80
2, 14889, Note_on_c, 0, 86, 0
2, 14892, Control_c, 0, 64, 127
2, 14900, Control_c, 0, 64, 0
2, 14901, Control_c, 0, 64, 127
2, 14909, Note_on_c, 0, 88, 93
2, 14919, Note_on_c, 0, 88, 0
2, 14921, Note_on_c, 0, 86, 76
2, 14930, Note_on_c, 0, 85, 76
2, 14932, Note_on_c, 0, 86, 0
2, 14938, Note_on_c, 0, 85, 0
2, 14942, Note_on_c, 0, 86, 102
2, 14951, Note_on_c, 0, 86, 0
2, 14970, Note_on_c, 0, 87, 107
2, 14979, Note_on_c, 0, 87, 0
2, 14998, Note_on_c, 0, 88, 98
2, 15000, Control_c, 0, 64, 0
2, 15000, Note_on_c, 0, 76, 80
2, 15002, Note_on_c, 0, 77, 0
2, 15013, Control_c, 0, 64, 127
2, 15017, Control_c, 0, 64, 127
2, 15027, Note_on_c, 0, 88, 0
2, 15028, Note_on_c, 0, 83, 93
2, 15054, Note_on_c, 0, 83, 0
2, 15054, Control_c, 0, 64, 0
2, 15056, Note_on_c, 0, 84, 89
2, 15065, Note_on_c, 0, 76, 0
2, 15067, Control_c, 0, 64, 0
2, 15072, Note_on_c, 0, 67, 0
2, 15077, Control_c, 0, 64, 127
2, 15086, Note_on_c, 0, 84, 0
2, 15089, Note_on_c, 0, 81, 89
2, 15112, Note_on_c, 0, 81, 0
2, 15119, Control_c, 0, 64, 0
2, 15120, Note_on_c, 0, 79, 93
2, 15121, Note_on_c, 0, 71, 76
2, 15121, Note_on_c, 0, 74, 80
2, 15149, Note_on_c, 0, 83, 98
2, 15151, Control_c, 0, 64, 127
2, 15156, Note_on_c, 0, 79, 0
2, 15157, Control_c, 0, 64, 127
2, 15160, Note_on_c, 0, 83, 0
2, 15182, Note_on_c, 0, 86, 89
2, 15182, Control_c, 0, 64, 0
2, 15184, Note_on_c, 0, 71, 0
2, 15187, Note_on_c, 0, 74, 0
2, 15193, Note_on_c, 0, 86, 0
2, 15203, Control_c, 0, 64, 0
2, 15210, Note_on_c, 0, 86, 98
2, 15219, Note_on_c, 0, 86, 0
2, 15221, Control_c, 0, 64, 127
2, 15229, Control_c, 0, 64, 0
2, 15239, Note_on_c, 0, 86, 93
2, 15260, Control_c, 0, 64, 127
2, 15268, Control_c, 0, 64, 0
2, 15268, Note_on_c, 0, 85, 85
2, 15271, Note_on_c, 0, 86, 0
2, 15299, Note_on_c, 0, 85, 0
2, 15301, Note_on_c, 0, 84, 89
2, 15301, Note_on_c, 0, 74, 80
2, 15301, Note_on_c, 0, 69, 76
2, 15307, Control_c, 0, 64, 127
2, 15313, Control_c, 0, 64, 127
2, 15319, Note_on_c, 0, 84, 0
2, 15325, Control_c, 0, 64, 0
2, 15329, Note_on_c, 0, 80, 85
2, 15332, Note_on_c, 0, 74, 0
2, 15335, Note_on_c, 0, 69, 0
2, 15341, Control_c, 0, 64, 127
2, 15360, Note_on_c, 0, 81, 76
2, 15360, Control_c, 0, 64, 0
2, 15361, Note_on_c, 0, 72, 76
2, 15361, Note_on_c, 0, 74, 76
2, 15362, Note_on_c, 0, 80, 0
2, 15362, Control_c, 0, 64, 0
2, 15381, Control_c, 0, 64, 127
2, 15389, Note_on_c, 0, 83, 93
2, 15392, Note_on_c, 0, 81, 0
2, 15394, Control_c, 0, 64, 0
2, 15396, Control_c, 0, 64, 127
2, 15414, Note_on_c, 0, 83, 0
2, 15418, Control_c, 0, 64, 127
2, 15422, Note_on_c, 0, 84, 80
2, 15441, Note_on_c, 0, 84, 0
2, 15451, Note_on_c, 0, 78, 68
2, 15469, Control_c, 0, 64, 0
2, 15476, Note_on_c, 0, 78, 0
2, 15477, Note_on_c, 0, 72, 0
2, 15479, Control_c, 0, 64, 0
2, 15480, Note_on_c, 0, 81, 80
2, 15480, Note_on_c, 0, 71, 76
2, 15501, Control_c, 0, 64, 127
2, 15507, Note_on_c, 0, 81, 0
2, 15508, Control_c, 0, 64, 127
2, 15508, Note_on_c, 0, 79, 64
2, 15518, Note_on_c, 0, 79, 0
2, 15533, Control_c, 0, 64, 0
2, 15542, Note_on_c, 0, 71, 75
2, 15544, Note_on_c, 0, 71, 0
2, 15545, Control_c, 0, 64, 0
2, 15547, Note_on_c, 0, 74, 0
2, 15565, Note_on_c, 0, 71, 0
2, 15566, Control_c, 0, 64, 127
2, 15569, Note_on_c, 0, 79, 80
2, 15579, Note_on_c, 0, 79, 0
2, 15600, Note_on_c, 0, 76, 52
2, 15601, Note_on_c, 0, 71, 64
2, 15601, Note_on_c, 0, 64, 53
2, 15601, Note_on_c, 0, 67, 64
2, 15603, Control_c, 0, 64, 0
2, 15620, Control_c, 0, 64, 127
2, 15624, Control_c, 0, 64, 127
2, 15628, Note_on_c, 0, 83, 48
2, 15632, Note_on_c, 0, 76, 0
2, 15655, Control_c, 0, 64, 0
2, 15656, Note_on_c, 0, 83, 0
2, 15657, Note_on_c, 0, 79, 59
2, 15674, Note_on_c, 0, 67, 0
2, 15674, Control_c, 0, 64, 127
2, 15675, Note_on_c, 0, 64, 0
2, 15680, Note_on_c, 0, 79, 0
2, 15690, Note_on_c, 0, 88, 60
2, 15714, Note_on_c, 0, 88, 0
2, 15717, Control_c, 0, 64, 0
2, 15718, Note_on_c, 0, 87, 59
2, 15719, Control_c, 0, 64, 0
2, 15720, Note_on_c, 0, 66, 56
2, 15720, Note_on_c, 0, 69, 72
2, 15737, Control_c, 0, 64, 127
2, 15738, Control_c, 0, 64, 127
2, 15746, Note_on_c, 0, 69, 0
2, 15747, Note_on_c, 0, 83, 64
2, 15751, Note_on_c, 0, 87, 0
2, 15752, Note_on_c, 0, 66, 0
2, 15766, Control_c, 0, 64, 0
2, 15776, Note_on_c, 0, 81, 56
2, 15777, Note_on_c, 0, 83, 0
2, 15777, Control_c, 0, 64, 0
2, 15781, Note_on_c, 0, 66, 56
2, 15781, Note_on_c, 0, 63, 47
2, 15782, Control_c, 0, 64, 127
2, 15793, Control_c, 0, 64, 127
2, 15797, Note_on_c, 0, 81, 0
2, 15804, Note_on_c, 0, 78, 64
2, 15811, Note_on_c, 0, 66, 0
2, 15813, Note_on_c, 0, 63, 0
2, 15816, Note_on_c, 0, 71, 0
2, 15819, Note_on_c, 0, 78, 0
2, 15837, Note_on_c, 0, 79, 64
2, 15838, Control_c, 0, 64, 0
2, 15840, Control_c, 0, 64, 0
2, 15841, Note_on_c, 0, 64, 49
2, 15841, Note_on_c, 0, 67, 53
2, 15841, Note_on_c, 0, 71, 60
2, 15847, Note_on_c, 0, 79, 0
2, 15859, Control_c, 0, 64, 127
2, 15862, Note_on_c, 0, 81, 59
2, 15871, Note_on_c, 0, 81, 0
2, 15875, Note_on_c, 0, 79, 44
2, 15877, Control_c, 0, 64, 127
2, 15883, Note_on_c, 0, 79, 0
2, 15883, Note_on_c, 0, 78, 47
2, 15890, Control_c, 0, 64, 0
2, 15893, Note_on_c, 0, 78, 0
2, 15895, Note_on_c, 0, 79, 76
2, 15897, Note_on_c, 0, 64, 0
2, 15898, Note_on_c, 0, 71, 0
2, 15898, Note_on_c, 0, 67, 0
2, 15904, Control_c, 0, 64, 0
2, 15909, Note_on_c, 0, 79, 0
2, 15924, Note_on_c, 0, 81, 76
2, 15932, Note_on_c, 0, 81, 0
2, 15952, Note_on_c, 0, 83, 80
2, 15960, Note_on_c, 0, 77, 68
2, 15960, Note_on_c, 0, 67, 60
2, 15963, Control_c, 0, 64, 127
2, 15973, Control_c, 0, 64, 127
2, 15981, Note_on_c, 0, 83, 0
2, 15981, Note_on_c, 0, 84, 64
2, 15991, Control_c, 0, 64, 0
2, 16010, Note_on_c, 0, 84, 0
2, 16013, Control_c, 0, 64, 0
2, 16015, Note_on_c, 0, 86, 62
2, 16021, Note_on_c, 0, 71, 76
2, 16025, Note_on_c, 0, 77, 0
2, 16029, Control_c, 0, 64, 127
2, 16030, Control_c, 0, 64, 127
2, 16046, Note_on_c, 0, 86, 0
2, 16049, Note_on_c, 0, 87, 64
2, 16067, Control_c, 0, 64, 0
2, 16073, Control_c, 0, 64, 0
2, 16075, Note_on_c, 0, 87, 0
2, 16077, Note_on_c, 0, 88, 76
2, 16081, Note_on_c, 0, 72, 56
2, 16083, Note_on_c, 0, 71, 0
2, 16093, Control_c, 0, 64, 127
2, 16102, Control_c, 0, 64, 127
2, 16106, Note_on_c, 0, 88, 0
2, 16107, Note_on_c, 0, 80, 57
2, 16132, Note_on_c, 0, 80, 0
2, 16134, Control_c, 0, 64, 0
2, 16135, Control_c, 0, 64, 0
2, 16136, Note_on_c, 0, 81, 64
2, 16139, Note_on_c, 0, 72, 0
2, 16140, Note_on_c, 0, 67, 0
2, 16164, Control_c, 0, 64, 127
2, 16165, Note_on_c, 0, 81, 0
2, 16165, Note_on_c, 0, 83, 64
2, 16192, Control_c, 0, 64, 0
2, 16193, Note_on_c, 0, 84, 64
2, 16194, Note_on_c, 0, 83, 0
2, 16223, Note_on_c, 0, 84, 0
2, 16223, Control_c, 0, 64, 127
2, 16226, Note_on_c, 0, 76, 76
2, 16254, Note_on_c, 0, 76, 0
2, 16255, Control_c, 0, 64, 0
2, 16255, Note_on_c, 0, 83, 76
2, 16261, Note_on_c, 0, 69, 72
2, 16267, Control_c, 0, 64, 127
2, 16284, Note_on_c, 0, 81, 72
2, 16286, Note_on_c, 0, 83, 0
2, 16287, Control_c, 0, 64, 127
2, 16314, Note_on_c, 0, 81, 0
2, 16314, Control_c, 0, 64, 0
2, 16317, Note_on_c, 0, 79, 72
2, 16321, Note_on_c, 0, 71, 80
2, 16321, Control_c, 0, 64, 0
2, 16324, Note_on_c, 0, 69, 0
2, 16347, Note_on_c, 0, 82, 72
2, 16347, Control_c, 0, 64, 127
2, 16350, Note_on_c, 0, 79, 0
2, 16351, Control_c, 0, 64, 127
2, 16373, Note_on_c, 0, 82, 0
2, 16375, Note_on_c, 0, 83, 80
2, 16375, Control_c, 0, 64, 0
2, 16380, Control_c, 0, 64, 0
2, 16382, Note_on_c, 0, 73, 76
2, 16384, Note_on_c, 0, 71, 0
2, 16405, Control_c, 0, 64, 127
2, 16405, Note_on_c, 0, 80, 68
2, 16408, Control_c, 0, 64, 127
2, 16409, Note_on_c, 0, 83, 0
2, 16434, Control_c, 0, 64, 0
2, 16436, Note_on_c, 0, 80, 0
2, 16438, Note_on_c, 0, 78, 64
2, 16438, Control_c, 0, 64, 0
2, 16440, Note_on_c, 0, 74, 62
2, 16442, Note_on_c, 0, 73, 0
2, 16460, Control_c, 0, 64, 127
2, 16465, Control_c, 0, 64, 127
2, 16468, Note_on_c, 0, 85, 72
2, 16473, Note_on_c, 0, 78, 0
2, 16479, Control_c, 0, 64, 0
2, 16492, Note_on_c, 0, 85, 0
2, 16498, Control_c, 0, 64, 0
2, 16500, Note_on_c, 0, 74, 0
2, 16501, Note_on_c, 0, 86, 89
2, 16501, Note_on_c, 0, 69, 80
2, 16501, Note_on_c, 0, 66, 55
2, 16518, Control_c, 0, 64, 127
2, 16520, Control_c, 0, 64, 127
2, 16530, Note_on_c, 0, 86, 0
2, 16530, Note_on_c, 0, 74, 72
2, 16532, Note_on_c, 0, 66, 0
2, 16532, Note_on_c, 0, 69, 0
2, 16541, Note_on_c, 0, 74, 0
2, 16558, Control_c, 0, 64, 0
2, 16561, Note_on_c, 0, 76, 62
2, 16561, Note_on_c, 0, 67, 60
2, 16561, Note_on_c, 0, 71, 64
2, 16561, Note_on_c, 0, 74, 56
2, 16563, Control_c, 0, 64, 0
2, 16584, Control_c, 0, 64, 127
2, 16589, Note_on_c, 0, 82, 62
2, 16591, Note_on_c, 0, 76, 0
2, 16593, Control_c, 0, 64, 0
2, 16594, Control_c, 0, 64, 127
2, 16617, Control_c, 0, 64, 127
2, 16619, Note_on_c, 0, 82, 0
2, 16622, Note_on_c, 0, 83, 89
2, 16627, Control_c, 0, 64, 0
2, 16651, Note_on_c, 0, 84, 80
2, 16656, Note_on_c, 0, 83, 0
2, 16656, Control_c, 0, 64, 127
2, 16663, Control_c, 0, 64, 0
2, 16680, Note_on_c, 0, 85, 80
2, 16683, Note_on_c, 0, 84, 0
2, 16695, Control_c, 0, 64, 127
2, 16697, Control_c, 0, 64, 0
2, 16709, Note_on_c, 0, 85, 0
2, 16713, Note_on_c, 0, 86, 76
2, 16732, Control_c, 0, 64, 127
2, 16741, Control_c, 0, 64, 0
2, 16741, Note_on_c, 0, 87, 80
2, 16745, Note_on_c, 0, 86, 0
2, 16765, Control_c, 0, 64, 127
2, 16768, Note_on_c, 0, 87, 0
2, 16769, Note_on_c, 0, 71, 0
2, 16769, Note_on_c, 0, 88, 76
2, 16770, Note_on_c, 0, 74, 0
2, 16772, Note_on_c, 0, 67, 0
2, 16795, Control_c, 0, 64, 0
2, 16800, Note_on_c, 0, 88, 0
2, 16800, Note_on_c, 0, 86, 76
2, 16800, Control_c, 0, 64, 0
2, 16801, Note_on_c, 0, 74, 76
2, 16801, Note_on_c, 0, 72, 76
2, 16801, Note_on_c, 0, 69, 72
2, 16819, Control_c, 0, 64, 127
2, 16829, Note_on_c, 0, 85, 68
2, 16830, Note_on_c, 0, 86, 0
2, 16830, Control_c, 0, 64, 0
2, 16832, Control_c, 0, 64, 127
2, 16853, Control_c, 0, 64, 127
2, 16857, Note_on_c, 0, 85, 0
2, 16862, Note_on_c, 0, 84, 57
2, 16864, Control_c, 0, 64, 0
2, 16888, Note_on_c, 0, 84, 0
2, 16890, Note_on_c, 0, 83, 80
2, 16896, Control_c, 0, 64, 127
2, 16914, Control_c, 0, 64, 0
2, 16919, Note_on_c, 0, 80, 60
2, 16921, Note_on_c, 0, 83, 0
2, 16939, Control_c, 0, 64, 127
2, 16947, Note_on_c, 0, 80, 0
2, 16948, Note_on_c, 0, 81, 62
2, 16953, Control_c, 0, 64, 0
2, 16976, Note_on_c, 0, 84, 80
2, 16977, Control_c, 0, 64, 127
2, 16979, Note_on_c, 0, 81, 0
2, 16984, Control_c, 0, 64, 0
2, 17007, Note_on_c, 0, 84, 0
2, 17007, Control_c, 0, 64, 127
2, 17009, Note_on_c, 0, 78, 62
2, 17020, Note_on_c, 0, 78, 0
2, 17029, Note_on_c, 0, 74, 0
2, 17032, Note_on_c, 0, 72, 0
2, 17032, Note_on_c, 0, 69, 0
2, 17034, Control_c, 0, 64, 0
2, 17037, Control_c, 0, 64, 0
2, 17039, Note_on_c, 0, 79, 76
2, 17061, Control_c, 0, 64, 127
2, 17069, Note_on_c, 0, 71, 60
2, 17072, Note_on_c, 0, 79, 0
2, 17093, Control_c, 0, 64, 0
2, 17097, Note_on_c, 0, 71, 0
2, 17097, Note_on_c, 0, 74, 72
2, 17102, Note_on_c, 0, 71, 72
2, 17103, Control_c, 0, 64, 127
2, 17117, Control_c, 0, 64, 127
2, 17120, Note_on_c, 0, 71, 0
2, 17124, Note_on_c, 0, 74, 0
2, 17130, Note_on_c, 0, 79, 62
2, 17136, Note_on_c, 0, 79, 0
2, 17158, Control_c, 0, 64, 0
2, 17160, Note_on_c, 0, 83, 72
2, 17160, Note_on_c, 0, 67, 72
2, 17161, Control_c, 0, 64, 0
2, 17176, Control_c, 0, 64, 127
2, 17178, Control_c, 0, 64, 127
2, 17185, Note_on_c, 0, 67, 0
2, 17188, Note_on_c, 0, 83, 0
2, 17188, Note_on_c, 0, 84, 64
2, 17193, Note_on_c, 0, 66, 60
2, 17195, Control_c, 0, 64, 0
2, 17214, Control_c, 0, 64, 0
2, 17216, Note_on_c, 0, 84, 0
2, 17216, Control_c, 0, 64, 127
2, 17216, Note_on_c, 0, 81, 76
2, 17221, Note_on_c, 0, 72, 80
2, 17224, Note_on_c, 0, 66, 0
2, 17232, Control_c, 0, 64, 127
2, 17238, Control_c, 0, 64, 0
2, 17245, Note_on_c, 0, 81, 0
2, 17247, Note_on_c, 0, 72, 0
2, 17249, Note_on_c, 0, 78, 60
2, 17251, Note_on_c, 0, 69, 64
2, 17255, Control_c, 0, 64, 127
2, 17258, Note_on_c, 0, 69, 0
2, 17264, Note_on_c, 0, 78, 0
2, 17274, Control_c, 0, 64, 0
2, 17277, Control_c, 0, 64, 0
2, 17279, Note_on_c, 0, 86, 80
2, 17281, Note_on_c, 0, 77, 76
2, 17281, Note_on_c, 0, 67, 60
2, 17289, Note_on_c, 0, 86, 0
2, 17303, Control_c, 0, 64, 127
2, 17307, Note_on_c, 0, 88, 64
2, 17316, Note_on_c, 0, 86, 60
2, 17317, Note_on_c, 0, 88, 0
2, 17324, Control_c, 0, 64, 127
2, 17326, Note_on_c, 0, 86, 0
2, 17328, Note_on_c, 0, 85, 55
2, 17330, Control_c, 0, 64, 0
2, 17337, Note_on_c, 0, 86, 60
2, 17338, Note_on_c, 0, 85, 0
2, 17348, Note_on_c, 0, 86, 0
2, 17365, Note_on_c, 0, 87, 59
2, 17371, Note_on_c, 0, 87, 0
2, 17398, Note_on_c, 0, 88, 72
2, 17399, Control_c, 0, 64, 0
2, 17400, Note_on_c, 0, 76, 72
2, 17401, Note_on_c, 0, 77, 0
2, 17410, Control_c, 0, 64, 127
2, 17421, Control_c, 0, 64, 127
2, 17426, Note_on_c, 0, 83, 76
2, 17427, Note_on_c, 0, 88, 0
2, 17447, Control_c, 0, 64, 0
2, 17453, Note_on_c, 0, 83, 0
2, 17456, Note_on_c, 0, 84, 64
2, 17464, Control_c, 0, 64, 0
2, 17473, Note_on_c, 0, 76, 0
2, 17474, Note_on_c, 0, 67, 0
2, 17477, Control_c, 0, 64, 127
2, 17489, Note_on_c, 0, 84, 0
2, 17489, Note_on_c, 0, 81, 85
2, 17503, Note_on_c, 0, 81, 0
2, 17516, Control_c, 0, 64, 0
2, 17518, Note_on_c, 0, 79, 85
2, 17521, Note_on_c, 0, 74, 60
2, 17521, Note_on_c, 0, 71, 76
2, 17533, Control_c, 0, 64, 127
2, 17543, Control_c, 0, 64, 127
2, 17545, Note_on_c, 0, 79, 0
2, 17549, Note_on_c, 0, 83, 64
2, 17571, Control_c, 0, 64, 0
2, 17577, Note_on_c, 0, 86, 72
2, 17579, Note_on_c, 0, 83, 0
2, 17594, Control_c, 0, 64, 127
2, 17596, Note_on_c, 0, 86, 0
2, 17610, Note_on_c, 0, 86, 80
2, 17621, Note_on_c, 0, 86, 0
2, 17635, Control_c, 0, 64, 0
2, 17640, Control_c, 0, 64, 0
2, 17640, Note_on_c, 0, 86, 85
2, 17645, Note_on_c, 0, 71, 0
2, 17649, Note_on_c, 0, 74, 0
2, 17659, Control_c, 0, 64, 127
2, 17667, Note_on_c, 0, 86, 0
2, 17668, Note_on_c, 0, 85, 64
2, 17681, Note_on_c, 0, 85, 0
2, 17696, Note_on_c, 0, 84, 72
2, 17697, Control_c, 0, 64, 0
2, 17701, Note_on_c, 0, 69, 72
2, 17701, Note_on_c, 0, 74, 68
2, 17707, Control_c, 0, 64, 127
2, 17723, Control_c, 0, 64, 127
2, 17728, Note_on_c, 0, 84, 0
2, 17731, Note_on_c, 0, 80, 46
2, 17734, Note_on_c, 0, 74, 0
2, 17734, Note_on_c, 0, 69, 0
2, 17751, Note_on_c, 0, 80, 0
2, 17759, Note_on_c, 0, 81, 68
2, 17761, Note_on_c, 0, 72, 76
2, 17761, Note_on_c, 0, 74, 62
2, 17762, Control_c, 0, 64, 0
2, 17764, Control_c, 0, 64, 0
2, 17789, Note_on_c, 0, 83, 59
2, 17791, Note_on_c, 0, 81, 0
2, 17791, Control_c, 0, 64, 127
2, 17795, Control_c, 0, 64, 127
2, 17818, Note_on_c, 0, 83, 0
2, 17822, Note_on_c, 0, 84, 64
2, 17822, Control_c, 0, 64, 0
2, 17844, Control_c, 0, 64, 127
2, 17851, Note_on_c, 0, 78, 59
2, 17852, Note_on_c, 0, 84, 0
2, 17877, Note_on_c, 0, 78, 0
2, 17878, Note_on_c, 0, 72, 0
2, 17878, Control_c, 0, 64, 0
2, 17880, Control_c, 0, 64, 0
2, 17880, Note_on_c, 0, 81, 72
2, 17880, Note_on_c, 0, 71, 72
2, 17897, Control_c, 0, 64, 127
2, 17904, Control_c, 0, 64, 127
2, 17909, Note_on_c, 0, 81, 0
2, 17913, Note_on_c, 0, 79, 76
2, 17936, Note_on_c, 0, 79, 0
2, 17942, Control_c, 0, 64, 0
2, 17943, Note_on_c, 0, 71, 0
2, 17943, Note_on_c, 0, 74, 0
2, 17943, Control_c, 0, 64, 0
2, 18000, Note_on_c, 0, 71, 93
2, 18000, Note_on_c, 0, 74, 89
2, 18002, Note_on_c, 0, 79, 107
2, 18021, Control_c, 0, 64, 127
2, 18028, Control_c, 0, 64, 127
2, 18111, Control_c, 0, 64, 0
2, 18118, Note_on_c, 0, 79, 0
2, 18120, Note_on_c, 0, 74, 0
2, 18120, Note_on_c, 0, 71, 0
2, 18120, Note_on_c, 0, 72, 93
2, 18120, Note_on_c, 0, 74, 89
2, 18121, Note_on_c, 0, 81, 98
2, 18127, Control_c, 0, 64, 0
2, 18134, Note_on_c, 0, 81, 0
2, 18152, Note_on_c, 0, 83, 93
2, 18153, Control_c, 0, 64, 127
2, 18161, Note_on_c, 0, 81, 80
2, 18164, Note_on_c, 0, 83, 0
2, 18164, Note_on_c, 0, 79, 72
2, 18167, Note_on_c, 0, 81, 0
2, 18176, Note_on_c, 0, 81, 93
2, 18178, Note_on_c, 0, 79, 0
2, 18207, Note_on_c, 0, 81, 0
2, 18209, Note_on_c, 0, 83, 98
2, 18216, Note_on_c, 0, 83, 0
2, 18236, Control_c, 0, 64, 0
2, 18240, Note_on_c, 0, 74, 0
2, 18240, Note_on_c, 0, 72, 0
2, 18240, Note_on_c, 0, 79, 93
2, 18240, Note_on_c, 0, 71, 93
2, 18240, Note_on_c, 0, 74, 93
2, 18260, Control_c, 0, 64, 127
2, 18280, Control_c, 0, 64, 127
2, 18353, Note_on_c, 0, 79, 0
2, 18360, Note_on_c, 0, 74, 0
2, 18360, Note_on_c, 0, 71, 0
2, 18360, Control_c, 0, 64, 0
2, 18361, Control_c, 0, 64, 0
2, 18465, Note_on_c, 0, 86, 98
2, 18475, Note_on_c, 0, 86, 0
2, 18480, Note_on_c, 0, 66, 93
2, 18480, Note_on_c, 0, 69, 98
2, 18484, Note_on_c, 0, 74, 85
2, 18494, Control_c, 0, 64, 127
2, 18539, Note_on_c, 0, 69, 0
2, 18539, Note_on_c, 0, 66, 0
2, 18549, Control_c, 0, 64, 127
2, 18588, Note_on_c, 0, 74, 0
2, 18594, Control_c, 0, 64, 0
2, 18600, Control_c, 0, 64, 0
2, 18600, Note_on_c, 0, 69, 89
2, 18600, Note_on_c, 0, 67, 93
2, 18603, Note_on_c, 0, 76, 107
2, 18616, Note_on_c, 0, 76, 0
2, 18626, Control_c, 0, 64, 127
2, 18636, Note_on_c, 0, 78, 85
2, 18645, Note_on_c, 0, 76, 72
2, 18646, Note_on_c, 0, 78, 0
2, 18652, Note_on_c, 0, 76, 0
2, 18652, Note_on_c, 0, 74, 93
2, 18659, Note_on_c, 0, 67, 0
2, 18659, Note_on_c, 0, 69, 0
2, 18661, Note_on_c, 0, 76, 80
2, 18662, Note_on_c, 0, 74, 0
2, 18694, Note_on_c, 0, 76, 0
2, 18694, Note_on_c, 0, 78, 76
2, 18703, Note_on_c, 0, 78, 0
2, 18717, Control_c, 0, 64, 0
2, 18720, Note_on_c, 0, 69, 93
2, 18720, Note_on_c, 0, 66, 76
2, 18725, Note_on_c, 0, 74, 98
2, 18741, Control_c, 0, 64, 127
2, 18765, Control_c, 0, 64, 127
2, 18824, Note_on_c, 0, 74, 0
2, 18835, Control_c, 0, 64, 0
2, 18839, Control_c, 0, 64, 0
2, 18840, Note_on_c, 0, 66, 0
2, 18840, Note_on_c, 0, 69, 0
2, 18959, Note_on_c, 0, 89, 93
2, 18960, Note_on_c, 0, 67, 89
2, 18960, Note_on_c, 0, 71, 93
2, 18973, Control_c, 0, 64, 127
2, 18974, Control_c, 0, 64, 127
2, 19019, Note_on_c, 0, 71, 0
2, 19019, Note_on_c, 0, 89, 0
2, 19020, Note_on_c, 0, 74, 93
2, 19023, Note_on_c, 0, 86, 102
2, 19024, Control_c, 0, 64, 0
2, 19026, Control_c, 0, 64, 0
2, 19043, Control_c, 0, 64, 127
2, 19049, Control_c, 0, 64, 127
2, 19074, Control_c, 0, 64, 0
2, 19078, Note_on_c, 0, 86, 0
2, 19079, Note_on_c, 0, 74, 0
2, 19080, Note_on_c, 0, 77, 93
2, 19082, Note_on_c, 0, 83, 98
2, 19082, Control_c, 0, 64, 0
2, 19099, Control_c, 0, 64, 127
2, 19102, Control_c, 0, 64, 127
2, 19139, Note_on_c, 0, 77, 0
2, 19140, Note_on_c, 0, 71, 85
2, 19141, Note_on_c, 0, 83, 0
2, 19141, Control_c, 0, 64, 0
2, 19142, Note_on_c, 0, 77, 98
2, 19157, Control_c, 0, 64, 127
2, 19185, Note_on_c, 0, 77, 0
2, 19199, Note_on_c, 0, 71, 0
2, 19200, Note_on_c, 0, 72, 93
2, 19202, Control_c, 0, 64, 0
2, 19203, Note_on_c, 0, 76, 98
2, 19204, Control_c, 0, 64, 0
2, 19223, Control_c, 0, 64, 127
2, 19242, Control_c, 0, 64, 127
2, 19255, Note_on_c, 0, 76, 0
2, 19256, Control_c, 0, 64, 0
2, 19259, Note_on_c, 0, 72, 0
2, 19260, Note_on_c, 0, 67, 0
2, 19260, Note_on_c, 0, 79, 93
2, 19264, Note_on_c, 0, 84, 93
2, 19264, Note_on_c, 0, 88, 93
2, 19268, Control_c, 0, 64, 0
2, 19281, Control_c, 0, 64, 127
2, 19288, Control_c, 0, 64, 127
2, 19316, Control_c, 0, 64, 0
2, 19318, Note_on_c, 0, 84, 0
2, 19319, Note_on_c, 0, 88, 0
2, 19319, Note_on_c, 0, 79, 0
2, 19320, Note_on_c, 0, 79, 93
2, 19324, Note_on_c, 0, 83, 93
2, 19325, Control_c, 0, 64, 0
2, 19325, Note_on_c, 0, 86, 98
2, 19337, Control_c, 0, 64, 127
2, 19341, Control_c, 0, 64, 127
2, 19379, Note_on_c, 0, 79, 0
2, 19385, Note_on_c, 0, 86, 0
2, 19385, Note_on_c, 0, 83, 0
2, 19388, Control_c, 0, 64, 0
2, 19434, Control_c, 0, 64, 0
2, 19443, Note_on_c, 0, 76, 89
2, 19458, Note_on_c, 0, 74, 80
2, 19459, Note_on_c, 0, 76, 0
2, 19462, Control_c, 0, 64, 127
2, 19468, Note_on_c, 0, 74, 0
2, 19471, Note_on_c, 0, 76, 62
2, 19487, Note_on_c, 0, 76, 0
2, 19487, Note_on_c, 0, 74, 85
2, 19499, Note_on_c, 0, 74, 0
2, 19501, Control_c, 0, 64, 0
2, 19503, Note_on_c, 0, 76, 89
2, 19517, Note_on_c, 0, 76, 0
2, 19517, Note_on_c, 0, 74, 80
2, 19520, Control_c, 0, 64, 127
2, 19529, Note_on_c, 0, 74, 0
2, 19532, Note_on_c, 0, 76, 76
2, 19545, Note_on_c, 0, 76, 0
2, 19546, Note_on_c, 0, 74, 80
2, 19556, Control_c, 0, 64, 0
2, 19558, Note_on_c, 0, 74, 0
2, 19560, Note_on_c, 0, 76, 93
2, 19560, Note_on_c, 0, 60, 93
2, 19575, Note_on_c, 0, 76, 0
2, 19576, Note_on_c, 0, 74, 80
2, 19583, Control_c, 0, 64, 127
2, 19589, Control_c, 0, 64, 0
2, 19592, Note_on_c, 0, 74, 0
2, 19592, Note_on_c, 0, 73, 85
2, 19605, Note_on_c, 0, 73, 0
2, 19607, Note_on_c, 0, 74, 76
2, 19622, Note_on_c, 0, 74, 0
2, 19624, Note_on_c, 0, 76, 93
2, 19636, Control_c, 0, 64, 127
2, 19660, Note_on_c, 0, 76, 0
2, 19666, Note_on_c, 0, 78, 80
2, 19671, Control_c, 0, 64, 0
2, 19678, Note_on_c, 0, 78, 0
2, 19680, Note_on_c, 0, 60, 0
2, 19680, Note_on_c, 0, 59, 89
2, 19683, Note_on_c, 0, 79, 93
2, 19705, Control_c, 0, 64, 127
2, 19706, Control_c, 0, 64, 127
2, 19739, Note_on_c, 0, 59, 0
2, 19743, Note_on_c, 0, 79, 0
2, 19746, Control_c, 0, 64, 0
2, 19764, Control_c, 0, 64, 0
2, 19920, Note_on_c, 0, 71, 72
2, 19920, Note_on_c, 0, 74, 64
2, 19922, Note_on_c, 0, 79, 80
2, 19936, Control_c, 0, 64, 127
2, 19937, Control_c, 0, 64, 127
2, 19979, Note_on_c, 0, 74, 0
2, 19979, Note_on_c, 0, 71, 0
2, 20036, Control_c, 0, 64, 0
2, 20040, Note_on_c, 0, 72, 64
2, 20040, Note_on_c, 0, 74, 68
2, 20041, Note_on_c, 0, 79, 0
2, 20042, Note_on_c, 0, 81, 85
2, 20043, Control_c, 0, 64, 0
2, 20054, Note_on_c, 0, 81, 0
2, 20068, Control_c, 0, 64, 127
2, 20073, Note_on_c, 0, 83, 76
2, 20086, Note_on_c, 0, 83, 0
2, 20086, Note_on_c, 0, 81, 57
2, 20088, Note_on_c, 0, 79, 56
2, 20089, Note_on_c, 0, 81, 0
2, 20099, Note_on_c, 0, 72, 0
2, 20099, Note_on_c, 0, 74, 0
2, 20099, Note_on_c, 0, 81, 64
2, 20101, Note_on_c, 0, 79, 0
2, 20117, Note_on_c, 0, 81, 0
2, 20132, Note_on_c, 0, 83, 80
2, 20140, Note_on_c, 0, 83, 0
2, 20156, Control_c, 0, 64, 0
2, 20160, Note_on_c, 0, 74, 64
2, 20160, Note_on_c, 0, 71, 76
2, 20165, Note_on_c, 0, 79, 72
2, 20180, Control_c, 0, 64, 127
2, 20192, Control_c, 0, 64, 127
2, 20267, Note_on_c, 0, 79, 0
2, 20271, Control_c, 0, 64, 0
2, 20280, Note_on_c, 0, 71, 0
2, 20280, Note_on_c, 0, 74, 0
2, 20287, Control_c, 0, 64, 0
2, 20385, Note_on_c, 0, 86, 89
2, 20395, Note_on_c, 0, 86, 0
2, 20400, Note_on_c, 0, 66, 59
2, 20400, Note_on_c, 0, 69, 80
2, 20406, Note_on_c, 0, 74, 76
2, 20423, Control_c, 0, 64, 127
2, 20459, Note_on_c, 0, 69, 0
2, 20459, Note_on_c, 0, 66, 0
2, 20465, Control_c, 0, 64, 127
2, 20517, Note_on_c, 0, 74, 0
2, 20518, Control_c, 0, 64, 0
2, 20519, Control_c, 0, 64, 0
2, 20520, Note_on_c, 0, 69, 76
2, 20520, Note_on_c, 0, 67, 68
2, 20522, Note_on_c, 0, 76, 93
2, 20532, Note_on_c, 0, 76, 0
2, 20543, Control_c, 0, 64, 127
2, 20556, Note_on_c, 0, 78, 76
2, 20566, Note_on_c, 0, 76, 64
2, 20568, Note_on_c, 0, 78, 0
2, 20573, Note_on_c, 0, 74, 76
2, 20574, Note_on_c, 0, 76, 0
2, 20579, Note_on_c, 0, 69, 0
2, 20579, Note_on_c, 0, 67, 0
2, 20584, Note_on_c, 0, 74, 0
2, 20584, Note_on_c, 0, 76, 89
2, 20602, Note_on_c, 0, 76, 0
2, 20612, Note_on_c, 0, 78, 68
2, 20620, Note_on_c, 0, 78, 0
2, 20636, Control_c, 0, 64, 0
2, 20640, Note_on_c, 0, 69, 80
2, 20640, Note_on_c, 0, 66, 56
2, 20644, Note_on_c, 0, 74, 76
2, 20660, Control_c, 0, 64, 127
2, 20662, Control_c, 0, 64, 127
2, 20751, Note_on_c, 0, 74, 0
2, 20760, Note_on_c, 0, 66, 0
2, 20760, Note_on_c, 0, 69, 0
2, 20762, Control_c, 0, 64, 0
2, 20769, Control_c, 0, 64, 0
2, 20870, Control_c, 0, 64, 127
2, 20878, Note_on_c, 0, 89, 80
2, 20880, Note_on_c, 0, 67, 76
2, 20880, Note_on_c, 0, 71, 76
2, 20890, Control_c, 0, 64, 127
2, 20939, Note_on_c, 0, 71, 0
2, 20940, Note_on_c, 0, 89, 0
2, 20940, Note_on_c, 0, 74, 89
2, 20942, Note_on_c, 0, 86, 89
2, 20944, Control_c, 0, 64, 0
2, 20948, Control_c, 0, 64, 0
2, 20965, Control_c, 0, 64, 127
2, 20999, Note_on_c, 0, 74, 0
2, 21000, Note_on_c, 0, 77, 76
2, 21003, Note_on_c, 0, 86, 0
2, 21003, Note_on_c, 0, 83, 98
2, 21004, Control_c, 0, 64, 0
2, 21017, Control_c, 0, 64, 127
2, 21037, Control_c, 0, 64, 127
2, 21059, Note_on_c, 0, 77, 0
2, 21060, Note_on_c, 0, 71, 80
2, 21061, Note_on_c, 0, 83, 0
2, 21062, Note_on_c, 0, 77, 72
2, 21101, Note_on_c, 0, 77, 0
2, 21119, Note_on_c, 0, 71, 0
2, 21120, Note_on_c, 0, 72, 80
2, 21122, Control_c, 0, 64, 0
2, 21126, Note_on_c, 0, 76, 89
2, 21126, Control_c, 0, 64, 0
2, 21146, Control_c, 0, 64, 127
2, 21148, Control_c, 0, 64, 127
2, 21162, Note_on_c, 0, 76, 0
2, 21179, Note_on_c, 0, 72, 0
2, 21179, Control_c, 0, 64, 0
2, 21180, Note_on_c, 0, 67, 0
2, 21180, Note_on_c, 0, 79, 89
2, 21184, Note_on_c, 0, 84, 80
2, 21184, Note_on_c, 0, 88, 72
2, 21185, Control_c, 0, 64, 0
2, 21201, Control_c, 0, 64, 127
2, 21202, Control_c, 0, 64, 127
2, 21219, Note_on_c, 0, 84, 0
2, 21221, Note_on_c, 0, 88, 0
2, 21236, Control_c, 0, 64, 0
2, 21239, Note_on_c, 0, 79, 0
2, 21240, Note_on_c, 0, 79, 85
2, 21242, Control_c, 0, 64, 0
2, 21243, Note_on_c, 0, 83, 72
2, 21244, Note_on_c, 0, 86, 62
2, 21256, Control_c, 0, 64, 127
2, 21259, Control_c, 0, 64, 127
2, 21272, Note_on_c, 0, 86, 0
2, 21272, Note_on_c, 0, 83, 0
2, 21336, Control_c, 0, 64, 0
2, 21354, Control_c, 0, 64, 0
2, 21360, Note_on_c, 0, 79, 0
2, 21365, Note_on_c, 0, 76, 89
2, 21378, Note_on_c, 0, 76, 0
2, 21379, Note_on_c, 0, 74, 62
2, 21392, Note_on_c, 0, 74, 0
2, 21393, Note_on_c, 0, 76, 64
2, 21408, Note_on_c, 0, 74, 76
2, 21409, Note_on_c, 0, 76, 0
2, 21420, Note_on_c, 0, 74, 0
2, 21423, Note_on_c, 0, 76, 76
2, 21436, Note_on_c, 0, 76, 0
2, 21436, Note_on_c, 0, 74, 76
2, 21450, Note_on_c, 0, 74, 0
2, 21453, Note_on_c, 0, 76, 76
2, 21466, Note_on_c, 0, 76, 0
2, 21467, Note_on_c, 0, 74, 72
2, 21479, Note_on_c, 0, 74, 0
2, 21480, Note_on_c, 0, 60, 85
2, 21481, Note_on_c, 0, 76, 64
2, 21494, Note_on_c, 0, 74, 64
2, 21495, Note_on_c, 0, 76, 0
2, 21504, Control_c, 0, 64, 127
2, 21511, Note_on_c, 0, 74, 0
2, 21511, Note_on_c, 0, 73, 64
2, 21525, Note_on_c, 0, 73, 0
2, 21526, Note_on_c, 0, 74, 85
2, 21541, Note_on_c, 0, 74, 0
2, 21542, Note_on_c, 0, 76, 89
2, 21579, Note_on_c, 0, 76, 0
2, 21584, Note_on_c, 0, 78, 76
2, 21595, Note_on_c, 0, 78, 0
2, 21596, Control_c, 0, 64, 0
2, 21600, Note_on_c, 0, 60, 0
2, 21600, Note_on_c, 0, 79, 85
2, 21600, Note_on_c, 0, 59, 72
2, 21621, Control_c, 0, 64, 127
2, 21633, Control_c, 0, 64, 127
2, 21659, Note_on_c, 0, 59, 0
2, 21661, Control_c, 0, 64, 0
2, 21670, Note_on_c, 0, 79, 0
2, 21672, Control_c, 0, 64, 0
2, 21840, Note_on_c, 0, 76, 98
2, 21840, Note_on_c, 0, 67, 98
2, 21840, Note_on_c, 0, 71, 93
2, 21856, Control_c, 0, 64, 127
2, 21865, Control_c, 0, 64, 127
2, 21959, Control_c, 0, 64, 0
2, 21960, Note_on_c, 0, 71, 0
2, 21960, Note_on_c, 0, 67, 0
2, 21960, Note_on_c, 0, 76, 0
2, 21960, Note_on_c, 0, 69, 93
2, 21960, Note_on_c, 0, 71, 98
2, 21962, Control_c, 0, 64, 0
2, 21964, Note_on_c, 0, 78, 107
2, 21973, Note_on_c, 0, 78, 0
2, 21987, Control_c, 0, 64, 127
2, 21995, Note_on_c, 0, 79, 85
2, 22004, Note_on_c, 0, 79, 0
2, 22004, Note_on_c, 0, 78, 76
2, 22010, Note_on_c, 0, 76, 80
2, 22013, Note_on_c, 0, 78, 0
2, 22019, Note_on_c, 0, 69, 0
2, 22019, Note_on_c, 0, 71, 0
2, 22021, Note_on_c, 0, 76, 0
2, 22021, Note_on_c, 0, 78, 113
2, 22043, Note_on_c, 0, 78, 0
2, 22049, Note_on_c, 0, 79, 93
2, 22056, Note_on_c, 0, 79, 0
2, 22080, Control_c, 0, 64, 0
2, 22080, Note_on_c, 0, 67, 98
2, 22080, Note_on_c, 0, 71, 89
2, 22082, Note_on_c, 0, 76, 93
2, 22139, Note_on_c, 0, 76, 0
2, 22139, Note_on_c, 0, 71, 0
2, 22139, Note_on_c, 0, 67, 0
2, 22200, Note_on_c, 0, 67, 107
2, 22200, Note_on_c, 0, 71, 98
2, 22202, Note_on_c, 0, 77, 107
2, 22211, Note_on_c, 0, 77, 0
2, 22211, Control_c, 0, 64, 127
2, 22220, Control_c, 0, 64, 127
2, 22223, Control_c, 0, 64, 0
2, 22232, Note_on_c, 0, 79, 72
2, 22240, Note_on_c, 0, 79, 0
2, 22240, Note_on_c, 0, 77, 93
2, 22247, Note_on_c, 0, 77, 0
2, 22249, Note_on_c, 0, 76, 72
2, 22257, Note_on_c, 0, 77, 107
2, 22259, Note_on_c, 0, 76, 0
2, 22286, Note_on_c, 0, 77, 0
2, 22288, Note_on_c, 0, 79, 93
2, 22295, Note_on_c, 0, 79, 0
2, 22318, Control_c, 0, 64, 0
2, 22319, Note_on_c, 0, 76, 107
2, 22320, Note_on_c, 0, 71, 0
2, 22320, Note_on_c, 0, 72, 102
2, 22340, Control_c, 0, 64, 127
2, 22340, Control_c, 0, 64, 127
2, 22370, Control_c, 0, 64, 0
2, 22375, Note_on_c, 0, 76, 0
2, 22375, Control_c, 0, 64, 0
2, 22379, Note_on_c, 0, 72, 0
2, 22379, Note_on_c, 0, 78, 98
2, 22380, Note_on_c, 0, 67, 0
2, 22380, Note_on_c, 0, 72, 93
2, 22380, Note_on_c, 0, 74, 80
2, 22389, Control_c, 0, 64, 127
2, 22397, Control_c, 0, 64, 127
2, 22399, Note_on_c, 0, 78, 0
2, 22426, Control_c, 0, 64, 0
2, 22433, Control_c, 0, 64, 0
2, 22439, Note_on_c, 0, 72, 0
2, 22439, Note_on_c, 0, 79, 107
2, 22440, Note_on_c, 0, 71, 107
2, 22448, Note_on_c, 0, 79, 0
2, 22450, Control_c, 0, 64, 127
2, 22465, Note_on_c, 0, 81, 89
2, 22476, Note_on_c, 0, 81, 0
2, 22477, Note_on_c, 0, 79, 80
2, 22480, Note_on_c, 0, 78, 72
2, 22482, Note_on_c, 0, 79, 0
2, 22490, Note_on_c, 0, 78, 0
2, 22494, Note_on_c, 0, 79, 98
2, 22499, Note_on_c, 0, 71, 0
2, 22499, Control_c, 0, 64, 0
2, 22500, Note_on_c, 0, 74, 0
2, 22500, Note_on_c, 0, 69, 93
2, 22500, Note_on_c, 0, 76, 98
2, 22523, Control_c, 0, 64, 127
2, 22528, Note_on_c, 0, 79, 0
2, 22531, Note_on_c, 0, 81, 102
2, 22538, Note_on_c, 0, 81, 0
2, 22559, Note_on_c, 0, 76, 0
2, 22559, Note_on_c, 0, 69, 0
2, 22560, Note_on_c, 0, 71, 93
2, 22560, Note_on_c, 0, 74, 98
2, 22562, Note_on_c, 0, 79, 113
2, 22564, Control_c, 0, 64, 0
2, 22583, Control_c, 0, 64, 127
2, 22592, Control_c, 0, 64, 127
2, 22674, Control_c, 0, 64, 0
2, 22680, Note_on_c, 0, 71, 0
2, 22680, Note_on_c, 0, 69, 85
2, 22682, Note_on_c, 0, 79, 0
2, 22682, Note_on_c, 0, 78, 93
2, 22686, Control_c, 0, 64, 0
2, 22696, Control_c, 0, 64, 127
2, 22710, Control_c, 0, 64, 127
2, 22723, Note_on_c, 0, 78, 0
2, 22739, Note_on_c, 0, 69, 0
2, 22740, Note_on_c, 0, 74, 0
2, 22740, Control_c, 0, 64, 0
2, 22742, Note_on_c, 0, 86, 113
2, 22751, Control_c, 0, 64, 0
2, 22764, Control_c, 0, 64, 127
2, 22799, Control_c, 0, 64, 0
2, 22803, Note_on_c, 0, 86, 0
2, 22804, Note_on_c, 0, 76, 98
2, 22843, Control_c, 0, 64, 127
2, 22860, Note_on_c, 0, 74, 98
2, 22860, Note_on_c, 0, 68, 98
2, 22871, Control_c, 0, 64, 127
2, 22919, Note_on_c, 0, 68, 0
2, 22919, Note_on_c, 0, 74, 0
2, 22920, Note_on_c, 0, 69, 80
2, 22920, Note_on_c, 0, 72, 80
2, 22928, Control_c, 0, 64, 0
2, 22977, Note_on_c, 0, 76, 0
2, 22979, Note_on_c, 0, 72, 0
2, 22979, Note_on_c, 0, 69, 0
2, 22981, Control_c, 0, 64, 0
2, 22981, Note_on_c, 0, 88, 107
2, 22998, Control_c, 0, 64, 127
2, 23040, Control_c, 0, 64, 0
2, 23041, Note_on_c, 0, 88, 0
2, 23043, Note_on_c, 0, 78, 107
2, 23072, Control_c, 0, 64, 127
2, 23100, Note_on_c, 0, 72, 107
2, 23100, Note_on_c, 0, 75, 102
2, 23114, Control_c, 0, 64, 127
2, 23159, Note_on_c, 0, 75, 0
2, 23159, Note_on_c, 0, 72, 0
2, 23160, Note_on_c, 0, 72, 89
2, 23160, Note_on_c, 0, 74, 98
2, 23163, Control_c, 0, 64, 0
2, 23188, Control_c, 0, 64, 127
2, 23205, Note_on_c, 0, 78, 0
2, 23205, Note_on_c, 0, 81, 98
2, 23211, Control_c, 0, 64, 0
2, 23215, Note_on_c, 0, 81, 0
2, 23219, Note_on_c, 0, 74, 0
2, 23219, Note_on_c, 0, 72, 0
2, 23219, Note_on_c, 0, 84, 93
2, 23238, Control_c, 0, 64, 0
2, 23243, Control_c, 0, 64, 127
2, 23267, Note_on_c, 0, 84, 0
2, 23267, Note_on_c, 0, 78, 60
2, 23274, Control_c, 0, 64, 0
2, 23276, Note_on_c, 0, 78, 0
2, 23280, Note_on_c, 0, 74, 107
2, 23280, Note_on_c, 0, 62, 98
2, 23281, Note_on_c, 0, 79, 98
2, 23313, Control_c, 0, 64, 127
2, 23338, Control_c, 0, 64, 127
2, 23392, Note_on_c, 0, 79, 0
2, 23393, Control_c, 0, 64, 0
2, 23403, Note_on_c, 0, 81, 107
2, 23413, Note_on_c, 0, 81, 0
2, 23435, Note_on_c, 0, 83, 89
2, 23446, Note_on_c, 0, 83, 0
2, 23446, Note_on_c, 0, 81, 85
2, 23455, Note_on_c, 0, 81, 0
2, 23455, Note_on_c, 0, 80, 80
2, 23460, Note_on_c, 0, 62, 0
2, 23460, Note_on_c, 0, 74, 0
2, 23463, Note_on_c, 0, 80, 0
2, 23464, Note_on_c, 0, 81, 98
2, 23491, Note_on_c, 0, 81, 0
2, 23493, Note_on_c, 0, 74, 89
2, 23498, Control_c, 0, 64, 0
2, 23521, Note_on_c, 0, 74, 0
2, 23528, Note_on_c, 0, 86, 85
2, 23580, Note_on_c, 0, 67, 113
2, 23587, Control_c, 0, 64, 127
2, 23591, Control_c, 0, 64, 127
2, 23639, Note_on_c, 0, 67, 0
2, 23640, Control_c, 0, 64, 0
2, 23640, Note_on_c, 0, 79, 107
2, 23668, Note_on_c, 0, 86, 0
2, 23670, Control_c, 0, 64, 0
2, 23671, Note_on_c, 0, 88, 98
2, 23681, Control_c, 0, 64, 127
2, 23699, Note_on_c, 0, 79, 0
2, 23702, Note_on_c, 0, 88, 0
2, 23702, Note_on_c, 0, 84, 85
2, 23711, Control_c, 0, 64, 0
2, 23714, Control_c, 0, 64, 127
2, 23732, Note_on_c, 0, 81, 89
2, 23733, Note_on_c, 0, 84, 0
2, 23753, Control_c, 0, 64, 0
2, 23759, Note_on_c, 0, 81, 0
2, 23760, Note_on_c, 0, 71, 93
2, 23760, Note_on_c, 0, 74, 89
2, 23764, Note_on_c, 0, 79, 93
2, 23785, Control_c, 0, 64, 127
2, 23796, Control_c, 0, 64, 127
2, 23819, Note_on_c, 0, 74, 0
2, 23819, Note_on_c, 0, 71, 0
2, 23871, Control_c, 0, 64, 0
2, 23877, Note_on_c, 0, 79, 0
2, 23880, Note_on_c, 0, 72, 80
2, 23880, Note_on_c, 0, 74, 85
2, 23881, Note_on_c, 0, 81, 98
2, 23881, Control_c, 0, 64, 0
2, 23892, Note_on_c, 0, 81, 0
2, 23910, Control_c, 0, 64, 127
2, 23912, Note_on_c, 0, 83, 89
2, 23920, Note_on_c, 0, 81, 93
2, 23921, Note_on_c, 0, 83, 0
2, 23929, Note_on_c, 0, 81, 0
2, 23929, Note_on_c, 0, 79, 80
2, 23936, Note_on_c, 0, 81, 107
2, 23937, Note_on_c, 0, 79, 0
2, 23939, Note_on_c, 0, 72, 0
2, 23939, Note_on_c, 0, 74, 0
2, 23965, Note_on_c, 0, 81, 0
2, 23968, Note_on_c, 0, 83, 93
2, 23974, Note_on_c, 0, 83, 0
2, 23998, Note_on_c, 0, 79, 93
2, 24000, Note_on_c, 0, 71, 89
2, 24000, Note_on_c, 0, 74, 80
2, 24001, Control_c, 0, 64, 0
2, 24022, Control_c, 0, 64, 127
2, 24028, Control_c, 0, 64, 127
2, 24120, Note_on_c, 0, 74, 0
2, 24120, Note_on_c, 0, 71, 0
2, 24121, Control_c, 0, 64, 0
2, 24127, Note_on_c, 0, 79, 0
2, 24131, Control_c, 0, 64, 0
2, 24240, Note_on_c, 0, 67, 64
2, 24240, Note_on_c, 0, 71, 62
2, 24241, Note_on_c, 0, 76, 85
2, 24256, Control_c, 0, 64, 127
2, 24261, Control_c, 0, 64, 127
2, 24352, Control_c, 0, 64, 0
2, 24357, Note_on_c, 0, 76, 0
2, 24360, Note_on_c, 0, 71, 0
2, 24360, Note_on_c, 0, 67, 0
2, 24360, Note_on_c, 0, 78, 93
2, 24360, Note_on_c, 0, 69, 68
2, 24360, Note_on_c, 0, 71, 72
2, 24364, Control_c, 0, 64, 0
2, 24369, Note_on_c, 0, 78, 0
2, 24390, Control_c, 0, 64, 127
2, 24395, Note_on_c, 0, 79, 80
2, 24404, Note_on_c, 0, 78, 62
2, 24408, Note_on_c, 0, 79, 0
2, 24414, Note_on_c, 0, 78, 0
2, 24414, Note_on_c, 0, 76, 76
2, 24419, Note_on_c, 0, 71, 0
2, 24419, Note_on_c, 0, 69, 0
2, 24422, Note_on_c, 0, 76, 0
2, 24423, Note_on_c, 0, 78, 89
2, 24450, Note_on_c, 0, 78, 0
2, 24451, Note_on_c, 0, 79, 80
2, 24459, Note_on_c, 0, 79, 0
2, 24478, Control_c, 0, 64, 0
2, 24480, Note_on_c, 0, 67, 62
2, 24480, Note_on_c, 0, 71, 64
2, 24482, Note_on_c, 0, 76, 89
2, 24499, Control_c, 0, 64, 127
2, 24538, Control_c, 0, 64, 0
2, 24539, Note_on_c, 0, 71, 0
2, 24539, Note_on_c, 0, 67, 0
2, 24549, Control_c, 0, 64, 127
2, 24568, Control_c, 0, 64, 0
2, 24578, Note_on_c, 0, 76, 0
2, 24600, Note_on_c, 0, 67, 85
2, 24600, Note_on_c, 0, 71, 76
2, 24602, Note_on_c, 0, 77, 89
2, 24616, Note_on_c, 0, 77, 0
2, 24619, Control_c, 0, 64, 127
2, 24630, Note_on_c, 0, 79, 76
2, 24638, Note_on_c, 0, 77, 72
2, 24640, Note_on_c, 0, 79, 0
2, 24647, Note_on_c, 0, 77, 0
2, 24647, Note_on_c, 0, 76, 76
2, 24656, Note_on_c, 0, 77, 85
2, 24657, Note_on_c, 0, 76, 0
2, 24688, Note_on_c, 0, 77, 0
2, 24691, Note_on_c, 0, 79, 89
2, 24698, Note_on_c, 0, 79, 0
2, 24717, Control_c, 0, 64, 0
2, 24720, Note_on_c, 0, 71, 0
2, 24720, Note_on_c, 0, 72, 68
2, 24722, Note_on_c, 0, 76, 89
2, 24737, Control_c, 0, 64, 127
2, 24738, Control_c, 0, 64, 127
2, 24776, Control_c, 0, 64, 0
2, 24778, Note_on_c, 0, 76, 0
2, 24779, Note_on_c, 0, 72, 0
2, 24779, Control_c, 0, 64, 0
2, 24780, Note_on_c, 0, 67, 0
2, 24780, Note_on_c, 0, 72, 72
2, 24780, Note_on_c, 0, 74, 76
2, 24783, Note_on_c, 0, 78, 93
2, 24792, Control_c, 0, 64, 127
2, 24799, Control_c, 0, 64, 127
2, 24802, Note_on_c, 0, 78, 0
2, 24831, Control_c, 0, 64, 0
2, 24838, Control_c, 0, 64, 0
2, 24839, Note_on_c, 0, 72, 0
2, 24840, Note_on_c, 0, 71, 85
2, 24843, Note_on_c, 0, 79, 102
2, 24851, Note_on_c, 0, 79, 0
2, 24859, Control_c, 0, 64, 127
2, 24872, Note_on_c, 0, 81, 85
2, 24881, Note_on_c, 0, 79, 59
2, 24882, Note_on_c, 0, 81, 0
2, 24890, Note_on_c, 0, 78, 72
2, 24891, Note_on_c, 0, 79, 0
2, 24899, Note_on_c, 0, 71, 0
2, 24900, Note_on_c, 0, 74, 0
2, 24900, Note_on_c, 0, 78, 0
2, 24900, Note_on_c, 0, 69, 76
2, 24900, Note_on_c, 0, 76, 89
2, 24901, Control_c, 0, 64, 0
2, 24902, Note_on_c, 0, 79, 89
2, 24923, Control_c, 0, 64, 127
2, 24930, Note_on_c, 0, 79, 0
2, 24932, Note_on_c, 0, 81, 89
2, 24940, Note_on_c, 0, 81, 0
2, 24959, Note_on_c, 0, 76, 0
2, 24959, Note_on_c, 0, 69, 0
2, 24960, Note_on_c, 0, 74, 76
2, 24960, Note_on_c, 0, 71, 72
2, 24961, Note_on_c, 0, 79, 93
2, 24966, Control_c, 0, 64, 0
2, 24995, Control_c, 0, 64, 127
2, 25014, Control_c, 0, 64, 127
2, 25077, Control_c, 0, 64, 0
2, 25080, Note_on_c, 0, 71, 0
2, 25080, Note_on_c, 0, 69, 76
2, 25083, Control_c, 0, 64, 0
2, 25084, Note_on_c, 0, 79, 0
2, 25084, Note_on_c, 0, 78, 80
2, 25100, Control_c, 0, 64, 127
2, 25106, Control_c, 0, 64, 127
2, 25139, Note_on_c, 0, 69, 0
2, 25139, Control_c, 0, 64, 0
2, 25140, Note_on_c, 0, 74, 0
2, 25143, Note_on_c, 0, 78, 0
2, 25143, Note_on_c, 0, 86, 98
2, 25146, Control_c, 0, 64, 0
2, 25164, Control_c, 0, 64, 127
2, 25200, Control_c, 0, 64, 0
2, 25204, Note_on_c, 0, 76, 89
2, 25205, Note_on_c, 0, 86, 0
2, 25230, Control_c, 0, 64, 127
2, 25260, Note_on_c, 0, 68, 89
2, 25260, Note_on_c, 0, 74, 85
2, 25271, Control_c, 0, 64, 127
2, 25319, Note_on_c, 0, 74, 0
2, 25319, Note_on_c, 0, 68, 0
2, 25320, Note_on_c, 0, 72, 76
2, 25320, Note_on_c, 0, 69, 76
2, 25324, Control_c, 0, 64, 0
2, 25354, Control_c, 0, 64, 127
2, 25362, Note_on_c, 0, 76, 0
2, 25366, Control_c, 0, 64, 0
2, 25379, Note_on_c, 0, 69, 0
2, 25379, Note_on_c, 0, 72, 0
2, 25382, Note_on_c, 0, 88, 107
2, 25408, Control_c, 0, 64, 127
2, 25408, Control_c, 0, 64, 0
2, 25442, Control_c, 0, 64, 0
2, 25443, Note_on_c, 0, 88, 0
2, 25443, Note_on_c, 0, 78, 76
2, 25471, Control_c, 0, 64, 127
2, 25500, Note_on_c, 0, 72, 85
2, 25500, Note_on_c, 0, 75, 64
2, 25516, Control_c, 0, 64, 127
2, 25559, Note_on_c, 0, 75, 0
2, 25560, Note_on_c, 0, 74, 89
2, 25568, Control_c, 0, 64, 0
2, 25570, Note_on_c, 0, 78, 0
2, 25598, Control_c, 0, 64, 127
2, 25601, Note_on_c, 0, 81, 89
2, 25606, Control_c, 0, 64, 0
2, 25612, Note_on_c, 0, 81, 0
2, 25619, Note_on_c, 0, 74, 0
2, 25620, Note_on_c, 0, 72, 0
2, 25622, Note_on_c, 0, 84, 85
2, 25630, Control_c, 0, 64, 0
2, 25642, Control_c, 0, 64, 127
2, 25664, Note_on_c, 0, 78, 68
2, 25665, Note_on_c, 0, 84, 0
2, 25680, Note_on_c, 0, 74, 93
2, 25680, Note_on_c, 0, 62, 93
2, 25681, Note_on_c, 0, 78, 0
2, 25681, Control_c, 0, 64, 0
2, 25687, Note_on_c, 0, 79, 93
2, 25710, Control_c, 0, 64, 127
2, 25722, Control_c, 0, 64, 127
2, 25793, Note_on_c, 0, 79, 0
2, 25795, Control_c, 0, 64, 0
2, 25802, Note_on_c, 0, 81, 98
2, 25814, Note_on_c, 0, 81, 0
2, 25832, Note_on_c, 0, 83, 89
2, 25842, Note_on_c, 0, 81, 80
2, 25843, Note_on_c, 0, 83, 0
2, 25852, Note_on_c, 0, 80, 80
2, 25853, Note_on_c, 0, 81, 0
2, 25859, Note_on_c, 0, 80, 0
2, 25860, Note_on_c, 0, 62, 0
2, 25860, Note_on_c, 0, 74, 0
2, 25861, Note_on_c, 0, 81, 102
2, 25881, Note_on_c, 0, 81, 0
2, 25894, Note_on_c, 0, 74, 76
2, 25895, Control_c, 0, 64, 0
2, 25905, Note_on_c, 0, 74, 0
2, 25925, Note_on_c, 0, 86, 98
2, 25942, Control_c, 0, 64, 127
2, 25980, Note_on_c, 0, 67, 107
2, 25988, Control_c, 0, 64, 127
2, 26039, Note_on_c, 0, 67, 0
2, 26039, Control_c, 0, 64, 0
2, 26040, Note_on_c, 0, 79, 93
2, 26058, Control_c, 0, 64, 127
2, 26067, Control_c, 0, 64, 0
2, 26072, Note_on_c, 0, 88, 93
2, 26075, Note_on_c, 0, 86, 0
2, 26099, Note_on_c, 0, 79, 0
2, 26103, Note_on_c, 0, 84, 89
2, 26104, Control_c, 0, 64, 0
2, 26105, Note_on_c, 0, 88, 0
2, 26123, Control_c, 0, 64, 127
2, 26134, Note_on_c, 0, 81, 64
2, 26136, Note_on_c, 0, 84, 0
2, 26155, Control_c, 0, 64, 0
2, 26160, Note_on_c, 0, 71, 89
2, 26160, Note_on_c, 0, 74, 89
2, 26164, Note_on_c, 0, 81, 0
2, 26164, Note_on_c, 0, 79, 85
2, 26188, Control_c, 0, 64, 127
2, 26191, Control_c, 0, 64, 127
2, 26219, Note_on_c, 0, 74, 0
2, 26219, Note_on_c, 0, 71, 0
2, 26280, Note_on_c, 0, 72, 76
2, 26280, Note_on_c, 0, 74, 80
2, 26281, Note_on_c, 0, 79, 0
2, 26282, Control_c, 0, 64, 0
2, 26283, Control_c, 0, 64, 0
2, 26284, Note_on_c, 0, 81, 93
2, 26293, Note_on_c, 0, 81, 0
2, 26309, Control_c, 0, 64, 127
2, 26315, Note_on_c, 0, 83, 80
2, 26323, Note_on_c, 0, 81, 72
2, 26326, Note_on_c, 0, 83, 0
2, 26333, Note_on_c, 0, 81, 0
2, 26333, Note_on_c, 0, 79, 72
2, 26339, Note_on_c, 0, 74, 0
2, 26339, Note_on_c, 0, 72, 0
2, 26341, Note_on_c, 0, 81, 93
2, 26342, Note_on_c, 0, 79, 0
2, 26371, Note_on_c, 0, 81, 0
2, 26372, Note_on_c, 0, 83, 85
2, 26380, Note_on_c, 0, 83, 0
2, 26397, Control_c, 0, 64, 0
2, 26400, Note_on_c, 0, 71, 76
2, 26400, Note_on_c, 0, 74, 76
2, 26405, Note_on_c, 0, 79, 93
2, 26419, Control_c, 0, 64, 127
2, 26461, Control_c, 0, 64, 127
2, 26520, Note_on_c, 0, 74, 0
2, 26520, Note_on_c, 0, 71, 0
2, 26520, Control_c, 0, 64, 0
2, 26523, Note_on_c, 0, 79, 0
2, 26531, Control_c, 0, 64, 0
2, 26535, Note_on_c, 0, 74, 80
2, 26549, Note_on_c, 0, 74, 0
2, 26550, Note_on_c, 0, 73, 85
2, 26564, Note_on_c, 0, 73, 0
2, 26565, Note_on_c, 0, 74, 64
2, 26579, Note_on_c, 0, 74, 0
2, 26580, Note_on_c, 0, 72, 89
2, 26594, Note_on_c, 0, 72, 0
2, 26595, Note_on_c, 0, 74, 56
2, 26609, Note_on_c, 0, 74, 0
2, 26610, Note_on_c, 0, 69, 85
2, 26610, Note_on_c, 0, 78, 93
2, 26624, Note_on_c, 0, 69, 0
2, 26625, Note_on_c, 0, 74, 62
2, 26639, Note_on_c, 0, 74, 0
2, 26639, Note_on_c, 0, 78, 0
2, 26640, Note_on_c, 0, 71, 64
2, 26640, Note_on_c, 0, 86, 93
2, 26654, Note_on_c, 0, 71, 0
2, 26655, Note_on_c, 0, 74, 51
2, 26669, Note_on_c, 0, 74, 0
2, 26669, Note_on_c, 0, 86, 0
2, 26670, Note_on_c, 0, 70, 83
2, 26670, Note_on_c, 0, 85, 76
2, 26684, Note_on_c, 0, 70, 0
2, 26685, Note_on_c, 0, 74, 54
2, 26699, Note_on_c, 0, 74, 0
2, 26699, Note_on_c, 0, 85, 0
2, 26700, Note_on_c, 0, 71, 83
2, 26700, Note_on_c, 0, 86, 93
2, 26714, Note_on_c, 0, 71, 0
2, 26715, Note_on_c, 0, 74, 55
2, 26729, Note_on_c, 0, 74, 0
2, 26730, Note_on_c, 0, 86, 0
2, 26730, Note_on_c, 0, 68, 72
2, 26730, Note_on_c, 0, 83, 93
2, 26744, Note_on_c, 0, 68, 0
2, 26745, Note_on_c, 0, 74, 53
2, 26759, Note_on_c, 0, 74, 0
2, 26760, Note_on_c, 0, 69, 83
2, 26760, Note_on_c, 0, 86, 93
2, 26761, Note_on_c, 0, 83, 0
2, 26774, Note_on_c, 0, 69, 0
2, 26775, Note_on_c, 0, 74, 54
2, 26775, Note_on_c, 0, 84, 72
2, 26777, Note_on_c, 0, 86, 0
2, 26789, Note_on_c, 0, 74, 0
2, 26790, Note_on_c, 0, 68, 68
2, 26790, Note_on_c, 0, 83, 98
2, 26791, Note_on_c, 0, 84, 0
2, 26804, Note_on_c, 0, 68, 0
2, 26805, Note_on_c, 0, 74, 55
2, 26819, Note_on_c, 0, 74, 0
2, 26820, Note_on_c, 0, 83, 0
2, 26820, Note_on_c, 0, 69, 83
2, 26820, Note_on_c, 0, 84, 85
2, 26834, Note_on_c, 0, 69, 0
2, 26835, Note_on_c, 0, 74, 55
2, 26848, Note_on_c, 0, 84, 0
2, 26849, Note_on_c, 0, 74, 0
2, 26850, Note_on_c, 0, 66, 68
2, 26850, Note_on_c, 0, 81, 85
2, 26864, Note_on_c, 0, 66, 0
2, 26865, Note_on_c, 0, 74, 50
2, 26878, Note_on_c, 0, 81, 0
2, 26879, Note_on_c, 0, 74, 0
2, 26880, Note_on_c, 0, 67, 80
2, 26880, Note_on_c, 0, 83, 89
2, 26894, Note_on_c, 0, 67, 0
2, 26895, Note_on_c, 0, 74, 55
2, 26909, Note_on_c, 0, 74, 0
2, 26910, Note_on_c, 0, 66, 80
2, 26924, Note_on_c, 0, 66, 0
2, 26925, Note_on_c, 0, 74, 54
2, 26939, Note_on_c, 0, 74, 0
2, 26940, Note_on_c, 0, 67, 80
2, 26954, Note_on_c, 0, 67, 0
2, 26955, Note_on_c, 0, 74, 64
2, 26967, Control_c, 0, 64, 127
2, 26969, Note_on_c, 0, 74, 0
2, 26970, Note_on_c, 0, 64, 72
2, 26984, Note_on_c, 0, 64, 0
2, 26985, Note_on_c, 0, 74, 64
2, 26994, Control_c, 0, 64, 0
2, 26995, Note_on_c, 0, 83, 0
2, 26999, Note_on_c, 0, 74, 0
2, 27000, Note_on_c, 0, 66, 64
2, 27014, Note_on_c, 0, 66, 0
2, 27015, Note_on_c, 0, 74, 42
2, 27029, Note_on_c, 0, 74, 0
2, 27030, Note_on_c, 0, 64, 80
2, 27044, Note_on_c, 0, 64, 0
2, 27045, Note_on_c, 0, 74, 68
2, 27059, Note_on_c, 0, 74, 0
2, 27060, Note_on_c, 0, 66, 64
2, 27074, Note_on_c, 0, 66, 0
2, 27075, Note_on_c, 0, 74, 68
2, 27089, Note_on_c, 0, 74, 0
2, 27090, Note_on_c, 0, 62, 80
2, 27090, Note_on_c, 0, 81, 93
2, 27104, Note_on_c, 0, 62, 0
2, 27105, Note_on_c, 0, 74, 68
2, 27119, Note_on_c, 0, 74, 0
2, 27119, Note_on_c, 0, 81, 0
2, 27120, Note_on_c, 0, 64, 83
2, 27120, Note_on_c, 0, 79, 89
2, 27134, Note_on_c, 0, 64, 0
2, 27135, Note_on_c, 0, 74, 31
2, 27149, Note_on_c, 0, 74, 0
2, 27150, Note_on_c, 0, 79, 0
2, 27150, Note_on_c, 0, 63, 80
2, 27150, Note_on_c, 0, 78, 89
2, 27164, Note_on_c, 0, 63, 0
2, 27165, Note_on_c, 0, 74, 72
2, 27179, Note_on_c, 0, 74, 0
2, 27180, Note_on_c, 0, 78, 0
2, 27180, Note_on_c, 0, 64, 83
2, 27180, Note_on_c, 0, 79, 98
2, 27194, Note_on_c, 0, 64, 0
2, 27195, Note_on_c, 0, 74, 41
2, 27209, Note_on_c, 0, 74, 0
2, 27210, Note_on_c, 0, 79, 0
2, 27210, Note_on_c, 0, 63, 80
2, 27210, Note_on_c, 0, 78, 80
2, 27224, Note_on_c, 0, 63, 0
2, 27225, Note_on_c, 0, 74, 68
2, 27238, Note_on_c, 0, 78, 0
2, 27239, Note_on_c, 0, 74, 0
2, 27240, Note_on_c, 0, 64, 80
2, 27240, Note_on_c, 0, 79, 98
2, 27254, Note_on_c, 0, 64, 0
2, 27255, Note_on_c, 0, 73, 54
2, 27266, Note_on_c, 0, 79, 0
2, 27269, Note_on_c, 0, 73, 0
2, 27270, Note_on_c, 0, 67, 88
2, 27270, Note_on_c, 0, 83, 102
2, 27284, Note_on_c, 0, 67, 0
2, 27285, Note_on_c, 0, 73, 55
2, 27299, Note_on_c, 0, 73, 0
2, 27300, Note_on_c, 0, 83, 0
2, 27300, Note_on_c, 0, 66, 76
2, 27300, Note_on_c, 0, 81, 89
2, 27314, Note_on_c, 0, 66, 0
2, 27315, Note_on_c, 0, 73, 57
2, 27329, Note_on_c, 0, 73, 0
2, 27330, Note_on_c, 0, 64, 80
2, 27330, Note_on_c, 0, 79, 85
2, 27332, Note_on_c, 0, 81, 0
2, 27344, Note_on_c, 0, 64, 0
2, 27345, Note_on_c, 0, 73, 61
2, 27359, Note_on_c, 0, 73, 0
2, 27360, Note_on_c, 0, 62, 72
2, 27360, Note_on_c, 0, 78, 89
2, 27361, Note_on_c, 0, 79, 0
2, 27374, Note_on_c, 0, 62, 0
2, 27375, Note_on_c, 0, 74, 55
2, 27389, Note_on_c, 0, 74, 0
2, 27390, Note_on_c, 0, 64, 80
2, 27404, Note_on_c, 0, 64, 0
2, 27405, Note_on_c, 0, 74, 50
2, 27419, Note_on_c, 0, 74, 0
2, 27420, Note_on_c, 0, 66, 83
2, 27434, Note_on_c, 0, 66, 0
2, 27435, Note_on_c, 0, 74, 57
2, 27437, Control_c, 0, 64, 127
2, 27449, Note_on_c, 0, 74, 0
2, 27450, Note_on_c, 0, 67, 80
2, 27464, Note_on_c, 0, 67, 0
2, 27465, Note_on_c, 0, 74, 68
2, 27476, Control_c, 0, 64, 0
2, 27479, Note_on_c, 0, 74, 0
2, 27480, Note_on_c, 0, 69, 72
2, 27482, Note_on_c, 0, 78, 0
2, 27494, Note_on_c, 0, 69, 0
2, 27495, Note_on_c, 0, 74, 55
2, 27509, Note_on_c, 0, 74, 0
2, 27510, Note_on_c, 0, 68, 80
2, 27524, Note_on_c, 0, 68, 0
2, 27525, Note_on_c, 0, 74, 55
2, 27539, Note_on_c, 0, 74, 0
2, 27540, Note_on_c, 0, 69, 76
2, 27554, Note_on_c, 0, 69, 0
2, 27555, Note_on_c, 0, 74, 68
2, 27569, Note_on_c, 0, 74, 0
2, 27570, Note_on_c, 0, 72, 80
2, 27570, Note_on_c, 0, 78, 102
2, 27584, Note_on_c, 0, 72, 0
2, 27585, Note_on_c, 0, 74, 68
2, 27598, Note_on_c, 0, 78, 0
2, 27599, Note_on_c, 0, 74, 0
2, 27600, Note_on_c, 0, 77, 72
2, 27600, Note_on_c, 0, 86, 93
2, 27614, Note_on_c, 0, 77, 0
2, 27615, Note_on_c, 0, 79, 68
2, 27629, Note_on_c, 0, 79, 0
2, 27630, Note_on_c, 0, 76, 83
2, 27630, Note_on_c, 0, 85, 89
2, 27632, Note_on_c, 0, 86, 0
2, 27644, Note_on_c, 0, 76, 0
2, 27645, Note_on_c, 0, 79, 55
2, 27658, Note_on_c, 0, 85, 0
2, 27659, Note_on_c, 0, 79, 0
2, 27660, Note_on_c, 0, 77, 83
2, 27660, Note_on_c, 0, 86, 93
2, 27674, Note_on_c, 0, 77, 0
2, 27675, Note_on_c, 0, 79, 55
2, 27689, Note_on_c, 0, 79, 0
2, 27690, Note_on_c, 0, 86, 0
2, 27690, Note_on_c, 0, 76, 83
2, 27690, Note_on_c, 0, 85, 80
2, 27704, Note_on_c, 0, 76, 0
2, 27705, Note_on_c, 0, 79, 53
2, 27710, Control_c, 0, 64, 127
2, 27718, Control_c, 0, 64, 0
2, 27719, Note_on_c, 0, 79, 0
2, 27719, Note_on_c, 0, 85, 0
2, 27720, Note_on_c, 0, 77, 80
2, 27720, Note_on_c, 0, 88, 89
2, 27734, Note_on_c, 0, 88, 0
2, 27734, Note_on_c, 0, 77, 0
2, 27735, Note_on_c, 0, 79, 68
2, 27735, Note_on_c, 0, 86, 93
2, 27749, Note_on_c, 0, 79, 0
2, 27750, Note_on_c, 0, 76, 80
2, 27750, Note_on_c, 0, 85, 68
2, 27754, Note_on_c, 0, 86, 0
2, 27764, Note_on_c, 0, 76, 0
2, 27765, Note_on_c, 0, 79, 55
2, 27779, Note_on_c, 0, 79, 0
2, 27780, Note_on_c, 0, 77, 83
2, 27780, Note_on_c, 0, 86, 89
2, 27781, Note_on_c, 0, 85, 0
2, 27794, Note_on_c, 0, 77, 0
2, 27795, Note_on_c, 0, 79, 50
2, 27809, Note_on_c, 0, 79, 0
2, 27810, Note_on_c, 0, 74, 80
2, 27810, Note_on_c, 0, 83, 93
2, 27812, Note_on_c, 0, 86, 0
2, 27824, Note_on_c, 0, 74, 0
2, 27825, Note_on_c, 0, 79, 61
2, 27837, Note_on_c, 0, 83, 0
2, 27839, Note_on_c, 0, 79, 0
2, 27840, Note_on_c, 0, 76, 80
2, 27840, Note_on_c, 0, 86, 93
2, 27854, Note_on_c, 0, 76, 0
2, 27855, Note_on_c, 0, 86, 0
2, 27855, Note_on_c, 0, 79, 34
2, 27855, Note_on_c, 0, 84, 80
2, 27869, Note_on_c, 0, 79, 0
2, 27870, Note_on_c, 0, 75, 72
2, 27870, Note_on_c, 0, 83, 89
2, 27872, Note_on_c, 0, 84, 0
2, 27884, Note_on_c, 0, 75, 0
2, 27885, Note_on_c, 0, 79, 57
2, 27899, Note_on_c, 0, 79, 0
2, 27900, Note_on_c, 0, 76, 88
2, 27900, Note_on_c, 0, 84, 85
2, 27901, Note_on_c, 0, 83, 0
2, 27914, Note_on_c, 0, 76, 0
2, 27915, Note_on_c, 0, 79, 61
2, 27928, Note_on_c, 0, 84, 0
2, 27929, Note_on_c, 0, 79, 0
2, 27930, Note_on_c, 0, 73, 72
2, 27930, Note_on_c, 0, 82, 85
2, 27944, Note_on_c, 0, 73, 0
2, 27945, Note_on_c, 0, 79, 68
2, 27956, Note_on_c, 0, 82, 0
2, 27959, Note_on_c, 0, 79, 0
2, 27960, Note_on_c, 0, 74, 76
2, 27960, Note_on_c, 0, 84, 89
2, 27974, Note_on_c, 0, 74, 0
2, 27975, Note_on_c, 0, 79, 57
2, 27975, Note_on_c, 0, 83, 80
2, 27977, Note_on_c, 0, 84, 0
2, 27989, Note_on_c, 0, 79, 0
2, 27990, Note_on_c, 0, 73, 76
2, 27990, Note_on_c, 0, 82, 62
2, 27993, Note_on_c, 0, 83, 0
2, 28004, Note_on_c, 0, 73, 0
2, 28005, Note_on_c, 0, 79, 61
2, 28017, Note_on_c, 0, 82, 0
2, 28019, Note_on_c, 0, 79, 0
2, 28020, Note_on_c, 0, 74, 72
2, 28020, Note_on_c, 0, 83, 89
2, 28034, Note_on_c, 0, 74, 0
2, 28035, Note_on_c, 0, 79, 64
2, 28049, Note_on_c, 0, 79, 0
2, 28050, Note_on_c, 0, 71, 83
2, 28050, Note_on_c, 0, 79, 89
2, 28052, Note_on_c, 0, 83, 0
2, 28059, Control_c, 0, 64, 127
2, 28063, Note_on_c, 0, 79, 0
2, 28064, Note_on_c, 0, 71, 0
2, 28065, Note_on_c, 0, 74, 64
2, 28070, Control_c, 0, 64, 0
2, 28079, Note_on_c, 0, 74, 0
2, 28080, Note_on_c, 0, 72, 76
2, 28080, Note_on_c, 0, 83, 93
2, 28092, Note_on_c, 0, 83, 0
2, 28094, Note_on_c, 0, 72, 0
2, 28095, Note_on_c, 0, 74, 55
2, 28095, Note_on_c, 0, 81, 89
2, 28104, Note_on_c, 0, 81, 0
2, 28109, Note_on_c, 0, 74, 0
2, 28110, Note_on_c, 0, 71, 83
2, 28110, Note_on_c, 0, 79, 80
2, 28119, Note_on_c, 0, 79, 0
2, 28124, Note_on_c, 0, 71, 0
2, 28125, Note_on_c, 0, 74, 64
2, 28139, Note_on_c, 0, 74, 0
2, 28140, Note_on_c, 0, 72, 76
2, 28140, Note_on_c, 0, 83, 93
2, 28152, Note_on_c, 0, 83, 0
2, 28154, Note_on_c, 0, 72, 0
2, 28155, Note_on_c, 0, 74, 54
2, 28155, Note_on_c, 0, 81, 76
2, 28165, Note_on_c, 0, 81, 0
2, 28169, Note_on_c, 0, 74, 0
2, 28170, Note_on_c, 0, 71, 83
2, 28170, Note_on_c, 0, 79, 98
2, 28179, Note_on_c, 0, 79, 0
2, 28184, Note_on_c, 0, 71, 0
2, 28185, Note_on_c, 0, 74, 55
2, 28199, Note_on_c, 0, 74, 0
2, 28200, Note_on_c, 0, 72, 76
2, 28200, Note_on_c, 0, 83, 98
2, 28212, Note_on_c, 0, 83, 0
2, 28214, Note_on_c, 0, 72, 0
2, 28215, Note_on_c, 0, 74, 61
2, 28215, Note_on_c, 0, 81, 76
2, 28225, Note_on_c, 0, 81, 0
2, 28229, Note_on_c, 0, 74, 0
2, 28230, Note_on_c, 0, 71, 80
2, 28230, Note_on_c, 0, 79, 89
2, 28239, Note_on_c, 0, 79, 0
2, 28244, Note_on_c, 0, 71, 0
2, 28245, Note_on_c, 0, 74, 55
2, 28259, Note_on_c, 0, 74, 0
2, 28260, Note_on_c, 0, 72, 68
2, 28260, Note_on_c, 0, 83, 93
2, 28273, Note_on_c, 0, 83, 0
2, 28274, Note_on_c, 0, 72, 0
2, 28275, Note_on_c, 0, 74, 55
2, 28275, Note_on_c, 0, 81, 68
2, 28287, Note_on_c, 0, 81, 0
2, 28289, Note_on_c, 0, 74, 0
2, 28290, Note_on_c, 0, 69, 83
2, 28290, Note_on_c, 0, 78, 93
2, 28298, Note_on_c, 0, 78, 0
2, 28304, Note_on_c, 0, 69, 0
2, 28305, Note_on_c, 0, 74, 54
2, 28319, Note_on_c, 0, 74, 0
2, 28320, Note_on_c, 0, 67, 83
2, 28320, Note_on_c, 0, 79, 93
2, 28330, Note_on_c, 0, 79, 0
2, 28334, Note_on_c, 0, 67, 0
2, 28335, Note_on_c, 0, 71, 55
2, 28349, Note_on_c, 0, 71, 0
2, 28350, Note_on_c, 0, 74, 64
2, 28350, Note_on_c, 0, 83, 89
2, 28358, Note_on_c, 0, 83, 0
2, 28364, Note_on_c, 0, 74, 0
2, 28365, Note_on_c, 0, 71, 57
2, 28379, Note_on_c, 0, 71, 0
2, 28380, Note_on_c, 0, 67, 72
2, 28380, Note_on_c, 0, 79, 89
2, 28390, Note_on_c, 0, 79, 0
2, 28394, Note_on_c, 0, 67, 0
2, 28395, Note_on_c, 0, 71, 55
2, 28409, Note_on_c, 0, 71, 0
2, 28410, Note_on_c, 0, 74, 64
2, 28410, Note_on_c, 0, 83, 89
2, 28417, Note_on_c, 0, 83, 0
2, 28424, Note_on_c, 0, 74, 0
2, 28425, Note_on_c, 0, 71, 64
2, 28439, Note_on_c, 0, 71, 0
2, 28440, Note_on_c, 0, 67, 83
2, 28440, Note_on_c, 0, 79, 93
2, 28453, Note_on_c, 0, 79, 0
2, 28454, Note_on_c, 0, 67, 0
2, 28455, Note_on_c, 0, 74, 64
2, 28469, Note_on_c, 0, 74, 0
2, 28470, Note_on_c, 0, 73, 72
2, 28484, Note_on_c, 0, 73, 0
2, 28485, Note_on_c, 0, 74, 68
2, 28499, Note_on_c, 0, 74, 0
2, 28500, Note_on_c, 0, 72, 80
2, 28514, Note_on_c, 0, 72, 0
2, 28515, Note_on_c, 0, 74, 45
2, 28529, Note_on_c, 0, 74, 0
2, 28530, Note_on_c, 0, 69, 83
2, 28544, Note_on_c, 0, 69, 0
2, 28545, Note_on_c, 0, 74, 55
2, 28559, Note_on_c, 0, 74, 0
2, 28560, Note_on_c, 0, 71, 64
2, 28560, Note_on_c, 0, 86, 76
2, 28574, Note_on_c, 0, 71, 0
2, 28575, Note_on_c, 0, 74, 61
2, 28587, Control_c, 0, 64, 127
2, 28589, Note_on_c, 0, 74, 0
2, 28590, Note_on_c, 0, 86, 0
2, 28590, Note_on_c, 0, 70, 61
2, 28590, Note_on_c, 0, 85, 60
2, 28597, Control_c, 0, 64, 0
2, 28604, Note_on_c, 0, 70, 0
2, 28605, Note_on_c, 0, 74, 57
2, 28617, Note_on_c, 0, 85, 0
2, 28619, Note_on_c, 0, 74, 0
2, 28620, Note_on_c, 0, 71, 51
2, 28620, Note_on_c, 0, 86, 62
2, 28634, Note_on_c, 0, 71, 0
2, 28635, Note_on_c, 0, 74, 55
2, 28649, Note_on_c, 0, 74, 0
2, 28650, Note_on_c, 0, 86, 0
2, 28650, Note_on_c, 0, 68, 68
2, 28650, Note_on_c, 0, 83, 64
2, 28664, Note_on_c, 0, 68, 0
2, 28665, Note_on_c, 0, 74, 64
2, 28679, Note_on_c, 0, 74, 0
2, 28680, Note_on_c, 0, 83, 0
2, 28680, Note_on_c, 0, 69, 64
2, 28680, Note_on_c, 0, 86, 72
2, 28694, Note_on_c, 0, 69, 0
2, 28695, Note_on_c, 0, 74, 57
2, 28695, Note_on_c, 0, 84, 68
2, 28697, Note_on_c, 0, 86, 0
2, 28709, Note_on_c, 0, 74, 0
2, 28710, Note_on_c, 0, 68, 61
2, 28710, Note_on_c, 0, 83, 80
2, 28712, Note_on_c, 0, 84, 0
2, 28724, Note_on_c, 0, 68, 0
2, 28725, Note_on_c, 0, 74, 55
2, 28739, Note_on_c, 0, 74, 0
2, 28740, Note_on_c, 0, 69, 64
2, 28740, Note_on_c, 0, 84, 76
2, 28741, Note_on_c, 0, 83, 0
2, 28754, Note_on_c, 0, 69, 0
2, 28755, Note_on_c, 0, 74, 38
2, 28769, Note_on_c, 0, 74, 0
2, 28769, Note_on_c, 0, 84, 0
2, 28770, Note_on_c, 0, 66, 50
2, 28770, Note_on_c, 0, 81, 64
2, 28784, Note_on_c, 0, 66, 0
2, 28785, Note_on_c, 0, 74, 68
2, 28799, Note_on_c, 0, 74, 0
2, 28799, Note_on_c, 0, 81, 0
2, 28800, Note_on_c, 0, 67, 55
2, 28800, Note_on_c, 0, 83, 80
2, 28814, Note_on_c, 0, 67, 0
2, 28815, Note_on_c, 0, 74, 55
2, 28829, Note_on_c, 0, 74, 0
2, 28830, Note_on_c, 0, 66, 53
2, 28844, Note_on_c, 0, 66, 0
2, 28845, Note_on_c, 0, 74, 57
2, 28859, Note_on_c, 0, 74, 0
2, 28860, Note_on_c, 0, 67, 68
2, 28874, Note_on_c, 0, 67, 0
2, 28875, Note_on_c, 0, 74, 50
2, 28889, Note_on_c, 0, 74, 0
2, 28890, Note_on_c, 0, 64, 64
2, 28904, Note_on_c, 0, 64, 0
2, 28905, Note_on_c, 0, 74, 57
2, 28912, Note_on_c, 0, 83, 0
2, 28919, Note_on_c, 0, 74, 0
2, 28920, Note_on_c, 0, 66, 51
2, 28934, Note_on_c, 0, 66, 0
2, 28935, Note_on_c, 0, 74, 61
2, 28949, Note_on_c, 0, 74, 0
2, 28950, Note_on_c, 0, 64, 61
2, 28964, Note_on_c, 0, 64, 0
2, 28965, Note_on_c, 0, 74, 55
2, 28979, Note_on_c, 0, 74, 0
2, 28980, Note_on_c, 0, 66, 61
2, 28994, Note_on_c, 0, 66, 0
2, 28995, Note_on_c, 0, 74, 64
2, 29009, Note_on_c, 0, 74, 0
2, 29010, Note_on_c, 0, 62, 55
2, 29010, Note_on_c, 0, 81, 80
2, 29024, Note_on_c, 0, 62, 0
2, 29025, Note_on_c, 0, 74, 68
2, 29039, Note_on_c, 0, 74, 0
2, 29040, Note_on_c, 0, 81, 0
2, 29040, Note_on_c, 0, 64, 64
2, 29040, Note_on_c, 0, 79, 80
2, 29054, Note_on_c, 0, 64, 0
2, 29055, Note_on_c, 0, 74, 57
2, 29069, Note_on_c, 0, 74, 0
2, 29070, Note_on_c, 0, 63, 57
2, 29070, Note_on_c, 0, 78, 72
2, 29071, Note_on_c, 0, 79, 0
2, 29084, Note_on_c, 0, 63, 0
2, 29085, Note_on_c, 0, 74, 64
2, 29099, Note_on_c, 0, 74, 0
2, 29100, Note_on_c, 0, 78, 0
2, 29100, Note_on_c, 0, 64, 64
2, 29100, Note_on_c, 0, 79, 85
2, 29114, Note_on_c, 0, 64, 0
2, 29115, Note_on_c, 0, 74, 55
2, 29128, Note_on_c, 0, 79, 0
2, 29129, Note_on_c, 0, 74, 0
2, 29130, Note_on_c, 0, 63, 64
2, 29130, Note_on_c, 0, 78, 76
2, 29144, Note_on_c, 0, 63, 0
2, 29145, Note_on_c, 0, 74, 51
2, 29159, Note_on_c, 0, 74, 0
2, 29159, Note_on_c, 0, 78, 0
2, 29160, Note_on_c, 0, 64, 64
2, 29160, Note_on_c, 0, 79, 89
2, 29174, Note_on_c, 0, 64, 0
2, 29175, Note_on_c, 0, 73, 54
2, 29188, Note_on_c, 0, 79, 0
2, 29189, Note_on_c, 0, 73, 0
2, 29190, Note_on_c, 0, 67, 57
2, 29190, Note_on_c, 0, 83, 72
2, 29204, Note_on_c, 0, 67, 0
2, 29205, Note_on_c, 0, 73, 55
2, 29219, Note_on_c, 0, 73, 0
2, 29220, Note_on_c, 0, 66, 53
2, 29220, Note_on_c, 0, 81, 76
2, 29222, Note_on_c, 0, 83, 0
2, 29234, Note_on_c, 0, 66, 0
2, 29235, Note_on_c, 0, 73, 61
2, 29248, Note_on_c, 0, 81, 0
2, 29249, Note_on_c, 0, 73, 0
2, 29250, Note_on_c, 0, 64, 64
2, 29250, Note_on_c, 0, 79, 76
2, 29264, Note_on_c, 0, 64, 0
2, 29265, Note_on_c, 0, 73, 46
2, 29279, Note_on_c, 0, 73, 0
2, 29280, Note_on_c, 0, 79, 0
2, 29280, Note_on_c, 0, 62, 53
2, 29280, Note_on_c, 0, 78, 80
2, 29294, Note_on_c, 0, 62, 0
2, 29295, Note_on_c, 0, 74, 68
2, 29309, Note_on_c, 0, 74, 0
2, 29310, Note_on_c, 0, 64, 68
2, 29324, Note_on_c, 0, 64, 0
2, 29325, Note_on_c, 0, 74, 68
2, 29339, Note_on_c, 0, 74, 0
2, 29340, Note_on_c, 0, 66, 72
2, 29354, Note_on_c, 0, 66, 0
2, 29355, Note_on_c, 0, 74, 68
2, 29369, Note_on_c, 0, 74, 0
2, 29370, Note_on_c, 0, 67, 83
2, 29384, Note_on_c, 0, 67, 0
2, 29385, Note_on_c, 0, 74, 64
2, 29397, Note_on_c, 0, 78, 0
2, 29399, Note_on_c, 0, 74, 0
2, 29400, Note_on_c, 0, 69, 88
2, 29414, Note_on_c, 0, 69, 0
2, 29415, Note_on_c, 0, 74, 55
2, 29429, Note_on_c, 0, 74, 0
2, 29430, Note_on_c, 0, 68, 83
2, 29444, Note_on_c, 0, 68, 0
2, 29445, Note_on_c, 0, 74, 57
2, 29459, Note_on_c, 0, 74, 0
2, 29460, Note_on_c, 0, 69, 55
2, 29474, Note_on_c, 0, 69, 0
2, 29475, Note_on_c, 0, 74, 57
2, 29489, Note_on_c, 0, 74, 0
2, 29490, Note_on_c, 0, 72, 57
2, 29490, Note_on_c, 0, 78, 93
2, 29504, Note_on_c, 0, 72, 0
2, 29505, Note_on_c, 0, 74, 55
2, 29518, Note_on_c, 0, 78, 0
2, 29519, Note_on_c, 0, 74, 0
2, 29520, Note_on_c, 0, 77, 45
2, 29520, Note_on_c, 0, 86, 80
2, 29534, Note_on_c, 0, 77, 0
2, 29535, Note_on_c, 0, 79, 55
2, 29549, Note_on_c, 0, 79, 0
2, 29550, Note_on_c, 0, 76, 64
2, 29550, Note_on_c, 0, 85, 68
2, 29552, Note_on_c, 0, 86, 0
2, 29564, Note_on_c, 0, 76, 0
2, 29565, Note_on_c, 0, 79, 49
2, 29579, Note_on_c, 0, 79, 0
2, 29579, Note_on_c, 0, 85, 0
2, 29580, Note_on_c, 0, 77, 72
2, 29580, Note_on_c, 0, 86, 80
2, 29594, Note_on_c, 0, 77, 0
2, 29595, Note_on_c, 0, 79, 55
2, 29609, Note_on_c, 0, 79, 0
2, 29610, Note_on_c, 0, 76, 68
2, 29610, Note_on_c, 0, 85, 68
2, 29612, Note_on_c, 0, 86, 0
2, 29624, Note_on_c, 0, 76, 0
2, 29625, Note_on_c, 0, 79, 51
2, 29637, Note_on_c, 0, 85, 0
2, 29639, Note_on_c, 0, 79, 0
2, 29640, Note_on_c, 0, 77, 72
2, 29640, Note_on_c, 0, 88, 76
2, 29652, Note_on_c, 0, 88, 0
2, 29654, Note_on_c, 0, 77, 0
2, 29655, Note_on_c, 0, 79, 46
2, 29655, Note_on_c, 0, 86, 76
2, 29669, Note_on_c, 0, 79, 0
2, 29670, Note_on_c, 0, 76, 55
2, 29670, Note_on_c, 0, 85, 60
2, 29673, Note_on_c, 0, 86, 0
2, 29684, Note_on_c, 0, 76, 0
2, 29685, Note_on_c, 0, 79, 55
2, 29697, Note_on_c, 0, 85, 0
2, 29699, Note_on_c, 0, 79, 0
2, 29700, Note_on_c, 0, 77, 61
2, 29700, Note_on_c, 0, 86, 85
2, 29714, Note_on_c, 0, 77, 0
2, 29715, Note_on_c, 0, 79, 57
2, 29729, Note_on_c, 0, 79, 0
2, 29730, Note_on_c, 0, 74, 76
2, 29730, Note_on_c, 0, 83, 80
2, 29732, Note_on_c, 0, 86, 0
2, 29744, Note_on_c, 0, 74, 0
2, 29745, Note_on_c, 0, 79, 68
2, 29759, Note_on_c, 0, 79, 0
2, 29760, Note_on_c, 0, 83, 0
2, 29760, Note_on_c, 0, 76, 68
2, 29760, Note_on_c, 0, 86, 80
2, 29774, Note_on_c, 0, 76, 0
2, 29775, Note_on_c, 0, 79, 55
2, 29775, Note_on_c, 0, 84, 68
2, 29777, Note_on_c, 0, 86, 0
2, 29789, Note_on_c, 0, 79, 0
2, 29790, Note_on_c, 0, 75, 68
2, 29790, Note_on_c, 0, 83, 76
2, 29792, Note_on_c, 0, 84, 0
2, 29804, Note_on_c, 0, 75, 0
2, 29805, Note_on_c, 0, 79, 61
2, 29818, Note_on_c, 0, 83, 0
2, 29819, Note_on_c, 0, 79, 0
2, 29820, Note_on_c, 0, 76, 64
2, 29820, Note_on_c, 0, 84, 72
2, 29834, Note_on_c, 0, 76, 0
2, 29835, Note_on_c, 0, 79, 57
2, 29849, Note_on_c, 0, 79, 0
2, 29850, Note_on_c, 0, 73, 72
2, 29850, Note_on_c, 0, 82, 80
2, 29851, Note_on_c, 0, 84, 0
2, 29864, Note_on_c, 0, 73, 0
2, 29865, Note_on_c, 0, 79, 61
2, 29879, Note_on_c, 0, 79, 0
2, 29879, Note_on_c, 0, 82, 0
2, 29880, Note_on_c, 0, 74, 64
2, 29880, Note_on_c, 0, 84, 80
2, 29894, Note_on_c, 0, 74, 0
2, 29895, Note_on_c, 0, 79, 57
2, 29895, Note_on_c, 0, 83, 62
2, 29899, Note_on_c, 0, 84, 0
2, 29909, Note_on_c, 0, 79, 0
2, 29910, Note_on_c, 0, 73, 68
2, 29910, Note_on_c, 0, 82, 60
2, 29911, Note_on_c, 0, 83, 0
2, 29924, Note_on_c, 0, 73, 0
2, 29925, Note_on_c, 0, 79, 55
2, 29938, Note_on_c, 0, 82, 0
2, 29939, Note_on_c, 0, 79, 0
2, 29940, Note_on_c, 0, 74, 68
2, 29940, Note_on_c, 0, 83, 80
2, 29954, Note_on_c, 0, 74, 0
2, 29955, Note_on_c, 0, 79, 50
2, 29969, Note_on_c, 0, 79, 0
2, 29970, Note_on_c, 0, 71, 68
2, 29970, Note_on_c, 0, 79, 80
2, 29971, Note_on_c, 0, 83, 0
2, 29984, Note_on_c, 0, 79, 0
2, 29984, Note_on_c, 0, 71, 0
2, 29985, Note_on_c, 0, 74, 54
2, 29988, Control_c, 0, 64, 127
2, 29999, Note_on_c, 0, 74, 0
2, 30000, Note_on_c, 0, 72, 72
2, 30000, Control_c, 0, 64, 0
2, 30000, Note_on_c, 0, 83, 85
2, 30008, Note_on_c, 0, 83, 0
2, 30014, Note_on_c, 0, 72, 0
2, 30015, Note_on_c, 0, 74, 50
2, 30015, Note_on_c, 0, 81, 76
2, 30022, Note_on_c, 0, 81, 0
2, 30029, Note_on_c, 0, 74, 0
2, 30030, Note_on_c, 0, 71, 64
2, 30030, Note_on_c, 0, 79, 80
2, 30039, Note_on_c, 0, 79, 0
2, 30044, Note_on_c, 0, 71, 0
2, 30045, Note_on_c, 0, 74, 51
2, 30059, Note_on_c, 0, 74, 0
2, 30060, Note_on_c, 0, 72, 64
2, 30060, Note_on_c, 0, 83, 80
2, 30069, Note_on_c, 0, 83, 0
2, 30074, Note_on_c, 0, 72, 0
2, 30075, Note_on_c, 0, 74, 46
2, 30075, Note_on_c, 0, 81, 64
2, 30083, Note_on_c, 0, 81, 0
2, 30089, Note_on_c, 0, 74, 0
2, 30090, Note_on_c, 0, 71, 68
2, 30090, Note_on_c, 0, 79, 76
2, 30099, Note_on_c, 0, 79, 0
2, 30104, Note_on_c, 0, 71, 0
2, 30105, Note_on_c, 0, 74, 57
2, 30119, Note_on_c, 0, 74, 0
2, 30120, Note_on_c, 0, 72, 68
2, 30120, Note_on_c, 0, 83, 89
2, 30130, Note_on_c, 0, 83, 0
2, 30134, Note_on_c, 0, 72, 0
2, 30135, Note_on_c, 0, 74, 54
2, 30135, Note_on_c, 0, 81, 64
2, 30144, Note_on_c, 0, 81, 0
2, 30149, Note_on_c, 0, 74, 0
2, 30150, Note_on_c, 0, 71, 72
2, 30150, Note_on_c, 0, 79, 64
2, 30158, Note_on_c, 0, 79, 0
2, 30164, Note_on_c, 0, 71, 0
2, 30165, Note_on_c, 0, 74, 53
2, 30179, Note_on_c, 0, 74, 0
2, 30180, Note_on_c, 0, 72, 57
2, 30180, Note_on_c, 0, 83, 76
2, 30190, Note_on_c, 0, 83, 0
2, 30194, Note_on_c, 0, 72, 0
2, 30195, Note_on_c, 0, 74, 51
2, 30195, Note_on_c, 0, 81, 76
2, 30205, Note_on_c, 0, 81, 0
2, 30209, Note_on_c, 0, 74, 0
2, 30210, Note_on_c, 0, 69, 64
2, 30210, Note_on_c, 0, 78, 93
2, 30221, Note_on_c, 0, 78, 0
2, 30224, Note_on_c, 0, 69, 0
2, 30225, Note_on_c, 0, 74, 57
2, 30239, Note_on_c, 0, 74, 0
2, 30240, Note_on_c, 0, 67, 68
2, 30240, Note_on_c, 0, 79, 80
2, 30248, Note_on_c, 0, 79, 0
2, 30254, Note_on_c, 0, 67, 0
2, 30255, Note_on_c, 0, 71, 55
2, 30269, Note_on_c, 0, 71, 0
2, 30270, Note_on_c, 0, 74, 64
2, 30270, Note_on_c, 0, 83, 68
2, 30278, Note_on_c, 0, 83, 0
2, 30284, Note_on_c, 0, 74, 0
2, 30285, Note_on_c, 0, 71, 64
2, 30299, Note_on_c, 0, 71, 0
2, 30300, Note_on_c, 0, 67, 72
2, 30300, Note_on_c, 0, 79, 76
2, 30308, Note_on_c, 0, 79, 0
2, 30314, Note_on_c, 0, 67, 0
2, 30315, Note_on_c, 0, 71, 55
2, 30329, Note_on_c, 0, 71, 0
2, 30330, Note_on_c, 0, 74, 68
2, 30330, Note_on_c, 0, 83, 64
2, 30339, Note_on_c, 0, 83, 0
2, 30344, Note_on_c, 0, 74, 0
2, 30345, Note_on_c, 0, 71, 72
2, 30359, Note_on_c, 0, 71, 0
2, 30360, Note_on_c, 0, 67, 80
2, 30360, Note_on_c, 0, 79, 76
2, 30371, Note_on_c, 0, 79, 0
2, 30374, Note_on_c, 0, 67, 0
2, 30375, Note_on_c, 0, 71, 80
2, 30389, Note_on_c, 0, 71, 0
2, 30390, Note_on_c, 0, 70, 80
2, 30404, Note_on_c, 0, 70, 0
2, 30405, Note_on_c, 0, 71, 57
2, 30419, Note_on_c, 0, 71, 0
2, 30420, Note_on_c, 0, 69, 88
2, 30434, Note_on_c, 0, 69, 0
2, 30435, Note_on_c, 0, 71, 57
2, 30449, Note_on_c, 0, 71, 0
2, 30450, Note_on_c, 0, 66, 83
2, 30450, Note_on_c, 0, 75, 102
2, 30464, Note_on_c, 0, 66, 0
2, 30465, Note_on_c, 0, 71, 64
2, 30467, Control_c, 0, 64, 127
2, 30474, Control_c, 0, 64, 0
2, 30476, Note_on_c, 0, 75, 0
2, 30479, Note_on_c, 0, 71, 0
2, 30480, Note_on_c, 0, 67, 80
2, 30480, Note_on_c, 0, 83, 93
2, 30494, Note_on_c, 0, 67, 0
2, 30495, Note_on_c, 0, 71, 68
2, 30507, Note_on_c, 0, 83, 0
2, 30509, Note_on_c, 0, 71, 0
2, 30510, Note_on_c, 0, 66, 64
2, 30510, Note_on_c, 0, 82, 93
2, 30524, Note_on_c, 0, 66, 0
2, 30525, Note_on_c, 0, 71, 64
2, 30535, Note_on_c, 0, 82, 0
2, 30539, Note_on_c, 0, 71, 0
2, 30540, Note_on_c, 0, 67, 80
2, 30540, Note_on_c, 0, 83, 89
2, 30545, Control_c, 0, 64, 127
2, 30554, Note_on_c, 0, 67, 0
2, 30555, Note_on_c, 0, 71, 61
2, 30568, Note_on_c, 0, 83, 0
2, 30569, Note_on_c, 0, 71, 0
2, 30570, Note_on_c, 0, 65, 76
2, 30570, Note_on_c, 0, 80, 93
2, 30584, Note_on_c, 0, 65, 0
2, 30585, Note_on_c, 0, 71, 61
2, 30596, Note_on_c, 0, 80, 0
2, 30598, Control_c, 0, 64, 0
2, 30599, Note_on_c, 0, 71, 0
2, 30600, Note_on_c, 0, 66, 76
2, 30600, Note_on_c, 0, 83, 80
2, 30613, Note_on_c, 0, 83, 0
2, 30614, Note_on_c, 0, 66, 0
2, 30615, Note_on_c, 0, 71, 61
2, 30615, Note_on_c, 0, 81, 89
2, 30629, Note_on_c, 0, 71, 0
2, 30630, Note_on_c, 0, 65, 83
2, 30630, Note_on_c, 0, 80, 102
2, 30631, Note_on_c, 0, 81, 0
2, 30644, Note_on_c, 0, 65, 0
2, 30645, Note_on_c, 0, 71, 55
2, 30659, Note_on_c, 0, 71, 0
2, 30660, Note_on_c, 0, 80, 0
2, 30660, Note_on_c, 0, 66, 80
2, 30660, Note_on_c, 0, 81, 93
2, 30674, Note_on_c, 0, 66, 0
2, 30675, Note_on_c, 0, 71, 64
2, 30687, Control_c, 0, 64, 127
2, 30688, Note_on_c, 0, 81, 0
2, 30689, Note_on_c, 0, 71, 0
2, 30690, Note_on_c, 0, 63, 80
2, 30690, Note_on_c, 0, 78, 89
2, 30704, Note_on_c, 0, 63, 0
2, 30705, Note_on_c, 0, 71, 55
2, 30716, Note_on_c, 0, 78, 0
2, 30717, Control_c, 0, 64, 0
2, 30719, Note_on_c, 0, 71, 0
2, 30720, Note_on_c, 0, 64, 88
2, 30720, Note_on_c, 0, 79, 89
2, 30734, Note_on_c, 0, 64, 0
2, 30735, Note_on_c, 0, 67, 54
2, 30749, Note_on_c, 0, 67, 0
2, 30750, Note_on_c, 0, 63, 80
2, 30764, Note_on_c, 0, 63, 0
2, 30765, Note_on_c, 0, 67, 57
2, 30779, Note_on_c, 0, 67, 0
2, 30780, Note_on_c, 0, 64, 83
2, 30788, Control_c, 0, 64, 127
2, 30794, Note_on_c, 0, 64, 0
2, 30795, Note_on_c, 0, 67, 51
2, 30809, Note_on_c, 0, 67, 0
2, 30810, Note_on_c, 0, 61, 76
2, 30824, Note_on_c, 0, 61, 0
2, 30825, Note_on_c, 0, 67, 64
2, 30833, Note_on_c, 0, 79, 0
2, 30833, Control_c, 0, 64, 0
2, 30839, Note_on_c, 0, 67, 0
2, 30840, Note_on_c, 0, 62, 72
2, 30854, Note_on_c, 0, 62, 0
2, 30855, Note_on_c, 0, 67, 72
2, 30869, Note_on_c, 0, 67, 0
2, 30870, Note_on_c, 0, 61, 80
2, 30884, Note_on_c, 0, 61, 0
2, 30885, Note_on_c, 0, 67, 57
2, 30899, Note_on_c, 0, 67, 0
2, 30900, Note_on_c, 0, 62, 83
2, 30911, Control_c, 0, 64, 127
2, 30914, Note_on_c, 0, 62, 0
2, 30915, Note_on_c, 0, 67, 76
2, 30929, Note_on_c, 0, 67, 0
2, 30930, Note_on_c, 0, 59, 76
2, 30930, Note_on_c, 0, 89, 98
2, 30931, Control_c, 0, 64, 0
2, 30944, Note_on_c, 0, 59, 0
2, 30945, Note_on_c, 0, 67, 64
2, 30948, Control_c, 0, 64, 127
2, 30959, Note_on_c, 0, 67, 0
2, 30960, Note_on_c, 0, 60, 80
2, 30960, Note_on_c, 0, 88, 93
2, 30961, Control_c, 0, 64, 0
2, 30963, Note_on_c, 0, 89, 0
2, 30967, Note_on_c, 0, 88, 0
2, 30974, Note_on_c, 0, 60, 0
2, 30975, Note_on_c, 0, 67, 57
2, 30989, Note_on_c, 0, 67, 0
2, 30990, Note_on_c, 0, 59, 80
2, 30990, Note_on_c, 0, 89, 93
2, 30997, Note_on_c, 0, 89, 0
2, 31004, Note_on_c, 0, 59, 0
2, 31005, Note_on_c, 0, 67, 68
2, 31019, Note_on_c, 0, 67, 0
2, 31020, Note_on_c, 0, 60, 80
2, 31020, Note_on_c, 0, 88, 102
2, 31027, Note_on_c, 0, 88, 0
2, 31034, Note_on_c, 0, 60, 0
2, 31035, Note_on_c, 0, 67, 61
2, 31049, Note_on_c, 0, 67, 0
2, 31050, Note_on_c, 0, 59, 80
2, 31050, Note_on_c, 0, 89, 98
2, 31059, Note_on_c, 0, 89, 0
2, 31064, Note_on_c, 0, 59, 0
2, 31065, Note_on_c, 0, 67, 72
2, 31079, Note_on_c, 0, 67, 0
2, 31080, Note_on_c, 0, 60, 83
2, 31080, Note_on_c, 0, 88, 107
2, 31089, Note_on_c, 0, 88, 0
2, 31094, Note_on_c, 0, 60, 0
2, 31095, Note_on_c, 0, 67, 54
2, 31109, Note_on_c, 0, 67, 0
2, 31110, Note_on_c, 0, 59, 80
2, 31110, Note_on_c, 0, 87, 102
2, 31118, Note_on_c, 0, 87, 0
2, 31124, Note_on_c, 0, 59, 0
2, 31125, Note_on_c, 0, 67, 68
2, 31139, Note_on_c, 0, 67, 0
2, 31140, Note_on_c, 0, 60, 68
2, 31140, Note_on_c, 0, 88, 102
2, 31149, Note_on_c, 0, 88, 0
2, 31154, Note_on_c, 0, 60, 0
2, 31155, Note_on_c, 0, 67, 72
2, 31169, Note_on_c, 0, 67, 0
2, 31170, Note_on_c, 0, 64, 83
2, 31170, Note_on_c, 0, 84, 93
2, 31178, Note_on_c, 0, 84, 0
2, 31184, Note_on_c, 0, 64, 0
2, 31185, Note_on_c, 0, 69, 64
2, 31199, Note_on_c, 0, 69, 0
2, 31200, Note_on_c, 0, 66, 72
2, 31200, Note_on_c, 0, 81, 85
2, 31214, Note_on_c, 0, 66, 0
2, 31215, Note_on_c, 0, 69, 61
2, 31229, Note_on_c, 0, 69, 0
2, 31230, Note_on_c, 0, 67, 72
2, 31244, Note_on_c, 0, 67, 0
2, 31245, Note_on_c, 0, 69, 72
2, 31254, Control_c, 0, 64, 127
2, 31259, Note_on_c, 0, 69, 0
2, 31260, Note_on_c, 0, 66, 80
2, 31274, Note_on_c, 0, 66, 0
2, 31275, Note_on_c, 0, 69, 57
2, 31289, Note_on_c, 0, 69, 0
2, 31290, Note_on_c, 0, 67, 55
2, 31304, Note_on_c, 0, 67, 0
2, 31305, Note_on_c, 0, 69, 64
2, 31319, Note_on_c, 0, 69, 0
2, 31320, Note_on_c, 0, 66, 80
2, 31334, Note_on_c, 0, 66, 0
2, 31335, Note_on_c, 0, 69, 68
2, 31343, Note_on_c, 0, 81, 0
2, 31345, Control_c, 0, 64, 0
2, 31349, Note_on_c, 0, 69, 0
2, 31350, Note_on_c, 0, 67, 51
2, 31364, Note_on_c, 0, 67, 0
2, 31365, Note_on_c, 0, 69, 64
2, 31379, Note_on_c, 0, 69, 0
2, 31380, Note_on_c, 0, 66, 68
2, 31394, Note_on_c, 0, 66, 0
2, 31395, Note_on_c, 0, 69, 68
2, 31409, Note_on_c, 0, 69, 0
2, 31410, Note_on_c, 0, 66, 76
2, 31410, Note_on_c, 0, 86, 80
2, 31419, Note_on_c, 0, 86, 0
2, 31424, Note_on_c, 0, 66, 0
2, 31425, Note_on_c, 0, 69, 72
2, 31439, Note_on_c, 0, 69, 0
2, 31440, Note_on_c, 0, 67, 83
2, 31440, Note_on_c, 0, 76, 85
2, 31454, Note_on_c, 0, 67, 0
2, 31455, Note_on_c, 0, 71, 68
2, 31461, Note_on_c, 0, 76, 0
2, 31469, Note_on_c, 0, 71, 0
2, 31470, Note_on_c, 0, 66, 72
2, 31470, Note_on_c, 0, 75, 80
2, 31484, Note_on_c, 0, 66, 0
2, 31485, Note_on_c, 0, 71, 72
2, 31499, Note_on_c, 0, 71, 0
2, 31500, Note_on_c, 0, 75, 0
2, 31500, Note_on_c, 0, 67, 76
2, 31500, Note_on_c, 0, 76, 93
2, 31514, Note_on_c, 0, 67, 0
2, 31515, Note_on_c, 0, 71, 72
2, 31529, Note_on_c, 0, 71, 0
2, 31530, Note_on_c, 0, 66, 91
2, 31530, Note_on_c, 0, 75, 89
2, 31531, Note_on_c, 0, 76, 0
2, 31541, Control_c, 0, 64, 127
2, 31544, Note_on_c, 0, 66, 0
2, 31545, Note_on_c, 0, 71, 68
2, 31559, Note_on_c, 0, 71, 0
2, 31559, Control_c, 0, 64, 0
2, 31560, Note_on_c, 0, 67, 80
2, 31560, Note_on_c, 0, 78, 72
2, 31561, Note_on_c, 0, 75, 0
2, 31574, Note_on_c, 0, 67, 0
2, 31575, Note_on_c, 0, 78, 0
2, 31575, Note_on_c, 0, 71, 72
2, 31575, Note_on_c, 0, 76, 56
2, 31589, Note_on_c, 0, 71, 0
2, 31590, Note_on_c, 0, 66, 83
2, 31590, Note_on_c, 0, 75, 89
2, 31593, Note_on_c, 0, 76, 0
2, 31604, Note_on_c, 0, 66, 0
2, 31605, Note_on_c, 0, 71, 76
2, 31619, Note_on_c, 0, 71, 0
2, 31619, Note_on_c, 0, 75, 0
2, 31620, Note_on_c, 0, 67, 83
2, 31620, Note_on_c, 0, 76, 89
2, 31634, Note_on_c, 0, 67, 0
2, 31635, Note_on_c, 0, 71, 57
2, 31646, Note_on_c, 0, 76, 0
2, 31649, Note_on_c, 0, 71, 0
2, 31650, Note_on_c, 0, 67, 76
2, 31650, Note_on_c, 0, 76, 85
2, 31660, Control_c, 0, 64, 127
2, 31664, Note_on_c, 0, 67, 0
2, 31665, Note_on_c, 0, 71, 76
2, 31672, Control_c, 0, 64, 0
2, 31673, Note_on_c, 0, 76, 0
2, 31679, Note_on_c, 0, 71, 0
2, 31680, Note_on_c, 0, 69, 80
2, 31680, Note_on_c, 0, 78, 85
2, 31694, Note_on_c, 0, 69, 0
2, 31695, Note_on_c, 0, 74, 64
2, 31709, Note_on_c, 0, 74, 0
2, 31710, Note_on_c, 0, 68, 80
2, 31724, Note_on_c, 0, 68, 0
2, 31725, Note_on_c, 0, 74, 76
2, 31739, Note_on_c, 0, 74, 0
2, 31740, Note_on_c, 0, 69, 83
2, 31754, Note_on_c, 0, 69, 0
2, 31755, Note_on_c, 0, 74, 68
2, 31769, Note_on_c, 0, 74, 0
2, 31770, Note_on_c, 0, 68, 88
2, 31784, Note_on_c, 0, 68, 0
2, 31785, Note_on_c, 0, 74, 55
2, 31799, Note_on_c, 0, 74, 0
2, 31800, Note_on_c, 0, 69, 76
2, 31809, Control_c, 0, 64, 127
2, 31813, Note_on_c, 0, 78, 0
2, 31814, Note_on_c, 0, 69, 0
2, 31815, Note_on_c, 0, 74, 68
2, 31829, Note_on_c, 0, 74, 0
2, 31830, Note_on_c, 0, 68, 83
2, 31844, Note_on_c, 0, 68, 0
2, 31845, Note_on_c, 0, 74, 53
2, 31848, Control_c, 0, 64, 0
2, 31859, Note_on_c, 0, 74, 0
2, 31860, Note_on_c, 0, 69, 83
2, 31874, Note_on_c, 0, 69, 0
2, 31875, Note_on_c, 0, 74, 72
2, 31889, Note_on_c, 0, 74, 0
2, 31890, Note_on_c, 0, 72, 72
2, 31890, Note_on_c, 0, 81, 98
2, 31904, Note_on_c, 0, 72, 0
2, 31905, Note_on_c, 0, 74, 68
2, 31919, Note_on_c, 0, 74, 0
2, 31919, Note_on_c, 0, 81, 0
2, 31920, Note_on_c, 0, 71, 83
2, 31920, Note_on_c, 0, 86, 93
2, 31934, Note_on_c, 0, 71, 0
2, 31935, Note_on_c, 0, 74, 68
2, 31949, Note_on_c, 0, 74, 0
2, 31949, Note_on_c, 0, 86, 0
2, 31950, Note_on_c, 0, 70, 83
2, 31950, Note_on_c, 0, 85, 85
2, 31964, Note_on_c, 0, 70, 0
2, 31965, Note_on_c, 0, 74, 50
2, 31979, Note_on_c, 0, 74, 0
2, 31979, Note_on_c, 0, 85, 0
2, 31980, Note_on_c, 0, 71, 80
2, 31980, Note_on_c, 0, 86, 93
2, 31994, Note_on_c, 0, 71, 0
2, 31995, Note_on_c, 0, 74, 68
2, 32009, Note_on_c, 0, 74, 0
2, 32010, Note_on_c, 0, 86, 0
2, 32010, Note_on_c, 0, 68, 83
2, 32010, Control_c, 0, 64, 127
2, 32010, Note_on_c, 0, 83, 93
2, 32021, Control_c, 0, 64, 0
2, 32024, Note_on_c, 0, 68, 0
2, 32025, Note_on_c, 0, 74, 72
2, 32039, Note_on_c, 0, 74, 0
2, 32040, Note_on_c, 0, 83, 0
2, 32040, Note_on_c, 0, 69, 80
2, 32040, Note_on_c, 0, 86, 93
2, 32054, Note_on_c, 0, 69, 0
2, 32055, Note_on_c, 0, 74, 64
2, 32055, Note_on_c, 0, 84, 80
2, 32058, Note_on_c, 0, 86, 0
2, 32069, Note_on_c, 0, 84, 0
2, 32069, Note_on_c, 0, 74, 0
2, 32070, Note_on_c, 0, 68, 80
2, 32070, Note_on_c, 0, 83, 93
2, 32084, Note_on_c, 0, 68, 0
2, 32085, Note_on_c, 0, 74, 76
2, 32099, Note_on_c, 0, 74, 0
2, 32099, Note_on_c, 0, 83, 0
2, 32100, Note_on_c, 0, 69, 83
2, 32100, Note_on_c, 0, 84, 76
2, 32114, Note_on_c, 0, 69, 0
2, 32115, Note_on_c, 0, 74, 64
2, 32129, Note_on_c, 0, 74, 0
2, 32130, Note_on_c, 0, 84, 0
2, 32130, Note_on_c, 0, 66, 80
2, 32130, Note_on_c, 0, 81, 76
2, 32144, Note_on_c, 0, 66, 0
2, 32145, Note_on_c, 0, 74, 72
2, 32159, Note_on_c, 0, 74, 0
2, 32159, Note_on_c, 0, 81, 0
2, 32160, Note_on_c, 0, 67, 80
2, 32160, Note_on_c, 0, 83, 93
2, 32174, Note_on_c, 0, 67, 0
2, 32175, Note_on_c, 0, 71, 72
2, 32189, Note_on_c, 0, 71, 0
2, 32189, Note_on_c, 0, 83, 0
2, 32190, Note_on_c, 0, 74, 55
2, 32190, Note_on_c, 0, 82, 80
2, 32204, Note_on_c, 0, 74, 0
2, 32205, Note_on_c, 0, 73, 68
2, 32219, Note_on_c, 0, 73, 0
2, 32219, Note_on_c, 0, 82, 0
2, 32220, Note_on_c, 0, 74, 64
2, 32220, Note_on_c, 0, 83, 85
2, 32234, Note_on_c, 0, 74, 0
2, 32235, Note_on_c, 0, 73, 61
2, 32249, Note_on_c, 0, 73, 0
2, 32250, Note_on_c, 0, 83, 0
2, 32250, Note_on_c, 0, 74, 72
2, 32250, Note_on_c, 0, 80, 89
2, 32263, Control_c, 0, 64, 127
2, 32264, Note_on_c, 0, 74, 0
2, 32265, Note_on_c, 0, 73, 68
2, 32277, Note_on_c, 0, 80, 0
2, 32277, Control_c, 0, 64, 0
2, 32279, Note_on_c, 0, 73, 0
2, 32280, Note_on_c, 0, 74, 76
2, 32280, Note_on_c, 0, 83, 85
2, 32294, Note_on_c, 0, 74, 0
2, 32295, Note_on_c, 0, 73, 61
2, 32295, Note_on_c, 0, 81, 72
2, 32297, Note_on_c, 0, 83, 0
2, 32309, Note_on_c, 0, 73, 0
2, 32310, Note_on_c, 0, 74, 68
2, 32310, Note_on_c, 0, 80, 72
2, 32312, Note_on_c, 0, 81, 0
2, 32324, Note_on_c, 0, 74, 0
2, 32325, Note_on_c, 0, 73, 55
2, 32338, Note_on_c, 0, 80, 0
2, 32339, Note_on_c, 0, 73, 0
2, 32340, Note_on_c, 0, 74, 72
2, 32340, Note_on_c, 0, 81, 93
2, 32354, Note_on_c, 0, 74, 0
2, 32355, Note_on_c, 0, 73, 68
2, 32366, Control_c, 0, 64, 127
2, 32369, Note_on_c, 0, 73, 0
2, 32370, Note_on_c, 0, 81, 0
2, 32370, Note_on_c, 0, 74, 64
2, 32370, Note_on_c, 0, 78, 76
2, 32384, Note_on_c, 0, 74, 0
2, 32385, Note_on_c, 0, 72, 72
2, 32395, Note_on_c, 0, 78, 0
2, 32398, Control_c, 0, 64, 0
2, 32399, Note_on_c, 0, 72, 0
2, 32400, Note_on_c, 0, 71, 80
2, 32400, Note_on_c, 0, 79, 93
2, 32408, Note_on_c, 0, 79, 0
2, 32414, Note_on_c, 0, 71, 0
2, 32415, Note_on_c, 0, 74, 57
2, 32429, Note_on_c, 0, 74, 0
2, 32430, Note_on_c, 0, 72, 68
2, 32430, Note_on_c, 0, 83, 80
2, 32438, Note_on_c, 0, 83, 0
2, 32444, Note_on_c, 0, 72, 0
2, 32445, Note_on_c, 0, 74, 68
2, 32445, Note_on_c, 0, 81, 93
2, 32452, Note_on_c, 0, 81, 0
2, 32459, Note_on_c, 0, 74, 0
2, 32460, Note_on_c, 0, 71, 83
2, 32460, Note_on_c, 0, 79, 80
2, 32468, Note_on_c, 0, 79, 0
2, 32474, Note_on_c, 0, 71, 0
2, 32475, Note_on_c, 0, 74, 64
2, 32489, Note_on_c, 0, 74, 0
2, 32490, Note_on_c, 0, 72, 68
2, 32490, Note_on_c, 0, 83, 80
2, 32498, Note_on_c, 0, 83, 0
2, 32504, Note_on_c, 0, 72, 0
2, 32505, Note_on_c, 0, 74, 64
2, 32505, Note_on_c, 0, 81, 85
2, 32512, Note_on_c, 0, 81, 0
2, 32519, Note_on_c, 0, 74, 0
2, 32520, Note_on_c, 0, 71, 80
2, 32520, Note_on_c, 0, 79, 85
2, 32528, Note_on_c, 0, 79, 0
2, 32534, Note_on_c, 0, 71, 0
2, 32535, Note_on_c, 0, 74, 68
2, 32549, Note_on_c, 0, 74, 0
2, 32550, Note_on_c, 0, 72, 76
2, 32550, Note_on_c, 0, 83, 85
2, 32559, Note_on_c, 0, 83, 0
2, 32564, Note_on_c, 0, 72, 0
2, 32565, Note_on_c, 0, 74, 72
2, 32565, Note_on_c, 0, 81, 76
2, 32573, Note_on_c, 0, 81, 0
2, 32579, Note_on_c, 0, 74, 0
2, 32580, Note_on_c, 0, 71, 83
2, 32580, Note_on_c, 0, 79, 89
2, 32588, Note_on_c, 0, 79, 0
2, 32594, Note_on_c, 0, 71, 0
2, 32595, Note_on_c, 0, 74, 72
2, 32609, Note_on_c, 0, 74, 0
2, 32610, Note_on_c, 0, 72, 64
2, 32610, Note_on_c, 0, 83, 80
2, 32618, Note_on_c, 0, 83, 0
2, 32624, Note_on_c, 0, 72, 0
2, 32625, Note_on_c, 0, 74, 54
2, 32625, Note_on_c, 0, 81, 76
2, 32633, Note_on_c, 0, 81, 0
2, 32639, Note_on_c, 0, 74, 0
2, 32640, Note_on_c, 0, 71, 72
2, 32640, Note_on_c, 0, 79, 89
2, 32649, Note_on_c, 0, 79, 0
2, 32654, Note_on_c, 0, 71, 0
2, 32655, Note_on_c, 0, 67, 50
2, 32669, Note_on_c, 0, 67, 0
2, 32670, Note_on_c, 0, 71, 68
2, 32670, Note_on_c, 0, 83, 93
2, 32676, Note_on_c, 0, 83, 0
2, 32684, Note_on_c, 0, 71, 0
2, 32685, Note_on_c, 0, 74, 68
2, 32699, Note_on_c, 0, 74, 0
2, 32700, Note_on_c, 0, 71, 55
2, 32700, Note_on_c, 0, 86, 89
2, 32707, Note_on_c, 0, 86, 0
2, 32714, Note_on_c, 0, 71, 0
2, 32715, Note_on_c, 0, 67, 51
2, 32729, Note_on_c, 0, 67, 0
2, 32730, Note_on_c, 0, 71, 51
2, 32730, Note_on_c, 0, 83, 80
2, 32737, Note_on_c, 0, 83, 0
2, 32744, Note_on_c, 0, 71, 0
2, 32745, Note_on_c, 0, 74, 55
2, 32759, Note_on_c, 0, 74, 0
2, 32760, Note_on_c, 0, 71, 68
2, 32760, Note_on_c, 0, 79, 85
2, 32769, Note_on_c, 0, 79, 0
2, 32774, Note_on_c, 0, 71, 0
2, 32775, Note_on_c, 0, 71, 49
2, 32789, Note_on_c, 0, 71, 0
2, 32790, Note_on_c, 0, 70, 46
2, 32804, Note_on_c, 0, 70, 0
2, 32805, Note_on_c, 0, 71, 47
2, 32819, Note_on_c, 0, 71, 0
2, 32820, Note_on_c, 0, 69, 57
2, 32834, Note_on_c, 0, 69, 0
2, 32835, Note_on_c, 0, 71, 49
2, 32849, Note_on_c, 0, 71, 0
2, 32850, Note_on_c, 0, 66, 47
2, 32850, Note_on_c, 0, 75, 93
2, 32864, Note_on_c, 0, 66, 0
2, 32865, Note_on_c, 0, 71, 57
2, 32879, Note_on_c, 0, 71, 0
2, 32880, Note_on_c, 0, 67, 55
2, 32880, Note_on_c, 0, 83, 76
2, 32881, Note_on_c, 0, 75, 0
2, 32894, Note_on_c, 0, 67, 0
2, 32895, Note_on_c, 0, 71, 51
2, 32907, Note_on_c, 0, 83, 0
2, 32909, Note_on_c, 0, 71, 0
2, 32910, Note_on_c, 0, 66, 50
2, 32910, Note_on_c, 0, 82, 72
2, 32924, Note_on_c, 0, 66, 0
2, 32925, Note_on_c, 0, 71, 61
2, 32939, Note_on_c, 0, 71, 0
2, 32939, Note_on_c, 0, 82, 0
2, 32940, Note_on_c, 0, 67, 57
2, 32940, Note_on_c, 0, 83, 64
2, 32954, Note_on_c, 0, 67, 0
2, 32955, Note_on_c, 0, 71, 68
2, 32969, Note_on_c, 0, 71, 0
2, 32970, Note_on_c, 0, 83, 0
2, 32970, Note_on_c, 0, 65, 57
2, 32970, Note_on_c, 0, 80, 80
2, 32984, Note_on_c, 0, 65, 0
2, 32985, Note_on_c, 0, 71, 50
2, 32998, Note_on_c, 0, 80, 0
2, 32999, Note_on_c, 0, 71, 0
2, 33000, Note_on_c, 0, 66, 61
2, 33000, Note_on_c, 0, 83, 62
2, 33014, Note_on_c, 0, 66, 0
2, 33015, Note_on_c, 0, 83, 0
2, 33015, Note_on_c, 0, 71, 54
2, 33015, Note_on_c, 0, 81, 76
2, 33029, Note_on_c, 0, 71, 0
2, 33030, Note_on_c, 0, 65, 57
2, 33030, Note_on_c, 0, 80, 62
2, 33034, Note_on_c, 0, 81, 0
2, 33044, Note_on_c, 0, 65, 0
2, 33045, Note_on_c, 0, 71, 57
2, 33059, Note_on_c, 0, 71, 0
2, 33059, Note_on_c, 0, 80, 0
2, 33060, Note_on_c, 0, 66, 55
2, 33060, Note_on_c, 0, 81, 72
2, 33074, Note_on_c, 0, 66, 0
2, 33075, Note_on_c, 0, 71, 54
2, 33089, Note_on_c, 0, 71, 0
2, 33089, Note_on_c, 0, 81, 0
2, 33090, Note_on_c, 0, 63, 68
2, 33090, Note_on_c, 0, 78, 60
2, 33104, Note_on_c, 0, 63, 0
2, 33105, Note_on_c, 0, 71, 57
2, 33117, Note_on_c, 0, 78, 0
2, 33119, Note_on_c, 0, 71, 0
2, 33120, Note_on_c, 0, 64, 57
2, 33120, Note_on_c, 0, 79, 76
2, 33134, Note_on_c, 0, 64, 0
2, 33135, Note_on_c, 0, 67, 50
2, 33149, Note_on_c, 0, 67, 0
2, 33150, Note_on_c, 0, 63, 61
2, 33164, Note_on_c, 0, 63, 0
2, 33165, Note_on_c, 0, 67, 57
2, 33174, Control_c, 0, 64, 127
2, 33179, Note_on_c, 0, 67, 0
2, 33180, Note_on_c, 0, 64, 55
2, 33194, Note_on_c, 0, 64, 0
2, 33195, Note_on_c, 0, 67, 55
2, 33209, Note_on_c, 0, 67, 0
2, 33210, Note_on_c, 0, 61, 57
2, 33224, Note_on_c, 0, 61, 0
2, 33225, Note_on_c, 0, 67, 61
2, 33239, Note_on_c, 0, 67, 0
2, 33240, Note_on_c, 0, 62, 61
2, 33242, Note_on_c, 0, 79, 0
2, 33245, Control_c, 0, 64, 0
2, 33254, Note_on_c, 0, 62, 0
2, 33255, Note_on_c, 0, 67, 68
2, 33269, Note_on_c, 0, 67, 0
2, 33270, Note_on_c, 0, 61, 64
2, 33284, Note_on_c, 0, 61, 0
2, 33285, Note_on_c, 0, 67, 61
2, 33299, Note_on_c, 0, 67, 0
2, 33300, Note_on_c, 0, 62, 50
2, 33314, Note_on_c, 0, 62, 0
2, 33315, Note_on_c, 0, 67, 64
2, 33318, Control_c, 0, 64, 127
2, 33329, Note_on_c, 0, 67, 0
2, 33330, Note_on_c, 0, 59, 64
2, 33330, Note_on_c, 0, 89, 68
2, 33344, Note_on_c, 0, 59, 0
2, 33345, Note_on_c, 0, 67, 54
2, 33359, Note_on_c, 0, 67, 0
2, 33359, Note_on_c, 0, 89, 0
2, 33359, Control_c, 0, 64, 0
2, 33360, Note_on_c, 0, 60, 68
2, 33360, Note_on_c, 0, 88, 72
2, 33366, Note_on_c, 0, 88, 0
2, 33374, Note_on_c, 0, 60, 0
2, 33375, Note_on_c, 0, 67, 57
2, 33389, Note_on_c, 0, 67, 0
2, 33390, Note_on_c, 0, 59, 68
2, 33390, Note_on_c, 0, 89, 80
2, 33398, Note_on_c, 0, 89, 0
2, 33404, Note_on_c, 0, 59, 0
2, 33405, Note_on_c, 0, 67, 61
2, 33419, Note_on_c, 0, 67, 0
2, 33420, Note_on_c, 0, 60, 68
2, 33420, Note_on_c, 0, 88, 89
2, 33427, Note_on_c, 0, 88, 0
2, 33434, Note_on_c, 0, 60, 0
2, 33435, Note_on_c, 0, 67, 64
2, 33449, Note_on_c, 0, 67, 0
2, 33450, Note_on_c, 0, 59, 57
2, 33450, Note_on_c, 0, 89, 93
2, 33458, Note_on_c, 0, 89, 0
2, 33464, Note_on_c, 0, 59, 0
2, 33465, Note_on_c, 0, 67, 61
2, 33479, Note_on_c, 0, 67, 0
2, 33480, Note_on_c, 0, 60, 64
2, 33480, Note_on_c, 0, 88, 93
2, 33489, Note_on_c, 0, 88, 0
2, 33494, Note_on_c, 0, 60, 0
2, 33495, Note_on_c, 0, 67, 51
2, 33509, Note_on_c, 0, 67, 0
2, 33510, Note_on_c, 0, 59, 68
2, 33510, Note_on_c, 0, 87, 93
2, 33518, Note_on_c, 0, 87, 0
2, 33524, Note_on_c, 0, 59, 0
2, 33525, Note_on_c, 0, 67, 68
2, 33539, Note_on_c, 0, 67, 0
2, 33540, Note_on_c, 0, 60, 72
2, 33540, Note_on_c, 0, 88, 98
2, 33549, Note_on_c, 0, 88, 0
2, 33554, Note_on_c, 0, 60, 0
2, 33555, Note_on_c, 0, 67, 57
2, 33569, Note_on_c, 0, 67, 0
2, 33570, Note_on_c, 0, 64, 61
2, 33570, Note_on_c, 0, 84, 93
2, 33578, Note_on_c, 0, 84, 0
2, 33584, Note_on_c, 0, 64, 0
2, 33585, Note_on_c, 0, 69, 64
2, 33599, Note_on_c, 0, 69, 0
2, 33600, Note_on_c, 0, 66, 68
2, 33600, Note_on_c, 0, 81, 76
2, 33614, Note_on_c, 0, 66, 0
2, 33615, Note_on_c, 0, 69, 50
2, 33629, Note_on_c, 0, 69, 0
2, 33630, Note_on_c, 0, 67, 55
2, 33644, Note_on_c, 0, 67, 0
2, 33645, Note_on_c, 0, 69, 55
2, 33659, Note_on_c, 0, 69, 0
2, 33660, Note_on_c, 0, 66, 76
2, 33661, Control_c, 0, 64, 127
2, 33674, Note_on_c, 0, 66, 0
2, 33675, Note_on_c, 0, 69, 50
2, 33689, Note_on_c, 0, 69, 0
2, 33690, Note_on_c, 0, 67, 54
2, 33704, Note_on_c, 0, 67, 0
2, 33705, Note_on_c, 0, 69, 57
2, 33719, Note_on_c, 0, 69, 0
2, 33720, Note_on_c, 0, 66, 80
2, 33724, Control_c, 0, 64, 0
2, 33732, Note_on_c, 0, 81, 0
2, 33734, Note_on_c, 0, 66, 0
2, 33735, Note_on_c, 0, 69, 51
2, 33749, Note_on_c, 0, 69, 0
2, 33750, Note_on_c, 0, 67, 46
2, 33764, Note_on_c, 0, 67, 0
2, 33765, Note_on_c, 0, 69, 55
2, 33779, Note_on_c, 0, 69, 0
2, 33780, Note_on_c, 0, 66, 61
2, 33794, Note_on_c, 0, 66, 0
2, 33795, Note_on_c, 0, 69, 55
2, 33809, Note_on_c, 0, 69, 0
2, 33810, Note_on_c, 0, 67, 55
2, 33810, Note_on_c, 0, 86, 89
2, 33812, Control_c, 0, 64, 127
2, 33817, Note_on_c, 0, 86, 0
2, 33824, Note_on_c, 0, 67, 0
2, 33825, Note_on_c, 0, 69, 68
2, 33835, Control_c, 0, 64, 0
2, 33839, Note_on_c, 0, 69, 0
2, 33840, Note_on_c, 0, 67, 83
2, 33840, Note_on_c, 0, 76, 89
2, 33854, Note_on_c, 0, 67, 0
2, 33855, Note_on_c, 0, 71, 57
2, 33868, Note_on_c, 0, 76, 0
2, 33869, Note_on_c, 0, 71, 0
2, 33870, Note_on_c, 0, 66, 80
2, 33870, Note_on_c, 0, 75, 62
2, 33884, Note_on_c, 0, 66, 0
2, 33885, Note_on_c, 0, 71, 55
2, 33899, Note_on_c, 0, 71, 0
2, 33900, Note_on_c, 0, 75, 0
2, 33900, Note_on_c, 0, 67, 76
2, 33900, Note_on_c, 0, 76, 89
2, 33914, Note_on_c, 0, 67, 0
2, 33915, Note_on_c, 0, 71, 64
2, 33929, Note_on_c, 0, 71, 0
2, 33930, Note_on_c, 0, 66, 80
2, 33930, Note_on_c, 0, 75, 68
2, 33931, Note_on_c, 0, 76, 0
2, 33944, Note_on_c, 0, 66, 0
2, 33945, Note_on_c, 0, 71, 68
2, 33959, Note_on_c, 0, 71, 0
2, 33960, Note_on_c, 0, 67, 61
2, 33960, Note_on_c, 0, 78, 76
2, 33961, Note_on_c, 0, 75, 0
2, 33973, Note_on_c, 0, 78, 0
2, 33974, Note_on_c, 0, 67, 0
2, 33975, Note_on_c, 0, 71, 54
2, 33975, Note_on_c, 0, 76, 80
2, 33989, Note_on_c, 0, 71, 0
2, 33990, Note_on_c, 0, 66, 83
2, 33990, Note_on_c, 0, 75, 72
2, 33991, Note_on_c, 0, 76, 0
2, 34004, Note_on_c, 0, 66, 0
2, 34005, Note_on_c, 0, 71, 61
2, 34019, Note_on_c, 0, 71, 0
2, 34019, Note_on_c, 0, 75, 0
2, 34020, Note_on_c, 0, 67, 68
2, 34020, Note_on_c, 0, 76, 85
2, 34034, Note_on_c, 0, 67, 0
2, 34035, Note_on_c, 0, 71, 68
2, 34045, Note_on_c, 0, 76, 0
2, 34049, Note_on_c, 0, 71, 0
2, 34050, Note_on_c, 0, 67, 68
2, 34050, Control_c, 0, 64, 127
2, 34050, Note_on_c, 0, 76, 85
2, 34064, Note_on_c, 0, 67, 0
2, 34065, Note_on_c, 0, 71, 68
2, 34074, Control_c, 0, 64, 0
2, 34077, Note_on_c, 0, 76, 0
2, 34079, Note_on_c, 0, 71, 0
2, 34080, Note_on_c, 0, 69, 80
2, 34080, Note_on_c, 0, 78, 72
2, 34094, Note_on_c, 0, 69, 0
2, 34095, Note_on_c, 0, 74, 57
2, 34109, Note_on_c, 0, 74, 0
2, 34110, Note_on_c, 0, 68, 72
2, 34124, Note_on_c, 0, 68, 0
2, 34125, Note_on_c, 0, 74, 68
2, 34139, Note_on_c, 0, 74, 0
2, 34140, Note_on_c, 0, 69, 72
2, 34154, Note_on_c, 0, 69, 0
2, 34155, Note_on_c, 0, 74, 68
2, 34169, Note_on_c, 0, 74, 0
2, 34170, Note_on_c, 0, 68, 72
2, 34184, Note_on_c, 0, 68, 0
2, 34185, Note_on_c, 0, 74, 57
2, 34199, Note_on_c, 0, 74, 0
2, 34200, Note_on_c, 0, 69, 80
2, 34214, Note_on_c, 0, 69, 0
2, 34215, Note_on_c, 0, 74, 61
2, 34225, Control_c, 0, 64, 127
2, 34229, Note_on_c, 0, 74, 0
2, 34230, Note_on_c, 0, 68, 83
2, 34244, Note_on_c, 0, 68, 0
2, 34245, Note_on_c, 0, 74, 64
2, 34247, Note_on_c, 0, 78, 0
2, 34249, Control_c, 0, 64, 0
2, 34259, Note_on_c, 0, 74, 0
2, 34260, Note_on_c, 0, 69, 68
2, 34274, Note_on_c, 0, 69, 0
2, 34275, Note_on_c, 0, 74, 61
2, 34289, Note_on_c, 0, 74, 0
2, 34290, Note_on_c, 0, 72, 64
2, 34290, Note_on_c, 0, 81, 93
2, 34304, Note_on_c, 0, 72, 0
2, 34305, Note_on_c, 0, 74, 61
2, 34319, Note_on_c, 0, 74, 0
2, 34319, Note_on_c, 0, 81, 0
2, 34320, Note_on_c, 0, 71, 83
2, 34320, Note_on_c, 0, 86, 89
2, 34334, Note_on_c, 0, 71, 0
2, 34335, Note_on_c, 0, 74, 61
2, 34349, Note_on_c, 0, 74, 0
2, 34349, Note_on_c, 0, 86, 0
2, 34350, Note_on_c, 0, 70, 80
2, 34350, Note_on_c, 0, 85, 76
2, 34364, Note_on_c, 0, 70, 0
2, 34365, Note_on_c, 0, 74, 54
2, 34379, Note_on_c, 0, 74, 0
2, 34379, Note_on_c, 0, 85, 0
2, 34380, Note_on_c, 0, 71, 72
2, 34380, Note_on_c, 0, 86, 89
2, 34394, Note_on_c, 0, 71, 0
2, 34395, Note_on_c, 0, 74, 57
2, 34409, Note_on_c, 0, 74, 0
2, 34410, Note_on_c, 0, 68, 76
2, 34410, Note_on_c, 0, 83, 89
2, 34411, Note_on_c, 0, 86, 0
2, 34424, Note_on_c, 0, 68, 0
2, 34425, Note_on_c, 0, 74, 57
2, 34439, Note_on_c, 0, 74, 0
2, 34440, Note_on_c, 0, 83, 0
2, 34440, Note_on_c, 0, 69, 68
2, 34440, Note_on_c, 0, 86, 89
2, 34454, Note_on_c, 0, 69, 0
2, 34455, Note_on_c, 0, 74, 57
2, 34455, Note_on_c, 0, 84, 68
2, 34459, Note_on_c, 0, 86, 0
2, 34469, Note_on_c, 0, 74, 0
2, 34470, Note_on_c, 0, 68, 72
2, 34470, Note_on_c, 0, 83, 80
2, 34471, Note_on_c, 0, 84, 0
2, 34484, Note_on_c, 0, 68, 0
2, 34485, Note_on_c, 0, 74, 57
2, 34499, Note_on_c, 0, 74, 0
2, 34500, Note_on_c, 0, 69, 72
2, 34500, Note_on_c, 0, 84, 76
2, 34501, Note_on_c, 0, 83, 0
2, 34514, Note_on_c, 0, 69, 0
2, 34515, Note_on_c, 0, 74, 72
2, 34529, Note_on_c, 0, 74, 0
2, 34530, Note_on_c, 0, 84, 0
2, 34530, Note_on_c, 0, 66, 76
2, 34530, Note_on_c, 0, 81, 80
2, 34544, Note_on_c, 0, 66, 0
2, 34545, Note_on_c, 0, 74, 64
2, 34559, Note_on_c, 0, 74, 0
2, 34560, Note_on_c, 0, 67, 80
2, 34560, Note_on_c, 0, 83, 89
2, 34562, Note_on_c, 0, 81, 0
2, 34574, Note_on_c, 0, 67, 0
2, 34575, Note_on_c, 0, 71, 68
2, 34589, Note_on_c, 0, 71, 0
2, 34589, Note_on_c, 0, 83, 0
2, 34590, Note_on_c, 0, 74, 57
2, 34590, Note_on_c, 0, 82, 85
2, 34604, Note_on_c, 0, 74, 0
2, 34605, Note_on_c, 0, 73, 49
2, 34619, Note_on_c, 0, 73, 0
2, 34619, Note_on_c, 0, 82, 0
2, 34620, Note_on_c, 0, 74, 68
2, 34620, Note_on_c, 0, 83, 76
2, 34634, Note_on_c, 0, 74, 0
2, 34635, Note_on_c, 0, 73, 50
2, 34649, Note_on_c, 0, 73, 0
2, 34649, Note_on_c, 0, 83, 0
2, 34650, Note_on_c, 0, 74, 76
2, 34650, Note_on_c, 0, 80, 85
2, 34664, Note_on_c, 0, 74, 0
2, 34665, Note_on_c, 0, 73, 61
2, 34679, Note_on_c, 0, 73, 0
2, 34679, Note_on_c, 0, 80, 0
2, 34680, Note_on_c, 0, 74, 72
2, 34680, Note_on_c, 0, 83, 85
2, 34694, Note_on_c, 0, 74, 0
2, 34695, Note_on_c, 0, 73, 64
2, 34695, Note_on_c, 0, 81, 72
2, 34698, Note_on_c, 0, 83, 0
2, 34709, Note_on_c, 0, 73, 0
2, 34710, Note_on_c, 0, 74, 76
2, 34710, Note_on_c, 0, 80, 68
2, 34711, Note_on_c, 0, 81, 0
2, 34724, Note_on_c, 0, 74, 0
2, 34725, Note_on_c, 0, 73, 76
2, 34738, Note_on_c, 0, 80, 0
2, 34739, Note_on_c, 0, 73, 0
2, 34740, Note_on_c, 0, 74, 80
2, 34740, Note_on_c, 0, 81, 80
2, 34754, Note_on_c, 0, 74, 0
2, 34755, Note_on_c, 0, 73, 80
2, 34769, Note_on_c, 0, 73, 0
2, 34770, Note_on_c, 0, 74, 80
2, 34770, Note_on_c, 0, 78, 64
2, 34771, Note_on_c, 0, 81, 0
2, 34779, Control_c, 0, 64, 127
2, 34784, Note_on_c, 0, 74, 0
2, 34785, Note_on_c, 0, 78, 0
2, 34785, Note_on_c, 0, 72, 80
2, 34795, Control_c, 0, 64, 0
2, 34799, Note_on_c, 0, 72, 0
2, 34800, Note_on_c, 0, 71, 83
2, 34800, Note_on_c, 0, 79, 98
2, 34810, Note_on_c, 0, 79, 0
2, 34814, Note_on_c, 0, 71, 0
2, 34815, Note_on_c, 0, 74, 54
2, 34829, Note_on_c, 0, 74, 0
2, 34830, Note_on_c, 0, 72, 55
2, 34830, Note_on_c, 0, 83, 85
2, 34838, Note_on_c, 0, 83, 0
2, 34844, Note_on_c, 0, 72, 0
2, 34845, Note_on_c, 0, 74, 61
2, 34845, Note_on_c, 0, 81, 85
2, 34852, Note_on_c, 0, 81, 0
2, 34859, Note_on_c, 0, 74, 0
2, 34860, Note_on_c, 0, 71, 68
2, 34860, Note_on_c, 0, 79, 85
2, 34869, Note_on_c, 0, 79, 0
2, 34874, Note_on_c, 0, 71, 0
2, 34875, Note_on_c, 0, 74, 61
2, 34889, Note_on_c, 0, 74, 0
2, 34890, Note_on_c, 0, 72, 57
2, 34890, Note_on_c, 0, 83, 89
2, 34898, Note_on_c, 0, 83, 0
2, 34904, Note_on_c, 0, 72, 0
2, 34905, Note_on_c, 0, 74, 57
2, 34905, Note_on_c, 0, 81, 76
2, 34914, Note_on_c, 0, 81, 0
2, 34919, Note_on_c, 0, 74, 0
2, 34920, Note_on_c, 0, 71, 68
2, 34920, Note_on_c, 0, 79, 72
2, 34929, Note_on_c, 0, 79, 0
2, 34934, Note_on_c, 0, 71, 0
2, 34935, Note_on_c, 0, 74, 68
2, 34949, Note_on_c, 0, 74, 0
2, 34950, Note_on_c, 0, 72, 64
2, 34950, Note_on_c, 0, 83, 85
2, 34959, Note_on_c, 0, 83, 0
2, 34964, Note_on_c, 0, 72, 0
2, 34965, Note_on_c, 0, 74, 64
2, 34965, Note_on_c, 0, 81, 72
2, 34974, Note_on_c, 0, 81, 0
2, 34979, Note_on_c, 0, 74, 0
2, 34980, Note_on_c, 0, 71, 68
2, 34980, Note_on_c, 0, 79, 93
2, 34989, Note_on_c, 0, 79, 0
2, 34994, Note_on_c, 0, 71, 0
2, 34995, Note_on_c, 0, 74, 68
2, 35009, Note_on_c, 0, 74, 0
2, 35010, Note_on_c, 0, 72, 68
2, 35010, Note_on_c, 0, 83, 80
2, 35020, Note_on_c, 0, 83, 0
2, 35024, Note_on_c, 0, 72, 0
2, 35025, Note_on_c, 0, 74, 61
2, 35025, Note_on_c, 0, 81, 89
2, 35032, Note_on_c, 0, 81, 0
2, 35039, Note_on_c, 0, 74, 0
2, 35040, Note_on_c, 0, 71, 72
2, 35040, Note_on_c, 0, 79, 85
2, 35048, Note_on_c, 0, 79, 0
2, 35054, Note_on_c, 0, 71, 0
2, 35055, Note_on_c, 0, 67, 64
2, 35069, Note_on_c, 0, 67, 0
2, 35070, Note_on_c, 0, 71, 68
2, 35070, Note_on_c, 0, 83, 93
2, 35077, Note_on_c, 0, 83, 0
2, 35084, Note_on_c, 0, 71, 0
2, 35085, Note_on_c, 0, 74, 68
2, 35099, Note_on_c, 0, 74, 0
2, 35100, Note_on_c, 0, 71, 68
2, 35100, Note_on_c, 0, 86, 89
2, 35108, Note_on_c, 0, 86, 0
2, 35114, Note_on_c, 0, 71, 0
2, 35115, Note_on_c, 0, 67, 61
2, 35129, Note_on_c, 0, 67, 0
2, 35130, Note_on_c, 0, 71, 76
2, 35130, Note_on_c, 0, 83, 85
2, 35138, Note_on_c, 0, 83, 0
2, 35144, Note_on_c, 0, 71, 0
2, 35145, Note_on_c, 0, 74, 64
2, 35159, Note_on_c, 0, 74, 0
2, 35160, Note_on_c, 0, 71, 83
2, 35160, Note_on_c, 0, 79, 93
2, 35173, Note_on_c, 0, 79, 0
2, 35219, Note_on_c, 0, 71, 0
2, 35223, Note_on_c, 0, 74, 57
2, 35280, Note_on_c, 0, 82, 62
2, 35282, Note_on_c, 0, 74, 0
2, 35339, Note_on_c, 0, 82, 0
2, 35340, Note_on_c, 0, 81, 72
2, 35400, Note_on_c, 0, 80, 72
2, 35403, Note_on_c, 0, 81, 0
2, 35460, Note_on_c, 0, 80, 0
2, 35460, Note_on_c, 0, 78, 62
2, 35460, Note_on_c, 0, 75, 53
2, 35460, Note_on_c, 0, 72, 57
2, 35520, Note_on_c, 0, 78, 0
2, 35520, Note_on_c, 0, 81, 68
2, 35520, Note_on_c, 0, 74, 57
2, 35522, Note_on_c, 0, 75, 0
2, 35550, Note_on_c, 0, 79, 62
2, 35551, Note_on_c, 0, 81, 0
2, 35580, Note_on_c, 0, 78, 55
2, 35580, Note_on_c, 0, 70, 60
2, 35583, Note_on_c, 0, 72, 0
2, 35584, Note_on_c, 0, 79, 0
2, 35610, Note_on_c, 0, 81, 62
2, 35613, Note_on_c, 0, 78, 0
2, 35619, Note_on_c, 0, 70, 0
2, 35625, Note_on_c, 0, 69, 55
2, 35634, Note_on_c, 0, 69, 0
2, 35640, Note_on_c, 0, 82, 57
2, 35640, Note_on_c, 0, 67, 51
2, 35645, Note_on_c, 0, 81, 0
2, 35706, Note_on_c, 0, 82, 0
2, 35710, Note_on_c, 0, 74, 0
2, 35711, Note_on_c, 0, 67, 0
2, 36180, Note_on_c, 0, 79, 107
2, 36180, Note_on_c, 0, 67, 102
2, 36240, Note_on_c, 0, 87, 85
2, 36240, Note_on_c, 0, 75, 85
2, 36241, Note_on_c, 0, 79, 0
2, 36245, Note_on_c, 0, 67, 0
2, 36300, Note_on_c, 0, 86, 98
2, 36300, Note_on_c, 0, 74, 89
2, 36303, Note_on_c, 0, 75, 0
2, 36305, Note_on_c, 0, 87, 0
2, 36360, Note_on_c, 0, 85, 85
2, 36360, Note_on_c, 0, 73, 89
2, 36362, Note_on_c, 0, 74, 0
2, 36365, Note_on_c, 0, 86, 0
2, 36420, Note_on_c, 0, 85, 0
2, 36420, Note_on_c, 0, 83, 89
2, 36420, Note_on_c, 0, 71, 89
2, 36422, Note_on_c, 0, 73, 0
2, 36478, Note_on_c, 0, 83, 0
2, 36480, Note_on_c, 0, 86, 85
2, 36480, Note_on_c, 0, 74, 80
2, 36484, Note_on_c, 0, 71, 0
2, 36510, Note_on_c, 0, 84, 76
2, 36510, Note_on_c, 0, 72, 76
2, 36512, Note_on_c, 0, 74, 0
2, 36518, Note_on_c, 0, 86, 0
2, 36540, Note_on_c, 0, 83, 85
2, 36540, Note_on_c, 0, 71, 85
2, 36543, Note_on_c, 0, 84, 0
2, 36543, Note_on_c, 0, 72, 0
2, 36570, Note_on_c, 0, 86, 89
2, 36570, Note_on_c, 0, 74, 89
2, 36573, Note_on_c, 0, 83, 0
2, 36574, Note_on_c, 0, 71, 0
2, 36600, Note_on_c, 0, 87, 76
2, 36600, Note_on_c, 0, 75, 76
2, 36603, Note_on_c, 0, 74, 0
2, 36605, Note_on_c, 0, 86, 0
2, 36649, Note_on_c, 0, 87, 0
2, 36649, Note_on_c, 0, 75, 0
2, 36660, Note_on_c, 0, 79, 60
2, 36660, Note_on_c, 0, 72, 76
2, 36660, Note_on_c, 0, 63, 57
2, 36693, Note_on_c, 0, 72, 0
2, 36699, Note_on_c, 0, 63, 0
2, 36719, Note_on_c, 0, 79, 0
2, 36720, Note_on_c, 0, 81, 72
2, 36720, Note_on_c, 0, 62, 52
2, 36720, Note_on_c, 0, 72, 55
2, 36750, Note_on_c, 0, 79, 62
2, 36753, Note_on_c, 0, 81, 0
2, 36780, Note_on_c, 0, 79, 0
2, 36780, Note_on_c, 0, 78, 52
2, 36810, Note_on_c, 0, 79, 57
2, 36813, Note_on_c, 0, 78, 0
2, 36840, Note_on_c, 0, 79, 0
2, 36840, Note_on_c, 0, 81, 57
2, 36903, Note_on_c, 0, 62, 0
2, 36904, Note_on_c, 0, 72, 0
2, 36906, Note_on_c, 0, 81, 0
2, 37140, Note_on_c, 0, 74, 57
2, 37197, Note_on_c, 0, 74, 0
2, 37200, Note_on_c, 0, 82, 60
2, 37260, Note_on_c, 0, 81, 64
2, 37266, Note_on_c, 0, 82, 0
2, 37320, Note_on_c, 0, 80, 52
2, 37322, Note_on_c, 0, 81, 0
2, 37378, Note_on_c, 0, 80, 0
2, 37380, Note_on_c, 0, 78, 62
2, 37380, Note_on_c, 0, 75, 48
2, 37380, Note_on_c, 0, 72, 62
2, 37440, Note_on_c, 0, 75, 0
2, 37440, Note_on_c, 0, 81, 56
2, 37440, Note_on_c, 0, 74, 57
2, 37441, Note_on_c, 0, 78, 0
2, 37469, Note_on_c, 0, 81, 0
2, 37470, Note_on_c, 0, 79, 52
2, 37499, Note_on_c, 0, 79, 0
2, 37500, Note_on_c, 0, 78, 57
2, 37500, Note_on_c, 0, 70, 64
2, 37502, Note_on_c, 0, 72, 0
2, 37530, Note_on_c, 0, 78, 0
2, 37530, Note_on_c, 0, 81, 45
2, 37545, Note_on_c, 0, 69, 80
2, 37546, Note_on_c, 0, 70, 0
2, 37554, Note_on_c, 0, 69, 0
2, 37559, Note_on_c, 0, 81, 0
2, 37560, Note_on_c, 0, 82, 62
2, 37560, Note_on_c, 0, 67, 52
2, 37630, Note_on_c, 0, 82, 0
2, 37639, Note_on_c, 0, 67, 0
2, 37646, Note_on_c, 0, 74, 0
2, 38100, Note_on_c, 0, 79, 89
2, 38100, Note_on_c, 0, 67, 107
2, 38157, Note_on_c, 0, 67, 0
2, 38160, Note_on_c, 0, 87, 89
2, 38160, Note_on_c, 0, 75, 93
2, 38165, Note_on_c, 0, 79, 0
2, 38220, Note_on_c, 0, 86, 89
2, 38220, Note_on_c, 0, 74, 93
2, 38221, Note_on_c, 0, 75, 0
2, 38223, Note_on_c, 0, 87, 0
2, 38280, Note_on_c, 0, 85, 80
2, 38280, Note_on_c, 0, 73, 89
2, 38282, Note_on_c, 0, 74, 0
2, 38283, Note_on_c, 0, 86, 0
2, 38339, Note_on_c, 0, 73, 0
2, 38340, Note_on_c, 0, 85, 0
2, 38340, Note_on_c, 0, 83, 89
2, 38340, Note_on_c, 0, 71, 93
2, 38400, Note_on_c, 0, 86, 76
2, 38400, Note_on_c, 0, 74, 80
2, 38403, Note_on_c, 0, 71, 0
2, 38407, Note_on_c, 0, 83, 0
2, 38430, Note_on_c, 0, 84, 72
2, 38430, Note_on_c, 0, 72, 89
2, 38434, Note_on_c, 0, 86, 0
2, 38436, Note_on_c, 0, 74, 0
2, 38460, Note_on_c, 0, 83, 85
2, 38460, Note_on_c, 0, 71, 76
2, 38464, Note_on_c, 0, 84, 0
2, 38465, Note_on_c, 0, 72, 0
2, 38490, Note_on_c, 0, 86, 76
2, 38490, Note_on_c, 0, 74, 85
2, 38493, Note_on_c, 0, 71, 0
2, 38494, Note_on_c, 0, 83, 0
2, 38520, Note_on_c, 0, 87, 68
2, 38520, Note_on_c, 0, 75, 62
2, 38525, Note_on_c, 0, 86, 0
2, 38528, Note_on_c, 0, 74, 0
2, 38562, Note_on_c, 0, 87, 0
2, 38566, Note_on_c, 0, 75, 0
2, 38580, Note_on_c, 0, 79, 64
2, 38580, Note_on_c, 0, 63, 55
2, 38580, Note_on_c, 0, 72, 62
2, 38607, Note_on_c, 0, 72, 0
2, 38617, Note_on_c, 0, 63, 0
2, 38640, Note_on_c, 0, 79, 0
2, 38640, Note_on_c, 0, 81, 64
2, 38640, Note_on_c, 0, 62, 57
2, 38640, Note_on_c, 0, 72, 64
2, 38670, Note_on_c, 0, 79, 64
2, 38671, Note_on_c, 0, 81, 0
2, 38700, Note_on_c, 0, 79, 0
2, 38700, Note_on_c, 0, 78, 60
2, 38730, Note_on_c, 0, 79, 62
2, 38731, Note_on_c, 0, 78, 0
2, 38760, Note_on_c, 0, 81, 60
2, 38762, Note_on_c, 0, 79, 0
2, 38822, Note_on_c, 0, 81, 0
2, 38822, Note_on_c, 0, 72, 0
2, 38823, Note_on_c, 0, 62, 0
2, 39060, Note_on_c, 0, 70, 89
2, 39120, Note_on_c, 0, 82, 80
2, 39123, Note_on_c, 0, 70, 0
2, 39147, Control_c, 0, 64, 127
2, 39180, Note_on_c, 0, 72, 76
2, 39180, Note_on_c, 0, 81, 72
2, 39185, Note_on_c, 0, 82, 0
2, 39187, Control_c, 0, 64, 0
2, 39217, Control_c, 0, 64, 127
2, 39240, Note_on_c, 0, 80, 93
2, 39240, Note_on_c, 0, 73, 80
2, 39241, Note_on_c, 0, 81, 0
2, 39244, Note_on_c, 0, 72, 0
2, 39247, Control_c, 0, 64, 127
2, 39252, Control_c, 0, 64, 0
2, 39253, Control_c, 0, 64, 0
2, 39300, Note_on_c, 0, 78, 89
2, 39300, Note_on_c, 0, 74, 89
2, 39301, Note_on_c, 0, 80, 0
2, 39301, Note_on_c, 0, 73, 0
2, 39318, Control_c, 0, 64, 127
2, 39358, Note_on_c, 0, 74, 0
2, 39360, Note_on_c, 0, 78, 0
2, 39360, Note_on_c, 0, 79, 93
2, 39360, Note_on_c, 0, 75, 89
2, 39364, Control_c, 0, 64, 0
2, 39393, Control_c, 0, 64, 127
2, 39394, Control_c, 0, 64, 127
2, 39412, Control_c, 0, 64, 0
2, 39420, Note_on_c, 0, 69, 93
2, 39423, Note_on_c, 0, 75, 0
2, 39446, Control_c, 0, 64, 127
2, 39479, Control_c, 0, 64, 0
2, 39480, Note_on_c, 0, 69, 0
2, 39480, Note_on_c, 0, 70, 76
2, 39499, Control_c, 0, 64, 0
2, 39501, Note_on_c, 0, 79, 0
2, 39509, Control_c, 0, 64, 127
2, 39540, Note_on_c, 0, 70, 0
2, 39540, Note_on_c, 0, 71, 89
2, 39540, Note_on_c, 0, 79, 107
2, 39543, Control_c, 0, 64, 0
2, 39567, Control_c, 0, 64, 127
2, 39572, Control_c, 0, 64, 127
2, 39600, Note_on_c, 0, 72, 93
2, 39600, Note_on_c, 0, 87, 89
2, 39602, Note_on_c, 0, 79, 0
2, 39603, Note_on_c, 0, 71, 0
2, 39610, Control_c, 0, 64, 0
2, 39618, Control_c, 0, 64, 0
2, 39633, Control_c, 0, 64, 127
2, 39638, Control_c, 0, 64, 127
2, 39658, Note_on_c, 0, 87, 0
2, 39660, Note_on_c, 0, 74, 93
2, 39660, Note_on_c, 0, 79, 89
2, 39664, Note_on_c, 0, 72, 0
2, 39668, Control_c, 0, 64, 0
2, 39688, Control_c, 0, 64, 127
2, 39688, Control_c, 0, 64, 0
2, 39716, Note_on_c, 0, 79, 0
2, 39717, Control_c, 0, 64, 127
2, 39720, Note_on_c, 0, 75, 85
2, 39720, Note_on_c, 0, 80, 93
2, 39724, Note_on_c, 0, 74, 0
2, 39728, Control_c, 0, 64, 0
2, 39748, Control_c, 0, 64, 0
2, 39755, Control_c, 0, 64, 127
2, 39778, Note_on_c, 0, 80, 0
2, 39780, Note_on_c, 0, 68, 76
2, 39780, Note_on_c, 0, 84, 89
2, 39782, Control_c, 0, 64, 127
2, 39783, Note_on_c, 0, 75, 0
2, 39783, Control_c, 0, 64, 0
2, 39804, Control_c, 0, 64, 127
2, 39833, Control_c, 0, 64, 0
2, 39836, Note_on_c, 0, 84, 0
2, 39837, Note_on_c, 0, 68, 0
2, 39840, Note_on_c, 0, 79, 85
2, 39840, Note_on_c, 0, 70, 93
2, 39845, Control_c, 0, 64, 0
2, 39869, Control_c, 0, 64, 127
2, 39900, Note_on_c, 0, 73, 93
2, 39902, Control_c, 0, 64, 127
2, 39904, Note_on_c, 0, 70, 0
2, 39904, Control_c, 0, 64, 0
2, 39932, Control_c, 0, 64, 127
2, 39958, Note_on_c, 0, 73, 0
2, 39960, Note_on_c, 0, 74, 89
2, 39960, Note_on_c, 0, 78, 64
2, 39963, Control_c, 0, 64, 0
2, 39967, Control_c, 0, 64, 0
2, 39971, Note_on_c, 0, 79, 0
2, 39981, Control_c, 0, 64, 127
2, 40016, Note_on_c, 0, 78, 0
2, 40018, Note_on_c, 0, 74, 0
2, 40019, Control_c, 0, 64, 0
2, 40020, Note_on_c, 0, 69, 60
2, 40020, Note_on_c, 0, 74, 56
2, 40043, Control_c, 0, 64, 127
2, 40057, Control_c, 0, 64, 127
2, 40078, Note_on_c, 0, 74, 0
2, 40080, Note_on_c, 0, 72, 59
2, 40080, Note_on_c, 0, 75, 57
2, 40088, Note_on_c, 0, 69, 0
2, 40088, Control_c, 0, 64, 0
2, 40091, Control_c, 0, 64, 0
2, 40123, Control_c, 0, 64, 127
2, 40125, Control_c, 0, 64, 127
2, 40199, Note_on_c, 0, 72, 0
2, 40200, Note_on_c, 0, 75, 0
2, 40200, Note_on_c, 0, 69, 62
2, 40200, Control_c, 0, 64, 0
2, 40200, Note_on_c, 0, 74, 64
2, 40204, Control_c, 0, 64, 0
2, 40215, Control_c, 0, 64, 127
2, 40223, Control_c, 0, 64, 127
2, 40243, Note_on_c, 0, 69, 0
2, 40248, Note_on_c, 0, 74, 0
2, 40252, Control_c, 0, 64, 0
2, 40260, Note_on_c, 0, 69, 76
2, 40260, Note_on_c, 0, 74, 76
2, 40269, Control_c, 0, 64, 127
2, 40320, Note_on_c, 0, 72, 76
2, 40320, Note_on_c, 0, 77, 85
2, 40323, Note_on_c, 0, 74, 0
2, 40323, Note_on_c, 0, 69, 0
2, 40333, Control_c, 0, 64, 0
2, 40339, Control_c, 0, 64, 0
2, 40355, Control_c, 0, 64, 127
2, 40366, Control_c, 0, 64, 127
2, 40380, Note_on_c, 0, 75, 64
2, 40381, Note_on_c, 0, 77, 0
2, 40390, Control_c, 0, 64, 0
2, 40416, Control_c, 0, 64, 127
2, 40436, Control_c, 0, 64, 0
2, 40440, Note_on_c, 0, 75, 0
2, 40440, Note_on_c, 0, 74, 76
2, 40440, Note_on_c, 0, 69, 72
2, 40445, Note_on_c, 0, 72, 0
2, 40450, Control_c, 0, 64, 0
2, 40454, Control_c, 0, 64, 127
2, 40467, Control_c, 0, 64, 127
2, 40485, Note_on_c, 0, 74, 0
2, 40492, Note_on_c, 0, 69, 0
2, 40498, Control_c, 0, 64, 0
2, 40500, Note_on_c, 0, 74, 93
2, 40560, Note_on_c, 0, 82, 89
2, 40563, Note_on_c, 0, 74, 0
2, 40571, Control_c, 0, 64, 0
2, 40591, Control_c, 0, 64, 127
2, 40620, Note_on_c, 0, 63, 89
2, 40620, Note_on_c, 0, 60, 89
2, 40620, Note_on_c, 0, 81, 89
2, 40623, Note_on_c, 0, 82, 0
2, 40626, Control_c, 0, 64, 127
2, 40630, Control_c, 0, 64, 0
2, 40650, Control_c, 0, 64, 127
2, 40680, Note_on_c, 0, 80, 93
2, 40680, Note_on_c, 0, 72, 93
2, 40680, Note_on_c, 0, 75, 76
2, 40680, Control_c, 0, 64, 0
2, 40683, Note_on_c, 0, 81, 0
2, 40685, Note_on_c, 0, 63, 0
2, 40686, Note_on_c, 0, 60, 0
2, 40687, Control_c, 0, 64, 0
2, 40702, Control_c, 0, 64, 127
2, 40710, Control_c, 0, 64, 127
2, 40737, Control_c, 0, 64, 0
2, 40740, Note_on_c, 0, 78, 85
2, 40740, Note_on_c, 0, 74, 98
2, 40742, Note_on_c, 0, 80, 0
2, 40745, Note_on_c, 0, 75, 0
2, 40747, Control_c, 0, 64, 0
2, 40748, Note_on_c, 0, 72, 0
2, 40754, Control_c, 0, 64, 127
2, 40766, Control_c, 0, 64, 127
2, 40800, Note_on_c, 0, 71, 85
2, 40800, Note_on_c, 0, 81, 98
2, 40800, Control_c, 0, 64, 0
2, 40801, Control_c, 0, 64, 0
2, 40807, Note_on_c, 0, 78, 0
2, 40819, Control_c, 0, 64, 127
2, 40821, Control_c, 0, 64, 127
2, 40830, Note_on_c, 0, 79, 76
2, 40837, Note_on_c, 0, 81, 0
2, 40853, Control_c, 0, 64, 0
2, 40860, Note_on_c, 0, 72, 85
2, 40860, Control_c, 0, 64, 0
2, 40860, Note_on_c, 0, 78, 64
2, 40861, Note_on_c, 0, 71, 0
2, 40868, Note_on_c, 0, 79, 0
2, 40875, Control_c, 0, 64, 127
2, 40875, Control_c, 0, 64, 127
2, 40890, Note_on_c, 0, 81, 89
2, 40893, Note_on_c, 0, 78, 0
2, 40900, Note_on_c, 0, 74, 0
2, 40900, Control_c, 0, 64, 0
2, 40905, Note_on_c, 0, 72, 0
2, 40919, Control_c, 0, 64, 127
2, 40920, Note_on_c, 0, 82, 80
2, 40921, Control_c, 0, 64, 0
2, 40924, Note_on_c, 0, 81, 0
2, 40936, Control_c, 0, 64, 0
2, 40954, Control_c, 0, 64, 127
2, 40964, Note_on_c, 0, 82, 0
2, 40980, Note_on_c, 0, 82, 85
2, 40980, Note_on_c, 0, 76, 68
2, 40980, Note_on_c, 0, 79, 85
2, 40987, Control_c, 0, 64, 127
2, 41004, Note_on_c, 0, 82, 0
2, 41040, Note_on_c, 0, 84, 93
2, 41040, Control_c, 0, 64, 0
2, 41040, Note_on_c, 0, 74, 89
2, 41041, Control_c, 0, 64, 0
2, 41043, Note_on_c, 0, 76, 0
2, 41059, Control_c, 0, 64, 127
2, 41064, Control_c, 0, 64, 127
2, 41070, Note_on_c, 0, 82, 60
2, 41074, Note_on_c, 0, 84, 0
2, 41075, Note_on_c, 0, 79, 0
2, 41080, Note_on_c, 0, 74, 0
2, 41100, Note_on_c, 0, 81, 80
2, 41100, Note_on_c, 0, 70, 72
2, 41100, Note_on_c, 0, 74, 76
2, 41103, Note_on_c, 0, 82, 0
2, 41105, Control_c, 0, 64, 0
2, 41118, Control_c, 0, 64, 127
2, 41121, Note_on_c, 0, 74, 0
2, 41128, Note_on_c, 0, 70, 0
2, 41130, Note_on_c, 0, 84, 89
2, 41132, Control_c, 0, 64, 0
2, 41133, Note_on_c, 0, 81, 0
2, 41149, Control_c, 0, 64, 127
2, 41160, Control_c, 0, 64, 0
2, 41160, Note_on_c, 0, 67, 76
2, 41160, Note_on_c, 0, 70, 76
2, 41160, Note_on_c, 0, 86, 76
2, 41164, Note_on_c, 0, 84, 0
2, 41165, Control_c, 0, 64, 0
2, 41176, Control_c, 0, 64, 127
2, 41180, Control_c, 0, 64, 127
2, 41188, Note_on_c, 0, 67, 0
2, 41193, Note_on_c, 0, 70, 0
2, 41209, Note_on_c, 0, 86, 0
2, 41220, Control_c, 0, 64, 0
2, 41220, Note_on_c, 0, 86, 60
2, 41220, Note_on_c, 0, 66, 46
2, 41220, Note_on_c, 0, 69, 62
2, 41222, Control_c, 0, 64, 0
2, 41239, Control_c, 0, 64, 127
2, 41241, Control_c, 0, 64, 127
2, 41250, Note_on_c, 0, 69, 0
2, 41253, Note_on_c, 0, 66, 0
2, 41279, Note_on_c, 0, 86, 0
2, 41280, Note_on_c, 0, 79, 56
2, 41280, Note_on_c, 0, 67, 62
2, 41282, Control_c, 0, 64, 0
2, 41285, Control_c, 0, 64, 0
2, 41299, Control_c, 0, 64, 127
2, 41309, Control_c, 0, 64, 127
2, 41325, Note_on_c, 0, 67, 0
2, 41364, Control_c, 0, 64, 0
2, 41403, Note_on_c, 0, 79, 0
2, 41412, Control_c, 0, 64, 0
2, 41460, Note_on_c, 0, 70, 76
2, 41500, Control_c, 0, 64, 127
2, 41520, Note_on_c, 0, 82, 76
2, 41523, Note_on_c, 0, 70, 0
2, 41531, Control_c, 0, 64, 0
2, 41560, Control_c, 0, 64, 127
2, 41580, Note_on_c, 0, 81, 89
2, 41580, Note_on_c, 0, 72, 98
2, 41583, Note_on_c, 0, 82, 0
2, 41592, Control_c, 0, 64, 127
2, 41593, Control_c, 0, 64, 0
2, 41617, Control_c, 0, 64, 127
2, 41640, Note_on_c, 0, 73, 76
2, 41640, Note_on_c, 0, 80, 89
2, 41643, Note_on_c, 0, 72, 0
2, 41646, Control_c, 0, 64, 0
2, 41647, Note_on_c, 0, 81, 0
2, 41651, Control_c, 0, 64, 0
2, 41676, Control_c, 0, 64, 127
2, 41700, Note_on_c, 0, 80, 0
2, 41700, Note_on_c, 0, 74, 76
2, 41700, Note_on_c, 0, 78, 76
2, 41701, Note_on_c, 0, 73, 0
2, 41708, Control_c, 0, 64, 0
2, 41730, Control_c, 0, 64, 127
2, 41751, Control_c, 0, 64, 127
2, 41758, Note_on_c, 0, 78, 0
2, 41760, Note_on_c, 0, 74, 0
2, 41760, Note_on_c, 0, 79, 80
2, 41760, Control_c, 0, 64, 0
2, 41760, Note_on_c, 0, 75, 76
2, 41781, Control_c, 0, 64, 127
2, 41804, Control_c, 0, 64, 0
2, 41820, Note_on_c, 0, 69, 80
2, 41821, Note_on_c, 0, 75, 0
2, 41841, Control_c, 0, 64, 127
2, 41869, Control_c, 0, 64, 0
2, 41880, Note_on_c, 0, 70, 62
2, 41882, Note_on_c, 0, 79, 0
2, 41884, Note_on_c, 0, 69, 0
2, 41891, Control_c, 0, 64, 0
2, 41940, Note_on_c, 0, 79, 80
2, 41940, Note_on_c, 0, 71, 76
2, 41941, Note_on_c, 0, 70, 0
2, 41958, Control_c, 0, 64, 127
2, 41999, Note_on_c, 0, 71, 0
2, 42000, Note_on_c, 0, 72, 93
2, 42000, Note_on_c, 0, 87, 60
2, 42003, Control_c, 0, 64, 127
2, 42006, Note_on_c, 0, 79, 0
2, 42010, Control_c, 0, 64, 0
2, 42014, Control_c, 0, 64, 0
2, 42037, Control_c, 0, 64, 127
2, 42059, Note_on_c, 0, 87, 0
2, 42060, Note_on_c, 0, 74, 80
2, 42060, Note_on_c, 0, 79, 68
2, 42065, Note_on_c, 0, 72, 0
2, 42074, Control_c, 0, 64, 0
2, 42099, Control_c, 0, 64, 127
2, 42120, Note_on_c, 0, 75, 68
2, 42120, Note_on_c, 0, 80, 72
2, 42125, Note_on_c, 0, 74, 0
2, 42126, Note_on_c, 0, 79, 0
2, 42135, Control_c, 0, 64, 0
2, 42166, Control_c, 0, 64, 127
2, 42177, Note_on_c, 0, 80, 0
2, 42180, Note_on_c, 0, 84, 76
2, 42180, Note_on_c, 0, 68, 76
2, 42183, Note_on_c, 0, 75, 0
2, 42189, Control_c, 0, 64, 0
2, 42215, Control_c, 0, 64, 127
2, 42240, Note_on_c, 0, 70, 85
2, 42240, Note_on_c, 0, 79, 68
2, 42242, Note_on_c, 0, 68, 0
2, 42242, Control_c, 0, 64, 0
2, 42243, Note_on_c, 0, 84, 0
2, 42276, Control_c, 0, 64, 127
2, 42300, Note_on_c, 0, 73, 62
2, 42302, Control_c, 0, 64, 0
2, 42305, Note_on_c, 0, 70, 0
2, 42325, Control_c, 0, 64, 127
2, 42357, Note_on_c, 0, 73, 0
2, 42360, Note_on_c, 0, 74, 72
2, 42360, Note_on_c, 0, 78, 56
2, 42364, Control_c, 0, 64, 0
2, 42367, Note_on_c, 0, 79, 0
2, 42383, Control_c, 0, 64, 127
2, 42409, Note_on_c, 0, 78, 0
2, 42411, Note_on_c, 0, 74, 0
2, 42420, Note_on_c, 0, 69, 62
2, 42420, Note_on_c, 0, 74, 57
2, 42424, Control_c, 0, 64, 0
2, 42446, Control_c, 0, 64, 127
2, 42468, Control_c, 0, 64, 127
2, 42479, Note_on_c, 0, 74, 0
2, 42480, Note_on_c, 0, 75, 50
2, 42480, Note_on_c, 0, 72, 48
2, 42481, Note_on_c, 0, 69, 0
2, 42496, Control_c, 0, 64, 0
2, 42500, Control_c, 0, 64, 0
2, 42518, Control_c, 0, 64, 127
2, 42526, Control_c, 0, 64, 127
2, 42600, Note_on_c, 0, 75, 0
2, 42600, Note_on_c, 0, 74, 57
2, 42600, Note_on_c, 0, 69, 47
2, 42601, Note_on_c, 0, 72, 0
2, 42602, Control_c, 0, 64, 0
2, 42602, Control_c, 0, 64, 0
2, 42620, Control_c, 0, 64, 127
2, 42620, Control_c, 0, 64, 127
2, 42638, Note_on_c, 0, 69, 0
2, 42645, Note_on_c, 0, 74, 0
2, 42648, Control_c, 0, 64, 0
2, 42660, Note_on_c, 0, 69, 72
2, 42660, Note_on_c, 0, 74, 57
2, 42672, Control_c, 0, 64, 127
2, 42720, Note_on_c, 0, 74, 0
2, 42720, Note_on_c, 0, 77, 59
2, 42720, Note_on_c, 0, 72, 76
2, 42722, Note_on_c, 0, 69, 0
2, 42727, Control_c, 0, 64, 0
2, 42741, Control_c, 0, 64, 0
2, 42749, Control_c, 0, 64, 127
2, 42767, Control_c, 0, 64, 127
2, 42779, Note_on_c, 0, 77, 0
2, 42780, Note_on_c, 0, 75, 60
2, 42789, Control_c, 0, 64, 0
2, 42807, Control_c, 0, 64, 127
2, 42838, Note_on_c, 0, 72, 0
2, 42840, Note_on_c, 0, 74, 72
2, 42840, Note_on_c, 0, 69, 64
2, 42840, Control_c, 0, 64, 0
2, 42842, Note_on_c, 0, 75, 0
2, 42842, Control_c, 0, 64, 0
2, 42858, Control_c, 0, 64, 127
2, 42895, Note_on_c, 0, 74, 0
2, 42898, Note_on_c, 0, 69, 0
2, 42900, Note_on_c, 0, 74, 98
2, 42904, Control_c, 0, 64, 0
2, 42919, Control_c, 0, 64, 127
2, 42960, Note_on_c, 0, 74, 0
2, 42960, Note_on_c, 0, 82, 93
2, 42970, Control_c, 0, 64, 0
2, 42987, Control_c, 0, 64, 127
2, 43020, Note_on_c, 0, 63, 76
2, 43020, Note_on_c, 0, 60, 72
2, 43020, Note_on_c, 0, 81, 93
2, 43024, Note_on_c, 0, 82, 0
2, 43027, Control_c, 0, 64, 127
2, 43032, Control_c, 0, 64, 0
2, 43052, Control_c, 0, 64, 127
2, 43080, Note_on_c, 0, 80, 89
2, 43080, Note_on_c, 0, 72, 102
2, 43080, Note_on_c, 0, 75, 93
2, 43081, Note_on_c, 0, 63, 0
2, 43081, Note_on_c, 0, 60, 0
2, 43083, Note_on_c, 0, 81, 0
2, 43083, Control_c, 0, 64, 0
2, 43086, Control_c, 0, 64, 0
2, 43104, Control_c, 0, 64, 127
2, 43107, Control_c, 0, 64, 127
2, 43138, Control_c, 0, 64, 0
2, 43140, Note_on_c, 0, 80, 0
2, 43140, Note_on_c, 0, 78, 85
2, 43140, Note_on_c, 0, 74, 93
2, 43142, Note_on_c, 0, 75, 0
2, 43144, Note_on_c, 0, 72, 0
2, 43151, Control_c, 0, 64, 0
2, 43156, Control_c, 0, 64, 127
2, 43200, Note_on_c, 0, 81, 98
2, 43200, Note_on_c, 0, 71, 76
2, 43202, Note_on_c, 0, 78, 0
2, 43202, Control_c, 0, 64, 0
2, 43207, Control_c, 0, 64, 127
2, 43221, Control_c, 0, 64, 127
2, 43230, Note_on_c, 0, 79, 85
2, 43234, Note_on_c, 0, 81, 0
2, 43256, Note_on_c, 0, 71, 0
2, 43260, Note_on_c, 0, 72, 72
2, 43260, Note_on_c, 0, 78, 72
2, 43264, Note_on_c, 0, 79, 0
2, 43265, Control_c, 0, 64, 0
2, 43265, Control_c, 0, 64, 0
2, 43287, Control_c, 0, 64, 127
2, 43290, Control_c, 0, 64, 127
2, 43290, Note_on_c, 0, 81, 93
2, 43292, Note_on_c, 0, 78, 0
2, 43309, Note_on_c, 0, 74, 0
2, 43311, Note_on_c, 0, 72, 0
2, 43320, Note_on_c, 0, 82, 89
2, 43321, Note_on_c, 0, 81, 0
2, 43321, Control_c, 0, 64, 0
2, 43330, Control_c, 0, 64, 0
2, 43338, Control_c, 0, 64, 127
2, 43366, Note_on_c, 0, 82, 0
2, 43380, Note_on_c, 0, 82, 89
2, 43380, Note_on_c, 0, 76, 93
2, 43380, Note_on_c, 0, 79, 93
2, 43389, Control_c, 0, 64, 127
2, 43410, Note_on_c, 0, 82, 0
2, 43416, Note_on_c, 0, 79, 0
2, 43422, Note_on_c, 0, 76, 0
2, 43440, Control_c, 0, 64, 0
2, 43440, Note_on_c, 0, 84, 89
2, 43440, Note_on_c, 0, 74, 76
2, 43440, Note_on_c, 0, 79, 80
2, 43444, Control_c, 0, 64, 0
2, 43460, Control_c, 0, 64, 127
2, 43463, Control_c, 0, 64, 127
2, 43465, Note_on_c, 0, 79, 0
2, 43470, Note_on_c, 0, 84, 0
2, 43470, Note_on_c, 0, 82, 76
2, 43471, Note_on_c, 0, 74, 0
2, 43500, Note_on_c, 0, 81, 89
2, 43500, Note_on_c, 0, 70, 62
2, 43500, Note_on_c, 0, 74, 76
2, 43504, Note_on_c, 0, 82, 0
2, 43506, Control_c, 0, 64, 0
2, 43518, Control_c, 0, 64, 127
2, 43521, Note_on_c, 0, 74, 0
2, 43527, Note_on_c, 0, 70, 0
2, 43528, Control_c, 0, 64, 0
2, 43530, Note_on_c, 0, 84, 89
2, 43531, Note_on_c, 0, 81, 0
2, 43545, Control_c, 0, 64, 127
2, 43560, Note_on_c, 0, 70, 68
2, 43560, Note_on_c, 0, 67, 68
2, 43560, Note_on_c, 0, 86, 72
2, 43563, Control_c, 0, 64, 0
2, 43564, Note_on_c, 0, 84, 0
2, 43568, Control_c, 0, 64, 0
2, 43578, Control_c, 0, 64, 127
2, 43586, Note_on_c, 0, 67, 0
2, 43591, Control_c, 0, 64, 127
2, 43592, Note_on_c, 0, 70, 0
2, 43601, Note_on_c, 0, 86, 0
2, 43606, Control_c, 0, 64, 0
2, 43620, Note_on_c, 0, 66, 45
2, 43620, Note_on_c, 0, 69, 68
2, 43620, Note_on_c, 0, 86, 62
2, 43624, Control_c, 0, 64, 0
2, 43635, Control_c, 0, 64, 127
2, 43639, Control_c, 0, 64, 127
2, 43649, Note_on_c, 0, 69, 0
2, 43655, Note_on_c, 0, 66, 0
2, 43674, Note_on_c, 0, 86, 0
2, 43680, Note_on_c, 0, 79, 62
2, 43680, Note_on_c, 0, 67, 57
2, 43682, Control_c, 0, 64, 0
2, 43685, Control_c, 0, 64, 0
2, 43702, Control_c, 0, 64, 127
2, 43703, Control_c, 0, 64, 127
2, 43714, Note_on_c, 0, 67, 0
2, 43769, Control_c, 0, 64, 0
2, 43793, Note_on_c, 0, 79, 0
2, 43803, Control_c, 0, 64, 0
2, 43867, Note_on_c, 0, 74, 89
2, 43920, Note_on_c, 0, 86, 80
2, 43920, Note_on_c, 0, 74, 83
2, 43920, Note_on_c, 0, 79, 83
2, 43920, Note_on_c, 0, 83, 88
2, 43920, Note_on_c, 0, 62, 83
2, 43920, Note_on_c, 0, 67, 72
2, 43920, Note_on_c, 0, 71, 76
2, 43922, Control_c, 0, 64, 127
2, 43926, Note_on_c, 0, 74, 0
2, 43974, Note_on_c, 0, 71, 0
2, 43975, Note_on_c, 0, 83, 0
2, 43975, Note_on_c, 0, 79, 0
2, 43975, Note_on_c, 0, 67, 0
2, 43976, Note_on_c, 0, 86, 0
2, 43977, Note_on_c, 0, 62, 0
2, 43978, Control_c, 0, 64, 0
2, 43981, Note_on_c, 0, 74, 0
2, 44040, Note_on_c, 0, 66, 68
2, 44040, Note_on_c, 0, 78, 68
2, 44040, Note_on_c, 0, 62, 83
2, 44040, Note_on_c, 0, 72, 83
2, 44040, Note_on_c, 0, 74, 83
2, 44040, Note_on_c, 0, 69, 80
2, 44043, Control_c, 0, 64, 127
2, 44096, Note_on_c, 0, 74, 0
2, 44098, Note_on_c, 0, 72, 0
2, 44098, Note_on_c, 0, 62, 0
2, 44098, Note_on_c, 0, 78, 0
2, 44098, Control_c, 0, 64, 0
2, 44099, Note_on_c, 0, 66, 0
2, 44099, Note_on_c, 0, 69, 0
2, 44160, Note_on_c, 0, 79, 83
2, 44160, Note_on_c, 0, 62, 80
2, 44160, Note_on_c, 0, 67, 80
2, 44160, Note_on_c, 0, 74, 88
2, 44160, Note_on_c, 0, 71, 83
2, 44164, Control_c, 0, 64, 127
2, 44279, Note_on_c, 0, 71, 0
2, 44280, Note_on_c, 0, 74, 0
2, 44283, Note_on_c, 0, 79, 0
2, 44283, Note_on_c, 0, 62, 0
2, 44283, Note_on_c, 0, 67, 0
2, 44285, Control_c, 0, 64, 0
2, 44339, Control_c, 0, 64, 127
2, 44340, Note_on_c, 0, 67, 57
2, 44340, Note_on_c, 0, 79, 83
2, 44340, Note_on_c, 0, 62, 83
2, 44340, Note_on_c, 0, 74, 83
2, 44340, Note_on_c, 0, 71, 80
2, 44340, Note_on_c, 0, 83, 80
2, 44367, Note_on_c, 0, 67, 0
2, 44368, Note_on_c, 0, 74, 0
2, 44370, Note_on_c, 0, 71, 0
2, 44371, Note_on_c, 0, 79, 0
2, 44371, Note_on_c, 0, 83, 0
2, 44371, Note_on_c, 0, 62, 0
2, 44393, Control_c, 0, 64, 0
2, 44400, Note_on_c, 0, 86, 91
2, 44400, Note_on_c, 0, 81, 88
2, 44400, Note_on_c, 0, 78, 76
2, 44400, Note_on_c, 0, 69, 76
2, 44400, Note_on_c, 0, 66, 54
2, 44400, Note_on_c, 0, 74, 55
2, 44419, Control_c, 0, 64, 127
2, 44453, Note_on_c, 0, 74, 0
2, 44454, Note_on_c, 0, 69, 0
2, 44455, Note_on_c, 0, 81, 0
2, 44456, Note_on_c, 0, 66, 0
2, 44457, Note_on_c, 0, 78, 0
2, 44458, Note_on_c, 0, 86, 0
2, 44467, Control_c, 0, 64, 0
2, 44520, Note_on_c, 0, 85, 83
2, 44520, Note_on_c, 0, 76, 83
2, 44520, Note_on_c, 0, 81, 88
2, 44520, Note_on_c, 0, 79, 83
2, 44520, Note_on_c, 0, 64, 76
2, 44520, Note_on_c, 0, 73, 72
2, 44520, Note_on_c, 0, 67, 72
2, 44520, Note_on_c, 0, 69, 80
2, 44526, Control_c, 0, 64, 127
2, 44588, Note_on_c, 0, 69, 0
2, 44588, Note_on_c, 0, 67, 0
2, 44589, Note_on_c, 0, 64, 0
2, 44590, Note_on_c, 0, 79, 0
2, 44590, Note_on_c, 0, 81, 0
2, 44592, Note_on_c, 0, 76, 0
2, 44592, Note_on_c, 0, 73, 0
2, 44594, Note_on_c, 0, 85, 0
2, 44607, Control_c, 0, 64, 0
2, 44640, Note_on_c, 0, 66, 64
2, 44640, Note_on_c, 0, 86, 88
2, 44640, Note_on_c, 0, 69, 76
2, 44640, Note_on_c, 0, 78, 76
2, 44640, Note_on_c, 0, 81, 88
2, 44640, Note_on_c, 0, 74, 68
2, 44645, Control_c, 0, 64, 127
2, 44754, Note_on_c, 0, 74, 0
2, 44754, Control_c, 0, 64, 0
2, 44755, Note_on_c, 0, 81, 0
2, 44756, Note_on_c, 0, 69, 0
2, 44756, Note_on_c, 0, 78, 0
2, 44758, Note_on_c, 0, 86, 0
2, 44759, Note_on_c, 0, 66, 0
2, 44880, Note_on_c, 0, 67, 76
2, 44880, Note_on_c, 0, 79, 88
2, 44880, Note_on_c, 0, 83, 88
2, 44880, Note_on_c, 0, 71, 76
2, 44880, Note_on_c, 0, 74, 68
2, 44882, Control_c, 0, 64, 127
2, 44911, Note_on_c, 0, 74, 0
2, 44912, Note_on_c, 0, 71, 0
2, 44913, Note_on_c, 0, 83, 0
2, 44913, Note_on_c, 0, 67, 0
2, 44914, Note_on_c, 0, 79, 0
2, 44940, Note_on_c, 0, 79, 83
2, 44940, Note_on_c, 0, 83, 80
2, 44940, Note_on_c, 0, 67, 72
2, 44940, Note_on_c, 0, 71, 68
2, 44940, Note_on_c, 0, 74, 68
2, 44954, Note_on_c, 0, 74, 0
2, 44955, Note_on_c, 0, 67, 0
2, 44955, Note_on_c, 0, 71, 0
2, 44956, Note_on_c, 0, 79, 0
2, 44957, Note_on_c, 0, 83, 0
2, 44985, Note_on_c, 0, 71, 61
2, 44985, Note_on_c, 0, 79, 88
2, 44985, Note_on_c, 0, 83, 83
2, 44985, Note_on_c, 0, 67, 72
2, 44985, Note_on_c, 0, 74, 57
2, 44989, Control_c, 0, 64, 0
2, 44992, Note_on_c, 0, 67, 0
2, 44992, Note_on_c, 0, 83, 0
2, 44993, Note_on_c, 0, 71, 0
2, 44993, Note_on_c, 0, 79, 0
2, 44993, Note_on_c, 0, 74, 0
2, 45000, Note_on_c, 0, 79, 101
2, 45000, Note_on_c, 0, 83, 96
2, 45000, Note_on_c, 0, 71, 83
2, 45000, Note_on_c, 0, 74, 83
2, 45000, Note_on_c, 0, 67, 80
2, 45004, Control_c, 0, 64, 127
2, 45031, Note_on_c, 0, 83, 0
2, 45032, Note_on_c, 0, 71, 0
2, 45033, Note_on_c, 0, 67, 0
2, 45033, Note_on_c, 0, 79, 0
2, 45035, Note_on_c, 0, 74, 0
2, 45060, Note_on_c, 0, 79, 91
2, 45060, Note_on_c, 0, 83, 88
2, 45060, Note_on_c, 0, 71, 57
2, 45060, Note_on_c, 0, 67, 68
2, 45060, Note_on_c, 0, 74, 68
2, 45076, Note_on_c, 0, 79, 0
2, 45078, Note_on_c, 0, 83, 0
2, 45081, Note_on_c, 0, 67, 0
2, 45082, Note_on_c, 0, 74, 0
2, 45084, Note_on_c, 0, 71, 0
2, 45114, Control_c, 0, 64, 0
2, 45120, Note_on_c, 0, 79, 91
2, 45120, Note_on_c, 0, 86, 88
2, 45120, Note_on_c, 0, 67, 68
2, 45120, Note_on_c, 0, 74, 76
2, 45127, Control_c, 0, 64, 127
2, 45150, Note_on_c, 0, 79, 0
2, 45151, Note_on_c, 0, 74, 0
2, 45152, Note_on_c, 0, 86, 0
2, 45154, Note_on_c, 0, 67, 0
2, 45177, Control_c, 0, 64, 0
2, 45180, Note_on_c, 0, 69, 53
2, 45180, Note_on_c, 0, 72, 68
2, 45180, Note_on_c, 0, 81, 83
2, 45180, Note_on_c, 0, 84, 83
2, 45189, Control_c, 0, 64, 127
2, 45204, Note_on_c, 0, 81, 0
2, 45205, Note_on_c, 0, 84, 0
2, 45210, Note_on_c, 0, 72, 0
2, 45210, Note_on_c, 0, 69, 0
2, 45236, Control_c, 0, 64, 0
2, 45240, Note_on_c, 0, 83, 80
2, 45240, Note_on_c, 0, 67, 76
2, 45240, Note_on_c, 0, 79, 83
2, 45240, Note_on_c, 0, 71, 72
2, 45247, Control_c, 0, 64, 127
2, 45251, Note_on_c, 0, 71, 0
2, 45255, Note_on_c, 0, 79, 0
2, 45255, Note_on_c, 0, 83, 0
2, 45256, Note_on_c, 0, 67, 0
2, 45298, Control_c, 0, 64, 0
2, 45300, Note_on_c, 0, 64, 76
2, 45300, Note_on_c, 0, 76, 80
2, 45300, Note_on_c, 0, 79, 72
2, 45300, Note_on_c, 0, 71, 83
2, 45300, Note_on_c, 0, 67, 83
2, 45313, Control_c, 0, 64, 127
2, 45321, Note_on_c, 0, 71, 0
2, 45321, Note_on_c, 0, 64, 0
2, 45322, Note_on_c, 0, 76, 0
2, 45323, Note_on_c, 0, 79, 0
2, 45324, Note_on_c, 0, 67, 0
2, 45353, Control_c, 0, 64, 0
2, 45360, Note_on_c, 0, 64, 72
2, 45360, Note_on_c, 0, 81, 83
2, 45360, Note_on_c, 0, 67, 80
2, 45360, Note_on_c, 0, 72, 88
2, 45360, Note_on_c, 0, 76, 91
2, 45360, Note_on_c, 0, 69, 83
2, 45370, Control_c, 0, 64, 127
2, 45422, Note_on_c, 0, 69, 0
2, 45422, Note_on_c, 0, 76, 0
2, 45422, Control_c, 0, 64, 0
2, 45423, Note_on_c, 0, 67, 0
2, 45424, Note_on_c, 0, 72, 0
2, 45425, Note_on_c, 0, 81, 0
2, 45428, Note_on_c, 0, 64, 0
2, 45480, Note_on_c, 0, 78, 76
2, 45480, Note_on_c, 0, 81, 88
2, 45480, Note_on_c, 0, 86, 91
2, 45480, Note_on_c, 0, 66, 72
2, 45480, Note_on_c, 0, 74, 83
2, 45480, Note_on_c, 0, 62, 83
2, 45480, Note_on_c, 0, 69, 83
2, 45485, Control_c, 0, 64, 127
2, 45536, Note_on_c, 0, 86, 0
2, 45537, Note_on_c, 0, 81, 0
2, 45537, Note_on_c, 0, 66, 0
2, 45537, Note_on_c, 0, 69, 0
2, 45538, Note_on_c, 0, 78, 0
2, 45539, Note_on_c, 0, 62, 0
2, 45541, Note_on_c, 0, 74, 0
2, 45553, Control_c, 0, 64, 0
2, 45601, Note_on_c, 0, 59, 83
2, 45601, Note_on_c, 0, 79, 88
2, 45602, Note_on_c, 0, 62, 80
2, 45602, Note_on_c, 0, 74, 88
2, 45602, Note_on_c, 0, 71, 83
2, 45603, Note_on_c, 0, 67, 83
2, 45603, Control_c, 0, 64, 127
2, 45718, Control_c, 0, 64, 0
2, 45719, Note_on_c, 0, 67, 0
2, 45719, Note_on_c, 0, 74, 0
2, 45719, Note_on_c, 0, 79, 0
2, 45719, Note_on_c, 0, 71, 0
2, 45720, Note_on_c, 0, 62, 0
2, 45721, Note_on_c, 0, 59, 0
2, 45735, Note_on_c, 0, 74, 68
2, 45749, Note_on_c, 0, 74, 0
2, 45750, Note_on_c, 0, 76, 72
2, 45764, Note_on_c, 0, 76, 0
2, 45765, Note_on_c, 0, 78, 57
2, 45779, Note_on_c, 0, 78, 0
2, 45780, Note_on_c, 0, 79, 72
2, 45794, Note_on_c, 0, 79, 0
2, 45795, Note_on_c, 0, 81, 64
2, 45809, Note_on_c, 0, 81, 0
2, 45810, Note_on_c, 0, 83, 68
2, 45824, Note_on_c, 0, 83, 0
2, 45825, Note_on_c, 0, 84, 72
2, 45839, Note_on_c, 0, 84, 0
2, 45840, Note_on_c, 0, 85, 76
2, 45840, Note_on_c, 0, 71, 80
2, 45840, Note_on_c, 0, 67, 76
2, 45854, Note_on_c, 0, 85, 0
2, 45854, Control_c, 0, 64, 127
2, 45855, Note_on_c, 0, 86, 72
2, 45869, Note_on_c, 0, 86, 0
2, 45870, Note_on_c, 0, 88, 76
2, 45884, Note_on_c, 0, 88, 0
2, 45885, Note_on_c, 0, 86, 72
2, 45899, Note_on_c, 0, 86, 0
2, 45900, Note_on_c, 0, 84, 68
2, 45914, Note_on_c, 0, 84, 0
2, 45915, Note_on_c, 0, 83, 68
2, 45929, Note_on_c, 0, 83, 0
2, 45930, Note_on_c, 0, 81, 72
2, 45939, Note_on_c, 0, 67, 0
2, 45944, Note_on_c, 0, 81, 0
2, 45944, Note_on_c, 0, 71, 0
2, 45945, Note_on_c, 0, 79, 68
2, 45959, Note_on_c, 0, 79, 0
2, 45960, Note_on_c, 0, 86, 68
2, 45960, Note_on_c, 0, 66, 62
2, 45960, Note_on_c, 0, 69, 76
2, 45969, Control_c, 0, 64, 0
2, 45974, Note_on_c, 0, 86, 0
2, 45975, Note_on_c, 0, 84, 64
2, 45978, Control_c, 0, 64, 127
2, 45989, Note_on_c, 0, 84, 0
2, 45990, Note_on_c, 0, 66, 0
2, 45990, Note_on_c, 0, 83, 68
2, 45992, Note_on_c, 0, 69, 0
2, 46004, Note_on_c, 0, 83, 0
2, 46005, Note_on_c, 0, 84, 68
2, 46019, Note_on_c, 0, 84, 0
2, 46020, Note_on_c, 0, 83, 72
2, 46020, Note_on_c, 0, 72, 80
2, 46020, Note_on_c, 0, 69, 76
2, 46027, Control_c, 0, 64, 0
2, 46034, Note_on_c, 0, 83, 0
2, 46035, Note_on_c, 0, 81, 64
2, 46038, Control_c, 0, 64, 127
2, 46049, Note_on_c, 0, 81, 0
2, 46050, Note_on_c, 0, 79, 64
2, 46060, Note_on_c, 0, 72, 0
2, 46061, Note_on_c, 0, 69, 0
2, 46064, Note_on_c, 0, 79, 0
2, 46065, Note_on_c, 0, 78, 68
2, 46079, Note_on_c, 0, 78, 0
2, 46080, Note_on_c, 0, 79, 68
2, 46080, Note_on_c, 0, 71, 72
2, 46080, Note_on_c, 0, 67, 76
2, 46093, Control_c, 0, 64, 0
2, 46094, Note_on_c, 0, 79, 0
2, 46095, Note_on_c, 0, 81, 64
2, 46108, Control_c, 0, 64, 127
2, 46109, Note_on_c, 0, 81, 0
2, 46110, Note_on_c, 0, 79, 72
2, 46124, Note_on_c, 0, 79, 0
2, 46125, Note_on_c, 0, 78, 61
2, 46139, Note_on_c, 0, 78, 0
2, 46140, Note_on_c, 0, 79, 76
2, 46154, Note_on_c, 0, 79, 0
2, 46155, Note_on_c, 0, 74, 72
2, 46169, Note_on_c, 0, 74, 0
2, 46170, Note_on_c, 0, 76, 72
2, 46184, Note_on_c, 0, 76, 0
2, 46185, Note_on_c, 0, 78, 68
2, 46199, Note_on_c, 0, 78, 0
2, 46199, Note_on_c, 0, 67, 0
2, 46200, Note_on_c, 0, 79, 72
2, 46201, Note_on_c, 0, 71, 0
2, 46207, Control_c, 0, 64, 0
2, 46214, Note_on_c, 0, 79, 0
2, 46215, Note_on_c, 0, 81, 76
2, 46229, Note_on_c, 0, 81, 0
2, 46230, Note_on_c, 0, 83, 72
2, 46244, Note_on_c, 0, 83, 0
2, 46245, Note_on_c, 0, 84, 80
2, 46259, Note_on_c, 0, 84, 0
2, 46260, Note_on_c, 0, 86, 80
2, 46274, Note_on_c, 0, 86, 0
2, 46275, Note_on_c, 0, 83, 68
2, 46289, Note_on_c, 0, 83, 0
2, 46290, Note_on_c, 0, 86, 72
2, 46304, Note_on_c, 0, 86, 0
2, 46305, Note_on_c, 0, 83, 55
2, 46319, Note_on_c, 0, 83, 0
2, 46320, Note_on_c, 0, 80, 68
2, 46320, Note_on_c, 0, 66, 89
2, 46320, Note_on_c, 0, 69, 85
2, 46334, Note_on_c, 0, 80, 0
2, 46335, Note_on_c, 0, 81, 64
2, 46335, Control_c, 0, 64, 127
2, 46349, Note_on_c, 0, 81, 0
2, 46350, Note_on_c, 0, 83, 72
2, 46364, Note_on_c, 0, 83, 0
2, 46365, Note_on_c, 0, 81, 61
2, 46379, Note_on_c, 0, 81, 0
2, 46380, Note_on_c, 0, 79, 72
2, 46394, Note_on_c, 0, 79, 0
2, 46395, Note_on_c, 0, 78, 64
2, 46409, Note_on_c, 0, 78, 0
2, 46410, Note_on_c, 0, 76, 72
2, 46424, Note_on_c, 0, 76, 0
2, 46425, Note_on_c, 0, 74, 61
2, 46439, Note_on_c, 0, 74, 0
2, 46440, Note_on_c, 0, 81, 80
2, 46440, Note_on_c, 0, 64, 85
2, 46442, Note_on_c, 0, 66, 0
2, 46444, Control_c, 0, 64, 0
2, 46454, Note_on_c, 0, 81, 0
2, 46455, Note_on_c, 0, 79, 50
2, 46461, Control_c, 0, 64, 127
2, 46469, Note_on_c, 0, 79, 0
2, 46470, Note_on_c, 0, 78, 55
2, 46484, Note_on_c, 0, 78, 0
2, 46485, Note_on_c, 0, 79, 72
2, 46499, Note_on_c, 0, 79, 0
2, 46499, Note_on_c, 0, 64, 0
2, 46500, Note_on_c, 0, 78, 72
2, 46500, Note_on_c, 0, 67, 80
2, 46504, Control_c, 0, 64, 0
2, 46514, Note_on_c, 0, 78, 0
2, 46515, Note_on_c, 0, 76, 68
2, 46515, Control_c, 0, 64, 127
2, 46529, Note_on_c, 0, 76, 0
2, 46530, Note_on_c, 0, 74, 57
2, 46531, Note_on_c, 0, 69, 0
2, 46533, Note_on_c, 0, 67, 0
2, 46544, Note_on_c, 0, 74, 0
2, 46545, Note_on_c, 0, 73, 61
2, 46559, Note_on_c, 0, 73, 0
2, 46560, Note_on_c, 0, 74, 54
2, 46560, Note_on_c, 0, 66, 72
2, 46560, Note_on_c, 0, 69, 80
2, 46566, Control_c, 0, 64, 0
2, 46574, Note_on_c, 0, 74, 0
2, 46575, Note_on_c, 0, 76, 61
2, 46586, Control_c, 0, 64, 127
2, 46589, Note_on_c, 0, 76, 0
2, 46590, Note_on_c, 0, 74, 57
2, 46604, Note_on_c, 0, 74, 0
2, 46605, Note_on_c, 0, 73, 51
2, 46619, Note_on_c, 0, 73, 0
2, 46620, Note_on_c, 0, 74, 72
2, 46634, Note_on_c, 0, 74, 0
2, 46635, Note_on_c, 0, 69, 68
2, 46649, Note_on_c, 0, 69, 0
2, 46650, Note_on_c, 0, 71, 72
2, 46664, Note_on_c, 0, 71, 0
2, 46665, Note_on_c, 0, 73, 61
2, 46679, Note_on_c, 0, 73, 0
2, 46680, Note_on_c, 0, 69, 0
2, 46680, Note_on_c, 0, 74, 80
2, 46681, Note_on_c, 0, 66, 0
2, 46683, Control_c, 0, 64, 0
2, 46694, Note_on_c, 0, 74, 0
2, 46695, Note_on_c, 0, 76, 76
2, 46709, Note_on_c, 0, 76, 0
2, 46710, Note_on_c, 0, 78, 68
2, 46724, Note_on_c, 0, 78, 0
2, 46725, Note_on_c, 0, 79, 80
2, 46739, Note_on_c, 0, 79, 0
2, 46740, Note_on_c, 0, 81, 76
2, 46754, Note_on_c, 0, 81, 0
2, 46755, Note_on_c, 0, 83, 83
2, 46769, Note_on_c, 0, 83, 0
2, 46770, Note_on_c, 0, 85, 91
2, 46784, Note_on_c, 0, 85, 0
2, 46785, Note_on_c, 0, 86, 80
2, 46799, Note_on_c, 0, 86, 0
2, 46800, Note_on_c, 0, 84, 76
2, 46800, Note_on_c, 0, 67, 93
2, 46800, Note_on_c, 0, 62, 93
2, 46800, Note_on_c, 0, 65, 93
2, 46812, Control_c, 0, 64, 127
2, 46814, Note_on_c, 0, 84, 0
2, 46815, Note_on_c, 0, 83, 72
2, 46829, Note_on_c, 0, 83, 0
2, 46830, Note_on_c, 0, 86, 72
2, 46844, Note_on_c, 0, 86, 0
2, 46845, Note_on_c, 0, 84, 68
2, 46859, Note_on_c, 0, 84, 0
2, 46860, Note_on_c, 0, 88, 80
2, 46874, Note_on_c, 0, 88, 0
2, 46875, Note_on_c, 0, 86, 83
2, 46889, Note_on_c, 0, 86, 0
2, 46890, Note_on_c, 0, 89, 83
2, 46904, Note_on_c, 0, 89, 0
2, 46905, Note_on_c, 0, 88, 76
2, 46919, Note_on_c, 0, 88, 0
2, 46920, Note_on_c, 0, 86, 68
2, 46934, Note_on_c, 0, 86, 0
2, 46935, Note_on_c, 0, 84, 72
2, 46949, Note_on_c, 0, 84, 0
2, 46950, Note_on_c, 0, 83, 61
2, 46964, Note_on_c, 0, 83, 0
2, 46965, Note_on_c, 0, 81, 80
2, 46979, Note_on_c, 0, 81, 0
2, 46980, Note_on_c, 0, 79, 68
2, 46994, Note_on_c, 0, 79, 0
2, 46995, Note_on_c, 0, 77, 72
2, 47009, Note_on_c, 0, 77, 0
2, 47010, Note_on_c, 0, 76, 72
2, 47011, Note_on_c, 0, 62, 0
2, 47012, Note_on_c, 0, 65, 0
2, 47012, Note_on_c, 0, 67, 0
2, 47024, Note_on_c, 0, 76, 0
2, 47025, Note_on_c, 0, 77, 72
2, 47039, Note_on_c, 0, 77, 0
2, 47040, Note_on_c, 0, 75, 68
2, 47040, Note_on_c, 0, 67, 76
2, 47040, Note_on_c, 0, 64, 72
2, 47040, Note_on_c, 0, 60, 76
2, 47047, Control_c, 0, 64, 0
2, 47054, Note_on_c, 0, 75, 0
2, 47055, Note_on_c, 0, 76, 68
2, 47066, Control_c, 0, 64, 127
2, 47069, Note_on_c, 0, 76, 0
2, 47070, Note_on_c, 0, 78, 64
2, 47084, Note_on_c, 0, 78, 0
2, 47085, Note_on_c, 0, 80, 76
2, 47099, Note_on_c, 0, 80, 0
2, 47100, Note_on_c, 0, 81, 72
2, 47114, Note_on_c, 0, 81, 0
2, 47115, Note_on_c, 0, 83, 80
2, 47129, Note_on_c, 0, 83, 0
2, 47130, Note_on_c, 0, 84, 72
2, 47144, Note_on_c, 0, 84, 0
2, 47145, Note_on_c, 0, 86, 72
2, 47159, Note_on_c, 0, 86, 0
2, 47160, Note_on_c, 0, 87, 61
2, 47166, Control_c, 0, 64, 0
2, 47169, Note_on_c, 0, 60, 0
2, 47170, Note_on_c, 0, 64, 0
2, 47174, Note_on_c, 0, 87, 0
2, 47175, Note_on_c, 0, 67, 0
2, 47175, Note_on_c, 0, 88, 55
2, 47189, Note_on_c, 0, 88, 0
2, 47190, Note_on_c, 0, 86, 64
2, 47204, Note_on_c, 0, 86, 0
2, 47205, Note_on_c, 0, 84, 72
2, 47219, Note_on_c, 0, 84, 0
2, 47220, Note_on_c, 0, 83, 72
2, 47234, Note_on_c, 0, 83, 0
2, 47235, Note_on_c, 0, 81, 61
2, 47249, Note_on_c, 0, 81, 0
2, 47250, Note_on_c, 0, 83, 68
2, 47264, Note_on_c, 0, 83, 0
2, 47265, Note_on_c, 0, 84, 80
2, 47279, Note_on_c, 0, 84, 0
2, 47280, Note_on_c, 0, 85, 83
2, 47280, Note_on_c, 0, 67, 72
2, 47293, Control_c, 0, 64, 127
2, 47294, Note_on_c, 0, 85, 0
2, 47295, Note_on_c, 0, 86, 76
2, 47309, Note_on_c, 0, 86, 0
2, 47310, Note_on_c, 0, 88, 72
2, 47324, Note_on_c, 0, 88, 0
2, 47325, Note_on_c, 0, 86, 80
2, 47339, Note_on_c, 0, 86, 0
2, 47340, Note_on_c, 0, 84, 64
2, 47354, Note_on_c, 0, 84, 0
2, 47355, Note_on_c, 0, 83, 72
2, 47369, Note_on_c, 0, 83, 0
2, 47370, Note_on_c, 0, 81, 68
2, 47384, Note_on_c, 0, 81, 0
2, 47385, Note_on_c, 0, 79, 80
2, 47399, Note_on_c, 0, 79, 0
2, 47399, Note_on_c, 0, 67, 0
2, 47400, Note_on_c, 0, 86, 68
2, 47400, Note_on_c, 0, 66, 80
2, 47403, Control_c, 0, 64, 0
2, 47414, Note_on_c, 0, 86, 0
2, 47415, Note_on_c, 0, 84, 72
2, 47426, Control_c, 0, 64, 127
2, 47429, Note_on_c, 0, 84, 0
2, 47430, Note_on_c, 0, 83, 80
2, 47444, Note_on_c, 0, 83, 0
2, 47445, Note_on_c, 0, 84, 72
2, 47459, Note_on_c, 0, 84, 0
2, 47460, Note_on_c, 0, 83, 72
2, 47460, Note_on_c, 0, 69, 85
2, 47463, Note_on_c, 0, 66, 0
2, 47470, Control_c, 0, 64, 0
2, 47474, Note_on_c, 0, 83, 0
2, 47475, Note_on_c, 0, 81, 57
2, 47489, Note_on_c, 0, 81, 0
2, 47490, Note_on_c, 0, 79, 72
2, 47494, Control_c, 0, 64, 127
2, 47504, Note_on_c, 0, 79, 0
2, 47505, Note_on_c, 0, 78, 55
2, 47519, Note_on_c, 0, 78, 0
2, 47520, Note_on_c, 0, 79, 76
2, 47520, Note_on_c, 0, 67, 72
2, 47523, Note_on_c, 0, 69, 0
2, 47533, Control_c, 0, 64, 0
2, 47534, Note_on_c, 0, 79, 0
2, 47535, Note_on_c, 0, 81, 72
2, 47542, Control_c, 0, 64, 127
2, 47549, Note_on_c, 0, 81, 0
2, 47550, Note_on_c, 0, 83, 72
2, 47564, Note_on_c, 0, 83, 0
2, 47565, Note_on_c, 0, 84, 64
2, 47579, Note_on_c, 0, 84, 0
2, 47580, Note_on_c, 0, 86, 80
2, 47594, Note_on_c, 0, 86, 0
2, 47595, Note_on_c, 0, 83, 68
2, 47609, Note_on_c, 0, 83, 0
2, 47610, Note_on_c, 0, 86, 72
2, 47624, Note_on_c, 0, 86, 0
2, 47625, Note_on_c, 0, 83, 68
2, 47639, Note_on_c, 0, 83, 0
2, 47640, Note_on_c, 0, 79, 83
2, 47645, Note_on_c, 0, 67, 0
2, 47645, Control_c, 0, 64, 0
2, 47699, Note_on_c, 0, 79, 0
2, 47700, Note_on_c, 0, 71, 101
2, 47759, Note_on_c, 0, 71, 0
2, 47760, Note_on_c, 0, 79, 89
2, 47760, Note_on_c, 0, 83, 93
2, 47760, Note_on_c, 0, 76, 89
2, 47760, Note_on_c, 0, 64, 85
2, 47760, Note_on_c, 0, 67, 80
2, 47760, Note_on_c, 0, 71, 76
2, 47763, Control_c, 0, 64, 127
2, 47807, Note_on_c, 0, 71, 0
2, 47807, Note_on_c, 0, 67, 0
2, 47808, Note_on_c, 0, 83, 0
2, 47810, Note_on_c, 0, 79, 0
2, 47811, Note_on_c, 0, 64, 0
2, 47813, Note_on_c, 0, 76, 0
2, 47826, Control_c, 0, 64, 0
2, 47880, Note_on_c, 0, 71, 102
2, 47880, Note_on_c, 0, 75, 107
2, 47880, Note_on_c, 0, 63, 89
2, 47880, Note_on_c, 0, 66, 76
2, 47880, Note_on_c, 0, 69, 93
2, 47889, Control_c, 0, 64, 127
2, 47937, Note_on_c, 0, 66, 0
2, 47937, Note_on_c, 0, 75, 0
2, 47938, Note_on_c, 0, 71, 0
2, 47938, Note_on_c, 0, 63, 0
2, 47939, Note_on_c, 0, 69, 0
2, 47946, Control_c, 0, 64, 0
2, 47995, Control_c, 0, 64, 127
2, 48000, Note_on_c, 0, 67, 85
2, 48000, Note_on_c, 0, 76, 93
2, 48000, Note_on_c, 0, 71, 98
2, 48000, Note_on_c, 0, 64, 93
2, 48014, Note_on_c, 0, 71, 0
2, 48014, Note_on_c, 0, 76, 0
2, 48017, Note_on_c, 0, 67, 0
2, 48017, Note_on_c, 0, 64, 0
2, 48058, Control_c, 0, 64, 0
2, 48060, Note_on_c, 0, 76, 102
2, 48060, Note_on_c, 0, 84, 107
2, 48060, Note_on_c, 0, 64, 55
2, 48060, Note_on_c, 0, 79, 98
2, 48060, Note_on_c, 0, 72, 68
2, 48060, Note_on_c, 0, 67, 85
2, 48072, Control_c, 0, 64, 127
2, 48090, Note_on_c, 0, 72, 0
2, 48090, Note_on_c, 0, 76, 0
2, 48092, Note_on_c, 0, 64, 0
2, 48092, Note_on_c, 0, 67, 0
2, 48093, Note_on_c, 0, 79, 0
2, 48094, Note_on_c, 0, 84, 0
2, 48109, Control_c, 0, 64, 0
2, 48120, Note_on_c, 0, 67, 85
2, 48120, Note_on_c, 0, 79, 98
2, 48120, Note_on_c, 0, 77, 102
2, 48120, Note_on_c, 0, 65, 93
2, 48120, Note_on_c, 0, 83, 98
2, 48120, Note_on_c, 0, 71, 98
2, 48121, Control_c, 0, 64, 127
2, 48134, Note_on_c, 0, 65, 0
2, 48135, Note_on_c, 0, 83, 0
2, 48135, Note_on_c, 0, 67, 0
2, 48136, Note_on_c, 0, 79, 0
2, 48136, Note_on_c, 0, 77, 0
2, 48138, Note_on_c, 0, 71, 0
2, 48175, Control_c, 0, 64, 0
2, 48180, Note_on_c, 0, 86, 107
2, 48180, Note_on_c, 0, 79, 98
2, 48180, Note_on_c, 0, 89, 98
2, 48180, Note_on_c, 0, 67, 72
2, 48180, Note_on_c, 0, 74, 89
2, 48180, Note_on_c, 0, 77, 80
2, 48188, Control_c, 0, 64, 127
2, 48198, Note_on_c, 0, 77, 0
2, 48201, Note_on_c, 0, 67, 0
2, 48203, Note_on_c, 0, 74, 0
2, 48204, Note_on_c, 0, 89, 0
2, 48204, Note_on_c, 0, 79, 0
2, 48206, Note_on_c, 0, 86, 0
2, 48236, Control_c, 0, 64, 0
2, 48240, Note_on_c, 0, 72, 80
2, 48240, Note_on_c, 0, 67, 98
2, 48240, Note_on_c, 0, 88, 89
2, 48240, Note_on_c, 0, 76, 93
2, 48240, Note_on_c, 0, 84, 89
2, 48240, Note_on_c, 0, 79, 93
2, 48248, Control_c, 0, 64, 127
2, 48250, Note_on_c, 0, 76, 0
2, 48252, Note_on_c, 0, 72, 0
2, 48253, Note_on_c, 0, 84, 0
2, 48253, Note_on_c, 0, 67, 0
2, 48253, Note_on_c, 0, 88, 0
2, 48255, Note_on_c, 0, 79, 0
2, 48300, Note_on_c, 0, 64, 93
2, 48300, Note_on_c, 0, 83, 98
2, 48300, Note_on_c, 0, 76, 89
2, 48300, Note_on_c, 0, 71, 98
2, 48300, Note_on_c, 0, 74, 98
2, 48301, Control_c, 0, 64, 0
2, 48314, Control_c, 0, 64, 127
2, 48324, Note_on_c, 0, 74, 0
2, 48326, Note_on_c, 0, 71, 0
2, 48327, Note_on_c, 0, 83, 0
2, 48328, Note_on_c, 0, 76, 0
2, 48332, Note_on_c, 0, 64, 0
2, 48360, Note_on_c, 0, 64, 89
2, 48360, Note_on_c, 0, 72, 89
2, 48360, Note_on_c, 0, 76, 98
2, 48360, Note_on_c, 0, 81, 98
2, 48360, Note_on_c, 0, 84, 89
2, 48361, Control_c, 0, 64, 0
2, 48373, Control_c, 0, 64, 127
2, 48389, Note_on_c, 0, 81, 0
2, 48390, Note_on_c, 0, 64, 0
2, 48392, Note_on_c, 0, 84, 0
2, 48394, Note_on_c, 0, 72, 0
2, 48397, Note_on_c, 0, 76, 0
2, 48420, Note_on_c, 0, 81, 89
2, 48420, Note_on_c, 0, 72, 98
2, 48420, Note_on_c, 0, 76, 93
2, 48420, Note_on_c, 0, 64, 89
2, 48420, Note_on_c, 0, 69, 85
2, 48422, Control_c, 0, 64, 0
2, 48433, Control_c, 0, 64, 127
2, 48443, Note_on_c, 0, 69, 0
2, 48444, Note_on_c, 0, 64, 0
2, 48445, Note_on_c, 0, 76, 0
2, 48446, Note_on_c, 0, 81, 0
2, 48453, Note_on_c, 0, 72, 0
2, 48480, Note_on_c, 0, 67, 72
2, 48480, Note_on_c, 0, 62, 85
2, 48480, Note_on_c, 0, 71, 98
2, 48480, Note_on_c, 0, 79, 93
2, 48480, Note_on_c, 0, 74, 93
2, 48485, Control_c, 0, 64, 0
2, 48502, Control_c, 0, 64, 127
2, 48587, Note_on_c, 0, 71, 0
2, 48590, Note_on_c, 0, 74, 0
2, 48591, Note_on_c, 0, 79, 0
2, 48598, Note_on_c, 0, 67, 0
2, 48600, Note_on_c, 0, 66, 72
2, 48600, Note_on_c, 0, 74, 76
2, 48600, Note_on_c, 0, 69, 68
2, 48600, Note_on_c, 0, 78, 68
2, 48602, Control_c, 0, 64, 0
2, 48614, Control_c, 0, 64, 127
2, 48637, Note_on_c, 0, 78, 0
2, 48637, Note_on_c, 0, 69, 0
2, 48638, Note_on_c, 0, 74, 0
2, 48639, Note_on_c, 0, 62, 0
2, 48641, Note_on_c, 0, 66, 0
2, 48658, Control_c, 0, 64, 0
2, 48660, Note_on_c, 0, 69, 89
2, 48660, Note_on_c, 0, 66, 85
2, 48660, Note_on_c, 0, 74, 93
2, 48671, Control_c, 0, 64, 127
2, 48691, Note_on_c, 0, 69, 0
2, 48693, Note_on_c, 0, 66, 0
2, 48695, Note_on_c, 0, 74, 0
2, 48714, Control_c, 0, 64, 0
2, 48720, Note_on_c, 0, 64, 89
2, 48720, Note_on_c, 0, 76, 98
2, 48720, Note_on_c, 0, 71, 98
2, 48720, Note_on_c, 0, 67, 85
2, 48726, Control_c, 0, 64, 127
2, 48774, Note_on_c, 0, 71, 0
2, 48775, Note_on_c, 0, 64, 0
2, 48775, Note_on_c, 0, 76, 0
2, 48775, Note_on_c, 0, 67, 0
2, 48779, Control_c, 0, 64, 0
2, 48840, Note_on_c, 0, 79, 102
2, 48840, Note_on_c, 0, 83, 98
2, 48840, Note_on_c, 0, 76, 98
2, 48840, Note_on_c, 0, 88, 98
2, 48840, Note_on_c, 0, 67, 93
2, 48840, Note_on_c, 0, 71, 93
2, 48845, Control_c, 0, 64, 127
2, 48893, Control_c, 0, 64, 0
2, 48894, Note_on_c, 0, 88, 0
2, 48896, Note_on_c, 0, 83, 0
2, 48896, Note_on_c, 0, 76, 0
2, 48896, Note_on_c, 0, 71, 0
2, 48897, Note_on_c, 0, 79, 0
2, 48897, Note_on_c, 0, 67, 0
2, 48960, Note_on_c, 0, 66, 72
2, 48960, Note_on_c, 0, 72, 102
2, 48960, Note_on_c, 0, 78, 89
2, 48960, Note_on_c, 0, 62, 93
2, 48960, Note_on_c, 0, 74, 107
2, 48960, Note_on_c, 0, 69, 89
2, 48961, Control_c, 0, 64, 127
2, 49079, Control_c, 0, 64, 0
2, 49084, Note_on_c, 0, 74, 0
2, 49085, Note_on_c, 0, 62, 0
2, 49085, Note_on_c, 0, 66, 0
2, 49086, Note_on_c, 0, 72, 0
2, 49087, Note_on_c, 0, 78, 0
2, 49088, Note_on_c, 0, 69, 0
2, 49139, Control_c, 0, 64, 127
2, 49140, Note_on_c, 0, 74, 98
2, 49140, Note_on_c, 0, 78, 102
2, 49140, Note_on_c, 0, 81, 98
2, 49140, Note_on_c, 0, 69, 80
2, 49140, Note_on_c, 0, 72, 85
2, 49140, Note_on_c, 0, 66, 76
2, 49164, Note_on_c, 0, 78, 0
2, 49167, Note_on_c, 0, 74, 0
2, 49167, Note_on_c, 0, 81, 0
2, 49169, Note_on_c, 0, 72, 0
2, 49170, Note_on_c, 0, 66, 0
2, 49171, Note_on_c, 0, 69, 0
2, 49186, Control_c, 0, 64, 0
2, 49200, Note_on_c, 0, 67, 80
2, 49200, Note_on_c, 0, 71, 89
2, 49200, Note_on_c, 0, 74, 93
2, 49200, Note_on_c, 0, 79, 93
2, 49200, Note_on_c, 0, 86, 93
2, 49200, Note_on_c, 0, 83, 93
2, 49207, Control_c, 0, 64, 127
2, 49240, Note_on_c, 0, 83, 0
2, 49240, Note_on_c, 0, 86, 0
2, 49241, Note_on_c, 0, 71, 0
2, 49242, Note_on_c, 0, 79, 0
2, 49244, Note_on_c, 0, 67, 0
2, 49247, Note_on_c, 0, 74, 0
2, 49263, Control_c, 0, 64, 0
2, 49320, Note_on_c, 0, 78, 89
2, 49320, Note_on_c, 0, 66, 76
2, 49320, Note_on_c, 0, 72, 102
2, 49320, Note_on_c, 0, 62, 93
2, 49320, Note_on_c, 0, 74, 98
2, 49320, Note_on_c, 0, 69, 89
2, 49321, Control_c, 0, 64, 127
2, 49378, Control_c, 0, 64, 0
2, 49382, Note_on_c, 0, 74, 0
2, 49384, Note_on_c, 0, 62, 0
2, 49384, Note_on_c, 0, 72, 0
2, 49384, Note_on_c, 0, 78, 0
2, 49385, Note_on_c, 0, 69, 0
2, 49386, Note_on_c, 0, 66, 0
2, 49439, Control_c, 0, 64, 127
2, 49440, Note_on_c, 0, 79, 98
2, 49440, Note_on_c, 0, 71, 98
2, 49440, Note_on_c, 0, 74, 93
2, 49440, Note_on_c, 0, 67, 89
2, 49440, Note_on_c, 0, 62, 89
2, 49488, Note_on_c, 0, 74, 0
2, 49488, Note_on_c, 0, 71, 0
2, 49489, Note_on_c, 0, 62, 0
2, 49491, Note_on_c, 0, 79, 0
2, 49492, Note_on_c, 0, 67, 0
2, 49498, Control_c, 0, 64, 0
2, 49560, Note_on_c, 0, 79, 102
2, 49560, Note_on_c, 0, 84, 98
2, 49560, Note_on_c, 0, 76, 102
2, 49560, Note_on_c, 0, 88, 98
2, 49560, Note_on_c, 0, 64, 93
2, 49560, Note_on_c, 0, 67, 93
2, 49560, Note_on_c, 0, 72, 89
2, 49564, Control_c, 0, 64, 127
2, 49611, Note_on_c, 0, 88, 0
2, 49613, Note_on_c, 0, 72, 0
2, 49614, Note_on_c, 0, 67, 0
2, 49616, Note_on_c, 0, 84, 0
2, 49617, Note_on_c, 0, 79, 0
2, 49618, Note_on_c, 0, 76, 0
2, 49619, Note_on_c, 0, 64, 0
2, 49642, Control_c, 0, 64, 0
2, 49678, Control_c, 0, 64, 127
2, 49680, Note_on_c, 0, 66, 76
2, 49680, Note_on_c, 0, 72, 98
2, 49680, Note_on_c, 0, 78, 89
2, 49680, Note_on_c, 0, 69, 93
2, 49706, Note_on_c, 0, 78, 0
2, 49708, Note_on_c, 0, 69, 0
2, 49708, Note_on_c, 0, 72, 0
2, 49713, Note_on_c, 0, 66, 0
2, 49736, Control_c, 0, 64, 0
2, 49740, Note_on_c, 0, 71, 102
2, 49740, Note_on_c, 0, 79, 93
2, 49740, Note_on_c, 0, 67, 93
2, 49747, Control_c, 0, 64, 127
2, 49759, Note_on_c, 0, 67, 0
2, 49759, Note_on_c, 0, 71, 0
2, 49760, Note_on_c, 0, 79, 0
2, 49793, Control_c, 0, 64, 0
2, 49800, Note_on_c, 0, 81, 93
2, 49800, Note_on_c, 0, 69, 85
2, 49800, Note_on_c, 0, 76, 89
2, 49800, Note_on_c, 0, 84, 98
2, 49800, Note_on_c, 0, 64, 93
2, 49800, Note_on_c, 0, 72, 89
2, 49804, Control_c, 0, 64, 127
2, 49813, Note_on_c, 0, 72, 0
2, 49814, Note_on_c, 0, 69, 0
2, 49815, Note_on_c, 0, 84, 0
2, 49815, Note_on_c, 0, 81, 0
2, 49815, Note_on_c, 0, 64, 0
2, 49820, Note_on_c, 0, 76, 0
2, 49857, Control_c, 0, 64, 0
2, 49860, Note_on_c, 0, 78, 80
2, 49860, Note_on_c, 0, 81, 98
2, 49860, Note_on_c, 0, 72, 93
2, 49860, Note_on_c, 0, 74, 93
2, 49860, Note_on_c, 0, 62, 80
2, 49860, Note_on_c, 0, 60, 89
2, 49860, Note_on_c, 0, 66, 80
2, 49860, Note_on_c, 0, 69, 89
2, 49872, Control_c, 0, 64, 127
2, 49884, Note_on_c, 0, 69, 0
2, 49885, Note_on_c, 0, 62, 0
2, 49886, Note_on_c, 0, 66, 0
2, 49887, Note_on_c, 0, 60, 0
2, 49888, Note_on_c, 0, 74, 0
2, 49889, Note_on_c, 0, 78, 0
2, 49889, Note_on_c, 0, 81, 0
2, 49889, Note_on_c, 0, 72, 0
2, 49917, Control_c, 0, 64, 0
2, 49920, Note_on_c, 0, 79, 89
2, 49920, Note_on_c, 0, 59, 85
2, 49920, Note_on_c, 0, 62, 80
2, 49920, Note_on_c, 0, 71, 98
2, 49920, Note_on_c, 0, 74, 93
2, 49920, Note_on_c, 0, 67, 80
2, 49929, Control_c, 0, 64, 127
2, 49945, Note_on_c, 0, 67, 0
2, 49945, Note_on_c, 0, 74, 0
2, 49946, Note_on_c, 0, 79, 0
2, 49946, Note_on_c, 0, 71, 0
2, 49947, Note_on_c, 0, 62, 0
2, 49948, Note_on_c, 0, 59, 0
2, 49978, Control_c, 0, 64, 0
2, 50085, Note_on_c, 0, 71, 72
2, 50099, Note_on_c, 0, 71, 0
2, 50100, Note_on_c, 0, 73, 64
2, 50114, Note_on_c, 0, 73, 0
2, 50115, Note_on_c, 0, 75, 56
2, 50129, Note_on_c, 0, 75, 0
2, 50130, Note_on_c, 0, 76, 76
2, 50144, Note_on_c, 0, 76, 0
2, 50145, Note_on_c, 0, 78, 62
2, 50159, Note_on_c, 0, 78, 0
2, 50160, Note_on_c, 0, 71, 76
2, 50160, Note_on_c, 0, 79, 68
2, 50160, Note_on_c, 0, 67, 80
2, 50174, Note_on_c, 0, 79, 0
2, 50175, Note_on_c, 0, 81, 76
2, 50189, Note_on_c, 0, 81, 0
2, 50190, Note_on_c, 0, 82, 68
2, 50204, Note_on_c, 0, 82, 0
2, 50205, Note_on_c, 0, 83, 72
2, 50214, Control_c, 0, 64, 127
2, 50219, Note_on_c, 0, 83, 0
2, 50220, Note_on_c, 0, 84, 72
2, 50234, Note_on_c, 0, 84, 0
2, 50235, Note_on_c, 0, 83, 64
2, 50249, Note_on_c, 0, 83, 0
2, 50250, Note_on_c, 0, 81, 76
2, 50264, Note_on_c, 0, 81, 0
2, 50265, Note_on_c, 0, 79, 80
2, 50279, Note_on_c, 0, 79, 0
2, 50280, Note_on_c, 0, 67, 0
2, 50280, Note_on_c, 0, 78, 62
2, 50280, Note_on_c, 0, 66, 72
2, 50289, Control_c, 0, 64, 0
2, 50294, Note_on_c, 0, 78, 0
2, 50295, Note_on_c, 0, 76, 80
2, 50309, Note_on_c, 0, 76, 0
2, 50310, Note_on_c, 0, 83, 80
2, 50317, Control_c, 0, 64, 127
2, 50324, Note_on_c, 0, 83, 0
2, 50325, Note_on_c, 0, 81, 76
2, 50339, Note_on_c, 0, 81, 0
2, 50340, Note_on_c, 0, 66, 0
2, 50340, Note_on_c, 0, 69, 89
2, 50340, Note_on_c, 0, 80, 76
2, 50353, Control_c, 0, 64, 0
2, 50354, Note_on_c, 0, 80, 0
2, 50355, Note_on_c, 0, 81, 64
2, 50366, Control_c, 0, 64, 127
2, 50369, Note_on_c, 0, 81, 0
2, 50370, Note_on_c, 0, 79, 76
2, 50384, Note_on_c, 0, 79, 0
2, 50385, Note_on_c, 0, 78, 62
2, 50399, Note_on_c, 0, 78, 0
2, 50400, Note_on_c, 0, 69, 0
2, 50400, Note_on_c, 0, 71, 0
2, 50400, Note_on_c, 0, 67, 89
2, 50400, Note_on_c, 0, 76, 55
2, 50410, Control_c, 0, 64, 0
2, 50414, Note_on_c, 0, 76, 0
2, 50415, Note_on_c, 0, 75, 60
2, 50429, Note_on_c, 0, 75, 0
2, 50429, Control_c, 0, 64, 127
2, 50430, Note_on_c, 0, 78, 80
2, 50444, Note_on_c, 0, 78, 0
2, 50445, Note_on_c, 0, 79, 76
2, 50459, Note_on_c, 0, 79, 0
2, 50460, Note_on_c, 0, 81, 59
2, 50460, Note_on_c, 0, 64, 72
2, 50462, Control_c, 0, 64, 0
2, 50474, Note_on_c, 0, 81, 0
2, 50475, Note_on_c, 0, 79, 64
2, 50479, Control_c, 0, 64, 127
2, 50489, Note_on_c, 0, 79, 0
2, 50490, Note_on_c, 0, 77, 68
2, 50504, Note_on_c, 0, 77, 0
2, 50505, Note_on_c, 0, 64, 0
2, 50505, Note_on_c, 0, 76, 60
2, 50519, Note_on_c, 0, 76, 0
2, 50520, Note_on_c, 0, 74, 64
2, 50520, Note_on_c, 0, 62, 62
2, 50532, Control_c, 0, 64, 0
2, 50534, Note_on_c, 0, 74, 0
2, 50535, Note_on_c, 0, 72, 60
2, 50545, Control_c, 0, 64, 127
2, 50549, Note_on_c, 0, 72, 0
2, 50550, Note_on_c, 0, 79, 68
2, 50564, Note_on_c, 0, 79, 0
2, 50565, Note_on_c, 0, 62, 0
2, 50565, Note_on_c, 0, 78, 53
2, 50579, Note_on_c, 0, 78, 0
2, 50580, Note_on_c, 0, 65, 72
2, 50580, Note_on_c, 0, 76, 60
2, 50588, Control_c, 0, 64, 0
2, 50594, Note_on_c, 0, 76, 0
2, 50595, Note_on_c, 0, 78, 56
2, 50604, Control_c, 0, 64, 127
2, 50609, Note_on_c, 0, 78, 0
2, 50610, Note_on_c, 0, 76, 76
2, 50624, Note_on_c, 0, 76, 0
2, 50625, Note_on_c, 0, 65, 0
2, 50625, Note_on_c, 0, 67, 0
2, 50625, Note_on_c, 0, 74, 68
2, 50639, Note_on_c, 0, 74, 0
2, 50640, Note_on_c, 0, 72, 53
2, 50640, Note_on_c, 0, 64, 60
2, 50640, Note_on_c, 0, 67, 80
2, 50646, Control_c, 0, 64, 0
2, 50654, Note_on_c, 0, 72, 0
2, 50655, Note_on_c, 0, 71, 80
2, 50669, Note_on_c, 0, 71, 0
2, 50670, Note_on_c, 0, 75, 76
2, 50670, Control_c, 0, 64, 127
2, 50684, Note_on_c, 0, 75, 0
2, 50685, Note_on_c, 0, 76, 80
2, 50699, Note_on_c, 0, 76, 0
2, 50700, Note_on_c, 0, 74, 72
2, 50714, Note_on_c, 0, 74, 0
2, 50715, Note_on_c, 0, 72, 76
2, 50729, Note_on_c, 0, 72, 0
2, 50730, Note_on_c, 0, 71, 80
2, 50744, Note_on_c, 0, 71, 0
2, 50745, Note_on_c, 0, 69, 72
2, 50759, Note_on_c, 0, 69, 0
2, 50760, Note_on_c, 0, 67, 0
2, 50760, Note_on_c, 0, 64, 0
2, 50760, Note_on_c, 0, 71, 76
2, 50762, Control_c, 0, 64, 0
2, 50774, Note_on_c, 0, 71, 0
2, 50775, Note_on_c, 0, 72, 68
2, 50789, Note_on_c, 0, 72, 0
2, 50790, Note_on_c, 0, 74, 60
2, 50804, Note_on_c, 0, 74, 0
2, 50805, Note_on_c, 0, 76, 76
2, 50814, Control_c, 0, 64, 127
2, 50819, Note_on_c, 0, 76, 0
2, 50820, Note_on_c, 0, 78, 68
2, 50820, Note_on_c, 0, 72, 89
2, 50820, Note_on_c, 0, 69, 93
2, 50834, Note_on_c, 0, 78, 0
2, 50835, Note_on_c, 0, 80, 85
2, 50849, Note_on_c, 0, 80, 0
2, 50850, Note_on_c, 0, 81, 59
2, 50864, Note_on_c, 0, 81, 0
2, 50865, Note_on_c, 0, 69, 0
2, 50865, Note_on_c, 0, 72, 0
2, 50865, Note_on_c, 0, 83, 72
2, 50879, Note_on_c, 0, 83, 0
2, 50880, Note_on_c, 0, 84, 80
2, 50880, Note_on_c, 0, 71, 89
2, 50880, Note_on_c, 0, 67, 85
2, 50882, Control_c, 0, 64, 0
2, 50894, Note_on_c, 0, 84, 0
2, 50895, Note_on_c, 0, 81, 64
2, 50902, Control_c, 0, 64, 127
2, 50909, Note_on_c, 0, 81, 0
2, 50910, Note_on_c, 0, 79, 76
2, 50924, Note_on_c, 0, 79, 0
2, 50925, Note_on_c, 0, 82, 72
2, 50939, Note_on_c, 0, 82, 0
2, 50940, Note_on_c, 0, 83, 76
2, 50954, Note_on_c, 0, 83, 0
2, 50955, Note_on_c, 0, 82, 57
2, 50969, Note_on_c, 0, 82, 0
2, 50970, Note_on_c, 0, 83, 76
2, 50984, Note_on_c, 0, 83, 0
2, 50985, Note_on_c, 0, 67, 0
2, 50985, Note_on_c, 0, 71, 0
2, 50985, Note_on_c, 0, 82, 64
2, 50999, Note_on_c, 0, 82, 0
2, 51000, Note_on_c, 0, 83, 62
2, 51000, Note_on_c, 0, 66, 56
2, 51000, Note_on_c, 0, 69, 89
2, 51008, Control_c, 0, 64, 0
2, 51014, Note_on_c, 0, 83, 0
2, 51015, Note_on_c, 0, 79, 80
2, 51024, Control_c, 0, 64, 127
2, 51029, Note_on_c, 0, 79, 0
2, 51030, Note_on_c, 0, 78, 72
2, 51044, Note_on_c, 0, 78, 0
2, 51045, Note_on_c, 0, 69, 0
2, 51045, Note_on_c, 0, 66, 0
2, 51045, Note_on_c, 0, 81, 72
2, 51059, Note_on_c, 0, 81, 0
2, 51060, Note_on_c, 0, 80, 76
2, 51074, Note_on_c, 0, 80, 0
2, 51074, Control_c, 0, 64, 0
2, 51075, Note_on_c, 0, 81, 72
2, 51089, Note_on_c, 0, 81, 0
2, 51090, Note_on_c, 0, 79, 72
2, 51104, Note_on_c, 0, 79, 0
2, 51105, Note_on_c, 0, 78, 60
2, 51119, Note_on_c, 0, 78, 0
2, 51120, Note_on_c, 0, 76, 68
2, 51134, Note_on_c, 0, 76, 0
2, 51135, Note_on_c, 0, 74, 72
2, 51149, Note_on_c, 0, 74, 0
2, 51150, Note_on_c, 0, 75, 72
2, 51164, Note_on_c, 0, 75, 0
2, 51165, Note_on_c, 0, 76, 72
2, 51179, Note_on_c, 0, 76, 0
2, 51180, Note_on_c, 0, 78, 68
2, 51194, Note_on_c, 0, 78, 0
2, 51195, Note_on_c, 0, 76, 76
2, 51209, Note_on_c, 0, 76, 0
2, 51210, Note_on_c, 0, 79, 80
2, 51224, Note_on_c, 0, 79, 0
2, 51225, Note_on_c, 0, 76, 41
2, 51239, Note_on_c, 0, 76, 0
2, 51240, Note_on_c, 0, 81, 80
2, 51254, Note_on_c, 0, 81, 0
2, 51255, Note_on_c, 0, 76, 59
2, 51269, Note_on_c, 0, 76, 0
2, 51270, Note_on_c, 0, 83, 89
2, 51284, Note_on_c, 0, 83, 0
2, 51285, Note_on_c, 0, 76, 47
2, 51299, Note_on_c, 0, 76, 0
2, 51300, Note_on_c, 0, 84, 80
2, 51314, Note_on_c, 0, 84, 0
2, 51315, Note_on_c, 0, 76, 28
2, 51329, Note_on_c, 0, 76, 0
2, 51330, Note_on_c, 0, 86, 93
2, 51344, Note_on_c, 0, 86, 0
2, 51345, Note_on_c, 0, 76, 41
2, 51359, Note_on_c, 0, 76, 0
2, 51360, Note_on_c, 0, 88, 89
2, 51374, Note_on_c, 0, 88, 0
2, 51375, Note_on_c, 0, 76, 59
2, 51389, Note_on_c, 0, 76, 0
2, 51390, Note_on_c, 0, 86, 76
2, 51404, Note_on_c, 0, 86, 0
2, 51405, Note_on_c, 0, 84, 64
2, 51419, Note_on_c, 0, 84, 0
2, 51420, Note_on_c, 0, 83, 76
2, 51434, Note_on_c, 0, 83, 0
2, 51435, Note_on_c, 0, 84, 76
2, 51449, Note_on_c, 0, 84, 0
2, 51450, Note_on_c, 0, 81, 76
2, 51464, Note_on_c, 0, 81, 0
2, 51465, Note_on_c, 0, 84, 41
2, 51479, Note_on_c, 0, 84, 0
2, 51480, Note_on_c, 0, 79, 72
2, 51494, Note_on_c, 0, 79, 0
2, 51495, Note_on_c, 0, 84, 55
2, 51509, Note_on_c, 0, 84, 0
2, 51510, Note_on_c, 0, 78, 62
2, 51524, Note_on_c, 0, 78, 0
2, 51525, Note_on_c, 0, 84, 59
2, 51536, Control_c, 0, 64, 127
2, 51539, Note_on_c, 0, 84, 0
2, 51540, Note_on_c, 0, 76, 76
2, 51540, Note_on_c, 0, 66, 102
2, 51554, Note_on_c, 0, 66, 0
2, 51554, Note_on_c, 0, 76, 0
2, 51555, Note_on_c, 0, 84, 55
2, 51569, Note_on_c, 0, 84, 0
2, 51570, Note_on_c, 0, 74, 89
2, 51584, Note_on_c, 0, 74, 0
2, 51585, Note_on_c, 0, 84, 62
2, 51597, Control_c, 0, 64, 0
2, 51599, Note_on_c, 0, 84, 0
2, 51600, Note_on_c, 0, 72, 72
2, 51600, Note_on_c, 0, 67, 89
2, 51613, Control_c, 0, 64, 127
2, 51614, Note_on_c, 0, 72, 0
2, 51615, Note_on_c, 0, 84, 55
2, 51629, Note_on_c, 0, 84, 0
2, 51630, Note_on_c, 0, 67, 0
2, 51630, Note_on_c, 0, 71, 76
2, 51644, Note_on_c, 0, 71, 0
2, 51645, Note_on_c, 0, 74, 62
2, 51659, Note_on_c, 0, 74, 0
2, 51660, Note_on_c, 0, 79, 62
2, 51660, Note_on_c, 0, 71, 93
2, 51660, Note_on_c, 0, 74, 85
2, 51670, Control_c, 0, 64, 0
2, 51674, Note_on_c, 0, 79, 0
2, 51675, Note_on_c, 0, 83, 64
2, 51687, Control_c, 0, 64, 127
2, 51689, Note_on_c, 0, 83, 0
2, 51690, Note_on_c, 0, 86, 76
2, 51704, Note_on_c, 0, 86, 0
2, 51705, Note_on_c, 0, 83, 76
2, 51719, Note_on_c, 0, 83, 0
2, 51720, Note_on_c, 0, 71, 0
2, 51720, Note_on_c, 0, 81, 72
2, 51720, Note_on_c, 0, 72, 85
2, 51728, Control_c, 0, 64, 0
2, 51734, Note_on_c, 0, 81, 0
2, 51735, Note_on_c, 0, 79, 76
2, 51743, Control_c, 0, 64, 127
2, 51749, Note_on_c, 0, 79, 0
2, 51750, Note_on_c, 0, 78, 62
2, 51764, Note_on_c, 0, 78, 0
2, 51765, Note_on_c, 0, 72, 0
2, 51765, Note_on_c, 0, 74, 0
2, 51765, Note_on_c, 0, 79, 76
2, 51779, Note_on_c, 0, 79, 0
2, 51780, Note_on_c, 0, 81, 64
2, 51780, Note_on_c, 0, 69, 85
2, 51780, Note_on_c, 0, 74, 80
2, 51786, Control_c, 0, 64, 0
2, 51794, Note_on_c, 0, 81, 0
2, 51795, Note_on_c, 0, 83, 76
2, 51799, Control_c, 0, 64, 127
2, 51809, Note_on_c, 0, 83, 0
2, 51810, Note_on_c, 0, 74, 0
2, 51810, Note_on_c, 0, 69, 0
2, 51810, Note_on_c, 0, 84, 76
2, 51824, Note_on_c, 0, 84, 0
2, 51825, Note_on_c, 0, 81, 64
2, 51839, Note_on_c, 0, 81, 0
2, 51840, Note_on_c, 0, 79, 76
2, 51840, Note_on_c, 0, 67, 93
2, 51847, Control_c, 0, 64, 0
2, 51854, Note_on_c, 0, 79, 0
2, 51855, Note_on_c, 0, 78, 59
2, 51864, Control_c, 0, 64, 127
2, 51869, Note_on_c, 0, 78, 0
2, 51870, Note_on_c, 0, 86, 85
2, 51884, Note_on_c, 0, 86, 0
2, 51885, Note_on_c, 0, 84, 64
2, 51899, Note_on_c, 0, 84, 0
2, 51900, Note_on_c, 0, 83, 68
2, 51914, Note_on_c, 0, 83, 0
2, 51915, Note_on_c, 0, 81, 72
2, 51929, Note_on_c, 0, 81, 0
2, 51930, Note_on_c, 0, 79, 64
2, 51944, Note_on_c, 0, 79, 0
2, 51945, Note_on_c, 0, 77, 72
2, 51959, Note_on_c, 0, 77, 0
2, 51960, Note_on_c, 0, 76, 64
2, 51974, Note_on_c, 0, 76, 0
2, 51975, Note_on_c, 0, 75, 62
2, 51989, Note_on_c, 0, 75, 0
2, 51990, Note_on_c, 0, 76, 76
2, 52004, Note_on_c, 0, 76, 0
2, 52005, Note_on_c, 0, 67, 0
2, 52005, Note_on_c, 0, 78, 76
2, 52014, Control_c, 0, 64, 0
2, 52019, Note_on_c, 0, 78, 0
2, 52020, Note_on_c, 0, 80, 80
2, 52034, Note_on_c, 0, 80, 0
2, 52035, Note_on_c, 0, 81, 60
2, 52049, Note_on_c, 0, 81, 0
2, 52050, Note_on_c, 0, 83, 76
2, 52064, Note_on_c, 0, 83, 0
2, 52065, Note_on_c, 0, 84, 76
2, 52079, Note_on_c, 0, 84, 0
2, 52080, Note_on_c, 0, 86, 80
2, 52080, Note_on_c, 0, 71, 80
2, 52080, Note_on_c, 0, 67, 93
2, 52083, Control_c, 0, 64, 127
2, 52094, Note_on_c, 0, 86, 0
2, 52095, Note_on_c, 0, 88, 80
2, 52109, Note_on_c, 0, 88, 0
2, 52110, Note_on_c, 0, 85, 62
2, 52124, Note_on_c, 0, 85, 0
2, 52125, Note_on_c, 0, 86, 76
2, 52139, Note_on_c, 0, 86, 0
2, 52140, Note_on_c, 0, 71, 0
2, 52140, Note_on_c, 0, 88, 80
2, 52154, Note_on_c, 0, 88, 0
2, 52155, Note_on_c, 0, 67, 0
2, 52155, Note_on_c, 0, 86, 72
2, 52169, Note_on_c, 0, 86, 0
2, 52170, Note_on_c, 0, 84, 76
2, 52184, Note_on_c, 0, 84, 0
2, 52185, Note_on_c, 0, 83, 76
2, 52193, Control_c, 0, 64, 0
2, 52199, Note_on_c, 0, 83, 0
2, 52200, Note_on_c, 0, 81, 59
2, 52200, Note_on_c, 0, 69, 93
2, 52200, Note_on_c, 0, 66, 72
2, 52208, Control_c, 0, 64, 127
2, 52214, Note_on_c, 0, 66, 0
2, 52214, Note_on_c, 0, 81, 0
2, 52215, Note_on_c, 0, 79, 76
2, 52229, Note_on_c, 0, 79, 0
2, 52230, Note_on_c, 0, 69, 0
2, 52230, Note_on_c, 0, 86, 89
2, 52244, Note_on_c, 0, 86, 0
2, 52245, Note_on_c, 0, 84, 62
2, 52256, Control_c, 0, 64, 0
2, 52259, Note_on_c, 0, 84, 0
2, 52260, Note_on_c, 0, 83, 64
2, 52260, Note_on_c, 0, 69, 89
2, 52260, Note_on_c, 0, 72, 76
2, 52267, Control_c, 0, 64, 127
2, 52274, Note_on_c, 0, 83, 0
2, 52275, Note_on_c, 0, 84, 72
2, 52289, Note_on_c, 0, 84, 0
2, 52290, Note_on_c, 0, 72, 0
2, 52290, Note_on_c, 0, 69, 0
2, 52290, Note_on_c, 0, 83, 80
2, 52304, Note_on_c, 0, 83, 0
2, 52305, Note_on_c, 0, 81, 76
2, 52313, Control_c, 0, 64, 0
2, 52319, Note_on_c, 0, 81, 0
2, 52320, Note_on_c, 0, 79, 64
2, 52320, Note_on_c, 0, 67, 89
2, 52320, Note_on_c, 0, 71, 89
2, 52329, Control_c, 0, 64, 127
2, 52334, Note_on_c, 0, 79, 0
2, 52335, Note_on_c, 0, 78, 62
2, 52349, Note_on_c, 0, 78, 0
2, 52350, Note_on_c, 0, 79, 80
2, 52364, Note_on_c, 0, 79, 0
2, 52365, Note_on_c, 0, 74, 52
2, 52379, Note_on_c, 0, 74, 0
2, 52380, Note_on_c, 0, 79, 64
2, 52394, Note_on_c, 0, 79, 0
2, 52395, Note_on_c, 0, 71, 0
2, 52395, Note_on_c, 0, 83, 64
2, 52409, Note_on_c, 0, 83, 0
2, 52410, Note_on_c, 0, 67, 0
2, 52410, Note_on_c, 0, 86, 80
2, 52424, Note_on_c, 0, 86, 0
2, 52425, Note_on_c, 0, 83, 68
2, 52434, Control_c, 0, 64, 0
2, 52439, Note_on_c, 0, 83, 0
2, 52440, Note_on_c, 0, 86, 60
2, 52454, Note_on_c, 0, 86, 0
2, 52455, Note_on_c, 0, 83, 57
2, 52466, Control_c, 0, 64, 127
2, 52469, Note_on_c, 0, 83, 0
2, 52470, Note_on_c, 0, 79, 72
2, 52470, Note_on_c, 0, 62, 80
2, 52470, Note_on_c, 0, 71, 80
2, 52470, Note_on_c, 0, 67, 85
2, 52484, Note_on_c, 0, 67, 0
2, 52484, Note_on_c, 0, 71, 0
2, 52484, Note_on_c, 0, 62, 0
2, 52500, Note_on_c, 0, 62, 80
2, 52500, Note_on_c, 0, 71, 85
2, 52500, Note_on_c, 0, 67, 85
2, 52514, Note_on_c, 0, 67, 0
2, 52514, Note_on_c, 0, 71, 0
2, 52514, Note_on_c, 0, 62, 0
2, 52530, Note_on_c, 0, 79, 0
2, 52530, Note_on_c, 0, 62, 76
2, 52530, Note_on_c, 0, 67, 85
2, 52530, Note_on_c, 0, 71, 85
2, 52544, Note_on_c, 0, 71, 0
2, 52544, Note_on_c, 0, 67, 0
2, 52544, Note_on_c, 0, 62, 0
2, 52560, Note_on_c, 0, 67, 89
2, 52560, Note_on_c, 0, 70, 72
2, 52560, Note_on_c, 0, 62, 72
2, 52564, Control_c, 0, 64, 0
2, 52564, Note_on_c, 0, 79, 98
2, 52567, Control_c, 0, 64, 127
2, 52577, Note_on_c, 0, 79, 0
2, 52578, Note_on_c, 0, 74, 62
2, 52591, Control_c, 0, 64, 127
2, 52592, Note_on_c, 0, 74, 0
2, 52592, Note_on_c, 0, 79, 85
2, 52606, Note_on_c, 0, 79, 0
2, 52606, Note_on_c, 0, 82, 68
2, 52614, Control_c, 0, 64, 0
2, 52619, Note_on_c, 0, 82, 0
2, 52621, Note_on_c, 0, 86, 93
2, 52629, Control_c, 0, 64, 127
2, 52634, Note_on_c, 0, 86, 0
2, 52635, Note_on_c, 0, 67, 0
2, 52635, Note_on_c, 0, 70, 0
2, 52635, Note_on_c, 0, 62, 0
2, 52635, Note_on_c, 0, 82, 80
2, 52639, Control_c, 0, 64, 0
2, 52647, Note_on_c, 0, 82, 0
2, 52651, Note_on_c, 0, 86, 89
2, 52664, Note_on_c, 0, 86, 0
2, 52665, Note_on_c, 0, 82, 80
2, 52674, Control_c, 0, 64, 0
2, 52676, Note_on_c, 0, 82, 0
2, 52681, Note_on_c, 0, 79, 98
2, 52689, Control_c, 0, 64, 127
2, 52696, Control_c, 0, 64, 127
2, 52710, Note_on_c, 0, 70, 80
2, 52710, Note_on_c, 0, 62, 85
2, 52710, Note_on_c, 0, 67, 89
2, 52715, Control_c, 0, 64, 0
2, 52724, Note_on_c, 0, 67, 0
2, 52724, Note_on_c, 0, 62, 0
2, 52724, Note_on_c, 0, 70, 0
2, 52732, Control_c, 0, 64, 127
2, 52739, Control_c, 0, 64, 0
2, 52740, Note_on_c, 0, 79, 0
2, 52740, Note_on_c, 0, 62, 89
2, 52740, Note_on_c, 0, 67, 89
2, 52740, Note_on_c, 0, 70, 80
2, 52754, Note_on_c, 0, 70, 0
2, 52754, Note_on_c, 0, 67, 0
2, 52754, Note_on_c, 0, 62, 0
2, 52770, Note_on_c, 0, 62, 80
2, 52770, Note_on_c, 0, 67, 85
2, 52770, Note_on_c, 0, 70, 80
2, 52784, Note_on_c, 0, 70, 0
2, 52784, Note_on_c, 0, 67, 0
2, 52784, Note_on_c, 0, 62, 0
2, 52800, Note_on_c, 0, 63, 89
2, 52800, Note_on_c, 0, 67, 85
2, 52800, Note_on_c, 0, 70, 80
2, 52800, Control_c, 0, 64, 0
2, 52824, Control_c, 0, 64, 127
2, 52875, Note_on_c, 0, 70, 0
2, 52875, Note_on_c, 0, 67, 0
2, 52875, Note_on_c, 0, 63, 0
2, 52881, Control_c, 0, 64, 0
2, 53031, Control_c, 0, 64, 127
2, 53039, Note_on_c, 0, 63, 107
2, 53093, Note_on_c, 0, 63, 0
2, 53160, Note_on_c, 0, 67, 102
2, 53163, Control_c, 0, 64, 0
2, 53175, Control_c, 0, 64, 127
2, 53213, Note_on_c, 0, 67, 0
2, 53221, Note_on_c, 0, 70, 107
2, 53232, Note_on_c, 0, 70, 0
2, 53280, Note_on_c, 0, 67, 85
2, 53280, Note_on_c, 0, 63, 72
2, 53282, Control_c, 0, 64, 0
2, 53283, Note_on_c, 0, 75, 113
2, 53293, Control_c, 0, 64, 127
2, 53293, Control_c, 0, 64, 127
2, 53316, Note_on_c, 0, 75, 0
2, 53343, Note_on_c, 0, 79, 102
2, 53344, Control_c, 0, 64, 0
2, 53354, Control_c, 0, 64, 127
2, 53398, Note_on_c, 0, 79, 0
2, 53403, Control_c, 0, 64, 0
2, 53404, Note_on_c, 0, 82, 113
2, 53415, Control_c, 0, 64, 127
2, 53445, Note_on_c, 0, 81, 93
2, 53449, Note_on_c, 0, 82, 0
2, 53455, Control_c, 0, 64, 0
2, 53459, Note_on_c, 0, 81, 0
2, 53460, Note_on_c, 0, 79, 85
2, 53467, Control_c, 0, 64, 127
2, 53471, Note_on_c, 0, 79, 0
2, 53475, Note_on_c, 0, 77, 98
2, 53489, Note_on_c, 0, 77, 0
2, 53490, Note_on_c, 0, 75, 59
2, 53498, Note_on_c, 0, 75, 0
2, 53505, Note_on_c, 0, 74, 89
2, 53514, Note_on_c, 0, 74, 0
2, 53520, Note_on_c, 0, 73, 89
2, 53520, Control_c, 0, 64, 0
2, 53528, Note_on_c, 0, 73, 0
2, 53535, Note_on_c, 0, 63, 0
2, 53535, Note_on_c, 0, 67, 0
2, 53543, Control_c, 0, 64, 0
2, 53580, Note_on_c, 0, 70, 62
2, 53580, Note_on_c, 0, 73, 89
2, 53589, Note_on_c, 0, 73, 0
2, 53640, Note_on_c, 0, 70, 0
2, 53640, Note_on_c, 0, 68, 72
2, 53640, Note_on_c, 0, 73, 93
2, 53649, Note_on_c, 0, 73, 0
2, 53649, Control_c, 0, 64, 127
2, 53670, Control_c, 0, 64, 0
2, 53700, Note_on_c, 0, 68, 0
2, 53700, Note_on_c, 0, 67, 68
2, 53702, Note_on_c, 0, 73, 85
2, 53712, Note_on_c, 0, 73, 0
2, 53715, Control_c, 0, 64, 127
2, 53759, Note_on_c, 0, 74, 72
2, 53760, Note_on_c, 0, 67, 0
2, 53760, Note_on_c, 0, 66, 62
2, 53763, Control_c, 0, 64, 0
2, 53765, Control_c, 0, 64, 127
2, 53796, Control_c, 0, 64, 127
2, 53825, Note_on_c, 0, 74, 0
2, 53826, Control_c, 0, 64, 0
2, 53851, Note_on_c, 0, 74, 76
2, 53860, Note_on_c, 0, 74, 0
2, 53880, Note_on_c, 0, 66, 0
2, 53880, Note_on_c, 0, 67, 76
2, 53881, Note_on_c, 0, 75, 76
2, 53885, Control_c, 0, 64, 0
2, 53888, Note_on_c, 0, 75, 0
2, 53906, Control_c, 0, 64, 127
2, 53911, Note_on_c, 0, 76, 76
2, 53922, Note_on_c, 0, 76, 0
2, 53940, Note_on_c, 0, 67, 0
2, 53940, Note_on_c, 0, 72, 76
2, 53943, Note_on_c, 0, 77, 68
2, 53946, Control_c, 0, 64, 0
2, 53952, Note_on_c, 0, 77, 0
2, 53961, Control_c, 0, 64, 127
2, 53970, Note_on_c, 0, 78, 76
2, 53979, Note_on_c, 0, 78, 0
2, 53985, Note_on_c, 0, 72, 0
2, 54000, Note_on_c, 0, 71, 80
2, 54002, Control_c, 0, 64, 0
2, 54002, Note_on_c, 0, 79, 80
2, 54016, Control_c, 0, 64, 127
2, 54020, Control_c, 0, 64, 127
2, 54045, Note_on_c, 0, 71, 0
2, 54062, Control_c, 0, 64, 0
2, 54064, Note_on_c, 0, 83, 80
2, 54065, Note_on_c, 0, 79, 0
2, 54072, Control_c, 0, 64, 0
2, 54095, Control_c, 0, 64, 127
2, 54120, Note_on_c, 0, 74, 76
2, 54120, Note_on_c, 0, 72, 76
2, 54120, Note_on_c, 0, 66, 59
2, 54122, Note_on_c, 0, 81, 80
2, 54124, Note_on_c, 0, 83, 0
2, 54126, Control_c, 0, 64, 127
2, 54130, Control_c, 0, 64, 0
2, 54150, Control_c, 0, 64, 127
2, 54165, Note_on_c, 0, 66, 0
2, 54165, Note_on_c, 0, 74, 0
2, 54165, Note_on_c, 0, 72, 0
2, 54181, Note_on_c, 0, 81, 0
2, 54181, Note_on_c, 0, 78, 85
2, 54183, Control_c, 0, 64, 0
2, 54187, Control_c, 0, 64, 0
2, 54203, Control_c, 0, 64, 127
2, 54240, Note_on_c, 0, 67, 60
2, 54240, Note_on_c, 0, 71, 60
2, 54240, Note_on_c, 0, 74, 68
2, 54241, Note_on_c, 0, 86, 93
2, 54242, Note_on_c, 0, 78, 0
2, 54247, Control_c, 0, 64, 127
2, 54250, Control_c, 0, 64, 0
2, 54271, Control_c, 0, 64, 127
2, 54285, Note_on_c, 0, 74, 0
2, 54285, Note_on_c, 0, 67, 0
2, 54285, Note_on_c, 0, 71, 0
2, 54300, Control_c, 0, 64, 0
2, 54425, Note_on_c, 0, 86, 0
2, 54426, Note_on_c, 0, 83, 89
2, 54427, Control_c, 0, 64, 0
2, 54442, Control_c, 0, 64, 127
2, 54469, Note_on_c, 0, 83, 0
2, 54469, Note_on_c, 0, 79, 85
2, 54475, Control_c, 0, 64, 0
2, 54480, Note_on_c, 0, 79, 0
2, 54480, Note_on_c, 0, 66, 60
2, 54480, Note_on_c, 0, 74, 76
2, 54480, Note_on_c, 0, 69, 76
2, 54483, Note_on_c, 0, 81, 89
2, 54484, Control_c, 0, 64, 127
2, 54499, Control_c, 0, 64, 127
2, 54510, Note_on_c, 0, 69, 0
2, 54510, Note_on_c, 0, 66, 0
2, 54510, Note_on_c, 0, 74, 0
2, 54538, Control_c, 0, 64, 0
2, 54539, Control_c, 0, 64, 0
2, 54542, Note_on_c, 0, 81, 0
2, 54542, Note_on_c, 0, 78, 80
2, 54556, Control_c, 0, 64, 127
2, 54583, Note_on_c, 0, 78, 0
2, 54583, Note_on_c, 0, 74, 76
2, 54594, Note_on_c, 0, 74, 0
2, 54597, Control_c, 0, 64, 0
2, 54600, Note_on_c, 0, 67, 76
2, 54600, Note_on_c, 0, 73, 62
2, 54600, Note_on_c, 0, 69, 80
2, 54600, Note_on_c, 0, 76, 89
2, 54605, Control_c, 0, 64, 127
2, 54610, Control_c, 0, 64, 127
2, 54630, Note_on_c, 0, 73, 0
2, 54636, Note_on_c, 0, 76, 0
2, 54637, Note_on_c, 0, 78, 76
2, 54645, Note_on_c, 0, 69, 0
2, 54645, Note_on_c, 0, 67, 0
2, 54646, Control_c, 0, 64, 0
2, 54648, Note_on_c, 0, 76, 80
2, 54649, Note_on_c, 0, 78, 0
2, 54653, Note_on_c, 0, 74, 72
2, 54655, Note_on_c, 0, 76, 0
2, 54663, Note_on_c, 0, 74, 0
2, 54663, Note_on_c, 0, 76, 89
2, 54666, Control_c, 0, 64, 0
2, 54701, Note_on_c, 0, 76, 0
2, 54703, Note_on_c, 0, 78, 72
2, 54718, Note_on_c, 0, 78, 0
2, 54719, Note_on_c, 0, 74, 89
2, 54720, Control_c, 0, 64, 127
2, 54720, Note_on_c, 0, 66, 60
2, 54720, Note_on_c, 0, 69, 89
2, 54729, Control_c, 0, 64, 127
2, 54765, Note_on_c, 0, 69, 0
2, 54765, Note_on_c, 0, 66, 0
2, 54780, Control_c, 0, 64, 0
2, 54859, Note_on_c, 0, 74, 0
2, 54863, Control_c, 0, 64, 0
2, 54880, Note_on_c, 0, 76, 85
2, 54890, Note_on_c, 0, 76, 0
2, 54891, Note_on_c, 0, 74, 80
2, 54895, Note_on_c, 0, 73, 72
2, 54896, Note_on_c, 0, 74, 0
2, 54903, Note_on_c, 0, 73, 0
2, 54906, Note_on_c, 0, 74, 93
2, 54942, Note_on_c, 0, 74, 0
2, 54944, Note_on_c, 0, 76, 85
2, 54957, Note_on_c, 0, 76, 0
2, 54960, Note_on_c, 0, 67, 72
2, 54960, Note_on_c, 0, 71, 80
2, 54961, Note_on_c, 0, 77, 89
2, 54973, Note_on_c, 0, 77, 0
2, 54974, Note_on_c, 0, 71, 0
2, 54974, Note_on_c, 0, 67, 0
2, 55017, Note_on_c, 0, 77, 89
2, 55020, Note_on_c, 0, 67, 72
2, 55020, Note_on_c, 0, 71, 72
2, 55026, Note_on_c, 0, 77, 0
2, 55034, Note_on_c, 0, 71, 0
2, 55034, Note_on_c, 0, 67, 0
2, 55079, Note_on_c, 0, 77, 102
2, 55080, Note_on_c, 0, 67, 76
2, 55080, Note_on_c, 0, 71, 80
2, 55087, Note_on_c, 0, 77, 0
2, 55094, Note_on_c, 0, 71, 0
2, 55094, Note_on_c, 0, 67, 0
2, 55138, Note_on_c, 0, 77, 107
2, 55140, Note_on_c, 0, 67, 76
2, 55140, Note_on_c, 0, 71, 80
2, 55149, Note_on_c, 0, 77, 0
2, 55154, Note_on_c, 0, 71, 0
2, 55154, Note_on_c, 0, 67, 0
2, 55199, Note_on_c, 0, 79, 93
2, 55200, Note_on_c, 0, 67, 72
2, 55200, Note_on_c, 0, 72, 80
2, 55210, Control_c, 0, 64, 127
2, 55210, Control_c, 0, 64, 127
2, 55227, Note_on_c, 0, 78, 80
2, 55229, Note_on_c, 0, 79, 0
2, 55230, Control_c, 0, 64, 0
2, 55259, Note_on_c, 0, 78, 0
2, 55259, Note_on_c, 0, 76, 89
2, 55266, Control_c, 0, 64, 127
2, 55290, Note_on_c, 0, 76, 0
2, 55290, Note_on_c, 0, 78, 93
2, 55302, Control_c, 0, 64, 0
2, 55319, Note_on_c, 0, 78, 0
2, 55320, Note_on_c, 0, 72, 0
2, 55320, Note_on_c, 0, 74, 76
2, 55320, Note_on_c, 0, 79, 93
2, 55329, Control_c, 0, 64, 127
2, 55332, Control_c, 0, 64, 0
2, 55350, Control_c, 0, 64, 127
2, 55366, Note_on_c, 0, 79, 0
2, 55383, Note_on_c, 0, 79, 107
2, 55385, Control_c, 0, 64, 0
2, 55399, Control_c, 0, 64, 127
2, 55425, Note_on_c, 0, 74, 0
2, 55435, Note_on_c, 0, 79, 0
2, 55440, Note_on_c, 0, 67, 0
2, 55440, Note_on_c, 0, 76, 56
2, 55443, Note_on_c, 0, 81, 107
2, 55444, Control_c, 0, 64, 0
2, 55451, Control_c, 0, 64, 0
2, 55460, Control_c, 0, 64, 127
2, 55512, Control_c, 0, 64, 127
2, 55560, Note_on_c, 0, 76, 0
2, 55560, Note_on_c, 0, 74, 72
2, 55569, Control_c, 0, 64, 0
2, 55580, Note_on_c, 0, 81, 0
2, 55593, Control_c, 0, 64, 127
2, 55598, Note_on_c, 0, 83, 93
2, 55603, Control_c, 0, 64, 0
2, 55607, Note_on_c, 0, 81, 93
2, 55610, Note_on_c, 0, 83, 0
2, 55614, Note_on_c, 0, 81, 0
2, 55614, Note_on_c, 0, 79, 85
2, 55620, Note_on_c, 0, 74, 0
2, 55620, Note_on_c, 0, 72, 64
2, 55623, Note_on_c, 0, 79, 0
2, 55623, Note_on_c, 0, 81, 98
2, 55629, Control_c, 0, 64, 0
2, 55651, Control_c, 0, 64, 127
2, 55662, Note_on_c, 0, 81, 0
2, 55663, Note_on_c, 0, 83, 80
2, 55673, Control_c, 0, 64, 0
2, 55674, Note_on_c, 0, 83, 0
2, 55677, Note_on_c, 0, 81, 89
2, 55680, Note_on_c, 0, 72, 0
2, 55680, Note_on_c, 0, 71, 76
2, 55689, Control_c, 0, 64, 127
2, 55692, Control_c, 0, 64, 127
2, 55703, Note_on_c, 0, 81, 0
2, 55704, Note_on_c, 0, 79, 89
2, 55732, Control_c, 0, 64, 0
2, 55734, Control_c, 0, 64, 0
2, 55735, Note_on_c, 0, 79, 0
2, 55735, Note_on_c, 0, 78, 85
2, 55746, Control_c, 0, 64, 127
2, 55753, Control_c, 0, 64, 127
2, 55768, Note_on_c, 0, 78, 0
2, 55768, Note_on_c, 0, 81, 98
2, 55793, Note_on_c, 0, 81, 0
2, 55798, Control_c, 0, 64, 0
2, 55799, Note_on_c, 0, 84, 89
2, 55800, Note_on_c, 0, 71, 0
2, 55808, Control_c, 0, 64, 0
2, 55830, Note_on_c, 0, 83, 89
2, 55831, Note_on_c, 0, 84, 0
2, 55858, Note_on_c, 0, 81, 56
2, 55860, Note_on_c, 0, 83, 0
2, 55890, Note_on_c, 0, 81, 0
2, 55890, Note_on_c, 0, 84, 80
2, 55923, Note_on_c, 0, 86, 93
2, 55924, Control_c, 0, 64, 127
2, 55925, Note_on_c, 0, 84, 0
2, 55930, Control_c, 0, 64, 127
2, 55935, Note_on_c, 0, 86, 0
2, 55946, Control_c, 0, 64, 0
2, 55950, Note_on_c, 0, 67, 64
2, 55980, Note_on_c, 0, 67, 0
2, 55980, Note_on_c, 0, 79, 76
2, 55982, Note_on_c, 0, 86, 93
2, 55985, Control_c, 0, 64, 0
2, 55993, Note_on_c, 0, 86, 0
2, 56004, Control_c, 0, 64, 127
2, 56010, Note_on_c, 0, 79, 0
2, 56010, Note_on_c, 0, 67, 76
2, 56039, Control_c, 0, 64, 0
2, 56040, Note_on_c, 0, 67, 0
2, 56040, Note_on_c, 0, 79, 76
2, 56041, Note_on_c, 0, 86, 93
2, 56051, Note_on_c, 0, 86, 0
2, 56057, Control_c, 0, 64, 127
2, 56070, Note_on_c, 0, 79, 0
2, 56070, Note_on_c, 0, 67, 62
2, 56099, Control_c, 0, 64, 0
2, 56100, Note_on_c, 0, 67, 0
2, 56100, Note_on_c, 0, 79, 80
2, 56100, Note_on_c, 0, 86, 93
2, 56111, Note_on_c, 0, 86, 0
2, 56115, Control_c, 0, 64, 127
2, 56130, Note_on_c, 0, 79, 0
2, 56130, Note_on_c, 0, 67, 76
2, 56144, Note_on_c, 0, 67, 0
2, 56158, Control_c, 0, 64, 0
2, 56160, Note_on_c, 0, 79, 89
2, 56162, Note_on_c, 0, 86, 93
2, 56167, Control_c, 0, 64, 127
2, 56179, Control_c, 0, 64, 127
2, 56213, Control_c, 0, 64, 0
2, 56221, Note_on_c, 0, 84, 72
2, 56222, Note_on_c, 0, 86, 0
2, 56232, Note_on_c, 0, 84, 0
2, 56250, Note_on_c, 0, 79, 0
2, 56250, Note_on_c, 0, 78, 64
2, 56264, Note_on_c, 0, 78, 0
2, 56265, Note_on_c, 0, 76, 76
2, 56270, Control_c, 0, 64, 0
2, 56279, Note_on_c, 0, 76, 0
2, 56280, Note_on_c, 0, 74, 57
2, 56280, Note_on_c, 0, 84, 98
2, 56285, Control_c, 0, 64, 127
2, 56309, Control_c, 0, 64, 127
2, 56339, Note_on_c, 0, 83, 89
2, 56339, Control_c, 0, 64, 0
2, 56341, Note_on_c, 0, 84, 0
2, 56351, Note_on_c, 0, 83, 0
2, 56370, Note_on_c, 0, 74, 0
2, 56370, Note_on_c, 0, 72, 72
2, 56384, Note_on_c, 0, 72, 0
2, 56385, Note_on_c, 0, 71, 52
2, 56389, Control_c, 0, 64, 0
2, 56399, Note_on_c, 0, 71, 0
2, 56399, Note_on_c, 0, 81, 93
2, 56400, Note_on_c, 0, 72, 76
2, 56402, Control_c, 0, 64, 127
2, 56431, Note_on_c, 0, 81, 0
2, 56431, Note_on_c, 0, 88, 89
2, 56434, Control_c, 0, 64, 127
2, 56445, Control_c, 0, 64, 0
2, 56461, Note_on_c, 0, 86, 89
2, 56462, Note_on_c, 0, 88, 0
2, 56465, Control_c, 0, 64, 127
2, 56490, Note_on_c, 0, 84, 89
2, 56494, Note_on_c, 0, 86, 0
2, 56511, Control_c, 0, 64, 0
2, 56519, Note_on_c, 0, 83, 89
2, 56523, Note_on_c, 0, 84, 0
2, 56526, Control_c, 0, 64, 127
2, 56549, Note_on_c, 0, 83, 0
2, 56549, Note_on_c, 0, 81, 80
2, 56556, Control_c, 0, 64, 0
2, 56579, Note_on_c, 0, 79, 80
2, 56580, Note_on_c, 0, 81, 0
2, 56592, Control_c, 0, 64, 127
2, 56609, Note_on_c, 0, 78, 64
2, 56611, Note_on_c, 0, 79, 0
2, 56637, Note_on_c, 0, 78, 0
2, 56640, Note_on_c, 0, 72, 0
2, 56640, Note_on_c, 0, 71, 80
2, 56641, Control_c, 0, 64, 0
2, 56642, Note_on_c, 0, 79, 107
2, 56649, Control_c, 0, 64, 0
2, 56665, Control_c, 0, 64, 127
2, 56670, Control_c, 0, 64, 127
2, 56672, Note_on_c, 0, 81, 89
2, 56674, Note_on_c, 0, 79, 0
2, 56701, Control_c, 0, 64, 0
2, 56702, Note_on_c, 0, 79, 93
2, 56705, Note_on_c, 0, 81, 0
2, 56717, Control_c, 0, 64, 127
2, 56730, Note_on_c, 0, 71, 0
2, 56730, Note_on_c, 0, 74, 72
2, 56733, Note_on_c, 0, 79, 0
2, 56733, Note_on_c, 0, 77, 80
2, 56752, Control_c, 0, 64, 0
2, 56760, Note_on_c, 0, 74, 0
2, 56760, Note_on_c, 0, 65, 80
2, 56762, Note_on_c, 0, 77, 0
2, 56762, Control_c, 0, 64, 0
2, 56763, Note_on_c, 0, 76, 93
2, 56778, Control_c, 0, 64, 127
2, 56790, Note_on_c, 0, 74, 85
2, 56792, Note_on_c, 0, 76, 0
2, 56792, Control_c, 0, 64, 127
2, 56797, Control_c, 0, 64, 0
2, 56814, Control_c, 0, 64, 127
2, 56820, Note_on_c, 0, 72, 85
2, 56821, Note_on_c, 0, 74, 0
2, 56844, Note_on_c, 0, 72, 0
2, 56850, Note_on_c, 0, 71, 89
2, 56858, Note_on_c, 0, 71, 0
2, 56880, Note_on_c, 0, 65, 0
2, 56880, Note_on_c, 0, 64, 72
2, 56880, Control_c, 0, 64, 0
2, 56881, Note_on_c, 0, 72, 98
2, 56885, Control_c, 0, 64, 0
2, 56897, Control_c, 0, 64, 127
2, 56908, Control_c, 0, 64, 127
2, 56912, Note_on_c, 0, 76, 89
2, 56915, Note_on_c, 0, 72, 0
2, 56940, Note_on_c, 0, 64, 0
2, 56941, Note_on_c, 0, 76, 0
2, 56942, Note_on_c, 0, 79, 80
2, 56943, Control_c, 0, 64, 0
2, 56954, Control_c, 0, 64, 0
2, 56956, Control_c, 0, 64, 127
2, 56971, Note_on_c, 0, 79, 0
2, 56973, Note_on_c, 0, 84, 89
2, 56983, Note_on_c, 0, 84, 0
2, 57003, Note_on_c, 0, 77, 98
2, 57004, Control_c, 0, 64, 0
2, 57022, Control_c, 0, 64, 127
2, 57032, Note_on_c, 0, 83, 93
2, 57035, Note_on_c, 0, 77, 0
2, 57059, Note_on_c, 0, 83, 0
2, 57061, Note_on_c, 0, 86, 98
2, 57063, Control_c, 0, 64, 0
2, 57074, Control_c, 0, 64, 127
2, 57089, Note_on_c, 0, 89, 89
2, 57090, Note_on_c, 0, 86, 0
2, 57105, Note_on_c, 0, 89, 0
2, 57118, Control_c, 0, 64, 0
2, 57119, Note_on_c, 0, 89, 93
2, 57120, Note_on_c, 0, 72, 85
2, 57126, Control_c, 0, 64, 127
2, 57133, Control_c, 0, 64, 127
2, 57150, Note_on_c, 0, 88, 93
2, 57153, Note_on_c, 0, 89, 0
2, 57160, Control_c, 0, 64, 0
2, 57173, Control_c, 0, 64, 127
2, 57181, Note_on_c, 0, 88, 0
2, 57181, Note_on_c, 0, 87, 89
2, 57189, Control_c, 0, 64, 0
2, 57201, Control_c, 0, 64, 127
2, 57209, Note_on_c, 0, 87, 0
2, 57210, Note_on_c, 0, 88, 89
2, 57239, Control_c, 0, 64, 0
2, 57240, Note_on_c, 0, 72, 0
2, 57240, Note_on_c, 0, 76, 80
2, 57242, Control_c, 0, 64, 0
2, 57242, Note_on_c, 0, 86, 98
2, 57243, Note_on_c, 0, 88, 0
2, 57251, Control_c, 0, 64, 127
2, 57266, Control_c, 0, 64, 127
2, 57270, Note_on_c, 0, 84, 76
2, 57272, Note_on_c, 0, 86, 0
2, 57278, Control_c, 0, 64, 0
2, 57290, Control_c, 0, 64, 127
2, 57300, Note_on_c, 0, 76, 0
2, 57300, Note_on_c, 0, 79, 72
2, 57301, Note_on_c, 0, 84, 0
2, 57302, Note_on_c, 0, 83, 93
2, 57310, Control_c, 0, 64, 0
2, 57321, Control_c, 0, 64, 127
2, 57330, Note_on_c, 0, 83, 0
2, 57330, Note_on_c, 0, 81, 89
2, 57345, Note_on_c, 0, 79, 0
2, 57354, Control_c, 0, 64, 0
2, 57356, Control_c, 0, 64, 0
2, 57358, Note_on_c, 0, 81, 0
2, 57358, Note_on_c, 0, 82, 89
2, 57360, Note_on_c, 0, 79, 93
2, 57368, Control_c, 0, 64, 127
2, 57385, Control_c, 0, 64, 127
2, 57387, Note_on_c, 0, 83, 89
2, 57388, Note_on_c, 0, 82, 0
2, 57394, Control_c, 0, 64, 0
2, 57417, Note_on_c, 0, 83, 0
2, 57417, Note_on_c, 0, 86, 93
2, 57418, Control_c, 0, 64, 127
2, 57446, Note_on_c, 0, 86, 0
2, 57446, Note_on_c, 0, 83, 80
2, 57473, Control_c, 0, 64, 0
2, 57475, Note_on_c, 0, 83, 0
2, 57476, Note_on_c, 0, 86, 89
2, 57480, Note_on_c, 0, 79, 0
2, 57480, Note_on_c, 0, 78, 76
2, 57482, Control_c, 0, 64, 0
2, 57486, Control_c, 0, 64, 127
2, 57503, Control_c, 0, 64, 127
2, 57505, Note_on_c, 0, 86, 0
2, 57506, Note_on_c, 0, 84, 85
2, 57517, Control_c, 0, 64, 0
2, 57531, Control_c, 0, 64, 127
2, 57534, Note_on_c, 0, 81, 93
2, 57537, Note_on_c, 0, 84, 0
2, 57540, Note_on_c, 0, 78, 0
2, 57540, Control_c, 0, 64, 0
2, 57540, Note_on_c, 0, 72, 76
2, 57555, Control_c, 0, 64, 127
2, 57565, Note_on_c, 0, 81, 0
2, 57565, Note_on_c, 0, 78, 68
2, 57596, Note_on_c, 0, 78, 0
2, 57597, Note_on_c, 0, 79, 93
2, 57597, Control_c, 0, 64, 0
2, 57599, Control_c, 0, 64, 0
2, 57600, Note_on_c, 0, 72, 0
2, 57600, Note_on_c, 0, 71, 80
2, 57622, Control_c, 0, 64, 127
2, 57624, Control_c, 0, 64, 127
2, 57729, Control_c, 0, 64, 0
2, 57735, Note_on_c, 0, 71, 0
2, 57783, Note_on_c, 0, 79, 0
2, 57783, Note_on_c, 0, 67, 93
2, 57787, Control_c, 0, 64, 0
2, 57802, Control_c, 0, 64, 127
2, 57840, Note_on_c, 0, 67, 80
2, 57843, Note_on_c, 0, 67, 0
2, 57843, Note_on_c, 0, 72, 93
2, 57849, Control_c, 0, 64, 127
2, 57852, Control_c, 0, 64, 0
2, 57870, Control_c, 0, 64, 127
2, 57902, Note_on_c, 0, 72, 0
2, 57902, Note_on_c, 0, 76, 98
2, 57912, Control_c, 0, 64, 0
2, 57929, Control_c, 0, 64, 127
2, 57930, Note_on_c, 0, 67, 0
2, 57961, Note_on_c, 0, 74, 98
2, 57965, Note_on_c, 0, 76, 0
2, 57969, Control_c, 0, 64, 0
2, 57984, Control_c, 0, 64, 127
2, 58020, Note_on_c, 0, 74, 0
2, 58020, Note_on_c, 0, 71, 93
2, 58026, Control_c, 0, 64, 0
2, 58040, Control_c, 0, 64, 127
2, 58080, Note_on_c, 0, 67, 89
2, 58082, Note_on_c, 0, 71, 0
2, 58082, Note_on_c, 0, 79, 98
2, 58085, Control_c, 0, 64, 0
2, 58086, Control_c, 0, 64, 0
2, 58101, Control_c, 0, 64, 127
2, 58110, Control_c, 0, 64, 127
2, 58259, Note_on_c, 0, 79, 0
2, 58263, Note_on_c, 0, 76, 93
2, 58265, Control_c, 0, 64, 0
2, 58279, Control_c, 0, 64, 127
2, 58311, Note_on_c, 0, 76, 0
2, 58311, Note_on_c, 0, 72, 89
2, 58319, Control_c, 0, 64, 0
2, 58320, Note_on_c, 0, 67, 0
2, 58320, Note_on_c, 0, 62, 89
2, 58321, Note_on_c, 0, 72, 0
2, 58324, Note_on_c, 0, 74, 93
2, 58331, Control_c, 0, 64, 0
2, 58337, Control_c, 0, 64, 127
2, 58371, Control_c, 0, 64, 127
2, 58379, Control_c, 0, 64, 0
2, 58379, Note_on_c, 0, 71, 93
2, 58381, Note_on_c, 0, 74, 0
2, 58393, Control_c, 0, 64, 127
2, 58425, Note_on_c, 0, 71, 0
2, 58425, Note_on_c, 0, 67, 93
2, 58436, Note_on_c, 0, 67, 0
2, 58437, Control_c, 0, 64, 0
2, 58440, Note_on_c, 0, 69, 98
2, 58454, Control_c, 0, 64, 127
2, 58481, Note_on_c, 0, 69, 0
2, 58482, Note_on_c, 0, 71, 85
2, 58491, Note_on_c, 0, 69, 85
2, 58493, Control_c, 0, 64, 0
2, 58494, Note_on_c, 0, 71, 0
2, 58498, Note_on_c, 0, 69, 0
2, 58498, Note_on_c, 0, 67, 76
2, 58500, Control_c, 0, 64, 0
2, 58500, Note_on_c, 0, 60, 85
2, 58505, Note_on_c, 0, 67, 0
2, 58505, Note_on_c, 0, 69, 93
2, 58515, Control_c, 0, 64, 127
2, 58545, Note_on_c, 0, 60, 0
2, 58545, Note_on_c, 0, 62, 0
2, 58548, Note_on_c, 0, 69, 0
2, 58550, Note_on_c, 0, 71, 76
2, 58560, Note_on_c, 0, 62, 62
2, 58560, Note_on_c, 0, 59, 76
2, 58564, Note_on_c, 0, 71, 0
2, 58566, Note_on_c, 0, 67, 98
2, 58571, Control_c, 0, 64, 0
2, 58576, Control_c, 0, 64, 127
2, 58591, Control_c, 0, 64, 127
2, 58627, Note_on_c, 0, 67, 0
2, 58627, Control_c, 0, 64, 0
2, 58635, Note_on_c, 0, 59, 0
2, 58635, Note_on_c, 0, 62, 0
2, 58645, Control_c, 0, 64, 0
2, 58680, Note_on_c, 0, 60, 76
2, 58680, Note_on_c, 0, 62, 72
2, 58682, Control_c, 0, 64, 127
2, 58682, Note_on_c, 0, 69, 93
2, 58689, Control_c, 0, 64, 127
2, 58710, Note_on_c, 0, 62, 0
2, 58710, Note_on_c, 0, 60, 0
2, 58722, Note_on_c, 0, 69, 0
2, 58724, Note_on_c, 0, 71, 80
2, 58731, Note_on_c, 0, 69, 80
2, 58734, Note_on_c, 0, 71, 0
2, 58735, Control_c, 0, 64, 0
2, 58737, Note_on_c, 0, 69, 0
2, 58738, Note_on_c, 0, 67, 80
2, 58740, Note_on_c, 0, 60, 76
2, 58740, Note_on_c, 0, 62, 80
2, 58746, Note_on_c, 0, 69, 93
2, 58747, Note_on_c, 0, 67, 0
2, 58770, Note_on_c, 0, 60, 0
2, 58770, Note_on_c, 0, 62, 0
2, 58785, Note_on_c, 0, 69, 0
2, 58785, Note_on_c, 0, 71, 80
2, 58795, Note_on_c, 0, 71, 0
2, 58797, Control_c, 0, 64, 0
2, 58800, Note_on_c, 0, 62, 76
2, 58800, Note_on_c, 0, 59, 80
2, 58800, Control_c, 0, 64, 127
2, 58809, Note_on_c, 0, 67, 93
2, 58810, Control_c, 0, 64, 0
2, 58815, Control_c, 0, 64, 127
2, 58818, Note_on_c, 0, 67, 0
2, 58823, Note_on_c, 0, 69, 93
2, 58833, Note_on_c, 0, 69, 0
2, 58840, Note_on_c, 0, 71, 89
2, 58845, Note_on_c, 0, 59, 0
2, 58845, Note_on_c, 0, 62, 0
2, 58847, Note_on_c, 0, 71, 0
2, 58854, Note_on_c, 0, 72, 80
2, 58862, Note_on_c, 0, 72, 0
2, 58870, Note_on_c, 0, 74, 80
2, 58872, Control_c, 0, 64, 0
2, 58880, Note_on_c, 0, 74, 0
2, 58885, Note_on_c, 0, 76, 80
2, 58893, Note_on_c, 0, 76, 0
2, 58899, Note_on_c, 0, 78, 76
2, 58908, Note_on_c, 0, 78, 0
2, 58915, Note_on_c, 0, 79, 80
2, 58920, Note_on_c, 0, 72, 72
2, 58920, Note_on_c, 0, 74, 72
2, 58923, Note_on_c, 0, 79, 0
2, 58931, Control_c, 0, 64, 127
2, 58931, Note_on_c, 0, 81, 85
2, 58950, Note_on_c, 0, 74, 0
2, 58950, Note_on_c, 0, 72, 0
2, 58959, Note_on_c, 0, 81, 0
2, 58961, Note_on_c, 0, 83, 85
2, 58972, Note_on_c, 0, 83, 0
2, 58973, Note_on_c, 0, 79, 93
2, 58973, Note_on_c, 0, 81, 44
2, 58975, Note_on_c, 0, 81, 0
2, 58980, Note_on_c, 0, 74, 57
2, 58980, Note_on_c, 0, 72, 68
2, 58983, Note_on_c, 0, 81, 98
2, 58984, Note_on_c, 0, 79, 0
2, 58994, Note_on_c, 0, 74, 0
2, 58994, Note_on_c, 0, 72, 0
2, 59018, Note_on_c, 0, 81, 0
2, 59023, Note_on_c, 0, 83, 76
2, 59036, Note_on_c, 0, 83, 0
2, 59039, Note_on_c, 0, 79, 76
2, 59040, Control_c, 0, 64, 0
2, 59040, Note_on_c, 0, 71, 59
2, 59040, Note_on_c, 0, 74, 60
2, 59051, Note_on_c, 0, 79, 0
2, 59058, Control_c, 0, 64, 127
2, 59070, Note_on_c, 0, 74, 0
2, 59070, Note_on_c, 0, 71, 0
2, 59099, Note_on_c, 0, 83, 64
2, 59101, Control_c, 0, 64, 0
2, 59110, Note_on_c, 0, 83, 0
2, 59160, Note_on_c, 0, 74, 56
2, 59160, Note_on_c, 0, 71, 52
2, 59164, Note_on_c, 0, 86, 64
2, 59166, Control_c, 0, 64, 127
2, 59172, Note_on_c, 0, 86, 0
2, 59174, Note_on_c, 0, 71, 0
2, 59190, Note_on_c, 0, 74, 0
2, 59223, Note_on_c, 0, 83, 80
2, 59224, Control_c, 0, 64, 0
2, 59231, Note_on_c, 0, 83, 0
2, 59280, Note_on_c, 0, 71, 56
2, 59280, Note_on_c, 0, 74, 56
2, 59283, Note_on_c, 0, 79, 72
2, 59286, Control_c, 0, 64, 127
2, 59287, Control_c, 0, 64, 127
2, 59294, Note_on_c, 0, 74, 0
2, 59294, Note_on_c, 0, 71, 0
2, 59347, Control_c, 0, 64, 0
2, 59349, Note_on_c, 0, 79, 0
2, 59350, Control_c, 0, 64, 0
2, 59520, Control_c, 0, 121, 0
2, 59520, End_track
3, 0, Start_track
3, 0, MIDI_port, 0
3, 0, Title_t, "Secondo"
3, 0, Program_c, 1, 0
3, 15, Control_c, 1, 121, 0
3, 15, Control_c, 1, 7, 127
3, 15, Control_c, 1, 10, 44
3, 15, Control_c, 1, 91, 101
3, 720, Note_on_c, 1, 62, 94
3, 720, Note_on_c, 1, 55, 73
3, 725, Control_c, 1, 64, 127
3, 763, Note_on_c, 1, 62, 0
3, 764, Note_on_c, 1, 55, 0
3, 768, Control_c, 1, 64, 0
3, 840, Note_on_c, 1, 62, 94
3, 840, Note_on_c, 1, 50, 94
3, 853, Control_c, 1, 64, 127
3, 880, Note_on_c, 1, 50, 0
3, 881, Note_on_c, 1, 62, 0
3, 885, Control_c, 1, 64, 0
3, 960, Note_on_c, 1, 62, 94
3, 960, Note_on_c, 1, 43, 85
3, 968, Control_c, 1, 64, 127
3, 1001, Note_on_c, 1, 43, 0
3, 1001, Note_on_c, 1, 62, 0
3, 1008, Control_c, 1, 64, 0
3, 1200, Note_on_c, 1, 45, 94
3, 1200, Note_on_c, 1, 62, 98
3, 1205, Control_c, 1, 64, 127
3, 1232, Note_on_c, 1, 45, 0
3, 1233, Note_on_c, 1, 62, 0
3, 1244, Control_c, 1, 64, 0
3, 1320, Note_on_c, 1, 45, 85
3, 1320, Note_on_c, 1, 57, 98
3, 1330, Control_c, 1, 64, 127
3, 1352, Note_on_c, 1, 57, 0
3, 1352, Note_on_c, 1, 45, 0
3, 1363, Control_c, 1, 64, 0
3, 1440, Note_on_c, 1, 38, 94
3, 1440, Note_on_c, 1, 50, 94
3, 1448, Control_c, 1, 64, 127
3, 1481, Note_on_c, 1, 50, 0
3, 1482, Note_on_c, 1, 38, 0
3, 1487, Control_c, 1, 64, 0
3, 1680, Note_on_c, 1, 62, 77
3, 1680, Note_on_c, 1, 43, 60
3, 1690, Note_on_c, 1, 43, 0
3, 1690, Note_on_c, 1, 62, 0
3, 1740, Note_on_c, 1, 62, 94
3, 1740, Note_on_c, 1, 43, 77
3, 1751, Note_on_c, 1, 43, 0
3, 1751, Note_on_c, 1, 62, 0
3, 1800, Note_on_c, 1, 43, 94
3, 1800, Note_on_c, 1, 62, 107
3, 1810, Note_on_c, 1, 62, 0
3, 1811, Note_on_c, 1, 43, 0
3, 1860, Note_on_c, 1, 43, 94
3, 1860, Note_on_c, 1, 62, 107
3, 1871, Note_on_c, 1, 62, 0
3, 1874, Note_on_c, 1, 43, 0
3, 1920, Note_on_c, 1, 48, 81
3, 1920, Note_on_c, 1, 60, 90
3, 1993, Control_c, 1, 64, 127
3, 2036, Control_c, 1, 64, 0
3, 2040, Note_on_c, 1, 60, 0
3, 2040, Note_on_c, 1, 48, 0
3, 2040, Note_on_c, 1, 47, 81
3, 2040, Note_on_c, 1, 55, 81
3, 2101, Control_c, 1, 64, 127
3, 2152, Control_c, 1, 64, 0
3, 2156, Note_on_c, 1, 47, 0
3, 2160, Note_on_c, 1, 48, 81
3, 2220, Note_on_c, 1, 67, 94
3, 2226, Control_c, 1, 64, 127
3, 2227, Note_on_c, 1, 55, 0
3, 2242, Note_on_c, 1, 67, 0
3, 2243, Note_on_c, 1, 48, 0
3, 2274, Control_c, 1, 64, 0
3, 2280, Note_on_c, 1, 67, 85
3, 2280, Note_on_c, 1, 50, 94
3, 2293, Note_on_c, 1, 67, 0
3, 2295, Note_on_c, 1, 66, 77
3, 2308, Note_on_c, 1, 66, 0
3, 2310, Note_on_c, 1, 67, 85
3, 2321, Note_on_c, 1, 67, 0
3, 2325, Note_on_c, 1, 66, 65
3, 2339, Note_on_c, 1, 66, 0
3, 2340, Note_on_c, 1, 67, 77
3, 2355, Note_on_c, 1, 66, 85
3, 2356, Note_on_c, 1, 67, 0
3, 2367, Note_on_c, 1, 66, 0
3, 2370, Note_on_c, 1, 64, 73
3, 2383, Note_on_c, 1, 64, 0
3, 2385, Note_on_c, 1, 66, 77
3, 2392, Note_on_c, 1, 50, 0
3, 2398, Note_on_c, 1, 66, 0
3, 2400, Note_on_c, 1, 67, 85
3, 2400, Note_on_c, 1, 43, 81
3, 2422, Control_c, 1, 64, 127
3, 2454, Control_c, 1, 64, 0
3, 2460, Note_on_c, 1, 43, 0
3, 2460, Note_on_c, 1, 47, 85
3, 2501, Note_on_c, 1, 47, 0
3, 2505, Note_on_c, 1, 50, 81
3, 2514, Note_on_c, 1, 67, 0
3, 2519, Note_on_c, 1, 50, 0
3, 2520, Note_on_c, 1, 55, 65
3, 2558, Note_on_c, 1, 55, 0
3, 2640, Note_on_c, 1, 62, 69
3, 2640, Note_on_c, 1, 55, 60
3, 2652, Note_on_c, 1, 62, 0
3, 2656, Note_on_c, 1, 55, 0
3, 2656, Control_c, 1, 64, 127
3, 2663, Control_c, 1, 64, 0
3, 2760, Note_on_c, 1, 62, 61
3, 2760, Note_on_c, 1, 50, 67
3, 2767, Control_c, 1, 64, 127
3, 2773, Note_on_c, 1, 50, 0
3, 2775, Note_on_c, 1, 62, 0
3, 2779, Control_c, 1, 64, 0
3, 2880, Note_on_c, 1, 62, 81
3, 2880, Note_on_c, 1, 43, 73
3, 2889, Control_c, 1, 64, 127
3, 2892, Note_on_c, 1, 43, 0
3, 2893, Note_on_c, 1, 62, 0
3, 2917, Control_c, 1, 64, 0
3, 3120, Note_on_c, 1, 45, 69
3, 3120, Note_on_c, 1, 62, 67
3, 3130, Control_c, 1, 64, 127
3, 3136, Control_c, 1, 64, 0
3, 3141, Note_on_c, 1, 62, 0
3, 3145, Note_on_c, 1, 45, 0
3, 3240, Note_on_c, 1, 57, 77
3, 3240, Note_on_c, 1, 45, 67
3, 3247, Control_c, 1, 64, 127
3, 3258, Note_on_c, 1, 57, 0
3, 3259, Note_on_c, 1, 45, 0
3, 3264, Control_c, 1, 64, 0
3, 3360, Note_on_c, 1, 50, 64
3, 3360, Note_on_c, 1, 38, 64
3, 3367, Control_c, 1, 64, 127
3, 3378, Note_on_c, 1, 50, 0
3, 3380, Control_c, 1, 64, 0
3, 3381, Note_on_c, 1, 38, 0
3, 3600, Note_on_c, 1, 43, 61
3, 3600, Note_on_c, 1, 62, 56
3, 3608, Note_on_c, 1, 43, 0
3, 3610, Note_on_c, 1, 62, 0
3, 3660, Note_on_c, 1, 62, 77
3, 3660, Note_on_c, 1, 43, 81
3, 3671, Note_on_c, 1, 43, 0
3, 3671, Note_on_c, 1, 62, 0
3, 3720, Note_on_c, 1, 43, 81
3, 3720, Note_on_c, 1, 62, 90
3, 3732, Note_on_c, 1, 62, 0
3, 3735, Note_on_c, 1, 43, 0
3, 3780, Note_on_c, 1, 43, 77
3, 3780, Note_on_c, 1, 62, 85
3, 3792, Note_on_c, 1, 62, 0
3, 3793, Note_on_c, 1, 43, 0
3, 3840, Note_on_c, 1, 60, 81
3, 3840, Note_on_c, 1, 48, 67
3, 3910, Control_c, 1, 64, 127
3, 3954, Control_c, 1, 64, 0
3, 3960, Note_on_c, 1, 47, 65
3, 3960, Note_on_c, 1, 55, 81
3, 3961, Note_on_c, 1, 60, 0
3, 3962, Note_on_c, 1, 48, 0
3, 3998, Control_c, 1, 64, 127
3, 4067, Control_c, 1, 64, 0
3, 4073, Note_on_c, 1, 47, 0
3, 4080, Note_on_c, 1, 48, 67
3, 4110, Control_c, 1, 64, 127
3, 4140, Note_on_c, 1, 67, 81
3, 4142, Note_on_c, 1, 55, 0
3, 4156, Note_on_c, 1, 48, 0
3, 4158, Note_on_c, 1, 67, 0
3, 4190, Control_c, 1, 64, 0
3, 4200, Note_on_c, 1, 67, 77
3, 4200, Note_on_c, 1, 50, 81
3, 4214, Note_on_c, 1, 67, 0
3, 4215, Note_on_c, 1, 66, 49
3, 4224, Control_c, 1, 64, 127
3, 4228, Note_on_c, 1, 66, 0
3, 4230, Note_on_c, 1, 67, 62
3, 4245, Note_on_c, 1, 67, 0
3, 4245, Note_on_c, 1, 66, 65
3, 4254, Control_c, 1, 64, 0
3, 4259, Note_on_c, 1, 66, 0
3, 4260, Note_on_c, 1, 67, 67
3, 4275, Note_on_c, 1, 67, 0
3, 4275, Note_on_c, 1, 66, 77
3, 4279, Control_c, 1, 64, 127
3, 4288, Note_on_c, 1, 66, 0
3, 4290, Note_on_c, 1, 64, 65
3, 4304, Note_on_c, 1, 64, 0
3, 4305, Note_on_c, 1, 66, 64
3, 4309, Control_c, 1, 64, 0
3, 4317, Note_on_c, 1, 66, 0
3, 4318, Note_on_c, 1, 50, 0
3, 4320, Note_on_c, 1, 67, 77
3, 4320, Note_on_c, 1, 43, 73
3, 4346, Control_c, 1, 64, 127
3, 4367, Control_c, 1, 64, 0
3, 4376, Note_on_c, 1, 43, 0
3, 4380, Note_on_c, 1, 47, 77
3, 4420, Note_on_c, 1, 47, 0
3, 4425, Note_on_c, 1, 50, 73
3, 4439, Note_on_c, 1, 50, 0
3, 4440, Note_on_c, 1, 55, 77
3, 4444, Note_on_c, 1, 67, 0
3, 4482, Note_on_c, 1, 55, 0
3, 4740, Note_on_c, 1, 47, 90
3, 4751, Control_c, 1, 64, 127
3, 4797, Note_on_c, 1, 47, 0
3, 4800, Note_on_c, 1, 52, 98
3, 4800, Note_on_c, 1, 40, 85
3, 4801, Control_c, 1, 64, 0
3, 4840, Control_c, 1, 64, 127
3, 4860, Note_on_c, 1, 55, 94
3, 4861, Note_on_c, 1, 52, 0
3, 4918, Note_on_c, 1, 40, 0
3, 4919, Control_c, 1, 64, 0
3, 4920, Note_on_c, 1, 55, 0
3, 4920, Note_on_c, 1, 53, 98
3, 4920, Note_on_c, 1, 43, 81
3, 4950, Control_c, 1, 64, 127
3, 4969, Control_c, 1, 64, 0
3, 4980, Note_on_c, 1, 50, 90
3, 4981, Note_on_c, 1, 53, 0
3, 4999, Control_c, 1, 64, 127
3, 5033, Control_c, 1, 64, 0
3, 5038, Note_on_c, 1, 43, 0
3, 5039, Note_on_c, 1, 50, 0
3, 5040, Note_on_c, 1, 48, 94
3, 5040, Note_on_c, 1, 36, 67
3, 5074, Control_c, 1, 64, 127
3, 5152, Control_c, 1, 64, 0
3, 5158, Note_on_c, 1, 36, 0
3, 5163, Note_on_c, 1, 48, 0
3, 5220, Note_on_c, 1, 49, 98
3, 5224, Control_c, 1, 64, 127
3, 5239, Note_on_c, 1, 49, 0
3, 5269, Control_c, 1, 64, 0
3, 5280, Note_on_c, 1, 50, 98
3, 5340, Note_on_c, 1, 61, 90
3, 5361, Control_c, 1, 64, 127
3, 5392, Control_c, 1, 64, 0
3, 5399, Note_on_c, 1, 61, 0
3, 5400, Note_on_c, 1, 62, 94
3, 5432, Control_c, 1, 64, 127
3, 5447, Control_c, 1, 64, 0
3, 5458, Note_on_c, 1, 62, 0
3, 5460, Note_on_c, 1, 54, 81
3, 5486, Control_c, 1, 64, 127
3, 5500, Note_on_c, 1, 50, 0
3, 5504, Note_on_c, 1, 54, 0
3, 5508, Control_c, 1, 64, 0
3, 5520, Note_on_c, 1, 50, 98
3, 5520, Note_on_c, 1, 55, 90
3, 5540, Control_c, 1, 64, 127
3, 5567, Control_c, 1, 64, 0
3, 5580, Note_on_c, 1, 55, 0
3, 5580, Note_on_c, 1, 57, 94
3, 5620, Note_on_c, 1, 57, 0
3, 5625, Note_on_c, 1, 59, 77
3, 5640, Note_on_c, 1, 60, 81
3, 5642, Note_on_c, 1, 59, 0
3, 5665, Control_c, 1, 64, 127
3, 5689, Control_c, 1, 64, 0
3, 5700, Note_on_c, 1, 64, 90
3, 5700, Note_on_c, 1, 59, 94
3, 5701, Note_on_c, 1, 60, 0
3, 5724, Control_c, 1, 64, 127
3, 5749, Control_c, 1, 64, 0
3, 5760, Note_on_c, 1, 59, 0
3, 5760, Note_on_c, 1, 57, 90
3, 5781, Control_c, 1, 64, 127
3, 5812, Control_c, 1, 64, 0
3, 5820, Note_on_c, 1, 62, 90
3, 5826, Note_on_c, 1, 64, 0
3, 5837, Control_c, 1, 64, 127
3, 5862, Control_c, 1, 64, 0
3, 5863, Note_on_c, 1, 62, 0
3, 5865, Note_on_c, 1, 60, 77
3, 5868, Note_on_c, 1, 57, 0
3, 5874, Note_on_c, 1, 50, 0
3, 5879, Note_on_c, 1, 60, 0
3, 5880, Note_on_c, 1, 59, 67
3, 5939, Note_on_c, 1, 59, 0
3, 5940, Note_on_c, 1, 57, 81
3, 5961, Control_c, 1, 64, 127
3, 5989, Control_c, 1, 64, 0
3, 5999, Note_on_c, 1, 57, 0
3, 6000, Note_on_c, 1, 55, 85
3, 6000, Note_on_c, 1, 43, 69
3, 6027, Control_c, 1, 64, 127
3, 6046, Note_on_c, 1, 43, 0
3, 6046, Control_c, 1, 64, 0
3, 6120, Note_on_c, 1, 38, 81
3, 6153, Note_on_c, 1, 38, 0
3, 6177, Note_on_c, 1, 55, 0
3, 6180, Note_on_c, 1, 50, 90
3, 6240, Note_on_c, 1, 43, 85
3, 6240, Note_on_c, 1, 55, 90
3, 6241, Note_on_c, 1, 50, 0
3, 6259, Control_c, 1, 64, 127
3, 6273, Control_c, 1, 64, 0
3, 6284, Note_on_c, 1, 43, 0
3, 6300, Note_on_c, 1, 59, 94
3, 6301, Note_on_c, 1, 55, 0
3, 6357, Note_on_c, 1, 59, 0
3, 6360, Note_on_c, 1, 57, 90
3, 6360, Note_on_c, 1, 50, 81
3, 6378, Control_c, 1, 64, 127
3, 6391, Control_c, 1, 64, 0
3, 6394, Note_on_c, 1, 50, 0
3, 6418, Note_on_c, 1, 57, 0
3, 6420, Note_on_c, 1, 54, 85
3, 6479, Note_on_c, 1, 54, 0
3, 6480, Note_on_c, 1, 62, 98
3, 6480, Note_on_c, 1, 47, 77
3, 6538, Note_on_c, 1, 47, 0
3, 6540, Note_on_c, 1, 43, 90
3, 6570, Note_on_c, 1, 47, 73
3, 6575, Note_on_c, 1, 43, 0
3, 6587, Note_on_c, 1, 47, 0
3, 6600, Note_on_c, 1, 50, 90
3, 6613, Control_c, 1, 64, 127
3, 6625, Note_on_c, 1, 62, 0
3, 6648, Control_c, 1, 64, 0
3, 6658, Note_on_c, 1, 50, 0
3, 6660, Note_on_c, 1, 38, 94
3, 6660, Note_on_c, 1, 67, 94
3, 6675, Note_on_c, 1, 66, 55
3, 6679, Note_on_c, 1, 67, 0
3, 6690, Note_on_c, 1, 66, 0
3, 6690, Note_on_c, 1, 64, 73
3, 6705, Note_on_c, 1, 66, 62
3, 6706, Note_on_c, 1, 64, 0
3, 6715, Note_on_c, 1, 38, 0
3, 6716, Note_on_c, 1, 66, 0
3, 6720, Note_on_c, 1, 43, 77
3, 6720, Note_on_c, 1, 67, 85
3, 6780, Note_on_c, 1, 47, 85
3, 6782, Note_on_c, 1, 43, 0
3, 6810, Note_on_c, 1, 50, 81
3, 6818, Note_on_c, 1, 47, 0
3, 6831, Note_on_c, 1, 50, 0
3, 6840, Note_on_c, 1, 55, 75
3, 6902, Note_on_c, 1, 55, 0
3, 6906, Note_on_c, 1, 67, 0
3, 7138, Control_c, 1, 64, 127
3, 7140, Note_on_c, 1, 47, 65
3, 7168, Note_on_c, 1, 47, 0
3, 7200, Note_on_c, 1, 52, 64
3, 7200, Note_on_c, 1, 40, 52
3, 7206, Control_c, 1, 64, 0
3, 7232, Control_c, 1, 64, 127
3, 7256, Note_on_c, 1, 52, 0
3, 7260, Note_on_c, 1, 55, 57
3, 7315, Note_on_c, 1, 40, 0
3, 7318, Note_on_c, 1, 55, 0
3, 7318, Control_c, 1, 64, 0
3, 7320, Note_on_c, 1, 53, 67
3, 7320, Note_on_c, 1, 43, 44
3, 7349, Control_c, 1, 64, 127
3, 7380, Note_on_c, 1, 50, 58
3, 7382, Note_on_c, 1, 53, 0
3, 7382, Control_c, 1, 64, 0
3, 7408, Control_c, 1, 64, 127
3, 7438, Note_on_c, 1, 50, 0
3, 7440, Note_on_c, 1, 43, 0
3, 7440, Note_on_c, 1, 48, 61
3, 7440, Note_on_c, 1, 36, 47
3, 7442, Control_c, 1, 64, 0
3, 7482, Control_c, 1, 64, 127
3, 7509, Note_on_c, 1, 36, 0
3, 7512, Note_on_c, 1, 48, 0
3, 7555, Control_c, 1, 64, 0
3, 7620, Note_on_c, 1, 49, 69
3, 7640, Control_c, 1, 64, 127
3, 7674, Control_c, 1, 64, 0
3, 7680, Note_on_c, 1, 50, 73
3, 7683, Note_on_c, 1, 49, 0
3, 7740, Note_on_c, 1, 61, 58
3, 7775, Control_c, 1, 64, 127
3, 7794, Control_c, 1, 64, 0
3, 7800, Note_on_c, 1, 61, 0
3, 7800, Note_on_c, 1, 62, 61
3, 7838, Control_c, 1, 64, 127
3, 7852, Note_on_c, 1, 62, 0
3, 7853, Control_c, 1, 64, 0
3, 7860, Note_on_c, 1, 54, 64
3, 7878, Control_c, 1, 64, 127
3, 7892, Note_on_c, 1, 50, 0
3, 7898, Note_on_c, 1, 54, 0
3, 7910, Control_c, 1, 64, 0
3, 7920, Note_on_c, 1, 50, 81
3, 7920, Note_on_c, 1, 55, 62
3, 7946, Control_c, 1, 64, 127
3, 7972, Control_c, 1, 64, 0
3, 7975, Note_on_c, 1, 55, 0
3, 7980, Note_on_c, 1, 57, 60
3, 8010, Note_on_c, 1, 59, 77
3, 8015, Note_on_c, 1, 57, 0
3, 8030, Note_on_c, 1, 59, 0
3, 8040, Note_on_c, 1, 60, 62
3, 8075, Control_c, 1, 64, 127
3, 8095, Control_c, 1, 64, 0
3, 8100, Note_on_c, 1, 64, 69
3, 8100, Note_on_c, 1, 59, 62
3, 8101, Note_on_c, 1, 60, 0
3, 8134, Control_c, 1, 64, 127
3, 8154, Note_on_c, 1, 59, 0
3, 8160, Note_on_c, 1, 57, 67
3, 8161, Control_c, 1, 64, 0
3, 8193, Control_c, 1, 64, 127
3, 8220, Note_on_c, 1, 62, 65
3, 8221, Note_on_c, 1, 64, 0
3, 8221, Control_c, 1, 64, 0
3, 8251, Control_c, 1, 64, 127
3, 8258, Note_on_c, 1, 62, 0
3, 8262, Control_c, 1, 64, 0
3, 8265, Note_on_c, 1, 60, 64
3, 8268, Note_on_c, 1, 57, 0
3, 8274, Note_on_c, 1, 50, 0
3, 8280, Note_on_c, 1, 59, 62
3, 8283, Note_on_c, 1, 60, 0
3, 8333, Note_on_c, 1, 59, 0
3, 8340, Note_on_c, 1, 57, 65
3, 8358, Control_c, 1, 64, 127
3, 8396, Control_c, 1, 64, 0
3, 8400, Note_on_c, 1, 43, 65
3, 8400, Note_on_c, 1, 55, 73
3, 8404, Note_on_c, 1, 57, 0
3, 8423, Control_c, 1, 64, 127
3, 8448, Note_on_c, 1, 43, 0
3, 8449, Note_on_c, 1, 55, 0
3, 8454, Control_c, 1, 64, 0
3, 8520, Note_on_c, 1, 38, 67
3, 8533, Control_c, 1, 64, 127
3, 8579, Control_c, 1, 64, 0
3, 8580, Note_on_c, 1, 50, 65
3, 8583, Note_on_c, 1, 38, 0
3, 8634, Note_on_c, 1, 50, 0
3, 8640, Note_on_c, 1, 55, 81
3, 8640, Note_on_c, 1, 43, 60
3, 8664, Control_c, 1, 64, 127
3, 8671, Control_c, 1, 64, 0
3, 8696, Note_on_c, 1, 43, 0
3, 8700, Note_on_c, 1, 55, 0
3, 8700, Note_on_c, 1, 59, 81
3, 8760, Note_on_c, 1, 59, 0
3, 8760, Note_on_c, 1, 57, 94
3, 8760, Note_on_c, 1, 50, 81
3, 8820, Note_on_c, 1, 54, 81
3, 8822, Note_on_c, 1, 57, 0
3, 8826, Control_c, 1, 64, 127
3, 8833, Note_on_c, 1, 50, 0
3, 8875, Control_c, 1, 64, 0
3, 8876, Note_on_c, 1, 54, 0
3, 8880, Note_on_c, 1, 47, 77
3, 8880, Note_on_c, 1, 62, 94
3, 8908, Control_c, 1, 64, 127
3, 8933, Control_c, 1, 64, 0
3, 8940, Note_on_c, 1, 47, 0
3, 8940, Note_on_c, 1, 43, 94
3, 8970, Note_on_c, 1, 47, 81
3, 8978, Note_on_c, 1, 43, 0
3, 8990, Note_on_c, 1, 47, 0
3, 9000, Note_on_c, 1, 50, 94
3, 9005, Note_on_c, 1, 62, 0
3, 9012, Control_c, 1, 64, 127
3, 9053, Control_c, 1, 64, 0
3, 9058, Note_on_c, 1, 50, 0
3, 9060, Note_on_c, 1, 38, 81
3, 9060, Note_on_c, 1, 67, 81
3, 9075, Note_on_c, 1, 67, 0
3, 9075, Note_on_c, 1, 66, 65
3, 9088, Note_on_c, 1, 66, 0
3, 9090, Note_on_c, 1, 64, 81
3, 9103, Note_on_c, 1, 64, 0
3, 9105, Note_on_c, 1, 66, 81
3, 9117, Note_on_c, 1, 66, 0
3, 9117, Note_on_c, 1, 38, 0
3, 9120, Note_on_c, 1, 67, 85
3, 9120, Note_on_c, 1, 43, 81
3, 9143, Control_c, 1, 64, 127
3, 9171, Control_c, 1, 64, 0
3, 9178, Note_on_c, 1, 43, 0
3, 9180, Note_on_c, 1, 47, 81
3, 9217, Note_on_c, 1, 47, 0
3, 9225, Note_on_c, 1, 50, 77
3, 9240, Note_on_c, 1, 55, 81
3, 9248, Note_on_c, 1, 50, 0
3, 9303, Note_on_c, 1, 55, 0
3, 9304, Note_on_c, 1, 67, 0
3, 9360, Note_on_c, 1, 55, 73
3, 9360, Note_on_c, 1, 62, 85
3, 9360, Control_c, 1, 64, 127
3, 9470, Note_on_c, 1, 55, 0
3, 9478, Note_on_c, 1, 50, 94
3, 9478, Control_c, 1, 64, 0
3, 9504, Control_c, 1, 64, 127
3, 9516, Note_on_c, 1, 62, 0
3, 9543, Note_on_c, 1, 62, 94
3, 9570, Note_on_c, 1, 50, 0
3, 9578, Note_on_c, 1, 62, 0
3, 9600, Control_c, 1, 64, 0
3, 9601, Note_on_c, 1, 62, 94
3, 9601, Note_on_c, 1, 43, 81
3, 9634, Control_c, 1, 64, 127
3, 9716, Control_c, 1, 64, 0
3, 9720, Note_on_c, 1, 43, 0
3, 9720, Note_on_c, 1, 62, 0
3, 9840, Note_on_c, 1, 45, 81
3, 9841, Note_on_c, 1, 62, 94
3, 9864, Control_c, 1, 64, 127
3, 9956, Control_c, 1, 64, 0
3, 9960, Note_on_c, 1, 61, 90
3, 9962, Note_on_c, 1, 62, 0
3, 9981, Control_c, 1, 64, 127
3, 9994, Note_on_c, 1, 45, 0
3, 10022, Note_on_c, 1, 45, 94
3, 10043, Note_on_c, 1, 45, 0
3, 10049, Note_on_c, 1, 61, 0
3, 10076, Control_c, 1, 64, 0
3, 10081, Note_on_c, 1, 61, 94
3, 10081, Note_on_c, 1, 50, 90
3, 10103, Control_c, 1, 64, 127
3, 10136, Control_c, 1, 64, 0
3, 10138, Note_on_c, 1, 50, 0
3, 10141, Note_on_c, 1, 45, 77
3, 10161, Control_c, 1, 64, 127
3, 10170, Note_on_c, 1, 64, 81
3, 10171, Note_on_c, 1, 61, 0
3, 10197, Note_on_c, 1, 64, 0
3, 10197, Note_on_c, 1, 45, 0
3, 10197, Control_c, 1, 64, 0
3, 10200, Note_on_c, 1, 62, 85
3, 10200, Note_on_c, 1, 38, 77
3, 10223, Control_c, 1, 64, 127
3, 10261, Note_on_c, 1, 62, 0
3, 10262, Note_on_c, 1, 38, 0
3, 10267, Control_c, 1, 64, 0
3, 10326, Note_on_c, 1, 65, 60
3, 10326, Note_on_c, 1, 62, 67
3, 10327, Note_on_c, 1, 43, 56
3, 10327, Note_on_c, 1, 55, 49
3, 10338, Control_c, 1, 64, 127
3, 10358, Note_on_c, 1, 55, 0
3, 10358, Note_on_c, 1, 43, 0
3, 10358, Note_on_c, 1, 65, 0
3, 10359, Note_on_c, 1, 62, 0
3, 10382, Note_on_c, 1, 65, 77
3, 10382, Note_on_c, 1, 62, 81
3, 10383, Note_on_c, 1, 43, 73
3, 10383, Note_on_c, 1, 55, 62
3, 10414, Note_on_c, 1, 43, 0
3, 10415, Note_on_c, 1, 55, 0
3, 10416, Note_on_c, 1, 65, 0
3, 10417, Note_on_c, 1, 62, 0
3, 10440, Note_on_c, 1, 62, 94
3, 10440, Note_on_c, 1, 65, 98
3, 10441, Note_on_c, 1, 43, 77
3, 10441, Note_on_c, 1, 55, 77
3, 10475, Note_on_c, 1, 55, 0
3, 10475, Note_on_c, 1, 43, 0
3, 10477, Note_on_c, 1, 62, 0
3, 10478, Note_on_c, 1, 65, 0
3, 10500, Note_on_c, 1, 62, 94
3, 10500, Note_on_c, 1, 65, 90
3, 10501, Note_on_c, 1, 43, 81
3, 10501, Note_on_c, 1, 55, 73
3, 10531, Note_on_c, 1, 55, 0
3, 10534, Note_on_c, 1, 43, 0
3, 10540, Note_on_c, 1, 62, 0
3, 10545, Note_on_c, 1, 65, 0
3, 10565, Note_on_c, 1, 64, 94
3, 10565, Note_on_c, 1, 60, 90
3, 10565, Note_on_c, 1, 55, 85
3, 10565, Control_c, 1, 64, 0
3, 10566, Note_on_c, 1, 43, 81
3, 10605, Control_c, 1, 64, 127
3, 10640, Note_on_c, 1, 64, 0
3, 10647, Note_on_c, 1, 60, 0
3, 10654, Note_on_c, 1, 55, 0
3, 10681, Control_c, 1, 64, 0
3, 10681, Note_on_c, 1, 62, 77
3, 10684, Note_on_c, 1, 55, 61
3, 10709, Control_c, 1, 64, 127
3, 10733, Note_on_c, 1, 55, 0
3, 10734, Control_c, 1, 64, 0
3, 10735, Note_on_c, 1, 62, 0
3, 10736, Note_on_c, 1, 43, 0
3, 10801, Note_on_c, 1, 64, 98
3, 10802, Note_on_c, 1, 48, 81
3, 10840, Control_c, 1, 64, 127
3, 10927, Control_c, 1, 64, 0
3, 10932, Note_on_c, 1, 48, 0
3, 10932, Note_on_c, 1, 64, 0
3, 10981, Note_on_c, 1, 50, 85
3, 10981, Note_on_c, 1, 62, 98
3, 10990, Control_c, 1, 64, 127
3, 11015, Note_on_c, 1, 50, 0
3, 11020, Note_on_c, 1, 62, 0
3, 11038, Control_c, 1, 64, 0
3, 11041, Note_on_c, 1, 62, 85
3, 11041, Note_on_c, 1, 55, 69
3, 11069, Control_c, 1, 64, 127
3, 11099, Control_c, 1, 64, 0
3, 11100, Note_on_c, 1, 55, 0
3, 11102, Note_on_c, 1, 50, 69
3, 11119, Control_c, 1, 64, 127
3, 11148, Note_on_c, 1, 50, 0
3, 11148, Note_on_c, 1, 62, 0
3, 11160, Control_c, 1, 64, 0
3, 11164, Note_on_c, 1, 62, 77
3, 11165, Note_on_c, 1, 43, 77
3, 11182, Control_c, 1, 64, 127
3, 11223, Note_on_c, 1, 43, 0
3, 11223, Note_on_c, 1, 62, 0
3, 11224, Control_c, 1, 64, 0
3, 11281, Note_on_c, 1, 55, 61
3, 11281, Note_on_c, 1, 62, 67
3, 11301, Control_c, 1, 64, 127
3, 11396, Control_c, 1, 64, 0
3, 11400, Note_on_c, 1, 50, 65
3, 11401, Note_on_c, 1, 55, 0
3, 11418, Control_c, 1, 64, 127
3, 11429, Note_on_c, 1, 62, 0
3, 11463, Note_on_c, 1, 62, 77
3, 11489, Note_on_c, 1, 50, 0
3, 11493, Note_on_c, 1, 62, 0
3, 11522, Control_c, 1, 64, 0
3, 11522, Note_on_c, 1, 62, 77
3, 11525, Note_on_c, 1, 43, 51
3, 11554, Control_c, 1, 64, 127
3, 11639, Control_c, 1, 64, 0
3, 11645, Note_on_c, 1, 43, 0
3, 11646, Note_on_c, 1, 62, 0
3, 11761, Note_on_c, 1, 62, 69
3, 11761, Note_on_c, 1, 45, 64
3, 11795, Control_c, 1, 64, 127
3, 11879, Control_c, 1, 64, 0
3, 11880, Note_on_c, 1, 61, 67
3, 11882, Note_on_c, 1, 62, 0
3, 11904, Control_c, 1, 64, 127
3, 11919, Note_on_c, 1, 45, 0
3, 11944, Note_on_c, 1, 45, 81
3, 11965, Note_on_c, 1, 61, 0
3, 11985, Note_on_c, 1, 45, 0
3, 11999, Control_c, 1, 64, 0
3, 12002, Note_on_c, 1, 61, 73
3, 12006, Note_on_c, 1, 50, 65
3, 12033, Control_c, 1, 64, 127
3, 12058, Control_c, 1, 64, 0
3, 12061, Note_on_c, 1, 45, 65
3, 12062, Note_on_c, 1, 50, 0
3, 12084, Control_c, 1, 64, 127
3, 12090, Note_on_c, 1, 61, 0
3, 12090, Note_on_c, 1, 64, 69
3, 12113, Note_on_c, 1, 45, 0
3, 12116, Note_on_c, 1, 64, 0
3, 12117, Control_c, 1, 64, 0
3, 12120, Note_on_c, 1, 62, 77
3, 12121, Note_on_c, 1, 38, 65
3, 12152, Control_c, 1, 64, 127
3, 12180, Note_on_c, 1, 62, 0
3, 12182, Note_on_c, 1, 38, 0
3, 12185, Control_c, 1, 64, 0
3, 12242, Note_on_c, 1, 65, 58
3, 12242, Note_on_c, 1, 43, 60
3, 12245, Note_on_c, 1, 62, 64
3, 12245, Note_on_c, 1, 55, 54
3, 12253, Control_c, 1, 64, 127
3, 12273, Note_on_c, 1, 43, 0
3, 12275, Note_on_c, 1, 65, 0
3, 12276, Note_on_c, 1, 55, 0
3, 12277, Note_on_c, 1, 62, 0
3, 12303, Note_on_c, 1, 65, 67
3, 12304, Note_on_c, 1, 62, 67
3, 12304, Note_on_c, 1, 43, 60
3, 12304, Note_on_c, 1, 55, 60
3, 12334, Note_on_c, 1, 55, 0
3, 12334, Note_on_c, 1, 43, 0
3, 12336, Note_on_c, 1, 62, 0
3, 12336, Note_on_c, 1, 65, 0
3, 12360, Note_on_c, 1, 65, 77
3, 12360, Note_on_c, 1, 62, 90
3, 12360, Note_on_c, 1, 43, 77
3, 12361, Note_on_c, 1, 55, 69
3, 12393, Note_on_c, 1, 55, 0
3, 12393, Note_on_c, 1, 43, 0
3, 12397, Note_on_c, 1, 62, 0
3, 12398, Note_on_c, 1, 65, 0
3, 12421, Note_on_c, 1, 65, 81
3, 12422, Note_on_c, 1, 62, 94
3, 12422, Note_on_c, 1, 43, 69
3, 12423, Note_on_c, 1, 55, 64
3, 12442, Note_on_c, 1, 43, 0
3, 12445, Note_on_c, 1, 55, 0
3, 12448, Note_on_c, 1, 62, 0
3, 12448, Note_on_c, 1, 65, 0
3, 12480, Control_c, 1, 64, 0
3, 12481, Note_on_c, 1, 64, 73
3, 12481, Note_on_c, 1, 60, 67
3, 12482, Note_on_c, 1, 43, 61
3, 12482, Note_on_c, 1, 55, 55
3, 12516, Control_c, 1, 64, 127
3, 12557, Note_on_c, 1, 64, 0
3, 12564, Note_on_c, 1, 60, 0
3, 12564, Note_on_c, 1, 55, 0
3, 12569, Note_on_c, 1, 43, 0
3, 12605, Control_c, 1, 64, 0
3, 12606, Note_on_c, 1, 62, 64
3, 12606, Note_on_c, 1, 43, 61
3, 12607, Note_on_c, 1, 55, 52
3, 12625, Control_c, 1, 64, 127
3, 12640, Note_on_c, 1, 43, 0
3, 12642, Note_on_c, 1, 55, 0
3, 12644, Note_on_c, 1, 62, 0
3, 12653, Control_c, 1, 64, 0
3, 12722, Note_on_c, 1, 64, 67
3, 12722, Note_on_c, 1, 48, 62
3, 12747, Control_c, 1, 64, 127
3, 12819, Note_on_c, 1, 64, 0
3, 12819, Control_c, 1, 64, 0
3, 12820, Note_on_c, 1, 48, 0
3, 12900, Note_on_c, 1, 50, 67
3, 12900, Note_on_c, 1, 62, 77
3, 12917, Control_c, 1, 64, 127
3, 12938, Note_on_c, 1, 62, 0
3, 12942, Note_on_c, 1, 50, 0
3, 12956, Control_c, 1, 64, 0
3, 12961, Note_on_c, 1, 62, 77
3, 12961, Note_on_c, 1, 55, 62
3, 12996, Control_c, 1, 64, 127
3, 13017, Control_c, 1, 64, 0
3, 13022, Note_on_c, 1, 50, 67
3, 13024, Note_on_c, 1, 55, 0
3, 13044, Control_c, 1, 64, 127
3, 13061, Note_on_c, 1, 62, 0
3, 13063, Note_on_c, 1, 50, 0
3, 13081, Control_c, 1, 64, 0
3, 13085, Note_on_c, 1, 62, 81
3, 13085, Note_on_c, 1, 43, 61
3, 13104, Control_c, 1, 64, 127
3, 13142, Control_c, 1, 64, 0
3, 13144, Note_on_c, 1, 43, 0
3, 13146, Note_on_c, 1, 62, 0
3, 13381, Note_on_c, 1, 47, 107
3, 13393, Control_c, 1, 64, 127
3, 13404, Note_on_c, 1, 47, 0
3, 13410, Note_on_c, 1, 54, 90
3, 13426, Control_c, 1, 64, 0
3, 13436, Note_on_c, 1, 54, 0
3, 13440, Note_on_c, 1, 52, 94
3, 13441, Note_on_c, 1, 40, 77
3, 13470, Note_on_c, 1, 52, 0
3, 13473, Note_on_c, 1, 59, 103
3, 13487, Control_c, 1, 64, 127
3, 13491, Note_on_c, 1, 59, 0
3, 13496, Control_c, 1, 64, 0
3, 13502, Note_on_c, 1, 55, 103
3, 13525, Note_on_c, 1, 55, 0
3, 13529, Note_on_c, 1, 64, 98
3, 13531, Control_c, 1, 64, 127
3, 13549, Note_on_c, 1, 64, 0
3, 13551, Control_c, 1, 64, 0
3, 13552, Note_on_c, 1, 40, 0
3, 13557, Note_on_c, 1, 43, 69
3, 13558, Note_on_c, 1, 62, 98
3, 13587, Note_on_c, 1, 59, 98
3, 13588, Note_on_c, 1, 62, 0
3, 13614, Note_on_c, 1, 59, 0
3, 13616, Note_on_c, 1, 55, 94
3, 13626, Control_c, 1, 64, 127
3, 13641, Note_on_c, 1, 55, 0
3, 13648, Note_on_c, 1, 53, 85
3, 13663, Note_on_c, 1, 53, 0
3, 13675, Control_c, 1, 64, 0
3, 13677, Note_on_c, 1, 36, 94
3, 13678, Note_on_c, 1, 43, 0
3, 13678, Note_on_c, 1, 52, 103
3, 13688, Note_on_c, 1, 52, 0
3, 13709, Note_on_c, 1, 54, 103
3, 13719, Note_on_c, 1, 54, 0
3, 13723, Note_on_c, 1, 52, 81
3, 13729, Note_on_c, 1, 51, 81
3, 13731, Note_on_c, 1, 52, 0
3, 13737, Note_on_c, 1, 51, 0
3, 13742, Note_on_c, 1, 52, 103
3, 13752, Note_on_c, 1, 52, 0
3, 13770, Note_on_c, 1, 56, 94
3, 13783, Note_on_c, 1, 56, 0
3, 13787, Note_on_c, 1, 36, 0
3, 13800, Note_on_c, 1, 57, 98
3, 13821, Control_c, 1, 64, 127
3, 13857, Control_c, 1, 64, 0
3, 13860, Note_on_c, 1, 57, 0
3, 13861, Note_on_c, 1, 64, 94
3, 13861, Note_on_c, 1, 49, 77
3, 13887, Control_c, 1, 64, 127
3, 13920, Control_c, 1, 64, 0
3, 13922, Note_on_c, 1, 64, 0
3, 13922, Note_on_c, 1, 62, 98
3, 13924, Note_on_c, 1, 49, 0
3, 13925, Note_on_c, 1, 50, 81
3, 13998, Control_c, 1, 64, 127
3, 14093, Control_c, 1, 64, 0
3, 14101, Note_on_c, 1, 62, 0
3, 14146, Note_on_c, 1, 50, 0
3, 14166, Note_on_c, 1, 50, 81
3, 14166, Note_on_c, 1, 64, 81
3, 14166, Note_on_c, 1, 59, 90
3, 14166, Note_on_c, 1, 38, 77
3, 14167, Note_on_c, 1, 55, 85
3, 14190, Control_c, 1, 64, 127
3, 14360, Note_on_c, 1, 55, 0
3, 14360, Note_on_c, 1, 59, 0
3, 14360, Note_on_c, 1, 64, 0
3, 14364, Note_on_c, 1, 50, 0
3, 14365, Note_on_c, 1, 38, 0
3, 14397, Control_c, 1, 64, 0
3, 14399, Note_on_c, 1, 66, 85
3, 14400, Note_on_c, 1, 57, 94
3, 14400, Note_on_c, 1, 38, 81
3, 14401, Note_on_c, 1, 50, 73
3, 14401, Note_on_c, 1, 62, 98
3, 14401, Note_on_c, 1, 60, 94
3, 14443, Control_c, 1, 64, 127
3, 14593, Note_on_c, 1, 38, 0
3, 14597, Note_on_c, 1, 62, 0
3, 14598, Note_on_c, 1, 50, 0
3, 14598, Note_on_c, 1, 66, 0
3, 14598, Note_on_c, 1, 60, 0
3, 14598, Note_on_c, 1, 57, 0
3, 14637, Control_c, 1, 64, 0
3, 14641, Note_on_c, 1, 67, 94
3, 14641, Note_on_c, 1, 59, 94
3, 14641, Note_on_c, 1, 62, 98
3, 14641, Note_on_c, 1, 43, 81
3, 14641, Note_on_c, 1, 55, 69
3, 14667, Control_c, 1, 64, 127
3, 14707, Note_on_c, 1, 55, 0
3, 14709, Note_on_c, 1, 43, 0
3, 14721, Note_on_c, 1, 62, 0
3, 14722, Note_on_c, 1, 59, 0
3, 14722, Note_on_c, 1, 67, 0
3, 14757, Control_c, 1, 64, 0
3, 14760, Note_on_c, 1, 38, 90
3, 14760, Note_on_c, 1, 50, 81
3, 14781, Control_c, 1, 64, 127
3, 14791, Note_on_c, 1, 50, 0
3, 14791, Note_on_c, 1, 38, 0
3, 14813, Control_c, 1, 64, 0
3, 14821, Note_on_c, 1, 36, 81
3, 14821, Note_on_c, 1, 50, 77
3, 14821, Note_on_c, 1, 48, 77
3, 14839, Control_c, 1, 64, 127
3, 14843, Note_on_c, 1, 50, 0
3, 14849, Note_on_c, 1, 48, 0
3, 14852, Note_on_c, 1, 36, 0
3, 14874, Control_c, 1, 64, 0
3, 14881, Note_on_c, 1, 62, 98
3, 14881, Note_on_c, 1, 55, 85
3, 14881, Note_on_c, 1, 35, 85
3, 14881, Note_on_c, 1, 47, 81
3, 14917, Control_c, 1, 64, 127
3, 14964, Note_on_c, 1, 35, 0
3, 14971, Note_on_c, 1, 47, 0
3, 14997, Control_c, 1, 64, 0
3, 14999, Note_on_c, 1, 48, 61
3, 15000, Note_on_c, 1, 62, 0
3, 15000, Note_on_c, 1, 60, 81
3, 15000, Note_on_c, 1, 36, 64
3, 15021, Control_c, 1, 64, 127
3, 15062, Note_on_c, 1, 36, 0
3, 15064, Note_on_c, 1, 55, 0
3, 15064, Control_c, 1, 64, 0
3, 15065, Note_on_c, 1, 60, 0
3, 15067, Note_on_c, 1, 48, 0
3, 15120, Note_on_c, 1, 67, 90
3, 15121, Note_on_c, 1, 62, 94
3, 15121, Note_on_c, 1, 38, 77
3, 15121, Note_on_c, 1, 50, 77
3, 15134, Control_c, 1, 64, 127
3, 15208, Note_on_c, 1, 62, 0
3, 15209, Note_on_c, 1, 38, 0
3, 15210, Note_on_c, 1, 67, 0
3, 15211, Note_on_c, 1, 50, 0
3, 15236, Control_c, 1, 64, 0
3, 15301, Note_on_c, 1, 66, 77
3, 15302, Note_on_c, 1, 50, 90
3, 15302, Note_on_c, 1, 62, 94
3, 15313, Control_c, 1, 64, 127
3, 15326, Note_on_c, 1, 50, 0
3, 15330, Note_on_c, 1, 62, 0
3, 15332, Note_on_c, 1, 66, 0
3, 15359, Control_c, 1, 64, 0
3, 15361, Note_on_c, 1, 62, 85
3, 15361, Note_on_c, 1, 66, 77
3, 15361, Note_on_c, 1, 55, 77
3, 15386, Control_c, 1, 64, 127
3, 15417, Control_c, 1, 64, 0
3, 15418, Note_on_c, 1, 50, 77
3, 15419, Note_on_c, 1, 55, 0
3, 15440, Control_c, 1, 64, 127
3, 15450, Note_on_c, 1, 69, 81
3, 15451, Note_on_c, 1, 62, 0
3, 15452, Note_on_c, 1, 66, 0
3, 15471, Note_on_c, 1, 50, 0
3, 15473, Note_on_c, 1, 69, 0
3, 15481, Control_c, 1, 64, 0
3, 15481, Note_on_c, 1, 67, 81
3, 15484, Note_on_c, 1, 62, 81
3, 15484, Note_on_c, 1, 43, 77
3, 15514, Control_c, 1, 64, 127
3, 15539, Note_on_c, 1, 67, 0
3, 15540, Note_on_c, 1, 43, 0
3, 15542, Note_on_c, 1, 62, 0
3, 15546, Control_c, 1, 64, 0
3, 15776, Note_on_c, 1, 47, 65
3, 15778, Control_c, 1, 64, 127
3, 15804, Note_on_c, 1, 47, 0
3, 15808, Note_on_c, 1, 54, 67
3, 15829, Note_on_c, 1, 54, 0
3, 15831, Control_c, 1, 64, 0
3, 15837, Note_on_c, 1, 52, 77
3, 15838, Note_on_c, 1, 40, 62
3, 15860, Control_c, 1, 64, 127
3, 15863, Note_on_c, 1, 52, 0
3, 15869, Note_on_c, 1, 59, 77
3, 15877, Note_on_c, 1, 59, 0
3, 15894, Control_c, 1, 64, 0
3, 15898, Note_on_c, 1, 55, 65
3, 15919, Control_c, 1, 64, 127
3, 15921, Note_on_c, 1, 55, 0
3, 15924, Note_on_c, 1, 64, 85
3, 15939, Note_on_c, 1, 64, 0
3, 15947, Note_on_c, 1, 40, 0
3, 15952, Control_c, 1, 64, 0
3, 15953, Note_on_c, 1, 62, 81
3, 15954, Note_on_c, 1, 43, 61
3, 15980, Note_on_c, 1, 62, 0
3, 15983, Control_c, 1, 64, 127
3, 15990, Note_on_c, 1, 59, 64
3, 16006, Control_c, 1, 64, 0
3, 16015, Note_on_c, 1, 55, 65
3, 16022, Note_on_c, 1, 59, 0
3, 16035, Control_c, 1, 64, 127
3, 16039, Note_on_c, 1, 55, 0
3, 16044, Note_on_c, 1, 53, 81
3, 16072, Control_c, 1, 64, 0
3, 16074, Note_on_c, 1, 53, 0
3, 16074, Note_on_c, 1, 43, 0
3, 16077, Note_on_c, 1, 36, 73
3, 16077, Note_on_c, 1, 52, 85
3, 16089, Note_on_c, 1, 52, 0
3, 16113, Note_on_c, 1, 54, 77
3, 16121, Note_on_c, 1, 52, 81
3, 16122, Note_on_c, 1, 54, 0
3, 16131, Note_on_c, 1, 51, 64
3, 16132, Note_on_c, 1, 52, 0
3, 16139, Note_on_c, 1, 51, 0
3, 16141, Note_on_c, 1, 52, 94
3, 16155, Note_on_c, 1, 52, 0
3, 16166, Note_on_c, 1, 56, 90
3, 16180, Note_on_c, 1, 56, 0
3, 16189, Note_on_c, 1, 36, 0
3, 16197, Note_on_c, 1, 57, 94
3, 16216, Control_c, 1, 64, 127
3, 16250, Control_c, 1, 64, 0
3, 16254, Note_on_c, 1, 57, 0
3, 16254, Note_on_c, 1, 64, 85
3, 16254, Note_on_c, 1, 49, 65
3, 16282, Control_c, 1, 64, 127
3, 16315, Note_on_c, 1, 49, 0
3, 16315, Note_on_c, 1, 64, 0
3, 16317, Note_on_c, 1, 62, 81
3, 16318, Note_on_c, 1, 50, 65
3, 16318, Control_c, 1, 64, 0
3, 16383, Control_c, 1, 64, 127
3, 16494, Control_c, 1, 64, 0
3, 16504, Note_on_c, 1, 62, 0
3, 16523, Control_c, 1, 64, 127
3, 16530, Note_on_c, 1, 50, 0
3, 16557, Control_c, 1, 64, 0
3, 16565, Note_on_c, 1, 64, 85
3, 16565, Note_on_c, 1, 50, 69
3, 16566, Note_on_c, 1, 55, 67
3, 16566, Note_on_c, 1, 38, 81
3, 16566, Note_on_c, 1, 59, 77
3, 16604, Control_c, 1, 64, 127
3, 16765, Note_on_c, 1, 55, 0
3, 16766, Note_on_c, 1, 59, 0
3, 16766, Note_on_c, 1, 64, 0
3, 16768, Note_on_c, 1, 50, 0
3, 16772, Note_on_c, 1, 38, 0
3, 16801, Note_on_c, 1, 50, 67
3, 16801, Note_on_c, 1, 66, 73
3, 16801, Note_on_c, 1, 38, 69
3, 16801, Note_on_c, 1, 57, 69
3, 16801, Note_on_c, 1, 62, 81
3, 16802, Note_on_c, 1, 60, 69
3, 16803, Control_c, 1, 64, 0
3, 16839, Control_c, 1, 64, 127
3, 16982, Note_on_c, 1, 38, 0
3, 16986, Note_on_c, 1, 60, 0
3, 16987, Note_on_c, 1, 57, 0
3, 16988, Note_on_c, 1, 62, 0
3, 16989, Note_on_c, 1, 66, 0
3, 16989, Note_on_c, 1, 50, 0
3, 17033, Control_c, 1, 64, 0
3, 17037, Note_on_c, 1, 67, 77
3, 17038, Note_on_c, 1, 62, 81
3, 17039, Note_on_c, 1, 59, 69
3, 17039, Note_on_c, 1, 43, 67
3, 17039, Note_on_c, 1, 55, 55
3, 17067, Control_c, 1, 64, 127
3, 17113, Note_on_c, 1, 55, 0
3, 17116, Note_on_c, 1, 43, 0
3, 17157, Note_on_c, 1, 62, 0
3, 17158, Note_on_c, 1, 59, 0
3, 17159, Note_on_c, 1, 67, 0
3, 17159, Control_c, 1, 64, 0
3, 17160, Note_on_c, 1, 38, 81
3, 17160, Note_on_c, 1, 50, 77
3, 17184, Control_c, 1, 64, 127
3, 17192, Note_on_c, 1, 50, 0
3, 17196, Note_on_c, 1, 38, 0
3, 17218, Control_c, 1, 64, 0
3, 17220, Note_on_c, 1, 36, 77
3, 17220, Note_on_c, 1, 48, 69
3, 17222, Note_on_c, 1, 50, 81
3, 17223, Note_on_c, 1, 52, 77
3, 17234, Note_on_c, 1, 50, 0
3, 17235, Note_on_c, 1, 52, 0
3, 17252, Control_c, 1, 64, 127
3, 17255, Note_on_c, 1, 48, 0
3, 17255, Note_on_c, 1, 36, 0
3, 17275, Control_c, 1, 64, 0
3, 17281, Note_on_c, 1, 55, 85
3, 17281, Note_on_c, 1, 62, 94
3, 17281, Note_on_c, 1, 35, 73
3, 17281, Note_on_c, 1, 47, 67
3, 17319, Control_c, 1, 64, 127
3, 17360, Note_on_c, 1, 35, 0
3, 17366, Note_on_c, 1, 47, 0
3, 17398, Note_on_c, 1, 60, 77
3, 17399, Note_on_c, 1, 62, 0
3, 17399, Note_on_c, 1, 48, 65
3, 17399, Note_on_c, 1, 36, 65
3, 17399, Control_c, 1, 64, 0
3, 17428, Control_c, 1, 64, 127
3, 17475, Note_on_c, 1, 36, 0
3, 17476, Note_on_c, 1, 60, 0
3, 17479, Note_on_c, 1, 48, 0
3, 17479, Note_on_c, 1, 55, 0
3, 17516, Control_c, 1, 64, 0
3, 17520, Note_on_c, 1, 62, 85
3, 17520, Note_on_c, 1, 67, 98
3, 17525, Note_on_c, 1, 50, 81
3, 17525, Note_on_c, 1, 38, 77
3, 17603, Control_c, 1, 64, 127
3, 17640, Note_on_c, 1, 67, 0
3, 17640, Note_on_c, 1, 62, 0
3, 17655, Note_on_c, 1, 38, 0
3, 17664, Control_c, 1, 64, 0
3, 17667, Note_on_c, 1, 50, 0
3, 17701, Note_on_c, 1, 66, 67
3, 17701, Note_on_c, 1, 62, 69
3, 17701, Note_on_c, 1, 50, 67
3, 17722, Control_c, 1, 64, 127
3, 17727, Note_on_c, 1, 50, 0
3, 17735, Note_on_c, 1, 66, 0
3, 17741, Note_on_c, 1, 62, 0
3, 17759, Control_c, 1, 64, 0
3, 17762, Note_on_c, 1, 62, 69
3, 17762, Note_on_c, 1, 66, 67
3, 17765, Note_on_c, 1, 55, 65
3, 17796, Control_c, 1, 64, 127
3, 17816, Control_c, 1, 64, 0
3, 17820, Note_on_c, 1, 55, 0
3, 17821, Note_on_c, 1, 50, 73
3, 17846, Control_c, 1, 64, 127
3, 17848, Note_on_c, 1, 62, 0
3, 17851, Note_on_c, 1, 69, 60
3, 17852, Note_on_c, 1, 66, 0
3, 17857, Note_on_c, 1, 50, 0
3, 17871, Note_on_c, 1, 69, 0
3, 17875, Control_c, 1, 64, 0
3, 17880, Note_on_c, 1, 67, 69
3, 17884, Note_on_c, 1, 62, 65
3, 17885, Note_on_c, 1, 43, 64
3, 17904, Control_c, 1, 64, 127
3, 17914, Note_on_c, 1, 43, 0
3, 17916, Note_on_c, 1, 67, 0
3, 17919, Note_on_c, 1, 62, 0
3, 17932, Control_c, 1, 64, 0
3, 17940, Note_on_c, 1, 62, 81
3, 17959, Note_on_c, 1, 62, 0
3, 17960, Note_on_c, 1, 61, 81
3, 17979, Note_on_c, 1, 61, 0
3, 17980, Note_on_c, 1, 60, 69
3, 17999, Note_on_c, 1, 60, 0
3, 18000, Note_on_c, 1, 59, 77
3, 18000, Note_on_c, 1, 43, 94
3, 18019, Note_on_c, 1, 59, 0
3, 18020, Note_on_c, 1, 62, 77
3, 18039, Note_on_c, 1, 62, 0
3, 18040, Note_on_c, 1, 60, 81
3, 18059, Note_on_c, 1, 60, 0
3, 18060, Note_on_c, 1, 59, 77
3, 18079, Note_on_c, 1, 59, 0
3, 18080, Note_on_c, 1, 57, 69
3, 18099, Note_on_c, 1, 57, 0
3, 18100, Note_on_c, 1, 55, 81
3, 18119, Note_on_c, 1, 55, 0
3, 18120, Note_on_c, 1, 43, 0
3, 18120, Note_on_c, 1, 54, 73
3, 18120, Note_on_c, 1, 38, 98
3, 18139, Note_on_c, 1, 54, 0
3, 18140, Note_on_c, 1, 60, 85
3, 18159, Note_on_c, 1, 60, 0
3, 18160, Note_on_c, 1, 59, 77
3, 18179, Note_on_c, 1, 59, 0
3, 18180, Note_on_c, 1, 57, 81
3, 18199, Note_on_c, 1, 57, 0
3, 18200, Note_on_c, 1, 55, 77
3, 18219, Note_on_c, 1, 55, 0
3, 18220, Note_on_c, 1, 54, 73
3, 18239, Note_on_c, 1, 54, 0
3, 18240, Note_on_c, 1, 38, 0
3, 18240, Note_on_c, 1, 55, 89
3, 18240, Note_on_c, 1, 43, 90
3, 18259, Note_on_c, 1, 55, 0
3, 18260, Note_on_c, 1, 50, 89
3, 18279, Note_on_c, 1, 50, 0
3, 18280, Note_on_c, 1, 55, 77
3, 18299, Note_on_c, 1, 55, 0
3, 18300, Note_on_c, 1, 59, 89
3, 18319, Note_on_c, 1, 59, 0
3, 18320, Note_on_c, 1, 55, 77
3, 18339, Note_on_c, 1, 55, 0
3, 18340, Note_on_c, 1, 59, 81
3, 18359, Note_on_c, 1, 59, 0
3, 18360, Note_on_c, 1, 43, 0
3, 18360, Note_on_c, 1, 62, 81
3, 18379, Note_on_c, 1, 62, 0
3, 18380, Note_on_c, 1, 60, 63
3, 18399, Note_on_c, 1, 60, 0
3, 18400, Note_on_c, 1, 59, 73
3, 18419, Note_on_c, 1, 59, 0
3, 18420, Note_on_c, 1, 57, 73
3, 18439, Note_on_c, 1, 57, 0
3, 18440, Note_on_c, 1, 59, 77
3, 18459, Note_on_c, 1, 59, 0
3, 18460, Note_on_c, 1, 55, 62
3, 18479, Note_on_c, 1, 55, 0
3, 18480, Note_on_c, 1, 54, 85
3, 18480, Note_on_c, 1, 33, 98
3, 18480, Note_on_c, 1, 45, 94
3, 18499, Note_on_c, 1, 54, 0
3, 18500, Note_on_c, 1, 57, 69
3, 18519, Note_on_c, 1, 57, 0
3, 18520, Note_on_c, 1, 55, 73
3, 18539, Note_on_c, 1, 55, 0
3, 18540, Note_on_c, 1, 54, 65
3, 18559, Note_on_c, 1, 54, 0
3, 18560, Note_on_c, 1, 52, 73
3, 18579, Note_on_c, 1, 52, 0
3, 18580, Note_on_c, 1, 50, 93
3, 18599, Note_on_c, 1, 50, 0
3, 18600, Note_on_c, 1, 49, 77
3, 18619, Note_on_c, 1, 49, 0
3, 18620, Note_on_c, 1, 55, 85
3, 18639, Note_on_c, 1, 55, 0
3, 18640, Note_on_c, 1, 54, 77
3, 18659, Note_on_c, 1, 54, 0
3, 18660, Note_on_c, 1, 52, 81
3, 18679, Note_on_c, 1, 52, 0
3, 18680, Note_on_c, 1, 50, 89
3, 18699, Note_on_c, 1, 50, 0
3, 18700, Note_on_c, 1, 49, 73
3, 18719, Note_on_c, 1, 49, 0
3, 18720, Note_on_c, 1, 45, 0
3, 18720, Note_on_c, 1, 33, 0
3, 18720, Note_on_c, 1, 50, 89
3, 18720, Note_on_c, 1, 38, 98
3, 18739, Note_on_c, 1, 50, 0
3, 18740, Note_on_c, 1, 45, 89
3, 18759, Note_on_c, 1, 45, 0
3, 18760, Note_on_c, 1, 47, 85
3, 18779, Note_on_c, 1, 47, 0
3, 18779, Note_on_c, 1, 38, 0
3, 18780, Note_on_c, 1, 49, 89
3, 18799, Note_on_c, 1, 49, 0
3, 18800, Note_on_c, 1, 50, 93
3, 18819, Note_on_c, 1, 50, 0
3, 18820, Note_on_c, 1, 52, 98
3, 18839, Note_on_c, 1, 52, 0
3, 18840, Note_on_c, 1, 54, 93
3, 18859, Note_on_c, 1, 54, 0
3, 18860, Note_on_c, 1, 55, 93
3, 18879, Note_on_c, 1, 55, 0
3, 18880, Note_on_c, 1, 57, 93
3, 18899, Note_on_c, 1, 57, 0
3, 18900, Note_on_c, 1, 59, 89
3, 18919, Note_on_c, 1, 59, 0
3, 18920, Note_on_c, 1, 60, 101
3, 18939, Note_on_c, 1, 60, 0
3, 18940, Note_on_c, 1, 61, 101
3, 18959, Note_on_c, 1, 61, 0
3, 18960, Note_on_c, 1, 62, 98
3, 18960, Note_on_c, 1, 31, 98
3, 18960, Note_on_c, 1, 43, 85
3, 18979, Note_on_c, 1, 62, 0
3, 18980, Note_on_c, 1, 61, 93
3, 18999, Note_on_c, 1, 61, 0
3, 19000, Note_on_c, 1, 62, 77
3, 19019, Note_on_c, 1, 62, 0
3, 19020, Note_on_c, 1, 59, 89
3, 19039, Note_on_c, 1, 59, 0
3, 19040, Note_on_c, 1, 58, 73
3, 19059, Note_on_c, 1, 58, 0
3, 19060, Note_on_c, 1, 59, 93
3, 19079, Note_on_c, 1, 59, 0
3, 19080, Note_on_c, 1, 55, 89
3, 19099, Note_on_c, 1, 55, 0
3, 19100, Note_on_c, 1, 54, 69
3, 19119, Note_on_c, 1, 54, 0
3, 19120, Note_on_c, 1, 55, 89
3, 19139, Note_on_c, 1, 55, 0
3, 19140, Note_on_c, 1, 50, 81
3, 19159, Note_on_c, 1, 50, 0
3, 19160, Note_on_c, 1, 49, 81
3, 19179, Note_on_c, 1, 49, 0
3, 19180, Note_on_c, 1, 50, 93
3, 19199, Note_on_c, 1, 50, 0
3, 19200, Note_on_c, 1, 43, 0
3, 19200, Note_on_c, 1, 31, 0
3, 19200, Note_on_c, 1, 48, 81
3, 19200, Note_on_c, 1, 36, 90
3, 19219, Note_on_c, 1, 48, 0
3, 19220, Note_on_c, 1, 52, 89
3, 19239, Note_on_c, 1, 52, 0
3, 19240, Note_on_c, 1, 55, 89
3, 19259, Note_on_c, 1, 55, 0
3, 19259, Note_on_c, 1, 36, 0
3, 19260, Note_on_c, 1, 60, 93
3, 19279, Note_on_c, 1, 60, 0
3, 19280, Note_on_c, 1, 64, 89
3, 19299, Note_on_c, 1, 64, 0
3, 19300, Note_on_c, 1, 67, 93
3, 19319, Note_on_c, 1, 67, 0
3, 19320, Note_on_c, 1, 67, 93
3, 19320, Note_on_c, 1, 43, 98
3, 19339, Note_on_c, 1, 67, 0
3, 19340, Note_on_c, 1, 62, 89
3, 19359, Note_on_c, 1, 62, 0
3, 19360, Note_on_c, 1, 59, 81
3, 19379, Note_on_c, 1, 59, 0
3, 19379, Note_on_c, 1, 43, 0
3, 19380, Note_on_c, 1, 62, 93
3, 19399, Note_on_c, 1, 62, 0
3, 19400, Note_on_c, 1, 59, 77
3, 19419, Note_on_c, 1, 59, 0
3, 19420, Note_on_c, 1, 55, 93
3, 19439, Note_on_c, 1, 55, 0
3, 19440, Note_on_c, 1, 54, 89
3, 19440, Note_on_c, 1, 38, 98
3, 19459, Note_on_c, 1, 54, 0
3, 19460, Note_on_c, 1, 57, 89
3, 19479, Note_on_c, 1, 57, 0
3, 19480, Note_on_c, 1, 60, 85
3, 19499, Note_on_c, 1, 60, 0
3, 19500, Note_on_c, 1, 59, 89
3, 19519, Note_on_c, 1, 59, 0
3, 19520, Note_on_c, 1, 57, 89
3, 19539, Note_on_c, 1, 57, 0
3, 19540, Note_on_c, 1, 55, 81
3, 19559, Note_on_c, 1, 55, 0
3, 19560, Note_on_c, 1, 54, 93
3, 19579, Note_on_c, 1, 54, 0
3, 19580, Note_on_c, 1, 52, 89
3, 19599, Note_on_c, 1, 52, 0
3, 19600, Note_on_c, 1, 50, 89
3, 19619, Note_on_c, 1, 50, 0
3, 19620, Note_on_c, 1, 48, 89
3, 19639, Note_on_c, 1, 48, 0
3, 19640, Note_on_c, 1, 47, 93
3, 19659, Note_on_c, 1, 47, 0
3, 19660, Note_on_c, 1, 45, 93
3, 19679, Note_on_c, 1, 45, 0
3, 19680, Note_on_c, 1, 38, 0
3, 19680, Note_on_c, 1, 43, 93
3, 19680, Note_on_c, 1, 31, 94
3, 19699, Note_on_c, 1, 43, 0
3, 19700, Note_on_c, 1, 47, 89
3, 19719, Note_on_c, 1, 47, 0
3, 19720, Note_on_c, 1, 48, 89
3, 19739, Note_on_c, 1, 48, 0
3, 19739, Note_on_c, 1, 31, 0
3, 19740, Note_on_c, 1, 50, 85
3, 19759, Note_on_c, 1, 50, 0
3, 19760, Note_on_c, 1, 52, 93
3, 19779, Note_on_c, 1, 52, 0
3, 19780, Note_on_c, 1, 54, 77
3, 19799, Note_on_c, 1, 54, 0
3, 19800, Note_on_c, 1, 55, 73
3, 19819, Note_on_c, 1, 55, 0
3, 19820, Note_on_c, 1, 59, 73
3, 19839, Note_on_c, 1, 59, 0
3, 19840, Note_on_c, 1, 60, 61
3, 19859, Note_on_c, 1, 60, 0
3, 19860, Note_on_c, 1, 62, 77
3, 19879, Note_on_c, 1, 62, 0
3, 19880, Note_on_c, 1, 61, 62
3, 19899, Note_on_c, 1, 61, 0
3, 19900, Note_on_c, 1, 60, 63
3, 19919, Note_on_c, 1, 60, 0
3, 19920, Note_on_c, 1, 59, 55
3, 19920, Note_on_c, 1, 43, 67
3, 19939, Note_on_c, 1, 59, 0
3, 19940, Note_on_c, 1, 62, 77
3, 19959, Note_on_c, 1, 62, 0
3, 19960, Note_on_c, 1, 60, 63
3, 19979, Note_on_c, 1, 60, 0
3, 19980, Note_on_c, 1, 59, 63
3, 19999, Note_on_c, 1, 59, 0
3, 20000, Note_on_c, 1, 57, 62
3, 20019, Note_on_c, 1, 57, 0
3, 20020, Note_on_c, 1, 55, 65
3, 20039, Note_on_c, 1, 55, 0
3, 20040, Note_on_c, 1, 43, 0
3, 20040, Note_on_c, 1, 54, 57
3, 20040, Note_on_c, 1, 38, 69
3, 20059, Note_on_c, 1, 54, 0
3, 20060, Note_on_c, 1, 60, 77
3, 20079, Note_on_c, 1, 60, 0
3, 20080, Note_on_c, 1, 59, 55
3, 20099, Note_on_c, 1, 59, 0
3, 20100, Note_on_c, 1, 57, 73
3, 20119, Note_on_c, 1, 57, 0
3, 20120, Note_on_c, 1, 55, 51
3, 20139, Note_on_c, 1, 55, 0
3, 20140, Note_on_c, 1, 54, 65
3, 20159, Note_on_c, 1, 54, 0
3, 20160, Note_on_c, 1, 38, 0
3, 20160, Note_on_c, 1, 55, 77
3, 20160, Note_on_c, 1, 43, 69
3, 20179, Note_on_c, 1, 55, 0
3, 20180, Note_on_c, 1, 50, 63
3, 20199, Note_on_c, 1, 50, 0
3, 20200, Note_on_c, 1, 55, 73
3, 20219, Note_on_c, 1, 55, 0
3, 20220, Note_on_c, 1, 59, 73
3, 20239, Note_on_c, 1, 59, 0
3, 20240, Note_on_c, 1, 55, 59
3, 20259, Note_on_c, 1, 55, 0
3, 20260, Note_on_c, 1, 59, 63
3, 20279, Note_on_c, 1, 59, 0
3, 20280, Note_on_c, 1, 43, 0
3, 20280, Note_on_c, 1, 62, 73
3, 20299, Note_on_c, 1, 62, 0
3, 20300, Note_on_c, 1, 60, 59
3, 20319, Note_on_c, 1, 60, 0
3, 20320, Note_on_c, 1, 59, 63
3, 20339, Note_on_c, 1, 59, 0
3, 20340, Note_on_c, 1, 57, 69
3, 20359, Note_on_c, 1, 57, 0
3, 20360, Note_on_c, 1, 59, 55
3, 20379, Note_on_c, 1, 59, 0
3, 20380, Note_on_c, 1, 55, 58
3, 20399, Note_on_c, 1, 55, 0
3, 20400, Note_on_c, 1, 54, 73
3, 20400, Note_on_c, 1, 33, 61
3, 20400, Note_on_c, 1, 45, 90
3, 20419, Note_on_c, 1, 54, 0
3, 20420, Note_on_c, 1, 57, 65
3, 20439, Note_on_c, 1, 57, 0
3, 20440, Note_on_c, 1, 55, 63
3, 20459, Note_on_c, 1, 55, 0
3, 20460, Note_on_c, 1, 54, 69
3, 20479, Note_on_c, 1, 54, 0
3, 20480, Note_on_c, 1, 52, 73
3, 20499, Note_on_c, 1, 52, 0
3, 20500, Note_on_c, 1, 50, 77
3, 20519, Note_on_c, 1, 50, 0
3, 20520, Note_on_c, 1, 49, 62
3, 20539, Note_on_c, 1, 49, 0
3, 20540, Note_on_c, 1, 55, 65
3, 20559, Note_on_c, 1, 55, 0
3, 20560, Note_on_c, 1, 54, 73
3, 20579, Note_on_c, 1, 54, 0
3, 20580, Note_on_c, 1, 52, 58
3, 20599, Note_on_c, 1, 52, 0
3, 20600, Note_on_c, 1, 50, 77
3, 20619, Note_on_c, 1, 50, 0
3, 20620, Note_on_c, 1, 49, 57
3, 20639, Note_on_c, 1, 49, 0
3, 20640, Note_on_c, 1, 45, 0
3, 20640, Note_on_c, 1, 33, 0
3, 20640, Note_on_c, 1, 50, 81
3, 20640, Note_on_c, 1, 38, 81
3, 20659, Note_on_c, 1, 50, 0
3, 20660, Note_on_c, 1, 45, 65
3, 20679, Note_on_c, 1, 45, 0
3, 20680, Note_on_c, 1, 47, 81
3, 20699, Note_on_c, 1, 47, 0
3, 20700, Note_on_c, 1, 49, 73
3, 20719, Note_on_c, 1, 49, 0
3, 20720, Note_on_c, 1, 50, 77
3, 20739, Note_on_c, 1, 50, 0
3, 20740, Note_on_c, 1, 52, 77
3, 20759, Note_on_c, 1, 52, 0
3, 20760, Note_on_c, 1, 38, 0
3, 20760, Note_on_c, 1, 54, 63
3, 20779, Note_on_c, 1, 54, 0
3, 20780, Note_on_c, 1, 55, 73
3, 20799, Note_on_c, 1, 55, 0
3, 20800, Note_on_c, 1, 57, 77
3, 20819, Note_on_c, 1, 57, 0
3, 20820, Note_on_c, 1, 59, 73
3, 20839, Note_on_c, 1, 59, 0
3, 20840, Note_on_c, 1, 60, 77
3, 20859, Note_on_c, 1, 60, 0
3, 20860, Note_on_c, 1, 61, 69
3, 20879, Note_on_c, 1, 61, 0
3, 20880, Note_on_c, 1, 62, 81
3, 20880, Note_on_c, 1, 31, 81
3, 20880, Note_on_c, 1, 43, 81
3, 20899, Note_on_c, 1, 62, 0
3, 20900, Note_on_c, 1, 61, 73
3, 20919, Note_on_c, 1, 61, 0
3, 20920, Note_on_c, 1, 62, 73
3, 20939, Note_on_c, 1, 62, 0
3, 20940, Note_on_c, 1, 59, 81
3, 20959, Note_on_c, 1, 59, 0
3, 20960, Note_on_c, 1, 58, 58
3, 20979, Note_on_c, 1, 58, 0
3, 20980, Note_on_c, 1, 59, 73
3, 20999, Note_on_c, 1, 59, 0
3, 21000, Note_on_c, 1, 55, 81
3, 21019, Note_on_c, 1, 55, 0
3, 21020, Note_on_c, 1, 54, 57
3, 21039, Note_on_c, 1, 54, 0
3, 21040, Note_on_c, 1, 55, 81
3, 21059, Note_on_c, 1, 55, 0
3, 21060, Note_on_c, 1, 50, 69
3, 21079, Note_on_c, 1, 50, 0
3, 21080, Note_on_c, 1, 49, 62
3, 21099, Note_on_c, 1, 49, 0
3, 21100, Note_on_c, 1, 50, 89
3, 21119, Note_on_c, 1, 50, 0
3, 21120, Note_on_c, 1, 43, 0
3, 21120, Note_on_c, 1, 31, 0
3, 21120, Note_on_c, 1, 48, 73
3, 21120, Note_on_c, 1, 36, 90
3, 21139, Note_on_c, 1, 48, 0
3, 21140, Note_on_c, 1, 52, 81
3, 21159, Note_on_c, 1, 52, 0
3, 21160, Note_on_c, 1, 55, 77
3, 21179, Note_on_c, 1, 55, 0
3, 21179, Note_on_c, 1, 36, 0
3, 21180, Note_on_c, 1, 60, 81
3, 21199, Note_on_c, 1, 60, 0
3, 21200, Note_on_c, 1, 64, 81
3, 21219, Note_on_c, 1, 64, 0
3, 21220, Note_on_c, 1, 67, 77
3, 21239, Note_on_c, 1, 67, 0
3, 21240, Note_on_c, 1, 67, 81
3, 21240, Note_on_c, 1, 43, 90
3, 21259, Note_on_c, 1, 67, 0
3, 21260, Note_on_c, 1, 62, 81
3, 21279, Note_on_c, 1, 62, 0
3, 21280, Note_on_c, 1, 59, 65
3, 21299, Note_on_c, 1, 59, 0
3, 21299, Note_on_c, 1, 43, 0
3, 21300, Note_on_c, 1, 62, 81
3, 21319, Note_on_c, 1, 62, 0
3, 21320, Note_on_c, 1, 59, 77
3, 21339, Note_on_c, 1, 59, 0
3, 21340, Note_on_c, 1, 55, 77
3, 21359, Note_on_c, 1, 55, 0
3, 21360, Note_on_c, 1, 54, 73
3, 21360, Note_on_c, 1, 38, 94
3, 21379, Note_on_c, 1, 54, 0
3, 21380, Note_on_c, 1, 57, 77
3, 21399, Note_on_c, 1, 57, 0
3, 21400, Note_on_c, 1, 60, 73
3, 21419, Note_on_c, 1, 60, 0
3, 21420, Note_on_c, 1, 59, 77
3, 21439, Note_on_c, 1, 59, 0
3, 21440, Note_on_c, 1, 57, 65
3, 21459, Note_on_c, 1, 57, 0
3, 21460, Note_on_c, 1, 55, 77
3, 21479, Note_on_c, 1, 55, 0
3, 21480, Note_on_c, 1, 54, 65
3, 21499, Note_on_c, 1, 54, 0
3, 21500, Note_on_c, 1, 52, 77
3, 21519, Note_on_c, 1, 52, 0
3, 21520, Note_on_c, 1, 50, 73
3, 21539, Note_on_c, 1, 50, 0
3, 21540, Note_on_c, 1, 48, 77
3, 21559, Note_on_c, 1, 48, 0
3, 21560, Note_on_c, 1, 47, 81
3, 21579, Note_on_c, 1, 47, 0
3, 21580, Note_on_c, 1, 45, 93
3, 21599, Note_on_c, 1, 45, 0
3, 21600, Note_on_c, 1, 38, 0
3, 21600, Note_on_c, 1, 43, 77
3, 21600, Note_on_c, 1, 31, 103
3, 21619, Note_on_c, 1, 43, 0
3, 21620, Note_on_c, 1, 47, 93
3, 21639, Note_on_c, 1, 47, 0
3, 21640, Note_on_c, 1, 48, 93
3, 21659, Note_on_c, 1, 48, 0
3, 21659, Note_on_c, 1, 31, 0
3, 21660, Note_on_c, 1, 50, 93
3, 21679, Note_on_c, 1, 50, 0
3, 21680, Note_on_c, 1, 52, 93
3, 21699, Note_on_c, 1, 52, 0
3, 21700, Note_on_c, 1, 54, 98
3, 21719, Note_on_c, 1, 54, 0
3, 21720, Note_on_c, 1, 55, 101
3, 21739, Note_on_c, 1, 55, 0
3, 21740, Note_on_c, 1, 57, 101
3, 21759, Note_on_c, 1, 57, 0
3, 21760, Note_on_c, 1, 58, 98
3, 21779, Note_on_c, 1, 58, 0
3, 21780, Note_on_c, 1, 59, 93
3, 21799, Note_on_c, 1, 59, 0
3, 21800, Note_on_c, 1, 58, 85
3, 21819, Note_on_c, 1, 58, 0
3, 21820, Note_on_c, 1, 57, 93
3, 21839, Note_on_c, 1, 57, 0
3, 21840, Note_on_c, 1, 55, 85
3, 21840, Note_on_c, 1, 40, 94
3, 21859, Note_on_c, 1, 55, 0
3, 21860, Note_on_c, 1, 59, 89
3, 21879, Note_on_c, 1, 59, 0
3, 21880, Note_on_c, 1, 57, 85
3, 21899, Note_on_c, 1, 57, 0
3, 21900, Note_on_c, 1, 55, 81
3, 21919, Note_on_c, 1, 55, 0
3, 21920, Note_on_c, 1, 54, 85
3, 21939, Note_on_c, 1, 54, 0
3, 21940, Note_on_c, 1, 52, 85
3, 21959, Note_on_c, 1, 52, 0
3, 21960, Note_on_c, 1, 40, 0
3, 21960, Note_on_c, 1, 51, 77
3, 21960, Note_on_c, 1, 47, 103
3, 21979, Note_on_c, 1, 51, 0
3, 21980, Note_on_c, 1, 57, 93
3, 21999, Note_on_c, 1, 57, 0
3, 22000, Note_on_c, 1, 55, 85
3, 22019, Note_on_c, 1, 55, 0
3, 22020, Note_on_c, 1, 54, 89
3, 22039, Note_on_c, 1, 54, 0
3, 22040, Note_on_c, 1, 52, 93
3, 22059, Note_on_c, 1, 52, 0
3, 22060, Note_on_c, 1, 51, 85
3, 22079, Note_on_c, 1, 51, 0
3, 22080, Note_on_c, 1, 47, 0
3, 22080, Note_on_c, 1, 52, 98
3, 22080, Note_on_c, 1, 40, 94
3, 22099, Note_on_c, 1, 52, 0
3, 22100, Note_on_c, 1, 59, 77
3, 22119, Note_on_c, 1, 59, 0
3, 22120, Note_on_c, 1, 57, 93
3, 22139, Note_on_c, 1, 57, 0
3, 22139, Note_on_c, 1, 40, 0
3, 22140, Note_on_c, 1, 55, 81
3, 22159, Note_on_c, 1, 55, 0
3, 22160, Note_on_c, 1, 54, 89
3, 22179, Note_on_c, 1, 54, 0
3, 22180, Note_on_c, 1, 52, 81
3, 22199, Note_on_c, 1, 52, 0
3, 22200, Note_on_c, 1, 50, 93
3, 22200, Note_on_c, 1, 31, 85
3, 22200, Note_on_c, 1, 43, 98
3, 22219, Note_on_c, 1, 50, 0
3, 22220, Note_on_c, 1, 62, 98
3, 22239, Note_on_c, 1, 62, 0
3, 22240, Note_on_c, 1, 60, 81
3, 22259, Note_on_c, 1, 60, 0
3, 22260, Note_on_c, 1, 59, 89
3, 22279, Note_on_c, 1, 59, 0
3, 22280, Note_on_c, 1, 57, 89
3, 22299, Note_on_c, 1, 57, 0
3, 22300, Note_on_c, 1, 55, 85
3, 22319, Note_on_c, 1, 55, 0
3, 22320, Note_on_c, 1, 43, 0
3, 22320, Note_on_c, 1, 31, 0
3, 22320, Note_on_c, 1, 55, 89
3, 22320, Note_on_c, 1, 48, 98
3, 22339, Note_on_c, 1, 55, 0
3, 22340, Note_on_c, 1, 60, 89
3, 22359, Note_on_c, 1, 60, 0
3, 22360, Note_on_c, 1, 52, 69
3, 22379, Note_on_c, 1, 52, 0
3, 22379, Note_on_c, 1, 48, 0
3, 22380, Note_on_c, 1, 60, 93
3, 22380, Note_on_c, 1, 45, 98
3, 22399, Note_on_c, 1, 60, 0
3, 22400, Note_on_c, 1, 62, 89
3, 22419, Note_on_c, 1, 62, 0
3, 22420, Note_on_c, 1, 50, 77
3, 22439, Note_on_c, 1, 50, 0
3, 22439, Note_on_c, 1, 45, 0
3, 22440, Note_on_c, 1, 59, 89
3, 22440, Note_on_c, 1, 47, 103
3, 22459, Note_on_c, 1, 59, 0
3, 22460, Note_on_c, 1, 62, 89
3, 22479, Note_on_c, 1, 62, 0
3, 22480, Note_on_c, 1, 50, 81
3, 22499, Note_on_c, 1, 50, 0
3, 22499, Note_on_c, 1, 47, 0
3, 22500, Note_on_c, 1, 57, 98
3, 22500, Note_on_c, 1, 49, 103
3, 22519, Note_on_c, 1, 57, 0
3, 22520, Note_on_c, 1, 64, 89
3, 22539, Note_on_c, 1, 64, 0
3, 22540, Note_on_c, 1, 52, 81
3, 22559, Note_on_c, 1, 52, 0
3, 22559, Note_on_c, 1, 49, 0
3, 22560, Note_on_c, 1, 55, 93
3, 22560, Note_on_c, 1, 50, 98
3, 22579, Note_on_c, 1, 55, 0
3, 22580, Note_on_c, 1, 57, 85
3, 22599, Note_on_c, 1, 57, 0
3, 22600, Note_on_c, 1, 58, 77
3, 22619, Note_on_c, 1, 58, 0
3, 22620, Note_on_c, 1, 59, 101
3, 22639, Note_on_c, 1, 59, 0
3, 22640, Note_on_c, 1, 60, 81
3, 22659, Note_on_c, 1, 60, 0
3, 22660, Note_on_c, 1, 61, 98
3, 22679, Note_on_c, 1, 61, 0
3, 22680, Note_on_c, 1, 62, 93
3, 22699, Note_on_c, 1, 62, 0
3, 22700, Note_on_c, 1, 61, 89
3, 22719, Note_on_c, 1, 61, 0
3, 22720, Note_on_c, 1, 60, 77
3, 22739, Note_on_c, 1, 60, 0
3, 22740, Note_on_c, 1, 59, 93
3, 22759, Note_on_c, 1, 59, 0
3, 22760, Note_on_c, 1, 58, 77
3, 22779, Note_on_c, 1, 58, 0
3, 22780, Note_on_c, 1, 57, 93
3, 22799, Note_on_c, 1, 57, 0
3, 22800, Note_on_c, 1, 50, 0
3, 22800, Note_on_c, 1, 56, 98
3, 22800, Note_on_c, 1, 38, 94
3, 22819, Note_on_c, 1, 56, 0
3, 22820, Note_on_c, 1, 53, 93
3, 22839, Note_on_c, 1, 53, 0
3, 22840, Note_on_c, 1, 52, 89
3, 22859, Note_on_c, 1, 52, 0
3, 22860, Note_on_c, 1, 50, 93
3, 22879, Note_on_c, 1, 50, 0
3, 22880, Note_on_c, 1, 48, 89
3, 22899, Note_on_c, 1, 48, 0
3, 22900, Note_on_c, 1, 47, 81
3, 22919, Note_on_c, 1, 47, 0
3, 22920, Note_on_c, 1, 45, 89
3, 22939, Note_on_c, 1, 45, 0
3, 22940, Note_on_c, 1, 48, 89
3, 22959, Note_on_c, 1, 48, 0
3, 22960, Note_on_c, 1, 52, 93
3, 22979, Note_on_c, 1, 52, 0
3, 22980, Note_on_c, 1, 56, 98
3, 22999, Note_on_c, 1, 56, 0
3, 23000, Note_on_c, 1, 59, 98
3, 23019, Note_on_c, 1, 59, 0
3, 23020, Note_on_c, 1, 60, 81
3, 23039, Note_on_c, 1, 60, 0
3, 23040, Note_on_c, 1, 38, 0
3, 23040, Note_on_c, 1, 63, 93
3, 23040, Note_on_c, 1, 38, 98
3, 23040, Note_on_c, 1, 50, 94
3, 23059, Note_on_c, 1, 63, 0
3, 23060, Note_on_c, 1, 62, 89
3, 23079, Note_on_c, 1, 62, 0
3, 23080, Note_on_c, 1, 60, 77
3, 23099, Note_on_c, 1, 60, 0
3, 23100, Note_on_c, 1, 58, 98
3, 23119, Note_on_c, 1, 58, 0
3, 23120, Note_on_c, 1, 57, 81
3, 23139, Note_on_c, 1, 57, 0
3, 23140, Note_on_c, 1, 55, 77
3, 23159, Note_on_c, 1, 55, 0
3, 23160, Note_on_c, 1, 54, 89
3, 23179, Note_on_c, 1, 54, 0
3, 23180, Note_on_c, 1, 52, 89
3, 23199, Note_on_c, 1, 52, 0
3, 23200, Note_on_c, 1, 50, 73
3, 23219, Note_on_c, 1, 50, 0
3, 23220, Note_on_c, 1, 50, 0
3, 23220, Note_on_c, 1, 38, 0
3, 23220, Note_on_c, 1, 48, 93
3, 23239, Note_on_c, 1, 48, 0
3, 23240, Note_on_c, 1, 47, 89
3, 23259, Note_on_c, 1, 47, 0
3, 23260, Note_on_c, 1, 45, 93
3, 23279, Note_on_c, 1, 45, 0
3, 23280, Note_on_c, 1, 43, 98
3, 23280, Note_on_c, 1, 35, 103
3, 23299, Note_on_c, 1, 43, 0
3, 23300, Note_on_c, 1, 47, 93
3, 23319, Note_on_c, 1, 47, 0
3, 23320, Note_on_c, 1, 50, 98
3, 23339, Note_on_c, 1, 50, 0
3, 23340, Note_on_c, 1, 55, 98
3, 23359, Note_on_c, 1, 55, 0
3, 23360, Note_on_c, 1, 59, 89
3, 23379, Note_on_c, 1, 59, 0
3, 23380, Note_on_c, 1, 55, 81
3, 23399, Note_on_c, 1, 55, 0
3, 23400, Note_on_c, 1, 35, 0
3, 23400, Note_on_c, 1, 54, 101
3, 23400, Note_on_c, 1, 36, 94
3, 23419, Note_on_c, 1, 54, 0
3, 23420, Note_on_c, 1, 57, 89
3, 23439, Note_on_c, 1, 57, 0
3, 23440, Note_on_c, 1, 54, 85
3, 23459, Note_on_c, 1, 54, 0
3, 23460, Note_on_c, 1, 50, 93
3, 23479, Note_on_c, 1, 50, 0
3, 23480, Note_on_c, 1, 52, 93
3, 23499, Note_on_c, 1, 52, 0
3, 23500, Note_on_c, 1, 54, 93
3, 23519, Note_on_c, 1, 54, 0
3, 23520, Note_on_c, 1, 36, 0
3, 23520, Note_on_c, 1, 55, 106
3, 23520, Note_on_c, 1, 35, 98
3, 23539, Note_on_c, 1, 55, 0
3, 23540, Note_on_c, 1, 65, 85
3, 23559, Note_on_c, 1, 65, 0
3, 23560, Note_on_c, 1, 62, 89
3, 23579, Note_on_c, 1, 62, 0
3, 23579, Note_on_c, 1, 35, 0
3, 23580, Note_on_c, 1, 59, 93
3, 23599, Note_on_c, 1, 59, 0
3, 23600, Note_on_c, 1, 55, 81
3, 23619, Note_on_c, 1, 55, 0
3, 23620, Note_on_c, 1, 53, 77
3, 23639, Note_on_c, 1, 53, 0
3, 23640, Note_on_c, 1, 52, 93
3, 23640, Note_on_c, 1, 36, 98
3, 23659, Note_on_c, 1, 52, 0
3, 23660, Note_on_c, 1, 56, 93
3, 23679, Note_on_c, 1, 56, 0
3, 23680, Note_on_c, 1, 57, 89
3, 23699, Note_on_c, 1, 57, 0
3, 23699, Note_on_c, 1, 36, 0
3, 23700, Note_on_c, 1, 60, 93
3, 23719, Note_on_c, 1, 60, 0
3, 23720, Note_on_c, 1, 64, 89
3, 23739, Note_on_c, 1, 64, 0
3, 23740, Note_on_c, 1, 60, 89
3, 23759, Note_on_c, 1, 60, 0
3, 23760, Note_on_c, 1, 59, 93
3, 23760, Note_on_c, 1, 38, 98
3, 23779, Note_on_c, 1, 59, 0
3, 23780, Note_on_c, 1, 62, 93
3, 23799, Note_on_c, 1, 62, 0
3, 23800, Note_on_c, 1, 60, 81
3, 23819, Note_on_c, 1, 60, 0
3, 23820, Note_on_c, 1, 59, 93
3, 23839, Note_on_c, 1, 59, 0
3, 23840, Note_on_c, 1, 57, 85
3, 23859, Note_on_c, 1, 57, 0
3, 23860, Note_on_c, 1, 55, 101
3, 23879, Note_on_c, 1, 55, 0
3, 23880, Note_on_c, 1, 54, 73
3, 23899, Note_on_c, 1, 54, 0
3, 23900, Note_on_c, 1, 60, 93
3, 23919, Note_on_c, 1, 60, 0
3, 23920, Note_on_c, 1, 59, 77
3, 23939, Note_on_c, 1, 59, 0
3, 23940, Note_on_c, 1, 57, 85
3, 23959, Note_on_c, 1, 57, 0
3, 23960, Note_on_c, 1, 55, 81
3, 23979, Note_on_c, 1, 55, 0
3, 23980, Note_on_c, 1, 54, 93
3, 23999, Note_on_c, 1, 54, 0
3, 24000, Note_on_c, 1, 38, 0
3, 24000, Note_on_c, 1, 55, 89
3, 24000, Note_on_c, 1, 31, 90
3, 24019, Note_on_c, 1, 55, 0
3, 24020, Note_on_c, 1, 43, 89
3, 24039, Note_on_c, 1, 43, 0
3, 24040, Note_on_c, 1, 47, 89
3, 24059, Note_on_c, 1, 47, 0
3, 24060, Note_on_c, 1, 50, 93
3, 24079, Note_on_c, 1, 50, 0
3, 24080, Note_on_c, 1, 47, 93
3, 24099, Note_on_c, 1, 47, 0
3, 24100, Note_on_c, 1, 50, 89
3, 24119, Note_on_c, 1, 50, 0
3, 24120, Note_on_c, 1, 31, 0
3, 24120, Note_on_c, 1, 55, 93
3, 24139, Note_on_c, 1, 55, 0
3, 24140, Note_on_c, 1, 50, 69
3, 24159, Note_on_c, 1, 50, 0
3, 24160, Note_on_c, 1, 55, 85
3, 24179, Note_on_c, 1, 55, 0
3, 24180, Note_on_c, 1, 59, 77
3, 24199, Note_on_c, 1, 59, 0
3, 24200, Note_on_c, 1, 58, 63
3, 24219, Note_on_c, 1, 58, 0
3, 24220, Note_on_c, 1, 57, 89
3, 24239, Note_on_c, 1, 57, 0
3, 24240, Note_on_c, 1, 55, 77
3, 24240, Note_on_c, 1, 40, 73
3, 24259, Note_on_c, 1, 55, 0
3, 24260, Note_on_c, 1, 59, 73
3, 24279, Note_on_c, 1, 59, 0
3, 24280, Note_on_c, 1, 57, 63
3, 24299, Note_on_c, 1, 57, 0
3, 24300, Note_on_c, 1, 55, 77
3, 24319, Note_on_c, 1, 55, 0
3, 24320, Note_on_c, 1, 54, 63
3, 24339, Note_on_c, 1, 54, 0
3, 24340, Note_on_c, 1, 52, 81
3, 24359, Note_on_c, 1, 52, 0
3, 24360, Note_on_c, 1, 40, 0
3, 24360, Note_on_c, 1, 51, 58
3, 24360, Note_on_c, 1, 47, 81
3, 24379, Note_on_c, 1, 51, 0
3, 24380, Note_on_c, 1, 57, 77
3, 24399, Note_on_c, 1, 57, 0
3, 24400, Note_on_c, 1, 55, 73
3, 24419, Note_on_c, 1, 55, 0
3, 24420, Note_on_c, 1, 54, 62
3, 24439, Note_on_c, 1, 54, 0
3, 24440, Note_on_c, 1, 52, 81
3, 24459, Note_on_c, 1, 52, 0
3, 24460, Note_on_c, 1, 51, 62
3, 24479, Note_on_c, 1, 51, 0
3, 24480, Note_on_c, 1, 47, 0
3, 24480, Note_on_c, 1, 52, 77
3, 24480, Note_on_c, 1, 40, 81
3, 24499, Note_on_c, 1, 52, 0
3, 24500, Note_on_c, 1, 59, 73
3, 24519, Note_on_c, 1, 59, 0
3, 24520, Note_on_c, 1, 57, 73
3, 24539, Note_on_c, 1, 57, 0
3, 24539, Note_on_c, 1, 40, 0
3, 24540, Note_on_c, 1, 55, 69
3, 24559, Note_on_c, 1, 55, 0
3, 24560, Note_on_c, 1, 54, 62
3, 24579, Note_on_c, 1, 54, 0
3, 24580, Note_on_c, 1, 52, 77
3, 24599, Note_on_c, 1, 52, 0
3, 24600, Note_on_c, 1, 50, 77
3, 24600, Note_on_c, 1, 43, 73
3, 24600, Note_on_c, 1, 31, 94
3, 24619, Note_on_c, 1, 50, 0
3, 24620, Note_on_c, 1, 62, 81
3, 24639, Note_on_c, 1, 62, 0
3, 24640, Note_on_c, 1, 60, 77
3, 24659, Note_on_c, 1, 60, 0
3, 24660, Note_on_c, 1, 59, 59
3, 24679, Note_on_c, 1, 59, 0
3, 24680, Note_on_c, 1, 57, 69
3, 24699, Note_on_c, 1, 57, 0
3, 24700, Note_on_c, 1, 55, 77
3, 24719, Note_on_c, 1, 55, 0
3, 24720, Note_on_c, 1, 31, 0
3, 24720, Note_on_c, 1, 43, 0
3, 24720, Note_on_c, 1, 55, 77
3, 24720, Note_on_c, 1, 48, 90
3, 24739, Note_on_c, 1, 55, 0
3, 24740, Note_on_c, 1, 60, 77
3, 24759, Note_on_c, 1, 60, 0
3, 24760, Note_on_c, 1, 52, 85
3, 24779, Note_on_c, 1, 52, 0
3, 24779, Note_on_c, 1, 48, 0
3, 24780, Note_on_c, 1, 60, 77
3, 24780, Note_on_c, 1, 45, 94
3, 24799, Note_on_c, 1, 60, 0
3, 24800, Note_on_c, 1, 62, 77
3, 24819, Note_on_c, 1, 62, 0
3, 24820, Note_on_c, 1, 50, 85
3, 24839, Note_on_c, 1, 50, 0
3, 24839, Note_on_c, 1, 45, 0
3, 24840, Note_on_c, 1, 59, 77
3, 24840, Note_on_c, 1, 47, 94
3, 24859, Note_on_c, 1, 59, 0
3, 24860, Note_on_c, 1, 62, 89
3, 24879, Note_on_c, 1, 62, 0
3, 24880, Note_on_c, 1, 50, 89
3, 24899, Note_on_c, 1, 50, 0
3, 24899, Note_on_c, 1, 47, 0
3, 24900, Note_on_c, 1, 57, 89
3, 24900, Note_on_c, 1, 49, 90
3, 24919, Note_on_c, 1, 57, 0
3, 24920, Note_on_c, 1, 64, 81
3, 24939, Note_on_c, 1, 64, 0
3, 24940, Note_on_c, 1, 52, 73
3, 24959, Note_on_c, 1, 52, 0
3, 24959, Note_on_c, 1, 49, 0
3, 24960, Note_on_c, 1, 55, 77
3, 24960, Note_on_c, 1, 50, 94
3, 24979, Note_on_c, 1, 55, 0
3, 24980, Note_on_c, 1, 57, 81
3, 24999, Note_on_c, 1, 57, 0
3, 25000, Note_on_c, 1, 58, 65
3, 25019, Note_on_c, 1, 58, 0
3, 25020, Note_on_c, 1, 59, 77
3, 25039, Note_on_c, 1, 59, 0
3, 25040, Note_on_c, 1, 60, 73
3, 25059, Note_on_c, 1, 60, 0
3, 25060, Note_on_c, 1, 61, 65
3, 25079, Note_on_c, 1, 61, 0
3, 25080, Note_on_c, 1, 62, 65
3, 25099, Note_on_c, 1, 62, 0
3, 25100, Note_on_c, 1, 61, 63
3, 25119, Note_on_c, 1, 61, 0
3, 25120, Note_on_c, 1, 60, 77
3, 25139, Note_on_c, 1, 60, 0
3, 25140, Note_on_c, 1, 59, 81
3, 25159, Note_on_c, 1, 59, 0
3, 25160, Note_on_c, 1, 58, 63
3, 25179, Note_on_c, 1, 58, 0
3, 25180, Note_on_c, 1, 57, 85
3, 25199, Note_on_c, 1, 57, 0
3, 25200, Note_on_c, 1, 50, 0
3, 25200, Note_on_c, 1, 56, 85
3, 25200, Note_on_c, 1, 38, 98
3, 25219, Note_on_c, 1, 56, 0
3, 25220, Note_on_c, 1, 53, 69
3, 25239, Note_on_c, 1, 53, 0
3, 25240, Note_on_c, 1, 52, 65
3, 25259, Note_on_c, 1, 52, 0
3, 25260, Note_on_c, 1, 50, 81
3, 25279, Note_on_c, 1, 50, 0
3, 25280, Note_on_c, 1, 48, 73
3, 25299, Note_on_c, 1, 48, 0
3, 25300, Note_on_c, 1, 47, 81
3, 25319, Note_on_c, 1, 47, 0
3, 25320, Note_on_c, 1, 45, 73
3, 25339, Note_on_c, 1, 45, 0
3, 25340, Note_on_c, 1, 48, 89
3, 25359, Note_on_c, 1, 48, 0
3, 25360, Note_on_c, 1, 52, 89
3, 25379, Note_on_c, 1, 52, 0
3, 25380, Note_on_c, 1, 56, 63
3, 25399, Note_on_c, 1, 56, 0
3, 25400, Note_on_c, 1, 59, 93
3, 25419, Note_on_c, 1, 59, 0
3, 25420, Note_on_c, 1, 60, 85
3, 25439, Note_on_c, 1, 60, 0
3, 25440, Note_on_c, 1, 38, 0
3, 25440, Note_on_c, 1, 63, 73
3, 25440, Note_on_c, 1, 38, 98
3, 25440, Note_on_c, 1, 50, 90
3, 25459, Note_on_c, 1, 63, 0
3, 25460, Note_on_c, 1, 62, 89
3, 25479, Note_on_c, 1, 62, 0
3, 25480, Note_on_c, 1, 60, 81
3, 25499, Note_on_c, 1, 60, 0
3, 25500, Note_on_c, 1, 58, 73
3, 25519, Note_on_c, 1, 58, 0
3, 25520, Note_on_c, 1, 57, 77
3, 25539, Note_on_c, 1, 57, 0
3, 25540, Note_on_c, 1, 55, 77
3, 25559, Note_on_c, 1, 55, 0
3, 25560, Note_on_c, 1, 54, 69
3, 25579, Note_on_c, 1, 54, 0
3, 25580, Note_on_c, 1, 52, 77
3, 25599, Note_on_c, 1, 52, 0
3, 25600, Note_on_c, 1, 50, 93
3, 25619, Note_on_c, 1, 50, 0
3, 25620, Note_on_c, 1, 50, 0
3, 25620, Note_on_c, 1, 38, 0
3, 25620, Note_on_c, 1, 48, 77
3, 25639, Note_on_c, 1, 48, 0
3, 25640, Note_on_c, 1, 47, 73
3, 25659, Note_on_c, 1, 47, 0
3, 25660, Note_on_c, 1, 45, 63
3, 25679, Note_on_c, 1, 45, 0
3, 25680, Note_on_c, 1, 43, 77
3, 25680, Note_on_c, 1, 35, 112
3, 25699, Note_on_c, 1, 43, 0
3, 25700, Note_on_c, 1, 47, 85
3, 25719, Note_on_c, 1, 47, 0
3, 25720, Note_on_c, 1, 50, 93
3, 25739, Note_on_c, 1, 50, 0
3, 25740, Note_on_c, 1, 55, 81
3, 25759, Note_on_c, 1, 55, 0
3, 25760, Note_on_c, 1, 59, 89
3, 25779, Note_on_c, 1, 59, 0
3, 25780, Note_on_c, 1, 55, 65
3, 25799, Note_on_c, 1, 55, 0
3, 25800, Note_on_c, 1, 35, 0
3, 25800, Note_on_c, 1, 54, 93
3, 25800, Note_on_c, 1, 36, 98
3, 25819, Note_on_c, 1, 54, 0
3, 25820, Note_on_c, 1, 57, 81
3, 25839, Note_on_c, 1, 57, 0
3, 25840, Note_on_c, 1, 54, 77
3, 25859, Note_on_c, 1, 54, 0
3, 25860, Note_on_c, 1, 50, 85
3, 25879, Note_on_c, 1, 50, 0
3, 25880, Note_on_c, 1, 52, 81
3, 25899, Note_on_c, 1, 52, 0
3, 25900, Note_on_c, 1, 54, 73
3, 25919, Note_on_c, 1, 54, 0
3, 25920, Note_on_c, 1, 36, 0
3, 25920, Note_on_c, 1, 55, 89
3, 25920, Note_on_c, 1, 35, 85
3, 25939, Note_on_c, 1, 55, 0
3, 25940, Note_on_c, 1, 65, 93
3, 25959, Note_on_c, 1, 65, 0
3, 25960, Note_on_c, 1, 62, 77
3, 25979, Note_on_c, 1, 62, 0
3, 25979, Note_on_c, 1, 35, 0
3, 25980, Note_on_c, 1, 59, 89
3, 25999, Note_on_c, 1, 59, 0
3, 26000, Note_on_c, 1, 55, 65
3, 26019, Note_on_c, 1, 55, 0
3, 26020, Note_on_c, 1, 53, 77
3, 26039, Note_on_c, 1, 53, 0
3, 26040, Note_on_c, 1, 52, 61
3, 26040, Note_on_c, 1, 36, 90
3, 26059, Note_on_c, 1, 52, 0
3, 26060, Note_on_c, 1, 56, 85
3, 26079, Note_on_c, 1, 56, 0
3, 26080, Note_on_c, 1, 57, 93
3, 26099, Note_on_c, 1, 57, 0
3, 26099, Note_on_c, 1, 36, 0
3, 26100, Note_on_c, 1, 60, 93
3, 26119, Note_on_c, 1, 60, 0
3, 26120, Note_on_c, 1, 64, 85
3, 26139, Note_on_c, 1, 64, 0
3, 26140, Note_on_c, 1, 60, 81
3, 26159, Note_on_c, 1, 60, 0
3, 26160, Note_on_c, 1, 59, 93
3, 26160, Note_on_c, 1, 38, 98
3, 26179, Note_on_c, 1, 59, 0
3, 26180, Note_on_c, 1, 62, 81
3, 26199, Note_on_c, 1, 62, 0
3, 26200, Note_on_c, 1, 60, 85
3, 26219, Note_on_c, 1, 60, 0
3, 26220, Note_on_c, 1, 59, 81
3, 26239, Note_on_c, 1, 59, 0
3, 26240, Note_on_c, 1, 57, 85
3, 26259, Note_on_c, 1, 57, 0
3, 26260, Note_on_c, 1, 55, 81
3, 26279, Note_on_c, 1, 55, 0
3, 26280, Note_on_c, 1, 54, 89
3, 26299, Note_on_c, 1, 54, 0
3, 26300, Note_on_c, 1, 60, 93
3, 26319, Note_on_c, 1, 60, 0
3, 26320, Note_on_c, 1, 59, 77
3, 26339, Note_on_c, 1, 59, 0
3, 26340, Note_on_c, 1, 57, 89
3, 26359, Note_on_c, 1, 57, 0
3, 26360, Note_on_c, 1, 55, 81
3, 26379, Note_on_c, 1, 55, 0
3, 26380, Note_on_c, 1, 54, 93
3, 26399, Note_on_c, 1, 54, 0
3, 26400, Note_on_c, 1, 38, 0
3, 26400, Note_on_c, 1, 55, 89
3, 26400, Note_on_c, 1, 31, 94
3, 26419, Note_on_c, 1, 55, 0
3, 26420, Note_on_c, 1, 62, 93
3, 26439, Note_on_c, 1, 62, 0
3, 26440, Note_on_c, 1, 59, 89
3, 26459, Note_on_c, 1, 59, 0
3, 26460, Note_on_c, 1, 55, 89
3, 26479, Note_on_c, 1, 55, 0
3, 26480, Note_on_c, 1, 50, 89
3, 26499, Note_on_c, 1, 50, 0
3, 26500, Note_on_c, 1, 47, 112
3, 26519, Note_on_c, 1, 47, 0
3, 26520, Note_on_c, 1, 31, 0
3, 26520, Note_on_c, 1, 43, 95
3, 26534, Note_on_c, 1, 43, 0
3, 26850, Note_on_c, 1, 50, 98
3, 26880, Note_on_c, 1, 38, 94
3, 26880, Note_on_c, 1, 50, 98
3, 26880, Note_on_c, 1, 59, 98
3, 26881, Note_on_c, 1, 50, 0
3, 26907, Control_c, 1, 64, 0
3, 26909, Note_on_c, 1, 59, 0
3, 26910, Note_on_c, 1, 58, 81
3, 26938, Note_on_c, 1, 58, 0
3, 26940, Note_on_c, 1, 59, 94
3, 26970, Note_on_c, 1, 55, 81
3, 26971, Note_on_c, 1, 59, 0
3, 27000, Note_on_c, 1, 59, 94
3, 27002, Note_on_c, 1, 55, 0
3, 27015, Note_on_c, 1, 57, 81
3, 27016, Note_on_c, 1, 59, 0
3, 27028, Note_on_c, 1, 57, 0
3, 27030, Note_on_c, 1, 56, 64
3, 27060, Note_on_c, 1, 56, 0
3, 27060, Note_on_c, 1, 57, 98
3, 27080, Note_on_c, 1, 50, 0
3, 27087, Note_on_c, 1, 57, 0
3, 27089, Note_on_c, 1, 38, 0
3, 27090, Note_on_c, 1, 54, 81
3, 27120, Note_on_c, 1, 45, 77
3, 27120, Note_on_c, 1, 33, 69
3, 27120, Note_on_c, 1, 55, 81
3, 27121, Note_on_c, 1, 54, 0
3, 27126, Control_c, 1, 64, 0
3, 27162, Control_c, 1, 64, 127
3, 27179, Note_on_c, 1, 55, 0
3, 27180, Note_on_c, 1, 52, 98
3, 27240, Note_on_c, 1, 52, 0
3, 27240, Note_on_c, 1, 57, 94
3, 27248, Note_on_c, 1, 33, 0
3, 27251, Control_c, 1, 64, 0
3, 27251, Control_c, 1, 64, 127
3, 27253, Note_on_c, 1, 45, 0
3, 27318, Control_c, 1, 64, 127
3, 27330, Note_on_c, 1, 45, 98
3, 27344, Note_on_c, 1, 45, 0
3, 27359, Control_c, 1, 64, 0
3, 27360, Note_on_c, 1, 50, 98
3, 27390, Note_on_c, 1, 50, 0
3, 27390, Note_on_c, 1, 49, 98
3, 27417, Note_on_c, 1, 57, 0
3, 27419, Note_on_c, 1, 49, 0
3, 27419, Control_c, 1, 64, 0
3, 27420, Note_on_c, 1, 50, 90
3, 27450, Note_on_c, 1, 47, 94
3, 27452, Note_on_c, 1, 50, 0
3, 27480, Note_on_c, 1, 47, 0
3, 27480, Note_on_c, 1, 50, 94
3, 27495, Note_on_c, 1, 48, 81
3, 27497, Note_on_c, 1, 50, 0
3, 27510, Note_on_c, 1, 47, 90
3, 27511, Note_on_c, 1, 48, 0
3, 27538, Note_on_c, 1, 47, 0
3, 27540, Note_on_c, 1, 48, 90
3, 27570, Note_on_c, 1, 48, 0
3, 27570, Note_on_c, 1, 45, 98
3, 27582, Control_c, 1, 64, 127
3, 27582, Control_c, 1, 64, 0
3, 27597, Note_on_c, 1, 45, 0
3, 27600, Note_on_c, 1, 43, 94
3, 27660, Note_on_c, 1, 55, 98
3, 27669, Control_c, 1, 64, 127
3, 27720, Note_on_c, 1, 67, 94
3, 27722, Note_on_c, 1, 55, 0
3, 27775, Control_c, 1, 64, 0
3, 27779, Note_on_c, 1, 43, 0
3, 27780, Note_on_c, 1, 55, 90
3, 27802, Control_c, 1, 64, 127
3, 27840, Note_on_c, 1, 43, 98
3, 27842, Note_on_c, 1, 55, 0
3, 27845, Control_c, 1, 64, 0
3, 27890, Control_c, 1, 64, 127
3, 27900, Note_on_c, 1, 67, 0
3, 27900, Note_on_c, 1, 55, 94
3, 27960, Note_on_c, 1, 67, 98
3, 27961, Note_on_c, 1, 55, 0
3, 28015, Note_on_c, 1, 43, 0
3, 28017, Control_c, 1, 64, 0
3, 28020, Note_on_c, 1, 55, 112
3, 28040, Control_c, 1, 64, 127
3, 28067, Note_on_c, 1, 67, 0
3, 28069, Note_on_c, 1, 55, 0
3, 28077, Control_c, 1, 64, 0
3, 28080, Note_on_c, 1, 50, 94
3, 28080, Note_on_c, 1, 66, 98
3, 28086, Note_on_c, 1, 66, 0
3, 28088, Note_on_c, 1, 50, 0
3, 28110, Note_on_c, 1, 55, 103
3, 28110, Note_on_c, 1, 67, 98
3, 28118, Note_on_c, 1, 67, 0
3, 28122, Note_on_c, 1, 55, 0
3, 28140, Note_on_c, 1, 50, 98
3, 28140, Note_on_c, 1, 66, 94
3, 28148, Note_on_c, 1, 66, 0
3, 28150, Note_on_c, 1, 50, 0
3, 28170, Note_on_c, 1, 55, 98
3, 28170, Note_on_c, 1, 67, 85
3, 28177, Note_on_c, 1, 67, 0
3, 28182, Note_on_c, 1, 55, 0
3, 28200, Note_on_c, 1, 50, 94
3, 28200, Note_on_c, 1, 66, 81
3, 28208, Note_on_c, 1, 66, 0
3, 28211, Note_on_c, 1, 50, 0
3, 28230, Note_on_c, 1, 55, 77
3, 28230, Note_on_c, 1, 67, 90
3, 28239, Note_on_c, 1, 67, 0
3, 28239, Note_on_c, 1, 55, 0
3, 28260, Note_on_c, 1, 50, 107
3, 28260, Note_on_c, 1, 66, 94
3, 28269, Note_on_c, 1, 66, 0
3, 28272, Note_on_c, 1, 50, 0
3, 28290, Note_on_c, 1, 38, 103
3, 28290, Note_on_c, 1, 60, 90
3, 28299, Note_on_c, 1, 38, 0
3, 28301, Note_on_c, 1, 60, 0
3, 28320, Note_on_c, 1, 43, 94
3, 28320, Note_on_c, 1, 59, 94
3, 28331, Note_on_c, 1, 59, 0
3, 28335, Note_on_c, 1, 43, 0
3, 28350, Note_on_c, 1, 55, 94
3, 28350, Note_on_c, 1, 59, 77
3, 28350, Note_on_c, 1, 62, 90
3, 28358, Note_on_c, 1, 62, 0
3, 28359, Note_on_c, 1, 59, 0
3, 28362, Note_on_c, 1, 55, 0
3, 28380, Note_on_c, 1, 47, 98
3, 28380, Note_on_c, 1, 59, 94
3, 28380, Note_on_c, 1, 62, 85
3, 28387, Note_on_c, 1, 62, 0
3, 28389, Note_on_c, 1, 59, 0
3, 28390, Note_on_c, 1, 47, 0
3, 28410, Note_on_c, 1, 50, 98
3, 28410, Note_on_c, 1, 59, 90
3, 28410, Note_on_c, 1, 62, 94
3, 28416, Note_on_c, 1, 62, 0
3, 28418, Note_on_c, 1, 59, 0
3, 28418, Note_on_c, 1, 50, 0
3, 28440, Note_on_c, 1, 43, 103
3, 28440, Note_on_c, 1, 59, 98
3, 28440, Note_on_c, 1, 62, 94
3, 28451, Note_on_c, 1, 62, 0
3, 28453, Note_on_c, 1, 59, 0
3, 28458, Note_on_c, 1, 43, 0
3, 28770, Note_on_c, 1, 50, 81
3, 28800, Note_on_c, 1, 38, 94
3, 28800, Note_on_c, 1, 50, 94
3, 28800, Note_on_c, 1, 59, 81
3, 28804, Note_on_c, 1, 50, 0
3, 28828, Control_c, 1, 64, 127
3, 28829, Note_on_c, 1, 59, 0
3, 28830, Note_on_c, 1, 58, 77
3, 28859, Note_on_c, 1, 58, 0
3, 28860, Note_on_c, 1, 59, 81
3, 28890, Note_on_c, 1, 59, 0
3, 28890, Note_on_c, 1, 55, 81
3, 28920, Note_on_c, 1, 55, 0
3, 28920, Note_on_c, 1, 59, 81
3, 28935, Note_on_c, 1, 57, 81
3, 28937, Note_on_c, 1, 59, 0
3, 28950, Note_on_c, 1, 57, 0
3, 28950, Note_on_c, 1, 56, 61
3, 28979, Note_on_c, 1, 56, 0
3, 28980, Note_on_c, 1, 57, 85
3, 28992, Note_on_c, 1, 50, 0
3, 29000, Note_on_c, 1, 38, 0
3, 29007, Note_on_c, 1, 57, 0
3, 29010, Note_on_c, 1, 54, 77
3, 29039, Note_on_c, 1, 54, 0
3, 29040, Note_on_c, 1, 33, 90
3, 29040, Note_on_c, 1, 45, 85
3, 29040, Note_on_c, 1, 55, 77
3, 29044, Control_c, 1, 64, 0
3, 29085, Control_c, 1, 64, 127
3, 29098, Note_on_c, 1, 55, 0
3, 29100, Note_on_c, 1, 52, 81
3, 29157, Note_on_c, 1, 52, 0
3, 29160, Note_on_c, 1, 57, 77
3, 29211, Note_on_c, 1, 33, 0
3, 29213, Note_on_c, 1, 45, 0
3, 29221, Control_c, 1, 64, 0
3, 29250, Note_on_c, 1, 45, 94
3, 29279, Note_on_c, 1, 45, 0
3, 29280, Note_on_c, 1, 50, 90
3, 29310, Note_on_c, 1, 50, 0
3, 29310, Note_on_c, 1, 49, 94
3, 29339, Note_on_c, 1, 57, 0
3, 29340, Note_on_c, 1, 50, 94
3, 29342, Note_on_c, 1, 49, 0
3, 29369, Note_on_c, 1, 50, 0
3, 29370, Note_on_c, 1, 47, 85
3, 29399, Note_on_c, 1, 47, 0
3, 29400, Note_on_c, 1, 50, 81
3, 29415, Note_on_c, 1, 48, 85
3, 29417, Note_on_c, 1, 50, 0
3, 29430, Note_on_c, 1, 48, 0
3, 29430, Note_on_c, 1, 47, 94
3, 29457, Note_on_c, 1, 47, 0
3, 29460, Note_on_c, 1, 48, 94
3, 29490, Note_on_c, 1, 45, 94
3, 29491, Note_on_c, 1, 48, 0
3, 29520, Note_on_c, 1, 45, 0
3, 29520, Note_on_c, 1, 43, 90
3, 29552, Control_c, 1, 64, 127
3, 29580, Note_on_c, 1, 55, 90
3, 29640, Note_on_c, 1, 67, 94
3, 29645, Note_on_c, 1, 55, 0
3, 29700, Note_on_c, 1, 43, 0
3, 29700, Note_on_c, 1, 55, 94
3, 29702, Control_c, 1, 64, 0
3, 29727, Control_c, 1, 64, 127
3, 29760, Note_on_c, 1, 55, 0
3, 29760, Note_on_c, 1, 43, 94
3, 29762, Control_c, 1, 64, 0
3, 29800, Control_c, 1, 64, 127
3, 29819, Note_on_c, 1, 67, 0
3, 29820, Note_on_c, 1, 55, 81
3, 29880, Note_on_c, 1, 67, 77
3, 29882, Note_on_c, 1, 55, 0
3, 29935, Control_c, 1, 64, 0
3, 29939, Note_on_c, 1, 43, 0
3, 29940, Note_on_c, 1, 55, 98
3, 29959, Control_c, 1, 64, 127
3, 29978, Note_on_c, 1, 55, 0
3, 29989, Note_on_c, 1, 67, 0
3, 29996, Control_c, 1, 64, 0
3, 30000, Note_on_c, 1, 50, 94
3, 30000, Note_on_c, 1, 66, 81
3, 30008, Note_on_c, 1, 66, 0
3, 30008, Note_on_c, 1, 50, 0
3, 30030, Note_on_c, 1, 55, 94
3, 30030, Note_on_c, 1, 67, 90
3, 30038, Note_on_c, 1, 67, 0
3, 30040, Note_on_c, 1, 55, 0
3, 30060, Note_on_c, 1, 50, 94
3, 30060, Note_on_c, 1, 66, 85
3, 30069, Note_on_c, 1, 66, 0
3, 30069, Note_on_c, 1, 50, 0
3, 30090, Note_on_c, 1, 55, 77
3, 30090, Note_on_c, 1, 67, 90
3, 30098, Note_on_c, 1, 67, 0
3, 30100, Note_on_c, 1, 55, 0
3, 30120, Note_on_c, 1, 50, 77
3, 30120, Note_on_c, 1, 66, 94
3, 30128, Note_on_c, 1, 50, 0
3, 30129, Note_on_c, 1, 66, 0
3, 30150, Note_on_c, 1, 55, 81
3, 30150, Note_on_c, 1, 67, 90
3, 30160, Note_on_c, 1, 67, 0
3, 30161, Note_on_c, 1, 55, 0
3, 30180, Note_on_c, 1, 50, 90
3, 30180, Note_on_c, 1, 66, 77
3, 30187, Note_on_c, 1, 66, 0
3, 30188, Note_on_c, 1, 50, 0
3, 30195, Note_on_c, 1, 50, 51
3, 30198, Note_on_c, 1, 50, 0
3, 30210, Note_on_c, 1, 38, 94
3, 30210, Note_on_c, 1, 61, 77
3, 30219, Note_on_c, 1, 38, 0
3, 30220, Note_on_c, 1, 61, 0
3, 30240, Note_on_c, 1, 43, 77
3, 30240, Note_on_c, 1, 59, 85
3, 30252, Note_on_c, 1, 59, 0
3, 30253, Note_on_c, 1, 43, 0
3, 30270, Note_on_c, 1, 55, 85
3, 30270, Note_on_c, 1, 62, 94
3, 30270, Note_on_c, 1, 59, 81
3, 30278, Note_on_c, 1, 59, 0
3, 30278, Note_on_c, 1, 62, 0
3, 30281, Note_on_c, 1, 55, 0
3, 30300, Note_on_c, 1, 47, 94
3, 30300, Note_on_c, 1, 59, 67
3, 30300, Note_on_c, 1, 62, 81
3, 30307, Note_on_c, 1, 62, 0
3, 30308, Note_on_c, 1, 59, 0
3, 30310, Note_on_c, 1, 47, 0
3, 30330, Note_on_c, 1, 50, 85
3, 30330, Note_on_c, 1, 59, 81
3, 30330, Note_on_c, 1, 62, 81
3, 30337, Note_on_c, 1, 62, 0
3, 30338, Note_on_c, 1, 59, 0
3, 30339, Note_on_c, 1, 50, 0
3, 30360, Note_on_c, 1, 43, 103
3, 30360, Note_on_c, 1, 59, 90
3, 30360, Note_on_c, 1, 62, 94
3, 30370, Note_on_c, 1, 62, 0
3, 30370, Note_on_c, 1, 59, 0
3, 30377, Note_on_c, 1, 43, 0
3, 30690, Note_on_c, 1, 47, 107
3, 30720, Note_on_c, 1, 31, 98
3, 30720, Note_on_c, 1, 43, 98
3, 30720, Note_on_c, 1, 55, 98
3, 30722, Note_on_c, 1, 47, 0
3, 30747, Note_on_c, 1, 55, 0
3, 30750, Note_on_c, 1, 54, 81
3, 30753, Control_c, 1, 64, 127
3, 30780, Note_on_c, 1, 54, 0
3, 30780, Note_on_c, 1, 55, 94
3, 30810, Note_on_c, 1, 52, 94
3, 30811, Note_on_c, 1, 55, 0
3, 30840, Note_on_c, 1, 52, 0
3, 30840, Note_on_c, 1, 55, 90
3, 30855, Note_on_c, 1, 53, 77
3, 30859, Note_on_c, 1, 55, 0
3, 30870, Note_on_c, 1, 53, 0
3, 30870, Note_on_c, 1, 52, 90
3, 30900, Note_on_c, 1, 52, 0
3, 30900, Note_on_c, 1, 53, 94
3, 30910, Note_on_c, 1, 31, 0
3, 30928, Note_on_c, 1, 43, 0
3, 30930, Note_on_c, 1, 53, 0
3, 30930, Note_on_c, 1, 50, 94
3, 30958, Note_on_c, 1, 50, 0
3, 30960, Note_on_c, 1, 36, 98
3, 30960, Note_on_c, 1, 48, 94
3, 30962, Control_c, 1, 64, 0
3, 30968, Note_on_c, 1, 48, 0
3, 30970, Note_on_c, 1, 36, 0
3, 30990, Note_on_c, 1, 43, 94
3, 30990, Note_on_c, 1, 50, 94
3, 30998, Note_on_c, 1, 50, 0
3, 31000, Note_on_c, 1, 43, 0
3, 31020, Note_on_c, 1, 36, 94
3, 31020, Note_on_c, 1, 48, 90
3, 31028, Note_on_c, 1, 48, 0
3, 31033, Note_on_c, 1, 36, 0
3, 31050, Note_on_c, 1, 43, 94
3, 31050, Note_on_c, 1, 50, 94
3, 31059, Note_on_c, 1, 50, 0
3, 31061, Note_on_c, 1, 43, 0
3, 31080, Note_on_c, 1, 36, 98
3, 31080, Note_on_c, 1, 48, 94
3, 31088, Control_c, 1, 64, 127
3, 31106, Note_on_c, 1, 48, 0
3, 31135, Note_on_c, 1, 36, 0
3, 31140, Control_c, 1, 64, 0
3, 31140, Note_on_c, 1, 57, 94
3, 31158, Note_on_c, 1, 57, 0
3, 31200, Note_on_c, 1, 62, 98
3, 31229, Note_on_c, 1, 62, 0
3, 31230, Note_on_c, 1, 61, 90
3, 31259, Note_on_c, 1, 61, 0
3, 31260, Note_on_c, 1, 62, 94
3, 31287, Note_on_c, 1, 62, 0
3, 31290, Note_on_c, 1, 61, 85
3, 31320, Note_on_c, 1, 61, 0
3, 31320, Note_on_c, 1, 64, 85
3, 31334, Note_on_c, 1, 64, 0
3, 31335, Note_on_c, 1, 62, 94
3, 31350, Note_on_c, 1, 61, 90
3, 31354, Note_on_c, 1, 62, 0
3, 31380, Note_on_c, 1, 61, 0
3, 31380, Note_on_c, 1, 62, 90
3, 31405, Note_on_c, 1, 62, 0
3, 31410, Note_on_c, 1, 62, 98
3, 31425, Note_on_c, 1, 62, 0
3, 31440, Note_on_c, 1, 50, 112
3, 31650, Note_on_c, 1, 50, 98
3, 31650, Note_on_c, 1, 38, 98
3, 31654, Note_on_c, 1, 50, 0
3, 31656, Control_c, 1, 64, 127
3, 31657, Note_on_c, 1, 50, 0
3, 31679, Note_on_c, 1, 38, 0
3, 31679, Control_c, 1, 64, 0
3, 31680, Note_on_c, 1, 48, 94
3, 31680, Note_on_c, 1, 62, 98
3, 31710, Note_on_c, 1, 47, 94
3, 31713, Note_on_c, 1, 48, 0
3, 31739, Note_on_c, 1, 47, 0
3, 31740, Note_on_c, 1, 48, 90
3, 31767, Control_c, 1, 64, 127
3, 31770, Note_on_c, 1, 47, 98
3, 31771, Note_on_c, 1, 48, 0
3, 31796, Control_c, 1, 64, 0
3, 31797, Note_on_c, 1, 47, 0
3, 31800, Note_on_c, 1, 50, 90
3, 31815, Note_on_c, 1, 48, 90
3, 31817, Note_on_c, 1, 50, 0
3, 31830, Note_on_c, 1, 48, 0
3, 31830, Note_on_c, 1, 47, 98
3, 31857, Note_on_c, 1, 47, 0
3, 31860, Note_on_c, 1, 48, 94
3, 31868, Note_on_c, 1, 62, 0
3, 31890, Note_on_c, 1, 48, 0
3, 31890, Note_on_c, 1, 45, 98
3, 31890, Note_on_c, 1, 54, 98
3, 31917, Note_on_c, 1, 45, 0
3, 31919, Note_on_c, 1, 54, 0
3, 31920, Note_on_c, 1, 43, 98
3, 31920, Note_on_c, 1, 55, 94
3, 31942, Control_c, 1, 64, 127
3, 31967, Note_on_c, 1, 43, 0
3, 31972, Control_c, 1, 64, 0
3, 32040, Note_on_c, 1, 38, 94
3, 32047, Note_on_c, 1, 55, 0
3, 32049, Control_c, 1, 64, 127
3, 32094, Note_on_c, 1, 38, 0
3, 32099, Control_c, 1, 64, 0
3, 32130, Note_on_c, 1, 50, 94
3, 32160, Note_on_c, 1, 43, 107
3, 32160, Note_on_c, 1, 62, 98
3, 32161, Note_on_c, 1, 50, 0
3, 32171, Control_c, 1, 64, 127
3, 32190, Note_on_c, 1, 61, 90
3, 32193, Note_on_c, 1, 62, 0
3, 32216, Note_on_c, 1, 61, 0
3, 32220, Note_on_c, 1, 62, 90
3, 32221, Control_c, 1, 64, 0
3, 32222, Note_on_c, 1, 43, 0
3, 32249, Note_on_c, 1, 62, 0
3, 32250, Note_on_c, 1, 59, 94
3, 32279, Note_on_c, 1, 59, 0
3, 32280, Note_on_c, 1, 50, 107
3, 32280, Note_on_c, 1, 62, 90
3, 32293, Control_c, 1, 64, 127
3, 32295, Note_on_c, 1, 60, 81
3, 32298, Note_on_c, 1, 62, 0
3, 32309, Note_on_c, 1, 60, 0
3, 32310, Note_on_c, 1, 59, 98
3, 32312, Note_on_c, 1, 50, 0
3, 32339, Note_on_c, 1, 59, 0
3, 32340, Note_on_c, 1, 60, 85
3, 32346, Control_c, 1, 64, 0
3, 32370, Note_on_c, 1, 38, 107
3, 32370, Note_on_c, 1, 57, 98
3, 32371, Note_on_c, 1, 60, 0
3, 32379, Note_on_c, 1, 38, 0
3, 32387, Note_on_c, 1, 57, 0
3, 32400, Note_on_c, 1, 43, 85
3, 32400, Note_on_c, 1, 55, 94
3, 32414, Note_on_c, 1, 55, 0
3, 32414, Note_on_c, 1, 43, 0
3, 32430, Note_on_c, 1, 50, 98
3, 32430, Note_on_c, 1, 66, 85
3, 32440, Note_on_c, 1, 66, 0
3, 32440, Note_on_c, 1, 50, 0
3, 32460, Note_on_c, 1, 55, 90
3, 32460, Note_on_c, 1, 67, 85
3, 32470, Note_on_c, 1, 67, 0
3, 32472, Note_on_c, 1, 55, 0
3, 32490, Note_on_c, 1, 50, 103
3, 32490, Note_on_c, 1, 66, 85
3, 32498, Note_on_c, 1, 66, 0
3, 32499, Note_on_c, 1, 50, 0
3, 32520, Note_on_c, 1, 55, 98
3, 32520, Note_on_c, 1, 67, 90
3, 32529, Note_on_c, 1, 67, 0
3, 32531, Note_on_c, 1, 55, 0
3, 32550, Note_on_c, 1, 50, 98
3, 32550, Note_on_c, 1, 66, 81
3, 32558, Note_on_c, 1, 66, 0
3, 32559, Note_on_c, 1, 50, 0
3, 32580, Note_on_c, 1, 55, 94
3, 32580, Note_on_c, 1, 67, 77
3, 32590, Note_on_c, 1, 67, 0
3, 32593, Note_on_c, 1, 55, 0
3, 32610, Note_on_c, 1, 50, 94
3, 32610, Note_on_c, 1, 66, 81
3, 32618, Note_on_c, 1, 66, 0
3, 32619, Note_on_c, 1, 50, 0
3, 32640, Note_on_c, 1, 43, 90
3, 32640, Note_on_c, 1, 67, 77
3, 32651, Note_on_c, 1, 67, 0
3, 32654, Note_on_c, 1, 43, 0
3, 32670, Note_on_c, 1, 55, 94
3, 32670, Note_on_c, 1, 59, 90
3, 32670, Note_on_c, 1, 62, 94
3, 32678, Note_on_c, 1, 62, 0
3, 32680, Note_on_c, 1, 59, 0
3, 32682, Note_on_c, 1, 55, 0
3, 32700, Note_on_c, 1, 47, 98
3, 32700, Note_on_c, 1, 59, 90
3, 32700, Note_on_c, 1, 62, 94
3, 32707, Note_on_c, 1, 62, 0
3, 32707, Note_on_c, 1, 59, 0
3, 32710, Note_on_c, 1, 47, 0
3, 32730, Note_on_c, 1, 50, 94
3, 32730, Note_on_c, 1, 62, 94
3, 32730, Note_on_c, 1, 59, 90
3, 32736, Note_on_c, 1, 62, 0
3, 32737, Note_on_c, 1, 59, 0
3, 32738, Note_on_c, 1, 50, 0
3, 32760, Note_on_c, 1, 43, 98
3, 32760, Note_on_c, 1, 59, 98
3, 32760, Note_on_c, 1, 62, 94
3, 32768, Note_on_c, 1, 62, 0
3, 32770, Note_on_c, 1, 59, 0
3, 32779, Note_on_c, 1, 43, 0
3, 33090, Note_on_c, 1, 47, 94
3, 33120, Note_on_c, 1, 31, 94
3, 33120, Note_on_c, 1, 43, 98
3, 33120, Note_on_c, 1, 55, 90
3, 33121, Note_on_c, 1, 47, 0
3, 33147, Note_on_c, 1, 55, 0
3, 33150, Note_on_c, 1, 54, 77
3, 33180, Note_on_c, 1, 55, 90
3, 33181, Note_on_c, 1, 54, 0
3, 33194, Control_c, 1, 64, 127
3, 33209, Note_on_c, 1, 55, 0
3, 33210, Note_on_c, 1, 52, 94
3, 33240, Note_on_c, 1, 55, 77
3, 33241, Note_on_c, 1, 52, 0
3, 33255, Note_on_c, 1, 53, 67
3, 33257, Note_on_c, 1, 55, 0
3, 33270, Note_on_c, 1, 52, 90
3, 33272, Note_on_c, 1, 53, 0
3, 33300, Note_on_c, 1, 52, 0
3, 33300, Note_on_c, 1, 53, 81
3, 33301, Control_c, 1, 64, 0
3, 33314, Control_c, 1, 64, 127
3, 33330, Note_on_c, 1, 53, 0
3, 33330, Note_on_c, 1, 50, 90
3, 33336, Note_on_c, 1, 31, 0
3, 33340, Note_on_c, 1, 43, 0
3, 33354, Note_on_c, 1, 50, 0
3, 33358, Control_c, 1, 64, 0
3, 33360, Note_on_c, 1, 36, 94
3, 33360, Note_on_c, 1, 48, 90
3, 33369, Note_on_c, 1, 48, 0
3, 33370, Note_on_c, 1, 36, 0
3, 33390, Note_on_c, 1, 43, 81
3, 33390, Note_on_c, 1, 50, 98
3, 33398, Note_on_c, 1, 50, 0
3, 33401, Note_on_c, 1, 43, 0
3, 33420, Note_on_c, 1, 36, 90
3, 33420, Note_on_c, 1, 48, 90
3, 33429, Note_on_c, 1, 48, 0
3, 33429, Note_on_c, 1, 36, 0
3, 33450, Note_on_c, 1, 43, 81
3, 33450, Note_on_c, 1, 50, 94
3, 33460, Note_on_c, 1, 50, 0
3, 33460, Note_on_c, 1, 43, 0
3, 33480, Note_on_c, 1, 36, 81
3, 33480, Note_on_c, 1, 48, 90
3, 33497, Control_c, 1, 64, 127
3, 33502, Note_on_c, 1, 48, 0
3, 33536, Note_on_c, 1, 36, 0
3, 33540, Control_c, 1, 64, 0
3, 33570, Note_on_c, 1, 57, 90
3, 33600, Note_on_c, 1, 57, 0
3, 33600, Note_on_c, 1, 62, 98
3, 33630, Note_on_c, 1, 62, 0
3, 33630, Note_on_c, 1, 61, 77
3, 33658, Note_on_c, 1, 61, 0
3, 33660, Note_on_c, 1, 62, 90
3, 33690, Note_on_c, 1, 62, 0
3, 33690, Note_on_c, 1, 61, 81
3, 33719, Note_on_c, 1, 61, 0
3, 33720, Note_on_c, 1, 64, 81
3, 33735, Note_on_c, 1, 62, 94
3, 33738, Note_on_c, 1, 64, 0
3, 33750, Note_on_c, 1, 61, 73
3, 33752, Note_on_c, 1, 62, 0
3, 33780, Note_on_c, 1, 61, 0
3, 33780, Note_on_c, 1, 62, 94
3, 33803, Note_on_c, 1, 62, 0
3, 33810, Note_on_c, 1, 62, 94
3, 33821, Note_on_c, 1, 62, 0
3, 33840, Note_on_c, 1, 50, 98
3, 34044, Note_on_c, 1, 50, 0
3, 34050, Note_on_c, 1, 38, 98
3, 34059, Control_c, 1, 64, 127
3, 34065, Note_on_c, 1, 50, 98
3, 34075, Note_on_c, 1, 50, 0
3, 34080, Note_on_c, 1, 38, 0
3, 34080, Note_on_c, 1, 48, 90
3, 34080, Note_on_c, 1, 62, 94
3, 34081, Control_c, 1, 64, 0
3, 34110, Note_on_c, 1, 47, 85
3, 34111, Note_on_c, 1, 48, 0
3, 34140, Note_on_c, 1, 47, 0
3, 34140, Note_on_c, 1, 48, 81
3, 34170, Note_on_c, 1, 47, 94
3, 34171, Note_on_c, 1, 48, 0
3, 34171, Control_c, 1, 64, 127
3, 34194, Control_c, 1, 64, 0
3, 34200, Note_on_c, 1, 47, 0
3, 34200, Note_on_c, 1, 50, 85
3, 34215, Note_on_c, 1, 48, 81
3, 34217, Note_on_c, 1, 50, 0
3, 34230, Note_on_c, 1, 47, 81
3, 34231, Note_on_c, 1, 48, 0
3, 34257, Note_on_c, 1, 47, 0
3, 34260, Note_on_c, 1, 48, 94
3, 34268, Note_on_c, 1, 62, 0
3, 34283, Control_c, 1, 64, 127
3, 34287, Note_on_c, 1, 48, 0
3, 34290, Note_on_c, 1, 45, 94
3, 34290, Note_on_c, 1, 54, 94
3, 34295, Control_c, 1, 64, 0
3, 34317, Note_on_c, 1, 54, 0
3, 34319, Note_on_c, 1, 45, 0
3, 34320, Note_on_c, 1, 43, 90
3, 34320, Note_on_c, 1, 55, 94
3, 34337, Control_c, 1, 64, 127
3, 34376, Note_on_c, 1, 43, 0
3, 34377, Control_c, 1, 64, 0
3, 34435, Note_on_c, 1, 55, 0
3, 34440, Note_on_c, 1, 38, 98
3, 34455, Control_c, 1, 64, 127
3, 34500, Control_c, 1, 64, 0
3, 34503, Note_on_c, 1, 38, 0
3, 34530, Note_on_c, 1, 50, 94
3, 34560, Note_on_c, 1, 43, 90
3, 34560, Note_on_c, 1, 62, 98
3, 34564, Note_on_c, 1, 50, 0
3, 34570, Control_c, 1, 64, 127
3, 34589, Note_on_c, 1, 62, 0
3, 34590, Note_on_c, 1, 61, 77
3, 34618, Note_on_c, 1, 43, 0
3, 34619, Control_c, 1, 64, 0
3, 34620, Note_on_c, 1, 61, 0
3, 34620, Note_on_c, 1, 62, 94
3, 34649, Note_on_c, 1, 62, 0
3, 34650, Note_on_c, 1, 59, 94
3, 34680, Note_on_c, 1, 59, 0
3, 34680, Note_on_c, 1, 50, 103
3, 34680, Note_on_c, 1, 62, 94
3, 34695, Note_on_c, 1, 62, 0
3, 34695, Note_on_c, 1, 60, 81
3, 34697, Control_c, 1, 64, 127
3, 34710, Note_on_c, 1, 60, 0
3, 34710, Note_on_c, 1, 59, 85
3, 34738, Note_on_c, 1, 59, 0
3, 34740, Note_on_c, 1, 60, 98
3, 34741, Control_c, 1, 64, 0
3, 34742, Note_on_c, 1, 50, 0
3, 34770, Note_on_c, 1, 38, 94
3, 34770, Note_on_c, 1, 57, 94
3, 34773, Note_on_c, 1, 60, 0
3, 34778, Control_c, 1, 64, 127
3, 34780, Note_on_c, 1, 38, 0
3, 34784, Note_on_c, 1, 57, 0
3, 34798, Control_c, 1, 64, 0
3, 34800, Note_on_c, 1, 43, 73
3, 34800, Note_on_c, 1, 55, 90
3, 34812, Note_on_c, 1, 43, 0
3, 34814, Note_on_c, 1, 55, 0
3, 34830, Note_on_c, 1, 50, 103
3, 34830, Note_on_c, 1, 66, 81
3, 34838, Note_on_c, 1, 50, 0
3, 34841, Note_on_c, 1, 66, 0
3, 34860, Note_on_c, 1, 55, 90
3, 34860, Note_on_c, 1, 67, 85
3, 34870, Note_on_c, 1, 67, 0
3, 34872, Note_on_c, 1, 55, 0
3, 34890, Note_on_c, 1, 50, 94
3, 34890, Note_on_c, 1, 66, 85
3, 34899, Note_on_c, 1, 66, 0
3, 34900, Note_on_c, 1, 50, 0
3, 34920, Note_on_c, 1, 55, 94
3, 34920, Note_on_c, 1, 67, 85
3, 34929, Note_on_c, 1, 67, 0
3, 34933, Note_on_c, 1, 55, 0
3, 34950, Note_on_c, 1, 50, 94
3, 34950, Note_on_c, 1, 66, 90
3, 34959, Note_on_c, 1, 66, 0
3, 34959, Note_on_c, 1, 50, 0
3, 34980, Note_on_c, 1, 55, 94
3, 34980, Note_on_c, 1, 67, 85
3, 34990, Note_on_c, 1, 67, 0
3, 34993, Note_on_c, 1, 55, 0
3, 35010, Note_on_c, 1, 50, 94
3, 35010, Note_on_c, 1, 66, 81
3, 35018, Note_on_c, 1, 66, 0
3, 35018, Note_on_c, 1, 50, 0
3, 35040, Note_on_c, 1, 43, 94
3, 35040, Note_on_c, 1, 67, 85
3, 35050, Note_on_c, 1, 67, 0
3, 35053, Note_on_c, 1, 43, 0
3, 35070, Note_on_c, 1, 55, 85
3, 35070, Note_on_c, 1, 59, 77
3, 35070, Note_on_c, 1, 62, 85
3, 35079, Note_on_c, 1, 62, 0
3, 35079, Note_on_c, 1, 59, 0
3, 35082, Note_on_c, 1, 55, 0
3, 35100, Note_on_c, 1, 47, 98
3, 35100, Note_on_c, 1, 59, 81
3, 35100, Note_on_c, 1, 62, 85
3, 35107, Note_on_c, 1, 62, 0
3, 35108, Note_on_c, 1, 59, 0
3, 35110, Note_on_c, 1, 47, 0
3, 35130, Note_on_c, 1, 50, 94
3, 35130, Note_on_c, 1, 59, 90
3, 35130, Note_on_c, 1, 62, 94
3, 35136, Note_on_c, 1, 62, 0
3, 35138, Note_on_c, 1, 59, 0
3, 35139, Note_on_c, 1, 50, 0
3, 35160, Note_on_c, 1, 43, 98
3, 35160, Note_on_c, 1, 59, 98
3, 35160, Note_on_c, 1, 62, 98
3, 35168, Control_c, 1, 64, 127
3, 35212, Note_on_c, 1, 62, 0
3, 35213, Note_on_c, 1, 59, 0
3, 35214, Note_on_c, 1, 43, 0
3, 35223, Control_c, 1, 64, 0
3, 35700, Note_on_c, 1, 57, 73
3, 35760, Note_on_c, 1, 65, 61
3, 35762, Note_on_c, 1, 57, 0
3, 35820, Note_on_c, 1, 64, 77
3, 35822, Note_on_c, 1, 65, 0
3, 35880, Note_on_c, 1, 63, 69
3, 35884, Note_on_c, 1, 64, 0
3, 35940, Note_on_c, 1, 61, 67
3, 35940, Note_on_c, 1, 55, 81
3, 35940, Note_on_c, 1, 58, 69
3, 35945, Note_on_c, 1, 63, 0
3, 35956, Control_c, 1, 64, 127
3, 35985, Note_on_c, 1, 55, 0
3, 35987, Note_on_c, 1, 58, 0
3, 35998, Note_on_c, 1, 61, 0
3, 36000, Note_on_c, 1, 62, 81
3, 36000, Note_on_c, 1, 55, 81
3, 36000, Note_on_c, 1, 57, 81
3, 36012, Control_c, 1, 64, 0
3, 36030, Note_on_c, 1, 61, 73
3, 36032, Note_on_c, 1, 62, 0
3, 36040, Control_c, 1, 64, 127
3, 36055, Control_c, 1, 64, 0
3, 36056, Note_on_c, 1, 55, 0
3, 36060, Note_on_c, 1, 59, 81
3, 36060, Note_on_c, 1, 53, 81
3, 36064, Note_on_c, 1, 61, 0
3, 36075, Control_c, 1, 64, 127
3, 36090, Note_on_c, 1, 64, 77
3, 36094, Note_on_c, 1, 59, 0
3, 36101, Note_on_c, 1, 53, 0
3, 36105, Note_on_c, 1, 52, 81
3, 36118, Note_on_c, 1, 52, 0
3, 36119, Control_c, 1, 64, 0
3, 36120, Note_on_c, 1, 65, 62
3, 36120, Note_on_c, 1, 50, 65
3, 36124, Note_on_c, 1, 64, 0
3, 36144, Control_c, 1, 64, 127
3, 36176, Note_on_c, 1, 65, 0
3, 36178, Note_on_c, 1, 57, 0
3, 36179, Control_c, 1, 64, 0
3, 36180, Note_on_c, 1, 50, 0
3, 36180, Note_on_c, 1, 35, 69
3, 36180, Note_on_c, 1, 47, 85
3, 36180, Note_on_c, 1, 62, 90
3, 36202, Control_c, 1, 64, 127
3, 36238, Note_on_c, 1, 62, 0
3, 36239, Note_on_c, 1, 47, 0
3, 36240, Note_on_c, 1, 55, 85
3, 36240, Note_on_c, 1, 48, 98
3, 36240, Note_on_c, 1, 36, 90
3, 36243, Control_c, 1, 64, 0
3, 36244, Note_on_c, 1, 35, 0
3, 36265, Control_c, 1, 64, 127
3, 36300, Note_on_c, 1, 55, 0
3, 36300, Note_on_c, 1, 56, 94
3, 36300, Note_on_c, 1, 53, 90
3, 36300, Note_on_c, 1, 41, 90
3, 36302, Note_on_c, 1, 48, 0
3, 36304, Note_on_c, 1, 36, 0
3, 36308, Control_c, 1, 64, 0
3, 36331, Control_c, 1, 64, 127
3, 36356, Note_on_c, 1, 41, 0
3, 36358, Note_on_c, 1, 53, 0
3, 36360, Note_on_c, 1, 56, 0
3, 36360, Note_on_c, 1, 65, 94
3, 36360, Note_on_c, 1, 56, 94
3, 36360, Note_on_c, 1, 44, 81
3, 36362, Control_c, 1, 64, 0
3, 36384, Control_c, 1, 64, 127
3, 36414, Note_on_c, 1, 44, 0
3, 36418, Note_on_c, 1, 56, 0
3, 36420, Note_on_c, 1, 43, 81
3, 36420, Note_on_c, 1, 55, 77
3, 36420, Note_on_c, 1, 62, 98
3, 36423, Control_c, 1, 64, 0
3, 36424, Note_on_c, 1, 65, 0
3, 36447, Control_c, 1, 64, 127
3, 36480, Note_on_c, 1, 67, 98
3, 36480, Note_on_c, 1, 39, 81
3, 36480, Note_on_c, 1, 51, 94
3, 36481, Note_on_c, 1, 62, 0
3, 36482, Control_c, 1, 64, 0
3, 36484, Note_on_c, 1, 55, 0
3, 36485, Note_on_c, 1, 43, 0
3, 36529, Control_c, 1, 64, 127
3, 36568, Note_on_c, 1, 39, 0
3, 36569, Note_on_c, 1, 51, 0
3, 36570, Note_on_c, 1, 59, 81
3, 36570, Note_on_c, 1, 38, 81
3, 36570, Note_on_c, 1, 50, 90
3, 36572, Note_on_c, 1, 67, 0
3, 36576, Control_c, 1, 64, 0
3, 36600, Note_on_c, 1, 60, 81
3, 36600, Note_on_c, 1, 48, 85
3, 36600, Note_on_c, 1, 36, 90
3, 36601, Note_on_c, 1, 50, 0
3, 36603, Note_on_c, 1, 59, 0
3, 36603, Note_on_c, 1, 38, 0
3, 36614, Control_c, 1, 64, 127
3, 36664, Note_on_c, 1, 60, 0
3, 36669, Note_on_c, 1, 36, 0
3, 36670, Note_on_c, 1, 48, 0
3, 36673, Control_c, 1, 64, 0
3, 36900, Note_on_c, 1, 54, 64
3, 36900, Note_on_c, 1, 38, 61
3, 36900, Note_on_c, 1, 48, 55
3, 36905, Control_c, 1, 64, 127
3, 36960, Note_on_c, 1, 43, 61
3, 36960, Note_on_c, 1, 46, 69
3, 36960, Note_on_c, 1, 57, 69
3, 36962, Note_on_c, 1, 38, 0
3, 36963, Control_c, 1, 64, 0
3, 36965, Note_on_c, 1, 48, 0
3, 36968, Note_on_c, 1, 54, 0
3, 36988, Note_on_c, 1, 57, 0
3, 36990, Note_on_c, 1, 55, 77
3, 37020, Note_on_c, 1, 54, 65
3, 37024, Note_on_c, 1, 55, 0
3, 37050, Note_on_c, 1, 57, 77
3, 37053, Note_on_c, 1, 54, 0
3, 37056, Control_c, 1, 64, 127
3, 37080, Note_on_c, 1, 58, 62
3, 37081, Note_on_c, 1, 57, 0
3, 37085, Note_on_c, 1, 46, 0
3, 37086, Control_c, 1, 64, 0
3, 37087, Note_on_c, 1, 43, 0
3, 37140, Note_on_c, 1, 58, 0
3, 37620, Note_on_c, 1, 57, 67
3, 37680, Note_on_c, 1, 57, 0
3, 37680, Note_on_c, 1, 65, 65
3, 37739, Note_on_c, 1, 65, 0
3, 37740, Note_on_c, 1, 64, 73
3, 37800, Note_on_c, 1, 63, 67
3, 37805, Note_on_c, 1, 64, 0
3, 37860, Note_on_c, 1, 61, 60
3, 37860, Note_on_c, 1, 55, 77
3, 37860, Note_on_c, 1, 58, 60
3, 37861, Note_on_c, 1, 63, 0
3, 37873, Control_c, 1, 64, 127
3, 37917, Note_on_c, 1, 58, 0
3, 37920, Note_on_c, 1, 62, 69
3, 37920, Note_on_c, 1, 57, 77
3, 37921, Note_on_c, 1, 61, 0
3, 37929, Control_c, 1, 64, 0
3, 37950, Note_on_c, 1, 61, 62
3, 37953, Note_on_c, 1, 62, 0
3, 37958, Control_c, 1, 64, 127
3, 37973, Note_on_c, 1, 55, 0
3, 37978, Control_c, 1, 64, 0
3, 37980, Note_on_c, 1, 61, 0
3, 37980, Note_on_c, 1, 59, 77
3, 37980, Note_on_c, 1, 53, 65
3, 38004, Control_c, 1, 64, 127
3, 38010, Note_on_c, 1, 64, 77
3, 38013, Note_on_c, 1, 59, 0
3, 38020, Note_on_c, 1, 53, 0
3, 38025, Note_on_c, 1, 52, 67
3, 38034, Control_c, 1, 64, 0
3, 38035, Note_on_c, 1, 52, 0
3, 38040, Note_on_c, 1, 50, 85
3, 38040, Note_on_c, 1, 65, 73
3, 38042, Note_on_c, 1, 64, 0
3, 38065, Control_c, 1, 64, 127
3, 38089, Note_on_c, 1, 57, 0
3, 38099, Note_on_c, 1, 50, 0
3, 38099, Control_c, 1, 64, 0
3, 38100, Note_on_c, 1, 47, 98
3, 38100, Note_on_c, 1, 35, 98
3, 38100, Note_on_c, 1, 62, 77
3, 38101, Note_on_c, 1, 65, 0
3, 38131, Control_c, 1, 64, 127
3, 38157, Note_on_c, 1, 47, 0
3, 38159, Note_on_c, 1, 35, 0
3, 38160, Note_on_c, 1, 48, 94
3, 38160, Note_on_c, 1, 36, 85
3, 38160, Note_on_c, 1, 55, 90
3, 38161, Control_c, 1, 64, 0
3, 38163, Note_on_c, 1, 62, 0
3, 38186, Control_c, 1, 64, 127
3, 38216, Note_on_c, 1, 36, 0
3, 38218, Note_on_c, 1, 48, 0
3, 38220, Note_on_c, 1, 53, 94
3, 38220, Note_on_c, 1, 41, 94
3, 38220, Note_on_c, 1, 56, 90
3, 38222, Control_c, 1, 64, 0
3, 38223, Note_on_c, 1, 55, 0
3, 38248, Control_c, 1, 64, 127
3, 38279, Note_on_c, 1, 41, 0
3, 38280, Note_on_c, 1, 44, 77
3, 38280, Note_on_c, 1, 65, 98
3, 38280, Note_on_c, 1, 56, 94
3, 38280, Control_c, 1, 64, 0
3, 38281, Note_on_c, 1, 56, 0
3, 38284, Note_on_c, 1, 53, 0
3, 38304, Control_c, 1, 64, 127
3, 38340, Note_on_c, 1, 62, 94
3, 38340, Note_on_c, 1, 43, 77
3, 38340, Note_on_c, 1, 55, 94
3, 38341, Note_on_c, 1, 65, 0
3, 38341, Note_on_c, 1, 44, 0
3, 38342, Note_on_c, 1, 56, 0
3, 38345, Control_c, 1, 64, 0
3, 38365, Control_c, 1, 64, 127
3, 38400, Control_c, 1, 64, 0
3, 38400, Note_on_c, 1, 67, 90
3, 38400, Note_on_c, 1, 39, 90
3, 38400, Note_on_c, 1, 51, 98
3, 38401, Note_on_c, 1, 62, 0
3, 38402, Note_on_c, 1, 43, 0
3, 38402, Note_on_c, 1, 55, 0
3, 38448, Control_c, 1, 64, 127
3, 38484, Note_on_c, 1, 39, 0
3, 38485, Control_c, 1, 64, 0
3, 38487, Note_on_c, 1, 51, 0
3, 38489, Note_on_c, 1, 67, 0
3, 38490, Note_on_c, 1, 38, 85
3, 38490, Note_on_c, 1, 50, 90
3, 38490, Note_on_c, 1, 59, 73
3, 38504, Control_c, 1, 64, 127
3, 38512, Control_c, 1, 64, 0
3, 38520, Note_on_c, 1, 48, 90
3, 38520, Note_on_c, 1, 60, 73
3, 38520, Note_on_c, 1, 36, 85
3, 38521, Note_on_c, 1, 59, 0
3, 38521, Note_on_c, 1, 50, 0
3, 38525, Note_on_c, 1, 38, 0
3, 38536, Control_c, 1, 64, 127
3, 38578, Control_c, 1, 64, 0
3, 38580, Note_on_c, 1, 36, 0
3, 38582, Note_on_c, 1, 48, 0
3, 38586, Note_on_c, 1, 60, 0
3, 38792, Control_c, 1, 64, 127
3, 38820, Note_on_c, 1, 38, 65
3, 38820, Note_on_c, 1, 48, 55
3, 38820, Note_on_c, 1, 54, 62
3, 38855, Note_on_c, 1, 48, 0
3, 38855, Note_on_c, 1, 38, 0
3, 38880, Note_on_c, 1, 57, 69
3, 38880, Note_on_c, 1, 43, 65
3, 38880, Note_on_c, 1, 46, 65
3, 38883, Note_on_c, 1, 54, 0
3, 38884, Control_c, 1, 64, 0
3, 38906, Note_on_c, 1, 57, 0
3, 38909, Control_c, 1, 64, 127
3, 38910, Note_on_c, 1, 55, 65
3, 38939, Note_on_c, 1, 55, 0
3, 38940, Note_on_c, 1, 54, 50
3, 38970, Note_on_c, 1, 57, 69
3, 38971, Note_on_c, 1, 54, 0
3, 38999, Note_on_c, 1, 57, 0
3, 39000, Note_on_c, 1, 58, 62
3, 39004, Note_on_c, 1, 46, 0
3, 39004, Control_c, 1, 64, 0
3, 39006, Note_on_c, 1, 43, 0
3, 39060, Note_on_c, 1, 58, 0
3, 39180, Note_on_c, 1, 42, 85
3, 39189, Control_c, 1, 64, 127
3, 39239, Control_c, 1, 64, 0
3, 39240, Note_on_c, 1, 41, 94
3, 39241, Note_on_c, 1, 42, 0
3, 39300, Note_on_c, 1, 46, 103
3, 39300, Note_on_c, 1, 58, 94
3, 39305, Note_on_c, 1, 41, 0
3, 39326, Control_c, 1, 64, 127
3, 39357, Note_on_c, 1, 46, 0
3, 39360, Note_on_c, 1, 67, 98
3, 39365, Note_on_c, 1, 58, 0
3, 39367, Control_c, 1, 64, 0
3, 39413, Control_c, 1, 64, 127
3, 39420, Note_on_c, 1, 67, 0
3, 39420, Note_on_c, 1, 39, 94
3, 39420, Note_on_c, 1, 66, 81
3, 39424, Control_c, 1, 64, 127
3, 39478, Control_c, 1, 64, 0
3, 39479, Note_on_c, 1, 39, 0
3, 39480, Note_on_c, 1, 38, 94
3, 39480, Note_on_c, 1, 65, 94
3, 39481, Control_c, 1, 64, 0
3, 39485, Note_on_c, 1, 66, 0
3, 39504, Control_c, 1, 64, 127
3, 39513, Control_c, 1, 64, 127
3, 39528, Control_c, 1, 64, 0
3, 39528, Control_c, 1, 64, 0
3, 39533, Note_on_c, 1, 65, 0
3, 39540, Note_on_c, 1, 43, 85
3, 39540, Note_on_c, 1, 62, 98
3, 39544, Note_on_c, 1, 38, 0
3, 39548, Control_c, 1, 64, 127
3, 39551, Control_c, 1, 64, 127
3, 39597, Note_on_c, 1, 43, 0
3, 39598, Control_c, 1, 64, 0
3, 39600, Note_on_c, 1, 36, 94
3, 39600, Note_on_c, 1, 48, 94
3, 39600, Note_on_c, 1, 60, 90
3, 39602, Note_on_c, 1, 62, 0
3, 39605, Control_c, 1, 64, 0
3, 39624, Control_c, 1, 64, 127
3, 39644, Control_c, 1, 64, 127
3, 39660, Note_on_c, 1, 59, 94
3, 39661, Note_on_c, 1, 60, 0
3, 39663, Control_c, 1, 64, 0
3, 39688, Control_c, 1, 64, 127
3, 39720, Note_on_c, 1, 59, 0
3, 39720, Note_on_c, 1, 60, 94
3, 39729, Control_c, 1, 64, 0
3, 39754, Control_c, 1, 64, 127
3, 39780, Note_on_c, 1, 60, 0
3, 39780, Note_on_c, 1, 63, 94
3, 39780, Control_c, 1, 64, 0
3, 39785, Note_on_c, 1, 36, 0
3, 39795, Note_on_c, 1, 48, 0
3, 39796, Control_c, 1, 64, 127
3, 39836, Control_c, 1, 64, 0
3, 39839, Control_c, 1, 64, 0
3, 39840, Note_on_c, 1, 38, 90
3, 39840, Note_on_c, 1, 50, 85
3, 39840, Note_on_c, 1, 62, 94
3, 39842, Note_on_c, 1, 63, 0
3, 39860, Control_c, 1, 64, 127
3, 39869, Control_c, 1, 64, 127
3, 39900, Note_on_c, 1, 70, 85
3, 39903, Note_on_c, 1, 62, 0
3, 39903, Control_c, 1, 64, 0
3, 39923, Control_c, 1, 64, 127
3, 39960, Note_on_c, 1, 70, 0
3, 39960, Note_on_c, 1, 69, 90
3, 39964, Control_c, 1, 64, 0
3, 39983, Control_c, 1, 64, 127
3, 40007, Note_on_c, 1, 69, 0
3, 40010, Note_on_c, 1, 50, 0
3, 40010, Note_on_c, 1, 38, 0
3, 40018, Control_c, 1, 64, 0
3, 40018, Control_c, 1, 64, 0
3, 40020, Note_on_c, 1, 62, 67
3, 40020, Note_on_c, 1, 66, 67
3, 40043, Control_c, 1, 64, 127
3, 40045, Control_c, 1, 64, 127
3, 40068, Note_on_c, 1, 66, 0
3, 40080, Note_on_c, 1, 60, 54
3, 40080, Note_on_c, 1, 67, 69
3, 40082, Note_on_c, 1, 62, 0
3, 40092, Control_c, 1, 64, 0
3, 40094, Control_c, 1, 64, 0
3, 40119, Control_c, 1, 64, 127
3, 40124, Control_c, 1, 64, 127
3, 40200, Note_on_c, 1, 62, 61
3, 40200, Note_on_c, 1, 66, 58
3, 40201, Note_on_c, 1, 67, 0
3, 40202, Control_c, 1, 64, 0
3, 40207, Control_c, 1, 64, 0
3, 40208, Note_on_c, 1, 60, 0
3, 40216, Control_c, 1, 64, 127
3, 40221, Control_c, 1, 64, 127
3, 40237, Note_on_c, 1, 66, 0
3, 40241, Note_on_c, 1, 62, 0
3, 40249, Control_c, 1, 64, 0
3, 40260, Note_on_c, 1, 62, 85
3, 40260, Note_on_c, 1, 66, 81
3, 40263, Control_c, 1, 64, 0
3, 40274, Control_c, 1, 64, 127
3, 40275, Control_c, 1, 64, 127
3, 40320, Note_on_c, 1, 60, 64
3, 40320, Note_on_c, 1, 67, 81
3, 40326, Note_on_c, 1, 66, 0
3, 40326, Note_on_c, 1, 62, 0
3, 40336, Control_c, 1, 64, 0
3, 40342, Control_c, 1, 64, 0
3, 40357, Control_c, 1, 64, 127
3, 40362, Control_c, 1, 64, 127
3, 40434, Note_on_c, 1, 67, 0
3, 40437, Note_on_c, 1, 60, 0
3, 40438, Control_c, 1, 64, 0
3, 40440, Note_on_c, 1, 62, 67
3, 40440, Note_on_c, 1, 66, 60
3, 40446, Control_c, 1, 64, 0
3, 40454, Control_c, 1, 64, 127
3, 40459, Control_c, 1, 64, 127
3, 40494, Note_on_c, 1, 62, 0
3, 40497, Note_on_c, 1, 66, 0
3, 40500, Control_c, 1, 64, 0
3, 40507, Control_c, 1, 64, 0
3, 40740, Note_on_c, 1, 38, 103
3, 40740, Note_on_c, 1, 69, 98
3, 40745, Control_c, 1, 64, 127
3, 40749, Control_c, 1, 64, 127
3, 40795, Note_on_c, 1, 38, 0
3, 40800, Note_on_c, 1, 69, 0
3, 40800, Note_on_c, 1, 53, 94
3, 40800, Note_on_c, 1, 67, 98
3, 40805, Control_c, 1, 64, 0
3, 40807, Control_c, 1, 64, 0
3, 40830, Control_c, 1, 64, 127
3, 40834, Control_c, 1, 64, 127
3, 40860, Note_on_c, 1, 52, 94
3, 40861, Note_on_c, 1, 53, 0
3, 40865, Control_c, 1, 64, 0
3, 40888, Control_c, 1, 64, 127
3, 40920, Note_on_c, 1, 52, 0
3, 40920, Note_on_c, 1, 51, 94
3, 40927, Control_c, 1, 64, 0
3, 40945, Control_c, 1, 64, 127
3, 40973, Note_on_c, 1, 51, 0
3, 40977, Note_on_c, 1, 67, 0
3, 40980, Note_on_c, 1, 49, 94
3, 40980, Note_on_c, 1, 70, 94
3, 40980, Control_c, 1, 64, 0
3, 40983, Control_c, 1, 64, 0
3, 40996, Control_c, 1, 64, 127
3, 41005, Control_c, 1, 64, 127
3, 41025, Note_on_c, 1, 67, 94
3, 41027, Note_on_c, 1, 70, 0
3, 41031, Control_c, 1, 64, 0
3, 41040, Note_on_c, 1, 67, 0
3, 41040, Note_on_c, 1, 50, 98
3, 41040, Note_on_c, 1, 62, 94
3, 41044, Control_c, 1, 64, 0
3, 41045, Note_on_c, 1, 49, 0
3, 41071, Control_c, 1, 64, 127
3, 41088, Control_c, 1, 64, 127
3, 41164, Note_on_c, 1, 50, 0
3, 41168, Control_c, 1, 64, 0
3, 41188, Note_on_c, 1, 62, 0
3, 41195, Control_c, 1, 64, 0
3, 41220, Note_on_c, 1, 50, 69
3, 41220, Note_on_c, 1, 60, 61
3, 41224, Control_c, 1, 64, 127
3, 41230, Control_c, 1, 64, 127
3, 41266, Note_on_c, 1, 60, 0
3, 41275, Note_on_c, 1, 50, 0
3, 41279, Control_c, 1, 64, 0
3, 41280, Note_on_c, 1, 55, 64
3, 41280, Note_on_c, 1, 58, 60
3, 41284, Control_c, 1, 64, 0
3, 41303, Control_c, 1, 64, 127
3, 41308, Control_c, 1, 64, 127
3, 41335, Note_on_c, 1, 58, 0
3, 41340, Note_on_c, 1, 50, 64
3, 41346, Control_c, 1, 64, 0
3, 41350, Note_on_c, 1, 55, 0
3, 41360, Control_c, 1, 64, 0
3, 41371, Control_c, 1, 64, 127
3, 41400, Note_on_c, 1, 43, 61
3, 41407, Note_on_c, 1, 50, 0
3, 41412, Control_c, 1, 64, 0
3, 41434, Control_c, 1, 64, 127
3, 41459, Note_on_c, 1, 43, 0
3, 41473, Control_c, 1, 64, 0
3, 41580, Note_on_c, 1, 42, 90
3, 41583, Control_c, 1, 64, 127
3, 41640, Note_on_c, 1, 41, 94
3, 41642, Control_c, 1, 64, 0
3, 41643, Note_on_c, 1, 42, 0
3, 41672, Control_c, 1, 64, 127
3, 41700, Note_on_c, 1, 46, 94
3, 41700, Note_on_c, 1, 58, 103
3, 41702, Control_c, 1, 64, 0
3, 41704, Note_on_c, 1, 41, 0
3, 41705, Control_c, 1, 64, 127
3, 41722, Control_c, 1, 64, 127
3, 41759, Note_on_c, 1, 58, 0
3, 41760, Note_on_c, 1, 67, 94
3, 41762, Note_on_c, 1, 46, 0
3, 41768, Control_c, 1, 64, 0
3, 41768, Control_c, 1, 64, 0
3, 41790, Control_c, 1, 64, 127
3, 41820, Note_on_c, 1, 39, 90
3, 41820, Note_on_c, 1, 66, 85
3, 41821, Note_on_c, 1, 67, 0
3, 41827, Control_c, 1, 64, 127
3, 41828, Control_c, 1, 64, 0
3, 41849, Control_c, 1, 64, 127
3, 41880, Note_on_c, 1, 66, 0
3, 41880, Note_on_c, 1, 39, 0
3, 41880, Note_on_c, 1, 38, 94
3, 41880, Note_on_c, 1, 65, 94
3, 41883, Control_c, 1, 64, 0
3, 41883, Control_c, 1, 64, 0
3, 41905, Control_c, 1, 64, 127
3, 41910, Control_c, 1, 64, 127
3, 41934, Control_c, 1, 64, 0
3, 41940, Note_on_c, 1, 43, 98
3, 41940, Note_on_c, 1, 62, 98
3, 41942, Note_on_c, 1, 65, 0
3, 41945, Note_on_c, 1, 38, 0
3, 41945, Control_c, 1, 64, 0
3, 41952, Control_c, 1, 64, 127
3, 41963, Control_c, 1, 64, 127
3, 42000, Note_on_c, 1, 62, 0
3, 42000, Note_on_c, 1, 36, 103
3, 42000, Note_on_c, 1, 48, 98
3, 42000, Note_on_c, 1, 60, 90
3, 42002, Note_on_c, 1, 43, 0
3, 42006, Control_c, 1, 64, 0
3, 42007, Control_c, 1, 64, 0
3, 42028, Control_c, 1, 64, 127
3, 42047, Control_c, 1, 64, 127
3, 42060, Note_on_c, 1, 59, 98
3, 42061, Note_on_c, 1, 60, 0
3, 42064, Control_c, 1, 64, 0
3, 42089, Control_c, 1, 64, 127
3, 42120, Note_on_c, 1, 60, 98
3, 42121, Note_on_c, 1, 59, 0
3, 42125, Control_c, 1, 64, 0
3, 42149, Control_c, 1, 64, 127
3, 42180, Control_c, 1, 64, 0
3, 42180, Note_on_c, 1, 63, 81
3, 42183, Note_on_c, 1, 60, 0
3, 42185, Note_on_c, 1, 36, 0
3, 42192, Note_on_c, 1, 48, 0
3, 42195, Control_c, 1, 64, 127
3, 42238, Note_on_c, 1, 63, 0
3, 42239, Control_c, 1, 64, 0
3, 42240, Note_on_c, 1, 38, 81
3, 42240, Note_on_c, 1, 50, 77
3, 42240, Note_on_c, 1, 62, 98
3, 42242, Control_c, 1, 64, 0
3, 42263, Control_c, 1, 64, 127
3, 42270, Control_c, 1, 64, 127
3, 42299, Note_on_c, 1, 62, 0
3, 42300, Note_on_c, 1, 70, 85
3, 42308, Control_c, 1, 64, 0
3, 42326, Control_c, 1, 64, 127
3, 42360, Note_on_c, 1, 69, 85
3, 42364, Note_on_c, 1, 70, 0
3, 42368, Control_c, 1, 64, 0
3, 42384, Control_c, 1, 64, 127
3, 42392, Note_on_c, 1, 50, 0
3, 42393, Note_on_c, 1, 38, 0
3, 42402, Note_on_c, 1, 69, 0
3, 42403, Control_c, 1, 64, 0
3, 42418, Control_c, 1, 64, 0
3, 42420, Note_on_c, 1, 62, 67
3, 42420, Note_on_c, 1, 66, 67
3, 42439, Control_c, 1, 64, 127
3, 42444, Control_c, 1, 64, 127
3, 42477, Note_on_c, 1, 66, 0
3, 42480, Note_on_c, 1, 60, 61
3, 42480, Note_on_c, 1, 67, 73
3, 42485, Note_on_c, 1, 62, 0
3, 42490, Control_c, 1, 64, 0
3, 42491, Control_c, 1, 64, 0
3, 42518, Control_c, 1, 64, 127
3, 42524, Control_c, 1, 64, 127
3, 42594, Note_on_c, 1, 67, 0
3, 42600, Note_on_c, 1, 62, 62
3, 42600, Note_on_c, 1, 66, 60
3, 42601, Control_c, 1, 64, 0
3, 42614, Note_on_c, 1, 60, 0
3, 42615, Control_c, 1, 64, 0
3, 42616, Control_c, 1, 64, 127
3, 42626, Control_c, 1, 64, 127
3, 42635, Note_on_c, 1, 62, 0
3, 42644, Note_on_c, 1, 66, 0
3, 42653, Control_c, 1, 64, 0
3, 42654, Control_c, 1, 64, 0
3, 42660, Note_on_c, 1, 62, 90
3, 42660, Note_on_c, 1, 66, 73
3, 42675, Control_c, 1, 64, 127
3, 42677, Control_c, 1, 64, 127
3, 42720, Note_on_c, 1, 60, 69
3, 42720, Note_on_c, 1, 67, 94
3, 42724, Note_on_c, 1, 66, 0
3, 42725, Note_on_c, 1, 62, 0
3, 42738, Control_c, 1, 64, 0
3, 42743, Control_c, 1, 64, 0
3, 42762, Control_c, 1, 64, 127
3, 42767, Control_c, 1, 64, 127
3, 42837, Note_on_c, 1, 60, 0
3, 42837, Note_on_c, 1, 67, 0
3, 42840, Note_on_c, 1, 62, 67
3, 42840, Note_on_c, 1, 66, 65
3, 42841, Control_c, 1, 64, 0
3, 42844, Control_c, 1, 64, 0
3, 42863, Control_c, 1, 64, 127
3, 42864, Control_c, 1, 64, 127
3, 42901, Note_on_c, 1, 66, 0
3, 42903, Note_on_c, 1, 62, 0
3, 42910, Control_c, 1, 64, 0
3, 42916, Control_c, 1, 64, 0
3, 43134, Control_c, 1, 64, 127
3, 43140, Note_on_c, 1, 38, 103
3, 43140, Note_on_c, 1, 69, 103
3, 43144, Control_c, 1, 64, 127
3, 43154, Note_on_c, 1, 38, 0
3, 43198, Note_on_c, 1, 69, 0
3, 43200, Note_on_c, 1, 53, 98
3, 43200, Note_on_c, 1, 67, 98
3, 43205, Control_c, 1, 64, 0
3, 43206, Control_c, 1, 64, 0
3, 43226, Control_c, 1, 64, 127
3, 43230, Control_c, 1, 64, 127
3, 43260, Note_on_c, 1, 52, 98
3, 43263, Note_on_c, 1, 53, 0
3, 43270, Control_c, 1, 64, 0
3, 43288, Control_c, 1, 64, 127
3, 43318, Control_c, 1, 64, 0
3, 43319, Note_on_c, 1, 52, 0
3, 43320, Note_on_c, 1, 51, 90
3, 43334, Control_c, 1, 64, 127
3, 43376, Note_on_c, 1, 67, 0
3, 43377, Control_c, 1, 64, 0
3, 43380, Note_on_c, 1, 51, 0
3, 43380, Note_on_c, 1, 49, 90
3, 43380, Note_on_c, 1, 70, 94
3, 43383, Control_c, 1, 64, 0
3, 43395, Control_c, 1, 64, 127
3, 43402, Control_c, 1, 64, 127
3, 43425, Note_on_c, 1, 67, 85
3, 43426, Note_on_c, 1, 70, 0
3, 43429, Control_c, 1, 64, 0
3, 43440, Note_on_c, 1, 50, 85
3, 43440, Note_on_c, 1, 62, 90
3, 43443, Note_on_c, 1, 49, 0
3, 43444, Note_on_c, 1, 67, 0
3, 43446, Control_c, 1, 64, 0
3, 43463, Control_c, 1, 64, 127
3, 43469, Control_c, 1, 64, 127
3, 43536, Note_on_c, 1, 50, 0
3, 43548, Control_c, 1, 64, 0
3, 43565, Note_on_c, 1, 62, 0
3, 43566, Control_c, 1, 64, 0
3, 43620, Note_on_c, 1, 50, 77
3, 43620, Note_on_c, 1, 60, 77
3, 43622, Control_c, 1, 64, 127
3, 43626, Control_c, 1, 64, 127
3, 43680, Note_on_c, 1, 55, 58
3, 43680, Note_on_c, 1, 58, 56
3, 43680, Control_c, 1, 64, 0
3, 43681, Note_on_c, 1, 50, 0
3, 43681, Control_c, 1, 64, 0
3, 43683, Note_on_c, 1, 60, 0
3, 43701, Control_c, 1, 64, 127
3, 43711, Control_c, 1, 64, 127
3, 43740, Note_on_c, 1, 50, 57
3, 43743, Note_on_c, 1, 55, 0
3, 43744, Note_on_c, 1, 58, 0
3, 43749, Control_c, 1, 64, 0
3, 43760, Control_c, 1, 64, 0
3, 43770, Control_c, 1, 64, 127
3, 43800, Note_on_c, 1, 43, 64
3, 43803, Note_on_c, 1, 50, 0
3, 43809, Control_c, 1, 64, 0
3, 43824, Control_c, 1, 64, 127
3, 43847, Note_on_c, 1, 43, 0
3, 43867, Control_c, 1, 64, 0
3, 43920, Note_on_c, 1, 59, 94
3, 43920, Note_on_c, 1, 55, 94
3, 43920, Note_on_c, 1, 50, 103
3, 43920, Note_on_c, 1, 43, 103
3, 43924, Control_c, 1, 64, 127
3, 43939, Note_on_c, 1, 43, 0
3, 43940, Note_on_c, 1, 47, 94
3, 43959, Note_on_c, 1, 47, 0
3, 43960, Note_on_c, 1, 45, 90
3, 43961, Note_on_c, 1, 50, 0
3, 43962, Note_on_c, 1, 55, 0
3, 43963, Note_on_c, 1, 59, 0
3, 43977, Control_c, 1, 64, 0
3, 43979, Note_on_c, 1, 45, 0
3, 43980, Note_on_c, 1, 47, 94
3, 43999, Note_on_c, 1, 47, 0
3, 44000, Note_on_c, 1, 45, 90
3, 44019, Note_on_c, 1, 45, 0
3, 44020, Note_on_c, 1, 43, 94
3, 44039, Note_on_c, 1, 43, 0
3, 44039, Control_c, 1, 64, 127
3, 44040, Note_on_c, 1, 57, 98
3, 44040, Note_on_c, 1, 60, 98
3, 44040, Note_on_c, 1, 54, 90
3, 44040, Note_on_c, 1, 50, 98
3, 44040, Note_on_c, 1, 45, 94
3, 44059, Note_on_c, 1, 45, 0
3, 44060, Note_on_c, 1, 48, 94
3, 44079, Note_on_c, 1, 48, 0
3, 44080, Note_on_c, 1, 47, 94
3, 44086, Note_on_c, 1, 57, 0
3, 44087, Note_on_c, 1, 50, 0
3, 44088, Note_on_c, 1, 60, 0
3, 44088, Note_on_c, 1, 54, 0
3, 44099, Note_on_c, 1, 47, 0
3, 44100, Control_c, 1, 64, 0
3, 44100, Note_on_c, 1, 48, 98
3, 44119, Note_on_c, 1, 48, 0
3, 44120, Note_on_c, 1, 47, 81
3, 44139, Note_on_c, 1, 47, 0
3, 44140, Note_on_c, 1, 45, 94
3, 44159, Note_on_c, 1, 45, 0
3, 44160, Note_on_c, 1, 55, 85
3, 44160, Note_on_c, 1, 59, 98
3, 44160, Note_on_c, 1, 50, 98
3, 44160, Note_on_c, 1, 47, 107
3, 44161, Control_c, 1, 64, 127
3, 44179, Note_on_c, 1, 47, 0
3, 44180, Note_on_c, 1, 50, 98
3, 44199, Note_on_c, 1, 50, 0
3, 44200, Note_on_c, 1, 48, 90
3, 44207, Note_on_c, 1, 50, 0
3, 44208, Note_on_c, 1, 55, 0
3, 44210, Note_on_c, 1, 59, 0
3, 44219, Note_on_c, 1, 48, 0
3, 44220, Control_c, 1, 64, 0
3, 44220, Note_on_c, 1, 47, 103
3, 44239, Note_on_c, 1, 47, 0
3, 44240, Note_on_c, 1, 48, 81
3, 44259, Note_on_c, 1, 48, 0
3, 44260, Note_on_c, 1, 45, 90
3, 44279, Note_on_c, 1, 45, 0
3, 44280, Note_on_c, 1, 43, 94
3, 44299, Note_on_c, 1, 43, 0
3, 44300, Note_on_c, 1, 50, 94
3, 44319, Note_on_c, 1, 50, 0
3, 44320, Note_on_c, 1, 48, 94
3, 44339, Note_on_c, 1, 48, 0
3, 44340, Note_on_c, 1, 59, 94
3, 44340, Note_on_c, 1, 55, 98
3, 44340, Note_on_c, 1, 50, 103
3, 44340, Note_on_c, 1, 47, 94
3, 44343, Control_c, 1, 64, 127
3, 44359, Note_on_c, 1, 47, 0
3, 44359, Note_on_c, 1, 50, 0
3, 44360, Note_on_c, 1, 45, 98
3, 44362, Note_on_c, 1, 55, 0
3, 44365, Note_on_c, 1, 59, 0
3, 44379, Note_on_c, 1, 45, 0
3, 44380, Note_on_c, 1, 43, 98
3, 44389, Control_c, 1, 64, 0
3, 44399, Note_on_c, 1, 43, 0
3, 44400, Note_on_c, 1, 54, 98
3, 44400, Note_on_c, 1, 62, 103
3, 44400, Note_on_c, 1, 57, 98
3, 44400, Note_on_c, 1, 50, 107
3, 44400, Note_on_c, 1, 38, 98
3, 44414, Control_c, 1, 64, 127
3, 44419, Note_on_c, 1, 38, 0
3, 44420, Note_on_c, 1, 42, 98
3, 44439, Note_on_c, 1, 42, 0
3, 44439, Note_on_c, 1, 50, 0
3, 44440, Note_on_c, 1, 54, 0
3, 44440, Note_on_c, 1, 40, 90
3, 44442, Note_on_c, 1, 57, 0
3, 44443, Note_on_c, 1, 62, 0
3, 44454, Control_c, 1, 64, 0
3, 44459, Note_on_c, 1, 40, 0
3, 44460, Note_on_c, 1, 42, 94
3, 44479, Note_on_c, 1, 42, 0
3, 44480, Note_on_c, 1, 40, 98
3, 44499, Note_on_c, 1, 40, 0
3, 44500, Note_on_c, 1, 38, 94
3, 44519, Note_on_c, 1, 38, 0
3, 44520, Note_on_c, 1, 61, 94
3, 44520, Note_on_c, 1, 52, 103
3, 44520, Note_on_c, 1, 57, 103
3, 44520, Note_on_c, 1, 55, 103
3, 44520, Note_on_c, 1, 40, 103
3, 44523, Control_c, 1, 64, 127
3, 44539, Note_on_c, 1, 40, 0
3, 44540, Note_on_c, 1, 43, 90
3, 44559, Note_on_c, 1, 43, 0
3, 44560, Note_on_c, 1, 42, 98
3, 44561, Note_on_c, 1, 55, 0
3, 44562, Note_on_c, 1, 57, 0
3, 44562, Note_on_c, 1, 61, 0
3, 44563, Note_on_c, 1, 52, 0
3, 44579, Note_on_c, 1, 42, 0
3, 44580, Note_on_c, 1, 43, 94
3, 44586, Control_c, 1, 64, 0
3, 44599, Note_on_c, 1, 43, 0
3, 44600, Note_on_c, 1, 42, 98
3, 44619, Note_on_c, 1, 42, 0
3, 44620, Note_on_c, 1, 40, 90
3, 44639, Note_on_c, 1, 40, 0
3, 44640, Note_on_c, 1, 62, 98
3, 44640, Note_on_c, 1, 54, 90
3, 44640, Note_on_c, 1, 57, 98
3, 44640, Note_on_c, 1, 50, 94
3, 44640, Note_on_c, 1, 42, 98
3, 44646, Control_c, 1, 64, 127
3, 44659, Note_on_c, 1, 42, 0
3, 44660, Note_on_c, 1, 45, 98
3, 44679, Note_on_c, 1, 45, 0
3, 44680, Note_on_c, 1, 43, 81
3, 44699, Note_on_c, 1, 43, 0
3, 44700, Note_on_c, 1, 42, 94
3, 44719, Note_on_c, 1, 42, 0
3, 44720, Note_on_c, 1, 43, 94
3, 44739, Note_on_c, 1, 43, 0
3, 44740, Note_on_c, 1, 40, 94
3, 44759, Note_on_c, 1, 40, 0
3, 44760, Note_on_c, 1, 38, 94
3, 44762, Note_on_c, 1, 50, 0
3, 44763, Control_c, 1, 64, 0
3, 44764, Note_on_c, 1, 57, 0
3, 44765, Note_on_c, 1, 54, 0
3, 44769, Note_on_c, 1, 62, 0
3, 44779, Note_on_c, 1, 38, 0
3, 44780, Note_on_c, 1, 42, 85
3, 44799, Note_on_c, 1, 42, 0
3, 44800, Note_on_c, 1, 45, 98
3, 44819, Note_on_c, 1, 45, 0
3, 44820, Note_on_c, 1, 49, 85
3, 44839, Note_on_c, 1, 49, 0
3, 44840, Note_on_c, 1, 50, 94
3, 44859, Note_on_c, 1, 50, 0
3, 44860, Note_on_c, 1, 52, 94
3, 44874, Control_c, 1, 64, 127
3, 44879, Note_on_c, 1, 52, 0
3, 44880, Note_on_c, 1, 62, 98
3, 44880, Note_on_c, 1, 59, 103
3, 44880, Note_on_c, 1, 55, 98
3, 44880, Note_on_c, 1, 53, 94
3, 44899, Note_on_c, 1, 53, 0
3, 44900, Note_on_c, 1, 62, 0
3, 44900, Note_on_c, 1, 52, 98
3, 44903, Note_on_c, 1, 55, 0
3, 44903, Note_on_c, 1, 59, 0
3, 44919, Note_on_c, 1, 52, 0
3, 44920, Note_on_c, 1, 50, 94
3, 44939, Note_on_c, 1, 50, 0
3, 44940, Note_on_c, 1, 55, 94
3, 44940, Note_on_c, 1, 59, 103
3, 44940, Note_on_c, 1, 62, 103
3, 44940, Note_on_c, 1, 48, 94
3, 44959, Note_on_c, 1, 48, 0
3, 44960, Note_on_c, 1, 47, 98
3, 44965, Note_on_c, 1, 62, 0
3, 44966, Note_on_c, 1, 55, 0
3, 44968, Note_on_c, 1, 59, 0
3, 44979, Note_on_c, 1, 47, 0
3, 44980, Control_c, 1, 64, 0
3, 44980, Note_on_c, 1, 45, 90
3, 44985, Note_on_c, 1, 55, 94
3, 44985, Note_on_c, 1, 59, 98
3, 44985, Note_on_c, 1, 62, 98
3, 44995, Note_on_c, 1, 62, 0
3, 44995, Note_on_c, 1, 59, 0
3, 44996, Note_on_c, 1, 55, 0
3, 44999, Note_on_c, 1, 45, 0
3, 44999, Control_c, 1, 64, 127
3, 45000, Note_on_c, 1, 55, 94
3, 45000, Note_on_c, 1, 59, 98
3, 45000, Note_on_c, 1, 62, 94
3, 45000, Note_on_c, 1, 43, 94
3, 45018, Note_on_c, 1, 62, 0
3, 45019, Note_on_c, 1, 43, 0
3, 45020, Note_on_c, 1, 59, 0
3, 45020, Note_on_c, 1, 45, 94
3, 45021, Note_on_c, 1, 55, 0
3, 45039, Note_on_c, 1, 45, 0
3, 45040, Note_on_c, 1, 43, 81
3, 45047, Control_c, 1, 64, 0
3, 45059, Note_on_c, 1, 43, 0
3, 45060, Note_on_c, 1, 59, 98
3, 45060, Note_on_c, 1, 62, 94
3, 45060, Note_on_c, 1, 55, 98
3, 45060, Note_on_c, 1, 53, 94
3, 45060, Note_on_c, 1, 41, 94
3, 45064, Control_c, 1, 64, 127
3, 45079, Note_on_c, 1, 41, 0
3, 45080, Note_on_c, 1, 43, 90
3, 45086, Note_on_c, 1, 53, 0
3, 45089, Note_on_c, 1, 59, 0
3, 45092, Note_on_c, 1, 62, 0
3, 45092, Note_on_c, 1, 55, 0
3, 45099, Note_on_c, 1, 43, 0
3, 45100, Note_on_c, 1, 41, 81
3, 45108, Control_c, 1, 64, 0
3, 45119, Note_on_c, 1, 41, 0
3, 45120, Note_on_c, 1, 59, 98
3, 45120, Note_on_c, 1, 62, 98
3, 45120, Note_on_c, 1, 52, 98
3, 45120, Note_on_c, 1, 55, 98
3, 45120, Note_on_c, 1, 40, 94
3, 45125, Control_c, 1, 64, 127
3, 45139, Note_on_c, 1, 40, 0
3, 45140, Note_on_c, 1, 38, 77
3, 45142, Note_on_c, 1, 59, 0
3, 45143, Note_on_c, 1, 55, 0
3, 45144, Note_on_c, 1, 52, 0
3, 45147, Note_on_c, 1, 62, 0
3, 45159, Note_on_c, 1, 38, 0
3, 45160, Note_on_c, 1, 40, 90
3, 45174, Control_c, 1, 64, 0
3, 45179, Note_on_c, 1, 40, 0
3, 45180, Note_on_c, 1, 57, 107
3, 45180, Note_on_c, 1, 54, 90
3, 45180, Note_on_c, 1, 60, 94
3, 45180, Note_on_c, 1, 42, 107
3, 45189, Control_c, 1, 64, 127
3, 45199, Note_on_c, 1, 42, 0
3, 45200, Note_on_c, 1, 40, 90
3, 45208, Note_on_c, 1, 57, 0
3, 45209, Note_on_c, 1, 60, 0
3, 45210, Note_on_c, 1, 54, 0
3, 45219, Note_on_c, 1, 40, 0
3, 45220, Note_on_c, 1, 42, 94
3, 45234, Control_c, 1, 64, 0
3, 45239, Note_on_c, 1, 42, 0
3, 45240, Note_on_c, 1, 55, 98
3, 45240, Note_on_c, 1, 59, 94
3, 45240, Note_on_c, 1, 43, 98
3, 45249, Control_c, 1, 64, 127
3, 45259, Note_on_c, 1, 43, 0
3, 45260, Note_on_c, 1, 42, 98
3, 45267, Note_on_c, 1, 59, 0
3, 45270, Note_on_c, 1, 55, 0
3, 45279, Note_on_c, 1, 42, 0
3, 45280, Note_on_c, 1, 43, 81
3, 45295, Control_c, 1, 64, 0
3, 45299, Note_on_c, 1, 43, 0
3, 45300, Note_on_c, 1, 59, 94
3, 45300, Note_on_c, 1, 52, 98
3, 45300, Note_on_c, 1, 55, 94
3, 45300, Note_on_c, 1, 40, 98
3, 45310, Control_c, 1, 64, 127
3, 45319, Note_on_c, 1, 40, 0
3, 45320, Note_on_c, 1, 38, 81
3, 45324, Note_on_c, 1, 52, 0
3, 45328, Note_on_c, 1, 59, 0
3, 45329, Note_on_c, 1, 55, 0
3, 45339, Note_on_c, 1, 38, 0
3, 45340, Note_on_c, 1, 40, 98
3, 45350, Control_c, 1, 64, 0
3, 45359, Note_on_c, 1, 40, 0
3, 45360, Note_on_c, 1, 57, 98
3, 45360, Note_on_c, 1, 52, 103
3, 45360, Note_on_c, 1, 60, 98
3, 45360, Note_on_c, 1, 36, 90
3, 45365, Control_c, 1, 64, 127
3, 45379, Note_on_c, 1, 36, 0
3, 45380, Note_on_c, 1, 40, 94
3, 45399, Note_on_c, 1, 40, 0
3, 45400, Note_on_c, 1, 45, 103
3, 45414, Note_on_c, 1, 60, 0
3, 45414, Note_on_c, 1, 57, 0
3, 45415, Note_on_c, 1, 52, 0
3, 45417, Control_c, 1, 64, 0
3, 45419, Note_on_c, 1, 45, 0
3, 45420, Note_on_c, 1, 48, 94
3, 45439, Note_on_c, 1, 48, 0
3, 45440, Note_on_c, 1, 47, 94
3, 45459, Note_on_c, 1, 47, 0
3, 45460, Note_on_c, 1, 48, 85
3, 45479, Note_on_c, 1, 48, 0
3, 45480, Note_on_c, 1, 54, 94
3, 45480, Note_on_c, 1, 57, 98
3, 45480, Note_on_c, 1, 60, 103
3, 45480, Note_on_c, 1, 50, 103
3, 45480, Note_on_c, 1, 38, 103
3, 45483, Control_c, 1, 64, 127
3, 45499, Note_on_c, 1, 38, 0
3, 45500, Note_on_c, 1, 42, 81
3, 45519, Note_on_c, 1, 42, 0
3, 45520, Note_on_c, 1, 45, 94
3, 45525, Note_on_c, 1, 57, 0
3, 45526, Note_on_c, 1, 60, 0
3, 45529, Note_on_c, 1, 54, 0
3, 45529, Note_on_c, 1, 50, 0
3, 45539, Note_on_c, 1, 45, 0
3, 45540, Note_on_c, 1, 50, 94
3, 45543, Control_c, 1, 64, 0
3, 45559, Note_on_c, 1, 50, 0
3, 45560, Note_on_c, 1, 49, 94
3, 45579, Note_on_c, 1, 49, 0
3, 45580, Note_on_c, 1, 50, 94
3, 45599, Note_on_c, 1, 50, 0
3, 45600, Note_on_c, 1, 55, 98
3, 45600, Note_on_c, 1, 50, 103
3, 45600, Note_on_c, 1, 47, 94
3, 45600, Note_on_c, 1, 31, 90
3, 45603, Control_c, 1, 64, 127
3, 45619, Note_on_c, 1, 31, 0
3, 45620, Note_on_c, 1, 35, 94
3, 45639, Note_on_c, 1, 35, 0
3, 45640, Note_on_c, 1, 38, 98
3, 45659, Note_on_c, 1, 38, 0
3, 45660, Note_on_c, 1, 43, 98
3, 45679, Note_on_c, 1, 43, 0
3, 45680, Note_on_c, 1, 38, 103
3, 45699, Note_on_c, 1, 38, 0
3, 45700, Note_on_c, 1, 35, 94
3, 45716, Note_on_c, 1, 47, 0
3, 45716, Note_on_c, 1, 50, 0
3, 45719, Note_on_c, 1, 35, 0
3, 45720, Note_on_c, 1, 31, 103
3, 45721, Note_on_c, 1, 55, 0
3, 45721, Control_c, 1, 64, 0
3, 45779, Note_on_c, 1, 31, 0
3, 45840, Control_c, 1, 64, 127
3, 45840, Note_on_c, 1, 62, 85
3, 45840, Note_on_c, 1, 55, 81
3, 45931, Note_on_c, 1, 62, 0
3, 45959, Note_on_c, 1, 55, 0
3, 45960, Note_on_c, 1, 62, 90
3, 45960, Note_on_c, 1, 50, 73
3, 45966, Control_c, 1, 64, 0
3, 45983, Control_c, 1, 64, 127
3, 46047, Note_on_c, 1, 62, 0
3, 46079, Note_on_c, 1, 50, 0
3, 46080, Note_on_c, 1, 62, 94
3, 46080, Note_on_c, 1, 43, 77
3, 46085, Control_c, 1, 64, 0
3, 46101, Control_c, 1, 64, 127
3, 46199, Note_on_c, 1, 43, 0
3, 46203, Note_on_c, 1, 62, 0
3, 46206, Control_c, 1, 64, 0
3, 46320, Note_on_c, 1, 62, 94
3, 46320, Note_on_c, 1, 57, 90
3, 46323, Control_c, 1, 64, 127
3, 46439, Note_on_c, 1, 57, 0
3, 46440, Note_on_c, 1, 61, 85
3, 46440, Control_c, 1, 64, 0
3, 46440, Note_on_c, 1, 45, 77
3, 46442, Note_on_c, 1, 62, 0
3, 46462, Control_c, 1, 64, 127
3, 46500, Note_on_c, 1, 64, 98
3, 46504, Control_c, 1, 64, 0
3, 46505, Note_on_c, 1, 61, 0
3, 46523, Control_c, 1, 64, 127
3, 46559, Note_on_c, 1, 45, 0
3, 46560, Note_on_c, 1, 62, 94
3, 46560, Note_on_c, 1, 50, 85
3, 46565, Control_c, 1, 64, 0
3, 46566, Note_on_c, 1, 64, 0
3, 46586, Control_c, 1, 64, 127
3, 46676, Note_on_c, 1, 62, 0
3, 46679, Note_on_c, 1, 50, 0
3, 46680, Control_c, 1, 64, 0
3, 46800, Note_on_c, 1, 55, 98
3, 46800, Note_on_c, 1, 43, 69
3, 46811, Control_c, 1, 64, 127
3, 46859, Note_on_c, 1, 43, 0
3, 46860, Note_on_c, 1, 47, 77
3, 46919, Note_on_c, 1, 47, 0
3, 46920, Note_on_c, 1, 50, 98
3, 46979, Note_on_c, 1, 50, 0
3, 46980, Note_on_c, 1, 47, 90
3, 47007, Note_on_c, 1, 55, 0
3, 47034, Control_c, 1, 64, 0
3, 47039, Note_on_c, 1, 47, 0
3, 47040, Note_on_c, 1, 55, 90
3, 47040, Note_on_c, 1, 48, 85
3, 47054, Control_c, 1, 64, 127
3, 47159, Note_on_c, 1, 48, 0
3, 47167, Control_c, 1, 64, 0
3, 47179, Note_on_c, 1, 55, 0
3, 47280, Note_on_c, 1, 59, 90
3, 47280, Note_on_c, 1, 62, 90
3, 47280, Note_on_c, 1, 50, 85
3, 47292, Control_c, 1, 64, 127
3, 47399, Note_on_c, 1, 50, 0
3, 47399, Control_c, 1, 64, 0
3, 47400, Note_on_c, 1, 57, 94
3, 47400, Note_on_c, 1, 38, 81
3, 47403, Note_on_c, 1, 59, 0
3, 47421, Control_c, 1, 64, 127
3, 47460, Control_c, 1, 64, 0
3, 47460, Note_on_c, 1, 60, 77
3, 47461, Note_on_c, 1, 57, 0
3, 47476, Control_c, 1, 64, 127
3, 47498, Note_on_c, 1, 62, 0
3, 47499, Note_on_c, 1, 60, 0
3, 47519, Note_on_c, 1, 38, 0
3, 47520, Note_on_c, 1, 59, 85
3, 47520, Note_on_c, 1, 62, 90
3, 47520, Note_on_c, 1, 43, 77
3, 47526, Control_c, 1, 64, 0
3, 47546, Control_c, 1, 64, 127
3, 47639, Note_on_c, 1, 43, 0
3, 47641, Note_on_c, 1, 59, 0
3, 47642, Note_on_c, 1, 62, 0
3, 47644, Control_c, 1, 64, 0
3, 47760, Note_on_c, 1, 52, 112
3, 47760, Note_on_c, 1, 55, 107
3, 47760, Note_on_c, 1, 59, 103
3, 47760, Note_on_c, 1, 40, 81
3, 47763, Control_c, 1, 64, 127
3, 47779, Note_on_c, 1, 40, 0
3, 47780, Note_on_c, 1, 43, 81
3, 47799, Note_on_c, 1, 43, 0
3, 47800, Note_on_c, 1, 42, 85
3, 47817, Note_on_c, 1, 52, 0
3, 47819, Note_on_c, 1, 55, 0
3, 47819, Note_on_c, 1, 42, 0
3, 47820, Note_on_c, 1, 59, 0
3, 47820, Note_on_c, 1, 43, 85
3, 47826, Control_c, 1, 64, 0
3, 47839, Note_on_c, 1, 43, 0
3, 47840, Note_on_c, 1, 42, 85
3, 47859, Note_on_c, 1, 42, 0
3, 47860, Note_on_c, 1, 40, 77
3, 47879, Note_on_c, 1, 40, 0
3, 47880, Note_on_c, 1, 57, 103
3, 47880, Note_on_c, 1, 54, 90
3, 47880, Note_on_c, 1, 59, 98
3, 47880, Note_on_c, 1, 42, 94
3, 47884, Control_c, 1, 64, 127
3, 47899, Note_on_c, 1, 42, 0
3, 47900, Note_on_c, 1, 45, 90
3, 47919, Note_on_c, 1, 45, 0
3, 47920, Note_on_c, 1, 43, 81
3, 47935, Note_on_c, 1, 59, 0
3, 47936, Note_on_c, 1, 57, 0
3, 47936, Note_on_c, 1, 54, 0
3, 47939, Note_on_c, 1, 43, 0
3, 47940, Note_on_c, 1, 45, 98
3, 47947, Control_c, 1, 64, 0
3, 47959, Note_on_c, 1, 45, 0
3, 47960, Note_on_c, 1, 43, 81
3, 47979, Note_on_c, 1, 43, 0
3, 47980, Note_on_c, 1, 42, 85
3, 47999, Note_on_c, 1, 42, 0
3, 48000, Note_on_c, 1, 59, 98
3, 48000, Note_on_c, 1, 52, 98
3, 48000, Note_on_c, 1, 55, 103
3, 48000, Note_on_c, 1, 43, 98
3, 48002, Control_c, 1, 64, 127
3, 48019, Note_on_c, 1, 43, 0
3, 48020, Note_on_c, 1, 47, 98
3, 48023, Note_on_c, 1, 52, 0
3, 48025, Note_on_c, 1, 55, 0
3, 48029, Note_on_c, 1, 59, 0
3, 48039, Note_on_c, 1, 47, 0
3, 48040, Note_on_c, 1, 43, 85
3, 48054, Control_c, 1, 64, 0
3, 48059, Note_on_c, 1, 43, 0
3, 48060, Note_on_c, 1, 55, 98
3, 48060, Note_on_c, 1, 60, 103
3, 48060, Note_on_c, 1, 52, 98
3, 48060, Note_on_c, 1, 40, 98
3, 48070, Control_c, 1, 64, 127
3, 48079, Note_on_c, 1, 40, 0
3, 48080, Note_on_c, 1, 43, 94
3, 48083, Note_on_c, 1, 60, 0
3, 48084, Note_on_c, 1, 55, 0
3, 48087, Note_on_c, 1, 52, 0
3, 48099, Note_on_c, 1, 43, 0
3, 48100, Note_on_c, 1, 48, 98
3, 48114, Control_c, 1, 64, 0
3, 48119, Note_on_c, 1, 48, 0
3, 48120, Note_on_c, 1, 59, 103
3, 48120, Note_on_c, 1, 53, 98
3, 48120, Note_on_c, 1, 50, 107
3, 48120, Note_on_c, 1, 38, 94
3, 48130, Control_c, 1, 64, 127
3, 48138, Note_on_c, 1, 59, 0
3, 48139, Note_on_c, 1, 53, 0
3, 48139, Note_on_c, 1, 38, 0
3, 48140, Note_on_c, 1, 43, 90
3, 48143, Note_on_c, 1, 50, 0
3, 48159, Note_on_c, 1, 43, 0
3, 48160, Note_on_c, 1, 47, 98
3, 48174, Control_c, 1, 64, 0
3, 48179, Note_on_c, 1, 47, 0
3, 48180, Note_on_c, 1, 55, 94
3, 48180, Note_on_c, 1, 50, 98
3, 48180, Note_on_c, 1, 47, 94
3, 48180, Note_on_c, 1, 35, 98
3, 48189, Control_c, 1, 64, 127
3, 48199, Note_on_c, 1, 35, 0
3, 48200, Note_on_c, 1, 43, 90
3, 48205, Note_on_c, 1, 47, 0
3, 48205, Note_on_c, 1, 55, 0
3, 48209, Note_on_c, 1, 50, 0
3, 48219, Note_on_c, 1, 43, 0
3, 48220, Note_on_c, 1, 47, 98
3, 48232, Control_c, 1, 64, 0
3, 48239, Note_on_c, 1, 47, 0
3, 48240, Note_on_c, 1, 52, 98
3, 48240, Note_on_c, 1, 48, 103
3, 48240, Note_on_c, 1, 55, 98
3, 48240, Note_on_c, 1, 36, 90
3, 48245, Control_c, 1, 64, 127
3, 48259, Note_on_c, 1, 36, 0
3, 48260, Note_on_c, 1, 52, 0
3, 48260, Note_on_c, 1, 43, 81
3, 48261, Note_on_c, 1, 55, 0
3, 48264, Note_on_c, 1, 48, 0
3, 48279, Note_on_c, 1, 43, 0
3, 48280, Note_on_c, 1, 48, 94
3, 48293, Control_c, 1, 64, 0
3, 48299, Note_on_c, 1, 48, 0
3, 48300, Note_on_c, 1, 59, 103
3, 48300, Note_on_c, 1, 50, 103
3, 48300, Note_on_c, 1, 52, 107
3, 48300, Note_on_c, 1, 32, 94
3, 48308, Control_c, 1, 64, 127
3, 48319, Note_on_c, 1, 32, 0
3, 48320, Note_on_c, 1, 40, 98
3, 48321, Note_on_c, 1, 59, 0
3, 48321, Note_on_c, 1, 50, 0
3, 48323, Note_on_c, 1, 52, 0
3, 48339, Note_on_c, 1, 40, 0
3, 48340, Note_on_c, 1, 44, 98
3, 48355, Control_c, 1, 64, 0
3, 48359, Note_on_c, 1, 44, 0
3, 48360, Note_on_c, 1, 52, 94
3, 48360, Note_on_c, 1, 48, 94
3, 48360, Note_on_c, 1, 60, 98
3, 48360, Note_on_c, 1, 33, 94
3, 48372, Control_c, 1, 64, 127
3, 48379, Note_on_c, 1, 33, 0
3, 48380, Note_on_c, 1, 60, 0
3, 48380, Note_on_c, 1, 40, 94
3, 48391, Note_on_c, 1, 48, 0
3, 48396, Note_on_c, 1, 52, 0
3, 48399, Note_on_c, 1, 40, 0
3, 48400, Note_on_c, 1, 45, 85
3, 48418, Control_c, 1, 64, 0
3, 48419, Note_on_c, 1, 45, 0
3, 48420, Note_on_c, 1, 57, 103
3, 48420, Note_on_c, 1, 48, 98
3, 48420, Note_on_c, 1, 52, 103
3, 48420, Note_on_c, 1, 36, 94
3, 48434, Control_c, 1, 64, 127
3, 48439, Note_on_c, 1, 36, 0
3, 48440, Note_on_c, 1, 40, 98
3, 48445, Note_on_c, 1, 48, 0
3, 48450, Note_on_c, 1, 52, 0
3, 48451, Note_on_c, 1, 57, 0
3, 48459, Note_on_c, 1, 40, 0
3, 48460, Note_on_c, 1, 45, 94
3, 48476, Control_c, 1, 64, 0
3, 48479, Note_on_c, 1, 45, 0
3, 48480, Note_on_c, 1, 55, 103
3, 48480, Note_on_c, 1, 59, 103
3, 48480, Note_on_c, 1, 38, 90
3, 48492, Control_c, 1, 64, 127
3, 48499, Note_on_c, 1, 38, 0
3, 48500, Note_on_c, 1, 43, 98
3, 48519, Note_on_c, 1, 43, 0
3, 48520, Note_on_c, 1, 47, 94
3, 48539, Note_on_c, 1, 47, 0
3, 48540, Note_on_c, 1, 50, 94
3, 48559, Note_on_c, 1, 50, 0
3, 48560, Note_on_c, 1, 47, 94
3, 48579, Note_on_c, 1, 47, 0
3, 48580, Note_on_c, 1, 43, 94
3, 48589, Note_on_c, 1, 59, 0
3, 48590, Control_c, 1, 64, 0
3, 48593, Note_on_c, 1, 55, 0
3, 48599, Note_on_c, 1, 43, 0
3, 48600, Note_on_c, 1, 57, 32
3, 48600, Note_on_c, 1, 54, 85
3, 48600, Note_on_c, 1, 38, 94
3, 48604, Control_c, 1, 64, 127
3, 48619, Note_on_c, 1, 38, 0
3, 48620, Note_on_c, 1, 42, 85
3, 48623, Note_on_c, 1, 54, 0
3, 48624, Note_on_c, 1, 57, 0
3, 48639, Note_on_c, 1, 42, 0
3, 48640, Note_on_c, 1, 45, 94
3, 48652, Control_c, 1, 64, 0
3, 48659, Note_on_c, 1, 45, 0
3, 48660, Note_on_c, 1, 62, 94
3, 48660, Note_on_c, 1, 54, 85
3, 48660, Note_on_c, 1, 57, 98
3, 48660, Note_on_c, 1, 50, 85
3, 48667, Control_c, 1, 64, 127
3, 48679, Note_on_c, 1, 50, 0
3, 48680, Note_on_c, 1, 45, 85
3, 48683, Note_on_c, 1, 62, 0
3, 48683, Note_on_c, 1, 54, 0
3, 48684, Note_on_c, 1, 57, 0
3, 48699, Note_on_c, 1, 45, 0
3, 48700, Note_on_c, 1, 42, 81
3, 48718, Control_c, 1, 64, 0
3, 48719, Note_on_c, 1, 42, 0
3, 48720, Note_on_c, 1, 62, 81
3, 48720, Note_on_c, 1, 59, 90
3, 48720, Note_on_c, 1, 55, 85
3, 48720, Note_on_c, 1, 38, 94
3, 48734, Control_c, 1, 64, 127
3, 48739, Note_on_c, 1, 38, 0
3, 48740, Note_on_c, 1, 43, 77
3, 48759, Note_on_c, 1, 43, 0
3, 48760, Note_on_c, 1, 47, 98
3, 48779, Note_on_c, 1, 47, 0
3, 48780, Note_on_c, 1, 50, 85
3, 48784, Note_on_c, 1, 55, 0
3, 48784, Note_on_c, 1, 59, 0
3, 48785, Note_on_c, 1, 62, 0
3, 48786, Control_c, 1, 64, 0
3, 48799, Note_on_c, 1, 50, 0
3, 48800, Note_on_c, 1, 49, 94
3, 48819, Note_on_c, 1, 49, 0
3, 48820, Note_on_c, 1, 50, 90
3, 48839, Note_on_c, 1, 50, 0
3, 48840, Note_on_c, 1, 55, 94
3, 48840, Note_on_c, 1, 59, 103
3, 48840, Note_on_c, 1, 62, 98
3, 48840, Note_on_c, 1, 38, 98
3, 48842, Control_c, 1, 64, 127
3, 48859, Note_on_c, 1, 38, 0
3, 48860, Note_on_c, 1, 43, 90
3, 48879, Note_on_c, 1, 43, 0
3, 48880, Note_on_c, 1, 47, 94
3, 48881, Note_on_c, 1, 62, 0
3, 48882, Note_on_c, 1, 59, 0
3, 48888, Note_on_c, 1, 55, 0
3, 48899, Note_on_c, 1, 47, 0
3, 48900, Note_on_c, 1, 50, 85
3, 48905, Control_c, 1, 64, 0
3, 48919, Note_on_c, 1, 50, 0
3, 48920, Note_on_c, 1, 49, 98
3, 48939, Note_on_c, 1, 49, 0
3, 48940, Note_on_c, 1, 50, 94
3, 48959, Note_on_c, 1, 50, 0
3, 48960, Note_on_c, 1, 60, 103
3, 48960, Note_on_c, 1, 57, 103
3, 48960, Note_on_c, 1, 54, 94
3, 48960, Note_on_c, 1, 50, 103
3, 48960, Note_on_c, 1, 38, 98
3, 48963, Control_c, 1, 64, 127
3, 48979, Note_on_c, 1, 38, 0
3, 48980, Note_on_c, 1, 42, 90
3, 48999, Note_on_c, 1, 42, 0
3, 49000, Note_on_c, 1, 45, 98
3, 49019, Note_on_c, 1, 45, 0
3, 49020, Note_on_c, 1, 48, 94
3, 49039, Note_on_c, 1, 48, 0
3, 49040, Note_on_c, 1, 45, 94
3, 49059, Note_on_c, 1, 45, 0
3, 49060, Note_on_c, 1, 43, 94
3, 49079, Note_on_c, 1, 43, 0
3, 49080, Note_on_c, 1, 42, 94
3, 49084, Control_c, 1, 64, 0
3, 49088, Note_on_c, 1, 50, 0
3, 49091, Note_on_c, 1, 54, 0
3, 49091, Note_on_c, 1, 57, 0
3, 49094, Note_on_c, 1, 60, 0
3, 49099, Note_on_c, 1, 42, 0
3, 49100, Note_on_c, 1, 40, 94
3, 49119, Note_on_c, 1, 40, 0
3, 49120, Note_on_c, 1, 38, 94
3, 49136, Control_c, 1, 64, 127
3, 49139, Note_on_c, 1, 38, 0
3, 49140, Note_on_c, 1, 54, 81
3, 49140, Note_on_c, 1, 60, 90
3, 49140, Note_on_c, 1, 57, 94
3, 49140, Note_on_c, 1, 36, 94
3, 49159, Note_on_c, 1, 36, 0
3, 49160, Note_on_c, 1, 35, 94
3, 49164, Note_on_c, 1, 60, 0
3, 49165, Note_on_c, 1, 54, 0
3, 49167, Note_on_c, 1, 57, 0
3, 49179, Note_on_c, 1, 35, 0
3, 49180, Note_on_c, 1, 33, 85
3, 49194, Control_c, 1, 64, 0
3, 49199, Note_on_c, 1, 33, 0
3, 49200, Note_on_c, 1, 59, 98
3, 49200, Note_on_c, 1, 55, 94
3, 49200, Note_on_c, 1, 50, 94
3, 49200, Note_on_c, 1, 31, 98
3, 49215, Control_c, 1, 64, 127
3, 49219, Note_on_c, 1, 31, 0
3, 49220, Note_on_c, 1, 35, 77
3, 49239, Note_on_c, 1, 35, 0
3, 49240, Note_on_c, 1, 33, 90
3, 49243, Note_on_c, 1, 50, 0
3, 49246, Note_on_c, 1, 55, 0
3, 49247, Note_on_c, 1, 59, 0
3, 49256, Control_c, 1, 64, 0
3, 49259, Note_on_c, 1, 33, 0
3, 49260, Note_on_c, 1, 35, 90
3, 49279, Note_on_c, 1, 35, 0
3, 49280, Note_on_c, 1, 33, 77
3, 49299, Note_on_c, 1, 33, 0
3, 49300, Note_on_c, 1, 31, 90
3, 49319, Note_on_c, 1, 31, 0
3, 49320, Note_on_c, 1, 57, 94
3, 49320, Note_on_c, 1, 54, 90
3, 49320, Note_on_c, 1, 50, 94
3, 49320, Note_on_c, 1, 60, 94
3, 49320, Note_on_c, 1, 33, 85
3, 49323, Control_c, 1, 64, 127
3, 49339, Note_on_c, 1, 33, 0
3, 49340, Note_on_c, 1, 36, 98
3, 49359, Note_on_c, 1, 36, 0
3, 49360, Note_on_c, 1, 35, 90
3, 49367, Note_on_c, 1, 50, 0
3, 49368, Note_on_c, 1, 57, 0
3, 49368, Note_on_c, 1, 54, 0
3, 49370, Note_on_c, 1, 60, 0
3, 49373, Control_c, 1, 64, 0
3, 49379, Note_on_c, 1, 35, 0
3, 49380, Note_on_c, 1, 36, 98
3, 49399, Note_on_c, 1, 36, 0
3, 49400, Note_on_c, 1, 35, 90
3, 49419, Note_on_c, 1, 35, 0
3, 49420, Note_on_c, 1, 33, 90
3, 49439, Note_on_c, 1, 33, 0
3, 49440, Note_on_c, 1, 55, 98
3, 49440, Note_on_c, 1, 50, 98
3, 49440, Note_on_c, 1, 59, 94
3, 49440, Note_on_c, 1, 35, 98
3, 49443, Control_c, 1, 64, 127
3, 49459, Note_on_c, 1, 35, 0
3, 49460, Note_on_c, 1, 38, 94
3, 49479, Note_on_c, 1, 38, 0
3, 49480, Note_on_c, 1, 36, 90
3, 49488, Note_on_c, 1, 50, 0
3, 49489, Note_on_c, 1, 55, 0
3, 49491, Note_on_c, 1, 59, 0
3, 49495, Control_c, 1, 64, 0
3, 49499, Note_on_c, 1, 36, 0
3, 49500, Note_on_c, 1, 38, 107
3, 49519, Note_on_c, 1, 38, 0
3, 49520, Note_on_c, 1, 36, 94
3, 49539, Note_on_c, 1, 36, 0
3, 49540, Note_on_c, 1, 35, 94
3, 49559, Note_on_c, 1, 35, 0
3, 49559, Control_c, 1, 64, 127
3, 49560, Note_on_c, 1, 60, 107
3, 49560, Note_on_c, 1, 55, 103
3, 49560, Note_on_c, 1, 52, 107
3, 49560, Note_on_c, 1, 36, 94
3, 49579, Note_on_c, 1, 36, 0
3, 49580, Note_on_c, 1, 40, 94
3, 49599, Note_on_c, 1, 40, 0
3, 49600, Note_on_c, 1, 38, 98
3, 49603, Note_on_c, 1, 55, 0
3, 49604, Note_on_c, 1, 52, 0
3, 49608, Note_on_c, 1, 60, 0
3, 49615, Control_c, 1, 64, 0
3, 49619, Note_on_c, 1, 38, 0
3, 49620, Note_on_c, 1, 40, 94
3, 49639, Note_on_c, 1, 40, 0
3, 49640, Note_on_c, 1, 38, 98
3, 49659, Note_on_c, 1, 38, 0
3, 49660, Note_on_c, 1, 36, 90
3, 49675, Control_c, 1, 64, 127
3, 49679, Note_on_c, 1, 36, 0
3, 49680, Note_on_c, 1, 54, 94
3, 49680, Note_on_c, 1, 50, 103
3, 49680, Note_on_c, 1, 60, 98
3, 49680, Note_on_c, 1, 57, 103
3, 49680, Note_on_c, 1, 38, 98
3, 49699, Note_on_c, 1, 38, 0
3, 49700, Note_on_c, 1, 36, 81
3, 49703, Note_on_c, 1, 54, 0
3, 49703, Note_on_c, 1, 50, 0
3, 49706, Note_on_c, 1, 57, 0
3, 49707, Note_on_c, 1, 60, 0
3, 49719, Note_on_c, 1, 36, 0
3, 49720, Note_on_c, 1, 38, 98
3, 49727, Control_c, 1, 64, 0
3, 49739, Note_on_c, 1, 38, 0
3, 49740, Note_on_c, 1, 59, 98
3, 49740, Note_on_c, 1, 55, 103
3, 49740, Note_on_c, 1, 52, 103
3, 49740, Note_on_c, 1, 40, 94
3, 49746, Control_c, 1, 64, 127
3, 49759, Note_on_c, 1, 40, 0
3, 49760, Note_on_c, 1, 38, 90
3, 49764, Note_on_c, 1, 52, 0
3, 49767, Note_on_c, 1, 59, 0
3, 49768, Note_on_c, 1, 55, 0
3, 49779, Note_on_c, 1, 38, 0
3, 49780, Note_on_c, 1, 40, 85
3, 49787, Control_c, 1, 64, 0
3, 49799, Note_on_c, 1, 40, 0
3, 49800, Note_on_c, 1, 57, 98
3, 49800, Note_on_c, 1, 52, 98
3, 49800, Note_on_c, 1, 60, 98
3, 49800, Note_on_c, 1, 36, 94
3, 49803, Control_c, 1, 64, 127
3, 49814, Note_on_c, 1, 60, 0
3, 49815, Note_on_c, 1, 57, 0
3, 49819, Note_on_c, 1, 36, 0
3, 49820, Note_on_c, 1, 35, 94
3, 49821, Note_on_c, 1, 52, 0
3, 49839, Note_on_c, 1, 35, 0
3, 49840, Note_on_c, 1, 36, 90
3, 49848, Control_c, 1, 64, 0
3, 49859, Note_on_c, 1, 36, 0
3, 49860, Note_on_c, 1, 57, 103
3, 49860, Note_on_c, 1, 48, 98
3, 49860, Note_on_c, 1, 54, 94
3, 49860, Note_on_c, 1, 50, 98
3, 49860, Note_on_c, 1, 38, 94
3, 49865, Control_c, 1, 64, 127
3, 49879, Note_on_c, 1, 38, 0
3, 49880, Note_on_c, 1, 36, 94
3, 49881, Note_on_c, 1, 50, 0
3, 49883, Note_on_c, 1, 54, 0
3, 49884, Note_on_c, 1, 48, 0
3, 49886, Note_on_c, 1, 57, 0
3, 49899, Note_on_c, 1, 36, 0
3, 49900, Note_on_c, 1, 38, 98
3, 49907, Control_c, 1, 64, 0
3, 49919, Note_on_c, 1, 38, 0
3, 49920, Note_on_c, 1, 55, 94
3, 49920, Note_on_c, 1, 47, 98
3, 49920, Note_on_c, 1, 50, 103
3, 49920, Note_on_c, 1, 31, 94
3, 49926, Control_c, 1, 64, 127
3, 49939, Note_on_c, 1, 31, 0
3, 49940, Note_on_c, 1, 35, 98
3, 49959, Note_on_c, 1, 35, 0
3, 49960, Note_on_c, 1, 38, 90
3, 49979, Note_on_c, 1, 38, 0
3, 49980, Note_on_c, 1, 43, 85
3, 49999, Note_on_c, 1, 43, 0
3, 50000, Note_on_c, 1, 38, 98
3, 50019, Note_on_c, 1, 38, 0
3, 50020, Note_on_c, 1, 35, 98
3, 50027, Note_on_c, 1, 50, 0
3, 50028, Note_on_c, 1, 55, 0
3, 50028, Note_on_c, 1, 47, 0
3, 50033, Control_c, 1, 64, 0
3, 50039, Note_on_c, 1, 35, 0
3, 50040, Note_on_c, 1, 31, 103
3, 50099, Note_on_c, 1, 31, 0
3, 50160, Note_on_c, 1, 64, 90
3, 50160, Note_on_c, 1, 52, 85
3, 50180, Control_c, 1, 64, 127
3, 50280, Note_on_c, 1, 52, 0
3, 50280, Note_on_c, 1, 64, 0
3, 50280, Note_on_c, 1, 47, 77
3, 50280, Note_on_c, 1, 63, 81
3, 50280, Control_c, 1, 64, 0
3, 50313, Control_c, 1, 64, 127
3, 50340, Note_on_c, 1, 63, 0
3, 50340, Note_on_c, 1, 66, 85
3, 50354, Note_on_c, 1, 66, 0
3, 50370, Note_on_c, 1, 47, 0
3, 50400, Note_on_c, 1, 48, 81
3, 50400, Note_on_c, 1, 64, 94
3, 50403, Control_c, 1, 64, 0
3, 50437, Control_c, 1, 64, 127
3, 50460, Note_on_c, 1, 64, 0
3, 50460, Note_on_c, 1, 60, 81
3, 50520, Note_on_c, 1, 60, 0
3, 50520, Note_on_c, 1, 48, 0
3, 50520, Note_on_c, 1, 43, 77
3, 50520, Note_on_c, 1, 59, 94
3, 50525, Control_c, 1, 64, 0
3, 50561, Control_c, 1, 64, 127
3, 50580, Note_on_c, 1, 59, 0
3, 50580, Note_on_c, 1, 62, 94
3, 50640, Note_on_c, 1, 62, 0
3, 50640, Note_on_c, 1, 43, 0
3, 50640, Note_on_c, 1, 48, 67
3, 50640, Note_on_c, 1, 60, 94
3, 50642, Control_c, 1, 64, 0
3, 50680, Control_c, 1, 64, 127
3, 50763, Control_c, 1, 64, 0
3, 50775, Note_on_c, 1, 60, 0
3, 50775, Note_on_c, 1, 48, 0
3, 50819, Control_c, 1, 64, 127
3, 50820, Note_on_c, 1, 64, 94
3, 50820, Note_on_c, 1, 48, 81
3, 50880, Note_on_c, 1, 48, 0
3, 50880, Note_on_c, 1, 64, 0
3, 50880, Note_on_c, 1, 62, 98
3, 50880, Note_on_c, 1, 50, 85
3, 50886, Control_c, 1, 64, 0
3, 50936, Control_c, 1, 64, 127
3, 51060, Note_on_c, 1, 62, 0
3, 51074, Control_c, 1, 64, 0
3, 51075, Note_on_c, 1, 50, 0
3, 51120, Note_on_c, 1, 38, 90
3, 51120, Note_on_c, 1, 55, 94
3, 51120, Note_on_c, 1, 50, 81
3, 51123, Control_c, 1, 64, 127
3, 51149, Control_c, 1, 64, 0
3, 51150, Note_on_c, 1, 55, 0
3, 51150, Note_on_c, 1, 57, 94
3, 51177, Control_c, 1, 64, 127
3, 51180, Note_on_c, 1, 57, 0
3, 51180, Note_on_c, 1, 59, 94
3, 51210, Note_on_c, 1, 59, 0
3, 51210, Note_on_c, 1, 60, 98
3, 51214, Control_c, 1, 64, 0
3, 51240, Note_on_c, 1, 60, 0
3, 51240, Note_on_c, 1, 62, 94
3, 51254, Control_c, 1, 64, 127
3, 51270, Note_on_c, 1, 62, 0
3, 51270, Note_on_c, 1, 64, 90
3, 51300, Note_on_c, 1, 64, 0
3, 51300, Note_on_c, 1, 66, 77
3, 51330, Note_on_c, 1, 66, 0
3, 51330, Note_on_c, 1, 50, 0
3, 51330, Note_on_c, 1, 38, 0
3, 51330, Note_on_c, 1, 67, 98
3, 51344, Note_on_c, 1, 67, 0
3, 51357, Control_c, 1, 64, 0
3, 51360, Note_on_c, 1, 38, 90
3, 51360, Note_on_c, 1, 50, 85
3, 51360, Note_on_c, 1, 69, 98
3, 51385, Control_c, 1, 64, 127
3, 51390, Note_on_c, 1, 69, 0
3, 51390, Note_on_c, 1, 67, 90
3, 51420, Note_on_c, 1, 67, 0
3, 51420, Note_on_c, 1, 66, 81
3, 51423, Control_c, 1, 64, 0
3, 51450, Note_on_c, 1, 66, 0
3, 51450, Note_on_c, 1, 64, 94
3, 51458, Control_c, 1, 64, 127
3, 51480, Note_on_c, 1, 64, 0
3, 51480, Note_on_c, 1, 62, 94
3, 51510, Note_on_c, 1, 62, 0
3, 51510, Note_on_c, 1, 60, 90
3, 51512, Control_c, 1, 64, 0
3, 51529, Control_c, 1, 64, 127
3, 51540, Note_on_c, 1, 60, 0
3, 51540, Note_on_c, 1, 59, 85
3, 51570, Note_on_c, 1, 59, 0
3, 51570, Note_on_c, 1, 57, 69
3, 51600, Note_on_c, 1, 57, 0
3, 51600, Note_on_c, 1, 50, 0
3, 51600, Note_on_c, 1, 38, 0
3, 51600, Note_on_c, 1, 55, 98
3, 51600, Note_on_c, 1, 43, 94
3, 51601, Control_c, 1, 64, 0
3, 51625, Control_c, 1, 64, 127
3, 51660, Note_on_c, 1, 55, 0
3, 51660, Note_on_c, 1, 67, 107
3, 51690, Note_on_c, 1, 43, 0
3, 51705, Note_on_c, 1, 67, 0
3, 51720, Note_on_c, 1, 69, 98
3, 51720, Note_on_c, 1, 50, 94
3, 51722, Control_c, 1, 64, 0
3, 51743, Control_c, 1, 64, 127
3, 51779, Control_c, 1, 64, 0
3, 51780, Note_on_c, 1, 50, 0
3, 51780, Note_on_c, 1, 69, 0
3, 51780, Note_on_c, 1, 48, 81
3, 51780, Note_on_c, 1, 66, 94
3, 51796, Control_c, 1, 64, 127
3, 51840, Note_on_c, 1, 66, 0
3, 51840, Note_on_c, 1, 48, 0
3, 51840, Note_on_c, 1, 47, 94
3, 51840, Note_on_c, 1, 65, 98
3, 51841, Control_c, 1, 64, 0
3, 51891, Control_c, 1, 64, 127
3, 51960, Note_on_c, 1, 65, 0
3, 51960, Note_on_c, 1, 47, 0
3, 51960, Note_on_c, 1, 64, 94
3, 51960, Note_on_c, 1, 48, 73
3, 51960, Control_c, 1, 64, 0
3, 51980, Control_c, 1, 64, 127
3, 52022, Control_c, 1, 64, 0
3, 52035, Note_on_c, 1, 48, 0
3, 52035, Note_on_c, 1, 64, 0
3, 52080, Note_on_c, 1, 62, 103
3, 52080, Note_on_c, 1, 50, 94
3, 52095, Control_c, 1, 64, 127
3, 52170, Note_on_c, 1, 50, 0
3, 52170, Note_on_c, 1, 62, 0
3, 52200, Note_on_c, 1, 38, 90
3, 52200, Note_on_c, 1, 62, 98
3, 52203, Control_c, 1, 64, 0
3, 52223, Control_c, 1, 64, 127
3, 52290, Note_on_c, 1, 38, 0
3, 52305, Note_on_c, 1, 62, 0
3, 52320, Control_c, 1, 64, 0
3, 52320, Note_on_c, 1, 62, 103
3, 52320, Note_on_c, 1, 43, 85
3, 52341, Control_c, 1, 64, 127
3, 52440, Note_on_c, 1, 43, 0
3, 52440, Note_on_c, 1, 62, 0
3, 52446, Control_c, 1, 64, 0
3, 52470, Note_on_c, 1, 55, 103
3, 52476, Control_c, 1, 64, 127
3, 52500, Note_on_c, 1, 55, 0
3, 52500, Note_on_c, 1, 55, 90
3, 52530, Note_on_c, 1, 55, 0
3, 52530, Note_on_c, 1, 55, 85
3, 52544, Note_on_c, 1, 55, 0
3, 52560, Note_on_c, 1, 55, 94
3, 52568, Control_c, 1, 64, 0
3, 52587, Control_c, 1, 64, 127
3, 52680, Note_on_c, 1, 55, 0
3, 52681, Control_c, 1, 64, 0
3, 52710, Note_on_c, 1, 55, 103
3, 52720, Control_c, 1, 64, 127
3, 52740, Note_on_c, 1, 55, 0
3, 52740, Note_on_c, 1, 55, 94
3, 52754, Note_on_c, 1, 55, 0
3, 52770, Note_on_c, 1, 55, 98
3, 52784, Note_on_c, 1, 55, 0
3, 52796, Control_c, 1, 64, 0
3, 52800, Note_on_c, 1, 55, 107
3, 52800, Note_on_c, 1, 39, 94
3, 52834, Control_c, 1, 64, 127
3, 52919, Control_c, 1, 64, 0
3, 52920, Note_on_c, 1, 39, 0
3, 52920, Note_on_c, 1, 43, 98
3, 52959, Control_c, 1, 64, 127
3, 52965, Note_on_c, 1, 55, 0
3, 52980, Note_on_c, 1, 43, 0
3, 52980, Note_on_c, 1, 46, 107
3, 52983, Control_c, 1, 64, 0
3, 52988, Control_c, 1, 64, 127
3, 53040, Note_on_c, 1, 46, 0
3, 53040, Note_on_c, 1, 58, 94
3, 53040, Note_on_c, 1, 55, 107
3, 53040, Note_on_c, 1, 39, 94
3, 53040, Note_on_c, 1, 51, 98
3, 53041, Control_c, 1, 64, 0
3, 53076, Control_c, 1, 64, 127
3, 53520, Note_on_c, 1, 51, 0
3, 53520, Note_on_c, 1, 58, 0
3, 53520, Note_on_c, 1, 55, 0
3, 53520, Note_on_c, 1, 39, 0
3, 53520, Note_on_c, 1, 63, 107
3, 53523, Control_c, 1, 64, 0
3, 53567, Control_c, 1, 64, 127
3, 53760, Note_on_c, 1, 63, 0
3, 53760, Note_on_c, 1, 62, 94
3, 53760, Note_on_c, 1, 50, 81
3, 53767, Control_c, 1, 64, 0
3, 53787, Control_c, 1, 64, 127
3, 53805, Note_on_c, 1, 62, 0
3, 53820, Note_on_c, 1, 50, 0
3, 53820, Note_on_c, 1, 48, 77
3, 53820, Note_on_c, 1, 62, 94
3, 53824, Control_c, 1, 64, 0
3, 53839, Control_c, 1, 64, 127
3, 53878, Control_c, 1, 64, 0
3, 53880, Note_on_c, 1, 48, 0
3, 53880, Note_on_c, 1, 47, 81
3, 53893, Control_c, 1, 64, 127
3, 53940, Note_on_c, 1, 47, 0
3, 53940, Note_on_c, 1, 62, 0
3, 53940, Note_on_c, 1, 45, 81
3, 53940, Control_c, 1, 64, 0
3, 53940, Note_on_c, 1, 62, 94
3, 53955, Control_c, 1, 64, 127
3, 53985, Note_on_c, 1, 62, 0
3, 53985, Note_on_c, 1, 45, 0
3, 54000, Note_on_c, 1, 62, 85
3, 54000, Note_on_c, 1, 43, 81
3, 54003, Control_c, 1, 64, 0
3, 54020, Control_c, 1, 64, 127
3, 54060, Note_on_c, 1, 43, 0
3, 54060, Note_on_c, 1, 62, 0
3, 54066, Control_c, 1, 64, 0
3, 54120, Note_on_c, 1, 62, 94
3, 54120, Note_on_c, 1, 50, 81
3, 54121, Control_c, 1, 64, 127
3, 54180, Note_on_c, 1, 50, 0
3, 54180, Note_on_c, 1, 62, 0
3, 54184, Control_c, 1, 64, 0
3, 54240, Note_on_c, 1, 62, 90
3, 54240, Note_on_c, 1, 55, 85
3, 54243, Control_c, 1, 64, 127
3, 54315, Note_on_c, 1, 55, 0
3, 54315, Note_on_c, 1, 62, 0
3, 54317, Control_c, 1, 64, 0
3, 54480, Note_on_c, 1, 62, 94
3, 54480, Note_on_c, 1, 57, 90
3, 54484, Control_c, 1, 64, 127
3, 54525, Note_on_c, 1, 57, 0
3, 54525, Note_on_c, 1, 62, 0
3, 54538, Control_c, 1, 64, 0
3, 54600, Note_on_c, 1, 57, 94
3, 54600, Note_on_c, 1, 45, 81
3, 54606, Control_c, 1, 64, 127
3, 54630, Note_on_c, 1, 57, 0
3, 54645, Note_on_c, 1, 45, 0
3, 54664, Control_c, 1, 64, 0
3, 54720, Note_on_c, 1, 50, 94
3, 54720, Note_on_c, 1, 38, 94
3, 54725, Control_c, 1, 64, 127
3, 54780, Note_on_c, 1, 38, 0
3, 54780, Note_on_c, 1, 50, 0
3, 54790, Control_c, 1, 64, 0
3, 54960, Note_on_c, 1, 43, 85
3, 54960, Note_on_c, 1, 62, 98
3, 54974, Note_on_c, 1, 62, 0
3, 54974, Note_on_c, 1, 43, 0
3, 55020, Note_on_c, 1, 62, 90
3, 55020, Note_on_c, 1, 43, 81
3, 55034, Note_on_c, 1, 43, 0
3, 55034, Note_on_c, 1, 62, 0
3, 55080, Note_on_c, 1, 62, 98
3, 55080, Note_on_c, 1, 43, 85
3, 55094, Note_on_c, 1, 43, 0
3, 55094, Note_on_c, 1, 62, 0
3, 55140, Note_on_c, 1, 62, 94
3, 55140, Note_on_c, 1, 43, 90
3, 55154, Note_on_c, 1, 43, 0
3, 55154, Note_on_c, 1, 62, 0
3, 55200, Note_on_c, 1, 60, 94
3, 55200, Note_on_c, 1, 48, 90
3, 55219, Control_c, 1, 64, 127
3, 55320, Note_on_c, 1, 48, 0
3, 55320, Note_on_c, 1, 60, 0
3, 55320, Note_on_c, 1, 47, 90
3, 55320, Note_on_c, 1, 55, 94
3, 55327, Control_c, 1, 64, 0
3, 55374, Control_c, 1, 64, 127
3, 55440, Note_on_c, 1, 47, 0
3, 55440, Note_on_c, 1, 48, 90
3, 55444, Control_c, 1, 64, 0
3, 55486, Control_c, 1, 64, 127
3, 55500, Note_on_c, 1, 55, 0
3, 55500, Note_on_c, 1, 67, 94
3, 55514, Note_on_c, 1, 67, 0
3, 55530, Note_on_c, 1, 48, 0
3, 55555, Control_c, 1, 64, 0
3, 55560, Note_on_c, 1, 67, 94
3, 55560, Note_on_c, 1, 50, 94
3, 55574, Note_on_c, 1, 67, 0
3, 55575, Note_on_c, 1, 66, 90
3, 55575, Control_c, 1, 64, 127
3, 55589, Note_on_c, 1, 66, 0
3, 55590, Note_on_c, 1, 67, 85
3, 55604, Note_on_c, 1, 67, 0
3, 55605, Note_on_c, 1, 66, 94
3, 55619, Note_on_c, 1, 66, 0
3, 55620, Note_on_c, 1, 67, 81
3, 55634, Note_on_c, 1, 67, 0
3, 55635, Note_on_c, 1, 66, 90
3, 55649, Note_on_c, 1, 66, 0
3, 55650, Note_on_c, 1, 64, 77
3, 55664, Note_on_c, 1, 64, 0
3, 55665, Note_on_c, 1, 66, 77
3, 55673, Control_c, 1, 64, 0
3, 55679, Note_on_c, 1, 66, 0
3, 55680, Note_on_c, 1, 50, 0
3, 55680, Note_on_c, 1, 64, 98
3, 55680, Note_on_c, 1, 52, 103
3, 55686, Control_c, 1, 64, 127
3, 55809, Note_on_c, 1, 52, 0
3, 55811, Note_on_c, 1, 64, 0
3, 55817, Control_c, 1, 64, 0
3, 55833, Note_on_c, 1, 64, 81
3, 55842, Note_on_c, 1, 62, 85
3, 55845, Note_on_c, 1, 64, 0
3, 55853, Note_on_c, 1, 62, 0
3, 55854, Note_on_c, 1, 61, 98
3, 55863, Note_on_c, 1, 61, 0
3, 55864, Note_on_c, 1, 62, 98
3, 55904, Note_on_c, 1, 62, 0
3, 55906, Note_on_c, 1, 64, 94
3, 55916, Note_on_c, 1, 64, 0
3, 55921, Note_on_c, 1, 47, 81
3, 55922, Note_on_c, 1, 65, 94
3, 55936, Note_on_c, 1, 65, 0
3, 55939, Note_on_c, 1, 47, 0
3, 55979, Note_on_c, 1, 65, 98
3, 55980, Note_on_c, 1, 47, 98
3, 55991, Note_on_c, 1, 65, 0
3, 55992, Note_on_c, 1, 47, 0
3, 56039, Note_on_c, 1, 47, 98
3, 56039, Note_on_c, 1, 65, 98
3, 56054, Note_on_c, 1, 65, 0
3, 56054, Note_on_c, 1, 47, 0
3, 56099, Note_on_c, 1, 65, 98
3, 56099, Note_on_c, 1, 47, 94
3, 56109, Note_on_c, 1, 65, 0
3, 56114, Note_on_c, 1, 47, 0
3, 56158, Note_on_c, 1, 67, 103
3, 56159, Note_on_c, 1, 48, 90
3, 56167, Control_c, 1, 64, 127
3, 56188, Note_on_c, 1, 66, 85
3, 56190, Note_on_c, 1, 67, 0
3, 56203, Control_c, 1, 64, 0
3, 56217, Note_on_c, 1, 66, 0
3, 56218, Note_on_c, 1, 64, 98
3, 56230, Control_c, 1, 64, 127
3, 56249, Note_on_c, 1, 66, 85
3, 56251, Note_on_c, 1, 64, 0
3, 56255, Note_on_c, 1, 48, 0
3, 56273, Note_on_c, 1, 66, 0
3, 56276, Control_c, 1, 64, 0
3, 56279, Note_on_c, 1, 67, 98
3, 56280, Note_on_c, 1, 55, 94
3, 56308, Control_c, 1, 64, 127
3, 56330, Note_on_c, 1, 67, 0
3, 56339, Note_on_c, 1, 67, 103
3, 56361, Note_on_c, 1, 67, 0
3, 56386, Note_on_c, 1, 55, 0
3, 56397, Note_on_c, 1, 69, 107
3, 56398, Note_on_c, 1, 48, 94
3, 56401, Control_c, 1, 64, 0
3, 56428, Control_c, 1, 64, 127
3, 56513, Note_on_c, 1, 48, 0
3, 56513, Control_c, 1, 64, 0
3, 56517, Note_on_c, 1, 50, 98
3, 56528, Control_c, 1, 64, 127
3, 56530, Note_on_c, 1, 69, 0
3, 56553, Note_on_c, 1, 71, 85
3, 56554, Control_c, 1, 64, 0
3, 56561, Note_on_c, 1, 69, 103
3, 56563, Note_on_c, 1, 71, 0
3, 56569, Note_on_c, 1, 69, 0
3, 56571, Note_on_c, 1, 67, 90
3, 56581, Note_on_c, 1, 67, 0
3, 56581, Note_on_c, 1, 69, 98
3, 56619, Note_on_c, 1, 71, 67
3, 56620, Note_on_c, 1, 69, 0
3, 56634, Note_on_c, 1, 71, 0
3, 56637, Note_on_c, 1, 50, 0
3, 56639, Note_on_c, 1, 67, 107
3, 56641, Note_on_c, 1, 43, 81
3, 56704, Control_c, 1, 64, 127
3, 56750, Note_on_c, 1, 67, 0
3, 56757, Control_c, 1, 64, 0
3, 56820, Note_on_c, 1, 55, 103
3, 56834, Control_c, 1, 64, 127
3, 56876, Note_on_c, 1, 55, 0
3, 56885, Note_on_c, 1, 60, 98
3, 56887, Control_c, 1, 64, 0
3, 56941, Note_on_c, 1, 60, 0
3, 56941, Note_on_c, 1, 64, 94
3, 56954, Control_c, 1, 64, 127
3, 56996, Control_c, 1, 64, 0
3, 56999, Note_on_c, 1, 64, 0
3, 56999, Note_on_c, 1, 62, 98
3, 57017, Control_c, 1, 64, 127
3, 57058, Note_on_c, 1, 62, 0
3, 57059, Note_on_c, 1, 59, 94
3, 57095, Note_on_c, 1, 43, 0
3, 57114, Note_on_c, 1, 59, 0
3, 57119, Note_on_c, 1, 67, 98
3, 57120, Note_on_c, 1, 43, 85
3, 57120, Control_c, 1, 64, 0
3, 57149, Control_c, 1, 64, 127
3, 57296, Note_on_c, 1, 67, 0
3, 57296, Note_on_c, 1, 64, 98
3, 57297, Control_c, 1, 64, 0
3, 57314, Control_c, 1, 64, 127
3, 57339, Note_on_c, 1, 64, 0
3, 57340, Note_on_c, 1, 60, 81
3, 57352, Note_on_c, 1, 60, 0
3, 57353, Control_c, 1, 64, 0
3, 57359, Note_on_c, 1, 62, 107
3, 57415, Control_c, 1, 64, 127
3, 57416, Note_on_c, 1, 59, 94
3, 57420, Note_on_c, 1, 62, 0
3, 57458, Note_on_c, 1, 59, 0
3, 57458, Note_on_c, 1, 55, 81
3, 57472, Control_c, 1, 64, 0
3, 57474, Note_on_c, 1, 55, 0
3, 57478, Note_on_c, 1, 57, 107
3, 57492, Control_c, 1, 64, 127
3, 57516, Note_on_c, 1, 57, 0
3, 57517, Note_on_c, 1, 59, 98
3, 57523, Control_c, 1, 64, 0
3, 57530, Note_on_c, 1, 57, 77
3, 57531, Note_on_c, 1, 59, 0
3, 57534, Note_on_c, 1, 55, 103
3, 57537, Note_on_c, 1, 57, 0
3, 57545, Note_on_c, 1, 55, 0
3, 57545, Note_on_c, 1, 57, 94
3, 57586, Note_on_c, 1, 57, 0
3, 57586, Note_on_c, 1, 59, 81
3, 57600, Note_on_c, 1, 59, 0
3, 57605, Note_on_c, 1, 43, 0
3, 57606, Note_on_c, 1, 55, 98
3, 57607, Note_on_c, 1, 43, 56
3, 57609, Note_on_c, 1, 31, 94
3, 57634, Note_on_c, 1, 59, 94
3, 57635, Note_on_c, 1, 55, 0
3, 57665, Note_on_c, 1, 59, 0
3, 57665, Note_on_c, 1, 62, 98
3, 57672, Control_c, 1, 64, 127
3, 57693, Note_on_c, 1, 60, 94
3, 57694, Note_on_c, 1, 62, 0
3, 57717, Control_c, 1, 64, 0
3, 57721, Note_on_c, 1, 59, 85
3, 57723, Note_on_c, 1, 60, 0
3, 57735, Control_c, 1, 64, 127
3, 57751, Note_on_c, 1, 59, 0
3, 57752, Note_on_c, 1, 57, 90
3, 57779, Note_on_c, 1, 57, 0
3, 57781, Note_on_c, 1, 55, 94
3, 57784, Control_c, 1, 64, 0
3, 57799, Control_c, 1, 64, 127
3, 57809, Note_on_c, 1, 54, 90
3, 57811, Note_on_c, 1, 55, 0
3, 57829, Note_on_c, 1, 54, 0
3, 57838, Note_on_c, 1, 52, 94
3, 57843, Control_c, 1, 64, 0
3, 57870, Note_on_c, 1, 52, 0
3, 57870, Note_on_c, 1, 55, 94
3, 57877, Control_c, 1, 64, 127
3, 57897, Note_on_c, 1, 60, 73
3, 57899, Note_on_c, 1, 55, 0
3, 57910, Control_c, 1, 64, 0
3, 57930, Note_on_c, 1, 60, 0
3, 57930, Note_on_c, 1, 64, 98
3, 57930, Control_c, 1, 64, 127
3, 57948, Note_on_c, 1, 64, 0
3, 57960, Note_on_c, 1, 65, 94
3, 57961, Control_c, 1, 64, 0
3, 57978, Control_c, 1, 64, 127
3, 57990, Note_on_c, 1, 65, 0
3, 57990, Note_on_c, 1, 62, 94
3, 57999, Control_c, 1, 64, 0
3, 58014, Control_c, 1, 64, 127
3, 58017, Note_on_c, 1, 62, 0
3, 58019, Note_on_c, 1, 59, 94
3, 58047, Note_on_c, 1, 59, 0
3, 58051, Note_on_c, 1, 53, 81
3, 58065, Note_on_c, 1, 53, 0
3, 58079, Note_on_c, 1, 31, 0
3, 58079, Note_on_c, 1, 43, 0
3, 58080, Control_c, 1, 64, 0
3, 58081, Note_on_c, 1, 52, 107
3, 58084, Note_on_c, 1, 43, 98
3, 58084, Note_on_c, 1, 31, 77
3, 58110, Note_on_c, 1, 48, 77
3, 58111, Note_on_c, 1, 52, 0
3, 58112, Control_c, 1, 64, 127
3, 58135, Note_on_c, 1, 48, 0
3, 58142, Note_on_c, 1, 52, 90
3, 58169, Note_on_c, 1, 52, 0
3, 58172, Note_on_c, 1, 55, 90
3, 58195, Note_on_c, 1, 55, 0
3, 58198, Control_c, 1, 64, 0
3, 58202, Note_on_c, 1, 60, 94
3, 58213, Control_c, 1, 64, 127
3, 58228, Note_on_c, 1, 60, 0
3, 58233, Note_on_c, 1, 55, 73
3, 58249, Note_on_c, 1, 55, 0
3, 58258, Note_on_c, 1, 60, 85
3, 58288, Note_on_c, 1, 60, 0
3, 58289, Note_on_c, 1, 64, 94
3, 58299, Note_on_c, 1, 64, 0
3, 58319, Note_on_c, 1, 59, 94
3, 58323, Control_c, 1, 64, 0
3, 58348, Note_on_c, 1, 59, 0
3, 58349, Note_on_c, 1, 55, 98
3, 58353, Control_c, 1, 64, 127
3, 58381, Note_on_c, 1, 55, 0
3, 58381, Note_on_c, 1, 50, 73
3, 58393, Note_on_c, 1, 50, 0
3, 58410, Note_on_c, 1, 47, 98
3, 58424, Note_on_c, 1, 47, 0
3, 58441, Note_on_c, 1, 48, 107
3, 58442, Control_c, 1, 64, 0
3, 58465, Control_c, 1, 64, 127
3, 58469, Note_on_c, 1, 48, 0
3, 58472, Note_on_c, 1, 50, 94
3, 58497, Note_on_c, 1, 50, 0
3, 58500, Note_on_c, 1, 54, 81
3, 58533, Note_on_c, 1, 54, 0
3, 58534, Note_on_c, 1, 48, 98
3, 58548, Note_on_c, 1, 31, 0
3, 58550, Note_on_c, 1, 48, 0
3, 58550, Note_on_c, 1, 43, 0
3, 58558, Control_c, 1, 64, 0
3, 58563, Note_on_c, 1, 43, 77
3, 58563, Note_on_c, 1, 31, 94
3, 58564, Note_on_c, 1, 55, 98
3, 58580, Control_c, 1, 64, 127
3, 58628, Note_on_c, 1, 55, 0
3, 58632, Note_on_c, 1, 31, 0
3, 58634, Control_c, 1, 64, 0
3, 58640, Note_on_c, 1, 43, 0
3, 58682, Note_on_c, 1, 54, 69
3, 58684, Note_on_c, 1, 50, 73
3, 58713, Note_on_c, 1, 54, 0
3, 58714, Note_on_c, 1, 50, 0
3, 58737, Note_on_c, 1, 54, 90
3, 58739, Note_on_c, 1, 50, 98
3, 58773, Note_on_c, 1, 54, 0
3, 58777, Note_on_c, 1, 50, 0
3, 58800, Note_on_c, 1, 55, 90
3, 58802, Note_on_c, 1, 43, 90
3, 58805, Control_c, 1, 64, 127
3, 58829, Note_on_c, 1, 55, 0
3, 58834, Note_on_c, 1, 43, 0
3, 58873, Control_c, 1, 64, 0
3, 58924, Note_on_c, 1, 62, 81
3, 58925, Note_on_c, 1, 66, 73
3, 58929, Control_c, 1, 64, 127
3, 58947, Note_on_c, 1, 62, 0
3, 58949, Note_on_c, 1, 66, 0
3, 58979, Note_on_c, 1, 66, 81
3, 58980, Note_on_c, 1, 62, 81
3, 59000, Note_on_c, 1, 62, 0
3, 59001, Note_on_c, 1, 66, 0
3, 59032, Control_c, 1, 64, 0
3, 59041, Note_on_c, 1, 67, 85
3, 59042, Note_on_c, 1, 55, 81
3, 59051, Control_c, 1, 64, 127
3, 59089, Note_on_c, 1, 67, 0
3, 59092, Note_on_c, 1, 55, 0
3, 59099, Control_c, 1, 64, 0
3, 59160, Note_on_c, 1, 67, 85
3, 59160, Note_on_c, 1, 55, 67
3, 59166, Control_c, 1, 64, 127
3, 59213, Note_on_c, 1, 55, 0
3, 59213, Note_on_c, 1, 67, 0
3, 59220, Control_c, 1, 64, 0
3, 59277, Note_on_c, 1, 67, 85
3, 59278, Note_on_c, 1, 55, 73
3, 59282, Control_c, 1, 64, 127
3, 59345, Note_on_c, 1, 67, 0
3, 59349, Note_on_c, 1, 55, 0
3, 59383, Control_c, 1, 64, 0
3, 59520, Control_c, 1, 121, 0
3, 59520, End_track
4, 0, Start_track
4, 0, MIDI_port, 0
4, 0, End_track
5, 0, Start_track
5, 0, MIDI_port, 0
5, 0, Title_t, "Title: Andante Mit Variationen in Gmaj, K. 501"
5, 0, End_track
6, 0, Start_track
6, 0, MIDI_port, 0
6, 0, Title_t, "Comoser: W. A. Mozart"
6, 0, End_track
7, 0, Start_track
7, 0, MIDI_port, 0
7, 0, Title_t, "Sequence: Faren Raborn, Copyright 1996"
7, 0, End_track
8, 0, Start_track
8, 0, MIDI_port, 0
8, 0, Title_t, "Email: raborn@dtx.net"
8, 0, End_track
0, 0, End_of_file