0, 0, Header, 1, 12, 120
1, 0, Start_track
1, 0, Time_signature, 3, 2, 24, 8
1, 0, Key_signature, 0, "major"
1, 0, Tempo, 566038
1, 0, Marker_t, "Gloria"
1, 0, End_track
2, 0, Start_track
2, 0, MIDI_port, 0
2, 0, Title_t, "accomp"
2, 0, Program_c, 0, 1
2, 0, Note_on_c, 0, 84, 88
2, 0, Note_on_c, 0, 72, 78
2, 0, Note_on_c, 0, 76, 88
2, 0, Note_on_c, 0, 79, 78
2, 325, Note_on_c, 0, 76, 0
2, 326, Note_on_c, 0, 72, 0
2, 328, Note_on_c, 0, 84, 0
2, 328, Note_on_c, 0, 79, 0
2, 480, Note_on_c, 0, 64, 68
2, 580, Note_on_c, 0, 64, 0
2, 585, Note_on_c, 0, 67, 52
2, 600, Note_on_c, 0, 65, 68
2, 611, Note_on_c, 0, 67, 0
2, 660, Note_on_c, 0, 64, 45
2, 668, Note_on_c, 0, 65, 0
2, 690, Note_on_c, 0, 64, 0
2, 690, Note_on_c, 0, 65, 68
2, 720, Note_on_c, 0, 67, 78
2, 722, Note_on_c, 0, 65, 0
2, 745, Note_on_c, 0, 67, 0
2, 840, Note_on_c, 0, 64, 68
2, 956, Note_on_c, 0, 64, 0
2, 960, Note_on_c, 0, 65, 78
2, 960, Note_on_c, 0, 69, 78
2, 971, Note_on_c, 0, 65, 0
2, 976, Note_on_c, 0, 69, 0
2, 1080, Note_on_c, 0, 69, 78
2, 1080, Note_on_c, 0, 77, 78
2, 1095, Note_on_c, 0, 69, 0
2, 1096, Note_on_c, 0, 77, 0
2, 1200, Note_on_c, 0, 74, 88
2, 1200, Note_on_c, 0, 65, 88
2, 1212, Note_on_c, 0, 65, 0
2, 1215, Note_on_c, 0, 74, 0
2, 1320, Note_on_c, 0, 62, 88
2, 1320, Note_on_c, 0, 71, 78
2, 1331, Note_on_c, 0, 62, 0
2, 1335, Note_on_c, 0, 71, 0
2, 1440, Note_on_c, 0, 84, 88
2, 1440, Note_on_c, 0, 72, 88
2, 1440, Note_on_c, 0, 79, 88
2, 1440, Note_on_c, 0, 76, 88
2, 1774, Note_on_c, 0, 76, 0
2, 1777, Note_on_c, 0, 79, 0
2, 1779, Note_on_c, 0, 72, 0
2, 1780, Note_on_c, 0, 84, 0
2, 1920, Note_on_c, 0, 64, 78
2, 2020, Note_on_c, 0, 64, 0
2, 2025, Note_on_c, 0, 67, 60
2, 2040, Note_on_c, 0, 65, 78
2, 2043, Note_on_c, 0, 67, 0
2, 2100, Note_on_c, 0, 64, 52
2, 2103, Note_on_c, 0, 65, 0
2, 2130, Note_on_c, 0, 65, 60
2, 2132, Note_on_c, 0, 64, 0
2, 2160, Note_on_c, 0, 67, 68
2, 2162, Note_on_c, 0, 65, 0
2, 2276, Note_on_c, 0, 67, 0
2, 2280, Note_on_c, 0, 64, 52
2, 2399, Note_on_c, 0, 64, 0
2, 2400, Note_on_c, 0, 65, 78
2, 2400, Note_on_c, 0, 69, 78
2, 2413, Note_on_c, 0, 65, 0
2, 2419, Note_on_c, 0, 69, 0
2, 2520, Note_on_c, 0, 81, 68
2, 2520, Note_on_c, 0, 77, 60
2, 2537, Note_on_c, 0, 77, 0
2, 2541, Note_on_c, 0, 81, 0
2, 2640, Note_on_c, 0, 77, 78
2, 2640, Note_on_c, 0, 74, 68
2, 2652, Note_on_c, 0, 74, 0
2, 2657, Note_on_c, 0, 77, 0
2, 2760, Note_on_c, 0, 74, 68
2, 2760, Note_on_c, 0, 71, 68
2, 2773, Note_on_c, 0, 71, 0
2, 2774, Note_on_c, 0, 74, 0
2, 2880, Note_on_c, 0, 84, 88
2, 2880, Note_on_c, 0, 72, 78
2, 2880, Note_on_c, 0, 76, 78
2, 2880, Note_on_c, 0, 79, 78
2, 2948, Note_on_c, 0, 84, 0
2, 2949, Note_on_c, 0, 76, 0
2, 2950, Note_on_c, 0, 79, 0
2, 2957, Note_on_c, 0, 72, 0
2, 3015, Note_on_c, 0, 64, 68
2, 3060, Note_on_c, 0, 60, 52
2, 3070, Note_on_c, 0, 64, 0
2, 3120, Note_on_c, 0, 64, 68
2, 3121, Note_on_c, 0, 60, 0
2, 3180, Note_on_c, 0, 67, 68
2, 3193, Note_on_c, 0, 64, 0
2, 3198, Note_on_c, 0, 67, 0
2, 3240, Note_on_c, 0, 72, 60
2, 3240, Note_on_c, 0, 67, 60
2, 3263, Note_on_c, 0, 67, 0
2, 3264, Note_on_c, 0, 72, 0
2, 3270, Note_on_c, 0, 64, 45
2, 3300, Note_on_c, 0, 72, 45
2, 3300, Note_on_c, 0, 67, 52
2, 3303, Note_on_c, 0, 64, 0
2, 3322, Note_on_c, 0, 72, 0
2, 3326, Note_on_c, 0, 67, 0
2, 3330, Note_on_c, 0, 64, 20
2, 3360, Note_on_c, 0, 72, 52
2, 3360, Note_on_c, 0, 67, 60
2, 3366, Note_on_c, 0, 64, 0
2, 3387, Note_on_c, 0, 67, 0
2, 3390, Note_on_c, 0, 64, 39
2, 3391, Note_on_c, 0, 72, 0
2, 3420, Note_on_c, 0, 67, 52
2, 3420, Note_on_c, 0, 72, 52
2, 3423, Note_on_c, 0, 64, 0
2, 3445, Note_on_c, 0, 72, 0
2, 3448, Note_on_c, 0, 67, 0
2, 3450, Note_on_c, 0, 64, 45
2, 3480, Note_on_c, 0, 64, 0
2, 3480, Note_on_c, 0, 76, 60
2, 3480, Note_on_c, 0, 67, 52
2, 3509, Note_on_c, 0, 67, 0
2, 3510, Note_on_c, 0, 64, 45
2, 3520, Note_on_c, 0, 76, 0
2, 3540, Note_on_c, 0, 72, 52
2, 3540, Note_on_c, 0, 67, 45
2, 3541, Note_on_c, 0, 64, 0
2, 3567, Note_on_c, 0, 67, 0
2, 3570, Note_on_c, 0, 64, 68
2, 3579, Note_on_c, 0, 64, 0
2, 3579, Note_on_c, 0, 72, 0
2, 3600, Note_on_c, 0, 79, 52
2, 3600, Note_on_c, 0, 74, 60
2, 3630, Note_on_c, 0, 74, 0
2, 3630, Note_on_c, 0, 67, 45
2, 3638, Note_on_c, 0, 79, 0
2, 3660, Note_on_c, 0, 74, 60
2, 3660, Note_on_c, 0, 79, 52
2, 3670, Note_on_c, 0, 67, 0
2, 3688, Note_on_c, 0, 74, 0
2, 3690, Note_on_c, 0, 67, 52
2, 3692, Note_on_c, 0, 79, 0
2, 3720, Note_on_c, 0, 79, 52
2, 3720, Note_on_c, 0, 74, 60
2, 3724, Note_on_c, 0, 67, 0
2, 3749, Note_on_c, 0, 74, 0
2, 3750, Note_on_c, 0, 67, 45
2, 3754, Note_on_c, 0, 79, 0
2, 3780, Note_on_c, 0, 79, 45
2, 3780, Note_on_c, 0, 74, 52
2, 3784, Note_on_c, 0, 67, 0
2, 3807, Note_on_c, 0, 74, 0
2, 3810, Note_on_c, 0, 79, 0
2, 3810, Note_on_c, 0, 67, 52
2, 3840, Note_on_c, 0, 74, 60
2, 3840, Note_on_c, 0, 79, 60
2, 3842, Note_on_c, 0, 67, 0
2, 3870, Note_on_c, 0, 67, 52
2, 3872, Note_on_c, 0, 74, 0
2, 3875, Note_on_c, 0, 79, 0
2, 3900, Note_on_c, 0, 79, 52
2, 3900, Note_on_c, 0, 74, 52
2, 3905, Note_on_c, 0, 67, 0
2, 3929, Note_on_c, 0, 74, 0
2, 3930, Note_on_c, 0, 67, 68
2, 3933, Note_on_c, 0, 79, 0
2, 3939, Note_on_c, 0, 67, 0
2, 3960, Note_on_c, 0, 79, 60
2, 3960, Note_on_c, 0, 84, 68
2, 3990, Note_on_c, 0, 79, 0
2, 3990, Note_on_c, 0, 72, 52
2, 3993, Note_on_c, 0, 84, 0
2, 4020, Note_on_c, 0, 79, 52
2, 4020, Note_on_c, 0, 84, 60
2, 4026, Note_on_c, 0, 72, 0
2, 4047, Note_on_c, 0, 79, 0
2, 4050, Note_on_c, 0, 72, 68
2, 4053, Note_on_c, 0, 84, 0
2, 4080, Note_on_c, 0, 76, 52
2, 4080, Note_on_c, 0, 84, 60
2, 4081, Note_on_c, 0, 72, 0
2, 4110, Note_on_c, 0, 72, 60
2, 4111, Note_on_c, 0, 84, 0
2, 4111, Note_on_c, 0, 76, 0
2, 4140, Note_on_c, 0, 72, 0
2, 4140, Note_on_c, 0, 76, 34
2, 4140, Note_on_c, 0, 84, 60
2, 4170, Note_on_c, 0, 72, 60
2, 4171, Note_on_c, 0, 84, 0
2, 4172, Note_on_c, 0, 76, 0
2, 4200, Note_on_c, 0, 84, 60
2, 4200, Note_on_c, 0, 77, 68
2, 4202, Note_on_c, 0, 72, 0
2, 4230, Note_on_c, 0, 72, 52
2, 4231, Note_on_c, 0, 77, 0
2, 4232, Note_on_c, 0, 84, 0
2, 4260, Note_on_c, 0, 84, 52
2, 4260, Note_on_c, 0, 77, 39
2, 4265, Note_on_c, 0, 72, 0
2, 4289, Note_on_c, 0, 77, 0
2, 4289, Note_on_c, 0, 84, 0
2, 4290, Note_on_c, 0, 72, 52
2, 4320, Note_on_c, 0, 84, 60
2, 4320, Note_on_c, 0, 77, 60
2, 4323, Note_on_c, 0, 72, 0
2, 4350, Note_on_c, 0, 72, 52
2, 4352, Note_on_c, 0, 77, 0
2, 4353, Note_on_c, 0, 84, 0
2, 4380, Note_on_c, 0, 77, 39
2, 4380, Note_on_c, 0, 84, 52
2, 4385, Note_on_c, 0, 72, 0
2, 4410, Note_on_c, 0, 77, 0
2, 4410, Note_on_c, 0, 72, 68
2, 4411, Note_on_c, 0, 84, 0
2, 4440, Note_on_c, 0, 84, 52
2, 4440, Note_on_c, 0, 75, 68
2, 4443, Note_on_c, 0, 72, 0
2, 4470, Note_on_c, 0, 72, 52
2, 4472, Note_on_c, 0, 84, 0
2, 4477, Note_on_c, 0, 75, 0
2, 4500, Note_on_c, 0, 75, 78
2, 4500, Note_on_c, 0, 84, 52
2, 4506, Note_on_c, 0, 72, 0
2, 4528, Note_on_c, 0, 84, 0
2, 4530, Note_on_c, 0, 72, 60
2, 4533, Note_on_c, 0, 75, 0
2, 4560, Note_on_c, 0, 84, 68
2, 4560, Note_on_c, 0, 76, 60
2, 4565, Note_on_c, 0, 72, 0
2, 4590, Note_on_c, 0, 72, 52
2, 4591, Note_on_c, 0, 84, 0
2, 4592, Note_on_c, 0, 76, 0
2, 4620, Note_on_c, 0, 84, 60
2, 4620, Note_on_c, 0, 76, 45
2, 4622, Note_on_c, 0, 72, 0
2, 4648, Note_on_c, 0, 76, 0
2, 4648, Note_on_c, 0, 84, 0
2, 4650, Note_on_c, 0, 72, 52
2, 4680, Note_on_c, 0, 72, 0
2, 4680, Note_on_c, 0, 81, 68
2, 4680, Note_on_c, 0, 74, 60
2, 4707, Note_on_c, 0, 74, 0
2, 4710, Note_on_c, 0, 81, 0
2, 4710, Note_on_c, 0, 72, 52
2, 4740, Note_on_c, 0, 74, 52
2, 4740, Note_on_c, 0, 81, 52
2, 4746, Note_on_c, 0, 72, 0
2, 4770, Note_on_c, 0, 72, 52
2, 4771, Note_on_c, 0, 81, 0
2, 4772, Note_on_c, 0, 74, 0
2, 4800, Note_on_c, 0, 81, 60
2, 4800, Note_on_c, 0, 74, 60
2, 4806, Note_on_c, 0, 72, 0
2, 4830, Note_on_c, 0, 72, 45
2, 4831, Note_on_c, 0, 74, 0
2, 4832, Note_on_c, 0, 81, 0
2, 4860, Note_on_c, 0, 74, 60
2, 4860, Note_on_c, 0, 81, 52
2, 4863, Note_on_c, 0, 72, 0
2, 4889, Note_on_c, 0, 74, 0
2, 4890, Note_on_c, 0, 72, 52
2, 4892, Note_on_c, 0, 81, 0
2, 4920, Note_on_c, 0, 74, 60
2, 4920, Note_on_c, 0, 79, 52
2, 4927, Note_on_c, 0, 72, 0
2, 4950, Note_on_c, 0, 79, 0
2, 4950, Note_on_c, 0, 72, 52
2, 4952, Note_on_c, 0, 74, 0
2, 4980, Note_on_c, 0, 79, 52
2, 4980, Note_on_c, 0, 74, 60
2, 4983, Note_on_c, 0, 72, 0
2, 5008, Note_on_c, 0, 79, 0
2, 5010, Note_on_c, 0, 72, 52
2, 5012, Note_on_c, 0, 74, 0
2, 5031, Note_on_c, 0, 72, 0
2, 5040, Note_on_c, 0, 74, 78
2, 5040, Note_on_c, 0, 78, 88
2, 5040, Note_on_c, 0, 72, 52
2, 5184, Note_on_c, 0, 74, 0
2, 5188, Note_on_c, 0, 72, 0
2, 5196, Note_on_c, 0, 78, 0
2, 5328, Note_on_c, 0, 72, 60
2, 5342, Note_on_c, 0, 74, 60
2, 5343, Note_on_c, 0, 72, 0
2, 5357, Note_on_c, 0, 74, 0
2, 5360, Note_on_c, 0, 76, 60
2, 5370, Note_on_c, 0, 78, 60
2, 5375, Note_on_c, 0, 76, 0
2, 5385, Note_on_c, 0, 78, 0
2, 5385, Note_on_c, 0, 79, 60
2, 5400, Note_on_c, 0, 79, 0
2, 5400, Note_on_c, 0, 72, 60
2, 5400, Note_on_c, 0, 74, 60
2, 5400, Note_on_c, 0, 78, 60
2, 5520, Note_on_c, 0, 78, 0
2, 5520, Note_on_c, 0, 74, 0
2, 5520, Note_on_c, 0, 72, 0
2, 5680, Note_on_c, 0, 72, 60
2, 5690, Note_on_c, 0, 74, 60
2, 5695, Note_on_c, 0, 72, 0
2, 5700, Note_on_c, 0, 76, 60
2, 5705, Note_on_c, 0, 74, 0
2, 5710, Note_on_c, 0, 77, 60
2, 5715, Note_on_c, 0, 76, 0
2, 5720, Note_on_c, 0, 79, 60
2, 5725, Note_on_c, 0, 77, 0
2, 5730, Note_on_c, 0, 81, 60
2, 5735, Note_on_c, 0, 79, 0
2, 5740, Note_on_c, 0, 83, 60
2, 5745, Note_on_c, 0, 81, 0
2, 5755, Note_on_c, 0, 83, 0
2, 5760, Note_on_c, 0, 84, 78
2, 5760, Note_on_c, 0, 78, 88
2, 6060, Note_on_c, 0, 78, 0
2, 6064, Note_on_c, 0, 84, 0
2, 6120, Note_on_c, 0, 79, 78
2, 6120, Note_on_c, 0, 83, 78
2, 6150, Note_on_c, 0, 83, 0
2, 6150, Note_on_c, 0, 79, 0
2, 6150, Note_on_c, 0, 74, 39
2, 6180, Note_on_c, 0, 79, 45
2, 6180, Note_on_c, 0, 83, 39
2, 6183, Note_on_c, 0, 74, 0
2, 6209, Note_on_c, 0, 83, 0
2, 6210, Note_on_c, 0, 79, 0
2, 6210, Note_on_c, 0, 74, 52
2, 6227, Note_on_c, 0, 74, 0
2, 6240, Note_on_c, 0, 79, 60
2, 6240, Note_on_c, 0, 74, 60
2, 6269, Note_on_c, 0, 74, 0
2, 6270, Note_on_c, 0, 71, 52
2, 6271, Note_on_c, 0, 79, 0
2, 6300, Note_on_c, 0, 79, 45
2, 6300, Note_on_c, 0, 74, 45
2, 6301, Note_on_c, 0, 71, 0
2, 6328, Note_on_c, 0, 74, 0
2, 6329, Note_on_c, 0, 79, 0
2, 6330, Note_on_c, 0, 71, 52
2, 6345, Note_on_c, 0, 71, 0
2, 6360, Note_on_c, 0, 71, 52
2, 6360, Note_on_c, 0, 74, 60
2, 6387, Note_on_c, 0, 74, 0
2, 6389, Note_on_c, 0, 71, 0
2, 6390, Note_on_c, 0, 67, 39
2, 6420, Note_on_c, 0, 71, 39
2, 6420, Note_on_c, 0, 74, 25
2, 6424, Note_on_c, 0, 67, 0
2, 6443, Note_on_c, 0, 74, 0
2, 6444, Note_on_c, 0, 71, 0
2, 6450, Note_on_c, 0, 67, 39
2, 6464, Note_on_c, 0, 67, 0
2, 6480, Note_on_c, 0, 71, 78
2, 6480, Note_on_c, 0, 74, 78
2, 6480, Note_on_c, 0, 67, 88
2, 6480, Note_on_c, 0, 79, 60
2, 6621, Note_on_c, 0, 74, 0
2, 6623, Note_on_c, 0, 71, 0
2, 6623, Note_on_c, 0, 67, 0
2, 6628, Note_on_c, 0, 79, 0
2, 6840, Note_on_c, 0, 79, 68
2, 7197, Note_on_c, 0, 79, 0
2, 7200, Note_on_c, 0, 76, 78
2, 7560, Note_on_c, 0, 72, 68
2, 7563, Note_on_c, 0, 76, 0
2, 7906, Note_on_c, 0, 72, 0
2, 7920, Note_on_c, 0, 81, 60
2, 7920, Note_on_c, 0, 69, 68
2, 8255, Note_on_c, 0, 81, 0
2, 8262, Note_on_c, 0, 69, 0
2, 8340, Note_on_c, 0, 74, 60
2, 8340, Note_on_c, 0, 77, 52
2, 8398, Note_on_c, 0, 77, 0
2, 8398, Note_on_c, 0, 74, 0
2, 8400, Note_on_c, 0, 73, 60
2, 8400, Note_on_c, 0, 76, 39
2, 8452, Note_on_c, 0, 76, 0
2, 8459, Note_on_c, 0, 73, 0
2, 8460, Note_on_c, 0, 77, 39
2, 8460, Note_on_c, 0, 74, 45
2, 8507, Note_on_c, 0, 77, 0
2, 8516, Note_on_c, 0, 74, 0
2, 8520, Note_on_c, 0, 79, 52
2, 8520, Note_on_c, 0, 76, 60
2, 8562, Note_on_c, 0, 79, 0
2, 8580, Note_on_c, 0, 74, 60
2, 8580, Note_on_c, 0, 77, 45
2, 8581, Note_on_c, 0, 76, 0
2, 8602, Note_on_c, 0, 74, 0
2, 8603, Note_on_c, 0, 77, 0
2, 8700, Note_on_c, 0, 76, 52
2, 8700, Note_on_c, 0, 72, 52
2, 8760, Note_on_c, 0, 71, 52
2, 8760, Note_on_c, 0, 75, 68
2, 8767, Note_on_c, 0, 76, 0
2, 8768, Note_on_c, 0, 72, 0
2, 8820, Note_on_c, 0, 72, 52
2, 8820, Note_on_c, 0, 76, 39
2, 8821, Note_on_c, 0, 75, 0
2, 8823, Note_on_c, 0, 71, 0
2, 8836, Note_on_c, 0, 76, 0
2, 8841, Note_on_c, 0, 72, 0
2, 8880, Note_on_c, 0, 81, 52
2, 8880, Note_on_c, 0, 77, 60
2, 8914, Note_on_c, 0, 77, 0
2, 8940, Note_on_c, 0, 74, 52
2, 8940, Note_on_c, 0, 77, 45
2, 8942, Note_on_c, 0, 81, 0
2, 8963, Note_on_c, 0, 77, 0
2, 8964, Note_on_c, 0, 74, 0
2, 9060, Note_on_c, 0, 76, 52
2, 9060, Note_on_c, 0, 72, 45
2, 9117, Note_on_c, 0, 76, 0
2, 9120, Note_on_c, 0, 72, 0
2, 9120, Note_on_c, 0, 75, 60
2, 9120, Note_on_c, 0, 71, 52
2, 9174, Note_on_c, 0, 75, 0
2, 9180, Note_on_c, 0, 72, 34
2, 9180, Note_on_c, 0, 76, 34
2, 9183, Note_on_c, 0, 71, 0
2, 9218, Note_on_c, 0, 76, 0
2, 9218, Note_on_c, 0, 72, 0
2, 9240, Note_on_c, 0, 76, 60
2, 9240, Note_on_c, 0, 79, 52
2, 9266, Note_on_c, 0, 76, 0
2, 9300, Note_on_c, 0, 72, 39
2, 9300, Note_on_c, 0, 76, 45
2, 9301, Note_on_c, 0, 79, 0
2, 9324, Note_on_c, 0, 76, 0
2, 9330, Note_on_c, 0, 72, 0
2, 9420, Note_on_c, 0, 74, 60
2, 9420, Note_on_c, 0, 71, 52
2, 9468, Note_on_c, 0, 71, 0
2, 9473, Note_on_c, 0, 74, 0
2, 9480, Note_on_c, 0, 70, 68
2, 9480, Note_on_c, 0, 73, 60
2, 9531, Note_on_c, 0, 70, 0
2, 9535, Note_on_c, 0, 73, 0
2, 9540, Note_on_c, 0, 71, 52
2, 9540, Note_on_c, 0, 74, 52
2, 9574, Note_on_c, 0, 71, 0
2, 9575, Note_on_c, 0, 74, 0
2, 9600, Note_on_c, 0, 74, 52
2, 9600, Note_on_c, 0, 77, 45
2, 9635, Note_on_c, 0, 74, 0
2, 9655, Note_on_c, 0, 77, 0
2, 9660, Note_on_c, 0, 74, 60
2, 9660, Note_on_c, 0, 71, 60
2, 9684, Note_on_c, 0, 74, 0
2, 9688, Note_on_c, 0, 71, 0
2, 9720, Note_on_c, 0, 72, 52
2, 9720, Note_on_c, 0, 60, 60
2, 9845, Note_on_c, 0, 60, 0
2, 9846, Note_on_c, 0, 72, 0
2, 9930, Note_on_c, 0, 60, 39
2, 9945, Note_on_c, 0, 62, 60
2, 9958, Note_on_c, 0, 60, 0
2, 9960, Note_on_c, 0, 64, 60
2, 9968, Note_on_c, 0, 62, 0
2, 9987, Note_on_c, 0, 64, 0
2, 10050, Note_on_c, 0, 64, 34
2, 10065, Note_on_c, 0, 65, 60
2, 10065, Note_on_c, 0, 67, 68
2, 10068, Note_on_c, 0, 64, 0
2, 10084, Note_on_c, 0, 65, 0
2, 10215, Note_on_c, 0, 67, 0
2, 10305, Note_on_c, 0, 64, 29
2, 10305, Note_on_c, 0, 65, 68
2, 10320, Note_on_c, 0, 67, 78
2, 10326, Note_on_c, 0, 65, 0
2, 10327, Note_on_c, 0, 64, 0
2, 10341, Note_on_c, 0, 67, 0
2, 10410, Note_on_c, 0, 67, 29
2, 10410, Note_on_c, 0, 69, 60
2, 10424, Note_on_c, 0, 67, 0
2, 10425, Note_on_c, 0, 71, 39
2, 10426, Note_on_c, 0, 69, 0
2, 10434, Note_on_c, 0, 71, 0
2, 10440, Note_on_c, 0, 72, 68
2, 10494, Note_on_c, 0, 72, 0
2, 10500, Note_on_c, 0, 60, 68
2, 10521, Note_on_c, 0, 60, 0
2, 10530, Note_on_c, 0, 55, 60
2, 10552, Note_on_c, 0, 55, 0
2, 10560, Note_on_c, 0, 64, 60
2, 10582, Note_on_c, 0, 64, 0
2, 10590, Note_on_c, 0, 60, 39
2, 10612, Note_on_c, 0, 60, 0
2, 10620, Note_on_c, 0, 67, 25
2, 10639, Note_on_c, 0, 67, 0
2, 10650, Note_on_c, 0, 64, 52
2, 10669, Note_on_c, 0, 64, 0
2, 10680, Note_on_c, 0, 72, 68
2, 10706, Note_on_c, 0, 72, 0
2, 10710, Note_on_c, 0, 67, 45
2, 10740, Note_on_c, 0, 76, 60
2, 10745, Note_on_c, 0, 67, 0
2, 10768, Note_on_c, 0, 76, 0
2, 10770, Note_on_c, 0, 72, 25
2, 10787, Note_on_c, 0, 72, 0
2, 10800, Note_on_c, 0, 77, 68
2, 10800, Note_on_c, 0, 65, 60
2, 10830, Note_on_c, 0, 77, 0
2, 10841, Note_on_c, 0, 65, 0
2, 10860, Note_on_c, 0, 65, 78
2, 10888, Note_on_c, 0, 65, 0
2, 10890, Note_on_c, 0, 60, 60
2, 10910, Note_on_c, 0, 60, 0
2, 10920, Note_on_c, 0, 69, 52
2, 10940, Note_on_c, 0, 69, 0
2, 10950, Note_on_c, 0, 65, 45
2, 10972, Note_on_c, 0, 65, 0
2, 10980, Note_on_c, 0, 72, 39
2, 11001, Note_on_c, 0, 72, 0
2, 11010, Note_on_c, 0, 69, 52
2, 11032, Note_on_c, 0, 69, 0
2, 11040, Note_on_c, 0, 77, 39
2, 11040, Note_on_c, 0, 76, 7
2, 11056, Note_on_c, 0, 76, 0
2, 11063, Note_on_c, 0, 77, 0
2, 11070, Note_on_c, 0, 72, 45
2, 11099, Note_on_c, 0, 72, 0
2, 11100, Note_on_c, 0, 77, 52
2, 11100, Note_on_c, 0, 83, 45
2, 11115, Note_on_c, 0, 83, 0
2, 11124, Note_on_c, 0, 77, 0
2, 11130, Note_on_c, 0, 72, 34
2, 11146, Note_on_c, 0, 72, 0
2, 11160, Note_on_c, 0, 84, 60
2, 11160, Note_on_c, 0, 76, 68
2, 11160, Note_on_c, 0, 72, 52
2, 11191, Note_on_c, 0, 84, 0
2, 11192, Note_on_c, 0, 72, 0
2, 11195, Note_on_c, 0, 76, 0
2, 11220, Note_on_c, 0, 79, 60
2, 11220, Note_on_c, 0, 76, 45
2, 11246, Note_on_c, 0, 76, 0
2, 11248, Note_on_c, 0, 79, 0
2, 11280, Note_on_c, 0, 74, 18
2, 11280, Note_on_c, 0, 77, 34
2, 11300, Note_on_c, 0, 77, 0
2, 11305, Note_on_c, 0, 74, 0
2, 11340, Note_on_c, 0, 76, 52
2, 11340, Note_on_c, 0, 72, 45
2, 11357, Note_on_c, 0, 76, 0
2, 11365, Note_on_c, 0, 72, 0
2, 11400, Note_on_c, 0, 74, 52
2, 11400, Note_on_c, 0, 71, 52
2, 11413, Note_on_c, 0, 74, 0
2, 11418, Note_on_c, 0, 71, 0
2, 11460, Note_on_c, 0, 72, 52
2, 11460, Note_on_c, 0, 69, 45
2, 11477, Note_on_c, 0, 69, 0
2, 11479, Note_on_c, 0, 72, 0
2, 11520, Note_on_c, 0, 71, 60
2, 11520, Note_on_c, 0, 67, 60
2, 11529, Note_on_c, 0, 67, 0
2, 11530, Note_on_c, 0, 71, 0
2, 11580, Note_on_c, 0, 72, 68
2, 11580, Note_on_c, 0, 84, 78
2, 11580, Note_on_c, 0, 81, 68
2, 11598, Note_on_c, 0, 81, 0
2, 11604, Note_on_c, 0, 84, 0
2, 11609, Note_on_c, 0, 72, 0
2, 11640, Note_on_c, 0, 83, 68
2, 11640, Note_on_c, 0, 71, 68
2, 11640, Note_on_c, 0, 79, 68
2, 11655, Note_on_c, 0, 79, 0
2, 11656, Note_on_c, 0, 83, 0
2, 11662, Note_on_c, 0, 71, 0
2, 11700, Note_on_c, 0, 81, 52
2, 11700, Note_on_c, 0, 69, 52
2, 11700, Note_on_c, 0, 77, 45
2, 11710, Note_on_c, 0, 77, 0
2, 11714, Note_on_c, 0, 81, 0
2, 11716, Note_on_c, 0, 69, 0
2, 11760, Note_on_c, 0, 79, 60
2, 11760, Note_on_c, 0, 67, 60
2, 11760, Note_on_c, 0, 76, 52
2, 11772, Note_on_c, 0, 76, 0
2, 11775, Note_on_c, 0, 67, 0
2, 11775, Note_on_c, 0, 79, 0
2, 11820, Note_on_c, 0, 77, 60
2, 11820, Note_on_c, 0, 65, 52
2, 11820, Note_on_c, 0, 74, 60
2, 11830, Note_on_c, 0, 74, 0
2, 11833, Note_on_c, 0, 65, 0
2, 11834, Note_on_c, 0, 77, 0
2, 11880, Note_on_c, 0, 76, 60
2, 11880, Note_on_c, 0, 64, 68
2, 11880, Note_on_c, 0, 72, 60
2, 11995, Note_on_c, 0, 72, 0
2, 11996, Note_on_c, 0, 64, 0
2, 11998, Note_on_c, 0, 76, 0
2, 12240, Note_on_c, 0, 67, 78
2, 12660, Note_on_c, 0, 76, 60
2, 12660, Note_on_c, 0, 72, 68
2, 12670, Note_on_c, 0, 67, 0
2, 12691, Note_on_c, 0, 72, 0
2, 12720, Note_on_c, 0, 76, 0
2, 12720, Note_on_c, 0, 72, 68
2, 12720, Note_on_c, 0, 69, 60
2, 12750, Note_on_c, 0, 69, 0
2, 12772, Note_on_c, 0, 72, 0
2, 12780, Note_on_c, 0, 71, 60
2, 12780, Note_on_c, 0, 67, 39
2, 12802, Note_on_c, 0, 67, 0
2, 12813, Note_on_c, 0, 71, 0
2, 12840, Note_on_c, 0, 66, 68
2, 12840, Note_on_c, 0, 69, 52
2, 12859, Note_on_c, 0, 69, 0
2, 12869, Note_on_c, 0, 66, 0
2, 12900, Note_on_c, 0, 64, 60
2, 12900, Note_on_c, 0, 67, 52
2, 12922, Note_on_c, 0, 67, 0
2, 12930, Note_on_c, 0, 64, 0
2, 12960, Note_on_c, 0, 66, 88
2, 12960, Note_on_c, 0, 62, 60
2, 12970, Note_on_c, 0, 62, 0
2, 12971, Note_on_c, 0, 66, 0
2, 13020, Note_on_c, 0, 79, 68
2, 13020, Note_on_c, 0, 67, 60
2, 13020, Note_on_c, 0, 76, 68
2, 13038, Note_on_c, 0, 67, 0
2, 13039, Note_on_c, 0, 76, 0
2, 13040, Note_on_c, 0, 79, 0
2, 13080, Note_on_c, 0, 66, 100
2, 13080, Note_on_c, 0, 78, 88
2, 13080, Note_on_c, 0, 74, 68
2, 13096, Note_on_c, 0, 74, 0
2, 13101, Note_on_c, 0, 78, 0
2, 13109, Note_on_c, 0, 66, 0
2, 13140, Note_on_c, 0, 76, 68
2, 13140, Note_on_c, 0, 64, 60
2, 13140, Note_on_c, 0, 72, 60
2, 13160, Note_on_c, 0, 72, 0
2, 13162, Note_on_c, 0, 76, 0
2, 13169, Note_on_c, 0, 64, 0
2, 13200, Note_on_c, 0, 74, 78
2, 13200, Note_on_c, 0, 62, 68
2, 13200, Note_on_c, 0, 71, 68
2, 13217, Note_on_c, 0, 71, 0
2, 13220, Note_on_c, 0, 74, 0
2, 13222, Note_on_c, 0, 62, 0
2, 13260, Note_on_c, 0, 60, 60
2, 13260, Note_on_c, 0, 69, 78
2, 13260, Note_on_c, 0, 72, 60
2, 13274, Note_on_c, 0, 72, 0
2, 13274, Note_on_c, 0, 69, 0
2, 13282, Note_on_c, 0, 60, 0
2, 13320, Note_on_c, 0, 71, 78
2, 13320, Note_on_c, 0, 59, 78
2, 13320, Note_on_c, 0, 67, 88
2, 13403, Note_on_c, 0, 71, 0
2, 13416, Note_on_c, 0, 59, 0
2, 13676, Note_on_c, 0, 67, 0
2, 13680, Note_on_c, 0, 74, 78
2, 14100, Note_on_c, 0, 72, 60
2, 14100, Note_on_c, 0, 76, 60
2, 14103, Note_on_c, 0, 74, 0
2, 14152, Note_on_c, 0, 76, 0
2, 14160, Note_on_c, 0, 74, 52
2, 14160, Note_on_c, 0, 71, 52
2, 14163, Note_on_c, 0, 72, 0
2, 14186, Note_on_c, 0, 71, 0
2, 14218, Note_on_c, 0, 74, 0
2, 14220, Note_on_c, 0, 72, 68
2, 14220, Note_on_c, 0, 69, 52
2, 14247, Note_on_c, 0, 69, 0
2, 14260, Note_on_c, 0, 72, 0
2, 14280, Note_on_c, 0, 71, 60
2, 14280, Note_on_c, 0, 67, 39
2, 14305, Note_on_c, 0, 67, 0
2, 14334, Note_on_c, 0, 71, 0
2, 14340, Note_on_c, 0, 65, 52
2, 14340, Note_on_c, 0, 69, 45
2, 14354, Note_on_c, 0, 69, 0
2, 14362, Note_on_c, 0, 65, 0
2, 14400, Note_on_c, 0, 64, 60
2, 14400, Note_on_c, 0, 67, 68
2, 14409, Note_on_c, 0, 64, 0
2, 14411, Note_on_c, 0, 67, 0
2, 14460, Note_on_c, 0, 72, 68
2, 14460, Note_on_c, 0, 81, 78
2, 14460, Note_on_c, 0, 84, 52
2, 14481, Note_on_c, 0, 84, 0
2, 14483, Note_on_c, 0, 81, 0
2, 14494, Note_on_c, 0, 72, 0
2, 14520, Note_on_c, 0, 83, 68
2, 14520, Note_on_c, 0, 71, 60
2, 14520, Note_on_c, 0, 79, 60
2, 14541, Note_on_c, 0, 79, 0
2, 14545, Note_on_c, 0, 83, 0
2, 14551, Note_on_c, 0, 71, 0
2, 14580, Note_on_c, 0, 81, 60
2, 14580, Note_on_c, 0, 69, 68
2, 14580, Note_on_c, 0, 77, 68
2, 14599, Note_on_c, 0, 77, 0
2, 14602, Note_on_c, 0, 81, 0
2, 14609, Note_on_c, 0, 69, 0
2, 14640, Note_on_c, 0, 67, 60
2, 14640, Note_on_c, 0, 76, 60
2, 14640, Note_on_c, 0, 79, 60
2, 14656, Note_on_c, 0, 76, 0
2, 14657, Note_on_c, 0, 79, 0
2, 14662, Note_on_c, 0, 67, 0
2, 14700, Note_on_c, 0, 77, 60
2, 14700, Note_on_c, 0, 65, 68
2, 14700, Note_on_c, 0, 74, 68
2, 14714, Note_on_c, 0, 74, 0
2, 14717, Note_on_c, 0, 65, 0
2, 14717, Note_on_c, 0, 77, 0
2, 14760, Note_on_c, 0, 76, 78
2, 14760, Note_on_c, 0, 64, 78
2, 14760, Note_on_c, 0, 72, 78
2, 14783, Note_on_c, 0, 72, 0
2, 14783, Note_on_c, 0, 76, 0
2, 14789, Note_on_c, 0, 64, 0
2, 14820, Note_on_c, 0, 60, 60
2, 14850, Note_on_c, 0, 55, 60
2, 14863, Note_on_c, 0, 60, 0
2, 14869, Note_on_c, 0, 55, 0
2, 14880, Note_on_c, 0, 64, 52
2, 14903, Note_on_c, 0, 64, 0
2, 14910, Note_on_c, 0, 60, 52
2, 14929, Note_on_c, 0, 60, 0
2, 14940, Note_on_c, 0, 67, 45
2, 14961, Note_on_c, 0, 67, 0
2, 14970, Note_on_c, 0, 64, 45
2, 14989, Note_on_c, 0, 64, 0
2, 15000, Note_on_c, 0, 72, 39
2, 15027, Note_on_c, 0, 72, 0
2, 15030, Note_on_c, 0, 67, 45
2, 15060, Note_on_c, 0, 76, 45
2, 15069, Note_on_c, 0, 67, 0
2, 15083, Note_on_c, 0, 76, 0
2, 15090, Note_on_c, 0, 72, 25
2, 15110, Note_on_c, 0, 72, 0
2, 15120, Note_on_c, 0, 77, 68
2, 15120, Note_on_c, 0, 65, 68
2, 15147, Note_on_c, 0, 77, 0
2, 15157, Note_on_c, 0, 65, 0
2, 15180, Note_on_c, 0, 65, 52
2, 15210, Note_on_c, 0, 60, 52
2, 15214, Note_on_c, 0, 65, 0
2, 15230, Note_on_c, 0, 60, 0
2, 15240, Note_on_c, 0, 69, 68
2, 15263, Note_on_c, 0, 69, 0
2, 15270, Note_on_c, 0, 65, 52
2, 15292, Note_on_c, 0, 65, 0
2, 15300, Note_on_c, 0, 72, 52
2, 15322, Note_on_c, 0, 72, 0
2, 15330, Note_on_c, 0, 69, 60
2, 15355, Note_on_c, 0, 69, 0
2, 15360, Note_on_c, 0, 74, 78
2, 15360, Note_on_c, 0, 77, 52
2, 15386, Note_on_c, 0, 77, 0
2, 15387, Note_on_c, 0, 74, 0
2, 15390, Note_on_c, 0, 72, 52
2, 15420, Note_on_c, 0, 72, 0
2, 15420, Note_on_c, 0, 77, 52
2, 15420, Note_on_c, 0, 83, 52
2, 15444, Note_on_c, 0, 83, 0
2, 15446, Note_on_c, 0, 77, 0
2, 15450, Note_on_c, 0, 72, 45
2, 15468, Note_on_c, 0, 72, 0
2, 15480, Note_on_c, 0, 84, 68
2, 15480, Note_on_c, 0, 72, 78
2, 15480, Note_on_c, 0, 76, 68
2, 15527, Note_on_c, 0, 84, 0
2, 15529, Note_on_c, 0, 76, 0
2, 15534, Note_on_c, 0, 72, 0
2, 15690, Note_on_c, 0, 60, 39
2, 15705, Note_on_c, 0, 62, 68
2, 15711, Note_on_c, 0, 60, 0
2, 15720, Note_on_c, 0, 64, 68
2, 15727, Note_on_c, 0, 62, 0
2, 15751, Note_on_c, 0, 64, 0
2, 15825, Note_on_c, 0, 64, 34
2, 15825, Note_on_c, 0, 65, 68
2, 15840, Note_on_c, 0, 67, 68
2, 15842, Note_on_c, 0, 65, 0
2, 15843, Note_on_c, 0, 64, 0
2, 15916, Note_on_c, 0, 67, 0
2, 16050, Note_on_c, 0, 64, 34
2, 16065, Note_on_c, 0, 65, 68
2, 16076, Note_on_c, 0, 64, 0
2, 16080, Note_on_c, 0, 67, 68
2, 16088, Note_on_c, 0, 65, 0
2, 16099, Note_on_c, 0, 67, 0
2, 16140, Note_on_c, 0, 67, 52
2, 16155, Note_on_c, 0, 69, 52
2, 16163, Note_on_c, 0, 67, 0
2, 16179, Note_on_c, 0, 69, 0
2, 16185, Note_on_c, 0, 71, 39
2, 16197, Note_on_c, 0, 71, 0
2, 16200, Note_on_c, 0, 72, 78
2, 16200, Note_on_c, 0, 67, 78
2, 16230, Note_on_c, 0, 64, 68
2, 16247, Note_on_c, 0, 67, 0
2, 16253, Note_on_c, 0, 72, 0
2, 16256, Note_on_c, 0, 64, 0
2, 16260, Note_on_c, 0, 72, 45
2, 16260, Note_on_c, 0, 67, 45
2, 16267, Note_on_c, 0, 67, 0
2, 16267, Note_on_c, 0, 72, 0
2, 16290, Note_on_c, 0, 64, 45
2, 16297, Note_on_c, 0, 64, 0
2, 16320, Note_on_c, 0, 72, 68
2, 16320, Note_on_c, 0, 67, 60
2, 16346, Note_on_c, 0, 67, 0
2, 16350, Note_on_c, 0, 72, 0
2, 16350, Note_on_c, 0, 64, 34
2, 16380, Note_on_c, 0, 72, 45
2, 16380, Note_on_c, 0, 67, 39
2, 16384, Note_on_c, 0, 64, 0
2, 16401, Note_on_c, 0, 72, 0
2, 16402, Note_on_c, 0, 67, 0
2, 16410, Note_on_c, 0, 64, 39
2, 16440, Note_on_c, 0, 67, 52
2, 16440, Note_on_c, 0, 72, 45
2, 16444, Note_on_c, 0, 64, 0
2, 16470, Note_on_c, 0, 72, 0
2, 16470, Note_on_c, 0, 67, 0
2, 16470, Note_on_c, 0, 64, 34
2, 16500, Note_on_c, 0, 64, 0
2, 16500, Note_on_c, 0, 67, 34
2, 16500, Note_on_c, 0, 72, 34
2, 16521, Note_on_c, 0, 67, 0
2, 16523, Note_on_c, 0, 72, 0
2, 16530, Note_on_c, 0, 64, 45
2, 16556, Note_on_c, 0, 64, 0
2, 16560, Note_on_c, 0, 76, 52
2, 16560, Note_on_c, 0, 74, 68
2, 16560, Note_on_c, 0, 71, 60
2, 16580, Note_on_c, 0, 71, 0
2, 16590, Note_on_c, 0, 64, 45
2, 16593, Note_on_c, 0, 76, 0
2, 16595, Note_on_c, 0, 74, 0
2, 16620, Note_on_c, 0, 71, 39
2, 16620, Note_on_c, 0, 76, 34
2, 16620, Note_on_c, 0, 74, 45
2, 16625, Note_on_c, 0, 64, 0
2, 16644, Note_on_c, 0, 71, 0
2, 16647, Note_on_c, 0, 76, 0
2, 16647, Note_on_c, 0, 74, 0
2, 16650, Note_on_c, 0, 64, 34
2, 16680, Note_on_c, 0, 71, 52
2, 16680, Note_on_c, 0, 74, 52
2, 16680, Note_on_c, 0, 76, 52
2, 16687, Note_on_c, 0, 64, 0
2, 16709, Note_on_c, 0, 71, 0
2, 16709, Note_on_c, 0, 74, 0
2, 16709, Note_on_c, 0, 76, 0
2, 16710, Note_on_c, 0, 64, 45
2, 16740, Note_on_c, 0, 71, 52
2, 16740, Note_on_c, 0, 76, 45
2, 16740, Note_on_c, 0, 74, 52
2, 16743, Note_on_c, 0, 64, 0
2, 16766, Note_on_c, 0, 71, 0
2, 16767, Note_on_c, 0, 76, 0
2, 16770, Note_on_c, 0, 74, 0
2, 16770, Note_on_c, 0, 64, 52
2, 16800, Note_on_c, 0, 74, 52
2, 16800, Note_on_c, 0, 71, 52
2, 16800, Note_on_c, 0, 76, 52
2, 16802, Note_on_c, 0, 64, 0
2, 16829, Note_on_c, 0, 76, 0
2, 16829, Note_on_c, 0, 71, 0
2, 16830, Note_on_c, 0, 64, 78
2, 16831, Note_on_c, 0, 74, 0
2, 16860, Note_on_c, 0, 71, 45
2, 16860, Note_on_c, 0, 76, 39
2, 16860, Note_on_c, 0, 74, 45
2, 16865, Note_on_c, 0, 64, 0
2, 16889, Note_on_c, 0, 71, 0
2, 16890, Note_on_c, 0, 64, 60
2, 16898, Note_on_c, 0, 64, 0
2, 16901, Note_on_c, 0, 76, 0
2, 16901, Note_on_c, 0, 74, 0
2, 16920, Note_on_c, 0, 76, 68
2, 16920, Note_on_c, 0, 81, 60
2, 16949, Note_on_c, 0, 76, 0
2, 16950, Note_on_c, 0, 72, 29
2, 16953, Note_on_c, 0, 81, 0
2, 16980, Note_on_c, 0, 76, 52
2, 16980, Note_on_c, 0, 81, 60
2, 16984, Note_on_c, 0, 72, 0
2, 17006, Note_on_c, 0, 81, 0
2, 17007, Note_on_c, 0, 76, 0
2, 17010, Note_on_c, 0, 72, 34
2, 17040, Note_on_c, 0, 81, 60
2, 17040, Note_on_c, 0, 76, 60
2, 17049, Note_on_c, 0, 72, 0
2, 17069, Note_on_c, 0, 81, 0
2, 17070, Note_on_c, 0, 72, 52
2, 17071, Note_on_c, 0, 76, 0
2, 17100, Note_on_c, 0, 76, 45
2, 17100, Note_on_c, 0, 81, 52
2, 17103, Note_on_c, 0, 72, 0
2, 17130, Note_on_c, 0, 81, 0
2, 17130, Note_on_c, 0, 72, 45
2, 17135, Note_on_c, 0, 76, 0
2, 17160, Note_on_c, 0, 76, 29
2, 17160, Note_on_c, 0, 81, 39
2, 17165, Note_on_c, 0, 72, 0
2, 17190, Note_on_c, 0, 72, 34
2, 17194, Note_on_c, 0, 81, 0
2, 17194, Note_on_c, 0, 76, 0
2, 17220, Note_on_c, 0, 72, 0
2, 17220, Note_on_c, 0, 76, 20
2, 17220, Note_on_c, 0, 81, 45
2, 17246, Note_on_c, 0, 81, 0
2, 17246, Note_on_c, 0, 76, 0
2, 17250, Note_on_c, 0, 72, 52
2, 17262, Note_on_c, 0, 72, 0
2, 17280, Note_on_c, 0, 81, 52
2, 17280, Note_on_c, 0, 86, 52
2, 17280, Note_on_c, 0, 84, 68
2, 17305, Note_on_c, 0, 81, 0
2, 17306, Note_on_c, 0, 84, 0
2, 17310, Note_on_c, 0, 74, 68
2, 17312, Note_on_c, 0, 86, 0
2, 17340, Note_on_c, 0, 86, 68
2, 17340, Note_on_c, 0, 84, 52
2, 17340, Note_on_c, 0, 81, 45
2, 17343, Note_on_c, 0, 74, 0
2, 17363, Note_on_c, 0, 81, 0
2, 17367, Note_on_c, 0, 86, 0
2, 17368, Note_on_c, 0, 84, 0
2, 17370, Note_on_c, 0, 74, 60
2, 17400, Note_on_c, 0, 86, 60
2, 17400, Note_on_c, 0, 81, 60
2, 17400, Note_on_c, 0, 84, 52
2, 17408, Note_on_c, 0, 74, 0
2, 17428, Note_on_c, 0, 81, 0
2, 17430, Note_on_c, 0, 74, 29
2, 17431, Note_on_c, 0, 84, 0
2, 17433, Note_on_c, 0, 86, 0
2, 17460, Note_on_c, 0, 84, 52
2, 17460, Note_on_c, 0, 86, 52
2, 17460, Note_on_c, 0, 81, 52
2, 17467, Note_on_c, 0, 74, 0
2, 17490, Note_on_c, 0, 84, 0
2, 17490, Note_on_c, 0, 74, 52
2, 17491, Note_on_c, 0, 81, 0
2, 17496, Note_on_c, 0, 86, 0
2, 17520, Note_on_c, 0, 86, 45
2, 17520, Note_on_c, 0, 81, 52
2, 17520, Note_on_c, 0, 84, 52
2, 17523, Note_on_c, 0, 74, 0
2, 17550, Note_on_c, 0, 74, 39
2, 17552, Note_on_c, 0, 84, 0
2, 17553, Note_on_c, 0, 81, 0
2, 17555, Note_on_c, 0, 86, 0
2, 17580, Note_on_c, 0, 84, 39
2, 17580, Note_on_c, 0, 86, 39
2, 17580, Note_on_c, 0, 81, 39
2, 17585, Note_on_c, 0, 74, 0
2, 17606, Note_on_c, 0, 84, 0
2, 17606, Note_on_c, 0, 81, 0
2, 17608, Note_on_c, 0, 86, 0
2, 17610, Note_on_c, 0, 74, 52
2, 17629, Note_on_c, 0, 74, 0
2, 17640, Note_on_c, 0, 79, 52
2, 17640, Note_on_c, 0, 83, 52
2, 17667, Note_on_c, 0, 83, 0
2, 17670, Note_on_c, 0, 79, 0
2, 17670, Note_on_c, 0, 74, 25
2, 17700, Note_on_c, 0, 79, 52
2, 17700, Note_on_c, 0, 83, 52
2, 17704, Note_on_c, 0, 74, 0
2, 17729, Note_on_c, 0, 83, 0
2, 17730, Note_on_c, 0, 79, 0
2, 17730, Note_on_c, 0, 74, 60
2, 17751, Note_on_c, 0, 74, 0
2, 17760, Note_on_c, 0, 83, 39
2, 17760, Note_on_c, 0, 79, 52
2, 17790, Note_on_c, 0, 74, 60
2, 17792, Note_on_c, 0, 83, 0
2, 17793, Note_on_c, 0, 79, 0
2, 17809, Note_on_c, 0, 74, 0
2, 17820, Note_on_c, 0, 79, 39
2, 17820, Note_on_c, 0, 74, 52
2, 17847, Note_on_c, 0, 74, 0
2, 17850, Note_on_c, 0, 71, 45
2, 17853, Note_on_c, 0, 79, 0
2, 17867, Note_on_c, 0, 71, 0
2, 17880, Note_on_c, 0, 74, 60
2, 17880, Note_on_c, 0, 71, 60
2, 17905, Note_on_c, 0, 71, 0
2, 17906, Note_on_c, 0, 74, 0
2, 17910, Note_on_c, 0, 67, 34
2, 17940, Note_on_c, 0, 71, 60
2, 17940, Note_on_c, 0, 74, 52
2, 17946, Note_on_c, 0, 67, 0
2, 17963, Note_on_c, 0, 74, 0
2, 17963, Note_on_c, 0, 71, 0
2, 17970, Note_on_c, 0, 67, 60
2, 17991, Note_on_c, 0, 67, 0
2, 18000, Note_on_c, 0, 79, 52
2, 18000, Note_on_c, 0, 76, 45
2, 18022, Note_on_c, 0, 79, 0
2, 18025, Note_on_c, 0, 76, 0
2, 18030, Note_on_c, 0, 69, 60
2, 18060, Note_on_c, 0, 79, 60
2, 18060, Note_on_c, 0, 76, 45
2, 18067, Note_on_c, 0, 69, 0
2, 18088, Note_on_c, 0, 79, 0
2, 18090, Note_on_c, 0, 76, 0
2, 18090, Note_on_c, 0, 69, 45
2, 18120, Note_on_c, 0, 76, 60
2, 18120, Note_on_c, 0, 79, 60
2, 18125, Note_on_c, 0, 69, 0
2, 18149, Note_on_c, 0, 79, 0
2, 18150, Note_on_c, 0, 69, 52
2, 18152, Note_on_c, 0, 76, 0
2, 18180, Note_on_c, 0, 76, 39
2, 18180, Note_on_c, 0, 79, 39
2, 18186, Note_on_c, 0, 69, 0
2, 18210, Note_on_c, 0, 79, 0
2, 18210, Note_on_c, 0, 69, 52
2, 18213, Note_on_c, 0, 76, 0
2, 18240, Note_on_c, 0, 79, 60
2, 18240, Note_on_c, 0, 74, 78
2, 18244, Note_on_c, 0, 69, 0
2, 18270, Note_on_c, 0, 79, 0
2, 18270, Note_on_c, 0, 69, 52
2, 18272, Note_on_c, 0, 74, 0
2, 18300, Note_on_c, 0, 79, 45
2, 18300, Note_on_c, 0, 74, 52
2, 18305, Note_on_c, 0, 69, 0
2, 18330, Note_on_c, 0, 69, 60
2, 18332, Note_on_c, 0, 74, 0
2, 18333, Note_on_c, 0, 79, 0
2, 18348, Note_on_c, 0, 69, 0
2, 18360, Note_on_c, 0, 79, 88
2, 18360, Note_on_c, 0, 73, 100
2, 18360, Note_on_c, 0, 69, 78
2, 18399, Note_on_c, 0, 69, 0
2, 18400, Note_on_c, 0, 73, 0
2, 18403, Note_on_c, 0, 79, 0
2, 18635, Note_on_c, 0, 69, 60
2, 18650, Note_on_c, 0, 69, 0
2, 18655, Note_on_c, 0, 71, 60
2, 18670, Note_on_c, 0, 71, 0
2, 18675, Note_on_c, 0, 73, 60
2, 18685, Note_on_c, 0, 74, 60
2, 18690, Note_on_c, 0, 73, 0
2, 18695, Note_on_c, 0, 76, 60
2, 18700, Note_on_c, 0, 74, 0
2, 18705, Note_on_c, 0, 78, 60
2, 18710, Note_on_c, 0, 76, 0
2, 18720, Note_on_c, 0, 78, 0
2, 18720, Note_on_c, 0, 79, 78
2, 18721, Note_on_c, 0, 73, 100
2, 18722, Note_on_c, 0, 69, 78
2, 18766, Note_on_c, 0, 69, 0
2, 18768, Note_on_c, 0, 79, 0
2, 18769, Note_on_c, 0, 73, 0
2, 18974, Note_on_c, 0, 73, 78
2, 18986, Note_on_c, 0, 74, 78
2, 18989, Note_on_c, 0, 73, 0
2, 19001, Note_on_c, 0, 74, 0
2, 19002, Note_on_c, 0, 76, 78
2, 19015, Note_on_c, 0, 78, 78
2, 19017, Note_on_c, 0, 76, 0
2, 19030, Note_on_c, 0, 78, 0
2, 19030, Note_on_c, 0, 79, 78
2, 19045, Note_on_c, 0, 79, 0
2, 19049, Note_on_c, 0, 81, 78
2, 19060, Note_on_c, 0, 83, 78
2, 19064, Note_on_c, 0, 81, 0
2, 19075, Note_on_c, 0, 83, 0
2, 19080, Note_on_c, 0, 85, 88
2, 19080, Note_on_c, 0, 81, 60
2, 19109, Note_on_c, 0, 81, 0
2, 19109, Note_on_c, 0, 85, 0
2, 19110, Note_on_c, 0, 76, 60
2, 19110, Note_on_c, 0, 81, 60
2, 19139, Note_on_c, 0, 81, 0
2, 19139, Note_on_c, 0, 76, 0
2, 19140, Note_on_c, 0, 85, 60
2, 19140, Note_on_c, 0, 81, 60
2, 19169, Note_on_c, 0, 81, 0
2, 19169, Note_on_c, 0, 85, 0
2, 19170, Note_on_c, 0, 76, 60
2, 19199, Note_on_c, 0, 76, 0
2, 19200, Note_on_c, 0, 81, 60
2, 19200, Note_on_c, 0, 85, 60
2, 19229, Note_on_c, 0, 85, 0
2, 19229, Note_on_c, 0, 81, 0
2, 19230, Note_on_c, 0, 76, 60
2, 19259, Note_on_c, 0, 76, 0
2, 19260, Note_on_c, 0, 81, 60
2, 19260, Note_on_c, 0, 85, 60
2, 19289, Note_on_c, 0, 85, 0
2, 19289, Note_on_c, 0, 81, 0
2, 19290, Note_on_c, 0, 76, 60
2, 19319, Note_on_c, 0, 76, 0
2, 19320, Note_on_c, 0, 85, 60
2, 19320, Note_on_c, 0, 81, 60
2, 19349, Note_on_c, 0, 81, 0
2, 19349, Note_on_c, 0, 85, 0
2, 19350, Note_on_c, 0, 76, 60
2, 19379, Note_on_c, 0, 76, 0
2, 19380, Note_on_c, 0, 85, 60
2, 19380, Note_on_c, 0, 81, 60
2, 19409, Note_on_c, 0, 81, 0
2, 19409, Note_on_c, 0, 85, 0
2, 19410, Note_on_c, 0, 76, 60
2, 19439, Note_on_c, 0, 76, 0
2, 19440, Note_on_c, 0, 86, 60
2, 19440, Note_on_c, 0, 81, 60
2, 19470, Note_on_c, 0, 78, 39
2, 19471, Note_on_c, 0, 81, 0
2, 19472, Note_on_c, 0, 86, 0
2, 19498, Note_on_c, 0, 78, 0
2, 19500, Note_on_c, 0, 81, 39
2, 19500, Note_on_c, 0, 86, 34
2, 19525, Note_on_c, 0, 86, 0
2, 19526, Note_on_c, 0, 81, 0
2, 19530, Note_on_c, 0, 78, 52
2, 19541, Note_on_c, 0, 78, 0
2, 19560, Note_on_c, 0, 78, 78
2, 19560, Note_on_c, 0, 81, 52
2, 19590, Note_on_c, 0, 81, 0
2, 19590, Note_on_c, 0, 78, 0
2, 19590, Note_on_c, 0, 74, 7
2, 19620, Note_on_c, 0, 78, 52
2, 19620, Note_on_c, 0, 81, 34
2, 19622, Note_on_c, 0, 74, 0
2, 19648, Note_on_c, 0, 81, 0
2, 19649, Note_on_c, 0, 78, 0
2, 19650, Note_on_c, 0, 74, 52
2, 19665, Note_on_c, 0, 74, 0
2, 19680, Note_on_c, 0, 78, 60
2, 19680, Note_on_c, 0, 74, 39
2, 19701, Note_on_c, 0, 74, 0
2, 19710, Note_on_c, 0, 69, 52
2, 19713, Note_on_c, 0, 78, 0
2, 19740, Note_on_c, 0, 78, 52
2, 19740, Note_on_c, 0, 74, 45
2, 19742, Note_on_c, 0, 69, 0
2, 19761, Note_on_c, 0, 74, 0
2, 19765, Note_on_c, 0, 78, 0
2, 19770, Note_on_c, 0, 69, 29
2, 19783, Note_on_c, 0, 69, 0
2, 19800, Note_on_c, 0, 74, 68
2, 19800, Note_on_c, 0, 66, 88
2, 19800, Note_on_c, 0, 69, 60
2, 19875, Note_on_c, 0, 69, 0
2, 19875, Note_on_c, 0, 66, 0
2, 19879, Note_on_c, 0, 74, 0
2, 20220, Note_on_c, 0, 71, 60
2, 20220, Note_on_c, 0, 74, 68
2, 20231, Note_on_c, 0, 71, 0
2, 20232, Note_on_c, 0, 74, 0
2, 20280, Note_on_c, 0, 76, 60
2, 20280, Note_on_c, 0, 84, 68
2, 20315, Note_on_c, 0, 76, 0
2, 20319, Note_on_c, 0, 84, 0
2, 20340, Note_on_c, 0, 74, 68
2, 20340, Note_on_c, 0, 83, 68
2, 20354, Note_on_c, 0, 83, 0
2, 20359, Note_on_c, 0, 74, 0
2, 20400, Note_on_c, 0, 81, 60
2, 20400, Note_on_c, 0, 72, 52
2, 20416, Note_on_c, 0, 72, 0
2, 20416, Note_on_c, 0, 81, 0
2, 20460, Note_on_c, 0, 79, 60
2, 20460, Note_on_c, 0, 71, 60
2, 20475, Note_on_c, 0, 71, 0
2, 20482, Note_on_c, 0, 79, 0
2, 20520, Note_on_c, 0, 78, 68
2, 20520, Note_on_c, 0, 69, 60
2, 20535, Note_on_c, 0, 78, 0
2, 20537, Note_on_c, 0, 69, 0
2, 20580, Note_on_c, 0, 67, 39
2, 20580, Note_on_c, 0, 76, 29
2, 20594, Note_on_c, 0, 67, 0
2, 20597, Note_on_c, 0, 76, 0
2, 20640, Note_on_c, 0, 66, 78
2, 20640, Note_on_c, 0, 74, 52
2, 20654, Note_on_c, 0, 74, 0
2, 20660, Note_on_c, 0, 66, 0
2, 20700, Note_on_c, 0, 72, 45
2, 20700, Note_on_c, 0, 64, 45
2, 20715, Note_on_c, 0, 72, 0
2, 20717, Note_on_c, 0, 64, 0
2, 20760, Note_on_c, 0, 71, 60
2, 20760, Note_on_c, 0, 62, 45
2, 20777, Note_on_c, 0, 62, 0
2, 20782, Note_on_c, 0, 71, 0
2, 20820, Note_on_c, 0, 69, 52
2, 20820, Note_on_c, 0, 60, 39
2, 20837, Note_on_c, 0, 60, 0
2, 20850, Note_on_c, 0, 69, 0
2, 20940, Note_on_c, 0, 74, 52
2, 20959, Note_on_c, 0, 74, 0
2, 21000, Note_on_c, 0, 84, 60
2, 21000, Note_on_c, 0, 76, 52
2, 21022, Note_on_c, 0, 76, 0
2, 21022, Note_on_c, 0, 84, 0
2, 21060, Note_on_c, 0, 83, 52
2, 21060, Note_on_c, 0, 74, 52
2, 21076, Note_on_c, 0, 83, 0
2, 21078, Note_on_c, 0, 74, 0
2, 21120, Note_on_c, 0, 81, 45
2, 21120, Note_on_c, 0, 72, 45
2, 21138, Note_on_c, 0, 81, 0
2, 21139, Note_on_c, 0, 72, 0
2, 21180, Note_on_c, 0, 79, 52
2, 21201, Note_on_c, 0, 79, 0
2, 21240, Note_on_c, 0, 69, 34
2, 21240, Note_on_c, 0, 78, 78
2, 21262, Note_on_c, 0, 69, 0
2, 21265, Note_on_c, 0, 78, 0
2, 21300, Note_on_c, 0, 72, 52
2, 21300, Note_on_c, 0, 76, 52
2, 21317, Note_on_c, 0, 76, 0
2, 21321, Note_on_c, 0, 72, 0
2, 21360, Note_on_c, 0, 74, 68
2, 21360, Note_on_c, 0, 71, 52
2, 21376, Note_on_c, 0, 74, 0
2, 21378, Note_on_c, 0, 71, 0
2, 21420, Note_on_c, 0, 72, 60
2, 21420, Note_on_c, 0, 69, 52
2, 21432, Note_on_c, 0, 72, 0
2, 21436, Note_on_c, 0, 69, 0
2, 21480, Note_on_c, 0, 71, 45
2, 21480, Note_on_c, 0, 67, 39
2, 21494, Note_on_c, 0, 67, 0
2, 21497, Note_on_c, 0, 71, 0
2, 21540, Note_on_c, 0, 66, 60
2, 21540, Note_on_c, 0, 69, 45
2, 21554, Note_on_c, 0, 69, 0
2, 21554, Note_on_c, 0, 66, 0
2, 21660, Note_on_c, 0, 74, 60
2, 21660, Note_on_c, 0, 71, 39
2, 21667, Note_on_c, 0, 71, 0
2, 21670, Note_on_c, 0, 74, 0
2, 21720, Note_on_c, 0, 76, 60
2, 21720, Note_on_c, 0, 84, 68
2, 21739, Note_on_c, 0, 84, 0
2, 21740, Note_on_c, 0, 76, 0
2, 21780, Note_on_c, 0, 74, 52
2, 21780, Note_on_c, 0, 83, 52
2, 21794, Note_on_c, 0, 83, 0
2, 21797, Note_on_c, 0, 74, 0
2, 21840, Note_on_c, 0, 81, 52
2, 21840, Note_on_c, 0, 72, 45
2, 21862, Note_on_c, 0, 72, 0
2, 21866, Note_on_c, 0, 81, 0
2, 21900, Note_on_c, 0, 79, 60
2, 21916, Note_on_c, 0, 79, 0
2, 21960, Note_on_c, 0, 78, 68
2, 21960, Note_on_c, 0, 69, 60
2, 21981, Note_on_c, 0, 78, 0
2, 21987, Note_on_c, 0, 69, 0
2, 22020, Note_on_c, 0, 76, 39
2, 22020, Note_on_c, 0, 67, 45
2, 22039, Note_on_c, 0, 67, 0
2, 22041, Note_on_c, 0, 76, 0
2, 22080, Note_on_c, 0, 66, 68
2, 22080, Note_on_c, 0, 74, 52
2, 22094, Note_on_c, 0, 74, 0
2, 22099, Note_on_c, 0, 66, 0
2, 22140, Note_on_c, 0, 72, 45
2, 22140, Note_on_c, 0, 64, 45
2, 22157, Note_on_c, 0, 72, 0
2, 22159, Note_on_c, 0, 64, 0
2, 22200, Note_on_c, 0, 71, 45
2, 22200, Note_on_c, 0, 62, 39
2, 22217, Note_on_c, 0, 62, 0
2, 22218, Note_on_c, 0, 71, 0
2, 22260, Note_on_c, 0, 60, 52
2, 22260, Note_on_c, 0, 69, 52
2, 22273, Note_on_c, 0, 60, 0
2, 22277, Note_on_c, 0, 69, 0
2, 22380, Note_on_c, 0, 74, 52
2, 22408, Note_on_c, 0, 74, 0
2, 22440, Note_on_c, 0, 84, 60
2, 22440, Note_on_c, 0, 76, 60
2, 22459, Note_on_c, 0, 76, 0
2, 22459, Note_on_c, 0, 84, 0
2, 22500, Note_on_c, 0, 74, 52
2, 22500, Note_on_c, 0, 83, 52
2, 22516, Note_on_c, 0, 83, 0
2, 22519, Note_on_c, 0, 74, 0
2, 22560, Note_on_c, 0, 81, 52
2, 22560, Note_on_c, 0, 72, 52
2, 22578, Note_on_c, 0, 81, 0
2, 22583, Note_on_c, 0, 72, 0
2, 22620, Note_on_c, 0, 79, 52
2, 22643, Note_on_c, 0, 79, 0
2, 22680, Note_on_c, 0, 78, 68
2, 22680, Note_on_c, 0, 69, 60
2, 22699, Note_on_c, 0, 69, 0
2, 22709, Note_on_c, 0, 78, 0
2, 22740, Note_on_c, 0, 76, 45
2, 22740, Note_on_c, 0, 72, 45
2, 22756, Note_on_c, 0, 76, 0
2, 22761, Note_on_c, 0, 72, 0
2, 22800, Note_on_c, 0, 74, 52
2, 22800, Note_on_c, 0, 71, 34
2, 22816, Note_on_c, 0, 71, 0
2, 22818, Note_on_c, 0, 74, 0
2, 22860, Note_on_c, 0, 69, 52
2, 22860, Note_on_c, 0, 72, 52
2, 22870, Note_on_c, 0, 72, 0
2, 22879, Note_on_c, 0, 69, 0
2, 22920, Note_on_c, 0, 67, 52
2, 22920, Note_on_c, 0, 71, 52
2, 22936, Note_on_c, 0, 71, 0
2, 22937, Note_on_c, 0, 67, 0
2, 22980, Note_on_c, 0, 66, 68
2, 22980, Note_on_c, 0, 69, 39
2, 22995, Note_on_c, 0, 69, 0
2, 22999, Note_on_c, 0, 66, 0
2, 23100, Note_on_c, 0, 74, 52
2, 23100, Note_on_c, 0, 71, 39
2, 23118, Note_on_c, 0, 74, 0
2, 23121, Note_on_c, 0, 71, 0
2, 23160, Note_on_c, 0, 71, 39
2, 23160, Note_on_c, 0, 74, 45
2, 23181, Note_on_c, 0, 74, 0
2, 23181, Note_on_c, 0, 71, 0
2, 23220, Note_on_c, 0, 71, 45
2, 23220, Note_on_c, 0, 74, 52
2, 23243, Note_on_c, 0, 74, 0
2, 23243, Note_on_c, 0, 71, 0
2, 23280, Note_on_c, 0, 71, 52
2, 23280, Note_on_c, 0, 74, 60
2, 23301, Note_on_c, 0, 74, 0
2, 23303, Note_on_c, 0, 71, 0
2, 23340, Note_on_c, 0, 71, 52
2, 23340, Note_on_c, 0, 74, 39
2, 23356, Note_on_c, 0, 74, 0
2, 23359, Note_on_c, 0, 71, 0
2, 23400, Note_on_c, 0, 71, 60
2, 23400, Note_on_c, 0, 74, 52
2, 23469, Note_on_c, 0, 71, 0
2, 23484, Note_on_c, 0, 74, 0
2, 23490, Note_on_c, 0, 71, 29
2, 23519, Note_on_c, 0, 71, 0
2, 23520, Note_on_c, 0, 72, 52
2, 23520, Note_on_c, 0, 76, 52
2, 23689, Note_on_c, 0, 76, 0
2, 23693, Note_on_c, 0, 72, 0
2, 23700, Note_on_c, 0, 71, 25
2, 23700, Note_on_c, 0, 74, 20
2, 23717, Note_on_c, 0, 74, 0
2, 23725, Note_on_c, 0, 71, 0
2, 23820, Note_on_c, 0, 72, 34
2, 23820, Note_on_c, 0, 69, 25
2, 23839, Note_on_c, 0, 72, 0
2, 23841, Note_on_c, 0, 69, 0
2, 23880, Note_on_c, 0, 72, 39
2, 23880, Note_on_c, 0, 69, 39
2, 23902, Note_on_c, 0, 69, 0
2, 23903, Note_on_c, 0, 72, 0
2, 23940, Note_on_c, 0, 72, 39
2, 23940, Note_on_c, 0, 69, 39
2, 23960, Note_on_c, 0, 72, 0
2, 23963, Note_on_c, 0, 69, 0
2, 24000, Note_on_c, 0, 69, 52
2, 24000, Note_on_c, 0, 72, 45
2, 24022, Note_on_c, 0, 69, 0
2, 24027, Note_on_c, 0, 72, 0
2, 24060, Note_on_c, 0, 69, 39
2, 24060, Note_on_c, 0, 72, 34
2, 24079, Note_on_c, 0, 69, 0
2, 24083, Note_on_c, 0, 72, 0
2, 24120, Note_on_c, 0, 69, 52
2, 24120, Note_on_c, 0, 72, 45
2, 24184, Note_on_c, 0, 69, 0
2, 24202, Note_on_c, 0, 72, 0
2, 24210, Note_on_c, 0, 66, 45
2, 24210, Note_on_c, 0, 69, 25
2, 24220, Note_on_c, 0, 69, 0
2, 24226, Note_on_c, 0, 66, 0
2, 24240, Note_on_c, 0, 74, 68
2, 24240, Note_on_c, 0, 71, 60
2, 24410, Note_on_c, 0, 74, 0
2, 24413, Note_on_c, 0, 71, 0
2, 24420, Note_on_c, 0, 72, 34
2, 24420, Note_on_c, 0, 69, 29
2, 24441, Note_on_c, 0, 69, 0
2, 24445, Note_on_c, 0, 72, 0
2, 24600, Note_on_c, 0, 67, 45
2, 24654, Note_on_c, 0, 67, 0
2, 24660, Note_on_c, 0, 66, 45
2, 24713, Note_on_c, 0, 66, 0
2, 24720, Note_on_c, 0, 67, 45
2, 24743, Note_on_c, 0, 67, 0
2, 24780, Note_on_c, 0, 67, 52
2, 24789, Note_on_c, 0, 67, 0
2, 24840, Note_on_c, 0, 59, 52
2, 24840, Note_on_c, 0, 67, 52
2, 24891, Note_on_c, 0, 59, 0
2, 24900, Note_on_c, 0, 62, 39
2, 24907, Note_on_c, 0, 67, 0
2, 24918, Note_on_c, 0, 62, 0
2, 24960, Note_on_c, 0, 71, 60
2, 25020, Note_on_c, 0, 70, 52
2, 25022, Note_on_c, 0, 71, 0
2, 25074, Note_on_c, 0, 70, 0
2, 25080, Note_on_c, 0, 71, 45
2, 25101, Note_on_c, 0, 71, 0
2, 25140, Note_on_c, 0, 71, 78
2, 25161, Note_on_c, 0, 71, 0
2, 25200, Note_on_c, 0, 71, 78
2, 25200, Note_on_c, 0, 62, 78
2, 25259, Note_on_c, 0, 71, 0
2, 25260, Note_on_c, 0, 67, 45
2, 25267, Note_on_c, 0, 62, 0
2, 25285, Note_on_c, 0, 67, 0
2, 25320, Note_on_c, 0, 74, 68
2, 25380, Note_on_c, 0, 73, 60
2, 25383, Note_on_c, 0, 74, 0
2, 25440, Note_on_c, 0, 74, 60
2, 25443, Note_on_c, 0, 73, 0
2, 25459, Note_on_c, 0, 74, 0
2, 25500, Note_on_c, 0, 74, 60
2, 25528, Note_on_c, 0, 74, 0
2, 25560, Note_on_c, 0, 76, 60
2, 25560, Note_on_c, 0, 72, 60
2, 25583, Note_on_c, 0, 72, 0
2, 25603, Note_on_c, 0, 76, 0
2, 25620, Note_on_c, 0, 72, 45
2, 25620, Note_on_c, 0, 69, 45
2, 25641, Note_on_c, 0, 72, 0
2, 25643, Note_on_c, 0, 69, 0
2, 25680, Note_on_c, 0, 71, 60
2, 25680, Note_on_c, 0, 67, 45
2, 25704, Note_on_c, 0, 71, 0
2, 25705, Note_on_c, 0, 67, 0
2, 25740, Note_on_c, 0, 74, 45
2, 25740, Note_on_c, 0, 71, 52
2, 25764, Note_on_c, 0, 71, 0
2, 25766, Note_on_c, 0, 74, 0
2, 25800, Note_on_c, 0, 69, 52
2, 25800, Note_on_c, 0, 72, 45
2, 25814, Note_on_c, 0, 72, 0
2, 25815, Note_on_c, 0, 69, 0
2, 25860, Note_on_c, 0, 69, 25
2, 25860, Note_on_c, 0, 66, 45
2, 25868, Note_on_c, 0, 69, 0
2, 25869, Note_on_c, 0, 66, 0
2, 25920, Note_on_c, 0, 67, 60
2, 25920, Note_on_c, 0, 59, 60
2, 25994, Note_on_c, 0, 59, 0
2, 26005, Note_on_c, 0, 67, 0
2, 26040, Note_on_c, 0, 67, 60
2, 26096, Note_on_c, 0, 67, 0
2, 26100, Note_on_c, 0, 66, 60
2, 26154, Note_on_c, 0, 66, 0
2, 26160, Note_on_c, 0, 67, 60
2, 26177, Note_on_c, 0, 67, 0
2, 26220, Note_on_c, 0, 67, 78
2, 26232, Note_on_c, 0, 67, 0
2, 26280, Note_on_c, 0, 67, 45
2, 26280, Note_on_c, 0, 59, 45
2, 26340, Note_on_c, 0, 62, 45
2, 26349, Note_on_c, 0, 67, 0
2, 26355, Note_on_c, 0, 59, 0
2, 26367, Note_on_c, 0, 62, 0
2, 26400, Note_on_c, 0, 71, 60
2, 26457, Note_on_c, 0, 71, 0
2, 26460, Note_on_c, 0, 70, 45
2, 26520, Note_on_c, 0, 71, 68
2, 26525, Note_on_c, 0, 70, 0
2, 26534, Note_on_c, 0, 71, 0
2, 26580, Note_on_c, 0, 71, 88
2, 26601, Note_on_c, 0, 71, 0
2, 26640, Note_on_c, 0, 71, 52
2, 26640, Note_on_c, 0, 62, 52
2, 26698, Note_on_c, 0, 62, 0
2, 26700, Note_on_c, 0, 67, 52
2, 26701, Note_on_c, 0, 71, 0
2, 26720, Note_on_c, 0, 67, 0
2, 26760, Note_on_c, 0, 74, 68
2, 26820, Note_on_c, 0, 73, 68
2, 26823, Note_on_c, 0, 74, 0
2, 26880, Note_on_c, 0, 74, 60
2, 26884, Note_on_c, 0, 73, 0
2, 26905, Note_on_c, 0, 74, 0
2, 26940, Note_on_c, 0, 74, 60
2, 26955, Note_on_c, 0, 74, 0
2, 27000, Note_on_c, 0, 76, 60
2, 27000, Note_on_c, 0, 72, 68
2, 27015, Note_on_c, 0, 72, 0
2, 27025, Note_on_c, 0, 76, 0
2, 27060, Note_on_c, 0, 72, 45
2, 27060, Note_on_c, 0, 69, 45
2, 27073, Note_on_c, 0, 72, 0
2, 27076, Note_on_c, 0, 69, 0
2, 27120, Note_on_c, 0, 71, 52
2, 27120, Note_on_c, 0, 67, 39
2, 27135, Note_on_c, 0, 71, 0
2, 27136, Note_on_c, 0, 67, 0
2, 27180, Note_on_c, 0, 71, 45
2, 27180, Note_on_c, 0, 74, 45
2, 27199, Note_on_c, 0, 74, 0
2, 27201, Note_on_c, 0, 71, 0
2, 27240, Note_on_c, 0, 72, 29
2, 27240, Note_on_c, 0, 69, 34
2, 27256, Note_on_c, 0, 69, 0
2, 27256, Note_on_c, 0, 72, 0
2, 27300, Note_on_c, 0, 66, 52
2, 27300, Note_on_c, 0, 69, 29
2, 27316, Note_on_c, 0, 69, 0
2, 27316, Note_on_c, 0, 66, 0
2, 27360, Note_on_c, 0, 67, 78
2, 27377, Note_on_c, 0, 67, 0
2, 27420, Note_on_c, 0, 55, 52
2, 27449, Note_on_c, 0, 55, 0
2, 27450, Note_on_c, 0, 50, 60
2, 27465, Note_on_c, 0, 50, 0
2, 27480, Note_on_c, 0, 58, 68
2, 27497, Note_on_c, 0, 58, 0
2, 27510, Note_on_c, 0, 55, 68
2, 27540, Note_on_c, 0, 55, 0
2, 27540, Note_on_c, 0, 62, 60
2, 27566, Note_on_c, 0, 62, 0
2, 27570, Note_on_c, 0, 58, 45
2, 27575, Note_on_c, 0, 58, 0
2, 27600, Note_on_c, 0, 67, 52
2, 27626, Note_on_c, 0, 67, 0
2, 27630, Note_on_c, 0, 62, 45
2, 27653, Note_on_c, 0, 62, 0
2, 27660, Note_on_c, 0, 70, 68
2, 27689, Note_on_c, 0, 70, 0
2, 27690, Note_on_c, 0, 67, 45
2, 27695, Note_on_c, 0, 67, 0
2, 27720, Note_on_c, 0, 67, 78
2, 27720, Note_on_c, 0, 74, 88
2, 27720, Note_on_c, 0, 70, 78
2, 27739, Note_on_c, 0, 67, 0
2, 27771, Note_on_c, 0, 70, 0
2, 27776, Note_on_c, 0, 74, 0
2, 27780, Note_on_c, 0, 62, 45
2, 27840, Note_on_c, 0, 72, 68
2, 27840, Note_on_c, 0, 69, 68
2, 27840, Note_on_c, 0, 67, 60
2, 27846, Note_on_c, 0, 62, 0
2, 27897, Note_on_c, 0, 67, 0
2, 27900, Note_on_c, 0, 69, 0
2, 27900, Note_on_c, 0, 62, 45
2, 27906, Note_on_c, 0, 72, 0
2, 27960, Note_on_c, 0, 62, 0
2, 27960, Note_on_c, 0, 70, 78
2, 27960, Note_on_c, 0, 67, 68
2, 28016, Note_on_c, 0, 67, 0
2, 28020, Note_on_c, 0, 62, 52
2, 28022, Note_on_c, 0, 70, 0
2, 28038, Note_on_c, 0, 62, 0
2, 28080, Note_on_c, 0, 63, 88
2, 28080, Note_on_c, 0, 69, 88
2, 28080, Note_on_c, 0, 67, 88
2, 28093, Note_on_c, 0, 67, 0
2, 28098, Note_on_c, 0, 69, 0
2, 28099, Note_on_c, 0, 63, 0
2, 28140, Note_on_c, 0, 57, 60
2, 28168, Note_on_c, 0, 57, 0
2, 28170, Note_on_c, 0, 55, 52
2, 28190, Note_on_c, 0, 55, 0
2, 28200, Note_on_c, 0, 60, 52
2, 28218, Note_on_c, 0, 60, 0
2, 28230, Note_on_c, 0, 57, 25
2, 28252, Note_on_c, 0, 57, 0
2, 28260, Note_on_c, 0, 63, 52
2, 28279, Note_on_c, 0, 63, 0
2, 28290, Note_on_c, 0, 60, 34
2, 28312, Note_on_c, 0, 60, 0
2, 28320, Note_on_c, 0, 69, 29
2, 28349, Note_on_c, 0, 69, 0
2, 28350, Note_on_c, 0, 67, 60
2, 28375, Note_on_c, 0, 67, 0
2, 28380, Note_on_c, 0, 72, 52
2, 28410, Note_on_c, 0, 69, 39
2, 28413, Note_on_c, 0, 72, 0
2, 28415, Note_on_c, 0, 69, 0
2, 28440, Note_on_c, 0, 72, 60
2, 28440, Note_on_c, 0, 75, 88
2, 28498, Note_on_c, 0, 72, 0
2, 28500, Note_on_c, 0, 67, 60
2, 28506, Note_on_c, 0, 75, 0
2, 28555, Note_on_c, 0, 67, 0
2, 28560, Note_on_c, 0, 70, 78
2, 28560, Note_on_c, 0, 74, 68
2, 28620, Note_on_c, 0, 67, 39
2, 28628, Note_on_c, 0, 74, 0
2, 28632, Note_on_c, 0, 70, 0
2, 28674, Note_on_c, 0, 67, 0
2, 28680, Note_on_c, 0, 72, 39
2, 28680, Note_on_c, 0, 69, 45
2, 28740, Note_on_c, 0, 67, 45
2, 28741, Note_on_c, 0, 69, 0
2, 28747, Note_on_c, 0, 72, 0
2, 28753, Note_on_c, 0, 67, 0
2, 28800, Note_on_c, 0, 71, 78
2, 28800, Note_on_c, 0, 67, 88
2, 28800, Note_on_c, 0, 65, 78
2, 28813, Note_on_c, 0, 67, 0
2, 28814, Note_on_c, 0, 65, 0
2, 28816, Note_on_c, 0, 71, 0
2, 28860, Note_on_c, 0, 59, 45
2, 28889, Note_on_c, 0, 59, 0
2, 28890, Note_on_c, 0, 55, 52
2, 28920, Note_on_c, 0, 55, 0
2, 28920, Note_on_c, 0, 62, 60
2, 28941, Note_on_c, 0, 62, 0
2, 28950, Note_on_c, 0, 59, 18
2, 28973, Note_on_c, 0, 59, 0
2, 28980, Note_on_c, 0, 65, 78
2, 29003, Note_on_c, 0, 65, 0
2, 29010, Note_on_c, 0, 62, 60
2, 29030, Note_on_c, 0, 62, 0
2, 29040, Note_on_c, 0, 71, 52
2, 29067, Note_on_c, 0, 71, 0
2, 29070, Note_on_c, 0, 65, 52
2, 29100, Note_on_c, 0, 74, 52
2, 29103, Note_on_c, 0, 65, 0
2, 29128, Note_on_c, 0, 74, 0
2, 29130, Note_on_c, 0, 71, 52
2, 29145, Note_on_c, 0, 71, 0
2, 29160, Note_on_c, 0, 77, 68
2, 29160, Note_on_c, 0, 74, 68
2, 29208, Note_on_c, 0, 74, 0
2, 29216, Note_on_c, 0, 77, 0
2, 29220, Note_on_c, 0, 67, 52
2, 29280, Note_on_c, 0, 75, 78
2, 29280, Note_on_c, 0, 72, 68
2, 29285, Note_on_c, 0, 67, 0
2, 29340, Note_on_c, 0, 67, 52
2, 29341, Note_on_c, 0, 72, 0
2, 29346, Note_on_c, 0, 75, 0
2, 29400, Note_on_c, 0, 71, 60
2, 29400, Note_on_c, 0, 74, 60
2, 29405, Note_on_c, 0, 67, 0
2, 29456, Note_on_c, 0, 71, 0
2, 29460, Note_on_c, 0, 67, 39
2, 29462, Note_on_c, 0, 74, 0
2, 29483, Note_on_c, 0, 67, 0
2, 29520, Note_on_c, 0, 67, 60
2, 29520, Note_on_c, 0, 72, 60
2, 29543, Note_on_c, 0, 67, 0
2, 29547, Note_on_c, 0, 72, 0
2, 29580, Note_on_c, 0, 67, 78
2, 29580, Note_on_c, 0, 79, 68
2, 29580, Note_on_c, 0, 72, 78
2, 29663, Note_on_c, 0, 72, 0
2, 29664, Note_on_c, 0, 67, 0
2, 29666, Note_on_c, 0, 79, 0
2, 29700, Note_on_c, 0, 67, 78
2, 29700, Note_on_c, 0, 79, 68
2, 29700, Note_on_c, 0, 72, 78
2, 29778, Note_on_c, 0, 67, 0
2, 29781, Note_on_c, 0, 72, 0
2, 29784, Note_on_c, 0, 79, 0
2, 29820, Note_on_c, 0, 67, 68
2, 29820, Note_on_c, 0, 72, 68
2, 29820, Note_on_c, 0, 79, 52
2, 29830, Note_on_c, 0, 67, 0
2, 29831, Note_on_c, 0, 72, 0
2, 29838, Note_on_c, 0, 79, 0
2, 29880, Note_on_c, 0, 73, 78
2, 29880, Note_on_c, 0, 81, 52
2, 29906, Note_on_c, 0, 81, 0
2, 29910, Note_on_c, 0, 79, 39
2, 29939, Note_on_c, 0, 79, 0
2, 29940, Note_on_c, 0, 78, 34
2, 29970, Note_on_c, 0, 78, 0
2, 29970, Note_on_c, 0, 79, 45
2, 29999, Note_on_c, 0, 79, 0
2, 30000, Note_on_c, 0, 81, 52
2, 30030, Note_on_c, 0, 81, 0
2, 30030, Note_on_c, 0, 79, 39
2, 30060, Note_on_c, 0, 78, 52
2, 30063, Note_on_c, 0, 79, 0
2, 30090, Note_on_c, 0, 79, 39
2, 30094, Note_on_c, 0, 78, 0
2, 30119, Note_on_c, 0, 79, 0
2, 30120, Note_on_c, 0, 81, 39
2, 30150, Note_on_c, 0, 79, 34
2, 30152, Note_on_c, 0, 81, 0
2, 30180, Note_on_c, 0, 78, 39
2, 30187, Note_on_c, 0, 79, 0
2, 30208, Note_on_c, 0, 73, 0
2, 30210, Note_on_c, 0, 79, 52
2, 30214, Note_on_c, 0, 78, 0
2, 30221, Note_on_c, 0, 79, 0
2, 30240, Note_on_c, 0, 74, 60
2, 30240, Note_on_c, 0, 78, 60
2, 30270, Note_on_c, 0, 78, 0
2, 30270, Note_on_c, 0, 74, 0
2, 30270, Note_on_c, 0, 69, 39
2, 30300, Note_on_c, 0, 78, 60
2, 30300, Note_on_c, 0, 74, 60
2, 30312, Note_on_c, 0, 69, 0
2, 30325, Note_on_c, 0, 74, 0
2, 30330, Note_on_c, 0, 69, 45
2, 30350, Note_on_c, 0, 78, 0
2, 30355, Note_on_c, 0, 69, 0
2, 30360, Note_on_c, 0, 79, 60
2, 30360, Note_on_c, 0, 74, 78
2, 30388, Note_on_c, 0, 74, 0
2, 30390, Note_on_c, 0, 70, 52
2, 30394, Note_on_c, 0, 79, 0
2, 30420, Note_on_c, 0, 74, 60
2, 30420, Note_on_c, 0, 79, 45
2, 30425, Note_on_c, 0, 70, 0
2, 30443, Note_on_c, 0, 79, 0
2, 30447, Note_on_c, 0, 74, 0
2, 30450, Note_on_c, 0, 70, 52
2, 30466, Note_on_c, 0, 70, 0
2, 30480, Note_on_c, 0, 82, 88
2, 30480, Note_on_c, 0, 79, 68
2, 30509, Note_on_c, 0, 82, 0
2, 30510, Note_on_c, 0, 74, 52
2, 30511, Note_on_c, 0, 79, 0
2, 30540, Note_on_c, 0, 82, 52
2, 30540, Note_on_c, 0, 79, 34
2, 30547, Note_on_c, 0, 74, 0
2, 30567, Note_on_c, 0, 79, 0
2, 30570, Note_on_c, 0, 82, 0
2, 30570, Note_on_c, 0, 74, 34
2, 30591, Note_on_c, 0, 74, 0
2, 30600, Note_on_c, 0, 86, 68
2, 30600, Note_on_c, 0, 78, 78
2, 30600, Note_on_c, 0, 74, 78
2, 30600, Note_on_c, 0, 81, 78
2, 30658, Note_on_c, 0, 81, 0
2, 30661, Note_on_c, 0, 86, 0
2, 30663, Note_on_c, 0, 78, 0
2, 30666, Note_on_c, 0, 74, 0
2, 30720, Note_on_c, 0, 74, 78
2, 30720, Note_on_c, 0, 62, 78
2, 30806, Note_on_c, 0, 62, 0
2, 30807, Note_on_c, 0, 74, 0
2, 30840, Note_on_c, 0, 62, 60
2, 30840, Note_on_c, 0, 74, 68
2, 30902, Note_on_c, 0, 74, 0
2, 30923, Note_on_c, 0, 62, 0
2, 30960, Note_on_c, 0, 74, 68
2, 30960, Note_on_c, 0, 70, 68
2, 31011, Note_on_c, 0, 74, 0
2, 31014, Note_on_c, 0, 70, 0
2, 31020, Note_on_c, 0, 62, 34
2, 31080, Note_on_c, 0, 72, 52
2, 31080, Note_on_c, 0, 69, 60
2, 31093, Note_on_c, 0, 62, 0
2, 31134, Note_on_c, 0, 69, 0
2, 31134, Note_on_c, 0, 72, 0
2, 31140, Note_on_c, 0, 62, 39
2, 31200, Note_on_c, 0, 70, 60
2, 31200, Note_on_c, 0, 67, 52
2, 31206, Note_on_c, 0, 62, 0
2, 31257, Note_on_c, 0, 67, 0
2, 31258, Note_on_c, 0, 70, 0
2, 31260, Note_on_c, 0, 62, 39
2, 31320, Note_on_c, 0, 62, 0
2, 31320, Note_on_c, 0, 66, 88
2, 31320, Note_on_c, 0, 69, 60
2, 31378, Note_on_c, 0, 66, 0
2, 31380, Note_on_c, 0, 62, 52
2, 31382, Note_on_c, 0, 69, 0
2, 31440, Note_on_c, 0, 70, 68
2, 31440, Note_on_c, 0, 67, 52
2, 31447, Note_on_c, 0, 62, 0
2, 31499, Note_on_c, 0, 67, 0
2, 31500, Note_on_c, 0, 62, 39
2, 31502, Note_on_c, 0, 70, 0
2, 31560, Note_on_c, 0, 72, 60
2, 31560, Note_on_c, 0, 69, 52
2, 31561, Note_on_c, 0, 62, 0
2, 31609, Note_on_c, 0, 72, 0
2, 31616, Note_on_c, 0, 69, 0
2, 31620, Note_on_c, 0, 62, 45
2, 31673, Note_on_c, 0, 62, 0
2, 31680, Note_on_c, 0, 70, 78
2, 31680, Note_on_c, 0, 74, 60
2, 31727, Note_on_c, 0, 74, 0
2, 31740, Note_on_c, 0, 69, 52
2, 31740, Note_on_c, 0, 72, 39
2, 31742, Note_on_c, 0, 70, 0
2, 31764, Note_on_c, 0, 69, 0
2, 31768, Note_on_c, 0, 72, 0
2, 31800, Note_on_c, 0, 69, 60
2, 31800, Note_on_c, 0, 72, 45
2, 31859, Note_on_c, 0, 72, 0
2, 31860, Note_on_c, 0, 70, 60
2, 31860, Note_on_c, 0, 67, 39
2, 31864, Note_on_c, 0, 69, 0
2, 31874, Note_on_c, 0, 70, 0
2, 31880, Note_on_c, 0, 67, 0
2, 31920, Note_on_c, 0, 70, 60
2, 31920, Note_on_c, 0, 67, 52
2, 31974, Note_on_c, 0, 70, 0
2, 31975, Note_on_c, 0, 67, 0
2, 31980, Note_on_c, 0, 66, 68
2, 31980, Note_on_c, 0, 69, 45
2, 31995, Note_on_c, 0, 69, 0
2, 32000, Note_on_c, 0, 66, 0
2, 32040, Note_on_c, 0, 66, 78
2, 32040, Note_on_c, 0, 69, 60
2, 32100, Note_on_c, 0, 62, 60
2, 32104, Note_on_c, 0, 69, 0
2, 32104, Note_on_c, 0, 66, 0
2, 32160, Note_on_c, 0, 67, 52
2, 32160, Note_on_c, 0, 70, 60
2, 32168, Note_on_c, 0, 62, 0
2, 32213, Note_on_c, 0, 67, 0
2, 32219, Note_on_c, 0, 70, 0
2, 32220, Note_on_c, 0, 62, 45
2, 32277, Note_on_c, 0, 62, 0
2, 32280, Note_on_c, 0, 69, 52
2, 32280, Note_on_c, 0, 72, 52
2, 32339, Note_on_c, 0, 72, 0
2, 32339, Note_on_c, 0, 69, 0
2, 32340, Note_on_c, 0, 62, 39
2, 32400, Note_on_c, 0, 62, 0
2, 32400, Note_on_c, 0, 70, 60
2, 32400, Note_on_c, 0, 74, 39
2, 32448, Note_on_c, 0, 74, 0
2, 32460, Note_on_c, 0, 72, 39
2, 32460, Note_on_c, 0, 69, 45
2, 32469, Note_on_c, 0, 70, 0
2, 32483, Note_on_c, 0, 69, 0
2, 32490, Note_on_c, 0, 72, 0
2, 32520, Note_on_c, 0, 72, 34
2, 32520, Note_on_c, 0, 69, 39
2, 32576, Note_on_c, 0, 69, 0
2, 32580, Note_on_c, 0, 70, 52
2, 32580, Note_on_c, 0, 67, 34
2, 32581, Note_on_c, 0, 72, 0
2, 32597, Note_on_c, 0, 70, 0
2, 32602, Note_on_c, 0, 67, 0
2, 32640, Note_on_c, 0, 67, 45
2, 32640, Note_on_c, 0, 70, 60
2, 32665, Note_on_c, 0, 67, 0
2, 32690, Note_on_c, 0, 70, 0
2, 32700, Note_on_c, 0, 66, 60
2, 32700, Note_on_c, 0, 69, 34
2, 32722, Note_on_c, 0, 69, 0
2, 32725, Note_on_c, 0, 66, 0
2, 32760, Note_on_c, 0, 66, 68
2, 32760, Note_on_c, 0, 69, 45
2, 32787, Note_on_c, 0, 69, 0
2, 32793, Note_on_c, 0, 66, 0
2, 32820, Note_on_c, 0, 69, 45
2, 32849, Note_on_c, 0, 69, 0
2, 32880, Note_on_c, 0, 72, 52
2, 32895, Note_on_c, 0, 72, 0
2, 32940, Note_on_c, 0, 75, 78
2, 32952, Note_on_c, 0, 75, 0
2, 33000, Note_on_c, 0, 78, 52
2, 33029, Note_on_c, 0, 78, 0
2, 33060, Note_on_c, 0, 81, 60
2, 33076, Note_on_c, 0, 81, 0
2, 33180, Note_on_c, 0, 70, 60
2, 33209, Note_on_c, 0, 70, 0
2, 33240, Note_on_c, 0, 74, 45
2, 33252, Note_on_c, 0, 74, 0
2, 33300, Note_on_c, 0, 79, 52
2, 33311, Note_on_c, 0, 79, 0
2, 33360, Note_on_c, 0, 82, 52
2, 33386, Note_on_c, 0, 82, 0
2, 33420, Note_on_c, 0, 86, 52
2, 33431, Note_on_c, 0, 86, 0
2, 33540, Note_on_c, 0, 72, 60
2, 33540, Note_on_c, 0, 69, 52
2, 33553, Note_on_c, 0, 69, 0
2, 33558, Note_on_c, 0, 72, 0
2, 33660, Note_on_c, 0, 70, 60
2, 33660, Note_on_c, 0, 67, 29
2, 33673, Note_on_c, 0, 67, 0
2, 33679, Note_on_c, 0, 70, 0
2, 33780, Note_on_c, 0, 66, 52
2, 33780, Note_on_c, 0, 69, 29
2, 33790, Note_on_c, 0, 66, 0
2, 33793, Note_on_c, 0, 69, 0
2, 33840, Note_on_c, 0, 67, 52
2, 33847, Note_on_c, 0, 67, 0
2, 33900, Note_on_c, 0, 55, 52
2, 33924, Note_on_c, 0, 55, 0
2, 33930, Note_on_c, 0, 50, 34
2, 33956, Note_on_c, 0, 50, 0
2, 33960, Note_on_c, 0, 58, 52
2, 33984, Note_on_c, 0, 58, 0
2, 34020, Note_on_c, 0, 62, 52
2, 34046, Note_on_c, 0, 62, 0
2, 34050, Note_on_c, 0, 58, 78
2, 34059, Note_on_c, 0, 58, 0
2, 34080, Note_on_c, 0, 67, 68
2, 34102, Note_on_c, 0, 67, 0
2, 34110, Note_on_c, 0, 62, 52
2, 34139, Note_on_c, 0, 62, 0
2, 34140, Note_on_c, 0, 70, 68
2, 34170, Note_on_c, 0, 67, 29
2, 34173, Note_on_c, 0, 70, 0
2, 34179, Note_on_c, 0, 67, 0
2, 34200, Note_on_c, 0, 74, 68
2, 34200, Note_on_c, 0, 70, 88
2, 34200, Note_on_c, 0, 67, 60
2, 34226, Note_on_c, 0, 67, 0
2, 34230, Note_on_c, 0, 74, 0
2, 34233, Note_on_c, 0, 70, 0
2, 34260, Note_on_c, 0, 62, 45
2, 34291, Note_on_c, 0, 62, 0
2, 34320, Note_on_c, 0, 72, 68
2, 34320, Note_on_c, 0, 67, 68
2, 34320, Note_on_c, 0, 69, 68
2, 34343, Note_on_c, 0, 67, 0
2, 34346, Note_on_c, 0, 69, 0
2, 34347, Note_on_c, 0, 72, 0
2, 34380, Note_on_c, 0, 62, 52
2, 34405, Note_on_c, 0, 62, 0
2, 34440, Note_on_c, 0, 70, 78
2, 34440, Note_on_c, 0, 67, 60
2, 34467, Note_on_c, 0, 70, 0
2, 34468, Note_on_c, 0, 67, 0
2, 34500, Note_on_c, 0, 62, 45
2, 34518, Note_on_c, 0, 62, 0
2, 34560, Note_on_c, 0, 63, 88
2, 34560, Note_on_c, 0, 69, 78
2, 34560, Note_on_c, 0, 67, 68
2, 34573, Note_on_c, 0, 67, 0
2, 34573, Note_on_c, 0, 69, 0
2, 34575, Note_on_c, 0, 63, 0
2, 34620, Note_on_c, 0, 57, 52
2, 34644, Note_on_c, 0, 57, 0
2, 34650, Note_on_c, 0, 55, 39
2, 34671, Note_on_c, 0, 55, 0
2, 34680, Note_on_c, 0, 60, 52
2, 34707, Note_on_c, 0, 60, 0
2, 34710, Note_on_c, 0, 57, 45
2, 34731, Note_on_c, 0, 57, 0
2, 34740, Note_on_c, 0, 63, 78
2, 34759, Note_on_c, 0, 63, 0
2, 34770, Note_on_c, 0, 60, 34
2, 34788, Note_on_c, 0, 60, 0
2, 34800, Note_on_c, 0, 69, 68
2, 34825, Note_on_c, 0, 69, 0
2, 34830, Note_on_c, 0, 67, 25
2, 34850, Note_on_c, 0, 67, 0
2, 34860, Note_on_c, 0, 72, 52
2, 34885, Note_on_c, 0, 72, 0
2, 34890, Note_on_c, 0, 69, 34
2, 34901, Note_on_c, 0, 69, 0
2, 34920, Note_on_c, 0, 75, 88
2, 34920, Note_on_c, 0, 72, 68
2, 34952, Note_on_c, 0, 72, 0
2, 34954, Note_on_c, 0, 75, 0
2, 34980, Note_on_c, 0, 67, 45
2, 35007, Note_on_c, 0, 67, 0
2, 35040, Note_on_c, 0, 70, 88
2, 35040, Note_on_c, 0, 74, 68
2, 35074, Note_on_c, 0, 74, 0
2, 35082, Note_on_c, 0, 70, 0
2, 35100, Note_on_c, 0, 67, 45
2, 35129, Note_on_c, 0, 67, 0
2, 35160, Note_on_c, 0, 72, 60
2, 35160, Note_on_c, 0, 69, 68
2, 35212, Note_on_c, 0, 72, 0
2, 35216, Note_on_c, 0, 69, 0
2, 35220, Note_on_c, 0, 67, 52
2, 35231, Note_on_c, 0, 67, 0
2, 35280, Note_on_c, 0, 71, 68
2, 35280, Note_on_c, 0, 67, 78
2, 35280, Note_on_c, 0, 65, 88
2, 35310, Note_on_c, 0, 65, 0
2, 35310, Note_on_c, 0, 67, 0
2, 35310, Note_on_c, 0, 71, 0
2, 35340, Note_on_c, 0, 59, 68
2, 35370, Note_on_c, 0, 59, 0
2, 35370, Note_on_c, 0, 55, 45
2, 35400, Note_on_c, 0, 55, 0
2, 35400, Note_on_c, 0, 62, 68
2, 35430, Note_on_c, 0, 62, 0
2, 35430, Note_on_c, 0, 59, 14
2, 35460, Note_on_c, 0, 59, 0
2, 35460, Note_on_c, 0, 65, 52
2, 35490, Note_on_c, 0, 65, 0
2, 35490, Note_on_c, 0, 62, 20
2, 35520, Note_on_c, 0, 62, 0
2, 35520, Note_on_c, 0, 71, 60
2, 35550, Note_on_c, 0, 71, 0
2, 35550, Note_on_c, 0, 65, 14
2, 35580, Note_on_c, 0, 65, 0
2, 35580, Note_on_c, 0, 74, 60
2, 35610, Note_on_c, 0, 74, 0
2, 35610, Note_on_c, 0, 71, 39
2, 35640, Note_on_c, 0, 71, 0
2, 35640, Note_on_c, 0, 77, 78
2, 35640, Note_on_c, 0, 74, 78
2, 35700, Note_on_c, 0, 74, 0
2, 35700, Note_on_c, 0, 77, 0
2, 35700, Note_on_c, 0, 67, 52
2, 35736, Note_on_c, 0, 67, 0
2, 35760, Note_on_c, 0, 72, 68
2, 35760, Note_on_c, 0, 75, 78
2, 35814, Note_on_c, 0, 72, 0
2, 35819, Note_on_c, 0, 75, 0
2, 35820, Note_on_c, 0, 67, 52
2, 35855, Note_on_c, 0, 67, 0
2, 35880, Note_on_c, 0, 74, 68
2, 35880, Note_on_c, 0, 71, 68
2, 35933, Note_on_c, 0, 74, 0
2, 35934, Note_on_c, 0, 71, 0
2, 35940, Note_on_c, 0, 67, 34
2, 35959, Note_on_c, 0, 67, 0
2, 36000, Note_on_c, 0, 67, 52
2, 36000, Note_on_c, 0, 72, 52
2, 36023, Note_on_c, 0, 72, 0
2, 36024, Note_on_c, 0, 67, 0
2, 36060, Note_on_c, 0, 79, 78
2, 36060, Note_on_c, 0, 67, 88
2, 36060, Note_on_c, 0, 72, 88
2, 36090, Note_on_c, 0, 72, 0
2, 36091, Note_on_c, 0, 67, 0
2, 36091, Note_on_c, 0, 79, 0
2, 36180, Note_on_c, 0, 79, 78
2, 36180, Note_on_c, 0, 67, 88
2, 36180, Note_on_c, 0, 72, 88
2, 36204, Note_on_c, 0, 67, 0
2, 36205, Note_on_c, 0, 72, 0
2, 36206, Note_on_c, 0, 79, 0
2, 36300, Note_on_c, 0, 67, 68
2, 36300, Note_on_c, 0, 72, 68
2, 36300, Note_on_c, 0, 79, 52
2, 36309, Note_on_c, 0, 67, 0
2, 36312, Note_on_c, 0, 72, 0
2, 36317, Note_on_c, 0, 79, 0
2, 36360, Note_on_c, 0, 81, 68
2, 36360, Note_on_c, 0, 72, 60
2, 36390, Note_on_c, 0, 81, 0
2, 36390, Note_on_c, 0, 79, 52
2, 36420, Note_on_c, 0, 79, 0
2, 36420, Note_on_c, 0, 78, 45
2, 36450, Note_on_c, 0, 78, 0
2, 36450, Note_on_c, 0, 79, 29
2, 36480, Note_on_c, 0, 79, 0
2, 36480, Note_on_c, 0, 81, 68
2, 36510, Note_on_c, 0, 81, 0
2, 36510, Note_on_c, 0, 79, 34
2, 36540, Note_on_c, 0, 79, 0
2, 36540, Note_on_c, 0, 78, 45
2, 36570, Note_on_c, 0, 78, 0
2, 36570, Note_on_c, 0, 79, 60
2, 36600, Note_on_c, 0, 79, 0
2, 36600, Note_on_c, 0, 81, 52
2, 36630, Note_on_c, 0, 81, 0
2, 36630, Note_on_c, 0, 79, 39
2, 36660, Note_on_c, 0, 79, 0
2, 36660, Note_on_c, 0, 78, 45
2, 36690, Note_on_c, 0, 78, 0
2, 36690, Note_on_c, 0, 72, 0
2, 36690, Note_on_c, 0, 79, 14
2, 36720, Note_on_c, 0, 79, 0
2, 36720, Note_on_c, 0, 73, 78
2, 36720, Note_on_c, 0, 79, 60
2, 36740, Note_on_c, 0, 73, 0
2, 36750, Note_on_c, 0, 70, 78
2, 36753, Note_on_c, 0, 79, 0
2, 36776, Note_on_c, 0, 70, 0
2, 36780, Note_on_c, 0, 79, 52
2, 36780, Note_on_c, 0, 73, 78
2, 36806, Note_on_c, 0, 73, 0
2, 36809, Note_on_c, 0, 79, 0
2, 36810, Note_on_c, 0, 70, 52
2, 36830, Note_on_c, 0, 70, 0
2, 36840, Note_on_c, 0, 82, 78
2, 36840, Note_on_c, 0, 79, 60
2, 36865, Note_on_c, 0, 79, 0
2, 36870, Note_on_c, 0, 73, 52
2, 36871, Note_on_c, 0, 82, 0
2, 36890, Note_on_c, 0, 73, 0
2, 36900, Note_on_c, 0, 79, 39
2, 36900, Note_on_c, 0, 82, 60
2, 36930, Note_on_c, 0, 73, 52
2, 36931, Note_on_c, 0, 79, 0
2, 36933, Note_on_c, 0, 82, 0
2, 36960, Note_on_c, 0, 85, 78
2, 36960, Note_on_c, 0, 82, 88
2, 36960, Note_on_c, 0, 79, 68
2, 36962, Note_on_c, 0, 73, 0
2, 36985, Note_on_c, 0, 85, 0
2, 36990, Note_on_c, 0, 79, 0
2, 36990, Note_on_c, 0, 73, 45
2, 36995, Note_on_c, 0, 82, 0
2, 37013, Note_on_c, 0, 73, 0
2, 37020, Note_on_c, 0, 85, 88
2, 37020, Note_on_c, 0, 82, 68
2, 37020, Note_on_c, 0, 79, 18
2, 37047, Note_on_c, 0, 79, 0
2, 37050, Note_on_c, 0, 73, 45
2, 37055, Note_on_c, 0, 85, 0
2, 37058, Note_on_c, 0, 82, 0
2, 37065, Note_on_c, 0, 73, 0
2, 37080, Note_on_c, 0, 84, 88
2, 37080, Note_on_c, 0, 82, 88
2, 37080, Note_on_c, 0, 72, 78
2, 37080, Note_on_c, 0, 79, 68
2, 37112, Note_on_c, 0, 79, 0
2, 37112, Note_on_c, 0, 82, 0
2, 37114, Note_on_c, 0, 84, 0
2, 37120, Note_on_c, 0, 72, 0
2, 37200, Note_on_c, 0, 60, 78
2, 37200, Note_on_c, 0, 72, 78
2, 37273, Note_on_c, 0, 72, 0
2, 37279, Note_on_c, 0, 60, 0
2, 37320, Note_on_c, 0, 60, 60
2, 37320, Note_on_c, 0, 72, 60
2, 37395, Note_on_c, 0, 60, 0
2, 37401, Note_on_c, 0, 72, 0
2, 37440, Note_on_c, 0, 72, 45
2, 37440, Note_on_c, 0, 68, 60
2, 37479, Note_on_c, 0, 72, 0
2, 37494, Note_on_c, 0, 68, 0
2, 37500, Note_on_c, 0, 70, 34
2, 37500, Note_on_c, 0, 67, 18
2, 37517, Note_on_c, 0, 67, 0
2, 37521, Note_on_c, 0, 70, 0
2, 37560, Note_on_c, 0, 70, 39
2, 37560, Note_on_c, 0, 67, 34
2, 37612, Note_on_c, 0, 67, 0
2, 37620, Note_on_c, 0, 68, 45
2, 37620, Note_on_c, 0, 65, 29
2, 37623, Note_on_c, 0, 70, 0
2, 37633, Note_on_c, 0, 68, 0
2, 37639, Note_on_c, 0, 65, 0
2, 37680, Note_on_c, 0, 68, 52
2, 37680, Note_on_c, 0, 65, 39
2, 37729, Note_on_c, 0, 68, 0
2, 37732, Note_on_c, 0, 65, 0
2, 37740, Note_on_c, 0, 64, 34
2, 37740, Note_on_c, 0, 67, 29
2, 37759, Note_on_c, 0, 64, 0
2, 37762, Note_on_c, 0, 67, 0
2, 37800, Note_on_c, 0, 64, 39
2, 37800, Note_on_c, 0, 67, 39
2, 37858, Note_on_c, 0, 64, 0
2, 37859, Note_on_c, 0, 67, 0
2, 37860, Note_on_c, 0, 60, 45
2, 37914, Note_on_c, 0, 60, 0
2, 37920, Note_on_c, 0, 68, 60
2, 37920, Note_on_c, 0, 65, 45
2, 37977, Note_on_c, 0, 65, 0
2, 37977, Note_on_c, 0, 68, 0
2, 37980, Note_on_c, 0, 60, 34
2, 38039, Note_on_c, 0, 60, 0
2, 38040, Note_on_c, 0, 70, 52
2, 38040, Note_on_c, 0, 67, 52
2, 38095, Note_on_c, 0, 67, 0
2, 38098, Note_on_c, 0, 70, 0
2, 38100, Note_on_c, 0, 60, 34
2, 38155, Note_on_c, 0, 60, 0
2, 38160, Note_on_c, 0, 72, 45
2, 38160, Note_on_c, 0, 68, 52
2, 38219, Note_on_c, 0, 68, 0
2, 38220, Note_on_c, 0, 60, 29
2, 38221, Note_on_c, 0, 72, 0
2, 38280, Note_on_c, 0, 67, 39
2, 38280, Note_on_c, 0, 70, 39
2, 38284, Note_on_c, 0, 60, 0
2, 38339, Note_on_c, 0, 67, 0
2, 38340, Note_on_c, 0, 60, 25
2, 38341, Note_on_c, 0, 70, 0
2, 38400, Note_on_c, 0, 60, 0
2, 38400, Note_on_c, 0, 68, 52
2, 38400, Note_on_c, 0, 65, 34
2, 38458, Note_on_c, 0, 65, 0
2, 38460, Note_on_c, 0, 60, 34
2, 38463, Note_on_c, 0, 68, 0
2, 38517, Note_on_c, 0, 60, 0
2, 38520, Note_on_c, 0, 64, 29
2, 38520, Note_on_c, 0, 67, 39
2, 38576, Note_on_c, 0, 64, 0
2, 38579, Note_on_c, 0, 67, 0
2, 38580, Note_on_c, 0, 60, 34
2, 38636, Note_on_c, 0, 60, 0
2, 38640, Note_on_c, 0, 68, 52
2, 38640, Note_on_c, 0, 65, 45
2, 38696, Note_on_c, 0, 68, 0
2, 38698, Note_on_c, 0, 65, 0
2, 38700, Note_on_c, 0, 60, 29
2, 38759, Note_on_c, 0, 60, 0
2, 38760, Note_on_c, 0, 70, 52
2, 38760, Note_on_c, 0, 67, 39
2, 38818, Note_on_c, 0, 67, 0
2, 38820, Note_on_c, 0, 60, 39
2, 38821, Note_on_c, 0, 70, 0
2, 38880, Note_on_c, 0, 72, 52
2, 38880, Note_on_c, 0, 68, 60
2, 38918, Note_on_c, 0, 72, 0
2, 38933, Note_on_c, 0, 68, 0
2, 38940, Note_on_c, 0, 70, 52
2, 38940, Note_on_c, 0, 67, 29
2, 38959, Note_on_c, 0, 67, 0
2, 38962, Note_on_c, 0, 70, 0
2, 39000, Note_on_c, 0, 70, 52
2, 39000, Note_on_c, 0, 67, 45
2, 39022, Note_on_c, 0, 67, 0
2, 39026, Note_on_c, 0, 70, 0
2, 39060, Note_on_c, 0, 68, 68
2, 39060, Note_on_c, 0, 65, 45
2, 39083, Note_on_c, 0, 65, 0
2, 39084, Note_on_c, 0, 68, 0
2, 39120, Note_on_c, 0, 68, 60
2, 39120, Note_on_c, 0, 65, 29
2, 39141, Note_on_c, 0, 65, 0
2, 39147, Note_on_c, 0, 68, 0
2, 39180, Note_on_c, 0, 64, 39
2, 39180, Note_on_c, 0, 67, 45
2, 39185, Note_on_c, 0, 60, 0
2, 39195, Note_on_c, 0, 64, 0
2, 39203, Note_on_c, 0, 67, 0
2, 39240, Note_on_c, 0, 67, 60
2, 39240, Note_on_c, 0, 64, 45
2, 39253, Note_on_c, 0, 64, 0
2, 39255, Note_on_c, 0, 67, 0
2, 39300, Note_on_c, 0, 67, 45
2, 39323, Note_on_c, 0, 67, 0
2, 39360, Note_on_c, 0, 70, 60
2, 39373, Note_on_c, 0, 70, 0
2, 39420, Note_on_c, 0, 73, 52
2, 39440, Note_on_c, 0, 73, 0
2, 39480, Note_on_c, 0, 76, 34
2, 39497, Note_on_c, 0, 76, 0
2, 39540, Note_on_c, 0, 79, 39
2, 39548, Note_on_c, 0, 79, 0
2, 39660, Note_on_c, 0, 68, 52
2, 39681, Note_on_c, 0, 68, 0
2, 39720, Note_on_c, 0, 72, 39
2, 39735, Note_on_c, 0, 72, 0
2, 39780, Note_on_c, 0, 77, 60
2, 39804, Note_on_c, 0, 77, 0
2, 39840, Note_on_c, 0, 80, 52
2, 39859, Note_on_c, 0, 80, 0
2, 39900, Note_on_c, 0, 84, 60
2, 39909, Note_on_c, 0, 84, 0
2, 40020, Note_on_c, 0, 70, 60
2, 40020, Note_on_c, 0, 67, 52
2, 40034, Note_on_c, 0, 67, 0
2, 40035, Note_on_c, 0, 70, 0
2, 40140, Note_on_c, 0, 68, 52
2, 40140, Note_on_c, 0, 65, 45
2, 40156, Note_on_c, 0, 68, 0
2, 40157, Note_on_c, 0, 65, 0
2, 40260, Note_on_c, 0, 67, 45
2, 40260, Note_on_c, 0, 64, 39
2, 40270, Note_on_c, 0, 67, 0
2, 40275, Note_on_c, 0, 64, 0
2, 40320, Note_on_c, 0, 65, 52
2, 40335, Note_on_c, 0, 65, 0
2, 40380, Note_on_c, 0, 65, 88
2, 40407, Note_on_c, 0, 65, 0
2, 40410, Note_on_c, 0, 60, 60
2, 40426, Note_on_c, 0, 60, 0
2, 40440, Note_on_c, 0, 68, 100
2, 40463, Note_on_c, 0, 68, 0
2, 40470, Note_on_c, 0, 65, 68
2, 40488, Note_on_c, 0, 65, 0
2, 40500, Note_on_c, 0, 72, 78
2, 40516, Note_on_c, 0, 72, 0
2, 40530, Note_on_c, 0, 68, 39
2, 40548, Note_on_c, 0, 68, 0
2, 40560, Note_on_c, 0, 77, 88
2, 40588, Note_on_c, 0, 77, 0
2, 40590, Note_on_c, 0, 72, 45
2, 40606, Note_on_c, 0, 72, 0
2, 40620, Note_on_c, 0, 80, 88
2, 40638, Note_on_c, 0, 80, 0
2, 40650, Note_on_c, 0, 77, 52
2, 40666, Note_on_c, 0, 77, 0
2, 40680, Note_on_c, 0, 80, 100
2, 40680, Note_on_c, 0, 77, 88
2, 40680, Note_on_c, 0, 70, 1
2, 40688, Note_on_c, 0, 70, 0
2, 40737, Note_on_c, 0, 77, 0
2, 40737, Note_on_c, 0, 80, 0
2, 40740, Note_on_c, 0, 70, 88
2, 40793, Note_on_c, 0, 70, 0
2, 40800, Note_on_c, 0, 79, 68
2, 40860, Note_on_c, 0, 70, 88
2, 40864, Note_on_c, 0, 79, 0
2, 40891, Note_on_c, 0, 70, 0
2, 40920, Note_on_c, 0, 78, 78
2, 40920, Note_on_c, 0, 68, 100
2, 40956, Note_on_c, 0, 68, 0
2, 40980, Note_on_c, 0, 78, 0
2, 40980, Note_on_c, 0, 70, 100
2, 41040, Note_on_c, 0, 75, 100
2, 41040, Note_on_c, 0, 79, 78
2, 41053, Note_on_c, 0, 79, 0
2, 41053, Note_on_c, 0, 70, 0
2, 41055, Note_on_c, 0, 75, 0
2, 41100, Note_on_c, 0, 63, 100
2, 41130, Note_on_c, 0, 58, 78
2, 41133, Note_on_c, 0, 63, 0
2, 41152, Note_on_c, 0, 58, 0
2, 41160, Note_on_c, 0, 67, 78
2, 41187, Note_on_c, 0, 67, 0
2, 41190, Note_on_c, 0, 63, 78
2, 41209, Note_on_c, 0, 63, 0
2, 41220, Note_on_c, 0, 70, 78
2, 41244, Note_on_c, 0, 70, 0
2, 41250, Note_on_c, 0, 67, 60
2, 41273, Note_on_c, 0, 67, 0
2, 41280, Note_on_c, 0, 75, 88
2, 41303, Note_on_c, 0, 75, 0
2, 41310, Note_on_c, 0, 70, 60
2, 41340, Note_on_c, 0, 79, 60
2, 41343, Note_on_c, 0, 70, 0
2, 41370, Note_on_c, 0, 75, 60
2, 41372, Note_on_c, 0, 79, 0
2, 41384, Note_on_c, 0, 75, 0
2, 41400, Note_on_c, 0, 75, 100
2, 41400, Note_on_c, 0, 79, 88
2, 41460, Note_on_c, 0, 68, 88
2, 41465, Note_on_c, 0, 79, 0
2, 41466, Note_on_c, 0, 75, 0
2, 41517, Note_on_c, 0, 68, 0
2, 41520, Note_on_c, 0, 77, 78
2, 41580, Note_on_c, 0, 77, 0
2, 41580, Note_on_c, 0, 68, 100
2, 41629, Note_on_c, 0, 68, 0
2, 41640, Note_on_c, 0, 67, 88
2, 41640, Note_on_c, 0, 76, 78
2, 41700, Note_on_c, 0, 68, 100
2, 41705, Note_on_c, 0, 76, 0
2, 41709, Note_on_c, 0, 67, 0
2, 41751, Note_on_c, 0, 68, 0
2, 41760, Note_on_c, 0, 77, 88
2, 41760, Note_on_c, 0, 74, 88
2, 41778, Note_on_c, 0, 77, 0
2, 41779, Note_on_c, 0, 74, 0
2, 41820, Note_on_c, 0, 62, 68
2, 41850, Note_on_c, 0, 56, 78
2, 41851, Note_on_c, 0, 62, 0
2, 41868, Note_on_c, 0, 56, 0
2, 41880, Note_on_c, 0, 65, 88
2, 41904, Note_on_c, 0, 65, 0
2, 41910, Note_on_c, 0, 62, 52
2, 41935, Note_on_c, 0, 62, 0
2, 41940, Note_on_c, 0, 68, 29
2, 41948, Note_on_c, 0, 68, 0
2, 41970, Note_on_c, 0, 65, 60
2, 41995, Note_on_c, 0, 65, 0
2, 42000, Note_on_c, 0, 74, 68
2, 42025, Note_on_c, 0, 74, 0
2, 42030, Note_on_c, 0, 68, 78
2, 42052, Note_on_c, 0, 68, 0
2, 42060, Note_on_c, 0, 77, 88
2, 42084, Note_on_c, 0, 77, 0
2, 42090, Note_on_c, 0, 74, 60
2, 42107, Note_on_c, 0, 74, 0
2, 42120, Note_on_c, 0, 77, 88
2, 42120, Note_on_c, 0, 74, 78
2, 42178, Note_on_c, 0, 74, 0
2, 42180, Note_on_c, 0, 67, 78
2, 42181, Note_on_c, 0, 77, 0
2, 42233, Note_on_c, 0, 67, 0
2, 42240, Note_on_c, 0, 75, 100
2, 42300, Note_on_c, 0, 67, 68
2, 42305, Note_on_c, 0, 75, 0
2, 42338, Note_on_c, 0, 67, 0
2, 42360, Note_on_c, 0, 65, 88
2, 42360, Note_on_c, 0, 74, 88
2, 42396, Note_on_c, 0, 65, 0
2, 42420, Note_on_c, 0, 67, 68
2, 42427, Note_on_c, 0, 74, 0
2, 42456, Note_on_c, 0, 67, 0
2, 42480, Note_on_c, 0, 67, 88
2, 42480, Note_on_c, 0, 75, 100
2, 42507, Note_on_c, 0, 67, 0
2, 42509, Note_on_c, 0, 75, 0
2, 42540, Note_on_c, 0, 67, 100
2, 42540, Note_on_c, 0, 79, 100
2, 42540, Note_on_c, 0, 75, 100
2, 42625, Note_on_c, 0, 79, 0
2, 42627, Note_on_c, 0, 75, 0
2, 42629, Note_on_c, 0, 67, 0
2, 42660, Note_on_c, 0, 67, 88
2, 42660, Note_on_c, 0, 79, 78
2, 42660, Note_on_c, 0, 75, 100
2, 42711, Note_on_c, 0, 67, 0
2, 42719, Note_on_c, 0, 75, 0
2, 42720, Note_on_c, 0, 79, 0
2, 42720, Note_on_c, 0, 74, 88
2, 42756, Note_on_c, 0, 74, 0
2, 42780, Note_on_c, 0, 74, 88
2, 42780, Note_on_c, 0, 79, 88
2, 42794, Note_on_c, 0, 74, 0
2, 42797, Note_on_c, 0, 79, 0
2, 42840, Note_on_c, 0, 75, 78
2, 42840, Note_on_c, 0, 86, 60
2, 42845, Note_on_c, 0, 86, 0
2, 42870, Note_on_c, 0, 84, 45
2, 42883, Note_on_c, 0, 75, 0
2, 42888, Note_on_c, 0, 84, 0
2, 42900, Note_on_c, 0, 83, 68
2, 42900, Note_on_c, 0, 83, 78
2, 42900, Note_on_c, 0, 75, 78
2, 42912, Note_on_c, 0, 83, 0
2, 42930, Note_on_c, 0, 84, 60
2, 42936, Note_on_c, 0, 83, 0
2, 42949, Note_on_c, 0, 75, 0
2, 42951, Note_on_c, 0, 84, 0
2, 42960, Note_on_c, 0, 75, 100
2, 42960, Note_on_c, 0, 86, 78
2, 42983, Note_on_c, 0, 86, 0
2, 42990, Note_on_c, 0, 84, 39
2, 43010, Note_on_c, 0, 84, 0
2, 43010, Note_on_c, 0, 75, 0
2, 43020, Note_on_c, 0, 83, 68
2, 43020, Note_on_c, 0, 75, 52
2, 43050, Note_on_c, 0, 84, 45
2, 43055, Note_on_c, 0, 83, 0
2, 43068, Note_on_c, 0, 75, 0
2, 43070, Note_on_c, 0, 84, 0
2, 43080, Note_on_c, 0, 75, 100
2, 43080, Note_on_c, 0, 86, 68
2, 43105, Note_on_c, 0, 86, 0
2, 43110, Note_on_c, 0, 84, 39
2, 43136, Note_on_c, 0, 84, 0
2, 43140, Note_on_c, 0, 75, 100
2, 43140, Note_on_c, 0, 83, 45
2, 43146, Note_on_c, 0, 75, 0
2, 43166, Note_on_c, 0, 83, 0
2, 43170, Note_on_c, 0, 84, 39
2, 43180, Note_on_c, 0, 84, 0
2, 43200, Note_on_c, 0, 83, 88
2, 43200, Note_on_c, 0, 79, 78
2, 43206, Note_on_c, 0, 75, 0
2, 43230, Note_on_c, 0, 74, 68
2, 43232, Note_on_c, 0, 83, 0
2, 43233, Note_on_c, 0, 79, 0
2, 43260, Note_on_c, 0, 74, 0
2, 43260, Note_on_c, 0, 79, 78
2, 43260, Note_on_c, 0, 83, 78
2, 43287, Note_on_c, 0, 83, 0
2, 43290, Note_on_c, 0, 79, 0
2, 43290, Note_on_c, 0, 74, 52
2, 43320, Note_on_c, 0, 84, 88
2, 43320, Note_on_c, 0, 79, 78
2, 43322, Note_on_c, 0, 74, 0
2, 43350, Note_on_c, 0, 75, 60
2, 43351, Note_on_c, 0, 79, 0
2, 43351, Note_on_c, 0, 84, 0
2, 43380, Note_on_c, 0, 84, 78
2, 43380, Note_on_c, 0, 79, 68
2, 43382, Note_on_c, 0, 75, 0
2, 43410, Note_on_c, 0, 84, 0
2, 43410, Note_on_c, 0, 75, 68
2, 43414, Note_on_c, 0, 79, 0
2, 43436, Note_on_c, 0, 75, 0
2, 43440, Note_on_c, 0, 87, 88
2, 43440, Note_on_c, 0, 79, 52
2, 43440, Note_on_c, 0, 84, 60
2, 43470, Note_on_c, 0, 79, 0
2, 43470, Note_on_c, 0, 75, 78
2, 43471, Note_on_c, 0, 84, 0
2, 43473, Note_on_c, 0, 87, 0
2, 43500, Note_on_c, 0, 87, 88
2, 43500, Note_on_c, 0, 79, 45
2, 43500, Note_on_c, 0, 84, 52
2, 43501, Note_on_c, 0, 75, 0
2, 43527, Note_on_c, 0, 84, 0
2, 43530, Note_on_c, 0, 75, 60
2, 43533, Note_on_c, 0, 87, 0
2, 43538, Note_on_c, 0, 79, 0
2, 43548, Note_on_c, 0, 75, 0
2, 43560, Note_on_c, 0, 86, 88
2, 43560, Note_on_c, 0, 79, 78
2, 43560, Note_on_c, 0, 83, 78
2, 43592, Note_on_c, 0, 83, 0
2, 43592, Note_on_c, 0, 86, 0
2, 43596, Note_on_c, 0, 79, 0
2, 43680, Note_on_c, 0, 67, 39
2, 43680, Note_on_c, 0, 79, 25
2, 43694, Note_on_c, 0, 67, 0
2, 43697, Note_on_c, 0, 79, 0
2, 43800, Note_on_c, 0, 79, 52
2, 43800, Note_on_c, 0, 67, 52
2, 43812, Note_on_c, 0, 67, 0
2, 43816, Note_on_c, 0, 79, 0
2, 43920, Note_on_c, 0, 75, 45
2, 43920, Note_on_c, 0, 79, 39
2, 43975, Note_on_c, 0, 75, 0
2, 43976, Note_on_c, 0, 79, 0
2, 43980, Note_on_c, 0, 67, 34
2, 44034, Note_on_c, 0, 67, 0
2, 44040, Note_on_c, 0, 77, 25
2, 44040, Note_on_c, 0, 74, 45
2, 44096, Note_on_c, 0, 77, 0
2, 44097, Note_on_c, 0, 74, 0
2, 44100, Note_on_c, 0, 67, 25
2, 44155, Note_on_c, 0, 67, 0
2, 44160, Note_on_c, 0, 75, 39
2, 44160, Note_on_c, 0, 72, 20
2, 44217, Note_on_c, 0, 72, 0
2, 44220, Note_on_c, 0, 67, 18
2, 44221, Note_on_c, 0, 75, 0
2, 44275, Note_on_c, 0, 67, 0
2, 44280, Note_on_c, 0, 71, 25
2, 44280, Note_on_c, 0, 74, 20
2, 44336, Note_on_c, 0, 74, 0
2, 44337, Note_on_c, 0, 71, 0
2, 44340, Note_on_c, 0, 67, 18
2, 44398, Note_on_c, 0, 67, 0
2, 44400, Note_on_c, 0, 75, 45
2, 44400, Note_on_c, 0, 72, 3
2, 44460, Note_on_c, 0, 67, 25
2, 44461, Note_on_c, 0, 72, 0
2, 44461, Note_on_c, 0, 75, 0
2, 44515, Note_on_c, 0, 67, 0
2, 44520, Note_on_c, 0, 74, 34
2, 44520, Note_on_c, 0, 77, 34
2, 44580, Note_on_c, 0, 67, 39
2, 44591, Note_on_c, 0, 77, 0
2, 44591, Note_on_c, 0, 74, 0
2, 44593, Note_on_c, 0, 67, 0
2, 44640, Note_on_c, 0, 79, 60
2, 44640, Note_on_c, 0, 75, 68
2, 44689, Note_on_c, 0, 75, 0
2, 44700, Note_on_c, 0, 67, 39
2, 44755, Note_on_c, 0, 67, 0
2, 44760, Note_on_c, 0, 71, 39
2, 44760, Note_on_c, 0, 77, 39
2, 44815, Note_on_c, 0, 67, 34
2, 44818, Note_on_c, 0, 71, 0
2, 44822, Note_on_c, 0, 77, 0
2, 44871, Note_on_c, 0, 67, 0
2, 44880, Note_on_c, 0, 75, 45
2, 44882, Note_on_c, 0, 72, 29
2, 44937, Note_on_c, 0, 75, 0
2, 44938, Note_on_c, 0, 72, 0
2, 44938, Note_on_c, 0, 67, 25
2, 45000, Note_on_c, 0, 71, 39
2, 45000, Note_on_c, 0, 74, 34
2, 45005, Note_on_c, 0, 67, 0
2, 45055, Note_on_c, 0, 74, 0
2, 45059, Note_on_c, 0, 71, 0
2, 45060, Note_on_c, 0, 67, 39
2, 45120, Note_on_c, 0, 75, 60
2, 45120, Note_on_c, 0, 72, 29
2, 45123, Note_on_c, 0, 67, 0
2, 45123, Note_on_c, 0, 79, 0
2, 45171, Note_on_c, 0, 72, 0
2, 45175, Note_on_c, 0, 75, 0
2, 45180, Note_on_c, 0, 67, 60
2, 45180, Note_on_c, 0, 80, 52
2, 45211, Note_on_c, 0, 80, 0
2, 45239, Note_on_c, 0, 67, 0
2, 45240, Note_on_c, 0, 79, 52
2, 45240, Note_on_c, 0, 74, 45
2, 45240, Note_on_c, 0, 77, 39
2, 45298, Note_on_c, 0, 77, 0
2, 45300, Note_on_c, 0, 67, 39
2, 45302, Note_on_c, 0, 74, 0
2, 45360, Note_on_c, 0, 75, 68
2, 45365, Note_on_c, 0, 67, 0
2, 45420, Note_on_c, 0, 67, 39
2, 45422, Note_on_c, 0, 75, 0
2, 45478, Note_on_c, 0, 67, 0
2, 45480, Note_on_c, 0, 71, 52
2, 45480, Note_on_c, 0, 77, 39
2, 45538, Note_on_c, 0, 71, 0
2, 45540, Note_on_c, 0, 67, 45
2, 45550, Note_on_c, 0, 77, 0
2, 45600, Note_on_c, 0, 75, 45
2, 45600, Note_on_c, 0, 72, 39
2, 45605, Note_on_c, 0, 67, 0
2, 45660, Note_on_c, 0, 67, 39
2, 45666, Note_on_c, 0, 72, 0
2, 45670, Note_on_c, 0, 75, 0
2, 45673, Note_on_c, 0, 79, 0
2, 45683, Note_on_c, 0, 67, 0
2, 45780, Note_on_c, 0, 67, 45
2, 45800, Note_on_c, 0, 67, 0
2, 45840, Note_on_c, 0, 72, 34
2, 45863, Note_on_c, 0, 72, 0
2, 45900, Note_on_c, 0, 76, 39
2, 45910, Note_on_c, 0, 76, 0
2, 45960, Note_on_c, 0, 79, 45
2, 45975, Note_on_c, 0, 79, 0
2, 46020, Note_on_c, 0, 84, 60
2, 46029, Note_on_c, 0, 84, 0
2, 46140, Note_on_c, 0, 68, 45
2, 46167, Note_on_c, 0, 68, 0
2, 46200, Note_on_c, 0, 72, 29
2, 46213, Note_on_c, 0, 72, 0
2, 46260, Note_on_c, 0, 77, 34
2, 46272, Note_on_c, 0, 77, 0
2, 46320, Note_on_c, 0, 76, 5
2, 46342, Note_on_c, 0, 76, 0
2, 46380, Note_on_c, 0, 84, 52
2, 46391, Note_on_c, 0, 84, 0
2, 46500, Note_on_c, 0, 64, 29
2, 46531, Note_on_c, 0, 64, 0
2, 46560, Note_on_c, 0, 65, 52
2, 46574, Note_on_c, 0, 65, 0
2, 46620, Note_on_c, 0, 72, 29
2, 46645, Note_on_c, 0, 72, 0
2, 46680, Note_on_c, 0, 78, 52
2, 46699, Note_on_c, 0, 78, 0
2, 46740, Note_on_c, 0, 84, 60
2, 46753, Note_on_c, 0, 84, 0
2, 46800, Note_on_c, 0, 83, 60
2, 46800, Note_on_c, 0, 74, 52
2, 46800, Note_on_c, 0, 79, 45
2, 46876, Note_on_c, 0, 74, 0
2, 46877, Note_on_c, 0, 79, 0
2, 46879, Note_on_c, 0, 83, 0
2, 47016, Note_on_c, 0, 67, 25
2, 47024, Note_on_c, 0, 69, 39
2, 47040, Note_on_c, 0, 67, 0
2, 47040, Note_on_c, 0, 71, 52
2, 47042, Note_on_c, 0, 69, 0
2, 47056, Note_on_c, 0, 71, 0
2, 47130, Note_on_c, 0, 71, 34
2, 47142, Note_on_c, 0, 71, 0
2, 47145, Note_on_c, 0, 72, 39
2, 47160, Note_on_c, 0, 62, 60
2, 47160, Note_on_c, 0, 74, 78
2, 47160, Note_on_c, 0, 67, 52
2, 47165, Note_on_c, 0, 72, 0
2, 47263, Note_on_c, 0, 62, 0
2, 47264, Note_on_c, 0, 74, 0
2, 47264, Note_on_c, 0, 67, 0
2, 47370, Note_on_c, 0, 67, 52
2, 47370, Note_on_c, 0, 71, 52
2, 47384, Note_on_c, 0, 71, 0
2, 47385, Note_on_c, 0, 72, 52
2, 47385, Note_on_c, 0, 69, 45
2, 47392, Note_on_c, 0, 67, 0
2, 47400, Note_on_c, 0, 74, 68
2, 47400, Note_on_c, 0, 71, 68
2, 47402, Note_on_c, 0, 72, 0
2, 47409, Note_on_c, 0, 69, 0
2, 47418, Note_on_c, 0, 71, 0
2, 47420, Note_on_c, 0, 74, 0
2, 47475, Note_on_c, 0, 71, 45
2, 47475, Note_on_c, 0, 74, 18
2, 47486, Note_on_c, 0, 74, 0
2, 47490, Note_on_c, 0, 72, 45
2, 47490, Note_on_c, 0, 76, 45
2, 47497, Note_on_c, 0, 71, 0
2, 47505, Note_on_c, 0, 77, 78
2, 47505, Note_on_c, 0, 74, 78
2, 47506, Note_on_c, 0, 76, 0
2, 47508, Note_on_c, 0, 72, 0
2, 47580, Note_on_c, 0, 73, 60
2, 47580, Note_on_c, 0, 76, 39
2, 47601, Note_on_c, 0, 76, 0
2, 47606, Note_on_c, 0, 74, 0
2, 47607, Note_on_c, 0, 73, 0
2, 47610, Note_on_c, 0, 67, 25
2, 47615, Note_on_c, 0, 77, 0
2, 47634, Note_on_c, 0, 67, 0
2, 47640, Note_on_c, 0, 77, 39
2, 47640, Note_on_c, 0, 74, 45
2, 47664, Note_on_c, 0, 74, 0
2, 47666, Note_on_c, 0, 77, 0
2, 47670, Note_on_c, 0, 67, 25
2, 47695, Note_on_c, 0, 67, 0
2, 47700, Note_on_c, 0, 73, 45
2, 47700, Note_on_c, 0, 76, 25
2, 47723, Note_on_c, 0, 76, 0
2, 47725, Note_on_c, 0, 73, 0
2, 47730, Note_on_c, 0, 67, 25
2, 47758, Note_on_c, 0, 67, 0
2, 47760, Note_on_c, 0, 77, 39
2, 47760, Note_on_c, 0, 74, 34
2, 47783, Note_on_c, 0, 74, 0
2, 47787, Note_on_c, 0, 77, 0
2, 47790, Note_on_c, 0, 67, 20
2, 47820, Note_on_c, 0, 73, 45
2, 47820, Note_on_c, 0, 76, 25
2, 47821, Note_on_c, 0, 67, 0
2, 47842, Note_on_c, 0, 76, 0
2, 47845, Note_on_c, 0, 73, 0
2, 47850, Note_on_c, 0, 67, 29
2, 47879, Note_on_c, 0, 67, 0
2, 47880, Note_on_c, 0, 77, 45
2, 47880, Note_on_c, 0, 74, 45
2, 47904, Note_on_c, 0, 74, 0
2, 47906, Note_on_c, 0, 77, 0
2, 47910, Note_on_c, 0, 67, 20
2, 47940, Note_on_c, 0, 73, 60
2, 47940, Note_on_c, 0, 76, 29
2, 47945, Note_on_c, 0, 67, 0
2, 47969, Note_on_c, 0, 76, 0
2, 47970, Note_on_c, 0, 73, 0
2, 47970, Note_on_c, 0, 67, 25
2, 47996, Note_on_c, 0, 67, 0
2, 48000, Note_on_c, 0, 77, 39
2, 48000, Note_on_c, 0, 74, 39
2, 48024, Note_on_c, 0, 74, 0
2, 48025, Note_on_c, 0, 77, 0
2, 48030, Note_on_c, 0, 67, 25
2, 48059, Note_on_c, 0, 67, 0
2, 48060, Note_on_c, 0, 79, 52
2, 48060, Note_on_c, 0, 76, 45
2, 48088, Note_on_c, 0, 76, 0
2, 48090, Note_on_c, 0, 79, 0
2, 48090, Note_on_c, 0, 67, 34
2, 48107, Note_on_c, 0, 67, 0
2, 48120, Note_on_c, 0, 81, 45
2, 48120, Note_on_c, 0, 77, 39
2, 48143, Note_on_c, 0, 81, 0
2, 48145, Note_on_c, 0, 77, 0
2, 48150, Note_on_c, 0, 74, 18
2, 48177, Note_on_c, 0, 74, 0
2, 48180, Note_on_c, 0, 83, 60
2, 48180, Note_on_c, 0, 77, 39
2, 48205, Note_on_c, 0, 83, 0
2, 48209, Note_on_c, 0, 77, 0
2, 48210, Note_on_c, 0, 74, 20
2, 48225, Note_on_c, 0, 74, 0
2, 48240, Note_on_c, 0, 84, 88
2, 48240, Note_on_c, 0, 72, 78
2, 48240, Note_on_c, 0, 76, 78
2, 48240, Note_on_c, 0, 79, 78
2, 48580, Note_on_c, 0, 79, 0
2, 48580, Note_on_c, 0, 76, 0
2, 48582, Note_on_c, 0, 84, 0
2, 48583, Note_on_c, 0, 72, 0
2, 48720, Note_on_c, 0, 64, 34
2, 48817, Note_on_c, 0, 64, 0
2, 48825, Note_on_c, 0, 67, 34
2, 48840, Note_on_c, 0, 65, 29
2, 48844, Note_on_c, 0, 67, 0
2, 48895, Note_on_c, 0, 65, 0
2, 48900, Note_on_c, 0, 64, 20
2, 48926, Note_on_c, 0, 64, 0
2, 48930, Note_on_c, 0, 65, 18
2, 48960, Note_on_c, 0, 65, 0
2, 48960, Note_on_c, 0, 67, 25
2, 49075, Note_on_c, 0, 67, 0
2, 49080, Note_on_c, 0, 64, 34
2, 49191, Note_on_c, 0, 64, 0
2, 49200, Note_on_c, 0, 65, 39
2, 49200, Note_on_c, 0, 69, 39
2, 49214, Note_on_c, 0, 69, 0
2, 49215, Note_on_c, 0, 65, 0
2, 49320, Note_on_c, 0, 77, 45
2, 49320, Note_on_c, 0, 69, 25
2, 49334, Note_on_c, 0, 69, 0
2, 49334, Note_on_c, 0, 77, 0
2, 49440, Note_on_c, 0, 74, 45
2, 49440, Note_on_c, 0, 65, 34
2, 49455, Note_on_c, 0, 65, 0
2, 49456, Note_on_c, 0, 74, 0
2, 49560, Note_on_c, 0, 62, 39
2, 49560, Note_on_c, 0, 71, 45
2, 49577, Note_on_c, 0, 62, 0
2, 49583, Note_on_c, 0, 71, 0
2, 49680, Note_on_c, 0, 84, 100
2, 49680, Note_on_c, 0, 72, 88
2, 49680, Note_on_c, 0, 76, 78
2, 49680, Note_on_c, 0, 79, 78
2, 50034, Note_on_c, 0, 76, 0
2, 50034, Note_on_c, 0, 72, 0
2, 50036, Note_on_c, 0, 79, 0
2, 50038, Note_on_c, 0, 84, 0
2, 50160, Note_on_c, 0, 64, 39
2, 50245, Note_on_c, 0, 64, 0
2, 50250, Note_on_c, 0, 67, 18
2, 50265, Note_on_c, 0, 67, 0
2, 50265, Note_on_c, 0, 65, 34
2, 50325, Note_on_c, 0, 65, 0
2, 50325, Note_on_c, 0, 64, 18
2, 50355, Note_on_c, 0, 64, 0
2, 50355, Note_on_c, 0, 65, 18
2, 50382, Note_on_c, 0, 65, 0
2, 50385, Note_on_c, 0, 67, 20
2, 50502, Note_on_c, 0, 67, 0
2, 50520, Note_on_c, 0, 64, 25
2, 50632, Note_on_c, 0, 64, 0
2, 50640, Note_on_c, 0, 65, 25
2, 50640, Note_on_c, 0, 69, 34
2, 50657, Note_on_c, 0, 65, 0
2, 50661, Note_on_c, 0, 69, 0
2, 50760, Note_on_c, 0, 81, 60
2, 50760, Note_on_c, 0, 77, 52
2, 50767, Note_on_c, 0, 77, 0
2, 50771, Note_on_c, 0, 81, 0
2, 50880, Note_on_c, 0, 77, 60
2, 50880, Note_on_c, 0, 72, 52
2, 50880, Note_on_c, 0, 69, 25
2, 50887, Note_on_c, 0, 69, 0
2, 50887, Note_on_c, 0, 72, 0
2, 50890, Note_on_c, 0, 77, 0
2, 51000, Note_on_c, 0, 74, 52
2, 51000, Note_on_c, 0, 65, 34
2, 51000, Note_on_c, 0, 71, 34
2, 51008, Note_on_c, 0, 71, 0
2, 51011, Note_on_c, 0, 65, 0
2, 51014, Note_on_c, 0, 74, 0
2, 51120, Note_on_c, 0, 76, 60
2, 51120, Note_on_c, 0, 67, 60
2, 51120, Note_on_c, 0, 72, 60
2, 51182, Note_on_c, 0, 72, 0
2, 51185, Note_on_c, 0, 76, 0
2, 51186, Note_on_c, 0, 67, 0
2, 51240, Note_on_c, 0, 64, 68
2, 51299, Note_on_c, 0, 64, 0
2, 51300, Note_on_c, 0, 60, 39
2, 51360, Note_on_c, 0, 64, 45
2, 51361, Note_on_c, 0, 60, 0
2, 51420, Note_on_c, 0, 67, 52
2, 51421, Note_on_c, 0, 64, 0
2, 51432, Note_on_c, 0, 67, 0
2, 51480, Note_on_c, 0, 72, 39
2, 51480, Note_on_c, 0, 67, 45
2, 51504, Note_on_c, 0, 67, 0
2, 51505, Note_on_c, 0, 72, 0
2, 51510, Note_on_c, 0, 64, 29
2, 51540, Note_on_c, 0, 67, 45
2, 51540, Note_on_c, 0, 72, 34
2, 51541, Note_on_c, 0, 64, 0
2, 51564, Note_on_c, 0, 72, 0
2, 51566, Note_on_c, 0, 67, 0
2, 51570, Note_on_c, 0, 64, 34
2, 51600, Note_on_c, 0, 72, 60
2, 51600, Note_on_c, 0, 67, 60
2, 51603, Note_on_c, 0, 64, 0
2, 51626, Note_on_c, 0, 72, 0
2, 51628, Note_on_c, 0, 67, 0
2, 51630, Note_on_c, 0, 64, 45
2, 51660, Note_on_c, 0, 72, 60
2, 51660, Note_on_c, 0, 67, 60
2, 51665, Note_on_c, 0, 64, 0
2, 51690, Note_on_c, 0, 72, 0
2, 51690, Note_on_c, 0, 64, 45
2, 51692, Note_on_c, 0, 67, 0
2, 51716, Note_on_c, 0, 64, 0
2, 51720, Note_on_c, 0, 76, 68
2, 51720, Note_on_c, 0, 67, 68
2, 51748, Note_on_c, 0, 67, 0
2, 51750, Note_on_c, 0, 64, 60
2, 51756, Note_on_c, 0, 76, 0
2, 51780, Note_on_c, 0, 67, 52
2, 51780, Note_on_c, 0, 72, 45
2, 51781, Note_on_c, 0, 64, 0
2, 51807, Note_on_c, 0, 67, 0
2, 51810, Note_on_c, 0, 64, 52
2, 51814, Note_on_c, 0, 72, 0
2, 51818, Note_on_c, 0, 64, 0
2, 51840, Note_on_c, 0, 79, 60
2, 51840, Note_on_c, 0, 74, 68
2, 51868, Note_on_c, 0, 74, 0
2, 51870, Note_on_c, 0, 67, 45
2, 51875, Note_on_c, 0, 79, 0
2, 51900, Note_on_c, 0, 74, 60
2, 51900, Note_on_c, 0, 79, 45
2, 51910, Note_on_c, 0, 67, 0
2, 51926, Note_on_c, 0, 74, 0
2, 51929, Note_on_c, 0, 79, 0
2, 51930, Note_on_c, 0, 67, 39
2, 51960, Note_on_c, 0, 79, 45
2, 51960, Note_on_c, 0, 74, 52
2, 51964, Note_on_c, 0, 67, 0
2, 51983, Note_on_c, 0, 74, 0
2, 51987, Note_on_c, 0, 79, 0
2, 51990, Note_on_c, 0, 67, 39
2, 52020, Note_on_c, 0, 79, 52
2, 52020, Note_on_c, 0, 74, 52
2, 52024, Note_on_c, 0, 67, 0
2, 52046, Note_on_c, 0, 74, 0
2, 52047, Note_on_c, 0, 79, 0
2, 52050, Note_on_c, 0, 67, 45
2, 52080, Note_on_c, 0, 79, 52
2, 52080, Note_on_c, 0, 74, 45
2, 52089, Note_on_c, 0, 67, 0
2, 52108, Note_on_c, 0, 74, 0
2, 52109, Note_on_c, 0, 79, 0
2, 52110, Note_on_c, 0, 67, 45
2, 52140, Note_on_c, 0, 79, 45
2, 52140, Note_on_c, 0, 74, 45
2, 52141, Note_on_c, 0, 67, 0
2, 52168, Note_on_c, 0, 74, 0
2, 52170, Note_on_c, 0, 79, 0
2, 52170, Note_on_c, 0, 67, 45
2, 52177, Note_on_c, 0, 67, 0
2, 52200, Note_on_c, 0, 79, 60
2, 52200, Note_on_c, 0, 84, 68
2, 52230, Note_on_c, 0, 79, 0
2, 52230, Note_on_c, 0, 72, 60
2, 52232, Note_on_c, 0, 84, 0
2, 52260, Note_on_c, 0, 79, 60
2, 52260, Note_on_c, 0, 84, 68
2, 52265, Note_on_c, 0, 72, 0
2, 52290, Note_on_c, 0, 72, 39
2, 52292, Note_on_c, 0, 79, 0
2, 52296, Note_on_c, 0, 84, 0
2, 52314, Note_on_c, 0, 72, 0
2, 52320, Note_on_c, 0, 84, 78
2, 52320, Note_on_c, 0, 76, 68
2, 52347, Note_on_c, 0, 72, 45
2, 52350, Note_on_c, 0, 76, 0
2, 52353, Note_on_c, 0, 84, 0
2, 52380, Note_on_c, 0, 76, 60
2, 52380, Note_on_c, 0, 84, 52
2, 52385, Note_on_c, 0, 72, 0
2, 52410, Note_on_c, 0, 72, 34
2, 52414, Note_on_c, 0, 84, 0
2, 52414, Note_on_c, 0, 76, 0
2, 52440, Note_on_c, 0, 84, 60
2, 52440, Note_on_c, 0, 77, 68
2, 52444, Note_on_c, 0, 72, 0
2, 52470, Note_on_c, 0, 72, 52
2, 52472, Note_on_c, 0, 84, 0
2, 52475, Note_on_c, 0, 77, 0
2, 52500, Note_on_c, 0, 84, 60
2, 52500, Note_on_c, 0, 77, 60
2, 52504, Note_on_c, 0, 72, 0
2, 52528, Note_on_c, 0, 77, 0
2, 52529, Note_on_c, 0, 84, 0
2, 52530, Note_on_c, 0, 72, 20
2, 52560, Note_on_c, 0, 84, 68
2, 52560, Note_on_c, 0, 77, 68
2, 52568, Note_on_c, 0, 72, 0
2, 52590, Note_on_c, 0, 72, 34
2, 52591, Note_on_c, 0, 84, 0
2, 52593, Note_on_c, 0, 77, 0
2, 52620, Note_on_c, 0, 84, 68
2, 52620, Note_on_c, 0, 77, 60
2, 52622, Note_on_c, 0, 72, 0
2, 52650, Note_on_c, 0, 72, 45
2, 52651, Note_on_c, 0, 77, 0
2, 52654, Note_on_c, 0, 84, 0
2, 52668, Note_on_c, 0, 72, 0
2, 52680, Note_on_c, 0, 75, 88
2, 52680, Note_on_c, 0, 84, 78
2, 52709, Note_on_c, 0, 75, 0
2, 52710, Note_on_c, 0, 84, 0
2, 52710, Note_on_c, 0, 72, 60
2, 52740, Note_on_c, 0, 75, 78
2, 52740, Note_on_c, 0, 84, 60
2, 52744, Note_on_c, 0, 72, 0
2, 52770, Note_on_c, 0, 75, 0
2, 52770, Note_on_c, 0, 72, 45
2, 52771, Note_on_c, 0, 84, 0
2, 52800, Note_on_c, 0, 84, 78
2, 52800, Note_on_c, 0, 76, 68
2, 52802, Note_on_c, 0, 72, 0
2, 52830, Note_on_c, 0, 72, 39
2, 52833, Note_on_c, 0, 76, 0
2, 52833, Note_on_c, 0, 84, 0
2, 52860, Note_on_c, 0, 84, 52
2, 52860, Note_on_c, 0, 76, 52
2, 52862, Note_on_c, 0, 72, 0
2, 52888, Note_on_c, 0, 84, 0
2, 52889, Note_on_c, 0, 76, 0
2, 52890, Note_on_c, 0, 72, 39
2, 52917, Note_on_c, 0, 72, 0
2, 52920, Note_on_c, 0, 81, 68
2, 52920, Note_on_c, 0, 74, 68
2, 52950, Note_on_c, 0, 81, 0
2, 52950, Note_on_c, 0, 72, 60
2, 52952, Note_on_c, 0, 74, 0
2, 52978, Note_on_c, 0, 72, 0
2, 52980, Note_on_c, 0, 81, 68
2, 52980, Note_on_c, 0, 74, 60
2, 53010, Note_on_c, 0, 74, 0
2, 53010, Note_on_c, 0, 72, 39
2, 53011, Note_on_c, 0, 81, 0
2, 53040, Note_on_c, 0, 72, 0
2, 53040, Note_on_c, 0, 81, 60
2, 53040, Note_on_c, 0, 74, 60
2, 53070, Note_on_c, 0, 74, 0
2, 53070, Note_on_c, 0, 72, 52
2, 53071, Note_on_c, 0, 81, 0
2, 53100, Note_on_c, 0, 74, 68
2, 53100, Note_on_c, 0, 81, 52
2, 53104, Note_on_c, 0, 72, 0
2, 53130, Note_on_c, 0, 72, 39
2, 53132, Note_on_c, 0, 74, 0
2, 53141, Note_on_c, 0, 81, 0
2, 53160, Note_on_c, 0, 74, 68
2, 53160, Note_on_c, 0, 79, 60
2, 53164, Note_on_c, 0, 72, 0
2, 53190, Note_on_c, 0, 74, 0
2, 53190, Note_on_c, 0, 72, 34
2, 53193, Note_on_c, 0, 79, 0
2, 53220, Note_on_c, 0, 74, 60
2, 53220, Note_on_c, 0, 79, 52
2, 53222, Note_on_c, 0, 72, 0
2, 53248, Note_on_c, 0, 74, 0
2, 53250, Note_on_c, 0, 72, 34
2, 53253, Note_on_c, 0, 79, 0
2, 53271, Note_on_c, 0, 72, 0
2, 53280, Note_on_c, 0, 78, 88
2, 53280, Note_on_c, 0, 72, 60
2, 53280, Note_on_c, 0, 74, 78
2, 53367, Note_on_c, 0, 74, 0
2, 53370, Note_on_c, 0, 72, 0
2, 53370, Note_on_c, 0, 78, 0
2, 53590, Note_on_c, 0, 72, 60
2, 53600, Note_on_c, 0, 74, 60
2, 53605, Note_on_c, 0, 72, 0
2, 53610, Note_on_c, 0, 76, 60
2, 53615, Note_on_c, 0, 74, 0
2, 53620, Note_on_c, 0, 77, 60
2, 53625, Note_on_c, 0, 76, 0
2, 53630, Note_on_c, 0, 79, 60
2, 53635, Note_on_c, 0, 77, 0
2, 53640, Note_on_c, 0, 72, 60
2, 53640, Note_on_c, 0, 74, 88
2, 53640, Note_on_c, 0, 78, 100
2, 53645, Note_on_c, 0, 79, 0
2, 53738, Note_on_c, 0, 74, 0
2, 53742, Note_on_c, 0, 72, 0
2, 53742, Note_on_c, 0, 78, 0
2, 53920, Note_on_c, 0, 72, 60
2, 53930, Note_on_c, 0, 74, 60
2, 53935, Note_on_c, 0, 72, 0
2, 53940, Note_on_c, 0, 76, 60
2, 53945, Note_on_c, 0, 74, 0
2, 53950, Note_on_c, 0, 77, 60
2, 53955, Note_on_c, 0, 76, 0
2, 53960, Note_on_c, 0, 79, 60
2, 53965, Note_on_c, 0, 77, 0
2, 53970, Note_on_c, 0, 81, 60
2, 53975, Note_on_c, 0, 79, 0
2, 53980, Note_on_c, 0, 83, 60
2, 53985, Note_on_c, 0, 81, 0
2, 53995, Note_on_c, 0, 83, 0
2, 54000, Note_on_c, 0, 84, 68
2, 54000, Note_on_c, 0, 78, 100
2, 54030, Note_on_c, 0, 74, 60
2, 54032, Note_on_c, 0, 78, 0
2, 54037, Note_on_c, 0, 84, 0
2, 54060, Note_on_c, 0, 78, 60
2, 54060, Note_on_c, 0, 84, 45
2, 54064, Note_on_c, 0, 74, 0
2, 54089, Note_on_c, 0, 84, 0
2, 54089, Note_on_c, 0, 78, 0
2, 54090, Note_on_c, 0, 74, 34
2, 54120, Note_on_c, 0, 78, 60
2, 54120, Note_on_c, 0, 84, 52
2, 54122, Note_on_c, 0, 74, 0
2, 54145, Note_on_c, 0, 84, 0
2, 54149, Note_on_c, 0, 78, 0
2, 54150, Note_on_c, 0, 74, 18
2, 54180, Note_on_c, 0, 84, 52
2, 54180, Note_on_c, 0, 78, 60
2, 54184, Note_on_c, 0, 74, 0
2, 54210, Note_on_c, 0, 84, 0
2, 54210, Note_on_c, 0, 74, 25
2, 54211, Note_on_c, 0, 78, 0
2, 54240, Note_on_c, 0, 84, 34
2, 54240, Note_on_c, 0, 78, 52
2, 54242, Note_on_c, 0, 74, 0
2, 54266, Note_on_c, 0, 78, 0
2, 54268, Note_on_c, 0, 84, 0
2, 54270, Note_on_c, 0, 74, 18
2, 54300, Note_on_c, 0, 78, 52
2, 54300, Note_on_c, 0, 84, 29
2, 54304, Note_on_c, 0, 74, 0
2, 54328, Note_on_c, 0, 84, 0
2, 54329, Note_on_c, 0, 78, 0
2, 54330, Note_on_c, 0, 74, 34
2, 54359, Note_on_c, 0, 74, 0
2, 54360, Note_on_c, 0, 83, 68
2, 54360, Note_on_c, 0, 79, 60
2, 54388, Note_on_c, 0, 83, 0
2, 54389, Note_on_c, 0, 79, 0
2, 54390, Note_on_c, 0, 74, 45
2, 54420, Note_on_c, 0, 83, 45
2, 54420, Note_on_c, 0, 79, 45
2, 54421, Note_on_c, 0, 74, 0
2, 54450, Note_on_c, 0, 74, 45
2, 54451, Note_on_c, 0, 79, 0
2, 54452, Note_on_c, 0, 83, 0
2, 54473, Note_on_c, 0, 74, 0
2, 54480, Note_on_c, 0, 74, 68
2, 54480, Note_on_c, 0, 79, 52
2, 54506, Note_on_c, 0, 74, 0
2, 54510, Note_on_c, 0, 71, 39
2, 54511, Note_on_c, 0, 79, 0
2, 54537, Note_on_c, 0, 71, 0
2, 54540, Note_on_c, 0, 79, 52
2, 54540, Note_on_c, 0, 74, 52
2, 54569, Note_on_c, 0, 74, 0
2, 54570, Note_on_c, 0, 71, 52
2, 54571, Note_on_c, 0, 79, 0
2, 54586, Note_on_c, 0, 71, 0
2, 54600, Note_on_c, 0, 71, 52
2, 54600, Note_on_c, 0, 74, 60
2, 54629, Note_on_c, 0, 74, 0
2, 54630, Note_on_c, 0, 71, 0
2, 54630, Note_on_c, 0, 67, 52
2, 54660, Note_on_c, 0, 71, 52
2, 54660, Note_on_c, 0, 74, 52
2, 54662, Note_on_c, 0, 67, 0
2, 54683, Note_on_c, 0, 74, 0
2, 54684, Note_on_c, 0, 71, 0
2, 54690, Note_on_c, 0, 67, 45
2, 54705, Note_on_c, 0, 67, 0
2, 54720, Note_on_c, 0, 79, 78
2, 54720, Note_on_c, 0, 71, 78
2, 54720, Note_on_c, 0, 74, 78
2, 54814, Note_on_c, 0, 74, 0
2, 54815, Note_on_c, 0, 79, 0
2, 54816, Note_on_c, 0, 71, 0
2, 55080, Note_on_c, 0, 79, 60
2, 55440, Note_on_c, 0, 76, 39
2, 55446, Note_on_c, 0, 79, 0
2, 55794, Note_on_c, 0, 76, 0
2, 55800, Note_on_c, 0, 72, 34
2, 56160, Note_on_c, 0, 69, 39
2, 56160, Note_on_c, 0, 81, 25
2, 56161, Note_on_c, 0, 72, 0
2, 56501, Note_on_c, 0, 69, 0
2, 56506, Note_on_c, 0, 81, 0
2, 56580, Note_on_c, 0, 74, 29
2, 56580, Note_on_c, 0, 77, 29
2, 56631, Note_on_c, 0, 77, 0
2, 56637, Note_on_c, 0, 74, 0
2, 56640, Note_on_c, 0, 73, 29
2, 56640, Note_on_c, 0, 76, 25
2, 56690, Note_on_c, 0, 76, 0
2, 56698, Note_on_c, 0, 73, 0
2, 56700, Note_on_c, 0, 74, 34
2, 56700, Note_on_c, 0, 77, 25
2, 56747, Note_on_c, 0, 77, 0
2, 56760, Note_on_c, 0, 79, 29
2, 56760, Note_on_c, 0, 76, 20
2, 56766, Note_on_c, 0, 74, 0
2, 56815, Note_on_c, 0, 79, 0
2, 56817, Note_on_c, 0, 76, 0
2, 56820, Note_on_c, 0, 74, 20
2, 56820, Note_on_c, 0, 77, 9
2, 56839, Note_on_c, 0, 77, 0
2, 56839, Note_on_c, 0, 74, 0
2, 56940, Note_on_c, 0, 72, 18
2, 56940, Note_on_c, 0, 76, 14
2, 56998, Note_on_c, 0, 76, 0
2, 57000, Note_on_c, 0, 71, 20
2, 57000, Note_on_c, 0, 75, 29
2, 57002, Note_on_c, 0, 72, 0
2, 57051, Note_on_c, 0, 75, 0
2, 57058, Note_on_c, 0, 71, 0
2, 57060, Note_on_c, 0, 72, 18
2, 57060, Note_on_c, 0, 76, 25
2, 57082, Note_on_c, 0, 72, 0
2, 57084, Note_on_c, 0, 76, 0
2, 57120, Note_on_c, 0, 77, 39
2, 57120, Note_on_c, 0, 81, 39
2, 57150, Note_on_c, 0, 77, 0
2, 57180, Note_on_c, 0, 74, 29
2, 57180, Note_on_c, 0, 77, 34
2, 57190, Note_on_c, 0, 81, 0
2, 57202, Note_on_c, 0, 77, 0
2, 57208, Note_on_c, 0, 74, 0
2, 57300, Note_on_c, 0, 76, 18
2, 57300, Note_on_c, 0, 72, 18
2, 57356, Note_on_c, 0, 76, 0
2, 57359, Note_on_c, 0, 72, 0
2, 57360, Note_on_c, 0, 75, 34
2, 57360, Note_on_c, 0, 71, 14
2, 57412, Note_on_c, 0, 75, 0
2, 57420, Note_on_c, 0, 72, 25
2, 57420, Note_on_c, 0, 76, 25
2, 57426, Note_on_c, 0, 71, 0
2, 57438, Note_on_c, 0, 76, 0
2, 57445, Note_on_c, 0, 72, 0
2, 57480, Note_on_c, 0, 79, 34
2, 57480, Note_on_c, 0, 76, 34
2, 57509, Note_on_c, 0, 76, 0
2, 57540, Note_on_c, 0, 72, 25
2, 57540, Note_on_c, 0, 76, 14
2, 57548, Note_on_c, 0, 79, 0
2, 57561, Note_on_c, 0, 76, 0
2, 57572, Note_on_c, 0, 72, 0
2, 57660, Note_on_c, 0, 71, 25
2, 57660, Note_on_c, 0, 74, 29
2, 57715, Note_on_c, 0, 71, 0
2, 57717, Note_on_c, 0, 74, 0
2, 57720, Note_on_c, 0, 70, 45
2, 57720, Note_on_c, 0, 73, 29
2, 57751, Note_on_c, 0, 73, 0
2, 57761, Note_on_c, 0, 70, 0
2, 57780, Note_on_c, 0, 74, 45
2, 57780, Note_on_c, 0, 71, 34
2, 57814, Note_on_c, 0, 74, 0
2, 57839, Note_on_c, 0, 71, 0
2, 57840, Note_on_c, 0, 74, 29
2, 57840, Note_on_c, 0, 77, 25
2, 57877, Note_on_c, 0, 74, 0
2, 57892, Note_on_c, 0, 77, 0
2, 57900, Note_on_c, 0, 71, 29
2, 57900, Note_on_c, 0, 74, 34
2, 57914, Note_on_c, 0, 71, 0
2, 57929, Note_on_c, 0, 74, 0
2, 57960, Note_on_c, 0, 60, 88
2, 57960, Note_on_c, 0, 72, 88
2, 58065, Note_on_c, 0, 72, 0
2, 58092, Note_on_c, 0, 60, 0
2, 58170, Note_on_c, 0, 60, 34
2, 58185, Note_on_c, 0, 62, 60
2, 58190, Note_on_c, 0, 60, 0
2, 58200, Note_on_c, 0, 62, 0
2, 58200, Note_on_c, 0, 64, 78
2, 58211, Note_on_c, 0, 64, 0
2, 58278, Note_on_c, 0, 64, 39
2, 58290, Note_on_c, 0, 65, 78
2, 58293, Note_on_c, 0, 64, 0
2, 58305, Note_on_c, 0, 65, 0
2, 58305, Note_on_c, 0, 67, 88
2, 58432, Note_on_c, 0, 67, 0
2, 58515, Note_on_c, 0, 64, 29
2, 58533, Note_on_c, 0, 65, 60
2, 58540, Note_on_c, 0, 64, 0
2, 58545, Note_on_c, 0, 67, 68
2, 58552, Note_on_c, 0, 65, 0
2, 58564, Note_on_c, 0, 67, 0
2, 58631, Note_on_c, 0, 67, 52
2, 58646, Note_on_c, 0, 69, 45
2, 58653, Note_on_c, 0, 67, 0
2, 58664, Note_on_c, 0, 71, 39
2, 58672, Note_on_c, 0, 69, 0
2, 58680, Note_on_c, 0, 72, 78
2, 58680, Note_on_c, 0, 64, 78
2, 58682, Note_on_c, 0, 71, 0
2, 58740, Note_on_c, 0, 60, 60
2, 58744, Note_on_c, 0, 64, 0
2, 58770, Note_on_c, 0, 57, 45
2, 58775, Note_on_c, 0, 72, 0
2, 58785, Note_on_c, 0, 57, 0
2, 58791, Note_on_c, 0, 60, 0
2, 58800, Note_on_c, 0, 64, 60
2, 58860, Note_on_c, 0, 64, 0
2, 58860, Note_on_c, 0, 67, 68
2, 58881, Note_on_c, 0, 67, 0
2, 58890, Note_on_c, 0, 64, 20
2, 58913, Note_on_c, 0, 64, 0
2, 58920, Note_on_c, 0, 72, 68
2, 58948, Note_on_c, 0, 72, 0
2, 58950, Note_on_c, 0, 67, 45
2, 58980, Note_on_c, 0, 76, 60
2, 58995, Note_on_c, 0, 67, 0
2, 59008, Note_on_c, 0, 76, 0
2, 59010, Note_on_c, 0, 72, 20
2, 59035, Note_on_c, 0, 72, 0
2, 59040, Note_on_c, 0, 77, 88
2, 59040, Note_on_c, 0, 65, 100
2, 59063, Note_on_c, 0, 77, 0
2, 59074, Note_on_c, 0, 65, 0
2, 59100, Note_on_c, 0, 65, 78
2, 59130, Note_on_c, 0, 60, 52
2, 59133, Note_on_c, 0, 65, 0
2, 59148, Note_on_c, 0, 60, 0
2, 59160, Note_on_c, 0, 69, 60
2, 59181, Note_on_c, 0, 69, 0
2, 59190, Note_on_c, 0, 65, 52
2, 59213, Note_on_c, 0, 65, 0
2, 59220, Note_on_c, 0, 72, 52
2, 59238, Note_on_c, 0, 72, 0
2, 59250, Note_on_c, 0, 69, 25
2, 59280, Note_on_c, 0, 74, 60
2, 59280, Note_on_c, 0, 77, 60
2, 59285, Note_on_c, 0, 69, 0
2, 59305, Note_on_c, 0, 77, 0
2, 59306, Note_on_c, 0, 74, 0
2, 59310, Note_on_c, 0, 69, 39
2, 59321, Note_on_c, 0, 69, 0
2, 59340, Note_on_c, 0, 83, 68
2, 59340, Note_on_c, 0, 77, 60
2, 59366, Note_on_c, 0, 77, 0
2, 59366, Note_on_c, 0, 83, 0
2, 59370, Note_on_c, 0, 72, 39
2, 59388, Note_on_c, 0, 72, 0
2, 59400, Note_on_c, 0, 84, 88
2, 59400, Note_on_c, 0, 76, 88
2, 59420, Note_on_c, 0, 84, 0
2, 59421, Note_on_c, 0, 76, 0
2, 59614, Note_on_c, 0, 60, 39
2, 59625, Note_on_c, 0, 62, 45
2, 59634, Note_on_c, 0, 60, 0
2, 59640, Note_on_c, 0, 62, 0
2, 59640, Note_on_c, 0, 64, 68
2, 59654, Note_on_c, 0, 64, 0
2, 59721, Note_on_c, 0, 64, 34
2, 59736, Note_on_c, 0, 65, 52
2, 59741, Note_on_c, 0, 64, 0
2, 59745, Note_on_c, 0, 67, 78
2, 59752, Note_on_c, 0, 65, 0
2, 59868, Note_on_c, 0, 67, 0
2, 59970, Note_on_c, 0, 64, 34
2, 59985, Note_on_c, 0, 65, 52
2, 59989, Note_on_c, 0, 64, 0
2, 59998, Note_on_c, 0, 67, 78
2, 60001, Note_on_c, 0, 65, 0
2, 60010, Note_on_c, 0, 67, 0
2, 60045, Note_on_c, 0, 67, 45
2, 60065, Note_on_c, 0, 67, 0
2, 60074, Note_on_c, 0, 69, 29
2, 60089, Note_on_c, 0, 71, 18
2, 60097, Note_on_c, 0, 69, 0
2, 60104, Note_on_c, 0, 72, 34
2, 60109, Note_on_c, 0, 71, 0
2, 60110, Note_on_c, 0, 72, 0
2, 60120, Note_on_c, 0, 72, 68
2, 60120, Note_on_c, 0, 64, 88
2, 60136, Note_on_c, 0, 64, 0
2, 60149, Note_on_c, 0, 72, 0
2, 60180, Note_on_c, 0, 60, 68
2, 60210, Note_on_c, 0, 55, 52
2, 60212, Note_on_c, 0, 60, 0
2, 60222, Note_on_c, 0, 55, 0
2, 60237, Note_on_c, 0, 64, 88
2, 60258, Note_on_c, 0, 64, 0
2, 60270, Note_on_c, 0, 60, 34
2, 60294, Note_on_c, 0, 60, 0
2, 60300, Note_on_c, 0, 67, 78
2, 60328, Note_on_c, 0, 67, 0
2, 60330, Note_on_c, 0, 64, 45
2, 60346, Note_on_c, 0, 64, 0
2, 60360, Note_on_c, 0, 72, 78
2, 60389, Note_on_c, 0, 72, 0
2, 60390, Note_on_c, 0, 67, 2
2, 60420, Note_on_c, 0, 76, 60
2, 60421, Note_on_c, 0, 67, 0
2, 60448, Note_on_c, 0, 76, 0
2, 60450, Note_on_c, 0, 72, 25
2, 60477, Note_on_c, 0, 72, 0
2, 60480, Note_on_c, 0, 65, 88
2, 60480, Note_on_c, 0, 77, 78
2, 60502, Note_on_c, 0, 77, 0
2, 60513, Note_on_c, 0, 65, 0
2, 60540, Note_on_c, 0, 65, 78
2, 60570, Note_on_c, 0, 60, 45
2, 60579, Note_on_c, 0, 65, 0
2, 60586, Note_on_c, 0, 60, 0
2, 60600, Note_on_c, 0, 69, 68
2, 60622, Note_on_c, 0, 69, 0
2, 60630, Note_on_c, 0, 65, 34
2, 60649, Note_on_c, 0, 65, 0
2, 60660, Note_on_c, 0, 72, 60
2, 60676, Note_on_c, 0, 72, 0
2, 60690, Note_on_c, 0, 69, 34
2, 60718, Note_on_c, 0, 69, 0
2, 60720, Note_on_c, 0, 77, 68
2, 60720, Note_on_c, 0, 74, 78
2, 60745, Note_on_c, 0, 77, 0
2, 60746, Note_on_c, 0, 74, 0
2, 60750, Note_on_c, 0, 72, 34
2, 60776, Note_on_c, 0, 72, 0
2, 60780, Note_on_c, 0, 77, 68
2, 60780, Note_on_c, 0, 83, 68
2, 60789, Note_on_c, 0, 83, 0
2, 60810, Note_on_c, 0, 74, 29
2, 60817, Note_on_c, 0, 77, 0
2, 60821, Note_on_c, 0, 74, 0
2, 60840, Note_on_c, 0, 76, 78
2, 60840, Note_on_c, 0, 84, 60
2, 60840, Note_on_c, 0, 72, 60
2, 60851, Note_on_c, 0, 84, 0
2, 60853, Note_on_c, 0, 76, 0
2, 60858, Note_on_c, 0, 72, 0
2, 60900, Note_on_c, 0, 60, 52
2, 60930, Note_on_c, 0, 55, 52
2, 60944, Note_on_c, 0, 60, 0
2, 60945, Note_on_c, 0, 55, 0
2, 60960, Note_on_c, 0, 64, 78
2, 60980, Note_on_c, 0, 64, 0
2, 60990, Note_on_c, 0, 60, 45
2, 61018, Note_on_c, 0, 60, 0
2, 61020, Note_on_c, 0, 67, 68
2, 61044, Note_on_c, 0, 67, 0
2, 61050, Note_on_c, 0, 64, 34
2, 61065, Note_on_c, 0, 64, 0
2, 61080, Note_on_c, 0, 72, 68
2, 61109, Note_on_c, 0, 72, 0
2, 61110, Note_on_c, 0, 67, 9
2, 61140, Note_on_c, 0, 76, 45
2, 61142, Note_on_c, 0, 67, 0
2, 61170, Note_on_c, 0, 72, 52
2, 61173, Note_on_c, 0, 76, 0
2, 61178, Note_on_c, 0, 72, 0
2, 61200, Note_on_c, 0, 74, 88
2, 61200, Note_on_c, 0, 77, 52
2, 61216, Note_on_c, 0, 74, 0
2, 61220, Note_on_c, 0, 77, 0
2, 61260, Note_on_c, 0, 77, 78
2, 61260, Note_on_c, 0, 74, 78
2, 61273, Note_on_c, 0, 74, 0
2, 61278, Note_on_c, 0, 77, 0
2, 61320, Note_on_c, 0, 77, 60
2, 61320, Note_on_c, 0, 72, 20
2, 61334, Note_on_c, 0, 72, 0
2, 61362, Note_on_c, 0, 77, 0
2, 61380, Note_on_c, 0, 86, 78
2, 61397, Note_on_c, 0, 86, 0
2, 61440, Note_on_c, 0, 72, 60
2, 61440, Note_on_c, 0, 76, 60
2, 61492, Note_on_c, 0, 76, 0
2, 61498, Note_on_c, 0, 72, 0
2, 61500, Note_on_c, 0, 84, 78
2, 61517, Note_on_c, 0, 84, 0
2, 61560, Note_on_c, 0, 84, 88
2, 61560, Note_on_c, 0, 72, 78
2, 61560, Note_on_c, 0, 76, 78
2, 61560, Note_on_c, 0, 79, 78
2, 61624, Note_on_c, 0, 84, 0
2, 61625, Note_on_c, 0, 76, 0
2, 61630, Note_on_c, 0, 79, 0
2, 61631, Note_on_c, 0, 72, 0
2, 61680, Note_on_c, 0, 83, 78
2, 61680, Note_on_c, 0, 74, 88
2, 61680, Note_on_c, 0, 71, 78
2, 61680, Note_on_c, 0, 79, 78
2, 61779, Note_on_c, 0, 79, 0
2, 61780, Note_on_c, 0, 74, 0
2, 61781, Note_on_c, 0, 71, 0
2, 61782, Note_on_c, 0, 83, 0
2, 61980, Note_on_c, 0, 64, 52
2, 61980, Note_on_c, 0, 67, 60
2, 61986, Note_on_c, 0, 64, 0
2, 61988, Note_on_c, 0, 67, 0
2, 62040, Note_on_c, 0, 77, 68
2, 62040, Note_on_c, 0, 69, 60
2, 62064, Note_on_c, 0, 69, 0
2, 62065, Note_on_c, 0, 77, 0
2, 62100, Note_on_c, 0, 76, 45
2, 62100, Note_on_c, 0, 67, 45
2, 62114, Note_on_c, 0, 76, 0
2, 62119, Note_on_c, 0, 67, 0
2, 62160, Note_on_c, 0, 74, 52
2, 62160, Note_on_c, 0, 65, 52
2, 62175, Note_on_c, 0, 74, 0
2, 62178, Note_on_c, 0, 65, 0
2, 62220, Note_on_c, 0, 72, 45
2, 62220, Note_on_c, 0, 64, 45
2, 62236, Note_on_c, 0, 64, 0
2, 62236, Note_on_c, 0, 72, 0
2, 62280, Note_on_c, 0, 71, 68
2, 62280, Note_on_c, 0, 62, 52
2, 62296, Note_on_c, 0, 71, 0
2, 62298, Note_on_c, 0, 62, 0
2, 62340, Note_on_c, 0, 69, 45
2, 62340, Note_on_c, 0, 60, 34
2, 62354, Note_on_c, 0, 69, 0
2, 62357, Note_on_c, 0, 60, 0
2, 62400, Note_on_c, 0, 67, 52
2, 62400, Note_on_c, 0, 59, 39
2, 62419, Note_on_c, 0, 59, 0
2, 62424, Note_on_c, 0, 67, 0
2, 62460, Note_on_c, 0, 62, 45
2, 62460, Note_on_c, 0, 65, 39
2, 62480, Note_on_c, 0, 65, 0
2, 62481, Note_on_c, 0, 62, 0
2, 62520, Note_on_c, 0, 60, 34
2, 62520, Note_on_c, 0, 64, 45
2, 62534, Note_on_c, 0, 64, 0
2, 62537, Note_on_c, 0, 60, 0
2, 62580, Note_on_c, 0, 62, 60
2, 62580, Note_on_c, 0, 59, 29
2, 62586, Note_on_c, 0, 59, 0
2, 62591, Note_on_c, 0, 62, 0
2, 62700, Note_on_c, 0, 79, 60
2, 62752, Note_on_c, 0, 79, 0
2, 62760, Note_on_c, 0, 76, 60
2, 62760, Note_on_c, 0, 84, 60
2, 62775, Note_on_c, 0, 76, 0
2, 62782, Note_on_c, 0, 84, 0
2, 62820, Note_on_c, 0, 79, 39
2, 62820, Note_on_c, 0, 83, 39
2, 62843, Note_on_c, 0, 79, 0
2, 62856, Note_on_c, 0, 83, 0
2, 62880, Note_on_c, 0, 77, 20
2, 62880, Note_on_c, 0, 81, 29
2, 62903, Note_on_c, 0, 77, 0
2, 62918, Note_on_c, 0, 81, 0
2, 62940, Note_on_c, 0, 76, 25
2, 62940, Note_on_c, 0, 79, 39
2, 62962, Note_on_c, 0, 79, 0
2, 62964, Note_on_c, 0, 76, 0
2, 63000, Note_on_c, 0, 74, 45
2, 63000, Note_on_c, 0, 77, 45
2, 63011, Note_on_c, 0, 77, 0
2, 63014, Note_on_c, 0, 74, 0
2, 63060, Note_on_c, 0, 76, 34
2, 63060, Note_on_c, 0, 72, 29
2, 63070, Note_on_c, 0, 76, 0
2, 63073, Note_on_c, 0, 72, 0
2, 63120, Note_on_c, 0, 71, 39
2, 63120, Note_on_c, 0, 74, 39
2, 63132, Note_on_c, 0, 71, 0
2, 63135, Note_on_c, 0, 74, 0
2, 63180, Note_on_c, 0, 76, 25
2, 63180, Note_on_c, 0, 72, 20
2, 63192, Note_on_c, 0, 72, 0
2, 63193, Note_on_c, 0, 76, 0
2, 63240, Note_on_c, 0, 77, 29
2, 63240, Note_on_c, 0, 74, 39
2, 63252, Note_on_c, 0, 74, 0
2, 63263, Note_on_c, 0, 77, 0
2, 63300, Note_on_c, 0, 71, 34
2, 63300, Note_on_c, 0, 79, 39
2, 63317, Note_on_c, 0, 79, 0
2, 63317, Note_on_c, 0, 71, 0
2, 63360, Note_on_c, 0, 76, 52
2, 63360, Note_on_c, 0, 72, 39
2, 63376, Note_on_c, 0, 72, 0
2, 63379, Note_on_c, 0, 76, 0
2, 63420, Note_on_c, 0, 67, 20
2, 63436, Note_on_c, 0, 67, 0
2, 63480, Note_on_c, 0, 69, 52
2, 63480, Note_on_c, 0, 77, 52
2, 63496, Note_on_c, 0, 77, 0
2, 63496, Note_on_c, 0, 69, 0
2, 63540, Note_on_c, 0, 76, 39
2, 63540, Note_on_c, 0, 67, 39
2, 63555, Note_on_c, 0, 76, 0
2, 63556, Note_on_c, 0, 67, 0
2, 63600, Note_on_c, 0, 74, 45
2, 63600, Note_on_c, 0, 65, 52
2, 63613, Note_on_c, 0, 74, 0
2, 63616, Note_on_c, 0, 65, 0
2, 63660, Note_on_c, 0, 72, 52
2, 63660, Note_on_c, 0, 64, 39
2, 63675, Note_on_c, 0, 64, 0
2, 63675, Note_on_c, 0, 72, 0
2, 63720, Note_on_c, 0, 71, 45
2, 63720, Note_on_c, 0, 62, 39
2, 63733, Note_on_c, 0, 71, 0
2, 63735, Note_on_c, 0, 62, 0
2, 63780, Note_on_c, 0, 69, 45
2, 63780, Note_on_c, 0, 60, 39
2, 63793, Note_on_c, 0, 69, 0
2, 63794, Note_on_c, 0, 60, 0
2, 63840, Note_on_c, 0, 67, 45
2, 63840, Note_on_c, 0, 59, 39
2, 63855, Note_on_c, 0, 59, 0
2, 63861, Note_on_c, 0, 67, 0
2, 63900, Note_on_c, 0, 65, 45
2, 63900, Note_on_c, 0, 62, 29
2, 63910, Note_on_c, 0, 62, 0
2, 63911, Note_on_c, 0, 65, 0
2, 63960, Note_on_c, 0, 60, 25
2, 63960, Note_on_c, 0, 64, 39
2, 63973, Note_on_c, 0, 64, 0
2, 63974, Note_on_c, 0, 60, 0
2, 64020, Note_on_c, 0, 62, 52
2, 64020, Note_on_c, 0, 59, 18
2, 64027, Note_on_c, 0, 59, 0
2, 64033, Note_on_c, 0, 62, 0
2, 64140, Note_on_c, 0, 79, 60
2, 64158, Note_on_c, 0, 79, 0
2, 64200, Note_on_c, 0, 76, 45
2, 64200, Note_on_c, 0, 84, 60
2, 64216, Note_on_c, 0, 76, 0
2, 64223, Note_on_c, 0, 84, 0
2, 64260, Note_on_c, 0, 79, 45
2, 64260, Note_on_c, 0, 83, 45
2, 64273, Note_on_c, 0, 79, 0
2, 64275, Note_on_c, 0, 83, 0
2, 64320, Note_on_c, 0, 77, 52
2, 64320, Note_on_c, 0, 81, 52
2, 64332, Note_on_c, 0, 81, 0
2, 64336, Note_on_c, 0, 77, 0
2, 64380, Note_on_c, 0, 79, 52
2, 64380, Note_on_c, 0, 76, 39
2, 64391, Note_on_c, 0, 79, 0
2, 64392, Note_on_c, 0, 76, 0
2, 64440, Note_on_c, 0, 77, 52
2, 64440, Note_on_c, 0, 74, 39
2, 64451, Note_on_c, 0, 77, 0
2, 64453, Note_on_c, 0, 74, 0
2, 64500, Note_on_c, 0, 72, 34
2, 64500, Note_on_c, 0, 76, 34
2, 64514, Note_on_c, 0, 76, 0
2, 64516, Note_on_c, 0, 72, 0
2, 64560, Note_on_c, 0, 71, 39
2, 64560, Note_on_c, 0, 74, 39
2, 64572, Note_on_c, 0, 74, 0
2, 64573, Note_on_c, 0, 71, 0
2, 64620, Note_on_c, 0, 72, 34
2, 64620, Note_on_c, 0, 76, 29
2, 64637, Note_on_c, 0, 72, 0
2, 64639, Note_on_c, 0, 76, 0
2, 64680, Note_on_c, 0, 77, 45
2, 64680, Note_on_c, 0, 74, 45
2, 64700, Note_on_c, 0, 74, 0
2, 64712, Note_on_c, 0, 77, 0
2, 64740, Note_on_c, 0, 71, 60
2, 64740, Note_on_c, 0, 79, 52
2, 64753, Note_on_c, 0, 79, 0
2, 64754, Note_on_c, 0, 71, 0
2, 64800, Note_on_c, 0, 84, 68
2, 64800, Note_on_c, 0, 76, 60
2, 64825, Note_on_c, 0, 76, 0
2, 64829, Note_on_c, 0, 84, 0
2, 64830, Note_on_c, 0, 72, 1
2, 64860, Note_on_c, 0, 84, 52
2, 64863, Note_on_c, 0, 72, 0
2, 64890, Note_on_c, 0, 84, 0
2, 64890, Note_on_c, 0, 72, 9
2, 64917, Note_on_c, 0, 72, 0
2, 64920, Note_on_c, 0, 84, 52
2, 64952, Note_on_c, 0, 84, 0
2, 64980, Note_on_c, 0, 72, 68
2, 65010, Note_on_c, 0, 74, 34
2, 65020, Note_on_c, 0, 72, 0
2, 65026, Note_on_c, 0, 74, 0
2, 65040, Note_on_c, 0, 76, 68
2, 65040, Note_on_c, 0, 72, 60
2, 65057, Note_on_c, 0, 76, 0
2, 65061, Note_on_c, 0, 72, 0
2, 65100, Note_on_c, 0, 76, 60
2, 65100, Note_on_c, 0, 72, 52
2, 65112, Note_on_c, 0, 76, 0
2, 65115, Note_on_c, 0, 72, 0
2, 65160, Note_on_c, 0, 76, 78
2, 65160, Note_on_c, 0, 72, 88
2, 65160, Note_on_c, 0, 67, 88
2, 65181, Note_on_c, 0, 72, 0
2, 65192, Note_on_c, 0, 67, 0
2, 65198, Note_on_c, 0, 76, 0
2, 65220, Note_on_c, 0, 74, 88
2, 65245, Note_on_c, 0, 74, 0
2, 65250, Note_on_c, 0, 76, 45
2, 65264, Note_on_c, 0, 76, 0
2, 65280, Note_on_c, 0, 72, 78
2, 65280, Note_on_c, 0, 77, 78
2, 65325, Note_on_c, 0, 77, 0
2, 65329, Note_on_c, 0, 72, 0
2, 65340, Note_on_c, 0, 76, 45
2, 65363, Note_on_c, 0, 77, 29
2, 65366, Note_on_c, 0, 76, 0
2, 65384, Note_on_c, 0, 77, 0
2, 65400, Note_on_c, 0, 72, 60
2, 65400, Note_on_c, 0, 81, 68
2, 65455, Note_on_c, 0, 81, 0
2, 65460, Note_on_c, 0, 79, 60
2, 65464, Note_on_c, 0, 72, 0
2, 65490, Note_on_c, 0, 81, 39
2, 65493, Note_on_c, 0, 79, 0
2, 65496, Note_on_c, 0, 81, 0
2, 65520, Note_on_c, 0, 79, 68
2, 65520, Note_on_c, 0, 84, 60
2, 65550, Note_on_c, 0, 84, 0
2, 65550, Note_on_c, 0, 72, 45
2, 65551, Note_on_c, 0, 79, 0
2, 65580, Note_on_c, 0, 84, 60
2, 65584, Note_on_c, 0, 72, 0
2, 65610, Note_on_c, 0, 72, 20
2, 65611, Note_on_c, 0, 84, 0
2, 65630, Note_on_c, 0, 72, 0
2, 65640, Note_on_c, 0, 84, 78
2, 65640, Note_on_c, 0, 76, 78
2, 65684, Note_on_c, 0, 76, 0
2, 65684, Note_on_c, 0, 84, 0
2, 65700, Note_on_c, 0, 72, 45
2, 65728, Note_on_c, 0, 72, 0
2, 65730, Note_on_c, 0, 74, 60
2, 65748, Note_on_c, 0, 74, 0
2, 65760, Note_on_c, 0, 72, 68
2, 65760, Note_on_c, 0, 76, 78
2, 65785, Note_on_c, 0, 76, 0
2, 65788, Note_on_c, 0, 72, 0
2, 65820, Note_on_c, 0, 76, 68
2, 65820, Note_on_c, 0, 72, 60
2, 65830, Note_on_c, 0, 76, 0
2, 65834, Note_on_c, 0, 72, 0
2, 65880, Note_on_c, 0, 76, 78
2, 65880, Note_on_c, 0, 72, 78
2, 65880, Note_on_c, 0, 67, 78
2, 65907, Note_on_c, 0, 72, 0
2, 65917, Note_on_c, 0, 67, 0
2, 65924, Note_on_c, 0, 76, 0
2, 65940, Note_on_c, 0, 74, 60
2, 65963, Note_on_c, 0, 76, 39
2, 65969, Note_on_c, 0, 74, 0
2, 65976, Note_on_c, 0, 76, 0
2, 66000, Note_on_c, 0, 77, 78
2, 66000, Note_on_c, 0, 72, 78
2, 66051, Note_on_c, 0, 72, 0
2, 66056, Note_on_c, 0, 77, 0
2, 66060, Note_on_c, 0, 76, 60
2, 66083, Note_on_c, 0, 77, 60
2, 66089, Note_on_c, 0, 76, 0
2, 66104, Note_on_c, 0, 77, 0
2, 66120, Note_on_c, 0, 72, 78
2, 66120, Note_on_c, 0, 81, 78
2, 66168, Note_on_c, 0, 81, 0
2, 66179, Note_on_c, 0, 72, 0
2, 66180, Note_on_c, 0, 79, 39
2, 66207, Note_on_c, 0, 79, 0
2, 66208, Note_on_c, 0, 81, 52
2, 66232, Note_on_c, 0, 81, 0
2, 66240, Note_on_c, 0, 84, 78
2, 66240, Note_on_c, 0, 79, 78
2, 66267, Note_on_c, 0, 72, 45
2, 66269, Note_on_c, 0, 79, 0
2, 66276, Note_on_c, 0, 84, 0
2, 66300, Note_on_c, 0, 84, 60
2, 66301, Note_on_c, 0, 72, 0
2, 66327, Note_on_c, 0, 72, 25
2, 66329, Note_on_c, 0, 84, 0
2, 66346, Note_on_c, 0, 72, 0
2, 66360, Note_on_c, 0, 76, 88
2, 66360, Note_on_c, 0, 84, 78
2, 66396, Note_on_c, 0, 84, 0
2, 66400, Note_on_c, 0, 76, 0
2, 66420, Note_on_c, 0, 72, 45
2, 66446, Note_on_c, 0, 72, 0
2, 66450, Note_on_c, 0, 74, 25
2, 66469, Note_on_c, 0, 74, 0
2, 66480, Note_on_c, 0, 76, 78
2, 66480, Note_on_c, 0, 72, 68
2, 66505, Note_on_c, 0, 72, 0
2, 66506, Note_on_c, 0, 76, 0
2, 66540, Note_on_c, 0, 72, 60
2, 66540, Note_on_c, 0, 76, 45
2, 66548, Note_on_c, 0, 76, 0
2, 66553, Note_on_c, 0, 72, 0
2, 66600, Note_on_c, 0, 72, 88
2, 66600, Note_on_c, 0, 76, 78
2, 66600, Note_on_c, 0, 67, 78
2, 66619, Note_on_c, 0, 72, 0
2, 66633, Note_on_c, 0, 67, 0
2, 66642, Note_on_c, 0, 76, 0
2, 66660, Note_on_c, 0, 74, 52
2, 66680, Note_on_c, 0, 74, 0
2, 66690, Note_on_c, 0, 76, 25
2, 66699, Note_on_c, 0, 76, 0
2, 66720, Note_on_c, 0, 77, 78
2, 66720, Note_on_c, 0, 69, 78
2, 66720, Note_on_c, 0, 72, 88
2, 66752, Note_on_c, 0, 69, 0
2, 66753, Note_on_c, 0, 72, 0
2, 66762, Note_on_c, 0, 77, 0
2, 66780, Note_on_c, 0, 76, 25
2, 66802, Note_on_c, 0, 76, 0
2, 66810, Note_on_c, 0, 77, 60
2, 66828, Note_on_c, 0, 77, 0
2, 66840, Note_on_c, 0, 70, 88
2, 66840, Note_on_c, 0, 79, 78
2, 66840, Note_on_c, 0, 72, 78
2, 66867, Note_on_c, 0, 72, 0
2, 66875, Note_on_c, 0, 70, 0
2, 66883, Note_on_c, 0, 79, 0
2, 66900, Note_on_c, 0, 77, 39
2, 66924, Note_on_c, 0, 77, 0
2, 66930, Note_on_c, 0, 79, 52
2, 66952, Note_on_c, 0, 79, 0
2, 66960, Note_on_c, 0, 81, 88
2, 66960, Note_on_c, 0, 69, 88
2, 66960, Note_on_c, 0, 72, 88
2, 67025, Note_on_c, 0, 72, 0
2, 67026, Note_on_c, 0, 69, 0
2, 67029, Note_on_c, 0, 81, 0
2, 67232, Note_on_c, 0, 72, 39
2, 67242, Note_on_c, 0, 72, 0
2, 67243, Note_on_c, 0, 74, 45
2, 67250, Note_on_c, 0, 74, 0
2, 67270, Note_on_c, 0, 76, 60
2, 67274, Note_on_c, 0, 76, 0
2, 67280, Note_on_c, 0, 77, 60
2, 67284, Note_on_c, 0, 77, 0
2, 67290, Note_on_c, 0, 79, 60
2, 67294, Note_on_c, 0, 79, 0
2, 67300, Note_on_c, 0, 81, 60
2, 67304, Note_on_c, 0, 81, 0
2, 67320, Note_on_c, 0, 83, 52
2, 67320, Note_on_c, 0, 79, 78
2, 67320, Note_on_c, 0, 74, 78
2, 67372, Note_on_c, 0, 79, 0
2, 67373, Note_on_c, 0, 74, 0
2, 67375, Note_on_c, 0, 83, 0
2, 67597, Note_on_c, 0, 74, 88
2, 67608, Note_on_c, 0, 76, 88
2, 67616, Note_on_c, 0, 74, 0
2, 67622, Note_on_c, 0, 77, 88
2, 67627, Note_on_c, 0, 76, 0
2, 67640, Note_on_c, 0, 79, 88
2, 67641, Note_on_c, 0, 77, 0
2, 67650, Note_on_c, 0, 81, 88
2, 67659, Note_on_c, 0, 79, 0
2, 67660, Note_on_c, 0, 83, 88
2, 67669, Note_on_c, 0, 81, 0
2, 67679, Note_on_c, 0, 83, 0
2, 67680, Note_on_c, 0, 84, 88
2, 67680, Note_on_c, 0, 79, 88
2, 67680, Note_on_c, 0, 72, 88
2, 67742, Note_on_c, 0, 72, 0
2, 67751, Note_on_c, 0, 79, 0
2, 67752, Note_on_c, 0, 84, 0
2, 67800, Note_on_c, 0, 86, 88
2, 67800, Note_on_c, 0, 79, 78
2, 67800, Note_on_c, 0, 77, 88
2, 67800, Note_on_c, 0, 83, 88
2, 67851, Note_on_c, 0, 86, 0
2, 67852, Note_on_c, 0, 83, 0
2, 67857, Note_on_c, 0, 77, 0
2, 67857, Note_on_c, 0, 79, 0
2, 67920, Note_on_c, 0, 88, 88
2, 67920, Note_on_c, 0, 79, 88
2, 67920, Note_on_c, 0, 76, 78
2, 67920, Note_on_c, 0, 84, 78
2, 67971, Note_on_c, 0, 84, 0
2, 67975, Note_on_c, 0, 88, 0
2, 67976, Note_on_c, 0, 79, 0
2, 67987, Note_on_c, 0, 76, 0
2, 68040, Note_on_c, 0, 81, 78
2, 68040, Note_on_c, 0, 77, 78
2, 68064, Note_on_c, 0, 81, 0
2, 68067, Note_on_c, 0, 77, 0
2, 68070, Note_on_c, 0, 72, 45
2, 68100, Note_on_c, 0, 81, 52
2, 68100, Note_on_c, 0, 77, 60
2, 68105, Note_on_c, 0, 72, 0
2, 68126, Note_on_c, 0, 77, 0
2, 68129, Note_on_c, 0, 81, 0
2, 68130, Note_on_c, 0, 72, 45
2, 68148, Note_on_c, 0, 72, 0
2, 68160, Note_on_c, 0, 77, 88
2, 68160, Note_on_c, 0, 83, 88
2, 68160, Note_on_c, 0, 80, 60
2, 68181, Note_on_c, 0, 83, 0
2, 68187, Note_on_c, 0, 80, 0
2, 68190, Note_on_c, 0, 74, 60
2, 68193, Note_on_c, 0, 77, 0
2, 68220, Note_on_c, 0, 77, 60
2, 68220, Note_on_c, 0, 83, 60
2, 68220, Note_on_c, 0, 80, 68
2, 68229, Note_on_c, 0, 74, 0
2, 68250, Note_on_c, 0, 74, 45
2, 68254, Note_on_c, 0, 83, 0
2, 68260, Note_on_c, 0, 77, 0
2, 68261, Note_on_c, 0, 80, 0
2, 68265, Note_on_c, 0, 74, 0
2, 68280, Note_on_c, 0, 75, 39
2, 68280, Note_on_c, 0, 81, 88
2, 68280, Note_on_c, 0, 84, 88
2, 68294, Note_on_c, 0, 75, 0
2, 68310, Note_on_c, 0, 72, 39
2, 68320, Note_on_c, 0, 84, 0
2, 68320, Note_on_c, 0, 81, 0
2, 68322, Note_on_c, 0, 72, 0
2, 68340, Note_on_c, 0, 84, 20
2, 68340, Note_on_c, 0, 81, 34
2, 68340, Note_on_c, 0, 75, 39
2, 68352, Note_on_c, 0, 75, 0
2, 68353, Note_on_c, 0, 81, 0
2, 68353, Note_on_c, 0, 84, 0
2, 68370, Note_on_c, 0, 72, 39
2, 68382, Note_on_c, 0, 72, 0
2, 68400, Note_on_c, 0, 84, 78
2, 68400, Note_on_c, 0, 76, 68
2, 68400, Note_on_c, 0, 79, 60
2, 68430, Note_on_c, 0, 72, 60
2, 68431, Note_on_c, 0, 76, 0
2, 68433, Note_on_c, 0, 79, 0
2, 68436, Note_on_c, 0, 84, 0
2, 68460, Note_on_c, 0, 76, 45
2, 68460, Note_on_c, 0, 84, 45
2, 68460, Note_on_c, 0, 79, 34
2, 68464, Note_on_c, 0, 72, 0
2, 68487, Note_on_c, 0, 76, 0
2, 68487, Note_on_c, 0, 79, 0
2, 68490, Note_on_c, 0, 72, 45
2, 68491, Note_on_c, 0, 84, 0
2, 68520, Note_on_c, 0, 76, 52
2, 68520, Note_on_c, 0, 84, 52
2, 68520, Note_on_c, 0, 79, 45
2, 68523, Note_on_c, 0, 72, 0
2, 68550, Note_on_c, 0, 72, 39
2, 68551, Note_on_c, 0, 79, 0
2, 68552, Note_on_c, 0, 76, 0
2, 68557, Note_on_c, 0, 84, 0
2, 68580, Note_on_c, 0, 84, 52
2, 68580, Note_on_c, 0, 76, 45
2, 68580, Note_on_c, 0, 79, 45
2, 68585, Note_on_c, 0, 72, 0
2, 68607, Note_on_c, 0, 79, 0
2, 68609, Note_on_c, 0, 76, 0
2, 68609, Note_on_c, 0, 84, 0
2, 68610, Note_on_c, 0, 72, 39
2, 68640, Note_on_c, 0, 84, 60
2, 68640, Note_on_c, 0, 76, 52
2, 68640, Note_on_c, 0, 79, 39
2, 68645, Note_on_c, 0, 72, 0
2, 68669, Note_on_c, 0, 79, 0
2, 68670, Note_on_c, 0, 72, 45
2, 68673, Note_on_c, 0, 84, 0
2, 68676, Note_on_c, 0, 76, 0
2, 68700, Note_on_c, 0, 84, 60
2, 68700, Note_on_c, 0, 76, 39
2, 68700, Note_on_c, 0, 79, 39
2, 68702, Note_on_c, 0, 72, 0
2, 68730, Note_on_c, 0, 84, 0
2, 68730, Note_on_c, 0, 72, 45
2, 68731, Note_on_c, 0, 79, 0
2, 68739, Note_on_c, 0, 76, 0
2, 68757, Note_on_c, 0, 72, 0
2, 68760, Note_on_c, 0, 83, 68
2, 68760, Note_on_c, 0, 79, 68
2, 68790, Note_on_c, 0, 74, 52
2, 68791, Note_on_c, 0, 79, 0
2, 68792, Note_on_c, 0, 83, 0
2, 68820, Note_on_c, 0, 83, 52
2, 68820, Note_on_c, 0, 79, 52
2, 68825, Note_on_c, 0, 74, 0
2, 68847, Note_on_c, 0, 79, 0
2, 68847, Note_on_c, 0, 83, 0
2, 68850, Note_on_c, 0, 74, 29
2, 68880, Note_on_c, 0, 83, 52
2, 68880, Note_on_c, 0, 79, 52
2, 68888, Note_on_c, 0, 74, 0
2, 68909, Note_on_c, 0, 83, 0
2, 68910, Note_on_c, 0, 74, 45
2, 68911, Note_on_c, 0, 79, 0
2, 68940, Note_on_c, 0, 79, 60
2, 68940, Note_on_c, 0, 83, 52
2, 68941, Note_on_c, 0, 74, 0
2, 68966, Note_on_c, 0, 83, 0
2, 68968, Note_on_c, 0, 79, 0
2, 68970, Note_on_c, 0, 74, 52
2, 69000, Note_on_c, 0, 79, 60
2, 69000, Note_on_c, 0, 83, 60
2, 69005, Note_on_c, 0, 74, 0
2, 69028, Note_on_c, 0, 79, 0
2, 69030, Note_on_c, 0, 83, 0
2, 69030, Note_on_c, 0, 74, 52
2, 69060, Note_on_c, 0, 79, 60
2, 69060, Note_on_c, 0, 83, 52
2, 69066, Note_on_c, 0, 74, 0
2, 69087, Note_on_c, 0, 83, 0
2, 69090, Note_on_c, 0, 74, 39
2, 69093, Note_on_c, 0, 79, 0
2, 69107, Note_on_c, 0, 74, 0
2, 69120, Note_on_c, 0, 84, 68
2, 69120, Note_on_c, 0, 76, 78
2, 69120, Note_on_c, 0, 79, 68
2, 69200, Note_on_c, 0, 79, 0
2, 69201, Note_on_c, 0, 76, 0
2, 69204, Note_on_c, 0, 84, 0
2, 69330, Note_on_c, 0, 60, 20
2, 69345, Note_on_c, 0, 62, 60
2, 69353, Note_on_c, 0, 60, 0
2, 69360, Note_on_c, 0, 64, 88
2, 69362, Note_on_c, 0, 62, 0
2, 69371, Note_on_c, 0, 64, 0
2, 69450, Note_on_c, 0, 64, 34
2, 69465, Note_on_c, 0, 65, 45
2, 69466, Note_on_c, 0, 64, 0
2, 69480, Note_on_c, 0, 67, 60
2, 69484, Note_on_c, 0, 65, 0
2, 69607, Note_on_c, 0, 67, 0
2, 69690, Note_on_c, 0, 64, 20
2, 69705, Note_on_c, 0, 65, 52
2, 69713, Note_on_c, 0, 64, 0
2, 69720, Note_on_c, 0, 67, 60
2, 69724, Note_on_c, 0, 65, 0
2, 69738, Note_on_c, 0, 67, 0
2, 69795, Note_on_c, 0, 67, 45
2, 69810, Note_on_c, 0, 69, 52
2, 69813, Note_on_c, 0, 67, 0
2, 69825, Note_on_c, 0, 71, 52
2, 69835, Note_on_c, 0, 69, 0
2, 69837, Note_on_c, 0, 71, 0
2, 69840, Note_on_c, 0, 64, 60
2, 69840, Note_on_c, 0, 72, 88
2, 69933, Note_on_c, 0, 64, 0
2, 69947, Note_on_c, 0, 72, 0
2, 70035, Note_on_c, 0, 72, 39
2, 70050, Note_on_c, 0, 72, 0
2, 70050, Note_on_c, 0, 74, 60
2, 70064, Note_on_c, 0, 74, 0
2, 70065, Note_on_c, 0, 76, 68
2, 70080, Note_on_c, 0, 64, 34
2, 70100, Note_on_c, 0, 64, 0
2, 70106, Note_on_c, 0, 76, 0
2, 70155, Note_on_c, 0, 76, 5
2, 70167, Note_on_c, 0, 76, 0
2, 70170, Note_on_c, 0, 77, 45
2, 70182, Note_on_c, 0, 77, 0
2, 70185, Note_on_c, 0, 79, 29
2, 70185, Note_on_c, 0, 67, 68
2, 70268, Note_on_c, 0, 67, 0
2, 70288, Note_on_c, 0, 79, 0
2, 70410, Note_on_c, 0, 76, 45
2, 70425, Note_on_c, 0, 77, 18
2, 70440, Note_on_c, 0, 79, 60
2, 70440, Note_on_c, 0, 67, 60
2, 70442, Note_on_c, 0, 76, 0
2, 70453, Note_on_c, 0, 67, 0
2, 70454, Note_on_c, 0, 77, 0
2, 70469, Note_on_c, 0, 79, 0
2, 70515, Note_on_c, 0, 79, 52
2, 70530, Note_on_c, 0, 81, 25
2, 70535, Note_on_c, 0, 79, 0
2, 70545, Note_on_c, 0, 83, 60
2, 70552, Note_on_c, 0, 81, 0
2, 70560, Note_on_c, 0, 72, 60
2, 70560, Note_on_c, 0, 84, 68
2, 70564, Note_on_c, 0, 83, 0
2, 70633, Note_on_c, 0, 84, 0
2, 70637, Note_on_c, 0, 72, 0
2, 70680, Note_on_c, 0, 84, 68
2, 70680, Note_on_c, 0, 72, 68
2, 70680, Note_on_c, 0, 76, 60
2, 70680, Note_on_c, 0, 79, 68
2, 70707, Note_on_c, 0, 72, 0
2, 70711, Note_on_c, 0, 79, 0
2, 70711, Note_on_c, 0, 76, 0
2, 70715, Note_on_c, 0, 84, 0
2, 70800, Note_on_c, 0, 84, 88
2, 70800, Note_on_c, 0, 72, 88
2, 70800, Note_on_c, 0, 76, 88
2, 70800, Note_on_c, 0, 79, 88
2, 70835, Note_on_c, 0, 76, 0
2, 70837, Note_on_c, 0, 72, 0
2, 70839, Note_on_c, 0, 84, 0
2, 70840, Note_on_c, 0, 79, 0
2, 70920, Note_on_c, 0, 84, 78
2, 70920, Note_on_c, 0, 72, 88
2, 70920, Note_on_c, 0, 76, 88
2, 70920, Note_on_c, 0, 79, 78
2, 71033, Note_on_c, 0, 76, 0
2, 71035, Note_on_c, 0, 79, 0
2, 71036, Note_on_c, 0, 72, 0
2, 71041, Note_on_c, 0, 84, 0
2, 71041, End_track
3, 0, Start_track
3, 0, MIDI_port, 0
3, 0, Title_t, "accomp"
3, 0, Note_on_c, 0, 36, 88
3, 0, Note_on_c, 0, 48, 88
3, 59, Note_on_c, 0, 36, 0
3, 60, Note_on_c, 0, 52, 45
3, 65, Note_on_c, 0, 48, 0
3, 90, Note_on_c, 0, 55, 60
3, 94, Note_on_c, 0, 52, 0
3, 110, Note_on_c, 0, 55, 0
3, 120, Note_on_c, 0, 60, 78
3, 120, Note_on_c, 0, 48, 60
3, 136, Note_on_c, 0, 48, 0
3, 139, Note_on_c, 0, 60, 0
3, 180, Note_on_c, 0, 60, 60
3, 180, Note_on_c, 0, 48, 60
3, 194, Note_on_c, 0, 48, 0
3, 196, Note_on_c, 0, 60, 0
3, 240, Note_on_c, 0, 48, 60
3, 240, Note_on_c, 0, 60, 68
3, 254, Note_on_c, 0, 48, 0
3, 257, Note_on_c, 0, 60, 0
3, 300, Note_on_c, 0, 60, 60
3, 314, Note_on_c, 0, 60, 0
3, 360, Note_on_c, 0, 60, 88
3, 380, Note_on_c, 0, 60, 0
3, 420, Note_on_c, 0, 60, 39
3, 438, Note_on_c, 0, 60, 0
3, 479, Note_on_c, 0, 60, 78
3, 498, Note_on_c, 0, 60, 0
3, 540, Note_on_c, 0, 60, 45
3, 558, Note_on_c, 0, 60, 0
3, 600, Note_on_c, 0, 60, 78
3, 619, Note_on_c, 0, 60, 0
3, 660, Note_on_c, 0, 60, 45
3, 674, Note_on_c, 0, 60, 0
3, 720, Note_on_c, 0, 60, 60
3, 739, Note_on_c, 0, 60, 0
3, 780, Note_on_c, 0, 60, 45
3, 800, Note_on_c, 0, 60, 0
3, 840, Note_on_c, 0, 60, 78
3, 863, Note_on_c, 0, 60, 0
3, 900, Note_on_c, 0, 60, 52
3, 916, Note_on_c, 0, 60, 0
3, 960, Note_on_c, 0, 60, 68
3, 981, Note_on_c, 0, 60, 0
3, 1020, Note_on_c, 0, 60, 60
3, 1035, Note_on_c, 0, 60, 0
3, 1080, Note_on_c, 0, 60, 78
3, 1099, Note_on_c, 0, 60, 0
3, 1140, Note_on_c, 0, 60, 52
3, 1157, Note_on_c, 0, 60, 0
3, 1200, Note_on_c, 0, 60, 78
3, 1218, Note_on_c, 0, 60, 0
3, 1260, Note_on_c, 0, 60, 60
3, 1278, Note_on_c, 0, 60, 0
3, 1320, Note_on_c, 0, 60, 60
3, 1342, Note_on_c, 0, 60, 0
3, 1380, Note_on_c, 0, 60, 68
3, 1401, Note_on_c, 0, 60, 0
3, 1440, Note_on_c, 0, 48, 100
3, 1440, Note_on_c, 0, 36, 100
3, 1500, Note_on_c, 0, 36, 0
3, 1500, Note_on_c, 0, 52, 60
3, 1506, Note_on_c, 0, 48, 0
3, 1528, Note_on_c, 0, 52, 0
3, 1530, Note_on_c, 0, 55, 68
3, 1546, Note_on_c, 0, 55, 0
3, 1560, Note_on_c, 0, 48, 100
3, 1560, Note_on_c, 0, 60, 88
3, 1576, Note_on_c, 0, 48, 0
3, 1580, Note_on_c, 0, 60, 0
3, 1620, Note_on_c, 0, 60, 78
3, 1620, Note_on_c, 0, 48, 88
3, 1633, Note_on_c, 0, 48, 0
3, 1634, Note_on_c, 0, 60, 0
3, 1680, Note_on_c, 0, 48, 100
3, 1680, Note_on_c, 0, 60, 100
3, 1693, Note_on_c, 0, 48, 0
3, 1697, Note_on_c, 0, 60, 0
3, 1740, Note_on_c, 0, 60, 60
3, 1757, Note_on_c, 0, 60, 0
3, 1800, Note_on_c, 0, 60, 45
3, 1817, Note_on_c, 0, 60, 0
3, 1860, Note_on_c, 0, 60, 18
3, 1877, Note_on_c, 0, 60, 0
3, 1920, Note_on_c, 0, 60, 20
3, 1937, Note_on_c, 0, 60, 0
3, 1980, Note_on_c, 0, 60, 25
3, 1996, Note_on_c, 0, 60, 0
3, 2040, Note_on_c, 0, 60, 20
3, 2059, Note_on_c, 0, 60, 0
3, 2100, Note_on_c, 0, 60, 20
3, 2118, Note_on_c, 0, 60, 0
3, 2160, Note_on_c, 0, 60, 20
3, 2178, Note_on_c, 0, 60, 0
3, 2220, Note_on_c, 0, 60, 20
3, 2239, Note_on_c, 0, 60, 0
3, 2280, Note_on_c, 0, 60, 34
3, 2298, Note_on_c, 0, 60, 0
3, 2340, Note_on_c, 0, 60, 7
3, 2358, Note_on_c, 0, 60, 0
3, 2400, Note_on_c, 0, 60, 18
3, 2419, Note_on_c, 0, 60, 0
3, 2460, Note_on_c, 0, 60, 29
3, 2479, Note_on_c, 0, 60, 0
3, 2520, Note_on_c, 0, 60, 29
3, 2537, Note_on_c, 0, 60, 0
3, 2580, Note_on_c, 0, 60, 34
3, 2599, Note_on_c, 0, 60, 0
3, 2640, Note_on_c, 0, 60, 29
3, 2659, Note_on_c, 0, 60, 0
3, 2700, Note_on_c, 0, 60, 25
3, 2715, Note_on_c, 0, 60, 0
3, 2760, Note_on_c, 0, 60, 45
3, 2778, Note_on_c, 0, 60, 0
3, 2820, Note_on_c, 0, 60, 60
3, 2850, Note_on_c, 0, 60, 0
3, 2880, Note_on_c, 0, 48, 100
3, 2880, Note_on_c, 0, 36, 100
3, 2940, Note_on_c, 0, 52, 52
3, 2942, Note_on_c, 0, 36, 0
3, 2949, Note_on_c, 0, 48, 0
3, 2970, Note_on_c, 0, 55, 52
3, 2976, Note_on_c, 0, 52, 0
3, 2989, Note_on_c, 0, 55, 0
3, 3000, Note_on_c, 0, 48, 88
3, 3000, Note_on_c, 0, 60, 68
3, 3020, Note_on_c, 0, 60, 0
3, 3020, Note_on_c, 0, 48, 0
3, 3060, Note_on_c, 0, 48, 60
3, 3060, Note_on_c, 0, 60, 68
3, 3078, Note_on_c, 0, 48, 0
3, 3080, Note_on_c, 0, 60, 0
3, 3120, Note_on_c, 0, 48, 88
3, 3120, Note_on_c, 0, 60, 78
3, 3140, Note_on_c, 0, 60, 0
3, 3141, Note_on_c, 0, 48, 0
3, 3180, Note_on_c, 0, 60, 78
3, 3202, Note_on_c, 0, 60, 0
3, 3240, Note_on_c, 0, 48, 88
3, 3240, Note_on_c, 0, 36, 100
3, 3334, Note_on_c, 0, 36, 0
3, 3338, Note_on_c, 0, 48, 0
3, 3360, Note_on_c, 0, 60, 88
3, 3360, Note_on_c, 0, 48, 100
3, 3439, Note_on_c, 0, 60, 0
3, 3444, Note_on_c, 0, 48, 0
3, 3540, Note_on_c, 0, 48, 68
3, 3540, Note_on_c, 0, 36, 68
3, 3554, Note_on_c, 0, 36, 0
3, 3554, Note_on_c, 0, 48, 0
3, 3600, Note_on_c, 0, 47, 88
3, 3600, Note_on_c, 0, 35, 88
3, 3660, Note_on_c, 0, 50, 7
3, 3664, Note_on_c, 0, 35, 0
3, 3669, Note_on_c, 0, 47, 0
3, 3690, Note_on_c, 0, 55, 29
3, 3693, Note_on_c, 0, 50, 0
3, 3716, Note_on_c, 0, 55, 0
3, 3718, Note_on_c, 0, 59, 68
3, 3720, Note_on_c, 0, 47, 68
3, 3733, Note_on_c, 0, 47, 0
3, 3735, Note_on_c, 0, 59, 0
3, 3780, Note_on_c, 0, 47, 60
3, 3780, Note_on_c, 0, 59, 60
3, 3793, Note_on_c, 0, 47, 0
3, 3796, Note_on_c, 0, 59, 0
3, 3840, Note_on_c, 0, 47, 68
3, 3840, Note_on_c, 0, 59, 78
3, 3857, Note_on_c, 0, 47, 0
3, 3860, Note_on_c, 0, 59, 0
3, 3900, Note_on_c, 0, 47, 78
3, 3900, Note_on_c, 0, 35, 78
3, 3914, Note_on_c, 0, 47, 0
3, 3915, Note_on_c, 0, 35, 0
3, 3960, Note_on_c, 0, 45, 88
3, 3960, Note_on_c, 0, 33, 88
3, 4062, Note_on_c, 0, 33, 0
3, 4069, Note_on_c, 0, 45, 0
3, 4080, Note_on_c, 0, 57, 88
3, 4080, Note_on_c, 0, 45, 78
3, 4199, Note_on_c, 0, 57, 0
3, 4213, Note_on_c, 0, 45, 0
3, 4260, Note_on_c, 0, 45, 68
3, 4260, Note_on_c, 0, 33, 60
3, 4271, Note_on_c, 0, 45, 0
3, 4273, Note_on_c, 0, 33, 0
3, 4320, Note_on_c, 0, 43, 88
3, 4320, Note_on_c, 0, 31, 88
3, 4378, Note_on_c, 0, 31, 0
3, 4380, Note_on_c, 0, 48, 39
3, 4383, Note_on_c, 0, 43, 0
3, 4410, Note_on_c, 0, 52, 34
3, 4423, Note_on_c, 0, 48, 0
3, 4428, Note_on_c, 0, 52, 0
3, 4440, Note_on_c, 0, 55, 52
3, 4440, Note_on_c, 0, 43, 60
3, 4455, Note_on_c, 0, 43, 0
3, 4461, Note_on_c, 0, 55, 0
3, 4500, Note_on_c, 0, 55, 60
3, 4500, Note_on_c, 0, 43, 52
3, 4512, Note_on_c, 0, 43, 0
3, 4515, Note_on_c, 0, 55, 0
3, 4560, Note_on_c, 0, 43, 60
3, 4560, Note_on_c, 0, 55, 78
3, 4577, Note_on_c, 0, 43, 0
3, 4579, Note_on_c, 0, 55, 0
3, 4620, Note_on_c, 0, 43, 68
3, 4620, Note_on_c, 0, 31, 68
3, 4634, Note_on_c, 0, 43, 0
3, 4636, Note_on_c, 0, 31, 0
3, 4680, Note_on_c, 0, 41, 88
3, 4680, Note_on_c, 0, 29, 88
3, 4753, Note_on_c, 0, 29, 0
3, 4766, Note_on_c, 0, 41, 0
3, 4800, Note_on_c, 0, 41, 68
3, 4800, Note_on_c, 0, 53, 88
3, 4920, Note_on_c, 0, 43, 78
3, 4920, Note_on_c, 0, 55, 88
3, 4922, Note_on_c, 0, 53, 0
3, 4922, Note_on_c, 0, 41, 0
3, 5040, Note_on_c, 0, 43, 0
3, 5040, Note_on_c, 0, 45, 88
3, 5040, Note_on_c, 0, 57, 88
3, 5042, Note_on_c, 0, 55, 0
3, 5158, Note_on_c, 0, 57, 0
3, 5161, Note_on_c, 0, 45, 0
3, 5400, Note_on_c, 0, 57, 88
3, 5400, Note_on_c, 0, 45, 78
3, 5558, Note_on_c, 0, 45, 0
3, 5568, Note_on_c, 0, 57, 0
3, 5760, Note_on_c, 0, 45, 68
3, 5760, Note_on_c, 0, 57, 68
3, 5781, Note_on_c, 0, 45, 0
3, 5782, Note_on_c, 0, 57, 0
3, 5820, Note_on_c, 0, 45, 52
3, 5820, Note_on_c, 0, 57, 60
3, 5838, Note_on_c, 0, 57, 0
3, 5839, Note_on_c, 0, 45, 0
3, 5880, Note_on_c, 0, 45, 60
3, 5880, Note_on_c, 0, 57, 68
3, 5897, Note_on_c, 0, 45, 0
3, 5899, Note_on_c, 0, 57, 0
3, 5940, Note_on_c, 0, 45, 52
3, 5940, Note_on_c, 0, 57, 52
3, 5956, Note_on_c, 0, 45, 0
3, 5959, Note_on_c, 0, 57, 0
3, 6000, Note_on_c, 0, 45, 52
3, 6000, Note_on_c, 0, 57, 60
3, 6019, Note_on_c, 0, 57, 0
3, 6019, Note_on_c, 0, 45, 0
3, 6060, Note_on_c, 0, 45, 52
3, 6060, Note_on_c, 0, 57, 52
3, 6079, Note_on_c, 0, 45, 0
3, 6081, Note_on_c, 0, 57, 0
3, 6120, Note_on_c, 0, 43, 60
3, 6120, Note_on_c, 0, 55, 52
3, 6139, Note_on_c, 0, 55, 0
3, 6140, Note_on_c, 0, 43, 0
3, 6180, Note_on_c, 0, 43, 45
3, 6180, Note_on_c, 0, 55, 52
3, 6199, Note_on_c, 0, 43, 0
3, 6201, Note_on_c, 0, 55, 0
3, 6240, Note_on_c, 0, 55, 45
3, 6240, Note_on_c, 0, 43, 52
3, 6260, Note_on_c, 0, 43, 0
3, 6261, Note_on_c, 0, 55, 0
3, 6300, Note_on_c, 0, 43, 45
3, 6300, Note_on_c, 0, 55, 45
3, 6320, Note_on_c, 0, 43, 0
3, 6321, Note_on_c, 0, 55, 0
3, 6360, Note_on_c, 0, 43, 45
3, 6360, Note_on_c, 0, 55, 45
3, 6379, Note_on_c, 0, 55, 0
3, 6379, Note_on_c, 0, 43, 0
3, 6420, Note_on_c, 0, 43, 29
3, 6420, Note_on_c, 0, 55, 29
3, 6436, Note_on_c, 0, 55, 0
3, 6437, Note_on_c, 0, 43, 0
3, 6480, Note_on_c, 0, 43, 68
3, 6480, Note_on_c, 0, 55, 60
3, 6613, Note_on_c, 0, 55, 0
3, 6614, Note_on_c, 0, 43, 0
3, 6840, Note_on_c, 0, 67, 88
3, 7197, Note_on_c, 0, 67, 0
3, 7200, Note_on_c, 0, 64, 45
3, 7560, Note_on_c, 0, 60, 45
3, 7563, Note_on_c, 0, 64, 0
3, 7910, Note_on_c, 0, 60, 0
3, 8280, Note_on_c, 0, 43, 39
3, 8388, Note_on_c, 0, 43, 0
3, 8640, Note_on_c, 0, 45, 45
3, 8774, Note_on_c, 0, 45, 0
3, 8880, Note_on_c, 0, 41, 39
3, 8996, Note_on_c, 0, 41, 0
3, 9000, Note_on_c, 0, 43, 29
3, 9000, Note_on_c, 0, 55, 52
3, 9080, Note_on_c, 0, 43, 0
3, 9360, Note_on_c, 0, 43, 25
3, 9458, Note_on_c, 0, 43, 0
3, 9510, Note_on_c, 0, 55, 0
3, 9720, Note_on_c, 0, 36, 88
3, 9720, Note_on_c, 0, 48, 88
3, 9848, Note_on_c, 0, 36, 0
3, 9850, Note_on_c, 0, 48, 0
3, 9930, Note_on_c, 0, 48, 39
3, 9945, Note_on_c, 0, 50, 60
3, 9950, Note_on_c, 0, 48, 0
3, 9960, Note_on_c, 0, 52, 68
3, 9963, Note_on_c, 0, 50, 0
3, 9974, Note_on_c, 0, 52, 0
3, 10034, Note_on_c, 0, 52, 45
3, 10050, Note_on_c, 0, 53, 78
3, 10051, Note_on_c, 0, 52, 0
3, 10065, Note_on_c, 0, 55, 78
3, 10068, Note_on_c, 0, 53, 0
3, 10217, Note_on_c, 0, 55, 0
3, 10292, Note_on_c, 0, 52, 39
3, 10305, Note_on_c, 0, 53, 60
3, 10315, Note_on_c, 0, 52, 0
3, 10320, Note_on_c, 0, 55, 78
3, 10328, Note_on_c, 0, 53, 0
3, 10341, Note_on_c, 0, 55, 0
3, 10400, Note_on_c, 0, 55, 60
3, 10416, Note_on_c, 0, 57, 68
3, 10423, Note_on_c, 0, 55, 0
3, 10425, Note_on_c, 0, 59, 60
3, 10440, Note_on_c, 0, 60, 78
3, 10441, Note_on_c, 0, 59, 0
3, 10443, Note_on_c, 0, 57, 0
3, 10491, Note_on_c, 0, 60, 0
3, 10500, Note_on_c, 0, 48, 68
3, 10500, Note_on_c, 0, 36, 34
3, 10500, Note_on_c, 0, 35, 45
3, 10505, Note_on_c, 0, 35, 0
3, 10510, Note_on_c, 0, 36, 0
3, 10517, Note_on_c, 0, 48, 0
3, 10560, Note_on_c, 0, 48, 60
3, 10560, Note_on_c, 0, 36, 60
3, 10578, Note_on_c, 0, 48, 0
3, 10579, Note_on_c, 0, 36, 0
3, 10620, Note_on_c, 0, 36, 68
3, 10620, Note_on_c, 0, 48, 52
3, 10632, Note_on_c, 0, 36, 0
3, 10638, Note_on_c, 0, 48, 0
3, 10680, Note_on_c, 0, 36, 45
3, 10680, Note_on_c, 0, 48, 52
3, 10694, Note_on_c, 0, 36, 0
3, 10697, Note_on_c, 0, 48, 0
3, 10740, Note_on_c, 0, 36, 52
3, 10740, Note_on_c, 0, 48, 52
3, 10754, Note_on_c, 0, 36, 0
3, 10758, Note_on_c, 0, 48, 0
3, 10800, Note_on_c, 0, 36, 68
3, 10800, Note_on_c, 0, 48, 68
3, 10816, Note_on_c, 0, 36, 0
3, 10821, Note_on_c, 0, 48, 0
3, 10860, Note_on_c, 0, 36, 60
3, 10860, Note_on_c, 0, 48, 39
3, 10875, Note_on_c, 0, 36, 0
3, 10879, Note_on_c, 0, 48, 0
3, 10920, Note_on_c, 0, 36, 60
3, 10920, Note_on_c, 0, 48, 52
3, 10936, Note_on_c, 0, 36, 0
3, 10940, Note_on_c, 0, 48, 0
3, 10980, Note_on_c, 0, 36, 60
3, 10980, Note_on_c, 0, 48, 52
3, 10995, Note_on_c, 0, 36, 0
3, 10999, Note_on_c, 0, 48, 0
3, 11040, Note_on_c, 0, 36, 60
3, 11040, Note_on_c, 0, 48, 45
3, 11057, Note_on_c, 0, 36, 0
3, 11059, Note_on_c, 0, 48, 0
3, 11100, Note_on_c, 0, 36, 60
3, 11100, Note_on_c, 0, 48, 45
3, 11117, Note_on_c, 0, 48, 0
3, 11117, Note_on_c, 0, 36, 0
3, 11160, Note_on_c, 0, 36, 68
3, 11160, Note_on_c, 0, 48, 68
3, 11195, Note_on_c, 0, 48, 0
3, 11196, Note_on_c, 0, 36, 0
3, 11520, Note_on_c, 0, 43, 52
3, 11520, Note_on_c, 0, 55, 68
3, 11590, Note_on_c, 0, 55, 0
3, 11594, Note_on_c, 0, 43, 0
3, 11880, Note_on_c, 0, 60, 78
3, 11880, Note_on_c, 0, 48, 68
3, 11927, Note_on_c, 0, 48, 0
3, 12240, Note_on_c, 0, 55, 68
3, 12250, Note_on_c, 0, 60, 0
3, 12586, Note_on_c, 0, 55, 0
3, 12600, Note_on_c, 0, 36, 52
3, 12600, Note_on_c, 0, 48, 60
3, 12701, Note_on_c, 0, 48, 0
3, 12706, Note_on_c, 0, 36, 0
3, 12960, Note_on_c, 0, 38, 52
3, 12960, Note_on_c, 0, 50, 52
3, 13070, Note_on_c, 0, 50, 0
3, 13071, Note_on_c, 0, 38, 0
3, 13320, Note_on_c, 0, 43, 52
3, 13320, Note_on_c, 0, 55, 68
3, 13374, Note_on_c, 0, 43, 0
3, 13680, Note_on_c, 0, 62, 60
3, 13688, Note_on_c, 0, 55, 0
3, 14035, Note_on_c, 0, 62, 0
3, 14040, Note_on_c, 0, 43, 39
3, 14040, Note_on_c, 0, 55, 52
3, 14147, Note_on_c, 0, 55, 0
3, 14152, Note_on_c, 0, 43, 0
3, 14400, Note_on_c, 0, 43, 39
3, 14400, Note_on_c, 0, 31, 52
3, 14527, Note_on_c, 0, 31, 0
3, 14528, Note_on_c, 0, 43, 0
3, 14760, Note_on_c, 0, 36, 52
3, 14760, Note_on_c, 0, 48, 52
3, 14779, Note_on_c, 0, 48, 0
3, 14781, Note_on_c, 0, 36, 0
3, 14820, Note_on_c, 0, 48, 52
3, 14820, Note_on_c, 0, 36, 45
3, 14836, Note_on_c, 0, 36, 0
3, 14839, Note_on_c, 0, 48, 0
3, 14880, Note_on_c, 0, 48, 68
3, 14880, Note_on_c, 0, 36, 60
3, 14897, Note_on_c, 0, 48, 0
3, 14899, Note_on_c, 0, 36, 0
3, 14940, Note_on_c, 0, 36, 45
3, 14940, Note_on_c, 0, 48, 52
3, 14955, Note_on_c, 0, 36, 0
3, 14956, Note_on_c, 0, 48, 0
3, 15000, Note_on_c, 0, 36, 52
3, 15000, Note_on_c, 0, 48, 52
3, 15016, Note_on_c, 0, 36, 0
3, 15017, Note_on_c, 0, 48, 0
3, 15060, Note_on_c, 0, 36, 45
3, 15060, Note_on_c, 0, 48, 52
3, 15074, Note_on_c, 0, 36, 0
3, 15077, Note_on_c, 0, 48, 0
3, 15120, Note_on_c, 0, 48, 45
3, 15120, Note_on_c, 0, 36, 52
3, 15137, Note_on_c, 0, 36, 0
3, 15137, Note_on_c, 0, 48, 0
3, 15180, Note_on_c, 0, 36, 39
3, 15180, Note_on_c, 0, 48, 39
3, 15198, Note_on_c, 0, 36, 0
3, 15200, Note_on_c, 0, 48, 0
3, 15240, Note_on_c, 0, 48, 52
3, 15240, Note_on_c, 0, 36, 52
3, 15259, Note_on_c, 0, 36, 0
3, 15260, Note_on_c, 0, 48, 0
3, 15300, Note_on_c, 0, 48, 45
3, 15300, Note_on_c, 0, 36, 39
3, 15318, Note_on_c, 0, 36, 0
3, 15320, Note_on_c, 0, 48, 0
3, 15360, Note_on_c, 0, 48, 52
3, 15360, Note_on_c, 0, 36, 60
3, 15379, Note_on_c, 0, 48, 0
3, 15380, Note_on_c, 0, 36, 0
3, 15420, Note_on_c, 0, 36, 52
3, 15420, Note_on_c, 0, 48, 45
3, 15438, Note_on_c, 0, 36, 0
3, 15440, Note_on_c, 0, 48, 0
3, 15480, Note_on_c, 0, 36, 60
3, 15480, Note_on_c, 0, 48, 52
3, 15524, Note_on_c, 0, 36, 0
3, 15526, Note_on_c, 0, 48, 0
3, 15693, Note_on_c, 0, 48, 29
3, 15705, Note_on_c, 0, 50, 45
3, 15719, Note_on_c, 0, 48, 0
3, 15720, Note_on_c, 0, 52, 68
3, 15726, Note_on_c, 0, 50, 0
3, 15740, Note_on_c, 0, 52, 0
3, 15811, Note_on_c, 0, 52, 34
3, 15828, Note_on_c, 0, 53, 52
3, 15832, Note_on_c, 0, 52, 0
3, 15840, Note_on_c, 0, 55, 78
3, 15848, Note_on_c, 0, 53, 0
3, 15910, Note_on_c, 0, 55, 0
3, 16054, Note_on_c, 0, 52, 34
3, 16065, Note_on_c, 0, 53, 52
3, 16080, Note_on_c, 0, 55, 68
3, 16082, Note_on_c, 0, 52, 0
3, 16088, Note_on_c, 0, 53, 0
3, 16100, Note_on_c, 0, 55, 0
3, 16153, Note_on_c, 0, 55, 45
3, 16168, Note_on_c, 0, 57, 45
3, 16174, Note_on_c, 0, 55, 0
3, 16185, Note_on_c, 0, 59, 52
3, 16190, Note_on_c, 0, 57, 0
3, 16200, Note_on_c, 0, 60, 78
3, 16200, Note_on_c, 0, 48, 100
3, 16202, Note_on_c, 0, 59, 0
3, 16292, Note_on_c, 0, 48, 0
3, 16298, Note_on_c, 0, 60, 0
3, 16322, Note_on_c, 0, 48, 78
3, 16323, Note_on_c, 0, 36, 88
3, 16440, Note_on_c, 0, 48, 0
3, 16446, Note_on_c, 0, 36, 0
3, 16523, Note_on_c, 0, 48, 52
3, 16527, Note_on_c, 0, 36, 60
3, 16544, Note_on_c, 0, 36, 0
3, 16552, Note_on_c, 0, 48, 0
3, 16553, Note_on_c, 0, 32, 78
3, 16554, Note_on_c, 0, 44, 88
3, 16586, Note_on_c, 0, 44, 0
3, 16607, Note_on_c, 0, 32, 0
3, 16620, Note_on_c, 0, 47, 39
3, 16632, Note_on_c, 0, 47, 0
3, 16648, Note_on_c, 0, 52, 52
3, 16662, Note_on_c, 0, 52, 0
3, 16680, Note_on_c, 0, 44, 25
3, 16680, Note_on_c, 0, 56, 68
3, 16686, Note_on_c, 0, 44, 0
3, 16694, Note_on_c, 0, 56, 0
3, 16737, Note_on_c, 0, 44, 88
3, 16740, Note_on_c, 0, 56, 34
3, 16749, Note_on_c, 0, 56, 0
3, 16750, Note_on_c, 0, 44, 0
3, 16800, Note_on_c, 0, 44, 100
3, 16800, Note_on_c, 0, 56, 78
3, 16813, Note_on_c, 0, 44, 0
3, 16826, Note_on_c, 0, 56, 0
3, 16860, Note_on_c, 0, 32, 78
3, 16860, Note_on_c, 0, 44, 52
3, 16874, Note_on_c, 0, 44, 0
3, 16882, Note_on_c, 0, 32, 0
3, 16920, Note_on_c, 0, 45, 78
3, 16920, Note_on_c, 0, 33, 68
3, 17004, Note_on_c, 0, 33, 0
3, 17014, Note_on_c, 0, 45, 0
3, 17040, Note_on_c, 0, 45, 68
3, 17040, Note_on_c, 0, 57, 88
3, 17172, Note_on_c, 0, 57, 0
3, 17182, Note_on_c, 0, 45, 0
3, 17235, Note_on_c, 0, 33, 60
3, 17240, Note_on_c, 0, 45, 60
3, 17248, Note_on_c, 0, 33, 0
3, 17252, Note_on_c, 0, 45, 0
3, 17280, Note_on_c, 0, 42, 88
3, 17282, Note_on_c, 0, 30, 88
3, 17345, Note_on_c, 0, 30, 0
3, 17347, Note_on_c, 0, 45, 39
3, 17354, Note_on_c, 0, 42, 0
3, 17366, Note_on_c, 0, 50, 52
3, 17377, Note_on_c, 0, 45, 0
3, 17384, Note_on_c, 0, 50, 0
3, 17394, Note_on_c, 0, 42, 78
3, 17395, Note_on_c, 0, 54, 78
3, 17407, Note_on_c, 0, 42, 0
3, 17412, Note_on_c, 0, 54, 0
3, 17460, Note_on_c, 0, 42, 60
3, 17460, Note_on_c, 0, 54, 68
3, 17474, Note_on_c, 0, 54, 0
3, 17475, Note_on_c, 0, 42, 0
3, 17520, Note_on_c, 0, 42, 60
3, 17520, Note_on_c, 0, 54, 88
3, 17536, Note_on_c, 0, 42, 0
3, 17539, Note_on_c, 0, 54, 0
3, 17580, Note_on_c, 0, 42, 88
3, 17580, Note_on_c, 0, 30, 68
3, 17589, Note_on_c, 0, 30, 0
3, 17600, Note_on_c, 0, 42, 0
3, 17640, Note_on_c, 0, 43, 78
3, 17640, Note_on_c, 0, 31, 78
3, 17724, Note_on_c, 0, 31, 0
3, 17729, Note_on_c, 0, 43, 0
3, 17760, Note_on_c, 0, 43, 78
3, 17760, Note_on_c, 0, 55, 78
3, 17849, Note_on_c, 0, 55, 0
3, 17850, Note_on_c, 0, 43, 0
3, 18000, Note_on_c, 0, 36, 78
3, 18000, Note_on_c, 0, 48, 78
3, 18059, Note_on_c, 0, 36, 0
3, 18064, Note_on_c, 0, 48, 0
3, 18120, Note_on_c, 0, 36, 68
3, 18120, Note_on_c, 0, 48, 68
3, 18195, Note_on_c, 0, 48, 0
3, 18201, Note_on_c, 0, 36, 0
3, 18240, Note_on_c, 0, 38, 60
3, 18240, Note_on_c, 0, 50, 78
3, 18309, Note_on_c, 0, 50, 0
3, 18324, Note_on_c, 0, 38, 0
3, 18360, Note_on_c, 0, 40, 78
3, 18360, Note_on_c, 0, 52, 78
3, 18451, Note_on_c, 0, 52, 0
3, 18451, Note_on_c, 0, 40, 0
3, 18720, Note_on_c, 0, 40, 78
3, 18720, Note_on_c, 0, 52, 88
3, 18795, Note_on_c, 0, 52, 0
3, 18797, Note_on_c, 0, 40, 0
3, 19080, Note_on_c, 0, 52, 68
3, 19080, Note_on_c, 0, 40, 68
3, 19098, Note_on_c, 0, 40, 0
3, 19098, Note_on_c, 0, 52, 0
3, 19140, Note_on_c, 0, 40, 52
3, 19140, Note_on_c, 0, 52, 60
3, 19157, Note_on_c, 0, 40, 0
3, 19161, Note_on_c, 0, 52, 0
3, 19200, Note_on_c, 0, 52, 60
3, 19200, Note_on_c, 0, 40, 52
3, 19219, Note_on_c, 0, 40, 0
3, 19222, Note_on_c, 0, 52, 0
3, 19260, Note_on_c, 0, 52, 45
3, 19260, Note_on_c, 0, 40, 39
3, 19277, Note_on_c, 0, 40, 0
3, 19279, Note_on_c, 0, 52, 0
3, 19320, Note_on_c, 0, 40, 52
3, 19320, Note_on_c, 0, 52, 52
3, 19338, Note_on_c, 0, 40, 0
3, 19341, Note_on_c, 0, 52, 0
3, 19380, Note_on_c, 0, 40, 39
3, 19380, Note_on_c, 0, 52, 52
3, 19401, Note_on_c, 0, 52, 0
3, 19401, Note_on_c, 0, 40, 0
3, 19440, Note_on_c, 0, 50, 60
3, 19440, Note_on_c, 0, 38, 60
3, 19461, Note_on_c, 0, 38, 0
3, 19462, Note_on_c, 0, 50, 0
3, 19500, Note_on_c, 0, 50, 45
3, 19500, Note_on_c, 0, 38, 45
3, 19519, Note_on_c, 0, 38, 0
3, 19521, Note_on_c, 0, 50, 0
3, 19560, Note_on_c, 0, 50, 52
3, 19560, Note_on_c, 0, 38, 52
3, 19579, Note_on_c, 0, 38, 0
3, 19580, Note_on_c, 0, 50, 0
3, 19620, Note_on_c, 0, 38, 52
3, 19620, Note_on_c, 0, 50, 39
3, 19639, Note_on_c, 0, 38, 0
3, 19641, Note_on_c, 0, 50, 0
3, 19680, Note_on_c, 0, 50, 39
3, 19680, Note_on_c, 0, 38, 52
3, 19701, Note_on_c, 0, 38, 0
3, 19701, Note_on_c, 0, 50, 0
3, 19740, Note_on_c, 0, 50, 60
3, 19740, Note_on_c, 0, 38, 45
3, 19758, Note_on_c, 0, 38, 0
3, 19761, Note_on_c, 0, 50, 0
3, 19800, Note_on_c, 0, 38, 68
3, 19800, Note_on_c, 0, 50, 60
3, 19874, Note_on_c, 0, 50, 0
3, 19874, Note_on_c, 0, 38, 0
3, 20160, Note_on_c, 0, 43, 25
3, 20160, Note_on_c, 0, 55, 39
3, 20307, Note_on_c, 0, 55, 0
3, 20310, Note_on_c, 0, 43, 0
3, 20520, Note_on_c, 0, 50, 34
3, 20624, Note_on_c, 0, 50, 0
3, 20880, Note_on_c, 0, 67, 52
3, 20880, Note_on_c, 0, 59, 45
3, 20880, Note_on_c, 0, 55, 25
3, 21048, Note_on_c, 0, 59, 0
3, 21059, Note_on_c, 0, 55, 0
3, 21180, Note_on_c, 0, 69, 34
3, 21182, Note_on_c, 0, 67, 0
3, 21208, Note_on_c, 0, 69, 0
3, 21210, Note_on_c, 0, 71, 29
3, 21240, Note_on_c, 0, 71, 0
3, 21240, Note_on_c, 0, 62, 52
3, 21598, Note_on_c, 0, 62, 0
3, 21600, Note_on_c, 0, 55, 18
3, 21600, Note_on_c, 0, 67, 45
3, 21725, Note_on_c, 0, 55, 0
3, 21900, Note_on_c, 0, 69, 34
3, 21909, Note_on_c, 0, 67, 0
3, 21930, Note_on_c, 0, 71, 25
3, 21932, Note_on_c, 0, 69, 0
3, 21972, Note_on_c, 0, 71, 0
3, 22320, Note_on_c, 0, 55, 39
3, 22320, Note_on_c, 0, 67, 45
3, 22320, Note_on_c, 0, 59, 45
3, 22481, Note_on_c, 0, 59, 0
3, 22490, Note_on_c, 0, 55, 0
3, 22612, Note_on_c, 0, 67, 0
3, 22620, Note_on_c, 0, 69, 45
3, 22644, Note_on_c, 0, 69, 0
3, 22650, Note_on_c, 0, 71, 14
3, 22676, Note_on_c, 0, 71, 0
3, 22680, Note_on_c, 0, 62, 25
3, 23035, Note_on_c, 0, 62, 0
3, 23040, Note_on_c, 0, 43, 34
3, 23040, Note_on_c, 0, 55, 39
3, 23151, Note_on_c, 0, 55, 0
3, 23151, Note_on_c, 0, 43, 0
3, 23400, Note_on_c, 0, 31, 45
3, 23400, Note_on_c, 0, 43, 39
3, 23456, Note_on_c, 0, 31, 0
3, 23459, Note_on_c, 0, 43, 0
3, 23460, Note_on_c, 0, 67, 45
3, 23478, Note_on_c, 0, 67, 0
3, 23520, Note_on_c, 0, 67, 45
3, 23535, Note_on_c, 0, 67, 0
3, 23583, Note_on_c, 0, 67, 39
3, 23613, Note_on_c, 0, 67, 0
3, 23640, Note_on_c, 0, 67, 29
3, 23655, Note_on_c, 0, 67, 0
3, 23700, Note_on_c, 0, 67, 20
3, 23753, Note_on_c, 0, 67, 0
3, 23760, Note_on_c, 0, 62, 45
3, 23760, Note_on_c, 0, 50, 14
3, 23854, Note_on_c, 0, 62, 0
3, 23855, Note_on_c, 0, 50, 0
3, 24116, Note_on_c, 0, 50, 39
3, 24117, Note_on_c, 0, 38, 39
3, 24175, Note_on_c, 0, 38, 0
3, 24179, Note_on_c, 0, 50, 0
3, 24180, Note_on_c, 0, 62, 68
3, 24193, Note_on_c, 0, 62, 0
3, 24240, Note_on_c, 0, 62, 45
3, 24252, Note_on_c, 0, 62, 0
3, 24300, Note_on_c, 0, 62, 25
3, 24313, Note_on_c, 0, 62, 0
3, 24360, Note_on_c, 0, 62, 39
3, 24371, Note_on_c, 0, 62, 0
3, 24420, Note_on_c, 0, 62, 45
3, 24438, Note_on_c, 0, 62, 0
3, 24480, Note_on_c, 0, 55, 34
3, 24480, Note_on_c, 0, 43, 20
3, 24591, Note_on_c, 0, 43, 0
3, 24600, Note_on_c, 0, 59, 39
3, 24602, Note_on_c, 0, 55, 0
3, 24657, Note_on_c, 0, 59, 0
3, 24660, Note_on_c, 0, 58, 52
3, 24710, Note_on_c, 0, 58, 0
3, 24720, Note_on_c, 0, 59, 39
3, 24750, Note_on_c, 0, 59, 0
3, 24780, Note_on_c, 0, 59, 52
3, 24840, Note_on_c, 0, 43, 25
3, 24840, Note_on_c, 0, 55, 45
3, 24841, Note_on_c, 0, 59, 0
3, 24936, Note_on_c, 0, 55, 0
3, 24955, Note_on_c, 0, 43, 0
3, 24960, Note_on_c, 0, 67, 60
3, 25019, Note_on_c, 0, 67, 0
3, 25020, Note_on_c, 0, 66, 68
3, 25078, Note_on_c, 0, 66, 0
3, 25080, Note_on_c, 0, 67, 45
3, 25097, Note_on_c, 0, 67, 0
3, 25140, Note_on_c, 0, 67, 34
3, 25200, Note_on_c, 0, 43, 29
3, 25200, Note_on_c, 0, 55, 39
3, 25204, Note_on_c, 0, 67, 0
3, 25295, Note_on_c, 0, 55, 0
3, 25320, Note_on_c, 0, 67, 52
3, 25326, Note_on_c, 0, 43, 0
3, 25376, Note_on_c, 0, 67, 0
3, 25380, Note_on_c, 0, 70, 88
3, 25431, Note_on_c, 0, 70, 0
3, 25440, Note_on_c, 0, 71, 39
3, 25455, Note_on_c, 0, 71, 0
3, 25500, Note_on_c, 0, 71, 52
3, 25513, Note_on_c, 0, 71, 0
3, 25560, Note_on_c, 0, 48, 45
3, 25560, Note_on_c, 0, 36, 60
3, 25648, Note_on_c, 0, 36, 0
3, 25655, Note_on_c, 0, 48, 0
3, 25680, Note_on_c, 0, 50, 52
3, 25680, Note_on_c, 0, 38, 52
3, 25759, Note_on_c, 0, 38, 0
3, 25761, Note_on_c, 0, 50, 0
3, 25800, Note_on_c, 0, 38, 45
3, 25800, Note_on_c, 0, 50, 34
3, 25862, Note_on_c, 0, 50, 0
3, 25871, Note_on_c, 0, 38, 0
3, 25920, Note_on_c, 0, 43, 34
3, 25920, Note_on_c, 0, 31, 29
3, 26024, Note_on_c, 0, 31, 0
3, 26031, Note_on_c, 0, 43, 0
3, 26040, Note_on_c, 0, 59, 29
3, 26094, Note_on_c, 0, 59, 0
3, 26100, Note_on_c, 0, 58, 39
3, 26151, Note_on_c, 0, 58, 0
3, 26160, Note_on_c, 0, 59, 34
3, 26178, Note_on_c, 0, 59, 0
3, 26220, Note_on_c, 0, 59, 25
3, 26266, Note_on_c, 0, 59, 0
3, 26280, Note_on_c, 0, 55, 25
3, 26280, Note_on_c, 0, 43, 45
3, 26400, Note_on_c, 0, 67, 60
3, 26406, Note_on_c, 0, 67, 0
3, 26460, Note_on_c, 0, 66, 68
3, 26461, Note_on_c, 0, 43, 0
3, 26462, Note_on_c, 0, 55, 0
3, 26513, Note_on_c, 0, 66, 0
3, 26520, Note_on_c, 0, 67, 52
3, 26536, Note_on_c, 0, 67, 0
3, 26580, Note_on_c, 0, 67, 52
3, 26640, Note_on_c, 0, 55, 52
3, 26640, Note_on_c, 0, 43, 45
3, 26641, Note_on_c, 0, 67, 0
3, 26760, Note_on_c, 0, 71, 68
3, 26765, Note_on_c, 0, 43, 0
3, 26766, Note_on_c, 0, 55, 0
3, 26817, Note_on_c, 0, 71, 0
3, 26820, Note_on_c, 0, 70, 60
3, 26876, Note_on_c, 0, 70, 0
3, 26880, Note_on_c, 0, 71, 34
3, 26900, Note_on_c, 0, 71, 0
3, 26940, Note_on_c, 0, 71, 45
3, 26982, Note_on_c, 0, 71, 0
3, 27000, Note_on_c, 0, 48, 14
3, 27000, Note_on_c, 0, 36, 20
3, 27075, Note_on_c, 0, 36, 0
3, 27088, Note_on_c, 0, 48, 0
3, 27120, Note_on_c, 0, 50, 29
3, 27120, Note_on_c, 0, 38, 25
3, 27202, Note_on_c, 0, 38, 0
3, 27204, Note_on_c, 0, 50, 0
3, 27240, Note_on_c, 0, 38, 39
3, 27240, Note_on_c, 0, 50, 25
3, 27305, Note_on_c, 0, 50, 0
3, 27313, Note_on_c, 0, 38, 0
3, 27360, Note_on_c, 0, 43, 25
3, 27360, Note_on_c, 0, 31, 7
3, 27461, Note_on_c, 0, 31, 0
3, 27465, Note_on_c, 0, 43, 0
3, 27480, Note_on_c, 0, 43, 1
3, 27492, Note_on_c, 0, 43, 0
3, 27540, Note_on_c, 0, 43, 39
3, 27564, Note_on_c, 0, 43, 0
3, 27600, Note_on_c, 0, 43, 39
3, 27619, Note_on_c, 0, 43, 0
3, 27660, Note_on_c, 0, 43, 34
3, 27683, Note_on_c, 0, 43, 0
3, 27720, Note_on_c, 0, 43, 68
3, 27720, Note_on_c, 0, 55, 78
3, 27745, Note_on_c, 0, 55, 0
3, 27750, Note_on_c, 0, 43, 0
3, 27840, Note_on_c, 0, 45, 68
3, 27840, Note_on_c, 0, 57, 78
3, 27858, Note_on_c, 0, 45, 0
3, 27860, Note_on_c, 0, 57, 0
3, 27960, Note_on_c, 0, 46, 78
3, 27960, Note_on_c, 0, 58, 88
3, 27983, Note_on_c, 0, 46, 0
3, 27987, Note_on_c, 0, 58, 0
3, 28080, Note_on_c, 0, 48, 68
3, 28080, Note_on_c, 0, 60, 60
3, 28153, Note_on_c, 0, 48, 0
3, 28168, Note_on_c, 0, 60, 0
3, 28200, Note_on_c, 0, 55, 52
3, 28222, Note_on_c, 0, 55, 0
3, 28260, Note_on_c, 0, 55, 52
3, 28280, Note_on_c, 0, 55, 0
3, 28320, Note_on_c, 0, 55, 39
3, 28340, Note_on_c, 0, 55, 0
3, 28380, Note_on_c, 0, 55, 52
3, 28403, Note_on_c, 0, 55, 0
3, 28440, Note_on_c, 0, 45, 52
3, 28440, Note_on_c, 0, 57, 68
3, 28541, Note_on_c, 0, 57, 0
3, 28543, Note_on_c, 0, 45, 0
3, 28560, Note_on_c, 0, 46, 60
3, 28560, Note_on_c, 0, 58, 68
3, 28618, Note_on_c, 0, 58, 0
3, 28618, Note_on_c, 0, 46, 0
3, 28680, Note_on_c, 0, 48, 52
3, 28680, Note_on_c, 0, 60, 60
3, 28753, Note_on_c, 0, 60, 0
3, 28753, Note_on_c, 0, 48, 0
3, 28800, Note_on_c, 0, 62, 78
3, 28800, Note_on_c, 0, 50, 60
3, 28851, Note_on_c, 0, 50, 0
3, 28857, Note_on_c, 0, 62, 0
3, 28920, Note_on_c, 0, 55, 52
3, 28936, Note_on_c, 0, 55, 0
3, 28980, Note_on_c, 0, 55, 60
3, 29004, Note_on_c, 0, 55, 0
3, 29040, Note_on_c, 0, 55, 52
3, 29062, Note_on_c, 0, 55, 0
3, 29100, Note_on_c, 0, 55, 52
3, 29122, Note_on_c, 0, 55, 0
3, 29160, Note_on_c, 0, 47, 60
3, 29160, Note_on_c, 0, 59, 68
3, 29208, Note_on_c, 0, 59, 0
3, 29218, Note_on_c, 0, 47, 0
3, 29280, Note_on_c, 0, 48, 45
3, 29280, Note_on_c, 0, 60, 68
3, 29339, Note_on_c, 0, 60, 0
3, 29343, Note_on_c, 0, 48, 0
3, 29400, Note_on_c, 0, 62, 68
3, 29400, Note_on_c, 0, 50, 52
3, 29461, Note_on_c, 0, 50, 0
3, 29469, Note_on_c, 0, 62, 0
3, 29520, Note_on_c, 0, 63, 88
3, 29520, Note_on_c, 0, 51, 68
3, 29539, Note_on_c, 0, 63, 0
3, 29541, Note_on_c, 0, 51, 0
3, 29580, Note_on_c, 0, 51, 52
3, 29580, Note_on_c, 0, 39, 60
3, 29598, Note_on_c, 0, 39, 0
3, 29599, Note_on_c, 0, 51, 0
3, 29640, Note_on_c, 0, 51, 52
3, 29640, Note_on_c, 0, 39, 60
3, 29656, Note_on_c, 0, 39, 0
3, 29657, Note_on_c, 0, 51, 0
3, 29700, Note_on_c, 0, 51, 45
3, 29700, Note_on_c, 0, 39, 60
3, 29714, Note_on_c, 0, 51, 0
3, 29715, Note_on_c, 0, 39, 0
3, 29760, Note_on_c, 0, 51, 52
3, 29760, Note_on_c, 0, 39, 60
3, 29776, Note_on_c, 0, 51, 0
3, 29777, Note_on_c, 0, 39, 0
3, 29820, Note_on_c, 0, 39, 52
3, 29820, Note_on_c, 0, 51, 29
3, 29835, Note_on_c, 0, 51, 0
3, 29837, Note_on_c, 0, 39, 0
3, 29880, Note_on_c, 0, 51, 60
3, 29880, Note_on_c, 0, 39, 68
3, 29899, Note_on_c, 0, 39, 0
3, 29899, Note_on_c, 0, 51, 0
3, 29940, Note_on_c, 0, 39, 68
3, 29940, Note_on_c, 0, 51, 52
3, 29954, Note_on_c, 0, 51, 0
3, 29957, Note_on_c, 0, 39, 0
3, 30000, Note_on_c, 0, 39, 78
3, 30000, Note_on_c, 0, 51, 60
3, 30016, Note_on_c, 0, 51, 0
3, 30018, Note_on_c, 0, 39, 0
3, 30060, Note_on_c, 0, 39, 52
3, 30060, Note_on_c, 0, 51, 34
3, 30074, Note_on_c, 0, 51, 0
3, 30078, Note_on_c, 0, 39, 0
3, 30120, Note_on_c, 0, 39, 68
3, 30120, Note_on_c, 0, 51, 45
3, 30134, Note_on_c, 0, 51, 0
3, 30138, Note_on_c, 0, 39, 0
3, 30180, Note_on_c, 0, 39, 52
3, 30180, Note_on_c, 0, 51, 29
3, 30193, Note_on_c, 0, 51, 0
3, 30199, Note_on_c, 0, 39, 0
3, 30240, Note_on_c, 0, 38, 60
3, 30240, Note_on_c, 0, 50, 52
3, 30254, Note_on_c, 0, 50, 0
3, 30259, Note_on_c, 0, 38, 0
3, 30300, Note_on_c, 0, 50, 60
3, 30300, Note_on_c, 0, 38, 52
3, 30317, Note_on_c, 0, 38, 0
3, 30317, Note_on_c, 0, 50, 0
3, 30360, Note_on_c, 0, 50, 52
3, 30360, Note_on_c, 0, 38, 52
3, 30375, Note_on_c, 0, 50, 0
3, 30376, Note_on_c, 0, 38, 0
3, 30420, Note_on_c, 0, 38, 45
3, 30420, Note_on_c, 0, 50, 45
3, 30435, Note_on_c, 0, 50, 0
3, 30439, Note_on_c, 0, 38, 0
3, 30480, Note_on_c, 0, 50, 45
3, 30480, Note_on_c, 0, 38, 45
3, 30495, Note_on_c, 0, 50, 0
3, 30496, Note_on_c, 0, 38, 0
3, 30540, Note_on_c, 0, 38, 45
3, 30540, Note_on_c, 0, 50, 39
3, 30555, Note_on_c, 0, 50, 0
3, 30556, Note_on_c, 0, 38, 0
3, 30600, Note_on_c, 0, 38, 52
3, 30600, Note_on_c, 0, 50, 45
3, 30713, Note_on_c, 0, 38, 0
3, 30716, Note_on_c, 0, 50, 0
3, 30960, Note_on_c, 0, 55, 52
3, 31075, Note_on_c, 0, 55, 0
3, 31080, Note_on_c, 0, 57, 60
3, 31200, Note_on_c, 0, 57, 0
3, 31200, Note_on_c, 0, 58, 68
3, 31313, Note_on_c, 0, 58, 0
3, 31320, Note_on_c, 0, 60, 60
3, 31440, Note_on_c, 0, 58, 68
3, 31443, Note_on_c, 0, 60, 0
3, 31560, Note_on_c, 0, 58, 0
3, 31560, Note_on_c, 0, 57, 60
3, 31674, Note_on_c, 0, 57, 0
3, 31680, Note_on_c, 0, 55, 52
3, 31799, Note_on_c, 0, 55, 0
3, 31800, Note_on_c, 0, 57, 60
3, 31920, Note_on_c, 0, 58, 78
3, 31922, Note_on_c, 0, 57, 0
3, 32038, Note_on_c, 0, 58, 0
3, 32040, Note_on_c, 0, 60, 60
3, 32160, Note_on_c, 0, 58, 60
3, 32168, Note_on_c, 0, 60, 0
3, 32280, Note_on_c, 0, 57, 60
3, 32283, Note_on_c, 0, 58, 0
3, 32392, Note_on_c, 0, 57, 0
3, 32400, Note_on_c, 0, 55, 45
3, 32520, Note_on_c, 0, 57, 45
3, 32529, Note_on_c, 0, 55, 0
3, 32636, Note_on_c, 0, 57, 0
3, 32640, Note_on_c, 0, 58, 60
3, 32756, Note_on_c, 0, 58, 0
3, 32760, Note_on_c, 0, 60, 52
3, 32880, Note_on_c, 0, 63, 68
3, 32884, Note_on_c, 0, 60, 0
3, 32996, Note_on_c, 0, 63, 0
3, 33000, Note_on_c, 0, 60, 39
3, 33120, Note_on_c, 0, 46, 60
3, 33129, Note_on_c, 0, 60, 0
3, 33240, Note_on_c, 0, 58, 78
3, 33241, Note_on_c, 0, 46, 0
3, 33360, Note_on_c, 0, 55, 52
3, 33363, Note_on_c, 0, 58, 0
3, 33480, Note_on_c, 0, 48, 45
3, 33480, Note_on_c, 0, 60, 52
3, 33482, Note_on_c, 0, 55, 0
3, 33595, Note_on_c, 0, 48, 0
3, 33596, Note_on_c, 0, 60, 0
3, 33600, Note_on_c, 0, 62, 60
3, 33600, Note_on_c, 0, 50, 52
3, 33671, Note_on_c, 0, 50, 0
3, 33686, Note_on_c, 0, 62, 0
3, 33720, Note_on_c, 0, 50, 45
3, 33799, Note_on_c, 0, 50, 0
3, 33840, Note_on_c, 0, 50, 88
3, 33840, Note_on_c, 0, 55, 88
3, 33840, Note_on_c, 0, 43, 88
3, 33919, Note_on_c, 0, 50, 0
3, 33922, Note_on_c, 0, 55, 0
3, 33927, Note_on_c, 0, 43, 0
3, 33960, Note_on_c, 0, 43, 60
3, 33984, Note_on_c, 0, 43, 0
3, 34020, Note_on_c, 0, 43, 60
3, 34046, Note_on_c, 0, 43, 0
3, 34080, Note_on_c, 0, 43, 52
3, 34104, Note_on_c, 0, 43, 0
3, 34140, Note_on_c, 0, 43, 52
3, 34168, Note_on_c, 0, 43, 0
3, 34200, Note_on_c, 0, 55, 78
3, 34200, Note_on_c, 0, 43, 78
3, 34279, Note_on_c, 0, 55, 0
3, 34297, Note_on_c, 0, 43, 0
3, 34320, Note_on_c, 0, 57, 88
3, 34320, Note_on_c, 0, 45, 88
3, 34401, Note_on_c, 0, 45, 0
3, 34407, Note_on_c, 0, 57, 0
3, 34440, Note_on_c, 0, 46, 88
3, 34440, Note_on_c, 0, 58, 88
3, 34499, Note_on_c, 0, 58, 0
3, 34503, Note_on_c, 0, 46, 0
3, 34560, Note_on_c, 0, 48, 88
3, 34560, Note_on_c, 0, 60, 78
3, 34637, Note_on_c, 0, 48, 0
3, 34638, Note_on_c, 0, 60, 0
3, 34680, Note_on_c, 0, 55, 88
3, 34701, Note_on_c, 0, 55, 0
3, 34740, Note_on_c, 0, 55, 60
3, 34761, Note_on_c, 0, 55, 0
3, 34800, Note_on_c, 0, 55, 68
3, 34821, Note_on_c, 0, 55, 0
3, 34860, Note_on_c, 0, 55, 60
3, 34880, Note_on_c, 0, 55, 0
3, 34920, Note_on_c, 0, 45, 88
3, 34920, Note_on_c, 0, 57, 88
3, 35009, Note_on_c, 0, 45, 0
3, 35012, Note_on_c, 0, 57, 0
3, 35040, Note_on_c, 0, 46, 88
3, 35040, Note_on_c, 0, 58, 100
3, 35122, Note_on_c, 0, 46, 0
3, 35123, Note_on_c, 0, 58, 0
3, 35160, Note_on_c, 0, 48, 78
3, 35160, Note_on_c, 0, 60, 88
3, 35236, Note_on_c, 0, 48, 0
3, 35242, Note_on_c, 0, 60, 0
3, 35280, Note_on_c, 0, 50, 88
3, 35280, Note_on_c, 0, 62, 88
3, 35370, Note_on_c, 0, 62, 0
3, 35370, Note_on_c, 0, 50, 0
3, 35400, Note_on_c, 0, 55, 78
3, 35430, Note_on_c, 0, 55, 0
3, 35460, Note_on_c, 0, 55, 68
3, 35490, Note_on_c, 0, 55, 0
3, 35520, Note_on_c, 0, 55, 78
3, 35550, Note_on_c, 0, 55, 0
3, 35580, Note_on_c, 0, 55, 68
3, 35610, Note_on_c, 0, 55, 0
3, 35640, Note_on_c, 0, 59, 88
3, 35640, Note_on_c, 0, 47, 100
3, 35760, Note_on_c, 0, 47, 0
3, 35760, Note_on_c, 0, 59, 0
3, 35760, Note_on_c, 0, 48, 78
3, 35760, Note_on_c, 0, 60, 88
3, 35867, Note_on_c, 0, 48, 0
3, 35877, Note_on_c, 0, 60, 0
3, 35880, Note_on_c, 0, 50, 88
3, 35880, Note_on_c, 0, 62, 88
3, 35951, Note_on_c, 0, 50, 0
3, 35971, Note_on_c, 0, 62, 0
3, 36000, Note_on_c, 0, 63, 114
3, 36000, Note_on_c, 0, 51, 88
3, 36037, Note_on_c, 0, 51, 0
3, 36044, Note_on_c, 0, 63, 0
3, 36060, Note_on_c, 0, 51, 68
3, 36060, Note_on_c, 0, 39, 78
3, 36087, Note_on_c, 0, 39, 0
3, 36087, Note_on_c, 0, 51, 0
3, 36120, Note_on_c, 0, 51, 78
3, 36120, Note_on_c, 0, 39, 88
3, 36144, Note_on_c, 0, 39, 0
3, 36146, Note_on_c, 0, 51, 0
3, 36180, Note_on_c, 0, 51, 68
3, 36180, Note_on_c, 0, 39, 78
3, 36201, Note_on_c, 0, 51, 0
3, 36202, Note_on_c, 0, 39, 0
3, 36240, Note_on_c, 0, 51, 68
3, 36240, Note_on_c, 0, 39, 78
3, 36260, Note_on_c, 0, 51, 0
3, 36262, Note_on_c, 0, 39, 0
3, 36300, Note_on_c, 0, 51, 68
3, 36300, Note_on_c, 0, 39, 78
3, 36316, Note_on_c, 0, 51, 0
3, 36319, Note_on_c, 0, 39, 0
3, 36360, Note_on_c, 0, 39, 100
3, 36360, Note_on_c, 0, 51, 78
3, 36390, Note_on_c, 0, 51, 0
3, 36390, Note_on_c, 0, 39, 0
3, 36420, Note_on_c, 0, 39, 78
3, 36420, Note_on_c, 0, 51, 68
3, 36450, Note_on_c, 0, 51, 0
3, 36450, Note_on_c, 0, 39, 0
3, 36480, Note_on_c, 0, 39, 88
3, 36480, Note_on_c, 0, 51, 88
3, 36510, Note_on_c, 0, 51, 0
3, 36510, Note_on_c, 0, 39, 0
3, 36540, Note_on_c, 0, 51, 60
3, 36540, Note_on_c, 0, 39, 68
3, 36570, Note_on_c, 0, 39, 0
3, 36570, Note_on_c, 0, 51, 0
3, 36600, Note_on_c, 0, 51, 78
3, 36600, Note_on_c, 0, 39, 88
3, 36630, Note_on_c, 0, 39, 0
3, 36630, Note_on_c, 0, 51, 0
3, 36660, Note_on_c, 0, 51, 60
3, 36660, Note_on_c, 0, 39, 78
3, 36690, Note_on_c, 0, 39, 0
3, 36690, Note_on_c, 0, 51, 0
3, 36720, Note_on_c, 0, 40, 78
3, 36720, Note_on_c, 0, 52, 88
3, 36745, Note_on_c, 0, 40, 0
3, 36746, Note_on_c, 0, 52, 0
3, 36780, Note_on_c, 0, 40, 52
3, 36780, Note_on_c, 0, 52, 60
3, 36802, Note_on_c, 0, 40, 0
3, 36803, Note_on_c, 0, 52, 0
3, 36840, Note_on_c, 0, 40, 68
3, 36840, Note_on_c, 0, 52, 78
3, 36863, Note_on_c, 0, 40, 0
3, 36865, Note_on_c, 0, 52, 0
3, 36900, Note_on_c, 0, 40, 60
3, 36900, Note_on_c, 0, 52, 68
3, 36921, Note_on_c, 0, 52, 0
3, 36921, Note_on_c, 0, 40, 0
3, 36960, Note_on_c, 0, 40, 68
3, 36960, Note_on_c, 0, 52, 68
3, 36979, Note_on_c, 0, 52, 0
3, 36981, Note_on_c, 0, 40, 0
3, 37020, Note_on_c, 0, 40, 39
3, 37020, Note_on_c, 0, 52, 60
3, 37037, Note_on_c, 0, 40, 0
3, 37039, Note_on_c, 0, 52, 0
3, 37080, Note_on_c, 0, 40, 88
3, 37080, Note_on_c, 0, 52, 88
3, 37156, Note_on_c, 0, 52, 0
3, 37157, Note_on_c, 0, 40, 0
3, 37440, Note_on_c, 0, 53, 78
3, 37440, Note_on_c, 0, 60, 78
3, 37554, Note_on_c, 0, 53, 0
3, 37560, Note_on_c, 0, 55, 45
3, 37680, Note_on_c, 0, 56, 68
3, 37691, Note_on_c, 0, 55, 0
3, 37795, Note_on_c, 0, 60, 0
3, 37800, Note_on_c, 0, 58, 52
3, 37802, Note_on_c, 0, 56, 0
3, 37915, Note_on_c, 0, 58, 0
3, 37920, Note_on_c, 0, 56, 52
3, 38040, Note_on_c, 0, 55, 34
3, 38042, Note_on_c, 0, 56, 0
3, 38156, Note_on_c, 0, 55, 0
3, 38160, Note_on_c, 0, 53, 52
3, 38279, Note_on_c, 0, 53, 0
3, 38280, Note_on_c, 0, 55, 45
3, 38400, Note_on_c, 0, 56, 52
3, 38403, Note_on_c, 0, 55, 0
3, 38520, Note_on_c, 0, 58, 52
3, 38521, Note_on_c, 0, 56, 0
3, 38638, Note_on_c, 0, 58, 0
3, 38640, Note_on_c, 0, 56, 60
3, 38760, Note_on_c, 0, 55, 45
3, 38767, Note_on_c, 0, 56, 0
3, 38871, Note_on_c, 0, 55, 0
3, 38880, Note_on_c, 0, 53, 52
3, 39000, Note_on_c, 0, 55, 34
3, 39007, Note_on_c, 0, 53, 0
3, 39119, Note_on_c, 0, 55, 0
3, 39120, Note_on_c, 0, 56, 60
3, 39240, Note_on_c, 0, 58, 60
3, 39245, Note_on_c, 0, 56, 0
3, 39360, Note_on_c, 0, 61, 60
3, 39363, Note_on_c, 0, 58, 0
3, 39480, Note_on_c, 0, 58, 45
3, 39486, Note_on_c, 0, 61, 0
3, 39600, Note_on_c, 0, 56, 60
3, 39602, Note_on_c, 0, 58, 0
3, 39720, Note_on_c, 0, 65, 60
3, 39726, Note_on_c, 0, 56, 0
3, 39834, Note_on_c, 0, 65, 0
3, 39840, Note_on_c, 0, 60, 45
3, 39958, Note_on_c, 0, 60, 0
3, 39960, Note_on_c, 0, 58, 60
3, 40080, Note_on_c, 0, 60, 20
3, 40087, Note_on_c, 0, 58, 0
3, 40191, Note_on_c, 0, 60, 0
3, 40200, Note_on_c, 0, 48, 45
3, 40306, Note_on_c, 0, 48, 0
3, 40320, Note_on_c, 0, 41, 34
3, 40320, Note_on_c, 0, 53, 60
3, 40383, Note_on_c, 0, 41, 0
3, 40391, Note_on_c, 0, 53, 0
3, 40440, Note_on_c, 0, 29, 100
3, 40440, Note_on_c, 0, 41, 100
3, 40535, Note_on_c, 0, 29, 0
3, 40541, Note_on_c, 0, 41, 0
3, 40650, Note_on_c, 0, 53, 60
3, 40650, Note_on_c, 0, 41, 60
3, 40671, Note_on_c, 0, 53, 0
3, 40673, Note_on_c, 0, 41, 0
3, 40680, Note_on_c, 0, 40, 68
3, 40680, Note_on_c, 0, 50, 52
3, 40708, Note_on_c, 0, 50, 0
3, 40711, Note_on_c, 0, 40, 0
3, 40740, Note_on_c, 0, 53, 52
3, 40758, Note_on_c, 0, 53, 0
3, 40770, Note_on_c, 0, 58, 78
3, 40788, Note_on_c, 0, 58, 0
3, 40800, Note_on_c, 0, 62, 78
3, 40800, Note_on_c, 0, 50, 78
3, 40816, Note_on_c, 0, 50, 0
3, 40821, Note_on_c, 0, 62, 0
3, 40860, Note_on_c, 0, 50, 52
3, 40860, Note_on_c, 0, 62, 60
3, 40868, Note_on_c, 0, 50, 0
3, 40879, Note_on_c, 0, 62, 0
3, 40920, Note_on_c, 0, 50, 52
3, 40920, Note_on_c, 0, 62, 52
3, 40928, Note_on_c, 0, 50, 0
3, 40955, Note_on_c, 0, 62, 0
3, 40980, Note_on_c, 0, 38, 88
3, 40980, Note_on_c, 0, 50, 60
3, 40995, Note_on_c, 0, 50, 0
3, 41002, Note_on_c, 0, 38, 0
3, 41040, Note_on_c, 0, 39, 100
3, 41040, Note_on_c, 0, 51, 100
3, 41119, Note_on_c, 0, 39, 0
3, 41129, Note_on_c, 0, 51, 0
3, 41160, Note_on_c, 0, 51, 88
3, 41297, Note_on_c, 0, 51, 0
3, 41340, Note_on_c, 0, 39, 78
3, 41358, Note_on_c, 0, 39, 0
3, 41370, Note_on_c, 0, 51, 88
3, 41388, Note_on_c, 0, 51, 0
3, 41400, Note_on_c, 0, 48, 88
3, 41400, Note_on_c, 0, 36, 100
3, 41446, Note_on_c, 0, 36, 0
3, 41450, Note_on_c, 0, 48, 0
3, 41460, Note_on_c, 0, 51, 60
3, 41490, Note_on_c, 0, 56, 68
3, 41494, Note_on_c, 0, 51, 0
3, 41505, Note_on_c, 0, 56, 0
3, 41520, Note_on_c, 0, 48, 88
3, 41520, Note_on_c, 0, 60, 88
3, 41534, Note_on_c, 0, 48, 0
3, 41535, Note_on_c, 0, 60, 0
3, 41580, Note_on_c, 0, 48, 60
3, 41580, Note_on_c, 0, 60, 68
3, 41591, Note_on_c, 0, 60, 0
3, 41592, Note_on_c, 0, 48, 0
3, 41640, Note_on_c, 0, 48, 78
3, 41640, Note_on_c, 0, 60, 78
3, 41652, Note_on_c, 0, 60, 0
3, 41658, Note_on_c, 0, 48, 0
3, 41700, Note_on_c, 0, 48, 68
3, 41700, Note_on_c, 0, 36, 78
3, 41716, Note_on_c, 0, 48, 0
3, 41723, Note_on_c, 0, 36, 0
3, 41760, Note_on_c, 0, 38, 88
3, 41760, Note_on_c, 0, 50, 88
3, 41826, Note_on_c, 0, 38, 0
3, 41835, Note_on_c, 0, 50, 0
3, 41880, Note_on_c, 0, 50, 88
3, 41977, Note_on_c, 0, 50, 0
3, 42090, Note_on_c, 0, 38, 29
3, 42090, Note_on_c, 0, 50, 60
3, 42114, Note_on_c, 0, 50, 0
3, 42114, Note_on_c, 0, 38, 0
3, 42120, Note_on_c, 0, 35, 88
3, 42120, Note_on_c, 0, 47, 88
3, 42164, Note_on_c, 0, 35, 0
3, 42169, Note_on_c, 0, 47, 0
3, 42180, Note_on_c, 0, 50, 45
3, 42203, Note_on_c, 0, 50, 0
3, 42210, Note_on_c, 0, 55, 52
3, 42218, Note_on_c, 0, 55, 0
3, 42240, Note_on_c, 0, 59, 60
3, 42240, Note_on_c, 0, 47, 39
3, 42254, Note_on_c, 0, 47, 0
3, 42254, Note_on_c, 0, 59, 0
3, 42300, Note_on_c, 0, 59, 60
3, 42300, Note_on_c, 0, 47, 68
3, 42315, Note_on_c, 0, 47, 0
3, 42316, Note_on_c, 0, 59, 0
3, 42360, Note_on_c, 0, 47, 60
3, 42360, Note_on_c, 0, 59, 78
3, 42383, Note_on_c, 0, 47, 0
3, 42386, Note_on_c, 0, 59, 0
3, 42420, Note_on_c, 0, 47, 68
3, 42420, Note_on_c, 0, 35, 68
3, 42433, Note_on_c, 0, 35, 0
3, 42440, Note_on_c, 0, 47, 0
3, 42480, Note_on_c, 0, 36, 100
3, 42480, Note_on_c, 0, 48, 88
3, 42513, Note_on_c, 0, 48, 0
3, 42513, Note_on_c, 0, 36, 0
3, 42540, Note_on_c, 0, 60, 60
3, 42540, Note_on_c, 0, 48, 52
3, 42558, Note_on_c, 0, 48, 0
3, 42562, Note_on_c, 0, 60, 0
3, 42600, Note_on_c, 0, 48, 52
3, 42600, Note_on_c, 0, 60, 60
3, 42619, Note_on_c, 0, 60, 0
3, 42619, Note_on_c, 0, 48, 0
3, 42660, Note_on_c, 0, 48, 60
3, 42660, Note_on_c, 0, 60, 68
3, 42681, Note_on_c, 0, 48, 0
3, 42688, Note_on_c, 0, 60, 0
3, 42720, Note_on_c, 0, 58, 68
3, 42720, Note_on_c, 0, 46, 68
3, 42741, Note_on_c, 0, 46, 0
3, 42742, Note_on_c, 0, 58, 0
3, 42780, Note_on_c, 0, 58, 78
3, 42780, Note_on_c, 0, 46, 78
3, 42799, Note_on_c, 0, 46, 0
3, 42804, Note_on_c, 0, 58, 0
3, 42840, Note_on_c, 0, 44, 88
3, 42840, Note_on_c, 0, 56, 100
3, 42859, Note_on_c, 0, 56, 0
3, 42860, Note_on_c, 0, 44, 0
3, 42900, Note_on_c, 0, 44, 68
3, 42900, Note_on_c, 0, 56, 78
3, 42919, Note_on_c, 0, 44, 0
3, 42920, Note_on_c, 0, 56, 0
3, 42960, Note_on_c, 0, 44, 78
3, 42960, Note_on_c, 0, 56, 88
3, 42972, Note_on_c, 0, 56, 0
3, 42979, Note_on_c, 0, 44, 0
3, 43020, Note_on_c, 0, 44, 78
3, 43020, Note_on_c, 0, 56, 88
3, 43035, Note_on_c, 0, 56, 0
3, 43037, Note_on_c, 0, 44, 0
3, 43080, Note_on_c, 0, 44, 78
3, 43080, Note_on_c, 0, 56, 78
3, 43096, Note_on_c, 0, 56, 0
3, 43098, Note_on_c, 0, 44, 0
3, 43140, Note_on_c, 0, 56, 88
3, 43140, Note_on_c, 0, 44, 78
3, 43154, Note_on_c, 0, 56, 0
3, 43156, Note_on_c, 0, 44, 0
3, 43200, Note_on_c, 0, 55, 88
3, 43200, Note_on_c, 0, 43, 78
3, 43218, Note_on_c, 0, 43, 0
3, 43222, Note_on_c, 0, 55, 0
3, 43260, Note_on_c, 0, 43, 52
3, 43260, Note_on_c, 0, 55, 52
3, 43275, Note_on_c, 0, 43, 0
3, 43277, Note_on_c, 0, 55, 0
3, 43320, Note_on_c, 0, 43, 60
3, 43320, Note_on_c, 0, 55, 68
3, 43336, Note_on_c, 0, 55, 0
3, 43336, Note_on_c, 0, 43, 0
3, 43380, Note_on_c, 0, 43, 60
3, 43380, Note_on_c, 0, 55, 52
3, 43395, Note_on_c, 0, 55, 0
3, 43396, Note_on_c, 0, 43, 0
3, 43440, Note_on_c, 0, 43, 68
3, 43440, Note_on_c, 0, 55, 60
3, 43456, Note_on_c, 0, 55, 0
3, 43456, Note_on_c, 0, 43, 0
3, 43500, Note_on_c, 0, 43, 52
3, 43500, Note_on_c, 0, 55, 68
3, 43514, Note_on_c, 0, 43, 0
3, 43515, Note_on_c, 0, 55, 0
3, 43560, Note_on_c, 0, 43, 88
3, 43560, Note_on_c, 0, 55, 100
3, 43593, Note_on_c, 0, 55, 0
3, 43593, Note_on_c, 0, 43, 0
3, 43920, Note_on_c, 0, 48, 34
3, 44040, Note_on_c, 0, 50, 9
3, 44046, Note_on_c, 0, 48, 0
3, 44156, Note_on_c, 0, 50, 0
3, 44160, Note_on_c, 0, 51, 39
3, 44277, Note_on_c, 0, 51, 0
3, 44280, Note_on_c, 0, 53, 20
3, 44400, Note_on_c, 0, 51, 34
3, 44409, Note_on_c, 0, 53, 0
3, 44515, Note_on_c, 0, 51, 0
3, 44520, Note_on_c, 0, 50, 29
3, 44637, Note_on_c, 0, 50, 0
3, 44640, Note_on_c, 0, 48, 34
3, 44758, Note_on_c, 0, 48, 0
3, 44760, Note_on_c, 0, 50, 29
3, 44880, Note_on_c, 0, 51, 52
3, 44881, Note_on_c, 0, 50, 0
3, 44998, Note_on_c, 0, 51, 0
3, 45000, Note_on_c, 0, 53, 39
3, 45120, Note_on_c, 0, 51, 45
3, 45121, Note_on_c, 0, 53, 0
3, 45240, Note_on_c, 0, 50, 29
3, 45241, Note_on_c, 0, 51, 0
3, 45357, Note_on_c, 0, 50, 0
3, 45360, Note_on_c, 0, 48, 39
3, 45480, Note_on_c, 0, 50, 39
3, 45481, Note_on_c, 0, 48, 0
3, 45600, Note_on_c, 0, 51, 39
3, 45603, Note_on_c, 0, 50, 0
3, 45707, Note_on_c, 0, 51, 0
3, 45720, Note_on_c, 0, 52, 20
3, 45720, Note_on_c, 0, 58, 60
3, 45802, Note_on_c, 0, 58, 0
3, 45840, Note_on_c, 0, 67, 60
3, 45913, Note_on_c, 0, 52, 0
3, 45940, Note_on_c, 0, 67, 0
3, 45960, Note_on_c, 0, 52, 25
3, 45960, Note_on_c, 0, 60, 52
3, 46043, Note_on_c, 0, 60, 0
3, 46076, Note_on_c, 0, 52, 0
3, 46080, Note_on_c, 0, 53, 25
3, 46080, Note_on_c, 0, 56, 52
3, 46200, Note_on_c, 0, 67, 45
3, 46226, Note_on_c, 0, 53, 0
3, 46279, Note_on_c, 0, 56, 0
3, 46315, Note_on_c, 0, 67, 0
3, 46320, Note_on_c, 0, 53, 29
3, 46320, Note_on_c, 0, 60, 39
3, 46418, Note_on_c, 0, 53, 0
3, 46440, Note_on_c, 0, 56, 52
3, 46444, Note_on_c, 0, 60, 0
3, 46560, Note_on_c, 0, 60, 39
3, 46566, Note_on_c, 0, 56, 0
3, 46680, Note_on_c, 0, 66, 68
3, 46682, Note_on_c, 0, 60, 0
3, 46757, Note_on_c, 0, 66, 0
3, 46800, Note_on_c, 0, 67, 78
3, 46800, Note_on_c, 0, 55, 68
3, 46845, Note_on_c, 0, 67, 0
3, 46859, Note_on_c, 0, 55, 0
3, 46920, Note_on_c, 0, 43, 52
3, 46920, Note_on_c, 0, 55, 60
3, 47006, Note_on_c, 0, 43, 0
3, 47010, Note_on_c, 0, 55, 0
3, 47160, Note_on_c, 0, 43, 60
3, 47160, Note_on_c, 0, 55, 60
3, 47243, Note_on_c, 0, 43, 0
3, 47259, Note_on_c, 0, 55, 0
3, 47280, Note_on_c, 0, 43, 60
3, 47280, Note_on_c, 0, 31, 52
3, 47354, Note_on_c, 0, 31, 0
3, 47363, Note_on_c, 0, 43, 0
3, 47520, Note_on_c, 0, 43, 52
3, 47520, Note_on_c, 0, 55, 60
3, 47585, Note_on_c, 0, 43, 0
3, 47587, Note_on_c, 0, 55, 0
3, 47640, Note_on_c, 0, 55, 68
3, 47640, Note_on_c, 0, 43, 39
3, 47716, Note_on_c, 0, 43, 0
3, 47717, Note_on_c, 0, 55, 0
3, 47760, Note_on_c, 0, 55, 68
3, 47760, Note_on_c, 0, 43, 39
3, 47831, Note_on_c, 0, 43, 0
3, 47832, Note_on_c, 0, 55, 0
3, 47880, Note_on_c, 0, 43, 45
3, 47880, Note_on_c, 0, 55, 52
3, 47902, Note_on_c, 0, 43, 0
3, 47906, Note_on_c, 0, 55, 0
3, 47940, Note_on_c, 0, 43, 39
3, 47940, Note_on_c, 0, 55, 52
3, 47962, Note_on_c, 0, 43, 0
3, 47965, Note_on_c, 0, 55, 0
3, 48000, Note_on_c, 0, 55, 60
3, 48000, Note_on_c, 0, 43, 39
3, 48023, Note_on_c, 0, 43, 0
3, 48027, Note_on_c, 0, 55, 0
3, 48060, Note_on_c, 0, 55, 52
3, 48060, Note_on_c, 0, 43, 34
3, 48080, Note_on_c, 0, 43, 0
3, 48084, Note_on_c, 0, 55, 0
3, 48120, Note_on_c, 0, 55, 60
3, 48120, Note_on_c, 0, 43, 34
3, 48140, Note_on_c, 0, 43, 0
3, 48143, Note_on_c, 0, 55, 0
3, 48180, Note_on_c, 0, 43, 25
3, 48180, Note_on_c, 0, 55, 45
3, 48206, Note_on_c, 0, 55, 0
3, 48206, Note_on_c, 0, 43, 0
3, 48240, Note_on_c, 0, 36, 100
3, 48240, Note_on_c, 0, 48, 88
3, 48283, Note_on_c, 0, 36, 0
3, 48291, Note_on_c, 0, 48, 0
3, 48300, Note_on_c, 0, 52, 39
3, 48330, Note_on_c, 0, 55, 52
3, 48335, Note_on_c, 0, 52, 0
3, 48354, Note_on_c, 0, 55, 0
3, 48360, Note_on_c, 0, 48, 68
3, 48360, Note_on_c, 0, 60, 78
3, 48375, Note_on_c, 0, 48, 0
3, 48378, Note_on_c, 0, 60, 0
3, 48420, Note_on_c, 0, 48, 60
3, 48420, Note_on_c, 0, 60, 52
3, 48433, Note_on_c, 0, 48, 0
3, 48434, Note_on_c, 0, 60, 0
3, 48480, Note_on_c, 0, 60, 68
3, 48480, Note_on_c, 0, 48, 68
3, 48499, Note_on_c, 0, 48, 0
3, 48500, Note_on_c, 0, 60, 0
3, 48540, Note_on_c, 0, 60, 60
3, 48556, Note_on_c, 0, 60, 0
3, 48600, Note_on_c, 0, 60, 45
3, 48616, Note_on_c, 0, 60, 0
3, 48660, Note_on_c, 0, 60, 25
3, 48678, Note_on_c, 0, 60, 0
3, 48720, Note_on_c, 0, 60, 29
3, 48736, Note_on_c, 0, 60, 0
3, 48780, Note_on_c, 0, 60, 18
3, 48796, Note_on_c, 0, 60, 0
3, 48840, Note_on_c, 0, 60, 29
3, 48859, Note_on_c, 0, 60, 0
3, 48900, Note_on_c, 0, 60, 34
3, 48918, Note_on_c, 0, 60, 0
3, 48960, Note_on_c, 0, 60, 39
3, 48979, Note_on_c, 0, 60, 0
3, 49020, Note_on_c, 0, 60, 29
3, 49040, Note_on_c, 0, 60, 0
3, 49080, Note_on_c, 0, 60, 39
3, 49102, Note_on_c, 0, 60, 0
3, 49140, Note_on_c, 0, 60, 25
3, 49163, Note_on_c, 0, 60, 0
3, 49200, Note_on_c, 0, 60, 52
3, 49221, Note_on_c, 0, 60, 0
3, 49260, Note_on_c, 0, 60, 34
3, 49278, Note_on_c, 0, 60, 0
3, 49320, Note_on_c, 0, 60, 45
3, 49340, Note_on_c, 0, 60, 0
3, 49380, Note_on_c, 0, 60, 34
3, 49398, Note_on_c, 0, 60, 0
3, 49440, Note_on_c, 0, 60, 45
3, 49465, Note_on_c, 0, 60, 0
3, 49500, Note_on_c, 0, 60, 39
3, 49521, Note_on_c, 0, 60, 0
3, 49560, Note_on_c, 0, 60, 52
3, 49577, Note_on_c, 0, 60, 0
3, 49620, Note_on_c, 0, 60, 60
3, 49653, Note_on_c, 0, 60, 0
3, 49680, Note_on_c, 0, 48, 100
3, 49680, Note_on_c, 0, 36, 100
3, 49733, Note_on_c, 0, 36, 0
3, 49738, Note_on_c, 0, 48, 0
3, 49740, Note_on_c, 0, 52, 60
3, 49766, Note_on_c, 0, 52, 0
3, 49770, Note_on_c, 0, 55, 39
3, 49788, Note_on_c, 0, 55, 0
3, 49800, Note_on_c, 0, 60, 68
3, 49800, Note_on_c, 0, 48, 78
3, 49819, Note_on_c, 0, 48, 0
3, 49821, Note_on_c, 0, 60, 0
3, 49860, Note_on_c, 0, 60, 78
3, 49860, Note_on_c, 0, 48, 88
3, 49877, Note_on_c, 0, 48, 0
3, 49881, Note_on_c, 0, 60, 0
3, 49920, Note_on_c, 0, 48, 100
3, 49920, Note_on_c, 0, 60, 88
3, 49933, Note_on_c, 0, 48, 0
3, 49942, Note_on_c, 0, 60, 0
3, 49980, Note_on_c, 0, 60, 29
3, 50001, Note_on_c, 0, 60, 0
3, 50040, Note_on_c, 0, 60, 14
3, 50058, Note_on_c, 0, 60, 0
3, 50100, Note_on_c, 0, 60, 12
3, 50124, Note_on_c, 0, 60, 0
3, 50160, Note_on_c, 0, 60, 20
3, 50179, Note_on_c, 0, 60, 0
3, 50220, Note_on_c, 0, 60, 20
3, 50240, Note_on_c, 0, 60, 0
3, 50280, Note_on_c, 0, 60, 20
3, 50300, Note_on_c, 0, 60, 0
3, 50340, Note_on_c, 0, 60, 34
3, 50360, Note_on_c, 0, 60, 0
3, 50400, Note_on_c, 0, 60, 39
3, 50421, Note_on_c, 0, 60, 0
3, 50460, Note_on_c, 0, 60, 25
3, 50479, Note_on_c, 0, 60, 0
3, 50520, Note_on_c, 0, 60, 25
3, 50541, Note_on_c, 0, 60, 0
3, 50580, Note_on_c, 0, 60, 29
3, 50601, Note_on_c, 0, 60, 0
3, 50640, Note_on_c, 0, 60, 45
3, 50662, Note_on_c, 0, 60, 0
3, 50700, Note_on_c, 0, 60, 14
3, 50723, Note_on_c, 0, 60, 0
3, 50760, Note_on_c, 0, 60, 20
3, 50784, Note_on_c, 0, 60, 0
3, 50820, Note_on_c, 0, 60, 14
3, 50839, Note_on_c, 0, 60, 0
3, 50880, Note_on_c, 0, 60, 34
3, 50902, Note_on_c, 0, 60, 0
3, 50940, Note_on_c, 0, 60, 20
3, 50959, Note_on_c, 0, 60, 0
3, 51000, Note_on_c, 0, 60, 39
3, 51022, Note_on_c, 0, 60, 0
3, 51060, Note_on_c, 0, 60, 39
3, 51084, Note_on_c, 0, 60, 0
3, 51120, Note_on_c, 0, 48, 88
3, 51120, Note_on_c, 0, 36, 100
3, 51170, Note_on_c, 0, 36, 0
3, 51177, Note_on_c, 0, 48, 0
3, 51180, Note_on_c, 0, 52, 20
3, 51210, Note_on_c, 0, 55, 60
3, 51213, Note_on_c, 0, 52, 0
3, 51232, Note_on_c, 0, 55, 0
3, 51240, Note_on_c, 0, 48, 60
3, 51240, Note_on_c, 0, 60, 52
3, 51258, Note_on_c, 0, 48, 0
3, 51261, Note_on_c, 0, 60, 0
3, 51300, Note_on_c, 0, 60, 52
3, 51300, Note_on_c, 0, 48, 52
3, 51317, Note_on_c, 0, 48, 0
3, 51320, Note_on_c, 0, 60, 0
3, 51360, Note_on_c, 0, 48, 68
3, 51360, Note_on_c, 0, 60, 68
3, 51381, Note_on_c, 0, 60, 0
3, 51382, Note_on_c, 0, 48, 0
3, 51420, Note_on_c, 0, 60, 68
3, 51439, Note_on_c, 0, 60, 0
3, 51480, Note_on_c, 0, 48, 88
3, 51480, Note_on_c, 0, 36, 100
3, 51564, Note_on_c, 0, 36, 0
3, 51570, Note_on_c, 0, 48, 0
3, 51600, Note_on_c, 0, 48, 100
3, 51600, Note_on_c, 0, 60, 88
3, 51707, Note_on_c, 0, 60, 0
3, 51729, Note_on_c, 0, 48, 0
3, 51810, Note_on_c, 0, 48, 78
3, 51810, Note_on_c, 0, 36, 88
3, 51825, Note_on_c, 0, 48, 0
3, 51827, Note_on_c, 0, 36, 0
3, 51840, Note_on_c, 0, 47, 100
3, 51840, Note_on_c, 0, 35, 88
3, 51886, Note_on_c, 0, 35, 0
3, 51896, Note_on_c, 0, 47, 0
3, 51900, Note_on_c, 0, 50, 45
3, 51930, Note_on_c, 0, 55, 29
3, 51940, Note_on_c, 0, 50, 0
3, 51947, Note_on_c, 0, 55, 0
3, 51960, Note_on_c, 0, 47, 78
3, 51960, Note_on_c, 0, 59, 78
3, 51979, Note_on_c, 0, 47, 0
3, 51981, Note_on_c, 0, 59, 0
3, 52020, Note_on_c, 0, 47, 68
3, 52020, Note_on_c, 0, 59, 78
3, 52036, Note_on_c, 0, 59, 0
3, 52037, Note_on_c, 0, 47, 0
3, 52080, Note_on_c, 0, 47, 78
3, 52080, Note_on_c, 0, 59, 88
3, 52098, Note_on_c, 0, 59, 0
3, 52098, Note_on_c, 0, 47, 0
3, 52140, Note_on_c, 0, 47, 78
3, 52140, Note_on_c, 0, 35, 88
3, 52156, Note_on_c, 0, 47, 0
3, 52157, Note_on_c, 0, 35, 0
3, 52200, Note_on_c, 0, 45, 100
3, 52200, Note_on_c, 0, 33, 88
3, 52288, Note_on_c, 0, 33, 0
3, 52291, Note_on_c, 0, 45, 0
3, 52320, Note_on_c, 0, 45, 88
3, 52320, Note_on_c, 0, 57, 88
3, 52449, Note_on_c, 0, 57, 0
3, 52462, Note_on_c, 0, 45, 0
3, 52530, Note_on_c, 0, 45, 78
3, 52530, Note_on_c, 0, 33, 68
3, 52542, Note_on_c, 0, 45, 0
3, 52544, Note_on_c, 0, 33, 0
3, 52560, Note_on_c, 0, 43, 88
3, 52560, Note_on_c, 0, 31, 78
3, 52611, Note_on_c, 0, 31, 0
3, 52619, Note_on_c, 0, 43, 0
3, 52620, Note_on_c, 0, 48, 52
3, 52645, Note_on_c, 0, 48, 0
3, 52650, Note_on_c, 0, 52, 20
3, 52668, Note_on_c, 0, 52, 0
3, 52680, Note_on_c, 0, 55, 78
3, 52680, Note_on_c, 0, 43, 78
3, 52701, Note_on_c, 0, 43, 0
3, 52701, Note_on_c, 0, 55, 0
3, 52740, Note_on_c, 0, 43, 60
3, 52740, Note_on_c, 0, 55, 78
3, 52757, Note_on_c, 0, 55, 0
3, 52757, Note_on_c, 0, 43, 0
3, 52800, Note_on_c, 0, 43, 68
3, 52800, Note_on_c, 0, 55, 88
3, 52820, Note_on_c, 0, 55, 0
3, 52821, Note_on_c, 0, 43, 0
3, 52860, Note_on_c, 0, 43, 78
3, 52860, Note_on_c, 0, 31, 78
3, 52874, Note_on_c, 0, 43, 0
3, 52878, Note_on_c, 0, 31, 0
3, 52920, Note_on_c, 0, 41, 88
3, 52920, Note_on_c, 0, 29, 88
3, 52999, Note_on_c, 0, 29, 0
3, 53012, Note_on_c, 0, 41, 0
3, 53040, Note_on_c, 0, 41, 52
3, 53040, Note_on_c, 0, 53, 88
3, 53130, Note_on_c, 0, 41, 0
3, 53142, Note_on_c, 0, 53, 0
3, 53160, Note_on_c, 0, 43, 68
3, 53160, Note_on_c, 0, 55, 68
3, 53243, Note_on_c, 0, 43, 0
3, 53248, Note_on_c, 0, 55, 0
3, 53280, Note_on_c, 0, 45, 88
3, 53280, Note_on_c, 0, 57, 88
3, 53359, Note_on_c, 0, 45, 0
3, 53362, Note_on_c, 0, 57, 0
3, 53640, Note_on_c, 0, 45, 88
3, 53640, Note_on_c, 0, 57, 100
3, 53744, Note_on_c, 0, 57, 0
3, 53745, Note_on_c, 0, 45, 0
3, 54000, Note_on_c, 0, 45, 60
3, 54000, Note_on_c, 0, 57, 68
3, 54019, Note_on_c, 0, 57, 0
3, 54021, Note_on_c, 0, 45, 0
3, 54060, Note_on_c, 0, 45, 52
3, 54060, Note_on_c, 0, 57, 52
3, 54075, Note_on_c, 0, 45, 0
3, 54077, Note_on_c, 0, 57, 0
3, 54120, Note_on_c, 0, 45, 52
3, 54120, Note_on_c, 0, 57, 52
3, 54139, Note_on_c, 0, 45, 0
3, 54141, Note_on_c, 0, 57, 0
3, 54180, Note_on_c, 0, 57, 52
3, 54180, Note_on_c, 0, 45, 45
3, 54197, Note_on_c, 0, 45, 0
3, 54200, Note_on_c, 0, 57, 0
3, 54240, Note_on_c, 0, 45, 60
3, 54240, Note_on_c, 0, 57, 68
3, 54263, Note_on_c, 0, 57, 0
3, 54264, Note_on_c, 0, 45, 0
3, 54300, Note_on_c, 0, 45, 60
3, 54300, Note_on_c, 0, 57, 68
3, 54322, Note_on_c, 0, 57, 0
3, 54324, Note_on_c, 0, 45, 0
3, 54360, Note_on_c, 0, 43, 78
3, 54360, Note_on_c, 0, 55, 78
3, 54383, Note_on_c, 0, 55, 0
3, 54383, Note_on_c, 0, 43, 0
3, 54420, Note_on_c, 0, 55, 60
3, 54420, Note_on_c, 0, 43, 60
3, 54440, Note_on_c, 0, 55, 0
3, 54443, Note_on_c, 0, 43, 0
3, 54480, Note_on_c, 0, 43, 68
3, 54480, Note_on_c, 0, 55, 60
3, 54503, Note_on_c, 0, 55, 0
3, 54503, Note_on_c, 0, 43, 0
3, 54540, Note_on_c, 0, 43, 60
3, 54540, Note_on_c, 0, 55, 60
3, 54562, Note_on_c, 0, 55, 0
3, 54562, Note_on_c, 0, 43, 0
3, 54600, Note_on_c, 0, 43, 60
3, 54600, Note_on_c, 0, 55, 60
3, 54621, Note_on_c, 0, 55, 0
3, 54621, Note_on_c, 0, 43, 0
3, 54660, Note_on_c, 0, 43, 60
3, 54660, Note_on_c, 0, 55, 52
3, 54680, Note_on_c, 0, 55, 0
3, 54680, Note_on_c, 0, 43, 0
3, 54720, Note_on_c, 0, 43, 78
3, 54720, Note_on_c, 0, 55, 68
3, 54861, Note_on_c, 0, 55, 0
3, 54862, Note_on_c, 0, 43, 0
3, 55080, Note_on_c, 0, 67, 78
3, 55440, Note_on_c, 0, 64, 29
3, 55442, Note_on_c, 0, 67, 0
3, 55792, Note_on_c, 0, 64, 0
3, 55800, Note_on_c, 0, 60, 34
3, 56090, Note_on_c, 0, 60, 0
3, 56520, Note_on_c, 0, 43, 45
3, 56642, Note_on_c, 0, 43, 0
3, 56880, Note_on_c, 0, 45, 39
3, 56990, Note_on_c, 0, 45, 0
3, 57120, Note_on_c, 0, 41, 34
3, 57204, Note_on_c, 0, 41, 0
3, 57240, Note_on_c, 0, 43, 18
3, 57240, Note_on_c, 0, 55, 45
3, 57350, Note_on_c, 0, 43, 0
3, 57600, Note_on_c, 0, 43, 34
3, 57692, Note_on_c, 0, 43, 0
3, 57950, Note_on_c, 0, 55, 0
3, 57960, Note_on_c, 0, 48, 52
3, 57960, Note_on_c, 0, 36, 60
3, 58069, Note_on_c, 0, 48, 0
3, 58071, Note_on_c, 0, 36, 0
3, 58175, Note_on_c, 0, 48, 20
3, 58184, Note_on_c, 0, 50, 52
3, 58196, Note_on_c, 0, 52, 68
3, 58199, Note_on_c, 0, 48, 0
3, 58205, Note_on_c, 0, 50, 0
3, 58221, Note_on_c, 0, 52, 0
3, 58289, Note_on_c, 0, 52, 18
3, 58294, Note_on_c, 0, 53, 52
3, 58303, Note_on_c, 0, 52, 0
3, 58305, Note_on_c, 0, 55, 60
3, 58314, Note_on_c, 0, 53, 0
3, 58447, Note_on_c, 0, 55, 0
3, 58535, Note_on_c, 0, 52, 18
3, 58545, Note_on_c, 0, 53, 52
3, 58557, Note_on_c, 0, 55, 60
3, 58560, Note_on_c, 0, 52, 0
3, 58566, Note_on_c, 0, 53, 0
3, 58582, Note_on_c, 0, 55, 0
3, 58620, Note_on_c, 0, 55, 60
3, 58640, Note_on_c, 0, 57, 39
3, 58641, Note_on_c, 0, 55, 0
3, 58660, Note_on_c, 0, 59, 60
3, 58663, Note_on_c, 0, 57, 0
3, 58680, Note_on_c, 0, 60, 78
3, 58680, Note_on_c, 0, 48, 100
3, 58681, Note_on_c, 0, 59, 0
3, 58702, Note_on_c, 0, 48, 0
3, 58711, Note_on_c, 0, 60, 0
3, 58740, Note_on_c, 0, 36, 60
3, 58740, Note_on_c, 0, 48, 39
3, 58760, Note_on_c, 0, 48, 0
3, 58763, Note_on_c, 0, 36, 0
3, 58800, Note_on_c, 0, 48, 39
3, 58800, Note_on_c, 0, 36, 52
3, 58816, Note_on_c, 0, 36, 0
3, 58821, Note_on_c, 0, 48, 0
3, 58860, Note_on_c, 0, 48, 34
3, 58860, Note_on_c, 0, 36, 34
3, 58876, Note_on_c, 0, 36, 0
3, 58881, Note_on_c, 0, 48, 0
3, 58920, Note_on_c, 0, 48, 39
3, 58920, Note_on_c, 0, 36, 45
3, 58940, Note_on_c, 0, 36, 0
3, 58942, Note_on_c, 0, 48, 0
3, 58980, Note_on_c, 0, 48, 34
3, 58980, Note_on_c, 0, 36, 39
3, 58999, Note_on_c, 0, 36, 0
3, 59002, Note_on_c, 0, 48, 0
3, 59040, Note_on_c, 0, 48, 39
3, 59040, Note_on_c, 0, 36, 45
3, 59060, Note_on_c, 0, 36, 0
3, 59062, Note_on_c, 0, 48, 0
3, 59100, Note_on_c, 0, 48, 29
3, 59100, Note_on_c, 0, 36, 29
3, 59117, Note_on_c, 0, 36, 0
3, 59119, Note_on_c, 0, 48, 0
3, 59160, Note_on_c, 0, 48, 29
3, 59160, Note_on_c, 0, 36, 39
3, 59180, Note_on_c, 0, 36, 0
3, 59181, Note_on_c, 0, 48, 0
3, 59220, Note_on_c, 0, 48, 18
3, 59220, Note_on_c, 0, 36, 29
3, 59237, Note_on_c, 0, 36, 0
3, 59239, Note_on_c, 0, 48, 0
3, 59280, Note_on_c, 0, 48, 29
3, 59280, Note_on_c, 0, 36, 39
3, 59300, Note_on_c, 0, 36, 0
3, 59302, Note_on_c, 0, 48, 0
3, 59340, Note_on_c, 0, 48, 25
3, 59340, Note_on_c, 0, 36, 45
3, 59358, Note_on_c, 0, 36, 0
3, 59360, Note_on_c, 0, 48, 0
3, 59400, Note_on_c, 0, 48, 52
3, 59400, Note_on_c, 0, 36, 60
3, 59503, Note_on_c, 0, 48, 0
3, 59505, Note_on_c, 0, 36, 0
3, 59610, Note_on_c, 0, 48, 25
3, 59625, Note_on_c, 0, 50, 52
3, 59631, Note_on_c, 0, 48, 0
3, 59640, Note_on_c, 0, 52, 45
3, 59650, Note_on_c, 0, 50, 0
3, 59659, Note_on_c, 0, 52, 0
3, 59730, Note_on_c, 0, 52, 18
3, 59746, Note_on_c, 0, 53, 45
3, 59750, Note_on_c, 0, 52, 0
3, 59760, Note_on_c, 0, 55, 52
3, 59767, Note_on_c, 0, 53, 0
3, 59878, Note_on_c, 0, 55, 0
3, 59955, Note_on_c, 0, 52, 18
3, 59970, Note_on_c, 0, 53, 39
3, 59983, Note_on_c, 0, 52, 0
3, 59985, Note_on_c, 0, 55, 39
3, 59993, Note_on_c, 0, 53, 0
3, 60003, Note_on_c, 0, 55, 0
3, 60074, Note_on_c, 0, 55, 45
3, 60088, Note_on_c, 0, 57, 34
3, 60097, Note_on_c, 0, 55, 0
3, 60101, Note_on_c, 0, 59, 25
3, 60110, Note_on_c, 0, 57, 0
3, 60119, Note_on_c, 0, 59, 0
3, 60120, Note_on_c, 0, 60, 60
3, 60120, Note_on_c, 0, 48, 68
3, 60152, Note_on_c, 0, 48, 0
3, 60154, Note_on_c, 0, 60, 0
3, 60180, Note_on_c, 0, 48, 45
3, 60180, Note_on_c, 0, 36, 45
3, 60199, Note_on_c, 0, 36, 0
3, 60201, Note_on_c, 0, 48, 0
3, 60240, Note_on_c, 0, 48, 39
3, 60240, Note_on_c, 0, 36, 60
3, 60259, Note_on_c, 0, 36, 0
3, 60260, Note_on_c, 0, 48, 0
3, 60300, Note_on_c, 0, 48, 34
3, 60300, Note_on_c, 0, 36, 45
3, 60318, Note_on_c, 0, 36, 0
3, 60318, Note_on_c, 0, 48, 0
3, 60360, Note_on_c, 0, 36, 52
3, 60360, Note_on_c, 0, 48, 34
3, 60379, Note_on_c, 0, 48, 0
3, 60381, Note_on_c, 0, 36, 0
3, 60420, Note_on_c, 0, 48, 34
3, 60420, Note_on_c, 0, 36, 39
3, 60437, Note_on_c, 0, 36, 0
3, 60441, Note_on_c, 0, 48, 0
3, 60480, Note_on_c, 0, 48, 39
3, 60480, Note_on_c, 0, 36, 60
3, 60500, Note_on_c, 0, 36, 0
3, 60501, Note_on_c, 0, 48, 0
3, 60540, Note_on_c, 0, 48, 29
3, 60540, Note_on_c, 0, 36, 29
3, 60556, Note_on_c, 0, 36, 0
3, 60560, Note_on_c, 0, 48, 0
3, 60600, Note_on_c, 0, 36, 45
3, 60600, Note_on_c, 0, 48, 25
3, 60621, Note_on_c, 0, 36, 0
3, 60622, Note_on_c, 0, 48, 0
3, 60660, Note_on_c, 0, 36, 52
3, 60660, Note_on_c, 0, 48, 29
3, 60681, Note_on_c, 0, 48, 0
3, 60681, Note_on_c, 0, 36, 0
3, 60720, Note_on_c, 0, 48, 25
3, 60720, Note_on_c, 0, 36, 29
3, 60736, Note_on_c, 0, 36, 0
3, 60736, Note_on_c, 0, 48, 0
3, 60780, Note_on_c, 0, 36, 39
3, 60780, Note_on_c, 0, 48, 25
3, 60798, Note_on_c, 0, 48, 0
3, 60798, Note_on_c, 0, 36, 0
3, 60840, Note_on_c, 0, 36, 60
3, 60840, Note_on_c, 0, 48, 45
3, 60915, Note_on_c, 0, 36, 0
3, 60923, Note_on_c, 0, 48, 0
3, 61200, Note_on_c, 0, 48, 52
3, 61200, Note_on_c, 0, 55, 52
3, 61266, Note_on_c, 0, 55, 0
3, 61268, Note_on_c, 0, 48, 0
3, 61320, Note_on_c, 0, 47, 60
3, 61320, Note_on_c, 0, 55, 52
3, 61386, Note_on_c, 0, 47, 0
3, 61387, Note_on_c, 0, 55, 0
3, 61440, Note_on_c, 0, 48, 45
3, 61440, Note_on_c, 0, 55, 68
3, 61503, Note_on_c, 0, 48, 0
3, 61504, Note_on_c, 0, 55, 0
3, 61560, Note_on_c, 0, 43, 52
3, 61560, Note_on_c, 0, 55, 60
3, 61635, Note_on_c, 0, 43, 0
3, 61651, Note_on_c, 0, 55, 0
3, 61680, Note_on_c, 0, 43, 68
3, 61680, Note_on_c, 0, 31, 68
3, 61732, Note_on_c, 0, 31, 0
3, 61732, Note_on_c, 0, 43, 0
3, 61920, Note_on_c, 0, 60, 68
3, 62013, Note_on_c, 0, 60, 0
3, 62280, Note_on_c, 0, 55, 34
3, 62376, Note_on_c, 0, 55, 0
3, 62640, Note_on_c, 0, 48, 39
3, 62640, Note_on_c, 0, 60, 39
3, 62750, Note_on_c, 0, 48, 0
3, 62940, Note_on_c, 0, 62, 45
3, 62944, Note_on_c, 0, 60, 0
3, 62959, Note_on_c, 0, 62, 0
3, 62970, Note_on_c, 0, 64, 29
3, 62997, Note_on_c, 0, 64, 0
3, 63000, Note_on_c, 0, 55, 29
3, 63000, Note_on_c, 0, 62, 39
3, 63099, Note_on_c, 0, 62, 0
3, 63357, Note_on_c, 0, 55, 0
3, 63360, Note_on_c, 0, 48, 34
3, 63360, Note_on_c, 0, 60, 45
3, 63465, Note_on_c, 0, 48, 0
3, 63466, Note_on_c, 0, 60, 0
3, 63720, Note_on_c, 0, 55, 52
3, 63846, Note_on_c, 0, 55, 0
3, 64080, Note_on_c, 0, 48, 25
3, 64080, Note_on_c, 0, 60, 39
3, 64316, Note_on_c, 0, 60, 0
3, 64354, Note_on_c, 0, 48, 0
3, 64380, Note_on_c, 0, 62, 39
3, 64398, Note_on_c, 0, 62, 0
3, 64410, Note_on_c, 0, 64, 14
3, 64434, Note_on_c, 0, 64, 0
3, 64440, Note_on_c, 0, 55, 29
3, 64440, Note_on_c, 0, 62, 34
3, 64554, Note_on_c, 0, 62, 0
3, 64698, Note_on_c, 0, 55, 0
3, 64800, Note_on_c, 0, 48, 88
3, 64800, Note_on_c, 0, 36, 100
3, 64860, Note_on_c, 0, 48, 0
3, 64866, Note_on_c, 0, 36, 0
3, 64920, Note_on_c, 0, 48, 88
3, 64920, Note_on_c, 0, 60, 100
3, 64988, Note_on_c, 0, 48, 0
3, 65001, Note_on_c, 0, 60, 0
3, 65040, Note_on_c, 0, 47, 100
3, 65040, Note_on_c, 0, 59, 88
3, 65110, Note_on_c, 0, 47, 0
3, 65118, Note_on_c, 0, 59, 0
3, 65160, Note_on_c, 0, 46, 100
3, 65160, Note_on_c, 0, 58, 100
3, 65236, Note_on_c, 0, 46, 0
3, 65237, Note_on_c, 0, 58, 0
3, 65280, Note_on_c, 0, 45, 88
3, 65280, Note_on_c, 0, 57, 88
3, 65363, Note_on_c, 0, 57, 0
3, 65367, Note_on_c, 0, 45, 0
3, 65400, Note_on_c, 0, 41, 78
3, 65400, Note_on_c, 0, 53, 88
3, 65469, Note_on_c, 0, 53, 0
3, 65472, Note_on_c, 0, 41, 0
3, 65520, Note_on_c, 0, 40, 78
3, 65520, Note_on_c, 0, 52, 88
3, 65587, Note_on_c, 0, 40, 0
3, 65598, Note_on_c, 0, 52, 0
3, 65640, Note_on_c, 0, 48, 88
3, 65640, Note_on_c, 0, 60, 88
3, 65724, Note_on_c, 0, 48, 0
3, 65730, Note_on_c, 0, 60, 0
3, 65760, Note_on_c, 0, 47, 88
3, 65760, Note_on_c, 0, 59, 88
3, 65836, Note_on_c, 0, 59, 0
3, 65836, Note_on_c, 0, 47, 0
3, 65880, Note_on_c, 0, 46, 100
3, 65880, Note_on_c, 0, 58, 100
3, 65949, Note_on_c, 0, 46, 0
3, 65959, Note_on_c, 0, 58, 0
3, 66000, Note_on_c, 0, 45, 78
3, 66000, Note_on_c, 0, 57, 88
3, 66067, Note_on_c, 0, 57, 0
3, 66082, Note_on_c, 0, 45, 0
3, 66120, Note_on_c, 0, 41, 78
3, 66120, Note_on_c, 0, 53, 88
3, 66189, Note_on_c, 0, 53, 0
3, 66193, Note_on_c, 0, 41, 0
3, 66240, Note_on_c, 0, 40, 88
3, 66240, Note_on_c, 0, 52, 78
3, 66269, Note_on_c, 0, 52, 0
3, 66283, Note_on_c, 0, 40, 0
3, 66300, Note_on_c, 0, 52, 68
3, 66319, Note_on_c, 0, 52, 0
3, 66360, Note_on_c, 0, 48, 78
3, 66360, Note_on_c, 0, 60, 78
3, 66385, Note_on_c, 0, 60, 0
3, 66389, Note_on_c, 0, 48, 0
3, 66420, Note_on_c, 0, 48, 68
3, 66420, Note_on_c, 0, 60, 78
3, 66443, Note_on_c, 0, 60, 0
3, 66449, Note_on_c, 0, 48, 0
3, 66480, Note_on_c, 0, 47, 78
3, 66480, Note_on_c, 0, 59, 88
3, 66509, Note_on_c, 0, 59, 0
3, 66510, Note_on_c, 0, 47, 0
3, 66540, Note_on_c, 0, 47, 78
3, 66540, Note_on_c, 0, 59, 78
3, 66568, Note_on_c, 0, 47, 0
3, 66580, Note_on_c, 0, 59, 0
3, 66600, Note_on_c, 0, 58, 100
3, 66600, Note_on_c, 0, 46, 100
3, 66626, Note_on_c, 0, 58, 0
3, 66628, Note_on_c, 0, 46, 0
3, 66660, Note_on_c, 0, 46, 78
3, 66660, Note_on_c, 0, 58, 88
3, 66690, Note_on_c, 0, 58, 0
3, 66691, Note_on_c, 0, 46, 0
3, 66720, Note_on_c, 0, 45, 68
3, 66720, Note_on_c, 0, 57, 88
3, 66746, Note_on_c, 0, 57, 0
3, 66751, Note_on_c, 0, 45, 0
3, 66780, Note_on_c, 0, 57, 78
3, 66780, Note_on_c, 0, 45, 68
3, 66807, Note_on_c, 0, 45, 0
3, 66817, Note_on_c, 0, 57, 0
3, 66840, Note_on_c, 0, 43, 68
3, 66840, Note_on_c, 0, 55, 78
3, 66865, Note_on_c, 0, 43, 0
3, 66868, Note_on_c, 0, 55, 0
3, 66900, Note_on_c, 0, 55, 68
3, 66900, Note_on_c, 0, 43, 68
3, 66925, Note_on_c, 0, 43, 0
3, 66940, Note_on_c, 0, 55, 0
3, 66960, Note_on_c, 0, 41, 78
3, 66960, Note_on_c, 0, 53, 88
3, 67054, Note_on_c, 0, 41, 0
3, 67056, Note_on_c, 0, 53, 0
3, 67320, Note_on_c, 0, 41, 88
3, 67320, Note_on_c, 0, 53, 88
3, 67434, Note_on_c, 0, 53, 0
3, 67438, Note_on_c, 0, 41, 0
3, 67680, Note_on_c, 0, 52, 100
3, 67680, Note_on_c, 0, 40, 88
3, 67732, Note_on_c, 0, 40, 0
3, 67735, Note_on_c, 0, 52, 0
3, 67800, Note_on_c, 0, 38, 100
3, 67800, Note_on_c, 0, 50, 88
3, 67852, Note_on_c, 0, 38, 0
3, 67853, Note_on_c, 0, 50, 0
3, 67920, Note_on_c, 0, 36, 88
3, 67920, Note_on_c, 0, 48, 88
3, 67975, Note_on_c, 0, 48, 0
3, 67975, Note_on_c, 0, 36, 0
3, 68040, Note_on_c, 0, 41, 78
3, 68040, Note_on_c, 0, 53, 88
3, 68069, Note_on_c, 0, 53, 0
3, 68073, Note_on_c, 0, 41, 0
3, 68100, Note_on_c, 0, 41, 60
3, 68100, Note_on_c, 0, 53, 68
3, 68127, Note_on_c, 0, 53, 0
3, 68128, Note_on_c, 0, 41, 0
3, 68160, Note_on_c, 0, 53, 78
3, 68160, Note_on_c, 0, 41, 68
3, 68192, Note_on_c, 0, 53, 0
3, 68193, Note_on_c, 0, 41, 0
3, 68220, Note_on_c, 0, 53, 68
3, 68220, Note_on_c, 0, 41, 60
3, 68249, Note_on_c, 0, 53, 0
3, 68251, Note_on_c, 0, 41, 0
3, 68280, Note_on_c, 0, 54, 100
3, 68280, Note_on_c, 0, 42, 88
3, 68307, Note_on_c, 0, 54, 0
3, 68309, Note_on_c, 0, 42, 0
3, 68340, Note_on_c, 0, 42, 78
3, 68340, Note_on_c, 0, 54, 88
3, 68369, Note_on_c, 0, 54, 0
3, 68372, Note_on_c, 0, 42, 0
3, 68400, Note_on_c, 0, 43, 78
3, 68400, Note_on_c, 0, 55, 68
3, 68427, Note_on_c, 0, 55, 0
3, 68432, Note_on_c, 0, 43, 0
3, 68460, Note_on_c, 0, 55, 68
3, 68460, Note_on_c, 0, 43, 68
3, 68486, Note_on_c, 0, 43, 0
3, 68488, Note_on_c, 0, 55, 0
3, 68520, Note_on_c, 0, 55, 88
3, 68520, Note_on_c, 0, 43, 78
3, 68549, Note_on_c, 0, 55, 0
3, 68552, Note_on_c, 0, 43, 0
3, 68580, Note_on_c, 0, 55, 78
3, 68580, Note_on_c, 0, 43, 60
3, 68607, Note_on_c, 0, 43, 0
3, 68607, Note_on_c, 0, 55, 0
3, 68640, Note_on_c, 0, 43, 68
3, 68640, Note_on_c, 0, 55, 68
3, 68666, Note_on_c, 0, 55, 0
3, 68669, Note_on_c, 0, 43, 0
3, 68700, Note_on_c, 0, 43, 68
3, 68700, Note_on_c, 0, 55, 78
3, 68728, Note_on_c, 0, 55, 0
3, 68728, Note_on_c, 0, 43, 0
3, 68760, Note_on_c, 0, 43, 78
3, 68760, Note_on_c, 0, 31, 88
3, 68792, Note_on_c, 0, 31, 0
3, 68793, Note_on_c, 0, 43, 0
3, 68820, Note_on_c, 0, 43, 68
3, 68820, Note_on_c, 0, 31, 68
3, 68846, Note_on_c, 0, 43, 0
3, 68848, Note_on_c, 0, 31, 0
3, 68880, Note_on_c, 0, 43, 68
3, 68880, Note_on_c, 0, 31, 78
3, 68908, Note_on_c, 0, 43, 0
3, 68910, Note_on_c, 0, 31, 0
3, 68940, Note_on_c, 0, 43, 68
3, 68940, Note_on_c, 0, 31, 68
3, 68963, Note_on_c, 0, 43, 0
3, 68964, Note_on_c, 0, 31, 0
3, 69000, Note_on_c, 0, 43, 68
3, 69000, Note_on_c, 0, 31, 68
3, 69022, Note_on_c, 0, 43, 0
3, 69026, Note_on_c, 0, 31, 0
3, 69060, Note_on_c, 0, 43, 68
3, 69060, Note_on_c, 0, 31, 60
3, 69079, Note_on_c, 0, 43, 0
3, 69086, Note_on_c, 0, 31, 0
3, 69120, Note_on_c, 0, 36, 88
3, 69120, Note_on_c, 0, 48, 88
3, 69221, Note_on_c, 0, 36, 0
3, 69225, Note_on_c, 0, 48, 0
3, 69330, Note_on_c, 0, 48, 34
3, 69345, Note_on_c, 0, 50, 60
3, 69355, Note_on_c, 0, 48, 0
3, 69360, Note_on_c, 0, 52, 60
3, 69367, Note_on_c, 0, 50, 0
3, 69383, Note_on_c, 0, 52, 0
3, 69450, Note_on_c, 0, 52, 25
3, 69465, Note_on_c, 0, 53, 52
3, 69468, Note_on_c, 0, 52, 0
3, 69480, Note_on_c, 0, 55, 60
3, 69485, Note_on_c, 0, 53, 0
3, 69572, Note_on_c, 0, 55, 0
3, 69690, Note_on_c, 0, 52, 29
3, 69705, Note_on_c, 0, 53, 39
3, 69717, Note_on_c, 0, 52, 0
3, 69718, Note_on_c, 0, 55, 60
3, 69727, Note_on_c, 0, 53, 0
3, 69739, Note_on_c, 0, 55, 0
3, 69791, Note_on_c, 0, 55, 45
3, 69808, Note_on_c, 0, 57, 60
3, 69812, Note_on_c, 0, 55, 0
3, 69822, Note_on_c, 0, 59, 60
3, 69831, Note_on_c, 0, 57, 0
3, 69840, Note_on_c, 0, 60, 68
3, 69845, Note_on_c, 0, 59, 0
3, 69919, Note_on_c, 0, 60, 0
3, 69960, Note_on_c, 0, 60, 68
3, 69960, Note_on_c, 0, 48, 78
3, 70034, Note_on_c, 0, 60, 0
3, 70041, Note_on_c, 0, 48, 0
3, 70080, Note_on_c, 0, 43, 78
3, 70080, Note_on_c, 0, 55, 68
3, 70139, Note_on_c, 0, 55, 0
3, 70155, Note_on_c, 0, 43, 0
3, 70200, Note_on_c, 0, 40, 88
3, 70200, Note_on_c, 0, 52, 78
3, 70249, Note_on_c, 0, 52, 0
3, 70250, Note_on_c, 0, 40, 0
3, 70320, Note_on_c, 0, 43, 88
3, 70320, Note_on_c, 0, 55, 78
3, 70373, Note_on_c, 0, 55, 0
3, 70377, Note_on_c, 0, 43, 0
3, 70440, Note_on_c, 0, 40, 78
3, 70440, Note_on_c, 0, 52, 78
3, 70492, Note_on_c, 0, 52, 0
3, 70493, Note_on_c, 0, 40, 0
3, 70560, Note_on_c, 0, 36, 88
3, 70560, Note_on_c, 0, 48, 78
3, 70607, Note_on_c, 0, 48, 0
3, 70615, Note_on_c, 0, 36, 0
3, 70680, Note_on_c, 0, 36, 78
3, 70680, Note_on_c, 0, 48, 78
3, 70726, Note_on_c, 0, 48, 0
3, 70728, Note_on_c, 0, 36, 0
3, 70800, Note_on_c, 0, 36, 88
3, 70800, Note_on_c, 0, 48, 78
3, 70843, Note_on_c, 0, 48, 0
3, 70847, Note_on_c, 0, 36, 0
3, 70920, Note_on_c, 0, 36, 88
3, 70920, Note_on_c, 0, 48, 88
3, 71023, Note_on_c, 0, 48, 0
3, 71026, Note_on_c, 0, 36, 0
3, 71026, End_track
4, 0, Start_track
4, 0, MIDI_port, 0
4, 0, Title_t, "soprano"
4, 0, Program_c, 1, 52
4, 2, Note_on_c, 1, 72, 78
4, 145, Note_on_c, 1, 72, 0
4, 169, Note_on_c, 1, 72, 78
4, 204, Note_on_c, 1, 72, 0
4, 229, Note_on_c, 1, 72, 90
4, 322, Note_on_c, 1, 72, 0
4, 1436, Note_on_c, 1, 72, 68
4, 1601, Note_on_c, 1, 72, 0
4, 1615, Note_on_c, 1, 72, 58
4, 1656, Note_on_c, 1, 72, 0
4, 1679, Note_on_c, 1, 72, 68
4, 1794, Note_on_c, 1, 72, 0
4, 2879, Note_on_c, 1, 76, 68
4, 3041, Note_on_c, 1, 76, 0
4, 3061, Note_on_c, 1, 76, 50
4, 3095, Note_on_c, 1, 76, 0
4, 3123, Note_on_c, 1, 76, 78
4, 3234, Note_on_c, 1, 76, 0
4, 3250, Note_on_c, 1, 72, 68
4, 3306, Note_on_c, 1, 72, 0
4, 3336, Note_on_c, 1, 72, 68
4, 3355, Note_on_c, 1, 72, 0
4, 3370, Note_on_c, 1, 72, 78
4, 3461, Note_on_c, 1, 72, 0
4, 3487, Note_on_c, 1, 76, 68
4, 3541, Note_on_c, 1, 76, 0
4, 3541, Note_on_c, 1, 72, 50
4, 3568, Note_on_c, 1, 72, 0
4, 3597, Note_on_c, 1, 74, 68
4, 3709, Note_on_c, 1, 74, 0
4, 3715, Note_on_c, 1, 67, 50
4, 3808, Note_on_c, 1, 67, 0
4, 3839, Note_on_c, 1, 79, 58
4, 3866, Note_on_c, 1, 79, 0
4, 3891, Note_on_c, 1, 79, 50
4, 3923, Note_on_c, 1, 79, 0
4, 3950, Note_on_c, 1, 79, 68
4, 4082, Note_on_c, 1, 76, 68
4, 4095, Note_on_c, 1, 79, 0
4, 4206, Note_on_c, 1, 77, 68
4, 4213, Note_on_c, 1, 76, 0
4, 4303, Note_on_c, 1, 77, 0
4, 4320, Note_on_c, 1, 77, 58
4, 4440, Note_on_c, 1, 75, 78
4, 4445, Note_on_c, 1, 77, 0
4, 4557, Note_on_c, 1, 76, 58
4, 4566, Note_on_c, 1, 75, 0
4, 4683, Note_on_c, 1, 74, 78
4, 4689, Note_on_c, 1, 76, 0
4, 4716, Note_on_c, 1, 74, 0
4, 4737, Note_on_c, 1, 74, 58
4, 4773, Note_on_c, 1, 74, 0
4, 4796, Note_on_c, 1, 74, 68
4, 4896, Note_on_c, 1, 74, 0
4, 4921, Note_on_c, 1, 74, 78
4, 5021, Note_on_c, 1, 74, 0
4, 5048, Note_on_c, 1, 74, 90
4, 5158, Note_on_c, 1, 74, 0
4, 5405, Note_on_c, 1, 74, 78
4, 5530, Note_on_c, 1, 74, 0
4, 5762, Note_on_c, 1, 78, 90
4, 5977, Note_on_c, 1, 78, 0
4, 6003, Note_on_c, 1, 78, 78
4, 6122, Note_on_c, 1, 78, 0
4, 6122, Note_on_c, 1, 79, 58
4, 6442, Note_on_c, 1, 74, 58
4, 6444, Note_on_c, 1, 79, 0
4, 6460, Note_on_c, 1, 74, 0
4, 6470, Note_on_c, 1, 74, 90
4, 6619, Note_on_c, 1, 74, 0
4, 7576, Note_on_c, 1, 77, 24
4, 7922, Note_on_c, 1, 74, 35
4, 7929, Note_on_c, 1, 77, 0
4, 8277, Note_on_c, 1, 74, 0
4, 8280, Note_on_c, 1, 71, 29
4, 8651, Note_on_c, 1, 72, 29
4, 8653, Note_on_c, 1, 71, 0
4, 8883, Note_on_c, 1, 69, 42
4, 8889, Note_on_c, 1, 72, 0
4, 8936, Note_on_c, 1, 69, 0
4, 8941, Note_on_c, 1, 65, 24
4, 9000, Note_on_c, 1, 65, 0
4, 9008, Note_on_c, 1, 64, 24
4, 9352, Note_on_c, 1, 64, 0
4, 9354, Note_on_c, 1, 62, 24
4, 9715, Note_on_c, 1, 60, 29
4, 9720, Note_on_c, 1, 62, 0
4, 9833, Note_on_c, 1, 60, 0
4, 10453, Note_on_c, 1, 72, 78
4, 10788, Note_on_c, 1, 72, 0
4, 10788, Note_on_c, 1, 77, 78
4, 11014, Note_on_c, 1, 77, 0
4, 11026, Note_on_c, 1, 77, 78
4, 11144, Note_on_c, 1, 77, 0
4, 11150, Note_on_c, 1, 76, 78
4, 11242, Note_on_c, 1, 76, 0
4, 14755, Note_on_c, 1, 72, 68
4, 14840, Note_on_c, 1, 72, 0
4, 14873, Note_on_c, 1, 72, 68
4, 14957, Note_on_c, 1, 72, 0
4, 14997, Note_on_c, 1, 72, 58
4, 15100, Note_on_c, 1, 72, 0
4, 15112, Note_on_c, 1, 77, 68
4, 15325, Note_on_c, 1, 77, 0
4, 15356, Note_on_c, 1, 77, 68
4, 15468, Note_on_c, 1, 77, 0
4, 15478, Note_on_c, 1, 76, 68
4, 15559, Note_on_c, 1, 76, 0
4, 16198, Note_on_c, 1, 72, 78
4, 16267, Note_on_c, 1, 72, 0
4, 16292, Note_on_c, 1, 72, 58
4, 16310, Note_on_c, 1, 72, 0
4, 16319, Note_on_c, 1, 72, 78
4, 16413, Note_on_c, 1, 72, 0
4, 16550, Note_on_c, 1, 76, 78
4, 16704, Note_on_c, 1, 76, 0
4, 16729, Note_on_c, 1, 76, 58
4, 16764, Note_on_c, 1, 76, 0
4, 16797, Note_on_c, 1, 76, 68
4, 16885, Note_on_c, 1, 76, 0
4, 16920, Note_on_c, 1, 76, 68
4, 16992, Note_on_c, 1, 69, 58
4, 16994, Note_on_c, 1, 76, 0
4, 17011, Note_on_c, 1, 69, 0
4, 17027, Note_on_c, 1, 69, 78
4, 17156, Note_on_c, 1, 69, 0
4, 17273, Note_on_c, 1, 74, 78
4, 17433, Note_on_c, 1, 74, 0
4, 17450, Note_on_c, 1, 74, 68
4, 17486, Note_on_c, 1, 74, 0
4, 17515, Note_on_c, 1, 74, 90
4, 17592, Note_on_c, 1, 74, 0
4, 17641, Note_on_c, 1, 74, 78
4, 17760, Note_on_c, 1, 67, 68
4, 17762, Note_on_c, 1, 74, 0
4, 17843, Note_on_c, 1, 67, 0
4, 17998, Note_on_c, 1, 69, 78
4, 18124, Note_on_c, 1, 69, 0
4, 18127, Note_on_c, 1, 76, 78
4, 18236, Note_on_c, 1, 76, 0
4, 18241, Note_on_c, 1, 74, 68
4, 18357, Note_on_c, 1, 73, 90
4, 18360, Note_on_c, 1, 74, 0
4, 18448, Note_on_c, 1, 73, 0
4, 18475, Note_on_c, 1, 73, 90
4, 18551, Note_on_c, 1, 73, 0
4, 18716, Note_on_c, 1, 73, 104
4, 18790, Note_on_c, 1, 73, 0
4, 18809, Note_on_c, 1, 73, 58
4, 18823, Note_on_c, 1, 73, 0
4, 18834, Note_on_c, 1, 73, 90
4, 18897, Note_on_c, 1, 73, 0
4, 19079, Note_on_c, 1, 79, 78
4, 19080, Note_on_c, 1, 79, 68
4, 19152, Note_on_c, 1, 79, 0
4, 19248, Note_on_c, 1, 79, 0
4, 19268, Note_on_c, 1, 79, 68
4, 19304, Note_on_c, 1, 79, 0
4, 19325, Note_on_c, 1, 79, 58
4, 19441, Note_on_c, 1, 79, 0
4, 19441, Note_on_c, 1, 78, 90
4, 19793, Note_on_c, 1, 74, 78
4, 19800, Note_on_c, 1, 78, 0
4, 19897, Note_on_c, 1, 74, 0
4, 28015, Note_on_c, 1, 70, 90
4, 28065, Note_on_c, 1, 70, 0
4, 28077, Note_on_c, 1, 69, 90
4, 28294, Note_on_c, 1, 69, 0
4, 28327, Note_on_c, 1, 69, 90
4, 28415, Note_on_c, 1, 69, 0
4, 28736, Note_on_c, 1, 72, 68
4, 28785, Note_on_c, 1, 72, 0
4, 28790, Note_on_c, 1, 71, 78
4, 29020, Note_on_c, 1, 71, 0
4, 29043, Note_on_c, 1, 71, 90
4, 29152, Note_on_c, 1, 71, 0
4, 29449, Note_on_c, 1, 74, 68
4, 29511, Note_on_c, 1, 74, 0
4, 29515, Note_on_c, 1, 72, 78
4, 29877, Note_on_c, 1, 73, 90
4, 29879, Note_on_c, 1, 72, 0
4, 30233, Note_on_c, 1, 73, 0
4, 30236, Note_on_c, 1, 74, 78
4, 30571, Note_on_c, 1, 74, 0
4, 30594, Note_on_c, 1, 74, 90
4, 30692, Note_on_c, 1, 74, 0
4, 34484, Note_on_c, 1, 70, 90
4, 34537, Note_on_c, 1, 70, 0
4, 34547, Note_on_c, 1, 69, 90
4, 34768, Note_on_c, 1, 69, 0
4, 34786, Note_on_c, 1, 69, 78
4, 34887, Note_on_c, 1, 69, 0
4, 35204, Note_on_c, 1, 72, 68
4, 35265, Note_on_c, 1, 72, 0
4, 35267, Note_on_c, 1, 71, 78
4, 35492, Note_on_c, 1, 71, 0
4, 35513, Note_on_c, 1, 71, 68
4, 35641, Note_on_c, 1, 71, 0
4, 35935, Note_on_c, 1, 74, 78
4, 35998, Note_on_c, 1, 74, 0
4, 35999, Note_on_c, 1, 72, 78
4, 36335, Note_on_c, 1, 72, 0
4, 36358, Note_on_c, 1, 72, 78
4, 36707, Note_on_c, 1, 73, 90
4, 36717, Note_on_c, 1, 72, 0
4, 37068, Note_on_c, 1, 72, 78
4, 37070, Note_on_c, 1, 73, 0
4, 37167, Note_on_c, 1, 72, 0
4, 40967, Note_on_c, 1, 70, 90
4, 40990, Note_on_c, 1, 70, 0
4, 41023, Note_on_c, 1, 70, 90
4, 41153, Note_on_c, 1, 75, 90
4, 41155, Note_on_c, 1, 70, 0
4, 41244, Note_on_c, 1, 75, 0
4, 41269, Note_on_c, 1, 75, 78
4, 41360, Note_on_c, 1, 75, 0
4, 41391, Note_on_c, 1, 75, 90
4, 41490, Note_on_c, 1, 75, 0
4, 41491, Note_on_c, 1, 68, 58
4, 41500, Note_on_c, 1, 68, 0
4, 41516, Note_on_c, 1, 68, 90
4, 41636, Note_on_c, 1, 68, 0
4, 42044, Note_on_c, 1, 77, 78
4, 42078, Note_on_c, 1, 77, 0
4, 42105, Note_on_c, 1, 77, 68
4, 42225, Note_on_c, 1, 77, 0
4, 42225, Note_on_c, 1, 75, 90
4, 42345, Note_on_c, 1, 74, 78
4, 42353, Note_on_c, 1, 75, 0
4, 42468, Note_on_c, 1, 75, 78
4, 42476, Note_on_c, 1, 74, 0
4, 42619, Note_on_c, 1, 75, 0
4, 42649, Note_on_c, 1, 75, 90
4, 42716, Note_on_c, 1, 79, 68
4, 42718, Note_on_c, 1, 75, 0
4, 42834, Note_on_c, 1, 79, 0
4, 42837, Note_on_c, 1, 78, 78
4, 42990, Note_on_c, 1, 78, 0
4, 43007, Note_on_c, 1, 78, 78
4, 43046, Note_on_c, 1, 78, 0
4, 43069, Note_on_c, 1, 78, 90
4, 43190, Note_on_c, 1, 79, 78
4, 43197, Note_on_c, 1, 78, 0
4, 43530, Note_on_c, 1, 79, 0
4, 43546, Note_on_c, 1, 79, 68
4, 43652, Note_on_c, 1, 79, 0
4, 48237, Note_on_c, 1, 72, 78
4, 48393, Note_on_c, 1, 72, 0
4, 48414, Note_on_c, 1, 72, 78
4, 48451, Note_on_c, 1, 72, 0
4, 48474, Note_on_c, 1, 72, 78
4, 48548, Note_on_c, 1, 72, 0
4, 48719, Note_on_c, 1, 64, 68
4, 48837, Note_on_c, 1, 65, 68
4, 48846, Note_on_c, 1, 64, 0
4, 48957, Note_on_c, 1, 67, 50
4, 48959, Note_on_c, 1, 65, 0
4, 49071, Note_on_c, 1, 67, 0
4, 49076, Note_on_c, 1, 64, 15
4, 49192, Note_on_c, 1, 69, 42
4, 49200, Note_on_c, 1, 64, 0
4, 49306, Note_on_c, 1, 69, 0
4, 49314, Note_on_c, 1, 77, 24
4, 49434, Note_on_c, 1, 74, 42
4, 49441, Note_on_c, 1, 77, 0
4, 49561, Note_on_c, 1, 71, 58
4, 49563, Note_on_c, 1, 74, 0
4, 49668, Note_on_c, 1, 71, 0
4, 49680, Note_on_c, 1, 72, 90
4, 49875, Note_on_c, 1, 72, 0
4, 49914, Note_on_c, 1, 72, 90
4, 50037, Note_on_c, 1, 72, 0
4, 50153, Note_on_c, 1, 64, 24
4, 50273, Note_on_c, 1, 65, 35
4, 50282, Note_on_c, 1, 64, 0
4, 50392, Note_on_c, 1, 67, 24
4, 50395, Note_on_c, 1, 65, 0
4, 50511, Note_on_c, 1, 67, 0
4, 50518, Note_on_c, 1, 64, 24
4, 50633, Note_on_c, 1, 69, 42
4, 50635, Note_on_c, 1, 64, 0
4, 50749, Note_on_c, 1, 69, 0
4, 50752, Note_on_c, 1, 77, 50
4, 50994, Note_on_c, 1, 74, 50
4, 50998, Note_on_c, 1, 77, 0
4, 51103, Note_on_c, 1, 74, 0
4, 51122, Note_on_c, 1, 76, 104
4, 51276, Note_on_c, 1, 76, 0
4, 51293, Note_on_c, 1, 76, 90
4, 51326, Note_on_c, 1, 76, 0
4, 51352, Note_on_c, 1, 76, 90
4, 51459, Note_on_c, 1, 76, 0
4, 51476, Note_on_c, 1, 72, 78
4, 51525, Note_on_c, 1, 72, 0
4, 51560, Note_on_c, 1, 72, 78
4, 51579, Note_on_c, 1, 72, 0
4, 51591, Note_on_c, 1, 72, 78
4, 51714, Note_on_c, 1, 72, 0
4, 51722, Note_on_c, 1, 76, 78
4, 51776, Note_on_c, 1, 72, 50
4, 51786, Note_on_c, 1, 76, 0
4, 51814, Note_on_c, 1, 72, 0
4, 51834, Note_on_c, 1, 74, 90
4, 51947, Note_on_c, 1, 74, 0
4, 51954, Note_on_c, 1, 67, 78
4, 52068, Note_on_c, 1, 67, 0
4, 52071, Note_on_c, 1, 79, 78
4, 52161, Note_on_c, 1, 79, 0
4, 52188, Note_on_c, 1, 79, 90
4, 52309, Note_on_c, 1, 76, 78
4, 52315, Note_on_c, 1, 79, 0
4, 52428, Note_on_c, 1, 77, 78
4, 52438, Note_on_c, 1, 76, 0
4, 52526, Note_on_c, 1, 77, 0
4, 52548, Note_on_c, 1, 77, 68
4, 52672, Note_on_c, 1, 75, 90
4, 52677, Note_on_c, 1, 77, 0
4, 52795, Note_on_c, 1, 76, 68
4, 52801, Note_on_c, 1, 75, 0
4, 52917, Note_on_c, 1, 76, 0
4, 52917, Note_on_c, 1, 74, 90
4, 53012, Note_on_c, 1, 74, 0
4, 53030, Note_on_c, 1, 74, 78
4, 53132, Note_on_c, 1, 74, 0
4, 53153, Note_on_c, 1, 74, 90
4, 53255, Note_on_c, 1, 74, 0
4, 53279, Note_on_c, 1, 74, 90
4, 53376, Note_on_c, 1, 74, 0
4, 53401, Note_on_c, 1, 74, 78
4, 53484, Note_on_c, 1, 74, 0
4, 53636, Note_on_c, 1, 74, 104
4, 53704, Note_on_c, 1, 74, 0
4, 53726, Note_on_c, 1, 74, 78
4, 53740, Note_on_c, 1, 74, 0
4, 53754, Note_on_c, 1, 74, 90
4, 53852, Note_on_c, 1, 74, 0
4, 53934, Note_on_c, 1, 74, 90
4, 53976, Note_on_c, 1, 74, 0
4, 53990, Note_on_c, 1, 78, 90
4, 54089, Note_on_c, 1, 78, 0
4, 54112, Note_on_c, 1, 78, 90
4, 54204, Note_on_c, 1, 78, 0
4, 54233, Note_on_c, 1, 78, 90
4, 54352, Note_on_c, 1, 78, 0
4, 54353, Note_on_c, 1, 79, 68
4, 54688, Note_on_c, 1, 74, 78
4, 54690, Note_on_c, 1, 79, 0
4, 54706, Note_on_c, 1, 74, 0
4, 54713, Note_on_c, 1, 74, 78
4, 54819, Note_on_c, 1, 74, 0
4, 55800, Note_on_c, 1, 77, 29
4, 56155, Note_on_c, 1, 74, 42
4, 56161, Note_on_c, 1, 77, 0
4, 56521, Note_on_c, 1, 74, 0
4, 56522, Note_on_c, 1, 71, 29
4, 56880, Note_on_c, 1, 71, 0
4, 56880, Note_on_c, 1, 72, 29
4, 57113, Note_on_c, 1, 69, 29
4, 57123, Note_on_c, 1, 72, 0
4, 57180, Note_on_c, 1, 69, 0
4, 57180, Note_on_c, 1, 65, 24
4, 57240, Note_on_c, 1, 65, 0
4, 57245, Note_on_c, 1, 64, 29
4, 57591, Note_on_c, 1, 62, 35
4, 57594, Note_on_c, 1, 64, 0
4, 57955, Note_on_c, 1, 62, 0
4, 57958, Note_on_c, 1, 60, 35
4, 58062, Note_on_c, 1, 60, 0
4, 58672, Note_on_c, 1, 72, 90
4, 58757, Note_on_c, 1, 72, 0
4, 58793, Note_on_c, 1, 72, 90
4, 58869, Note_on_c, 1, 72, 0
4, 58915, Note_on_c, 1, 72, 90
4, 59025, Note_on_c, 1, 72, 0
4, 59028, Note_on_c, 1, 77, 90
4, 59313, Note_on_c, 1, 77, 0
4, 59331, Note_on_c, 1, 77, 78
4, 59379, Note_on_c, 1, 77, 0
4, 59387, Note_on_c, 1, 76, 78
4, 59494, Note_on_c, 1, 76, 0
4, 60091, Note_on_c, 1, 67, 68
4, 60115, Note_on_c, 1, 67, 0
4, 60124, Note_on_c, 1, 67, 8
4, 60131, Note_on_c, 1, 72, 78
4, 60134, Note_on_c, 1, 67, 0
4, 60199, Note_on_c, 1, 72, 0
4, 60223, Note_on_c, 1, 72, 78
4, 60278, Note_on_c, 1, 72, 0
4, 60286, Note_on_c, 1, 72, 90
4, 60315, Note_on_c, 1, 72, 0
4, 60336, Note_on_c, 1, 72, 78
4, 60372, Note_on_c, 1, 72, 0
4, 60395, Note_on_c, 1, 72, 68
4, 60423, Note_on_c, 1, 72, 0
4, 60439, Note_on_c, 1, 72, 2
4, 60448, Note_on_c, 1, 72, 0
4, 60471, Note_on_c, 1, 77, 78
4, 60835, Note_on_c, 1, 77, 0
4, 60836, Note_on_c, 1, 76, 78
4, 60935, Note_on_c, 1, 76, 0
4, 61191, Note_on_c, 1, 76, 78
4, 61319, Note_on_c, 1, 76, 0
4, 61319, Note_on_c, 1, 74, 90
4, 61436, Note_on_c, 1, 72, 78
4, 61445, Note_on_c, 1, 74, 0
4, 61530, Note_on_c, 1, 72, 0
4, 61559, Note_on_c, 1, 72, 90
4, 61677, Note_on_c, 1, 71, 90
4, 61680, Note_on_c, 1, 72, 0
4, 61776, Note_on_c, 1, 71, 0
4, 64793, Note_on_c, 1, 72, 90
4, 65022, Note_on_c, 1, 72, 0
4, 65042, Note_on_c, 1, 72, 78
4, 65135, Note_on_c, 1, 72, 0
4, 65504, Note_on_c, 1, 72, 90
4, 65729, Note_on_c, 1, 72, 0
4, 65753, Note_on_c, 1, 72, 90
4, 65828, Note_on_c, 1, 72, 0
4, 66228, Note_on_c, 1, 72, 90
4, 66434, Note_on_c, 1, 72, 0
4, 66470, Note_on_c, 1, 72, 78
4, 66543, Note_on_c, 1, 72, 0
4, 66595, Note_on_c, 1, 72, 78
4, 66835, Note_on_c, 1, 70, 90
4, 66842, Note_on_c, 1, 72, 0
4, 66946, Note_on_c, 1, 70, 0
4, 66951, Note_on_c, 1, 69, 90
4, 67035, Note_on_c, 1, 69, 0
4, 67076, Note_on_c, 1, 69, 78
4, 67156, Note_on_c, 1, 69, 0
4, 67320, Note_on_c, 1, 71, 78
4, 67407, Note_on_c, 1, 71, 0
4, 67436, Note_on_c, 1, 71, 78
4, 67570, Note_on_c, 1, 71, 0
4, 68042, Note_on_c, 1, 72, 78
4, 68154, Note_on_c, 1, 74, 90
4, 68163, Note_on_c, 1, 72, 0
4, 68280, Note_on_c, 1, 75, 90
4, 68287, Note_on_c, 1, 74, 0
4, 68397, Note_on_c, 1, 76, 78
4, 68400, Note_on_c, 1, 75, 0
4, 68756, Note_on_c, 1, 76, 0
4, 68756, Note_on_c, 1, 74, 90
4, 69115, Note_on_c, 1, 74, 0
4, 69117, Note_on_c, 1, 72, 78
4, 69228, Note_on_c, 1, 72, 0
4, 69954, Note_on_c, 1, 60, 78
4, 70075, Note_on_c, 1, 64, 78
4, 70080, Note_on_c, 1, 60, 0
4, 70193, Note_on_c, 1, 64, 0
4, 70197, Note_on_c, 1, 67, 78
4, 70317, Note_on_c, 1, 67, 0
4, 70317, Note_on_c, 1, 64, 78
4, 70436, Note_on_c, 1, 67, 78
4, 70440, Note_on_c, 1, 64, 0
4, 70558, Note_on_c, 1, 67, 0
4, 70558, Note_on_c, 1, 72, 78
4, 70902, Note_on_c, 1, 72, 0
4, 70925, Note_on_c, 1, 72, 90
4, 71020, Note_on_c, 1, 72, 0
4, 71020, End_track
5, 0, Start_track
5, 0, MIDI_port, 0
5, 0, Title_t, "alto"
5, 5, Note_on_c, 1, 64, 68
5, 143, Note_on_c, 1, 64, 0
5, 164, Note_on_c, 1, 64, 78
5, 194, Note_on_c, 1, 64, 0
5, 225, Note_on_c, 1, 64, 90
5, 322, Note_on_c, 1, 64, 0
5, 1441, Note_on_c, 1, 64, 90
5, 1589, Note_on_c, 1, 64, 0
5, 1609, Note_on_c, 1, 64, 78
5, 1640, Note_on_c, 1, 64, 0
5, 1669, Note_on_c, 1, 64, 78
5, 1794, Note_on_c, 1, 64, 0
5, 2875, Note_on_c, 1, 67, 78
5, 3029, Note_on_c, 1, 67, 0
5, 3058, Note_on_c, 1, 67, 78
5, 3092, Note_on_c, 1, 67, 0
5, 3118, Note_on_c, 1, 67, 90
5, 3206, Note_on_c, 1, 67, 0
5, 3240, Note_on_c, 1, 67, 104
5, 3312, Note_on_c, 1, 67, 0
5, 3336, Note_on_c, 1, 67, 90
5, 3351, Note_on_c, 1, 67, 0
5, 3361, Note_on_c, 1, 67, 90
5, 3457, Note_on_c, 1, 67, 0
5, 3602, Note_on_c, 1, 67, 90
5, 3669, Note_on_c, 1, 67, 0
5, 3693, Note_on_c, 1, 67, 78
5, 3709, Note_on_c, 1, 67, 0
5, 3723, Note_on_c, 1, 67, 90
5, 3827, Note_on_c, 1, 67, 0
5, 3834, Note_on_c, 1, 71, 78
5, 3885, Note_on_c, 1, 71, 0
5, 3886, Note_on_c, 1, 67, 68
5, 3936, Note_on_c, 1, 67, 0
5, 3949, Note_on_c, 1, 72, 90
5, 4288, Note_on_c, 1, 72, 0
5, 4307, Note_on_c, 1, 72, 78
5, 4669, Note_on_c, 1, 72, 0
5, 4671, Note_on_c, 1, 69, 78
5, 4705, Note_on_c, 1, 69, 0
5, 4728, Note_on_c, 1, 69, 78
5, 4761, Note_on_c, 1, 69, 0
5, 4789, Note_on_c, 1, 69, 78
5, 4916, Note_on_c, 1, 69, 0
5, 4920, Note_on_c, 1, 67, 68
5, 5040, Note_on_c, 1, 66, 90
5, 5042, Note_on_c, 1, 67, 0
5, 5161, Note_on_c, 1, 66, 0
5, 5399, Note_on_c, 1, 66, 90
5, 5520, Note_on_c, 1, 66, 0
5, 5756, Note_on_c, 1, 72, 78
5, 5965, Note_on_c, 1, 72, 0
5, 5997, Note_on_c, 1, 72, 78
5, 6115, Note_on_c, 1, 71, 78
5, 6117, Note_on_c, 1, 72, 0
5, 6435, Note_on_c, 1, 71, 0
5, 6442, Note_on_c, 1, 67, 78
5, 6460, Note_on_c, 1, 67, 0
5, 6468, Note_on_c, 1, 67, 78
5, 6595, Note_on_c, 1, 67, 0
5, 7572, Note_on_c, 1, 65, 42
5, 7921, Note_on_c, 1, 65, 0
5, 7922, Note_on_c, 1, 62, 35
5, 8274, Note_on_c, 1, 62, 0
5, 8276, Note_on_c, 1, 59, 50
5, 8641, Note_on_c, 1, 60, 35
5, 8645, Note_on_c, 1, 59, 0
5, 8875, Note_on_c, 1, 62, 42
5, 8877, Note_on_c, 1, 60, 0
5, 8994, Note_on_c, 1, 60, 42
5, 8996, Note_on_c, 1, 62, 0
5, 9358, Note_on_c, 1, 60, 0
5, 9359, Note_on_c, 1, 59, 42
5, 9718, Note_on_c, 1, 60, 50
5, 9725, Note_on_c, 1, 59, 0
5, 9829, Note_on_c, 1, 60, 0
5, 10453, Note_on_c, 1, 64, 90
5, 10788, Note_on_c, 1, 64, 0
5, 10794, Note_on_c, 1, 65, 104
5, 11028, Note_on_c, 1, 65, 0
5, 11033, Note_on_c, 1, 67, 90
5, 11129, Note_on_c, 1, 67, 0
5, 11156, Note_on_c, 1, 67, 90
5, 11282, Note_on_c, 1, 67, 0
5, 14756, Note_on_c, 1, 64, 78
5, 14852, Note_on_c, 1, 64, 0
5, 14879, Note_on_c, 1, 64, 90
5, 14971, Note_on_c, 1, 64, 0
5, 14997, Note_on_c, 1, 64, 78
5, 15110, Note_on_c, 1, 64, 0
5, 15115, Note_on_c, 1, 65, 90
5, 15351, Note_on_c, 1, 65, 0
5, 15357, Note_on_c, 1, 67, 78
5, 15452, Note_on_c, 1, 67, 0
5, 15472, Note_on_c, 1, 67, 90
5, 15581, Note_on_c, 1, 67, 0
5, 16199, Note_on_c, 1, 67, 90
5, 16268, Note_on_c, 1, 67, 0
5, 16292, Note_on_c, 1, 67, 90
5, 16309, Note_on_c, 1, 67, 0
5, 16320, Note_on_c, 1, 67, 90
5, 16410, Note_on_c, 1, 67, 0
5, 16549, Note_on_c, 1, 71, 90
5, 16710, Note_on_c, 1, 71, 0
5, 16731, Note_on_c, 1, 71, 78
5, 16776, Note_on_c, 1, 71, 0
5, 16795, Note_on_c, 1, 71, 78
5, 16909, Note_on_c, 1, 71, 0
5, 16917, Note_on_c, 1, 69, 78
5, 17005, Note_on_c, 1, 69, 0
5, 17014, Note_on_c, 1, 64, 78
5, 17030, Note_on_c, 1, 64, 0
5, 17040, Note_on_c, 1, 64, 78
5, 17161, Note_on_c, 1, 64, 0
5, 17273, Note_on_c, 1, 69, 78
5, 17435, Note_on_c, 1, 69, 0
5, 17455, Note_on_c, 1, 69, 78
5, 17495, Note_on_c, 1, 69, 0
5, 17516, Note_on_c, 1, 69, 78
5, 17639, Note_on_c, 1, 67, 90
5, 17640, Note_on_c, 1, 69, 0
5, 17754, Note_on_c, 1, 67, 0
5, 17758, Note_on_c, 1, 62, 78
5, 17862, Note_on_c, 1, 62, 0
5, 17991, Note_on_c, 1, 64, 78
5, 18112, Note_on_c, 1, 67, 78
5, 18114, Note_on_c, 1, 64, 0
5, 18210, Note_on_c, 1, 67, 0
5, 18235, Note_on_c, 1, 67, 78
5, 18322, Note_on_c, 1, 67, 0
5, 18354, Note_on_c, 1, 67, 90
5, 18447, Note_on_c, 1, 67, 0
5, 18477, Note_on_c, 1, 67, 90
5, 18583, Note_on_c, 1, 67, 0
5, 18720, Note_on_c, 1, 67, 90
5, 18794, Note_on_c, 1, 67, 0
5, 18814, Note_on_c, 1, 67, 78
5, 18827, Note_on_c, 1, 67, 0
5, 18838, Note_on_c, 1, 67, 90
5, 18959, Note_on_c, 1, 67, 0
5, 19079, Note_on_c, 1, 69, 90
5, 19242, Note_on_c, 1, 69, 0
5, 19267, Note_on_c, 1, 69, 78
5, 19302, Note_on_c, 1, 69, 0
5, 19325, Note_on_c, 1, 69, 78
5, 19412, Note_on_c, 1, 69, 0
5, 19438, Note_on_c, 1, 69, 78
5, 19786, Note_on_c, 1, 66, 90
5, 19792, Note_on_c, 1, 69, 0
5, 19921, Note_on_c, 1, 66, 0
5, 28013, Note_on_c, 1, 62, 78
5, 28064, Note_on_c, 1, 62, 0
5, 28070, Note_on_c, 1, 63, 90
5, 28291, Note_on_c, 1, 63, 0
5, 28322, Note_on_c, 1, 63, 90
5, 28423, Note_on_c, 1, 63, 0
5, 28734, Note_on_c, 1, 63, 90
5, 28799, Note_on_c, 1, 65, 90
5, 28803, Note_on_c, 1, 63, 0
5, 29016, Note_on_c, 1, 65, 0
5, 29040, Note_on_c, 1, 65, 90
5, 29148, Note_on_c, 1, 65, 0
5, 29449, Note_on_c, 1, 65, 90
5, 29513, Note_on_c, 1, 65, 0
5, 29513, Note_on_c, 1, 67, 90
5, 29854, Note_on_c, 1, 67, 0
5, 29880, Note_on_c, 1, 67, 90
5, 30232, Note_on_c, 1, 66, 90
5, 30234, Note_on_c, 1, 67, 0
5, 30355, Note_on_c, 1, 67, 78
5, 30360, Note_on_c, 1, 66, 0
5, 30476, Note_on_c, 1, 70, 90
5, 30483, Note_on_c, 1, 67, 0
5, 30586, Note_on_c, 1, 70, 0
5, 30589, Note_on_c, 1, 69, 78
5, 30744, Note_on_c, 1, 69, 0
5, 34488, Note_on_c, 1, 62, 68
5, 34540, Note_on_c, 1, 62, 0
5, 34546, Note_on_c, 1, 63, 90
5, 34765, Note_on_c, 1, 63, 0
5, 34790, Note_on_c, 1, 63, 90
5, 34900, Note_on_c, 1, 63, 0
5, 35206, Note_on_c, 1, 63, 90
5, 35265, Note_on_c, 1, 63, 0
5, 35270, Note_on_c, 1, 65, 90
5, 35487, Note_on_c, 1, 65, 0
5, 35509, Note_on_c, 1, 65, 90
5, 35615, Note_on_c, 1, 65, 0
5, 35933, Note_on_c, 1, 65, 68
5, 35993, Note_on_c, 1, 65, 0
5, 35998, Note_on_c, 1, 67, 78
5, 36324, Note_on_c, 1, 67, 0
5, 36349, Note_on_c, 1, 67, 90
5, 36681, Note_on_c, 1, 67, 0
5, 36702, Note_on_c, 1, 67, 90
5, 37037, Note_on_c, 1, 67, 0
5, 37060, Note_on_c, 1, 67, 78
5, 37198, Note_on_c, 1, 67, 0
5, 41326, Note_on_c, 1, 67, 78
5, 41354, Note_on_c, 1, 67, 0
5, 41388, Note_on_c, 1, 67, 90
5, 41513, Note_on_c, 1, 67, 0
5, 41513, Note_on_c, 1, 65, 90
5, 41626, Note_on_c, 1, 65, 0
5, 41632, Note_on_c, 1, 64, 78
5, 41741, Note_on_c, 1, 64, 0
5, 41749, Note_on_c, 1, 65, 90
5, 41818, Note_on_c, 1, 65, 0
5, 41838, Note_on_c, 1, 65, 90
5, 41855, Note_on_c, 1, 65, 0
5, 41864, Note_on_c, 1, 65, 90
5, 41982, Note_on_c, 1, 65, 0
5, 42048, Note_on_c, 1, 68, 90
5, 42098, Note_on_c, 1, 68, 0
5, 42109, Note_on_c, 1, 67, 90
5, 42207, Note_on_c, 1, 67, 0
5, 42229, Note_on_c, 1, 67, 90
5, 42313, Note_on_c, 1, 67, 0
5, 42340, Note_on_c, 1, 67, 78
5, 42441, Note_on_c, 1, 67, 0
5, 42464, Note_on_c, 1, 67, 90
5, 42567, Note_on_c, 1, 67, 0
5, 42587, Note_on_c, 1, 67, 78
5, 42672, Note_on_c, 1, 67, 0
5, 42718, Note_on_c, 1, 67, 78
5, 42823, Note_on_c, 1, 67, 0
5, 42828, Note_on_c, 1, 72, 78
5, 42985, Note_on_c, 1, 72, 0
5, 43002, Note_on_c, 1, 72, 78
5, 43038, Note_on_c, 1, 72, 0
5, 43065, Note_on_c, 1, 72, 90
5, 43179, Note_on_c, 1, 72, 0
5, 43179, Note_on_c, 1, 71, 90
5, 43304, Note_on_c, 1, 71, 0
5, 43307, Note_on_c, 1, 72, 78
5, 43396, Note_on_c, 1, 72, 0
5, 43398, Note_on_c, 1, 71, 78
5, 43422, Note_on_c, 1, 71, 0
5, 43425, Note_on_c, 1, 72, 68
5, 43542, Note_on_c, 1, 72, 0
5, 43542, Note_on_c, 1, 71, 90
5, 43669, Note_on_c, 1, 71, 0
5, 48242, Note_on_c, 1, 64, 90
5, 48395, Note_on_c, 1, 64, 0
5, 48414, Note_on_c, 1, 64, 78
5, 48446, Note_on_c, 1, 64, 0
5, 48475, Note_on_c, 1, 64, 78
5, 48581, Note_on_c, 1, 64, 0
5, 48725, Note_on_c, 1, 64, 35
5, 48840, Note_on_c, 1, 64, 0
5, 48841, Note_on_c, 1, 65, 42
5, 48953, Note_on_c, 1, 65, 0
5, 48960, Note_on_c, 1, 64, 35
5, 49078, Note_on_c, 1, 60, 42
5, 49080, Note_on_c, 1, 64, 0
5, 49196, Note_on_c, 1, 65, 50
5, 49200, Note_on_c, 1, 60, 0
5, 49316, Note_on_c, 1, 65, 0
5, 49318, Note_on_c, 1, 69, 42
5, 49436, Note_on_c, 1, 69, 0
5, 49436, Note_on_c, 1, 65, 50
5, 49557, Note_on_c, 1, 65, 0
5, 49559, Note_on_c, 1, 62, 50
5, 49666, Note_on_c, 1, 62, 0
5, 49677, Note_on_c, 1, 64, 90
5, 49880, Note_on_c, 1, 64, 0
5, 49909, Note_on_c, 1, 64, 90
5, 50020, Note_on_c, 1, 64, 0
5, 50147, Note_on_c, 1, 60, 35
5, 50275, Note_on_c, 1, 62, 29
5, 50278, Note_on_c, 1, 60, 0
5, 50393, Note_on_c, 1, 64, 19
5, 50403, Note_on_c, 1, 62, 0
5, 50510, Note_on_c, 1, 64, 0
5, 50513, Note_on_c, 1, 60, 35
5, 50639, Note_on_c, 1, 65, 42
5, 50640, Note_on_c, 1, 60, 0
5, 50749, Note_on_c, 1, 65, 0
5, 50754, Note_on_c, 1, 69, 50
5, 50993, Note_on_c, 1, 69, 0
5, 50994, Note_on_c, 1, 67, 58
5, 51082, Note_on_c, 1, 67, 0
5, 51115, Note_on_c, 1, 67, 90
5, 51275, Note_on_c, 1, 67, 0
5, 51298, Note_on_c, 1, 67, 90
5, 51326, Note_on_c, 1, 67, 0
5, 51351, Note_on_c, 1, 67, 90
5, 51447, Note_on_c, 1, 67, 0
5, 51478, Note_on_c, 1, 67, 104
5, 51552, Note_on_c, 1, 67, 0
5, 51570, Note_on_c, 1, 67, 90
5, 51584, Note_on_c, 1, 67, 0
5, 51594, Note_on_c, 1, 67, 90
5, 51702, Note_on_c, 1, 67, 0
5, 51834, Note_on_c, 1, 67, 90
5, 51901, Note_on_c, 1, 67, 0
5, 51930, Note_on_c, 1, 67, 90
5, 51949, Note_on_c, 1, 67, 0
5, 51959, Note_on_c, 1, 67, 78
5, 52055, Note_on_c, 1, 67, 0
5, 52062, Note_on_c, 1, 71, 90
5, 52124, Note_on_c, 1, 71, 0
5, 52124, Note_on_c, 1, 67, 68
5, 52177, Note_on_c, 1, 67, 0
5, 52187, Note_on_c, 1, 72, 78
5, 52519, Note_on_c, 1, 72, 0
5, 52549, Note_on_c, 1, 72, 90
5, 52906, Note_on_c, 1, 69, 78
5, 52910, Note_on_c, 1, 72, 0
5, 53011, Note_on_c, 1, 69, 0
5, 53033, Note_on_c, 1, 69, 90
5, 53156, Note_on_c, 1, 69, 0
5, 53156, Note_on_c, 1, 67, 78
5, 53260, Note_on_c, 1, 67, 0
5, 53274, Note_on_c, 1, 66, 90
5, 53366, Note_on_c, 1, 66, 0
5, 53399, Note_on_c, 1, 66, 90
5, 53497, Note_on_c, 1, 66, 0
5, 53641, Note_on_c, 1, 66, 104
5, 53702, Note_on_c, 1, 66, 0
5, 53724, Note_on_c, 1, 66, 90
5, 53737, Note_on_c, 1, 66, 0
5, 53748, Note_on_c, 1, 66, 90
5, 53865, Note_on_c, 1, 66, 0
5, 53933, Note_on_c, 1, 69, 78
5, 53976, Note_on_c, 1, 69, 0
5, 53987, Note_on_c, 1, 72, 68
5, 54091, Note_on_c, 1, 72, 0
5, 54116, Note_on_c, 1, 72, 90
5, 54209, Note_on_c, 1, 72, 0
5, 54232, Note_on_c, 1, 72, 78
5, 54341, Note_on_c, 1, 72, 0
5, 54349, Note_on_c, 1, 71, 78
5, 54686, Note_on_c, 1, 71, 0
5, 54687, Note_on_c, 1, 67, 68
5, 54701, Note_on_c, 1, 67, 0
5, 54711, Note_on_c, 1, 67, 78
5, 54823, Note_on_c, 1, 67, 0
5, 55804, Note_on_c, 1, 65, 50
5, 56160, Note_on_c, 1, 62, 42
5, 56161, Note_on_c, 1, 65, 0
5, 56519, Note_on_c, 1, 59, 29
5, 56520, Note_on_c, 1, 62, 0
5, 56880, Note_on_c, 1, 60, 42
5, 56882, Note_on_c, 1, 59, 0
5, 57117, Note_on_c, 1, 62, 35
5, 57118, Note_on_c, 1, 60, 0
5, 57240, Note_on_c, 1, 62, 0
5, 57242, Note_on_c, 1, 60, 35
5, 57596, Note_on_c, 1, 60, 0
5, 57597, Note_on_c, 1, 59, 42
5, 57958, Note_on_c, 1, 59, 0
5, 57958, Note_on_c, 1, 60, 35
5, 58062, Note_on_c, 1, 60, 0
5, 58665, Note_on_c, 1, 64, 90
5, 58759, Note_on_c, 1, 64, 0
5, 58790, Note_on_c, 1, 64, 78
5, 58880, Note_on_c, 1, 64, 0
5, 58910, Note_on_c, 1, 64, 68
5, 59025, Note_on_c, 1, 64, 0
5, 59030, Note_on_c, 1, 65, 78
5, 59275, Note_on_c, 1, 67, 68
5, 59283, Note_on_c, 1, 65, 0
5, 59354, Note_on_c, 1, 67, 0
5, 59373, Note_on_c, 1, 67, 78
5, 59384, Note_on_c, 1, 67, 0
5, 59393, Note_on_c, 1, 67, 90
5, 59513, Note_on_c, 1, 67, 0
5, 60073, Note_on_c, 1, 67, 78
5, 60102, Note_on_c, 1, 67, 0
5, 60104, Note_on_c, 1, 64, 68
5, 60198, Note_on_c, 1, 64, 0
5, 60223, Note_on_c, 1, 64, 78
5, 60247, Note_on_c, 1, 64, 0
5, 60272, Note_on_c, 1, 64, 78
5, 60305, Note_on_c, 1, 64, 0
5, 60336, Note_on_c, 1, 64, 90
5, 60367, Note_on_c, 1, 64, 0
5, 60397, Note_on_c, 1, 64, 78
5, 60451, Note_on_c, 1, 64, 0
5, 60460, Note_on_c, 1, 65, 90
5, 60698, Note_on_c, 1, 65, 0
5, 60703, Note_on_c, 1, 67, 78
5, 60799, Note_on_c, 1, 67, 0
5, 60822, Note_on_c, 1, 67, 90
5, 60945, Note_on_c, 1, 67, 0
5, 61189, Note_on_c, 1, 67, 90
5, 61411, Note_on_c, 1, 67, 0
5, 61435, Note_on_c, 1, 67, 90
5, 61529, Note_on_c, 1, 67, 0
5, 61552, Note_on_c, 1, 67, 90
5, 61643, Note_on_c, 1, 67, 0
5, 61669, Note_on_c, 1, 67, 90
5, 61776, Note_on_c, 1, 67, 0
5, 65152, Note_on_c, 1, 64, 78
5, 65266, Note_on_c, 1, 65, 90
5, 65269, Note_on_c, 1, 64, 0
5, 65386, Note_on_c, 1, 65, 0
5, 65392, Note_on_c, 1, 69, 78
5, 65507, Note_on_c, 1, 69, 0
5, 65507, Note_on_c, 1, 67, 78
5, 65625, Note_on_c, 1, 67, 0
5, 65876, Note_on_c, 1, 64, 68
5, 65992, Note_on_c, 1, 65, 78
5, 66000, Note_on_c, 1, 64, 0
5, 66110, Note_on_c, 1, 69, 78
5, 66112, Note_on_c, 1, 65, 0
5, 66232, Note_on_c, 1, 67, 90
5, 66234, Note_on_c, 1, 69, 0
5, 66353, Note_on_c, 1, 67, 0
5, 66586, Note_on_c, 1, 67, 78
5, 66711, Note_on_c, 1, 65, 90
5, 66716, Note_on_c, 1, 67, 0
5, 66836, Note_on_c, 1, 65, 0
5, 66838, Note_on_c, 1, 64, 78
5, 66954, Note_on_c, 1, 64, 0
5, 66960, Note_on_c, 1, 65, 90
5, 67051, Note_on_c, 1, 65, 0
5, 67079, Note_on_c, 1, 65, 90
5, 67170, Note_on_c, 1, 65, 0
5, 67323, Note_on_c, 1, 67, 90
5, 67407, Note_on_c, 1, 67, 0
5, 67434, Note_on_c, 1, 67, 90
5, 67547, Note_on_c, 1, 67, 0
5, 68037, Note_on_c, 1, 69, 90
5, 68152, Note_on_c, 1, 69, 0
5, 68158, Note_on_c, 1, 71, 90
5, 68278, Note_on_c, 1, 72, 78
5, 68280, Note_on_c, 1, 71, 0
5, 68397, Note_on_c, 1, 72, 0
5, 68399, Note_on_c, 1, 67, 78
5, 69090, Note_on_c, 1, 67, 0
5, 69113, Note_on_c, 1, 67, 90
5, 69232, Note_on_c, 1, 67, 0
5, 69953, Note_on_c, 1, 60, 78
5, 70070, Note_on_c, 1, 64, 78
5, 70078, Note_on_c, 1, 60, 0
5, 70186, Note_on_c, 1, 64, 0
5, 70193, Note_on_c, 1, 67, 78
5, 70315, Note_on_c, 1, 64, 68
5, 70316, Note_on_c, 1, 67, 0
5, 70436, Note_on_c, 1, 67, 78
5, 70438, Note_on_c, 1, 64, 0
5, 70532, Note_on_c, 1, 67, 0
5, 70557, Note_on_c, 1, 67, 90
5, 70896, Note_on_c, 1, 67, 0
5, 70919, Note_on_c, 1, 67, 90
5, 71041, Note_on_c, 1, 67, 0
5, 71041, End_track
6, 0, Start_track
6, 0, MIDI_port, 0
6, 0, Title_t, "tenor"
6, 2, Note_on_c, 1, 55, 90
6, 152, Note_on_c, 1, 55, 0
6, 172, Note_on_c, 1, 55, 90
6, 207, Note_on_c, 1, 55, 0
6, 231, Note_on_c, 1, 55, 90
6, 323, Note_on_c, 1, 55, 0
6, 1436, Note_on_c, 1, 55, 90
6, 1593, Note_on_c, 1, 55, 0
6, 1618, Note_on_c, 1, 55, 90
6, 1655, Note_on_c, 1, 55, 0
6, 1670, Note_on_c, 1, 55, 68
6, 1787, Note_on_c, 1, 55, 0
6, 2879, Note_on_c, 1, 60, 78
6, 3022, Note_on_c, 1, 60, 0
6, 3050, Note_on_c, 1, 60, 68
6, 3084, Note_on_c, 1, 60, 0
6, 3119, Note_on_c, 1, 60, 90
6, 3233, Note_on_c, 1, 60, 0
6, 3241, Note_on_c, 1, 64, 90
6, 3302, Note_on_c, 1, 64, 0
6, 3325, Note_on_c, 1, 64, 68
6, 3340, Note_on_c, 1, 64, 0
6, 3351, Note_on_c, 1, 64, 90
6, 3467, Note_on_c, 1, 64, 0
6, 3593, Note_on_c, 1, 62, 78
6, 3664, Note_on_c, 1, 62, 0
6, 3683, Note_on_c, 1, 62, 78
6, 3700, Note_on_c, 1, 62, 0
6, 3709, Note_on_c, 1, 62, 90
6, 3801, Note_on_c, 1, 62, 0
6, 3827, Note_on_c, 1, 62, 78
6, 3857, Note_on_c, 1, 62, 0
6, 3889, Note_on_c, 1, 62, 90
6, 3949, Note_on_c, 1, 62, 0
6, 3952, Note_on_c, 1, 60, 78
6, 4283, Note_on_c, 1, 60, 0
6, 4316, Note_on_c, 1, 60, 90
6, 4647, Note_on_c, 1, 60, 0
6, 4673, Note_on_c, 1, 60, 78
6, 4711, Note_on_c, 1, 60, 0
6, 4730, Note_on_c, 1, 60, 78
6, 4764, Note_on_c, 1, 60, 0
6, 4789, Note_on_c, 1, 60, 90
6, 4891, Note_on_c, 1, 60, 0
6, 4916, Note_on_c, 1, 60, 90
6, 5015, Note_on_c, 1, 60, 0
6, 5040, Note_on_c, 1, 60, 90
6, 5147, Note_on_c, 1, 60, 0
6, 5395, Note_on_c, 1, 60, 90
6, 5512, Note_on_c, 1, 60, 0
6, 5751, Note_on_c, 1, 62, 90
6, 5973, Note_on_c, 1, 62, 0
6, 6003, Note_on_c, 1, 62, 78
6, 6093, Note_on_c, 1, 62, 0
6, 6120, Note_on_c, 1, 62, 90
6, 6433, Note_on_c, 1, 62, 0
6, 6437, Note_on_c, 1, 59, 68
6, 6456, Note_on_c, 1, 59, 0
6, 6467, Note_on_c, 1, 59, 90
6, 6582, Note_on_c, 1, 59, 0
6, 7566, Note_on_c, 1, 57, 29
6, 7919, Note_on_c, 1, 53, 35
6, 7920, Note_on_c, 1, 57, 0
6, 8284, Note_on_c, 1, 55, 29
6, 8296, Note_on_c, 1, 53, 0
6, 8642, Note_on_c, 1, 57, 29
6, 8645, Note_on_c, 1, 55, 0
6, 8835, Note_on_c, 1, 57, 0
6, 8876, Note_on_c, 1, 57, 42
6, 9000, Note_on_c, 1, 55, 35
6, 9008, Note_on_c, 1, 57, 0
6, 9361, Note_on_c, 1, 53, 42
6, 9366, Note_on_c, 1, 55, 0
6, 9720, Note_on_c, 1, 53, 0
6, 9720, Note_on_c, 1, 52, 29
6, 9837, Note_on_c, 1, 52, 0
6, 10446, Note_on_c, 1, 55, 90
6, 10787, Note_on_c, 1, 55, 0
6, 10793, Note_on_c, 1, 57, 90
6, 11023, Note_on_c, 1, 59, 78
6, 11026, Note_on_c, 1, 57, 0
6, 11137, Note_on_c, 1, 59, 0
6, 11146, Note_on_c, 1, 60, 78
6, 11257, Note_on_c, 1, 60, 0
6, 14760, Note_on_c, 1, 55, 68
6, 14845, Note_on_c, 1, 55, 0
6, 14876, Note_on_c, 1, 55, 78
6, 14961, Note_on_c, 1, 55, 0
6, 14993, Note_on_c, 1, 55, 78
6, 15108, Note_on_c, 1, 55, 0
6, 15117, Note_on_c, 1, 57, 78
6, 15358, Note_on_c, 1, 59, 78
6, 15365, Note_on_c, 1, 57, 0
6, 15480, Note_on_c, 1, 59, 0
6, 15480, Note_on_c, 1, 60, 78
6, 15583, Note_on_c, 1, 60, 0
6, 16204, Note_on_c, 1, 64, 78
6, 16266, Note_on_c, 1, 64, 0
6, 16291, Note_on_c, 1, 64, 78
6, 16304, Note_on_c, 1, 64, 0
6, 16314, Note_on_c, 1, 64, 78
6, 16554, Note_on_c, 1, 62, 90
6, 16561, Note_on_c, 1, 64, 0
6, 16704, Note_on_c, 1, 62, 0
6, 16727, Note_on_c, 1, 62, 90
6, 16776, Note_on_c, 1, 62, 0
6, 16796, Note_on_c, 1, 62, 78
6, 16915, Note_on_c, 1, 62, 0
6, 16919, Note_on_c, 1, 60, 78
6, 16988, Note_on_c, 1, 60, 0
6, 17008, Note_on_c, 1, 60, 78
6, 17023, Note_on_c, 1, 60, 0
6, 17034, Note_on_c, 1, 60, 78
6, 17162, Note_on_c, 1, 60, 0
6, 17280, Note_on_c, 1, 60, 78
6, 17429, Note_on_c, 1, 60, 0
6, 17451, Note_on_c, 1, 60, 78
6, 17486, Note_on_c, 1, 60, 0
6, 17510, Note_on_c, 1, 60, 90
6, 17638, Note_on_c, 1, 59, 78
6, 17644, Note_on_c, 1, 60, 0
6, 17738, Note_on_c, 1, 59, 0
6, 17760, Note_on_c, 1, 59, 78
6, 17884, Note_on_c, 1, 59, 0
6, 18115, Note_on_c, 1, 57, 58
6, 18204, Note_on_c, 1, 57, 0
6, 18233, Note_on_c, 1, 57, 68
6, 18331, Note_on_c, 1, 57, 0
6, 18354, Note_on_c, 1, 57, 90
6, 18442, Note_on_c, 1, 57, 0
6, 18474, Note_on_c, 1, 57, 68
6, 18583, Note_on_c, 1, 57, 0
6, 18714, Note_on_c, 1, 57, 90
6, 18787, Note_on_c, 1, 57, 0
6, 18812, Note_on_c, 1, 57, 58
6, 18829, Note_on_c, 1, 57, 0
6, 18840, Note_on_c, 1, 57, 68
6, 18965, Note_on_c, 1, 57, 0
6, 19076, Note_on_c, 1, 61, 104
6, 19083, Note_on_c, 1, 61, 90
6, 19156, Note_on_c, 1, 61, 0
6, 19244, Note_on_c, 1, 61, 0
6, 19260, Note_on_c, 1, 61, 78
6, 19298, Note_on_c, 1, 61, 0
6, 19321, Note_on_c, 1, 61, 90
6, 19431, Note_on_c, 1, 61, 0
6, 19436, Note_on_c, 1, 62, 78
6, 19794, Note_on_c, 1, 57, 68
6, 19796, Note_on_c, 1, 62, 0
6, 19918, Note_on_c, 1, 57, 0
6, 28009, Note_on_c, 1, 55, 68
6, 28046, Note_on_c, 1, 55, 0
6, 28072, Note_on_c, 1, 55, 78
6, 28282, Note_on_c, 1, 55, 0
6, 28315, Note_on_c, 1, 55, 78
6, 28415, Note_on_c, 1, 55, 0
6, 28731, Note_on_c, 1, 55, 78
6, 28768, Note_on_c, 1, 55, 0
6, 28794, Note_on_c, 1, 55, 90
6, 29015, Note_on_c, 1, 55, 0
6, 29037, Note_on_c, 1, 55, 78
6, 29143, Note_on_c, 1, 55, 0
6, 29452, Note_on_c, 1, 55, 68
6, 29483, Note_on_c, 1, 55, 0
6, 29509, Note_on_c, 1, 55, 78
6, 29854, Note_on_c, 1, 55, 0
6, 29876, Note_on_c, 1, 55, 78
6, 30224, Note_on_c, 1, 57, 90
6, 30231, Note_on_c, 1, 55, 0
6, 30352, Note_on_c, 1, 58, 78
6, 30360, Note_on_c, 1, 57, 0
6, 30476, Note_on_c, 1, 55, 68
6, 30479, Note_on_c, 1, 58, 0
6, 30589, Note_on_c, 1, 54, 90
6, 30599, Note_on_c, 1, 55, 0
6, 30719, Note_on_c, 1, 54, 0
6, 34488, Note_on_c, 1, 55, 78
6, 34525, Note_on_c, 1, 55, 0
6, 34550, Note_on_c, 1, 55, 78
6, 34771, Note_on_c, 1, 55, 0
6, 34793, Note_on_c, 1, 55, 90
6, 34895, Note_on_c, 1, 55, 0
6, 35211, Note_on_c, 1, 55, 90
6, 35248, Note_on_c, 1, 55, 0
6, 35273, Note_on_c, 1, 55, 90
6, 35480, Note_on_c, 1, 55, 0
6, 35507, Note_on_c, 1, 55, 90
6, 35608, Note_on_c, 1, 55, 0
6, 35937, Note_on_c, 1, 55, 68
6, 35967, Note_on_c, 1, 55, 0
6, 36000, Note_on_c, 1, 55, 90
6, 36323, Note_on_c, 1, 55, 0
6, 36352, Note_on_c, 1, 55, 90
6, 36706, Note_on_c, 1, 58, 90
6, 36713, Note_on_c, 1, 55, 0
6, 37045, Note_on_c, 1, 58, 0
6, 37066, Note_on_c, 1, 58, 90
6, 37189, Note_on_c, 1, 58, 0
6, 40606, Note_on_c, 1, 56, 90
6, 40635, Note_on_c, 1, 56, 0
6, 40664, Note_on_c, 1, 56, 90
6, 40783, Note_on_c, 1, 56, 0
6, 40788, Note_on_c, 1, 55, 90
6, 40907, Note_on_c, 1, 55, 0
6, 40909, Note_on_c, 1, 54, 90
6, 41021, Note_on_c, 1, 54, 0
6, 41037, Note_on_c, 1, 55, 90
6, 41105, Note_on_c, 1, 55, 0
6, 41125, Note_on_c, 1, 55, 78
6, 41140, Note_on_c, 1, 55, 0
6, 41150, Note_on_c, 1, 55, 90
6, 41267, Note_on_c, 1, 55, 0
6, 41687, Note_on_c, 1, 56, 90
6, 41719, Note_on_c, 1, 56, 0
6, 41746, Note_on_c, 1, 56, 90
6, 41866, Note_on_c, 1, 62, 68
6, 41873, Note_on_c, 1, 56, 0
6, 41963, Note_on_c, 1, 62, 0
6, 41988, Note_on_c, 1, 62, 78
6, 42083, Note_on_c, 1, 62, 0
6, 42106, Note_on_c, 1, 62, 90
6, 42193, Note_on_c, 1, 62, 0
6, 42195, Note_on_c, 1, 55, 78
6, 42212, Note_on_c, 1, 55, 0
6, 42219, Note_on_c, 1, 55, 78
6, 42333, Note_on_c, 1, 55, 0
6, 42342, Note_on_c, 1, 65, 78
6, 42461, Note_on_c, 1, 65, 0
6, 42464, Note_on_c, 1, 63, 90
6, 42567, Note_on_c, 1, 63, 0
6, 42589, Note_on_c, 1, 63, 90
6, 42709, Note_on_c, 1, 63, 0
6, 42715, Note_on_c, 1, 62, 78
6, 42827, Note_on_c, 1, 62, 0
6, 42834, Note_on_c, 1, 60, 78
6, 42987, Note_on_c, 1, 60, 0
6, 43007, Note_on_c, 1, 60, 78
6, 43044, Note_on_c, 1, 60, 0
6, 43067, Note_on_c, 1, 60, 78
6, 43189, Note_on_c, 1, 60, 0
6, 43191, Note_on_c, 1, 62, 78
6, 43305, Note_on_c, 1, 63, 90
6, 43315, Note_on_c, 1, 62, 0
6, 43398, Note_on_c, 1, 63, 0
6, 43403, Note_on_c, 1, 62, 68
6, 43426, Note_on_c, 1, 63, 90
6, 43437, Note_on_c, 1, 62, 0
6, 43548, Note_on_c, 1, 63, 0
6, 43549, Note_on_c, 1, 62, 90
6, 43677, Note_on_c, 1, 62, 0
6, 48246, Note_on_c, 1, 55, 90
6, 48397, Note_on_c, 1, 55, 0
6, 48416, Note_on_c, 1, 55, 90
6, 48456, Note_on_c, 1, 55, 0
6, 48476, Note_on_c, 1, 55, 90
6, 48568, Note_on_c, 1, 55, 0
6, 49677, Note_on_c, 1, 55, 90
6, 49893, Note_on_c, 1, 55, 0
6, 49913, Note_on_c, 1, 55, 90
6, 50008, Note_on_c, 1, 55, 0
6, 51115, Note_on_c, 1, 60, 90
6, 51266, Note_on_c, 1, 60, 0
6, 51295, Note_on_c, 1, 60, 78
6, 51325, Note_on_c, 1, 60, 0
6, 51353, Note_on_c, 1, 60, 90
6, 51464, Note_on_c, 1, 60, 0
6, 51475, Note_on_c, 1, 64, 90
6, 51545, Note_on_c, 1, 64, 0
6, 51564, Note_on_c, 1, 64, 90
6, 51580, Note_on_c, 1, 64, 0
6, 51591, Note_on_c, 1, 64, 90
6, 51692, Note_on_c, 1, 64, 0
6, 51839, Note_on_c, 1, 62, 90
6, 51905, Note_on_c, 1, 62, 0
6, 51928, Note_on_c, 1, 62, 90
6, 51945, Note_on_c, 1, 62, 0
6, 51960, Note_on_c, 1, 62, 78
6, 52040, Note_on_c, 1, 62, 0
6, 52067, Note_on_c, 1, 62, 90
6, 52184, Note_on_c, 1, 60, 78
6, 52190, Note_on_c, 1, 62, 0
6, 52523, Note_on_c, 1, 60, 0
6, 52551, Note_on_c, 1, 60, 90
6, 52880, Note_on_c, 1, 60, 0
6, 52912, Note_on_c, 1, 60, 90
6, 53011, Note_on_c, 1, 60, 0
6, 53033, Note_on_c, 1, 60, 78
6, 53126, Note_on_c, 1, 60, 0
6, 53156, Note_on_c, 1, 60, 90
6, 53243, Note_on_c, 1, 60, 0
6, 53280, Note_on_c, 1, 60, 90
6, 53367, Note_on_c, 1, 60, 0
6, 53398, Note_on_c, 1, 60, 68
6, 53496, Note_on_c, 1, 60, 0
6, 53638, Note_on_c, 1, 60, 90
6, 53705, Note_on_c, 1, 60, 0
6, 53725, Note_on_c, 1, 60, 78
6, 53739, Note_on_c, 1, 60, 0
6, 53749, Note_on_c, 1, 60, 90
6, 53854, Note_on_c, 1, 60, 0
6, 53945, Note_on_c, 1, 60, 90
6, 53988, Note_on_c, 1, 62, 90
6, 53997, Note_on_c, 1, 60, 0
6, 54093, Note_on_c, 1, 62, 0
6, 54113, Note_on_c, 1, 62, 90
6, 54206, Note_on_c, 1, 62, 0
6, 54232, Note_on_c, 1, 62, 78
6, 54317, Note_on_c, 1, 62, 0
6, 54352, Note_on_c, 1, 62, 90
6, 54685, Note_on_c, 1, 62, 0
6, 54687, Note_on_c, 1, 59, 58
6, 54699, Note_on_c, 1, 59, 0
6, 54709, Note_on_c, 1, 59, 90
6, 54846, Note_on_c, 1, 59, 0
6, 55805, Note_on_c, 1, 57, 42
6, 56153, Note_on_c, 1, 57, 0
6, 56154, Note_on_c, 1, 53, 35
6, 56520, Note_on_c, 1, 55, 35
6, 56526, Note_on_c, 1, 53, 0
6, 56880, Note_on_c, 1, 57, 35
6, 56881, Note_on_c, 1, 55, 0
6, 57086, Note_on_c, 1, 57, 0
6, 57115, Note_on_c, 1, 57, 35
6, 57237, Note_on_c, 1, 55, 42
6, 57247, Note_on_c, 1, 57, 0
6, 57589, Note_on_c, 1, 55, 0
6, 57591, Note_on_c, 1, 53, 29
6, 57951, Note_on_c, 1, 53, 0
6, 57954, Note_on_c, 1, 52, 42
6, 58065, Note_on_c, 1, 52, 0
6, 58670, Note_on_c, 1, 55, 90
6, 58768, Note_on_c, 1, 55, 0
6, 58791, Note_on_c, 1, 55, 90
6, 58888, Note_on_c, 1, 55, 0
6, 58915, Note_on_c, 1, 55, 90
6, 59027, Note_on_c, 1, 55, 0
6, 59027, Note_on_c, 1, 57, 78
6, 59278, Note_on_c, 1, 59, 78
6, 59289, Note_on_c, 1, 57, 0
6, 59348, Note_on_c, 1, 59, 0
6, 59365, Note_on_c, 1, 59, 90
6, 59393, Note_on_c, 1, 60, 58
6, 59402, Note_on_c, 1, 59, 0
6, 59507, Note_on_c, 1, 60, 0
6, 60069, Note_on_c, 1, 55, 50
6, 60085, Note_on_c, 1, 55, 0
6, 60097, Note_on_c, 1, 55, 90
6, 60194, Note_on_c, 1, 55, 0
6, 60221, Note_on_c, 1, 55, 78
6, 60258, Note_on_c, 1, 55, 0
6, 60275, Note_on_c, 1, 55, 78
6, 60308, Note_on_c, 1, 55, 0
6, 60336, Note_on_c, 1, 55, 90
6, 60364, Note_on_c, 1, 55, 0
6, 60392, Note_on_c, 1, 55, 78
6, 60447, Note_on_c, 1, 55, 0
6, 60456, Note_on_c, 1, 57, 90
6, 60708, Note_on_c, 1, 57, 0
6, 60708, Note_on_c, 1, 59, 78
6, 60831, Note_on_c, 1, 59, 0
6, 60835, Note_on_c, 1, 60, 78
6, 60953, Note_on_c, 1, 60, 0
6, 61189, Note_on_c, 1, 60, 78
6, 61307, Note_on_c, 1, 65, 90
6, 61309, Note_on_c, 1, 60, 0
6, 61432, Note_on_c, 1, 64, 78
6, 61436, Note_on_c, 1, 65, 0
6, 61532, Note_on_c, 1, 64, 0
6, 61555, Note_on_c, 1, 64, 90
6, 61678, Note_on_c, 1, 64, 0
6, 61678, Note_on_c, 1, 62, 78
6, 61799, Note_on_c, 1, 62, 0
6, 64793, Note_on_c, 1, 60, 90
6, 65026, Note_on_c, 1, 60, 0
6, 65046, Note_on_c, 1, 60, 90
6, 65127, Note_on_c, 1, 60, 0
6, 65510, Note_on_c, 1, 60, 90
6, 65732, Note_on_c, 1, 60, 0
6, 65749, Note_on_c, 1, 60, 90
6, 65863, Note_on_c, 1, 60, 0
6, 66230, Note_on_c, 1, 60, 90
6, 66434, Note_on_c, 1, 60, 0
6, 66466, Note_on_c, 1, 60, 90
6, 66547, Note_on_c, 1, 60, 0
6, 66591, Note_on_c, 1, 60, 90
6, 66812, Note_on_c, 1, 60, 0
6, 66833, Note_on_c, 1, 60, 78
6, 66921, Note_on_c, 1, 60, 0
6, 66950, Note_on_c, 1, 60, 90
6, 67048, Note_on_c, 1, 60, 0
6, 67080, Note_on_c, 1, 60, 78
6, 67159, Note_on_c, 1, 60, 0
6, 67318, Note_on_c, 1, 62, 90
6, 67407, Note_on_c, 1, 62, 0
6, 67435, Note_on_c, 1, 62, 90
6, 67529, Note_on_c, 1, 62, 0
6, 68037, Note_on_c, 1, 60, 90
6, 68158, Note_on_c, 1, 59, 90
6, 68160, Note_on_c, 1, 60, 0
6, 68263, Note_on_c, 1, 59, 0
6, 68281, Note_on_c, 1, 57, 90
6, 68392, Note_on_c, 1, 57, 0
6, 68400, Note_on_c, 1, 60, 90
6, 68749, Note_on_c, 1, 59, 78
6, 68752, Note_on_c, 1, 60, 0
6, 69100, Note_on_c, 1, 59, 0
6, 69111, Note_on_c, 1, 60, 78
6, 69206, Note_on_c, 1, 60, 0
6, 69233, Note_on_c, 1, 48, 68
6, 69361, Note_on_c, 1, 52, 78
6, 69365, Note_on_c, 1, 48, 0
6, 69462, Note_on_c, 1, 52, 0
6, 69467, Note_on_c, 1, 55, 78
6, 69589, Note_on_c, 1, 55, 0
6, 69589, Note_on_c, 1, 52, 78
6, 69716, Note_on_c, 1, 55, 78
6, 69720, Note_on_c, 1, 52, 0
6, 69820, Note_on_c, 1, 55, 0
6, 69825, Note_on_c, 1, 60, 78
6, 70168, Note_on_c, 1, 60, 0
6, 70194, Note_on_c, 1, 60, 90
6, 70554, Note_on_c, 1, 60, 0
6, 70555, Note_on_c, 1, 64, 90
6, 70901, Note_on_c, 1, 64, 0
6, 70922, Note_on_c, 1, 64, 90
6, 71053, Note_on_c, 1, 64, 0
6, 71053, End_track
7, 0, Start_track
7, 0, MIDI_port, 0
7, 0, Title_t, "bass"
7, 0, Note_on_c, 1, 48, 90
7, 154, Note_on_c, 1, 48, 0
7, 169, Note_on_c, 1, 48, 78
7, 203, Note_on_c, 1, 48, 0
7, 228, Note_on_c, 1, 48, 90
7, 325, Note_on_c, 1, 48, 0
7, 1436, Note_on_c, 1, 48, 90
7, 1598, Note_on_c, 1, 48, 0
7, 1614, Note_on_c, 1, 48, 78
7, 1649, Note_on_c, 1, 48, 0
7, 1672, Note_on_c, 1, 48, 90
7, 1768, Note_on_c, 1, 48, 0
7, 2877, Note_on_c, 1, 48, 90
7, 3034, Note_on_c, 1, 48, 0
7, 3058, Note_on_c, 1, 48, 68
7, 3085, Note_on_c, 1, 48, 0
7, 3117, Note_on_c, 1, 48, 68
7, 3211, Note_on_c, 1, 48, 0
7, 3243, Note_on_c, 1, 60, 78
7, 3315, Note_on_c, 1, 60, 0
7, 3333, Note_on_c, 1, 60, 78
7, 3350, Note_on_c, 1, 60, 0
7, 3360, Note_on_c, 1, 60, 90
7, 3474, Note_on_c, 1, 60, 0
7, 3591, Note_on_c, 1, 59, 78
7, 3661, Note_on_c, 1, 59, 0
7, 3675, Note_on_c, 1, 59, 68
7, 3693, Note_on_c, 1, 59, 0
7, 3704, Note_on_c, 1, 59, 78
7, 3807, Note_on_c, 1, 59, 0
7, 3827, Note_on_c, 1, 59, 78
7, 3861, Note_on_c, 1, 59, 0
7, 3894, Note_on_c, 1, 59, 78
7, 3937, Note_on_c, 1, 59, 0
7, 3945, Note_on_c, 1, 57, 68
7, 4161, Note_on_c, 1, 57, 0
7, 4193, Note_on_c, 1, 57, 90
7, 4303, Note_on_c, 1, 55, 78
7, 4305, Note_on_c, 1, 57, 0
7, 4536, Note_on_c, 1, 55, 0
7, 4554, Note_on_c, 1, 55, 78
7, 4664, Note_on_c, 1, 55, 0
7, 4669, Note_on_c, 1, 53, 78
7, 4711, Note_on_c, 1, 53, 0
7, 4728, Note_on_c, 1, 53, 68
7, 4760, Note_on_c, 1, 53, 0
7, 4783, Note_on_c, 1, 53, 68
7, 4918, Note_on_c, 1, 55, 78
7, 4921, Note_on_c, 1, 53, 0
7, 5039, Note_on_c, 1, 57, 78
7, 5044, Note_on_c, 1, 55, 0
7, 5160, Note_on_c, 1, 57, 0
7, 5392, Note_on_c, 1, 57, 90
7, 5516, Note_on_c, 1, 57, 0
7, 5747, Note_on_c, 1, 57, 90
7, 5975, Note_on_c, 1, 57, 0
7, 5997, Note_on_c, 1, 57, 90
7, 6112, Note_on_c, 1, 55, 78
7, 6113, Note_on_c, 1, 57, 0
7, 6416, Note_on_c, 1, 55, 0
7, 6442, Note_on_c, 1, 55, 78
7, 6457, Note_on_c, 1, 55, 0
7, 6471, Note_on_c, 1, 55, 90
7, 6592, Note_on_c, 1, 55, 0
7, 7557, Note_on_c, 1, 45, 42
7, 7908, Note_on_c, 1, 45, 0
7, 7908, Note_on_c, 1, 41, 42
7, 8275, Note_on_c, 1, 43, 42
7, 8279, Note_on_c, 1, 41, 0
7, 8640, Note_on_c, 1, 45, 42
7, 8642, Note_on_c, 1, 43, 0
7, 8874, Note_on_c, 1, 41, 42
7, 8875, Note_on_c, 1, 45, 0
7, 8999, Note_on_c, 1, 41, 0
7, 8999, Note_on_c, 1, 43, 42
7, 9720, Note_on_c, 1, 43, 0
7, 9720, Note_on_c, 1, 48, 35
7, 9838, Note_on_c, 1, 48, 0
7, 10444, Note_on_c, 1, 48, 90
7, 10762, Note_on_c, 1, 48, 0
7, 10789, Note_on_c, 1, 48, 90
7, 10997, Note_on_c, 1, 48, 0
7, 11028, Note_on_c, 1, 48, 90
7, 11120, Note_on_c, 1, 48, 0
7, 11145, Note_on_c, 1, 48, 90
7, 11259, Note_on_c, 1, 48, 0
7, 14760, Note_on_c, 1, 48, 90
7, 14851, Note_on_c, 1, 48, 0
7, 14881, Note_on_c, 1, 48, 90
7, 14966, Note_on_c, 1, 48, 0
7, 14995, Note_on_c, 1, 48, 90
7, 15084, Note_on_c, 1, 48, 0
7, 15114, Note_on_c, 1, 48, 90
7, 15322, Note_on_c, 1, 48, 0
7, 15351, Note_on_c, 1, 48, 90
7, 15450, Note_on_c, 1, 48, 0
7, 15476, Note_on_c, 1, 48, 90
7, 15590, Note_on_c, 1, 48, 0
7, 16200, Note_on_c, 1, 60, 90
7, 16265, Note_on_c, 1, 60, 0
7, 16286, Note_on_c, 1, 60, 90
7, 16300, Note_on_c, 1, 60, 0
7, 16310, Note_on_c, 1, 60, 78
7, 16549, Note_on_c, 1, 56, 90
7, 16552, Note_on_c, 1, 60, 0
7, 16703, Note_on_c, 1, 56, 0
7, 16727, Note_on_c, 1, 56, 90
7, 16769, Note_on_c, 1, 56, 0
7, 16790, Note_on_c, 1, 56, 90
7, 16902, Note_on_c, 1, 56, 0
7, 16914, Note_on_c, 1, 57, 90
7, 16984, Note_on_c, 1, 57, 0
7, 17004, Note_on_c, 1, 57, 90
7, 17019, Note_on_c, 1, 57, 0
7, 17030, Note_on_c, 1, 57, 90
7, 17148, Note_on_c, 1, 57, 0
7, 17276, Note_on_c, 1, 54, 90
7, 17426, Note_on_c, 1, 54, 0
7, 17453, Note_on_c, 1, 54, 90
7, 17493, Note_on_c, 1, 54, 0
7, 17515, Note_on_c, 1, 54, 90
7, 17622, Note_on_c, 1, 54, 0
7, 17631, Note_on_c, 1, 55, 78
7, 17736, Note_on_c, 1, 55, 0
7, 17759, Note_on_c, 1, 55, 78
7, 17880, Note_on_c, 1, 55, 0
7, 17993, Note_on_c, 1, 48, 68
7, 18239, Note_on_c, 1, 50, 78
7, 18246, Note_on_c, 1, 48, 0
7, 18352, Note_on_c, 1, 52, 78
7, 18356, Note_on_c, 1, 50, 0
7, 18454, Note_on_c, 1, 52, 0
7, 18475, Note_on_c, 1, 52, 90
7, 18576, Note_on_c, 1, 52, 0
7, 18711, Note_on_c, 1, 52, 104
7, 18786, Note_on_c, 1, 52, 0
7, 18802, Note_on_c, 1, 52, 50
7, 18818, Note_on_c, 1, 52, 0
7, 18829, Note_on_c, 1, 52, 68
7, 18953, Note_on_c, 1, 52, 0
7, 19074, Note_on_c, 1, 52, 90
7, 19087, Note_on_c, 1, 52, 78
7, 19154, Note_on_c, 1, 52, 0
7, 19246, Note_on_c, 1, 52, 0
7, 19262, Note_on_c, 1, 52, 78
7, 19290, Note_on_c, 1, 52, 0
7, 19316, Note_on_c, 1, 52, 90
7, 19429, Note_on_c, 1, 52, 0
7, 19434, Note_on_c, 1, 50, 78
7, 19767, Note_on_c, 1, 50, 0
7, 19790, Note_on_c, 1, 50, 90
7, 19893, Note_on_c, 1, 50, 0
7, 28014, Note_on_c, 1, 46, 90
7, 28064, Note_on_c, 1, 46, 0
7, 28073, Note_on_c, 1, 48, 78
7, 28292, Note_on_c, 1, 48, 0
7, 28317, Note_on_c, 1, 48, 78
7, 28418, Note_on_c, 1, 48, 0
7, 28729, Note_on_c, 1, 48, 90
7, 28791, Note_on_c, 1, 48, 0
7, 28795, Note_on_c, 1, 50, 78
7, 29010, Note_on_c, 1, 50, 0
7, 29039, Note_on_c, 1, 50, 78
7, 29137, Note_on_c, 1, 50, 0
7, 29452, Note_on_c, 1, 50, 78
7, 29513, Note_on_c, 1, 51, 90
7, 29518, Note_on_c, 1, 50, 0
7, 29848, Note_on_c, 1, 51, 0
7, 29873, Note_on_c, 1, 51, 90
7, 30232, Note_on_c, 1, 51, 0
7, 30234, Note_on_c, 1, 50, 78
7, 30571, Note_on_c, 1, 50, 0
7, 30596, Note_on_c, 1, 50, 78
7, 30700, Note_on_c, 1, 50, 0
7, 34486, Note_on_c, 1, 46, 90
7, 34539, Note_on_c, 1, 46, 0
7, 34547, Note_on_c, 1, 48, 78
7, 34767, Note_on_c, 1, 48, 0
7, 34793, Note_on_c, 1, 48, 90
7, 34896, Note_on_c, 1, 48, 0
7, 35209, Note_on_c, 1, 48, 78
7, 35269, Note_on_c, 1, 50, 90
7, 35274, Note_on_c, 1, 48, 0
7, 35494, Note_on_c, 1, 50, 0
7, 35516, Note_on_c, 1, 50, 78
7, 35622, Note_on_c, 1, 50, 0
7, 35933, Note_on_c, 1, 50, 68
7, 35989, Note_on_c, 1, 50, 0
7, 35996, Note_on_c, 1, 51, 90
7, 36324, Note_on_c, 1, 51, 0
7, 36353, Note_on_c, 1, 51, 104
7, 36695, Note_on_c, 1, 51, 0
7, 36697, Note_on_c, 1, 52, 78
7, 37044, Note_on_c, 1, 52, 0
7, 37064, Note_on_c, 1, 52, 78
7, 37164, Note_on_c, 1, 52, 0
7, 41331, Note_on_c, 1, 51, 90
7, 41360, Note_on_c, 1, 51, 0
7, 41390, Note_on_c, 1, 51, 90
7, 41503, Note_on_c, 1, 56, 90
7, 41505, Note_on_c, 1, 51, 0
7, 41608, Note_on_c, 1, 56, 0
7, 41637, Note_on_c, 1, 56, 90
7, 41722, Note_on_c, 1, 56, 0
7, 41750, Note_on_c, 1, 56, 90
7, 41833, Note_on_c, 1, 56, 0
7, 41836, Note_on_c, 1, 50, 68
7, 41855, Note_on_c, 1, 50, 0
7, 41863, Note_on_c, 1, 50, 78
7, 41982, Note_on_c, 1, 50, 0
7, 42047, Note_on_c, 1, 50, 78
7, 42107, Note_on_c, 1, 50, 0
7, 42107, Note_on_c, 1, 47, 90
7, 42199, Note_on_c, 1, 47, 0
7, 42227, Note_on_c, 1, 47, 68
7, 42340, Note_on_c, 1, 47, 0
7, 42344, Note_on_c, 1, 59, 78
7, 42464, Note_on_c, 1, 59, 0
7, 42470, Note_on_c, 1, 60, 78
7, 42620, Note_on_c, 1, 60, 0
7, 42647, Note_on_c, 1, 60, 78
7, 42709, Note_on_c, 1, 58, 90
7, 42712, Note_on_c, 1, 60, 0
7, 42825, Note_on_c, 1, 58, 0
7, 42827, Note_on_c, 1, 56, 78
7, 42987, Note_on_c, 1, 56, 0
7, 43004, Note_on_c, 1, 56, 90
7, 43035, Note_on_c, 1, 56, 0
7, 43060, Note_on_c, 1, 56, 90
7, 43176, Note_on_c, 1, 56, 0
7, 43181, Note_on_c, 1, 55, 90
7, 43520, Note_on_c, 1, 55, 0
7, 43541, Note_on_c, 1, 55, 90
7, 43678, Note_on_c, 1, 55, 0
7, 48246, Note_on_c, 1, 48, 90
7, 48401, Note_on_c, 1, 48, 0
7, 48417, Note_on_c, 1, 48, 90
7, 48447, Note_on_c, 1, 48, 0
7, 48477, Note_on_c, 1, 48, 90
7, 48581, Note_on_c, 1, 48, 0
7, 49675, Note_on_c, 1, 48, 90
7, 49896, Note_on_c, 1, 48, 0
7, 49914, Note_on_c, 1, 48, 90
7, 49998, Note_on_c, 1, 48, 0
7, 51107, Note_on_c, 1, 48, 90
7, 51274, Note_on_c, 1, 48, 0
7, 51296, Note_on_c, 1, 48, 90
7, 51323, Note_on_c, 1, 48, 0
7, 51352, Note_on_c, 1, 48, 78
7, 51466, Note_on_c, 1, 48, 0
7, 51473, Note_on_c, 1, 60, 78
7, 51537, Note_on_c, 1, 60, 0
7, 51559, Note_on_c, 1, 60, 78
7, 51576, Note_on_c, 1, 60, 0
7, 51589, Note_on_c, 1, 60, 90
7, 51701, Note_on_c, 1, 60, 0
7, 51834, Note_on_c, 1, 59, 90
7, 51902, Note_on_c, 1, 59, 0
7, 51921, Note_on_c, 1, 59, 78
7, 51938, Note_on_c, 1, 59, 0
7, 51954, Note_on_c, 1, 59, 90
7, 52051, Note_on_c, 1, 59, 0
7, 52074, Note_on_c, 1, 59, 90
7, 52187, Note_on_c, 1, 59, 0
7, 52187, Note_on_c, 1, 57, 90
7, 52407, Note_on_c, 1, 57, 0
7, 52433, Note_on_c, 1, 57, 90
7, 52546, Note_on_c, 1, 57, 0
7, 52550, Note_on_c, 1, 55, 90
7, 52774, Note_on_c, 1, 55, 0
7, 52798, Note_on_c, 1, 55, 90
7, 52913, Note_on_c, 1, 55, 0
7, 52913, Note_on_c, 1, 53, 78
7, 53001, Note_on_c, 1, 53, 0
7, 53030, Note_on_c, 1, 53, 78
7, 53149, Note_on_c, 1, 53, 0
7, 53156, Note_on_c, 1, 55, 78
7, 53250, Note_on_c, 1, 55, 0
7, 53274, Note_on_c, 1, 57, 104
7, 53370, Note_on_c, 1, 57, 0
7, 53393, Note_on_c, 1, 57, 68
7, 53506, Note_on_c, 1, 57, 0
7, 53634, Note_on_c, 1, 57, 104
7, 53708, Note_on_c, 1, 57, 0
7, 53729, Note_on_c, 1, 57, 68
7, 53742, Note_on_c, 1, 57, 0
7, 53752, Note_on_c, 1, 57, 90
7, 53881, Note_on_c, 1, 57, 0
7, 53936, Note_on_c, 1, 57, 104
7, 53955, Note_on_c, 1, 57, 0
7, 53986, Note_on_c, 1, 57, 90
7, 54088, Note_on_c, 1, 57, 0
7, 54110, Note_on_c, 1, 57, 90
7, 54205, Note_on_c, 1, 57, 0
7, 54231, Note_on_c, 1, 57, 90
7, 54349, Note_on_c, 1, 57, 0
7, 54349, Note_on_c, 1, 55, 78
7, 54661, Note_on_c, 1, 55, 0
7, 54680, Note_on_c, 1, 55, 90
7, 54695, Note_on_c, 1, 55, 0
7, 54705, Note_on_c, 1, 55, 90
7, 54838, Note_on_c, 1, 55, 0
7, 55802, Note_on_c, 1, 45, 50
7, 56158, Note_on_c, 1, 45, 0
7, 56158, Note_on_c, 1, 41, 35
7, 56515, Note_on_c, 1, 43, 35
7, 56520, Note_on_c, 1, 41, 0
7, 56879, Note_on_c, 1, 45, 42
7, 56881, Note_on_c, 1, 43, 0
7, 57118, Note_on_c, 1, 45, 0
7, 57118, Note_on_c, 1, 41, 35
7, 57238, Note_on_c, 1, 41, 0
7, 57238, Note_on_c, 1, 43, 35
7, 57957, Note_on_c, 1, 48, 42
7, 57958, Note_on_c, 1, 43, 0
7, 58060, Note_on_c, 1, 48, 0
7, 58672, Note_on_c, 1, 48, 90
7, 58759, Note_on_c, 1, 48, 0
7, 58793, Note_on_c, 1, 48, 90
7, 58880, Note_on_c, 1, 48, 0
7, 58914, Note_on_c, 1, 48, 90
7, 58995, Note_on_c, 1, 48, 0
7, 59031, Note_on_c, 1, 48, 90
7, 59340, Note_on_c, 1, 48, 0
7, 59363, Note_on_c, 1, 48, 78
7, 59379, Note_on_c, 1, 48, 0
7, 59389, Note_on_c, 1, 48, 90
7, 59509, Note_on_c, 1, 48, 0
7, 60084, Note_on_c, 1, 55, 78
7, 60107, Note_on_c, 1, 48, 78
7, 60118, Note_on_c, 1, 55, 0
7, 60198, Note_on_c, 1, 48, 0
7, 60224, Note_on_c, 1, 48, 90
7, 60250, Note_on_c, 1, 48, 0
7, 60277, Note_on_c, 1, 48, 78
7, 60316, Note_on_c, 1, 48, 0
7, 60345, Note_on_c, 1, 48, 78
7, 60377, Note_on_c, 1, 48, 0
7, 60408, Note_on_c, 1, 48, 68
7, 60435, Note_on_c, 1, 48, 0
7, 60466, Note_on_c, 1, 48, 78
7, 60797, Note_on_c, 1, 48, 0
7, 60831, Note_on_c, 1, 48, 90
7, 60945, Note_on_c, 1, 48, 0
7, 61184, Note_on_c, 1, 60, 78
7, 61310, Note_on_c, 1, 59, 78
7, 61315, Note_on_c, 1, 60, 0
7, 61431, Note_on_c, 1, 60, 78
7, 61436, Note_on_c, 1, 59, 0
7, 61549, Note_on_c, 1, 60, 0
7, 61551, Note_on_c, 1, 55, 90
7, 61649, Note_on_c, 1, 55, 0
7, 61677, Note_on_c, 1, 55, 78
7, 61768, Note_on_c, 1, 55, 0
7, 64789, Note_on_c, 1, 48, 68
7, 64921, Note_on_c, 1, 48, 0
7, 64921, Note_on_c, 1, 60, 90
7, 65045, Note_on_c, 1, 59, 78
7, 65056, Note_on_c, 1, 60, 0
7, 65157, Note_on_c, 1, 58, 90
7, 65160, Note_on_c, 1, 59, 0
7, 65272, Note_on_c, 1, 58, 0
7, 65272, Note_on_c, 1, 57, 90
7, 65390, Note_on_c, 1, 57, 0
7, 65390, Note_on_c, 1, 53, 78
7, 65508, Note_on_c, 1, 53, 0
7, 65510, Note_on_c, 1, 52, 78
7, 65634, Note_on_c, 1, 52, 0
7, 65634, Note_on_c, 1, 60, 90
7, 65749, Note_on_c, 1, 60, 0
7, 65749, Note_on_c, 1, 59, 78
7, 65868, Note_on_c, 1, 58, 90
7, 65878, Note_on_c, 1, 59, 0
7, 65986, Note_on_c, 1, 58, 0
7, 65992, Note_on_c, 1, 57, 78
7, 66117, Note_on_c, 1, 53, 78
7, 66119, Note_on_c, 1, 57, 0
7, 66229, Note_on_c, 1, 53, 0
7, 66229, Note_on_c, 1, 52, 78
7, 66347, Note_on_c, 1, 52, 0
7, 66354, Note_on_c, 1, 60, 90
7, 66475, Note_on_c, 1, 59, 78
7, 66479, Note_on_c, 1, 60, 0
7, 66589, Note_on_c, 1, 58, 90
7, 66594, Note_on_c, 1, 59, 0
7, 66712, Note_on_c, 1, 57, 90
7, 66714, Note_on_c, 1, 58, 0
7, 66836, Note_on_c, 1, 55, 78
7, 66838, Note_on_c, 1, 57, 0
7, 66949, Note_on_c, 1, 55, 0
7, 66953, Note_on_c, 1, 53, 78
7, 67050, Note_on_c, 1, 53, 0
7, 67074, Note_on_c, 1, 53, 90
7, 67183, Note_on_c, 1, 53, 0
7, 67317, Note_on_c, 1, 53, 90
7, 67409, Note_on_c, 1, 53, 0
7, 67434, Note_on_c, 1, 53, 90
7, 67552, Note_on_c, 1, 53, 0
7, 68039, Note_on_c, 1, 53, 90
7, 68278, Note_on_c, 1, 54, 90
7, 68294, Note_on_c, 1, 53, 0
7, 68395, Note_on_c, 1, 54, 0
7, 68397, Note_on_c, 1, 55, 78
7, 69113, Note_on_c, 1, 55, 0
7, 69116, Note_on_c, 1, 48, 78
7, 69197, Note_on_c, 1, 48, 0
7, 69238, Note_on_c, 1, 48, 90
7, 69353, Note_on_c, 1, 52, 78
7, 69357, Note_on_c, 1, 48, 0
7, 69466, Note_on_c, 1, 55, 78
7, 69474, Note_on_c, 1, 52, 0
7, 69587, Note_on_c, 1, 55, 0
7, 69589, Note_on_c, 1, 52, 78
7, 69712, Note_on_c, 1, 55, 78
7, 69716, Note_on_c, 1, 52, 0
7, 69820, Note_on_c, 1, 55, 0
7, 69822, Note_on_c, 1, 60, 78
7, 70902, Note_on_c, 1, 60, 0
7, 70926, Note_on_c, 1, 60, 90
7, 71019, Note_on_c, 1, 60, 0
7, 71019, End_track
8, 0, Start_track
8, 0, MIDI_port, 0
8, 0, Title_t, "sop solo"
8, 0, Program_c, 2, 53
8, 12010, Note_on_c, 2, 72, 78
8, 12096, Note_on_c, 2, 72, 0
8, 12125, Note_on_c, 2, 72, 78
8, 12211, Note_on_c, 2, 72, 0
8, 12243, Note_on_c, 2, 72, 88
8, 12372, Note_on_c, 2, 71, 88
8, 12375, Note_on_c, 2, 72, 0
8, 12424, Note_on_c, 2, 69, 78
8, 12426, Note_on_c, 2, 71, 0
8, 12484, Note_on_c, 2, 69, 0
8, 12489, Note_on_c, 2, 71, 88
8, 12592, Note_on_c, 2, 71, 0
8, 12596, Note_on_c, 2, 72, 88
8, 12707, Note_on_c, 2, 72, 0
8, 13437, Note_on_c, 2, 74, 98
8, 13530, Note_on_c, 2, 74, 0
8, 13560, Note_on_c, 2, 74, 88
8, 13671, Note_on_c, 2, 74, 0
8, 13676, Note_on_c, 2, 72, 88
8, 13895, Note_on_c, 2, 72, 0
8, 13921, Note_on_c, 2, 72, 88
8, 14034, Note_on_c, 2, 72, 0
8, 14037, Note_on_c, 2, 71, 88
8, 14149, Note_on_c, 2, 71, 0
8, 20168, Note_on_c, 2, 74, 98
8, 20432, Note_on_c, 2, 74, 0
8, 20456, Note_on_c, 2, 74, 98
8, 20476, Note_on_c, 2, 74, 0
8, 20507, Note_on_c, 2, 74, 98
8, 20879, Note_on_c, 2, 74, 0
8, 20879, Note_on_c, 2, 71, 88
8, 20973, Note_on_c, 2, 72, 78
8, 20977, Note_on_c, 2, 71, 0
8, 21000, Note_on_c, 2, 74, 98
8, 21001, Note_on_c, 2, 72, 0
8, 21116, Note_on_c, 2, 74, 0
8, 21603, Note_on_c, 2, 74, 98
8, 21936, Note_on_c, 2, 74, 0
8, 21954, Note_on_c, 2, 74, 98
8, 22313, Note_on_c, 2, 74, 0
8, 22313, Note_on_c, 2, 71, 88
8, 22410, Note_on_c, 2, 72, 70
8, 22415, Note_on_c, 2, 71, 0
8, 22431, Note_on_c, 2, 74, 78
8, 22435, Note_on_c, 2, 72, 0
8, 22559, Note_on_c, 2, 74, 0
8, 23400, Note_on_c, 2, 74, 88
8, 23486, Note_on_c, 2, 74, 0
8, 23486, Note_on_c, 2, 71, 70
8, 23513, Note_on_c, 2, 71, 0
8, 23517, Note_on_c, 2, 76, 98
8, 23699, Note_on_c, 2, 74, 98
8, 23704, Note_on_c, 2, 76, 0
8, 23732, Note_on_c, 2, 74, 0
8, 23756, Note_on_c, 2, 74, 98
8, 23815, Note_on_c, 2, 72, 88
8, 23821, Note_on_c, 2, 74, 0
8, 23851, Note_on_c, 2, 72, 0
8, 23874, Note_on_c, 2, 72, 88
8, 24007, Note_on_c, 2, 72, 0
8, 24120, Note_on_c, 2, 69, 78
8, 24239, Note_on_c, 2, 74, 98
8, 24241, Note_on_c, 2, 69, 0
8, 24425, Note_on_c, 2, 72, 88
8, 24432, Note_on_c, 2, 74, 0
8, 24455, Note_on_c, 2, 72, 0
8, 24478, Note_on_c, 2, 72, 98
8, 24566, Note_on_c, 2, 72, 0
8, 24572, Note_on_c, 2, 71, 88
8, 24589, Note_on_c, 2, 71, 0
8, 24598, Note_on_c, 2, 71, 110
8, 24707, Note_on_c, 2, 71, 0
8, 24838, Note_on_c, 2, 71, 98
8, 25072, Note_on_c, 2, 71, 0
8, 25076, Note_on_c, 2, 67, 98
8, 25198, Note_on_c, 2, 74, 88
8, 25202, Note_on_c, 2, 67, 0
8, 25251, Note_on_c, 2, 71, 88
8, 25256, Note_on_c, 2, 74, 0
8, 25291, Note_on_c, 2, 71, 0
8, 25314, Note_on_c, 2, 71, 98
8, 25428, Note_on_c, 2, 71, 0
8, 25561, Note_on_c, 2, 76, 78
8, 25615, Note_on_c, 2, 72, 88
8, 25620, Note_on_c, 2, 76, 0
8, 25680, Note_on_c, 2, 71, 88
8, 25681, Note_on_c, 2, 72, 0
8, 25805, Note_on_c, 2, 71, 0
8, 25806, Note_on_c, 2, 69, 98
8, 25922, Note_on_c, 2, 69, 0
8, 25922, Note_on_c, 2, 67, 98
8, 26040, Note_on_c, 2, 67, 0
8, 26278, Note_on_c, 2, 71, 98
8, 26512, Note_on_c, 2, 71, 0
8, 26516, Note_on_c, 2, 67, 88
8, 26638, Note_on_c, 2, 67, 0
8, 26638, Note_on_c, 2, 74, 98
8, 26699, Note_on_c, 2, 71, 70
8, 26704, Note_on_c, 2, 74, 0
8, 26729, Note_on_c, 2, 71, 0
8, 26758, Note_on_c, 2, 71, 98
8, 26875, Note_on_c, 2, 71, 0
8, 26880, Note_on_c, 2, 79, 78
8, 26992, Note_on_c, 2, 79, 0
8, 26997, Note_on_c, 2, 76, 78
8, 27049, Note_on_c, 2, 72, 88
8, 27056, Note_on_c, 2, 76, 0
8, 27081, Note_on_c, 2, 72, 0
8, 27109, Note_on_c, 2, 71, 88
8, 27235, Note_on_c, 2, 71, 0
8, 27237, Note_on_c, 2, 69, 98
8, 27359, Note_on_c, 2, 69, 0
8, 27359, Note_on_c, 2, 67, 88
8, 27488, Note_on_c, 2, 67, 0
8, 31320, Note_on_c, 2, 69, 70
8, 31442, Note_on_c, 2, 70, 88
8, 31444, Note_on_c, 2, 69, 0
8, 31568, Note_on_c, 2, 72, 70
8, 31569, Note_on_c, 2, 70, 0
8, 31681, Note_on_c, 2, 72, 0
8, 31681, Note_on_c, 2, 74, 78
8, 31864, Note_on_c, 2, 75, 88
8, 31868, Note_on_c, 2, 74, 0
8, 31922, Note_on_c, 2, 75, 0
8, 31922, Note_on_c, 2, 74, 88
8, 32045, Note_on_c, 2, 69, 78
8, 32047, Note_on_c, 2, 74, 0
8, 32163, Note_on_c, 2, 70, 98
8, 32165, Note_on_c, 2, 69, 0
8, 32278, Note_on_c, 2, 72, 78
8, 32284, Note_on_c, 2, 70, 0
8, 32398, Note_on_c, 2, 72, 0
8, 32402, Note_on_c, 2, 74, 70
8, 32579, Note_on_c, 2, 75, 88
8, 32584, Note_on_c, 2, 74, 0
8, 32643, Note_on_c, 2, 75, 0
8, 32643, Note_on_c, 2, 74, 88
8, 32756, Note_on_c, 2, 75, 98
8, 32758, Note_on_c, 2, 74, 0
8, 32974, Note_on_c, 2, 75, 0
8, 32998, Note_on_c, 2, 75, 98
8, 33112, Note_on_c, 2, 75, 0
8, 33116, Note_on_c, 2, 74, 88
8, 33320, Note_on_c, 2, 74, 0
8, 33356, Note_on_c, 2, 74, 98
8, 33473, Note_on_c, 2, 74, 0
8, 33473, Note_on_c, 2, 72, 88
8, 33598, Note_on_c, 2, 70, 98
8, 33602, Note_on_c, 2, 72, 0
8, 33719, Note_on_c, 2, 70, 0
8, 33719, Note_on_c, 2, 69, 98
8, 33838, Note_on_c, 2, 67, 88
8, 33840, Note_on_c, 2, 69, 0
8, 33956, Note_on_c, 2, 67, 0
8, 37800, Note_on_c, 2, 72, 78
8, 37967, Note_on_c, 2, 73, 88
8, 37973, Note_on_c, 2, 72, 0
8, 38030, Note_on_c, 2, 72, 78
8, 38038, Note_on_c, 2, 73, 0
8, 38129, Note_on_c, 2, 72, 0
8, 38151, Note_on_c, 2, 72, 78
8, 38271, Note_on_c, 2, 70, 88
8, 38274, Note_on_c, 2, 72, 0
8, 38392, Note_on_c, 2, 68, 98
8, 38393, Note_on_c, 2, 70, 0
8, 38509, Note_on_c, 2, 68, 0
8, 38510, Note_on_c, 2, 67, 98
8, 38630, Note_on_c, 2, 68, 98
8, 38633, Note_on_c, 2, 67, 0
8, 38758, Note_on_c, 2, 70, 98
8, 38760, Note_on_c, 2, 68, 0
8, 38872, Note_on_c, 2, 70, 0
8, 38872, Note_on_c, 2, 72, 88
8, 39044, Note_on_c, 2, 73, 88
8, 39046, Note_on_c, 2, 72, 0
8, 39107, Note_on_c, 2, 73, 0
8, 39107, Note_on_c, 2, 72, 88
8, 39209, Note_on_c, 2, 72, 0
8, 39226, Note_on_c, 2, 73, 98
8, 39452, Note_on_c, 2, 73, 0
8, 39478, Note_on_c, 2, 73, 98
8, 39594, Note_on_c, 2, 72, 78
8, 39622, Note_on_c, 2, 73, 0
8, 39756, Note_on_c, 2, 72, 0
8, 39777, Note_on_c, 2, 72, 88
8, 39808, Note_on_c, 2, 72, 0
8, 39833, Note_on_c, 2, 72, 88
8, 39958, Note_on_c, 2, 67, 88
8, 39960, Note_on_c, 2, 72, 0
8, 40070, Note_on_c, 2, 67, 0
8, 40075, Note_on_c, 2, 65, 88
8, 40195, Note_on_c, 2, 65, 0
8, 40195, Note_on_c, 2, 64, 88
8, 40307, Note_on_c, 2, 64, 0
8, 40311, Note_on_c, 2, 65, 110
8, 40420, Note_on_c, 2, 65, 0
8, 44268, Note_on_c, 2, 53, 88
8, 44388, Note_on_c, 2, 51, 78
8, 44390, Note_on_c, 2, 53, 0
8, 44517, Note_on_c, 2, 50, 78
8, 44522, Note_on_c, 2, 51, 0
8, 44635, Note_on_c, 2, 50, 0
8, 44636, Note_on_c, 2, 48, 88
8, 44757, Note_on_c, 2, 50, 88
8, 44760, Note_on_c, 2, 48, 0
8, 44875, Note_on_c, 2, 51, 98
8, 44880, Note_on_c, 2, 50, 0
8, 44985, Note_on_c, 2, 51, 0
8, 44985, Note_on_c, 2, 53, 98
8, 45106, Note_on_c, 2, 51, 98
8, 45108, Note_on_c, 2, 53, 0
8, 45225, Note_on_c, 2, 51, 0
8, 45227, Note_on_c, 2, 50, 78
8, 45350, Note_on_c, 2, 50, 0
8, 45351, Note_on_c, 2, 48, 88
8, 45471, Note_on_c, 2, 50, 88
8, 45480, Note_on_c, 2, 48, 0
8, 45587, Note_on_c, 2, 51, 98
8, 45594, Note_on_c, 2, 50, 0
8, 45699, Note_on_c, 2, 51, 0
8, 45703, Note_on_c, 2, 52, 98
8, 45935, Note_on_c, 2, 52, 0
8, 45955, Note_on_c, 2, 52, 88
8, 46074, Note_on_c, 2, 53, 98
8, 46079, Note_on_c, 2, 52, 0
8, 46314, Note_on_c, 2, 55, 98
8, 46322, Note_on_c, 2, 53, 0
8, 46433, Note_on_c, 2, 56, 110
8, 46435, Note_on_c, 2, 55, 0
8, 46794, Note_on_c, 2, 56, 0
8, 46798, Note_on_c, 2, 55, 98
8, 46921, Note_on_c, 2, 55, 0
8, 61914, Note_on_c, 2, 79, 88
8, 62448, Note_on_c, 2, 77, 88
8, 62457, Note_on_c, 2, 79, 0
8, 62509, Note_on_c, 2, 76, 98
8, 62521, Note_on_c, 2, 77, 0
8, 62569, Note_on_c, 2, 74, 88
8, 62572, Note_on_c, 2, 76, 0
8, 62633, Note_on_c, 2, 72, 98
8, 62639, Note_on_c, 2, 74, 0
8, 62934, Note_on_c, 2, 74, 88
8, 62942, Note_on_c, 2, 72, 0
8, 62958, Note_on_c, 2, 76, 62
8, 62967, Note_on_c, 2, 74, 0
8, 62996, Note_on_c, 2, 67, 88
8, 63001, Note_on_c, 2, 76, 0
8, 63143, Note_on_c, 2, 67, 0
8, 63143, End_track
9, 0, Start_track
9, 0, MIDI_port, 0
9, 0, Title_t, "alt solo"
9, 12005, Note_on_c, 2, 67, 88
9, 12092, Note_on_c, 2, 67, 0
9, 12124, Note_on_c, 2, 67, 88
9, 12243, Note_on_c, 2, 65, 88
9, 12245, Note_on_c, 2, 67, 0
9, 12402, Note_on_c, 2, 65, 0
9, 12422, Note_on_c, 2, 65, 88
9, 12454, Note_on_c, 2, 65, 0
9, 12483, Note_on_c, 2, 65, 98
9, 12608, Note_on_c, 2, 65, 0
9, 12608, Note_on_c, 2, 64, 98
9, 12717, Note_on_c, 2, 64, 0
9, 13436, Note_on_c, 2, 67, 88
9, 13531, Note_on_c, 2, 67, 0
9, 13560, Note_on_c, 2, 67, 88
9, 13652, Note_on_c, 2, 67, 0
9, 13680, Note_on_c, 2, 67, 78
9, 13802, Note_on_c, 2, 66, 98
9, 13807, Note_on_c, 2, 67, 0
9, 13854, Note_on_c, 2, 66, 0
9, 13857, Note_on_c, 2, 64, 88
9, 13918, Note_on_c, 2, 64, 0
9, 13918, Note_on_c, 2, 66, 110
9, 14033, Note_on_c, 2, 66, 0
9, 14036, Note_on_c, 2, 67, 88
9, 14142, Note_on_c, 2, 67, 0
9, 23405, Note_on_c, 2, 71, 88
9, 23461, Note_on_c, 2, 67, 78
9, 23463, Note_on_c, 2, 71, 0
9, 23515, Note_on_c, 2, 67, 0
9, 23520, Note_on_c, 2, 72, 88
9, 23702, Note_on_c, 2, 72, 0
9, 23702, Note_on_c, 2, 71, 98
9, 23736, Note_on_c, 2, 71, 0
9, 23759, Note_on_c, 2, 71, 98
9, 23810, Note_on_c, 2, 69, 78
9, 23816, Note_on_c, 2, 71, 0
9, 23849, Note_on_c, 2, 69, 0
9, 23875, Note_on_c, 2, 69, 88
9, 24001, Note_on_c, 2, 69, 0
9, 24114, Note_on_c, 2, 66, 98
9, 24231, Note_on_c, 2, 66, 0
9, 24235, Note_on_c, 2, 71, 88
9, 24409, Note_on_c, 2, 71, 0
9, 24410, Note_on_c, 2, 69, 88
9, 24444, Note_on_c, 2, 69, 0
9, 24476, Note_on_c, 2, 69, 98
9, 24572, Note_on_c, 2, 69, 0
9, 24572, Note_on_c, 2, 67, 88
9, 24589, Note_on_c, 2, 67, 0
9, 24600, Note_on_c, 2, 67, 98
9, 24715, Note_on_c, 2, 67, 0
9, 24837, Note_on_c, 2, 67, 98
9, 25129, Note_on_c, 2, 67, 0
9, 25177, Note_on_c, 2, 67, 78
9, 25192, Note_on_c, 2, 67, 0
9, 25200, Note_on_c, 2, 67, 110
9, 25550, Note_on_c, 2, 67, 0
9, 25555, Note_on_c, 2, 64, 88
9, 25671, Note_on_c, 2, 64, 0
9, 25675, Note_on_c, 2, 67, 98
9, 25794, Note_on_c, 2, 66, 110
9, 25799, Note_on_c, 2, 67, 0
9, 25909, Note_on_c, 2, 66, 0
9, 25916, Note_on_c, 2, 67, 98
9, 26044, Note_on_c, 2, 67, 0
9, 26396, Note_on_c, 2, 67, 98
9, 26486, Note_on_c, 2, 67, 0
9, 26520, Note_on_c, 2, 67, 110
9, 26544, Note_on_c, 2, 67, 0
9, 26568, Note_on_c, 2, 67, 98
9, 26608, Note_on_c, 2, 67, 0
9, 26634, Note_on_c, 2, 67, 110
9, 26877, Note_on_c, 2, 67, 0
9, 26879, Note_on_c, 2, 62, 88
9, 26981, Note_on_c, 2, 62, 0
9, 27002, Note_on_c, 2, 64, 98
9, 27056, Note_on_c, 2, 64, 0
9, 27056, Note_on_c, 2, 69, 88
9, 27115, Note_on_c, 2, 69, 0
9, 27115, Note_on_c, 2, 67, 98
9, 27240, Note_on_c, 2, 66, 110
9, 27241, Note_on_c, 2, 67, 0
9, 27356, Note_on_c, 2, 66, 0
9, 27358, Note_on_c, 2, 67, 98
9, 27497, Note_on_c, 2, 67, 0
9, 31318, Note_on_c, 2, 66, 88
9, 31437, Note_on_c, 2, 67, 78
9, 31445, Note_on_c, 2, 66, 0
9, 31564, Note_on_c, 2, 67, 0
9, 31564, Note_on_c, 2, 69, 78
9, 31676, Note_on_c, 2, 69, 0
9, 31680, Note_on_c, 2, 70, 78
9, 31802, Note_on_c, 2, 66, 88
9, 31809, Note_on_c, 2, 70, 0
9, 31914, Note_on_c, 2, 66, 0
9, 31915, Note_on_c, 2, 67, 70
9, 32031, Note_on_c, 2, 66, 98
9, 32036, Note_on_c, 2, 67, 0
9, 32155, Note_on_c, 2, 66, 0
9, 32157, Note_on_c, 2, 67, 88
9, 32283, Note_on_c, 2, 69, 78
9, 32290, Note_on_c, 2, 67, 0
9, 32396, Note_on_c, 2, 70, 88
9, 32404, Note_on_c, 2, 69, 0
9, 32517, Note_on_c, 2, 70, 0
9, 32517, Note_on_c, 2, 66, 98
9, 32629, Note_on_c, 2, 66, 0
9, 32632, Note_on_c, 2, 67, 78
9, 32749, Note_on_c, 2, 67, 0
9, 32758, Note_on_c, 2, 66, 98
9, 32972, Note_on_c, 2, 66, 0
9, 33002, Note_on_c, 2, 66, 98
9, 33109, Note_on_c, 2, 66, 0
9, 33115, Note_on_c, 2, 67, 88
9, 33333, Note_on_c, 2, 67, 0
9, 33363, Note_on_c, 2, 67, 70
9, 33472, Note_on_c, 2, 67, 0
9, 33473, Note_on_c, 2, 69, 78
9, 33593, Note_on_c, 2, 67, 78
9, 33597, Note_on_c, 2, 69, 0
9, 33715, Note_on_c, 2, 66, 98
9, 33719, Note_on_c, 2, 67, 0
9, 33840, Note_on_c, 2, 66, 0
9, 33840, Note_on_c, 2, 67, 88
9, 33957, Note_on_c, 2, 67, 0
9, 38520, Note_on_c, 2, 60, 98
9, 38696, Note_on_c, 2, 61, 98
9, 38702, Note_on_c, 2, 60, 0
9, 38760, Note_on_c, 2, 61, 0
9, 38762, Note_on_c, 2, 60, 88
9, 38855, Note_on_c, 2, 60, 0
9, 38879, Note_on_c, 2, 60, 88
9, 38995, Note_on_c, 2, 64, 98
9, 38998, Note_on_c, 2, 60, 0
9, 39109, Note_on_c, 2, 65, 98
9, 39113, Note_on_c, 2, 64, 0
9, 39232, Note_on_c, 2, 65, 0
9, 39232, Note_on_c, 2, 64, 88
9, 39449, Note_on_c, 2, 64, 0
9, 39475, Note_on_c, 2, 64, 98
9, 39593, Note_on_c, 2, 64, 0
9, 39599, Note_on_c, 2, 65, 98
9, 39839, Note_on_c, 2, 60, 88
9, 39843, Note_on_c, 2, 65, 0
9, 39952, Note_on_c, 2, 60, 0
9, 39957, Note_on_c, 2, 67, 98
9, 40076, Note_on_c, 2, 65, 98
9, 40078, Note_on_c, 2, 67, 0
9, 40199, Note_on_c, 2, 64, 88
9, 40201, Note_on_c, 2, 65, 0
9, 40320, Note_on_c, 2, 65, 110
9, 40322, Note_on_c, 2, 64, 0
9, 40420, Note_on_c, 2, 65, 0
9, 43921, Note_on_c, 2, 67, 88
9, 44097, Note_on_c, 2, 68, 88
9, 44104, Note_on_c, 2, 67, 0
9, 44154, Note_on_c, 2, 67, 88
9, 44160, Note_on_c, 2, 68, 0
9, 44249, Note_on_c, 2, 67, 0
9, 44280, Note_on_c, 2, 67, 88
9, 44617, Note_on_c, 2, 67, 0
9, 44639, Note_on_c, 2, 67, 88
9, 44814, Note_on_c, 2, 68, 88
9, 44824, Note_on_c, 2, 67, 0
9, 44868, Note_on_c, 2, 67, 88
9, 44873, Note_on_c, 2, 68, 0
9, 44950, Note_on_c, 2, 67, 0
9, 44985, Note_on_c, 2, 67, 98
9, 45528, Note_on_c, 2, 68, 98
9, 45534, Note_on_c, 2, 67, 0
9, 45588, Note_on_c, 2, 68, 0
9, 45588, Note_on_c, 2, 67, 88
9, 45711, Note_on_c, 2, 70, 110
9, 45713, Note_on_c, 2, 67, 0
9, 45929, Note_on_c, 2, 70, 0
9, 45959, Note_on_c, 2, 70, 98
9, 46077, Note_on_c, 2, 68, 98
9, 46080, Note_on_c, 2, 70, 0
9, 46319, Note_on_c, 2, 68, 0
9, 46319, Note_on_c, 2, 67, 98
9, 46416, Note_on_c, 2, 67, 0
9, 46440, Note_on_c, 2, 67, 98
9, 46557, Note_on_c, 2, 65, 98
9, 46560, Note_on_c, 2, 67, 0
9, 46680, Note_on_c, 2, 66, 110
9, 46686, Note_on_c, 2, 65, 0
9, 46800, Note_on_c, 2, 67, 98
9, 46801, Note_on_c, 2, 66, 0
9, 46915, Note_on_c, 2, 67, 0
9, 62640, Note_on_c, 2, 67, 98
9, 63174, Note_on_c, 2, 64, 70
9, 63181, Note_on_c, 2, 67, 0
9, 63232, Note_on_c, 2, 65, 88
9, 63239, Note_on_c, 2, 64, 0
9, 63290, Note_on_c, 2, 62, 70
9, 63291, Note_on_c, 2, 65, 0
9, 63350, Note_on_c, 2, 62, 0
9, 63353, Note_on_c, 2, 60, 88
9, 63687, Note_on_c, 2, 62, 62
9, 63693, Note_on_c, 2, 60, 0
9, 63700, Note_on_c, 2, 64, 70
9, 63708, Note_on_c, 2, 62, 0
9, 63718, Note_on_c, 2, 62, 98
9, 63725, Note_on_c, 2, 64, 0
9, 63840, Note_on_c, 2, 62, 0
9, 63840, End_track
10, 0, Start_track
10, 0, MIDI_port, 0
10, 0, Title_t, "tenor solo"
10, 12007, Note_on_c, 2, 64, 78
10, 12095, Note_on_c, 2, 64, 0
10, 12122, Note_on_c, 2, 64, 78
10, 12239, Note_on_c, 2, 64, 0
10, 12240, Note_on_c, 2, 62, 88
10, 12395, Note_on_c, 2, 62, 0
10, 12419, Note_on_c, 2, 62, 88
10, 12457, Note_on_c, 2, 62, 0
10, 12482, Note_on_c, 2, 62, 98
10, 12603, Note_on_c, 2, 62, 0
10, 12603, Note_on_c, 2, 60, 88
10, 12707, Note_on_c, 2, 60, 0
10, 13438, Note_on_c, 2, 59, 88
10, 13526, Note_on_c, 2, 59, 0
10, 13558, Note_on_c, 2, 59, 98
10, 13677, Note_on_c, 2, 59, 0
10, 13677, Note_on_c, 2, 57, 88
10, 13894, Note_on_c, 2, 57, 0
10, 13915, Note_on_c, 2, 57, 98
10, 14033, Note_on_c, 2, 57, 0
10, 14036, Note_on_c, 2, 55, 98
10, 14139, Note_on_c, 2, 55, 0
10, 20879, Note_on_c, 2, 62, 98
10, 21220, Note_on_c, 2, 62, 0
10, 21240, Note_on_c, 2, 62, 98
10, 21600, Note_on_c, 2, 62, 0
10, 21600, Note_on_c, 2, 59, 88
10, 21687, Note_on_c, 2, 60, 78
10, 21689, Note_on_c, 2, 59, 0
10, 21713, Note_on_c, 2, 60, 0
10, 21715, Note_on_c, 2, 62, 98
10, 21840, Note_on_c, 2, 62, 0
10, 22317, Note_on_c, 2, 62, 98
10, 22644, Note_on_c, 2, 62, 0
10, 22674, Note_on_c, 2, 62, 88
10, 22889, Note_on_c, 2, 62, 0
10, 22921, Note_on_c, 2, 62, 98
10, 23036, Note_on_c, 2, 62, 0
10, 23037, Note_on_c, 2, 59, 88
10, 23122, Note_on_c, 2, 60, 78
10, 23124, Note_on_c, 2, 59, 0
10, 23144, Note_on_c, 2, 60, 0
10, 23148, Note_on_c, 2, 62, 98
10, 23304, Note_on_c, 2, 62, 0
10, 24837, Note_on_c, 2, 62, 98
10, 25078, Note_on_c, 2, 59, 98
10, 25089, Note_on_c, 2, 62, 0
10, 25171, Note_on_c, 2, 59, 0
10, 25200, Note_on_c, 2, 59, 78
10, 25255, Note_on_c, 2, 55, 98
10, 25261, Note_on_c, 2, 59, 0
10, 25292, Note_on_c, 2, 55, 0
10, 25314, Note_on_c, 2, 55, 88
10, 25460, Note_on_c, 2, 55, 0
10, 25562, Note_on_c, 2, 57, 98
10, 25602, Note_on_c, 2, 57, 0
10, 25621, Note_on_c, 2, 57, 98
10, 25673, Note_on_c, 2, 57, 0
10, 25677, Note_on_c, 2, 62, 98
10, 25797, Note_on_c, 2, 62, 0
10, 25797, Note_on_c, 2, 60, 98
10, 25920, Note_on_c, 2, 60, 0
10, 25920, Note_on_c, 2, 59, 98
10, 26044, Note_on_c, 2, 59, 0
10, 26278, Note_on_c, 2, 62, 98
10, 26519, Note_on_c, 2, 59, 98
10, 26528, Note_on_c, 2, 62, 0
10, 26612, Note_on_c, 2, 59, 0
10, 26639, Note_on_c, 2, 59, 88
10, 26694, Note_on_c, 2, 55, 88
10, 26702, Note_on_c, 2, 59, 0
10, 26725, Note_on_c, 2, 55, 0
10, 26753, Note_on_c, 2, 55, 98
10, 26877, Note_on_c, 2, 59, 98
10, 26879, Note_on_c, 2, 55, 0
10, 26993, Note_on_c, 2, 59, 0
10, 26998, Note_on_c, 2, 57, 88
10, 27053, Note_on_c, 2, 57, 0
10, 27058, Note_on_c, 2, 64, 98
10, 27115, Note_on_c, 2, 62, 98
10, 27117, Note_on_c, 2, 64, 0
10, 27347, Note_on_c, 2, 62, 0
10, 27360, Note_on_c, 2, 62, 98
10, 27490, Note_on_c, 2, 62, 0
10, 30970, Note_on_c, 2, 62, 70
10, 31297, Note_on_c, 2, 62, 0
10, 31324, Note_on_c, 2, 62, 78
10, 31657, Note_on_c, 2, 62, 0
10, 31683, Note_on_c, 2, 62, 78
10, 31798, Note_on_c, 2, 62, 0
10, 31800, Note_on_c, 2, 60, 78
10, 31919, Note_on_c, 2, 58, 88
10, 31924, Note_on_c, 2, 60, 0
10, 32029, Note_on_c, 2, 58, 0
10, 32032, Note_on_c, 2, 62, 98
10, 32255, Note_on_c, 2, 62, 0
10, 32280, Note_on_c, 2, 62, 78
10, 32369, Note_on_c, 2, 62, 0
10, 32398, Note_on_c, 2, 62, 88
10, 32518, Note_on_c, 2, 60, 88
10, 32519, Note_on_c, 2, 62, 0
10, 32637, Note_on_c, 2, 58, 88
10, 32642, Note_on_c, 2, 60, 0
10, 32750, Note_on_c, 2, 58, 0
10, 32751, Note_on_c, 2, 57, 88
10, 32973, Note_on_c, 2, 57, 0
10, 33000, Note_on_c, 2, 57, 98
10, 33122, Note_on_c, 2, 57, 0
10, 33122, Note_on_c, 2, 58, 98
10, 33348, Note_on_c, 2, 58, 0
10, 33354, Note_on_c, 2, 62, 88
10, 33475, Note_on_c, 2, 63, 88
10, 33478, Note_on_c, 2, 62, 0
10, 33596, Note_on_c, 2, 62, 88
10, 33604, Note_on_c, 2, 63, 0
10, 33722, Note_on_c, 2, 60, 78
10, 33730, Note_on_c, 2, 62, 0
10, 33850, Note_on_c, 2, 58, 78
10, 33856, Note_on_c, 2, 60, 0
10, 33934, Note_on_c, 2, 58, 0
10, 37447, Note_on_c, 2, 60, 78
10, 37623, Note_on_c, 2, 61, 98
10, 37628, Note_on_c, 2, 60, 0
10, 37680, Note_on_c, 2, 61, 0
10, 37681, Note_on_c, 2, 60, 98
10, 37799, Note_on_c, 2, 60, 0
10, 38147, Note_on_c, 2, 56, 98
10, 38266, Note_on_c, 2, 56, 0
10, 38270, Note_on_c, 2, 55, 88
10, 38390, Note_on_c, 2, 55, 0
10, 38392, Note_on_c, 2, 53, 88
10, 38517, Note_on_c, 2, 53, 0
10, 38517, Note_on_c, 2, 52, 88
10, 38644, Note_on_c, 2, 53, 98
10, 38646, Note_on_c, 2, 52, 0
10, 38762, Note_on_c, 2, 55, 98
10, 38766, Note_on_c, 2, 53, 0
10, 38875, Note_on_c, 2, 55, 0
10, 38877, Note_on_c, 2, 56, 98
10, 38993, Note_on_c, 2, 58, 110
10, 38994, Note_on_c, 2, 56, 0
10, 39111, Note_on_c, 2, 58, 0
10, 39112, Note_on_c, 2, 60, 88
10, 39223, Note_on_c, 2, 60, 0
10, 39226, Note_on_c, 2, 55, 98
10, 39446, Note_on_c, 2, 55, 0
10, 39477, Note_on_c, 2, 55, 98
10, 39594, Note_on_c, 2, 55, 0
10, 39594, Note_on_c, 2, 56, 98
10, 39778, Note_on_c, 2, 60, 78
10, 39781, Note_on_c, 2, 56, 0
10, 39841, Note_on_c, 2, 60, 0
10, 39842, Note_on_c, 2, 65, 88
10, 39960, Note_on_c, 2, 61, 98
10, 39971, Note_on_c, 2, 65, 0
10, 40080, Note_on_c, 2, 60, 88
10, 40097, Note_on_c, 2, 61, 0
10, 40196, Note_on_c, 2, 58, 98
10, 40198, Note_on_c, 2, 60, 0
10, 40311, Note_on_c, 2, 56, 98
10, 40318, Note_on_c, 2, 58, 0
10, 40416, Note_on_c, 2, 56, 0
10, 44270, Note_on_c, 2, 59, 88
10, 44392, Note_on_c, 2, 60, 78
10, 44395, Note_on_c, 2, 59, 0
10, 44517, Note_on_c, 2, 62, 98
10, 44528, Note_on_c, 2, 60, 0
10, 44630, Note_on_c, 2, 63, 98
10, 44639, Note_on_c, 2, 62, 0
10, 44750, Note_on_c, 2, 62, 98
10, 44756, Note_on_c, 2, 63, 0
10, 44870, Note_on_c, 2, 60, 78
10, 44875, Note_on_c, 2, 62, 0
10, 44991, Note_on_c, 2, 59, 98
10, 44996, Note_on_c, 2, 60, 0
10, 45111, Note_on_c, 2, 60, 78
10, 45119, Note_on_c, 2, 59, 0
10, 45231, Note_on_c, 2, 62, 98
10, 45234, Note_on_c, 2, 60, 0
10, 45351, Note_on_c, 2, 63, 88
10, 45353, Note_on_c, 2, 62, 0
10, 45475, Note_on_c, 2, 62, 98
10, 45483, Note_on_c, 2, 63, 0
10, 45591, Note_on_c, 2, 60, 78
10, 45601, Note_on_c, 2, 62, 0
10, 45707, Note_on_c, 2, 60, 0
10, 45709, Note_on_c, 2, 55, 98
10, 45930, Note_on_c, 2, 55, 0
10, 45957, Note_on_c, 2, 55, 98
10, 46080, Note_on_c, 2, 56, 110
10, 46084, Note_on_c, 2, 55, 0
10, 46313, Note_on_c, 2, 58, 98
10, 46315, Note_on_c, 2, 56, 0
10, 46435, Note_on_c, 2, 58, 0
10, 46440, Note_on_c, 2, 60, 88
10, 46797, Note_on_c, 2, 60, 0
10, 46799, Note_on_c, 2, 62, 88
10, 46915, Note_on_c, 2, 62, 0
10, 63354, Note_on_c, 2, 67, 78
10, 63902, Note_on_c, 2, 65, 98
10, 63912, Note_on_c, 2, 67, 0
10, 63961, Note_on_c, 2, 64, 78
10, 63972, Note_on_c, 2, 65, 0
10, 64018, Note_on_c, 2, 62, 78
10, 64020, Note_on_c, 2, 64, 0
10, 64080, Note_on_c, 2, 60, 88
10, 64082, Note_on_c, 2, 62, 0
10, 64381, Note_on_c, 2, 62, 78
10, 64389, Note_on_c, 2, 60, 0
10, 64402, Note_on_c, 2, 62, 0
10, 64406, Note_on_c, 2, 64, 39
10, 64436, Note_on_c, 2, 62, 78
10, 64437, Note_on_c, 2, 64, 0
10, 64543, Note_on_c, 2, 62, 0
10, 64543, End_track
11, 0, Start_track
11, 0, MIDI_port, 0
11, 0, Title_t, "bass solo"
11, 12002, Note_on_c, 2, 60, 88
11, 12092, Note_on_c, 2, 60, 0
11, 12128, Note_on_c, 2, 60, 88
11, 12247, Note_on_c, 2, 60, 0
11, 12247, Note_on_c, 2, 55, 78
11, 12405, Note_on_c, 2, 55, 0
11, 12428, Note_on_c, 2, 55, 88
11, 12466, Note_on_c, 2, 55, 0
11, 12482, Note_on_c, 2, 55, 78
11, 12600, Note_on_c, 2, 55, 0
11, 12602, Note_on_c, 2, 48, 88
11, 12709, Note_on_c, 2, 48, 0
11, 13438, Note_on_c, 2, 55, 88
11, 13521, Note_on_c, 2, 55, 0
11, 13560, Note_on_c, 2, 55, 98
11, 13679, Note_on_c, 2, 50, 88
11, 13680, Note_on_c, 2, 55, 0
11, 13888, Note_on_c, 2, 50, 0
11, 13918, Note_on_c, 2, 50, 98
11, 14038, Note_on_c, 2, 50, 0
11, 14042, Note_on_c, 2, 43, 88
11, 14147, Note_on_c, 2, 43, 0
11, 24474, Note_on_c, 2, 55, 98
11, 24795, Note_on_c, 2, 55, 0
11, 24815, Note_on_c, 2, 55, 110
11, 24829, Note_on_c, 2, 55, 0
11, 24839, Note_on_c, 2, 55, 110
11, 24968, Note_on_c, 2, 55, 0
11, 25320, Note_on_c, 2, 55, 88
11, 25413, Note_on_c, 2, 55, 0
11, 25439, Note_on_c, 2, 55, 98
11, 25464, Note_on_c, 2, 55, 0
11, 25492, Note_on_c, 2, 55, 98
11, 25551, Note_on_c, 2, 55, 0
11, 25554, Note_on_c, 2, 48, 88
11, 25665, Note_on_c, 2, 48, 0
11, 25670, Note_on_c, 2, 50, 98
11, 25914, Note_on_c, 2, 50, 0
11, 25916, Note_on_c, 2, 43, 88
11, 26039, Note_on_c, 2, 43, 0
11, 26045, Note_on_c, 2, 55, 98
11, 26136, Note_on_c, 2, 55, 0
11, 26163, Note_on_c, 2, 55, 110
11, 26192, Note_on_c, 2, 55, 0
11, 26215, Note_on_c, 2, 55, 98
11, 26244, Note_on_c, 2, 55, 0
11, 26274, Note_on_c, 2, 55, 110
11, 26632, Note_on_c, 2, 55, 0
11, 26635, Note_on_c, 2, 43, 98
11, 26744, Note_on_c, 2, 43, 0
11, 27003, Note_on_c, 2, 48, 88
11, 27035, Note_on_c, 2, 48, 0
11, 27054, Note_on_c, 2, 48, 88
11, 27108, Note_on_c, 2, 48, 0
11, 27117, Note_on_c, 2, 50, 98
11, 27353, Note_on_c, 2, 50, 0
11, 27357, Note_on_c, 2, 43, 98
11, 27476, Note_on_c, 2, 43, 0
11, 31319, Note_on_c, 2, 60, 88
11, 31440, Note_on_c, 2, 58, 88
11, 31443, Note_on_c, 2, 60, 0
11, 31562, Note_on_c, 2, 57, 78
11, 31564, Note_on_c, 2, 58, 0
11, 31685, Note_on_c, 2, 55, 70
11, 31687, Note_on_c, 2, 57, 0
11, 31802, Note_on_c, 2, 57, 70
11, 31811, Note_on_c, 2, 55, 0
11, 31921, Note_on_c, 2, 58, 98
11, 31925, Note_on_c, 2, 57, 0
11, 32034, Note_on_c, 2, 58, 0
11, 32036, Note_on_c, 2, 60, 78
11, 32155, Note_on_c, 2, 58, 88
11, 32167, Note_on_c, 2, 60, 0
11, 32273, Note_on_c, 2, 58, 0
11, 32277, Note_on_c, 2, 57, 70
11, 32396, Note_on_c, 2, 57, 0
11, 32396, Note_on_c, 2, 55, 78
11, 32516, Note_on_c, 2, 57, 78
11, 32523, Note_on_c, 2, 55, 0
11, 32637, Note_on_c, 2, 58, 88
11, 32639, Note_on_c, 2, 57, 0
11, 32732, Note_on_c, 2, 58, 0
11, 32758, Note_on_c, 2, 60, 88
11, 32995, Note_on_c, 2, 48, 88
11, 32998, Note_on_c, 2, 60, 0
11, 33120, Note_on_c, 2, 46, 88
11, 33126, Note_on_c, 2, 48, 0
11, 33318, Note_on_c, 2, 46, 0
11, 33358, Note_on_c, 2, 46, 88
11, 33482, Note_on_c, 2, 48, 88
11, 33488, Note_on_c, 2, 46, 0
11, 33590, Note_on_c, 2, 48, 0
11, 33590, Note_on_c, 2, 50, 88
11, 33835, Note_on_c, 2, 50, 0
11, 33835, Note_on_c, 2, 43, 78
11, 33956, Note_on_c, 2, 43, 0
11, 38146, Note_on_c, 2, 48, 88
11, 38330, Note_on_c, 2, 49, 98
11, 38335, Note_on_c, 2, 48, 0
11, 38390, Note_on_c, 2, 49, 0
11, 38392, Note_on_c, 2, 48, 98
11, 38506, Note_on_c, 2, 48, 0
11, 38874, Note_on_c, 2, 53, 98
11, 38991, Note_on_c, 2, 55, 88
11, 38993, Note_on_c, 2, 53, 0
11, 39113, Note_on_c, 2, 56, 98
11, 39114, Note_on_c, 2, 55, 0
11, 39230, Note_on_c, 2, 58, 98
11, 39231, Note_on_c, 2, 56, 0
11, 39393, Note_on_c, 2, 58, 0
11, 39469, Note_on_c, 2, 46, 88
11, 39594, Note_on_c, 2, 46, 0
11, 39596, Note_on_c, 2, 44, 110
11, 39794, Note_on_c, 2, 44, 0
11, 39838, Note_on_c, 2, 44, 98
11, 39961, Note_on_c, 2, 46, 98
11, 39967, Note_on_c, 2, 44, 0
11, 40064, Note_on_c, 2, 46, 0
11, 40076, Note_on_c, 2, 48, 98
11, 40314, Note_on_c, 2, 48, 0
11, 40319, Note_on_c, 2, 53, 98
11, 40430, Note_on_c, 2, 53, 0
11, 64079, Note_on_c, 2, 55, 98
11, 64605, Note_on_c, 2, 52, 88
11, 64608, Note_on_c, 2, 55, 0
11, 64662, Note_on_c, 2, 53, 88
11, 64667, Note_on_c, 2, 52, 0
11, 64725, Note_on_c, 2, 50, 88
11, 64727, Note_on_c, 2, 53, 0
11, 64792, Note_on_c, 2, 50, 0
11, 64795, Note_on_c, 2, 48, 88
11, 64847, Note_on_c, 2, 48, 0
11, 64847, End_track
12, 0, Start_track
12, 0, MIDI_port, 0
12, 0, Title_t, "sequenced by Michael Petri"
12, 0, End_track
0, 0, End_of_file