0, 0, Header, 1, 14, 480
1, 0, Start_track
1, 0, Time_signature, 6, 3, 12, 8
1, 0, Tempo, 714285
1, 1440, Tempo, 1428571
1, 51840, Tempo, 1500000
1, 52080, Tempo, 1500000
1, 52320, Tempo, 1500000
1, 52560, Tempo, 1500000
1, 52800, Tempo, 1578947
1, 53040, Tempo, 1578947
1, 53280, Tempo, 1395348
1, 93840, Tempo, 1395348
1, 94080, Tempo, 1395348
1, 94320, Tempo, 1395348
1, 94560, Tempo, 1428571
1, 94800, Tempo, 1428571
1, 95040, Time_signature, 1, 5, 3, 8
1, 95100, Time_signature, 6, 3, 12, 8
1, 127020, Tempo, 1428571
1, 127260, Tempo, 1500000
1, 127500, Tempo, 1500000
1, 127740, Tempo, 1500000
1, 127980, Tempo, 1578947
1, 128220, Tempo, 1578947
1, 129660, Tempo, 1428571
1, 149820, Tempo, 1578947
1, 150060, Tempo, 1578947
1, 150300, Tempo, 1666666
1, 150540, Tempo, 1666666
1, 150780, Tempo, 1666666
1, 151020, Tempo, 1764705
1, 151260, Tempo, 705882
1, 151260, End_track
2, 0, Start_track
2, 0, Sequencer_specific, 04, 43, 00, 01, 00
2, 0, Program_c, 0, 68
2, 0, Control_c, 0, 7, 89
2, 0, Control_c, 0, 10, 64
2, 0, Control_c, 0, 91, 70
2, 7200, Note_on_c, 0, 76, 78
2, 7200, Note_on_c, 0, 70, 58
2, 8640, Note_on_c, 0, 70, 0
2, 8640, Note_on_c, 0, 76, 0
2, 8640, Note_on_c, 0, 69, 58
2, 8640, Note_on_c, 0, 77, 58
2, 9792, Note_on_c, 0, 77, 0
2, 9792, Note_on_c, 0, 69, 0
2, 10080, Note_on_c, 0, 76, 78
2, 10080, Note_on_c, 0, 70, 58
2, 11520, Note_on_c, 0, 70, 0
2, 11520, Note_on_c, 0, 76, 0
2, 11520, Note_on_c, 0, 77, 58
2, 11520, Note_on_c, 0, 69, 58
2, 12672, Note_on_c, 0, 69, 0
2, 12672, Note_on_c, 0, 77, 0
2, 14400, Note_on_c, 0, 82, 58
2, 14400, Note_on_c, 0, 79, 70
2, 15120, Note_on_c, 0, 79, 0
2, 15120, Note_on_c, 0, 82, 0
2, 15120, Note_on_c, 0, 77, 80
2, 15120, Note_on_c, 0, 81, 80
2, 15312, Note_on_c, 0, 81, 0
2, 15312, Note_on_c, 0, 77, 0
2, 15840, Note_on_c, 0, 77, 80
2, 17040, Note_on_c, 0, 77, 0
2, 17040, Note_on_c, 0, 76, 92
2, 17040, Note_on_c, 0, 81, 92
2, 17160, Note_on_c, 0, 81, 0
2, 17160, Note_on_c, 0, 79, 92
2, 17256, Note_on_c, 0, 79, 0
2, 17256, Note_on_c, 0, 76, 0
2, 17280, Note_on_c, 0, 77, 92
2, 17424, Note_on_c, 0, 77, 0
2, 17520, Note_on_c, 0, 72, 92
2, 17520, Note_on_c, 0, 69, 92
2, 17664, Note_on_c, 0, 69, 0
2, 17664, Note_on_c, 0, 72, 0
2, 17760, Note_on_c, 0, 72, 92
2, 17760, Note_on_c, 0, 81, 92
2, 17904, Note_on_c, 0, 81, 0
2, 17904, Note_on_c, 0, 72, 0
2, 18000, Note_on_c, 0, 77, 92
2, 18000, Note_on_c, 0, 69, 92
2, 18144, Note_on_c, 0, 69, 0
2, 18144, Note_on_c, 0, 77, 0
2, 23760, Note_on_c, 0, 67, 92
2, 24216, Note_on_c, 0, 67, 0
2, 25200, Note_on_c, 0, 67, 92
2, 25656, Note_on_c, 0, 67, 0
2, 27360, Note_on_c, 0, 84, 92
2, 27360, Note_on_c, 0, 79, 92
2, 28080, Note_on_c, 0, 79, 0
2, 28080, Note_on_c, 0, 84, 0
2, 28080, Note_on_c, 0, 82, 92
2, 28080, Note_on_c, 0, 72, 92
2, 28764, Note_on_c, 0, 72, 0
2, 28764, Note_on_c, 0, 82, 0
2, 28800, Note_on_c, 0, 81, 92
2, 28800, Note_on_c, 0, 72, 92
2, 28992, Note_on_c, 0, 72, 0
2, 28992, Note_on_c, 0, 81, 0
2, 32400, Note_on_c, 0, 67, 58
2, 32400, Note_on_c, 0, 79, 58
2, 35136, Note_on_c, 0, 79, 0
2, 35136, Note_on_c, 0, 67, 0
2, 36000, Note_on_c, 0, 72, 58
2, 36000, Note_on_c, 0, 79, 92
2, 36720, Note_on_c, 0, 79, 0
2, 36720, Note_on_c, 0, 72, 0
2, 36720, Note_on_c, 0, 70, 92
2, 36720, Note_on_c, 0, 72, 92
2, 37404, Note_on_c, 0, 72, 0
2, 37404, Note_on_c, 0, 70, 0
2, 37440, Note_on_c, 0, 72, 92
2, 37440, Note_on_c, 0, 69, 92
2, 37632, Note_on_c, 0, 69, 0
2, 37632, Note_on_c, 0, 72, 0
2, 40560, Note_on_c, 0, 68, 92
2, 40560, Note_on_c, 0, 80, 92
2, 40800, Note_on_c, 0, 80, 0
2, 40800, Note_on_c, 0, 68, 0
2, 40800, Note_on_c, 0, 67, 92
2, 40800, Note_on_c, 0, 79, 92
2, 40992, Note_on_c, 0, 79, 0
2, 40992, Note_on_c, 0, 67, 0
2, 41280, Note_on_c, 0, 79, 92
2, 41280, Note_on_c, 0, 67, 92
2, 41520, Note_on_c, 0, 67, 0
2, 41520, Note_on_c, 0, 79, 0
2, 41520, Note_on_c, 0, 78, 92
2, 41520, Note_on_c, 0, 66, 92
2, 41712, Note_on_c, 0, 66, 0
2, 41712, Note_on_c, 0, 78, 0
2, 41760, Note_on_c, 0, 74, 92
2, 41760, Note_on_c, 0, 77, 92
2, 41820, Note_on_c, 0, 77, 0
2, 41820, Note_on_c, 0, 74, 0
2, 41820, Note_on_c, 0, 76, 70
2, 41820, Note_on_c, 0, 79, 70
2, 41880, Note_on_c, 0, 79, 0
2, 41880, Note_on_c, 0, 76, 0
2, 41880, Note_on_c, 0, 77, 70
2, 41880, Note_on_c, 0, 81, 70
2, 41976, Note_on_c, 0, 81, 0
2, 41976, Note_on_c, 0, 77, 0
2, 42240, Note_on_c, 0, 79, 70
2, 42240, Note_on_c, 0, 76, 70
2, 42432, Note_on_c, 0, 76, 0
2, 42432, Note_on_c, 0, 79, 0
2, 42480, Note_on_c, 0, 79, 70
2, 42480, Note_on_c, 0, 76, 70
2, 42600, Note_on_c, 0, 76, 0
2, 42600, Note_on_c, 0, 79, 0
2, 42600, Note_on_c, 0, 74, 70
2, 42600, Note_on_c, 0, 77, 70
2, 42690, Note_on_c, 0, 77, 0
2, 42690, Note_on_c, 0, 74, 0
2, 42720, Note_on_c, 0, 72, 70
2, 42720, Note_on_c, 0, 76, 70
2, 42888, Note_on_c, 0, 76, 0
2, 42888, Note_on_c, 0, 72, 0
2, 42960, Note_on_c, 0, 74, 70
2, 42960, Note_on_c, 0, 71, 70
2, 43128, Note_on_c, 0, 71, 0
2, 43128, Note_on_c, 0, 74, 0
2, 43440, Note_on_c, 0, 80, 92
2, 43440, Note_on_c, 0, 68, 92
2, 43680, Note_on_c, 0, 68, 0
2, 43680, Note_on_c, 0, 80, 0
2, 43680, Note_on_c, 0, 67, 92
2, 43680, Note_on_c, 0, 79, 92
2, 43872, Note_on_c, 0, 79, 0
2, 43872, Note_on_c, 0, 67, 0
2, 44160, Note_on_c, 0, 79, 92
2, 44160, Note_on_c, 0, 67, 92
2, 44400, Note_on_c, 0, 67, 0
2, 44400, Note_on_c, 0, 79, 0
2, 44400, Note_on_c, 0, 78, 92
2, 44400, Note_on_c, 0, 66, 92
2, 44592, Note_on_c, 0, 66, 0
2, 44592, Note_on_c, 0, 78, 0
2, 44640, Note_on_c, 0, 74, 70
2, 44640, Note_on_c, 0, 77, 70
2, 44700, Note_on_c, 0, 77, 0
2, 44700, Note_on_c, 0, 74, 0
2, 44700, Note_on_c, 0, 76, 70
2, 44700, Note_on_c, 0, 79, 70
2, 44760, Note_on_c, 0, 79, 0
2, 44760, Note_on_c, 0, 76, 0
2, 44760, Note_on_c, 0, 81, 70
2, 44760, Note_on_c, 0, 77, 70
2, 44856, Note_on_c, 0, 77, 0
2, 44856, Note_on_c, 0, 81, 0
2, 45120, Note_on_c, 0, 76, 70
2, 45120, Note_on_c, 0, 79, 70
2, 45312, Note_on_c, 0, 79, 0
2, 45312, Note_on_c, 0, 76, 0
2, 45360, Note_on_c, 0, 79, 70
2, 45360, Note_on_c, 0, 76, 70
2, 45480, Note_on_c, 0, 76, 0
2, 45480, Note_on_c, 0, 79, 0
2, 45480, Note_on_c, 0, 74, 70
2, 45480, Note_on_c, 0, 77, 70
2, 45570, Note_on_c, 0, 77, 0
2, 45570, Note_on_c, 0, 74, 0
2, 45600, Note_on_c, 0, 72, 70
2, 45600, Note_on_c, 0, 76, 70
2, 45768, Note_on_c, 0, 76, 0
2, 45768, Note_on_c, 0, 72, 0
2, 45840, Note_on_c, 0, 74, 70
2, 45840, Note_on_c, 0, 71, 70
2, 46008, Note_on_c, 0, 71, 0
2, 46008, Note_on_c, 0, 74, 0
2, 46080, Note_on_c, 0, 72, 58
2, 46464, Note_on_c, 0, 72, 0
2, 47520, Note_on_c, 0, 71, 58
2, 47520, Note_on_c, 0, 77, 92
2, 48240, Note_on_c, 0, 71, 0
2, 48240, Note_on_c, 0, 74, 92
2, 48960, Note_on_c, 0, 74, 0
2, 48960, Note_on_c, 0, 77, 0
2, 48960, Note_on_c, 0, 72, 92
2, 48960, Note_on_c, 0, 76, 92
2, 49344, Note_on_c, 0, 76, 0
2, 49344, Note_on_c, 0, 72, 0
2, 50400, Note_on_c, 0, 71, 92
2, 50400, Note_on_c, 0, 77, 58
2, 51120, Note_on_c, 0, 71, 0
2, 51120, Note_on_c, 0, 74, 58
2, 51840, Note_on_c, 0, 74, 0
2, 51840, Note_on_c, 0, 77, 0
2, 51840, Note_on_c, 0, 72, 58
2, 51840, Note_on_c, 0, 76, 58
2, 52008, Note_on_c, 0, 76, 0
2, 52008, Note_on_c, 0, 72, 0
2, 52080, Note_on_c, 0, 84, 58
2, 52080, Note_on_c, 0, 76, 58
2, 52248, Note_on_c, 0, 76, 0
2, 52248, Note_on_c, 0, 84, 0
2, 52320, Note_on_c, 0, 84, 58
2, 52320, Note_on_c, 0, 76, 58
2, 52488, Note_on_c, 0, 76, 0
2, 52488, Note_on_c, 0, 84, 0
2, 52560, Note_on_c, 0, 76, 58
2, 52560, Note_on_c, 0, 84, 58
2, 52728, Note_on_c, 0, 84, 0
2, 52728, Note_on_c, 0, 76, 0
2, 59280, Note_on_c, 0, 76, 58
2, 59280, Note_on_c, 0, 84, 58
2, 59472, Note_on_c, 0, 84, 0
2, 59472, Note_on_c, 0, 76, 0
2, 59520, Note_on_c, 0, 76, 58
2, 59520, Note_on_c, 0, 84, 58
2, 59712, Note_on_c, 0, 84, 0
2, 59712, Note_on_c, 0, 76, 0
2, 59760, Note_on_c, 0, 84, 58
2, 59760, Note_on_c, 0, 76, 58
2, 59952, Note_on_c, 0, 76, 0
2, 59952, Note_on_c, 0, 84, 0
2, 60000, Note_on_c, 0, 84, 58
2, 60000, Note_on_c, 0, 76, 58
2, 60192, Note_on_c, 0, 76, 0
2, 60192, Note_on_c, 0, 84, 0
2, 60240, Note_on_c, 0, 76, 58
2, 60240, Note_on_c, 0, 84, 58
2, 60432, Note_on_c, 0, 84, 0
2, 60432, Note_on_c, 0, 76, 0
2, 60480, Note_on_c, 0, 83, 92
2, 60480, Note_on_c, 0, 74, 92
2, 61920, Note_on_c, 0, 74, 0
2, 61920, Note_on_c, 0, 83, 0
2, 61920, Note_on_c, 0, 76, 92
2, 61920, Note_on_c, 0, 84, 92
2, 62112, Note_on_c, 0, 84, 0
2, 62112, Note_on_c, 0, 76, 0
2, 62160, Note_on_c, 0, 76, 92
2, 62160, Note_on_c, 0, 84, 92
2, 62352, Note_on_c, 0, 84, 0
2, 62352, Note_on_c, 0, 76, 0
2, 62400, Note_on_c, 0, 84, 92
2, 62400, Note_on_c, 0, 76, 92
2, 62592, Note_on_c, 0, 76, 0
2, 62592, Note_on_c, 0, 84, 0
2, 62640, Note_on_c, 0, 76, 92
2, 62640, Note_on_c, 0, 84, 92
2, 62832, Note_on_c, 0, 84, 0
2, 62832, Note_on_c, 0, 76, 0
2, 62880, Note_on_c, 0, 76, 92
2, 62880, Note_on_c, 0, 84, 92
2, 63072, Note_on_c, 0, 84, 0
2, 63072, Note_on_c, 0, 76, 0
2, 63120, Note_on_c, 0, 84, 92
2, 63120, Note_on_c, 0, 76, 92
2, 63312, Note_on_c, 0, 76, 0
2, 63312, Note_on_c, 0, 84, 0
2, 63360, Note_on_c, 0, 83, 92
2, 63360, Note_on_c, 0, 74, 92
2, 64800, Note_on_c, 0, 74, 0
2, 64800, Note_on_c, 0, 83, 0
2, 64800, Note_on_c, 0, 76, 92
2, 64800, Note_on_c, 0, 84, 92
2, 64992, Note_on_c, 0, 84, 0
2, 64992, Note_on_c, 0, 76, 0
2, 74160, Note_on_c, 0, 73, 78
2, 74160, Note_on_c, 0, 70, 58
2, 74880, Note_on_c, 0, 73, 0
2, 74880, Note_on_c, 0, 72, 58
2, 75072, Note_on_c, 0, 72, 0
2, 75072, Note_on_c, 0, 70, 0
2, 77040, Note_on_c, 0, 67, 58
2, 77040, Note_on_c, 0, 70, 78
2, 77760, Note_on_c, 0, 70, 0
2, 77760, Note_on_c, 0, 67, 0
2, 77760, Note_on_c, 0, 72, 58
2, 77760, Note_on_c, 0, 68, 58
2, 78444, Note_on_c, 0, 68, 0
2, 78444, Note_on_c, 0, 72, 0
2, 78480, Note_on_c, 0, 75, 70
2, 78480, Note_on_c, 0, 72, 70
2, 78600, Note_on_c, 0, 72, 0
2, 78600, Note_on_c, 0, 75, 0
2, 78600, Note_on_c, 0, 70, 70
2, 78600, Note_on_c, 0, 73, 70
2, 78720, Note_on_c, 0, 73, 0
2, 78720, Note_on_c, 0, 70, 0
2, 78720, Note_on_c, 0, 72, 70
2, 78720, Note_on_c, 0, 68, 70
2, 78960, Note_on_c, 0, 68, 0
2, 78960, Note_on_c, 0, 72, 0
2, 78960, Note_on_c, 0, 67, 70
2, 78960, Note_on_c, 0, 70, 70
2, 79176, Note_on_c, 0, 70, 0
2, 79176, Note_on_c, 0, 67, 0
2, 79200, Note_on_c, 0, 68, 70
2, 79392, Note_on_c, 0, 68, 0
2, 80640, Note_on_c, 0, 75, 70
2, 80640, Note_on_c, 0, 78, 70
2, 81360, Note_on_c, 0, 78, 0
2, 81360, Note_on_c, 0, 77, 70
2, 82080, Note_on_c, 0, 75, 0
2, 82080, Note_on_c, 0, 74, 70
2, 82272, Note_on_c, 0, 74, 0
2, 82272, Note_on_c, 0, 77, 0
2, 83520, Note_on_c, 0, 80, 70
2, 83520, Note_on_c, 0, 77, 70
2, 84240, Note_on_c, 0, 80, 0
2, 84240, Note_on_c, 0, 79, 70
2, 84960, Note_on_c, 0, 77, 0
2, 84960, Note_on_c, 0, 76, 70
2, 85152, Note_on_c, 0, 76, 0
2, 85152, Note_on_c, 0, 79, 0
2, 88080, Note_on_c, 0, 84, 70
2, 88080, Note_on_c, 0, 80, 70
2, 88320, Note_on_c, 0, 80, 0
2, 88320, Note_on_c, 0, 84, 0
2, 88320, Note_on_c, 0, 79, 70
2, 88320, Note_on_c, 0, 82, 70
2, 88800, Note_on_c, 0, 82, 0
2, 88800, Note_on_c, 0, 79, 0
2, 88800, Note_on_c, 0, 80, 70
2, 88800, Note_on_c, 0, 77, 70
2, 89040, Note_on_c, 0, 77, 0
2, 89040, Note_on_c, 0, 80, 0
2, 89040, Note_on_c, 0, 79, 70
2, 89040, Note_on_c, 0, 76, 70
2, 89520, Note_on_c, 0, 76, 0
2, 89520, Note_on_c, 0, 79, 0
2, 89520, Note_on_c, 0, 77, 70
2, 89760, Note_on_c, 0, 77, 0
2, 89760, Note_on_c, 0, 77, 70
2, 89760, Note_on_c, 0, 79, 70
2, 89952, Note_on_c, 0, 79, 0
2, 89952, Note_on_c, 0, 77, 0
2, 90000, Note_on_c, 0, 77, 70
2, 90000, Note_on_c, 0, 79, 70
2, 90384, Note_on_c, 0, 79, 0
2, 90480, Note_on_c, 0, 82, 70
2, 90576, Note_on_c, 0, 82, 0
2, 90600, Note_on_c, 0, 80, 70
2, 90696, Note_on_c, 0, 80, 0
2, 90696, Note_on_c, 0, 77, 0
2, 90720, Note_on_c, 0, 76, 70
2, 90720, Note_on_c, 0, 79, 70
2, 90912, Note_on_c, 0, 79, 0
2, 90912, Note_on_c, 0, 76, 0
2, 91200, Note_on_c, 0, 77, 70
2, 91200, Note_on_c, 0, 80, 70
2, 91440, Note_on_c, 0, 80, 0
2, 91440, Note_on_c, 0, 77, 0
2, 91440, Note_on_c, 0, 76, 70
2, 91440, Note_on_c, 0, 79, 70
2, 91632, Note_on_c, 0, 79, 0
2, 91632, Note_on_c, 0, 76, 0
2, 91920, Note_on_c, 0, 80, 70
2, 91920, Note_on_c, 0, 77, 70
2, 92112, Note_on_c, 0, 77, 0
2, 92112, Note_on_c, 0, 80, 0
2, 92160, Note_on_c, 0, 76, 70
2, 92160, Note_on_c, 0, 79, 70
2, 92352, Note_on_c, 0, 79, 0
2, 92352, Note_on_c, 0, 76, 0
2, 100860, Note_on_c, 0, 76, 78
2, 100860, Note_on_c, 0, 70, 58
2, 102300, Note_on_c, 0, 70, 0
2, 102300, Note_on_c, 0, 76, 0
2, 102300, Note_on_c, 0, 77, 58
2, 102300, Note_on_c, 0, 69, 58
2, 103668, Note_on_c, 0, 69, 0
2, 103668, Note_on_c, 0, 77, 0
2, 103740, Note_on_c, 0, 70, 58
2, 103740, Note_on_c, 0, 76, 78
2, 105180, Note_on_c, 0, 76, 0
2, 105180, Note_on_c, 0, 70, 0
2, 105180, Note_on_c, 0, 69, 58
2, 105180, Note_on_c, 0, 77, 58
2, 106548, Note_on_c, 0, 77, 0
2, 106548, Note_on_c, 0, 69, 0
2, 108060, Note_on_c, 0, 79, 70
2, 108060, Note_on_c, 0, 82, 70
2, 108780, Note_on_c, 0, 82, 0
2, 108780, Note_on_c, 0, 79, 0
2, 108780, Note_on_c, 0, 77, 80
2, 108780, Note_on_c, 0, 81, 80
2, 108972, Note_on_c, 0, 81, 0
2, 108972, Note_on_c, 0, 77, 0
2, 109500, Note_on_c, 0, 77, 80
2, 110700, Note_on_c, 0, 77, 0
2, 110700, Note_on_c, 0, 76, 92
2, 110700, Note_on_c, 0, 81, 92
2, 110820, Note_on_c, 0, 81, 0
2, 110820, Note_on_c, 0, 79, 92
2, 110916, Note_on_c, 0, 79, 0
2, 110916, Note_on_c, 0, 76, 0
2, 110940, Note_on_c, 0, 77, 92
2, 111084, Note_on_c, 0, 77, 0
2, 111180, Note_on_c, 0, 69, 92
2, 111180, Note_on_c, 0, 72, 92
2, 111324, Note_on_c, 0, 72, 0
2, 111324, Note_on_c, 0, 69, 0
2, 111420, Note_on_c, 0, 72, 92
2, 111420, Note_on_c, 0, 81, 92
2, 111564, Note_on_c, 0, 81, 0
2, 111564, Note_on_c, 0, 72, 0
2, 111660, Note_on_c, 0, 77, 92
2, 111660, Note_on_c, 0, 69, 92
2, 111804, Note_on_c, 0, 69, 0
2, 111804, Note_on_c, 0, 77, 0
2, 113820, Note_on_c, 0, 84, 105
2, 113820, Note_on_c, 0, 81, 105
2, 113964, Note_on_c, 0, 81, 0
2, 113964, Note_on_c, 0, 84, 0
2, 114060, Note_on_c, 0, 81, 105
2, 114060, Note_on_c, 0, 84, 105
2, 114204, Note_on_c, 0, 84, 0
2, 114204, Note_on_c, 0, 81, 0
2, 114300, Note_on_c, 0, 81, 105
2, 114300, Note_on_c, 0, 84, 105
2, 114444, Note_on_c, 0, 84, 0
2, 114444, Note_on_c, 0, 81, 0
2, 114540, Note_on_c, 0, 81, 105
2, 114540, Note_on_c, 0, 84, 105
2, 114684, Note_on_c, 0, 84, 0
2, 114684, Note_on_c, 0, 81, 0
2, 120300, Note_on_c, 0, 72, 92
2, 120756, Note_on_c, 0, 72, 0
2, 121740, Note_on_c, 0, 72, 92
2, 122196, Note_on_c, 0, 72, 0
2, 123900, Note_on_c, 0, 77, 92
2, 123900, Note_on_c, 0, 72, 92
2, 124620, Note_on_c, 0, 72, 0
2, 124620, Note_on_c, 0, 75, 92
2, 125340, Note_on_c, 0, 75, 0
2, 125340, Note_on_c, 0, 77, 0
2, 125340, Note_on_c, 0, 74, 92
2, 125340, Note_on_c, 0, 77, 92
2, 125532, Note_on_c, 0, 77, 0
2, 125532, Note_on_c, 0, 74, 0
2, 129660, Note_on_c, 0, 72, 92
2, 129660, Note_on_c, 0, 84, 58
2, 133116, Note_on_c, 0, 84, 0
2, 133116, Note_on_c, 0, 72, 0
2, 133980, Note_on_c, 0, 77, 92
2, 133980, Note_on_c, 0, 72, 92
2, 134700, Note_on_c, 0, 72, 0
2, 134700, Note_on_c, 0, 75, 92
2, 135420, Note_on_c, 0, 75, 0
2, 135420, Note_on_c, 0, 77, 0
2, 135420, Note_on_c, 0, 74, 80
2, 135420, Note_on_c, 0, 77, 80
2, 135612, Note_on_c, 0, 77, 0
2, 135612, Note_on_c, 0, 74, 0
2, 138540, Note_on_c, 0, 73, 80
2, 138540, Note_on_c, 0, 85, 92
2, 138780, Note_on_c, 0, 85, 0
2, 138780, Note_on_c, 0, 73, 0
2, 138780, Note_on_c, 0, 74, 92
2, 138780, Note_on_c, 0, 86, 92
2, 138972, Note_on_c, 0, 86, 0
2, 138972, Note_on_c, 0, 74, 0
2, 139260, Note_on_c, 0, 66, 92
2, 139260, Note_on_c, 0, 78, 92
2, 139500, Note_on_c, 0, 78, 0
2, 139500, Note_on_c, 0, 66, 0
2, 139500, Note_on_c, 0, 67, 92
2, 139500, Note_on_c, 0, 79, 92
2, 139692, Note_on_c, 0, 79, 0
2, 139692, Note_on_c, 0, 67, 0
2, 139740, Note_on_c, 0, 70, 92
2, 139740, Note_on_c, 0, 79, 92
2, 139800, Note_on_c, 0, 79, 0
2, 139800, Note_on_c, 0, 70, 0
2, 139800, Note_on_c, 0, 72, 70
2, 139800, Note_on_c, 0, 81, 70
2, 139860, Note_on_c, 0, 81, 0
2, 139860, Note_on_c, 0, 72, 0
2, 139860, Note_on_c, 0, 74, 70
2, 139860, Note_on_c, 0, 82, 70
2, 139956, Note_on_c, 0, 82, 0
2, 139956, Note_on_c, 0, 74, 0
2, 140220, Note_on_c, 0, 81, 70
2, 140220, Note_on_c, 0, 72, 70
2, 140412, Note_on_c, 0, 72, 0
2, 140412, Note_on_c, 0, 81, 0
2, 140460, Note_on_c, 0, 81, 70
2, 140460, Note_on_c, 0, 72, 70
2, 140580, Note_on_c, 0, 72, 0
2, 140580, Note_on_c, 0, 81, 0
2, 140580, Note_on_c, 0, 70, 70
2, 140580, Note_on_c, 0, 79, 70
2, 140670, Note_on_c, 0, 79, 0
2, 140670, Note_on_c, 0, 70, 0
2, 140700, Note_on_c, 0, 69, 70
2, 140700, Note_on_c, 0, 77, 70
2, 140880, Note_on_c, 0, 77, 0
2, 140880, Note_on_c, 0, 69, 0
2, 140940, Note_on_c, 0, 76, 70
2, 140940, Note_on_c, 0, 67, 70
2, 141120, Note_on_c, 0, 67, 0
2, 141120, Note_on_c, 0, 76, 0
2, 141420, Note_on_c, 0, 85, 92
2, 141420, Note_on_c, 0, 73, 92
2, 141660, Note_on_c, 0, 73, 0
2, 141660, Note_on_c, 0, 85, 0
2, 141660, Note_on_c, 0, 74, 92
2, 141660, Note_on_c, 0, 86, 92
2, 141852, Note_on_c, 0, 86, 0
2, 141852, Note_on_c, 0, 74, 0
2, 142140, Note_on_c, 0, 66, 92
2, 142140, Note_on_c, 0, 78, 92
2, 142380, Note_on_c, 0, 78, 0
2, 142380, Note_on_c, 0, 66, 0
2, 142380, Note_on_c, 0, 67, 92
2, 142380, Note_on_c, 0, 79, 92
2, 142572, Note_on_c, 0, 79, 0
2, 142572, Note_on_c, 0, 67, 0
2, 142620, Note_on_c, 0, 70, 70
2, 142620, Note_on_c, 0, 79, 70
2, 142680, Note_on_c, 0, 79, 0
2, 142680, Note_on_c, 0, 70, 0
2, 142680, Note_on_c, 0, 81, 70
2, 142680, Note_on_c, 0, 72, 70
2, 142740, Note_on_c, 0, 72, 0
2, 142740, Note_on_c, 0, 81, 0
2, 142740, Note_on_c, 0, 82, 70
2, 142740, Note_on_c, 0, 74, 70
2, 142836, Note_on_c, 0, 74, 0
2, 142836, Note_on_c, 0, 82, 0
2, 143100, Note_on_c, 0, 72, 70
2, 143100, Note_on_c, 0, 81, 70
2, 143292, Note_on_c, 0, 81, 0
2, 143292, Note_on_c, 0, 72, 0
2, 143340, Note_on_c, 0, 81, 70
2, 143340, Note_on_c, 0, 72, 70
2, 143460, Note_on_c, 0, 72, 0
2, 143460, Note_on_c, 0, 81, 0
2, 143460, Note_on_c, 0, 70, 70
2, 143460, Note_on_c, 0, 79, 70
2, 143550, Note_on_c, 0, 79, 0
2, 143550, Note_on_c, 0, 70, 0
2, 143580, Note_on_c, 0, 69, 70
2, 143580, Note_on_c, 0, 77, 70
2, 143760, Note_on_c, 0, 77, 0
2, 143760, Note_on_c, 0, 69, 0
2, 143820, Note_on_c, 0, 76, 70
2, 143820, Note_on_c, 0, 67, 70
2, 144000, Note_on_c, 0, 67, 0
2, 144000, Note_on_c, 0, 76, 0
2, 144060, Note_on_c, 0, 77, 58
2, 144060, Note_on_c, 0, 65, 58
2, 144444, Note_on_c, 0, 65, 0
2, 144444, Note_on_c, 0, 77, 0
2, 145500, Note_on_c, 0, 79, 92
2, 145500, Note_on_c, 0, 76, 92
2, 146220, Note_on_c, 0, 79, 0
2, 146220, Note_on_c, 0, 82, 92
2, 146940, Note_on_c, 0, 82, 0
2, 146940, Note_on_c, 0, 81, 92
2, 147324, Note_on_c, 0, 81, 0
2, 147324, Note_on_c, 0, 76, 0
2, 148380, Note_on_c, 0, 70, 58
2, 148380, Note_on_c, 0, 76, 58
2, 149100, Note_on_c, 0, 76, 0
2, 149100, Note_on_c, 0, 79, 58
2, 149784, Note_on_c, 0, 79, 0
2, 149784, Note_on_c, 0, 70, 0
2, 149820, Note_on_c, 0, 69, 58
2, 149820, Note_on_c, 0, 77, 58
2, 149988, Note_on_c, 0, 77, 0
2, 149988, Note_on_c, 0, 69, 0
2, 150060, Note_on_c, 0, 77, 58
2, 150060, Note_on_c, 0, 69, 58
2, 150228, Note_on_c, 0, 69, 0
2, 150228, Note_on_c, 0, 77, 0
2, 150300, Note_on_c, 0, 69, 58
2, 150300, Note_on_c, 0, 77, 58
2, 150468, Note_on_c, 0, 77, 0
2, 150468, Note_on_c, 0, 69, 0
2, 150540, Note_on_c, 0, 69, 58
2, 150540, Note_on_c, 0, 77, 58
2, 150756, Note_on_c, 0, 77, 0
2, 150756, Note_on_c, 0, 69, 0
2, 150756, End_track
3, 0, Start_track
3, 0, Sequencer_specific, 04, 43, 00, 01, 00
3, 0, Program_c, 1, 70
3, 0, Control_c, 1, 7, 90
3, 0, Control_c, 1, 91, 70
3, 0, Control_c, 1, 10, 72
3, 7200, Note_on_c, 1, 64, 78
3, 7200, Note_on_c, 1, 58, 58
3, 8640, Note_on_c, 1, 58, 0
3, 8640, Note_on_c, 1, 64, 0
3, 8640, Note_on_c, 1, 57, 58
3, 8640, Note_on_c, 1, 65, 58
3, 9792, Note_on_c, 1, 65, 0
3, 9792, Note_on_c, 1, 57, 0
3, 10080, Note_on_c, 1, 64, 78
3, 10080, Note_on_c, 1, 58, 58
3, 11520, Note_on_c, 1, 58, 0
3, 11520, Note_on_c, 1, 64, 0
3, 11520, Note_on_c, 1, 65, 58
3, 11520, Note_on_c, 1, 57, 58
3, 12672, Note_on_c, 1, 57, 0
3, 12672, Note_on_c, 1, 65, 0
3, 12960, Note_on_c, 1, 58, 70
3, 13680, Note_on_c, 1, 58, 0
3, 13680, Note_on_c, 1, 55, 70
3, 14364, Note_on_c, 1, 55, 0
3, 14400, Note_on_c, 1, 52, 70
3, 15120, Note_on_c, 1, 52, 0
3, 15120, Note_on_c, 1, 53, 80
3, 15312, Note_on_c, 1, 53, 0
3, 15840, Note_on_c, 1, 48, 80
3, 16032, Note_on_c, 1, 48, 0
3, 16080, Note_on_c, 1, 48, 92
3, 16272, Note_on_c, 1, 48, 0
3, 16320, Note_on_c, 1, 48, 92
3, 16512, Note_on_c, 1, 48, 0
3, 16560, Note_on_c, 1, 48, 92
3, 16752, Note_on_c, 1, 48, 0
3, 16800, Note_on_c, 1, 48, 92
3, 16992, Note_on_c, 1, 48, 0
3, 17040, Note_on_c, 1, 48, 92
3, 17232, Note_on_c, 1, 48, 0
3, 17280, Note_on_c, 1, 53, 92
3, 17424, Note_on_c, 1, 53, 0
3, 17520, Note_on_c, 1, 53, 92
3, 17664, Note_on_c, 1, 53, 0
3, 17760, Note_on_c, 1, 53, 92
3, 17904, Note_on_c, 1, 53, 0
3, 18000, Note_on_c, 1, 53, 92
3, 18144, Note_on_c, 1, 53, 0
3, 23760, Note_on_c, 1, 43, 92
3, 23760, Note_on_c, 1, 55, 92
3, 24216, Note_on_c, 1, 55, 0
3, 24216, Note_on_c, 1, 43, 0
3, 25200, Note_on_c, 1, 55, 92
3, 25200, Note_on_c, 1, 43, 92
3, 25656, Note_on_c, 1, 43, 0
3, 25656, Note_on_c, 1, 55, 0
3, 27360, Note_on_c, 1, 52, 92
3, 27552, Note_on_c, 1, 52, 0
3, 27600, Note_on_c, 1, 52, 92
3, 27792, Note_on_c, 1, 52, 0
3, 27840, Note_on_c, 1, 52, 92
3, 28032, Note_on_c, 1, 52, 0
3, 28080, Note_on_c, 1, 52, 92
3, 28272, Note_on_c, 1, 52, 0
3, 28320, Note_on_c, 1, 52, 92
3, 28512, Note_on_c, 1, 52, 0
3, 28560, Note_on_c, 1, 52, 92
3, 28752, Note_on_c, 1, 52, 0
3, 28800, Note_on_c, 1, 53, 92
3, 28992, Note_on_c, 1, 53, 0
3, 36000, Note_on_c, 1, 52, 92
3, 36192, Note_on_c, 1, 52, 0
3, 36240, Note_on_c, 1, 52, 92
3, 36432, Note_on_c, 1, 52, 0
3, 36480, Note_on_c, 1, 52, 92
3, 36672, Note_on_c, 1, 52, 0
3, 36720, Note_on_c, 1, 52, 92
3, 36912, Note_on_c, 1, 52, 0
3, 36960, Note_on_c, 1, 52, 92
3, 37152, Note_on_c, 1, 52, 0
3, 37200, Note_on_c, 1, 52, 92
3, 37392, Note_on_c, 1, 52, 0
3, 37440, Note_on_c, 1, 53, 92
3, 37632, Note_on_c, 1, 53, 0
3, 40320, Note_on_c, 1, 62, 92
3, 40320, Note_on_c, 1, 65, 92
3, 40800, Note_on_c, 1, 65, 0
3, 40800, Note_on_c, 1, 62, 0
3, 40800, Note_on_c, 1, 64, 92
3, 40800, Note_on_c, 1, 61, 92
3, 40992, Note_on_c, 1, 61, 0
3, 40992, Note_on_c, 1, 64, 0
3, 41040, Note_on_c, 1, 67, 92
3, 41040, Note_on_c, 1, 64, 92
3, 41520, Note_on_c, 1, 64, 0
3, 41520, Note_on_c, 1, 67, 0
3, 41520, Note_on_c, 1, 62, 92
3, 41520, Note_on_c, 1, 66, 92
3, 41712, Note_on_c, 1, 66, 0
3, 41712, Note_on_c, 1, 62, 0
3, 43200, Note_on_c, 1, 62, 92
3, 43200, Note_on_c, 1, 65, 92
3, 43680, Note_on_c, 1, 65, 0
3, 43680, Note_on_c, 1, 62, 0
3, 43680, Note_on_c, 1, 61, 92
3, 43680, Note_on_c, 1, 64, 92
3, 43872, Note_on_c, 1, 64, 0
3, 43872, Note_on_c, 1, 61, 0
3, 43920, Note_on_c, 1, 67, 92
3, 43920, Note_on_c, 1, 64, 92
3, 44400, Note_on_c, 1, 64, 0
3, 44400, Note_on_c, 1, 67, 0
3, 44400, Note_on_c, 1, 62, 92
3, 44400, Note_on_c, 1, 66, 92
3, 44592, Note_on_c, 1, 66, 0
3, 44592, Note_on_c, 1, 62, 0
3, 46320, Note_on_c, 1, 55, 92
3, 46500, Note_on_c, 1, 55, 0
3, 46560, Note_on_c, 1, 55, 92
3, 46740, Note_on_c, 1, 55, 0
3, 46800, Note_on_c, 1, 55, 92
3, 46980, Note_on_c, 1, 55, 0
3, 47040, Note_on_c, 1, 55, 92
3, 47220, Note_on_c, 1, 55, 0
3, 47280, Note_on_c, 1, 55, 92
3, 47460, Note_on_c, 1, 55, 0
3, 47520, Note_on_c, 1, 55, 92
3, 47520, Note_on_c, 1, 43, 92
3, 49140, Note_on_c, 1, 43, 0
3, 49140, Note_on_c, 1, 55, 0
3, 49200, Note_on_c, 1, 55, 70
3, 49200, Note_on_c, 1, 43, 70
3, 49380, Note_on_c, 1, 43, 0
3, 49380, Note_on_c, 1, 55, 0
3, 49440, Note_on_c, 1, 55, 70
3, 49440, Note_on_c, 1, 43, 70
3, 49620, Note_on_c, 1, 43, 0
3, 49620, Note_on_c, 1, 55, 0
3, 49680, Note_on_c, 1, 55, 70
3, 49680, Note_on_c, 1, 43, 70
3, 49860, Note_on_c, 1, 43, 0
3, 49860, Note_on_c, 1, 55, 0
3, 49920, Note_on_c, 1, 55, 70
3, 49920, Note_on_c, 1, 43, 70
3, 50100, Note_on_c, 1, 43, 0
3, 50100, Note_on_c, 1, 55, 0
3, 50160, Note_on_c, 1, 43, 70
3, 50160, Note_on_c, 1, 55, 70
3, 50340, Note_on_c, 1, 55, 0
3, 50340, Note_on_c, 1, 43, 0
3, 50400, Note_on_c, 1, 55, 70
3, 50400, Note_on_c, 1, 43, 70
3, 51552, Note_on_c, 1, 43, 0
3, 51552, Note_on_c, 1, 55, 0
3, 51840, Note_on_c, 1, 43, 58
3, 51840, Note_on_c, 1, 55, 58
3, 52008, Note_on_c, 1, 55, 0
3, 52008, Note_on_c, 1, 43, 0
3, 52080, Note_on_c, 1, 48, 58
3, 52248, Note_on_c, 1, 48, 0
3, 52320, Note_on_c, 1, 48, 58
3, 52488, Note_on_c, 1, 48, 0
3, 52560, Note_on_c, 1, 48, 58
3, 52728, Note_on_c, 1, 48, 0
3, 59280, Note_on_c, 1, 64, 58
3, 59280, Note_on_c, 1, 55, 58
3, 59472, Note_on_c, 1, 55, 0
3, 59472, Note_on_c, 1, 64, 0
3, 59520, Note_on_c, 1, 55, 58
3, 59520, Note_on_c, 1, 64, 58
3, 59712, Note_on_c, 1, 64, 0
3, 59712, Note_on_c, 1, 55, 0
3, 59760, Note_on_c, 1, 55, 58
3, 59760, Note_on_c, 1, 64, 58
3, 59952, Note_on_c, 1, 64, 0
3, 59952, Note_on_c, 1, 55, 0
3, 60000, Note_on_c, 1, 55, 58
3, 60000, Note_on_c, 1, 64, 58
3, 60192, Note_on_c, 1, 64, 0
3, 60192, Note_on_c, 1, 55, 0
3, 60240, Note_on_c, 1, 64, 58
3, 60240, Note_on_c, 1, 55, 58
3, 60432, Note_on_c, 1, 55, 0
3, 60432, Note_on_c, 1, 64, 0
3, 60480, Note_on_c, 1, 65, 92
3, 60480, Note_on_c, 1, 56, 92
3, 61920, Note_on_c, 1, 56, 0
3, 61920, Note_on_c, 1, 65, 0
3, 61920, Note_on_c, 1, 55, 92
3, 61920, Note_on_c, 1, 64, 92
3, 62112, Note_on_c, 1, 64, 0
3, 62112, Note_on_c, 1, 55, 0
3, 62160, Note_on_c, 1, 64, 92
3, 62160, Note_on_c, 1, 55, 92
3, 62352, Note_on_c, 1, 55, 0
3, 62352, Note_on_c, 1, 64, 0
3, 62400, Note_on_c, 1, 64, 92
3, 62400, Note_on_c, 1, 55, 92
3, 62592, Note_on_c, 1, 55, 0
3, 62592, Note_on_c, 1, 64, 0
3, 62640, Note_on_c, 1, 55, 92
3, 62640, Note_on_c, 1, 64, 92
3, 62832, Note_on_c, 1, 64, 0
3, 62832, Note_on_c, 1, 55, 0
3, 62880, Note_on_c, 1, 55, 92
3, 62880, Note_on_c, 1, 64, 92
3, 63072, Note_on_c, 1, 64, 0
3, 63072, Note_on_c, 1, 55, 0
3, 63120, Note_on_c, 1, 55, 92
3, 63120, Note_on_c, 1, 64, 92
3, 63312, Note_on_c, 1, 64, 0
3, 63312, Note_on_c, 1, 55, 0
3, 63360, Note_on_c, 1, 65, 92
3, 63360, Note_on_c, 1, 56, 92
3, 64800, Note_on_c, 1, 56, 0
3, 64800, Note_on_c, 1, 65, 0
3, 64800, Note_on_c, 1, 64, 92
3, 64800, Note_on_c, 1, 55, 92
3, 64992, Note_on_c, 1, 55, 0
3, 64992, Note_on_c, 1, 64, 0
3, 65160, Note_on_c, 1, 48, 80
3, 65232, Note_on_c, 1, 48, 0
3, 65280, Note_on_c, 1, 50, 80
3, 65352, Note_on_c, 1, 50, 0
3, 65400, Note_on_c, 1, 52, 80
3, 65472, Note_on_c, 1, 52, 0
3, 65520, Note_on_c, 1, 53, 80
3, 65592, Note_on_c, 1, 53, 0
3, 65640, Note_on_c, 1, 55, 80
3, 65712, Note_on_c, 1, 55, 0
3, 65760, Note_on_c, 1, 56, 80
3, 65832, Note_on_c, 1, 56, 0
3, 65880, Note_on_c, 1, 58, 80
3, 65952, Note_on_c, 1, 58, 0
3, 66000, Note_on_c, 1, 60, 80
3, 66072, Note_on_c, 1, 60, 0
3, 66120, Note_on_c, 1, 48, 80
3, 66192, Note_on_c, 1, 48, 0
3, 66240, Note_on_c, 1, 49, 80
3, 66384, Note_on_c, 1, 49, 0
3, 66480, Note_on_c, 1, 61, 80
3, 66624, Note_on_c, 1, 61, 0
3, 66720, Note_on_c, 1, 48, 80
3, 66864, Note_on_c, 1, 48, 0
3, 66960, Note_on_c, 1, 46, 100
3, 67680, Note_on_c, 1, 46, 0
3, 67680, Note_on_c, 1, 48, 58
3, 67872, Note_on_c, 1, 48, 0
3, 68040, Note_on_c, 1, 48, 58
3, 68112, Note_on_c, 1, 48, 0
3, 68160, Note_on_c, 1, 50, 80
3, 68232, Note_on_c, 1, 50, 0
3, 68280, Note_on_c, 1, 52, 80
3, 68352, Note_on_c, 1, 52, 0
3, 68400, Note_on_c, 1, 53, 80
3, 68472, Note_on_c, 1, 53, 0
3, 68520, Note_on_c, 1, 55, 80
3, 68592, Note_on_c, 1, 55, 0
3, 68640, Note_on_c, 1, 56, 80
3, 68712, Note_on_c, 1, 56, 0
3, 68760, Note_on_c, 1, 58, 80
3, 68832, Note_on_c, 1, 58, 0
3, 68880, Note_on_c, 1, 60, 80
3, 68952, Note_on_c, 1, 60, 0
3, 69000, Note_on_c, 1, 48, 80
3, 69072, Note_on_c, 1, 48, 0
3, 69120, Note_on_c, 1, 49, 80
3, 69264, Note_on_c, 1, 49, 0
3, 69360, Note_on_c, 1, 61, 80
3, 69504, Note_on_c, 1, 61, 0
3, 69600, Note_on_c, 1, 48, 80
3, 69744, Note_on_c, 1, 48, 0
3, 69840, Note_on_c, 1, 47, 100
3, 70416, Note_on_c, 1, 47, 0
3, 70560, Note_on_c, 1, 48, 58
3, 70752, Note_on_c, 1, 48, 0
3, 74400, Note_on_c, 1, 55, 58
3, 74544, Note_on_c, 1, 55, 0
3, 74640, Note_on_c, 1, 53, 58
3, 74784, Note_on_c, 1, 53, 0
3, 74880, Note_on_c, 1, 52, 58
3, 75024, Note_on_c, 1, 52, 0
3, 75120, Note_on_c, 1, 48, 58
3, 75264, Note_on_c, 1, 48, 0
3, 100860, Note_on_c, 1, 64, 78
3, 100860, Note_on_c, 1, 58, 58
3, 102300, Note_on_c, 1, 58, 0
3, 102300, Note_on_c, 1, 64, 0
3, 102300, Note_on_c, 1, 65, 58
3, 102300, Note_on_c, 1, 57, 58
3, 103668, Note_on_c, 1, 57, 0
3, 103668, Note_on_c, 1, 65, 0
3, 103740, Note_on_c, 1, 58, 58
3, 103740, Note_on_c, 1, 64, 78
3, 105180, Note_on_c, 1, 64, 0
3, 105180, Note_on_c, 1, 58, 0
3, 105180, Note_on_c, 1, 57, 58
3, 105180, Note_on_c, 1, 65, 58
3, 106548, Note_on_c, 1, 65, 0
3, 106548, Note_on_c, 1, 57, 0
3, 106620, Note_on_c, 1, 58, 70
3, 107340, Note_on_c, 1, 58, 0
3, 107340, Note_on_c, 1, 55, 70
3, 108024, Note_on_c, 1, 55, 0
3, 108060, Note_on_c, 1, 52, 70
3, 108780, Note_on_c, 1, 52, 0
3, 108780, Note_on_c, 1, 53, 80
3, 108972, Note_on_c, 1, 53, 0
3, 109500, Note_on_c, 1, 48, 80
3, 109692, Note_on_c, 1, 48, 0
3, 109740, Note_on_c, 1, 48, 92
3, 109932, Note_on_c, 1, 48, 0
3, 109980, Note_on_c, 1, 48, 92
3, 110172, Note_on_c, 1, 48, 0
3, 110220, Note_on_c, 1, 48, 92
3, 110412, Note_on_c, 1, 48, 0
3, 110460, Note_on_c, 1, 48, 92
3, 110652, Note_on_c, 1, 48, 0
3, 110700, Note_on_c, 1, 48, 92
3, 110892, Note_on_c, 1, 48, 0
3, 110940, Note_on_c, 1, 53, 92
3, 111084, Note_on_c, 1, 53, 0
3, 111180, Note_on_c, 1, 53, 92
3, 111324, Note_on_c, 1, 53, 0
3, 111420, Note_on_c, 1, 53, 92
3, 111564, Note_on_c, 1, 53, 0
3, 111660, Note_on_c, 1, 53, 92
3, 111804, Note_on_c, 1, 53, 0
3, 113820, Note_on_c, 1, 50, 105
3, 113964, Note_on_c, 1, 50, 0
3, 114060, Note_on_c, 1, 50, 105
3, 114204, Note_on_c, 1, 50, 0
3, 114300, Note_on_c, 1, 50, 105
3, 114444, Note_on_c, 1, 50, 0
3, 114540, Note_on_c, 1, 50, 105
3, 114684, Note_on_c, 1, 50, 0
3, 123900, Note_on_c, 1, 45, 105
3, 124092, Note_on_c, 1, 45, 0
3, 124140, Note_on_c, 1, 57, 92
3, 124332, Note_on_c, 1, 57, 0
3, 124380, Note_on_c, 1, 57, 92
3, 124572, Note_on_c, 1, 57, 0
3, 124620, Note_on_c, 1, 57, 92
3, 124812, Note_on_c, 1, 57, 0
3, 124860, Note_on_c, 1, 57, 92
3, 125052, Note_on_c, 1, 57, 0
3, 125100, Note_on_c, 1, 57, 92
3, 125292, Note_on_c, 1, 57, 0
3, 125340, Note_on_c, 1, 58, 92
3, 125532, Note_on_c, 1, 58, 0
3, 133980, Note_on_c, 1, 45, 92
3, 134172, Note_on_c, 1, 45, 0
3, 134220, Note_on_c, 1, 57, 92
3, 134412, Note_on_c, 1, 57, 0
3, 134460, Note_on_c, 1, 57, 92
3, 134652, Note_on_c, 1, 57, 0
3, 134700, Note_on_c, 1, 57, 92
3, 134892, Note_on_c, 1, 57, 0
3, 134940, Note_on_c, 1, 57, 92
3, 135132, Note_on_c, 1, 57, 0
3, 135180, Note_on_c, 1, 57, 92
3, 135372, Note_on_c, 1, 57, 0
3, 135420, Note_on_c, 1, 58, 80
3, 135612, Note_on_c, 1, 58, 0
3, 138300, Note_on_c, 1, 61, 92
3, 138300, Note_on_c, 1, 64, 92
3, 138780, Note_on_c, 1, 64, 0
3, 138780, Note_on_c, 1, 61, 0
3, 138780, Note_on_c, 1, 62, 92
3, 138780, Note_on_c, 1, 66, 92
3, 138972, Note_on_c, 1, 66, 0
3, 138972, Note_on_c, 1, 62, 0
3, 139020, Note_on_c, 1, 63, 92
3, 139020, Note_on_c, 1, 57, 92
3, 139500, Note_on_c, 1, 57, 0
3, 139500, Note_on_c, 1, 63, 0
3, 139500, Note_on_c, 1, 62, 92
3, 139500, Note_on_c, 1, 59, 92
3, 139692, Note_on_c, 1, 59, 0
3, 139692, Note_on_c, 1, 62, 0
3, 141180, Note_on_c, 1, 64, 92
3, 141180, Note_on_c, 1, 61, 92
3, 141660, Note_on_c, 1, 61, 0
3, 141660, Note_on_c, 1, 64, 0
3, 141660, Note_on_c, 1, 62, 92
3, 141660, Note_on_c, 1, 66, 92
3, 141852, Note_on_c, 1, 66, 0
3, 141852, Note_on_c, 1, 62, 0
3, 141900, Note_on_c, 1, 63, 92
3, 141900, Note_on_c, 1, 57, 92
3, 142380, Note_on_c, 1, 57, 0
3, 142380, Note_on_c, 1, 63, 0
3, 142380, Note_on_c, 1, 62, 92
3, 142380, Note_on_c, 1, 59, 92
3, 142572, Note_on_c, 1, 59, 0
3, 142572, Note_on_c, 1, 62, 0
3, 144300, Note_on_c, 1, 36, 92
3, 144300, Note_on_c, 1, 48, 92
3, 144480, Note_on_c, 1, 48, 0
3, 144480, Note_on_c, 1, 36, 0
3, 144540, Note_on_c, 1, 36, 92
3, 144540, Note_on_c, 1, 48, 92
3, 144720, Note_on_c, 1, 48, 0
3, 144720, Note_on_c, 1, 36, 0
3, 144780, Note_on_c, 1, 48, 92
3, 144780, Note_on_c, 1, 36, 92
3, 144960, Note_on_c, 1, 36, 0
3, 144960, Note_on_c, 1, 48, 0
3, 145020, Note_on_c, 1, 48, 92
3, 145020, Note_on_c, 1, 36, 92
3, 145200, Note_on_c, 1, 36, 0
3, 145200, Note_on_c, 1, 48, 0
3, 145260, Note_on_c, 1, 36, 92
3, 145260, Note_on_c, 1, 48, 92
3, 145440, Note_on_c, 1, 48, 0
3, 145440, Note_on_c, 1, 36, 0
3, 145500, Note_on_c, 1, 48, 92
3, 145500, Note_on_c, 1, 36, 92
3, 147120, Note_on_c, 1, 36, 0
3, 147120, Note_on_c, 1, 48, 0
3, 147180, Note_on_c, 1, 48, 70
3, 147180, Note_on_c, 1, 36, 70
3, 147360, Note_on_c, 1, 36, 0
3, 147360, Note_on_c, 1, 48, 0
3, 147420, Note_on_c, 1, 48, 70
3, 147420, Note_on_c, 1, 36, 70
3, 147600, Note_on_c, 1, 36, 0
3, 147600, Note_on_c, 1, 48, 0
3, 147660, Note_on_c, 1, 36, 70
3, 147660, Note_on_c, 1, 48, 70
3, 147840, Note_on_c, 1, 48, 0
3, 147840, Note_on_c, 1, 36, 0
3, 147900, Note_on_c, 1, 36, 70
3, 147900, Note_on_c, 1, 48, 70
3, 148080, Note_on_c, 1, 48, 0
3, 148080, Note_on_c, 1, 36, 0
3, 148140, Note_on_c, 1, 36, 70
3, 148140, Note_on_c, 1, 48, 70
3, 148320, Note_on_c, 1, 48, 0
3, 148320, Note_on_c, 1, 36, 0
3, 148380, Note_on_c, 1, 36, 58
3, 148380, Note_on_c, 1, 48, 58
3, 149988, Note_on_c, 1, 48, 0
3, 149988, Note_on_c, 1, 36, 0
3, 150060, Note_on_c, 1, 41, 58
3, 150060, Note_on_c, 1, 53, 58
3, 150228, Note_on_c, 1, 53, 0
3, 150228, Note_on_c, 1, 41, 0
3, 150300, Note_on_c, 1, 53, 58
3, 150300, Note_on_c, 1, 41, 58
3, 150468, Note_on_c, 1, 41, 0
3, 150468, Note_on_c, 1, 53, 0
3, 150540, Note_on_c, 1, 41, 58
3, 150540, Note_on_c, 1, 53, 58
3, 150756, Note_on_c, 1, 53, 0
3, 150756, Note_on_c, 1, 41, 0
3, 150756, End_track
4, 0, Start_track
4, 0, Sequencer_specific, 04, 43, 00, 01, 00
4, 0, Program_c, 2, 60
4, 0, Control_c, 2, 7, 116
4, 0, Control_c, 2, 91, 70
4, 0, Control_c, 2, 10, 92
4, 6720, Note_on_c, 2, 60, 70
4, 6720, Note_on_c, 2, 48, 70
4, 6912, Note_on_c, 2, 48, 0
4, 6912, Note_on_c, 2, 60, 0
4, 6960, Note_on_c, 2, 60, 70
4, 6960, Note_on_c, 2, 48, 70
4, 7152, Note_on_c, 2, 48, 0
4, 7152, Note_on_c, 2, 60, 0
4, 7200, Note_on_c, 2, 60, 78
4, 7200, Note_on_c, 2, 48, 58
4, 8844, Note_on_c, 2, 48, 0
4, 8844, Note_on_c, 2, 60, 0
4, 8880, Note_on_c, 2, 53, 70
4, 8880, Note_on_c, 2, 65, 70
4, 9084, Note_on_c, 2, 65, 0
4, 9084, Note_on_c, 2, 53, 0
4, 9120, Note_on_c, 2, 69, 70
4, 9120, Note_on_c, 2, 57, 70
4, 9324, Note_on_c, 2, 57, 0
4, 9324, Note_on_c, 2, 69, 0
4, 9360, Note_on_c, 2, 72, 70
4, 9360, Note_on_c, 2, 60, 70
4, 9564, Note_on_c, 2, 60, 0
4, 9564, Note_on_c, 2, 72, 0
4, 9600, Note_on_c, 2, 69, 70
4, 9600, Note_on_c, 2, 57, 70
4, 9804, Note_on_c, 2, 57, 0
4, 9804, Note_on_c, 2, 69, 0
4, 9840, Note_on_c, 2, 65, 70
4, 9840, Note_on_c, 2, 53, 70
4, 10044, Note_on_c, 2, 53, 0
4, 10044, Note_on_c, 2, 65, 0
4, 10080, Note_on_c, 2, 48, 58
4, 10080, Note_on_c, 2, 60, 78
4, 11724, Note_on_c, 2, 60, 0
4, 11724, Note_on_c, 2, 48, 0
4, 11760, Note_on_c, 2, 53, 70
4, 11760, Note_on_c, 2, 65, 70
4, 11964, Note_on_c, 2, 65, 0
4, 11964, Note_on_c, 2, 53, 0
4, 12000, Note_on_c, 2, 69, 70
4, 12000, Note_on_c, 2, 57, 70
4, 12204, Note_on_c, 2, 57, 0
4, 12204, Note_on_c, 2, 69, 0
4, 12240, Note_on_c, 2, 60, 70
4, 12240, Note_on_c, 2, 72, 70
4, 12444, Note_on_c, 2, 72, 0
4, 12444, Note_on_c, 2, 60, 0
4, 12480, Note_on_c, 2, 69, 70
4, 12480, Note_on_c, 2, 57, 70
4, 12684, Note_on_c, 2, 57, 0
4, 12684, Note_on_c, 2, 69, 0
4, 12720, Note_on_c, 2, 53, 70
4, 12720, Note_on_c, 2, 65, 70
4, 12924, Note_on_c, 2, 65, 0
4, 12924, Note_on_c, 2, 53, 0
4, 14400, Note_on_c, 2, 60, 70
4, 14400, Note_on_c, 2, 67, 70
4, 15120, Note_on_c, 2, 67, 0
4, 15120, Note_on_c, 2, 60, 0
4, 15120, Note_on_c, 2, 69, 70
4, 15120, Note_on_c, 2, 65, 70
4, 15312, Note_on_c, 2, 65, 0
4, 15312, Note_on_c, 2, 69, 0
4, 15840, Note_on_c, 2, 65, 80
4, 15840, Note_on_c, 2, 57, 80
4, 16560, Note_on_c, 2, 57, 0
4, 16560, Note_on_c, 2, 60, 92
4, 17040, Note_on_c, 2, 65, 0
4, 17040, Note_on_c, 2, 69, 92
4, 17160, Note_on_c, 2, 69, 0
4, 17160, Note_on_c, 2, 67, 92
4, 17256, Note_on_c, 2, 67, 0
4, 17256, Note_on_c, 2, 60, 0
4, 17280, Note_on_c, 2, 65, 92
4, 17280, Note_on_c, 2, 57, 92
4, 17424, Note_on_c, 2, 57, 0
4, 17424, Note_on_c, 2, 65, 0
4, 17520, Note_on_c, 2, 53, 92
4, 17520, Note_on_c, 2, 57, 92
4, 17664, Note_on_c, 2, 57, 0
4, 17664, Note_on_c, 2, 53, 0
4, 17760, Note_on_c, 2, 53, 92
4, 17760, Note_on_c, 2, 53, 92
4, 17760, Note_on_c, 2, 57, 92
4, 17904, Note_on_c, 2, 57, 0
4, 17904, Note_on_c, 2, 53, 0
4, 17904, Note_on_c, 2, 53, 0
4, 18000, Note_on_c, 2, 53, 92
4, 18000, Note_on_c, 2, 57, 92
4, 18144, Note_on_c, 2, 57, 0
4, 18144, Note_on_c, 2, 53, 0
4, 23760, Note_on_c, 2, 67, 92
4, 24216, Note_on_c, 2, 67, 0
4, 25200, Note_on_c, 2, 67, 92
4, 25656, Note_on_c, 2, 67, 0
4, 27360, Note_on_c, 2, 60, 92
4, 27360, Note_on_c, 2, 48, 92
4, 27552, Note_on_c, 2, 48, 0
4, 27552, Note_on_c, 2, 60, 0
4, 27600, Note_on_c, 2, 60, 92
4, 27600, Note_on_c, 2, 48, 92
4, 27792, Note_on_c, 2, 48, 0
4, 27792, Note_on_c, 2, 60, 0
4, 27840, Note_on_c, 2, 60, 92
4, 27840, Note_on_c, 2, 48, 92
4, 28032, Note_on_c, 2, 48, 0
4, 28032, Note_on_c, 2, 60, 0
4, 28080, Note_on_c, 2, 60, 92
4, 28080, Note_on_c, 2, 48, 92
4, 28272, Note_on_c, 2, 48, 0
4, 28272, Note_on_c, 2, 60, 0
4, 28320, Note_on_c, 2, 60, 92
4, 28320, Note_on_c, 2, 48, 92
4, 28512, Note_on_c, 2, 48, 0
4, 28512, Note_on_c, 2, 60, 0
4, 28560, Note_on_c, 2, 60, 92
4, 28560, Note_on_c, 2, 48, 92
4, 28752, Note_on_c, 2, 48, 0
4, 28752, Note_on_c, 2, 60, 0
4, 28800, Note_on_c, 2, 60, 92
4, 28800, Note_on_c, 2, 53, 92
4, 28992, Note_on_c, 2, 53, 0
4, 28992, Note_on_c, 2, 60, 0
4, 31920, Note_on_c, 2, 67, 58
4, 32064, Note_on_c, 2, 67, 0
4, 32160, Note_on_c, 2, 67, 58
4, 32304, Note_on_c, 2, 67, 0
4, 32400, Note_on_c, 2, 67, 58
4, 35136, Note_on_c, 2, 67, 0
4, 36000, Note_on_c, 2, 60, 58
4, 36000, Note_on_c, 2, 48, 58
4, 36192, Note_on_c, 2, 48, 0
4, 36192, Note_on_c, 2, 60, 0
4, 36240, Note_on_c, 2, 60, 92
4, 36240, Note_on_c, 2, 48, 92
4, 36432, Note_on_c, 2, 48, 0
4, 36432, Note_on_c, 2, 60, 0
4, 36480, Note_on_c, 2, 48, 92
4, 36480, Note_on_c, 2, 60, 92
4, 36672, Note_on_c, 2, 60, 0
4, 36672, Note_on_c, 2, 48, 0
4, 36720, Note_on_c, 2, 48, 92
4, 36720, Note_on_c, 2, 60, 92
4, 36912, Note_on_c, 2, 60, 0
4, 36912, Note_on_c, 2, 48, 0
4, 36960, Note_on_c, 2, 60, 92
4, 36960, Note_on_c, 2, 48, 92
4, 37152, Note_on_c, 2, 48, 0
4, 37152, Note_on_c, 2, 60, 0
4, 37200, Note_on_c, 2, 48, 92
4, 37200, Note_on_c, 2, 60, 92
4, 37392, Note_on_c, 2, 60, 0
4, 37392, Note_on_c, 2, 48, 0
4, 37440, Note_on_c, 2, 60, 92
4, 37440, Note_on_c, 2, 53, 92
4, 37632, Note_on_c, 2, 53, 0
4, 37632, Note_on_c, 2, 60, 0
4, 40320, Note_on_c, 2, 57, 92
4, 40320, Note_on_c, 2, 69, 92
4, 41472, Note_on_c, 2, 69, 0
4, 41472, Note_on_c, 2, 57, 0
4, 43200, Note_on_c, 2, 57, 92
4, 43200, Note_on_c, 2, 69, 92
4, 44352, Note_on_c, 2, 69, 0
4, 44352, Note_on_c, 2, 57, 0
4, 46320, Note_on_c, 2, 67, 92
4, 46500, Note_on_c, 2, 67, 0
4, 46560, Note_on_c, 2, 67, 92
4, 46740, Note_on_c, 2, 67, 0
4, 46800, Note_on_c, 2, 67, 92
4, 46980, Note_on_c, 2, 67, 0
4, 47040, Note_on_c, 2, 67, 92
4, 47220, Note_on_c, 2, 67, 0
4, 47280, Note_on_c, 2, 67, 92
4, 47460, Note_on_c, 2, 67, 0
4, 47520, Note_on_c, 2, 67, 92
4, 49140, Note_on_c, 2, 67, 0
4, 49200, Note_on_c, 2, 67, 70
4, 49380, Note_on_c, 2, 67, 0
4, 49440, Note_on_c, 2, 67, 70
4, 49620, Note_on_c, 2, 67, 0
4, 49680, Note_on_c, 2, 67, 70
4, 49860, Note_on_c, 2, 67, 0
4, 49920, Note_on_c, 2, 67, 70
4, 50100, Note_on_c, 2, 67, 0
4, 50160, Note_on_c, 2, 67, 70
4, 50340, Note_on_c, 2, 67, 0
4, 50400, Note_on_c, 2, 67, 70
4, 51552, Note_on_c, 2, 67, 0
4, 51840, Note_on_c, 2, 60, 58
4, 51840, Note_on_c, 2, 67, 58
4, 52008, Note_on_c, 2, 67, 0
4, 52008, Note_on_c, 2, 60, 0
4, 52080, Note_on_c, 2, 60, 58
4, 52080, Note_on_c, 2, 67, 58
4, 52248, Note_on_c, 2, 67, 0
4, 52248, Note_on_c, 2, 60, 0
4, 52320, Note_on_c, 2, 60, 58
4, 52320, Note_on_c, 2, 67, 58
4, 52488, Note_on_c, 2, 67, 0
4, 52488, Note_on_c, 2, 60, 0
4, 52560, Note_on_c, 2, 67, 58
4, 52560, Note_on_c, 2, 60, 58
4, 52728, Note_on_c, 2, 60, 0
4, 52728, Note_on_c, 2, 67, 0
4, 59280, Note_on_c, 2, 60, 58
4, 59280, Note_on_c, 2, 48, 58
4, 59472, Note_on_c, 2, 48, 0
4, 59472, Note_on_c, 2, 60, 0
4, 59520, Note_on_c, 2, 60, 58
4, 59520, Note_on_c, 2, 48, 58
4, 59712, Note_on_c, 2, 48, 0
4, 59712, Note_on_c, 2, 60, 0
4, 59760, Note_on_c, 2, 48, 58
4, 59760, Note_on_c, 2, 60, 58
4, 59952, Note_on_c, 2, 60, 0
4, 59952, Note_on_c, 2, 48, 0
4, 60000, Note_on_c, 2, 48, 58
4, 60000, Note_on_c, 2, 60, 58
4, 60192, Note_on_c, 2, 60, 0
4, 60192, Note_on_c, 2, 48, 0
4, 60240, Note_on_c, 2, 60, 58
4, 60240, Note_on_c, 2, 48, 58
4, 60432, Note_on_c, 2, 48, 0
4, 60432, Note_on_c, 2, 60, 0
4, 60480, Note_on_c, 2, 48, 92
4, 60480, Note_on_c, 2, 60, 92
4, 61920, Note_on_c, 2, 60, 0
4, 61920, Note_on_c, 2, 48, 0
4, 61920, Note_on_c, 2, 48, 92
4, 61920, Note_on_c, 2, 60, 92
4, 62112, Note_on_c, 2, 60, 0
4, 62112, Note_on_c, 2, 48, 0
4, 62160, Note_on_c, 2, 48, 92
4, 62160, Note_on_c, 2, 60, 92
4, 62352, Note_on_c, 2, 60, 0
4, 62352, Note_on_c, 2, 48, 0
4, 62400, Note_on_c, 2, 60, 92
4, 62400, Note_on_c, 2, 48, 92
4, 62592, Note_on_c, 2, 48, 0
4, 62592, Note_on_c, 2, 60, 0
4, 62640, Note_on_c, 2, 48, 92
4, 62640, Note_on_c, 2, 60, 92
4, 62832, Note_on_c, 2, 60, 0
4, 62832, Note_on_c, 2, 48, 0
4, 62880, Note_on_c, 2, 48, 92
4, 62880, Note_on_c, 2, 60, 92
4, 63072, Note_on_c, 2, 60, 0
4, 63072, Note_on_c, 2, 48, 0
4, 63120, Note_on_c, 2, 60, 92
4, 63120, Note_on_c, 2, 48, 92
4, 63312, Note_on_c, 2, 48, 0
4, 63312, Note_on_c, 2, 60, 0
4, 63360, Note_on_c, 2, 48, 92
4, 63360, Note_on_c, 2, 60, 92
4, 64800, Note_on_c, 2, 60, 0
4, 64800, Note_on_c, 2, 48, 0
4, 64800, Note_on_c, 2, 60, 92
4, 64800, Note_on_c, 2, 48, 92
4, 64992, Note_on_c, 2, 48, 0
4, 64992, Note_on_c, 2, 60, 0
4, 74160, Note_on_c, 2, 67, 78
4, 74880, Note_on_c, 2, 60, 58
4, 75264, Note_on_c, 2, 60, 0
4, 75264, Note_on_c, 2, 67, 0
4, 100380, Note_on_c, 2, 48, 58
4, 100380, Note_on_c, 2, 60, 70
4, 100572, Note_on_c, 2, 60, 0
4, 100572, Note_on_c, 2, 48, 0
4, 100620, Note_on_c, 2, 48, 70
4, 100620, Note_on_c, 2, 60, 70
4, 100812, Note_on_c, 2, 60, 0
4, 100812, Note_on_c, 2, 48, 0
4, 100860, Note_on_c, 2, 48, 70
4, 100860, Note_on_c, 2, 60, 70
4, 102492, Note_on_c, 2, 60, 0
4, 102492, Note_on_c, 2, 48, 0
4, 102540, Note_on_c, 2, 65, 70
4, 102540, Note_on_c, 2, 53, 70
4, 102732, Note_on_c, 2, 53, 0
4, 102732, Note_on_c, 2, 65, 0
4, 102780, Note_on_c, 2, 57, 70
4, 102780, Note_on_c, 2, 69, 70
4, 102972, Note_on_c, 2, 69, 0
4, 102972, Note_on_c, 2, 57, 0
4, 103020, Note_on_c, 2, 72, 70
4, 103020, Note_on_c, 2, 60, 70
4, 103212, Note_on_c, 2, 60, 0
4, 103212, Note_on_c, 2, 72, 0
4, 103260, Note_on_c, 2, 57, 70
4, 103260, Note_on_c, 2, 69, 70
4, 103452, Note_on_c, 2, 69, 0
4, 103452, Note_on_c, 2, 57, 0
4, 103500, Note_on_c, 2, 53, 70
4, 103500, Note_on_c, 2, 65, 70
4, 103692, Note_on_c, 2, 65, 0
4, 103692, Note_on_c, 2, 53, 0
4, 103740, Note_on_c, 2, 60, 70
4, 103740, Note_on_c, 2, 48, 70
4, 105372, Note_on_c, 2, 48, 0
4, 105372, Note_on_c, 2, 60, 0
4, 105420, Note_on_c, 2, 65, 70
4, 105420, Note_on_c, 2, 53, 70
4, 105612, Note_on_c, 2, 53, 0
4, 105612, Note_on_c, 2, 65, 0
4, 105660, Note_on_c, 2, 69, 70
4, 105660, Note_on_c, 2, 57, 70
4, 105852, Note_on_c, 2, 57, 0
4, 105852, Note_on_c, 2, 69, 0
4, 105900, Note_on_c, 2, 72, 70
4, 105900, Note_on_c, 2, 60, 70
4, 106092, Note_on_c, 2, 60, 0
4, 106092, Note_on_c, 2, 72, 0
4, 106140, Note_on_c, 2, 69, 70
4, 106140, Note_on_c, 2, 57, 70
4, 106332, Note_on_c, 2, 57, 0
4, 106332, Note_on_c, 2, 69, 0
4, 106380, Note_on_c, 2, 65, 70
4, 106380, Note_on_c, 2, 53, 70
4, 106572, Note_on_c, 2, 53, 0
4, 106572, Note_on_c, 2, 65, 0
4, 108060, Note_on_c, 2, 60, 70
4, 108060, Note_on_c, 2, 67, 70
4, 108780, Note_on_c, 2, 67, 0
4, 108780, Note_on_c, 2, 60, 0
4, 108780, Note_on_c, 2, 69, 80
4, 108780, Note_on_c, 2, 65, 80
4, 108972, Note_on_c, 2, 65, 0
4, 108972, Note_on_c, 2, 69, 0
4, 109500, Note_on_c, 2, 65, 80
4, 109500, Note_on_c, 2, 57, 80
4, 110220, Note_on_c, 2, 57, 0
4, 110220, Note_on_c, 2, 60, 92
4, 110700, Note_on_c, 2, 65, 0
4, 110700, Note_on_c, 2, 69, 92
4, 110820, Note_on_c, 2, 69, 0
4, 110820, Note_on_c, 2, 67, 92
4, 110916, Note_on_c, 2, 67, 0
4, 110916, Note_on_c, 2, 60, 0
4, 110940, Note_on_c, 2, 57, 92
4, 110940, Note_on_c, 2, 65, 92
4, 111084, Note_on_c, 2, 65, 0
4, 111084, Note_on_c, 2, 57, 0
4, 111180, Note_on_c, 2, 57, 92
4, 111180, Note_on_c, 2, 53, 92
4, 111324, Note_on_c, 2, 53, 0
4, 111324, Note_on_c, 2, 57, 0
4, 111420, Note_on_c, 2, 57, 92
4, 111420, Note_on_c, 2, 53, 92
4, 111564, Note_on_c, 2, 53, 0
4, 111564, Note_on_c, 2, 57, 0
4, 111660, Note_on_c, 2, 57, 92
4, 111660, Note_on_c, 2, 53, 92
4, 111804, Note_on_c, 2, 53, 0
4, 111804, Note_on_c, 2, 57, 0
4, 120300, Note_on_c, 2, 48, 92
4, 120300, Note_on_c, 2, 60, 92
4, 120756, Note_on_c, 2, 60, 0
4, 120756, Note_on_c, 2, 48, 0
4, 121740, Note_on_c, 2, 60, 92
4, 121740, Note_on_c, 2, 48, 92
4, 122196, Note_on_c, 2, 48, 0
4, 122196, Note_on_c, 2, 60, 0
4, 123900, Note_on_c, 2, 65, 92
4, 123900, Note_on_c, 2, 53, 92
4, 124092, Note_on_c, 2, 53, 0
4, 124092, Note_on_c, 2, 65, 0
4, 124140, Note_on_c, 2, 53, 92
4, 124140, Note_on_c, 2, 65, 92
4, 124332, Note_on_c, 2, 65, 0
4, 124332, Note_on_c, 2, 53, 0
4, 124380, Note_on_c, 2, 65, 92
4, 124380, Note_on_c, 2, 53, 92
4, 124572, Note_on_c, 2, 53, 0
4, 124572, Note_on_c, 2, 65, 0
4, 124620, Note_on_c, 2, 65, 92
4, 124620, Note_on_c, 2, 53, 92
4, 124812, Note_on_c, 2, 53, 0
4, 124812, Note_on_c, 2, 65, 0
4, 124860, Note_on_c, 2, 65, 92
4, 124860, Note_on_c, 2, 53, 92
4, 125052, Note_on_c, 2, 53, 0
4, 125052, Note_on_c, 2, 65, 0
4, 125100, Note_on_c, 2, 65, 92
4, 125100, Note_on_c, 2, 53, 92
4, 125292, Note_on_c, 2, 53, 0
4, 125292, Note_on_c, 2, 65, 0
4, 125340, Note_on_c, 2, 53, 92
4, 125340, Note_on_c, 2, 65, 92
4, 125532, Note_on_c, 2, 65, 0
4, 125532, Note_on_c, 2, 53, 0
4, 129660, Note_on_c, 2, 48, 92
4, 129660, Note_on_c, 2, 60, 92
4, 133116, Note_on_c, 2, 60, 0
4, 133116, Note_on_c, 2, 48, 0
4, 133980, Note_on_c, 2, 53, 92
4, 133980, Note_on_c, 2, 65, 92
4, 134172, Note_on_c, 2, 65, 0
4, 134172, Note_on_c, 2, 53, 0
4, 134220, Note_on_c, 2, 53, 92
4, 134220, Note_on_c, 2, 65, 92
4, 134412, Note_on_c, 2, 65, 0
4, 134412, Note_on_c, 2, 53, 0
4, 134460, Note_on_c, 2, 53, 92
4, 134460, Note_on_c, 2, 65, 92
4, 134652, Note_on_c, 2, 65, 0
4, 134652, Note_on_c, 2, 53, 0
4, 134700, Note_on_c, 2, 53, 92
4, 134700, Note_on_c, 2, 65, 92
4, 134892, Note_on_c, 2, 65, 0
4, 134892, Note_on_c, 2, 53, 0
4, 134940, Note_on_c, 2, 65, 92
4, 134940, Note_on_c, 2, 53, 92
4, 135132, Note_on_c, 2, 53, 0
4, 135132, Note_on_c, 2, 65, 0
4, 135180, Note_on_c, 2, 65, 92
4, 135180, Note_on_c, 2, 53, 92
4, 135372, Note_on_c, 2, 53, 0
4, 135372, Note_on_c, 2, 65, 0
4, 135420, Note_on_c, 2, 65, 80
4, 135420, Note_on_c, 2, 53, 80
4, 135612, Note_on_c, 2, 53, 0
4, 135612, Note_on_c, 2, 65, 0
4, 144300, Note_on_c, 2, 60, 92
4, 144300, Note_on_c, 2, 48, 92
4, 144480, Note_on_c, 2, 48, 0
4, 144480, Note_on_c, 2, 60, 0
4, 144540, Note_on_c, 2, 48, 92
4, 144540, Note_on_c, 2, 60, 92
4, 144720, Note_on_c, 2, 60, 0
4, 144720, Note_on_c, 2, 48, 0
4, 144780, Note_on_c, 2, 48, 92
4, 144780, Note_on_c, 2, 60, 92
4, 144960, Note_on_c, 2, 60, 0
4, 144960, Note_on_c, 2, 48, 0
4, 145020, Note_on_c, 2, 60, 92
4, 145020, Note_on_c, 2, 48, 92
4, 145200, Note_on_c, 2, 48, 0
4, 145200, Note_on_c, 2, 60, 0
4, 145260, Note_on_c, 2, 60, 92
4, 145260, Note_on_c, 2, 48, 92
4, 145440, Note_on_c, 2, 48, 0
4, 145440, Note_on_c, 2, 60, 0
4, 145500, Note_on_c, 2, 60, 92
4, 145500, Note_on_c, 2, 48, 92
4, 147120, Note_on_c, 2, 48, 0
4, 147120, Note_on_c, 2, 60, 0
4, 147180, Note_on_c, 2, 48, 70
4, 147180, Note_on_c, 2, 60, 70
4, 147360, Note_on_c, 2, 60, 0
4, 147360, Note_on_c, 2, 48, 0
4, 147420, Note_on_c, 2, 60, 70
4, 147420, Note_on_c, 2, 48, 70
4, 147600, Note_on_c, 2, 48, 0
4, 147600, Note_on_c, 2, 60, 0
4, 147660, Note_on_c, 2, 48, 70
4, 147660, Note_on_c, 2, 60, 70
4, 147840, Note_on_c, 2, 60, 0
4, 147840, Note_on_c, 2, 48, 0
4, 147900, Note_on_c, 2, 60, 70
4, 147900, Note_on_c, 2, 48, 70
4, 148080, Note_on_c, 2, 48, 0
4, 148080, Note_on_c, 2, 60, 0
4, 148140, Note_on_c, 2, 60, 70
4, 148140, Note_on_c, 2, 48, 70
4, 148320, Note_on_c, 2, 48, 0
4, 148320, Note_on_c, 2, 60, 0
4, 148380, Note_on_c, 2, 60, 58
4, 148380, Note_on_c, 2, 48, 58
4, 149820, Note_on_c, 2, 48, 0
4, 149820, Note_on_c, 2, 53, 58
4, 149988, Note_on_c, 2, 53, 0
4, 149988, Note_on_c, 2, 60, 0
4, 150060, Note_on_c, 2, 53, 58
4, 150060, Note_on_c, 2, 57, 58
4, 150228, Note_on_c, 2, 57, 0
4, 150228, Note_on_c, 2, 53, 0
4, 150300, Note_on_c, 2, 53, 58
4, 150300, Note_on_c, 2, 57, 58
4, 150468, Note_on_c, 2, 57, 0
4, 150468, Note_on_c, 2, 53, 0
4, 150540, Note_on_c, 2, 53, 58
4, 150540, Note_on_c, 2, 57, 58
4, 150756, Note_on_c, 2, 57, 0
4, 150756, Note_on_c, 2, 53, 0
4, 150756, End_track
5, 0, Start_track
5, 0, Sequencer_specific, 04, 43, 00, 01, 00
5, 0, Program_c, 3, 56
5, 0, Control_c, 3, 7, 116
5, 0, Control_c, 3, 91, 70
5, 0, Control_c, 3, 10, 36
5, 7200, Note_on_c, 3, 72, 78
5, 7200, Note_on_c, 3, 60, 58
5, 8640, Note_on_c, 3, 60, 0
5, 8640, Note_on_c, 3, 72, 0
5, 8640, Note_on_c, 3, 60, 58
5, 8640, Note_on_c, 3, 72, 58
5, 9792, Note_on_c, 3, 72, 0
5, 9792, Note_on_c, 3, 60, 0
5, 10080, Note_on_c, 3, 72, 78
5, 10080, Note_on_c, 3, 60, 58
5, 11520, Note_on_c, 3, 60, 0
5, 11520, Note_on_c, 3, 72, 0
5, 11520, Note_on_c, 3, 72, 58
5, 11520, Note_on_c, 3, 60, 58
5, 12672, Note_on_c, 3, 60, 0
5, 12672, Note_on_c, 3, 72, 0
5, 15840, Note_on_c, 3, 60, 58
5, 15840, Note_on_c, 3, 72, 58
5, 17424, Note_on_c, 3, 72, 0
5, 17424, Note_on_c, 3, 60, 0
5, 17520, Note_on_c, 3, 72, 92
5, 17520, Note_on_c, 3, 60, 92
5, 17664, Note_on_c, 3, 60, 0
5, 17664, Note_on_c, 3, 72, 0
5, 17760, Note_on_c, 3, 60, 92
5, 17760, Note_on_c, 3, 72, 92
5, 17904, Note_on_c, 3, 72, 0
5, 17904, Note_on_c, 3, 60, 0
5, 18000, Note_on_c, 3, 72, 92
5, 18000, Note_on_c, 3, 60, 92
5, 18144, Note_on_c, 3, 60, 0
5, 18144, Note_on_c, 3, 72, 0
5, 23760, Note_on_c, 3, 55, 92
5, 23760, Note_on_c, 3, 67, 92
5, 24216, Note_on_c, 3, 67, 0
5, 24216, Note_on_c, 3, 55, 0
5, 25200, Note_on_c, 3, 67, 92
5, 25200, Note_on_c, 3, 55, 92
5, 25656, Note_on_c, 3, 55, 0
5, 25656, Note_on_c, 3, 67, 0
5, 27360, Note_on_c, 3, 60, 92
5, 27360, Note_on_c, 3, 72, 92
5, 28992, Note_on_c, 3, 72, 0
5, 28992, Note_on_c, 3, 60, 0
5, 31920, Note_on_c, 3, 55, 58
5, 31920, Note_on_c, 3, 67, 58
5, 32064, Note_on_c, 3, 67, 0
5, 32064, Note_on_c, 3, 55, 0
5, 32160, Note_on_c, 3, 55, 58
5, 32160, Note_on_c, 3, 67, 58
5, 32304, Note_on_c, 3, 67, 0
5, 32304, Note_on_c, 3, 55, 0
5, 32400, Note_on_c, 3, 55, 58
5, 32400, Note_on_c, 3, 67, 58
5, 32544, Note_on_c, 3, 67, 0
5, 32544, Note_on_c, 3, 55, 0
5, 32640, Note_on_c, 3, 55, 58
5, 32640, Note_on_c, 3, 67, 58
5, 32784, Note_on_c, 3, 67, 0
5, 32784, Note_on_c, 3, 55, 0
5, 32880, Note_on_c, 3, 67, 58
5, 32880, Note_on_c, 3, 55, 58
5, 33024, Note_on_c, 3, 55, 0
5, 33024, Note_on_c, 3, 67, 0
5, 33120, Note_on_c, 3, 67, 58
5, 33120, Note_on_c, 3, 55, 58
5, 33264, Note_on_c, 3, 55, 0
5, 33264, Note_on_c, 3, 67, 0
5, 33360, Note_on_c, 3, 55, 58
5, 33360, Note_on_c, 3, 67, 58
5, 33504, Note_on_c, 3, 67, 0
5, 33504, Note_on_c, 3, 55, 0
5, 33600, Note_on_c, 3, 67, 58
5, 33600, Note_on_c, 3, 55, 58
5, 33744, Note_on_c, 3, 55, 0
5, 33744, Note_on_c, 3, 67, 0
5, 33840, Note_on_c, 3, 67, 58
5, 33840, Note_on_c, 3, 55, 58
5, 33984, Note_on_c, 3, 55, 0
5, 33984, Note_on_c, 3, 67, 0
5, 34080, Note_on_c, 3, 67, 58
5, 34080, Note_on_c, 3, 55, 58
5, 34224, Note_on_c, 3, 55, 0
5, 34224, Note_on_c, 3, 67, 0
5, 34320, Note_on_c, 3, 55, 58
5, 34320, Note_on_c, 3, 67, 58
5, 34464, Note_on_c, 3, 67, 0
5, 34464, Note_on_c, 3, 55, 0
5, 34560, Note_on_c, 3, 55, 58
5, 34560, Note_on_c, 3, 67, 58
5, 34704, Note_on_c, 3, 67, 0
5, 34704, Note_on_c, 3, 55, 0
5, 34800, Note_on_c, 3, 55, 58
5, 34800, Note_on_c, 3, 67, 58
5, 34944, Note_on_c, 3, 67, 0
5, 34944, Note_on_c, 3, 55, 0
5, 35040, Note_on_c, 3, 55, 58
5, 35040, Note_on_c, 3, 67, 58
5, 35184, Note_on_c, 3, 67, 0
5, 35184, Note_on_c, 3, 55, 0
5, 36000, Note_on_c, 3, 60, 92
5, 36000, Note_on_c, 3, 72, 92
5, 37632, Note_on_c, 3, 72, 0
5, 37632, Note_on_c, 3, 60, 0
5, 46320, Note_on_c, 3, 55, 92
5, 46320, Note_on_c, 3, 67, 92
5, 46500, Note_on_c, 3, 67, 0
5, 46500, Note_on_c, 3, 55, 0
5, 46560, Note_on_c, 3, 55, 92
5, 46560, Note_on_c, 3, 67, 92
5, 46740, Note_on_c, 3, 67, 0
5, 46740, Note_on_c, 3, 55, 0
5, 46800, Note_on_c, 3, 67, 92
5, 46800, Note_on_c, 3, 55, 92
5, 46980, Note_on_c, 3, 55, 0
5, 46980, Note_on_c, 3, 67, 0
5, 47040, Note_on_c, 3, 67, 92
5, 47040, Note_on_c, 3, 55, 92
5, 47220, Note_on_c, 3, 55, 0
5, 47220, Note_on_c, 3, 67, 0
5, 47280, Note_on_c, 3, 67, 92
5, 47280, Note_on_c, 3, 55, 92
5, 47460, Note_on_c, 3, 55, 0
5, 47460, Note_on_c, 3, 67, 0
5, 47520, Note_on_c, 3, 67, 92
5, 47520, Note_on_c, 3, 55, 92
5, 49140, Note_on_c, 3, 55, 0
5, 49140, Note_on_c, 3, 67, 0
5, 49200, Note_on_c, 3, 55, 70
5, 49200, Note_on_c, 3, 67, 70
5, 49380, Note_on_c, 3, 67, 0
5, 49380, Note_on_c, 3, 55, 0
5, 49440, Note_on_c, 3, 67, 70
5, 49440, Note_on_c, 3, 55, 70
5, 49620, Note_on_c, 3, 55, 0
5, 49620, Note_on_c, 3, 67, 0
5, 49680, Note_on_c, 3, 55, 70
5, 49680, Note_on_c, 3, 67, 70
5, 49860, Note_on_c, 3, 67, 0
5, 49860, Note_on_c, 3, 55, 0
5, 49920, Note_on_c, 3, 67, 70
5, 49920, Note_on_c, 3, 55, 70
5, 50100, Note_on_c, 3, 55, 0
5, 50100, Note_on_c, 3, 67, 0
5, 50160, Note_on_c, 3, 67, 70
5, 50160, Note_on_c, 3, 55, 70
5, 50340, Note_on_c, 3, 55, 0
5, 50340, Note_on_c, 3, 67, 0
5, 50400, Note_on_c, 3, 67, 70
5, 50400, Note_on_c, 3, 55, 70
5, 51552, Note_on_c, 3, 55, 0
5, 51552, Note_on_c, 3, 67, 0
5, 51840, Note_on_c, 3, 60, 58
5, 51840, Note_on_c, 3, 64, 58
5, 52008, Note_on_c, 3, 64, 0
5, 52008, Note_on_c, 3, 60, 0
5, 52080, Note_on_c, 3, 64, 58
5, 52080, Note_on_c, 3, 60, 58
5, 52248, Note_on_c, 3, 60, 0
5, 52248, Note_on_c, 3, 64, 0
5, 52320, Note_on_c, 3, 64, 58
5, 52320, Note_on_c, 3, 60, 58
5, 52488, Note_on_c, 3, 60, 0
5, 52488, Note_on_c, 3, 64, 0
5, 52560, Note_on_c, 3, 60, 58
5, 52560, Note_on_c, 3, 64, 58
5, 52728, Note_on_c, 3, 64, 0
5, 52728, Note_on_c, 3, 60, 0
5, 59280, Note_on_c, 3, 72, 58
5, 59280, Note_on_c, 3, 60, 58
5, 59472, Note_on_c, 3, 60, 0
5, 59472, Note_on_c, 3, 72, 0
5, 59520, Note_on_c, 3, 72, 58
5, 59520, Note_on_c, 3, 60, 58
5, 59712, Note_on_c, 3, 60, 0
5, 59712, Note_on_c, 3, 72, 0
5, 59760, Note_on_c, 3, 60, 58
5, 59760, Note_on_c, 3, 72, 58
5, 59952, Note_on_c, 3, 72, 0
5, 59952, Note_on_c, 3, 60, 0
5, 60000, Note_on_c, 3, 60, 58
5, 60000, Note_on_c, 3, 72, 58
5, 60192, Note_on_c, 3, 72, 0
5, 60192, Note_on_c, 3, 60, 0
5, 60240, Note_on_c, 3, 60, 58
5, 60240, Note_on_c, 3, 72, 58
5, 60432, Note_on_c, 3, 72, 0
5, 60432, Note_on_c, 3, 60, 0
5, 60480, Note_on_c, 3, 60, 92
5, 60480, Note_on_c, 3, 72, 92
5, 61920, Note_on_c, 3, 72, 0
5, 61920, Note_on_c, 3, 60, 0
5, 61920, Note_on_c, 3, 60, 92
5, 61920, Note_on_c, 3, 72, 92
5, 62112, Note_on_c, 3, 72, 0
5, 62112, Note_on_c, 3, 60, 0
5, 62160, Note_on_c, 3, 72, 92
5, 62160, Note_on_c, 3, 60, 92
5, 62352, Note_on_c, 3, 60, 0
5, 62352, Note_on_c, 3, 72, 0
5, 62400, Note_on_c, 3, 60, 92
5, 62400, Note_on_c, 3, 72, 92
5, 62592, Note_on_c, 3, 72, 0
5, 62592, Note_on_c, 3, 60, 0
5, 62640, Note_on_c, 3, 72, 92
5, 62640, Note_on_c, 3, 60, 92
5, 62832, Note_on_c, 3, 60, 0
5, 62832, Note_on_c, 3, 72, 0
5, 62880, Note_on_c, 3, 72, 92
5, 62880, Note_on_c, 3, 60, 92
5, 63072, Note_on_c, 3, 60, 0
5, 63072, Note_on_c, 3, 72, 0
5, 63120, Note_on_c, 3, 60, 92
5, 63120, Note_on_c, 3, 72, 92
5, 63312, Note_on_c, 3, 72, 0
5, 63312, Note_on_c, 3, 60, 0
5, 63360, Note_on_c, 3, 72, 92
5, 63360, Note_on_c, 3, 60, 92
5, 64800, Note_on_c, 3, 60, 0
5, 64800, Note_on_c, 3, 72, 0
5, 64800, Note_on_c, 3, 60, 92
5, 64800, Note_on_c, 3, 72, 92
5, 64992, Note_on_c, 3, 72, 0
5, 64992, Note_on_c, 3, 60, 0
5, 100860, Note_on_c, 3, 60, 70
5, 100860, Note_on_c, 3, 72, 70
5, 103668, Note_on_c, 3, 72, 0
5, 103668, Note_on_c, 3, 60, 0
5, 103740, Note_on_c, 3, 72, 70
5, 103740, Note_on_c, 3, 60, 70
5, 106548, Note_on_c, 3, 60, 0
5, 106548, Note_on_c, 3, 72, 0
5, 109500, Note_on_c, 3, 72, 92
5, 109500, Note_on_c, 3, 60, 92
5, 111084, Note_on_c, 3, 60, 0
5, 111084, Note_on_c, 3, 72, 0
5, 111180, Note_on_c, 3, 72, 92
5, 111180, Note_on_c, 3, 60, 92
5, 111324, Note_on_c, 3, 60, 0
5, 111324, Note_on_c, 3, 72, 0
5, 111420, Note_on_c, 3, 60, 92
5, 111420, Note_on_c, 3, 72, 92
5, 111564, Note_on_c, 3, 72, 0
5, 111564, Note_on_c, 3, 60, 0
5, 111660, Note_on_c, 3, 60, 92
5, 111660, Note_on_c, 3, 72, 92
5, 111804, Note_on_c, 3, 72, 0
5, 111804, Note_on_c, 3, 60, 0
5, 120300, Note_on_c, 3, 60, 92
5, 120300, Note_on_c, 3, 72, 92
5, 120756, Note_on_c, 3, 72, 0
5, 120756, Note_on_c, 3, 60, 0
5, 121740, Note_on_c, 3, 60, 92
5, 121740, Note_on_c, 3, 72, 92
5, 122196, Note_on_c, 3, 72, 0
5, 122196, Note_on_c, 3, 60, 0
5, 129660, Note_on_c, 3, 60, 92
5, 129660, Note_on_c, 3, 72, 58
5, 129828, Note_on_c, 3, 72, 0
5, 129828, Note_on_c, 3, 60, 0
5, 129900, Note_on_c, 3, 72, 58
5, 129900, Note_on_c, 3, 60, 58
5, 130068, Note_on_c, 3, 60, 0
5, 130068, Note_on_c, 3, 72, 0
5, 130140, Note_on_c, 3, 60, 58
5, 130140, Note_on_c, 3, 72, 58
5, 130308, Note_on_c, 3, 72, 0
5, 130308, Note_on_c, 3, 60, 0
5, 130380, Note_on_c, 3, 60, 58
5, 130380, Note_on_c, 3, 72, 58
5, 130548, Note_on_c, 3, 72, 0
5, 130548, Note_on_c, 3, 60, 0
5, 130620, Note_on_c, 3, 60, 58
5, 130620, Note_on_c, 3, 72, 58
5, 130788, Note_on_c, 3, 72, 0
5, 130788, Note_on_c, 3, 60, 0
5, 130860, Note_on_c, 3, 72, 58
5, 130860, Note_on_c, 3, 60, 58
5, 131028, Note_on_c, 3, 60, 0
5, 131028, Note_on_c, 3, 72, 0
5, 131100, Note_on_c, 3, 72, 58
5, 131100, Note_on_c, 3, 60, 58
5, 131268, Note_on_c, 3, 60, 0
5, 131268, Note_on_c, 3, 72, 0
5, 131340, Note_on_c, 3, 60, 58
5, 131340, Note_on_c, 3, 72, 58
5, 131508, Note_on_c, 3, 72, 0
5, 131508, Note_on_c, 3, 60, 0
5, 131580, Note_on_c, 3, 72, 58
5, 131580, Note_on_c, 3, 60, 58
5, 131748, Note_on_c, 3, 60, 0
5, 131748, Note_on_c, 3, 72, 0
5, 131820, Note_on_c, 3, 72, 58
5, 131820, Note_on_c, 3, 60, 58
5, 131988, Note_on_c, 3, 60, 0
5, 131988, Note_on_c, 3, 72, 0
5, 132060, Note_on_c, 3, 72, 58
5, 132060, Note_on_c, 3, 60, 58
5, 132228, Note_on_c, 3, 60, 0
5, 132228, Note_on_c, 3, 72, 0
5, 132300, Note_on_c, 3, 60, 58
5, 132300, Note_on_c, 3, 72, 58
5, 132468, Note_on_c, 3, 72, 0
5, 132468, Note_on_c, 3, 60, 0
5, 132540, Note_on_c, 3, 60, 58
5, 132540, Note_on_c, 3, 72, 58
5, 133116, Note_on_c, 3, 72, 0
5, 133116, Note_on_c, 3, 60, 0
5, 144300, Note_on_c, 3, 72, 92
5, 144300, Note_on_c, 3, 60, 92
5, 144480, Note_on_c, 3, 60, 0
5, 144480, Note_on_c, 3, 72, 0
5, 144540, Note_on_c, 3, 72, 92
5, 144540, Note_on_c, 3, 60, 92
5, 144720, Note_on_c, 3, 60, 0
5, 144720, Note_on_c, 3, 72, 0
5, 144780, Note_on_c, 3, 72, 92
5, 144780, Note_on_c, 3, 60, 92
5, 144960, Note_on_c, 3, 60, 0
5, 144960, Note_on_c, 3, 72, 0
5, 145020, Note_on_c, 3, 72, 92
5, 145020, Note_on_c, 3, 60, 92
5, 145200, Note_on_c, 3, 60, 0
5, 145200, Note_on_c, 3, 72, 0
5, 145260, Note_on_c, 3, 72, 92
5, 145260, Note_on_c, 3, 60, 92
5, 145440, Note_on_c, 3, 60, 0
5, 145440, Note_on_c, 3, 72, 0
5, 145500, Note_on_c, 3, 72, 92
5, 145500, Note_on_c, 3, 60, 92
5, 147120, Note_on_c, 3, 60, 0
5, 147120, Note_on_c, 3, 72, 0
5, 147180, Note_on_c, 3, 60, 70
5, 147180, Note_on_c, 3, 72, 70
5, 147360, Note_on_c, 3, 72, 0
5, 147360, Note_on_c, 3, 60, 0
5, 147420, Note_on_c, 3, 72, 70
5, 147420, Note_on_c, 3, 60, 70
5, 147600, Note_on_c, 3, 60, 0
5, 147600, Note_on_c, 3, 72, 0
5, 147660, Note_on_c, 3, 72, 70
5, 147660, Note_on_c, 3, 60, 70
5, 147840, Note_on_c, 3, 60, 0
5, 147840, Note_on_c, 3, 72, 0
5, 147900, Note_on_c, 3, 72, 70
5, 147900, Note_on_c, 3, 60, 70
5, 148080, Note_on_c, 3, 60, 0
5, 148080, Note_on_c, 3, 72, 0
5, 148140, Note_on_c, 3, 60, 70
5, 148140, Note_on_c, 3, 72, 70
5, 148320, Note_on_c, 3, 72, 0
5, 148320, Note_on_c, 3, 60, 0
5, 148380, Note_on_c, 3, 72, 58
5, 148380, Note_on_c, 3, 60, 58
5, 149988, Note_on_c, 3, 60, 0
5, 149988, Note_on_c, 3, 72, 0
5, 150060, Note_on_c, 3, 72, 58
5, 150060, Note_on_c, 3, 60, 58
5, 150228, Note_on_c, 3, 60, 0
5, 150228, Note_on_c, 3, 72, 0
5, 150300, Note_on_c, 3, 72, 58
5, 150300, Note_on_c, 3, 60, 58
5, 150468, Note_on_c, 3, 60, 0
5, 150468, Note_on_c, 3, 72, 0
5, 150540, Note_on_c, 3, 72, 58
5, 150540, Note_on_c, 3, 60, 58
5, 150756, Note_on_c, 3, 60, 0
5, 150756, Note_on_c, 3, 72, 0
5, 150756, End_track
6, 0, Start_track
6, 0, Sequencer_specific, 04, 43, 00, 01, 00
6, 0, Program_c, 4, 47
6, 0, Control_c, 4, 7, 99
6, 0, Control_c, 4, 91, 70
6, 0, Control_c, 4, 10, 56
6, 7200, Note_on_c, 4, 48, 92
6, 7392, Note_on_c, 4, 48, 0
6, 7920, Note_on_c, 4, 48, 70
6, 8112, Note_on_c, 4, 48, 0
6, 8160, Note_on_c, 4, 48, 70
6, 8352, Note_on_c, 4, 48, 0
6, 8400, Note_on_c, 4, 48, 70
6, 8592, Note_on_c, 4, 48, 0
6, 8640, Note_on_c, 4, 48, 70
6, 9024, Note_on_c, 4, 48, 0
6, 9600, Note_on_c, 4, 48, 70
6, 9792, Note_on_c, 4, 48, 0
6, 9840, Note_on_c, 4, 48, 70
6, 10032, Note_on_c, 4, 48, 0
6, 10080, Note_on_c, 4, 48, 92
6, 10272, Note_on_c, 4, 48, 0
6, 10800, Note_on_c, 4, 48, 70
6, 10992, Note_on_c, 4, 48, 0
6, 11040, Note_on_c, 4, 48, 70
6, 11232, Note_on_c, 4, 48, 0
6, 11280, Note_on_c, 4, 48, 70
6, 11472, Note_on_c, 4, 48, 0
6, 11520, Note_on_c, 4, 48, 70
6, 11904, Note_on_c, 4, 48, 0
6, 23760, Note_on_c, 4, 43, 92
6, 24216, Note_on_c, 4, 43, 0
6, 25200, Note_on_c, 4, 43, 92
6, 25656, Note_on_c, 4, 43, 0
6, 31920, Note_on_c, 4, 43, 58
6, 32112, Note_on_c, 4, 43, 0
6, 32160, Note_on_c, 4, 43, 58
6, 32352, Note_on_c, 4, 43, 0
6, 32400, Note_on_c, 4, 43, 58
6, 32592, Note_on_c, 4, 43, 0
6, 32640, Note_on_c, 4, 43, 58
6, 32832, Note_on_c, 4, 43, 0
6, 32880, Note_on_c, 4, 43, 58
6, 33072, Note_on_c, 4, 43, 0
6, 33120, Note_on_c, 4, 43, 58
6, 33312, Note_on_c, 4, 43, 0
6, 33360, Note_on_c, 4, 43, 58
6, 33552, Note_on_c, 4, 43, 0
6, 33600, Note_on_c, 4, 43, 58
6, 33792, Note_on_c, 4, 43, 0
6, 33840, Note_on_c, 4, 43, 58
6, 34032, Note_on_c, 4, 43, 0
6, 34080, Note_on_c, 4, 43, 58
6, 34272, Note_on_c, 4, 43, 0
6, 34320, Note_on_c, 4, 43, 58
6, 34512, Note_on_c, 4, 43, 0
6, 34560, Note_on_c, 4, 43, 58
6, 34752, Note_on_c, 4, 43, 0
6, 34800, Note_on_c, 4, 43, 58
6, 34992, Note_on_c, 4, 43, 0
6, 35040, Note_on_c, 4, 43, 58
6, 35232, Note_on_c, 4, 43, 0
6, 46320, Note_on_c, 4, 43, 92
6, 46512, Note_on_c, 4, 43, 0
6, 46560, Note_on_c, 4, 43, 92
6, 46752, Note_on_c, 4, 43, 0
6, 46800, Note_on_c, 4, 43, 92
6, 46992, Note_on_c, 4, 43, 0
6, 47040, Note_on_c, 4, 43, 92
6, 47232, Note_on_c, 4, 43, 0
6, 47280, Note_on_c, 4, 43, 92
6, 47472, Note_on_c, 4, 43, 0
6, 47520, Note_on_c, 4, 43, 92
6, 47544, Note_on_c, 4, 43, 0
6, 47550, Note_on_c, 4, 43, 92
6, 47574, Note_on_c, 4, 43, 0
6, 47580, Note_on_c, 4, 43, 92
6, 47604, Note_on_c, 4, 43, 0
6, 47610, Note_on_c, 4, 43, 92
6, 47634, Note_on_c, 4, 43, 0
6, 47640, Note_on_c, 4, 43, 92
6, 47664, Note_on_c, 4, 43, 0
6, 47670, Note_on_c, 4, 43, 92
6, 47694, Note_on_c, 4, 43, 0
6, 47700, Note_on_c, 4, 43, 92
6, 47724, Note_on_c, 4, 43, 0
6, 47730, Note_on_c, 4, 43, 92
6, 47754, Note_on_c, 4, 43, 0
6, 47760, Note_on_c, 4, 43, 92
6, 47784, Note_on_c, 4, 43, 0
6, 47790, Note_on_c, 4, 43, 92
6, 47814, Note_on_c, 4, 43, 0
6, 47820, Note_on_c, 4, 43, 92
6, 47844, Note_on_c, 4, 43, 0
6, 47850, Note_on_c, 4, 43, 92
6, 47874, Note_on_c, 4, 43, 0
6, 47880, Note_on_c, 4, 43, 92
6, 47904, Note_on_c, 4, 43, 0
6, 47910, Note_on_c, 4, 43, 92
6, 47934, Note_on_c, 4, 43, 0
6, 47940, Note_on_c, 4, 43, 92
6, 47964, Note_on_c, 4, 43, 0
6, 47970, Note_on_c, 4, 43, 92
6, 47994, Note_on_c, 4, 43, 0
6, 48000, Note_on_c, 4, 43, 92
6, 48024, Note_on_c, 4, 43, 0
6, 48030, Note_on_c, 4, 43, 92
6, 48054, Note_on_c, 4, 43, 0
6, 48060, Note_on_c, 4, 43, 92
6, 48084, Note_on_c, 4, 43, 0
6, 48090, Note_on_c, 4, 43, 92
6, 48114, Note_on_c, 4, 43, 0
6, 48120, Note_on_c, 4, 43, 92
6, 48144, Note_on_c, 4, 43, 0
6, 48150, Note_on_c, 4, 43, 92
6, 48174, Note_on_c, 4, 43, 0
6, 48180, Note_on_c, 4, 43, 92
6, 48204, Note_on_c, 4, 43, 0
6, 48210, Note_on_c, 4, 43, 92
6, 48234, Note_on_c, 4, 43, 0
6, 48240, Note_on_c, 4, 43, 92
6, 48264, Note_on_c, 4, 43, 0
6, 48270, Note_on_c, 4, 43, 92
6, 48294, Note_on_c, 4, 43, 0
6, 48300, Note_on_c, 4, 43, 92
6, 48324, Note_on_c, 4, 43, 0
6, 48330, Note_on_c, 4, 43, 92
6, 48354, Note_on_c, 4, 43, 0
6, 48360, Note_on_c, 4, 43, 92
6, 48384, Note_on_c, 4, 43, 0
6, 48390, Note_on_c, 4, 43, 92
6, 48414, Note_on_c, 4, 43, 0
6, 48420, Note_on_c, 4, 43, 92
6, 48444, Note_on_c, 4, 43, 0
6, 48450, Note_on_c, 4, 43, 92
6, 48474, Note_on_c, 4, 43, 0
6, 48480, Note_on_c, 4, 43, 92
6, 48504, Note_on_c, 4, 43, 0
6, 48510, Note_on_c, 4, 43, 92
6, 48534, Note_on_c, 4, 43, 0
6, 48540, Note_on_c, 4, 43, 92
6, 48564, Note_on_c, 4, 43, 0
6, 48570, Note_on_c, 4, 43, 92
6, 48594, Note_on_c, 4, 43, 0
6, 48600, Note_on_c, 4, 43, 92
6, 48624, Note_on_c, 4, 43, 0
6, 48630, Note_on_c, 4, 43, 92
6, 48654, Note_on_c, 4, 43, 0
6, 48660, Note_on_c, 4, 43, 92
6, 48684, Note_on_c, 4, 43, 0
6, 48690, Note_on_c, 4, 43, 92
6, 48714, Note_on_c, 4, 43, 0
6, 48720, Note_on_c, 4, 43, 92
6, 48744, Note_on_c, 4, 43, 0
6, 48750, Note_on_c, 4, 43, 92
6, 48774, Note_on_c, 4, 43, 0
6, 48780, Note_on_c, 4, 43, 92
6, 48804, Note_on_c, 4, 43, 0
6, 48810, Note_on_c, 4, 43, 92
6, 48834, Note_on_c, 4, 43, 0
6, 48840, Note_on_c, 4, 43, 92
6, 48864, Note_on_c, 4, 43, 0
6, 48870, Note_on_c, 4, 43, 92
6, 48894, Note_on_c, 4, 43, 0
6, 48900, Note_on_c, 4, 43, 92
6, 48924, Note_on_c, 4, 43, 0
6, 48930, Note_on_c, 4, 43, 92
6, 48954, Note_on_c, 4, 43, 0
6, 48960, Note_on_c, 4, 48, 92
6, 49152, Note_on_c, 4, 48, 0
6, 49200, Note_on_c, 4, 43, 70
6, 49392, Note_on_c, 4, 43, 0
6, 49440, Note_on_c, 4, 43, 70
6, 49632, Note_on_c, 4, 43, 0
6, 49680, Note_on_c, 4, 43, 70
6, 49872, Note_on_c, 4, 43, 0
6, 49920, Note_on_c, 4, 43, 70
6, 50112, Note_on_c, 4, 43, 0
6, 50160, Note_on_c, 4, 43, 70
6, 50352, Note_on_c, 4, 43, 0
6, 50400, Note_on_c, 4, 43, 58
6, 50424, Note_on_c, 4, 43, 0
6, 50430, Note_on_c, 4, 43, 58
6, 50454, Note_on_c, 4, 43, 0
6, 50460, Note_on_c, 4, 43, 58
6, 50484, Note_on_c, 4, 43, 0
6, 50490, Note_on_c, 4, 43, 58
6, 50514, Note_on_c, 4, 43, 0
6, 50520, Note_on_c, 4, 43, 58
6, 50544, Note_on_c, 4, 43, 0
6, 50550, Note_on_c, 4, 43, 58
6, 50574, Note_on_c, 4, 43, 0
6, 50580, Note_on_c, 4, 43, 58
6, 50604, Note_on_c, 4, 43, 0
6, 50610, Note_on_c, 4, 43, 58
6, 50634, Note_on_c, 4, 43, 0
6, 50640, Note_on_c, 4, 43, 58
6, 50664, Note_on_c, 4, 43, 0
6, 50670, Note_on_c, 4, 43, 58
6, 50694, Note_on_c, 4, 43, 0
6, 50700, Note_on_c, 4, 43, 58
6, 50724, Note_on_c, 4, 43, 0
6, 50730, Note_on_c, 4, 43, 58
6, 50754, Note_on_c, 4, 43, 0
6, 50760, Note_on_c, 4, 43, 58
6, 50784, Note_on_c, 4, 43, 0
6, 50790, Note_on_c, 4, 43, 58
6, 50814, Note_on_c, 4, 43, 0
6, 50820, Note_on_c, 4, 43, 58
6, 50844, Note_on_c, 4, 43, 0
6, 50850, Note_on_c, 4, 43, 58
6, 50874, Note_on_c, 4, 43, 0
6, 50880, Note_on_c, 4, 43, 58
6, 50904, Note_on_c, 4, 43, 0
6, 50910, Note_on_c, 4, 43, 58
6, 50934, Note_on_c, 4, 43, 0
6, 50940, Note_on_c, 4, 43, 58
6, 50964, Note_on_c, 4, 43, 0
6, 50970, Note_on_c, 4, 43, 58
6, 50994, Note_on_c, 4, 43, 0
6, 51000, Note_on_c, 4, 43, 58
6, 51024, Note_on_c, 4, 43, 0
6, 51030, Note_on_c, 4, 43, 58
6, 51054, Note_on_c, 4, 43, 0
6, 51060, Note_on_c, 4, 43, 58
6, 51084, Note_on_c, 4, 43, 0
6, 51090, Note_on_c, 4, 43, 58
6, 51114, Note_on_c, 4, 43, 0
6, 51120, Note_on_c, 4, 43, 58
6, 51144, Note_on_c, 4, 43, 0
6, 51150, Note_on_c, 4, 43, 58
6, 51174, Note_on_c, 4, 43, 0
6, 51180, Note_on_c, 4, 43, 58
6, 51204, Note_on_c, 4, 43, 0
6, 51210, Note_on_c, 4, 43, 58
6, 51234, Note_on_c, 4, 43, 0
6, 51240, Note_on_c, 4, 43, 58
6, 51264, Note_on_c, 4, 43, 0
6, 51270, Note_on_c, 4, 43, 58
6, 51294, Note_on_c, 4, 43, 0
6, 51300, Note_on_c, 4, 43, 58
6, 51324, Note_on_c, 4, 43, 0
6, 51330, Note_on_c, 4, 43, 58
6, 51354, Note_on_c, 4, 43, 0
6, 51360, Note_on_c, 4, 43, 58
6, 51384, Note_on_c, 4, 43, 0
6, 51390, Note_on_c, 4, 43, 58
6, 51414, Note_on_c, 4, 43, 0
6, 51420, Note_on_c, 4, 43, 58
6, 51444, Note_on_c, 4, 43, 0
6, 51450, Note_on_c, 4, 43, 58
6, 51474, Note_on_c, 4, 43, 0
6, 51480, Note_on_c, 4, 43, 58
6, 51504, Note_on_c, 4, 43, 0
6, 51510, Note_on_c, 4, 43, 58
6, 51534, Note_on_c, 4, 43, 0
6, 51540, Note_on_c, 4, 43, 58
6, 51564, Note_on_c, 4, 43, 0
6, 51570, Note_on_c, 4, 43, 58
6, 51594, Note_on_c, 4, 43, 0
6, 51600, Note_on_c, 4, 43, 58
6, 51624, Note_on_c, 4, 43, 0
6, 51630, Note_on_c, 4, 43, 58
6, 51654, Note_on_c, 4, 43, 0
6, 51660, Note_on_c, 4, 43, 58
6, 51684, Note_on_c, 4, 43, 0
6, 51690, Note_on_c, 4, 43, 58
6, 51714, Note_on_c, 4, 43, 0
6, 51720, Note_on_c, 4, 43, 58
6, 51744, Note_on_c, 4, 43, 0
6, 51750, Note_on_c, 4, 43, 58
6, 51774, Note_on_c, 4, 43, 0
6, 51780, Note_on_c, 4, 43, 58
6, 51804, Note_on_c, 4, 43, 0
6, 51810, Note_on_c, 4, 43, 58
6, 51834, Note_on_c, 4, 43, 0
6, 51840, Note_on_c, 4, 48, 58
6, 52032, Note_on_c, 4, 48, 0
6, 52080, Note_on_c, 4, 48, 58
6, 52272, Note_on_c, 4, 48, 0
6, 52320, Note_on_c, 4, 48, 58
6, 52512, Note_on_c, 4, 48, 0
6, 52560, Note_on_c, 4, 48, 58
6, 52752, Note_on_c, 4, 48, 0
6, 59280, Note_on_c, 4, 48, 58
6, 59472, Note_on_c, 4, 48, 0
6, 59520, Note_on_c, 4, 48, 58
6, 59712, Note_on_c, 4, 48, 0
6, 59760, Note_on_c, 4, 48, 58
6, 59952, Note_on_c, 4, 48, 0
6, 60000, Note_on_c, 4, 48, 58
6, 60192, Note_on_c, 4, 48, 0
6, 60240, Note_on_c, 4, 48, 58
6, 60432, Note_on_c, 4, 48, 0
6, 60480, Note_on_c, 4, 48, 105
6, 60864, Note_on_c, 4, 48, 0
6, 62160, Note_on_c, 4, 48, 92
6, 62352, Note_on_c, 4, 48, 0
6, 62400, Note_on_c, 4, 48, 92
6, 62592, Note_on_c, 4, 48, 0
6, 62640, Note_on_c, 4, 48, 92
6, 62832, Note_on_c, 4, 48, 0
6, 62880, Note_on_c, 4, 48, 92
6, 63072, Note_on_c, 4, 48, 0
6, 63120, Note_on_c, 4, 48, 92
6, 63312, Note_on_c, 4, 48, 0
6, 63360, Note_on_c, 4, 48, 92
6, 63744, Note_on_c, 4, 48, 0
6, 100860, Note_on_c, 4, 48, 92
6, 101244, Note_on_c, 4, 48, 0
6, 101820, Note_on_c, 4, 48, 92
6, 102012, Note_on_c, 4, 48, 0
6, 102060, Note_on_c, 4, 48, 70
6, 102252, Note_on_c, 4, 48, 0
6, 102300, Note_on_c, 4, 48, 70
6, 102684, Note_on_c, 4, 48, 0
6, 103260, Note_on_c, 4, 48, 70
6, 103452, Note_on_c, 4, 48, 0
6, 103500, Note_on_c, 4, 48, 70
6, 103692, Note_on_c, 4, 48, 0
6, 103740, Note_on_c, 4, 48, 92
6, 104124, Note_on_c, 4, 48, 0
6, 104700, Note_on_c, 4, 48, 92
6, 104892, Note_on_c, 4, 48, 0
6, 104940, Note_on_c, 4, 48, 70
6, 105132, Note_on_c, 4, 48, 0
6, 105180, Note_on_c, 4, 48, 70
6, 105564, Note_on_c, 4, 48, 0
6, 120300, Note_on_c, 4, 48, 70
6, 120756, Note_on_c, 4, 48, 0
6, 121740, Note_on_c, 4, 48, 92
6, 122196, Note_on_c, 4, 48, 0
6, 129660, Note_on_c, 4, 48, 58
6, 129852, Note_on_c, 4, 48, 0
6, 129900, Note_on_c, 4, 48, 58
6, 130092, Note_on_c, 4, 48, 0
6, 130140, Note_on_c, 4, 48, 58
6, 130332, Note_on_c, 4, 48, 0
6, 130380, Note_on_c, 4, 48, 58
6, 130572, Note_on_c, 4, 48, 0
6, 130620, Note_on_c, 4, 48, 58
6, 130812, Note_on_c, 4, 48, 0
6, 130860, Note_on_c, 4, 48, 58
6, 131052, Note_on_c, 4, 48, 0
6, 131100, Note_on_c, 4, 48, 58
6, 131292, Note_on_c, 4, 48, 0
6, 131340, Note_on_c, 4, 48, 58
6, 131532, Note_on_c, 4, 48, 0
6, 131580, Note_on_c, 4, 48, 58
6, 131772, Note_on_c, 4, 48, 0
6, 131820, Note_on_c, 4, 48, 58
6, 132012, Note_on_c, 4, 48, 0
6, 132060, Note_on_c, 4, 48, 58
6, 132252, Note_on_c, 4, 48, 0
6, 132300, Note_on_c, 4, 48, 58
6, 132492, Note_on_c, 4, 48, 0
6, 132540, Note_on_c, 4, 48, 58
6, 132924, Note_on_c, 4, 48, 0
6, 144300, Note_on_c, 4, 48, 92
6, 144480, Note_on_c, 4, 48, 0
6, 144540, Note_on_c, 4, 48, 92
6, 144720, Note_on_c, 4, 48, 0
6, 144780, Note_on_c, 4, 48, 92
6, 144960, Note_on_c, 4, 48, 0
6, 145020, Note_on_c, 4, 48, 92
6, 145200, Note_on_c, 4, 48, 0
6, 145260, Note_on_c, 4, 48, 92
6, 145440, Note_on_c, 4, 48, 0
6, 145500, Note_on_c, 4, 48, 92
6, 145524, Note_on_c, 4, 48, 0
6, 145530, Note_on_c, 4, 48, 92
6, 145554, Note_on_c, 4, 48, 0
6, 145560, Note_on_c, 4, 48, 92
6, 145584, Note_on_c, 4, 48, 0
6, 145590, Note_on_c, 4, 48, 92
6, 145614, Note_on_c, 4, 48, 0
6, 145620, Note_on_c, 4, 48, 92
6, 145644, Note_on_c, 4, 48, 0
6, 145650, Note_on_c, 4, 48, 92
6, 145674, Note_on_c, 4, 48, 0
6, 145680, Note_on_c, 4, 48, 92
6, 145704, Note_on_c, 4, 48, 0
6, 145710, Note_on_c, 4, 48, 92
6, 145734, Note_on_c, 4, 48, 0
6, 145740, Note_on_c, 4, 48, 92
6, 145764, Note_on_c, 4, 48, 0
6, 145770, Note_on_c, 4, 48, 92
6, 145794, Note_on_c, 4, 48, 0
6, 145800, Note_on_c, 4, 48, 92
6, 145824, Note_on_c, 4, 48, 0
6, 145830, Note_on_c, 4, 48, 92
6, 145854, Note_on_c, 4, 48, 0
6, 145860, Note_on_c, 4, 48, 92
6, 145884, Note_on_c, 4, 48, 0
6, 145890, Note_on_c, 4, 48, 92
6, 145914, Note_on_c, 4, 48, 0
6, 145920, Note_on_c, 4, 48, 92
6, 145944, Note_on_c, 4, 48, 0
6, 145950, Note_on_c, 4, 48, 92
6, 145974, Note_on_c, 4, 48, 0
6, 145980, Note_on_c, 4, 48, 92
6, 146004, Note_on_c, 4, 48, 0
6, 146010, Note_on_c, 4, 48, 92
6, 146034, Note_on_c, 4, 48, 0
6, 146040, Note_on_c, 4, 48, 92
6, 146064, Note_on_c, 4, 48, 0
6, 146070, Note_on_c, 4, 48, 92
6, 146094, Note_on_c, 4, 48, 0
6, 146100, Note_on_c, 4, 48, 92
6, 146124, Note_on_c, 4, 48, 0
6, 146130, Note_on_c, 4, 48, 92
6, 146154, Note_on_c, 4, 48, 0
6, 146160, Note_on_c, 4, 48, 92
6, 146184, Note_on_c, 4, 48, 0
6, 146190, Note_on_c, 4, 48, 92
6, 146214, Note_on_c, 4, 48, 0
6, 146220, Note_on_c, 4, 48, 92
6, 146244, Note_on_c, 4, 48, 0
6, 146250, Note_on_c, 4, 48, 92
6, 146274, Note_on_c, 4, 48, 0
6, 146280, Note_on_c, 4, 48, 92
6, 146304, Note_on_c, 4, 48, 0
6, 146310, Note_on_c, 4, 48, 92
6, 146334, Note_on_c, 4, 48, 0
6, 146340, Note_on_c, 4, 48, 92
6, 146364, Note_on_c, 4, 48, 0
6, 146370, Note_on_c, 4, 48, 92
6, 146394, Note_on_c, 4, 48, 0
6, 146400, Note_on_c, 4, 48, 92
6, 146424, Note_on_c, 4, 48, 0
6, 146430, Note_on_c, 4, 48, 92
6, 146454, Note_on_c, 4, 48, 0
6, 146460, Note_on_c, 4, 48, 92
6, 146484, Note_on_c, 4, 48, 0
6, 146490, Note_on_c, 4, 48, 92
6, 146514, Note_on_c, 4, 48, 0
6, 146520, Note_on_c, 4, 48, 92
6, 146544, Note_on_c, 4, 48, 0
6, 146550, Note_on_c, 4, 48, 92
6, 146574, Note_on_c, 4, 48, 0
6, 146580, Note_on_c, 4, 48, 92
6, 146604, Note_on_c, 4, 48, 0
6, 146610, Note_on_c, 4, 48, 92
6, 146634, Note_on_c, 4, 48, 0
6, 146640, Note_on_c, 4, 48, 92
6, 146664, Note_on_c, 4, 48, 0
6, 146670, Note_on_c, 4, 48, 92
6, 146694, Note_on_c, 4, 48, 0
6, 146700, Note_on_c, 4, 48, 92
6, 146724, Note_on_c, 4, 48, 0
6, 146730, Note_on_c, 4, 48, 92
6, 146754, Note_on_c, 4, 48, 0
6, 146760, Note_on_c, 4, 48, 92
6, 146784, Note_on_c, 4, 48, 0
6, 146790, Note_on_c, 4, 48, 92
6, 146814, Note_on_c, 4, 48, 0
6, 146820, Note_on_c, 4, 48, 92
6, 146844, Note_on_c, 4, 48, 0
6, 146850, Note_on_c, 4, 48, 92
6, 146874, Note_on_c, 4, 48, 0
6, 146880, Note_on_c, 4, 48, 92
6, 146904, Note_on_c, 4, 48, 0
6, 146910, Note_on_c, 4, 48, 92
6, 146934, Note_on_c, 4, 48, 0
6, 146940, Note_on_c, 4, 48, 92
6, 147120, Note_on_c, 4, 48, 0
6, 147180, Note_on_c, 4, 48, 70
6, 147360, Note_on_c, 4, 48, 0
6, 147420, Note_on_c, 4, 48, 70
6, 147600, Note_on_c, 4, 48, 0
6, 147660, Note_on_c, 4, 48, 70
6, 147840, Note_on_c, 4, 48, 0
6, 147900, Note_on_c, 4, 48, 70
6, 148080, Note_on_c, 4, 48, 0
6, 148140, Note_on_c, 4, 48, 70
6, 148320, Note_on_c, 4, 48, 0
6, 148380, Note_on_c, 4, 48, 58
6, 148404, Note_on_c, 4, 48, 0
6, 148410, Note_on_c, 4, 48, 58
6, 148434, Note_on_c, 4, 48, 0
6, 148440, Note_on_c, 4, 48, 58
6, 148464, Note_on_c, 4, 48, 0
6, 148470, Note_on_c, 4, 48, 58
6, 148494, Note_on_c, 4, 48, 0
6, 148500, Note_on_c, 4, 48, 58
6, 148524, Note_on_c, 4, 48, 0
6, 148530, Note_on_c, 4, 48, 58
6, 148554, Note_on_c, 4, 48, 0
6, 148560, Note_on_c, 4, 48, 58
6, 148584, Note_on_c, 4, 48, 0
6, 148590, Note_on_c, 4, 48, 58
6, 148614, Note_on_c, 4, 48, 0
6, 148620, Note_on_c, 4, 48, 58
6, 148644, Note_on_c, 4, 48, 0
6, 148650, Note_on_c, 4, 48, 58
6, 148674, Note_on_c, 4, 48, 0
6, 148680, Note_on_c, 4, 48, 58
6, 148704, Note_on_c, 4, 48, 0
6, 148710, Note_on_c, 4, 48, 58
6, 148734, Note_on_c, 4, 48, 0
6, 148740, Note_on_c, 4, 48, 58
6, 148764, Note_on_c, 4, 48, 0
6, 148770, Note_on_c, 4, 48, 58
6, 148794, Note_on_c, 4, 48, 0
6, 148800, Note_on_c, 4, 48, 58
6, 148824, Note_on_c, 4, 48, 0
6, 148830, Note_on_c, 4, 48, 58
6, 148854, Note_on_c, 4, 48, 0
6, 148860, Note_on_c, 4, 48, 58
6, 148884, Note_on_c, 4, 48, 0
6, 148890, Note_on_c, 4, 48, 58
6, 148914, Note_on_c, 4, 48, 0
6, 148920, Note_on_c, 4, 48, 58
6, 148944, Note_on_c, 4, 48, 0
6, 148950, Note_on_c, 4, 48, 58
6, 148974, Note_on_c, 4, 48, 0
6, 148980, Note_on_c, 4, 48, 58
6, 149004, Note_on_c, 4, 48, 0
6, 149010, Note_on_c, 4, 48, 58
6, 149034, Note_on_c, 4, 48, 0
6, 149040, Note_on_c, 4, 48, 58
6, 149064, Note_on_c, 4, 48, 0
6, 149070, Note_on_c, 4, 48, 58
6, 149094, Note_on_c, 4, 48, 0
6, 149100, Note_on_c, 4, 48, 58
6, 149124, Note_on_c, 4, 48, 0
6, 149130, Note_on_c, 4, 48, 58
6, 149154, Note_on_c, 4, 48, 0
6, 149160, Note_on_c, 4, 48, 58
6, 149184, Note_on_c, 4, 48, 0
6, 149190, Note_on_c, 4, 48, 58
6, 149214, Note_on_c, 4, 48, 0
6, 149220, Note_on_c, 4, 48, 58
6, 149244, Note_on_c, 4, 48, 0
6, 149250, Note_on_c, 4, 48, 58
6, 149274, Note_on_c, 4, 48, 0
6, 149280, Note_on_c, 4, 48, 58
6, 149304, Note_on_c, 4, 48, 0
6, 149310, Note_on_c, 4, 48, 58
6, 149334, Note_on_c, 4, 48, 0
6, 149340, Note_on_c, 4, 48, 58
6, 149364, Note_on_c, 4, 48, 0
6, 149370, Note_on_c, 4, 48, 58
6, 149394, Note_on_c, 4, 48, 0
6, 149400, Note_on_c, 4, 48, 58
6, 149424, Note_on_c, 4, 48, 0
6, 149430, Note_on_c, 4, 48, 58
6, 149454, Note_on_c, 4, 48, 0
6, 149460, Note_on_c, 4, 48, 58
6, 149484, Note_on_c, 4, 48, 0
6, 149490, Note_on_c, 4, 48, 58
6, 149514, Note_on_c, 4, 48, 0
6, 149520, Note_on_c, 4, 48, 58
6, 149544, Note_on_c, 4, 48, 0
6, 149550, Note_on_c, 4, 48, 58
6, 149574, Note_on_c, 4, 48, 0
6, 149580, Note_on_c, 4, 48, 58
6, 149604, Note_on_c, 4, 48, 0
6, 149610, Note_on_c, 4, 48, 58
6, 149634, Note_on_c, 4, 48, 0
6, 149640, Note_on_c, 4, 48, 58
6, 149664, Note_on_c, 4, 48, 0
6, 149670, Note_on_c, 4, 48, 58
6, 149694, Note_on_c, 4, 48, 0
6, 149700, Note_on_c, 4, 48, 58
6, 149724, Note_on_c, 4, 48, 0
6, 149730, Note_on_c, 4, 48, 58
6, 149754, Note_on_c, 4, 48, 0
6, 149760, Note_on_c, 4, 48, 58
6, 149784, Note_on_c, 4, 48, 0
6, 149790, Note_on_c, 4, 48, 58
6, 149814, Note_on_c, 4, 48, 0
6, 149820, Note_on_c, 4, 48, 58
6, 149988, Note_on_c, 4, 48, 0
6, 150060, Note_on_c, 4, 48, 58
6, 150228, Note_on_c, 4, 48, 0
6, 150300, Note_on_c, 4, 48, 58
6, 150468, Note_on_c, 4, 48, 0
6, 150540, Note_on_c, 4, 48, 58
6, 150756, Note_on_c, 4, 48, 0
6, 150756, End_track
7, 0, Start_track
7, 0, Sequencer_specific, 04, 43, 00, 01, 00
7, 0, Program_c, 5, 48
7, 0, Control_c, 5, 7, 126
7, 0, Control_c, 5, 10, 28
7, 0, Control_c, 5, 91, 70
7, 1440, Note_on_c, 5, 72, 70
7, 1800, Note_on_c, 5, 72, 0
7, 1800, Note_on_c, 5, 74, 70
7, 1920, Note_on_c, 5, 74, 0
7, 1920, Note_on_c, 5, 72, 70
7, 2148, Note_on_c, 5, 72, 0
7, 2160, Note_on_c, 5, 81, 70
7, 2616, Note_on_c, 5, 81, 0
7, 2640, Note_on_c, 5, 79, 70
7, 2700, Note_on_c, 5, 79, 0
7, 2700, Note_on_c, 5, 77, 70
7, 2760, Note_on_c, 5, 77, 0
7, 2760, Note_on_c, 5, 76, 70
7, 2820, Note_on_c, 5, 76, 0
7, 2820, Note_on_c, 5, 74, 70
7, 2868, Note_on_c, 5, 74, 0
7, 2880, Note_on_c, 5, 72, 70
7, 3120, Note_on_c, 5, 72, 0
7, 3120, Note_on_c, 5, 70, 70
7, 3264, Note_on_c, 5, 70, 0
7, 3360, Note_on_c, 5, 70, 70
7, 3504, Note_on_c, 5, 70, 0
7, 3600, Note_on_c, 5, 70, 58
7, 3744, Note_on_c, 5, 70, 0
7, 3960, Note_on_c, 5, 70, 70
7, 4056, Note_on_c, 5, 70, 0
7, 4080, Note_on_c, 5, 72, 70
7, 4110, Note_on_c, 5, 72, 0
7, 4110, Note_on_c, 5, 70, 70
7, 4140, Note_on_c, 5, 70, 0
7, 4140, Note_on_c, 5, 72, 70
7, 4170, Note_on_c, 5, 72, 0
7, 4170, Note_on_c, 5, 70, 70
7, 4200, Note_on_c, 5, 70, 0
7, 4200, Note_on_c, 5, 72, 70
7, 4230, Note_on_c, 5, 72, 0
7, 4230, Note_on_c, 5, 70, 70
7, 4260, Note_on_c, 5, 70, 0
7, 4260, Note_on_c, 5, 69, 70
7, 4290, Note_on_c, 5, 69, 0
7, 4290, Note_on_c, 5, 70, 70
7, 4314, Note_on_c, 5, 70, 0
7, 4320, Note_on_c, 5, 69, 70
7, 4512, Note_on_c, 5, 69, 0
7, 4680, Note_on_c, 5, 70, 70
7, 4776, Note_on_c, 5, 70, 0
7, 4800, Note_on_c, 5, 72, 70
7, 4830, Note_on_c, 5, 72, 0
7, 4830, Note_on_c, 5, 70, 70
7, 4860, Note_on_c, 5, 70, 0
7, 4860, Note_on_c, 5, 72, 70
7, 4890, Note_on_c, 5, 72, 0
7, 4890, Note_on_c, 5, 70, 70
7, 4920, Note_on_c, 5, 70, 0
7, 4920, Note_on_c, 5, 72, 70
7, 4950, Note_on_c, 5, 72, 0
7, 4950, Note_on_c, 5, 70, 70
7, 4980, Note_on_c, 5, 70, 0
7, 4980, Note_on_c, 5, 69, 70
7, 5010, Note_on_c, 5, 69, 0
7, 5010, Note_on_c, 5, 70, 70
7, 5034, Note_on_c, 5, 70, 0
7, 5040, Note_on_c, 5, 72, 70
7, 5232, Note_on_c, 5, 72, 0
7, 5520, Note_on_c, 5, 74, 70
7, 5712, Note_on_c, 5, 74, 0
7, 5760, Note_on_c, 5, 65, 70
7, 6360, Note_on_c, 5, 65, 0
7, 6360, Note_on_c, 5, 67, 70
7, 6420, Note_on_c, 5, 67, 0
7, 6420, Note_on_c, 5, 65, 70
7, 6480, Note_on_c, 5, 65, 0
7, 6480, Note_on_c, 5, 64, 58
7, 6672, Note_on_c, 5, 64, 0
7, 7200, Note_on_c, 5, 82, 105
7, 7680, Note_on_c, 5, 82, 0
7, 7680, Note_on_c, 5, 81, 80
7, 7740, Note_on_c, 5, 81, 0
7, 7740, Note_on_c, 5, 79, 80
7, 7800, Note_on_c, 5, 79, 0
7, 7800, Note_on_c, 5, 77, 80
7, 7860, Note_on_c, 5, 77, 0
7, 7860, Note_on_c, 5, 76, 80
7, 7908, Note_on_c, 5, 76, 0
7, 7920, Note_on_c, 5, 74, 80
7, 8040, Note_on_c, 5, 74, 0
7, 8040, Note_on_c, 5, 72, 80
7, 8136, Note_on_c, 5, 72, 0
7, 8160, Note_on_c, 5, 72, 80
7, 8352, Note_on_c, 5, 72, 0
7, 8400, Note_on_c, 5, 72, 80
7, 8592, Note_on_c, 5, 72, 0
7, 8640, Note_on_c, 5, 72, 80
7, 8880, Note_on_c, 5, 72, 0
7, 8880, Note_on_c, 5, 77, 80
7, 9120, Note_on_c, 5, 77, 0
7, 9120, Note_on_c, 5, 81, 80
7, 9360, Note_on_c, 5, 81, 0
7, 9360, Note_on_c, 5, 84, 70
7, 9552, Note_on_c, 5, 84, 0
7, 10080, Note_on_c, 5, 82, 105
7, 10440, Note_on_c, 5, 82, 0
7, 10440, Note_on_c, 5, 84, 80
7, 10500, Note_on_c, 5, 84, 0
7, 10500, Note_on_c, 5, 82, 80
7, 10560, Note_on_c, 5, 82, 0
7, 10560, Note_on_c, 5, 81, 80
7, 10620, Note_on_c, 5, 81, 0
7, 10620, Note_on_c, 5, 79, 80
7, 10680, Note_on_c, 5, 79, 0
7, 10680, Note_on_c, 5, 77, 80
7, 10740, Note_on_c, 5, 77, 0
7, 10740, Note_on_c, 5, 76, 80
7, 10788, Note_on_c, 5, 76, 0
7, 10800, Note_on_c, 5, 74, 80
7, 11040, Note_on_c, 5, 74, 0
7, 11040, Note_on_c, 5, 72, 80
7, 11184, Note_on_c, 5, 72, 0
7, 11280, Note_on_c, 5, 72, 80
7, 11424, Note_on_c, 5, 72, 0
7, 11520, Note_on_c, 5, 72, 80
7, 11760, Note_on_c, 5, 72, 0
7, 11760, Note_on_c, 5, 77, 80
7, 12000, Note_on_c, 5, 77, 0
7, 12000, Note_on_c, 5, 81, 80
7, 12240, Note_on_c, 5, 81, 0
7, 12240, Note_on_c, 5, 84, 70
7, 12432, Note_on_c, 5, 84, 0
7, 12960, Note_on_c, 5, 74, 70
7, 13320, Note_on_c, 5, 74, 0
7, 13320, Note_on_c, 5, 75, 70
7, 13440, Note_on_c, 5, 75, 0
7, 13440, Note_on_c, 5, 74, 70
7, 13668, Note_on_c, 5, 74, 0
7, 13680, Note_on_c, 5, 74, 70
7, 13920, Note_on_c, 5, 74, 0
7, 13920, Note_on_c, 5, 70, 70
7, 14160, Note_on_c, 5, 70, 0
7, 14160, Note_on_c, 5, 74, 70
7, 14376, Note_on_c, 5, 74, 0
7, 14400, Note_on_c, 5, 74, 70
7, 14640, Note_on_c, 5, 74, 0
7, 14640, Note_on_c, 5, 72, 70
7, 14784, Note_on_c, 5, 72, 0
7, 14880, Note_on_c, 5, 72, 70
7, 15024, Note_on_c, 5, 72, 0
7, 15120, Note_on_c, 5, 72, 92
7, 15480, Note_on_c, 5, 72, 0
7, 15480, Note_on_c, 5, 74, 105
7, 15600, Note_on_c, 5, 74, 0
7, 15600, Note_on_c, 5, 76, 105
7, 15720, Note_on_c, 5, 76, 0
7, 15720, Note_on_c, 5, 77, 105
7, 15816, Note_on_c, 5, 77, 0
7, 15840, Note_on_c, 5, 65, 105
7, 17040, Note_on_c, 5, 65, 0
7, 17040, Note_on_c, 5, 69, 105
7, 17160, Note_on_c, 5, 69, 0
7, 17160, Note_on_c, 5, 67, 105
7, 17256, Note_on_c, 5, 67, 0
7, 17280, Note_on_c, 5, 65, 105
7, 17424, Note_on_c, 5, 65, 0
7, 17520, Note_on_c, 5, 60, 105
7, 17664, Note_on_c, 5, 60, 0
7, 17760, Note_on_c, 5, 69, 105
7, 17904, Note_on_c, 5, 69, 0
7, 18000, Note_on_c, 5, 65, 105
7, 18144, Note_on_c, 5, 65, 0
7, 18720, Note_on_c, 5, 72, 58
7, 18864, Note_on_c, 5, 72, 0
7, 18960, Note_on_c, 5, 67, 70
7, 19104, Note_on_c, 5, 67, 0
7, 19200, Note_on_c, 5, 76, 70
7, 19344, Note_on_c, 5, 76, 0
7, 19440, Note_on_c, 5, 72, 70
7, 19584, Note_on_c, 5, 72, 0
7, 19760, Note_on_c, 5, 72, 70
7, 19840, Note_on_c, 5, 72, 0
7, 19840, Note_on_c, 5, 71, 70
7, 19920, Note_on_c, 5, 71, 0
7, 19920, Note_on_c, 5, 72, 70
7, 20000, Note_on_c, 5, 72, 0
7, 20000, Note_on_c, 5, 74, 70
7, 20080, Note_on_c, 5, 74, 0
7, 20080, Note_on_c, 5, 76, 70
7, 20144, Note_on_c, 5, 76, 0
7, 20160, Note_on_c, 5, 77, 70
7, 20352, Note_on_c, 5, 77, 0
7, 20480, Note_on_c, 5, 77, 70
7, 20560, Note_on_c, 5, 77, 0
7, 20560, Note_on_c, 5, 76, 70
7, 20640, Note_on_c, 5, 76, 0
7, 20640, Note_on_c, 5, 77, 70
7, 20720, Note_on_c, 5, 77, 0
7, 20720, Note_on_c, 5, 79, 70
7, 20800, Note_on_c, 5, 79, 0
7, 20800, Note_on_c, 5, 81, 70
7, 20864, Note_on_c, 5, 81, 0
7, 20880, Note_on_c, 5, 71, 70
7, 21072, Note_on_c, 5, 71, 0
7, 21200, Note_on_c, 5, 71, 70
7, 21280, Note_on_c, 5, 71, 0
7, 21280, Note_on_c, 5, 69, 70
7, 21360, Note_on_c, 5, 69, 0
7, 21360, Note_on_c, 5, 71, 70
7, 21440, Note_on_c, 5, 71, 0
7, 21440, Note_on_c, 5, 72, 70
7, 21520, Note_on_c, 5, 72, 0
7, 21520, Note_on_c, 5, 74, 70
7, 21584, Note_on_c, 5, 74, 0
7, 21600, Note_on_c, 5, 76, 70
7, 21792, Note_on_c, 5, 76, 0
7, 21920, Note_on_c, 5, 76, 70
7, 22000, Note_on_c, 5, 76, 0
7, 22000, Note_on_c, 5, 74, 70
7, 22080, Note_on_c, 5, 74, 0
7, 22080, Note_on_c, 5, 76, 70
7, 22160, Note_on_c, 5, 76, 0
7, 22160, Note_on_c, 5, 77, 70
7, 22240, Note_on_c, 5, 77, 0
7, 22240, Note_on_c, 5, 79, 70
7, 22304, Note_on_c, 5, 79, 0
7, 22320, Note_on_c, 5, 69, 70
7, 22704, Note_on_c, 5, 69, 0
7, 22800, Note_on_c, 5, 74, 70
7, 22992, Note_on_c, 5, 74, 0
7, 23040, Note_on_c, 5, 72, 70
7, 23520, Note_on_c, 5, 72, 0
7, 23520, Note_on_c, 5, 71, 70
7, 23712, Note_on_c, 5, 71, 0
7, 24240, Note_on_c, 5, 79, 70
7, 24300, Note_on_c, 5, 79, 0
7, 24300, Note_on_c, 5, 77, 80
7, 24360, Note_on_c, 5, 77, 0
7, 24360, Note_on_c, 5, 76, 80
7, 24420, Note_on_c, 5, 76, 0
7, 24420, Note_on_c, 5, 74, 80
7, 24468, Note_on_c, 5, 74, 0
7, 24480, Note_on_c, 5, 72, 70
7, 24840, Note_on_c, 5, 72, 0
7, 24840, Note_on_c, 5, 74, 70
7, 24900, Note_on_c, 5, 74, 0
7, 24900, Note_on_c, 5, 76, 70
7, 24960, Note_on_c, 5, 76, 0
7, 24960, Note_on_c, 5, 74, 70
7, 25152, Note_on_c, 5, 74, 0
7, 25680, Note_on_c, 5, 79, 70
7, 25740, Note_on_c, 5, 79, 0
7, 25740, Note_on_c, 5, 77, 80
7, 25800, Note_on_c, 5, 77, 0
7, 25800, Note_on_c, 5, 76, 80
7, 25860, Note_on_c, 5, 76, 0
7, 25860, Note_on_c, 5, 74, 80
7, 25908, Note_on_c, 5, 74, 0
7, 25920, Note_on_c, 5, 72, 70
7, 26280, Note_on_c, 5, 72, 0
7, 26280, Note_on_c, 5, 74, 70
7, 26340, Note_on_c, 5, 74, 0
7, 26340, Note_on_c, 5, 76, 70
7, 26400, Note_on_c, 5, 76, 0
7, 26400, Note_on_c, 5, 74, 70
7, 26592, Note_on_c, 5, 74, 0
7, 26640, Note_on_c, 5, 79, 105
7, 26820, Note_on_c, 5, 79, 0
7, 26880, Note_on_c, 5, 79, 105
7, 27060, Note_on_c, 5, 79, 0
7, 27120, Note_on_c, 5, 79, 105
7, 27300, Note_on_c, 5, 79, 0
7, 27360, Note_on_c, 5, 79, 105
7, 27840, Note_on_c, 5, 79, 0
7, 27840, Note_on_c, 5, 84, 105
7, 28068, Note_on_c, 5, 84, 0
7, 28080, Note_on_c, 5, 84, 105
7, 28140, Note_on_c, 5, 84, 0
7, 28140, Note_on_c, 5, 82, 105
7, 28284, Note_on_c, 5, 82, 0
7, 28320, Note_on_c, 5, 82, 105
7, 28380, Note_on_c, 5, 82, 0
7, 28380, Note_on_c, 5, 80, 105
7, 28524, Note_on_c, 5, 80, 0
7, 28560, Note_on_c, 5, 80, 105
7, 28620, Note_on_c, 5, 80, 0
7, 28620, Note_on_c, 5, 81, 105
7, 28764, Note_on_c, 5, 81, 0
7, 28800, Note_on_c, 5, 81, 105
7, 28992, Note_on_c, 5, 81, 0
7, 29520, Note_on_c, 5, 73, 70
7, 29640, Note_on_c, 5, 73, 0
7, 29640, Note_on_c, 5, 74, 70
7, 29712, Note_on_c, 5, 74, 0
7, 29760, Note_on_c, 5, 76, 70
7, 29832, Note_on_c, 5, 76, 0
7, 29880, Note_on_c, 5, 77, 70
7, 29952, Note_on_c, 5, 77, 0
7, 30000, Note_on_c, 5, 79, 70
7, 30072, Note_on_c, 5, 79, 0
7, 30120, Note_on_c, 5, 81, 70
7, 30192, Note_on_c, 5, 81, 0
7, 30240, Note_on_c, 5, 81, 70
7, 30360, Note_on_c, 5, 81, 0
7, 30360, Note_on_c, 5, 79, 70
7, 30432, Note_on_c, 5, 79, 0
7, 30480, Note_on_c, 5, 77, 70
7, 30552, Note_on_c, 5, 77, 0
7, 30600, Note_on_c, 5, 76, 70
7, 30672, Note_on_c, 5, 76, 0
7, 30720, Note_on_c, 5, 74, 70
7, 30792, Note_on_c, 5, 74, 0
7, 30840, Note_on_c, 5, 72, 70
7, 30912, Note_on_c, 5, 72, 0
7, 30960, Note_on_c, 5, 72, 70
7, 31440, Note_on_c, 5, 72, 0
7, 31440, Note_on_c, 5, 76, 70
7, 31560, Note_on_c, 5, 76, 0
7, 31560, Note_on_c, 5, 74, 70
7, 31656, Note_on_c, 5, 74, 0
7, 31680, Note_on_c, 5, 72, 70
7, 32064, Note_on_c, 5, 72, 0
7, 32400, Note_on_c, 5, 67, 70
7, 32640, Note_on_c, 5, 67, 0
7, 32640, Note_on_c, 5, 72, 70
7, 32880, Note_on_c, 5, 72, 0
7, 32880, Note_on_c, 5, 71, 70
7, 33108, Note_on_c, 5, 71, 0
7, 33120, Note_on_c, 5, 72, 70
7, 33480, Note_on_c, 5, 72, 0
7, 33480, Note_on_c, 5, 74, 70
7, 33540, Note_on_c, 5, 74, 0
7, 33540, Note_on_c, 5, 75, 70
7, 33600, Note_on_c, 5, 75, 0
7, 33600, Note_on_c, 5, 74, 70
7, 33828, Note_on_c, 5, 74, 0
7, 33840, Note_on_c, 5, 79, 70
7, 34080, Note_on_c, 5, 79, 0
7, 34080, Note_on_c, 5, 72, 70
7, 34320, Note_on_c, 5, 72, 0
7, 34320, Note_on_c, 5, 71, 70
7, 34548, Note_on_c, 5, 71, 0
7, 34560, Note_on_c, 5, 72, 70
7, 34920, Note_on_c, 5, 72, 0
7, 34920, Note_on_c, 5, 74, 70
7, 34980, Note_on_c, 5, 74, 0
7, 34980, Note_on_c, 5, 75, 70
7, 35040, Note_on_c, 5, 75, 0
7, 35040, Note_on_c, 5, 74, 70
7, 35232, Note_on_c, 5, 74, 0
7, 35280, Note_on_c, 5, 79, 105
7, 35460, Note_on_c, 5, 79, 0
7, 35520, Note_on_c, 5, 79, 105
7, 35700, Note_on_c, 5, 79, 0
7, 35760, Note_on_c, 5, 79, 105
7, 35940, Note_on_c, 5, 79, 0
7, 36000, Note_on_c, 5, 79, 105
7, 36480, Note_on_c, 5, 79, 0
7, 36480, Note_on_c, 5, 84, 105
7, 36708, Note_on_c, 5, 84, 0
7, 36720, Note_on_c, 5, 84, 105
7, 36780, Note_on_c, 5, 84, 0
7, 36780, Note_on_c, 5, 82, 105
7, 36924, Note_on_c, 5, 82, 0
7, 36960, Note_on_c, 5, 82, 105
7, 37020, Note_on_c, 5, 82, 0
7, 37020, Note_on_c, 5, 80, 105
7, 37164, Note_on_c, 5, 80, 0
7, 37200, Note_on_c, 5, 80, 105
7, 37260, Note_on_c, 5, 80, 0
7, 37260, Note_on_c, 5, 81, 105
7, 37404, Note_on_c, 5, 81, 0
7, 37440, Note_on_c, 5, 81, 105
7, 37632, Note_on_c, 5, 81, 0
7, 38160, Note_on_c, 5, 81, 70
7, 38280, Note_on_c, 5, 81, 0
7, 38280, Note_on_c, 5, 80, 70
7, 38352, Note_on_c, 5, 80, 0
7, 38400, Note_on_c, 5, 81, 70
7, 38472, Note_on_c, 5, 81, 0
7, 38520, Note_on_c, 5, 83, 70
7, 38592, Note_on_c, 5, 83, 0
7, 38640, Note_on_c, 5, 84, 70
7, 38712, Note_on_c, 5, 84, 0
7, 38760, Note_on_c, 5, 81, 70
7, 38832, Note_on_c, 5, 81, 0
7, 38880, Note_on_c, 5, 78, 70
7, 39000, Note_on_c, 5, 78, 0
7, 39000, Note_on_c, 5, 79, 70
7, 39120, Note_on_c, 5, 79, 0
7, 39120, Note_on_c, 5, 81, 70
7, 39240, Note_on_c, 5, 81, 0
7, 39240, Note_on_c, 5, 79, 70
7, 39360, Note_on_c, 5, 79, 0
7, 39360, Note_on_c, 5, 77, 70
7, 39480, Note_on_c, 5, 77, 0
7, 39480, Note_on_c, 5, 76, 70
7, 39576, Note_on_c, 5, 76, 0
7, 39600, Note_on_c, 5, 76, 70
7, 39720, Note_on_c, 5, 76, 0
7, 39720, Note_on_c, 5, 74, 70
7, 39840, Note_on_c, 5, 74, 0
7, 39840, Note_on_c, 5, 72, 70
7, 40080, Note_on_c, 5, 72, 0
7, 40080, Note_on_c, 5, 71, 70
7, 40308, Note_on_c, 5, 71, 0
7, 40320, Note_on_c, 5, 71, 105
7, 40800, Note_on_c, 5, 71, 0
7, 40800, Note_on_c, 5, 73, 105
7, 41028, Note_on_c, 5, 73, 0
7, 41040, Note_on_c, 5, 73, 105
7, 41520, Note_on_c, 5, 73, 0
7, 41520, Note_on_c, 5, 74, 105
7, 41712, Note_on_c, 5, 74, 0
7, 41760, Note_on_c, 5, 74, 70
7, 41820, Note_on_c, 5, 74, 0
7, 41820, Note_on_c, 5, 76, 70
7, 41880, Note_on_c, 5, 76, 0
7, 41880, Note_on_c, 5, 77, 70
7, 41976, Note_on_c, 5, 77, 0
7, 42240, Note_on_c, 5, 76, 70
7, 42432, Note_on_c, 5, 76, 0
7, 42480, Note_on_c, 5, 76, 70
7, 42600, Note_on_c, 5, 76, 0
7, 42600, Note_on_c, 5, 74, 70
7, 42684, Note_on_c, 5, 74, 0
7, 42720, Note_on_c, 5, 72, 70
7, 42888, Note_on_c, 5, 72, 0
7, 42960, Note_on_c, 5, 71, 70
7, 43128, Note_on_c, 5, 71, 0
7, 43200, Note_on_c, 5, 71, 105
7, 43680, Note_on_c, 5, 71, 0
7, 43680, Note_on_c, 5, 73, 105
7, 43908, Note_on_c, 5, 73, 0
7, 43920, Note_on_c, 5, 73, 105
7, 44400, Note_on_c, 5, 73, 0
7, 44400, Note_on_c, 5, 74, 105
7, 44592, Note_on_c, 5, 74, 0
7, 44640, Note_on_c, 5, 74, 70
7, 44700, Note_on_c, 5, 74, 0
7, 44700, Note_on_c, 5, 76, 70
7, 44760, Note_on_c, 5, 76, 0
7, 44760, Note_on_c, 5, 77, 70
7, 44856, Note_on_c, 5, 77, 0
7, 45120, Note_on_c, 5, 76, 70
7, 45312, Note_on_c, 5, 76, 0
7, 45360, Note_on_c, 5, 76, 70
7, 45480, Note_on_c, 5, 76, 0
7, 45480, Note_on_c, 5, 74, 70
7, 45570, Note_on_c, 5, 74, 0
7, 45600, Note_on_c, 5, 72, 70
7, 45768, Note_on_c, 5, 72, 0
7, 45840, Note_on_c, 5, 71, 70
7, 46008, Note_on_c, 5, 71, 0
7, 46080, Note_on_c, 5, 72, 70
7, 46464, Note_on_c, 5, 72, 0
7, 47520, Note_on_c, 5, 86, 105
7, 48204, Note_on_c, 5, 86, 0
7, 48240, Note_on_c, 5, 84, 105
7, 48270, Note_on_c, 5, 84, 0
7, 48270, Note_on_c, 5, 83, 105
7, 48300, Note_on_c, 5, 83, 0
7, 48300, Note_on_c, 5, 84, 105
7, 48330, Note_on_c, 5, 84, 0
7, 48330, Note_on_c, 5, 83, 105
7, 48360, Note_on_c, 5, 83, 0
7, 48360, Note_on_c, 5, 84, 105
7, 48390, Note_on_c, 5, 84, 0
7, 48390, Note_on_c, 5, 83, 105
7, 48420, Note_on_c, 5, 83, 0
7, 48420, Note_on_c, 5, 84, 105
7, 48450, Note_on_c, 5, 84, 0
7, 48450, Note_on_c, 5, 83, 105
7, 48480, Note_on_c, 5, 83, 0
7, 48480, Note_on_c, 5, 84, 105
7, 48510, Note_on_c, 5, 84, 0
7, 48510, Note_on_c, 5, 83, 105
7, 48540, Note_on_c, 5, 83, 0
7, 48540, Note_on_c, 5, 84, 105
7, 48570, Note_on_c, 5, 84, 0
7, 48570, Note_on_c, 5, 83, 105
7, 48600, Note_on_c, 5, 83, 0
7, 48600, Note_on_c, 5, 84, 105
7, 48630, Note_on_c, 5, 84, 0
7, 48630, Note_on_c, 5, 83, 105
7, 48660, Note_on_c, 5, 83, 0
7, 48660, Note_on_c, 5, 84, 105
7, 48690, Note_on_c, 5, 84, 0
7, 48690, Note_on_c, 5, 83, 105
7, 48720, Note_on_c, 5, 83, 0
7, 48720, Note_on_c, 5, 84, 105
7, 48750, Note_on_c, 5, 84, 0
7, 48750, Note_on_c, 5, 83, 105
7, 48780, Note_on_c, 5, 83, 0
7, 48780, Note_on_c, 5, 84, 105
7, 48810, Note_on_c, 5, 84, 0
7, 48810, Note_on_c, 5, 83, 105
7, 48840, Note_on_c, 5, 83, 0
7, 48840, Note_on_c, 5, 81, 105
7, 48900, Note_on_c, 5, 81, 0
7, 48900, Note_on_c, 5, 83, 105
7, 48948, Note_on_c, 5, 83, 0
7, 48960, Note_on_c, 5, 84, 105
7, 49344, Note_on_c, 5, 84, 0
7, 50400, Note_on_c, 5, 86, 70
7, 51084, Note_on_c, 5, 86, 0
7, 51120, Note_on_c, 5, 84, 70
7, 51150, Note_on_c, 5, 84, 0
7, 51150, Note_on_c, 5, 83, 70
7, 51180, Note_on_c, 5, 83, 0
7, 51180, Note_on_c, 5, 84, 70
7, 51210, Note_on_c, 5, 84, 0
7, 51210, Note_on_c, 5, 83, 70
7, 51240, Note_on_c, 5, 83, 0
7, 51240, Note_on_c, 5, 84, 70
7, 51270, Note_on_c, 5, 84, 0
7, 51270, Note_on_c, 5, 83, 70
7, 51300, Note_on_c, 5, 83, 0
7, 51300, Note_on_c, 5, 84, 70
7, 51330, Note_on_c, 5, 84, 0
7, 51330, Note_on_c, 5, 83, 70
7, 51360, Note_on_c, 5, 83, 0
7, 51360, Note_on_c, 5, 84, 70
7, 51390, Note_on_c, 5, 84, 0
7, 51390, Note_on_c, 5, 83, 70
7, 51420, Note_on_c, 5, 83, 0
7, 51420, Note_on_c, 5, 84, 70
7, 51450, Note_on_c, 5, 84, 0
7, 51450, Note_on_c, 5, 83, 70
7, 51480, Note_on_c, 5, 83, 0
7, 51480, Note_on_c, 5, 84, 70
7, 51510, Note_on_c, 5, 84, 0
7, 51510, Note_on_c, 5, 83, 70
7, 51540, Note_on_c, 5, 83, 0
7, 51540, Note_on_c, 5, 84, 70
7, 51570, Note_on_c, 5, 84, 0
7, 51570, Note_on_c, 5, 83, 70
7, 51600, Note_on_c, 5, 83, 0
7, 51600, Note_on_c, 5, 84, 70
7, 51630, Note_on_c, 5, 84, 0
7, 51630, Note_on_c, 5, 83, 70
7, 51660, Note_on_c, 5, 83, 0
7, 51660, Note_on_c, 5, 84, 70
7, 51690, Note_on_c, 5, 84, 0
7, 51690, Note_on_c, 5, 83, 70
7, 51720, Note_on_c, 5, 83, 0
7, 51720, Note_on_c, 5, 81, 70
7, 51780, Note_on_c, 5, 81, 0
7, 51780, Note_on_c, 5, 83, 70
7, 51828, Note_on_c, 5, 83, 0
7, 51840, Note_on_c, 5, 84, 70
7, 52008, Note_on_c, 5, 84, 0
7, 52080, Note_on_c, 5, 72, 70
7, 52248, Note_on_c, 5, 72, 0
7, 52320, Note_on_c, 5, 72, 70
7, 52488, Note_on_c, 5, 72, 0
7, 52560, Note_on_c, 5, 72, 70
7, 52728, Note_on_c, 5, 72, 0
7, 53280, Note_on_c, 5, 67, 70
7, 53640, Note_on_c, 5, 67, 0
7, 53640, Note_on_c, 5, 69, 70
7, 53760, Note_on_c, 5, 69, 0
7, 53760, Note_on_c, 5, 67, 70
7, 53952, Note_on_c, 5, 67, 0
7, 54000, Note_on_c, 5, 76, 70
7, 54240, Note_on_c, 5, 76, 0
7, 54240, Note_on_c, 5, 74, 70
7, 54480, Note_on_c, 5, 74, 0
7, 54480, Note_on_c, 5, 72, 70
7, 54672, Note_on_c, 5, 72, 0
7, 54720, Note_on_c, 5, 72, 70
7, 54840, Note_on_c, 5, 72, 0
7, 54840, Note_on_c, 5, 71, 70
7, 54912, Note_on_c, 5, 71, 0
7, 54960, Note_on_c, 5, 71, 70
7, 55104, Note_on_c, 5, 71, 0
7, 55200, Note_on_c, 5, 71, 70
7, 55344, Note_on_c, 5, 71, 0
7, 55440, Note_on_c, 5, 71, 70
7, 55584, Note_on_c, 5, 71, 0
7, 55800, Note_on_c, 5, 74, 70
7, 55920, Note_on_c, 5, 74, 0
7, 55920, Note_on_c, 5, 77, 70
7, 56040, Note_on_c, 5, 77, 0
7, 56040, Note_on_c, 5, 74, 70
7, 56136, Note_on_c, 5, 74, 0
7, 56160, Note_on_c, 5, 74, 70
7, 56280, Note_on_c, 5, 74, 0
7, 56280, Note_on_c, 5, 73, 70
7, 56352, Note_on_c, 5, 73, 0
7, 56400, Note_on_c, 5, 73, 70
7, 56544, Note_on_c, 5, 73, 0
7, 56640, Note_on_c, 5, 73, 70
7, 56784, Note_on_c, 5, 73, 0
7, 56880, Note_on_c, 5, 73, 70
7, 57024, Note_on_c, 5, 73, 0
7, 57240, Note_on_c, 5, 76, 70
7, 57360, Note_on_c, 5, 76, 0
7, 57360, Note_on_c, 5, 79, 70
7, 57480, Note_on_c, 5, 79, 0
7, 57480, Note_on_c, 5, 76, 70
7, 57576, Note_on_c, 5, 76, 0
7, 57600, Note_on_c, 5, 74, 70
7, 57792, Note_on_c, 5, 74, 0
7, 57960, Note_on_c, 5, 77, 70
7, 58080, Note_on_c, 5, 77, 0
7, 58080, Note_on_c, 5, 81, 70
7, 58200, Note_on_c, 5, 81, 0
7, 58200, Note_on_c, 5, 77, 70
7, 58296, Note_on_c, 5, 77, 0
7, 58320, Note_on_c, 5, 76, 70
7, 58512, Note_on_c, 5, 76, 0
7, 58680, Note_on_c, 5, 76, 70
7, 58800, Note_on_c, 5, 76, 0
7, 58800, Note_on_c, 5, 77, 70
7, 58920, Note_on_c, 5, 77, 0
7, 58920, Note_on_c, 5, 74, 70
7, 59016, Note_on_c, 5, 74, 0
7, 59040, Note_on_c, 5, 72, 58
7, 59424, Note_on_c, 5, 72, 0
7, 60120, Note_on_c, 5, 76, 80
7, 60240, Note_on_c, 5, 76, 0
7, 60240, Note_on_c, 5, 79, 80
7, 60360, Note_on_c, 5, 79, 0
7, 60360, Note_on_c, 5, 76, 80
7, 60456, Note_on_c, 5, 76, 0
7, 60480, Note_on_c, 5, 80, 105
7, 60672, Note_on_c, 5, 80, 0
7, 60840, Note_on_c, 5, 77, 105
7, 60960, Note_on_c, 5, 77, 0
7, 60960, Note_on_c, 5, 80, 105
7, 61080, Note_on_c, 5, 80, 0
7, 61080, Note_on_c, 5, 77, 105
7, 61176, Note_on_c, 5, 77, 0
7, 61200, Note_on_c, 5, 74, 105
7, 61392, Note_on_c, 5, 74, 0
7, 61560, Note_on_c, 5, 71, 105
7, 61680, Note_on_c, 5, 71, 0
7, 61680, Note_on_c, 5, 74, 105
7, 61800, Note_on_c, 5, 74, 0
7, 61800, Note_on_c, 5, 71, 105
7, 61896, Note_on_c, 5, 71, 0
7, 61920, Note_on_c, 5, 72, 105
7, 62112, Note_on_c, 5, 72, 0
7, 63000, Note_on_c, 5, 76, 105
7, 63120, Note_on_c, 5, 76, 0
7, 63120, Note_on_c, 5, 79, 105
7, 63240, Note_on_c, 5, 79, 0
7, 63240, Note_on_c, 5, 76, 105
7, 63336, Note_on_c, 5, 76, 0
7, 63360, Note_on_c, 5, 80, 105
7, 63552, Note_on_c, 5, 80, 0
7, 63720, Note_on_c, 5, 77, 105
7, 63840, Note_on_c, 5, 77, 0
7, 63840, Note_on_c, 5, 80, 105
7, 63960, Note_on_c, 5, 80, 0
7, 63960, Note_on_c, 5, 77, 105
7, 64056, Note_on_c, 5, 77, 0
7, 64080, Note_on_c, 5, 74, 105
7, 64272, Note_on_c, 5, 74, 0
7, 64440, Note_on_c, 5, 71, 105
7, 64560, Note_on_c, 5, 71, 0
7, 64560, Note_on_c, 5, 74, 105
7, 64680, Note_on_c, 5, 74, 0
7, 64680, Note_on_c, 5, 71, 105
7, 64776, Note_on_c, 5, 71, 0
7, 64800, Note_on_c, 5, 72, 105
7, 64992, Note_on_c, 5, 72, 0
7, 66960, Note_on_c, 5, 73, 78
7, 67680, Note_on_c, 5, 73, 0
7, 67680, Note_on_c, 5, 67, 58
7, 67872, Note_on_c, 5, 67, 0
7, 69840, Note_on_c, 5, 77, 78
7, 70560, Note_on_c, 5, 77, 0
7, 70560, Note_on_c, 5, 76, 70
7, 70800, Note_on_c, 5, 76, 0
7, 70800, Note_on_c, 5, 73, 70
7, 71040, Note_on_c, 5, 73, 0
7, 71040, Note_on_c, 5, 72, 70
7, 71232, Note_on_c, 5, 72, 0
7, 71280, Note_on_c, 5, 72, 70
7, 71400, Note_on_c, 5, 72, 0
7, 71400, Note_on_c, 5, 70, 70
7, 71520, Note_on_c, 5, 70, 0
7, 71520, Note_on_c, 5, 68, 70
7, 71760, Note_on_c, 5, 68, 0
7, 71760, Note_on_c, 5, 67, 70
7, 71988, Note_on_c, 5, 67, 0
7, 72000, Note_on_c, 5, 65, 70
7, 72192, Note_on_c, 5, 65, 0
7, 72360, Note_on_c, 5, 60, 58
7, 72432, Note_on_c, 5, 60, 0
7, 72480, Note_on_c, 5, 62, 58
7, 72552, Note_on_c, 5, 62, 0
7, 72600, Note_on_c, 5, 64, 58
7, 72672, Note_on_c, 5, 64, 0
7, 72720, Note_on_c, 5, 65, 58
7, 72792, Note_on_c, 5, 65, 0
7, 72840, Note_on_c, 5, 67, 58
7, 72912, Note_on_c, 5, 67, 0
7, 72960, Note_on_c, 5, 68, 58
7, 73032, Note_on_c, 5, 68, 0
7, 73080, Note_on_c, 5, 70, 58
7, 73152, Note_on_c, 5, 70, 0
7, 73200, Note_on_c, 5, 72, 58
7, 73272, Note_on_c, 5, 72, 0
7, 73320, Note_on_c, 5, 60, 58
7, 73392, Note_on_c, 5, 60, 0
7, 73440, Note_on_c, 5, 61, 58
7, 73584, Note_on_c, 5, 61, 0
7, 73680, Note_on_c, 5, 73, 58
7, 73824, Note_on_c, 5, 73, 0
7, 73920, Note_on_c, 5, 60, 58
7, 74064, Note_on_c, 5, 60, 0
7, 74160, Note_on_c, 5, 58, 78
7, 74880, Note_on_c, 5, 58, 0
7, 74880, Note_on_c, 5, 60, 58
7, 75072, Note_on_c, 5, 60, 0
7, 75240, Note_on_c, 5, 60, 58
7, 75312, Note_on_c, 5, 60, 0
7, 75360, Note_on_c, 5, 62, 58
7, 75432, Note_on_c, 5, 62, 0
7, 75480, Note_on_c, 5, 64, 58
7, 75552, Note_on_c, 5, 64, 0
7, 75600, Note_on_c, 5, 65, 58
7, 75672, Note_on_c, 5, 65, 0
7, 75720, Note_on_c, 5, 67, 58
7, 75792, Note_on_c, 5, 67, 0
7, 75840, Note_on_c, 5, 68, 58
7, 75912, Note_on_c, 5, 68, 0
7, 75960, Note_on_c, 5, 70, 58
7, 76032, Note_on_c, 5, 70, 0
7, 76080, Note_on_c, 5, 72, 58
7, 76152, Note_on_c, 5, 72, 0
7, 76200, Note_on_c, 5, 60, 58
7, 76272, Note_on_c, 5, 60, 0
7, 76320, Note_on_c, 5, 61, 58
7, 76464, Note_on_c, 5, 61, 0
7, 76560, Note_on_c, 5, 73, 58
7, 76704, Note_on_c, 5, 73, 0
7, 76800, Note_on_c, 5, 60, 58
7, 76944, Note_on_c, 5, 60, 0
7, 77040, Note_on_c, 5, 58, 98
7, 77760, Note_on_c, 5, 58, 0
7, 77760, Note_on_c, 5, 60, 58
7, 78444, Note_on_c, 5, 60, 0
7, 78480, Note_on_c, 5, 63, 70
7, 78600, Note_on_c, 5, 63, 0
7, 78600, Note_on_c, 5, 61, 70
7, 78720, Note_on_c, 5, 61, 0
7, 78720, Note_on_c, 5, 60, 70
7, 78960, Note_on_c, 5, 60, 0
7, 78960, Note_on_c, 5, 58, 70
7, 79176, Note_on_c, 5, 58, 0
7, 79200, Note_on_c, 5, 56, 70
7, 79392, Note_on_c, 5, 56, 0
7, 79560, Note_on_c, 5, 63, 80
7, 79632, Note_on_c, 5, 63, 0
7, 79680, Note_on_c, 5, 65, 80
7, 79752, Note_on_c, 5, 65, 0
7, 79800, Note_on_c, 5, 67, 80
7, 79872, Note_on_c, 5, 67, 0
7, 79920, Note_on_c, 5, 68, 80
7, 79992, Note_on_c, 5, 68, 0
7, 80040, Note_on_c, 5, 70, 80
7, 80112, Note_on_c, 5, 70, 0
7, 80160, Note_on_c, 5, 72, 80
7, 80232, Note_on_c, 5, 72, 0
7, 80280, Note_on_c, 5, 73, 80
7, 80352, Note_on_c, 5, 73, 0
7, 80400, Note_on_c, 5, 75, 80
7, 80472, Note_on_c, 5, 75, 0
7, 80520, Note_on_c, 5, 77, 80
7, 80592, Note_on_c, 5, 77, 0
7, 80640, Note_on_c, 5, 78, 80
7, 80832, Note_on_c, 5, 78, 0
7, 81120, Note_on_c, 5, 75, 80
7, 81360, Note_on_c, 5, 75, 0
7, 81360, Note_on_c, 5, 72, 80
7, 81552, Note_on_c, 5, 72, 0
7, 81840, Note_on_c, 5, 77, 80
7, 82080, Note_on_c, 5, 77, 0
7, 82080, Note_on_c, 5, 74, 80
7, 82272, Note_on_c, 5, 74, 0
7, 82440, Note_on_c, 5, 65, 80
7, 82512, Note_on_c, 5, 65, 0
7, 82560, Note_on_c, 5, 67, 80
7, 82632, Note_on_c, 5, 67, 0
7, 82680, Note_on_c, 5, 69, 80
7, 82752, Note_on_c, 5, 69, 0
7, 82800, Note_on_c, 5, 70, 80
7, 82872, Note_on_c, 5, 70, 0
7, 82920, Note_on_c, 5, 72, 80
7, 82992, Note_on_c, 5, 72, 0
7, 83040, Note_on_c, 5, 74, 80
7, 83112, Note_on_c, 5, 74, 0
7, 83160, Note_on_c, 5, 75, 80
7, 83232, Note_on_c, 5, 75, 0
7, 83280, Note_on_c, 5, 77, 80
7, 83352, Note_on_c, 5, 77, 0
7, 83400, Note_on_c, 5, 79, 80
7, 83472, Note_on_c, 5, 79, 0
7, 83520, Note_on_c, 5, 80, 80
7, 83712, Note_on_c, 5, 80, 0
7, 84000, Note_on_c, 5, 77, 80
7, 84240, Note_on_c, 5, 77, 0
7, 84240, Note_on_c, 5, 74, 80
7, 84432, Note_on_c, 5, 74, 0
7, 84720, Note_on_c, 5, 79, 80
7, 84960, Note_on_c, 5, 79, 0
7, 84960, Note_on_c, 5, 76, 70
7, 85200, Note_on_c, 5, 76, 0
7, 85200, Note_on_c, 5, 72, 70
7, 85440, Note_on_c, 5, 72, 0
7, 85440, Note_on_c, 5, 70, 70
7, 85920, Note_on_c, 5, 70, 0
7, 85920, Note_on_c, 5, 68, 70
7, 86160, Note_on_c, 5, 68, 0
7, 86160, Note_on_c, 5, 67, 70
7, 86640, Note_on_c, 5, 67, 0
7, 86640, Note_on_c, 5, 65, 70
7, 86880, Note_on_c, 5, 65, 0
7, 86880, Note_on_c, 5, 67, 70
7, 87072, Note_on_c, 5, 67, 0
7, 87120, Note_on_c, 5, 67, 90
7, 87600, Note_on_c, 5, 67, 0
7, 87600, Note_on_c, 5, 70, 70
7, 87720, Note_on_c, 5, 70, 0
7, 87720, Note_on_c, 5, 68, 70
7, 87816, Note_on_c, 5, 68, 0
7, 87840, Note_on_c, 5, 67, 70
7, 88080, Note_on_c, 5, 67, 0
7, 88080, Note_on_c, 5, 72, 70
7, 88320, Note_on_c, 5, 72, 0
7, 88320, Note_on_c, 5, 70, 70
7, 88800, Note_on_c, 5, 70, 0
7, 88800, Note_on_c, 5, 68, 70
7, 89040, Note_on_c, 5, 68, 0
7, 89040, Note_on_c, 5, 67, 70
7, 89520, Note_on_c, 5, 67, 0
7, 89520, Note_on_c, 5, 65, 70
7, 89760, Note_on_c, 5, 65, 0
7, 89760, Note_on_c, 5, 67, 70
7, 89952, Note_on_c, 5, 67, 0
7, 90000, Note_on_c, 5, 67, 90
7, 90480, Note_on_c, 5, 67, 0
7, 90480, Note_on_c, 5, 70, 70
7, 90600, Note_on_c, 5, 70, 0
7, 90600, Note_on_c, 5, 68, 70
7, 90696, Note_on_c, 5, 68, 0
7, 90720, Note_on_c, 5, 67, 70
7, 90840, Note_on_c, 5, 67, 0
7, 90840, Note_on_c, 5, 71, 70
7, 90960, Note_on_c, 5, 71, 0
7, 90960, Note_on_c, 5, 72, 70
7, 91080, Note_on_c, 5, 72, 0
7, 91080, Note_on_c, 5, 71, 70
7, 91200, Note_on_c, 5, 71, 0
7, 91200, Note_on_c, 5, 72, 70
7, 91320, Note_on_c, 5, 72, 0
7, 91320, Note_on_c, 5, 71, 70
7, 91440, Note_on_c, 5, 71, 0
7, 91440, Note_on_c, 5, 72, 70
7, 91560, Note_on_c, 5, 72, 0
7, 91560, Note_on_c, 5, 71, 70
7, 91680, Note_on_c, 5, 71, 0
7, 91680, Note_on_c, 5, 72, 70
7, 91800, Note_on_c, 5, 72, 0
7, 91800, Note_on_c, 5, 71, 70
7, 91920, Note_on_c, 5, 71, 0
7, 91920, Note_on_c, 5, 72, 70
7, 92040, Note_on_c, 5, 72, 0
7, 92040, Note_on_c, 5, 71, 70
7, 92136, Note_on_c, 5, 71, 0
7, 92160, Note_on_c, 5, 72, 70
7, 95040, Note_on_c, 5, 72, 0
7, 95100, Note_on_c, 5, 72, 70
7, 95460, Note_on_c, 5, 72, 0
7, 95460, Note_on_c, 5, 74, 70
7, 95580, Note_on_c, 5, 74, 0
7, 95580, Note_on_c, 5, 72, 70
7, 95772, Note_on_c, 5, 72, 0
7, 95820, Note_on_c, 5, 81, 70
7, 96204, Note_on_c, 5, 81, 0
7, 96300, Note_on_c, 5, 79, 70
7, 96360, Note_on_c, 5, 79, 0
7, 96360, Note_on_c, 5, 77, 70
7, 96420, Note_on_c, 5, 77, 0
7, 96420, Note_on_c, 5, 76, 70
7, 96480, Note_on_c, 5, 76, 0
7, 96480, Note_on_c, 5, 74, 70
7, 96528, Note_on_c, 5, 74, 0
7, 96540, Note_on_c, 5, 72, 70
7, 96660, Note_on_c, 5, 72, 0
7, 96660, Note_on_c, 5, 70, 70
7, 96732, Note_on_c, 5, 70, 0
7, 96780, Note_on_c, 5, 70, 70
7, 96924, Note_on_c, 5, 70, 0
7, 97020, Note_on_c, 5, 70, 70
7, 97164, Note_on_c, 5, 70, 0
7, 97260, Note_on_c, 5, 70, 70
7, 97404, Note_on_c, 5, 70, 0
7, 97740, Note_on_c, 5, 70, 70
7, 98100, Note_on_c, 5, 70, 0
7, 98100, Note_on_c, 5, 67, 70
7, 98220, Note_on_c, 5, 67, 0
7, 98220, Note_on_c, 5, 68, 70
7, 98340, Note_on_c, 5, 68, 0
7, 98340, Note_on_c, 5, 69, 70
7, 98460, Note_on_c, 5, 69, 0
7, 98460, Note_on_c, 5, 70, 70
7, 98580, Note_on_c, 5, 70, 0
7, 98580, Note_on_c, 5, 71, 70
7, 98676, Note_on_c, 5, 71, 0
7, 98700, Note_on_c, 5, 72, 70
7, 98820, Note_on_c, 5, 72, 0
7, 98820, Note_on_c, 5, 73, 70
7, 98940, Note_on_c, 5, 73, 0
7, 98940, Note_on_c, 5, 74, 70
7, 99060, Note_on_c, 5, 74, 0
7, 99060, Note_on_c, 5, 69, 70
7, 99180, Note_on_c, 5, 69, 0
7, 99180, Note_on_c, 5, 70, 70
7, 99300, Note_on_c, 5, 70, 0
7, 99300, Note_on_c, 5, 67, 70
7, 99396, Note_on_c, 5, 67, 0
7, 99420, Note_on_c, 5, 65, 70
7, 99900, Note_on_c, 5, 65, 0
7, 99900, Note_on_c, 5, 64, 70
7, 99960, Note_on_c, 5, 64, 0
7, 99960, Note_on_c, 5, 65, 70
7, 100020, Note_on_c, 5, 65, 0
7, 100020, Note_on_c, 5, 67, 70
7, 100080, Note_on_c, 5, 67, 0
7, 100080, Note_on_c, 5, 65, 70
7, 100140, Note_on_c, 5, 65, 0
7, 100140, Note_on_c, 5, 64, 70
7, 100332, Note_on_c, 5, 64, 0
7, 100860, Note_on_c, 5, 82, 105
7, 101340, Note_on_c, 5, 82, 0
7, 101340, Note_on_c, 5, 81, 80
7, 101400, Note_on_c, 5, 81, 0
7, 101400, Note_on_c, 5, 79, 80
7, 101460, Note_on_c, 5, 79, 0
7, 101460, Note_on_c, 5, 77, 80
7, 101520, Note_on_c, 5, 77, 0
7, 101520, Note_on_c, 5, 76, 80
7, 101568, Note_on_c, 5, 76, 0
7, 101580, Note_on_c, 5, 74, 80
7, 101700, Note_on_c, 5, 74, 0
7, 101700, Note_on_c, 5, 72, 80
7, 101796, Note_on_c, 5, 72, 0
7, 101820, Note_on_c, 5, 72, 80
7, 101964, Note_on_c, 5, 72, 0
7, 102060, Note_on_c, 5, 72, 80
7, 102204, Note_on_c, 5, 72, 0
7, 102300, Note_on_c, 5, 72, 80
7, 102540, Note_on_c, 5, 72, 0
7, 102540, Note_on_c, 5, 77, 80
7, 102780, Note_on_c, 5, 77, 0
7, 102780, Note_on_c, 5, 81, 80
7, 103020, Note_on_c, 5, 81, 0
7, 103020, Note_on_c, 5, 84, 80
7, 103212, Note_on_c, 5, 84, 0
7, 103740, Note_on_c, 5, 82, 105
7, 104100, Note_on_c, 5, 82, 0
7, 104100, Note_on_c, 5, 84, 80
7, 104160, Note_on_c, 5, 84, 0
7, 104160, Note_on_c, 5, 82, 80
7, 104220, Note_on_c, 5, 82, 0
7, 104220, Note_on_c, 5, 81, 80
7, 104280, Note_on_c, 5, 81, 0
7, 104280, Note_on_c, 5, 79, 80
7, 104340, Note_on_c, 5, 79, 0
7, 104340, Note_on_c, 5, 77, 80
7, 104400, Note_on_c, 5, 77, 0
7, 104400, Note_on_c, 5, 76, 80
7, 104448, Note_on_c, 5, 76, 0
7, 104460, Note_on_c, 5, 74, 80
7, 104580, Note_on_c, 5, 74, 0
7, 104580, Note_on_c, 5, 72, 80
7, 104676, Note_on_c, 5, 72, 0
7, 104700, Note_on_c, 5, 72, 80
7, 104844, Note_on_c, 5, 72, 0
7, 104940, Note_on_c, 5, 72, 80
7, 105084, Note_on_c, 5, 72, 0
7, 105180, Note_on_c, 5, 72, 80
7, 105252, Note_on_c, 5, 72, 0
7, 105300, Note_on_c, 5, 72, 80
7, 105372, Note_on_c, 5, 72, 0
7, 105420, Note_on_c, 5, 77, 80
7, 105492, Note_on_c, 5, 77, 0
7, 105540, Note_on_c, 5, 77, 80
7, 105612, Note_on_c, 5, 77, 0
7, 105660, Note_on_c, 5, 81, 80
7, 105732, Note_on_c, 5, 81, 0
7, 105780, Note_on_c, 5, 81, 80
7, 105852, Note_on_c, 5, 81, 0
7, 105900, Note_on_c, 5, 84, 80
7, 106092, Note_on_c, 5, 84, 0
7, 106620, Note_on_c, 5, 74, 80
7, 106980, Note_on_c, 5, 74, 0
7, 106980, Note_on_c, 5, 75, 70
7, 107100, Note_on_c, 5, 75, 0
7, 107100, Note_on_c, 5, 74, 70
7, 107328, Note_on_c, 5, 74, 0
7, 107340, Note_on_c, 5, 74, 70
7, 107580, Note_on_c, 5, 74, 0
7, 107580, Note_on_c, 5, 70, 70
7, 107820, Note_on_c, 5, 70, 0
7, 107820, Note_on_c, 5, 74, 70
7, 108048, Note_on_c, 5, 74, 0
7, 108060, Note_on_c, 5, 74, 70
7, 108300, Note_on_c, 5, 74, 0
7, 108300, Note_on_c, 5, 72, 70
7, 108444, Note_on_c, 5, 72, 0
7, 108540, Note_on_c, 5, 72, 80
7, 108684, Note_on_c, 5, 72, 0
7, 108780, Note_on_c, 5, 72, 80
7, 108900, Note_on_c, 5, 72, 0
7, 108900, Note_on_c, 5, 73, 92
7, 109020, Note_on_c, 5, 73, 0
7, 109020, Note_on_c, 5, 74, 92
7, 109140, Note_on_c, 5, 74, 0
7, 109140, Note_on_c, 5, 75, 92
7, 109260, Note_on_c, 5, 75, 0
7, 109260, Note_on_c, 5, 76, 105
7, 109380, Note_on_c, 5, 76, 0
7, 109380, Note_on_c, 5, 77, 105
7, 109476, Note_on_c, 5, 77, 0
7, 109500, Note_on_c, 5, 65, 105
7, 110700, Note_on_c, 5, 65, 0
7, 110700, Note_on_c, 5, 69, 105
7, 110820, Note_on_c, 5, 69, 0
7, 110820, Note_on_c, 5, 67, 105
7, 110916, Note_on_c, 5, 67, 0
7, 110940, Note_on_c, 5, 65, 105
7, 111084, Note_on_c, 5, 65, 0
7, 111180, Note_on_c, 5, 60, 105
7, 111324, Note_on_c, 5, 60, 0
7, 111420, Note_on_c, 5, 69, 105
7, 111564, Note_on_c, 5, 69, 0
7, 111660, Note_on_c, 5, 65, 105
7, 111804, Note_on_c, 5, 65, 0
7, 112380, Note_on_c, 5, 72, 70
7, 112524, Note_on_c, 5, 72, 0
7, 112620, Note_on_c, 5, 67, 70
7, 112764, Note_on_c, 5, 67, 0
7, 112860, Note_on_c, 5, 75, 70
7, 113004, Note_on_c, 5, 75, 0
7, 113100, Note_on_c, 5, 72, 70
7, 113244, Note_on_c, 5, 72, 0
7, 113820, Note_on_c, 5, 78, 105
7, 113964, Note_on_c, 5, 78, 0
7, 114060, Note_on_c, 5, 72, 105
7, 114204, Note_on_c, 5, 72, 0
7, 114300, Note_on_c, 5, 81, 105
7, 114444, Note_on_c, 5, 81, 0
7, 114540, Note_on_c, 5, 78, 105
7, 114684, Note_on_c, 5, 78, 0
7, 114860, Note_on_c, 5, 72, 80
7, 114940, Note_on_c, 5, 72, 0
7, 114940, Note_on_c, 5, 71, 80
7, 115020, Note_on_c, 5, 71, 0
7, 115020, Note_on_c, 5, 72, 80
7, 115100, Note_on_c, 5, 72, 0
7, 115100, Note_on_c, 5, 75, 80
7, 115180, Note_on_c, 5, 75, 0
7, 115180, Note_on_c, 5, 72, 80
7, 115260, Note_on_c, 5, 72, 0
7, 115260, Note_on_c, 5, 71, 80
7, 115452, Note_on_c, 5, 71, 0
7, 115580, Note_on_c, 5, 70, 80
7, 115660, Note_on_c, 5, 70, 0
7, 115660, Note_on_c, 5, 69, 80
7, 115740, Note_on_c, 5, 69, 0
7, 115740, Note_on_c, 5, 70, 80
7, 115820, Note_on_c, 5, 70, 0
7, 115820, Note_on_c, 5, 74, 80
7, 115900, Note_on_c, 5, 74, 0
7, 115900, Note_on_c, 5, 70, 80
7, 115980, Note_on_c, 5, 70, 0
7, 115980, Note_on_c, 5, 79, 80
7, 116172, Note_on_c, 5, 79, 0
7, 116300, Note_on_c, 5, 70, 80
7, 116380, Note_on_c, 5, 70, 0
7, 116380, Note_on_c, 5, 69, 80
7, 116460, Note_on_c, 5, 69, 0
7, 116460, Note_on_c, 5, 70, 80
7, 116540, Note_on_c, 5, 70, 0
7, 116540, Note_on_c, 5, 74, 80
7, 116620, Note_on_c, 5, 74, 0
7, 116620, Note_on_c, 5, 70, 80
7, 116700, Note_on_c, 5, 70, 0
7, 116700, Note_on_c, 5, 69, 80
7, 116892, Note_on_c, 5, 69, 0
7, 117020, Note_on_c, 5, 65, 80
7, 117100, Note_on_c, 5, 65, 0
7, 117100, Note_on_c, 5, 64, 80
7, 117180, Note_on_c, 5, 64, 0
7, 117180, Note_on_c, 5, 65, 80
7, 117260, Note_on_c, 5, 65, 0
7, 117260, Note_on_c, 5, 69, 80
7, 117340, Note_on_c, 5, 69, 0
7, 117340, Note_on_c, 5, 65, 80
7, 117404, Note_on_c, 5, 65, 0
7, 117420, Note_on_c, 5, 77, 80
7, 117600, Note_on_c, 5, 77, 0
7, 117660, Note_on_c, 5, 77, 80
7, 117840, Note_on_c, 5, 77, 0
7, 117900, Note_on_c, 5, 77, 80
7, 118080, Note_on_c, 5, 77, 0
7, 118140, Note_on_c, 5, 77, 70
7, 118380, Note_on_c, 5, 77, 0
7, 118380, Note_on_c, 5, 76, 70
7, 118620, Note_on_c, 5, 76, 0
7, 118620, Note_on_c, 5, 74, 70
7, 118860, Note_on_c, 5, 74, 0
7, 118860, Note_on_c, 5, 72, 70
7, 119100, Note_on_c, 5, 72, 0
7, 119100, Note_on_c, 5, 70, 70
7, 119340, Note_on_c, 5, 70, 0
7, 119340, Note_on_c, 5, 69, 70
7, 119568, Note_on_c, 5, 69, 0
7, 119580, Note_on_c, 5, 72, 70
7, 119700, Note_on_c, 5, 72, 0
7, 119700, Note_on_c, 5, 71, 70
7, 119820, Note_on_c, 5, 71, 0
7, 119820, Note_on_c, 5, 72, 70
7, 119940, Note_on_c, 5, 72, 0
7, 119940, Note_on_c, 5, 69, 70
7, 120060, Note_on_c, 5, 69, 0
7, 120060, Note_on_c, 5, 67, 70
7, 120252, Note_on_c, 5, 67, 0
7, 120780, Note_on_c, 5, 72, 70
7, 120840, Note_on_c, 5, 72, 0
7, 120840, Note_on_c, 5, 70, 80
7, 120900, Note_on_c, 5, 70, 0
7, 120900, Note_on_c, 5, 69, 80
7, 120960, Note_on_c, 5, 69, 0
7, 120960, Note_on_c, 5, 67, 80
7, 121008, Note_on_c, 5, 67, 0
7, 121020, Note_on_c, 5, 65, 80
7, 121380, Note_on_c, 5, 65, 0
7, 121380, Note_on_c, 5, 67, 80
7, 121440, Note_on_c, 5, 67, 0
7, 121440, Note_on_c, 5, 69, 80
7, 121500, Note_on_c, 5, 69, 0
7, 121500, Note_on_c, 5, 67, 80
7, 121692, Note_on_c, 5, 67, 0
7, 122220, Note_on_c, 5, 84, 80
7, 122280, Note_on_c, 5, 84, 0
7, 122280, Note_on_c, 5, 82, 80
7, 122340, Note_on_c, 5, 82, 0
7, 122340, Note_on_c, 5, 81, 80
7, 122400, Note_on_c, 5, 81, 0
7, 122400, Note_on_c, 5, 79, 80
7, 122448, Note_on_c, 5, 79, 0
7, 122460, Note_on_c, 5, 77, 80
7, 122820, Note_on_c, 5, 77, 0
7, 122820, Note_on_c, 5, 79, 80
7, 122880, Note_on_c, 5, 79, 0
7, 122880, Note_on_c, 5, 81, 80
7, 122940, Note_on_c, 5, 81, 0
7, 122940, Note_on_c, 5, 79, 80
7, 123132, Note_on_c, 5, 79, 0
7, 123180, Note_on_c, 5, 72, 80
7, 123348, Note_on_c, 5, 72, 0
7, 123420, Note_on_c, 5, 72, 105
7, 123588, Note_on_c, 5, 72, 0
7, 123660, Note_on_c, 5, 72, 105
7, 123828, Note_on_c, 5, 72, 0
7, 123900, Note_on_c, 5, 72, 105
7, 124380, Note_on_c, 5, 72, 0
7, 124380, Note_on_c, 5, 77, 105
7, 124608, Note_on_c, 5, 77, 0
7, 124620, Note_on_c, 5, 77, 105
7, 124680, Note_on_c, 5, 77, 0
7, 124680, Note_on_c, 5, 75, 105
7, 124824, Note_on_c, 5, 75, 0
7, 124860, Note_on_c, 5, 75, 105
7, 124920, Note_on_c, 5, 75, 0
7, 124920, Note_on_c, 5, 73, 105
7, 125064, Note_on_c, 5, 73, 0
7, 125100, Note_on_c, 5, 73, 105
7, 125160, Note_on_c, 5, 73, 0
7, 125160, Note_on_c, 5, 74, 105
7, 125304, Note_on_c, 5, 74, 0
7, 125340, Note_on_c, 5, 74, 105
7, 125532, Note_on_c, 5, 74, 0
7, 126060, Note_on_c, 5, 66, 70
7, 126180, Note_on_c, 5, 66, 0
7, 126180, Note_on_c, 5, 67, 70
7, 126252, Note_on_c, 5, 67, 0
7, 126300, Note_on_c, 5, 69, 70
7, 126372, Note_on_c, 5, 69, 0
7, 126420, Note_on_c, 5, 70, 70
7, 126492, Note_on_c, 5, 70, 0
7, 126540, Note_on_c, 5, 72, 70
7, 126612, Note_on_c, 5, 72, 0
7, 126660, Note_on_c, 5, 74, 70
7, 126732, Note_on_c, 5, 74, 0
7, 126780, Note_on_c, 5, 74, 70
7, 126900, Note_on_c, 5, 74, 0
7, 126900, Note_on_c, 5, 72, 70
7, 126972, Note_on_c, 5, 72, 0
7, 127020, Note_on_c, 5, 70, 70
7, 127092, Note_on_c, 5, 70, 0
7, 127140, Note_on_c, 5, 69, 70
7, 127212, Note_on_c, 5, 69, 0
7, 127260, Note_on_c, 5, 67, 70
7, 127332, Note_on_c, 5, 67, 0
7, 127380, Note_on_c, 5, 65, 70
7, 127452, Note_on_c, 5, 65, 0
7, 127500, Note_on_c, 5, 65, 70
7, 127980, Note_on_c, 5, 65, 0
7, 127980, Note_on_c, 5, 69, 70
7, 128100, Note_on_c, 5, 69, 0
7, 128100, Note_on_c, 5, 67, 70
7, 128196, Note_on_c, 5, 67, 0
7, 128220, Note_on_c, 5, 65, 110
7, 128676, Note_on_c, 5, 65, 0
7, 128700, Note_on_c, 5, 77, 90
7, 128760, Note_on_c, 5, 77, 0
7, 128760, Note_on_c, 5, 76, 80
7, 128820, Note_on_c, 5, 76, 0
7, 128820, Note_on_c, 5, 77, 80
7, 128880, Note_on_c, 5, 77, 0
7, 128880, Note_on_c, 5, 79, 80
7, 128940, Note_on_c, 5, 79, 0
7, 128940, Note_on_c, 5, 80, 70
7, 129132, Note_on_c, 5, 80, 0
7, 130380, Note_on_c, 5, 72, 70
7, 130620, Note_on_c, 5, 72, 0
7, 130620, Note_on_c, 5, 65, 70
7, 130860, Note_on_c, 5, 65, 0
7, 130860, Note_on_c, 5, 64, 70
7, 131088, Note_on_c, 5, 64, 0
7, 131100, Note_on_c, 5, 65, 70
7, 131460, Note_on_c, 5, 65, 0
7, 131460, Note_on_c, 5, 67, 70
7, 131520, Note_on_c, 5, 67, 0
7, 131520, Note_on_c, 5, 68, 70
7, 131580, Note_on_c, 5, 68, 0
7, 131580, Note_on_c, 5, 67, 70
7, 131808, Note_on_c, 5, 67, 0
7, 131820, Note_on_c, 5, 84, 70
7, 132060, Note_on_c, 5, 84, 0
7, 132060, Note_on_c, 5, 77, 70
7, 132300, Note_on_c, 5, 77, 0
7, 132300, Note_on_c, 5, 76, 70
7, 132528, Note_on_c, 5, 76, 0
7, 132540, Note_on_c, 5, 77, 70
7, 132900, Note_on_c, 5, 77, 0
7, 132900, Note_on_c, 5, 79, 70
7, 132960, Note_on_c, 5, 79, 0
7, 132960, Note_on_c, 5, 80, 70
7, 133020, Note_on_c, 5, 80, 0
7, 133020, Note_on_c, 5, 79, 70
7, 133212, Note_on_c, 5, 79, 0
7, 133260, Note_on_c, 5, 84, 105
7, 133452, Note_on_c, 5, 84, 0
7, 133500, Note_on_c, 5, 84, 105
7, 133692, Note_on_c, 5, 84, 0
7, 133740, Note_on_c, 5, 84, 105
7, 133932, Note_on_c, 5, 84, 0
7, 133980, Note_on_c, 5, 84, 105
7, 134700, Note_on_c, 5, 84, 0
7, 134700, Note_on_c, 5, 85, 105
7, 135384, Note_on_c, 5, 85, 0
7, 135420, Note_on_c, 5, 85, 70
7, 135540, Note_on_c, 5, 85, 0
7, 135540, Note_on_c, 5, 86, 70
7, 135612, Note_on_c, 5, 86, 0
7, 135660, Note_on_c, 5, 86, 70
7, 135732, Note_on_c, 5, 86, 0
7, 135780, Note_on_c, 5, 86, 70
7, 135852, Note_on_c, 5, 86, 0
7, 135900, Note_on_c, 5, 86, 70
7, 135972, Note_on_c, 5, 86, 0
7, 136020, Note_on_c, 5, 86, 70
7, 136092, Note_on_c, 5, 86, 0
7, 136140, Note_on_c, 5, 86, 70
7, 136260, Note_on_c, 5, 86, 0
7, 136260, Note_on_c, 5, 74, 70
7, 136332, Note_on_c, 5, 74, 0
7, 136380, Note_on_c, 5, 77, 70
7, 136452, Note_on_c, 5, 77, 0
7, 136500, Note_on_c, 5, 77, 70
7, 136572, Note_on_c, 5, 77, 0
7, 136620, Note_on_c, 5, 77, 70
7, 136692, Note_on_c, 5, 77, 0
7, 136740, Note_on_c, 5, 77, 70
7, 136812, Note_on_c, 5, 77, 0
7, 136860, Note_on_c, 5, 77, 70
7, 136980, Note_on_c, 5, 77, 0
7, 136980, Note_on_c, 5, 76, 70
7, 137100, Note_on_c, 5, 76, 0
7, 137100, Note_on_c, 5, 74, 70
7, 137220, Note_on_c, 5, 74, 0
7, 137220, Note_on_c, 5, 72, 70
7, 137340, Note_on_c, 5, 72, 0
7, 137340, Note_on_c, 5, 71, 70
7, 137460, Note_on_c, 5, 71, 0
7, 137460, Note_on_c, 5, 72, 70
7, 137556, Note_on_c, 5, 72, 0
7, 137580, Note_on_c, 5, 72, 70
7, 137700, Note_on_c, 5, 72, 0
7, 137700, Note_on_c, 5, 70, 70
7, 137820, Note_on_c, 5, 70, 0
7, 137820, Note_on_c, 5, 69, 70
7, 138060, Note_on_c, 5, 69, 0
7, 138060, Note_on_c, 5, 67, 70
7, 138252, Note_on_c, 5, 67, 0
7, 138300, Note_on_c, 5, 67, 105
7, 138780, Note_on_c, 5, 67, 0
7, 138780, Note_on_c, 5, 66, 105
7, 138972, Note_on_c, 5, 66, 0
7, 139020, Note_on_c, 5, 72, 105
7, 139500, Note_on_c, 5, 72, 0
7, 139500, Note_on_c, 5, 71, 105
7, 139692, Note_on_c, 5, 71, 0
7, 139740, Note_on_c, 5, 70, 70
7, 139800, Note_on_c, 5, 70, 0
7, 139800, Note_on_c, 5, 72, 70
7, 139860, Note_on_c, 5, 72, 0
7, 139860, Note_on_c, 5, 74, 70
7, 139956, Note_on_c, 5, 74, 0
7, 140220, Note_on_c, 5, 72, 70
7, 140412, Note_on_c, 5, 72, 0
7, 140460, Note_on_c, 5, 72, 70
7, 140580, Note_on_c, 5, 72, 0
7, 140580, Note_on_c, 5, 70, 70
7, 140676, Note_on_c, 5, 70, 0
7, 140700, Note_on_c, 5, 69, 70
7, 140868, Note_on_c, 5, 69, 0
7, 140940, Note_on_c, 5, 67, 70
7, 141108, Note_on_c, 5, 67, 0
7, 141180, Note_on_c, 5, 67, 105
7, 141660, Note_on_c, 5, 67, 0
7, 141660, Note_on_c, 5, 66, 105
7, 141852, Note_on_c, 5, 66, 0
7, 141900, Note_on_c, 5, 72, 105
7, 142380, Note_on_c, 5, 72, 0
7, 142380, Note_on_c, 5, 71, 105
7, 142572, Note_on_c, 5, 71, 0
7, 142620, Note_on_c, 5, 70, 70
7, 142680, Note_on_c, 5, 70, 0
7, 142680, Note_on_c, 5, 72, 70
7, 142740, Note_on_c, 5, 72, 0
7, 142740, Note_on_c, 5, 74, 70
7, 142836, Note_on_c, 5, 74, 0
7, 143100, Note_on_c, 5, 72, 70
7, 143292, Note_on_c, 5, 72, 0
7, 143340, Note_on_c, 5, 72, 70
7, 143460, Note_on_c, 5, 72, 0
7, 143460, Note_on_c, 5, 70, 70
7, 143556, Note_on_c, 5, 70, 0
7, 143580, Note_on_c, 5, 69, 70
7, 143748, Note_on_c, 5, 69, 0
7, 143820, Note_on_c, 5, 67, 70
7, 143988, Note_on_c, 5, 67, 0
7, 144060, Note_on_c, 5, 65, 58
7, 144444, Note_on_c, 5, 65, 0
7, 145500, Note_on_c, 5, 84, 125
7, 146184, Note_on_c, 5, 84, 0
7, 146220, Note_on_c, 5, 81, 105
7, 146250, Note_on_c, 5, 81, 0
7, 146250, Note_on_c, 5, 79, 105
7, 146280, Note_on_c, 5, 79, 0
7, 146280, Note_on_c, 5, 81, 105
7, 146310, Note_on_c, 5, 81, 0
7, 146310, Note_on_c, 5, 79, 105
7, 146340, Note_on_c, 5, 79, 0
7, 146340, Note_on_c, 5, 81, 105
7, 146370, Note_on_c, 5, 81, 0
7, 146370, Note_on_c, 5, 79, 105
7, 146400, Note_on_c, 5, 79, 0
7, 146400, Note_on_c, 5, 81, 105
7, 146430, Note_on_c, 5, 81, 0
7, 146430, Note_on_c, 5, 79, 105
7, 146460, Note_on_c, 5, 79, 0
7, 146460, Note_on_c, 5, 81, 105
7, 146490, Note_on_c, 5, 81, 0
7, 146490, Note_on_c, 5, 79, 105
7, 146520, Note_on_c, 5, 79, 0
7, 146520, Note_on_c, 5, 81, 105
7, 146550, Note_on_c, 5, 81, 0
7, 146550, Note_on_c, 5, 79, 105
7, 146580, Note_on_c, 5, 79, 0
7, 146580, Note_on_c, 5, 81, 105
7, 146610, Note_on_c, 5, 81, 0
7, 146610, Note_on_c, 5, 79, 105
7, 146640, Note_on_c, 5, 79, 0
7, 146640, Note_on_c, 5, 81, 105
7, 146670, Note_on_c, 5, 81, 0
7, 146670, Note_on_c, 5, 79, 105
7, 146700, Note_on_c, 5, 79, 0
7, 146700, Note_on_c, 5, 81, 105
7, 146730, Note_on_c, 5, 81, 0
7, 146730, Note_on_c, 5, 79, 105
7, 146760, Note_on_c, 5, 79, 0
7, 146760, Note_on_c, 5, 81, 105
7, 146790, Note_on_c, 5, 81, 0
7, 146790, Note_on_c, 5, 79, 105
7, 146820, Note_on_c, 5, 79, 0
7, 146820, Note_on_c, 5, 77, 105
7, 146880, Note_on_c, 5, 77, 0
7, 146880, Note_on_c, 5, 79, 105
7, 146940, Note_on_c, 5, 79, 0
7, 146940, Note_on_c, 5, 81, 105
7, 147324, Note_on_c, 5, 81, 0
7, 148380, Note_on_c, 5, 79, 70
7, 149064, Note_on_c, 5, 79, 0
7, 149100, Note_on_c, 5, 77, 70
7, 149130, Note_on_c, 5, 77, 0
7, 149130, Note_on_c, 5, 76, 70
7, 149160, Note_on_c, 5, 76, 0
7, 149160, Note_on_c, 5, 77, 70
7, 149190, Note_on_c, 5, 77, 0
7, 149190, Note_on_c, 5, 76, 70
7, 149220, Note_on_c, 5, 76, 0
7, 149220, Note_on_c, 5, 77, 70
7, 149250, Note_on_c, 5, 77, 0
7, 149250, Note_on_c, 5, 76, 70
7, 149280, Note_on_c, 5, 76, 0
7, 149280, Note_on_c, 5, 77, 70
7, 149310, Note_on_c, 5, 77, 0
7, 149310, Note_on_c, 5, 76, 70
7, 149340, Note_on_c, 5, 76, 0
7, 149340, Note_on_c, 5, 77, 70
7, 149370, Note_on_c, 5, 77, 0
7, 149370, Note_on_c, 5, 76, 70
7, 149400, Note_on_c, 5, 76, 0
7, 149400, Note_on_c, 5, 77, 70
7, 149430, Note_on_c, 5, 77, 0
7, 149430, Note_on_c, 5, 76, 70
7, 149460, Note_on_c, 5, 76, 0
7, 149460, Note_on_c, 5, 77, 70
7, 149490, Note_on_c, 5, 77, 0
7, 149490, Note_on_c, 5, 76, 70
7, 149520, Note_on_c, 5, 76, 0
7, 149520, Note_on_c, 5, 77, 70
7, 149550, Note_on_c, 5, 77, 0
7, 149550, Note_on_c, 5, 76, 70
7, 149580, Note_on_c, 5, 76, 0
7, 149580, Note_on_c, 5, 77, 70
7, 149610, Note_on_c, 5, 77, 0
7, 149610, Note_on_c, 5, 76, 70
7, 149640, Note_on_c, 5, 76, 0
7, 149640, Note_on_c, 5, 77, 70
7, 149670, Note_on_c, 5, 77, 0
7, 149670, Note_on_c, 5, 76, 70
7, 149700, Note_on_c, 5, 76, 0
7, 149700, Note_on_c, 5, 74, 70
7, 149760, Note_on_c, 5, 74, 0
7, 149760, Note_on_c, 5, 76, 70
7, 149820, Note_on_c, 5, 76, 0
7, 149820, Note_on_c, 5, 77, 70
7, 149988, Note_on_c, 5, 77, 0
7, 150060, Note_on_c, 5, 65, 58
7, 150060, Note_on_c, 5, 57, 58
7, 150228, Note_on_c, 5, 57, 0
7, 150228, Note_on_c, 5, 65, 0
7, 150300, Note_on_c, 5, 57, 58
7, 150300, Note_on_c, 5, 65, 58
7, 150468, Note_on_c, 5, 65, 0
7, 150468, Note_on_c, 5, 57, 0
7, 150540, Note_on_c, 5, 65, 58
7, 150540, Note_on_c, 5, 57, 58
7, 150756, Note_on_c, 5, 57, 0
7, 150756, Note_on_c, 5, 65, 0
7, 150756, End_track
8, 0, Start_track
8, 0, Sequencer_specific, 04, 43, 00, 01, 00
8, 0, Program_c, 6, 48
8, 0, Control_c, 6, 7, 123
8, 0, Control_c, 6, 91, 70
8, 0, Control_c, 6, 10, 40
8, 1440, Note_on_c, 6, 69, 70
8, 1728, Note_on_c, 6, 69, 0
8, 1800, Note_on_c, 6, 70, 70
8, 1896, Note_on_c, 6, 70, 0
8, 1920, Note_on_c, 6, 69, 70
8, 2148, Note_on_c, 6, 69, 0
8, 2160, Note_on_c, 6, 72, 70
8, 2544, Note_on_c, 6, 72, 0
8, 2640, Note_on_c, 6, 69, 70
8, 2832, Note_on_c, 6, 69, 0
8, 2880, Note_on_c, 6, 62, 70
8, 3264, Note_on_c, 6, 62, 0
8, 3360, Note_on_c, 6, 62, 70
8, 3552, Note_on_c, 6, 62, 0
8, 3600, Note_on_c, 6, 60, 70
8, 3792, Note_on_c, 6, 60, 0
8, 4080, Note_on_c, 6, 67, 70
8, 4272, Note_on_c, 6, 67, 0
8, 4320, Note_on_c, 6, 65, 70
8, 4512, Note_on_c, 6, 65, 0
8, 4800, Note_on_c, 6, 65, 70
8, 4992, Note_on_c, 6, 65, 0
8, 5040, Note_on_c, 6, 65, 70
8, 5232, Note_on_c, 6, 65, 0
8, 5520, Note_on_c, 6, 65, 70
8, 5712, Note_on_c, 6, 65, 0
8, 5760, Note_on_c, 6, 57, 70
8, 6000, Note_on_c, 6, 57, 0
8, 6000, Note_on_c, 6, 58, 70
8, 6240, Note_on_c, 6, 58, 0
8, 6240, Note_on_c, 6, 59, 70
8, 6480, Note_on_c, 6, 59, 0
8, 6480, Note_on_c, 6, 60, 58
8, 6672, Note_on_c, 6, 60, 0
8, 7200, Note_on_c, 6, 64, 110
8, 7320, Note_on_c, 6, 64, 0
8, 7320, Note_on_c, 6, 60, 70
8, 7440, Note_on_c, 6, 60, 0
8, 7440, Note_on_c, 6, 58, 70
8, 7560, Note_on_c, 6, 58, 0
8, 7560, Note_on_c, 6, 60, 70
8, 7680, Note_on_c, 6, 60, 0
8, 7680, Note_on_c, 6, 64, 70
8, 7800, Note_on_c, 6, 64, 0
8, 7800, Note_on_c, 6, 60, 70
8, 7896, Note_on_c, 6, 60, 0
8, 7920, Note_on_c, 6, 64, 70
8, 8040, Note_on_c, 6, 64, 0
8, 8040, Note_on_c, 6, 60, 70
8, 8160, Note_on_c, 6, 60, 0
8, 8160, Note_on_c, 6, 58, 70
8, 8280, Note_on_c, 6, 58, 0
8, 8280, Note_on_c, 6, 60, 70
8, 8400, Note_on_c, 6, 60, 0
8, 8400, Note_on_c, 6, 64, 70
8, 8520, Note_on_c, 6, 64, 0
8, 8520, Note_on_c, 6, 60, 70
8, 8616, Note_on_c, 6, 60, 0
8, 8640, Note_on_c, 6, 65, 70
8, 8760, Note_on_c, 6, 65, 0
8, 8760, Note_on_c, 6, 60, 70
8, 8880, Note_on_c, 6, 60, 0
8, 8880, Note_on_c, 6, 57, 70
8, 9000, Note_on_c, 6, 57, 0
8, 9000, Note_on_c, 6, 60, 70
8, 9120, Note_on_c, 6, 60, 0
8, 9120, Note_on_c, 6, 65, 70
8, 9240, Note_on_c, 6, 65, 0
8, 9240, Note_on_c, 6, 60, 70
8, 9336, Note_on_c, 6, 60, 0
8, 9360, Note_on_c, 6, 69, 70
8, 9480, Note_on_c, 6, 69, 0
8, 9480, Note_on_c, 6, 65, 70
8, 9600, Note_on_c, 6, 65, 0
8, 9600, Note_on_c, 6, 60, 70
8, 9720, Note_on_c, 6, 60, 0
8, 9720, Note_on_c, 6, 65, 70
8, 9840, Note_on_c, 6, 65, 0
8, 9840, Note_on_c, 6, 69, 70
8, 9960, Note_on_c, 6, 69, 0
8, 9960, Note_on_c, 6, 65, 70
8, 10056, Note_on_c, 6, 65, 0
8, 10080, Note_on_c, 6, 64, 70
8, 10200, Note_on_c, 6, 64, 0
8, 10200, Note_on_c, 6, 60, 110
8, 10320, Note_on_c, 6, 60, 0
8, 10320, Note_on_c, 6, 58, 70
8, 10440, Note_on_c, 6, 58, 0
8, 10440, Note_on_c, 6, 60, 70
8, 10560, Note_on_c, 6, 60, 0
8, 10560, Note_on_c, 6, 64, 70
8, 10680, Note_on_c, 6, 64, 0
8, 10680, Note_on_c, 6, 60, 70
8, 10776, Note_on_c, 6, 60, 0
8, 10800, Note_on_c, 6, 64, 70
8, 10920, Note_on_c, 6, 64, 0
8, 10920, Note_on_c, 6, 60, 70
8, 11040, Note_on_c, 6, 60, 0
8, 11040, Note_on_c, 6, 58, 70
8, 11160, Note_on_c, 6, 58, 0
8, 11160, Note_on_c, 6, 60, 70
8, 11280, Note_on_c, 6, 60, 0
8, 11280, Note_on_c, 6, 64, 70
8, 11400, Note_on_c, 6, 64, 0
8, 11400, Note_on_c, 6, 60, 70
8, 11496, Note_on_c, 6, 60, 0
8, 11520, Note_on_c, 6, 65, 70
8, 11640, Note_on_c, 6, 65, 0
8, 11640, Note_on_c, 6, 60, 70
8, 11760, Note_on_c, 6, 60, 0
8, 11760, Note_on_c, 6, 57, 70
8, 11880, Note_on_c, 6, 57, 0
8, 11880, Note_on_c, 6, 60, 70
8, 12000, Note_on_c, 6, 60, 0
8, 12000, Note_on_c, 6, 65, 70
8, 12120, Note_on_c, 6, 65, 0
8, 12120, Note_on_c, 6, 60, 70
8, 12216, Note_on_c, 6, 60, 0
8, 12240, Note_on_c, 6, 69, 70
8, 12360, Note_on_c, 6, 69, 0
8, 12360, Note_on_c, 6, 65, 70
8, 12480, Note_on_c, 6, 65, 0
8, 12480, Note_on_c, 6, 60, 70
8, 12600, Note_on_c, 6, 60, 0
8, 12600, Note_on_c, 6, 65, 70
8, 12720, Note_on_c, 6, 65, 0
8, 12720, Note_on_c, 6, 69, 70
8, 12840, Note_on_c, 6, 69, 0
8, 12840, Note_on_c, 6, 72, 70
8, 12936, Note_on_c, 6, 72, 0
8, 12960, Note_on_c, 6, 72, 58
8, 13680, Note_on_c, 6, 72, 0
8, 13680, Note_on_c, 6, 70, 58
8, 14364, Note_on_c, 6, 70, 0
8, 14400, Note_on_c, 6, 70, 70
8, 14592, Note_on_c, 6, 70, 0
8, 14640, Note_on_c, 6, 70, 70
8, 14832, Note_on_c, 6, 70, 0
8, 14880, Note_on_c, 6, 70, 70
8, 15072, Note_on_c, 6, 70, 0
8, 15120, Note_on_c, 6, 69, 80
8, 15312, Note_on_c, 6, 69, 0
8, 15840, Note_on_c, 6, 57, 105
8, 15960, Note_on_c, 6, 57, 0
8, 15960, Note_on_c, 6, 60, 105
8, 16080, Note_on_c, 6, 60, 0
8, 16080, Note_on_c, 6, 57, 105
8, 16200, Note_on_c, 6, 57, 0
8, 16200, Note_on_c, 6, 60, 105
8, 16320, Note_on_c, 6, 60, 0
8, 16320, Note_on_c, 6, 57, 105
8, 16440, Note_on_c, 6, 57, 0
8, 16440, Note_on_c, 6, 60, 105
8, 16560, Note_on_c, 6, 60, 0
8, 16560, Note_on_c, 6, 58, 105
8, 16680, Note_on_c, 6, 58, 0
8, 16680, Note_on_c, 6, 60, 105
8, 16800, Note_on_c, 6, 60, 0
8, 16800, Note_on_c, 6, 58, 105
8, 16920, Note_on_c, 6, 58, 0
8, 16920, Note_on_c, 6, 60, 105
8, 17040, Note_on_c, 6, 60, 0
8, 17040, Note_on_c, 6, 58, 105
8, 17160, Note_on_c, 6, 58, 0
8, 17160, Note_on_c, 6, 60, 105
8, 17256, Note_on_c, 6, 60, 0
8, 17280, Note_on_c, 6, 57, 105
8, 17424, Note_on_c, 6, 57, 0
8, 17520, Note_on_c, 6, 60, 105
8, 17664, Note_on_c, 6, 60, 0
8, 17760, Note_on_c, 6, 60, 105
8, 17904, Note_on_c, 6, 60, 0
8, 18000, Note_on_c, 6, 60, 92
8, 18144, Note_on_c, 6, 60, 0
8, 18720, Note_on_c, 6, 67, 58
8, 18864, Note_on_c, 6, 67, 0
8, 18960, Note_on_c, 6, 67, 58
8, 19104, Note_on_c, 6, 67, 0
8, 19200, Note_on_c, 6, 67, 58
8, 19344, Note_on_c, 6, 67, 0
8, 19440, Note_on_c, 6, 67, 58
8, 19584, Note_on_c, 6, 67, 0
8, 20400, Note_on_c, 6, 69, 58
8, 20592, Note_on_c, 6, 69, 0
8, 21120, Note_on_c, 6, 65, 58
8, 21312, Note_on_c, 6, 65, 0
8, 21840, Note_on_c, 6, 64, 58
8, 22032, Note_on_c, 6, 64, 0
8, 22560, Note_on_c, 6, 62, 70
8, 22800, Note_on_c, 6, 62, 0
8, 22800, Note_on_c, 6, 69, 70
8, 23028, Note_on_c, 6, 69, 0
8, 23040, Note_on_c, 6, 64, 70
8, 23520, Note_on_c, 6, 64, 0
8, 23520, Note_on_c, 6, 62, 70
8, 23712, Note_on_c, 6, 62, 0
8, 24240, Note_on_c, 6, 71, 70
8, 24432, Note_on_c, 6, 71, 0
8, 24480, Note_on_c, 6, 72, 70
8, 24960, Note_on_c, 6, 72, 0
8, 24960, Note_on_c, 6, 71, 70
8, 25152, Note_on_c, 6, 71, 0
8, 25680, Note_on_c, 6, 71, 70
8, 25872, Note_on_c, 6, 71, 0
8, 25920, Note_on_c, 6, 72, 70
8, 26400, Note_on_c, 6, 72, 0
8, 26400, Note_on_c, 6, 71, 70
8, 26592, Note_on_c, 6, 71, 0
8, 27360, Note_on_c, 6, 67, 105
8, 27480, Note_on_c, 6, 67, 0
8, 27480, Note_on_c, 6, 72, 105
8, 27600, Note_on_c, 6, 72, 0
8, 27600, Note_on_c, 6, 67, 105
8, 27720, Note_on_c, 6, 67, 0
8, 27720, Note_on_c, 6, 72, 105
8, 27840, Note_on_c, 6, 72, 0
8, 27840, Note_on_c, 6, 67, 105
8, 27960, Note_on_c, 6, 67, 0
8, 27960, Note_on_c, 6, 72, 105
8, 28056, Note_on_c, 6, 72, 0
8, 28080, Note_on_c, 6, 70, 105
8, 28200, Note_on_c, 6, 70, 0
8, 28200, Note_on_c, 6, 72, 105
8, 28320, Note_on_c, 6, 72, 0
8, 28320, Note_on_c, 6, 70, 105
8, 28440, Note_on_c, 6, 70, 0
8, 28440, Note_on_c, 6, 72, 105
8, 28560, Note_on_c, 6, 72, 0
8, 28560, Note_on_c, 6, 70, 105
8, 28680, Note_on_c, 6, 70, 0
8, 28680, Note_on_c, 6, 72, 105
8, 28776, Note_on_c, 6, 72, 0
8, 28800, Note_on_c, 6, 69, 92
8, 28992, Note_on_c, 6, 69, 0
8, 29520, Note_on_c, 6, 61, 70
8, 29640, Note_on_c, 6, 61, 0
8, 29640, Note_on_c, 6, 62, 70
8, 29712, Note_on_c, 6, 62, 0
8, 29760, Note_on_c, 6, 64, 70
8, 29832, Note_on_c, 6, 64, 0
8, 29880, Note_on_c, 6, 65, 70
8, 29952, Note_on_c, 6, 65, 0
8, 30000, Note_on_c, 6, 67, 70
8, 30072, Note_on_c, 6, 67, 0
8, 30120, Note_on_c, 6, 69, 70
8, 30192, Note_on_c, 6, 69, 0
8, 30240, Note_on_c, 6, 69, 70
8, 30360, Note_on_c, 6, 69, 0
8, 30360, Note_on_c, 6, 67, 70
8, 30432, Note_on_c, 6, 67, 0
8, 30480, Note_on_c, 6, 65, 70
8, 30552, Note_on_c, 6, 65, 0
8, 30600, Note_on_c, 6, 64, 70
8, 30672, Note_on_c, 6, 64, 0
8, 30720, Note_on_c, 6, 62, 70
8, 30792, Note_on_c, 6, 62, 0
8, 30840, Note_on_c, 6, 60, 70
8, 30912, Note_on_c, 6, 60, 0
8, 30960, Note_on_c, 6, 60, 70
8, 31080, Note_on_c, 6, 60, 0
8, 31080, Note_on_c, 6, 64, 70
8, 31200, Note_on_c, 6, 64, 0
8, 31200, Note_on_c, 6, 67, 70
8, 31320, Note_on_c, 6, 67, 0
8, 31320, Note_on_c, 6, 64, 70
8, 31440, Note_on_c, 6, 64, 0
8, 31440, Note_on_c, 6, 67, 70
8, 31560, Note_on_c, 6, 67, 0
8, 31560, Note_on_c, 6, 65, 70
8, 31656, Note_on_c, 6, 65, 0
8, 31680, Note_on_c, 6, 64, 70
8, 32064, Note_on_c, 6, 64, 0
8, 32400, Note_on_c, 6, 63, 70
8, 32464, Note_on_c, 6, 63, 0
8, 32480, Note_on_c, 6, 60, 70
8, 32544, Note_on_c, 6, 60, 0
8, 32560, Note_on_c, 6, 63, 70
8, 32624, Note_on_c, 6, 63, 0
8, 32640, Note_on_c, 6, 67, 70
8, 32704, Note_on_c, 6, 67, 0
8, 32720, Note_on_c, 6, 63, 70
8, 32784, Note_on_c, 6, 63, 0
8, 32800, Note_on_c, 6, 67, 70
8, 32864, Note_on_c, 6, 67, 0
8, 32880, Note_on_c, 6, 65, 70
8, 32944, Note_on_c, 6, 65, 0
8, 32960, Note_on_c, 6, 62, 70
8, 33024, Note_on_c, 6, 62, 0
8, 33040, Note_on_c, 6, 65, 70
8, 33104, Note_on_c, 6, 65, 0
8, 33120, Note_on_c, 6, 63, 70
8, 33184, Note_on_c, 6, 63, 0
8, 33200, Note_on_c, 6, 67, 70
8, 33264, Note_on_c, 6, 67, 0
8, 33280, Note_on_c, 6, 65, 70
8, 33344, Note_on_c, 6, 65, 0
8, 33360, Note_on_c, 6, 63, 70
8, 33424, Note_on_c, 6, 63, 0
8, 33440, Note_on_c, 6, 62, 70
8, 33504, Note_on_c, 6, 62, 0
8, 33520, Note_on_c, 6, 60, 70
8, 33584, Note_on_c, 6, 60, 0
8, 33600, Note_on_c, 6, 59, 70
8, 33664, Note_on_c, 6, 59, 0
8, 33680, Note_on_c, 6, 57, 70
8, 33744, Note_on_c, 6, 57, 0
8, 33760, Note_on_c, 6, 55, 70
8, 33824, Note_on_c, 6, 55, 0
8, 33840, Note_on_c, 6, 63, 70
8, 33904, Note_on_c, 6, 63, 0
8, 33920, Note_on_c, 6, 60, 70
8, 33984, Note_on_c, 6, 60, 0
8, 34000, Note_on_c, 6, 63, 70
8, 34064, Note_on_c, 6, 63, 0
8, 34080, Note_on_c, 6, 67, 70
8, 34144, Note_on_c, 6, 67, 0
8, 34160, Note_on_c, 6, 63, 70
8, 34224, Note_on_c, 6, 63, 0
8, 34240, Note_on_c, 6, 67, 70
8, 34304, Note_on_c, 6, 67, 0
8, 34320, Note_on_c, 6, 65, 70
8, 34384, Note_on_c, 6, 65, 0
8, 34400, Note_on_c, 6, 62, 70
8, 34464, Note_on_c, 6, 62, 0
8, 34480, Note_on_c, 6, 65, 70
8, 34544, Note_on_c, 6, 65, 0
8, 34560, Note_on_c, 6, 63, 70
8, 34624, Note_on_c, 6, 63, 0
8, 34640, Note_on_c, 6, 67, 70
8, 34704, Note_on_c, 6, 67, 0
8, 34720, Note_on_c, 6, 65, 70
8, 34784, Note_on_c, 6, 65, 0
8, 34800, Note_on_c, 6, 63, 70
8, 34864, Note_on_c, 6, 63, 0
8, 34880, Note_on_c, 6, 62, 70
8, 34944, Note_on_c, 6, 62, 0
8, 34960, Note_on_c, 6, 60, 70
8, 35024, Note_on_c, 6, 60, 0
8, 35040, Note_on_c, 6, 59, 70
8, 35104, Note_on_c, 6, 59, 0
8, 35120, Note_on_c, 6, 57, 70
8, 35184, Note_on_c, 6, 57, 0
8, 35200, Note_on_c, 6, 55, 70
8, 35264, Note_on_c, 6, 55, 0
8, 35280, Note_on_c, 6, 67, 105
8, 35460, Note_on_c, 6, 67, 0
8, 35520, Note_on_c, 6, 67, 105
8, 35700, Note_on_c, 6, 67, 0
8, 35760, Note_on_c, 6, 67, 105
8, 35940, Note_on_c, 6, 67, 0
8, 36000, Note_on_c, 6, 67, 105
8, 36480, Note_on_c, 6, 67, 0
8, 36480, Note_on_c, 6, 72, 105
8, 36708, Note_on_c, 6, 72, 0
8, 36720, Note_on_c, 6, 72, 105
8, 36780, Note_on_c, 6, 72, 0
8, 36780, Note_on_c, 6, 70, 105
8, 36924, Note_on_c, 6, 70, 0
8, 36960, Note_on_c, 6, 70, 105
8, 37020, Note_on_c, 6, 70, 0
8, 37020, Note_on_c, 6, 68, 105
8, 37164, Note_on_c, 6, 68, 0
8, 37200, Note_on_c, 6, 68, 105
8, 37260, Note_on_c, 6, 68, 0
8, 37260, Note_on_c, 6, 69, 105
8, 37404, Note_on_c, 6, 69, 0
8, 37440, Note_on_c, 6, 69, 105
8, 37632, Note_on_c, 6, 69, 0
8, 38160, Note_on_c, 6, 69, 70
8, 38280, Note_on_c, 6, 69, 0
8, 38280, Note_on_c, 6, 68, 70
8, 38352, Note_on_c, 6, 68, 0
8, 38400, Note_on_c, 6, 69, 70
8, 38472, Note_on_c, 6, 69, 0
8, 38520, Note_on_c, 6, 71, 70
8, 38592, Note_on_c, 6, 71, 0
8, 38640, Note_on_c, 6, 72, 70
8, 38712, Note_on_c, 6, 72, 0
8, 38760, Note_on_c, 6, 69, 70
8, 38832, Note_on_c, 6, 69, 0
8, 38880, Note_on_c, 6, 66, 70
8, 39000, Note_on_c, 6, 66, 0
8, 39000, Note_on_c, 6, 67, 70
8, 39120, Note_on_c, 6, 67, 0
8, 39120, Note_on_c, 6, 69, 70
8, 39240, Note_on_c, 6, 69, 0
8, 39240, Note_on_c, 6, 67, 70
8, 39360, Note_on_c, 6, 67, 0
8, 39360, Note_on_c, 6, 65, 70
8, 39480, Note_on_c, 6, 65, 0
8, 39480, Note_on_c, 6, 64, 70
8, 39576, Note_on_c, 6, 64, 0
8, 39600, Note_on_c, 6, 67, 70
8, 39720, Note_on_c, 6, 67, 0
8, 39720, Note_on_c, 6, 65, 70
8, 39840, Note_on_c, 6, 65, 0
8, 39840, Note_on_c, 6, 64, 70
8, 40080, Note_on_c, 6, 64, 0
8, 40080, Note_on_c, 6, 62, 70
8, 40308, Note_on_c, 6, 62, 0
8, 40320, Note_on_c, 6, 65, 105
8, 40800, Note_on_c, 6, 65, 0
8, 40800, Note_on_c, 6, 67, 105
8, 41028, Note_on_c, 6, 67, 0
8, 41040, Note_on_c, 6, 67, 105
8, 41520, Note_on_c, 6, 67, 0
8, 41520, Note_on_c, 6, 69, 105
8, 41712, Note_on_c, 6, 69, 0
8, 41760, Note_on_c, 6, 65, 70
8, 41820, Note_on_c, 6, 65, 0
8, 41820, Note_on_c, 6, 67, 70
8, 41880, Note_on_c, 6, 67, 0
8, 41880, Note_on_c, 6, 69, 70
8, 41976, Note_on_c, 6, 69, 0
8, 42240, Note_on_c, 6, 67, 70
8, 42432, Note_on_c, 6, 67, 0
8, 42480, Note_on_c, 6, 67, 70
8, 42600, Note_on_c, 6, 67, 0
8, 42600, Note_on_c, 6, 65, 70
8, 42684, Note_on_c, 6, 65, 0
8, 42720, Note_on_c, 6, 64, 70
8, 42888, Note_on_c, 6, 64, 0
8, 42960, Note_on_c, 6, 62, 70
8, 43128, Note_on_c, 6, 62, 0
8, 43200, Note_on_c, 6, 65, 105
8, 43680, Note_on_c, 6, 65, 0
8, 43680, Note_on_c, 6, 67, 105
8, 43908, Note_on_c, 6, 67, 0
8, 43920, Note_on_c, 6, 67, 105
8, 44400, Note_on_c, 6, 67, 0
8, 44400, Note_on_c, 6, 69, 105
8, 44592, Note_on_c, 6, 69, 0
8, 44640, Note_on_c, 6, 65, 70
8, 44700, Note_on_c, 6, 65, 0
8, 44700, Note_on_c, 6, 67, 70
8, 44760, Note_on_c, 6, 67, 0
8, 44760, Note_on_c, 6, 69, 70
8, 44856, Note_on_c, 6, 69, 0
8, 45120, Note_on_c, 6, 67, 70
8, 45312, Note_on_c, 6, 67, 0
8, 45360, Note_on_c, 6, 67, 70
8, 45480, Note_on_c, 6, 67, 0
8, 45480, Note_on_c, 6, 65, 70
8, 45570, Note_on_c, 6, 65, 0
8, 45600, Note_on_c, 6, 64, 70
8, 45768, Note_on_c, 6, 64, 0
8, 45840, Note_on_c, 6, 62, 70
8, 46008, Note_on_c, 6, 62, 0
8, 46080, Note_on_c, 6, 64, 58
8, 46464, Note_on_c, 6, 64, 0
8, 47520, Note_on_c, 6, 55, 105
8, 47580, Note_on_c, 6, 55, 0
8, 47600, Note_on_c, 6, 62, 105
8, 47660, Note_on_c, 6, 62, 0
8, 47680, Note_on_c, 6, 65, 105
8, 47740, Note_on_c, 6, 65, 0
8, 47760, Note_on_c, 6, 67, 105
8, 47820, Note_on_c, 6, 67, 0
8, 47840, Note_on_c, 6, 65, 105
8, 47900, Note_on_c, 6, 65, 0
8, 47920, Note_on_c, 6, 62, 105
8, 47980, Note_on_c, 6, 62, 0
8, 48000, Note_on_c, 6, 67, 105
8, 48060, Note_on_c, 6, 67, 0
8, 48080, Note_on_c, 6, 65, 105
8, 48140, Note_on_c, 6, 65, 0
8, 48160, Note_on_c, 6, 62, 105
8, 48220, Note_on_c, 6, 62, 0
8, 48240, Note_on_c, 6, 55, 105
8, 48300, Note_on_c, 6, 55, 0
8, 48320, Note_on_c, 6, 62, 105
8, 48380, Note_on_c, 6, 62, 0
8, 48400, Note_on_c, 6, 65, 105
8, 48460, Note_on_c, 6, 65, 0
8, 48480, Note_on_c, 6, 67, 105
8, 48540, Note_on_c, 6, 67, 0
8, 48560, Note_on_c, 6, 65, 105
8, 48620, Note_on_c, 6, 65, 0
8, 48640, Note_on_c, 6, 62, 105
8, 48700, Note_on_c, 6, 62, 0
8, 48720, Note_on_c, 6, 67, 105
8, 48780, Note_on_c, 6, 67, 0
8, 48800, Note_on_c, 6, 65, 105
8, 48860, Note_on_c, 6, 65, 0
8, 48880, Note_on_c, 6, 62, 105
8, 48940, Note_on_c, 6, 62, 0
8, 48960, Note_on_c, 6, 64, 105
8, 49344, Note_on_c, 6, 64, 0
8, 50400, Note_on_c, 6, 55, 70
8, 50460, Note_on_c, 6, 55, 0
8, 50480, Note_on_c, 6, 62, 70
8, 50540, Note_on_c, 6, 62, 0
8, 50560, Note_on_c, 6, 65, 70
8, 50620, Note_on_c, 6, 65, 0
8, 50640, Note_on_c, 6, 67, 70
8, 50700, Note_on_c, 6, 67, 0
8, 50720, Note_on_c, 6, 65, 70
8, 50780, Note_on_c, 6, 65, 0
8, 50800, Note_on_c, 6, 62, 70
8, 50860, Note_on_c, 6, 62, 0
8, 50880, Note_on_c, 6, 67, 70
8, 50940, Note_on_c, 6, 67, 0
8, 50960, Note_on_c, 6, 65, 70
8, 51020, Note_on_c, 6, 65, 0
8, 51040, Note_on_c, 6, 62, 70
8, 51100, Note_on_c, 6, 62, 0
8, 51120, Note_on_c, 6, 55, 70
8, 51180, Note_on_c, 6, 55, 0
8, 51200, Note_on_c, 6, 62, 70
8, 51260, Note_on_c, 6, 62, 0
8, 51280, Note_on_c, 6, 65, 70
8, 51340, Note_on_c, 6, 65, 0
8, 51360, Note_on_c, 6, 67, 70
8, 51420, Note_on_c, 6, 67, 0
8, 51440, Note_on_c, 6, 65, 70
8, 51500, Note_on_c, 6, 65, 0
8, 51520, Note_on_c, 6, 62, 70
8, 51580, Note_on_c, 6, 62, 0
8, 51600, Note_on_c, 6, 67, 70
8, 51660, Note_on_c, 6, 67, 0
8, 51680, Note_on_c, 6, 65, 70
8, 51740, Note_on_c, 6, 65, 0
8, 51760, Note_on_c, 6, 62, 70
8, 51820, Note_on_c, 6, 62, 0
8, 51840, Note_on_c, 6, 64, 70
8, 52008, Note_on_c, 6, 64, 0
8, 52080, Note_on_c, 6, 64, 70
8, 52248, Note_on_c, 6, 64, 0
8, 52320, Note_on_c, 6, 64, 70
8, 52488, Note_on_c, 6, 64, 0
8, 52560, Note_on_c, 6, 64, 70
8, 52728, Note_on_c, 6, 64, 0
8, 53280, Note_on_c, 6, 64, 70
8, 53568, Note_on_c, 6, 64, 0
8, 53640, Note_on_c, 6, 65, 70
8, 53736, Note_on_c, 6, 65, 0
8, 53760, Note_on_c, 6, 64, 70
8, 53952, Note_on_c, 6, 64, 0
8, 54000, Note_on_c, 6, 67, 70
8, 54864, Note_on_c, 6, 67, 0
8, 54960, Note_on_c, 6, 67, 70
8, 55104, Note_on_c, 6, 67, 0
8, 55200, Note_on_c, 6, 67, 70
8, 55344, Note_on_c, 6, 67, 0
8, 55440, Note_on_c, 6, 67, 58
8, 55584, Note_on_c, 6, 67, 0
8, 56160, Note_on_c, 6, 70, 70
8, 56304, Note_on_c, 6, 70, 0
8, 56400, Note_on_c, 6, 70, 70
8, 56544, Note_on_c, 6, 70, 0
8, 56640, Note_on_c, 6, 70, 70
8, 56784, Note_on_c, 6, 70, 0
8, 56880, Note_on_c, 6, 70, 58
8, 57024, Note_on_c, 6, 70, 0
8, 57840, Note_on_c, 6, 69, 58
8, 57960, Note_on_c, 6, 69, 0
8, 57960, Note_on_c, 6, 74, 70
8, 58080, Note_on_c, 6, 74, 0
8, 58080, Note_on_c, 6, 77, 70
8, 58200, Note_on_c, 6, 77, 0
8, 58200, Note_on_c, 6, 74, 70
8, 58296, Note_on_c, 6, 74, 0
8, 58320, Note_on_c, 6, 72, 70
8, 58512, Note_on_c, 6, 72, 0
8, 58680, Note_on_c, 6, 72, 70
8, 58800, Note_on_c, 6, 72, 0
8, 58800, Note_on_c, 6, 74, 70
8, 58920, Note_on_c, 6, 74, 0
8, 58920, Note_on_c, 6, 71, 70
8, 59016, Note_on_c, 6, 71, 0
8, 59040, Note_on_c, 6, 72, 58
8, 59424, Note_on_c, 6, 72, 0
8, 60480, Note_on_c, 6, 59, 105
8, 60600, Note_on_c, 6, 59, 0
8, 60600, Note_on_c, 6, 62, 105
8, 60720, Note_on_c, 6, 62, 0
8, 60720, Note_on_c, 6, 65, 105
8, 60840, Note_on_c, 6, 65, 0
8, 60840, Note_on_c, 6, 62, 105
8, 60960, Note_on_c, 6, 62, 0
8, 60960, Note_on_c, 6, 65, 105
8, 61080, Note_on_c, 6, 65, 0
8, 61080, Note_on_c, 6, 62, 105
8, 61176, Note_on_c, 6, 62, 0
8, 61200, Note_on_c, 6, 68, 105
8, 61320, Note_on_c, 6, 68, 0
8, 61320, Note_on_c, 6, 62, 105
8, 61440, Note_on_c, 6, 62, 0
8, 61440, Note_on_c, 6, 68, 105
8, 61560, Note_on_c, 6, 68, 0
8, 61560, Note_on_c, 6, 62, 105
8, 61680, Note_on_c, 6, 62, 0
8, 61680, Note_on_c, 6, 65, 105
8, 61800, Note_on_c, 6, 65, 0
8, 61800, Note_on_c, 6, 62, 105
8, 61896, Note_on_c, 6, 62, 0
8, 61920, Note_on_c, 6, 64, 92
8, 62112, Note_on_c, 6, 64, 0
8, 63360, Note_on_c, 6, 59, 105
8, 63480, Note_on_c, 6, 59, 0
8, 63480, Note_on_c, 6, 62, 105
8, 63600, Note_on_c, 6, 62, 0
8, 63600, Note_on_c, 6, 65, 105
8, 63720, Note_on_c, 6, 65, 0
8, 63720, Note_on_c, 6, 62, 105
8, 63840, Note_on_c, 6, 62, 0
8, 63840, Note_on_c, 6, 65, 105
8, 63960, Note_on_c, 6, 65, 0
8, 63960, Note_on_c, 6, 62, 105
8, 64056, Note_on_c, 6, 62, 0
8, 64080, Note_on_c, 6, 68, 105
8, 64200, Note_on_c, 6, 68, 0
8, 64200, Note_on_c, 6, 62, 105
8, 64320, Note_on_c, 6, 62, 0
8, 64320, Note_on_c, 6, 68, 105
8, 64440, Note_on_c, 6, 68, 0
8, 64440, Note_on_c, 6, 62, 105
8, 64560, Note_on_c, 6, 62, 0
8, 64560, Note_on_c, 6, 65, 105
8, 64680, Note_on_c, 6, 65, 0
8, 64680, Note_on_c, 6, 62, 105
8, 64776, Note_on_c, 6, 62, 0
8, 64800, Note_on_c, 6, 64, 105
8, 64992, Note_on_c, 6, 64, 0
8, 66960, Note_on_c, 6, 65, 78
8, 67680, Note_on_c, 6, 65, 0
8, 67680, Note_on_c, 6, 64, 58
8, 67872, Note_on_c, 6, 64, 0
8, 69840, Note_on_c, 6, 74, 78
8, 70560, Note_on_c, 6, 74, 0
8, 70560, Note_on_c, 6, 72, 70
8, 70800, Note_on_c, 6, 72, 0
8, 70800, Note_on_c, 6, 70, 70
8, 71040, Note_on_c, 6, 70, 0
8, 71040, Note_on_c, 6, 68, 70
8, 71232, Note_on_c, 6, 68, 0
8, 71280, Note_on_c, 6, 68, 70
8, 71400, Note_on_c, 6, 68, 0
8, 71400, Note_on_c, 6, 67, 70
8, 71520, Note_on_c, 6, 67, 0
8, 71520, Note_on_c, 6, 65, 70
8, 71760, Note_on_c, 6, 65, 0
8, 71760, Note_on_c, 6, 64, 70
8, 71988, Note_on_c, 6, 64, 0
8, 72000, Note_on_c, 6, 65, 70
8, 72192, Note_on_c, 6, 65, 0
8, 72360, Note_on_c, 6, 60, 58
8, 72432, Note_on_c, 6, 60, 0
8, 72480, Note_on_c, 6, 62, 58
8, 72552, Note_on_c, 6, 62, 0
8, 72600, Note_on_c, 6, 64, 58
8, 72672, Note_on_c, 6, 64, 0
8, 72720, Note_on_c, 6, 65, 58
8, 72792, Note_on_c, 6, 65, 0
8, 72840, Note_on_c, 6, 67, 58
8, 72912, Note_on_c, 6, 67, 0
8, 72960, Note_on_c, 6, 68, 58
8, 73032, Note_on_c, 6, 68, 0
8, 73080, Note_on_c, 6, 70, 58
8, 73152, Note_on_c, 6, 70, 0
8, 73200, Note_on_c, 6, 72, 58
8, 73272, Note_on_c, 6, 72, 0
8, 73320, Note_on_c, 6, 60, 58
8, 73392, Note_on_c, 6, 60, 0
8, 73440, Note_on_c, 6, 61, 58
8, 73584, Note_on_c, 6, 61, 0
8, 73680, Note_on_c, 6, 73, 58
8, 73824, Note_on_c, 6, 73, 0
8, 73920, Note_on_c, 6, 60, 58
8, 74064, Note_on_c, 6, 60, 0
8, 74160, Note_on_c, 6, 58, 78
8, 74880, Note_on_c, 6, 58, 0
8, 74880, Note_on_c, 6, 60, 58
8, 75072, Note_on_c, 6, 60, 0
8, 75240, Note_on_c, 6, 60, 58
8, 75312, Note_on_c, 6, 60, 0
8, 75360, Note_on_c, 6, 62, 58
8, 75432, Note_on_c, 6, 62, 0
8, 75480, Note_on_c, 6, 64, 58
8, 75552, Note_on_c, 6, 64, 0
8, 75600, Note_on_c, 6, 65, 58
8, 75672, Note_on_c, 6, 65, 0
8, 75720, Note_on_c, 6, 67, 58
8, 75792, Note_on_c, 6, 67, 0
8, 75840, Note_on_c, 6, 68, 58
8, 75912, Note_on_c, 6, 68, 0
8, 75960, Note_on_c, 6, 70, 58
8, 76032, Note_on_c, 6, 70, 0
8, 76080, Note_on_c, 6, 72, 58
8, 76152, Note_on_c, 6, 72, 0
8, 76200, Note_on_c, 6, 60, 58
8, 76272, Note_on_c, 6, 60, 0
8, 76320, Note_on_c, 6, 61, 58
8, 76464, Note_on_c, 6, 61, 0
8, 76560, Note_on_c, 6, 73, 58
8, 76704, Note_on_c, 6, 73, 0
8, 76800, Note_on_c, 6, 60, 58
8, 76944, Note_on_c, 6, 60, 0
8, 77040, Note_on_c, 6, 55, 98
8, 77760, Note_on_c, 6, 55, 0
8, 77760, Note_on_c, 6, 56, 70
8, 78444, Note_on_c, 6, 56, 0
8, 78480, Note_on_c, 6, 60, 70
8, 78600, Note_on_c, 6, 60, 0
8, 78600, Note_on_c, 6, 58, 70
8, 78720, Note_on_c, 6, 58, 0
8, 78720, Note_on_c, 6, 56, 70
8, 78960, Note_on_c, 6, 56, 0
8, 78960, Note_on_c, 6, 55, 70
8, 79176, Note_on_c, 6, 55, 0
8, 79200, Note_on_c, 6, 56, 70
8, 79392, Note_on_c, 6, 56, 0
8, 79440, Note_on_c, 6, 63, 70
8, 79632, Note_on_c, 6, 63, 0
8, 79680, Note_on_c, 6, 63, 70
8, 79872, Note_on_c, 6, 63, 0
8, 79920, Note_on_c, 6, 63, 70
8, 80112, Note_on_c, 6, 63, 0
8, 80160, Note_on_c, 6, 63, 70
8, 80352, Note_on_c, 6, 63, 0
8, 80400, Note_on_c, 6, 63, 70
8, 80592, Note_on_c, 6, 63, 0
8, 80760, Note_on_c, 6, 63, 70
8, 80880, Note_on_c, 6, 63, 0
8, 80880, Note_on_c, 6, 66, 70
8, 81000, Note_on_c, 6, 66, 0
8, 81000, Note_on_c, 6, 63, 70
8, 81120, Note_on_c, 6, 63, 0
8, 81120, Note_on_c, 6, 66, 70
8, 81240, Note_on_c, 6, 66, 0
8, 81240, Note_on_c, 6, 63, 70
8, 81336, Note_on_c, 6, 63, 0
8, 81480, Note_on_c, 6, 63, 70
8, 81600, Note_on_c, 6, 63, 0
8, 81600, Note_on_c, 6, 65, 70
8, 81720, Note_on_c, 6, 65, 0
8, 81720, Note_on_c, 6, 63, 70
8, 81840, Note_on_c, 6, 63, 0
8, 81840, Note_on_c, 6, 65, 70
8, 81960, Note_on_c, 6, 65, 0
8, 81960, Note_on_c, 6, 63, 70
8, 82056, Note_on_c, 6, 63, 0
8, 82080, Note_on_c, 6, 62, 70
8, 82272, Note_on_c, 6, 62, 0
8, 82320, Note_on_c, 6, 65, 70
8, 82512, Note_on_c, 6, 65, 0
8, 82560, Note_on_c, 6, 65, 70
8, 82752, Note_on_c, 6, 65, 0
8, 82800, Note_on_c, 6, 65, 70
8, 82992, Note_on_c, 6, 65, 0
8, 83040, Note_on_c, 6, 65, 70
8, 83232, Note_on_c, 6, 65, 0
8, 83280, Note_on_c, 6, 65, 70
8, 83472, Note_on_c, 6, 65, 0
8, 83640, Note_on_c, 6, 65, 70
8, 83760, Note_on_c, 6, 65, 0
8, 83760, Note_on_c, 6, 68, 70
8, 83880, Note_on_c, 6, 68, 0
8, 83880, Note_on_c, 6, 65, 70
8, 84000, Note_on_c, 6, 65, 0
8, 84000, Note_on_c, 6, 68, 70
8, 84120, Note_on_c, 6, 68, 0
8, 84120, Note_on_c, 6, 65, 70
8, 84216, Note_on_c, 6, 65, 0
8, 84360, Note_on_c, 6, 65, 70
8, 84480, Note_on_c, 6, 65, 0
8, 84480, Note_on_c, 6, 67, 70
8, 84600, Note_on_c, 6, 67, 0
8, 84600, Note_on_c, 6, 65, 70
8, 84720, Note_on_c, 6, 65, 0
8, 84720, Note_on_c, 6, 67, 70
8, 84840, Note_on_c, 6, 67, 0
8, 84840, Note_on_c, 6, 65, 70
8, 84936, Note_on_c, 6, 65, 0
8, 84960, Note_on_c, 6, 64, 70
8, 85200, Note_on_c, 6, 64, 0
8, 85200, Note_on_c, 6, 68, 70
8, 85440, Note_on_c, 6, 68, 0
8, 85440, Note_on_c, 6, 67, 70
8, 85920, Note_on_c, 6, 67, 0
8, 85920, Note_on_c, 6, 65, 70
8, 86160, Note_on_c, 6, 65, 0
8, 86160, Note_on_c, 6, 64, 70
8, 86640, Note_on_c, 6, 64, 0
8, 86640, Note_on_c, 6, 65, 30
8, 86832, Note_on_c, 6, 65, 0
8, 86880, Note_on_c, 6, 65, 30
8, 87072, Note_on_c, 6, 65, 0
8, 87120, Note_on_c, 6, 65, 78
8, 87840, Note_on_c, 6, 65, 0
8, 87840, Note_on_c, 6, 64, 58
8, 88080, Note_on_c, 6, 64, 0
8, 88080, Note_on_c, 6, 68, 70
8, 88320, Note_on_c, 6, 68, 0
8, 88320, Note_on_c, 6, 67, 70
8, 88800, Note_on_c, 6, 67, 0
8, 88800, Note_on_c, 6, 65, 70
8, 89040, Note_on_c, 6, 65, 0
8, 89040, Note_on_c, 6, 64, 70
8, 89520, Note_on_c, 6, 64, 0
8, 89520, Note_on_c, 6, 65, 30
8, 89712, Note_on_c, 6, 65, 0
8, 89760, Note_on_c, 6, 65, 30
8, 89952, Note_on_c, 6, 65, 0
8, 90000, Note_on_c, 6, 65, 78
8, 90576, Note_on_c, 6, 65, 0
8, 90720, Note_on_c, 6, 64, 58
8, 90912, Note_on_c, 6, 64, 0
8, 91200, Note_on_c, 6, 68, 70
8, 91440, Note_on_c, 6, 68, 0
8, 91440, Note_on_c, 6, 67, 70
8, 91632, Note_on_c, 6, 67, 0
8, 91920, Note_on_c, 6, 68, 70
8, 92160, Note_on_c, 6, 68, 0
8, 92160, Note_on_c, 6, 67, 70
8, 92256, Note_on_c, 6, 67, 0
8, 92280, Note_on_c, 6, 66, 70
8, 92400, Note_on_c, 6, 66, 0
8, 92400, Note_on_c, 6, 67, 70
8, 92520, Note_on_c, 6, 67, 0
8, 92520, Note_on_c, 6, 66, 70
8, 92640, Note_on_c, 6, 66, 0
8, 92640, Note_on_c, 6, 67, 70
8, 92760, Note_on_c, 6, 67, 0
8, 92760, Note_on_c, 6, 66, 70
8, 92880, Note_on_c, 6, 66, 0
8, 92880, Note_on_c, 6, 67, 70
8, 92952, Note_on_c, 6, 67, 0
8, 93000, Note_on_c, 6, 68, 80
8, 93120, Note_on_c, 6, 68, 0
8, 93120, Note_on_c, 6, 69, 80
8, 93240, Note_on_c, 6, 69, 0
8, 93240, Note_on_c, 6, 68, 80
8, 93360, Note_on_c, 6, 68, 0
8, 93360, Note_on_c, 6, 69, 80
8, 93480, Note_on_c, 6, 69, 0
8, 93480, Note_on_c, 6, 68, 80
8, 93600, Note_on_c, 6, 68, 0
8, 93600, Note_on_c, 6, 69, 80
8, 93672, Note_on_c, 6, 69, 0
8, 93720, Note_on_c, 6, 69, 92
8, 93840, Note_on_c, 6, 69, 0
8, 93840, Note_on_c, 6, 70, 92
8, 93960, Note_on_c, 6, 70, 0
8, 93960, Note_on_c, 6, 69, 92
8, 94080, Note_on_c, 6, 69, 0
8, 94080, Note_on_c, 6, 70, 92
8, 94200, Note_on_c, 6, 70, 0
8, 94200, Note_on_c, 6, 69, 92
8, 94296, Note_on_c, 6, 69, 0
8, 94320, Note_on_c, 6, 70, 92
8, 95040, Note_on_c, 6, 70, 0
8, 95100, Note_on_c, 6, 69, 70
8, 95460, Note_on_c, 6, 69, 0
8, 95460, Note_on_c, 6, 70, 70
8, 95580, Note_on_c, 6, 70, 0
8, 95580, Note_on_c, 6, 69, 70
8, 95772, Note_on_c, 6, 69, 0
8, 95820, Note_on_c, 6, 72, 70
8, 96300, Note_on_c, 6, 72, 0
8, 96300, Note_on_c, 6, 69, 70
8, 96492, Note_on_c, 6, 69, 0
8, 96540, Note_on_c, 6, 62, 70
8, 96684, Note_on_c, 6, 62, 0
8, 96780, Note_on_c, 6, 62, 70
8, 97020, Note_on_c, 6, 62, 0
8, 97020, Note_on_c, 6, 61, 70
8, 97164, Note_on_c, 6, 61, 0
8, 97260, Note_on_c, 6, 60, 70
8, 97404, Note_on_c, 6, 60, 0
8, 97740, Note_on_c, 6, 67, 70
8, 97980, Note_on_c, 6, 67, 0
8, 97980, Note_on_c, 6, 65, 70
8, 98172, Note_on_c, 6, 65, 0
8, 98460, Note_on_c, 6, 65, 70
8, 98652, Note_on_c, 6, 65, 0
8, 98700, Note_on_c, 6, 65, 70
8, 99060, Note_on_c, 6, 65, 0
8, 99060, Note_on_c, 6, 66, 70
8, 99180, Note_on_c, 6, 66, 0
8, 99180, Note_on_c, 6, 67, 70
8, 99300, Note_on_c, 6, 67, 0
8, 99300, Note_on_c, 6, 58, 70
8, 99396, Note_on_c, 6, 58, 0
8, 99420, Note_on_c, 6, 57, 70
8, 99540, Note_on_c, 6, 57, 0
8, 99540, Note_on_c, 6, 55, 70
8, 99660, Note_on_c, 6, 55, 0
8, 99660, Note_on_c, 6, 56, 70
8, 99780, Note_on_c, 6, 56, 0
8, 99780, Note_on_c, 6, 57, 70
8, 99900, Note_on_c, 6, 57, 0
8, 99900, Note_on_c, 6, 58, 70
8, 100020, Note_on_c, 6, 58, 0
8, 100020, Note_on_c, 6, 59, 70
8, 100140, Note_on_c, 6, 59, 0
8, 100140, Note_on_c, 6, 60, 70
8, 100332, Note_on_c, 6, 60, 0
8, 100860, Note_on_c, 6, 64, 110
8, 100980, Note_on_c, 6, 64, 0
8, 100980, Note_on_c, 6, 60, 70
8, 101100, Note_on_c, 6, 60, 0
8, 101100, Note_on_c, 6, 58, 70
8, 101220, Note_on_c, 6, 58, 0
8, 101220, Note_on_c, 6, 60, 70
8, 101340, Note_on_c, 6, 60, 0
8, 101340, Note_on_c, 6, 64, 70
8, 101460, Note_on_c, 6, 64, 0
8, 101460, Note_on_c, 6, 60, 70
8, 101556, Note_on_c, 6, 60, 0
8, 101580, Note_on_c, 6, 64, 70
8, 101700, Note_on_c, 6, 64, 0
8, 101700, Note_on_c, 6, 60, 70
8, 101820, Note_on_c, 6, 60, 0
8, 101820, Note_on_c, 6, 58, 70
8, 101940, Note_on_c, 6, 58, 0
8, 101940, Note_on_c, 6, 60, 70
8, 102060, Note_on_c, 6, 60, 0
8, 102060, Note_on_c, 6, 64, 70
8, 102180, Note_on_c, 6, 64, 0
8, 102180, Note_on_c, 6, 60, 70
8, 102276, Note_on_c, 6, 60, 0
8, 102300, Note_on_c, 6, 65, 70
8, 102420, Note_on_c, 6, 65, 0
8, 102420, Note_on_c, 6, 60, 70
8, 102540, Note_on_c, 6, 60, 0
8, 102540, Note_on_c, 6, 57, 70
8, 102660, Note_on_c, 6, 57, 0
8, 102660, Note_on_c, 6, 60, 70
8, 102780, Note_on_c, 6, 60, 0
8, 102780, Note_on_c, 6, 65, 70
8, 102900, Note_on_c, 6, 65, 0
8, 102900, Note_on_c, 6, 60, 70
8, 102996, Note_on_c, 6, 60, 0
8, 103020, Note_on_c, 6, 69, 70
8, 103140, Note_on_c, 6, 69, 0
8, 103140, Note_on_c, 6, 65, 70
8, 103260, Note_on_c, 6, 65, 0
8, 103260, Note_on_c, 6, 60, 70
8, 103380, Note_on_c, 6, 60, 0
8, 103380, Note_on_c, 6, 65, 70
8, 103500, Note_on_c, 6, 65, 0
8, 103500, Note_on_c, 6, 69, 70
8, 103620, Note_on_c, 6, 69, 0
8, 103620, Note_on_c, 6, 65, 70
8, 103716, Note_on_c, 6, 65, 0
8, 103740, Note_on_c, 6, 64, 110
8, 103860, Note_on_c, 6, 64, 0
8, 103860, Note_on_c, 6, 60, 70
8, 103980, Note_on_c, 6, 60, 0
8, 103980, Note_on_c, 6, 58, 70
8, 104100, Note_on_c, 6, 58, 0
8, 104100, Note_on_c, 6, 60, 70
8, 104220, Note_on_c, 6, 60, 0
8, 104220, Note_on_c, 6, 64, 70
8, 104340, Note_on_c, 6, 64, 0
8, 104340, Note_on_c, 6, 60, 70
8, 104436, Note_on_c, 6, 60, 0
8, 104460, Note_on_c, 6, 64, 70
8, 104580, Note_on_c, 6, 64, 0
8, 104580, Note_on_c, 6, 60, 70
8, 104700, Note_on_c, 6, 60, 0
8, 104700, Note_on_c, 6, 58, 70
8, 104820, Note_on_c, 6, 58, 0
8, 104820, Note_on_c, 6, 60, 70
8, 104940, Note_on_c, 6, 60, 0
8, 104940, Note_on_c, 6, 64, 70
8, 105060, Note_on_c, 6, 64, 0
8, 105060, Note_on_c, 6, 60, 70
8, 105156, Note_on_c, 6, 60, 0
8, 105180, Note_on_c, 6, 65, 70
8, 105300, Note_on_c, 6, 65, 0
8, 105300, Note_on_c, 6, 60, 70
8, 105420, Note_on_c, 6, 60, 0
8, 105420, Note_on_c, 6, 57, 70
8, 105540, Note_on_c, 6, 57, 0
8, 105540, Note_on_c, 6, 60, 70
8, 105660, Note_on_c, 6, 60, 0
8, 105660, Note_on_c, 6, 65, 70
8, 105780, Note_on_c, 6, 65, 0
8, 105780, Note_on_c, 6, 60, 70
8, 105876, Note_on_c, 6, 60, 0
8, 105900, Note_on_c, 6, 69, 70
8, 106020, Note_on_c, 6, 69, 0
8, 106020, Note_on_c, 6, 65, 70
8, 106140, Note_on_c, 6, 65, 0
8, 106140, Note_on_c, 6, 60, 70
8, 106260, Note_on_c, 6, 60, 0
8, 106260, Note_on_c, 6, 65, 70
8, 106380, Note_on_c, 6, 65, 0
8, 106380, Note_on_c, 6, 69, 70
8, 106500, Note_on_c, 6, 69, 0
8, 106500, Note_on_c, 6, 72, 70
8, 106596, Note_on_c, 6, 72, 0
8, 106620, Note_on_c, 6, 72, 70
8, 107340, Note_on_c, 6, 72, 0
8, 107340, Note_on_c, 6, 70, 70
8, 108024, Note_on_c, 6, 70, 0
8, 108060, Note_on_c, 6, 70, 70
8, 108252, Note_on_c, 6, 70, 0
8, 108300, Note_on_c, 6, 70, 70
8, 108492, Note_on_c, 6, 70, 0
8, 108540, Note_on_c, 6, 70, 70
8, 108732, Note_on_c, 6, 70, 0
8, 108780, Note_on_c, 6, 69, 92
8, 108972, Note_on_c, 6, 69, 0
8, 109500, Note_on_c, 6, 57, 105
8, 109620, Note_on_c, 6, 57, 0
8, 109620, Note_on_c, 6, 60, 105
8, 109740, Note_on_c, 6, 60, 0
8, 109740, Note_on_c, 6, 57, 105
8, 109860, Note_on_c, 6, 57, 0
8, 109860, Note_on_c, 6, 60, 105
8, 109980, Note_on_c, 6, 60, 0
8, 109980, Note_on_c, 6, 57, 105
8, 110100, Note_on_c, 6, 57, 0
8, 110100, Note_on_c, 6, 60, 105
8, 110196, Note_on_c, 6, 60, 0
8, 110220, Note_on_c, 6, 58, 105
8, 110340, Note_on_c, 6, 58, 0
8, 110340, Note_on_c, 6, 60, 105
8, 110460, Note_on_c, 6, 60, 0
8, 110460, Note_on_c, 6, 58, 105
8, 110580, Note_on_c, 6, 58, 0
8, 110580, Note_on_c, 6, 60, 105
8, 110700, Note_on_c, 6, 60, 0
8, 110700, Note_on_c, 6, 58, 105
8, 110820, Note_on_c, 6, 58, 0
8, 110820, Note_on_c, 6, 60, 105
8, 110916, Note_on_c, 6, 60, 0
8, 110940, Note_on_c, 6, 57, 105
8, 111084, Note_on_c, 6, 57, 0
8, 111180, Note_on_c, 6, 60, 105
8, 111324, Note_on_c, 6, 60, 0
8, 111420, Note_on_c, 6, 60, 105
8, 111564, Note_on_c, 6, 60, 0
8, 111660, Note_on_c, 6, 60, 105
8, 111804, Note_on_c, 6, 60, 0
8, 112380, Note_on_c, 6, 67, 58
8, 112524, Note_on_c, 6, 67, 0
8, 112620, Note_on_c, 6, 67, 58
8, 112764, Note_on_c, 6, 67, 0
8, 112860, Note_on_c, 6, 67, 58
8, 113004, Note_on_c, 6, 67, 0
8, 113100, Note_on_c, 6, 67, 58
8, 113244, Note_on_c, 6, 67, 0
8, 113820, Note_on_c, 6, 72, 105
8, 113964, Note_on_c, 6, 72, 0
8, 114060, Note_on_c, 6, 72, 105
8, 114204, Note_on_c, 6, 72, 0
8, 114300, Note_on_c, 6, 72, 105
8, 114444, Note_on_c, 6, 72, 0
8, 114540, Note_on_c, 6, 72, 105
8, 114684, Note_on_c, 6, 72, 0
8, 115500, Note_on_c, 6, 67, 58
8, 115692, Note_on_c, 6, 67, 0
8, 116220, Note_on_c, 6, 67, 58
8, 116412, Note_on_c, 6, 67, 0
8, 116940, Note_on_c, 6, 65, 58
8, 117132, Note_on_c, 6, 65, 0
8, 117740, Note_on_c, 6, 65, 70
8, 117820, Note_on_c, 6, 65, 0
8, 117820, Note_on_c, 6, 64, 70
8, 117900, Note_on_c, 6, 64, 0
8, 117900, Note_on_c, 6, 65, 70
8, 117980, Note_on_c, 6, 65, 0
8, 117980, Note_on_c, 6, 69, 70
8, 118060, Note_on_c, 6, 69, 0
8, 118060, Note_on_c, 6, 65, 70
8, 118124, Note_on_c, 6, 65, 0
8, 118140, Note_on_c, 6, 74, 70
8, 118380, Note_on_c, 6, 74, 0
8, 118380, Note_on_c, 6, 72, 70
8, 118620, Note_on_c, 6, 72, 0
8, 118620, Note_on_c, 6, 70, 70
8, 118860, Note_on_c, 6, 70, 0
8, 118860, Note_on_c, 6, 69, 70
8, 119100, Note_on_c, 6, 69, 0
8, 119100, Note_on_c, 6, 67, 70
8, 119340, Note_on_c, 6, 67, 0
8, 119340, Note_on_c, 6, 65, 70
8, 119568, Note_on_c, 6, 65, 0
8, 119580, Note_on_c, 6, 69, 70
8, 119700, Note_on_c, 6, 69, 0
8, 119700, Note_on_c, 6, 68, 70
8, 119820, Note_on_c, 6, 68, 0
8, 119820, Note_on_c, 6, 69, 70
8, 119940, Note_on_c, 6, 69, 0
8, 119940, Note_on_c, 6, 65, 70
8, 120060, Note_on_c, 6, 65, 0
8, 120060, Note_on_c, 6, 64, 70
8, 120252, Note_on_c, 6, 64, 0
8, 120780, Note_on_c, 6, 64, 70
8, 120972, Note_on_c, 6, 64, 0
8, 121020, Note_on_c, 6, 65, 70
8, 121500, Note_on_c, 6, 65, 0
8, 121500, Note_on_c, 6, 64, 70
8, 121692, Note_on_c, 6, 64, 0
8, 122220, Note_on_c, 6, 76, 70
8, 122412, Note_on_c, 6, 76, 0
8, 122460, Note_on_c, 6, 77, 70
8, 122940, Note_on_c, 6, 77, 0
8, 122940, Note_on_c, 6, 76, 70
8, 123132, Note_on_c, 6, 76, 0
8, 123900, Note_on_c, 6, 60, 105
8, 124020, Note_on_c, 6, 60, 0
8, 124020, Note_on_c, 6, 65, 105
8, 124140, Note_on_c, 6, 65, 0
8, 124140, Note_on_c, 6, 60, 105
8, 124260, Note_on_c, 6, 60, 0
8, 124260, Note_on_c, 6, 65, 105
8, 124380, Note_on_c, 6, 65, 0
8, 124380, Note_on_c, 6, 60, 105
8, 124500, Note_on_c, 6, 60, 0
8, 124500, Note_on_c, 6, 65, 105
8, 124596, Note_on_c, 6, 65, 0
8, 124620, Note_on_c, 6, 63, 105
8, 124740, Note_on_c, 6, 63, 0
8, 124740, Note_on_c, 6, 65, 105
8, 124860, Note_on_c, 6, 65, 0
8, 124860, Note_on_c, 6, 63, 105
8, 124980, Note_on_c, 6, 63, 0
8, 124980, Note_on_c, 6, 65, 105
8, 125100, Note_on_c, 6, 65, 0
8, 125100, Note_on_c, 6, 63, 105
8, 125220, Note_on_c, 6, 63, 0
8, 125220, Note_on_c, 6, 65, 105
8, 125316, Note_on_c, 6, 65, 0
8, 125340, Note_on_c, 6, 62, 92
8, 125532, Note_on_c, 6, 62, 0
8, 126780, Note_on_c, 6, 58, 70
8, 126900, Note_on_c, 6, 58, 0
8, 126900, Note_on_c, 6, 57, 70
8, 126972, Note_on_c, 6, 57, 0
8, 127020, Note_on_c, 6, 62, 70
8, 127092, Note_on_c, 6, 62, 0
8, 127140, Note_on_c, 6, 60, 70
8, 127212, Note_on_c, 6, 60, 0
8, 127260, Note_on_c, 6, 58, 70
8, 127332, Note_on_c, 6, 58, 0
8, 127380, Note_on_c, 6, 57, 70
8, 127452, Note_on_c, 6, 57, 0
8, 127500, Note_on_c, 6, 60, 70
8, 127980, Note_on_c, 6, 60, 0
8, 127980, Note_on_c, 6, 64, 70
8, 128172, Note_on_c, 6, 64, 0
8, 128220, Note_on_c, 6, 59, 110
8, 128940, Note_on_c, 6, 59, 0
8, 128940, Note_on_c, 6, 71, 70
8, 129132, Note_on_c, 6, 71, 0
8, 130380, Note_on_c, 6, 56, 70
8, 130444, Note_on_c, 6, 56, 0
8, 130460, Note_on_c, 6, 60, 70
8, 130524, Note_on_c, 6, 60, 0
8, 130540, Note_on_c, 6, 56, 70
8, 130604, Note_on_c, 6, 56, 0
8, 130620, Note_on_c, 6, 56, 70
8, 130684, Note_on_c, 6, 56, 0
8, 130700, Note_on_c, 6, 60, 70
8, 130764, Note_on_c, 6, 60, 0
8, 130780, Note_on_c, 6, 56, 70
8, 130844, Note_on_c, 6, 56, 0
8, 130860, Note_on_c, 6, 55, 70
8, 130924, Note_on_c, 6, 55, 0
8, 130940, Note_on_c, 6, 58, 70
8, 131004, Note_on_c, 6, 58, 0
8, 131020, Note_on_c, 6, 55, 70
8, 131084, Note_on_c, 6, 55, 0
8, 131100, Note_on_c, 6, 56, 70
8, 131164, Note_on_c, 6, 56, 0
8, 131180, Note_on_c, 6, 60, 70
8, 131244, Note_on_c, 6, 60, 0
8, 131260, Note_on_c, 6, 56, 70
8, 131324, Note_on_c, 6, 56, 0
8, 131340, Note_on_c, 6, 65, 70
8, 131404, Note_on_c, 6, 65, 0
8, 131420, Note_on_c, 6, 60, 70
8, 131484, Note_on_c, 6, 60, 0
8, 131500, Note_on_c, 6, 65, 70
8, 131564, Note_on_c, 6, 65, 0
8, 131580, Note_on_c, 6, 64, 70
8, 131644, Note_on_c, 6, 64, 0
8, 131660, Note_on_c, 6, 60, 70
8, 131724, Note_on_c, 6, 60, 0
8, 131740, Note_on_c, 6, 64, 70
8, 131804, Note_on_c, 6, 64, 0
8, 131820, Note_on_c, 6, 68, 70
8, 131884, Note_on_c, 6, 68, 0
8, 131900, Note_on_c, 6, 65, 70
8, 131964, Note_on_c, 6, 65, 0
8, 131980, Note_on_c, 6, 68, 70
8, 132044, Note_on_c, 6, 68, 0
8, 132060, Note_on_c, 6, 72, 70
8, 132124, Note_on_c, 6, 72, 0
8, 132140, Note_on_c, 6, 68, 70
8, 132204, Note_on_c, 6, 68, 0
8, 132220, Note_on_c, 6, 72, 70
8, 132284, Note_on_c, 6, 72, 0
8, 132300, Note_on_c, 6, 70, 70
8, 132364, Note_on_c, 6, 70, 0
8, 132380, Note_on_c, 6, 67, 70
8, 132444, Note_on_c, 6, 67, 0
8, 132460, Note_on_c, 6, 70, 70
8, 132524, Note_on_c, 6, 70, 0
8, 132540, Note_on_c, 6, 68, 70
8, 132604, Note_on_c, 6, 68, 0
8, 132620, Note_on_c, 6, 72, 70
8, 132684, Note_on_c, 6, 72, 0
8, 132700, Note_on_c, 6, 70, 70
8, 132764, Note_on_c, 6, 70, 0
8, 132780, Note_on_c, 6, 68, 70
8, 132844, Note_on_c, 6, 68, 0
8, 132860, Note_on_c, 6, 67, 70
8, 132924, Note_on_c, 6, 67, 0
8, 132940, Note_on_c, 6, 65, 70
8, 133004, Note_on_c, 6, 65, 0
8, 133020, Note_on_c, 6, 64, 70
8, 133084, Note_on_c, 6, 64, 0
8, 133100, Note_on_c, 6, 62, 70
8, 133164, Note_on_c, 6, 62, 0
8, 133180, Note_on_c, 6, 60, 105
8, 133244, Note_on_c, 6, 60, 0
8, 133260, Note_on_c, 6, 72, 105
8, 133452, Note_on_c, 6, 72, 0
8, 133500, Note_on_c, 6, 72, 105
8, 133692, Note_on_c, 6, 72, 0
8, 133740, Note_on_c, 6, 72, 105
8, 133932, Note_on_c, 6, 72, 0
8, 133980, Note_on_c, 6, 72, 105
8, 134700, Note_on_c, 6, 72, 0
8, 134700, Note_on_c, 6, 73, 105
8, 135384, Note_on_c, 6, 73, 0
8, 135420, Note_on_c, 6, 73, 70
8, 135516, Note_on_c, 6, 73, 0
8, 135540, Note_on_c, 6, 74, 70
8, 135636, Note_on_c, 6, 74, 0
8, 135660, Note_on_c, 6, 74, 70
8, 136116, Note_on_c, 6, 74, 0
8, 136140, Note_on_c, 6, 67, 70
8, 136824, Note_on_c, 6, 67, 0
8, 136860, Note_on_c, 6, 69, 70
8, 137700, Note_on_c, 6, 69, 0
8, 137700, Note_on_c, 6, 67, 70
8, 137820, Note_on_c, 6, 67, 0
8, 137820, Note_on_c, 6, 65, 70
8, 138060, Note_on_c, 6, 65, 0
8, 138060, Note_on_c, 6, 64, 70
8, 138252, Note_on_c, 6, 64, 0
8, 138300, Note_on_c, 6, 61, 105
8, 138780, Note_on_c, 6, 61, 0
8, 138780, Note_on_c, 6, 62, 105
8, 138972, Note_on_c, 6, 62, 0
8, 139020, Note_on_c, 6, 66, 105
8, 139500, Note_on_c, 6, 66, 0
8, 139500, Note_on_c, 6, 67, 105
8, 139692, Note_on_c, 6, 67, 0
8, 139740, Note_on_c, 6, 67, 70
8, 139800, Note_on_c, 6, 67, 0
8, 139800, Note_on_c, 6, 69, 70
8, 139860, Note_on_c, 6, 69, 0
8, 139860, Note_on_c, 6, 70, 70
8, 139956, Note_on_c, 6, 70, 0
8, 140220, Note_on_c, 6, 69, 70
8, 140412, Note_on_c, 6, 69, 0
8, 140460, Note_on_c, 6, 69, 70
8, 140580, Note_on_c, 6, 69, 0
8, 140580, Note_on_c, 6, 67, 70
8, 140676, Note_on_c, 6, 67, 0
8, 140700, Note_on_c, 6, 65, 70
8, 140868, Note_on_c, 6, 65, 0
8, 140940, Note_on_c, 6, 64, 70
8, 141108, Note_on_c, 6, 64, 0
8, 141180, Note_on_c, 6, 61, 105
8, 141660, Note_on_c, 6, 61, 0
8, 141660, Note_on_c, 6, 62, 105
8, 141852, Note_on_c, 6, 62, 0
8, 141900, Note_on_c, 6, 66, 105
8, 142380, Note_on_c, 6, 66, 0
8, 142380, Note_on_c, 6, 67, 105
8, 142572, Note_on_c, 6, 67, 0
8, 142620, Note_on_c, 6, 67, 70
8, 142680, Note_on_c, 6, 67, 0
8, 142680, Note_on_c, 6, 69, 70
8, 142740, Note_on_c, 6, 69, 0
8, 142740, Note_on_c, 6, 70, 70
8, 142836, Note_on_c, 6, 70, 0
8, 143100, Note_on_c, 6, 69, 70
8, 143292, Note_on_c, 6, 69, 0
8, 143340, Note_on_c, 6, 69, 70
8, 143460, Note_on_c, 6, 69, 0
8, 143460, Note_on_c, 6, 67, 70
8, 143556, Note_on_c, 6, 67, 0
8, 143580, Note_on_c, 6, 65, 70
8, 143748, Note_on_c, 6, 65, 0
8, 143820, Note_on_c, 6, 64, 70
8, 143988, Note_on_c, 6, 64, 0
8, 144060, Note_on_c, 6, 65, 58
8, 144444, Note_on_c, 6, 65, 0
8, 145500, Note_on_c, 6, 67, 105
8, 145564, Note_on_c, 6, 67, 0
8, 145580, Note_on_c, 6, 70, 105
8, 145644, Note_on_c, 6, 70, 0
8, 145660, Note_on_c, 6, 72, 105
8, 145724, Note_on_c, 6, 72, 0
8, 145740, Note_on_c, 6, 76, 105
8, 145804, Note_on_c, 6, 76, 0
8, 145820, Note_on_c, 6, 72, 105
8, 145884, Note_on_c, 6, 72, 0
8, 145900, Note_on_c, 6, 70, 105
8, 145964, Note_on_c, 6, 70, 0
8, 145980, Note_on_c, 6, 76, 105
8, 146044, Note_on_c, 6, 76, 0
8, 146060, Note_on_c, 6, 72, 105
8, 146124, Note_on_c, 6, 72, 0
8, 146140, Note_on_c, 6, 70, 105
8, 146204, Note_on_c, 6, 70, 0
8, 146220, Note_on_c, 6, 67, 105
8, 146284, Note_on_c, 6, 67, 0
8, 146300, Note_on_c, 6, 70, 105
8, 146364, Note_on_c, 6, 70, 0
8, 146380, Note_on_c, 6, 72, 105
8, 146444, Note_on_c, 6, 72, 0
8, 146460, Note_on_c, 6, 76, 105
8, 146524, Note_on_c, 6, 76, 0
8, 146540, Note_on_c, 6, 72, 105
8, 146604, Note_on_c, 6, 72, 0
8, 146620, Note_on_c, 6, 70, 105
8, 146684, Note_on_c, 6, 70, 0
8, 146700, Note_on_c, 6, 76, 105
8, 146764, Note_on_c, 6, 76, 0
8, 146780, Note_on_c, 6, 72, 105
8, 146844, Note_on_c, 6, 72, 0
8, 146860, Note_on_c, 6, 70, 105
8, 146924, Note_on_c, 6, 70, 0
8, 146940, Note_on_c, 6, 69, 105
8, 146940, Note_on_c, 6, 77, 105
8, 147324, Note_on_c, 6, 77, 0
8, 147324, Note_on_c, 6, 69, 0
8, 148380, Note_on_c, 6, 60, 70
8, 148444, Note_on_c, 6, 60, 0
8, 148460, Note_on_c, 6, 67, 70
8, 148524, Note_on_c, 6, 67, 0
8, 148540, Note_on_c, 6, 70, 70
8, 148604, Note_on_c, 6, 70, 0
8, 148620, Note_on_c, 6, 72, 70
8, 148684, Note_on_c, 6, 72, 0
8, 148700, Note_on_c, 6, 70, 70
8, 148764, Note_on_c, 6, 70, 0
8, 148780, Note_on_c, 6, 67, 70
8, 148844, Note_on_c, 6, 67, 0
8, 148860, Note_on_c, 6, 72, 70
8, 148924, Note_on_c, 6, 72, 0
8, 148940, Note_on_c, 6, 70, 70
8, 149004, Note_on_c, 6, 70, 0
8, 149020, Note_on_c, 6, 67, 70
8, 149084, Note_on_c, 6, 67, 0
8, 149100, Note_on_c, 6, 60, 70
8, 149164, Note_on_c, 6, 60, 0
8, 149180, Note_on_c, 6, 67, 70
8, 149244, Note_on_c, 6, 67, 0
8, 149260, Note_on_c, 6, 70, 70
8, 149324, Note_on_c, 6, 70, 0
8, 149340, Note_on_c, 6, 72, 70
8, 149404, Note_on_c, 6, 72, 0
8, 149420, Note_on_c, 6, 70, 70
8, 149484, Note_on_c, 6, 70, 0
8, 149500, Note_on_c, 6, 67, 70
8, 149564, Note_on_c, 6, 67, 0
8, 149580, Note_on_c, 6, 72, 70
8, 149644, Note_on_c, 6, 72, 0
8, 149660, Note_on_c, 6, 70, 70
8, 149724, Note_on_c, 6, 70, 0
8, 149740, Note_on_c, 6, 67, 70
8, 149804, Note_on_c, 6, 67, 0
8, 149820, Note_on_c, 6, 69, 70
8, 149988, Note_on_c, 6, 69, 0
8, 150060, Note_on_c, 6, 57, 58
8, 150060, Note_on_c, 6, 65, 58
8, 150228, Note_on_c, 6, 65, 0
8, 150228, Note_on_c, 6, 57, 0
8, 150300, Note_on_c, 6, 65, 58
8, 150300, Note_on_c, 6, 57, 58
8, 150468, Note_on_c, 6, 57, 0
8, 150468, Note_on_c, 6, 65, 0
8, 150540, Note_on_c, 6, 57, 58
8, 150540, Note_on_c, 6, 65, 58
8, 150756, Note_on_c, 6, 65, 0
8, 150756, Note_on_c, 6, 57, 0
8, 150756, End_track
9, 0, Start_track
9, 0, Sequencer_specific, 04, 43, 00, 01, 00
9, 0, Program_c, 7, 48
9, 0, Control_c, 7, 7, 123
9, 0, Control_c, 7, 10, 98
9, 0, Control_c, 7, 91, 70
9, 1440, Note_on_c, 7, 65, 70
9, 1824, Note_on_c, 7, 65, 0
9, 1920, Note_on_c, 7, 65, 70
9, 2112, Note_on_c, 7, 65, 0
9, 2160, Note_on_c, 7, 65, 70
9, 2544, Note_on_c, 7, 65, 0
9, 2640, Note_on_c, 7, 65, 70
9, 2832, Note_on_c, 7, 65, 0
9, 2880, Note_on_c, 7, 67, 70
9, 3264, Note_on_c, 7, 67, 0
9, 3360, Note_on_c, 7, 67, 70
9, 3552, Note_on_c, 7, 67, 0
9, 3600, Note_on_c, 7, 67, 70
9, 3792, Note_on_c, 7, 67, 0
9, 4080, Note_on_c, 7, 60, 70
9, 4272, Note_on_c, 7, 60, 0
9, 4320, Note_on_c, 7, 60, 70
9, 4512, Note_on_c, 7, 60, 0
9, 4800, Note_on_c, 7, 62, 70
9, 4992, Note_on_c, 7, 62, 0
9, 5040, Note_on_c, 7, 60, 70
9, 5232, Note_on_c, 7, 60, 0
9, 5520, Note_on_c, 7, 55, 70
9, 5712, Note_on_c, 7, 55, 0
9, 5760, Note_on_c, 7, 48, 58
9, 6672, Note_on_c, 7, 48, 0
9, 7200, Note_on_c, 7, 58, 78
9, 7200, Note_on_c, 7, 55, 58
9, 8640, Note_on_c, 7, 55, 0
9, 8640, Note_on_c, 7, 58, 0
9, 8640, Note_on_c, 7, 53, 58
9, 8640, Note_on_c, 7, 57, 58
9, 9792, Note_on_c, 7, 57, 0
9, 9792, Note_on_c, 7, 53, 0
9, 10080, Note_on_c, 7, 55, 58
9, 10080, Note_on_c, 7, 58, 78
9, 11520, Note_on_c, 7, 58, 0
9, 11520, Note_on_c, 7, 55, 0
9, 11520, Note_on_c, 7, 53, 58
9, 11520, Note_on_c, 7, 57, 58
9, 12672, Note_on_c, 7, 57, 0
9, 12672, Note_on_c, 7, 53, 0
9, 12960, Note_on_c, 7, 65, 58
9, 13680, Note_on_c, 7, 65, 0
9, 13680, Note_on_c, 7, 67, 58
9, 14364, Note_on_c, 7, 67, 0
9, 14400, Note_on_c, 7, 67, 70
9, 14592, Note_on_c, 7, 67, 0
9, 14640, Note_on_c, 7, 67, 70
9, 14832, Note_on_c, 7, 67, 0
9, 14880, Note_on_c, 7, 67, 80
9, 15072, Note_on_c, 7, 67, 0
9, 15120, Note_on_c, 7, 65, 80
9, 15312, Note_on_c, 7, 65, 0
9, 15840, Note_on_c, 7, 60, 105
9, 15840, Note_on_c, 7, 48, 105
9, 17016, Note_on_c, 7, 48, 0
9, 17016, Note_on_c, 7, 60, 0
9, 17040, Note_on_c, 7, 64, 105
9, 17232, Note_on_c, 7, 64, 0
9, 17280, Note_on_c, 7, 65, 105
9, 17424, Note_on_c, 7, 65, 0
9, 17520, Note_on_c, 7, 57, 105
9, 17664, Note_on_c, 7, 57, 0
9, 17760, Note_on_c, 7, 57, 105
9, 17904, Note_on_c, 7, 57, 0
9, 18000, Note_on_c, 7, 57, 92
9, 18144, Note_on_c, 7, 57, 0
9, 18720, Note_on_c, 7, 64, 58
9, 18864, Note_on_c, 7, 64, 0
9, 18960, Note_on_c, 7, 64, 58
9, 19104, Note_on_c, 7, 64, 0
9, 19200, Note_on_c, 7, 64, 58
9, 19344, Note_on_c, 7, 64, 0
9, 19440, Note_on_c, 7, 64, 58
9, 19584, Note_on_c, 7, 64, 0
9, 20400, Note_on_c, 7, 62, 58
9, 20592, Note_on_c, 7, 62, 0
9, 21120, Note_on_c, 7, 62, 58
9, 21312, Note_on_c, 7, 62, 0
9, 21840, Note_on_c, 7, 60, 58
9, 22032, Note_on_c, 7, 60, 0
9, 22560, Note_on_c, 7, 65, 58
9, 22800, Note_on_c, 7, 65, 0
9, 22800, Note_on_c, 7, 66, 70
9, 23028, Note_on_c, 7, 66, 0
9, 23040, Note_on_c, 7, 67, 70
9, 23160, Note_on_c, 7, 67, 0
9, 23160, Note_on_c, 7, 66, 70
9, 23280, Note_on_c, 7, 66, 0
9, 23280, Note_on_c, 7, 67, 70
9, 23400, Note_on_c, 7, 67, 0
9, 23400, Note_on_c, 7, 66, 70
9, 23520, Note_on_c, 7, 66, 0
9, 23520, Note_on_c, 7, 67, 70
9, 23640, Note_on_c, 7, 67, 0
9, 23640, Note_on_c, 7, 66, 70
9, 23736, Note_on_c, 7, 66, 0
9, 23760, Note_on_c, 7, 67, 70
9, 24336, Note_on_c, 7, 67, 0
9, 24480, Note_on_c, 7, 67, 70
9, 26496, Note_on_c, 7, 67, 0
9, 27360, Note_on_c, 7, 64, 105
9, 27552, Note_on_c, 7, 64, 0
9, 27600, Note_on_c, 7, 64, 105
9, 27792, Note_on_c, 7, 64, 0
9, 27840, Note_on_c, 7, 64, 105
9, 28032, Note_on_c, 7, 64, 0
9, 28080, Note_on_c, 7, 64, 105
9, 28272, Note_on_c, 7, 64, 0
9, 28320, Note_on_c, 7, 64, 105
9, 28512, Note_on_c, 7, 64, 0
9, 28560, Note_on_c, 7, 64, 105
9, 28752, Note_on_c, 7, 64, 0
9, 28800, Note_on_c, 7, 65, 105
9, 28992, Note_on_c, 7, 65, 0
9, 30240, Note_on_c, 7, 65, 70
9, 30360, Note_on_c, 7, 65, 0
9, 30360, Note_on_c, 7, 64, 70
9, 30432, Note_on_c, 7, 64, 0
9, 30480, Note_on_c, 7, 69, 70
9, 30552, Note_on_c, 7, 69, 0
9, 30600, Note_on_c, 7, 67, 70
9, 30672, Note_on_c, 7, 67, 0
9, 30720, Note_on_c, 7, 65, 70
9, 30792, Note_on_c, 7, 65, 0
9, 30840, Note_on_c, 7, 64, 70
9, 30912, Note_on_c, 7, 64, 0
9, 30960, Note_on_c, 7, 64, 70
9, 31440, Note_on_c, 7, 64, 0
9, 31440, Note_on_c, 7, 59, 70
9, 31632, Note_on_c, 7, 59, 0
9, 31680, Note_on_c, 7, 60, 58
9, 32064, Note_on_c, 7, 60, 0
9, 32400, Note_on_c, 7, 60, 70
9, 32640, Note_on_c, 7, 60, 0
9, 32640, Note_on_c, 7, 63, 70
9, 32880, Note_on_c, 7, 63, 0
9, 32880, Note_on_c, 7, 67, 70
9, 33108, Note_on_c, 7, 67, 0
9, 33120, Note_on_c, 7, 72, 70
9, 33360, Note_on_c, 7, 72, 0
9, 33360, Note_on_c, 7, 63, 70
9, 33600, Note_on_c, 7, 63, 0
9, 33600, Note_on_c, 7, 67, 70
9, 33828, Note_on_c, 7, 67, 0
9, 33840, Note_on_c, 7, 60, 70
9, 34080, Note_on_c, 7, 60, 0
9, 34080, Note_on_c, 7, 63, 70
9, 34320, Note_on_c, 7, 63, 0
9, 34320, Note_on_c, 7, 67, 70
9, 34548, Note_on_c, 7, 67, 0
9, 34560, Note_on_c, 7, 72, 70
9, 34800, Note_on_c, 7, 72, 0
9, 34800, Note_on_c, 7, 63, 70
9, 35040, Note_on_c, 7, 63, 0
9, 35040, Note_on_c, 7, 67, 70
9, 35232, Note_on_c, 7, 67, 0
9, 36000, Note_on_c, 7, 55, 105
9, 36120, Note_on_c, 7, 55, 0
9, 36120, Note_on_c, 7, 60, 105
9, 36240, Note_on_c, 7, 60, 0
9, 36240, Note_on_c, 7, 55, 105
9, 36360, Note_on_c, 7, 55, 0
9, 36360, Note_on_c, 7, 60, 105
9, 36480, Note_on_c, 7, 60, 0
9, 36480, Note_on_c, 7, 55, 105
9, 36600, Note_on_c, 7, 55, 0
9, 36600, Note_on_c, 7, 60, 105
9, 36696, Note_on_c, 7, 60, 0
9, 36720, Note_on_c, 7, 58, 105
9, 36840, Note_on_c, 7, 58, 0
9, 36840, Note_on_c, 7, 60, 105
9, 36960, Note_on_c, 7, 60, 0
9, 36960, Note_on_c, 7, 58, 105
9, 37080, Note_on_c, 7, 58, 0
9, 37080, Note_on_c, 7, 60, 105
9, 37200, Note_on_c, 7, 60, 0
9, 37200, Note_on_c, 7, 58, 105
9, 37320, Note_on_c, 7, 58, 0
9, 37320, Note_on_c, 7, 60, 105
9, 37416, Note_on_c, 7, 60, 0
9, 37440, Note_on_c, 7, 57, 105
9, 37632, Note_on_c, 7, 57, 0
9, 38160, Note_on_c, 7, 65, 70
9, 38280, Note_on_c, 7, 65, 0
9, 38280, Note_on_c, 7, 64, 70
9, 38352, Note_on_c, 7, 64, 0
9, 38400, Note_on_c, 7, 65, 70
9, 38472, Note_on_c, 7, 65, 0
9, 38520, Note_on_c, 7, 67, 70
9, 38592, Note_on_c, 7, 67, 0
9, 38640, Note_on_c, 7, 69, 70
9, 38712, Note_on_c, 7, 69, 0
9, 38760, Note_on_c, 7, 65, 70
9, 38832, Note_on_c, 7, 65, 0
9, 38880, Note_on_c, 7, 63, 70
9, 39000, Note_on_c, 7, 63, 0
9, 39000, Note_on_c, 7, 64, 70
9, 39120, Note_on_c, 7, 64, 0
9, 39120, Note_on_c, 7, 65, 70
9, 39240, Note_on_c, 7, 65, 0
9, 39240, Note_on_c, 7, 64, 70
9, 39360, Note_on_c, 7, 64, 0
9, 39360, Note_on_c, 7, 62, 70
9, 39480, Note_on_c, 7, 62, 0
9, 39480, Note_on_c, 7, 60, 70
9, 39576, Note_on_c, 7, 60, 0
9, 39600, Note_on_c, 7, 64, 70
9, 39720, Note_on_c, 7, 64, 0
9, 39720, Note_on_c, 7, 62, 70
9, 39840, Note_on_c, 7, 62, 0
9, 39840, Note_on_c, 7, 60, 70
9, 40080, Note_on_c, 7, 60, 0
9, 40080, Note_on_c, 7, 59, 70
9, 40308, Note_on_c, 7, 59, 0
9, 40320, Note_on_c, 7, 62, 105
9, 40800, Note_on_c, 7, 62, 0
9, 40800, Note_on_c, 7, 64, 105
9, 41028, Note_on_c, 7, 64, 0
9, 41040, Note_on_c, 7, 64, 105
9, 41520, Note_on_c, 7, 64, 0
9, 41520, Note_on_c, 7, 66, 105
9, 41712, Note_on_c, 7, 66, 0
9, 41760, Note_on_c, 7, 62, 70
9, 41952, Note_on_c, 7, 62, 0
9, 42240, Note_on_c, 7, 64, 70
9, 42432, Note_on_c, 7, 64, 0
9, 42480, Note_on_c, 7, 57, 70
9, 42696, Note_on_c, 7, 57, 0
9, 42720, Note_on_c, 7, 55, 70
9, 42936, Note_on_c, 7, 55, 0
9, 42960, Note_on_c, 7, 53, 70
9, 43176, Note_on_c, 7, 53, 0
9, 43200, Note_on_c, 7, 62, 105
9, 43680, Note_on_c, 7, 62, 0
9, 43680, Note_on_c, 7, 64, 105
9, 43908, Note_on_c, 7, 64, 0
9, 43920, Note_on_c, 7, 64, 105
9, 44400, Note_on_c, 7, 64, 0
9, 44400, Note_on_c, 7, 66, 105
9, 44592, Note_on_c, 7, 66, 0
9, 44640, Note_on_c, 7, 62, 70
9, 44832, Note_on_c, 7, 62, 0
9, 45120, Note_on_c, 7, 64, 70
9, 45312, Note_on_c, 7, 64, 0
9, 45360, Note_on_c, 7, 57, 70
9, 45576, Note_on_c, 7, 57, 0
9, 45600, Note_on_c, 7, 55, 70
9, 45816, Note_on_c, 7, 55, 0
9, 45840, Note_on_c, 7, 55, 70
9, 46056, Note_on_c, 7, 55, 0
9, 46080, Note_on_c, 7, 55, 70
9, 46464, Note_on_c, 7, 55, 0
9, 47520, Note_on_c, 7, 55, 105
9, 47712, Note_on_c, 7, 55, 0
9, 47760, Note_on_c, 7, 67, 105
9, 47952, Note_on_c, 7, 67, 0
9, 48000, Note_on_c, 7, 67, 105
9, 48192, Note_on_c, 7, 67, 0
9, 48240, Note_on_c, 7, 67, 105
9, 48432, Note_on_c, 7, 67, 0
9, 48480, Note_on_c, 7, 67, 105
9, 48672, Note_on_c, 7, 67, 0
9, 48720, Note_on_c, 7, 67, 105
9, 48912, Note_on_c, 7, 67, 0
9, 48960, Note_on_c, 7, 60, 105
9, 49344, Note_on_c, 7, 60, 0
9, 50400, Note_on_c, 7, 55, 70
9, 50592, Note_on_c, 7, 55, 0
9, 50640, Note_on_c, 7, 67, 70
9, 50832, Note_on_c, 7, 67, 0
9, 50880, Note_on_c, 7, 67, 70
9, 51072, Note_on_c, 7, 67, 0
9, 51120, Note_on_c, 7, 67, 70
9, 51312, Note_on_c, 7, 67, 0
9, 51360, Note_on_c, 7, 67, 70
9, 51552, Note_on_c, 7, 67, 0
9, 51600, Note_on_c, 7, 67, 70
9, 51792, Note_on_c, 7, 67, 0
9, 51840, Note_on_c, 7, 67, 70
9, 52008, Note_on_c, 7, 67, 0
9, 52080, Note_on_c, 7, 67, 70
9, 52248, Note_on_c, 7, 67, 0
9, 52320, Note_on_c, 7, 67, 70
9, 52488, Note_on_c, 7, 67, 0
9, 52560, Note_on_c, 7, 67, 70
9, 52728, Note_on_c, 7, 67, 0
9, 53280, Note_on_c, 7, 60, 58
9, 54192, Note_on_c, 7, 60, 0
9, 54240, Note_on_c, 7, 65, 58
9, 54432, Note_on_c, 7, 65, 0
9, 54480, Note_on_c, 7, 64, 58
9, 54672, Note_on_c, 7, 64, 0
9, 54720, Note_on_c, 7, 65, 70
9, 54864, Note_on_c, 7, 65, 0
9, 54960, Note_on_c, 7, 65, 70
9, 55104, Note_on_c, 7, 65, 0
9, 55200, Note_on_c, 7, 65, 70
9, 55344, Note_on_c, 7, 65, 0
9, 55440, Note_on_c, 7, 65, 58
9, 55584, Note_on_c, 7, 65, 0
9, 56160, Note_on_c, 7, 67, 70
9, 56304, Note_on_c, 7, 67, 0
9, 56400, Note_on_c, 7, 67, 70
9, 56544, Note_on_c, 7, 67, 0
9, 56640, Note_on_c, 7, 67, 70
9, 56784, Note_on_c, 7, 67, 0
9, 56880, Note_on_c, 7, 67, 58
9, 57024, Note_on_c, 7, 67, 0
9, 57840, Note_on_c, 7, 65, 58
9, 58080, Note_on_c, 7, 65, 0
9, 58080, Note_on_c, 7, 62, 58
9, 58272, Note_on_c, 7, 62, 0
9, 58560, Note_on_c, 7, 67, 58
9, 58800, Note_on_c, 7, 67, 0
9, 58800, Note_on_c, 7, 65, 58
9, 58992, Note_on_c, 7, 65, 0
9, 59040, Note_on_c, 7, 64, 58
9, 59424, Note_on_c, 7, 64, 0
9, 60480, Note_on_c, 7, 68, 105
9, 60480, Note_on_c, 7, 65, 105
9, 61920, Note_on_c, 7, 65, 0
9, 61920, Note_on_c, 7, 68, 0
9, 61920, Note_on_c, 7, 67, 92
9, 61920, Note_on_c, 7, 64, 92
9, 62112, Note_on_c, 7, 64, 0
9, 62112, Note_on_c, 7, 67, 0
9, 63360, Note_on_c, 7, 68, 105
9, 63360, Note_on_c, 7, 65, 105
9, 64800, Note_on_c, 7, 65, 0
9, 64800, Note_on_c, 7, 68, 0
9, 64800, Note_on_c, 7, 67, 105
9, 64800, Note_on_c, 7, 64, 105
9, 64992, Note_on_c, 7, 64, 0
9, 64992, Note_on_c, 7, 67, 0
9, 66960, Note_on_c, 7, 67, 78
9, 67872, Note_on_c, 7, 67, 0
9, 69840, Note_on_c, 7, 67, 78
9, 70560, Note_on_c, 7, 67, 0
9, 70560, Note_on_c, 7, 67, 58
9, 70944, Note_on_c, 7, 67, 0
9, 71040, Note_on_c, 7, 60, 70
9, 71232, Note_on_c, 7, 60, 0
9, 71280, Note_on_c, 7, 61, 70
9, 71520, Note_on_c, 7, 61, 0
9, 71520, Note_on_c, 7, 60, 70
9, 71760, Note_on_c, 7, 60, 0
9, 71760, Note_on_c, 7, 58, 70
9, 71988, Note_on_c, 7, 58, 0
9, 72000, Note_on_c, 7, 56, 58
9, 72192, Note_on_c, 7, 56, 0
9, 74400, Note_on_c, 7, 67, 70
9, 74544, Note_on_c, 7, 67, 0
9, 74640, Note_on_c, 7, 65, 70
9, 74784, Note_on_c, 7, 65, 0
9, 74880, Note_on_c, 7, 64, 70
9, 75024, Note_on_c, 7, 64, 0
9, 75120, Note_on_c, 7, 60, 70
9, 75264, Note_on_c, 7, 60, 0
9, 77040, Note_on_c, 7, 63, 70
9, 78444, Note_on_c, 7, 63, 0
9, 78720, Note_on_c, 7, 51, 70
9, 78960, Note_on_c, 7, 51, 0
9, 78960, Note_on_c, 7, 49, 70
9, 79176, Note_on_c, 7, 49, 0
9, 79200, Note_on_c, 7, 48, 70
9, 79392, Note_on_c, 7, 48, 0
9, 79440, Note_on_c, 7, 60, 70
9, 79632, Note_on_c, 7, 60, 0
9, 79680, Note_on_c, 7, 60, 70
9, 79872, Note_on_c, 7, 60, 0
9, 79920, Note_on_c, 7, 60, 70
9, 80112, Note_on_c, 7, 60, 0
9, 80160, Note_on_c, 7, 60, 70
9, 80352, Note_on_c, 7, 60, 0
9, 80400, Note_on_c, 7, 60, 70
9, 80592, Note_on_c, 7, 60, 0
9, 80760, Note_on_c, 7, 60, 70
9, 80880, Note_on_c, 7, 60, 0
9, 80880, Note_on_c, 7, 63, 70
9, 81000, Note_on_c, 7, 63, 0
9, 81000, Note_on_c, 7, 60, 70
9, 81120, Note_on_c, 7, 60, 0
9, 81120, Note_on_c, 7, 63, 70
9, 81240, Note_on_c, 7, 63, 0
9, 81240, Note_on_c, 7, 60, 70
9, 81336, Note_on_c, 7, 60, 0
9, 81480, Note_on_c, 7, 60, 70
9, 81600, Note_on_c, 7, 60, 0
9, 81600, Note_on_c, 7, 63, 70
9, 81720, Note_on_c, 7, 63, 0
9, 81720, Note_on_c, 7, 60, 70
9, 81840, Note_on_c, 7, 60, 0
9, 81840, Note_on_c, 7, 63, 70
9, 81960, Note_on_c, 7, 63, 0
9, 81960, Note_on_c, 7, 60, 70
9, 82056, Note_on_c, 7, 60, 0
9, 82080, Note_on_c, 7, 58, 70
9, 82272, Note_on_c, 7, 58, 0
9, 82320, Note_on_c, 7, 62, 70
9, 82512, Note_on_c, 7, 62, 0
9, 82560, Note_on_c, 7, 62, 70
9, 82752, Note_on_c, 7, 62, 0
9, 82800, Note_on_c, 7, 62, 70
9, 82992, Note_on_c, 7, 62, 0
9, 83040, Note_on_c, 7, 62, 70
9, 83232, Note_on_c, 7, 62, 0
9, 83280, Note_on_c, 7, 62, 70
9, 83472, Note_on_c, 7, 62, 0
9, 83640, Note_on_c, 7, 62, 70
9, 83760, Note_on_c, 7, 62, 0
9, 83760, Note_on_c, 7, 65, 70
9, 83880, Note_on_c, 7, 65, 0
9, 83880, Note_on_c, 7, 62, 70
9, 84000, Note_on_c, 7, 62, 0
9, 84000, Note_on_c, 7, 65, 70
9, 84120, Note_on_c, 7, 65, 0
9, 84120, Note_on_c, 7, 62, 70
9, 84216, Note_on_c, 7, 62, 0
9, 84360, Note_on_c, 7, 62, 70
9, 84480, Note_on_c, 7, 62, 0
9, 84480, Note_on_c, 7, 65, 70
9, 84600, Note_on_c, 7, 65, 0
9, 84600, Note_on_c, 7, 62, 70
9, 84720, Note_on_c, 7, 62, 0
9, 84720, Note_on_c, 7, 65, 70
9, 84840, Note_on_c, 7, 65, 0
9, 84840, Note_on_c, 7, 62, 70
9, 84936, Note_on_c, 7, 62, 0
9, 84960, Note_on_c, 7, 60, 70
9, 86136, Note_on_c, 7, 60, 0
9, 86160, Note_on_c, 7, 58, 70
9, 86640, Note_on_c, 7, 58, 0
9, 86640, Note_on_c, 7, 56, 70
9, 86880, Note_on_c, 7, 56, 0
9, 86880, Note_on_c, 7, 58, 70
9, 87072, Note_on_c, 7, 58, 0
9, 87120, Note_on_c, 7, 61, 90
9, 87840, Note_on_c, 7, 61, 0
9, 87840, Note_on_c, 7, 60, 70
9, 89016, Note_on_c, 7, 60, 0
9, 89040, Note_on_c, 7, 58, 70
9, 89520, Note_on_c, 7, 58, 0
9, 89520, Note_on_c, 7, 56, 70
9, 89760, Note_on_c, 7, 56, 0
9, 89760, Note_on_c, 7, 58, 70
9, 89952, Note_on_c, 7, 58, 0
9, 90000, Note_on_c, 7, 62, 90
9, 90720, Note_on_c, 7, 62, 0
9, 90720, Note_on_c, 7, 55, 70
9, 90912, Note_on_c, 7, 55, 0
9, 91200, Note_on_c, 7, 65, 70
9, 91440, Note_on_c, 7, 65, 0
9, 91440, Note_on_c, 7, 64, 70
9, 91632, Note_on_c, 7, 64, 0
9, 91920, Note_on_c, 7, 65, 70
9, 92160, Note_on_c, 7, 65, 0
9, 92160, Note_on_c, 7, 64, 70
9, 92256, Note_on_c, 7, 64, 0
9, 92280, Note_on_c, 7, 63, 70
9, 92400, Note_on_c, 7, 63, 0
9, 92400, Note_on_c, 7, 64, 70
9, 92520, Note_on_c, 7, 64, 0
9, 92520, Note_on_c, 7, 63, 70
9, 92640, Note_on_c, 7, 63, 0
9, 92640, Note_on_c, 7, 64, 70
9, 92760, Note_on_c, 7, 64, 0
9, 92760, Note_on_c, 7, 63, 70
9, 92880, Note_on_c, 7, 63, 0
9, 92880, Note_on_c, 7, 64, 70
9, 92952, Note_on_c, 7, 64, 0
9, 93000, Note_on_c, 7, 64, 80
9, 93096, Note_on_c, 7, 64, 0
9, 93120, Note_on_c, 7, 65, 80
9, 93216, Note_on_c, 7, 65, 0
9, 93240, Note_on_c, 7, 64, 80
9, 93336, Note_on_c, 7, 64, 0
9, 93360, Note_on_c, 7, 65, 80
9, 93456, Note_on_c, 7, 65, 0
9, 93480, Note_on_c, 7, 64, 80
9, 93576, Note_on_c, 7, 64, 0
9, 93600, Note_on_c, 7, 65, 80
9, 93672, Note_on_c, 7, 65, 0
9, 93720, Note_on_c, 7, 66, 92
9, 93840, Note_on_c, 7, 66, 0
9, 93840, Note_on_c, 7, 67, 92
9, 93960, Note_on_c, 7, 67, 0
9, 93960, Note_on_c, 7, 66, 92
9, 94080, Note_on_c, 7, 66, 0
9, 94080, Note_on_c, 7, 67, 92
9, 94200, Note_on_c, 7, 67, 0
9, 94200, Note_on_c, 7, 66, 92
9, 94296, Note_on_c, 7, 66, 0
9, 94320, Note_on_c, 7, 67, 92
9, 95040, Note_on_c, 7, 67, 0
9, 95100, Note_on_c, 7, 65, 58
9, 95484, Note_on_c, 7, 65, 0
9, 95580, Note_on_c, 7, 65, 58
9, 95772, Note_on_c, 7, 65, 0
9, 95820, Note_on_c, 7, 65, 58
9, 96204, Note_on_c, 7, 65, 0
9, 96300, Note_on_c, 7, 65, 58
9, 96492, Note_on_c, 7, 65, 0
9, 96540, Note_on_c, 7, 67, 58
9, 96684, Note_on_c, 7, 67, 0
9, 96780, Note_on_c, 7, 67, 58
9, 96924, Note_on_c, 7, 67, 0
9, 97020, Note_on_c, 7, 67, 58
9, 97164, Note_on_c, 7, 67, 0
9, 97260, Note_on_c, 7, 67, 58
9, 97404, Note_on_c, 7, 67, 0
9, 97740, Note_on_c, 7, 60, 58
9, 98172, Note_on_c, 7, 60, 0
9, 98460, Note_on_c, 7, 62, 58
9, 98652, Note_on_c, 7, 62, 0
9, 98700, Note_on_c, 7, 63, 58
9, 98940, Note_on_c, 7, 63, 0
9, 98940, Note_on_c, 7, 62, 58
9, 99132, Note_on_c, 7, 62, 0
9, 99180, Note_on_c, 7, 62, 58
9, 99372, Note_on_c, 7, 62, 0
9, 99420, Note_on_c, 7, 60, 58
9, 99900, Note_on_c, 7, 60, 0
9, 99900, Note_on_c, 7, 62, 58
9, 100140, Note_on_c, 7, 62, 0
9, 100140, Note_on_c, 7, 55, 58
9, 100332, Note_on_c, 7, 55, 0
9, 100860, Note_on_c, 7, 58, 78
9, 100860, Note_on_c, 7, 55, 58
9, 102300, Note_on_c, 7, 55, 0
9, 102300, Note_on_c, 7, 58, 0
9, 102300, Note_on_c, 7, 57, 58
9, 102300, Note_on_c, 7, 53, 58
9, 103668, Note_on_c, 7, 53, 0
9, 103668, Note_on_c, 7, 57, 0
9, 103740, Note_on_c, 7, 55, 58
9, 103740, Note_on_c, 7, 58, 78
9, 105180, Note_on_c, 7, 58, 0
9, 105180, Note_on_c, 7, 55, 0
9, 105180, Note_on_c, 7, 57, 58
9, 105180, Note_on_c, 7, 53, 58
9, 106548, Note_on_c, 7, 53, 0
9, 106548, Note_on_c, 7, 57, 0
9, 106620, Note_on_c, 7, 65, 58
9, 107340, Note_on_c, 7, 65, 0
9, 107340, Note_on_c, 7, 67, 58
9, 108024, Note_on_c, 7, 67, 0
9, 108060, Note_on_c, 7, 67, 58
9, 108252, Note_on_c, 7, 67, 0
9, 108300, Note_on_c, 7, 67, 70
9, 108492, Note_on_c, 7, 67, 0
9, 108540, Note_on_c, 7, 67, 70
9, 108732, Note_on_c, 7, 67, 0
9, 108780, Note_on_c, 7, 65, 92
9, 108972, Note_on_c, 7, 65, 0
9, 109500, Note_on_c, 7, 48, 105
9, 109500, Note_on_c, 7, 60, 105
9, 110604, Note_on_c, 7, 60, 0
9, 110604, Note_on_c, 7, 48, 0
9, 110700, Note_on_c, 7, 64, 105
9, 110892, Note_on_c, 7, 64, 0
9, 110940, Note_on_c, 7, 65, 105
9, 111084, Note_on_c, 7, 65, 0
9, 111180, Note_on_c, 7, 57, 105
9, 111324, Note_on_c, 7, 57, 0
9, 111420, Note_on_c, 7, 57, 105
9, 111564, Note_on_c, 7, 57, 0
9, 111660, Note_on_c, 7, 57, 105
9, 111804, Note_on_c, 7, 57, 0
9, 112380, Note_on_c, 7, 63, 58
9, 112524, Note_on_c, 7, 63, 0
9, 112620, Note_on_c, 7, 63, 58
9, 112764, Note_on_c, 7, 63, 0
9, 112860, Note_on_c, 7, 63, 58
9, 113004, Note_on_c, 7, 63, 0
9, 113100, Note_on_c, 7, 63, 58
9, 113244, Note_on_c, 7, 63, 0
9, 113820, Note_on_c, 7, 62, 105
9, 113820, Note_on_c, 7, 69, 105
9, 113964, Note_on_c, 7, 69, 0
9, 113964, Note_on_c, 7, 62, 0
9, 114060, Note_on_c, 7, 69, 105
9, 114060, Note_on_c, 7, 62, 105
9, 114204, Note_on_c, 7, 62, 0
9, 114204, Note_on_c, 7, 69, 0
9, 114300, Note_on_c, 7, 62, 105
9, 114300, Note_on_c, 7, 69, 105
9, 114444, Note_on_c, 7, 69, 0
9, 114444, Note_on_c, 7, 62, 0
9, 114540, Note_on_c, 7, 62, 105
9, 114540, Note_on_c, 7, 69, 105
9, 114684, Note_on_c, 7, 69, 0
9, 114684, Note_on_c, 7, 62, 0
9, 115500, Note_on_c, 7, 62, 58
9, 115692, Note_on_c, 7, 62, 0
9, 116220, Note_on_c, 7, 58, 58
9, 116412, Note_on_c, 7, 58, 0
9, 116940, Note_on_c, 7, 60, 58
9, 117132, Note_on_c, 7, 60, 0
9, 117740, Note_on_c, 7, 62, 70
9, 117820, Note_on_c, 7, 62, 0
9, 117820, Note_on_c, 7, 61, 70
9, 117900, Note_on_c, 7, 61, 0
9, 117900, Note_on_c, 7, 62, 70
9, 117980, Note_on_c, 7, 62, 0
9, 117980, Note_on_c, 7, 65, 70
9, 118060, Note_on_c, 7, 65, 0
9, 118060, Note_on_c, 7, 62, 70
9, 118124, Note_on_c, 7, 62, 0
9, 118140, Note_on_c, 7, 58, 70
9, 118860, Note_on_c, 7, 58, 0
9, 118860, Note_on_c, 7, 62, 70
9, 119544, Note_on_c, 7, 62, 0
9, 119580, Note_on_c, 7, 60, 70
9, 119760, Note_on_c, 7, 60, 0
9, 119820, Note_on_c, 7, 60, 70
9, 120000, Note_on_c, 7, 60, 0
9, 120060, Note_on_c, 7, 60, 70
9, 120240, Note_on_c, 7, 60, 0
9, 120300, Note_on_c, 7, 60, 70
9, 122388, Note_on_c, 7, 60, 0
9, 122460, Note_on_c, 7, 72, 70
9, 123036, Note_on_c, 7, 72, 0
9, 123900, Note_on_c, 7, 57, 100
9, 124092, Note_on_c, 7, 57, 0
9, 124140, Note_on_c, 7, 57, 80
9, 124332, Note_on_c, 7, 57, 0
9, 124380, Note_on_c, 7, 57, 80
9, 124572, Note_on_c, 7, 57, 0
9, 124620, Note_on_c, 7, 57, 80
9, 124812, Note_on_c, 7, 57, 0
9, 124860, Note_on_c, 7, 57, 80
9, 125052, Note_on_c, 7, 57, 0
9, 125100, Note_on_c, 7, 57, 80
9, 125292, Note_on_c, 7, 57, 0
9, 125340, Note_on_c, 7, 58, 70
9, 125532, Note_on_c, 7, 58, 0
9, 126060, Note_on_c, 7, 54, 70
9, 126180, Note_on_c, 7, 54, 0
9, 126180, Note_on_c, 7, 55, 70
9, 126252, Note_on_c, 7, 55, 0
9, 126300, Note_on_c, 7, 57, 70
9, 126372, Note_on_c, 7, 57, 0
9, 126420, Note_on_c, 7, 58, 70
9, 126492, Note_on_c, 7, 58, 0
9, 126540, Note_on_c, 7, 60, 70
9, 126612, Note_on_c, 7, 60, 0
9, 126660, Note_on_c, 7, 62, 70
9, 126732, Note_on_c, 7, 62, 0
9, 126780, Note_on_c, 7, 62, 70
9, 126900, Note_on_c, 7, 62, 0
9, 126900, Note_on_c, 7, 60, 70
9, 126972, Note_on_c, 7, 60, 0
9, 127020, Note_on_c, 7, 58, 70
9, 127092, Note_on_c, 7, 58, 0
9, 127140, Note_on_c, 7, 57, 70
9, 127212, Note_on_c, 7, 57, 0
9, 127260, Note_on_c, 7, 55, 70
9, 127332, Note_on_c, 7, 55, 0
9, 127380, Note_on_c, 7, 53, 70
9, 127452, Note_on_c, 7, 53, 0
9, 127500, Note_on_c, 7, 55, 70
9, 127980, Note_on_c, 7, 55, 0
9, 127980, Note_on_c, 7, 58, 70
9, 128172, Note_on_c, 7, 58, 0
9, 128220, Note_on_c, 7, 56, 110
9, 128940, Note_on_c, 7, 56, 0
9, 128940, Note_on_c, 7, 65, 70
9, 129132, Note_on_c, 7, 65, 0
9, 130380, Note_on_c, 7, 53, 70
9, 130620, Note_on_c, 7, 53, 0
9, 130620, Note_on_c, 7, 56, 70
9, 130860, Note_on_c, 7, 56, 0
9, 130860, Note_on_c, 7, 60, 70
9, 131088, Note_on_c, 7, 60, 0
9, 131100, Note_on_c, 7, 65, 70
9, 131340, Note_on_c, 7, 65, 0
9, 131340, Note_on_c, 7, 56, 70
9, 131580, Note_on_c, 7, 56, 0
9, 131580, Note_on_c, 7, 60, 70
9, 131772, Note_on_c, 7, 60, 0
9, 131820, Note_on_c, 7, 53, 70
9, 132060, Note_on_c, 7, 53, 0
9, 132060, Note_on_c, 7, 56, 70
9, 132300, Note_on_c, 7, 56, 0
9, 132300, Note_on_c, 7, 60, 70
9, 132528, Note_on_c, 7, 60, 0
9, 132540, Note_on_c, 7, 65, 70
9, 132780, Note_on_c, 7, 65, 0
9, 132780, Note_on_c, 7, 68, 70
9, 133020, Note_on_c, 7, 68, 0
9, 133020, Note_on_c, 7, 72, 70
9, 133212, Note_on_c, 7, 72, 0
9, 133980, Note_on_c, 7, 60, 105
9, 134100, Note_on_c, 7, 60, 0
9, 134100, Note_on_c, 7, 65, 105
9, 134220, Note_on_c, 7, 65, 0
9, 134220, Note_on_c, 7, 60, 105
9, 134340, Note_on_c, 7, 60, 0
9, 134340, Note_on_c, 7, 65, 105
9, 134460, Note_on_c, 7, 65, 0
9, 134460, Note_on_c, 7, 60, 105
9, 134580, Note_on_c, 7, 60, 0
9, 134580, Note_on_c, 7, 65, 105
9, 134676, Note_on_c, 7, 65, 0
9, 134700, Note_on_c, 7, 63, 105
9, 134820, Note_on_c, 7, 63, 0
9, 134820, Note_on_c, 7, 65, 105
9, 134940, Note_on_c, 7, 65, 0
9, 134940, Note_on_c, 7, 63, 105
9, 135060, Note_on_c, 7, 63, 0
9, 135060, Note_on_c, 7, 65, 105
9, 135180, Note_on_c, 7, 65, 0
9, 135180, Note_on_c, 7, 63, 105
9, 135300, Note_on_c, 7, 63, 0
9, 135300, Note_on_c, 7, 65, 105
9, 135396, Note_on_c, 7, 65, 0
9, 135420, Note_on_c, 7, 65, 70
9, 135420, Note_on_c, 7, 62, 70
9, 136572, Note_on_c, 7, 62, 0
9, 136860, Note_on_c, 7, 60, 30
9, 137436, Note_on_c, 7, 60, 0
9, 137436, Note_on_c, 7, 65, 0
9, 137820, Note_on_c, 7, 60, 30
9, 138012, Note_on_c, 7, 60, 0
9, 138060, Note_on_c, 7, 58, 70
9, 138252, Note_on_c, 7, 58, 0
9, 138300, Note_on_c, 7, 58, 105
9, 138780, Note_on_c, 7, 58, 0
9, 138780, Note_on_c, 7, 57, 105
9, 138972, Note_on_c, 7, 57, 0
9, 139020, Note_on_c, 7, 63, 105
9, 139500, Note_on_c, 7, 63, 0
9, 139500, Note_on_c, 7, 62, 105
9, 139692, Note_on_c, 7, 62, 0
9, 139740, Note_on_c, 7, 67, 70
9, 139932, Note_on_c, 7, 67, 0
9, 140220, Note_on_c, 7, 60, 70
9, 140388, Note_on_c, 7, 60, 0
9, 140460, Note_on_c, 7, 62, 70
9, 140676, Note_on_c, 7, 62, 0
9, 140700, Note_on_c, 7, 60, 70
9, 140916, Note_on_c, 7, 60, 0
9, 140940, Note_on_c, 7, 58, 70
9, 141156, Note_on_c, 7, 58, 0
9, 141180, Note_on_c, 7, 58, 105
9, 141660, Note_on_c, 7, 58, 0
9, 141660, Note_on_c, 7, 57, 105
9, 141852, Note_on_c, 7, 57, 0
9, 141900, Note_on_c, 7, 63, 105
9, 142380, Note_on_c, 7, 63, 0
9, 142380, Note_on_c, 7, 62, 105
9, 142572, Note_on_c, 7, 62, 0
9, 142620, Note_on_c, 7, 67, 70
9, 142812, Note_on_c, 7, 67, 0
9, 143100, Note_on_c, 7, 60, 70
9, 143268, Note_on_c, 7, 60, 0
9, 143340, Note_on_c, 7, 62, 70
9, 143556, Note_on_c, 7, 62, 0
9, 143580, Note_on_c, 7, 60, 70
9, 143796, Note_on_c, 7, 60, 0
9, 143820, Note_on_c, 7, 58, 70
9, 144036, Note_on_c, 7, 58, 0
9, 144060, Note_on_c, 7, 57, 58
9, 144444, Note_on_c, 7, 57, 0
9, 145500, Note_on_c, 7, 60, 105
9, 145692, Note_on_c, 7, 60, 0
9, 145740, Note_on_c, 7, 60, 105
9, 145932, Note_on_c, 7, 60, 0
9, 145980, Note_on_c, 7, 60, 105
9, 146172, Note_on_c, 7, 60, 0
9, 146220, Note_on_c, 7, 60, 105
9, 146412, Note_on_c, 7, 60, 0
9, 146460, Note_on_c, 7, 60, 105
9, 146652, Note_on_c, 7, 60, 0
9, 146700, Note_on_c, 7, 60, 105
9, 146892, Note_on_c, 7, 60, 0
9, 146940, Note_on_c, 7, 60, 105
9, 147324, Note_on_c, 7, 60, 0
9, 148380, Note_on_c, 7, 48, 70
9, 148572, Note_on_c, 7, 48, 0
9, 148620, Note_on_c, 7, 60, 70
9, 148812, Note_on_c, 7, 60, 0
9, 148860, Note_on_c, 7, 60, 70
9, 149052, Note_on_c, 7, 60, 0
9, 149100, Note_on_c, 7, 60, 70
9, 149292, Note_on_c, 7, 60, 0
9, 149340, Note_on_c, 7, 60, 70
9, 149532, Note_on_c, 7, 60, 0
9, 149580, Note_on_c, 7, 60, 70
9, 149772, Note_on_c, 7, 60, 0
9, 149820, Note_on_c, 7, 60, 58
9, 149988, Note_on_c, 7, 60, 0
9, 150060, Note_on_c, 7, 60, 58
9, 150228, Note_on_c, 7, 60, 0
9, 150300, Note_on_c, 7, 60, 58
9, 150468, Note_on_c, 7, 60, 0
9, 150540, Note_on_c, 7, 60, 58
9, 150756, Note_on_c, 7, 60, 0
9, 150756, End_track
10, 0, Start_track
10, 0, Sequencer_specific, 04, 43, 00, 01, 00
10, 0, Program_c, 10, 48
10, 0, Control_c, 10, 7, 124
10, 0, Control_c, 10, 10, 84
10, 0, Control_c, 10, 91, 70
10, 1440, Note_on_c, 10, 53, 70
10, 1824, Note_on_c, 10, 53, 0
10, 1920, Note_on_c, 10, 53, 70
10, 2112, Note_on_c, 10, 53, 0
10, 2160, Note_on_c, 10, 53, 70
10, 2544, Note_on_c, 10, 53, 0
10, 2640, Note_on_c, 10, 53, 70
10, 2832, Note_on_c, 10, 53, 0
10, 2880, Note_on_c, 10, 55, 70
10, 3264, Note_on_c, 10, 55, 0
10, 3360, Note_on_c, 10, 53, 70
10, 3552, Note_on_c, 10, 53, 0
10, 3600, Note_on_c, 10, 52, 70
10, 3792, Note_on_c, 10, 52, 0
10, 4080, Note_on_c, 10, 52, 70
10, 4272, Note_on_c, 10, 52, 0
10, 4320, Note_on_c, 10, 53, 70
10, 4512, Note_on_c, 10, 53, 0
10, 4800, Note_on_c, 10, 50, 70
10, 4992, Note_on_c, 10, 50, 0
10, 5040, Note_on_c, 10, 45, 70
10, 5232, Note_on_c, 10, 45, 0
10, 5520, Note_on_c, 10, 46, 70
10, 5712, Note_on_c, 10, 46, 0
10, 5760, Note_on_c, 10, 48, 58
10, 6672, Note_on_c, 10, 48, 0
10, 12960, Note_on_c, 10, 58, 58
10, 13680, Note_on_c, 10, 58, 0
10, 13680, Note_on_c, 10, 55, 58
10, 14364, Note_on_c, 10, 55, 0
10, 14400, Note_on_c, 10, 52, 70
10, 15120, Note_on_c, 10, 52, 0
10, 15120, Note_on_c, 10, 53, 80
10, 15312, Note_on_c, 10, 53, 0
10, 15840, Note_on_c, 10, 48, 105
10, 16032, Note_on_c, 10, 48, 0
10, 16080, Note_on_c, 10, 48, 105
10, 16272, Note_on_c, 10, 48, 0
10, 16320, Note_on_c, 10, 48, 105
10, 16512, Note_on_c, 10, 48, 0
10, 16560, Note_on_c, 10, 48, 105
10, 16752, Note_on_c, 10, 48, 0
10, 16800, Note_on_c, 10, 48, 105
10, 16992, Note_on_c, 10, 48, 0
10, 17040, Note_on_c, 10, 48, 105
10, 17232, Note_on_c, 10, 48, 0
10, 17280, Note_on_c, 10, 53, 105
10, 17424, Note_on_c, 10, 53, 0
10, 17520, Note_on_c, 10, 53, 105
10, 17664, Note_on_c, 10, 53, 0
10, 17760, Note_on_c, 10, 53, 105
10, 17904, Note_on_c, 10, 53, 0
10, 18000, Note_on_c, 10, 53, 92
10, 18144, Note_on_c, 10, 53, 0
10, 18720, Note_on_c, 10, 52, 58
10, 18864, Note_on_c, 10, 52, 0
10, 18960, Note_on_c, 10, 52, 58
10, 19104, Note_on_c, 10, 52, 0
10, 19200, Note_on_c, 10, 52, 58
10, 19344, Note_on_c, 10, 52, 0
10, 19440, Note_on_c, 10, 52, 58
10, 19584, Note_on_c, 10, 52, 0
10, 20400, Note_on_c, 10, 50, 58
10, 20592, Note_on_c, 10, 50, 0
10, 21120, Note_on_c, 10, 55, 58
10, 21312, Note_on_c, 10, 55, 0
10, 21840, Note_on_c, 10, 48, 58
10, 22032, Note_on_c, 10, 48, 0
10, 22560, Note_on_c, 10, 53, 58
10, 22800, Note_on_c, 10, 53, 0
10, 22800, Note_on_c, 10, 54, 58
10, 23028, Note_on_c, 10, 54, 0
10, 23040, Note_on_c, 10, 55, 58
10, 23616, Note_on_c, 10, 55, 0
10, 24240, Note_on_c, 10, 53, 70
10, 24432, Note_on_c, 10, 53, 0
10, 24480, Note_on_c, 10, 52, 70
10, 24720, Note_on_c, 10, 52, 0
10, 24720, Note_on_c, 10, 48, 70
10, 24864, Note_on_c, 10, 48, 0
10, 24960, Note_on_c, 10, 55, 58
10, 25104, Note_on_c, 10, 55, 0
10, 25680, Note_on_c, 10, 53, 58
10, 25872, Note_on_c, 10, 53, 0
10, 25920, Note_on_c, 10, 52, 70
10, 26160, Note_on_c, 10, 52, 0
10, 26160, Note_on_c, 10, 48, 70
10, 26304, Note_on_c, 10, 48, 0
10, 26400, Note_on_c, 10, 55, 58
10, 26544, Note_on_c, 10, 55, 0
10, 27360, Note_on_c, 10, 52, 105
10, 27552, Note_on_c, 10, 52, 0
10, 27600, Note_on_c, 10, 52, 105
10, 27792, Note_on_c, 10, 52, 0
10, 27840, Note_on_c, 10, 52, 105
10, 28032, Note_on_c, 10, 52, 0
10, 28080, Note_on_c, 10, 52, 105
10, 28272, Note_on_c, 10, 52, 0
10, 28320, Note_on_c, 10, 52, 105
10, 28512, Note_on_c, 10, 52, 0
10, 28560, Note_on_c, 10, 52, 105
10, 28752, Note_on_c, 10, 52, 0
10, 28800, Note_on_c, 10, 53, 105
10, 28992, Note_on_c, 10, 53, 0
10, 30240, Note_on_c, 10, 55, 70
10, 31680, Note_on_c, 10, 55, 0
10, 31680, Note_on_c, 10, 48, 58
10, 32064, Note_on_c, 10, 48, 0
10, 32400, Note_on_c, 10, 48, 70
10, 32640, Note_on_c, 10, 48, 0
10, 32640, Note_on_c, 10, 51, 70
10, 32880, Note_on_c, 10, 51, 0
10, 32880, Note_on_c, 10, 55, 70
10, 33108, Note_on_c, 10, 55, 0
10, 33120, Note_on_c, 10, 60, 70
10, 33360, Note_on_c, 10, 60, 0
10, 33360, Note_on_c, 10, 51, 70
10, 33600, Note_on_c, 10, 51, 0
10, 33600, Note_on_c, 10, 55, 70
10, 33828, Note_on_c, 10, 55, 0
10, 33840, Note_on_c, 10, 48, 70
10, 34080, Note_on_c, 10, 48, 0
10, 34080, Note_on_c, 10, 51, 70
10, 34320, Note_on_c, 10, 51, 0
10, 34320, Note_on_c, 10, 55, 70
10, 34548, Note_on_c, 10, 55, 0
10, 34560, Note_on_c, 10, 60, 70
10, 34800, Note_on_c, 10, 60, 0
10, 34800, Note_on_c, 10, 51, 70
10, 35040, Note_on_c, 10, 51, 0
10, 35040, Note_on_c, 10, 55, 70
10, 35232, Note_on_c, 10, 55, 0
10, 36000, Note_on_c, 10, 52, 70
10, 36192, Note_on_c, 10, 52, 0
10, 36240, Note_on_c, 10, 52, 105
10, 36432, Note_on_c, 10, 52, 0
10, 36480, Note_on_c, 10, 52, 105
10, 36672, Note_on_c, 10, 52, 0
10, 36720, Note_on_c, 10, 52, 105
10, 36912, Note_on_c, 10, 52, 0
10, 36960, Note_on_c, 10, 52, 105
10, 37152, Note_on_c, 10, 52, 0
10, 37200, Note_on_c, 10, 52, 105
10, 37392, Note_on_c, 10, 52, 0
10, 37440, Note_on_c, 10, 53, 92
10, 37632, Note_on_c, 10, 53, 0
10, 38880, Note_on_c, 10, 55, 70
10, 40056, Note_on_c, 10, 55, 0
10, 40080, Note_on_c, 10, 56, 70
10, 40308, Note_on_c, 10, 56, 0
10, 40320, Note_on_c, 10, 57, 105
10, 41004, Note_on_c, 10, 57, 0
10, 41040, Note_on_c, 10, 50, 105
10, 41724, Note_on_c, 10, 50, 0
10, 41760, Note_on_c, 10, 47, 70
10, 41952, Note_on_c, 10, 47, 0
10, 42240, Note_on_c, 10, 48, 70
10, 42432, Note_on_c, 10, 48, 0
10, 42480, Note_on_c, 10, 53, 70
10, 42696, Note_on_c, 10, 53, 0
10, 42720, Note_on_c, 10, 55, 70
10, 42936, Note_on_c, 10, 55, 0
10, 42960, Note_on_c, 10, 56, 70
10, 43176, Note_on_c, 10, 56, 0
10, 43200, Note_on_c, 10, 57, 105
10, 43884, Note_on_c, 10, 57, 0
10, 43920, Note_on_c, 10, 50, 105
10, 44604, Note_on_c, 10, 50, 0
10, 44640, Note_on_c, 10, 47, 70
10, 44832, Note_on_c, 10, 47, 0
10, 45120, Note_on_c, 10, 48, 70
10, 45312, Note_on_c, 10, 48, 0
10, 45360, Note_on_c, 10, 53, 70
10, 45576, Note_on_c, 10, 53, 0
10, 45600, Note_on_c, 10, 55, 70
10, 45816, Note_on_c, 10, 55, 0
10, 45840, Note_on_c, 10, 43, 70
10, 46056, Note_on_c, 10, 43, 0
10, 46080, Note_on_c, 10, 48, 70
10, 46464, Note_on_c, 10, 48, 0
10, 47520, Note_on_c, 10, 43, 105
10, 47712, Note_on_c, 10, 43, 0
10, 47760, Note_on_c, 10, 55, 105
10, 47952, Note_on_c, 10, 55, 0
10, 48000, Note_on_c, 10, 55, 105
10, 48192, Note_on_c, 10, 55, 0
10, 48240, Note_on_c, 10, 55, 105
10, 48432, Note_on_c, 10, 55, 0
10, 48480, Note_on_c, 10, 55, 105
10, 48672, Note_on_c, 10, 55, 0
10, 48720, Note_on_c, 10, 55, 105
10, 48912, Note_on_c, 10, 55, 0
10, 48960, Note_on_c, 10, 48, 105
10, 49344, Note_on_c, 10, 48, 0
10, 50400, Note_on_c, 10, 43, 70
10, 50592, Note_on_c, 10, 43, 0
10, 50640, Note_on_c, 10, 55, 70
10, 50832, Note_on_c, 10, 55, 0
10, 50880, Note_on_c, 10, 55, 70
10, 51072, Note_on_c, 10, 55, 0
10, 51120, Note_on_c, 10, 55, 70
10, 51312, Note_on_c, 10, 55, 0
10, 51360, Note_on_c, 10, 55, 70
10, 51552, Note_on_c, 10, 55, 0
10, 51600, Note_on_c, 10, 55, 70
10, 51792, Note_on_c, 10, 55, 0
10, 51840, Note_on_c, 10, 48, 70
10, 52008, Note_on_c, 10, 48, 0
10, 52080, Note_on_c, 10, 48, 70
10, 52248, Note_on_c, 10, 48, 0
10, 52320, Note_on_c, 10, 48, 70
10, 52488, Note_on_c, 10, 48, 0
10, 52560, Note_on_c, 10, 48, 70
10, 52728, Note_on_c, 10, 48, 0
10, 53280, Note_on_c, 10, 60, 58
10, 54192, Note_on_c, 10, 60, 0
10, 54240, Note_on_c, 10, 62, 58
10, 54432, Note_on_c, 10, 62, 0
10, 54480, Note_on_c, 10, 64, 58
10, 54672, Note_on_c, 10, 64, 0
10, 54720, Note_on_c, 10, 62, 70
10, 54864, Note_on_c, 10, 62, 0
10, 54960, Note_on_c, 10, 62, 70
10, 55104, Note_on_c, 10, 62, 0
10, 55200, Note_on_c, 10, 62, 70
10, 55344, Note_on_c, 10, 62, 0
10, 55440, Note_on_c, 10, 62, 70
10, 55584, Note_on_c, 10, 62, 0
10, 56160, Note_on_c, 10, 64, 70
10, 56304, Note_on_c, 10, 64, 0
10, 56400, Note_on_c, 10, 64, 70
10, 56544, Note_on_c, 10, 64, 0
10, 56640, Note_on_c, 10, 64, 70
10, 56784, Note_on_c, 10, 64, 0
10, 56880, Note_on_c, 10, 64, 70
10, 57024, Note_on_c, 10, 64, 0
10, 57840, Note_on_c, 10, 65, 58
10, 58080, Note_on_c, 10, 65, 0
10, 58080, Note_on_c, 10, 62, 58
10, 58272, Note_on_c, 10, 62, 0
10, 58560, Note_on_c, 10, 67, 58
10, 58800, Note_on_c, 10, 67, 0
10, 58800, Note_on_c, 10, 55, 58
10, 58992, Note_on_c, 10, 55, 0
10, 59040, Note_on_c, 10, 60, 58
10, 59424, Note_on_c, 10, 60, 0
10, 60720, Note_on_c, 10, 48, 105
10, 60912, Note_on_c, 10, 48, 0
10, 60960, Note_on_c, 10, 48, 105
10, 61152, Note_on_c, 10, 48, 0
10, 61200, Note_on_c, 10, 48, 105
10, 61392, Note_on_c, 10, 48, 0
10, 61440, Note_on_c, 10, 48, 105
10, 61632, Note_on_c, 10, 48, 0
10, 61680, Note_on_c, 10, 48, 105
10, 61872, Note_on_c, 10, 48, 0
10, 61920, Note_on_c, 10, 48, 105
10, 62304, Note_on_c, 10, 48, 0
10, 63600, Note_on_c, 10, 48, 92
10, 63792, Note_on_c, 10, 48, 0
10, 63840, Note_on_c, 10, 48, 105
10, 64032, Note_on_c, 10, 48, 0
10, 64080, Note_on_c, 10, 48, 105
10, 64272, Note_on_c, 10, 48, 0
10, 64320, Note_on_c, 10, 48, 105
10, 64512, Note_on_c, 10, 48, 0
10, 64560, Note_on_c, 10, 48, 105
10, 64752, Note_on_c, 10, 48, 0
10, 64800, Note_on_c, 10, 48, 105
10, 64992, Note_on_c, 10, 48, 0
10, 65160, Note_on_c, 10, 48, 80
10, 65232, Note_on_c, 10, 48, 0
10, 65280, Note_on_c, 10, 50, 80
10, 65352, Note_on_c, 10, 50, 0
10, 65400, Note_on_c, 10, 52, 80
10, 65472, Note_on_c, 10, 52, 0
10, 65520, Note_on_c, 10, 53, 80
10, 65592, Note_on_c, 10, 53, 0
10, 65640, Note_on_c, 10, 55, 80
10, 65712, Note_on_c, 10, 55, 0
10, 65760, Note_on_c, 10, 56, 80
10, 65832, Note_on_c, 10, 56, 0
10, 65880, Note_on_c, 10, 58, 80
10, 65952, Note_on_c, 10, 58, 0
10, 66000, Note_on_c, 10, 60, 80
10, 66072, Note_on_c, 10, 60, 0
10, 66120, Note_on_c, 10, 48, 80
10, 66192, Note_on_c, 10, 48, 0
10, 66240, Note_on_c, 10, 49, 80
10, 66384, Note_on_c, 10, 49, 0
10, 66480, Note_on_c, 10, 61, 80
10, 66624, Note_on_c, 10, 61, 0
10, 66720, Note_on_c, 10, 48, 80
10, 66864, Note_on_c, 10, 48, 0
10, 66960, Note_on_c, 10, 46, 78
10, 67680, Note_on_c, 10, 46, 0
10, 67680, Note_on_c, 10, 48, 58
10, 67872, Note_on_c, 10, 48, 0
10, 68040, Note_on_c, 10, 48, 80
10, 68112, Note_on_c, 10, 48, 0
10, 68160, Note_on_c, 10, 50, 80
10, 68232, Note_on_c, 10, 50, 0
10, 68280, Note_on_c, 10, 52, 80
10, 68352, Note_on_c, 10, 52, 0
10, 68400, Note_on_c, 10, 53, 80
10, 68472, Note_on_c, 10, 53, 0
10, 68520, Note_on_c, 10, 55, 80
10, 68592, Note_on_c, 10, 55, 0
10, 68640, Note_on_c, 10, 56, 80
10, 68712, Note_on_c, 10, 56, 0
10, 68760, Note_on_c, 10, 58, 80
10, 68832, Note_on_c, 10, 58, 0
10, 68880, Note_on_c, 10, 60, 80
10, 68952, Note_on_c, 10, 60, 0
10, 69000, Note_on_c, 10, 48, 80
10, 69072, Note_on_c, 10, 48, 0
10, 69120, Note_on_c, 10, 49, 80
10, 69264, Note_on_c, 10, 49, 0
10, 69360, Note_on_c, 10, 61, 80
10, 69504, Note_on_c, 10, 61, 0
10, 69600, Note_on_c, 10, 48, 80
10, 69744, Note_on_c, 10, 48, 0
10, 69840, Note_on_c, 10, 47, 100
10, 70560, Note_on_c, 10, 47, 0
10, 70560, Note_on_c, 10, 48, 58
10, 70800, Note_on_c, 10, 48, 0
10, 70800, Note_on_c, 10, 52, 70
10, 71040, Note_on_c, 10, 52, 0
10, 71040, Note_on_c, 10, 53, 70
10, 71232, Note_on_c, 10, 53, 0
10, 71280, Note_on_c, 10, 46, 70
10, 71520, Note_on_c, 10, 46, 0
10, 71520, Note_on_c, 10, 48, 70
10, 71664, Note_on_c, 10, 48, 0
10, 71760, Note_on_c, 10, 48, 70
10, 71988, Note_on_c, 10, 48, 0
10, 72000, Note_on_c, 10, 41, 70
10, 72192, Note_on_c, 10, 41, 0
10, 74400, Note_on_c, 10, 55, 70
10, 74544, Note_on_c, 10, 55, 0
10, 74640, Note_on_c, 10, 53, 70
10, 74784, Note_on_c, 10, 53, 0
10, 74880, Note_on_c, 10, 52, 70
10, 75024, Note_on_c, 10, 52, 0
10, 75120, Note_on_c, 10, 48, 70
10, 75264, Note_on_c, 10, 48, 0
10, 77280, Note_on_c, 10, 51, 70
10, 77520, Note_on_c, 10, 51, 0
10, 77520, Note_on_c, 10, 49, 70
10, 77712, Note_on_c, 10, 49, 0
10, 77760, Note_on_c, 10, 48, 70
10, 78000, Note_on_c, 10, 48, 0
10, 78000, Note_on_c, 10, 46, 70
10, 78240, Note_on_c, 10, 46, 0
10, 78240, Note_on_c, 10, 44, 70
10, 78432, Note_on_c, 10, 44, 0
10, 78480, Note_on_c, 10, 49, 70
10, 78720, Note_on_c, 10, 49, 0
10, 78720, Note_on_c, 10, 51, 70
10, 78936, Note_on_c, 10, 51, 0
10, 78960, Note_on_c, 10, 51, 70
10, 79176, Note_on_c, 10, 51, 0
10, 79200, Note_on_c, 10, 44, 70
10, 79392, Note_on_c, 10, 44, 0
10, 79440, Note_on_c, 10, 56, 70
10, 79632, Note_on_c, 10, 56, 0
10, 79680, Note_on_c, 10, 56, 70
10, 79872, Note_on_c, 10, 56, 0
10, 79920, Note_on_c, 10, 56, 70
10, 80112, Note_on_c, 10, 56, 0
10, 80160, Note_on_c, 10, 56, 70
10, 80352, Note_on_c, 10, 56, 0
10, 80400, Note_on_c, 10, 56, 70
10, 80592, Note_on_c, 10, 56, 0
10, 80640, Note_on_c, 10, 57, 70
10, 80832, Note_on_c, 10, 57, 0
10, 80880, Note_on_c, 10, 57, 70
10, 81072, Note_on_c, 10, 57, 0
10, 81120, Note_on_c, 10, 57, 70
10, 81312, Note_on_c, 10, 57, 0
10, 81360, Note_on_c, 10, 57, 70
10, 81552, Note_on_c, 10, 57, 0
10, 81600, Note_on_c, 10, 57, 70
10, 81792, Note_on_c, 10, 57, 0
10, 81840, Note_on_c, 10, 57, 70
10, 82032, Note_on_c, 10, 57, 0
10, 82080, Note_on_c, 10, 58, 70
10, 82272, Note_on_c, 10, 58, 0
10, 82320, Note_on_c, 10, 58, 70
10, 82512, Note_on_c, 10, 58, 0
10, 82560, Note_on_c, 10, 58, 70
10, 82752, Note_on_c, 10, 58, 0
10, 82800, Note_on_c, 10, 58, 70
10, 82992, Note_on_c, 10, 58, 0
10, 83040, Note_on_c, 10, 58, 70
10, 83232, Note_on_c, 10, 58, 0
10, 83280, Note_on_c, 10, 58, 70
10, 83472, Note_on_c, 10, 58, 0
10, 83520, Note_on_c, 10, 59, 70
10, 83712, Note_on_c, 10, 59, 0
10, 83760, Note_on_c, 10, 59, 70
10, 83952, Note_on_c, 10, 59, 0
10, 84000, Note_on_c, 10, 59, 70
10, 84192, Note_on_c, 10, 59, 0
10, 84240, Note_on_c, 10, 59, 70
10, 84432, Note_on_c, 10, 59, 0
10, 84480, Note_on_c, 10, 59, 70
10, 84672, Note_on_c, 10, 59, 0
10, 84720, Note_on_c, 10, 59, 70
10, 84912, Note_on_c, 10, 59, 0
10, 84960, Note_on_c, 10, 60, 70
10, 85152, Note_on_c, 10, 60, 0
10, 85320, Note_on_c, 10, 48, 70
10, 85392, Note_on_c, 10, 48, 0
10, 85440, Note_on_c, 10, 50, 80
10, 85512, Note_on_c, 10, 50, 0
10, 85560, Note_on_c, 10, 52, 80
10, 85632, Note_on_c, 10, 52, 0
10, 85680, Note_on_c, 10, 53, 80
10, 85752, Note_on_c, 10, 53, 0
10, 85800, Note_on_c, 10, 55, 80
10, 85872, Note_on_c, 10, 55, 0
10, 85920, Note_on_c, 10, 56, 80
10, 85992, Note_on_c, 10, 56, 0
10, 86040, Note_on_c, 10, 58, 80
10, 86112, Note_on_c, 10, 58, 0
10, 86160, Note_on_c, 10, 60, 80
10, 86232, Note_on_c, 10, 60, 0
10, 86280, Note_on_c, 10, 48, 80
10, 86352, Note_on_c, 10, 48, 0
10, 86400, Note_on_c, 10, 49, 80
10, 86544, Note_on_c, 10, 49, 0
10, 86640, Note_on_c, 10, 61, 80
10, 86784, Note_on_c, 10, 61, 0
10, 86880, Note_on_c, 10, 48, 80
10, 87024, Note_on_c, 10, 48, 0
10, 87120, Note_on_c, 10, 46, 100
10, 87840, Note_on_c, 10, 46, 0
10, 87840, Note_on_c, 10, 48, 70
10, 88032, Note_on_c, 10, 48, 0
10, 88200, Note_on_c, 10, 48, 70
10, 88272, Note_on_c, 10, 48, 0
10, 88320, Note_on_c, 10, 50, 80
10, 88392, Note_on_c, 10, 50, 0
10, 88440, Note_on_c, 10, 52, 80
10, 88512, Note_on_c, 10, 52, 0
10, 88560, Note_on_c, 10, 53, 80
10, 88632, Note_on_c, 10, 53, 0
10, 88680, Note_on_c, 10, 55, 80
10, 88752, Note_on_c, 10, 55, 0
10, 88800, Note_on_c, 10, 56, 80
10, 88872, Note_on_c, 10, 56, 0
10, 88920, Note_on_c, 10, 58, 80
10, 88992, Note_on_c, 10, 58, 0
10, 89040, Note_on_c, 10, 60, 80
10, 89112, Note_on_c, 10, 60, 0
10, 89160, Note_on_c, 10, 48, 80
10, 89232, Note_on_c, 10, 48, 0
10, 89280, Note_on_c, 10, 49, 80
10, 89424, Note_on_c, 10, 49, 0
10, 89520, Note_on_c, 10, 61, 80
10, 89664, Note_on_c, 10, 61, 0
10, 89760, Note_on_c, 10, 48, 80
10, 89904, Note_on_c, 10, 48, 0
10, 90000, Note_on_c, 10, 47, 100
10, 90720, Note_on_c, 10, 47, 0
10, 90720, Note_on_c, 10, 48, 70
10, 90912, Note_on_c, 10, 48, 0
10, 91440, Note_on_c, 10, 48, 70
10, 91632, Note_on_c, 10, 48, 0
10, 92160, Note_on_c, 10, 48, 70
10, 92352, Note_on_c, 10, 48, 0
10, 94440, Note_on_c, 10, 48, 105
10, 94560, Note_on_c, 10, 48, 0
10, 94560, Note_on_c, 10, 49, 105
10, 94680, Note_on_c, 10, 49, 0
10, 94680, Note_on_c, 10, 50, 105
10, 94800, Note_on_c, 10, 50, 0
10, 94800, Note_on_c, 10, 51, 105
10, 94920, Note_on_c, 10, 51, 0
10, 94920, Note_on_c, 10, 52, 105
10, 95040, Note_on_c, 10, 52, 0
10, 95100, Note_on_c, 10, 53, 58
10, 95484, Note_on_c, 10, 53, 0
10, 95580, Note_on_c, 10, 53, 58
10, 95772, Note_on_c, 10, 53, 0
10, 95820, Note_on_c, 10, 53, 58
10, 96204, Note_on_c, 10, 53, 0
10, 96300, Note_on_c, 10, 53, 58
10, 96492, Note_on_c, 10, 53, 0
10, 96540, Note_on_c, 10, 55, 58
10, 96684, Note_on_c, 10, 55, 0
10, 96780, Note_on_c, 10, 55, 58
10, 97020, Note_on_c, 10, 55, 0
10, 97020, Note_on_c, 10, 53, 58
10, 97164, Note_on_c, 10, 53, 0
10, 97260, Note_on_c, 10, 52, 58
10, 97404, Note_on_c, 10, 52, 0
10, 97740, Note_on_c, 10, 52, 58
10, 97980, Note_on_c, 10, 52, 0
10, 97980, Note_on_c, 10, 53, 58
10, 98172, Note_on_c, 10, 53, 0
10, 98460, Note_on_c, 10, 50, 58
10, 98652, Note_on_c, 10, 50, 0
10, 98700, Note_on_c, 10, 45, 58
10, 98892, Note_on_c, 10, 45, 0
10, 98940, Note_on_c, 10, 46, 58
10, 99132, Note_on_c, 10, 46, 0
10, 99180, Note_on_c, 10, 43, 58
10, 99372, Note_on_c, 10, 43, 0
10, 99420, Note_on_c, 10, 48, 58
10, 100332, Note_on_c, 10, 48, 0
10, 106620, Note_on_c, 10, 58, 58
10, 107340, Note_on_c, 10, 58, 0
10, 107340, Note_on_c, 10, 55, 58
10, 108024, Note_on_c, 10, 55, 0
10, 108060, Note_on_c, 10, 52, 58
10, 108780, Note_on_c, 10, 52, 0
10, 108780, Note_on_c, 10, 53, 80
10, 108972, Note_on_c, 10, 53, 0
10, 109500, Note_on_c, 10, 48, 105
10, 109692, Note_on_c, 10, 48, 0
10, 109740, Note_on_c, 10, 48, 105
10, 109932, Note_on_c, 10, 48, 0
10, 109980, Note_on_c, 10, 48, 105
10, 110172, Note_on_c, 10, 48, 0
10, 110220, Note_on_c, 10, 48, 105
10, 110412, Note_on_c, 10, 48, 0
10, 110460, Note_on_c, 10, 48, 105
10, 110652, Note_on_c, 10, 48, 0
10, 110700, Note_on_c, 10, 48, 105
10, 110892, Note_on_c, 10, 48, 0
10, 110940, Note_on_c, 10, 53, 105
10, 111084, Note_on_c, 10, 53, 0
10, 111180, Note_on_c, 10, 53, 105
10, 111324, Note_on_c, 10, 53, 0
10, 111420, Note_on_c, 10, 53, 105
10, 111564, Note_on_c, 10, 53, 0
10, 111660, Note_on_c, 10, 53, 105
10, 111804, Note_on_c, 10, 53, 0
10, 112380, Note_on_c, 10, 51, 58
10, 112524, Note_on_c, 10, 51, 0
10, 112620, Note_on_c, 10, 51, 58
10, 112764, Note_on_c, 10, 51, 0
10, 112860, Note_on_c, 10, 51, 58
10, 113004, Note_on_c, 10, 51, 0
10, 113100, Note_on_c, 10, 51, 58
10, 113244, Note_on_c, 10, 51, 0
10, 113820, Note_on_c, 10, 50, 105
10, 113964, Note_on_c, 10, 50, 0
10, 114060, Note_on_c, 10, 50, 105
10, 114204, Note_on_c, 10, 50, 0
10, 114300, Note_on_c, 10, 50, 105
10, 114444, Note_on_c, 10, 50, 0
10, 114540, Note_on_c, 10, 50, 105
10, 114684, Note_on_c, 10, 50, 0
10, 115500, Note_on_c, 10, 55, 58
10, 115692, Note_on_c, 10, 55, 0
10, 116220, Note_on_c, 10, 52, 58
10, 116412, Note_on_c, 10, 52, 0
10, 116940, Note_on_c, 10, 53, 58
10, 117132, Note_on_c, 10, 53, 0
10, 117740, Note_on_c, 10, 50, 70
10, 117820, Note_on_c, 10, 50, 0
10, 117820, Note_on_c, 10, 49, 70
10, 117900, Note_on_c, 10, 49, 0
10, 117900, Note_on_c, 10, 50, 70
10, 117980, Note_on_c, 10, 50, 0
10, 117980, Note_on_c, 10, 53, 70
10, 118060, Note_on_c, 10, 53, 0
10, 118060, Note_on_c, 10, 50, 70
10, 118124, Note_on_c, 10, 50, 0
10, 118140, Note_on_c, 10, 46, 70
10, 119316, Note_on_c, 10, 46, 0
10, 119340, Note_on_c, 10, 47, 70
10, 119532, Note_on_c, 10, 47, 0
10, 119580, Note_on_c, 10, 48, 70
10, 120156, Note_on_c, 10, 48, 0
10, 120780, Note_on_c, 10, 46, 70
10, 120972, Note_on_c, 10, 46, 0
10, 121020, Note_on_c, 10, 45, 70
10, 121260, Note_on_c, 10, 45, 0
10, 121260, Note_on_c, 10, 41, 70
10, 121452, Note_on_c, 10, 41, 0
10, 121500, Note_on_c, 10, 48, 70
10, 121668, Note_on_c, 10, 48, 0
10, 122220, Note_on_c, 10, 58, 70
10, 122412, Note_on_c, 10, 58, 0
10, 122460, Note_on_c, 10, 57, 70
10, 122700, Note_on_c, 10, 57, 0
10, 122700, Note_on_c, 10, 53, 70
10, 122892, Note_on_c, 10, 53, 0
10, 122940, Note_on_c, 10, 60, 70
10, 123108, Note_on_c, 10, 60, 0
10, 123900, Note_on_c, 10, 45, 100
10, 124092, Note_on_c, 10, 45, 0
10, 124140, Note_on_c, 10, 57, 80
10, 124332, Note_on_c, 10, 57, 0
10, 124380, Note_on_c, 10, 57, 80
10, 124572, Note_on_c, 10, 57, 0
10, 124620, Note_on_c, 10, 57, 80
10, 124812, Note_on_c, 10, 57, 0
10, 124860, Note_on_c, 10, 57, 80
10, 125052, Note_on_c, 10, 57, 0
10, 125100, Note_on_c, 10, 57, 80
10, 125292, Note_on_c, 10, 57, 0
10, 125340, Note_on_c, 10, 58, 80
10, 125532, Note_on_c, 10, 58, 0
10, 126780, Note_on_c, 10, 60, 70
10, 127500, Note_on_c, 10, 60, 0
10, 127500, Note_on_c, 10, 48, 70
10, 127980, Note_on_c, 10, 48, 0
10, 127980, Note_on_c, 10, 49, 70
10, 128172, Note_on_c, 10, 49, 0
10, 128220, Note_on_c, 10, 50, 90
10, 129132, Note_on_c, 10, 50, 0
10, 130380, Note_on_c, 10, 41, 70
10, 130620, Note_on_c, 10, 41, 0
10, 130620, Note_on_c, 10, 44, 70
10, 130860, Note_on_c, 10, 44, 0
10, 130860, Note_on_c, 10, 48, 70
10, 131088, Note_on_c, 10, 48, 0
10, 131100, Note_on_c, 10, 53, 70
10, 131340, Note_on_c, 10, 53, 0
10, 131340, Note_on_c, 10, 44, 70
10, 131580, Note_on_c, 10, 44, 0
10, 131580, Note_on_c, 10, 48, 70
10, 131772, Note_on_c, 10, 48, 0
10, 131820, Note_on_c, 10, 53, 70
10, 132060, Note_on_c, 10, 53, 0
10, 132060, Note_on_c, 10, 56, 70
10, 132300, Note_on_c, 10, 56, 0
10, 132300, Note_on_c, 10, 60, 70
10, 132528, Note_on_c, 10, 60, 0
10, 132540, Note_on_c, 10, 65, 70
10, 132780, Note_on_c, 10, 65, 0
10, 132780, Note_on_c, 10, 56, 70
10, 133020, Note_on_c, 10, 56, 0
10, 133020, Note_on_c, 10, 60, 70
10, 133212, Note_on_c, 10, 60, 0
10, 133980, Note_on_c, 10, 45, 105
10, 134172, Note_on_c, 10, 45, 0
10, 134220, Note_on_c, 10, 57, 105
10, 134412, Note_on_c, 10, 57, 0
10, 134460, Note_on_c, 10, 57, 105
10, 134652, Note_on_c, 10, 57, 0
10, 134700, Note_on_c, 10, 57, 105
10, 134892, Note_on_c, 10, 57, 0
10, 134940, Note_on_c, 10, 57, 105
10, 135132, Note_on_c, 10, 57, 0
10, 135180, Note_on_c, 10, 57, 105
10, 135372, Note_on_c, 10, 57, 0
10, 135420, Note_on_c, 10, 58, 58
10, 136140, Note_on_c, 10, 58, 0
10, 136140, Note_on_c, 10, 59, 58
10, 136716, Note_on_c, 10, 59, 0
10, 136860, Note_on_c, 10, 60, 58
10, 137436, Note_on_c, 10, 60, 0
10, 137580, Note_on_c, 10, 48, 58
10, 138060, Note_on_c, 10, 48, 0
10, 138060, Note_on_c, 10, 49, 70
10, 138252, Note_on_c, 10, 49, 0
10, 138300, Note_on_c, 10, 50, 105
10, 139020, Note_on_c, 10, 50, 0
10, 139020, Note_on_c, 10, 43, 105
10, 139704, Note_on_c, 10, 43, 0
10, 139740, Note_on_c, 10, 52, 70
10, 139932, Note_on_c, 10, 52, 0
10, 140220, Note_on_c, 10, 53, 70
10, 140388, Note_on_c, 10, 53, 0
10, 140460, Note_on_c, 10, 46, 70
10, 140676, Note_on_c, 10, 46, 0
10, 140700, Note_on_c, 10, 48, 70
10, 140916, Note_on_c, 10, 48, 0
10, 140940, Note_on_c, 10, 49, 70
10, 141156, Note_on_c, 10, 49, 0
10, 141180, Note_on_c, 10, 50, 105
10, 141900, Note_on_c, 10, 50, 0
10, 141900, Note_on_c, 10, 43, 105
10, 142584, Note_on_c, 10, 43, 0
10, 142620, Note_on_c, 10, 52, 70
10, 142812, Note_on_c, 10, 52, 0
10, 143100, Note_on_c, 10, 53, 70
10, 143268, Note_on_c, 10, 53, 0
10, 143340, Note_on_c, 10, 46, 70
10, 143556, Note_on_c, 10, 46, 0
10, 143580, Note_on_c, 10, 48, 70
10, 143796, Note_on_c, 10, 48, 0
10, 143820, Note_on_c, 10, 48, 70
10, 144036, Note_on_c, 10, 48, 0
10, 144060, Note_on_c, 10, 41, 58
10, 144444, Note_on_c, 10, 41, 0
10, 145500, Note_on_c, 10, 48, 105
10, 145692, Note_on_c, 10, 48, 0
10, 145740, Note_on_c, 10, 60, 105
10, 145932, Note_on_c, 10, 60, 0
10, 145980, Note_on_c, 10, 60, 105
10, 146172, Note_on_c, 10, 60, 0
10, 146220, Note_on_c, 10, 60, 105
10, 146412, Note_on_c, 10, 60, 0
10, 146460, Note_on_c, 10, 60, 105
10, 146652, Note_on_c, 10, 60, 0
10, 146700, Note_on_c, 10, 60, 105
10, 146892, Note_on_c, 10, 60, 0
10, 146940, Note_on_c, 10, 53, 105
10, 147324, Note_on_c, 10, 53, 0
10, 148380, Note_on_c, 10, 48, 70
10, 148572, Note_on_c, 10, 48, 0
10, 148620, Note_on_c, 10, 48, 70
10, 148812, Note_on_c, 10, 48, 0
10, 148860, Note_on_c, 10, 48, 70
10, 149052, Note_on_c, 10, 48, 0
10, 149100, Note_on_c, 10, 48, 70
10, 149292, Note_on_c, 10, 48, 0
10, 149340, Note_on_c, 10, 48, 70
10, 149532, Note_on_c, 10, 48, 0
10, 149580, Note_on_c, 10, 48, 70
10, 149772, Note_on_c, 10, 48, 0
10, 149820, Note_on_c, 10, 41, 58
10, 149988, Note_on_c, 10, 41, 0
10, 150060, Note_on_c, 10, 41, 58
10, 150228, Note_on_c, 10, 41, 0
10, 150300, Note_on_c, 10, 41, 58
10, 150468, Note_on_c, 10, 41, 0
10, 150540, Note_on_c, 10, 41, 58
10, 150756, Note_on_c, 10, 41, 0
10, 150756, End_track
11, 0, Start_track
11, 0, Sequencer_specific, 04, 43, 00, 01, 00
11, 0, Program_c, 11, 48
11, 0, Control_c, 11, 7, 97
11, 0, Control_c, 11, 91, 70
11, 0, Control_c, 11, 10, 96
11, 1440, Note_on_c, 11, 41, 70
11, 1824, Note_on_c, 11, 41, 0
11, 1920, Note_on_c, 11, 41, 70
11, 2112, Note_on_c, 11, 41, 0
11, 2160, Note_on_c, 11, 41, 70
11, 2544, Note_on_c, 11, 41, 0
11, 2640, Note_on_c, 11, 41, 70
11, 2832, Note_on_c, 11, 41, 0
11, 2880, Note_on_c, 11, 43, 70
11, 3264, Note_on_c, 11, 43, 0
11, 3360, Note_on_c, 11, 41, 70
11, 3552, Note_on_c, 11, 41, 0
11, 3600, Note_on_c, 11, 40, 70
11, 3792, Note_on_c, 11, 40, 0
11, 4080, Note_on_c, 11, 40, 70
11, 4272, Note_on_c, 11, 40, 0
11, 4320, Note_on_c, 11, 41, 70
11, 4512, Note_on_c, 11, 41, 0
11, 4800, Note_on_c, 11, 38, 70
11, 4992, Note_on_c, 11, 38, 0
11, 5040, Note_on_c, 11, 33, 70
11, 5232, Note_on_c, 11, 33, 0
11, 5520, Note_on_c, 11, 34, 70
11, 5712, Note_on_c, 11, 34, 0
11, 5760, Note_on_c, 11, 36, 58
11, 6672, Note_on_c, 11, 36, 0
11, 12960, Note_on_c, 11, 46, 58
11, 13680, Note_on_c, 11, 46, 0
11, 13680, Note_on_c, 11, 43, 58
11, 14364, Note_on_c, 11, 43, 0
11, 14400, Note_on_c, 11, 40, 70
11, 15120, Note_on_c, 11, 40, 0
11, 15120, Note_on_c, 11, 41, 80
11, 15312, Note_on_c, 11, 41, 0
11, 15840, Note_on_c, 11, 36, 105
11, 16032, Note_on_c, 11, 36, 0
11, 16080, Note_on_c, 11, 36, 105
11, 16272, Note_on_c, 11, 36, 0
11, 16320, Note_on_c, 11, 36, 105
11, 16512, Note_on_c, 11, 36, 0
11, 16560, Note_on_c, 11, 36, 105
11, 16752, Note_on_c, 11, 36, 0
11, 16800, Note_on_c, 11, 36, 105
11, 16992, Note_on_c, 11, 36, 0
11, 17040, Note_on_c, 11, 36, 105
11, 17232, Note_on_c, 11, 36, 0
11, 17280, Note_on_c, 11, 41, 105
11, 17424, Note_on_c, 11, 41, 0
11, 17520, Note_on_c, 11, 41, 105
11, 17664, Note_on_c, 11, 41, 0
11, 17760, Note_on_c, 11, 41, 105
11, 17904, Note_on_c, 11, 41, 0
11, 18000, Note_on_c, 11, 41, 92
11, 18144, Note_on_c, 11, 41, 0
11, 18720, Note_on_c, 11, 40, 58
11, 18864, Note_on_c, 11, 40, 0
11, 18960, Note_on_c, 11, 40, 58
11, 19104, Note_on_c, 11, 40, 0
11, 19200, Note_on_c, 11, 40, 58
11, 19344, Note_on_c, 11, 40, 0
11, 19440, Note_on_c, 11, 40, 58
11, 19584, Note_on_c, 11, 40, 0
11, 20400, Note_on_c, 11, 38, 58
11, 20592, Note_on_c, 11, 38, 0
11, 21120, Note_on_c, 11, 43, 58
11, 21312, Note_on_c, 11, 43, 0
11, 21840, Note_on_c, 11, 36, 58
11, 22032, Note_on_c, 11, 36, 0
11, 22560, Note_on_c, 11, 41, 58
11, 22800, Note_on_c, 11, 41, 0
11, 22800, Note_on_c, 11, 42, 58
11, 23028, Note_on_c, 11, 42, 0
11, 23040, Note_on_c, 11, 43, 58
11, 23616, Note_on_c, 11, 43, 0
11, 24240, Note_on_c, 11, 41, 70
11, 24432, Note_on_c, 11, 41, 0
11, 24480, Note_on_c, 11, 40, 70
11, 24720, Note_on_c, 11, 40, 0
11, 24720, Note_on_c, 11, 36, 70
11, 24864, Note_on_c, 11, 36, 0
11, 24960, Note_on_c, 11, 43, 70
11, 25104, Note_on_c, 11, 43, 0
11, 25680, Note_on_c, 11, 41, 58
11, 25872, Note_on_c, 11, 41, 0
11, 25920, Note_on_c, 11, 40, 70
11, 26160, Note_on_c, 11, 40, 0
11, 26160, Note_on_c, 11, 36, 70
11, 26304, Note_on_c, 11, 36, 0
11, 26400, Note_on_c, 11, 43, 58
11, 26544, Note_on_c, 11, 43, 0
11, 27360, Note_on_c, 11, 40, 105
11, 27552, Note_on_c, 11, 40, 0
11, 27600, Note_on_c, 11, 40, 105
11, 27792, Note_on_c, 11, 40, 0
11, 27840, Note_on_c, 11, 40, 105
11, 28032, Note_on_c, 11, 40, 0
11, 28080, Note_on_c, 11, 40, 105
11, 28272, Note_on_c, 11, 40, 0
11, 28320, Note_on_c, 11, 40, 105
11, 28512, Note_on_c, 11, 40, 0
11, 28560, Note_on_c, 11, 40, 105
11, 28752, Note_on_c, 11, 40, 0
11, 28800, Note_on_c, 11, 41, 105
11, 28992, Note_on_c, 11, 41, 0
11, 30240, Note_on_c, 11, 43, 70
11, 31680, Note_on_c, 11, 43, 0
11, 31680, Note_on_c, 11, 36, 58
11, 32064, Note_on_c, 11, 36, 0
11, 32400, Note_on_c, 11, 36, 70
11, 32640, Note_on_c, 11, 36, 0
11, 32640, Note_on_c, 11, 39, 70
11, 32880, Note_on_c, 11, 39, 0
11, 32880, Note_on_c, 11, 43, 70
11, 33108, Note_on_c, 11, 43, 0
11, 33120, Note_on_c, 11, 48, 70
11, 33360, Note_on_c, 11, 48, 0
11, 33360, Note_on_c, 11, 39, 70
11, 33600, Note_on_c, 11, 39, 0
11, 33600, Note_on_c, 11, 43, 70
11, 33828, Note_on_c, 11, 43, 0
11, 33840, Note_on_c, 11, 36, 70
11, 34080, Note_on_c, 11, 36, 0
11, 34080, Note_on_c, 11, 39, 70
11, 34320, Note_on_c, 11, 39, 0
11, 34320, Note_on_c, 11, 43, 70
11, 34548, Note_on_c, 11, 43, 0
11, 34560, Note_on_c, 11, 48, 70
11, 34800, Note_on_c, 11, 48, 0
11, 34800, Note_on_c, 11, 39, 70
11, 35040, Note_on_c, 11, 39, 0
11, 35040, Note_on_c, 11, 43, 70
11, 35232, Note_on_c, 11, 43, 0
11, 36000, Note_on_c, 11, 40, 105
11, 36192, Note_on_c, 11, 40, 0
11, 36240, Note_on_c, 11, 40, 105
11, 36432, Note_on_c, 11, 40, 0
11, 36480, Note_on_c, 11, 40, 105
11, 36672, Note_on_c, 11, 40, 0
11, 36720, Note_on_c, 11, 40, 105
11, 36912, Note_on_c, 11, 40, 0
11, 36960, Note_on_c, 11, 40, 105
11, 37152, Note_on_c, 11, 40, 0
11, 37200, Note_on_c, 11, 40, 105
11, 37392, Note_on_c, 11, 40, 0
11, 37440, Note_on_c, 11, 41, 92
11, 37632, Note_on_c, 11, 41, 0
11, 38880, Note_on_c, 11, 43, 70
11, 40056, Note_on_c, 11, 43, 0
11, 40080, Note_on_c, 11, 44, 70
11, 40308, Note_on_c, 11, 44, 0
11, 40320, Note_on_c, 11, 45, 105
11, 41004, Note_on_c, 11, 45, 0
11, 41040, Note_on_c, 11, 38, 105
11, 41724, Note_on_c, 11, 38, 0
11, 41760, Note_on_c, 11, 35, 70
11, 41952, Note_on_c, 11, 35, 0
11, 42240, Note_on_c, 11, 36, 70
11, 42432, Note_on_c, 11, 36, 0
11, 42480, Note_on_c, 11, 41, 70
11, 42696, Note_on_c, 11, 41, 0
11, 42720, Note_on_c, 11, 43, 70
11, 42936, Note_on_c, 11, 43, 0
11, 42960, Note_on_c, 11, 44, 70
11, 43176, Note_on_c, 11, 44, 0
11, 43200, Note_on_c, 11, 45, 105
11, 43884, Note_on_c, 11, 45, 0
11, 43920, Note_on_c, 11, 38, 105
11, 44604, Note_on_c, 11, 38, 0
11, 44640, Note_on_c, 11, 35, 70
11, 44832, Note_on_c, 11, 35, 0
11, 45120, Note_on_c, 11, 36, 70
11, 45312, Note_on_c, 11, 36, 0
11, 45360, Note_on_c, 11, 41, 70
11, 45576, Note_on_c, 11, 41, 0
11, 45600, Note_on_c, 11, 43, 70
11, 45816, Note_on_c, 11, 43, 0
11, 45840, Note_on_c, 11, 31, 70
11, 46056, Note_on_c, 11, 31, 0
11, 46080, Note_on_c, 11, 36, 70
11, 46464, Note_on_c, 11, 36, 0
11, 47520, Note_on_c, 11, 31, 105
11, 47712, Note_on_c, 11, 31, 0
11, 47760, Note_on_c, 11, 43, 105
11, 47952, Note_on_c, 11, 43, 0
11, 48000, Note_on_c, 11, 43, 105
11, 48192, Note_on_c, 11, 43, 0
11, 48240, Note_on_c, 11, 43, 105
11, 48432, Note_on_c, 11, 43, 0
11, 48480, Note_on_c, 11, 43, 105
11, 48672, Note_on_c, 11, 43, 0
11, 48720, Note_on_c, 11, 43, 105
11, 48912, Note_on_c, 11, 43, 0
11, 48960, Note_on_c, 11, 36, 105
11, 49344, Note_on_c, 11, 36, 0
11, 50400, Note_on_c, 11, 31, 70
11, 50592, Note_on_c, 11, 31, 0
11, 50640, Note_on_c, 11, 43, 70
11, 50832, Note_on_c, 11, 43, 0
11, 50880, Note_on_c, 11, 43, 70
11, 51072, Note_on_c, 11, 43, 0
11, 51120, Note_on_c, 11, 43, 70
11, 51312, Note_on_c, 11, 43, 0
11, 51360, Note_on_c, 11, 43, 70
11, 51552, Note_on_c, 11, 43, 0
11, 51600, Note_on_c, 11, 43, 70
11, 51792, Note_on_c, 11, 43, 0
11, 51840, Note_on_c, 11, 36, 70
11, 52008, Note_on_c, 11, 36, 0
11, 52080, Note_on_c, 11, 36, 70
11, 52248, Note_on_c, 11, 36, 0
11, 52320, Note_on_c, 11, 36, 70
11, 52488, Note_on_c, 11, 36, 0
11, 52560, Note_on_c, 11, 36, 70
11, 52728, Note_on_c, 11, 36, 0
11, 60720, Note_on_c, 11, 36, 105
11, 60912, Note_on_c, 11, 36, 0
11, 60960, Note_on_c, 11, 36, 105
11, 61152, Note_on_c, 11, 36, 0
11, 61200, Note_on_c, 11, 36, 105
11, 61392, Note_on_c, 11, 36, 0
11, 61440, Note_on_c, 11, 36, 105
11, 61632, Note_on_c, 11, 36, 0
11, 61680, Note_on_c, 11, 36, 105
11, 61872, Note_on_c, 11, 36, 0
11, 61920, Note_on_c, 11, 36, 105
11, 62304, Note_on_c, 11, 36, 0
11, 63600, Note_on_c, 11, 36, 92
11, 63792, Note_on_c, 11, 36, 0
11, 63840, Note_on_c, 11, 36, 105
11, 64032, Note_on_c, 11, 36, 0
11, 64080, Note_on_c, 11, 36, 105
11, 64272, Note_on_c, 11, 36, 0
11, 64320, Note_on_c, 11, 36, 105
11, 64512, Note_on_c, 11, 36, 0
11, 64560, Note_on_c, 11, 36, 105
11, 64752, Note_on_c, 11, 36, 0
11, 64800, Note_on_c, 11, 36, 105
11, 64992, Note_on_c, 11, 36, 0
11, 65160, Note_on_c, 11, 36, 80
11, 65232, Note_on_c, 11, 36, 0
11, 65280, Note_on_c, 11, 38, 80
11, 65352, Note_on_c, 11, 38, 0
11, 65400, Note_on_c, 11, 40, 80
11, 65472, Note_on_c, 11, 40, 0
11, 65520, Note_on_c, 11, 41, 80
11, 65592, Note_on_c, 11, 41, 0
11, 65640, Note_on_c, 11, 43, 80
11, 65712, Note_on_c, 11, 43, 0
11, 65760, Note_on_c, 11, 44, 80
11, 65832, Note_on_c, 11, 44, 0
11, 65880, Note_on_c, 11, 46, 80
11, 65952, Note_on_c, 11, 46, 0
11, 66000, Note_on_c, 11, 48, 80
11, 66072, Note_on_c, 11, 48, 0
11, 66120, Note_on_c, 11, 36, 80
11, 66192, Note_on_c, 11, 36, 0
11, 66240, Note_on_c, 11, 37, 80
11, 66384, Note_on_c, 11, 37, 0
11, 66480, Note_on_c, 11, 49, 80
11, 66624, Note_on_c, 11, 49, 0
11, 66720, Note_on_c, 11, 36, 80
11, 66864, Note_on_c, 11, 36, 0
11, 66960, Note_on_c, 11, 34, 100
11, 67680, Note_on_c, 11, 34, 0
11, 67680, Note_on_c, 11, 36, 58
11, 67872, Note_on_c, 11, 36, 0
11, 68040, Note_on_c, 11, 36, 80
11, 68112, Note_on_c, 11, 36, 0
11, 68160, Note_on_c, 11, 38, 80
11, 68232, Note_on_c, 11, 38, 0
11, 68280, Note_on_c, 11, 40, 80
11, 68352, Note_on_c, 11, 40, 0
11, 68400, Note_on_c, 11, 41, 80
11, 68472, Note_on_c, 11, 41, 0
11, 68520, Note_on_c, 11, 43, 80
11, 68592, Note_on_c, 11, 43, 0
11, 68640, Note_on_c, 11, 44, 80
11, 68712, Note_on_c, 11, 44, 0
11, 68760, Note_on_c, 11, 46, 80
11, 68832, Note_on_c, 11, 46, 0
11, 68880, Note_on_c, 11, 48, 80
11, 68952, Note_on_c, 11, 48, 0
11, 69000, Note_on_c, 11, 36, 80
11, 69072, Note_on_c, 11, 36, 0
11, 69120, Note_on_c, 11, 37, 80
11, 69264, Note_on_c, 11, 37, 0
11, 69360, Note_on_c, 11, 49, 80
11, 69504, Note_on_c, 11, 49, 0
11, 69600, Note_on_c, 11, 36, 80
11, 69744, Note_on_c, 11, 36, 0
11, 69840, Note_on_c, 11, 35, 100
11, 70560, Note_on_c, 11, 35, 0
11, 70560, Note_on_c, 11, 36, 70
11, 70800, Note_on_c, 11, 36, 0
11, 70800, Note_on_c, 11, 40, 70
11, 71040, Note_on_c, 11, 40, 0
11, 71040, Note_on_c, 11, 41, 70
11, 71232, Note_on_c, 11, 41, 0
11, 71280, Note_on_c, 11, 34, 70
11, 71520, Note_on_c, 11, 34, 0
11, 71520, Note_on_c, 11, 36, 70
11, 71664, Note_on_c, 11, 36, 0
11, 71760, Note_on_c, 11, 36, 70
11, 71988, Note_on_c, 11, 36, 0
11, 72000, Note_on_c, 11, 29, 58
11, 72192, Note_on_c, 11, 29, 0
11, 74400, Note_on_c, 11, 43, 70
11, 74544, Note_on_c, 11, 43, 0
11, 74640, Note_on_c, 11, 41, 70
11, 74784, Note_on_c, 11, 41, 0
11, 74880, Note_on_c, 11, 40, 70
11, 75024, Note_on_c, 11, 40, 0
11, 75120, Note_on_c, 11, 36, 70
11, 75264, Note_on_c, 11, 36, 0
11, 77280, Note_on_c, 11, 39, 70
11, 77520, Note_on_c, 11, 39, 0
11, 77520, Note_on_c, 11, 37, 70
11, 77712, Note_on_c, 11, 37, 0
11, 77760, Note_on_c, 11, 36, 70
11, 78000, Note_on_c, 11, 36, 0
11, 78000, Note_on_c, 11, 34, 70
11, 78240, Note_on_c, 11, 34, 0
11, 78240, Note_on_c, 11, 32, 70
11, 78432, Note_on_c, 11, 32, 0
11, 78480, Note_on_c, 11, 37, 70
11, 78720, Note_on_c, 11, 37, 0
11, 78720, Note_on_c, 11, 39, 70
11, 78936, Note_on_c, 11, 39, 0
11, 78960, Note_on_c, 11, 39, 70
11, 79176, Note_on_c, 11, 39, 0
11, 79200, Note_on_c, 11, 32, 70
11, 79392, Note_on_c, 11, 32, 0
11, 79440, Note_on_c, 11, 44, 70
11, 79632, Note_on_c, 11, 44, 0
11, 79680, Note_on_c, 11, 44, 70
11, 79872, Note_on_c, 11, 44, 0
11, 79920, Note_on_c, 11, 44, 70
11, 80112, Note_on_c, 11, 44, 0
11, 80160, Note_on_c, 11, 44, 70
11, 80352, Note_on_c, 11, 44, 0
11, 80400, Note_on_c, 11, 44, 70
11, 80592, Note_on_c, 11, 44, 0
11, 80640, Note_on_c, 11, 45, 70
11, 80832, Note_on_c, 11, 45, 0
11, 80880, Note_on_c, 11, 45, 70
11, 81072, Note_on_c, 11, 45, 0
11, 81120, Note_on_c, 11, 45, 70
11, 81312, Note_on_c, 11, 45, 0
11, 81360, Note_on_c, 11, 45, 70
11, 81552, Note_on_c, 11, 45, 0
11, 81600, Note_on_c, 11, 45, 70
11, 81792, Note_on_c, 11, 45, 0
11, 81840, Note_on_c, 11, 45, 70
11, 82032, Note_on_c, 11, 45, 0
11, 82080, Note_on_c, 11, 46, 70
11, 82272, Note_on_c, 11, 46, 0
11, 82320, Note_on_c, 11, 46, 70
11, 82512, Note_on_c, 11, 46, 0
11, 82560, Note_on_c, 11, 46, 70
11, 82752, Note_on_c, 11, 46, 0
11, 82800, Note_on_c, 11, 46, 70
11, 82992, Note_on_c, 11, 46, 0
11, 83040, Note_on_c, 11, 46, 70
11, 83232, Note_on_c, 11, 46, 0
11, 83280, Note_on_c, 11, 46, 70
11, 83472, Note_on_c, 11, 46, 0
11, 83520, Note_on_c, 11, 47, 70
11, 83712, Note_on_c, 11, 47, 0
11, 83760, Note_on_c, 11, 47, 70
11, 83952, Note_on_c, 11, 47, 0
11, 84000, Note_on_c, 11, 47, 70
11, 84192, Note_on_c, 11, 47, 0
11, 84240, Note_on_c, 11, 47, 70
11, 84432, Note_on_c, 11, 47, 0
11, 84480, Note_on_c, 11, 47, 70
11, 84672, Note_on_c, 11, 47, 0
11, 84720, Note_on_c, 11, 47, 70
11, 84912, Note_on_c, 11, 47, 0
11, 84960, Note_on_c, 11, 48, 70
11, 85152, Note_on_c, 11, 48, 0
11, 85320, Note_on_c, 11, 36, 70
11, 85392, Note_on_c, 11, 36, 0
11, 85440, Note_on_c, 11, 38, 80
11, 85512, Note_on_c, 11, 38, 0
11, 85560, Note_on_c, 11, 40, 80
11, 85632, Note_on_c, 11, 40, 0
11, 85680, Note_on_c, 11, 41, 80
11, 85752, Note_on_c, 11, 41, 0
11, 85800, Note_on_c, 11, 43, 80
11, 85872, Note_on_c, 11, 43, 0
11, 85920, Note_on_c, 11, 44, 80
11, 85992, Note_on_c, 11, 44, 0
11, 86040, Note_on_c, 11, 46, 80
11, 86112, Note_on_c, 11, 46, 0
11, 86160, Note_on_c, 11, 48, 80
11, 86232, Note_on_c, 11, 48, 0
11, 86280, Note_on_c, 11, 36, 80
11, 86352, Note_on_c, 11, 36, 0
11, 86400, Note_on_c, 11, 37, 80
11, 86544, Note_on_c, 11, 37, 0
11, 86640, Note_on_c, 11, 49, 80
11, 86784, Note_on_c, 11, 49, 0
11, 86880, Note_on_c, 11, 36, 80
11, 87024, Note_on_c, 11, 36, 0
11, 87120, Note_on_c, 11, 34, 100
11, 87840, Note_on_c, 11, 34, 0
11, 87840, Note_on_c, 11, 36, 80
11, 88032, Note_on_c, 11, 36, 0
11, 88200, Note_on_c, 11, 36, 80
11, 88272, Note_on_c, 11, 36, 0
11, 88320, Note_on_c, 11, 38, 80
11, 88392, Note_on_c, 11, 38, 0
11, 88440, Note_on_c, 11, 40, 80
11, 88512, Note_on_c, 11, 40, 0
11, 88560, Note_on_c, 11, 41, 80
11, 88632, Note_on_c, 11, 41, 0
11, 88680, Note_on_c, 11, 43, 80
11, 88752, Note_on_c, 11, 43, 0
11, 88800, Note_on_c, 11, 44, 80
11, 88872, Note_on_c, 11, 44, 0
11, 88920, Note_on_c, 11, 46, 80
11, 88992, Note_on_c, 11, 46, 0
11, 89040, Note_on_c, 11, 48, 80
11, 89112, Note_on_c, 11, 48, 0
11, 89160, Note_on_c, 11, 36, 80
11, 89232, Note_on_c, 11, 36, 0
11, 89280, Note_on_c, 11, 37, 80
11, 89424, Note_on_c, 11, 37, 0
11, 89520, Note_on_c, 11, 49, 80
11, 89664, Note_on_c, 11, 49, 0
11, 89760, Note_on_c, 11, 36, 80
11, 89904, Note_on_c, 11, 36, 0
11, 90000, Note_on_c, 11, 35, 100
11, 90720, Note_on_c, 11, 35, 0
11, 90720, Note_on_c, 11, 36, 70
11, 90912, Note_on_c, 11, 36, 0
11, 91440, Note_on_c, 11, 36, 70
11, 91632, Note_on_c, 11, 36, 0
11, 92160, Note_on_c, 11, 36, 70
11, 92352, Note_on_c, 11, 36, 0
11, 94440, Note_on_c, 11, 36, 105
11, 94560, Note_on_c, 11, 36, 0
11, 94560, Note_on_c, 11, 37, 105
11, 94680, Note_on_c, 11, 37, 0
11, 94680, Note_on_c, 11, 38, 105
11, 94800, Note_on_c, 11, 38, 0
11, 94800, Note_on_c, 11, 39, 105
11, 94920, Note_on_c, 11, 39, 0
11, 94920, Note_on_c, 11, 40, 105
11, 95040, Note_on_c, 11, 40, 0
11, 95100, Note_on_c, 11, 41, 58
11, 95484, Note_on_c, 11, 41, 0
11, 95580, Note_on_c, 11, 41, 58
11, 95772, Note_on_c, 11, 41, 0
11, 95820, Note_on_c, 11, 41, 58
11, 96204, Note_on_c, 11, 41, 0
11, 96300, Note_on_c, 11, 41, 58
11, 96492, Note_on_c, 11, 41, 0
11, 96540, Note_on_c, 11, 43, 58
11, 96684, Note_on_c, 11, 43, 0
11, 96780, Note_on_c, 11, 43, 58
11, 97020, Note_on_c, 11, 43, 0
11, 97020, Note_on_c, 11, 41, 58
11, 97164, Note_on_c, 11, 41, 0
11, 97260, Note_on_c, 11, 40, 58
11, 97404, Note_on_c, 11, 40, 0
11, 97740, Note_on_c, 11, 40, 58
11, 97980, Note_on_c, 11, 40, 0
11, 97980, Note_on_c, 11, 41, 58
11, 98172, Note_on_c, 11, 41, 0
11, 98460, Note_on_c, 11, 38, 58
11, 98652, Note_on_c, 11, 38, 0
11, 98700, Note_on_c, 11, 33, 58
11, 98940, Note_on_c, 11, 33, 0
11, 98940, Note_on_c, 11, 34, 58
11, 99180, Note_on_c, 11, 34, 0
11, 99180, Note_on_c, 11, 31, 58
11, 99372, Note_on_c, 11, 31, 0
11, 99420, Note_on_c, 11, 36, 58
11, 100332, Note_on_c, 11, 36, 0
11, 106620, Note_on_c, 11, 46, 58
11, 107340, Note_on_c, 11, 46, 0
11, 107340, Note_on_c, 11, 43, 58
11, 108024, Note_on_c, 11, 43, 0
11, 108060, Note_on_c, 11, 40, 58
11, 108780, Note_on_c, 11, 40, 0
11, 108780, Note_on_c, 11, 41, 70
11, 108972, Note_on_c, 11, 41, 0
11, 109500, Note_on_c, 11, 36, 105
11, 109692, Note_on_c, 11, 36, 0
11, 109740, Note_on_c, 11, 36, 105
11, 109932, Note_on_c, 11, 36, 0
11, 109980, Note_on_c, 11, 36, 105
11, 110172, Note_on_c, 11, 36, 0
11, 110220, Note_on_c, 11, 36, 105
11, 110412, Note_on_c, 11, 36, 0
11, 110460, Note_on_c, 11, 36, 105
11, 110652, Note_on_c, 11, 36, 0
11, 110700, Note_on_c, 11, 36, 105
11, 110892, Note_on_c, 11, 36, 0
11, 110940, Note_on_c, 11, 41, 105
11, 111084, Note_on_c, 11, 41, 0
11, 111180, Note_on_c, 11, 41, 105
11, 111324, Note_on_c, 11, 41, 0
11, 111420, Note_on_c, 11, 41, 105
11, 111564, Note_on_c, 11, 41, 0
11, 111660, Note_on_c, 11, 41, 105
11, 111804, Note_on_c, 11, 41, 0
11, 112380, Note_on_c, 11, 39, 58
11, 112524, Note_on_c, 11, 39, 0
11, 112620, Note_on_c, 11, 39, 58
11, 112764, Note_on_c, 11, 39, 0
11, 112860, Note_on_c, 11, 39, 58
11, 113004, Note_on_c, 11, 39, 0
11, 113100, Note_on_c, 11, 39, 58
11, 113244, Note_on_c, 11, 39, 0
11, 113820, Note_on_c, 11, 38, 105
11, 113964, Note_on_c, 11, 38, 0
11, 114060, Note_on_c, 11, 38, 105
11, 114204, Note_on_c, 11, 38, 0
11, 114300, Note_on_c, 11, 38, 105
11, 114444, Note_on_c, 11, 38, 0
11, 114540, Note_on_c, 11, 38, 105
11, 114684, Note_on_c, 11, 38, 0
11, 115500, Note_on_c, 11, 43, 58
11, 115692, Note_on_c, 11, 43, 0
11, 116220, Note_on_c, 11, 40, 58
11, 116412, Note_on_c, 11, 40, 0
11, 116940, Note_on_c, 11, 41, 58
11, 117132, Note_on_c, 11, 41, 0
11, 117740, Note_on_c, 11, 38, 70
11, 117820, Note_on_c, 11, 38, 0
11, 117820, Note_on_c, 11, 37, 70
11, 117900, Note_on_c, 11, 37, 0
11, 117900, Note_on_c, 11, 38, 70
11, 117980, Note_on_c, 11, 38, 0
11, 117980, Note_on_c, 11, 41, 70
11, 118060, Note_on_c, 11, 41, 0
11, 118060, Note_on_c, 11, 38, 70
11, 118124, Note_on_c, 11, 38, 0
11, 118140, Note_on_c, 11, 34, 70
11, 119316, Note_on_c, 11, 34, 0
11, 119340, Note_on_c, 11, 35, 70
11, 119532, Note_on_c, 11, 35, 0
11, 119580, Note_on_c, 11, 36, 70
11, 120156, Note_on_c, 11, 36, 0
11, 120780, Note_on_c, 11, 34, 70
11, 120972, Note_on_c, 11, 34, 0
11, 121020, Note_on_c, 11, 33, 70
11, 121260, Note_on_c, 11, 33, 0
11, 121260, Note_on_c, 11, 29, 70
11, 121452, Note_on_c, 11, 29, 0
11, 121500, Note_on_c, 11, 36, 70
11, 121668, Note_on_c, 11, 36, 0
11, 122220, Note_on_c, 11, 46, 70
11, 122412, Note_on_c, 11, 46, 0
11, 122460, Note_on_c, 11, 45, 70
11, 122700, Note_on_c, 11, 45, 0
11, 122700, Note_on_c, 11, 41, 70
11, 122892, Note_on_c, 11, 41, 0
11, 122940, Note_on_c, 11, 48, 70
11, 123108, Note_on_c, 11, 48, 0
11, 123900, Note_on_c, 11, 33, 105
11, 124092, Note_on_c, 11, 33, 0
11, 124140, Note_on_c, 11, 45, 105
11, 124332, Note_on_c, 11, 45, 0
11, 124380, Note_on_c, 11, 45, 105
11, 124572, Note_on_c, 11, 45, 0
11, 124620, Note_on_c, 11, 45, 105
11, 124812, Note_on_c, 11, 45, 0
11, 124860, Note_on_c, 11, 45, 105
11, 125052, Note_on_c, 11, 45, 0
11, 125100, Note_on_c, 11, 45, 105
11, 125292, Note_on_c, 11, 45, 0
11, 125340, Note_on_c, 11, 46, 105
11, 125532, Note_on_c, 11, 46, 0
11, 126780, Note_on_c, 11, 48, 92
11, 127500, Note_on_c, 11, 48, 0
11, 127500, Note_on_c, 11, 36, 70
11, 127980, Note_on_c, 11, 36, 0
11, 127980, Note_on_c, 11, 37, 70
11, 128172, Note_on_c, 11, 37, 0
11, 128220, Note_on_c, 11, 38, 90
11, 129132, Note_on_c, 11, 38, 0
11, 130380, Note_on_c, 11, 29, 70
11, 130620, Note_on_c, 11, 29, 0
11, 130620, Note_on_c, 11, 32, 70
11, 130860, Note_on_c, 11, 32, 0
11, 130860, Note_on_c, 11, 36, 70
11, 131088, Note_on_c, 11, 36, 0
11, 131100, Note_on_c, 11, 41, 70
11, 131340, Note_on_c, 11, 41, 0
11, 131340, Note_on_c, 11, 32, 70
11, 131580, Note_on_c, 11, 32, 0
11, 131580, Note_on_c, 11, 36, 70
11, 131772, Note_on_c, 11, 36, 0
11, 131820, Note_on_c, 11, 41, 70
11, 132060, Note_on_c, 11, 41, 0
11, 132060, Note_on_c, 11, 44, 70
11, 132300, Note_on_c, 11, 44, 0
11, 132300, Note_on_c, 11, 48, 70
11, 132528, Note_on_c, 11, 48, 0
11, 132540, Note_on_c, 11, 53, 70
11, 132780, Note_on_c, 11, 53, 0
11, 132780, Note_on_c, 11, 44, 70
11, 133020, Note_on_c, 11, 44, 0
11, 133020, Note_on_c, 11, 48, 70
11, 133212, Note_on_c, 11, 48, 0
11, 133980, Note_on_c, 11, 33, 105
11, 134172, Note_on_c, 11, 33, 0
11, 134220, Note_on_c, 11, 45, 105
11, 134412, Note_on_c, 11, 45, 0
11, 134460, Note_on_c, 11, 45, 105
11, 134652, Note_on_c, 11, 45, 0
11, 134700, Note_on_c, 11, 45, 105
11, 134892, Note_on_c, 11, 45, 0
11, 134940, Note_on_c, 11, 45, 105
11, 135132, Note_on_c, 11, 45, 0
11, 135180, Note_on_c, 11, 45, 105
11, 135372, Note_on_c, 11, 45, 0
11, 135420, Note_on_c, 11, 46, 58
11, 136140, Note_on_c, 11, 46, 0
11, 136140, Note_on_c, 11, 47, 58
11, 136716, Note_on_c, 11, 47, 0
11, 136860, Note_on_c, 11, 48, 58
11, 137436, Note_on_c, 11, 48, 0
11, 137580, Note_on_c, 11, 36, 58
11, 138060, Note_on_c, 11, 36, 0
11, 138060, Note_on_c, 11, 37, 70
11, 138252, Note_on_c, 11, 37, 0
11, 138300, Note_on_c, 11, 38, 105
11, 139020, Note_on_c, 11, 38, 0
11, 139020, Note_on_c, 11, 31, 105
11, 139704, Note_on_c, 11, 31, 0
11, 139740, Note_on_c, 11, 40, 70
11, 139932, Note_on_c, 11, 40, 0
11, 140220, Note_on_c, 11, 41, 70
11, 140388, Note_on_c, 11, 41, 0
11, 140460, Note_on_c, 11, 34, 70
11, 140676, Note_on_c, 11, 34, 0
11, 140700, Note_on_c, 11, 36, 70
11, 140916, Note_on_c, 11, 36, 0
11, 140940, Note_on_c, 11, 37, 70
11, 141156, Note_on_c, 11, 37, 0
11, 141180, Note_on_c, 11, 38, 105
11, 141900, Note_on_c, 11, 38, 0
11, 141900, Note_on_c, 11, 31, 105
11, 142584, Note_on_c, 11, 31, 0
11, 142620, Note_on_c, 11, 40, 70
11, 142812, Note_on_c, 11, 40, 0
11, 143100, Note_on_c, 11, 41, 70
11, 143268, Note_on_c, 11, 41, 0
11, 143340, Note_on_c, 11, 34, 70
11, 143556, Note_on_c, 11, 34, 0
11, 143580, Note_on_c, 11, 36, 70
11, 143796, Note_on_c, 11, 36, 0
11, 143820, Note_on_c, 11, 36, 70
11, 144036, Note_on_c, 11, 36, 0
11, 144060, Note_on_c, 11, 29, 58
11, 144444, Note_on_c, 11, 29, 0
11, 145500, Note_on_c, 11, 36, 105
11, 145692, Note_on_c, 11, 36, 0
11, 145740, Note_on_c, 11, 48, 105
11, 145932, Note_on_c, 11, 48, 0
11, 145980, Note_on_c, 11, 48, 105
11, 146172, Note_on_c, 11, 48, 0
11, 146220, Note_on_c, 11, 48, 105
11, 146412, Note_on_c, 11, 48, 0
11, 146460, Note_on_c, 11, 48, 105
11, 146652, Note_on_c, 11, 48, 0
11, 146700, Note_on_c, 11, 48, 105
11, 146892, Note_on_c, 11, 48, 0
11, 146940, Note_on_c, 11, 41, 105
11, 147324, Note_on_c, 11, 41, 0
11, 148380, Note_on_c, 11, 36, 70
11, 148572, Note_on_c, 11, 36, 0
11, 148620, Note_on_c, 11, 36, 70
11, 148812, Note_on_c, 11, 36, 0
11, 148860, Note_on_c, 11, 36, 70
11, 149052, Note_on_c, 11, 36, 0
11, 149100, Note_on_c, 11, 36, 70
11, 149292, Note_on_c, 11, 36, 0
11, 149340, Note_on_c, 11, 36, 70
11, 149532, Note_on_c, 11, 36, 0
11, 149580, Note_on_c, 11, 36, 70
11, 149772, Note_on_c, 11, 36, 0
11, 149820, Note_on_c, 11, 29, 58
11, 149988, Note_on_c, 11, 29, 0
11, 150060, Note_on_c, 11, 29, 58
11, 150228, Note_on_c, 11, 29, 0
11, 150300, Note_on_c, 11, 29, 58
11, 150468, Note_on_c, 11, 29, 0
11, 150540, Note_on_c, 11, 29, 58
11, 150756, Note_on_c, 11, 29, 0
11, 151260, Note_on_c, 11, 19, 1
11, 152412, Note_on_c, 11, 19, 0
11, 152412, End_track
12, 0, Start_track
12, 0, Sequencer_specific, 04, 43, 00, 01, 00
12, 0, Program_c, 12, 43
12, 0, Control_c, 12, 7, 97
12, 0, Control_c, 12, 91, 70
12, 0, Control_c, 12, 10, 96
12, 1440, Note_on_c, 12, 41, 70
12, 1824, Note_on_c, 12, 41, 0
12, 1920, Note_on_c, 12, 41, 70
12, 2112, Note_on_c, 12, 41, 0
12, 2160, Note_on_c, 12, 41, 70
12, 2544, Note_on_c, 12, 41, 0
12, 2640, Note_on_c, 12, 41, 70
12, 2832, Note_on_c, 12, 41, 0
12, 2880, Note_on_c, 12, 43, 70
12, 3264, Note_on_c, 12, 43, 0
12, 3360, Note_on_c, 12, 41, 70
12, 3552, Note_on_c, 12, 41, 0
12, 3600, Note_on_c, 12, 40, 70
12, 3792, Note_on_c, 12, 40, 0
12, 4080, Note_on_c, 12, 40, 70
12, 4272, Note_on_c, 12, 40, 0
12, 4320, Note_on_c, 12, 41, 70
12, 4512, Note_on_c, 12, 41, 0
12, 4800, Note_on_c, 12, 38, 70
12, 4992, Note_on_c, 12, 38, 0
12, 5040, Note_on_c, 12, 33, 70
12, 5232, Note_on_c, 12, 33, 0
12, 5520, Note_on_c, 12, 34, 70
12, 5712, Note_on_c, 12, 34, 0
12, 5760, Note_on_c, 12, 36, 58
12, 6672, Note_on_c, 12, 36, 0
12, 12960, Note_on_c, 12, 46, 58
12, 13680, Note_on_c, 12, 46, 0
12, 13680, Note_on_c, 12, 43, 58
12, 14364, Note_on_c, 12, 43, 0
12, 14400, Note_on_c, 12, 40, 70
12, 15120, Note_on_c, 12, 40, 0
12, 15120, Note_on_c, 12, 41, 80
12, 15312, Note_on_c, 12, 41, 0
12, 15840, Note_on_c, 12, 36, 105
12, 16032, Note_on_c, 12, 36, 0
12, 16080, Note_on_c, 12, 36, 105
12, 16272, Note_on_c, 12, 36, 0
12, 16320, Note_on_c, 12, 36, 105
12, 16512, Note_on_c, 12, 36, 0
12, 16560, Note_on_c, 12, 36, 105
12, 16752, Note_on_c, 12, 36, 0
12, 16800, Note_on_c, 12, 36, 105
12, 16992, Note_on_c, 12, 36, 0
12, 17040, Note_on_c, 12, 36, 105
12, 17232, Note_on_c, 12, 36, 0
12, 17280, Note_on_c, 12, 41, 105
12, 17424, Note_on_c, 12, 41, 0
12, 17520, Note_on_c, 12, 41, 105
12, 17664, Note_on_c, 12, 41, 0
12, 17760, Note_on_c, 12, 41, 105
12, 17904, Note_on_c, 12, 41, 0
12, 18000, Note_on_c, 12, 41, 92
12, 18144, Note_on_c, 12, 41, 0
12, 18720, Note_on_c, 12, 40, 58
12, 18864, Note_on_c, 12, 40, 0
12, 18960, Note_on_c, 12, 40, 58
12, 19104, Note_on_c, 12, 40, 0
12, 19200, Note_on_c, 12, 40, 58
12, 19344, Note_on_c, 12, 40, 0
12, 19440, Note_on_c, 12, 40, 58
12, 19584, Note_on_c, 12, 40, 0
12, 20400, Note_on_c, 12, 38, 58
12, 20592, Note_on_c, 12, 38, 0
12, 21120, Note_on_c, 12, 43, 58
12, 21312, Note_on_c, 12, 43, 0
12, 21840, Note_on_c, 12, 36, 58
12, 22032, Note_on_c, 12, 36, 0
12, 22560, Note_on_c, 12, 41, 58
12, 22800, Note_on_c, 12, 41, 0
12, 22800, Note_on_c, 12, 42, 58
12, 23028, Note_on_c, 12, 42, 0
12, 23040, Note_on_c, 12, 43, 70
12, 23616, Note_on_c, 12, 43, 0
12, 24240, Note_on_c, 12, 41, 70
12, 24432, Note_on_c, 12, 41, 0
12, 24480, Note_on_c, 12, 40, 70
12, 24720, Note_on_c, 12, 40, 0
12, 24720, Note_on_c, 12, 36, 70
12, 24864, Note_on_c, 12, 36, 0
12, 24960, Note_on_c, 12, 43, 58
12, 25104, Note_on_c, 12, 43, 0
12, 25680, Note_on_c, 12, 41, 58
12, 25872, Note_on_c, 12, 41, 0
12, 25920, Note_on_c, 12, 40, 70
12, 26160, Note_on_c, 12, 40, 0
12, 26160, Note_on_c, 12, 36, 70
12, 26304, Note_on_c, 12, 36, 0
12, 26400, Note_on_c, 12, 43, 58
12, 26544, Note_on_c, 12, 43, 0
12, 27360, Note_on_c, 12, 40, 105
12, 27552, Note_on_c, 12, 40, 0
12, 27600, Note_on_c, 12, 40, 105
12, 27792, Note_on_c, 12, 40, 0
12, 27840, Note_on_c, 12, 40, 105
12, 28032, Note_on_c, 12, 40, 0
12, 28080, Note_on_c, 12, 40, 105
12, 28272, Note_on_c, 12, 40, 0
12, 28320, Note_on_c, 12, 40, 105
12, 28512, Note_on_c, 12, 40, 0
12, 28560, Note_on_c, 12, 40, 105
12, 28752, Note_on_c, 12, 40, 0
12, 28800, Note_on_c, 12, 41, 92
12, 28992, Note_on_c, 12, 41, 0
12, 30240, Note_on_c, 12, 43, 70
12, 31680, Note_on_c, 12, 43, 0
12, 31680, Note_on_c, 12, 36, 58
12, 32064, Note_on_c, 12, 36, 0
12, 32400, Note_on_c, 12, 36, 70
12, 32640, Note_on_c, 12, 36, 0
12, 32640, Note_on_c, 12, 39, 70
12, 32880, Note_on_c, 12, 39, 0
12, 32880, Note_on_c, 12, 43, 70
12, 33108, Note_on_c, 12, 43, 0
12, 33120, Note_on_c, 12, 48, 70
12, 33360, Note_on_c, 12, 48, 0
12, 33360, Note_on_c, 12, 39, 70
12, 33600, Note_on_c, 12, 39, 0
12, 33600, Note_on_c, 12, 43, 70
12, 33828, Note_on_c, 12, 43, 0
12, 33840, Note_on_c, 12, 36, 70
12, 34080, Note_on_c, 12, 36, 0
12, 34080, Note_on_c, 12, 39, 70
12, 34320, Note_on_c, 12, 39, 0
12, 34320, Note_on_c, 12, 43, 70
12, 34548, Note_on_c, 12, 43, 0
12, 34560, Note_on_c, 12, 48, 70
12, 34800, Note_on_c, 12, 48, 0
12, 34800, Note_on_c, 12, 39, 70
12, 35040, Note_on_c, 12, 39, 0
12, 35040, Note_on_c, 12, 43, 70
12, 35232, Note_on_c, 12, 43, 0
12, 36000, Note_on_c, 12, 40, 105
12, 36192, Note_on_c, 12, 40, 0
12, 36240, Note_on_c, 12, 40, 105
12, 36432, Note_on_c, 12, 40, 0
12, 36480, Note_on_c, 12, 40, 105
12, 36672, Note_on_c, 12, 40, 0
12, 36720, Note_on_c, 12, 40, 105
12, 36912, Note_on_c, 12, 40, 0
12, 36960, Note_on_c, 12, 40, 105
12, 37152, Note_on_c, 12, 40, 0
12, 37200, Note_on_c, 12, 40, 105
12, 37392, Note_on_c, 12, 40, 0
12, 37440, Note_on_c, 12, 41, 92
12, 37632, Note_on_c, 12, 41, 0
12, 38880, Note_on_c, 12, 43, 70
12, 40056, Note_on_c, 12, 43, 0
12, 40080, Note_on_c, 12, 44, 70
12, 40308, Note_on_c, 12, 44, 0
12, 40320, Note_on_c, 12, 45, 105
12, 41004, Note_on_c, 12, 45, 0
12, 41040, Note_on_c, 12, 38, 105
12, 41724, Note_on_c, 12, 38, 0
12, 41760, Note_on_c, 12, 35, 70
12, 41952, Note_on_c, 12, 35, 0
12, 42240, Note_on_c, 12, 36, 70
12, 42432, Note_on_c, 12, 36, 0
12, 42480, Note_on_c, 12, 41, 70
12, 42696, Note_on_c, 12, 41, 0
12, 42720, Note_on_c, 12, 43, 70
12, 42936, Note_on_c, 12, 43, 0
12, 42960, Note_on_c, 12, 44, 70
12, 43176, Note_on_c, 12, 44, 0
12, 43200, Note_on_c, 12, 45, 105
12, 43884, Note_on_c, 12, 45, 0
12, 43920, Note_on_c, 12, 38, 105
12, 44604, Note_on_c, 12, 38, 0
12, 44640, Note_on_c, 12, 35, 70
12, 44832, Note_on_c, 12, 35, 0
12, 45120, Note_on_c, 12, 36, 70
12, 45312, Note_on_c, 12, 36, 0
12, 45360, Note_on_c, 12, 41, 70
12, 45576, Note_on_c, 12, 41, 0
12, 45600, Note_on_c, 12, 43, 70
12, 45816, Note_on_c, 12, 43, 0
12, 45840, Note_on_c, 12, 31, 70
12, 46056, Note_on_c, 12, 31, 0
12, 46080, Note_on_c, 12, 36, 58
12, 46464, Note_on_c, 12, 36, 0
12, 47520, Note_on_c, 12, 31, 105
12, 47712, Note_on_c, 12, 31, 0
12, 47760, Note_on_c, 12, 43, 105
12, 47952, Note_on_c, 12, 43, 0
12, 48000, Note_on_c, 12, 43, 105
12, 48192, Note_on_c, 12, 43, 0
12, 48240, Note_on_c, 12, 43, 105
12, 48432, Note_on_c, 12, 43, 0
12, 48480, Note_on_c, 12, 43, 105
12, 48672, Note_on_c, 12, 43, 0
12, 48720, Note_on_c, 12, 43, 105
12, 48912, Note_on_c, 12, 43, 0
12, 48960, Note_on_c, 12, 36, 105
12, 49344, Note_on_c, 12, 36, 0
12, 50400, Note_on_c, 12, 31, 70
12, 50592, Note_on_c, 12, 31, 0
12, 50640, Note_on_c, 12, 43, 70
12, 50832, Note_on_c, 12, 43, 0
12, 50880, Note_on_c, 12, 43, 70
12, 51072, Note_on_c, 12, 43, 0
12, 51120, Note_on_c, 12, 43, 70
12, 51312, Note_on_c, 12, 43, 0
12, 51360, Note_on_c, 12, 43, 70
12, 51552, Note_on_c, 12, 43, 0
12, 51600, Note_on_c, 12, 43, 70
12, 51792, Note_on_c, 12, 43, 0
12, 51840, Note_on_c, 12, 36, 70
12, 52008, Note_on_c, 12, 36, 0
12, 52080, Note_on_c, 12, 36, 70
12, 52248, Note_on_c, 12, 36, 0
12, 52320, Note_on_c, 12, 36, 70
12, 52488, Note_on_c, 12, 36, 0
12, 52560, Note_on_c, 12, 36, 70
12, 52728, Note_on_c, 12, 36, 0
12, 60720, Note_on_c, 12, 36, 105
12, 60912, Note_on_c, 12, 36, 0
12, 60960, Note_on_c, 12, 36, 105
12, 61152, Note_on_c, 12, 36, 0
12, 61200, Note_on_c, 12, 36, 105
12, 61392, Note_on_c, 12, 36, 0
12, 61440, Note_on_c, 12, 36, 105
12, 61632, Note_on_c, 12, 36, 0
12, 61680, Note_on_c, 12, 36, 105
12, 61872, Note_on_c, 12, 36, 0
12, 61920, Note_on_c, 12, 36, 92
12, 62304, Note_on_c, 12, 36, 0
12, 63600, Note_on_c, 12, 36, 105
12, 63792, Note_on_c, 12, 36, 0
12, 63840, Note_on_c, 12, 36, 105
12, 64032, Note_on_c, 12, 36, 0
12, 64080, Note_on_c, 12, 36, 105
12, 64272, Note_on_c, 12, 36, 0
12, 64320, Note_on_c, 12, 36, 105
12, 64512, Note_on_c, 12, 36, 0
12, 64560, Note_on_c, 12, 36, 105
12, 64752, Note_on_c, 12, 36, 0
12, 64800, Note_on_c, 12, 36, 92
12, 64992, Note_on_c, 12, 36, 0
12, 65160, Note_on_c, 12, 36, 80
12, 65232, Note_on_c, 12, 36, 0
12, 65280, Note_on_c, 12, 38, 80
12, 65352, Note_on_c, 12, 38, 0
12, 65400, Note_on_c, 12, 40, 80
12, 65472, Note_on_c, 12, 40, 0
12, 65520, Note_on_c, 12, 41, 80
12, 65592, Note_on_c, 12, 41, 0
12, 65640, Note_on_c, 12, 43, 80
12, 65712, Note_on_c, 12, 43, 0
12, 65760, Note_on_c, 12, 44, 80
12, 65832, Note_on_c, 12, 44, 0
12, 65880, Note_on_c, 12, 46, 80
12, 65952, Note_on_c, 12, 46, 0
12, 66000, Note_on_c, 12, 48, 80
12, 66072, Note_on_c, 12, 48, 0
12, 66120, Note_on_c, 12, 36, 80
12, 66192, Note_on_c, 12, 36, 0
12, 66240, Note_on_c, 12, 37, 80
12, 66384, Note_on_c, 12, 37, 0
12, 66480, Note_on_c, 12, 49, 80
12, 66624, Note_on_c, 12, 49, 0
12, 66720, Note_on_c, 12, 36, 80
12, 66864, Note_on_c, 12, 36, 0
12, 66960, Note_on_c, 12, 34, 78
12, 67680, Note_on_c, 12, 34, 0
12, 67680, Note_on_c, 12, 36, 58
12, 67872, Note_on_c, 12, 36, 0
12, 68040, Note_on_c, 12, 36, 80
12, 68112, Note_on_c, 12, 36, 0
12, 68160, Note_on_c, 12, 38, 80
12, 68232, Note_on_c, 12, 38, 0
12, 68280, Note_on_c, 12, 40, 80
12, 68352, Note_on_c, 12, 40, 0
12, 68400, Note_on_c, 12, 41, 80
12, 68472, Note_on_c, 12, 41, 0
12, 68520, Note_on_c, 12, 43, 80
12, 68592, Note_on_c, 12, 43, 0
12, 68640, Note_on_c, 12, 44, 80
12, 68712, Note_on_c, 12, 44, 0
12, 68760, Note_on_c, 12, 46, 80
12, 68832, Note_on_c, 12, 46, 0
12, 68880, Note_on_c, 12, 48, 80
12, 68952, Note_on_c, 12, 48, 0
12, 69000, Note_on_c, 12, 36, 80
12, 69072, Note_on_c, 12, 36, 0
12, 69120, Note_on_c, 12, 37, 80
12, 69264, Note_on_c, 12, 37, 0
12, 69360, Note_on_c, 12, 49, 80
12, 69504, Note_on_c, 12, 49, 0
12, 69600, Note_on_c, 12, 36, 80
12, 69744, Note_on_c, 12, 36, 0
12, 69840, Note_on_c, 12, 35, 78
12, 70560, Note_on_c, 12, 35, 0
12, 70560, Note_on_c, 12, 36, 70
12, 70800, Note_on_c, 12, 36, 0
12, 70800, Note_on_c, 12, 40, 70
12, 71040, Note_on_c, 12, 40, 0
12, 71040, Note_on_c, 12, 41, 70
12, 71232, Note_on_c, 12, 41, 0
12, 71280, Note_on_c, 12, 34, 70
12, 71520, Note_on_c, 12, 34, 0
12, 71520, Note_on_c, 12, 36, 70
12, 71664, Note_on_c, 12, 36, 0
12, 71760, Note_on_c, 12, 36, 70
12, 71988, Note_on_c, 12, 36, 0
12, 72000, Note_on_c, 12, 29, 58
12, 72192, Note_on_c, 12, 29, 0
12, 74400, Note_on_c, 12, 43, 58
12, 74544, Note_on_c, 12, 43, 0
12, 74640, Note_on_c, 12, 41, 70
12, 74784, Note_on_c, 12, 41, 0
12, 74880, Note_on_c, 12, 40, 70
12, 75024, Note_on_c, 12, 40, 0
12, 75120, Note_on_c, 12, 36, 70
12, 75264, Note_on_c, 12, 36, 0
12, 77280, Note_on_c, 12, 39, 70
12, 77520, Note_on_c, 12, 39, 0
12, 77520, Note_on_c, 12, 37, 70
12, 77712, Note_on_c, 12, 37, 0
12, 77760, Note_on_c, 12, 36, 70
12, 78000, Note_on_c, 12, 36, 0
12, 78000, Note_on_c, 12, 34, 70
12, 78240, Note_on_c, 12, 34, 0
12, 78240, Note_on_c, 12, 32, 70
12, 78432, Note_on_c, 12, 32, 0
12, 78480, Note_on_c, 12, 37, 70
12, 78720, Note_on_c, 12, 37, 0
12, 78720, Note_on_c, 12, 39, 70
12, 78936, Note_on_c, 12, 39, 0
12, 78960, Note_on_c, 12, 39, 70
12, 79176, Note_on_c, 12, 39, 0
12, 79200, Note_on_c, 12, 32, 70
12, 79392, Note_on_c, 12, 32, 0
12, 79440, Note_on_c, 12, 44, 70
12, 79632, Note_on_c, 12, 44, 0
12, 79680, Note_on_c, 12, 44, 70
12, 79872, Note_on_c, 12, 44, 0
12, 79920, Note_on_c, 12, 44, 70
12, 80112, Note_on_c, 12, 44, 0
12, 80160, Note_on_c, 12, 44, 70
12, 80352, Note_on_c, 12, 44, 0
12, 80400, Note_on_c, 12, 44, 70
12, 80592, Note_on_c, 12, 44, 0
12, 80640, Note_on_c, 12, 45, 70
12, 80832, Note_on_c, 12, 45, 0
12, 80880, Note_on_c, 12, 45, 70
12, 81072, Note_on_c, 12, 45, 0
12, 81120, Note_on_c, 12, 45, 70
12, 81312, Note_on_c, 12, 45, 0
12, 81360, Note_on_c, 12, 45, 70
12, 81552, Note_on_c, 12, 45, 0
12, 81600, Note_on_c, 12, 45, 70
12, 81792, Note_on_c, 12, 45, 0
12, 81840, Note_on_c, 12, 45, 70
12, 82032, Note_on_c, 12, 45, 0
12, 82080, Note_on_c, 12, 46, 70
12, 82272, Note_on_c, 12, 46, 0
12, 82320, Note_on_c, 12, 46, 70
12, 82512, Note_on_c, 12, 46, 0
12, 82560, Note_on_c, 12, 46, 70
12, 82752, Note_on_c, 12, 46, 0
12, 82800, Note_on_c, 12, 46, 70
12, 82992, Note_on_c, 12, 46, 0
12, 83040, Note_on_c, 12, 46, 70
12, 83232, Note_on_c, 12, 46, 0
12, 83280, Note_on_c, 12, 46, 70
12, 83472, Note_on_c, 12, 46, 0
12, 83520, Note_on_c, 12, 47, 70
12, 83712, Note_on_c, 12, 47, 0
12, 83760, Note_on_c, 12, 47, 70
12, 83952, Note_on_c, 12, 47, 0
12, 84000, Note_on_c, 12, 47, 70
12, 84192, Note_on_c, 12, 47, 0
12, 84240, Note_on_c, 12, 47, 70
12, 84432, Note_on_c, 12, 47, 0
12, 84480, Note_on_c, 12, 47, 70
12, 84672, Note_on_c, 12, 47, 0
12, 84720, Note_on_c, 12, 47, 70
12, 84912, Note_on_c, 12, 47, 0
12, 84960, Note_on_c, 12, 48, 70
12, 85152, Note_on_c, 12, 48, 0
12, 85320, Note_on_c, 12, 36, 80
12, 85392, Note_on_c, 12, 36, 0
12, 85440, Note_on_c, 12, 38, 80
12, 85512, Note_on_c, 12, 38, 0
12, 85560, Note_on_c, 12, 40, 80
12, 85632, Note_on_c, 12, 40, 0
12, 85680, Note_on_c, 12, 41, 80
12, 85752, Note_on_c, 12, 41, 0
12, 85800, Note_on_c, 12, 43, 80
12, 85872, Note_on_c, 12, 43, 0
12, 85920, Note_on_c, 12, 44, 80
12, 85992, Note_on_c, 12, 44, 0
12, 86040, Note_on_c, 12, 46, 80
12, 86112, Note_on_c, 12, 46, 0
12, 86160, Note_on_c, 12, 48, 80
12, 86232, Note_on_c, 12, 48, 0
12, 86280, Note_on_c, 12, 36, 80
12, 86352, Note_on_c, 12, 36, 0
12, 86400, Note_on_c, 12, 37, 80
12, 86544, Note_on_c, 12, 37, 0
12, 86640, Note_on_c, 12, 49, 80
12, 86784, Note_on_c, 12, 49, 0
12, 86880, Note_on_c, 12, 36, 80
12, 87024, Note_on_c, 12, 36, 0
12, 87120, Note_on_c, 12, 34, 100
12, 87840, Note_on_c, 12, 34, 0
12, 87840, Note_on_c, 12, 36, 70
12, 88032, Note_on_c, 12, 36, 0
12, 88200, Note_on_c, 12, 36, 80
12, 88272, Note_on_c, 12, 36, 0
12, 88320, Note_on_c, 12, 38, 80
12, 88392, Note_on_c, 12, 38, 0
12, 88440, Note_on_c, 12, 40, 80
12, 88512, Note_on_c, 12, 40, 0
12, 88560, Note_on_c, 12, 41, 80
12, 88632, Note_on_c, 12, 41, 0
12, 88680, Note_on_c, 12, 43, 80
12, 88752, Note_on_c, 12, 43, 0
12, 88800, Note_on_c, 12, 44, 80
12, 88872, Note_on_c, 12, 44, 0
12, 88920, Note_on_c, 12, 46, 80
12, 88992, Note_on_c, 12, 46, 0
12, 89040, Note_on_c, 12, 48, 80
12, 89112, Note_on_c, 12, 48, 0
12, 89160, Note_on_c, 12, 36, 80
12, 89232, Note_on_c, 12, 36, 0
12, 89280, Note_on_c, 12, 37, 80
12, 89424, Note_on_c, 12, 37, 0
12, 89520, Note_on_c, 12, 49, 80
12, 89664, Note_on_c, 12, 49, 0
12, 89760, Note_on_c, 12, 36, 80
12, 89904, Note_on_c, 12, 36, 0
12, 90000, Note_on_c, 12, 35, 100
12, 90720, Note_on_c, 12, 35, 0
12, 90720, Note_on_c, 12, 36, 70
12, 90912, Note_on_c, 12, 36, 0
12, 91440, Note_on_c, 12, 36, 70
12, 91632, Note_on_c, 12, 36, 0
12, 92160, Note_on_c, 12, 36, 70
12, 92352, Note_on_c, 12, 36, 0
12, 94440, Note_on_c, 12, 36, 105
12, 94560, Note_on_c, 12, 36, 0
12, 94560, Note_on_c, 12, 37, 105
12, 94680, Note_on_c, 12, 37, 0
12, 94680, Note_on_c, 12, 38, 105
12, 94800, Note_on_c, 12, 38, 0
12, 94800, Note_on_c, 12, 39, 105
12, 94920, Note_on_c, 12, 39, 0
12, 94920, Note_on_c, 12, 40, 105
12, 95040, Note_on_c, 12, 40, 0
12, 95100, Note_on_c, 12, 41, 58
12, 95484, Note_on_c, 12, 41, 0
12, 95580, Note_on_c, 12, 41, 58
12, 95772, Note_on_c, 12, 41, 0
12, 95820, Note_on_c, 12, 41, 58
12, 96204, Note_on_c, 12, 41, 0
12, 96300, Note_on_c, 12, 41, 58
12, 96492, Note_on_c, 12, 41, 0
12, 96540, Note_on_c, 12, 43, 58
12, 96684, Note_on_c, 12, 43, 0
12, 96780, Note_on_c, 12, 43, 58
12, 97020, Note_on_c, 12, 43, 0
12, 97020, Note_on_c, 12, 41, 58
12, 97164, Note_on_c, 12, 41, 0
12, 97260, Note_on_c, 12, 40, 58
12, 97404, Note_on_c, 12, 40, 0
12, 97740, Note_on_c, 12, 40, 58
12, 97980, Note_on_c, 12, 40, 0
12, 97980, Note_on_c, 12, 41, 58
12, 98172, Note_on_c, 12, 41, 0
12, 98460, Note_on_c, 12, 38, 58
12, 98652, Note_on_c, 12, 38, 0
12, 98700, Note_on_c, 12, 33, 58
12, 98940, Note_on_c, 12, 33, 0
12, 98940, Note_on_c, 12, 34, 58
12, 99180, Note_on_c, 12, 34, 0
12, 99180, Note_on_c, 12, 31, 58
12, 99372, Note_on_c, 12, 31, 0
12, 99420, Note_on_c, 12, 36, 58
12, 100332, Note_on_c, 12, 36, 0
12, 106620, Note_on_c, 12, 46, 58
12, 107340, Note_on_c, 12, 46, 0
12, 107340, Note_on_c, 12, 43, 58
12, 108024, Note_on_c, 12, 43, 0
12, 108060, Note_on_c, 12, 40, 70
12, 108780, Note_on_c, 12, 40, 0
12, 108780, Note_on_c, 12, 41, 80
12, 108972, Note_on_c, 12, 41, 0
12, 109500, Note_on_c, 12, 36, 105
12, 109692, Note_on_c, 12, 36, 0
12, 109740, Note_on_c, 12, 36, 105
12, 109932, Note_on_c, 12, 36, 0
12, 109980, Note_on_c, 12, 36, 105
12, 110172, Note_on_c, 12, 36, 0
12, 110220, Note_on_c, 12, 36, 105
12, 110412, Note_on_c, 12, 36, 0
12, 110460, Note_on_c, 12, 36, 105
12, 110652, Note_on_c, 12, 36, 0
12, 110700, Note_on_c, 12, 36, 105
12, 110892, Note_on_c, 12, 36, 0
12, 110940, Note_on_c, 12, 41, 105
12, 111084, Note_on_c, 12, 41, 0
12, 111180, Note_on_c, 12, 41, 105
12, 111324, Note_on_c, 12, 41, 0
12, 111420, Note_on_c, 12, 41, 105
12, 111564, Note_on_c, 12, 41, 0
12, 111660, Note_on_c, 12, 41, 105
12, 111804, Note_on_c, 12, 41, 0
12, 112380, Note_on_c, 12, 39, 58
12, 112524, Note_on_c, 12, 39, 0
12, 112620, Note_on_c, 12, 39, 58
12, 112764, Note_on_c, 12, 39, 0
12, 112860, Note_on_c, 12, 39, 58
12, 113004, Note_on_c, 12, 39, 0
12, 113100, Note_on_c, 12, 39, 58
12, 113244, Note_on_c, 12, 39, 0
12, 113820, Note_on_c, 12, 38, 105
12, 113964, Note_on_c, 12, 38, 0
12, 114060, Note_on_c, 12, 38, 105
12, 114204, Note_on_c, 12, 38, 0
12, 114300, Note_on_c, 12, 38, 105
12, 114444, Note_on_c, 12, 38, 0
12, 114540, Note_on_c, 12, 38, 105
12, 114684, Note_on_c, 12, 38, 0
12, 115500, Note_on_c, 12, 43, 58
12, 115692, Note_on_c, 12, 43, 0
12, 116220, Note_on_c, 12, 40, 58
12, 116412, Note_on_c, 12, 40, 0
12, 116940, Note_on_c, 12, 41, 58
12, 117132, Note_on_c, 12, 41, 0
12, 117740, Note_on_c, 12, 38, 70
12, 117820, Note_on_c, 12, 38, 0
12, 117820, Note_on_c, 12, 37, 70
12, 117900, Note_on_c, 12, 37, 0
12, 117900, Note_on_c, 12, 38, 70
12, 117980, Note_on_c, 12, 38, 0
12, 117980, Note_on_c, 12, 41, 70
12, 118060, Note_on_c, 12, 41, 0
12, 118060, Note_on_c, 12, 38, 70
12, 118124, Note_on_c, 12, 38, 0
12, 118140, Note_on_c, 12, 34, 70
12, 119316, Note_on_c, 12, 34, 0
12, 119340, Note_on_c, 12, 35, 70
12, 119532, Note_on_c, 12, 35, 0
12, 119580, Note_on_c, 12, 36, 70
12, 120156, Note_on_c, 12, 36, 0
12, 120780, Note_on_c, 12, 34, 70
12, 120972, Note_on_c, 12, 34, 0
12, 121020, Note_on_c, 12, 33, 70
12, 121260, Note_on_c, 12, 33, 0
12, 121260, Note_on_c, 12, 29, 70
12, 121452, Note_on_c, 12, 29, 0
12, 121500, Note_on_c, 12, 36, 70
12, 121668, Note_on_c, 12, 36, 0
12, 122220, Note_on_c, 12, 46, 70
12, 122412, Note_on_c, 12, 46, 0
12, 122460, Note_on_c, 12, 45, 70
12, 122700, Note_on_c, 12, 45, 0
12, 122700, Note_on_c, 12, 41, 70
12, 122892, Note_on_c, 12, 41, 0
12, 122940, Note_on_c, 12, 48, 70
12, 123108, Note_on_c, 12, 48, 0
12, 123900, Note_on_c, 12, 33, 105
12, 124092, Note_on_c, 12, 33, 0
12, 124140, Note_on_c, 12, 45, 105
12, 124332, Note_on_c, 12, 45, 0
12, 124380, Note_on_c, 12, 45, 105
12, 124572, Note_on_c, 12, 45, 0
12, 124620, Note_on_c, 12, 45, 105
12, 124812, Note_on_c, 12, 45, 0
12, 124860, Note_on_c, 12, 45, 105
12, 125052, Note_on_c, 12, 45, 0
12, 125100, Note_on_c, 12, 45, 105
12, 125292, Note_on_c, 12, 45, 0
12, 125340, Note_on_c, 12, 46, 92
12, 125532, Note_on_c, 12, 46, 0
12, 126780, Note_on_c, 12, 48, 70
12, 127500, Note_on_c, 12, 48, 0
12, 127500, Note_on_c, 12, 36, 70
12, 127980, Note_on_c, 12, 36, 0
12, 127980, Note_on_c, 12, 37, 70
12, 128172, Note_on_c, 12, 37, 0
12, 128220, Note_on_c, 12, 38, 90
12, 129132, Note_on_c, 12, 38, 0
12, 130380, Note_on_c, 12, 29, 70
12, 130620, Note_on_c, 12, 29, 0
12, 130620, Note_on_c, 12, 32, 70
12, 130860, Note_on_c, 12, 32, 0
12, 130860, Note_on_c, 12, 36, 70
12, 131088, Note_on_c, 12, 36, 0
12, 131100, Note_on_c, 12, 41, 70
12, 131340, Note_on_c, 12, 41, 0
12, 131340, Note_on_c, 12, 32, 70
12, 131580, Note_on_c, 12, 32, 0
12, 131580, Note_on_c, 12, 36, 70
12, 131772, Note_on_c, 12, 36, 0
12, 131820, Note_on_c, 12, 41, 70
12, 132060, Note_on_c, 12, 41, 0
12, 132060, Note_on_c, 12, 44, 70
12, 132300, Note_on_c, 12, 44, 0
12, 132300, Note_on_c, 12, 48, 70
12, 132528, Note_on_c, 12, 48, 0
12, 132540, Note_on_c, 12, 53, 70
12, 132780, Note_on_c, 12, 53, 0
12, 132780, Note_on_c, 12, 44, 70
12, 133020, Note_on_c, 12, 44, 0
12, 133020, Note_on_c, 12, 48, 70
12, 133212, Note_on_c, 12, 48, 0
12, 133980, Note_on_c, 12, 33, 105
12, 134172, Note_on_c, 12, 33, 0
12, 134220, Note_on_c, 12, 45, 105
12, 134412, Note_on_c, 12, 45, 0
12, 134460, Note_on_c, 12, 45, 105
12, 134652, Note_on_c, 12, 45, 0
12, 134700, Note_on_c, 12, 45, 105
12, 134892, Note_on_c, 12, 45, 0
12, 134940, Note_on_c, 12, 45, 105
12, 135132, Note_on_c, 12, 45, 0
12, 135180, Note_on_c, 12, 45, 105
12, 135372, Note_on_c, 12, 45, 0
12, 135420, Note_on_c, 12, 46, 58
12, 136140, Note_on_c, 12, 46, 0
12, 136140, Note_on_c, 12, 47, 58
12, 136716, Note_on_c, 12, 47, 0
12, 136860, Note_on_c, 12, 48, 58
12, 137436, Note_on_c, 12, 48, 0
12, 137580, Note_on_c, 12, 36, 70
12, 138060, Note_on_c, 12, 36, 0
12, 138060, Note_on_c, 12, 37, 70
12, 138252, Note_on_c, 12, 37, 0
12, 138300, Note_on_c, 12, 38, 105
12, 139020, Note_on_c, 12, 38, 0
12, 139020, Note_on_c, 12, 31, 105
12, 139704, Note_on_c, 12, 31, 0
12, 139740, Note_on_c, 12, 40, 70
12, 139932, Note_on_c, 12, 40, 0
12, 140220, Note_on_c, 12, 41, 70
12, 140388, Note_on_c, 12, 41, 0
12, 140460, Note_on_c, 12, 34, 70
12, 140676, Note_on_c, 12, 34, 0
12, 140700, Note_on_c, 12, 36, 70
12, 140916, Note_on_c, 12, 36, 0
12, 140940, Note_on_c, 12, 37, 70
12, 141156, Note_on_c, 12, 37, 0
12, 141180, Note_on_c, 12, 38, 105
12, 141900, Note_on_c, 12, 38, 0
12, 141900, Note_on_c, 12, 31, 105
12, 142584, Note_on_c, 12, 31, 0
12, 142620, Note_on_c, 12, 40, 70
12, 142812, Note_on_c, 12, 40, 0
12, 143100, Note_on_c, 12, 41, 70
12, 143268, Note_on_c, 12, 41, 0
12, 143340, Note_on_c, 12, 34, 70
12, 143556, Note_on_c, 12, 34, 0
12, 143580, Note_on_c, 12, 36, 70
12, 143796, Note_on_c, 12, 36, 0
12, 143820, Note_on_c, 12, 36, 70
12, 144036, Note_on_c, 12, 36, 0
12, 144060, Note_on_c, 12, 29, 58
12, 144444, Note_on_c, 12, 29, 0
12, 145500, Note_on_c, 12, 36, 105
12, 145692, Note_on_c, 12, 36, 0
12, 145740, Note_on_c, 12, 48, 105
12, 145932, Note_on_c, 12, 48, 0
12, 145980, Note_on_c, 12, 48, 105
12, 146172, Note_on_c, 12, 48, 0
12, 146220, Note_on_c, 12, 48, 105
12, 146412, Note_on_c, 12, 48, 0
12, 146460, Note_on_c, 12, 48, 105
12, 146652, Note_on_c, 12, 48, 0
12, 146700, Note_on_c, 12, 48, 105
12, 146892, Note_on_c, 12, 48, 0
12, 146940, Note_on_c, 12, 41, 105
12, 147324, Note_on_c, 12, 41, 0
12, 148380, Note_on_c, 12, 36, 70
12, 148572, Note_on_c, 12, 36, 0
12, 148620, Note_on_c, 12, 36, 70
12, 148812, Note_on_c, 12, 36, 0
12, 148860, Note_on_c, 12, 36, 70
12, 149052, Note_on_c, 12, 36, 0
12, 149100, Note_on_c, 12, 36, 70
12, 149292, Note_on_c, 12, 36, 0
12, 149340, Note_on_c, 12, 36, 70
12, 149532, Note_on_c, 12, 36, 0
12, 149580, Note_on_c, 12, 36, 70
12, 149772, Note_on_c, 12, 36, 0
12, 149820, Note_on_c, 12, 29, 58
12, 149988, Note_on_c, 12, 29, 0
12, 150060, Note_on_c, 12, 29, 58
12, 150228, Note_on_c, 12, 29, 0
12, 150300, Note_on_c, 12, 29, 58
12, 150468, Note_on_c, 12, 29, 0
12, 150540, Note_on_c, 12, 29, 58
12, 150756, Note_on_c, 12, 29, 0
12, 150756, End_track
13, 0, Start_track
13, 0, Sequencer_specific, 04, 43, 00, 01, 00
13, 0, Program_c, 13, 45
13, 0, Control_c, 13, 7, 99
13, 0, Control_c, 13, 91, 80
13, 0, End_track
14, 0, Start_track
14, 0, Sequencer_specific, 04, 43, 00, 01, 00
14, 0, Program_c, 14, 45
14, 0, Control_c, 14, 7, 99
14, 0, Control_c, 14, 91, 80
14, 7200, Control_c, 14, 10, 90
14, 7200, Note_on_c, 14, 36, 80
14, 7200, Note_on_c, 14, 48, 80
14, 7392, Note_on_c, 14, 48, 0
14, 7392, Note_on_c, 14, 36, 0
14, 7440, Note_on_c, 14, 52, 80
14, 7440, Note_on_c, 14, 40, 80
14, 7632, Note_on_c, 14, 40, 0
14, 7632, Note_on_c, 14, 52, 0
14, 7680, Note_on_c, 14, 43, 80
14, 7680, Note_on_c, 14, 55, 80
14, 7872, Note_on_c, 14, 55, 0
14, 7872, Note_on_c, 14, 43, 0
14, 7920, Note_on_c, 14, 60, 70
14, 7920, Note_on_c, 14, 48, 70
14, 8112, Note_on_c, 14, 48, 0
14, 8112, Note_on_c, 14, 60, 0
14, 8640, Note_on_c, 14, 41, 70
14, 8640, Note_on_c, 14, 53, 70
14, 8832, Note_on_c, 14, 53, 0
14, 8832, Note_on_c, 14, 41, 0
14, 8880, Note_on_c, 14, 48, 70
14, 8880, Note_on_c, 14, 36, 70
14, 9072, Note_on_c, 14, 36, 0
14, 9072, Note_on_c, 14, 48, 0
14, 9120, Note_on_c, 14, 33, 70
14, 9120, Note_on_c, 14, 45, 70
14, 9312, Note_on_c, 14, 45, 0
14, 9312, Note_on_c, 14, 33, 0
14, 9360, Note_on_c, 14, 41, 70
14, 9360, Note_on_c, 14, 29, 70
14, 9552, Note_on_c, 14, 29, 0
14, 9552, Note_on_c, 14, 41, 0
14, 10080, Note_on_c, 14, 36, 80
14, 10080, Note_on_c, 14, 48, 80
14, 10272, Note_on_c, 14, 48, 0
14, 10272, Note_on_c, 14, 36, 0
14, 10320, Note_on_c, 14, 52, 80
14, 10320, Note_on_c, 14, 40, 80
14, 10512, Note_on_c, 14, 40, 0
14, 10512, Note_on_c, 14, 52, 0
14, 10560, Note_on_c, 14, 43, 80
14, 10560, Note_on_c, 14, 55, 80
14, 10752, Note_on_c, 14, 55, 0
14, 10752, Note_on_c, 14, 43, 0
14, 10800, Note_on_c, 14, 60, 70
14, 10800, Note_on_c, 14, 48, 70
14, 10992, Note_on_c, 14, 48, 0
14, 10992, Note_on_c, 14, 60, 0
14, 11520, Note_on_c, 14, 41, 70
14, 11520, Note_on_c, 14, 53, 70
14, 11712, Note_on_c, 14, 53, 0
14, 11712, Note_on_c, 14, 41, 0
14, 11760, Note_on_c, 14, 48, 70
14, 11760, Note_on_c, 14, 36, 70
14, 11952, Note_on_c, 14, 36, 0
14, 11952, Note_on_c, 14, 48, 0
14, 12000, Note_on_c, 14, 33, 70
14, 12000, Note_on_c, 14, 45, 70
14, 12192, Note_on_c, 14, 45, 0
14, 12192, Note_on_c, 14, 33, 0
14, 12240, Note_on_c, 14, 41, 70
14, 12240, Note_on_c, 14, 29, 70
14, 12432, Note_on_c, 14, 29, 0
14, 12432, Note_on_c, 14, 41, 0
14, 100860, Note_on_c, 14, 36, 70
14, 100860, Note_on_c, 14, 48, 70
14, 101052, Note_on_c, 14, 48, 0
14, 101052, Note_on_c, 14, 36, 0
14, 101100, Note_on_c, 14, 52, 70
14, 101100, Note_on_c, 14, 40, 70
14, 101292, Note_on_c, 14, 40, 0
14, 101292, Note_on_c, 14, 52, 0
14, 101340, Note_on_c, 14, 43, 70
14, 101340, Note_on_c, 14, 55, 70
14, 101532, Note_on_c, 14, 55, 0
14, 101532, Note_on_c, 14, 43, 0
14, 101580, Note_on_c, 14, 48, 70
14, 101580, Note_on_c, 14, 60, 70
14, 101772, Note_on_c, 14, 60, 0
14, 101772, Note_on_c, 14, 48, 0
14, 102300, Note_on_c, 14, 41, 70
14, 102300, Note_on_c, 14, 53, 70
14, 102492, Note_on_c, 14, 53, 0
14, 102492, Note_on_c, 14, 41, 0
14, 102540, Note_on_c, 14, 48, 70
14, 102540, Note_on_c, 14, 36, 70
14, 102732, Note_on_c, 14, 36, 0
14, 102732, Note_on_c, 14, 48, 0
14, 102780, Note_on_c, 14, 33, 70
14, 102780, Note_on_c, 14, 45, 70
14, 102972, Note_on_c, 14, 45, 0
14, 102972, Note_on_c, 14, 33, 0
14, 103020, Note_on_c, 14, 41, 70
14, 103020, Note_on_c, 14, 29, 70
14, 103212, Note_on_c, 14, 29, 0
14, 103212, Note_on_c, 14, 41, 0
14, 103740, Note_on_c, 14, 36, 70
14, 103740, Note_on_c, 14, 48, 70
14, 103932, Note_on_c, 14, 48, 0
14, 103932, Note_on_c, 14, 36, 0
14, 103980, Note_on_c, 14, 40, 70
14, 103980, Note_on_c, 14, 52, 70
14, 104172, Note_on_c, 14, 52, 0
14, 104172, Note_on_c, 14, 40, 0
14, 104220, Note_on_c, 14, 43, 70
14, 104220, Note_on_c, 14, 55, 70
14, 104412, Note_on_c, 14, 55, 0
14, 104412, Note_on_c, 14, 43, 0
14, 104460, Note_on_c, 14, 48, 70
14, 104460, Note_on_c, 14, 60, 70
14, 104652, Note_on_c, 14, 60, 0
14, 104652, Note_on_c, 14, 48, 0
14, 105180, Note_on_c, 14, 41, 70
14, 105180, Note_on_c, 14, 53, 70
14, 105372, Note_on_c, 14, 53, 0
14, 105372, Note_on_c, 14, 41, 0
14, 105420, Note_on_c, 14, 48, 70
14, 105420, Note_on_c, 14, 36, 70
14, 105612, Note_on_c, 14, 36, 0
14, 105612, Note_on_c, 14, 48, 0
14, 105660, Note_on_c, 14, 33, 70
14, 105660, Note_on_c, 14, 45, 70
14, 105852, Note_on_c, 14, 45, 0
14, 105852, Note_on_c, 14, 33, 0
14, 105900, Note_on_c, 14, 41, 70
14, 105900, Note_on_c, 14, 29, 70
14, 106092, Note_on_c, 14, 29, 0
14, 106092, Note_on_c, 14, 41, 0
14, 106092, End_track
0, 0, End_of_file