0, 0, Header, 1, 9, 120
1, 0, Start_track
1, 0, Time_signature, 6, 3, 12, 8
1, 0, Key_signature, 0, "major"
1, 0, Tempo, 1333333
1, 0, Marker_t, "Sanctus"
1, 4981, Tempo, 6000000
1, 5041, Tempo, 377358
1, 5041, End_track
2, 0, Start_track
2, 0, MIDI_port, 0
2, 0, Title_t, "treble accomp"
2, 0, Program_c, 0, 0
2, 0, Control_c, 0, 7, 127
2, 0, Control_c, 0, 10, 27
2, 0, Note_on_c, 0, 64, 103
2, 0, Note_on_c, 0, 76, 103
2, 0, Note_on_c, 0, 72, 103
2, 36, Note_on_c, 0, 76, 0
2, 40, Note_on_c, 0, 72, 0
2, 40, Note_on_c, 0, 64, 0
2, 60, Note_on_c, 0, 64, 103
2, 60, Note_on_c, 0, 72, 103
2, 60, Note_on_c, 0, 76, 93
2, 155, Note_on_c, 0, 76, 0
2, 157, Note_on_c, 0, 72, 0
2, 157, Note_on_c, 0, 64, 0
2, 180, Note_on_c, 0, 64, 103
2, 180, Note_on_c, 0, 72, 103
2, 180, Note_on_c, 0, 76, 93
2, 272, Note_on_c, 0, 76, 0
2, 278, Note_on_c, 0, 72, 0
2, 278, Note_on_c, 0, 64, 0
2, 300, Note_on_c, 0, 72, 103
2, 300, Note_on_c, 0, 64, 103
2, 300, Note_on_c, 0, 76, 93
2, 334, Note_on_c, 0, 76, 0
2, 335, Note_on_c, 0, 64, 0
2, 336, Note_on_c, 0, 72, 0
2, 360, Note_on_c, 0, 64, 103
2, 360, Note_on_c, 0, 72, 93
2, 360, Note_on_c, 0, 76, 93
2, 424, Note_on_c, 0, 72, 0
2, 424, Note_on_c, 0, 64, 0
2, 429, Note_on_c, 0, 76, 0
2, 450, Note_on_c, 0, 77, 93
2, 450, Note_on_c, 0, 74, 103
2, 462, Note_on_c, 0, 77, 0
2, 465, Note_on_c, 0, 76, 75
2, 467, Note_on_c, 0, 74, 0
2, 476, Note_on_c, 0, 76, 0
2, 480, Note_on_c, 0, 67, 93
2, 480, Note_on_c, 0, 74, 93
2, 480, Note_on_c, 0, 71, 83
2, 535, Note_on_c, 0, 71, 0
2, 539, Note_on_c, 0, 67, 0
2, 540, Note_on_c, 0, 79, 93
2, 540, Note_on_c, 0, 74, 103
2, 542, Note_on_c, 0, 74, 0
2, 567, Note_on_c, 0, 79, 0
2, 573, Note_on_c, 0, 74, 0
2, 585, Note_on_c, 0, 72, 75
2, 585, Note_on_c, 0, 81, 83
2, 593, Note_on_c, 0, 72, 0
2, 595, Note_on_c, 0, 81, 0
2, 600, Note_on_c, 0, 74, 93
2, 600, Note_on_c, 0, 83, 103
2, 600, Note_on_c, 0, 71, 103
2, 600, Note_on_c, 0, 76, 83
2, 624, Note_on_c, 0, 83, 0
2, 627, Note_on_c, 0, 76, 0
2, 628, Note_on_c, 0, 74, 0
2, 630, Note_on_c, 0, 71, 0
2, 660, Note_on_c, 0, 71, 93
2, 660, Note_on_c, 0, 74, 93
2, 660, Note_on_c, 0, 64, 93
2, 697, Note_on_c, 0, 64, 0
2, 698, Note_on_c, 0, 74, 0
2, 706, Note_on_c, 0, 71, 0
2, 720, Note_on_c, 0, 64, 103
2, 720, Note_on_c, 0, 69, 115
2, 720, Note_on_c, 0, 72, 103
2, 776, Note_on_c, 0, 72, 0
2, 779, Note_on_c, 0, 69, 0
2, 780, Note_on_c, 0, 71, 93
2, 780, Note_on_c, 0, 74, 103
2, 789, Note_on_c, 0, 64, 0
2, 792, Note_on_c, 0, 74, 0
2, 793, Note_on_c, 0, 71, 0
2, 810, Note_on_c, 0, 72, 93
2, 810, Note_on_c, 0, 76, 83
2, 822, Note_on_c, 0, 76, 0
2, 822, Note_on_c, 0, 72, 0
2, 840, Note_on_c, 0, 77, 103
2, 840, Note_on_c, 0, 65, 103
2, 840, Note_on_c, 0, 72, 103
2, 886, Note_on_c, 0, 65, 0
2, 888, Note_on_c, 0, 77, 0
2, 893, Note_on_c, 0, 72, 0
2, 900, Note_on_c, 0, 77, 103
2, 900, Note_on_c, 0, 67, 103
2, 911, Note_on_c, 0, 67, 0
2, 930, Note_on_c, 0, 69, 67
2, 935, Note_on_c, 0, 77, 0
2, 939, Note_on_c, 0, 69, 0
2, 960, Note_on_c, 0, 62, 83
2, 989, Note_on_c, 0, 62, 0
2, 1020, Note_on_c, 0, 77, 103
2, 1020, Note_on_c, 0, 67, 103
2, 1020, Note_on_c, 0, 74, 115
2, 1055, Note_on_c, 0, 67, 0
2, 1056, Note_on_c, 0, 74, 0
2, 1058, Note_on_c, 0, 77, 0
2, 1080, Note_on_c, 0, 77, 103
2, 1080, Note_on_c, 0, 67, 103
2, 1080, Note_on_c, 0, 74, 103
2, 1164, Note_on_c, 0, 77, 0
2, 1166, Note_on_c, 0, 74, 0
2, 1170, Note_on_c, 0, 76, 67
2, 1170, Note_on_c, 0, 72, 60
2, 1173, Note_on_c, 0, 67, 0
2, 1183, Note_on_c, 0, 76, 0
2, 1185, Note_on_c, 0, 74, 93
2, 1185, Note_on_c, 0, 77, 93
2, 1187, Note_on_c, 0, 72, 0
2, 1193, Note_on_c, 0, 74, 0
2, 1194, Note_on_c, 0, 77, 0
2, 1200, Note_on_c, 0, 67, 103
2, 1200, Note_on_c, 0, 72, 115
2, 1200, Note_on_c, 0, 76, 103
2, 1247, Note_on_c, 0, 67, 0
2, 1256, Note_on_c, 0, 72, 0
2, 1257, Note_on_c, 0, 76, 0
2, 1260, Note_on_c, 0, 55, 75
2, 1260, Note_on_c, 0, 67, 115
2, 1320, Note_on_c, 0, 72, 103
2, 1320, Note_on_c, 0, 60, 93
2, 1322, Note_on_c, 0, 55, 0
2, 1325, Note_on_c, 0, 67, 0
2, 1377, Note_on_c, 0, 60, 0
2, 1378, Note_on_c, 0, 72, 0
2, 1380, Note_on_c, 0, 64, 93
2, 1380, Note_on_c, 0, 76, 83
2, 1413, Note_on_c, 0, 76, 0
2, 1431, Note_on_c, 0, 64, 0
2, 1440, Note_on_c, 0, 67, 115
2, 1440, Note_on_c, 0, 79, 103
2, 1440, Note_on_c, 0, 76, 103
2, 1484, Note_on_c, 0, 79, 0
2, 1486, Note_on_c, 0, 76, 0
2, 1486, Note_on_c, 0, 67, 0
2, 1500, Note_on_c, 0, 67, 103
2, 1500, Note_on_c, 0, 79, 93
2, 1500, Note_on_c, 0, 76, 93
2, 1596, Note_on_c, 0, 76, 0
2, 1596, Note_on_c, 0, 79, 0
2, 1599, Note_on_c, 0, 67, 0
2, 1620, Note_on_c, 0, 67, 103
2, 1620, Note_on_c, 0, 76, 93
2, 1620, Note_on_c, 0, 79, 93
2, 1717, Note_on_c, 0, 76, 0
2, 1718, Note_on_c, 0, 79, 0
2, 1718, Note_on_c, 0, 67, 0
2, 1740, Note_on_c, 0, 76, 93
2, 1740, Note_on_c, 0, 67, 93
2, 1740, Note_on_c, 0, 79, 93
2, 1770, Note_on_c, 0, 79, 0
2, 1774, Note_on_c, 0, 67, 0
2, 1775, Note_on_c, 0, 76, 0
2, 1800, Note_on_c, 0, 79, 93
2, 1800, Note_on_c, 0, 67, 103
2, 1800, Note_on_c, 0, 76, 93
2, 1889, Note_on_c, 0, 79, 0
2, 1890, Note_on_c, 0, 78, 83
2, 1890, Note_on_c, 0, 74, 75
2, 1894, Note_on_c, 0, 76, 0
2, 1894, Note_on_c, 0, 67, 0
2, 1905, Note_on_c, 0, 78, 0
2, 1905, Note_on_c, 0, 79, 93
2, 1916, Note_on_c, 0, 74, 0
2, 1917, Note_on_c, 0, 79, 0
2, 1920, Note_on_c, 0, 78, 115
2, 1920, Note_on_c, 0, 74, 75
2, 1980, Note_on_c, 0, 69, 93
2, 1983, Note_on_c, 0, 74, 0
2, 1990, Note_on_c, 0, 78, 0
2, 2040, Note_on_c, 0, 77, 93
2, 2040, Note_on_c, 0, 74, 93
2, 2078, Note_on_c, 0, 69, 0
2, 2100, Note_on_c, 0, 68, 115
2, 2142, Note_on_c, 0, 74, 0
2, 2142, Note_on_c, 0, 77, 0
2, 2144, Note_on_c, 0, 68, 0
2, 2160, Note_on_c, 0, 67, 93
2, 2160, Note_on_c, 0, 74, 103
2, 2160, Note_on_c, 0, 77, 93
2, 2200, Note_on_c, 0, 77, 0
2, 2205, Note_on_c, 0, 74, 0
2, 2206, Note_on_c, 0, 67, 0
2, 2220, Note_on_c, 0, 67, 103
2, 2220, Note_on_c, 0, 77, 103
2, 2220, Note_on_c, 0, 74, 103
2, 2318, Note_on_c, 0, 77, 0
2, 2320, Note_on_c, 0, 74, 0
2, 2320, Note_on_c, 0, 67, 0
2, 2340, Note_on_c, 0, 77, 103
2, 2340, Note_on_c, 0, 67, 103
2, 2340, Note_on_c, 0, 74, 103
2, 2382, Note_on_c, 0, 67, 0
2, 2383, Note_on_c, 0, 74, 0
2, 2400, Note_on_c, 0, 67, 93
2, 2400, Note_on_c, 0, 74, 103
2, 2443, Note_on_c, 0, 74, 0
2, 2443, Note_on_c, 0, 67, 0
2, 2444, Note_on_c, 0, 77, 0
2, 2460, Note_on_c, 0, 77, 93
2, 2460, Note_on_c, 0, 67, 93
2, 2460, Note_on_c, 0, 74, 83
2, 2500, Note_on_c, 0, 74, 0
2, 2500, Note_on_c, 0, 67, 0
2, 2502, Note_on_c, 0, 77, 0
2, 2520, Note_on_c, 0, 77, 103
2, 2520, Note_on_c, 0, 67, 93
2, 2520, Note_on_c, 0, 74, 103
2, 2605, Note_on_c, 0, 77, 0
2, 2606, Note_on_c, 0, 74, 0
2, 2610, Note_on_c, 0, 72, 67
2, 2610, Note_on_c, 0, 76, 54
2, 2614, Note_on_c, 0, 67, 0
2, 2623, Note_on_c, 0, 76, 0
2, 2625, Note_on_c, 0, 74, 93
2, 2625, Note_on_c, 0, 77, 67
2, 2629, Note_on_c, 0, 72, 0
2, 2633, Note_on_c, 0, 77, 0
2, 2635, Note_on_c, 0, 74, 0
2, 2640, Note_on_c, 0, 64, 103
2, 2640, Note_on_c, 0, 76, 103
2, 2640, Note_on_c, 0, 72, 103
2, 2845, Note_on_c, 0, 64, 0
2, 2848, Note_on_c, 0, 72, 0
2, 2850, Note_on_c, 0, 76, 0
2, 2880, Note_on_c, 0, 84, 103
2, 2880, Note_on_c, 0, 76, 103
2, 2880, Note_on_c, 0, 72, 93
2, 2918, Note_on_c, 0, 72, 0
2, 2920, Note_on_c, 0, 76, 0
2, 2921, Note_on_c, 0, 84, 0
2, 2940, Note_on_c, 0, 84, 93
2, 2940, Note_on_c, 0, 72, 93
2, 2940, Note_on_c, 0, 76, 93
2, 3038, Note_on_c, 0, 76, 0
2, 3038, Note_on_c, 0, 84, 0
2, 3040, Note_on_c, 0, 72, 0
2, 3060, Note_on_c, 0, 72, 93
2, 3060, Note_on_c, 0, 76, 93
2, 3060, Note_on_c, 0, 84, 93
2, 3075, Note_on_c, 0, 72, 0
2, 3090, Note_on_c, 0, 72, 83
2, 3104, Note_on_c, 0, 84, 0
2, 3105, Note_on_c, 0, 72, 0
2, 3105, Note_on_c, 0, 76, 0
2, 3120, Note_on_c, 0, 72, 103
2, 3162, Note_on_c, 0, 72, 0
2, 3180, Note_on_c, 0, 72, 93
2, 3180, Note_on_c, 0, 84, 93
2, 3180, Note_on_c, 0, 76, 93
2, 3216, Note_on_c, 0, 72, 0
2, 3217, Note_on_c, 0, 76, 0
2, 3217, Note_on_c, 0, 84, 0
2, 3240, Note_on_c, 0, 72, 93
2, 3240, Note_on_c, 0, 84, 103
2, 3240, Note_on_c, 0, 76, 103
2, 3300, Note_on_c, 0, 77, 83
2, 3304, Note_on_c, 0, 76, 0
2, 3345, Note_on_c, 0, 77, 0
2, 3360, Note_on_c, 0, 77, 103
2, 3577, Note_on_c, 0, 77, 0
2, 3584, Note_on_c, 0, 84, 0
2, 3587, Note_on_c, 0, 72, 0
2, 3600, Note_on_c, 0, 72, 93
2, 3600, Note_on_c, 0, 84, 93
2, 3600, Note_on_c, 0, 77, 103
2, 3641, Note_on_c, 0, 72, 0
2, 3643, Note_on_c, 0, 84, 0
2, 3644, Note_on_c, 0, 77, 0
2, 3660, Note_on_c, 0, 84, 93
2, 3660, Note_on_c, 0, 72, 83
2, 3660, Note_on_c, 0, 77, 93
2, 3757, Note_on_c, 0, 84, 0
2, 3758, Note_on_c, 0, 77, 0
2, 3758, Note_on_c, 0, 72, 0
2, 3780, Note_on_c, 0, 72, 93
2, 3780, Note_on_c, 0, 84, 83
2, 3780, Note_on_c, 0, 77, 93
2, 3793, Note_on_c, 0, 72, 0
2, 3810, Note_on_c, 0, 72, 83
2, 3821, Note_on_c, 0, 72, 0
2, 3840, Note_on_c, 0, 72, 103
2, 3881, Note_on_c, 0, 84, 0
2, 3884, Note_on_c, 0, 72, 0
2, 3886, Note_on_c, 0, 77, 0
2, 3900, Note_on_c, 0, 72, 93
2, 3900, Note_on_c, 0, 77, 93
2, 3900, Note_on_c, 0, 84, 93
2, 3934, Note_on_c, 0, 77, 0
2, 3934, Note_on_c, 0, 72, 0
2, 3938, Note_on_c, 0, 84, 0
2, 3960, Note_on_c, 0, 72, 93
2, 3960, Note_on_c, 0, 84, 93
2, 3960, Note_on_c, 0, 77, 103
2, 4009, Note_on_c, 0, 77, 0
2, 4020, Note_on_c, 0, 76, 75
2, 4066, Note_on_c, 0, 76, 0
2, 4080, Note_on_c, 0, 75, 103
2, 4291, Note_on_c, 0, 84, 0
2, 4295, Note_on_c, 0, 75, 0
2, 4306, Note_on_c, 0, 72, 0
2, 4320, Note_on_c, 0, 72, 75
2, 4320, Note_on_c, 0, 84, 83
2, 4320, Note_on_c, 0, 75, 103
2, 4394, Note_on_c, 0, 75, 0
2, 4394, Note_on_c, 0, 84, 0
2, 4395, Note_on_c, 0, 72, 0
2, 4410, Note_on_c, 0, 75, 103
2, 4410, Note_on_c, 0, 84, 67
2, 4422, Note_on_c, 0, 75, 0
2, 4424, Note_on_c, 0, 84, 0
2, 4440, Note_on_c, 0, 84, 93
2, 4440, Note_on_c, 0, 75, 115
2, 4526, Note_on_c, 0, 75, 0
2, 4528, Note_on_c, 0, 84, 0
2, 4529, Note_on_c, 0, 83, 54
2, 4530, Note_on_c, 0, 74, 60
2, 4538, Note_on_c, 0, 83, 0
2, 4544, Note_on_c, 0, 74, 0
2, 4545, Note_on_c, 0, 75, 83
2, 4545, Note_on_c, 0, 84, 67
2, 4553, Note_on_c, 0, 75, 0
2, 4555, Note_on_c, 0, 84, 0
2, 4560, Note_on_c, 0, 84, 75
2, 4560, Note_on_c, 0, 75, 103
2, 4644, Note_on_c, 0, 84, 0
2, 4649, Note_on_c, 0, 83, 60
2, 4650, Note_on_c, 0, 74, 67
2, 4651, Note_on_c, 0, 75, 0
2, 4658, Note_on_c, 0, 74, 0
2, 4659, Note_on_c, 0, 83, 0
2, 4665, Note_on_c, 0, 75, 103
2, 4665, Note_on_c, 0, 84, 67
2, 4672, Note_on_c, 0, 84, 0
2, 4672, Note_on_c, 0, 75, 0
2, 4680, Note_on_c, 0, 84, 75
2, 4680, Note_on_c, 0, 75, 115
2, 4783, Note_on_c, 0, 84, 0
2, 4792, Note_on_c, 0, 75, 0
2, 4800, Note_on_c, 0, 83, 83
2, 4800, Note_on_c, 0, 74, 83
2, 4800, Note_on_c, 0, 79, 75
2, 4908, Note_on_c, 0, 79, 0
2, 4909, Note_on_c, 0, 74, 0
2, 4909, Note_on_c, 0, 83, 0
2, 5040, Note_on_c, 0, 79, 93
2, 5124, Note_on_c, 0, 79, 0
2, 5130, Note_on_c, 0, 78, 75
2, 5144, Note_on_c, 0, 78, 0
2, 5145, Note_on_c, 0, 79, 75
2, 5160, Note_on_c, 0, 79, 0
2, 5160, Note_on_c, 0, 71, 93
2, 5160, Note_on_c, 0, 83, 93
2, 5279, Note_on_c, 0, 71, 0
2, 5280, Note_on_c, 0, 83, 0
2, 5400, Note_on_c, 0, 83, 103
2, 5490, Note_on_c, 0, 83, 0
2, 5490, Note_on_c, 0, 81, 67
2, 5503, Note_on_c, 0, 81, 0
2, 5505, Note_on_c, 0, 83, 83
2, 5519, Note_on_c, 0, 83, 0
2, 5520, Note_on_c, 0, 86, 103
2, 5520, Note_on_c, 0, 74, 103
2, 5641, Note_on_c, 0, 74, 0
2, 5642, Note_on_c, 0, 86, 0
2, 5760, Note_on_c, 0, 67, 103
2, 5760, Note_on_c, 0, 79, 103
2, 5983, Note_on_c, 0, 79, 0
2, 5985, Note_on_c, 0, 67, 0
2, 6000, Note_on_c, 0, 78, 103
2, 6000, Note_on_c, 0, 69, 93
2, 6000, Note_on_c, 0, 72, 93
2, 6094, Note_on_c, 0, 69, 0
2, 6095, Note_on_c, 0, 72, 0
2, 6097, Note_on_c, 0, 78, 0
2, 6120, Note_on_c, 0, 77, 103
2, 6120, Note_on_c, 0, 71, 103
2, 6120, Note_on_c, 0, 74, 93
2, 6216, Note_on_c, 0, 71, 0
2, 6221, Note_on_c, 0, 77, 0
2, 6227, Note_on_c, 0, 74, 0
2, 6240, Note_on_c, 0, 67, 103
2, 6240, Note_on_c, 0, 72, 103
2, 6240, Note_on_c, 0, 76, 93
2, 6343, Note_on_c, 0, 72, 0
2, 6343, Note_on_c, 0, 67, 0
2, 6347, Note_on_c, 0, 76, 0
2, 6360, Note_on_c, 0, 67, 83
2, 6360, Note_on_c, 0, 72, 93
2, 6455, Note_on_c, 0, 67, 0
2, 6457, Note_on_c, 0, 72, 0
2, 6480, Note_on_c, 0, 79, 93
2, 6567, Note_on_c, 0, 79, 0
2, 6570, Note_on_c, 0, 78, 83
2, 6585, Note_on_c, 0, 79, 75
2, 6586, Note_on_c, 0, 78, 0
2, 6600, Note_on_c, 0, 71, 103
2, 6600, Note_on_c, 0, 83, 93
2, 6601, Note_on_c, 0, 79, 0
2, 6720, Note_on_c, 0, 71, 0
2, 6722, Note_on_c, 0, 83, 0
2, 6840, Note_on_c, 0, 83, 93
2, 6928, Note_on_c, 0, 83, 0
2, 6930, Note_on_c, 0, 81, 67
2, 6944, Note_on_c, 0, 81, 0
2, 6945, Note_on_c, 0, 83, 75
2, 6959, Note_on_c, 0, 83, 0
2, 6960, Note_on_c, 0, 86, 93
2, 6960, Note_on_c, 0, 74, 103
2, 7080, Note_on_c, 0, 74, 0
2, 7083, Note_on_c, 0, 86, 0
2, 7200, Note_on_c, 0, 67, 103
2, 7200, Note_on_c, 0, 79, 103
2, 7417, Note_on_c, 0, 79, 0
2, 7421, Note_on_c, 0, 67, 0
2, 7440, Note_on_c, 0, 78, 103
2, 7440, Note_on_c, 0, 72, 103
2, 7440, Note_on_c, 0, 69, 93
2, 7544, Note_on_c, 0, 69, 0
2, 7544, Note_on_c, 0, 72, 0
2, 7546, Note_on_c, 0, 78, 0
2, 7560, Note_on_c, 0, 77, 103
2, 7560, Note_on_c, 0, 71, 103
2, 7560, Note_on_c, 0, 74, 103
2, 7659, Note_on_c, 0, 71, 0
2, 7666, Note_on_c, 0, 77, 0
2, 7668, Note_on_c, 0, 74, 0
2, 7680, Note_on_c, 0, 67, 103
2, 7680, Note_on_c, 0, 76, 103
2, 7680, Note_on_c, 0, 72, 103
2, 7794, Note_on_c, 0, 67, 0
2, 7796, Note_on_c, 0, 72, 0
2, 7798, Note_on_c, 0, 76, 0
2, 7800, Note_on_c, 0, 67, 93
2, 7800, Note_on_c, 0, 72, 103
2, 7800, Note_on_c, 0, 60, 93
2, 7919, Note_on_c, 0, 60, 0
2, 7919, Note_on_c, 0, 67, 0
2, 7920, Note_on_c, 0, 62, 93
2, 7920, Note_on_c, 0, 70, 103
2, 7921, Note_on_c, 0, 72, 0
2, 8040, Note_on_c, 0, 70, 0
2, 8040, Note_on_c, 0, 67, 93
2, 8121, Note_on_c, 0, 67, 0
2, 8149, Note_on_c, 0, 62, 0
2, 8160, Note_on_c, 0, 82, 103
2, 8160, Note_on_c, 0, 79, 103
2, 8287, Note_on_c, 0, 82, 0
2, 8295, Note_on_c, 0, 81, 75
2, 8400, Note_on_c, 0, 77, 83
2, 8404, Note_on_c, 0, 79, 0
2, 8520, Note_on_c, 0, 76, 93
2, 8528, Note_on_c, 0, 77, 0
2, 8640, Note_on_c, 0, 77, 93
2, 8643, Note_on_c, 0, 76, 0
2, 8760, Note_on_c, 0, 77, 0
2, 8760, Note_on_c, 0, 74, 93
2, 8768, Note_on_c, 0, 81, 0
2, 8880, Note_on_c, 0, 80, 83
2, 8935, Note_on_c, 0, 74, 0
2, 9000, Note_on_c, 0, 77, 83
2, 9000, Note_on_c, 0, 79, 83
2, 9004, Note_on_c, 0, 80, 0
2, 9115, Note_on_c, 0, 77, 0
2, 9120, Note_on_c, 0, 76, 93
2, 9240, Note_on_c, 0, 75, 103
2, 9242, Note_on_c, 0, 76, 0
2, 9352, Note_on_c, 0, 75, 0
2, 9360, Note_on_c, 0, 76, 75
2, 9360, Note_on_c, 0, 72, 75
2, 9452, Note_on_c, 0, 72, 0
2, 9454, Note_on_c, 0, 79, 0
2, 9458, Note_on_c, 0, 76, 0
2, 9480, Note_on_c, 0, 67, 93
2, 9480, Note_on_c, 0, 74, 103
2, 9582, Note_on_c, 0, 74, 0
2, 9600, Note_on_c, 0, 76, 75
2, 9600, Note_on_c, 0, 72, 93
2, 9690, Note_on_c, 0, 67, 0
2, 9691, Note_on_c, 0, 72, 0
2, 9695, Note_on_c, 0, 76, 0
2, 9720, Note_on_c, 0, 65, 103
2, 9720, Note_on_c, 0, 77, 83
2, 9720, Note_on_c, 0, 72, 83
2, 9840, Note_on_c, 0, 78, 93
2, 9840, Note_on_c, 0, 66, 93
2, 9845, Note_on_c, 0, 77, 0
2, 9851, Note_on_c, 0, 65, 0
2, 9938, Note_on_c, 0, 72, 0
2, 9943, Note_on_c, 0, 78, 0
2, 9956, Note_on_c, 0, 66, 0
2, 9960, Note_on_c, 0, 67, 103
2, 9960, Note_on_c, 0, 71, 103
2, 9960, Note_on_c, 0, 79, 93
2, 9960, Note_on_c, 0, 74, 103
2, 10054, Note_on_c, 0, 79, 0
2, 10054, Note_on_c, 0, 71, 0
2, 10065, Note_on_c, 0, 74, 0
2, 10071, Note_on_c, 0, 67, 0
2, 10080, Note_on_c, 0, 81, 93
2, 10080, Note_on_c, 0, 74, 103
2, 10080, Note_on_c, 0, 72, 93
2, 10145, Note_on_c, 0, 72, 0
2, 10146, Note_on_c, 0, 74, 0
2, 10149, Note_on_c, 0, 81, 0
2, 10200, Note_on_c, 0, 83, 103
2, 10200, Note_on_c, 0, 74, 103
2, 10200, Note_on_c, 0, 79, 103
2, 10259, Note_on_c, 0, 83, 0
2, 10260, Note_on_c, 0, 79, 0
2, 10260, Note_on_c, 0, 74, 0
2, 10320, Note_on_c, 0, 72, 103
2, 10320, Note_on_c, 0, 79, 103
2, 10320, Note_on_c, 0, 84, 103
2, 10381, Note_on_c, 0, 84, 0
2, 10381, Note_on_c, 0, 79, 0
2, 10388, Note_on_c, 0, 72, 0
2, 10440, Note_on_c, 0, 81, 83
2, 10440, Note_on_c, 0, 72, 93
2, 10440, Note_on_c, 0, 74, 103
2, 10500, Note_on_c, 0, 72, 0
2, 10500, Note_on_c, 0, 81, 0
2, 10500, Note_on_c, 0, 69, 93
2, 10502, Note_on_c, 0, 74, 0
2, 10560, Note_on_c, 0, 72, 83
2, 10560, Note_on_c, 0, 76, 83
2, 10562, Note_on_c, 0, 69, 0
2, 10619, Note_on_c, 0, 76, 0
2, 10619, Note_on_c, 0, 72, 0
2, 10620, Note_on_c, 0, 67, 83
2, 10680, Note_on_c, 0, 71, 83
2, 10680, Note_on_c, 0, 74, 75
2, 10681, Note_on_c, 0, 67, 0
2, 10738, Note_on_c, 0, 71, 0
2, 10740, Note_on_c, 0, 67, 67
2, 10741, Note_on_c, 0, 74, 0
2, 10797, Note_on_c, 0, 67, 0
2, 10800, Note_on_c, 0, 72, 93
2, 10890, Note_on_c, 0, 71, 83
2, 10891, Note_on_c, 0, 72, 0
2, 10904, Note_on_c, 0, 71, 0
2, 10905, Note_on_c, 0, 72, 75
2, 10920, Note_on_c, 0, 64, 103
2, 10920, Note_on_c, 0, 76, 75
2, 10921, Note_on_c, 0, 72, 0
2, 11037, Note_on_c, 0, 64, 0
2, 11040, Note_on_c, 0, 76, 0
2, 11160, Note_on_c, 0, 76, 75
2, 11250, Note_on_c, 0, 74, 75
2, 11251, Note_on_c, 0, 76, 0
2, 11265, Note_on_c, 0, 76, 83
2, 11266, Note_on_c, 0, 74, 0
2, 11279, Note_on_c, 0, 76, 0
2, 11280, Note_on_c, 0, 67, 103
2, 11280, Note_on_c, 0, 79, 93
2, 11401, Note_on_c, 0, 67, 0
2, 11405, Note_on_c, 0, 79, 0
2, 11520, Note_on_c, 0, 74, 103
2, 11520, Note_on_c, 0, 83, 103
2, 11520, Note_on_c, 0, 79, 93
2, 11616, Note_on_c, 0, 79, 0
2, 11616, Note_on_c, 0, 83, 0
2, 11617, Note_on_c, 0, 74, 0
2, 11640, Note_on_c, 0, 74, 103
2, 11640, Note_on_c, 0, 79, 93
2, 11640, Note_on_c, 0, 83, 103
2, 11731, Note_on_c, 0, 74, 0
2, 11732, Note_on_c, 0, 79, 0
2, 11733, Note_on_c, 0, 83, 0
2, 11760, Note_on_c, 0, 74, 93
2, 11760, Note_on_c, 0, 79, 93
2, 11760, Note_on_c, 0, 83, 93
2, 11850, Note_on_c, 0, 79, 0
2, 11851, Note_on_c, 0, 83, 0
2, 11854, Note_on_c, 0, 74, 0
2, 11880, Note_on_c, 0, 74, 93
2, 11880, Note_on_c, 0, 83, 103
2, 11880, Note_on_c, 0, 79, 93
2, 12082, Note_on_c, 0, 79, 0
2, 12087, Note_on_c, 0, 83, 0
2, 12099, Note_on_c, 0, 74, 0
2, 12120, Note_on_c, 0, 84, 93
2, 12150, Note_on_c, 0, 83, 75
2, 12156, Note_on_c, 0, 84, 0
2, 12178, Note_on_c, 0, 83, 0
2, 12180, Note_on_c, 0, 81, 83
2, 12192, Note_on_c, 0, 81, 0
2, 12210, Note_on_c, 0, 79, 83
2, 12227, Note_on_c, 0, 79, 0
2, 12240, Note_on_c, 0, 77, 83
2, 12270, Note_on_c, 0, 77, 0
2, 12270, Note_on_c, 0, 79, 75
2, 12288, Note_on_c, 0, 79, 0
2, 12300, Note_on_c, 0, 81, 83
2, 12317, Note_on_c, 0, 81, 0
2, 12330, Note_on_c, 0, 77, 75
2, 12360, Note_on_c, 0, 76, 67
2, 12361, Note_on_c, 0, 77, 0
2, 12390, Note_on_c, 0, 77, 67
2, 12391, Note_on_c, 0, 76, 0
2, 12420, Note_on_c, 0, 79, 60
2, 12421, Note_on_c, 0, 77, 0
2, 12449, Note_on_c, 0, 79, 0
2, 12450, Note_on_c, 0, 76, 67
2, 12480, Note_on_c, 0, 74, 83
2, 12481, Note_on_c, 0, 76, 0
2, 12510, Note_on_c, 0, 76, 60
2, 12512, Note_on_c, 0, 74, 0
2, 12540, Note_on_c, 0, 77, 75
2, 12544, Note_on_c, 0, 76, 0
2, 12569, Note_on_c, 0, 77, 0
2, 12570, Note_on_c, 0, 74, 83
2, 12600, Note_on_c, 0, 72, 93
2, 12601, Note_on_c, 0, 74, 0
2, 12687, Note_on_c, 0, 72, 0
2, 12690, Note_on_c, 0, 71, 83
2, 12705, Note_on_c, 0, 71, 0
2, 12705, Note_on_c, 0, 72, 83
2, 12719, Note_on_c, 0, 72, 0
2, 12720, Note_on_c, 0, 64, 103
2, 12720, Note_on_c, 0, 76, 103
2, 12839, Note_on_c, 0, 64, 0
2, 12841, Note_on_c, 0, 76, 0
2, 12960, Note_on_c, 0, 76, 103
2, 13049, Note_on_c, 0, 76, 0
2, 13050, Note_on_c, 0, 74, 83
2, 13065, Note_on_c, 0, 74, 0
2, 13065, Note_on_c, 0, 76, 75
2, 13078, Note_on_c, 0, 76, 0
2, 13080, Note_on_c, 0, 67, 103
2, 13080, Note_on_c, 0, 79, 83
2, 13203, Note_on_c, 0, 79, 0
2, 13203, Note_on_c, 0, 67, 0
2, 13320, Note_on_c, 0, 74, 93
2, 13320, Note_on_c, 0, 83, 103
2, 13320, Note_on_c, 0, 79, 93
2, 13423, Note_on_c, 0, 79, 0
2, 13424, Note_on_c, 0, 83, 0
2, 13424, Note_on_c, 0, 74, 0
2, 13440, Note_on_c, 0, 74, 83
2, 13440, Note_on_c, 0, 79, 93
2, 13440, Note_on_c, 0, 83, 93
2, 13476, Note_on_c, 0, 83, 0
2, 13476, Note_on_c, 0, 79, 0
2, 13476, Note_on_c, 0, 74, 0
2, 13500, Note_on_c, 0, 74, 93
2, 13500, Note_on_c, 0, 79, 93
2, 13500, Note_on_c, 0, 83, 103
2, 13533, Note_on_c, 0, 83, 0
2, 13534, Note_on_c, 0, 79, 0
2, 13534, Note_on_c, 0, 74, 0
2, 13560, Note_on_c, 0, 79, 83
2, 13560, Note_on_c, 0, 74, 83
2, 13560, Note_on_c, 0, 83, 93
2, 13599, Note_on_c, 0, 83, 0
2, 13599, Note_on_c, 0, 79, 0
2, 13601, Note_on_c, 0, 74, 0
2, 13620, Note_on_c, 0, 83, 83
2, 13620, Note_on_c, 0, 74, 83
2, 13620, Note_on_c, 0, 79, 83
2, 13654, Note_on_c, 0, 79, 0
2, 13654, Note_on_c, 0, 74, 0
2, 13655, Note_on_c, 0, 83, 0
2, 13680, Note_on_c, 0, 79, 93
2, 13680, Note_on_c, 0, 83, 103
2, 13680, Note_on_c, 0, 74, 93
2, 13920, Note_on_c, 0, 84, 93
2, 13923, Note_on_c, 0, 74, 0
2, 13923, Note_on_c, 0, 79, 0
2, 13923, Note_on_c, 0, 83, 0
2, 13950, Note_on_c, 0, 84, 0
2, 13950, Note_on_c, 0, 83, 75
2, 13977, Note_on_c, 0, 83, 0
2, 13980, Note_on_c, 0, 81, 93
2, 13988, Note_on_c, 0, 81, 0
2, 14010, Note_on_c, 0, 79, 67
2, 14022, Note_on_c, 0, 79, 0
2, 14040, Note_on_c, 0, 77, 67
2, 14070, Note_on_c, 0, 79, 75
2, 14075, Note_on_c, 0, 77, 0
2, 14100, Note_on_c, 0, 81, 75
2, 14102, Note_on_c, 0, 79, 0
2, 14130, Note_on_c, 0, 77, 75
2, 14131, Note_on_c, 0, 81, 0
2, 14160, Note_on_c, 0, 77, 0
2, 14160, Note_on_c, 0, 76, 67
2, 14190, Note_on_c, 0, 77, 75
2, 14192, Note_on_c, 0, 76, 0
2, 14220, Note_on_c, 0, 79, 67
2, 14223, Note_on_c, 0, 77, 0
2, 14250, Note_on_c, 0, 79, 0
2, 14250, Note_on_c, 0, 76, 67
2, 14280, Note_on_c, 0, 76, 0
2, 14280, Note_on_c, 0, 74, 83
2, 14310, Note_on_c, 0, 76, 83
2, 14312, Note_on_c, 0, 74, 0
2, 14340, Note_on_c, 0, 77, 75
2, 14344, Note_on_c, 0, 76, 0
2, 14370, Note_on_c, 0, 77, 0
2, 14370, Note_on_c, 0, 74, 83
2, 14397, Note_on_c, 0, 74, 0
2, 14400, Note_on_c, 0, 72, 83
2, 14430, Note_on_c, 0, 72, 0
2, 14430, Note_on_c, 0, 60, 75
2, 14459, Note_on_c, 0, 60, 0
2, 14460, Note_on_c, 0, 62, 75
2, 14490, Note_on_c, 0, 64, 93
2, 14492, Note_on_c, 0, 62, 0
2, 14520, Note_on_c, 0, 65, 93
2, 14523, Note_on_c, 0, 64, 0
2, 14550, Note_on_c, 0, 67, 67
2, 14554, Note_on_c, 0, 65, 0
2, 14580, Note_on_c, 0, 69, 67
2, 14581, Note_on_c, 0, 67, 0
2, 14606, Note_on_c, 0, 69, 0
2, 14610, Note_on_c, 0, 71, 103
2, 14640, Note_on_c, 0, 72, 93
2, 14643, Note_on_c, 0, 71, 0
2, 14670, Note_on_c, 0, 74, 93
2, 14671, Note_on_c, 0, 72, 0
2, 14700, Note_on_c, 0, 76, 75
2, 14701, Note_on_c, 0, 74, 0
2, 14730, Note_on_c, 0, 77, 83
2, 14732, Note_on_c, 0, 76, 0
2, 14746, Note_on_c, 0, 77, 0
2, 14760, Note_on_c, 0, 76, 93
2, 14760, Note_on_c, 0, 79, 93
2, 14857, Note_on_c, 0, 76, 0
2, 14880, Note_on_c, 0, 79, 0
2, 14880, Note_on_c, 0, 76, 93
2, 14880, Note_on_c, 0, 72, 93
2, 14977, Note_on_c, 0, 72, 0
2, 14991, Note_on_c, 0, 76, 0
2, 15000, Note_on_c, 0, 67, 103
2, 15000, Note_on_c, 0, 74, 103
2, 15000, Note_on_c, 0, 71, 93
2, 15080, Note_on_c, 0, 71, 0
2, 15081, Note_on_c, 0, 74, 0
2, 15082, Note_on_c, 0, 67, 0
2, 15120, Note_on_c, 0, 72, 103
2, 15120, Note_on_c, 0, 64, 93
2, 15143, Note_on_c, 0, 64, 0
2, 15148, Note_on_c, 0, 60, 93
2, 15150, Note_on_c, 0, 72, 0
2, 15175, Note_on_c, 0, 60, 0
2, 15180, Note_on_c, 0, 62, 93
2, 15210, Note_on_c, 0, 62, 0
2, 15210, Note_on_c, 0, 64, 83
2, 15238, Note_on_c, 0, 64, 0
2, 15240, Note_on_c, 0, 65, 103
2, 15270, Note_on_c, 0, 67, 103
2, 15272, Note_on_c, 0, 65, 0
2, 15300, Note_on_c, 0, 69, 93
2, 15302, Note_on_c, 0, 67, 0
2, 15330, Note_on_c, 0, 69, 0
2, 15330, Note_on_c, 0, 71, 93
2, 15360, Note_on_c, 0, 72, 93
2, 15364, Note_on_c, 0, 71, 0
2, 15390, Note_on_c, 0, 74, 83
2, 15392, Note_on_c, 0, 72, 0
2, 15420, Note_on_c, 0, 76, 83
2, 15423, Note_on_c, 0, 74, 0
2, 15450, Note_on_c, 0, 77, 93
2, 15457, Note_on_c, 0, 76, 0
2, 15461, Note_on_c, 0, 77, 0
2, 15480, Note_on_c, 0, 76, 93
2, 15480, Note_on_c, 0, 79, 93
2, 15581, Note_on_c, 0, 76, 0
2, 15596, Note_on_c, 0, 79, 0
2, 15600, Note_on_c, 0, 76, 93
2, 15600, Note_on_c, 0, 72, 93
2, 15697, Note_on_c, 0, 72, 0
2, 15704, Note_on_c, 0, 76, 0
2, 15720, Note_on_c, 0, 71, 103
2, 15720, Note_on_c, 0, 67, 103
2, 15720, Note_on_c, 0, 74, 93
2, 15811, Note_on_c, 0, 67, 0
2, 15815, Note_on_c, 0, 71, 0
2, 15816, Note_on_c, 0, 74, 0
2, 15840, Note_on_c, 0, 64, 103
2, 15840, Note_on_c, 0, 72, 93
2, 15926, Note_on_c, 0, 64, 0
2, 15928, Note_on_c, 0, 72, 0
2, 15960, Note_on_c, 0, 79, 83
2, 15960, Note_on_c, 0, 67, 103
2, 15960, Note_on_c, 0, 72, 103
2, 15960, Note_on_c, 0, 76, 83
2, 16042, Note_on_c, 0, 67, 0
2, 16043, Note_on_c, 0, 72, 0
2, 16044, Note_on_c, 0, 76, 0
2, 16047, Note_on_c, 0, 79, 0
2, 16080, Note_on_c, 0, 71, 93
2, 16080, Note_on_c, 0, 83, 93
2, 16080, Note_on_c, 0, 74, 103
2, 16080, Note_on_c, 0, 79, 93
2, 16167, Note_on_c, 0, 74, 0
2, 16169, Note_on_c, 0, 71, 0
2, 16171, Note_on_c, 0, 83, 0
2, 16174, Note_on_c, 0, 79, 0
2, 16200, Note_on_c, 0, 84, 93
2, 16200, Note_on_c, 0, 76, 93
2, 16200, Note_on_c, 0, 72, 83
2, 16200, Note_on_c, 0, 79, 93
2, 16310, Note_on_c, 0, 79, 0
2, 16310, Note_on_c, 0, 72, 0
2, 16310, Note_on_c, 0, 76, 0
2, 16312, Note_on_c, 0, 84, 0
2, 16312, End_track
3, 0, Start_track
3, 0, MIDI_port, 0
3, 0, Title_t, "bass accomp"
3, 0, Control_c, 0, 7, 127
3, 0, Control_c, 0, 10, 29
3, 0, Note_on_c, 0, 48, 98
3, 0, Note_on_c, 0, 60, 98
3, 0, Note_on_c, 0, 55, 98
3, 79, Note_on_c, 0, 48, 0
3, 89, Note_on_c, 0, 55, 0
3, 90, Note_on_c, 0, 48, 78
3, 91, Note_on_c, 0, 60, 0
3, 116, Note_on_c, 0, 48, 0
3, 120, Note_on_c, 0, 52, 98
3, 210, Note_on_c, 0, 50, 78
3, 215, Note_on_c, 0, 52, 0
3, 223, Note_on_c, 0, 50, 0
3, 225, Note_on_c, 0, 48, 78
3, 239, Note_on_c, 0, 48, 0
3, 240, Note_on_c, 0, 52, 98
3, 327, Note_on_c, 0, 52, 0
3, 330, Note_on_c, 0, 50, 78
3, 345, Note_on_c, 0, 48, 62
3, 346, Note_on_c, 0, 50, 0
3, 357, Note_on_c, 0, 48, 0
3, 360, Note_on_c, 0, 43, 88
3, 360, Note_on_c, 0, 55, 78
3, 404, Note_on_c, 0, 43, 0
3, 411, Note_on_c, 0, 55, 0
3, 420, Note_on_c, 0, 43, 98
3, 420, Note_on_c, 0, 31, 98
3, 458, Note_on_c, 0, 31, 0
3, 461, Note_on_c, 0, 43, 0
3, 540, Note_on_c, 0, 43, 88
3, 540, Note_on_c, 0, 55, 70
3, 585, Note_on_c, 0, 55, 0
3, 585, Note_on_c, 0, 45, 70
3, 585, Note_on_c, 0, 57, 88
3, 589, Note_on_c, 0, 43, 0
3, 598, Note_on_c, 0, 57, 0
3, 599, Note_on_c, 0, 45, 0
3, 600, Note_on_c, 0, 47, 78
3, 600, Note_on_c, 0, 59, 88
3, 641, Note_on_c, 0, 59, 0
3, 644, Note_on_c, 0, 47, 0
3, 645, Note_on_c, 0, 57, 70
3, 645, Note_on_c, 0, 45, 70
3, 660, Note_on_c, 0, 44, 88
3, 660, Note_on_c, 0, 56, 98
3, 664, Note_on_c, 0, 45, 0
3, 666, Note_on_c, 0, 57, 0
3, 700, Note_on_c, 0, 56, 0
3, 705, Note_on_c, 0, 44, 0
3, 705, Note_on_c, 0, 40, 70
3, 705, Note_on_c, 0, 52, 78
3, 717, Note_on_c, 0, 52, 0
3, 718, Note_on_c, 0, 40, 0
3, 720, Note_on_c, 0, 45, 98
3, 720, Note_on_c, 0, 57, 88
3, 777, Note_on_c, 0, 57, 0
3, 807, Note_on_c, 0, 45, 0
3, 810, Note_on_c, 0, 45, 98
3, 824, Note_on_c, 0, 45, 0
3, 840, Note_on_c, 0, 45, 98
3, 929, Note_on_c, 0, 45, 0
3, 930, Note_on_c, 0, 43, 78
3, 944, Note_on_c, 0, 43, 0
3, 945, Note_on_c, 0, 45, 88
3, 956, Note_on_c, 0, 45, 0
3, 960, Note_on_c, 0, 47, 98
3, 1048, Note_on_c, 0, 47, 0
3, 1050, Note_on_c, 0, 45, 88
3, 1065, Note_on_c, 0, 47, 78
3, 1067, Note_on_c, 0, 45, 0
3, 1079, Note_on_c, 0, 47, 0
3, 1080, Note_on_c, 0, 48, 88
3, 1118, Note_on_c, 0, 48, 0
3, 1140, Note_on_c, 0, 48, 98
3, 1140, Note_on_c, 0, 60, 98
3, 1177, Note_on_c, 0, 48, 0
3, 1179, Note_on_c, 0, 60, 0
3, 1260, Note_on_c, 0, 52, 88
3, 1260, Note_on_c, 0, 40, 88
3, 1305, Note_on_c, 0, 41, 62
3, 1305, Note_on_c, 0, 53, 78
3, 1307, Note_on_c, 0, 40, 0
3, 1308, Note_on_c, 0, 52, 0
3, 1317, Note_on_c, 0, 53, 0
3, 1318, Note_on_c, 0, 41, 0
3, 1320, Note_on_c, 0, 43, 88
3, 1320, Note_on_c, 0, 55, 78
3, 1365, Note_on_c, 0, 41, 70
3, 1365, Note_on_c, 0, 53, 78
3, 1367, Note_on_c, 0, 55, 0
3, 1368, Note_on_c, 0, 43, 0
3, 1378, Note_on_c, 0, 53, 0
3, 1380, Note_on_c, 0, 40, 78
3, 1380, Note_on_c, 0, 52, 78
3, 1384, Note_on_c, 0, 41, 0
3, 1420, Note_on_c, 0, 52, 0
3, 1422, Note_on_c, 0, 40, 0
3, 1425, Note_on_c, 0, 50, 62
3, 1425, Note_on_c, 0, 38, 44
3, 1432, Note_on_c, 0, 38, 0
3, 1440, Note_on_c, 0, 50, 0
3, 1440, Note_on_c, 0, 37, 110
3, 1440, Note_on_c, 0, 49, 98
3, 1525, Note_on_c, 0, 37, 0
3, 1529, Note_on_c, 0, 49, 0
3, 1530, Note_on_c, 0, 45, 88
3, 1560, Note_on_c, 0, 49, 110
3, 1561, Note_on_c, 0, 45, 0
3, 1648, Note_on_c, 0, 49, 0
3, 1650, Note_on_c, 0, 47, 98
3, 1664, Note_on_c, 0, 47, 0
3, 1665, Note_on_c, 0, 45, 88
3, 1677, Note_on_c, 0, 45, 0
3, 1680, Note_on_c, 0, 49, 98
3, 1770, Note_on_c, 0, 47, 70
3, 1776, Note_on_c, 0, 49, 0
3, 1782, Note_on_c, 0, 47, 0
3, 1785, Note_on_c, 0, 45, 78
3, 1798, Note_on_c, 0, 45, 0
3, 1800, Note_on_c, 0, 38, 98
3, 1800, Note_on_c, 0, 50, 98
3, 1841, Note_on_c, 0, 50, 0
3, 1856, Note_on_c, 0, 38, 0
3, 1860, Note_on_c, 0, 50, 110
3, 1860, Note_on_c, 0, 62, 110
3, 1898, Note_on_c, 0, 62, 0
3, 1899, Note_on_c, 0, 50, 0
3, 1980, Note_on_c, 0, 50, 98
3, 1980, Note_on_c, 0, 38, 98
3, 2025, Note_on_c, 0, 40, 78
3, 2025, Note_on_c, 0, 52, 88
3, 2028, Note_on_c, 0, 38, 0
3, 2029, Note_on_c, 0, 50, 0
3, 2037, Note_on_c, 0, 52, 0
3, 2039, Note_on_c, 0, 40, 0
3, 2040, Note_on_c, 0, 41, 88
3, 2040, Note_on_c, 0, 53, 88
3, 2085, Note_on_c, 0, 40, 62
3, 2085, Note_on_c, 0, 52, 78
3, 2086, Note_on_c, 0, 41, 0
3, 2088, Note_on_c, 0, 53, 0
3, 2099, Note_on_c, 0, 52, 0
3, 2100, Note_on_c, 0, 38, 78
3, 2100, Note_on_c, 0, 50, 88
3, 2102, Note_on_c, 0, 40, 0
3, 2143, Note_on_c, 0, 50, 0
3, 2145, Note_on_c, 0, 36, 44
3, 2145, Note_on_c, 0, 48, 70
3, 2150, Note_on_c, 0, 38, 0
3, 2155, Note_on_c, 0, 36, 0
3, 2160, Note_on_c, 0, 35, 98
3, 2160, Note_on_c, 0, 47, 88
3, 2172, Note_on_c, 0, 48, 0
3, 2245, Note_on_c, 0, 35, 0
3, 2250, Note_on_c, 0, 47, 0
3, 2250, Note_on_c, 0, 43, 78
3, 2280, Note_on_c, 0, 43, 0
3, 2280, Note_on_c, 0, 47, 98
3, 2369, Note_on_c, 0, 47, 0
3, 2370, Note_on_c, 0, 45, 88
3, 2385, Note_on_c, 0, 43, 78
3, 2388, Note_on_c, 0, 45, 0
3, 2397, Note_on_c, 0, 43, 0
3, 2400, Note_on_c, 0, 47, 98
3, 2490, Note_on_c, 0, 45, 70
3, 2493, Note_on_c, 0, 47, 0
3, 2503, Note_on_c, 0, 45, 0
3, 2505, Note_on_c, 0, 43, 55
3, 2516, Note_on_c, 0, 43, 0
3, 2520, Note_on_c, 0, 36, 98
3, 2520, Note_on_c, 0, 48, 98
3, 2561, Note_on_c, 0, 48, 0
3, 2579, Note_on_c, 0, 36, 0
3, 2580, Note_on_c, 0, 48, 98
3, 2580, Note_on_c, 0, 60, 98
3, 2610, Note_on_c, 0, 60, 0
3, 2613, Note_on_c, 0, 48, 0
3, 2700, Note_on_c, 0, 48, 88
3, 2700, Note_on_c, 0, 36, 98
3, 2745, Note_on_c, 0, 50, 78
3, 2745, Note_on_c, 0, 38, 78
3, 2748, Note_on_c, 0, 36, 0
3, 2750, Note_on_c, 0, 48, 0
3, 2760, Note_on_c, 0, 50, 0
3, 2760, Note_on_c, 0, 38, 0
3, 2760, Note_on_c, 0, 52, 88
3, 2760, Note_on_c, 0, 40, 88
3, 2802, Note_on_c, 0, 40, 0
3, 2802, Note_on_c, 0, 52, 0
3, 2805, Note_on_c, 0, 53, 70
3, 2805, Note_on_c, 0, 41, 70
3, 2820, Note_on_c, 0, 43, 78
3, 2820, Note_on_c, 0, 55, 88
3, 2824, Note_on_c, 0, 41, 0
3, 2824, Note_on_c, 0, 53, 0
3, 2861, Note_on_c, 0, 55, 0
3, 2864, Note_on_c, 0, 43, 0
3, 2865, Note_on_c, 0, 45, 70
3, 2865, Note_on_c, 0, 57, 78
3, 2876, Note_on_c, 0, 45, 0
3, 2880, Note_on_c, 0, 46, 110
3, 2880, Note_on_c, 0, 58, 110
3, 2885, Note_on_c, 0, 57, 0
3, 2960, Note_on_c, 0, 46, 0
3, 2964, Note_on_c, 0, 58, 0
3, 2970, Note_on_c, 0, 46, 110
3, 2981, Note_on_c, 0, 46, 0
3, 3000, Note_on_c, 0, 46, 98
3, 3090, Note_on_c, 0, 45, 88
3, 3091, Note_on_c, 0, 46, 0
3, 3101, Note_on_c, 0, 45, 0
3, 3105, Note_on_c, 0, 46, 98
3, 3112, Note_on_c, 0, 46, 0
3, 3120, Note_on_c, 0, 46, 110
3, 3207, Note_on_c, 0, 46, 0
3, 3210, Note_on_c, 0, 45, 78
3, 3225, Note_on_c, 0, 45, 0
3, 3225, Note_on_c, 0, 46, 98
3, 3235, Note_on_c, 0, 46, 0
3, 3240, Note_on_c, 0, 45, 98
3, 3277, Note_on_c, 0, 45, 0
3, 3300, Note_on_c, 0, 45, 110
3, 3300, Note_on_c, 0, 57, 110
3, 3332, Note_on_c, 0, 57, 0
3, 3333, Note_on_c, 0, 45, 0
3, 3420, Note_on_c, 0, 45, 88
3, 3420, Note_on_c, 0, 33, 70
3, 3463, Note_on_c, 0, 33, 0
3, 3465, Note_on_c, 0, 36, 62
3, 3465, Note_on_c, 0, 48, 70
3, 3471, Note_on_c, 0, 45, 0
3, 3479, Note_on_c, 0, 36, 0
3, 3480, Note_on_c, 0, 48, 0
3, 3480, Note_on_c, 0, 41, 88
3, 3480, Note_on_c, 0, 53, 98
3, 3522, Note_on_c, 0, 53, 0
3, 3525, Note_on_c, 0, 41, 0
3, 3525, Note_on_c, 0, 52, 88
3, 3525, Note_on_c, 0, 40, 78
3, 3539, Note_on_c, 0, 52, 0
3, 3540, Note_on_c, 0, 41, 70
3, 3540, Note_on_c, 0, 53, 88
3, 3543, Note_on_c, 0, 40, 0
3, 3584, Note_on_c, 0, 41, 0
3, 3585, Note_on_c, 0, 53, 0
3, 3585, Note_on_c, 0, 43, 78
3, 3585, Note_on_c, 0, 55, 70
3, 3594, Note_on_c, 0, 43, 0
3, 3598, Note_on_c, 0, 55, 0
3, 3600, Note_on_c, 0, 44, 110
3, 3600, Note_on_c, 0, 56, 110
3, 3678, Note_on_c, 0, 44, 0
3, 3680, Note_on_c, 0, 56, 0
3, 3690, Note_on_c, 0, 44, 98
3, 3700, Note_on_c, 0, 44, 0
3, 3720, Note_on_c, 0, 44, 110
3, 3810, Note_on_c, 0, 43, 88
3, 3811, Note_on_c, 0, 44, 0
3, 3820, Note_on_c, 0, 43, 0
3, 3825, Note_on_c, 0, 44, 110
3, 3831, Note_on_c, 0, 44, 0
3, 3840, Note_on_c, 0, 44, 110
3, 3929, Note_on_c, 0, 44, 0
3, 3930, Note_on_c, 0, 43, 78
3, 3942, Note_on_c, 0, 43, 0
3, 3945, Note_on_c, 0, 44, 110
3, 3956, Note_on_c, 0, 44, 0
3, 3960, Note_on_c, 0, 43, 78
3, 4002, Note_on_c, 0, 43, 0
3, 4020, Note_on_c, 0, 43, 98
3, 4020, Note_on_c, 0, 55, 98
3, 4053, Note_on_c, 0, 43, 0
3, 4056, Note_on_c, 0, 55, 0
3, 4140, Note_on_c, 0, 55, 88
3, 4140, Note_on_c, 0, 43, 78
3, 4185, Note_on_c, 0, 55, 0
3, 4185, Note_on_c, 0, 47, 78
3, 4185, Note_on_c, 0, 59, 78
3, 4186, Note_on_c, 0, 43, 0
3, 4197, Note_on_c, 0, 59, 0
3, 4200, Note_on_c, 0, 47, 0
3, 4200, Note_on_c, 0, 60, 88
3, 4200, Note_on_c, 0, 48, 88
3, 4241, Note_on_c, 0, 48, 0
3, 4242, Note_on_c, 0, 60, 0
3, 4245, Note_on_c, 0, 59, 78
3, 4245, Note_on_c, 0, 47, 62
3, 4260, Note_on_c, 0, 60, 88
3, 4260, Note_on_c, 0, 48, 62
3, 4264, Note_on_c, 0, 59, 0
3, 4265, Note_on_c, 0, 47, 0
3, 4299, Note_on_c, 0, 48, 0
3, 4302, Note_on_c, 0, 60, 0
3, 4305, Note_on_c, 0, 51, 70
3, 4305, Note_on_c, 0, 63, 88
3, 4320, Note_on_c, 0, 63, 0
3, 4320, Note_on_c, 0, 51, 0
3, 4320, Note_on_c, 0, 54, 110
3, 4320, Note_on_c, 0, 42, 110
3, 4358, Note_on_c, 0, 42, 0
3, 4360, Note_on_c, 0, 54, 0
3, 4380, Note_on_c, 0, 42, 110
3, 4380, Note_on_c, 0, 54, 110
3, 4419, Note_on_c, 0, 54, 0
3, 4419, Note_on_c, 0, 42, 0
3, 4440, Note_on_c, 0, 42, 110
3, 4440, Note_on_c, 0, 54, 110
3, 4484, Note_on_c, 0, 42, 0
3, 4485, Note_on_c, 0, 54, 0
3, 4500, Note_on_c, 0, 42, 110
3, 4500, Note_on_c, 0, 54, 110
3, 4540, Note_on_c, 0, 42, 0
3, 4543, Note_on_c, 0, 54, 0
3, 4560, Note_on_c, 0, 42, 110
3, 4560, Note_on_c, 0, 54, 110
3, 4597, Note_on_c, 0, 42, 0
3, 4601, Note_on_c, 0, 54, 0
3, 4620, Note_on_c, 0, 54, 110
3, 4620, Note_on_c, 0, 42, 110
3, 4667, Note_on_c, 0, 42, 0
3, 4667, Note_on_c, 0, 54, 0
3, 4680, Note_on_c, 0, 43, 98
3, 4680, Note_on_c, 0, 55, 110
3, 4784, Note_on_c, 0, 43, 0
3, 4794, Note_on_c, 0, 55, 0
3, 4800, Note_on_c, 0, 43, 98
3, 4800, Note_on_c, 0, 31, 98
3, 4913, Note_on_c, 0, 43, 0
3, 4915, Note_on_c, 0, 31, 0
3, 5040, Note_on_c, 0, 55, 70
3, 5130, Note_on_c, 0, 54, 88
3, 5134, Note_on_c, 0, 55, 0
3, 5138, Note_on_c, 0, 54, 0
3, 5145, Note_on_c, 0, 55, 55
3, 5160, Note_on_c, 0, 59, 98
3, 5162, Note_on_c, 0, 55, 0
3, 5275, Note_on_c, 0, 59, 0
3, 5400, Note_on_c, 0, 59, 88
3, 5480, Note_on_c, 0, 59, 0
3, 5490, Note_on_c, 0, 57, 88
3, 5501, Note_on_c, 0, 57, 0
3, 5505, Note_on_c, 0, 59, 78
3, 5515, Note_on_c, 0, 59, 0
3, 5520, Note_on_c, 0, 62, 88
3, 5639, Note_on_c, 0, 62, 0
3, 5760, Note_on_c, 0, 43, 78
3, 5760, Note_on_c, 0, 55, 78
3, 5775, Note_on_c, 0, 43, 0
3, 5777, Note_on_c, 0, 55, 0
3, 5820, Note_on_c, 0, 43, 88
3, 5820, Note_on_c, 0, 55, 78
3, 5842, Note_on_c, 0, 43, 0
3, 5845, Note_on_c, 0, 55, 0
3, 5880, Note_on_c, 0, 43, 78
3, 5880, Note_on_c, 0, 55, 70
3, 5905, Note_on_c, 0, 55, 0
3, 5907, Note_on_c, 0, 43, 0
3, 5940, Note_on_c, 0, 55, 88
3, 5940, Note_on_c, 0, 43, 78
3, 5965, Note_on_c, 0, 43, 0
3, 5967, Note_on_c, 0, 55, 0
3, 6000, Note_on_c, 0, 43, 88
3, 6000, Note_on_c, 0, 55, 88
3, 6025, Note_on_c, 0, 55, 0
3, 6025, Note_on_c, 0, 43, 0
3, 6060, Note_on_c, 0, 43, 88
3, 6060, Note_on_c, 0, 55, 78
3, 6086, Note_on_c, 0, 43, 0
3, 6088, Note_on_c, 0, 55, 0
3, 6120, Note_on_c, 0, 43, 88
3, 6120, Note_on_c, 0, 55, 88
3, 6156, Note_on_c, 0, 55, 0
3, 6157, Note_on_c, 0, 43, 0
3, 6180, Note_on_c, 0, 43, 88
3, 6180, Note_on_c, 0, 55, 70
3, 6212, Note_on_c, 0, 43, 0
3, 6213, Note_on_c, 0, 55, 0
3, 6240, Note_on_c, 0, 43, 88
3, 6240, Note_on_c, 0, 55, 78
3, 6274, Note_on_c, 0, 55, 0
3, 6276, Note_on_c, 0, 43, 0
3, 6300, Note_on_c, 0, 43, 88
3, 6300, Note_on_c, 0, 55, 78
3, 6330, Note_on_c, 0, 55, 0
3, 6332, Note_on_c, 0, 43, 0
3, 6360, Note_on_c, 0, 43, 88
3, 6360, Note_on_c, 0, 55, 88
3, 6396, Note_on_c, 0, 55, 0
3, 6397, Note_on_c, 0, 43, 0
3, 6420, Note_on_c, 0, 43, 88
3, 6420, Note_on_c, 0, 55, 78
3, 6442, Note_on_c, 0, 43, 0
3, 6450, Note_on_c, 0, 55, 0
3, 6480, Note_on_c, 0, 55, 88
3, 6570, Note_on_c, 0, 54, 88
3, 6573, Note_on_c, 0, 55, 0
3, 6581, Note_on_c, 0, 54, 0
3, 6585, Note_on_c, 0, 55, 70
3, 6599, Note_on_c, 0, 55, 0
3, 6600, Note_on_c, 0, 59, 98
3, 6721, Note_on_c, 0, 59, 0
3, 6840, Note_on_c, 0, 59, 88
3, 6930, Note_on_c, 0, 57, 88
3, 6935, Note_on_c, 0, 59, 0
3, 6945, Note_on_c, 0, 57, 0
3, 6945, Note_on_c, 0, 59, 78
3, 6956, Note_on_c, 0, 59, 0
3, 6960, Note_on_c, 0, 62, 98
3, 7080, Note_on_c, 0, 62, 0
3, 7200, Note_on_c, 0, 43, 88
3, 7200, Note_on_c, 0, 55, 88
3, 7237, Note_on_c, 0, 55, 0
3, 7238, Note_on_c, 0, 43, 0
3, 7260, Note_on_c, 0, 55, 88
3, 7260, Note_on_c, 0, 43, 78
3, 7295, Note_on_c, 0, 43, 0
3, 7296, Note_on_c, 0, 55, 0
3, 7320, Note_on_c, 0, 43, 70
3, 7320, Note_on_c, 0, 55, 78
3, 7357, Note_on_c, 0, 55, 0
3, 7357, Note_on_c, 0, 43, 0
3, 7380, Note_on_c, 0, 43, 78
3, 7380, Note_on_c, 0, 55, 88
3, 7416, Note_on_c, 0, 55, 0
3, 7417, Note_on_c, 0, 43, 0
3, 7440, Note_on_c, 0, 43, 78
3, 7440, Note_on_c, 0, 55, 98
3, 7475, Note_on_c, 0, 43, 0
3, 7477, Note_on_c, 0, 55, 0
3, 7500, Note_on_c, 0, 55, 78
3, 7500, Note_on_c, 0, 43, 78
3, 7536, Note_on_c, 0, 43, 0
3, 7537, Note_on_c, 0, 55, 0
3, 7560, Note_on_c, 0, 55, 88
3, 7560, Note_on_c, 0, 43, 78
3, 7596, Note_on_c, 0, 43, 0
3, 7596, Note_on_c, 0, 55, 0
3, 7620, Note_on_c, 0, 43, 70
3, 7620, Note_on_c, 0, 55, 78
3, 7657, Note_on_c, 0, 55, 0
3, 7659, Note_on_c, 0, 43, 0
3, 7680, Note_on_c, 0, 43, 78
3, 7680, Note_on_c, 0, 55, 78
3, 7717, Note_on_c, 0, 55, 0
3, 7717, Note_on_c, 0, 43, 0
3, 7740, Note_on_c, 0, 43, 70
3, 7740, Note_on_c, 0, 55, 78
3, 7774, Note_on_c, 0, 55, 0
3, 7775, Note_on_c, 0, 43, 0
3, 7800, Note_on_c, 0, 43, 88
3, 7800, Note_on_c, 0, 55, 88
3, 7836, Note_on_c, 0, 43, 0
3, 7838, Note_on_c, 0, 55, 0
3, 7860, Note_on_c, 0, 43, 70
3, 7860, Note_on_c, 0, 55, 78
3, 7895, Note_on_c, 0, 55, 0
3, 7896, Note_on_c, 0, 43, 0
3, 7920, Note_on_c, 0, 55, 88
3, 8010, Note_on_c, 0, 54, 98
3, 8011, Note_on_c, 0, 55, 0
3, 8020, Note_on_c, 0, 54, 0
3, 8025, Note_on_c, 0, 55, 55
3, 8038, Note_on_c, 0, 55, 0
3, 8040, Note_on_c, 0, 58, 110
3, 8157, Note_on_c, 0, 58, 0
3, 8280, Note_on_c, 0, 49, 110
3, 8370, Note_on_c, 0, 47, 78
3, 8371, Note_on_c, 0, 49, 0
3, 8385, Note_on_c, 0, 49, 88
3, 8389, Note_on_c, 0, 47, 0
3, 8396, Note_on_c, 0, 49, 0
3, 8400, Note_on_c, 0, 57, 110
3, 8520, Note_on_c, 0, 57, 0
3, 8640, Note_on_c, 0, 50, 98
3, 8730, Note_on_c, 0, 49, 98
3, 8731, Note_on_c, 0, 50, 0
3, 8742, Note_on_c, 0, 49, 0
3, 8745, Note_on_c, 0, 50, 78
3, 8758, Note_on_c, 0, 50, 0
3, 8760, Note_on_c, 0, 53, 98
3, 8876, Note_on_c, 0, 53, 0
3, 9000, Note_on_c, 0, 47, 110
3, 9088, Note_on_c, 0, 47, 0
3, 9090, Note_on_c, 0, 45, 70
3, 9105, Note_on_c, 0, 45, 0
3, 9105, Note_on_c, 0, 47, 88
3, 9116, Note_on_c, 0, 47, 0
3, 9120, Note_on_c, 0, 55, 98
3, 9242, Note_on_c, 0, 55, 0
3, 9360, Note_on_c, 0, 60, 98
3, 9450, Note_on_c, 0, 59, 70
3, 9451, Note_on_c, 0, 60, 0
3, 9462, Note_on_c, 0, 59, 0
3, 9465, Note_on_c, 0, 60, 78
3, 9479, Note_on_c, 0, 60, 0
3, 9480, Note_on_c, 0, 59, 88
3, 9600, Note_on_c, 0, 58, 98
3, 9603, Note_on_c, 0, 59, 0
3, 9687, Note_on_c, 0, 58, 0
3, 9690, Note_on_c, 0, 57, 78
3, 9705, Note_on_c, 0, 57, 0
3, 9705, Note_on_c, 0, 58, 88
3, 9718, Note_on_c, 0, 58, 0
3, 9720, Note_on_c, 0, 57, 88
3, 9840, Note_on_c, 0, 56, 110
3, 9841, Note_on_c, 0, 57, 0
3, 9927, Note_on_c, 0, 56, 0
3, 9930, Note_on_c, 0, 55, 70
3, 9945, Note_on_c, 0, 55, 0
3, 9945, Note_on_c, 0, 56, 98
3, 9958, Note_on_c, 0, 56, 0
3, 9960, Note_on_c, 0, 55, 78
3, 10080, Note_on_c, 0, 54, 98
3, 10081, Note_on_c, 0, 55, 0
3, 10194, Note_on_c, 0, 54, 0
3, 10200, Note_on_c, 0, 53, 98
3, 10259, Note_on_c, 0, 53, 0
3, 10320, Note_on_c, 0, 52, 98
3, 10387, Note_on_c, 0, 52, 0
3, 10440, Note_on_c, 0, 41, 88
3, 10440, Note_on_c, 0, 53, 110
3, 10560, Note_on_c, 0, 55, 88
3, 10560, Note_on_c, 0, 43, 88
3, 10563, Note_on_c, 0, 41, 0
3, 10564, Note_on_c, 0, 53, 0
3, 10666, Note_on_c, 0, 43, 0
3, 10678, Note_on_c, 0, 55, 0
3, 10680, Note_on_c, 0, 31, 98
3, 10680, Note_on_c, 0, 43, 88
3, 10800, Note_on_c, 0, 48, 98
3, 10803, Note_on_c, 0, 43, 0
3, 10803, Note_on_c, 0, 31, 0
3, 10890, Note_on_c, 0, 47, 78
3, 10894, Note_on_c, 0, 48, 0
3, 10904, Note_on_c, 0, 47, 0
3, 10905, Note_on_c, 0, 48, 88
3, 10916, Note_on_c, 0, 48, 0
3, 10920, Note_on_c, 0, 52, 98
3, 11039, Note_on_c, 0, 52, 0
3, 11160, Note_on_c, 0, 52, 98
3, 11250, Note_on_c, 0, 50, 78
3, 11252, Note_on_c, 0, 52, 0
3, 11264, Note_on_c, 0, 50, 0
3, 11265, Note_on_c, 0, 52, 78
3, 11277, Note_on_c, 0, 52, 0
3, 11280, Note_on_c, 0, 55, 98
3, 11400, Note_on_c, 0, 55, 0
3, 11520, Note_on_c, 0, 41, 88
3, 11520, Note_on_c, 0, 53, 98
3, 11620, Note_on_c, 0, 53, 0
3, 11623, Note_on_c, 0, 41, 0
3, 11640, Note_on_c, 0, 41, 98
3, 11640, Note_on_c, 0, 53, 98
3, 11742, Note_on_c, 0, 41, 0
3, 11743, Note_on_c, 0, 53, 0
3, 11760, Note_on_c, 0, 41, 88
3, 11760, Note_on_c, 0, 53, 98
3, 11863, Note_on_c, 0, 41, 0
3, 11864, Note_on_c, 0, 53, 0
3, 11880, Note_on_c, 0, 41, 88
3, 11880, Note_on_c, 0, 53, 98
3, 12102, Note_on_c, 0, 53, 0
3, 12103, Note_on_c, 0, 41, 0
3, 12120, Note_on_c, 0, 52, 98
3, 12120, Note_on_c, 0, 55, 98
3, 12120, Note_on_c, 0, 60, 98
3, 12229, Note_on_c, 0, 55, 0
3, 12230, Note_on_c, 0, 52, 0
3, 12235, Note_on_c, 0, 60, 0
3, 12240, Note_on_c, 0, 53, 98
3, 12240, Note_on_c, 0, 57, 98
3, 12240, Note_on_c, 0, 62, 98
3, 12343, Note_on_c, 0, 53, 0
3, 12345, Note_on_c, 0, 57, 0
3, 12348, Note_on_c, 0, 62, 0
3, 12360, Note_on_c, 0, 55, 98
3, 12360, Note_on_c, 0, 60, 98
3, 12360, Note_on_c, 0, 64, 88
3, 12461, Note_on_c, 0, 64, 0
3, 12461, Note_on_c, 0, 60, 0
3, 12464, Note_on_c, 0, 55, 0
3, 12480, Note_on_c, 0, 59, 98
3, 12480, Note_on_c, 0, 62, 98
3, 12480, Note_on_c, 0, 55, 98
3, 12589, Note_on_c, 0, 55, 0
3, 12589, Note_on_c, 0, 59, 0
3, 12592, Note_on_c, 0, 62, 0
3, 12600, Note_on_c, 0, 48, 98
3, 12690, Note_on_c, 0, 48, 0
3, 12690, Note_on_c, 0, 47, 88
3, 12703, Note_on_c, 0, 47, 0
3, 12705, Note_on_c, 0, 48, 78
3, 12720, Note_on_c, 0, 52, 98
3, 12724, Note_on_c, 0, 48, 0
3, 12855, Note_on_c, 0, 52, 0
3, 12960, Note_on_c, 0, 52, 98
3, 13049, Note_on_c, 0, 52, 0
3, 13050, Note_on_c, 0, 50, 88
3, 13063, Note_on_c, 0, 50, 0
3, 13065, Note_on_c, 0, 52, 78
3, 13078, Note_on_c, 0, 52, 0
3, 13080, Note_on_c, 0, 55, 98
3, 13202, Note_on_c, 0, 55, 0
3, 13320, Note_on_c, 0, 41, 88
3, 13320, Note_on_c, 0, 53, 98
3, 13426, Note_on_c, 0, 53, 0
3, 13426, Note_on_c, 0, 41, 0
3, 13440, Note_on_c, 0, 41, 78
3, 13440, Note_on_c, 0, 53, 88
3, 13484, Note_on_c, 0, 53, 0
3, 13484, Note_on_c, 0, 41, 0
3, 13500, Note_on_c, 0, 41, 70
3, 13500, Note_on_c, 0, 53, 88
3, 13539, Note_on_c, 0, 53, 0
3, 13539, Note_on_c, 0, 41, 0
3, 13560, Note_on_c, 0, 41, 78
3, 13560, Note_on_c, 0, 53, 88
3, 13600, Note_on_c, 0, 53, 0
3, 13600, Note_on_c, 0, 41, 0
3, 13620, Note_on_c, 0, 41, 78
3, 13620, Note_on_c, 0, 53, 78
3, 13655, Note_on_c, 0, 53, 0
3, 13656, Note_on_c, 0, 41, 0
3, 13680, Note_on_c, 0, 53, 98
3, 13680, Note_on_c, 0, 41, 88
3, 13903, Note_on_c, 0, 53, 0
3, 13906, Note_on_c, 0, 41, 0
3, 13920, Note_on_c, 0, 55, 98
3, 13920, Note_on_c, 0, 52, 88
3, 13920, Note_on_c, 0, 60, 98
3, 14022, Note_on_c, 0, 55, 0
3, 14023, Note_on_c, 0, 52, 0
3, 14033, Note_on_c, 0, 60, 0
3, 14040, Note_on_c, 0, 53, 98
3, 14040, Note_on_c, 0, 62, 98
3, 14040, Note_on_c, 0, 57, 98
3, 14082, Note_on_c, 0, 53, 0
3, 14100, Note_on_c, 0, 53, 88
3, 14136, Note_on_c, 0, 62, 0
3, 14137, Note_on_c, 0, 57, 0
3, 14139, Note_on_c, 0, 53, 0
3, 14160, Note_on_c, 0, 55, 88
3, 14160, Note_on_c, 0, 64, 98
3, 14160, Note_on_c, 0, 60, 88
3, 14203, Note_on_c, 0, 55, 0
3, 14220, Note_on_c, 0, 55, 88
3, 14258, Note_on_c, 0, 60, 0
3, 14258, Note_on_c, 0, 64, 0
3, 14263, Note_on_c, 0, 55, 0
3, 14280, Note_on_c, 0, 55, 88
3, 14280, Note_on_c, 0, 62, 98
3, 14280, Note_on_c, 0, 59, 88
3, 14323, Note_on_c, 0, 55, 0
3, 14340, Note_on_c, 0, 55, 88
3, 14358, Note_on_c, 0, 59, 0
3, 14361, Note_on_c, 0, 62, 0
3, 14367, Note_on_c, 0, 55, 0
3, 14400, Note_on_c, 0, 48, 98
3, 14400, Note_on_c, 0, 60, 88
3, 14400, Note_on_c, 0, 52, 98
3, 14522, Note_on_c, 0, 48, 0
3, 14523, Note_on_c, 0, 52, 0
3, 14525, Note_on_c, 0, 60, 0
3, 14760, Note_on_c, 0, 48, 88
3, 14817, Note_on_c, 0, 48, 0
3, 14820, Note_on_c, 0, 52, 98
3, 14878, Note_on_c, 0, 52, 0
3, 14880, Note_on_c, 0, 55, 88
3, 14939, Note_on_c, 0, 55, 0
3, 14940, Note_on_c, 0, 54, 98
3, 14995, Note_on_c, 0, 54, 0
3, 15000, Note_on_c, 0, 55, 98
3, 15060, Note_on_c, 0, 43, 88
3, 15062, Note_on_c, 0, 55, 0
3, 15113, Note_on_c, 0, 43, 0
3, 15120, Note_on_c, 0, 36, 98
3, 15120, Note_on_c, 0, 48, 98
3, 15245, Note_on_c, 0, 48, 0
3, 15246, Note_on_c, 0, 36, 0
3, 15480, Note_on_c, 0, 48, 88
3, 15540, Note_on_c, 0, 52, 88
3, 15542, Note_on_c, 0, 48, 0
3, 15600, Note_on_c, 0, 55, 88
3, 15602, Note_on_c, 0, 52, 0
3, 15660, Note_on_c, 0, 54, 110
3, 15661, Note_on_c, 0, 55, 0
3, 15716, Note_on_c, 0, 54, 0
3, 15720, Note_on_c, 0, 55, 88
3, 15780, Note_on_c, 0, 43, 88
3, 15781, Note_on_c, 0, 55, 0
3, 15839, Note_on_c, 0, 43, 0
3, 15840, Note_on_c, 0, 36, 78
3, 15840, Note_on_c, 0, 48, 98
3, 15932, Note_on_c, 0, 36, 0
3, 15934, Note_on_c, 0, 48, 0
3, 16080, Note_on_c, 0, 43, 88
3, 16080, Note_on_c, 0, 55, 98
3, 16153, Note_on_c, 0, 55, 0
3, 16153, Note_on_c, 0, 43, 0
3, 16200, Note_on_c, 0, 48, 98
3, 16200, Note_on_c, 0, 60, 110
3, 16322, Note_on_c, 0, 48, 0
3, 16323, Note_on_c, 0, 60, 0
3, 16323, End_track
4, 0, Start_track
4, 0, MIDI_port, 0
4, 0, Title_t, "soprano"
4, 0, Program_c, 1, 52
4, 0, Control_c, 1, 7, 127
4, 0, Control_c, 1, 10, 105
4, 0, Note_on_c, 1, 76, 58
4, 220, Note_on_c, 1, 76, 0
4, 240, Note_on_c, 1, 76, 48
4, 346, Note_on_c, 1, 76, 0
4, 360, Note_on_c, 1, 76, 68
4, 480, Note_on_c, 1, 74, 68
4, 489, Note_on_c, 1, 76, 0
4, 563, Note_on_c, 1, 74, 0
4, 570, Note_on_c, 1, 72, 48
4, 600, Note_on_c, 1, 71, 40
4, 605, Note_on_c, 1, 72, 0
4, 660, Note_on_c, 1, 76, 58
4, 674, Note_on_c, 1, 71, 0
4, 717, Note_on_c, 1, 76, 0
4, 720, Note_on_c, 1, 72, 58
4, 780, Note_on_c, 1, 72, 58
4, 800, Note_on_c, 1, 72, 0
4, 809, Note_on_c, 1, 72, 0
4, 810, Note_on_c, 1, 76, 48
4, 832, Note_on_c, 1, 76, 0
4, 840, Note_on_c, 1, 77, 48
4, 1001, Note_on_c, 1, 77, 0
4, 1020, Note_on_c, 1, 77, 58
4, 1071, Note_on_c, 1, 77, 0
4, 1080, Note_on_c, 1, 77, 48
4, 1197, Note_on_c, 1, 77, 0
4, 1200, Note_on_c, 1, 76, 68
4, 1327, Note_on_c, 1, 76, 0
4, 1440, Note_on_c, 1, 79, 68
4, 1604, Note_on_c, 1, 79, 0
4, 1620, Note_on_c, 1, 79, 48
4, 1662, Note_on_c, 1, 79, 0
4, 1680, Note_on_c, 1, 79, 68
4, 1780, Note_on_c, 1, 79, 0
4, 1800, Note_on_c, 1, 79, 68
4, 1920, Note_on_c, 1, 79, 0
4, 1920, Note_on_c, 1, 78, 80
4, 2040, Note_on_c, 1, 77, 68
4, 2041, Note_on_c, 1, 78, 0
4, 2139, Note_on_c, 1, 77, 0
4, 2160, Note_on_c, 1, 77, 68
4, 2381, Note_on_c, 1, 77, 0
4, 2400, Note_on_c, 1, 77, 68
4, 2503, Note_on_c, 1, 77, 0
4, 2520, Note_on_c, 1, 77, 80
4, 2603, Note_on_c, 1, 77, 0
4, 2610, Note_on_c, 1, 77, 58
4, 2633, Note_on_c, 1, 77, 0
4, 2640, Note_on_c, 1, 76, 80
4, 2769, Note_on_c, 1, 76, 0
4, 2880, Note_on_c, 1, 76, 68
4, 2976, Note_on_c, 1, 76, 0
4, 3000, Note_on_c, 1, 76, 68
4, 3039, Note_on_c, 1, 76, 0
4, 3060, Note_on_c, 1, 76, 68
4, 3102, Note_on_c, 1, 76, 0
4, 3120, Note_on_c, 1, 76, 68
4, 3166, Note_on_c, 1, 76, 0
4, 3180, Note_on_c, 1, 76, 68
4, 3195, Note_on_c, 1, 76, 0
4, 3210, Note_on_c, 1, 76, 68
4, 3230, Note_on_c, 1, 76, 0
4, 3240, Note_on_c, 1, 76, 58
4, 3300, Note_on_c, 1, 76, 0
4, 3300, Note_on_c, 1, 77, 58
4, 3350, Note_on_c, 1, 77, 0
4, 3360, Note_on_c, 1, 77, 68
4, 3570, Note_on_c, 1, 77, 0
4, 3600, Note_on_c, 1, 77, 68
4, 3703, Note_on_c, 1, 77, 0
4, 3720, Note_on_c, 1, 77, 80
4, 3749, Note_on_c, 1, 77, 0
4, 3780, Note_on_c, 1, 77, 58
4, 3815, Note_on_c, 1, 77, 0
4, 3840, Note_on_c, 1, 77, 80
4, 3886, Note_on_c, 1, 77, 0
4, 3900, Note_on_c, 1, 77, 58
4, 3916, Note_on_c, 1, 77, 0
4, 3930, Note_on_c, 1, 77, 58
4, 3944, Note_on_c, 1, 77, 0
4, 3960, Note_on_c, 1, 77, 80
4, 4020, Note_on_c, 1, 76, 58
4, 4039, Note_on_c, 1, 77, 0
4, 4080, Note_on_c, 1, 75, 68
4, 4087, Note_on_c, 1, 76, 0
4, 4299, Note_on_c, 1, 75, 0
4, 4320, Note_on_c, 1, 75, 80
4, 4518, Note_on_c, 1, 75, 0
4, 4530, Note_on_c, 1, 75, 80
4, 4542, Note_on_c, 1, 75, 0
4, 4560, Note_on_c, 1, 75, 80
4, 4664, Note_on_c, 1, 75, 0
4, 4680, Note_on_c, 1, 75, 80
4, 4800, Note_on_c, 1, 75, 0
4, 4800, Note_on_c, 1, 74, 80
4, 4933, Note_on_c, 1, 74, 0
4, 5700, Note_on_c, 1, 74, 68
4, 5756, Note_on_c, 1, 74, 0
4, 5760, Note_on_c, 1, 79, 68
4, 6000, Note_on_c, 1, 78, 80
4, 6010, Note_on_c, 1, 79, 0
4, 6120, Note_on_c, 1, 77, 58
4, 6122, Note_on_c, 1, 78, 0
4, 6240, Note_on_c, 1, 76, 68
4, 6242, Note_on_c, 1, 77, 0
4, 6360, Note_on_c, 1, 72, 68
4, 6363, Note_on_c, 1, 76, 0
4, 6459, Note_on_c, 1, 72, 0
4, 6480, Note_on_c, 1, 72, 68
4, 6594, Note_on_c, 1, 72, 0
4, 6600, Note_on_c, 1, 71, 80
4, 6717, Note_on_c, 1, 71, 0
4, 7140, Note_on_c, 1, 74, 58
4, 7200, Note_on_c, 1, 74, 0
4, 7200, Note_on_c, 1, 79, 68
4, 7440, Note_on_c, 1, 78, 80
4, 7448, Note_on_c, 1, 79, 0
4, 7560, Note_on_c, 1, 77, 68
4, 7579, Note_on_c, 1, 78, 0
4, 7677, Note_on_c, 1, 77, 0
4, 7680, Note_on_c, 1, 76, 68
4, 7800, Note_on_c, 1, 72, 68
4, 7804, Note_on_c, 1, 76, 0
4, 7920, Note_on_c, 1, 79, 80
4, 7921, Note_on_c, 1, 72, 0
4, 8400, Note_on_c, 1, 77, 68
4, 8403, Note_on_c, 1, 79, 0
4, 8520, Note_on_c, 1, 76, 58
4, 8525, Note_on_c, 1, 77, 0
4, 8640, Note_on_c, 1, 77, 68
4, 8643, Note_on_c, 1, 76, 0
4, 9119, Note_on_c, 1, 77, 0
4, 9120, Note_on_c, 1, 76, 68
4, 9240, Note_on_c, 1, 75, 80
4, 9251, Note_on_c, 1, 76, 0
4, 9346, Note_on_c, 1, 75, 0
4, 9360, Note_on_c, 1, 76, 68
4, 9480, Note_on_c, 1, 74, 68
4, 9490, Note_on_c, 1, 76, 0
4, 9537, Note_on_c, 1, 74, 0
4, 9600, Note_on_c, 1, 76, 68
4, 9715, Note_on_c, 1, 76, 0
4, 9720, Note_on_c, 1, 77, 68
4, 9840, Note_on_c, 1, 78, 80
4, 9842, Note_on_c, 1, 77, 0
4, 9960, Note_on_c, 1, 79, 68
4, 9966, Note_on_c, 1, 78, 0
4, 10080, Note_on_c, 1, 79, 0
4, 10080, Note_on_c, 1, 74, 68
4, 10316, Note_on_c, 1, 74, 0
4, 10320, Note_on_c, 1, 76, 68
4, 10440, Note_on_c, 1, 74, 68
4, 10452, Note_on_c, 1, 76, 0
4, 10560, Note_on_c, 1, 72, 58
4, 10566, Note_on_c, 1, 74, 0
4, 10680, Note_on_c, 1, 71, 68
4, 10685, Note_on_c, 1, 72, 0
4, 10800, Note_on_c, 1, 72, 68
4, 10801, Note_on_c, 1, 71, 0
4, 10933, Note_on_c, 1, 72, 0
4, 11460, Note_on_c, 1, 76, 68
4, 11520, Note_on_c, 1, 74, 80
4, 11529, Note_on_c, 1, 76, 0
4, 11680, Note_on_c, 1, 74, 0
4, 11700, Note_on_c, 1, 74, 80
4, 11743, Note_on_c, 1, 74, 0
4, 11760, Note_on_c, 1, 74, 68
4, 11809, Note_on_c, 1, 74, 0
4, 11820, Note_on_c, 1, 74, 68
4, 11850, Note_on_c, 1, 74, 0
4, 11880, Note_on_c, 1, 74, 80
4, 12111, Note_on_c, 1, 74, 0
4, 12120, Note_on_c, 1, 79, 68
4, 12240, Note_on_c, 1, 77, 68
4, 12247, Note_on_c, 1, 79, 0
4, 12287, Note_on_c, 1, 77, 0
4, 12300, Note_on_c, 1, 77, 68
4, 12354, Note_on_c, 1, 77, 0
4, 12360, Note_on_c, 1, 76, 58
4, 12480, Note_on_c, 1, 74, 68
4, 12486, Note_on_c, 1, 76, 0
4, 12594, Note_on_c, 1, 74, 0
4, 12600, Note_on_c, 1, 72, 68
4, 12727, Note_on_c, 1, 72, 0
4, 13260, Note_on_c, 1, 76, 68
4, 13320, Note_on_c, 1, 74, 80
4, 13321, Note_on_c, 1, 76, 0
4, 13479, Note_on_c, 1, 74, 0
4, 13500, Note_on_c, 1, 74, 68
4, 13546, Note_on_c, 1, 74, 0
4, 13560, Note_on_c, 1, 74, 68
4, 13605, Note_on_c, 1, 74, 0
4, 13620, Note_on_c, 1, 74, 68
4, 13652, Note_on_c, 1, 74, 0
4, 13680, Note_on_c, 1, 74, 80
4, 13917, Note_on_c, 1, 74, 0
4, 13920, Note_on_c, 1, 79, 68
4, 14040, Note_on_c, 1, 77, 68
4, 14047, Note_on_c, 1, 79, 0
4, 14087, Note_on_c, 1, 77, 0
4, 14100, Note_on_c, 1, 77, 58
4, 14160, Note_on_c, 1, 77, 0
4, 14160, Note_on_c, 1, 76, 68
4, 14280, Note_on_c, 1, 74, 80
4, 14282, Note_on_c, 1, 76, 0
4, 14397, Note_on_c, 1, 74, 0
4, 14400, Note_on_c, 1, 72, 68
4, 14522, Note_on_c, 1, 72, 0
4, 14760, Note_on_c, 1, 79, 68
4, 14796, Note_on_c, 1, 79, 0
4, 14820, Note_on_c, 1, 79, 68
4, 14880, Note_on_c, 1, 76, 68
4, 14881, Note_on_c, 1, 79, 0
4, 15000, Note_on_c, 1, 74, 68
4, 15010, Note_on_c, 1, 76, 0
4, 15119, Note_on_c, 1, 74, 0
4, 15120, Note_on_c, 1, 72, 68
4, 15252, Note_on_c, 1, 72, 0
4, 15480, Note_on_c, 1, 79, 68
4, 15515, Note_on_c, 1, 79, 0
4, 15540, Note_on_c, 1, 79, 68
4, 15600, Note_on_c, 1, 76, 68
4, 15604, Note_on_c, 1, 79, 0
4, 15714, Note_on_c, 1, 76, 0
4, 15720, Note_on_c, 1, 74, 58
4, 15840, Note_on_c, 1, 74, 0
4, 15840, Note_on_c, 1, 72, 80
4, 15968, Note_on_c, 1, 72, 0
4, 15968, End_track
5, 0, Start_track
5, 0, MIDI_port, 0
5, 0, Title_t, "alto"
5, 0, Control_c, 1, 7, 127
5, 0, Control_c, 1, 10, 105
5, 0, Note_on_c, 1, 67, 68
5, 226, Note_on_c, 1, 67, 0
5, 240, Note_on_c, 1, 67, 80
5, 344, Note_on_c, 1, 67, 0
5, 360, Note_on_c, 1, 67, 80
5, 570, Note_on_c, 1, 69, 58
5, 583, Note_on_c, 1, 69, 0
5, 590, Note_on_c, 1, 67, 0
5, 600, Note_on_c, 1, 71, 58
5, 660, Note_on_c, 1, 68, 80
5, 661, Note_on_c, 1, 71, 0
5, 717, Note_on_c, 1, 68, 0
5, 720, Note_on_c, 1, 64, 68
5, 780, Note_on_c, 1, 62, 58
5, 785, Note_on_c, 1, 64, 0
5, 805, Note_on_c, 1, 62, 0
5, 810, Note_on_c, 1, 60, 58
5, 840, Note_on_c, 1, 65, 68
5, 843, Note_on_c, 1, 60, 0
5, 960, Note_on_c, 1, 67, 80
5, 965, Note_on_c, 1, 65, 0
5, 1067, Note_on_c, 1, 67, 0
5, 1080, Note_on_c, 1, 67, 80
5, 1189, Note_on_c, 1, 67, 0
5, 1200, Note_on_c, 1, 67, 80
5, 1317, Note_on_c, 1, 67, 0
5, 1440, Note_on_c, 1, 69, 80
5, 1596, Note_on_c, 1, 69, 0
5, 1620, Note_on_c, 1, 69, 80
5, 1664, Note_on_c, 1, 69, 0
5, 1680, Note_on_c, 1, 69, 80
5, 1787, Note_on_c, 1, 69, 0
5, 1800, Note_on_c, 1, 69, 80
5, 1902, Note_on_c, 1, 69, 0
5, 1920, Note_on_c, 1, 69, 68
5, 2099, Note_on_c, 1, 69, 0
5, 2100, Note_on_c, 1, 68, 80
5, 2160, Note_on_c, 1, 67, 68
5, 2162, Note_on_c, 1, 68, 0
5, 2381, Note_on_c, 1, 67, 0
5, 2400, Note_on_c, 1, 67, 80
5, 2503, Note_on_c, 1, 67, 0
5, 2520, Note_on_c, 1, 67, 80
5, 2600, Note_on_c, 1, 67, 0
5, 2610, Note_on_c, 1, 67, 80
5, 2626, Note_on_c, 1, 67, 0
5, 2640, Note_on_c, 1, 67, 80
5, 2757, Note_on_c, 1, 67, 0
5, 2880, Note_on_c, 1, 67, 68
5, 2985, Note_on_c, 1, 67, 0
5, 3000, Note_on_c, 1, 67, 80
5, 3050, Note_on_c, 1, 67, 0
5, 3060, Note_on_c, 1, 67, 68
5, 3103, Note_on_c, 1, 67, 0
5, 3120, Note_on_c, 1, 67, 68
5, 3166, Note_on_c, 1, 67, 0
5, 3180, Note_on_c, 1, 67, 68
5, 3202, Note_on_c, 1, 67, 0
5, 3210, Note_on_c, 1, 67, 68
5, 3222, Note_on_c, 1, 67, 0
5, 3240, Note_on_c, 1, 67, 80
5, 3300, Note_on_c, 1, 65, 80
5, 3303, Note_on_c, 1, 67, 0
5, 3342, Note_on_c, 1, 65, 0
5, 3360, Note_on_c, 1, 65, 80
5, 3585, Note_on_c, 1, 65, 0
5, 3600, Note_on_c, 1, 65, 80
5, 3702, Note_on_c, 1, 65, 0
5, 3720, Note_on_c, 1, 65, 68
5, 3759, Note_on_c, 1, 65, 0
5, 3780, Note_on_c, 1, 65, 68
5, 3825, Note_on_c, 1, 65, 0
5, 3840, Note_on_c, 1, 65, 80
5, 3886, Note_on_c, 1, 65, 0
5, 3900, Note_on_c, 1, 65, 68
5, 3913, Note_on_c, 1, 65, 0
5, 3930, Note_on_c, 1, 65, 80
5, 3960, Note_on_c, 1, 67, 68
5, 3961, Note_on_c, 1, 65, 0
5, 4065, Note_on_c, 1, 67, 0
5, 4080, Note_on_c, 1, 67, 80
5, 4320, Note_on_c, 1, 69, 80
5, 4321, Note_on_c, 1, 67, 0
5, 4509, Note_on_c, 1, 69, 0
5, 4530, Note_on_c, 1, 69, 68
5, 4553, Note_on_c, 1, 69, 0
5, 4560, Note_on_c, 1, 69, 80
5, 4677, Note_on_c, 1, 69, 0
5, 4680, Note_on_c, 1, 67, 68
5, 4787, Note_on_c, 1, 67, 0
5, 4800, Note_on_c, 1, 67, 80
5, 4920, Note_on_c, 1, 67, 0
5, 5700, Note_on_c, 1, 67, 80
5, 5738, Note_on_c, 1, 67, 0
5, 5760, Note_on_c, 1, 67, 80
5, 5998, Note_on_c, 1, 67, 0
5, 6000, Note_on_c, 1, 69, 68
5, 6119, Note_on_c, 1, 69, 0
5, 6120, Note_on_c, 1, 71, 68
5, 6236, Note_on_c, 1, 71, 0
5, 6240, Note_on_c, 1, 72, 68
5, 6359, Note_on_c, 1, 72, 0
5, 6360, Note_on_c, 1, 67, 68
5, 6451, Note_on_c, 1, 67, 0
5, 6480, Note_on_c, 1, 67, 68
5, 6570, Note_on_c, 1, 67, 0
5, 6600, Note_on_c, 1, 67, 68
5, 6728, Note_on_c, 1, 67, 0
5, 7140, Note_on_c, 1, 67, 68
5, 7176, Note_on_c, 1, 67, 0
5, 7200, Note_on_c, 1, 67, 80
5, 7427, Note_on_c, 1, 67, 0
5, 7440, Note_on_c, 1, 69, 68
5, 7560, Note_on_c, 1, 69, 0
5, 7560, Note_on_c, 1, 71, 68
5, 7680, Note_on_c, 1, 72, 68
5, 7681, Note_on_c, 1, 71, 0
5, 7796, Note_on_c, 1, 72, 0
5, 7800, Note_on_c, 1, 67, 68
5, 7903, Note_on_c, 1, 67, 0
5, 7920, Note_on_c, 1, 67, 68
5, 8159, Note_on_c, 1, 67, 0
5, 8160, Note_on_c, 1, 70, 80
5, 8280, Note_on_c, 1, 69, 80
5, 8282, Note_on_c, 1, 70, 0
5, 8760, Note_on_c, 1, 62, 68
5, 8767, Note_on_c, 1, 69, 0
5, 8880, Note_on_c, 1, 68, 80
5, 8883, Note_on_c, 1, 62, 0
5, 8989, Note_on_c, 1, 68, 0
5, 9000, Note_on_c, 1, 67, 68
5, 9448, Note_on_c, 1, 67, 0
5, 9480, Note_on_c, 1, 67, 68
5, 9568, Note_on_c, 1, 67, 0
5, 9600, Note_on_c, 1, 67, 80
5, 9712, Note_on_c, 1, 67, 0
5, 9720, Note_on_c, 1, 69, 68
5, 9840, Note_on_c, 1, 72, 68
5, 9850, Note_on_c, 1, 69, 0
5, 9960, Note_on_c, 1, 71, 80
5, 9967, Note_on_c, 1, 72, 0
5, 10069, Note_on_c, 1, 71, 0
5, 10080, Note_on_c, 1, 72, 68
5, 10200, Note_on_c, 1, 71, 80
5, 10212, Note_on_c, 1, 72, 0
5, 10290, Note_on_c, 1, 69, 58
5, 10293, Note_on_c, 1, 71, 0
5, 10315, Note_on_c, 1, 69, 0
5, 10320, Note_on_c, 1, 67, 80
5, 10429, Note_on_c, 1, 67, 0
5, 10440, Note_on_c, 1, 69, 80
5, 10560, Note_on_c, 1, 67, 80
5, 10567, Note_on_c, 1, 69, 0
5, 10778, Note_on_c, 1, 67, 0
5, 10800, Note_on_c, 1, 67, 80
5, 10920, Note_on_c, 1, 67, 0
5, 11460, Note_on_c, 1, 67, 80
5, 11500, Note_on_c, 1, 67, 0
5, 11520, Note_on_c, 1, 67, 80
5, 11676, Note_on_c, 1, 67, 0
5, 11700, Note_on_c, 1, 67, 80
5, 11736, Note_on_c, 1, 67, 0
5, 11760, Note_on_c, 1, 67, 68
5, 11797, Note_on_c, 1, 67, 0
5, 11820, Note_on_c, 1, 67, 80
5, 11850, Note_on_c, 1, 67, 0
5, 11880, Note_on_c, 1, 67, 80
5, 12078, Note_on_c, 1, 67, 0
5, 12120, Note_on_c, 1, 67, 80
5, 12240, Note_on_c, 1, 69, 68
5, 12254, Note_on_c, 1, 67, 0
5, 12274, Note_on_c, 1, 69, 0
5, 12300, Note_on_c, 1, 69, 80
5, 12354, Note_on_c, 1, 69, 0
5, 12360, Note_on_c, 1, 67, 80
5, 12570, Note_on_c, 1, 67, 0
5, 12600, Note_on_c, 1, 67, 80
5, 12729, Note_on_c, 1, 67, 0
5, 13260, Note_on_c, 1, 67, 68
5, 13297, Note_on_c, 1, 67, 0
5, 13320, Note_on_c, 1, 67, 80
5, 13477, Note_on_c, 1, 67, 0
5, 13500, Note_on_c, 1, 67, 68
5, 13536, Note_on_c, 1, 67, 0
5, 13560, Note_on_c, 1, 67, 68
5, 13598, Note_on_c, 1, 67, 0
5, 13620, Note_on_c, 1, 67, 68
5, 13647, Note_on_c, 1, 67, 0
5, 13680, Note_on_c, 1, 67, 80
5, 13886, Note_on_c, 1, 67, 0
5, 13920, Note_on_c, 1, 67, 80
5, 14033, Note_on_c, 1, 67, 0
5, 14040, Note_on_c, 1, 69, 58
5, 14074, Note_on_c, 1, 69, 0
5, 14100, Note_on_c, 1, 69, 80
5, 14153, Note_on_c, 1, 69, 0
5, 14160, Note_on_c, 1, 67, 80
5, 14378, Note_on_c, 1, 67, 0
5, 14400, Note_on_c, 1, 67, 80
5, 14536, Note_on_c, 1, 67, 0
5, 14760, Note_on_c, 1, 67, 80
5, 14796, Note_on_c, 1, 67, 0
5, 14820, Note_on_c, 1, 67, 68
5, 14848, Note_on_c, 1, 67, 0
5, 14880, Note_on_c, 1, 67, 80
5, 15106, Note_on_c, 1, 67, 0
5, 15120, Note_on_c, 1, 67, 80
5, 15239, Note_on_c, 1, 67, 0
5, 15480, Note_on_c, 1, 67, 80
5, 15518, Note_on_c, 1, 67, 0
5, 15540, Note_on_c, 1, 67, 68
5, 15569, Note_on_c, 1, 67, 0
5, 15600, Note_on_c, 1, 67, 80
5, 15816, Note_on_c, 1, 67, 0
5, 15840, Note_on_c, 1, 67, 68
5, 15975, Note_on_c, 1, 67, 0
5, 15975, End_track
6, 0, Start_track
6, 0, MIDI_port, 0
6, 0, Title_t, "tenor"
6, 0, Control_c, 1, 7, 127
6, 0, Control_c, 1, 10, 105
6, 0, Note_on_c, 1, 60, 68
6, 222, Note_on_c, 1, 60, 0
6, 240, Note_on_c, 1, 60, 80
6, 333, Note_on_c, 1, 60, 0
6, 360, Note_on_c, 1, 60, 80
6, 480, Note_on_c, 1, 59, 68
6, 482, Note_on_c, 1, 60, 0
6, 714, Note_on_c, 1, 59, 0
6, 720, Note_on_c, 1, 57, 80
6, 840, Note_on_c, 1, 60, 68
6, 841, Note_on_c, 1, 57, 0
6, 960, Note_on_c, 1, 62, 68
6, 962, Note_on_c, 1, 60, 0
6, 1061, Note_on_c, 1, 62, 0
6, 1080, Note_on_c, 1, 62, 80
6, 1199, Note_on_c, 1, 62, 0
6, 1200, Note_on_c, 1, 60, 68
6, 1328, Note_on_c, 1, 60, 0
6, 1440, Note_on_c, 1, 64, 68
6, 1600, Note_on_c, 1, 64, 0
6, 1620, Note_on_c, 1, 64, 68
6, 1660, Note_on_c, 1, 64, 0
6, 1680, Note_on_c, 1, 64, 80
6, 1782, Note_on_c, 1, 64, 0
6, 1800, Note_on_c, 1, 64, 80
6, 1919, Note_on_c, 1, 64, 0
6, 1920, Note_on_c, 1, 62, 68
6, 2136, Note_on_c, 1, 62, 0
6, 2160, Note_on_c, 1, 62, 80
6, 2375, Note_on_c, 1, 62, 0
6, 2400, Note_on_c, 1, 62, 80
6, 2500, Note_on_c, 1, 62, 0
6, 2520, Note_on_c, 1, 62, 80
6, 2601, Note_on_c, 1, 62, 0
6, 2610, Note_on_c, 1, 62, 68
6, 2631, Note_on_c, 1, 62, 0
6, 2640, Note_on_c, 1, 60, 68
6, 2772, Note_on_c, 1, 60, 0
6, 2880, Note_on_c, 1, 60, 68
6, 2981, Note_on_c, 1, 60, 0
6, 3000, Note_on_c, 1, 60, 68
6, 3032, Note_on_c, 1, 60, 0
6, 3060, Note_on_c, 1, 60, 80
6, 3096, Note_on_c, 1, 60, 0
6, 3120, Note_on_c, 1, 60, 80
6, 3167, Note_on_c, 1, 60, 0
6, 3180, Note_on_c, 1, 60, 58
6, 3195, Note_on_c, 1, 60, 0
6, 3210, Note_on_c, 1, 60, 58
6, 3226, Note_on_c, 1, 60, 0
6, 3240, Note_on_c, 1, 60, 68
6, 3345, Note_on_c, 1, 60, 0
6, 3360, Note_on_c, 1, 60, 68
6, 3573, Note_on_c, 1, 60, 0
6, 3600, Note_on_c, 1, 60, 68
6, 3705, Note_on_c, 1, 60, 0
6, 3720, Note_on_c, 1, 60, 68
6, 3754, Note_on_c, 1, 60, 0
6, 3780, Note_on_c, 1, 60, 68
6, 3823, Note_on_c, 1, 60, 0
6, 3840, Note_on_c, 1, 60, 68
6, 3889, Note_on_c, 1, 60, 0
6, 3900, Note_on_c, 1, 60, 68
6, 3915, Note_on_c, 1, 60, 0
6, 3930, Note_on_c, 1, 60, 68
6, 3945, Note_on_c, 1, 60, 0
6, 3960, Note_on_c, 1, 60, 68
6, 4070, Note_on_c, 1, 60, 0
6, 4080, Note_on_c, 1, 60, 68
6, 4295, Note_on_c, 1, 60, 0
6, 4320, Note_on_c, 1, 60, 68
6, 4519, Note_on_c, 1, 60, 0
6, 4530, Note_on_c, 1, 60, 58
6, 4545, Note_on_c, 1, 60, 0
6, 4560, Note_on_c, 1, 60, 68
6, 4672, Note_on_c, 1, 60, 0
6, 4680, Note_on_c, 1, 60, 68
6, 4799, Note_on_c, 1, 60, 0
6, 4800, Note_on_c, 1, 59, 80
6, 4936, Note_on_c, 1, 59, 0
6, 5700, Note_on_c, 1, 59, 68
6, 5729, Note_on_c, 1, 59, 0
6, 5760, Note_on_c, 1, 59, 80
6, 6000, Note_on_c, 1, 60, 68
6, 6002, Note_on_c, 1, 59, 0
6, 6117, Note_on_c, 1, 60, 0
6, 6120, Note_on_c, 1, 62, 68
6, 6240, Note_on_c, 1, 62, 0
6, 6240, Note_on_c, 1, 60, 58
6, 6357, Note_on_c, 1, 60, 0
6, 6360, Note_on_c, 1, 64, 68
6, 6454, Note_on_c, 1, 64, 0
6, 6480, Note_on_c, 1, 64, 80
6, 6599, Note_on_c, 1, 64, 0
6, 6600, Note_on_c, 1, 62, 80
6, 6727, Note_on_c, 1, 62, 0
6, 7140, Note_on_c, 1, 59, 68
6, 7181, Note_on_c, 1, 59, 0
6, 7200, Note_on_c, 1, 59, 68
6, 7436, Note_on_c, 1, 59, 0
6, 7440, Note_on_c, 1, 60, 68
6, 7560, Note_on_c, 1, 62, 68
6, 7567, Note_on_c, 1, 60, 0
6, 7680, Note_on_c, 1, 60, 68
6, 7682, Note_on_c, 1, 62, 0
6, 7800, Note_on_c, 1, 64, 68
6, 7804, Note_on_c, 1, 60, 0
6, 7920, Note_on_c, 1, 62, 68
6, 7922, Note_on_c, 1, 64, 0
6, 8277, Note_on_c, 1, 62, 0
6, 8280, Note_on_c, 1, 64, 58
6, 8400, Note_on_c, 1, 61, 80
6, 8404, Note_on_c, 1, 64, 0
6, 8520, Note_on_c, 1, 61, 0
6, 8520, Note_on_c, 1, 57, 68
6, 8878, Note_on_c, 1, 57, 0
6, 8880, Note_on_c, 1, 62, 68
6, 9120, Note_on_c, 1, 59, 68
6, 9128, Note_on_c, 1, 62, 0
6, 9240, Note_on_c, 1, 55, 68
6, 9244, Note_on_c, 1, 59, 0
6, 9360, Note_on_c, 1, 55, 0
6, 9360, Note_on_c, 1, 60, 68
6, 9479, Note_on_c, 1, 60, 0
6, 9480, Note_on_c, 1, 59, 68
6, 9562, Note_on_c, 1, 59, 0
6, 9600, Note_on_c, 1, 60, 68
6, 9692, Note_on_c, 1, 60, 0
6, 9720, Note_on_c, 1, 60, 68
6, 9960, Note_on_c, 1, 60, 0
6, 9960, Note_on_c, 1, 62, 68
6, 10080, Note_on_c, 1, 57, 68
6, 10082, Note_on_c, 1, 62, 0
6, 10200, Note_on_c, 1, 59, 68
6, 10202, Note_on_c, 1, 57, 0
6, 10320, Note_on_c, 1, 60, 58
6, 10321, Note_on_c, 1, 59, 0
6, 10433, Note_on_c, 1, 60, 0
6, 10440, Note_on_c, 1, 60, 80
6, 10530, Note_on_c, 1, 62, 68
6, 10538, Note_on_c, 1, 60, 0
6, 10552, Note_on_c, 1, 62, 0
6, 10560, Note_on_c, 1, 64, 68
6, 10680, Note_on_c, 1, 62, 68
6, 10683, Note_on_c, 1, 64, 0
6, 10799, Note_on_c, 1, 62, 0
6, 10800, Note_on_c, 1, 60, 68
6, 10928, Note_on_c, 1, 60, 0
6, 11460, Note_on_c, 1, 60, 58
6, 11516, Note_on_c, 1, 60, 0
6, 11520, Note_on_c, 1, 59, 68
6, 11668, Note_on_c, 1, 59, 0
6, 11700, Note_on_c, 1, 59, 68
6, 11740, Note_on_c, 1, 59, 0
6, 11760, Note_on_c, 1, 59, 80
6, 11799, Note_on_c, 1, 59, 0
6, 11820, Note_on_c, 1, 59, 68
6, 11856, Note_on_c, 1, 59, 0
6, 11880, Note_on_c, 1, 59, 80
6, 12115, Note_on_c, 1, 59, 0
6, 12120, Note_on_c, 1, 60, 68
6, 12240, Note_on_c, 1, 60, 0
6, 12240, Note_on_c, 1, 57, 68
6, 12277, Note_on_c, 1, 57, 0
6, 12300, Note_on_c, 1, 57, 68
6, 12353, Note_on_c, 1, 57, 0
6, 12360, Note_on_c, 1, 60, 68
6, 12480, Note_on_c, 1, 59, 68
6, 12484, Note_on_c, 1, 60, 0
6, 12597, Note_on_c, 1, 59, 0
6, 12600, Note_on_c, 1, 60, 80
6, 12718, Note_on_c, 1, 60, 0
6, 13260, Note_on_c, 1, 60, 68
6, 13314, Note_on_c, 1, 60, 0
6, 13320, Note_on_c, 1, 59, 80
6, 13484, Note_on_c, 1, 59, 0
6, 13500, Note_on_c, 1, 59, 80
6, 13542, Note_on_c, 1, 59, 0
6, 13560, Note_on_c, 1, 59, 68
6, 13602, Note_on_c, 1, 59, 0
6, 13620, Note_on_c, 1, 59, 68
6, 13654, Note_on_c, 1, 59, 0
6, 13680, Note_on_c, 1, 59, 80
6, 13918, Note_on_c, 1, 59, 0
6, 13920, Note_on_c, 1, 60, 68
6, 14040, Note_on_c, 1, 57, 68
6, 14043, Note_on_c, 1, 60, 0
6, 14075, Note_on_c, 1, 57, 0
6, 14100, Note_on_c, 1, 57, 68
6, 14156, Note_on_c, 1, 57, 0
6, 14160, Note_on_c, 1, 60, 80
6, 14280, Note_on_c, 1, 59, 68
6, 14282, Note_on_c, 1, 60, 0
6, 14396, Note_on_c, 1, 59, 0
6, 14400, Note_on_c, 1, 60, 68
6, 14530, Note_on_c, 1, 60, 0
6, 14760, Note_on_c, 1, 64, 68
6, 14800, Note_on_c, 1, 64, 0
6, 14820, Note_on_c, 1, 64, 68
6, 14878, Note_on_c, 1, 64, 0
6, 14880, Note_on_c, 1, 60, 68
6, 15000, Note_on_c, 1, 59, 58
6, 15001, Note_on_c, 1, 60, 0
6, 15120, Note_on_c, 1, 60, 68
6, 15122, Note_on_c, 1, 59, 0
6, 15244, Note_on_c, 1, 60, 0
6, 15480, Note_on_c, 1, 64, 80
6, 15515, Note_on_c, 1, 64, 0
6, 15540, Note_on_c, 1, 64, 68
6, 15597, Note_on_c, 1, 64, 0
6, 15600, Note_on_c, 1, 60, 68
6, 15719, Note_on_c, 1, 60, 0
6, 15720, Note_on_c, 1, 59, 80
6, 15837, Note_on_c, 1, 59, 0
6, 15840, Note_on_c, 1, 60, 80
6, 15971, Note_on_c, 1, 60, 0
6, 15971, End_track
7, 0, Start_track
7, 0, MIDI_port, 0
7, 0, Title_t, "bass"
7, 0, Control_c, 1, 7, 127
7, 0, Control_c, 1, 10, 108
7, 0, Note_on_c, 1, 48, 80
7, 218, Note_on_c, 1, 48, 0
7, 240, Note_on_c, 1, 48, 80
7, 358, Note_on_c, 1, 48, 0
7, 360, Note_on_c, 1, 55, 68
7, 538, Note_on_c, 1, 55, 0
7, 540, Note_on_c, 1, 59, 68
7, 585, Note_on_c, 1, 57, 68
7, 595, Note_on_c, 1, 59, 0
7, 600, Note_on_c, 1, 57, 0
7, 600, Note_on_c, 1, 56, 80
7, 657, Note_on_c, 1, 56, 0
7, 660, Note_on_c, 1, 52, 80
7, 718, Note_on_c, 1, 52, 0
7, 720, Note_on_c, 1, 57, 80
7, 840, Note_on_c, 1, 45, 68
7, 843, Note_on_c, 1, 57, 0
7, 959, Note_on_c, 1, 45, 0
7, 960, Note_on_c, 1, 47, 80
7, 1080, Note_on_c, 1, 48, 68
7, 1082, Note_on_c, 1, 47, 0
7, 1187, Note_on_c, 1, 48, 0
7, 1200, Note_on_c, 1, 48, 80
7, 1322, Note_on_c, 1, 48, 0
7, 1440, Note_on_c, 1, 49, 80
7, 1601, Note_on_c, 1, 49, 0
7, 1620, Note_on_c, 1, 49, 80
7, 1665, Note_on_c, 1, 49, 0
7, 1680, Note_on_c, 1, 49, 80
7, 1800, Note_on_c, 1, 50, 68
7, 1805, Note_on_c, 1, 49, 0
7, 1909, Note_on_c, 1, 50, 0
7, 1920, Note_on_c, 1, 50, 80
7, 2042, Note_on_c, 1, 50, 0
7, 2160, Note_on_c, 1, 47, 80
7, 2385, Note_on_c, 1, 47, 0
7, 2400, Note_on_c, 1, 47, 68
7, 2518, Note_on_c, 1, 47, 0
7, 2520, Note_on_c, 1, 48, 68
7, 2520, Note_on_c, 1, 48, 68
7, 2598, Note_on_c, 1, 48, 0
7, 2610, Note_on_c, 1, 48, 68
7, 2619, Note_on_c, 1, 48, 0
7, 2629, Note_on_c, 1, 48, 0
7, 2640, Note_on_c, 1, 48, 68
7, 2762, Note_on_c, 1, 48, 0
7, 2880, Note_on_c, 1, 58, 80
7, 2991, Note_on_c, 1, 58, 0
7, 3000, Note_on_c, 1, 58, 80
7, 3047, Note_on_c, 1, 58, 0
7, 3060, Note_on_c, 1, 58, 80
7, 3106, Note_on_c, 1, 58, 0
7, 3120, Note_on_c, 1, 58, 80
7, 3166, Note_on_c, 1, 58, 0
7, 3180, Note_on_c, 1, 58, 80
7, 3195, Note_on_c, 1, 58, 0
7, 3210, Note_on_c, 1, 58, 80
7, 3234, Note_on_c, 1, 58, 0
7, 3240, Note_on_c, 1, 57, 80
7, 3294, Note_on_c, 1, 57, 0
7, 3300, Note_on_c, 1, 57, 5
7, 3348, Note_on_c, 1, 57, 0
7, 3360, Note_on_c, 1, 57, 80
7, 3576, Note_on_c, 1, 57, 0
7, 3600, Note_on_c, 1, 56, 80
7, 3709, Note_on_c, 1, 56, 0
7, 3720, Note_on_c, 1, 56, 80
7, 3769, Note_on_c, 1, 56, 0
7, 3780, Note_on_c, 1, 56, 80
7, 3826, Note_on_c, 1, 56, 0
7, 3840, Note_on_c, 1, 56, 80
7, 3889, Note_on_c, 1, 56, 0
7, 3900, Note_on_c, 1, 56, 80
7, 3913, Note_on_c, 1, 56, 0
7, 3930, Note_on_c, 1, 56, 80
7, 3960, Note_on_c, 1, 55, 68
7, 3961, Note_on_c, 1, 56, 0
7, 4072, Note_on_c, 1, 55, 0
7, 4080, Note_on_c, 1, 55, 68
7, 4320, Note_on_c, 1, 54, 94
7, 4321, Note_on_c, 1, 55, 0
7, 4524, Note_on_c, 1, 54, 0
7, 4530, Note_on_c, 1, 54, 94
7, 4554, Note_on_c, 1, 54, 0
7, 4560, Note_on_c, 1, 54, 80
7, 4680, Note_on_c, 1, 55, 68
7, 4682, Note_on_c, 1, 54, 0
7, 4788, Note_on_c, 1, 55, 0
7, 4800, Note_on_c, 1, 55, 58
7, 4924, Note_on_c, 1, 55, 0
7, 5700, Note_on_c, 1, 55, 68
7, 5728, Note_on_c, 1, 55, 0
7, 5760, Note_on_c, 1, 55, 80
7, 5990, Note_on_c, 1, 55, 0
7, 6000, Note_on_c, 1, 55, 80
7, 6096, Note_on_c, 1, 55, 0
7, 6120, Note_on_c, 1, 55, 68
7, 6334, Note_on_c, 1, 55, 0
7, 6360, Note_on_c, 1, 55, 80
7, 6457, Note_on_c, 1, 55, 0
7, 6480, Note_on_c, 1, 55, 80
7, 6557, Note_on_c, 1, 55, 0
7, 6600, Note_on_c, 1, 55, 80
7, 6736, Note_on_c, 1, 55, 0
7, 7140, Note_on_c, 1, 55, 80
7, 7184, Note_on_c, 1, 55, 0
7, 7200, Note_on_c, 1, 55, 68
7, 7420, Note_on_c, 1, 55, 0
7, 7440, Note_on_c, 1, 55, 80
7, 7539, Note_on_c, 1, 55, 0
7, 7560, Note_on_c, 1, 55, 80
7, 7770, Note_on_c, 1, 55, 0
7, 7800, Note_on_c, 1, 55, 68
7, 7893, Note_on_c, 1, 55, 0
7, 7920, Note_on_c, 1, 55, 80
7, 8274, Note_on_c, 1, 55, 0
7, 8280, Note_on_c, 1, 49, 68
7, 8639, Note_on_c, 1, 49, 0
7, 8640, Note_on_c, 1, 50, 68
7, 8995, Note_on_c, 1, 50, 0
7, 9000, Note_on_c, 1, 47, 68
7, 9346, Note_on_c, 1, 47, 0
7, 9600, Note_on_c, 1, 58, 80
7, 9716, Note_on_c, 1, 58, 0
7, 9720, Note_on_c, 1, 57, 80
7, 9837, Note_on_c, 1, 57, 0
7, 9840, Note_on_c, 1, 56, 80
7, 9956, Note_on_c, 1, 56, 0
7, 9960, Note_on_c, 1, 55, 68
7, 10080, Note_on_c, 1, 54, 94
7, 10089, Note_on_c, 1, 55, 0
7, 10194, Note_on_c, 1, 54, 0
7, 10200, Note_on_c, 1, 53, 68
7, 10316, Note_on_c, 1, 53, 0
7, 10320, Note_on_c, 1, 52, 68
7, 10440, Note_on_c, 1, 53, 68
7, 10441, Note_on_c, 1, 52, 0
7, 10560, Note_on_c, 1, 55, 80
7, 10567, Note_on_c, 1, 53, 0
7, 10800, Note_on_c, 1, 48, 80
7, 10801, Note_on_c, 1, 55, 0
7, 10933, Note_on_c, 1, 48, 0
7, 11460, Note_on_c, 1, 48, 68
7, 11520, Note_on_c, 1, 53, 80
7, 11521, Note_on_c, 1, 48, 0
7, 11679, Note_on_c, 1, 53, 0
7, 11700, Note_on_c, 1, 53, 80
7, 11740, Note_on_c, 1, 53, 0
7, 11760, Note_on_c, 1, 53, 80
7, 11796, Note_on_c, 1, 53, 0
7, 11820, Note_on_c, 1, 53, 80
7, 11849, Note_on_c, 1, 53, 0
7, 11880, Note_on_c, 1, 53, 80
7, 12114, Note_on_c, 1, 53, 0
7, 12120, Note_on_c, 1, 52, 68
7, 12240, Note_on_c, 1, 53, 68
7, 12241, Note_on_c, 1, 52, 0
7, 12285, Note_on_c, 1, 53, 0
7, 12300, Note_on_c, 1, 53, 68
7, 12351, Note_on_c, 1, 53, 0
7, 12360, Note_on_c, 1, 55, 68
7, 12600, Note_on_c, 1, 48, 68
7, 12604, Note_on_c, 1, 55, 0
7, 12732, Note_on_c, 1, 48, 0
7, 13260, Note_on_c, 1, 48, 68
7, 13319, Note_on_c, 1, 48, 0
7, 13320, Note_on_c, 1, 53, 68
7, 13467, Note_on_c, 1, 53, 0
7, 13500, Note_on_c, 1, 53, 80
7, 13542, Note_on_c, 1, 53, 0
7, 13560, Note_on_c, 1, 53, 68
7, 13595, Note_on_c, 1, 53, 0
7, 13620, Note_on_c, 1, 53, 80
7, 13652, Note_on_c, 1, 53, 0
7, 13680, Note_on_c, 1, 53, 68
7, 13918, Note_on_c, 1, 53, 0
7, 13920, Note_on_c, 1, 52, 80
7, 14040, Note_on_c, 1, 53, 68
7, 14044, Note_on_c, 1, 52, 0
7, 14075, Note_on_c, 1, 53, 0
7, 14100, Note_on_c, 1, 53, 68
7, 14160, Note_on_c, 1, 53, 0
7, 14160, Note_on_c, 1, 55, 68
7, 14400, Note_on_c, 1, 48, 80
7, 14402, Note_on_c, 1, 55, 0
7, 14541, Note_on_c, 1, 48, 0
7, 14760, Note_on_c, 1, 60, 68
7, 14791, Note_on_c, 1, 60, 0
7, 14820, Note_on_c, 1, 60, 80
7, 14880, Note_on_c, 1, 55, 80
7, 14882, Note_on_c, 1, 60, 0
7, 15118, Note_on_c, 1, 55, 0
7, 15120, Note_on_c, 1, 48, 68
7, 15264, Note_on_c, 1, 48, 0
7, 15480, Note_on_c, 1, 60, 68
7, 15510, Note_on_c, 1, 60, 0
7, 15540, Note_on_c, 1, 60, 68
7, 15589, Note_on_c, 1, 60, 0
7, 15600, Note_on_c, 1, 55, 80
7, 15840, Note_on_c, 1, 48, 80
7, 15845, Note_on_c, 1, 55, 0
7, 15975, Note_on_c, 1, 48, 0
7, 15975, End_track
8, 0, Start_track
8, 0, MIDI_port, 0
8, 0, Title_t, "pedal"
8, 0, Control_c, 0, 64, 127
8, 92, Control_c, 0, 64, 0
8, 117, Control_c, 0, 64, 127
8, 216, Control_c, 0, 64, 0
8, 242, Control_c, 0, 64, 127
8, 336, Control_c, 0, 64, 0
8, 366, Control_c, 0, 64, 127
8, 532, Control_c, 0, 64, 0
8, 745, Control_c, 0, 64, 127
8, 819, Control_c, 0, 64, 0
8, 839, Control_c, 0, 64, 127
8, 938, Control_c, 0, 64, 0
8, 966, Control_c, 0, 64, 127
8, 1049, Control_c, 0, 64, 0
8, 1090, Control_c, 0, 64, 127
8, 1245, Control_c, 0, 64, 0
8, 1463, Control_c, 0, 64, 127
8, 1532, Control_c, 0, 64, 0
8, 1558, Control_c, 0, 64, 127
8, 1665, Control_c, 0, 64, 0
8, 1684, Control_c, 0, 64, 127
8, 1776, Control_c, 0, 64, 0
8, 1812, Control_c, 0, 64, 127
8, 1972, Control_c, 0, 64, 0
8, 2187, Control_c, 0, 64, 127
8, 2268, Control_c, 0, 64, 0
8, 2287, Control_c, 0, 64, 127
8, 2387, Control_c, 0, 64, 0
8, 2409, Control_c, 0, 64, 127
8, 2506, Control_c, 0, 64, 0
8, 2533, Control_c, 0, 64, 127
8, 2682, Control_c, 0, 64, 0
8, 2893, Control_c, 0, 64, 127
8, 2982, Control_c, 0, 64, 0
8, 3009, Control_c, 0, 64, 127
8, 3103, Control_c, 0, 64, 0
8, 3123, Control_c, 0, 64, 127
8, 3219, Control_c, 0, 64, 0
8, 3247, Control_c, 0, 64, 127
8, 3418, Control_c, 0, 64, 0
8, 3609, Control_c, 0, 64, 127
8, 3700, Control_c, 0, 64, 0
8, 3741, Control_c, 0, 64, 127
8, 3814, Control_c, 0, 64, 0
8, 3857, Control_c, 0, 64, 127
8, 3927, Control_c, 0, 64, 0
8, 3965, Control_c, 0, 64, 127
8, 4131, Control_c, 0, 64, 0
8, 4322, Control_c, 0, 64, 127
8, 4657, Control_c, 0, 64, 0
8, 4679, Control_c, 0, 64, 127
8, 4781, Control_c, 0, 64, 0
8, 4806, Control_c, 0, 64, 127
8, 4988, Control_c, 0, 64, 0
8, 5804, Control_c, 0, 64, 127
8, 6449, Control_c, 0, 64, 0
8, 6478, Control_c, 0, 64, 127
8, 6516, Control_c, 0, 64, 0
8, 6537, Control_c, 0, 64, 127
8, 6607, Control_c, 0, 64, 0
8, 7211, Control_c, 0, 64, 127
8, 7405, Control_c, 0, 64, 0
8, 7464, Control_c, 0, 64, 127
8, 7532, Control_c, 0, 64, 0
8, 7582, Control_c, 0, 64, 127
8, 7640, Control_c, 0, 64, 0
8, 7690, Control_c, 0, 64, 127
8, 7758, Control_c, 0, 64, 0
8, 7806, Control_c, 0, 64, 127
8, 7865, Control_c, 0, 64, 0
8, 10081, Control_c, 0, 64, 127
8, 10141, Control_c, 0, 64, 0
8, 10455, Control_c, 0, 64, 127
8, 10523, Control_c, 0, 64, 0
8, 10571, Control_c, 0, 64, 127
8, 10601, Control_c, 0, 64, 0
8, 10825, Control_c, 0, 64, 127
8, 10932, Control_c, 0, 64, 0
8, 11520, Control_c, 0, 64, 127
8, 11871, Control_c, 0, 64, 0
8, 11909, Control_c, 0, 64, 127
8, 12105, Control_c, 0, 64, 0
8, 13326, Control_c, 0, 64, 127
8, 13921, Control_c, 0, 64, 0
8, 14760, Control_c, 0, 64, 127
8, 14821, Control_c, 0, 64, 0
8, 14880, Control_c, 0, 64, 127
8, 14948, Control_c, 0, 64, 0
8, 14996, Control_c, 0, 64, 127
8, 15055, Control_c, 0, 64, 0
8, 15144, Control_c, 0, 64, 127
8, 15153, Control_c, 0, 64, 0
8, 15504, Control_c, 0, 64, 127
8, 15563, Control_c, 0, 64, 0
8, 15611, Control_c, 0, 64, 127
8, 15679, Control_c, 0, 64, 0
8, 15729, Control_c, 0, 64, 127
8, 15768, Control_c, 0, 64, 0
8, 15846, Control_c, 0, 64, 127
8, 15894, Control_c, 0, 64, 0
8, 15972, Control_c, 0, 64, 127
8, 16023, Control_c, 0, 64, 0
8, 16090, Control_c, 0, 64, 127
8, 16158, Control_c, 0, 64, 0
8, 16226, Control_c, 0, 64, 127
8, 16304, Control_c, 0, 64, 0
8, 16304, End_track
9, 0, Start_track
9, 0, MIDI_port, 0
9, 0, Title_t, "sequenced by Michael Petri"
9, 0, End_track
0, 0, End_of_file