0, 0, Header, 1, 3, 192
1, 0, Start_track
1, 0, Title_t, "Sonatina 61"
1, 0, Text_t, "By W. A. Mozart"
1, 0, Copyright_t, "Copyright \251 <Year> by <Name>"
1, 0, Copyright_t, "All Rights Reserved"
1, 0, Text_t, "Generated by NoteWorthy Composer"
1, 0, Tempo, 428571
1, 0, Time_signature, 2, 1, 24, 8
1, 28416, Tempo, 428571
1, 28416, End_track
2, 0, Start_track
2, 0, MIDI_port, 0
2, 0, Title_t, "Right Hand"
2, 0, Program_c, 0, 0
2, 0, Control_c, 0, 7, 127
2, 0, Control_c, 0, 10, 64
2, 0, Note_on_c, 0, 72, 92
2, 160, Note_on_c, 0, 72, 0
2, 288, Note_on_c, 0, 67, 92
2, 320, Note_on_c, 0, 67, 0
2, 384, Note_on_c, 0, 72, 92
2, 544, Note_on_c, 0, 72, 0
2, 672, Note_on_c, 0, 67, 92
2, 704, Note_on_c, 0, 67, 0
2, 768, Note_on_c, 0, 72, 92
2, 800, Note_on_c, 0, 72, 0
2, 864, Note_on_c, 0, 76, 92
2, 896, Note_on_c, 0, 76, 0
2, 960, Note_on_c, 0, 79, 92
2, 992, Note_on_c, 0, 79, 0
2, 1056, Note_on_c, 0, 76, 92
2, 1088, Note_on_c, 0, 76, 0
2, 1152, Note_on_c, 0, 72, 92
2, 1312, Note_on_c, 0, 72, 0
2, 1536, Note_on_c, 0, 67, 45
2, 1536, Note_on_c, 0, 76, 45
2, 1584, Note_on_c, 0, 67, 0
2, 1584, Note_on_c, 0, 76, 0
2, 1728, Note_on_c, 0, 69, 45
2, 1728, Note_on_c, 0, 77, 45
2, 2112, Note_on_c, 0, 69, 0
2, 2112, Note_on_c, 0, 77, 0
2, 2112, Note_on_c, 0, 67, 45
2, 2112, Note_on_c, 0, 76, 45
2, 2272, Note_on_c, 0, 67, 0
2, 2272, Note_on_c, 0, 76, 0
2, 2304, Note_on_c, 0, 67, 45
2, 2304, Note_on_c, 0, 76, 45
2, 2400, Note_on_c, 0, 67, 0
2, 2400, Note_on_c, 0, 76, 0
2, 2400, Note_on_c, 0, 65, 45
2, 2400, Note_on_c, 0, 74, 45
2, 2494, Note_on_c, 0, 65, 0
2, 2494, Note_on_c, 0, 74, 0
2, 2496, Note_on_c, 0, 65, 45
2, 2496, Note_on_c, 0, 74, 45
2, 2592, Note_on_c, 0, 74, 0
2, 2592, Note_on_c, 0, 71, 45
2, 2656, Note_on_c, 0, 65, 0
2, 2686, Note_on_c, 0, 71, 0
2, 2688, Note_on_c, 0, 64, 45
2, 2688, Note_on_c, 0, 72, 45
2, 2848, Note_on_c, 0, 64, 0
2, 2848, Note_on_c, 0, 72, 0
2, 3072, Note_on_c, 0, 76, 45
2, 3072, Note_on_c, 0, 79, 45
2, 3120, Note_on_c, 0, 76, 0
2, 3120, Note_on_c, 0, 79, 0
2, 3264, Note_on_c, 0, 77, 45
2, 3264, Note_on_c, 0, 81, 45
2, 3648, Note_on_c, 0, 77, 0
2, 3648, Note_on_c, 0, 81, 0
2, 3648, Note_on_c, 0, 76, 45
2, 3648, Note_on_c, 0, 79, 45
2, 3808, Note_on_c, 0, 76, 0
2, 3808, Note_on_c, 0, 79, 0
2, 3840, Note_on_c, 0, 76, 45
2, 3840, Note_on_c, 0, 79, 45
2, 3936, Note_on_c, 0, 76, 0
2, 3936, Note_on_c, 0, 79, 0
2, 3936, Note_on_c, 0, 74, 45
2, 3936, Note_on_c, 0, 77, 45
2, 4030, Note_on_c, 0, 74, 0
2, 4030, Note_on_c, 0, 77, 0
2, 4032, Note_on_c, 0, 74, 45
2, 4032, Note_on_c, 0, 77, 45
2, 4128, Note_on_c, 0, 74, 0
2, 4128, Note_on_c, 0, 77, 0
2, 4128, Note_on_c, 0, 71, 45
2, 4128, Note_on_c, 0, 74, 45
2, 4222, Note_on_c, 0, 71, 0
2, 4222, Note_on_c, 0, 74, 0
2, 4224, Note_on_c, 0, 72, 45
2, 4224, Note_on_c, 0, 76, 45
2, 4384, Note_on_c, 0, 72, 0
2, 4384, Note_on_c, 0, 76, 0
2, 4608, Note_on_c, 0, 72, 92
2, 4608, Note_on_c, 0, 84, 92
2, 4704, Note_on_c, 0, 84, 0
2, 4704, Note_on_c, 0, 79, 92
2, 4798, Note_on_c, 0, 79, 0
2, 4800, Note_on_c, 0, 79, 92
2, 4832, Note_on_c, 0, 79, 0
2, 4896, Note_on_c, 0, 79, 92
2, 4928, Note_on_c, 0, 79, 0
2, 4992, Note_on_c, 0, 79, 92
2, 5280, Note_on_c, 0, 79, 0
2, 5280, Note_on_c, 0, 80, 92
2, 5328, Note_on_c, 0, 72, 0
2, 5374, Note_on_c, 0, 80, 0
2, 5376, Note_on_c, 0, 72, 92
2, 5376, Note_on_c, 0, 81, 92
2, 5472, Note_on_c, 0, 81, 0
2, 5472, Note_on_c, 0, 74, 92
2, 5566, Note_on_c, 0, 74, 0
2, 5568, Note_on_c, 0, 74, 92
2, 5600, Note_on_c, 0, 74, 0
2, 5664, Note_on_c, 0, 74, 92
2, 5696, Note_on_c, 0, 74, 0
2, 5712, Note_on_c, 0, 72, 0
2, 5760, Note_on_c, 0, 71, 92
2, 5760, Note_on_c, 0, 74, 92
2, 6096, Note_on_c, 0, 71, 0
2, 6096, Note_on_c, 0, 74, 0
2, 6144, Note_on_c, 0, 72, 92
2, 6144, Note_on_c, 0, 79, 92
2, 6288, Note_on_c, 0, 72, 0
2, 6288, Note_on_c, 0, 79, 0
2, 6288, Note_on_c, 0, 81, 92
2, 6334, Note_on_c, 0, 81, 0
2, 6336, Note_on_c, 0, 74, 92
2, 6336, Note_on_c, 0, 77, 92
2, 6480, Note_on_c, 0, 74, 0
2, 6480, Note_on_c, 0, 77, 0
2, 6480, Note_on_c, 0, 79, 92
2, 6526, Note_on_c, 0, 79, 0
2, 6528, Note_on_c, 0, 72, 92
2, 6528, Note_on_c, 0, 76, 92
2, 6672, Note_on_c, 0, 72, 0
2, 6672, Note_on_c, 0, 76, 0
2, 6672, Note_on_c, 0, 77, 92
2, 6718, Note_on_c, 0, 77, 0
2, 6720, Note_on_c, 0, 71, 92
2, 6720, Note_on_c, 0, 74, 92
2, 6864, Note_on_c, 0, 71, 0
2, 6864, Note_on_c, 0, 74, 0
2, 6864, Note_on_c, 0, 76, 92
2, 6910, Note_on_c, 0, 76, 0
2, 6912, Note_on_c, 0, 72, 45
2, 7072, Note_on_c, 0, 72, 0
2, 7488, Note_on_c, 0, 72, 45
2, 7488, Note_on_c, 0, 76, 45
2, 7648, Note_on_c, 0, 72, 0
2, 7648, Note_on_c, 0, 76, 0
2, 7680, Note_on_c, 0, 72, 45
2, 7680, Note_on_c, 0, 74, 45
2, 7872, Note_on_c, 0, 74, 0
2, 7872, Note_on_c, 0, 74, 45
2, 8064, Note_on_c, 0, 74, 0
2, 8064, Note_on_c, 0, 76, 45
2, 8208, Note_on_c, 0, 72, 0
2, 8256, Note_on_c, 0, 76, 0
2, 8256, Note_on_c, 0, 74, 45
2, 8256, Note_on_c, 0, 77, 45
2, 8416, Note_on_c, 0, 74, 0
2, 8416, Note_on_c, 0, 77, 0
2, 8448, Note_on_c, 0, 74, 45
2, 8448, Note_on_c, 0, 77, 45
2, 8640, Note_on_c, 0, 74, 0
2, 8640, Note_on_c, 0, 77, 0
2, 8640, Note_on_c, 0, 72, 45
2, 8640, Note_on_c, 0, 76, 45
2, 8800, Note_on_c, 0, 72, 0
2, 8800, Note_on_c, 0, 76, 0
2, 9024, Note_on_c, 0, 76, 45
2, 9024, Note_on_c, 0, 84, 45
2, 9072, Note_on_c, 0, 76, 0
2, 9072, Note_on_c, 0, 84, 0
2, 9216, Note_on_c, 0, 74, 45
2, 9216, Note_on_c, 0, 81, 45
2, 9408, Note_on_c, 0, 74, 0
2, 9408, Note_on_c, 0, 81, 0
2, 9408, Note_on_c, 0, 72, 45
2, 9408, Note_on_c, 0, 77, 45
2, 9600, Note_on_c, 0, 72, 0
2, 9600, Note_on_c, 0, 77, 0
2, 9600, Note_on_c, 0, 71, 45
2, 9600, Note_on_c, 0, 74, 45
2, 9792, Note_on_c, 0, 71, 0
2, 9792, Note_on_c, 0, 74, 0
2, 9792, Note_on_c, 0, 74, 45
2, 9792, Note_on_c, 0, 79, 45
2, 9952, Note_on_c, 0, 74, 0
2, 9952, Note_on_c, 0, 79, 0
2, 9984, Note_on_c, 0, 72, 92
2, 10144, Note_on_c, 0, 72, 0
2, 10176, Note_on_c, 0, 76, 92
2, 10272, Note_on_c, 0, 76, 0
2, 10272, Note_on_c, 0, 72, 92
2, 10366, Note_on_c, 0, 72, 0
2, 10368, Note_on_c, 0, 69, 92
2, 10528, Note_on_c, 0, 69, 0
2, 10560, Note_on_c, 0, 72, 92
2, 10656, Note_on_c, 0, 72, 0
2, 10656, Note_on_c, 0, 69, 92
2, 10750, Note_on_c, 0, 69, 0
2, 10752, Note_on_c, 0, 74, 92
2, 10912, Note_on_c, 0, 74, 0
2, 10944, Note_on_c, 0, 77, 92
2, 11040, Note_on_c, 0, 77, 0
2, 11040, Note_on_c, 0, 74, 92
2, 11134, Note_on_c, 0, 74, 0
2, 11136, Note_on_c, 0, 71, 92
2, 11296, Note_on_c, 0, 71, 0
2, 11328, Note_on_c, 0, 74, 92
2, 11424, Note_on_c, 0, 74, 0
2, 11424, Note_on_c, 0, 71, 92
2, 11518, Note_on_c, 0, 71, 0
2, 11520, Note_on_c, 0, 76, 92
2, 11680, Note_on_c, 0, 76, 0
2, 11712, Note_on_c, 0, 79, 92
2, 11808, Note_on_c, 0, 79, 0
2, 11808, Note_on_c, 0, 76, 92
2, 11902, Note_on_c, 0, 76, 0
2, 11904, Note_on_c, 0, 72, 92
2, 12064, Note_on_c, 0, 72, 0
2, 12096, Note_on_c, 0, 76, 92
2, 12192, Note_on_c, 0, 76, 0
2, 12192, Note_on_c, 0, 72, 92
2, 12286, Note_on_c, 0, 72, 0
2, 12288, Note_on_c, 0, 77, 92
2, 12448, Note_on_c, 0, 77, 0
2, 12480, Note_on_c, 0, 81, 92
2, 12576, Note_on_c, 0, 81, 0
2, 12576, Note_on_c, 0, 77, 92
2, 12670, Note_on_c, 0, 77, 0
2, 12672, Note_on_c, 0, 74, 92
2, 12832, Note_on_c, 0, 74, 0
2, 12864, Note_on_c, 0, 77, 92
2, 12960, Note_on_c, 0, 77, 0
2, 12960, Note_on_c, 0, 74, 92
2, 13054, Note_on_c, 0, 74, 0
2, 13056, Note_on_c, 0, 71, 92
2, 13152, Note_on_c, 0, 71, 0
2, 13152, Note_on_c, 0, 67, 93
2, 13248, Note_on_c, 0, 67, 0
2, 13248, Note_on_c, 0, 69, 94
2, 13344, Note_on_c, 0, 69, 0
2, 13344, Note_on_c, 0, 71, 95
2, 13438, Note_on_c, 0, 71, 0
2, 13440, Note_on_c, 0, 72, 96
2, 13536, Note_on_c, 0, 72, 0
2, 13536, Note_on_c, 0, 71, 97
2, 13632, Note_on_c, 0, 71, 0
2, 13632, Note_on_c, 0, 72, 98
2, 13728, Note_on_c, 0, 72, 0
2, 13728, Note_on_c, 0, 74, 99
2, 13822, Note_on_c, 0, 74, 0
2, 13824, Note_on_c, 0, 76, 100
2, 13920, Note_on_c, 0, 76, 0
2, 13920, Note_on_c, 0, 74, 101
2, 14016, Note_on_c, 0, 74, 0
2, 14016, Note_on_c, 0, 72, 102
2, 14112, Note_on_c, 0, 72, 0
2, 14112, Note_on_c, 0, 74, 103
2, 14206, Note_on_c, 0, 74, 0
2, 14208, Note_on_c, 0, 76, 104
2, 14304, Note_on_c, 0, 76, 0
2, 14304, Note_on_c, 0, 74, 105
2, 14400, Note_on_c, 0, 74, 0
2, 14400, Note_on_c, 0, 76, 106
2, 14496, Note_on_c, 0, 76, 0
2, 14496, Note_on_c, 0, 78, 107
2, 14590, Note_on_c, 0, 78, 0
2, 14592, Note_on_c, 0, 79, 108
2, 14686, Note_on_c, 0, 79, 0
2, 14784, Note_on_c, 0, 77, 108
2, 14784, Note_on_c, 0, 83, 108
2, 14976, Note_on_c, 0, 77, 0
2, 14976, Note_on_c, 0, 83, 0
2, 14976, Note_on_c, 0, 76, 108
2, 14976, Note_on_c, 0, 84, 108
2, 15070, Note_on_c, 0, 76, 0
2, 15070, Note_on_c, 0, 84, 0
2, 15168, Note_on_c, 0, 72, 108
2, 15168, Note_on_c, 0, 76, 108
2, 15262, Note_on_c, 0, 72, 0
2, 15262, Note_on_c, 0, 76, 0
2, 15360, Note_on_c, 0, 71, 108
2, 15360, Note_on_c, 0, 74, 108
2, 15454, Note_on_c, 0, 71, 0
2, 15454, Note_on_c, 0, 74, 0
2, 15552, Note_on_c, 0, 77, 108
2, 15552, Note_on_c, 0, 83, 108
2, 15744, Note_on_c, 0, 77, 0
2, 15744, Note_on_c, 0, 83, 0
2, 15744, Note_on_c, 0, 76, 108
2, 15744, Note_on_c, 0, 84, 108
2, 15838, Note_on_c, 0, 76, 0
2, 15838, Note_on_c, 0, 84, 0
2, 15936, Note_on_c, 0, 72, 108
2, 15936, Note_on_c, 0, 76, 108
2, 16030, Note_on_c, 0, 72, 0
2, 16030, Note_on_c, 0, 76, 0
2, 16128, Note_on_c, 0, 71, 108
2, 16128, Note_on_c, 0, 74, 108
2, 16288, Note_on_c, 0, 71, 0
2, 16288, Note_on_c, 0, 74, 0
2, 16320, Note_on_c, 0, 71, 108
2, 16320, Note_on_c, 0, 79, 108
2, 16368, Note_on_c, 0, 71, 0
2, 16368, Note_on_c, 0, 79, 0
2, 16512, Note_on_c, 0, 71, 108
2, 16512, Note_on_c, 0, 79, 108
2, 16560, Note_on_c, 0, 71, 0
2, 16560, Note_on_c, 0, 79, 0
2, 16896, Note_on_c, 0, 74, 45
2, 17280, Note_on_c, 0, 74, 0
2, 17280, Note_on_c, 0, 73, 45
2, 17280, Note_on_c, 0, 79, 45
2, 17616, Note_on_c, 0, 73, 0
2, 17616, Note_on_c, 0, 79, 0
2, 17664, Note_on_c, 0, 74, 45
2, 17664, Note_on_c, 0, 78, 45
2, 17760, Note_on_c, 0, 74, 0
2, 17760, Note_on_c, 0, 78, 0
2, 17760, Note_on_c, 0, 81, 45
2, 17856, Note_on_c, 0, 81, 0
2, 17856, Note_on_c, 0, 79, 45
2, 17952, Note_on_c, 0, 79, 0
2, 17952, Note_on_c, 0, 76, 45
2, 18046, Note_on_c, 0, 76, 0
2, 18048, Note_on_c, 0, 74, 45
2, 18208, Note_on_c, 0, 74, 0
2, 18432, Note_on_c, 0, 74, 45
2, 18432, Note_on_c, 0, 74, 45
2, 18816, Note_on_c, 0, 74, 0
2, 18816, Note_on_c, 0, 84, 45
2, 19152, Note_on_c, 0, 74, 0
2, 19152, Note_on_c, 0, 84, 0
2, 19200, Note_on_c, 0, 74, 45
2, 19200, Note_on_c, 0, 83, 45
2, 19296, Note_on_c, 0, 74, 0
2, 19296, Note_on_c, 0, 83, 0
2, 19296, Note_on_c, 0, 86, 45
2, 19392, Note_on_c, 0, 86, 0
2, 19392, Note_on_c, 0, 78, 45
2, 19392, Note_on_c, 0, 84, 45
2, 19488, Note_on_c, 0, 78, 0
2, 19488, Note_on_c, 0, 84, 0
2, 19488, Note_on_c, 0, 81, 45
2, 19582, Note_on_c, 0, 81, 0
2, 19584, Note_on_c, 0, 79, 45
2, 19744, Note_on_c, 0, 79, 0
2, 19968, Note_on_c, 0, 76, 45
2, 20064, Note_on_c, 0, 76, 0
2, 20064, Note_on_c, 0, 78, 45
2, 20160, Note_on_c, 0, 78, 0
2, 20160, Note_on_c, 0, 79, 45
2, 20256, Note_on_c, 0, 79, 0
2, 20256, Note_on_c, 0, 80, 45
2, 20350, Note_on_c, 0, 80, 0
2, 20352, Note_on_c, 0, 81, 45
2, 20448, Note_on_c, 0, 81, 0
2, 20448, Note_on_c, 0, 83, 45
2, 20544, Note_on_c, 0, 83, 0
2, 20544, Note_on_c, 0, 84, 45
2, 20640, Note_on_c, 0, 84, 0
2, 20640, Note_on_c, 0, 81, 45
2, 20734, Note_on_c, 0, 81, 0
2, 20736, Note_on_c, 0, 79, 45
2, 20832, Note_on_c, 0, 79, 0
2, 20832, Note_on_c, 0, 78, 45
2, 20928, Note_on_c, 0, 78, 0
2, 20928, Note_on_c, 0, 76, 45
2, 21024, Note_on_c, 0, 76, 0
2, 21024, Note_on_c, 0, 78, 45
2, 21118, Note_on_c, 0, 78, 0
2, 21120, Note_on_c, 0, 79, 45
2, 21216, Note_on_c, 0, 79, 0
2, 21216, Note_on_c, 0, 83, 45
2, 21312, Note_on_c, 0, 83, 0
2, 21312, Note_on_c, 0, 79, 45
2, 21408, Note_on_c, 0, 79, 0
2, 21408, Note_on_c, 0, 74, 45
2, 21502, Note_on_c, 0, 74, 0
2, 21504, Note_on_c, 0, 76, 45
2, 21600, Note_on_c, 0, 76, 0
2, 21600, Note_on_c, 0, 78, 45
2, 21696, Note_on_c, 0, 78, 0
2, 21696, Note_on_c, 0, 79, 45
2, 21792, Note_on_c, 0, 79, 0
2, 21792, Note_on_c, 0, 80, 45
2, 21886, Note_on_c, 0, 80, 0
2, 21888, Note_on_c, 0, 81, 45
2, 21984, Note_on_c, 0, 81, 0
2, 21984, Note_on_c, 0, 83, 45
2, 22080, Note_on_c, 0, 83, 0
2, 22080, Note_on_c, 0, 84, 45
2, 22176, Note_on_c, 0, 84, 0
2, 22176, Note_on_c, 0, 81, 45
2, 22270, Note_on_c, 0, 81, 0
2, 22272, Note_on_c, 0, 79, 45
2, 22368, Note_on_c, 0, 79, 0
2, 22368, Note_on_c, 0, 78, 45
2, 22464, Note_on_c, 0, 78, 0
2, 22464, Note_on_c, 0, 76, 45
2, 22560, Note_on_c, 0, 76, 0
2, 22560, Note_on_c, 0, 78, 45
2, 22654, Note_on_c, 0, 78, 0
2, 22656, Note_on_c, 0, 79, 45
2, 22752, Note_on_c, 0, 79, 0
2, 22752, Note_on_c, 0, 86, 45
2, 22848, Note_on_c, 0, 86, 0
2, 22848, Note_on_c, 0, 84, 45
2, 22944, Note_on_c, 0, 84, 0
2, 22944, Note_on_c, 0, 83, 45
2, 23038, Note_on_c, 0, 83, 0
2, 23040, Note_on_c, 0, 76, 45
2, 23040, Note_on_c, 0, 83, 45
2, 23136, Note_on_c, 0, 83, 0
2, 23136, Note_on_c, 0, 81, 45
2, 23232, Note_on_c, 0, 81, 0
2, 23232, Note_on_c, 0, 84, 45
2, 23296, Note_on_c, 0, 76, 0
2, 23328, Note_on_c, 0, 84, 0
2, 23328, Note_on_c, 0, 72, 45
2, 23328, Note_on_c, 0, 81, 45
2, 23422, Note_on_c, 0, 72, 0
2, 23422, Note_on_c, 0, 81, 0
2, 23424, Note_on_c, 0, 72, 45
2, 23424, Note_on_c, 0, 81, 45
2, 23520, Note_on_c, 0, 72, 0
2, 23520, Note_on_c, 0, 81, 0
2, 23520, Note_on_c, 0, 71, 45
2, 23520, Note_on_c, 0, 79, 45
2, 23614, Note_on_c, 0, 71, 0
2, 23614, Note_on_c, 0, 79, 0
2, 23616, Note_on_c, 0, 71, 45
2, 23616, Note_on_c, 0, 79, 45
2, 23712, Note_on_c, 0, 71, 0
2, 23712, Note_on_c, 0, 79, 0
2, 23712, Note_on_c, 0, 69, 45
2, 23712, Note_on_c, 0, 78, 45
2, 23806, Note_on_c, 0, 69, 0
2, 23806, Note_on_c, 0, 78, 0
2, 23808, Note_on_c, 0, 71, 45
2, 23808, Note_on_c, 0, 79, 45
2, 23968, Note_on_c, 0, 71, 0
2, 23968, Note_on_c, 0, 79, 0
2, 24096, Note_on_c, 0, 74, 92
2, 24096, Note_on_c, 0, 83, 92
2, 24128, Note_on_c, 0, 74, 0
2, 24128, Note_on_c, 0, 83, 0
2, 24192, Note_on_c, 0, 74, 92
2, 24192, Note_on_c, 0, 83, 92
2, 24224, Note_on_c, 0, 74, 0
2, 24224, Note_on_c, 0, 83, 0
2, 24288, Note_on_c, 0, 74, 92
2, 24288, Note_on_c, 0, 83, 92
2, 24320, Note_on_c, 0, 74, 0
2, 24320, Note_on_c, 0, 83, 0
2, 24384, Note_on_c, 0, 74, 92
2, 24384, Note_on_c, 0, 83, 92
2, 24416, Note_on_c, 0, 74, 0
2, 24416, Note_on_c, 0, 83, 0
2, 24480, Note_on_c, 0, 74, 92
2, 24480, Note_on_c, 0, 83, 92
2, 24512, Note_on_c, 0, 74, 0
2, 24512, Note_on_c, 0, 83, 0
2, 24576, Note_on_c, 0, 74, 92
2, 24576, Note_on_c, 0, 86, 92
2, 24672, Note_on_c, 0, 74, 0
2, 24672, Note_on_c, 0, 86, 0
2, 24672, Note_on_c, 0, 85, 92
2, 24768, Note_on_c, 0, 85, 0
2, 24768, Note_on_c, 0, 84, 92
2, 24862, Note_on_c, 0, 84, 0
2, 24864, Note_on_c, 0, 81, 45
2, 24896, Note_on_c, 0, 81, 0
2, 24960, Note_on_c, 0, 72, 45
2, 24960, Note_on_c, 0, 78, 45
2, 24992, Note_on_c, 0, 72, 0
2, 24992, Note_on_c, 0, 78, 0
2, 25056, Note_on_c, 0, 72, 45
2, 25056, Note_on_c, 0, 78, 45
2, 25088, Note_on_c, 0, 72, 0
2, 25088, Note_on_c, 0, 78, 0
2, 25152, Note_on_c, 0, 72, 45
2, 25152, Note_on_c, 0, 78, 45
2, 25184, Note_on_c, 0, 72, 0
2, 25184, Note_on_c, 0, 78, 0
2, 25248, Note_on_c, 0, 72, 45
2, 25248, Note_on_c, 0, 78, 45
2, 25280, Note_on_c, 0, 72, 0
2, 25280, Note_on_c, 0, 78, 0
2, 25344, Note_on_c, 0, 71, 45
2, 25344, Note_on_c, 0, 78, 45
2, 25440, Note_on_c, 0, 78, 0
2, 25440, Note_on_c, 0, 79, 45
2, 25504, Note_on_c, 0, 71, 0
2, 25536, Note_on_c, 0, 79, 0
2, 25536, Note_on_c, 0, 74, 45
2, 25630, Note_on_c, 0, 74, 0
2, 25632, Note_on_c, 0, 74, 92
2, 25632, Note_on_c, 0, 83, 92
2, 25664, Note_on_c, 0, 74, 0
2, 25664, Note_on_c, 0, 83, 0
2, 25728, Note_on_c, 0, 74, 92
2, 25728, Note_on_c, 0, 83, 92
2, 25760, Note_on_c, 0, 74, 0
2, 25760, Note_on_c, 0, 83, 0
2, 25824, Note_on_c, 0, 74, 92
2, 25824, Note_on_c, 0, 83, 92
2, 25856, Note_on_c, 0, 74, 0
2, 25856, Note_on_c, 0, 83, 0
2, 25920, Note_on_c, 0, 74, 92
2, 25920, Note_on_c, 0, 83, 92
2, 25952, Note_on_c, 0, 74, 0
2, 25952, Note_on_c, 0, 83, 0
2, 26016, Note_on_c, 0, 74, 92
2, 26016, Note_on_c, 0, 83, 92
2, 26048, Note_on_c, 0, 74, 0
2, 26048, Note_on_c, 0, 83, 0
2, 26112, Note_on_c, 0, 74, 92
2, 26112, Note_on_c, 0, 86, 92
2, 26208, Note_on_c, 0, 74, 0
2, 26208, Note_on_c, 0, 86, 0
2, 26208, Note_on_c, 0, 85, 92
2, 26304, Note_on_c, 0, 85, 0
2, 26304, Note_on_c, 0, 84, 92
2, 26398, Note_on_c, 0, 84, 0
2, 26400, Note_on_c, 0, 81, 45
2, 26432, Note_on_c, 0, 81, 0
2, 26496, Note_on_c, 0, 72, 45
2, 26496, Note_on_c, 0, 78, 45
2, 26528, Note_on_c, 0, 72, 0
2, 26528, Note_on_c, 0, 78, 0
2, 26592, Note_on_c, 0, 72, 45
2, 26592, Note_on_c, 0, 78, 45
2, 26624, Note_on_c, 0, 72, 0
2, 26624, Note_on_c, 0, 78, 0
2, 26688, Note_on_c, 0, 72, 45
2, 26688, Note_on_c, 0, 78, 45
2, 26720, Note_on_c, 0, 72, 0
2, 26720, Note_on_c, 0, 78, 0
2, 26784, Note_on_c, 0, 72, 45
2, 26784, Note_on_c, 0, 78, 45
2, 26816, Note_on_c, 0, 72, 0
2, 26816, Note_on_c, 0, 78, 0
2, 26880, Note_on_c, 0, 71, 45
2, 26880, Note_on_c, 0, 79, 45
2, 26976, Note_on_c, 0, 71, 0
2, 26976, Note_on_c, 0, 79, 0
2, 26976, Note_on_c, 0, 83, 45
2, 27072, Note_on_c, 0, 83, 0
2, 27072, Note_on_c, 0, 72, 45
2, 27072, Note_on_c, 0, 81, 45
2, 27168, Note_on_c, 0, 72, 0
2, 27168, Note_on_c, 0, 81, 0
2, 27168, Note_on_c, 0, 78, 45
2, 27262, Note_on_c, 0, 78, 0
2, 27264, Note_on_c, 0, 71, 45
2, 27264, Note_on_c, 0, 79, 45
2, 27360, Note_on_c, 0, 71, 0
2, 27360, Note_on_c, 0, 79, 0
2, 27360, Note_on_c, 0, 83, 45
2, 27456, Note_on_c, 0, 83, 0
2, 27456, Note_on_c, 0, 72, 45
2, 27456, Note_on_c, 0, 81, 45
2, 27552, Note_on_c, 0, 72, 0
2, 27552, Note_on_c, 0, 81, 0
2, 27552, Note_on_c, 0, 78, 45
2, 27646, Note_on_c, 0, 78, 0
2, 27648, Note_on_c, 0, 71, 45
2, 27648, Note_on_c, 0, 79, 45
2, 27680, Note_on_c, 0, 71, 0
2, 27680, Note_on_c, 0, 79, 0
2, 27840, Note_on_c, 0, 74, 45
2, 27840, Note_on_c, 0, 83, 45
2, 27872, Note_on_c, 0, 74, 0
2, 27872, Note_on_c, 0, 83, 0
2, 28032, Note_on_c, 0, 71, 45
2, 28032, Note_on_c, 0, 79, 45
2, 28064, Note_on_c, 0, 71, 0
2, 28064, Note_on_c, 0, 79, 0
2, 28416, Note_on_c, 0, 72, 92
2, 28576, Note_on_c, 0, 72, 0
2, 28704, Note_on_c, 0, 67, 92
2, 28736, Note_on_c, 0, 67, 0
2, 28800, Note_on_c, 0, 72, 92
2, 28960, Note_on_c, 0, 72, 0
2, 29088, Note_on_c, 0, 67, 92
2, 29120, Note_on_c, 0, 67, 0
2, 29184, Note_on_c, 0, 72, 92
2, 29216, Note_on_c, 0, 72, 0
2, 29280, Note_on_c, 0, 76, 92
2, 29312, Note_on_c, 0, 76, 0
2, 29376, Note_on_c, 0, 79, 92
2, 29408, Note_on_c, 0, 79, 0
2, 29472, Note_on_c, 0, 76, 92
2, 29504, Note_on_c, 0, 76, 0
2, 29568, Note_on_c, 0, 72, 92
2, 29728, Note_on_c, 0, 72, 0
2, 29952, Note_on_c, 0, 67, 45
2, 29952, Note_on_c, 0, 76, 45
2, 30000, Note_on_c, 0, 67, 0
2, 30000, Note_on_c, 0, 76, 0
2, 30144, Note_on_c, 0, 69, 45
2, 30144, Note_on_c, 0, 77, 45
2, 30528, Note_on_c, 0, 69, 0
2, 30528, Note_on_c, 0, 77, 0
2, 30528, Note_on_c, 0, 67, 45
2, 30528, Note_on_c, 0, 76, 45
2, 30688, Note_on_c, 0, 67, 0
2, 30688, Note_on_c, 0, 76, 0
2, 30720, Note_on_c, 0, 67, 45
2, 30720, Note_on_c, 0, 76, 45
2, 30816, Note_on_c, 0, 67, 0
2, 30816, Note_on_c, 0, 76, 0
2, 30816, Note_on_c, 0, 65, 45
2, 30816, Note_on_c, 0, 74, 45
2, 30910, Note_on_c, 0, 65, 0
2, 30910, Note_on_c, 0, 74, 0
2, 30912, Note_on_c, 0, 65, 45
2, 30912, Note_on_c, 0, 74, 45
2, 31008, Note_on_c, 0, 74, 0
2, 31008, Note_on_c, 0, 71, 45
2, 31072, Note_on_c, 0, 65, 0
2, 31102, Note_on_c, 0, 71, 0
2, 31104, Note_on_c, 0, 64, 45
2, 31104, Note_on_c, 0, 72, 45
2, 31264, Note_on_c, 0, 64, 0
2, 31264, Note_on_c, 0, 72, 0
2, 31488, Note_on_c, 0, 76, 45
2, 31488, Note_on_c, 0, 79, 45
2, 31536, Note_on_c, 0, 76, 0
2, 31536, Note_on_c, 0, 79, 0
2, 31680, Note_on_c, 0, 77, 45
2, 31680, Note_on_c, 0, 81, 45
2, 32064, Note_on_c, 0, 77, 0
2, 32064, Note_on_c, 0, 81, 0
2, 32064, Note_on_c, 0, 76, 45
2, 32064, Note_on_c, 0, 79, 45
2, 32224, Note_on_c, 0, 76, 0
2, 32224, Note_on_c, 0, 79, 0
2, 32256, Note_on_c, 0, 76, 45
2, 32256, Note_on_c, 0, 79, 45
2, 32352, Note_on_c, 0, 76, 0
2, 32352, Note_on_c, 0, 79, 0
2, 32352, Note_on_c, 0, 74, 45
2, 32352, Note_on_c, 0, 77, 45
2, 32446, Note_on_c, 0, 74, 0
2, 32446, Note_on_c, 0, 77, 0
2, 32448, Note_on_c, 0, 74, 45
2, 32448, Note_on_c, 0, 77, 45
2, 32544, Note_on_c, 0, 74, 0
2, 32544, Note_on_c, 0, 77, 0
2, 32544, Note_on_c, 0, 71, 45
2, 32544, Note_on_c, 0, 74, 45
2, 32638, Note_on_c, 0, 71, 0
2, 32638, Note_on_c, 0, 74, 0
2, 32640, Note_on_c, 0, 72, 45
2, 32640, Note_on_c, 0, 76, 45
2, 32800, Note_on_c, 0, 72, 0
2, 32800, Note_on_c, 0, 76, 0
2, 33024, Note_on_c, 0, 72, 92
2, 33024, Note_on_c, 0, 84, 92
2, 33120, Note_on_c, 0, 84, 0
2, 33120, Note_on_c, 0, 79, 92
2, 33214, Note_on_c, 0, 79, 0
2, 33216, Note_on_c, 0, 79, 92
2, 33248, Note_on_c, 0, 79, 0
2, 33312, Note_on_c, 0, 79, 92
2, 33344, Note_on_c, 0, 79, 0
2, 33408, Note_on_c, 0, 79, 92
2, 33696, Note_on_c, 0, 79, 0
2, 33696, Note_on_c, 0, 80, 92
2, 33744, Note_on_c, 0, 72, 0
2, 33790, Note_on_c, 0, 80, 0
2, 33792, Note_on_c, 0, 72, 92
2, 33792, Note_on_c, 0, 81, 92
2, 33888, Note_on_c, 0, 81, 0
2, 33888, Note_on_c, 0, 74, 92
2, 33982, Note_on_c, 0, 74, 0
2, 33984, Note_on_c, 0, 74, 92
2, 34016, Note_on_c, 0, 74, 0
2, 34080, Note_on_c, 0, 74, 92
2, 34112, Note_on_c, 0, 74, 0
2, 34128, Note_on_c, 0, 72, 0
2, 34176, Note_on_c, 0, 71, 92
2, 34176, Note_on_c, 0, 74, 92
2, 34512, Note_on_c, 0, 71, 0
2, 34512, Note_on_c, 0, 74, 0
2, 34560, Note_on_c, 0, 72, 92
2, 34560, Note_on_c, 0, 79, 92
2, 34704, Note_on_c, 0, 72, 0
2, 34704, Note_on_c, 0, 79, 0
2, 34704, Note_on_c, 0, 81, 92
2, 34750, Note_on_c, 0, 81, 0
2, 34752, Note_on_c, 0, 74, 92
2, 34752, Note_on_c, 0, 77, 92
2, 34896, Note_on_c, 0, 74, 0
2, 34896, Note_on_c, 0, 77, 0
2, 34896, Note_on_c, 0, 79, 92
2, 34942, Note_on_c, 0, 79, 0
2, 34944, Note_on_c, 0, 72, 92
2, 34944, Note_on_c, 0, 76, 92
2, 35088, Note_on_c, 0, 72, 0
2, 35088, Note_on_c, 0, 76, 0
2, 35088, Note_on_c, 0, 77, 92
2, 35134, Note_on_c, 0, 77, 0
2, 35136, Note_on_c, 0, 71, 92
2, 35136, Note_on_c, 0, 74, 92
2, 35280, Note_on_c, 0, 71, 0
2, 35280, Note_on_c, 0, 74, 0
2, 35280, Note_on_c, 0, 76, 92
2, 35326, Note_on_c, 0, 76, 0
2, 35328, Note_on_c, 0, 72, 45
2, 35488, Note_on_c, 0, 72, 0
2, 35904, Note_on_c, 0, 72, 45
2, 35904, Note_on_c, 0, 76, 45
2, 36064, Note_on_c, 0, 72, 0
2, 36064, Note_on_c, 0, 76, 0
2, 36096, Note_on_c, 0, 72, 45
2, 36096, Note_on_c, 0, 74, 45
2, 36288, Note_on_c, 0, 74, 0
2, 36288, Note_on_c, 0, 74, 45
2, 36480, Note_on_c, 0, 74, 0
2, 36480, Note_on_c, 0, 76, 45
2, 36624, Note_on_c, 0, 72, 0
2, 36672, Note_on_c, 0, 76, 0
2, 36672, Note_on_c, 0, 74, 45
2, 36672, Note_on_c, 0, 77, 45
2, 36832, Note_on_c, 0, 74, 0
2, 36832, Note_on_c, 0, 77, 0
2, 36864, Note_on_c, 0, 74, 45
2, 36864, Note_on_c, 0, 77, 45
2, 37056, Note_on_c, 0, 74, 0
2, 37056, Note_on_c, 0, 77, 0
2, 37056, Note_on_c, 0, 72, 45
2, 37056, Note_on_c, 0, 76, 45
2, 37216, Note_on_c, 0, 72, 0
2, 37216, Note_on_c, 0, 76, 0
2, 37440, Note_on_c, 0, 76, 45
2, 37440, Note_on_c, 0, 84, 45
2, 37488, Note_on_c, 0, 76, 0
2, 37488, Note_on_c, 0, 84, 0
2, 37632, Note_on_c, 0, 74, 45
2, 37632, Note_on_c, 0, 81, 45
2, 37824, Note_on_c, 0, 74, 0
2, 37824, Note_on_c, 0, 81, 0
2, 37824, Note_on_c, 0, 72, 45
2, 37824, Note_on_c, 0, 77, 45
2, 38016, Note_on_c, 0, 72, 0
2, 38016, Note_on_c, 0, 77, 0
2, 38016, Note_on_c, 0, 71, 45
2, 38016, Note_on_c, 0, 74, 45
2, 38208, Note_on_c, 0, 71, 0
2, 38208, Note_on_c, 0, 74, 0
2, 38208, Note_on_c, 0, 74, 45
2, 38208, Note_on_c, 0, 79, 45
2, 38368, Note_on_c, 0, 74, 0
2, 38368, Note_on_c, 0, 79, 0
2, 38400, Note_on_c, 0, 72, 92
2, 38560, Note_on_c, 0, 72, 0
2, 38592, Note_on_c, 0, 76, 92
2, 38688, Note_on_c, 0, 76, 0
2, 38688, Note_on_c, 0, 72, 92
2, 38782, Note_on_c, 0, 72, 0
2, 38784, Note_on_c, 0, 69, 92
2, 38944, Note_on_c, 0, 69, 0
2, 38976, Note_on_c, 0, 72, 92
2, 39072, Note_on_c, 0, 72, 0
2, 39072, Note_on_c, 0, 69, 92
2, 39166, Note_on_c, 0, 69, 0
2, 39168, Note_on_c, 0, 74, 92
2, 39328, Note_on_c, 0, 74, 0
2, 39360, Note_on_c, 0, 77, 92
2, 39456, Note_on_c, 0, 77, 0
2, 39456, Note_on_c, 0, 74, 92
2, 39550, Note_on_c, 0, 74, 0
2, 39552, Note_on_c, 0, 71, 92
2, 39712, Note_on_c, 0, 71, 0
2, 39744, Note_on_c, 0, 74, 92
2, 39840, Note_on_c, 0, 74, 0
2, 39840, Note_on_c, 0, 71, 92
2, 39934, Note_on_c, 0, 71, 0
2, 39936, Note_on_c, 0, 76, 92
2, 40096, Note_on_c, 0, 76, 0
2, 40128, Note_on_c, 0, 79, 92
2, 40224, Note_on_c, 0, 79, 0
2, 40224, Note_on_c, 0, 76, 92
2, 40318, Note_on_c, 0, 76, 0
2, 40320, Note_on_c, 0, 72, 92
2, 40480, Note_on_c, 0, 72, 0
2, 40512, Note_on_c, 0, 76, 92
2, 40608, Note_on_c, 0, 76, 0
2, 40608, Note_on_c, 0, 72, 92
2, 40702, Note_on_c, 0, 72, 0
2, 40704, Note_on_c, 0, 77, 92
2, 40864, Note_on_c, 0, 77, 0
2, 40896, Note_on_c, 0, 81, 92
2, 40992, Note_on_c, 0, 81, 0
2, 40992, Note_on_c, 0, 77, 92
2, 41086, Note_on_c, 0, 77, 0
2, 41088, Note_on_c, 0, 74, 92
2, 41248, Note_on_c, 0, 74, 0
2, 41280, Note_on_c, 0, 77, 92
2, 41376, Note_on_c, 0, 77, 0
2, 41376, Note_on_c, 0, 74, 92
2, 41470, Note_on_c, 0, 74, 0
2, 41472, Note_on_c, 0, 71, 92
2, 41568, Note_on_c, 0, 71, 0
2, 41568, Note_on_c, 0, 67, 93
2, 41664, Note_on_c, 0, 67, 0
2, 41664, Note_on_c, 0, 69, 94
2, 41760, Note_on_c, 0, 69, 0
2, 41760, Note_on_c, 0, 71, 95
2, 41854, Note_on_c, 0, 71, 0
2, 41856, Note_on_c, 0, 72, 96
2, 41952, Note_on_c, 0, 72, 0
2, 41952, Note_on_c, 0, 71, 97
2, 42048, Note_on_c, 0, 71, 0
2, 42048, Note_on_c, 0, 72, 98
2, 42144, Note_on_c, 0, 72, 0
2, 42144, Note_on_c, 0, 74, 99
2, 42238, Note_on_c, 0, 74, 0
2, 42240, Note_on_c, 0, 76, 100
2, 42336, Note_on_c, 0, 76, 0
2, 42336, Note_on_c, 0, 74, 101
2, 42432, Note_on_c, 0, 74, 0
2, 42432, Note_on_c, 0, 72, 102
2, 42528, Note_on_c, 0, 72, 0
2, 42528, Note_on_c, 0, 74, 103
2, 42622, Note_on_c, 0, 74, 0
2, 42624, Note_on_c, 0, 76, 104
2, 42720, Note_on_c, 0, 76, 0
2, 42720, Note_on_c, 0, 74, 105
2, 42816, Note_on_c, 0, 74, 0
2, 42816, Note_on_c, 0, 76, 106
2, 42912, Note_on_c, 0, 76, 0
2, 42912, Note_on_c, 0, 78, 107
2, 43006, Note_on_c, 0, 78, 0
2, 43008, Note_on_c, 0, 79, 108
2, 43102, Note_on_c, 0, 79, 0
2, 43200, Note_on_c, 0, 77, 108
2, 43200, Note_on_c, 0, 83, 108
2, 43392, Note_on_c, 0, 77, 0
2, 43392, Note_on_c, 0, 83, 0
2, 43392, Note_on_c, 0, 76, 108
2, 43392, Note_on_c, 0, 84, 108
2, 43486, Note_on_c, 0, 76, 0
2, 43486, Note_on_c, 0, 84, 0
2, 43584, Note_on_c, 0, 72, 108
2, 43584, Note_on_c, 0, 76, 108
2, 43678, Note_on_c, 0, 72, 0
2, 43678, Note_on_c, 0, 76, 0
2, 43776, Note_on_c, 0, 71, 108
2, 43776, Note_on_c, 0, 74, 108
2, 43870, Note_on_c, 0, 71, 0
2, 43870, Note_on_c, 0, 74, 0
2, 43968, Note_on_c, 0, 77, 108
2, 43968, Note_on_c, 0, 83, 108
2, 44160, Note_on_c, 0, 77, 0
2, 44160, Note_on_c, 0, 83, 0
2, 44160, Note_on_c, 0, 76, 108
2, 44160, Note_on_c, 0, 84, 108
2, 44254, Note_on_c, 0, 76, 0
2, 44254, Note_on_c, 0, 84, 0
2, 44352, Note_on_c, 0, 72, 108
2, 44352, Note_on_c, 0, 76, 108
2, 44446, Note_on_c, 0, 72, 0
2, 44446, Note_on_c, 0, 76, 0
2, 44544, Note_on_c, 0, 71, 108
2, 44544, Note_on_c, 0, 74, 108
2, 44704, Note_on_c, 0, 71, 0
2, 44704, Note_on_c, 0, 74, 0
2, 44736, Note_on_c, 0, 71, 108
2, 44736, Note_on_c, 0, 79, 108
2, 44784, Note_on_c, 0, 71, 0
2, 44784, Note_on_c, 0, 79, 0
2, 44928, Note_on_c, 0, 71, 108
2, 44928, Note_on_c, 0, 79, 108
2, 44976, Note_on_c, 0, 71, 0
2, 44976, Note_on_c, 0, 79, 0
2, 45312, Note_on_c, 0, 74, 45
2, 45696, Note_on_c, 0, 74, 0
2, 45696, Note_on_c, 0, 73, 45
2, 45696, Note_on_c, 0, 79, 45
2, 46032, Note_on_c, 0, 73, 0
2, 46032, Note_on_c, 0, 79, 0
2, 46080, Note_on_c, 0, 74, 45
2, 46080, Note_on_c, 0, 78, 45
2, 46176, Note_on_c, 0, 74, 0
2, 46176, Note_on_c, 0, 78, 0
2, 46176, Note_on_c, 0, 81, 45
2, 46272, Note_on_c, 0, 81, 0
2, 46272, Note_on_c, 0, 79, 45
2, 46368, Note_on_c, 0, 79, 0
2, 46368, Note_on_c, 0, 76, 45
2, 46462, Note_on_c, 0, 76, 0
2, 46464, Note_on_c, 0, 74, 45
2, 46624, Note_on_c, 0, 74, 0
2, 46848, Note_on_c, 0, 74, 45
2, 46848, Note_on_c, 0, 74, 45
2, 47232, Note_on_c, 0, 74, 0
2, 47232, Note_on_c, 0, 84, 45
2, 47568, Note_on_c, 0, 74, 0
2, 47568, Note_on_c, 0, 84, 0
2, 47616, Note_on_c, 0, 74, 45
2, 47616, Note_on_c, 0, 83, 45
2, 47712, Note_on_c, 0, 74, 0
2, 47712, Note_on_c, 0, 83, 0
2, 47712, Note_on_c, 0, 86, 45
2, 47808, Note_on_c, 0, 86, 0
2, 47808, Note_on_c, 0, 78, 45
2, 47808, Note_on_c, 0, 84, 45
2, 47904, Note_on_c, 0, 78, 0
2, 47904, Note_on_c, 0, 84, 0
2, 47904, Note_on_c, 0, 81, 45
2, 47998, Note_on_c, 0, 81, 0
2, 48000, Note_on_c, 0, 79, 45
2, 48160, Note_on_c, 0, 79, 0
2, 48384, Note_on_c, 0, 76, 45
2, 48480, Note_on_c, 0, 76, 0
2, 48480, Note_on_c, 0, 78, 45
2, 48576, Note_on_c, 0, 78, 0
2, 48576, Note_on_c, 0, 79, 45
2, 48672, Note_on_c, 0, 79, 0
2, 48672, Note_on_c, 0, 80, 45
2, 48766, Note_on_c, 0, 80, 0
2, 48768, Note_on_c, 0, 81, 45
2, 48864, Note_on_c, 0, 81, 0
2, 48864, Note_on_c, 0, 83, 45
2, 48960, Note_on_c, 0, 83, 0
2, 48960, Note_on_c, 0, 84, 45
2, 49056, Note_on_c, 0, 84, 0
2, 49056, Note_on_c, 0, 81, 45
2, 49150, Note_on_c, 0, 81, 0
2, 49152, Note_on_c, 0, 79, 45
2, 49248, Note_on_c, 0, 79, 0
2, 49248, Note_on_c, 0, 78, 45
2, 49344, Note_on_c, 0, 78, 0
2, 49344, Note_on_c, 0, 76, 45
2, 49440, Note_on_c, 0, 76, 0
2, 49440, Note_on_c, 0, 78, 45
2, 49534, Note_on_c, 0, 78, 0
2, 49536, Note_on_c, 0, 79, 45
2, 49632, Note_on_c, 0, 79, 0
2, 49632, Note_on_c, 0, 83, 45
2, 49728, Note_on_c, 0, 83, 0
2, 49728, Note_on_c, 0, 79, 45
2, 49824, Note_on_c, 0, 79, 0
2, 49824, Note_on_c, 0, 74, 45
2, 49918, Note_on_c, 0, 74, 0
2, 49920, Note_on_c, 0, 76, 45
2, 50016, Note_on_c, 0, 76, 0
2, 50016, Note_on_c, 0, 78, 45
2, 50112, Note_on_c, 0, 78, 0
2, 50112, Note_on_c, 0, 79, 45
2, 50208, Note_on_c, 0, 79, 0
2, 50208, Note_on_c, 0, 80, 45
2, 50302, Note_on_c, 0, 80, 0
2, 50304, Note_on_c, 0, 81, 45
2, 50400, Note_on_c, 0, 81, 0
2, 50400, Note_on_c, 0, 83, 45
2, 50496, Note_on_c, 0, 83, 0
2, 50496, Note_on_c, 0, 84, 45
2, 50592, Note_on_c, 0, 84, 0
2, 50592, Note_on_c, 0, 81, 45
2, 50686, Note_on_c, 0, 81, 0
2, 50688, Note_on_c, 0, 79, 45
2, 50784, Note_on_c, 0, 79, 0
2, 50784, Note_on_c, 0, 78, 45
2, 50880, Note_on_c, 0, 78, 0
2, 50880, Note_on_c, 0, 76, 45
2, 50976, Note_on_c, 0, 76, 0
2, 50976, Note_on_c, 0, 78, 45
2, 51070, Note_on_c, 0, 78, 0
2, 51072, Note_on_c, 0, 79, 45
2, 51168, Note_on_c, 0, 79, 0
2, 51168, Note_on_c, 0, 86, 45
2, 51264, Note_on_c, 0, 86, 0
2, 51264, Note_on_c, 0, 84, 45
2, 51360, Note_on_c, 0, 84, 0
2, 51360, Note_on_c, 0, 83, 45
2, 51454, Note_on_c, 0, 83, 0
2, 51456, Note_on_c, 0, 76, 45
2, 51456, Note_on_c, 0, 83, 45
2, 51552, Note_on_c, 0, 83, 0
2, 51552, Note_on_c, 0, 81, 45
2, 51648, Note_on_c, 0, 81, 0
2, 51648, Note_on_c, 0, 84, 45
2, 51712, Note_on_c, 0, 76, 0
2, 51744, Note_on_c, 0, 84, 0
2, 51744, Note_on_c, 0, 72, 45
2, 51744, Note_on_c, 0, 81, 45
2, 51838, Note_on_c, 0, 72, 0
2, 51838, Note_on_c, 0, 81, 0
2, 51840, Note_on_c, 0, 72, 45
2, 51840, Note_on_c, 0, 81, 45
2, 51936, Note_on_c, 0, 72, 0
2, 51936, Note_on_c, 0, 81, 0
2, 51936, Note_on_c, 0, 71, 45
2, 51936, Note_on_c, 0, 79, 45
2, 52030, Note_on_c, 0, 71, 0
2, 52030, Note_on_c, 0, 79, 0
2, 52032, Note_on_c, 0, 71, 45
2, 52032, Note_on_c, 0, 79, 45
2, 52128, Note_on_c, 0, 71, 0
2, 52128, Note_on_c, 0, 79, 0
2, 52128, Note_on_c, 0, 69, 45
2, 52128, Note_on_c, 0, 78, 45
2, 52222, Note_on_c, 0, 69, 0
2, 52222, Note_on_c, 0, 78, 0
2, 52224, Note_on_c, 0, 71, 45
2, 52224, Note_on_c, 0, 79, 45
2, 52384, Note_on_c, 0, 71, 0
2, 52384, Note_on_c, 0, 79, 0
2, 52512, Note_on_c, 0, 74, 92
2, 52512, Note_on_c, 0, 83, 92
2, 52544, Note_on_c, 0, 74, 0
2, 52544, Note_on_c, 0, 83, 0
2, 52608, Note_on_c, 0, 74, 92
2, 52608, Note_on_c, 0, 83, 92
2, 52640, Note_on_c, 0, 74, 0
2, 52640, Note_on_c, 0, 83, 0
2, 52704, Note_on_c, 0, 74, 92
2, 52704, Note_on_c, 0, 83, 92
2, 52736, Note_on_c, 0, 74, 0
2, 52736, Note_on_c, 0, 83, 0
2, 52800, Note_on_c, 0, 74, 92
2, 52800, Note_on_c, 0, 83, 92
2, 52832, Note_on_c, 0, 74, 0
2, 52832, Note_on_c, 0, 83, 0
2, 52896, Note_on_c, 0, 74, 92
2, 52896, Note_on_c, 0, 83, 92
2, 52928, Note_on_c, 0, 74, 0
2, 52928, Note_on_c, 0, 83, 0
2, 52992, Note_on_c, 0, 74, 92
2, 52992, Note_on_c, 0, 86, 92
2, 53088, Note_on_c, 0, 74, 0
2, 53088, Note_on_c, 0, 86, 0
2, 53088, Note_on_c, 0, 85, 92
2, 53184, Note_on_c, 0, 85, 0
2, 53184, Note_on_c, 0, 84, 92
2, 53278, Note_on_c, 0, 84, 0
2, 53280, Note_on_c, 0, 81, 45
2, 53312, Note_on_c, 0, 81, 0
2, 53376, Note_on_c, 0, 72, 45
2, 53376, Note_on_c, 0, 78, 45
2, 53408, Note_on_c, 0, 72, 0
2, 53408, Note_on_c, 0, 78, 0
2, 53472, Note_on_c, 0, 72, 45
2, 53472, Note_on_c, 0, 78, 45
2, 53504, Note_on_c, 0, 72, 0
2, 53504, Note_on_c, 0, 78, 0
2, 53568, Note_on_c, 0, 72, 45
2, 53568, Note_on_c, 0, 78, 45
2, 53600, Note_on_c, 0, 72, 0
2, 53600, Note_on_c, 0, 78, 0
2, 53664, Note_on_c, 0, 72, 45
2, 53664, Note_on_c, 0, 78, 45
2, 53696, Note_on_c, 0, 72, 0
2, 53696, Note_on_c, 0, 78, 0
2, 53760, Note_on_c, 0, 71, 45
2, 53760, Note_on_c, 0, 78, 45
2, 53856, Note_on_c, 0, 78, 0
2, 53856, Note_on_c, 0, 79, 45
2, 53920, Note_on_c, 0, 71, 0
2, 53952, Note_on_c, 0, 79, 0
2, 53952, Note_on_c, 0, 74, 45
2, 54046, Note_on_c, 0, 74, 0
2, 54048, Note_on_c, 0, 74, 92
2, 54048, Note_on_c, 0, 83, 92
2, 54080, Note_on_c, 0, 74, 0
2, 54080, Note_on_c, 0, 83, 0
2, 54144, Note_on_c, 0, 74, 92
2, 54144, Note_on_c, 0, 83, 92
2, 54176, Note_on_c, 0, 74, 0
2, 54176, Note_on_c, 0, 83, 0
2, 54240, Note_on_c, 0, 74, 92
2, 54240, Note_on_c, 0, 83, 92
2, 54272, Note_on_c, 0, 74, 0
2, 54272, Note_on_c, 0, 83, 0
2, 54336, Note_on_c, 0, 74, 92
2, 54336, Note_on_c, 0, 83, 92
2, 54368, Note_on_c, 0, 74, 0
2, 54368, Note_on_c, 0, 83, 0
2, 54432, Note_on_c, 0, 74, 92
2, 54432, Note_on_c, 0, 83, 92
2, 54464, Note_on_c, 0, 74, 0
2, 54464, Note_on_c, 0, 83, 0
2, 54528, Note_on_c, 0, 74, 92
2, 54528, Note_on_c, 0, 86, 92
2, 54624, Note_on_c, 0, 74, 0
2, 54624, Note_on_c, 0, 86, 0
2, 54624, Note_on_c, 0, 85, 92
2, 54720, Note_on_c, 0, 85, 0
2, 54720, Note_on_c, 0, 84, 92
2, 54814, Note_on_c, 0, 84, 0
2, 54816, Note_on_c, 0, 81, 45
2, 54848, Note_on_c, 0, 81, 0
2, 54912, Note_on_c, 0, 72, 45
2, 54912, Note_on_c, 0, 78, 45
2, 54944, Note_on_c, 0, 72, 0
2, 54944, Note_on_c, 0, 78, 0
2, 55008, Note_on_c, 0, 72, 45
2, 55008, Note_on_c, 0, 78, 45
2, 55040, Note_on_c, 0, 72, 0
2, 55040, Note_on_c, 0, 78, 0
2, 55104, Note_on_c, 0, 72, 45
2, 55104, Note_on_c, 0, 78, 45
2, 55136, Note_on_c, 0, 72, 0
2, 55136, Note_on_c, 0, 78, 0
2, 55200, Note_on_c, 0, 72, 45
2, 55200, Note_on_c, 0, 78, 45
2, 55232, Note_on_c, 0, 72, 0
2, 55232, Note_on_c, 0, 78, 0
2, 55296, Note_on_c, 0, 71, 45
2, 55296, Note_on_c, 0, 79, 45
2, 55392, Note_on_c, 0, 71, 0
2, 55392, Note_on_c, 0, 79, 0
2, 55392, Note_on_c, 0, 83, 45
2, 55488, Note_on_c, 0, 83, 0
2, 55488, Note_on_c, 0, 72, 45
2, 55488, Note_on_c, 0, 81, 45
2, 55584, Note_on_c, 0, 72, 0
2, 55584, Note_on_c, 0, 81, 0
2, 55584, Note_on_c, 0, 78, 45
2, 55678, Note_on_c, 0, 78, 0
2, 55680, Note_on_c, 0, 71, 45
2, 55680, Note_on_c, 0, 79, 45
2, 55776, Note_on_c, 0, 71, 0
2, 55776, Note_on_c, 0, 79, 0
2, 55776, Note_on_c, 0, 83, 45
2, 55872, Note_on_c, 0, 83, 0
2, 55872, Note_on_c, 0, 72, 45
2, 55872, Note_on_c, 0, 81, 45
2, 55968, Note_on_c, 0, 72, 0
2, 55968, Note_on_c, 0, 81, 0
2, 55968, Note_on_c, 0, 78, 45
2, 56062, Note_on_c, 0, 78, 0
2, 56064, Note_on_c, 0, 71, 45
2, 56064, Note_on_c, 0, 79, 45
2, 56096, Note_on_c, 0, 71, 0
2, 56096, Note_on_c, 0, 79, 0
2, 56256, Note_on_c, 0, 74, 45
2, 56256, Note_on_c, 0, 83, 45
2, 56288, Note_on_c, 0, 74, 0
2, 56288, Note_on_c, 0, 83, 0
2, 56448, Note_on_c, 0, 71, 45
2, 56448, Note_on_c, 0, 79, 45
2, 56480, Note_on_c, 0, 71, 0
2, 56480, Note_on_c, 0, 79, 0
2, 56832, Note_on_c, 0, 79, 92
2, 57216, Note_on_c, 0, 79, 0
2, 57216, Note_on_c, 0, 82, 92
2, 57552, Note_on_c, 0, 82, 0
2, 57600, Note_on_c, 0, 73, 92
2, 57648, Note_on_c, 0, 73, 0
2, 57792, Note_on_c, 0, 74, 92
2, 57840, Note_on_c, 0, 74, 0
2, 58368, Note_on_c, 0, 69, 45
2, 58368, Note_on_c, 0, 77, 45
2, 58416, Note_on_c, 0, 69, 0
2, 58416, Note_on_c, 0, 77, 0
2, 58560, Note_on_c, 0, 70, 45
2, 58560, Note_on_c, 0, 79, 45
2, 58944, Note_on_c, 0, 70, 0
2, 58944, Note_on_c, 0, 79, 0
2, 58944, Note_on_c, 0, 69, 45
2, 58944, Note_on_c, 0, 77, 45
2, 59104, Note_on_c, 0, 69, 0
2, 59104, Note_on_c, 0, 77, 0
2, 59136, Note_on_c, 0, 67, 45
2, 59136, Note_on_c, 0, 77, 45
2, 59232, Note_on_c, 0, 67, 0
2, 59232, Note_on_c, 0, 77, 0
2, 59232, Note_on_c, 0, 76, 45
2, 59326, Note_on_c, 0, 76, 0
2, 59328, Note_on_c, 0, 67, 45
2, 59328, Note_on_c, 0, 76, 45
2, 59424, Note_on_c, 0, 67, 0
2, 59424, Note_on_c, 0, 76, 0
2, 59424, Note_on_c, 0, 73, 45
2, 59518, Note_on_c, 0, 73, 0
2, 59520, Note_on_c, 0, 65, 45
2, 59520, Note_on_c, 0, 74, 45
2, 59614, Note_on_c, 0, 65, 0
2, 59680, Note_on_c, 0, 74, 0
2, 59904, Note_on_c, 0, 77, 45
2, 60288, Note_on_c, 0, 77, 0
2, 60288, Note_on_c, 0, 80, 45
2, 60624, Note_on_c, 0, 80, 0
2, 60672, Note_on_c, 0, 71, 45
2, 60720, Note_on_c, 0, 71, 0
2, 60864, Note_on_c, 0, 72, 45
2, 60912, Note_on_c, 0, 72, 0
2, 61440, Note_on_c, 0, 67, 45
2, 61440, Note_on_c, 0, 76, 45
2, 61488, Note_on_c, 0, 67, 0
2, 61488, Note_on_c, 0, 76, 0
2, 61632, Note_on_c, 0, 69, 45
2, 61632, Note_on_c, 0, 77, 45
2, 62016, Note_on_c, 0, 69, 0
2, 62016, Note_on_c, 0, 77, 0
2, 62016, Note_on_c, 0, 67, 45
2, 62016, Note_on_c, 0, 76, 45
2, 62176, Note_on_c, 0, 67, 0
2, 62176, Note_on_c, 0, 76, 0
2, 62208, Note_on_c, 0, 65, 45
2, 62208, Note_on_c, 0, 76, 45
2, 62304, Note_on_c, 0, 65, 0
2, 62304, Note_on_c, 0, 76, 0
2, 62304, Note_on_c, 0, 74, 45
2, 62398, Note_on_c, 0, 74, 0
2, 62400, Note_on_c, 0, 65, 45
2, 62400, Note_on_c, 0, 74, 45
2, 62496, Note_on_c, 0, 65, 0
2, 62496, Note_on_c, 0, 74, 0
2, 62496, Note_on_c, 0, 71, 45
2, 62590, Note_on_c, 0, 71, 0
2, 62592, Note_on_c, 0, 64, 45
2, 62592, Note_on_c, 0, 72, 45
2, 62686, Note_on_c, 0, 64, 0
2, 62752, Note_on_c, 0, 72, 0
2, 63744, Note_on_c, 0, 84, 92
2, 64222, Note_on_c, 0, 84, 0
2, 64224, Note_on_c, 0, 83, 92
2, 64320, Note_on_c, 0, 83, 0
2, 64320, Note_on_c, 0, 84, 92
2, 64416, Note_on_c, 0, 84, 0
2, 64416, Note_on_c, 0, 82, 92
2, 64510, Note_on_c, 0, 82, 0
2, 64512, Note_on_c, 0, 77, 92
2, 64512, Note_on_c, 0, 81, 92
2, 64990, Note_on_c, 0, 77, 0
2, 64990, Note_on_c, 0, 81, 0
2, 64992, Note_on_c, 0, 76, 92
2, 64992, Note_on_c, 0, 80, 92
2, 65088, Note_on_c, 0, 76, 0
2, 65088, Note_on_c, 0, 80, 0
2, 65088, Note_on_c, 0, 77, 92
2, 65088, Note_on_c, 0, 81, 92
2, 65184, Note_on_c, 0, 77, 0
2, 65184, Note_on_c, 0, 81, 0
2, 65184, Note_on_c, 0, 76, 92
2, 65184, Note_on_c, 0, 79, 92
2, 65278, Note_on_c, 0, 76, 0
2, 65278, Note_on_c, 0, 79, 0
2, 65280, Note_on_c, 0, 74, 92
2, 65280, Note_on_c, 0, 77, 92
2, 65376, Note_on_c, 0, 74, 0
2, 65376, Note_on_c, 0, 77, 0
2, 65376, Note_on_c, 0, 73, 92
2, 65376, Note_on_c, 0, 76, 92
2, 65472, Note_on_c, 0, 73, 0
2, 65472, Note_on_c, 0, 76, 0
2, 65472, Note_on_c, 0, 74, 92
2, 65472, Note_on_c, 0, 77, 92
2, 65568, Note_on_c, 0, 74, 0
2, 65568, Note_on_c, 0, 77, 0
2, 65568, Note_on_c, 0, 73, 92
2, 65568, Note_on_c, 0, 76, 92
2, 65662, Note_on_c, 0, 73, 0
2, 65662, Note_on_c, 0, 76, 0
2, 65664, Note_on_c, 0, 74, 92
2, 65664, Note_on_c, 0, 77, 92
2, 65760, Note_on_c, 0, 77, 0
2, 65760, Note_on_c, 0, 76, 92
2, 65856, Note_on_c, 0, 76, 0
2, 65856, Note_on_c, 0, 77, 92
2, 65920, Note_on_c, 0, 74, 0
2, 65952, Note_on_c, 0, 77, 0
2, 65952, Note_on_c, 0, 73, 92
2, 65952, Note_on_c, 0, 76, 92
2, 66046, Note_on_c, 0, 73, 0
2, 66046, Note_on_c, 0, 76, 0
2, 66048, Note_on_c, 0, 74, 92
2, 66048, Note_on_c, 0, 74, 92
2, 66208, Note_on_c, 0, 74, 0
2, 66240, Note_on_c, 0, 74, 0
2, 66240, Note_on_c, 0, 69, 92
2, 66240, Note_on_c, 0, 75, 92
2, 66432, Note_on_c, 0, 75, 0
2, 66432, Note_on_c, 0, 74, 92
2, 66576, Note_on_c, 0, 69, 0
2, 66624, Note_on_c, 0, 74, 0
2, 66624, Note_on_c, 0, 69, 92
2, 66624, Note_on_c, 0, 72, 92
2, 66784, Note_on_c, 0, 69, 0
2, 66784, Note_on_c, 0, 72, 0
2, 66816, Note_on_c, 0, 67, 92
2, 66816, Note_on_c, 0, 71, 92
2, 66976, Note_on_c, 0, 67, 0
2, 66976, Note_on_c, 0, 71, 0
2, 67200, Note_on_c, 0, 67, 92
2, 67248, Note_on_c, 0, 67, 0
2, 67392, Note_on_c, 0, 79, 127
2, 67678, Note_on_c, 0, 79, 0
2, 67680, Note_on_c, 0, 78, 92
2, 67776, Note_on_c, 0, 78, 0
2, 67776, Note_on_c, 0, 79, 92
2, 67872, Note_on_c, 0, 79, 0
2, 67872, Note_on_c, 0, 77, 92
2, 67966, Note_on_c, 0, 77, 0
2, 67968, Note_on_c, 0, 76, 92
2, 68064, Note_on_c, 0, 78, 92
2, 68128, Note_on_c, 0, 76, 0
2, 68160, Note_on_c, 0, 78, 0
2, 68160, Note_on_c, 0, 72, 92
2, 68160, Note_on_c, 0, 79, 92
2, 68256, Note_on_c, 0, 79, 0
2, 68256, Note_on_c, 0, 78, 92
2, 68320, Note_on_c, 0, 72, 0
2, 68350, Note_on_c, 0, 78, 0
2, 68352, Note_on_c, 0, 71, 92
2, 68352, Note_on_c, 0, 79, 92
2, 68512, Note_on_c, 0, 71, 0
2, 68512, Note_on_c, 0, 79, 0
2, 68736, Note_on_c, 0, 67, 92
2, 68784, Note_on_c, 0, 67, 0
2, 68928, Note_on_c, 0, 79, 127
2, 69214, Note_on_c, 0, 79, 0
2, 69216, Note_on_c, 0, 78, 92
2, 69312, Note_on_c, 0, 78, 0
2, 69312, Note_on_c, 0, 79, 92
2, 69408, Note_on_c, 0, 79, 0
2, 69408, Note_on_c, 0, 77, 92
2, 69502, Note_on_c, 0, 77, 0
2, 69504, Note_on_c, 0, 75, 92
2, 69600, Note_on_c, 0, 78, 92
2, 69664, Note_on_c, 0, 75, 0
2, 69696, Note_on_c, 0, 78, 0
2, 69696, Note_on_c, 0, 72, 92
2, 69696, Note_on_c, 0, 79, 92
2, 69792, Note_on_c, 0, 79, 0
2, 69792, Note_on_c, 0, 78, 92
2, 69856, Note_on_c, 0, 72, 0
2, 69886, Note_on_c, 0, 78, 0
2, 69888, Note_on_c, 0, 71, 92
2, 69888, Note_on_c, 0, 79, 92
2, 69982, Note_on_c, 0, 71, 0
2, 69982, Note_on_c, 0, 79, 0
2, 70080, Note_on_c, 0, 77, 92
2, 70080, Note_on_c, 0, 83, 92
2, 70272, Note_on_c, 0, 77, 0
2, 70272, Note_on_c, 0, 83, 0
2, 70272, Note_on_c, 0, 76, 92
2, 70272, Note_on_c, 0, 84, 92
2, 70366, Note_on_c, 0, 76, 0
2, 70366, Note_on_c, 0, 84, 0
2, 70464, Note_on_c, 0, 72, 92
2, 70464, Note_on_c, 0, 76, 92
2, 70656, Note_on_c, 0, 72, 0
2, 70656, Note_on_c, 0, 76, 0
2, 70656, Note_on_c, 0, 71, 92
2, 70656, Note_on_c, 0, 74, 92
2, 70750, Note_on_c, 0, 71, 0
2, 70750, Note_on_c, 0, 74, 0
2, 70848, Note_on_c, 0, 77, 92
2, 70848, Note_on_c, 0, 83, 92
2, 71040, Note_on_c, 0, 77, 0
2, 71040, Note_on_c, 0, 83, 0
2, 71040, Note_on_c, 0, 76, 92
2, 71040, Note_on_c, 0, 84, 92
2, 71134, Note_on_c, 0, 76, 0
2, 71134, Note_on_c, 0, 84, 0
2, 71232, Note_on_c, 0, 72, 92
2, 71232, Note_on_c, 0, 76, 92
2, 71424, Note_on_c, 0, 72, 0
2, 71424, Note_on_c, 0, 76, 0
2, 71424, Note_on_c, 0, 71, 92
2, 71424, Note_on_c, 0, 74, 92
2, 71584, Note_on_c, 0, 71, 0
2, 71584, Note_on_c, 0, 74, 0
2, 71616, Note_on_c, 0, 71, 92
2, 71616, Note_on_c, 0, 79, 92
2, 71664, Note_on_c, 0, 71, 0
2, 71664, Note_on_c, 0, 79, 0
2, 71808, Note_on_c, 0, 71, 92
2, 71808, Note_on_c, 0, 79, 92
2, 71856, Note_on_c, 0, 71, 0
2, 71856, Note_on_c, 0, 79, 0
2, 72192, Note_on_c, 0, 72, 92
2, 72352, Note_on_c, 0, 72, 0
2, 72480, Note_on_c, 0, 67, 92
2, 72512, Note_on_c, 0, 67, 0
2, 72576, Note_on_c, 0, 72, 92
2, 72736, Note_on_c, 0, 72, 0
2, 72864, Note_on_c, 0, 67, 92
2, 72896, Note_on_c, 0, 67, 0
2, 72960, Note_on_c, 0, 72, 92
2, 72992, Note_on_c, 0, 72, 0
2, 73056, Note_on_c, 0, 76, 92
2, 73088, Note_on_c, 0, 76, 0
2, 73152, Note_on_c, 0, 79, 92
2, 73184, Note_on_c, 0, 79, 0
2, 73248, Note_on_c, 0, 76, 92
2, 73280, Note_on_c, 0, 76, 0
2, 73344, Note_on_c, 0, 72, 92
2, 73504, Note_on_c, 0, 72, 0
2, 73728, Note_on_c, 0, 67, 45
2, 73728, Note_on_c, 0, 76, 45
2, 73776, Note_on_c, 0, 67, 0
2, 73776, Note_on_c, 0, 76, 0
2, 73920, Note_on_c, 0, 69, 45
2, 73920, Note_on_c, 0, 77, 45
2, 74304, Note_on_c, 0, 69, 0
2, 74304, Note_on_c, 0, 77, 0
2, 74304, Note_on_c, 0, 67, 45
2, 74304, Note_on_c, 0, 76, 45
2, 74464, Note_on_c, 0, 67, 0
2, 74464, Note_on_c, 0, 76, 0
2, 74496, Note_on_c, 0, 67, 45
2, 74496, Note_on_c, 0, 76, 45
2, 74592, Note_on_c, 0, 67, 0
2, 74592, Note_on_c, 0, 76, 0
2, 74592, Note_on_c, 0, 65, 45
2, 74592, Note_on_c, 0, 74, 45
2, 74686, Note_on_c, 0, 65, 0
2, 74686, Note_on_c, 0, 74, 0
2, 74688, Note_on_c, 0, 65, 45
2, 74688, Note_on_c, 0, 74, 45
2, 74784, Note_on_c, 0, 74, 0
2, 74784, Note_on_c, 0, 71, 45
2, 74848, Note_on_c, 0, 65, 0
2, 74878, Note_on_c, 0, 71, 0
2, 74880, Note_on_c, 0, 64, 45
2, 74880, Note_on_c, 0, 72, 45
2, 75040, Note_on_c, 0, 64, 0
2, 75040, Note_on_c, 0, 72, 0
2, 75264, Note_on_c, 0, 76, 45
2, 75264, Note_on_c, 0, 79, 45
2, 75312, Note_on_c, 0, 76, 0
2, 75312, Note_on_c, 0, 79, 0
2, 75456, Note_on_c, 0, 77, 45
2, 75456, Note_on_c, 0, 81, 45
2, 75840, Note_on_c, 0, 77, 0
2, 75840, Note_on_c, 0, 81, 0
2, 75840, Note_on_c, 0, 76, 45
2, 75840, Note_on_c, 0, 79, 45
2, 76000, Note_on_c, 0, 76, 0
2, 76000, Note_on_c, 0, 79, 0
2, 76032, Note_on_c, 0, 76, 45
2, 76032, Note_on_c, 0, 79, 45
2, 76128, Note_on_c, 0, 76, 0
2, 76128, Note_on_c, 0, 79, 0
2, 76128, Note_on_c, 0, 74, 45
2, 76128, Note_on_c, 0, 77, 45
2, 76222, Note_on_c, 0, 74, 0
2, 76222, Note_on_c, 0, 77, 0
2, 76224, Note_on_c, 0, 74, 45
2, 76224, Note_on_c, 0, 77, 45
2, 76320, Note_on_c, 0, 74, 0
2, 76320, Note_on_c, 0, 77, 0
2, 76320, Note_on_c, 0, 71, 45
2, 76320, Note_on_c, 0, 74, 45
2, 76414, Note_on_c, 0, 71, 0
2, 76414, Note_on_c, 0, 74, 0
2, 76416, Note_on_c, 0, 72, 45
2, 76416, Note_on_c, 0, 76, 45
2, 76576, Note_on_c, 0, 72, 0
2, 76576, Note_on_c, 0, 76, 0
2, 76800, Note_on_c, 0, 72, 92
2, 76800, Note_on_c, 0, 84, 92
2, 76896, Note_on_c, 0, 84, 0
2, 76896, Note_on_c, 0, 79, 92
2, 76990, Note_on_c, 0, 79, 0
2, 76992, Note_on_c, 0, 79, 92
2, 77024, Note_on_c, 0, 79, 0
2, 77088, Note_on_c, 0, 79, 92
2, 77120, Note_on_c, 0, 79, 0
2, 77184, Note_on_c, 0, 79, 92
2, 77472, Note_on_c, 0, 79, 0
2, 77472, Note_on_c, 0, 80, 92
2, 77520, Note_on_c, 0, 72, 0
2, 77566, Note_on_c, 0, 80, 0
2, 77568, Note_on_c, 0, 72, 92
2, 77568, Note_on_c, 0, 81, 92
2, 77664, Note_on_c, 0, 81, 0
2, 77664, Note_on_c, 0, 74, 92
2, 77758, Note_on_c, 0, 74, 0
2, 77760, Note_on_c, 0, 74, 92
2, 77792, Note_on_c, 0, 74, 0
2, 77856, Note_on_c, 0, 74, 92
2, 77888, Note_on_c, 0, 74, 0
2, 77904, Note_on_c, 0, 72, 0
2, 77952, Note_on_c, 0, 71, 92
2, 77952, Note_on_c, 0, 74, 92
2, 78288, Note_on_c, 0, 71, 0
2, 78288, Note_on_c, 0, 74, 0
2, 78336, Note_on_c, 0, 72, 92
2, 78336, Note_on_c, 0, 79, 92
2, 78480, Note_on_c, 0, 72, 0
2, 78480, Note_on_c, 0, 79, 0
2, 78480, Note_on_c, 0, 81, 92
2, 78526, Note_on_c, 0, 81, 0
2, 78528, Note_on_c, 0, 74, 92
2, 78528, Note_on_c, 0, 77, 92
2, 78672, Note_on_c, 0, 74, 0
2, 78672, Note_on_c, 0, 77, 0
2, 78672, Note_on_c, 0, 79, 92
2, 78718, Note_on_c, 0, 79, 0
2, 78720, Note_on_c, 0, 72, 92
2, 78720, Note_on_c, 0, 76, 92
2, 78864, Note_on_c, 0, 72, 0
2, 78864, Note_on_c, 0, 76, 0
2, 78864, Note_on_c, 0, 77, 92
2, 78910, Note_on_c, 0, 77, 0
2, 78912, Note_on_c, 0, 71, 92
2, 78912, Note_on_c, 0, 74, 92
2, 79056, Note_on_c, 0, 71, 0
2, 79056, Note_on_c, 0, 74, 0
2, 79056, Note_on_c, 0, 76, 92
2, 79102, Note_on_c, 0, 76, 0
2, 79104, Note_on_c, 0, 72, 45
2, 79264, Note_on_c, 0, 72, 0
2, 79680, Note_on_c, 0, 72, 45
2, 79680, Note_on_c, 0, 76, 45
2, 79840, Note_on_c, 0, 72, 0
2, 79840, Note_on_c, 0, 76, 0
2, 79872, Note_on_c, 0, 72, 45
2, 79872, Note_on_c, 0, 74, 45
2, 80064, Note_on_c, 0, 74, 0
2, 80064, Note_on_c, 0, 74, 45
2, 80256, Note_on_c, 0, 74, 0
2, 80256, Note_on_c, 0, 76, 45
2, 80400, Note_on_c, 0, 72, 0
2, 80448, Note_on_c, 0, 76, 0
2, 80448, Note_on_c, 0, 74, 45
2, 80448, Note_on_c, 0, 77, 45
2, 80608, Note_on_c, 0, 74, 0
2, 80608, Note_on_c, 0, 77, 0
2, 80640, Note_on_c, 0, 74, 45
2, 80640, Note_on_c, 0, 77, 45
2, 80832, Note_on_c, 0, 74, 0
2, 80832, Note_on_c, 0, 77, 0
2, 80832, Note_on_c, 0, 72, 45
2, 80832, Note_on_c, 0, 76, 45
2, 80992, Note_on_c, 0, 72, 0
2, 80992, Note_on_c, 0, 76, 0
2, 81216, Note_on_c, 0, 76, 45
2, 81216, Note_on_c, 0, 84, 45
2, 81264, Note_on_c, 0, 76, 0
2, 81264, Note_on_c, 0, 84, 0
2, 81408, Note_on_c, 0, 74, 45
2, 81408, Note_on_c, 0, 81, 45
2, 81600, Note_on_c, 0, 74, 0
2, 81600, Note_on_c, 0, 81, 0
2, 81600, Note_on_c, 0, 72, 45
2, 81600, Note_on_c, 0, 77, 45
2, 81792, Note_on_c, 0, 72, 0
2, 81792, Note_on_c, 0, 77, 0
2, 81792, Note_on_c, 0, 71, 45
2, 81792, Note_on_c, 0, 74, 45
2, 81984, Note_on_c, 0, 71, 0
2, 81984, Note_on_c, 0, 74, 0
2, 81984, Note_on_c, 0, 74, 45
2, 81984, Note_on_c, 0, 79, 45
2, 82144, Note_on_c, 0, 74, 0
2, 82144, Note_on_c, 0, 79, 0
2, 82176, Note_on_c, 0, 72, 92
2, 82336, Note_on_c, 0, 72, 0
2, 82368, Note_on_c, 0, 76, 92
2, 82464, Note_on_c, 0, 76, 0
2, 82464, Note_on_c, 0, 72, 92
2, 82558, Note_on_c, 0, 72, 0
2, 82560, Note_on_c, 0, 69, 92
2, 82720, Note_on_c, 0, 69, 0
2, 82752, Note_on_c, 0, 72, 92
2, 82848, Note_on_c, 0, 72, 0
2, 82848, Note_on_c, 0, 69, 92
2, 82942, Note_on_c, 0, 69, 0
2, 82944, Note_on_c, 0, 74, 92
2, 83104, Note_on_c, 0, 74, 0
2, 83136, Note_on_c, 0, 77, 92
2, 83232, Note_on_c, 0, 77, 0
2, 83232, Note_on_c, 0, 74, 92
2, 83326, Note_on_c, 0, 74, 0
2, 83328, Note_on_c, 0, 71, 92
2, 83488, Note_on_c, 0, 71, 0
2, 83520, Note_on_c, 0, 74, 92
2, 83616, Note_on_c, 0, 74, 0
2, 83616, Note_on_c, 0, 71, 92
2, 83710, Note_on_c, 0, 71, 0
2, 83712, Note_on_c, 0, 76, 92
2, 83872, Note_on_c, 0, 76, 0
2, 83904, Note_on_c, 0, 79, 92
2, 84000, Note_on_c, 0, 79, 0
2, 84000, Note_on_c, 0, 76, 92
2, 84094, Note_on_c, 0, 76, 0
2, 84096, Note_on_c, 0, 72, 92
2, 84256, Note_on_c, 0, 72, 0
2, 84288, Note_on_c, 0, 76, 92
2, 84384, Note_on_c, 0, 76, 0
2, 84384, Note_on_c, 0, 72, 92
2, 84478, Note_on_c, 0, 72, 0
2, 84480, Note_on_c, 0, 77, 92
2, 84640, Note_on_c, 0, 77, 0
2, 84672, Note_on_c, 0, 81, 92
2, 84768, Note_on_c, 0, 81, 0
2, 84768, Note_on_c, 0, 77, 92
2, 84862, Note_on_c, 0, 77, 0
2, 84864, Note_on_c, 0, 74, 92
2, 85024, Note_on_c, 0, 74, 0
2, 85056, Note_on_c, 0, 77, 92
2, 85152, Note_on_c, 0, 77, 0
2, 85152, Note_on_c, 0, 74, 92
2, 85246, Note_on_c, 0, 74, 0
2, 85248, Note_on_c, 0, 71, 92
2, 85344, Note_on_c, 0, 71, 0
2, 85344, Note_on_c, 0, 67, 93
2, 85440, Note_on_c, 0, 67, 0
2, 85440, Note_on_c, 0, 69, 94
2, 85536, Note_on_c, 0, 69, 0
2, 85536, Note_on_c, 0, 71, 95
2, 85630, Note_on_c, 0, 71, 0
2, 85632, Note_on_c, 0, 72, 96
2, 85728, Note_on_c, 0, 72, 0
2, 85728, Note_on_c, 0, 71, 97
2, 85824, Note_on_c, 0, 71, 0
2, 85824, Note_on_c, 0, 72, 98
2, 85920, Note_on_c, 0, 72, 0
2, 85920, Note_on_c, 0, 74, 99
2, 86014, Note_on_c, 0, 74, 0
2, 86016, Note_on_c, 0, 76, 100
2, 86112, Note_on_c, 0, 76, 0
2, 86112, Note_on_c, 0, 74, 101
2, 86208, Note_on_c, 0, 74, 0
2, 86208, Note_on_c, 0, 72, 102
2, 86304, Note_on_c, 0, 72, 0
2, 86304, Note_on_c, 0, 74, 103
2, 86398, Note_on_c, 0, 74, 0
2, 86400, Note_on_c, 0, 76, 104
2, 86496, Note_on_c, 0, 76, 0
2, 86496, Note_on_c, 0, 74, 105
2, 86592, Note_on_c, 0, 74, 0
2, 86592, Note_on_c, 0, 76, 106
2, 86688, Note_on_c, 0, 76, 0
2, 86688, Note_on_c, 0, 78, 107
2, 86782, Note_on_c, 0, 78, 0
2, 86784, Note_on_c, 0, 79, 108
2, 86878, Note_on_c, 0, 79, 0
2, 86976, Note_on_c, 0, 74, 108
2, 86976, Note_on_c, 0, 83, 108
2, 87168, Note_on_c, 0, 74, 0
2, 87168, Note_on_c, 0, 83, 0
2, 87168, Note_on_c, 0, 76, 108
2, 87168, Note_on_c, 0, 84, 108
2, 87262, Note_on_c, 0, 76, 0
2, 87262, Note_on_c, 0, 84, 0
2, 87360, Note_on_c, 0, 72, 108
2, 87360, Note_on_c, 0, 76, 108
2, 87392, Note_on_c, 0, 72, 0
2, 87392, Note_on_c, 0, 76, 0
2, 87552, Note_on_c, 0, 74, 108
2, 87552, Note_on_c, 0, 79, 108
2, 87584, Note_on_c, 0, 74, 0
2, 87584, Note_on_c, 0, 79, 0
2, 87744, Note_on_c, 0, 74, 108
2, 87744, Note_on_c, 0, 83, 108
2, 87936, Note_on_c, 0, 74, 0
2, 87936, Note_on_c, 0, 83, 0
2, 87936, Note_on_c, 0, 76, 108
2, 87936, Note_on_c, 0, 84, 108
2, 88030, Note_on_c, 0, 76, 0
2, 88030, Note_on_c, 0, 84, 0
2, 88128, Note_on_c, 0, 72, 108
2, 88128, Note_on_c, 0, 76, 108
2, 88160, Note_on_c, 0, 72, 0
2, 88160, Note_on_c, 0, 76, 0
2, 88320, Note_on_c, 0, 71, 108
2, 88320, Note_on_c, 0, 74, 108
2, 88368, Note_on_c, 0, 71, 0
2, 88368, Note_on_c, 0, 74, 0
2, 88512, Note_on_c, 0, 71, 108
2, 88512, Note_on_c, 0, 79, 108
2, 88560, Note_on_c, 0, 71, 0
2, 88560, Note_on_c, 0, 79, 0
2, 88704, Note_on_c, 0, 71, 108
2, 88704, Note_on_c, 0, 79, 108
2, 88752, Note_on_c, 0, 71, 0
2, 88752, Note_on_c, 0, 79, 0
2, 89088, Note_on_c, 0, 79, 45
2, 89472, Note_on_c, 0, 79, 0
2, 89472, Note_on_c, 0, 78, 45
2, 89472, Note_on_c, 0, 84, 45
2, 89808, Note_on_c, 0, 78, 0
2, 89808, Note_on_c, 0, 84, 0
2, 89856, Note_on_c, 0, 79, 45
2, 89856, Note_on_c, 0, 83, 45
2, 89952, Note_on_c, 0, 79, 0
2, 89952, Note_on_c, 0, 83, 0
2, 89952, Note_on_c, 0, 86, 45
2, 90048, Note_on_c, 0, 86, 0
2, 90048, Note_on_c, 0, 78, 45
2, 90048, Note_on_c, 0, 84, 45
2, 90144, Note_on_c, 0, 78, 0
2, 90144, Note_on_c, 0, 84, 0
2, 90144, Note_on_c, 0, 81, 45
2, 90240, Note_on_c, 0, 81, 0
2, 90240, Note_on_c, 0, 79, 45
2, 90400, Note_on_c, 0, 79, 0
2, 90624, Note_on_c, 0, 67, 45
2, 91008, Note_on_c, 0, 67, 0
2, 91008, Note_on_c, 0, 74, 45
2, 91008, Note_on_c, 0, 77, 45
2, 91344, Note_on_c, 0, 74, 0
2, 91344, Note_on_c, 0, 77, 0
2, 91392, Note_on_c, 0, 72, 45
2, 91392, Note_on_c, 0, 76, 45
2, 91488, Note_on_c, 0, 72, 0
2, 91488, Note_on_c, 0, 76, 0
2, 91488, Note_on_c, 0, 79, 45
2, 91584, Note_on_c, 0, 79, 0
2, 91584, Note_on_c, 0, 71, 45
2, 91584, Note_on_c, 0, 77, 45
2, 91680, Note_on_c, 0, 71, 0
2, 91680, Note_on_c, 0, 77, 0
2, 91680, Note_on_c, 0, 74, 45
2, 91776, Note_on_c, 0, 74, 0
2, 91776, Note_on_c, 0, 72, 45
2, 91936, Note_on_c, 0, 72, 0
2, 92160, Note_on_c, 0, 74, 45
2, 92256, Note_on_c, 0, 74, 0
2, 92256, Note_on_c, 0, 73, 45
2, 92352, Note_on_c, 0, 73, 0
2, 92352, Note_on_c, 0, 74, 45
2, 92448, Note_on_c, 0, 74, 0
2, 92448, Note_on_c, 0, 76, 45
2, 92542, Note_on_c, 0, 76, 0
2, 92544, Note_on_c, 0, 77, 50
2, 92640, Note_on_c, 0, 77, 0
2, 92640, Note_on_c, 0, 76, 55
2, 92736, Note_on_c, 0, 76, 0
2, 92736, Note_on_c, 0, 77, 60
2, 92832, Note_on_c, 0, 77, 0
2, 92832, Note_on_c, 0, 79, 65
2, 92926, Note_on_c, 0, 79, 0
2, 92928, Note_on_c, 0, 80, 70
2, 93024, Note_on_c, 0, 80, 0
2, 93024, Note_on_c, 0, 81, 75
2, 93120, Note_on_c, 0, 81, 0
2, 93120, Note_on_c, 0, 82, 80
2, 93216, Note_on_c, 0, 82, 0
2, 93216, Note_on_c, 0, 83, 86
2, 93310, Note_on_c, 0, 83, 0
2, 93312, Note_on_c, 0, 84, 92
2, 93408, Note_on_c, 0, 84, 0
2, 93408, Note_on_c, 0, 79, 81
2, 93504, Note_on_c, 0, 79, 0
2, 93504, Note_on_c, 0, 77, 69
2, 93600, Note_on_c, 0, 77, 0
2, 93600, Note_on_c, 0, 76, 57
2, 93694, Note_on_c, 0, 76, 0
2, 93696, Note_on_c, 0, 74, 45
2, 93792, Note_on_c, 0, 74, 0
2, 93792, Note_on_c, 0, 73, 48
2, 93888, Note_on_c, 0, 73, 0
2, 93888, Note_on_c, 0, 74, 52
2, 93984, Note_on_c, 0, 74, 0
2, 93984, Note_on_c, 0, 76, 56
2, 94078, Note_on_c, 0, 76, 0
2, 94080, Note_on_c, 0, 77, 60
2, 94176, Note_on_c, 0, 77, 0
2, 94176, Note_on_c, 0, 76, 64
2, 94272, Note_on_c, 0, 76, 0
2, 94272, Note_on_c, 0, 77, 68
2, 94368, Note_on_c, 0, 77, 0
2, 94368, Note_on_c, 0, 79, 72
2, 94462, Note_on_c, 0, 79, 0
2, 94464, Note_on_c, 0, 81, 76
2, 94560, Note_on_c, 0, 81, 0
2, 94560, Note_on_c, 0, 80, 80
2, 94656, Note_on_c, 0, 80, 0
2, 94656, Note_on_c, 0, 81, 84
2, 94752, Note_on_c, 0, 81, 0
2, 94752, Note_on_c, 0, 83, 88
2, 94846, Note_on_c, 0, 83, 0
2, 94848, Note_on_c, 0, 84, 92
2, 94944, Note_on_c, 0, 84, 0
2, 94944, Note_on_c, 0, 79, 81
2, 95040, Note_on_c, 0, 79, 0
2, 95040, Note_on_c, 0, 77, 69
2, 95136, Note_on_c, 0, 77, 0
2, 95136, Note_on_c, 0, 76, 57
2, 95230, Note_on_c, 0, 76, 0
2, 95232, Note_on_c, 0, 76, 45
2, 95328, Note_on_c, 0, 76, 0
2, 95328, Note_on_c, 0, 74, 45
2, 95424, Note_on_c, 0, 74, 0
2, 95424, Note_on_c, 0, 81, 45
2, 95520, Note_on_c, 0, 81, 0
2, 95520, Note_on_c, 0, 77, 45
2, 95614, Note_on_c, 0, 77, 0
2, 95616, Note_on_c, 0, 76, 45
2, 95712, Note_on_c, 0, 76, 0
2, 95712, Note_on_c, 0, 79, 45
2, 95808, Note_on_c, 0, 79, 0
2, 95808, Note_on_c, 0, 77, 45
2, 95904, Note_on_c, 0, 77, 0
2, 95904, Note_on_c, 0, 74, 45
2, 95998, Note_on_c, 0, 74, 0
2, 96000, Note_on_c, 0, 72, 45
2, 96160, Note_on_c, 0, 72, 0
2, 96288, Note_on_c, 0, 67, 92
2, 96288, Note_on_c, 0, 76, 92
2, 96320, Note_on_c, 0, 67, 0
2, 96320, Note_on_c, 0, 76, 0
2, 96384, Note_on_c, 0, 67, 92
2, 96384, Note_on_c, 0, 76, 92
2, 96416, Note_on_c, 0, 67, 0
2, 96416, Note_on_c, 0, 76, 0
2, 96480, Note_on_c, 0, 67, 92
2, 96480, Note_on_c, 0, 76, 92
2, 96512, Note_on_c, 0, 67, 0
2, 96512, Note_on_c, 0, 76, 0
2, 96576, Note_on_c, 0, 67, 92
2, 96576, Note_on_c, 0, 76, 92
2, 96608, Note_on_c, 0, 67, 0
2, 96608, Note_on_c, 0, 76, 0
2, 96672, Note_on_c, 0, 67, 92
2, 96672, Note_on_c, 0, 76, 92
2, 96704, Note_on_c, 0, 67, 0
2, 96704, Note_on_c, 0, 76, 0
2, 96768, Note_on_c, 0, 67, 92
2, 96768, Note_on_c, 0, 79, 92
2, 96864, Note_on_c, 0, 67, 0
2, 96864, Note_on_c, 0, 79, 0
2, 96864, Note_on_c, 0, 78, 92
2, 96960, Note_on_c, 0, 78, 0
2, 96960, Note_on_c, 0, 77, 92
2, 97054, Note_on_c, 0, 77, 0
2, 97056, Note_on_c, 0, 83, 45
2, 97088, Note_on_c, 0, 83, 0
2, 97152, Note_on_c, 0, 77, 45
2, 97152, Note_on_c, 0, 83, 45
2, 97184, Note_on_c, 0, 77, 0
2, 97184, Note_on_c, 0, 83, 0
2, 97248, Note_on_c, 0, 77, 45
2, 97248, Note_on_c, 0, 83, 45
2, 97280, Note_on_c, 0, 77, 0
2, 97280, Note_on_c, 0, 83, 0
2, 97344, Note_on_c, 0, 77, 45
2, 97344, Note_on_c, 0, 83, 45
2, 97376, Note_on_c, 0, 77, 0
2, 97376, Note_on_c, 0, 83, 0
2, 97440, Note_on_c, 0, 77, 45
2, 97440, Note_on_c, 0, 83, 45
2, 97472, Note_on_c, 0, 77, 0
2, 97472, Note_on_c, 0, 83, 0
2, 97536, Note_on_c, 0, 76, 45
2, 97536, Note_on_c, 0, 83, 45
2, 97632, Note_on_c, 0, 83, 0
2, 97632, Note_on_c, 0, 84, 45
2, 97696, Note_on_c, 0, 76, 0
2, 97728, Note_on_c, 0, 84, 0
2, 97728, Note_on_c, 0, 79, 45
2, 97822, Note_on_c, 0, 79, 0
2, 97824, Note_on_c, 0, 67, 92
2, 97824, Note_on_c, 0, 76, 92
2, 97856, Note_on_c, 0, 67, 0
2, 97856, Note_on_c, 0, 76, 0
2, 97920, Note_on_c, 0, 67, 92
2, 97920, Note_on_c, 0, 76, 92
2, 97952, Note_on_c, 0, 67, 0
2, 97952, Note_on_c, 0, 76, 0
2, 98016, Note_on_c, 0, 67, 92
2, 98016, Note_on_c, 0, 76, 92
2, 98048, Note_on_c, 0, 67, 0
2, 98048, Note_on_c, 0, 76, 0
2, 98112, Note_on_c, 0, 67, 92
2, 98112, Note_on_c, 0, 76, 92
2, 98144, Note_on_c, 0, 67, 0
2, 98144, Note_on_c, 0, 76, 0
2, 98208, Note_on_c, 0, 67, 92
2, 98208, Note_on_c, 0, 76, 92
2, 98240, Note_on_c, 0, 67, 0
2, 98240, Note_on_c, 0, 76, 0
2, 98304, Note_on_c, 0, 67, 92
2, 98304, Note_on_c, 0, 79, 92
2, 98398, Note_on_c, 0, 67, 0
2, 98398, Note_on_c, 0, 79, 0
2, 98400, Note_on_c, 0, 78, 92
2, 98494, Note_on_c, 0, 78, 0
2, 98496, Note_on_c, 0, 77, 92
2, 98590, Note_on_c, 0, 77, 0
2, 98592, Note_on_c, 0, 74, 45
2, 98624, Note_on_c, 0, 74, 0
2, 98688, Note_on_c, 0, 71, 45
2, 98720, Note_on_c, 0, 71, 0
2, 98784, Note_on_c, 0, 71, 45
2, 98816, Note_on_c, 0, 71, 0
2, 98880, Note_on_c, 0, 71, 45
2, 98912, Note_on_c, 0, 71, 0
2, 98976, Note_on_c, 0, 71, 45
2, 99008, Note_on_c, 0, 71, 0
2, 99072, Note_on_c, 0, 64, 45
2, 99072, Note_on_c, 0, 72, 45
2, 99168, Note_on_c, 0, 64, 0
2, 99168, Note_on_c, 0, 72, 0
2, 99168, Note_on_c, 0, 76, 45
2, 99264, Note_on_c, 0, 76, 0
2, 99264, Note_on_c, 0, 65, 45
2, 99264, Note_on_c, 0, 74, 45
2, 99360, Note_on_c, 0, 65, 0
2, 99360, Note_on_c, 0, 74, 0
2, 99360, Note_on_c, 0, 71, 45
2, 99454, Note_on_c, 0, 71, 0
2, 99456, Note_on_c, 0, 64, 45
2, 99456, Note_on_c, 0, 72, 45
2, 99552, Note_on_c, 0, 64, 0
2, 99552, Note_on_c, 0, 72, 0
2, 99552, Note_on_c, 0, 76, 45
2, 99648, Note_on_c, 0, 76, 0
2, 99648, Note_on_c, 0, 65, 45
2, 99648, Note_on_c, 0, 74, 45
2, 99744, Note_on_c, 0, 65, 0
2, 99744, Note_on_c, 0, 74, 0
2, 99744, Note_on_c, 0, 71, 45
2, 99838, Note_on_c, 0, 71, 0
2, 99840, Note_on_c, 0, 64, 45
2, 99840, Note_on_c, 0, 72, 45
2, 99872, Note_on_c, 0, 64, 0
2, 99872, Note_on_c, 0, 72, 0
2, 100032, Note_on_c, 0, 67, 45
2, 100032, Note_on_c, 0, 76, 45
2, 100064, Note_on_c, 0, 67, 0
2, 100064, Note_on_c, 0, 76, 0
2, 100224, Note_on_c, 0, 64, 45
2, 100224, Note_on_c, 0, 72, 45
2, 100256, Note_on_c, 0, 64, 0
2, 100256, Note_on_c, 0, 72, 0
2, 100608, Note_on_c, 0, 79, 92
2, 100992, Note_on_c, 0, 79, 0
2, 100992, Note_on_c, 0, 82, 92
2, 101328, Note_on_c, 0, 82, 0
2, 101376, Note_on_c, 0, 73, 92
2, 101424, Note_on_c, 0, 73, 0
2, 101568, Note_on_c, 0, 74, 92
2, 101616, Note_on_c, 0, 74, 0
2, 102144, Note_on_c, 0, 69, 45
2, 102144, Note_on_c, 0, 77, 45
2, 102192, Note_on_c, 0, 69, 0
2, 102192, Note_on_c, 0, 77, 0
2, 102336, Note_on_c, 0, 70, 45
2, 102336, Note_on_c, 0, 79, 45
2, 102720, Note_on_c, 0, 70, 0
2, 102720, Note_on_c, 0, 79, 0
2, 102720, Note_on_c, 0, 69, 45
2, 102720, Note_on_c, 0, 77, 45
2, 102880, Note_on_c, 0, 69, 0
2, 102880, Note_on_c, 0, 77, 0
2, 102912, Note_on_c, 0, 67, 45
2, 102912, Note_on_c, 0, 77, 45
2, 103008, Note_on_c, 0, 67, 0
2, 103008, Note_on_c, 0, 77, 0
2, 103008, Note_on_c, 0, 76, 45
2, 103102, Note_on_c, 0, 76, 0
2, 103104, Note_on_c, 0, 67, 45
2, 103104, Note_on_c, 0, 76, 45
2, 103200, Note_on_c, 0, 67, 0
2, 103200, Note_on_c, 0, 76, 0
2, 103200, Note_on_c, 0, 73, 45
2, 103294, Note_on_c, 0, 73, 0
2, 103296, Note_on_c, 0, 65, 45
2, 103296, Note_on_c, 0, 74, 45
2, 103390, Note_on_c, 0, 65, 0
2, 103456, Note_on_c, 0, 74, 0
2, 103680, Note_on_c, 0, 77, 45
2, 104064, Note_on_c, 0, 77, 0
2, 104064, Note_on_c, 0, 80, 45
2, 104400, Note_on_c, 0, 80, 0
2, 104448, Note_on_c, 0, 71, 45
2, 104496, Note_on_c, 0, 71, 0
2, 104640, Note_on_c, 0, 72, 45
2, 104688, Note_on_c, 0, 72, 0
2, 105216, Note_on_c, 0, 67, 45
2, 105216, Note_on_c, 0, 76, 45
2, 105264, Note_on_c, 0, 67, 0
2, 105264, Note_on_c, 0, 76, 0
2, 105408, Note_on_c, 0, 69, 45
2, 105408, Note_on_c, 0, 77, 45
2, 105792, Note_on_c, 0, 69, 0
2, 105792, Note_on_c, 0, 77, 0
2, 105792, Note_on_c, 0, 67, 45
2, 105792, Note_on_c, 0, 76, 45
2, 105952, Note_on_c, 0, 67, 0
2, 105952, Note_on_c, 0, 76, 0
2, 105984, Note_on_c, 0, 65, 45
2, 105984, Note_on_c, 0, 76, 45
2, 106080, Note_on_c, 0, 65, 0
2, 106080, Note_on_c, 0, 76, 0
2, 106080, Note_on_c, 0, 74, 45
2, 106174, Note_on_c, 0, 74, 0
2, 106176, Note_on_c, 0, 65, 45
2, 106176, Note_on_c, 0, 74, 45
2, 106272, Note_on_c, 0, 65, 0
2, 106272, Note_on_c, 0, 74, 0
2, 106272, Note_on_c, 0, 71, 45
2, 106366, Note_on_c, 0, 71, 0
2, 106368, Note_on_c, 0, 64, 45
2, 106368, Note_on_c, 0, 72, 45
2, 106462, Note_on_c, 0, 64, 0
2, 106528, Note_on_c, 0, 72, 0
2, 107520, Note_on_c, 0, 84, 92
2, 107998, Note_on_c, 0, 84, 0
2, 108000, Note_on_c, 0, 83, 92
2, 108096, Note_on_c, 0, 83, 0
2, 108096, Note_on_c, 0, 84, 92
2, 108192, Note_on_c, 0, 84, 0
2, 108192, Note_on_c, 0, 82, 92
2, 108286, Note_on_c, 0, 82, 0
2, 108288, Note_on_c, 0, 77, 92
2, 108288, Note_on_c, 0, 81, 92
2, 108766, Note_on_c, 0, 77, 0
2, 108766, Note_on_c, 0, 81, 0
2, 108768, Note_on_c, 0, 76, 92
2, 108768, Note_on_c, 0, 80, 92
2, 108864, Note_on_c, 0, 76, 0
2, 108864, Note_on_c, 0, 80, 0
2, 108864, Note_on_c, 0, 77, 92
2, 108864, Note_on_c, 0, 81, 92
2, 108960, Note_on_c, 0, 77, 0
2, 108960, Note_on_c, 0, 81, 0
2, 108960, Note_on_c, 0, 76, 92
2, 108960, Note_on_c, 0, 79, 92
2, 109054, Note_on_c, 0, 76, 0
2, 109054, Note_on_c, 0, 79, 0
2, 109056, Note_on_c, 0, 74, 92
2, 109056, Note_on_c, 0, 77, 92
2, 109152, Note_on_c, 0, 74, 0
2, 109152, Note_on_c, 0, 77, 0
2, 109152, Note_on_c, 0, 73, 92
2, 109152, Note_on_c, 0, 76, 92
2, 109248, Note_on_c, 0, 73, 0
2, 109248, Note_on_c, 0, 76, 0
2, 109248, Note_on_c, 0, 74, 92
2, 109248, Note_on_c, 0, 77, 92
2, 109344, Note_on_c, 0, 74, 0
2, 109344, Note_on_c, 0, 77, 0
2, 109344, Note_on_c, 0, 73, 92
2, 109344, Note_on_c, 0, 76, 92
2, 109438, Note_on_c, 0, 73, 0
2, 109438, Note_on_c, 0, 76, 0
2, 109440, Note_on_c, 0, 74, 92
2, 109440, Note_on_c, 0, 77, 92
2, 109536, Note_on_c, 0, 77, 0
2, 109536, Note_on_c, 0, 76, 92
2, 109632, Note_on_c, 0, 76, 0
2, 109632, Note_on_c, 0, 77, 92
2, 109696, Note_on_c, 0, 74, 0
2, 109728, Note_on_c, 0, 77, 0
2, 109728, Note_on_c, 0, 73, 92
2, 109728, Note_on_c, 0, 76, 92
2, 109822, Note_on_c, 0, 73, 0
2, 109822, Note_on_c, 0, 76, 0
2, 109824, Note_on_c, 0, 74, 92
2, 109824, Note_on_c, 0, 74, 92
2, 109984, Note_on_c, 0, 74, 0
2, 110016, Note_on_c, 0, 74, 0
2, 110016, Note_on_c, 0, 69, 92
2, 110016, Note_on_c, 0, 75, 92
2, 110208, Note_on_c, 0, 75, 0
2, 110208, Note_on_c, 0, 74, 92
2, 110352, Note_on_c, 0, 69, 0
2, 110400, Note_on_c, 0, 74, 0
2, 110400, Note_on_c, 0, 69, 92
2, 110400, Note_on_c, 0, 72, 92
2, 110560, Note_on_c, 0, 69, 0
2, 110560, Note_on_c, 0, 72, 0
2, 110592, Note_on_c, 0, 67, 92
2, 110592, Note_on_c, 0, 71, 92
2, 110752, Note_on_c, 0, 67, 0
2, 110752, Note_on_c, 0, 71, 0
2, 110976, Note_on_c, 0, 67, 92
2, 111024, Note_on_c, 0, 67, 0
2, 111168, Note_on_c, 0, 79, 127
2, 111454, Note_on_c, 0, 79, 0
2, 111456, Note_on_c, 0, 78, 92
2, 111552, Note_on_c, 0, 78, 0
2, 111552, Note_on_c, 0, 79, 92
2, 111648, Note_on_c, 0, 79, 0
2, 111648, Note_on_c, 0, 77, 92
2, 111742, Note_on_c, 0, 77, 0
2, 111744, Note_on_c, 0, 76, 92
2, 111840, Note_on_c, 0, 78, 92
2, 111904, Note_on_c, 0, 76, 0
2, 111936, Note_on_c, 0, 78, 0
2, 111936, Note_on_c, 0, 72, 92
2, 111936, Note_on_c, 0, 79, 92
2, 112032, Note_on_c, 0, 79, 0
2, 112032, Note_on_c, 0, 78, 92
2, 112096, Note_on_c, 0, 72, 0
2, 112126, Note_on_c, 0, 78, 0
2, 112128, Note_on_c, 0, 71, 92
2, 112128, Note_on_c, 0, 79, 92
2, 112288, Note_on_c, 0, 71, 0
2, 112288, Note_on_c, 0, 79, 0
2, 112512, Note_on_c, 0, 67, 92
2, 112560, Note_on_c, 0, 67, 0
2, 112704, Note_on_c, 0, 79, 127
2, 112990, Note_on_c, 0, 79, 0
2, 112992, Note_on_c, 0, 78, 92
2, 113088, Note_on_c, 0, 78, 0
2, 113088, Note_on_c, 0, 79, 92
2, 113184, Note_on_c, 0, 79, 0
2, 113184, Note_on_c, 0, 77, 92
2, 113278, Note_on_c, 0, 77, 0
2, 113280, Note_on_c, 0, 75, 92
2, 113376, Note_on_c, 0, 78, 92
2, 113440, Note_on_c, 0, 75, 0
2, 113472, Note_on_c, 0, 78, 0
2, 113472, Note_on_c, 0, 72, 92
2, 113472, Note_on_c, 0, 79, 92
2, 113568, Note_on_c, 0, 79, 0
2, 113568, Note_on_c, 0, 78, 92
2, 113632, Note_on_c, 0, 72, 0
2, 113662, Note_on_c, 0, 78, 0
2, 113664, Note_on_c, 0, 71, 92
2, 113664, Note_on_c, 0, 79, 92
2, 113758, Note_on_c, 0, 71, 0
2, 113758, Note_on_c, 0, 79, 0
2, 113856, Note_on_c, 0, 77, 92
2, 113856, Note_on_c, 0, 83, 92
2, 114048, Note_on_c, 0, 77, 0
2, 114048, Note_on_c, 0, 83, 0
2, 114048, Note_on_c, 0, 76, 92
2, 114048, Note_on_c, 0, 84, 92
2, 114142, Note_on_c, 0, 76, 0
2, 114142, Note_on_c, 0, 84, 0
2, 114240, Note_on_c, 0, 72, 92
2, 114240, Note_on_c, 0, 76, 92
2, 114432, Note_on_c, 0, 72, 0
2, 114432, Note_on_c, 0, 76, 0
2, 114432, Note_on_c, 0, 71, 92
2, 114432, Note_on_c, 0, 74, 92
2, 114526, Note_on_c, 0, 71, 0
2, 114526, Note_on_c, 0, 74, 0
2, 114624, Note_on_c, 0, 77, 92
2, 114624, Note_on_c, 0, 83, 92
2, 114816, Note_on_c, 0, 77, 0
2, 114816, Note_on_c, 0, 83, 0
2, 114816, Note_on_c, 0, 76, 92
2, 114816, Note_on_c, 0, 84, 92
2, 114910, Note_on_c, 0, 76, 0
2, 114910, Note_on_c, 0, 84, 0
2, 115008, Note_on_c, 0, 72, 92
2, 115008, Note_on_c, 0, 76, 92
2, 115200, Note_on_c, 0, 72, 0
2, 115200, Note_on_c, 0, 76, 0
2, 115200, Note_on_c, 0, 71, 92
2, 115200, Note_on_c, 0, 74, 92
2, 115360, Note_on_c, 0, 71, 0
2, 115360, Note_on_c, 0, 74, 0
2, 115392, Note_on_c, 0, 71, 92
2, 115392, Note_on_c, 0, 79, 92
2, 115440, Note_on_c, 0, 71, 0
2, 115440, Note_on_c, 0, 79, 0
2, 115584, Note_on_c, 0, 71, 92
2, 115584, Note_on_c, 0, 79, 92
2, 115632, Note_on_c, 0, 71, 0
2, 115632, Note_on_c, 0, 79, 0
2, 115968, Note_on_c, 0, 72, 92
2, 116128, Note_on_c, 0, 72, 0
2, 116256, Note_on_c, 0, 67, 92
2, 116288, Note_on_c, 0, 67, 0
2, 116352, Note_on_c, 0, 72, 92
2, 116512, Note_on_c, 0, 72, 0
2, 116640, Note_on_c, 0, 67, 92
2, 116672, Note_on_c, 0, 67, 0
2, 116736, Note_on_c, 0, 72, 92
2, 116768, Note_on_c, 0, 72, 0
2, 116832, Note_on_c, 0, 76, 92
2, 116864, Note_on_c, 0, 76, 0
2, 116928, Note_on_c, 0, 79, 92
2, 116960, Note_on_c, 0, 79, 0
2, 117024, Note_on_c, 0, 76, 92
2, 117056, Note_on_c, 0, 76, 0
2, 117120, Note_on_c, 0, 72, 92
2, 117280, Note_on_c, 0, 72, 0
2, 117504, Note_on_c, 0, 67, 45
2, 117504, Note_on_c, 0, 76, 45
2, 117552, Note_on_c, 0, 67, 0
2, 117552, Note_on_c, 0, 76, 0
2, 117696, Note_on_c, 0, 69, 45
2, 117696, Note_on_c, 0, 77, 45
2, 118080, Note_on_c, 0, 69, 0
2, 118080, Note_on_c, 0, 77, 0
2, 118080, Note_on_c, 0, 67, 45
2, 118080, Note_on_c, 0, 76, 45
2, 118240, Note_on_c, 0, 67, 0
2, 118240, Note_on_c, 0, 76, 0
2, 118272, Note_on_c, 0, 67, 45
2, 118272, Note_on_c, 0, 76, 45
2, 118368, Note_on_c, 0, 67, 0
2, 118368, Note_on_c, 0, 76, 0
2, 118368, Note_on_c, 0, 65, 45
2, 118368, Note_on_c, 0, 74, 45
2, 118462, Note_on_c, 0, 65, 0
2, 118462, Note_on_c, 0, 74, 0
2, 118464, Note_on_c, 0, 65, 45
2, 118464, Note_on_c, 0, 74, 45
2, 118560, Note_on_c, 0, 74, 0
2, 118560, Note_on_c, 0, 71, 45
2, 118624, Note_on_c, 0, 65, 0
2, 118654, Note_on_c, 0, 71, 0
2, 118656, Note_on_c, 0, 64, 45
2, 118656, Note_on_c, 0, 72, 45
2, 118816, Note_on_c, 0, 64, 0
2, 118816, Note_on_c, 0, 72, 0
2, 119040, Note_on_c, 0, 76, 45
2, 119040, Note_on_c, 0, 79, 45
2, 119088, Note_on_c, 0, 76, 0
2, 119088, Note_on_c, 0, 79, 0
2, 119232, Note_on_c, 0, 77, 45
2, 119232, Note_on_c, 0, 81, 45
2, 119616, Note_on_c, 0, 77, 0
2, 119616, Note_on_c, 0, 81, 0
2, 119616, Note_on_c, 0, 76, 45
2, 119616, Note_on_c, 0, 79, 45
2, 119776, Note_on_c, 0, 76, 0
2, 119776, Note_on_c, 0, 79, 0
2, 119808, Note_on_c, 0, 76, 45
2, 119808, Note_on_c, 0, 79, 45
2, 119904, Note_on_c, 0, 76, 0
2, 119904, Note_on_c, 0, 79, 0
2, 119904, Note_on_c, 0, 74, 45
2, 119904, Note_on_c, 0, 77, 45
2, 119998, Note_on_c, 0, 74, 0
2, 119998, Note_on_c, 0, 77, 0
2, 120000, Note_on_c, 0, 74, 45
2, 120000, Note_on_c, 0, 77, 45
2, 120096, Note_on_c, 0, 74, 0
2, 120096, Note_on_c, 0, 77, 0
2, 120096, Note_on_c, 0, 71, 45
2, 120096, Note_on_c, 0, 74, 45
2, 120190, Note_on_c, 0, 71, 0
2, 120190, Note_on_c, 0, 74, 0
2, 120192, Note_on_c, 0, 72, 45
2, 120192, Note_on_c, 0, 76, 45
2, 120352, Note_on_c, 0, 72, 0
2, 120352, Note_on_c, 0, 76, 0
2, 120576, Note_on_c, 0, 72, 92
2, 120576, Note_on_c, 0, 84, 92
2, 120672, Note_on_c, 0, 84, 0
2, 120672, Note_on_c, 0, 79, 92
2, 120766, Note_on_c, 0, 79, 0
2, 120768, Note_on_c, 0, 79, 92
2, 120800, Note_on_c, 0, 79, 0
2, 120864, Note_on_c, 0, 79, 92
2, 120896, Note_on_c, 0, 79, 0
2, 120960, Note_on_c, 0, 79, 92
2, 121248, Note_on_c, 0, 79, 0
2, 121248, Note_on_c, 0, 80, 92
2, 121296, Note_on_c, 0, 72, 0
2, 121342, Note_on_c, 0, 80, 0
2, 121344, Note_on_c, 0, 72, 92
2, 121344, Note_on_c, 0, 81, 92
2, 121440, Note_on_c, 0, 81, 0
2, 121440, Note_on_c, 0, 74, 92
2, 121534, Note_on_c, 0, 74, 0
2, 121536, Note_on_c, 0, 74, 92
2, 121568, Note_on_c, 0, 74, 0
2, 121632, Note_on_c, 0, 74, 92
2, 121664, Note_on_c, 0, 74, 0
2, 121680, Note_on_c, 0, 72, 0
2, 121728, Note_on_c, 0, 71, 92
2, 121728, Note_on_c, 0, 74, 92
2, 122064, Note_on_c, 0, 71, 0
2, 122064, Note_on_c, 0, 74, 0
2, 122112, Note_on_c, 0, 72, 92
2, 122112, Note_on_c, 0, 79, 92
2, 122256, Note_on_c, 0, 72, 0
2, 122256, Note_on_c, 0, 79, 0
2, 122256, Note_on_c, 0, 81, 92
2, 122302, Note_on_c, 0, 81, 0
2, 122304, Note_on_c, 0, 74, 92
2, 122304, Note_on_c, 0, 77, 92
2, 122448, Note_on_c, 0, 74, 0
2, 122448, Note_on_c, 0, 77, 0
2, 122448, Note_on_c, 0, 79, 92
2, 122494, Note_on_c, 0, 79, 0
2, 122496, Note_on_c, 0, 72, 92
2, 122496, Note_on_c, 0, 76, 92
2, 122640, Note_on_c, 0, 72, 0
2, 122640, Note_on_c, 0, 76, 0
2, 122640, Note_on_c, 0, 77, 92
2, 122686, Note_on_c, 0, 77, 0
2, 122688, Note_on_c, 0, 71, 92
2, 122688, Note_on_c, 0, 74, 92
2, 122832, Note_on_c, 0, 71, 0
2, 122832, Note_on_c, 0, 74, 0
2, 122832, Note_on_c, 0, 76, 92
2, 122878, Note_on_c, 0, 76, 0
2, 122880, Note_on_c, 0, 72, 45
2, 123040, Note_on_c, 0, 72, 0
2, 123456, Note_on_c, 0, 72, 45
2, 123456, Note_on_c, 0, 76, 45
2, 123616, Note_on_c, 0, 72, 0
2, 123616, Note_on_c, 0, 76, 0
2, 123648, Note_on_c, 0, 72, 45
2, 123648, Note_on_c, 0, 74, 45
2, 123840, Note_on_c, 0, 74, 0
2, 123840, Note_on_c, 0, 74, 45
2, 124032, Note_on_c, 0, 74, 0
2, 124032, Note_on_c, 0, 76, 45
2, 124176, Note_on_c, 0, 72, 0
2, 124224, Note_on_c, 0, 76, 0
2, 124224, Note_on_c, 0, 74, 45
2, 124224, Note_on_c, 0, 77, 45
2, 124384, Note_on_c, 0, 74, 0
2, 124384, Note_on_c, 0, 77, 0
2, 124416, Note_on_c, 0, 74, 45
2, 124416, Note_on_c, 0, 77, 45
2, 124608, Note_on_c, 0, 74, 0
2, 124608, Note_on_c, 0, 77, 0
2, 124608, Note_on_c, 0, 72, 45
2, 124608, Note_on_c, 0, 76, 45
2, 124768, Note_on_c, 0, 72, 0
2, 124768, Note_on_c, 0, 76, 0
2, 124992, Note_on_c, 0, 76, 45
2, 124992, Note_on_c, 0, 84, 45
2, 125040, Note_on_c, 0, 76, 0
2, 125040, Note_on_c, 0, 84, 0
2, 125184, Note_on_c, 0, 74, 45
2, 125184, Note_on_c, 0, 81, 45
2, 125376, Note_on_c, 0, 74, 0
2, 125376, Note_on_c, 0, 81, 0
2, 125376, Note_on_c, 0, 72, 45
2, 125376, Note_on_c, 0, 77, 45
2, 125568, Note_on_c, 0, 72, 0
2, 125568, Note_on_c, 0, 77, 0
2, 125568, Note_on_c, 0, 71, 45
2, 125568, Note_on_c, 0, 74, 45
2, 125760, Note_on_c, 0, 71, 0
2, 125760, Note_on_c, 0, 74, 0
2, 125760, Note_on_c, 0, 74, 45
2, 125760, Note_on_c, 0, 79, 45
2, 125920, Note_on_c, 0, 74, 0
2, 125920, Note_on_c, 0, 79, 0
2, 125952, Note_on_c, 0, 72, 92
2, 126112, Note_on_c, 0, 72, 0
2, 126144, Note_on_c, 0, 76, 92
2, 126240, Note_on_c, 0, 76, 0
2, 126240, Note_on_c, 0, 72, 92
2, 126334, Note_on_c, 0, 72, 0
2, 126336, Note_on_c, 0, 69, 92
2, 126496, Note_on_c, 0, 69, 0
2, 126528, Note_on_c, 0, 72, 92
2, 126624, Note_on_c, 0, 72, 0
2, 126624, Note_on_c, 0, 69, 92
2, 126718, Note_on_c, 0, 69, 0
2, 126720, Note_on_c, 0, 74, 92
2, 126880, Note_on_c, 0, 74, 0
2, 126912, Note_on_c, 0, 77, 92
2, 127008, Note_on_c, 0, 77, 0
2, 127008, Note_on_c, 0, 74, 92
2, 127102, Note_on_c, 0, 74, 0
2, 127104, Note_on_c, 0, 71, 92
2, 127264, Note_on_c, 0, 71, 0
2, 127296, Note_on_c, 0, 74, 92
2, 127392, Note_on_c, 0, 74, 0
2, 127392, Note_on_c, 0, 71, 92
2, 127486, Note_on_c, 0, 71, 0
2, 127488, Note_on_c, 0, 76, 92
2, 127648, Note_on_c, 0, 76, 0
2, 127680, Note_on_c, 0, 79, 92
2, 127776, Note_on_c, 0, 79, 0
2, 127776, Note_on_c, 0, 76, 92
2, 127870, Note_on_c, 0, 76, 0
2, 127872, Note_on_c, 0, 72, 92
2, 128032, Note_on_c, 0, 72, 0
2, 128064, Note_on_c, 0, 76, 92
2, 128160, Note_on_c, 0, 76, 0
2, 128160, Note_on_c, 0, 72, 92
2, 128254, Note_on_c, 0, 72, 0
2, 128256, Note_on_c, 0, 77, 92
2, 128416, Note_on_c, 0, 77, 0
2, 128448, Note_on_c, 0, 81, 92
2, 128544, Note_on_c, 0, 81, 0
2, 128544, Note_on_c, 0, 77, 92
2, 128638, Note_on_c, 0, 77, 0
2, 128640, Note_on_c, 0, 74, 92
2, 128800, Note_on_c, 0, 74, 0
2, 128832, Note_on_c, 0, 77, 92
2, 128928, Note_on_c, 0, 77, 0
2, 128928, Note_on_c, 0, 74, 92
2, 129022, Note_on_c, 0, 74, 0
2, 129024, Note_on_c, 0, 71, 92
2, 129120, Note_on_c, 0, 71, 0
2, 129120, Note_on_c, 0, 67, 93
2, 129216, Note_on_c, 0, 67, 0
2, 129216, Note_on_c, 0, 69, 94
2, 129312, Note_on_c, 0, 69, 0
2, 129312, Note_on_c, 0, 71, 95
2, 129406, Note_on_c, 0, 71, 0
2, 129408, Note_on_c, 0, 72, 96
2, 129504, Note_on_c, 0, 72, 0
2, 129504, Note_on_c, 0, 71, 97
2, 129600, Note_on_c, 0, 71, 0
2, 129600, Note_on_c, 0, 72, 98
2, 129696, Note_on_c, 0, 72, 0
2, 129696, Note_on_c, 0, 74, 99
2, 129790, Note_on_c, 0, 74, 0
2, 129792, Note_on_c, 0, 76, 100
2, 129888, Note_on_c, 0, 76, 0
2, 129888, Note_on_c, 0, 74, 101
2, 129984, Note_on_c, 0, 74, 0
2, 129984, Note_on_c, 0, 72, 102
2, 130080, Note_on_c, 0, 72, 0
2, 130080, Note_on_c, 0, 74, 103
2, 130174, Note_on_c, 0, 74, 0
2, 130176, Note_on_c, 0, 76, 104
2, 130272, Note_on_c, 0, 76, 0
2, 130272, Note_on_c, 0, 74, 105
2, 130368, Note_on_c, 0, 74, 0
2, 130368, Note_on_c, 0, 76, 106
2, 130464, Note_on_c, 0, 76, 0
2, 130464, Note_on_c, 0, 78, 107
2, 130558, Note_on_c, 0, 78, 0
2, 130560, Note_on_c, 0, 79, 108
2, 130654, Note_on_c, 0, 79, 0
2, 130752, Note_on_c, 0, 74, 108
2, 130752, Note_on_c, 0, 83, 108
2, 130944, Note_on_c, 0, 74, 0
2, 130944, Note_on_c, 0, 83, 0
2, 130944, Note_on_c, 0, 76, 108
2, 130944, Note_on_c, 0, 84, 108
2, 131038, Note_on_c, 0, 76, 0
2, 131038, Note_on_c, 0, 84, 0
2, 131136, Note_on_c, 0, 72, 108
2, 131136, Note_on_c, 0, 76, 108
2, 131168, Note_on_c, 0, 72, 0
2, 131168, Note_on_c, 0, 76, 0
2, 131328, Note_on_c, 0, 74, 108
2, 131328, Note_on_c, 0, 79, 108
2, 131360, Note_on_c, 0, 74, 0
2, 131360, Note_on_c, 0, 79, 0
2, 131520, Note_on_c, 0, 74, 108
2, 131520, Note_on_c, 0, 83, 108
2, 131712, Note_on_c, 0, 74, 0
2, 131712, Note_on_c, 0, 83, 0
2, 131712, Note_on_c, 0, 76, 108
2, 131712, Note_on_c, 0, 84, 108
2, 131806, Note_on_c, 0, 76, 0
2, 131806, Note_on_c, 0, 84, 0
2, 131904, Note_on_c, 0, 72, 108
2, 131904, Note_on_c, 0, 76, 108
2, 131936, Note_on_c, 0, 72, 0
2, 131936, Note_on_c, 0, 76, 0
2, 132096, Note_on_c, 0, 71, 108
2, 132096, Note_on_c, 0, 74, 108
2, 132144, Note_on_c, 0, 71, 0
2, 132144, Note_on_c, 0, 74, 0
2, 132288, Note_on_c, 0, 71, 108
2, 132288, Note_on_c, 0, 79, 108
2, 132336, Note_on_c, 0, 71, 0
2, 132336, Note_on_c, 0, 79, 0
2, 132480, Note_on_c, 0, 71, 108
2, 132480, Note_on_c, 0, 79, 108
2, 132528, Note_on_c, 0, 71, 0
2, 132528, Note_on_c, 0, 79, 0
2, 132864, Note_on_c, 0, 79, 45
2, 133248, Note_on_c, 0, 79, 0
2, 133248, Note_on_c, 0, 78, 45
2, 133248, Note_on_c, 0, 84, 45
2, 133584, Note_on_c, 0, 78, 0
2, 133584, Note_on_c, 0, 84, 0
2, 133632, Note_on_c, 0, 79, 45
2, 133632, Note_on_c, 0, 83, 45
2, 133728, Note_on_c, 0, 79, 0
2, 133728, Note_on_c, 0, 83, 0
2, 133728, Note_on_c, 0, 86, 45
2, 133824, Note_on_c, 0, 86, 0
2, 133824, Note_on_c, 0, 78, 45
2, 133824, Note_on_c, 0, 84, 45
2, 133920, Note_on_c, 0, 78, 0
2, 133920, Note_on_c, 0, 84, 0
2, 133920, Note_on_c, 0, 81, 45
2, 134016, Note_on_c, 0, 81, 0
2, 134016, Note_on_c, 0, 79, 45
2, 134176, Note_on_c, 0, 79, 0
2, 134400, Note_on_c, 0, 67, 45
2, 134784, Note_on_c, 0, 67, 0
2, 134784, Note_on_c, 0, 74, 45
2, 134784, Note_on_c, 0, 77, 45
2, 135120, Note_on_c, 0, 74, 0
2, 135120, Note_on_c, 0, 77, 0
2, 135168, Note_on_c, 0, 72, 45
2, 135168, Note_on_c, 0, 76, 45
2, 135264, Note_on_c, 0, 72, 0
2, 135264, Note_on_c, 0, 76, 0
2, 135264, Note_on_c, 0, 79, 45
2, 135360, Note_on_c, 0, 79, 0
2, 135360, Note_on_c, 0, 71, 45
2, 135360, Note_on_c, 0, 77, 45
2, 135456, Note_on_c, 0, 71, 0
2, 135456, Note_on_c, 0, 77, 0
2, 135456, Note_on_c, 0, 74, 45
2, 135552, Note_on_c, 0, 74, 0
2, 135552, Note_on_c, 0, 72, 45
2, 135712, Note_on_c, 0, 72, 0
2, 135936, Note_on_c, 0, 74, 45
2, 136032, Note_on_c, 0, 74, 0
2, 136032, Note_on_c, 0, 73, 45
2, 136128, Note_on_c, 0, 73, 0
2, 136128, Note_on_c, 0, 74, 45
2, 136224, Note_on_c, 0, 74, 0
2, 136224, Note_on_c, 0, 76, 45
2, 136318, Note_on_c, 0, 76, 0
2, 136320, Note_on_c, 0, 77, 50
2, 136416, Note_on_c, 0, 77, 0
2, 136416, Note_on_c, 0, 76, 55
2, 136512, Note_on_c, 0, 76, 0
2, 136512, Note_on_c, 0, 77, 60
2, 136608, Note_on_c, 0, 77, 0
2, 136608, Note_on_c, 0, 79, 65
2, 136702, Note_on_c, 0, 79, 0
2, 136704, Note_on_c, 0, 80, 70
2, 136800, Note_on_c, 0, 80, 0
2, 136800, Note_on_c, 0, 81, 75
2, 136896, Note_on_c, 0, 81, 0
2, 136896, Note_on_c, 0, 82, 80
2, 136992, Note_on_c, 0, 82, 0
2, 136992, Note_on_c, 0, 83, 86
2, 137086, Note_on_c, 0, 83, 0
2, 137088, Note_on_c, 0, 84, 92
2, 137184, Note_on_c, 0, 84, 0
2, 137184, Note_on_c, 0, 79, 81
2, 137280, Note_on_c, 0, 79, 0
2, 137280, Note_on_c, 0, 77, 69
2, 137376, Note_on_c, 0, 77, 0
2, 137376, Note_on_c, 0, 76, 57
2, 137470, Note_on_c, 0, 76, 0
2, 137472, Note_on_c, 0, 74, 45
2, 137568, Note_on_c, 0, 74, 0
2, 137568, Note_on_c, 0, 73, 48
2, 137664, Note_on_c, 0, 73, 0
2, 137664, Note_on_c, 0, 74, 52
2, 137760, Note_on_c, 0, 74, 0
2, 137760, Note_on_c, 0, 76, 56
2, 137854, Note_on_c, 0, 76, 0
2, 137856, Note_on_c, 0, 77, 60
2, 137952, Note_on_c, 0, 77, 0
2, 137952, Note_on_c, 0, 76, 64
2, 138048, Note_on_c, 0, 76, 0
2, 138048, Note_on_c, 0, 77, 68
2, 138144, Note_on_c, 0, 77, 0
2, 138144, Note_on_c, 0, 79, 72
2, 138238, Note_on_c, 0, 79, 0
2, 138240, Note_on_c, 0, 81, 76
2, 138336, Note_on_c, 0, 81, 0
2, 138336, Note_on_c, 0, 80, 80
2, 138432, Note_on_c, 0, 80, 0
2, 138432, Note_on_c, 0, 81, 84
2, 138528, Note_on_c, 0, 81, 0
2, 138528, Note_on_c, 0, 83, 88
2, 138622, Note_on_c, 0, 83, 0
2, 138624, Note_on_c, 0, 84, 92
2, 138720, Note_on_c, 0, 84, 0
2, 138720, Note_on_c, 0, 79, 81
2, 138816, Note_on_c, 0, 79, 0
2, 138816, Note_on_c, 0, 77, 69
2, 138912, Note_on_c, 0, 77, 0
2, 138912, Note_on_c, 0, 76, 57
2, 139006, Note_on_c, 0, 76, 0
2, 139008, Note_on_c, 0, 76, 45
2, 139104, Note_on_c, 0, 76, 0
2, 139104, Note_on_c, 0, 74, 45
2, 139200, Note_on_c, 0, 74, 0
2, 139200, Note_on_c, 0, 81, 45
2, 139296, Note_on_c, 0, 81, 0
2, 139296, Note_on_c, 0, 77, 45
2, 139390, Note_on_c, 0, 77, 0
2, 139392, Note_on_c, 0, 76, 45
2, 139488, Note_on_c, 0, 76, 0
2, 139488, Note_on_c, 0, 79, 45
2, 139584, Note_on_c, 0, 79, 0
2, 139584, Note_on_c, 0, 77, 45
2, 139680, Note_on_c, 0, 77, 0
2, 139680, Note_on_c, 0, 74, 45
2, 139774, Note_on_c, 0, 74, 0
2, 139776, Note_on_c, 0, 72, 45
2, 139936, Note_on_c, 0, 72, 0
2, 140064, Note_on_c, 0, 67, 92
2, 140064, Note_on_c, 0, 76, 92
2, 140096, Note_on_c, 0, 67, 0
2, 140096, Note_on_c, 0, 76, 0
2, 140160, Note_on_c, 0, 67, 92
2, 140160, Note_on_c, 0, 76, 92
2, 140192, Note_on_c, 0, 67, 0
2, 140192, Note_on_c, 0, 76, 0
2, 140256, Note_on_c, 0, 67, 92
2, 140256, Note_on_c, 0, 76, 92
2, 140288, Note_on_c, 0, 67, 0
2, 140288, Note_on_c, 0, 76, 0
2, 140352, Note_on_c, 0, 67, 92
2, 140352, Note_on_c, 0, 76, 92
2, 140384, Note_on_c, 0, 67, 0
2, 140384, Note_on_c, 0, 76, 0
2, 140448, Note_on_c, 0, 67, 92
2, 140448, Note_on_c, 0, 76, 92
2, 140480, Note_on_c, 0, 67, 0
2, 140480, Note_on_c, 0, 76, 0
2, 140544, Note_on_c, 0, 67, 92
2, 140544, Note_on_c, 0, 79, 92
2, 140640, Note_on_c, 0, 67, 0
2, 140640, Note_on_c, 0, 79, 0
2, 140640, Note_on_c, 0, 78, 92
2, 140736, Note_on_c, 0, 78, 0
2, 140736, Note_on_c, 0, 77, 92
2, 140830, Note_on_c, 0, 77, 0
2, 140832, Note_on_c, 0, 83, 45
2, 140864, Note_on_c, 0, 83, 0
2, 140928, Note_on_c, 0, 77, 45
2, 140928, Note_on_c, 0, 83, 45
2, 140960, Note_on_c, 0, 77, 0
2, 140960, Note_on_c, 0, 83, 0
2, 141024, Note_on_c, 0, 77, 45
2, 141024, Note_on_c, 0, 83, 45
2, 141056, Note_on_c, 0, 77, 0
2, 141056, Note_on_c, 0, 83, 0
2, 141120, Note_on_c, 0, 77, 45
2, 141120, Note_on_c, 0, 83, 45
2, 141152, Note_on_c, 0, 77, 0
2, 141152, Note_on_c, 0, 83, 0
2, 141216, Note_on_c, 0, 77, 45
2, 141216, Note_on_c, 0, 83, 45
2, 141248, Note_on_c, 0, 77, 0
2, 141248, Note_on_c, 0, 83, 0
2, 141312, Note_on_c, 0, 76, 45
2, 141312, Note_on_c, 0, 83, 45
2, 141408, Note_on_c, 0, 83, 0
2, 141408, Note_on_c, 0, 84, 45
2, 141472, Note_on_c, 0, 76, 0
2, 141504, Note_on_c, 0, 84, 0
2, 141504, Note_on_c, 0, 79, 45
2, 141598, Note_on_c, 0, 79, 0
2, 141600, Note_on_c, 0, 67, 92
2, 141600, Note_on_c, 0, 76, 92
2, 141632, Note_on_c, 0, 67, 0
2, 141632, Note_on_c, 0, 76, 0
2, 141696, Note_on_c, 0, 67, 92
2, 141696, Note_on_c, 0, 76, 92
2, 141728, Note_on_c, 0, 67, 0
2, 141728, Note_on_c, 0, 76, 0
2, 141792, Note_on_c, 0, 67, 92
2, 141792, Note_on_c, 0, 76, 92
2, 141824, Note_on_c, 0, 67, 0
2, 141824, Note_on_c, 0, 76, 0
2, 141888, Note_on_c, 0, 67, 92
2, 141888, Note_on_c, 0, 76, 92
2, 141920, Note_on_c, 0, 67, 0
2, 141920, Note_on_c, 0, 76, 0
2, 141984, Note_on_c, 0, 67, 92
2, 141984, Note_on_c, 0, 76, 92
2, 142016, Note_on_c, 0, 67, 0
2, 142016, Note_on_c, 0, 76, 0
2, 142080, Note_on_c, 0, 67, 92
2, 142080, Note_on_c, 0, 79, 92
2, 142174, Note_on_c, 0, 67, 0
2, 142174, Note_on_c, 0, 79, 0
2, 142176, Note_on_c, 0, 78, 92
2, 142270, Note_on_c, 0, 78, 0
2, 142272, Note_on_c, 0, 77, 92
2, 142366, Note_on_c, 0, 77, 0
2, 142368, Note_on_c, 0, 74, 45
2, 142400, Note_on_c, 0, 74, 0
2, 142464, Note_on_c, 0, 71, 45
2, 142496, Note_on_c, 0, 71, 0
2, 142560, Note_on_c, 0, 71, 45
2, 142592, Note_on_c, 0, 71, 0
2, 142656, Note_on_c, 0, 71, 45
2, 142688, Note_on_c, 0, 71, 0
2, 142752, Note_on_c, 0, 71, 45
2, 142784, Note_on_c, 0, 71, 0
2, 142848, Note_on_c, 0, 64, 45
2, 142848, Note_on_c, 0, 72, 45
2, 142944, Note_on_c, 0, 64, 0
2, 142944, Note_on_c, 0, 72, 0
2, 142944, Note_on_c, 0, 76, 45
2, 143040, Note_on_c, 0, 76, 0
2, 143040, Note_on_c, 0, 65, 45
2, 143040, Note_on_c, 0, 74, 45
2, 143136, Note_on_c, 0, 65, 0
2, 143136, Note_on_c, 0, 74, 0
2, 143136, Note_on_c, 0, 71, 45
2, 143230, Note_on_c, 0, 71, 0
2, 143232, Note_on_c, 0, 64, 45
2, 143232, Note_on_c, 0, 72, 45
2, 143328, Note_on_c, 0, 64, 0
2, 143328, Note_on_c, 0, 72, 0
2, 143328, Note_on_c, 0, 76, 45
2, 143424, Note_on_c, 0, 76, 0
2, 143424, Note_on_c, 0, 65, 45
2, 143424, Note_on_c, 0, 74, 45
2, 143520, Note_on_c, 0, 65, 0
2, 143520, Note_on_c, 0, 74, 0
2, 143520, Note_on_c, 0, 71, 45
2, 143614, Note_on_c, 0, 71, 0
2, 143616, Note_on_c, 0, 64, 45
2, 143616, Note_on_c, 0, 72, 45
2, 143648, Note_on_c, 0, 64, 0
2, 143648, Note_on_c, 0, 72, 0
2, 143808, Note_on_c, 0, 67, 45
2, 143808, Note_on_c, 0, 76, 45
2, 143840, Note_on_c, 0, 67, 0
2, 143840, Note_on_c, 0, 76, 0
2, 144000, Note_on_c, 0, 64, 45
2, 144000, Note_on_c, 0, 72, 45
2, 144032, Note_on_c, 0, 64, 0
2, 144032, Note_on_c, 0, 72, 0
2, 144032, End_track
3, 0, Start_track
3, 0, MIDI_port, 0
3, 0, Title_t, "Left Hand"
3, 0, Program_c, 1, 0
3, 0, Control_c, 1, 7, 127
3, 0, Control_c, 1, 10, 64
3, 0, Note_on_c, 1, 48, 92
3, 160, Note_on_c, 1, 48, 0
3, 288, Note_on_c, 1, 43, 92
3, 320, Note_on_c, 1, 43, 0
3, 384, Note_on_c, 1, 48, 92
3, 544, Note_on_c, 1, 48, 0
3, 672, Note_on_c, 1, 43, 92
3, 704, Note_on_c, 1, 43, 0
3, 768, Note_on_c, 1, 48, 92
3, 800, Note_on_c, 1, 48, 0
3, 864, Note_on_c, 1, 52, 92
3, 896, Note_on_c, 1, 52, 0
3, 960, Note_on_c, 1, 55, 92
3, 992, Note_on_c, 1, 55, 0
3, 1056, Note_on_c, 1, 52, 92
3, 1088, Note_on_c, 1, 52, 0
3, 1152, Note_on_c, 1, 48, 92
3, 1312, Note_on_c, 1, 48, 0
3, 2304, Note_on_c, 1, 55, 45
3, 2464, Note_on_c, 1, 55, 0
3, 2496, Note_on_c, 1, 55, 45
3, 2656, Note_on_c, 1, 55, 0
3, 2688, Note_on_c, 1, 60, 45
3, 2720, Note_on_c, 1, 60, 0
3, 2784, Note_on_c, 1, 48, 45
3, 2880, Note_on_c, 1, 48, 0
3, 2880, Note_on_c, 1, 52, 45
3, 2976, Note_on_c, 1, 52, 0
3, 2976, Note_on_c, 1, 55, 45
3, 3070, Note_on_c, 1, 55, 0
3, 3072, Note_on_c, 1, 60, 45
3, 3232, Note_on_c, 1, 60, 0
3, 3840, Note_on_c, 1, 55, 45
3, 4000, Note_on_c, 1, 55, 0
3, 4032, Note_on_c, 1, 55, 45
3, 4192, Note_on_c, 1, 55, 0
3, 4224, Note_on_c, 1, 60, 45
3, 4256, Note_on_c, 1, 60, 0
3, 4320, Note_on_c, 1, 48, 45
3, 4416, Note_on_c, 1, 48, 0
3, 4416, Note_on_c, 1, 52, 45
3, 4512, Note_on_c, 1, 52, 0
3, 4512, Note_on_c, 1, 55, 45
3, 4606, Note_on_c, 1, 55, 0
3, 4608, Note_on_c, 1, 60, 92
3, 4640, Note_on_c, 1, 60, 0
3, 4704, Note_on_c, 1, 52, 92
3, 4800, Note_on_c, 1, 52, 0
3, 4800, Note_on_c, 1, 64, 92
3, 4894, Note_on_c, 1, 64, 0
3, 4896, Note_on_c, 1, 64, 92
3, 4928, Note_on_c, 1, 64, 0
3, 4992, Note_on_c, 1, 64, 92
3, 5024, Note_on_c, 1, 64, 0
3, 5088, Note_on_c, 1, 64, 92
3, 5120, Note_on_c, 1, 64, 0
3, 5184, Note_on_c, 1, 64, 92
3, 5216, Note_on_c, 1, 64, 0
3, 5280, Note_on_c, 1, 64, 92
3, 5312, Note_on_c, 1, 64, 0
3, 5472, Note_on_c, 1, 53, 92
3, 5568, Note_on_c, 1, 53, 0
3, 5568, Note_on_c, 1, 65, 92
3, 5662, Note_on_c, 1, 65, 0
3, 5664, Note_on_c, 1, 65, 92
3, 5696, Note_on_c, 1, 65, 0
3, 5760, Note_on_c, 1, 65, 92
3, 5792, Note_on_c, 1, 65, 0
3, 5856, Note_on_c, 1, 65, 92
3, 5888, Note_on_c, 1, 65, 0
3, 5952, Note_on_c, 1, 65, 92
3, 5984, Note_on_c, 1, 65, 0
3, 6048, Note_on_c, 1, 65, 92
3, 6080, Note_on_c, 1, 65, 0
3, 6144, Note_on_c, 1, 64, 92
3, 6176, Note_on_c, 1, 64, 0
3, 6336, Note_on_c, 1, 65, 92
3, 6368, Note_on_c, 1, 65, 0
3, 6528, Note_on_c, 1, 67, 92
3, 6560, Note_on_c, 1, 67, 0
3, 6720, Note_on_c, 1, 55, 92
3, 6752, Note_on_c, 1, 55, 0
3, 6912, Note_on_c, 1, 60, 45
3, 7072, Note_on_c, 1, 60, 0
3, 7104, Note_on_c, 1, 64, 45
3, 7136, Note_on_c, 1, 64, 0
3, 7200, Note_on_c, 1, 60, 45
3, 7232, Note_on_c, 1, 60, 0
3, 7296, Note_on_c, 1, 57, 45
3, 7456, Note_on_c, 1, 57, 0
3, 7488, Note_on_c, 1, 60, 45
3, 7520, Note_on_c, 1, 60, 0
3, 7584, Note_on_c, 1, 57, 45
3, 7616, Note_on_c, 1, 57, 0
3, 7680, Note_on_c, 1, 53, 45
3, 7840, Note_on_c, 1, 53, 0
3, 7872, Note_on_c, 1, 57, 45
3, 7904, Note_on_c, 1, 57, 0
3, 7968, Note_on_c, 1, 53, 45
3, 8000, Note_on_c, 1, 53, 0
3, 8064, Note_on_c, 1, 55, 45
3, 8224, Note_on_c, 1, 55, 0
3, 8256, Note_on_c, 1, 59, 45
3, 8288, Note_on_c, 1, 59, 0
3, 8352, Note_on_c, 1, 55, 45
3, 8384, Note_on_c, 1, 55, 0
3, 8448, Note_on_c, 1, 60, 45
3, 8608, Note_on_c, 1, 60, 0
3, 8640, Note_on_c, 1, 64, 45
3, 8672, Note_on_c, 1, 64, 0
3, 8736, Note_on_c, 1, 60, 45
3, 8768, Note_on_c, 1, 60, 0
3, 8832, Note_on_c, 1, 57, 45
3, 8992, Note_on_c, 1, 57, 0
3, 9024, Note_on_c, 1, 60, 45
3, 9056, Note_on_c, 1, 60, 0
3, 9120, Note_on_c, 1, 57, 45
3, 9152, Note_on_c, 1, 57, 0
3, 9216, Note_on_c, 1, 53, 45
3, 9376, Note_on_c, 1, 53, 0
3, 9408, Note_on_c, 1, 57, 45
3, 9440, Note_on_c, 1, 57, 0
3, 9504, Note_on_c, 1, 53, 45
3, 9536, Note_on_c, 1, 53, 0
3, 9600, Note_on_c, 1, 55, 45
3, 9760, Note_on_c, 1, 55, 0
3, 9792, Note_on_c, 1, 59, 45
3, 9824, Note_on_c, 1, 59, 0
3, 9888, Note_on_c, 1, 55, 45
3, 9920, Note_on_c, 1, 55, 0
3, 9984, Note_on_c, 1, 60, 92
3, 10144, Note_on_c, 1, 60, 0
3, 10368, Note_on_c, 1, 53, 92
3, 10528, Note_on_c, 1, 53, 0
3, 10560, Note_on_c, 1, 57, 92
3, 10656, Note_on_c, 1, 57, 0
3, 10656, Note_on_c, 1, 53, 92
3, 10750, Note_on_c, 1, 53, 0
3, 10752, Note_on_c, 1, 50, 92
3, 10912, Note_on_c, 1, 50, 0
3, 11136, Note_on_c, 1, 55, 92
3, 11296, Note_on_c, 1, 55, 0
3, 11328, Note_on_c, 1, 59, 92
3, 11424, Note_on_c, 1, 59, 0
3, 11424, Note_on_c, 1, 55, 92
3, 11518, Note_on_c, 1, 55, 0
3, 11520, Note_on_c, 1, 52, 92
3, 11680, Note_on_c, 1, 52, 0
3, 11904, Note_on_c, 1, 57, 92
3, 12064, Note_on_c, 1, 57, 0
3, 12096, Note_on_c, 1, 60, 92
3, 12192, Note_on_c, 1, 60, 0
3, 12192, Note_on_c, 1, 57, 92
3, 12286, Note_on_c, 1, 57, 0
3, 12288, Note_on_c, 1, 53, 92
3, 12448, Note_on_c, 1, 53, 0
3, 12672, Note_on_c, 1, 50, 92
3, 12832, Note_on_c, 1, 50, 0
3, 12864, Note_on_c, 1, 53, 92
3, 12960, Note_on_c, 1, 53, 0
3, 12960, Note_on_c, 1, 50, 92
3, 13054, Note_on_c, 1, 50, 0
3, 13056, Note_on_c, 1, 47, 92
3, 13152, Note_on_c, 1, 47, 0
3, 13152, Note_on_c, 1, 43, 93
3, 13248, Note_on_c, 1, 43, 0
3, 13248, Note_on_c, 1, 45, 94
3, 13344, Note_on_c, 1, 45, 0
3, 13344, Note_on_c, 1, 47, 95
3, 13438, Note_on_c, 1, 47, 0
3, 13440, Note_on_c, 1, 48, 96
3, 13536, Note_on_c, 1, 48, 0
3, 13536, Note_on_c, 1, 47, 97
3, 13632, Note_on_c, 1, 47, 0
3, 13632, Note_on_c, 1, 48, 98
3, 13728, Note_on_c, 1, 48, 0
3, 13728, Note_on_c, 1, 50, 99
3, 13822, Note_on_c, 1, 50, 0
3, 13824, Note_on_c, 1, 52, 100
3, 13984, Note_on_c, 1, 52, 0
3, 14016, Note_on_c, 1, 48, 102
3, 14112, Note_on_c, 1, 48, 0
3, 14112, Note_on_c, 1, 50, 103
3, 14208, Note_on_c, 1, 50, 0
3, 14208, Note_on_c, 1, 52, 104
3, 14304, Note_on_c, 1, 52, 0
3, 14304, Note_on_c, 1, 50, 105
3, 14400, Note_on_c, 1, 50, 0
3, 14400, Note_on_c, 1, 52, 106
3, 14496, Note_on_c, 1, 52, 0
3, 14496, Note_on_c, 1, 54, 107
3, 14590, Note_on_c, 1, 54, 0
3, 14592, Note_on_c, 1, 55, 108
3, 14686, Note_on_c, 1, 55, 0
3, 14784, Note_on_c, 1, 43, 108
3, 14816, Note_on_c, 1, 43, 0
3, 14880, Note_on_c, 1, 55, 108
3, 14912, Note_on_c, 1, 55, 0
3, 14976, Note_on_c, 1, 43, 108
3, 15008, Note_on_c, 1, 43, 0
3, 15072, Note_on_c, 1, 55, 108
3, 15104, Note_on_c, 1, 55, 0
3, 15168, Note_on_c, 1, 43, 108
3, 15200, Note_on_c, 1, 43, 0
3, 15264, Note_on_c, 1, 55, 108
3, 15296, Note_on_c, 1, 55, 0
3, 15360, Note_on_c, 1, 43, 108
3, 15392, Note_on_c, 1, 43, 0
3, 15456, Note_on_c, 1, 55, 108
3, 15488, Note_on_c, 1, 55, 0
3, 15552, Note_on_c, 1, 43, 108
3, 15584, Note_on_c, 1, 43, 0
3, 15648, Note_on_c, 1, 55, 108
3, 15680, Note_on_c, 1, 55, 0
3, 15744, Note_on_c, 1, 43, 108
3, 15776, Note_on_c, 1, 43, 0
3, 15840, Note_on_c, 1, 55, 108
3, 15872, Note_on_c, 1, 55, 0
3, 15936, Note_on_c, 1, 43, 108
3, 15968, Note_on_c, 1, 43, 0
3, 16032, Note_on_c, 1, 55, 108
3, 16064, Note_on_c, 1, 55, 0
3, 16128, Note_on_c, 1, 43, 108
3, 16176, Note_on_c, 1, 43, 0
3, 16320, Note_on_c, 1, 55, 108
3, 16368, Note_on_c, 1, 55, 0
3, 16512, Note_on_c, 1, 43, 108
3, 16560, Note_on_c, 1, 43, 0
3, 17280, Note_on_c, 1, 64, 45
3, 17664, Note_on_c, 1, 64, 0
3, 17664, Note_on_c, 1, 62, 45
3, 17758, Note_on_c, 1, 62, 0
3, 17856, Note_on_c, 1, 57, 45
3, 17888, Note_on_c, 1, 57, 0
3, 18048, Note_on_c, 1, 54, 45
3, 18080, Note_on_c, 1, 54, 0
3, 18240, Note_on_c, 1, 50, 45
3, 18272, Note_on_c, 1, 50, 0
3, 18816, Note_on_c, 1, 66, 45
3, 19200, Note_on_c, 1, 66, 0
3, 19200, Note_on_c, 1, 67, 45
3, 19294, Note_on_c, 1, 67, 0
3, 19392, Note_on_c, 1, 62, 45
3, 19424, Note_on_c, 1, 62, 0
3, 19584, Note_on_c, 1, 59, 45
3, 19616, Note_on_c, 1, 59, 0
3, 19776, Note_on_c, 1, 55, 45
3, 19808, Note_on_c, 1, 55, 0
3, 20352, Note_on_c, 1, 60, 45
3, 20352, Note_on_c, 1, 64, 45
3, 20736, Note_on_c, 1, 64, 0
3, 20736, Note_on_c, 1, 62, 45
3, 21120, Note_on_c, 1, 60, 0
3, 21120, Note_on_c, 1, 59, 45
3, 21456, Note_on_c, 1, 62, 0
3, 21456, Note_on_c, 1, 59, 0
3, 21504, Note_on_c, 1, 60, 45
3, 21552, Note_on_c, 1, 60, 0
3, 21696, Note_on_c, 1, 48, 45
3, 21744, Note_on_c, 1, 48, 0
3, 21888, Note_on_c, 1, 60, 45
3, 21888, Note_on_c, 1, 64, 45
3, 22272, Note_on_c, 1, 64, 0
3, 22272, Note_on_c, 1, 62, 45
3, 22656, Note_on_c, 1, 60, 0
3, 22656, Note_on_c, 1, 59, 45
3, 22992, Note_on_c, 1, 62, 0
3, 22992, Note_on_c, 1, 59, 0
3, 23040, Note_on_c, 1, 60, 45
3, 23088, Note_on_c, 1, 60, 0
3, 23232, Note_on_c, 1, 48, 45
3, 23280, Note_on_c, 1, 48, 0
3, 23424, Note_on_c, 1, 50, 45
3, 23472, Note_on_c, 1, 50, 0
3, 23616, Note_on_c, 1, 38, 45
3, 23664, Note_on_c, 1, 38, 0
3, 23808, Note_on_c, 1, 43, 45
3, 23968, Note_on_c, 1, 43, 0
3, 24096, Note_on_c, 1, 55, 92
3, 24128, Note_on_c, 1, 55, 0
3, 24192, Note_on_c, 1, 55, 92
3, 24224, Note_on_c, 1, 55, 0
3, 24288, Note_on_c, 1, 55, 92
3, 24320, Note_on_c, 1, 55, 0
3, 24384, Note_on_c, 1, 55, 92
3, 24416, Note_on_c, 1, 55, 0
3, 24480, Note_on_c, 1, 55, 92
3, 24512, Note_on_c, 1, 55, 0
3, 24576, Note_on_c, 1, 54, 92
3, 24736, Note_on_c, 1, 54, 0
3, 24960, Note_on_c, 1, 50, 45
3, 24992, Note_on_c, 1, 50, 0
3, 25056, Note_on_c, 1, 50, 45
3, 25088, Note_on_c, 1, 50, 0
3, 25152, Note_on_c, 1, 50, 45
3, 25184, Note_on_c, 1, 50, 0
3, 25248, Note_on_c, 1, 50, 45
3, 25280, Note_on_c, 1, 50, 0
3, 25344, Note_on_c, 1, 43, 45
3, 25504, Note_on_c, 1, 43, 0
3, 25632, Note_on_c, 1, 55, 92
3, 25664, Note_on_c, 1, 55, 0
3, 25728, Note_on_c, 1, 55, 92
3, 25760, Note_on_c, 1, 55, 0
3, 25824, Note_on_c, 1, 55, 92
3, 25856, Note_on_c, 1, 55, 0
3, 25920, Note_on_c, 1, 55, 92
3, 25952, Note_on_c, 1, 55, 0
3, 26016, Note_on_c, 1, 55, 92
3, 26048, Note_on_c, 1, 55, 0
3, 26112, Note_on_c, 1, 54, 92
3, 26272, Note_on_c, 1, 54, 0
3, 26496, Note_on_c, 1, 50, 45
3, 26528, Note_on_c, 1, 50, 0
3, 26592, Note_on_c, 1, 50, 45
3, 26624, Note_on_c, 1, 50, 0
3, 26688, Note_on_c, 1, 50, 45
3, 26720, Note_on_c, 1, 50, 0
3, 26784, Note_on_c, 1, 50, 45
3, 26816, Note_on_c, 1, 50, 0
3, 26880, Note_on_c, 1, 55, 45
3, 26912, Note_on_c, 1, 55, 0
3, 27072, Note_on_c, 1, 50, 45
3, 27104, Note_on_c, 1, 50, 0
3, 27264, Note_on_c, 1, 55, 45
3, 27296, Note_on_c, 1, 55, 0
3, 27456, Note_on_c, 1, 50, 45
3, 27488, Note_on_c, 1, 50, 0
3, 27648, Note_on_c, 1, 43, 45
3, 27680, Note_on_c, 1, 43, 0
3, 27840, Note_on_c, 1, 55, 45
3, 27872, Note_on_c, 1, 55, 0
3, 28032, Note_on_c, 1, 43, 45
3, 28064, Note_on_c, 1, 43, 0
3, 28416, Note_on_c, 1, 48, 92
3, 28576, Note_on_c, 1, 48, 0
3, 28704, Note_on_c, 1, 43, 92
3, 28736, Note_on_c, 1, 43, 0
3, 28800, Note_on_c, 1, 48, 92
3, 28960, Note_on_c, 1, 48, 0
3, 29088, Note_on_c, 1, 43, 92
3, 29120, Note_on_c, 1, 43, 0
3, 29184, Note_on_c, 1, 48, 92
3, 29216, Note_on_c, 1, 48, 0
3, 29280, Note_on_c, 1, 52, 92
3, 29312, Note_on_c, 1, 52, 0
3, 29376, Note_on_c, 1, 55, 92
3, 29408, Note_on_c, 1, 55, 0
3, 29472, Note_on_c, 1, 52, 92
3, 29504, Note_on_c, 1, 52, 0
3, 29568, Note_on_c, 1, 48, 92
3, 29728, Note_on_c, 1, 48, 0
3, 30720, Note_on_c, 1, 55, 45
3, 30880, Note_on_c, 1, 55, 0
3, 30912, Note_on_c, 1, 55, 45
3, 31072, Note_on_c, 1, 55, 0
3, 31104, Note_on_c, 1, 60, 45
3, 31136, Note_on_c, 1, 60, 0
3, 31200, Note_on_c, 1, 48, 45
3, 31296, Note_on_c, 1, 48, 0
3, 31296, Note_on_c, 1, 52, 45
3, 31392, Note_on_c, 1, 52, 0
3, 31392, Note_on_c, 1, 55, 45
3, 31486, Note_on_c, 1, 55, 0
3, 31488, Note_on_c, 1, 60, 45
3, 31648, Note_on_c, 1, 60, 0
3, 32256, Note_on_c, 1, 55, 45
3, 32416, Note_on_c, 1, 55, 0
3, 32448, Note_on_c, 1, 55, 45
3, 32608, Note_on_c, 1, 55, 0
3, 32640, Note_on_c, 1, 60, 45
3, 32672, Note_on_c, 1, 60, 0
3, 32736, Note_on_c, 1, 48, 45
3, 32832, Note_on_c, 1, 48, 0
3, 32832, Note_on_c, 1, 52, 45
3, 32928, Note_on_c, 1, 52, 0
3, 32928, Note_on_c, 1, 55, 45
3, 33022, Note_on_c, 1, 55, 0
3, 33024, Note_on_c, 1, 60, 92
3, 33056, Note_on_c, 1, 60, 0
3, 33120, Note_on_c, 1, 52, 92
3, 33216, Note_on_c, 1, 52, 0
3, 33216, Note_on_c, 1, 64, 92
3, 33310, Note_on_c, 1, 64, 0
3, 33312, Note_on_c, 1, 64, 92
3, 33344, Note_on_c, 1, 64, 0
3, 33408, Note_on_c, 1, 64, 92
3, 33440, Note_on_c, 1, 64, 0
3, 33504, Note_on_c, 1, 64, 92
3, 33536, Note_on_c, 1, 64, 0
3, 33600, Note_on_c, 1, 64, 92
3, 33632, Note_on_c, 1, 64, 0
3, 33696, Note_on_c, 1, 64, 92
3, 33728, Note_on_c, 1, 64, 0
3, 33888, Note_on_c, 1, 53, 92
3, 33984, Note_on_c, 1, 53, 0
3, 33984, Note_on_c, 1, 65, 92
3, 34078, Note_on_c, 1, 65, 0
3, 34080, Note_on_c, 1, 65, 92
3, 34112, Note_on_c, 1, 65, 0
3, 34176, Note_on_c, 1, 65, 92
3, 34208, Note_on_c, 1, 65, 0
3, 34272, Note_on_c, 1, 65, 92
3, 34304, Note_on_c, 1, 65, 0
3, 34368, Note_on_c, 1, 65, 92
3, 34400, Note_on_c, 1, 65, 0
3, 34464, Note_on_c, 1, 65, 92
3, 34496, Note_on_c, 1, 65, 0
3, 34560, Note_on_c, 1, 64, 92
3, 34592, Note_on_c, 1, 64, 0
3, 34752, Note_on_c, 1, 65, 92
3, 34784, Note_on_c, 1, 65, 0
3, 34944, Note_on_c, 1, 67, 92
3, 34976, Note_on_c, 1, 67, 0
3, 35136, Note_on_c, 1, 55, 92
3, 35168, Note_on_c, 1, 55, 0
3, 35328, Note_on_c, 1, 60, 45
3, 35488, Note_on_c, 1, 60, 0
3, 35520, Note_on_c, 1, 64, 45
3, 35552, Note_on_c, 1, 64, 0
3, 35616, Note_on_c, 1, 60, 45
3, 35648, Note_on_c, 1, 60, 0
3, 35712, Note_on_c, 1, 57, 45
3, 35872, Note_on_c, 1, 57, 0
3, 35904, Note_on_c, 1, 60, 45
3, 35936, Note_on_c, 1, 60, 0
3, 36000, Note_on_c, 1, 57, 45
3, 36032, Note_on_c, 1, 57, 0
3, 36096, Note_on_c, 1, 53, 45
3, 36256, Note_on_c, 1, 53, 0
3, 36288, Note_on_c, 1, 57, 45
3, 36320, Note_on_c, 1, 57, 0
3, 36384, Note_on_c, 1, 53, 45
3, 36416, Note_on_c, 1, 53, 0
3, 36480, Note_on_c, 1, 55, 45
3, 36640, Note_on_c, 1, 55, 0
3, 36672, Note_on_c, 1, 59, 45
3, 36704, Note_on_c, 1, 59, 0
3, 36768, Note_on_c, 1, 55, 45
3, 36800, Note_on_c, 1, 55, 0
3, 36864, Note_on_c, 1, 60, 45
3, 37024, Note_on_c, 1, 60, 0
3, 37056, Note_on_c, 1, 64, 45
3, 37088, Note_on_c, 1, 64, 0
3, 37152, Note_on_c, 1, 60, 45
3, 37184, Note_on_c, 1, 60, 0
3, 37248, Note_on_c, 1, 57, 45
3, 37408, Note_on_c, 1, 57, 0
3, 37440, Note_on_c, 1, 60, 45
3, 37472, Note_on_c, 1, 60, 0
3, 37536, Note_on_c, 1, 57, 45
3, 37568, Note_on_c, 1, 57, 0
3, 37632, Note_on_c, 1, 53, 45
3, 37792, Note_on_c, 1, 53, 0
3, 37824, Note_on_c, 1, 57, 45
3, 37856, Note_on_c, 1, 57, 0
3, 37920, Note_on_c, 1, 53, 45
3, 37952, Note_on_c, 1, 53, 0
3, 38016, Note_on_c, 1, 55, 45
3, 38176, Note_on_c, 1, 55, 0
3, 38208, Note_on_c, 1, 59, 45
3, 38240, Note_on_c, 1, 59, 0
3, 38304, Note_on_c, 1, 55, 45
3, 38336, Note_on_c, 1, 55, 0
3, 38400, Note_on_c, 1, 60, 92
3, 38560, Note_on_c, 1, 60, 0
3, 38784, Note_on_c, 1, 53, 92
3, 38944, Note_on_c, 1, 53, 0
3, 38976, Note_on_c, 1, 57, 92
3, 39072, Note_on_c, 1, 57, 0
3, 39072, Note_on_c, 1, 53, 92
3, 39166, Note_on_c, 1, 53, 0
3, 39168, Note_on_c, 1, 50, 92
3, 39328, Note_on_c, 1, 50, 0
3, 39552, Note_on_c, 1, 55, 92
3, 39712, Note_on_c, 1, 55, 0
3, 39744, Note_on_c, 1, 59, 92
3, 39840, Note_on_c, 1, 59, 0
3, 39840, Note_on_c, 1, 55, 92
3, 39934, Note_on_c, 1, 55, 0
3, 39936, Note_on_c, 1, 52, 92
3, 40096, Note_on_c, 1, 52, 0
3, 40320, Note_on_c, 1, 57, 92
3, 40480, Note_on_c, 1, 57, 0
3, 40512, Note_on_c, 1, 60, 92
3, 40608, Note_on_c, 1, 60, 0
3, 40608, Note_on_c, 1, 57, 92
3, 40702, Note_on_c, 1, 57, 0
3, 40704, Note_on_c, 1, 53, 92
3, 40864, Note_on_c, 1, 53, 0
3, 41088, Note_on_c, 1, 50, 92
3, 41248, Note_on_c, 1, 50, 0
3, 41280, Note_on_c, 1, 53, 92
3, 41376, Note_on_c, 1, 53, 0
3, 41376, Note_on_c, 1, 50, 92
3, 41470, Note_on_c, 1, 50, 0
3, 41472, Note_on_c, 1, 47, 92
3, 41568, Note_on_c, 1, 47, 0
3, 41568, Note_on_c, 1, 43, 93
3, 41664, Note_on_c, 1, 43, 0
3, 41664, Note_on_c, 1, 45, 94
3, 41760, Note_on_c, 1, 45, 0
3, 41760, Note_on_c, 1, 47, 95
3, 41854, Note_on_c, 1, 47, 0
3, 41856, Note_on_c, 1, 48, 96
3, 41952, Note_on_c, 1, 48, 0
3, 41952, Note_on_c, 1, 47, 97
3, 42048, Note_on_c, 1, 47, 0
3, 42048, Note_on_c, 1, 48, 98
3, 42144, Note_on_c, 1, 48, 0
3, 42144, Note_on_c, 1, 50, 99
3, 42238, Note_on_c, 1, 50, 0
3, 42240, Note_on_c, 1, 52, 100
3, 42400, Note_on_c, 1, 52, 0
3, 42432, Note_on_c, 1, 48, 102
3, 42528, Note_on_c, 1, 48, 0
3, 42528, Note_on_c, 1, 50, 103
3, 42624, Note_on_c, 1, 50, 0
3, 42624, Note_on_c, 1, 52, 104
3, 42720, Note_on_c, 1, 52, 0
3, 42720, Note_on_c, 1, 50, 105
3, 42816, Note_on_c, 1, 50, 0
3, 42816, Note_on_c, 1, 52, 106
3, 42912, Note_on_c, 1, 52, 0
3, 42912, Note_on_c, 1, 54, 107
3, 43006, Note_on_c, 1, 54, 0
3, 43008, Note_on_c, 1, 55, 108
3, 43102, Note_on_c, 1, 55, 0
3, 43200, Note_on_c, 1, 43, 108
3, 43232, Note_on_c, 1, 43, 0
3, 43296, Note_on_c, 1, 55, 108
3, 43328, Note_on_c, 1, 55, 0
3, 43392, Note_on_c, 1, 43, 108
3, 43424, Note_on_c, 1, 43, 0
3, 43488, Note_on_c, 1, 55, 108
3, 43520, Note_on_c, 1, 55, 0
3, 43584, Note_on_c, 1, 43, 108
3, 43616, Note_on_c, 1, 43, 0
3, 43680, Note_on_c, 1, 55, 108
3, 43712, Note_on_c, 1, 55, 0
3, 43776, Note_on_c, 1, 43, 108
3, 43808, Note_on_c, 1, 43, 0
3, 43872, Note_on_c, 1, 55, 108
3, 43904, Note_on_c, 1, 55, 0
3, 43968, Note_on_c, 1, 43, 108
3, 44000, Note_on_c, 1, 43, 0
3, 44064, Note_on_c, 1, 55, 108
3, 44096, Note_on_c, 1, 55, 0
3, 44160, Note_on_c, 1, 43, 108
3, 44192, Note_on_c, 1, 43, 0
3, 44256, Note_on_c, 1, 55, 108
3, 44288, Note_on_c, 1, 55, 0
3, 44352, Note_on_c, 1, 43, 108
3, 44384, Note_on_c, 1, 43, 0
3, 44448, Note_on_c, 1, 55, 108
3, 44480, Note_on_c, 1, 55, 0
3, 44544, Note_on_c, 1, 43, 108
3, 44592, Note_on_c, 1, 43, 0
3, 44736, Note_on_c, 1, 55, 108
3, 44784, Note_on_c, 1, 55, 0
3, 44928, Note_on_c, 1, 43, 108
3, 44976, Note_on_c, 1, 43, 0
3, 45696, Note_on_c, 1, 64, 45
3, 46080, Note_on_c, 1, 64, 0
3, 46080, Note_on_c, 1, 62, 45
3, 46174, Note_on_c, 1, 62, 0
3, 46272, Note_on_c, 1, 57, 45
3, 46304, Note_on_c, 1, 57, 0
3, 46464, Note_on_c, 1, 54, 45
3, 46496, Note_on_c, 1, 54, 0
3, 46656, Note_on_c, 1, 50, 45
3, 46688, Note_on_c, 1, 50, 0
3, 47232, Note_on_c, 1, 66, 45
3, 47616, Note_on_c, 1, 66, 0
3, 47616, Note_on_c, 1, 67, 45
3, 47710, Note_on_c, 1, 67, 0
3, 47808, Note_on_c, 1, 62, 45
3, 47840, Note_on_c, 1, 62, 0
3, 48000, Note_on_c, 1, 59, 45
3, 48032, Note_on_c, 1, 59, 0
3, 48192, Note_on_c, 1, 55, 45
3, 48224, Note_on_c, 1, 55, 0
3, 48768, Note_on_c, 1, 60, 45
3, 48768, Note_on_c, 1, 64, 45
3, 49152, Note_on_c, 1, 64, 0
3, 49152, Note_on_c, 1, 62, 45
3, 49536, Note_on_c, 1, 60, 0
3, 49536, Note_on_c, 1, 59, 45
3, 49872, Note_on_c, 1, 62, 0
3, 49872, Note_on_c, 1, 59, 0
3, 49920, Note_on_c, 1, 60, 45
3, 49968, Note_on_c, 1, 60, 0
3, 50112, Note_on_c, 1, 48, 45
3, 50160, Note_on_c, 1, 48, 0
3, 50304, Note_on_c, 1, 60, 45
3, 50304, Note_on_c, 1, 64, 45
3, 50688, Note_on_c, 1, 64, 0
3, 50688, Note_on_c, 1, 62, 45
3, 51072, Note_on_c, 1, 60, 0
3, 51072, Note_on_c, 1, 59, 45
3, 51408, Note_on_c, 1, 62, 0
3, 51408, Note_on_c, 1, 59, 0
3, 51456, Note_on_c, 1, 60, 45
3, 51504, Note_on_c, 1, 60, 0
3, 51648, Note_on_c, 1, 48, 45
3, 51696, Note_on_c, 1, 48, 0
3, 51840, Note_on_c, 1, 50, 45
3, 51888, Note_on_c, 1, 50, 0
3, 52032, Note_on_c, 1, 38, 45
3, 52080, Note_on_c, 1, 38, 0
3, 52224, Note_on_c, 1, 43, 45
3, 52384, Note_on_c, 1, 43, 0
3, 52512, Note_on_c, 1, 55, 92
3, 52544, Note_on_c, 1, 55, 0
3, 52608, Note_on_c, 1, 55, 92
3, 52640, Note_on_c, 1, 55, 0
3, 52704, Note_on_c, 1, 55, 92
3, 52736, Note_on_c, 1, 55, 0
3, 52800, Note_on_c, 1, 55, 92
3, 52832, Note_on_c, 1, 55, 0
3, 52896, Note_on_c, 1, 55, 92
3, 52928, Note_on_c, 1, 55, 0
3, 52992, Note_on_c, 1, 54, 92
3, 53152, Note_on_c, 1, 54, 0
3, 53376, Note_on_c, 1, 50, 45
3, 53408, Note_on_c, 1, 50, 0
3, 53472, Note_on_c, 1, 50, 45
3, 53504, Note_on_c, 1, 50, 0
3, 53568, Note_on_c, 1, 50, 45
3, 53600, Note_on_c, 1, 50, 0
3, 53664, Note_on_c, 1, 50, 45
3, 53696, Note_on_c, 1, 50, 0
3, 53760, Note_on_c, 1, 43, 45
3, 53920, Note_on_c, 1, 43, 0
3, 54048, Note_on_c, 1, 55, 92
3, 54080, Note_on_c, 1, 55, 0
3, 54144, Note_on_c, 1, 55, 92
3, 54176, Note_on_c, 1, 55, 0
3, 54240, Note_on_c, 1, 55, 92
3, 54272, Note_on_c, 1, 55, 0
3, 54336, Note_on_c, 1, 55, 92
3, 54368, Note_on_c, 1, 55, 0
3, 54432, Note_on_c, 1, 55, 92
3, 54464, Note_on_c, 1, 55, 0
3, 54528, Note_on_c, 1, 54, 92
3, 54688, Note_on_c, 1, 54, 0
3, 54912, Note_on_c, 1, 50, 45
3, 54944, Note_on_c, 1, 50, 0
3, 55008, Note_on_c, 1, 50, 45
3, 55040, Note_on_c, 1, 50, 0
3, 55104, Note_on_c, 1, 50, 45
3, 55136, Note_on_c, 1, 50, 0
3, 55200, Note_on_c, 1, 50, 45
3, 55232, Note_on_c, 1, 50, 0
3, 55296, Note_on_c, 1, 55, 45
3, 55328, Note_on_c, 1, 55, 0
3, 55488, Note_on_c, 1, 50, 45
3, 55520, Note_on_c, 1, 50, 0
3, 55680, Note_on_c, 1, 55, 45
3, 55712, Note_on_c, 1, 55, 0
3, 55872, Note_on_c, 1, 50, 45
3, 55904, Note_on_c, 1, 50, 0
3, 56064, Note_on_c, 1, 43, 45
3, 56096, Note_on_c, 1, 43, 0
3, 56256, Note_on_c, 1, 55, 45
3, 56288, Note_on_c, 1, 55, 0
3, 56448, Note_on_c, 1, 43, 45
3, 56480, Note_on_c, 1, 43, 0
3, 56832, Note_on_c, 1, 55, 92
3, 57216, Note_on_c, 1, 55, 0
3, 57216, Note_on_c, 1, 58, 92
3, 57552, Note_on_c, 1, 58, 0
3, 57600, Note_on_c, 1, 49, 92
3, 57648, Note_on_c, 1, 49, 0
3, 57792, Note_on_c, 1, 50, 92
3, 57840, Note_on_c, 1, 50, 0
3, 59136, Note_on_c, 1, 57, 45
3, 59184, Note_on_c, 1, 57, 0
3, 59328, Note_on_c, 1, 57, 45
3, 59376, Note_on_c, 1, 57, 0
3, 59520, Note_on_c, 1, 50, 45
3, 59568, Note_on_c, 1, 50, 0
3, 59904, Note_on_c, 1, 53, 45
3, 60288, Note_on_c, 1, 53, 0
3, 60288, Note_on_c, 1, 56, 45
3, 60624, Note_on_c, 1, 56, 0
3, 60672, Note_on_c, 1, 47, 45
3, 60720, Note_on_c, 1, 47, 0
3, 60864, Note_on_c, 1, 48, 45
3, 60912, Note_on_c, 1, 48, 0
3, 62208, Note_on_c, 1, 55, 45
3, 62256, Note_on_c, 1, 55, 0
3, 62400, Note_on_c, 1, 55, 45
3, 62448, Note_on_c, 1, 55, 0
3, 62592, Note_on_c, 1, 48, 45
3, 62640, Note_on_c, 1, 48, 0
3, 62976, Note_on_c, 1, 57, 45
3, 62976, Note_on_c, 1, 60, 45
3, 63024, Note_on_c, 1, 57, 0
3, 63024, Note_on_c, 1, 60, 0
3, 63168, Note_on_c, 1, 58, 56
3, 63168, Note_on_c, 1, 62, 56
3, 63552, Note_on_c, 1, 58, 0
3, 63552, Note_on_c, 1, 62, 0
3, 63552, Note_on_c, 1, 57, 80
3, 63552, Note_on_c, 1, 60, 80
3, 63712, Note_on_c, 1, 57, 0
3, 63712, Note_on_c, 1, 60, 0
3, 63744, Note_on_c, 1, 57, 92
3, 63744, Note_on_c, 1, 60, 92
3, 63840, Note_on_c, 1, 57, 0
3, 63840, Note_on_c, 1, 60, 0
3, 63840, Note_on_c, 1, 55, 92
3, 63840, Note_on_c, 1, 58, 92
3, 63934, Note_on_c, 1, 55, 0
3, 63934, Note_on_c, 1, 58, 0
3, 63936, Note_on_c, 1, 55, 92
3, 63936, Note_on_c, 1, 58, 92
3, 64032, Note_on_c, 1, 55, 0
3, 64032, Note_on_c, 1, 58, 0
3, 64032, Note_on_c, 1, 52, 92
3, 64032, Note_on_c, 1, 55, 92
3, 64126, Note_on_c, 1, 52, 0
3, 64126, Note_on_c, 1, 55, 0
3, 64128, Note_on_c, 1, 53, 92
3, 64128, Note_on_c, 1, 57, 92
3, 64288, Note_on_c, 1, 53, 0
3, 64288, Note_on_c, 1, 57, 0
3, 64608, Note_on_c, 1, 41, 92
3, 64640, Note_on_c, 1, 41, 0
3, 64704, Note_on_c, 1, 45, 92
3, 64736, Note_on_c, 1, 45, 0
3, 64800, Note_on_c, 1, 48, 92
3, 64832, Note_on_c, 1, 48, 0
3, 64896, Note_on_c, 1, 53, 92
3, 65056, Note_on_c, 1, 53, 0
3, 65280, Note_on_c, 1, 45, 92
3, 65760, Note_on_c, 1, 45, 0
3, 65760, Note_on_c, 1, 44, 92
3, 65856, Note_on_c, 1, 44, 0
3, 65856, Note_on_c, 1, 45, 92
3, 65952, Note_on_c, 1, 45, 0
3, 65952, Note_on_c, 1, 43, 92
3, 66046, Note_on_c, 1, 43, 0
3, 66048, Note_on_c, 1, 41, 92
3, 66432, Note_on_c, 1, 41, 0
3, 66432, Note_on_c, 1, 42, 92
3, 66768, Note_on_c, 1, 42, 0
3, 66816, Note_on_c, 1, 43, 92
3, 66864, Note_on_c, 1, 43, 0
3, 67008, Note_on_c, 1, 55, 127
3, 67294, Note_on_c, 1, 55, 0
3, 67296, Note_on_c, 1, 54, 92
3, 67392, Note_on_c, 1, 54, 0
3, 67392, Note_on_c, 1, 55, 92
3, 67488, Note_on_c, 1, 55, 0
3, 67488, Note_on_c, 1, 53, 92
3, 67582, Note_on_c, 1, 53, 0
3, 67584, Note_on_c, 1, 52, 92
3, 67680, Note_on_c, 1, 52, 0
3, 67680, Note_on_c, 1, 51, 92
3, 67776, Note_on_c, 1, 51, 0
3, 67776, Note_on_c, 1, 52, 92
3, 67872, Note_on_c, 1, 52, 0
3, 67872, Note_on_c, 1, 50, 92
3, 67966, Note_on_c, 1, 50, 0
3, 67968, Note_on_c, 1, 48, 92
3, 68160, Note_on_c, 1, 48, 0
3, 68160, Note_on_c, 1, 45, 92
3, 68320, Note_on_c, 1, 45, 0
3, 68352, Note_on_c, 1, 43, 92
3, 68400, Note_on_c, 1, 43, 0
3, 68544, Note_on_c, 1, 55, 127
3, 68830, Note_on_c, 1, 55, 0
3, 68832, Note_on_c, 1, 54, 92
3, 68928, Note_on_c, 1, 54, 0
3, 68928, Note_on_c, 1, 55, 92
3, 69024, Note_on_c, 1, 55, 0
3, 69024, Note_on_c, 1, 53, 92
3, 69118, Note_on_c, 1, 53, 0
3, 69120, Note_on_c, 1, 51, 92
3, 69216, Note_on_c, 1, 51, 0
3, 69216, Note_on_c, 1, 50, 92
3, 69312, Note_on_c, 1, 50, 0
3, 69312, Note_on_c, 1, 51, 92
3, 69408, Note_on_c, 1, 51, 0
3, 69408, Note_on_c, 1, 50, 92
3, 69502, Note_on_c, 1, 50, 0
3, 69504, Note_on_c, 1, 48, 92
3, 69696, Note_on_c, 1, 48, 0
3, 69696, Note_on_c, 1, 56, 92
3, 69856, Note_on_c, 1, 56, 0
3, 69888, Note_on_c, 1, 55, 92
3, 69982, Note_on_c, 1, 55, 0
3, 70080, Note_on_c, 1, 43, 92
3, 70174, Note_on_c, 1, 43, 0
3, 70176, Note_on_c, 1, 55, 92
3, 70208, Note_on_c, 1, 55, 0
3, 70272, Note_on_c, 1, 43, 92
3, 70304, Note_on_c, 1, 43, 0
3, 70368, Note_on_c, 1, 55, 92
3, 70400, Note_on_c, 1, 55, 0
3, 70464, Note_on_c, 1, 43, 92
3, 70496, Note_on_c, 1, 43, 0
3, 70560, Note_on_c, 1, 55, 92
3, 70592, Note_on_c, 1, 55, 0
3, 70656, Note_on_c, 1, 43, 92
3, 70688, Note_on_c, 1, 43, 0
3, 70752, Note_on_c, 1, 55, 92
3, 70784, Note_on_c, 1, 55, 0
3, 70848, Note_on_c, 1, 43, 92
3, 70880, Note_on_c, 1, 43, 0
3, 70944, Note_on_c, 1, 55, 92
3, 70976, Note_on_c, 1, 55, 0
3, 71040, Note_on_c, 1, 43, 92
3, 71072, Note_on_c, 1, 43, 0
3, 71136, Note_on_c, 1, 55, 92
3, 71168, Note_on_c, 1, 55, 0
3, 71232, Note_on_c, 1, 43, 92
3, 71264, Note_on_c, 1, 43, 0
3, 71328, Note_on_c, 1, 55, 92
3, 71360, Note_on_c, 1, 55, 0
3, 71424, Note_on_c, 1, 43, 92
3, 71472, Note_on_c, 1, 43, 0
3, 71616, Note_on_c, 1, 55, 92
3, 71664, Note_on_c, 1, 55, 0
3, 71808, Note_on_c, 1, 43, 92
3, 71856, Note_on_c, 1, 43, 0
3, 72192, Note_on_c, 1, 48, 92
3, 72352, Note_on_c, 1, 48, 0
3, 72480, Note_on_c, 1, 43, 92
3, 72512, Note_on_c, 1, 43, 0
3, 72576, Note_on_c, 1, 48, 92
3, 72736, Note_on_c, 1, 48, 0
3, 72864, Note_on_c, 1, 43, 92
3, 72896, Note_on_c, 1, 43, 0
3, 72960, Note_on_c, 1, 48, 92
3, 72992, Note_on_c, 1, 48, 0
3, 73056, Note_on_c, 1, 52, 92
3, 73088, Note_on_c, 1, 52, 0
3, 73152, Note_on_c, 1, 55, 92
3, 73184, Note_on_c, 1, 55, 0
3, 73248, Note_on_c, 1, 52, 92
3, 73280, Note_on_c, 1, 52, 0
3, 73344, Note_on_c, 1, 48, 92
3, 73504, Note_on_c, 1, 48, 0
3, 74496, Note_on_c, 1, 55, 45
3, 74656, Note_on_c, 1, 55, 0
3, 74688, Note_on_c, 1, 55, 45
3, 74848, Note_on_c, 1, 55, 0
3, 74880, Note_on_c, 1, 60, 45
3, 74912, Note_on_c, 1, 60, 0
3, 74976, Note_on_c, 1, 48, 45
3, 75072, Note_on_c, 1, 48, 0
3, 75072, Note_on_c, 1, 52, 45
3, 75168, Note_on_c, 1, 52, 0
3, 75168, Note_on_c, 1, 55, 45
3, 75262, Note_on_c, 1, 55, 0
3, 75264, Note_on_c, 1, 60, 45
3, 75424, Note_on_c, 1, 60, 0
3, 76032, Note_on_c, 1, 55, 45
3, 76192, Note_on_c, 1, 55, 0
3, 76224, Note_on_c, 1, 55, 45
3, 76384, Note_on_c, 1, 55, 0
3, 76416, Note_on_c, 1, 60, 45
3, 76448, Note_on_c, 1, 60, 0
3, 76512, Note_on_c, 1, 48, 45
3, 76608, Note_on_c, 1, 48, 0
3, 76608, Note_on_c, 1, 52, 45
3, 76704, Note_on_c, 1, 52, 0
3, 76704, Note_on_c, 1, 55, 45
3, 76798, Note_on_c, 1, 55, 0
3, 76800, Note_on_c, 1, 60, 92
3, 76832, Note_on_c, 1, 60, 0
3, 76896, Note_on_c, 1, 52, 92
3, 76992, Note_on_c, 1, 52, 0
3, 76992, Note_on_c, 1, 64, 92
3, 77086, Note_on_c, 1, 64, 0
3, 77088, Note_on_c, 1, 64, 92
3, 77120, Note_on_c, 1, 64, 0
3, 77184, Note_on_c, 1, 64, 92
3, 77216, Note_on_c, 1, 64, 0
3, 77280, Note_on_c, 1, 64, 92
3, 77312, Note_on_c, 1, 64, 0
3, 77376, Note_on_c, 1, 64, 92
3, 77408, Note_on_c, 1, 64, 0
3, 77472, Note_on_c, 1, 64, 92
3, 77504, Note_on_c, 1, 64, 0
3, 77664, Note_on_c, 1, 53, 92
3, 77760, Note_on_c, 1, 53, 0
3, 77760, Note_on_c, 1, 65, 92
3, 77854, Note_on_c, 1, 65, 0
3, 77856, Note_on_c, 1, 65, 92
3, 77888, Note_on_c, 1, 65, 0
3, 77952, Note_on_c, 1, 65, 92
3, 77984, Note_on_c, 1, 65, 0
3, 78048, Note_on_c, 1, 65, 92
3, 78080, Note_on_c, 1, 65, 0
3, 78144, Note_on_c, 1, 65, 92
3, 78176, Note_on_c, 1, 65, 0
3, 78240, Note_on_c, 1, 65, 92
3, 78272, Note_on_c, 1, 65, 0
3, 78336, Note_on_c, 1, 64, 92
3, 78368, Note_on_c, 1, 64, 0
3, 78528, Note_on_c, 1, 65, 92
3, 78560, Note_on_c, 1, 65, 0
3, 78720, Note_on_c, 1, 67, 92
3, 78752, Note_on_c, 1, 67, 0
3, 78912, Note_on_c, 1, 55, 92
3, 78944, Note_on_c, 1, 55, 0
3, 79104, Note_on_c, 1, 60, 45
3, 79264, Note_on_c, 1, 60, 0
3, 79296, Note_on_c, 1, 64, 45
3, 79328, Note_on_c, 1, 64, 0
3, 79392, Note_on_c, 1, 60, 45
3, 79424, Note_on_c, 1, 60, 0
3, 79488, Note_on_c, 1, 57, 45
3, 79648, Note_on_c, 1, 57, 0
3, 79680, Note_on_c, 1, 60, 45
3, 79712, Note_on_c, 1, 60, 0
3, 79776, Note_on_c, 1, 57, 45
3, 79808, Note_on_c, 1, 57, 0
3, 79872, Note_on_c, 1, 53, 45
3, 80032, Note_on_c, 1, 53, 0
3, 80064, Note_on_c, 1, 57, 45
3, 80096, Note_on_c, 1, 57, 0
3, 80160, Note_on_c, 1, 53, 45
3, 80192, Note_on_c, 1, 53, 0
3, 80256, Note_on_c, 1, 55, 45
3, 80416, Note_on_c, 1, 55, 0
3, 80448, Note_on_c, 1, 59, 45
3, 80480, Note_on_c, 1, 59, 0
3, 80544, Note_on_c, 1, 55, 45
3, 80576, Note_on_c, 1, 55, 0
3, 80640, Note_on_c, 1, 60, 45
3, 80800, Note_on_c, 1, 60, 0
3, 80832, Note_on_c, 1, 64, 45
3, 80864, Note_on_c, 1, 64, 0
3, 80928, Note_on_c, 1, 60, 45
3, 80960, Note_on_c, 1, 60, 0
3, 81024, Note_on_c, 1, 57, 45
3, 81184, Note_on_c, 1, 57, 0
3, 81216, Note_on_c, 1, 60, 45
3, 81248, Note_on_c, 1, 60, 0
3, 81312, Note_on_c, 1, 57, 45
3, 81344, Note_on_c, 1, 57, 0
3, 81408, Note_on_c, 1, 53, 45
3, 81568, Note_on_c, 1, 53, 0
3, 81600, Note_on_c, 1, 57, 45
3, 81632, Note_on_c, 1, 57, 0
3, 81696, Note_on_c, 1, 53, 45
3, 81728, Note_on_c, 1, 53, 0
3, 81792, Note_on_c, 1, 55, 45
3, 81952, Note_on_c, 1, 55, 0
3, 81984, Note_on_c, 1, 59, 45
3, 82016, Note_on_c, 1, 59, 0
3, 82080, Note_on_c, 1, 55, 45
3, 82112, Note_on_c, 1, 55, 0
3, 82176, Note_on_c, 1, 60, 92
3, 82336, Note_on_c, 1, 60, 0
3, 82560, Note_on_c, 1, 53, 92
3, 82720, Note_on_c, 1, 53, 0
3, 82752, Note_on_c, 1, 57, 92
3, 82848, Note_on_c, 1, 57, 0
3, 82848, Note_on_c, 1, 53, 92
3, 82942, Note_on_c, 1, 53, 0
3, 82944, Note_on_c, 1, 50, 92
3, 83104, Note_on_c, 1, 50, 0
3, 83328, Note_on_c, 1, 55, 92
3, 83488, Note_on_c, 1, 55, 0
3, 83520, Note_on_c, 1, 59, 92
3, 83616, Note_on_c, 1, 59, 0
3, 83616, Note_on_c, 1, 55, 92
3, 83710, Note_on_c, 1, 55, 0
3, 83712, Note_on_c, 1, 52, 92
3, 83872, Note_on_c, 1, 52, 0
3, 84096, Note_on_c, 1, 57, 92
3, 84256, Note_on_c, 1, 57, 0
3, 84288, Note_on_c, 1, 60, 92
3, 84384, Note_on_c, 1, 60, 0
3, 84384, Note_on_c, 1, 57, 92
3, 84478, Note_on_c, 1, 57, 0
3, 84480, Note_on_c, 1, 53, 92
3, 84640, Note_on_c, 1, 53, 0
3, 84864, Note_on_c, 1, 50, 92
3, 85024, Note_on_c, 1, 50, 0
3, 85056, Note_on_c, 1, 53, 92
3, 85152, Note_on_c, 1, 53, 0
3, 85152, Note_on_c, 1, 50, 92
3, 85246, Note_on_c, 1, 50, 0
3, 85248, Note_on_c, 1, 47, 92
3, 85344, Note_on_c, 1, 47, 0
3, 85344, Note_on_c, 1, 43, 93
3, 85440, Note_on_c, 1, 43, 0
3, 85440, Note_on_c, 1, 45, 94
3, 85536, Note_on_c, 1, 45, 0
3, 85536, Note_on_c, 1, 47, 95
3, 85630, Note_on_c, 1, 47, 0
3, 85632, Note_on_c, 1, 48, 96
3, 85728, Note_on_c, 1, 48, 0
3, 85728, Note_on_c, 1, 47, 97
3, 85824, Note_on_c, 1, 47, 0
3, 85824, Note_on_c, 1, 48, 98
3, 85920, Note_on_c, 1, 48, 0
3, 85920, Note_on_c, 1, 50, 99
3, 86014, Note_on_c, 1, 50, 0
3, 86016, Note_on_c, 1, 52, 100
3, 86176, Note_on_c, 1, 52, 0
3, 86208, Note_on_c, 1, 48, 102
3, 86304, Note_on_c, 1, 48, 0
3, 86304, Note_on_c, 1, 50, 103
3, 86400, Note_on_c, 1, 50, 0
3, 86400, Note_on_c, 1, 52, 104
3, 86496, Note_on_c, 1, 52, 0
3, 86496, Note_on_c, 1, 50, 105
3, 86592, Note_on_c, 1, 50, 0
3, 86592, Note_on_c, 1, 52, 106
3, 86688, Note_on_c, 1, 52, 0
3, 86688, Note_on_c, 1, 54, 107
3, 86782, Note_on_c, 1, 54, 0
3, 86784, Note_on_c, 1, 55, 108
3, 86880, Note_on_c, 1, 55, 0
3, 86880, Note_on_c, 1, 59, 108
3, 86974, Note_on_c, 1, 59, 0
3, 86976, Note_on_c, 1, 62, 108
3, 87008, Note_on_c, 1, 62, 0
3, 87072, Note_on_c, 1, 67, 108
3, 87104, Note_on_c, 1, 67, 0
3, 87168, Note_on_c, 1, 64, 108
3, 87264, Note_on_c, 1, 64, 0
3, 87264, Note_on_c, 1, 67, 108
3, 87358, Note_on_c, 1, 67, 0
3, 87360, Note_on_c, 1, 64, 108
3, 87392, Note_on_c, 1, 64, 0
3, 87456, Note_on_c, 1, 60, 108
3, 87488, Note_on_c, 1, 60, 0
3, 87552, Note_on_c, 1, 59, 108
3, 87648, Note_on_c, 1, 59, 0
3, 87648, Note_on_c, 1, 62, 108
3, 87742, Note_on_c, 1, 62, 0
3, 87744, Note_on_c, 1, 59, 108
3, 87776, Note_on_c, 1, 59, 0
3, 87840, Note_on_c, 1, 55, 108
3, 87872, Note_on_c, 1, 55, 0
3, 87936, Note_on_c, 1, 52, 108
3, 88032, Note_on_c, 1, 52, 0
3, 88032, Note_on_c, 1, 55, 108
3, 88126, Note_on_c, 1, 55, 0
3, 88128, Note_on_c, 1, 52, 108
3, 88160, Note_on_c, 1, 52, 0
3, 88224, Note_on_c, 1, 48, 108
3, 88256, Note_on_c, 1, 48, 0
3, 88320, Note_on_c, 1, 55, 108
3, 88368, Note_on_c, 1, 55, 0
3, 88512, Note_on_c, 1, 55, 108
3, 88560, Note_on_c, 1, 55, 0
3, 88704, Note_on_c, 1, 55, 108
3, 88752, Note_on_c, 1, 55, 0
3, 89472, Note_on_c, 1, 57, 45
3, 89856, Note_on_c, 1, 57, 0
3, 89856, Note_on_c, 1, 55, 45
3, 89888, Note_on_c, 1, 55, 0
3, 90048, Note_on_c, 1, 50, 45
3, 90080, Note_on_c, 1, 50, 0
3, 90240, Note_on_c, 1, 47, 45
3, 90272, Note_on_c, 1, 47, 0
3, 90432, Note_on_c, 1, 43, 45
3, 90464, Note_on_c, 1, 43, 0
3, 91008, Note_on_c, 1, 59, 45
3, 91392, Note_on_c, 1, 59, 0
3, 91392, Note_on_c, 1, 60, 45
3, 91424, Note_on_c, 1, 60, 0
3, 91584, Note_on_c, 1, 55, 45
3, 91616, Note_on_c, 1, 55, 0
3, 91776, Note_on_c, 1, 52, 45
3, 91808, Note_on_c, 1, 52, 0
3, 91968, Note_on_c, 1, 48, 45
3, 92000, Note_on_c, 1, 48, 0
3, 92544, Note_on_c, 1, 53, 45
3, 92544, Note_on_c, 1, 62, 45
3, 93312, Note_on_c, 1, 53, 0
3, 93312, Note_on_c, 1, 62, 0
3, 93312, Note_on_c, 1, 52, 92
3, 93312, Note_on_c, 1, 60, 92
3, 93472, Note_on_c, 1, 52, 0
3, 93472, Note_on_c, 1, 60, 0
3, 93696, Note_on_c, 1, 53, 45
3, 93744, Note_on_c, 1, 53, 0
3, 93888, Note_on_c, 1, 41, 52
3, 93936, Note_on_c, 1, 41, 0
3, 94080, Note_on_c, 1, 53, 60
3, 94080, Note_on_c, 1, 62, 60
3, 94800, Note_on_c, 1, 53, 0
3, 94800, Note_on_c, 1, 62, 0
3, 94848, Note_on_c, 1, 52, 92
3, 94944, Note_on_c, 1, 52, 0
3, 94944, Note_on_c, 1, 64, 92
3, 95040, Note_on_c, 1, 64, 0
3, 95040, Note_on_c, 1, 62, 77
3, 95136, Note_on_c, 1, 62, 0
3, 95136, Note_on_c, 1, 60, 61
3, 95230, Note_on_c, 1, 60, 0
3, 95232, Note_on_c, 1, 53, 45
3, 95232, Note_on_c, 1, 57, 45
3, 95424, Note_on_c, 1, 53, 0
3, 95424, Note_on_c, 1, 57, 0
3, 95424, Note_on_c, 1, 50, 45
3, 95584, Note_on_c, 1, 50, 0
3, 95616, Note_on_c, 1, 55, 45
3, 95664, Note_on_c, 1, 55, 0
3, 95808, Note_on_c, 1, 43, 45
3, 95856, Note_on_c, 1, 43, 0
3, 96000, Note_on_c, 1, 48, 45
3, 96160, Note_on_c, 1, 48, 0
3, 96288, Note_on_c, 1, 48, 92
3, 96320, Note_on_c, 1, 48, 0
3, 96384, Note_on_c, 1, 48, 92
3, 96416, Note_on_c, 1, 48, 0
3, 96480, Note_on_c, 1, 48, 92
3, 96512, Note_on_c, 1, 48, 0
3, 96576, Note_on_c, 1, 48, 92
3, 96608, Note_on_c, 1, 48, 0
3, 96672, Note_on_c, 1, 48, 92
3, 96704, Note_on_c, 1, 48, 0
3, 96768, Note_on_c, 1, 47, 92
3, 96928, Note_on_c, 1, 47, 0
3, 97152, Note_on_c, 1, 55, 45
3, 97184, Note_on_c, 1, 55, 0
3, 97248, Note_on_c, 1, 55, 45
3, 97280, Note_on_c, 1, 55, 0
3, 97344, Note_on_c, 1, 55, 45
3, 97376, Note_on_c, 1, 55, 0
3, 97440, Note_on_c, 1, 55, 45
3, 97472, Note_on_c, 1, 55, 0
3, 97536, Note_on_c, 1, 48, 45
3, 97696, Note_on_c, 1, 48, 0
3, 97824, Note_on_c, 1, 48, 92
3, 97856, Note_on_c, 1, 48, 0
3, 97920, Note_on_c, 1, 48, 92
3, 97952, Note_on_c, 1, 48, 0
3, 98016, Note_on_c, 1, 48, 92
3, 98048, Note_on_c, 1, 48, 0
3, 98112, Note_on_c, 1, 48, 92
3, 98144, Note_on_c, 1, 48, 0
3, 98208, Note_on_c, 1, 48, 92
3, 98240, Note_on_c, 1, 48, 0
3, 98304, Note_on_c, 1, 47, 92
3, 98464, Note_on_c, 1, 47, 0
3, 98688, Note_on_c, 1, 55, 45
3, 98688, Note_on_c, 1, 65, 45
3, 98720, Note_on_c, 1, 55, 0
3, 98720, Note_on_c, 1, 65, 0
3, 98784, Note_on_c, 1, 55, 45
3, 98784, Note_on_c, 1, 65, 45
3, 98816, Note_on_c, 1, 55, 0
3, 98816, Note_on_c, 1, 65, 0
3, 98880, Note_on_c, 1, 55, 45
3, 98880, Note_on_c, 1, 65, 45
3, 98912, Note_on_c, 1, 55, 0
3, 98912, Note_on_c, 1, 65, 0
3, 98976, Note_on_c, 1, 55, 45
3, 98976, Note_on_c, 1, 65, 45
3, 99008, Note_on_c, 1, 55, 0
3, 99008, Note_on_c, 1, 65, 0
3, 99072, Note_on_c, 1, 60, 45
3, 99104, Note_on_c, 1, 60, 0
3, 99264, Note_on_c, 1, 55, 45
3, 99296, Note_on_c, 1, 55, 0
3, 99456, Note_on_c, 1, 60, 45
3, 99488, Note_on_c, 1, 60, 0
3, 99648, Note_on_c, 1, 55, 45
3, 99680, Note_on_c, 1, 55, 0
3, 99840, Note_on_c, 1, 48, 45
3, 99872, Note_on_c, 1, 48, 0
3, 100032, Note_on_c, 1, 60, 45
3, 100064, Note_on_c, 1, 60, 0
3, 100224, Note_on_c, 1, 48, 45
3, 100256, Note_on_c, 1, 48, 0
3, 100608, Note_on_c, 1, 55, 92
3, 100992, Note_on_c, 1, 55, 0
3, 100992, Note_on_c, 1, 58, 92
3, 101328, Note_on_c, 1, 58, 0
3, 101376, Note_on_c, 1, 49, 92
3, 101424, Note_on_c, 1, 49, 0
3, 101568, Note_on_c, 1, 50, 92
3, 101616, Note_on_c, 1, 50, 0
3, 102912, Note_on_c, 1, 57, 45
3, 102960, Note_on_c, 1, 57, 0
3, 103104, Note_on_c, 1, 57, 45
3, 103152, Note_on_c, 1, 57, 0
3, 103296, Note_on_c, 1, 50, 45
3, 103344, Note_on_c, 1, 50, 0
3, 103680, Note_on_c, 1, 53, 45
3, 104064, Note_on_c, 1, 53, 0
3, 104064, Note_on_c, 1, 56, 45
3, 104400, Note_on_c, 1, 56, 0
3, 104448, Note_on_c, 1, 47, 45
3, 104496, Note_on_c, 1, 47, 0
3, 104640, Note_on_c, 1, 48, 45
3, 104688, Note_on_c, 1, 48, 0
3, 105984, Note_on_c, 1, 55, 45
3, 106032, Note_on_c, 1, 55, 0
3, 106176, Note_on_c, 1, 55, 45
3, 106224, Note_on_c, 1, 55, 0
3, 106368, Note_on_c, 1, 48, 45
3, 106416, Note_on_c, 1, 48, 0
3, 106752, Note_on_c, 1, 57, 45
3, 106752, Note_on_c, 1, 60, 45
3, 106800, Note_on_c, 1, 57, 0
3, 106800, Note_on_c, 1, 60, 0
3, 106944, Note_on_c, 1, 58, 56
3, 106944, Note_on_c, 1, 62, 56
3, 107328, Note_on_c, 1, 58, 0
3, 107328, Note_on_c, 1, 62, 0
3, 107328, Note_on_c, 1, 57, 80
3, 107328, Note_on_c, 1, 60, 80
3, 107488, Note_on_c, 1, 57, 0
3, 107488, Note_on_c, 1, 60, 0
3, 107520, Note_on_c, 1, 57, 92
3, 107520, Note_on_c, 1, 60, 92
3, 107616, Note_on_c, 1, 57, 0
3, 107616, Note_on_c, 1, 60, 0
3, 107616, Note_on_c, 1, 55, 92
3, 107616, Note_on_c, 1, 58, 92
3, 107710, Note_on_c, 1, 55, 0
3, 107710, Note_on_c, 1, 58, 0
3, 107712, Note_on_c, 1, 55, 92
3, 107712, Note_on_c, 1, 58, 92
3, 107808, Note_on_c, 1, 55, 0
3, 107808, Note_on_c, 1, 58, 0
3, 107808, Note_on_c, 1, 52, 92
3, 107808, Note_on_c, 1, 55, 92
3, 107902, Note_on_c, 1, 52, 0
3, 107902, Note_on_c, 1, 55, 0
3, 107904, Note_on_c, 1, 53, 92
3, 107904, Note_on_c, 1, 57, 92
3, 108064, Note_on_c, 1, 53, 0
3, 108064, Note_on_c, 1, 57, 0
3, 108384, Note_on_c, 1, 41, 92
3, 108416, Note_on_c, 1, 41, 0
3, 108480, Note_on_c, 1, 45, 92
3, 108512, Note_on_c, 1, 45, 0
3, 108576, Note_on_c, 1, 48, 92
3, 108608, Note_on_c, 1, 48, 0
3, 108672, Note_on_c, 1, 53, 92
3, 108832, Note_on_c, 1, 53, 0
3, 109056, Note_on_c, 1, 45, 92
3, 109536, Note_on_c, 1, 45, 0
3, 109536, Note_on_c, 1, 44, 92
3, 109632, Note_on_c, 1, 44, 0
3, 109632, Note_on_c, 1, 45, 92
3, 109728, Note_on_c, 1, 45, 0
3, 109728, Note_on_c, 1, 43, 92
3, 109822, Note_on_c, 1, 43, 0
3, 109824, Note_on_c, 1, 41, 92
3, 110208, Note_on_c, 1, 41, 0
3, 110208, Note_on_c, 1, 42, 92
3, 110544, Note_on_c, 1, 42, 0
3, 110592, Note_on_c, 1, 43, 92
3, 110640, Note_on_c, 1, 43, 0
3, 110784, Note_on_c, 1, 55, 127
3, 111070, Note_on_c, 1, 55, 0
3, 111072, Note_on_c, 1, 54, 92
3, 111168, Note_on_c, 1, 54, 0
3, 111168, Note_on_c, 1, 55, 92
3, 111264, Note_on_c, 1, 55, 0
3, 111264, Note_on_c, 1, 53, 92
3, 111358, Note_on_c, 1, 53, 0
3, 111360, Note_on_c, 1, 52, 92
3, 111456, Note_on_c, 1, 52, 0
3, 111456, Note_on_c, 1, 51, 92
3, 111552, Note_on_c, 1, 51, 0
3, 111552, Note_on_c, 1, 52, 92
3, 111648, Note_on_c, 1, 52, 0
3, 111648, Note_on_c, 1, 50, 92
3, 111742, Note_on_c, 1, 50, 0
3, 111744, Note_on_c, 1, 48, 92
3, 111936, Note_on_c, 1, 48, 0
3, 111936, Note_on_c, 1, 45, 92
3, 112096, Note_on_c, 1, 45, 0
3, 112128, Note_on_c, 1, 43, 92
3, 112176, Note_on_c, 1, 43, 0
3, 112320, Note_on_c, 1, 55, 127
3, 112606, Note_on_c, 1, 55, 0
3, 112608, Note_on_c, 1, 54, 92
3, 112704, Note_on_c, 1, 54, 0
3, 112704, Note_on_c, 1, 55, 92
3, 112800, Note_on_c, 1, 55, 0
3, 112800, Note_on_c, 1, 53, 92
3, 112894, Note_on_c, 1, 53, 0
3, 112896, Note_on_c, 1, 51, 92
3, 112992, Note_on_c, 1, 51, 0
3, 112992, Note_on_c, 1, 50, 92
3, 113088, Note_on_c, 1, 50, 0
3, 113088, Note_on_c, 1, 51, 92
3, 113184, Note_on_c, 1, 51, 0
3, 113184, Note_on_c, 1, 50, 92
3, 113278, Note_on_c, 1, 50, 0
3, 113280, Note_on_c, 1, 48, 92
3, 113472, Note_on_c, 1, 48, 0
3, 113472, Note_on_c, 1, 56, 92
3, 113632, Note_on_c, 1, 56, 0
3, 113664, Note_on_c, 1, 55, 92
3, 113758, Note_on_c, 1, 55, 0
3, 113856, Note_on_c, 1, 43, 92
3, 113950, Note_on_c, 1, 43, 0
3, 113952, Note_on_c, 1, 55, 92
3, 113984, Note_on_c, 1, 55, 0
3, 114048, Note_on_c, 1, 43, 92
3, 114080, Note_on_c, 1, 43, 0
3, 114144, Note_on_c, 1, 55, 92
3, 114176, Note_on_c, 1, 55, 0
3, 114240, Note_on_c, 1, 43, 92
3, 114272, Note_on_c, 1, 43, 0
3, 114336, Note_on_c, 1, 55, 92
3, 114368, Note_on_c, 1, 55, 0
3, 114432, Note_on_c, 1, 43, 92
3, 114464, Note_on_c, 1, 43, 0
3, 114528, Note_on_c, 1, 55, 92
3, 114560, Note_on_c, 1, 55, 0
3, 114624, Note_on_c, 1, 43, 92
3, 114656, Note_on_c, 1, 43, 0
3, 114720, Note_on_c, 1, 55, 92
3, 114752, Note_on_c, 1, 55, 0
3, 114816, Note_on_c, 1, 43, 92
3, 114848, Note_on_c, 1, 43, 0
3, 114912, Note_on_c, 1, 55, 92
3, 114944, Note_on_c, 1, 55, 0
3, 115008, Note_on_c, 1, 43, 92
3, 115040, Note_on_c, 1, 43, 0
3, 115104, Note_on_c, 1, 55, 92
3, 115136, Note_on_c, 1, 55, 0
3, 115200, Note_on_c, 1, 43, 92
3, 115248, Note_on_c, 1, 43, 0
3, 115392, Note_on_c, 1, 55, 92
3, 115440, Note_on_c, 1, 55, 0
3, 115584, Note_on_c, 1, 43, 92
3, 115632, Note_on_c, 1, 43, 0
3, 115968, Note_on_c, 1, 48, 92
3, 116128, Note_on_c, 1, 48, 0
3, 116256, Note_on_c, 1, 43, 92
3, 116288, Note_on_c, 1, 43, 0
3, 116352, Note_on_c, 1, 48, 92
3, 116512, Note_on_c, 1, 48, 0
3, 116640, Note_on_c, 1, 43, 92
3, 116672, Note_on_c, 1, 43, 0
3, 116736, Note_on_c, 1, 48, 92
3, 116768, Note_on_c, 1, 48, 0
3, 116832, Note_on_c, 1, 52, 92
3, 116864, Note_on_c, 1, 52, 0
3, 116928, Note_on_c, 1, 55, 92
3, 116960, Note_on_c, 1, 55, 0
3, 117024, Note_on_c, 1, 52, 92
3, 117056, Note_on_c, 1, 52, 0
3, 117120, Note_on_c, 1, 48, 92
3, 117280, Note_on_c, 1, 48, 0
3, 118272, Note_on_c, 1, 55, 45
3, 118432, Note_on_c, 1, 55, 0
3, 118464, Note_on_c, 1, 55, 45
3, 118624, Note_on_c, 1, 55, 0
3, 118656, Note_on_c, 1, 60, 45
3, 118688, Note_on_c, 1, 60, 0
3, 118752, Note_on_c, 1, 48, 45
3, 118848, Note_on_c, 1, 48, 0
3, 118848, Note_on_c, 1, 52, 45
3, 118944, Note_on_c, 1, 52, 0
3, 118944, Note_on_c, 1, 55, 45
3, 119038, Note_on_c, 1, 55, 0
3, 119040, Note_on_c, 1, 60, 45
3, 119200, Note_on_c, 1, 60, 0
3, 119808, Note_on_c, 1, 55, 45
3, 119968, Note_on_c, 1, 55, 0
3, 120000, Note_on_c, 1, 55, 45
3, 120160, Note_on_c, 1, 55, 0
3, 120192, Note_on_c, 1, 60, 45
3, 120224, Note_on_c, 1, 60, 0
3, 120288, Note_on_c, 1, 48, 45
3, 120384, Note_on_c, 1, 48, 0
3, 120384, Note_on_c, 1, 52, 45
3, 120480, Note_on_c, 1, 52, 0
3, 120480, Note_on_c, 1, 55, 45
3, 120574, Note_on_c, 1, 55, 0
3, 120576, Note_on_c, 1, 60, 92
3, 120608, Note_on_c, 1, 60, 0
3, 120672, Note_on_c, 1, 52, 92
3, 120768, Note_on_c, 1, 52, 0
3, 120768, Note_on_c, 1, 64, 92
3, 120862, Note_on_c, 1, 64, 0
3, 120864, Note_on_c, 1, 64, 92
3, 120896, Note_on_c, 1, 64, 0
3, 120960, Note_on_c, 1, 64, 92
3, 120992, Note_on_c, 1, 64, 0
3, 121056, Note_on_c, 1, 64, 92
3, 121088, Note_on_c, 1, 64, 0
3, 121152, Note_on_c, 1, 64, 92
3, 121184, Note_on_c, 1, 64, 0
3, 121248, Note_on_c, 1, 64, 92
3, 121280, Note_on_c, 1, 64, 0
3, 121440, Note_on_c, 1, 53, 92
3, 121536, Note_on_c, 1, 53, 0
3, 121536, Note_on_c, 1, 65, 92
3, 121630, Note_on_c, 1, 65, 0
3, 121632, Note_on_c, 1, 65, 92
3, 121664, Note_on_c, 1, 65, 0
3, 121728, Note_on_c, 1, 65, 92
3, 121760, Note_on_c, 1, 65, 0
3, 121824, Note_on_c, 1, 65, 92
3, 121856, Note_on_c, 1, 65, 0
3, 121920, Note_on_c, 1, 65, 92
3, 121952, Note_on_c, 1, 65, 0
3, 122016, Note_on_c, 1, 65, 92
3, 122048, Note_on_c, 1, 65, 0
3, 122112, Note_on_c, 1, 64, 92
3, 122144, Note_on_c, 1, 64, 0
3, 122304, Note_on_c, 1, 65, 92
3, 122336, Note_on_c, 1, 65, 0
3, 122496, Note_on_c, 1, 67, 92
3, 122528, Note_on_c, 1, 67, 0
3, 122688, Note_on_c, 1, 55, 92
3, 122720, Note_on_c, 1, 55, 0
3, 122880, Note_on_c, 1, 60, 45
3, 123040, Note_on_c, 1, 60, 0
3, 123072, Note_on_c, 1, 64, 45
3, 123104, Note_on_c, 1, 64, 0
3, 123168, Note_on_c, 1, 60, 45
3, 123200, Note_on_c, 1, 60, 0
3, 123264, Note_on_c, 1, 57, 45
3, 123424, Note_on_c, 1, 57, 0
3, 123456, Note_on_c, 1, 60, 45
3, 123488, Note_on_c, 1, 60, 0
3, 123552, Note_on_c, 1, 57, 45
3, 123584, Note_on_c, 1, 57, 0
3, 123648, Note_on_c, 1, 53, 45
3, 123808, Note_on_c, 1, 53, 0
3, 123840, Note_on_c, 1, 57, 45
3, 123872, Note_on_c, 1, 57, 0
3, 123936, Note_on_c, 1, 53, 45
3, 123968, Note_on_c, 1, 53, 0
3, 124032, Note_on_c, 1, 55, 45
3, 124192, Note_on_c, 1, 55, 0
3, 124224, Note_on_c, 1, 59, 45
3, 124256, Note_on_c, 1, 59, 0
3, 124320, Note_on_c, 1, 55, 45
3, 124352, Note_on_c, 1, 55, 0
3, 124416, Note_on_c, 1, 60, 45
3, 124576, Note_on_c, 1, 60, 0
3, 124608, Note_on_c, 1, 64, 45
3, 124640, Note_on_c, 1, 64, 0
3, 124704, Note_on_c, 1, 60, 45
3, 124736, Note_on_c, 1, 60, 0
3, 124800, Note_on_c, 1, 57, 45
3, 124960, Note_on_c, 1, 57, 0
3, 124992, Note_on_c, 1, 60, 45
3, 125024, Note_on_c, 1, 60, 0
3, 125088, Note_on_c, 1, 57, 45
3, 125120, Note_on_c, 1, 57, 0
3, 125184, Note_on_c, 1, 53, 45
3, 125344, Note_on_c, 1, 53, 0
3, 125376, Note_on_c, 1, 57, 45
3, 125408, Note_on_c, 1, 57, 0
3, 125472, Note_on_c, 1, 53, 45
3, 125504, Note_on_c, 1, 53, 0
3, 125568, Note_on_c, 1, 55, 45
3, 125728, Note_on_c, 1, 55, 0
3, 125760, Note_on_c, 1, 59, 45
3, 125792, Note_on_c, 1, 59, 0
3, 125856, Note_on_c, 1, 55, 45
3, 125888, Note_on_c, 1, 55, 0
3, 125952, Note_on_c, 1, 60, 92
3, 126112, Note_on_c, 1, 60, 0
3, 126336, Note_on_c, 1, 53, 92
3, 126496, Note_on_c, 1, 53, 0
3, 126528, Note_on_c, 1, 57, 92
3, 126624, Note_on_c, 1, 57, 0
3, 126624, Note_on_c, 1, 53, 92
3, 126718, Note_on_c, 1, 53, 0
3, 126720, Note_on_c, 1, 50, 92
3, 126880, Note_on_c, 1, 50, 0
3, 127104, Note_on_c, 1, 55, 92
3, 127264, Note_on_c, 1, 55, 0
3, 127296, Note_on_c, 1, 59, 92
3, 127392, Note_on_c, 1, 59, 0
3, 127392, Note_on_c, 1, 55, 92
3, 127486, Note_on_c, 1, 55, 0
3, 127488, Note_on_c, 1, 52, 92
3, 127648, Note_on_c, 1, 52, 0
3, 127872, Note_on_c, 1, 57, 92
3, 128032, Note_on_c, 1, 57, 0
3, 128064, Note_on_c, 1, 60, 92
3, 128160, Note_on_c, 1, 60, 0
3, 128160, Note_on_c, 1, 57, 92
3, 128254, Note_on_c, 1, 57, 0
3, 128256, Note_on_c, 1, 53, 92
3, 128416, Note_on_c, 1, 53, 0
3, 128640, Note_on_c, 1, 50, 92
3, 128800, Note_on_c, 1, 50, 0
3, 128832, Note_on_c, 1, 53, 92
3, 128928, Note_on_c, 1, 53, 0
3, 128928, Note_on_c, 1, 50, 92
3, 129022, Note_on_c, 1, 50, 0
3, 129024, Note_on_c, 1, 47, 92
3, 129120, Note_on_c, 1, 47, 0
3, 129120, Note_on_c, 1, 43, 93
3, 129216, Note_on_c, 1, 43, 0
3, 129216, Note_on_c, 1, 45, 94
3, 129312, Note_on_c, 1, 45, 0
3, 129312, Note_on_c, 1, 47, 95
3, 129406, Note_on_c, 1, 47, 0
3, 129408, Note_on_c, 1, 48, 96
3, 129504, Note_on_c, 1, 48, 0
3, 129504, Note_on_c, 1, 47, 97
3, 129600, Note_on_c, 1, 47, 0
3, 129600, Note_on_c, 1, 48, 98
3, 129696, Note_on_c, 1, 48, 0
3, 129696, Note_on_c, 1, 50, 99
3, 129790, Note_on_c, 1, 50, 0
3, 129792, Note_on_c, 1, 52, 100
3, 129952, Note_on_c, 1, 52, 0
3, 129984, Note_on_c, 1, 48, 102
3, 130080, Note_on_c, 1, 48, 0
3, 130080, Note_on_c, 1, 50, 103
3, 130176, Note_on_c, 1, 50, 0
3, 130176, Note_on_c, 1, 52, 104
3, 130272, Note_on_c, 1, 52, 0
3, 130272, Note_on_c, 1, 50, 105
3, 130368, Note_on_c, 1, 50, 0
3, 130368, Note_on_c, 1, 52, 106
3, 130464, Note_on_c, 1, 52, 0
3, 130464, Note_on_c, 1, 54, 107
3, 130558, Note_on_c, 1, 54, 0
3, 130560, Note_on_c, 1, 55, 108
3, 130656, Note_on_c, 1, 55, 0
3, 130656, Note_on_c, 1, 59, 108
3, 130750, Note_on_c, 1, 59, 0
3, 130752, Note_on_c, 1, 62, 108
3, 130784, Note_on_c, 1, 62, 0
3, 130848, Note_on_c, 1, 67, 108
3, 130880, Note_on_c, 1, 67, 0
3, 130944, Note_on_c, 1, 64, 108
3, 131040, Note_on_c, 1, 64, 0
3, 131040, Note_on_c, 1, 67, 108
3, 131134, Note_on_c, 1, 67, 0
3, 131136, Note_on_c, 1, 64, 108
3, 131168, Note_on_c, 1, 64, 0
3, 131232, Note_on_c, 1, 60, 108
3, 131264, Note_on_c, 1, 60, 0
3, 131328, Note_on_c, 1, 59, 108
3, 131424, Note_on_c, 1, 59, 0
3, 131424, Note_on_c, 1, 62, 108
3, 131518, Note_on_c, 1, 62, 0
3, 131520, Note_on_c, 1, 59, 108
3, 131552, Note_on_c, 1, 59, 0
3, 131616, Note_on_c, 1, 55, 108
3, 131648, Note_on_c, 1, 55, 0
3, 131712, Note_on_c, 1, 52, 108
3, 131808, Note_on_c, 1, 52, 0
3, 131808, Note_on_c, 1, 55, 108
3, 131902, Note_on_c, 1, 55, 0
3, 131904, Note_on_c, 1, 52, 108
3, 131936, Note_on_c, 1, 52, 0
3, 132000, Note_on_c, 1, 48, 108
3, 132032, Note_on_c, 1, 48, 0
3, 132096, Note_on_c, 1, 55, 108
3, 132144, Note_on_c, 1, 55, 0
3, 132288, Note_on_c, 1, 55, 108
3, 132336, Note_on_c, 1, 55, 0
3, 132480, Note_on_c, 1, 55, 108
3, 132528, Note_on_c, 1, 55, 0
3, 133248, Note_on_c, 1, 57, 45
3, 133632, Note_on_c, 1, 57, 0
3, 133632, Note_on_c, 1, 55, 45
3, 133664, Note_on_c, 1, 55, 0
3, 133824, Note_on_c, 1, 50, 45
3, 133856, Note_on_c, 1, 50, 0
3, 134016, Note_on_c, 1, 47, 45
3, 134048, Note_on_c, 1, 47, 0
3, 134208, Note_on_c, 1, 43, 45
3, 134240, Note_on_c, 1, 43, 0
3, 134784, Note_on_c, 1, 59, 45
3, 135168, Note_on_c, 1, 59, 0
3, 135168, Note_on_c, 1, 60, 45
3, 135200, Note_on_c, 1, 60, 0
3, 135360, Note_on_c, 1, 55, 45
3, 135392, Note_on_c, 1, 55, 0
3, 135552, Note_on_c, 1, 52, 45
3, 135584, Note_on_c, 1, 52, 0
3, 135744, Note_on_c, 1, 48, 45
3, 135776, Note_on_c, 1, 48, 0
3, 136320, Note_on_c, 1, 53, 45
3, 136320, Note_on_c, 1, 62, 45
3, 137088, Note_on_c, 1, 53, 0
3, 137088, Note_on_c, 1, 62, 0
3, 137088, Note_on_c, 1, 52, 92
3, 137088, Note_on_c, 1, 60, 92
3, 137248, Note_on_c, 1, 52, 0
3, 137248, Note_on_c, 1, 60, 0
3, 137472, Note_on_c, 1, 53, 45
3, 137520, Note_on_c, 1, 53, 0
3, 137664, Note_on_c, 1, 41, 52
3, 137712, Note_on_c, 1, 41, 0
3, 137856, Note_on_c, 1, 53, 60
3, 137856, Note_on_c, 1, 62, 60
3, 138576, Note_on_c, 1, 53, 0
3, 138576, Note_on_c, 1, 62, 0
3, 138624, Note_on_c, 1, 52, 92
3, 138720, Note_on_c, 1, 52, 0
3, 138720, Note_on_c, 1, 64, 92
3, 138816, Note_on_c, 1, 64, 0
3, 138816, Note_on_c, 1, 62, 77
3, 138912, Note_on_c, 1, 62, 0
3, 138912, Note_on_c, 1, 60, 61
3, 139006, Note_on_c, 1, 60, 0
3, 139008, Note_on_c, 1, 53, 45
3, 139008, Note_on_c, 1, 57, 45
3, 139200, Note_on_c, 1, 53, 0
3, 139200, Note_on_c, 1, 57, 0
3, 139200, Note_on_c, 1, 50, 45
3, 139360, Note_on_c, 1, 50, 0
3, 139392, Note_on_c, 1, 55, 45
3, 139440, Note_on_c, 1, 55, 0
3, 139584, Note_on_c, 1, 43, 45
3, 139632, Note_on_c, 1, 43, 0
3, 139776, Note_on_c, 1, 48, 45
3, 139936, Note_on_c, 1, 48, 0
3, 140064, Note_on_c, 1, 48, 92
3, 140096, Note_on_c, 1, 48, 0
3, 140160, Note_on_c, 1, 48, 92
3, 140192, Note_on_c, 1, 48, 0
3, 140256, Note_on_c, 1, 48, 92
3, 140288, Note_on_c, 1, 48, 0
3, 140352, Note_on_c, 1, 48, 92
3, 140384, Note_on_c, 1, 48, 0
3, 140448, Note_on_c, 1, 48, 92
3, 140480, Note_on_c, 1, 48, 0
3, 140544, Note_on_c, 1, 47, 92
3, 140704, Note_on_c, 1, 47, 0
3, 140928, Note_on_c, 1, 55, 45
3, 140960, Note_on_c, 1, 55, 0
3, 141024, Note_on_c, 1, 55, 45
3, 141056, Note_on_c, 1, 55, 0
3, 141120, Note_on_c, 1, 55, 45
3, 141152, Note_on_c, 1, 55, 0
3, 141216, Note_on_c, 1, 55, 45
3, 141248, Note_on_c, 1, 55, 0
3, 141312, Note_on_c, 1, 48, 45
3, 141472, Note_on_c, 1, 48, 0
3, 141600, Note_on_c, 1, 48, 92
3, 141632, Note_on_c, 1, 48, 0
3, 141696, Note_on_c, 1, 48, 92
3, 141728, Note_on_c, 1, 48, 0
3, 141792, Note_on_c, 1, 48, 92
3, 141824, Note_on_c, 1, 48, 0
3, 141888, Note_on_c, 1, 48, 92
3, 141920, Note_on_c, 1, 48, 0
3, 141984, Note_on_c, 1, 48, 92
3, 142016, Note_on_c, 1, 48, 0
3, 142080, Note_on_c, 1, 47, 92
3, 142240, Note_on_c, 1, 47, 0
3, 142464, Note_on_c, 1, 55, 45
3, 142464, Note_on_c, 1, 65, 45
3, 142496, Note_on_c, 1, 55, 0
3, 142496, Note_on_c, 1, 65, 0
3, 142560, Note_on_c, 1, 55, 45
3, 142560, Note_on_c, 1, 65, 45
3, 142592, Note_on_c, 1, 55, 0
3, 142592, Note_on_c, 1, 65, 0
3, 142656, Note_on_c, 1, 55, 45
3, 142656, Note_on_c, 1, 65, 45
3, 142688, Note_on_c, 1, 55, 0
3, 142688, Note_on_c, 1, 65, 0
3, 142752, Note_on_c, 1, 55, 45
3, 142752, Note_on_c, 1, 65, 45
3, 142784, Note_on_c, 1, 55, 0
3, 142784, Note_on_c, 1, 65, 0
3, 142848, Note_on_c, 1, 60, 45
3, 142880, Note_on_c, 1, 60, 0
3, 143040, Note_on_c, 1, 55, 45
3, 143072, Note_on_c, 1, 55, 0
3, 143232, Note_on_c, 1, 60, 45
3, 143264, Note_on_c, 1, 60, 0
3, 143424, Note_on_c, 1, 55, 45
3, 143456, Note_on_c, 1, 55, 0
3, 143616, Note_on_c, 1, 48, 45
3, 143648, Note_on_c, 1, 48, 0
3, 143808, Note_on_c, 1, 60, 45
3, 143840, Note_on_c, 1, 60, 0
3, 144000, Note_on_c, 1, 48, 45
3, 144032, Note_on_c, 1, 48, 0
3, 144032, End_track
0, 0, End_of_file