0, 0, Header, 1, 6, 480
1, 0, Start_track
1, 0, Title_t, "Untitled"
1, 0, Time_signature, 4, 2, 24, 8
1, 0, Key_signature, 0, "major"
1, 0, Tempo, 434782
1, 0, Tempo, 434782
1, 0, Marker_t, "Mozart"
1, 735, Tempo, 335195
1, 1440, Tempo, 331491
1, 1440, Marker_t, "Piano sonata No.15"
1, 3840, Marker_t, "Bunji Hisamori"
1, 4665, Tempo, 335195
1, 4800, Tempo, 331491
1, 5760, Marker_t, "March 2000, Rev.1 "
1, 7620, Tempo, 335195
1, 7680, Tempo, 331491
1, 13305, Tempo, 335195
1, 15240, Tempo, 338983
1, 16800, Tempo, 331491
1, 20025, Tempo, 338983
1, 20160, Tempo, 331491
1, 22980, Tempo, 335195
1, 23040, Tempo, 331491
1, 30690, Tempo, 335195
1, 34440, Tempo, 338983
1, 36000, Tempo, 340909
1, 36480, Tempo, 331491
1, 40260, Tempo, 335195
1, 42180, Tempo, 335195
1, 42240, Tempo, 331491
1, 46020, Tempo, 335195
1, 49800, Tempo, 335195
1, 51360, Tempo, 338983
1, 51840, Tempo, 331491
1, 63300, Tempo, 335195
1, 63360, Tempo, 331491
1, 70920, Tempo, 335195
1, 74820, Tempo, 338983
1, 74880, Tempo, 335195
1, 76740, Tempo, 337078
1, 77685, Tempo, 340909
1, 78660, Tempo, 344827
1, 78720, Tempo, 352941
1, 79680, Tempo, 331491
1, 82500, Tempo, 335195
1, 86295, Tempo, 338983
1, 87135, Tempo, 340909
1, 87360, Tempo, 331491
1, 90180, Tempo, 335195
1, 92160, Tempo, 337078
1, 93960, Tempo, 340909
1, 94080, Tempo, 331491
1, 97860, Tempo, 335195
1, 99780, Tempo, 338983
1, 99840, Tempo, 335195
1, 101640, Tempo, 338983
1, 102465, Tempo, 340909
1, 102705, Tempo, 331491
1, 105540, Tempo, 335195
1, 107460, Tempo, 337078
1, 109320, Tempo, 338983
1, 109935, Tempo, 335195
1, 111300, Tempo, 337078
1, 113220, Tempo, 340909
1, 113280, Tempo, 335195
1, 115140, Tempo, 337078
1, 117060, Tempo, 340909
1, 117120, Tempo, 335195
1, 124740, Tempo, 337078
1, 126600, Tempo, 340909
1, 127005, Tempo, 331491
1, 128600, Tempo, 335195
1, 128640, Tempo, 331491
1, 130500, Tempo, 335195
1, 130560, Tempo, 331491
1, 134340, Tempo, 335195
1, 134400, Tempo, 331491
1, 136280, Tempo, 335195
1, 136320, Tempo, 331491
1, 138180, Tempo, 335195
1, 138240, Tempo, 331491
1, 142020, Tempo, 335195
1, 142080, Tempo, 331491
1, 145860, Tempo, 335195
1, 145920, Tempo, 331491
1, 156420, Tempo, 333333
1, 157380, Tempo, 335195
1, 157440, Tempo, 331491
1, 159300, Tempo, 333333
1, 161220, Tempo, 335195
1, 161280, Tempo, 331491
1, 163140, Tempo, 335195
1, 163200, Tempo, 333333
1, 165060, Tempo, 335195
1, 165120, Tempo, 331491
1, 166980, Tempo, 335195
1, 167040, Tempo, 333333
1, 168900, Tempo, 335195
1, 170820, Tempo, 338983
1, 170880, Tempo, 331491
1, 176580, Tempo, 335195
1, 176640, Tempo, 331491
1, 182340, Tempo, 335195
1, 182400, Tempo, 331491
1, 186180, Tempo, 335195
1, 186240, Tempo, 331491
1, 190020, Tempo, 335195
1, 190080, Tempo, 331491
1, 195780, Tempo, 335195
1, 195840, Tempo, 340909
1, 196800, Tempo, 368098
1, 197265, Tempo, 331491
1, 201540, Tempo, 333333
1, 201600, Tempo, 331491
1, 203460, Tempo, 333333
1, 203520, Tempo, 331491
1, 205380, Tempo, 335195
1, 205440, Tempo, 331491
1, 213060, Tempo, 333333
1, 213120, Tempo, 331491
1, 214980, Tempo, 333333
1, 215040, Tempo, 331491
1, 216900, Tempo, 335195
1, 216960, Tempo, 331491
1, 220740, Tempo, 333333
1, 222660, Tempo, 335195
1, 222720, Tempo, 331491
1, 226500, Tempo, 335195
1, 226560, Tempo, 331491
1, 230340, Tempo, 335195
1, 230400, Tempo, 331491
1, 234180, Tempo, 335195
1, 234240, Tempo, 331491
1, 239940, Tempo, 335195
1, 240000, Tempo, 340909
1, 240705, Tempo, 344827
1, 240975, Tempo, 331491
1, 268740, Tempo, 335195
1, 268800, Tempo, 331491
1, 272580, Tempo, 335195
1, 272640, Tempo, 331491
1, 276420, Tempo, 335195
1, 276480, Tempo, 331491
1, 278340, Tempo, 335195
1, 278400, Tempo, 340909
1, 279360, Tempo, 352941
1, 279810, Tempo, 331491
1, 283080, Tempo, 331491
1, 283185, Tempo, 335195
1, 286020, Tempo, 335195
1, 286080, Tempo, 331491
1, 291825, Tempo, 335195
1, 293640, Tempo, 338983
1, 294720, Tempo, 340909
1, 295200, Tempo, 331491
1, 318660, Tempo, 333333
1, 320580, Tempo, 335195
1, 321540, Tempo, 338983
1, 322500, Tempo, 344827
1, 322560, Tempo, 352941
1, 323520, Tempo, 331491
1, 326340, Tempo, 335195
1, 328320, Tempo, 337078
1, 330180, Tempo, 338983
1, 331080, Tempo, 340909
1, 331200, Tempo, 331491
1, 334020, Tempo, 335195
1, 336000, Tempo, 337078
1, 337860, Tempo, 338983
1, 338280, Tempo, 340909
1, 338385, Tempo, 331491
1, 341700, Tempo, 335195
1, 343620, Tempo, 338983
1, 343680, Tempo, 335195
1, 345540, Tempo, 338983
1, 346440, Tempo, 340909
1, 346545, Tempo, 331491
1, 349380, Tempo, 335195
1, 349440, Tempo, 331491
1, 351300, Tempo, 333333
1, 353220, Tempo, 338983
1, 353280, Tempo, 335195
1, 355140, Tempo, 337078
1, 357060, Tempo, 340909
1, 357120, Tempo, 335195
1, 358980, Tempo, 337078
1, 360900, Tempo, 340909
1, 360960, Tempo, 331491
1, 364740, Tempo, 335195
1, 364800, Tempo, 331491
1, 368580, Tempo, 335195
1, 368640, Tempo, 331491
1, 370500, Tempo, 338983
1, 370800, Tempo, 331491
1, 372440, Tempo, 335195
1, 372480, Tempo, 331491
1, 374340, Tempo, 335195
1, 374400, Tempo, 331491
1, 378180, Tempo, 335195
1, 378240, Tempo, 331491
1, 380150, Tempo, 335195
1, 380180, Tempo, 331491
1, 382020, Tempo, 335195
1, 382080, Tempo, 331491
1, 385860, Tempo, 335195
1, 385920, Tempo, 331491
1, 397380, Tempo, 335195
1, 397440, Tempo, 331491
1, 401220, Tempo, 335195
1, 401280, Tempo, 331491
1, 405080, Tempo, 335195
1, 405120, Tempo, 331491
1, 412760, Tempo, 335195
1, 412800, Tempo, 331491
1, 416600, Tempo, 333333
1, 419480, Tempo, 335195
1, 420420, Tempo, 344827
1, 420480, Tempo, 331491
1, 422340, Tempo, 335195
1, 422400, Tempo, 333333
1, 424260, Tempo, 335195
1, 424320, Tempo, 331491
1, 426180, Tempo, 335195
1, 426240, Tempo, 333333
1, 428100, Tempo, 335195
1, 428160, Tempo, 331491
1, 430020, Tempo, 335195
1, 430080, Tempo, 333333
1, 431940, Tempo, 335195
1, 433860, Tempo, 338983
1, 433920, Tempo, 331491
1, 439620, Tempo, 335195
1, 439680, Tempo, 331491
1, 443460, Tempo, 335195
1, 443520, Tempo, 331491
1, 449220, Tempo, 335195
1, 449280, Tempo, 331491
1, 453060, Tempo, 335195
1, 453120, Tempo, 331491
1, 458820, Tempo, 335195
1, 458880, Tempo, 340909
1, 459360, Tempo, 348837
1, 460800, Time_signature, 3, 2, 24, 8
1, 460800, Tempo, 937500
1, 462240, Tempo, 923076
1, 462240, Marker_t, "(2)"
1, 463620, Tempo, 952380
1, 463680, Tempo, 923076
1, 465060, Tempo, 952380
1, 465120, Tempo, 923076
1, 466500, Tempo, 952380
1, 467460, Tempo, 1000000
1, 467520, Tempo, 923076
1, 467940, Tempo, 952380
1, 468000, Tempo, 923076
1, 469380, Tempo, 952380
1, 469440, Tempo, 923076
1, 470340, Tempo, 952380
1, 470400, Tempo, 923076
1, 470820, Tempo, 952380
1, 470880, Tempo, 923076
1, 472260, Tempo, 952380
1, 472320, Tempo, 923076
1, 473700, Tempo, 952380
1, 473760, Tempo, 923076
1, 475140, Tempo, 952380
1, 476580, Tempo, 1000000
1, 476640, Tempo, 923076
1, 478020, Tempo, 952380
1, 478080, Tempo, 923076
1, 479460, Tempo, 952380
1, 479520, Tempo, 923076
1, 480900, Tempo, 952380
1, 481860, Tempo, 1000000
1, 481920, Tempo, 923076
1, 482340, Tempo, 952380
1, 482400, Tempo, 923076
1, 483780, Tempo, 952380
1, 483840, Tempo, 923076
1, 484740, Tempo, 952380
1, 484800, Tempo, 923076
1, 485220, Tempo, 952380
1, 485280, Tempo, 923076
1, 486660, Tempo, 952380
1, 486720, Tempo, 923076
1, 488100, Tempo, 952380
1, 488160, Tempo, 923076
1, 489540, Tempo, 952380
1, 489600, Tempo, 923076
1, 490980, Tempo, 952380
1, 491040, Tempo, 923076
1, 492420, Tempo, 952380
1, 493860, Tempo, 1000000
1, 493920, Tempo, 923076
1, 495300, Tempo, 952380
1, 495360, Tempo, 923076
1, 496740, Tempo, 952380
1, 496800, Tempo, 923076
1, 498180, Tempo, 952380
1, 498240, Tempo, 923076
1, 499620, Tempo, 952380
1, 499680, Tempo, 923076
1, 501060, Tempo, 952380
1, 501120, Tempo, 923076
1, 502500, Tempo, 952380
1, 502560, Tempo, 923076
1, 503940, Tempo, 952380
1, 504000, Tempo, 923076
1, 505380, Tempo, 952380
1, 505440, Tempo, 923076
1, 506820, Tempo, 952380
1, 506880, Tempo, 923076
1, 508260, Tempo, 967741
1, 508320, Tempo, 923076
1, 509700, Tempo, 952380
1, 509760, Tempo, 923076
1, 511140, Tempo, 952380
1, 511200, Tempo, 923076
1, 512580, Tempo, 952380
1, 512640, Tempo, 923076
1, 514020, Tempo, 952380
1, 514080, Tempo, 923076
1, 515460, Tempo, 952380
1, 515520, Tempo, 923076
1, 516900, Tempo, 952380
1, 516960, Tempo, 923076
1, 518340, Tempo, 952380
1, 518400, Tempo, 923076
1, 519780, Tempo, 952380
1, 521220, Tempo, 1000000
1, 521280, Tempo, 923076
1, 522660, Tempo, 952380
1, 522720, Tempo, 923076
1, 524100, Tempo, 952380
1, 524160, Tempo, 923076
1, 525540, Tempo, 952380
1, 525600, Tempo, 923076
1, 526980, Tempo, 952380
1, 528000, Tempo, 1000000
1, 528480, Tempo, 923076
1, 529860, Tempo, 952380
1, 529920, Tempo, 923076
1, 531300, Tempo, 952380
1, 531360, Tempo, 923076
1, 532740, Tempo, 952380
1, 532800, Tempo, 923076
1, 534180, Tempo, 952380
1, 534240, Tempo, 923076
1, 535620, Tempo, 952380
1, 535680, Tempo, 923076
1, 537060, Tempo, 952380
1, 537120, Tempo, 923076
1, 538500, Tempo, 952380
1, 538560, Tempo, 923076
1, 539940, Tempo, 952380
1, 540000, Tempo, 923076
1, 541380, Tempo, 952380
1, 541440, Tempo, 923076
1, 542820, Tempo, 952380
1, 542880, Tempo, 923076
1, 544260, Tempo, 952380
1, 544320, Tempo, 923076
1, 545700, Tempo, 952380
1, 546660, Tempo, 1000000
1, 546720, Tempo, 923076
1, 547140, Tempo, 952380
1, 547200, Tempo, 923076
1, 548580, Tempo, 952380
1, 548640, Tempo, 923076
1, 550020, Tempo, 952380
1, 550080, Tempo, 923076
1, 551460, Tempo, 952380
1, 551520, Tempo, 923076
1, 552900, Tempo, 952380
1, 552960, Tempo, 923076
1, 554340, Tempo, 952380
1, 554400, Tempo, 923076
1, 555780, Tempo, 952380
1, 555840, Tempo, 923076
1, 557220, Tempo, 952380
1, 557280, Tempo, 923076
1, 558660, Tempo, 952380
1, 558720, Tempo, 923076
1, 560100, Tempo, 952380
1, 560160, Tempo, 923076
1, 561540, Tempo, 952380
1, 561600, Tempo, 923076
1, 562980, Tempo, 952380
1, 563040, Tempo, 923076
1, 564420, Tempo, 952380
1, 565440, Tempo, 1000000
1, 565920, Tempo, 923076
1, 567300, Tempo, 952380
1, 567360, Tempo, 923076
1, 568740, Tempo, 952380
1, 568800, Tempo, 923076
1, 570180, Tempo, 952380
1, 571140, Tempo, 1000000
1, 571200, Tempo, 923076
1, 571620, Tempo, 952380
1, 571680, Tempo, 923076
1, 573060, Tempo, 952380
1, 573120, Tempo, 923076
1, 574020, Tempo, 952380
1, 574080, Tempo, 923076
1, 574500, Tempo, 952380
1, 574560, Tempo, 923076
1, 575940, Tempo, 952380
1, 576000, Tempo, 923076
1, 577380, Tempo, 952380
1, 577440, Tempo, 923076
1, 578820, Tempo, 952380
1, 580260, Tempo, 1000000
1, 580320, Tempo, 923076
1, 581700, Tempo, 952380
1, 581760, Tempo, 923076
1, 583140, Tempo, 952380
1, 583200, Tempo, 923076
1, 584580, Tempo, 952380
1, 586020, Tempo, 1000000
1, 586080, Tempo, 923076
1, 587460, Tempo, 952380
1, 587520, Tempo, 923076
1, 588900, Tempo, 952380
1, 588960, Tempo, 923076
1, 590340, Tempo, 952380
1, 591780, Tempo, 1000000
1, 591840, Tempo, 923076
1, 593220, Tempo, 952380
1, 593280, Tempo, 923076
1, 594660, Tempo, 952380
1, 594720, Tempo, 923076
1, 596100, Tempo, 952380
1, 596160, Tempo, 923076
1, 597540, Tempo, 952380
1, 597600, Tempo, 923076
1, 598980, Tempo, 952380
1, 599040, Tempo, 923076
1, 600420, Tempo, 952380
1, 600480, Tempo, 923076
1, 601860, Tempo, 952380
1, 601920, Tempo, 923076
1, 603300, Tempo, 952380
1, 603360, Tempo, 923076
1, 604740, Tempo, 952380
1, 604800, Tempo, 923076
1, 606180, Tempo, 1000000
1, 606240, Tempo, 923076
1, 607620, Tempo, 952380
1, 607680, Tempo, 923076
1, 609060, Tempo, 952380
1, 609120, Tempo, 923076
1, 610500, Tempo, 952380
1, 610560, Tempo, 923076
1, 611940, Tempo, 952380
1, 612000, Tempo, 923076
1, 613380, Tempo, 952380
1, 613440, Tempo, 923076
1, 614820, Tempo, 952380
1, 614880, Tempo, 923076
1, 616260, Tempo, 952380
1, 616320, Tempo, 923076
1, 617700, Tempo, 952380
1, 619140, Tempo, 1000000
1, 619200, Tempo, 923076
1, 620580, Tempo, 952380
1, 620640, Tempo, 923076
1, 622020, Tempo, 952380
1, 622080, Tempo, 923076
1, 623460, Tempo, 952380
1, 623520, Tempo, 923076
1, 624900, Tempo, 952380
1, 624960, Tempo, 923076
1, 626340, Tempo, 952380
1, 626400, Tempo, 923076
1, 627780, Tempo, 952380
1, 627840, Tempo, 923076
1, 629220, Tempo, 952380
1, 629280, Tempo, 923076
1, 630660, Tempo, 952380
1, 630720, Tempo, 923076
1, 632100, Tempo, 952380
1, 632160, Tempo, 923076
1, 633540, Tempo, 952380
1, 633600, Tempo, 923076
1, 634980, Tempo, 952380
1, 635040, Tempo, 923076
1, 636440, Tempo, 1276595
1, 636480, Tempo, 1363636
1, 637920, Time_signature, 4, 2, 24, 8
1, 637920, Tempo, 500000
1, 639840, Tempo, 400000
1, 639840, Marker_t, "(3) "
1, 649320, Tempo, 402684
1, 651240, Tempo, 402684
1, 651360, Tempo, 400000
1, 660840, Tempo, 402684
1, 662400, Tempo, 428571
1, 662880, Tempo, 400000
1, 666660, Tempo, 402684
1, 666720, Tempo, 400000
1, 670500, Tempo, 402684
1, 670560, Tempo, 400000
1, 672360, Tempo, 402684
1, 674280, Tempo, 408163
1, 674400, Tempo, 400000
1, 678120, Tempo, 402684
1, 678240, Tempo, 400000
1, 681960, Tempo, 402684
1, 682095, Tempo, 400000
1, 683940, Tempo, 402684
1, 684060, Tempo, 400000
1, 687720, Tempo, 402684
1, 689640, Tempo, 408163
1, 689760, Tempo, 400000
1, 691620, Tempo, 402684
1, 691740, Tempo, 400000
1, 695460, Tempo, 402684
1, 695580, Tempo, 400000
1, 710820, Tempo, 402684
1, 711705, Tempo, 405405
1, 712620, Tempo, 413793
1, 712800, Tempo, 400000
1, 722280, Tempo, 402684
1, 724200, Tempo, 408163
1, 724320, Tempo, 400000
1, 733800, Tempo, 402684
1, 735360, Tempo, 428571
1, 735840, Tempo, 400000
1, 739560, Tempo, 402684
1, 739680, Tempo, 400000
1, 743400, Tempo, 402684
1, 743520, Tempo, 400000
1, 751080, Tempo, 402684
1, 751200, Tempo, 400000
1, 754920, Tempo, 402684
1, 755040, Tempo, 400000
1, 758760, Tempo, 402684
1, 758880, Tempo, 400000
1, 764520, Tempo, 402684
1, 764640, Tempo, 408163
1, 765600, Tempo, 402684
1, 766500, Tempo, 405405
1, 766560, Tempo, 402684
1, 767400, Tempo, 405405
1, 768000, Tempo, 413793
1, 768360, Tempo, 434782
1, 768480, Tempo, 400000
1, 772200, Tempo, 402684
1, 772320, Tempo, 400000
1, 776040, Tempo, 402684
1, 776160, Tempo, 400000
1, 779880, Tempo, 402684
1, 780000, Tempo, 400000
1, 783720, Tempo, 402684
1, 783840, Tempo, 400000
1, 787620, Tempo, 402684
1, 787680, Tempo, 400000
1, 789480, Tempo, 402684
1, 789600, Tempo, 400000
1, 797160, Tempo, 402684
1, 797280, Tempo, 400000
1, 806760, Tempo, 402684
1, 808680, Tempo, 408163
1, 808800, Tempo, 400000
1, 818280, Tempo, 402684
1, 819840, Tempo, 454545
1, 820320, Tempo, 400000
1, 833640, Tempo, 402684
1, 835200, Tempo, 428571
1, 835680, Tempo, 400000
1, 849000, Tempo, 402684
1, 850560, Tempo, 428571
1, 851040, Tempo, 400000
1, 854760, Tempo, 402684
1, 854880, Tempo, 400000
1, 862440, Tempo, 408163
1, 862560, Tempo, 400000
1, 875880, Tempo, 402684
1, 877440, Tempo, 428571
1, 877920, Tempo, 400000
1, 881640, Tempo, 402684
1, 881760, Tempo, 400000
1, 889320, Tempo, 408163
1, 889440, Tempo, 400000
1, 902760, Tempo, 402684
1, 902880, Tempo, 413793
1, 903840, Tempo, 402684
1, 904680, Tempo, 413793
1, 904800, Tempo, 400000
1, 906600, Tempo, 402684
1, 906720, Tempo, 400000
1, 908520, Tempo, 402684
1, 908640, Tempo, 400000
1, 910440, Tempo, 402684
1, 910560, Tempo, 400000
1, 920040, Tempo, 402684
1, 921960, Tempo, 408163
1, 922080, Tempo, 400000
1, 931560, Tempo, 402684
1, 933480, Tempo, 408163
1, 933600, Tempo, 400000
1, 937320, Tempo, 402684
1, 937440, Tempo, 400000
1, 941160, Tempo, 402684
1, 941280, Tempo, 400000
1, 943140, Tempo, 402684
1, 943260, Tempo, 400000
1, 946920, Tempo, 402684
1, 948840, Tempo, 408163
1, 948960, Tempo, 400000
1, 950820, Tempo, 402684
1, 950940, Tempo, 400000
1, 954600, Tempo, 402684
1, 954720, Tempo, 400000
1, 960360, Tempo, 402684
1, 962280, Tempo, 408163
1, 962400, Tempo, 400000
1, 969960, Tempo, 402684
1, 970080, Tempo, 400000
1, 971880, Tempo, 402684
1, 972000, Tempo, 400000
1, 994920, Tempo, 402684
1, 995040, Tempo, 400000
1, 998760, Tempo, 402684
1, 998880, Tempo, 400000
1, 1002660, Tempo, 402684
1, 1002720, Tempo, 400000
1, 1004325, Tempo, 402684
1, 1006440, Tempo, 408163
1, 1006560, Tempo, 400000
1, 1017960, Tempo, 402684
1, 1018080, Tempo, 400000
1, 1025640, Tempo, 402684
1, 1025760, Tempo, 400000
1, 1033320, Tempo, 402684
1, 1035240, Tempo, 408163
1, 1037160, Tempo, 413793
1, 1038120, Tempo, 419580
1, 1038840, Tempo, 425531
1, 1039080, Tempo, 517241
1, 1039200, Tempo, 612244
1, 1040160, Tempo, 674157
1, 1040160, End_track
2, 0, Start_track
2, 0, Title_t, "Unnamed Track"
2, 0, Control_c, 1, 0, 0
2, 0, Control_c, 1, 32, 0
2, 0, Program_c, 1, 0
2, 0, Control_c, 1, 7, 127
2, 0, Pitch_bend_c, 1, 8192
2, 0, Control_c, 1, 1, 0
2, 0, Control_c, 1, 93, 19
2, 0, Control_c, 1, 91, 100
2, 0, Control_c, 1, 10, 73
2, 0, Control_c, 1, 64, 0
2, 1440, Note_on_c, 1, 72, 52
2, 1680, Note_off_c, 1, 72, 0
2, 1920, Note_on_c, 1, 70, 49
2, 2126, Note_off_c, 1, 70, 0
2, 2160, Note_on_c, 1, 69, 48
2, 2366, Note_off_c, 1, 69, 0
2, 2400, Note_on_c, 1, 67, 47
2, 2606, Note_off_c, 1, 67, 0
2, 2640, Note_on_c, 1, 65, 47
2, 2846, Note_off_c, 1, 65, 0
2, 2880, Note_on_c, 1, 69, 46
2, 3086, Note_off_c, 1, 69, 0
2, 3120, Note_on_c, 1, 67, 45
2, 3326, Note_off_c, 1, 67, 0
2, 3360, Note_on_c, 1, 70, 44
2, 3566, Note_off_c, 1, 70, 0
2, 3600, Note_on_c, 1, 64, 43
2, 3792, Note_off_c, 1, 64, 0
2, 3840, Note_on_c, 1, 65, 42
2, 4080, Note_off_c, 1, 65, 0
2, 4320, Note_on_c, 1, 60, 40
2, 4560, Note_off_c, 1, 60, 0
2, 4800, Note_on_c, 1, 72, 54
2, 5520, Note_off_c, 1, 72, 0
2, 5760, Note_on_c, 1, 70, 48
2, 6000, Note_off_c, 1, 70, 0
2, 6000, Note_on_c, 1, 69, 46
2, 6240, Note_off_c, 1, 69, 0
2, 6240, Note_on_c, 1, 67, 45
2, 6480, Note_off_c, 1, 67, 0
2, 6480, Note_on_c, 1, 65, 44
2, 6720, Note_off_c, 1, 65, 0
2, 6720, Note_on_c, 1, 69, 43
2, 6960, Note_off_c, 1, 69, 0
2, 6960, Note_on_c, 1, 67, 42
2, 7200, Note_off_c, 1, 67, 0
2, 7200, Note_on_c, 1, 70, 41
2, 7440, Note_off_c, 1, 70, 0
2, 7440, Note_on_c, 1, 64, 40
2, 7632, Note_off_c, 1, 64, 0
2, 7680, Note_on_c, 1, 65, 40
2, 9540, Note_off_c, 1, 65, 0
2, 9600, Note_on_c, 1, 66, 46
2, 9840, Note_off_c, 1, 66, 0
2, 9840, Note_on_c, 1, 67, 48
2, 10080, Note_off_c, 1, 67, 0
2, 10080, Note_on_c, 1, 69, 51
2, 10320, Note_off_c, 1, 69, 0
2, 10320, Note_on_c, 1, 70, 53
2, 10560, Note_off_c, 1, 70, 0
2, 10560, Note_on_c, 1, 72, 55
2, 10800, Note_off_c, 1, 72, 0
2, 10800, Note_on_c, 1, 73, 58
2, 11040, Note_off_c, 1, 73, 0
2, 11040, Note_on_c, 1, 74, 60
2, 11280, Note_off_c, 1, 74, 0
2, 11280, Note_on_c, 1, 76, 63
2, 11472, Note_off_c, 1, 76, 0
2, 11520, Note_on_c, 1, 79, 63
2, 11760, Note_off_c, 1, 79, 0
2, 11760, Note_on_c, 1, 77, 61
2, 12000, Note_off_c, 1, 77, 0
2, 12000, Note_on_c, 1, 76, 59
2, 12240, Note_off_c, 1, 76, 0
2, 12240, Note_on_c, 1, 74, 58
2, 12432, Note_off_c, 1, 74, 0
2, 12480, Note_on_c, 1, 74, 56
2, 12720, Note_off_c, 1, 74, 0
2, 12720, Note_on_c, 1, 72, 54
2, 12960, Note_off_c, 1, 72, 0
2, 12960, Note_on_c, 1, 70, 53
2, 13200, Note_off_c, 1, 70, 0
2, 13200, Note_on_c, 1, 69, 51
2, 13392, Note_off_c, 1, 69, 0
2, 13440, Note_on_c, 1, 67, 50
2, 13770, Note_off_c, 1, 67, 0
2, 13800, Note_on_c, 1, 69, 47
2, 13920, Note_off_c, 1, 69, 0
2, 13920, Note_on_c, 1, 67, 46
2, 14160, Note_off_c, 1, 67, 0
2, 14160, Note_on_c, 1, 66, 45
2, 14400, Note_off_c, 1, 66, 0
2, 14400, Note_on_c, 1, 67, 43
2, 14880, Note_off_c, 1, 67, 0
2, 14880, Note_on_c, 1, 72, 40
2, 15307, Note_off_c, 1, 72, 0
2, 15360, Note_on_c, 1, 65, 37
2, 16080, Note_off_c, 1, 65, 0
2, 28800, Note_on_c, 1, 78, 53
2, 29040, Note_off_c, 1, 78, 0
2, 29040, Note_on_c, 1, 79, 55
2, 29280, Note_off_c, 1, 79, 0
2, 29280, Note_on_c, 1, 81, 57
2, 29520, Note_off_c, 1, 81, 0
2, 29520, Note_on_c, 1, 82, 60
2, 29760, Note_off_c, 1, 82, 0
2, 29760, Note_on_c, 1, 84, 62
2, 30000, Note_off_c, 1, 84, 0
2, 30000, Note_on_c, 1, 85, 64
2, 30240, Note_off_c, 1, 85, 0
2, 30240, Note_on_c, 1, 86, 66
2, 30480, Note_off_c, 1, 86, 0
2, 30480, Note_on_c, 1, 88, 69
2, 30672, Note_off_c, 1, 88, 0
2, 30720, Note_on_c, 1, 89, 71
2, 30876, Note_off_c, 1, 89, 0
2, 30960, Note_on_c, 1, 77, 69
2, 31116, Note_off_c, 1, 77, 0
2, 31200, Note_on_c, 1, 89, 68
2, 31440, Note_off_c, 1, 89, 0
2, 31440, Note_on_c, 1, 88, 66
2, 31680, Note_off_c, 1, 88, 0
2, 31680, Note_on_c, 1, 86, 64
2, 31836, Note_off_c, 1, 86, 0
2, 31920, Note_on_c, 1, 74, 62
2, 32076, Note_off_c, 1, 74, 0
2, 32160, Note_on_c, 1, 86, 60
2, 32400, Note_off_c, 1, 86, 0
2, 32400, Note_on_c, 1, 84, 59
2, 32640, Note_off_c, 1, 84, 0
2, 32640, Note_on_c, 1, 82, 57
2, 32796, Note_off_c, 1, 82, 0
2, 32880, Note_on_c, 1, 70, 55
2, 33036, Note_off_c, 1, 70, 0
2, 33120, Note_on_c, 1, 82, 53
2, 33360, Note_off_c, 1, 82, 0
2, 33360, Note_on_c, 1, 81, 51
2, 33600, Note_off_c, 1, 81, 0
2, 33600, Note_on_c, 1, 79, 50
2, 33756, Note_off_c, 1, 79, 0
2, 33840, Note_on_c, 1, 67, 48
2, 33996, Note_off_c, 1, 67, 0
2, 34080, Note_on_c, 1, 79, 46
2, 34320, Note_off_c, 1, 79, 0
2, 34320, Note_on_c, 1, 77, 44
2, 34512, Note_off_c, 1, 77, 0
2, 34560, Note_on_c, 1, 77, 42
2, 35520, Note_off_c, 1, 77, 0
2, 35520, Note_on_c, 1, 76, 31
2, 35880, Note_off_c, 1, 76, 0
2, 36960, Note_on_c, 1, 81, 59
2, 37200, Note_off_c, 1, 81, 0
2, 37200, Note_on_c, 1, 79, 57
2, 37440, Note_off_c, 1, 79, 0
2, 37440, Note_on_c, 1, 77, 56
2, 37680, Note_off_c, 1, 77, 0
2, 37680, Note_on_c, 1, 76, 55
2, 37920, Note_off_c, 1, 76, 0
2, 37920, Note_on_c, 1, 74, 54
2, 38160, Note_off_c, 1, 74, 0
2, 38160, Note_on_c, 1, 72, 53
2, 38352, Note_off_c, 1, 72, 0
2, 38400, Note_on_c, 1, 72, 53
2, 38640, Note_off_c, 1, 72, 0
2, 38640, Note_on_c, 1, 77, 55
2, 38880, Note_off_c, 1, 77, 0
2, 38880, Note_on_c, 1, 76, 57
2, 39120, Note_off_c, 1, 76, 0
2, 39120, Note_on_c, 1, 75, 59
2, 39360, Note_off_c, 1, 75, 0
2, 39360, Note_on_c, 1, 73, 58
2, 39600, Note_off_c, 1, 73, 0
2, 39600, Note_on_c, 1, 74, 56
2, 39840, Note_off_c, 1, 74, 0
2, 39840, Note_on_c, 1, 70, 55
2, 40080, Note_off_c, 1, 70, 0
2, 40080, Note_on_c, 1, 67, 54
2, 40272, Note_off_c, 1, 67, 0
2, 40320, Note_on_c, 1, 65, 53
2, 41280, Note_off_c, 1, 65, 0
2, 41280, Note_on_c, 1, 67, 42
2, 41400, Note_off_c, 1, 67, 0
2, 41400, Note_on_c, 1, 65, 43
2, 41520, Note_off_c, 1, 65, 0
2, 41520, Note_on_c, 1, 64, 44
2, 41640, Note_off_c, 1, 64, 0
2, 41640, Note_on_c, 1, 65, 46
2, 41760, Note_off_c, 1, 65, 0
2, 41760, Note_on_c, 1, 69, 47
2, 42000, Note_off_c, 1, 69, 0
2, 42000, Note_on_c, 1, 67, 42
2, 42240, Note_off_c, 1, 67, 0
2, 42240, Note_on_c, 1, 65, 42
2, 42480, Note_off_c, 1, 65, 0
2, 42480, Note_on_c, 1, 81, 56
2, 42720, Note_off_c, 1, 81, 0
2, 42720, Note_on_c, 1, 79, 54
2, 42960, Note_off_c, 1, 79, 0
2, 42960, Note_on_c, 1, 77, 53
2, 43200, Note_off_c, 1, 77, 0
2, 43200, Note_on_c, 1, 76, 51
2, 43440, Note_off_c, 1, 76, 0
2, 43440, Note_on_c, 1, 74, 49
2, 43680, Note_off_c, 1, 74, 0
2, 43680, Note_on_c, 1, 72, 48
2, 43920, Note_off_c, 1, 72, 0
2, 43920, Note_on_c, 1, 71, 46
2, 44112, Note_off_c, 1, 71, 0
2, 44160, Note_on_c, 1, 70, 48
2, 44400, Note_off_c, 1, 70, 0
2, 44400, Note_on_c, 1, 76, 51
2, 44640, Note_off_c, 1, 76, 0
2, 44640, Note_on_c, 1, 72, 54
2, 44880, Note_off_c, 1, 72, 0
2, 44880, Note_on_c, 1, 76, 57
2, 45120, Note_off_c, 1, 76, 0
2, 45120, Note_on_c, 1, 70, 60
2, 45360, Note_off_c, 1, 70, 0
2, 45360, Note_on_c, 1, 79, 63
2, 45600, Note_off_c, 1, 79, 0
2, 45600, Note_on_c, 1, 72, 66
2, 45840, Note_off_c, 1, 72, 0
2, 45840, Note_on_c, 1, 79, 69
2, 46032, Note_off_c, 1, 79, 0
2, 46080, Note_on_c, 1, 69, 71
2, 46320, Note_off_c, 1, 69, 0
2, 46560, Note_on_c, 1, 72, 67
2, 46800, Note_off_c, 1, 72, 0
2, 47520, Note_on_c, 1, 77, 59
2, 47760, Note_off_c, 1, 77, 0
2, 48480, Note_on_c, 1, 77, 50
2, 48720, Note_off_c, 1, 77, 0
2, 49440, Note_on_c, 1, 82, 42
2, 49680, Note_off_c, 1, 82, 0
2, 49920, Note_on_c, 1, 82, 38
2, 51240, Note_off_c, 1, 82, 0
2, 51840, Note_on_c, 1, 76, 44
2, 53760, Note_off_c, 1, 76, 0
2, 53760, Note_on_c, 1, 77, 45
2, 54120, Note_off_c, 1, 77, 0
2, 54240, Note_on_c, 1, 81, 59
2, 54480, Note_off_c, 1, 81, 0
2, 54480, Note_on_c, 1, 79, 57
2, 54720, Note_off_c, 1, 79, 0
2, 54720, Note_on_c, 1, 77, 56
2, 54960, Note_off_c, 1, 77, 0
2, 54960, Note_on_c, 1, 76, 54
2, 55200, Note_off_c, 1, 76, 0
2, 55200, Note_on_c, 1, 74, 52
2, 55440, Note_off_c, 1, 74, 0
2, 55440, Note_on_c, 1, 72, 50
2, 55632, Note_off_c, 1, 72, 0
2, 55680, Note_on_c, 1, 72, 48
2, 57120, Note_off_c, 1, 72, 0
2, 57120, Note_on_c, 1, 74, 49
2, 57360, Note_off_c, 1, 74, 0
2, 57360, Note_on_c, 1, 76, 51
2, 57552, Note_off_c, 1, 76, 0
2, 57600, Note_on_c, 1, 77, 54
2, 57840, Note_off_c, 1, 77, 0
2, 57840, Note_on_c, 1, 78, 56
2, 58080, Note_off_c, 1, 78, 0
2, 58080, Note_on_c, 1, 81, 60
2, 58320, Note_off_c, 1, 81, 0
2, 58320, Note_on_c, 1, 79, 56
2, 58560, Note_off_c, 1, 79, 0
2, 58560, Note_on_c, 1, 77, 54
2, 58800, Note_off_c, 1, 77, 0
2, 58800, Note_on_c, 1, 76, 53
2, 59040, Note_off_c, 1, 76, 0
2, 59040, Note_on_c, 1, 74, 51
2, 59280, Note_off_c, 1, 74, 0
2, 59280, Note_on_c, 1, 72, 50
2, 59472, Note_off_c, 1, 72, 0
2, 59520, Note_on_c, 1, 72, 50
2, 59760, Note_off_c, 1, 72, 0
2, 59760, Note_on_c, 1, 77, 51
2, 59952, Note_off_c, 1, 77, 0
2, 60000, Note_on_c, 1, 69, 52
2, 60240, Note_off_c, 1, 69, 0
2, 60240, Note_on_c, 1, 72, 53
2, 60432, Note_off_c, 1, 72, 0
2, 60480, Note_on_c, 1, 65, 54
2, 60720, Note_off_c, 1, 65, 0
2, 60720, Note_on_c, 1, 69, 55
2, 60912, Note_off_c, 1, 69, 0
2, 60960, Note_on_c, 1, 60, 56
2, 61200, Note_off_c, 1, 60, 0
2, 61200, Note_on_c, 1, 64, 57
2, 61392, Note_off_c, 1, 64, 0
2, 61440, Note_on_c, 1, 65, 58
2, 61800, Note_off_c, 1, 65, 0
2, 62880, Note_on_c, 1, 81, 73
2, 63120, Note_off_c, 1, 81, 0
2, 63360, Note_on_c, 1, 79, 68
2, 63600, Note_off_c, 1, 79, 0
2, 63600, Note_on_c, 1, 77, 66
2, 63840, Note_off_c, 1, 77, 0
2, 63840, Note_on_c, 1, 76, 65
2, 64080, Note_off_c, 1, 76, 0
2, 64080, Note_on_c, 1, 74, 64
2, 64320, Note_off_c, 1, 74, 0
2, 64320, Note_on_c, 1, 77, 63
2, 64560, Note_off_c, 1, 77, 0
2, 64560, Note_on_c, 1, 76, 61
2, 64800, Note_off_c, 1, 76, 0
2, 64800, Note_on_c, 1, 79, 60
2, 65040, Note_off_c, 1, 79, 0
2, 65040, Note_on_c, 1, 73, 59
2, 65232, Note_off_c, 1, 73, 0
2, 65280, Note_on_c, 1, 74, 57
2, 65520, Note_off_c, 1, 74, 0
2, 65760, Note_on_c, 1, 69, 55
2, 66000, Note_off_c, 1, 69, 0
2, 66240, Note_on_c, 1, 79, 74
2, 66960, Note_off_c, 1, 79, 0
2, 67200, Note_on_c, 1, 77, 70
2, 67440, Note_off_c, 1, 77, 0
2, 67440, Note_on_c, 1, 76, 69
2, 67680, Note_off_c, 1, 76, 0
2, 67680, Note_on_c, 1, 74, 68
2, 67920, Note_off_c, 1, 74, 0
2, 67920, Note_on_c, 1, 72, 68
2, 68160, Note_off_c, 1, 72, 0
2, 68160, Note_on_c, 1, 76, 67
2, 68400, Note_off_c, 1, 76, 0
2, 68400, Note_on_c, 1, 74, 66
2, 68640, Note_off_c, 1, 74, 0
2, 68640, Note_on_c, 1, 77, 65
2, 68880, Note_off_c, 1, 77, 0
2, 68880, Note_on_c, 1, 71, 64
2, 69072, Note_off_c, 1, 71, 0
2, 69120, Note_on_c, 1, 72, 64
2, 69360, Note_off_c, 1, 72, 0
2, 69600, Note_on_c, 1, 67, 62
2, 69840, Note_off_c, 1, 67, 0
2, 70080, Note_on_c, 1, 79, 78
2, 70800, Note_off_c, 1, 79, 0
2, 71040, Note_on_c, 1, 77, 73
2, 71280, Note_off_c, 1, 77, 0
2, 71280, Note_on_c, 1, 75, 72
2, 71520, Note_off_c, 1, 75, 0
2, 71520, Note_on_c, 1, 74, 71
2, 71760, Note_off_c, 1, 74, 0
2, 71760, Note_on_c, 1, 72, 70
2, 71952, Note_off_c, 1, 72, 0
2, 72000, Note_on_c, 1, 77, 75
2, 72240, Note_off_c, 1, 77, 0
2, 72240, Note_on_c, 1, 75, 74
2, 72480, Note_off_c, 1, 75, 0
2, 72480, Note_on_c, 1, 74, 73
2, 72720, Note_off_c, 1, 74, 0
2, 72720, Note_on_c, 1, 72, 72
2, 72912, Note_off_c, 1, 72, 0
2, 72960, Note_on_c, 1, 77, 77
2, 73200, Note_off_c, 1, 77, 0
2, 73200, Note_on_c, 1, 75, 75
2, 73440, Note_off_c, 1, 75, 0
2, 73440, Note_on_c, 1, 74, 74
2, 73680, Note_off_c, 1, 74, 0
2, 73680, Note_on_c, 1, 72, 72
2, 73872, Note_off_c, 1, 72, 0
2, 73920, Note_on_c, 1, 77, 77
2, 74160, Note_off_c, 1, 77, 0
2, 74160, Note_on_c, 1, 75, 75
2, 74400, Note_off_c, 1, 75, 0
2, 74400, Note_on_c, 1, 74, 74
2, 74640, Note_off_c, 1, 74, 0
2, 74640, Note_on_c, 1, 72, 72
2, 74832, Note_off_c, 1, 72, 0
2, 74880, Note_on_c, 1, 84, 75
2, 75168, Note_off_c, 1, 84, 0
2, 75840, Note_on_c, 1, 77, 81
2, 76080, Note_off_c, 1, 77, 0
2, 76080, Note_on_c, 1, 75, 79
2, 76320, Note_off_c, 1, 75, 0
2, 76320, Note_on_c, 1, 74, 78
2, 76560, Note_off_c, 1, 74, 0
2, 76560, Note_on_c, 1, 72, 76
2, 76752, Note_off_c, 1, 72, 0
2, 76800, Note_on_c, 1, 87, 78
2, 77088, Note_off_c, 1, 87, 0
2, 77760, Note_on_c, 1, 78, 80
2, 78048, Note_off_c, 1, 78, 0
2, 78720, Note_on_c, 1, 79, 81
2, 79008, Note_off_c, 1, 79, 0
2, 79680, Note_on_c, 1, 79, 68
2, 80800, Note_off_c, 1, 79, 0
2, 80800, Note_on_c, 1, 81, 61
2, 80960, Note_off_c, 1, 81, 0
2, 80960, Note_on_c, 1, 79, 60
2, 81120, Note_off_c, 1, 79, 0
2, 81120, Note_on_c, 1, 77, 59
2, 81280, Note_off_c, 1, 77, 0
2, 81280, Note_on_c, 1, 79, 58
2, 81440, Note_off_c, 1, 79, 0
2, 81440, Note_on_c, 1, 77, 57
2, 81600, Note_off_c, 1, 77, 0
2, 81600, Note_on_c, 1, 76, 56
2, 81760, Note_off_c, 1, 76, 0
2, 81760, Note_on_c, 1, 77, 55
2, 81920, Note_off_c, 1, 77, 0
2, 81920, Note_on_c, 1, 76, 55
2, 82080, Note_off_c, 1, 76, 0
2, 82080, Note_on_c, 1, 74, 54
2, 82240, Note_off_c, 1, 74, 0
2, 82240, Note_on_c, 1, 76, 53
2, 82400, Note_off_c, 1, 76, 0
2, 82400, Note_on_c, 1, 74, 52
2, 82560, Note_off_c, 1, 74, 0
2, 82560, Note_on_c, 1, 72, 51
2, 82800, Note_off_c, 1, 72, 0
2, 83040, Note_on_c, 1, 71, 44
2, 83120, Note_off_c, 1, 71, 0
2, 83120, Note_on_c, 1, 72, 45
2, 83200, Note_off_c, 1, 72, 0
2, 83200, Note_on_c, 1, 71, 46
2, 83280, Note_off_c, 1, 71, 0
2, 83280, Note_on_c, 1, 69, 46
2, 83400, Note_off_c, 1, 69, 0
2, 83400, Note_on_c, 1, 71, 47
2, 83520, Note_off_c, 1, 71, 0
2, 83520, Note_on_c, 1, 72, 49
2, 83760, Note_off_c, 1, 72, 0
2, 84000, Note_on_c, 1, 74, 46
2, 84080, Note_off_c, 1, 74, 0
2, 84080, Note_on_c, 1, 76, 46
2, 84160, Note_off_c, 1, 76, 0
2, 84160, Note_on_c, 1, 74, 47
2, 84240, Note_off_c, 1, 74, 0
2, 84240, Note_on_c, 1, 72, 48
2, 84360, Note_off_c, 1, 72, 0
2, 84360, Note_on_c, 1, 74, 49
2, 84480, Note_off_c, 1, 74, 0
2, 84480, Note_on_c, 1, 76, 51
2, 84720, Note_off_c, 1, 76, 0
2, 84960, Note_on_c, 1, 77, 47
2, 85040, Note_off_c, 1, 77, 0
2, 85040, Note_on_c, 1, 79, 48
2, 85120, Note_off_c, 1, 79, 0
2, 85120, Note_on_c, 1, 77, 49
2, 85200, Note_off_c, 1, 77, 0
2, 85200, Note_on_c, 1, 76, 50
2, 85320, Note_off_c, 1, 76, 0
2, 85320, Note_on_c, 1, 77, 51
2, 85440, Note_off_c, 1, 77, 0
2, 85440, Note_on_c, 1, 79, 53
2, 85680, Note_off_c, 1, 79, 0
2, 85920, Note_on_c, 1, 81, 54
2, 86160, Note_off_c, 1, 81, 0
2, 86400, Note_on_c, 1, 72, 56
2, 86880, Note_off_c, 1, 72, 0
2, 86880, Note_on_c, 1, 71, 51
2, 87120, Note_off_c, 1, 71, 0
2, 87360, Note_on_c, 1, 81, 71
2, 88480, Note_off_c, 1, 81, 0
2, 88480, Note_on_c, 1, 82, 66
2, 88640, Note_off_c, 1, 82, 0
2, 88640, Note_on_c, 1, 81, 66
2, 88800, Note_off_c, 1, 81, 0
2, 88800, Note_on_c, 1, 79, 65
2, 88960, Note_off_c, 1, 79, 0
2, 88960, Note_on_c, 1, 81, 64
2, 89120, Note_off_c, 1, 81, 0
2, 89120, Note_on_c, 1, 79, 63
2, 89280, Note_off_c, 1, 79, 0
2, 89280, Note_on_c, 1, 77, 63
2, 89440, Note_off_c, 1, 77, 0
2, 89440, Note_on_c, 1, 79, 62
2, 89600, Note_off_c, 1, 79, 0
2, 89600, Note_on_c, 1, 77, 61
2, 89760, Note_off_c, 1, 77, 0
2, 89760, Note_on_c, 1, 76, 61
2, 89920, Note_off_c, 1, 76, 0
2, 89920, Note_on_c, 1, 77, 60
2, 90080, Note_off_c, 1, 77, 0
2, 90080, Note_on_c, 1, 76, 59
2, 90240, Note_off_c, 1, 76, 0
2, 90240, Note_on_c, 1, 74, 59
2, 90480, Note_off_c, 1, 74, 0
2, 90720, Note_on_c, 1, 86, 59
2, 90960, Note_off_c, 1, 86, 0
2, 91200, Note_on_c, 1, 81, 60
2, 91440, Note_off_c, 1, 81, 0
2, 91680, Note_on_c, 1, 83, 56
2, 91760, Note_off_c, 1, 83, 0
2, 91760, Note_on_c, 1, 84, 57
2, 91840, Note_off_c, 1, 84, 0
2, 91840, Note_on_c, 1, 83, 58
2, 91920, Note_off_c, 1, 83, 0
2, 91920, Note_on_c, 1, 81, 59
2, 92040, Note_off_c, 1, 81, 0
2, 92040, Note_on_c, 1, 83, 61
2, 92160, Note_off_c, 1, 83, 0
2, 92160, Note_on_c, 1, 84, 64
2, 92400, Note_off_c, 1, 84, 0
2, 92640, Note_on_c, 1, 72, 57
2, 92720, Note_off_c, 1, 72, 0
2, 92720, Note_on_c, 1, 74, 58
2, 92800, Note_off_c, 1, 74, 0
2, 92800, Note_on_c, 1, 72, 59
2, 92880, Note_off_c, 1, 72, 0
2, 92880, Note_on_c, 1, 71, 59
2, 93000, Note_off_c, 1, 71, 0
2, 93000, Note_on_c, 1, 72, 60
2, 93120, Note_off_c, 1, 72, 0
2, 93120, Note_on_c, 1, 76, 62
2, 93600, Note_off_c, 1, 76, 0
2, 93600, Note_on_c, 1, 74, 59
2, 94080, Note_off_c, 1, 74, 0
2, 94080, Note_on_c, 1, 72, 56
2, 94440, Note_off_c, 1, 72, 0
2, 95520, Note_on_c, 1, 67, 72
2, 95760, Note_off_c, 1, 67, 0
2, 96000, Note_on_c, 1, 79, 77
2, 97120, Note_off_c, 1, 79, 0
2, 97120, Note_on_c, 1, 81, 73
2, 97280, Note_off_c, 1, 81, 0
2, 97280, Note_on_c, 1, 79, 73
2, 97440, Note_off_c, 1, 79, 0
2, 97440, Note_on_c, 1, 77, 72
2, 97600, Note_off_c, 1, 77, 0
2, 97600, Note_on_c, 1, 79, 72
2, 97760, Note_off_c, 1, 79, 0
2, 97760, Note_on_c, 1, 77, 71
2, 97920, Note_off_c, 1, 77, 0
2, 97920, Note_on_c, 1, 76, 71
2, 98080, Note_off_c, 1, 76, 0
2, 98080, Note_on_c, 1, 77, 70
2, 98240, Note_off_c, 1, 77, 0
2, 98240, Note_on_c, 1, 76, 69
2, 98400, Note_off_c, 1, 76, 0
2, 98400, Note_on_c, 1, 74, 69
2, 98560, Note_off_c, 1, 74, 0
2, 98560, Note_on_c, 1, 72, 68
2, 98720, Note_off_c, 1, 72, 0
2, 98720, Note_on_c, 1, 71, 68
2, 98880, Note_off_c, 1, 71, 0
2, 98880, Note_on_c, 1, 72, 67
2, 99040, Note_off_c, 1, 72, 0
2, 99040, Note_on_c, 1, 74, 67
2, 99200, Note_off_c, 1, 74, 0
2, 99200, Note_on_c, 1, 72, 66
2, 99360, Note_off_c, 1, 72, 0
2, 99360, Note_on_c, 1, 70, 66
2, 99520, Note_off_c, 1, 70, 0
2, 99520, Note_on_c, 1, 69, 65
2, 99680, Note_off_c, 1, 69, 0
2, 99680, Note_on_c, 1, 68, 64
2, 99808, Note_off_c, 1, 68, 0
2, 99840, Note_on_c, 1, 69, 64
2, 100000, Note_off_c, 1, 69, 0
2, 100000, Note_on_c, 1, 74, 67
2, 100160, Note_off_c, 1, 74, 0
2, 100160, Note_on_c, 1, 73, 67
2, 100320, Note_off_c, 1, 73, 0
2, 100320, Note_on_c, 1, 74, 68
2, 100480, Note_off_c, 1, 74, 0
2, 100480, Note_on_c, 1, 77, 68
2, 100640, Note_off_c, 1, 77, 0
2, 100640, Note_on_c, 1, 76, 68
2, 100800, Note_off_c, 1, 76, 0
2, 100800, Note_on_c, 1, 77, 69
2, 100960, Note_off_c, 1, 77, 0
2, 100960, Note_on_c, 1, 81, 69
2, 101120, Note_off_c, 1, 81, 0
2, 101120, Note_on_c, 1, 80, 70
2, 101280, Note_off_c, 1, 80, 0
2, 101280, Note_on_c, 1, 81, 70
2, 101440, Note_off_c, 1, 81, 0
2, 101440, Note_on_c, 1, 77, 70
2, 101600, Note_off_c, 1, 77, 0
2, 101600, Note_on_c, 1, 74, 71
2, 101728, Note_off_c, 1, 74, 0
2, 101760, Note_on_c, 1, 72, 71
2, 102240, Note_off_c, 1, 72, 0
2, 102240, Note_on_c, 1, 71, 62
2, 102600, Note_off_c, 1, 71, 0
2, 103200, Note_on_c, 1, 60, 64
2, 103440, Note_off_c, 1, 60, 0
2, 103680, Note_on_c, 1, 72, 66
2, 104160, Note_off_c, 1, 72, 0
2, 104160, Note_on_c, 1, 73, 67
2, 104640, Note_off_c, 1, 73, 0
2, 104640, Note_on_c, 1, 74, 69
2, 105120, Note_off_c, 1, 74, 0
2, 105120, Note_on_c, 1, 76, 70
2, 105480, Note_off_c, 1, 76, 0
2, 105600, Note_on_c, 1, 77, 71
2, 105760, Note_off_c, 1, 77, 0
2, 105760, Note_on_c, 1, 76, 72
2, 105920, Note_off_c, 1, 76, 0
2, 105920, Note_on_c, 1, 77, 72
2, 106080, Note_off_c, 1, 77, 0
2, 106080, Note_on_c, 1, 78, 73
2, 106240, Note_off_c, 1, 78, 0
2, 106240, Note_on_c, 1, 76, 73
2, 106400, Note_off_c, 1, 76, 0
2, 106400, Note_on_c, 1, 78, 74
2, 106560, Note_off_c, 1, 78, 0
2, 106560, Note_on_c, 1, 79, 74
2, 106720, Note_off_c, 1, 79, 0
2, 106720, Note_on_c, 1, 78, 75
2, 106880, Note_off_c, 1, 78, 0
2, 106880, Note_on_c, 1, 79, 75
2, 107040, Note_off_c, 1, 79, 0
2, 107040, Note_on_c, 1, 83, 76
2, 107200, Note_off_c, 1, 83, 0
2, 107200, Note_on_c, 1, 81, 76
2, 107360, Note_off_c, 1, 81, 0
2, 107360, Note_on_c, 1, 83, 77
2, 107520, Note_off_c, 1, 83, 0
2, 107520, Note_on_c, 1, 84, 77
2, 107760, Note_off_c, 1, 84, 0
2, 108000, Note_on_c, 1, 81, 74
2, 108240, Note_off_c, 1, 81, 0
2, 108480, Note_on_c, 1, 79, 71
2, 108720, Note_off_c, 1, 79, 0
2, 108960, Note_on_c, 1, 77, 68
2, 109200, Note_off_c, 1, 77, 0
2, 109440, Note_on_c, 1, 72, 64
2, 109680, Note_off_c, 1, 72, 0
2, 109920, Note_on_c, 1, 88, 69
2, 110080, Note_off_c, 1, 88, 0
2, 110080, Note_on_c, 1, 86, 69
2, 110240, Note_off_c, 1, 86, 0
2, 110240, Note_on_c, 1, 84, 69
2, 110400, Note_off_c, 1, 84, 0
2, 110400, Note_on_c, 1, 83, 69
2, 110560, Note_off_c, 1, 83, 0
2, 110560, Note_on_c, 1, 81, 70
2, 110720, Note_off_c, 1, 81, 0
2, 110720, Note_on_c, 1, 79, 70
2, 110880, Note_off_c, 1, 79, 0
2, 110880, Note_on_c, 1, 78, 70
2, 111040, Note_off_c, 1, 78, 0
2, 111040, Note_on_c, 1, 81, 70
2, 111200, Note_off_c, 1, 81, 0
2, 111200, Note_on_c, 1, 78, 70
2, 111360, Note_off_c, 1, 78, 0
2, 111360, Note_on_c, 1, 81, 70
2, 111600, Note_off_c, 1, 81, 0
2, 111840, Note_on_c, 1, 79, 71
2, 112080, Note_off_c, 1, 79, 0
2, 112320, Note_on_c, 1, 77, 71
2, 112560, Note_off_c, 1, 77, 0
2, 112800, Note_on_c, 1, 76, 71
2, 113040, Note_off_c, 1, 76, 0
2, 113280, Note_on_c, 1, 72, 72
2, 113640, Note_off_c, 1, 72, 0
2, 114720, Note_on_c, 1, 84, 76
2, 115680, Note_off_c, 1, 84, 0
2, 115680, Note_on_c, 1, 83, 74
2, 116160, Note_off_c, 1, 83, 0
2, 116160, Note_on_c, 1, 84, 74
2, 116640, Note_off_c, 1, 84, 0
2, 116640, Note_on_c, 1, 86, 75
2, 117120, Note_off_c, 1, 86, 0
2, 117120, Note_on_c, 1, 88, 75
2, 117480, Note_off_c, 1, 88, 0
2, 117600, Note_on_c, 1, 79, 76
2, 117760, Note_off_c, 1, 79, 0
2, 117760, Note_on_c, 1, 77, 76
2, 117920, Note_off_c, 1, 77, 0
2, 117920, Note_on_c, 1, 76, 76
2, 118080, Note_off_c, 1, 76, 0
2, 118080, Note_on_c, 1, 74, 76
2, 118240, Note_off_c, 1, 74, 0
2, 118240, Note_on_c, 1, 72, 76
2, 118400, Note_off_c, 1, 72, 0
2, 118400, Note_on_c, 1, 71, 76
2, 118560, Note_off_c, 1, 71, 0
2, 118560, Note_on_c, 1, 72, 76
2, 118720, Note_off_c, 1, 72, 0
2, 118720, Note_on_c, 1, 70, 76
2, 118880, Note_off_c, 1, 70, 0
2, 118880, Note_on_c, 1, 68, 77
2, 119040, Note_off_c, 1, 68, 0
2, 119040, Note_on_c, 1, 69, 77
2, 119400, Note_off_c, 1, 69, 0
2, 120480, Note_on_c, 1, 78, 78
2, 120840, Note_off_c, 1, 78, 0
2, 120960, Note_on_c, 1, 79, 74
2, 121320, Note_off_c, 1, 79, 0
2, 121440, Note_on_c, 1, 67, 79
2, 121600, Note_off_c, 1, 67, 0
2, 121600, Note_on_c, 1, 71, 79
2, 121760, Note_off_c, 1, 71, 0
2, 121760, Note_on_c, 1, 74, 79
2, 121920, Note_off_c, 1, 74, 0
2, 121920, Note_on_c, 1, 79, 79
2, 122080, Note_off_c, 1, 79, 0
2, 122080, Note_on_c, 1, 83, 79
2, 122240, Note_off_c, 1, 83, 0
2, 122240, Note_on_c, 1, 86, 79
2, 122400, Note_off_c, 1, 86, 0
2, 122400, Note_on_c, 1, 84, 80
2, 122560, Note_off_c, 1, 84, 0
2, 122560, Note_on_c, 1, 81, 80
2, 122720, Note_off_c, 1, 81, 0
2, 122720, Note_on_c, 1, 78, 80
2, 122880, Note_off_c, 1, 78, 0
2, 122880, Note_on_c, 1, 79, 80
2, 123120, Note_off_c, 1, 79, 0
2, 123360, Note_on_c, 1, 67, 80
2, 123520, Note_off_c, 1, 67, 0
2, 123520, Note_on_c, 1, 71, 81
2, 123680, Note_off_c, 1, 71, 0
2, 123680, Note_on_c, 1, 74, 81
2, 123840, Note_off_c, 1, 74, 0
2, 123840, Note_on_c, 1, 79, 81
2, 124000, Note_off_c, 1, 79, 0
2, 124000, Note_on_c, 1, 83, 81
2, 124160, Note_off_c, 1, 83, 0
2, 124160, Note_on_c, 1, 86, 81
2, 124320, Note_off_c, 1, 86, 0
2, 124320, Note_on_c, 1, 84, 81
2, 124480, Note_off_c, 1, 84, 0
2, 124480, Note_on_c, 1, 81, 81
2, 124640, Note_off_c, 1, 81, 0
2, 124640, Note_on_c, 1, 78, 81
2, 124800, Note_off_c, 1, 78, 0
2, 124800, Note_on_c, 1, 79, 82
2, 124960, Note_off_c, 1, 79, 0
2, 124960, Note_on_c, 1, 83, 82
2, 125120, Note_off_c, 1, 83, 0
2, 125120, Note_on_c, 1, 86, 82
2, 125280, Note_off_c, 1, 86, 0
2, 125280, Note_on_c, 1, 84, 82
2, 125440, Note_off_c, 1, 84, 0
2, 125440, Note_on_c, 1, 81, 82
2, 125600, Note_off_c, 1, 81, 0
2, 125600, Note_on_c, 1, 78, 82
2, 125760, Note_off_c, 1, 78, 0
2, 125760, Note_on_c, 1, 79, 82
2, 125920, Note_off_c, 1, 79, 0
2, 125920, Note_on_c, 1, 83, 83
2, 126080, Note_off_c, 1, 83, 0
2, 126080, Note_on_c, 1, 86, 83
2, 126240, Note_off_c, 1, 86, 0
2, 126240, Note_on_c, 1, 84, 83
2, 126400, Note_off_c, 1, 84, 0
2, 126400, Note_on_c, 1, 81, 83
2, 126560, Note_off_c, 1, 81, 0
2, 126560, Note_on_c, 1, 78, 83
2, 126720, Note_off_c, 1, 78, 0
2, 126720, Note_on_c, 1, 79, 83
2, 127080, Note_off_c, 1, 79, 0
2, 134880, Note_on_c, 1, 67, 59
2, 135120, Note_off_c, 1, 67, 0
2, 135360, Note_on_c, 1, 69, 61
2, 135600, Note_off_c, 1, 69, 0
2, 135840, Note_on_c, 1, 71, 62
2, 136080, Note_off_c, 1, 71, 0
2, 136320, Note_on_c, 1, 72, 64
2, 136560, Note_off_c, 1, 72, 0
2, 136800, Note_on_c, 1, 76, 66
2, 137040, Note_off_c, 1, 76, 0
2, 137280, Note_on_c, 1, 77, 67
2, 137520, Note_off_c, 1, 77, 0
2, 137760, Note_on_c, 1, 80, 69
2, 138000, Note_off_c, 1, 80, 0
2, 138240, Note_on_c, 1, 81, 71
2, 138480, Note_off_c, 1, 81, 0
2, 138480, Note_on_c, 1, 84, 71
2, 138720, Note_off_c, 1, 84, 0
2, 138720, Note_on_c, 1, 83, 72
2, 138960, Note_off_c, 1, 83, 0
2, 138960, Note_on_c, 1, 81, 73
2, 139200, Note_off_c, 1, 81, 0
2, 139200, Note_on_c, 1, 83, 74
2, 139440, Note_off_c, 1, 83, 0
2, 139440, Note_on_c, 1, 84, 75
2, 139680, Note_off_c, 1, 84, 0
2, 139680, Note_on_c, 1, 81, 76
2, 139920, Note_off_c, 1, 81, 0
2, 139920, Note_on_c, 1, 83, 76
2, 140112, Note_off_c, 1, 83, 0
2, 140160, Note_on_c, 1, 84, 78
2, 142200, Note_off_c, 1, 84, 0
2, 142320, Note_on_c, 1, 81, 73
2, 142476, Note_off_c, 1, 81, 0
2, 142560, Note_on_c, 1, 83, 72
2, 143160, Note_off_c, 1, 83, 0
2, 143280, Note_on_c, 1, 80, 71
2, 143436, Note_off_c, 1, 80, 0
2, 143520, Note_on_c, 1, 81, 70
2, 144000, Note_off_c, 1, 81, 0
2, 144240, Note_on_c, 1, 78, 69
2, 144396, Note_off_c, 1, 78, 0
2, 144480, Note_on_c, 1, 79, 68
2, 145080, Note_off_c, 1, 79, 0
2, 145200, Note_on_c, 1, 76, 67
2, 145356, Note_off_c, 1, 76, 0
2, 145440, Note_on_c, 1, 77, 66
2, 145596, Note_off_c, 1, 77, 0
2, 145680, Note_on_c, 1, 77, 66
2, 145836, Note_off_c, 1, 77, 0
2, 145920, Note_on_c, 1, 77, 65
2, 146160, Note_off_c, 1, 77, 0
2, 146160, Note_on_c, 1, 79, 58
2, 146240, Note_off_c, 1, 79, 0
2, 146240, Note_on_c, 1, 77, 59
2, 146320, Note_off_c, 1, 77, 0
2, 146320, Note_on_c, 1, 76, 60
2, 146400, Note_off_c, 1, 76, 0
2, 146400, Note_on_c, 1, 77, 61
2, 146640, Note_off_c, 1, 77, 0
2, 146640, Note_on_c, 1, 79, 63
2, 146880, Note_off_c, 1, 79, 0
2, 146880, Note_on_c, 1, 81, 66
2, 147360, Note_off_c, 1, 81, 0
2, 147360, Note_on_c, 1, 79, 62
2, 147600, Note_off_c, 1, 79, 0
2, 147600, Note_on_c, 1, 77, 62
2, 147840, Note_off_c, 1, 77, 0
2, 147840, Note_on_c, 1, 76, 61
2, 147996, Note_off_c, 1, 76, 0
2, 148320, Note_on_c, 1, 82, 77
2, 149280, Note_off_c, 1, 82, 0
2, 149280, Note_on_c, 1, 81, 63
2, 149520, Note_off_c, 1, 81, 0
2, 149520, Note_on_c, 1, 79, 60
2, 149760, Note_off_c, 1, 79, 0
2, 149760, Note_on_c, 1, 77, 57
2, 149916, Note_off_c, 1, 77, 0
2, 150000, Note_on_c, 1, 82, 57
2, 150240, Note_off_c, 1, 82, 0
2, 150240, Note_on_c, 1, 81, 56
2, 150480, Note_off_c, 1, 81, 0
2, 150480, Note_on_c, 1, 80, 56
2, 150720, Note_off_c, 1, 80, 0
2, 150720, Note_on_c, 1, 81, 55
2, 150960, Note_off_c, 1, 81, 0
2, 150960, Note_on_c, 1, 76, 55
2, 151200, Note_off_c, 1, 76, 0
2, 151200, Note_on_c, 1, 81, 54
2, 151440, Note_off_c, 1, 81, 0
2, 151440, Note_on_c, 1, 79, 54
2, 151680, Note_off_c, 1, 79, 0
2, 151680, Note_on_c, 1, 77, 53
2, 151920, Note_off_c, 1, 77, 0
2, 151920, Note_on_c, 1, 81, 53
2, 152160, Note_off_c, 1, 81, 0
2, 152160, Note_on_c, 1, 79, 52
2, 152400, Note_off_c, 1, 79, 0
2, 152400, Note_on_c, 1, 78, 52
2, 152640, Note_off_c, 1, 78, 0
2, 152640, Note_on_c, 1, 79, 51
2, 152880, Note_off_c, 1, 79, 0
2, 152880, Note_on_c, 1, 74, 51
2, 153120, Note_off_c, 1, 74, 0
2, 153120, Note_on_c, 1, 79, 50
2, 153360, Note_off_c, 1, 79, 0
2, 153360, Note_on_c, 1, 77, 50
2, 153840, Note_off_c, 1, 77, 0
2, 153840, Note_on_c, 1, 75, 49
2, 154080, Note_off_c, 1, 75, 0
2, 154080, Note_on_c, 1, 77, 48
2, 154320, Note_off_c, 1, 77, 0
2, 154320, Note_on_c, 1, 76, 48
2, 154800, Note_off_c, 1, 76, 0
2, 154800, Note_on_c, 1, 69, 47
2, 155040, Note_off_c, 1, 69, 0
2, 155040, Note_on_c, 1, 76, 46
2, 155280, Note_off_c, 1, 76, 0
2, 155280, Note_on_c, 1, 74, 46
2, 155760, Note_off_c, 1, 74, 0
2, 155760, Note_on_c, 1, 67, 45
2, 156000, Note_off_c, 1, 67, 0
2, 156000, Note_on_c, 1, 74, 44
2, 156240, Note_off_c, 1, 74, 0
2, 156240, Note_on_c, 1, 72, 44
2, 156720, Note_off_c, 1, 72, 0
2, 156720, Note_on_c, 1, 65, 43
2, 156960, Note_off_c, 1, 65, 0
2, 156960, Note_on_c, 1, 72, 42
2, 157200, Note_off_c, 1, 72, 0
2, 157200, Note_on_c, 1, 71, 42
2, 157392, Note_off_c, 1, 71, 0
2, 157600, Note_on_c, 1, 72, 97
2, 157704, Note_off_c, 1, 72, 0
2, 157760, Note_on_c, 1, 74, 97
2, 157864, Note_off_c, 1, 74, 0
2, 157920, Note_on_c, 1, 76, 96
2, 158024, Note_off_c, 1, 76, 0
2, 158080, Note_on_c, 1, 78, 95
2, 158184, Note_off_c, 1, 78, 0
2, 158240, Note_on_c, 1, 79, 94
2, 158344, Note_off_c, 1, 79, 0
2, 158400, Note_on_c, 1, 81, 94
2, 158504, Note_off_c, 1, 81, 0
2, 158560, Note_on_c, 1, 83, 93
2, 158664, Note_off_c, 1, 83, 0
2, 158720, Note_on_c, 1, 84, 92
2, 158824, Note_off_c, 1, 84, 0
2, 158880, Note_on_c, 1, 86, 91
2, 158984, Note_off_c, 1, 86, 0
2, 159040, Note_on_c, 1, 88, 91
2, 159144, Note_off_c, 1, 88, 0
2, 159200, Note_on_c, 1, 84, 90
2, 159304, Note_off_c, 1, 84, 0
2, 159520, Note_on_c, 1, 88, 72
2, 159680, Note_off_c, 1, 88, 0
2, 159680, Note_on_c, 1, 86, 72
2, 159840, Note_off_c, 1, 86, 0
2, 159840, Note_on_c, 1, 84, 71
2, 160000, Note_off_c, 1, 84, 0
2, 160000, Note_on_c, 1, 83, 70
2, 160160, Note_off_c, 1, 83, 0
2, 160160, Note_on_c, 1, 81, 69
2, 160320, Note_off_c, 1, 81, 0
2, 160320, Note_on_c, 1, 79, 68
2, 160480, Note_off_c, 1, 79, 0
2, 160480, Note_on_c, 1, 77, 67
2, 160640, Note_off_c, 1, 77, 0
2, 160640, Note_on_c, 1, 76, 66
2, 160800, Note_off_c, 1, 76, 0
2, 160800, Note_on_c, 1, 74, 66
2, 160960, Note_off_c, 1, 74, 0
2, 160960, Note_on_c, 1, 76, 65
2, 161120, Note_off_c, 1, 76, 0
2, 161120, Note_on_c, 1, 72, 64
2, 161248, Note_off_c, 1, 72, 0
2, 161440, Note_on_c, 1, 72, 95
2, 161544, Note_off_c, 1, 72, 0
2, 161600, Note_on_c, 1, 74, 94
2, 161704, Note_off_c, 1, 74, 0
2, 161760, Note_on_c, 1, 76, 94
2, 161864, Note_off_c, 1, 76, 0
2, 161920, Note_on_c, 1, 78, 93
2, 162024, Note_off_c, 1, 78, 0
2, 162080, Note_on_c, 1, 79, 92
2, 162184, Note_off_c, 1, 79, 0
2, 162240, Note_on_c, 1, 81, 91
2, 162344, Note_off_c, 1, 81, 0
2, 162400, Note_on_c, 1, 83, 91
2, 162504, Note_off_c, 1, 83, 0
2, 162560, Note_on_c, 1, 84, 90
2, 162664, Note_off_c, 1, 84, 0
2, 162720, Note_on_c, 1, 86, 89
2, 162824, Note_off_c, 1, 86, 0
2, 162880, Note_on_c, 1, 88, 89
2, 162984, Note_off_c, 1, 88, 0
2, 163040, Note_on_c, 1, 84, 88
2, 163144, Note_off_c, 1, 84, 0
2, 163360, Note_on_c, 1, 88, 63
2, 163520, Note_off_c, 1, 88, 0
2, 163520, Note_on_c, 1, 86, 62
2, 163680, Note_off_c, 1, 86, 0
2, 163680, Note_on_c, 1, 84, 62
2, 163840, Note_off_c, 1, 84, 0
2, 163840, Note_on_c, 1, 83, 61
2, 164000, Note_off_c, 1, 83, 0
2, 164000, Note_on_c, 1, 81, 61
2, 164160, Note_off_c, 1, 81, 0
2, 164160, Note_on_c, 1, 79, 60
2, 164320, Note_off_c, 1, 79, 0
2, 164320, Note_on_c, 1, 77, 60
2, 164480, Note_off_c, 1, 77, 0
2, 164480, Note_on_c, 1, 76, 59
2, 164640, Note_off_c, 1, 76, 0
2, 164640, Note_on_c, 1, 74, 59
2, 164800, Note_off_c, 1, 74, 0
2, 164800, Note_on_c, 1, 76, 58
2, 164960, Note_off_c, 1, 76, 0
2, 164960, Note_on_c, 1, 72, 58
2, 165088, Note_off_c, 1, 72, 0
2, 165280, Note_on_c, 1, 72, 93
2, 165384, Note_off_c, 1, 72, 0
2, 165440, Note_on_c, 1, 74, 93
2, 165544, Note_off_c, 1, 74, 0
2, 165600, Note_on_c, 1, 75, 92
2, 165704, Note_off_c, 1, 75, 0
2, 165760, Note_on_c, 1, 78, 92
2, 165864, Note_off_c, 1, 78, 0
2, 165920, Note_on_c, 1, 79, 91
2, 166024, Note_off_c, 1, 79, 0
2, 166080, Note_on_c, 1, 80, 90
2, 166184, Note_off_c, 1, 80, 0
2, 166240, Note_on_c, 1, 83, 90
2, 166344, Note_off_c, 1, 83, 0
2, 166400, Note_on_c, 1, 84, 89
2, 166504, Note_off_c, 1, 84, 0
2, 166560, Note_on_c, 1, 86, 89
2, 166664, Note_off_c, 1, 86, 0
2, 166720, Note_on_c, 1, 87, 88
2, 166824, Note_off_c, 1, 87, 0
2, 166880, Note_on_c, 1, 84, 88
2, 166984, Note_off_c, 1, 84, 0
2, 167040, Note_on_c, 1, 88, 87
2, 167160, Note_off_c, 1, 88, 0
2, 167160, Note_on_c, 1, 86, 87
2, 167280, Note_off_c, 1, 86, 0
2, 167280, Note_on_c, 1, 84, 86
2, 167400, Note_off_c, 1, 84, 0
2, 167400, Note_on_c, 1, 83, 86
2, 167520, Note_off_c, 1, 83, 0
2, 167520, Note_on_c, 1, 81, 85
2, 167640, Note_off_c, 1, 81, 0
2, 167640, Note_on_c, 1, 79, 85
2, 167760, Note_off_c, 1, 79, 0
2, 167760, Note_on_c, 1, 77, 84
2, 167880, Note_off_c, 1, 77, 0
2, 167880, Note_on_c, 1, 76, 84
2, 167976, Note_off_c, 1, 76, 0
2, 168000, Note_on_c, 1, 84, 84
2, 168120, Note_off_c, 1, 84, 0
2, 168120, Note_on_c, 1, 83, 83
2, 168240, Note_off_c, 1, 83, 0
2, 168240, Note_on_c, 1, 81, 83
2, 168360, Note_off_c, 1, 81, 0
2, 168360, Note_on_c, 1, 79, 82
2, 168480, Note_off_c, 1, 79, 0
2, 168480, Note_on_c, 1, 77, 82
2, 168600, Note_off_c, 1, 77, 0
2, 168600, Note_on_c, 1, 76, 81
2, 168720, Note_off_c, 1, 76, 0
2, 168720, Note_on_c, 1, 74, 81
2, 168840, Note_off_c, 1, 74, 0
2, 168840, Note_on_c, 1, 72, 81
2, 168936, Note_off_c, 1, 72, 0
2, 168960, Note_on_c, 1, 74, 80
2, 169040, Note_off_c, 1, 74, 0
2, 169040, Note_on_c, 1, 76, 80
2, 169120, Note_off_c, 1, 76, 0
2, 169120, Note_on_c, 1, 74, 80
2, 169200, Note_off_c, 1, 74, 0
2, 169200, Note_on_c, 1, 76, 79
2, 169280, Note_off_c, 1, 76, 0
2, 169280, Note_on_c, 1, 74, 79
2, 169360, Note_off_c, 1, 74, 0
2, 169360, Note_on_c, 1, 76, 79
2, 169440, Note_off_c, 1, 76, 0
2, 169440, Note_on_c, 1, 74, 78
2, 169520, Note_off_c, 1, 74, 0
2, 169520, Note_on_c, 1, 76, 78
2, 169600, Note_off_c, 1, 76, 0
2, 169600, Note_on_c, 1, 74, 78
2, 169680, Note_off_c, 1, 74, 0
2, 169680, Note_on_c, 1, 76, 78
2, 169760, Note_off_c, 1, 76, 0
2, 169760, Note_on_c, 1, 74, 77
2, 169840, Note_off_c, 1, 74, 0
2, 169840, Note_on_c, 1, 76, 77
2, 169920, Note_off_c, 1, 76, 0
2, 169920, Note_on_c, 1, 74, 77
2, 170000, Note_off_c, 1, 74, 0
2, 170000, Note_on_c, 1, 76, 76
2, 170080, Note_off_c, 1, 76, 0
2, 170080, Note_on_c, 1, 74, 76
2, 170160, Note_off_c, 1, 74, 0
2, 170160, Note_on_c, 1, 76, 76
2, 170240, Note_off_c, 1, 76, 0
2, 170240, Note_on_c, 1, 74, 76
2, 170320, Note_off_c, 1, 74, 0
2, 170320, Note_on_c, 1, 76, 75
2, 170400, Note_off_c, 1, 76, 0
2, 170400, Note_on_c, 1, 74, 75
2, 170480, Note_off_c, 1, 74, 0
2, 170480, Note_on_c, 1, 76, 75
2, 170560, Note_off_c, 1, 76, 0
2, 170560, Note_on_c, 1, 74, 74
2, 170640, Note_off_c, 1, 74, 0
2, 170640, Note_on_c, 1, 72, 74
2, 170760, Note_off_c, 1, 72, 0
2, 170760, Note_on_c, 1, 74, 74
2, 170856, Note_off_c, 1, 74, 0
2, 170880, Note_on_c, 1, 60, 81
2, 171008, Note_off_c, 1, 60, 0
2, 171040, Note_on_c, 1, 64, 81
2, 171168, Note_off_c, 1, 64, 0
2, 171200, Note_on_c, 1, 67, 81
2, 171328, Note_off_c, 1, 67, 0
2, 171360, Note_on_c, 1, 72, 81
2, 171488, Note_off_c, 1, 72, 0
2, 171520, Note_on_c, 1, 76, 81
2, 171648, Note_off_c, 1, 76, 0
2, 171680, Note_on_c, 1, 79, 80
2, 171808, Note_off_c, 1, 79, 0
2, 171840, Note_on_c, 1, 84, 80
2, 172080, Note_off_c, 1, 84, 0
2, 172320, Note_on_c, 1, 83, 80
2, 172560, Note_off_c, 1, 83, 0
2, 172800, Note_on_c, 1, 81, 79
2, 173040, Note_off_c, 1, 81, 0
2, 173280, Note_on_c, 1, 79, 78
2, 173520, Note_off_c, 1, 79, 0
2, 173760, Note_on_c, 1, 77, 78
2, 174000, Note_off_c, 1, 77, 0
2, 174240, Note_on_c, 1, 76, 77
2, 174480, Note_off_c, 1, 76, 0
2, 174720, Note_on_c, 1, 64, 77
2, 174960, Note_off_c, 1, 64, 0
2, 175200, Note_on_c, 1, 65, 76
2, 175440, Note_off_c, 1, 65, 0
2, 175680, Note_on_c, 1, 64, 75
2, 175920, Note_off_c, 1, 64, 0
2, 176160, Note_on_c, 1, 62, 75
2, 176400, Note_off_c, 1, 62, 0
2, 176640, Note_on_c, 1, 60, 74
2, 176768, Note_off_c, 1, 60, 0
2, 176800, Note_on_c, 1, 64, 74
2, 176928, Note_off_c, 1, 64, 0
2, 176960, Note_on_c, 1, 67, 74
2, 177088, Note_off_c, 1, 67, 0
2, 177120, Note_on_c, 1, 72, 74
2, 177248, Note_off_c, 1, 72, 0
2, 177280, Note_on_c, 1, 76, 73
2, 177408, Note_off_c, 1, 76, 0
2, 177440, Note_on_c, 1, 79, 73
2, 177568, Note_off_c, 1, 79, 0
2, 177600, Note_on_c, 1, 84, 73
2, 177840, Note_off_c, 1, 84, 0
2, 178080, Note_on_c, 1, 83, 72
2, 178320, Note_off_c, 1, 83, 0
2, 178560, Note_on_c, 1, 81, 72
2, 178800, Note_off_c, 1, 81, 0
2, 179040, Note_on_c, 1, 79, 71
2, 179280, Note_off_c, 1, 79, 0
2, 179520, Note_on_c, 1, 77, 71
2, 179760, Note_off_c, 1, 77, 0
2, 180000, Note_on_c, 1, 76, 70
2, 180240, Note_off_c, 1, 76, 0
2, 180480, Note_on_c, 1, 64, 70
2, 180720, Note_off_c, 1, 64, 0
2, 180960, Note_on_c, 1, 65, 69
2, 181200, Note_off_c, 1, 65, 0
2, 181440, Note_on_c, 1, 64, 68
2, 181680, Note_off_c, 1, 64, 0
2, 181920, Note_on_c, 1, 62, 68
2, 182160, Note_off_c, 1, 62, 0
2, 182400, Note_on_c, 1, 64, 67
2, 182640, Note_off_c, 1, 64, 0
2, 182880, Note_on_c, 1, 63, 67
2, 183120, Note_off_c, 1, 63, 0
2, 183360, Note_on_c, 1, 64, 66
2, 183600, Note_off_c, 1, 64, 0
2, 183840, Note_on_c, 1, 63, 65
2, 184080, Note_off_c, 1, 63, 0
2, 184320, Note_on_c, 1, 64, 65
2, 184560, Note_off_c, 1, 64, 0
2, 184800, Note_on_c, 1, 69, 64
2, 185040, Note_off_c, 1, 69, 0
2, 185280, Note_on_c, 1, 67, 64
2, 185520, Note_off_c, 1, 67, 0
2, 185760, Note_on_c, 1, 65, 63
2, 186000, Note_off_c, 1, 65, 0
2, 186240, Note_on_c, 1, 55, 62
2, 186480, Note_off_c, 1, 55, 0
2, 186720, Note_on_c, 1, 54, 62
2, 186960, Note_off_c, 1, 54, 0
2, 187200, Note_on_c, 1, 55, 61
2, 187440, Note_off_c, 1, 55, 0
2, 187680, Note_on_c, 1, 54, 61
2, 187920, Note_off_c, 1, 54, 0
2, 188160, Note_on_c, 1, 55, 60
2, 188400, Note_off_c, 1, 55, 0
2, 188640, Note_on_c, 1, 62, 59
2, 188880, Note_off_c, 1, 62, 0
2, 189120, Note_on_c, 1, 60, 59
2, 189360, Note_off_c, 1, 60, 0
2, 189600, Note_on_c, 1, 59, 58
2, 189840, Note_off_c, 1, 59, 0
2, 190080, Note_on_c, 1, 48, 60
2, 190208, Note_off_c, 1, 48, 0
2, 190240, Note_on_c, 1, 52, 61
2, 190368, Note_off_c, 1, 52, 0
2, 190400, Note_on_c, 1, 55, 62
2, 190528, Note_off_c, 1, 55, 0
2, 190560, Note_on_c, 1, 60, 63
2, 190688, Note_off_c, 1, 60, 0
2, 190720, Note_on_c, 1, 55, 64
2, 190848, Note_off_c, 1, 55, 0
2, 190880, Note_on_c, 1, 52, 65
2, 191008, Note_off_c, 1, 52, 0
2, 191040, Note_on_c, 1, 48, 66
2, 191168, Note_off_c, 1, 48, 0
2, 191200, Note_on_c, 1, 52, 67
2, 191328, Note_off_c, 1, 52, 0
2, 191360, Note_on_c, 1, 55, 68
2, 191488, Note_off_c, 1, 55, 0
2, 191520, Note_on_c, 1, 60, 69
2, 191648, Note_off_c, 1, 60, 0
2, 191680, Note_on_c, 1, 55, 70
2, 191808, Note_off_c, 1, 55, 0
2, 191840, Note_on_c, 1, 52, 71
2, 191968, Note_off_c, 1, 52, 0
2, 192000, Note_on_c, 1, 48, 72
2, 192128, Note_off_c, 1, 48, 0
2, 192160, Note_on_c, 1, 52, 73
2, 192288, Note_off_c, 1, 52, 0
2, 192320, Note_on_c, 1, 55, 74
2, 192448, Note_off_c, 1, 55, 0
2, 192480, Note_on_c, 1, 60, 75
2, 192608, Note_off_c, 1, 60, 0
2, 192640, Note_on_c, 1, 64, 76
2, 192768, Note_off_c, 1, 64, 0
2, 192800, Note_on_c, 1, 67, 77
2, 192928, Note_off_c, 1, 67, 0
2, 192960, Note_on_c, 1, 72, 78
2, 193088, Note_off_c, 1, 72, 0
2, 193120, Note_on_c, 1, 67, 79
2, 193248, Note_off_c, 1, 67, 0
2, 193280, Note_on_c, 1, 64, 80
2, 193408, Note_off_c, 1, 64, 0
2, 193440, Note_on_c, 1, 60, 81
2, 193568, Note_off_c, 1, 60, 0
2, 193600, Note_on_c, 1, 64, 82
2, 193728, Note_off_c, 1, 64, 0
2, 193760, Note_on_c, 1, 67, 83
2, 193888, Note_off_c, 1, 67, 0
2, 193920, Note_on_c, 1, 60, 84
2, 194048, Note_off_c, 1, 60, 0
2, 194080, Note_on_c, 1, 64, 85
2, 194208, Note_off_c, 1, 64, 0
2, 194240, Note_on_c, 1, 67, 86
2, 194368, Note_off_c, 1, 67, 0
2, 194400, Note_on_c, 1, 72, 87
2, 194528, Note_off_c, 1, 72, 0
2, 194560, Note_on_c, 1, 76, 88
2, 194688, Note_off_c, 1, 76, 0
2, 194720, Note_on_c, 1, 79, 89
2, 194848, Note_off_c, 1, 79, 0
2, 194880, Note_on_c, 1, 84, 90
2, 195008, Note_off_c, 1, 84, 0
2, 195040, Note_on_c, 1, 79, 91
2, 195168, Note_off_c, 1, 79, 0
2, 195200, Note_on_c, 1, 76, 92
2, 195328, Note_off_c, 1, 76, 0
2, 195360, Note_on_c, 1, 72, 93
2, 195488, Note_off_c, 1, 72, 0
2, 195520, Note_on_c, 1, 76, 94
2, 195648, Note_off_c, 1, 76, 0
2, 195680, Note_on_c, 1, 79, 95
2, 195808, Note_off_c, 1, 79, 0
2, 195840, Note_on_c, 1, 72, 96
2, 195840, Note_on_c, 1, 84, 96
2, 196200, Note_off_c, 1, 84, 0
2, 196200, Note_off_c, 1, 72, 0
2, 196320, Note_on_c, 1, 72, 92
2, 196320, Note_on_c, 1, 60, 92
2, 196680, Note_off_c, 1, 60, 0
2, 196680, Note_off_c, 1, 72, 0
2, 197280, Note_on_c, 1, 79, 56
2, 197520, Note_off_c, 1, 79, 0
2, 197760, Note_on_c, 1, 77, 53
2, 198000, Note_off_c, 1, 77, 0
2, 198000, Note_on_c, 1, 75, 52
2, 198240, Note_off_c, 1, 75, 0
2, 198240, Note_on_c, 1, 74, 51
2, 198480, Note_off_c, 1, 74, 0
2, 198480, Note_on_c, 1, 72, 50
2, 198720, Note_off_c, 1, 72, 0
2, 198720, Note_on_c, 1, 75, 49
2, 198960, Note_off_c, 1, 75, 0
2, 198960, Note_on_c, 1, 74, 48
2, 199200, Note_off_c, 1, 74, 0
2, 199200, Note_on_c, 1, 77, 47
2, 199440, Note_off_c, 1, 77, 0
2, 199440, Note_on_c, 1, 71, 46
2, 199632, Note_off_c, 1, 71, 0
2, 199680, Note_on_c, 1, 72, 48
2, 200160, Note_off_c, 1, 72, 0
2, 200160, Note_on_c, 1, 67, 42
2, 200520, Note_off_c, 1, 67, 0
2, 201120, Note_on_c, 1, 75, 52
2, 201360, Note_off_c, 1, 75, 0
2, 201600, Note_on_c, 1, 74, 59
2, 202080, Note_off_c, 1, 74, 0
2, 202080, Note_on_c, 1, 72, 55
2, 202440, Note_off_c, 1, 72, 0
2, 203040, Note_on_c, 1, 79, 63
2, 203280, Note_off_c, 1, 79, 0
2, 203520, Note_on_c, 1, 77, 71
2, 204000, Note_off_c, 1, 77, 0
2, 204000, Note_on_c, 1, 75, 67
2, 204360, Note_off_c, 1, 75, 0
2, 204960, Note_on_c, 1, 79, 81
2, 205200, Note_off_c, 1, 79, 0
2, 205440, Note_on_c, 1, 87, 79
2, 205600, Note_off_c, 1, 87, 0
2, 205600, Note_on_c, 1, 89, 78
2, 205760, Note_off_c, 1, 89, 0
2, 205760, Note_on_c, 1, 87, 78
2, 205920, Note_off_c, 1, 87, 0
2, 205920, Note_on_c, 1, 86, 77
2, 206080, Note_off_c, 1, 86, 0
2, 206080, Note_on_c, 1, 84, 76
2, 206240, Note_off_c, 1, 84, 0
2, 206240, Note_on_c, 1, 83, 75
2, 206400, Note_off_c, 1, 83, 0
2, 206400, Note_on_c, 1, 84, 75
2, 206560, Note_off_c, 1, 84, 0
2, 206560, Note_on_c, 1, 86, 74
2, 206720, Note_off_c, 1, 86, 0
2, 206720, Note_on_c, 1, 84, 73
2, 206880, Note_off_c, 1, 84, 0
2, 206880, Note_on_c, 1, 82, 72
2, 207040, Note_off_c, 1, 82, 0
2, 207040, Note_on_c, 1, 81, 71
2, 207200, Note_off_c, 1, 81, 0
2, 207200, Note_on_c, 1, 79, 71
2, 207360, Note_off_c, 1, 79, 0
2, 207360, Note_on_c, 1, 78, 70
2, 207520, Note_off_c, 1, 78, 0
2, 207520, Note_on_c, 1, 79, 69
2, 207680, Note_off_c, 1, 79, 0
2, 207680, Note_on_c, 1, 81, 68
2, 207840, Note_off_c, 1, 81, 0
2, 207840, Note_on_c, 1, 79, 68
2, 208000, Note_off_c, 1, 79, 0
2, 208000, Note_on_c, 1, 78, 67
2, 208160, Note_off_c, 1, 78, 0
2, 208160, Note_on_c, 1, 75, 66
2, 208320, Note_off_c, 1, 75, 0
2, 208320, Note_on_c, 1, 74, 65
2, 208480, Note_off_c, 1, 74, 0
2, 208480, Note_on_c, 1, 72, 64
2, 208640, Note_off_c, 1, 72, 0
2, 208640, Note_on_c, 1, 70, 64
2, 208800, Note_off_c, 1, 70, 0
2, 208800, Note_on_c, 1, 69, 63
2, 208960, Note_off_c, 1, 69, 0
2, 208960, Note_on_c, 1, 67, 62
2, 209120, Note_off_c, 1, 67, 0
2, 209120, Note_on_c, 1, 66, 61
2, 209280, Note_off_c, 1, 66, 0
2, 209280, Note_on_c, 1, 67, 61
2, 209640, Note_off_c, 1, 67, 0
2, 216960, Note_on_c, 1, 79, 85
2, 217200, Note_off_c, 1, 79, 0
2, 217440, Note_on_c, 1, 81, 77
2, 217520, Note_off_c, 1, 81, 0
2, 217520, Note_on_c, 1, 82, 77
2, 217600, Note_off_c, 1, 82, 0
2, 217600, Note_on_c, 1, 81, 78
2, 217680, Note_off_c, 1, 81, 0
2, 217680, Note_on_c, 1, 79, 78
2, 217800, Note_off_c, 1, 79, 0
2, 217800, Note_on_c, 1, 81, 79
2, 217920, Note_off_c, 1, 81, 0
2, 217920, Note_on_c, 1, 82, 80
2, 219247, Note_off_c, 1, 82, 0
2, 219360, Note_on_c, 1, 80, 76
2, 219720, Note_off_c, 1, 80, 0
2, 219840, Note_on_c, 1, 81, 74
2, 220200, Note_off_c, 1, 81, 0
2, 220320, Note_on_c, 1, 79, 73
2, 220680, Note_off_c, 1, 79, 0
2, 220800, Note_on_c, 1, 77, 71
2, 221160, Note_off_c, 1, 77, 0
2, 221280, Note_on_c, 1, 76, 70
2, 221640, Note_off_c, 1, 76, 0
2, 221760, Note_on_c, 1, 74, 69
2, 222592, Note_off_c, 1, 74, 0
2, 222720, Note_on_c, 1, 73, 68
2, 222880, Note_off_c, 1, 73, 0
2, 222880, Note_on_c, 1, 69, 68
2, 223040, Note_off_c, 1, 69, 0
2, 223040, Note_on_c, 1, 73, 69
2, 223200, Note_off_c, 1, 73, 0
2, 223200, Note_on_c, 1, 76, 69
2, 223360, Note_off_c, 1, 76, 0
2, 223360, Note_on_c, 1, 81, 69
2, 223520, Note_off_c, 1, 81, 0
2, 223520, Note_on_c, 1, 85, 70
2, 223680, Note_off_c, 1, 85, 0
2, 223680, Note_on_c, 1, 88, 70
2, 223840, Note_off_c, 1, 88, 0
2, 223840, Note_on_c, 1, 86, 71
2, 224000, Note_off_c, 1, 86, 0
2, 224000, Note_on_c, 1, 85, 71
2, 224160, Note_off_c, 1, 85, 0
2, 224160, Note_on_c, 1, 82, 71
2, 224320, Note_off_c, 1, 82, 0
2, 224320, Note_on_c, 1, 81, 72
2, 224480, Note_off_c, 1, 81, 0
2, 224480, Note_on_c, 1, 79, 72
2, 224640, Note_off_c, 1, 79, 0
2, 224640, Note_on_c, 1, 77, 73
2, 225360, Note_off_c, 1, 77, 0
2, 226080, Note_on_c, 1, 86, 76
2, 226440, Note_off_c, 1, 86, 0
2, 226560, Note_on_c, 1, 85, 77
2, 226688, Note_off_c, 1, 85, 0
2, 226720, Note_on_c, 1, 69, 78
2, 226880, Note_off_c, 1, 69, 0
2, 226880, Note_on_c, 1, 73, 78
2, 227040, Note_off_c, 1, 73, 0
2, 227040, Note_on_c, 1, 76, 79
2, 227200, Note_off_c, 1, 76, 0
2, 227200, Note_on_c, 1, 81, 79
2, 227360, Note_off_c, 1, 81, 0
2, 227360, Note_on_c, 1, 85, 79
2, 227520, Note_off_c, 1, 85, 0
2, 227520, Note_on_c, 1, 88, 80
2, 227680, Note_off_c, 1, 88, 0
2, 227680, Note_on_c, 1, 86, 80
2, 227840, Note_off_c, 1, 86, 0
2, 227840, Note_on_c, 1, 85, 80
2, 228000, Note_off_c, 1, 85, 0
2, 228000, Note_on_c, 1, 82, 81
2, 228160, Note_off_c, 1, 82, 0
2, 228160, Note_on_c, 1, 81, 81
2, 228320, Note_off_c, 1, 81, 0
2, 228320, Note_on_c, 1, 79, 82
2, 228480, Note_off_c, 1, 79, 0
2, 228480, Note_on_c, 1, 77, 82
2, 229200, Note_off_c, 1, 77, 0
2, 229920, Note_on_c, 1, 86, 86
2, 230280, Note_off_c, 1, 86, 0
2, 230400, Note_on_c, 1, 85, 87
2, 230640, Note_off_c, 1, 85, 0
2, 230880, Note_on_c, 1, 73, 85
2, 231120, Note_off_c, 1, 73, 0
2, 231360, Note_on_c, 1, 69, 84
2, 231600, Note_off_c, 1, 69, 0
2, 231840, Note_on_c, 1, 64, 82
2, 232080, Note_off_c, 1, 64, 0
2, 232320, Note_on_c, 1, 61, 80
2, 232560, Note_off_c, 1, 61, 0
2, 232800, Note_on_c, 1, 57, 78
2, 233040, Note_off_c, 1, 57, 0
2, 233280, Note_on_c, 1, 52, 77
2, 233520, Note_off_c, 1, 52, 0
2, 233760, Note_on_c, 1, 49, 75
2, 234000, Note_off_c, 1, 49, 0
2, 234240, Note_on_c, 1, 45, 77
2, 234368, Note_off_c, 1, 45, 0
2, 234400, Note_on_c, 1, 49, 77
2, 234528, Note_off_c, 1, 49, 0
2, 234560, Note_on_c, 1, 52, 78
2, 234688, Note_off_c, 1, 52, 0
2, 234720, Note_on_c, 1, 57, 79
2, 234848, Note_off_c, 1, 57, 0
2, 234880, Note_on_c, 1, 52, 79
2, 235008, Note_off_c, 1, 52, 0
2, 235040, Note_on_c, 1, 49, 80
2, 235168, Note_off_c, 1, 49, 0
2, 235200, Note_on_c, 1, 45, 81
2, 235328, Note_off_c, 1, 45, 0
2, 235360, Note_on_c, 1, 49, 81
2, 235488, Note_off_c, 1, 49, 0
2, 235520, Note_on_c, 1, 52, 82
2, 235648, Note_off_c, 1, 52, 0
2, 235680, Note_on_c, 1, 57, 83
2, 235808, Note_off_c, 1, 57, 0
2, 235840, Note_on_c, 1, 52, 83
2, 235968, Note_off_c, 1, 52, 0
2, 236000, Note_on_c, 1, 49, 84
2, 236128, Note_off_c, 1, 49, 0
2, 236160, Note_on_c, 1, 45, 85
2, 236288, Note_off_c, 1, 45, 0
2, 236320, Note_on_c, 1, 49, 85
2, 236448, Note_off_c, 1, 49, 0
2, 236480, Note_on_c, 1, 52, 86
2, 236608, Note_off_c, 1, 52, 0
2, 236640, Note_on_c, 1, 57, 87
2, 236768, Note_off_c, 1, 57, 0
2, 236800, Note_on_c, 1, 61, 87
2, 236928, Note_off_c, 1, 61, 0
2, 236960, Note_on_c, 1, 64, 88
2, 237088, Note_off_c, 1, 64, 0
2, 237120, Note_on_c, 1, 69, 89
2, 237248, Note_off_c, 1, 69, 0
2, 237280, Note_on_c, 1, 64, 90
2, 237408, Note_off_c, 1, 64, 0
2, 237440, Note_on_c, 1, 61, 90
2, 237568, Note_off_c, 1, 61, 0
2, 237600, Note_on_c, 1, 57, 91
2, 237728, Note_off_c, 1, 57, 0
2, 237760, Note_on_c, 1, 61, 92
2, 237888, Note_off_c, 1, 61, 0
2, 237920, Note_on_c, 1, 64, 92
2, 238048, Note_off_c, 1, 64, 0
2, 238080, Note_on_c, 1, 57, 93
2, 238208, Note_off_c, 1, 57, 0
2, 238240, Note_on_c, 1, 61, 94
2, 238368, Note_off_c, 1, 61, 0
2, 238400, Note_on_c, 1, 64, 94
2, 238528, Note_off_c, 1, 64, 0
2, 238560, Note_on_c, 1, 69, 95
2, 238688, Note_off_c, 1, 69, 0
2, 238720, Note_on_c, 1, 73, 96
2, 238848, Note_off_c, 1, 73, 0
2, 238880, Note_on_c, 1, 76, 96
2, 239008, Note_off_c, 1, 76, 0
2, 239040, Note_on_c, 1, 81, 97
2, 239168, Note_off_c, 1, 81, 0
2, 239200, Note_on_c, 1, 76, 98
2, 239328, Note_off_c, 1, 76, 0
2, 239360, Note_on_c, 1, 73, 98
2, 239488, Note_off_c, 1, 73, 0
2, 239520, Note_on_c, 1, 69, 99
2, 239648, Note_off_c, 1, 69, 0
2, 239680, Note_on_c, 1, 73, 100
2, 239808, Note_off_c, 1, 73, 0
2, 239840, Note_on_c, 1, 76, 100
2, 239968, Note_off_c, 1, 76, 0
2, 240000, Note_on_c, 1, 81, 101
2, 240240, Note_off_c, 1, 81, 0
2, 240480, Note_on_c, 1, 69, 92
2, 240720, Note_off_c, 1, 69, 0
2, 240960, Note_on_c, 1, 81, 67
2, 242080, Note_off_c, 1, 81, 0
2, 242080, Note_on_c, 1, 82, 57
2, 242240, Note_off_c, 1, 82, 0
2, 242240, Note_on_c, 1, 81, 56
2, 242400, Note_off_c, 1, 81, 0
2, 242400, Note_on_c, 1, 79, 55
2, 242560, Note_off_c, 1, 79, 0
2, 242560, Note_on_c, 1, 81, 55
2, 242720, Note_off_c, 1, 81, 0
2, 242720, Note_on_c, 1, 79, 54
2, 242880, Note_off_c, 1, 79, 0
2, 242880, Note_on_c, 1, 77, 53
2, 243040, Note_off_c, 1, 77, 0
2, 243040, Note_on_c, 1, 79, 52
2, 243200, Note_off_c, 1, 79, 0
2, 243200, Note_on_c, 1, 77, 51
2, 243360, Note_off_c, 1, 77, 0
2, 243360, Note_on_c, 1, 76, 50
2, 243520, Note_off_c, 1, 76, 0
2, 243520, Note_on_c, 1, 77, 50
2, 243680, Note_off_c, 1, 77, 0
2, 243680, Note_on_c, 1, 76, 49
2, 243840, Note_off_c, 1, 76, 0
2, 243840, Note_on_c, 1, 74, 48
2, 244080, Note_off_c, 1, 74, 0
2, 244320, Note_on_c, 1, 74, 49
2, 244800, Note_off_c, 1, 74, 0
2, 244800, Note_on_c, 1, 76, 49
2, 245280, Note_off_c, 1, 76, 0
2, 245280, Note_on_c, 1, 78, 50
2, 245760, Note_off_c, 1, 78, 0
2, 245760, Note_on_c, 1, 79, 50
2, 246000, Note_off_c, 1, 79, 0
2, 246240, Note_on_c, 1, 81, 51
2, 246480, Note_off_c, 1, 81, 0
2, 246720, Note_on_c, 1, 82, 51
2, 246960, Note_off_c, 1, 82, 0
2, 247200, Note_on_c, 1, 84, 51
2, 247440, Note_off_c, 1, 84, 0
2, 247680, Note_on_c, 1, 82, 52
2, 247920, Note_off_c, 1, 82, 0
2, 248640, Note_on_c, 1, 79, 70
2, 249760, Note_off_c, 1, 79, 0
2, 249760, Note_on_c, 1, 81, 62
2, 249920, Note_off_c, 1, 81, 0
2, 249920, Note_on_c, 1, 79, 62
2, 250080, Note_off_c, 1, 79, 0
2, 250080, Note_on_c, 1, 77, 61
2, 250240, Note_off_c, 1, 77, 0
2, 250240, Note_on_c, 1, 79, 61
2, 250400, Note_off_c, 1, 79, 0
2, 250400, Note_on_c, 1, 77, 60
2, 250560, Note_off_c, 1, 77, 0
2, 250560, Note_on_c, 1, 76, 60
2, 250720, Note_off_c, 1, 76, 0
2, 250720, Note_on_c, 1, 77, 59
2, 250880, Note_off_c, 1, 77, 0
2, 250880, Note_on_c, 1, 76, 59
2, 251040, Note_off_c, 1, 76, 0
2, 251040, Note_on_c, 1, 74, 58
2, 251200, Note_off_c, 1, 74, 0
2, 251200, Note_on_c, 1, 76, 57
2, 251360, Note_off_c, 1, 76, 0
2, 251360, Note_on_c, 1, 74, 57
2, 251520, Note_off_c, 1, 74, 0
2, 251520, Note_on_c, 1, 72, 56
2, 251760, Note_off_c, 1, 72, 0
2, 252000, Note_on_c, 1, 72, 56
2, 252480, Note_off_c, 1, 72, 0
2, 252480, Note_on_c, 1, 74, 56
2, 252960, Note_off_c, 1, 74, 0
2, 252960, Note_on_c, 1, 76, 57
2, 253440, Note_off_c, 1, 76, 0
2, 253440, Note_on_c, 1, 77, 57
2, 253680, Note_off_c, 1, 77, 0
2, 253920, Note_on_c, 1, 79, 58
2, 254160, Note_off_c, 1, 79, 0
2, 254400, Note_on_c, 1, 81, 58
2, 254640, Note_off_c, 1, 81, 0
2, 254880, Note_on_c, 1, 82, 59
2, 255120, Note_off_c, 1, 82, 0
2, 255360, Note_on_c, 1, 81, 59
2, 255600, Note_off_c, 1, 81, 0
2, 255840, Note_on_c, 1, 65, 59
2, 256080, Note_off_c, 1, 65, 0
2, 256320, Note_on_c, 1, 77, 76
2, 257440, Note_off_c, 1, 77, 0
2, 257440, Note_on_c, 1, 79, 69
2, 257600, Note_off_c, 1, 79, 0
2, 257600, Note_on_c, 1, 77, 68
2, 257760, Note_off_c, 1, 77, 0
2, 257760, Note_on_c, 1, 75, 67
2, 257920, Note_off_c, 1, 75, 0
2, 257920, Note_on_c, 1, 77, 67
2, 258080, Note_off_c, 1, 77, 0
2, 258080, Note_on_c, 1, 75, 66
2, 258240, Note_off_c, 1, 75, 0
2, 258240, Note_on_c, 1, 74, 66
2, 258400, Note_off_c, 1, 74, 0
2, 258400, Note_on_c, 1, 75, 65
2, 258560, Note_off_c, 1, 75, 0
2, 258560, Note_on_c, 1, 74, 64
2, 258720, Note_off_c, 1, 74, 0
2, 258720, Note_on_c, 1, 72, 64
2, 258880, Note_off_c, 1, 72, 0
2, 258880, Note_on_c, 1, 74, 63
2, 259040, Note_off_c, 1, 74, 0
2, 259040, Note_on_c, 1, 72, 62
2, 259200, Note_off_c, 1, 72, 0
2, 259200, Note_on_c, 1, 70, 62
2, 259440, Note_off_c, 1, 70, 0
2, 259680, Note_on_c, 1, 70, 63
2, 259920, Note_off_c, 1, 70, 0
2, 260160, Note_on_c, 1, 82, 79
2, 261280, Note_off_c, 1, 82, 0
2, 261280, Note_on_c, 1, 84, 72
2, 261440, Note_off_c, 1, 84, 0
2, 261440, Note_on_c, 1, 82, 72
2, 261600, Note_off_c, 1, 82, 0
2, 261600, Note_on_c, 1, 81, 71
2, 261760, Note_off_c, 1, 81, 0
2, 261760, Note_on_c, 1, 82, 70
2, 261920, Note_off_c, 1, 82, 0
2, 261920, Note_on_c, 1, 81, 70
2, 262080, Note_off_c, 1, 81, 0
2, 262080, Note_on_c, 1, 79, 69
2, 262240, Note_off_c, 1, 79, 0
2, 262240, Note_on_c, 1, 81, 69
2, 262400, Note_off_c, 1, 81, 0
2, 262400, Note_on_c, 1, 79, 68
2, 262560, Note_off_c, 1, 79, 0
2, 262560, Note_on_c, 1, 77, 67
2, 262720, Note_off_c, 1, 77, 0
2, 262720, Note_on_c, 1, 79, 67
2, 262880, Note_off_c, 1, 79, 0
2, 262880, Note_on_c, 1, 77, 66
2, 263040, Note_off_c, 1, 77, 0
2, 263040, Note_on_c, 1, 76, 66
2, 263200, Note_off_c, 1, 76, 0
2, 263200, Note_on_c, 1, 74, 66
2, 263360, Note_off_c, 1, 74, 0
2, 263360, Note_on_c, 1, 76, 66
2, 263520, Note_off_c, 1, 76, 0
2, 263520, Note_on_c, 1, 77, 67
2, 263680, Note_off_c, 1, 77, 0
2, 263680, Note_on_c, 1, 76, 67
2, 263840, Note_off_c, 1, 76, 0
2, 263840, Note_on_c, 1, 77, 67
2, 264000, Note_off_c, 1, 77, 0
2, 264000, Note_on_c, 1, 79, 67
2, 264160, Note_off_c, 1, 79, 0
2, 264160, Note_on_c, 1, 77, 67
2, 264320, Note_off_c, 1, 77, 0
2, 264320, Note_on_c, 1, 79, 67
2, 264480, Note_off_c, 1, 79, 0
2, 264480, Note_on_c, 1, 81, 67
2, 264640, Note_off_c, 1, 81, 0
2, 264640, Note_on_c, 1, 79, 68
2, 264800, Note_off_c, 1, 79, 0
2, 264800, Note_on_c, 1, 81, 68
2, 264960, Note_off_c, 1, 81, 0
2, 264960, Note_on_c, 1, 82, 68
2, 265120, Note_off_c, 1, 82, 0
2, 265120, Note_on_c, 1, 84, 68
2, 265280, Note_off_c, 1, 84, 0
2, 265280, Note_on_c, 1, 82, 68
2, 265440, Note_off_c, 1, 82, 0
2, 265440, Note_on_c, 1, 81, 68
2, 265600, Note_off_c, 1, 81, 0
2, 265600, Note_on_c, 1, 82, 68
2, 265760, Note_off_c, 1, 82, 0
2, 265760, Note_on_c, 1, 81, 69
2, 265920, Note_off_c, 1, 81, 0
2, 265920, Note_on_c, 1, 79, 69
2, 266080, Note_off_c, 1, 79, 0
2, 266080, Note_on_c, 1, 81, 69
2, 266240, Note_off_c, 1, 81, 0
2, 266240, Note_on_c, 1, 79, 69
2, 266400, Note_off_c, 1, 79, 0
2, 266400, Note_on_c, 1, 77, 69
2, 266560, Note_off_c, 1, 77, 0
2, 266560, Note_on_c, 1, 79, 69
2, 266720, Note_off_c, 1, 79, 0
2, 266720, Note_on_c, 1, 77, 70
2, 266880, Note_off_c, 1, 77, 0
2, 266880, Note_on_c, 1, 76, 70
2, 267040, Note_off_c, 1, 76, 0
2, 267040, Note_on_c, 1, 74, 70
2, 267200, Note_off_c, 1, 74, 0
2, 267200, Note_on_c, 1, 76, 70
2, 267360, Note_off_c, 1, 76, 0
2, 267360, Note_on_c, 1, 77, 70
2, 267520, Note_off_c, 1, 77, 0
2, 267520, Note_on_c, 1, 76, 70
2, 267680, Note_off_c, 1, 76, 0
2, 267680, Note_on_c, 1, 77, 70
2, 267840, Note_off_c, 1, 77, 0
2, 267840, Note_on_c, 1, 79, 71
2, 268000, Note_off_c, 1, 79, 0
2, 268000, Note_on_c, 1, 77, 71
2, 268160, Note_off_c, 1, 77, 0
2, 268160, Note_on_c, 1, 79, 71
2, 268320, Note_off_c, 1, 79, 0
2, 268320, Note_on_c, 1, 81, 71
2, 268480, Note_off_c, 1, 81, 0
2, 268480, Note_on_c, 1, 79, 71
2, 268640, Note_off_c, 1, 79, 0
2, 268640, Note_on_c, 1, 81, 71
2, 268800, Note_off_c, 1, 81, 0
2, 268800, Note_on_c, 1, 82, 71
2, 269040, Note_off_c, 1, 82, 0
2, 269280, Note_on_c, 1, 76, 70
2, 269520, Note_off_c, 1, 76, 0
2, 269760, Note_on_c, 1, 70, 68
2, 270000, Note_off_c, 1, 70, 0
2, 270240, Note_on_c, 1, 67, 67
2, 270480, Note_off_c, 1, 67, 0
2, 270720, Note_on_c, 1, 64, 65
2, 270960, Note_off_c, 1, 64, 0
2, 271200, Note_on_c, 1, 58, 64
2, 271440, Note_off_c, 1, 58, 0
2, 271680, Note_on_c, 1, 55, 62
2, 271920, Note_off_c, 1, 55, 0
2, 272160, Note_on_c, 1, 52, 61
2, 272400, Note_off_c, 1, 52, 0
2, 272640, Note_on_c, 1, 48, 65
2, 272800, Note_off_c, 1, 48, 0
2, 272800, Note_on_c, 1, 52, 67
2, 272960, Note_off_c, 1, 52, 0
2, 272960, Note_on_c, 1, 55, 68
2, 273120, Note_off_c, 1, 55, 0
2, 273120, Note_on_c, 1, 58, 69
2, 273280, Note_off_c, 1, 58, 0
2, 273280, Note_on_c, 1, 55, 70
2, 273440, Note_off_c, 1, 55, 0
2, 273440, Note_on_c, 1, 52, 72
2, 273600, Note_off_c, 1, 52, 0
2, 273600, Note_on_c, 1, 48, 73
2, 273760, Note_off_c, 1, 48, 0
2, 273760, Note_on_c, 1, 52, 74
2, 273920, Note_off_c, 1, 52, 0
2, 273920, Note_on_c, 1, 55, 76
2, 274080, Note_off_c, 1, 55, 0
2, 274080, Note_on_c, 1, 58, 77
2, 274240, Note_off_c, 1, 58, 0
2, 274240, Note_on_c, 1, 55, 78
2, 274400, Note_off_c, 1, 55, 0
2, 274400, Note_on_c, 1, 52, 79
2, 274560, Note_off_c, 1, 52, 0
2, 274560, Note_on_c, 1, 48, 81
2, 274720, Note_off_c, 1, 48, 0
2, 274720, Note_on_c, 1, 52, 82
2, 274880, Note_off_c, 1, 52, 0
2, 274880, Note_on_c, 1, 55, 83
2, 275040, Note_off_c, 1, 55, 0
2, 275040, Note_on_c, 1, 60, 85
2, 275200, Note_off_c, 1, 60, 0
2, 275200, Note_on_c, 1, 64, 86
2, 275360, Note_off_c, 1, 64, 0
2, 275360, Note_on_c, 1, 67, 87
2, 275520, Note_off_c, 1, 67, 0
2, 275520, Note_on_c, 1, 70, 88
2, 275680, Note_off_c, 1, 70, 0
2, 275680, Note_on_c, 1, 67, 90
2, 275840, Note_off_c, 1, 67, 0
2, 275840, Note_on_c, 1, 64, 91
2, 276000, Note_off_c, 1, 64, 0
2, 276000, Note_on_c, 1, 60, 92
2, 276160, Note_off_c, 1, 60, 0
2, 276160, Note_on_c, 1, 64, 94
2, 276320, Note_off_c, 1, 64, 0
2, 276320, Note_on_c, 1, 67, 95
2, 276480, Note_off_c, 1, 67, 0
2, 276480, Note_on_c, 1, 60, 96
2, 276640, Note_off_c, 1, 60, 0
2, 276640, Note_on_c, 1, 64, 97
2, 276800, Note_off_c, 1, 64, 0
2, 276800, Note_on_c, 1, 67, 99
2, 276960, Note_off_c, 1, 67, 0
2, 276960, Note_on_c, 1, 72, 100
2, 277120, Note_off_c, 1, 72, 0
2, 277120, Note_on_c, 1, 76, 101
2, 277280, Note_off_c, 1, 76, 0
2, 277280, Note_on_c, 1, 79, 103
2, 277440, Note_off_c, 1, 79, 0
2, 277440, Note_on_c, 1, 82, 104
2, 277600, Note_off_c, 1, 82, 0
2, 277600, Note_on_c, 1, 79, 105
2, 277760, Note_off_c, 1, 79, 0
2, 277760, Note_on_c, 1, 76, 106
2, 277920, Note_off_c, 1, 76, 0
2, 277920, Note_on_c, 1, 72, 108
2, 278080, Note_off_c, 1, 72, 0
2, 278080, Note_on_c, 1, 76, 109
2, 278240, Note_off_c, 1, 76, 0
2, 278240, Note_on_c, 1, 79, 110
2, 278400, Note_off_c, 1, 79, 0
2, 278400, Note_on_c, 1, 82, 112
2, 278760, Note_off_c, 1, 82, 0
2, 278880, Note_on_c, 1, 70, 97
2, 279240, Note_off_c, 1, 70, 0
2, 279840, Note_on_c, 1, 72, 55
2, 280080, Note_off_c, 1, 72, 0
2, 280320, Note_on_c, 1, 70, 49
2, 280526, Note_off_c, 1, 70, 0
2, 280560, Note_on_c, 1, 69, 48
2, 280766, Note_off_c, 1, 69, 0
2, 280800, Note_on_c, 1, 67, 47
2, 281006, Note_off_c, 1, 67, 0
2, 281040, Note_on_c, 1, 65, 46
2, 281246, Note_off_c, 1, 65, 0
2, 281280, Note_on_c, 1, 69, 45
2, 281486, Note_off_c, 1, 69, 0
2, 281520, Note_on_c, 1, 67, 45
2, 281726, Note_off_c, 1, 67, 0
2, 281760, Note_on_c, 1, 70, 44
2, 281966, Note_off_c, 1, 70, 0
2, 282000, Note_on_c, 1, 64, 43
2, 282192, Note_off_c, 1, 64, 0
2, 282240, Note_on_c, 1, 65, 42
2, 282480, Note_off_c, 1, 65, 0
2, 282720, Note_on_c, 1, 60, 40
2, 282960, Note_off_c, 1, 60, 0
2, 283200, Note_on_c, 1, 72, 59
2, 283920, Note_off_c, 1, 72, 0
2, 284160, Note_on_c, 1, 70, 50
2, 284400, Note_off_c, 1, 70, 0
2, 284400, Note_on_c, 1, 69, 49
2, 284640, Note_off_c, 1, 69, 0
2, 284640, Note_on_c, 1, 67, 48
2, 284880, Note_off_c, 1, 67, 0
2, 284880, Note_on_c, 1, 65, 47
2, 285120, Note_off_c, 1, 65, 0
2, 285120, Note_on_c, 1, 69, 46
2, 285360, Note_off_c, 1, 69, 0
2, 285360, Note_on_c, 1, 67, 45
2, 285600, Note_off_c, 1, 67, 0
2, 285600, Note_on_c, 1, 70, 44
2, 285840, Note_off_c, 1, 70, 0
2, 285840, Note_on_c, 1, 64, 43
2, 286032, Note_off_c, 1, 64, 0
2, 286080, Note_on_c, 1, 65, 44
2, 287940, Note_off_c, 1, 65, 0
2, 288000, Note_on_c, 1, 66, 51
2, 288240, Note_off_c, 1, 66, 0
2, 288240, Note_on_c, 1, 67, 52
2, 288480, Note_off_c, 1, 67, 0
2, 288480, Note_on_c, 1, 69, 53
2, 288720, Note_off_c, 1, 69, 0
2, 288720, Note_on_c, 1, 70, 55
2, 288960, Note_off_c, 1, 70, 0
2, 288960, Note_on_c, 1, 72, 56
2, 289200, Note_off_c, 1, 72, 0
2, 289200, Note_on_c, 1, 73, 57
2, 289440, Note_off_c, 1, 73, 0
2, 289440, Note_on_c, 1, 74, 59
2, 289680, Note_off_c, 1, 74, 0
2, 289680, Note_on_c, 1, 76, 60
2, 289872, Note_off_c, 1, 76, 0
2, 289920, Note_on_c, 1, 79, 61
2, 290160, Note_off_c, 1, 79, 0
2, 290160, Note_on_c, 1, 77, 59
2, 290400, Note_off_c, 1, 77, 0
2, 290400, Note_on_c, 1, 76, 58
2, 290640, Note_off_c, 1, 76, 0
2, 290640, Note_on_c, 1, 74, 57
2, 290832, Note_off_c, 1, 74, 0
2, 290880, Note_on_c, 1, 74, 56
2, 291120, Note_off_c, 1, 74, 0
2, 291120, Note_on_c, 1, 72, 54
2, 291360, Note_off_c, 1, 72, 0
2, 291360, Note_on_c, 1, 70, 53
2, 291600, Note_off_c, 1, 70, 0
2, 291600, Note_on_c, 1, 69, 52
2, 291792, Note_off_c, 1, 69, 0
2, 291840, Note_on_c, 1, 67, 51
2, 292170, Note_off_c, 1, 67, 0
2, 292200, Note_on_c, 1, 69, 49
2, 292320, Note_off_c, 1, 69, 0
2, 292320, Note_on_c, 1, 67, 48
2, 292560, Note_off_c, 1, 67, 0
2, 292560, Note_on_c, 1, 66, 47
2, 292800, Note_off_c, 1, 66, 0
2, 292800, Note_on_c, 1, 67, 46
2, 293280, Note_off_c, 1, 67, 0
2, 293280, Note_on_c, 1, 72, 43
2, 293707, Note_off_c, 1, 72, 0
2, 293760, Note_on_c, 1, 65, 41
2, 294480, Note_off_c, 1, 65, 0
2, 298560, Note_on_c, 1, 80, 68
2, 299280, Note_off_c, 1, 80, 0
2, 299520, Note_on_c, 1, 78, 62
2, 299760, Note_off_c, 1, 78, 0
2, 299760, Note_on_c, 1, 77, 61
2, 300000, Note_off_c, 1, 77, 0
2, 300000, Note_on_c, 1, 75, 60
2, 300240, Note_off_c, 1, 75, 0
2, 300240, Note_on_c, 1, 73, 59
2, 300480, Note_off_c, 1, 73, 0
2, 300480, Note_on_c, 1, 77, 59
2, 300720, Note_off_c, 1, 77, 0
2, 300720, Note_on_c, 1, 75, 58
2, 300960, Note_off_c, 1, 75, 0
2, 300960, Note_on_c, 1, 78, 57
2, 301200, Note_off_c, 1, 78, 0
2, 301200, Note_on_c, 1, 72, 56
2, 301392, Note_off_c, 1, 72, 0
2, 301440, Note_on_c, 1, 73, 56
2, 301680, Note_off_c, 1, 73, 0
2, 301920, Note_on_c, 1, 68, 54
2, 302160, Note_off_c, 1, 68, 0
2, 302880, Note_on_c, 1, 81, 73
2, 303360, Note_off_c, 1, 81, 0
2, 303360, Note_on_c, 1, 82, 68
2, 303720, Note_off_c, 1, 82, 0
2, 304800, Note_on_c, 1, 84, 71
2, 305280, Note_off_c, 1, 84, 0
2, 305280, Note_on_c, 1, 85, 71
2, 306240, Note_off_c, 1, 85, 0
2, 306240, Note_on_c, 1, 84, 70
2, 307192, Note_off_c, 1, 84, 0
2, 307200, Note_on_c, 1, 82, 69
2, 308400, Note_on_c, 1, 80, 68
2, 308422, Note_off_c, 1, 82, 0
2, 308640, Note_off_c, 1, 80, 0
2, 308640, Note_on_c, 1, 84, 68
2, 308880, Note_off_c, 1, 84, 0
2, 308880, Note_on_c, 1, 77, 69
2, 309120, Note_off_c, 1, 77, 0
2, 309120, Note_on_c, 1, 80, 69
2, 309360, Note_off_c, 1, 80, 0
2, 309360, Note_on_c, 1, 78, 69
2, 309600, Note_off_c, 1, 78, 0
2, 309600, Note_on_c, 1, 82, 69
2, 309840, Note_off_c, 1, 82, 0
2, 309840, Note_on_c, 1, 75, 70
2, 310080, Note_off_c, 1, 75, 0
2, 310080, Note_on_c, 1, 78, 70
2, 310320, Note_off_c, 1, 78, 0
2, 310320, Note_on_c, 1, 77, 70
2, 310560, Note_off_c, 1, 77, 0
2, 310560, Note_on_c, 1, 80, 70
2, 310800, Note_off_c, 1, 80, 0
2, 310800, Note_on_c, 1, 73, 71
2, 311040, Note_off_c, 1, 73, 0
2, 311040, Note_on_c, 1, 77, 71
2, 311280, Note_off_c, 1, 77, 0
2, 311280, Note_on_c, 1, 75, 71
2, 311520, Note_off_c, 1, 75, 0
2, 311520, Note_on_c, 1, 78, 71
2, 311760, Note_off_c, 1, 78, 0
2, 311760, Note_on_c, 1, 72, 72
2, 312000, Note_off_c, 1, 72, 0
2, 312000, Note_on_c, 1, 75, 72
2, 312240, Note_off_c, 1, 75, 0
2, 312240, Note_on_c, 1, 73, 72
2, 312480, Note_off_c, 1, 73, 0
2, 312480, Note_on_c, 1, 77, 72
2, 312720, Note_off_c, 1, 77, 0
2, 312720, Note_on_c, 1, 70, 73
2, 312960, Note_off_c, 1, 70, 0
2, 312960, Note_on_c, 1, 73, 73
2, 313200, Note_off_c, 1, 73, 0
2, 313200, Note_on_c, 1, 72, 73
2, 313440, Note_off_c, 1, 72, 0
2, 313440, Note_on_c, 1, 75, 73
2, 313680, Note_off_c, 1, 75, 0
2, 313680, Note_on_c, 1, 68, 74
2, 313920, Note_off_c, 1, 68, 0
2, 313920, Note_on_c, 1, 72, 74
2, 314160, Note_off_c, 1, 72, 0
2, 314160, Note_on_c, 1, 70, 74
2, 314400, Note_off_c, 1, 70, 0
2, 314400, Note_on_c, 1, 73, 74
2, 314640, Note_off_c, 1, 73, 0
2, 314640, Note_on_c, 1, 67, 75
2, 314832, Note_off_c, 1, 67, 0
2, 314880, Note_on_c, 1, 70, 77
2, 315120, Note_off_c, 1, 70, 0
2, 315120, Note_on_c, 1, 68, 75
2, 315360, Note_off_c, 1, 68, 0
2, 315360, Note_on_c, 1, 67, 74
2, 315600, Note_off_c, 1, 67, 0
2, 315600, Note_on_c, 1, 65, 72
2, 315792, Note_off_c, 1, 65, 0
2, 315840, Note_on_c, 1, 70, 79
2, 316080, Note_off_c, 1, 70, 0
2, 316080, Note_on_c, 1, 68, 77
2, 316320, Note_off_c, 1, 68, 0
2, 316320, Note_on_c, 1, 67, 75
2, 316560, Note_off_c, 1, 67, 0
2, 316560, Note_on_c, 1, 65, 73
2, 316752, Note_off_c, 1, 65, 0
2, 316800, Note_on_c, 1, 70, 79
2, 317040, Note_off_c, 1, 70, 0
2, 317040, Note_on_c, 1, 68, 78
2, 317280, Note_off_c, 1, 68, 0
2, 317280, Note_on_c, 1, 67, 76
2, 317520, Note_off_c, 1, 67, 0
2, 317520, Note_on_c, 1, 65, 75
2, 317760, Note_off_c, 1, 65, 0
2, 317760, Note_on_c, 1, 70, 79
2, 318000, Note_off_c, 1, 70, 0
2, 318000, Note_on_c, 1, 68, 78
2, 318240, Note_off_c, 1, 68, 0
2, 318240, Note_on_c, 1, 67, 77
2, 318480, Note_off_c, 1, 67, 0
2, 318480, Note_on_c, 1, 65, 76
2, 318720, Note_off_c, 1, 65, 0
2, 318720, Note_on_c, 1, 77, 79
2, 318960, Note_off_c, 1, 77, 0
2, 319680, Note_on_c, 1, 70, 81
2, 319920, Note_off_c, 1, 70, 0
2, 319920, Note_on_c, 1, 68, 80
2, 320160, Note_off_c, 1, 68, 0
2, 320160, Note_on_c, 1, 67, 79
2, 320400, Note_off_c, 1, 67, 0
2, 320400, Note_on_c, 1, 65, 78
2, 320640, Note_off_c, 1, 65, 0
2, 320640, Note_on_c, 1, 80, 81
2, 320880, Note_off_c, 1, 80, 0
2, 321600, Note_on_c, 1, 71, 82
2, 321840, Note_off_c, 1, 71, 0
2, 322560, Note_on_c, 1, 72, 83
2, 322800, Note_off_c, 1, 72, 0
2, 323520, Note_on_c, 1, 72, 64
2, 324640, Note_on_c, 1, 74, 57
2, 324648, Note_off_c, 1, 72, 0
2, 324800, Note_off_c, 1, 74, 0
2, 324800, Note_on_c, 1, 72, 56
2, 324960, Note_off_c, 1, 72, 0
2, 324960, Note_on_c, 1, 70, 55
2, 325120, Note_off_c, 1, 70, 0
2, 325120, Note_on_c, 1, 72, 55
2, 325280, Note_off_c, 1, 72, 0
2, 325280, Note_on_c, 1, 70, 54
2, 325440, Note_off_c, 1, 70, 0
2, 325440, Note_on_c, 1, 69, 53
2, 325600, Note_off_c, 1, 69, 0
2, 325600, Note_on_c, 1, 70, 53
2, 325760, Note_off_c, 1, 70, 0
2, 325760, Note_on_c, 1, 69, 52
2, 325920, Note_off_c, 1, 69, 0
2, 325920, Note_on_c, 1, 67, 51
2, 326080, Note_off_c, 1, 67, 0
2, 326080, Note_on_c, 1, 69, 51
2, 326240, Note_off_c, 1, 69, 0
2, 326240, Note_on_c, 1, 67, 50
2, 326400, Note_off_c, 1, 67, 0
2, 326400, Note_on_c, 1, 65, 50
2, 326640, Note_off_c, 1, 65, 0
2, 326880, Note_on_c, 1, 64, 45
2, 326960, Note_off_c, 1, 64, 0
2, 326960, Note_on_c, 1, 65, 45
2, 327040, Note_off_c, 1, 65, 0
2, 327040, Note_on_c, 1, 64, 46
2, 327120, Note_off_c, 1, 64, 0
2, 327120, Note_on_c, 1, 62, 47
2, 327240, Note_off_c, 1, 62, 0
2, 327240, Note_on_c, 1, 64, 48
2, 327360, Note_off_c, 1, 64, 0
2, 327360, Note_on_c, 1, 65, 50
2, 327600, Note_off_c, 1, 65, 0
2, 327840, Note_on_c, 1, 67, 47
2, 327920, Note_off_c, 1, 67, 0
2, 327920, Note_on_c, 1, 69, 48
2, 328000, Note_off_c, 1, 69, 0
2, 328000, Note_on_c, 1, 67, 49
2, 328080, Note_off_c, 1, 67, 0
2, 328080, Note_on_c, 1, 65, 50
2, 328200, Note_off_c, 1, 65, 0
2, 328200, Note_on_c, 1, 67, 51
2, 328320, Note_off_c, 1, 67, 0
2, 328320, Note_on_c, 1, 69, 52
2, 328560, Note_off_c, 1, 69, 0
2, 328800, Note_on_c, 1, 70, 50
2, 328880, Note_off_c, 1, 70, 0
2, 328880, Note_on_c, 1, 72, 51
2, 328960, Note_off_c, 1, 72, 0
2, 328960, Note_on_c, 1, 70, 52
2, 329040, Note_off_c, 1, 70, 0
2, 329040, Note_on_c, 1, 69, 52
2, 329160, Note_off_c, 1, 69, 0
2, 329160, Note_on_c, 1, 70, 53
2, 329280, Note_off_c, 1, 70, 0
2, 329280, Note_on_c, 1, 72, 55
2, 329520, Note_off_c, 1, 72, 0
2, 329760, Note_on_c, 1, 74, 56
2, 330000, Note_off_c, 1, 74, 0
2, 330240, Note_on_c, 1, 65, 57
2, 330720, Note_off_c, 1, 65, 0
2, 330720, Note_on_c, 1, 64, 49
2, 330960, Note_off_c, 1, 64, 0
2, 331200, Note_on_c, 1, 74, 72
2, 332305, Note_off_c, 1, 74, 0
2, 332320, Note_on_c, 1, 75, 62
2, 332480, Note_off_c, 1, 75, 0
2, 332480, Note_on_c, 1, 74, 62
2, 332640, Note_off_c, 1, 74, 0
2, 332640, Note_on_c, 1, 72, 61
2, 332800, Note_off_c, 1, 72, 0
2, 332800, Note_on_c, 1, 74, 61
2, 332960, Note_off_c, 1, 74, 0
2, 332960, Note_on_c, 1, 72, 60
2, 333120, Note_off_c, 1, 72, 0
2, 333120, Note_on_c, 1, 70, 60
2, 333280, Note_off_c, 1, 70, 0
2, 333280, Note_on_c, 1, 72, 60
2, 333440, Note_off_c, 1, 72, 0
2, 333440, Note_on_c, 1, 70, 59
2, 333600, Note_off_c, 1, 70, 0
2, 333600, Note_on_c, 1, 69, 59
2, 333760, Note_off_c, 1, 69, 0
2, 333760, Note_on_c, 1, 70, 58
2, 333920, Note_off_c, 1, 70, 0
2, 333920, Note_on_c, 1, 69, 58
2, 334080, Note_off_c, 1, 69, 0
2, 334080, Note_on_c, 1, 67, 58
2, 334320, Note_off_c, 1, 67, 0
2, 334560, Note_on_c, 1, 79, 59
2, 334800, Note_off_c, 1, 79, 0
2, 335520, Note_on_c, 1, 76, 59
2, 335600, Note_off_c, 1, 76, 0
2, 335600, Note_on_c, 1, 77, 59
2, 335680, Note_off_c, 1, 77, 0
2, 335680, Note_on_c, 1, 76, 60
2, 335760, Note_off_c, 1, 76, 0
2, 335760, Note_on_c, 1, 74, 60
2, 335880, Note_off_c, 1, 74, 0
2, 335880, Note_on_c, 1, 76, 61
2, 336000, Note_off_c, 1, 76, 0
2, 336000, Note_on_c, 1, 77, 65
2, 336240, Note_off_c, 1, 77, 0
2, 336480, Note_on_c, 1, 65, 55
2, 336560, Note_off_c, 1, 65, 0
2, 336560, Note_on_c, 1, 67, 56
2, 336640, Note_off_c, 1, 67, 0
2, 336640, Note_on_c, 1, 65, 57
2, 336720, Note_off_c, 1, 65, 0
2, 336720, Note_on_c, 1, 64, 58
2, 336840, Note_off_c, 1, 64, 0
2, 336840, Note_on_c, 1, 65, 59
2, 336960, Note_off_c, 1, 65, 0
2, 336960, Note_on_c, 1, 69, 61
2, 337440, Note_off_c, 1, 69, 0
2, 337440, Note_on_c, 1, 67, 59
2, 337920, Note_off_c, 1, 67, 0
2, 337920, Note_on_c, 1, 65, 57
2, 338160, Note_off_c, 1, 65, 0
2, 339360, Note_on_c, 1, 72, 76
2, 339600, Note_off_c, 1, 72, 0
2, 339840, Note_on_c, 1, 84, 82
2, 340960, Note_off_c, 1, 84, 0
2, 340960, Note_on_c, 1, 86, 75
2, 341120, Note_off_c, 1, 86, 0
2, 341120, Note_on_c, 1, 84, 74
2, 341280, Note_off_c, 1, 84, 0
2, 341280, Note_on_c, 1, 82, 74
2, 341440, Note_off_c, 1, 82, 0
2, 341440, Note_on_c, 1, 84, 73
2, 341600, Note_off_c, 1, 84, 0
2, 341600, Note_on_c, 1, 82, 73
2, 341760, Note_off_c, 1, 82, 0
2, 341760, Note_on_c, 1, 81, 72
2, 341920, Note_off_c, 1, 81, 0
2, 341920, Note_on_c, 1, 82, 72
2, 342080, Note_off_c, 1, 82, 0
2, 342080, Note_on_c, 1, 81, 71
2, 342240, Note_off_c, 1, 81, 0
2, 342240, Note_on_c, 1, 79, 70
2, 342400, Note_off_c, 1, 79, 0
2, 342400, Note_on_c, 1, 77, 70
2, 342560, Note_off_c, 1, 77, 0
2, 342560, Note_on_c, 1, 76, 69
2, 342720, Note_off_c, 1, 76, 0
2, 342720, Note_on_c, 1, 77, 69
2, 342880, Note_off_c, 1, 77, 0
2, 342880, Note_on_c, 1, 79, 68
2, 343040, Note_off_c, 1, 79, 0
2, 343040, Note_on_c, 1, 77, 68
2, 343200, Note_off_c, 1, 77, 0
2, 343200, Note_on_c, 1, 75, 67
2, 343360, Note_off_c, 1, 75, 0
2, 343360, Note_on_c, 1, 74, 67
2, 343520, Note_off_c, 1, 74, 0
2, 343520, Note_on_c, 1, 73, 66
2, 343648, Note_off_c, 1, 73, 0
2, 343680, Note_on_c, 1, 74, 68
2, 343840, Note_off_c, 1, 74, 0
2, 343840, Note_on_c, 1, 79, 68
2, 344000, Note_off_c, 1, 79, 0
2, 344000, Note_on_c, 1, 78, 69
2, 344160, Note_off_c, 1, 78, 0
2, 344160, Note_on_c, 1, 79, 69
2, 344320, Note_off_c, 1, 79, 0
2, 344320, Note_on_c, 1, 82, 69
2, 344480, Note_off_c, 1, 82, 0
2, 344480, Note_on_c, 1, 81, 70
2, 344640, Note_off_c, 1, 81, 0
2, 344640, Note_on_c, 1, 82, 70
2, 344800, Note_off_c, 1, 82, 0
2, 344800, Note_on_c, 1, 86, 71
2, 344960, Note_off_c, 1, 86, 0
2, 344960, Note_on_c, 1, 85, 71
2, 345120, Note_off_c, 1, 85, 0
2, 345120, Note_on_c, 1, 86, 72
2, 345280, Note_off_c, 1, 86, 0
2, 345280, Note_on_c, 1, 82, 72
2, 345440, Note_off_c, 1, 82, 0
2, 345440, Note_on_c, 1, 79, 72
2, 345568, Note_off_c, 1, 79, 0
2, 345600, Note_on_c, 1, 77, 73
2, 346080, Note_off_c, 1, 77, 0
2, 346080, Note_on_c, 1, 76, 63
2, 346440, Note_off_c, 1, 76, 0
2, 347040, Note_on_c, 1, 65, 63
2, 347280, Note_off_c, 1, 65, 0
2, 347520, Note_on_c, 1, 77, 64
2, 348000, Note_off_c, 1, 77, 0
2, 348000, Note_on_c, 1, 78, 66
2, 348480, Note_off_c, 1, 78, 0
2, 348480, Note_on_c, 1, 79, 67
2, 348960, Note_off_c, 1, 79, 0
2, 348960, Note_on_c, 1, 81, 68
2, 349320, Note_off_c, 1, 81, 0
2, 349440, Note_on_c, 1, 82, 69
2, 349600, Note_off_c, 1, 82, 0
2, 349600, Note_on_c, 1, 81, 69
2, 349760, Note_off_c, 1, 81, 0
2, 349760, Note_on_c, 1, 82, 69
2, 349920, Note_off_c, 1, 82, 0
2, 349920, Note_on_c, 1, 83, 70
2, 350080, Note_off_c, 1, 83, 0
2, 350080, Note_on_c, 1, 81, 70
2, 350240, Note_off_c, 1, 81, 0
2, 350240, Note_on_c, 1, 83, 71
2, 350400, Note_off_c, 1, 83, 0
2, 350400, Note_on_c, 1, 84, 71
2, 350560, Note_off_c, 1, 84, 0
2, 350560, Note_on_c, 1, 83, 71
2, 350720, Note_off_c, 1, 83, 0
2, 350720, Note_on_c, 1, 84, 72
2, 350880, Note_off_c, 1, 84, 0
2, 350880, Note_on_c, 1, 88, 72
2, 351040, Note_off_c, 1, 88, 0
2, 351040, Note_on_c, 1, 86, 72
2, 351200, Note_off_c, 1, 86, 0
2, 351200, Note_on_c, 1, 88, 73
2, 351360, Note_off_c, 1, 88, 0
2, 351360, Note_on_c, 1, 89, 73
2, 351600, Note_off_c, 1, 89, 0
2, 351840, Note_on_c, 1, 86, 71
2, 352080, Note_off_c, 1, 86, 0
2, 352320, Note_on_c, 1, 84, 69
2, 352560, Note_off_c, 1, 84, 0
2, 352800, Note_on_c, 1, 82, 67
2, 353040, Note_off_c, 1, 82, 0
2, 353280, Note_on_c, 1, 77, 64
2, 353520, Note_off_c, 1, 77, 0
2, 353760, Note_on_c, 1, 81, 64
2, 353920, Note_off_c, 1, 81, 0
2, 353920, Note_on_c, 1, 79, 64
2, 354080, Note_off_c, 1, 79, 0
2, 354080, Note_on_c, 1, 77, 64
2, 354240, Note_off_c, 1, 77, 0
2, 354240, Note_on_c, 1, 76, 64
2, 354400, Note_off_c, 1, 76, 0
2, 354400, Note_on_c, 1, 74, 65
2, 354560, Note_off_c, 1, 74, 0
2, 354560, Note_on_c, 1, 72, 65
2, 354720, Note_off_c, 1, 72, 0
2, 354720, Note_on_c, 1, 71, 65
2, 354880, Note_off_c, 1, 71, 0
2, 354880, Note_on_c, 1, 74, 65
2, 355040, Note_off_c, 1, 74, 0
2, 355040, Note_on_c, 1, 71, 65
2, 355200, Note_off_c, 1, 71, 0
2, 355200, Note_on_c, 1, 74, 65
2, 355440, Note_off_c, 1, 74, 0
2, 355680, Note_on_c, 1, 72, 66
2, 355920, Note_off_c, 1, 72, 0
2, 356160, Note_on_c, 1, 70, 66
2, 356400, Note_off_c, 1, 70, 0
2, 356640, Note_on_c, 1, 69, 67
2, 356880, Note_off_c, 1, 69, 0
2, 357120, Note_on_c, 1, 65, 67
2, 357480, Note_off_c, 1, 65, 0
2, 358560, Note_on_c, 1, 77, 69
2, 359520, Note_off_c, 1, 77, 0
2, 359520, Note_on_c, 1, 76, 70
2, 359880, Note_off_c, 1, 76, 0
2, 360000, Note_on_c, 1, 77, 70
2, 360360, Note_off_c, 1, 77, 0
2, 360480, Note_on_c, 1, 79, 71
2, 360840, Note_off_c, 1, 79, 0
2, 360960, Note_on_c, 1, 81, 71
2, 361320, Note_off_c, 1, 81, 0
2, 361440, Note_on_c, 1, 84, 72
2, 361600, Note_off_c, 1, 84, 0
2, 361600, Note_on_c, 1, 82, 72
2, 361760, Note_off_c, 1, 82, 0
2, 361760, Note_on_c, 1, 81, 72
2, 361920, Note_off_c, 1, 81, 0
2, 361920, Note_on_c, 1, 79, 72
2, 362080, Note_off_c, 1, 79, 0
2, 362080, Note_on_c, 1, 77, 73
2, 362240, Note_off_c, 1, 77, 0
2, 362240, Note_on_c, 1, 76, 73
2, 362400, Note_off_c, 1, 76, 0
2, 362400, Note_on_c, 1, 77, 73
2, 362560, Note_off_c, 1, 77, 0
2, 362560, Note_on_c, 1, 75, 73
2, 362720, Note_off_c, 1, 75, 0
2, 362720, Note_on_c, 1, 73, 73
2, 362880, Note_off_c, 1, 73, 0
2, 362880, Note_on_c, 1, 74, 73
2, 363240, Note_off_c, 1, 74, 0
2, 364320, Note_on_c, 1, 83, 75
2, 364680, Note_off_c, 1, 83, 0
2, 364800, Note_on_c, 1, 84, 72
2, 365160, Note_off_c, 1, 84, 0
2, 365280, Note_on_c, 1, 60, 76
2, 365440, Note_off_c, 1, 60, 0
2, 365440, Note_on_c, 1, 64, 76
2, 365600, Note_off_c, 1, 64, 0
2, 365600, Note_on_c, 1, 67, 76
2, 365760, Note_off_c, 1, 67, 0
2, 365760, Note_on_c, 1, 72, 76
2, 365920, Note_off_c, 1, 72, 0
2, 365920, Note_on_c, 1, 76, 77
2, 366080, Note_off_c, 1, 76, 0
2, 366080, Note_on_c, 1, 79, 77
2, 366240, Note_off_c, 1, 79, 0
2, 366240, Note_on_c, 1, 77, 77
2, 366400, Note_off_c, 1, 77, 0
2, 366400, Note_on_c, 1, 74, 77
2, 366560, Note_off_c, 1, 74, 0
2, 366560, Note_on_c, 1, 71, 77
2, 366688, Note_off_c, 1, 71, 0
2, 366720, Note_on_c, 1, 72, 77
2, 366960, Note_off_c, 1, 72, 0
2, 367200, Note_on_c, 1, 60, 78
2, 367360, Note_off_c, 1, 60, 0
2, 367360, Note_on_c, 1, 64, 78
2, 367520, Note_off_c, 1, 64, 0
2, 367520, Note_on_c, 1, 67, 78
2, 367680, Note_off_c, 1, 67, 0
2, 367680, Note_on_c, 1, 72, 78
2, 367840, Note_off_c, 1, 72, 0
2, 367840, Note_on_c, 1, 76, 79
2, 368000, Note_off_c, 1, 76, 0
2, 368000, Note_on_c, 1, 79, 79
2, 368160, Note_off_c, 1, 79, 0
2, 368160, Note_on_c, 1, 77, 79
2, 368320, Note_off_c, 1, 77, 0
2, 368320, Note_on_c, 1, 74, 79
2, 368480, Note_off_c, 1, 74, 0
2, 368480, Note_on_c, 1, 71, 79
2, 368608, Note_off_c, 1, 71, 0
2, 368640, Note_on_c, 1, 72, 79
2, 368800, Note_off_c, 1, 72, 0
2, 368800, Note_on_c, 1, 76, 80
2, 368960, Note_off_c, 1, 76, 0
2, 368960, Note_on_c, 1, 79, 80
2, 369120, Note_off_c, 1, 79, 0
2, 369120, Note_on_c, 1, 77, 80
2, 369280, Note_off_c, 1, 77, 0
2, 369280, Note_on_c, 1, 74, 80
2, 369440, Note_off_c, 1, 74, 0
2, 369440, Note_on_c, 1, 71, 80
2, 369568, Note_off_c, 1, 71, 0
2, 369600, Note_on_c, 1, 55, 80
2, 369600, Note_on_c, 1, 72, 80
2, 369722, Note_off_c, 1, 55, 0
2, 369760, Note_off_c, 1, 72, 0
2, 369760, Note_on_c, 1, 76, 81
2, 369920, Note_off_c, 1, 76, 0
2, 369920, Note_on_c, 1, 79, 81
2, 370080, Note_off_c, 1, 79, 0
2, 370080, Note_on_c, 1, 77, 81
2, 370240, Note_off_c, 1, 77, 0
2, 370240, Note_on_c, 1, 74, 81
2, 370400, Note_off_c, 1, 74, 0
2, 370400, Note_on_c, 1, 71, 81
2, 370528, Note_off_c, 1, 71, 0
2, 370560, Note_on_c, 1, 72, 81
2, 370920, Note_off_c, 1, 72, 0
2, 378720, Note_on_c, 1, 60, 59
2, 378960, Note_off_c, 1, 60, 0
2, 379200, Note_on_c, 1, 62, 61
2, 379440, Note_off_c, 1, 62, 0
2, 379680, Note_on_c, 1, 64, 62
2, 379920, Note_off_c, 1, 64, 0
2, 380160, Note_on_c, 1, 65, 64
2, 380400, Note_off_c, 1, 65, 0
2, 380640, Note_on_c, 1, 69, 66
2, 380880, Note_off_c, 1, 69, 0
2, 381120, Note_on_c, 1, 70, 67
2, 381360, Note_off_c, 1, 70, 0
2, 381600, Note_on_c, 1, 73, 69
2, 381840, Note_off_c, 1, 73, 0
2, 382080, Note_on_c, 1, 74, 71
2, 382320, Note_off_c, 1, 74, 0
2, 382320, Note_on_c, 1, 77, 71
2, 382560, Note_off_c, 1, 77, 0
2, 382560, Note_on_c, 1, 76, 72
2, 382800, Note_off_c, 1, 76, 0
2, 382800, Note_on_c, 1, 74, 73
2, 383040, Note_off_c, 1, 74, 0
2, 383040, Note_on_c, 1, 76, 74
2, 383280, Note_off_c, 1, 76, 0
2, 383280, Note_on_c, 1, 77, 75
2, 383520, Note_off_c, 1, 77, 0
2, 383520, Note_on_c, 1, 74, 75
2, 383760, Note_off_c, 1, 74, 0
2, 383760, Note_on_c, 1, 76, 76
2, 383952, Note_off_c, 1, 76, 0
2, 384000, Note_on_c, 1, 77, 77
2, 384240, Note_off_c, 1, 77, 0
2, 384480, Note_on_c, 1, 74, 74
2, 384720, Note_off_c, 1, 74, 0
2, 384960, Note_on_c, 1, 69, 72
2, 385200, Note_off_c, 1, 69, 0
2, 385440, Note_on_c, 1, 71, 61
2, 385520, Note_off_c, 1, 71, 0
2, 385520, Note_on_c, 1, 72, 61
2, 385600, Note_off_c, 1, 72, 0
2, 385600, Note_on_c, 1, 71, 62
2, 385680, Note_off_c, 1, 71, 0
2, 385680, Note_on_c, 1, 69, 62
2, 385800, Note_off_c, 1, 69, 0
2, 385800, Note_on_c, 1, 71, 63
2, 385920, Note_off_c, 1, 71, 0
2, 385920, Note_on_c, 1, 72, 66
2, 386280, Note_off_c, 1, 72, 0
2, 386880, Note_on_c, 1, 72, 78
2, 387646, Note_off_c, 1, 72, 0
2, 387840, Note_on_c, 1, 70, 75
2, 388080, Note_off_c, 1, 70, 0
2, 388080, Note_on_c, 1, 69, 75
2, 388320, Note_off_c, 1, 69, 0
2, 388320, Note_on_c, 1, 67, 74
2, 388560, Note_off_c, 1, 67, 0
2, 388560, Note_on_c, 1, 65, 74
2, 388800, Note_off_c, 1, 65, 0
2, 388800, Note_on_c, 1, 69, 73
2, 389040, Note_off_c, 1, 69, 0
2, 389040, Note_on_c, 1, 67, 73
2, 389280, Note_off_c, 1, 67, 0
2, 389280, Note_on_c, 1, 70, 73
2, 389520, Note_off_c, 1, 70, 0
2, 389520, Note_on_c, 1, 64, 72
2, 389712, Note_off_c, 1, 64, 0
2, 389760, Note_on_c, 1, 65, 72
2, 390000, Note_off_c, 1, 65, 0
2, 390240, Note_on_c, 1, 60, 71
2, 390480, Note_off_c, 1, 60, 0
2, 390720, Note_on_c, 1, 84, 88
2, 391440, Note_off_c, 1, 84, 0
2, 391680, Note_on_c, 1, 82, 81
2, 391920, Note_off_c, 1, 82, 0
2, 391920, Note_on_c, 1, 81, 80
2, 392160, Note_off_c, 1, 81, 0
2, 392160, Note_on_c, 1, 79, 80
2, 392400, Note_off_c, 1, 79, 0
2, 392400, Note_on_c, 1, 77, 79
2, 392640, Note_off_c, 1, 77, 0
2, 392640, Note_on_c, 1, 81, 79
2, 392880, Note_off_c, 1, 81, 0
2, 392880, Note_on_c, 1, 79, 78
2, 393120, Note_off_c, 1, 79, 0
2, 393120, Note_on_c, 1, 82, 78
2, 393360, Note_off_c, 1, 82, 0
2, 393360, Note_on_c, 1, 76, 77
2, 393552, Note_off_c, 1, 76, 0
2, 393600, Note_on_c, 1, 77, 77
2, 393840, Note_off_c, 1, 77, 0
2, 394080, Note_on_c, 1, 72, 76
2, 394320, Note_off_c, 1, 72, 0
2, 394560, Note_on_c, 1, 84, 89
2, 395280, Note_off_c, 1, 84, 0
2, 395520, Note_on_c, 1, 82, 84
2, 395760, Note_off_c, 1, 82, 0
2, 395760, Note_on_c, 1, 81, 83
2, 396000, Note_off_c, 1, 81, 0
2, 396000, Note_on_c, 1, 79, 82
2, 396240, Note_off_c, 1, 79, 0
2, 396240, Note_on_c, 1, 77, 82
2, 396432, Note_off_c, 1, 77, 0
2, 396480, Note_on_c, 1, 86, 88
2, 397560, Note_off_c, 1, 86, 0
2, 397680, Note_on_c, 1, 87, 82
2, 397836, Note_off_c, 1, 87, 0
2, 397920, Note_on_c, 1, 88, 81
2, 398527, Note_off_c, 1, 88, 0
2, 398640, Note_on_c, 1, 85, 80
2, 398796, Note_off_c, 1, 85, 0
2, 398880, Note_on_c, 1, 86, 80
2, 399480, Note_off_c, 1, 86, 0
2, 399600, Note_on_c, 1, 83, 78
2, 399756, Note_off_c, 1, 83, 0
2, 399840, Note_on_c, 1, 84, 78
2, 400447, Note_off_c, 1, 84, 0
2, 400560, Note_on_c, 1, 81, 77
2, 400716, Note_off_c, 1, 81, 0
2, 400800, Note_on_c, 1, 82, 76
2, 400956, Note_off_c, 1, 82, 0
2, 401040, Note_on_c, 1, 82, 76
2, 401196, Note_off_c, 1, 82, 0
2, 401280, Note_on_c, 1, 82, 76
2, 401520, Note_off_c, 1, 82, 0
2, 401520, Note_on_c, 1, 84, 73
2, 401600, Note_off_c, 1, 84, 0
2, 401600, Note_on_c, 1, 82, 74
2, 401680, Note_off_c, 1, 82, 0
2, 401680, Note_on_c, 1, 81, 75
2, 401760, Note_off_c, 1, 81, 0
2, 401760, Note_on_c, 1, 82, 76
2, 402000, Note_off_c, 1, 82, 0
2, 402000, Note_on_c, 1, 84, 78
2, 402240, Note_off_c, 1, 84, 0
2, 402240, Note_on_c, 1, 86, 81
2, 402720, Note_off_c, 1, 86, 0
2, 402720, Note_on_c, 1, 84, 78
2, 402960, Note_off_c, 1, 84, 0
2, 402960, Note_on_c, 1, 82, 76
2, 403200, Note_off_c, 1, 82, 0
2, 403200, Note_on_c, 1, 81, 75
2, 403356, Note_off_c, 1, 81, 0
2, 403680, Note_on_c, 1, 87, 84
2, 404640, Note_off_c, 1, 87, 0
2, 404640, Note_on_c, 1, 86, 75
2, 404880, Note_off_c, 1, 86, 0
2, 404880, Note_on_c, 1, 84, 73
2, 405120, Note_off_c, 1, 84, 0
2, 405120, Note_on_c, 1, 82, 72
2, 405276, Note_off_c, 1, 82, 0
2, 405360, Note_on_c, 1, 87, 72
2, 405600, Note_off_c, 1, 87, 0
2, 405600, Note_on_c, 1, 86, 71
2, 405840, Note_off_c, 1, 86, 0
2, 405840, Note_on_c, 1, 85, 71
2, 406080, Note_off_c, 1, 85, 0
2, 406080, Note_on_c, 1, 86, 70
2, 406320, Note_off_c, 1, 86, 0
2, 406320, Note_on_c, 1, 81, 70
2, 406560, Note_off_c, 1, 81, 0
2, 406560, Note_on_c, 1, 86, 69
2, 406800, Note_off_c, 1, 86, 0
2, 406800, Note_on_c, 1, 84, 69
2, 407040, Note_off_c, 1, 84, 0
2, 407040, Note_on_c, 1, 82, 68
2, 407280, Note_off_c, 1, 82, 0
2, 407280, Note_on_c, 1, 86, 68
2, 407520, Note_off_c, 1, 86, 0
2, 407520, Note_on_c, 1, 84, 67
2, 407760, Note_off_c, 1, 84, 0
2, 407760, Note_on_c, 1, 83, 67
2, 408000, Note_off_c, 1, 83, 0
2, 408000, Note_on_c, 1, 84, 67
2, 408240, Note_off_c, 1, 84, 0
2, 408240, Note_on_c, 1, 79, 66
2, 408480, Note_off_c, 1, 79, 0
2, 408480, Note_on_c, 1, 84, 66
2, 408720, Note_off_c, 1, 84, 0
2, 408720, Note_on_c, 1, 82, 65
2, 409200, Note_off_c, 1, 82, 0
2, 409200, Note_on_c, 1, 80, 64
2, 409440, Note_off_c, 1, 80, 0
2, 409440, Note_on_c, 1, 82, 64
2, 409680, Note_off_c, 1, 82, 0
2, 409680, Note_on_c, 1, 81, 63
2, 410160, Note_off_c, 1, 81, 0
2, 410160, Note_on_c, 1, 74, 63
2, 410400, Note_off_c, 1, 74, 0
2, 410400, Note_on_c, 1, 81, 62
2, 410640, Note_off_c, 1, 81, 0
2, 410640, Note_on_c, 1, 79, 62
2, 411120, Note_off_c, 1, 79, 0
2, 411120, Note_on_c, 1, 72, 61
2, 411360, Note_off_c, 1, 72, 0
2, 411360, Note_on_c, 1, 79, 60
2, 411600, Note_off_c, 1, 79, 0
2, 411600, Note_on_c, 1, 77, 60
2, 412080, Note_off_c, 1, 77, 0
2, 412080, Note_on_c, 1, 70, 59
2, 412320, Note_off_c, 1, 70, 0
2, 412320, Note_on_c, 1, 77, 58
2, 412560, Note_off_c, 1, 77, 0
2, 412560, Note_on_c, 1, 76, 58
2, 413040, Note_off_c, 1, 76, 0
2, 413040, Note_on_c, 1, 69, 57
2, 413280, Note_off_c, 1, 69, 0
2, 413280, Note_on_c, 1, 77, 57
2, 413520, Note_off_c, 1, 77, 0
2, 413520, Note_on_c, 1, 75, 56
2, 414000, Note_off_c, 1, 75, 0
2, 414000, Note_on_c, 1, 68, 55
2, 414240, Note_off_c, 1, 68, 0
2, 414240, Note_on_c, 1, 75, 55
2, 414480, Note_off_c, 1, 75, 0
2, 414480, Note_on_c, 1, 74, 54
2, 414960, Note_off_c, 1, 74, 0
2, 414960, Note_on_c, 1, 67, 53
2, 415200, Note_off_c, 1, 67, 0
2, 415200, Note_on_c, 1, 75, 53
2, 415440, Note_off_c, 1, 75, 0
2, 415440, Note_on_c, 1, 73, 53
2, 415920, Note_off_c, 1, 73, 0
2, 415920, Note_on_c, 1, 66, 52
2, 416160, Note_off_c, 1, 66, 0
2, 416160, Note_on_c, 1, 73, 51
2, 416400, Note_off_c, 1, 73, 0
2, 416400, Note_on_c, 1, 72, 51
2, 416880, Note_off_c, 1, 72, 0
2, 416880, Note_on_c, 1, 67, 50
2, 417120, Note_off_c, 1, 67, 0
2, 417120, Note_on_c, 1, 72, 49
2, 417360, Note_off_c, 1, 72, 0
2, 417360, Note_on_c, 1, 70, 49
2, 417840, Note_off_c, 1, 70, 0
2, 417840, Note_on_c, 1, 62, 48
2, 418080, Note_off_c, 1, 62, 0
2, 418080, Note_on_c, 1, 69, 48
2, 418320, Note_off_c, 1, 69, 0
2, 418320, Note_on_c, 1, 67, 47
2, 418800, Note_off_c, 1, 67, 0
2, 418800, Note_on_c, 1, 60, 46
2, 419040, Note_off_c, 1, 60, 0
2, 419040, Note_on_c, 1, 67, 46
2, 419280, Note_off_c, 1, 67, 0
2, 419280, Note_on_c, 1, 65, 45
2, 419760, Note_off_c, 1, 65, 0
2, 419760, Note_on_c, 1, 58, 44
2, 420000, Note_off_c, 1, 58, 0
2, 420000, Note_on_c, 1, 65, 44
2, 420240, Note_off_c, 1, 65, 0
2, 420240, Note_on_c, 1, 64, 44
2, 420432, Note_off_c, 1, 64, 0
2, 420480, Control_c, 1, 64, 0
2, 420640, Note_on_c, 1, 65, 87
2, 420744, Note_off_c, 1, 65, 0
2, 420800, Note_on_c, 1, 67, 87
2, 420904, Note_off_c, 1, 67, 0
2, 420960, Note_on_c, 1, 69, 86
2, 421064, Note_off_c, 1, 69, 0
2, 421120, Note_on_c, 1, 71, 85
2, 421224, Note_off_c, 1, 71, 0
2, 421280, Note_on_c, 1, 72, 84
2, 421384, Note_off_c, 1, 72, 0
2, 421440, Note_on_c, 1, 74, 84
2, 421544, Note_off_c, 1, 74, 0
2, 421600, Note_on_c, 1, 76, 83
2, 421704, Note_off_c, 1, 76, 0
2, 421760, Note_on_c, 1, 77, 82
2, 421864, Note_off_c, 1, 77, 0
2, 421920, Note_on_c, 1, 79, 81
2, 422024, Note_off_c, 1, 79, 0
2, 422080, Note_on_c, 1, 81, 81
2, 422184, Note_off_c, 1, 81, 0
2, 422240, Note_on_c, 1, 77, 80
2, 422344, Note_off_c, 1, 77, 0
2, 422560, Note_on_c, 1, 81, 66
2, 422720, Note_off_c, 1, 81, 0
2, 422720, Note_on_c, 1, 79, 65
2, 422880, Note_off_c, 1, 79, 0
2, 422880, Note_on_c, 1, 77, 64
2, 423040, Note_off_c, 1, 77, 0
2, 423040, Note_on_c, 1, 76, 62
2, 423200, Note_off_c, 1, 76, 0
2, 423200, Note_on_c, 1, 74, 61
2, 423360, Note_off_c, 1, 74, 0
2, 423360, Note_on_c, 1, 72, 60
2, 423520, Note_off_c, 1, 72, 0
2, 423520, Note_on_c, 1, 70, 59
2, 423680, Note_off_c, 1, 70, 0
2, 423680, Note_on_c, 1, 69, 58
2, 423840, Note_off_c, 1, 69, 0
2, 423840, Note_on_c, 1, 67, 56
2, 424000, Note_off_c, 1, 67, 0
2, 424000, Note_on_c, 1, 69, 55
2, 424160, Note_off_c, 1, 69, 0
2, 424160, Note_on_c, 1, 65, 54
2, 424288, Note_off_c, 1, 65, 0
2, 424480, Note_on_c, 1, 65, 83
2, 424584, Note_off_c, 1, 65, 0
2, 424640, Note_on_c, 1, 67, 83
2, 424744, Note_off_c, 1, 67, 0
2, 424800, Note_on_c, 1, 69, 82
2, 424904, Note_off_c, 1, 69, 0
2, 424960, Note_on_c, 1, 71, 82
2, 425064, Note_off_c, 1, 71, 0
2, 425120, Note_on_c, 1, 72, 81
2, 425224, Note_off_c, 1, 72, 0
2, 425280, Note_on_c, 1, 74, 80
2, 425384, Note_off_c, 1, 74, 0
2, 425440, Note_on_c, 1, 76, 80
2, 425544, Note_off_c, 1, 76, 0
2, 425600, Note_on_c, 1, 77, 79
2, 425704, Note_off_c, 1, 77, 0
2, 425760, Note_on_c, 1, 79, 79
2, 425864, Note_off_c, 1, 79, 0
2, 425920, Note_on_c, 1, 81, 78
2, 426024, Note_off_c, 1, 81, 0
2, 426080, Note_on_c, 1, 77, 78
2, 426184, Note_off_c, 1, 77, 0
2, 426400, Note_on_c, 1, 81, 61
2, 426560, Note_off_c, 1, 81, 0
2, 426560, Note_on_c, 1, 79, 60
2, 426720, Note_off_c, 1, 79, 0
2, 426720, Note_on_c, 1, 77, 59
2, 426880, Note_off_c, 1, 77, 0
2, 426880, Note_on_c, 1, 76, 59
2, 427040, Note_off_c, 1, 76, 0
2, 427040, Note_on_c, 1, 74, 58
2, 427200, Note_off_c, 1, 74, 0
2, 427200, Note_on_c, 1, 72, 57
2, 427360, Note_off_c, 1, 72, 0
2, 427360, Note_on_c, 1, 70, 57
2, 427520, Note_off_c, 1, 70, 0
2, 427520, Note_on_c, 1, 69, 56
2, 427680, Note_off_c, 1, 69, 0
2, 427680, Note_on_c, 1, 67, 55
2, 427840, Note_off_c, 1, 67, 0
2, 427840, Note_on_c, 1, 69, 55
2, 428000, Note_off_c, 1, 69, 0
2, 428000, Note_on_c, 1, 65, 54
2, 428128, Note_off_c, 1, 65, 0
2, 428320, Note_on_c, 1, 65, 81
2, 428424, Note_off_c, 1, 65, 0
2, 428480, Note_on_c, 1, 67, 81
2, 428584, Note_off_c, 1, 67, 0
2, 428640, Note_on_c, 1, 68, 81
2, 428744, Note_off_c, 1, 68, 0
2, 428800, Note_on_c, 1, 71, 80
2, 428904, Note_off_c, 1, 71, 0
2, 428960, Note_on_c, 1, 72, 80
2, 429064, Note_off_c, 1, 72, 0
2, 429120, Note_on_c, 1, 73, 80
2, 429224, Note_off_c, 1, 73, 0
2, 429280, Note_on_c, 1, 76, 79
2, 429384, Note_off_c, 1, 76, 0
2, 429440, Note_on_c, 1, 77, 79
2, 429544, Note_off_c, 1, 77, 0
2, 429600, Note_on_c, 1, 79, 79
2, 429704, Note_off_c, 1, 79, 0
2, 429760, Note_on_c, 1, 80, 78
2, 429864, Note_off_c, 1, 80, 0
2, 429920, Note_on_c, 1, 77, 78
2, 430024, Note_off_c, 1, 77, 0
2, 430080, Note_on_c, 1, 81, 78
2, 430200, Note_off_c, 1, 81, 0
2, 430200, Note_on_c, 1, 79, 77
2, 430320, Note_off_c, 1, 79, 0
2, 430320, Note_on_c, 1, 77, 77
2, 430440, Note_off_c, 1, 77, 0
2, 430440, Note_on_c, 1, 76, 77
2, 430560, Note_off_c, 1, 76, 0
2, 430560, Note_on_c, 1, 74, 77
2, 430680, Note_off_c, 1, 74, 0
2, 430680, Note_on_c, 1, 72, 76
2, 430800, Note_off_c, 1, 72, 0
2, 430800, Note_on_c, 1, 70, 76
2, 430920, Note_off_c, 1, 70, 0
2, 430920, Note_on_c, 1, 69, 76
2, 431016, Note_off_c, 1, 69, 0
2, 431040, Note_on_c, 1, 77, 76
2, 431160, Note_off_c, 1, 77, 0
2, 431160, Note_on_c, 1, 76, 75
2, 431280, Note_off_c, 1, 76, 0
2, 431280, Note_on_c, 1, 74, 75
2, 431400, Note_off_c, 1, 74, 0
2, 431400, Note_on_c, 1, 72, 75
2, 431520, Note_off_c, 1, 72, 0
2, 431520, Note_on_c, 1, 70, 75
2, 431640, Note_off_c, 1, 70, 0
2, 431640, Note_on_c, 1, 69, 74
2, 431760, Note_off_c, 1, 69, 0
2, 431760, Note_on_c, 1, 67, 74
2, 431880, Note_off_c, 1, 67, 0
2, 431880, Note_on_c, 1, 65, 74
2, 431976, Note_off_c, 1, 65, 0
2, 432000, Note_on_c, 1, 67, 73
2, 432080, Note_off_c, 1, 67, 0
2, 432080, Note_on_c, 1, 69, 73
2, 432160, Note_off_c, 1, 69, 0
2, 432160, Note_on_c, 1, 67, 73
2, 432240, Note_off_c, 1, 67, 0
2, 432240, Note_on_c, 1, 69, 73
2, 432320, Note_off_c, 1, 69, 0
2, 432320, Note_on_c, 1, 67, 73
2, 432400, Note_off_c, 1, 67, 0
2, 432400, Note_on_c, 1, 69, 73
2, 432480, Note_off_c, 1, 69, 0
2, 432480, Note_on_c, 1, 67, 72
2, 432560, Note_off_c, 1, 67, 0
2, 432560, Note_on_c, 1, 69, 72
2, 432640, Note_off_c, 1, 69, 0
2, 432640, Note_on_c, 1, 67, 72
2, 432720, Note_off_c, 1, 67, 0
2, 432720, Note_on_c, 1, 69, 72
2, 432800, Note_off_c, 1, 69, 0
2, 432800, Note_on_c, 1, 67, 72
2, 432880, Note_off_c, 1, 67, 0
2, 432880, Note_on_c, 1, 69, 72
2, 432960, Note_off_c, 1, 69, 0
2, 432960, Note_on_c, 1, 67, 71
2, 433040, Note_off_c, 1, 67, 0
2, 433040, Note_on_c, 1, 69, 71
2, 433120, Note_off_c, 1, 69, 0
2, 433120, Note_on_c, 1, 67, 71
2, 433200, Note_off_c, 1, 67, 0
2, 433200, Note_on_c, 1, 69, 71
2, 433280, Note_off_c, 1, 69, 0
2, 433280, Note_on_c, 1, 67, 71
2, 433360, Note_off_c, 1, 67, 0
2, 433360, Note_on_c, 1, 69, 71
2, 433440, Note_off_c, 1, 69, 0
2, 433440, Note_on_c, 1, 67, 70
2, 433520, Note_off_c, 1, 67, 0
2, 433520, Note_on_c, 1, 69, 70
2, 433600, Note_off_c, 1, 69, 0
2, 433600, Note_on_c, 1, 67, 70
2, 433680, Note_off_c, 1, 67, 0
2, 433680, Note_on_c, 1, 65, 70
2, 433800, Note_off_c, 1, 65, 0
2, 433800, Note_on_c, 1, 67, 70
2, 433896, Note_off_c, 1, 67, 0
2, 433920, Note_on_c, 1, 53, 79
2, 434048, Note_off_c, 1, 53, 0
2, 434080, Note_on_c, 1, 57, 79
2, 434208, Note_off_c, 1, 57, 0
2, 434240, Note_on_c, 1, 60, 79
2, 434368, Note_off_c, 1, 60, 0
2, 434400, Note_on_c, 1, 65, 79
2, 434528, Note_off_c, 1, 65, 0
2, 434560, Note_on_c, 1, 69, 79
2, 434688, Note_off_c, 1, 69, 0
2, 434720, Note_on_c, 1, 72, 79
2, 434848, Note_off_c, 1, 72, 0
2, 434880, Note_on_c, 1, 77, 79
2, 435120, Note_off_c, 1, 77, 0
2, 435360, Note_on_c, 1, 76, 78
2, 435600, Note_off_c, 1, 76, 0
2, 435840, Note_on_c, 1, 74, 78
2, 436080, Note_off_c, 1, 74, 0
2, 436320, Note_on_c, 1, 72, 77
2, 436560, Note_off_c, 1, 72, 0
2, 436800, Note_on_c, 1, 70, 77
2, 437040, Note_off_c, 1, 70, 0
2, 437280, Note_on_c, 1, 69, 77
2, 437520, Note_off_c, 1, 69, 0
2, 437760, Note_on_c, 1, 57, 76
2, 438000, Note_off_c, 1, 57, 0
2, 438240, Note_on_c, 1, 58, 76
2, 438480, Note_off_c, 1, 58, 0
2, 438720, Note_on_c, 1, 57, 75
2, 438960, Note_off_c, 1, 57, 0
2, 439200, Note_on_c, 1, 55, 75
2, 439440, Note_off_c, 1, 55, 0
2, 439680, Note_on_c, 1, 65, 75
2, 439808, Note_off_c, 1, 65, 0
2, 439840, Note_on_c, 1, 69, 75
2, 439968, Note_off_c, 1, 69, 0
2, 440000, Note_on_c, 1, 72, 74
2, 440128, Note_off_c, 1, 72, 0
2, 440160, Note_on_c, 1, 77, 74
2, 440288, Note_off_c, 1, 77, 0
2, 440320, Note_on_c, 1, 81, 74
2, 440448, Note_off_c, 1, 81, 0
2, 440480, Note_on_c, 1, 84, 74
2, 440608, Note_off_c, 1, 84, 0
2, 440640, Note_on_c, 1, 89, 74
2, 440880, Note_off_c, 1, 89, 0
2, 441120, Note_on_c, 1, 88, 73
2, 441360, Note_off_c, 1, 88, 0
2, 441600, Note_on_c, 1, 86, 73
2, 441840, Note_off_c, 1, 86, 0
2, 442080, Note_on_c, 1, 84, 73
2, 442320, Note_off_c, 1, 84, 0
2, 442560, Note_on_c, 1, 82, 72
2, 442800, Note_off_c, 1, 82, 0
2, 443040, Note_on_c, 1, 81, 72
2, 443280, Note_off_c, 1, 81, 0
2, 443520, Note_on_c, 1, 69, 72
2, 443760, Note_off_c, 1, 69, 0
2, 444000, Note_on_c, 1, 70, 71
2, 444240, Note_off_c, 1, 70, 0
2, 444480, Note_on_c, 1, 69, 71
2, 444720, Note_off_c, 1, 69, 0
2, 444960, Note_on_c, 1, 67, 70
2, 445200, Note_off_c, 1, 67, 0
2, 445440, Note_on_c, 1, 69, 70
2, 445680, Note_off_c, 1, 69, 0
2, 445920, Note_on_c, 1, 68, 70
2, 446160, Note_off_c, 1, 68, 0
2, 446400, Note_on_c, 1, 69, 69
2, 446640, Note_off_c, 1, 69, 0
2, 446880, Note_on_c, 1, 68, 69
2, 447120, Note_off_c, 1, 68, 0
2, 447360, Note_on_c, 1, 69, 68
2, 447600, Note_off_c, 1, 69, 0
2, 447840, Note_on_c, 1, 74, 68
2, 448080, Note_off_c, 1, 74, 0
2, 448320, Note_on_c, 1, 72, 68
2, 448560, Note_off_c, 1, 72, 0
2, 448800, Note_on_c, 1, 70, 67
2, 449040, Note_off_c, 1, 70, 0
2, 449280, Note_on_c, 1, 60, 67
2, 449520, Note_off_c, 1, 60, 0
2, 449760, Note_on_c, 1, 59, 66
2, 450000, Note_off_c, 1, 59, 0
2, 450240, Note_on_c, 1, 60, 66
2, 450480, Note_off_c, 1, 60, 0
2, 450720, Note_on_c, 1, 59, 66
2, 450960, Note_off_c, 1, 59, 0
2, 451200, Note_on_c, 1, 60, 65
2, 451440, Note_off_c, 1, 60, 0
2, 451680, Note_on_c, 1, 67, 65
2, 451920, Note_off_c, 1, 67, 0
2, 452160, Note_on_c, 1, 65, 64
2, 452400, Note_off_c, 1, 65, 0
2, 452640, Note_on_c, 1, 64, 64
2, 452880, Note_off_c, 1, 64, 0
2, 453120, Note_on_c, 1, 53, 65
2, 453248, Note_off_c, 1, 53, 0
2, 453280, Note_on_c, 1, 57, 66
2, 453408, Note_off_c, 1, 57, 0
2, 453440, Note_on_c, 1, 60, 66
2, 453568, Note_off_c, 1, 60, 0
2, 453600, Note_on_c, 1, 65, 67
2, 453728, Note_off_c, 1, 65, 0
2, 453760, Note_on_c, 1, 60, 68
2, 453888, Note_off_c, 1, 60, 0
2, 453920, Note_on_c, 1, 57, 69
2, 454048, Note_off_c, 1, 57, 0
2, 454080, Note_on_c, 1, 53, 70
2, 454208, Note_off_c, 1, 53, 0
2, 454240, Note_on_c, 1, 57, 71
2, 454368, Note_off_c, 1, 57, 0
2, 454400, Note_on_c, 1, 60, 72
2, 454528, Note_off_c, 1, 60, 0
2, 454560, Note_on_c, 1, 65, 73
2, 454688, Note_off_c, 1, 65, 0
2, 454720, Note_on_c, 1, 60, 74
2, 454848, Note_off_c, 1, 60, 0
2, 454880, Note_on_c, 1, 57, 75
2, 455008, Note_off_c, 1, 57, 0
2, 455040, Note_on_c, 1, 53, 76
2, 455168, Note_off_c, 1, 53, 0
2, 455200, Note_on_c, 1, 57, 77
2, 455328, Note_off_c, 1, 57, 0
2, 455360, Note_on_c, 1, 60, 78
2, 455488, Note_off_c, 1, 60, 0
2, 455520, Note_on_c, 1, 65, 78
2, 455648, Note_off_c, 1, 65, 0
2, 455680, Note_on_c, 1, 69, 79
2, 455808, Note_off_c, 1, 69, 0
2, 455840, Note_on_c, 1, 72, 80
2, 455968, Note_off_c, 1, 72, 0
2, 456000, Note_on_c, 1, 77, 81
2, 456128, Note_off_c, 1, 77, 0
2, 456160, Note_on_c, 1, 72, 82
2, 456288, Note_off_c, 1, 72, 0
2, 456320, Note_on_c, 1, 69, 83
2, 456448, Note_off_c, 1, 69, 0
2, 456480, Note_on_c, 1, 65, 84
2, 456608, Note_off_c, 1, 65, 0
2, 456640, Note_on_c, 1, 69, 85
2, 456768, Note_off_c, 1, 69, 0
2, 456800, Note_on_c, 1, 72, 86
2, 456928, Note_off_c, 1, 72, 0
2, 456960, Note_on_c, 1, 65, 87
2, 457088, Note_off_c, 1, 65, 0
2, 457120, Note_on_c, 1, 69, 88
2, 457248, Note_off_c, 1, 69, 0
2, 457280, Note_on_c, 1, 72, 89
2, 457408, Note_off_c, 1, 72, 0
2, 457440, Note_on_c, 1, 77, 90
2, 457568, Note_off_c, 1, 77, 0
2, 457600, Note_on_c, 1, 81, 90
2, 457728, Note_off_c, 1, 81, 0
2, 457760, Note_on_c, 1, 84, 91
2, 457888, Note_off_c, 1, 84, 0
2, 457920, Note_on_c, 1, 89, 92
2, 458048, Note_off_c, 1, 89, 0
2, 458080, Note_on_c, 1, 84, 93
2, 458208, Note_off_c, 1, 84, 0
2, 458240, Note_on_c, 1, 81, 94
2, 458368, Note_off_c, 1, 81, 0
2, 458400, Note_on_c, 1, 77, 95
2, 458528, Note_off_c, 1, 77, 0
2, 458560, Note_on_c, 1, 81, 96
2, 458688, Note_off_c, 1, 81, 0
2, 458720, Note_on_c, 1, 84, 97
2, 458848, Note_off_c, 1, 84, 0
2, 458880, Note_on_c, 1, 89, 98
2, 459240, Note_off_c, 1, 89, 0
2, 459360, Note_on_c, 1, 65, 95
2, 459720, Note_off_c, 1, 65, 0
2, 462240, Control_c, 1, 64, 0
2, 462240, Note_on_c, 1, 70, 40
2, 462720, Note_off_c, 1, 70, 0
2, 462720, Note_on_c, 1, 69, 43
2, 463200, Note_off_c, 1, 69, 0
2, 463200, Note_on_c, 1, 70, 47
2, 463625, Note_off_c, 1, 70, 0
2, 463680, Note_on_c, 1, 64, 60
2, 464640, Note_off_c, 1, 64, 0
2, 464640, Note_on_c, 1, 72, 52
2, 465060, Note_off_c, 1, 72, 0
2, 465120, Note_on_c, 1, 71, 55
2, 465160, Note_off_c, 1, 71, 0
2, 465160, Note_on_c, 1, 72, 56
2, 465200, Note_off_c, 1, 72, 0
2, 465200, Note_on_c, 1, 74, 59
2, 465240, Note_off_c, 1, 74, 0
2, 465240, Note_on_c, 1, 72, 62
2, 465840, Note_off_c, 1, 72, 0
2, 465840, Note_on_c, 1, 70, 54
2, 465960, Note_off_c, 1, 70, 0
2, 465960, Note_on_c, 1, 69, 52
2, 466080, Note_off_c, 1, 69, 0
2, 466080, Note_on_c, 1, 67, 50
2, 466200, Note_off_c, 1, 67, 0
2, 466200, Note_on_c, 1, 65, 48
2, 466320, Note_off_c, 1, 65, 0
2, 466320, Note_on_c, 1, 63, 46
2, 466440, Note_off_c, 1, 63, 0
2, 466440, Note_on_c, 1, 67, 44
2, 466535, Note_off_c, 1, 67, 0
2, 466560, Note_on_c, 1, 65, 47
2, 466800, Note_off_c, 1, 65, 0
2, 466800, Note_on_c, 1, 63, 42
2, 466840, Note_off_c, 1, 63, 0
2, 466840, Note_on_c, 1, 65, 42
2, 466880, Note_off_c, 1, 65, 0
2, 466880, Note_on_c, 1, 63, 41
2, 466920, Note_off_c, 1, 63, 0
2, 466920, Note_on_c, 1, 65, 40
2, 466950, Note_off_c, 1, 65, 0
2, 466950, Note_on_c, 1, 63, 39
2, 466980, Note_off_c, 1, 63, 0
2, 466980, Note_on_c, 1, 62, 39
2, 467010, Note_off_c, 1, 62, 0
2, 467010, Note_on_c, 1, 63, 38
2, 467040, Note_off_c, 1, 63, 0
2, 467040, Note_on_c, 1, 62, 38
2, 467400, Note_off_c, 1, 62, 0
2, 467520, Note_on_c, 1, 74, 56
2, 468180, Note_off_c, 1, 74, 0
2, 468240, Note_on_c, 1, 71, 40
2, 468480, Note_off_c, 1, 71, 0
2, 468480, Note_on_c, 1, 72, 42
2, 468720, Note_off_c, 1, 72, 0
2, 468720, Note_on_c, 1, 74, 45
2, 468960, Note_off_c, 1, 74, 0
2, 468960, Note_on_c, 1, 75, 47
2, 469200, Note_off_c, 1, 75, 0
2, 469200, Note_on_c, 1, 72, 45
2, 469380, Note_off_c, 1, 72, 0
2, 469440, Note_on_c, 1, 70, 51
2, 469680, Note_off_c, 1, 70, 0
2, 469680, Note_on_c, 1, 69, 48
2, 469860, Note_off_c, 1, 69, 0
2, 469920, Note_on_c, 1, 72, 54
2, 470160, Note_off_c, 1, 72, 0
2, 470160, Note_on_c, 1, 70, 51
2, 470340, Note_off_c, 1, 70, 0
2, 470400, Note_on_c, 1, 77, 64
2, 471060, Note_off_c, 1, 77, 0
2, 471120, Note_on_c, 1, 74, 47
2, 471360, Note_off_c, 1, 74, 0
2, 471360, Note_on_c, 1, 75, 51
2, 471600, Note_off_c, 1, 75, 0
2, 471600, Note_on_c, 1, 77, 54
2, 471840, Note_off_c, 1, 77, 0
2, 471840, Note_on_c, 1, 79, 58
2, 472080, Note_off_c, 1, 79, 0
2, 472080, Note_on_c, 1, 75, 55
2, 472260, Note_off_c, 1, 75, 0
2, 472320, Note_on_c, 1, 74, 62
2, 472560, Note_off_c, 1, 74, 0
2, 472560, Note_on_c, 1, 72, 59
2, 472740, Note_off_c, 1, 72, 0
2, 472800, Note_on_c, 1, 75, 70
2, 473040, Note_off_c, 1, 75, 0
2, 473040, Note_on_c, 1, 74, 66
2, 473220, Note_off_c, 1, 74, 0
2, 473280, Note_on_c, 1, 79, 77
2, 473520, Note_off_c, 1, 79, 0
2, 473520, Note_on_c, 1, 77, 72
2, 473700, Note_off_c, 1, 77, 0
2, 473760, Note_on_c, 1, 84, 80
2, 474000, Note_off_c, 1, 84, 0
2, 474000, Note_on_c, 1, 82, 71
2, 474240, Note_off_c, 1, 82, 0
2, 474240, Note_on_c, 1, 81, 67
2, 474480, Note_off_c, 1, 81, 0
2, 474480, Note_on_c, 1, 79, 62
2, 474720, Note_off_c, 1, 79, 0
2, 474720, Note_on_c, 1, 77, 58
2, 474960, Note_off_c, 1, 77, 0
2, 474960, Note_on_c, 1, 76, 53
2, 475140, Note_off_c, 1, 76, 0
2, 475200, Note_on_c, 1, 79, 52
2, 475680, Note_off_c, 1, 79, 0
2, 475680, Note_on_c, 1, 77, 46
2, 476270, Note_off_c, 1, 77, 0
2, 476280, Note_on_c, 1, 79, 37
2, 476400, Note_off_c, 1, 79, 0
2, 476400, Note_on_c, 1, 75, 39
2, 476520, Note_off_c, 1, 75, 0
2, 476520, Note_on_c, 1, 72, 41
2, 476615, Note_off_c, 1, 72, 0
2, 476640, Note_on_c, 1, 70, 44
2, 477120, Note_off_c, 1, 70, 0
2, 477120, Note_on_c, 1, 69, 49
2, 477600, Note_off_c, 1, 69, 0
2, 477600, Note_on_c, 1, 70, 54
2, 478025, Note_off_c, 1, 70, 0
2, 478080, Note_on_c, 1, 64, 62
2, 479040, Note_off_c, 1, 64, 0
2, 479040, Note_on_c, 1, 72, 54
2, 479460, Note_off_c, 1, 72, 0
2, 479520, Note_on_c, 1, 71, 59
2, 479560, Note_off_c, 1, 71, 0
2, 479560, Note_on_c, 1, 72, 61
2, 479600, Note_off_c, 1, 72, 0
2, 479600, Note_on_c, 1, 74, 62
2, 479640, Note_off_c, 1, 74, 0
2, 479640, Note_on_c, 1, 72, 67
2, 480240, Note_off_c, 1, 72, 0
2, 480240, Note_on_c, 1, 70, 56
2, 480360, Note_off_c, 1, 70, 0
2, 480360, Note_on_c, 1, 69, 54
2, 480480, Note_off_c, 1, 69, 0
2, 480480, Note_on_c, 1, 67, 52
2, 480600, Note_off_c, 1, 67, 0
2, 480600, Note_on_c, 1, 65, 49
2, 480720, Note_off_c, 1, 65, 0
2, 480720, Note_on_c, 1, 63, 47
2, 480840, Note_off_c, 1, 63, 0
2, 480840, Note_on_c, 1, 67, 44
2, 480935, Note_off_c, 1, 67, 0
2, 480960, Note_on_c, 1, 65, 46
2, 481200, Note_off_c, 1, 65, 0
2, 481200, Note_on_c, 1, 63, 41
2, 481240, Note_off_c, 1, 63, 0
2, 481240, Note_on_c, 1, 65, 40
2, 481280, Note_off_c, 1, 65, 0
2, 481280, Note_on_c, 1, 63, 39
2, 481320, Note_off_c, 1, 63, 0
2, 481320, Note_on_c, 1, 65, 38
2, 481350, Note_off_c, 1, 65, 0
2, 481350, Note_on_c, 1, 63, 38
2, 481380, Note_off_c, 1, 63, 0
2, 481380, Note_on_c, 1, 62, 37
2, 481410, Note_off_c, 1, 62, 0
2, 481410, Note_on_c, 1, 63, 37
2, 481440, Note_off_c, 1, 63, 0
2, 481440, Note_on_c, 1, 62, 36
2, 481850, Note_off_c, 1, 62, 0
2, 481920, Note_on_c, 1, 74, 60
2, 482580, Note_off_c, 1, 74, 0
2, 482640, Note_on_c, 1, 71, 44
2, 482880, Note_off_c, 1, 71, 0
2, 482880, Note_on_c, 1, 72, 47
2, 483120, Note_off_c, 1, 72, 0
2, 483120, Note_on_c, 1, 74, 50
2, 483360, Note_off_c, 1, 74, 0
2, 483360, Note_on_c, 1, 75, 53
2, 483600, Note_off_c, 1, 75, 0
2, 483600, Note_on_c, 1, 72, 50
2, 483780, Note_off_c, 1, 72, 0
2, 483840, Note_on_c, 1, 70, 58
2, 484080, Note_off_c, 1, 70, 0
2, 484080, Note_on_c, 1, 69, 54
2, 484260, Note_off_c, 1, 69, 0
2, 484320, Note_on_c, 1, 72, 63
2, 484560, Note_off_c, 1, 72, 0
2, 484560, Note_on_c, 1, 70, 58
2, 484740, Note_off_c, 1, 70, 0
2, 484800, Note_on_c, 1, 77, 74
2, 485460, Note_off_c, 1, 77, 0
2, 485520, Note_on_c, 1, 74, 56
2, 485760, Note_off_c, 1, 74, 0
2, 485760, Note_on_c, 1, 75, 59
2, 486000, Note_off_c, 1, 75, 0
2, 486000, Note_on_c, 1, 77, 62
2, 486240, Note_off_c, 1, 77, 0
2, 486240, Note_on_c, 1, 79, 66
2, 486480, Note_off_c, 1, 79, 0
2, 486480, Note_on_c, 1, 75, 63
2, 486660, Note_off_c, 1, 75, 0
2, 486720, Note_on_c, 1, 74, 68
2, 486960, Note_off_c, 1, 74, 0
2, 486960, Note_on_c, 1, 72, 64
2, 487140, Note_off_c, 1, 72, 0
2, 487200, Note_on_c, 1, 75, 72
2, 487440, Note_off_c, 1, 75, 0
2, 487440, Note_on_c, 1, 74, 69
2, 487620, Note_off_c, 1, 74, 0
2, 487680, Note_on_c, 1, 79, 80
2, 487920, Note_off_c, 1, 79, 0
2, 487920, Note_on_c, 1, 77, 74
2, 488100, Note_off_c, 1, 77, 0
2, 488160, Note_on_c, 1, 84, 85
2, 488400, Note_off_c, 1, 84, 0
2, 488400, Note_on_c, 1, 82, 78
2, 488580, Note_off_c, 1, 82, 0
2, 488640, Note_on_c, 1, 81, 75
2, 488760, Note_off_c, 1, 81, 0
2, 488760, Note_on_c, 1, 79, 74
2, 488880, Note_off_c, 1, 79, 0
2, 488880, Note_on_c, 1, 77, 73
2, 489000, Note_off_c, 1, 77, 0
2, 489000, Note_on_c, 1, 76, 71
2, 489120, Note_off_c, 1, 76, 0
2, 489120, Note_on_c, 1, 74, 70
2, 489360, Note_off_c, 1, 74, 0
2, 489360, Note_on_c, 1, 72, 67
2, 489540, Note_off_c, 1, 72, 0
2, 489600, Note_on_c, 1, 86, 87
2, 489840, Note_off_c, 1, 86, 0
2, 489840, Note_on_c, 1, 84, 83
2, 490020, Note_off_c, 1, 84, 0
2, 490080, Note_on_c, 1, 82, 80
2, 490200, Note_off_c, 1, 82, 0
2, 490200, Note_on_c, 1, 81, 78
2, 490320, Note_off_c, 1, 81, 0
2, 490320, Note_on_c, 1, 79, 77
2, 490440, Note_off_c, 1, 79, 0
2, 490440, Note_on_c, 1, 78, 75
2, 490560, Note_off_c, 1, 78, 0
2, 490560, Note_on_c, 1, 75, 73
2, 490800, Note_off_c, 1, 75, 0
2, 490800, Note_on_c, 1, 74, 70
2, 490980, Note_off_c, 1, 74, 0
2, 491040, Note_on_c, 1, 87, 93
2, 491280, Note_off_c, 1, 87, 0
2, 491280, Note_on_c, 1, 86, 86
2, 491460, Note_off_c, 1, 86, 0
2, 491520, Note_on_c, 1, 84, 82
2, 491640, Note_off_c, 1, 84, 0
2, 491640, Note_on_c, 1, 82, 80
2, 491760, Note_off_c, 1, 82, 0
2, 491760, Note_on_c, 1, 81, 78
2, 491880, Note_off_c, 1, 81, 0
2, 491880, Note_on_c, 1, 79, 76
2, 492000, Note_off_c, 1, 79, 0
2, 492000, Note_on_c, 1, 78, 74
2, 492120, Note_off_c, 1, 78, 0
2, 492120, Note_on_c, 1, 79, 72
2, 492240, Note_off_c, 1, 79, 0
2, 492240, Note_on_c, 1, 81, 70
2, 492360, Note_off_c, 1, 81, 0
2, 492360, Note_on_c, 1, 82, 68
2, 492455, Note_off_c, 1, 82, 0
2, 492480, Note_on_c, 1, 77, 71
2, 492840, Note_off_c, 1, 77, 0
2, 492840, Note_on_c, 1, 79, 59
2, 492900, Note_off_c, 1, 79, 0
2, 492900, Note_on_c, 1, 77, 57
2, 492960, Note_off_c, 1, 77, 0
2, 492960, Note_on_c, 1, 76, 54
2, 493380, Note_off_c, 1, 76, 0
2, 495480, Note_on_c, 1, 83, 65
2, 495600, Note_off_c, 1, 83, 0
2, 495600, Note_on_c, 1, 84, 63
2, 495720, Note_off_c, 1, 84, 0
2, 495720, Note_on_c, 1, 80, 61
2, 495840, Note_off_c, 1, 80, 0
2, 495840, Note_on_c, 1, 81, 59
2, 495960, Note_off_c, 1, 81, 0
2, 495960, Note_on_c, 1, 76, 57
2, 496080, Note_off_c, 1, 76, 0
2, 496080, Note_on_c, 1, 77, 55
2, 496200, Note_off_c, 1, 77, 0
2, 496200, Note_on_c, 1, 71, 53
2, 496320, Note_off_c, 1, 71, 0
2, 496320, Note_on_c, 1, 72, 51
2, 496440, Note_off_c, 1, 72, 0
2, 496440, Note_on_c, 1, 68, 49
2, 496560, Note_off_c, 1, 68, 0
2, 496560, Note_on_c, 1, 69, 48
2, 496680, Note_off_c, 1, 69, 0
2, 496680, Note_on_c, 1, 65, 46
2, 497040, Note_off_c, 1, 65, 0
2, 497040, Note_on_c, 1, 64, 43
2, 497520, Note_off_c, 1, 64, 0
2, 497520, Note_on_c, 1, 63, 47
2, 498000, Note_off_c, 1, 63, 0
2, 498000, Note_on_c, 1, 64, 50
2, 498360, Note_off_c, 1, 64, 0
2, 498360, Note_on_c, 1, 85, 70
2, 498480, Note_off_c, 1, 85, 0
2, 498480, Note_on_c, 1, 86, 68
2, 498600, Note_off_c, 1, 86, 0
2, 498600, Note_on_c, 1, 81, 66
2, 498720, Note_off_c, 1, 81, 0
2, 498720, Note_on_c, 1, 82, 64
2, 498840, Note_off_c, 1, 82, 0
2, 498840, Note_on_c, 1, 78, 63
2, 498960, Note_off_c, 1, 78, 0
2, 498960, Note_on_c, 1, 79, 61
2, 499080, Note_off_c, 1, 79, 0
2, 499080, Note_on_c, 1, 75, 60
2, 499200, Note_off_c, 1, 75, 0
2, 499200, Note_on_c, 1, 76, 58
2, 499320, Note_off_c, 1, 76, 0
2, 499320, Note_on_c, 1, 69, 57
2, 499440, Note_off_c, 1, 69, 0
2, 499440, Note_on_c, 1, 70, 55
2, 499560, Note_off_c, 1, 70, 0
2, 499560, Note_on_c, 1, 67, 54
2, 499920, Note_off_c, 1, 67, 0
2, 499920, Note_on_c, 1, 66, 49
2, 500400, Note_off_c, 1, 66, 0
2, 500400, Note_on_c, 1, 65, 53
2, 500880, Note_off_c, 1, 65, 0
2, 500880, Note_on_c, 1, 66, 57
2, 501065, Note_off_c, 1, 66, 0
2, 501120, Control_c, 1, 64, 127
2, 501240, Note_on_c, 1, 84, 69
2, 501360, Note_off_c, 1, 84, 0
2, 501360, Note_on_c, 1, 87, 67
2, 501480, Note_off_c, 1, 87, 0
2, 501480, Note_on_c, 1, 81, 65
2, 501600, Note_off_c, 1, 81, 0
2, 501600, Note_on_c, 1, 84, 63
2, 501720, Note_off_c, 1, 84, 0
2, 501720, Note_on_c, 1, 78, 61
2, 501840, Note_off_c, 1, 78, 0
2, 501840, Note_on_c, 1, 81, 59
2, 501960, Note_off_c, 1, 81, 0
2, 501960, Note_on_c, 1, 75, 57
2, 502080, Note_off_c, 1, 75, 0
2, 502080, Note_on_c, 1, 78, 55
2, 502200, Note_off_c, 1, 78, 0
2, 502200, Note_on_c, 1, 72, 53
2, 502320, Note_off_c, 1, 72, 0
2, 502320, Note_on_c, 1, 75, 51
2, 502440, Note_off_c, 1, 75, 0
2, 502440, Note_on_c, 1, 69, 49
2, 502500, Control_c, 1, 64, 0
2, 502535, Note_off_c, 1, 69, 0
2, 502560, Control_c, 1, 64, 127
2, 502680, Note_on_c, 1, 82, 76
2, 502800, Note_off_c, 1, 82, 0
2, 502800, Note_on_c, 1, 87, 74
2, 502920, Note_off_c, 1, 87, 0
2, 502920, Note_on_c, 1, 78, 72
2, 503040, Note_off_c, 1, 78, 0
2, 503040, Note_on_c, 1, 82, 70
2, 503160, Note_off_c, 1, 82, 0
2, 503160, Note_on_c, 1, 75, 69
2, 503280, Note_off_c, 1, 75, 0
2, 503280, Note_on_c, 1, 78, 67
2, 503400, Note_off_c, 1, 78, 0
2, 503400, Note_on_c, 1, 70, 65
2, 503520, Note_off_c, 1, 70, 0
2, 503520, Note_on_c, 1, 75, 63
2, 503640, Note_off_c, 1, 75, 0
2, 503640, Note_on_c, 1, 66, 62
2, 503760, Note_off_c, 1, 66, 0
2, 503760, Note_on_c, 1, 70, 60
2, 503880, Note_off_c, 1, 70, 0
2, 503880, Note_on_c, 1, 63, 58
2, 503940, Control_c, 1, 64, 0
2, 503975, Note_off_c, 1, 63, 0
2, 504000, Control_c, 1, 64, 127
2, 504120, Note_on_c, 1, 86, 79
2, 504240, Note_off_c, 1, 86, 0
2, 504240, Note_on_c, 1, 89, 77
2, 504360, Note_off_c, 1, 89, 0
2, 504360, Note_on_c, 1, 83, 76
2, 504480, Note_off_c, 1, 83, 0
2, 504480, Note_on_c, 1, 86, 74
2, 504600, Note_off_c, 1, 86, 0
2, 504600, Note_on_c, 1, 77, 72
2, 504720, Note_off_c, 1, 77, 0
2, 504720, Note_on_c, 1, 83, 70
2, 504840, Note_off_c, 1, 83, 0
2, 504840, Note_on_c, 1, 74, 68
2, 504960, Note_off_c, 1, 74, 0
2, 504960, Note_on_c, 1, 77, 66
2, 505080, Note_off_c, 1, 77, 0
2, 505080, Note_on_c, 1, 71, 64
2, 505200, Note_off_c, 1, 71, 0
2, 505200, Note_on_c, 1, 74, 62
2, 505320, Note_off_c, 1, 74, 0
2, 505320, Note_on_c, 1, 65, 63
2, 505380, Control_c, 1, 64, 0
2, 505415, Note_off_c, 1, 65, 0
2, 505440, Control_c, 1, 64, 127
2, 505920, Note_on_c, 1, 60, 61
2, 506040, Note_off_c, 1, 60, 0
2, 506040, Note_on_c, 1, 65, 60
2, 506160, Note_off_c, 1, 65, 0
2, 506160, Note_on_c, 1, 69, 59
2, 506280, Note_off_c, 1, 69, 0
2, 506280, Note_on_c, 1, 72, 59
2, 506340, Control_c, 1, 64, 0
2, 506375, Note_off_c, 1, 72, 0
2, 506400, Control_c, 1, 64, 127
2, 506520, Note_on_c, 1, 62, 58
2, 506640, Note_off_c, 1, 62, 0
2, 506640, Note_on_c, 1, 65, 57
2, 506760, Note_off_c, 1, 65, 0
2, 506760, Note_on_c, 1, 74, 57
2, 506820, Control_c, 1, 64, 0
2, 506855, Note_off_c, 1, 74, 0
2, 506880, Control_c, 1, 64, 127
2, 507360, Note_on_c, 1, 57, 54
2, 507480, Note_off_c, 1, 57, 0
2, 507480, Note_on_c, 1, 60, 53
2, 507600, Note_off_c, 1, 60, 0
2, 507600, Note_on_c, 1, 65, 51
2, 507720, Note_off_c, 1, 65, 0
2, 507720, Note_on_c, 1, 69, 50
2, 507780, Control_c, 1, 64, 0
2, 507815, Note_off_c, 1, 69, 0
2, 507840, Control_c, 1, 64, 127
2, 507960, Note_on_c, 1, 55, 48
2, 508080, Note_off_c, 1, 55, 0
2, 508080, Note_on_c, 1, 58, 47
2, 508200, Note_off_c, 1, 58, 0
2, 508200, Note_on_c, 1, 64, 46
2, 508260, Control_c, 1, 64, 0
2, 508295, Note_off_c, 1, 64, 0
2, 508320, Note_on_c, 1, 65, 59
2, 508740, Note_off_c, 1, 65, 0
2, 509280, Note_on_c, 1, 77, 50
2, 509360, Note_off_c, 1, 77, 0
2, 509360, Note_on_c, 1, 76, 49
2, 509440, Note_off_c, 1, 76, 0
2, 509440, Note_on_c, 1, 79, 49
2, 509520, Note_off_c, 1, 79, 0
2, 509520, Note_on_c, 1, 77, 49
2, 509600, Note_off_c, 1, 77, 0
2, 509600, Note_on_c, 1, 76, 49
2, 509680, Note_off_c, 1, 76, 0
2, 509680, Note_on_c, 1, 74, 49
2, 509744, Note_off_c, 1, 74, 0
2, 509760, Note_on_c, 1, 72, 54
2, 510308, Note_off_c, 1, 72, 0
2, 510320, Note_on_c, 1, 71, 47
2, 510400, Note_off_c, 1, 71, 0
2, 510400, Note_on_c, 1, 74, 47
2, 510480, Note_off_c, 1, 74, 0
2, 510480, Note_on_c, 1, 72, 47
2, 510560, Note_off_c, 1, 72, 0
2, 510560, Note_on_c, 1, 70, 46
2, 510640, Note_off_c, 1, 70, 0
2, 510640, Note_on_c, 1, 69, 46
2, 510720, Note_off_c, 1, 69, 0
2, 510720, Note_on_c, 1, 67, 46
2, 510800, Note_off_c, 1, 67, 0
2, 510800, Note_on_c, 1, 66, 46
2, 510880, Note_off_c, 1, 66, 0
2, 510880, Note_on_c, 1, 69, 46
2, 510960, Note_off_c, 1, 69, 0
2, 510960, Note_on_c, 1, 67, 45
2, 511040, Note_off_c, 1, 67, 0
2, 511040, Note_on_c, 1, 65, 45
2, 511120, Note_off_c, 1, 65, 0
2, 511120, Note_on_c, 1, 64, 45
2, 511184, Note_off_c, 1, 64, 0
2, 511200, Note_on_c, 1, 70, 58
2, 511680, Note_off_c, 1, 70, 0
2, 511680, Note_on_c, 1, 69, 43
2, 511873, Note_off_c, 1, 69, 0
2, 512160, Note_on_c, 1, 77, 42
2, 512240, Note_off_c, 1, 77, 0
2, 512240, Note_on_c, 1, 76, 42
2, 512320, Note_off_c, 1, 76, 0
2, 512320, Note_on_c, 1, 79, 42
2, 512400, Note_off_c, 1, 79, 0
2, 512400, Note_on_c, 1, 77, 42
2, 512480, Note_off_c, 1, 77, 0
2, 512480, Note_on_c, 1, 76, 41
2, 512560, Note_off_c, 1, 76, 0
2, 512560, Note_on_c, 1, 74, 41
2, 512624, Note_off_c, 1, 74, 0
2, 512640, Note_on_c, 1, 72, 46
2, 513188, Note_off_c, 1, 72, 0
2, 513200, Note_on_c, 1, 71, 40
2, 513280, Note_off_c, 1, 71, 0
2, 513280, Note_on_c, 1, 74, 39
2, 513360, Note_off_c, 1, 74, 0
2, 513360, Note_on_c, 1, 72, 39
2, 513440, Note_off_c, 1, 72, 0
2, 513440, Note_on_c, 1, 70, 39
2, 513520, Note_off_c, 1, 70, 0
2, 513520, Note_on_c, 1, 69, 39
2, 513600, Note_off_c, 1, 69, 0
2, 513600, Note_on_c, 1, 67, 39
2, 513680, Note_off_c, 1, 67, 0
2, 513680, Note_on_c, 1, 66, 38
2, 513760, Note_off_c, 1, 66, 0
2, 513760, Note_on_c, 1, 69, 38
2, 513840, Note_off_c, 1, 69, 0
2, 513840, Note_on_c, 1, 67, 38
2, 513920, Note_off_c, 1, 67, 0
2, 513920, Note_on_c, 1, 65, 38
2, 514000, Note_off_c, 1, 65, 0
2, 514000, Note_on_c, 1, 64, 38
2, 514064, Note_off_c, 1, 64, 0
2, 514080, Note_on_c, 1, 74, 55
2, 514560, Note_off_c, 1, 74, 0
2, 514560, Note_on_c, 1, 72, 36
2, 514640, Note_off_c, 1, 72, 0
2, 514640, Note_on_c, 1, 71, 36
2, 514720, Note_off_c, 1, 71, 0
2, 514720, Note_on_c, 1, 74, 36
2, 514800, Note_off_c, 1, 74, 0
2, 514800, Note_on_c, 1, 72, 36
2, 514880, Note_off_c, 1, 72, 0
2, 514880, Note_on_c, 1, 70, 35
2, 514960, Note_off_c, 1, 70, 0
2, 514960, Note_on_c, 1, 69, 35
2, 515040, Note_off_c, 1, 69, 0
2, 515040, Note_on_c, 1, 67, 35
2, 515120, Note_off_c, 1, 67, 0
2, 515120, Note_on_c, 1, 66, 35
2, 515200, Note_off_c, 1, 66, 0
2, 515200, Note_on_c, 1, 69, 35
2, 515280, Note_off_c, 1, 69, 0
2, 515280, Note_on_c, 1, 67, 34
2, 515360, Note_off_c, 1, 67, 0
2, 515360, Note_on_c, 1, 65, 34
2, 515440, Note_off_c, 1, 65, 0
2, 515440, Note_on_c, 1, 64, 34
2, 515504, Note_off_c, 1, 64, 0
2, 515520, Note_on_c, 1, 73, 51
2, 516000, Note_off_c, 1, 73, 0
2, 516000, Note_on_c, 1, 72, 33
2, 516080, Note_off_c, 1, 72, 0
2, 516080, Note_on_c, 1, 71, 32
2, 516160, Note_off_c, 1, 71, 0
2, 516160, Note_on_c, 1, 74, 32
2, 516240, Note_off_c, 1, 74, 0
2, 516240, Note_on_c, 1, 72, 32
2, 516320, Note_off_c, 1, 72, 0
2, 516320, Note_on_c, 1, 70, 32
2, 516400, Note_off_c, 1, 70, 0
2, 516400, Note_on_c, 1, 68, 32
2, 516480, Note_off_c, 1, 68, 0
2, 516480, Note_on_c, 1, 67, 31
2, 516560, Note_off_c, 1, 67, 0
2, 516560, Note_on_c, 1, 65, 31
2, 516640, Note_off_c, 1, 65, 0
2, 516640, Note_on_c, 1, 68, 31
2, 516720, Note_off_c, 1, 68, 0
2, 516720, Note_on_c, 1, 67, 31
2, 516800, Note_off_c, 1, 67, 0
2, 516800, Note_on_c, 1, 65, 31
2, 516880, Note_off_c, 1, 65, 0
2, 516880, Note_on_c, 1, 63, 30
2, 516944, Note_off_c, 1, 63, 0
2, 516960, Note_on_c, 1, 77, 47
2, 517440, Note_off_c, 1, 77, 0
2, 517440, Note_on_c, 1, 75, 34
2, 517633, Note_off_c, 1, 75, 0
2, 517680, Note_on_c, 1, 75, 41
2, 517873, Note_off_c, 1, 75, 0
2, 517920, Note_on_c, 1, 75, 48
2, 518113, Note_off_c, 1, 75, 0
2, 518160, Note_on_c, 1, 75, 55
2, 518353, Note_off_c, 1, 75, 0
2, 518400, Note_on_c, 1, 75, 64
2, 519000, Note_on_c, 1, 77, 56
2, 519008, Note_off_c, 1, 75, 0
2, 519060, Note_off_c, 1, 77, 0
2, 519060, Note_on_c, 1, 75, 56
2, 519120, Note_off_c, 1, 75, 0
2, 519120, Note_on_c, 1, 73, 55
2, 519180, Note_off_c, 1, 73, 0
2, 519180, Note_on_c, 1, 72, 54
2, 519240, Note_off_c, 1, 72, 0
2, 519240, Note_on_c, 1, 70, 53
2, 519300, Note_off_c, 1, 70, 0
2, 519300, Note_on_c, 1, 68, 52
2, 519360, Note_off_c, 1, 68, 0
2, 519360, Note_on_c, 1, 66, 51
2, 519480, Note_off_c, 1, 66, 0
2, 519480, Note_on_c, 1, 68, 50
2, 519510, Note_on_c, 1, 66, 49
2, 519519, Note_off_c, 1, 68, 0
2, 519540, Note_on_c, 1, 65, 49
2, 519549, Note_off_c, 1, 66, 0
2, 519570, Note_on_c, 1, 66, 48
2, 519579, Note_off_c, 1, 65, 0
2, 519600, Note_on_c, 1, 70, 48
2, 519609, Note_off_c, 1, 66, 0
2, 519720, Note_off_c, 1, 70, 0
2, 519720, Note_on_c, 1, 73, 46
2, 519816, Note_off_c, 1, 73, 0
2, 519840, Note_on_c, 1, 65, 47
2, 520560, Note_off_c, 1, 65, 0
2, 520560, Note_on_c, 1, 67, 38
2, 520620, Note_off_c, 1, 67, 0
2, 520620, Note_on_c, 1, 65, 39
2, 520680, Note_off_c, 1, 65, 0
2, 520680, Note_on_c, 1, 64, 41
2, 520740, Note_off_c, 1, 64, 0
2, 520740, Note_on_c, 1, 65, 42
2, 520800, Note_off_c, 1, 65, 0
2, 520800, Note_on_c, 1, 68, 44
2, 521040, Note_off_c, 1, 68, 0
2, 521040, Note_on_c, 1, 67, 50
2, 521233, Note_off_c, 1, 67, 0
2, 521280, Note_on_c, 1, 65, 62
2, 521400, Note_off_c, 1, 65, 0
2, 521400, Note_on_c, 1, 81, 67
2, 522293, Note_off_c, 1, 81, 0
2, 522300, Note_on_c, 1, 79, 52
2, 522360, Note_off_c, 1, 79, 0
2, 522360, Note_on_c, 1, 82, 50
2, 522420, Note_off_c, 1, 82, 0
2, 522420, Note_on_c, 1, 81, 48
2, 522480, Note_off_c, 1, 81, 0
2, 522480, Note_on_c, 1, 79, 46
2, 522540, Note_off_c, 1, 79, 0
2, 522540, Note_on_c, 1, 77, 44
2, 522600, Note_off_c, 1, 77, 0
2, 522600, Note_on_c, 1, 76, 43
2, 522660, Note_off_c, 1, 76, 0
2, 522660, Note_on_c, 1, 74, 41
2, 522708, Note_off_c, 1, 74, 0
2, 522720, Note_on_c, 1, 72, 39
2, 523320, Note_off_c, 1, 72, 0
2, 523320, Note_on_c, 1, 77, 37
2, 523440, Note_off_c, 1, 77, 0
2, 523440, Note_on_c, 1, 69, 39
2, 523560, Note_off_c, 1, 69, 0
2, 523560, Note_on_c, 1, 74, 41
2, 523680, Note_off_c, 1, 74, 0
2, 523680, Note_on_c, 1, 72, 43
2, 523800, Note_off_c, 1, 72, 0
2, 523800, Note_on_c, 1, 70, 46
2, 523920, Note_off_c, 1, 70, 0
2, 523920, Note_on_c, 1, 67, 48
2, 524040, Note_off_c, 1, 67, 0
2, 524040, Note_on_c, 1, 64, 52
2, 524136, Note_off_c, 1, 64, 0
2, 524160, Note_on_c, 1, 81, 60
2, 525173, Note_off_c, 1, 81, 0
2, 525180, Note_on_c, 1, 79, 51
2, 525240, Note_off_c, 1, 79, 0
2, 525240, Note_on_c, 1, 82, 50
2, 525300, Note_off_c, 1, 82, 0
2, 525300, Note_on_c, 1, 81, 48
2, 525360, Note_off_c, 1, 81, 0
2, 525360, Note_on_c, 1, 79, 47
2, 525420, Note_off_c, 1, 79, 0
2, 525420, Note_on_c, 1, 77, 45
2, 525480, Note_off_c, 1, 77, 0
2, 525480, Note_on_c, 1, 76, 44
2, 525540, Note_off_c, 1, 76, 0
2, 525540, Note_on_c, 1, 74, 42
2, 525588, Note_off_c, 1, 74, 0
2, 525600, Note_on_c, 1, 72, 41
2, 526140, Note_on_c, 1, 73, 37
2, 526148, Note_off_c, 1, 72, 0
2, 526200, Note_off_c, 1, 73, 0
2, 526200, Note_on_c, 1, 76, 37
2, 526260, Note_off_c, 1, 76, 0
2, 526260, Note_on_c, 1, 74, 38
2, 526320, Note_off_c, 1, 74, 0
2, 526320, Note_on_c, 1, 72, 39
2, 526380, Note_off_c, 1, 72, 0
2, 526380, Note_on_c, 1, 70, 40
2, 526440, Note_off_c, 1, 70, 0
2, 526440, Note_on_c, 1, 69, 41
2, 526500, Note_off_c, 1, 69, 0
2, 526500, Note_on_c, 1, 67, 41
2, 526560, Note_off_c, 1, 67, 0
2, 526560, Note_on_c, 1, 65, 40
2, 526620, Note_off_c, 1, 65, 0
2, 526620, Note_on_c, 1, 64, 39
2, 526680, Note_off_c, 1, 64, 0
2, 526680, Note_on_c, 1, 70, 37
2, 526740, Note_off_c, 1, 70, 0
2, 526740, Note_on_c, 1, 69, 36
2, 526800, Note_off_c, 1, 69, 0
2, 526800, Note_on_c, 1, 72, 35
2, 526860, Note_off_c, 1, 72, 0
2, 526860, Note_on_c, 1, 70, 34
2, 526920, Note_off_c, 1, 70, 0
2, 526920, Note_on_c, 1, 67, 32
2, 526980, Note_off_c, 1, 67, 0
2, 526980, Note_on_c, 1, 64, 31
2, 527028, Note_off_c, 1, 64, 0
2, 527040, Note_on_c, 1, 67, 30
2, 527520, Note_off_c, 1, 67, 0
2, 527520, Note_on_c, 1, 65, 21
2, 527948, Note_off_c, 1, 65, 0
2, 529440, Note_on_c, 1, 81, 82
2, 530000, Note_off_c, 1, 81, 0
2, 530000, Note_on_c, 1, 79, 78
2, 530080, Note_off_c, 1, 79, 0
2, 530080, Note_on_c, 1, 82, 78
2, 530160, Note_off_c, 1, 82, 0
2, 530160, Note_on_c, 1, 81, 77
2, 530240, Note_off_c, 1, 81, 0
2, 530240, Note_on_c, 1, 79, 76
2, 530320, Note_off_c, 1, 79, 0
2, 530320, Note_on_c, 1, 77, 76
2, 530400, Note_off_c, 1, 77, 0
2, 530400, Note_on_c, 1, 76, 75
2, 530480, Note_off_c, 1, 76, 0
2, 530480, Note_on_c, 1, 74, 75
2, 530560, Note_off_c, 1, 74, 0
2, 530560, Note_on_c, 1, 77, 74
2, 530640, Note_off_c, 1, 77, 0
2, 530640, Note_on_c, 1, 76, 74
2, 530720, Note_off_c, 1, 76, 0
2, 530720, Note_on_c, 1, 74, 73
2, 530800, Note_off_c, 1, 74, 0
2, 530800, Note_on_c, 1, 73, 72
2, 530880, Note_off_c, 1, 73, 0
2, 530880, Note_on_c, 1, 70, 72
2, 530960, Note_off_c, 1, 70, 0
2, 530960, Note_on_c, 1, 69, 71
2, 531040, Note_off_c, 1, 69, 0
2, 531040, Note_on_c, 1, 72, 71
2, 531120, Note_off_c, 1, 72, 0
2, 531120, Note_on_c, 1, 70, 70
2, 531200, Note_off_c, 1, 70, 0
2, 531200, Note_on_c, 1, 69, 69
2, 531280, Note_off_c, 1, 69, 0
2, 531280, Note_on_c, 1, 67, 69
2, 531360, Note_off_c, 1, 67, 0
2, 531360, Note_on_c, 1, 65, 66
2, 531840, Note_off_c, 1, 65, 0
2, 532320, Note_on_c, 1, 77, 78
2, 532880, Note_off_c, 1, 77, 0
2, 532880, Note_on_c, 1, 76, 74
2, 532960, Note_off_c, 1, 76, 0
2, 532960, Note_on_c, 1, 79, 73
2, 533040, Note_off_c, 1, 79, 0
2, 533040, Note_on_c, 1, 77, 73
2, 533120, Note_off_c, 1, 77, 0
2, 533120, Note_on_c, 1, 75, 72
2, 533200, Note_off_c, 1, 75, 0
2, 533200, Note_on_c, 1, 74, 71
2, 533280, Note_off_c, 1, 74, 0
2, 533280, Note_on_c, 1, 72, 71
2, 533360, Note_off_c, 1, 72, 0
2, 533360, Note_on_c, 1, 71, 70
2, 533440, Note_off_c, 1, 71, 0
2, 533440, Note_on_c, 1, 74, 69
2, 533520, Note_off_c, 1, 74, 0
2, 533520, Note_on_c, 1, 72, 69
2, 533600, Note_off_c, 1, 72, 0
2, 533600, Note_on_c, 1, 70, 68
2, 533680, Note_off_c, 1, 70, 0
2, 533680, Note_on_c, 1, 69, 67
2, 533760, Note_off_c, 1, 69, 0
2, 533760, Note_on_c, 1, 67, 67
2, 533840, Note_off_c, 1, 67, 0
2, 533840, Note_on_c, 1, 66, 66
2, 533920, Note_off_c, 1, 66, 0
2, 533920, Note_on_c, 1, 69, 65
2, 534000, Note_off_c, 1, 69, 0
2, 534000, Note_on_c, 1, 67, 65
2, 534080, Note_off_c, 1, 67, 0
2, 534080, Note_on_c, 1, 65, 64
2, 534160, Note_off_c, 1, 65, 0
2, 534160, Note_on_c, 1, 63, 63
2, 534240, Note_off_c, 1, 63, 0
2, 534240, Note_on_c, 1, 74, 63
2, 534240, Note_on_c, 1, 62, 63
2, 534720, Note_off_c, 1, 62, 0
2, 534720, Note_off_c, 1, 74, 0
2, 534720, Note_on_c, 1, 61, 65
2, 534720, Note_on_c, 1, 73, 65
2, 535200, Note_off_c, 1, 73, 0
2, 535200, Note_off_c, 1, 61, 0
2, 535200, Note_on_c, 1, 74, 68
2, 535200, Note_on_c, 1, 62, 68
2, 535628, Note_off_c, 1, 62, 0
2, 535628, Note_off_c, 1, 74, 0
2, 535680, Note_on_c, 1, 57, 72
2, 535680, Note_on_c, 1, 69, 72
2, 537120, Note_off_c, 1, 69, 0
2, 537120, Note_off_c, 1, 57, 0
2, 537120, Note_on_c, 1, 70, 60
2, 537120, Note_on_c, 1, 82, 60
2, 537600, Note_off_c, 1, 82, 0
2, 537600, Note_off_c, 1, 70, 0
2, 537600, Note_on_c, 1, 69, 62
2, 537600, Note_on_c, 1, 81, 62
2, 538080, Note_off_c, 1, 81, 0
2, 538080, Note_off_c, 1, 69, 0
2, 538080, Note_on_c, 1, 82, 66
2, 538080, Note_on_c, 1, 70, 66
2, 538500, Note_off_c, 1, 70, 0
2, 538508, Note_off_c, 1, 82, 0
2, 538560, Note_on_c, 1, 78, 71
2, 538560, Note_on_c, 1, 66, 71
2, 540000, Note_off_c, 1, 66, 0
2, 540000, Note_off_c, 1, 78, 0
2, 540000, Note_on_c, 1, 79, 67
2, 540080, Note_off_c, 1, 79, 0
2, 540080, Note_on_c, 1, 78, 67
2, 540160, Note_off_c, 1, 78, 0
2, 540160, Note_on_c, 1, 81, 66
2, 540240, Note_off_c, 1, 81, 0
2, 540240, Note_on_c, 1, 79, 66
2, 540320, Note_off_c, 1, 79, 0
2, 540320, Note_on_c, 1, 77, 66
2, 540400, Note_off_c, 1, 77, 0
2, 540400, Note_on_c, 1, 75, 65
2, 540480, Note_off_c, 1, 75, 0
2, 540480, Note_on_c, 1, 74, 65
2, 540560, Note_off_c, 1, 74, 0
2, 540560, Note_on_c, 1, 73, 65
2, 540640, Note_off_c, 1, 73, 0
2, 540640, Note_on_c, 1, 75, 65
2, 540720, Note_off_c, 1, 75, 0
2, 540720, Note_on_c, 1, 74, 64
2, 540800, Note_off_c, 1, 74, 0
2, 540800, Note_on_c, 1, 72, 64
2, 540880, Note_off_c, 1, 72, 0
2, 540880, Note_on_c, 1, 70, 64
2, 540960, Note_off_c, 1, 70, 0
2, 540960, Note_on_c, 1, 68, 64
2, 541040, Note_off_c, 1, 68, 0
2, 541040, Note_on_c, 1, 67, 63
2, 541120, Note_off_c, 1, 67, 0
2, 541120, Note_on_c, 1, 70, 63
2, 541200, Note_off_c, 1, 70, 0
2, 541200, Note_on_c, 1, 68, 63
2, 541280, Note_off_c, 1, 68, 0
2, 541280, Note_on_c, 1, 67, 63
2, 541360, Note_off_c, 1, 67, 0
2, 541360, Note_on_c, 1, 65, 62
2, 541440, Note_off_c, 1, 65, 0
2, 541440, Note_on_c, 1, 63, 62
2, 541520, Note_off_c, 1, 63, 0
2, 541520, Note_on_c, 1, 62, 63
2, 541600, Note_off_c, 1, 62, 0
2, 541600, Note_on_c, 1, 65, 62
2, 541680, Note_off_c, 1, 65, 0
2, 541680, Note_on_c, 1, 63, 62
2, 541760, Note_off_c, 1, 63, 0
2, 541760, Note_on_c, 1, 62, 61
2, 541840, Note_off_c, 1, 62, 0
2, 541840, Note_on_c, 1, 60, 61
2, 541904, Note_off_c, 1, 60, 0
2, 541920, Note_on_c, 1, 58, 60
2, 541960, Note_off_c, 1, 58, 0
2, 541960, Note_on_c, 1, 60, 60
2, 542000, Note_off_c, 1, 60, 0
2, 542000, Note_on_c, 1, 58, 59
2, 542040, Note_off_c, 1, 58, 0
2, 542040, Note_on_c, 1, 60, 59
2, 542080, Note_off_c, 1, 60, 0
2, 542080, Note_on_c, 1, 58, 59
2, 542120, Note_off_c, 1, 58, 0
2, 542120, Note_on_c, 1, 60, 58
2, 542160, Note_off_c, 1, 60, 0
2, 542160, Note_on_c, 1, 58, 58
2, 542200, Note_off_c, 1, 58, 0
2, 542200, Note_on_c, 1, 60, 58
2, 542240, Note_off_c, 1, 60, 0
2, 542240, Note_on_c, 1, 58, 57
2, 542280, Note_off_c, 1, 58, 0
2, 542280, Note_on_c, 1, 60, 57
2, 542340, Note_off_c, 1, 60, 0
2, 542340, Note_on_c, 1, 58, 57
2, 542400, Note_off_c, 1, 58, 0
2, 542400, Note_on_c, 1, 57, 56
2, 542556, Note_off_c, 1, 57, 0
2, 542640, Note_on_c, 1, 55, 54
2, 542796, Note_off_c, 1, 55, 0
2, 542880, Note_on_c, 1, 53, 61
2, 543300, Note_off_c, 1, 53, 0
2, 543360, Note_on_c, 1, 77, 59
2, 543360, Note_on_c, 1, 65, 59
2, 543780, Note_off_c, 1, 65, 0
2, 543780, Note_off_c, 1, 77, 0
2, 543840, Note_on_c, 1, 78, 58
2, 543840, Note_on_c, 1, 66, 58
2, 544253, Note_off_c, 1, 66, 0
2, 544260, Note_off_c, 1, 78, 0
2, 544320, Note_on_c, 1, 79, 56
2, 544320, Note_on_c, 1, 67, 56
2, 544740, Note_off_c, 1, 67, 0
2, 544740, Note_off_c, 1, 79, 0
2, 544800, Note_on_c, 1, 68, 54
2, 544800, Note_on_c, 1, 80, 54
2, 545760, Note_off_c, 1, 80, 0
2, 545760, Note_off_c, 1, 68, 0
2, 545760, Note_on_c, 1, 81, 49
2, 545760, Note_on_c, 1, 69, 49
2, 546180, Note_off_c, 1, 69, 0
2, 546180, Note_off_c, 1, 81, 0
2, 547200, Note_on_c, 1, 79, 58
2, 548340, Note_off_c, 1, 79, 0
2, 548400, Note_on_c, 1, 76, 45
2, 548640, Note_off_c, 1, 76, 0
2, 548640, Note_on_c, 1, 81, 62
2, 549773, Note_off_c, 1, 81, 0
2, 549840, Note_on_c, 1, 78, 48
2, 550080, Note_off_c, 1, 78, 0
2, 550080, Note_on_c, 1, 82, 68
2, 550980, Note_off_c, 1, 82, 0
2, 551040, Note_on_c, 1, 74, 70
2, 551700, Note_off_c, 1, 74, 0
2, 551760, Note_on_c, 1, 71, 54
2, 552000, Note_off_c, 1, 71, 0
2, 552000, Note_on_c, 1, 72, 58
2, 552240, Note_off_c, 1, 72, 0
2, 552240, Note_on_c, 1, 74, 62
2, 552433, Note_off_c, 1, 74, 0
2, 552480, Note_on_c, 1, 75, 76
2, 553140, Note_off_c, 1, 75, 0
2, 553200, Note_on_c, 1, 73, 59
2, 553440, Note_off_c, 1, 73, 0
2, 553440, Note_on_c, 1, 74, 63
2, 553680, Note_off_c, 1, 74, 0
2, 553680, Note_on_c, 1, 76, 66
2, 553920, Note_off_c, 1, 76, 0
2, 553920, Note_on_c, 1, 77, 80
2, 554113, Note_off_c, 1, 77, 0
2, 554160, Note_on_c, 1, 71, 68
2, 554400, Note_off_c, 1, 71, 0
2, 554400, Note_on_c, 1, 79, 83
2, 555540, Note_off_c, 1, 79, 0
2, 555600, Note_on_c, 1, 72, 71
2, 555840, Note_off_c, 1, 72, 0
2, 555840, Note_on_c, 1, 80, 85
2, 556988, Note_off_c, 1, 80, 0
2, 557040, Note_on_c, 1, 74, 77
2, 557280, Note_off_c, 1, 74, 0
2, 557280, Note_on_c, 1, 82, 88
2, 558203, Note_off_c, 1, 82, 0
2, 558240, Note_on_c, 1, 82, 93
2, 558923, Note_off_c, 1, 82, 0
2, 558960, Note_on_c, 1, 80, 77
2, 559200, Note_off_c, 1, 80, 0
2, 559200, Note_on_c, 1, 81, 80
2, 559440, Note_off_c, 1, 81, 0
2, 559440, Note_on_c, 1, 83, 83
2, 559633, Note_off_c, 1, 83, 0
2, 559680, Note_on_c, 1, 84, 95
2, 560370, Note_off_c, 1, 84, 0
2, 560400, Note_on_c, 1, 81, 79
2, 560640, Note_off_c, 1, 81, 0
2, 560640, Note_on_c, 1, 82, 82
2, 560880, Note_off_c, 1, 82, 0
2, 560880, Note_on_c, 1, 84, 86
2, 561073, Note_off_c, 1, 84, 0
2, 561120, Note_on_c, 1, 86, 102
2, 561795, Note_off_c, 1, 86, 0
2, 561840, Note_on_c, 1, 83, 86
2, 562080, Note_off_c, 1, 83, 0
2, 562080, Note_on_c, 1, 84, 89
2, 562320, Note_off_c, 1, 84, 0
2, 562320, Note_on_c, 1, 86, 93
2, 562560, Note_off_c, 1, 86, 0
2, 562560, Note_on_c, 1, 87, 98
2, 562753, Note_off_c, 1, 87, 0
2, 562800, Note_on_c, 1, 87, 102
2, 562993, Note_off_c, 1, 87, 0
2, 563040, Control_c, 1, 64, 127
2, 563040, Note_on_c, 1, 87, 108
2, 563600, Note_off_c, 1, 87, 0
2, 563600, Note_on_c, 1, 84, 107
2, 563680, Note_off_c, 1, 84, 0
2, 563680, Note_on_c, 1, 81, 106
2, 563760, Note_off_c, 1, 81, 0
2, 563760, Note_on_c, 1, 77, 105
2, 563840, Note_off_c, 1, 77, 0
2, 563840, Note_on_c, 1, 75, 104
2, 563920, Note_off_c, 1, 75, 0
2, 563920, Note_on_c, 1, 72, 103
2, 564000, Note_off_c, 1, 72, 0
2, 564000, Note_on_c, 1, 69, 103
2, 564080, Note_off_c, 1, 69, 0
2, 564080, Note_on_c, 1, 65, 102
2, 564160, Note_off_c, 1, 65, 0
2, 564160, Note_on_c, 1, 63, 101
2, 564240, Note_off_c, 1, 63, 0
2, 564240, Note_on_c, 1, 60, 100
2, 564320, Note_off_c, 1, 60, 0
2, 564320, Note_on_c, 1, 57, 100
2, 564400, Note_off_c, 1, 57, 0
2, 564400, Note_on_c, 1, 53, 99
2, 564480, Note_off_c, 1, 53, 0
2, 564480, Note_on_c, 1, 41, 98
2, 564720, Control_c, 1, 64, 0
2, 564960, Note_off_c, 1, 41, 0
2, 565920, Control_c, 1, 64, 0
2, 565920, Note_on_c, 1, 70, 40
2, 566400, Note_off_c, 1, 70, 0
2, 566400, Note_on_c, 1, 69, 44
2, 566880, Note_off_c, 1, 69, 0
2, 566880, Note_on_c, 1, 70, 48
2, 567305, Note_off_c, 1, 70, 0
2, 567360, Note_on_c, 1, 64, 60
2, 568320, Note_off_c, 1, 64, 0
2, 568320, Note_on_c, 1, 72, 53
2, 568740, Note_off_c, 1, 72, 0
2, 568800, Note_on_c, 1, 71, 51
2, 568840, Note_off_c, 1, 71, 0
2, 568840, Note_on_c, 1, 72, 53
2, 568880, Note_off_c, 1, 72, 0
2, 568880, Note_on_c, 1, 74, 56
2, 568920, Note_off_c, 1, 74, 0
2, 568920, Note_on_c, 1, 72, 59
2, 569520, Note_off_c, 1, 72, 0
2, 569520, Note_on_c, 1, 70, 52
2, 569640, Note_off_c, 1, 70, 0
2, 569640, Note_on_c, 1, 69, 50
2, 569760, Note_off_c, 1, 69, 0
2, 569760, Note_on_c, 1, 67, 49
2, 569880, Note_off_c, 1, 67, 0
2, 569880, Note_on_c, 1, 65, 47
2, 570000, Note_off_c, 1, 65, 0
2, 570000, Note_on_c, 1, 63, 46
2, 570120, Note_off_c, 1, 63, 0
2, 570120, Note_on_c, 1, 67, 45
2, 570215, Note_off_c, 1, 67, 0
2, 570240, Note_on_c, 1, 65, 47
2, 570480, Note_off_c, 1, 65, 0
2, 570480, Note_on_c, 1, 63, 42
2, 570520, Note_off_c, 1, 63, 0
2, 570520, Note_on_c, 1, 65, 41
2, 570560, Note_off_c, 1, 65, 0
2, 570560, Note_on_c, 1, 63, 41
2, 570600, Note_off_c, 1, 63, 0
2, 570600, Note_on_c, 1, 65, 40
2, 570630, Note_off_c, 1, 65, 0
2, 570630, Note_on_c, 1, 63, 39
2, 570660, Note_off_c, 1, 63, 0
2, 570660, Note_on_c, 1, 62, 39
2, 570690, Note_off_c, 1, 62, 0
2, 570690, Note_on_c, 1, 63, 38
2, 570720, Note_off_c, 1, 63, 0
2, 570720, Note_on_c, 1, 62, 37
2, 571080, Note_off_c, 1, 62, 0
2, 571200, Note_on_c, 1, 74, 60
2, 571860, Note_off_c, 1, 74, 0
2, 571920, Note_on_c, 1, 71, 40
2, 572160, Note_off_c, 1, 71, 0
2, 572160, Note_on_c, 1, 72, 43
2, 572400, Note_off_c, 1, 72, 0
2, 572400, Note_on_c, 1, 74, 46
2, 572640, Note_off_c, 1, 74, 0
2, 572640, Note_on_c, 1, 75, 48
2, 572880, Note_off_c, 1, 75, 0
2, 572880, Note_on_c, 1, 72, 46
2, 573060, Note_off_c, 1, 72, 0
2, 573120, Note_on_c, 1, 70, 52
2, 573360, Note_off_c, 1, 70, 0
2, 573360, Note_on_c, 1, 69, 48
2, 573540, Note_off_c, 1, 69, 0
2, 573600, Note_on_c, 1, 72, 56
2, 573840, Note_off_c, 1, 72, 0
2, 573840, Note_on_c, 1, 70, 51
2, 574020, Note_off_c, 1, 70, 0
2, 574080, Note_on_c, 1, 77, 70
2, 574740, Note_off_c, 1, 77, 0
2, 574800, Note_on_c, 1, 74, 52
2, 575040, Note_off_c, 1, 74, 0
2, 575040, Note_on_c, 1, 75, 56
2, 575280, Note_off_c, 1, 75, 0
2, 575280, Note_on_c, 1, 77, 59
2, 575520, Note_off_c, 1, 77, 0
2, 575520, Note_on_c, 1, 79, 62
2, 575760, Note_off_c, 1, 79, 0
2, 575760, Note_on_c, 1, 75, 59
2, 575940, Note_off_c, 1, 75, 0
2, 576000, Note_on_c, 1, 74, 66
2, 576240, Note_off_c, 1, 74, 0
2, 576240, Note_on_c, 1, 72, 61
2, 576420, Note_off_c, 1, 72, 0
2, 576480, Note_on_c, 1, 75, 70
2, 576720, Note_off_c, 1, 75, 0
2, 576720, Note_on_c, 1, 74, 66
2, 576900, Note_off_c, 1, 74, 0
2, 576960, Note_on_c, 1, 79, 74
2, 577200, Note_off_c, 1, 79, 0
2, 577200, Note_on_c, 1, 77, 71
2, 577380, Note_off_c, 1, 77, 0
2, 577440, Note_on_c, 1, 84, 78
2, 577680, Note_off_c, 1, 84, 0
2, 577680, Note_on_c, 1, 82, 73
2, 577920, Note_off_c, 1, 82, 0
2, 577920, Note_on_c, 1, 81, 68
2, 578160, Note_off_c, 1, 81, 0
2, 578160, Note_on_c, 1, 79, 64
2, 578400, Note_off_c, 1, 79, 0
2, 578400, Note_on_c, 1, 77, 59
2, 578640, Note_off_c, 1, 77, 0
2, 578640, Note_on_c, 1, 76, 54
2, 578820, Note_off_c, 1, 76, 0
2, 578880, Note_on_c, 1, 79, 58
2, 579360, Note_off_c, 1, 79, 0
2, 579360, Note_on_c, 1, 77, 50
2, 579765, Note_off_c, 1, 77, 0
2, 581280, Note_on_c, 1, 85, 58
2, 581828, Note_off_c, 1, 85, 0
2, 581840, Note_on_c, 1, 83, 46
2, 581920, Note_off_c, 1, 83, 0
2, 581920, Note_on_c, 1, 85, 46
2, 582000, Note_off_c, 1, 85, 0
2, 582000, Note_on_c, 1, 84, 47
2, 582080, Note_off_c, 1, 84, 0
2, 582080, Note_on_c, 1, 82, 47
2, 582160, Note_off_c, 1, 82, 0
2, 582160, Note_on_c, 1, 81, 48
2, 582240, Note_off_c, 1, 81, 0
2, 582240, Note_on_c, 1, 79, 49
2, 582320, Note_off_c, 1, 79, 0
2, 582320, Note_on_c, 1, 78, 49
2, 582400, Note_off_c, 1, 78, 0
2, 582400, Note_on_c, 1, 81, 50
2, 582480, Note_off_c, 1, 81, 0
2, 582480, Note_on_c, 1, 79, 50
2, 582560, Note_off_c, 1, 79, 0
2, 582560, Note_on_c, 1, 77, 51
2, 582640, Note_off_c, 1, 77, 0
2, 582640, Note_on_c, 1, 76, 52
2, 582720, Note_off_c, 1, 76, 0
2, 582720, Note_on_c, 1, 73, 52
2, 582800, Note_off_c, 1, 73, 0
2, 582800, Note_on_c, 1, 72, 53
2, 582880, Note_off_c, 1, 72, 0
2, 582880, Note_on_c, 1, 75, 53
2, 582960, Note_off_c, 1, 75, 0
2, 582960, Note_on_c, 1, 73, 54
2, 583040, Note_off_c, 1, 73, 0
2, 583040, Note_on_c, 1, 72, 55
2, 583120, Note_off_c, 1, 72, 0
2, 583120, Note_on_c, 1, 70, 55
2, 583184, Note_off_c, 1, 70, 0
2, 583200, Note_on_c, 1, 70, 56
2, 583440, Note_off_c, 1, 70, 0
2, 583440, Note_on_c, 1, 69, 51
2, 583470, Note_on_c, 1, 70, 53
2, 583500, Note_off_c, 1, 69, 0
2, 583500, Note_on_c, 1, 69, 54
2, 583530, Note_off_c, 1, 70, 0
2, 583530, Note_on_c, 1, 67, 56
2, 583560, Note_off_c, 1, 69, 0
2, 583560, Note_on_c, 1, 69, 57
2, 583590, Note_off_c, 1, 67, 0
2, 583620, Note_off_c, 1, 69, 0
2, 583620, Note_on_c, 1, 70, 60
2, 583680, Note_off_c, 1, 70, 0
2, 583680, Note_on_c, 1, 72, 62
2, 583800, Note_off_c, 1, 72, 0
2, 583800, Note_on_c, 1, 70, 58
2, 583920, Note_off_c, 1, 70, 0
2, 583920, Note_on_c, 1, 72, 56
2, 584378, Note_off_c, 1, 72, 0
2, 584400, Note_on_c, 1, 72, 49
2, 584593, Note_off_c, 1, 72, 0
2, 584640, Note_on_c, 1, 72, 53
2, 584820, Note_off_c, 1, 72, 0
2, 584820, Note_on_c, 1, 74, 47
2, 584850, Note_on_c, 1, 72, 46
2, 584880, Note_off_c, 1, 74, 0
2, 584880, Note_on_c, 1, 77, 45
2, 584880, Note_on_c, 1, 71, 45
2, 584910, Note_off_c, 1, 72, 0
2, 584910, Note_on_c, 1, 72, 44
2, 584940, Note_off_c, 1, 71, 0
2, 584970, Note_off_c, 1, 72, 0
2, 585073, Note_off_c, 1, 77, 0
2, 585120, Note_on_c, 1, 77, 40
2, 585312, Note_off_c, 1, 77, 0
2, 585360, Note_on_c, 1, 65, 42
2, 585600, Note_off_c, 1, 65, 0
2, 585600, Note_on_c, 1, 70, 52
2, 585840, Note_off_c, 1, 70, 0
2, 585840, Note_on_c, 1, 74, 61
2, 586033, Note_off_c, 1, 74, 0
2, 586080, Note_on_c, 1, 77, 78
2, 586320, Note_off_c, 1, 77, 0
2, 586320, Note_on_c, 1, 75, 75
2, 586500, Note_off_c, 1, 75, 0
2, 586560, Note_on_c, 1, 74, 72
2, 586680, Note_off_c, 1, 74, 0
2, 586680, Note_on_c, 1, 72, 70
2, 586800, Note_off_c, 1, 72, 0
2, 586800, Note_on_c, 1, 70, 68
2, 586920, Note_off_c, 1, 70, 0
2, 586920, Note_on_c, 1, 69, 67
2, 587040, Note_off_c, 1, 69, 0
2, 587040, Note_on_c, 1, 67, 65
2, 587280, Note_off_c, 1, 67, 0
2, 587280, Note_on_c, 1, 65, 62
2, 587460, Note_off_c, 1, 65, 0
2, 587520, Note_on_c, 1, 79, 84
2, 587760, Note_off_c, 1, 79, 0
2, 587760, Note_on_c, 1, 77, 80
2, 587940, Note_off_c, 1, 77, 0
2, 588000, Note_on_c, 1, 75, 76
2, 588120, Note_off_c, 1, 75, 0
2, 588120, Note_on_c, 1, 74, 75
2, 588240, Note_off_c, 1, 74, 0
2, 588240, Note_on_c, 1, 72, 73
2, 588360, Note_off_c, 1, 72, 0
2, 588360, Note_on_c, 1, 71, 71
2, 588480, Note_off_c, 1, 71, 0
2, 588480, Note_on_c, 1, 68, 70
2, 588720, Note_off_c, 1, 68, 0
2, 588720, Note_on_c, 1, 67, 66
2, 588900, Note_off_c, 1, 67, 0
2, 588960, Note_on_c, 1, 80, 89
2, 589200, Note_off_c, 1, 80, 0
2, 589200, Note_on_c, 1, 79, 85
2, 589380, Note_off_c, 1, 79, 0
2, 589440, Note_on_c, 1, 77, 81
2, 589560, Note_off_c, 1, 77, 0
2, 589560, Note_on_c, 1, 75, 79
2, 589680, Note_off_c, 1, 75, 0
2, 589680, Note_on_c, 1, 74, 77
2, 589800, Note_off_c, 1, 74, 0
2, 589800, Note_on_c, 1, 72, 76
2, 589920, Note_off_c, 1, 72, 0
2, 589920, Note_on_c, 1, 71, 74
2, 590040, Note_off_c, 1, 71, 0
2, 590040, Note_on_c, 1, 72, 72
2, 590160, Note_off_c, 1, 72, 0
2, 590160, Note_on_c, 1, 74, 70
2, 590280, Note_off_c, 1, 74, 0
2, 590280, Note_on_c, 1, 75, 70
2, 590375, Note_off_c, 1, 75, 0
2, 590400, Note_on_c, 1, 70, 72
2, 590760, Note_off_c, 1, 70, 0
2, 590760, Note_on_c, 1, 72, 62
2, 590820, Note_off_c, 1, 72, 0
2, 590820, Note_on_c, 1, 70, 60
2, 590880, Note_off_c, 1, 70, 0
2, 590880, Note_on_c, 1, 69, 58
2, 591300, Note_off_c, 1, 69, 0
2, 591840, Note_on_c, 1, 70, 42
2, 591960, Note_off_c, 1, 70, 0
2, 591960, Note_on_c, 1, 82, 48
2, 592320, Note_off_c, 1, 82, 0
2, 592320, Note_on_c, 1, 81, 51
2, 592800, Note_off_c, 1, 81, 0
2, 592800, Note_on_c, 1, 82, 55
2, 593220, Note_off_c, 1, 82, 0
2, 593280, Note_on_c, 1, 77, 74
2, 594660, Note_off_c, 1, 77, 0
2, 594720, Note_on_c, 1, 84, 50
2, 595200, Note_off_c, 1, 84, 0
2, 595200, Note_on_c, 1, 83, 54
2, 595680, Note_off_c, 1, 83, 0
2, 595680, Note_on_c, 1, 84, 58
2, 596093, Note_off_c, 1, 84, 0
2, 596160, Note_on_c, 1, 77, 82
2, 597360, Note_on_c, 1, 84, 61
2, 597390, Note_off_c, 1, 77, 0
2, 597840, Note_on_c, 1, 83, 60
2, 597855, Note_off_c, 1, 84, 0
2, 598320, Note_off_c, 1, 83, 0
2, 598320, Note_on_c, 1, 82, 65
2, 598800, Note_off_c, 1, 82, 0
2, 598800, Note_on_c, 1, 83, 70
2, 598993, Note_off_c, 1, 83, 0
2, 599040, Control_c, 1, 64, 127
2, 599160, Note_on_c, 1, 77, 80
2, 599280, Note_off_c, 1, 77, 0
2, 599280, Note_on_c, 1, 80, 78
2, 599400, Note_off_c, 1, 80, 0
2, 599400, Note_on_c, 1, 74, 77
2, 599520, Note_off_c, 1, 74, 0
2, 599520, Note_on_c, 1, 77, 75
2, 599640, Note_off_c, 1, 77, 0
2, 599640, Note_on_c, 1, 71, 74
2, 599760, Note_off_c, 1, 71, 0
2, 599760, Note_on_c, 1, 74, 72
2, 599880, Note_off_c, 1, 74, 0
2, 599880, Note_on_c, 1, 68, 71
2, 600000, Note_off_c, 1, 68, 0
2, 600000, Note_on_c, 1, 71, 69
2, 600120, Note_off_c, 1, 71, 0
2, 600120, Note_on_c, 1, 65, 67
2, 600240, Note_off_c, 1, 65, 0
2, 600240, Note_on_c, 1, 68, 66
2, 600360, Note_off_c, 1, 68, 0
2, 600360, Note_on_c, 1, 62, 64
2, 600420, Control_c, 1, 64, 0
2, 600455, Note_off_c, 1, 62, 0
2, 600480, Control_c, 1, 64, 127
2, 600600, Note_on_c, 1, 75, 85
2, 600720, Note_off_c, 1, 75, 0
2, 600720, Note_on_c, 1, 80, 83
2, 600840, Note_off_c, 1, 80, 0
2, 600840, Note_on_c, 1, 71, 81
2, 600960, Note_off_c, 1, 71, 0
2, 600960, Note_on_c, 1, 75, 79
2, 601080, Note_off_c, 1, 75, 0
2, 601080, Note_on_c, 1, 68, 77
2, 601200, Note_off_c, 1, 68, 0
2, 601200, Note_on_c, 1, 71, 75
2, 601320, Note_off_c, 1, 71, 0
2, 601320, Note_on_c, 1, 63, 74
2, 601440, Note_off_c, 1, 63, 0
2, 601440, Note_on_c, 1, 68, 72
2, 601560, Note_off_c, 1, 68, 0
2, 601560, Note_on_c, 1, 59, 70
2, 601680, Note_off_c, 1, 59, 0
2, 601680, Note_on_c, 1, 63, 68
2, 601800, Note_off_c, 1, 63, 0
2, 601800, Note_on_c, 1, 56, 66
2, 601860, Control_c, 1, 64, 0
2, 601895, Note_off_c, 1, 56, 0
2, 601920, Control_c, 1, 64, 127
2, 602040, Note_on_c, 1, 79, 88
2, 602160, Note_off_c, 1, 79, 0
2, 602160, Note_on_c, 1, 82, 86
2, 602280, Note_off_c, 1, 82, 0
2, 602280, Note_on_c, 1, 76, 84
2, 602400, Note_off_c, 1, 76, 0
2, 602400, Note_on_c, 1, 79, 81
2, 602520, Note_off_c, 1, 79, 0
2, 602520, Note_on_c, 1, 70, 79
2, 602640, Note_off_c, 1, 70, 0
2, 602640, Note_on_c, 1, 76, 77
2, 602760, Note_off_c, 1, 76, 0
2, 602760, Note_on_c, 1, 67, 75
2, 602880, Note_off_c, 1, 67, 0
2, 602880, Note_on_c, 1, 70, 72
2, 603000, Note_off_c, 1, 70, 0
2, 603000, Note_on_c, 1, 64, 70
2, 603120, Note_off_c, 1, 64, 0
2, 603120, Note_on_c, 1, 67, 68
2, 603240, Note_off_c, 1, 67, 0
2, 603240, Note_on_c, 1, 58, 66
2, 603300, Control_c, 1, 64, 0
2, 603335, Note_off_c, 1, 58, 0
2, 603360, Control_c, 1, 64, 127
2, 603840, Note_on_c, 1, 53, 57
2, 603960, Note_off_c, 1, 53, 0
2, 603960, Note_on_c, 1, 58, 56
2, 604080, Note_off_c, 1, 58, 0
2, 604080, Note_on_c, 1, 62, 55
2, 604200, Note_off_c, 1, 62, 0
2, 604200, Note_on_c, 1, 65, 54
2, 604260, Control_c, 1, 64, 0
2, 604295, Note_off_c, 1, 65, 0
2, 604320, Control_c, 1, 64, 127
2, 604440, Note_on_c, 1, 55, 53
2, 604560, Note_off_c, 1, 55, 0
2, 604560, Note_on_c, 1, 58, 52
2, 604680, Note_off_c, 1, 58, 0
2, 604680, Note_on_c, 1, 67, 51
2, 604740, Control_c, 1, 64, 0
2, 604775, Note_off_c, 1, 67, 0
2, 604800, Control_c, 1, 64, 127
2, 604800, Note_on_c, 1, 41, 50
2, 604920, Note_off_c, 1, 41, 0
2, 604920, Note_on_c, 1, 46, 49
2, 605040, Note_off_c, 1, 46, 0
2, 605040, Note_on_c, 1, 50, 48
2, 605160, Note_off_c, 1, 50, 0
2, 605160, Note_on_c, 1, 53, 47
2, 605255, Note_off_c, 1, 53, 0
2, 605280, Note_on_c, 1, 62, 46
2, 605400, Note_off_c, 1, 62, 0
2, 605400, Note_on_c, 1, 65, 45
2, 605520, Note_off_c, 1, 65, 0
2, 605520, Note_on_c, 1, 70, 44
2, 605640, Note_off_c, 1, 70, 0
2, 605640, Note_on_c, 1, 74, 43
2, 605700, Control_c, 1, 64, 0
2, 605735, Note_off_c, 1, 74, 0
2, 605760, Control_c, 1, 64, 127
2, 605880, Note_on_c, 1, 60, 42
2, 606000, Note_off_c, 1, 60, 0
2, 606000, Note_on_c, 1, 63, 41
2, 606120, Note_off_c, 1, 63, 0
2, 606120, Note_on_c, 1, 69, 40
2, 606180, Control_c, 1, 64, 0
2, 606215, Note_off_c, 1, 69, 0
2, 606240, Note_on_c, 1, 70, 61
2, 606660, Note_off_c, 1, 70, 0
2, 607200, Note_on_c, 1, 82, 50
2, 607280, Note_off_c, 1, 82, 0
2, 607280, Note_on_c, 1, 81, 49
2, 607360, Note_off_c, 1, 81, 0
2, 607360, Note_on_c, 1, 84, 49
2, 607440, Note_off_c, 1, 84, 0
2, 607440, Note_on_c, 1, 82, 49
2, 607520, Note_off_c, 1, 82, 0
2, 607520, Note_on_c, 1, 81, 49
2, 607600, Note_off_c, 1, 81, 0
2, 607600, Note_on_c, 1, 79, 48
2, 607664, Note_off_c, 1, 79, 0
2, 607680, Note_on_c, 1, 77, 54
2, 608228, Note_off_c, 1, 77, 0
2, 608240, Note_on_c, 1, 76, 47
2, 608320, Note_off_c, 1, 76, 0
2, 608320, Note_on_c, 1, 79, 47
2, 608400, Note_off_c, 1, 79, 0
2, 608400, Note_on_c, 1, 77, 46
2, 608480, Note_off_c, 1, 77, 0
2, 608480, Note_on_c, 1, 75, 46
2, 608560, Note_off_c, 1, 75, 0
2, 608560, Note_on_c, 1, 74, 46
2, 608640, Note_off_c, 1, 74, 0
2, 608640, Note_on_c, 1, 72, 46
2, 608720, Note_off_c, 1, 72, 0
2, 608720, Note_on_c, 1, 71, 46
2, 608800, Note_off_c, 1, 71, 0
2, 608800, Note_on_c, 1, 74, 45
2, 608880, Note_off_c, 1, 74, 0
2, 608880, Note_on_c, 1, 72, 45
2, 608960, Note_off_c, 1, 72, 0
2, 608960, Note_on_c, 1, 70, 45
2, 609040, Note_off_c, 1, 70, 0
2, 609040, Note_on_c, 1, 69, 45
2, 609104, Note_off_c, 1, 69, 0
2, 609120, Note_on_c, 1, 75, 56
2, 609600, Note_off_c, 1, 75, 0
2, 609600, Note_on_c, 1, 74, 43
2, 609793, Note_off_c, 1, 74, 0
2, 610080, Note_on_c, 1, 82, 42
2, 610160, Note_off_c, 1, 82, 0
2, 610160, Note_on_c, 1, 81, 42
2, 610240, Note_off_c, 1, 81, 0
2, 610240, Note_on_c, 1, 84, 42
2, 610320, Note_off_c, 1, 84, 0
2, 610320, Note_on_c, 1, 82, 41
2, 610400, Note_off_c, 1, 82, 0
2, 610400, Note_on_c, 1, 81, 41
2, 610480, Note_off_c, 1, 81, 0
2, 610480, Note_on_c, 1, 79, 41
2, 610544, Note_off_c, 1, 79, 0
2, 610560, Note_on_c, 1, 77, 46
2, 611108, Note_off_c, 1, 77, 0
2, 611120, Note_on_c, 1, 76, 39
2, 611200, Note_off_c, 1, 76, 0
2, 611200, Note_on_c, 1, 79, 39
2, 611280, Note_off_c, 1, 79, 0
2, 611280, Note_on_c, 1, 77, 39
2, 611360, Note_off_c, 1, 77, 0
2, 611360, Note_on_c, 1, 75, 39
2, 611440, Note_off_c, 1, 75, 0
2, 611440, Note_on_c, 1, 74, 39
2, 611520, Note_off_c, 1, 74, 0
2, 611520, Note_on_c, 1, 72, 38
2, 611600, Note_off_c, 1, 72, 0
2, 611600, Note_on_c, 1, 71, 38
2, 611680, Note_off_c, 1, 71, 0
2, 611680, Note_on_c, 1, 74, 38
2, 611760, Note_off_c, 1, 74, 0
2, 611760, Note_on_c, 1, 72, 38
2, 611840, Note_off_c, 1, 72, 0
2, 611840, Note_on_c, 1, 70, 38
2, 611920, Note_off_c, 1, 70, 0
2, 611920, Note_on_c, 1, 69, 37
2, 611984, Note_off_c, 1, 69, 0
2, 612000, Note_on_c, 1, 79, 52
2, 612480, Note_off_c, 1, 79, 0
2, 612480, Note_on_c, 1, 77, 36
2, 612560, Note_off_c, 1, 77, 0
2, 612560, Note_on_c, 1, 76, 36
2, 612640, Note_off_c, 1, 76, 0
2, 612640, Note_on_c, 1, 79, 36
2, 612720, Note_off_c, 1, 79, 0
2, 612720, Note_on_c, 1, 77, 35
2, 612800, Note_off_c, 1, 77, 0
2, 612800, Note_on_c, 1, 75, 35
2, 612880, Note_off_c, 1, 75, 0
2, 612880, Note_on_c, 1, 74, 35
2, 612960, Note_off_c, 1, 74, 0
2, 612960, Note_on_c, 1, 72, 35
2, 613040, Note_off_c, 1, 72, 0
2, 613040, Note_on_c, 1, 71, 35
2, 613120, Note_off_c, 1, 71, 0
2, 613120, Note_on_c, 1, 74, 34
2, 613200, Note_off_c, 1, 74, 0
2, 613200, Note_on_c, 1, 72, 34
2, 613280, Note_off_c, 1, 72, 0
2, 613280, Note_on_c, 1, 70, 34
2, 613360, Note_off_c, 1, 70, 0
2, 613360, Note_on_c, 1, 69, 34
2, 613424, Note_off_c, 1, 69, 0
2, 613440, Note_on_c, 1, 78, 50
2, 613920, Note_off_c, 1, 78, 0
2, 613920, Note_on_c, 1, 77, 32
2, 614000, Note_off_c, 1, 77, 0
2, 614000, Note_on_c, 1, 76, 32
2, 614080, Note_off_c, 1, 76, 0
2, 614080, Note_on_c, 1, 79, 32
2, 614160, Note_off_c, 1, 79, 0
2, 614160, Note_on_c, 1, 77, 32
2, 614240, Note_off_c, 1, 77, 0
2, 614240, Note_on_c, 1, 75, 31
2, 614320, Note_off_c, 1, 75, 0
2, 614320, Note_on_c, 1, 73, 31
2, 614400, Note_off_c, 1, 73, 0
2, 614400, Note_on_c, 1, 72, 31
2, 614480, Note_off_c, 1, 72, 0
2, 614480, Note_on_c, 1, 70, 31
2, 614560, Note_off_c, 1, 70, 0
2, 614560, Note_on_c, 1, 73, 31
2, 614640, Note_off_c, 1, 73, 0
2, 614640, Note_on_c, 1, 72, 30
2, 614720, Note_off_c, 1, 72, 0
2, 614720, Note_on_c, 1, 70, 30
2, 614800, Note_off_c, 1, 70, 0
2, 614800, Note_on_c, 1, 68, 30
2, 614864, Note_off_c, 1, 68, 0
2, 614880, Note_on_c, 1, 82, 46
2, 615360, Note_off_c, 1, 82, 0
2, 615360, Note_on_c, 1, 80, 39
2, 615553, Note_off_c, 1, 80, 0
2, 615600, Note_on_c, 1, 80, 47
2, 615793, Note_off_c, 1, 80, 0
2, 615840, Note_on_c, 1, 80, 54
2, 616033, Note_off_c, 1, 80, 0
2, 616080, Note_on_c, 1, 80, 63
2, 616273, Note_off_c, 1, 80, 0
2, 616320, Note_on_c, 1, 80, 72
2, 616920, Note_on_c, 1, 82, 64
2, 616928, Note_off_c, 1, 80, 0
2, 616980, Note_off_c, 1, 82, 0
2, 616980, Note_on_c, 1, 80, 63
2, 617040, Note_off_c, 1, 80, 0
2, 617040, Note_on_c, 1, 78, 62
2, 617100, Note_off_c, 1, 78, 0
2, 617100, Note_on_c, 1, 77, 61
2, 617160, Note_off_c, 1, 77, 0
2, 617160, Note_on_c, 1, 75, 61
2, 617220, Note_off_c, 1, 75, 0
2, 617220, Note_on_c, 1, 73, 60
2, 617280, Note_off_c, 1, 73, 0
2, 617280, Note_on_c, 1, 71, 59
2, 617400, Note_off_c, 1, 71, 0
2, 617400, Note_on_c, 1, 73, 58
2, 617430, Note_on_c, 1, 71, 58
2, 617439, Note_off_c, 1, 73, 0
2, 617460, Note_on_c, 1, 70, 57
2, 617469, Note_off_c, 1, 71, 0
2, 617490, Note_on_c, 1, 71, 57
2, 617499, Note_off_c, 1, 70, 0
2, 617520, Note_on_c, 1, 75, 56
2, 617529, Note_off_c, 1, 71, 0
2, 617640, Note_off_c, 1, 75, 0
2, 617640, Note_on_c, 1, 78, 55
2, 617736, Note_off_c, 1, 78, 0
2, 617760, Note_on_c, 1, 70, 57
2, 618480, Note_off_c, 1, 70, 0
2, 618480, Note_on_c, 1, 72, 42
2, 618540, Note_off_c, 1, 72, 0
2, 618540, Note_on_c, 1, 70, 44
2, 618600, Note_off_c, 1, 70, 0
2, 618600, Note_on_c, 1, 69, 45
2, 618660, Note_off_c, 1, 69, 0
2, 618660, Note_on_c, 1, 70, 47
2, 618720, Note_off_c, 1, 70, 0
2, 618720, Note_on_c, 1, 73, 48
2, 618960, Note_off_c, 1, 73, 0
2, 618960, Note_on_c, 1, 72, 54
2, 619153, Note_off_c, 1, 72, 0
2, 619200, Note_on_c, 1, 70, 65
2, 619320, Note_off_c, 1, 70, 0
2, 619320, Note_on_c, 1, 86, 67
2, 620213, Note_off_c, 1, 86, 0
2, 620220, Note_on_c, 1, 84, 57
2, 620280, Note_off_c, 1, 84, 0
2, 620280, Note_on_c, 1, 87, 55
2, 620340, Note_off_c, 1, 87, 0
2, 620340, Note_on_c, 1, 86, 54
2, 620400, Note_off_c, 1, 86, 0
2, 620400, Note_on_c, 1, 84, 52
2, 620460, Note_off_c, 1, 84, 0
2, 620460, Note_on_c, 1, 82, 51
2, 620520, Note_off_c, 1, 82, 0
2, 620520, Note_on_c, 1, 81, 50
2, 620580, Note_off_c, 1, 81, 0
2, 620580, Note_on_c, 1, 79, 48
2, 620628, Note_off_c, 1, 79, 0
2, 620640, Note_on_c, 1, 77, 44
2, 621240, Note_off_c, 1, 77, 0
2, 621240, Note_on_c, 1, 82, 50
2, 621360, Note_off_c, 1, 82, 0
2, 621360, Note_on_c, 1, 74, 51
2, 621480, Note_off_c, 1, 74, 0
2, 621480, Note_on_c, 1, 79, 52
2, 621600, Note_off_c, 1, 79, 0
2, 621600, Note_on_c, 1, 77, 50
2, 621720, Note_off_c, 1, 77, 0
2, 621720, Note_on_c, 1, 75, 48
2, 621840, Note_off_c, 1, 75, 0
2, 621840, Note_on_c, 1, 72, 47
2, 621960, Note_off_c, 1, 72, 0
2, 621960, Note_on_c, 1, 69, 45
2, 622056, Note_off_c, 1, 69, 0
2, 622080, Note_on_c, 1, 86, 56
2, 623093, Note_off_c, 1, 86, 0
2, 623100, Note_on_c, 1, 84, 50
2, 623160, Note_off_c, 1, 84, 0
2, 623160, Note_on_c, 1, 87, 49
2, 623220, Note_off_c, 1, 87, 0
2, 623220, Note_on_c, 1, 86, 49
2, 623280, Note_off_c, 1, 86, 0
2, 623280, Note_on_c, 1, 84, 48
2, 623340, Note_off_c, 1, 84, 0
2, 623340, Note_on_c, 1, 82, 47
2, 623400, Note_off_c, 1, 82, 0
2, 623400, Note_on_c, 1, 81, 46
2, 623460, Note_off_c, 1, 81, 0
2, 623460, Note_on_c, 1, 79, 45
2, 623508, Note_off_c, 1, 79, 0
2, 623520, Note_on_c, 1, 77, 44
2, 624060, Note_on_c, 1, 78, 45
2, 624068, Note_off_c, 1, 77, 0
2, 624120, Note_off_c, 1, 78, 0
2, 624120, Note_on_c, 1, 81, 46
2, 624180, Note_off_c, 1, 81, 0
2, 624180, Note_on_c, 1, 79, 47
2, 624240, Note_off_c, 1, 79, 0
2, 624240, Note_on_c, 1, 77, 47
2, 624300, Note_off_c, 1, 77, 0
2, 624300, Note_on_c, 1, 75, 48
2, 624360, Note_off_c, 1, 75, 0
2, 624360, Note_on_c, 1, 74, 49
2, 624420, Note_off_c, 1, 74, 0
2, 624420, Note_on_c, 1, 72, 49
2, 624480, Note_off_c, 1, 72, 0
2, 624480, Note_on_c, 1, 70, 49
2, 624540, Note_off_c, 1, 70, 0
2, 624540, Note_on_c, 1, 69, 48
2, 624600, Note_off_c, 1, 69, 0
2, 624600, Note_on_c, 1, 75, 48
2, 624660, Note_off_c, 1, 75, 0
2, 624660, Note_on_c, 1, 74, 47
2, 624720, Note_off_c, 1, 74, 0
2, 624720, Note_on_c, 1, 77, 47
2, 624780, Note_off_c, 1, 77, 0
2, 624780, Note_on_c, 1, 75, 46
2, 624840, Note_off_c, 1, 75, 0
2, 624840, Note_on_c, 1, 72, 46
2, 624900, Note_off_c, 1, 72, 0
2, 624900, Note_on_c, 1, 69, 45
2, 624948, Note_off_c, 1, 69, 0
2, 624960, Note_on_c, 1, 70, 45
2, 625040, Note_off_c, 1, 70, 0
2, 625040, Note_on_c, 1, 69, 44
2, 625120, Note_off_c, 1, 69, 0
2, 625120, Note_on_c, 1, 72, 44
2, 625200, Note_off_c, 1, 72, 0
2, 625200, Note_on_c, 1, 70, 43
2, 625280, Note_off_c, 1, 70, 0
2, 625280, Note_on_c, 1, 69, 42
2, 625360, Note_off_c, 1, 69, 0
2, 625360, Note_on_c, 1, 67, 42
2, 625440, Note_off_c, 1, 67, 0
2, 625440, Note_on_c, 1, 65, 41
2, 625520, Note_off_c, 1, 65, 0
2, 625520, Note_on_c, 1, 64, 40
2, 625600, Note_off_c, 1, 64, 0
2, 625600, Note_on_c, 1, 67, 40
2, 625680, Note_off_c, 1, 67, 0
2, 625680, Note_on_c, 1, 65, 39
2, 625760, Note_off_c, 1, 65, 0
2, 625760, Note_on_c, 1, 63, 38
2, 625840, Note_off_c, 1, 63, 0
2, 625840, Note_on_c, 1, 62, 38
2, 625920, Note_off_c, 1, 62, 0
2, 625920, Note_on_c, 1, 60, 37
2, 626000, Note_off_c, 1, 60, 0
2, 626000, Note_on_c, 1, 59, 36
2, 626080, Note_off_c, 1, 59, 0
2, 626080, Note_on_c, 1, 62, 36
2, 626160, Note_off_c, 1, 62, 0
2, 626160, Note_on_c, 1, 60, 35
2, 626240, Note_off_c, 1, 60, 0
2, 626240, Note_on_c, 1, 58, 35
2, 626320, Note_off_c, 1, 58, 0
2, 626320, Note_on_c, 1, 57, 34
2, 626396, Note_off_c, 1, 57, 0
2, 626400, Note_on_c, 1, 55, 49
2, 626880, Note_on_c, 1, 53, 35
2, 626891, Note_off_c, 1, 55, 0
2, 627073, Note_off_c, 1, 53, 0
2, 627120, Note_on_c, 1, 77, 40
2, 627313, Note_off_c, 1, 77, 0
2, 627360, Note_on_c, 1, 77, 43
2, 627553, Note_off_c, 1, 77, 0
2, 627600, Note_on_c, 1, 77, 46
2, 627793, Note_off_c, 1, 77, 0
2, 627840, Note_on_c, 1, 77, 49
2, 627900, Note_off_c, 1, 77, 0
2, 627900, Note_on_c, 1, 79, 50
2, 627920, Note_on_c, 1, 77, 50
2, 627933, Note_off_c, 1, 79, 0
2, 627940, Note_on_c, 1, 76, 51
2, 627953, Note_off_c, 1, 77, 0
2, 627960, Note_on_c, 1, 77, 51
2, 627973, Note_off_c, 1, 76, 0
2, 628020, Note_off_c, 1, 77, 0
2, 628020, Note_on_c, 1, 82, 52
2, 628068, Note_off_c, 1, 82, 0
2, 628080, Note_on_c, 1, 72, 52
2, 628140, Note_off_c, 1, 72, 0
2, 628140, Note_on_c, 1, 74, 53
2, 628160, Note_on_c, 1, 72, 54
2, 628173, Note_off_c, 1, 74, 0
2, 628180, Note_on_c, 1, 71, 54
2, 628193, Note_off_c, 1, 72, 0
2, 628200, Note_on_c, 1, 72, 54
2, 628213, Note_off_c, 1, 71, 0
2, 628255, Note_off_c, 1, 72, 0
2, 628260, Note_on_c, 1, 79, 55
2, 628308, Note_off_c, 1, 79, 0
2, 628320, Note_on_c, 1, 70, 56
2, 628560, Note_off_c, 1, 70, 0
2, 628560, Note_on_c, 1, 72, 59
2, 628620, Note_off_c, 1, 72, 0
2, 628620, Note_on_c, 1, 70, 60
2, 628680, Note_off_c, 1, 70, 0
2, 628680, Note_on_c, 1, 69, 61
2, 628740, Note_off_c, 1, 69, 0
2, 628740, Note_on_c, 1, 70, 61
2, 628800, Note_off_c, 1, 70, 0
2, 628800, Note_on_c, 1, 74, 62
2, 628800, Note_on_c, 1, 69, 62
2, 629040, Note_off_c, 1, 74, 0
2, 629040, Note_on_c, 1, 72, 65
2, 629233, Note_off_c, 1, 72, 0
2, 629240, Note_off_c, 1, 69, 0
2, 629280, Note_on_c, 1, 70, 66
2, 629705, Note_off_c, 1, 70, 0
2, 630720, Note_on_c, 1, 79, 62
2, 631200, Note_off_c, 1, 79, 0
2, 631200, Note_on_c, 1, 80, 49
2, 631393, Note_off_c, 1, 80, 0
2, 631440, Note_on_c, 1, 80, 55
2, 631633, Note_off_c, 1, 80, 0
2, 631680, Note_on_c, 1, 80, 61
2, 631873, Note_off_c, 1, 80, 0
2, 631920, Note_on_c, 1, 80, 66
2, 632113, Note_off_c, 1, 80, 0
2, 632160, Note_on_c, 1, 78, 74
2, 632220, Note_off_c, 1, 78, 0
2, 632220, Note_on_c, 1, 79, 73
2, 632280, Note_off_c, 1, 79, 0
2, 632280, Note_on_c, 1, 81, 72
2, 632340, Note_off_c, 1, 81, 0
2, 632340, Note_on_c, 1, 79, 70
2, 632400, Note_off_c, 1, 79, 0
2, 632400, Note_on_c, 1, 77, 69
2, 632460, Note_off_c, 1, 77, 0
2, 632460, Note_on_c, 1, 75, 67
2, 632520, Note_off_c, 1, 75, 0
2, 632520, Note_on_c, 1, 74, 66
2, 632580, Note_off_c, 1, 74, 0
2, 632580, Note_on_c, 1, 72, 65
2, 632628, Note_off_c, 1, 72, 0
2, 632640, Note_on_c, 1, 70, 63
2, 632880, Note_off_c, 1, 70, 0
2, 632880, Note_on_c, 1, 72, 62
2, 632940, Note_off_c, 1, 72, 0
2, 632940, Note_on_c, 1, 70, 61
2, 633000, Note_off_c, 1, 70, 0
2, 633000, Note_on_c, 1, 69, 60
2, 633060, Note_off_c, 1, 69, 0
2, 633060, Note_on_c, 1, 70, 60
2, 633120, Note_off_c, 1, 70, 0
2, 633120, Note_on_c, 1, 74, 58
2, 633360, Note_off_c, 1, 74, 0
2, 633360, Note_on_c, 1, 72, 54
2, 633553, Note_off_c, 1, 72, 0
2, 633600, Note_on_c, 1, 70, 54
2, 633653, Note_off_c, 1, 70, 0
2, 633680, Note_on_c, 1, 89, 75
2, 633733, Note_off_c, 1, 89, 0
2, 633760, Note_on_c, 1, 86, 74
2, 633813, Note_off_c, 1, 86, 0
2, 633840, Note_on_c, 1, 82, 73
2, 633893, Note_off_c, 1, 82, 0
2, 633920, Note_on_c, 1, 77, 72
2, 633973, Note_off_c, 1, 77, 0
2, 634000, Note_on_c, 1, 74, 71
2, 634053, Note_off_c, 1, 74, 0
2, 634080, Note_on_c, 1, 70, 71
2, 634273, Note_off_c, 1, 70, 0
2, 634640, Note_on_c, 1, 69, 64
2, 634720, Note_off_c, 1, 69, 0
2, 634720, Note_on_c, 1, 72, 63
2, 634800, Note_off_c, 1, 72, 0
2, 634800, Note_on_c, 1, 75, 62
2, 634880, Note_off_c, 1, 75, 0
2, 634880, Note_on_c, 1, 72, 61
2, 634960, Note_off_c, 1, 72, 0
2, 634960, Note_on_c, 1, 69, 60
2, 635040, Note_off_c, 1, 69, 0
2, 635040, Note_on_c, 1, 70, 59
2, 635040, Note_on_c, 1, 58, 59
2, 635093, Note_off_c, 1, 70, 0
2, 635120, Note_on_c, 1, 77, 56
2, 635173, Note_off_c, 1, 77, 0
2, 635200, Note_on_c, 1, 74, 55
2, 635233, Note_off_c, 1, 58, 0
2, 635253, Note_off_c, 1, 74, 0
2, 635280, Note_on_c, 1, 70, 54
2, 635333, Note_off_c, 1, 70, 0
2, 635360, Note_on_c, 1, 65, 53
2, 635413, Note_off_c, 1, 65, 0
2, 635440, Note_on_c, 1, 62, 52
2, 635493, Note_off_c, 1, 62, 0
2, 635520, Note_on_c, 1, 58, 51
2, 635573, Note_off_c, 1, 58, 0
2, 636080, Note_on_c, 1, 57, 42
2, 636160, Note_off_c, 1, 57, 0
2, 636160, Note_on_c, 1, 60, 40
2, 636240, Note_off_c, 1, 60, 0
2, 636240, Note_on_c, 1, 63, 38
2, 636320, Note_off_c, 1, 63, 0
2, 636320, Note_on_c, 1, 60, 36
2, 636400, Note_off_c, 1, 60, 0
2, 636400, Note_on_c, 1, 57, 34
2, 636464, Note_off_c, 1, 57, 0
2, 636480, Note_on_c, 1, 60, 37
2, 636960, Note_off_c, 1, 60, 0
2, 636960, Note_on_c, 1, 58, 31
2, 637200, Note_off_c, 1, 58, 0
2, 639840, Note_on_c, 1, 77, 50
2, 640800, Note_off_c, 1, 77, 0
2, 640800, Note_on_c, 1, 81, 52
2, 641700, Note_off_c, 1, 81, 0
2, 641760, Note_on_c, 1, 81, 57
2, 642000, Note_on_c, 1, 79, 52
2, 642006, Note_off_c, 1, 81, 0
2, 642192, Note_off_c, 1, 79, 0
2, 642240, Note_on_c, 1, 79, 54
2, 642480, Note_off_c, 1, 79, 0
2, 642480, Note_on_c, 1, 76, 50
2, 642672, Note_off_c, 1, 76, 0
2, 642720, Note_on_c, 1, 77, 54
2, 643440, Note_off_c, 1, 77, 0
2, 643440, Note_on_c, 1, 81, 58
2, 643632, Note_off_c, 1, 81, 0
2, 643680, Note_on_c, 1, 81, 65
2, 643920, Note_off_c, 1, 81, 0
2, 643920, Note_on_c, 1, 79, 58
2, 644112, Note_off_c, 1, 79, 0
2, 644160, Note_on_c, 1, 79, 61
2, 644400, Note_off_c, 1, 79, 0
2, 644400, Note_on_c, 1, 76, 54
2, 644592, Note_off_c, 1, 76, 0
2, 644640, Note_on_c, 1, 77, 55
2, 645360, Note_off_c, 1, 77, 0
2, 645360, Note_on_c, 1, 81, 61
2, 645552, Note_off_c, 1, 81, 0
2, 645600, Note_on_c, 1, 84, 64
2, 645840, Note_off_c, 1, 84, 0
2, 645840, Note_on_c, 1, 82, 56
2, 646032, Note_off_c, 1, 82, 0
2, 646080, Note_on_c, 1, 82, 58
2, 646320, Note_off_c, 1, 82, 0
2, 646320, Note_on_c, 1, 79, 52
2, 646512, Note_off_c, 1, 79, 0
2, 646560, Note_on_c, 1, 82, 57
2, 646800, Note_off_c, 1, 82, 0
2, 646800, Note_on_c, 1, 81, 52
2, 646992, Note_off_c, 1, 81, 0
2, 647040, Note_on_c, 1, 81, 55
2, 647280, Note_off_c, 1, 81, 0
2, 647280, Note_on_c, 1, 77, 49
2, 647472, Note_off_c, 1, 77, 0
2, 647520, Note_on_c, 1, 74, 46
2, 647760, Note_off_c, 1, 74, 0
2, 647760, Note_on_c, 1, 76, 43
2, 647820, Note_on_c, 1, 74, 44
2, 647834, Note_off_c, 1, 76, 0
2, 647916, Note_off_c, 1, 74, 0
2, 647920, Note_on_c, 1, 73, 46
2, 648000, Note_off_c, 1, 73, 0
2, 648000, Note_on_c, 1, 74, 48
2, 648240, Note_off_c, 1, 74, 0
2, 648240, Note_on_c, 1, 76, 49
2, 648480, Note_off_c, 1, 76, 0
2, 648480, Note_on_c, 1, 77, 51
2, 648960, Note_off_c, 1, 77, 0
2, 648960, Note_on_c, 1, 79, 54
2, 649440, Note_off_c, 1, 79, 0
2, 649440, Note_on_c, 1, 72, 59
2, 650602, Note_off_c, 1, 72, 0
2, 650640, Note_on_c, 1, 73, 44
2, 650832, Note_off_c, 1, 73, 0
2, 650880, Note_on_c, 1, 74, 45
2, 651072, Note_off_c, 1, 74, 0
2, 651120, Note_on_c, 1, 76, 47
2, 651312, Note_off_c, 1, 76, 0
2, 651360, Note_on_c, 1, 77, 52
2, 652320, Note_off_c, 1, 77, 0
2, 652320, Note_on_c, 1, 81, 54
2, 653226, Note_off_c, 1, 81, 0
2, 653280, Note_on_c, 1, 81, 57
2, 653520, Note_off_c, 1, 81, 0
2, 653520, Note_on_c, 1, 79, 51
2, 653712, Note_off_c, 1, 79, 0
2, 653760, Note_on_c, 1, 79, 54
2, 654000, Note_off_c, 1, 79, 0
2, 654000, Note_on_c, 1, 76, 50
2, 654192, Note_off_c, 1, 76, 0
2, 654240, Note_on_c, 1, 77, 52
2, 654960, Note_off_c, 1, 77, 0
2, 654960, Note_on_c, 1, 81, 57
2, 655152, Note_off_c, 1, 81, 0
2, 655200, Note_on_c, 1, 81, 61
2, 655440, Note_off_c, 1, 81, 0
2, 655440, Note_on_c, 1, 79, 57
2, 655632, Note_off_c, 1, 79, 0
2, 655680, Note_on_c, 1, 79, 57
2, 655920, Note_off_c, 1, 79, 0
2, 655920, Note_on_c, 1, 76, 54
2, 656112, Note_off_c, 1, 76, 0
2, 656160, Note_on_c, 1, 77, 56
2, 656880, Note_off_c, 1, 77, 0
2, 656880, Note_on_c, 1, 81, 63
2, 657072, Note_off_c, 1, 81, 0
2, 657120, Note_on_c, 1, 84, 66
2, 657360, Note_off_c, 1, 84, 0
2, 657360, Note_on_c, 1, 82, 59
2, 657552, Note_off_c, 1, 82, 0
2, 657600, Note_on_c, 1, 82, 60
2, 657840, Note_off_c, 1, 82, 0
2, 657840, Note_on_c, 1, 79, 54
2, 658032, Note_off_c, 1, 79, 0
2, 658080, Note_on_c, 1, 82, 60
2, 658320, Note_off_c, 1, 82, 0
2, 658320, Note_on_c, 1, 81, 55
2, 658512, Note_off_c, 1, 81, 0
2, 658560, Note_on_c, 1, 81, 58
2, 658800, Note_off_c, 1, 81, 0
2, 658800, Note_on_c, 1, 77, 51
2, 658992, Note_off_c, 1, 77, 0
2, 659040, Note_on_c, 1, 74, 51
2, 659280, Note_off_c, 1, 74, 0
2, 659280, Note_on_c, 1, 76, 49
2, 659340, Note_on_c, 1, 74, 51
2, 659354, Note_off_c, 1, 76, 0
2, 659436, Note_off_c, 1, 74, 0
2, 659440, Note_on_c, 1, 73, 53
2, 659520, Note_off_c, 1, 73, 0
2, 659520, Note_on_c, 1, 74, 55
2, 659760, Note_off_c, 1, 74, 0
2, 659760, Note_on_c, 1, 79, 56
2, 660000, Note_off_c, 1, 79, 0
2, 660000, Note_on_c, 1, 77, 58
2, 660246, Note_off_c, 1, 77, 0
2, 660480, Note_on_c, 1, 76, 61
2, 660734, Note_off_c, 1, 76, 0
2, 660960, Note_on_c, 1, 76, 64
2, 661920, Note_on_c, 1, 77, 43
2, 661934, Note_off_c, 1, 76, 0
2, 662340, Note_off_c, 1, 77, 0
2, 662880, Note_on_c, 1, 79, 46
2, 663840, Note_off_c, 1, 79, 0
2, 663840, Note_on_c, 1, 81, 50
2, 664740, Note_off_c, 1, 81, 0
2, 664800, Note_on_c, 1, 79, 53
2, 665040, Note_on_c, 1, 77, 48
2, 665046, Note_off_c, 1, 79, 0
2, 665232, Note_off_c, 1, 77, 0
2, 665280, Note_on_c, 1, 77, 50
2, 665520, Note_off_c, 1, 77, 0
2, 665520, Note_on_c, 1, 76, 46
2, 665712, Note_off_c, 1, 76, 0
2, 665760, Note_on_c, 1, 76, 50
2, 666666, Note_off_c, 1, 76, 0
2, 666720, Note_on_c, 1, 79, 48
2, 667440, Note_off_c, 1, 79, 0
2, 667440, Note_on_c, 1, 84, 52
2, 667632, Note_off_c, 1, 84, 0
2, 667680, Note_on_c, 1, 83, 57
2, 667920, Note_on_c, 1, 81, 55
2, 667926, Note_off_c, 1, 83, 0
2, 668100, Note_off_c, 1, 81, 0
2, 668400, Note_on_c, 1, 81, 58
2, 668534, Note_off_c, 1, 81, 0
2, 668640, Note_on_c, 1, 79, 64
2, 668880, Note_off_c, 1, 79, 0
2, 668880, Note_on_c, 1, 77, 60
2, 669060, Note_off_c, 1, 77, 0
2, 669360, Note_on_c, 1, 77, 58
2, 669486, Note_off_c, 1, 77, 0
2, 669600, Note_on_c, 1, 75, 61
2, 669840, Note_off_c, 1, 75, 0
2, 669840, Note_on_c, 1, 76, 56
2, 670020, Note_off_c, 1, 76, 0
2, 670320, Note_on_c, 1, 76, 54
2, 670454, Note_off_c, 1, 76, 0
2, 670560, Note_on_c, 1, 74, 58
2, 670800, Note_off_c, 1, 74, 0
2, 670800, Note_on_c, 1, 76, 50
2, 670880, Note_on_c, 1, 74, 51
2, 670882, Note_off_c, 1, 76, 0
2, 670960, Note_on_c, 1, 73, 52
2, 670965, Note_off_c, 1, 74, 0
2, 671040, Note_off_c, 1, 73, 0
2, 671040, Note_on_c, 1, 74, 53
2, 671160, Note_off_c, 1, 74, 0
2, 671280, Note_on_c, 1, 76, 56
2, 671406, Note_off_c, 1, 76, 0
2, 671520, Note_on_c, 1, 77, 58
2, 671646, Note_off_c, 1, 77, 0
2, 671760, Note_on_c, 1, 79, 61
2, 671886, Note_off_c, 1, 79, 0
2, 672000, Note_on_c, 1, 80, 64
2, 672134, Note_off_c, 1, 80, 0
2, 672240, Note_on_c, 1, 81, 67
2, 672366, Note_off_c, 1, 81, 0
2, 672480, Note_on_c, 1, 72, 69
2, 673200, Note_off_c, 1, 72, 0
2, 673200, Note_on_c, 1, 74, 53
2, 673320, Note_off_c, 1, 74, 0
2, 673320, Note_on_c, 1, 72, 54
2, 673440, Note_off_c, 1, 72, 0
2, 673440, Note_on_c, 1, 71, 56
2, 673680, Note_off_c, 1, 71, 0
2, 673680, Note_on_c, 1, 72, 50
2, 673814, Note_off_c, 1, 72, 0
2, 673920, Note_on_c, 1, 74, 51
2, 674040, Note_off_c, 1, 74, 0
2, 674160, Note_on_c, 1, 76, 51
2, 674286, Note_off_c, 1, 76, 0
2, 674400, Note_on_c, 1, 77, 53
2, 675360, Note_off_c, 1, 77, 0
2, 675360, Note_on_c, 1, 76, 55
2, 676260, Note_off_c, 1, 76, 0
2, 676320, Note_on_c, 1, 74, 58
2, 676454, Note_off_c, 1, 74, 0
2, 676500, Note_on_c, 1, 76, 59
2, 676620, Note_off_c, 1, 76, 0
2, 676620, Note_on_c, 1, 77, 61
2, 676754, Note_off_c, 1, 77, 0
2, 676800, Note_on_c, 1, 79, 62
2, 676926, Note_off_c, 1, 79, 0
2, 676980, Note_on_c, 1, 81, 64
2, 677100, Note_off_c, 1, 81, 0
2, 677100, Note_on_c, 1, 83, 65
2, 677220, Note_off_c, 1, 83, 0
2, 677280, Note_on_c, 1, 84, 67
2, 677706, Note_off_c, 1, 84, 0
2, 678240, Note_on_c, 1, 79, 60
2, 678480, Note_off_c, 1, 79, 0
2, 678480, Note_on_c, 1, 77, 57
2, 678720, Note_off_c, 1, 77, 0
2, 678960, Note_on_c, 1, 77, 60
2, 679080, Note_off_c, 1, 77, 0
2, 679200, Note_on_c, 1, 77, 66
2, 679440, Note_off_c, 1, 77, 0
2, 679440, Note_on_c, 1, 76, 62
2, 679620, Note_off_c, 1, 76, 0
2, 679920, Note_on_c, 1, 76, 68
2, 680160, Note_off_c, 1, 76, 0
2, 680160, Note_on_c, 1, 74, 66
2, 680280, Note_off_c, 1, 74, 0
2, 680280, Note_on_c, 1, 76, 66
2, 680400, Note_off_c, 1, 76, 0
2, 680400, Note_on_c, 1, 77, 67
2, 680520, Note_off_c, 1, 77, 0
2, 680520, Note_on_c, 1, 78, 68
2, 680640, Note_off_c, 1, 78, 0
2, 680640, Note_on_c, 1, 79, 68
2, 680760, Note_off_c, 1, 79, 0
2, 680760, Note_on_c, 1, 80, 69
2, 680880, Note_off_c, 1, 80, 0
2, 680880, Note_on_c, 1, 81, 70
2, 681000, Note_off_c, 1, 81, 0
2, 681000, Note_on_c, 1, 83, 70
2, 681120, Note_off_c, 1, 83, 0
2, 681120, Note_on_c, 1, 84, 72
2, 681600, Note_off_c, 1, 84, 0
2, 682080, Note_on_c, 1, 84, 71
2, 682440, Note_off_c, 1, 84, 0
2, 682440, Note_on_c, 1, 81, 69
2, 682536, Note_off_c, 1, 81, 0
2, 682560, Note_on_c, 1, 78, 75
2, 683520, Note_off_c, 1, 78, 0
2, 683520, Note_on_c, 1, 79, 63
2, 683946, Note_off_c, 1, 79, 0
2, 684000, Note_on_c, 1, 81, 62
2, 684360, Note_on_c, 1, 77, 60
2, 684366, Note_off_c, 1, 81, 0
2, 684456, Note_off_c, 1, 77, 0
2, 684480, Note_on_c, 1, 74, 68
2, 685440, Note_off_c, 1, 74, 0
2, 685440, Note_on_c, 1, 76, 53
2, 685866, Note_off_c, 1, 76, 0
2, 685920, Note_on_c, 1, 77, 66
2, 686160, Note_off_c, 1, 77, 0
2, 686160, Note_on_c, 1, 79, 64
2, 686280, Note_off_c, 1, 79, 0
2, 686280, Note_on_c, 1, 81, 63
2, 686400, Note_on_c, 1, 79, 62
2, 686414, Note_off_c, 1, 81, 0
2, 686520, Note_on_c, 1, 77, 61
2, 686534, Note_off_c, 1, 79, 0
2, 686640, Note_off_c, 1, 77, 0
2, 686640, Note_on_c, 1, 76, 60
2, 686760, Note_off_c, 1, 76, 0
2, 686760, Note_on_c, 1, 74, 59
2, 686880, Note_off_c, 1, 74, 0
2, 686880, Note_on_c, 1, 72, 58
2, 687120, Note_off_c, 1, 72, 0
2, 687360, Note_on_c, 1, 74, 54
2, 687600, Note_off_c, 1, 74, 0
2, 687840, Note_on_c, 1, 74, 58
2, 688560, Note_off_c, 1, 74, 0
2, 688560, Note_on_c, 1, 75, 50
2, 688800, Note_on_c, 1, 76, 47
2, 688806, Note_off_c, 1, 75, 0
2, 689226, Note_off_c, 1, 76, 0
2, 689760, Note_on_c, 1, 84, 66
2, 689880, Note_off_c, 1, 84, 0
2, 689880, Note_on_c, 1, 83, 65
2, 690000, Note_off_c, 1, 83, 0
2, 690000, Note_on_c, 1, 84, 64
2, 690120, Note_off_c, 1, 84, 0
2, 690120, Note_on_c, 1, 81, 62
2, 690216, Note_off_c, 1, 81, 0
2, 690240, Note_on_c, 1, 78, 69
2, 691200, Note_on_c, 1, 79, 59
2, 691206, Note_off_c, 1, 78, 0
2, 691440, Note_off_c, 1, 79, 0
2, 691440, Note_on_c, 1, 80, 56
2, 691620, Note_off_c, 1, 80, 0
2, 691680, Note_on_c, 1, 81, 63
2, 691800, Note_off_c, 1, 81, 0
2, 691800, Note_on_c, 1, 80, 62
2, 691920, Note_off_c, 1, 80, 0
2, 691920, Note_on_c, 1, 81, 61
2, 692040, Note_off_c, 1, 81, 0
2, 692040, Note_on_c, 1, 77, 59
2, 692136, Note_off_c, 1, 77, 0
2, 692160, Note_on_c, 1, 74, 63
2, 692880, Note_off_c, 1, 74, 0
2, 692880, Note_on_c, 1, 75, 54
2, 693120, Note_off_c, 1, 75, 0
2, 693120, Note_on_c, 1, 76, 57
2, 693240, Note_off_c, 1, 76, 0
2, 693240, Note_on_c, 1, 77, 59
2, 693360, Note_off_c, 1, 77, 0
2, 693360, Note_on_c, 1, 78, 61
2, 693480, Note_off_c, 1, 78, 0
2, 693480, Note_on_c, 1, 79, 62
2, 693576, Note_off_c, 1, 79, 0
2, 693600, Note_on_c, 1, 80, 67
2, 693840, Note_off_c, 1, 80, 0
2, 693840, Note_on_c, 1, 81, 68
2, 694032, Note_off_c, 1, 81, 0
2, 694080, Note_on_c, 1, 79, 65
2, 694200, Note_off_c, 1, 79, 0
2, 694200, Note_on_c, 1, 77, 63
2, 694320, Note_off_c, 1, 77, 0
2, 694320, Note_on_c, 1, 76, 62
2, 694440, Note_off_c, 1, 76, 0
2, 694440, Note_on_c, 1, 74, 60
2, 694536, Note_off_c, 1, 74, 0
2, 694560, Note_on_c, 1, 72, 58
2, 694800, Note_off_c, 1, 72, 0
2, 694800, Note_on_c, 1, 76, 50
2, 694860, Note_off_c, 1, 76, 0
2, 694860, Note_on_c, 1, 74, 51
2, 694920, Note_off_c, 1, 74, 0
2, 694920, Note_on_c, 1, 72, 52
2, 694980, Note_off_c, 1, 72, 0
2, 694980, Note_on_c, 1, 74, 53
2, 695040, Note_off_c, 1, 74, 0
2, 695040, Note_on_c, 1, 76, 54
2, 695280, Note_off_c, 1, 76, 0
2, 695280, Note_on_c, 1, 74, 48
2, 695520, Note_off_c, 1, 74, 0
2, 695520, Note_on_c, 1, 72, 48
2, 695946, Note_off_c, 1, 72, 0
2, 696240, Note_on_c, 1, 72, 41
2, 696360, Note_off_c, 1, 72, 0
2, 696360, Note_on_c, 1, 71, 43
2, 696480, Note_off_c, 1, 71, 0
2, 696480, Note_on_c, 1, 74, 45
2, 696600, Note_off_c, 1, 74, 0
2, 696600, Note_on_c, 1, 72, 46
2, 696720, Note_off_c, 1, 72, 0
2, 696720, Note_on_c, 1, 76, 48
2, 696840, Note_off_c, 1, 76, 0
2, 696840, Note_on_c, 1, 74, 50
2, 696960, Note_off_c, 1, 74, 0
2, 696960, Note_on_c, 1, 77, 52
2, 697080, Note_off_c, 1, 77, 0
2, 697080, Note_on_c, 1, 76, 54
2, 697200, Note_off_c, 1, 76, 0
2, 697200, Note_on_c, 1, 79, 56
2, 697320, Note_off_c, 1, 79, 0
2, 697320, Note_on_c, 1, 77, 58
2, 697424, Note_off_c, 1, 77, 0
2, 697440, Note_on_c, 1, 81, 60
2, 697680, Note_off_c, 1, 81, 0
2, 697680, Note_on_c, 1, 79, 56
2, 697860, Note_off_c, 1, 79, 0
2, 697920, Note_on_c, 1, 79, 65
2, 698580, Note_off_c, 1, 79, 0
2, 698640, Note_on_c, 1, 78, 57
2, 698820, Note_off_c, 1, 78, 0
2, 698880, Note_on_c, 1, 77, 54
2, 699066, Note_off_c, 1, 77, 0
2, 699120, Note_on_c, 1, 74, 51
2, 699306, Note_off_c, 1, 74, 0
2, 699360, Note_on_c, 1, 71, 48
2, 699600, Note_off_c, 1, 71, 0
2, 699600, Note_on_c, 1, 72, 45
2, 699786, Note_off_c, 1, 72, 0
2, 700080, Note_on_c, 1, 72, 47
2, 700200, Note_off_c, 1, 72, 0
2, 700200, Note_on_c, 1, 71, 49
2, 700320, Note_off_c, 1, 71, 0
2, 700320, Note_on_c, 1, 74, 51
2, 700440, Note_off_c, 1, 74, 0
2, 700440, Note_on_c, 1, 72, 53
2, 700560, Note_off_c, 1, 72, 0
2, 700560, Note_on_c, 1, 76, 55
2, 700680, Note_off_c, 1, 76, 0
2, 700680, Note_on_c, 1, 74, 57
2, 700800, Note_off_c, 1, 74, 0
2, 700800, Note_on_c, 1, 77, 59
2, 700920, Note_off_c, 1, 77, 0
2, 700920, Note_on_c, 1, 76, 61
2, 701040, Note_off_c, 1, 76, 0
2, 701040, Note_on_c, 1, 79, 63
2, 701160, Note_off_c, 1, 79, 0
2, 701160, Note_on_c, 1, 77, 65
2, 701250, Note_off_c, 1, 77, 0
2, 701280, Note_on_c, 1, 81, 67
2, 701520, Note_off_c, 1, 81, 0
2, 701520, Note_on_c, 1, 79, 64
2, 701700, Note_off_c, 1, 79, 0
2, 701760, Note_on_c, 1, 79, 71
2, 702480, Note_on_c, 1, 78, 63
2, 702502, Note_off_c, 1, 79, 0
2, 702720, Note_off_c, 1, 78, 0
2, 702720, Note_on_c, 1, 77, 60
2, 702960, Note_off_c, 1, 77, 0
2, 702960, Note_on_c, 1, 74, 58
2, 703140, Note_off_c, 1, 74, 0
2, 703200, Note_on_c, 1, 71, 55
2, 703440, Note_off_c, 1, 71, 0
2, 703440, Note_on_c, 1, 72, 50
2, 703626, Note_off_c, 1, 72, 0
2, 703920, Note_on_c, 1, 72, 51
2, 704040, Note_off_c, 1, 72, 0
2, 704040, Note_on_c, 1, 71, 53
2, 704160, Note_off_c, 1, 71, 0
2, 704160, Note_on_c, 1, 74, 54
2, 704280, Note_off_c, 1, 74, 0
2, 704280, Note_on_c, 1, 72, 56
2, 704400, Note_off_c, 1, 72, 0
2, 704400, Note_on_c, 1, 76, 58
2, 704520, Note_off_c, 1, 76, 0
2, 704520, Note_on_c, 1, 74, 60
2, 704640, Note_off_c, 1, 74, 0
2, 704640, Note_on_c, 1, 77, 62
2, 704760, Note_off_c, 1, 77, 0
2, 704760, Note_on_c, 1, 76, 64
2, 704880, Note_off_c, 1, 76, 0
2, 704880, Note_on_c, 1, 79, 65
2, 705000, Note_off_c, 1, 79, 0
2, 705000, Note_on_c, 1, 77, 67
2, 705096, Note_off_c, 1, 77, 0
2, 705120, Note_on_c, 1, 81, 68
2, 705360, Note_off_c, 1, 81, 0
2, 705360, Note_on_c, 1, 79, 64
2, 705540, Note_off_c, 1, 79, 0
2, 705840, Note_on_c, 1, 76, 61
2, 705960, Note_off_c, 1, 76, 0
2, 705960, Note_on_c, 1, 74, 63
2, 706080, Note_off_c, 1, 74, 0
2, 706080, Note_on_c, 1, 77, 65
2, 706200, Note_off_c, 1, 77, 0
2, 706200, Note_on_c, 1, 76, 66
2, 706320, Note_off_c, 1, 76, 0
2, 706320, Note_on_c, 1, 79, 68
2, 706440, Note_off_c, 1, 79, 0
2, 706440, Note_on_c, 1, 77, 70
2, 706560, Note_off_c, 1, 77, 0
2, 706560, Note_on_c, 1, 81, 72
2, 706680, Note_off_c, 1, 81, 0
2, 706680, Note_on_c, 1, 79, 74
2, 706800, Note_off_c, 1, 79, 0
2, 706800, Note_on_c, 1, 82, 75
2, 706920, Note_off_c, 1, 82, 0
2, 706920, Note_on_c, 1, 81, 77
2, 707024, Note_off_c, 1, 81, 0
2, 707040, Note_on_c, 1, 84, 81
2, 707280, Note_off_c, 1, 84, 0
2, 707280, Note_on_c, 1, 82, 76
2, 707460, Note_off_c, 1, 82, 0
2, 707760, Note_on_c, 1, 79, 71
2, 707880, Note_off_c, 1, 79, 0
2, 707880, Note_on_c, 1, 78, 73
2, 708000, Note_off_c, 1, 78, 0
2, 708000, Note_on_c, 1, 81, 75
2, 708120, Note_off_c, 1, 81, 0
2, 708120, Note_on_c, 1, 79, 77
2, 708240, Note_off_c, 1, 79, 0
2, 708240, Note_on_c, 1, 82, 79
2, 708360, Note_off_c, 1, 82, 0
2, 708360, Note_on_c, 1, 81, 81
2, 708480, Note_off_c, 1, 81, 0
2, 708480, Note_on_c, 1, 84, 83
2, 708600, Note_off_c, 1, 84, 0
2, 708600, Note_on_c, 1, 82, 85
2, 708720, Note_off_c, 1, 82, 0
2, 708720, Note_on_c, 1, 86, 87
2, 708840, Note_off_c, 1, 86, 0
2, 708840, Note_on_c, 1, 84, 89
2, 708930, Note_off_c, 1, 84, 0
2, 708960, Note_on_c, 1, 87, 90
2, 709200, Note_off_c, 1, 87, 0
2, 709200, Note_on_c, 1, 86, 86
2, 709380, Note_off_c, 1, 86, 0
2, 709440, Note_on_c, 1, 85, 81
2, 709620, Note_off_c, 1, 85, 0
2, 709680, Note_on_c, 1, 84, 77
2, 709866, Note_off_c, 1, 84, 0
2, 709920, Note_on_c, 1, 83, 73
2, 710114, Note_off_c, 1, 83, 0
2, 710160, Note_on_c, 1, 82, 69
2, 710340, Note_off_c, 1, 82, 0
2, 710400, Note_on_c, 1, 81, 65
2, 710586, Note_off_c, 1, 81, 0
2, 710640, Note_on_c, 1, 80, 61
2, 710826, Note_off_c, 1, 80, 0
2, 710880, Note_on_c, 1, 79, 69
2, 711180, Note_off_c, 1, 79, 0
2, 711180, Note_on_c, 1, 81, 58
2, 711240, Note_off_c, 1, 81, 0
2, 711240, Note_on_c, 1, 79, 59
2, 711300, Note_off_c, 1, 79, 0
2, 711300, Note_on_c, 1, 78, 60
2, 711360, Note_off_c, 1, 78, 0
2, 711360, Note_on_c, 1, 79, 62
2, 711480, Note_off_c, 1, 79, 0
2, 711600, Note_on_c, 1, 81, 56
2, 711720, Note_off_c, 1, 81, 0
2, 711840, Note_on_c, 1, 84, 57
2, 712080, Note_off_c, 1, 84, 0
2, 712080, Note_on_c, 1, 82, 52
2, 712312, Note_off_c, 1, 82, 0
2, 712320, Note_on_c, 1, 79, 47
2, 712560, Note_on_c, 1, 76, 43
2, 712574, Note_off_c, 1, 79, 0
2, 712754, Note_off_c, 1, 76, 0
2, 712800, Note_on_c, 1, 77, 40
2, 713520, Note_off_c, 1, 77, 0
2, 713520, Note_on_c, 1, 79, 39
2, 713580, Note_on_c, 1, 77, 40
2, 713602, Note_off_c, 1, 79, 0
2, 713640, Note_on_c, 1, 76, 41
2, 713654, Note_off_c, 1, 77, 0
2, 713700, Note_off_c, 1, 76, 0
2, 713700, Note_on_c, 1, 77, 42
2, 713760, Note_off_c, 1, 77, 0
2, 713760, Note_on_c, 1, 81, 43
2, 714660, Note_off_c, 1, 81, 0
2, 714720, Note_on_c, 1, 81, 49
2, 714960, Note_on_c, 1, 79, 44
2, 714966, Note_off_c, 1, 81, 0
2, 715140, Note_off_c, 1, 79, 0
2, 715200, Note_on_c, 1, 79, 46
2, 715440, Note_off_c, 1, 79, 0
2, 715440, Note_on_c, 1, 76, 42
2, 715620, Note_off_c, 1, 76, 0
2, 715680, Note_on_c, 1, 77, 43
2, 716400, Note_off_c, 1, 77, 0
2, 716400, Note_on_c, 1, 81, 48
2, 716586, Note_off_c, 1, 81, 0
2, 716640, Note_on_c, 1, 78, 51
2, 716880, Note_off_c, 1, 78, 0
2, 716880, Note_on_c, 1, 79, 47
2, 717120, Note_off_c, 1, 79, 0
2, 717120, Note_on_c, 1, 82, 48
2, 717360, Note_off_c, 1, 82, 0
2, 717360, Note_on_c, 1, 76, 43
2, 717546, Note_off_c, 1, 76, 0
2, 717600, Note_on_c, 1, 79, 46
2, 717840, Note_off_c, 1, 79, 0
2, 717840, Note_on_c, 1, 77, 44
2, 718274, Note_off_c, 1, 77, 0
2, 718320, Note_on_c, 1, 81, 51
2, 718506, Note_off_c, 1, 81, 0
2, 718560, Note_on_c, 1, 84, 54
2, 718800, Note_off_c, 1, 84, 0
2, 718800, Note_on_c, 1, 83, 48
2, 718995, Note_off_c, 1, 83, 0
2, 719040, Note_on_c, 1, 82, 48
2, 719280, Note_off_c, 1, 82, 0
2, 719280, Note_on_c, 1, 79, 45
2, 719472, Note_off_c, 1, 79, 0
2, 719520, Note_on_c, 1, 82, 50
2, 719760, Note_off_c, 1, 82, 0
2, 719760, Note_on_c, 1, 80, 46
2, 719962, Note_off_c, 1, 80, 0
2, 720000, Note_on_c, 1, 81, 45
2, 720240, Note_off_c, 1, 81, 0
2, 720240, Note_on_c, 1, 77, 40
2, 720432, Note_off_c, 1, 77, 0
2, 720480, Note_on_c, 1, 74, 42
2, 720720, Note_on_c, 1, 76, 40
2, 720726, Note_off_c, 1, 74, 0
2, 720800, Note_on_c, 1, 74, 42
2, 720802, Note_off_c, 1, 76, 0
2, 720880, Note_on_c, 1, 73, 44
2, 720884, Note_off_c, 1, 74, 0
2, 720960, Note_on_c, 1, 74, 46
2, 720974, Note_off_c, 1, 73, 0
2, 721200, Note_off_c, 1, 74, 0
2, 721200, Note_on_c, 1, 76, 47
2, 721334, Note_off_c, 1, 76, 0
2, 721440, Note_on_c, 1, 77, 49
2, 721680, Note_off_c, 1, 77, 0
2, 721680, Note_on_c, 1, 78, 51
2, 721920, Note_off_c, 1, 78, 0
2, 721920, Note_on_c, 1, 81, 52
2, 722160, Note_off_c, 1, 81, 0
2, 722160, Note_on_c, 1, 79, 54
2, 722354, Note_off_c, 1, 79, 0
2, 722400, Note_on_c, 1, 72, 58
2, 723600, Note_on_c, 1, 74, 41
2, 723622, Note_off_c, 1, 72, 0
2, 723720, Note_off_c, 1, 74, 0
2, 723720, Note_on_c, 1, 73, 43
2, 723840, Note_off_c, 1, 73, 0
2, 723840, Note_on_c, 1, 76, 44
2, 723960, Note_off_c, 1, 76, 0
2, 723960, Note_on_c, 1, 74, 45
2, 724080, Note_off_c, 1, 74, 0
2, 724080, Note_on_c, 1, 77, 46
2, 724200, Note_off_c, 1, 77, 0
2, 724200, Note_on_c, 1, 76, 47
2, 724296, Note_off_c, 1, 76, 0
2, 724320, Note_on_c, 1, 79, 46
2, 724440, Note_on_c, 1, 77, 48
2, 724446, Note_off_c, 1, 79, 0
2, 725040, Note_on_c, 1, 79, 46
2, 725054, Note_off_c, 1, 77, 0
2, 725100, Note_on_c, 1, 77, 47
2, 725114, Note_off_c, 1, 79, 0
2, 725160, Note_off_c, 1, 77, 0
2, 725160, Note_on_c, 1, 76, 49
2, 725220, Note_on_c, 1, 77, 50
2, 725235, Note_off_c, 1, 76, 0
2, 725280, Note_off_c, 1, 77, 0
2, 725280, Note_on_c, 1, 81, 51
2, 726180, Note_off_c, 1, 81, 0
2, 726240, Note_on_c, 1, 79, 56
2, 726480, Note_off_c, 1, 79, 0
2, 726480, Note_on_c, 1, 82, 50
2, 726720, Note_off_c, 1, 82, 0
2, 726720, Note_on_c, 1, 76, 52
2, 726960, Note_off_c, 1, 76, 0
2, 726960, Note_on_c, 1, 79, 46
2, 727154, Note_off_c, 1, 79, 0
2, 727200, Note_on_c, 1, 77, 50
2, 727920, Note_on_c, 1, 81, 55
2, 727927, Note_off_c, 1, 77, 0
2, 728100, Note_off_c, 1, 81, 0
2, 728160, Note_on_c, 1, 79, 59
2, 728280, Note_on_c, 1, 81, 56
2, 728294, Note_off_c, 1, 79, 0
2, 728400, Note_off_c, 1, 81, 0
2, 728400, Note_on_c, 1, 82, 55
2, 728520, Note_on_c, 1, 79, 54
2, 728526, Note_off_c, 1, 82, 0
2, 728640, Note_off_c, 1, 79, 0
2, 728640, Note_on_c, 1, 76, 53
2, 728760, Note_off_c, 1, 76, 0
2, 728760, Note_on_c, 1, 77, 52
2, 728880, Note_on_c, 1, 79, 51
2, 728886, Note_off_c, 1, 77, 0
2, 729000, Note_off_c, 1, 79, 0
2, 729000, Note_on_c, 1, 76, 50
2, 729120, Note_off_c, 1, 76, 0
2, 729120, Note_on_c, 1, 77, 50
2, 729840, Note_off_c, 1, 77, 0
2, 729840, Note_on_c, 1, 81, 56
2, 730020, Note_off_c, 1, 81, 0
2, 730080, Note_on_c, 1, 84, 58
2, 730320, Note_off_c, 1, 84, 0
2, 730320, Note_on_c, 1, 83, 52
2, 730560, Note_off_c, 1, 83, 0
2, 730560, Note_on_c, 1, 82, 51
2, 730800, Note_off_c, 1, 82, 0
2, 730800, Note_on_c, 1, 79, 46
2, 730986, Note_off_c, 1, 79, 0
2, 731040, Note_on_c, 1, 82, 53
2, 731280, Note_off_c, 1, 82, 0
2, 731280, Note_on_c, 1, 80, 48
2, 731520, Note_off_c, 1, 80, 0
2, 731520, Note_on_c, 1, 81, 49
2, 731760, Note_off_c, 1, 81, 0
2, 731760, Note_on_c, 1, 77, 45
2, 731940, Note_off_c, 1, 77, 0
2, 732000, Note_on_c, 1, 74, 46
2, 732300, Note_off_c, 1, 74, 0
2, 732300, Note_on_c, 1, 76, 42
2, 732360, Note_off_c, 1, 76, 0
2, 732360, Note_on_c, 1, 74, 44
2, 732420, Note_off_c, 1, 74, 0
2, 732420, Note_on_c, 1, 73, 46
2, 732480, Note_off_c, 1, 73, 0
2, 732480, Note_on_c, 1, 74, 48
2, 732720, Note_off_c, 1, 74, 0
2, 732720, Note_on_c, 1, 79, 46
2, 732846, Note_off_c, 1, 79, 0
2, 732960, Note_on_c, 1, 77, 48
2, 733206, Note_off_c, 1, 77, 0
2, 733440, Note_on_c, 1, 76, 51
2, 733686, Note_off_c, 1, 76, 0
2, 733920, Note_on_c, 1, 76, 56
2, 734880, Note_on_c, 1, 77, 43
2, 734886, Note_off_c, 1, 76, 0
2, 735314, Note_off_c, 1, 77, 0
2, 735920, Note_on_c, 1, 81, 78
2, 736560, Note_on_c, 1, 79, 64
2, 736564, Note_off_c, 1, 81, 0
2, 736640, Note_on_c, 1, 77, 63
2, 736644, Note_off_c, 1, 79, 0
2, 736720, Note_on_c, 1, 76, 63
2, 736724, Note_off_c, 1, 77, 0
2, 736794, Note_off_c, 1, 76, 0
2, 736800, Note_on_c, 1, 74, 62
2, 736992, Note_off_c, 1, 74, 0
2, 737040, Note_on_c, 1, 74, 60
2, 737232, Note_off_c, 1, 74, 0
2, 737280, Note_on_c, 1, 74, 58
2, 737472, Note_off_c, 1, 74, 0
2, 737520, Note_on_c, 1, 74, 56
2, 737712, Note_off_c, 1, 74, 0
2, 737760, Note_on_c, 1, 73, 54
2, 738000, Note_off_c, 1, 73, 0
2, 738240, Note_on_c, 1, 74, 49
2, 738480, Note_off_c, 1, 74, 0
2, 738720, Note_on_c, 1, 76, 44
2, 738960, Note_off_c, 1, 76, 0
2, 739760, Note_on_c, 1, 82, 82
2, 740390, Note_off_c, 1, 82, 0
2, 740400, Note_on_c, 1, 81, 66
2, 740480, Note_on_c, 1, 79, 65
2, 740484, Note_off_c, 1, 81, 0
2, 740560, Note_off_c, 1, 79, 0
2, 740560, Note_on_c, 1, 77, 64
2, 740624, Note_off_c, 1, 77, 0
2, 740640, Note_on_c, 1, 76, 63
2, 740820, Note_off_c, 1, 76, 0
2, 740880, Note_on_c, 1, 76, 61
2, 741072, Note_off_c, 1, 76, 0
2, 741120, Note_on_c, 1, 76, 59
2, 741312, Note_off_c, 1, 76, 0
2, 741360, Note_on_c, 1, 76, 56
2, 741552, Note_off_c, 1, 76, 0
2, 741600, Note_on_c, 1, 74, 55
2, 741840, Note_off_c, 1, 74, 0
2, 742080, Note_on_c, 1, 76, 50
2, 742320, Note_off_c, 1, 76, 0
2, 742560, Note_on_c, 1, 77, 45
2, 742800, Note_off_c, 1, 77, 0
2, 743520, Note_on_c, 1, 77, 42
2, 743760, Note_off_c, 1, 77, 0
2, 743760, Note_on_c, 1, 76, 40
2, 743952, Note_off_c, 1, 76, 0
2, 744000, Note_on_c, 1, 76, 44
2, 744240, Note_off_c, 1, 76, 0
2, 744240, Note_on_c, 1, 73, 41
2, 744432, Note_off_c, 1, 73, 0
2, 744480, Note_on_c, 1, 74, 46
2, 745200, Note_off_c, 1, 74, 0
2, 745200, Note_on_c, 1, 77, 49
2, 745392, Note_off_c, 1, 77, 0
2, 745440, Note_on_c, 1, 77, 50
2, 745680, Note_off_c, 1, 77, 0
2, 745680, Note_on_c, 1, 76, 48
2, 745872, Note_off_c, 1, 76, 0
2, 745920, Note_on_c, 1, 79, 52
2, 746160, Note_off_c, 1, 79, 0
2, 746160, Note_on_c, 1, 73, 50
2, 746352, Note_off_c, 1, 73, 0
2, 746400, Note_on_c, 1, 76, 54
2, 746640, Note_off_c, 1, 76, 0
2, 746640, Note_on_c, 1, 74, 55
2, 747074, Note_off_c, 1, 74, 0
2, 747120, Note_on_c, 1, 77, 57
2, 747312, Note_off_c, 1, 77, 0
2, 747360, Note_on_c, 1, 81, 61
2, 747600, Note_on_c, 1, 80, 54
2, 747622, Note_off_c, 1, 81, 0
2, 747840, Note_off_c, 1, 80, 0
2, 747840, Note_on_c, 1, 79, 56
2, 748080, Note_off_c, 1, 79, 0
2, 748080, Note_on_c, 1, 76, 52
2, 748272, Note_off_c, 1, 76, 0
2, 748320, Note_on_c, 1, 79, 58
2, 748560, Note_off_c, 1, 79, 0
2, 748560, Note_on_c, 1, 78, 53
2, 748800, Note_off_c, 1, 78, 0
2, 748800, Note_on_c, 1, 77, 52
2, 749040, Note_off_c, 1, 77, 0
2, 749040, Note_on_c, 1, 74, 49
2, 749232, Note_off_c, 1, 74, 0
2, 749280, Note_on_c, 1, 73, 50
2, 749520, Note_off_c, 1, 73, 0
2, 749520, Note_on_c, 1, 76, 52
2, 749700, Note_off_c, 1, 76, 0
2, 749760, Note_on_c, 1, 76, 54
2, 749880, Note_off_c, 1, 76, 0
2, 750000, Note_on_c, 1, 76, 56
2, 750120, Note_off_c, 1, 76, 0
2, 750240, Note_on_c, 1, 76, 58
2, 750480, Note_off_c, 1, 76, 0
2, 750480, Note_on_c, 1, 81, 60
2, 750660, Note_off_c, 1, 81, 0
2, 750720, Note_on_c, 1, 81, 62
2, 750840, Note_off_c, 1, 81, 0
2, 750960, Note_on_c, 1, 81, 68
2, 751080, Note_off_c, 1, 81, 0
2, 751320, Note_on_c, 1, 81, 81
2, 751860, Note_off_c, 1, 81, 0
2, 751920, Note_on_c, 1, 79, 71
2, 752000, Note_off_c, 1, 79, 0
2, 752000, Note_on_c, 1, 77, 70
2, 752080, Note_on_c, 1, 76, 70
2, 752084, Note_off_c, 1, 77, 0
2, 752150, Note_off_c, 1, 76, 0
2, 752160, Note_on_c, 1, 74, 69
2, 752340, Note_off_c, 1, 74, 0
2, 752400, Note_on_c, 1, 74, 67
2, 752592, Note_off_c, 1, 74, 0
2, 752640, Note_on_c, 1, 74, 65
2, 752832, Note_off_c, 1, 74, 0
2, 752880, Note_on_c, 1, 74, 63
2, 753072, Note_off_c, 1, 74, 0
2, 753120, Note_on_c, 1, 73, 61
2, 753360, Note_off_c, 1, 73, 0
2, 753600, Note_on_c, 1, 74, 58
2, 753840, Note_off_c, 1, 74, 0
2, 754080, Note_on_c, 1, 76, 54
2, 754320, Note_off_c, 1, 76, 0
2, 755160, Note_on_c, 1, 82, 83
2, 755760, Note_on_c, 1, 81, 73
2, 755774, Note_off_c, 1, 82, 0
2, 755840, Note_off_c, 1, 81, 0
2, 755840, Note_on_c, 1, 79, 72
2, 755920, Note_on_c, 1, 77, 72
2, 755924, Note_off_c, 1, 79, 0
2, 755990, Note_off_c, 1, 77, 0
2, 756000, Note_on_c, 1, 76, 71
2, 756192, Note_off_c, 1, 76, 0
2, 756240, Note_on_c, 1, 76, 69
2, 756432, Note_off_c, 1, 76, 0
2, 756480, Note_on_c, 1, 76, 68
2, 756672, Note_off_c, 1, 76, 0
2, 756720, Note_on_c, 1, 76, 66
2, 756912, Note_off_c, 1, 76, 0
2, 756960, Note_on_c, 1, 74, 64
2, 757200, Note_off_c, 1, 74, 0
2, 757440, Note_on_c, 1, 76, 60
2, 757680, Note_off_c, 1, 76, 0
2, 757920, Note_on_c, 1, 77, 57
2, 758160, Note_off_c, 1, 77, 0
2, 758880, Note_on_c, 1, 75, 78
2, 759120, Note_off_c, 1, 75, 0
2, 759120, Note_on_c, 1, 77, 70
2, 759180, Note_on_c, 1, 75, 71
2, 759194, Note_off_c, 1, 77, 0
2, 759240, Note_off_c, 1, 75, 0
2, 759240, Note_on_c, 1, 74, 72
2, 759300, Note_off_c, 1, 74, 0
2, 759300, Note_on_c, 1, 75, 73
2, 759360, Note_off_c, 1, 75, 0
2, 759360, Note_on_c, 1, 79, 74
2, 759494, Note_off_c, 1, 79, 0
2, 759600, Note_on_c, 1, 73, 70
2, 759726, Note_off_c, 1, 73, 0
2, 759840, Note_on_c, 1, 76, 67
2, 760080, Note_off_c, 1, 76, 0
2, 760080, Note_on_c, 1, 74, 67
2, 760506, Note_off_c, 1, 74, 0
2, 760560, Note_on_c, 1, 77, 57
2, 760754, Note_off_c, 1, 77, 0
2, 760800, Note_on_c, 1, 75, 82
2, 760920, Note_off_c, 1, 75, 0
2, 760920, Note_on_c, 1, 77, 79
2, 761040, Note_off_c, 1, 77, 0
2, 761040, Note_on_c, 1, 79, 78
2, 761160, Note_off_c, 1, 79, 0
2, 761160, Note_on_c, 1, 81, 76
2, 761280, Note_off_c, 1, 81, 0
2, 761280, Note_on_c, 1, 82, 74
2, 761400, Note_off_c, 1, 82, 0
2, 761400, Note_on_c, 1, 79, 73
2, 761520, Note_off_c, 1, 79, 0
2, 761520, Note_on_c, 1, 76, 71
2, 761640, Note_off_c, 1, 76, 0
2, 761640, Note_on_c, 1, 73, 70
2, 761736, Note_off_c, 1, 73, 0
2, 761760, Note_on_c, 1, 74, 68
2, 762000, Note_off_c, 1, 74, 0
2, 762000, Note_on_c, 1, 86, 68
2, 762434, Note_off_c, 1, 86, 0
2, 762480, Note_on_c, 1, 77, 59
2, 762906, Note_off_c, 1, 77, 0
2, 762960, Note_on_c, 1, 76, 57
2, 763440, Note_off_c, 1, 76, 0
2, 763440, Note_on_c, 1, 82, 62
2, 763920, Note_on_c, 1, 81, 60
2, 763934, Note_off_c, 1, 82, 0
2, 764400, Note_off_c, 1, 81, 0
2, 764400, Note_on_c, 1, 73, 62
2, 764580, Note_off_c, 1, 73, 0
2, 764640, Note_on_c, 1, 73, 65
2, 765840, Note_off_c, 1, 73, 0
2, 765840, Note_on_c, 1, 74, 48
2, 765900, Note_off_c, 1, 74, 0
2, 765900, Note_on_c, 1, 73, 49
2, 765960, Note_off_c, 1, 73, 0
2, 765960, Note_on_c, 1, 71, 51
2, 766020, Note_off_c, 1, 71, 0
2, 766020, Note_on_c, 1, 73, 52
2, 766080, Note_off_c, 1, 73, 0
2, 766080, Note_on_c, 1, 76, 54
2, 766440, Note_off_c, 1, 76, 0
2, 766440, Note_on_c, 1, 74, 50
2, 766536, Note_off_c, 1, 74, 0
2, 766560, Note_on_c, 1, 74, 46
2, 766800, Note_off_c, 1, 74, 0
2, 766800, Note_on_c, 1, 76, 44
2, 766860, Note_off_c, 1, 76, 0
2, 766860, Note_on_c, 1, 74, 46
2, 766920, Note_off_c, 1, 74, 0
2, 766920, Note_on_c, 1, 73, 47
2, 766980, Note_off_c, 1, 73, 0
2, 766980, Note_on_c, 1, 76, 49
2, 767040, Note_off_c, 1, 76, 0
2, 767040, Note_on_c, 1, 77, 51
2, 767400, Note_off_c, 1, 77, 0
2, 767400, Note_on_c, 1, 75, 51
2, 767504, Note_off_c, 1, 75, 0
2, 767520, Note_on_c, 1, 75, 52
2, 767760, Note_off_c, 1, 75, 0
2, 767760, Note_on_c, 1, 77, 50
2, 767820, Note_off_c, 1, 77, 0
2, 767820, Note_on_c, 1, 75, 51
2, 767880, Note_off_c, 1, 75, 0
2, 767880, Note_on_c, 1, 74, 53
2, 767940, Note_off_c, 1, 74, 0
2, 767940, Note_on_c, 1, 75, 54
2, 768000, Note_off_c, 1, 75, 0
2, 768000, Note_on_c, 1, 79, 55
2, 768360, Note_off_c, 1, 79, 0
2, 768360, Note_on_c, 1, 77, 58
2, 768450, Note_off_c, 1, 77, 0
2, 768480, Note_on_c, 1, 77, 62
2, 769680, Note_off_c, 1, 77, 0
2, 769680, Note_on_c, 1, 82, 64
2, 769920, Note_off_c, 1, 82, 0
2, 769920, Note_on_c, 1, 77, 65
2, 770160, Note_off_c, 1, 77, 0
2, 770160, Note_on_c, 1, 74, 66
2, 770354, Note_off_c, 1, 74, 0
2, 770400, Note_on_c, 1, 75, 69
2, 770520, Note_off_c, 1, 75, 0
2, 770520, Note_on_c, 1, 77, 65
2, 770640, Note_off_c, 1, 77, 0
2, 770640, Note_on_c, 1, 79, 63
2, 770760, Note_off_c, 1, 79, 0
2, 770760, Note_on_c, 1, 77, 62
2, 770880, Note_off_c, 1, 77, 0
2, 770880, Note_on_c, 1, 75, 61
2, 771000, Note_off_c, 1, 75, 0
2, 771000, Note_on_c, 1, 74, 60
2, 771120, Note_off_c, 1, 74, 0
2, 771120, Note_on_c, 1, 72, 58
2, 771240, Note_off_c, 1, 72, 0
2, 771240, Note_on_c, 1, 70, 57
2, 771360, Note_off_c, 1, 70, 0
2, 771360, Note_on_c, 1, 69, 56
2, 771786, Note_off_c, 1, 69, 0
2, 772320, Note_on_c, 1, 70, 44
2, 772560, Note_off_c, 1, 70, 0
2, 772560, Note_on_c, 1, 72, 45
2, 772680, Note_off_c, 1, 72, 0
2, 772680, Note_on_c, 1, 74, 46
2, 772800, Note_off_c, 1, 74, 0
2, 772800, Note_on_c, 1, 75, 47
2, 772920, Note_off_c, 1, 75, 0
2, 772920, Note_on_c, 1, 77, 47
2, 773040, Note_off_c, 1, 77, 0
2, 773040, Note_on_c, 1, 79, 48
2, 773160, Note_off_c, 1, 79, 0
2, 773160, Note_on_c, 1, 81, 49
2, 773280, Note_off_c, 1, 81, 0
2, 773280, Note_on_c, 1, 82, 49
2, 773400, Note_off_c, 1, 82, 0
2, 773400, Note_on_c, 1, 84, 50
2, 773520, Note_off_c, 1, 84, 0
2, 773520, Note_on_c, 1, 86, 51
2, 773640, Note_off_c, 1, 86, 0
2, 773640, Note_on_c, 1, 81, 52
2, 773760, Note_off_c, 1, 81, 0
2, 773760, Note_on_c, 1, 82, 52
2, 773880, Note_off_c, 1, 82, 0
2, 773880, Note_on_c, 1, 77, 53
2, 774000, Note_off_c, 1, 77, 0
2, 774000, Note_on_c, 1, 79, 54
2, 774120, Note_off_c, 1, 79, 0
2, 774120, Note_on_c, 1, 74, 54
2, 774216, Note_off_c, 1, 74, 0
2, 774240, Note_on_c, 1, 75, 57
2, 774360, Note_off_c, 1, 75, 0
2, 774360, Note_on_c, 1, 77, 55
2, 774480, Note_off_c, 1, 77, 0
2, 774480, Note_on_c, 1, 79, 54
2, 774600, Note_off_c, 1, 79, 0
2, 774600, Note_on_c, 1, 77, 53
2, 774720, Note_off_c, 1, 77, 0
2, 774720, Note_on_c, 1, 75, 51
2, 774840, Note_off_c, 1, 75, 0
2, 774840, Note_on_c, 1, 74, 50
2, 774960, Note_off_c, 1, 74, 0
2, 774960, Note_on_c, 1, 72, 49
2, 775080, Note_off_c, 1, 72, 0
2, 775080, Note_on_c, 1, 70, 48
2, 775200, Note_off_c, 1, 70, 0
2, 775200, Note_on_c, 1, 69, 47
2, 775626, Note_off_c, 1, 69, 0
2, 776160, Note_on_c, 1, 70, 64
2, 776400, Note_off_c, 1, 70, 0
2, 776400, Note_on_c, 1, 72, 66
2, 776520, Note_off_c, 1, 72, 0
2, 776520, Note_on_c, 1, 74, 66
2, 776640, Note_off_c, 1, 74, 0
2, 776640, Note_on_c, 1, 75, 67
2, 776760, Note_off_c, 1, 75, 0
2, 776760, Note_on_c, 1, 77, 68
2, 776880, Note_off_c, 1, 77, 0
2, 776880, Note_on_c, 1, 79, 68
2, 777000, Note_off_c, 1, 79, 0
2, 777000, Note_on_c, 1, 81, 69
2, 777120, Note_off_c, 1, 81, 0
2, 777120, Note_on_c, 1, 82, 70
2, 777360, Note_off_c, 1, 82, 0
2, 777360, Note_on_c, 1, 84, 71
2, 777600, Note_off_c, 1, 84, 0
2, 777600, Note_on_c, 1, 86, 72
2, 777734, Note_off_c, 1, 86, 0
2, 777840, Note_on_c, 1, 86, 74
2, 777960, Note_off_c, 1, 86, 0
2, 778080, Note_on_c, 1, 86, 80
2, 779040, Note_off_c, 1, 86, 0
2, 779040, Note_on_c, 1, 78, 68
2, 779460, Note_off_c, 1, 78, 0
2, 780000, Note_on_c, 1, 67, 67
2, 780240, Note_off_c, 1, 67, 0
2, 780240, Note_on_c, 1, 69, 68
2, 780360, Note_off_c, 1, 69, 0
2, 780360, Note_on_c, 1, 70, 69
2, 780480, Note_off_c, 1, 70, 0
2, 780480, Note_on_c, 1, 72, 70
2, 780600, Note_off_c, 1, 72, 0
2, 780600, Note_on_c, 1, 74, 71
2, 780720, Note_off_c, 1, 74, 0
2, 780720, Note_on_c, 1, 76, 72
2, 780840, Note_off_c, 1, 76, 0
2, 780840, Note_on_c, 1, 78, 73
2, 780960, Note_off_c, 1, 78, 0
2, 780960, Note_on_c, 1, 79, 74
2, 781080, Note_off_c, 1, 79, 0
2, 781080, Note_on_c, 1, 81, 74
2, 781200, Note_off_c, 1, 81, 0
2, 781200, Note_on_c, 1, 82, 75
2, 781320, Note_off_c, 1, 82, 0
2, 781320, Note_on_c, 1, 84, 76
2, 781440, Note_off_c, 1, 84, 0
2, 781440, Note_on_c, 1, 86, 77
2, 781566, Note_off_c, 1, 86, 0
2, 781680, Note_on_c, 1, 86, 79
2, 781806, Note_off_c, 1, 86, 0
2, 781920, Note_on_c, 1, 84, 84
2, 782880, Note_off_c, 1, 84, 0
2, 782880, Note_on_c, 1, 76, 69
2, 783314, Note_off_c, 1, 76, 0
2, 783840, Note_on_c, 1, 65, 70
2, 784080, Note_off_c, 1, 65, 0
2, 784080, Note_on_c, 1, 67, 71
2, 784200, Note_off_c, 1, 67, 0
2, 784200, Note_on_c, 1, 68, 71
2, 784320, Note_off_c, 1, 68, 0
2, 784320, Note_on_c, 1, 70, 72
2, 784440, Note_off_c, 1, 70, 0
2, 784440, Note_on_c, 1, 72, 72
2, 784560, Note_off_c, 1, 72, 0
2, 784560, Note_on_c, 1, 74, 73
2, 784680, Note_off_c, 1, 74, 0
2, 784680, Note_on_c, 1, 76, 73
2, 784800, Note_off_c, 1, 76, 0
2, 784800, Note_on_c, 1, 77, 74
2, 784920, Note_off_c, 1, 77, 0
2, 784920, Note_on_c, 1, 79, 74
2, 785040, Note_off_c, 1, 79, 0
2, 785040, Note_on_c, 1, 80, 75
2, 785160, Note_off_c, 1, 80, 0
2, 785160, Note_on_c, 1, 82, 75
2, 785280, Note_off_c, 1, 82, 0
2, 785280, Note_on_c, 1, 84, 76
2, 785406, Note_off_c, 1, 84, 0
2, 785520, Note_on_c, 1, 84, 76
2, 785646, Note_off_c, 1, 84, 0
2, 785760, Note_on_c, 1, 84, 77
2, 786120, Note_off_c, 1, 84, 0
2, 786120, Note_on_c, 1, 77, 79
2, 786216, Note_off_c, 1, 77, 0
2, 786240, Note_on_c, 1, 89, 82
2, 787200, Note_off_c, 1, 89, 0
2, 787200, Note_on_c, 1, 87, 83
2, 787440, Note_off_c, 1, 87, 0
2, 787440, Note_on_c, 1, 85, 84
2, 787634, Note_off_c, 1, 85, 0
2, 787680, Note_on_c, 1, 84, 86
2, 787920, Note_off_c, 1, 84, 0
2, 787920, Note_on_c, 1, 83, 83
2, 788160, Note_off_c, 1, 83, 0
2, 788160, Note_on_c, 1, 80, 80
2, 788880, Note_off_c, 1, 80, 0
2, 788880, Note_on_c, 1, 79, 70
2, 789000, Note_off_c, 1, 79, 0
2, 789000, Note_on_c, 1, 80, 68
2, 789120, Note_off_c, 1, 80, 0
2, 789120, Note_on_c, 1, 82, 66
2, 789240, Note_off_c, 1, 82, 0
2, 789240, Note_on_c, 1, 80, 64
2, 789360, Note_off_c, 1, 80, 0
2, 789360, Note_on_c, 1, 79, 63
2, 789480, Note_off_c, 1, 79, 0
2, 789480, Note_on_c, 1, 77, 61
2, 789576, Note_off_c, 1, 77, 0
2, 789600, Note_on_c, 1, 76, 59
2, 789840, Note_off_c, 1, 76, 0
2, 789840, Note_on_c, 1, 84, 61
2, 789960, Note_off_c, 1, 84, 0
2, 790080, Note_on_c, 1, 84, 64
2, 790200, Note_off_c, 1, 84, 0
2, 790320, Note_on_c, 1, 84, 67
2, 790440, Note_off_c, 1, 84, 0
2, 790560, Note_on_c, 1, 84, 71
2, 790680, Note_off_c, 1, 84, 0
2, 790800, Note_on_c, 1, 89, 77
2, 791040, Note_off_c, 1, 89, 0
2, 791040, Note_on_c, 1, 86, 73
2, 791280, Note_off_c, 1, 86, 0
2, 791280, Note_on_c, 1, 83, 69
2, 791520, Note_off_c, 1, 83, 0
2, 791520, Note_on_c, 1, 84, 66
2, 791654, Note_off_c, 1, 84, 0
2, 791760, Note_on_c, 1, 77, 72
2, 792000, Note_off_c, 1, 77, 0
2, 792000, Note_on_c, 1, 74, 68
2, 792240, Note_off_c, 1, 74, 0
2, 792240, Note_on_c, 1, 71, 65
2, 792480, Note_off_c, 1, 71, 0
2, 792480, Note_on_c, 1, 72, 62
2, 792660, Note_off_c, 1, 72, 0
2, 792720, Note_on_c, 1, 89, 68
2, 792960, Note_off_c, 1, 89, 0
2, 792960, Note_on_c, 1, 86, 65
2, 793200, Note_off_c, 1, 86, 0
2, 793200, Note_on_c, 1, 83, 61
2, 793440, Note_off_c, 1, 83, 0
2, 793440, Note_on_c, 1, 84, 57
2, 793566, Note_off_c, 1, 84, 0
2, 793680, Note_on_c, 1, 88, 63
2, 793920, Note_off_c, 1, 88, 0
2, 793920, Note_on_c, 1, 84, 60
2, 794160, Note_off_c, 1, 84, 0
2, 794160, Note_on_c, 1, 81, 57
2, 794400, Note_on_c, 1, 82, 53
2, 794406, Note_off_c, 1, 81, 0
2, 794526, Note_off_c, 1, 82, 0
2, 794640, Note_on_c, 1, 86, 59
2, 794880, Note_off_c, 1, 86, 0
2, 794880, Note_on_c, 1, 82, 55
2, 795120, Note_off_c, 1, 82, 0
2, 795120, Note_on_c, 1, 80, 52
2, 795360, Note_off_c, 1, 80, 0
2, 795360, Note_on_c, 1, 81, 48
2, 795486, Note_off_c, 1, 81, 0
2, 795600, Note_on_c, 1, 86, 52
2, 795720, Note_off_c, 1, 86, 0
2, 795720, Note_on_c, 1, 84, 51
2, 795840, Note_off_c, 1, 84, 0
2, 795840, Note_on_c, 1, 82, 49
2, 795960, Note_off_c, 1, 82, 0
2, 795960, Note_on_c, 1, 81, 48
2, 796080, Note_off_c, 1, 81, 0
2, 796080, Note_on_c, 1, 79, 46
2, 796200, Note_off_c, 1, 79, 0
2, 796200, Note_on_c, 1, 78, 44
2, 796320, Note_off_c, 1, 78, 0
2, 796320, Note_on_c, 1, 79, 43
2, 796454, Note_off_c, 1, 79, 0
2, 796560, Note_on_c, 1, 84, 49
2, 796680, Note_on_c, 1, 82, 47
2, 796686, Note_off_c, 1, 84, 0
2, 796800, Note_off_c, 1, 82, 0
2, 796800, Note_on_c, 1, 81, 46
2, 796920, Note_off_c, 1, 81, 0
2, 796920, Note_on_c, 1, 79, 45
2, 797040, Note_off_c, 1, 79, 0
2, 797040, Note_on_c, 1, 77, 43
2, 797160, Note_off_c, 1, 77, 0
2, 797160, Note_on_c, 1, 76, 42
2, 797256, Note_off_c, 1, 76, 0
2, 797280, Note_on_c, 1, 77, 44
2, 798000, Note_off_c, 1, 77, 0
2, 798000, Note_on_c, 1, 79, 38
2, 798060, Note_off_c, 1, 79, 0
2, 798060, Note_on_c, 1, 77, 40
2, 798120, Note_off_c, 1, 77, 0
2, 798120, Note_on_c, 1, 76, 42
2, 798180, Note_off_c, 1, 76, 0
2, 798180, Note_on_c, 1, 77, 44
2, 798240, Note_off_c, 1, 77, 0
2, 798240, Note_on_c, 1, 81, 46
2, 799146, Note_off_c, 1, 81, 0
2, 799200, Note_on_c, 1, 81, 51
2, 799440, Note_off_c, 1, 81, 0
2, 799440, Note_on_c, 1, 79, 46
2, 799620, Note_off_c, 1, 79, 0
2, 799680, Note_on_c, 1, 79, 48
2, 799920, Note_off_c, 1, 79, 0
2, 799920, Note_on_c, 1, 76, 44
2, 800106, Note_off_c, 1, 76, 0
2, 800160, Note_on_c, 1, 77, 46
2, 800880, Note_off_c, 1, 77, 0
2, 800880, Note_on_c, 1, 81, 52
2, 801306, Note_off_c, 1, 81, 0
2, 801360, Note_on_c, 1, 79, 52
2, 801840, Note_off_c, 1, 79, 0
2, 801840, Note_on_c, 1, 76, 48
2, 802320, Note_off_c, 1, 76, 0
2, 802320, Note_on_c, 1, 77, 50
2, 802800, Note_off_c, 1, 77, 0
2, 802800, Note_on_c, 1, 81, 55
2, 802986, Note_off_c, 1, 81, 0
2, 803040, Note_on_c, 1, 84, 58
2, 803280, Note_off_c, 1, 84, 0
2, 803280, Note_on_c, 1, 82, 52
2, 803474, Note_off_c, 1, 82, 0
2, 803760, Note_on_c, 1, 79, 46
2, 803886, Note_off_c, 1, 79, 0
2, 804000, Note_on_c, 1, 82, 50
2, 804240, Note_off_c, 1, 82, 0
2, 804240, Note_on_c, 1, 81, 46
2, 804420, Note_off_c, 1, 81, 0
2, 804720, Note_on_c, 1, 77, 42
2, 804854, Note_off_c, 1, 77, 0
2, 804960, Note_on_c, 1, 73, 44
2, 805200, Note_off_c, 1, 73, 0
2, 805200, Note_on_c, 1, 74, 46
2, 805440, Note_off_c, 1, 74, 0
2, 805440, Note_on_c, 1, 75, 47
2, 805680, Note_off_c, 1, 75, 0
2, 805680, Note_on_c, 1, 76, 49
2, 805920, Note_off_c, 1, 76, 0
2, 805920, Note_on_c, 1, 77, 50
2, 806160, Note_off_c, 1, 77, 0
2, 806160, Note_on_c, 1, 78, 52
2, 806400, Note_off_c, 1, 78, 0
2, 806400, Note_on_c, 1, 81, 53
2, 806640, Note_off_c, 1, 81, 0
2, 806640, Note_on_c, 1, 79, 55
2, 806834, Note_off_c, 1, 79, 0
2, 806880, Note_on_c, 1, 79, 52
2, 807360, Note_off_c, 1, 79, 0
2, 807360, Note_on_c, 1, 72, 45
2, 807914, Note_off_c, 1, 72, 0
2, 807960, Note_on_c, 1, 72, 45
2, 808080, Note_off_c, 1, 72, 0
2, 808080, Note_on_c, 1, 71, 46
2, 808200, Note_off_c, 1, 71, 0
2, 808200, Note_on_c, 1, 72, 46
2, 808320, Note_off_c, 1, 72, 0
2, 808320, Note_on_c, 1, 73, 47
2, 808440, Note_off_c, 1, 73, 0
2, 808440, Note_on_c, 1, 74, 48
2, 808560, Note_off_c, 1, 74, 0
2, 808560, Note_on_c, 1, 75, 49
2, 808680, Note_off_c, 1, 75, 0
2, 808680, Note_on_c, 1, 76, 50
2, 808776, Note_off_c, 1, 76, 0
2, 808800, Note_on_c, 1, 77, 50
2, 809520, Note_on_c, 1, 79, 47
2, 809526, Note_off_c, 1, 77, 0
2, 809580, Note_on_c, 1, 77, 48
2, 809602, Note_off_c, 1, 79, 0
2, 809640, Note_off_c, 1, 77, 0
2, 809640, Note_on_c, 1, 76, 49
2, 809700, Note_off_c, 1, 76, 0
2, 809700, Note_on_c, 1, 77, 50
2, 809760, Note_off_c, 1, 77, 0
2, 809760, Note_on_c, 1, 81, 51
2, 810666, Note_off_c, 1, 81, 0
2, 810720, Note_on_c, 1, 79, 59
2, 810960, Note_off_c, 1, 79, 0
2, 810960, Note_on_c, 1, 81, 56
2, 811200, Note_off_c, 1, 81, 0
2, 811200, Note_on_c, 1, 82, 54
2, 811440, Note_off_c, 1, 82, 0
2, 811440, Note_on_c, 1, 76, 51
2, 811634, Note_off_c, 1, 76, 0
2, 811680, Note_on_c, 1, 77, 53
2, 812400, Note_off_c, 1, 77, 0
2, 812400, Note_on_c, 1, 81, 58
2, 812586, Note_off_c, 1, 81, 0
2, 812640, Note_on_c, 1, 78, 63
2, 812760, Note_off_c, 1, 78, 0
2, 812760, Note_on_c, 1, 79, 63
2, 812880, Note_off_c, 1, 79, 0
2, 812880, Note_on_c, 1, 80, 62
2, 813000, Note_off_c, 1, 80, 0
2, 813000, Note_on_c, 1, 81, 61
2, 813120, Note_off_c, 1, 81, 0
2, 813120, Note_on_c, 1, 82, 61
2, 813254, Note_off_c, 1, 82, 0
2, 813360, Note_on_c, 1, 76, 59
2, 813486, Note_off_c, 1, 76, 0
2, 813600, Note_on_c, 1, 77, 58
2, 813840, Note_off_c, 1, 77, 0
2, 813840, Note_on_c, 1, 81, 60
2, 814320, Note_off_c, 1, 81, 0
2, 814320, Note_on_c, 1, 84, 70
2, 814800, Note_off_c, 1, 84, 0
2, 814800, Note_on_c, 1, 82, 67
2, 815280, Note_off_c, 1, 82, 0
2, 815280, Note_on_c, 1, 79, 64
2, 815760, Note_off_c, 1, 79, 0
2, 815760, Note_on_c, 1, 81, 61
2, 816232, Note_off_c, 1, 81, 0
2, 816240, Note_on_c, 1, 77, 58
2, 816426, Note_off_c, 1, 77, 0
2, 816480, Note_on_c, 1, 74, 56
2, 816780, Note_off_c, 1, 74, 0
2, 816780, Note_on_c, 1, 76, 52
2, 816840, Note_off_c, 1, 76, 0
2, 816840, Note_on_c, 1, 74, 53
2, 816900, Note_off_c, 1, 74, 0
2, 816900, Note_on_c, 1, 73, 54
2, 816960, Note_off_c, 1, 73, 0
2, 816960, Note_on_c, 1, 74, 55
2, 817154, Note_off_c, 1, 74, 0
2, 817200, Note_on_c, 1, 79, 56
2, 817440, Note_on_c, 1, 72, 57
2, 817680, Note_off_c, 1, 79, 0
2, 817680, Note_on_c, 1, 77, 58
2, 817920, Note_on_c, 1, 70, 59
2, 817926, Note_off_c, 1, 72, 0
2, 818160, Note_off_c, 1, 77, 0
2, 818160, Note_on_c, 1, 76, 60
2, 818340, Note_off_c, 1, 70, 0
2, 818354, Note_off_c, 1, 76, 0
2, 818400, Note_on_c, 1, 76, 66
2, 819360, Note_off_c, 1, 76, 0
2, 819360, Note_on_c, 1, 77, 51
2, 819780, Note_off_c, 1, 77, 0
2, 820320, Control_c, 1, 64, 0
2, 820320, Note_on_c, 1, 72, 58
2, 821280, Note_off_c, 1, 72, 0
2, 821280, Note_on_c, 1, 73, 63
2, 822480, Note_off_c, 1, 73, 0
2, 822480, Note_on_c, 1, 77, 67
2, 822720, Note_on_c, 1, 75, 66
2, 822734, Note_off_c, 1, 77, 0
2, 822960, Note_off_c, 1, 75, 0
2, 822960, Note_on_c, 1, 73, 66
2, 823200, Note_off_c, 1, 73, 0
2, 823200, Note_on_c, 1, 72, 65
2, 824400, Note_on_c, 1, 75, 62
2, 824460, Note_off_c, 1, 72, 0
2, 824640, Note_on_c, 1, 73, 62
2, 824654, Note_off_c, 1, 75, 0
2, 824880, Note_off_c, 1, 73, 0
2, 824880, Note_on_c, 1, 72, 61
2, 825120, Note_off_c, 1, 72, 0
2, 825120, Note_on_c, 1, 70, 61
2, 826320, Note_on_c, 1, 73, 58
2, 826380, Note_off_c, 1, 70, 0
2, 826560, Note_off_c, 1, 73, 0
2, 826560, Note_on_c, 1, 72, 57
2, 826800, Note_off_c, 1, 72, 0
2, 826800, Note_on_c, 1, 70, 57
2, 827040, Note_on_c, 1, 68, 56
2, 827046, Note_off_c, 1, 70, 0
2, 827234, Note_off_c, 1, 68, 0
2, 827280, Note_on_c, 1, 70, 51
2, 827360, Note_on_c, 1, 68, 52
2, 827362, Note_off_c, 1, 70, 0
2, 827440, Note_on_c, 1, 67, 54
2, 827444, Note_off_c, 1, 68, 0
2, 827520, Note_on_c, 1, 68, 55
2, 827526, Note_off_c, 1, 67, 0
2, 827654, Note_off_c, 1, 68, 0
2, 827760, Note_on_c, 1, 70, 54
2, 827886, Note_off_c, 1, 70, 0
2, 828000, Note_on_c, 1, 72, 56
2, 828186, Note_off_c, 1, 72, 0
2, 828240, Note_on_c, 1, 73, 54
2, 828320, Note_on_c, 1, 72, 55
2, 828322, Note_off_c, 1, 73, 0
2, 828396, Note_off_c, 1, 72, 0
2, 828400, Note_on_c, 1, 70, 57
2, 828480, Note_on_c, 1, 72, 59
2, 828486, Note_off_c, 1, 70, 0
2, 828614, Note_off_c, 1, 72, 0
2, 828720, Note_on_c, 1, 73, 60
2, 828846, Note_off_c, 1, 73, 0
2, 828960, Note_on_c, 1, 75, 60
2, 829116, Note_off_c, 1, 75, 0
2, 829200, Note_on_c, 1, 75, 63
2, 829356, Note_off_c, 1, 75, 0
2, 829440, Note_on_c, 1, 75, 65
2, 829596, Note_off_c, 1, 75, 0
2, 829680, Note_on_c, 1, 75, 67
2, 829836, Note_off_c, 1, 75, 0
2, 829920, Note_on_c, 1, 75, 69
2, 830160, Note_off_c, 1, 75, 0
2, 830160, Note_on_c, 1, 77, 67
2, 830346, Note_off_c, 1, 77, 0
2, 830400, Note_on_c, 1, 73, 74
2, 831360, Note_off_c, 1, 73, 0
2, 831360, Note_on_c, 1, 72, 62
2, 831780, Note_off_c, 1, 72, 0
2, 831840, Note_on_c, 1, 70, 62
2, 832080, Note_off_c, 1, 70, 0
2, 832080, Note_on_c, 1, 72, 52
2, 832160, Note_on_c, 1, 70, 54
2, 832162, Note_off_c, 1, 72, 0
2, 832240, Note_on_c, 1, 69, 56
2, 832244, Note_off_c, 1, 70, 0
2, 832320, Note_on_c, 1, 70, 58
2, 832326, Note_off_c, 1, 69, 0
2, 832560, Note_on_c, 1, 72, 55
2, 832574, Note_off_c, 1, 70, 0
2, 832680, Note_off_c, 1, 72, 0
2, 832680, Note_on_c, 1, 73, 54
2, 832800, Note_off_c, 1, 73, 0
2, 832800, Note_on_c, 1, 68, 52
2, 833046, Note_off_c, 1, 68, 0
2, 833280, Note_on_c, 1, 67, 48
2, 833526, Note_off_c, 1, 67, 0
2, 833760, Note_on_c, 1, 70, 48
2, 834720, Note_on_c, 1, 68, 32
2, 834726, Note_off_c, 1, 70, 0
2, 835146, Note_off_c, 1, 68, 0
2, 835680, Control_c, 1, 64, 0
2, 835680, Note_on_c, 1, 72, 58
2, 836640, Note_off_c, 1, 72, 0
2, 836640, Note_on_c, 1, 73, 63
2, 837840, Note_off_c, 1, 73, 0
2, 837840, Note_on_c, 1, 77, 67
2, 838080, Note_on_c, 1, 75, 66
2, 838094, Note_off_c, 1, 77, 0
2, 838320, Note_off_c, 1, 75, 0
2, 838320, Note_on_c, 1, 73, 66
2, 838560, Note_off_c, 1, 73, 0
2, 838560, Note_on_c, 1, 72, 65
2, 839760, Note_on_c, 1, 75, 62
2, 839820, Note_off_c, 1, 72, 0
2, 840000, Note_on_c, 1, 73, 62
2, 840014, Note_off_c, 1, 75, 0
2, 840240, Note_off_c, 1, 73, 0
2, 840240, Note_on_c, 1, 72, 61
2, 840480, Note_off_c, 1, 72, 0
2, 840480, Note_on_c, 1, 70, 61
2, 841680, Note_on_c, 1, 73, 58
2, 841740, Note_off_c, 1, 70, 0
2, 841920, Note_off_c, 1, 73, 0
2, 841920, Note_on_c, 1, 72, 57
2, 842160, Note_off_c, 1, 72, 0
2, 842160, Note_on_c, 1, 70, 57
2, 842400, Note_on_c, 1, 68, 56
2, 842406, Note_off_c, 1, 70, 0
2, 842594, Note_off_c, 1, 68, 0
2, 842640, Note_on_c, 1, 70, 51
2, 842720, Note_on_c, 1, 68, 52
2, 842722, Note_off_c, 1, 70, 0
2, 842800, Note_on_c, 1, 67, 54
2, 842804, Note_off_c, 1, 68, 0
2, 842880, Note_on_c, 1, 68, 55
2, 842886, Note_off_c, 1, 67, 0
2, 843014, Note_off_c, 1, 68, 0
2, 843120, Note_on_c, 1, 70, 54
2, 843246, Note_off_c, 1, 70, 0
2, 843360, Note_on_c, 1, 72, 56
2, 843546, Note_off_c, 1, 72, 0
2, 843600, Note_on_c, 1, 73, 54
2, 843680, Note_on_c, 1, 72, 55
2, 843682, Note_off_c, 1, 73, 0
2, 843756, Note_off_c, 1, 72, 0
2, 843760, Note_on_c, 1, 70, 57
2, 843840, Note_on_c, 1, 72, 59
2, 843846, Note_off_c, 1, 70, 0
2, 843974, Note_off_c, 1, 72, 0
2, 844080, Note_on_c, 1, 73, 60
2, 844206, Note_off_c, 1, 73, 0
2, 844320, Note_on_c, 1, 75, 60
2, 844476, Note_off_c, 1, 75, 0
2, 844560, Note_on_c, 1, 75, 63
2, 844716, Note_off_c, 1, 75, 0
2, 844800, Note_on_c, 1, 75, 65
2, 844956, Note_off_c, 1, 75, 0
2, 845040, Note_on_c, 1, 75, 67
2, 845196, Note_off_c, 1, 75, 0
2, 845280, Note_on_c, 1, 75, 69
2, 845520, Note_off_c, 1, 75, 0
2, 845520, Note_on_c, 1, 77, 67
2, 845706, Note_off_c, 1, 77, 0
2, 845760, Note_on_c, 1, 73, 74
2, 846720, Note_off_c, 1, 73, 0
2, 846720, Note_on_c, 1, 72, 62
2, 847140, Note_off_c, 1, 72, 0
2, 847200, Note_on_c, 1, 70, 62
2, 847440, Note_off_c, 1, 70, 0
2, 847440, Note_on_c, 1, 72, 52
2, 847520, Note_on_c, 1, 70, 54
2, 847522, Note_off_c, 1, 72, 0
2, 847600, Note_on_c, 1, 69, 56
2, 847604, Note_off_c, 1, 70, 0
2, 847680, Note_on_c, 1, 70, 58
2, 847686, Note_off_c, 1, 69, 0
2, 847920, Note_on_c, 1, 72, 55
2, 847934, Note_off_c, 1, 70, 0
2, 848040, Note_off_c, 1, 72, 0
2, 848040, Note_on_c, 1, 73, 54
2, 848160, Note_off_c, 1, 73, 0
2, 848160, Note_on_c, 1, 68, 52
2, 848406, Note_off_c, 1, 68, 0
2, 848640, Note_on_c, 1, 67, 48
2, 848886, Note_off_c, 1, 67, 0
2, 849120, Note_on_c, 1, 70, 48
2, 850080, Note_on_c, 1, 68, 32
2, 850086, Note_off_c, 1, 70, 0
2, 850506, Note_off_c, 1, 68, 0
2, 851040, Control_c, 1, 64, 0
2, 851040, Note_on_c, 1, 72, 42
2, 852000, Note_off_c, 1, 72, 0
2, 852000, Note_on_c, 1, 73, 46
2, 852906, Note_off_c, 1, 73, 0
2, 852960, Note_on_c, 1, 72, 51
2, 853200, Note_on_c, 1, 78, 52
2, 853260, Note_off_c, 1, 72, 0
2, 853440, Note_on_c, 1, 77, 53
2, 853454, Note_off_c, 1, 78, 0
2, 853680, Note_off_c, 1, 77, 0
2, 853680, Note_on_c, 1, 75, 54
2, 853920, Note_on_c, 1, 73, 55
2, 853926, Note_off_c, 1, 75, 0
2, 854340, Note_off_c, 1, 73, 0
2, 854880, Note_on_c, 1, 70, 49
2, 855840, Note_off_c, 1, 70, 0
2, 855840, Note_on_c, 1, 71, 53
2, 856746, Note_off_c, 1, 71, 0
2, 856800, Note_on_c, 1, 70, 58
2, 857040, Note_on_c, 1, 77, 59
2, 857100, Note_off_c, 1, 70, 0
2, 857280, Note_off_c, 1, 77, 0
2, 857280, Note_on_c, 1, 75, 61
2, 857520, Note_on_c, 1, 73, 62
2, 857526, Note_off_c, 1, 75, 0
2, 857760, Note_off_c, 1, 73, 0
2, 857760, Note_on_c, 1, 72, 66
2, 858186, Note_off_c, 1, 72, 0
2, 858480, Note_on_c, 1, 72, 58
2, 858652, Note_off_c, 1, 72, 0
2, 858720, Note_on_c, 1, 72, 62
2, 858960, Note_off_c, 1, 72, 0
2, 858960, Note_on_c, 1, 71, 56
2, 859146, Note_off_c, 1, 71, 0
2, 859440, Note_on_c, 1, 70, 51
2, 859620, Note_off_c, 1, 70, 0
2, 859680, Note_on_c, 1, 70, 59
2, 859920, Note_off_c, 1, 70, 0
2, 859920, Note_on_c, 1, 69, 55
2, 860114, Note_off_c, 1, 69, 0
2, 860400, Note_on_c, 1, 68, 50
2, 860580, Note_off_c, 1, 68, 0
2, 860640, Note_on_c, 1, 68, 53
2, 860880, Note_on_c, 1, 70, 51
2, 860886, Note_off_c, 1, 68, 0
2, 861120, Note_off_c, 1, 70, 0
2, 861120, Note_on_c, 1, 71, 48
2, 861360, Note_off_c, 1, 71, 0
2, 861360, Note_on_c, 1, 72, 46
2, 861600, Note_off_c, 1, 72, 0
2, 861600, Note_on_c, 1, 67, 45
2, 862026, Note_off_c, 1, 67, 0
2, 863040, Note_on_c, 1, 76, 62
2, 864000, Note_off_c, 1, 76, 0
2, 864000, Note_on_c, 1, 77, 66
2, 864480, Note_on_c, 1, 70, 69
2, 864486, Note_off_c, 1, 77, 0
2, 864960, Note_off_c, 1, 70, 0
2, 864960, Note_on_c, 1, 72, 68
2, 865200, Note_off_c, 1, 72, 0
2, 865200, Note_on_c, 1, 73, 67
2, 865440, Note_on_c, 1, 75, 66
2, 865446, Note_off_c, 1, 73, 0
2, 866400, Note_on_c, 1, 68, 64
2, 866406, Note_off_c, 1, 75, 0
2, 866880, Note_on_c, 1, 70, 62
2, 866886, Note_off_c, 1, 68, 0
2, 867120, Note_off_c, 1, 70, 0
2, 867120, Note_on_c, 1, 72, 61
2, 867360, Note_off_c, 1, 72, 0
2, 867360, Note_on_c, 1, 73, 61
2, 868320, Note_off_c, 1, 73, 0
2, 868320, Note_on_c, 1, 67, 58
2, 868800, Note_off_c, 1, 67, 0
2, 868800, Note_on_c, 1, 68, 59
2, 869040, Note_off_c, 1, 68, 0
2, 869040, Note_on_c, 1, 70, 60
2, 869226, Note_off_c, 1, 70, 0
2, 869280, Note_on_c, 1, 72, 60
2, 869520, Note_on_c, 1, 79, 56
2, 869526, Note_off_c, 1, 72, 0
2, 869580, Note_on_c, 1, 77, 58
2, 869602, Note_off_c, 1, 79, 0
2, 869662, Note_off_c, 1, 77, 0
2, 869680, Note_on_c, 1, 76, 61
2, 869760, Note_on_c, 1, 77, 64
2, 869766, Note_off_c, 1, 76, 0
2, 869894, Note_off_c, 1, 77, 0
2, 870000, Note_on_c, 1, 79, 62
2, 870134, Note_off_c, 1, 79, 0
2, 870240, Note_on_c, 1, 80, 64
2, 870480, Note_off_c, 1, 80, 0
2, 870480, Note_on_c, 1, 71, 66
2, 870606, Note_off_c, 1, 71, 0
2, 870720, Note_on_c, 1, 71, 68
2, 870846, Note_off_c, 1, 71, 0
2, 870960, Note_on_c, 1, 71, 70
2, 871080, Note_off_c, 1, 71, 0
2, 871200, Note_on_c, 1, 80, 72
2, 871440, Note_off_c, 1, 80, 0
2, 871440, Note_on_c, 1, 71, 75
2, 871566, Note_off_c, 1, 71, 0
2, 871680, Note_on_c, 1, 71, 77
2, 871806, Note_off_c, 1, 71, 0
2, 871920, Note_on_c, 1, 71, 79
2, 872040, Note_off_c, 1, 71, 0
2, 872160, Note_on_c, 1, 72, 81
2, 872400, Note_off_c, 1, 72, 0
2, 872400, Note_on_c, 1, 73, 76
2, 872586, Note_off_c, 1, 73, 0
2, 872640, Note_on_c, 1, 70, 84
2, 873600, Note_off_c, 1, 70, 0
2, 873600, Note_on_c, 1, 68, 69
2, 874026, Note_off_c, 1, 68, 0
2, 874080, Note_on_c, 1, 67, 64
2, 874320, Note_off_c, 1, 67, 0
2, 874320, Note_on_c, 1, 73, 61
2, 874514, Note_off_c, 1, 73, 0
2, 874560, Note_on_c, 1, 72, 59
2, 874680, Note_off_c, 1, 72, 0
2, 874680, Note_on_c, 1, 70, 57
2, 874800, Note_off_c, 1, 70, 0
2, 874800, Note_on_c, 1, 68, 56
2, 874920, Note_off_c, 1, 68, 0
2, 874920, Note_on_c, 1, 67, 54
2, 875040, Note_off_c, 1, 67, 0
2, 875040, Note_on_c, 1, 65, 53
2, 875294, Note_off_c, 1, 65, 0
2, 875520, Note_on_c, 1, 64, 48
2, 875774, Note_off_c, 1, 64, 0
2, 876000, Note_on_c, 1, 67, 52
2, 876960, Note_off_c, 1, 67, 0
2, 876960, Note_on_c, 1, 65, 34
2, 877380, Note_off_c, 1, 65, 0
2, 877920, Control_c, 1, 64, 0
2, 877920, Note_on_c, 1, 72, 42
2, 878880, Note_off_c, 1, 72, 0
2, 878880, Note_on_c, 1, 73, 46
2, 879786, Note_off_c, 1, 73, 0
2, 879840, Note_on_c, 1, 72, 51
2, 880080, Note_on_c, 1, 78, 52
2, 880140, Note_off_c, 1, 72, 0
2, 880320, Note_on_c, 1, 77, 53
2, 880334, Note_off_c, 1, 78, 0
2, 880560, Note_off_c, 1, 77, 0
2, 880560, Note_on_c, 1, 75, 54
2, 880800, Note_on_c, 1, 73, 55
2, 880806, Note_off_c, 1, 75, 0
2, 881220, Note_off_c, 1, 73, 0
2, 881760, Note_on_c, 1, 70, 49
2, 882720, Note_off_c, 1, 70, 0
2, 882720, Note_on_c, 1, 71, 53
2, 883626, Note_off_c, 1, 71, 0
2, 883680, Note_on_c, 1, 70, 58
2, 883920, Note_on_c, 1, 77, 59
2, 883980, Note_off_c, 1, 70, 0
2, 884160, Note_off_c, 1, 77, 0
2, 884160, Note_on_c, 1, 75, 61
2, 884400, Note_on_c, 1, 73, 62
2, 884406, Note_off_c, 1, 75, 0
2, 884640, Note_off_c, 1, 73, 0
2, 884640, Note_on_c, 1, 72, 66
2, 885066, Note_off_c, 1, 72, 0
2, 885360, Note_on_c, 1, 72, 58
2, 885532, Note_off_c, 1, 72, 0
2, 885600, Note_on_c, 1, 72, 62
2, 885840, Note_off_c, 1, 72, 0
2, 885840, Note_on_c, 1, 71, 56
2, 886026, Note_off_c, 1, 71, 0
2, 886320, Note_on_c, 1, 70, 51
2, 886500, Note_off_c, 1, 70, 0
2, 886560, Note_on_c, 1, 70, 59
2, 886800, Note_off_c, 1, 70, 0
2, 886800, Note_on_c, 1, 69, 55
2, 886994, Note_off_c, 1, 69, 0
2, 887280, Note_on_c, 1, 68, 50
2, 887460, Note_off_c, 1, 68, 0
2, 887520, Note_on_c, 1, 68, 53
2, 887760, Note_on_c, 1, 70, 51
2, 887766, Note_off_c, 1, 68, 0
2, 888000, Note_off_c, 1, 70, 0
2, 888000, Note_on_c, 1, 71, 48
2, 888240, Note_off_c, 1, 71, 0
2, 888240, Note_on_c, 1, 72, 46
2, 888480, Note_off_c, 1, 72, 0
2, 888480, Note_on_c, 1, 67, 45
2, 888906, Note_off_c, 1, 67, 0
2, 889920, Note_on_c, 1, 76, 62
2, 890880, Note_off_c, 1, 76, 0
2, 890880, Note_on_c, 1, 77, 66
2, 891360, Note_on_c, 1, 70, 69
2, 891366, Note_off_c, 1, 77, 0
2, 891840, Note_off_c, 1, 70, 0
2, 891840, Note_on_c, 1, 72, 68
2, 892080, Note_off_c, 1, 72, 0
2, 892080, Note_on_c, 1, 73, 67
2, 892320, Note_on_c, 1, 75, 66
2, 892326, Note_off_c, 1, 73, 0
2, 893280, Note_on_c, 1, 68, 64
2, 893286, Note_off_c, 1, 75, 0
2, 893760, Note_on_c, 1, 70, 62
2, 893766, Note_off_c, 1, 68, 0
2, 894000, Note_off_c, 1, 70, 0
2, 894000, Note_on_c, 1, 72, 61
2, 894240, Note_off_c, 1, 72, 0
2, 894240, Note_on_c, 1, 73, 61
2, 895200, Note_off_c, 1, 73, 0
2, 895200, Note_on_c, 1, 67, 58
2, 895680, Note_off_c, 1, 67, 0
2, 895680, Note_on_c, 1, 68, 59
2, 895920, Note_off_c, 1, 68, 0
2, 895920, Note_on_c, 1, 70, 60
2, 896106, Note_off_c, 1, 70, 0
2, 896160, Note_on_c, 1, 72, 60
2, 896400, Note_on_c, 1, 79, 56
2, 896406, Note_off_c, 1, 72, 0
2, 896460, Note_on_c, 1, 77, 58
2, 896482, Note_off_c, 1, 79, 0
2, 896542, Note_off_c, 1, 77, 0
2, 896560, Note_on_c, 1, 76, 61
2, 896640, Note_on_c, 1, 77, 64
2, 896646, Note_off_c, 1, 76, 0
2, 896774, Note_off_c, 1, 77, 0
2, 896880, Note_on_c, 1, 79, 62
2, 897014, Note_off_c, 1, 79, 0
2, 897120, Note_on_c, 1, 80, 64
2, 897360, Note_off_c, 1, 80, 0
2, 897360, Note_on_c, 1, 71, 66
2, 897486, Note_off_c, 1, 71, 0
2, 897600, Note_on_c, 1, 71, 68
2, 897726, Note_off_c, 1, 71, 0
2, 897840, Note_on_c, 1, 71, 70
2, 897960, Note_off_c, 1, 71, 0
2, 898080, Note_on_c, 1, 80, 72
2, 898320, Note_off_c, 1, 80, 0
2, 898320, Note_on_c, 1, 71, 75
2, 898446, Note_off_c, 1, 71, 0
2, 898560, Note_on_c, 1, 71, 77
2, 898686, Note_off_c, 1, 71, 0
2, 898800, Note_on_c, 1, 71, 79
2, 898920, Note_off_c, 1, 71, 0
2, 899040, Note_on_c, 1, 72, 81
2, 899280, Note_off_c, 1, 72, 0
2, 899280, Note_on_c, 1, 73, 76
2, 899466, Note_off_c, 1, 73, 0
2, 899520, Note_on_c, 1, 70, 84
2, 900480, Note_off_c, 1, 70, 0
2, 900480, Note_on_c, 1, 68, 69
2, 900906, Note_off_c, 1, 68, 0
2, 900960, Note_on_c, 1, 67, 64
2, 901200, Note_off_c, 1, 67, 0
2, 901200, Note_on_c, 1, 73, 61
2, 901394, Note_off_c, 1, 73, 0
2, 901440, Note_on_c, 1, 72, 59
2, 901560, Note_off_c, 1, 72, 0
2, 901560, Note_on_c, 1, 70, 57
2, 901680, Note_off_c, 1, 70, 0
2, 901680, Note_on_c, 1, 68, 56
2, 901800, Note_off_c, 1, 68, 0
2, 901800, Note_on_c, 1, 67, 54
2, 901920, Note_off_c, 1, 67, 0
2, 901920, Note_on_c, 1, 65, 53
2, 902174, Note_off_c, 1, 65, 0
2, 902400, Note_on_c, 1, 64, 48
2, 902654, Note_off_c, 1, 64, 0
2, 902880, Control_c, 1, 64, 0
2, 902880, Note_on_c, 1, 64, 48
2, 904080, Note_on_c, 1, 65, 25
2, 904094, Note_off_c, 1, 64, 0
2, 904140, Note_off_c, 1, 65, 0
2, 904140, Note_on_c, 1, 64, 27
2, 904200, Note_off_c, 1, 64, 0
2, 904200, Note_on_c, 1, 62, 29
2, 904260, Note_off_c, 1, 62, 0
2, 904260, Note_on_c, 1, 64, 31
2, 904320, Note_off_c, 1, 64, 0
2, 904320, Note_on_c, 1, 67, 33
2, 904560, Note_off_c, 1, 67, 0
2, 904560, Note_on_c, 1, 65, 32
2, 904680, Note_off_c, 1, 65, 0
2, 904800, Note_on_c, 1, 65, 33
2, 905040, Note_off_c, 1, 65, 0
2, 905040, Note_on_c, 1, 67, 31
2, 905100, Note_off_c, 1, 67, 0
2, 905100, Note_on_c, 1, 65, 33
2, 905160, Note_off_c, 1, 65, 0
2, 905160, Note_on_c, 1, 64, 34
2, 905220, Note_off_c, 1, 64, 0
2, 905220, Note_on_c, 1, 65, 36
2, 905280, Note_on_c, 1, 69, 37
2, 905294, Note_off_c, 1, 65, 0
2, 905520, Note_on_c, 1, 67, 37
2, 905526, Note_off_c, 1, 69, 0
2, 905640, Note_off_c, 1, 67, 0
2, 905760, Note_on_c, 1, 67, 38
2, 906000, Note_off_c, 1, 67, 0
2, 906000, Note_on_c, 1, 69, 37
2, 906060, Note_off_c, 1, 69, 0
2, 906060, Note_on_c, 1, 67, 38
2, 906120, Note_off_c, 1, 67, 0
2, 906120, Note_on_c, 1, 66, 39
2, 906180, Note_off_c, 1, 66, 0
2, 906180, Note_on_c, 1, 67, 40
2, 906240, Note_off_c, 1, 67, 0
2, 906240, Note_on_c, 1, 70, 41
2, 906480, Note_off_c, 1, 70, 0
2, 906480, Note_on_c, 1, 69, 42
2, 906600, Note_off_c, 1, 69, 0
2, 906720, Note_on_c, 1, 69, 43
2, 906840, Note_off_c, 1, 69, 0
2, 906880, Note_on_c, 1, 65, 38
2, 906996, Note_off_c, 1, 65, 0
2, 907020, Note_on_c, 1, 67, 39
2, 907140, Note_off_c, 1, 67, 0
2, 907200, Note_on_c, 1, 69, 40
2, 907320, Note_off_c, 1, 69, 0
2, 907360, Note_on_c, 1, 70, 41
2, 907492, Note_off_c, 1, 70, 0
2, 907520, Note_on_c, 1, 72, 42
2, 907662, Note_off_c, 1, 72, 0
2, 907680, Note_on_c, 1, 70, 43
2, 907806, Note_off_c, 1, 70, 0
2, 907840, Note_on_c, 1, 67, 44
2, 907960, Note_off_c, 1, 67, 0
2, 907980, Note_on_c, 1, 69, 45
2, 908114, Note_off_c, 1, 69, 0
2, 908160, Note_on_c, 1, 70, 46
2, 908280, Note_off_c, 1, 70, 0
2, 908320, Note_on_c, 1, 72, 47
2, 908452, Note_off_c, 1, 72, 0
2, 908480, Note_on_c, 1, 74, 48
2, 908616, Note_off_c, 1, 74, 0
2, 908640, Note_on_c, 1, 72, 49
2, 908774, Note_off_c, 1, 72, 0
2, 908820, Note_on_c, 1, 65, 38
2, 908940, Note_off_c, 1, 65, 0
2, 908960, Note_on_c, 1, 67, 39
2, 909082, Note_off_c, 1, 67, 0
2, 909120, Note_on_c, 1, 68, 41
2, 909262, Note_off_c, 1, 68, 0
2, 909300, Note_on_c, 1, 69, 42
2, 909420, Note_off_c, 1, 69, 0
2, 909440, Note_on_c, 1, 70, 43
2, 909570, Note_off_c, 1, 70, 0
2, 909600, Note_on_c, 1, 71, 45
2, 909742, Note_off_c, 1, 71, 0
2, 909760, Note_on_c, 1, 72, 46
2, 909880, Note_off_c, 1, 72, 0
2, 909920, Note_on_c, 1, 73, 47
2, 910050, Note_off_c, 1, 73, 0
2, 910080, Note_on_c, 1, 74, 49
2, 910222, Note_off_c, 1, 74, 0
2, 910260, Note_on_c, 1, 75, 50
2, 910380, Note_off_c, 1, 75, 0
2, 910400, Note_on_c, 1, 76, 51
2, 910514, Note_off_c, 1, 76, 0
2, 910560, Note_on_c, 1, 77, 47
2, 911280, Note_off_c, 1, 77, 0
2, 911280, Note_on_c, 1, 79, 43
2, 911340, Note_off_c, 1, 79, 0
2, 911340, Note_on_c, 1, 77, 44
2, 911400, Note_off_c, 1, 77, 0
2, 911400, Note_on_c, 1, 76, 45
2, 911460, Note_off_c, 1, 76, 0
2, 911460, Note_on_c, 1, 77, 47
2, 911520, Note_off_c, 1, 77, 0
2, 911520, Note_on_c, 1, 81, 48
2, 912420, Note_off_c, 1, 81, 0
2, 912480, Note_on_c, 1, 81, 55
2, 912720, Note_off_c, 1, 81, 0
2, 912720, Note_on_c, 1, 79, 50
2, 912900, Note_off_c, 1, 79, 0
2, 912960, Note_on_c, 1, 79, 51
2, 913200, Note_on_c, 1, 76, 47
2, 913206, Note_off_c, 1, 79, 0
2, 913380, Note_off_c, 1, 76, 0
2, 913440, Note_on_c, 1, 77, 48
2, 913680, Note_off_c, 1, 77, 0
2, 913680, Note_on_c, 1, 79, 45
2, 913760, Note_on_c, 1, 77, 48
2, 913776, Note_off_c, 1, 79, 0
2, 913840, Note_on_c, 1, 76, 50
2, 913844, Note_off_c, 1, 77, 0
2, 913920, Note_on_c, 1, 77, 53
2, 913934, Note_off_c, 1, 76, 0
2, 914106, Note_off_c, 1, 77, 0
2, 914160, Note_on_c, 1, 81, 55
2, 914286, Note_off_c, 1, 81, 0
2, 914400, Note_on_c, 1, 78, 59
2, 914640, Note_off_c, 1, 78, 0
2, 914640, Note_on_c, 1, 79, 57
2, 914880, Note_off_c, 1, 79, 0
2, 914880, Note_on_c, 1, 82, 54
2, 915066, Note_off_c, 1, 82, 0
2, 915120, Note_on_c, 1, 76, 52
2, 915254, Note_off_c, 1, 76, 0
2, 915360, Note_on_c, 1, 79, 52
2, 915600, Note_off_c, 1, 79, 0
2, 915600, Note_on_c, 1, 77, 55
2, 916080, Note_off_c, 1, 77, 0
2, 916080, Note_on_c, 1, 81, 59
2, 916260, Note_off_c, 1, 81, 0
2, 916560, Note_on_c, 1, 84, 60
2, 916680, Note_off_c, 1, 84, 0
2, 916680, Note_on_c, 1, 82, 59
2, 916800, Note_off_c, 1, 82, 0
2, 917040, Note_on_c, 1, 81, 54
2, 917160, Note_off_c, 1, 81, 0
2, 917160, Note_on_c, 1, 79, 52
2, 917264, Note_off_c, 1, 79, 0
2, 917520, Note_on_c, 1, 82, 55
2, 917640, Note_on_c, 1, 81, 53
2, 917646, Note_off_c, 1, 82, 0
2, 917736, Note_off_c, 1, 81, 0
2, 918000, Note_on_c, 1, 79, 50
2, 918120, Note_off_c, 1, 79, 0
2, 918120, Note_on_c, 1, 77, 49
2, 918210, Note_off_c, 1, 77, 0
2, 918240, Note_on_c, 1, 74, 48
2, 918480, Note_on_c, 1, 76, 47
2, 918486, Note_off_c, 1, 74, 0
2, 918560, Note_on_c, 1, 74, 49
2, 918562, Note_off_c, 1, 76, 0
2, 918640, Note_on_c, 1, 73, 51
2, 918644, Note_off_c, 1, 74, 0
2, 918720, Note_off_c, 1, 73, 0
2, 918720, Note_on_c, 1, 74, 52
2, 918854, Note_off_c, 1, 74, 0
2, 918960, Note_on_c, 1, 76, 54
2, 919102, Note_off_c, 1, 76, 0
2, 919200, Note_on_c, 1, 77, 56
2, 919440, Note_off_c, 1, 77, 0
2, 919440, Note_on_c, 1, 78, 58
2, 919680, Note_off_c, 1, 78, 0
2, 919680, Note_on_c, 1, 81, 59
2, 919920, Note_off_c, 1, 81, 0
2, 919920, Note_on_c, 1, 79, 61
2, 920100, Note_off_c, 1, 79, 0
2, 920160, Note_on_c, 1, 79, 62
2, 920640, Note_off_c, 1, 79, 0
2, 920640, Note_on_c, 1, 72, 52
2, 921240, Note_on_c, 1, 73, 48
2, 921246, Note_off_c, 1, 72, 0
2, 921360, Note_off_c, 1, 73, 0
2, 921360, Note_on_c, 1, 74, 49
2, 921480, Note_off_c, 1, 74, 0
2, 921480, Note_on_c, 1, 72, 50
2, 921600, Note_off_c, 1, 72, 0
2, 921600, Note_on_c, 1, 72, 51
2, 921720, Note_off_c, 1, 72, 0
2, 921720, Note_on_c, 1, 70, 52
2, 921840, Note_off_c, 1, 70, 0
2, 921840, Note_on_c, 1, 69, 53
2, 921960, Note_off_c, 1, 69, 0
2, 921960, Note_on_c, 1, 67, 54
2, 922080, Note_off_c, 1, 67, 0
2, 922080, Note_on_c, 1, 65, 54
2, 922320, Note_off_c, 1, 65, 0
2, 922320, Note_on_c, 1, 67, 54
2, 922440, Note_on_c, 1, 69, 54
2, 922454, Note_off_c, 1, 67, 0
2, 922560, Note_on_c, 1, 70, 55
2, 922574, Note_off_c, 1, 69, 0
2, 922680, Note_on_c, 1, 72, 55
2, 922686, Note_off_c, 1, 70, 0
2, 922800, Note_on_c, 1, 74, 55
2, 922814, Note_off_c, 1, 72, 0
2, 922920, Note_off_c, 1, 74, 0
2, 922920, Note_on_c, 1, 76, 55
2, 923040, Note_off_c, 1, 76, 0
2, 923040, Note_on_c, 1, 77, 56
2, 923160, Note_off_c, 1, 77, 0
2, 923160, Note_on_c, 1, 79, 56
2, 923280, Note_off_c, 1, 79, 0
2, 923280, Note_on_c, 1, 81, 56
2, 923400, Note_off_c, 1, 81, 0
2, 923400, Note_on_c, 1, 82, 56
2, 923520, Note_off_c, 1, 82, 0
2, 923520, Note_on_c, 1, 84, 57
2, 923654, Note_off_c, 1, 84, 0
2, 923760, Note_on_c, 1, 81, 57
2, 923886, Note_off_c, 1, 81, 0
2, 924000, Note_on_c, 1, 79, 58
2, 924120, Note_on_c, 1, 81, 58
2, 924134, Note_off_c, 1, 79, 0
2, 924240, Note_off_c, 1, 81, 0
2, 924240, Note_on_c, 1, 82, 58
2, 924360, Note_on_c, 1, 79, 58
2, 924366, Note_off_c, 1, 82, 0
2, 924480, Note_off_c, 1, 79, 0
2, 924480, Note_on_c, 1, 76, 59
2, 924600, Note_off_c, 1, 76, 0
2, 924600, Note_on_c, 1, 77, 59
2, 924720, Note_off_c, 1, 77, 0
2, 924720, Note_on_c, 1, 79, 59
2, 924840, Note_off_c, 1, 79, 0
2, 924840, Note_on_c, 1, 76, 59
2, 924960, Note_off_c, 1, 76, 0
2, 924960, Note_on_c, 1, 77, 59
2, 925056, Note_off_c, 1, 77, 0
2, 925080, Note_on_c, 1, 84, 60
2, 925200, Note_on_c, 1, 83, 60
2, 925206, Note_off_c, 1, 84, 0
2, 925320, Note_off_c, 1, 83, 0
2, 925320, Note_on_c, 1, 84, 60
2, 925416, Note_off_c, 1, 84, 0
2, 925440, Note_on_c, 1, 86, 60
2, 925560, Note_off_c, 1, 86, 0
2, 925560, Note_on_c, 1, 84, 61
2, 925680, Note_off_c, 1, 84, 0
2, 925680, Note_on_c, 1, 82, 61
2, 925800, Note_off_c, 1, 82, 0
2, 925800, Note_on_c, 1, 81, 61
2, 925896, Note_off_c, 1, 81, 0
2, 925920, Note_on_c, 1, 79, 61
2, 926040, Note_off_c, 1, 79, 0
2, 926040, Note_on_c, 1, 81, 62
2, 926160, Note_off_c, 1, 81, 0
2, 926160, Note_on_c, 1, 82, 62
2, 926280, Note_off_c, 1, 82, 0
2, 926280, Note_on_c, 1, 79, 62
2, 926400, Note_off_c, 1, 79, 0
2, 926400, Note_on_c, 1, 76, 62
2, 926520, Note_off_c, 1, 76, 0
2, 926520, Note_on_c, 1, 77, 63
2, 926640, Note_off_c, 1, 77, 0
2, 926640, Note_on_c, 1, 79, 63
2, 926760, Note_off_c, 1, 79, 0
2, 926760, Note_on_c, 1, 76, 63
2, 926856, Note_off_c, 1, 76, 0
2, 926880, Note_on_c, 1, 77, 63
2, 927120, Note_off_c, 1, 77, 0
2, 927120, Note_on_c, 1, 81, 64
2, 927600, Note_off_c, 1, 81, 0
2, 927600, Note_on_c, 1, 84, 65
2, 928080, Note_off_c, 1, 84, 0
2, 928080, Note_on_c, 1, 83, 66
2, 928560, Note_off_c, 1, 83, 0
2, 928560, Note_on_c, 1, 82, 64
2, 929040, Note_off_c, 1, 82, 0
2, 929040, Note_on_c, 1, 80, 63
2, 929520, Note_off_c, 1, 80, 0
2, 929520, Note_on_c, 1, 81, 61
2, 929722, Note_off_c, 1, 81, 0
2, 929880, Note_on_c, 1, 67, 61
2, 930000, Note_on_c, 1, 69, 62
2, 930014, Note_off_c, 1, 67, 0
2, 930120, Note_off_c, 1, 69, 0
2, 930120, Note_on_c, 1, 70, 62
2, 930240, Note_off_c, 1, 70, 0
2, 930240, Note_on_c, 1, 72, 63
2, 930360, Note_off_c, 1, 72, 0
2, 930360, Note_on_c, 1, 74, 64
2, 930480, Note_off_c, 1, 74, 0
2, 930480, Note_on_c, 1, 76, 64
2, 930600, Note_off_c, 1, 76, 0
2, 930600, Note_on_c, 1, 78, 65
2, 930720, Note_off_c, 1, 78, 0
2, 930720, Note_on_c, 1, 79, 66
2, 930840, Note_off_c, 1, 79, 0
2, 930840, Note_on_c, 1, 81, 66
2, 930960, Note_off_c, 1, 81, 0
2, 930960, Note_on_c, 1, 82, 67
2, 931080, Note_off_c, 1, 82, 0
2, 931080, Note_on_c, 1, 84, 67
2, 931200, Note_off_c, 1, 84, 0
2, 931200, Note_on_c, 1, 86, 68
2, 931326, Note_off_c, 1, 86, 0
2, 931440, Note_on_c, 1, 76, 69
2, 931574, Note_off_c, 1, 76, 0
2, 931680, Note_on_c, 1, 79, 72
2, 932400, Note_on_c, 1, 81, 64
2, 932406, Note_off_c, 1, 79, 0
2, 932520, Note_off_c, 1, 81, 0
2, 932520, Note_on_c, 1, 79, 63
2, 932640, Note_off_c, 1, 79, 0
2, 932640, Note_on_c, 1, 77, 61
2, 932774, Note_off_c, 1, 77, 0
2, 932800, Note_on_c, 1, 76, 58
2, 932912, Note_off_c, 1, 76, 0
2, 932940, Note_on_c, 1, 75, 56
2, 933082, Note_off_c, 1, 75, 0
2, 933120, Note_on_c, 1, 74, 53
2, 933240, Note_off_c, 1, 74, 0
2, 933280, Note_on_c, 1, 73, 50
2, 933390, Note_off_c, 1, 73, 0
2, 933440, Note_on_c, 1, 72, 47
2, 933562, Note_off_c, 1, 72, 0
2, 933600, Note_on_c, 1, 70, 46
2, 934560, Note_on_c, 1, 69, 48
2, 934566, Note_off_c, 1, 70, 0
2, 935520, Note_off_c, 1, 69, 0
2, 935520, Note_on_c, 1, 67, 51
2, 935662, Note_off_c, 1, 67, 0
2, 935700, Note_on_c, 1, 69, 52
2, 935820, Note_off_c, 1, 69, 0
2, 935840, Note_on_c, 1, 70, 53
2, 935970, Note_off_c, 1, 70, 0
2, 936000, Note_on_c, 1, 72, 53
2, 936134, Note_off_c, 1, 72, 0
2, 936180, Note_on_c, 1, 74, 54
2, 936300, Note_off_c, 1, 74, 0
2, 936320, Note_on_c, 1, 76, 55
2, 936442, Note_off_c, 1, 76, 0
2, 936480, Note_on_c, 1, 77, 57
2, 936906, Note_off_c, 1, 77, 0
2, 937200, Note_on_c, 1, 77, 49
2, 937386, Note_off_c, 1, 77, 0
2, 937440, Note_on_c, 1, 84, 53
2, 937680, Note_off_c, 1, 84, 0
2, 937680, Note_on_c, 1, 83, 48
2, 937860, Note_off_c, 1, 83, 0
2, 938160, Note_on_c, 1, 82, 51
2, 938286, Note_off_c, 1, 82, 0
2, 938400, Note_on_c, 1, 80, 58
2, 938640, Note_off_c, 1, 80, 0
2, 938640, Note_on_c, 1, 81, 53
2, 938820, Note_off_c, 1, 81, 0
2, 939120, Note_on_c, 1, 81, 56
2, 939246, Note_off_c, 1, 81, 0
2, 939360, Note_on_c, 1, 78, 57
2, 939480, Note_off_c, 1, 78, 0
2, 939480, Note_on_c, 1, 79, 58
2, 939600, Note_off_c, 1, 79, 0
2, 939600, Note_on_c, 1, 81, 59
2, 939720, Note_off_c, 1, 81, 0
2, 939720, Note_on_c, 1, 82, 59
2, 939840, Note_off_c, 1, 82, 0
2, 939840, Note_on_c, 1, 83, 60
2, 939960, Note_off_c, 1, 83, 0
2, 939960, Note_on_c, 1, 84, 61
2, 940080, Note_off_c, 1, 84, 0
2, 940080, Note_on_c, 1, 86, 61
2, 940200, Note_off_c, 1, 86, 0
2, 940200, Note_on_c, 1, 88, 62
2, 940320, Note_off_c, 1, 88, 0
2, 940320, Note_on_c, 1, 89, 67
2, 940740, Note_off_c, 1, 89, 0
2, 941280, Note_on_c, 1, 77, 50
2, 941640, Note_off_c, 1, 77, 0
2, 941640, Note_on_c, 1, 74, 57
2, 941752, Note_off_c, 1, 74, 0
2, 941760, Note_on_c, 1, 71, 61
2, 942720, Note_off_c, 1, 71, 0
2, 942720, Note_on_c, 1, 72, 50
2, 943140, Note_off_c, 1, 72, 0
2, 943200, Note_on_c, 1, 74, 49
2, 943560, Note_on_c, 1, 70, 58
2, 943566, Note_off_c, 1, 74, 0
2, 943664, Note_off_c, 1, 70, 0
2, 943680, Note_on_c, 1, 67, 61
2, 944640, Note_on_c, 1, 69, 49
2, 944654, Note_off_c, 1, 67, 0
2, 945066, Note_off_c, 1, 69, 0
2, 945120, Note_on_c, 1, 72, 46
2, 945180, Note_on_c, 1, 70, 43
2, 945202, Note_off_c, 1, 72, 0
2, 945240, Note_off_c, 1, 70, 0
2, 945240, Note_on_c, 1, 69, 44
2, 945300, Note_off_c, 1, 69, 0
2, 945300, Note_on_c, 1, 70, 46
2, 945360, Note_off_c, 1, 70, 0
2, 945360, Note_on_c, 1, 72, 48
2, 945480, Note_off_c, 1, 72, 0
2, 945480, Note_on_c, 1, 74, 48
2, 945600, Note_off_c, 1, 74, 0
2, 945600, Note_on_c, 1, 72, 49
2, 945720, Note_off_c, 1, 72, 0
2, 945720, Note_on_c, 1, 70, 49
2, 945840, Note_off_c, 1, 70, 0
2, 945840, Note_on_c, 1, 69, 50
2, 945960, Note_off_c, 1, 69, 0
2, 945960, Note_on_c, 1, 67, 51
2, 946064, Note_off_c, 1, 67, 0
2, 946080, Note_on_c, 1, 65, 52
2, 946320, Note_on_c, 1, 72, 53
2, 946380, Note_off_c, 1, 65, 0
2, 946506, Note_off_c, 1, 72, 0
2, 946560, Note_on_c, 1, 67, 54
2, 946800, Note_off_c, 1, 67, 0
2, 946800, Note_on_c, 1, 72, 56
2, 946986, Note_off_c, 1, 72, 0
2, 947040, Note_on_c, 1, 70, 60
2, 948000, Note_off_c, 1, 70, 0
2, 948000, Note_on_c, 1, 69, 48
2, 948120, Note_off_c, 1, 69, 0
2, 948120, Note_on_c, 1, 77, 49
2, 948198, Note_off_c, 1, 77, 0
2, 948240, Note_on_c, 1, 79, 50
2, 948318, Note_off_c, 1, 79, 0
2, 948360, Note_on_c, 1, 81, 51
2, 948438, Note_off_c, 1, 81, 0
2, 948480, Note_on_c, 1, 82, 52
2, 948558, Note_off_c, 1, 82, 0
2, 948600, Note_on_c, 1, 84, 53
2, 948678, Note_off_c, 1, 84, 0
2, 948720, Note_on_c, 1, 86, 54
2, 948798, Note_off_c, 1, 86, 0
2, 948840, Note_on_c, 1, 88, 55
2, 948918, Note_off_c, 1, 88, 0
2, 948960, Note_on_c, 1, 89, 56
2, 949080, Note_off_c, 1, 89, 0
2, 949080, Note_on_c, 1, 88, 57
2, 949200, Note_off_c, 1, 88, 0
2, 949200, Note_on_c, 1, 89, 58
2, 949320, Note_off_c, 1, 89, 0
2, 949320, Note_on_c, 1, 86, 59
2, 949416, Note_off_c, 1, 86, 0
2, 949440, Note_on_c, 1, 83, 65
2, 950400, Note_on_c, 1, 84, 55
2, 950406, Note_off_c, 1, 83, 0
2, 950640, Note_off_c, 1, 84, 0
2, 950640, Note_on_c, 1, 85, 54
2, 950834, Note_off_c, 1, 85, 0
2, 950880, Note_on_c, 1, 86, 57
2, 951000, Note_on_c, 1, 85, 59
2, 951006, Note_off_c, 1, 86, 0
2, 951120, Note_on_c, 1, 86, 61
2, 951126, Note_off_c, 1, 85, 0
2, 951240, Note_off_c, 1, 86, 0
2, 951240, Note_on_c, 1, 82, 62
2, 951336, Note_off_c, 1, 82, 0
2, 951360, Note_on_c, 1, 79, 67
2, 952080, Note_off_c, 1, 79, 0
2, 952080, Note_on_c, 1, 80, 60
2, 952320, Note_off_c, 1, 80, 0
2, 952320, Note_on_c, 1, 81, 54
2, 952440, Note_off_c, 1, 81, 0
2, 952440, Note_on_c, 1, 82, 55
2, 952560, Note_off_c, 1, 82, 0
2, 952560, Note_on_c, 1, 83, 56
2, 952680, Note_off_c, 1, 83, 0
2, 952680, Note_on_c, 1, 84, 56
2, 952776, Note_off_c, 1, 84, 0
2, 952800, Note_on_c, 1, 85, 57
2, 953040, Note_off_c, 1, 85, 0
2, 953040, Note_on_c, 1, 86, 59
2, 953220, Note_off_c, 1, 86, 0
2, 953280, Note_on_c, 1, 84, 60
2, 953400, Note_off_c, 1, 84, 0
2, 953400, Note_on_c, 1, 82, 61
2, 953520, Note_off_c, 1, 82, 0
2, 953520, Note_on_c, 1, 81, 62
2, 953640, Note_off_c, 1, 81, 0
2, 953640, Note_on_c, 1, 79, 62
2, 953744, Note_off_c, 1, 79, 0
2, 953760, Note_on_c, 1, 77, 63
2, 954000, Note_on_c, 1, 79, 61
2, 954006, Note_off_c, 1, 77, 0
2, 954060, Note_off_c, 1, 79, 0
2, 954060, Note_on_c, 1, 77, 63
2, 954120, Note_off_c, 1, 77, 0
2, 954120, Note_on_c, 1, 76, 65
2, 954180, Note_off_c, 1, 76, 0
2, 954180, Note_on_c, 1, 77, 67
2, 954240, Note_off_c, 1, 77, 0
2, 954240, Note_on_c, 1, 76, 69
2, 954240, Note_on_c, 1, 81, 69
2, 954480, Note_off_c, 1, 81, 0
2, 954480, Note_on_c, 1, 79, 70
2, 954666, Note_off_c, 1, 79, 0
2, 954674, Note_off_c, 1, 76, 0
2, 954720, Note_on_c, 1, 77, 73
2, 954840, Note_off_c, 1, 77, 0
2, 954840, Note_on_c, 1, 76, 72
2, 954960, Note_off_c, 1, 76, 0
2, 954960, Note_on_c, 1, 79, 72
2, 955080, Note_off_c, 1, 79, 0
2, 955080, Note_on_c, 1, 77, 71
2, 955200, Note_off_c, 1, 77, 0
2, 955200, Note_on_c, 1, 81, 71
2, 955320, Note_off_c, 1, 81, 0
2, 955320, Note_on_c, 1, 79, 70
2, 955440, Note_off_c, 1, 79, 0
2, 955440, Note_on_c, 1, 77, 69
2, 955560, Note_off_c, 1, 77, 0
2, 955560, Note_on_c, 1, 76, 69
2, 955680, Note_off_c, 1, 76, 0
2, 955680, Note_on_c, 1, 74, 68
2, 955800, Note_on_c, 1, 72, 68
2, 955860, Note_off_c, 1, 74, 0
2, 955920, Note_off_c, 1, 72, 0
2, 955920, Note_on_c, 1, 71, 67
2, 956040, Note_off_c, 1, 71, 0
2, 956040, Note_on_c, 1, 74, 66
2, 956160, Note_off_c, 1, 74, 0
2, 956160, Note_on_c, 1, 79, 66
2, 956280, Note_off_c, 1, 79, 0
2, 956280, Note_on_c, 1, 77, 65
2, 956400, Note_on_c, 1, 74, 64
2, 956406, Note_off_c, 1, 77, 0
2, 956520, Note_off_c, 1, 74, 0
2, 956520, Note_on_c, 1, 71, 64
2, 956616, Note_off_c, 1, 71, 0
2, 956640, Note_on_c, 1, 70, 63
2, 956760, Note_off_c, 1, 70, 0
2, 956760, Note_on_c, 1, 69, 63
2, 956880, Note_off_c, 1, 69, 0
2, 956880, Note_on_c, 1, 72, 62
2, 957000, Note_off_c, 1, 72, 0
2, 957000, Note_on_c, 1, 70, 61
2, 957120, Note_off_c, 1, 70, 0
2, 957120, Note_on_c, 1, 74, 61
2, 957240, Note_off_c, 1, 74, 0
2, 957240, Note_on_c, 1, 72, 60
2, 957360, Note_off_c, 1, 72, 0
2, 957360, Note_on_c, 1, 70, 60
2, 957480, Note_off_c, 1, 70, 0
2, 957480, Note_on_c, 1, 69, 59
2, 957600, Note_off_c, 1, 69, 0
2, 957600, Note_on_c, 1, 67, 58
2, 957720, Note_off_c, 1, 67, 0
2, 957720, Note_on_c, 1, 65, 58
2, 957840, Note_off_c, 1, 65, 0
2, 957840, Note_on_c, 1, 64, 57
2, 957960, Note_off_c, 1, 64, 0
2, 957960, Note_on_c, 1, 67, 56
2, 958080, Note_off_c, 1, 67, 0
2, 958080, Note_on_c, 1, 72, 56
2, 958200, Note_off_c, 1, 72, 0
2, 958200, Note_on_c, 1, 70, 55
2, 958320, Note_off_c, 1, 70, 0
2, 958320, Note_on_c, 1, 67, 55
2, 958440, Note_off_c, 1, 67, 0
2, 958440, Note_on_c, 1, 64, 54
2, 958536, Note_off_c, 1, 64, 0
2, 958800, Note_on_c, 1, 67, 51
2, 958860, Note_off_c, 1, 67, 0
2, 958860, Note_on_c, 1, 65, 52
2, 958920, Note_off_c, 1, 65, 0
2, 958920, Note_on_c, 1, 64, 53
2, 958980, Note_off_c, 1, 64, 0
2, 958980, Note_on_c, 1, 65, 55
2, 959040, Note_off_c, 1, 65, 0
2, 959040, Note_on_c, 1, 84, 56
2, 959174, Note_off_c, 1, 84, 0
2, 959280, Note_on_c, 1, 84, 58
2, 959400, Note_off_c, 1, 84, 0
2, 959760, Note_on_c, 1, 69, 55
2, 959820, Note_off_c, 1, 69, 0
2, 959820, Note_on_c, 1, 67, 57
2, 959880, Note_off_c, 1, 67, 0
2, 959880, Note_on_c, 1, 66, 59
2, 959940, Note_off_c, 1, 66, 0
2, 959940, Note_on_c, 1, 67, 61
2, 960000, Note_off_c, 1, 67, 0
2, 960000, Note_on_c, 1, 86, 63
2, 960126, Note_off_c, 1, 86, 0
2, 960240, Note_on_c, 1, 86, 63
2, 960360, Note_off_c, 1, 86, 0
2, 960480, Note_on_c, 1, 84, 64
2, 960900, Note_off_c, 1, 84, 0
2, 960960, Note_on_c, 1, 72, 70
2, 961680, Note_off_c, 1, 72, 0
2, 961680, Note_on_c, 1, 74, 63
2, 961740, Note_on_c, 1, 72, 65
2, 961762, Note_off_c, 1, 74, 0
2, 961800, Note_on_c, 1, 71, 66
2, 961822, Note_off_c, 1, 72, 0
2, 961860, Note_off_c, 1, 71, 0
2, 961860, Note_on_c, 1, 72, 67
2, 961920, Note_off_c, 1, 72, 0
2, 961920, Note_on_c, 1, 74, 68
2, 962160, Note_off_c, 1, 74, 0
2, 962160, Note_on_c, 1, 76, 73
2, 962346, Note_off_c, 1, 76, 0
2, 962400, Note_on_c, 1, 77, 79
2, 962520, Note_off_c, 1, 77, 0
2, 962520, Note_on_c, 1, 76, 79
2, 962640, Note_off_c, 1, 76, 0
2, 962640, Note_on_c, 1, 79, 78
2, 962760, Note_off_c, 1, 79, 0
2, 962760, Note_on_c, 1, 77, 78
2, 962880, Note_off_c, 1, 77, 0
2, 962880, Note_on_c, 1, 81, 78
2, 963000, Note_on_c, 1, 79, 78
2, 963006, Note_off_c, 1, 81, 0
2, 963120, Note_on_c, 1, 77, 77
2, 963126, Note_off_c, 1, 79, 0
2, 963240, Note_off_c, 1, 77, 0
2, 963240, Note_on_c, 1, 76, 77
2, 963360, Note_off_c, 1, 76, 0
2, 963360, Note_on_c, 1, 74, 77
2, 963480, Note_off_c, 1, 74, 0
2, 963480, Note_on_c, 1, 72, 76
2, 963600, Note_off_c, 1, 72, 0
2, 963600, Note_on_c, 1, 71, 76
2, 963720, Note_off_c, 1, 71, 0
2, 963720, Note_on_c, 1, 74, 76
2, 963840, Note_off_c, 1, 74, 0
2, 963840, Note_on_c, 1, 79, 75
2, 963960, Note_off_c, 1, 79, 0
2, 963960, Note_on_c, 1, 77, 75
2, 964080, Note_off_c, 1, 77, 0
2, 964080, Note_on_c, 1, 74, 75
2, 964200, Note_off_c, 1, 74, 0
2, 964200, Note_on_c, 1, 71, 74
2, 964296, Note_off_c, 1, 71, 0
2, 964320, Note_on_c, 1, 70, 74
2, 964440, Note_off_c, 1, 70, 0
2, 964440, Note_on_c, 1, 69, 74
2, 964560, Note_off_c, 1, 69, 0
2, 964560, Note_on_c, 1, 72, 73
2, 964680, Note_off_c, 1, 72, 0
2, 964680, Note_on_c, 1, 70, 73
2, 964800, Note_off_c, 1, 70, 0
2, 964800, Note_on_c, 1, 74, 73
2, 964920, Note_on_c, 1, 72, 72
2, 964934, Note_off_c, 1, 74, 0
2, 965040, Note_on_c, 1, 70, 72
2, 965054, Note_off_c, 1, 72, 0
2, 965160, Note_on_c, 1, 69, 72
2, 965174, Note_off_c, 1, 70, 0
2, 965280, Note_on_c, 1, 67, 71
2, 965294, Note_off_c, 1, 69, 0
2, 965400, Note_on_c, 1, 65, 71
2, 965406, Note_off_c, 1, 67, 0
2, 965520, Note_off_c, 1, 65, 0
2, 965520, Note_on_c, 1, 64, 71
2, 965640, Note_off_c, 1, 64, 0
2, 965640, Note_on_c, 1, 67, 70
2, 965760, Note_off_c, 1, 67, 0
2, 965760, Note_on_c, 1, 72, 70
2, 965880, Note_off_c, 1, 72, 0
2, 965880, Note_on_c, 1, 70, 70
2, 966000, Note_off_c, 1, 70, 0
2, 966000, Note_on_c, 1, 67, 69
2, 966120, Note_off_c, 1, 67, 0
2, 966120, Note_on_c, 1, 64, 69
2, 966216, Note_off_c, 1, 64, 0
2, 966240, Note_on_c, 1, 65, 69
2, 968106, Note_off_c, 1, 65, 0
2, 968280, Note_on_c, 1, 58, 65
2, 968400, Note_off_c, 1, 58, 0
2, 968400, Note_on_c, 1, 60, 66
2, 968520, Note_off_c, 1, 60, 0
2, 968520, Note_on_c, 1, 62, 66
2, 968640, Note_off_c, 1, 62, 0
2, 968640, Note_on_c, 1, 63, 67
2, 968760, Note_off_c, 1, 63, 0
2, 968760, Note_on_c, 1, 65, 68
2, 968880, Note_off_c, 1, 65, 0
2, 968880, Note_on_c, 1, 67, 68
2, 969000, Note_off_c, 1, 67, 0
2, 969000, Note_on_c, 1, 69, 69
2, 969120, Note_off_c, 1, 69, 0
2, 969120, Note_on_c, 1, 70, 70
2, 969240, Note_off_c, 1, 70, 0
2, 969240, Note_on_c, 1, 72, 70
2, 969360, Note_off_c, 1, 72, 0
2, 969360, Note_on_c, 1, 74, 71
2, 969480, Note_off_c, 1, 74, 0
2, 969480, Note_on_c, 1, 75, 72
2, 969600, Note_off_c, 1, 75, 0
2, 969600, Note_on_c, 1, 77, 73
2, 969720, Note_off_c, 1, 77, 0
2, 969720, Note_on_c, 1, 79, 73
2, 969840, Note_off_c, 1, 79, 0
2, 969840, Note_on_c, 1, 81, 74
2, 969960, Note_on_c, 1, 82, 75
2, 969974, Note_off_c, 1, 81, 0
2, 970056, Note_off_c, 1, 82, 0
2, 970320, Note_on_c, 1, 65, 77
2, 970476, Note_off_c, 1, 65, 0
2, 970560, Note_on_c, 1, 68, 78
2, 970716, Note_off_c, 1, 68, 0
2, 970800, Note_on_c, 1, 71, 80
2, 970956, Note_off_c, 1, 71, 0
2, 971040, Note_on_c, 1, 77, 81
2, 971196, Note_off_c, 1, 77, 0
2, 971280, Note_on_c, 1, 80, 82
2, 971436, Note_off_c, 1, 80, 0
2, 971520, Note_on_c, 1, 83, 84
2, 971676, Note_off_c, 1, 83, 0
2, 971760, Note_on_c, 1, 89, 85
2, 971916, Note_off_c, 1, 89, 0
2, 972960, Note_on_c, 1, 48, 53
2, 973866, Note_off_c, 1, 48, 0
2, 973920, Note_on_c, 1, 55, 57
2, 975076, Note_off_c, 1, 55, 0
2, 975840, Note_on_c, 1, 58, 63
2, 976800, Note_on_c, 1, 60, 66
2, 977040, Note_off_c, 1, 58, 0
2, 977715, Note_off_c, 1, 60, 0
2, 977760, Note_on_c, 1, 65, 70
2, 978720, Note_on_c, 1, 70, 73
2, 978960, Note_off_c, 1, 65, 0
2, 979680, Note_on_c, 1, 75, 76
2, 979920, Note_off_c, 1, 70, 0
2, 980640, Note_on_c, 1, 77, 79
2, 980880, Note_off_c, 1, 75, 0
2, 981600, Note_on_c, 1, 82, 83
2, 981847, Note_off_c, 1, 77, 0
2, 982560, Note_on_c, 1, 84, 86
2, 982800, Note_off_c, 1, 82, 0
2, 983520, Note_on_c, 1, 89, 89
2, 983760, Note_off_c, 1, 84, 0
2, 984720, Note_off_c, 1, 89, 0
2, 984720, Note_on_c, 1, 88, 82
2, 984906, Note_off_c, 1, 88, 0
2, 984960, Note_on_c, 1, 88, 81
2, 985200, Note_off_c, 1, 88, 0
2, 985200, Note_on_c, 1, 84, 80
2, 985386, Note_off_c, 1, 84, 0
2, 985440, Note_on_c, 1, 86, 79
2, 986640, Note_off_c, 1, 86, 0
2, 986640, Note_on_c, 1, 84, 75
2, 986835, Note_off_c, 1, 84, 0
2, 986880, Note_on_c, 1, 84, 74
2, 987120, Note_on_c, 1, 81, 73
2, 987126, Note_off_c, 1, 84, 0
2, 987314, Note_off_c, 1, 81, 0
2, 987360, Note_on_c, 1, 82, 72
2, 988560, Note_off_c, 1, 82, 0
2, 988560, Note_on_c, 1, 81, 67
2, 988740, Note_off_c, 1, 81, 0
2, 988800, Note_on_c, 1, 81, 66
2, 989040, Note_off_c, 1, 81, 0
2, 989040, Note_on_c, 1, 78, 65
2, 989226, Note_off_c, 1, 78, 0
2, 989280, Note_on_c, 1, 79, 64
2, 989406, Note_off_c, 1, 79, 0
2, 989520, Note_on_c, 1, 78, 63
2, 989646, Note_off_c, 1, 78, 0
2, 989760, Note_on_c, 1, 79, 62
2, 989894, Note_off_c, 1, 79, 0
2, 990000, Note_on_c, 1, 76, 61
2, 990126, Note_off_c, 1, 76, 0
2, 990240, Note_on_c, 1, 77, 60
2, 990366, Note_off_c, 1, 77, 0
2, 990480, Note_on_c, 1, 76, 59
2, 990606, Note_off_c, 1, 76, 0
2, 990720, Note_on_c, 1, 77, 58
2, 990854, Note_off_c, 1, 77, 0
2, 990960, Note_on_c, 1, 78, 57
2, 991086, Note_off_c, 1, 78, 0
2, 991200, Note_on_c, 1, 79, 56
2, 991320, Note_off_c, 1, 79, 0
2, 991320, Note_on_c, 1, 81, 56
2, 991440, Note_off_c, 1, 81, 0
2, 991440, Note_on_c, 1, 78, 55
2, 991560, Note_off_c, 1, 78, 0
2, 991560, Note_on_c, 1, 81, 55
2, 991680, Note_off_c, 1, 81, 0
2, 991680, Note_on_c, 1, 79, 55
2, 991920, Note_off_c, 1, 79, 0
2, 991920, Note_on_c, 1, 76, 54
2, 992046, Note_off_c, 1, 76, 0
2, 992160, Note_on_c, 1, 77, 53
2, 992280, Note_off_c, 1, 77, 0
2, 992280, Note_on_c, 1, 79, 52
2, 992400, Note_off_c, 1, 79, 0
2, 992400, Note_on_c, 1, 76, 52
2, 992520, Note_off_c, 1, 76, 0
2, 992520, Note_on_c, 1, 79, 51
2, 992640, Note_off_c, 1, 79, 0
2, 992640, Note_on_c, 1, 77, 51
2, 992880, Note_off_c, 1, 77, 0
2, 992880, Note_on_c, 1, 78, 50
2, 993014, Note_off_c, 1, 78, 0
2, 993120, Note_on_c, 1, 79, 49
2, 993240, Note_off_c, 1, 79, 0
2, 993240, Note_on_c, 1, 81, 48
2, 993360, Note_off_c, 1, 81, 0
2, 993360, Note_on_c, 1, 82, 48
2, 993480, Note_off_c, 1, 82, 0
2, 993480, Note_on_c, 1, 84, 47
2, 993600, Note_off_c, 1, 84, 0
2, 993600, Note_on_c, 1, 86, 47
2, 993840, Note_off_c, 1, 86, 0
2, 993840, Note_on_c, 1, 76, 46
2, 993966, Note_off_c, 1, 76, 0
2, 994080, Note_on_c, 1, 77, 45
2, 994200, Note_off_c, 1, 77, 0
2, 994200, Note_on_c, 1, 79, 44
2, 994320, Note_off_c, 1, 79, 0
2, 994320, Note_on_c, 1, 81, 44
2, 994440, Note_off_c, 1, 81, 0
2, 994440, Note_on_c, 1, 82, 43
2, 994560, Note_off_c, 1, 82, 0
2, 994560, Note_on_c, 1, 84, 43
2, 994800, Note_off_c, 1, 84, 0
2, 994800, Note_on_c, 1, 72, 42
2, 994926, Note_off_c, 1, 72, 0
2, 995040, Note_on_c, 1, 71, 58
2, 995160, Note_off_c, 1, 71, 0
2, 995160, Note_on_c, 1, 72, 58
2, 995280, Note_off_c, 1, 72, 0
2, 995280, Note_on_c, 1, 74, 58
2, 995400, Note_off_c, 1, 74, 0
2, 995400, Note_on_c, 1, 76, 58
2, 995520, Note_off_c, 1, 76, 0
2, 995520, Note_on_c, 1, 77, 58
2, 995640, Note_off_c, 1, 77, 0
2, 995640, Note_on_c, 1, 79, 58
2, 995760, Note_off_c, 1, 79, 0
2, 995760, Note_on_c, 1, 80, 59
2, 995880, Note_off_c, 1, 80, 0
2, 995880, Note_on_c, 1, 79, 59
2, 996000, Note_off_c, 1, 79, 0
2, 996000, Note_on_c, 1, 77, 59
2, 996120, Note_off_c, 1, 77, 0
2, 996120, Note_on_c, 1, 76, 59
2, 996240, Note_on_c, 1, 74, 59
2, 996246, Note_off_c, 1, 76, 0
2, 996360, Note_off_c, 1, 74, 0
2, 996360, Note_on_c, 1, 72, 59
2, 996480, Note_off_c, 1, 72, 0
2, 996480, Note_on_c, 1, 71, 59
2, 996600, Note_on_c, 1, 72, 59
2, 996606, Note_off_c, 1, 71, 0
2, 996720, Note_on_c, 1, 74, 60
2, 996726, Note_off_c, 1, 72, 0
2, 996840, Note_on_c, 1, 76, 60
2, 996862, Note_off_c, 1, 74, 0
2, 996960, Note_on_c, 1, 77, 60
2, 996966, Note_off_c, 1, 76, 0
2, 997080, Note_off_c, 1, 77, 0
2, 997080, Note_on_c, 1, 79, 60
2, 997200, Note_off_c, 1, 79, 0
2, 997200, Note_on_c, 1, 80, 60
2, 997320, Note_off_c, 1, 80, 0
2, 997320, Note_on_c, 1, 79, 60
2, 997440, Note_off_c, 1, 79, 0
2, 997440, Note_on_c, 1, 77, 60
2, 997560, Note_off_c, 1, 77, 0
2, 997560, Note_on_c, 1, 76, 61
2, 997680, Note_off_c, 1, 76, 0
2, 997680, Note_on_c, 1, 74, 61
2, 997800, Note_off_c, 1, 74, 0
2, 997800, Note_on_c, 1, 72, 61
2, 997920, Note_off_c, 1, 72, 0
2, 997920, Note_on_c, 1, 71, 61
2, 998040, Note_off_c, 1, 71, 0
2, 998040, Note_on_c, 1, 72, 61
2, 998160, Note_off_c, 1, 72, 0
2, 998160, Note_on_c, 1, 74, 61
2, 998280, Note_off_c, 1, 74, 0
2, 998280, Note_on_c, 1, 76, 61
2, 998400, Note_off_c, 1, 76, 0
2, 998400, Note_on_c, 1, 77, 62
2, 998520, Note_off_c, 1, 77, 0
2, 998520, Note_on_c, 1, 79, 62
2, 998640, Note_off_c, 1, 79, 0
2, 998640, Note_on_c, 1, 81, 62
2, 998760, Note_off_c, 1, 81, 0
2, 998760, Note_on_c, 1, 71, 62
2, 998880, Note_off_c, 1, 71, 0
2, 998880, Note_on_c, 1, 72, 62
2, 999000, Note_off_c, 1, 72, 0
2, 999000, Note_on_c, 1, 74, 62
2, 999120, Note_off_c, 1, 74, 0
2, 999120, Note_on_c, 1, 72, 62
2, 999240, Note_off_c, 1, 72, 0
2, 999240, Note_on_c, 1, 71, 63
2, 999360, Note_off_c, 1, 71, 0
2, 999360, Note_on_c, 1, 72, 63
2, 999480, Note_off_c, 1, 72, 0
2, 999480, Note_on_c, 1, 73, 63
2, 999600, Note_off_c, 1, 73, 0
2, 999600, Note_on_c, 1, 74, 63
2, 999720, Note_off_c, 1, 74, 0
2, 999720, Note_on_c, 1, 75, 63
2, 999840, Note_off_c, 1, 75, 0
2, 999840, Note_on_c, 1, 76, 63
2, 999960, Note_off_c, 1, 76, 0
2, 999960, Note_on_c, 1, 77, 63
2, 1000080, Note_off_c, 1, 77, 0
2, 1000080, Note_on_c, 1, 78, 64
2, 1000200, Note_off_c, 1, 78, 0
2, 1000200, Note_on_c, 1, 79, 64
2, 1000320, Note_off_c, 1, 79, 0
2, 1000320, Note_on_c, 1, 80, 64
2, 1000440, Note_off_c, 1, 80, 0
2, 1000440, Note_on_c, 1, 81, 64
2, 1000560, Note_off_c, 1, 81, 0
2, 1000560, Note_on_c, 1, 82, 64
2, 1000680, Note_off_c, 1, 82, 0
2, 1000680, Note_on_c, 1, 83, 64
2, 1000800, Note_off_c, 1, 83, 0
2, 1000800, Note_on_c, 1, 84, 64
2, 1000920, Note_off_c, 1, 84, 0
2, 1000920, Note_on_c, 1, 85, 65
2, 1001040, Note_off_c, 1, 85, 0
2, 1001040, Note_on_c, 1, 86, 65
2, 1001160, Note_off_c, 1, 86, 0
2, 1001160, Note_on_c, 1, 87, 65
2, 1001280, Note_off_c, 1, 87, 0
2, 1001280, Note_on_c, 1, 88, 65
2, 1001400, Note_off_c, 1, 88, 0
2, 1001400, Note_on_c, 1, 89, 65
2, 1001520, Note_off_c, 1, 89, 0
2, 1001520, Note_on_c, 1, 88, 65
2, 1001640, Note_off_c, 1, 88, 0
2, 1001640, Note_on_c, 1, 86, 65
2, 1001760, Note_off_c, 1, 86, 0
2, 1001760, Note_on_c, 1, 84, 66
2, 1001880, Note_off_c, 1, 84, 0
2, 1001880, Note_on_c, 1, 82, 66
2, 1002000, Note_off_c, 1, 82, 0
2, 1002000, Note_on_c, 1, 81, 66
2, 1002120, Note_off_c, 1, 81, 0
2, 1002120, Note_on_c, 1, 79, 66
2, 1002240, Note_off_c, 1, 79, 0
2, 1002240, Note_on_c, 1, 77, 66
2, 1002360, Note_off_c, 1, 77, 0
2, 1002360, Note_on_c, 1, 76, 66
2, 1002480, Note_off_c, 1, 76, 0
2, 1002480, Note_on_c, 1, 74, 66
2, 1002600, Note_off_c, 1, 74, 0
2, 1002600, Note_on_c, 1, 72, 66
2, 1002660, Note_off_c, 1, 72, 0
2, 1002660, Note_on_c, 1, 70, 67
2, 1002720, Note_off_c, 1, 70, 0
2, 1002720, Note_on_c, 1, 69, 67
2, 1002840, Note_off_c, 1, 69, 0
2, 1002840, Note_on_c, 1, 70, 67
2, 1002960, Note_off_c, 1, 70, 0
2, 1002960, Note_on_c, 1, 72, 67
2, 1003080, Note_off_c, 1, 72, 0
2, 1003080, Note_on_c, 1, 74, 67
2, 1003200, Note_off_c, 1, 74, 0
2, 1003200, Note_on_c, 1, 76, 67
2, 1003320, Note_off_c, 1, 76, 0
2, 1003320, Note_on_c, 1, 77, 67
2, 1003440, Note_off_c, 1, 77, 0
2, 1003440, Note_on_c, 1, 79, 67
2, 1003560, Note_off_c, 1, 79, 0
2, 1003560, Note_on_c, 1, 81, 68
2, 1003680, Note_off_c, 1, 81, 0
2, 1003680, Note_on_c, 1, 82, 68
2, 1003800, Note_off_c, 1, 82, 0
2, 1003800, Note_on_c, 1, 84, 68
2, 1003920, Note_off_c, 1, 84, 0
2, 1003920, Note_on_c, 1, 86, 68
2, 1004040, Note_off_c, 1, 86, 0
2, 1004040, Note_on_c, 1, 88, 68
2, 1004160, Note_off_c, 1, 88, 0
2, 1004160, Note_on_c, 1, 89, 68
2, 1004280, Note_off_c, 1, 89, 0
2, 1004520, Note_on_c, 1, 77, 69
2, 1004608, Note_off_c, 1, 77, 0
2, 1004640, Note_on_c, 1, 79, 69
2, 1004720, Note_on_c, 1, 81, 62
2, 1004728, Note_off_c, 1, 79, 0
2, 1004800, Note_on_c, 1, 79, 62
2, 1004808, Note_off_c, 1, 81, 0
2, 1004880, Note_on_c, 1, 81, 62
2, 1004888, Note_off_c, 1, 79, 0
2, 1004960, Note_on_c, 1, 79, 63
2, 1004968, Note_off_c, 1, 81, 0
2, 1005040, Note_on_c, 1, 81, 63
2, 1005048, Note_off_c, 1, 79, 0
2, 1005120, Note_on_c, 1, 79, 63
2, 1005128, Note_off_c, 1, 81, 0
2, 1005200, Note_on_c, 1, 81, 64
2, 1005208, Note_off_c, 1, 79, 0
2, 1005280, Note_on_c, 1, 79, 64
2, 1005288, Note_off_c, 1, 81, 0
2, 1005360, Note_on_c, 1, 81, 65
2, 1005368, Note_off_c, 1, 79, 0
2, 1005440, Note_on_c, 1, 79, 65
2, 1005448, Note_off_c, 1, 81, 0
2, 1005520, Note_on_c, 1, 81, 65
2, 1005528, Note_off_c, 1, 79, 0
2, 1005600, Note_on_c, 1, 79, 66
2, 1005608, Note_off_c, 1, 81, 0
2, 1005680, Note_on_c, 1, 81, 66
2, 1005688, Note_off_c, 1, 79, 0
2, 1005760, Note_on_c, 1, 79, 66
2, 1005768, Note_off_c, 1, 81, 0
2, 1005840, Note_on_c, 1, 81, 67
2, 1005848, Note_off_c, 1, 79, 0
2, 1005920, Note_on_c, 1, 79, 67
2, 1005928, Note_off_c, 1, 81, 0
2, 1006000, Note_on_c, 1, 81, 67
2, 1006008, Note_off_c, 1, 79, 0
2, 1006080, Note_on_c, 1, 79, 68
2, 1006088, Note_off_c, 1, 81, 0
2, 1006160, Note_on_c, 1, 81, 68
2, 1006168, Note_off_c, 1, 79, 0
2, 1006240, Note_on_c, 1, 79, 68
2, 1006248, Note_off_c, 1, 81, 0
2, 1006320, Note_on_c, 1, 77, 69
2, 1006328, Note_off_c, 1, 79, 0
2, 1006440, Note_on_c, 1, 79, 69
2, 1006454, Note_off_c, 1, 77, 0
2, 1006528, Note_off_c, 1, 79, 0
2, 1006560, Note_on_c, 1, 77, 71
2, 1006980, Note_off_c, 1, 77, 0
2, 1007280, Note_on_c, 1, 77, 49
2, 1007400, Note_off_c, 1, 77, 0
2, 1007400, Note_on_c, 1, 76, 50
2, 1007520, Note_off_c, 1, 76, 0
2, 1007520, Note_on_c, 1, 79, 52
2, 1007640, Note_off_c, 1, 79, 0
2, 1007640, Note_on_c, 1, 77, 53
2, 1007760, Note_off_c, 1, 77, 0
2, 1007760, Note_on_c, 1, 81, 55
2, 1007880, Note_off_c, 1, 81, 0
2, 1007880, Note_on_c, 1, 79, 56
2, 1008000, Note_off_c, 1, 79, 0
2, 1008000, Note_on_c, 1, 82, 58
2, 1008120, Note_off_c, 1, 82, 0
2, 1008120, Note_on_c, 1, 81, 59
2, 1008240, Note_off_c, 1, 81, 0
2, 1008240, Note_on_c, 1, 84, 60
2, 1008360, Note_off_c, 1, 84, 0
2, 1008360, Note_on_c, 1, 82, 62
2, 1008480, Note_off_c, 1, 82, 0
2, 1008480, Note_on_c, 1, 86, 68
2, 1008720, Note_off_c, 1, 86, 0
2, 1008720, Note_on_c, 1, 84, 66
2, 1008900, Note_off_c, 1, 84, 0
2, 1008960, Note_on_c, 1, 84, 65
2, 1009680, Note_off_c, 1, 84, 0
2, 1009680, Note_on_c, 1, 83, 61
2, 1009920, Note_off_c, 1, 83, 0
2, 1009920, Note_on_c, 1, 82, 59
2, 1010160, Note_off_c, 1, 82, 0
2, 1010160, Note_on_c, 1, 79, 58
2, 1010346, Note_off_c, 1, 79, 0
2, 1010400, Note_on_c, 1, 76, 57
2, 1010640, Note_off_c, 1, 76, 0
2, 1010640, Note_on_c, 1, 77, 55
2, 1010820, Note_off_c, 1, 77, 0
2, 1011120, Note_on_c, 1, 77, 56
2, 1011240, Note_off_c, 1, 77, 0
2, 1011240, Note_on_c, 1, 76, 57
2, 1011360, Note_off_c, 1, 76, 0
2, 1011360, Note_on_c, 1, 79, 59
2, 1011480, Note_off_c, 1, 79, 0
2, 1011480, Note_on_c, 1, 77, 61
2, 1011600, Note_off_c, 1, 77, 0
2, 1011600, Note_on_c, 1, 81, 63
2, 1011720, Note_off_c, 1, 81, 0
2, 1011720, Note_on_c, 1, 79, 65
2, 1011840, Note_off_c, 1, 79, 0
2, 1011840, Note_on_c, 1, 82, 67
2, 1011960, Note_off_c, 1, 82, 0
2, 1011960, Note_on_c, 1, 81, 69
2, 1012080, Note_off_c, 1, 81, 0
2, 1012080, Note_on_c, 1, 84, 71
2, 1012200, Note_off_c, 1, 84, 0
2, 1012200, Note_on_c, 1, 82, 72
2, 1012296, Note_off_c, 1, 82, 0
2, 1012320, Note_on_c, 1, 86, 76
2, 1012560, Note_off_c, 1, 86, 0
2, 1012560, Note_on_c, 1, 84, 74
2, 1012740, Note_off_c, 1, 84, 0
2, 1012800, Note_on_c, 1, 84, 72
2, 1013400, Note_off_c, 1, 84, 0
2, 1013400, Note_on_c, 1, 83, 69
2, 1013520, Note_off_c, 1, 83, 0
2, 1013520, Note_on_c, 1, 82, 68
2, 1013640, Note_off_c, 1, 82, 0
2, 1013640, Note_on_c, 1, 81, 68
2, 1013760, Note_off_c, 1, 81, 0
2, 1013760, Note_on_c, 1, 84, 67
2, 1013880, Note_on_c, 1, 82, 66
2, 1013886, Note_off_c, 1, 84, 0
2, 1014000, Note_off_c, 1, 82, 0
2, 1014000, Note_on_c, 1, 81, 66
2, 1014120, Note_off_c, 1, 81, 0
2, 1014120, Note_on_c, 1, 79, 65
2, 1014216, Note_off_c, 1, 79, 0
2, 1014240, Note_on_c, 1, 77, 64
2, 1014480, Note_off_c, 1, 77, 0
2, 1014480, Note_on_c, 1, 79, 60
2, 1014540, Note_off_c, 1, 79, 0
2, 1014540, Note_on_c, 1, 77, 61
2, 1014600, Note_off_c, 1, 77, 0
2, 1014600, Note_on_c, 1, 76, 62
2, 1014660, Note_off_c, 1, 76, 0
2, 1014660, Note_on_c, 1, 77, 63
2, 1014720, Note_off_c, 1, 77, 0
2, 1014720, Note_on_c, 1, 81, 64
2, 1015326, Note_off_c, 1, 81, 0
2, 1015440, Note_on_c, 1, 74, 52
2, 1015500, Note_off_c, 1, 74, 0
2, 1015500, Note_on_c, 1, 72, 53
2, 1015560, Note_off_c, 1, 72, 0
2, 1015560, Note_on_c, 1, 71, 54
2, 1015620, Note_off_c, 1, 71, 0
2, 1015620, Note_on_c, 1, 72, 55
2, 1015680, Note_off_c, 1, 72, 0
2, 1015680, Note_on_c, 1, 77, 56
2, 1016280, Note_off_c, 1, 77, 0
2, 1016340, Note_on_c, 1, 69, 53
2, 1016460, Note_on_c, 1, 72, 52
2, 1016496, Note_off_c, 1, 69, 0
2, 1016616, Note_off_c, 1, 72, 0
2, 1016640, Note_on_c, 1, 65, 50
2, 1016796, Note_off_c, 1, 65, 0
2, 1016820, Note_on_c, 1, 69, 49
2, 1016940, Note_on_c, 1, 60, 48
2, 1016976, Note_off_c, 1, 69, 0
2, 1017096, Note_off_c, 1, 60, 0
2, 1017120, Note_on_c, 1, 65, 46
2, 1017276, Note_off_c, 1, 65, 0
2, 1017300, Note_on_c, 1, 57, 45
2, 1017456, Note_off_c, 1, 57, 0
2, 1017480, Note_on_c, 1, 60, 44
2, 1017600, Note_on_c, 1, 53, 43
2, 1017636, Note_off_c, 1, 60, 0
2, 1017756, Note_off_c, 1, 53, 0
2, 1017780, Note_on_c, 1, 57, 41
2, 1017900, Note_on_c, 1, 48, 40
2, 1017936, Note_off_c, 1, 57, 0
2, 1018056, Note_off_c, 1, 48, 0
2, 1018080, Note_on_c, 1, 53, 42
2, 1019032, Note_off_c, 1, 53, 0
2, 1019040, Note_on_c, 1, 57, 46
2, 1019946, Note_off_c, 1, 57, 0
2, 1020000, Note_on_c, 1, 57, 51
2, 1020240, Note_off_c, 1, 57, 0
2, 1020240, Note_on_c, 1, 55, 44
2, 1020432, Note_off_c, 1, 55, 0
2, 1020480, Note_on_c, 1, 55, 47
2, 1020720, Note_off_c, 1, 55, 0
2, 1020720, Note_on_c, 1, 52, 41
2, 1020912, Note_off_c, 1, 52, 0
2, 1020960, Note_on_c, 1, 53, 46
2, 1021680, Note_off_c, 1, 53, 0
2, 1021680, Note_on_c, 1, 57, 52
2, 1021860, Note_off_c, 1, 57, 0
2, 1021920, Note_on_c, 1, 57, 55
2, 1022160, Note_off_c, 1, 57, 0
2, 1022160, Note_on_c, 1, 55, 50
2, 1022340, Note_off_c, 1, 55, 0
2, 1022400, Note_on_c, 1, 55, 50
2, 1022640, Note_off_c, 1, 55, 0
2, 1022640, Note_on_c, 1, 52, 44
2, 1022842, Note_off_c, 1, 52, 0
2, 1022880, Note_on_c, 1, 60, 57
2, 1024080, Note_off_c, 1, 60, 0
2, 1024080, Note_on_c, 1, 62, 50
2, 1024320, Note_off_c, 1, 62, 0
2, 1024320, Note_on_c, 1, 60, 48
2, 1024440, Note_off_c, 1, 60, 0
2, 1024440, Note_on_c, 1, 58, 48
2, 1024560, Note_off_c, 1, 58, 0
2, 1024560, Note_on_c, 1, 57, 47
2, 1024680, Note_off_c, 1, 57, 0
2, 1024680, Note_on_c, 1, 55, 46
2, 1024800, Note_off_c, 1, 55, 0
2, 1024800, Note_on_c, 1, 53, 46
2, 1025280, Note_off_c, 1, 53, 0
2, 1025280, Note_on_c, 1, 52, 43
2, 1025706, Note_off_c, 1, 52, 0
2, 1025760, Note_on_c, 1, 53, 47
2, 1026480, Note_on_c, 1, 55, 44
2, 1026486, Note_off_c, 1, 53, 0
2, 1026540, Note_off_c, 1, 55, 0
2, 1026540, Note_on_c, 1, 53, 46
2, 1026600, Note_off_c, 1, 53, 0
2, 1026600, Note_on_c, 1, 52, 48
2, 1026660, Note_off_c, 1, 52, 0
2, 1026660, Note_on_c, 1, 53, 50
2, 1026720, Note_off_c, 1, 53, 0
2, 1026720, Note_on_c, 1, 57, 52
2, 1027634, Note_off_c, 1, 57, 0
2, 1027680, Note_on_c, 1, 57, 56
2, 1027920, Note_off_c, 1, 57, 0
2, 1027920, Note_on_c, 1, 55, 51
2, 1028100, Note_off_c, 1, 55, 0
2, 1028160, Note_on_c, 1, 55, 53
2, 1028400, Note_off_c, 1, 55, 0
2, 1028400, Note_on_c, 1, 52, 47
2, 1028594, Note_off_c, 1, 52, 0
2, 1028640, Note_on_c, 1, 53, 52
2, 1028880, Note_off_c, 1, 53, 0
2, 1028880, Note_on_c, 1, 55, 47
2, 1028960, Note_on_c, 1, 53, 48
2, 1028970, Note_off_c, 1, 55, 0
2, 1029040, Note_on_c, 1, 52, 49
2, 1029052, Note_off_c, 1, 53, 0
2, 1029120, Note_off_c, 1, 52, 0
2, 1029120, Note_on_c, 1, 53, 52
2, 1029246, Note_off_c, 1, 53, 0
2, 1029360, Note_on_c, 1, 57, 56
2, 1029494, Note_off_c, 1, 57, 0
2, 1029600, Note_on_c, 1, 57, 61
2, 1029840, Note_off_c, 1, 57, 0
2, 1029840, Note_on_c, 1, 55, 56
2, 1030020, Note_off_c, 1, 55, 0
2, 1030080, Note_on_c, 1, 55, 57
2, 1030320, Note_off_c, 1, 55, 0
2, 1030320, Note_on_c, 1, 52, 53
2, 1030506, Note_off_c, 1, 52, 0
2, 1030560, Note_on_c, 1, 60, 67
2, 1031760, Note_off_c, 1, 60, 0
2, 1031760, Note_on_c, 1, 62, 58
2, 1032000, Note_off_c, 1, 62, 0
2, 1032000, Note_on_c, 1, 60, 57
2, 1032120, Note_off_c, 1, 60, 0
2, 1032120, Note_on_c, 1, 58, 56
2, 1032240, Note_off_c, 1, 58, 0
2, 1032240, Note_on_c, 1, 57, 55
2, 1032360, Note_off_c, 1, 57, 0
2, 1032360, Note_on_c, 1, 55, 54
2, 1032472, Note_off_c, 1, 55, 0
2, 1032480, Note_on_c, 1, 55, 55
2, 1032720, Note_off_c, 1, 55, 0
2, 1032720, Note_on_c, 1, 53, 51
2, 1032900, Note_off_c, 1, 53, 0
2, 1032960, Note_on_c, 1, 53, 53
2, 1033200, Note_off_c, 1, 53, 0
2, 1033200, Note_on_c, 1, 52, 49
2, 1033372, Note_off_c, 1, 52, 0
2, 1033440, Note_on_c, 1, 53, 53
2, 1033860, Note_off_c, 1, 53, 0
2, 1034160, Note_on_c, 1, 50, 45
2, 1034220, Note_off_c, 1, 50, 0
2, 1034220, Note_on_c, 1, 48, 46
2, 1034280, Note_off_c, 1, 48, 0
2, 1034280, Note_on_c, 1, 47, 46
2, 1034340, Note_off_c, 1, 47, 0
2, 1034340, Note_on_c, 1, 48, 47
2, 1034400, Note_off_c, 1, 48, 0
2, 1034400, Note_on_c, 1, 58, 48
2, 1034640, Note_off_c, 1, 58, 0
2, 1034640, Note_on_c, 1, 52, 48
2, 1034766, Note_off_c, 1, 52, 0
2, 1034880, Note_on_c, 1, 52, 46
2, 1035006, Note_off_c, 1, 52, 0
2, 1035120, Note_on_c, 1, 52, 45
2, 1035240, Note_off_c, 1, 52, 0
2, 1035360, Note_on_c, 1, 53, 44
2, 1035780, Note_off_c, 1, 53, 0
2, 1036056, Note_on_c, 1, 50, 36
2, 1036116, Note_off_c, 1, 50, 0
2, 1036120, Note_on_c, 1, 48, 37
2, 1036180, Note_off_c, 1, 48, 0
2, 1036192, Note_on_c, 1, 47, 38
2, 1036248, Note_on_c, 1, 48, 39
2, 1036252, Note_off_c, 1, 47, 0
2, 1036308, Note_off_c, 1, 48, 0
2, 1036320, Note_on_c, 1, 58, 42
2, 1036560, Note_off_c, 1, 58, 0
2, 1036560, Note_on_c, 1, 52, 39
2, 1036686, Note_off_c, 1, 52, 0
2, 1036800, Note_on_c, 1, 52, 38
2, 1036934, Note_off_c, 1, 52, 0
2, 1037040, Note_on_c, 1, 52, 37
2, 1037166, Note_off_c, 1, 52, 0
2, 1037280, Note_on_c, 1, 60, 36
2, 1037520, Note_off_c, 1, 60, 0
2, 1037520, Note_on_c, 1, 53, 35
2, 1037646, Note_off_c, 1, 53, 0
2, 1037760, Note_on_c, 1, 53, 34
2, 1037880, Note_off_c, 1, 53, 0
2, 1038000, Note_on_c, 1, 53, 32
2, 1038126, Note_off_c, 1, 53, 0
2, 1038240, Note_on_c, 1, 62, 31
2, 1038480, Note_off_c, 1, 62, 0
2, 1038480, Note_on_c, 1, 52, 30
2, 1038600, Note_off_c, 1, 52, 0
2, 1038720, Note_on_c, 1, 52, 29
2, 1038854, Note_off_c, 1, 52, 0
2, 1038960, Note_on_c, 1, 52, 28
2, 1039086, Note_off_c, 1, 52, 0
2, 1039200, Control_c, 1, 121, 0
2, 1039200, Note_on_c, 1, 52, 30
2, 1040160, Note_off_c, 1, 52, 0
2, 1040160, Note_on_c, 1, 53, 23
2, 1040594, Note_off_c, 1, 53, 0
2, 1040594, End_track
3, 0, Start_track
3, 0, Title_t, "Unnamed Track"
3, 0, Control_c, 2, 0, 0
3, 0, Control_c, 2, 32, 0
3, 0, Program_c, 2, 0
3, 0, Control_c, 2, 7, 122
3, 0, Pitch_bend_c, 2, 8192
3, 0, Control_c, 2, 1, 0
3, 0, Control_c, 2, 93, 19
3, 0, Control_c, 2, 91, 100
3, 0, Control_c, 2, 10, 73
3, 0, Control_c, 2, 64, 0
3, 13440, Note_on_c, 2, 64, 50
3, 15300, Note_off_c, 2, 64, 0
3, 23040, Note_on_c, 2, 72, 47
3, 23280, Note_off_c, 2, 72, 0
3, 23280, Note_on_c, 2, 84, 48
3, 23520, Note_off_c, 2, 84, 0
3, 23520, Note_on_c, 2, 81, 49
3, 23760, Note_off_c, 2, 81, 0
3, 23760, Note_on_c, 2, 84, 50
3, 24000, Note_off_c, 2, 84, 0
3, 24000, Note_on_c, 2, 72, 51
3, 24240, Note_off_c, 2, 72, 0
3, 24240, Note_on_c, 2, 84, 52
3, 24480, Note_off_c, 2, 84, 0
3, 24480, Note_on_c, 2, 81, 53
3, 24720, Note_off_c, 2, 81, 0
3, 24720, Note_on_c, 2, 84, 54
3, 24912, Note_off_c, 2, 84, 0
3, 24960, Note_on_c, 2, 72, 55
3, 25200, Note_off_c, 2, 72, 0
3, 25200, Note_on_c, 2, 84, 56
3, 25440, Note_off_c, 2, 84, 0
3, 25440, Note_on_c, 2, 82, 58
3, 25680, Note_off_c, 2, 82, 0
3, 25680, Note_on_c, 2, 84, 60
3, 25920, Note_off_c, 2, 84, 0
3, 25920, Note_on_c, 2, 72, 62
3, 26160, Note_off_c, 2, 72, 0
3, 26160, Note_on_c, 2, 84, 64
3, 26400, Note_off_c, 2, 84, 0
3, 26400, Note_on_c, 2, 82, 67
3, 26640, Note_off_c, 2, 82, 0
3, 26640, Note_on_c, 2, 84, 69
3, 26832, Note_off_c, 2, 84, 0
3, 26880, Note_on_c, 2, 72, 71
3, 27120, Note_off_c, 2, 72, 0
3, 27120, Note_on_c, 2, 84, 68
3, 27360, Note_off_c, 2, 84, 0
3, 27360, Note_on_c, 2, 81, 65
3, 27600, Note_off_c, 2, 81, 0
3, 27600, Note_on_c, 2, 84, 62
3, 27840, Note_off_c, 2, 84, 0
3, 27840, Note_on_c, 2, 72, 59
3, 28080, Note_off_c, 2, 72, 0
3, 28080, Note_on_c, 2, 84, 56
3, 28320, Note_off_c, 2, 84, 0
3, 28320, Note_on_c, 2, 81, 53
3, 28560, Note_off_c, 2, 81, 0
3, 28560, Note_on_c, 2, 84, 50
3, 28752, Note_off_c, 2, 84, 0
3, 41760, Note_on_c, 2, 64, 47
3, 42240, Note_off_c, 2, 64, 0
3, 46560, Note_on_c, 2, 69, 67
3, 46800, Note_off_c, 2, 69, 0
3, 47520, Note_on_c, 2, 69, 59
3, 47760, Note_off_c, 2, 69, 0
3, 48480, Note_on_c, 2, 74, 50
3, 48720, Note_off_c, 2, 74, 0
3, 49440, Note_on_c, 2, 74, 42
3, 49680, Note_off_c, 2, 74, 0
3, 49920, Note_on_c, 2, 73, 38
3, 50880, Note_off_c, 2, 73, 0
3, 50880, Note_on_c, 2, 72, 29
3, 51240, Note_off_c, 2, 72, 0
3, 51840, Note_on_c, 2, 70, 44
3, 53760, Note_off_c, 2, 70, 0
3, 53760, Note_on_c, 2, 69, 45
3, 54120, Note_off_c, 2, 69, 0
3, 54240, Note_on_c, 2, 70, 59
3, 55627, Note_off_c, 2, 70, 0
3, 55680, Note_on_c, 2, 69, 48
3, 56047, Note_off_c, 2, 69, 0
3, 56160, Note_on_c, 2, 70, 56
3, 57555, Note_off_c, 2, 70, 0
3, 57600, Note_on_c, 2, 69, 54
3, 57960, Note_off_c, 2, 69, 0
3, 58080, Note_on_c, 2, 70, 60
3, 59467, Note_off_c, 2, 70, 0
3, 59520, Note_on_c, 2, 69, 50
3, 59880, Note_off_c, 2, 69, 0
3, 77760, Note_on_c, 2, 72, 80
3, 78048, Note_off_c, 2, 72, 0
3, 78720, Note_on_c, 2, 71, 81
3, 79008, Note_off_c, 2, 71, 0
3, 104160, Note_on_c, 2, 70, 67
3, 104640, Note_off_c, 2, 70, 0
3, 104640, Note_on_c, 2, 69, 69
3, 105120, Note_off_c, 2, 69, 0
3, 105120, Note_on_c, 2, 73, 70
3, 105480, Note_off_c, 2, 73, 0
3, 107680, Note_on_c, 2, 79, 76
3, 107840, Note_off_c, 2, 79, 0
3, 107840, Note_on_c, 2, 76, 75
3, 108000, Note_off_c, 2, 76, 0
3, 108160, Note_on_c, 2, 77, 73
3, 108320, Note_off_c, 2, 77, 0
3, 108320, Note_on_c, 2, 74, 72
3, 108480, Note_off_c, 2, 74, 0
3, 108640, Note_on_c, 2, 76, 70
3, 108800, Note_off_c, 2, 76, 0
3, 108800, Note_on_c, 2, 72, 69
3, 108960, Note_off_c, 2, 72, 0
3, 109120, Note_on_c, 2, 74, 66
3, 109280, Note_off_c, 2, 74, 0
3, 109280, Note_on_c, 2, 71, 65
3, 109440, Note_off_c, 2, 71, 0
3, 111520, Note_on_c, 2, 79, 70
3, 111680, Note_off_c, 2, 79, 0
3, 111680, Note_on_c, 2, 76, 70
3, 111840, Note_off_c, 2, 76, 0
3, 112000, Note_on_c, 2, 77, 71
3, 112160, Note_off_c, 2, 77, 0
3, 112160, Note_on_c, 2, 74, 71
3, 112320, Note_off_c, 2, 74, 0
3, 112480, Note_on_c, 2, 76, 71
3, 112640, Note_off_c, 2, 76, 0
3, 112640, Note_on_c, 2, 72, 71
3, 112800, Note_off_c, 2, 72, 0
3, 112960, Note_on_c, 2, 74, 72
3, 113120, Note_off_c, 2, 74, 0
3, 113120, Note_on_c, 2, 71, 72
3, 113280, Note_off_c, 2, 71, 0
3, 114720, Note_on_c, 2, 75, 76
3, 115200, Note_off_c, 2, 75, 0
3, 115200, Note_on_c, 2, 74, 73
3, 116160, Note_off_c, 2, 74, 0
3, 116160, Note_on_c, 2, 79, 74
3, 116640, Note_on_c, 2, 77, 75
3, 117120, Note_off_c, 2, 77, 0
3, 117120, Note_off_c, 2, 79, 0
3, 117120, Note_on_c, 2, 79, 75
3, 117120, Note_on_c, 2, 76, 75
3, 117480, Note_off_c, 2, 76, 0
3, 117480, Note_off_c, 2, 79, 0
3, 120480, Note_on_c, 2, 74, 78
3, 120840, Note_off_c, 2, 74, 0
3, 120960, Note_on_c, 2, 74, 74
3, 121320, Note_off_c, 2, 74, 0
3, 172000, Note_on_c, 2, 79, 80
3, 172128, Note_off_c, 2, 79, 0
3, 172160, Note_on_c, 2, 76, 80
3, 172288, Note_off_c, 2, 76, 0
3, 172480, Note_on_c, 2, 77, 79
3, 172608, Note_off_c, 2, 77, 0
3, 172640, Note_on_c, 2, 74, 79
3, 172768, Note_off_c, 2, 74, 0
3, 172960, Note_on_c, 2, 76, 79
3, 173088, Note_off_c, 2, 76, 0
3, 173120, Note_on_c, 2, 72, 79
3, 173248, Note_off_c, 2, 72, 0
3, 173440, Note_on_c, 2, 74, 78
3, 173568, Note_off_c, 2, 74, 0
3, 173600, Note_on_c, 2, 71, 78
3, 173728, Note_off_c, 2, 71, 0
3, 173920, Note_on_c, 2, 72, 78
3, 174048, Note_off_c, 2, 72, 0
3, 174080, Note_on_c, 2, 69, 77
3, 174208, Note_off_c, 2, 69, 0
3, 174400, Note_on_c, 2, 71, 77
3, 174528, Note_off_c, 2, 71, 0
3, 174560, Note_on_c, 2, 67, 77
3, 174688, Note_off_c, 2, 67, 0
3, 174880, Note_on_c, 2, 70, 76
3, 175008, Note_off_c, 2, 70, 0
3, 175040, Note_on_c, 2, 73, 76
3, 175168, Note_off_c, 2, 73, 0
3, 175360, Note_on_c, 2, 69, 76
3, 175488, Note_off_c, 2, 69, 0
3, 175520, Note_on_c, 2, 74, 76
3, 175648, Note_off_c, 2, 74, 0
3, 175840, Note_on_c, 2, 67, 75
3, 175968, Note_off_c, 2, 67, 0
3, 176000, Note_on_c, 2, 72, 75
3, 176128, Note_off_c, 2, 72, 0
3, 176320, Note_on_c, 2, 65, 75
3, 176448, Note_off_c, 2, 65, 0
3, 176480, Note_on_c, 2, 71, 74
3, 176608, Note_off_c, 2, 71, 0
3, 177760, Note_on_c, 2, 79, 73
3, 177888, Note_off_c, 2, 79, 0
3, 177920, Note_on_c, 2, 76, 73
3, 178048, Note_off_c, 2, 76, 0
3, 178240, Note_on_c, 2, 77, 72
3, 178368, Note_off_c, 2, 77, 0
3, 178400, Note_on_c, 2, 74, 72
3, 178528, Note_off_c, 2, 74, 0
3, 178720, Note_on_c, 2, 76, 72
3, 178848, Note_off_c, 2, 76, 0
3, 178880, Note_on_c, 2, 72, 72
3, 179008, Note_off_c, 2, 72, 0
3, 179200, Note_on_c, 2, 74, 71
3, 179328, Note_off_c, 2, 74, 0
3, 179360, Note_on_c, 2, 71, 71
3, 179488, Note_off_c, 2, 71, 0
3, 179680, Note_on_c, 2, 72, 71
3, 179808, Note_off_c, 2, 72, 0
3, 179840, Note_on_c, 2, 69, 70
3, 179968, Note_off_c, 2, 69, 0
3, 180160, Note_on_c, 2, 71, 70
3, 180288, Note_off_c, 2, 71, 0
3, 180320, Note_on_c, 2, 67, 70
3, 180448, Note_off_c, 2, 67, 0
3, 180640, Note_on_c, 2, 70, 69
3, 180768, Note_off_c, 2, 70, 0
3, 180800, Note_on_c, 2, 73, 69
3, 180928, Note_off_c, 2, 73, 0
3, 181120, Note_on_c, 2, 69, 69
3, 181248, Note_off_c, 2, 69, 0
3, 181280, Note_on_c, 2, 74, 69
3, 181408, Note_off_c, 2, 74, 0
3, 181600, Note_on_c, 2, 67, 68
3, 181728, Note_off_c, 2, 67, 0
3, 181760, Note_on_c, 2, 72, 68
3, 181888, Note_off_c, 2, 72, 0
3, 182080, Note_on_c, 2, 65, 68
3, 182208, Note_off_c, 2, 65, 0
3, 182240, Note_on_c, 2, 71, 67
3, 182368, Note_off_c, 2, 71, 0
3, 182560, Note_on_c, 2, 67, 67
3, 182688, Note_off_c, 2, 67, 0
3, 182720, Note_on_c, 2, 72, 67
3, 182848, Note_off_c, 2, 72, 0
3, 183040, Note_on_c, 2, 66, 66
3, 183168, Note_off_c, 2, 66, 0
3, 183200, Note_on_c, 2, 72, 66
3, 183328, Note_off_c, 2, 72, 0
3, 183520, Note_on_c, 2, 67, 66
3, 183648, Note_off_c, 2, 67, 0
3, 183680, Note_on_c, 2, 72, 66
3, 183808, Note_off_c, 2, 72, 0
3, 184000, Note_on_c, 2, 66, 65
3, 184128, Note_off_c, 2, 66, 0
3, 184160, Note_on_c, 2, 72, 65
3, 184288, Note_off_c, 2, 72, 0
3, 184480, Note_on_c, 2, 67, 65
3, 184608, Note_off_c, 2, 67, 0
3, 184640, Note_on_c, 2, 72, 64
3, 184768, Note_off_c, 2, 72, 0
3, 184960, Note_on_c, 2, 65, 64
3, 185088, Note_off_c, 2, 65, 0
3, 185120, Note_on_c, 2, 62, 64
3, 185248, Note_off_c, 2, 62, 0
3, 185440, Note_on_c, 2, 64, 63
3, 185568, Note_off_c, 2, 64, 0
3, 185600, Note_on_c, 2, 60, 63
3, 185728, Note_off_c, 2, 60, 0
3, 185920, Note_on_c, 2, 62, 63
3, 186048, Note_off_c, 2, 62, 0
3, 186080, Note_on_c, 2, 59, 63
3, 186208, Note_off_c, 2, 59, 0
3, 186400, Note_on_c, 2, 60, 62
3, 186528, Note_off_c, 2, 60, 0
3, 186560, Note_on_c, 2, 64, 62
3, 186688, Note_off_c, 2, 64, 0
3, 186880, Note_on_c, 2, 60, 62
3, 187008, Note_off_c, 2, 60, 0
3, 187040, Note_on_c, 2, 63, 61
3, 187168, Note_off_c, 2, 63, 0
3, 187360, Note_on_c, 2, 60, 61
3, 187488, Note_off_c, 2, 60, 0
3, 187520, Note_on_c, 2, 64, 61
3, 187648, Note_off_c, 2, 64, 0
3, 187840, Note_on_c, 2, 60, 60
3, 187968, Note_off_c, 2, 60, 0
3, 188000, Note_on_c, 2, 63, 60
3, 188128, Note_off_c, 2, 63, 0
3, 188320, Note_on_c, 2, 60, 60
3, 188448, Note_off_c, 2, 60, 0
3, 188480, Note_on_c, 2, 64, 60
3, 188608, Note_off_c, 2, 64, 0
3, 188800, Note_on_c, 2, 57, 59
3, 188928, Note_off_c, 2, 57, 0
3, 188960, Note_on_c, 2, 53, 59
3, 189088, Note_off_c, 2, 53, 0
3, 189280, Note_on_c, 2, 55, 59
3, 189408, Note_off_c, 2, 55, 0
3, 189440, Note_on_c, 2, 52, 58
3, 189568, Note_off_c, 2, 52, 0
3, 189760, Note_on_c, 2, 53, 58
3, 189888, Note_off_c, 2, 53, 0
3, 189920, Note_on_c, 2, 50, 58
3, 190048, Note_off_c, 2, 50, 0
3, 201120, Note_on_c, 2, 67, 52
3, 201360, Note_off_c, 2, 67, 0
3, 201600, Note_on_c, 2, 65, 59
3, 202080, Note_off_c, 2, 65, 0
3, 202080, Note_on_c, 2, 63, 55
3, 202440, Note_off_c, 2, 63, 0
3, 203040, Note_on_c, 2, 75, 63
3, 203280, Note_off_c, 2, 75, 0
3, 203520, Note_on_c, 2, 74, 71
3, 204000, Note_off_c, 2, 74, 0
3, 204000, Note_on_c, 2, 72, 67
3, 204360, Note_off_c, 2, 72, 0
3, 211200, Note_on_c, 2, 55, 57
3, 211328, Note_off_c, 2, 55, 0
3, 211360, Note_on_c, 2, 58, 57
3, 211488, Note_off_c, 2, 58, 0
3, 211520, Note_on_c, 2, 62, 58
3, 211648, Note_off_c, 2, 62, 0
3, 211680, Note_on_c, 2, 67, 59
3, 211808, Note_off_c, 2, 67, 0
3, 211840, Note_on_c, 2, 62, 60
3, 211968, Note_off_c, 2, 62, 0
3, 212000, Note_on_c, 2, 58, 61
3, 212128, Note_off_c, 2, 58, 0
3, 212160, Note_on_c, 2, 55, 61
3, 212288, Note_off_c, 2, 55, 0
3, 212320, Note_on_c, 2, 58, 62
3, 212448, Note_off_c, 2, 58, 0
3, 212480, Note_on_c, 2, 62, 63
3, 212608, Note_off_c, 2, 62, 0
3, 212640, Note_on_c, 2, 67, 64
3, 212768, Note_off_c, 2, 67, 0
3, 212800, Note_on_c, 2, 62, 65
3, 212928, Note_off_c, 2, 62, 0
3, 212960, Note_on_c, 2, 58, 65
3, 213088, Note_off_c, 2, 58, 0
3, 213120, Note_on_c, 2, 55, 66
3, 213248, Note_off_c, 2, 55, 0
3, 213280, Note_on_c, 2, 58, 67
3, 213408, Note_off_c, 2, 58, 0
3, 213440, Note_on_c, 2, 62, 68
3, 213568, Note_off_c, 2, 62, 0
3, 213600, Note_on_c, 2, 67, 69
3, 213728, Note_off_c, 2, 67, 0
3, 213760, Note_on_c, 2, 70, 69
3, 213888, Note_off_c, 2, 70, 0
3, 213920, Note_on_c, 2, 74, 70
3, 214048, Note_off_c, 2, 74, 0
3, 214080, Note_on_c, 2, 79, 71
3, 214208, Note_off_c, 2, 79, 0
3, 214240, Note_on_c, 2, 74, 72
3, 214368, Note_off_c, 2, 74, 0
3, 214400, Note_on_c, 2, 70, 73
3, 214528, Note_off_c, 2, 70, 0
3, 214560, Note_on_c, 2, 67, 73
3, 214688, Note_off_c, 2, 67, 0
3, 214720, Note_on_c, 2, 70, 74
3, 214848, Note_off_c, 2, 70, 0
3, 214880, Note_on_c, 2, 74, 75
3, 215008, Note_off_c, 2, 74, 0
3, 215040, Note_on_c, 2, 67, 76
3, 215168, Note_off_c, 2, 67, 0
3, 215200, Note_on_c, 2, 70, 77
3, 215328, Note_off_c, 2, 70, 0
3, 215360, Note_on_c, 2, 74, 77
3, 215488, Note_off_c, 2, 74, 0
3, 215520, Note_on_c, 2, 79, 78
3, 215648, Note_off_c, 2, 79, 0
3, 215680, Note_on_c, 2, 82, 79
3, 215808, Note_off_c, 2, 82, 0
3, 215840, Note_on_c, 2, 84, 80
3, 215968, Note_off_c, 2, 84, 0
3, 216000, Note_on_c, 2, 86, 80
3, 216128, Note_off_c, 2, 86, 0
3, 216160, Note_on_c, 2, 84, 81
3, 216288, Note_off_c, 2, 84, 0
3, 216320, Note_on_c, 2, 82, 82
3, 216448, Note_off_c, 2, 82, 0
3, 216480, Note_on_c, 2, 81, 83
3, 216608, Note_off_c, 2, 81, 0
3, 216640, Note_on_c, 2, 79, 84
3, 216768, Note_off_c, 2, 79, 0
3, 216800, Note_on_c, 2, 78, 84
3, 216928, Note_off_c, 2, 78, 0
3, 218400, Note_on_c, 2, 74, 79
3, 218760, Note_off_c, 2, 74, 0
3, 218880, Note_on_c, 2, 76, 77
3, 219510, Note_off_c, 2, 76, 0
3, 219600, Note_on_c, 2, 74, 75
3, 219787, Note_off_c, 2, 74, 0
3, 219840, Note_on_c, 2, 73, 74
3, 220192, Note_off_c, 2, 73, 0
3, 220320, Note_on_c, 2, 76, 73
3, 220687, Note_off_c, 2, 76, 0
3, 220800, Note_on_c, 2, 69, 71
3, 221640, Note_off_c, 2, 69, 0
3, 221760, Note_on_c, 2, 65, 69
3, 222112, Note_off_c, 2, 65, 0
3, 222240, Note_on_c, 2, 62, 67
3, 222600, Note_off_c, 2, 62, 0
3, 226080, Note_on_c, 2, 77, 76
3, 226440, Note_off_c, 2, 77, 0
3, 226560, Note_on_c, 2, 76, 77
3, 226688, Note_off_c, 2, 76, 0
3, 229920, Note_on_c, 2, 77, 86
3, 230280, Note_off_c, 2, 77, 0
3, 230400, Note_on_c, 2, 76, 87
3, 230528, Note_off_c, 2, 76, 0
3, 230560, Note_on_c, 2, 81, 86
3, 230688, Note_off_c, 2, 81, 0
3, 230720, Note_on_c, 2, 76, 86
3, 230848, Note_off_c, 2, 76, 0
3, 231040, Note_on_c, 2, 76, 85
3, 231168, Note_off_c, 2, 76, 0
3, 231200, Note_on_c, 2, 73, 84
3, 231328, Note_off_c, 2, 73, 0
3, 231520, Note_on_c, 2, 73, 83
3, 231648, Note_off_c, 2, 73, 0
3, 231680, Note_on_c, 2, 69, 82
3, 231808, Note_off_c, 2, 69, 0
3, 232000, Note_on_c, 2, 69, 81
3, 232128, Note_off_c, 2, 69, 0
3, 232160, Note_on_c, 2, 64, 81
3, 232288, Note_off_c, 2, 64, 0
3, 232480, Note_on_c, 2, 64, 80
3, 232608, Note_off_c, 2, 64, 0
3, 232640, Note_on_c, 2, 61, 79
3, 232768, Note_off_c, 2, 61, 0
3, 232960, Note_on_c, 2, 61, 78
3, 233088, Note_off_c, 2, 61, 0
3, 233120, Note_on_c, 2, 57, 77
3, 233248, Note_off_c, 2, 57, 0
3, 233440, Note_on_c, 2, 57, 76
3, 233568, Note_off_c, 2, 57, 0
3, 233600, Note_on_c, 2, 52, 76
3, 233728, Note_off_c, 2, 52, 0
3, 233920, Note_on_c, 2, 52, 74
3, 234048, Note_off_c, 2, 52, 0
3, 234080, Note_on_c, 2, 49, 74
3, 234208, Note_off_c, 2, 49, 0
3, 244800, Note_on_c, 2, 73, 49
3, 245280, Note_off_c, 2, 73, 0
3, 245280, Note_on_c, 2, 72, 50
3, 245760, Note_off_c, 2, 72, 0
3, 245760, Note_on_c, 2, 70, 50
3, 246000, Note_off_c, 2, 70, 0
3, 246240, Note_on_c, 2, 78, 51
3, 246480, Note_off_c, 2, 78, 0
3, 246720, Note_on_c, 2, 79, 51
3, 246960, Note_off_c, 2, 79, 0
3, 247200, Note_on_c, 2, 78, 51
3, 247440, Note_off_c, 2, 78, 0
3, 247680, Note_on_c, 2, 79, 52
3, 247920, Note_off_c, 2, 79, 0
3, 252000, Note_on_c, 2, 69, 57
3, 252240, Note_off_c, 2, 69, 0
3, 252480, Note_on_c, 2, 71, 56
3, 252960, Note_off_c, 2, 71, 0
3, 252960, Note_on_c, 2, 70, 57
3, 253440, Note_off_c, 2, 70, 0
3, 253920, Note_on_c, 2, 76, 58
3, 254160, Note_off_c, 2, 76, 0
3, 254400, Note_on_c, 2, 77, 58
3, 254640, Note_off_c, 2, 77, 0
3, 254880, Note_on_c, 2, 76, 59
3, 255120, Note_off_c, 2, 76, 0
3, 255360, Note_on_c, 2, 77, 59
3, 255600, Note_off_c, 2, 77, 0
3, 268960, Note_on_c, 2, 82, 71
3, 269120, Note_off_c, 2, 82, 0
3, 269120, Note_on_c, 2, 79, 70
3, 269280, Note_off_c, 2, 79, 0
3, 269440, Note_on_c, 2, 79, 69
3, 269600, Note_off_c, 2, 79, 0
3, 269600, Note_on_c, 2, 76, 69
3, 269760, Note_off_c, 2, 76, 0
3, 269920, Note_on_c, 2, 76, 68
3, 270080, Note_off_c, 2, 76, 0
3, 270080, Note_on_c, 2, 70, 67
3, 270240, Note_off_c, 2, 70, 0
3, 270400, Note_on_c, 2, 70, 66
3, 270560, Note_off_c, 2, 70, 0
3, 270560, Note_on_c, 2, 67, 66
3, 270720, Note_off_c, 2, 67, 0
3, 270880, Note_on_c, 2, 67, 65
3, 271040, Note_off_c, 2, 67, 0
3, 271040, Note_on_c, 2, 64, 64
3, 271200, Note_off_c, 2, 64, 0
3, 271360, Note_on_c, 2, 64, 63
3, 271520, Note_off_c, 2, 64, 0
3, 271520, Note_on_c, 2, 58, 63
3, 271680, Note_off_c, 2, 58, 0
3, 271840, Note_on_c, 2, 58, 62
3, 272000, Note_off_c, 2, 58, 0
3, 272000, Note_on_c, 2, 55, 61
3, 272160, Note_off_c, 2, 55, 0
3, 272320, Note_on_c, 2, 55, 60
3, 272480, Note_off_c, 2, 55, 0
3, 272480, Note_on_c, 2, 52, 64
3, 272640, Note_off_c, 2, 52, 0
3, 278880, Note_on_c, 2, 64, 97
3, 278880, Note_on_c, 2, 67, 97
3, 279240, Note_off_c, 2, 67, 0
3, 279240, Note_off_c, 2, 64, 0
3, 291840, Note_on_c, 2, 64, 51
3, 293715, Note_off_c, 2, 64, 0
3, 298560, Note_on_c, 2, 68, 68
3, 299280, Note_off_c, 2, 68, 0
3, 302880, Note_on_c, 2, 72, 73
3, 303360, Note_off_c, 2, 72, 0
3, 303360, Note_on_c, 2, 73, 68
3, 303720, Note_off_c, 2, 73, 0
3, 304800, Note_on_c, 2, 77, 71
3, 305760, Note_off_c, 2, 77, 0
3, 305760, Note_on_c, 2, 82, 70
3, 306720, Note_on_c, 2, 80, 69
3, 306727, Note_off_c, 2, 82, 0
3, 307680, Note_on_c, 2, 79, 68
3, 307687, Note_off_c, 2, 80, 0
3, 308160, Note_off_c, 2, 79, 0
3, 321600, Note_on_c, 2, 65, 82
3, 321840, Note_off_c, 2, 65, 0
3, 322560, Note_on_c, 2, 64, 83
3, 322800, Note_off_c, 2, 64, 0
3, 348000, Note_on_c, 2, 75, 66
3, 348480, Note_off_c, 2, 75, 0
3, 348480, Note_on_c, 2, 74, 67
3, 348960, Note_off_c, 2, 74, 0
3, 348960, Note_on_c, 2, 78, 68
3, 349320, Note_off_c, 2, 78, 0
3, 351520, Note_on_c, 2, 84, 72
3, 351680, Note_off_c, 2, 84, 0
3, 351680, Note_on_c, 2, 81, 72
3, 351840, Note_off_c, 2, 81, 0
3, 352000, Note_on_c, 2, 82, 70
3, 352160, Note_off_c, 2, 82, 0
3, 352160, Note_on_c, 2, 79, 69
3, 352320, Note_off_c, 2, 79, 0
3, 352480, Note_on_c, 2, 81, 68
3, 352640, Note_off_c, 2, 81, 0
3, 352640, Note_on_c, 2, 77, 67
3, 352800, Note_off_c, 2, 77, 0
3, 352960, Note_on_c, 2, 79, 66
3, 353120, Note_off_c, 2, 79, 0
3, 353120, Note_on_c, 2, 76, 65
3, 353280, Note_off_c, 2, 76, 0
3, 355360, Note_on_c, 2, 72, 66
3, 355520, Note_off_c, 2, 72, 0
3, 355520, Note_on_c, 2, 69, 66
3, 355680, Note_off_c, 2, 69, 0
3, 355840, Note_on_c, 2, 70, 66
3, 356000, Note_off_c, 2, 70, 0
3, 356000, Note_on_c, 2, 67, 66
3, 356160, Note_off_c, 2, 67, 0
3, 356320, Note_on_c, 2, 69, 67
3, 356480, Note_off_c, 2, 69, 0
3, 356480, Note_on_c, 2, 65, 67
3, 356640, Note_off_c, 2, 65, 0
3, 356800, Note_on_c, 2, 67, 67
3, 356960, Note_off_c, 2, 67, 0
3, 356960, Note_on_c, 2, 64, 67
3, 357120, Note_off_c, 2, 64, 0
3, 358560, Note_on_c, 2, 68, 69
3, 358920, Note_off_c, 2, 68, 0
3, 359040, Note_on_c, 2, 67, 69
3, 359887, Note_off_c, 2, 67, 0
3, 360000, Note_on_c, 2, 72, 70
3, 360480, Note_on_c, 2, 70, 71
3, 360832, Note_off_c, 2, 72, 0
3, 360840, Note_off_c, 2, 70, 0
3, 360960, Note_on_c, 2, 69, 71
3, 360960, Note_on_c, 2, 72, 71
3, 361320, Note_off_c, 2, 72, 0
3, 361320, Note_off_c, 2, 69, 0
3, 364320, Note_on_c, 2, 79, 75
3, 364680, Note_off_c, 2, 79, 0
3, 364800, Note_on_c, 2, 79, 72
3, 365160, Note_off_c, 2, 79, 0
3, 435040, Note_on_c, 2, 72, 79
3, 435168, Note_off_c, 2, 72, 0
3, 435200, Note_on_c, 2, 69, 78
3, 435328, Note_off_c, 2, 69, 0
3, 435520, Note_on_c, 2, 70, 78
3, 435648, Note_off_c, 2, 70, 0
3, 435680, Note_on_c, 2, 67, 78
3, 435808, Note_off_c, 2, 67, 0
3, 436000, Note_on_c, 2, 69, 78
3, 436128, Note_off_c, 2, 69, 0
3, 436160, Note_on_c, 2, 65, 78
3, 436288, Note_off_c, 2, 65, 0
3, 436480, Note_on_c, 2, 67, 77
3, 436608, Note_off_c, 2, 67, 0
3, 436640, Note_on_c, 2, 64, 77
3, 436768, Note_off_c, 2, 64, 0
3, 436960, Note_on_c, 2, 65, 77
3, 437088, Note_off_c, 2, 65, 0
3, 437120, Note_on_c, 2, 62, 77
3, 437248, Note_off_c, 2, 62, 0
3, 437440, Note_on_c, 2, 64, 77
3, 437568, Note_off_c, 2, 64, 0
3, 437600, Note_on_c, 2, 60, 76
3, 437728, Note_off_c, 2, 60, 0
3, 437920, Note_on_c, 2, 63, 76
3, 438048, Note_off_c, 2, 63, 0
3, 438080, Note_on_c, 2, 66, 76
3, 438208, Note_off_c, 2, 66, 0
3, 438400, Note_on_c, 2, 62, 76
3, 438528, Note_off_c, 2, 62, 0
3, 438560, Note_on_c, 2, 67, 76
3, 438688, Note_off_c, 2, 67, 0
3, 438880, Note_on_c, 2, 60, 75
3, 439008, Note_off_c, 2, 60, 0
3, 439040, Note_on_c, 2, 65, 75
3, 439168, Note_off_c, 2, 65, 0
3, 439360, Note_on_c, 2, 58, 75
3, 439488, Note_off_c, 2, 58, 0
3, 439520, Note_on_c, 2, 64, 75
3, 439648, Note_off_c, 2, 64, 0
3, 440800, Note_on_c, 2, 84, 74
3, 440928, Note_off_c, 2, 84, 0
3, 440960, Note_on_c, 2, 81, 74
3, 441088, Note_off_c, 2, 81, 0
3, 441280, Note_on_c, 2, 82, 73
3, 441408, Note_off_c, 2, 82, 0
3, 441440, Note_on_c, 2, 79, 73
3, 441568, Note_off_c, 2, 79, 0
3, 441760, Note_on_c, 2, 81, 73
3, 441888, Note_off_c, 2, 81, 0
3, 441920, Note_on_c, 2, 77, 73
3, 442048, Note_off_c, 2, 77, 0
3, 442240, Note_on_c, 2, 79, 73
3, 442368, Note_off_c, 2, 79, 0
3, 442400, Note_on_c, 2, 76, 72
3, 442528, Note_off_c, 2, 76, 0
3, 442720, Note_on_c, 2, 77, 72
3, 442848, Note_off_c, 2, 77, 0
3, 442880, Note_on_c, 2, 74, 72
3, 443008, Note_off_c, 2, 74, 0
3, 443200, Note_on_c, 2, 76, 72
3, 443328, Note_off_c, 2, 76, 0
3, 443360, Note_on_c, 2, 72, 72
3, 443488, Note_off_c, 2, 72, 0
3, 443680, Note_on_c, 2, 75, 71
3, 443808, Note_off_c, 2, 75, 0
3, 443840, Note_on_c, 2, 78, 71
3, 443968, Note_off_c, 2, 78, 0
3, 444160, Note_on_c, 2, 74, 71
3, 444288, Note_off_c, 2, 74, 0
3, 444320, Note_on_c, 2, 79, 71
3, 444448, Note_off_c, 2, 79, 0
3, 444640, Note_on_c, 2, 72, 71
3, 444768, Note_off_c, 2, 72, 0
3, 444800, Note_on_c, 2, 77, 70
3, 444928, Note_off_c, 2, 77, 0
3, 445120, Note_on_c, 2, 70, 70
3, 445248, Note_off_c, 2, 70, 0
3, 445280, Note_on_c, 2, 76, 70
3, 445408, Note_off_c, 2, 76, 0
3, 445600, Note_on_c, 2, 72, 70
3, 445728, Note_off_c, 2, 72, 0
3, 445760, Note_on_c, 2, 77, 70
3, 445888, Note_off_c, 2, 77, 0
3, 446080, Note_on_c, 2, 71, 69
3, 446208, Note_off_c, 2, 71, 0
3, 446240, Note_on_c, 2, 77, 69
3, 446368, Note_off_c, 2, 77, 0
3, 446560, Note_on_c, 2, 72, 69
3, 446688, Note_off_c, 2, 72, 0
3, 446720, Note_on_c, 2, 77, 69
3, 446848, Note_off_c, 2, 77, 0
3, 447040, Note_on_c, 2, 71, 69
3, 447168, Note_off_c, 2, 71, 0
3, 447200, Note_on_c, 2, 77, 68
3, 447328, Note_off_c, 2, 77, 0
3, 447520, Note_on_c, 2, 72, 68
3, 447648, Note_off_c, 2, 72, 0
3, 447680, Note_on_c, 2, 77, 68
3, 447808, Note_off_c, 2, 77, 0
3, 448000, Note_on_c, 2, 70, 68
3, 448128, Note_off_c, 2, 70, 0
3, 448160, Note_on_c, 2, 67, 68
3, 448288, Note_off_c, 2, 67, 0
3, 448480, Note_on_c, 2, 69, 67
3, 448608, Note_off_c, 2, 69, 0
3, 448640, Note_on_c, 2, 65, 67
3, 448768, Note_off_c, 2, 65, 0
3, 448960, Note_on_c, 2, 67, 67
3, 449088, Note_off_c, 2, 67, 0
3, 449120, Note_on_c, 2, 64, 67
3, 449248, Note_off_c, 2, 64, 0
3, 449440, Note_on_c, 2, 65, 67
3, 449568, Note_off_c, 2, 65, 0
3, 449600, Note_on_c, 2, 69, 66
3, 449728, Note_off_c, 2, 69, 0
3, 449920, Note_on_c, 2, 65, 66
3, 450048, Note_off_c, 2, 65, 0
3, 450080, Note_on_c, 2, 68, 66
3, 450208, Note_off_c, 2, 68, 0
3, 450400, Note_on_c, 2, 65, 66
3, 450528, Note_off_c, 2, 65, 0
3, 450560, Note_on_c, 2, 69, 66
3, 450688, Note_off_c, 2, 69, 0
3, 450880, Note_on_c, 2, 65, 65
3, 451008, Note_off_c, 2, 65, 0
3, 451040, Note_on_c, 2, 68, 65
3, 451168, Note_off_c, 2, 68, 0
3, 451360, Note_on_c, 2, 65, 65
3, 451488, Note_off_c, 2, 65, 0
3, 451520, Note_on_c, 2, 69, 65
3, 451648, Note_off_c, 2, 69, 0
3, 451840, Note_on_c, 2, 62, 65
3, 451968, Note_off_c, 2, 62, 0
3, 452000, Note_on_c, 2, 58, 64
3, 452128, Note_off_c, 2, 58, 0
3, 452320, Note_on_c, 2, 60, 64
3, 452448, Note_off_c, 2, 60, 0
3, 452480, Note_on_c, 2, 57, 64
3, 452608, Note_off_c, 2, 57, 0
3, 452800, Note_on_c, 2, 58, 64
3, 452928, Note_off_c, 2, 58, 0
3, 452960, Note_on_c, 2, 55, 64
3, 453088, Note_off_c, 2, 55, 0
3, 462240, Control_c, 2, 64, 0
3, 467520, Note_on_c, 2, 65, 56
3, 468185, Note_off_c, 2, 65, 0
3, 468240, Note_on_c, 2, 62, 40
3, 468480, Note_off_c, 2, 62, 0
3, 468480, Note_on_c, 2, 63, 42
3, 468720, Note_off_c, 2, 63, 0
3, 468720, Note_on_c, 2, 65, 45
3, 468960, Note_off_c, 2, 65, 0
3, 468960, Note_on_c, 2, 67, 47
3, 469200, Note_off_c, 2, 67, 0
3, 470400, Note_on_c, 2, 74, 64
3, 471060, Note_off_c, 2, 74, 0
3, 471120, Note_on_c, 2, 71, 47
3, 471360, Note_off_c, 2, 71, 0
3, 471360, Note_on_c, 2, 72, 51
3, 471600, Note_off_c, 2, 72, 0
3, 471600, Note_on_c, 2, 74, 54
3, 471840, Note_off_c, 2, 74, 0
3, 471840, Note_on_c, 2, 75, 58
3, 472080, Note_off_c, 2, 75, 0
3, 472080, Note_on_c, 2, 72, 55
3, 472260, Note_off_c, 2, 72, 0
3, 472320, Note_on_c, 2, 69, 62
3, 472730, Note_off_c, 2, 69, 0
3, 472800, Note_on_c, 2, 70, 70
3, 473220, Note_off_c, 2, 70, 0
3, 473280, Note_on_c, 2, 72, 77
3, 473690, Note_off_c, 2, 72, 0
3, 473760, Note_on_c, 2, 74, 80
3, 474180, Note_off_c, 2, 74, 0
3, 474240, Note_on_c, 2, 70, 67
3, 475140, Note_off_c, 2, 70, 0
3, 475200, Note_on_c, 2, 70, 52
3, 475680, Note_off_c, 2, 70, 0
3, 475680, Note_on_c, 2, 69, 46
3, 476090, Note_off_c, 2, 69, 0
3, 481920, Note_on_c, 2, 65, 60
3, 482585, Note_off_c, 2, 65, 0
3, 482640, Note_on_c, 2, 62, 44
3, 482880, Note_off_c, 2, 62, 0
3, 482880, Note_on_c, 2, 63, 47
3, 483120, Note_off_c, 2, 63, 0
3, 483120, Note_on_c, 2, 65, 50
3, 483360, Note_off_c, 2, 65, 0
3, 483360, Note_on_c, 2, 67, 53
3, 483600, Note_off_c, 2, 67, 0
3, 484800, Note_on_c, 2, 74, 74
3, 485460, Note_off_c, 2, 74, 0
3, 485520, Note_on_c, 2, 71, 56
3, 485760, Note_off_c, 2, 71, 0
3, 485760, Note_on_c, 2, 72, 59
3, 486000, Note_off_c, 2, 72, 0
3, 486000, Note_on_c, 2, 74, 62
3, 486240, Note_off_c, 2, 74, 0
3, 486240, Note_on_c, 2, 75, 66
3, 486480, Note_off_c, 2, 75, 0
3, 486480, Note_on_c, 2, 72, 63
3, 486660, Note_off_c, 2, 72, 0
3, 486720, Note_on_c, 2, 69, 68
3, 487080, Note_off_c, 2, 69, 0
3, 487200, Note_on_c, 2, 70, 72
3, 487560, Note_off_c, 2, 70, 0
3, 487680, Note_on_c, 2, 72, 80
3, 488100, Note_off_c, 2, 72, 0
3, 492480, Note_on_c, 2, 69, 71
3, 492960, Note_off_c, 2, 69, 0
3, 492960, Note_on_c, 2, 67, 54
3, 493370, Note_off_c, 2, 67, 0
3, 501120, Control_c, 2, 64, 127
3, 502500, Control_c, 2, 64, 0
3, 502560, Control_c, 2, 64, 127
3, 503940, Control_c, 2, 64, 0
3, 504000, Control_c, 2, 64, 127
3, 505380, Control_c, 2, 64, 0
3, 505440, Control_c, 2, 64, 127
3, 506340, Control_c, 2, 64, 0
3, 506400, Control_c, 2, 64, 127
3, 506820, Control_c, 2, 64, 0
3, 506880, Control_c, 2, 64, 127
3, 507780, Control_c, 2, 64, 0
3, 507840, Control_c, 2, 64, 127
3, 508260, Control_c, 2, 64, 0
3, 527040, Note_on_c, 2, 64, 30
3, 527520, Note_off_c, 2, 64, 0
3, 547200, Note_on_c, 2, 70, 58
3, 548340, Note_off_c, 2, 70, 0
3, 548400, Note_on_c, 2, 64, 45
3, 548640, Note_off_c, 2, 64, 0
3, 548640, Note_on_c, 2, 72, 62
3, 549773, Note_off_c, 2, 72, 0
3, 549840, Note_on_c, 2, 66, 48
3, 550080, Note_off_c, 2, 66, 0
3, 550080, Note_on_c, 2, 74, 68
3, 550980, Note_off_c, 2, 74, 0
3, 551040, Note_on_c, 2, 70, 70
3, 551693, Note_off_c, 2, 70, 0
3, 551760, Note_on_c, 2, 68, 54
3, 552000, Note_off_c, 2, 68, 0
3, 552000, Note_on_c, 2, 69, 58
3, 552240, Note_off_c, 2, 69, 0
3, 552240, Note_on_c, 2, 71, 62
3, 552433, Note_off_c, 2, 71, 0
3, 552480, Note_on_c, 2, 72, 76
3, 553148, Note_off_c, 2, 72, 0
3, 553200, Note_on_c, 2, 70, 59
3, 553440, Note_off_c, 2, 70, 0
3, 553440, Note_on_c, 2, 71, 63
3, 553680, Note_off_c, 2, 71, 0
3, 553680, Note_on_c, 2, 73, 66
3, 553920, Note_off_c, 2, 73, 0
3, 553920, Note_on_c, 2, 74, 80
3, 554113, Note_off_c, 2, 74, 0
3, 554160, Note_on_c, 2, 67, 68
3, 554400, Note_off_c, 2, 67, 0
3, 554400, Note_on_c, 2, 75, 83
3, 555540, Note_off_c, 2, 75, 0
3, 555600, Note_on_c, 2, 68, 71
3, 555840, Note_off_c, 2, 68, 0
3, 555840, Note_on_c, 2, 77, 85
3, 556988, Note_off_c, 2, 77, 0
3, 557040, Note_on_c, 2, 70, 77
3, 557280, Note_off_c, 2, 70, 0
3, 557280, Note_on_c, 2, 79, 88
3, 558188, Note_off_c, 2, 79, 0
3, 558240, Note_on_c, 2, 79, 93
3, 558923, Note_off_c, 2, 79, 0
3, 558960, Note_on_c, 2, 76, 77
3, 559200, Note_off_c, 2, 76, 0
3, 559200, Note_on_c, 2, 78, 80
3, 559440, Note_off_c, 2, 78, 0
3, 559440, Note_on_c, 2, 80, 83
3, 559633, Note_off_c, 2, 80, 0
3, 559680, Note_on_c, 2, 81, 95
3, 560370, Note_off_c, 2, 81, 0
3, 560400, Note_on_c, 2, 78, 79
3, 560640, Note_off_c, 2, 78, 0
3, 560640, Note_on_c, 2, 79, 82
3, 560880, Note_off_c, 2, 79, 0
3, 560880, Note_on_c, 2, 81, 86
3, 561073, Note_off_c, 2, 81, 0
3, 561120, Note_on_c, 2, 82, 102
3, 561788, Note_off_c, 2, 82, 0
3, 561840, Note_on_c, 2, 80, 86
3, 562080, Note_off_c, 2, 80, 0
3, 562080, Note_on_c, 2, 81, 89
3, 562320, Note_off_c, 2, 81, 0
3, 562320, Note_on_c, 2, 82, 93
3, 562560, Note_off_c, 2, 82, 0
3, 562560, Note_on_c, 2, 84, 98
3, 562753, Note_off_c, 2, 84, 0
3, 562800, Note_on_c, 2, 84, 102
3, 562993, Note_off_c, 2, 84, 0
3, 563040, Control_c, 2, 64, 127
3, 563040, Note_on_c, 2, 84, 108
3, 563600, Note_off_c, 2, 84, 0
3, 564720, Control_c, 2, 64, 0
3, 565920, Control_c, 2, 64, 0
3, 571200, Note_on_c, 2, 65, 60
3, 571865, Note_off_c, 2, 65, 0
3, 571920, Note_on_c, 2, 62, 40
3, 572160, Note_off_c, 2, 62, 0
3, 572160, Note_on_c, 2, 63, 43
3, 572400, Note_off_c, 2, 63, 0
3, 572400, Note_on_c, 2, 65, 46
3, 572640, Note_off_c, 2, 65, 0
3, 572640, Note_on_c, 2, 67, 48
3, 572880, Note_off_c, 2, 67, 0
3, 574080, Note_on_c, 2, 74, 70
3, 574740, Note_off_c, 2, 74, 0
3, 574800, Note_on_c, 2, 71, 52
3, 575040, Note_off_c, 2, 71, 0
3, 575040, Note_on_c, 2, 72, 56
3, 575280, Note_off_c, 2, 72, 0
3, 575280, Note_on_c, 2, 74, 59
3, 575520, Note_off_c, 2, 74, 0
3, 575520, Note_on_c, 2, 75, 62
3, 575760, Note_off_c, 2, 75, 0
3, 575760, Note_on_c, 2, 72, 59
3, 575940, Note_off_c, 2, 72, 0
3, 576000, Note_on_c, 2, 69, 66
3, 576410, Note_off_c, 2, 69, 0
3, 576480, Note_on_c, 2, 70, 70
3, 576900, Note_off_c, 2, 70, 0
3, 576960, Note_on_c, 2, 72, 74
3, 577370, Note_off_c, 2, 72, 0
3, 577440, Note_on_c, 2, 74, 78
3, 577860, Note_off_c, 2, 74, 0
3, 577920, Note_on_c, 2, 70, 68
3, 578820, Note_off_c, 2, 70, 0
3, 578880, Note_on_c, 2, 70, 58
3, 579360, Note_off_c, 2, 70, 0
3, 579360, Note_on_c, 2, 69, 50
3, 579770, Note_off_c, 2, 69, 0
3, 583200, Note_on_c, 2, 63, 56
3, 583883, Note_off_c, 2, 63, 0
3, 583920, Note_on_c, 2, 63, 56
3, 584378, Note_off_c, 2, 63, 0
3, 584400, Note_on_c, 2, 69, 49
3, 584593, Note_off_c, 2, 69, 0
3, 584640, Note_on_c, 2, 69, 53
3, 585120, Note_off_c, 2, 69, 0
3, 585120, Note_on_c, 2, 70, 40
3, 585313, Note_off_c, 2, 70, 0
3, 599040, Control_c, 2, 64, 127
3, 600420, Control_c, 2, 64, 0
3, 600480, Control_c, 2, 64, 127
3, 601860, Control_c, 2, 64, 0
3, 601920, Control_c, 2, 64, 127
3, 603300, Control_c, 2, 64, 0
3, 603360, Control_c, 2, 64, 127
3, 604260, Control_c, 2, 64, 0
3, 604320, Control_c, 2, 64, 127
3, 604740, Control_c, 2, 64, 0
3, 604800, Control_c, 2, 64, 127
3, 605700, Control_c, 2, 64, 0
3, 605760, Control_c, 2, 64, 127
3, 606180, Control_c, 2, 64, 0
3, 630720, Note_on_c, 2, 70, 62
3, 631200, Note_off_c, 2, 70, 0
3, 631200, Note_on_c, 2, 71, 49
3, 631393, Note_off_c, 2, 71, 0
3, 631440, Note_on_c, 2, 71, 55
3, 631633, Note_off_c, 2, 71, 0
3, 631680, Note_on_c, 2, 71, 61
3, 631873, Note_off_c, 2, 71, 0
3, 631920, Note_on_c, 2, 71, 66
3, 632113, Note_off_c, 2, 71, 0
3, 632160, Note_on_c, 2, 72, 74
3, 632353, Note_off_c, 2, 72, 0
3, 633120, Note_on_c, 2, 69, 58
3, 633560, Note_off_c, 2, 69, 0
3, 660480, Note_on_c, 2, 70, 61
3, 660726, Note_off_c, 2, 70, 0
3, 660960, Note_on_c, 2, 70, 64
3, 661920, Note_off_c, 2, 70, 0
3, 661920, Note_on_c, 2, 69, 43
3, 662354, Note_off_c, 2, 69, 0
3, 687840, Note_on_c, 2, 71, 58
3, 688800, Note_off_c, 2, 71, 0
3, 688800, Note_on_c, 2, 72, 47
3, 689226, Note_off_c, 2, 72, 0
3, 733440, Note_on_c, 2, 70, 51
3, 733680, Note_off_c, 2, 70, 0
3, 733920, Note_on_c, 2, 70, 56
3, 734880, Note_on_c, 2, 69, 43
3, 734894, Note_off_c, 2, 70, 0
3, 735306, Note_off_c, 2, 69, 0
3, 735840, Note_on_c, 2, 69, 72
3, 735880, Note_on_c, 2, 74, 75
3, 735900, Note_on_c, 2, 77, 76
3, 736320, Note_off_c, 2, 77, 0
3, 736320, Note_off_c, 2, 74, 0
3, 736320, Note_off_c, 2, 69, 0
3, 739680, Note_on_c, 2, 73, 77
3, 739720, Note_on_c, 2, 76, 80
3, 739740, Note_on_c, 2, 79, 81
3, 740145, Note_off_c, 2, 76, 0
3, 740152, Note_off_c, 2, 79, 0
3, 740160, Note_off_c, 2, 73, 0
3, 740880, Note_on_c, 2, 73, 61
3, 741072, Note_off_c, 2, 73, 0
3, 741120, Note_on_c, 2, 73, 59
3, 741312, Note_off_c, 2, 73, 0
3, 741360, Note_on_c, 2, 73, 56
3, 741552, Note_off_c, 2, 73, 0
3, 742080, Note_on_c, 2, 73, 50
3, 742320, Note_off_c, 2, 73, 0
3, 742560, Note_on_c, 2, 74, 45
3, 742800, Note_off_c, 2, 74, 0
3, 751200, Note_on_c, 2, 69, 75
3, 751240, Note_on_c, 2, 74, 77
3, 751280, Note_on_c, 2, 77, 79
3, 751680, Note_off_c, 2, 77, 0
3, 751695, Note_off_c, 2, 74, 0
3, 751695, Note_off_c, 2, 69, 0
3, 755040, Note_on_c, 2, 73, 74
3, 755080, Note_on_c, 2, 76, 77
3, 755120, Note_on_c, 2, 79, 80
3, 755512, Note_off_c, 2, 76, 0
3, 755520, Note_off_c, 2, 73, 0
3, 755535, Note_off_c, 2, 79, 0
3, 756240, Note_on_c, 2, 73, 69
3, 756432, Note_off_c, 2, 73, 0
3, 756480, Note_on_c, 2, 73, 68
3, 756672, Note_off_c, 2, 73, 0
3, 756720, Note_on_c, 2, 73, 66
3, 756912, Note_off_c, 2, 73, 0
3, 757440, Note_on_c, 2, 73, 60
3, 757680, Note_off_c, 2, 73, 0
3, 757920, Note_on_c, 2, 74, 57
3, 758160, Note_off_c, 2, 74, 0
3, 818400, Note_on_c, 2, 70, 66
3, 819360, Note_off_c, 2, 70, 0
3, 819360, Note_on_c, 2, 69, 51
3, 819780, Note_off_c, 2, 69, 0
3, 820320, Control_c, 2, 64, 0
3, 820320, Note_on_c, 2, 68, 58
3, 822240, Note_off_c, 2, 68, 0
3, 822240, Note_on_c, 2, 67, 67
3, 823440, Note_on_c, 2, 70, 64
3, 823500, Note_off_c, 2, 67, 0
3, 823680, Note_off_c, 2, 70, 0
3, 823680, Note_on_c, 2, 68, 64
3, 823920, Note_off_c, 2, 68, 0
3, 823920, Note_on_c, 2, 67, 63
3, 824160, Note_off_c, 2, 67, 0
3, 824160, Note_on_c, 2, 65, 63
3, 825360, Note_on_c, 2, 68, 60
3, 825420, Note_off_c, 2, 65, 0
3, 825600, Note_off_c, 2, 68, 0
3, 825600, Note_on_c, 2, 67, 59
3, 825840, Note_off_c, 2, 67, 0
3, 825840, Note_on_c, 2, 65, 59
3, 826080, Note_off_c, 2, 65, 0
3, 826080, Note_on_c, 2, 64, 58
3, 827040, Note_off_c, 2, 64, 0
3, 827040, Note_on_c, 2, 65, 56
3, 827654, Note_off_c, 2, 65, 0
3, 827760, Note_on_c, 2, 67, 54
3, 827880, Note_off_c, 2, 67, 0
3, 828000, Note_on_c, 2, 68, 56
3, 828180, Note_off_c, 2, 68, 0
3, 830400, Note_on_c, 2, 70, 74
3, 831360, Note_on_c, 2, 68, 62
3, 831366, Note_off_c, 2, 70, 0
3, 831786, Note_off_c, 2, 68, 0
3, 831840, Note_on_c, 2, 65, 62
3, 832800, Note_off_c, 2, 65, 0
3, 832800, Note_on_c, 2, 63, 52
3, 833046, Note_off_c, 2, 63, 0
3, 833280, Note_on_c, 2, 61, 48
3, 833526, Note_off_c, 2, 61, 0
3, 833760, Note_on_c, 2, 61, 48
3, 834720, Note_off_c, 2, 61, 0
3, 834720, Note_on_c, 2, 60, 32
3, 835140, Note_off_c, 2, 60, 0
3, 835680, Control_c, 2, 64, 0
3, 835680, Note_on_c, 2, 68, 58
3, 837600, Note_off_c, 2, 68, 0
3, 837600, Note_on_c, 2, 67, 67
3, 838800, Note_on_c, 2, 70, 64
3, 838860, Note_off_c, 2, 67, 0
3, 839040, Note_off_c, 2, 70, 0
3, 839040, Note_on_c, 2, 68, 64
3, 839280, Note_off_c, 2, 68, 0
3, 839280, Note_on_c, 2, 67, 63
3, 839520, Note_off_c, 2, 67, 0
3, 839520, Note_on_c, 2, 65, 63
3, 840720, Note_on_c, 2, 68, 60
3, 840780, Note_off_c, 2, 65, 0
3, 840960, Note_off_c, 2, 68, 0
3, 840960, Note_on_c, 2, 67, 59
3, 841200, Note_off_c, 2, 67, 0
3, 841200, Note_on_c, 2, 65, 59
3, 841440, Note_off_c, 2, 65, 0
3, 841440, Note_on_c, 2, 64, 58
3, 842400, Note_off_c, 2, 64, 0
3, 842400, Note_on_c, 2, 65, 56
3, 843014, Note_off_c, 2, 65, 0
3, 843120, Note_on_c, 2, 67, 54
3, 843240, Note_off_c, 2, 67, 0
3, 843360, Note_on_c, 2, 68, 56
3, 843540, Note_off_c, 2, 68, 0
3, 845760, Note_on_c, 2, 70, 74
3, 846720, Note_on_c, 2, 68, 62
3, 846726, Note_off_c, 2, 70, 0
3, 847146, Note_off_c, 2, 68, 0
3, 847200, Note_on_c, 2, 65, 62
3, 848160, Note_off_c, 2, 65, 0
3, 848160, Note_on_c, 2, 63, 52
3, 848406, Note_off_c, 2, 63, 0
3, 848640, Note_on_c, 2, 61, 48
3, 848886, Note_off_c, 2, 61, 0
3, 849120, Note_on_c, 2, 61, 48
3, 850080, Note_off_c, 2, 61, 0
3, 850080, Note_on_c, 2, 60, 32
3, 850500, Note_off_c, 2, 60, 0
3, 851040, Control_c, 2, 64, 0
3, 851040, Note_on_c, 2, 69, 42
3, 852000, Note_on_c, 2, 70, 46
3, 852006, Note_off_c, 2, 69, 0
3, 852914, Note_off_c, 2, 70, 0
3, 852960, Note_on_c, 2, 69, 51
3, 853920, Note_on_c, 2, 70, 55
3, 853934, Note_off_c, 2, 69, 0
3, 854354, Note_off_c, 2, 70, 0
3, 854880, Note_on_c, 2, 67, 49
3, 855840, Note_on_c, 2, 68, 53
3, 855846, Note_off_c, 2, 67, 0
3, 856754, Note_off_c, 2, 68, 0
3, 856800, Note_on_c, 2, 67, 58
3, 858000, Note_off_c, 2, 67, 0
3, 858000, Note_on_c, 2, 70, 61
3, 858240, Note_off_c, 2, 70, 0
3, 858240, Note_on_c, 2, 68, 60
3, 858480, Note_off_c, 2, 68, 0
3, 858480, Note_on_c, 2, 67, 58
3, 858720, Note_off_c, 2, 67, 0
3, 858720, Note_on_c, 2, 65, 62
3, 859146, Note_off_c, 2, 65, 0
3, 859440, Note_on_c, 2, 67, 51
3, 859620, Note_off_c, 2, 67, 0
3, 859680, Note_on_c, 2, 67, 59
3, 859920, Note_off_c, 2, 67, 0
3, 859920, Note_on_c, 2, 65, 55
3, 860114, Note_off_c, 2, 65, 0
3, 860400, Note_on_c, 2, 65, 50
3, 860580, Note_off_c, 2, 65, 0
3, 860640, Note_on_c, 2, 65, 53
3, 861600, Note_on_c, 2, 64, 45
3, 861606, Note_off_c, 2, 65, 0
3, 862020, Note_off_c, 2, 64, 0
3, 863040, Note_on_c, 2, 70, 62
3, 864000, Note_off_c, 2, 70, 0
3, 864000, Note_on_c, 2, 68, 66
3, 864480, Note_off_c, 2, 68, 0
3, 864480, Note_on_c, 2, 67, 69
3, 865680, Note_off_c, 2, 67, 0
3, 865680, Note_on_c, 2, 70, 66
3, 865920, Note_off_c, 2, 70, 0
3, 865920, Note_on_c, 2, 68, 65
3, 866160, Note_off_c, 2, 68, 0
3, 866160, Note_on_c, 2, 67, 64
3, 866400, Note_off_c, 2, 67, 0
3, 866400, Note_on_c, 2, 65, 64
3, 867600, Note_off_c, 2, 65, 0
3, 867600, Note_on_c, 2, 68, 60
3, 867840, Note_off_c, 2, 68, 0
3, 867840, Note_on_c, 2, 67, 59
3, 868080, Note_off_c, 2, 67, 0
3, 868080, Note_on_c, 2, 65, 59
3, 868320, Note_off_c, 2, 65, 0
3, 868320, Note_on_c, 2, 64, 58
3, 868800, Note_off_c, 2, 64, 0
3, 868800, Note_on_c, 2, 65, 59
3, 869040, Note_off_c, 2, 65, 0
3, 869040, Note_on_c, 2, 67, 60
3, 869220, Note_off_c, 2, 67, 0
3, 869280, Note_on_c, 2, 68, 60
3, 870060, Note_off_c, 2, 68, 0
3, 872640, Note_on_c, 2, 67, 84
3, 873600, Note_off_c, 2, 67, 0
3, 873600, Note_on_c, 2, 65, 69
3, 874020, Note_off_c, 2, 65, 0
3, 876000, Note_on_c, 2, 58, 52
3, 876960, Note_off_c, 2, 58, 0
3, 876960, Note_on_c, 2, 56, 34
3, 877386, Note_off_c, 2, 56, 0
3, 877920, Control_c, 2, 64, 0
3, 877920, Note_on_c, 2, 69, 42
3, 878880, Note_on_c, 2, 70, 46
3, 878886, Note_off_c, 2, 69, 0
3, 879794, Note_off_c, 2, 70, 0
3, 879840, Note_on_c, 2, 69, 51
3, 880800, Note_on_c, 2, 70, 55
3, 880814, Note_off_c, 2, 69, 0
3, 881234, Note_off_c, 2, 70, 0
3, 881760, Note_on_c, 2, 67, 49
3, 882720, Note_on_c, 2, 68, 53
3, 882726, Note_off_c, 2, 67, 0
3, 883634, Note_off_c, 2, 68, 0
3, 883680, Note_on_c, 2, 67, 58
3, 884880, Note_off_c, 2, 67, 0
3, 884880, Note_on_c, 2, 70, 61
3, 885120, Note_off_c, 2, 70, 0
3, 885120, Note_on_c, 2, 68, 60
3, 885360, Note_off_c, 2, 68, 0
3, 885360, Note_on_c, 2, 67, 58
3, 885600, Note_off_c, 2, 67, 0
3, 885600, Note_on_c, 2, 65, 62
3, 886026, Note_off_c, 2, 65, 0
3, 886320, Note_on_c, 2, 67, 51
3, 886500, Note_off_c, 2, 67, 0
3, 886560, Note_on_c, 2, 67, 59
3, 886800, Note_off_c, 2, 67, 0
3, 886800, Note_on_c, 2, 65, 55
3, 886994, Note_off_c, 2, 65, 0
3, 887280, Note_on_c, 2, 65, 50
3, 887460, Note_off_c, 2, 65, 0
3, 887520, Note_on_c, 2, 65, 53
3, 888480, Note_on_c, 2, 64, 45
3, 888486, Note_off_c, 2, 65, 0
3, 888900, Note_off_c, 2, 64, 0
3, 889920, Note_on_c, 2, 70, 62
3, 890880, Note_off_c, 2, 70, 0
3, 890880, Note_on_c, 2, 68, 66
3, 891360, Note_off_c, 2, 68, 0
3, 891360, Note_on_c, 2, 67, 69
3, 892560, Note_off_c, 2, 67, 0
3, 892560, Note_on_c, 2, 70, 66
3, 892800, Note_off_c, 2, 70, 0
3, 892800, Note_on_c, 2, 68, 65
3, 893040, Note_off_c, 2, 68, 0
3, 893040, Note_on_c, 2, 67, 64
3, 893280, Note_off_c, 2, 67, 0
3, 893280, Note_on_c, 2, 65, 64
3, 894480, Note_off_c, 2, 65, 0
3, 894480, Note_on_c, 2, 68, 60
3, 894720, Note_off_c, 2, 68, 0
3, 894720, Note_on_c, 2, 67, 59
3, 894960, Note_off_c, 2, 67, 0
3, 894960, Note_on_c, 2, 65, 59
3, 895200, Note_off_c, 2, 65, 0
3, 895200, Note_on_c, 2, 64, 58
3, 895680, Note_off_c, 2, 64, 0
3, 895680, Note_on_c, 2, 65, 59
3, 895920, Note_off_c, 2, 65, 0
3, 895920, Note_on_c, 2, 67, 60
3, 896100, Note_off_c, 2, 67, 0
3, 896160, Note_on_c, 2, 68, 60
3, 896940, Note_off_c, 2, 68, 0
3, 899520, Note_on_c, 2, 67, 84
3, 900480, Note_off_c, 2, 67, 0
3, 900480, Note_on_c, 2, 65, 69
3, 900900, Note_off_c, 2, 65, 0
3, 902880, Control_c, 2, 64, 0
3, 902880, Note_on_c, 2, 58, 48
3, 904680, Note_off_c, 2, 58, 0
3, 904800, Note_on_c, 2, 57, 33
3, 904992, Note_off_c, 2, 57, 0
3, 905760, Note_on_c, 2, 64, 38
3, 905954, Note_off_c, 2, 64, 0
3, 906720, Note_on_c, 2, 65, 43
3, 906912, Note_off_c, 2, 65, 0
3, 927120, Note_on_c, 2, 69, 64
3, 927600, Note_off_c, 2, 69, 0
3, 927600, Note_on_c, 2, 72, 65
3, 928080, Note_off_c, 2, 72, 0
3, 928080, Note_on_c, 2, 71, 66
3, 928560, Note_off_c, 2, 71, 0
3, 928560, Note_on_c, 2, 70, 64
3, 929040, Note_off_c, 2, 70, 0
3, 929040, Note_on_c, 2, 68, 63
3, 929520, Note_off_c, 2, 68, 0
3, 929520, Note_on_c, 2, 69, 61
3, 929722, Note_off_c, 2, 69, 0
3, 947040, Note_on_c, 2, 67, 60
3, 947040, Note_on_c, 2, 64, 60
3, 948000, Note_off_c, 2, 64, 0
3, 948000, Note_off_c, 2, 67, 0
3, 948000, Note_on_c, 2, 65, 48
3, 948120, Note_off_c, 2, 65, 0
3, 966240, Note_on_c, 2, 57, 69
3, 968106, Note_off_c, 2, 57, 0
3, 975120, Note_on_c, 2, 53, 61
3, 975300, Note_off_c, 2, 53, 0
3, 975360, Note_on_c, 2, 53, 62
3, 975600, Note_off_c, 2, 53, 0
3, 975600, Note_on_c, 2, 48, 62
3, 975786, Note_off_c, 2, 48, 0
3, 977040, Note_on_c, 2, 57, 67
3, 977220, Note_off_c, 2, 57, 0
3, 977280, Note_on_c, 2, 57, 68
3, 977520, Note_off_c, 2, 57, 0
3, 977520, Note_on_c, 2, 55, 69
3, 977700, Note_off_c, 2, 55, 0
3, 977760, Note_on_c, 2, 57, 70
3, 978240, Note_on_c, 2, 59, 71
3, 978262, Note_off_c, 2, 57, 0
3, 978666, Note_off_c, 2, 59, 0
3, 978720, Note_on_c, 2, 60, 73
3, 978960, Note_on_c, 2, 64, 74
3, 979140, Note_off_c, 2, 64, 0
3, 979147, Note_off_c, 2, 60, 0
3, 979200, Note_on_c, 2, 64, 75
3, 979440, Note_off_c, 2, 64, 0
3, 979440, Note_on_c, 2, 60, 75
3, 979634, Note_off_c, 2, 60, 0
3, 979920, Note_on_c, 2, 69, 77
3, 980100, Note_off_c, 2, 69, 0
3, 980160, Note_on_c, 2, 69, 78
3, 980400, Note_off_c, 2, 69, 0
3, 980400, Note_on_c, 2, 65, 79
3, 980586, Note_off_c, 2, 65, 0
3, 980640, Note_on_c, 2, 65, 79
3, 980880, Note_on_c, 2, 74, 80
3, 981066, Note_off_c, 2, 74, 0
3, 981120, Note_on_c, 2, 74, 81
3, 981360, Note_off_c, 2, 74, 0
3, 981360, Note_on_c, 2, 72, 82
3, 981540, Note_off_c, 2, 65, 0
3, 981546, Note_off_c, 2, 72, 0
3, 981600, Note_on_c, 2, 72, 83
3, 981840, Note_on_c, 2, 76, 84
3, 982012, Note_off_c, 2, 76, 0
3, 982080, Note_on_c, 2, 76, 84
3, 982305, Note_off_c, 2, 72, 0
3, 982320, Note_off_c, 2, 76, 0
3, 982320, Note_on_c, 2, 72, 85
3, 982515, Note_off_c, 2, 72, 0
3, 982560, Note_on_c, 2, 77, 86
3, 982800, Note_on_c, 2, 81, 87
3, 982980, Note_off_c, 2, 77, 0
3, 982994, Note_off_c, 2, 81, 0
3, 983040, Note_on_c, 2, 81, 88
3, 983040, Note_on_c, 2, 76, 88
3, 983280, Note_off_c, 2, 81, 0
3, 983280, Note_on_c, 2, 79, 88
3, 983460, Note_off_c, 2, 76, 0
3, 983466, Note_off_c, 2, 79, 0
3, 983520, Note_on_c, 2, 79, 89
3, 983760, Note_on_c, 2, 83, 86
3, 983954, Note_off_c, 2, 83, 0
3, 984000, Note_on_c, 2, 83, 85
3, 984232, Note_off_c, 2, 79, 0
3, 984240, Note_off_c, 2, 83, 0
3, 984240, Note_on_c, 2, 79, 84
3, 984442, Note_off_c, 2, 79, 0
3, 984480, Note_on_c, 2, 84, 83
3, 984480, Note_on_c, 2, 79, 83
3, 984906, Note_off_c, 2, 84, 0
3, 984908, Note_off_c, 2, 79, 0
3, 984908, End_track
4, 0, Start_track
4, 0, Title_t, "Unnamed Track"
4, 0, Control_c, 3, 0, 0
4, 0, Control_c, 3, 32, 0
4, 0, Program_c, 3, 0
4, 0, Control_c, 3, 7, 112
4, 0, Pitch_bend_c, 3, 8192
4, 0, Control_c, 3, 1, 0
4, 0, Control_c, 3, 93, 19
4, 0, Control_c, 3, 91, 100
4, 0, Control_c, 3, 10, 64
4, 0, Control_c, 3, 64, 0
4, 7680, Note_on_c, 3, 57, 40
4, 7920, Note_off_c, 3, 57, 0
4, 7920, Note_on_c, 3, 60, 41
4, 8160, Note_off_c, 3, 60, 0
4, 8160, Note_on_c, 3, 57, 42
4, 8400, Note_off_c, 3, 57, 0
4, 8400, Note_on_c, 3, 60, 43
4, 8640, Note_off_c, 3, 60, 0
4, 8640, Note_on_c, 3, 57, 44
4, 8880, Note_off_c, 3, 57, 0
4, 8880, Note_on_c, 3, 60, 45
4, 9120, Note_off_c, 3, 60, 0
4, 9120, Note_on_c, 3, 57, 46
4, 9360, Note_off_c, 3, 57, 0
4, 9360, Note_on_c, 3, 60, 47
4, 9552, Note_off_c, 3, 60, 0
4, 9600, Note_on_c, 3, 58, 47
4, 9840, Note_off_c, 3, 58, 0
4, 9840, Note_on_c, 3, 60, 49
4, 10080, Note_off_c, 3, 60, 0
4, 10080, Note_on_c, 3, 58, 51
4, 10320, Note_off_c, 3, 58, 0
4, 10320, Note_on_c, 3, 60, 53
4, 10560, Note_off_c, 3, 60, 0
4, 10560, Note_on_c, 3, 58, 56
4, 10800, Note_off_c, 3, 58, 0
4, 10800, Note_on_c, 3, 60, 58
4, 11040, Note_off_c, 3, 60, 0
4, 11040, Note_on_c, 3, 58, 60
4, 11280, Note_off_c, 3, 58, 0
4, 11280, Note_on_c, 3, 60, 63
4, 11472, Note_off_c, 3, 60, 0
4, 11520, Note_on_c, 3, 57, 63
4, 11760, Note_off_c, 3, 57, 0
4, 11760, Note_on_c, 3, 60, 61
4, 12000, Note_off_c, 3, 60, 0
4, 12000, Note_on_c, 3, 57, 59
4, 12240, Note_off_c, 3, 57, 0
4, 12240, Note_on_c, 3, 60, 58
4, 12480, Note_off_c, 3, 60, 0
4, 12480, Note_on_c, 3, 57, 56
4, 12720, Note_off_c, 3, 57, 0
4, 12720, Note_on_c, 3, 60, 54
4, 12960, Note_off_c, 3, 60, 0
4, 12960, Note_on_c, 3, 57, 53
4, 13200, Note_off_c, 3, 57, 0
4, 13200, Note_on_c, 3, 60, 51
4, 13392, Note_off_c, 3, 60, 0
4, 13440, Note_on_c, 3, 58, 50
4, 13680, Note_off_c, 3, 58, 0
4, 13680, Note_on_c, 3, 60, 48
4, 13920, Note_off_c, 3, 60, 0
4, 13920, Note_on_c, 3, 58, 46
4, 14160, Note_off_c, 3, 58, 0
4, 14160, Note_on_c, 3, 60, 45
4, 14400, Note_off_c, 3, 60, 0
4, 14400, Note_on_c, 3, 58, 43
4, 14640, Note_off_c, 3, 58, 0
4, 14640, Note_on_c, 3, 60, 42
4, 14880, Note_off_c, 3, 60, 0
4, 14880, Note_on_c, 3, 58, 40
4, 15120, Note_off_c, 3, 58, 0
4, 15120, Note_on_c, 3, 60, 38
4, 15312, Note_off_c, 3, 60, 0
4, 15360, Note_on_c, 3, 57, 37
4, 16080, Note_off_c, 3, 57, 0
4, 29040, Note_on_c, 3, 64, 55
4, 29280, Note_off_c, 3, 64, 0
4, 29280, Note_on_c, 3, 60, 57
4, 29520, Note_off_c, 3, 60, 0
4, 29520, Note_on_c, 3, 64, 60
4, 29760, Note_off_c, 3, 64, 0
4, 30000, Note_on_c, 3, 67, 64
4, 30240, Note_off_c, 3, 67, 0
4, 30240, Note_on_c, 3, 60, 66
4, 30480, Note_off_c, 3, 60, 0
4, 30480, Note_on_c, 3, 67, 69
4, 30672, Note_off_c, 3, 67, 0
4, 71520, Note_on_c, 3, 63, 70
4, 71520, Note_on_c, 3, 67, 70
4, 71880, Note_off_c, 3, 67, 0
4, 71880, Note_off_c, 3, 63, 0
4, 72480, Note_on_c, 3, 60, 71
4, 72480, Note_on_c, 3, 63, 71
4, 72840, Note_off_c, 3, 63, 0
4, 72840, Note_off_c, 3, 60, 0
4, 73440, Note_on_c, 3, 60, 73
4, 73440, Note_on_c, 3, 63, 73
4, 73800, Note_off_c, 3, 63, 0
4, 73800, Note_off_c, 3, 60, 0
4, 74400, Note_on_c, 3, 60, 74
4, 74400, Note_on_c, 3, 63, 74
4, 74760, Note_off_c, 3, 63, 0
4, 74760, Note_off_c, 3, 60, 0
4, 74880, Note_on_c, 3, 60, 75
4, 74880, Note_on_c, 3, 63, 75
4, 75168, Note_off_c, 3, 63, 0
4, 75168, Note_off_c, 3, 60, 0
4, 76320, Note_on_c, 3, 60, 77
4, 76320, Note_on_c, 3, 63, 77
4, 76608, Note_off_c, 3, 63, 0
4, 76608, Note_off_c, 3, 60, 0
4, 76800, Note_on_c, 3, 63, 78
4, 76800, Note_on_c, 3, 60, 78
4, 77088, Note_off_c, 3, 60, 0
4, 77088, Note_off_c, 3, 63, 0
4, 82800, Note_on_c, 3, 67, 48
4, 83040, Note_off_c, 3, 67, 0
4, 83280, Note_on_c, 3, 67, 49
4, 83520, Note_off_c, 3, 67, 0
4, 83760, Note_on_c, 3, 67, 50
4, 84000, Note_off_c, 3, 67, 0
4, 84240, Note_on_c, 3, 67, 51
4, 84480, Note_off_c, 3, 67, 0
4, 84720, Note_on_c, 3, 67, 52
4, 84960, Note_off_c, 3, 67, 0
4, 85200, Note_on_c, 3, 60, 53
4, 85440, Note_off_c, 3, 60, 0
4, 85680, Note_on_c, 3, 60, 54
4, 85920, Note_off_c, 3, 60, 0
4, 86160, Note_on_c, 3, 65, 55
4, 86352, Note_off_c, 3, 65, 0
4, 86400, Note_on_c, 3, 64, 56
4, 86880, Note_off_c, 3, 64, 0
4, 86880, Note_on_c, 3, 62, 51
4, 87240, Note_off_c, 3, 62, 0
4, 286080, Note_on_c, 3, 57, 44
4, 286320, Note_off_c, 3, 57, 0
4, 286320, Note_on_c, 3, 60, 45
4, 286560, Note_off_c, 3, 60, 0
4, 286560, Note_on_c, 3, 57, 46
4, 286800, Note_off_c, 3, 57, 0
4, 286800, Note_on_c, 3, 60, 47
4, 287040, Note_off_c, 3, 60, 0
4, 287040, Note_on_c, 3, 57, 47
4, 287280, Note_off_c, 3, 57, 0
4, 287280, Note_on_c, 3, 60, 48
4, 287520, Note_off_c, 3, 60, 0
4, 287520, Note_on_c, 3, 57, 49
4, 287760, Note_off_c, 3, 57, 0
4, 287760, Note_on_c, 3, 60, 50
4, 287952, Note_off_c, 3, 60, 0
4, 288000, Note_on_c, 3, 58, 51
4, 288240, Note_off_c, 3, 58, 0
4, 288240, Note_on_c, 3, 60, 52
4, 288480, Note_off_c, 3, 60, 0
4, 288480, Note_on_c, 3, 58, 53
4, 288720, Note_off_c, 3, 58, 0
4, 288720, Note_on_c, 3, 60, 55
4, 288960, Note_off_c, 3, 60, 0
4, 288960, Note_on_c, 3, 58, 56
4, 289200, Note_off_c, 3, 58, 0
4, 289200, Note_on_c, 3, 60, 57
4, 289440, Note_off_c, 3, 60, 0
4, 289440, Note_on_c, 3, 58, 59
4, 289680, Note_off_c, 3, 58, 0
4, 289680, Note_on_c, 3, 60, 60
4, 289872, Note_off_c, 3, 60, 0
4, 289920, Note_on_c, 3, 57, 61
4, 290160, Note_off_c, 3, 57, 0
4, 290160, Note_on_c, 3, 60, 59
4, 290400, Note_off_c, 3, 60, 0
4, 290400, Note_on_c, 3, 57, 58
4, 290640, Note_off_c, 3, 57, 0
4, 290640, Note_on_c, 3, 60, 57
4, 290880, Note_off_c, 3, 60, 0
4, 290880, Note_on_c, 3, 57, 56
4, 291120, Note_off_c, 3, 57, 0
4, 291120, Note_on_c, 3, 60, 54
4, 291360, Note_off_c, 3, 60, 0
4, 291360, Note_on_c, 3, 57, 53
4, 291600, Note_off_c, 3, 57, 0
4, 291600, Note_on_c, 3, 60, 52
4, 291792, Note_off_c, 3, 60, 0
4, 291840, Note_on_c, 3, 58, 51
4, 292080, Note_off_c, 3, 58, 0
4, 292080, Note_on_c, 3, 60, 49
4, 292320, Note_off_c, 3, 60, 0
4, 292320, Note_on_c, 3, 58, 48
4, 292560, Note_off_c, 3, 58, 0
4, 292560, Note_on_c, 3, 60, 47
4, 292800, Note_off_c, 3, 60, 0
4, 292800, Note_on_c, 3, 58, 46
4, 293040, Note_off_c, 3, 58, 0
4, 293040, Note_on_c, 3, 60, 44
4, 293280, Note_off_c, 3, 60, 0
4, 293280, Note_on_c, 3, 58, 43
4, 293520, Note_off_c, 3, 58, 0
4, 293520, Note_on_c, 3, 60, 42
4, 293712, Note_off_c, 3, 60, 0
4, 293760, Note_on_c, 3, 57, 41
4, 294480, Note_off_c, 3, 57, 0
4, 326640, Note_on_c, 3, 60, 48
4, 326880, Note_off_c, 3, 60, 0
4, 327120, Note_on_c, 3, 60, 50
4, 327360, Note_off_c, 3, 60, 0
4, 327600, Note_on_c, 3, 60, 51
4, 327840, Note_off_c, 3, 60, 0
4, 328080, Note_on_c, 3, 60, 52
4, 328320, Note_off_c, 3, 60, 0
4, 328560, Note_on_c, 3, 60, 53
4, 328800, Note_off_c, 3, 60, 0
4, 329040, Note_on_c, 3, 53, 54
4, 329280, Note_off_c, 3, 53, 0
4, 329520, Note_on_c, 3, 53, 55
4, 329760, Note_off_c, 3, 53, 0
4, 330000, Note_on_c, 3, 58, 56
4, 330240, Note_off_c, 3, 58, 0
4, 330240, Note_on_c, 3, 57, 57
4, 330720, Note_off_c, 3, 57, 0
4, 330720, Note_on_c, 3, 55, 49
4, 331080, Note_off_c, 3, 55, 0
4, 462240, Control_c, 3, 64, 0
4, 501120, Control_c, 3, 64, 127
4, 502500, Control_c, 3, 64, 0
4, 502560, Control_c, 3, 64, 127
4, 503940, Control_c, 3, 64, 0
4, 504000, Control_c, 3, 64, 127
4, 505380, Control_c, 3, 64, 0
4, 505440, Control_c, 3, 64, 127
4, 506340, Control_c, 3, 64, 0
4, 506400, Control_c, 3, 64, 127
4, 506820, Control_c, 3, 64, 0
4, 506880, Control_c, 3, 64, 127
4, 507780, Control_c, 3, 64, 0
4, 507840, Control_c, 3, 64, 127
4, 508260, Control_c, 3, 64, 0
4, 508320, Note_on_c, 3, 57, 59
4, 508560, Note_off_c, 3, 57, 0
4, 508560, Note_on_c, 3, 60, 54
4, 508800, Note_off_c, 3, 60, 0
4, 508800, Note_on_c, 3, 57, 51
4, 509040, Note_off_c, 3, 57, 0
4, 509040, Note_on_c, 3, 60, 50
4, 509280, Note_off_c, 3, 60, 0
4, 509280, Note_on_c, 3, 58, 50
4, 509280, Note_on_c, 3, 55, 50
4, 509520, Note_off_c, 3, 55, 0
4, 509520, Note_off_c, 3, 58, 0
4, 509520, Note_on_c, 3, 60, 49
4, 509713, Note_off_c, 3, 60, 0
4, 509760, Note_on_c, 3, 57, 54
4, 510000, Note_off_c, 3, 57, 0
4, 510000, Note_on_c, 3, 60, 48
4, 510240, Note_off_c, 3, 60, 0
4, 510240, Note_on_c, 3, 57, 47
4, 510480, Note_off_c, 3, 57, 0
4, 510480, Note_on_c, 3, 60, 47
4, 510720, Note_off_c, 3, 60, 0
4, 510720, Note_on_c, 3, 58, 46
4, 510960, Note_off_c, 3, 58, 0
4, 510960, Note_on_c, 3, 60, 45
4, 511153, Note_off_c, 3, 60, 0
4, 511200, Note_on_c, 3, 64, 61
4, 511200, Note_on_c, 3, 55, 61
4, 511440, Note_off_c, 3, 55, 0
4, 511440, Note_off_c, 3, 64, 0
4, 511440, Note_on_c, 3, 60, 47
4, 511680, Note_off_c, 3, 60, 0
4, 511680, Note_on_c, 3, 65, 43
4, 511680, Note_on_c, 3, 57, 43
4, 511920, Note_off_c, 3, 57, 0
4, 511920, Note_off_c, 3, 65, 0
4, 511920, Note_on_c, 3, 60, 43
4, 512160, Note_off_c, 3, 60, 0
4, 512160, Note_on_c, 3, 58, 42
4, 512160, Note_on_c, 3, 55, 42
4, 512400, Note_off_c, 3, 55, 0
4, 512400, Note_off_c, 3, 58, 0
4, 512400, Note_on_c, 3, 60, 42
4, 512593, Note_off_c, 3, 60, 0
4, 512640, Note_on_c, 3, 57, 46
4, 512880, Note_off_c, 3, 57, 0
4, 512880, Note_on_c, 3, 60, 40
4, 513120, Note_off_c, 3, 60, 0
4, 513120, Note_on_c, 3, 57, 40
4, 513360, Note_off_c, 3, 57, 0
4, 513360, Note_on_c, 3, 60, 39
4, 513600, Note_off_c, 3, 60, 0
4, 513600, Note_on_c, 3, 58, 39
4, 513840, Note_off_c, 3, 58, 0
4, 513840, Note_on_c, 3, 60, 38
4, 514033, Note_off_c, 3, 60, 0
4, 521280, Note_on_c, 3, 57, 63
4, 521520, Note_off_c, 3, 57, 0
4, 521520, Note_on_c, 3, 60, 61
4, 521760, Note_off_c, 3, 60, 0
4, 521760, Note_on_c, 3, 57, 59
4, 522000, Note_off_c, 3, 57, 0
4, 522000, Note_on_c, 3, 60, 57
4, 522240, Note_off_c, 3, 60, 0
4, 522240, Note_on_c, 3, 55, 55
4, 522480, Note_off_c, 3, 55, 0
4, 522480, Note_on_c, 3, 58, 45
4, 522673, Note_off_c, 3, 58, 0
4, 522720, Note_on_c, 3, 53, 37
4, 522960, Note_off_c, 3, 53, 0
4, 522960, Note_on_c, 3, 57, 39
4, 523200, Note_off_c, 3, 57, 0
4, 523200, Note_on_c, 3, 53, 41
4, 523440, Note_off_c, 3, 53, 0
4, 523440, Note_on_c, 3, 57, 44
4, 523680, Note_off_c, 3, 57, 0
4, 523680, Note_on_c, 3, 52, 46
4, 523920, Note_off_c, 3, 52, 0
4, 523920, Note_on_c, 3, 55, 48
4, 524113, Note_off_c, 3, 55, 0
4, 524160, Note_on_c, 3, 57, 55
4, 524400, Note_off_c, 3, 57, 0
4, 524400, Note_on_c, 3, 60, 52
4, 524640, Note_off_c, 3, 60, 0
4, 524640, Note_on_c, 3, 55, 51
4, 524880, Note_off_c, 3, 55, 0
4, 524880, Note_on_c, 3, 57, 49
4, 525120, Note_off_c, 3, 57, 0
4, 525120, Note_on_c, 3, 53, 48
4, 525360, Note_off_c, 3, 53, 0
4, 525360, Note_on_c, 3, 56, 46
4, 525553, Note_off_c, 3, 56, 0
4, 525600, Note_on_c, 3, 57, 34
4, 525840, Note_off_c, 3, 57, 0
4, 525840, Note_on_c, 3, 60, 36
4, 526080, Note_off_c, 3, 60, 0
4, 526080, Note_on_c, 3, 53, 38
4, 526320, Note_off_c, 3, 53, 0
4, 526320, Note_on_c, 3, 57, 40
4, 526560, Note_off_c, 3, 57, 0
4, 526560, Note_on_c, 3, 55, 40
4, 526800, Note_off_c, 3, 55, 0
4, 526800, Note_on_c, 3, 58, 35
4, 526993, Note_off_c, 3, 58, 0
4, 527040, Note_on_c, 3, 58, 33
4, 527040, Note_on_c, 3, 60, 33
4, 527520, Note_off_c, 3, 58, 0
4, 527520, Note_on_c, 3, 57, 24
4, 527948, Note_off_c, 3, 57, 0
4, 527948, Note_off_c, 3, 60, 0
4, 563040, Control_c, 3, 64, 127
4, 564720, Control_c, 3, 64, 0
4, 565920, Control_c, 3, 64, 0
4, 599040, Control_c, 3, 64, 127
4, 600420, Control_c, 3, 64, 0
4, 600480, Control_c, 3, 64, 127
4, 601860, Control_c, 3, 64, 0
4, 601920, Control_c, 3, 64, 127
4, 603300, Control_c, 3, 64, 0
4, 603360, Control_c, 3, 64, 127
4, 604260, Control_c, 3, 64, 0
4, 604320, Control_c, 3, 64, 127
4, 604740, Control_c, 3, 64, 0
4, 604800, Control_c, 3, 64, 127
4, 605700, Control_c, 3, 64, 0
4, 605760, Control_c, 3, 64, 127
4, 606180, Control_c, 3, 64, 0
4, 617760, Note_on_c, 3, 61, 57
4, 618000, Note_off_c, 3, 61, 0
4, 618000, Note_on_c, 3, 62, 53
4, 618240, Note_off_c, 3, 62, 0
4, 618240, Note_on_c, 3, 63, 49
4, 618480, Note_off_c, 3, 63, 0
4, 618480, Note_on_c, 3, 64, 44
4, 618720, Note_off_c, 3, 64, 0
4, 618720, Note_on_c, 3, 65, 50
4, 618960, Note_off_c, 3, 65, 0
4, 618960, Note_on_c, 3, 63, 55
4, 619153, Note_off_c, 3, 63, 0
4, 619200, Note_on_c, 3, 62, 65
4, 619440, Note_off_c, 3, 62, 0
4, 619440, Note_on_c, 3, 65, 63
4, 619680, Note_off_c, 3, 65, 0
4, 619680, Note_on_c, 3, 62, 61
4, 619920, Note_off_c, 3, 62, 0
4, 619920, Note_on_c, 3, 65, 60
4, 620160, Note_off_c, 3, 65, 0
4, 620160, Note_on_c, 3, 60, 58
4, 620400, Note_off_c, 3, 60, 0
4, 620400, Note_on_c, 3, 63, 52
4, 620593, Note_off_c, 3, 63, 0
4, 620640, Note_on_c, 3, 58, 44
4, 620880, Note_off_c, 3, 58, 0
4, 620880, Note_on_c, 3, 62, 45
4, 621120, Note_off_c, 3, 62, 0
4, 621120, Note_on_c, 3, 58, 47
4, 621360, Note_off_c, 3, 58, 0
4, 621360, Note_on_c, 3, 62, 48
4, 621600, Note_off_c, 3, 62, 0
4, 621600, Note_on_c, 3, 57, 50
4, 621840, Note_off_c, 3, 57, 0
4, 621840, Note_on_c, 3, 60, 51
4, 622033, Note_off_c, 3, 60, 0
4, 622080, Note_on_c, 3, 62, 56
4, 622320, Note_off_c, 3, 62, 0
4, 622320, Note_on_c, 3, 65, 54
4, 622560, Note_off_c, 3, 65, 0
4, 622560, Note_on_c, 3, 60, 53
4, 622800, Note_off_c, 3, 60, 0
4, 622800, Note_on_c, 3, 62, 51
4, 623040, Note_off_c, 3, 62, 0
4, 623040, Note_on_c, 3, 58, 51
4, 623280, Note_off_c, 3, 58, 0
4, 623280, Note_on_c, 3, 61, 49
4, 623473, Note_off_c, 3, 61, 0
4, 623520, Note_on_c, 3, 62, 46
4, 623760, Note_off_c, 3, 62, 0
4, 623760, Note_on_c, 3, 65, 42
4, 624000, Note_off_c, 3, 65, 0
4, 624000, Note_on_c, 3, 58, 45
4, 624240, Note_off_c, 3, 58, 0
4, 624240, Note_on_c, 3, 62, 47
4, 624480, Note_off_c, 3, 62, 0
4, 624480, Note_on_c, 3, 60, 49
4, 624720, Note_off_c, 3, 60, 0
4, 624720, Note_on_c, 3, 63, 47
4, 624913, Note_off_c, 3, 63, 0
4, 624960, Note_on_c, 3, 62, 45
4, 625410, Note_off_c, 3, 62, 0
4, 636480, Note_on_c, 3, 53, 37
4, 636480, Note_on_c, 3, 51, 37
4, 636480, Note_on_c, 3, 57, 37
4, 636960, Note_off_c, 3, 57, 0
4, 636960, Note_off_c, 3, 51, 0
4, 636960, Note_on_c, 3, 50, 31
4, 637200, Note_off_c, 3, 50, 0
4, 637200, Note_off_c, 3, 53, 0
4, 640320, Note_on_c, 3, 72, 48
4, 640800, Note_off_c, 3, 72, 0
4, 641280, Note_on_c, 3, 72, 52
4, 641700, Note_off_c, 3, 72, 0
4, 642240, Note_on_c, 3, 72, 54
4, 642720, Note_off_c, 3, 72, 0
4, 643200, Note_on_c, 3, 72, 55
4, 643626, Note_off_c, 3, 72, 0
4, 644160, Note_on_c, 3, 72, 61
4, 644646, Note_off_c, 3, 72, 0
4, 645120, Note_on_c, 3, 72, 57
4, 645480, Note_off_c, 3, 72, 0
4, 645600, Note_on_c, 3, 72, 64
4, 647460, Note_off_c, 3, 72, 0
4, 651840, Note_on_c, 3, 72, 50
4, 652320, Note_off_c, 3, 72, 0
4, 652800, Note_on_c, 3, 72, 54
4, 653226, Note_off_c, 3, 72, 0
4, 653760, Note_on_c, 3, 72, 54
4, 654240, Note_off_c, 3, 72, 0
4, 654720, Note_on_c, 3, 72, 55
4, 655146, Note_off_c, 3, 72, 0
4, 655680, Note_on_c, 3, 72, 57
4, 656160, Note_off_c, 3, 72, 0
4, 656640, Note_on_c, 3, 72, 60
4, 657066, Note_off_c, 3, 72, 0
4, 657120, Note_on_c, 3, 72, 66
4, 658986, Note_off_c, 3, 72, 0
4, 663360, Note_on_c, 3, 72, 45
4, 663780, Note_off_c, 3, 72, 0
4, 664320, Note_on_c, 3, 72, 49
4, 664740, Note_off_c, 3, 72, 0
4, 665280, Note_on_c, 3, 71, 50
4, 665760, Note_off_c, 3, 71, 0
4, 666240, Note_on_c, 3, 72, 44
4, 666666, Note_off_c, 3, 72, 0
4, 667200, Note_on_c, 3, 72, 51
4, 667680, Note_off_c, 3, 72, 0
4, 668160, Note_on_c, 3, 72, 56
4, 668580, Note_off_c, 3, 72, 0
4, 669120, Note_on_c, 3, 71, 59
4, 669606, Note_off_c, 3, 71, 0
4, 670080, Note_on_c, 3, 72, 55
4, 670500, Note_off_c, 3, 72, 0
4, 670560, Note_on_c, 3, 69, 54
4, 671520, Note_off_c, 3, 69, 0
4, 674880, Note_on_c, 3, 60, 53
4, 675360, Note_off_c, 3, 60, 0
4, 675840, Note_on_c, 3, 60, 56
4, 676260, Note_off_c, 3, 60, 0
4, 676800, Note_on_c, 3, 62, 62
4, 677280, Note_off_c, 3, 62, 0
4, 677760, Note_on_c, 3, 60, 58
4, 678180, Note_off_c, 3, 60, 0
4, 678720, Note_on_c, 3, 60, 58
4, 679200, Note_off_c, 3, 60, 0
4, 679680, Note_on_c, 3, 60, 63
4, 680160, Note_off_c, 3, 60, 0
4, 680640, Note_on_c, 3, 62, 68
4, 681120, Note_off_c, 3, 62, 0
4, 681600, Note_on_c, 3, 60, 68
4, 682026, Note_off_c, 3, 60, 0
4, 695520, Note_on_c, 3, 64, 48
4, 696000, Note_on_c, 3, 55, 44
4, 696480, Note_off_c, 3, 55, 0
4, 696960, Note_on_c, 3, 55, 52
4, 697380, Note_off_c, 3, 64, 0
4, 697394, Note_off_c, 3, 55, 0
4, 697440, Note_on_c, 3, 65, 60
4, 697920, Note_on_c, 3, 55, 65
4, 698400, Note_off_c, 3, 55, 0
4, 698880, Note_on_c, 3, 55, 54
4, 699306, Note_off_c, 3, 55, 0
4, 699314, Note_off_c, 3, 65, 0
4, 699360, Note_on_c, 3, 64, 48
4, 699840, Note_on_c, 3, 55, 42
4, 700200, Note_off_c, 3, 55, 0
4, 700800, Note_on_c, 3, 55, 59
4, 701220, Note_off_c, 3, 64, 0
4, 701226, Note_off_c, 3, 55, 0
4, 701280, Note_on_c, 3, 65, 67
4, 701760, Note_on_c, 3, 55, 71
4, 702180, Note_off_c, 3, 55, 0
4, 702720, Note_on_c, 3, 55, 60
4, 703140, Note_off_c, 3, 55, 0
4, 703154, Note_off_c, 3, 65, 0
4, 703200, Note_on_c, 3, 64, 55
4, 703620, Note_off_c, 3, 64, 0
4, 713280, Note_on_c, 3, 72, 41
4, 713760, Note_off_c, 3, 72, 0
4, 714240, Note_on_c, 3, 72, 46
4, 714660, Note_off_c, 3, 72, 0
4, 715200, Note_on_c, 3, 72, 46
4, 715680, Note_off_c, 3, 72, 0
4, 716160, Note_on_c, 3, 72, 46
4, 716586, Note_off_c, 3, 72, 0
4, 717120, Note_on_c, 3, 72, 48
4, 717600, Note_off_c, 3, 72, 0
4, 718080, Note_on_c, 3, 72, 49
4, 718514, Note_off_c, 3, 72, 0
4, 718560, Note_on_c, 3, 72, 54
4, 720412, Note_off_c, 3, 72, 0
4, 724800, Note_on_c, 3, 72, 48
4, 725280, Note_off_c, 3, 72, 0
4, 725760, Note_on_c, 3, 72, 53
4, 726180, Note_off_c, 3, 72, 0
4, 726720, Note_on_c, 3, 72, 52
4, 727200, Note_off_c, 3, 72, 0
4, 727680, Note_on_c, 3, 72, 52
4, 728106, Note_off_c, 3, 72, 0
4, 728640, Note_on_c, 3, 72, 53
4, 729120, Note_off_c, 3, 72, 0
4, 729600, Note_on_c, 3, 72, 54
4, 730026, Note_off_c, 3, 72, 0
4, 730080, Note_on_c, 3, 72, 58
4, 731580, Note_off_c, 3, 72, 0
4, 744000, Note_on_c, 3, 69, 44
4, 744480, Note_off_c, 3, 69, 0
4, 744960, Note_on_c, 3, 69, 48
4, 745394, Note_off_c, 3, 69, 0
4, 745920, Note_on_c, 3, 69, 52
4, 746400, Note_off_c, 3, 69, 0
4, 746880, Note_on_c, 3, 69, 56
4, 747360, Note_off_c, 3, 69, 0
4, 747360, Note_on_c, 3, 69, 61
4, 748800, Note_on_c, 3, 68, 52
4, 748806, Note_off_c, 3, 69, 0
4, 749280, Note_off_c, 3, 68, 0
4, 749280, Note_on_c, 3, 69, 50
4, 749706, Note_off_c, 3, 69, 0
4, 759360, Note_on_c, 3, 58, 74
4, 759840, Note_off_c, 3, 58, 0
4, 760320, Note_on_c, 3, 57, 60
4, 760754, Note_off_c, 3, 57, 0
4, 761280, Note_on_c, 3, 58, 74
4, 761760, Note_off_c, 3, 58, 0
4, 761760, Note_on_c, 3, 57, 68
4, 762240, Note_off_c, 3, 57, 0
4, 762240, Note_on_c, 3, 62, 62
4, 762652, Note_off_c, 3, 62, 0
4, 762720, Note_on_c, 3, 58, 56
4, 763200, Note_off_c, 3, 58, 0
4, 763200, Note_on_c, 3, 67, 58
4, 763680, Note_off_c, 3, 67, 0
4, 763680, Note_on_c, 3, 65, 59
4, 764160, Note_off_c, 3, 65, 0
4, 764160, Note_on_c, 3, 64, 61
4, 764594, Note_off_c, 3, 64, 0
4, 768720, Note_on_c, 3, 65, 59
4, 768960, Note_off_c, 3, 65, 0
4, 768960, Note_on_c, 3, 62, 60
4, 769200, Note_off_c, 3, 62, 0
4, 769200, Note_on_c, 3, 65, 61
4, 769440, Note_off_c, 3, 65, 0
4, 769680, Note_on_c, 3, 65, 64
4, 769860, Note_off_c, 3, 65, 0
4, 769920, Note_on_c, 3, 62, 65
4, 770160, Note_off_c, 3, 62, 0
4, 770160, Note_on_c, 3, 65, 66
4, 770354, Note_off_c, 3, 65, 0
4, 770640, Note_on_c, 3, 65, 63
4, 770820, Note_off_c, 3, 65, 0
4, 770880, Note_on_c, 3, 63, 61
4, 771060, Note_off_c, 3, 63, 0
4, 771120, Note_on_c, 3, 65, 58
4, 771360, Note_off_c, 3, 65, 0
4, 771600, Note_on_c, 3, 65, 53
4, 771840, Note_off_c, 3, 65, 0
4, 771840, Note_on_c, 3, 63, 51
4, 772080, Note_off_c, 3, 63, 0
4, 772080, Note_on_c, 3, 65, 48
4, 772266, Note_off_c, 3, 65, 0
4, 772560, Note_on_c, 3, 65, 45
4, 772800, Note_off_c, 3, 65, 0
4, 772800, Note_on_c, 3, 62, 47
4, 773040, Note_off_c, 3, 62, 0
4, 773040, Note_on_c, 3, 65, 48
4, 773220, Note_off_c, 3, 65, 0
4, 773520, Note_on_c, 3, 65, 51
4, 773760, Note_off_c, 3, 65, 0
4, 773760, Note_on_c, 3, 62, 52
4, 774000, Note_off_c, 3, 62, 0
4, 774000, Note_on_c, 3, 65, 54
4, 774194, Note_off_c, 3, 65, 0
4, 774480, Note_on_c, 3, 65, 54
4, 774660, Note_off_c, 3, 65, 0
4, 774720, Note_on_c, 3, 63, 51
4, 774960, Note_off_c, 3, 63, 0
4, 774960, Note_on_c, 3, 65, 49
4, 775200, Note_off_c, 3, 65, 0
4, 775440, Note_on_c, 3, 65, 45
4, 775680, Note_off_c, 3, 65, 0
4, 775680, Note_on_c, 3, 63, 43
4, 775920, Note_off_c, 3, 63, 0
4, 775920, Note_on_c, 3, 65, 40
4, 776106, Note_off_c, 3, 65, 0
4, 776400, Note_on_c, 3, 65, 66
4, 776640, Note_off_c, 3, 65, 0
4, 776640, Note_on_c, 3, 62, 67
4, 776880, Note_off_c, 3, 62, 0
4, 776880, Note_on_c, 3, 65, 68
4, 777120, Note_off_c, 3, 65, 0
4, 777360, Note_on_c, 3, 65, 71
4, 777600, Note_off_c, 3, 65, 0
4, 777600, Note_on_c, 3, 62, 72
4, 777840, Note_off_c, 3, 62, 0
4, 777840, Note_on_c, 3, 65, 74
4, 778034, Note_off_c, 3, 65, 0
4, 778320, Note_on_c, 3, 62, 74
4, 778500, Note_off_c, 3, 62, 0
4, 778560, Note_on_c, 3, 60, 72
4, 778800, Note_off_c, 3, 60, 0
4, 778800, Note_on_c, 3, 62, 70
4, 779040, Note_off_c, 3, 62, 0
4, 779280, Note_on_c, 3, 62, 66
4, 779520, Note_off_c, 3, 62, 0
4, 779520, Note_on_c, 3, 60, 64
4, 779760, Note_off_c, 3, 60, 0
4, 779760, Note_on_c, 3, 62, 62
4, 779932, Note_off_c, 3, 62, 0
4, 780240, Note_on_c, 3, 62, 68
4, 780420, Note_off_c, 3, 62, 0
4, 780480, Note_on_c, 3, 58, 70
4, 780720, Note_off_c, 3, 58, 0
4, 780720, Note_on_c, 3, 62, 72
4, 780960, Note_off_c, 3, 62, 0
4, 781200, Note_on_c, 3, 62, 75
4, 781440, Note_off_c, 3, 62, 0
4, 781440, Note_on_c, 3, 58, 77
4, 781680, Note_off_c, 3, 58, 0
4, 781680, Note_on_c, 3, 62, 79
4, 781860, Note_off_c, 3, 62, 0
4, 782160, Note_on_c, 3, 60, 77
4, 782400, Note_off_c, 3, 60, 0
4, 782400, Note_on_c, 3, 58, 74
4, 782640, Note_off_c, 3, 58, 0
4, 782640, Note_on_c, 3, 60, 72
4, 782880, Note_off_c, 3, 60, 0
4, 783120, Note_on_c, 3, 60, 66
4, 783360, Note_off_c, 3, 60, 0
4, 783360, Note_on_c, 3, 58, 63
4, 783600, Note_off_c, 3, 58, 0
4, 783600, Note_on_c, 3, 60, 60
4, 783786, Note_off_c, 3, 60, 0
4, 784080, Note_on_c, 3, 60, 71
4, 784320, Note_off_c, 3, 60, 0
4, 784320, Note_on_c, 3, 56, 72
4, 784560, Note_off_c, 3, 56, 0
4, 784560, Note_on_c, 3, 60, 73
4, 784800, Note_off_c, 3, 60, 0
4, 785040, Note_on_c, 3, 60, 75
4, 785280, Note_off_c, 3, 60, 0
4, 785280, Note_on_c, 3, 56, 76
4, 785520, Note_off_c, 3, 56, 0
4, 785520, Note_on_c, 3, 60, 76
4, 785706, Note_off_c, 3, 60, 0
4, 786000, Note_on_c, 3, 56, 78
4, 786240, Note_off_c, 3, 56, 0
4, 786240, Note_on_c, 3, 53, 79
4, 786480, Note_off_c, 3, 53, 0
4, 786480, Note_on_c, 3, 56, 80
4, 786720, Note_off_c, 3, 56, 0
4, 786960, Note_on_c, 3, 56, 82
4, 787200, Note_off_c, 3, 56, 0
4, 787200, Note_on_c, 3, 53, 83
4, 787440, Note_off_c, 3, 53, 0
4, 787440, Note_on_c, 3, 56, 84
4, 787626, Note_off_c, 3, 56, 0
4, 797760, Note_on_c, 3, 72, 42
4, 798240, Note_off_c, 3, 72, 0
4, 798720, Note_on_c, 3, 72, 47
4, 799146, Note_off_c, 3, 72, 0
4, 799680, Note_on_c, 3, 72, 48
4, 800160, Note_off_c, 3, 72, 0
4, 800640, Note_on_c, 3, 72, 50
4, 801074, Note_off_c, 3, 72, 0
4, 801600, Note_on_c, 3, 72, 52
4, 802080, Note_off_c, 3, 72, 0
4, 802560, Note_on_c, 3, 72, 51
4, 802980, Note_off_c, 3, 72, 0
4, 803040, Note_on_c, 3, 72, 55
4, 804914, Note_off_c, 3, 72, 0
4, 809280, Note_on_c, 3, 72, 50
4, 809760, Note_off_c, 3, 72, 0
4, 810240, Note_on_c, 3, 72, 55
4, 810666, Note_off_c, 3, 72, 0
4, 811200, Note_on_c, 3, 72, 54
4, 811680, Note_off_c, 3, 72, 0
4, 812160, Note_on_c, 3, 72, 56
4, 812594, Note_off_c, 3, 72, 0
4, 813120, Note_on_c, 3, 72, 61
4, 813600, Note_off_c, 3, 72, 0
4, 814080, Note_on_c, 3, 72, 63
4, 814500, Note_off_c, 3, 72, 0
4, 814560, Note_on_c, 3, 72, 69
4, 815946, Note_off_c, 3, 72, 0
4, 820320, Control_c, 3, 64, 0
4, 835680, Control_c, 3, 64, 0
4, 851040, Control_c, 3, 64, 0
4, 877920, Control_c, 3, 64, 0
4, 902880, Control_c, 3, 64, 0
4, 911040, Note_on_c, 3, 72, 46
4, 911520, Note_off_c, 3, 72, 0
4, 912000, Note_on_c, 3, 72, 52
4, 912420, Note_off_c, 3, 72, 0
4, 912960, Note_on_c, 3, 72, 51
4, 913440, Note_off_c, 3, 72, 0
4, 913920, Note_on_c, 3, 72, 53
4, 914354, Note_off_c, 3, 72, 0
4, 914880, Note_on_c, 3, 72, 54
4, 915360, Note_off_c, 3, 72, 0
4, 915840, Note_on_c, 3, 72, 57
4, 916260, Note_off_c, 3, 72, 0
4, 916320, Note_on_c, 3, 72, 64
4, 916560, Note_off_c, 3, 72, 0
4, 916800, Note_on_c, 3, 72, 57
4, 917040, Note_off_c, 3, 72, 0
4, 917280, Note_on_c, 3, 72, 57
4, 917520, Note_off_c, 3, 72, 0
4, 917760, Note_on_c, 3, 72, 52
4, 918000, Note_off_c, 3, 72, 0
4, 918720, Note_on_c, 3, 58, 52
4, 919200, Note_off_c, 3, 58, 0
4, 919200, Note_on_c, 3, 62, 56
4, 919680, Note_off_c, 3, 62, 0
4, 919680, Note_on_c, 3, 59, 59
4, 920160, Note_on_c, 3, 60, 59
4, 920166, Note_off_c, 3, 59, 0
4, 921554, Note_off_c, 3, 60, 0
4, 922560, Note_on_c, 3, 60, 55
4, 923040, Note_off_c, 3, 60, 0
4, 923520, Note_on_c, 3, 60, 57
4, 923940, Note_off_c, 3, 60, 0
4, 924480, Note_on_c, 3, 60, 59
4, 924960, Note_off_c, 3, 60, 0
4, 925440, Note_on_c, 3, 60, 60
4, 925874, Note_off_c, 3, 60, 0
4, 926400, Note_on_c, 3, 60, 62
4, 926880, Note_off_c, 3, 60, 0
4, 927360, Note_on_c, 3, 60, 64
4, 927780, Note_off_c, 3, 60, 0
4, 927840, Note_on_c, 3, 60, 67
4, 929220, Note_off_c, 3, 60, 0
4, 929280, Note_on_c, 3, 53, 62
4, 929700, Note_off_c, 3, 53, 0
4, 929760, Note_on_c, 3, 50, 60
4, 929760, Note_on_c, 3, 55, 60
4, 930180, Note_off_c, 3, 50, 0
4, 930186, Note_off_c, 3, 55, 0
4, 931440, Note_on_c, 3, 70, 69
4, 931566, Note_off_c, 3, 70, 0
4, 931680, Note_on_c, 3, 70, 72
4, 932640, Note_off_c, 3, 70, 0
4, 932640, Note_on_c, 3, 69, 61
4, 933066, Note_off_c, 3, 69, 0
4, 934080, Note_on_c, 3, 53, 46
4, 934560, Note_off_c, 3, 53, 0
4, 935040, Note_on_c, 3, 53, 50
4, 935460, Note_off_c, 3, 53, 0
4, 936000, Note_on_c, 3, 55, 53
4, 936486, Note_off_c, 3, 55, 0
4, 936960, Note_on_c, 3, 53, 51
4, 937380, Note_off_c, 3, 53, 0
4, 937920, Note_on_c, 3, 65, 49
4, 938400, Note_off_c, 3, 65, 0
4, 938880, Note_on_c, 3, 65, 55
4, 939300, Note_off_c, 3, 65, 0
4, 939840, Note_on_c, 3, 67, 60
4, 940320, Note_off_c, 3, 67, 0
4, 940800, Note_on_c, 3, 65, 57
4, 941226, Note_off_c, 3, 65, 0
4, 1006560, Note_on_c, 3, 69, 71
4, 1007040, Note_on_c, 3, 60, 46
4, 1007535, Note_off_c, 3, 60, 0
4, 1008000, Note_on_c, 3, 60, 58
4, 1008420, Note_off_c, 3, 60, 0
4, 1008434, Note_off_c, 3, 69, 0
4, 1008480, Note_on_c, 3, 70, 67
4, 1008960, Note_on_c, 3, 60, 65
4, 1009447, Note_off_c, 3, 60, 0
4, 1009920, Note_on_c, 3, 60, 59
4, 1010340, Note_off_c, 3, 60, 0
4, 1010340, Note_off_c, 3, 70, 0
4, 1010400, Note_on_c, 3, 69, 57
4, 1010880, Note_on_c, 3, 60, 54
4, 1011360, Note_off_c, 3, 60, 0
4, 1011840, Note_on_c, 3, 60, 67
4, 1012266, Note_off_c, 3, 60, 0
4, 1012266, Note_off_c, 3, 69, 0
4, 1012320, Note_on_c, 3, 70, 75
4, 1012800, Note_on_c, 3, 60, 72
4, 1013280, Note_off_c, 3, 60, 0
4, 1013760, Note_on_c, 3, 60, 67
4, 1014186, Note_off_c, 3, 70, 0
4, 1014202, Note_off_c, 3, 60, 0
4, 1014202, End_track
5, 0, Start_track
5, 0, Title_t, "Unnamed Track"
5, 0, Control_c, 4, 0, 0
5, 0, Control_c, 4, 32, 0
5, 0, Program_c, 4, 0
5, 0, Control_c, 4, 7, 120
5, 0, Pitch_bend_c, 4, 8192
5, 0, Control_c, 4, 1, 0
5, 0, Control_c, 4, 93, 19
5, 0, Control_c, 4, 91, 100
5, 0, Control_c, 4, 10, 55
5, 0, Control_c, 4, 64, 0
5, 31200, Note_on_c, 4, 72, 68
5, 31440, Note_off_c, 4, 72, 0
5, 31440, Note_on_c, 4, 70, 66
5, 31680, Note_off_c, 4, 70, 0
5, 31680, Note_on_c, 4, 69, 64
5, 31836, Note_off_c, 4, 69, 0
5, 32160, Note_on_c, 4, 69, 60
5, 32400, Note_off_c, 4, 69, 0
5, 32400, Note_on_c, 4, 67, 59
5, 32640, Note_off_c, 4, 67, 0
5, 32640, Note_on_c, 4, 65, 57
5, 32796, Note_off_c, 4, 65, 0
5, 33120, Note_on_c, 4, 65, 53
5, 33360, Note_off_c, 4, 65, 0
5, 33360, Note_on_c, 4, 64, 51
5, 33600, Note_off_c, 4, 64, 0
5, 33600, Note_on_c, 4, 62, 50
5, 33756, Note_off_c, 4, 62, 0
5, 34080, Note_on_c, 4, 62, 46
5, 34320, Note_off_c, 4, 62, 0
5, 34320, Note_on_c, 4, 60, 44
5, 34560, Note_off_c, 4, 60, 0
5, 34560, Note_on_c, 4, 58, 42
5, 35880, Note_off_c, 4, 58, 0
5, 36480, Note_on_c, 4, 58, 61
5, 38347, Note_off_c, 4, 58, 0
5, 38400, Note_on_c, 4, 57, 51
5, 39300, Note_off_c, 4, 57, 0
5, 39360, Note_on_c, 4, 55, 58
5, 40267, Note_off_c, 4, 55, 0
5, 41280, Note_on_c, 4, 58, 47
5, 42180, Note_off_c, 4, 58, 0
5, 42240, Note_on_c, 4, 53, 57
5, 42240, Note_on_c, 4, 59, 57
5, 44100, Note_off_c, 4, 59, 0
5, 44100, Note_off_c, 4, 53, 0
5, 87840, Note_on_c, 4, 61, 62
5, 88320, Note_off_c, 4, 61, 0
5, 88320, Note_on_c, 4, 62, 53
5, 88560, Note_off_c, 4, 62, 0
5, 88800, Note_on_c, 4, 64, 54
5, 89040, Note_off_c, 4, 64, 0
5, 89280, Note_on_c, 4, 65, 55
5, 89520, Note_off_c, 4, 65, 0
5, 89760, Note_on_c, 4, 67, 57
5, 90000, Note_off_c, 4, 67, 0
5, 90240, Note_on_c, 4, 69, 58
5, 90480, Note_off_c, 4, 69, 0
5, 91680, Note_on_c, 4, 55, 64
5, 92400, Note_off_c, 4, 55, 0
5, 92640, Note_on_c, 4, 57, 63
5, 93120, Note_off_c, 4, 57, 0
5, 93120, Note_on_c, 4, 60, 61
5, 93600, Note_off_c, 4, 60, 0
5, 110880, Note_on_c, 4, 75, 70
5, 111360, Note_off_c, 4, 75, 0
5, 111360, Note_on_c, 4, 74, 70
5, 111840, Note_off_c, 4, 74, 0
5, 111840, Note_on_c, 4, 72, 71
5, 112320, Note_off_c, 4, 72, 0
5, 112320, Note_on_c, 4, 71, 71
5, 112800, Note_off_c, 4, 71, 0
5, 112800, Note_on_c, 4, 69, 71
5, 113280, Note_off_c, 4, 69, 0
5, 113280, Note_on_c, 4, 67, 72
5, 113640, Note_off_c, 4, 67, 0
5, 118560, Note_on_c, 4, 60, 76
5, 119400, Note_off_c, 4, 60, 0
5, 122400, Note_on_c, 4, 62, 80
5, 122760, Note_off_c, 4, 62, 0
5, 122880, Note_on_c, 4, 62, 77
5, 123240, Note_off_c, 4, 62, 0
5, 124320, Note_on_c, 4, 60, 81
5, 124320, Note_on_c, 4, 62, 81
5, 124680, Note_off_c, 4, 62, 0
5, 124680, Note_off_c, 4, 60, 0
5, 124800, Note_on_c, 4, 59, 82
5, 124800, Note_on_c, 4, 62, 82
5, 125160, Note_off_c, 4, 59, 0
5, 125280, Note_on_c, 4, 60, 80
5, 125640, Note_off_c, 4, 60, 0
5, 125640, Note_off_c, 4, 62, 0
5, 125760, Note_on_c, 4, 59, 82
5, 125760, Note_on_c, 4, 62, 82
5, 126120, Note_off_c, 4, 59, 0
5, 126240, Note_on_c, 4, 60, 80
5, 126600, Note_off_c, 4, 60, 0
5, 126600, Note_off_c, 4, 62, 0
5, 126720, Note_on_c, 4, 62, 83
5, 126720, Note_on_c, 4, 59, 83
5, 127080, Note_off_c, 4, 59, 0
5, 127080, Note_off_c, 4, 62, 0
5, 134880, Note_on_c, 4, 64, 59
5, 135360, Note_off_c, 4, 64, 0
5, 135360, Note_on_c, 4, 65, 61
5, 135840, Note_off_c, 4, 65, 0
5, 135840, Note_on_c, 4, 62, 62
5, 136320, Note_off_c, 4, 62, 0
5, 136320, Note_on_c, 4, 64, 64
5, 136800, Note_off_c, 4, 64, 0
5, 136800, Note_on_c, 4, 61, 66
5, 137280, Note_off_c, 4, 61, 0
5, 137280, Note_on_c, 4, 62, 67
5, 137760, Note_off_c, 4, 62, 0
5, 137760, Note_on_c, 4, 64, 69
5, 138240, Note_off_c, 4, 64, 0
5, 138240, Note_on_c, 4, 65, 71
5, 140400, Note_off_c, 4, 65, 0
5, 140400, Note_on_c, 4, 62, 77
5, 140640, Note_off_c, 4, 62, 0
5, 140640, Note_on_c, 4, 64, 76
5, 140880, Note_off_c, 4, 64, 0
5, 140880, Note_on_c, 4, 65, 76
5, 141120, Note_off_c, 4, 65, 0
5, 141120, Note_on_c, 4, 64, 75
5, 141360, Note_off_c, 4, 64, 0
5, 141360, Note_on_c, 4, 60, 75
5, 141600, Note_off_c, 4, 60, 0
5, 141600, Note_on_c, 4, 66, 74
5, 141840, Note_off_c, 4, 66, 0
5, 141840, Note_on_c, 4, 62, 74
5, 142032, Note_off_c, 4, 62, 0
5, 142080, Note_on_c, 4, 67, 73
5, 142680, Note_off_c, 4, 67, 0
5, 142800, Note_on_c, 4, 64, 72
5, 142956, Note_off_c, 4, 64, 0
5, 143040, Note_on_c, 4, 65, 71
5, 143647, Note_off_c, 4, 65, 0
5, 143760, Note_on_c, 4, 63, 70
5, 143916, Note_off_c, 4, 63, 0
5, 144000, Note_on_c, 4, 64, 69
5, 144600, Note_off_c, 4, 64, 0
5, 144720, Note_on_c, 4, 61, 68
5, 144876, Note_off_c, 4, 61, 0
5, 144960, Note_on_c, 4, 62, 67
5, 148800, Note_off_c, 4, 62, 0
5, 148800, Note_on_c, 4, 61, 66
5, 149760, Note_off_c, 4, 61, 0
5, 149760, Note_on_c, 4, 62, 57
5, 150120, Note_off_c, 4, 62, 0
5, 151200, Note_on_c, 4, 69, 54
5, 152040, Note_off_c, 4, 69, 0
5, 153120, Note_on_c, 4, 67, 50
5, 154500, Note_off_c, 4, 67, 0
5, 154560, Note_on_c, 4, 65, 47
5, 155475, Note_off_c, 4, 65, 0
5, 155520, Note_on_c, 4, 64, 45
5, 156480, Note_off_c, 4, 64, 0
5, 156480, Note_on_c, 4, 62, 43
5, 157395, Note_off_c, 4, 62, 0
5, 157440, Note_on_c, 4, 60, 100
5, 157440, Note_on_c, 4, 66, 100
5, 158640, Note_off_c, 4, 66, 0
5, 158640, Note_off_c, 4, 60, 0
5, 158880, Note_on_c, 4, 60, 91
5, 158880, Note_on_c, 4, 66, 91
5, 159120, Note_off_c, 4, 66, 0
5, 159120, Note_off_c, 4, 60, 0
5, 159360, Note_on_c, 4, 60, 73
5, 159360, Note_on_c, 4, 64, 73
5, 159360, Note_on_c, 4, 67, 73
5, 160545, Note_off_c, 4, 67, 0
5, 160560, Note_off_c, 4, 64, 0
5, 160560, Note_off_c, 4, 60, 0
5, 160800, Note_on_c, 4, 60, 66
5, 160800, Note_on_c, 4, 64, 66
5, 161040, Note_off_c, 4, 64, 0
5, 161040, Note_off_c, 4, 60, 0
5, 161280, Note_on_c, 4, 57, 99
5, 161280, Note_on_c, 4, 60, 99
5, 161280, Note_on_c, 4, 64, 99
5, 162465, Note_off_c, 4, 64, 0
5, 162480, Note_off_c, 4, 60, 0
5, 162495, Note_off_c, 4, 57, 0
5, 162720, Note_on_c, 4, 57, 89
5, 162720, Note_on_c, 4, 60, 89
5, 162720, Note_on_c, 4, 64, 89
5, 162960, Note_off_c, 4, 64, 0
5, 162960, Note_off_c, 4, 60, 0
5, 162960, Note_off_c, 4, 57, 0
5, 163200, Note_on_c, 4, 60, 63
5, 163200, Note_on_c, 4, 64, 63
5, 164385, Note_off_c, 4, 64, 0
5, 164385, Note_off_c, 4, 60, 0
5, 164640, Note_on_c, 4, 64, 59
5, 164640, Note_on_c, 4, 60, 59
5, 164880, Note_off_c, 4, 60, 0
5, 164880, Note_off_c, 4, 64, 0
5, 165120, Note_on_c, 4, 60, 98
5, 165120, Note_on_c, 4, 63, 98
5, 165120, Note_on_c, 4, 66, 98
5, 166305, Note_off_c, 4, 60, 0
5, 166320, Note_off_c, 4, 66, 0
5, 166335, Note_off_c, 4, 63, 0
5, 166560, Note_on_c, 4, 60, 89
5, 166560, Note_on_c, 4, 63, 89
5, 166560, Note_on_c, 4, 66, 89
5, 166800, Note_off_c, 4, 66, 0
5, 166800, Note_off_c, 4, 63, 0
5, 166800, Note_off_c, 4, 60, 0
5, 167040, Note_on_c, 4, 67, 87
5, 167040, Note_on_c, 4, 60, 87
5, 167040, Note_on_c, 4, 64, 87
5, 167280, Note_off_c, 4, 64, 0
5, 167280, Note_off_c, 4, 60, 0
5, 167280, Note_off_c, 4, 67, 0
5, 168960, Note_on_c, 4, 60, 80
5, 169920, Note_off_c, 4, 60, 0
5, 169920, Note_on_c, 4, 59, 77
5, 170857, Note_off_c, 4, 59, 0
5, 212640, Note_on_c, 4, 50, 64
5, 212880, Note_off_c, 4, 50, 0
5, 213120, Note_on_c, 4, 48, 69
5, 213600, Note_off_c, 4, 48, 0
5, 213600, Note_on_c, 4, 46, 66
5, 213960, Note_off_c, 4, 46, 0
5, 214560, Note_on_c, 4, 58, 73
5, 214800, Note_off_c, 4, 58, 0
5, 215040, Note_on_c, 4, 57, 79
5, 215520, Note_off_c, 4, 57, 0
5, 215520, Note_on_c, 4, 55, 75
5, 215880, Note_off_c, 4, 55, 0
5, 220960, Note_on_c, 4, 53, 72
5, 221088, Note_off_c, 4, 53, 0
5, 221120, Note_on_c, 4, 57, 72
5, 221248, Note_off_c, 4, 57, 0
5, 221440, Note_on_c, 4, 52, 70
5, 221568, Note_off_c, 4, 52, 0
5, 221600, Note_on_c, 4, 57, 70
5, 221728, Note_off_c, 4, 57, 0
5, 221920, Note_on_c, 4, 50, 69
5, 222048, Note_off_c, 4, 50, 0
5, 222080, Note_on_c, 4, 57, 68
5, 222208, Note_off_c, 4, 57, 0
5, 222400, Note_on_c, 4, 50, 67
5, 222528, Note_off_c, 4, 50, 0
5, 222560, Note_on_c, 4, 56, 67
5, 222688, Note_off_c, 4, 56, 0
5, 222720, Note_on_c, 4, 57, 66
5, 223440, Note_off_c, 4, 57, 0
5, 240480, Note_on_c, 4, 57, 92
5, 240720, Note_off_c, 4, 57, 0
5, 241440, Note_on_c, 4, 61, 53
5, 241920, Note_off_c, 4, 61, 0
5, 241920, Note_on_c, 4, 62, 47
5, 242160, Note_off_c, 4, 62, 0
5, 242400, Note_on_c, 4, 64, 47
5, 242640, Note_off_c, 4, 64, 0
5, 242880, Note_on_c, 4, 65, 47
5, 243120, Note_off_c, 4, 65, 0
5, 243360, Note_on_c, 4, 67, 48
5, 243600, Note_off_c, 4, 67, 0
5, 243840, Note_on_c, 4, 69, 48
5, 244080, Note_off_c, 4, 69, 0
5, 249120, Note_on_c, 4, 62, 60
5, 249600, Note_off_c, 4, 62, 0
5, 250080, Note_on_c, 4, 65, 54
5, 250320, Note_off_c, 4, 65, 0
5, 250560, Note_on_c, 4, 67, 55
5, 250800, Note_off_c, 4, 67, 0
5, 251040, Note_on_c, 4, 69, 55
5, 251280, Note_off_c, 4, 69, 0
5, 251520, Note_on_c, 4, 67, 55
5, 251760, Note_off_c, 4, 67, 0
5, 264960, Note_on_c, 4, 64, 64
5, 265440, Note_off_c, 4, 64, 0
5, 265440, Note_on_c, 4, 65, 68
5, 265920, Note_off_c, 4, 65, 0
5, 265920, Note_on_c, 4, 67, 69
5, 266400, Note_off_c, 4, 67, 0
5, 266400, Note_on_c, 4, 69, 69
5, 266880, Note_off_c, 4, 69, 0
5, 266880, Note_on_c, 4, 70, 70
5, 267360, Note_off_c, 4, 70, 0
5, 267360, Note_on_c, 4, 69, 70
5, 267840, Note_off_c, 4, 69, 0
5, 267840, Note_on_c, 4, 67, 71
5, 268320, Note_off_c, 4, 67, 0
5, 268320, Note_on_c, 4, 65, 71
5, 268800, Note_off_c, 4, 65, 0
5, 268800, Note_on_c, 4, 64, 71
5, 269520, Note_off_c, 4, 64, 0
5, 299040, Note_on_c, 4, 63, 63
5, 299520, Note_off_c, 4, 63, 0
5, 299520, Note_on_c, 4, 65, 58
5, 299880, Note_off_c, 4, 65, 0
5, 300960, Note_on_c, 4, 68, 57
5, 301800, Note_off_c, 4, 68, 0
5, 312480, Note_on_c, 4, 63, 72
5, 313320, Note_off_c, 4, 63, 0
5, 313440, Note_on_c, 4, 61, 73
5, 314280, Note_off_c, 4, 61, 0
5, 314400, Note_on_c, 4, 60, 74
5, 314760, Note_off_c, 4, 60, 0
5, 315360, Note_on_c, 4, 56, 75
5, 315360, Note_on_c, 4, 60, 75
5, 315720, Note_off_c, 4, 60, 0
5, 315720, Note_off_c, 4, 56, 0
5, 316320, Note_on_c, 4, 53, 76
5, 316320, Note_on_c, 4, 56, 76
5, 316680, Note_off_c, 4, 56, 0
5, 316680, Note_off_c, 4, 53, 0
5, 317280, Note_on_c, 4, 53, 77
5, 317280, Note_on_c, 4, 56, 77
5, 317640, Note_off_c, 4, 56, 0
5, 317640, Note_off_c, 4, 53, 0
5, 318240, Note_on_c, 4, 53, 78
5, 318240, Note_on_c, 4, 56, 78
5, 318600, Note_off_c, 4, 56, 0
5, 318600, Note_off_c, 4, 53, 0
5, 318720, Note_on_c, 4, 53, 79
5, 318720, Note_on_c, 4, 56, 79
5, 318960, Note_off_c, 4, 56, 0
5, 318960, Note_off_c, 4, 53, 0
5, 320160, Note_on_c, 4, 56, 80
5, 320160, Note_on_c, 4, 53, 80
5, 320400, Note_off_c, 4, 53, 0
5, 320400, Note_off_c, 4, 56, 0
5, 320640, Note_on_c, 4, 59, 81
5, 320640, Note_on_c, 4, 53, 81
5, 320880, Note_off_c, 4, 53, 0
5, 320880, Note_off_c, 4, 59, 0
5, 331680, Note_on_c, 4, 54, 60
5, 332160, Note_off_c, 4, 54, 0
5, 332160, Note_on_c, 4, 55, 53
5, 332400, Note_off_c, 4, 55, 0
5, 332640, Note_on_c, 4, 57, 54
5, 332880, Note_off_c, 4, 57, 0
5, 333120, Note_on_c, 4, 58, 56
5, 333360, Note_off_c, 4, 58, 0
5, 333600, Note_on_c, 4, 60, 57
5, 333840, Note_off_c, 4, 60, 0
5, 334080, Note_on_c, 4, 62, 58
5, 334320, Note_off_c, 4, 62, 0
5, 335520, Note_on_c, 4, 48, 62
5, 336480, Note_off_c, 4, 48, 0
5, 336480, Note_on_c, 4, 50, 63
5, 336960, Note_off_c, 4, 50, 0
5, 336960, Note_on_c, 4, 53, 61
5, 337440, Note_off_c, 4, 53, 0
5, 337440, Note_on_c, 4, 52, 59
5, 337920, Note_off_c, 4, 52, 0
5, 354720, Note_on_c, 4, 68, 65
5, 355200, Note_off_c, 4, 68, 0
5, 355200, Note_on_c, 4, 67, 65
5, 355680, Note_off_c, 4, 67, 0
5, 355680, Note_on_c, 4, 65, 66
5, 356160, Note_off_c, 4, 65, 0
5, 356160, Note_on_c, 4, 64, 66
5, 356640, Note_off_c, 4, 64, 0
5, 356640, Note_on_c, 4, 62, 67
5, 357120, Note_off_c, 4, 62, 0
5, 357120, Note_on_c, 4, 60, 67
5, 357480, Note_off_c, 4, 60, 0
5, 362400, Note_on_c, 4, 65, 73
5, 363195, Note_off_c, 4, 65, 0
5, 366240, Note_on_c, 4, 55, 77
5, 366600, Note_off_c, 4, 55, 0
5, 366720, Note_on_c, 4, 55, 72
5, 367080, Note_off_c, 4, 55, 0
5, 368160, Note_on_c, 4, 53, 79
5, 368160, Note_on_c, 4, 55, 79
5, 368520, Note_off_c, 4, 55, 0
5, 368520, Note_off_c, 4, 53, 0
5, 368640, Note_on_c, 4, 52, 79
5, 368640, Note_on_c, 4, 55, 79
5, 369000, Note_off_c, 4, 52, 0
5, 369120, Note_on_c, 4, 53, 76
5, 369480, Note_off_c, 4, 53, 0
5, 369480, Note_off_c, 4, 55, 0
5, 369600, Note_on_c, 4, 52, 80
5, 369960, Note_off_c, 4, 52, 0
5, 370080, Note_on_c, 4, 53, 75
5, 370440, Note_off_c, 4, 53, 0
5, 370560, Note_on_c, 4, 52, 81
5, 370560, Note_on_c, 4, 55, 81
5, 370920, Note_off_c, 4, 55, 0
5, 370920, Note_off_c, 4, 52, 0
5, 378720, Note_on_c, 4, 57, 59
5, 379200, Note_off_c, 4, 57, 0
5, 379200, Note_on_c, 4, 58, 61
5, 379680, Note_off_c, 4, 58, 0
5, 379680, Note_on_c, 4, 55, 62
5, 380160, Note_off_c, 4, 55, 0
5, 380160, Note_on_c, 4, 57, 64
5, 380640, Note_off_c, 4, 57, 0
5, 380640, Note_on_c, 4, 54, 66
5, 381120, Note_off_c, 4, 54, 0
5, 381120, Note_on_c, 4, 55, 67
5, 381600, Note_off_c, 4, 55, 0
5, 381600, Note_on_c, 4, 57, 69
5, 382080, Note_off_c, 4, 57, 0
5, 382080, Note_on_c, 4, 58, 71
5, 383962, Note_off_c, 4, 58, 0
5, 384000, Note_on_c, 4, 57, 77
5, 384240, Note_off_c, 4, 57, 0
5, 384240, Note_on_c, 4, 55, 76
5, 384480, Note_off_c, 4, 55, 0
5, 384480, Note_on_c, 4, 53, 74
5, 384720, Note_off_c, 4, 53, 0
5, 384720, Note_on_c, 4, 52, 73
5, 384960, Note_off_c, 4, 52, 0
5, 384960, Note_on_c, 4, 53, 72
5, 385200, Note_off_c, 4, 53, 0
5, 385200, Note_on_c, 4, 50, 70
5, 385440, Note_off_c, 4, 50, 0
5, 385440, Note_on_c, 4, 55, 69
5, 385680, Note_off_c, 4, 55, 0
5, 385680, Note_on_c, 4, 53, 68
5, 385872, Note_off_c, 4, 53, 0
5, 385920, Note_on_c, 4, 52, 66
5, 386280, Note_off_c, 4, 52, 0
5, 398160, Note_on_c, 4, 69, 79
5, 398316, Note_off_c, 4, 69, 0
5, 398400, Note_on_c, 4, 70, 79
5, 399000, Note_off_c, 4, 70, 0
5, 399120, Note_on_c, 4, 68, 79
5, 399276, Note_off_c, 4, 68, 0
5, 399360, Note_on_c, 4, 69, 79
5, 399967, Note_off_c, 4, 69, 0
5, 400080, Note_on_c, 4, 66, 79
5, 400236, Note_off_c, 4, 66, 0
5, 400320, Note_on_c, 4, 67, 79
5, 400935, Note_off_c, 4, 67, 0
5, 401040, Note_on_c, 4, 61, 79
5, 401196, Note_off_c, 4, 61, 0
5, 401280, Note_on_c, 4, 67, 79
5, 404160, Note_off_c, 4, 67, 0
5, 404160, Note_on_c, 4, 66, 74
5, 405120, Note_off_c, 4, 66, 0
5, 405120, Note_on_c, 4, 67, 72
5, 405480, Note_off_c, 4, 67, 0
5, 406560, Note_on_c, 4, 74, 69
5, 407400, Note_off_c, 4, 74, 0
5, 408480, Note_on_c, 4, 72, 66
5, 409860, Note_off_c, 4, 72, 0
5, 409920, Note_on_c, 4, 70, 63
5, 410835, Note_off_c, 4, 70, 0
5, 410880, Note_on_c, 4, 69, 61
5, 411840, Note_off_c, 4, 69, 0
5, 411840, Note_on_c, 4, 67, 59
5, 412755, Note_off_c, 4, 67, 0
5, 412800, Note_on_c, 4, 66, 58
5, 413700, Note_off_c, 4, 66, 0
5, 413760, Note_on_c, 4, 65, 56
5, 414667, Note_off_c, 4, 65, 0
5, 414720, Note_on_c, 4, 64, 54
5, 415620, Note_off_c, 4, 64, 0
5, 415680, Note_on_c, 4, 63, 52
5, 416580, Note_off_c, 4, 63, 0
5, 416640, Note_on_c, 4, 62, 50
5, 417540, Note_off_c, 4, 62, 0
5, 417600, Note_on_c, 4, 58, 49
5, 418507, Note_off_c, 4, 58, 0
5, 418560, Note_on_c, 4, 57, 47
5, 419520, Note_off_c, 4, 57, 0
5, 419520, Note_on_c, 4, 55, 45
5, 420427, Note_off_c, 4, 55, 0
5, 420480, Note_on_c, 4, 53, 92
5, 420480, Note_on_c, 4, 59, 92
5, 421680, Note_off_c, 4, 59, 0
5, 421695, Note_off_c, 4, 53, 0
5, 421920, Note_on_c, 4, 59, 81
5, 421920, Note_on_c, 4, 53, 81
5, 422160, Note_off_c, 4, 53, 0
5, 422160, Note_off_c, 4, 59, 0
5, 422400, Note_on_c, 4, 60, 67
5, 422400, Note_on_c, 4, 53, 67
5, 422400, Note_on_c, 4, 57, 67
5, 423585, Note_off_c, 4, 53, 0
5, 423600, Note_off_c, 4, 57, 0
5, 423840, Note_off_c, 4, 60, 0
5, 423840, Note_on_c, 4, 57, 56
5, 423840, Note_on_c, 4, 53, 56
5, 424080, Note_off_c, 4, 53, 0
5, 424080, Note_off_c, 4, 57, 0
5, 424320, Note_on_c, 4, 50, 91
5, 424320, Note_on_c, 4, 53, 91
5, 424320, Note_on_c, 4, 57, 91
5, 425490, Note_off_c, 4, 57, 0
5, 425520, Note_off_c, 4, 53, 0
5, 425535, Note_off_c, 4, 50, 0
5, 425760, Note_on_c, 4, 50, 79
5, 425760, Note_on_c, 4, 57, 79
5, 425760, Note_on_c, 4, 53, 79
5, 426000, Note_off_c, 4, 53, 0
5, 426000, Note_off_c, 4, 57, 0
5, 426000, Note_off_c, 4, 50, 0
5, 426240, Note_on_c, 4, 53, 62
5, 426240, Note_on_c, 4, 57, 62
5, 427440, Note_off_c, 4, 57, 0
5, 427455, Note_off_c, 4, 53, 0
5, 427680, Note_on_c, 4, 53, 55
5, 427680, Note_on_c, 4, 57, 55
5, 427920, Note_off_c, 4, 57, 0
5, 427920, Note_off_c, 4, 53, 0
5, 428160, Note_on_c, 4, 53, 88
5, 428160, Note_on_c, 4, 56, 88
5, 428160, Note_on_c, 4, 59, 88
5, 429345, Note_off_c, 4, 53, 0
5, 429360, Note_off_c, 4, 56, 0
5, 429375, Note_off_c, 4, 59, 0
5, 429600, Note_on_c, 4, 59, 79
5, 429600, Note_on_c, 4, 56, 79
5, 429600, Note_on_c, 4, 53, 79
5, 429840, Note_off_c, 4, 53, 0
5, 429840, Note_off_c, 4, 56, 0
5, 429840, Note_off_c, 4, 59, 0
5, 430080, Note_on_c, 4, 57, 78
5, 430080, Note_on_c, 4, 53, 78
5, 430080, Note_on_c, 4, 60, 78
5, 430320, Note_off_c, 4, 60, 0
5, 430320, Note_off_c, 4, 53, 0
5, 430320, Note_off_c, 4, 57, 0
5, 432000, Note_on_c, 4, 53, 73
5, 432960, Note_off_c, 4, 53, 0
5, 432960, Note_on_c, 4, 52, 71
5, 433897, Note_off_c, 4, 52, 0
5, 462240, Control_c, 4, 64, 0
5, 462240, Note_on_c, 4, 62, 40
5, 462720, Note_off_c, 4, 62, 0
5, 462720, Note_on_c, 4, 63, 43
5, 463200, Note_off_c, 4, 63, 0
5, 463200, Note_on_c, 4, 65, 47
5, 463610, Note_off_c, 4, 65, 0
5, 463680, Note_on_c, 4, 61, 60
5, 464160, Note_off_c, 4, 61, 0
5, 464160, Note_on_c, 4, 60, 50
5, 464640, Note_off_c, 4, 60, 0
5, 464640, Note_on_c, 4, 58, 52
5, 465600, Note_off_c, 4, 58, 0
5, 465600, Note_on_c, 4, 57, 51
5, 466320, Note_off_c, 4, 57, 0
5, 466320, Note_on_c, 4, 58, 46
5, 466520, Note_off_c, 4, 58, 0
5, 466560, Note_on_c, 4, 60, 47
5, 467040, Note_off_c, 4, 60, 0
5, 467040, Note_on_c, 4, 58, 38
5, 467400, Note_off_c, 4, 58, 0
5, 469440, Note_on_c, 4, 63, 47
5, 469920, Note_off_c, 4, 63, 0
5, 469920, Note_on_c, 4, 65, 49
5, 470340, Note_off_c, 4, 65, 0
5, 472320, Note_on_c, 4, 63, 56
5, 472800, Note_off_c, 4, 63, 0
5, 472800, Note_on_c, 4, 62, 62
5, 472800, Note_on_c, 4, 58, 62
5, 473210, Note_off_c, 4, 58, 0
5, 473210, Note_off_c, 4, 62, 0
5, 473280, Note_on_c, 4, 57, 69
5, 473700, Note_off_c, 4, 57, 0
5, 473760, Note_on_c, 4, 55, 76
5, 474720, Note_off_c, 4, 55, 0
5, 474720, Note_on_c, 4, 60, 58
5, 475140, Note_off_c, 4, 60, 0
5, 475200, Note_on_c, 4, 64, 56
5, 475680, Note_off_c, 4, 64, 0
5, 475680, Note_on_c, 4, 65, 46
5, 476090, Note_off_c, 4, 65, 0
5, 476640, Note_on_c, 4, 62, 42
5, 477120, Note_off_c, 4, 62, 0
5, 477120, Note_on_c, 4, 63, 46
5, 477600, Note_off_c, 4, 63, 0
5, 477600, Note_on_c, 4, 65, 51
5, 478010, Note_off_c, 4, 65, 0
5, 478080, Note_on_c, 4, 61, 62
5, 478560, Note_off_c, 4, 61, 0
5, 478560, Note_on_c, 4, 60, 51
5, 479040, Note_off_c, 4, 60, 0
5, 479040, Note_on_c, 4, 58, 54
5, 480000, Note_off_c, 4, 58, 0
5, 480000, Note_on_c, 4, 57, 54
5, 480720, Note_off_c, 4, 57, 0
5, 480720, Note_on_c, 4, 58, 47
5, 480920, Note_off_c, 4, 58, 0
5, 480960, Note_on_c, 4, 60, 46
5, 481440, Note_off_c, 4, 60, 0
5, 481440, Note_on_c, 4, 58, 37
5, 481860, Note_off_c, 4, 58, 0
5, 483840, Note_on_c, 4, 63, 51
5, 484320, Note_off_c, 4, 63, 0
5, 484320, Note_on_c, 4, 65, 56
5, 484740, Note_off_c, 4, 65, 0
5, 486720, Note_on_c, 4, 63, 61
5, 487200, Note_off_c, 4, 63, 0
5, 487200, Note_on_c, 4, 62, 66
5, 487620, Note_off_c, 4, 62, 0
5, 487680, Note_on_c, 4, 57, 72
5, 488100, Note_off_c, 4, 57, 0
5, 488160, Note_on_c, 4, 64, 82
5, 488160, Note_on_c, 4, 60, 82
5, 488160, Note_on_c, 4, 58, 82
5, 489540, Note_off_c, 4, 58, 0
5, 489540, Note_off_c, 4, 64, 0
5, 489545, Note_off_c, 4, 60, 0
5, 489600, Note_on_c, 4, 66, 87
5, 489600, Note_on_c, 4, 62, 87
5, 489600, Note_on_c, 4, 60, 87
5, 490970, Note_off_c, 4, 60, 0
5, 490980, Note_off_c, 4, 62, 0
5, 490980, Note_off_c, 4, 66, 0
5, 491040, Note_on_c, 4, 67, 93
5, 491040, Note_on_c, 4, 62, 93
5, 492420, Note_off_c, 4, 62, 0
5, 492425, Note_off_c, 4, 67, 0
5, 501120, Control_c, 4, 64, 127
5, 501120, Note_on_c, 4, 57, 76
5, 501120, Note_on_c, 4, 54, 76
5, 501120, Note_on_c, 4, 51, 76
5, 502490, Note_off_c, 4, 51, 0
5, 502500, Control_c, 4, 64, 0
5, 502500, Note_off_c, 4, 54, 0
5, 502505, Note_off_c, 4, 57, 0
5, 502560, Control_c, 4, 64, 127
5, 502560, Note_on_c, 4, 58, 77
5, 502560, Note_on_c, 4, 54, 77
5, 502560, Note_on_c, 4, 51, 77
5, 503930, Note_off_c, 4, 58, 0
5, 503940, Control_c, 4, 64, 0
5, 503940, Note_off_c, 4, 51, 0
5, 503945, Note_off_c, 4, 54, 0
5, 504000, Control_c, 4, 64, 127
5, 504000, Note_on_c, 4, 53, 81
5, 504000, Note_on_c, 4, 50, 81
5, 504000, Note_on_c, 4, 47, 81
5, 505380, Control_c, 4, 64, 0
5, 505380, Note_off_c, 4, 47, 0
5, 505380, Note_off_c, 4, 50, 0
5, 505380, Note_off_c, 4, 53, 0
5, 505440, Control_c, 4, 64, 127
5, 505560, Note_on_c, 4, 48, 58
5, 505680, Note_off_c, 4, 48, 0
5, 505680, Note_on_c, 4, 53, 58
5, 505800, Note_off_c, 4, 53, 0
5, 505800, Note_on_c, 4, 57, 57
5, 505895, Note_off_c, 4, 57, 0
5, 506340, Control_c, 4, 64, 0
5, 506400, Control_c, 4, 64, 127
5, 506820, Control_c, 4, 64, 0
5, 506880, Control_c, 4, 64, 127
5, 507000, Note_on_c, 4, 41, 53
5, 507120, Note_off_c, 4, 41, 0
5, 507120, Note_on_c, 4, 45, 52
5, 507240, Note_off_c, 4, 45, 0
5, 507240, Note_on_c, 4, 48, 51
5, 507335, Note_off_c, 4, 48, 0
5, 507780, Control_c, 4, 64, 0
5, 507840, Control_c, 4, 64, 127
5, 508260, Control_c, 4, 64, 0
5, 514080, Note_on_c, 4, 64, 54
5, 514080, Note_on_c, 4, 58, 54
5, 514560, Note_off_c, 4, 58, 0
5, 514560, Note_off_c, 4, 64, 0
5, 514560, Note_on_c, 4, 65, 36
5, 514560, Note_on_c, 4, 57, 36
5, 514753, Note_off_c, 4, 57, 0
5, 514753, Note_off_c, 4, 65, 0
5, 515520, Note_on_c, 4, 64, 54
5, 515520, Note_on_c, 4, 58, 54
5, 516000, Note_off_c, 4, 58, 0
5, 516000, Note_off_c, 4, 64, 0
5, 516000, Note_on_c, 4, 65, 33
5, 516000, Note_on_c, 4, 56, 33
5, 516193, Note_off_c, 4, 56, 0
5, 516193, Note_off_c, 4, 65, 0
5, 516960, Note_on_c, 4, 61, 57
5, 516960, Note_on_c, 4, 58, 57
5, 518340, Note_off_c, 4, 58, 0
5, 518340, Note_off_c, 4, 61, 0
5, 518400, Note_on_c, 4, 60, 61
5, 519308, Note_off_c, 4, 60, 0
5, 519360, Note_on_c, 4, 61, 53
5, 519818, Note_off_c, 4, 61, 0
5, 519840, Note_on_c, 4, 56, 47
5, 520080, Note_off_c, 4, 56, 0
5, 520080, Note_on_c, 4, 57, 44
5, 520320, Note_off_c, 4, 57, 0
5, 520320, Note_on_c, 4, 58, 42
5, 520560, Note_off_c, 4, 58, 0
5, 520560, Note_on_c, 4, 59, 42
5, 520800, Note_off_c, 4, 59, 0
5, 520800, Note_on_c, 4, 60, 47
5, 521040, Note_off_c, 4, 60, 0
5, 521040, Note_on_c, 4, 58, 52
5, 521233, Note_off_c, 4, 58, 0
5, 551280, Note_on_c, 4, 55, 61
5, 551520, Note_off_c, 4, 55, 0
5, 551520, Note_on_c, 4, 63, 75
5, 552668, Note_off_c, 4, 63, 0
5, 552720, Note_on_c, 4, 57, 71
5, 552960, Note_off_c, 4, 57, 0
5, 552960, Note_on_c, 4, 65, 80
5, 553853, Note_off_c, 4, 65, 0
5, 553920, Note_on_c, 4, 53, 80
5, 554580, Note_off_c, 4, 53, 0
5, 554640, Note_on_c, 4, 47, 63
5, 554880, Note_off_c, 4, 47, 0
5, 554880, Note_on_c, 4, 51, 66
5, 555120, Note_off_c, 4, 51, 0
5, 555120, Note_on_c, 4, 53, 70
5, 555313, Note_off_c, 4, 53, 0
5, 555360, Note_on_c, 4, 55, 84
5, 556035, Note_off_c, 4, 55, 0
5, 556080, Note_on_c, 4, 52, 67
5, 556320, Note_off_c, 4, 52, 0
5, 556320, Note_on_c, 4, 53, 70
5, 556560, Note_off_c, 4, 53, 0
5, 556560, Note_on_c, 4, 55, 74
5, 556753, Note_off_c, 4, 55, 0
5, 556800, Note_on_c, 4, 56, 86
5, 557490, Note_off_c, 4, 56, 0
5, 557520, Note_on_c, 4, 54, 71
5, 557760, Note_off_c, 4, 54, 0
5, 557760, Note_on_c, 4, 55, 74
5, 558000, Note_off_c, 4, 55, 0
5, 558000, Note_on_c, 4, 57, 78
5, 558240, Note_off_c, 4, 57, 0
5, 558240, Note_on_c, 4, 58, 93
5, 558433, Note_off_c, 4, 58, 0
5, 558480, Note_on_c, 4, 52, 83
5, 558720, Note_off_c, 4, 52, 0
5, 558720, Note_on_c, 4, 60, 92
5, 559860, Note_off_c, 4, 60, 0
5, 559920, Note_on_c, 4, 54, 86
5, 560160, Note_off_c, 4, 54, 0
5, 560160, Note_on_c, 4, 62, 97
5, 561300, Note_off_c, 4, 62, 0
5, 561360, Note_on_c, 4, 55, 94
5, 561600, Note_off_c, 4, 55, 0
5, 561600, Note_on_c, 4, 63, 104
5, 562320, Note_off_c, 4, 63, 0
5, 562320, Note_on_c, 4, 62, 90
5, 562560, Note_off_c, 4, 62, 0
5, 562560, Note_on_c, 4, 60, 95
5, 562800, Note_off_c, 4, 60, 0
5, 562800, Note_on_c, 4, 58, 99
5, 562993, Note_off_c, 4, 58, 0
5, 563040, Control_c, 4, 64, 127
5, 563040, Note_on_c, 4, 63, 108
5, 563040, Note_on_c, 4, 57, 108
5, 563040, Note_on_c, 4, 60, 108
5, 564000, Note_off_c, 4, 60, 0
5, 564000, Note_off_c, 4, 57, 0
5, 564000, Note_off_c, 4, 63, 0
5, 564720, Control_c, 4, 64, 0
5, 565920, Control_c, 4, 64, 0
5, 565920, Note_on_c, 4, 62, 40
5, 566400, Note_off_c, 4, 62, 0
5, 566400, Note_on_c, 4, 63, 44
5, 566880, Note_off_c, 4, 63, 0
5, 566880, Note_on_c, 4, 65, 48
5, 567290, Note_off_c, 4, 65, 0
5, 567360, Note_on_c, 4, 61, 60
5, 567840, Note_off_c, 4, 61, 0
5, 567840, Note_on_c, 4, 60, 51
5, 568320, Note_off_c, 4, 60, 0
5, 568320, Note_on_c, 4, 58, 53
5, 569280, Note_off_c, 4, 58, 0
5, 569280, Note_on_c, 4, 57, 55
5, 570000, Note_off_c, 4, 57, 0
5, 570000, Note_on_c, 4, 58, 46
5, 570200, Note_off_c, 4, 58, 0
5, 570240, Note_on_c, 4, 60, 47
5, 570720, Note_off_c, 4, 60, 0
5, 570720, Note_on_c, 4, 58, 37
5, 571080, Note_off_c, 4, 58, 0
5, 573120, Note_on_c, 4, 63, 47
5, 573600, Note_off_c, 4, 63, 0
5, 573600, Note_on_c, 4, 65, 50
5, 574020, Note_off_c, 4, 65, 0
5, 576000, Note_on_c, 4, 63, 59
5, 576480, Note_off_c, 4, 63, 0
5, 576480, Note_on_c, 4, 62, 64
5, 576890, Note_off_c, 4, 62, 0
5, 576960, Note_on_c, 4, 57, 68
5, 577380, Note_off_c, 4, 57, 0
5, 577440, Note_on_c, 4, 55, 75
5, 578400, Note_off_c, 4, 55, 0
5, 578400, Note_on_c, 4, 60, 58
5, 578820, Note_off_c, 4, 60, 0
5, 578880, Note_on_c, 4, 64, 54
5, 579360, Note_off_c, 4, 64, 0
5, 579360, Note_on_c, 4, 65, 50
5, 579960, Note_on_c, 4, 67, 45
5, 579968, Note_off_c, 4, 65, 0
5, 580080, Note_off_c, 4, 67, 0
5, 580080, Note_on_c, 4, 63, 43
5, 580200, Note_off_c, 4, 63, 0
5, 580200, Note_on_c, 4, 60, 40
5, 580295, Note_off_c, 4, 60, 0
5, 582720, Note_on_c, 4, 64, 52
5, 583140, Note_off_c, 4, 64, 0
5, 586080, Note_on_c, 4, 51, 78
5, 586080, Note_on_c, 4, 53, 78
5, 586080, Note_on_c, 4, 57, 78
5, 587460, Note_off_c, 4, 57, 0
5, 587460, Note_off_c, 4, 51, 0
5, 587465, Note_off_c, 4, 53, 0
5, 587520, Note_on_c, 4, 53, 84
5, 587520, Note_on_c, 4, 55, 84
5, 587520, Note_on_c, 4, 59, 84
5, 588890, Note_off_c, 4, 53, 0
5, 588900, Note_off_c, 4, 59, 0
5, 588900, Note_off_c, 4, 55, 0
5, 588960, Note_on_c, 4, 55, 89
5, 588960, Note_on_c, 4, 60, 89
5, 590340, Note_off_c, 4, 55, 0
5, 590345, Note_off_c, 4, 60, 0
5, 590400, Note_on_c, 4, 62, 72
5, 590880, Note_off_c, 4, 62, 0
5, 590880, Note_on_c, 4, 60, 58
5, 591290, Note_off_c, 4, 60, 0
5, 599040, Control_c, 4, 64, 127
5, 599040, Note_on_c, 4, 44, 83
5, 599040, Note_on_c, 4, 47, 83
5, 599040, Note_on_c, 4, 50, 83
5, 600410, Note_off_c, 4, 44, 0
5, 600420, Control_c, 4, 64, 0
5, 600420, Note_off_c, 4, 47, 0
5, 600425, Note_off_c, 4, 50, 0
5, 600480, Control_c, 4, 64, 127
5, 600480, Note_on_c, 4, 44, 87
5, 600480, Note_on_c, 4, 47, 87
5, 600480, Note_on_c, 4, 51, 87
5, 601850, Note_off_c, 4, 51, 0
5, 601860, Control_c, 4, 64, 0
5, 601860, Note_off_c, 4, 44, 0
5, 601865, Note_off_c, 4, 47, 0
5, 601920, Control_c, 4, 64, 127
5, 601920, Note_on_c, 4, 43, 91
5, 601920, Note_on_c, 4, 46, 91
5, 601920, Note_on_c, 4, 40, 91
5, 603300, Control_c, 4, 64, 0
5, 603300, Note_off_c, 4, 40, 0
5, 603300, Note_off_c, 4, 46, 0
5, 603300, Note_off_c, 4, 43, 0
5, 603360, Control_c, 4, 64, 127
5, 603480, Note_on_c, 4, 41, 61
5, 603600, Note_off_c, 4, 41, 0
5, 603600, Note_on_c, 4, 46, 60
5, 603720, Note_off_c, 4, 46, 0
5, 603720, Note_on_c, 4, 50, 60
5, 603815, Note_off_c, 4, 50, 0
5, 604260, Control_c, 4, 64, 0
5, 604320, Control_c, 4, 64, 127
5, 604740, Control_c, 4, 64, 0
5, 604800, Control_c, 4, 64, 127
5, 605700, Control_c, 4, 64, 0
5, 605760, Control_c, 4, 64, 127
5, 606180, Control_c, 4, 64, 0
5, 606240, Note_on_c, 4, 62, 61
5, 606480, Note_off_c, 4, 62, 0
5, 606480, Note_on_c, 4, 65, 53
5, 606720, Note_off_c, 4, 65, 0
5, 606720, Note_on_c, 4, 62, 51
5, 606960, Note_off_c, 4, 62, 0
5, 606960, Note_on_c, 4, 65, 50
5, 607200, Note_off_c, 4, 65, 0
5, 607200, Note_on_c, 4, 60, 50
5, 607200, Note_on_c, 4, 63, 50
5, 607440, Note_off_c, 4, 63, 0
5, 607440, Note_off_c, 4, 60, 0
5, 607440, Note_on_c, 4, 65, 49
5, 607633, Note_off_c, 4, 65, 0
5, 607680, Note_on_c, 4, 62, 54
5, 607920, Note_off_c, 4, 62, 0
5, 607920, Note_on_c, 4, 65, 48
5, 608160, Note_off_c, 4, 65, 0
5, 608160, Note_on_c, 4, 62, 47
5, 608400, Note_off_c, 4, 62, 0
5, 608400, Note_on_c, 4, 65, 46
5, 608640, Note_off_c, 4, 65, 0
5, 608640, Note_on_c, 4, 63, 46
5, 608880, Note_off_c, 4, 63, 0
5, 608880, Note_on_c, 4, 65, 45
5, 609073, Note_off_c, 4, 65, 0
5, 609120, Note_on_c, 4, 69, 56
5, 609120, Note_on_c, 4, 60, 56
5, 609360, Note_off_c, 4, 60, 0
5, 609360, Note_off_c, 4, 69, 0
5, 609360, Note_on_c, 4, 65, 47
5, 609600, Note_off_c, 4, 65, 0
5, 609600, Note_on_c, 4, 70, 43
5, 609600, Note_on_c, 4, 62, 43
5, 609840, Note_off_c, 4, 62, 0
5, 609840, Note_off_c, 4, 70, 0
5, 609840, Note_on_c, 4, 65, 43
5, 610080, Note_off_c, 4, 65, 0
5, 610080, Note_on_c, 4, 60, 42
5, 610080, Note_on_c, 4, 63, 42
5, 610320, Note_off_c, 4, 63, 0
5, 610320, Note_off_c, 4, 60, 0
5, 610320, Note_on_c, 4, 65, 41
5, 610513, Note_off_c, 4, 65, 0
5, 610560, Note_on_c, 4, 62, 44
5, 610800, Note_off_c, 4, 62, 0
5, 610800, Note_on_c, 4, 65, 40
5, 611040, Note_off_c, 4, 65, 0
5, 611040, Note_on_c, 4, 62, 40
5, 611280, Note_off_c, 4, 62, 0
5, 611280, Note_on_c, 4, 65, 39
5, 611520, Note_off_c, 4, 65, 0
5, 611520, Note_on_c, 4, 63, 38
5, 611760, Note_off_c, 4, 63, 0
5, 611760, Note_on_c, 4, 65, 38
5, 611953, Note_off_c, 4, 65, 0
5, 612000, Note_on_c, 4, 69, 54
5, 612000, Note_on_c, 4, 63, 54
5, 612480, Note_off_c, 4, 63, 0
5, 612480, Note_off_c, 4, 69, 0
5, 612480, Note_on_c, 4, 70, 42
5, 612480, Note_on_c, 4, 62, 42
5, 612673, Note_off_c, 4, 62, 0
5, 612673, Note_off_c, 4, 70, 0
5, 613440, Note_on_c, 4, 69, 58
5, 613440, Note_on_c, 4, 63, 58
5, 613920, Note_off_c, 4, 63, 0
5, 613920, Note_off_c, 4, 69, 0
5, 613920, Note_on_c, 4, 70, 53
5, 613920, Note_on_c, 4, 61, 53
5, 614113, Note_off_c, 4, 61, 0
5, 614113, Note_off_c, 4, 70, 0
5, 614880, Note_on_c, 4, 66, 63
5, 614880, Note_on_c, 4, 63, 63
5, 616260, Note_off_c, 4, 63, 0
5, 616260, Note_off_c, 4, 66, 0
5, 616320, Note_on_c, 4, 65, 71
5, 617228, Note_off_c, 4, 65, 0
5, 617280, Note_on_c, 4, 66, 59
5, 617738, Note_off_c, 4, 66, 0
5, 626400, Note_on_c, 4, 51, 49
5, 627330, Note_off_c, 4, 51, 0
5, 627360, Note_on_c, 4, 63, 44
5, 627785, Note_off_c, 4, 63, 0
5, 627840, Note_on_c, 4, 62, 49
5, 628033, Note_off_c, 4, 62, 0
5, 628080, Note_on_c, 4, 63, 52
5, 628273, Note_off_c, 4, 63, 0
5, 628320, Note_on_c, 4, 62, 56
5, 628735, Note_off_c, 4, 62, 0
5, 628800, Note_on_c, 4, 63, 62
5, 629235, Note_off_c, 4, 63, 0
5, 629280, Note_on_c, 4, 62, 66
5, 629700, Note_off_c, 4, 62, 0
5, 632640, Note_on_c, 4, 62, 65
5, 632640, Note_on_c, 4, 65, 65
5, 633120, Note_off_c, 4, 65, 0
5, 633120, Note_off_c, 4, 62, 0
5, 633120, Note_on_c, 4, 63, 58
5, 633550, Note_off_c, 4, 63, 0
5, 633600, Note_on_c, 4, 62, 55
5, 633793, Note_off_c, 4, 62, 0
5, 639840, Note_on_c, 4, 69, 46
5, 640560, Note_off_c, 4, 69, 0
5, 640800, Note_on_c, 4, 65, 50
5, 641520, Note_off_c, 4, 65, 0
5, 641760, Note_on_c, 4, 70, 56
5, 642480, Note_off_c, 4, 70, 0
5, 642720, Note_on_c, 4, 69, 54
5, 643440, Note_off_c, 4, 69, 0
5, 643680, Note_on_c, 4, 70, 65
5, 644400, Note_off_c, 4, 70, 0
5, 644640, Note_on_c, 4, 69, 55
5, 645360, Note_off_c, 4, 69, 0
5, 645600, Note_on_c, 4, 67, 64
5, 646080, Note_off_c, 4, 67, 0
5, 646080, Note_on_c, 4, 64, 58
5, 646560, Note_off_c, 4, 64, 0
5, 646560, Note_on_c, 4, 65, 57
5, 647040, Note_off_c, 4, 65, 0
5, 647040, Note_on_c, 4, 69, 55
5, 647482, Note_off_c, 4, 69, 0
5, 647520, Note_on_c, 4, 70, 46
5, 648000, Note_off_c, 4, 70, 0
5, 648960, Note_on_c, 4, 65, 54
5, 649920, Note_off_c, 4, 65, 0
5, 649920, Note_on_c, 4, 64, 50
5, 650160, Note_off_c, 4, 64, 0
5, 650160, Note_on_c, 4, 62, 46
5, 650400, Note_off_c, 4, 62, 0
5, 650400, Note_on_c, 4, 64, 42
5, 650826, Note_off_c, 4, 64, 0
5, 651360, Note_on_c, 4, 69, 48
5, 652080, Note_off_c, 4, 69, 0
5, 652320, Note_on_c, 4, 65, 52
5, 653040, Note_off_c, 4, 65, 0
5, 653280, Note_on_c, 4, 70, 57
5, 654000, Note_off_c, 4, 70, 0
5, 654240, Note_on_c, 4, 69, 52
5, 654960, Note_off_c, 4, 69, 0
5, 655200, Note_on_c, 4, 70, 61
5, 655920, Note_off_c, 4, 70, 0
5, 656160, Note_on_c, 4, 69, 56
5, 656880, Note_off_c, 4, 69, 0
5, 657120, Note_on_c, 4, 67, 66
5, 657600, Note_off_c, 4, 67, 0
5, 657600, Note_on_c, 4, 64, 60
5, 658080, Note_off_c, 4, 64, 0
5, 658080, Note_on_c, 4, 65, 60
5, 658560, Note_off_c, 4, 65, 0
5, 658560, Note_on_c, 4, 62, 58
5, 658986, Note_off_c, 4, 62, 0
5, 659520, Note_on_c, 4, 70, 55
5, 660000, Note_off_c, 4, 70, 0
5, 660000, Note_on_c, 4, 69, 58
5, 660480, Note_off_c, 4, 69, 0
5, 660480, Note_on_c, 4, 67, 61
5, 660840, Note_off_c, 4, 67, 0
5, 662880, Note_on_c, 4, 64, 42
5, 663600, Note_off_c, 4, 64, 0
5, 663840, Note_on_c, 4, 65, 47
5, 664560, Note_off_c, 4, 65, 0
5, 664800, Note_on_c, 4, 67, 53
5, 665520, Note_off_c, 4, 67, 0
5, 665760, Note_on_c, 4, 69, 47
5, 666480, Note_off_c, 4, 69, 0
5, 666720, Note_on_c, 4, 64, 48
5, 667440, Note_off_c, 4, 64, 0
5, 667680, Note_on_c, 4, 65, 57
5, 668400, Note_off_c, 4, 65, 0
5, 668640, Note_on_c, 4, 67, 64
5, 669360, Note_off_c, 4, 67, 0
5, 669600, Note_on_c, 4, 69, 61
5, 670320, Note_off_c, 4, 69, 0
5, 670560, Note_on_c, 4, 65, 54
5, 671520, Note_off_c, 4, 65, 0
5, 672480, Note_on_c, 4, 64, 69
5, 673440, Note_off_c, 4, 64, 0
5, 673440, Note_on_c, 4, 62, 56
5, 673866, Note_off_c, 4, 62, 0
5, 674400, Note_on_c, 4, 57, 52
5, 675120, Note_off_c, 4, 57, 0
5, 675360, Note_on_c, 4, 55, 55
5, 676080, Note_off_c, 4, 55, 0
5, 676320, Note_on_c, 4, 55, 58
5, 677040, Note_off_c, 4, 55, 0
5, 677280, Note_on_c, 4, 55, 67
5, 678000, Note_off_c, 4, 55, 0
5, 678240, Note_on_c, 4, 57, 60
5, 678960, Note_off_c, 4, 57, 0
5, 679200, Note_on_c, 4, 55, 66
5, 679920, Note_off_c, 4, 55, 0
5, 680160, Note_on_c, 4, 55, 66
5, 680880, Note_off_c, 4, 55, 0
5, 681120, Note_on_c, 4, 55, 72
5, 681840, Note_off_c, 4, 55, 0
5, 682560, Note_on_c, 4, 72, 75
5, 682980, Note_off_c, 4, 72, 0
5, 683040, Note_on_c, 4, 72, 69
5, 683520, Note_off_c, 4, 72, 0
5, 683520, Note_on_c, 4, 71, 63
5, 683954, Note_off_c, 4, 71, 0
5, 684480, Note_on_c, 4, 65, 68
5, 684480, Note_on_c, 4, 67, 68
5, 684900, Note_off_c, 4, 67, 0
5, 684900, Note_off_c, 4, 65, 0
5, 684960, Note_on_c, 4, 65, 61
5, 684960, Note_on_c, 4, 67, 61
5, 685440, Note_off_c, 4, 67, 0
5, 685440, Note_off_c, 4, 65, 0
5, 685440, Note_on_c, 4, 64, 53
5, 685440, Note_on_c, 4, 67, 53
5, 685860, Note_off_c, 4, 67, 0
5, 685874, Note_off_c, 4, 64, 0
5, 685920, Note_on_c, 4, 60, 66
5, 685920, Note_on_c, 4, 65, 66
5, 686880, Note_off_c, 4, 65, 0
5, 686880, Note_on_c, 4, 64, 58
5, 687120, Note_off_c, 4, 60, 0
5, 687126, Note_off_c, 4, 64, 0
5, 687360, Note_on_c, 4, 59, 54
5, 687606, Note_off_c, 4, 59, 0
5, 690240, Note_on_c, 4, 69, 69
5, 690240, Note_on_c, 4, 72, 69
5, 690600, Note_off_c, 4, 72, 0
5, 690600, Note_off_c, 4, 69, 0
5, 690720, Note_on_c, 4, 69, 65
5, 690720, Note_on_c, 4, 72, 65
5, 691200, Note_off_c, 4, 72, 0
5, 691200, Note_off_c, 4, 69, 0
5, 691200, Note_on_c, 4, 71, 59
5, 691626, Note_off_c, 4, 71, 0
5, 692160, Note_on_c, 4, 65, 63
5, 692160, Note_on_c, 4, 59, 63
5, 692580, Note_off_c, 4, 59, 0
5, 692580, Note_off_c, 4, 65, 0
5, 692640, Note_on_c, 4, 59, 59
5, 692640, Note_on_c, 4, 65, 59
5, 693120, Note_off_c, 4, 65, 0
5, 693120, Note_off_c, 4, 59, 0
5, 693120, Note_on_c, 4, 64, 57
5, 693546, Note_off_c, 4, 64, 0
5, 694080, Note_on_c, 4, 57, 65
5, 694080, Note_on_c, 4, 62, 65
5, 694500, Note_off_c, 4, 62, 0
5, 694500, Note_off_c, 4, 57, 0
5, 694560, Note_on_c, 4, 64, 58
5, 694560, Note_on_c, 4, 60, 58
5, 694980, Note_off_c, 4, 60, 0
5, 694980, Note_off_c, 4, 64, 0
5, 695040, Note_on_c, 4, 65, 54
5, 695040, Note_on_c, 4, 59, 54
5, 695520, Note_off_c, 4, 59, 0
5, 695520, Note_off_c, 4, 65, 0
5, 695520, Note_on_c, 4, 60, 48
5, 696240, Note_off_c, 4, 60, 0
5, 696480, Note_on_c, 4, 60, 45
5, 697200, Note_off_c, 4, 60, 0
5, 697440, Note_on_c, 4, 59, 60
5, 698160, Note_off_c, 4, 59, 0
5, 698400, Note_on_c, 4, 59, 59
5, 699120, Note_off_c, 4, 59, 0
5, 699360, Note_on_c, 4, 60, 48
5, 700080, Note_off_c, 4, 60, 0
5, 700320, Note_on_c, 4, 60, 51
5, 701040, Note_off_c, 4, 60, 0
5, 701280, Note_on_c, 4, 59, 67
5, 702000, Note_off_c, 4, 59, 0
5, 702240, Note_on_c, 4, 59, 66
5, 702960, Note_off_c, 4, 59, 0
5, 703200, Note_on_c, 4, 60, 55
5, 703620, Note_off_c, 4, 60, 0
5, 703680, Note_on_c, 4, 48, 48
5, 704106, Note_off_c, 4, 48, 0
5, 705600, Note_on_c, 4, 64, 60
5, 706020, Note_off_c, 4, 64, 0
5, 707520, Note_on_c, 4, 64, 71
5, 707520, Note_on_c, 4, 67, 71
5, 707940, Note_off_c, 4, 67, 0
5, 707954, Note_off_c, 4, 64, 0
5, 710880, Note_on_c, 4, 64, 69
5, 710880, Note_on_c, 4, 67, 69
5, 710880, Note_on_c, 4, 70, 69
5, 712740, Note_off_c, 4, 70, 0
5, 712740, Note_off_c, 4, 67, 0
5, 712746, Note_off_c, 4, 64, 0
5, 712800, Note_on_c, 4, 69, 38
5, 713520, Note_off_c, 4, 69, 0
5, 713760, Note_on_c, 4, 65, 43
5, 714480, Note_off_c, 4, 65, 0
5, 714720, Note_on_c, 4, 70, 49
5, 715440, Note_off_c, 4, 70, 0
5, 715680, Note_on_c, 4, 69, 43
5, 716400, Note_off_c, 4, 69, 0
5, 716640, Note_on_c, 4, 70, 51
5, 717360, Note_off_c, 4, 70, 0
5, 717600, Note_on_c, 4, 69, 46
5, 718320, Note_off_c, 4, 69, 0
5, 718560, Note_on_c, 4, 67, 54
5, 719040, Note_off_c, 4, 67, 0
5, 719040, Note_on_c, 4, 64, 48
5, 719520, Note_on_c, 4, 65, 50
5, 719534, Note_off_c, 4, 64, 0
5, 720000, Note_off_c, 4, 65, 0
5, 720000, Note_on_c, 4, 69, 45
5, 720426, Note_off_c, 4, 69, 0
5, 720480, Note_on_c, 4, 70, 42
5, 720966, Note_off_c, 4, 70, 0
5, 721920, Note_on_c, 4, 65, 52
5, 722880, Note_on_c, 4, 64, 47
5, 722894, Note_off_c, 4, 65, 0
5, 723240, Note_off_c, 4, 64, 0
5, 723240, Note_on_c, 4, 62, 41
5, 723360, Note_on_c, 4, 64, 40
5, 723374, Note_off_c, 4, 62, 0
5, 723780, Note_off_c, 4, 64, 0
5, 724320, Note_on_c, 4, 69, 46
5, 725040, Note_off_c, 4, 69, 0
5, 725280, Note_on_c, 4, 65, 51
5, 726000, Note_off_c, 4, 65, 0
5, 726240, Note_on_c, 4, 70, 56
5, 726960, Note_off_c, 4, 70, 0
5, 727200, Note_on_c, 4, 69, 50
5, 727920, Note_off_c, 4, 69, 0
5, 728160, Note_on_c, 4, 70, 56
5, 728880, Note_off_c, 4, 70, 0
5, 729120, Note_on_c, 4, 69, 50
5, 729840, Note_off_c, 4, 69, 0
5, 730080, Note_on_c, 4, 67, 58
5, 730560, Note_on_c, 4, 64, 51
5, 730574, Note_off_c, 4, 67, 0
5, 731040, Note_off_c, 4, 64, 0
5, 731040, Note_on_c, 4, 65, 53
5, 731520, Note_off_c, 4, 65, 0
5, 731520, Note_on_c, 4, 62, 49
5, 731946, Note_off_c, 4, 62, 0
5, 732480, Note_on_c, 4, 70, 48
5, 732960, Note_off_c, 4, 70, 0
5, 732960, Note_on_c, 4, 69, 48
5, 733440, Note_off_c, 4, 69, 0
5, 733440, Note_on_c, 4, 67, 51
5, 733866, Note_off_c, 4, 67, 0
5, 735840, Note_on_c, 4, 53, 65
5, 735840, Note_on_c, 4, 57, 65
5, 735840, Note_on_c, 4, 62, 65
5, 736774, Note_off_c, 4, 62, 0
5, 736774, Note_off_c, 4, 57, 0
5, 736774, Note_off_c, 4, 53, 0
5, 737040, Note_on_c, 4, 65, 60
5, 737040, Note_on_c, 4, 69, 60
5, 737232, Note_off_c, 4, 69, 0
5, 737232, Note_off_c, 4, 65, 0
5, 737280, Note_on_c, 4, 65, 58
5, 737280, Note_on_c, 4, 69, 58
5, 737472, Note_off_c, 4, 69, 0
5, 737472, Note_off_c, 4, 65, 0
5, 737520, Note_on_c, 4, 65, 56
5, 737520, Note_on_c, 4, 69, 56
5, 737712, Note_off_c, 4, 69, 0
5, 737712, Note_off_c, 4, 65, 0
5, 737760, Note_on_c, 4, 69, 54
5, 737760, Note_on_c, 4, 67, 54
5, 738000, Note_off_c, 4, 67, 0
5, 738000, Note_off_c, 4, 69, 0
5, 738240, Note_on_c, 4, 69, 49
5, 738240, Note_on_c, 4, 65, 49
5, 738480, Note_off_c, 4, 65, 0
5, 738480, Note_off_c, 4, 69, 0
5, 738720, Note_on_c, 4, 64, 44
5, 738720, Note_on_c, 4, 69, 44
5, 738960, Note_off_c, 4, 69, 0
5, 738960, Note_off_c, 4, 64, 0
5, 739680, Note_on_c, 4, 58, 69
5, 739680, Note_on_c, 4, 61, 69
5, 739680, Note_on_c, 4, 64, 69
5, 740604, Note_off_c, 4, 61, 0
5, 740604, Note_off_c, 4, 58, 0
5, 740614, Note_off_c, 4, 64, 0
5, 740880, Note_on_c, 4, 70, 61
5, 741072, Note_off_c, 4, 70, 0
5, 741120, Note_on_c, 4, 70, 59
5, 741312, Note_off_c, 4, 70, 0
5, 741360, Note_on_c, 4, 70, 56
5, 741552, Note_off_c, 4, 70, 0
5, 741600, Note_on_c, 4, 69, 55
5, 741840, Note_off_c, 4, 69, 0
5, 742080, Note_on_c, 4, 67, 50
5, 742320, Note_off_c, 4, 67, 0
5, 742560, Note_on_c, 4, 65, 45
5, 742800, Note_off_c, 4, 65, 0
5, 743520, Note_on_c, 4, 67, 42
5, 744240, Note_off_c, 4, 67, 0
5, 744480, Note_on_c, 4, 65, 46
5, 745200, Note_off_c, 4, 65, 0
5, 745440, Note_on_c, 4, 67, 50
5, 746160, Note_off_c, 4, 67, 0
5, 746400, Note_on_c, 4, 65, 54
5, 747120, Note_off_c, 4, 65, 0
5, 747360, Note_on_c, 4, 64, 61
5, 747840, Note_off_c, 4, 64, 0
5, 747840, Note_on_c, 4, 61, 56
5, 748320, Note_off_c, 4, 61, 0
5, 748320, Note_on_c, 4, 62, 58
5, 748800, Note_off_c, 4, 62, 0
5, 748800, Note_on_c, 4, 58, 52
5, 749280, Note_off_c, 4, 58, 0
5, 749280, Note_on_c, 4, 57, 50
5, 749714, Note_off_c, 4, 57, 0
5, 751200, Note_on_c, 4, 53, 73
5, 751200, Note_on_c, 4, 57, 73
5, 751200, Note_on_c, 4, 62, 73
5, 752140, Note_off_c, 4, 62, 0
5, 752144, Note_off_c, 4, 57, 0
5, 752144, Note_off_c, 4, 53, 0
5, 752400, Note_on_c, 4, 69, 67
5, 752400, Note_on_c, 4, 65, 67
5, 752592, Note_off_c, 4, 65, 0
5, 752592, Note_off_c, 4, 69, 0
5, 752640, Note_on_c, 4, 65, 65
5, 752640, Note_on_c, 4, 69, 65
5, 752832, Note_off_c, 4, 69, 0
5, 752832, Note_off_c, 4, 65, 0
5, 752880, Note_on_c, 4, 65, 63
5, 752880, Note_on_c, 4, 69, 63
5, 753072, Note_off_c, 4, 69, 0
5, 753072, Note_off_c, 4, 65, 0
5, 753120, Note_on_c, 4, 67, 61
5, 753120, Note_on_c, 4, 69, 61
5, 753360, Note_off_c, 4, 69, 0
5, 753360, Note_off_c, 4, 67, 0
5, 753600, Note_on_c, 4, 65, 58
5, 753600, Note_on_c, 4, 69, 58
5, 753840, Note_off_c, 4, 69, 0
5, 753840, Note_off_c, 4, 65, 0
5, 754080, Note_on_c, 4, 64, 54
5, 754080, Note_on_c, 4, 69, 54
5, 754320, Note_off_c, 4, 69, 0
5, 754320, Note_off_c, 4, 64, 0
5, 755040, Note_on_c, 4, 58, 74
5, 755040, Note_on_c, 4, 61, 74
5, 755040, Note_on_c, 4, 64, 74
5, 755980, Note_off_c, 4, 64, 0
5, 755980, Note_off_c, 4, 58, 0
5, 755984, Note_off_c, 4, 61, 0
5, 756240, Note_on_c, 4, 70, 69
5, 756432, Note_off_c, 4, 70, 0
5, 756480, Note_on_c, 4, 70, 68
5, 756672, Note_off_c, 4, 70, 0
5, 756720, Note_on_c, 4, 70, 66
5, 756912, Note_off_c, 4, 70, 0
5, 756960, Note_on_c, 4, 69, 64
5, 757200, Note_off_c, 4, 69, 0
5, 757440, Note_on_c, 4, 67, 60
5, 757680, Note_off_c, 4, 67, 0
5, 757920, Note_on_c, 4, 65, 57
5, 758160, Note_off_c, 4, 65, 0
5, 758880, Note_on_c, 4, 55, 78
5, 759600, Note_off_c, 4, 55, 0
5, 759840, Note_on_c, 4, 53, 67
5, 760560, Note_off_c, 4, 53, 0
5, 760800, Note_on_c, 4, 55, 82
5, 761520, Note_off_c, 4, 55, 0
5, 764640, Note_on_c, 4, 67, 65
5, 766560, Note_off_c, 4, 67, 0
5, 766560, Note_on_c, 4, 65, 46
5, 767040, Note_off_c, 4, 65, 0
5, 768480, Note_on_c, 4, 58, 58
5, 769200, Note_off_c, 4, 58, 0
5, 769440, Note_on_c, 4, 58, 63
5, 770160, Note_off_c, 4, 58, 0
5, 770400, Note_on_c, 4, 60, 69
5, 771120, Note_off_c, 4, 60, 0
5, 771360, Note_on_c, 4, 53, 56
5, 772080, Note_off_c, 4, 53, 0
5, 772320, Note_on_c, 4, 58, 44
5, 773040, Note_off_c, 4, 58, 0
5, 773280, Note_on_c, 4, 58, 49
5, 774000, Note_off_c, 4, 58, 0
5, 774240, Note_on_c, 4, 60, 57
5, 774960, Note_off_c, 4, 60, 0
5, 775200, Note_on_c, 4, 53, 47
5, 775920, Note_off_c, 4, 53, 0
5, 776160, Note_on_c, 4, 58, 64
5, 776880, Note_off_c, 4, 58, 0
5, 777120, Note_on_c, 4, 58, 70
5, 777840, Note_off_c, 4, 58, 0
5, 778080, Note_on_c, 4, 57, 77
5, 778800, Note_off_c, 4, 57, 0
5, 779040, Note_on_c, 4, 57, 68
5, 779760, Note_off_c, 4, 57, 0
5, 780000, Note_on_c, 4, 55, 67
5, 780720, Note_off_c, 4, 55, 0
5, 780960, Note_on_c, 4, 53, 74
5, 781680, Note_off_c, 4, 53, 0
5, 781920, Note_on_c, 4, 52, 81
5, 782640, Note_off_c, 4, 52, 0
5, 782880, Note_on_c, 4, 55, 69
5, 783600, Note_off_c, 4, 55, 0
5, 783840, Note_on_c, 4, 53, 70
5, 784560, Note_off_c, 4, 53, 0
5, 784800, Note_on_c, 4, 53, 74
5, 785520, Note_off_c, 4, 53, 0
5, 785760, Note_on_c, 4, 49, 77
5, 786480, Note_off_c, 4, 49, 0
5, 786720, Note_on_c, 4, 49, 81
5, 787440, Note_off_c, 4, 49, 0
5, 787680, Note_on_c, 4, 53, 86
5, 787680, Note_on_c, 4, 56, 86
5, 788640, Note_off_c, 4, 56, 0
5, 788640, Note_on_c, 4, 59, 74
5, 789540, Note_off_c, 4, 53, 0
5, 789600, Note_off_c, 4, 59, 0
5, 789600, Note_on_c, 4, 55, 59
5, 789600, Note_on_c, 4, 60, 59
5, 790020, Note_off_c, 4, 60, 0
5, 790026, Note_off_c, 4, 55, 0
5, 797280, Note_on_c, 4, 69, 40
5, 798000, Note_off_c, 4, 69, 0
5, 798240, Note_on_c, 4, 65, 46
5, 798960, Note_off_c, 4, 65, 0
5, 799200, Note_on_c, 4, 70, 51
5, 799920, Note_off_c, 4, 70, 0
5, 800160, Note_on_c, 4, 69, 46
5, 800880, Note_off_c, 4, 69, 0
5, 801120, Note_on_c, 4, 70, 57
5, 801840, Note_off_c, 4, 70, 0
5, 802080, Note_on_c, 4, 69, 48
5, 802800, Note_off_c, 4, 69, 0
5, 803040, Note_on_c, 4, 67, 55
5, 803520, Note_off_c, 4, 67, 0
5, 803520, Note_on_c, 4, 64, 49
5, 804000, Note_off_c, 4, 64, 0
5, 804000, Note_on_c, 4, 65, 50
5, 804480, Note_off_c, 4, 65, 0
5, 804480, Note_on_c, 4, 69, 44
5, 804914, Note_off_c, 4, 69, 0
5, 804960, Note_on_c, 4, 70, 44
5, 805440, Note_off_c, 4, 70, 0
5, 806400, Note_on_c, 4, 65, 53
5, 807360, Note_off_c, 4, 65, 0
5, 807360, Note_on_c, 4, 64, 45
5, 807720, Note_on_c, 4, 62, 43
5, 807734, Note_off_c, 4, 64, 0
5, 807840, Note_off_c, 4, 62, 0
5, 807840, Note_on_c, 4, 64, 44
5, 808260, Note_off_c, 4, 64, 0
5, 808800, Note_on_c, 4, 69, 50
5, 809520, Note_off_c, 4, 69, 0
5, 809760, Note_on_c, 4, 65, 51
5, 810480, Note_off_c, 4, 65, 0
5, 810720, Note_on_c, 4, 70, 59
5, 811440, Note_off_c, 4, 70, 0
5, 811680, Note_on_c, 4, 69, 53
5, 812400, Note_off_c, 4, 69, 0
5, 812640, Note_on_c, 4, 70, 63
5, 813360, Note_off_c, 4, 70, 0
5, 813600, Note_on_c, 4, 69, 58
5, 814320, Note_off_c, 4, 69, 0
5, 814560, Note_on_c, 4, 67, 69
5, 815040, Note_off_c, 4, 67, 0
5, 815040, Note_on_c, 4, 64, 66
5, 815520, Note_off_c, 4, 64, 0
5, 815520, Note_on_c, 4, 65, 63
5, 816000, Note_off_c, 4, 65, 0
5, 816000, Note_on_c, 4, 62, 59
5, 816434, Note_off_c, 4, 62, 0
5, 816960, Note_on_c, 4, 70, 55
5, 817440, Note_off_c, 4, 70, 0
5, 817440, Note_on_c, 4, 69, 57
5, 817920, Note_off_c, 4, 69, 0
5, 817920, Note_on_c, 4, 67, 59
5, 818346, Note_off_c, 4, 67, 0
5, 820320, Control_c, 4, 64, 0
5, 820800, Note_on_c, 4, 53, 61
5, 821184, Note_off_c, 4, 53, 0
5, 821280, Note_on_c, 4, 46, 63
5, 821664, Note_off_c, 4, 46, 0
5, 821760, Note_on_c, 4, 58, 65
5, 822144, Note_off_c, 4, 58, 0
5, 822240, Note_on_c, 4, 51, 67
5, 822624, Note_off_c, 4, 51, 0
5, 822720, Note_on_c, 4, 39, 66
5, 823104, Note_off_c, 4, 39, 0
5, 823200, Note_on_c, 4, 44, 65
5, 823584, Note_off_c, 4, 44, 0
5, 823680, Note_on_c, 4, 56, 64
5, 824064, Note_off_c, 4, 56, 0
5, 824160, Note_on_c, 4, 49, 63
5, 824544, Note_off_c, 4, 49, 0
5, 824640, Note_on_c, 4, 37, 62
5, 825024, Note_off_c, 4, 37, 0
5, 825120, Note_on_c, 4, 43, 61
5, 825504, Note_off_c, 4, 43, 0
5, 825600, Note_on_c, 4, 55, 59
5, 825984, Note_off_c, 4, 55, 0
5, 826080, Note_on_c, 4, 48, 58
5, 826464, Note_off_c, 4, 48, 0
5, 826560, Note_on_c, 4, 36, 57
5, 826944, Note_off_c, 4, 36, 0
5, 827040, Note_on_c, 4, 41, 56
5, 827234, Note_off_c, 4, 41, 0
5, 827280, Note_on_c, 4, 49, 51
5, 827520, Note_off_c, 4, 49, 0
5, 827520, Note_on_c, 4, 48, 55
5, 827760, Note_off_c, 4, 48, 0
5, 827760, Note_on_c, 4, 46, 54
5, 828000, Note_off_c, 4, 46, 0
5, 828000, Note_on_c, 4, 44, 56
5, 828420, Note_off_c, 4, 44, 0
5, 830400, Note_on_c, 4, 63, 74
5, 831780, Note_off_c, 4, 63, 0
5, 831840, Note_on_c, 4, 61, 62
5, 832800, Note_off_c, 4, 61, 0
5, 832800, Note_on_c, 4, 60, 52
5, 833286, Note_off_c, 4, 60, 0
5, 835680, Control_c, 4, 64, 0
5, 836160, Note_on_c, 4, 53, 61
5, 836544, Note_off_c, 4, 53, 0
5, 836640, Note_on_c, 4, 46, 63
5, 837024, Note_off_c, 4, 46, 0
5, 837120, Note_on_c, 4, 58, 65
5, 837504, Note_off_c, 4, 58, 0
5, 837600, Note_on_c, 4, 51, 67
5, 837984, Note_off_c, 4, 51, 0
5, 838080, Note_on_c, 4, 39, 66
5, 838464, Note_off_c, 4, 39, 0
5, 838560, Note_on_c, 4, 44, 65
5, 838944, Note_off_c, 4, 44, 0
5, 839040, Note_on_c, 4, 56, 64
5, 839424, Note_off_c, 4, 56, 0
5, 839520, Note_on_c, 4, 49, 63
5, 839904, Note_off_c, 4, 49, 0
5, 840000, Note_on_c, 4, 37, 62
5, 840384, Note_off_c, 4, 37, 0
5, 840480, Note_on_c, 4, 43, 61
5, 840864, Note_off_c, 4, 43, 0
5, 840960, Note_on_c, 4, 55, 59
5, 841344, Note_off_c, 4, 55, 0
5, 841440, Note_on_c, 4, 48, 58
5, 841824, Note_off_c, 4, 48, 0
5, 841920, Note_on_c, 4, 36, 57
5, 842304, Note_off_c, 4, 36, 0
5, 842400, Note_on_c, 4, 41, 56
5, 842594, Note_off_c, 4, 41, 0
5, 842640, Note_on_c, 4, 49, 51
5, 842880, Note_off_c, 4, 49, 0
5, 842880, Note_on_c, 4, 48, 55
5, 843120, Note_off_c, 4, 48, 0
5, 843120, Note_on_c, 4, 46, 54
5, 843360, Note_off_c, 4, 46, 0
5, 843360, Note_on_c, 4, 44, 56
5, 843780, Note_off_c, 4, 44, 0
5, 845760, Note_on_c, 4, 63, 74
5, 847140, Note_off_c, 4, 63, 0
5, 847200, Note_on_c, 4, 61, 62
5, 848160, Note_off_c, 4, 61, 0
5, 848160, Note_on_c, 4, 60, 52
5, 848646, Note_off_c, 4, 60, 0
5, 851040, Control_c, 4, 64, 0
5, 851520, Note_on_c, 4, 65, 44
5, 851946, Note_off_c, 4, 65, 0
5, 852480, Note_on_c, 4, 64, 48
5, 852900, Note_off_c, 4, 64, 0
5, 852960, Note_on_c, 4, 63, 51
5, 853440, Note_off_c, 4, 63, 0
5, 853440, Note_on_c, 4, 62, 53
5, 853680, Note_off_c, 4, 62, 0
5, 853680, Note_on_c, 4, 60, 54
5, 853920, Note_off_c, 4, 60, 0
5, 853920, Note_on_c, 4, 58, 55
5, 854160, Note_off_c, 4, 58, 0
5, 854160, Note_on_c, 4, 60, 50
5, 854400, Note_off_c, 4, 60, 0
5, 854400, Note_on_c, 4, 61, 48
5, 854640, Note_off_c, 4, 61, 0
5, 854640, Note_on_c, 4, 62, 46
5, 854880, Note_off_c, 4, 62, 0
5, 854880, Note_on_c, 4, 63, 49
5, 855300, Note_off_c, 4, 63, 0
5, 855360, Note_on_c, 4, 63, 51
5, 855780, Note_off_c, 4, 63, 0
5, 856320, Note_on_c, 4, 62, 56
5, 856746, Note_off_c, 4, 62, 0
5, 856800, Note_on_c, 4, 61, 58
5, 857280, Note_off_c, 4, 61, 0
5, 857280, Note_on_c, 4, 60, 61
5, 857520, Note_off_c, 4, 60, 0
5, 857520, Note_on_c, 4, 58, 62
5, 857760, Note_off_c, 4, 58, 0
5, 857760, Note_on_c, 4, 56, 63
5, 858000, Note_off_c, 4, 56, 0
5, 858000, Note_on_c, 4, 55, 61
5, 858240, Note_off_c, 4, 55, 0
5, 858240, Note_on_c, 4, 53, 60
5, 858480, Note_off_c, 4, 53, 0
5, 858480, Note_on_c, 4, 51, 58
5, 858720, Note_off_c, 4, 51, 0
5, 858720, Note_on_c, 4, 50, 62
5, 859146, Note_off_c, 4, 50, 0
5, 859200, Note_on_c, 4, 52, 53
5, 859620, Note_off_c, 4, 52, 0
5, 859680, Note_on_c, 4, 53, 59
5, 860106, Note_off_c, 4, 53, 0
5, 860160, Note_on_c, 4, 47, 53
5, 860580, Note_off_c, 4, 47, 0
5, 860640, Note_on_c, 4, 48, 53
5, 861066, Note_off_c, 4, 48, 0
5, 861120, Note_on_c, 4, 60, 48
5, 861840, Note_off_c, 4, 60, 0
5, 861840, Note_on_c, 4, 59, 49
5, 862080, Note_off_c, 4, 59, 0
5, 862080, Note_on_c, 4, 60, 52
5, 862320, Note_off_c, 4, 60, 0
5, 862320, Note_on_c, 4, 59, 56
5, 862500, Note_off_c, 4, 59, 0
5, 870720, Note_on_c, 4, 61, 68
5, 870720, Note_on_c, 4, 65, 68
5, 871080, Note_off_c, 4, 65, 0
5, 871080, Note_off_c, 4, 61, 0
5, 871680, Note_on_c, 4, 62, 77
5, 871680, Note_on_c, 4, 65, 77
5, 872046, Note_off_c, 4, 62, 0
5, 872054, Note_off_c, 4, 65, 0
5, 872640, Note_on_c, 4, 61, 80
5, 873600, Note_off_c, 4, 61, 0
5, 873600, Note_on_c, 4, 60, 69
5, 874020, Note_off_c, 4, 60, 0
5, 874560, Note_on_c, 4, 58, 59
5, 875040, Note_off_c, 4, 58, 0
5, 875040, Note_on_c, 4, 56, 53
5, 875520, Note_off_c, 4, 56, 0
5, 875520, Note_on_c, 4, 55, 48
5, 875940, Note_off_c, 4, 55, 0
5, 877920, Control_c, 4, 64, 0
5, 878400, Note_on_c, 4, 65, 44
5, 878826, Note_off_c, 4, 65, 0
5, 879360, Note_on_c, 4, 64, 48
5, 879780, Note_off_c, 4, 64, 0
5, 879840, Note_on_c, 4, 63, 51
5, 880320, Note_off_c, 4, 63, 0
5, 880320, Note_on_c, 4, 62, 53
5, 880560, Note_off_c, 4, 62, 0
5, 880560, Note_on_c, 4, 60, 54
5, 880800, Note_off_c, 4, 60, 0
5, 880800, Note_on_c, 4, 58, 55
5, 881040, Note_off_c, 4, 58, 0
5, 881040, Note_on_c, 4, 60, 50
5, 881280, Note_off_c, 4, 60, 0
5, 881280, Note_on_c, 4, 61, 48
5, 881520, Note_off_c, 4, 61, 0
5, 881520, Note_on_c, 4, 62, 46
5, 881760, Note_off_c, 4, 62, 0
5, 881760, Note_on_c, 4, 63, 49
5, 882180, Note_off_c, 4, 63, 0
5, 882240, Note_on_c, 4, 63, 51
5, 882660, Note_off_c, 4, 63, 0
5, 883200, Note_on_c, 4, 62, 56
5, 883626, Note_off_c, 4, 62, 0
5, 883680, Note_on_c, 4, 61, 58
5, 884160, Note_off_c, 4, 61, 0
5, 884160, Note_on_c, 4, 60, 61
5, 884400, Note_off_c, 4, 60, 0
5, 884400, Note_on_c, 4, 58, 62
5, 884640, Note_off_c, 4, 58, 0
5, 884640, Note_on_c, 4, 56, 63
5, 884880, Note_off_c, 4, 56, 0
5, 884880, Note_on_c, 4, 55, 61
5, 885120, Note_off_c, 4, 55, 0
5, 885120, Note_on_c, 4, 53, 60
5, 885360, Note_off_c, 4, 53, 0
5, 885360, Note_on_c, 4, 51, 58
5, 885600, Note_off_c, 4, 51, 0
5, 885600, Note_on_c, 4, 50, 62
5, 886026, Note_off_c, 4, 50, 0
5, 886080, Note_on_c, 4, 52, 53
5, 886500, Note_off_c, 4, 52, 0
5, 886560, Note_on_c, 4, 53, 59
5, 886986, Note_off_c, 4, 53, 0
5, 887040, Note_on_c, 4, 47, 53
5, 887460, Note_off_c, 4, 47, 0
5, 887520, Note_on_c, 4, 48, 53
5, 887946, Note_off_c, 4, 48, 0
5, 888000, Note_on_c, 4, 60, 48
5, 888720, Note_off_c, 4, 60, 0
5, 888720, Note_on_c, 4, 59, 49
5, 888960, Note_off_c, 4, 59, 0
5, 888960, Note_on_c, 4, 60, 52
5, 889200, Note_off_c, 4, 60, 0
5, 889200, Note_on_c, 4, 59, 56
5, 889380, Note_off_c, 4, 59, 0
5, 897600, Note_on_c, 4, 65, 68
5, 897600, Note_on_c, 4, 61, 68
5, 897960, Note_off_c, 4, 61, 0
5, 897960, Note_off_c, 4, 65, 0
5, 898560, Note_on_c, 4, 65, 77
5, 898560, Note_on_c, 4, 62, 77
5, 898926, Note_off_c, 4, 62, 0
5, 898934, Note_off_c, 4, 65, 0
5, 899520, Note_on_c, 4, 61, 80
5, 900480, Note_off_c, 4, 61, 0
5, 900480, Note_on_c, 4, 60, 69
5, 900900, Note_off_c, 4, 60, 0
5, 901440, Note_on_c, 4, 58, 59
5, 901920, Note_off_c, 4, 58, 0
5, 901920, Note_on_c, 4, 56, 53
5, 902400, Note_off_c, 4, 56, 0
5, 902400, Note_on_c, 4, 55, 48
5, 902820, Note_off_c, 4, 55, 0
5, 902880, Control_c, 4, 64, 0
5, 910560, Note_on_c, 4, 69, 44
5, 911280, Note_off_c, 4, 69, 0
5, 911520, Note_on_c, 4, 65, 48
5, 912240, Note_off_c, 4, 65, 0
5, 912480, Note_on_c, 4, 70, 55
5, 913200, Note_off_c, 4, 70, 0
5, 913440, Note_on_c, 4, 69, 48
5, 914160, Note_off_c, 4, 69, 0
5, 914400, Note_on_c, 4, 70, 59
5, 915120, Note_off_c, 4, 70, 0
5, 915360, Note_on_c, 4, 69, 52
5, 916080, Note_off_c, 4, 69, 0
5, 916320, Note_on_c, 4, 67, 64
5, 916560, Note_off_c, 4, 67, 0
5, 916800, Note_on_c, 4, 64, 57
5, 917040, Note_off_c, 4, 64, 0
5, 917280, Note_on_c, 4, 65, 57
5, 917520, Note_off_c, 4, 65, 0
5, 917760, Note_on_c, 4, 69, 52
5, 918000, Note_off_c, 4, 69, 0
5, 918240, Note_on_c, 4, 70, 48
5, 918720, Note_off_c, 4, 70, 0
5, 919680, Note_on_c, 4, 65, 59
5, 920640, Note_off_c, 4, 65, 0
5, 920640, Note_on_c, 4, 64, 52
5, 921000, Note_off_c, 4, 64, 0
5, 921000, Note_on_c, 4, 62, 46
5, 921120, Note_off_c, 4, 62, 0
5, 921120, Note_on_c, 4, 64, 47
5, 921540, Note_off_c, 4, 64, 0
5, 922080, Note_on_c, 4, 57, 54
5, 922800, Note_off_c, 4, 57, 0
5, 923040, Note_on_c, 4, 53, 56
5, 923760, Note_off_c, 4, 53, 0
5, 924000, Note_on_c, 4, 58, 58
5, 924720, Note_off_c, 4, 58, 0
5, 924960, Note_on_c, 4, 57, 59
5, 925680, Note_off_c, 4, 57, 0
5, 925920, Note_on_c, 4, 58, 61
5, 926640, Note_off_c, 4, 58, 0
5, 926880, Note_on_c, 4, 57, 63
5, 927306, Note_off_c, 4, 57, 0
5, 927360, Note_on_c, 4, 53, 64
5, 927780, Note_off_c, 4, 53, 0
5, 927840, Note_on_c, 4, 55, 67
5, 928320, Note_off_c, 4, 55, 0
5, 928320, Note_on_c, 4, 52, 65
5, 928740, Note_off_c, 4, 52, 0
5, 928800, Note_on_c, 4, 53, 64
5, 929220, Note_off_c, 4, 53, 0
5, 929280, Note_on_c, 4, 50, 62
5, 929700, Note_off_c, 4, 50, 0
5, 929760, Note_on_c, 4, 46, 60
5, 930186, Note_off_c, 4, 46, 0
5, 931440, Note_on_c, 4, 60, 69
5, 931560, Note_off_c, 4, 60, 0
5, 931680, Note_on_c, 4, 65, 72
5, 933066, Note_off_c, 4, 65, 0
5, 933600, Note_on_c, 4, 50, 44
5, 934320, Note_off_c, 4, 50, 0
5, 934560, Note_on_c, 4, 48, 48
5, 935280, Note_off_c, 4, 48, 0
5, 935520, Note_on_c, 4, 48, 51
5, 936240, Note_off_c, 4, 48, 0
5, 936480, Note_on_c, 4, 48, 57
5, 937200, Note_off_c, 4, 48, 0
5, 937440, Note_on_c, 4, 62, 46
5, 938160, Note_off_c, 4, 62, 0
5, 938400, Note_on_c, 4, 60, 52
5, 939120, Note_off_c, 4, 60, 0
5, 939360, Note_on_c, 4, 60, 57
5, 940080, Note_off_c, 4, 60, 0
5, 940320, Note_on_c, 4, 60, 67
5, 941040, Note_off_c, 4, 60, 0
5, 941760, Note_on_c, 4, 65, 57
5, 942180, Note_off_c, 4, 65, 0
5, 942240, Note_on_c, 4, 65, 54
5, 942720, Note_on_c, 4, 64, 50
5, 942727, Note_off_c, 4, 65, 0
5, 943140, Note_off_c, 4, 64, 0
5, 943680, Note_on_c, 4, 58, 61
5, 943680, Note_on_c, 4, 60, 61
5, 944100, Note_off_c, 4, 60, 0
5, 944100, Note_off_c, 4, 58, 0
5, 944160, Note_on_c, 4, 60, 55
5, 944160, Note_on_c, 4, 58, 55
5, 944640, Note_off_c, 4, 58, 0
5, 944640, Note_on_c, 4, 57, 49
5, 945066, Note_off_c, 4, 57, 0
5, 945066, Note_off_c, 4, 60, 0
5, 945120, Note_on_c, 4, 53, 46
5, 945120, Note_on_c, 4, 58, 46
5, 946012, Note_off_c, 4, 53, 0
5, 946020, Note_off_c, 4, 58, 0
5, 946080, Note_on_c, 4, 57, 52
5, 946080, Note_on_c, 4, 53, 52
5, 946492, Note_off_c, 4, 57, 0
5, 946514, Note_off_c, 4, 53, 0
5, 946560, Note_on_c, 4, 52, 54
5, 946980, Note_off_c, 4, 52, 0
5, 949440, Note_on_c, 4, 74, 65
5, 949440, Note_on_c, 4, 77, 65
5, 949866, Note_off_c, 4, 77, 0
5, 949866, Note_off_c, 4, 74, 0
5, 949920, Note_on_c, 4, 74, 60
5, 949920, Note_on_c, 4, 77, 60
5, 950400, Note_off_c, 4, 77, 0
5, 950400, Note_off_c, 4, 74, 0
5, 950400, Note_on_c, 4, 76, 55
5, 950842, Note_off_c, 4, 76, 0
5, 951360, Note_on_c, 4, 70, 67
5, 951360, Note_on_c, 4, 64, 67
5, 951780, Note_off_c, 4, 64, 0
5, 951780, Note_off_c, 4, 70, 0
5, 951840, Note_on_c, 4, 64, 62
5, 951840, Note_on_c, 4, 70, 62
5, 952320, Note_off_c, 4, 70, 0
5, 952320, Note_off_c, 4, 64, 0
5, 952320, Note_on_c, 4, 69, 54
5, 952746, Note_off_c, 4, 69, 0
5, 953280, Note_on_c, 4, 67, 60
5, 953706, Note_off_c, 4, 67, 0
5, 953760, Note_on_c, 4, 69, 63
5, 954186, Note_off_c, 4, 69, 0
5, 954240, Note_on_c, 4, 70, 69
5, 954660, Note_off_c, 4, 70, 0
5, 954720, Note_on_c, 4, 65, 73
5, 954720, Note_on_c, 4, 67, 73
5, 954720, Note_on_c, 4, 71, 73
5, 956565, Note_off_c, 4, 71, 0
5, 956580, Note_off_c, 4, 67, 0
5, 956580, Note_off_c, 4, 65, 0
5, 956640, Note_on_c, 4, 55, 63
5, 956640, Note_on_c, 4, 58, 63
5, 956640, Note_on_c, 4, 60, 63
5, 958485, Note_off_c, 4, 58, 0
5, 958507, Note_off_c, 4, 60, 0
5, 958507, Note_off_c, 4, 55, 0
5, 960960, Note_on_c, 4, 69, 67
5, 961440, Note_off_c, 4, 69, 0
5, 961440, Note_on_c, 4, 70, 70
5, 962340, Note_off_c, 4, 70, 0
5, 962400, Note_on_c, 4, 65, 79
5, 962400, Note_on_c, 4, 67, 79
5, 962400, Note_on_c, 4, 71, 79
5, 964252, Note_off_c, 4, 71, 0
5, 964267, Note_off_c, 4, 67, 0
5, 964267, Note_off_c, 4, 65, 0
5, 964320, Note_on_c, 4, 55, 74
5, 964320, Note_on_c, 4, 58, 74
5, 964320, Note_on_c, 4, 60, 74
5, 966120, Note_off_c, 4, 60, 0
5, 966120, Note_off_c, 4, 58, 0
5, 966120, Note_off_c, 4, 55, 0
5, 970080, Note_on_c, 4, 53, 75
5, 970080, Note_on_c, 4, 55, 75
5, 970080, Note_on_c, 4, 59, 75
5, 970506, Note_off_c, 4, 59, 0
5, 970506, Note_off_c, 4, 55, 0
5, 970506, Note_off_c, 4, 53, 0
5, 979680, Note_on_c, 4, 60, 76
5, 980580, Note_off_c, 4, 60, 0
5, 980640, Note_on_c, 4, 58, 79
5, 981052, Note_off_c, 4, 58, 0
5, 981120, Note_on_c, 4, 57, 81
5, 981554, Note_off_c, 4, 57, 0
5, 981600, Note_on_c, 4, 58, 83
5, 982500, Note_off_c, 4, 58, 0
5, 982560, Note_on_c, 4, 60, 86
5, 982980, Note_off_c, 4, 60, 0
5, 983040, Note_on_c, 4, 64, 88
5, 983460, Note_off_c, 4, 64, 0
5, 983520, Note_on_c, 4, 62, 89
5, 984420, Note_off_c, 4, 62, 0
5, 984480, Note_on_c, 4, 72, 83
5, 985680, Note_on_c, 4, 70, 78
5, 985686, Note_off_c, 4, 72, 0
5, 985860, Note_off_c, 4, 70, 0
5, 985920, Note_on_c, 4, 70, 78
5, 986160, Note_off_c, 4, 70, 0
5, 986160, Note_on_c, 4, 68, 77
5, 986332, Note_off_c, 4, 68, 0
5, 986400, Note_on_c, 4, 69, 76
5, 987540, Note_off_c, 4, 69, 0
5, 987600, Note_on_c, 4, 67, 71
5, 987780, Note_off_c, 4, 67, 0
5, 987840, Note_on_c, 4, 67, 70
5, 988080, Note_off_c, 4, 67, 0
5, 988080, Note_on_c, 4, 64, 69
5, 988260, Note_off_c, 4, 64, 0
5, 988320, Note_on_c, 4, 65, 68
5, 989040, Note_off_c, 4, 65, 0
5, 989040, Note_on_c, 4, 69, 65
5, 989220, Note_off_c, 4, 69, 0
5, 989280, Note_on_c, 4, 70, 64
5, 989520, Note_off_c, 4, 70, 0
5, 989520, Note_on_c, 4, 69, 63
5, 989760, Note_off_c, 4, 69, 0
5, 989760, Note_on_c, 4, 70, 62
5, 989940, Note_off_c, 4, 70, 0
5, 990240, Note_on_c, 4, 69, 60
5, 990480, Note_off_c, 4, 69, 0
5, 990480, Note_on_c, 4, 68, 59
5, 990720, Note_off_c, 4, 68, 0
5, 990720, Note_on_c, 4, 69, 58
5, 990914, Note_off_c, 4, 69, 0
5, 991200, Note_on_c, 4, 70, 56
5, 991440, Note_off_c, 4, 70, 0
5, 991440, Note_on_c, 4, 69, 55
5, 991680, Note_off_c, 4, 69, 0
5, 991680, Note_on_c, 4, 70, 55
5, 991874, Note_off_c, 4, 70, 0
5, 992160, Note_on_c, 4, 69, 53
5, 992400, Note_off_c, 4, 69, 0
5, 992400, Note_on_c, 4, 68, 52
5, 992640, Note_off_c, 4, 68, 0
5, 992640, Note_on_c, 4, 69, 51
5, 992826, Note_off_c, 4, 69, 0
5, 993120, Note_on_c, 4, 70, 49
5, 993540, Note_off_c, 4, 70, 0
5, 994080, Note_on_c, 4, 69, 45
5, 994500, Note_off_c, 4, 69, 0
5, 995040, Note_on_c, 4, 68, 58
5, 995040, Note_on_c, 4, 62, 58
5, 995040, Note_on_c, 4, 65, 58
5, 998760, Note_off_c, 4, 65, 0
5, 998760, Note_off_c, 4, 62, 0
5, 998760, Note_off_c, 4, 68, 0
5, 998880, Note_on_c, 4, 65, 62
5, 998880, Note_on_c, 4, 69, 62
5, 1002675, Note_off_c, 4, 69, 0
5, 1002675, Note_off_c, 4, 65, 0
5, 1005600, Note_on_c, 4, 70, 70
5, 1005600, Note_on_c, 4, 64, 70
5, 1006500, Note_off_c, 4, 64, 0
5, 1006500, Note_off_c, 4, 70, 0
5, 1006560, Note_on_c, 4, 65, 71
5, 1007280, Note_off_c, 4, 65, 0
5, 1007520, Note_on_c, 4, 65, 52
5, 1008240, Note_off_c, 4, 65, 0
5, 1008480, Note_on_c, 4, 64, 67
5, 1009200, Note_off_c, 4, 64, 0
5, 1009440, Note_on_c, 4, 64, 62
5, 1010160, Note_off_c, 4, 64, 0
5, 1010400, Note_on_c, 4, 65, 57
5, 1011120, Note_off_c, 4, 65, 0
5, 1011360, Note_on_c, 4, 65, 59
5, 1012080, Note_off_c, 4, 65, 0
5, 1012320, Note_on_c, 4, 64, 75
5, 1013040, Note_off_c, 4, 64, 0
5, 1013280, Note_on_c, 4, 64, 70
5, 1014000, Note_off_c, 4, 64, 0
5, 1014240, Note_on_c, 4, 69, 64
5, 1014660, Note_off_c, 4, 69, 0
5, 1015200, Note_on_c, 4, 57, 59
5, 1015626, Note_off_c, 4, 57, 0
5, 1016160, Note_on_c, 4, 45, 54
5, 1016572, Note_off_c, 4, 45, 0
5, 1018080, Note_on_c, 4, 41, 40
5, 1018320, Note_off_c, 4, 41, 0
5, 1018320, Note_on_c, 4, 43, 40
5, 1018560, Note_off_c, 4, 43, 0
5, 1018560, Note_on_c, 4, 45, 41
5, 1018800, Note_off_c, 4, 45, 0
5, 1018800, Note_on_c, 4, 43, 41
5, 1019040, Note_off_c, 4, 43, 0
5, 1019040, Note_on_c, 4, 41, 42
5, 1019280, Note_on_c, 4, 40, 42
5, 1019286, Note_off_c, 4, 41, 0
5, 1019520, Note_on_c, 4, 38, 43
5, 1019526, Note_off_c, 4, 40, 0
5, 1019760, Note_off_c, 4, 38, 0
5, 1019760, Note_on_c, 4, 36, 44
5, 1020000, Note_on_c, 4, 34, 44
5, 1020006, Note_off_c, 4, 36, 0
5, 1020240, Note_on_c, 4, 31, 45
5, 1020254, Note_off_c, 4, 34, 0
5, 1020480, Note_off_c, 4, 31, 0
5, 1020480, Note_on_c, 4, 36, 45
5, 1020720, Note_on_c, 4, 34, 46
5, 1020726, Note_off_c, 4, 36, 0
5, 1020960, Note_on_c, 4, 33, 46
5, 1020966, Note_off_c, 4, 34, 0
5, 1021200, Note_off_c, 4, 33, 0
5, 1021200, Note_on_c, 4, 29, 47
5, 1021440, Note_off_c, 4, 29, 0
5, 1021440, Note_on_c, 4, 38, 48
5, 1021680, Note_on_c, 4, 36, 48
5, 1021686, Note_off_c, 4, 38, 0
5, 1021920, Note_off_c, 4, 36, 0
5, 1021920, Note_on_c, 4, 34, 49
5, 1022160, Note_off_c, 4, 34, 0
5, 1022160, Note_on_c, 4, 31, 49
5, 1022400, Note_off_c, 4, 31, 0
5, 1022400, Note_on_c, 4, 36, 50
5, 1022640, Note_off_c, 4, 36, 0
5, 1022640, Note_on_c, 4, 34, 50
5, 1022880, Note_off_c, 4, 34, 0
5, 1022880, Note_on_c, 4, 33, 51
5, 1023120, Note_off_c, 4, 33, 0
5, 1023120, Note_on_c, 4, 36, 51
5, 1023360, Note_off_c, 4, 36, 0
5, 1023360, Note_on_c, 4, 41, 52
5, 1023600, Note_off_c, 4, 41, 0
5, 1023600, Note_on_c, 4, 40, 53
5, 1023840, Note_off_c, 4, 40, 0
5, 1023840, Note_on_c, 4, 38, 53
5, 1024080, Note_off_c, 4, 38, 0
5, 1024080, Note_on_c, 4, 31, 52
5, 1024320, Note_off_c, 4, 31, 0
5, 1024320, Note_on_c, 4, 33, 50
5, 1024560, Note_off_c, 4, 33, 0
5, 1024560, Note_on_c, 4, 34, 49
5, 1024800, Note_off_c, 4, 34, 0
5, 1024800, Note_on_c, 4, 36, 47
5, 1025040, Note_off_c, 4, 36, 0
5, 1025040, Note_on_c, 4, 35, 45
5, 1025280, Note_off_c, 4, 35, 0
5, 1025280, Note_on_c, 4, 36, 44
5, 1025520, Note_off_c, 4, 36, 0
5, 1025520, Note_on_c, 4, 34, 42
5, 1025706, Note_off_c, 4, 34, 0
5, 1025760, Note_on_c, 4, 33, 44
5, 1026000, Note_off_c, 4, 33, 0
5, 1026000, Note_on_c, 4, 41, 45
5, 1026180, Note_off_c, 4, 41, 0
5, 1026240, Note_on_c, 4, 45, 45
5, 1026420, Note_off_c, 4, 45, 0
5, 1026480, Note_on_c, 4, 43, 46
5, 1026720, Note_off_c, 4, 43, 0
5, 1026720, Note_on_c, 4, 41, 48
5, 1026960, Note_off_c, 4, 41, 0
5, 1026960, Note_on_c, 4, 40, 47
5, 1027200, Note_off_c, 4, 40, 0
5, 1027200, Note_on_c, 4, 38, 48
5, 1027440, Note_off_c, 4, 38, 0
5, 1027440, Note_on_c, 4, 36, 48
5, 1027680, Note_off_c, 4, 36, 0
5, 1027680, Note_on_c, 4, 34, 49
5, 1027920, Note_off_c, 4, 34, 0
5, 1027920, Note_on_c, 4, 31, 50
5, 1028160, Note_off_c, 4, 31, 0
5, 1028160, Note_on_c, 4, 36, 50
5, 1028400, Note_off_c, 4, 36, 0
5, 1028400, Note_on_c, 4, 34, 51
5, 1028640, Note_off_c, 4, 34, 0
5, 1028640, Note_on_c, 4, 33, 52
5, 1028880, Note_off_c, 4, 33, 0
5, 1028880, Note_on_c, 4, 29, 52
5, 1029120, Note_off_c, 4, 29, 0
5, 1029120, Note_on_c, 4, 38, 52
5, 1029360, Note_off_c, 4, 38, 0
5, 1029360, Note_on_c, 4, 36, 53
5, 1029600, Note_off_c, 4, 36, 0
5, 1029600, Note_on_c, 4, 34, 54
5, 1029840, Note_off_c, 4, 34, 0
5, 1029840, Note_on_c, 4, 31, 55
5, 1030080, Note_off_c, 4, 31, 0
5, 1030080, Note_on_c, 4, 36, 55
5, 1030320, Note_off_c, 4, 36, 0
5, 1030320, Note_on_c, 4, 34, 56
5, 1030560, Note_off_c, 4, 34, 0
5, 1030560, Note_on_c, 4, 33, 57
5, 1030800, Note_off_c, 4, 33, 0
5, 1030800, Note_on_c, 4, 36, 57
5, 1031040, Note_off_c, 4, 36, 0
5, 1031040, Note_on_c, 4, 41, 58
5, 1031280, Note_off_c, 4, 41, 0
5, 1031280, Note_on_c, 4, 40, 59
5, 1031520, Note_off_c, 4, 40, 0
5, 1031520, Note_on_c, 4, 38, 61
5, 1031760, Note_off_c, 4, 38, 0
5, 1031760, Note_on_c, 4, 31, 60
5, 1032000, Note_off_c, 4, 31, 0
5, 1032000, Note_on_c, 4, 33, 59
5, 1032240, Note_off_c, 4, 33, 0
5, 1032240, Note_on_c, 4, 34, 58
5, 1032480, Note_off_c, 4, 34, 0
5, 1032480, Note_on_c, 4, 36, 57
5, 1032900, Note_off_c, 4, 36, 0
5, 1032960, Note_on_c, 4, 36, 55
5, 1033380, Note_off_c, 4, 36, 0
5, 1033440, Note_on_c, 4, 41, 53
5, 1033860, Note_off_c, 4, 41, 0
5, 1034880, Note_on_c, 4, 46, 46
5, 1035360, Note_off_c, 4, 46, 0
5, 1035360, Note_on_c, 4, 45, 44
5, 1035780, Note_off_c, 4, 45, 0
5, 1036800, Note_on_c, 4, 46, 38
5, 1037226, Note_off_c, 4, 46, 0
5, 1037760, Note_on_c, 4, 45, 34
5, 1038180, Note_off_c, 4, 45, 0
5, 1038720, Note_on_c, 4, 46, 29
5, 1039146, Note_off_c, 4, 46, 0
5, 1039200, Note_on_c, 4, 41, 30
5, 1039200, Note_on_c, 4, 46, 30
5, 1040160, Note_off_c, 4, 46, 0
5, 1040160, Note_on_c, 4, 45, 23
5, 1040586, Note_off_c, 4, 45, 0
5, 1040586, Note_off_c, 4, 41, 0
5, 1040586, End_track
6, 0, Start_track
6, 0, Title_t, "Unnamed Track"
6, 0, Control_c, 5, 0, 0
6, 0, Control_c, 5, 32, 0
6, 0, Program_c, 5, 0
6, 0, Control_c, 5, 64, 0
6, 0, Control_c, 5, 10, 55
6, 0, Control_c, 5, 91, 100
6, 0, Control_c, 5, 93, 19
6, 0, Control_c, 5, 1, 0
6, 0, Pitch_bend_c, 5, 8192
6, 0, Control_c, 5, 7, 125
6, 7680, Note_on_c, 5, 53, 40
6, 9540, Note_off_c, 5, 53, 0
6, 9600, Note_on_c, 5, 53, 47
6, 11460, Note_off_c, 5, 53, 0
6, 11520, Note_on_c, 5, 53, 63
6, 13387, Note_off_c, 5, 53, 0
6, 13440, Note_on_c, 5, 53, 50
6, 15315, Note_off_c, 5, 53, 0
6, 15360, Note_on_c, 5, 53, 37
6, 16080, Note_off_c, 5, 53, 0
6, 16800, Note_on_c, 5, 60, 61
6, 17040, Note_off_c, 5, 60, 0
6, 17280, Note_on_c, 5, 58, 58
6, 17520, Note_off_c, 5, 58, 0
6, 17520, Note_on_c, 5, 57, 57
6, 17760, Note_off_c, 5, 57, 0
6, 17760, Note_on_c, 5, 55, 56
6, 18000, Note_off_c, 5, 55, 0
6, 18000, Note_on_c, 5, 53, 55
6, 18240, Note_off_c, 5, 53, 0
6, 18240, Note_on_c, 5, 57, 55
6, 18480, Note_off_c, 5, 57, 0
6, 18480, Note_on_c, 5, 55, 54
6, 18720, Note_off_c, 5, 55, 0
6, 18720, Note_on_c, 5, 58, 53
6, 18960, Note_off_c, 5, 58, 0
6, 18960, Note_on_c, 5, 52, 52
6, 19152, Note_off_c, 5, 52, 0
6, 19200, Note_on_c, 5, 53, 52
6, 19440, Note_off_c, 5, 53, 0
6, 19680, Note_on_c, 5, 48, 50
6, 19920, Note_off_c, 5, 48, 0
6, 20160, Note_on_c, 5, 60, 64
6, 20880, Note_off_c, 5, 60, 0
6, 21120, Note_on_c, 5, 58, 57
6, 21360, Note_off_c, 5, 58, 0
6, 21360, Note_on_c, 5, 57, 56
6, 21600, Note_off_c, 5, 57, 0
6, 21600, Note_on_c, 5, 55, 55
6, 21840, Note_off_c, 5, 55, 0
6, 21840, Note_on_c, 5, 53, 54
6, 22080, Note_off_c, 5, 53, 0
6, 22080, Note_on_c, 5, 57, 53
6, 22320, Note_off_c, 5, 57, 0
6, 22320, Note_on_c, 5, 55, 52
6, 22560, Note_off_c, 5, 55, 0
6, 22560, Note_on_c, 5, 58, 51
6, 22800, Note_off_c, 5, 58, 0
6, 22800, Note_on_c, 5, 52, 50
6, 22992, Note_off_c, 5, 52, 0
6, 23040, Note_on_c, 5, 53, 48
6, 24900, Note_off_c, 5, 53, 0
6, 24960, Note_on_c, 5, 54, 55
6, 25200, Note_off_c, 5, 54, 0
6, 25200, Note_on_c, 5, 55, 57
6, 25440, Note_off_c, 5, 55, 0
6, 25440, Note_on_c, 5, 57, 58
6, 25680, Note_off_c, 5, 57, 0
6, 25680, Note_on_c, 5, 58, 60
6, 25920, Note_off_c, 5, 58, 0
6, 25920, Note_on_c, 5, 60, 62
6, 26160, Note_off_c, 5, 60, 0
6, 26160, Note_on_c, 5, 61, 63
6, 26400, Note_off_c, 5, 61, 0
6, 26400, Note_on_c, 5, 62, 65
6, 26640, Note_off_c, 5, 62, 0
6, 26640, Note_on_c, 5, 64, 69
6, 26832, Note_off_c, 5, 64, 0
6, 26880, Note_on_c, 5, 67, 71
6, 27120, Note_off_c, 5, 67, 0
6, 27120, Note_on_c, 5, 65, 68
6, 27360, Note_off_c, 5, 65, 0
6, 27360, Note_on_c, 5, 64, 65
6, 27600, Note_off_c, 5, 64, 0
6, 27600, Note_on_c, 5, 62, 62
6, 27792, Note_off_c, 5, 62, 0
6, 27840, Note_on_c, 5, 62, 59
6, 28080, Note_off_c, 5, 62, 0
6, 28080, Note_on_c, 5, 60, 56
6, 28320, Note_off_c, 5, 60, 0
6, 28320, Note_on_c, 5, 58, 53
6, 28560, Note_off_c, 5, 58, 0
6, 28560, Note_on_c, 5, 57, 50
6, 28752, Note_off_c, 5, 57, 0
6, 28800, Note_on_c, 5, 58, 53
6, 29520, Note_off_c, 5, 58, 0
6, 29760, Note_on_c, 5, 58, 62
6, 30480, Note_off_c, 5, 58, 0
6, 30720, Note_on_c, 5, 57, 71
6, 30876, Note_off_c, 5, 57, 0
6, 31200, Note_on_c, 5, 69, 68
6, 31440, Note_off_c, 5, 69, 0
6, 31440, Note_on_c, 5, 67, 66
6, 31680, Note_off_c, 5, 67, 0
6, 31680, Note_on_c, 5, 65, 64
6, 31836, Note_off_c, 5, 65, 0
6, 32160, Note_on_c, 5, 65, 60
6, 32400, Note_off_c, 5, 65, 0
6, 32400, Note_on_c, 5, 64, 59
6, 32640, Note_off_c, 5, 64, 0
6, 32640, Note_on_c, 5, 62, 57
6, 32796, Note_off_c, 5, 62, 0
6, 33120, Note_on_c, 5, 62, 53
6, 33360, Note_off_c, 5, 62, 0
6, 33360, Note_on_c, 5, 60, 51
6, 33600, Note_off_c, 5, 60, 0
6, 33600, Note_on_c, 5, 58, 50
6, 33756, Note_off_c, 5, 58, 0
6, 34080, Note_on_c, 5, 58, 46
6, 34320, Note_off_c, 5, 58, 0
6, 34320, Note_on_c, 5, 57, 44
6, 34560, Note_off_c, 5, 57, 0
6, 34560, Note_on_c, 5, 55, 42
6, 35880, Note_off_c, 5, 55, 0
6, 36480, Note_on_c, 5, 52, 61
6, 38340, Note_off_c, 5, 52, 0
6, 38400, Note_on_c, 5, 53, 51
6, 39307, Note_off_c, 5, 53, 0
6, 39360, Note_on_c, 5, 46, 58
6, 40260, Note_off_c, 5, 46, 0
6, 40800, Note_on_c, 5, 48, 50
6, 42180, Note_off_c, 5, 48, 0
6, 42240, Note_on_c, 5, 50, 57
6, 44100, Note_off_c, 5, 50, 0
6, 44160, Note_on_c, 5, 54, 52
6, 44400, Note_off_c, 5, 54, 0
6, 44400, Note_on_c, 5, 55, 54
6, 44640, Note_off_c, 5, 55, 0
6, 44640, Note_on_c, 5, 57, 56
6, 44880, Note_off_c, 5, 57, 0
6, 44880, Note_on_c, 5, 58, 58
6, 45120, Note_off_c, 5, 58, 0
6, 45120, Note_on_c, 5, 60, 60
6, 45360, Note_off_c, 5, 60, 0
6, 45360, Note_on_c, 5, 61, 62
6, 45600, Note_off_c, 5, 61, 0
6, 45600, Note_on_c, 5, 62, 64
6, 45840, Note_off_c, 5, 62, 0
6, 45840, Note_on_c, 5, 64, 66
6, 46032, Note_off_c, 5, 64, 0
6, 46080, Note_on_c, 5, 65, 71
6, 46320, Note_off_c, 5, 65, 0
6, 46320, Note_on_c, 5, 53, 69
6, 46560, Note_off_c, 5, 53, 0
6, 46560, Note_on_c, 5, 65, 67
6, 46800, Note_off_c, 5, 65, 0
6, 46800, Note_on_c, 5, 64, 65
6, 47040, Note_off_c, 5, 64, 0
6, 47040, Note_on_c, 5, 62, 63
6, 47280, Note_off_c, 5, 62, 0
6, 47280, Note_on_c, 5, 50, 61
6, 47520, Note_off_c, 5, 50, 0
6, 47520, Note_on_c, 5, 62, 59
6, 47760, Note_off_c, 5, 62, 0
6, 47760, Note_on_c, 5, 60, 56
6, 48000, Note_off_c, 5, 60, 0
6, 48000, Note_on_c, 5, 58, 54
6, 48156, Note_off_c, 5, 58, 0
6, 48240, Note_on_c, 5, 46, 52
6, 48396, Note_off_c, 5, 46, 0
6, 48480, Note_on_c, 5, 58, 50
6, 48720, Note_off_c, 5, 58, 0
6, 48720, Note_on_c, 5, 57, 48
6, 48960, Note_off_c, 5, 57, 0
6, 48960, Note_on_c, 5, 55, 46
6, 49116, Note_off_c, 5, 55, 0
6, 49200, Note_on_c, 5, 43, 44
6, 49356, Note_off_c, 5, 43, 0
6, 49440, Note_on_c, 5, 55, 42
6, 49680, Note_off_c, 5, 55, 0
6, 49680, Note_on_c, 5, 53, 40
6, 49872, Note_off_c, 5, 53, 0
6, 49920, Note_on_c, 5, 53, 38
6, 50880, Note_off_c, 5, 53, 0
6, 50880, Note_on_c, 5, 52, 29
6, 51240, Note_off_c, 5, 52, 0
6, 52320, Note_on_c, 5, 69, 52
6, 52560, Note_off_c, 5, 69, 0
6, 52560, Note_on_c, 5, 67, 50
6, 52800, Note_off_c, 5, 67, 0
6, 52800, Note_on_c, 5, 65, 49
6, 53040, Note_off_c, 5, 65, 0
6, 53040, Note_on_c, 5, 64, 47
6, 53280, Note_off_c, 5, 64, 0
6, 53280, Note_on_c, 5, 62, 46
6, 53520, Note_off_c, 5, 62, 0
6, 53520, Note_on_c, 5, 60, 45
6, 53712, Note_off_c, 5, 60, 0
6, 53760, Note_on_c, 5, 60, 46
6, 55200, Note_off_c, 5, 60, 0
6, 55200, Note_on_c, 5, 62, 49
6, 55440, Note_off_c, 5, 62, 0
6, 55440, Note_on_c, 5, 64, 51
6, 55632, Note_off_c, 5, 64, 0
6, 55680, Note_on_c, 5, 65, 53
6, 55920, Note_off_c, 5, 65, 0
6, 55920, Note_on_c, 5, 66, 55
6, 56160, Note_off_c, 5, 66, 0
6, 56160, Note_on_c, 5, 69, 57
6, 56400, Note_off_c, 5, 69, 0
6, 56400, Note_on_c, 5, 67, 54
6, 56640, Note_off_c, 5, 67, 0
6, 56640, Note_on_c, 5, 65, 53
6, 56880, Note_off_c, 5, 65, 0
6, 56880, Note_on_c, 5, 64, 52
6, 57120, Note_off_c, 5, 64, 0
6, 57120, Note_on_c, 5, 62, 50
6, 57360, Note_off_c, 5, 62, 0
6, 57360, Note_on_c, 5, 60, 49
6, 57540, Note_off_c, 5, 60, 0
6, 57600, Note_on_c, 5, 60, 46
6, 59040, Note_off_c, 5, 60, 0
6, 59040, Note_on_c, 5, 62, 54
6, 59280, Note_off_c, 5, 62, 0
6, 59280, Note_on_c, 5, 64, 55
6, 59520, Note_off_c, 5, 64, 0
6, 59520, Note_on_c, 5, 65, 56
6, 59880, Note_off_c, 5, 65, 0
6, 61440, Note_on_c, 5, 53, 56
6, 61680, Note_off_c, 5, 53, 0
6, 61680, Note_on_c, 5, 57, 57
6, 61872, Note_off_c, 5, 57, 0
6, 61920, Note_on_c, 5, 50, 58
6, 62160, Note_off_c, 5, 50, 0
6, 62160, Note_on_c, 5, 53, 59
6, 62352, Note_off_c, 5, 53, 0
6, 62400, Note_on_c, 5, 49, 59
6, 62640, Note_off_c, 5, 49, 0
6, 62640, Note_on_c, 5, 52, 60
6, 62832, Note_off_c, 5, 52, 0
6, 62880, Note_on_c, 5, 45, 61
6, 63120, Note_off_c, 5, 45, 0
6, 63120, Note_on_c, 5, 49, 62
6, 63312, Note_off_c, 5, 49, 0
6, 63360, Note_on_c, 5, 50, 62
6, 63720, Note_off_c, 5, 50, 0
6, 64800, Note_on_c, 5, 69, 74
6, 65040, Note_off_c, 5, 69, 0
6, 65280, Note_on_c, 5, 67, 71
6, 65520, Note_off_c, 5, 67, 0
6, 65520, Note_on_c, 5, 65, 70
6, 65760, Note_off_c, 5, 65, 0
6, 65760, Note_on_c, 5, 64, 69
6, 66000, Note_off_c, 5, 64, 0
6, 66000, Note_on_c, 5, 62, 68
6, 66240, Note_off_c, 5, 62, 0
6, 66240, Note_on_c, 5, 64, 67
6, 66480, Note_off_c, 5, 64, 0
6, 66480, Note_on_c, 5, 62, 66
6, 66720, Note_off_c, 5, 62, 0
6, 66720, Note_on_c, 5, 65, 65
6, 66960, Note_off_c, 5, 65, 0
6, 66960, Note_on_c, 5, 59, 64
6, 67152, Note_off_c, 5, 59, 0
6, 67200, Note_on_c, 5, 60, 63
6, 67440, Note_off_c, 5, 60, 0
6, 67680, Note_on_c, 5, 55, 61
6, 67920, Note_off_c, 5, 55, 0
6, 68160, Note_on_c, 5, 67, 78
6, 68880, Note_off_c, 5, 67, 0
6, 69120, Note_on_c, 5, 65, 74
6, 69360, Note_off_c, 5, 65, 0
6, 69360, Note_on_c, 5, 63, 73
6, 69600, Note_off_c, 5, 63, 0
6, 69600, Note_on_c, 5, 62, 72
6, 69840, Note_off_c, 5, 62, 0
6, 69840, Note_on_c, 5, 60, 71
6, 70080, Note_off_c, 5, 60, 0
6, 70080, Note_on_c, 5, 63, 71
6, 70320, Note_off_c, 5, 63, 0
6, 70320, Note_on_c, 5, 62, 70
6, 70560, Note_off_c, 5, 62, 0
6, 70560, Note_on_c, 5, 65, 69
6, 70800, Note_off_c, 5, 65, 0
6, 70800, Note_on_c, 5, 59, 69
6, 70992, Note_off_c, 5, 59, 0
6, 71040, Note_on_c, 5, 60, 68
6, 71887, Note_off_c, 5, 60, 0
6, 72000, Note_on_c, 5, 58, 70
6, 72847, Note_off_c, 5, 58, 0
6, 72960, Note_on_c, 5, 56, 72
6, 73807, Note_off_c, 5, 56, 0
6, 73920, Note_on_c, 5, 55, 73
6, 74767, Note_off_c, 5, 55, 0
6, 74880, Note_on_c, 5, 54, 75
6, 75168, Note_off_c, 5, 54, 0
6, 76320, Note_on_c, 5, 54, 77
6, 76608, Note_off_c, 5, 54, 0
6, 76800, Note_on_c, 5, 56, 78
6, 77088, Note_off_c, 5, 56, 0
6, 77760, Note_on_c, 5, 44, 80
6, 77760, Note_on_c, 5, 56, 80
6, 78048, Note_off_c, 5, 56, 0
6, 78048, Note_off_c, 5, 44, 0
6, 78720, Note_on_c, 5, 43, 81
6, 78720, Note_on_c, 5, 55, 81
6, 79008, Note_off_c, 5, 55, 0
6, 79008, Note_off_c, 5, 43, 0
6, 82560, Note_on_c, 5, 64, 48
6, 82920, Note_off_c, 5, 64, 0
6, 83040, Note_on_c, 5, 65, 48
6, 83400, Note_off_c, 5, 65, 0
6, 83520, Note_on_c, 5, 64, 49
6, 83880, Note_off_c, 5, 64, 0
6, 84000, Note_on_c, 5, 59, 50
6, 84360, Note_off_c, 5, 59, 0
6, 84480, Note_on_c, 5, 60, 51
6, 84840, Note_off_c, 5, 60, 0
6, 84960, Note_on_c, 5, 57, 52
6, 85320, Note_off_c, 5, 57, 0
6, 85440, Note_on_c, 5, 52, 53
6, 85800, Note_off_c, 5, 52, 0
6, 85920, Note_on_c, 5, 53, 54
6, 86280, Note_off_c, 5, 53, 0
6, 86400, Note_on_c, 5, 55, 56
6, 87240, Note_off_c, 5, 55, 0
6, 87840, Note_on_c, 5, 57, 62
6, 88320, Note_off_c, 5, 57, 0
6, 88320, Note_on_c, 5, 59, 53
6, 88560, Note_off_c, 5, 59, 0
6, 88800, Note_on_c, 5, 61, 54
6, 89040, Note_off_c, 5, 61, 0
6, 89280, Note_on_c, 5, 62, 55
6, 89520, Note_off_c, 5, 62, 0
6, 89760, Note_on_c, 5, 64, 57
6, 90000, Note_off_c, 5, 64, 0
6, 90240, Note_on_c, 5, 65, 58
6, 90480, Note_off_c, 5, 65, 0
6, 91680, Note_on_c, 5, 53, 64
6, 92160, Note_off_c, 5, 53, 0
6, 92160, Note_on_c, 5, 52, 60
6, 92400, Note_off_c, 5, 52, 0
6, 92640, Note_on_c, 5, 54, 63
6, 93120, Note_off_c, 5, 54, 0
6, 93120, Note_on_c, 5, 55, 61
6, 94080, Note_off_c, 5, 55, 0
6, 94080, Note_on_c, 5, 60, 56
6, 94320, Note_off_c, 5, 60, 0
6, 94560, Note_on_c, 5, 48, 69
6, 94800, Note_off_c, 5, 48, 0
6, 95040, Note_on_c, 5, 55, 75
6, 96160, Note_off_c, 5, 55, 0
6, 96160, Note_on_c, 5, 57, 70
6, 96320, Note_off_c, 5, 57, 0
6, 96320, Note_on_c, 5, 55, 69
6, 96480, Note_off_c, 5, 55, 0
6, 96480, Note_on_c, 5, 53, 69
6, 96640, Note_off_c, 5, 53, 0
6, 96640, Note_on_c, 5, 55, 68
6, 96800, Note_off_c, 5, 55, 0
6, 96800, Note_on_c, 5, 53, 67
6, 96960, Note_off_c, 5, 53, 0
6, 96960, Note_on_c, 5, 52, 66
6, 97120, Note_off_c, 5, 52, 0
6, 97120, Note_on_c, 5, 53, 66
6, 97280, Note_off_c, 5, 53, 0
6, 97280, Note_on_c, 5, 52, 65
6, 97440, Note_off_c, 5, 52, 0
6, 97440, Note_on_c, 5, 50, 64
6, 97600, Note_off_c, 5, 50, 0
6, 97600, Note_on_c, 5, 52, 63
6, 97760, Note_off_c, 5, 52, 0
6, 97760, Note_on_c, 5, 50, 63
6, 97920, Note_off_c, 5, 50, 0
6, 97920, Note_on_c, 5, 48, 62
6, 98160, Note_off_c, 5, 48, 0
6, 98400, Note_on_c, 5, 50, 57
6, 98480, Note_off_c, 5, 50, 0
6, 98480, Note_on_c, 5, 52, 58
6, 98560, Note_off_c, 5, 52, 0
6, 98560, Note_on_c, 5, 50, 59
6, 98640, Note_off_c, 5, 50, 0
6, 98640, Note_on_c, 5, 48, 60
6, 98760, Note_off_c, 5, 48, 0
6, 98760, Note_on_c, 5, 50, 61
6, 98880, Note_off_c, 5, 50, 0
6, 98880, Note_on_c, 5, 52, 64
6, 99120, Note_off_c, 5, 52, 0
6, 99360, Note_on_c, 5, 40, 65
6, 99600, Note_off_c, 5, 40, 0
6, 99840, Note_on_c, 5, 41, 66
6, 100200, Note_off_c, 5, 41, 0
6, 101280, Note_on_c, 5, 53, 70
6, 101760, Note_off_c, 5, 53, 0
6, 101760, Note_on_c, 5, 55, 71
6, 102000, Note_off_c, 5, 55, 0
6, 102240, Note_on_c, 5, 43, 75
6, 102480, Note_off_c, 5, 43, 0
6, 102720, Note_on_c, 5, 57, 79
6, 103840, Note_off_c, 5, 57, 0
6, 103840, Note_on_c, 5, 58, 74
6, 104000, Note_off_c, 5, 58, 0
6, 104000, Note_on_c, 5, 57, 73
6, 104160, Note_off_c, 5, 57, 0
6, 104160, Note_on_c, 5, 55, 73
6, 104320, Note_off_c, 5, 55, 0
6, 104320, Note_on_c, 5, 57, 72
6, 104480, Note_off_c, 5, 57, 0
6, 104480, Note_on_c, 5, 55, 72
6, 104640, Note_off_c, 5, 55, 0
6, 104640, Note_on_c, 5, 53, 71
6, 104800, Note_off_c, 5, 53, 0
6, 104800, Note_on_c, 5, 55, 70
6, 104960, Note_off_c, 5, 55, 0
6, 104960, Note_on_c, 5, 53, 70
6, 105120, Note_off_c, 5, 53, 0
6, 105120, Note_on_c, 5, 52, 69
6, 105280, Note_off_c, 5, 52, 0
6, 105280, Note_on_c, 5, 53, 69
6, 105440, Note_off_c, 5, 53, 0
6, 105440, Note_on_c, 5, 52, 68
6, 105600, Note_off_c, 5, 52, 0
6, 105600, Note_on_c, 5, 50, 68
6, 105840, Note_off_c, 5, 50, 0
6, 106080, Note_on_c, 5, 48, 67
6, 106160, Note_off_c, 5, 48, 0
6, 106160, Note_on_c, 5, 50, 68
6, 106240, Note_off_c, 5, 50, 0
6, 106240, Note_on_c, 5, 48, 69
6, 106320, Note_off_c, 5, 48, 0
6, 106320, Note_on_c, 5, 47, 70
6, 106440, Note_off_c, 5, 47, 0
6, 106440, Note_on_c, 5, 48, 71
6, 106560, Note_off_c, 5, 48, 0
6, 106560, Note_on_c, 5, 47, 74
6, 106800, Note_off_c, 5, 47, 0
6, 107040, Note_on_c, 5, 53, 71
6, 107120, Note_off_c, 5, 53, 0
6, 107120, Note_on_c, 5, 55, 72
6, 107200, Note_off_c, 5, 55, 0
6, 107200, Note_on_c, 5, 53, 73
6, 107280, Note_off_c, 5, 53, 0
6, 107280, Note_on_c, 5, 52, 73
6, 107400, Note_off_c, 5, 52, 0
6, 107400, Note_on_c, 5, 53, 75
6, 107520, Note_off_c, 5, 53, 0
6, 107520, Note_on_c, 5, 52, 77
6, 107880, Note_off_c, 5, 52, 0
6, 108000, Note_on_c, 5, 53, 74
6, 108360, Note_off_c, 5, 53, 0
6, 108480, Note_on_c, 5, 55, 71
6, 108840, Note_off_c, 5, 55, 0
6, 108960, Note_on_c, 5, 43, 68
6, 109320, Note_off_c, 5, 43, 0
6, 109440, Note_on_c, 5, 48, 64
6, 109680, Note_off_c, 5, 48, 0
6, 110880, Note_on_c, 5, 72, 70
6, 111360, Note_off_c, 5, 72, 0
6, 111360, Note_on_c, 5, 71, 70
6, 111840, Note_off_c, 5, 71, 0
6, 111840, Note_on_c, 5, 69, 71
6, 112320, Note_off_c, 5, 69, 0
6, 112320, Note_on_c, 5, 67, 71
6, 112800, Note_off_c, 5, 67, 0
6, 112800, Note_on_c, 5, 65, 71
6, 113280, Note_off_c, 5, 65, 0
6, 113280, Note_on_c, 5, 64, 72
6, 113640, Note_off_c, 5, 64, 0
6, 113760, Note_on_c, 5, 63, 72
6, 113920, Note_off_c, 5, 63, 0
6, 113920, Note_on_c, 5, 62, 72
6, 114080, Note_off_c, 5, 62, 0
6, 114080, Note_on_c, 5, 60, 73
6, 114240, Note_off_c, 5, 60, 0
6, 114240, Note_on_c, 5, 58, 73
6, 114400, Note_off_c, 5, 58, 0
6, 114400, Note_on_c, 5, 56, 73
6, 114560, Note_off_c, 5, 56, 0
6, 114560, Note_on_c, 5, 55, 73
6, 114720, Note_off_c, 5, 55, 0
6, 114720, Note_on_c, 5, 54, 73
6, 114880, Note_off_c, 5, 54, 0
6, 114880, Note_on_c, 5, 57, 73
6, 115040, Note_off_c, 5, 57, 0
6, 115040, Note_on_c, 5, 54, 73
6, 115200, Note_off_c, 5, 54, 0
6, 115200, Note_on_c, 5, 57, 73
6, 115360, Note_off_c, 5, 57, 0
6, 115360, Note_on_c, 5, 55, 74
6, 115520, Note_off_c, 5, 55, 0
6, 115520, Note_on_c, 5, 52, 74
6, 115680, Note_off_c, 5, 52, 0
6, 115680, Note_on_c, 5, 55, 74
6, 115840, Note_off_c, 5, 55, 0
6, 115840, Note_on_c, 5, 53, 74
6, 116000, Note_off_c, 5, 53, 0
6, 116000, Note_on_c, 5, 50, 74
6, 116160, Note_off_c, 5, 50, 0
6, 116160, Note_on_c, 5, 53, 74
6, 116320, Note_off_c, 5, 53, 0
6, 116320, Note_on_c, 5, 52, 74
6, 116480, Note_off_c, 5, 52, 0
6, 116480, Note_on_c, 5, 48, 75
6, 116640, Note_off_c, 5, 48, 0
6, 116640, Note_on_c, 5, 52, 75
6, 116800, Note_off_c, 5, 52, 0
6, 116800, Note_on_c, 5, 50, 75
6, 116960, Note_off_c, 5, 50, 0
6, 116960, Note_on_c, 5, 47, 75
6, 117120, Note_off_c, 5, 47, 0
6, 117120, Note_on_c, 5, 48, 75
6, 117480, Note_off_c, 5, 48, 0
6, 118560, Note_on_c, 5, 52, 76
6, 119040, Note_off_c, 5, 52, 0
6, 119040, Note_on_c, 5, 53, 74
6, 119400, Note_off_c, 5, 53, 0
6, 119520, Note_on_c, 5, 69, 77
6, 119680, Note_off_c, 5, 69, 0
6, 119680, Note_on_c, 5, 67, 77
6, 119840, Note_off_c, 5, 67, 0
6, 119840, Note_on_c, 5, 65, 77
6, 120000, Note_off_c, 5, 65, 0
6, 120000, Note_on_c, 5, 64, 78
6, 120160, Note_off_c, 5, 64, 0
6, 120160, Note_on_c, 5, 62, 78
6, 120320, Note_off_c, 5, 62, 0
6, 120320, Note_on_c, 5, 61, 78
6, 120480, Note_off_c, 5, 61, 0
6, 120480, Note_on_c, 5, 62, 78
6, 120640, Note_off_c, 5, 62, 0
6, 120640, Note_on_c, 5, 60, 78
6, 120800, Note_off_c, 5, 60, 0
6, 120800, Note_on_c, 5, 58, 78
6, 120960, Note_off_c, 5, 58, 0
6, 120960, Note_on_c, 5, 59, 78
6, 121320, Note_off_c, 5, 59, 0
6, 122400, Note_on_c, 5, 60, 80
6, 122760, Note_off_c, 5, 60, 0
6, 122880, Note_on_c, 5, 59, 77
6, 123240, Note_off_c, 5, 59, 0
6, 124320, Note_on_c, 5, 57, 81
6, 124680, Note_off_c, 5, 57, 0
6, 124800, Note_on_c, 5, 55, 82
6, 125160, Note_off_c, 5, 55, 0
6, 125280, Note_on_c, 5, 57, 80
6, 125640, Note_off_c, 5, 57, 0
6, 125760, Note_on_c, 5, 55, 82
6, 126120, Note_off_c, 5, 55, 0
6, 126240, Note_on_c, 5, 57, 80
6, 126600, Note_off_c, 5, 57, 0
6, 126720, Note_on_c, 5, 55, 83
6, 127080, Note_off_c, 5, 55, 0
6, 127200, Note_on_c, 5, 43, 66
6, 127440, Note_off_c, 5, 43, 0
6, 127680, Note_on_c, 5, 45, 68
6, 127920, Note_off_c, 5, 45, 0
6, 128160, Note_on_c, 5, 47, 69
6, 128400, Note_off_c, 5, 47, 0
6, 128640, Note_on_c, 5, 48, 70
6, 128880, Note_off_c, 5, 48, 0
6, 129120, Note_on_c, 5, 52, 71
6, 129360, Note_off_c, 5, 52, 0
6, 129600, Note_on_c, 5, 53, 72
6, 129840, Note_off_c, 5, 53, 0
6, 130080, Note_on_c, 5, 56, 74
6, 130320, Note_off_c, 5, 56, 0
6, 130560, Note_on_c, 5, 57, 75
6, 130800, Note_off_c, 5, 57, 0
6, 130800, Note_on_c, 5, 60, 76
6, 131040, Note_off_c, 5, 60, 0
6, 131040, Note_on_c, 5, 59, 76
6, 131280, Note_off_c, 5, 59, 0
6, 131280, Note_on_c, 5, 57, 77
6, 131520, Note_off_c, 5, 57, 0
6, 131520, Note_on_c, 5, 59, 77
6, 131760, Note_off_c, 5, 59, 0
6, 131760, Note_on_c, 5, 60, 78
6, 132000, Note_off_c, 5, 60, 0
6, 132000, Note_on_c, 5, 57, 79
6, 132240, Note_off_c, 5, 57, 0
6, 132240, Note_on_c, 5, 59, 79
6, 132432, Note_off_c, 5, 59, 0
6, 132480, Note_on_c, 5, 60, 79
6, 132720, Note_off_c, 5, 60, 0
6, 132960, Note_on_c, 5, 57, 76
6, 133200, Note_off_c, 5, 57, 0
6, 133440, Note_on_c, 5, 52, 73
6, 133680, Note_off_c, 5, 52, 0
6, 133920, Note_on_c, 5, 54, 63
6, 134000, Note_off_c, 5, 54, 0
6, 134000, Note_on_c, 5, 55, 62
6, 134080, Note_off_c, 5, 55, 0
6, 134080, Note_on_c, 5, 54, 61
6, 134160, Note_off_c, 5, 54, 0
6, 134160, Note_on_c, 5, 52, 60
6, 134280, Note_off_c, 5, 52, 0
6, 134280, Note_on_c, 5, 54, 59
6, 134400, Note_off_c, 5, 54, 0
6, 134400, Note_on_c, 5, 55, 59
6, 138240, Note_off_c, 5, 55, 0
6, 138240, Note_on_c, 5, 55, 71
6, 142080, Note_off_c, 5, 55, 0
6, 142080, Note_on_c, 5, 55, 73
6, 145575, Note_off_c, 5, 55, 0
6, 145680, Note_on_c, 5, 56, 66
6, 145836, Note_off_c, 5, 56, 0
6, 145920, Note_on_c, 5, 57, 65
6, 149767, Note_off_c, 5, 57, 0
6, 151200, Note_on_c, 5, 61, 54
6, 151680, Note_off_c, 5, 61, 0
6, 151680, Note_on_c, 5, 62, 50
6, 152040, Note_off_c, 5, 62, 0
6, 153120, Note_on_c, 5, 59, 50
6, 153600, Note_off_c, 5, 59, 0
6, 153600, Note_on_c, 5, 60, 46
6, 154492, Note_off_c, 5, 60, 0
6, 154560, Note_on_c, 5, 53, 47
6, 155467, Note_off_c, 5, 53, 0
6, 155520, Note_on_c, 5, 55, 45
6, 157380, Note_off_c, 5, 55, 0
6, 157440, Note_on_c, 5, 57, 100
6, 158640, Note_off_c, 5, 57, 0
6, 158880, Note_on_c, 5, 57, 91
6, 159120, Note_off_c, 5, 57, 0
6, 159360, Note_on_c, 5, 55, 73
6, 160560, Note_off_c, 5, 55, 0
6, 160800, Note_on_c, 5, 55, 66
6, 161040, Note_off_c, 5, 55, 0
6, 161280, Note_on_c, 5, 54, 99
6, 162480, Note_off_c, 5, 54, 0
6, 162720, Note_on_c, 5, 54, 89
6, 162960, Note_off_c, 5, 54, 0
6, 163200, Note_on_c, 5, 55, 63
6, 164400, Note_off_c, 5, 55, 0
6, 164640, Note_on_c, 5, 55, 59
6, 164880, Note_off_c, 5, 55, 0
6, 165120, Note_on_c, 5, 56, 98
6, 166335, Note_off_c, 5, 56, 0
6, 166560, Note_on_c, 5, 56, 89
6, 166800, Note_off_c, 5, 56, 0
6, 167040, Note_on_c, 5, 55, 87
6, 167280, Note_off_c, 5, 55, 0
6, 168960, Note_on_c, 5, 55, 80
6, 170857, Note_off_c, 5, 55, 0
6, 170880, Note_on_c, 5, 36, 86
6, 170880, Note_on_c, 5, 48, 86
6, 175168, Note_off_c, 5, 48, 0
6, 175168, Note_off_c, 5, 36, 0
6, 175200, Note_on_c, 5, 53, 76
6, 175560, Note_off_c, 5, 53, 0
6, 175680, Note_on_c, 5, 55, 75
6, 176040, Note_off_c, 5, 55, 0
6, 176160, Note_on_c, 5, 43, 75
6, 176520, Note_off_c, 5, 43, 0
6, 176640, Note_on_c, 5, 36, 79
6, 176640, Note_on_c, 5, 48, 79
6, 180928, Note_off_c, 5, 48, 0
6, 180928, Note_off_c, 5, 36, 0
6, 180960, Note_on_c, 5, 53, 69
6, 181320, Note_off_c, 5, 53, 0
6, 181440, Note_on_c, 5, 55, 68
6, 181800, Note_off_c, 5, 55, 0
6, 181920, Note_on_c, 5, 43, 68
6, 182280, Note_off_c, 5, 43, 0
6, 182400, Note_on_c, 5, 48, 74
6, 184747, Note_off_c, 5, 48, 0
6, 184800, Note_on_c, 5, 53, 64
6, 185160, Note_off_c, 5, 53, 0
6, 185280, Note_on_c, 5, 55, 64
6, 185640, Note_off_c, 5, 55, 0
6, 185760, Note_on_c, 5, 43, 63
6, 186120, Note_off_c, 5, 43, 0
6, 186240, Note_on_c, 5, 36, 70
6, 186240, Note_on_c, 5, 48, 70
6, 188520, Note_off_c, 5, 48, 0
6, 188520, Note_off_c, 5, 36, 0
6, 188640, Note_on_c, 5, 41, 59
6, 189000, Note_off_c, 5, 41, 0
6, 189120, Note_on_c, 5, 43, 59
6, 189480, Note_off_c, 5, 43, 0
6, 189600, Note_on_c, 5, 31, 58
6, 189960, Note_off_c, 5, 31, 0
6, 190080, Note_on_c, 5, 36, 60
6, 190208, Note_off_c, 5, 36, 0
6, 190240, Note_on_c, 5, 40, 61
6, 190368, Note_off_c, 5, 40, 0
6, 190400, Note_on_c, 5, 43, 62
6, 190528, Note_off_c, 5, 43, 0
6, 190560, Note_on_c, 5, 48, 63
6, 190688, Note_off_c, 5, 48, 0
6, 190720, Note_on_c, 5, 43, 64
6, 190848, Note_off_c, 5, 43, 0
6, 190880, Note_on_c, 5, 40, 65
6, 191008, Note_off_c, 5, 40, 0
6, 191040, Note_on_c, 5, 36, 66
6, 191168, Note_off_c, 5, 36, 0
6, 191200, Note_on_c, 5, 40, 67
6, 191328, Note_off_c, 5, 40, 0
6, 191360, Note_on_c, 5, 43, 68
6, 191488, Note_off_c, 5, 43, 0
6, 191520, Note_on_c, 5, 48, 69
6, 191648, Note_off_c, 5, 48, 0
6, 191680, Note_on_c, 5, 43, 70
6, 191808, Note_off_c, 5, 43, 0
6, 191840, Note_on_c, 5, 40, 71
6, 191968, Note_off_c, 5, 40, 0
6, 192000, Note_on_c, 5, 36, 72
6, 192128, Note_off_c, 5, 36, 0
6, 192160, Note_on_c, 5, 40, 73
6, 192288, Note_off_c, 5, 40, 0
6, 192320, Note_on_c, 5, 43, 74
6, 192448, Note_off_c, 5, 43, 0
6, 192480, Note_on_c, 5, 48, 75
6, 192608, Note_off_c, 5, 48, 0
6, 192640, Note_on_c, 5, 52, 76
6, 192768, Note_off_c, 5, 52, 0
6, 192800, Note_on_c, 5, 55, 77
6, 192928, Note_off_c, 5, 55, 0
6, 192960, Note_on_c, 5, 60, 78
6, 193088, Note_off_c, 5, 60, 0
6, 193120, Note_on_c, 5, 55, 79
6, 193248, Note_off_c, 5, 55, 0
6, 193280, Note_on_c, 5, 52, 80
6, 193408, Note_off_c, 5, 52, 0
6, 193440, Note_on_c, 5, 48, 81
6, 193568, Note_off_c, 5, 48, 0
6, 193600, Note_on_c, 5, 52, 82
6, 193728, Note_off_c, 5, 52, 0
6, 193760, Note_on_c, 5, 55, 83
6, 193888, Note_off_c, 5, 55, 0
6, 193920, Note_on_c, 5, 48, 84
6, 194048, Note_off_c, 5, 48, 0
6, 194080, Note_on_c, 5, 52, 85
6, 194208, Note_off_c, 5, 52, 0
6, 194240, Note_on_c, 5, 55, 86
6, 194368, Note_off_c, 5, 55, 0
6, 194400, Note_on_c, 5, 60, 87
6, 194528, Note_off_c, 5, 60, 0
6, 194560, Note_on_c, 5, 64, 88
6, 194688, Note_off_c, 5, 64, 0
6, 194720, Note_on_c, 5, 67, 89
6, 194848, Note_off_c, 5, 67, 0
6, 194880, Note_on_c, 5, 72, 90
6, 195008, Note_off_c, 5, 72, 0
6, 195040, Note_on_c, 5, 67, 91
6, 195168, Note_off_c, 5, 67, 0
6, 195200, Note_on_c, 5, 64, 92
6, 195328, Note_off_c, 5, 64, 0
6, 195360, Note_on_c, 5, 60, 93
6, 195488, Note_off_c, 5, 60, 0
6, 195520, Note_on_c, 5, 64, 94
6, 195648, Note_off_c, 5, 64, 0
6, 195680, Note_on_c, 5, 67, 95
6, 195808, Note_off_c, 5, 67, 0
6, 196320, Note_on_c, 5, 48, 92
6, 196680, Note_off_c, 5, 48, 0
6, 199680, Note_on_c, 5, 36, 44
6, 199808, Note_off_c, 5, 36, 0
6, 199840, Note_on_c, 5, 39, 45
6, 199968, Note_off_c, 5, 39, 0
6, 200000, Note_on_c, 5, 43, 46
6, 200128, Note_off_c, 5, 43, 0
6, 200160, Note_on_c, 5, 48, 47
6, 200288, Note_off_c, 5, 48, 0
6, 200320, Note_on_c, 5, 43, 48
6, 200448, Note_off_c, 5, 43, 0
6, 200480, Note_on_c, 5, 39, 49
6, 200608, Note_off_c, 5, 39, 0
6, 200640, Note_on_c, 5, 36, 50
6, 200768, Note_off_c, 5, 36, 0
6, 200800, Note_on_c, 5, 39, 51
6, 200928, Note_off_c, 5, 39, 0
6, 200960, Note_on_c, 5, 43, 51
6, 201088, Note_off_c, 5, 43, 0
6, 201120, Note_on_c, 5, 48, 52
6, 201248, Note_off_c, 5, 48, 0
6, 201280, Note_on_c, 5, 43, 53
6, 201408, Note_off_c, 5, 43, 0
6, 201440, Note_on_c, 5, 39, 54
6, 201568, Note_off_c, 5, 39, 0
6, 201600, Note_on_c, 5, 36, 55
6, 201728, Note_off_c, 5, 36, 0
6, 201760, Note_on_c, 5, 39, 56
6, 201888, Note_off_c, 5, 39, 0
6, 201920, Note_on_c, 5, 43, 57
6, 202048, Note_off_c, 5, 43, 0
6, 202080, Note_on_c, 5, 48, 58
6, 202208, Note_off_c, 5, 48, 0
6, 202240, Note_on_c, 5, 51, 59
6, 202368, Note_off_c, 5, 51, 0
6, 202400, Note_on_c, 5, 55, 60
6, 202528, Note_off_c, 5, 55, 0
6, 202560, Note_on_c, 5, 60, 61
6, 202688, Note_off_c, 5, 60, 0
6, 202720, Note_on_c, 5, 55, 62
6, 202848, Note_off_c, 5, 55, 0
6, 202880, Note_on_c, 5, 51, 62
6, 203008, Note_off_c, 5, 51, 0
6, 203040, Note_on_c, 5, 48, 63
6, 203168, Note_off_c, 5, 48, 0
6, 203200, Note_on_c, 5, 51, 64
6, 203328, Note_off_c, 5, 51, 0
6, 203360, Note_on_c, 5, 55, 65
6, 203488, Note_off_c, 5, 55, 0
6, 203520, Note_on_c, 5, 48, 66
6, 203648, Note_off_c, 5, 48, 0
6, 203680, Note_on_c, 5, 51, 67
6, 203808, Note_off_c, 5, 51, 0
6, 203840, Note_on_c, 5, 55, 68
6, 203968, Note_off_c, 5, 55, 0
6, 204000, Note_on_c, 5, 60, 69
6, 204128, Note_off_c, 5, 60, 0
6, 204160, Note_on_c, 5, 63, 70
6, 204288, Note_off_c, 5, 63, 0
6, 204320, Note_on_c, 5, 67, 71
6, 204448, Note_off_c, 5, 67, 0
6, 204480, Note_on_c, 5, 72, 72
6, 204608, Note_off_c, 5, 72, 0
6, 204640, Note_on_c, 5, 67, 72
6, 204768, Note_off_c, 5, 67, 0
6, 204800, Note_on_c, 5, 63, 73
6, 204928, Note_off_c, 5, 63, 0
6, 204960, Note_on_c, 5, 60, 74
6, 205088, Note_off_c, 5, 60, 0
6, 205120, Note_on_c, 5, 63, 75
6, 205248, Note_off_c, 5, 63, 0
6, 205280, Note_on_c, 5, 67, 76
6, 205408, Note_off_c, 5, 67, 0
6, 205440, Note_on_c, 5, 72, 77
6, 206160, Note_off_c, 5, 72, 0
6, 206880, Note_on_c, 5, 60, 71
6, 207240, Note_off_c, 5, 60, 0
6, 207360, Note_on_c, 5, 62, 74
6, 208080, Note_off_c, 5, 62, 0
6, 208800, Note_on_c, 5, 50, 70
6, 209040, Note_off_c, 5, 50, 0
6, 209280, Note_on_c, 5, 48, 66
6, 209520, Note_off_c, 5, 48, 0
6, 209520, Note_on_c, 5, 46, 65
6, 209760, Note_off_c, 5, 46, 0
6, 209760, Note_on_c, 5, 45, 64
6, 210000, Note_off_c, 5, 45, 0
6, 210000, Note_on_c, 5, 43, 62
6, 210240, Note_off_c, 5, 43, 0
6, 210240, Note_on_c, 5, 46, 61
6, 210480, Note_off_c, 5, 46, 0
6, 210480, Note_on_c, 5, 45, 59
6, 210720, Note_off_c, 5, 45, 0
6, 210720, Note_on_c, 5, 48, 58
6, 210960, Note_off_c, 5, 48, 0
6, 210960, Note_on_c, 5, 42, 57
6, 211152, Note_off_c, 5, 42, 0
6, 211200, Note_on_c, 5, 43, 57
6, 211680, Note_off_c, 5, 43, 0
6, 211680, Note_on_c, 5, 38, 52
6, 212040, Note_off_c, 5, 38, 0
6, 212640, Note_on_c, 5, 46, 64
6, 212880, Note_off_c, 5, 46, 0
6, 213120, Note_on_c, 5, 45, 69
6, 213600, Note_off_c, 5, 45, 0
6, 213600, Note_on_c, 5, 43, 66
6, 213960, Note_off_c, 5, 43, 0
6, 214560, Note_on_c, 5, 50, 73
6, 214800, Note_off_c, 5, 50, 0
6, 215040, Note_on_c, 5, 48, 79
6, 215520, Note_off_c, 5, 48, 0
6, 215520, Note_on_c, 5, 46, 75
6, 215880, Note_off_c, 5, 46, 0
6, 216480, Note_on_c, 5, 62, 90
6, 216720, Note_off_c, 5, 62, 0
6, 216960, Note_on_c, 5, 70, 86
6, 217120, Note_off_c, 5, 70, 0
6, 217120, Note_on_c, 5, 72, 85
6, 217280, Note_off_c, 5, 72, 0
6, 217280, Note_on_c, 5, 70, 85
6, 217440, Note_off_c, 5, 70, 0
6, 217440, Note_on_c, 5, 69, 84
6, 217600, Note_off_c, 5, 69, 0
6, 217600, Note_on_c, 5, 67, 84
6, 217760, Note_off_c, 5, 67, 0
6, 217760, Note_on_c, 5, 66, 83
6, 217920, Note_off_c, 5, 66, 0
6, 217920, Note_on_c, 5, 67, 83
6, 218080, Note_off_c, 5, 67, 0
6, 218080, Note_on_c, 5, 69, 82
6, 218240, Note_off_c, 5, 69, 0
6, 218240, Note_on_c, 5, 67, 82
6, 218400, Note_off_c, 5, 67, 0
6, 218400, Note_on_c, 5, 65, 81
6, 218560, Note_off_c, 5, 65, 0
6, 218560, Note_on_c, 5, 64, 80
6, 218720, Note_off_c, 5, 64, 0
6, 218720, Note_on_c, 5, 62, 80
6, 218880, Note_off_c, 5, 62, 0
6, 218880, Note_on_c, 5, 61, 79
6, 219040, Note_off_c, 5, 61, 0
6, 219040, Note_on_c, 5, 62, 79
6, 219200, Note_off_c, 5, 62, 0
6, 219200, Note_on_c, 5, 64, 78
6, 219360, Note_off_c, 5, 64, 0
6, 219360, Note_on_c, 5, 62, 78
6, 219520, Note_off_c, 5, 62, 0
6, 219520, Note_on_c, 5, 61, 77
6, 219680, Note_off_c, 5, 61, 0
6, 219680, Note_on_c, 5, 58, 77
6, 219840, Note_off_c, 5, 58, 0
6, 219840, Note_on_c, 5, 57, 76
6, 220000, Note_off_c, 5, 57, 0
6, 220000, Note_on_c, 5, 55, 75
6, 220160, Note_off_c, 5, 55, 0
6, 220160, Note_on_c, 5, 53, 75
6, 220320, Note_off_c, 5, 53, 0
6, 220320, Note_on_c, 5, 52, 74
6, 220480, Note_off_c, 5, 52, 0
6, 220480, Note_on_c, 5, 50, 74
6, 220640, Note_off_c, 5, 50, 0
6, 220640, Note_on_c, 5, 49, 73
6, 220800, Note_off_c, 5, 49, 0
6, 220800, Note_on_c, 5, 50, 73
6, 221160, Note_off_c, 5, 50, 0
6, 221280, Note_on_c, 5, 48, 71
6, 221640, Note_off_c, 5, 48, 0
6, 221760, Note_on_c, 5, 47, 69
6, 222120, Note_off_c, 5, 47, 0
6, 222240, Note_on_c, 5, 46, 68
6, 222600, Note_off_c, 5, 46, 0
6, 222720, Note_on_c, 5, 45, 66
6, 223440, Note_off_c, 5, 45, 0
6, 224800, Note_on_c, 5, 50, 73
6, 224960, Note_off_c, 5, 50, 0
6, 224960, Note_on_c, 5, 53, 73
6, 225120, Note_off_c, 5, 53, 0
6, 225120, Note_on_c, 5, 57, 74
6, 225280, Note_off_c, 5, 57, 0
6, 225280, Note_on_c, 5, 62, 74
6, 225440, Note_off_c, 5, 62, 0
6, 225440, Note_on_c, 5, 65, 75
6, 225600, Note_off_c, 5, 65, 0
6, 225600, Note_on_c, 5, 69, 75
6, 225760, Note_off_c, 5, 69, 0
6, 225760, Note_on_c, 5, 67, 75
6, 225920, Note_off_c, 5, 67, 0
6, 225920, Note_on_c, 5, 65, 76
6, 226080, Note_off_c, 5, 65, 0
6, 226080, Note_on_c, 5, 64, 76
6, 226240, Note_off_c, 5, 64, 0
6, 226240, Note_on_c, 5, 65, 77
6, 226400, Note_off_c, 5, 65, 0
6, 226400, Note_on_c, 5, 62, 77
6, 226560, Note_off_c, 5, 62, 0
6, 226560, Note_on_c, 5, 57, 77
6, 227280, Note_off_c, 5, 57, 0
6, 228640, Note_on_c, 5, 50, 82
6, 228800, Note_off_c, 5, 50, 0
6, 228800, Note_on_c, 5, 53, 83
6, 228960, Note_off_c, 5, 53, 0
6, 228960, Note_on_c, 5, 57, 83
6, 229120, Note_off_c, 5, 57, 0
6, 229120, Note_on_c, 5, 62, 84
6, 229280, Note_off_c, 5, 62, 0
6, 229280, Note_on_c, 5, 65, 84
6, 229440, Note_off_c, 5, 65, 0
6, 229440, Note_on_c, 5, 69, 84
6, 229600, Note_off_c, 5, 69, 0
6, 229600, Note_on_c, 5, 67, 85
6, 229760, Note_off_c, 5, 67, 0
6, 229760, Note_on_c, 5, 65, 85
6, 229920, Note_off_c, 5, 65, 0
6, 229920, Note_on_c, 5, 64, 86
6, 230080, Note_off_c, 5, 64, 0
6, 230080, Note_on_c, 5, 65, 86
6, 230240, Note_off_c, 5, 65, 0
6, 230240, Note_on_c, 5, 62, 86
6, 230400, Note_off_c, 5, 62, 0
6, 230400, Note_on_c, 5, 57, 87
6, 231120, Note_off_c, 5, 57, 0
6, 234240, Note_on_c, 5, 33, 77
6, 234368, Note_off_c, 5, 33, 0
6, 234400, Note_on_c, 5, 37, 77
6, 234528, Note_off_c, 5, 37, 0
6, 234560, Note_on_c, 5, 40, 78
6, 234688, Note_off_c, 5, 40, 0
6, 234720, Note_on_c, 5, 45, 79
6, 234848, Note_off_c, 5, 45, 0
6, 234880, Note_on_c, 5, 40, 79
6, 235008, Note_off_c, 5, 40, 0
6, 235040, Note_on_c, 5, 37, 80
6, 235168, Note_off_c, 5, 37, 0
6, 235200, Note_on_c, 5, 33, 81
6, 235328, Note_off_c, 5, 33, 0
6, 235360, Note_on_c, 5, 37, 81
6, 235488, Note_off_c, 5, 37, 0
6, 235520, Note_on_c, 5, 40, 82
6, 235648, Note_off_c, 5, 40, 0
6, 235680, Note_on_c, 5, 45, 83
6, 235808, Note_off_c, 5, 45, 0
6, 235840, Note_on_c, 5, 40, 83
6, 235968, Note_off_c, 5, 40, 0
6, 236000, Note_on_c, 5, 37, 84
6, 236128, Note_off_c, 5, 37, 0
6, 236160, Note_on_c, 5, 33, 85
6, 236288, Note_off_c, 5, 33, 0
6, 236320, Note_on_c, 5, 37, 85
6, 236448, Note_off_c, 5, 37, 0
6, 236480, Note_on_c, 5, 40, 86
6, 236608, Note_off_c, 5, 40, 0
6, 236640, Note_on_c, 5, 45, 87
6, 236768, Note_off_c, 5, 45, 0
6, 236800, Note_on_c, 5, 49, 87
6, 236928, Note_off_c, 5, 49, 0
6, 236960, Note_on_c, 5, 52, 88
6, 237088, Note_off_c, 5, 52, 0
6, 237120, Note_on_c, 5, 57, 89
6, 237248, Note_off_c, 5, 57, 0
6, 237280, Note_on_c, 5, 52, 90
6, 237408, Note_off_c, 5, 52, 0
6, 237440, Note_on_c, 5, 49, 90
6, 237568, Note_off_c, 5, 49, 0
6, 237600, Note_on_c, 5, 45, 91
6, 237728, Note_off_c, 5, 45, 0
6, 237760, Note_on_c, 5, 49, 92
6, 237888, Note_off_c, 5, 49, 0
6, 237920, Note_on_c, 5, 52, 92
6, 238048, Note_off_c, 5, 52, 0
6, 238080, Note_on_c, 5, 45, 93
6, 238208, Note_off_c, 5, 45, 0
6, 238240, Note_on_c, 5, 49, 94
6, 238368, Note_off_c, 5, 49, 0
6, 238400, Note_on_c, 5, 52, 94
6, 238528, Note_off_c, 5, 52, 0
6, 238560, Note_on_c, 5, 57, 95
6, 238688, Note_off_c, 5, 57, 0
6, 238720, Note_on_c, 5, 61, 96
6, 238848, Note_off_c, 5, 61, 0
6, 238880, Note_on_c, 5, 64, 96
6, 239008, Note_off_c, 5, 64, 0
6, 239040, Note_on_c, 5, 69, 97
6, 239168, Note_off_c, 5, 69, 0
6, 239200, Note_on_c, 5, 64, 98
6, 239328, Note_off_c, 5, 64, 0
6, 239360, Note_on_c, 5, 61, 98
6, 239488, Note_off_c, 5, 61, 0
6, 239520, Note_on_c, 5, 57, 99
6, 239648, Note_off_c, 5, 57, 0
6, 239680, Note_on_c, 5, 61, 100
6, 239808, Note_off_c, 5, 61, 0
6, 239840, Note_on_c, 5, 64, 100
6, 239968, Note_off_c, 5, 64, 0
6, 240000, Note_on_c, 5, 69, 101
6, 240240, Note_off_c, 5, 69, 0
6, 240480, Note_on_c, 5, 45, 92
6, 240720, Note_off_c, 5, 45, 0
6, 241440, Note_on_c, 5, 57, 53
6, 241920, Note_off_c, 5, 57, 0
6, 241920, Note_on_c, 5, 59, 47
6, 242160, Note_off_c, 5, 59, 0
6, 242400, Note_on_c, 5, 61, 47
6, 242640, Note_off_c, 5, 61, 0
6, 242880, Note_on_c, 5, 62, 47
6, 243120, Note_off_c, 5, 62, 0
6, 243360, Note_on_c, 5, 64, 48
6, 243600, Note_off_c, 5, 64, 0
6, 243840, Note_on_c, 5, 65, 48
6, 244080, Note_off_c, 5, 65, 0
6, 244320, Note_on_c, 5, 50, 64
6, 244560, Note_off_c, 5, 50, 0
6, 244800, Note_on_c, 5, 62, 68
6, 245920, Note_off_c, 5, 62, 0
6, 245920, Note_on_c, 5, 63, 61
6, 246080, Note_off_c, 5, 63, 0
6, 246080, Note_on_c, 5, 62, 61
6, 246240, Note_off_c, 5, 62, 0
6, 246240, Note_on_c, 5, 60, 60
6, 246400, Note_off_c, 5, 60, 0
6, 246400, Note_on_c, 5, 62, 59
6, 246560, Note_off_c, 5, 62, 0
6, 246560, Note_on_c, 5, 60, 58
6, 246720, Note_off_c, 5, 60, 0
6, 246720, Note_on_c, 5, 58, 57
6, 246880, Note_off_c, 5, 58, 0
6, 246880, Note_on_c, 5, 60, 56
6, 247040, Note_off_c, 5, 60, 0
6, 247040, Note_on_c, 5, 58, 55
6, 247200, Note_off_c, 5, 58, 0
6, 247200, Note_on_c, 5, 57, 54
6, 247360, Note_off_c, 5, 57, 0
6, 247360, Note_on_c, 5, 58, 53
6, 247520, Note_off_c, 5, 58, 0
6, 247520, Note_on_c, 5, 57, 52
6, 247680, Note_off_c, 5, 57, 0
6, 247680, Note_on_c, 5, 55, 51
6, 247920, Note_off_c, 5, 55, 0
6, 248160, Note_on_c, 5, 67, 48
6, 248400, Note_off_c, 5, 67, 0
6, 249120, Note_on_c, 5, 59, 60
6, 249600, Note_off_c, 5, 59, 0
6, 249600, Note_on_c, 5, 64, 54
6, 249600, Note_on_c, 5, 60, 54
6, 249840, Note_off_c, 5, 60, 0
6, 249840, Note_off_c, 5, 64, 0
6, 250080, Note_on_c, 5, 62, 54
6, 250320, Note_off_c, 5, 62, 0
6, 250560, Note_on_c, 5, 64, 55
6, 250800, Note_off_c, 5, 64, 0
6, 251040, Note_on_c, 5, 65, 55
6, 251280, Note_off_c, 5, 65, 0
6, 251520, Note_on_c, 5, 64, 55
6, 251760, Note_off_c, 5, 64, 0
6, 252000, Note_on_c, 5, 48, 70
6, 252240, Note_off_c, 5, 48, 0
6, 252480, Note_on_c, 5, 60, 72
6, 253600, Note_off_c, 5, 60, 0
6, 253600, Note_on_c, 5, 62, 66
6, 253760, Note_off_c, 5, 62, 0
6, 253760, Note_on_c, 5, 60, 65
6, 253920, Note_off_c, 5, 60, 0
6, 253920, Note_on_c, 5, 58, 65
6, 254080, Note_off_c, 5, 58, 0
6, 254080, Note_on_c, 5, 60, 64
6, 254240, Note_off_c, 5, 60, 0
6, 254240, Note_on_c, 5, 58, 63
6, 254400, Note_off_c, 5, 58, 0
6, 254400, Note_on_c, 5, 57, 62
6, 254560, Note_off_c, 5, 57, 0
6, 254560, Note_on_c, 5, 58, 62
6, 254720, Note_off_c, 5, 58, 0
6, 254720, Note_on_c, 5, 57, 61
6, 254880, Note_off_c, 5, 57, 0
6, 254880, Note_on_c, 5, 55, 60
6, 255040, Note_off_c, 5, 55, 0
6, 255040, Note_on_c, 5, 57, 59
6, 255200, Note_off_c, 5, 57, 0
6, 255200, Note_on_c, 5, 55, 59
6, 255360, Note_off_c, 5, 55, 0
6, 255360, Note_on_c, 5, 53, 58
6, 255600, Note_off_c, 5, 53, 0
6, 256800, Note_on_c, 5, 46, 68
6, 257040, Note_off_c, 5, 46, 0
6, 257280, Note_on_c, 5, 58, 75
6, 258400, Note_off_c, 5, 58, 0
6, 258400, Note_on_c, 5, 60, 69
6, 258560, Note_off_c, 5, 60, 0
6, 258560, Note_on_c, 5, 58, 68
6, 258720, Note_off_c, 5, 58, 0
6, 258720, Note_on_c, 5, 57, 68
6, 258880, Note_off_c, 5, 57, 0
6, 258880, Note_on_c, 5, 58, 67
6, 259040, Note_off_c, 5, 58, 0
6, 259040, Note_on_c, 5, 57, 66
6, 259200, Note_off_c, 5, 57, 0
6, 259200, Note_on_c, 5, 55, 65
6, 259360, Note_off_c, 5, 55, 0
6, 259360, Note_on_c, 5, 57, 64
6, 259520, Note_off_c, 5, 57, 0
6, 259520, Note_on_c, 5, 55, 63
6, 259680, Note_off_c, 5, 55, 0
6, 259680, Note_on_c, 5, 53, 63
6, 259840, Note_off_c, 5, 53, 0
6, 259840, Note_on_c, 5, 55, 62
6, 260000, Note_off_c, 5, 55, 0
6, 260000, Note_on_c, 5, 53, 61
6, 260160, Note_off_c, 5, 53, 0
6, 260160, Note_on_c, 5, 52, 60
6, 260400, Note_off_c, 5, 52, 0
6, 260640, Note_on_c, 5, 48, 59
6, 260880, Note_off_c, 5, 48, 0
6, 261120, Note_on_c, 5, 70, 75
6, 262240, Note_off_c, 5, 70, 0
6, 262240, Note_on_c, 5, 72, 72
6, 262400, Note_off_c, 5, 72, 0
6, 262400, Note_on_c, 5, 70, 71
6, 262560, Note_off_c, 5, 70, 0
6, 262560, Note_on_c, 5, 69, 71
6, 262720, Note_off_c, 5, 69, 0
6, 262720, Note_on_c, 5, 70, 71
6, 262880, Note_off_c, 5, 70, 0
6, 262880, Note_on_c, 5, 69, 70
6, 263040, Note_off_c, 5, 69, 0
6, 263040, Note_on_c, 5, 67, 70
6, 263200, Note_off_c, 5, 67, 0
6, 263200, Note_on_c, 5, 69, 69
6, 263360, Note_off_c, 5, 69, 0
6, 263360, Note_on_c, 5, 67, 69
6, 263520, Note_off_c, 5, 67, 0
6, 263520, Note_on_c, 5, 65, 68
6, 263680, Note_off_c, 5, 65, 0
6, 263680, Note_on_c, 5, 67, 68
6, 263840, Note_off_c, 5, 67, 0
6, 263840, Note_on_c, 5, 65, 67
6, 264000, Note_off_c, 5, 65, 0
6, 264000, Note_on_c, 5, 64, 67
6, 264160, Note_off_c, 5, 64, 0
6, 264160, Note_on_c, 5, 65, 66
6, 264320, Note_off_c, 5, 65, 0
6, 264320, Note_on_c, 5, 64, 66
6, 264480, Note_off_c, 5, 64, 0
6, 264480, Note_on_c, 5, 62, 65
6, 264640, Note_off_c, 5, 62, 0
6, 264640, Note_on_c, 5, 64, 65
6, 264800, Note_off_c, 5, 64, 0
6, 264800, Note_on_c, 5, 62, 64
6, 264960, Note_off_c, 5, 62, 0
6, 264960, Note_on_c, 5, 60, 64
6, 266880, Note_off_c, 5, 60, 0
6, 266880, Note_on_c, 5, 60, 70
6, 268800, Note_off_c, 5, 60, 0
6, 268800, Note_on_c, 5, 60, 71
6, 269520, Note_off_c, 5, 60, 0
6, 272640, Note_on_c, 5, 36, 65
6, 272800, Note_off_c, 5, 36, 0
6, 272800, Note_on_c, 5, 40, 67
6, 272960, Note_off_c, 5, 40, 0
6, 272960, Note_on_c, 5, 43, 68
6, 273120, Note_off_c, 5, 43, 0
6, 273120, Note_on_c, 5, 46, 69
6, 273280, Note_off_c, 5, 46, 0
6, 273280, Note_on_c, 5, 43, 70
6, 273440, Note_off_c, 5, 43, 0
6, 273440, Note_on_c, 5, 40, 72
6, 273600, Note_off_c, 5, 40, 0
6, 273600, Note_on_c, 5, 36, 73
6, 273760, Note_off_c, 5, 36, 0
6, 273760, Note_on_c, 5, 40, 74
6, 273920, Note_off_c, 5, 40, 0
6, 273920, Note_on_c, 5, 43, 76
6, 274080, Note_off_c, 5, 43, 0
6, 274080, Note_on_c, 5, 46, 77
6, 274240, Note_off_c, 5, 46, 0
6, 274240, Note_on_c, 5, 43, 78
6, 274400, Note_off_c, 5, 43, 0
6, 274400, Note_on_c, 5, 40, 79
6, 274560, Note_off_c, 5, 40, 0
6, 274560, Note_on_c, 5, 36, 81
6, 274720, Note_off_c, 5, 36, 0
6, 274720, Note_on_c, 5, 40, 82
6, 274880, Note_off_c, 5, 40, 0
6, 274880, Note_on_c, 5, 43, 83
6, 275040, Note_off_c, 5, 43, 0
6, 275040, Note_on_c, 5, 48, 85
6, 275200, Note_off_c, 5, 48, 0
6, 275200, Note_on_c, 5, 52, 86
6, 275360, Note_off_c, 5, 52, 0
6, 275360, Note_on_c, 5, 55, 87
6, 275520, Note_off_c, 5, 55, 0
6, 275520, Note_on_c, 5, 58, 88
6, 275680, Note_off_c, 5, 58, 0
6, 275680, Note_on_c, 5, 55, 90
6, 275840, Note_off_c, 5, 55, 0
6, 275840, Note_on_c, 5, 52, 91
6, 276000, Note_off_c, 5, 52, 0
6, 276000, Note_on_c, 5, 48, 92
6, 276160, Note_off_c, 5, 48, 0
6, 276160, Note_on_c, 5, 52, 94
6, 276320, Note_off_c, 5, 52, 0
6, 276320, Note_on_c, 5, 55, 95
6, 276480, Note_off_c, 5, 55, 0
6, 276480, Note_on_c, 5, 48, 96
6, 276640, Note_off_c, 5, 48, 0
6, 276640, Note_on_c, 5, 52, 97
6, 276800, Note_off_c, 5, 52, 0
6, 276800, Note_on_c, 5, 55, 99
6, 276960, Note_off_c, 5, 55, 0
6, 276960, Note_on_c, 5, 60, 100
6, 277120, Note_off_c, 5, 60, 0
6, 277120, Note_on_c, 5, 64, 101
6, 277280, Note_off_c, 5, 64, 0
6, 277280, Note_on_c, 5, 67, 103
6, 277440, Note_off_c, 5, 67, 0
6, 277440, Note_on_c, 5, 70, 104
6, 277600, Note_off_c, 5, 70, 0
6, 277600, Note_on_c, 5, 67, 105
6, 277760, Note_off_c, 5, 67, 0
6, 277760, Note_on_c, 5, 64, 106
6, 277920, Note_off_c, 5, 64, 0
6, 277920, Note_on_c, 5, 60, 108
6, 278080, Note_off_c, 5, 60, 0
6, 278080, Note_on_c, 5, 64, 109
6, 278240, Note_off_c, 5, 64, 0
6, 278240, Note_on_c, 5, 67, 110
6, 278400, Note_off_c, 5, 67, 0
6, 278400, Note_on_c, 5, 70, 112
6, 278760, Note_off_c, 5, 70, 0
6, 278880, Note_on_c, 5, 48, 107
6, 279240, Note_off_c, 5, 48, 0
6, 286080, Note_on_c, 5, 53, 44
6, 287940, Note_off_c, 5, 53, 0
6, 288000, Note_on_c, 5, 53, 51
6, 289860, Note_off_c, 5, 53, 0
6, 289920, Note_on_c, 5, 53, 61
6, 291787, Note_off_c, 5, 53, 0
6, 291840, Note_on_c, 5, 53, 51
6, 293715, Note_off_c, 5, 53, 0
6, 293760, Note_on_c, 5, 53, 41
6, 294480, Note_off_c, 5, 53, 0
6, 295200, Note_on_c, 5, 60, 62
6, 295440, Note_off_c, 5, 60, 0
6, 295680, Note_on_c, 5, 58, 60
6, 295920, Note_off_c, 5, 58, 0
6, 295920, Note_on_c, 5, 56, 59
6, 296160, Note_off_c, 5, 56, 0
6, 296160, Note_on_c, 5, 55, 58
6, 296400, Note_off_c, 5, 55, 0
6, 296400, Note_on_c, 5, 53, 57
6, 296640, Note_off_c, 5, 53, 0
6, 296640, Note_on_c, 5, 56, 56
6, 296880, Note_off_c, 5, 56, 0
6, 296880, Note_on_c, 5, 55, 55
6, 297120, Note_off_c, 5, 55, 0
6, 297120, Note_on_c, 5, 58, 53
6, 297360, Note_off_c, 5, 58, 0
6, 297360, Note_on_c, 5, 52, 52
6, 297552, Note_off_c, 5, 52, 0
6, 297600, Note_on_c, 5, 53, 51
6, 297840, Note_off_c, 5, 53, 0
6, 298080, Note_on_c, 5, 48, 49
6, 298320, Note_off_c, 5, 48, 0
6, 299040, Note_on_c, 5, 60, 63
6, 299520, Note_off_c, 5, 60, 0
6, 299520, Note_on_c, 5, 61, 58
6, 299880, Note_off_c, 5, 61, 0
6, 300960, Note_on_c, 5, 66, 57
6, 301440, Note_off_c, 5, 66, 0
6, 301440, Note_on_c, 5, 65, 53
6, 301800, Note_off_c, 5, 65, 0
6, 302400, Note_on_c, 5, 53, 77
6, 303120, Note_off_c, 5, 53, 0
6, 303360, Note_on_c, 5, 51, 72
6, 303600, Note_off_c, 5, 51, 0
6, 303600, Note_on_c, 5, 49, 72
6, 303840, Note_off_c, 5, 49, 0
6, 303840, Note_on_c, 5, 48, 72
6, 304080, Note_off_c, 5, 48, 0
6, 304080, Note_on_c, 5, 46, 72
6, 304320, Note_off_c, 5, 46, 0
6, 304320, Note_on_c, 5, 49, 71
6, 304560, Note_off_c, 5, 49, 0
6, 304560, Note_on_c, 5, 48, 71
6, 304800, Note_off_c, 5, 48, 0
6, 304800, Note_on_c, 5, 51, 71
6, 305040, Note_off_c, 5, 51, 0
6, 305040, Note_on_c, 5, 45, 71
6, 305280, Note_off_c, 5, 45, 0
6, 305280, Note_on_c, 5, 48, 71
6, 305520, Note_off_c, 5, 48, 0
6, 305520, Note_on_c, 5, 46, 70
6, 305760, Note_off_c, 5, 46, 0
6, 305760, Note_on_c, 5, 49, 70
6, 306000, Note_off_c, 5, 49, 0
6, 306000, Note_on_c, 5, 43, 70
6, 306240, Note_off_c, 5, 43, 0
6, 306240, Note_on_c, 5, 46, 70
6, 306480, Note_off_c, 5, 46, 0
6, 306480, Note_on_c, 5, 44, 69
6, 306720, Note_off_c, 5, 44, 0
6, 306720, Note_on_c, 5, 48, 69
6, 306960, Note_off_c, 5, 48, 0
6, 306960, Note_on_c, 5, 41, 69
6, 307200, Note_off_c, 5, 41, 0
6, 307200, Note_on_c, 5, 44, 69
6, 307440, Note_off_c, 5, 44, 0
6, 307440, Note_on_c, 5, 43, 68
6, 307680, Note_off_c, 5, 43, 0
6, 307680, Note_on_c, 5, 46, 68
6, 307920, Note_off_c, 5, 46, 0
6, 307920, Note_on_c, 5, 40, 68
6, 308160, Note_off_c, 5, 40, 0
6, 308160, Note_on_c, 5, 41, 68
6, 308400, Note_off_c, 5, 41, 0
6, 308640, Note_on_c, 5, 56, 68
6, 309120, Note_off_c, 5, 56, 0
6, 309120, Note_on_c, 5, 58, 69
6, 309600, Note_off_c, 5, 58, 0
6, 309600, Note_on_c, 5, 60, 69
6, 310080, Note_off_c, 5, 60, 0
6, 310080, Note_on_c, 5, 61, 70
6, 310440, Note_off_c, 5, 61, 0
6, 310560, Note_on_c, 5, 53, 70
6, 311040, Note_off_c, 5, 53, 0
6, 311040, Note_on_c, 5, 55, 71
6, 311520, Note_off_c, 5, 55, 0
6, 311520, Note_on_c, 5, 57, 71
6, 312000, Note_off_c, 5, 57, 0
6, 312000, Note_on_c, 5, 58, 72
6, 312360, Note_off_c, 5, 58, 0
6, 312480, Note_on_c, 5, 55, 72
6, 312840, Note_off_c, 5, 55, 0
6, 312960, Note_on_c, 5, 56, 73
6, 313320, Note_off_c, 5, 56, 0
6, 313440, Note_on_c, 5, 53, 73
6, 313792, Note_off_c, 5, 53, 0
6, 313920, Note_on_c, 5, 55, 74
6, 314280, Note_off_c, 5, 55, 0
6, 314400, Note_on_c, 5, 52, 74
6, 314760, Note_off_c, 5, 52, 0
6, 314880, Note_on_c, 5, 53, 75
6, 315840, Note_off_c, 5, 53, 0
6, 315840, Note_on_c, 5, 51, 76
6, 316800, Note_off_c, 5, 51, 0
6, 316800, Note_on_c, 5, 49, 77
6, 317760, Note_off_c, 5, 49, 0
6, 317760, Note_on_c, 5, 48, 78
6, 318720, Note_off_c, 5, 48, 0
6, 318720, Note_on_c, 5, 47, 79
6, 318960, Note_off_c, 5, 47, 0
6, 320160, Note_on_c, 5, 48, 80
6, 320400, Note_off_c, 5, 48, 0
6, 320640, Note_on_c, 5, 49, 81
6, 320880, Note_off_c, 5, 49, 0
6, 321600, Note_on_c, 5, 37, 82
6, 321600, Note_on_c, 5, 49, 82
6, 321840, Note_off_c, 5, 49, 0
6, 321840, Note_off_c, 5, 37, 0
6, 322560, Note_on_c, 5, 36, 83
6, 322560, Note_on_c, 5, 48, 83
6, 322800, Note_off_c, 5, 48, 0
6, 322800, Note_off_c, 5, 36, 0
6, 326400, Note_on_c, 5, 57, 48
6, 326760, Note_off_c, 5, 57, 0
6, 326880, Note_on_c, 5, 58, 49
6, 327240, Note_off_c, 5, 58, 0
6, 327360, Note_on_c, 5, 57, 50
6, 327720, Note_off_c, 5, 57, 0
6, 327840, Note_on_c, 5, 52, 51
6, 328200, Note_off_c, 5, 52, 0
6, 328320, Note_on_c, 5, 53, 52
6, 328680, Note_off_c, 5, 53, 0
6, 328800, Note_on_c, 5, 50, 54
6, 329160, Note_off_c, 5, 50, 0
6, 329280, Note_on_c, 5, 45, 55
6, 329640, Note_off_c, 5, 45, 0
6, 329760, Note_on_c, 5, 46, 56
6, 330120, Note_off_c, 5, 46, 0
6, 330240, Note_on_c, 5, 48, 57
6, 331080, Note_off_c, 5, 48, 0
6, 331680, Note_on_c, 5, 50, 60
6, 332160, Note_off_c, 5, 50, 0
6, 332160, Note_on_c, 5, 52, 53
6, 332400, Note_off_c, 5, 52, 0
6, 332640, Note_on_c, 5, 54, 54
6, 332880, Note_off_c, 5, 54, 0
6, 333120, Note_on_c, 5, 55, 56
6, 333360, Note_off_c, 5, 55, 0
6, 333600, Note_on_c, 5, 57, 57
6, 333840, Note_off_c, 5, 57, 0
6, 334080, Note_on_c, 5, 58, 58
6, 334320, Note_off_c, 5, 58, 0
6, 335040, Note_on_c, 5, 62, 61
6, 335280, Note_off_c, 5, 62, 0
6, 335520, Note_on_c, 5, 46, 62
6, 336000, Note_off_c, 5, 46, 0
6, 336000, Note_on_c, 5, 45, 65
6, 336480, Note_off_c, 5, 45, 0
6, 336480, Note_on_c, 5, 47, 63
6, 336960, Note_off_c, 5, 47, 0
6, 336960, Note_on_c, 5, 48, 61
6, 337920, Note_off_c, 5, 48, 0
6, 337920, Note_on_c, 5, 53, 57
6, 338160, Note_off_c, 5, 53, 0
6, 338400, Note_on_c, 5, 41, 70
6, 338640, Note_off_c, 5, 41, 0
6, 338880, Note_on_c, 5, 60, 76
6, 340000, Note_off_c, 5, 60, 0
6, 340000, Note_on_c, 5, 62, 68
6, 340160, Note_off_c, 5, 62, 0
6, 340160, Note_on_c, 5, 60, 67
6, 340320, Note_off_c, 5, 60, 0
6, 340320, Note_on_c, 5, 58, 67
6, 340480, Note_off_c, 5, 58, 0
6, 340480, Note_on_c, 5, 60, 66
6, 340640, Note_off_c, 5, 60, 0
6, 340640, Note_on_c, 5, 58, 65
6, 340800, Note_off_c, 5, 58, 0
6, 340800, Note_on_c, 5, 57, 65
6, 340960, Note_off_c, 5, 57, 0
6, 340960, Note_on_c, 5, 58, 64
6, 341120, Note_off_c, 5, 58, 0
6, 341120, Note_on_c, 5, 57, 63
6, 341280, Note_off_c, 5, 57, 0
6, 341280, Note_on_c, 5, 55, 63
6, 341440, Note_off_c, 5, 55, 0
6, 341440, Note_on_c, 5, 57, 62
6, 341600, Note_off_c, 5, 57, 0
6, 341600, Note_on_c, 5, 55, 61
6, 341760, Note_off_c, 5, 55, 0
6, 341760, Note_on_c, 5, 53, 61
6, 342000, Note_off_c, 5, 53, 0
6, 342240, Note_on_c, 5, 55, 59
6, 342320, Note_off_c, 5, 55, 0
6, 342320, Note_on_c, 5, 57, 59
6, 342400, Note_off_c, 5, 57, 0
6, 342400, Note_on_c, 5, 55, 60
6, 342480, Note_off_c, 5, 55, 0
6, 342480, Note_on_c, 5, 53, 60
6, 342600, Note_off_c, 5, 53, 0
6, 342600, Note_on_c, 5, 55, 61
6, 342720, Note_off_c, 5, 55, 0
6, 342720, Note_on_c, 5, 57, 65
6, 342960, Note_off_c, 5, 57, 0
6, 343200, Note_on_c, 5, 45, 66
6, 343440, Note_off_c, 5, 45, 0
6, 343680, Note_on_c, 5, 46, 68
6, 344040, Note_off_c, 5, 46, 0
6, 345120, Note_on_c, 5, 58, 72
6, 345600, Note_off_c, 5, 58, 0
6, 345600, Note_on_c, 5, 60, 73
6, 345840, Note_off_c, 5, 60, 0
6, 346080, Note_on_c, 5, 48, 73
6, 346320, Note_off_c, 5, 48, 0
6, 346560, Note_on_c, 5, 62, 80
6, 347680, Note_off_c, 5, 62, 0
6, 347680, Note_on_c, 5, 63, 72
6, 347840, Note_off_c, 5, 63, 0
6, 347840, Note_on_c, 5, 62, 71
6, 348000, Note_off_c, 5, 62, 0
6, 348000, Note_on_c, 5, 60, 71
6, 348160, Note_off_c, 5, 60, 0
6, 348160, Note_on_c, 5, 62, 70
6, 348320, Note_off_c, 5, 62, 0
6, 348320, Note_on_c, 5, 60, 69
6, 348480, Note_off_c, 5, 60, 0
6, 348480, Note_on_c, 5, 58, 68
6, 348640, Note_off_c, 5, 58, 0
6, 348640, Note_on_c, 5, 60, 68
6, 348800, Note_off_c, 5, 60, 0
6, 348800, Note_on_c, 5, 58, 67
6, 348960, Note_off_c, 5, 58, 0
6, 348960, Note_on_c, 5, 57, 66
6, 349120, Note_off_c, 5, 57, 0
6, 349120, Note_on_c, 5, 58, 66
6, 349280, Note_off_c, 5, 58, 0
6, 349280, Note_on_c, 5, 57, 65
6, 349440, Note_off_c, 5, 57, 0
6, 349440, Note_on_c, 5, 55, 64
6, 349680, Note_off_c, 5, 55, 0
6, 349920, Note_on_c, 5, 53, 63
6, 350000, Note_off_c, 5, 53, 0
6, 350000, Note_on_c, 5, 55, 64
6, 350080, Note_off_c, 5, 55, 0
6, 350080, Note_on_c, 5, 53, 65
6, 350160, Note_off_c, 5, 53, 0
6, 350160, Note_on_c, 5, 52, 66
6, 350280, Note_off_c, 5, 52, 0
6, 350280, Note_on_c, 5, 53, 67
6, 350400, Note_off_c, 5, 53, 0
6, 350400, Note_on_c, 5, 52, 71
6, 350640, Note_off_c, 5, 52, 0
6, 350880, Note_on_c, 5, 58, 67
6, 350960, Note_off_c, 5, 58, 0
6, 350960, Note_on_c, 5, 60, 67
6, 351040, Note_off_c, 5, 60, 0
6, 351040, Note_on_c, 5, 58, 68
6, 351120, Note_off_c, 5, 58, 0
6, 351120, Note_on_c, 5, 57, 68
6, 351240, Note_off_c, 5, 57, 0
6, 351240, Note_on_c, 5, 58, 69
6, 351360, Note_off_c, 5, 58, 0
6, 351360, Note_on_c, 5, 57, 73
6, 351720, Note_off_c, 5, 57, 0
6, 351840, Note_on_c, 5, 58, 71
6, 352200, Note_off_c, 5, 58, 0
6, 352320, Note_on_c, 5, 60, 69
6, 352680, Note_off_c, 5, 60, 0
6, 352800, Note_on_c, 5, 48, 67
6, 353160, Note_off_c, 5, 48, 0
6, 353280, Note_on_c, 5, 53, 64
6, 353520, Note_off_c, 5, 53, 0
6, 354720, Note_on_c, 5, 65, 65
6, 355200, Note_off_c, 5, 65, 0
6, 355200, Note_on_c, 5, 64, 65
6, 355680, Note_off_c, 5, 64, 0
6, 355680, Note_on_c, 5, 62, 66
6, 356160, Note_off_c, 5, 62, 0
6, 356160, Note_on_c, 5, 60, 66
6, 356640, Note_off_c, 5, 60, 0
6, 356640, Note_on_c, 5, 58, 67
6, 357120, Note_off_c, 5, 58, 0
6, 357120, Note_on_c, 5, 57, 67
6, 357480, Note_off_c, 5, 57, 0
6, 357600, Note_on_c, 5, 68, 68
6, 357760, Note_off_c, 5, 68, 0
6, 357760, Note_on_c, 5, 67, 68
6, 357920, Note_off_c, 5, 67, 0
6, 357920, Note_on_c, 5, 65, 68
6, 358080, Note_off_c, 5, 65, 0
6, 358080, Note_on_c, 5, 63, 68
6, 358240, Note_off_c, 5, 63, 0
6, 358240, Note_on_c, 5, 61, 69
6, 358400, Note_off_c, 5, 61, 0
6, 358400, Note_on_c, 5, 60, 69
6, 358560, Note_off_c, 5, 60, 0
6, 358560, Note_on_c, 5, 59, 69
6, 358720, Note_off_c, 5, 59, 0
6, 358720, Note_on_c, 5, 62, 69
6, 358880, Note_off_c, 5, 62, 0
6, 358880, Note_on_c, 5, 59, 69
6, 359040, Note_off_c, 5, 59, 0
6, 359040, Note_on_c, 5, 62, 69
6, 359200, Note_off_c, 5, 62, 0
6, 359200, Note_on_c, 5, 60, 70
6, 359360, Note_off_c, 5, 60, 0
6, 359360, Note_on_c, 5, 57, 70
6, 359520, Note_off_c, 5, 57, 0
6, 359520, Note_on_c, 5, 60, 70
6, 359680, Note_off_c, 5, 60, 0
6, 359680, Note_on_c, 5, 58, 70
6, 359840, Note_off_c, 5, 58, 0
6, 359840, Note_on_c, 5, 55, 70
6, 360000, Note_off_c, 5, 55, 0
6, 360000, Note_on_c, 5, 58, 70
6, 360160, Note_off_c, 5, 58, 0
6, 360160, Note_on_c, 5, 57, 71
6, 360320, Note_off_c, 5, 57, 0
6, 360320, Note_on_c, 5, 53, 71
6, 360480, Note_off_c, 5, 53, 0
6, 360480, Note_on_c, 5, 57, 71
6, 360640, Note_off_c, 5, 57, 0
6, 360640, Note_on_c, 5, 55, 71
6, 360800, Note_off_c, 5, 55, 0
6, 360800, Note_on_c, 5, 52, 71
6, 360960, Note_off_c, 5, 52, 0
6, 360960, Note_on_c, 5, 53, 71
6, 361320, Note_off_c, 5, 53, 0
6, 362400, Note_on_c, 5, 57, 73
6, 362880, Note_off_c, 5, 57, 0
6, 362880, Note_on_c, 5, 58, 70
6, 363240, Note_off_c, 5, 58, 0
6, 363360, Note_on_c, 5, 74, 74
6, 363520, Note_off_c, 5, 74, 0
6, 363520, Note_on_c, 5, 72, 74
6, 363680, Note_off_c, 5, 72, 0
6, 363680, Note_on_c, 5, 70, 74
6, 363840, Note_off_c, 5, 70, 0
6, 363840, Note_on_c, 5, 69, 74
6, 364000, Note_off_c, 5, 69, 0
6, 364000, Note_on_c, 5, 67, 75
6, 364160, Note_off_c, 5, 67, 0
6, 364160, Note_on_c, 5, 66, 75
6, 364320, Note_off_c, 5, 66, 0
6, 364320, Note_on_c, 5, 67, 75
6, 364480, Note_off_c, 5, 67, 0
6, 364480, Note_on_c, 5, 65, 75
6, 364640, Note_off_c, 5, 65, 0
6, 364640, Note_on_c, 5, 63, 75
6, 364800, Note_off_c, 5, 63, 0
6, 364800, Note_on_c, 5, 64, 75
6, 365160, Note_off_c, 5, 64, 0
6, 366240, Note_on_c, 5, 53, 77
6, 366600, Note_off_c, 5, 53, 0
6, 366720, Note_on_c, 5, 52, 72
6, 367080, Note_off_c, 5, 52, 0
6, 368160, Note_on_c, 5, 50, 79
6, 368520, Note_off_c, 5, 50, 0
6, 368640, Note_on_c, 5, 48, 79
6, 369000, Note_off_c, 5, 48, 0
6, 369120, Note_on_c, 5, 50, 76
6, 369480, Note_off_c, 5, 50, 0
6, 369600, Note_on_c, 5, 48, 80
6, 369960, Note_off_c, 5, 48, 0
6, 370080, Note_on_c, 5, 50, 75
6, 370440, Note_off_c, 5, 50, 0
6, 370560, Note_on_c, 5, 48, 81
6, 370920, Note_off_c, 5, 48, 0
6, 371040, Note_on_c, 5, 36, 70
6, 371280, Note_off_c, 5, 36, 0
6, 371520, Note_on_c, 5, 38, 71
6, 371760, Note_off_c, 5, 38, 0
6, 372000, Note_on_c, 5, 40, 72
6, 372240, Note_off_c, 5, 40, 0
6, 372480, Note_on_c, 5, 41, 73
6, 372720, Note_off_c, 5, 41, 0
6, 372960, Note_on_c, 5, 45, 74
6, 373200, Note_off_c, 5, 45, 0
6, 373440, Note_on_c, 5, 46, 75
6, 373680, Note_off_c, 5, 46, 0
6, 373920, Note_on_c, 5, 49, 76
6, 374160, Note_off_c, 5, 49, 0
6, 374400, Note_on_c, 5, 50, 77
6, 374640, Note_off_c, 5, 50, 0
6, 374640, Note_on_c, 5, 53, 78
6, 374880, Note_off_c, 5, 53, 0
6, 374880, Note_on_c, 5, 52, 78
6, 375120, Note_off_c, 5, 52, 0
6, 375120, Note_on_c, 5, 50, 78
6, 375360, Note_off_c, 5, 50, 0
6, 375360, Note_on_c, 5, 52, 79
6, 375600, Note_off_c, 5, 52, 0
6, 375600, Note_on_c, 5, 53, 79
6, 375840, Note_off_c, 5, 53, 0
6, 375840, Note_on_c, 5, 50, 80
6, 376080, Note_off_c, 5, 50, 0
6, 376080, Note_on_c, 5, 52, 80
6, 376272, Note_off_c, 5, 52, 0
6, 376320, Note_on_c, 5, 53, 81
6, 376560, Note_off_c, 5, 53, 0
6, 376800, Note_on_c, 5, 50, 78
6, 377040, Note_off_c, 5, 50, 0
6, 377280, Note_on_c, 5, 45, 74
6, 377520, Note_off_c, 5, 45, 0
6, 377760, Note_on_c, 5, 47, 61
6, 377840, Note_off_c, 5, 47, 0
6, 377840, Note_on_c, 5, 48, 60
6, 377920, Note_off_c, 5, 48, 0
6, 377920, Note_on_c, 5, 47, 59
6, 378000, Note_off_c, 5, 47, 0
6, 378000, Note_on_c, 5, 45, 58
6, 378120, Note_off_c, 5, 45, 0
6, 378120, Note_on_c, 5, 47, 56
6, 378216, Note_off_c, 5, 47, 0
6, 378240, Note_on_c, 5, 48, 59
6, 382020, Note_off_c, 5, 48, 0
6, 382080, Note_on_c, 5, 48, 71
6, 385890, Note_off_c, 5, 48, 0
6, 385920, Note_on_c, 5, 48, 66
6, 386280, Note_off_c, 5, 48, 0
6, 386400, Note_on_c, 5, 36, 68
6, 386640, Note_off_c, 5, 36, 0
6, 386880, Note_on_c, 5, 38, 69
6, 387120, Note_off_c, 5, 38, 0
6, 387360, Note_on_c, 5, 40, 70
6, 387600, Note_off_c, 5, 40, 0
6, 387840, Note_on_c, 5, 41, 70
6, 388080, Note_off_c, 5, 41, 0
6, 388320, Note_on_c, 5, 45, 71
6, 388560, Note_off_c, 5, 45, 0
6, 388800, Note_on_c, 5, 46, 72
6, 389040, Note_off_c, 5, 46, 0
6, 389280, Note_on_c, 5, 49, 73
6, 389520, Note_off_c, 5, 49, 0
6, 389760, Note_on_c, 5, 50, 73
6, 390000, Note_off_c, 5, 50, 0
6, 390000, Note_on_c, 5, 53, 74
6, 390240, Note_off_c, 5, 53, 0
6, 390240, Note_on_c, 5, 52, 74
6, 390480, Note_off_c, 5, 52, 0
6, 390480, Note_on_c, 5, 50, 75
6, 390720, Note_off_c, 5, 50, 0
6, 390720, Note_on_c, 5, 52, 75
6, 390960, Note_off_c, 5, 52, 0
6, 390960, Note_on_c, 5, 53, 75
6, 391200, Note_off_c, 5, 53, 0
6, 391200, Note_on_c, 5, 50, 76
6, 391440, Note_off_c, 5, 50, 0
6, 391440, Note_on_c, 5, 52, 76
6, 391632, Note_off_c, 5, 52, 0
6, 391680, Note_on_c, 5, 53, 76
6, 391920, Note_off_c, 5, 53, 0
6, 392160, Note_on_c, 5, 57, 77
6, 392400, Note_off_c, 5, 57, 0
6, 392640, Note_on_c, 5, 58, 78
6, 392880, Note_off_c, 5, 58, 0
6, 393120, Note_on_c, 5, 61, 79
6, 393360, Note_off_c, 5, 61, 0
6, 393600, Note_on_c, 5, 62, 79
6, 393840, Note_off_c, 5, 62, 0
6, 393840, Note_on_c, 5, 65, 80
6, 394080, Note_off_c, 5, 65, 0
6, 394080, Note_on_c, 5, 64, 80
6, 394320, Note_off_c, 5, 64, 0
6, 394320, Note_on_c, 5, 62, 81
6, 394560, Note_off_c, 5, 62, 0
6, 394560, Note_on_c, 5, 64, 81
6, 394800, Note_off_c, 5, 64, 0
6, 394800, Note_on_c, 5, 65, 81
6, 395040, Note_off_c, 5, 65, 0
6, 395040, Note_on_c, 5, 62, 82
6, 395280, Note_off_c, 5, 62, 0
6, 395280, Note_on_c, 5, 64, 82
6, 395472, Note_off_c, 5, 64, 0
6, 395520, Note_on_c, 5, 65, 82
6, 395760, Note_off_c, 5, 65, 0
6, 396000, Note_on_c, 5, 62, 83
6, 396240, Note_off_c, 5, 62, 0
6, 396480, Note_on_c, 5, 57, 84
6, 396720, Note_off_c, 5, 57, 0
6, 396960, Note_on_c, 5, 59, 85
6, 397200, Note_off_c, 5, 59, 0
6, 397440, Note_on_c, 5, 60, 85
6, 400912, Note_off_c, 5, 60, 0
6, 401280, Note_on_c, 5, 62, 79
6, 405127, Note_off_c, 5, 62, 0
6, 406560, Note_on_c, 5, 66, 69
6, 407040, Note_off_c, 5, 66, 0
6, 407040, Note_on_c, 5, 67, 62
6, 407400, Note_off_c, 5, 67, 0
6, 408480, Note_on_c, 5, 64, 66
6, 408960, Note_off_c, 5, 64, 0
6, 408960, Note_on_c, 5, 65, 65
6, 409852, Note_off_c, 5, 65, 0
6, 409920, Note_on_c, 5, 58, 63
6, 410827, Note_off_c, 5, 58, 0
6, 410880, Note_on_c, 5, 60, 61
6, 412740, Note_off_c, 5, 60, 0
6, 412800, Note_on_c, 5, 60, 58
6, 413692, Note_off_c, 5, 60, 0
6, 413760, Note_on_c, 5, 59, 56
6, 414667, Note_off_c, 5, 59, 0
6, 414720, Note_on_c, 5, 58, 54
6, 415620, Note_off_c, 5, 58, 0
6, 415680, Note_on_c, 5, 57, 52
6, 416580, Note_off_c, 5, 57, 0
6, 416640, Note_on_c, 5, 58, 50
6, 417547, Note_off_c, 5, 58, 0
6, 417600, Note_on_c, 5, 46, 49
6, 418500, Note_off_c, 5, 46, 0
6, 418560, Note_on_c, 5, 48, 47
6, 420427, Note_off_c, 5, 48, 0
6, 420480, Note_on_c, 5, 50, 92
6, 421665, Note_off_c, 5, 50, 0
6, 421920, Note_on_c, 5, 50, 81
6, 422160, Note_off_c, 5, 50, 0
6, 422400, Note_on_c, 5, 48, 67
6, 423600, Note_off_c, 5, 48, 0
6, 423840, Note_on_c, 5, 48, 56
6, 424080, Note_off_c, 5, 48, 0
6, 424320, Note_on_c, 5, 47, 91
6, 425520, Note_off_c, 5, 47, 0
6, 425760, Note_on_c, 5, 47, 79
6, 426000, Note_off_c, 5, 47, 0
6, 426240, Note_on_c, 5, 48, 62
6, 427440, Note_off_c, 5, 48, 0
6, 427680, Note_on_c, 5, 48, 55
6, 427920, Note_off_c, 5, 48, 0
6, 428160, Note_on_c, 5, 49, 88
6, 429360, Note_off_c, 5, 49, 0
6, 429600, Note_on_c, 5, 49, 79
6, 429840, Note_off_c, 5, 49, 0
6, 430080, Note_on_c, 5, 48, 78
6, 430320, Note_off_c, 5, 48, 0
6, 432000, Note_on_c, 5, 48, 73
6, 433897, Note_off_c, 5, 48, 0
6, 433920, Note_on_c, 5, 41, 82
6, 438168, Note_off_c, 5, 41, 0
6, 438240, Note_on_c, 5, 46, 76
6, 438600, Note_off_c, 5, 46, 0
6, 438720, Note_on_c, 5, 48, 75
6, 439080, Note_off_c, 5, 48, 0
6, 439200, Note_on_c, 5, 36, 75
6, 439560, Note_off_c, 5, 36, 0
6, 439680, Note_on_c, 5, 53, 78
6, 439680, Note_on_c, 5, 41, 78
6, 443977, Note_off_c, 5, 41, 0
6, 443992, Note_off_c, 5, 53, 0
6, 444000, Note_on_c, 5, 58, 71
6, 444360, Note_off_c, 5, 58, 0
6, 444480, Note_on_c, 5, 60, 71
6, 444840, Note_off_c, 5, 60, 0
6, 444960, Note_on_c, 5, 48, 70
6, 445320, Note_off_c, 5, 48, 0
6, 445440, Note_on_c, 5, 53, 75
6, 447720, Note_off_c, 5, 53, 0
6, 447840, Note_on_c, 5, 58, 68
6, 448200, Note_off_c, 5, 58, 0
6, 448320, Note_on_c, 5, 60, 68
6, 448680, Note_off_c, 5, 60, 0
6, 448800, Note_on_c, 5, 48, 67
6, 449160, Note_off_c, 5, 48, 0
6, 449280, Note_on_c, 5, 53, 70
6, 449280, Note_on_c, 5, 41, 70
6, 451560, Note_off_c, 5, 41, 0
6, 451560, Note_off_c, 5, 53, 0
6, 451680, Note_on_c, 5, 46, 65
6, 452040, Note_off_c, 5, 46, 0
6, 452160, Note_on_c, 5, 48, 64
6, 452520, Note_off_c, 5, 48, 0
6, 452640, Note_on_c, 5, 36, 64
6, 453000, Note_off_c, 5, 36, 0
6, 453120, Note_on_c, 5, 41, 65
6, 453248, Note_off_c, 5, 41, 0
6, 453280, Note_on_c, 5, 45, 66
6, 453408, Note_off_c, 5, 45, 0
6, 453440, Note_on_c, 5, 48, 66
6, 453568, Note_off_c, 5, 48, 0
6, 453600, Note_on_c, 5, 53, 67
6, 453728, Note_off_c, 5, 53, 0
6, 453760, Note_on_c, 5, 48, 68
6, 453888, Note_off_c, 5, 48, 0
6, 453920, Note_on_c, 5, 45, 69
6, 454048, Note_off_c, 5, 45, 0
6, 454080, Note_on_c, 5, 41, 70
6, 454208, Note_off_c, 5, 41, 0
6, 454240, Note_on_c, 5, 45, 71
6, 454368, Note_off_c, 5, 45, 0
6, 454400, Note_on_c, 5, 48, 72
6, 454528, Note_off_c, 5, 48, 0
6, 454560, Note_on_c, 5, 53, 73
6, 454688, Note_off_c, 5, 53, 0
6, 454720, Note_on_c, 5, 48, 74
6, 454848, Note_off_c, 5, 48, 0
6, 454880, Note_on_c, 5, 45, 75
6, 455008, Note_off_c, 5, 45, 0
6, 455040, Note_on_c, 5, 41, 76
6, 455168, Note_off_c, 5, 41, 0
6, 455200, Note_on_c, 5, 45, 77
6, 455328, Note_off_c, 5, 45, 0
6, 455360, Note_on_c, 5, 48, 78
6, 455488, Note_off_c, 5, 48, 0
6, 455520, Note_on_c, 5, 53, 78
6, 455648, Note_off_c, 5, 53, 0
6, 455680, Note_on_c, 5, 57, 79
6, 455808, Note_off_c, 5, 57, 0
6, 455840, Note_on_c, 5, 60, 80
6, 455968, Note_off_c, 5, 60, 0
6, 456000, Note_on_c, 5, 65, 81
6, 456128, Note_off_c, 5, 65, 0
6, 456160, Note_on_c, 5, 60, 82
6, 456288, Note_off_c, 5, 60, 0
6, 456320, Note_on_c, 5, 57, 83
6, 456448, Note_off_c, 5, 57, 0
6, 456480, Note_on_c, 5, 53, 84
6, 456608, Note_off_c, 5, 53, 0
6, 456640, Note_on_c, 5, 57, 85
6, 456768, Note_off_c, 5, 57, 0
6, 456800, Note_on_c, 5, 60, 86
6, 456928, Note_off_c, 5, 60, 0
6, 456960, Note_on_c, 5, 53, 87
6, 457088, Note_off_c, 5, 53, 0
6, 457120, Note_on_c, 5, 57, 88
6, 457248, Note_off_c, 5, 57, 0
6, 457280, Note_on_c, 5, 60, 89
6, 457408, Note_off_c, 5, 60, 0
6, 457440, Note_on_c, 5, 65, 90
6, 457568, Note_off_c, 5, 65, 0
6, 457600, Note_on_c, 5, 69, 90
6, 457728, Note_off_c, 5, 69, 0
6, 457760, Note_on_c, 5, 72, 91
6, 457888, Note_off_c, 5, 72, 0
6, 457920, Note_on_c, 5, 77, 92
6, 458048, Note_off_c, 5, 77, 0
6, 458080, Note_on_c, 5, 72, 93
6, 458208, Note_off_c, 5, 72, 0
6, 458240, Note_on_c, 5, 69, 94
6, 458368, Note_off_c, 5, 69, 0
6, 458400, Note_on_c, 5, 65, 95
6, 458528, Note_off_c, 5, 65, 0
6, 458560, Note_on_c, 5, 69, 96
6, 458688, Note_off_c, 5, 69, 0
6, 458720, Note_on_c, 5, 72, 97
6, 458848, Note_off_c, 5, 72, 0
6, 458880, Note_on_c, 5, 77, 98
6, 459240, Note_off_c, 5, 77, 0
6, 459360, Note_on_c, 5, 41, 95
6, 459360, Note_on_c, 5, 53, 95
6, 459720, Note_off_c, 5, 53, 0
6, 459720, Note_off_c, 5, 41, 0
6, 462240, Control_c, 5, 64, 0
6, 462240, Note_on_c, 5, 58, 40
6, 462720, Note_off_c, 5, 58, 0
6, 462720, Note_on_c, 5, 60, 43
6, 463200, Note_off_c, 5, 60, 0
6, 463200, Note_on_c, 5, 62, 47
6, 463620, Note_off_c, 5, 62, 0
6, 463680, Note_on_c, 5, 55, 60
6, 465060, Note_off_c, 5, 55, 0
6, 465120, Note_on_c, 5, 53, 55
6, 466320, Note_off_c, 5, 53, 0
6, 466320, Note_on_c, 5, 55, 46
6, 466530, Note_off_c, 5, 55, 0
6, 466560, Note_on_c, 5, 57, 47
6, 467040, Note_off_c, 5, 57, 0
6, 468000, Note_on_c, 5, 48, 46
6, 468000, Note_on_c, 5, 36, 46
6, 469380, Note_off_c, 5, 36, 0
6, 469385, Note_off_c, 5, 48, 0
6, 469440, Note_on_c, 5, 60, 47
6, 469920, Note_off_c, 5, 60, 0
6, 469920, Note_on_c, 5, 62, 49
6, 470345, Note_off_c, 5, 62, 0
6, 470880, Note_on_c, 5, 39, 51
6, 470880, Note_on_c, 5, 51, 51
6, 472260, Note_off_c, 5, 51, 0
6, 472260, Note_off_c, 5, 39, 0
6, 472320, Note_on_c, 5, 53, 56
6, 472800, Note_off_c, 5, 53, 0
6, 473280, Note_on_c, 5, 45, 69
6, 473705, Note_off_c, 5, 45, 0
6, 473760, Note_on_c, 5, 43, 76
6, 474720, Note_off_c, 5, 43, 0
6, 474720, Note_on_c, 5, 55, 58
6, 475140, Note_off_c, 5, 55, 0
6, 475200, Note_on_c, 5, 53, 56
6, 476090, Note_off_c, 5, 53, 0
6, 476640, Note_on_c, 5, 58, 42
6, 477120, Note_off_c, 5, 58, 0
6, 477120, Note_on_c, 5, 60, 46
6, 477600, Note_off_c, 5, 60, 0
6, 477600, Note_on_c, 5, 62, 51
6, 478020, Note_off_c, 5, 62, 0
6, 478080, Note_on_c, 5, 55, 62
6, 479460, Note_off_c, 5, 55, 0
6, 479520, Note_on_c, 5, 53, 58
6, 480720, Note_off_c, 5, 53, 0
6, 480720, Note_on_c, 5, 55, 47
6, 480930, Note_off_c, 5, 55, 0
6, 480960, Note_on_c, 5, 57, 46
6, 481440, Note_off_c, 5, 57, 0
6, 482400, Note_on_c, 5, 48, 69
6, 482400, Note_on_c, 5, 36, 69
6, 483780, Note_off_c, 5, 36, 0
6, 483785, Note_off_c, 5, 48, 0
6, 483840, Note_on_c, 5, 60, 51
6, 484320, Note_off_c, 5, 60, 0
6, 484320, Note_on_c, 5, 62, 56
6, 484740, Note_off_c, 5, 62, 0
6, 485280, Note_on_c, 5, 51, 72
6, 485280, Note_on_c, 5, 39, 72
6, 486660, Note_off_c, 5, 39, 0
6, 486660, Note_off_c, 5, 51, 0
6, 486720, Note_on_c, 5, 53, 61
6, 487200, Note_off_c, 5, 53, 0
6, 487200, Note_on_c, 5, 58, 66
6, 487625, Note_off_c, 5, 58, 0
6, 487680, Note_on_c, 5, 45, 72
6, 488090, Note_off_c, 5, 45, 0
6, 488160, Note_on_c, 5, 55, 82
6, 489540, Note_off_c, 5, 55, 0
6, 489600, Note_on_c, 5, 57, 87
6, 490980, Note_off_c, 5, 57, 0
6, 491040, Note_on_c, 5, 58, 93
6, 492425, Note_off_c, 5, 58, 0
6, 492480, Note_on_c, 5, 60, 71
6, 493385, Note_off_c, 5, 60, 0
6, 493920, Note_on_c, 5, 53, 44
6, 494400, Note_off_c, 5, 53, 0
6, 494400, Note_on_c, 5, 52, 49
6, 494880, Note_off_c, 5, 52, 0
6, 494880, Note_on_c, 5, 53, 54
6, 495300, Note_off_c, 5, 53, 0
6, 495360, Note_on_c, 5, 48, 67
6, 496740, Note_off_c, 5, 48, 0
6, 496800, Note_on_c, 5, 55, 47
6, 497280, Note_off_c, 5, 55, 0
6, 497280, Note_on_c, 5, 54, 51
6, 497760, Note_off_c, 5, 54, 0
6, 497760, Note_on_c, 5, 55, 56
6, 498170, Note_off_c, 5, 55, 0
6, 498240, Note_on_c, 5, 48, 71
6, 499625, Note_off_c, 5, 48, 0
6, 499680, Note_on_c, 5, 57, 53
6, 500160, Note_off_c, 5, 57, 0
6, 500160, Note_on_c, 5, 56, 58
6, 500640, Note_off_c, 5, 56, 0
6, 500640, Note_on_c, 5, 57, 64
6, 501060, Note_off_c, 5, 57, 0
6, 501120, Control_c, 5, 64, 127
6, 501120, Note_on_c, 5, 48, 76
6, 502490, Note_off_c, 5, 48, 0
6, 502500, Control_c, 5, 64, 0
6, 502560, Control_c, 5, 64, 127
6, 502560, Note_on_c, 5, 46, 77
6, 503930, Note_off_c, 5, 46, 0
6, 503940, Control_c, 5, 64, 0
6, 504000, Control_c, 5, 64, 127
6, 504000, Note_on_c, 5, 44, 81
6, 505380, Control_c, 5, 64, 0
6, 505380, Note_off_c, 5, 44, 0
6, 505440, Control_c, 5, 64, 127
6, 505440, Control_c, 5, 64, 127
6, 505440, Note_on_c, 5, 45, 59
6, 505560, Note_off_c, 5, 45, 0
6, 506340, Control_c, 5, 64, 0
6, 506340, Control_c, 5, 64, 0
6, 506400, Control_c, 5, 64, 127
6, 506400, Control_c, 5, 64, 127
6, 506400, Note_on_c, 5, 46, 54
6, 506640, Note_off_c, 5, 46, 0
6, 506820, Control_c, 5, 64, 0
6, 506820, Control_c, 5, 64, 0
6, 506880, Control_c, 5, 64, 127
6, 506880, Control_c, 5, 64, 127
6, 506880, Note_on_c, 5, 36, 52
6, 507000, Note_off_c, 5, 36, 0
6, 507780, Control_c, 5, 64, 0
6, 507780, Control_c, 5, 64, 0
6, 507840, Control_c, 5, 64, 127
6, 507840, Control_c, 5, 64, 127
6, 507840, Note_on_c, 5, 36, 45
6, 508070, Note_off_c, 5, 36, 0
6, 508260, Control_c, 5, 64, 0
6, 508260, Control_c, 5, 64, 0
6, 508320, Note_on_c, 5, 53, 59
6, 509730, Note_off_c, 5, 53, 0
6, 509760, Note_on_c, 5, 53, 54
6, 511170, Note_off_c, 5, 53, 0
6, 511200, Note_on_c, 5, 53, 61
6, 512603, Note_off_c, 5, 53, 0
6, 512640, Note_on_c, 5, 53, 46
6, 514050, Note_off_c, 5, 53, 0
6, 514080, Note_on_c, 5, 53, 54
6, 514753, Note_off_c, 5, 53, 0
6, 515520, Note_on_c, 5, 53, 54
6, 516193, Note_off_c, 5, 53, 0
6, 516960, Note_on_c, 5, 55, 57
6, 518355, Note_off_c, 5, 55, 0
6, 518400, Note_on_c, 5, 56, 61
6, 519308, Note_off_c, 5, 56, 0
6, 519360, Note_on_c, 5, 58, 53
6, 519818, Note_off_c, 5, 58, 0
6, 519840, Note_on_c, 5, 48, 47
6, 521235, Note_off_c, 5, 48, 0
6, 521280, Note_on_c, 5, 53, 63
6, 522240, Note_off_c, 5, 53, 0
6, 522240, Note_on_c, 5, 46, 55
6, 522675, Note_off_c, 5, 46, 0
6, 522720, Note_on_c, 5, 48, 37
6, 523680, Note_off_c, 5, 48, 0
6, 523680, Note_on_c, 5, 48, 46
6, 524123, Note_off_c, 5, 48, 0
6, 524160, Note_on_c, 5, 53, 55
6, 524640, Note_off_c, 5, 53, 0
6, 524640, Note_on_c, 5, 49, 51
6, 525120, Note_off_c, 5, 49, 0
6, 525120, Note_on_c, 5, 50, 48
6, 525360, Note_off_c, 5, 50, 0
6, 525360, Note_on_c, 5, 47, 46
6, 525553, Note_off_c, 5, 47, 0
6, 525600, Note_on_c, 5, 48, 34
6, 526560, Note_off_c, 5, 48, 0
6, 526560, Note_on_c, 5, 48, 40
6, 526995, Note_off_c, 5, 48, 0
6, 527040, Note_on_c, 5, 53, 33
6, 527940, Note_off_c, 5, 53, 0
6, 528480, Note_on_c, 5, 53, 70
6, 528480, Note_on_c, 5, 41, 70
6, 528960, Note_off_c, 5, 41, 0
6, 528960, Note_off_c, 5, 53, 0
6, 528960, Note_on_c, 5, 40, 73
6, 528960, Note_on_c, 5, 52, 73
6, 529440, Note_off_c, 5, 52, 0
6, 529440, Note_off_c, 5, 40, 0
6, 529440, Note_on_c, 5, 41, 76
6, 529440, Note_on_c, 5, 53, 76
6, 529860, Note_off_c, 5, 53, 0
6, 529860, Note_off_c, 5, 41, 0
6, 529920, Note_on_c, 5, 37, 86
6, 529920, Note_on_c, 5, 49, 86
6, 531360, Note_off_c, 5, 49, 0
6, 531360, Note_off_c, 5, 37, 0
6, 531360, Note_on_c, 5, 50, 66
6, 531360, Note_on_c, 5, 38, 66
6, 531840, Note_off_c, 5, 38, 0
6, 531840, Note_off_c, 5, 50, 0
6, 531840, Note_on_c, 5, 37, 69
6, 531840, Note_on_c, 5, 49, 69
6, 532320, Note_off_c, 5, 49, 0
6, 532320, Note_off_c, 5, 37, 0
6, 532320, Note_on_c, 5, 38, 72
6, 532320, Note_on_c, 5, 50, 72
6, 532733, Note_off_c, 5, 50, 0
6, 532740, Note_off_c, 5, 38, 0
6, 532800, Note_on_c, 5, 45, 82
6, 532800, Note_on_c, 5, 33, 82
6, 534240, Note_off_c, 5, 33, 0
6, 534240, Note_off_c, 5, 45, 0
6, 534240, Note_on_c, 5, 46, 63
6, 534240, Note_on_c, 5, 34, 63
6, 534720, Note_off_c, 5, 34, 0
6, 534720, Note_off_c, 5, 46, 0
6, 535200, Note_on_c, 5, 53, 77
6, 535760, Note_off_c, 5, 53, 0
6, 535760, Note_on_c, 5, 52, 69
6, 535840, Note_off_c, 5, 52, 0
6, 535840, Note_on_c, 5, 55, 69
6, 535920, Note_off_c, 5, 55, 0
6, 535920, Note_on_c, 5, 53, 68
6, 536000, Note_off_c, 5, 53, 0
6, 536000, Note_on_c, 5, 51, 68
6, 536080, Note_off_c, 5, 51, 0
6, 536080, Note_on_c, 5, 50, 67
6, 536160, Note_off_c, 5, 50, 0
6, 536160, Note_on_c, 5, 48, 66
6, 536240, Note_off_c, 5, 48, 0
6, 536240, Note_on_c, 5, 47, 66
6, 536320, Note_off_c, 5, 47, 0
6, 536320, Note_on_c, 5, 50, 65
6, 536400, Note_off_c, 5, 50, 0
6, 536400, Note_on_c, 5, 48, 65
6, 536480, Note_off_c, 5, 48, 0
6, 536480, Note_on_c, 5, 46, 64
6, 536560, Note_off_c, 5, 46, 0
6, 536560, Note_on_c, 5, 45, 64
6, 536640, Note_off_c, 5, 45, 0
6, 536640, Note_on_c, 5, 43, 63
6, 536720, Note_off_c, 5, 43, 0
6, 536720, Note_on_c, 5, 42, 62
6, 536800, Note_off_c, 5, 42, 0
6, 536800, Note_on_c, 5, 45, 62
6, 536880, Note_off_c, 5, 45, 0
6, 536880, Note_on_c, 5, 43, 61
6, 536960, Note_off_c, 5, 43, 0
6, 536960, Note_on_c, 5, 41, 61
6, 537040, Note_off_c, 5, 41, 0
6, 537040, Note_on_c, 5, 39, 60
6, 537120, Note_off_c, 5, 39, 0
6, 537120, Note_on_c, 5, 38, 60
6, 537600, Note_off_c, 5, 38, 0
6, 538080, Note_on_c, 5, 62, 76
6, 538640, Note_off_c, 5, 62, 0
6, 538640, Note_on_c, 5, 61, 71
6, 538720, Note_off_c, 5, 61, 0
6, 538720, Note_on_c, 5, 64, 71
6, 538800, Note_off_c, 5, 64, 0
6, 538800, Note_on_c, 5, 62, 71
6, 538880, Note_off_c, 5, 62, 0
6, 538880, Note_on_c, 5, 60, 71
6, 538960, Note_off_c, 5, 60, 0
6, 538960, Note_on_c, 5, 58, 70
6, 539040, Note_off_c, 5, 58, 0
6, 539040, Note_on_c, 5, 57, 70
6, 539120, Note_off_c, 5, 57, 0
6, 539120, Note_on_c, 5, 56, 70
6, 539200, Note_off_c, 5, 56, 0
6, 539200, Note_on_c, 5, 58, 69
6, 539280, Note_off_c, 5, 58, 0
6, 539280, Note_on_c, 5, 57, 69
6, 539360, Note_off_c, 5, 57, 0
6, 539360, Note_on_c, 5, 55, 69
6, 539440, Note_off_c, 5, 55, 0
6, 539440, Note_on_c, 5, 54, 69
6, 539520, Note_off_c, 5, 54, 0
6, 539520, Note_on_c, 5, 51, 68
6, 539600, Note_off_c, 5, 51, 0
6, 539600, Note_on_c, 5, 50, 68
6, 539680, Note_off_c, 5, 50, 0
6, 539680, Note_on_c, 5, 53, 68
6, 539760, Note_off_c, 5, 53, 0
6, 539760, Note_on_c, 5, 51, 68
6, 539840, Note_off_c, 5, 51, 0
6, 539840, Note_on_c, 5, 50, 67
6, 539920, Note_off_c, 5, 50, 0
6, 539920, Note_on_c, 5, 48, 67
6, 540000, Note_off_c, 5, 48, 0
6, 540000, Note_on_c, 5, 46, 67
6, 540908, Note_off_c, 5, 46, 0
6, 540960, Note_on_c, 5, 47, 64
6, 541380, Note_off_c, 5, 47, 0
6, 541440, Note_on_c, 5, 48, 62
6, 541860, Note_off_c, 5, 48, 0
6, 541920, Note_on_c, 5, 49, 60
6, 542820, Note_off_c, 5, 49, 0
6, 542880, Note_on_c, 5, 62, 61
6, 542960, Note_off_c, 5, 62, 0
6, 542960, Note_on_c, 5, 61, 61
6, 543040, Note_off_c, 5, 61, 0
6, 543040, Note_on_c, 5, 64, 61
6, 543120, Note_off_c, 5, 64, 0
6, 543120, Note_on_c, 5, 62, 60
6, 543200, Note_off_c, 5, 62, 0
6, 543200, Note_on_c, 5, 60, 60
6, 543280, Note_off_c, 5, 60, 0
6, 543280, Note_on_c, 5, 58, 60
6, 543360, Note_off_c, 5, 58, 0
6, 543360, Note_on_c, 5, 57, 59
6, 543440, Note_off_c, 5, 57, 0
6, 543440, Note_on_c, 5, 56, 59
6, 543520, Note_off_c, 5, 56, 0
6, 543520, Note_on_c, 5, 58, 59
6, 543600, Note_off_c, 5, 58, 0
6, 543600, Note_on_c, 5, 57, 58
6, 543680, Note_off_c, 5, 57, 0
6, 543680, Note_on_c, 5, 55, 58
6, 543760, Note_off_c, 5, 55, 0
6, 543760, Note_on_c, 5, 53, 58
6, 543840, Note_off_c, 5, 53, 0
6, 543840, Note_on_c, 5, 51, 58
6, 543920, Note_off_c, 5, 51, 0
6, 543920, Note_on_c, 5, 50, 57
6, 544000, Note_off_c, 5, 50, 0
6, 544000, Note_on_c, 5, 53, 57
6, 544080, Note_off_c, 5, 53, 0
6, 544080, Note_on_c, 5, 51, 57
6, 544160, Note_off_c, 5, 51, 0
6, 544160, Note_on_c, 5, 50, 56
6, 544240, Note_off_c, 5, 50, 0
6, 544240, Note_on_c, 5, 48, 56
6, 544320, Note_off_c, 5, 48, 0
6, 544320, Note_on_c, 5, 46, 56
6, 544400, Note_off_c, 5, 46, 0
6, 544400, Note_on_c, 5, 45, 55
6, 544480, Note_off_c, 5, 45, 0
6, 544480, Note_on_c, 5, 48, 55
6, 544560, Note_off_c, 5, 48, 0
6, 544560, Note_on_c, 5, 46, 55
6, 544640, Note_off_c, 5, 46, 0
6, 544640, Note_on_c, 5, 45, 55
6, 544720, Note_off_c, 5, 45, 0
6, 544720, Note_on_c, 5, 43, 54
6, 544784, Note_off_c, 5, 43, 0
6, 544800, Note_on_c, 5, 41, 53
6, 544840, Note_off_c, 5, 41, 0
6, 544840, Note_on_c, 5, 43, 53
6, 544880, Note_off_c, 5, 43, 0
6, 544880, Note_on_c, 5, 41, 53
6, 544920, Note_off_c, 5, 41, 0
6, 544920, Note_on_c, 5, 43, 52
6, 544960, Note_off_c, 5, 43, 0
6, 544960, Note_on_c, 5, 41, 52
6, 545000, Note_off_c, 5, 41, 0
6, 545000, Note_on_c, 5, 43, 52
6, 545040, Note_off_c, 5, 43, 0
6, 545040, Note_on_c, 5, 41, 52
6, 545080, Note_off_c, 5, 41, 0
6, 545080, Note_on_c, 5, 43, 51
6, 545120, Note_off_c, 5, 43, 0
6, 545120, Note_on_c, 5, 41, 51
6, 545160, Note_off_c, 5, 41, 0
6, 545160, Note_on_c, 5, 43, 51
6, 545220, Note_off_c, 5, 43, 0
6, 545220, Note_on_c, 5, 41, 50
6, 545280, Note_off_c, 5, 41, 0
6, 545280, Note_on_c, 5, 40, 50
6, 545436, Note_off_c, 5, 40, 0
6, 545520, Note_on_c, 5, 38, 48
6, 545676, Note_off_c, 5, 38, 0
6, 545760, Note_on_c, 5, 37, 46
6, 546173, Note_off_c, 5, 37, 0
6, 546720, Note_on_c, 5, 53, 56
6, 546720, Note_on_c, 5, 41, 56
6, 547393, Note_off_c, 5, 41, 0
6, 547393, Note_off_c, 5, 53, 0
6, 547440, Note_on_c, 5, 50, 38
6, 547440, Note_on_c, 5, 38, 38
6, 547680, Note_off_c, 5, 38, 0
6, 547680, Note_off_c, 5, 50, 0
6, 547680, Note_on_c, 5, 52, 42
6, 547680, Note_on_c, 5, 40, 42
6, 547920, Note_off_c, 5, 40, 0
6, 547920, Note_off_c, 5, 52, 0
6, 547920, Note_on_c, 5, 53, 46
6, 547920, Note_on_c, 5, 41, 46
6, 548113, Note_off_c, 5, 41, 0
6, 548113, Note_off_c, 5, 53, 0
6, 548160, Note_on_c, 5, 55, 62
6, 548160, Note_on_c, 5, 43, 62
6, 548833, Note_off_c, 5, 43, 0
6, 548833, Note_off_c, 5, 55, 0
6, 548880, Note_on_c, 5, 52, 42
6, 548880, Note_on_c, 5, 40, 42
6, 549120, Note_off_c, 5, 40, 0
6, 549120, Note_off_c, 5, 52, 0
6, 549120, Note_on_c, 5, 54, 47
6, 549120, Note_on_c, 5, 42, 47
6, 549360, Note_off_c, 5, 42, 0
6, 549360, Note_off_c, 5, 54, 0
6, 549360, Note_on_c, 5, 43, 51
6, 549360, Note_on_c, 5, 55, 51
6, 549553, Note_off_c, 5, 55, 0
6, 549553, Note_off_c, 5, 43, 0
6, 549600, Note_on_c, 5, 45, 66
6, 549600, Note_on_c, 5, 57, 66
6, 550273, Note_off_c, 5, 57, 0
6, 550273, Note_off_c, 5, 45, 0
6, 550320, Note_on_c, 5, 54, 48
6, 550320, Note_on_c, 5, 42, 48
6, 550560, Note_off_c, 5, 42, 0
6, 550560, Note_off_c, 5, 54, 0
6, 550560, Note_on_c, 5, 55, 51
6, 550560, Note_on_c, 5, 43, 51
6, 550800, Note_off_c, 5, 43, 0
6, 550800, Note_off_c, 5, 55, 0
6, 550800, Note_on_c, 5, 45, 54
6, 550800, Note_on_c, 5, 57, 54
6, 551040, Note_off_c, 5, 57, 0
6, 551040, Note_off_c, 5, 45, 0
6, 551040, Note_on_c, 5, 58, 70
6, 551040, Note_on_c, 5, 46, 70
6, 551233, Note_off_c, 5, 46, 0
6, 551233, Note_off_c, 5, 58, 0
6, 551280, Note_on_c, 5, 52, 61
6, 551520, Note_off_c, 5, 52, 0
6, 551520, Note_on_c, 5, 53, 75
6, 552668, Note_off_c, 5, 53, 0
6, 552720, Note_on_c, 5, 54, 71
6, 552960, Note_off_c, 5, 54, 0
6, 552960, Note_on_c, 5, 55, 80
6, 553860, Note_off_c, 5, 55, 0
6, 553920, Note_on_c, 5, 50, 80
6, 554580, Note_off_c, 5, 50, 0
6, 554640, Note_on_c, 5, 50, 63
6, 554880, Note_off_c, 5, 50, 0
6, 554880, Note_on_c, 5, 48, 66
6, 555120, Note_off_c, 5, 48, 0
6, 555120, Note_on_c, 5, 50, 70
6, 555313, Note_off_c, 5, 50, 0
6, 555360, Note_on_c, 5, 51, 84
6, 556035, Note_off_c, 5, 51, 0
6, 556080, Note_on_c, 5, 49, 67
6, 556320, Note_off_c, 5, 49, 0
6, 556320, Note_on_c, 5, 50, 70
6, 556560, Note_off_c, 5, 50, 0
6, 556560, Note_on_c, 5, 52, 74
6, 556753, Note_off_c, 5, 52, 0
6, 556800, Note_on_c, 5, 53, 86
6, 557475, Note_off_c, 5, 53, 0
6, 557520, Note_on_c, 5, 51, 71
6, 557760, Note_off_c, 5, 51, 0
6, 557760, Note_on_c, 5, 52, 74
6, 558000, Note_off_c, 5, 52, 0
6, 558000, Note_on_c, 5, 54, 78
6, 558240, Note_off_c, 5, 54, 0
6, 558240, Note_on_c, 5, 55, 93
6, 558433, Note_off_c, 5, 55, 0
6, 558480, Note_on_c, 5, 48, 83
6, 558720, Note_off_c, 5, 48, 0
6, 558720, Note_on_c, 5, 57, 92
6, 559860, Note_off_c, 5, 57, 0
6, 559920, Note_on_c, 5, 50, 86
6, 560160, Note_off_c, 5, 50, 0
6, 560160, Note_on_c, 5, 58, 97
6, 561300, Note_off_c, 5, 58, 0
6, 561360, Note_on_c, 5, 51, 94
6, 561600, Note_off_c, 5, 51, 0
6, 561600, Note_on_c, 5, 60, 104
6, 562320, Note_off_c, 5, 60, 0
6, 562320, Note_on_c, 5, 58, 90
6, 562560, Note_off_c, 5, 58, 0
6, 562560, Note_on_c, 5, 57, 95
6, 562800, Note_off_c, 5, 57, 0
6, 562800, Note_on_c, 5, 54, 99
6, 562993, Note_off_c, 5, 54, 0
6, 563040, Control_c, 5, 64, 127
6, 563040, Control_c, 5, 64, 127
6, 563040, Note_on_c, 5, 53, 108
6, 564000, Note_off_c, 5, 53, 0
6, 564720, Control_c, 5, 64, 0
6, 564720, Control_c, 5, 64, 0
6, 565920, Control_c, 5, 64, 0
6, 565920, Note_on_c, 5, 58, 40
6, 566400, Note_off_c, 5, 58, 0
6, 566400, Note_on_c, 5, 60, 44
6, 566880, Note_off_c, 5, 60, 0
6, 566880, Note_on_c, 5, 62, 48
6, 567300, Note_off_c, 5, 62, 0
6, 567360, Note_on_c, 5, 55, 60
6, 568740, Note_off_c, 5, 55, 0
6, 568800, Note_on_c, 5, 53, 51
6, 570000, Note_off_c, 5, 53, 0
6, 570000, Note_on_c, 5, 55, 46
6, 570210, Note_off_c, 5, 55, 0
6, 570240, Note_on_c, 5, 57, 47
6, 570720, Note_off_c, 5, 57, 0
6, 571680, Note_on_c, 5, 48, 46
6, 571680, Note_on_c, 5, 36, 46
6, 573060, Note_off_c, 5, 36, 0
6, 573065, Note_off_c, 5, 48, 0
6, 573120, Note_on_c, 5, 60, 47
6, 573600, Note_off_c, 5, 60, 0
6, 573600, Note_on_c, 5, 62, 50
6, 574025, Note_off_c, 5, 62, 0
6, 574560, Note_on_c, 5, 51, 59
6, 574560, Note_on_c, 5, 39, 59
6, 575940, Note_off_c, 5, 39, 0
6, 575940, Note_off_c, 5, 51, 0
6, 576000, Note_on_c, 5, 53, 59
6, 576480, Note_off_c, 5, 53, 0
6, 576480, Note_on_c, 5, 58, 64
6, 576890, Note_off_c, 5, 58, 0
6, 576960, Note_on_c, 5, 45, 68
6, 577385, Note_off_c, 5, 45, 0
6, 577440, Note_on_c, 5, 43, 75
6, 578400, Note_off_c, 5, 43, 0
6, 578400, Note_on_c, 5, 55, 58
6, 578820, Note_off_c, 5, 55, 0
6, 578880, Note_on_c, 5, 53, 54
6, 579770, Note_off_c, 5, 53, 0
6, 580320, Note_on_c, 5, 58, 48
6, 580800, Note_off_c, 5, 58, 0
6, 580800, Note_on_c, 5, 57, 51
6, 581280, Note_off_c, 5, 57, 0
6, 581280, Note_on_c, 5, 58, 54
6, 581705, Note_off_c, 5, 58, 0
6, 581760, Note_on_c, 5, 52, 64
6, 582720, Note_off_c, 5, 52, 0
6, 582720, Note_on_c, 5, 60, 56
6, 583140, Note_off_c, 5, 60, 0
6, 583200, Note_on_c, 5, 59, 61
6, 583240, Note_off_c, 5, 59, 0
6, 583240, Note_on_c, 5, 60, 63
6, 583280, Note_off_c, 5, 60, 0
6, 583280, Note_on_c, 5, 62, 64
6, 583320, Note_off_c, 5, 62, 0
6, 583320, Note_on_c, 5, 60, 66
6, 583920, Note_off_c, 5, 60, 0
6, 583920, Note_on_c, 5, 58, 57
6, 584040, Note_off_c, 5, 58, 0
6, 584040, Note_on_c, 5, 57, 56
6, 584160, Note_off_c, 5, 57, 0
6, 584160, Note_on_c, 5, 55, 55
6, 584280, Note_off_c, 5, 55, 0
6, 584280, Note_on_c, 5, 53, 53
6, 584400, Note_off_c, 5, 53, 0
6, 584400, Note_on_c, 5, 51, 52
6, 584520, Note_off_c, 5, 51, 0
6, 584520, Note_on_c, 5, 55, 50
6, 584615, Note_off_c, 5, 55, 0
6, 584640, Note_on_c, 5, 53, 52
6, 584880, Note_off_c, 5, 53, 0
6, 584880, Note_on_c, 5, 51, 45
6, 584920, Note_off_c, 5, 51, 0
6, 584920, Note_on_c, 5, 53, 44
6, 584960, Note_off_c, 5, 53, 0
6, 584960, Note_on_c, 5, 51, 43
6, 585000, Note_off_c, 5, 51, 0
6, 585000, Note_on_c, 5, 53, 42
6, 585030, Note_off_c, 5, 53, 0
6, 585030, Note_on_c, 5, 51, 41
6, 585060, Note_off_c, 5, 51, 0
6, 585060, Note_on_c, 5, 50, 41
6, 585090, Note_off_c, 5, 50, 0
6, 585090, Note_on_c, 5, 51, 40
6, 585120, Note_off_c, 5, 51, 0
6, 585120, Note_on_c, 5, 50, 39
6, 585540, Note_off_c, 5, 50, 0
6, 586080, Note_on_c, 5, 48, 78
6, 587460, Note_off_c, 5, 48, 0
6, 587520, Note_on_c, 5, 50, 84
6, 588900, Note_off_c, 5, 50, 0
6, 588960, Note_on_c, 5, 51, 89
6, 590345, Note_off_c, 5, 51, 0
6, 590400, Note_on_c, 5, 53, 72
6, 591305, Note_off_c, 5, 53, 0
6, 593400, Note_on_c, 5, 64, 66
6, 593520, Note_off_c, 5, 64, 0
6, 593520, Note_on_c, 5, 65, 65
6, 593640, Note_off_c, 5, 65, 0
6, 593640, Note_on_c, 5, 61, 63
6, 593760, Note_off_c, 5, 61, 0
6, 593760, Note_on_c, 5, 62, 62
6, 593880, Note_off_c, 5, 62, 0
6, 593880, Note_on_c, 5, 57, 60
6, 594000, Note_off_c, 5, 57, 0
6, 594000, Note_on_c, 5, 58, 58
6, 594120, Note_off_c, 5, 58, 0
6, 594120, Note_on_c, 5, 52, 57
6, 594240, Note_off_c, 5, 52, 0
6, 594240, Note_on_c, 5, 53, 55
6, 594360, Note_off_c, 5, 53, 0
6, 594360, Note_on_c, 5, 49, 54
6, 594480, Note_off_c, 5, 49, 0
6, 594480, Note_on_c, 5, 50, 52
6, 594600, Note_off_c, 5, 50, 0
6, 594600, Note_on_c, 5, 46, 50
6, 594960, Note_off_c, 5, 46, 0
6, 594960, Note_on_c, 5, 45, 52
6, 595440, Note_off_c, 5, 45, 0
6, 595440, Note_on_c, 5, 44, 56
6, 595920, Note_off_c, 5, 44, 0
6, 595920, Note_on_c, 5, 45, 60
6, 596113, Note_off_c, 5, 45, 0
6, 596280, Note_on_c, 5, 71, 74
6, 596400, Note_off_c, 5, 71, 0
6, 596400, Note_on_c, 5, 72, 73
6, 596520, Note_off_c, 5, 72, 0
6, 596520, Note_on_c, 5, 68, 71
6, 596640, Note_off_c, 5, 68, 0
6, 596640, Note_on_c, 5, 69, 70
6, 596760, Note_off_c, 5, 69, 0
6, 596760, Note_on_c, 5, 62, 68
6, 596880, Note_off_c, 5, 62, 0
6, 596880, Note_on_c, 5, 63, 67
6, 597000, Note_off_c, 5, 63, 0
6, 597000, Note_on_c, 5, 59, 65
6, 597120, Note_off_c, 5, 59, 0
6, 597120, Note_on_c, 5, 60, 64
6, 597240, Note_off_c, 5, 60, 0
6, 597240, Note_on_c, 5, 56, 62
6, 597360, Note_off_c, 5, 56, 0
6, 597360, Note_on_c, 5, 57, 61
6, 597480, Note_off_c, 5, 57, 0
6, 597480, Note_on_c, 5, 51, 59
6, 597576, Note_off_c, 5, 51, 0
6, 597600, Note_on_c, 5, 50, 58
6, 598080, Note_off_c, 5, 50, 0
6, 598080, Note_on_c, 5, 49, 63
6, 598560, Note_off_c, 5, 49, 0
6, 598560, Note_on_c, 5, 50, 68
6, 598988, Note_off_c, 5, 50, 0
6, 599040, Control_c, 5, 64, 127
6, 599040, Note_on_c, 5, 41, 83
6, 600410, Note_off_c, 5, 41, 0
6, 600420, Control_c, 5, 64, 0
6, 600480, Control_c, 5, 64, 127
6, 600480, Note_on_c, 5, 39, 87
6, 601850, Note_off_c, 5, 39, 0
6, 601860, Control_c, 5, 64, 0
6, 601920, Control_c, 5, 64, 127
6, 601920, Note_on_c, 5, 37, 91
6, 603300, Control_c, 5, 64, 0
6, 603300, Note_off_c, 5, 37, 0
6, 603360, Control_c, 5, 64, 127
6, 603360, Control_c, 5, 64, 127
6, 603360, Note_on_c, 5, 38, 61
6, 603480, Note_off_c, 5, 38, 0
6, 604260, Control_c, 5, 64, 0
6, 604260, Control_c, 5, 64, 0
6, 604320, Control_c, 5, 64, 127
6, 604320, Control_c, 5, 64, 127
6, 604320, Note_on_c, 5, 39, 57
6, 604560, Note_off_c, 5, 39, 0
6, 604740, Control_c, 5, 64, 0
6, 604740, Control_c, 5, 64, 0
6, 604800, Control_c, 5, 64, 127
6, 604800, Control_c, 5, 64, 127
6, 605700, Control_c, 5, 64, 0
6, 605700, Control_c, 5, 64, 0
6, 605760, Control_c, 5, 64, 127
6, 605760, Control_c, 5, 64, 127
6, 605760, Note_on_c, 5, 29, 46
6, 605990, Note_off_c, 5, 29, 0
6, 606180, Control_c, 5, 64, 0
6, 606180, Control_c, 5, 64, 0
6, 606240, Note_on_c, 5, 58, 61
6, 607650, Note_off_c, 5, 58, 0
6, 607680, Note_on_c, 5, 58, 54
6, 609090, Note_off_c, 5, 58, 0
6, 609120, Note_on_c, 5, 58, 56
6, 610523, Note_off_c, 5, 58, 0
6, 610560, Note_on_c, 5, 58, 44
6, 611970, Note_off_c, 5, 58, 0
6, 612000, Note_on_c, 5, 58, 54
6, 612673, Note_off_c, 5, 58, 0
6, 613440, Note_on_c, 5, 58, 58
6, 614113, Note_off_c, 5, 58, 0
6, 614880, Note_on_c, 5, 60, 63
6, 616275, Note_off_c, 5, 60, 0
6, 616320, Note_on_c, 5, 61, 71
6, 617228, Note_off_c, 5, 61, 0
6, 617280, Note_on_c, 5, 63, 59
6, 617738, Note_off_c, 5, 63, 0
6, 617760, Note_on_c, 5, 53, 57
6, 619155, Note_off_c, 5, 53, 0
6, 619200, Note_on_c, 5, 58, 65
6, 620160, Note_off_c, 5, 58, 0
6, 620160, Note_on_c, 5, 51, 58
6, 620595, Note_off_c, 5, 51, 0
6, 620640, Note_on_c, 5, 53, 44
6, 621600, Note_off_c, 5, 53, 0
6, 621600, Note_on_c, 5, 53, 50
6, 622043, Note_off_c, 5, 53, 0
6, 622080, Note_on_c, 5, 58, 56
6, 622560, Note_off_c, 5, 58, 0
6, 622560, Note_on_c, 5, 54, 53
6, 623040, Note_off_c, 5, 54, 0
6, 623040, Note_on_c, 5, 55, 51
6, 623280, Note_off_c, 5, 55, 0
6, 623280, Note_on_c, 5, 52, 49
6, 623473, Note_off_c, 5, 52, 0
6, 623520, Note_on_c, 5, 53, 46
6, 624480, Note_off_c, 5, 53, 0
6, 624480, Note_on_c, 5, 53, 49
6, 624915, Note_off_c, 5, 53, 0
6, 624960, Note_on_c, 5, 58, 45
6, 625418, Note_off_c, 5, 58, 0
6, 626400, Note_on_c, 5, 45, 49
6, 627335, Note_off_c, 5, 45, 0
6, 627360, Note_on_c, 5, 57, 44
6, 627790, Note_off_c, 5, 57, 0
6, 627840, Note_on_c, 5, 58, 49
6, 628033, Note_off_c, 5, 58, 0
6, 628080, Note_on_c, 5, 51, 52
6, 628273, Note_off_c, 5, 51, 0
6, 628320, Note_on_c, 5, 53, 56
6, 628745, Note_off_c, 5, 53, 0
6, 628800, Note_on_c, 5, 54, 62
6, 629245, Note_off_c, 5, 54, 0
6, 629280, Note_on_c, 5, 55, 66
6, 629360, Note_off_c, 5, 55, 0
6, 629360, Note_on_c, 5, 54, 65
6, 629440, Note_off_c, 5, 54, 0
6, 629440, Note_on_c, 5, 57, 63
6, 629520, Note_off_c, 5, 57, 0
6, 629520, Note_on_c, 5, 55, 62
6, 629600, Note_off_c, 5, 55, 0
6, 629600, Note_on_c, 5, 53, 61
6, 629680, Note_off_c, 5, 53, 0
6, 629680, Note_on_c, 5, 51, 60
6, 629760, Note_off_c, 5, 51, 0
6, 629760, Note_on_c, 5, 50, 58
6, 629840, Note_off_c, 5, 50, 0
6, 629840, Note_on_c, 5, 48, 57
6, 629920, Note_off_c, 5, 48, 0
6, 629920, Note_on_c, 5, 51, 56
6, 630000, Note_off_c, 5, 51, 0
6, 630000, Note_on_c, 5, 50, 54
6, 630080, Note_off_c, 5, 50, 0
6, 630080, Note_on_c, 5, 48, 53
6, 630160, Note_off_c, 5, 48, 0
6, 630160, Note_on_c, 5, 46, 52
6, 630240, Note_off_c, 5, 46, 0
6, 630240, Note_on_c, 5, 44, 51
6, 630320, Note_off_c, 5, 44, 0
6, 630320, Note_on_c, 5, 43, 49
6, 630400, Note_off_c, 5, 43, 0
6, 630400, Note_on_c, 5, 46, 48
6, 630480, Note_off_c, 5, 46, 0
6, 630480, Note_on_c, 5, 44, 47
6, 630560, Note_off_c, 5, 44, 0
6, 630560, Note_on_c, 5, 43, 46
6, 630640, Note_off_c, 5, 43, 0
6, 630640, Note_on_c, 5, 41, 44
6, 630720, Note_off_c, 5, 41, 0
6, 630720, Note_on_c, 5, 39, 61
6, 631200, Note_off_c, 5, 39, 0
6, 631200, Note_on_c, 5, 38, 49
6, 631393, Note_off_c, 5, 38, 0
6, 631440, Note_on_c, 5, 38, 55
6, 631633, Note_off_c, 5, 38, 0
6, 631680, Note_on_c, 5, 38, 61
6, 631873, Note_off_c, 5, 38, 0
6, 631920, Note_on_c, 5, 38, 66
6, 632113, Note_off_c, 5, 38, 0
6, 632160, Note_on_c, 5, 39, 72
6, 632353, Note_off_c, 5, 39, 0
6, 632640, Note_on_c, 5, 53, 65
6, 633555, Note_off_c, 5, 53, 0
6, 633600, Note_on_c, 5, 58, 55
6, 633793, Note_off_c, 5, 58, 0
6, 634160, Note_on_c, 5, 46, 70
6, 634213, Note_off_c, 5, 46, 0
6, 634240, Note_on_c, 5, 50, 69
6, 634293, Note_off_c, 5, 50, 0
6, 634320, Note_on_c, 5, 53, 68
6, 634373, Note_off_c, 5, 53, 0
6, 634400, Note_on_c, 5, 58, 67
6, 634453, Note_off_c, 5, 58, 0
6, 634480, Note_on_c, 5, 62, 66
6, 634533, Note_off_c, 5, 62, 0
6, 634560, Note_on_c, 5, 65, 65
6, 634613, Note_off_c, 5, 65, 0
6, 635600, Note_on_c, 5, 34, 50
6, 635653, Note_off_c, 5, 34, 0
6, 635680, Note_on_c, 5, 38, 48
6, 635733, Note_off_c, 5, 38, 0
6, 635760, Note_on_c, 5, 41, 47
6, 635813, Note_off_c, 5, 41, 0
6, 635840, Note_on_c, 5, 46, 46
6, 635893, Note_off_c, 5, 46, 0
6, 635920, Note_on_c, 5, 50, 45
6, 635973, Note_off_c, 5, 50, 0
6, 636000, Note_on_c, 5, 53, 44
6, 636193, Note_off_c, 5, 53, 0
6, 636480, Note_on_c, 5, 46, 37
6, 636480, Note_on_c, 5, 34, 37
6, 637200, Note_off_c, 5, 34, 0
6, 637200, Note_off_c, 5, 46, 0
6, 648000, Note_on_c, 5, 58, 48
6, 648480, Note_off_c, 5, 58, 0
6, 648480, Note_on_c, 5, 62, 51
6, 648960, Note_off_c, 5, 62, 0
6, 648960, Note_on_c, 5, 59, 54
6, 649440, Note_off_c, 5, 59, 0
6, 649440, Note_on_c, 5, 60, 57
6, 650842, Note_off_c, 5, 60, 0
6, 659040, Note_on_c, 5, 58, 51
6, 660000, Note_off_c, 5, 58, 0
6, 660000, Note_on_c, 5, 60, 58
6, 660712, Note_off_c, 5, 60, 0
6, 660960, Note_on_c, 5, 65, 65
6, 661440, Note_off_c, 5, 65, 0
6, 661440, Note_on_c, 5, 60, 55
6, 661920, Note_off_c, 5, 60, 0
6, 661920, Note_on_c, 5, 53, 43
6, 662340, Note_off_c, 5, 53, 0
6, 672480, Note_on_c, 5, 55, 69
6, 673866, Note_off_c, 5, 55, 0
6, 676320, Note_on_c, 5, 53, 58
6, 677280, Note_off_c, 5, 53, 0
6, 677280, Note_on_c, 5, 52, 67
6, 678186, Note_off_c, 5, 52, 0
6, 680160, Note_on_c, 5, 53, 66
6, 681120, Note_off_c, 5, 53, 0
6, 681120, Note_on_c, 5, 52, 72
6, 682020, Note_off_c, 5, 52, 0
6, 682560, Note_on_c, 5, 69, 75
6, 682980, Note_off_c, 5, 69, 0
6, 683040, Note_on_c, 5, 69, 69
6, 683520, Note_off_c, 5, 69, 0
6, 683520, Note_on_c, 5, 67, 63
6, 683946, Note_off_c, 5, 67, 0
6, 684480, Note_on_c, 5, 59, 68
6, 684900, Note_off_c, 5, 59, 0
6, 684960, Note_on_c, 5, 59, 61
6, 685440, Note_off_c, 5, 59, 0
6, 685440, Note_on_c, 5, 60, 53
6, 685874, Note_off_c, 5, 60, 0
6, 685920, Note_on_c, 5, 57, 66
6, 686880, Note_off_c, 5, 57, 0
6, 686880, Note_on_c, 5, 55, 58
6, 687126, Note_off_c, 5, 55, 0
6, 687360, Note_on_c, 5, 55, 54
6, 687600, Note_off_c, 5, 55, 0
6, 687840, Note_on_c, 5, 60, 57
6, 688320, Note_on_c, 5, 55, 52
6, 688326, Note_off_c, 5, 60, 0
6, 688800, Note_off_c, 5, 55, 0
6, 688800, Note_on_c, 5, 52, 47
6, 689280, Note_off_c, 5, 52, 0
6, 689280, Note_on_c, 5, 48, 43
6, 689640, Note_off_c, 5, 48, 0
6, 690240, Note_on_c, 5, 62, 69
6, 690600, Note_off_c, 5, 62, 0
6, 690720, Note_on_c, 5, 62, 65
6, 691200, Note_on_c, 5, 67, 59
6, 691206, Note_off_c, 5, 62, 0
6, 691626, Note_off_c, 5, 67, 0
6, 692160, Note_on_c, 5, 55, 63
6, 692580, Note_off_c, 5, 55, 0
6, 692640, Note_on_c, 5, 55, 59
6, 693120, Note_off_c, 5, 55, 0
6, 693120, Note_on_c, 5, 60, 57
6, 693546, Note_off_c, 5, 60, 0
6, 694080, Note_on_c, 5, 53, 65
6, 694500, Note_off_c, 5, 53, 0
6, 694560, Note_on_c, 5, 55, 58
6, 695520, Note_off_c, 5, 55, 0
6, 705600, Note_on_c, 5, 60, 60
6, 706026, Note_off_c, 5, 60, 0
6, 707520, Note_on_c, 5, 60, 71
6, 707946, Note_off_c, 5, 60, 0
6, 710880, Note_on_c, 5, 60, 69
6, 712746, Note_off_c, 5, 60, 0
6, 720960, Note_on_c, 5, 58, 46
6, 721440, Note_off_c, 5, 58, 0
6, 721440, Note_on_c, 5, 62, 49
6, 721920, Note_off_c, 5, 62, 0
6, 721920, Note_on_c, 5, 59, 52
6, 722400, Note_off_c, 5, 59, 0
6, 722400, Note_on_c, 5, 60, 54
6, 723780, Note_off_c, 5, 60, 0
6, 732000, Note_on_c, 5, 58, 46
6, 732960, Note_off_c, 5, 58, 0
6, 732960, Note_on_c, 5, 60, 48
6, 733860, Note_off_c, 5, 60, 0
6, 733920, Note_on_c, 5, 65, 55
6, 734400, Note_off_c, 5, 65, 0
6, 734400, Note_on_c, 5, 60, 49
6, 734880, Note_off_c, 5, 60, 0
6, 734880, Note_on_c, 5, 53, 43
6, 735306, Note_off_c, 5, 53, 0
6, 735840, Note_on_c, 5, 50, 65
6, 736774, Note_off_c, 5, 50, 0
6, 737040, Note_on_c, 5, 62, 60
6, 737232, Note_off_c, 5, 62, 0
6, 737280, Note_on_c, 5, 62, 58
6, 737472, Note_off_c, 5, 62, 0
6, 737520, Note_on_c, 5, 62, 56
6, 737712, Note_off_c, 5, 62, 0
6, 737760, Note_on_c, 5, 64, 54
6, 738000, Note_off_c, 5, 64, 0
6, 738240, Note_on_c, 5, 62, 49
6, 738480, Note_off_c, 5, 62, 0
6, 738720, Note_on_c, 5, 61, 44
6, 738960, Note_off_c, 5, 61, 0
6, 739680, Note_on_c, 5, 55, 69
6, 740600, Note_off_c, 5, 55, 0
6, 740880, Note_on_c, 5, 67, 61
6, 741072, Note_off_c, 5, 67, 0
6, 741120, Note_on_c, 5, 67, 59
6, 741312, Note_off_c, 5, 67, 0
6, 741360, Note_on_c, 5, 67, 56
6, 741552, Note_off_c, 5, 67, 0
6, 741600, Note_on_c, 5, 65, 55
6, 741840, Note_off_c, 5, 65, 0
6, 742080, Note_on_c, 5, 64, 50
6, 742320, Note_off_c, 5, 64, 0
6, 742560, Note_on_c, 5, 62, 45
6, 742800, Note_off_c, 5, 62, 0
6, 751200, Note_on_c, 5, 50, 73
6, 752154, Note_off_c, 5, 50, 0
6, 752400, Note_on_c, 5, 62, 67
6, 752592, Note_off_c, 5, 62, 0
6, 752640, Note_on_c, 5, 62, 65
6, 752832, Note_off_c, 5, 62, 0
6, 752880, Note_on_c, 5, 62, 63
6, 753072, Note_off_c, 5, 62, 0
6, 753120, Note_on_c, 5, 64, 61
6, 753360, Note_off_c, 5, 64, 0
6, 753600, Note_on_c, 5, 62, 58
6, 753840, Note_off_c, 5, 62, 0
6, 754080, Note_on_c, 5, 61, 54
6, 754320, Note_off_c, 5, 61, 0
6, 755040, Note_on_c, 5, 55, 74
6, 755984, Note_off_c, 5, 55, 0
6, 756240, Note_on_c, 5, 67, 69
6, 756432, Note_off_c, 5, 67, 0
6, 756480, Note_on_c, 5, 67, 68
6, 756672, Note_off_c, 5, 67, 0
6, 756720, Note_on_c, 5, 67, 66
6, 756912, Note_off_c, 5, 67, 0
6, 756960, Note_on_c, 5, 65, 64
6, 757200, Note_off_c, 5, 65, 0
6, 757440, Note_on_c, 5, 64, 60
6, 757680, Note_off_c, 5, 64, 0
6, 757920, Note_on_c, 5, 62, 57
6, 758160, Note_off_c, 5, 62, 0
6, 761760, Note_on_c, 5, 53, 68
6, 762674, Note_off_c, 5, 53, 0
6, 762720, Note_on_c, 5, 55, 56
6, 763680, Note_off_c, 5, 55, 0
6, 763680, Note_on_c, 5, 57, 59
6, 764594, Note_off_c, 5, 57, 0
6, 764640, Note_on_c, 5, 50, 65
6, 764640, Note_on_c, 5, 38, 65
6, 767040, Note_off_c, 5, 38, 0
6, 767040, Note_off_c, 5, 50, 0
6, 787680, Note_on_c, 5, 49, 86
6, 789600, Note_off_c, 5, 49, 0
6, 789600, Note_on_c, 5, 48, 59
6, 790026, Note_off_c, 5, 48, 0
6, 805440, Note_on_c, 5, 58, 47
6, 805920, Note_off_c, 5, 58, 0
6, 805920, Note_on_c, 5, 62, 50
6, 806400, Note_off_c, 5, 62, 0
6, 806400, Note_on_c, 5, 59, 53
6, 806880, Note_off_c, 5, 59, 0
6, 806880, Note_on_c, 5, 60, 52
6, 808266, Note_off_c, 5, 60, 0
6, 816480, Note_on_c, 5, 58, 56
6, 817380, Note_off_c, 5, 58, 0
6, 817440, Note_on_c, 5, 60, 57
6, 817920, Note_off_c, 5, 60, 0
6, 818400, Note_on_c, 5, 65, 63
6, 818880, Note_on_c, 5, 60, 57
6, 818887, Note_off_c, 5, 65, 0
6, 819360, Note_off_c, 5, 60, 0
6, 819360, Note_on_c, 5, 53, 51
6, 819786, Note_off_c, 5, 53, 0
6, 820320, Control_c, 5, 64, 0
6, 830400, Note_on_c, 5, 55, 74
6, 831360, Note_off_c, 5, 55, 0
6, 831360, Note_on_c, 5, 56, 62
6, 831786, Note_off_c, 5, 56, 0
6, 831840, Note_on_c, 5, 49, 62
6, 832800, Note_off_c, 5, 49, 0
6, 832800, Note_on_c, 5, 51, 52
6, 833280, Note_on_c, 5, 58, 48
6, 833286, Note_off_c, 5, 51, 0
6, 833714, Note_off_c, 5, 58, 0
6, 833760, Note_on_c, 5, 56, 44
6, 834240, Note_off_c, 5, 56, 0
6, 834240, Note_on_c, 5, 51, 38
6, 834720, Note_off_c, 5, 51, 0
6, 834720, Note_on_c, 5, 44, 32
6, 835140, Note_off_c, 5, 44, 0
6, 835680, Control_c, 5, 64, 0
6, 845760, Note_on_c, 5, 55, 74
6, 846720, Note_off_c, 5, 55, 0
6, 846720, Note_on_c, 5, 56, 62
6, 847146, Note_off_c, 5, 56, 0
6, 847200, Note_on_c, 5, 49, 62
6, 848160, Note_off_c, 5, 49, 0
6, 848160, Note_on_c, 5, 51, 52
6, 848640, Note_on_c, 5, 58, 48
6, 848646, Note_off_c, 5, 51, 0
6, 849074, Note_off_c, 5, 58, 0
6, 849120, Note_on_c, 5, 56, 44
6, 849600, Note_off_c, 5, 56, 0
6, 849600, Note_on_c, 5, 51, 38
6, 850080, Note_off_c, 5, 51, 0
6, 850080, Note_on_c, 5, 44, 32
6, 850500, Note_off_c, 5, 44, 0
6, 851040, Control_c, 5, 64, 0
6, 862560, Note_on_c, 5, 60, 60
6, 863520, Note_off_c, 5, 60, 0
6, 863520, Note_on_c, 5, 61, 64
6, 864720, Note_off_c, 5, 61, 0
6, 864720, Note_on_c, 5, 65, 69
6, 864960, Note_off_c, 5, 65, 0
6, 864960, Note_on_c, 5, 63, 68
6, 865200, Note_off_c, 5, 63, 0
6, 865200, Note_on_c, 5, 61, 67
6, 865440, Note_off_c, 5, 61, 0
6, 865440, Note_on_c, 5, 60, 66
6, 866640, Note_off_c, 5, 60, 0
6, 866640, Note_on_c, 5, 63, 63
6, 866880, Note_off_c, 5, 63, 0
6, 866880, Note_on_c, 5, 61, 62
6, 867120, Note_off_c, 5, 61, 0
6, 867120, Note_on_c, 5, 60, 61
6, 867360, Note_on_c, 5, 58, 61
6, 867374, Note_off_c, 5, 60, 0
6, 868560, Note_off_c, 5, 58, 0
6, 868560, Note_on_c, 5, 61, 59
6, 868800, Note_off_c, 5, 61, 0
6, 868800, Note_on_c, 5, 60, 59
6, 869040, Note_off_c, 5, 60, 0
6, 869040, Note_on_c, 5, 58, 60
6, 869280, Note_off_c, 5, 58, 0
6, 869280, Note_on_c, 5, 56, 60
6, 869520, Note_off_c, 5, 56, 0
6, 869520, Note_on_c, 5, 55, 56
6, 869760, Note_off_c, 5, 55, 0
6, 869760, Note_on_c, 5, 53, 64
6, 870000, Note_off_c, 5, 53, 0
6, 870000, Note_on_c, 5, 51, 62
6, 870240, Note_on_c, 5, 49, 64
6, 870246, Note_off_c, 5, 51, 0
6, 870720, Note_off_c, 5, 49, 0
6, 871200, Note_on_c, 5, 50, 72
6, 871680, Note_off_c, 5, 50, 0
6, 872640, Note_on_c, 5, 52, 80
6, 873600, Note_off_c, 5, 52, 0
6, 873600, Note_on_c, 5, 53, 69
6, 874026, Note_off_c, 5, 53, 0
6, 874080, Note_on_c, 5, 46, 64
6, 875040, Note_off_c, 5, 46, 0
6, 875040, Note_on_c, 5, 48, 53
6, 875946, Note_off_c, 5, 48, 0
6, 876000, Note_on_c, 5, 53, 48
6, 876480, Note_on_c, 5, 48, 41
6, 876486, Note_off_c, 5, 53, 0
6, 876960, Note_off_c, 5, 48, 0
6, 876960, Note_on_c, 5, 41, 34
6, 877380, Note_off_c, 5, 41, 0
6, 877920, Control_c, 5, 64, 0
6, 889440, Note_on_c, 5, 60, 60
6, 890400, Note_off_c, 5, 60, 0
6, 890400, Note_on_c, 5, 61, 64
6, 891600, Note_off_c, 5, 61, 0
6, 891600, Note_on_c, 5, 65, 69
6, 891840, Note_off_c, 5, 65, 0
6, 891840, Note_on_c, 5, 63, 68
6, 892080, Note_off_c, 5, 63, 0
6, 892080, Note_on_c, 5, 61, 67
6, 892320, Note_off_c, 5, 61, 0
6, 892320, Note_on_c, 5, 60, 66
6, 893520, Note_off_c, 5, 60, 0
6, 893520, Note_on_c, 5, 63, 63
6, 893760, Note_off_c, 5, 63, 0
6, 893760, Note_on_c, 5, 61, 62
6, 894000, Note_off_c, 5, 61, 0
6, 894000, Note_on_c, 5, 60, 61
6, 894240, Note_on_c, 5, 58, 61
6, 894254, Note_off_c, 5, 60, 0
6, 895440, Note_off_c, 5, 58, 0
6, 895440, Note_on_c, 5, 61, 59
6, 895680, Note_off_c, 5, 61, 0
6, 895680, Note_on_c, 5, 60, 59
6, 895920, Note_off_c, 5, 60, 0
6, 895920, Note_on_c, 5, 58, 60
6, 896160, Note_off_c, 5, 58, 0
6, 896160, Note_on_c, 5, 56, 60
6, 896400, Note_off_c, 5, 56, 0
6, 896400, Note_on_c, 5, 55, 56
6, 896640, Note_off_c, 5, 55, 0
6, 896640, Note_on_c, 5, 53, 64
6, 896880, Note_off_c, 5, 53, 0
6, 896880, Note_on_c, 5, 51, 62
6, 897120, Note_on_c, 5, 49, 64
6, 897126, Note_off_c, 5, 51, 0
6, 897600, Note_off_c, 5, 49, 0
6, 898080, Note_on_c, 5, 50, 72
6, 898560, Note_off_c, 5, 50, 0
6, 899520, Note_on_c, 5, 52, 80
6, 900480, Note_off_c, 5, 52, 0
6, 900480, Note_on_c, 5, 53, 69
6, 900906, Note_off_c, 5, 53, 0
6, 900960, Note_on_c, 5, 46, 64
6, 901920, Note_off_c, 5, 46, 0
6, 901920, Note_on_c, 5, 48, 53
6, 902826, Note_off_c, 5, 48, 0
6, 902880, Control_c, 5, 64, 0
6, 902880, Note_on_c, 5, 41, 48
6, 902880, Note_on_c, 5, 53, 48
6, 904680, Note_off_c, 5, 53, 0
6, 904686, Note_off_c, 5, 41, 0
6, 904800, Note_on_c, 5, 53, 33
6, 904800, Note_on_c, 5, 41, 33
6, 904992, Note_off_c, 5, 41, 0
6, 904992, Note_off_c, 5, 53, 0
6, 905760, Note_on_c, 5, 41, 38
6, 905760, Note_on_c, 5, 53, 38
6, 905952, Note_off_c, 5, 53, 0
6, 905952, Note_off_c, 5, 41, 0
6, 906720, Note_on_c, 5, 41, 43
6, 906720, Note_on_c, 5, 53, 43
6, 907140, Note_off_c, 5, 41, 0
6, 907146, Note_off_c, 5, 53, 0
6, 935520, Note_on_c, 5, 46, 51
6, 936480, Note_off_c, 5, 46, 0
6, 936480, Note_on_c, 5, 45, 57
6, 937380, Note_off_c, 5, 45, 0
6, 939360, Note_on_c, 5, 58, 57
6, 940320, Note_off_c, 5, 58, 0
6, 940320, Note_on_c, 5, 57, 67
6, 941220, Note_off_c, 5, 57, 0
6, 941760, Note_on_c, 5, 62, 57
6, 942180, Note_off_c, 5, 62, 0
6, 942240, Note_on_c, 5, 62, 54
6, 942720, Note_off_c, 5, 62, 0
6, 942720, Note_on_c, 5, 60, 50
6, 943140, Note_off_c, 5, 60, 0
6, 943680, Note_on_c, 5, 52, 61
6, 944100, Note_off_c, 5, 52, 0
6, 944160, Note_on_c, 5, 52, 55
6, 944640, Note_off_c, 5, 52, 0
6, 944640, Note_on_c, 5, 53, 49
6, 945060, Note_off_c, 5, 53, 0
6, 945120, Note_on_c, 5, 50, 46
6, 946012, Note_off_c, 5, 50, 0
6, 946080, Note_on_c, 5, 48, 52
6, 946980, Note_off_c, 5, 48, 0
6, 947040, Note_on_c, 5, 53, 57
6, 947520, Note_off_c, 5, 53, 0
6, 947520, Note_on_c, 5, 48, 51
6, 948000, Note_off_c, 5, 48, 0
6, 948000, Note_on_c, 5, 41, 48
6, 948420, Note_off_c, 5, 41, 0
6, 949440, Note_on_c, 5, 67, 65
6, 949866, Note_off_c, 5, 67, 0
6, 949920, Note_on_c, 5, 67, 60
6, 950400, Note_off_c, 5, 67, 0
6, 950400, Note_on_c, 5, 72, 55
6, 950834, Note_off_c, 5, 72, 0
6, 951360, Note_on_c, 5, 60, 67
6, 951780, Note_off_c, 5, 60, 0
6, 951840, Note_on_c, 5, 60, 62
6, 952320, Note_off_c, 5, 60, 0
6, 952320, Note_on_c, 5, 65, 54
6, 952746, Note_off_c, 5, 65, 0
6, 953280, Note_on_c, 5, 58, 60
6, 953700, Note_off_c, 5, 58, 0
6, 953760, Note_on_c, 5, 60, 63
6, 954660, Note_off_c, 5, 60, 0
6, 954720, Note_on_c, 5, 62, 73
6, 956586, Note_off_c, 5, 62, 0
6, 956640, Note_on_c, 5, 52, 63
6, 958492, Note_off_c, 5, 52, 0
6, 958560, Note_on_c, 5, 45, 54
6, 959040, Note_off_c, 5, 45, 0
6, 959520, Note_on_c, 5, 46, 59
6, 960000, Note_off_c, 5, 46, 0
6, 960480, Note_on_c, 5, 60, 64
6, 961920, Note_off_c, 5, 60, 0
6, 961920, Note_on_c, 5, 61, 74
6, 962340, Note_off_c, 5, 61, 0
6, 962400, Note_on_c, 5, 62, 79
6, 964267, Note_off_c, 5, 62, 0
6, 964320, Note_on_c, 5, 52, 74
6, 966120, Note_off_c, 5, 52, 0
6, 966240, Note_on_c, 5, 51, 69
6, 966360, Note_off_c, 5, 51, 0
6, 966360, Note_on_c, 5, 50, 69
6, 966480, Note_off_c, 5, 50, 0
6, 966480, Note_on_c, 5, 53, 68
6, 966600, Note_on_c, 5, 51, 68
6, 966606, Note_off_c, 5, 53, 0
6, 966720, Note_off_c, 5, 51, 0
6, 966720, Note_on_c, 5, 55, 68
6, 966840, Note_off_c, 5, 55, 0
6, 966840, Note_on_c, 5, 53, 67
6, 966960, Note_on_c, 5, 51, 67
6, 966966, Note_off_c, 5, 53, 0
6, 967080, Note_off_c, 5, 51, 0
6, 967080, Note_on_c, 5, 50, 67
6, 967200, Note_off_c, 5, 50, 0
6, 967200, Note_on_c, 5, 48, 66
6, 967320, Note_off_c, 5, 48, 0
6, 967320, Note_on_c, 5, 46, 66
6, 967440, Note_off_c, 5, 46, 0
6, 967440, Note_on_c, 5, 45, 66
6, 967560, Note_off_c, 5, 45, 0
6, 967560, Note_on_c, 5, 43, 65
6, 967680, Note_on_c, 5, 41, 65
6, 967694, Note_off_c, 5, 43, 0
6, 967800, Note_off_c, 5, 41, 0
6, 967800, Note_on_c, 5, 40, 65
6, 967920, Note_off_c, 5, 40, 0
6, 967920, Note_on_c, 5, 41, 64
6, 968040, Note_off_c, 5, 41, 0
6, 968040, Note_on_c, 5, 39, 64
6, 968160, Note_on_c, 5, 38, 64
6, 968174, Note_off_c, 5, 39, 0
6, 968586, Note_off_c, 5, 38, 0
6, 970080, Note_on_c, 5, 49, 75
6, 970506, Note_off_c, 5, 49, 0
6, 972000, Note_on_c, 5, 36, 50
6, 972900, Note_off_c, 5, 36, 0
6, 972960, Note_on_c, 5, 41, 53
6, 974160, Note_off_c, 5, 41, 0
6, 974160, Note_on_c, 5, 40, 57
6, 974340, Note_off_c, 5, 40, 0
6, 974400, Note_on_c, 5, 40, 58
6, 974640, Note_off_c, 5, 40, 0
6, 974640, Note_on_c, 5, 36, 59
6, 974826, Note_off_c, 5, 36, 0
6, 974880, Note_on_c, 5, 45, 60
6, 976080, Note_off_c, 5, 45, 0
6, 976080, Note_on_c, 5, 43, 64
6, 976266, Note_off_c, 5, 43, 0
6, 976320, Note_on_c, 5, 43, 65
6, 976560, Note_off_c, 5, 43, 0
6, 976560, Note_on_c, 5, 36, 66
6, 976746, Note_off_c, 5, 36, 0
6, 976800, Note_on_c, 5, 41, 66
6, 977280, Note_off_c, 5, 41, 0
6, 977280, Note_on_c, 5, 40, 68
6, 977944, Note_off_c, 5, 40, 0
6, 978000, Note_on_c, 5, 38, 70
6, 978180, Note_off_c, 5, 38, 0
6, 978240, Note_on_c, 5, 38, 71
6, 978480, Note_off_c, 5, 38, 0
6, 978480, Note_on_c, 5, 43, 72
6, 978682, Note_off_c, 5, 43, 0
6, 978720, Note_on_c, 5, 36, 73
6, 979155, Note_off_c, 5, 36, 0
6, 979200, Note_on_c, 5, 48, 75
6, 979620, Note_off_c, 5, 48, 0
6, 979680, Note_on_c, 5, 53, 76
6, 980586, Note_off_c, 5, 53, 0
6, 980640, Note_on_c, 5, 46, 79
6, 981066, Note_off_c, 5, 46, 0
6, 981120, Note_on_c, 5, 53, 81
6, 981540, Note_off_c, 5, 53, 0
6, 981600, Note_on_c, 5, 55, 83
6, 982500, Note_off_c, 5, 55, 0
6, 982560, Note_on_c, 5, 53, 86
6, 982994, Note_off_c, 5, 53, 0
6, 983040, Note_on_c, 5, 60, 88
6, 983466, Note_off_c, 5, 60, 0
6, 983520, Note_on_c, 5, 55, 89
6, 984420, Note_off_c, 5, 55, 0
6, 984480, Note_on_c, 5, 60, 83
6, 986346, Note_off_c, 5, 60, 0
6, 986400, Note_on_c, 5, 60, 76
6, 988260, Note_off_c, 5, 60, 0
6, 988320, Note_on_c, 5, 60, 68
6, 989220, Note_off_c, 5, 60, 0
6, 989280, Note_on_c, 5, 60, 64
6, 989925, Note_off_c, 5, 60, 0
6, 990240, Note_on_c, 5, 60, 60
6, 990915, Note_off_c, 5, 60, 0
6, 991200, Note_on_c, 5, 60, 56
6, 991860, Note_off_c, 5, 60, 0
6, 992160, Note_on_c, 5, 60, 53
6, 992820, Note_off_c, 5, 60, 0
6, 993120, Note_on_c, 5, 60, 49
6, 993546, Note_off_c, 5, 60, 0
6, 994080, Note_on_c, 5, 60, 45
6, 994506, Note_off_c, 5, 60, 0
6, 995040, Note_on_c, 5, 60, 58
6, 998760, Note_off_c, 5, 60, 0
6, 998880, Note_on_c, 5, 60, 62
6, 1002682, Note_off_c, 5, 60, 0
6, 1005600, Note_on_c, 5, 60, 70
6, 1006500, Note_off_c, 5, 60, 0
6, 1014240, Note_on_c, 5, 65, 64
6, 1014674, Note_off_c, 5, 65, 0
6, 1015200, Note_on_c, 5, 53, 59
6, 1015626, Note_off_c, 5, 53, 0
6, 1016160, Note_on_c, 5, 41, 54
6, 1016586, Note_off_c, 5, 41, 0
6, 1033440, Note_on_c, 5, 29, 53
6, 1033852, Note_off_c, 5, 29, 0
6, 1034880, Note_on_c, 5, 36, 46
6, 1035360, Note_off_c, 5, 36, 0
6, 1035360, Note_on_c, 5, 41, 44
6, 1035780, Note_off_c, 5, 41, 0
6, 1036800, Note_on_c, 5, 36, 38
6, 1037234, Note_off_c, 5, 36, 0
6, 1037760, Note_on_c, 5, 41, 34
6, 1038180, Note_off_c, 5, 41, 0
6, 1038720, Note_on_c, 5, 36, 29
6, 1039146, Note_off_c, 5, 36, 0
6, 1039200, Note_on_c, 5, 29, 30
6, 1040602, Note_off_c, 5, 29, 0
6, 1040602, End_track
0, 0, End_of_file