0, 0, Header, 1, 8, 120
1, 0, Start_track
1, 0, Title_t, "Symphony Number 22"
1, 0, Title_t, "Movement 1"
1, 0, Copyright_t, "Copyright \251 1998 by Matt Jeffrey"
1, 0, Text_t, "Wolfgang Amadeus Mozart"
1, 0, Text_t, "Allegro assai"
1, 0, Text_t, "K.162 written in 1773\012"
1, 0, Time_signature, 4, 2, 24, 8
1, 0, Key_signature, 0, "major"
1, 0, Tempo, 400000
1, 31920, Tempo, 1000000
1, 32160, Tempo, 400000
1, 64080, Tempo, 500000
1, 64080, End_track
2, 0, Start_track
2, 0, MIDI_port, 0
2, 0, Title_t, "Oboes"
2, 0, Control_c, 0, 0, 4
2, 0, Program_c, 0, 68
2, 0, Control_c, 0, 7, 115
2, 0, Control_c, 0, 10, 68
2, 0, Note_on_c, 0, 64, 100
2, 0, Note_on_c, 0, 72, 100
2, 1080, Note_on_c, 0, 72, 0
2, 1080, Note_on_c, 0, 64, 0
2, 1200, Note_on_c, 0, 64, 100
2, 1200, Note_on_c, 0, 72, 100
2, 1260, Note_on_c, 0, 72, 0
2, 1260, Note_on_c, 0, 64, 0
2, 1320, Note_on_c, 0, 67, 100
2, 1320, Note_on_c, 0, 74, 100
2, 1380, Note_on_c, 0, 74, 0
2, 1380, Note_on_c, 0, 67, 0
2, 1440, Note_on_c, 0, 72, 100
2, 1440, Note_on_c, 0, 76, 100
2, 1500, Note_on_c, 0, 76, 0
2, 1500, Note_on_c, 0, 72, 0
2, 1560, Note_on_c, 0, 74, 100
2, 1560, Note_on_c, 0, 77, 100
2, 1620, Note_on_c, 0, 77, 0
2, 1620, Note_on_c, 0, 74, 0
2, 1680, Note_on_c, 0, 76, 100
2, 1680, Note_on_c, 0, 79, 100
2, 1740, Note_on_c, 0, 79, 0
2, 1740, Note_on_c, 0, 76, 0
2, 1800, Note_on_c, 0, 72, 100
2, 1800, Note_on_c, 0, 76, 100
2, 1860, Note_on_c, 0, 76, 0
2, 1860, Note_on_c, 0, 72, 0
2, 1920, Note_on_c, 0, 71, 100
2, 1920, Note_on_c, 0, 74, 100
2, 3000, Note_on_c, 0, 74, 0
2, 3000, Note_on_c, 0, 71, 0
2, 3120, Note_on_c, 0, 71, 100
2, 3120, Note_on_c, 0, 74, 100
2, 3180, Note_on_c, 0, 74, 0
2, 3180, Note_on_c, 0, 71, 0
2, 3240, Note_on_c, 0, 72, 100
2, 3240, Note_on_c, 0, 76, 100
2, 3300, Note_on_c, 0, 76, 0
2, 3300, Note_on_c, 0, 72, 0
2, 3360, Note_on_c, 0, 74, 100
2, 3360, Note_on_c, 0, 77, 100
2, 3420, Note_on_c, 0, 77, 0
2, 3420, Note_on_c, 0, 74, 0
2, 3480, Note_on_c, 0, 76, 100
2, 3480, Note_on_c, 0, 79, 100
2, 3540, Note_on_c, 0, 79, 0
2, 3540, Note_on_c, 0, 76, 0
2, 3600, Note_on_c, 0, 77, 100
2, 3600, Note_on_c, 0, 81, 100
2, 3660, Note_on_c, 0, 81, 0
2, 3660, Note_on_c, 0, 77, 0
2, 3720, Note_on_c, 0, 74, 100
2, 3720, Note_on_c, 0, 77, 100
2, 3780, Note_on_c, 0, 77, 0
2, 3780, Note_on_c, 0, 74, 0
2, 3840, Note_on_c, 0, 72, 100
2, 3840, Note_on_c, 0, 76, 100
2, 4920, Note_on_c, 0, 76, 0
2, 4920, Note_on_c, 0, 72, 0
2, 5040, Note_on_c, 0, 72, 100
2, 5100, Note_on_c, 0, 72, 0
2, 5160, Note_on_c, 0, 71, 100
2, 5160, Note_on_c, 0, 74, 100
2, 5220, Note_on_c, 0, 74, 0
2, 5220, Note_on_c, 0, 71, 0
2, 5280, Note_on_c, 0, 72, 100
2, 5280, Note_on_c, 0, 76, 100
2, 5340, Note_on_c, 0, 76, 0
2, 5340, Note_on_c, 0, 72, 0
2, 5400, Note_on_c, 0, 74, 100
2, 5400, Note_on_c, 0, 77, 100
2, 5460, Note_on_c, 0, 77, 0
2, 5460, Note_on_c, 0, 74, 0
2, 5520, Note_on_c, 0, 76, 100
2, 5520, Note_on_c, 0, 79, 100
2, 5580, Note_on_c, 0, 79, 0
2, 5580, Note_on_c, 0, 76, 0
2, 5640, Note_on_c, 0, 72, 100
2, 5640, Note_on_c, 0, 76, 100
2, 5700, Note_on_c, 0, 76, 0
2, 5700, Note_on_c, 0, 72, 0
2, 5760, Note_on_c, 0, 81, 100
2, 5760, Note_on_c, 0, 72, 100
2, 6000, Note_on_c, 0, 81, 0
2, 6000, Note_on_c, 0, 79, 100
2, 6240, Note_on_c, 0, 79, 0
2, 6240, Note_on_c, 0, 81, 100
2, 6480, Note_on_c, 0, 81, 0
2, 6480, Note_on_c, 0, 79, 100
2, 6720, Note_on_c, 0, 79, 0
2, 6720, Note_on_c, 0, 72, 0
2, 6720, Note_on_c, 0, 77, 100
2, 6720, Note_on_c, 0, 69, 100
2, 6960, Note_on_c, 0, 69, 0
2, 6960, Note_on_c, 0, 71, 100
2, 7200, Note_on_c, 0, 71, 0
2, 7200, Note_on_c, 0, 77, 0
2, 7200, Note_on_c, 0, 72, 100
2, 7200, Note_on_c, 0, 76, 100
2, 7440, Note_on_c, 0, 76, 0
2, 7440, Note_on_c, 0, 79, 100
2, 7680, Note_on_c, 0, 79, 0
2, 7680, Note_on_c, 0, 81, 100
2, 7740, Note_on_c, 0, 72, 0
2, 7740, Note_on_c, 0, 77, 100
2, 7800, Note_on_c, 0, 77, 0
2, 7800, Note_on_c, 0, 81, 0
2, 7800, Note_on_c, 0, 76, 100
2, 7800, Note_on_c, 0, 79, 100
2, 7860, Note_on_c, 0, 79, 0
2, 7860, Note_on_c, 0, 76, 0
2, 7860, Note_on_c, 0, 74, 100
2, 7860, Note_on_c, 0, 77, 100
2, 7920, Note_on_c, 0, 77, 0
2, 7920, Note_on_c, 0, 74, 0
2, 7920, Note_on_c, 0, 72, 100
2, 7920, Note_on_c, 0, 76, 100
2, 7980, Note_on_c, 0, 76, 0
2, 7980, Note_on_c, 0, 72, 0
2, 7980, Note_on_c, 0, 74, 100
2, 7980, Note_on_c, 0, 77, 100
2, 8040, Note_on_c, 0, 77, 0
2, 8040, Note_on_c, 0, 74, 0
2, 8040, Note_on_c, 0, 72, 100
2, 8040, Note_on_c, 0, 76, 100
2, 8100, Note_on_c, 0, 76, 0
2, 8100, Note_on_c, 0, 72, 0
2, 8100, Note_on_c, 0, 71, 100
2, 8100, Note_on_c, 0, 74, 100
2, 8160, Note_on_c, 0, 74, 0
2, 8160, Note_on_c, 0, 71, 0
2, 8160, Note_on_c, 0, 72, 100
2, 8280, Note_on_c, 0, 72, 0
2, 8280, Note_on_c, 0, 71, 100
2, 8370, Note_on_c, 0, 71, 0
2, 8370, Note_on_c, 0, 69, 100
2, 8400, Note_on_c, 0, 69, 0
2, 8400, Note_on_c, 0, 67, 100
2, 8520, Note_on_c, 0, 67, 0
2, 10080, Note_on_c, 0, 84, 100
2, 10320, Note_on_c, 0, 84, 0
2, 10320, Note_on_c, 0, 80, 97
2, 10560, Note_on_c, 0, 80, 0
2, 10560, Note_on_c, 0, 81, 97
2, 10800, Note_on_c, 0, 81, 0
2, 10800, Note_on_c, 0, 76, 97
2, 11040, Note_on_c, 0, 76, 0
2, 11040, Note_on_c, 0, 77, 97
2, 11280, Note_on_c, 0, 77, 0
2, 11280, Note_on_c, 0, 71, 100
2, 11520, Note_on_c, 0, 71, 0
2, 11520, Note_on_c, 0, 72, 108
2, 11760, Note_on_c, 0, 72, 0
2, 11760, Note_on_c, 0, 68, 119
2, 12000, Note_on_c, 0, 68, 0
2, 12000, Note_on_c, 0, 67, 124
2, 12120, Note_on_c, 0, 67, 0
2, 12120, Note_on_c, 0, 71, 127
2, 12120, Note_on_c, 0, 79, 127
2, 12210, Note_on_c, 0, 79, 0
2, 12210, Note_on_c, 0, 71, 0
2, 12210, Note_on_c, 0, 71, 127
2, 12210, Note_on_c, 0, 79, 127
2, 12240, Note_on_c, 0, 79, 0
2, 12240, Note_on_c, 0, 71, 0
2, 12240, Note_on_c, 0, 71, 127
2, 12240, Note_on_c, 0, 79, 127
2, 12360, Note_on_c, 0, 79, 0
2, 12360, Note_on_c, 0, 71, 0
2, 12720, Note_on_c, 0, 71, 127
2, 12720, Note_on_c, 0, 74, 127
2, 12840, Note_on_c, 0, 74, 0
2, 12840, Note_on_c, 0, 71, 0
2, 12840, Note_on_c, 0, 72, 127
2, 12840, Note_on_c, 0, 76, 127
2, 12960, Note_on_c, 0, 76, 0
2, 12960, Note_on_c, 0, 72, 0
2, 12960, Note_on_c, 0, 71, 127
2, 12960, Note_on_c, 0, 74, 127
2, 13080, Note_on_c, 0, 74, 0
2, 13080, Note_on_c, 0, 71, 0
2, 13080, Note_on_c, 0, 71, 127
2, 13080, Note_on_c, 0, 79, 127
2, 13170, Note_on_c, 0, 79, 0
2, 13170, Note_on_c, 0, 71, 0
2, 13170, Note_on_c, 0, 71, 127
2, 13170, Note_on_c, 0, 79, 127
2, 13200, Note_on_c, 0, 79, 0
2, 13200, Note_on_c, 0, 71, 0
2, 13200, Note_on_c, 0, 71, 127
2, 13200, Note_on_c, 0, 79, 127
2, 13320, Note_on_c, 0, 79, 0
2, 13320, Note_on_c, 0, 71, 0
2, 13680, Note_on_c, 0, 71, 127
2, 13680, Note_on_c, 0, 74, 127
2, 13800, Note_on_c, 0, 74, 0
2, 13800, Note_on_c, 0, 71, 0
2, 13800, Note_on_c, 0, 72, 127
2, 13800, Note_on_c, 0, 76, 127
2, 13920, Note_on_c, 0, 76, 0
2, 13920, Note_on_c, 0, 72, 0
2, 13920, Note_on_c, 0, 71, 127
2, 13920, Note_on_c, 0, 74, 127
2, 14040, Note_on_c, 0, 74, 0
2, 14040, Note_on_c, 0, 71, 0
2, 14130, Note_on_c, 0, 71, 127
2, 14130, Note_on_c, 0, 74, 127
2, 14160, Note_on_c, 0, 74, 0
2, 14160, Note_on_c, 0, 71, 0
2, 14160, Note_on_c, 0, 71, 127
2, 14160, Note_on_c, 0, 74, 127
2, 14280, Note_on_c, 0, 74, 0
2, 14280, Note_on_c, 0, 71, 0
2, 14370, Note_on_c, 0, 67, 127
2, 14400, Note_on_c, 0, 67, 0
2, 14400, Note_on_c, 0, 67, 127
2, 14520, Note_on_c, 0, 67, 0
2, 17760, Note_on_c, 0, 71, 100
2, 17760, Note_on_c, 0, 74, 100
2, 17940, Note_on_c, 0, 74, 0
2, 17940, Note_on_c, 0, 71, 0
2, 17940, Note_on_c, 0, 72, 100
2, 17940, Note_on_c, 0, 76, 100
2, 17970, Note_on_c, 0, 76, 0
2, 17970, Note_on_c, 0, 72, 0
2, 17970, Note_on_c, 0, 71, 100
2, 17970, Note_on_c, 0, 74, 100
2, 18000, Note_on_c, 0, 74, 0
2, 18000, Note_on_c, 0, 71, 0
2, 18000, Note_on_c, 0, 76, 100
2, 18000, Note_on_c, 0, 79, 100
2, 18120, Note_on_c, 0, 79, 0
2, 18120, Note_on_c, 0, 76, 0
2, 18120, Note_on_c, 0, 74, 100
2, 18120, Note_on_c, 0, 78, 100
2, 18240, Note_on_c, 0, 78, 0
2, 18240, Note_on_c, 0, 74, 0
2, 18240, Note_on_c, 0, 72, 100
2, 18240, Note_on_c, 0, 76, 100
2, 18255, Note_on_c, 0, 76, 0
2, 18255, Note_on_c, 0, 72, 0
2, 18255, Note_on_c, 0, 74, 100
2, 18255, Note_on_c, 0, 78, 100
2, 18270, Note_on_c, 0, 78, 0
2, 18270, Note_on_c, 0, 74, 0
2, 18270, Note_on_c, 0, 72, 100
2, 18270, Note_on_c, 0, 76, 100
2, 18285, Note_on_c, 0, 76, 0
2, 18285, Note_on_c, 0, 72, 0
2, 18285, Note_on_c, 0, 74, 100
2, 18285, Note_on_c, 0, 78, 100
2, 18300, Note_on_c, 0, 78, 0
2, 18300, Note_on_c, 0, 74, 0
2, 18300, Note_on_c, 0, 72, 100
2, 18300, Note_on_c, 0, 76, 100
2, 18315, Note_on_c, 0, 76, 0
2, 18315, Note_on_c, 0, 72, 0
2, 18315, Note_on_c, 0, 74, 100
2, 18315, Note_on_c, 0, 78, 100
2, 18326, Note_on_c, 0, 78, 0
2, 18326, Note_on_c, 0, 74, 0
2, 18326, Note_on_c, 0, 72, 100
2, 18326, Note_on_c, 0, 76, 100
2, 18337, Note_on_c, 0, 76, 0
2, 18337, Note_on_c, 0, 72, 0
2, 18337, Note_on_c, 0, 71, 100
2, 18337, Note_on_c, 0, 74, 100
2, 18348, Note_on_c, 0, 74, 0
2, 18348, Note_on_c, 0, 72, 100
2, 18348, Note_on_c, 0, 76, 100
2, 18352, Note_on_c, 0, 71, 0
2, 18359, Note_on_c, 0, 76, 0
2, 18360, Note_on_c, 0, 71, 100
2, 18360, Note_on_c, 0, 74, 100
2, 18363, Note_on_c, 0, 72, 0
2, 18480, Note_on_c, 0, 74, 0
2, 18480, Note_on_c, 0, 71, 0
2, 18480, Note_on_c, 0, 76, 100
2, 18480, Note_on_c, 0, 79, 100
2, 18600, Note_on_c, 0, 79, 0
2, 18600, Note_on_c, 0, 76, 0
2, 18600, Note_on_c, 0, 74, 100
2, 18600, Note_on_c, 0, 78, 100
2, 18720, Note_on_c, 0, 78, 0
2, 18720, Note_on_c, 0, 74, 0
2, 18720, Note_on_c, 0, 72, 100
2, 18720, Note_on_c, 0, 76, 100
2, 18735, Note_on_c, 0, 76, 0
2, 18735, Note_on_c, 0, 72, 0
2, 18735, Note_on_c, 0, 74, 100
2, 18735, Note_on_c, 0, 78, 100
2, 18750, Note_on_c, 0, 78, 0
2, 18750, Note_on_c, 0, 74, 0
2, 18750, Note_on_c, 0, 72, 100
2, 18750, Note_on_c, 0, 76, 100
2, 18765, Note_on_c, 0, 76, 0
2, 18765, Note_on_c, 0, 72, 0
2, 18765, Note_on_c, 0, 74, 100
2, 18765, Note_on_c, 0, 78, 100
2, 18780, Note_on_c, 0, 78, 0
2, 18780, Note_on_c, 0, 74, 0
2, 18780, Note_on_c, 0, 72, 100
2, 18780, Note_on_c, 0, 76, 100
2, 18795, Note_on_c, 0, 76, 0
2, 18795, Note_on_c, 0, 72, 0
2, 18795, Note_on_c, 0, 74, 100
2, 18795, Note_on_c, 0, 78, 100
2, 18806, Note_on_c, 0, 78, 0
2, 18806, Note_on_c, 0, 74, 0
2, 18806, Note_on_c, 0, 72, 100
2, 18806, Note_on_c, 0, 76, 100
2, 18817, Note_on_c, 0, 76, 0
2, 18817, Note_on_c, 0, 72, 0
2, 18817, Note_on_c, 0, 71, 100
2, 18817, Note_on_c, 0, 74, 100
2, 18828, Note_on_c, 0, 74, 0
2, 18828, Note_on_c, 0, 72, 100
2, 18828, Note_on_c, 0, 76, 100
2, 18832, Note_on_c, 0, 71, 0
2, 18839, Note_on_c, 0, 76, 0
2, 18840, Note_on_c, 0, 71, 100
2, 18840, Note_on_c, 0, 74, 100
2, 18843, Note_on_c, 0, 72, 0
2, 18960, Note_on_c, 0, 74, 0
2, 18960, Note_on_c, 0, 71, 0
2, 20160, Note_on_c, 0, 71, 100
2, 20160, Note_on_c, 0, 74, 100
2, 20340, Note_on_c, 0, 74, 0
2, 20340, Note_on_c, 0, 71, 0
2, 20340, Note_on_c, 0, 72, 100
2, 20340, Note_on_c, 0, 76, 100
2, 20370, Note_on_c, 0, 76, 0
2, 20370, Note_on_c, 0, 72, 0
2, 20370, Note_on_c, 0, 74, 100
2, 20370, Note_on_c, 0, 71, 100
2, 20400, Note_on_c, 0, 71, 0
2, 20400, Note_on_c, 0, 74, 0
2, 20400, Note_on_c, 0, 79, 100
2, 20400, Note_on_c, 0, 76, 100
2, 20520, Note_on_c, 0, 76, 0
2, 20520, Note_on_c, 0, 79, 0
2, 20520, Note_on_c, 0, 78, 100
2, 20520, Note_on_c, 0, 74, 100
2, 20640, Note_on_c, 0, 74, 0
2, 20640, Note_on_c, 0, 78, 0
2, 20640, Note_on_c, 0, 72, 100
2, 20640, Note_on_c, 0, 76, 100
2, 20655, Note_on_c, 0, 76, 0
2, 20655, Note_on_c, 0, 72, 0
2, 20655, Note_on_c, 0, 74, 100
2, 20655, Note_on_c, 0, 78, 100
2, 20670, Note_on_c, 0, 78, 0
2, 20670, Note_on_c, 0, 74, 0
2, 20670, Note_on_c, 0, 72, 100
2, 20670, Note_on_c, 0, 76, 100
2, 20685, Note_on_c, 0, 76, 0
2, 20685, Note_on_c, 0, 72, 0
2, 20685, Note_on_c, 0, 74, 100
2, 20685, Note_on_c, 0, 78, 100
2, 20700, Note_on_c, 0, 78, 0
2, 20700, Note_on_c, 0, 74, 0
2, 20700, Note_on_c, 0, 72, 100
2, 20700, Note_on_c, 0, 76, 100
2, 20715, Note_on_c, 0, 76, 0
2, 20715, Note_on_c, 0, 72, 0
2, 20715, Note_on_c, 0, 78, 100
2, 20715, Note_on_c, 0, 74, 100
2, 20726, Note_on_c, 0, 74, 0
2, 20726, Note_on_c, 0, 78, 0
2, 20726, Note_on_c, 0, 72, 100
2, 20726, Note_on_c, 0, 76, 100
2, 20737, Note_on_c, 0, 76, 0
2, 20737, Note_on_c, 0, 72, 0
2, 20737, Note_on_c, 0, 74, 100
2, 20737, Note_on_c, 0, 71, 100
2, 20748, Note_on_c, 0, 74, 0
2, 20748, Note_on_c, 0, 72, 100
2, 20748, Note_on_c, 0, 76, 100
2, 20752, Note_on_c, 0, 71, 0
2, 20759, Note_on_c, 0, 76, 0
2, 20760, Note_on_c, 0, 74, 100
2, 20760, Note_on_c, 0, 71, 100
2, 20763, Note_on_c, 0, 72, 0
2, 20880, Note_on_c, 0, 71, 0
2, 20880, Note_on_c, 0, 74, 0
2, 20880, Note_on_c, 0, 76, 100
2, 20880, Note_on_c, 0, 79, 100
2, 21000, Note_on_c, 0, 79, 0
2, 21000, Note_on_c, 0, 76, 0
2, 21000, Note_on_c, 0, 78, 100
2, 21000, Note_on_c, 0, 74, 100
2, 21120, Note_on_c, 0, 74, 0
2, 21120, Note_on_c, 0, 78, 0
2, 21120, Note_on_c, 0, 76, 100
2, 21120, Note_on_c, 0, 72, 100
2, 21135, Note_on_c, 0, 72, 0
2, 21135, Note_on_c, 0, 76, 0
2, 21135, Note_on_c, 0, 74, 100
2, 21135, Note_on_c, 0, 78, 100
2, 21150, Note_on_c, 0, 78, 0
2, 21150, Note_on_c, 0, 74, 0
2, 21150, Note_on_c, 0, 76, 100
2, 21150, Note_on_c, 0, 72, 100
2, 21165, Note_on_c, 0, 72, 0
2, 21165, Note_on_c, 0, 76, 0
2, 21165, Note_on_c, 0, 74, 100
2, 21165, Note_on_c, 0, 78, 100
2, 21180, Note_on_c, 0, 78, 0
2, 21180, Note_on_c, 0, 74, 0
2, 21180, Note_on_c, 0, 72, 100
2, 21180, Note_on_c, 0, 76, 100
2, 21195, Note_on_c, 0, 76, 0
2, 21195, Note_on_c, 0, 72, 0
2, 21195, Note_on_c, 0, 74, 100
2, 21195, Note_on_c, 0, 78, 100
2, 21206, Note_on_c, 0, 78, 0
2, 21206, Note_on_c, 0, 74, 0
2, 21206, Note_on_c, 0, 72, 100
2, 21206, Note_on_c, 0, 76, 100
2, 21217, Note_on_c, 0, 76, 0
2, 21217, Note_on_c, 0, 72, 0
2, 21217, Note_on_c, 0, 74, 100
2, 21217, Note_on_c, 0, 71, 100
2, 21228, Note_on_c, 0, 74, 0
2, 21228, Note_on_c, 0, 72, 100
2, 21228, Note_on_c, 0, 76, 100
2, 21232, Note_on_c, 0, 71, 0
2, 21239, Note_on_c, 0, 76, 0
2, 21240, Note_on_c, 0, 71, 100
2, 21240, Note_on_c, 0, 74, 100
2, 21243, Note_on_c, 0, 72, 0
2, 21360, Note_on_c, 0, 74, 0
2, 21360, Note_on_c, 0, 71, 0
2, 22560, Note_on_c, 0, 71, 100
2, 22560, Note_on_c, 0, 79, 100
2, 22680, Note_on_c, 0, 79, 0
2, 22680, Note_on_c, 0, 71, 0
2, 22680, Note_on_c, 0, 71, 100
2, 22680, Note_on_c, 0, 79, 100
2, 22800, Note_on_c, 0, 79, 0
2, 22800, Note_on_c, 0, 71, 0
2, 22800, Note_on_c, 0, 71, 100
2, 22800, Note_on_c, 0, 79, 100
2, 22920, Note_on_c, 0, 79, 0
2, 22920, Note_on_c, 0, 71, 0
2, 23040, Note_on_c, 0, 69, 100
2, 23040, Note_on_c, 0, 78, 100
2, 23160, Note_on_c, 0, 78, 0
2, 23160, Note_on_c, 0, 69, 0
2, 23160, Note_on_c, 0, 69, 100
2, 23160, Note_on_c, 0, 78, 100
2, 23280, Note_on_c, 0, 78, 0
2, 23280, Note_on_c, 0, 69, 0
2, 23280, Note_on_c, 0, 72, 100
2, 23280, Note_on_c, 0, 81, 100
2, 23400, Note_on_c, 0, 81, 0
2, 23400, Note_on_c, 0, 72, 0
2, 23520, Note_on_c, 0, 71, 100
2, 23520, Note_on_c, 0, 79, 100
2, 23640, Note_on_c, 0, 79, 0
2, 23640, Note_on_c, 0, 71, 0
2, 23640, Note_on_c, 0, 71, 100
2, 23640, Note_on_c, 0, 79, 100
2, 23760, Note_on_c, 0, 79, 0
2, 23760, Note_on_c, 0, 71, 0
2, 23760, Note_on_c, 0, 71, 100
2, 23760, Note_on_c, 0, 79, 100
2, 23880, Note_on_c, 0, 79, 0
2, 23880, Note_on_c, 0, 71, 0
2, 24000, Note_on_c, 0, 69, 100
2, 24000, Note_on_c, 0, 78, 100
2, 24120, Note_on_c, 0, 78, 0
2, 24120, Note_on_c, 0, 69, 0
2, 24120, Note_on_c, 0, 69, 100
2, 24120, Note_on_c, 0, 78, 100
2, 24240, Note_on_c, 0, 78, 0
2, 24240, Note_on_c, 0, 69, 0
2, 24240, Note_on_c, 0, 72, 100
2, 24240, Note_on_c, 0, 81, 100
2, 24360, Note_on_c, 0, 81, 0
2, 24360, Note_on_c, 0, 72, 0
2, 24480, Note_on_c, 0, 71, 100
2, 24480, Note_on_c, 0, 79, 100
2, 24600, Note_on_c, 0, 79, 0
2, 24600, Note_on_c, 0, 71, 0
2, 24840, Note_on_c, 0, 71, 100
2, 24840, Note_on_c, 0, 79, 100
2, 24960, Note_on_c, 0, 79, 0
2, 24960, Note_on_c, 0, 71, 0
2, 24960, Note_on_c, 0, 79, 100
2, 24960, Note_on_c, 0, 71, 100
2, 25080, Note_on_c, 0, 71, 0
2, 25080, Note_on_c, 0, 79, 0
2, 25320, Note_on_c, 0, 71, 100
2, 25320, Note_on_c, 0, 79, 100
2, 25440, Note_on_c, 0, 79, 0
2, 25440, Note_on_c, 0, 71, 0
2, 25440, Note_on_c, 0, 71, 100
2, 25440, Note_on_c, 0, 79, 100
2, 25560, Note_on_c, 0, 79, 0
2, 25560, Note_on_c, 0, 71, 0
2, 25800, Note_on_c, 0, 74, 100
2, 25800, Note_on_c, 0, 79, 100
2, 25920, Note_on_c, 0, 79, 0
2, 25920, Note_on_c, 0, 74, 0
2, 25920, Note_on_c, 0, 76, 100
2, 26040, Note_on_c, 0, 76, 0
2, 26040, Note_on_c, 0, 81, 100
2, 26040, Note_on_c, 0, 84, 100
2, 26160, Note_on_c, 0, 84, 0
2, 26160, Note_on_c, 0, 81, 0
2, 26160, Note_on_c, 0, 79, 100
2, 26160, Note_on_c, 0, 83, 100
2, 26280, Note_on_c, 0, 83, 0
2, 26280, Note_on_c, 0, 79, 0
2, 26280, Note_on_c, 0, 78, 100
2, 26280, Note_on_c, 0, 81, 100
2, 26400, Note_on_c, 0, 81, 0
2, 26400, Note_on_c, 0, 78, 0
2, 26400, Note_on_c, 0, 83, 100
2, 26400, Note_on_c, 0, 79, 100
2, 26520, Note_on_c, 0, 79, 0
2, 26520, Note_on_c, 0, 83, 0
2, 26760, Note_on_c, 0, 71, 100
2, 26760, Note_on_c, 0, 79, 100
2, 26880, Note_on_c, 0, 79, 0
2, 26880, Note_on_c, 0, 71, 0
2, 26880, Note_on_c, 0, 79, 100
2, 26880, Note_on_c, 0, 71, 100
2, 27000, Note_on_c, 0, 71, 0
2, 27000, Note_on_c, 0, 79, 0
2, 27240, Note_on_c, 0, 71, 100
2, 27240, Note_on_c, 0, 79, 100
2, 27360, Note_on_c, 0, 79, 0
2, 27360, Note_on_c, 0, 71, 0
2, 27360, Note_on_c, 0, 71, 100
2, 27360, Note_on_c, 0, 79, 100
2, 27480, Note_on_c, 0, 79, 0
2, 27480, Note_on_c, 0, 71, 0
2, 27720, Note_on_c, 0, 74, 100
2, 27720, Note_on_c, 0, 79, 100
2, 27840, Note_on_c, 0, 79, 0
2, 27840, Note_on_c, 0, 74, 0
2, 27840, Note_on_c, 0, 76, 100
2, 27960, Note_on_c, 0, 76, 0
2, 27960, Note_on_c, 0, 81, 100
2, 27960, Note_on_c, 0, 84, 100
2, 28080, Note_on_c, 0, 84, 0
2, 28080, Note_on_c, 0, 81, 0
2, 28080, Note_on_c, 0, 79, 100
2, 28080, Note_on_c, 0, 83, 100
2, 28200, Note_on_c, 0, 83, 0
2, 28200, Note_on_c, 0, 79, 0
2, 28200, Note_on_c, 0, 78, 100
2, 28200, Note_on_c, 0, 81, 100
2, 28320, Note_on_c, 0, 81, 0
2, 28320, Note_on_c, 0, 78, 0
2, 28320, Note_on_c, 0, 79, 100
2, 29400, Note_on_c, 0, 79, 0
2, 29520, Note_on_c, 0, 79, 100
2, 29580, Note_on_c, 0, 79, 0
2, 29640, Note_on_c, 0, 78, 100
2, 29640, Note_on_c, 0, 81, 100
2, 29700, Note_on_c, 0, 81, 0
2, 29700, Note_on_c, 0, 78, 0
2, 29760, Note_on_c, 0, 79, 100
2, 29760, Note_on_c, 0, 83, 100
2, 29820, Note_on_c, 0, 83, 0
2, 29820, Note_on_c, 0, 79, 0
2, 29880, Note_on_c, 0, 81, 100
2, 29880, Note_on_c, 0, 84, 100
2, 29940, Note_on_c, 0, 84, 0
2, 29940, Note_on_c, 0, 81, 0
2, 30000, Note_on_c, 0, 79, 100
2, 30000, Note_on_c, 0, 83, 100
2, 30060, Note_on_c, 0, 83, 0
2, 30060, Note_on_c, 0, 79, 0
2, 30120, Note_on_c, 0, 78, 100
2, 30120, Note_on_c, 0, 81, 100
2, 30180, Note_on_c, 0, 81, 0
2, 30180, Note_on_c, 0, 78, 0
2, 30240, Note_on_c, 0, 79, 100
2, 30240, Note_on_c, 0, 83, 100
2, 30300, Note_on_c, 0, 83, 0
2, 30300, Note_on_c, 0, 79, 0
2, 30360, Note_on_c, 0, 81, 100
2, 30360, Note_on_c, 0, 84, 100
2, 30420, Note_on_c, 0, 84, 0
2, 30420, Note_on_c, 0, 81, 0
2, 30480, Note_on_c, 0, 79, 100
2, 30480, Note_on_c, 0, 83, 100
2, 30540, Note_on_c, 0, 83, 0
2, 30540, Note_on_c, 0, 79, 0
2, 30600, Note_on_c, 0, 78, 100
2, 30600, Note_on_c, 0, 81, 100
2, 30660, Note_on_c, 0, 81, 0
2, 30660, Note_on_c, 0, 78, 0
2, 30720, Note_on_c, 0, 79, 100
2, 30720, Note_on_c, 0, 83, 100
2, 30780, Note_on_c, 0, 83, 0
2, 30780, Note_on_c, 0, 79, 0
2, 30840, Note_on_c, 0, 81, 100
2, 30840, Note_on_c, 0, 84, 100
2, 30900, Note_on_c, 0, 84, 0
2, 30900, Note_on_c, 0, 81, 0
2, 30960, Note_on_c, 0, 79, 100
2, 30960, Note_on_c, 0, 83, 100
2, 31020, Note_on_c, 0, 83, 0
2, 31020, Note_on_c, 0, 79, 0
2, 31080, Note_on_c, 0, 78, 100
2, 31080, Note_on_c, 0, 81, 100
2, 31140, Note_on_c, 0, 81, 0
2, 31140, Note_on_c, 0, 78, 0
2, 31200, Note_on_c, 0, 79, 100
2, 31320, Note_on_c, 0, 79, 0
2, 31320, Note_on_c, 0, 71, 100
2, 31320, Note_on_c, 0, 79, 100
2, 31440, Note_on_c, 0, 79, 0
2, 31440, Note_on_c, 0, 71, 0
2, 31560, Note_on_c, 0, 74, 100
2, 31560, Note_on_c, 0, 83, 100
2, 31680, Note_on_c, 0, 83, 0
2, 31680, Note_on_c, 0, 74, 0
2, 31800, Note_on_c, 0, 86, 100
2, 31800, Note_on_c, 0, 83, 100
2, 31920, Note_on_c, 0, 83, 0
2, 31920, Note_on_c, 0, 86, 0
2, 32160, Note_on_c, 0, 64, 100
2, 32400, Note_on_c, 0, 64, 0
2, 33600, Note_on_c, 0, 74, 100
2, 33600, Note_on_c, 0, 80, 100
2, 33720, Note_on_c, 0, 80, 0
2, 33720, Note_on_c, 0, 74, 0
2, 33720, Note_on_c, 0, 72, 100
2, 33720, Note_on_c, 0, 81, 100
2, 33840, Note_on_c, 0, 81, 0
2, 33840, Note_on_c, 0, 72, 0
2, 34080, Note_on_c, 0, 62, 100
2, 34320, Note_on_c, 0, 62, 0
2, 35520, Note_on_c, 0, 72, 100
2, 35520, Note_on_c, 0, 78, 100
2, 35640, Note_on_c, 0, 78, 0
2, 35640, Note_on_c, 0, 72, 0
2, 35640, Note_on_c, 0, 71, 100
2, 35640, Note_on_c, 0, 79, 100
2, 35760, Note_on_c, 0, 79, 0
2, 35760, Note_on_c, 0, 71, 0
2, 36000, Note_on_c, 0, 60, 100
2, 36240, Note_on_c, 0, 60, 0
2, 37920, Note_on_c, 0, 81, 100
2, 37920, Note_on_c, 0, 72, 100
2, 38160, Note_on_c, 0, 81, 0
2, 38160, Note_on_c, 0, 79, 100
2, 38400, Note_on_c, 0, 79, 0
2, 38400, Note_on_c, 0, 81, 100
2, 38640, Note_on_c, 0, 81, 0
2, 38640, Note_on_c, 0, 79, 100
2, 38880, Note_on_c, 0, 79, 0
2, 38880, Note_on_c, 0, 72, 0
2, 38880, Note_on_c, 0, 77, 100
2, 38880, Note_on_c, 0, 69, 100
2, 39120, Note_on_c, 0, 69, 0
2, 39120, Note_on_c, 0, 71, 100
2, 39360, Note_on_c, 0, 71, 0
2, 39360, Note_on_c, 0, 77, 0
2, 39360, Note_on_c, 0, 72, 100
2, 39360, Note_on_c, 0, 76, 100
2, 39600, Note_on_c, 0, 76, 0
2, 39600, Note_on_c, 0, 79, 100
2, 39840, Note_on_c, 0, 79, 0
2, 39840, Note_on_c, 0, 81, 100
2, 39900, Note_on_c, 0, 72, 0
2, 39900, Note_on_c, 0, 77, 100
2, 39960, Note_on_c, 0, 77, 0
2, 39960, Note_on_c, 0, 81, 0
2, 39960, Note_on_c, 0, 76, 100
2, 39960, Note_on_c, 0, 79, 100
2, 40020, Note_on_c, 0, 79, 0
2, 40020, Note_on_c, 0, 76, 0
2, 40020, Note_on_c, 0, 74, 100
2, 40020, Note_on_c, 0, 77, 100
2, 40080, Note_on_c, 0, 77, 0
2, 40080, Note_on_c, 0, 74, 0
2, 40080, Note_on_c, 0, 72, 100
2, 40080, Note_on_c, 0, 76, 100
2, 40140, Note_on_c, 0, 76, 0
2, 40140, Note_on_c, 0, 72, 0
2, 40140, Note_on_c, 0, 74, 100
2, 40140, Note_on_c, 0, 77, 100
2, 40200, Note_on_c, 0, 77, 0
2, 40200, Note_on_c, 0, 74, 0
2, 40200, Note_on_c, 0, 72, 100
2, 40200, Note_on_c, 0, 76, 100
2, 40260, Note_on_c, 0, 76, 0
2, 40260, Note_on_c, 0, 72, 0
2, 40260, Note_on_c, 0, 71, 100
2, 40260, Note_on_c, 0, 74, 100
2, 40320, Note_on_c, 0, 74, 0
2, 40320, Note_on_c, 0, 71, 0
2, 40320, Note_on_c, 0, 72, 100
2, 40440, Note_on_c, 0, 72, 0
2, 40440, Note_on_c, 0, 71, 100
2, 40530, Note_on_c, 0, 71, 0
2, 40530, Note_on_c, 0, 69, 100
2, 40560, Note_on_c, 0, 69, 0
2, 40560, Note_on_c, 0, 67, 100
2, 40680, Note_on_c, 0, 67, 0
2, 42240, Note_on_c, 0, 84, 100
2, 42480, Note_on_c, 0, 84, 0
2, 42480, Note_on_c, 0, 80, 97
2, 42720, Note_on_c, 0, 80, 0
2, 42720, Note_on_c, 0, 81, 97
2, 42960, Note_on_c, 0, 81, 0
2, 42960, Note_on_c, 0, 76, 97
2, 43200, Note_on_c, 0, 76, 0
2, 43200, Note_on_c, 0, 77, 97
2, 43440, Note_on_c, 0, 77, 0
2, 43440, Note_on_c, 0, 71, 100
2, 43680, Note_on_c, 0, 71, 0
2, 43680, Note_on_c, 0, 72, 108
2, 43920, Note_on_c, 0, 72, 0
2, 43920, Note_on_c, 0, 68, 119
2, 44160, Note_on_c, 0, 68, 0
2, 44160, Note_on_c, 0, 67, 124
2, 44280, Note_on_c, 0, 67, 0
2, 44280, Note_on_c, 0, 71, 127
2, 44280, Note_on_c, 0, 79, 127
2, 44370, Note_on_c, 0, 79, 0
2, 44370, Note_on_c, 0, 71, 0
2, 44370, Note_on_c, 0, 71, 127
2, 44370, Note_on_c, 0, 79, 127
2, 44400, Note_on_c, 0, 79, 0
2, 44400, Note_on_c, 0, 71, 0
2, 44400, Note_on_c, 0, 71, 127
2, 44400, Note_on_c, 0, 79, 127
2, 44520, Note_on_c, 0, 79, 0
2, 44520, Note_on_c, 0, 71, 0
2, 44880, Note_on_c, 0, 71, 127
2, 44880, Note_on_c, 0, 74, 127
2, 45000, Note_on_c, 0, 74, 0
2, 45000, Note_on_c, 0, 71, 0
2, 45000, Note_on_c, 0, 72, 127
2, 45000, Note_on_c, 0, 76, 127
2, 45120, Note_on_c, 0, 76, 0
2, 45120, Note_on_c, 0, 72, 0
2, 45120, Note_on_c, 0, 71, 127
2, 45120, Note_on_c, 0, 74, 127
2, 45240, Note_on_c, 0, 74, 0
2, 45240, Note_on_c, 0, 71, 0
2, 45240, Note_on_c, 0, 71, 127
2, 45240, Note_on_c, 0, 79, 127
2, 45330, Note_on_c, 0, 79, 0
2, 45330, Note_on_c, 0, 71, 0
2, 45330, Note_on_c, 0, 71, 127
2, 45330, Note_on_c, 0, 79, 127
2, 45360, Note_on_c, 0, 79, 0
2, 45360, Note_on_c, 0, 71, 0
2, 45360, Note_on_c, 0, 71, 127
2, 45360, Note_on_c, 0, 79, 127
2, 45480, Note_on_c, 0, 79, 0
2, 45480, Note_on_c, 0, 71, 0
2, 45840, Note_on_c, 0, 71, 127
2, 45840, Note_on_c, 0, 74, 127
2, 45960, Note_on_c, 0, 74, 0
2, 45960, Note_on_c, 0, 71, 0
2, 45960, Note_on_c, 0, 72, 127
2, 45960, Note_on_c, 0, 76, 127
2, 46080, Note_on_c, 0, 76, 0
2, 46080, Note_on_c, 0, 72, 0
2, 46080, Note_on_c, 0, 71, 127
2, 46080, Note_on_c, 0, 74, 127
2, 46200, Note_on_c, 0, 74, 0
2, 46200, Note_on_c, 0, 71, 0
2, 46290, Note_on_c, 0, 71, 127
2, 46290, Note_on_c, 0, 74, 127
2, 46320, Note_on_c, 0, 74, 0
2, 46320, Note_on_c, 0, 71, 0
2, 46320, Note_on_c, 0, 71, 127
2, 46320, Note_on_c, 0, 74, 127
2, 46440, Note_on_c, 0, 74, 0
2, 46440, Note_on_c, 0, 71, 0
2, 46530, Note_on_c, 0, 67, 127
2, 46560, Note_on_c, 0, 67, 0
2, 46560, Note_on_c, 0, 67, 127
2, 46680, Note_on_c, 0, 67, 0
2, 49920, Note_on_c, 0, 76, 100
2, 49920, Note_on_c, 0, 79, 100
2, 50100, Note_on_c, 0, 79, 0
2, 50100, Note_on_c, 0, 76, 0
2, 50100, Note_on_c, 0, 77, 100
2, 50100, Note_on_c, 0, 81, 100
2, 50130, Note_on_c, 0, 81, 0
2, 50130, Note_on_c, 0, 77, 0
2, 50130, Note_on_c, 0, 76, 100
2, 50130, Note_on_c, 0, 79, 100
2, 50160, Note_on_c, 0, 79, 0
2, 50160, Note_on_c, 0, 76, 0
2, 50160, Note_on_c, 0, 81, 100
2, 50160, Note_on_c, 0, 84, 100
2, 50280, Note_on_c, 0, 84, 0
2, 50280, Note_on_c, 0, 81, 0
2, 50280, Note_on_c, 0, 79, 100
2, 50280, Note_on_c, 0, 83, 100
2, 50400, Note_on_c, 0, 83, 0
2, 50400, Note_on_c, 0, 79, 0
2, 50400, Note_on_c, 0, 77, 100
2, 50400, Note_on_c, 0, 81, 100
2, 50415, Note_on_c, 0, 81, 0
2, 50415, Note_on_c, 0, 77, 0
2, 50415, Note_on_c, 0, 79, 100
2, 50415, Note_on_c, 0, 83, 100
2, 50430, Note_on_c, 0, 83, 0
2, 50430, Note_on_c, 0, 79, 0
2, 50430, Note_on_c, 0, 77, 100
2, 50430, Note_on_c, 0, 81, 100
2, 50445, Note_on_c, 0, 81, 0
2, 50445, Note_on_c, 0, 77, 0
2, 50445, Note_on_c, 0, 79, 100
2, 50445, Note_on_c, 0, 83, 100
2, 50460, Note_on_c, 0, 83, 0
2, 50460, Note_on_c, 0, 79, 0
2, 50460, Note_on_c, 0, 77, 100
2, 50460, Note_on_c, 0, 81, 100
2, 50475, Note_on_c, 0, 81, 0
2, 50475, Note_on_c, 0, 77, 0
2, 50475, Note_on_c, 0, 79, 100
2, 50475, Note_on_c, 0, 83, 100
2, 50486, Note_on_c, 0, 83, 0
2, 50486, Note_on_c, 0, 79, 0
2, 50486, Note_on_c, 0, 77, 100
2, 50486, Note_on_c, 0, 81, 100
2, 50497, Note_on_c, 0, 81, 0
2, 50497, Note_on_c, 0, 77, 0
2, 50497, Note_on_c, 0, 76, 100
2, 50497, Note_on_c, 0, 79, 100
2, 50508, Note_on_c, 0, 79, 0
2, 50508, Note_on_c, 0, 77, 100
2, 50508, Note_on_c, 0, 81, 100
2, 50512, Note_on_c, 0, 76, 0
2, 50519, Note_on_c, 0, 81, 0
2, 50520, Note_on_c, 0, 76, 100
2, 50520, Note_on_c, 0, 79, 100
2, 50523, Note_on_c, 0, 77, 0
2, 50640, Note_on_c, 0, 79, 0
2, 50640, Note_on_c, 0, 76, 0
2, 50640, Note_on_c, 0, 81, 100
2, 50640, Note_on_c, 0, 84, 100
2, 50760, Note_on_c, 0, 84, 0
2, 50760, Note_on_c, 0, 81, 0
2, 50760, Note_on_c, 0, 79, 100
2, 50760, Note_on_c, 0, 83, 100
2, 50880, Note_on_c, 0, 83, 0
2, 50880, Note_on_c, 0, 79, 0
2, 50880, Note_on_c, 0, 77, 100
2, 50880, Note_on_c, 0, 81, 100
2, 50895, Note_on_c, 0, 81, 0
2, 50895, Note_on_c, 0, 77, 0
2, 50895, Note_on_c, 0, 79, 100
2, 50895, Note_on_c, 0, 83, 100
2, 50910, Note_on_c, 0, 83, 0
2, 50910, Note_on_c, 0, 79, 0
2, 50910, Note_on_c, 0, 77, 100
2, 50910, Note_on_c, 0, 81, 100
2, 50925, Note_on_c, 0, 81, 0
2, 50925, Note_on_c, 0, 77, 0
2, 50925, Note_on_c, 0, 79, 100
2, 50925, Note_on_c, 0, 83, 100
2, 50940, Note_on_c, 0, 83, 0
2, 50940, Note_on_c, 0, 79, 0
2, 50940, Note_on_c, 0, 77, 100
2, 50940, Note_on_c, 0, 81, 100
2, 50955, Note_on_c, 0, 81, 0
2, 50955, Note_on_c, 0, 77, 0
2, 50955, Note_on_c, 0, 79, 100
2, 50955, Note_on_c, 0, 83, 100
2, 50966, Note_on_c, 0, 83, 0
2, 50966, Note_on_c, 0, 79, 0
2, 50966, Note_on_c, 0, 77, 100
2, 50966, Note_on_c, 0, 81, 100
2, 50977, Note_on_c, 0, 81, 0
2, 50977, Note_on_c, 0, 77, 0
2, 50977, Note_on_c, 0, 76, 100
2, 50977, Note_on_c, 0, 79, 100
2, 50988, Note_on_c, 0, 79, 0
2, 50988, Note_on_c, 0, 77, 100
2, 50988, Note_on_c, 0, 81, 100
2, 50992, Note_on_c, 0, 76, 0
2, 50999, Note_on_c, 0, 81, 0
2, 51000, Note_on_c, 0, 76, 100
2, 51000, Note_on_c, 0, 79, 100
2, 51003, Note_on_c, 0, 77, 0
2, 51120, Note_on_c, 0, 79, 0
2, 51120, Note_on_c, 0, 76, 0
2, 52320, Note_on_c, 0, 76, 100
2, 52320, Note_on_c, 0, 79, 100
2, 52500, Note_on_c, 0, 79, 0
2, 52500, Note_on_c, 0, 76, 0
2, 52500, Note_on_c, 0, 77, 100
2, 52500, Note_on_c, 0, 81, 100
2, 52530, Note_on_c, 0, 81, 0
2, 52530, Note_on_c, 0, 77, 0
2, 52530, Note_on_c, 0, 79, 100
2, 52530, Note_on_c, 0, 76, 100
2, 52560, Note_on_c, 0, 76, 0
2, 52560, Note_on_c, 0, 79, 0
2, 52560, Note_on_c, 0, 84, 100
2, 52560, Note_on_c, 0, 81, 100
2, 52680, Note_on_c, 0, 81, 0
2, 52680, Note_on_c, 0, 84, 0
2, 52680, Note_on_c, 0, 83, 100
2, 52680, Note_on_c, 0, 79, 100
2, 52800, Note_on_c, 0, 79, 0
2, 52800, Note_on_c, 0, 83, 0
2, 52800, Note_on_c, 0, 77, 100
2, 52800, Note_on_c, 0, 81, 100
2, 52815, Note_on_c, 0, 81, 0
2, 52815, Note_on_c, 0, 77, 0
2, 52815, Note_on_c, 0, 79, 100
2, 52815, Note_on_c, 0, 83, 100
2, 52830, Note_on_c, 0, 83, 0
2, 52830, Note_on_c, 0, 79, 0
2, 52830, Note_on_c, 0, 77, 100
2, 52830, Note_on_c, 0, 81, 100
2, 52845, Note_on_c, 0, 81, 0
2, 52845, Note_on_c, 0, 77, 0
2, 52845, Note_on_c, 0, 79, 100
2, 52845, Note_on_c, 0, 83, 100
2, 52860, Note_on_c, 0, 83, 0
2, 52860, Note_on_c, 0, 79, 0
2, 52860, Note_on_c, 0, 77, 100
2, 52860, Note_on_c, 0, 81, 100
2, 52875, Note_on_c, 0, 81, 0
2, 52875, Note_on_c, 0, 77, 0
2, 52875, Note_on_c, 0, 83, 100
2, 52875, Note_on_c, 0, 79, 100
2, 52886, Note_on_c, 0, 79, 0
2, 52886, Note_on_c, 0, 83, 0
2, 52886, Note_on_c, 0, 77, 100
2, 52886, Note_on_c, 0, 81, 100
2, 52897, Note_on_c, 0, 81, 0
2, 52897, Note_on_c, 0, 77, 0
2, 52897, Note_on_c, 0, 79, 100
2, 52897, Note_on_c, 0, 76, 100
2, 52908, Note_on_c, 0, 79, 0
2, 52908, Note_on_c, 0, 77, 100
2, 52908, Note_on_c, 0, 81, 100
2, 52912, Note_on_c, 0, 76, 0
2, 52919, Note_on_c, 0, 81, 0
2, 52920, Note_on_c, 0, 79, 100
2, 52920, Note_on_c, 0, 76, 100
2, 52923, Note_on_c, 0, 77, 0
2, 53040, Note_on_c, 0, 76, 0
2, 53040, Note_on_c, 0, 79, 0
2, 53040, Note_on_c, 0, 81, 100
2, 53040, Note_on_c, 0, 84, 100
2, 53160, Note_on_c, 0, 84, 0
2, 53160, Note_on_c, 0, 81, 0
2, 53160, Note_on_c, 0, 83, 100
2, 53160, Note_on_c, 0, 79, 100
2, 53280, Note_on_c, 0, 79, 0
2, 53280, Note_on_c, 0, 83, 0
2, 53280, Note_on_c, 0, 81, 100
2, 53280, Note_on_c, 0, 77, 100
2, 53295, Note_on_c, 0, 77, 0
2, 53295, Note_on_c, 0, 81, 0
2, 53295, Note_on_c, 0, 79, 100
2, 53295, Note_on_c, 0, 83, 100
2, 53310, Note_on_c, 0, 83, 0
2, 53310, Note_on_c, 0, 79, 0
2, 53310, Note_on_c, 0, 81, 100
2, 53310, Note_on_c, 0, 77, 100
2, 53325, Note_on_c, 0, 77, 0
2, 53325, Note_on_c, 0, 81, 0
2, 53325, Note_on_c, 0, 79, 100
2, 53325, Note_on_c, 0, 83, 100
2, 53340, Note_on_c, 0, 83, 0
2, 53340, Note_on_c, 0, 79, 0
2, 53340, Note_on_c, 0, 77, 100
2, 53340, Note_on_c, 0, 81, 100
2, 53355, Note_on_c, 0, 81, 0
2, 53355, Note_on_c, 0, 77, 0
2, 53355, Note_on_c, 0, 79, 100
2, 53355, Note_on_c, 0, 83, 100
2, 53366, Note_on_c, 0, 83, 0
2, 53366, Note_on_c, 0, 79, 0
2, 53366, Note_on_c, 0, 77, 100
2, 53366, Note_on_c, 0, 81, 100
2, 53377, Note_on_c, 0, 81, 0
2, 53377, Note_on_c, 0, 77, 0
2, 53377, Note_on_c, 0, 79, 100
2, 53377, Note_on_c, 0, 76, 100
2, 53388, Note_on_c, 0, 79, 0
2, 53388, Note_on_c, 0, 77, 100
2, 53388, Note_on_c, 0, 81, 100
2, 53392, Note_on_c, 0, 76, 0
2, 53399, Note_on_c, 0, 81, 0
2, 53400, Note_on_c, 0, 76, 100
2, 53400, Note_on_c, 0, 79, 100
2, 53403, Note_on_c, 0, 77, 0
2, 53520, Note_on_c, 0, 79, 0
2, 53520, Note_on_c, 0, 76, 0
2, 54720, Note_on_c, 0, 67, 100
2, 54720, Note_on_c, 0, 72, 100
2, 54840, Note_on_c, 0, 72, 0
2, 54840, Note_on_c, 0, 67, 0
2, 54840, Note_on_c, 0, 72, 100
2, 54840, Note_on_c, 0, 76, 100
2, 54960, Note_on_c, 0, 76, 0
2, 54960, Note_on_c, 0, 72, 0
2, 54960, Note_on_c, 0, 76, 100
2, 54960, Note_on_c, 0, 79, 100
2, 55080, Note_on_c, 0, 79, 0
2, 55080, Note_on_c, 0, 76, 0
2, 55200, Note_on_c, 0, 65, 100
2, 55200, Note_on_c, 0, 71, 100
2, 55320, Note_on_c, 0, 71, 0
2, 55320, Note_on_c, 0, 65, 0
2, 55320, Note_on_c, 0, 71, 100
2, 55320, Note_on_c, 0, 74, 100
2, 55440, Note_on_c, 0, 74, 0
2, 55440, Note_on_c, 0, 71, 0
2, 55440, Note_on_c, 0, 71, 100
2, 55440, Note_on_c, 0, 77, 100
2, 55560, Note_on_c, 0, 77, 0
2, 55560, Note_on_c, 0, 71, 0
2, 55680, Note_on_c, 0, 72, 100
2, 55680, Note_on_c, 0, 76, 100
2, 55800, Note_on_c, 0, 76, 0
2, 55800, Note_on_c, 0, 72, 0
2, 55800, Note_on_c, 0, 76, 100
2, 55800, Note_on_c, 0, 79, 100
2, 55920, Note_on_c, 0, 79, 0
2, 55920, Note_on_c, 0, 76, 0
2, 55920, Note_on_c, 0, 79, 100
2, 55920, Note_on_c, 0, 84, 100
2, 56040, Note_on_c, 0, 84, 0
2, 56040, Note_on_c, 0, 79, 0
2, 56160, Note_on_c, 0, 74, 100
2, 56160, Note_on_c, 0, 83, 100
2, 56280, Note_on_c, 0, 83, 0
2, 56280, Note_on_c, 0, 74, 0
2, 56280, Note_on_c, 0, 77, 100
2, 56280, Note_on_c, 0, 86, 100
2, 56400, Note_on_c, 0, 86, 0
2, 56400, Note_on_c, 0, 77, 0
2, 56400, Note_on_c, 0, 71, 100
2, 56400, Note_on_c, 0, 77, 100
2, 56520, Note_on_c, 0, 77, 0
2, 56520, Note_on_c, 0, 71, 0
2, 56640, Note_on_c, 0, 72, 100
2, 56640, Note_on_c, 0, 76, 100
2, 56760, Note_on_c, 0, 76, 0
2, 56760, Note_on_c, 0, 72, 0
2, 57000, Note_on_c, 0, 72, 100
2, 57000, Note_on_c, 0, 76, 100
2, 57120, Note_on_c, 0, 76, 0
2, 57120, Note_on_c, 0, 72, 0
2, 57120, Note_on_c, 0, 72, 100
2, 57120, Note_on_c, 0, 76, 100
2, 57240, Note_on_c, 0, 76, 0
2, 57240, Note_on_c, 0, 72, 0
2, 57480, Note_on_c, 0, 72, 100
2, 57480, Note_on_c, 0, 76, 100
2, 57600, Note_on_c, 0, 76, 0
2, 57600, Note_on_c, 0, 72, 0
2, 57600, Note_on_c, 0, 76, 100
2, 57600, Note_on_c, 0, 79, 100
2, 57720, Note_on_c, 0, 79, 0
2, 57720, Note_on_c, 0, 76, 0
2, 57960, Note_on_c, 0, 79, 100
2, 57960, Note_on_c, 0, 82, 100
2, 58080, Note_on_c, 0, 82, 0
2, 58080, Note_on_c, 0, 79, 0
2, 58080, Note_on_c, 0, 77, 100
2, 58080, Note_on_c, 0, 81, 100
2, 58320, Note_on_c, 0, 81, 0
2, 58320, Note_on_c, 0, 77, 0
2, 58320, Note_on_c, 0, 76, 100
2, 58320, Note_on_c, 0, 79, 100
2, 58440, Note_on_c, 0, 79, 0
2, 58440, Note_on_c, 0, 76, 0
2, 58440, Note_on_c, 0, 71, 100
2, 58440, Note_on_c, 0, 74, 100
2, 58560, Note_on_c, 0, 74, 0
2, 58560, Note_on_c, 0, 71, 0
2, 58560, Note_on_c, 0, 72, 100
2, 58680, Note_on_c, 0, 72, 0
2, 58920, Note_on_c, 0, 72, 100
2, 58920, Note_on_c, 0, 76, 100
2, 59040, Note_on_c, 0, 76, 0
2, 59040, Note_on_c, 0, 72, 0
2, 59040, Note_on_c, 0, 72, 100
2, 59040, Note_on_c, 0, 76, 100
2, 59160, Note_on_c, 0, 76, 0
2, 59160, Note_on_c, 0, 72, 0
2, 59400, Note_on_c, 0, 72, 100
2, 59400, Note_on_c, 0, 76, 100
2, 59520, Note_on_c, 0, 76, 0
2, 59520, Note_on_c, 0, 72, 0
2, 59520, Note_on_c, 0, 72, 100
2, 59520, Note_on_c, 0, 79, 100
2, 59640, Note_on_c, 0, 79, 0
2, 59640, Note_on_c, 0, 72, 0
2, 59880, Note_on_c, 0, 79, 100
2, 59880, Note_on_c, 0, 82, 100
2, 60000, Note_on_c, 0, 82, 0
2, 60000, Note_on_c, 0, 79, 0
2, 60000, Note_on_c, 0, 77, 100
2, 60000, Note_on_c, 0, 81, 100
2, 60120, Note_on_c, 0, 81, 0
2, 60120, Note_on_c, 0, 77, 0
2, 60120, Note_on_c, 0, 69, 100
2, 60120, Note_on_c, 0, 77, 100
2, 60240, Note_on_c, 0, 77, 0
2, 60240, Note_on_c, 0, 69, 0
2, 60240, Note_on_c, 0, 67, 100
2, 60240, Note_on_c, 0, 76, 100
2, 60360, Note_on_c, 0, 76, 0
2, 60360, Note_on_c, 0, 67, 0
2, 60360, Note_on_c, 0, 65, 100
2, 60360, Note_on_c, 0, 74, 100
2, 60480, Note_on_c, 0, 74, 0
2, 60480, Note_on_c, 0, 65, 0
2, 60480, Note_on_c, 0, 64, 100
2, 60480, Note_on_c, 0, 72, 100
2, 61560, Note_on_c, 0, 72, 0
2, 61560, Note_on_c, 0, 64, 0
2, 61680, Note_on_c, 0, 72, 100
2, 61680, Note_on_c, 0, 64, 100
2, 61740, Note_on_c, 0, 64, 0
2, 61740, Note_on_c, 0, 72, 0
2, 61800, Note_on_c, 0, 74, 100
2, 61800, Note_on_c, 0, 67, 100
2, 61860, Note_on_c, 0, 67, 0
2, 61860, Note_on_c, 0, 74, 0
2, 61920, Note_on_c, 0, 72, 100
2, 61920, Note_on_c, 0, 76, 100
2, 61980, Note_on_c, 0, 76, 0
2, 61980, Note_on_c, 0, 72, 0
2, 62040, Note_on_c, 0, 74, 100
2, 62040, Note_on_c, 0, 77, 100
2, 62100, Note_on_c, 0, 77, 0
2, 62100, Note_on_c, 0, 74, 0
2, 62160, Note_on_c, 0, 72, 100
2, 62160, Note_on_c, 0, 76, 100
2, 62220, Note_on_c, 0, 76, 0
2, 62220, Note_on_c, 0, 72, 0
2, 62280, Note_on_c, 0, 71, 100
2, 62280, Note_on_c, 0, 74, 100
2, 62340, Note_on_c, 0, 74, 0
2, 62340, Note_on_c, 0, 71, 0
2, 62400, Note_on_c, 0, 72, 100
2, 62400, Note_on_c, 0, 76, 100
2, 62460, Note_on_c, 0, 76, 0
2, 62460, Note_on_c, 0, 72, 0
2, 62520, Note_on_c, 0, 74, 100
2, 62520, Note_on_c, 0, 77, 100
2, 62580, Note_on_c, 0, 77, 0
2, 62580, Note_on_c, 0, 74, 0
2, 62640, Note_on_c, 0, 72, 100
2, 62640, Note_on_c, 0, 76, 100
2, 62700, Note_on_c, 0, 76, 0
2, 62700, Note_on_c, 0, 72, 0
2, 62760, Note_on_c, 0, 71, 100
2, 62760, Note_on_c, 0, 74, 100
2, 62820, Note_on_c, 0, 74, 0
2, 62820, Note_on_c, 0, 71, 0
2, 62880, Note_on_c, 0, 76, 100
2, 62880, Note_on_c, 0, 79, 100
2, 62940, Note_on_c, 0, 79, 0
2, 62940, Note_on_c, 0, 76, 0
2, 63000, Note_on_c, 0, 74, 100
2, 63000, Note_on_c, 0, 77, 100
2, 63060, Note_on_c, 0, 77, 0
2, 63060, Note_on_c, 0, 74, 0
2, 63120, Note_on_c, 0, 72, 100
2, 63120, Note_on_c, 0, 76, 100
2, 63180, Note_on_c, 0, 76, 0
2, 63180, Note_on_c, 0, 72, 0
2, 63240, Note_on_c, 0, 71, 100
2, 63240, Note_on_c, 0, 74, 100
2, 63300, Note_on_c, 0, 74, 0
2, 63300, Note_on_c, 0, 71, 0
2, 63360, Note_on_c, 0, 72, 100
2, 63480, Note_on_c, 0, 72, 0
2, 63480, Note_on_c, 0, 76, 100
2, 63480, Note_on_c, 0, 72, 100
2, 63600, Note_on_c, 0, 72, 0
2, 63600, Note_on_c, 0, 76, 0
2, 63720, Note_on_c, 0, 76, 100
2, 63720, Note_on_c, 0, 79, 100
2, 63840, Note_on_c, 0, 79, 0
2, 63840, Note_on_c, 0, 76, 0
2, 63960, Note_on_c, 0, 76, 100
2, 63960, Note_on_c, 0, 84, 100
2, 64080, Note_on_c, 0, 84, 0
2, 64080, Note_on_c, 0, 76, 0
2, 64080, Note_on_c, 0, 60, 100
2, 64200, Note_on_c, 0, 60, 0
2, 64200, Note_on_c, 0, 60, 100
2, 64320, Note_on_c, 0, 60, 0
2, 64320, Note_on_c, 0, 60, 100
2, 64800, Note_on_c, 0, 60, 0
2, 64800, End_track
3, 0, Start_track
3, 0, MIDI_port, 0
3, 0, Title_t, "Trumpets"
3, 0, Control_c, 1, 0, 4
3, 0, Program_c, 1, 56
3, 0, Control_c, 1, 7, 115
3, 0, Control_c, 1, 10, 70
3, 0, Note_on_c, 1, 72, 100
3, 0, Note_on_c, 1, 60, 100
3, 120, Note_on_c, 1, 60, 0
3, 120, Note_on_c, 1, 72, 0
3, 120, Note_on_c, 1, 76, 100
3, 120, Note_on_c, 1, 64, 100
3, 240, Note_on_c, 1, 64, 0
3, 240, Note_on_c, 1, 76, 0
3, 240, Note_on_c, 1, 79, 100
3, 240, Note_on_c, 1, 67, 100
3, 360, Note_on_c, 1, 67, 0
3, 360, Note_on_c, 1, 79, 0
3, 360, Note_on_c, 1, 76, 100
3, 360, Note_on_c, 1, 64, 100
3, 480, Note_on_c, 1, 64, 0
3, 480, Note_on_c, 1, 76, 0
3, 480, Note_on_c, 1, 72, 100
3, 480, Note_on_c, 1, 60, 100
3, 600, Note_on_c, 1, 60, 0
3, 600, Note_on_c, 1, 72, 0
3, 600, Note_on_c, 1, 76, 100
3, 600, Note_on_c, 1, 64, 100
3, 720, Note_on_c, 1, 64, 0
3, 720, Note_on_c, 1, 76, 0
3, 720, Note_on_c, 1, 79, 100
3, 720, Note_on_c, 1, 67, 100
3, 840, Note_on_c, 1, 67, 0
3, 840, Note_on_c, 1, 79, 0
3, 840, Note_on_c, 1, 76, 100
3, 840, Note_on_c, 1, 64, 100
3, 960, Note_on_c, 1, 64, 0
3, 960, Note_on_c, 1, 76, 0
3, 960, Note_on_c, 1, 72, 100
3, 960, Note_on_c, 1, 60, 100
3, 1080, Note_on_c, 1, 60, 0
3, 1080, Note_on_c, 1, 72, 0
3, 1200, Note_on_c, 1, 64, 100
3, 1200, Note_on_c, 1, 72, 100
3, 1260, Note_on_c, 1, 72, 0
3, 1260, Note_on_c, 1, 64, 0
3, 1320, Note_on_c, 1, 67, 100
3, 1320, Note_on_c, 1, 74, 100
3, 1380, Note_on_c, 1, 74, 0
3, 1380, Note_on_c, 1, 67, 0
3, 1440, Note_on_c, 1, 72, 100
3, 1440, Note_on_c, 1, 76, 100
3, 1500, Note_on_c, 1, 76, 0
3, 1500, Note_on_c, 1, 72, 0
3, 1560, Note_on_c, 1, 74, 100
3, 1560, Note_on_c, 1, 77, 100
3, 1620, Note_on_c, 1, 77, 0
3, 1620, Note_on_c, 1, 74, 0
3, 1680, Note_on_c, 1, 76, 100
3, 1680, Note_on_c, 1, 79, 100
3, 1740, Note_on_c, 1, 79, 0
3, 1740, Note_on_c, 1, 76, 0
3, 1800, Note_on_c, 1, 72, 100
3, 1800, Note_on_c, 1, 76, 100
3, 1860, Note_on_c, 1, 76, 0
3, 1860, Note_on_c, 1, 72, 0
3, 1920, Note_on_c, 1, 67, 100
3, 1920, Note_on_c, 1, 74, 100
3, 3000, Note_on_c, 1, 74, 0
3, 3000, Note_on_c, 1, 67, 0
3, 3120, Note_on_c, 1, 67, 100
3, 3120, Note_on_c, 1, 74, 100
3, 3180, Note_on_c, 1, 74, 0
3, 3180, Note_on_c, 1, 67, 0
3, 3240, Note_on_c, 1, 72, 100
3, 3240, Note_on_c, 1, 76, 100
3, 3300, Note_on_c, 1, 76, 0
3, 3300, Note_on_c, 1, 72, 0
3, 3360, Note_on_c, 1, 74, 100
3, 3360, Note_on_c, 1, 77, 100
3, 3420, Note_on_c, 1, 77, 0
3, 3420, Note_on_c, 1, 74, 0
3, 3720, Note_on_c, 1, 67, 100
3, 3720, Note_on_c, 1, 74, 100
3, 3780, Note_on_c, 1, 74, 0
3, 3780, Note_on_c, 1, 67, 0
3, 3840, Note_on_c, 1, 60, 100
3, 3840, Note_on_c, 1, 72, 100
3, 3960, Note_on_c, 1, 72, 0
3, 3960, Note_on_c, 1, 60, 0
3, 3960, Note_on_c, 1, 64, 100
3, 3960, Note_on_c, 1, 76, 100
3, 4080, Note_on_c, 1, 76, 0
3, 4080, Note_on_c, 1, 64, 0
3, 4080, Note_on_c, 1, 67, 100
3, 4080, Note_on_c, 1, 79, 100
3, 4200, Note_on_c, 1, 79, 0
3, 4200, Note_on_c, 1, 67, 0
3, 4200, Note_on_c, 1, 64, 100
3, 4200, Note_on_c, 1, 76, 100
3, 4320, Note_on_c, 1, 76, 0
3, 4320, Note_on_c, 1, 64, 0
3, 4320, Note_on_c, 1, 60, 100
3, 4320, Note_on_c, 1, 72, 100
3, 4440, Note_on_c, 1, 72, 0
3, 4440, Note_on_c, 1, 60, 0
3, 4440, Note_on_c, 1, 64, 100
3, 4440, Note_on_c, 1, 76, 100
3, 4560, Note_on_c, 1, 76, 0
3, 4560, Note_on_c, 1, 64, 0
3, 4560, Note_on_c, 1, 67, 100
3, 4560, Note_on_c, 1, 79, 100
3, 4680, Note_on_c, 1, 79, 0
3, 4680, Note_on_c, 1, 67, 0
3, 4680, Note_on_c, 1, 64, 100
3, 4680, Note_on_c, 1, 76, 100
3, 4800, Note_on_c, 1, 76, 0
3, 4800, Note_on_c, 1, 64, 0
3, 4800, Note_on_c, 1, 72, 100
3, 4800, Note_on_c, 1, 60, 100
3, 4920, Note_on_c, 1, 60, 0
3, 4920, Note_on_c, 1, 72, 0
3, 5040, Note_on_c, 1, 64, 100
3, 5040, Note_on_c, 1, 72, 100
3, 5100, Note_on_c, 1, 72, 0
3, 5100, Note_on_c, 1, 64, 0
3, 5160, Note_on_c, 1, 67, 100
3, 5160, Note_on_c, 1, 74, 100
3, 5220, Note_on_c, 1, 74, 0
3, 5220, Note_on_c, 1, 67, 0
3, 5280, Note_on_c, 1, 72, 100
3, 5280, Note_on_c, 1, 76, 100
3, 5340, Note_on_c, 1, 76, 0
3, 5340, Note_on_c, 1, 72, 0
3, 5400, Note_on_c, 1, 74, 100
3, 5400, Note_on_c, 1, 77, 100
3, 5460, Note_on_c, 1, 77, 0
3, 5460, Note_on_c, 1, 74, 0
3, 5520, Note_on_c, 1, 76, 100
3, 5520, Note_on_c, 1, 79, 100
3, 5580, Note_on_c, 1, 79, 0
3, 5580, Note_on_c, 1, 76, 0
3, 5640, Note_on_c, 1, 72, 100
3, 5640, Note_on_c, 1, 76, 100
3, 5700, Note_on_c, 1, 76, 0
3, 5700, Note_on_c, 1, 72, 0
3, 5760, Note_on_c, 1, 60, 100
3, 5760, Note_on_c, 1, 72, 100
3, 6720, Note_on_c, 1, 72, 0
3, 6720, Note_on_c, 1, 60, 0
3, 6960, Note_on_c, 1, 67, 100
3, 6960, Note_on_c, 1, 74, 100
3, 7200, Note_on_c, 1, 74, 0
3, 7200, Note_on_c, 1, 67, 0
3, 7200, Note_on_c, 1, 60, 100
3, 7200, Note_on_c, 1, 72, 100
3, 7800, Note_on_c, 1, 72, 0
3, 7800, Note_on_c, 1, 60, 0
3, 7860, Note_on_c, 1, 74, 100
3, 7860, Note_on_c, 1, 77, 100
3, 7920, Note_on_c, 1, 77, 0
3, 7920, Note_on_c, 1, 74, 0
3, 7920, Note_on_c, 1, 72, 100
3, 7920, Note_on_c, 1, 76, 100
3, 7980, Note_on_c, 1, 76, 0
3, 7980, Note_on_c, 1, 72, 0
3, 7980, Note_on_c, 1, 74, 100
3, 7980, Note_on_c, 1, 77, 100
3, 8040, Note_on_c, 1, 77, 0
3, 8040, Note_on_c, 1, 74, 0
3, 8040, Note_on_c, 1, 72, 100
3, 8040, Note_on_c, 1, 76, 100
3, 8100, Note_on_c, 1, 76, 0
3, 8100, Note_on_c, 1, 72, 0
3, 8100, Note_on_c, 1, 67, 100
3, 8100, Note_on_c, 1, 74, 100
3, 8160, Note_on_c, 1, 74, 0
3, 8160, Note_on_c, 1, 67, 0
3, 8160, Note_on_c, 1, 60, 100
3, 8160, Note_on_c, 1, 72, 100
3, 8280, Note_on_c, 1, 72, 0
3, 8280, Note_on_c, 1, 60, 0
3, 8400, Note_on_c, 1, 55, 100
3, 8400, Note_on_c, 1, 67, 100
3, 8520, Note_on_c, 1, 67, 0
3, 8520, Note_on_c, 1, 55, 0
3, 10080, Note_on_c, 1, 60, 100
3, 10080, Note_on_c, 1, 72, 100
3, 11040, Note_on_c, 1, 72, 0
3, 11040, Note_on_c, 1, 60, 0
3, 11040, Note_on_c, 1, 67, 102
3, 11040, Note_on_c, 1, 74, 102
3, 11520, Note_on_c, 1, 74, 0
3, 11520, Note_on_c, 1, 67, 0
3, 11520, Note_on_c, 1, 60, 113
3, 11520, Note_on_c, 1, 72, 113
3, 12000, Note_on_c, 1, 72, 0
3, 12000, Note_on_c, 1, 60, 0
3, 12000, Note_on_c, 1, 67, 127
3, 12000, Note_on_c, 1, 74, 127
3, 12120, Note_on_c, 1, 74, 0
3, 12120, Note_on_c, 1, 67, 0
3, 12120, Note_on_c, 1, 67, 127
3, 12120, Note_on_c, 1, 74, 127
3, 12210, Note_on_c, 1, 74, 0
3, 12210, Note_on_c, 1, 67, 0
3, 12210, Note_on_c, 1, 67, 127
3, 12210, Note_on_c, 1, 74, 127
3, 12240, Note_on_c, 1, 74, 0
3, 12240, Note_on_c, 1, 67, 0
3, 12240, Note_on_c, 1, 67, 127
3, 12240, Note_on_c, 1, 74, 127
3, 12360, Note_on_c, 1, 74, 0
3, 12360, Note_on_c, 1, 67, 0
3, 12720, Note_on_c, 1, 67, 127
3, 12720, Note_on_c, 1, 74, 127
3, 12840, Note_on_c, 1, 74, 0
3, 12840, Note_on_c, 1, 67, 0
3, 12840, Note_on_c, 1, 72, 127
3, 12840, Note_on_c, 1, 76, 127
3, 12960, Note_on_c, 1, 76, 0
3, 12960, Note_on_c, 1, 72, 0
3, 12960, Note_on_c, 1, 67, 127
3, 12960, Note_on_c, 1, 74, 127
3, 13080, Note_on_c, 1, 74, 0
3, 13080, Note_on_c, 1, 67, 0
3, 13080, Note_on_c, 1, 67, 127
3, 13080, Note_on_c, 1, 74, 127
3, 13170, Note_on_c, 1, 74, 0
3, 13170, Note_on_c, 1, 67, 0
3, 13170, Note_on_c, 1, 67, 127
3, 13170, Note_on_c, 1, 74, 127
3, 13200, Note_on_c, 1, 74, 0
3, 13200, Note_on_c, 1, 67, 0
3, 13200, Note_on_c, 1, 67, 127
3, 13200, Note_on_c, 1, 74, 127
3, 13320, Note_on_c, 1, 74, 0
3, 13320, Note_on_c, 1, 67, 0
3, 13680, Note_on_c, 1, 67, 127
3, 13680, Note_on_c, 1, 74, 127
3, 13800, Note_on_c, 1, 74, 0
3, 13800, Note_on_c, 1, 67, 0
3, 13800, Note_on_c, 1, 72, 127
3, 13800, Note_on_c, 1, 76, 127
3, 13920, Note_on_c, 1, 76, 0
3, 13920, Note_on_c, 1, 72, 0
3, 13920, Note_on_c, 1, 67, 127
3, 13920, Note_on_c, 1, 74, 127
3, 14040, Note_on_c, 1, 74, 0
3, 14040, Note_on_c, 1, 67, 0
3, 14160, Note_on_c, 1, 67, 127
3, 14160, Note_on_c, 1, 79, 127
3, 14280, Note_on_c, 1, 79, 0
3, 14280, Note_on_c, 1, 67, 0
3, 14400, Note_on_c, 1, 55, 127
3, 14400, Note_on_c, 1, 67, 127
3, 14520, Note_on_c, 1, 67, 0
3, 14520, Note_on_c, 1, 55, 0
3, 17760, Note_on_c, 1, 55, 100
3, 17760, Note_on_c, 1, 67, 100
3, 18960, Note_on_c, 1, 67, 0
3, 18960, Note_on_c, 1, 55, 0
3, 20160, Note_on_c, 1, 55, 100
3, 20160, Note_on_c, 1, 67, 100
3, 21360, Note_on_c, 1, 67, 0
3, 21360, Note_on_c, 1, 55, 0
3, 22560, Note_on_c, 1, 67, 100
3, 22560, Note_on_c, 1, 74, 100
3, 22680, Note_on_c, 1, 74, 0
3, 22680, Note_on_c, 1, 67, 0
3, 22800, Note_on_c, 1, 67, 100
3, 22800, Note_on_c, 1, 74, 100
3, 22920, Note_on_c, 1, 74, 0
3, 22920, Note_on_c, 1, 67, 0
3, 22920, Note_on_c, 1, 67, 100
3, 22920, Note_on_c, 1, 74, 100
3, 23040, Note_on_c, 1, 74, 0
3, 23040, Note_on_c, 1, 67, 0
3, 23040, Note_on_c, 1, 74, 100
3, 23160, Note_on_c, 1, 74, 0
3, 23280, Note_on_c, 1, 74, 100
3, 23400, Note_on_c, 1, 74, 0
3, 23400, Note_on_c, 1, 74, 100
3, 23520, Note_on_c, 1, 74, 0
3, 23520, Note_on_c, 1, 67, 100
3, 23520, Note_on_c, 1, 74, 100
3, 23640, Note_on_c, 1, 74, 0
3, 23640, Note_on_c, 1, 67, 0
3, 23760, Note_on_c, 1, 67, 100
3, 23760, Note_on_c, 1, 74, 100
3, 23880, Note_on_c, 1, 74, 0
3, 23880, Note_on_c, 1, 67, 0
3, 23880, Note_on_c, 1, 67, 100
3, 23880, Note_on_c, 1, 74, 100
3, 24000, Note_on_c, 1, 74, 0
3, 24000, Note_on_c, 1, 67, 0
3, 24000, Note_on_c, 1, 74, 100
3, 24120, Note_on_c, 1, 74, 0
3, 24240, Note_on_c, 1, 74, 100
3, 24360, Note_on_c, 1, 74, 0
3, 24360, Note_on_c, 1, 74, 100
3, 24480, Note_on_c, 1, 74, 0
3, 24480, Note_on_c, 1, 67, 100
3, 24480, Note_on_c, 1, 74, 100
3, 24600, Note_on_c, 1, 74, 0
3, 24600, Note_on_c, 1, 67, 0
3, 24840, Note_on_c, 1, 67, 100
3, 24840, Note_on_c, 1, 74, 100
3, 24960, Note_on_c, 1, 74, 0
3, 24960, Note_on_c, 1, 67, 0
3, 24960, Note_on_c, 1, 67, 100
3, 24960, Note_on_c, 1, 76, 100
3, 25080, Note_on_c, 1, 76, 0
3, 25080, Note_on_c, 1, 67, 0
3, 25320, Note_on_c, 1, 76, 100
3, 25320, Note_on_c, 1, 67, 100
3, 25440, Note_on_c, 1, 67, 0
3, 25440, Note_on_c, 1, 76, 0
3, 25440, Note_on_c, 1, 67, 100
3, 25440, Note_on_c, 1, 74, 100
3, 25560, Note_on_c, 1, 74, 0
3, 25560, Note_on_c, 1, 67, 0
3, 25800, Note_on_c, 1, 67, 100
3, 25800, Note_on_c, 1, 74, 100
3, 25920, Note_on_c, 1, 74, 0
3, 25920, Note_on_c, 1, 67, 0
3, 25920, Note_on_c, 1, 67, 100
3, 25920, Note_on_c, 1, 76, 100
3, 26040, Note_on_c, 1, 76, 0
3, 26040, Note_on_c, 1, 67, 0
3, 26040, Note_on_c, 1, 72, 100
3, 26040, Note_on_c, 1, 76, 100
3, 26160, Note_on_c, 1, 76, 0
3, 26160, Note_on_c, 1, 72, 0
3, 26160, Note_on_c, 1, 74, 100
3, 26280, Note_on_c, 1, 74, 0
3, 26280, Note_on_c, 1, 74, 100
3, 26400, Note_on_c, 1, 74, 0
3, 26400, Note_on_c, 1, 67, 100
3, 26400, Note_on_c, 1, 74, 100
3, 26520, Note_on_c, 1, 74, 0
3, 26520, Note_on_c, 1, 67, 0
3, 26760, Note_on_c, 1, 67, 100
3, 26760, Note_on_c, 1, 74, 100
3, 26880, Note_on_c, 1, 74, 0
3, 26880, Note_on_c, 1, 67, 0
3, 26880, Note_on_c, 1, 67, 100
3, 26880, Note_on_c, 1, 76, 100
3, 27000, Note_on_c, 1, 76, 0
3, 27000, Note_on_c, 1, 67, 0
3, 27240, Note_on_c, 1, 76, 100
3, 27240, Note_on_c, 1, 67, 100
3, 27360, Note_on_c, 1, 67, 0
3, 27360, Note_on_c, 1, 76, 0
3, 27360, Note_on_c, 1, 67, 100
3, 27360, Note_on_c, 1, 74, 100
3, 27480, Note_on_c, 1, 74, 0
3, 27480, Note_on_c, 1, 67, 0
3, 27720, Note_on_c, 1, 67, 100
3, 27720, Note_on_c, 1, 74, 100
3, 27840, Note_on_c, 1, 74, 0
3, 27840, Note_on_c, 1, 67, 0
3, 27840, Note_on_c, 1, 67, 100
3, 27840, Note_on_c, 1, 76, 100
3, 27960, Note_on_c, 1, 76, 0
3, 27960, Note_on_c, 1, 67, 0
3, 27960, Note_on_c, 1, 72, 100
3, 27960, Note_on_c, 1, 76, 100
3, 28080, Note_on_c, 1, 76, 0
3, 28080, Note_on_c, 1, 72, 0
3, 28080, Note_on_c, 1, 74, 100
3, 28200, Note_on_c, 1, 74, 0
3, 28200, Note_on_c, 1, 74, 100
3, 28320, Note_on_c, 1, 74, 0
3, 28320, Note_on_c, 1, 67, 100
3, 28320, Note_on_c, 1, 74, 100
3, 29400, Note_on_c, 1, 74, 0
3, 29400, Note_on_c, 1, 67, 0
3, 29520, Note_on_c, 1, 67, 100
3, 29520, Note_on_c, 1, 74, 100
3, 29580, Note_on_c, 1, 74, 0
3, 29580, Note_on_c, 1, 67, 0
3, 29640, Note_on_c, 1, 74, 100
3, 29700, Note_on_c, 1, 74, 0
3, 29760, Note_on_c, 1, 67, 100
3, 29760, Note_on_c, 1, 74, 100
3, 29820, Note_on_c, 1, 74, 0
3, 29820, Note_on_c, 1, 67, 0
3, 29880, Note_on_c, 1, 72, 100
3, 29880, Note_on_c, 1, 76, 100
3, 29940, Note_on_c, 1, 76, 0
3, 29940, Note_on_c, 1, 72, 0
3, 30000, Note_on_c, 1, 74, 100
3, 30060, Note_on_c, 1, 74, 0
3, 30120, Note_on_c, 1, 74, 100
3, 30180, Note_on_c, 1, 74, 0
3, 30240, Note_on_c, 1, 67, 100
3, 30240, Note_on_c, 1, 74, 100
3, 30300, Note_on_c, 1, 74, 0
3, 30300, Note_on_c, 1, 67, 0
3, 30360, Note_on_c, 1, 72, 100
3, 30360, Note_on_c, 1, 76, 100
3, 30420, Note_on_c, 1, 76, 0
3, 30420, Note_on_c, 1, 72, 0
3, 30480, Note_on_c, 1, 74, 100
3, 30540, Note_on_c, 1, 74, 0
3, 30600, Note_on_c, 1, 74, 100
3, 30660, Note_on_c, 1, 74, 0
3, 30720, Note_on_c, 1, 67, 100
3, 30720, Note_on_c, 1, 74, 100
3, 30780, Note_on_c, 1, 74, 0
3, 30780, Note_on_c, 1, 67, 0
3, 30840, Note_on_c, 1, 72, 100
3, 30840, Note_on_c, 1, 76, 100
3, 30900, Note_on_c, 1, 76, 0
3, 30900, Note_on_c, 1, 72, 0
3, 30960, Note_on_c, 1, 74, 100
3, 31020, Note_on_c, 1, 74, 0
3, 31080, Note_on_c, 1, 74, 100
3, 31140, Note_on_c, 1, 74, 0
3, 31200, Note_on_c, 1, 67, 100
3, 31200, Note_on_c, 1, 74, 100
3, 31320, Note_on_c, 1, 74, 0
3, 31320, Note_on_c, 1, 67, 0
3, 31440, Note_on_c, 1, 67, 100
3, 31440, Note_on_c, 1, 74, 100
3, 31560, Note_on_c, 1, 74, 0
3, 31560, Note_on_c, 1, 67, 0
3, 31680, Note_on_c, 1, 67, 100
3, 31680, Note_on_c, 1, 74, 100
3, 31800, Note_on_c, 1, 74, 0
3, 31800, Note_on_c, 1, 67, 0
3, 32160, Note_on_c, 1, 64, 100
3, 32160, Note_on_c, 1, 76, 100
3, 32400, Note_on_c, 1, 76, 0
3, 32400, Note_on_c, 1, 64, 0
3, 33600, Note_on_c, 1, 64, 100
3, 33600, Note_on_c, 1, 76, 100
3, 33720, Note_on_c, 1, 76, 0
3, 33720, Note_on_c, 1, 64, 0
3, 33720, Note_on_c, 1, 64, 100
3, 33720, Note_on_c, 1, 76, 100
3, 33840, Note_on_c, 1, 76, 0
3, 33840, Note_on_c, 1, 64, 0
3, 34080, Note_on_c, 1, 74, 100
3, 34320, Note_on_c, 1, 74, 0
3, 35520, Note_on_c, 1, 74, 100
3, 35640, Note_on_c, 1, 74, 0
3, 35640, Note_on_c, 1, 67, 100
3, 35640, Note_on_c, 1, 74, 100
3, 35760, Note_on_c, 1, 74, 0
3, 35760, Note_on_c, 1, 67, 0
3, 36000, Note_on_c, 1, 60, 100
3, 36000, Note_on_c, 1, 72, 100
3, 36240, Note_on_c, 1, 72, 0
3, 36240, Note_on_c, 1, 60, 0
3, 37920, Note_on_c, 1, 60, 100
3, 37920, Note_on_c, 1, 72, 100
3, 38880, Note_on_c, 1, 72, 0
3, 38880, Note_on_c, 1, 60, 0
3, 39120, Note_on_c, 1, 67, 100
3, 39120, Note_on_c, 1, 74, 100
3, 39360, Note_on_c, 1, 74, 0
3, 39360, Note_on_c, 1, 67, 0
3, 39360, Note_on_c, 1, 60, 100
3, 39360, Note_on_c, 1, 72, 100
3, 39960, Note_on_c, 1, 72, 0
3, 39960, Note_on_c, 1, 60, 0
3, 40020, Note_on_c, 1, 74, 100
3, 40020, Note_on_c, 1, 77, 100
3, 40080, Note_on_c, 1, 77, 0
3, 40080, Note_on_c, 1, 74, 0
3, 40080, Note_on_c, 1, 72, 100
3, 40080, Note_on_c, 1, 76, 100
3, 40140, Note_on_c, 1, 76, 0
3, 40140, Note_on_c, 1, 72, 0
3, 40140, Note_on_c, 1, 74, 100
3, 40140, Note_on_c, 1, 77, 100
3, 40200, Note_on_c, 1, 77, 0
3, 40200, Note_on_c, 1, 74, 0
3, 40200, Note_on_c, 1, 72, 100
3, 40200, Note_on_c, 1, 76, 100
3, 40260, Note_on_c, 1, 76, 0
3, 40260, Note_on_c, 1, 72, 0
3, 40260, Note_on_c, 1, 67, 100
3, 40260, Note_on_c, 1, 74, 100
3, 40320, Note_on_c, 1, 74, 0
3, 40320, Note_on_c, 1, 67, 0
3, 40320, Note_on_c, 1, 60, 100
3, 40320, Note_on_c, 1, 72, 100
3, 40440, Note_on_c, 1, 72, 0
3, 40440, Note_on_c, 1, 60, 0
3, 40560, Note_on_c, 1, 55, 100
3, 40560, Note_on_c, 1, 67, 100
3, 40680, Note_on_c, 1, 67, 0
3, 40680, Note_on_c, 1, 55, 0
3, 42240, Note_on_c, 1, 60, 100
3, 42240, Note_on_c, 1, 72, 100
3, 43200, Note_on_c, 1, 72, 0
3, 43200, Note_on_c, 1, 60, 0
3, 43200, Note_on_c, 1, 67, 102
3, 43200, Note_on_c, 1, 74, 102
3, 43680, Note_on_c, 1, 74, 0
3, 43680, Note_on_c, 1, 67, 0
3, 43680, Note_on_c, 1, 60, 113
3, 43680, Note_on_c, 1, 72, 113
3, 44160, Note_on_c, 1, 72, 0
3, 44160, Note_on_c, 1, 60, 0
3, 44160, Note_on_c, 1, 67, 127
3, 44160, Note_on_c, 1, 74, 127
3, 44280, Note_on_c, 1, 74, 0
3, 44280, Note_on_c, 1, 67, 0
3, 44280, Note_on_c, 1, 67, 127
3, 44280, Note_on_c, 1, 74, 127
3, 44370, Note_on_c, 1, 74, 0
3, 44370, Note_on_c, 1, 67, 0
3, 44370, Note_on_c, 1, 67, 127
3, 44370, Note_on_c, 1, 74, 127
3, 44400, Note_on_c, 1, 74, 0
3, 44400, Note_on_c, 1, 67, 0
3, 44400, Note_on_c, 1, 67, 127
3, 44400, Note_on_c, 1, 74, 127
3, 44520, Note_on_c, 1, 74, 0
3, 44520, Note_on_c, 1, 67, 0
3, 44880, Note_on_c, 1, 67, 127
3, 44880, Note_on_c, 1, 74, 127
3, 45000, Note_on_c, 1, 74, 0
3, 45000, Note_on_c, 1, 67, 0
3, 45000, Note_on_c, 1, 72, 127
3, 45000, Note_on_c, 1, 76, 127
3, 45120, Note_on_c, 1, 76, 0
3, 45120, Note_on_c, 1, 72, 0
3, 45120, Note_on_c, 1, 67, 127
3, 45120, Note_on_c, 1, 74, 127
3, 45240, Note_on_c, 1, 74, 0
3, 45240, Note_on_c, 1, 67, 0
3, 45240, Note_on_c, 1, 67, 127
3, 45240, Note_on_c, 1, 74, 127
3, 45330, Note_on_c, 1, 74, 0
3, 45330, Note_on_c, 1, 67, 0
3, 45330, Note_on_c, 1, 67, 127
3, 45330, Note_on_c, 1, 74, 127
3, 45360, Note_on_c, 1, 74, 0
3, 45360, Note_on_c, 1, 67, 0
3, 45360, Note_on_c, 1, 67, 127
3, 45360, Note_on_c, 1, 74, 127
3, 45480, Note_on_c, 1, 74, 0
3, 45480, Note_on_c, 1, 67, 0
3, 45840, Note_on_c, 1, 67, 127
3, 45840, Note_on_c, 1, 74, 127
3, 45960, Note_on_c, 1, 74, 0
3, 45960, Note_on_c, 1, 67, 0
3, 45960, Note_on_c, 1, 72, 127
3, 45960, Note_on_c, 1, 76, 127
3, 46080, Note_on_c, 1, 76, 0
3, 46080, Note_on_c, 1, 72, 0
3, 46080, Note_on_c, 1, 67, 127
3, 46080, Note_on_c, 1, 74, 127
3, 46200, Note_on_c, 1, 74, 0
3, 46200, Note_on_c, 1, 67, 0
3, 46320, Note_on_c, 1, 67, 127
3, 46320, Note_on_c, 1, 79, 127
3, 46440, Note_on_c, 1, 79, 0
3, 46440, Note_on_c, 1, 67, 0
3, 46560, Note_on_c, 1, 55, 127
3, 46560, Note_on_c, 1, 67, 127
3, 46680, Note_on_c, 1, 67, 0
3, 46680, Note_on_c, 1, 55, 0
3, 49920, Note_on_c, 1, 60, 100
3, 49920, Note_on_c, 1, 72, 100
3, 51120, Note_on_c, 1, 72, 0
3, 51120, Note_on_c, 1, 60, 0
3, 52320, Note_on_c, 1, 60, 100
3, 52320, Note_on_c, 1, 72, 100
3, 53520, Note_on_c, 1, 72, 0
3, 53520, Note_on_c, 1, 60, 0
3, 54720, Note_on_c, 1, 64, 100
3, 54720, Note_on_c, 1, 72, 100
3, 54840, Note_on_c, 1, 72, 0
3, 54840, Note_on_c, 1, 64, 0
3, 54960, Note_on_c, 1, 60, 100
3, 54960, Note_on_c, 1, 72, 100
3, 55080, Note_on_c, 1, 72, 0
3, 55080, Note_on_c, 1, 60, 0
3, 55080, Note_on_c, 1, 64, 100
3, 55080, Note_on_c, 1, 76, 100
3, 55200, Note_on_c, 1, 76, 0
3, 55200, Note_on_c, 1, 64, 0
3, 55200, Note_on_c, 1, 67, 100
3, 55200, Note_on_c, 1, 79, 100
3, 55320, Note_on_c, 1, 79, 0
3, 55320, Note_on_c, 1, 67, 0
3, 55440, Note_on_c, 1, 67, 100
3, 55440, Note_on_c, 1, 74, 100
3, 55560, Note_on_c, 1, 74, 0
3, 55560, Note_on_c, 1, 67, 0
3, 55560, Note_on_c, 1, 67, 100
3, 55560, Note_on_c, 1, 74, 100
3, 55680, Note_on_c, 1, 74, 0
3, 55680, Note_on_c, 1, 67, 0
3, 55680, Note_on_c, 1, 76, 100
3, 55680, Note_on_c, 1, 72, 100
3, 55800, Note_on_c, 1, 72, 0
3, 55800, Note_on_c, 1, 76, 0
3, 55920, Note_on_c, 1, 72, 100
3, 55920, Note_on_c, 1, 60, 100
3, 56040, Note_on_c, 1, 60, 0
3, 56040, Note_on_c, 1, 72, 0
3, 56040, Note_on_c, 1, 76, 100
3, 56040, Note_on_c, 1, 64, 100
3, 56160, Note_on_c, 1, 64, 0
3, 56160, Note_on_c, 1, 76, 0
3, 56160, Note_on_c, 1, 67, 100
3, 56160, Note_on_c, 1, 79, 100
3, 56280, Note_on_c, 1, 79, 0
3, 56280, Note_on_c, 1, 67, 0
3, 56400, Note_on_c, 1, 67, 100
3, 56400, Note_on_c, 1, 74, 100
3, 56520, Note_on_c, 1, 74, 0
3, 56520, Note_on_c, 1, 67, 0
3, 56520, Note_on_c, 1, 67, 100
3, 56520, Note_on_c, 1, 74, 100
3, 56640, Note_on_c, 1, 74, 0
3, 56640, Note_on_c, 1, 67, 0
3, 56640, Note_on_c, 1, 64, 100
3, 56640, Note_on_c, 1, 72, 100
3, 56760, Note_on_c, 1, 72, 0
3, 56760, Note_on_c, 1, 64, 0
3, 57000, Note_on_c, 1, 72, 100
3, 57000, Note_on_c, 1, 76, 100
3, 57120, Note_on_c, 1, 76, 0
3, 57120, Note_on_c, 1, 72, 0
3, 57120, Note_on_c, 1, 72, 100
3, 57120, Note_on_c, 1, 76, 100
3, 57240, Note_on_c, 1, 76, 0
3, 57240, Note_on_c, 1, 72, 0
3, 57480, Note_on_c, 1, 72, 100
3, 57480, Note_on_c, 1, 76, 100
3, 57600, Note_on_c, 1, 76, 0
3, 57600, Note_on_c, 1, 72, 0
3, 57600, Note_on_c, 1, 76, 100
3, 57600, Note_on_c, 1, 79, 100
3, 57720, Note_on_c, 1, 79, 0
3, 57720, Note_on_c, 1, 76, 0
3, 57960, Note_on_c, 1, 72, 100
3, 57960, Note_on_c, 1, 76, 100
3, 58080, Note_on_c, 1, 76, 0
3, 58080, Note_on_c, 1, 72, 0
3, 58080, Note_on_c, 1, 77, 100
3, 58080, Note_on_c, 1, 72, 100
3, 58200, Note_on_c, 1, 72, 0
3, 58200, Note_on_c, 1, 74, 100
3, 58320, Note_on_c, 1, 74, 0
3, 58320, Note_on_c, 1, 77, 0
3, 58320, Note_on_c, 1, 76, 100
3, 58320, Note_on_c, 1, 72, 100
3, 58440, Note_on_c, 1, 72, 0
3, 58440, Note_on_c, 1, 76, 0
3, 58440, Note_on_c, 1, 74, 100
3, 58440, Note_on_c, 1, 67, 100
3, 58560, Note_on_c, 1, 67, 0
3, 58560, Note_on_c, 1, 74, 0
3, 58560, Note_on_c, 1, 72, 100
3, 58560, Note_on_c, 1, 64, 100
3, 58680, Note_on_c, 1, 64, 0
3, 58680, Note_on_c, 1, 72, 0
3, 58920, Note_on_c, 1, 76, 100
3, 58920, Note_on_c, 1, 72, 100
3, 59040, Note_on_c, 1, 72, 0
3, 59040, Note_on_c, 1, 76, 0
3, 59040, Note_on_c, 1, 72, 100
3, 59040, Note_on_c, 1, 76, 100
3, 59160, Note_on_c, 1, 76, 0
3, 59160, Note_on_c, 1, 72, 0
3, 59400, Note_on_c, 1, 72, 100
3, 59400, Note_on_c, 1, 76, 100
3, 59520, Note_on_c, 1, 76, 0
3, 59520, Note_on_c, 1, 72, 0
3, 59520, Note_on_c, 1, 72, 100
3, 59520, Note_on_c, 1, 79, 100
3, 59640, Note_on_c, 1, 79, 0
3, 59640, Note_on_c, 1, 72, 0
3, 59880, Note_on_c, 1, 72, 100
3, 60000, Note_on_c, 1, 72, 0
3, 60000, Note_on_c, 1, 72, 100
3, 60240, Note_on_c, 1, 72, 0
3, 60240, Note_on_c, 1, 72, 100
3, 60240, Note_on_c, 1, 76, 100
3, 60360, Note_on_c, 1, 76, 0
3, 60360, Note_on_c, 1, 72, 0
3, 60360, Note_on_c, 1, 67, 100
3, 60360, Note_on_c, 1, 74, 100
3, 60480, Note_on_c, 1, 74, 0
3, 60480, Note_on_c, 1, 67, 0
3, 60480, Note_on_c, 1, 60, 100
3, 60480, Note_on_c, 1, 72, 100
3, 60600, Note_on_c, 1, 72, 0
3, 60600, Note_on_c, 1, 60, 0
3, 60600, Note_on_c, 1, 64, 100
3, 60600, Note_on_c, 1, 76, 100
3, 60720, Note_on_c, 1, 76, 0
3, 60720, Note_on_c, 1, 64, 0
3, 60720, Note_on_c, 1, 67, 100
3, 60720, Note_on_c, 1, 79, 100
3, 60840, Note_on_c, 1, 79, 0
3, 60840, Note_on_c, 1, 67, 0
3, 60840, Note_on_c, 1, 64, 100
3, 60840, Note_on_c, 1, 76, 100
3, 60960, Note_on_c, 1, 76, 0
3, 60960, Note_on_c, 1, 64, 0
3, 60960, Note_on_c, 1, 72, 100
3, 60960, Note_on_c, 1, 60, 100
3, 61080, Note_on_c, 1, 60, 0
3, 61080, Note_on_c, 1, 72, 0
3, 61080, Note_on_c, 1, 76, 100
3, 61080, Note_on_c, 1, 64, 100
3, 61200, Note_on_c, 1, 64, 0
3, 61200, Note_on_c, 1, 76, 0
3, 61200, Note_on_c, 1, 79, 100
3, 61200, Note_on_c, 1, 67, 100
3, 61320, Note_on_c, 1, 67, 0
3, 61320, Note_on_c, 1, 79, 0
3, 61320, Note_on_c, 1, 76, 100
3, 61320, Note_on_c, 1, 64, 100
3, 61440, Note_on_c, 1, 64, 0
3, 61440, Note_on_c, 1, 76, 0
3, 61440, Note_on_c, 1, 60, 100
3, 61440, Note_on_c, 1, 72, 100
3, 61560, Note_on_c, 1, 72, 0
3, 61560, Note_on_c, 1, 60, 0
3, 61680, Note_on_c, 1, 72, 100
3, 61680, Note_on_c, 1, 64, 100
3, 61740, Note_on_c, 1, 64, 0
3, 61740, Note_on_c, 1, 72, 0
3, 61800, Note_on_c, 1, 74, 100
3, 61800, Note_on_c, 1, 67, 100
3, 61860, Note_on_c, 1, 67, 0
3, 61860, Note_on_c, 1, 74, 0
3, 61920, Note_on_c, 1, 72, 100
3, 61920, Note_on_c, 1, 76, 100
3, 61980, Note_on_c, 1, 76, 0
3, 61980, Note_on_c, 1, 72, 0
3, 62040, Note_on_c, 1, 74, 100
3, 62040, Note_on_c, 1, 77, 100
3, 62100, Note_on_c, 1, 77, 0
3, 62100, Note_on_c, 1, 74, 0
3, 62160, Note_on_c, 1, 72, 100
3, 62160, Note_on_c, 1, 76, 100
3, 62220, Note_on_c, 1, 76, 0
3, 62220, Note_on_c, 1, 72, 0
3, 62280, Note_on_c, 1, 67, 100
3, 62280, Note_on_c, 1, 74, 100
3, 62340, Note_on_c, 1, 74, 0
3, 62340, Note_on_c, 1, 67, 0
3, 62400, Note_on_c, 1, 72, 100
3, 62400, Note_on_c, 1, 76, 100
3, 62460, Note_on_c, 1, 76, 0
3, 62460, Note_on_c, 1, 72, 0
3, 62520, Note_on_c, 1, 74, 100
3, 62520, Note_on_c, 1, 77, 100
3, 62580, Note_on_c, 1, 77, 0
3, 62580, Note_on_c, 1, 74, 0
3, 62640, Note_on_c, 1, 72, 100
3, 62640, Note_on_c, 1, 76, 100
3, 62700, Note_on_c, 1, 76, 0
3, 62700, Note_on_c, 1, 72, 0
3, 62760, Note_on_c, 1, 67, 100
3, 62760, Note_on_c, 1, 74, 100
3, 62820, Note_on_c, 1, 74, 0
3, 62820, Note_on_c, 1, 67, 0
3, 62880, Note_on_c, 1, 76, 100
3, 62880, Note_on_c, 1, 79, 100
3, 62940, Note_on_c, 1, 79, 0
3, 62940, Note_on_c, 1, 76, 0
3, 63000, Note_on_c, 1, 74, 100
3, 63000, Note_on_c, 1, 77, 100
3, 63060, Note_on_c, 1, 77, 0
3, 63060, Note_on_c, 1, 74, 0
3, 63120, Note_on_c, 1, 72, 100
3, 63120, Note_on_c, 1, 76, 100
3, 63180, Note_on_c, 1, 76, 0
3, 63180, Note_on_c, 1, 72, 0
3, 63240, Note_on_c, 1, 67, 100
3, 63240, Note_on_c, 1, 74, 100
3, 63300, Note_on_c, 1, 74, 0
3, 63300, Note_on_c, 1, 67, 0
3, 63360, Note_on_c, 1, 64, 100
3, 63360, Note_on_c, 1, 72, 100
3, 63420, Note_on_c, 1, 64, 0
3, 63480, Note_on_c, 1, 72, 0
3, 63600, Note_on_c, 1, 72, 100
3, 63600, Note_on_c, 1, 60, 100
3, 63720, Note_on_c, 1, 60, 0
3, 63720, Note_on_c, 1, 72, 0
3, 63840, Note_on_c, 1, 60, 100
3, 63840, Note_on_c, 1, 72, 100
3, 63960, Note_on_c, 1, 72, 0
3, 63960, Note_on_c, 1, 60, 0
3, 64080, Note_on_c, 1, 72, 100
3, 64080, Note_on_c, 1, 60, 100
3, 64200, Note_on_c, 1, 60, 0
3, 64200, Note_on_c, 1, 72, 0
3, 64200, Note_on_c, 1, 72, 100
3, 64200, Note_on_c, 1, 60, 100
3, 64320, Note_on_c, 1, 60, 0
3, 64320, Note_on_c, 1, 72, 0
3, 64320, Note_on_c, 1, 72, 100
3, 64320, Note_on_c, 1, 60, 100
3, 64800, Note_on_c, 1, 60, 0
3, 64800, Note_on_c, 1, 72, 0
3, 64800, End_track
4, 0, Start_track
4, 0, MIDI_port, 0
4, 0, Title_t, "Trombones"
4, 0, Control_c, 2, 0, 4
4, 0, Program_c, 2, 57
4, 0, Control_c, 2, 7, 115
4, 0, Control_c, 2, 10, 80
4, 0, Note_on_c, 2, 72, 100
4, 0, Note_on_c, 2, 60, 100
4, 1080, Note_on_c, 2, 60, 0
4, 1080, Note_on_c, 2, 72, 0
4, 1920, Note_on_c, 2, 55, 100
4, 1920, Note_on_c, 2, 67, 100
4, 3000, Note_on_c, 2, 67, 0
4, 3000, Note_on_c, 2, 55, 0
4, 3840, Note_on_c, 2, 60, 100
4, 3840, Note_on_c, 2, 72, 100
4, 4920, Note_on_c, 2, 72, 0
4, 4920, Note_on_c, 2, 60, 0
4, 5760, Note_on_c, 2, 60, 100
4, 5760, Note_on_c, 2, 72, 100
4, 6720, Note_on_c, 2, 72, 0
4, 6720, Note_on_c, 2, 60, 0
4, 6960, Note_on_c, 2, 67, 100
4, 6960, Note_on_c, 2, 74, 100
4, 7200, Note_on_c, 2, 74, 0
4, 7200, Note_on_c, 2, 67, 0
4, 7200, Note_on_c, 2, 60, 100
4, 7200, Note_on_c, 2, 72, 100
4, 7920, Note_on_c, 2, 72, 0
4, 7920, Note_on_c, 2, 60, 0
4, 7920, Note_on_c, 2, 67, 100
4, 8160, Note_on_c, 2, 67, 0
4, 8160, Note_on_c, 2, 60, 100
4, 8160, Note_on_c, 2, 72, 100
4, 8280, Note_on_c, 2, 72, 0
4, 8280, Note_on_c, 2, 60, 0
4, 8400, Note_on_c, 2, 67, 100
4, 8400, Note_on_c, 2, 55, 100
4, 8520, Note_on_c, 2, 55, 0
4, 8520, Note_on_c, 2, 67, 0
4, 10080, Note_on_c, 2, 60, 100
4, 10080, Note_on_c, 2, 72, 100
4, 10320, Note_on_c, 2, 72, 0
4, 10320, Note_on_c, 2, 60, 0
4, 10560, Note_on_c, 2, 60, 111
4, 10560, Note_on_c, 2, 72, 111
4, 10800, Note_on_c, 2, 72, 0
4, 10800, Note_on_c, 2, 60, 0
4, 11520, Note_on_c, 2, 60, 127
4, 11520, Note_on_c, 2, 72, 127
4, 12000, Note_on_c, 2, 72, 0
4, 12000, Note_on_c, 2, 60, 0
4, 12000, Note_on_c, 2, 67, 127
4, 12120, Note_on_c, 2, 67, 0
4, 12720, Note_on_c, 2, 67, 127
4, 12840, Note_on_c, 2, 67, 0
4, 12840, Note_on_c, 2, 67, 127
4, 12960, Note_on_c, 2, 67, 0
4, 12960, Note_on_c, 2, 67, 127
4, 13080, Note_on_c, 2, 67, 0
4, 13680, Note_on_c, 2, 67, 127
4, 13800, Note_on_c, 2, 67, 0
4, 13800, Note_on_c, 2, 67, 127
4, 13920, Note_on_c, 2, 67, 0
4, 13920, Note_on_c, 2, 67, 127
4, 14040, Note_on_c, 2, 67, 0
4, 14160, Note_on_c, 2, 67, 127
4, 14280, Note_on_c, 2, 67, 0
4, 14400, Note_on_c, 2, 55, 127
4, 14400, Note_on_c, 2, 67, 127
4, 14520, Note_on_c, 2, 67, 0
4, 14520, Note_on_c, 2, 55, 0
4, 22560, Note_on_c, 2, 67, 100
4, 22800, Note_on_c, 2, 67, 0
4, 23040, Note_on_c, 2, 74, 100
4, 23280, Note_on_c, 2, 74, 0
4, 23520, Note_on_c, 2, 67, 100
4, 23760, Note_on_c, 2, 67, 0
4, 24000, Note_on_c, 2, 74, 100
4, 24240, Note_on_c, 2, 74, 0
4, 24480, Note_on_c, 2, 67, 100
4, 24600, Note_on_c, 2, 67, 0
4, 24840, Note_on_c, 2, 67, 100
4, 24960, Note_on_c, 2, 67, 0
4, 24960, Note_on_c, 2, 64, 100
4, 24960, Note_on_c, 2, 67, 100
4, 25080, Note_on_c, 2, 67, 0
4, 25080, Note_on_c, 2, 64, 0
4, 25320, Note_on_c, 2, 64, 100
4, 25320, Note_on_c, 2, 67, 100
4, 25440, Note_on_c, 2, 67, 0
4, 25440, Note_on_c, 2, 64, 0
4, 25440, Note_on_c, 2, 67, 100
4, 25560, Note_on_c, 2, 67, 0
4, 25800, Note_on_c, 2, 67, 100
4, 25800, Note_on_c, 2, 74, 100
4, 25920, Note_on_c, 2, 74, 0
4, 25920, Note_on_c, 2, 67, 0
4, 25920, Note_on_c, 2, 72, 100
4, 25920, Note_on_c, 2, 76, 100
4, 26160, Note_on_c, 2, 76, 0
4, 26160, Note_on_c, 2, 72, 0
4, 26160, Note_on_c, 2, 74, 100
4, 26400, Note_on_c, 2, 74, 0
4, 26400, Note_on_c, 2, 74, 100
4, 26400, Note_on_c, 2, 67, 100
4, 26520, Note_on_c, 2, 67, 0
4, 26520, Note_on_c, 2, 74, 0
4, 26760, Note_on_c, 2, 67, 100
4, 26880, Note_on_c, 2, 67, 0
4, 26880, Note_on_c, 2, 64, 100
4, 26880, Note_on_c, 2, 67, 100
4, 27000, Note_on_c, 2, 67, 0
4, 27000, Note_on_c, 2, 64, 0
4, 27240, Note_on_c, 2, 64, 100
4, 27240, Note_on_c, 2, 67, 100
4, 27360, Note_on_c, 2, 67, 0
4, 27360, Note_on_c, 2, 64, 0
4, 27360, Note_on_c, 2, 67, 100
4, 27480, Note_on_c, 2, 67, 0
4, 27720, Note_on_c, 2, 67, 100
4, 27720, Note_on_c, 2, 74, 100
4, 27840, Note_on_c, 2, 74, 0
4, 27840, Note_on_c, 2, 67, 0
4, 27840, Note_on_c, 2, 72, 100
4, 27840, Note_on_c, 2, 76, 100
4, 28080, Note_on_c, 2, 76, 0
4, 28080, Note_on_c, 2, 72, 0
4, 28080, Note_on_c, 2, 74, 100
4, 28320, Note_on_c, 2, 74, 0
4, 28320, Note_on_c, 2, 67, 100
4, 28800, Note_on_c, 2, 55, 100
4, 29400, Note_on_c, 2, 55, 0
4, 29400, Note_on_c, 2, 67, 0
4, 31200, Note_on_c, 2, 55, 100
4, 31200, Note_on_c, 2, 67, 100
4, 31320, Note_on_c, 2, 67, 0
4, 31320, Note_on_c, 2, 55, 0
4, 31440, Note_on_c, 2, 55, 100
4, 31440, Note_on_c, 2, 67, 100
4, 31560, Note_on_c, 2, 67, 0
4, 31560, Note_on_c, 2, 55, 0
4, 31680, Note_on_c, 2, 55, 100
4, 31680, Note_on_c, 2, 67, 100
4, 31800, Note_on_c, 2, 67, 0
4, 31800, Note_on_c, 2, 55, 0
4, 32160, Note_on_c, 2, 64, 100
4, 32400, Note_on_c, 2, 64, 0
4, 34080, Note_on_c, 2, 62, 100
4, 34320, Note_on_c, 2, 62, 0
4, 36000, Note_on_c, 2, 60, 100
4, 36240, Note_on_c, 2, 60, 0
4, 37920, Note_on_c, 2, 60, 100
4, 37920, Note_on_c, 2, 72, 100
4, 38880, Note_on_c, 2, 72, 0
4, 38880, Note_on_c, 2, 60, 0
4, 39120, Note_on_c, 2, 67, 100
4, 39120, Note_on_c, 2, 74, 100
4, 39360, Note_on_c, 2, 74, 0
4, 39360, Note_on_c, 2, 67, 0
4, 39360, Note_on_c, 2, 60, 100
4, 39360, Note_on_c, 2, 72, 100
4, 40080, Note_on_c, 2, 72, 0
4, 40080, Note_on_c, 2, 60, 0
4, 40080, Note_on_c, 2, 67, 100
4, 40320, Note_on_c, 2, 67, 0
4, 40320, Note_on_c, 2, 60, 100
4, 40320, Note_on_c, 2, 72, 100
4, 40440, Note_on_c, 2, 72, 0
4, 40440, Note_on_c, 2, 60, 0
4, 40560, Note_on_c, 2, 67, 100
4, 40560, Note_on_c, 2, 55, 100
4, 40680, Note_on_c, 2, 55, 0
4, 40680, Note_on_c, 2, 67, 0
4, 42240, Note_on_c, 2, 60, 100
4, 42240, Note_on_c, 2, 72, 100
4, 42480, Note_on_c, 2, 72, 0
4, 42480, Note_on_c, 2, 60, 0
4, 42720, Note_on_c, 2, 60, 111
4, 42720, Note_on_c, 2, 72, 111
4, 42960, Note_on_c, 2, 72, 0
4, 42960, Note_on_c, 2, 60, 0
4, 43680, Note_on_c, 2, 60, 127
4, 43680, Note_on_c, 2, 72, 127
4, 44160, Note_on_c, 2, 72, 0
4, 44160, Note_on_c, 2, 60, 0
4, 44160, Note_on_c, 2, 67, 127
4, 44280, Note_on_c, 2, 67, 0
4, 44880, Note_on_c, 2, 67, 127
4, 45000, Note_on_c, 2, 67, 0
4, 45000, Note_on_c, 2, 67, 127
4, 45120, Note_on_c, 2, 67, 0
4, 45120, Note_on_c, 2, 67, 127
4, 45240, Note_on_c, 2, 67, 0
4, 45840, Note_on_c, 2, 67, 127
4, 45960, Note_on_c, 2, 67, 0
4, 45960, Note_on_c, 2, 67, 127
4, 46080, Note_on_c, 2, 67, 0
4, 46080, Note_on_c, 2, 67, 127
4, 46200, Note_on_c, 2, 67, 0
4, 46320, Note_on_c, 2, 67, 127
4, 46440, Note_on_c, 2, 67, 0
4, 46560, Note_on_c, 2, 55, 127
4, 46560, Note_on_c, 2, 67, 127
4, 46680, Note_on_c, 2, 67, 0
4, 46680, Note_on_c, 2, 55, 0
4, 54720, Note_on_c, 2, 60, 100
4, 54720, Note_on_c, 2, 72, 100
4, 54960, Note_on_c, 2, 72, 0
4, 54960, Note_on_c, 2, 60, 0
4, 55200, Note_on_c, 2, 67, 100
4, 55440, Note_on_c, 2, 67, 0
4, 55680, Note_on_c, 2, 72, 100
4, 55680, Note_on_c, 2, 60, 100
4, 55920, Note_on_c, 2, 60, 0
4, 55920, Note_on_c, 2, 72, 0
4, 56160, Note_on_c, 2, 67, 100
4, 56400, Note_on_c, 2, 67, 0
4, 56640, Note_on_c, 2, 64, 100
4, 56640, Note_on_c, 2, 72, 100
4, 56760, Note_on_c, 2, 72, 0
4, 56760, Note_on_c, 2, 64, 0
4, 57000, Note_on_c, 2, 64, 100
4, 57000, Note_on_c, 2, 72, 100
4, 57120, Note_on_c, 2, 72, 0
4, 57120, Note_on_c, 2, 64, 0
4, 57120, Note_on_c, 2, 64, 100
4, 57120, Note_on_c, 2, 72, 100
4, 57240, Note_on_c, 2, 72, 0
4, 57240, Note_on_c, 2, 64, 0
4, 57480, Note_on_c, 2, 64, 100
4, 57480, Note_on_c, 2, 72, 100
4, 57600, Note_on_c, 2, 72, 0
4, 57600, Note_on_c, 2, 64, 0
4, 57600, Note_on_c, 2, 72, 100
4, 57600, Note_on_c, 2, 64, 100
4, 57720, Note_on_c, 2, 64, 0
4, 57720, Note_on_c, 2, 72, 0
4, 57960, Note_on_c, 2, 64, 100
4, 57960, Note_on_c, 2, 72, 100
4, 58080, Note_on_c, 2, 72, 0
4, 58080, Note_on_c, 2, 64, 0
4, 58080, Note_on_c, 2, 60, 100
4, 58080, Note_on_c, 2, 72, 100
4, 58320, Note_on_c, 2, 72, 0
4, 58320, Note_on_c, 2, 60, 0
4, 58320, Note_on_c, 2, 67, 100
4, 58560, Note_on_c, 2, 67, 0
4, 58560, Note_on_c, 2, 60, 100
4, 58680, Note_on_c, 2, 60, 0
4, 58920, Note_on_c, 2, 64, 100
4, 58920, Note_on_c, 2, 72, 100
4, 59040, Note_on_c, 2, 72, 0
4, 59040, Note_on_c, 2, 64, 0
4, 59040, Note_on_c, 2, 72, 100
4, 59040, Note_on_c, 2, 64, 100
4, 59160, Note_on_c, 2, 64, 0
4, 59160, Note_on_c, 2, 72, 0
4, 59400, Note_on_c, 2, 72, 100
4, 59400, Note_on_c, 2, 64, 100
4, 59520, Note_on_c, 2, 64, 0
4, 59520, Note_on_c, 2, 72, 0
4, 59520, Note_on_c, 2, 72, 100
4, 59520, Note_on_c, 2, 60, 100
4, 59640, Note_on_c, 2, 60, 0
4, 59640, Note_on_c, 2, 72, 0
4, 59880, Note_on_c, 2, 60, 100
4, 59880, Note_on_c, 2, 72, 100
4, 60000, Note_on_c, 2, 72, 0
4, 60000, Note_on_c, 2, 60, 0
4, 60000, Note_on_c, 2, 60, 100
4, 60000, Note_on_c, 2, 72, 100
4, 60240, Note_on_c, 2, 72, 0
4, 60240, Note_on_c, 2, 60, 0
4, 60240, Note_on_c, 2, 76, 100
4, 60240, Note_on_c, 2, 72, 100
4, 60360, Note_on_c, 2, 72, 0
4, 60360, Note_on_c, 2, 76, 0
4, 60360, Note_on_c, 2, 74, 100
4, 60360, Note_on_c, 2, 67, 100
4, 60480, Note_on_c, 2, 67, 0
4, 60480, Note_on_c, 2, 74, 0
4, 60480, Note_on_c, 2, 60, 100
4, 60480, Note_on_c, 2, 72, 100
4, 61560, Note_on_c, 2, 72, 0
4, 61560, Note_on_c, 2, 60, 0
4, 63360, Note_on_c, 2, 64, 100
4, 63360, Note_on_c, 2, 72, 100
4, 63480, Note_on_c, 2, 72, 0
4, 63480, Note_on_c, 2, 64, 0
4, 63600, Note_on_c, 2, 64, 100
4, 63600, Note_on_c, 2, 72, 100
4, 63720, Note_on_c, 2, 72, 0
4, 63720, Note_on_c, 2, 64, 0
4, 63840, Note_on_c, 2, 64, 100
4, 63840, Note_on_c, 2, 72, 100
4, 63960, Note_on_c, 2, 72, 0
4, 63960, Note_on_c, 2, 64, 0
4, 64080, Note_on_c, 2, 60, 100
4, 64200, Note_on_c, 2, 60, 0
4, 64200, Note_on_c, 2, 60, 100
4, 64320, Note_on_c, 2, 60, 0
4, 64320, Note_on_c, 2, 60, 100
4, 64800, Note_on_c, 2, 60, 0
4, 64800, End_track
5, 0, Start_track
5, 0, MIDI_port, 0
5, 0, Title_t, "Violin 1"
5, 0, Control_c, 3, 0, 4
5, 0, Program_c, 3, 48
5, 0, Control_c, 3, 7, 127
5, 0, Control_c, 3, 10, 15
5, 0, Note_on_c, 3, 84, 100
5, 30, Note_on_c, 3, 84, 0
5, 30, Note_on_c, 3, 84, 100
5, 60, Note_on_c, 3, 84, 0
5, 60, Note_on_c, 3, 84, 100
5, 90, Note_on_c, 3, 84, 0
5, 90, Note_on_c, 3, 84, 100
5, 120, Note_on_c, 3, 84, 0
5, 120, Note_on_c, 3, 84, 100
5, 150, Note_on_c, 3, 84, 0
5, 150, Note_on_c, 3, 84, 100
5, 180, Note_on_c, 3, 84, 0
5, 180, Note_on_c, 3, 84, 100
5, 210, Note_on_c, 3, 84, 0
5, 210, Note_on_c, 3, 84, 100
5, 240, Note_on_c, 3, 84, 0
5, 240, Note_on_c, 3, 84, 100
5, 270, Note_on_c, 3, 84, 0
5, 270, Note_on_c, 3, 84, 100
5, 300, Note_on_c, 3, 84, 0
5, 300, Note_on_c, 3, 84, 100
5, 330, Note_on_c, 3, 84, 0
5, 330, Note_on_c, 3, 84, 100
5, 360, Note_on_c, 3, 84, 0
5, 360, Note_on_c, 3, 84, 100
5, 390, Note_on_c, 3, 84, 0
5, 390, Note_on_c, 3, 84, 100
5, 420, Note_on_c, 3, 84, 0
5, 420, Note_on_c, 3, 84, 100
5, 450, Note_on_c, 3, 84, 0
5, 450, Note_on_c, 3, 84, 100
5, 480, Note_on_c, 3, 84, 0
5, 480, Note_on_c, 3, 84, 100
5, 510, Note_on_c, 3, 84, 0
5, 510, Note_on_c, 3, 84, 100
5, 540, Note_on_c, 3, 84, 0
5, 540, Note_on_c, 3, 84, 100
5, 570, Note_on_c, 3, 84, 0
5, 570, Note_on_c, 3, 84, 100
5, 600, Note_on_c, 3, 84, 0
5, 600, Note_on_c, 3, 84, 100
5, 630, Note_on_c, 3, 84, 0
5, 630, Note_on_c, 3, 84, 100
5, 660, Note_on_c, 3, 84, 0
5, 660, Note_on_c, 3, 84, 100
5, 690, Note_on_c, 3, 84, 0
5, 690, Note_on_c, 3, 84, 100
5, 720, Note_on_c, 3, 84, 0
5, 720, Note_on_c, 3, 84, 100
5, 750, Note_on_c, 3, 84, 0
5, 750, Note_on_c, 3, 84, 100
5, 780, Note_on_c, 3, 84, 0
5, 780, Note_on_c, 3, 84, 100
5, 810, Note_on_c, 3, 84, 0
5, 810, Note_on_c, 3, 84, 100
5, 840, Note_on_c, 3, 84, 0
5, 840, Note_on_c, 3, 84, 100
5, 870, Note_on_c, 3, 84, 0
5, 870, Note_on_c, 3, 84, 100
5, 900, Note_on_c, 3, 84, 0
5, 900, Note_on_c, 3, 84, 100
5, 930, Note_on_c, 3, 84, 0
5, 930, Note_on_c, 3, 84, 100
5, 960, Note_on_c, 3, 84, 0
5, 960, Note_on_c, 3, 84, 100
5, 1080, Note_on_c, 3, 84, 0
5, 1920, Note_on_c, 3, 86, 100
5, 1950, Note_on_c, 3, 86, 0
5, 1950, Note_on_c, 3, 86, 100
5, 1980, Note_on_c, 3, 86, 0
5, 1980, Note_on_c, 3, 86, 100
5, 2010, Note_on_c, 3, 86, 0
5, 2010, Note_on_c, 3, 86, 100
5, 2040, Note_on_c, 3, 86, 0
5, 2040, Note_on_c, 3, 86, 100
5, 2070, Note_on_c, 3, 86, 0
5, 2070, Note_on_c, 3, 86, 100
5, 2100, Note_on_c, 3, 86, 0
5, 2100, Note_on_c, 3, 86, 100
5, 2130, Note_on_c, 3, 86, 0
5, 2130, Note_on_c, 3, 86, 100
5, 2160, Note_on_c, 3, 86, 0
5, 2160, Note_on_c, 3, 86, 100
5, 2190, Note_on_c, 3, 86, 0
5, 2190, Note_on_c, 3, 86, 100
5, 2220, Note_on_c, 3, 86, 0
5, 2220, Note_on_c, 3, 86, 100
5, 2250, Note_on_c, 3, 86, 0
5, 2250, Note_on_c, 3, 86, 100
5, 2280, Note_on_c, 3, 86, 0
5, 2280, Note_on_c, 3, 86, 100
5, 2310, Note_on_c, 3, 86, 0
5, 2310, Note_on_c, 3, 86, 100
5, 2340, Note_on_c, 3, 86, 0
5, 2340, Note_on_c, 3, 86, 100
5, 2370, Note_on_c, 3, 86, 0
5, 2370, Note_on_c, 3, 86, 100
5, 2400, Note_on_c, 3, 86, 0
5, 2400, Note_on_c, 3, 86, 100
5, 2430, Note_on_c, 3, 86, 0
5, 2430, Note_on_c, 3, 86, 100
5, 2460, Note_on_c, 3, 86, 0
5, 2460, Note_on_c, 3, 86, 100
5, 2490, Note_on_c, 3, 86, 0
5, 2490, Note_on_c, 3, 86, 100
5, 2520, Note_on_c, 3, 86, 0
5, 2520, Note_on_c, 3, 86, 100
5, 2550, Note_on_c, 3, 86, 0
5, 2550, Note_on_c, 3, 86, 100
5, 2580, Note_on_c, 3, 86, 0
5, 2580, Note_on_c, 3, 86, 100
5, 2610, Note_on_c, 3, 86, 0
5, 2610, Note_on_c, 3, 86, 100
5, 2640, Note_on_c, 3, 86, 0
5, 2640, Note_on_c, 3, 86, 100
5, 2670, Note_on_c, 3, 86, 0
5, 2670, Note_on_c, 3, 86, 100
5, 2700, Note_on_c, 3, 86, 0
5, 2700, Note_on_c, 3, 86, 100
5, 2730, Note_on_c, 3, 86, 0
5, 2730, Note_on_c, 3, 86, 100
5, 2760, Note_on_c, 3, 86, 0
5, 2760, Note_on_c, 3, 86, 100
5, 2790, Note_on_c, 3, 86, 0
5, 2790, Note_on_c, 3, 86, 100
5, 2820, Note_on_c, 3, 86, 0
5, 2820, Note_on_c, 3, 86, 100
5, 2850, Note_on_c, 3, 86, 0
5, 2850, Note_on_c, 3, 86, 100
5, 2880, Note_on_c, 3, 86, 0
5, 2880, Note_on_c, 3, 86, 100
5, 3000, Note_on_c, 3, 86, 0
5, 3840, Note_on_c, 3, 88, 100
5, 3870, Note_on_c, 3, 88, 0
5, 3870, Note_on_c, 3, 88, 100
5, 3900, Note_on_c, 3, 88, 0
5, 3900, Note_on_c, 3, 88, 100
5, 3930, Note_on_c, 3, 88, 0
5, 3930, Note_on_c, 3, 88, 100
5, 3960, Note_on_c, 3, 88, 0
5, 3960, Note_on_c, 3, 88, 100
5, 3990, Note_on_c, 3, 88, 0
5, 3990, Note_on_c, 3, 88, 100
5, 4020, Note_on_c, 3, 88, 0
5, 4020, Note_on_c, 3, 88, 100
5, 4050, Note_on_c, 3, 88, 0
5, 4050, Note_on_c, 3, 88, 100
5, 4080, Note_on_c, 3, 88, 0
5, 4080, Note_on_c, 3, 88, 100
5, 4110, Note_on_c, 3, 88, 0
5, 4110, Note_on_c, 3, 88, 100
5, 4140, Note_on_c, 3, 88, 0
5, 4140, Note_on_c, 3, 88, 100
5, 4170, Note_on_c, 3, 88, 0
5, 4170, Note_on_c, 3, 88, 100
5, 4200, Note_on_c, 3, 88, 0
5, 4200, Note_on_c, 3, 88, 100
5, 4230, Note_on_c, 3, 88, 0
5, 4230, Note_on_c, 3, 88, 100
5, 4260, Note_on_c, 3, 88, 0
5, 4260, Note_on_c, 3, 88, 100
5, 4290, Note_on_c, 3, 88, 0
5, 4290, Note_on_c, 3, 88, 100
5, 4320, Note_on_c, 3, 88, 0
5, 4320, Note_on_c, 3, 88, 100
5, 4350, Note_on_c, 3, 88, 0
5, 4350, Note_on_c, 3, 88, 100
5, 4380, Note_on_c, 3, 88, 0
5, 4380, Note_on_c, 3, 88, 100
5, 4410, Note_on_c, 3, 88, 0
5, 4410, Note_on_c, 3, 88, 100
5, 4440, Note_on_c, 3, 88, 0
5, 4440, Note_on_c, 3, 88, 100
5, 4470, Note_on_c, 3, 88, 0
5, 4470, Note_on_c, 3, 88, 100
5, 4500, Note_on_c, 3, 88, 0
5, 4500, Note_on_c, 3, 88, 100
5, 4530, Note_on_c, 3, 88, 0
5, 4530, Note_on_c, 3, 88, 100
5, 4560, Note_on_c, 3, 88, 0
5, 4560, Note_on_c, 3, 88, 100
5, 4590, Note_on_c, 3, 88, 0
5, 4590, Note_on_c, 3, 88, 100
5, 4620, Note_on_c, 3, 88, 0
5, 4620, Note_on_c, 3, 88, 100
5, 4650, Note_on_c, 3, 88, 0
5, 4650, Note_on_c, 3, 88, 100
5, 4680, Note_on_c, 3, 88, 0
5, 4680, Note_on_c, 3, 88, 100
5, 4710, Note_on_c, 3, 88, 0
5, 4710, Note_on_c, 3, 88, 100
5, 4740, Note_on_c, 3, 88, 0
5, 4740, Note_on_c, 3, 88, 100
5, 4770, Note_on_c, 3, 88, 0
5, 4770, Note_on_c, 3, 88, 100
5, 4800, Note_on_c, 3, 88, 0
5, 4800, Note_on_c, 3, 88, 100
5, 4920, Note_on_c, 3, 88, 0
5, 5760, Note_on_c, 3, 81, 100
5, 5775, Note_on_c, 3, 81, 0
5, 5775, Note_on_c, 3, 83, 100
5, 5790, Note_on_c, 3, 83, 0
5, 5790, Note_on_c, 3, 84, 100
5, 5880, Note_on_c, 3, 84, 0
5, 5880, Note_on_c, 3, 84, 100
5, 5940, Note_on_c, 3, 84, 0
5, 5940, Note_on_c, 3, 84, 100
5, 6000, Note_on_c, 3, 84, 0
5, 6000, Note_on_c, 3, 84, 100
5, 6120, Note_on_c, 3, 84, 0
5, 6240, Note_on_c, 3, 81, 100
5, 6255, Note_on_c, 3, 81, 0
5, 6255, Note_on_c, 3, 83, 100
5, 6270, Note_on_c, 3, 83, 0
5, 6270, Note_on_c, 3, 84, 100
5, 6360, Note_on_c, 3, 84, 0
5, 6360, Note_on_c, 3, 84, 100
5, 6420, Note_on_c, 3, 84, 0
5, 6420, Note_on_c, 3, 84, 100
5, 6480, Note_on_c, 3, 84, 0
5, 6480, Note_on_c, 3, 84, 100
5, 6600, Note_on_c, 3, 84, 0
5, 6720, Note_on_c, 3, 77, 100
5, 6735, Note_on_c, 3, 77, 0
5, 6735, Note_on_c, 3, 79, 100
5, 6750, Note_on_c, 3, 79, 0
5, 6750, Note_on_c, 3, 81, 100
5, 6840, Note_on_c, 3, 81, 0
5, 6840, Note_on_c, 3, 81, 100
5, 6900, Note_on_c, 3, 81, 0
5, 6900, Note_on_c, 3, 81, 100
5, 6960, Note_on_c, 3, 81, 0
5, 6960, Note_on_c, 3, 74, 100
5, 6975, Note_on_c, 3, 74, 0
5, 6975, Note_on_c, 3, 76, 100
5, 6990, Note_on_c, 3, 76, 0
5, 6990, Note_on_c, 3, 77, 100
5, 7080, Note_on_c, 3, 77, 0
5, 7080, Note_on_c, 3, 77, 100
5, 7140, Note_on_c, 3, 77, 0
5, 7140, Note_on_c, 3, 77, 100
5, 7200, Note_on_c, 3, 77, 0
5, 7200, Note_on_c, 3, 76, 100
5, 7215, Note_on_c, 3, 76, 0
5, 7215, Note_on_c, 3, 77, 100
5, 7230, Note_on_c, 3, 77, 0
5, 7230, Note_on_c, 3, 79, 100
5, 7320, Note_on_c, 3, 79, 0
5, 7320, Note_on_c, 3, 79, 100
5, 7380, Note_on_c, 3, 79, 0
5, 7380, Note_on_c, 3, 79, 100
5, 7440, Note_on_c, 3, 79, 0
5, 7440, Note_on_c, 3, 72, 100
5, 7455, Note_on_c, 3, 72, 0
5, 7455, Note_on_c, 3, 74, 100
5, 7470, Note_on_c, 3, 74, 0
5, 7470, Note_on_c, 3, 76, 100
5, 7560, Note_on_c, 3, 76, 0
5, 7560, Note_on_c, 3, 76, 100
5, 7620, Note_on_c, 3, 76, 0
5, 7620, Note_on_c, 3, 76, 100
5, 7680, Note_on_c, 3, 76, 0
5, 7680, Note_on_c, 3, 69, 100
5, 7740, Note_on_c, 3, 69, 0
5, 7740, Note_on_c, 3, 77, 100
5, 7800, Note_on_c, 3, 77, 0
5, 7800, Note_on_c, 3, 76, 100
5, 7860, Note_on_c, 3, 76, 0
5, 7860, Note_on_c, 3, 74, 100
5, 7920, Note_on_c, 3, 74, 0
5, 7920, Note_on_c, 3, 72, 100
5, 7980, Note_on_c, 3, 72, 0
5, 7980, Note_on_c, 3, 74, 100
5, 8040, Note_on_c, 3, 74, 0
5, 8040, Note_on_c, 3, 72, 100
5, 8100, Note_on_c, 3, 72, 0
5, 8100, Note_on_c, 3, 71, 100
5, 8160, Note_on_c, 3, 71, 0
5, 8160, Note_on_c, 3, 72, 100
5, 8280, Note_on_c, 3, 72, 0
5, 8280, Note_on_c, 3, 71, 100
5, 8370, Note_on_c, 3, 71, 0
5, 8370, Note_on_c, 3, 69, 100
5, 8400, Note_on_c, 3, 69, 0
5, 8400, Note_on_c, 3, 67, 100
5, 8520, Note_on_c, 3, 67, 0
5, 8640, Note_on_c, 3, 77, 45
5, 8655, Note_on_c, 3, 77, 0
5, 8655, Note_on_c, 3, 79, 45
5, 8670, Note_on_c, 3, 79, 0
5, 8670, Note_on_c, 3, 81, 45
5, 8760, Note_on_c, 3, 81, 0
5, 8760, Note_on_c, 3, 81, 45
5, 8820, Note_on_c, 3, 81, 0
5, 8820, Note_on_c, 3, 81, 45
5, 8880, Note_on_c, 3, 81, 0
5, 8880, Note_on_c, 3, 74, 45
5, 8895, Note_on_c, 3, 74, 0
5, 8895, Note_on_c, 3, 76, 45
5, 8910, Note_on_c, 3, 76, 0
5, 8910, Note_on_c, 3, 77, 45
5, 9000, Note_on_c, 3, 77, 0
5, 9000, Note_on_c, 3, 77, 45
5, 9060, Note_on_c, 3, 77, 0
5, 9060, Note_on_c, 3, 77, 45
5, 9120, Note_on_c, 3, 77, 0
5, 9120, Note_on_c, 3, 76, 45
5, 9135, Note_on_c, 3, 76, 0
5, 9135, Note_on_c, 3, 77, 45
5, 9150, Note_on_c, 3, 77, 0
5, 9150, Note_on_c, 3, 79, 45
5, 9240, Note_on_c, 3, 79, 0
5, 9240, Note_on_c, 3, 79, 45
5, 9300, Note_on_c, 3, 79, 0
5, 9300, Note_on_c, 3, 79, 45
5, 9360, Note_on_c, 3, 79, 0
5, 9360, Note_on_c, 3, 72, 45
5, 9375, Note_on_c, 3, 72, 0
5, 9375, Note_on_c, 3, 74, 45
5, 9390, Note_on_c, 3, 74, 0
5, 9390, Note_on_c, 3, 76, 45
5, 9480, Note_on_c, 3, 76, 0
5, 9480, Note_on_c, 3, 76, 45
5, 9540, Note_on_c, 3, 76, 0
5, 9540, Note_on_c, 3, 76, 45
5, 9600, Note_on_c, 3, 76, 0
5, 9600, Note_on_c, 3, 74, 45
5, 9630, Note_on_c, 3, 74, 0
5, 9660, Note_on_c, 3, 81, 45
5, 9690, Note_on_c, 3, 81, 0
5, 9720, Note_on_c, 3, 79, 45
5, 9750, Note_on_c, 3, 79, 0
5, 9780, Note_on_c, 3, 77, 44
5, 9810, Note_on_c, 3, 77, 0
5, 9840, Note_on_c, 3, 76, 44
5, 9870, Note_on_c, 3, 76, 0
5, 9900, Note_on_c, 3, 77, 44
5, 9930, Note_on_c, 3, 77, 0
5, 9960, Note_on_c, 3, 76, 44
5, 9990, Note_on_c, 3, 76, 0
5, 10020, Note_on_c, 3, 74, 44
5, 10050, Note_on_c, 3, 74, 0
5, 10080, Note_on_c, 3, 72, 100
5, 10110, Note_on_c, 3, 72, 0
5, 10110, Note_on_c, 3, 72, 100
5, 10140, Note_on_c, 3, 72, 0
5, 10140, Note_on_c, 3, 72, 100
5, 10170, Note_on_c, 3, 72, 0
5, 10170, Note_on_c, 3, 72, 100
5, 10200, Note_on_c, 3, 72, 0
5, 10200, Note_on_c, 3, 72, 100
5, 10230, Note_on_c, 3, 72, 0
5, 10230, Note_on_c, 3, 72, 100
5, 10260, Note_on_c, 3, 72, 0
5, 10260, Note_on_c, 3, 72, 100
5, 10290, Note_on_c, 3, 72, 0
5, 10290, Note_on_c, 3, 72, 100
5, 10320, Note_on_c, 3, 72, 0
5, 10320, Note_on_c, 3, 68, 100
5, 10350, Note_on_c, 3, 68, 0
5, 10350, Note_on_c, 3, 68, 101
5, 10380, Note_on_c, 3, 68, 0
5, 10380, Note_on_c, 3, 68, 101
5, 10410, Note_on_c, 3, 68, 0
5, 10410, Note_on_c, 3, 68, 102
5, 10440, Note_on_c, 3, 68, 0
5, 10440, Note_on_c, 3, 68, 102
5, 10470, Note_on_c, 3, 68, 0
5, 10470, Note_on_c, 3, 68, 102
5, 10500, Note_on_c, 3, 68, 0
5, 10500, Note_on_c, 3, 68, 103
5, 10530, Note_on_c, 3, 68, 0
5, 10530, Note_on_c, 3, 68, 103
5, 10560, Note_on_c, 3, 68, 0
5, 10560, Note_on_c, 3, 69, 103
5, 10590, Note_on_c, 3, 69, 0
5, 10590, Note_on_c, 3, 69, 103
5, 10620, Note_on_c, 3, 69, 0
5, 10620, Note_on_c, 3, 69, 103
5, 10650, Note_on_c, 3, 69, 0
5, 10650, Note_on_c, 3, 69, 103
5, 10680, Note_on_c, 3, 69, 0
5, 10680, Note_on_c, 3, 69, 103
5, 10710, Note_on_c, 3, 69, 0
5, 10710, Note_on_c, 3, 69, 104
5, 10740, Note_on_c, 3, 69, 0
5, 10740, Note_on_c, 3, 69, 104
5, 10770, Note_on_c, 3, 69, 0
5, 10770, Note_on_c, 3, 69, 104
5, 10800, Note_on_c, 3, 69, 0
5, 10800, Note_on_c, 3, 64, 104
5, 10830, Note_on_c, 3, 64, 0
5, 10830, Note_on_c, 3, 64, 104
5, 10860, Note_on_c, 3, 64, 0
5, 10860, Note_on_c, 3, 64, 105
5, 10890, Note_on_c, 3, 64, 0
5, 10890, Note_on_c, 3, 64, 105
5, 10920, Note_on_c, 3, 64, 0
5, 10920, Note_on_c, 3, 64, 107
5, 10950, Note_on_c, 3, 64, 0
5, 10950, Note_on_c, 3, 64, 107
5, 10980, Note_on_c, 3, 64, 0
5, 10980, Note_on_c, 3, 64, 107
5, 11010, Note_on_c, 3, 64, 0
5, 11010, Note_on_c, 3, 64, 107
5, 11040, Note_on_c, 3, 64, 0
5, 11040, Note_on_c, 3, 65, 107
5, 11070, Note_on_c, 3, 65, 0
5, 11070, Note_on_c, 3, 65, 108
5, 11100, Note_on_c, 3, 65, 0
5, 11100, Note_on_c, 3, 65, 108
5, 11130, Note_on_c, 3, 65, 0
5, 11130, Note_on_c, 3, 65, 108
5, 11160, Note_on_c, 3, 65, 0
5, 11160, Note_on_c, 3, 65, 109
5, 11190, Note_on_c, 3, 65, 0
5, 11190, Note_on_c, 3, 65, 109
5, 11220, Note_on_c, 3, 65, 0
5, 11220, Note_on_c, 3, 65, 109
5, 11250, Note_on_c, 3, 65, 0
5, 11250, Note_on_c, 3, 65, 109
5, 11280, Note_on_c, 3, 65, 0
5, 11280, Note_on_c, 3, 59, 109
5, 11310, Note_on_c, 3, 59, 0
5, 11310, Note_on_c, 3, 59, 109
5, 11340, Note_on_c, 3, 59, 0
5, 11340, Note_on_c, 3, 59, 110
5, 11370, Note_on_c, 3, 59, 0
5, 11370, Note_on_c, 3, 59, 111
5, 11400, Note_on_c, 3, 59, 0
5, 11400, Note_on_c, 3, 59, 111
5, 11430, Note_on_c, 3, 59, 0
5, 11430, Note_on_c, 3, 59, 111
5, 11460, Note_on_c, 3, 59, 0
5, 11460, Note_on_c, 3, 59, 112
5, 11490, Note_on_c, 3, 59, 0
5, 11490, Note_on_c, 3, 59, 112
5, 11520, Note_on_c, 3, 59, 0
5, 11520, Note_on_c, 3, 60, 113
5, 11550, Note_on_c, 3, 60, 0
5, 11550, Note_on_c, 3, 60, 113
5, 11580, Note_on_c, 3, 60, 0
5, 11580, Note_on_c, 3, 60, 115
5, 11610, Note_on_c, 3, 60, 0
5, 11610, Note_on_c, 3, 60, 115
5, 11640, Note_on_c, 3, 60, 0
5, 11640, Note_on_c, 3, 60, 115
5, 11670, Note_on_c, 3, 60, 0
5, 11670, Note_on_c, 3, 60, 117
5, 11700, Note_on_c, 3, 60, 0
5, 11700, Note_on_c, 3, 60, 117
5, 11730, Note_on_c, 3, 60, 0
5, 11730, Note_on_c, 3, 60, 117
5, 11760, Note_on_c, 3, 60, 0
5, 11760, Note_on_c, 3, 56, 123
5, 11790, Note_on_c, 3, 56, 0
5, 11790, Note_on_c, 3, 56, 123
5, 11820, Note_on_c, 3, 56, 0
5, 11820, Note_on_c, 3, 56, 124
5, 11850, Note_on_c, 3, 56, 0
5, 11850, Note_on_c, 3, 56, 124
5, 11880, Note_on_c, 3, 56, 0
5, 11880, Note_on_c, 3, 56, 126
5, 11910, Note_on_c, 3, 56, 0
5, 11910, Note_on_c, 3, 56, 126
5, 11940, Note_on_c, 3, 56, 0
5, 11940, Note_on_c, 3, 56, 127
5, 11970, Note_on_c, 3, 56, 0
5, 11970, Note_on_c, 3, 56, 127
5, 12000, Note_on_c, 3, 56, 0
5, 12000, Note_on_c, 3, 55, 127
5, 12120, Note_on_c, 3, 55, 0
5, 12300, Note_on_c, 3, 62, 127
5, 12330, Note_on_c, 3, 62, 0
5, 12330, Note_on_c, 3, 67, 127
5, 12360, Note_on_c, 3, 67, 0
5, 12360, Note_on_c, 3, 71, 127
5, 12420, Note_on_c, 3, 71, 0
5, 12420, Note_on_c, 3, 67, 127
5, 12450, Note_on_c, 3, 67, 0
5, 12450, Note_on_c, 3, 71, 127
5, 12480, Note_on_c, 3, 71, 0
5, 12480, Note_on_c, 3, 74, 127
5, 12540, Note_on_c, 3, 74, 0
5, 12540, Note_on_c, 3, 71, 127
5, 12570, Note_on_c, 3, 71, 0
5, 12570, Note_on_c, 3, 74, 127
5, 12600, Note_on_c, 3, 74, 0
5, 12600, Note_on_c, 3, 79, 127
5, 12660, Note_on_c, 3, 79, 0
5, 12660, Note_on_c, 3, 74, 127
5, 12690, Note_on_c, 3, 74, 0
5, 12690, Note_on_c, 3, 79, 127
5, 12720, Note_on_c, 3, 79, 0
5, 12720, Note_on_c, 3, 83, 127
5, 12840, Note_on_c, 3, 83, 0
5, 12840, Note_on_c, 3, 84, 127
5, 12960, Note_on_c, 3, 84, 0
5, 12960, Note_on_c, 3, 83, 127
5, 13080, Note_on_c, 3, 83, 0
5, 13260, Note_on_c, 3, 62, 127
5, 13290, Note_on_c, 3, 62, 0
5, 13290, Note_on_c, 3, 67, 127
5, 13320, Note_on_c, 3, 67, 0
5, 13320, Note_on_c, 3, 71, 127
5, 13380, Note_on_c, 3, 71, 0
5, 13380, Note_on_c, 3, 67, 127
5, 13410, Note_on_c, 3, 67, 0
5, 13410, Note_on_c, 3, 71, 127
5, 13440, Note_on_c, 3, 71, 0
5, 13440, Note_on_c, 3, 74, 127
5, 13500, Note_on_c, 3, 74, 0
5, 13500, Note_on_c, 3, 71, 127
5, 13530, Note_on_c, 3, 71, 0
5, 13530, Note_on_c, 3, 74, 127
5, 13560, Note_on_c, 3, 74, 0
5, 13560, Note_on_c, 3, 79, 127
5, 13620, Note_on_c, 3, 79, 0
5, 13620, Note_on_c, 3, 74, 127
5, 13650, Note_on_c, 3, 74, 0
5, 13650, Note_on_c, 3, 79, 127
5, 13680, Note_on_c, 3, 79, 0
5, 13680, Note_on_c, 3, 83, 127
5, 13800, Note_on_c, 3, 83, 0
5, 13800, Note_on_c, 3, 84, 127
5, 13920, Note_on_c, 3, 84, 0
5, 13920, Note_on_c, 3, 83, 127
5, 14040, Note_on_c, 3, 83, 0
5, 14130, Note_on_c, 3, 86, 127
5, 14160, Note_on_c, 3, 86, 0
5, 14160, Note_on_c, 3, 86, 127
5, 14280, Note_on_c, 3, 86, 0
5, 14370, Note_on_c, 3, 55, 127
5, 14400, Note_on_c, 3, 55, 0
5, 14400, Note_on_c, 3, 55, 127
5, 14520, Note_on_c, 3, 55, 0
5, 15240, Note_on_c, 3, 86, 46
5, 15300, Note_on_c, 3, 86, 0
5, 15360, Note_on_c, 3, 84, 46
5, 15420, Note_on_c, 3, 84, 0
5, 15480, Note_on_c, 3, 86, 46
5, 15540, Note_on_c, 3, 86, 0
5, 15600, Note_on_c, 3, 83, 46
5, 15660, Note_on_c, 3, 83, 0
5, 15720, Note_on_c, 3, 86, 46
5, 15780, Note_on_c, 3, 86, 0
5, 15840, Note_on_c, 3, 81, 100
5, 15855, Note_on_c, 3, 81, 0
5, 15855, Note_on_c, 3, 79, 100
5, 15870, Note_on_c, 3, 79, 0
5, 15870, Note_on_c, 3, 78, 100
5, 15960, Note_on_c, 3, 78, 0
5, 15960, Note_on_c, 3, 78, 100
5, 15990, Note_on_c, 3, 78, 0
5, 16020, Note_on_c, 3, 78, 100
5, 16050, Note_on_c, 3, 78, 0
5, 16080, Note_on_c, 3, 78, 100
5, 16200, Note_on_c, 3, 78, 0
5, 16680, Note_on_c, 3, 86, 46
5, 16740, Note_on_c, 3, 86, 0
5, 16800, Note_on_c, 3, 84, 46
5, 16860, Note_on_c, 3, 84, 0
5, 16920, Note_on_c, 3, 86, 46
5, 16980, Note_on_c, 3, 86, 0
5, 17040, Note_on_c, 3, 83, 46
5, 17100, Note_on_c, 3, 83, 0
5, 17160, Note_on_c, 3, 86, 46
5, 17220, Note_on_c, 3, 86, 0
5, 17280, Note_on_c, 3, 81, 100
5, 17295, Note_on_c, 3, 81, 0
5, 17295, Note_on_c, 3, 79, 100
5, 17310, Note_on_c, 3, 79, 0
5, 17310, Note_on_c, 3, 78, 100
5, 17400, Note_on_c, 3, 78, 0
5, 17400, Note_on_c, 3, 78, 100
5, 17430, Note_on_c, 3, 78, 0
5, 17460, Note_on_c, 3, 78, 100
5, 17490, Note_on_c, 3, 78, 0
5, 17520, Note_on_c, 3, 78, 100
5, 17640, Note_on_c, 3, 78, 0
5, 19020, Note_on_c, 3, 74, 45
5, 19080, Note_on_c, 3, 74, 0
5, 19080, Note_on_c, 3, 74, 45
5, 19140, Note_on_c, 3, 74, 0
5, 19140, Note_on_c, 3, 74, 45
5, 19200, Note_on_c, 3, 74, 0
5, 19200, Note_on_c, 3, 74, 100
5, 19260, Note_on_c, 3, 74, 0
5, 19260, Note_on_c, 3, 76, 100
5, 19320, Note_on_c, 3, 76, 0
5, 19320, Note_on_c, 3, 72, 42
5, 19350, Note_on_c, 3, 72, 0
5, 19380, Note_on_c, 3, 72, 43
5, 19410, Note_on_c, 3, 72, 0
5, 19440, Note_on_c, 3, 72, 100
5, 19500, Note_on_c, 3, 72, 0
5, 19500, Note_on_c, 3, 74, 101
5, 19560, Note_on_c, 3, 74, 0
5, 19560, Note_on_c, 3, 71, 41
5, 19590, Note_on_c, 3, 71, 0
5, 19620, Note_on_c, 3, 71, 41
5, 19650, Note_on_c, 3, 71, 0
5, 19680, Note_on_c, 3, 71, 40
5, 19740, Note_on_c, 3, 71, 0
5, 19740, Note_on_c, 3, 69, 41
5, 19800, Note_on_c, 3, 69, 0
5, 19800, Note_on_c, 3, 72, 41
5, 19860, Note_on_c, 3, 72, 0
5, 19860, Note_on_c, 3, 69, 41
5, 19920, Note_on_c, 3, 69, 0
5, 19920, Note_on_c, 3, 67, 41
5, 20040, Note_on_c, 3, 67, 0
5, 20040, Note_on_c, 3, 66, 41
5, 20160, Note_on_c, 3, 66, 0
5, 20160, Note_on_c, 3, 67, 100
5, 20280, Note_on_c, 3, 67, 0
5, 21420, Note_on_c, 3, 74, 45
5, 21480, Note_on_c, 3, 74, 0
5, 21480, Note_on_c, 3, 74, 45
5, 21540, Note_on_c, 3, 74, 0
5, 21540, Note_on_c, 3, 74, 45
5, 21600, Note_on_c, 3, 74, 0
5, 21600, Note_on_c, 3, 74, 100
5, 21660, Note_on_c, 3, 74, 0
5, 21660, Note_on_c, 3, 76, 100
5, 21720, Note_on_c, 3, 76, 0
5, 21720, Note_on_c, 3, 72, 42
5, 21750, Note_on_c, 3, 72, 0
5, 21780, Note_on_c, 3, 72, 43
5, 21810, Note_on_c, 3, 72, 0
5, 21840, Note_on_c, 3, 72, 100
5, 21900, Note_on_c, 3, 72, 0
5, 21900, Note_on_c, 3, 74, 101
5, 21960, Note_on_c, 3, 74, 0
5, 21960, Note_on_c, 3, 71, 41
5, 21990, Note_on_c, 3, 71, 0
5, 22020, Note_on_c, 3, 71, 41
5, 22050, Note_on_c, 3, 71, 0
5, 22080, Note_on_c, 3, 71, 40
5, 22140, Note_on_c, 3, 71, 0
5, 22140, Note_on_c, 3, 69, 41
5, 22200, Note_on_c, 3, 69, 0
5, 22200, Note_on_c, 3, 72, 41
5, 22260, Note_on_c, 3, 72, 0
5, 22260, Note_on_c, 3, 69, 41
5, 22320, Note_on_c, 3, 69, 0
5, 22320, Note_on_c, 3, 67, 41
5, 22440, Note_on_c, 3, 67, 0
5, 22440, Note_on_c, 3, 66, 41
5, 22560, Note_on_c, 3, 66, 0
5, 22560, Note_on_c, 3, 55, 127
5, 22560, Note_on_c, 3, 67, 127
5, 22680, Note_on_c, 3, 67, 0
5, 22680, Note_on_c, 3, 55, 0
5, 22680, Note_on_c, 3, 62, 127
5, 22680, Note_on_c, 3, 71, 127
5, 22680, Note_on_c, 3, 83, 127
5, 22800, Note_on_c, 3, 83, 0
5, 22800, Note_on_c, 3, 71, 0
5, 22800, Note_on_c, 3, 62, 0
5, 22800, Note_on_c, 3, 62, 127
5, 22800, Note_on_c, 3, 74, 127
5, 22800, Note_on_c, 3, 86, 127
5, 22920, Note_on_c, 3, 86, 0
5, 22920, Note_on_c, 3, 74, 0
5, 22920, Note_on_c, 3, 62, 0
5, 23040, Note_on_c, 3, 62, 127
5, 23040, Note_on_c, 3, 69, 127
5, 23040, Note_on_c, 3, 78, 127
5, 23160, Note_on_c, 3, 78, 0
5, 23160, Note_on_c, 3, 69, 0
5, 23160, Note_on_c, 3, 62, 0
5, 23160, Note_on_c, 3, 62, 127
5, 23160, Note_on_c, 3, 69, 127
5, 23160, Note_on_c, 3, 81, 127
5, 23280, Note_on_c, 3, 81, 0
5, 23280, Note_on_c, 3, 69, 0
5, 23280, Note_on_c, 3, 62, 0
5, 23280, Note_on_c, 3, 62, 127
5, 23280, Note_on_c, 3, 69, 127
5, 23280, Note_on_c, 3, 84, 127
5, 23400, Note_on_c, 3, 84, 0
5, 23400, Note_on_c, 3, 69, 0
5, 23400, Note_on_c, 3, 62, 0
5, 23520, Note_on_c, 3, 79, 127
5, 23520, Note_on_c, 3, 71, 127
5, 23520, Note_on_c, 3, 62, 127
5, 23640, Note_on_c, 3, 62, 0
5, 23640, Note_on_c, 3, 71, 0
5, 23640, Note_on_c, 3, 79, 0
5, 23640, Note_on_c, 3, 83, 127
5, 23640, Note_on_c, 3, 71, 127
5, 23640, Note_on_c, 3, 62, 127
5, 23760, Note_on_c, 3, 62, 0
5, 23760, Note_on_c, 3, 71, 0
5, 23760, Note_on_c, 3, 83, 0
5, 23760, Note_on_c, 3, 86, 127
5, 23760, Note_on_c, 3, 74, 127
5, 23760, Note_on_c, 3, 62, 127
5, 23880, Note_on_c, 3, 62, 0
5, 23880, Note_on_c, 3, 74, 0
5, 23880, Note_on_c, 3, 86, 0
5, 24000, Note_on_c, 3, 62, 127
5, 24000, Note_on_c, 3, 69, 127
5, 24000, Note_on_c, 3, 78, 127
5, 24120, Note_on_c, 3, 78, 0
5, 24120, Note_on_c, 3, 69, 0
5, 24120, Note_on_c, 3, 62, 0
5, 24120, Note_on_c, 3, 62, 127
5, 24120, Note_on_c, 3, 69, 127
5, 24120, Note_on_c, 3, 81, 127
5, 24240, Note_on_c, 3, 81, 0
5, 24240, Note_on_c, 3, 69, 0
5, 24240, Note_on_c, 3, 62, 0
5, 24240, Note_on_c, 3, 62, 127
5, 24240, Note_on_c, 3, 69, 127
5, 24240, Note_on_c, 3, 84, 127
5, 24360, Note_on_c, 3, 84, 0
5, 24360, Note_on_c, 3, 69, 0
5, 24360, Note_on_c, 3, 62, 0
5, 24480, Note_on_c, 3, 62, 127
5, 24480, Note_on_c, 3, 71, 127
5, 24480, Note_on_c, 3, 79, 127
5, 24600, Note_on_c, 3, 79, 0
5, 24600, Note_on_c, 3, 71, 0
5, 24600, Note_on_c, 3, 62, 0
5, 24600, Note_on_c, 3, 79, 127
5, 24690, Note_on_c, 3, 79, 0
5, 24690, Note_on_c, 3, 79, 127
5, 24720, Note_on_c, 3, 79, 0
5, 24720, Note_on_c, 3, 79, 127
5, 24840, Note_on_c, 3, 79, 0
5, 24840, Note_on_c, 3, 79, 127
5, 24870, Note_on_c, 3, 79, 0
5, 24870, Note_on_c, 3, 78, 127
5, 24900, Note_on_c, 3, 78, 0
5, 24900, Note_on_c, 3, 79, 127
5, 24930, Note_on_c, 3, 79, 0
5, 24930, Note_on_c, 3, 81, 127
5, 24960, Note_on_c, 3, 81, 0
5, 24960, Note_on_c, 3, 79, 127
5, 25080, Note_on_c, 3, 79, 0
5, 25080, Note_on_c, 3, 83, 127
5, 25170, Note_on_c, 3, 83, 0
5, 25170, Note_on_c, 3, 83, 127
5, 25200, Note_on_c, 3, 83, 0
5, 25200, Note_on_c, 3, 83, 127
5, 25320, Note_on_c, 3, 83, 0
5, 25320, Note_on_c, 3, 79, 127
5, 25350, Note_on_c, 3, 79, 0
5, 25350, Note_on_c, 3, 78, 127
5, 25380, Note_on_c, 3, 78, 0
5, 25380, Note_on_c, 3, 79, 127
5, 25410, Note_on_c, 3, 79, 0
5, 25410, Note_on_c, 3, 81, 127
5, 25440, Note_on_c, 3, 81, 0
5, 25440, Note_on_c, 3, 79, 127
5, 25560, Note_on_c, 3, 79, 0
5, 25560, Note_on_c, 3, 83, 127
5, 25650, Note_on_c, 3, 83, 0
5, 25650, Note_on_c, 3, 83, 127
5, 25680, Note_on_c, 3, 83, 0
5, 25680, Note_on_c, 3, 83, 127
5, 25800, Note_on_c, 3, 83, 0
5, 25800, Note_on_c, 3, 79, 127
5, 25830, Note_on_c, 3, 79, 0
5, 25830, Note_on_c, 3, 81, 127
5, 25860, Note_on_c, 3, 81, 0
5, 25860, Note_on_c, 3, 79, 127
5, 25890, Note_on_c, 3, 79, 0
5, 25890, Note_on_c, 3, 78, 127
5, 25920, Note_on_c, 3, 78, 0
5, 25920, Note_on_c, 3, 76, 127
5, 26040, Note_on_c, 3, 76, 0
5, 26040, Note_on_c, 3, 76, 127
5, 26160, Note_on_c, 3, 76, 0
5, 26160, Note_on_c, 3, 74, 127
5, 26280, Note_on_c, 3, 74, 0
5, 26280, Note_on_c, 3, 62, 127
5, 26280, Note_on_c, 3, 69, 127
5, 26280, Note_on_c, 3, 78, 127
5, 26400, Note_on_c, 3, 78, 0
5, 26400, Note_on_c, 3, 69, 0
5, 26400, Note_on_c, 3, 62, 0
5, 26400, Note_on_c, 3, 62, 127
5, 26400, Note_on_c, 3, 71, 127
5, 26400, Note_on_c, 3, 79, 127
5, 26520, Note_on_c, 3, 79, 0
5, 26520, Note_on_c, 3, 71, 0
5, 26520, Note_on_c, 3, 62, 0
5, 26520, Note_on_c, 3, 79, 127
5, 26610, Note_on_c, 3, 79, 0
5, 26610, Note_on_c, 3, 79, 127
5, 26640, Note_on_c, 3, 79, 0
5, 26640, Note_on_c, 3, 79, 127
5, 26760, Note_on_c, 3, 79, 0
5, 26760, Note_on_c, 3, 79, 127
5, 26790, Note_on_c, 3, 79, 0
5, 26790, Note_on_c, 3, 78, 127
5, 26820, Note_on_c, 3, 78, 0
5, 26820, Note_on_c, 3, 79, 127
5, 26850, Note_on_c, 3, 79, 0
5, 26850, Note_on_c, 3, 81, 127
5, 26880, Note_on_c, 3, 81, 0
5, 26880, Note_on_c, 3, 79, 127
5, 27000, Note_on_c, 3, 79, 0
5, 27000, Note_on_c, 3, 83, 127
5, 27090, Note_on_c, 3, 83, 0
5, 27090, Note_on_c, 3, 83, 127
5, 27120, Note_on_c, 3, 83, 0
5, 27120, Note_on_c, 3, 83, 127
5, 27240, Note_on_c, 3, 83, 0
5, 27240, Note_on_c, 3, 79, 127
5, 27270, Note_on_c, 3, 79, 0
5, 27270, Note_on_c, 3, 78, 127
5, 27300, Note_on_c, 3, 78, 0
5, 27300, Note_on_c, 3, 79, 127
5, 27330, Note_on_c, 3, 79, 0
5, 27330, Note_on_c, 3, 81, 127
5, 27360, Note_on_c, 3, 81, 0
5, 27360, Note_on_c, 3, 79, 127
5, 27480, Note_on_c, 3, 79, 0
5, 27480, Note_on_c, 3, 83, 127
5, 27570, Note_on_c, 3, 83, 0
5, 27570, Note_on_c, 3, 83, 127
5, 27600, Note_on_c, 3, 83, 0
5, 27600, Note_on_c, 3, 83, 127
5, 27720, Note_on_c, 3, 83, 0
5, 27720, Note_on_c, 3, 79, 127
5, 27750, Note_on_c, 3, 79, 0
5, 27750, Note_on_c, 3, 81, 127
5, 27780, Note_on_c, 3, 81, 0
5, 27780, Note_on_c, 3, 79, 127
5, 27810, Note_on_c, 3, 79, 0
5, 27810, Note_on_c, 3, 78, 127
5, 27840, Note_on_c, 3, 78, 0
5, 27840, Note_on_c, 3, 76, 127
5, 27960, Note_on_c, 3, 76, 0
5, 27960, Note_on_c, 3, 76, 127
5, 28080, Note_on_c, 3, 76, 0
5, 28080, Note_on_c, 3, 74, 127
5, 28200, Note_on_c, 3, 74, 0
5, 28200, Note_on_c, 3, 62, 127
5, 28200, Note_on_c, 3, 69, 127
5, 28200, Note_on_c, 3, 78, 127
5, 28320, Note_on_c, 3, 78, 0
5, 28320, Note_on_c, 3, 69, 0
5, 28320, Note_on_c, 3, 62, 0
5, 28320, Note_on_c, 3, 71, 127
5, 28320, Note_on_c, 3, 79, 127
5, 28350, Note_on_c, 3, 79, 0
5, 28350, Note_on_c, 3, 71, 0
5, 28350, Note_on_c, 3, 71, 127
5, 28350, Note_on_c, 3, 79, 127
5, 28380, Note_on_c, 3, 79, 0
5, 28380, Note_on_c, 3, 71, 0
5, 28380, Note_on_c, 3, 71, 127
5, 28380, Note_on_c, 3, 79, 127
5, 28410, Note_on_c, 3, 79, 0
5, 28410, Note_on_c, 3, 71, 0
5, 28410, Note_on_c, 3, 71, 127
5, 28410, Note_on_c, 3, 79, 127
5, 28440, Note_on_c, 3, 79, 0
5, 28440, Note_on_c, 3, 71, 0
5, 28440, Note_on_c, 3, 71, 127
5, 28440, Note_on_c, 3, 79, 127
5, 28470, Note_on_c, 3, 79, 0
5, 28470, Note_on_c, 3, 71, 0
5, 28470, Note_on_c, 3, 71, 127
5, 28470, Note_on_c, 3, 79, 127
5, 28500, Note_on_c, 3, 79, 0
5, 28500, Note_on_c, 3, 71, 0
5, 28500, Note_on_c, 3, 71, 127
5, 28500, Note_on_c, 3, 79, 127
5, 28530, Note_on_c, 3, 79, 0
5, 28530, Note_on_c, 3, 71, 0
5, 28530, Note_on_c, 3, 71, 127
5, 28530, Note_on_c, 3, 79, 127
5, 28560, Note_on_c, 3, 79, 0
5, 28560, Note_on_c, 3, 71, 0
5, 28560, Note_on_c, 3, 71, 127
5, 28560, Note_on_c, 3, 79, 127
5, 28590, Note_on_c, 3, 79, 0
5, 28590, Note_on_c, 3, 71, 0
5, 28590, Note_on_c, 3, 71, 127
5, 28590, Note_on_c, 3, 79, 127
5, 28620, Note_on_c, 3, 79, 0
5, 28620, Note_on_c, 3, 71, 0
5, 28620, Note_on_c, 3, 71, 127
5, 28620, Note_on_c, 3, 79, 127
5, 28650, Note_on_c, 3, 79, 0
5, 28650, Note_on_c, 3, 71, 0
5, 28650, Note_on_c, 3, 71, 127
5, 28650, Note_on_c, 3, 79, 127
5, 28680, Note_on_c, 3, 79, 0
5, 28680, Note_on_c, 3, 71, 0
5, 28680, Note_on_c, 3, 71, 127
5, 28680, Note_on_c, 3, 79, 127
5, 28710, Note_on_c, 3, 79, 0
5, 28710, Note_on_c, 3, 71, 0
5, 28710, Note_on_c, 3, 71, 127
5, 28710, Note_on_c, 3, 79, 127
5, 28740, Note_on_c, 3, 79, 0
5, 28740, Note_on_c, 3, 71, 0
5, 28740, Note_on_c, 3, 71, 127
5, 28740, Note_on_c, 3, 79, 127
5, 28770, Note_on_c, 3, 79, 0
5, 28770, Note_on_c, 3, 71, 0
5, 28770, Note_on_c, 3, 71, 127
5, 28770, Note_on_c, 3, 79, 127
5, 28800, Note_on_c, 3, 79, 0
5, 28800, Note_on_c, 3, 71, 0
5, 28800, Note_on_c, 3, 71, 127
5, 28800, Note_on_c, 3, 79, 127
5, 28830, Note_on_c, 3, 79, 0
5, 28830, Note_on_c, 3, 71, 0
5, 28830, Note_on_c, 3, 71, 127
5, 28830, Note_on_c, 3, 79, 127
5, 28860, Note_on_c, 3, 79, 0
5, 28860, Note_on_c, 3, 71, 0
5, 28860, Note_on_c, 3, 71, 127
5, 28860, Note_on_c, 3, 79, 127
5, 28890, Note_on_c, 3, 79, 0
5, 28890, Note_on_c, 3, 71, 0
5, 28890, Note_on_c, 3, 71, 127
5, 28890, Note_on_c, 3, 79, 127
5, 28920, Note_on_c, 3, 79, 0
5, 28920, Note_on_c, 3, 71, 0
5, 28920, Note_on_c, 3, 71, 127
5, 28920, Note_on_c, 3, 79, 127
5, 28950, Note_on_c, 3, 79, 0
5, 28950, Note_on_c, 3, 71, 0
5, 28950, Note_on_c, 3, 71, 127
5, 28950, Note_on_c, 3, 79, 127
5, 28980, Note_on_c, 3, 79, 0
5, 28980, Note_on_c, 3, 71, 0
5, 28980, Note_on_c, 3, 71, 127
5, 28980, Note_on_c, 3, 79, 127
5, 29010, Note_on_c, 3, 79, 0
5, 29010, Note_on_c, 3, 71, 0
5, 29010, Note_on_c, 3, 71, 127
5, 29010, Note_on_c, 3, 79, 127
5, 29040, Note_on_c, 3, 79, 0
5, 29040, Note_on_c, 3, 71, 0
5, 29040, Note_on_c, 3, 71, 127
5, 29040, Note_on_c, 3, 79, 127
5, 29070, Note_on_c, 3, 79, 0
5, 29070, Note_on_c, 3, 71, 0
5, 29070, Note_on_c, 3, 71, 127
5, 29070, Note_on_c, 3, 79, 127
5, 29100, Note_on_c, 3, 79, 0
5, 29100, Note_on_c, 3, 71, 0
5, 29100, Note_on_c, 3, 71, 127
5, 29100, Note_on_c, 3, 79, 127
5, 29130, Note_on_c, 3, 79, 0
5, 29130, Note_on_c, 3, 71, 0
5, 29130, Note_on_c, 3, 71, 127
5, 29130, Note_on_c, 3, 79, 127
5, 29160, Note_on_c, 3, 79, 0
5, 29160, Note_on_c, 3, 71, 0
5, 29160, Note_on_c, 3, 71, 127
5, 29160, Note_on_c, 3, 79, 127
5, 29190, Note_on_c, 3, 79, 0
5, 29190, Note_on_c, 3, 71, 0
5, 29190, Note_on_c, 3, 71, 127
5, 29190, Note_on_c, 3, 79, 127
5, 29220, Note_on_c, 3, 79, 0
5, 29220, Note_on_c, 3, 71, 0
5, 29220, Note_on_c, 3, 71, 127
5, 29220, Note_on_c, 3, 79, 127
5, 29250, Note_on_c, 3, 79, 0
5, 29250, Note_on_c, 3, 71, 0
5, 29250, Note_on_c, 3, 71, 127
5, 29250, Note_on_c, 3, 79, 127
5, 29280, Note_on_c, 3, 79, 0
5, 29280, Note_on_c, 3, 71, 0
5, 29280, Note_on_c, 3, 71, 127
5, 29280, Note_on_c, 3, 79, 127
5, 29400, Note_on_c, 3, 79, 0
5, 29400, Note_on_c, 3, 71, 0
5, 30120, Note_on_c, 3, 62, 100
5, 30120, Note_on_c, 3, 69, 100
5, 30240, Note_on_c, 3, 69, 0
5, 30240, Note_on_c, 3, 62, 0
5, 30240, Note_on_c, 3, 55, 100
5, 30240, Note_on_c, 3, 62, 100
5, 30240, Note_on_c, 3, 71, 100
5, 30360, Note_on_c, 3, 71, 0
5, 30360, Note_on_c, 3, 62, 0
5, 30360, Note_on_c, 3, 55, 0
5, 30600, Note_on_c, 3, 62, 100
5, 30600, Note_on_c, 3, 69, 100
5, 30720, Note_on_c, 3, 69, 0
5, 30720, Note_on_c, 3, 62, 0
5, 30720, Note_on_c, 3, 62, 100
5, 30720, Note_on_c, 3, 55, 100
5, 30720, Note_on_c, 3, 71, 100
5, 30840, Note_on_c, 3, 71, 0
5, 30840, Note_on_c, 3, 55, 0
5, 30840, Note_on_c, 3, 62, 0
5, 31080, Note_on_c, 3, 62, 100
5, 31080, Note_on_c, 3, 69, 100
5, 31200, Note_on_c, 3, 69, 0
5, 31200, Note_on_c, 3, 62, 0
5, 31200, Note_on_c, 3, 55, 100
5, 31200, Note_on_c, 3, 67, 100
5, 31320, Note_on_c, 3, 67, 0
5, 31320, Note_on_c, 3, 55, 0
5, 31320, Note_on_c, 3, 62, 100
5, 31320, Note_on_c, 3, 71, 100
5, 31320, Note_on_c, 3, 79, 100
5, 31440, Note_on_c, 3, 79, 0
5, 31440, Note_on_c, 3, 71, 0
5, 31440, Note_on_c, 3, 62, 0
5, 31440, Note_on_c, 3, 55, 100
5, 31560, Note_on_c, 3, 55, 0
5, 31560, Note_on_c, 3, 67, 100
5, 31560, Note_on_c, 3, 74, 100
5, 31560, Note_on_c, 3, 83, 100
5, 31680, Note_on_c, 3, 83, 0
5, 31680, Note_on_c, 3, 74, 0
5, 31680, Note_on_c, 3, 67, 0
5, 31680, Note_on_c, 3, 55, 100
5, 31800, Note_on_c, 3, 55, 0
5, 31800, Note_on_c, 3, 86, 100
5, 31800, Note_on_c, 3, 74, 100
5, 31800, Note_on_c, 3, 62, 100
5, 31920, Note_on_c, 3, 62, 0
5, 31920, Note_on_c, 3, 74, 0
5, 31920, Note_on_c, 3, 86, 0
5, 32160, Note_on_c, 3, 64, 100
5, 32520, Note_on_c, 3, 64, 0
5, 32520, Note_on_c, 3, 76, 42
5, 32580, Note_on_c, 3, 76, 0
5, 32640, Note_on_c, 3, 74, 43
5, 32700, Note_on_c, 3, 74, 0
5, 32760, Note_on_c, 3, 76, 43
5, 32820, Note_on_c, 3, 76, 0
5, 32880, Note_on_c, 3, 72, 43
5, 32940, Note_on_c, 3, 72, 0
5, 33000, Note_on_c, 3, 76, 43
5, 33060, Note_on_c, 3, 76, 0
5, 33120, Note_on_c, 3, 71, 43
5, 33180, Note_on_c, 3, 71, 0
5, 33240, Note_on_c, 3, 76, 43
5, 33300, Note_on_c, 3, 76, 0
5, 33360, Note_on_c, 3, 69, 43
5, 33420, Note_on_c, 3, 69, 0
5, 33480, Note_on_c, 3, 81, 43
5, 33540, Note_on_c, 3, 81, 0
5, 33600, Note_on_c, 3, 64, 100
5, 33600, Note_on_c, 3, 71, 100
5, 33600, Note_on_c, 3, 80, 100
5, 33720, Note_on_c, 3, 80, 0
5, 33720, Note_on_c, 3, 71, 0
5, 33720, Note_on_c, 3, 64, 0
5, 33720, Note_on_c, 3, 64, 100
5, 33720, Note_on_c, 3, 72, 100
5, 33720, Note_on_c, 3, 81, 100
5, 33840, Note_on_c, 3, 81, 0
5, 33840, Note_on_c, 3, 72, 0
5, 33840, Note_on_c, 3, 64, 0
5, 34080, Note_on_c, 3, 62, 100
5, 34440, Note_on_c, 3, 62, 0
5, 34440, Note_on_c, 3, 74, 42
5, 34500, Note_on_c, 3, 74, 0
5, 34560, Note_on_c, 3, 72, 43
5, 34620, Note_on_c, 3, 72, 0
5, 34680, Note_on_c, 3, 74, 43
5, 34740, Note_on_c, 3, 74, 0
5, 34800, Note_on_c, 3, 71, 43
5, 34860, Note_on_c, 3, 71, 0
5, 34920, Note_on_c, 3, 74, 43
5, 34980, Note_on_c, 3, 74, 0
5, 35040, Note_on_c, 3, 69, 43
5, 35100, Note_on_c, 3, 69, 0
5, 35160, Note_on_c, 3, 74, 43
5, 35220, Note_on_c, 3, 74, 0
5, 35280, Note_on_c, 3, 67, 43
5, 35340, Note_on_c, 3, 67, 0
5, 35400, Note_on_c, 3, 79, 43
5, 35460, Note_on_c, 3, 79, 0
5, 35520, Note_on_c, 3, 62, 100
5, 35520, Note_on_c, 3, 69, 100
5, 35520, Note_on_c, 3, 78, 100
5, 35640, Note_on_c, 3, 78, 0
5, 35640, Note_on_c, 3, 69, 0
5, 35640, Note_on_c, 3, 62, 0
5, 35640, Note_on_c, 3, 62, 100
5, 35640, Note_on_c, 3, 71, 100
5, 35640, Note_on_c, 3, 79, 100
5, 35760, Note_on_c, 3, 79, 0
5, 35760, Note_on_c, 3, 71, 0
5, 35760, Note_on_c, 3, 62, 0
5, 36000, Note_on_c, 3, 60, 100
5, 36360, Note_on_c, 3, 60, 0
5, 36360, Note_on_c, 3, 72, 45
5, 36420, Note_on_c, 3, 72, 0
5, 36480, Note_on_c, 3, 70, 45
5, 36540, Note_on_c, 3, 70, 0
5, 36600, Note_on_c, 3, 72, 46
5, 36660, Note_on_c, 3, 72, 0
5, 36720, Note_on_c, 3, 69, 46
5, 36780, Note_on_c, 3, 69, 0
5, 36840, Note_on_c, 3, 72, 46
5, 36900, Note_on_c, 3, 72, 0
5, 36960, Note_on_c, 3, 67, 46
5, 37020, Note_on_c, 3, 67, 0
5, 37080, Note_on_c, 3, 72, 46
5, 37140, Note_on_c, 3, 72, 0
5, 37200, Note_on_c, 3, 65, 46
5, 37260, Note_on_c, 3, 65, 0
5, 37320, Note_on_c, 3, 77, 46
5, 37380, Note_on_c, 3, 77, 0
5, 37440, Note_on_c, 3, 76, 46
5, 37500, Note_on_c, 3, 76, 0
5, 37560, Note_on_c, 3, 79, 46
5, 37620, Note_on_c, 3, 79, 0
5, 37680, Note_on_c, 3, 82, 46
5, 37740, Note_on_c, 3, 82, 0
5, 37800, Note_on_c, 3, 79, 46
5, 37860, Note_on_c, 3, 79, 0
5, 37920, Note_on_c, 3, 81, 100
5, 37935, Note_on_c, 3, 81, 0
5, 37935, Note_on_c, 3, 83, 100
5, 37950, Note_on_c, 3, 83, 0
5, 37950, Note_on_c, 3, 84, 100
5, 38040, Note_on_c, 3, 84, 0
5, 38040, Note_on_c, 3, 84, 100
5, 38100, Note_on_c, 3, 84, 0
5, 38100, Note_on_c, 3, 84, 100
5, 38160, Note_on_c, 3, 84, 0
5, 38160, Note_on_c, 3, 84, 100
5, 38280, Note_on_c, 3, 84, 0
5, 38400, Note_on_c, 3, 81, 100
5, 38415, Note_on_c, 3, 81, 0
5, 38415, Note_on_c, 3, 83, 100
5, 38430, Note_on_c, 3, 83, 0
5, 38430, Note_on_c, 3, 84, 100
5, 38520, Note_on_c, 3, 84, 0
5, 38520, Note_on_c, 3, 84, 100
5, 38580, Note_on_c, 3, 84, 0
5, 38580, Note_on_c, 3, 84, 100
5, 38640, Note_on_c, 3, 84, 0
5, 38640, Note_on_c, 3, 84, 100
5, 38760, Note_on_c, 3, 84, 0
5, 38880, Note_on_c, 3, 77, 100
5, 38895, Note_on_c, 3, 77, 0
5, 38895, Note_on_c, 3, 79, 100
5, 38910, Note_on_c, 3, 79, 0
5, 38910, Note_on_c, 3, 81, 100
5, 39000, Note_on_c, 3, 81, 0
5, 39000, Note_on_c, 3, 81, 100
5, 39060, Note_on_c, 3, 81, 0
5, 39060, Note_on_c, 3, 81, 100
5, 39120, Note_on_c, 3, 81, 0
5, 39120, Note_on_c, 3, 74, 100
5, 39135, Note_on_c, 3, 74, 0
5, 39135, Note_on_c, 3, 76, 100
5, 39150, Note_on_c, 3, 76, 0
5, 39150, Note_on_c, 3, 77, 100
5, 39240, Note_on_c, 3, 77, 0
5, 39240, Note_on_c, 3, 77, 100
5, 39300, Note_on_c, 3, 77, 0
5, 39300, Note_on_c, 3, 77, 100
5, 39360, Note_on_c, 3, 77, 0
5, 39360, Note_on_c, 3, 76, 100
5, 39375, Note_on_c, 3, 76, 0
5, 39375, Note_on_c, 3, 77, 100
5, 39390, Note_on_c, 3, 77, 0
5, 39390, Note_on_c, 3, 79, 100
5, 39480, Note_on_c, 3, 79, 0
5, 39480, Note_on_c, 3, 79, 100
5, 39540, Note_on_c, 3, 79, 0
5, 39540, Note_on_c, 3, 79, 100
5, 39600, Note_on_c, 3, 79, 0
5, 39600, Note_on_c, 3, 72, 100
5, 39615, Note_on_c, 3, 72, 0
5, 39615, Note_on_c, 3, 74, 100
5, 39630, Note_on_c, 3, 74, 0
5, 39630, Note_on_c, 3, 76, 100
5, 39720, Note_on_c, 3, 76, 0
5, 39720, Note_on_c, 3, 76, 100
5, 39780, Note_on_c, 3, 76, 0
5, 39780, Note_on_c, 3, 76, 100
5, 39840, Note_on_c, 3, 76, 0
5, 39840, Note_on_c, 3, 69, 100
5, 39900, Note_on_c, 3, 69, 0
5, 39900, Note_on_c, 3, 77, 100
5, 39960, Note_on_c, 3, 77, 0
5, 39960, Note_on_c, 3, 76, 100
5, 40020, Note_on_c, 3, 76, 0
5, 40020, Note_on_c, 3, 74, 100
5, 40080, Note_on_c, 3, 74, 0
5, 40080, Note_on_c, 3, 72, 100
5, 40140, Note_on_c, 3, 72, 0
5, 40140, Note_on_c, 3, 74, 100
5, 40200, Note_on_c, 3, 74, 0
5, 40200, Note_on_c, 3, 72, 100
5, 40260, Note_on_c, 3, 72, 0
5, 40260, Note_on_c, 3, 71, 100
5, 40320, Note_on_c, 3, 71, 0
5, 40320, Note_on_c, 3, 72, 100
5, 40440, Note_on_c, 3, 72, 0
5, 40440, Note_on_c, 3, 71, 100
5, 40530, Note_on_c, 3, 71, 0
5, 40530, Note_on_c, 3, 69, 100
5, 40560, Note_on_c, 3, 69, 0
5, 40560, Note_on_c, 3, 67, 100
5, 40680, Note_on_c, 3, 67, 0
5, 40800, Note_on_c, 3, 77, 45
5, 40815, Note_on_c, 3, 77, 0
5, 40815, Note_on_c, 3, 79, 45
5, 40830, Note_on_c, 3, 79, 0
5, 40830, Note_on_c, 3, 81, 45
5, 40920, Note_on_c, 3, 81, 0
5, 40920, Note_on_c, 3, 81, 45
5, 40980, Note_on_c, 3, 81, 0
5, 40980, Note_on_c, 3, 81, 45
5, 41040, Note_on_c, 3, 81, 0
5, 41040, Note_on_c, 3, 74, 45
5, 41055, Note_on_c, 3, 74, 0
5, 41055, Note_on_c, 3, 76, 45
5, 41070, Note_on_c, 3, 76, 0
5, 41070, Note_on_c, 3, 77, 45
5, 41160, Note_on_c, 3, 77, 0
5, 41160, Note_on_c, 3, 77, 45
5, 41220, Note_on_c, 3, 77, 0
5, 41220, Note_on_c, 3, 77, 45
5, 41280, Note_on_c, 3, 77, 0
5, 41280, Note_on_c, 3, 76, 45
5, 41295, Note_on_c, 3, 76, 0
5, 41295, Note_on_c, 3, 77, 45
5, 41310, Note_on_c, 3, 77, 0
5, 41310, Note_on_c, 3, 79, 45
5, 41400, Note_on_c, 3, 79, 0
5, 41400, Note_on_c, 3, 79, 45
5, 41460, Note_on_c, 3, 79, 0
5, 41460, Note_on_c, 3, 79, 45
5, 41520, Note_on_c, 3, 79, 0
5, 41520, Note_on_c, 3, 72, 45
5, 41535, Note_on_c, 3, 72, 0
5, 41535, Note_on_c, 3, 74, 45
5, 41550, Note_on_c, 3, 74, 0
5, 41550, Note_on_c, 3, 76, 45
5, 41640, Note_on_c, 3, 76, 0
5, 41640, Note_on_c, 3, 76, 45
5, 41700, Note_on_c, 3, 76, 0
5, 41700, Note_on_c, 3, 76, 45
5, 41760, Note_on_c, 3, 76, 0
5, 41760, Note_on_c, 3, 74, 45
5, 41790, Note_on_c, 3, 74, 0
5, 41820, Note_on_c, 3, 81, 45
5, 41850, Note_on_c, 3, 81, 0
5, 41880, Note_on_c, 3, 79, 45
5, 41910, Note_on_c, 3, 79, 0
5, 41940, Note_on_c, 3, 77, 44
5, 41970, Note_on_c, 3, 77, 0
5, 42000, Note_on_c, 3, 76, 44
5, 42030, Note_on_c, 3, 76, 0
5, 42060, Note_on_c, 3, 77, 44
5, 42090, Note_on_c, 3, 77, 0
5, 42120, Note_on_c, 3, 76, 44
5, 42150, Note_on_c, 3, 76, 0
5, 42180, Note_on_c, 3, 74, 44
5, 42210, Note_on_c, 3, 74, 0
5, 42240, Note_on_c, 3, 72, 100
5, 42270, Note_on_c, 3, 72, 0
5, 42270, Note_on_c, 3, 72, 100
5, 42300, Note_on_c, 3, 72, 0
5, 42300, Note_on_c, 3, 72, 100
5, 42330, Note_on_c, 3, 72, 0
5, 42330, Note_on_c, 3, 72, 100
5, 42360, Note_on_c, 3, 72, 0
5, 42360, Note_on_c, 3, 72, 100
5, 42390, Note_on_c, 3, 72, 0
5, 42390, Note_on_c, 3, 72, 100
5, 42420, Note_on_c, 3, 72, 0
5, 42420, Note_on_c, 3, 72, 100
5, 42450, Note_on_c, 3, 72, 0
5, 42450, Note_on_c, 3, 72, 100
5, 42480, Note_on_c, 3, 72, 0
5, 42480, Note_on_c, 3, 68, 100
5, 42510, Note_on_c, 3, 68, 0
5, 42510, Note_on_c, 3, 68, 101
5, 42540, Note_on_c, 3, 68, 0
5, 42540, Note_on_c, 3, 68, 101
5, 42570, Note_on_c, 3, 68, 0
5, 42570, Note_on_c, 3, 68, 102
5, 42600, Note_on_c, 3, 68, 0
5, 42600, Note_on_c, 3, 68, 102
5, 42630, Note_on_c, 3, 68, 0
5, 42630, Note_on_c, 3, 68, 102
5, 42660, Note_on_c, 3, 68, 0
5, 42660, Note_on_c, 3, 68, 103
5, 42690, Note_on_c, 3, 68, 0
5, 42690, Note_on_c, 3, 68, 103
5, 42720, Note_on_c, 3, 68, 0
5, 42720, Note_on_c, 3, 69, 103
5, 42750, Note_on_c, 3, 69, 0
5, 42750, Note_on_c, 3, 69, 103
5, 42780, Note_on_c, 3, 69, 0
5, 42780, Note_on_c, 3, 69, 103
5, 42810, Note_on_c, 3, 69, 0
5, 42810, Note_on_c, 3, 69, 103
5, 42840, Note_on_c, 3, 69, 0
5, 42840, Note_on_c, 3, 69, 103
5, 42870, Note_on_c, 3, 69, 0
5, 42870, Note_on_c, 3, 69, 104
5, 42900, Note_on_c, 3, 69, 0
5, 42900, Note_on_c, 3, 69, 104
5, 42930, Note_on_c, 3, 69, 0
5, 42930, Note_on_c, 3, 69, 104
5, 42960, Note_on_c, 3, 69, 0
5, 42960, Note_on_c, 3, 64, 104
5, 42990, Note_on_c, 3, 64, 0
5, 42990, Note_on_c, 3, 64, 104
5, 43020, Note_on_c, 3, 64, 0
5, 43020, Note_on_c, 3, 64, 105
5, 43050, Note_on_c, 3, 64, 0
5, 43050, Note_on_c, 3, 64, 105
5, 43080, Note_on_c, 3, 64, 0
5, 43080, Note_on_c, 3, 64, 107
5, 43110, Note_on_c, 3, 64, 0
5, 43110, Note_on_c, 3, 64, 107
5, 43140, Note_on_c, 3, 64, 0
5, 43140, Note_on_c, 3, 64, 107
5, 43170, Note_on_c, 3, 64, 0
5, 43170, Note_on_c, 3, 64, 107
5, 43200, Note_on_c, 3, 64, 0
5, 43200, Note_on_c, 3, 65, 107
5, 43230, Note_on_c, 3, 65, 0
5, 43230, Note_on_c, 3, 65, 108
5, 43260, Note_on_c, 3, 65, 0
5, 43260, Note_on_c, 3, 65, 108
5, 43290, Note_on_c, 3, 65, 0
5, 43290, Note_on_c, 3, 65, 108
5, 43320, Note_on_c, 3, 65, 0
5, 43320, Note_on_c, 3, 65, 109
5, 43350, Note_on_c, 3, 65, 0
5, 43350, Note_on_c, 3, 65, 109
5, 43380, Note_on_c, 3, 65, 0
5, 43380, Note_on_c, 3, 65, 109
5, 43410, Note_on_c, 3, 65, 0
5, 43410, Note_on_c, 3, 65, 109
5, 43440, Note_on_c, 3, 65, 0
5, 43440, Note_on_c, 3, 59, 109
5, 43470, Note_on_c, 3, 59, 0
5, 43470, Note_on_c, 3, 59, 109
5, 43500, Note_on_c, 3, 59, 0
5, 43500, Note_on_c, 3, 59, 110
5, 43530, Note_on_c, 3, 59, 0
5, 43530, Note_on_c, 3, 59, 111
5, 43560, Note_on_c, 3, 59, 0
5, 43560, Note_on_c, 3, 59, 111
5, 43590, Note_on_c, 3, 59, 0
5, 43590, Note_on_c, 3, 59, 111
5, 43620, Note_on_c, 3, 59, 0
5, 43620, Note_on_c, 3, 59, 112
5, 43650, Note_on_c, 3, 59, 0
5, 43650, Note_on_c, 3, 59, 112
5, 43680, Note_on_c, 3, 59, 0
5, 43680, Note_on_c, 3, 60, 113
5, 43710, Note_on_c, 3, 60, 0
5, 43710, Note_on_c, 3, 60, 113
5, 43740, Note_on_c, 3, 60, 0
5, 43740, Note_on_c, 3, 60, 115
5, 43770, Note_on_c, 3, 60, 0
5, 43770, Note_on_c, 3, 60, 115
5, 43800, Note_on_c, 3, 60, 0
5, 43800, Note_on_c, 3, 60, 115
5, 43830, Note_on_c, 3, 60, 0
5, 43830, Note_on_c, 3, 60, 117
5, 43860, Note_on_c, 3, 60, 0
5, 43860, Note_on_c, 3, 60, 117
5, 43890, Note_on_c, 3, 60, 0
5, 43890, Note_on_c, 3, 60, 117
5, 43920, Note_on_c, 3, 60, 0
5, 43920, Note_on_c, 3, 56, 123
5, 43950, Note_on_c, 3, 56, 0
5, 43950, Note_on_c, 3, 56, 123
5, 43980, Note_on_c, 3, 56, 0
5, 43980, Note_on_c, 3, 56, 124
5, 44010, Note_on_c, 3, 56, 0
5, 44010, Note_on_c, 3, 56, 124
5, 44040, Note_on_c, 3, 56, 0
5, 44040, Note_on_c, 3, 56, 126
5, 44070, Note_on_c, 3, 56, 0
5, 44070, Note_on_c, 3, 56, 126
5, 44100, Note_on_c, 3, 56, 0
5, 44100, Note_on_c, 3, 56, 127
5, 44130, Note_on_c, 3, 56, 0
5, 44130, Note_on_c, 3, 56, 127
5, 44160, Note_on_c, 3, 56, 0
5, 44160, Note_on_c, 3, 55, 127
5, 44280, Note_on_c, 3, 55, 0
5, 44460, Note_on_c, 3, 62, 127
5, 44490, Note_on_c, 3, 62, 0
5, 44490, Note_on_c, 3, 67, 127
5, 44520, Note_on_c, 3, 67, 0
5, 44520, Note_on_c, 3, 71, 127
5, 44580, Note_on_c, 3, 71, 0
5, 44580, Note_on_c, 3, 67, 127
5, 44610, Note_on_c, 3, 67, 0
5, 44610, Note_on_c, 3, 71, 127
5, 44640, Note_on_c, 3, 71, 0
5, 44640, Note_on_c, 3, 74, 127
5, 44700, Note_on_c, 3, 74, 0
5, 44700, Note_on_c, 3, 71, 127
5, 44730, Note_on_c, 3, 71, 0
5, 44730, Note_on_c, 3, 74, 127
5, 44760, Note_on_c, 3, 74, 0
5, 44760, Note_on_c, 3, 79, 127
5, 44820, Note_on_c, 3, 79, 0
5, 44820, Note_on_c, 3, 74, 127
5, 44850, Note_on_c, 3, 74, 0
5, 44850, Note_on_c, 3, 79, 127
5, 44880, Note_on_c, 3, 79, 0
5, 44880, Note_on_c, 3, 83, 127
5, 45000, Note_on_c, 3, 83, 0
5, 45000, Note_on_c, 3, 84, 127
5, 45120, Note_on_c, 3, 84, 0
5, 45120, Note_on_c, 3, 83, 127
5, 45240, Note_on_c, 3, 83, 0
5, 45420, Note_on_c, 3, 62, 127
5, 45450, Note_on_c, 3, 62, 0
5, 45450, Note_on_c, 3, 67, 127
5, 45480, Note_on_c, 3, 67, 0
5, 45480, Note_on_c, 3, 71, 127
5, 45540, Note_on_c, 3, 71, 0
5, 45540, Note_on_c, 3, 67, 127
5, 45570, Note_on_c, 3, 67, 0
5, 45570, Note_on_c, 3, 71, 127
5, 45600, Note_on_c, 3, 71, 0
5, 45600, Note_on_c, 3, 74, 127
5, 45660, Note_on_c, 3, 74, 0
5, 45660, Note_on_c, 3, 71, 127
5, 45690, Note_on_c, 3, 71, 0
5, 45690, Note_on_c, 3, 74, 127
5, 45720, Note_on_c, 3, 74, 0
5, 45720, Note_on_c, 3, 79, 127
5, 45780, Note_on_c, 3, 79, 0
5, 45780, Note_on_c, 3, 74, 127
5, 45810, Note_on_c, 3, 74, 0
5, 45810, Note_on_c, 3, 79, 127
5, 45840, Note_on_c, 3, 79, 0
5, 45840, Note_on_c, 3, 83, 127
5, 45960, Note_on_c, 3, 83, 0
5, 45960, Note_on_c, 3, 84, 127
5, 46080, Note_on_c, 3, 84, 0
5, 46080, Note_on_c, 3, 83, 127
5, 46200, Note_on_c, 3, 83, 0
5, 46290, Note_on_c, 3, 86, 127
5, 46320, Note_on_c, 3, 86, 0
5, 46320, Note_on_c, 3, 86, 127
5, 46440, Note_on_c, 3, 86, 0
5, 46530, Note_on_c, 3, 55, 127
5, 46560, Note_on_c, 3, 55, 0
5, 46560, Note_on_c, 3, 55, 127
5, 46680, Note_on_c, 3, 55, 0
5, 47400, Note_on_c, 3, 79, 46
5, 47460, Note_on_c, 3, 79, 0
5, 47520, Note_on_c, 3, 77, 46
5, 47580, Note_on_c, 3, 77, 0
5, 47640, Note_on_c, 3, 79, 46
5, 47700, Note_on_c, 3, 79, 0
5, 47760, Note_on_c, 3, 76, 46
5, 47820, Note_on_c, 3, 76, 0
5, 47880, Note_on_c, 3, 79, 46
5, 47940, Note_on_c, 3, 79, 0
5, 48000, Note_on_c, 3, 74, 100
5, 48015, Note_on_c, 3, 74, 0
5, 48015, Note_on_c, 3, 72, 100
5, 48030, Note_on_c, 3, 72, 0
5, 48030, Note_on_c, 3, 71, 100
5, 48120, Note_on_c, 3, 71, 0
5, 48120, Note_on_c, 3, 71, 100
5, 48150, Note_on_c, 3, 71, 0
5, 48180, Note_on_c, 3, 71, 100
5, 48210, Note_on_c, 3, 71, 0
5, 48240, Note_on_c, 3, 71, 100
5, 48360, Note_on_c, 3, 71, 0
5, 48840, Note_on_c, 3, 79, 46
5, 48900, Note_on_c, 3, 79, 0
5, 48960, Note_on_c, 3, 77, 46
5, 49020, Note_on_c, 3, 77, 0
5, 49080, Note_on_c, 3, 79, 46
5, 49140, Note_on_c, 3, 79, 0
5, 49200, Note_on_c, 3, 76, 46
5, 49260, Note_on_c, 3, 76, 0
5, 49320, Note_on_c, 3, 79, 46
5, 49380, Note_on_c, 3, 79, 0
5, 49440, Note_on_c, 3, 74, 100
5, 49455, Note_on_c, 3, 74, 0
5, 49455, Note_on_c, 3, 72, 100
5, 49470, Note_on_c, 3, 72, 0
5, 49470, Note_on_c, 3, 71, 100
5, 49560, Note_on_c, 3, 71, 0
5, 49560, Note_on_c, 3, 71, 100
5, 49590, Note_on_c, 3, 71, 0
5, 49620, Note_on_c, 3, 71, 100
5, 49650, Note_on_c, 3, 71, 0
5, 49680, Note_on_c, 3, 71, 100
5, 49800, Note_on_c, 3, 71, 0
5, 51180, Note_on_c, 3, 79, 45
5, 51240, Note_on_c, 3, 79, 0
5, 51240, Note_on_c, 3, 79, 45
5, 51300, Note_on_c, 3, 79, 0
5, 51300, Note_on_c, 3, 79, 45
5, 51360, Note_on_c, 3, 79, 0
5, 51360, Note_on_c, 3, 79, 100
5, 51420, Note_on_c, 3, 79, 0
5, 51420, Note_on_c, 3, 81, 100
5, 51480, Note_on_c, 3, 81, 0
5, 51480, Note_on_c, 3, 77, 42
5, 51510, Note_on_c, 3, 77, 0
5, 51540, Note_on_c, 3, 77, 43
5, 51570, Note_on_c, 3, 77, 0
5, 51600, Note_on_c, 3, 77, 100
5, 51660, Note_on_c, 3, 77, 0
5, 51660, Note_on_c, 3, 79, 101
5, 51720, Note_on_c, 3, 79, 0
5, 51720, Note_on_c, 3, 76, 41
5, 51750, Note_on_c, 3, 76, 0
5, 51780, Note_on_c, 3, 76, 41
5, 51810, Note_on_c, 3, 76, 0
5, 51840, Note_on_c, 3, 76, 40
5, 51900, Note_on_c, 3, 76, 0
5, 51900, Note_on_c, 3, 74, 41
5, 51960, Note_on_c, 3, 74, 0
5, 51960, Note_on_c, 3, 77, 41
5, 52020, Note_on_c, 3, 77, 0
5, 52020, Note_on_c, 3, 74, 41
5, 52080, Note_on_c, 3, 74, 0
5, 52080, Note_on_c, 3, 72, 41
5, 52200, Note_on_c, 3, 72, 0
5, 52200, Note_on_c, 3, 71, 41
5, 52320, Note_on_c, 3, 71, 0
5, 52320, Note_on_c, 3, 72, 100
5, 52440, Note_on_c, 3, 72, 0
5, 53580, Note_on_c, 3, 79, 45
5, 53640, Note_on_c, 3, 79, 0
5, 53640, Note_on_c, 3, 79, 45
5, 53700, Note_on_c, 3, 79, 0
5, 53700, Note_on_c, 3, 79, 45
5, 53760, Note_on_c, 3, 79, 0
5, 53760, Note_on_c, 3, 79, 100
5, 53820, Note_on_c, 3, 79, 0
5, 53820, Note_on_c, 3, 81, 100
5, 53880, Note_on_c, 3, 81, 0
5, 53880, Note_on_c, 3, 77, 42
5, 53910, Note_on_c, 3, 77, 0
5, 53940, Note_on_c, 3, 77, 43
5, 53970, Note_on_c, 3, 77, 0
5, 54000, Note_on_c, 3, 77, 100
5, 54060, Note_on_c, 3, 77, 0
5, 54060, Note_on_c, 3, 79, 101
5, 54120, Note_on_c, 3, 79, 0
5, 54120, Note_on_c, 3, 76, 41
5, 54150, Note_on_c, 3, 76, 0
5, 54180, Note_on_c, 3, 76, 41
5, 54210, Note_on_c, 3, 76, 0
5, 54240, Note_on_c, 3, 76, 40
5, 54300, Note_on_c, 3, 76, 0
5, 54300, Note_on_c, 3, 74, 41
5, 54360, Note_on_c, 3, 74, 0
5, 54360, Note_on_c, 3, 77, 41
5, 54420, Note_on_c, 3, 77, 0
5, 54420, Note_on_c, 3, 74, 41
5, 54480, Note_on_c, 3, 74, 0
5, 54480, Note_on_c, 3, 72, 41
5, 54600, Note_on_c, 3, 72, 0
5, 54600, Note_on_c, 3, 71, 41
5, 54720, Note_on_c, 3, 71, 0
5, 54720, Note_on_c, 3, 55, 127
5, 54720, Note_on_c, 3, 64, 127
5, 54720, Note_on_c, 3, 72, 127
5, 54840, Note_on_c, 3, 72, 0
5, 54840, Note_on_c, 3, 64, 0
5, 54840, Note_on_c, 3, 55, 0
5, 54840, Note_on_c, 3, 55, 127
5, 54840, Note_on_c, 3, 67, 127
5, 54840, Note_on_c, 3, 76, 127
5, 54960, Note_on_c, 3, 76, 0
5, 54960, Note_on_c, 3, 67, 0
5, 54960, Note_on_c, 3, 55, 0
5, 54960, Note_on_c, 3, 64, 127
5, 54960, Note_on_c, 3, 72, 127
5, 54960, Note_on_c, 3, 79, 127
5, 55080, Note_on_c, 3, 79, 0
5, 55080, Note_on_c, 3, 72, 0
5, 55080, Note_on_c, 3, 64, 0
5, 55200, Note_on_c, 3, 55, 127
5, 55200, Note_on_c, 3, 62, 127
5, 55200, Note_on_c, 3, 71, 127
5, 55320, Note_on_c, 3, 71, 0
5, 55320, Note_on_c, 3, 62, 0
5, 55320, Note_on_c, 3, 55, 0
5, 55320, Note_on_c, 3, 55, 127
5, 55320, Note_on_c, 3, 62, 127
5, 55320, Note_on_c, 3, 74, 127
5, 55440, Note_on_c, 3, 74, 0
5, 55440, Note_on_c, 3, 62, 0
5, 55440, Note_on_c, 3, 55, 0
5, 55440, Note_on_c, 3, 55, 127
5, 55440, Note_on_c, 3, 71, 127
5, 55440, Note_on_c, 3, 62, 127
5, 55440, Note_on_c, 3, 77, 127
5, 55560, Note_on_c, 3, 77, 0
5, 55560, Note_on_c, 3, 55, 0
5, 55560, Note_on_c, 3, 71, 0
5, 55560, Note_on_c, 3, 62, 0
5, 55680, Note_on_c, 3, 60, 127
5, 55680, Note_on_c, 3, 67, 127
5, 55680, Note_on_c, 3, 76, 127
5, 55800, Note_on_c, 3, 76, 0
5, 55800, Note_on_c, 3, 67, 0
5, 55800, Note_on_c, 3, 60, 0
5, 55800, Note_on_c, 3, 79, 127
5, 55920, Note_on_c, 3, 79, 0
5, 55920, Note_on_c, 3, 84, 127
5, 56040, Note_on_c, 3, 84, 0
5, 56160, Note_on_c, 3, 67, 127
5, 56160, Note_on_c, 3, 74, 127
5, 56160, Note_on_c, 3, 83, 127
5, 56280, Note_on_c, 3, 83, 0
5, 56280, Note_on_c, 3, 74, 0
5, 56280, Note_on_c, 3, 67, 0
5, 56280, Note_on_c, 3, 86, 127
5, 56400, Note_on_c, 3, 86, 0
5, 56400, Note_on_c, 3, 74, 127
5, 56400, Note_on_c, 3, 77, 127
5, 56520, Note_on_c, 3, 77, 0
5, 56520, Note_on_c, 3, 74, 0
5, 56640, Note_on_c, 3, 72, 127
5, 56640, Note_on_c, 3, 76, 127
5, 56760, Note_on_c, 3, 76, 0
5, 56760, Note_on_c, 3, 72, 0
5, 56760, Note_on_c, 3, 84, 127
5, 56850, Note_on_c, 3, 84, 0
5, 56850, Note_on_c, 3, 84, 127
5, 56880, Note_on_c, 3, 84, 0
5, 56880, Note_on_c, 3, 84, 127
5, 57000, Note_on_c, 3, 84, 0
5, 57000, Note_on_c, 3, 76, 127
5, 57030, Note_on_c, 3, 76, 0
5, 57030, Note_on_c, 3, 74, 127
5, 57060, Note_on_c, 3, 74, 0
5, 57060, Note_on_c, 3, 76, 127
5, 57090, Note_on_c, 3, 76, 0
5, 57090, Note_on_c, 3, 77, 127
5, 57120, Note_on_c, 3, 77, 0
5, 57120, Note_on_c, 3, 76, 127
5, 57240, Note_on_c, 3, 76, 0
5, 57240, Note_on_c, 3, 84, 127
5, 57330, Note_on_c, 3, 84, 0
5, 57330, Note_on_c, 3, 84, 127
5, 57360, Note_on_c, 3, 84, 0
5, 57360, Note_on_c, 3, 84, 127
5, 57480, Note_on_c, 3, 84, 0
5, 57480, Note_on_c, 3, 76, 127
5, 57510, Note_on_c, 3, 76, 0
5, 57510, Note_on_c, 3, 74, 127
5, 57540, Note_on_c, 3, 74, 0
5, 57540, Note_on_c, 3, 76, 127
5, 57570, Note_on_c, 3, 76, 0
5, 57570, Note_on_c, 3, 77, 127
5, 57600, Note_on_c, 3, 77, 0
5, 57600, Note_on_c, 3, 79, 127
5, 57720, Note_on_c, 3, 79, 0
5, 57720, Note_on_c, 3, 84, 127
5, 57810, Note_on_c, 3, 84, 0
5, 57810, Note_on_c, 3, 84, 127
5, 57840, Note_on_c, 3, 84, 0
5, 57840, Note_on_c, 3, 84, 127
5, 57960, Note_on_c, 3, 84, 0
5, 57960, Note_on_c, 3, 79, 127
5, 57990, Note_on_c, 3, 79, 0
5, 57990, Note_on_c, 3, 81, 127
5, 58020, Note_on_c, 3, 81, 0
5, 58020, Note_on_c, 3, 82, 127
5, 58050, Note_on_c, 3, 82, 0
5, 58050, Note_on_c, 3, 79, 127
5, 58080, Note_on_c, 3, 79, 0
5, 58080, Note_on_c, 3, 81, 127
5, 58200, Note_on_c, 3, 81, 0
5, 58200, Note_on_c, 3, 65, 127
5, 58200, Note_on_c, 3, 72, 127
5, 58200, Note_on_c, 3, 81, 127
5, 58320, Note_on_c, 3, 81, 0
5, 58320, Note_on_c, 3, 72, 0
5, 58320, Note_on_c, 3, 65, 0
5, 58320, Note_on_c, 3, 64, 127
5, 58320, Note_on_c, 3, 72, 127
5, 58320, Note_on_c, 3, 79, 127
5, 58440, Note_on_c, 3, 79, 0
5, 58440, Note_on_c, 3, 72, 0
5, 58440, Note_on_c, 3, 64, 0
5, 58440, Note_on_c, 3, 55, 127
5, 58440, Note_on_c, 3, 62, 127
5, 58440, Note_on_c, 3, 71, 127
5, 58560, Note_on_c, 3, 71, 0
5, 58560, Note_on_c, 3, 62, 0
5, 58560, Note_on_c, 3, 55, 0
5, 58560, Note_on_c, 3, 55, 127
5, 58560, Note_on_c, 3, 64, 127
5, 58560, Note_on_c, 3, 72, 127
5, 58680, Note_on_c, 3, 72, 0
5, 58680, Note_on_c, 3, 64, 0
5, 58680, Note_on_c, 3, 55, 0
5, 58680, Note_on_c, 3, 84, 127
5, 58770, Note_on_c, 3, 84, 0
5, 58770, Note_on_c, 3, 84, 127
5, 58800, Note_on_c, 3, 84, 0
5, 58800, Note_on_c, 3, 84, 127
5, 58920, Note_on_c, 3, 84, 0
5, 58920, Note_on_c, 3, 76, 127
5, 58950, Note_on_c, 3, 76, 0
5, 58950, Note_on_c, 3, 74, 127
5, 58980, Note_on_c, 3, 74, 0
5, 58980, Note_on_c, 3, 76, 127
5, 59010, Note_on_c, 3, 76, 0
5, 59010, Note_on_c, 3, 77, 127
5, 59040, Note_on_c, 3, 77, 0
5, 59040, Note_on_c, 3, 76, 127
5, 59160, Note_on_c, 3, 76, 0
5, 59160, Note_on_c, 3, 84, 127
5, 59250, Note_on_c, 3, 84, 0
5, 59250, Note_on_c, 3, 84, 127
5, 59280, Note_on_c, 3, 84, 0
5, 59280, Note_on_c, 3, 84, 127
5, 59400, Note_on_c, 3, 84, 0
5, 59400, Note_on_c, 3, 76, 127
5, 59430, Note_on_c, 3, 76, 0
5, 59430, Note_on_c, 3, 74, 127
5, 59460, Note_on_c, 3, 74, 0
5, 59460, Note_on_c, 3, 76, 127
5, 59490, Note_on_c, 3, 76, 0
5, 59490, Note_on_c, 3, 77, 127
5, 59520, Note_on_c, 3, 77, 0
5, 59520, Note_on_c, 3, 79, 127
5, 59640, Note_on_c, 3, 79, 0
5, 59640, Note_on_c, 3, 84, 127
5, 59730, Note_on_c, 3, 84, 0
5, 59730, Note_on_c, 3, 84, 127
5, 59760, Note_on_c, 3, 84, 0
5, 59760, Note_on_c, 3, 84, 127
5, 59880, Note_on_c, 3, 84, 0
5, 59880, Note_on_c, 3, 79, 127
5, 59910, Note_on_c, 3, 79, 0
5, 59910, Note_on_c, 3, 81, 127
5, 59940, Note_on_c, 3, 81, 0
5, 59940, Note_on_c, 3, 82, 127
5, 59970, Note_on_c, 3, 82, 0
5, 59970, Note_on_c, 3, 79, 127
5, 60000, Note_on_c, 3, 79, 0
5, 60000, Note_on_c, 3, 81, 127
5, 60120, Note_on_c, 3, 81, 0
5, 60120, Note_on_c, 3, 81, 127
5, 60240, Note_on_c, 3, 81, 0
5, 60240, Note_on_c, 3, 79, 127
5, 60360, Note_on_c, 3, 79, 0
5, 60360, Note_on_c, 3, 83, 127
5, 60480, Note_on_c, 3, 83, 0
5, 60480, Note_on_c, 3, 84, 127
5, 60510, Note_on_c, 3, 84, 0
5, 60510, Note_on_c, 3, 84, 127
5, 60540, Note_on_c, 3, 84, 0
5, 60540, Note_on_c, 3, 84, 127
5, 60570, Note_on_c, 3, 84, 0
5, 60570, Note_on_c, 3, 84, 127
5, 60600, Note_on_c, 3, 84, 0
5, 60600, Note_on_c, 3, 84, 127
5, 60630, Note_on_c, 3, 84, 0
5, 60630, Note_on_c, 3, 84, 127
5, 60660, Note_on_c, 3, 84, 0
5, 60660, Note_on_c, 3, 84, 127
5, 60690, Note_on_c, 3, 84, 0
5, 60690, Note_on_c, 3, 84, 127
5, 60720, Note_on_c, 3, 84, 0
5, 60720, Note_on_c, 3, 84, 127
5, 60750, Note_on_c, 3, 84, 0
5, 60750, Note_on_c, 3, 84, 127
5, 60780, Note_on_c, 3, 84, 0
5, 60780, Note_on_c, 3, 84, 127
5, 60810, Note_on_c, 3, 84, 0
5, 60810, Note_on_c, 3, 84, 127
5, 60840, Note_on_c, 3, 84, 0
5, 60840, Note_on_c, 3, 84, 127
5, 60870, Note_on_c, 3, 84, 0
5, 60870, Note_on_c, 3, 84, 127
5, 60900, Note_on_c, 3, 84, 0
5, 60900, Note_on_c, 3, 84, 127
5, 60930, Note_on_c, 3, 84, 0
5, 60930, Note_on_c, 3, 84, 127
5, 60960, Note_on_c, 3, 84, 0
5, 60960, Note_on_c, 3, 84, 127
5, 60990, Note_on_c, 3, 84, 0
5, 60990, Note_on_c, 3, 84, 127
5, 61020, Note_on_c, 3, 84, 0
5, 61020, Note_on_c, 3, 84, 127
5, 61050, Note_on_c, 3, 84, 0
5, 61050, Note_on_c, 3, 84, 127
5, 61080, Note_on_c, 3, 84, 0
5, 61080, Note_on_c, 3, 84, 127
5, 61110, Note_on_c, 3, 84, 0
5, 61110, Note_on_c, 3, 84, 127
5, 61140, Note_on_c, 3, 84, 0
5, 61140, Note_on_c, 3, 84, 127
5, 61170, Note_on_c, 3, 84, 0
5, 61170, Note_on_c, 3, 84, 127
5, 61200, Note_on_c, 3, 84, 0
5, 61200, Note_on_c, 3, 84, 127
5, 61230, Note_on_c, 3, 84, 0
5, 61230, Note_on_c, 3, 84, 127
5, 61260, Note_on_c, 3, 84, 0
5, 61260, Note_on_c, 3, 84, 127
5, 61290, Note_on_c, 3, 84, 0
5, 61290, Note_on_c, 3, 84, 127
5, 61320, Note_on_c, 3, 84, 0
5, 61320, Note_on_c, 3, 84, 127
5, 61350, Note_on_c, 3, 84, 0
5, 61350, Note_on_c, 3, 84, 127
5, 61380, Note_on_c, 3, 84, 0
5, 61380, Note_on_c, 3, 84, 127
5, 61410, Note_on_c, 3, 84, 0
5, 61410, Note_on_c, 3, 84, 127
5, 61440, Note_on_c, 3, 84, 0
5, 61440, Note_on_c, 3, 84, 127
5, 61560, Note_on_c, 3, 84, 0
5, 62280, Note_on_c, 3, 55, 127
5, 62280, Note_on_c, 3, 62, 127
5, 62400, Note_on_c, 3, 62, 0
5, 62400, Note_on_c, 3, 55, 0
5, 62400, Note_on_c, 3, 55, 127
5, 62400, Note_on_c, 3, 64, 127
5, 62520, Note_on_c, 3, 64, 0
5, 62520, Note_on_c, 3, 55, 0
5, 62760, Note_on_c, 3, 55, 127
5, 62760, Note_on_c, 3, 62, 127
5, 62880, Note_on_c, 3, 62, 0
5, 62880, Note_on_c, 3, 55, 0
5, 62880, Note_on_c, 3, 55, 127
5, 62880, Note_on_c, 3, 64, 127
5, 63000, Note_on_c, 3, 64, 0
5, 63000, Note_on_c, 3, 55, 0
5, 63240, Note_on_c, 3, 55, 127
5, 63240, Note_on_c, 3, 62, 127
5, 63360, Note_on_c, 3, 62, 0
5, 63360, Note_on_c, 3, 55, 0
5, 63360, Note_on_c, 3, 60, 127
5, 63480, Note_on_c, 3, 60, 0
5, 63480, Note_on_c, 3, 67, 127
5, 63480, Note_on_c, 3, 72, 127
5, 63480, Note_on_c, 3, 76, 127
5, 63600, Note_on_c, 3, 76, 0
5, 63600, Note_on_c, 3, 72, 0
5, 63600, Note_on_c, 3, 67, 0
5, 63600, Note_on_c, 3, 60, 127
5, 63720, Note_on_c, 3, 60, 0
5, 63720, Note_on_c, 3, 72, 127
5, 63720, Note_on_c, 3, 64, 127
5, 63720, Note_on_c, 3, 79, 127
5, 63840, Note_on_c, 3, 79, 0
5, 63840, Note_on_c, 3, 64, 0
5, 63840, Note_on_c, 3, 72, 0
5, 63840, Note_on_c, 3, 60, 127
5, 63960, Note_on_c, 3, 60, 0
5, 63960, Note_on_c, 3, 67, 127
5, 63960, Note_on_c, 3, 76, 127
5, 63960, Note_on_c, 3, 84, 127
5, 64080, Note_on_c, 3, 84, 0
5, 64080, Note_on_c, 3, 76, 0
5, 64080, Note_on_c, 3, 67, 0
5, 64080, Note_on_c, 3, 60, 127
5, 64200, Note_on_c, 3, 60, 0
5, 64200, Note_on_c, 3, 60, 127
5, 64320, Note_on_c, 3, 60, 0
5, 64320, Note_on_c, 3, 60, 127
5, 64800, Note_on_c, 3, 60, 0
5, 64800, End_track
6, 0, Start_track
6, 0, MIDI_port, 0
6, 0, Title_t, "Violin 2"
6, 0, Control_c, 4, 0, 4
6, 0, Program_c, 4, 48
6, 0, Control_c, 4, 7, 127
6, 0, Control_c, 4, 10, 40
6, 0, Note_on_c, 4, 76, 100
6, 30, Note_on_c, 4, 76, 0
6, 30, Note_on_c, 4, 76, 100
6, 60, Note_on_c, 4, 76, 0
6, 60, Note_on_c, 4, 76, 100
6, 90, Note_on_c, 4, 76, 0
6, 90, Note_on_c, 4, 76, 100
6, 120, Note_on_c, 4, 76, 0
6, 120, Note_on_c, 4, 76, 100
6, 150, Note_on_c, 4, 76, 0
6, 150, Note_on_c, 4, 76, 100
6, 180, Note_on_c, 4, 76, 0
6, 180, Note_on_c, 4, 76, 100
6, 210, Note_on_c, 4, 76, 0
6, 210, Note_on_c, 4, 76, 100
6, 240, Note_on_c, 4, 76, 0
6, 240, Note_on_c, 4, 76, 100
6, 270, Note_on_c, 4, 76, 0
6, 270, Note_on_c, 4, 76, 100
6, 300, Note_on_c, 4, 76, 0
6, 300, Note_on_c, 4, 76, 100
6, 330, Note_on_c, 4, 76, 0
6, 330, Note_on_c, 4, 76, 100
6, 360, Note_on_c, 4, 76, 0
6, 360, Note_on_c, 4, 76, 100
6, 390, Note_on_c, 4, 76, 0
6, 390, Note_on_c, 4, 76, 100
6, 420, Note_on_c, 4, 76, 0
6, 420, Note_on_c, 4, 76, 100
6, 450, Note_on_c, 4, 76, 0
6, 450, Note_on_c, 4, 76, 100
6, 480, Note_on_c, 4, 76, 0
6, 480, Note_on_c, 4, 76, 100
6, 510, Note_on_c, 4, 76, 0
6, 510, Note_on_c, 4, 76, 100
6, 540, Note_on_c, 4, 76, 0
6, 540, Note_on_c, 4, 76, 100
6, 570, Note_on_c, 4, 76, 0
6, 570, Note_on_c, 4, 76, 100
6, 600, Note_on_c, 4, 76, 0
6, 600, Note_on_c, 4, 76, 100
6, 630, Note_on_c, 4, 76, 0
6, 630, Note_on_c, 4, 76, 100
6, 660, Note_on_c, 4, 76, 0
6, 660, Note_on_c, 4, 76, 100
6, 690, Note_on_c, 4, 76, 0
6, 690, Note_on_c, 4, 76, 100
6, 720, Note_on_c, 4, 76, 0
6, 720, Note_on_c, 4, 76, 100
6, 750, Note_on_c, 4, 76, 0
6, 750, Note_on_c, 4, 76, 100
6, 780, Note_on_c, 4, 76, 0
6, 780, Note_on_c, 4, 76, 100
6, 810, Note_on_c, 4, 76, 0
6, 810, Note_on_c, 4, 76, 100
6, 840, Note_on_c, 4, 76, 0
6, 840, Note_on_c, 4, 76, 100
6, 870, Note_on_c, 4, 76, 0
6, 870, Note_on_c, 4, 76, 100
6, 900, Note_on_c, 4, 76, 0
6, 900, Note_on_c, 4, 76, 100
6, 930, Note_on_c, 4, 76, 0
6, 930, Note_on_c, 4, 76, 100
6, 960, Note_on_c, 4, 76, 0
6, 960, Note_on_c, 4, 76, 100
6, 1080, Note_on_c, 4, 76, 0
6, 1920, Note_on_c, 4, 83, 100
6, 1950, Note_on_c, 4, 83, 0
6, 1950, Note_on_c, 4, 83, 100
6, 1980, Note_on_c, 4, 83, 0
6, 1980, Note_on_c, 4, 83, 100
6, 2010, Note_on_c, 4, 83, 0
6, 2010, Note_on_c, 4, 83, 100
6, 2040, Note_on_c, 4, 83, 0
6, 2040, Note_on_c, 4, 83, 100
6, 2070, Note_on_c, 4, 83, 0
6, 2070, Note_on_c, 4, 83, 100
6, 2100, Note_on_c, 4, 83, 0
6, 2100, Note_on_c, 4, 83, 100
6, 2130, Note_on_c, 4, 83, 0
6, 2130, Note_on_c, 4, 83, 100
6, 2160, Note_on_c, 4, 83, 0
6, 2160, Note_on_c, 4, 83, 100
6, 2190, Note_on_c, 4, 83, 0
6, 2190, Note_on_c, 4, 83, 100
6, 2220, Note_on_c, 4, 83, 0
6, 2220, Note_on_c, 4, 83, 100
6, 2250, Note_on_c, 4, 83, 0
6, 2250, Note_on_c, 4, 83, 100
6, 2280, Note_on_c, 4, 83, 0
6, 2280, Note_on_c, 4, 83, 100
6, 2310, Note_on_c, 4, 83, 0
6, 2310, Note_on_c, 4, 83, 100
6, 2340, Note_on_c, 4, 83, 0
6, 2340, Note_on_c, 4, 83, 100
6, 2370, Note_on_c, 4, 83, 0
6, 2370, Note_on_c, 4, 83, 100
6, 2400, Note_on_c, 4, 83, 0
6, 2400, Note_on_c, 4, 83, 100
6, 2430, Note_on_c, 4, 83, 0
6, 2430, Note_on_c, 4, 83, 100
6, 2460, Note_on_c, 4, 83, 0
6, 2460, Note_on_c, 4, 83, 100
6, 2490, Note_on_c, 4, 83, 0
6, 2490, Note_on_c, 4, 83, 100
6, 2520, Note_on_c, 4, 83, 0
6, 2520, Note_on_c, 4, 83, 100
6, 2550, Note_on_c, 4, 83, 0
6, 2550, Note_on_c, 4, 83, 100
6, 2580, Note_on_c, 4, 83, 0
6, 2580, Note_on_c, 4, 83, 100
6, 2610, Note_on_c, 4, 83, 0
6, 2610, Note_on_c, 4, 83, 100
6, 2640, Note_on_c, 4, 83, 0
6, 2640, Note_on_c, 4, 83, 100
6, 2670, Note_on_c, 4, 83, 0
6, 2670, Note_on_c, 4, 83, 100
6, 2700, Note_on_c, 4, 83, 0
6, 2700, Note_on_c, 4, 83, 100
6, 2730, Note_on_c, 4, 83, 0
6, 2730, Note_on_c, 4, 83, 100
6, 2760, Note_on_c, 4, 83, 0
6, 2760, Note_on_c, 4, 83, 100
6, 2790, Note_on_c, 4, 83, 0
6, 2790, Note_on_c, 4, 83, 100
6, 2820, Note_on_c, 4, 83, 0
6, 2820, Note_on_c, 4, 83, 100
6, 2850, Note_on_c, 4, 83, 0
6, 2850, Note_on_c, 4, 83, 100
6, 2880, Note_on_c, 4, 83, 0
6, 2880, Note_on_c, 4, 83, 100
6, 3000, Note_on_c, 4, 83, 0
6, 3840, Note_on_c, 4, 84, 100
6, 3870, Note_on_c, 4, 84, 0
6, 3870, Note_on_c, 4, 84, 100
6, 3900, Note_on_c, 4, 84, 0
6, 3900, Note_on_c, 4, 84, 100
6, 3930, Note_on_c, 4, 84, 0
6, 3930, Note_on_c, 4, 84, 100
6, 3960, Note_on_c, 4, 84, 0
6, 3960, Note_on_c, 4, 84, 100
6, 3990, Note_on_c, 4, 84, 0
6, 3990, Note_on_c, 4, 84, 100
6, 4020, Note_on_c, 4, 84, 0
6, 4020, Note_on_c, 4, 84, 100
6, 4050, Note_on_c, 4, 84, 0
6, 4050, Note_on_c, 4, 84, 100
6, 4080, Note_on_c, 4, 84, 0
6, 4080, Note_on_c, 4, 84, 100
6, 4110, Note_on_c, 4, 84, 0
6, 4110, Note_on_c, 4, 84, 100
6, 4140, Note_on_c, 4, 84, 0
6, 4140, Note_on_c, 4, 84, 100
6, 4170, Note_on_c, 4, 84, 0
6, 4170, Note_on_c, 4, 84, 100
6, 4200, Note_on_c, 4, 84, 0
6, 4200, Note_on_c, 4, 84, 100
6, 4230, Note_on_c, 4, 84, 0
6, 4230, Note_on_c, 4, 84, 100
6, 4260, Note_on_c, 4, 84, 0
6, 4260, Note_on_c, 4, 84, 100
6, 4290, Note_on_c, 4, 84, 0
6, 4290, Note_on_c, 4, 84, 100
6, 4320, Note_on_c, 4, 84, 0
6, 4320, Note_on_c, 4, 84, 100
6, 4350, Note_on_c, 4, 84, 0
6, 4350, Note_on_c, 4, 84, 100
6, 4380, Note_on_c, 4, 84, 0
6, 4380, Note_on_c, 4, 84, 100
6, 4410, Note_on_c, 4, 84, 0
6, 4410, Note_on_c, 4, 84, 100
6, 4440, Note_on_c, 4, 84, 0
6, 4440, Note_on_c, 4, 84, 100
6, 4470, Note_on_c, 4, 84, 0
6, 4470, Note_on_c, 4, 84, 100
6, 4500, Note_on_c, 4, 84, 0
6, 4500, Note_on_c, 4, 84, 100
6, 4530, Note_on_c, 4, 84, 0
6, 4530, Note_on_c, 4, 84, 100
6, 4560, Note_on_c, 4, 84, 0
6, 4560, Note_on_c, 4, 84, 100
6, 4590, Note_on_c, 4, 84, 0
6, 4590, Note_on_c, 4, 84, 100
6, 4620, Note_on_c, 4, 84, 0
6, 4620, Note_on_c, 4, 84, 100
6, 4650, Note_on_c, 4, 84, 0
6, 4650, Note_on_c, 4, 84, 100
6, 4680, Note_on_c, 4, 84, 0
6, 4680, Note_on_c, 4, 84, 100
6, 4710, Note_on_c, 4, 84, 0
6, 4710, Note_on_c, 4, 84, 100
6, 4740, Note_on_c, 4, 84, 0
6, 4740, Note_on_c, 4, 84, 100
6, 4770, Note_on_c, 4, 84, 0
6, 4770, Note_on_c, 4, 84, 100
6, 4800, Note_on_c, 4, 84, 0
6, 4800, Note_on_c, 4, 84, 100
6, 4920, Note_on_c, 4, 84, 0
6, 5760, Note_on_c, 4, 81, 100
6, 5790, Note_on_c, 4, 81, 0
6, 5790, Note_on_c, 4, 81, 100
6, 5820, Note_on_c, 4, 81, 0
6, 5820, Note_on_c, 4, 81, 100
6, 5850, Note_on_c, 4, 81, 0
6, 5850, Note_on_c, 4, 81, 100
6, 5880, Note_on_c, 4, 81, 0
6, 5880, Note_on_c, 4, 81, 100
6, 5910, Note_on_c, 4, 81, 0
6, 5910, Note_on_c, 4, 81, 100
6, 5940, Note_on_c, 4, 81, 0
6, 5940, Note_on_c, 4, 81, 100
6, 5970, Note_on_c, 4, 81, 0
6, 5970, Note_on_c, 4, 81, 100
6, 6000, Note_on_c, 4, 81, 0
6, 6000, Note_on_c, 4, 79, 100
6, 6030, Note_on_c, 4, 79, 0
6, 6030, Note_on_c, 4, 79, 100
6, 6060, Note_on_c, 4, 79, 0
6, 6060, Note_on_c, 4, 79, 100
6, 6090, Note_on_c, 4, 79, 0
6, 6090, Note_on_c, 4, 79, 100
6, 6120, Note_on_c, 4, 79, 0
6, 6120, Note_on_c, 4, 79, 100
6, 6150, Note_on_c, 4, 79, 0
6, 6150, Note_on_c, 4, 79, 100
6, 6180, Note_on_c, 4, 79, 0
6, 6180, Note_on_c, 4, 79, 100
6, 6210, Note_on_c, 4, 79, 0
6, 6210, Note_on_c, 4, 79, 100
6, 6240, Note_on_c, 4, 79, 0
6, 6240, Note_on_c, 4, 81, 100
6, 6270, Note_on_c, 4, 81, 0
6, 6270, Note_on_c, 4, 81, 100
6, 6300, Note_on_c, 4, 81, 0
6, 6300, Note_on_c, 4, 81, 100
6, 6330, Note_on_c, 4, 81, 0
6, 6330, Note_on_c, 4, 81, 100
6, 6360, Note_on_c, 4, 81, 0
6, 6360, Note_on_c, 4, 81, 100
6, 6390, Note_on_c, 4, 81, 0
6, 6390, Note_on_c, 4, 81, 100
6, 6420, Note_on_c, 4, 81, 0
6, 6420, Note_on_c, 4, 81, 100
6, 6450, Note_on_c, 4, 81, 0
6, 6450, Note_on_c, 4, 81, 100
6, 6480, Note_on_c, 4, 81, 0
6, 6480, Note_on_c, 4, 79, 100
6, 6510, Note_on_c, 4, 79, 0
6, 6510, Note_on_c, 4, 79, 100
6, 6540, Note_on_c, 4, 79, 0
6, 6540, Note_on_c, 4, 79, 100
6, 6570, Note_on_c, 4, 79, 0
6, 6570, Note_on_c, 4, 79, 100
6, 6600, Note_on_c, 4, 79, 0
6, 6600, Note_on_c, 4, 79, 100
6, 6630, Note_on_c, 4, 79, 0
6, 6630, Note_on_c, 4, 79, 100
6, 6660, Note_on_c, 4, 79, 0
6, 6660, Note_on_c, 4, 79, 100
6, 6690, Note_on_c, 4, 79, 0
6, 6690, Note_on_c, 4, 79, 100
6, 6720, Note_on_c, 4, 79, 0
6, 6720, Note_on_c, 4, 77, 100
6, 6735, Note_on_c, 4, 77, 0
6, 6735, Note_on_c, 4, 79, 100
6, 6750, Note_on_c, 4, 79, 0
6, 6750, Note_on_c, 4, 81, 100
6, 6840, Note_on_c, 4, 81, 0
6, 6840, Note_on_c, 4, 81, 100
6, 6900, Note_on_c, 4, 81, 0
6, 6900, Note_on_c, 4, 81, 100
6, 6960, Note_on_c, 4, 81, 0
6, 6960, Note_on_c, 4, 74, 100
6, 6975, Note_on_c, 4, 74, 0
6, 6975, Note_on_c, 4, 76, 100
6, 6990, Note_on_c, 4, 76, 0
6, 6990, Note_on_c, 4, 77, 100
6, 7080, Note_on_c, 4, 77, 0
6, 7080, Note_on_c, 4, 77, 100
6, 7140, Note_on_c, 4, 77, 0
6, 7140, Note_on_c, 4, 77, 100
6, 7200, Note_on_c, 4, 77, 0
6, 7200, Note_on_c, 4, 76, 100
6, 7215, Note_on_c, 4, 76, 0
6, 7215, Note_on_c, 4, 77, 100
6, 7230, Note_on_c, 4, 77, 0
6, 7230, Note_on_c, 4, 79, 100
6, 7320, Note_on_c, 4, 79, 0
6, 7320, Note_on_c, 4, 79, 100
6, 7380, Note_on_c, 4, 79, 0
6, 7380, Note_on_c, 4, 79, 100
6, 7440, Note_on_c, 4, 79, 0
6, 7440, Note_on_c, 4, 72, 100
6, 7455, Note_on_c, 4, 72, 0
6, 7455, Note_on_c, 4, 74, 100
6, 7470, Note_on_c, 4, 74, 0
6, 7470, Note_on_c, 4, 76, 100
6, 7560, Note_on_c, 4, 76, 0
6, 7560, Note_on_c, 4, 76, 100
6, 7620, Note_on_c, 4, 76, 0
6, 7620, Note_on_c, 4, 76, 100
6, 7680, Note_on_c, 4, 76, 0
6, 7680, Note_on_c, 4, 69, 100
6, 7740, Note_on_c, 4, 69, 0
6, 7740, Note_on_c, 4, 69, 100
6, 7800, Note_on_c, 4, 69, 0
6, 7800, Note_on_c, 4, 67, 100
6, 7860, Note_on_c, 4, 67, 0
6, 7860, Note_on_c, 4, 65, 100
6, 7920, Note_on_c, 4, 65, 0
6, 7920, Note_on_c, 4, 64, 100
6, 7980, Note_on_c, 4, 64, 0
6, 7980, Note_on_c, 4, 65, 100
6, 8040, Note_on_c, 4, 65, 0
6, 8040, Note_on_c, 4, 64, 100
6, 8100, Note_on_c, 4, 64, 0
6, 8100, Note_on_c, 4, 62, 100
6, 8160, Note_on_c, 4, 62, 0
6, 8160, Note_on_c, 4, 60, 100
6, 8280, Note_on_c, 4, 60, 0
6, 8280, Note_on_c, 4, 59, 100
6, 8370, Note_on_c, 4, 59, 0
6, 8370, Note_on_c, 4, 57, 100
6, 8400, Note_on_c, 4, 57, 0
6, 8400, Note_on_c, 4, 55, 100
6, 8520, Note_on_c, 4, 55, 0
6, 8640, Note_on_c, 4, 69, 45
6, 8655, Note_on_c, 4, 69, 0
6, 8655, Note_on_c, 4, 67, 45
6, 8670, Note_on_c, 4, 67, 0
6, 8670, Note_on_c, 4, 65, 45
6, 8760, Note_on_c, 4, 65, 0
6, 8760, Note_on_c, 4, 65, 45
6, 8820, Note_on_c, 4, 65, 0
6, 8820, Note_on_c, 4, 65, 45
6, 8880, Note_on_c, 4, 65, 0
6, 8880, Note_on_c, 4, 65, 45
6, 8895, Note_on_c, 4, 65, 0
6, 8895, Note_on_c, 4, 64, 45
6, 8910, Note_on_c, 4, 64, 0
6, 8910, Note_on_c, 4, 62, 45
6, 9000, Note_on_c, 4, 62, 0
6, 9000, Note_on_c, 4, 62, 45
6, 9060, Note_on_c, 4, 62, 0
6, 9060, Note_on_c, 4, 62, 44
6, 9120, Note_on_c, 4, 62, 0
6, 9120, Note_on_c, 4, 67, 44
6, 9135, Note_on_c, 4, 67, 0
6, 9135, Note_on_c, 4, 65, 44
6, 9150, Note_on_c, 4, 65, 0
6, 9150, Note_on_c, 4, 64, 44
6, 9240, Note_on_c, 4, 64, 0
6, 9240, Note_on_c, 4, 64, 44
6, 9300, Note_on_c, 4, 64, 0
6, 9300, Note_on_c, 4, 64, 44
6, 9360, Note_on_c, 4, 64, 0
6, 9360, Note_on_c, 4, 64, 44
6, 9375, Note_on_c, 4, 64, 0
6, 9375, Note_on_c, 4, 62, 44
6, 9390, Note_on_c, 4, 62, 0
6, 9390, Note_on_c, 4, 60, 44
6, 9480, Note_on_c, 4, 60, 0
6, 9480, Note_on_c, 4, 60, 44
6, 9540, Note_on_c, 4, 60, 0
6, 9540, Note_on_c, 4, 60, 44
6, 9600, Note_on_c, 4, 60, 0
6, 9600, Note_on_c, 4, 69, 44
6, 9630, Note_on_c, 4, 69, 0
6, 9660, Note_on_c, 4, 65, 43
6, 9690, Note_on_c, 4, 65, 0
6, 9720, Note_on_c, 4, 64, 43
6, 9750, Note_on_c, 4, 64, 0
6, 9780, Note_on_c, 4, 62, 43
6, 9810, Note_on_c, 4, 62, 0
6, 9840, Note_on_c, 4, 60, 43
6, 9870, Note_on_c, 4, 60, 0
6, 9900, Note_on_c, 4, 62, 43
6, 9930, Note_on_c, 4, 62, 0
6, 9960, Note_on_c, 4, 60, 43
6, 9990, Note_on_c, 4, 60, 0
6, 10020, Note_on_c, 4, 59, 43
6, 10050, Note_on_c, 4, 59, 0
6, 10080, Note_on_c, 4, 60, 100
6, 10110, Note_on_c, 4, 60, 0
6, 10110, Note_on_c, 4, 60, 100
6, 10140, Note_on_c, 4, 60, 0
6, 10140, Note_on_c, 4, 60, 100
6, 10170, Note_on_c, 4, 60, 0
6, 10170, Note_on_c, 4, 60, 100
6, 10200, Note_on_c, 4, 60, 0
6, 10200, Note_on_c, 4, 60, 100
6, 10230, Note_on_c, 4, 60, 0
6, 10230, Note_on_c, 4, 60, 100
6, 10260, Note_on_c, 4, 60, 0
6, 10260, Note_on_c, 4, 60, 100
6, 10290, Note_on_c, 4, 60, 0
6, 10290, Note_on_c, 4, 60, 100
6, 10320, Note_on_c, 4, 60, 0
6, 10320, Note_on_c, 4, 56, 100
6, 10350, Note_on_c, 4, 56, 0
6, 10350, Note_on_c, 4, 56, 100
6, 10380, Note_on_c, 4, 56, 0
6, 10380, Note_on_c, 4, 56, 100
6, 10410, Note_on_c, 4, 56, 0
6, 10410, Note_on_c, 4, 56, 100
6, 10440, Note_on_c, 4, 56, 0
6, 10440, Note_on_c, 4, 56, 100
6, 10470, Note_on_c, 4, 56, 0
6, 10470, Note_on_c, 4, 56, 101
6, 10500, Note_on_c, 4, 56, 0
6, 10500, Note_on_c, 4, 56, 101
6, 10530, Note_on_c, 4, 56, 0
6, 10530, Note_on_c, 4, 56, 101
6, 10560, Note_on_c, 4, 56, 0
6, 10560, Note_on_c, 4, 57, 101
6, 10590, Note_on_c, 4, 57, 0
6, 10590, Note_on_c, 4, 57, 101
6, 10620, Note_on_c, 4, 57, 0
6, 10620, Note_on_c, 4, 57, 102
6, 10650, Note_on_c, 4, 57, 0
6, 10650, Note_on_c, 4, 57, 103
6, 10680, Note_on_c, 4, 57, 0
6, 10680, Note_on_c, 4, 57, 104
6, 10710, Note_on_c, 4, 57, 0
6, 10710, Note_on_c, 4, 57, 104
6, 10740, Note_on_c, 4, 57, 0
6, 10740, Note_on_c, 4, 57, 105
6, 10770, Note_on_c, 4, 57, 0
6, 10770, Note_on_c, 4, 57, 105
6, 10800, Note_on_c, 4, 57, 0
6, 10800, Note_on_c, 4, 64, 105
6, 10830, Note_on_c, 4, 64, 0
6, 10830, Note_on_c, 4, 64, 106
6, 10860, Note_on_c, 4, 64, 0
6, 10860, Note_on_c, 4, 64, 106
6, 10890, Note_on_c, 4, 64, 0
6, 10890, Note_on_c, 4, 64, 107
6, 10920, Note_on_c, 4, 64, 0
6, 10920, Note_on_c, 4, 64, 107
6, 10950, Note_on_c, 4, 64, 0
6, 10950, Note_on_c, 4, 64, 108
6, 10980, Note_on_c, 4, 64, 0
6, 10980, Note_on_c, 4, 64, 108
6, 11010, Note_on_c, 4, 64, 0
6, 11010, Note_on_c, 4, 64, 109
6, 11040, Note_on_c, 4, 64, 0
6, 11040, Note_on_c, 4, 65, 109
6, 11070, Note_on_c, 4, 65, 0
6, 11070, Note_on_c, 4, 65, 109
6, 11100, Note_on_c, 4, 65, 0
6, 11100, Note_on_c, 4, 65, 110
6, 11130, Note_on_c, 4, 65, 0
6, 11130, Note_on_c, 4, 65, 110
6, 11160, Note_on_c, 4, 65, 0
6, 11160, Note_on_c, 4, 65, 111
6, 11190, Note_on_c, 4, 65, 0
6, 11190, Note_on_c, 4, 65, 111
6, 11220, Note_on_c, 4, 65, 0
6, 11220, Note_on_c, 4, 65, 111
6, 11250, Note_on_c, 4, 65, 0
6, 11250, Note_on_c, 4, 65, 112
6, 11280, Note_on_c, 4, 65, 0
6, 11280, Note_on_c, 4, 59, 112
6, 11310, Note_on_c, 4, 59, 0
6, 11310, Note_on_c, 4, 59, 113
6, 11340, Note_on_c, 4, 59, 0
6, 11340, Note_on_c, 4, 59, 113
6, 11370, Note_on_c, 4, 59, 0
6, 11370, Note_on_c, 4, 59, 113
6, 11400, Note_on_c, 4, 59, 0
6, 11400, Note_on_c, 4, 59, 113
6, 11430, Note_on_c, 4, 59, 0
6, 11430, Note_on_c, 4, 59, 113
6, 11460, Note_on_c, 4, 59, 0
6, 11460, Note_on_c, 4, 59, 113
6, 11490, Note_on_c, 4, 59, 0
6, 11490, Note_on_c, 4, 59, 113
6, 11520, Note_on_c, 4, 59, 0
6, 11520, Note_on_c, 4, 60, 113
6, 11550, Note_on_c, 4, 60, 0
6, 11550, Note_on_c, 4, 60, 114
6, 11580, Note_on_c, 4, 60, 0
6, 11580, Note_on_c, 4, 60, 114
6, 11610, Note_on_c, 4, 60, 0
6, 11610, Note_on_c, 4, 60, 115
6, 11640, Note_on_c, 4, 60, 0
6, 11640, Note_on_c, 4, 60, 116
6, 11670, Note_on_c, 4, 60, 0
6, 11670, Note_on_c, 4, 60, 116
6, 11700, Note_on_c, 4, 60, 0
6, 11700, Note_on_c, 4, 60, 116
6, 11730, Note_on_c, 4, 60, 0
6, 11730, Note_on_c, 4, 60, 116
6, 11760, Note_on_c, 4, 60, 0
6, 11760, Note_on_c, 4, 56, 116
6, 11790, Note_on_c, 4, 56, 0
6, 11790, Note_on_c, 4, 56, 117
6, 11820, Note_on_c, 4, 56, 0
6, 11820, Note_on_c, 4, 56, 117
6, 11850, Note_on_c, 4, 56, 0
6, 11850, Note_on_c, 4, 56, 118
6, 11880, Note_on_c, 4, 56, 0
6, 11880, Note_on_c, 4, 56, 118
6, 11910, Note_on_c, 4, 56, 0
6, 11910, Note_on_c, 4, 56, 123
6, 11940, Note_on_c, 4, 56, 0
6, 11940, Note_on_c, 4, 56, 126
6, 11970, Note_on_c, 4, 56, 0
6, 11970, Note_on_c, 4, 56, 127
6, 12000, Note_on_c, 4, 56, 0
6, 12000, Note_on_c, 4, 55, 127
6, 12120, Note_on_c, 4, 55, 0
6, 12300, Note_on_c, 4, 55, 127
6, 12330, Note_on_c, 4, 55, 0
6, 12330, Note_on_c, 4, 59, 127
6, 12360, Note_on_c, 4, 59, 0
6, 12360, Note_on_c, 4, 62, 127
6, 12420, Note_on_c, 4, 62, 0
6, 12420, Note_on_c, 4, 59, 127
6, 12450, Note_on_c, 4, 59, 0
6, 12450, Note_on_c, 4, 62, 127
6, 12480, Note_on_c, 4, 62, 0
6, 12480, Note_on_c, 4, 67, 127
6, 12540, Note_on_c, 4, 67, 0
6, 12540, Note_on_c, 4, 62, 127
6, 12570, Note_on_c, 4, 62, 0
6, 12570, Note_on_c, 4, 67, 127
6, 12600, Note_on_c, 4, 67, 0
6, 12600, Note_on_c, 4, 71, 127
6, 12660, Note_on_c, 4, 71, 0
6, 12660, Note_on_c, 4, 67, 127
6, 12690, Note_on_c, 4, 67, 0
6, 12690, Note_on_c, 4, 71, 127
6, 12720, Note_on_c, 4, 71, 0
6, 12720, Note_on_c, 4, 74, 127
6, 12840, Note_on_c, 4, 74, 0
6, 12840, Note_on_c, 4, 76, 127
6, 12960, Note_on_c, 4, 76, 0
6, 12960, Note_on_c, 4, 74, 127
6, 13080, Note_on_c, 4, 74, 0
6, 13260, Note_on_c, 4, 55, 127
6, 13290, Note_on_c, 4, 55, 0
6, 13290, Note_on_c, 4, 59, 127
6, 13320, Note_on_c, 4, 59, 0
6, 13320, Note_on_c, 4, 62, 127
6, 13380, Note_on_c, 4, 62, 0
6, 13380, Note_on_c, 4, 59, 127
6, 13410, Note_on_c, 4, 59, 0
6, 13410, Note_on_c, 4, 62, 127
6, 13440, Note_on_c, 4, 62, 0
6, 13440, Note_on_c, 4, 67, 127
6, 13500, Note_on_c, 4, 67, 0
6, 13500, Note_on_c, 4, 62, 127
6, 13530, Note_on_c, 4, 62, 0
6, 13530, Note_on_c, 4, 67, 127
6, 13560, Note_on_c, 4, 67, 0
6, 13560, Note_on_c, 4, 71, 127
6, 13620, Note_on_c, 4, 71, 0
6, 13620, Note_on_c, 4, 67, 127
6, 13650, Note_on_c, 4, 67, 0
6, 13650, Note_on_c, 4, 71, 127
6, 13680, Note_on_c, 4, 71, 0
6, 13680, Note_on_c, 4, 74, 127
6, 13800, Note_on_c, 4, 74, 0
6, 13800, Note_on_c, 4, 76, 127
6, 13920, Note_on_c, 4, 76, 0
6, 13920, Note_on_c, 4, 74, 127
6, 14040, Note_on_c, 4, 74, 0
6, 14130, Note_on_c, 4, 83, 127
6, 14160, Note_on_c, 4, 83, 0
6, 14160, Note_on_c, 4, 83, 127
6, 14280, Note_on_c, 4, 83, 0
6, 14370, Note_on_c, 4, 55, 127
6, 14400, Note_on_c, 4, 55, 0
6, 14400, Note_on_c, 4, 55, 127
6, 14520, Note_on_c, 4, 55, 0
6, 14760, Note_on_c, 4, 74, 46
6, 14820, Note_on_c, 4, 74, 0
6, 14880, Note_on_c, 4, 72, 43
6, 14940, Note_on_c, 4, 72, 0
6, 15000, Note_on_c, 4, 74, 46
6, 15060, Note_on_c, 4, 74, 0
6, 15120, Note_on_c, 4, 71, 46
6, 15180, Note_on_c, 4, 71, 0
6, 15240, Note_on_c, 4, 74, 46
6, 15300, Note_on_c, 4, 74, 0
6, 15360, Note_on_c, 4, 69, 46
6, 15420, Note_on_c, 4, 69, 0
6, 15480, Note_on_c, 4, 74, 46
6, 15540, Note_on_c, 4, 74, 0
6, 15600, Note_on_c, 4, 67, 46
6, 15660, Note_on_c, 4, 67, 0
6, 15720, Note_on_c, 4, 74, 46
6, 15780, Note_on_c, 4, 74, 0
6, 15840, Note_on_c, 4, 66, 100
6, 15855, Note_on_c, 4, 66, 0
6, 15855, Note_on_c, 4, 67, 100
6, 15870, Note_on_c, 4, 67, 0
6, 15870, Note_on_c, 4, 69, 100
6, 15960, Note_on_c, 4, 69, 0
6, 15960, Note_on_c, 4, 62, 100
6, 15960, Note_on_c, 4, 69, 100
6, 15990, Note_on_c, 4, 69, 0
6, 15990, Note_on_c, 4, 62, 0
6, 16020, Note_on_c, 4, 62, 100
6, 16020, Note_on_c, 4, 69, 100
6, 16050, Note_on_c, 4, 69, 0
6, 16050, Note_on_c, 4, 62, 0
6, 16080, Note_on_c, 4, 62, 100
6, 16080, Note_on_c, 4, 69, 100
6, 16200, Note_on_c, 4, 69, 0
6, 16200, Note_on_c, 4, 62, 0
6, 16200, Note_on_c, 4, 74, 46
6, 16260, Note_on_c, 4, 74, 0
6, 16320, Note_on_c, 4, 72, 43
6, 16380, Note_on_c, 4, 72, 0
6, 16440, Note_on_c, 4, 74, 46
6, 16500, Note_on_c, 4, 74, 0
6, 16560, Note_on_c, 4, 71, 46
6, 16620, Note_on_c, 4, 71, 0
6, 16680, Note_on_c, 4, 74, 46
6, 16740, Note_on_c, 4, 74, 0
6, 16800, Note_on_c, 4, 69, 46
6, 16860, Note_on_c, 4, 69, 0
6, 16920, Note_on_c, 4, 74, 46
6, 16980, Note_on_c, 4, 74, 0
6, 17040, Note_on_c, 4, 67, 46
6, 17100, Note_on_c, 4, 67, 0
6, 17160, Note_on_c, 4, 74, 46
6, 17220, Note_on_c, 4, 74, 0
6, 17280, Note_on_c, 4, 66, 100
6, 17295, Note_on_c, 4, 66, 0
6, 17295, Note_on_c, 4, 67, 100
6, 17310, Note_on_c, 4, 67, 0
6, 17310, Note_on_c, 4, 69, 100
6, 17400, Note_on_c, 4, 69, 0
6, 17400, Note_on_c, 4, 62, 100
6, 17400, Note_on_c, 4, 69, 100
6, 17430, Note_on_c, 4, 69, 0
6, 17430, Note_on_c, 4, 62, 0
6, 17460, Note_on_c, 4, 62, 100
6, 17460, Note_on_c, 4, 69, 100
6, 17490, Note_on_c, 4, 69, 0
6, 17490, Note_on_c, 4, 62, 0
6, 17520, Note_on_c, 4, 62, 100
6, 17520, Note_on_c, 4, 69, 100
6, 17640, Note_on_c, 4, 69, 0
6, 17640, Note_on_c, 4, 62, 0
6, 18960, Note_on_c, 4, 71, 43
6, 19080, Note_on_c, 4, 71, 0
6, 19080, Note_on_c, 4, 69, 42
6, 19200, Note_on_c, 4, 69, 0
6, 19200, Note_on_c, 4, 67, 100
6, 19200, Note_on_c, 4, 67, 40
6, 19320, Note_on_c, 4, 67, 0
6, 19440, Note_on_c, 4, 67, 0
6, 19440, Note_on_c, 4, 66, 100
6, 19440, Note_on_c, 4, 66, 40
6, 19560, Note_on_c, 4, 66, 0
6, 19680, Note_on_c, 4, 66, 0
6, 19680, Note_on_c, 4, 64, 41
6, 19860, Note_on_c, 4, 64, 0
6, 19860, Note_on_c, 4, 60, 41
6, 19920, Note_on_c, 4, 60, 0
6, 19920, Note_on_c, 4, 59, 41
6, 20040, Note_on_c, 4, 59, 0
6, 20040, Note_on_c, 4, 57, 41
6, 20160, Note_on_c, 4, 57, 0
6, 20160, Note_on_c, 4, 59, 41
6, 20280, Note_on_c, 4, 59, 0
6, 21360, Note_on_c, 4, 71, 43
6, 21480, Note_on_c, 4, 71, 0
6, 21480, Note_on_c, 4, 69, 42
6, 21600, Note_on_c, 4, 69, 0
6, 21600, Note_on_c, 4, 67, 100
6, 21600, Note_on_c, 4, 67, 40
6, 21720, Note_on_c, 4, 67, 0
6, 21840, Note_on_c, 4, 67, 0
6, 21840, Note_on_c, 4, 66, 100
6, 21840, Note_on_c, 4, 66, 40
6, 21960, Note_on_c, 4, 66, 0
6, 22080, Note_on_c, 4, 66, 0
6, 22080, Note_on_c, 4, 64, 41
6, 22260, Note_on_c, 4, 64, 0
6, 22260, Note_on_c, 4, 60, 41
6, 22320, Note_on_c, 4, 60, 0
6, 22320, Note_on_c, 4, 59, 41
6, 22440, Note_on_c, 4, 59, 0
6, 22440, Note_on_c, 4, 57, 41
6, 22560, Note_on_c, 4, 57, 0
6, 22560, Note_on_c, 4, 59, 127
6, 22590, Note_on_c, 4, 59, 0
6, 22590, Note_on_c, 4, 59, 127
6, 22620, Note_on_c, 4, 59, 0
6, 22620, Note_on_c, 4, 59, 127
6, 22650, Note_on_c, 4, 59, 0
6, 22650, Note_on_c, 4, 59, 127
6, 22680, Note_on_c, 4, 59, 0
6, 22680, Note_on_c, 4, 67, 127
6, 22710, Note_on_c, 4, 67, 0
6, 22710, Note_on_c, 4, 67, 127
6, 22740, Note_on_c, 4, 67, 0
6, 22740, Note_on_c, 4, 67, 127
6, 22770, Note_on_c, 4, 67, 0
6, 22770, Note_on_c, 4, 67, 127
6, 22800, Note_on_c, 4, 67, 0
6, 22800, Note_on_c, 4, 71, 127
6, 22830, Note_on_c, 4, 71, 0
6, 22830, Note_on_c, 4, 71, 127
6, 22860, Note_on_c, 4, 71, 0
6, 22860, Note_on_c, 4, 71, 127
6, 22890, Note_on_c, 4, 71, 0
6, 22890, Note_on_c, 4, 71, 127
6, 22920, Note_on_c, 4, 71, 0
6, 22920, Note_on_c, 4, 74, 127
6, 22950, Note_on_c, 4, 74, 0
6, 22950, Note_on_c, 4, 74, 127
6, 22980, Note_on_c, 4, 74, 0
6, 22980, Note_on_c, 4, 74, 127
6, 23010, Note_on_c, 4, 74, 0
6, 23010, Note_on_c, 4, 74, 127
6, 23040, Note_on_c, 4, 74, 0
6, 23040, Note_on_c, 4, 72, 127
6, 23070, Note_on_c, 4, 72, 0
6, 23070, Note_on_c, 4, 72, 127
6, 23100, Note_on_c, 4, 72, 0
6, 23100, Note_on_c, 4, 72, 127
6, 23130, Note_on_c, 4, 72, 0
6, 23130, Note_on_c, 4, 72, 127
6, 23160, Note_on_c, 4, 72, 0
6, 23160, Note_on_c, 4, 69, 127
6, 23190, Note_on_c, 4, 69, 0
6, 23190, Note_on_c, 4, 69, 127
6, 23220, Note_on_c, 4, 69, 0
6, 23220, Note_on_c, 4, 69, 127
6, 23250, Note_on_c, 4, 69, 0
6, 23250, Note_on_c, 4, 69, 127
6, 23280, Note_on_c, 4, 69, 0
6, 23280, Note_on_c, 4, 66, 127
6, 23310, Note_on_c, 4, 66, 0
6, 23310, Note_on_c, 4, 66, 127
6, 23340, Note_on_c, 4, 66, 0
6, 23340, Note_on_c, 4, 66, 127
6, 23370, Note_on_c, 4, 66, 0
6, 23370, Note_on_c, 4, 66, 127
6, 23400, Note_on_c, 4, 66, 0
6, 23400, Note_on_c, 4, 60, 127
6, 23430, Note_on_c, 4, 60, 0
6, 23430, Note_on_c, 4, 60, 127
6, 23460, Note_on_c, 4, 60, 0
6, 23460, Note_on_c, 4, 60, 127
6, 23490, Note_on_c, 4, 60, 0
6, 23490, Note_on_c, 4, 60, 127
6, 23520, Note_on_c, 4, 60, 0
6, 23520, Note_on_c, 4, 59, 127
6, 23550, Note_on_c, 4, 59, 0
6, 23550, Note_on_c, 4, 59, 127
6, 23580, Note_on_c, 4, 59, 0
6, 23580, Note_on_c, 4, 59, 127
6, 23610, Note_on_c, 4, 59, 0
6, 23610, Note_on_c, 4, 59, 127
6, 23640, Note_on_c, 4, 59, 0
6, 23640, Note_on_c, 4, 67, 127
6, 23670, Note_on_c, 4, 67, 0
6, 23670, Note_on_c, 4, 67, 127
6, 23700, Note_on_c, 4, 67, 0
6, 23700, Note_on_c, 4, 67, 127
6, 23730, Note_on_c, 4, 67, 0
6, 23730, Note_on_c, 4, 67, 127
6, 23760, Note_on_c, 4, 67, 0
6, 23760, Note_on_c, 4, 71, 127
6, 23790, Note_on_c, 4, 71, 0
6, 23790, Note_on_c, 4, 71, 127
6, 23820, Note_on_c, 4, 71, 0
6, 23820, Note_on_c, 4, 71, 127
6, 23850, Note_on_c, 4, 71, 0
6, 23850, Note_on_c, 4, 71, 127
6, 23880, Note_on_c, 4, 71, 0
6, 23880, Note_on_c, 4, 74, 127
6, 23910, Note_on_c, 4, 74, 0
6, 23910, Note_on_c, 4, 74, 127
6, 23940, Note_on_c, 4, 74, 0
6, 23940, Note_on_c, 4, 74, 127
6, 23970, Note_on_c, 4, 74, 0
6, 23970, Note_on_c, 4, 74, 127
6, 24000, Note_on_c, 4, 74, 0
6, 24000, Note_on_c, 4, 72, 127
6, 24030, Note_on_c, 4, 72, 0
6, 24030, Note_on_c, 4, 72, 127
6, 24060, Note_on_c, 4, 72, 0
6, 24060, Note_on_c, 4, 72, 127
6, 24090, Note_on_c, 4, 72, 0
6, 24090, Note_on_c, 4, 72, 127
6, 24120, Note_on_c, 4, 72, 0
6, 24120, Note_on_c, 4, 69, 127
6, 24150, Note_on_c, 4, 69, 0
6, 24150, Note_on_c, 4, 69, 127
6, 24180, Note_on_c, 4, 69, 0
6, 24180, Note_on_c, 4, 69, 127
6, 24210, Note_on_c, 4, 69, 0
6, 24210, Note_on_c, 4, 69, 127
6, 24240, Note_on_c, 4, 69, 0
6, 24240, Note_on_c, 4, 66, 127
6, 24270, Note_on_c, 4, 66, 0
6, 24270, Note_on_c, 4, 66, 127
6, 24300, Note_on_c, 4, 66, 0
6, 24300, Note_on_c, 4, 66, 127
6, 24330, Note_on_c, 4, 66, 0
6, 24330, Note_on_c, 4, 66, 127
6, 24360, Note_on_c, 4, 66, 0
6, 24360, Note_on_c, 4, 60, 127
6, 24390, Note_on_c, 4, 60, 0
6, 24390, Note_on_c, 4, 60, 127
6, 24420, Note_on_c, 4, 60, 0
6, 24420, Note_on_c, 4, 60, 127
6, 24450, Note_on_c, 4, 60, 0
6, 24450, Note_on_c, 4, 60, 127
6, 24480, Note_on_c, 4, 60, 0
6, 24480, Note_on_c, 4, 59, 127
6, 24600, Note_on_c, 4, 59, 0
6, 24600, Note_on_c, 4, 74, 127
6, 24690, Note_on_c, 4, 74, 0
6, 24690, Note_on_c, 4, 74, 127
6, 24720, Note_on_c, 4, 74, 0
6, 24720, Note_on_c, 4, 74, 127
6, 24840, Note_on_c, 4, 74, 0
6, 24840, Note_on_c, 4, 71, 127
6, 24870, Note_on_c, 4, 71, 0
6, 24870, Note_on_c, 4, 69, 127
6, 24900, Note_on_c, 4, 69, 0
6, 24900, Note_on_c, 4, 71, 127
6, 24930, Note_on_c, 4, 71, 0
6, 24930, Note_on_c, 4, 72, 127
6, 24960, Note_on_c, 4, 72, 0
6, 24960, Note_on_c, 4, 71, 127
6, 25080, Note_on_c, 4, 71, 0
6, 25080, Note_on_c, 4, 79, 127
6, 25170, Note_on_c, 4, 79, 0
6, 25170, Note_on_c, 4, 79, 127
6, 25200, Note_on_c, 4, 79, 0
6, 25200, Note_on_c, 4, 79, 127
6, 25320, Note_on_c, 4, 79, 0
6, 25320, Note_on_c, 4, 71, 127
6, 25350, Note_on_c, 4, 71, 0
6, 25350, Note_on_c, 4, 69, 127
6, 25380, Note_on_c, 4, 69, 0
6, 25380, Note_on_c, 4, 71, 127
6, 25410, Note_on_c, 4, 71, 0
6, 25410, Note_on_c, 4, 72, 127
6, 25440, Note_on_c, 4, 72, 0
6, 25440, Note_on_c, 4, 74, 127
6, 25560, Note_on_c, 4, 74, 0
6, 25560, Note_on_c, 4, 74, 127
6, 25650, Note_on_c, 4, 74, 0
6, 25650, Note_on_c, 4, 74, 127
6, 25680, Note_on_c, 4, 74, 0
6, 25680, Note_on_c, 4, 74, 127
6, 25800, Note_on_c, 4, 74, 0
6, 25800, Note_on_c, 4, 74, 127
6, 25920, Note_on_c, 4, 74, 0
6, 25920, Note_on_c, 4, 72, 127
6, 26040, Note_on_c, 4, 72, 0
6, 26040, Note_on_c, 4, 72, 127
6, 26160, Note_on_c, 4, 72, 0
6, 26160, Note_on_c, 4, 71, 127
6, 26280, Note_on_c, 4, 71, 0
6, 26280, Note_on_c, 4, 62, 127
6, 26280, Note_on_c, 4, 72, 127
6, 26400, Note_on_c, 4, 72, 0
6, 26400, Note_on_c, 4, 62, 0
6, 26400, Note_on_c, 4, 71, 127
6, 26400, Note_on_c, 4, 62, 127
6, 26400, Note_on_c, 4, 55, 127
6, 26520, Note_on_c, 4, 55, 0
6, 26520, Note_on_c, 4, 62, 0
6, 26520, Note_on_c, 4, 71, 0
6, 26520, Note_on_c, 4, 74, 127
6, 26610, Note_on_c, 4, 74, 0
6, 26610, Note_on_c, 4, 74, 127
6, 26640, Note_on_c, 4, 74, 0
6, 26640, Note_on_c, 4, 74, 127
6, 26760, Note_on_c, 4, 74, 0
6, 26760, Note_on_c, 4, 71, 127
6, 26790, Note_on_c, 4, 71, 0
6, 26790, Note_on_c, 4, 69, 127
6, 26820, Note_on_c, 4, 69, 0
6, 26820, Note_on_c, 4, 71, 127
6, 26850, Note_on_c, 4, 71, 0
6, 26850, Note_on_c, 4, 72, 127
6, 26880, Note_on_c, 4, 72, 0
6, 26880, Note_on_c, 4, 71, 127
6, 27000, Note_on_c, 4, 71, 0
6, 27000, Note_on_c, 4, 79, 127
6, 27090, Note_on_c, 4, 79, 0
6, 27090, Note_on_c, 4, 79, 127
6, 27120, Note_on_c, 4, 79, 0
6, 27120, Note_on_c, 4, 79, 127
6, 27240, Note_on_c, 4, 79, 0
6, 27240, Note_on_c, 4, 71, 127
6, 27270, Note_on_c, 4, 71, 0
6, 27270, Note_on_c, 4, 69, 127
6, 27300, Note_on_c, 4, 69, 0
6, 27300, Note_on_c, 4, 71, 127
6, 27330, Note_on_c, 4, 71, 0
6, 27330, Note_on_c, 4, 72, 127
6, 27360, Note_on_c, 4, 72, 0
6, 27360, Note_on_c, 4, 74, 127
6, 27480, Note_on_c, 4, 74, 0
6, 27480, Note_on_c, 4, 74, 127
6, 27570, Note_on_c, 4, 74, 0
6, 27570, Note_on_c, 4, 74, 127
6, 27600, Note_on_c, 4, 74, 0
6, 27600, Note_on_c, 4, 74, 127
6, 27720, Note_on_c, 4, 74, 0
6, 27720, Note_on_c, 4, 74, 127
6, 27840, Note_on_c, 4, 74, 0
6, 27840, Note_on_c, 4, 72, 127
6, 27960, Note_on_c, 4, 72, 0
6, 27960, Note_on_c, 4, 72, 127
6, 28080, Note_on_c, 4, 72, 0
6, 28080, Note_on_c, 4, 71, 127
6, 28200, Note_on_c, 4, 71, 0
6, 28200, Note_on_c, 4, 62, 127
6, 28200, Note_on_c, 4, 72, 127
6, 28320, Note_on_c, 4, 72, 0
6, 28320, Note_on_c, 4, 62, 0
6, 28320, Note_on_c, 4, 62, 127
6, 28320, Note_on_c, 4, 71, 127
6, 28350, Note_on_c, 4, 71, 0
6, 28350, Note_on_c, 4, 62, 0
6, 28350, Note_on_c, 4, 62, 127
6, 28350, Note_on_c, 4, 71, 127
6, 28380, Note_on_c, 4, 71, 0
6, 28380, Note_on_c, 4, 62, 0
6, 28380, Note_on_c, 4, 62, 127
6, 28380, Note_on_c, 4, 71, 127
6, 28410, Note_on_c, 4, 71, 0
6, 28410, Note_on_c, 4, 62, 0
6, 28410, Note_on_c, 4, 62, 127
6, 28410, Note_on_c, 4, 71, 127
6, 28440, Note_on_c, 4, 71, 0
6, 28440, Note_on_c, 4, 62, 0
6, 28440, Note_on_c, 4, 62, 127
6, 28440, Note_on_c, 4, 71, 127
6, 28470, Note_on_c, 4, 71, 0
6, 28470, Note_on_c, 4, 62, 0
6, 28470, Note_on_c, 4, 62, 127
6, 28470, Note_on_c, 4, 71, 127
6, 28500, Note_on_c, 4, 71, 0
6, 28500, Note_on_c, 4, 62, 0
6, 28500, Note_on_c, 4, 62, 127
6, 28500, Note_on_c, 4, 71, 127
6, 28530, Note_on_c, 4, 71, 0
6, 28530, Note_on_c, 4, 62, 0
6, 28530, Note_on_c, 4, 62, 127
6, 28530, Note_on_c, 4, 71, 127
6, 28560, Note_on_c, 4, 71, 0
6, 28560, Note_on_c, 4, 62, 0
6, 28560, Note_on_c, 4, 62, 127
6, 28560, Note_on_c, 4, 71, 127
6, 28590, Note_on_c, 4, 71, 0
6, 28590, Note_on_c, 4, 62, 0
6, 28590, Note_on_c, 4, 62, 127
6, 28590, Note_on_c, 4, 71, 127
6, 28620, Note_on_c, 4, 71, 0
6, 28620, Note_on_c, 4, 62, 0
6, 28620, Note_on_c, 4, 62, 127
6, 28620, Note_on_c, 4, 71, 127
6, 28650, Note_on_c, 4, 71, 0
6, 28650, Note_on_c, 4, 62, 0
6, 28650, Note_on_c, 4, 62, 127
6, 28650, Note_on_c, 4, 71, 127
6, 28680, Note_on_c, 4, 71, 0
6, 28680, Note_on_c, 4, 62, 0
6, 28680, Note_on_c, 4, 62, 127
6, 28680, Note_on_c, 4, 71, 127
6, 28710, Note_on_c, 4, 71, 0
6, 28710, Note_on_c, 4, 62, 0
6, 28710, Note_on_c, 4, 62, 127
6, 28710, Note_on_c, 4, 71, 127
6, 28740, Note_on_c, 4, 71, 0
6, 28740, Note_on_c, 4, 62, 0
6, 28740, Note_on_c, 4, 62, 127
6, 28740, Note_on_c, 4, 71, 127
6, 28770, Note_on_c, 4, 71, 0
6, 28770, Note_on_c, 4, 62, 0
6, 28770, Note_on_c, 4, 62, 127
6, 28770, Note_on_c, 4, 71, 127
6, 28800, Note_on_c, 4, 71, 0
6, 28800, Note_on_c, 4, 62, 0
6, 28800, Note_on_c, 4, 62, 127
6, 28800, Note_on_c, 4, 71, 127
6, 28830, Note_on_c, 4, 71, 0
6, 28830, Note_on_c, 4, 62, 0
6, 28830, Note_on_c, 4, 62, 127
6, 28830, Note_on_c, 4, 71, 127
6, 28860, Note_on_c, 4, 71, 0
6, 28860, Note_on_c, 4, 62, 0
6, 28860, Note_on_c, 4, 62, 127
6, 28860, Note_on_c, 4, 71, 127
6, 28890, Note_on_c, 4, 71, 0
6, 28890, Note_on_c, 4, 62, 0
6, 28890, Note_on_c, 4, 62, 127
6, 28890, Note_on_c, 4, 71, 127
6, 28920, Note_on_c, 4, 71, 0
6, 28920, Note_on_c, 4, 62, 0
6, 28920, Note_on_c, 4, 62, 127
6, 28920, Note_on_c, 4, 71, 127
6, 28950, Note_on_c, 4, 71, 0
6, 28950, Note_on_c, 4, 62, 0
6, 28950, Note_on_c, 4, 62, 127
6, 28950, Note_on_c, 4, 71, 127
6, 28980, Note_on_c, 4, 71, 0
6, 28980, Note_on_c, 4, 62, 0
6, 28980, Note_on_c, 4, 62, 127
6, 28980, Note_on_c, 4, 71, 127
6, 29010, Note_on_c, 4, 71, 0
6, 29010, Note_on_c, 4, 62, 0
6, 29010, Note_on_c, 4, 62, 127
6, 29010, Note_on_c, 4, 71, 127
6, 29040, Note_on_c, 4, 71, 0
6, 29040, Note_on_c, 4, 62, 0
6, 29040, Note_on_c, 4, 62, 127
6, 29040, Note_on_c, 4, 71, 127
6, 29070, Note_on_c, 4, 71, 0
6, 29070, Note_on_c, 4, 62, 0
6, 29070, Note_on_c, 4, 62, 127
6, 29070, Note_on_c, 4, 71, 127
6, 29100, Note_on_c, 4, 71, 0
6, 29100, Note_on_c, 4, 62, 0
6, 29100, Note_on_c, 4, 62, 127
6, 29100, Note_on_c, 4, 71, 127
6, 29130, Note_on_c, 4, 71, 0
6, 29130, Note_on_c, 4, 62, 0
6, 29130, Note_on_c, 4, 62, 127
6, 29130, Note_on_c, 4, 71, 127
6, 29160, Note_on_c, 4, 71, 0
6, 29160, Note_on_c, 4, 62, 0
6, 29160, Note_on_c, 4, 62, 127
6, 29160, Note_on_c, 4, 71, 127
6, 29190, Note_on_c, 4, 71, 0
6, 29190, Note_on_c, 4, 62, 0
6, 29190, Note_on_c, 4, 62, 127
6, 29190, Note_on_c, 4, 71, 127
6, 29220, Note_on_c, 4, 71, 0
6, 29220, Note_on_c, 4, 62, 0
6, 29220, Note_on_c, 4, 62, 127
6, 29220, Note_on_c, 4, 71, 127
6, 29250, Note_on_c, 4, 71, 0
6, 29250, Note_on_c, 4, 62, 0
6, 29250, Note_on_c, 4, 62, 127
6, 29250, Note_on_c, 4, 71, 127
6, 29280, Note_on_c, 4, 71, 0
6, 29280, Note_on_c, 4, 62, 0
6, 29280, Note_on_c, 4, 62, 127
6, 29280, Note_on_c, 4, 71, 127
6, 29400, Note_on_c, 4, 71, 0
6, 29400, Note_on_c, 4, 62, 0
6, 30120, Note_on_c, 4, 57, 100
6, 30120, Note_on_c, 4, 66, 100
6, 30240, Note_on_c, 4, 66, 0
6, 30240, Note_on_c, 4, 57, 0
6, 30240, Note_on_c, 4, 59, 100
6, 30240, Note_on_c, 4, 67, 100
6, 30360, Note_on_c, 4, 67, 0
6, 30360, Note_on_c, 4, 59, 0
6, 30600, Note_on_c, 4, 57, 100
6, 30600, Note_on_c, 4, 66, 100
6, 30720, Note_on_c, 4, 66, 0
6, 30720, Note_on_c, 4, 57, 0
6, 30720, Note_on_c, 4, 59, 100
6, 30720, Note_on_c, 4, 67, 100
6, 30840, Note_on_c, 4, 67, 0
6, 30840, Note_on_c, 4, 59, 0
6, 31080, Note_on_c, 4, 57, 100
6, 31080, Note_on_c, 4, 66, 100
6, 31200, Note_on_c, 4, 66, 0
6, 31200, Note_on_c, 4, 57, 0
6, 31200, Note_on_c, 4, 67, 100
6, 31200, Note_on_c, 4, 55, 100
6, 31320, Note_on_c, 4, 55, 0
6, 31320, Note_on_c, 4, 67, 0
6, 31320, Note_on_c, 4, 62, 100
6, 31320, Note_on_c, 4, 71, 100
6, 31320, Note_on_c, 4, 55, 100
6, 31440, Note_on_c, 4, 55, 0
6, 31440, Note_on_c, 4, 71, 0
6, 31440, Note_on_c, 4, 62, 0
6, 31440, Note_on_c, 4, 55, 100
6, 31560, Note_on_c, 4, 55, 0
6, 31560, Note_on_c, 4, 79, 100
6, 31560, Note_on_c, 4, 71, 100
6, 31560, Note_on_c, 4, 62, 100
6, 31680, Note_on_c, 4, 62, 0
6, 31680, Note_on_c, 4, 71, 0
6, 31680, Note_on_c, 4, 79, 0
6, 31680, Note_on_c, 4, 55, 100
6, 31800, Note_on_c, 4, 55, 0
6, 31800, Note_on_c, 4, 62, 100
6, 31800, Note_on_c, 4, 71, 100
6, 31800, Note_on_c, 4, 83, 100
6, 31920, Note_on_c, 4, 83, 0
6, 31920, Note_on_c, 4, 71, 0
6, 31920, Note_on_c, 4, 62, 0
6, 32160, Note_on_c, 4, 64, 100
6, 32400, Note_on_c, 4, 64, 0
6, 33000, Note_on_c, 4, 64, 42
6, 33060, Note_on_c, 4, 64, 0
6, 33120, Note_on_c, 4, 62, 42
6, 33180, Note_on_c, 4, 62, 0
6, 33240, Note_on_c, 4, 64, 42
6, 33300, Note_on_c, 4, 64, 0
6, 33360, Note_on_c, 4, 60, 42
6, 33420, Note_on_c, 4, 60, 0
6, 33480, Note_on_c, 4, 72, 42
6, 33540, Note_on_c, 4, 72, 0
6, 33600, Note_on_c, 4, 64, 100
6, 33600, Note_on_c, 4, 74, 100
6, 33720, Note_on_c, 4, 74, 0
6, 33720, Note_on_c, 4, 64, 0
6, 33720, Note_on_c, 4, 57, 100
6, 33720, Note_on_c, 4, 64, 100
6, 33720, Note_on_c, 4, 72, 100
6, 33840, Note_on_c, 4, 72, 0
6, 33840, Note_on_c, 4, 64, 0
6, 33840, Note_on_c, 4, 57, 0
6, 34080, Note_on_c, 4, 62, 100
6, 34320, Note_on_c, 4, 62, 0
6, 34920, Note_on_c, 4, 62, 42
6, 34980, Note_on_c, 4, 62, 0
6, 35040, Note_on_c, 4, 60, 42
6, 35100, Note_on_c, 4, 60, 0
6, 35160, Note_on_c, 4, 62, 42
6, 35220, Note_on_c, 4, 62, 0
6, 35280, Note_on_c, 4, 59, 42
6, 35340, Note_on_c, 4, 59, 0
6, 35400, Note_on_c, 4, 71, 42
6, 35460, Note_on_c, 4, 71, 0
6, 35520, Note_on_c, 4, 62, 100
6, 35520, Note_on_c, 4, 72, 100
6, 35640, Note_on_c, 4, 72, 0
6, 35640, Note_on_c, 4, 62, 0
6, 35640, Note_on_c, 4, 55, 100
6, 35640, Note_on_c, 4, 62, 100
6, 35640, Note_on_c, 4, 71, 100
6, 35760, Note_on_c, 4, 71, 0
6, 35760, Note_on_c, 4, 62, 0
6, 35760, Note_on_c, 4, 55, 0
6, 36000, Note_on_c, 4, 60, 100
6, 36240, Note_on_c, 4, 60, 0
6, 36840, Note_on_c, 4, 60, 45
6, 36900, Note_on_c, 4, 60, 0
6, 36960, Note_on_c, 4, 58, 45
6, 37020, Note_on_c, 4, 58, 0
6, 37080, Note_on_c, 4, 60, 46
6, 37140, Note_on_c, 4, 60, 0
6, 37200, Note_on_c, 4, 57, 46
6, 37260, Note_on_c, 4, 57, 0
6, 37320, Note_on_c, 4, 69, 46
6, 37380, Note_on_c, 4, 69, 0
6, 37440, Note_on_c, 4, 70, 47
6, 37500, Note_on_c, 4, 70, 0
6, 37560, Note_on_c, 4, 64, 47
6, 37620, Note_on_c, 4, 64, 0
6, 37680, Note_on_c, 4, 67, 47
6, 37740, Note_on_c, 4, 67, 0
6, 37800, Note_on_c, 4, 76, 47
6, 37860, Note_on_c, 4, 76, 0
6, 37920, Note_on_c, 4, 81, 100
6, 37950, Note_on_c, 4, 81, 0
6, 37950, Note_on_c, 4, 81, 100
6, 37980, Note_on_c, 4, 81, 0
6, 37980, Note_on_c, 4, 81, 100
6, 38010, Note_on_c, 4, 81, 0
6, 38010, Note_on_c, 4, 81, 100
6, 38040, Note_on_c, 4, 81, 0
6, 38040, Note_on_c, 4, 81, 100
6, 38070, Note_on_c, 4, 81, 0
6, 38070, Note_on_c, 4, 81, 100
6, 38100, Note_on_c, 4, 81, 0
6, 38100, Note_on_c, 4, 81, 100
6, 38130, Note_on_c, 4, 81, 0
6, 38130, Note_on_c, 4, 81, 100
6, 38160, Note_on_c, 4, 81, 0
6, 38160, Note_on_c, 4, 79, 100
6, 38190, Note_on_c, 4, 79, 0
6, 38190, Note_on_c, 4, 79, 100
6, 38220, Note_on_c, 4, 79, 0
6, 38220, Note_on_c, 4, 79, 100
6, 38250, Note_on_c, 4, 79, 0
6, 38250, Note_on_c, 4, 79, 100
6, 38280, Note_on_c, 4, 79, 0
6, 38280, Note_on_c, 4, 79, 100
6, 38310, Note_on_c, 4, 79, 0
6, 38310, Note_on_c, 4, 79, 100
6, 38340, Note_on_c, 4, 79, 0
6, 38340, Note_on_c, 4, 79, 100
6, 38370, Note_on_c, 4, 79, 0
6, 38370, Note_on_c, 4, 79, 100
6, 38400, Note_on_c, 4, 79, 0
6, 38400, Note_on_c, 4, 81, 100
6, 38430, Note_on_c, 4, 81, 0
6, 38430, Note_on_c, 4, 81, 100
6, 38460, Note_on_c, 4, 81, 0
6, 38460, Note_on_c, 4, 81, 100
6, 38490, Note_on_c, 4, 81, 0
6, 38490, Note_on_c, 4, 81, 100
6, 38520, Note_on_c, 4, 81, 0
6, 38520, Note_on_c, 4, 81, 100
6, 38550, Note_on_c, 4, 81, 0
6, 38550, Note_on_c, 4, 81, 100
6, 38580, Note_on_c, 4, 81, 0
6, 38580, Note_on_c, 4, 81, 100
6, 38610, Note_on_c, 4, 81, 0
6, 38610, Note_on_c, 4, 81, 100
6, 38640, Note_on_c, 4, 81, 0
6, 38640, Note_on_c, 4, 79, 100
6, 38670, Note_on_c, 4, 79, 0
6, 38670, Note_on_c, 4, 79, 100
6, 38700, Note_on_c, 4, 79, 0
6, 38700, Note_on_c, 4, 79, 100
6, 38730, Note_on_c, 4, 79, 0
6, 38730, Note_on_c, 4, 79, 100
6, 38760, Note_on_c, 4, 79, 0
6, 38760, Note_on_c, 4, 79, 100
6, 38790, Note_on_c, 4, 79, 0
6, 38790, Note_on_c, 4, 79, 100
6, 38820, Note_on_c, 4, 79, 0
6, 38820, Note_on_c, 4, 79, 100
6, 38850, Note_on_c, 4, 79, 0
6, 38850, Note_on_c, 4, 79, 100
6, 38880, Note_on_c, 4, 79, 0
6, 38880, Note_on_c, 4, 77, 100
6, 38895, Note_on_c, 4, 77, 0
6, 38895, Note_on_c, 4, 79, 100
6, 38910, Note_on_c, 4, 79, 0
6, 38910, Note_on_c, 4, 81, 100
6, 39000, Note_on_c, 4, 81, 0
6, 39000, Note_on_c, 4, 81, 100
6, 39060, Note_on_c, 4, 81, 0
6, 39060, Note_on_c, 4, 81, 100
6, 39120, Note_on_c, 4, 81, 0
6, 39120, Note_on_c, 4, 74, 100
6, 39135, Note_on_c, 4, 74, 0
6, 39135, Note_on_c, 4, 76, 100
6, 39150, Note_on_c, 4, 76, 0
6, 39150, Note_on_c, 4, 77, 100
6, 39240, Note_on_c, 4, 77, 0
6, 39240, Note_on_c, 4, 77, 100
6, 39300, Note_on_c, 4, 77, 0
6, 39300, Note_on_c, 4, 77, 100
6, 39360, Note_on_c, 4, 77, 0
6, 39360, Note_on_c, 4, 76, 100
6, 39375, Note_on_c, 4, 76, 0
6, 39375, Note_on_c, 4, 77, 100
6, 39390, Note_on_c, 4, 77, 0
6, 39390, Note_on_c, 4, 79, 100
6, 39480, Note_on_c, 4, 79, 0
6, 39480, Note_on_c, 4, 79, 100
6, 39540, Note_on_c, 4, 79, 0
6, 39540, Note_on_c, 4, 79, 100
6, 39600, Note_on_c, 4, 79, 0
6, 39600, Note_on_c, 4, 72, 100
6, 39615, Note_on_c, 4, 72, 0
6, 39615, Note_on_c, 4, 74, 100
6, 39630, Note_on_c, 4, 74, 0
6, 39630, Note_on_c, 4, 76, 100
6, 39720, Note_on_c, 4, 76, 0
6, 39720, Note_on_c, 4, 76, 100
6, 39780, Note_on_c, 4, 76, 0
6, 39780, Note_on_c, 4, 76, 100
6, 39840, Note_on_c, 4, 76, 0
6, 39840, Note_on_c, 4, 69, 100
6, 39900, Note_on_c, 4, 69, 0
6, 39900, Note_on_c, 4, 69, 100
6, 39960, Note_on_c, 4, 69, 0
6, 39960, Note_on_c, 4, 67, 100
6, 40020, Note_on_c, 4, 67, 0
6, 40020, Note_on_c, 4, 65, 100
6, 40080, Note_on_c, 4, 65, 0
6, 40080, Note_on_c, 4, 64, 100
6, 40140, Note_on_c, 4, 64, 0
6, 40140, Note_on_c, 4, 65, 100
6, 40200, Note_on_c, 4, 65, 0
6, 40200, Note_on_c, 4, 64, 100
6, 40260, Note_on_c, 4, 64, 0
6, 40260, Note_on_c, 4, 62, 100
6, 40320, Note_on_c, 4, 62, 0
6, 40320, Note_on_c, 4, 60, 100
6, 40440, Note_on_c, 4, 60, 0
6, 40440, Note_on_c, 4, 59, 100
6, 40530, Note_on_c, 4, 59, 0
6, 40530, Note_on_c, 4, 57, 100
6, 40560, Note_on_c, 4, 57, 0
6, 40560, Note_on_c, 4, 55, 100
6, 40680, Note_on_c, 4, 55, 0
6, 40800, Note_on_c, 4, 69, 45
6, 40815, Note_on_c, 4, 69, 0
6, 40815, Note_on_c, 4, 67, 45
6, 40830, Note_on_c, 4, 67, 0
6, 40830, Note_on_c, 4, 65, 45
6, 40920, Note_on_c, 4, 65, 0
6, 40920, Note_on_c, 4, 65, 45
6, 40980, Note_on_c, 4, 65, 0
6, 40980, Note_on_c, 4, 65, 45
6, 41040, Note_on_c, 4, 65, 0
6, 41040, Note_on_c, 4, 65, 45
6, 41055, Note_on_c, 4, 65, 0
6, 41055, Note_on_c, 4, 64, 45
6, 41070, Note_on_c, 4, 64, 0
6, 41070, Note_on_c, 4, 62, 45
6, 41160, Note_on_c, 4, 62, 0
6, 41160, Note_on_c, 4, 62, 45
6, 41220, Note_on_c, 4, 62, 0
6, 41220, Note_on_c, 4, 62, 44
6, 41280, Note_on_c, 4, 62, 0
6, 41280, Note_on_c, 4, 67, 44
6, 41295, Note_on_c, 4, 67, 0
6, 41295, Note_on_c, 4, 65, 44
6, 41310, Note_on_c, 4, 65, 0
6, 41310, Note_on_c, 4, 64, 44
6, 41400, Note_on_c, 4, 64, 0
6, 41400, Note_on_c, 4, 64, 44
6, 41460, Note_on_c, 4, 64, 0
6, 41460, Note_on_c, 4, 64, 44
6, 41520, Note_on_c, 4, 64, 0
6, 41520, Note_on_c, 4, 64, 44
6, 41535, Note_on_c, 4, 64, 0
6, 41535, Note_on_c, 4, 62, 44
6, 41550, Note_on_c, 4, 62, 0
6, 41550, Note_on_c, 4, 60, 44
6, 41640, Note_on_c, 4, 60, 0
6, 41640, Note_on_c, 4, 60, 44
6, 41700, Note_on_c, 4, 60, 0
6, 41700, Note_on_c, 4, 60, 44
6, 41760, Note_on_c, 4, 60, 0
6, 41760, Note_on_c, 4, 69, 44
6, 41790, Note_on_c, 4, 69, 0
6, 41820, Note_on_c, 4, 65, 43
6, 41850, Note_on_c, 4, 65, 0
6, 41880, Note_on_c, 4, 64, 43
6, 41910, Note_on_c, 4, 64, 0
6, 41940, Note_on_c, 4, 62, 43
6, 41970, Note_on_c, 4, 62, 0
6, 42000, Note_on_c, 4, 60, 43
6, 42030, Note_on_c, 4, 60, 0
6, 42060, Note_on_c, 4, 62, 43
6, 42090, Note_on_c, 4, 62, 0
6, 42120, Note_on_c, 4, 60, 43
6, 42150, Note_on_c, 4, 60, 0
6, 42180, Note_on_c, 4, 59, 43
6, 42210, Note_on_c, 4, 59, 0
6, 42240, Note_on_c, 4, 60, 100
6, 42270, Note_on_c, 4, 60, 0
6, 42270, Note_on_c, 4, 60, 100
6, 42300, Note_on_c, 4, 60, 0
6, 42300, Note_on_c, 4, 60, 100
6, 42330, Note_on_c, 4, 60, 0
6, 42330, Note_on_c, 4, 60, 100
6, 42360, Note_on_c, 4, 60, 0
6, 42360, Note_on_c, 4, 60, 100
6, 42390, Note_on_c, 4, 60, 0
6, 42390, Note_on_c, 4, 60, 100
6, 42420, Note_on_c, 4, 60, 0
6, 42420, Note_on_c, 4, 60, 100
6, 42450, Note_on_c, 4, 60, 0
6, 42450, Note_on_c, 4, 60, 100
6, 42480, Note_on_c, 4, 60, 0
6, 42480, Note_on_c, 4, 56, 100
6, 42510, Note_on_c, 4, 56, 0
6, 42510, Note_on_c, 4, 56, 100
6, 42540, Note_on_c, 4, 56, 0
6, 42540, Note_on_c, 4, 56, 100
6, 42570, Note_on_c, 4, 56, 0
6, 42570, Note_on_c, 4, 56, 100
6, 42600, Note_on_c, 4, 56, 0
6, 42600, Note_on_c, 4, 56, 100
6, 42630, Note_on_c, 4, 56, 0
6, 42630, Note_on_c, 4, 56, 101
6, 42660, Note_on_c, 4, 56, 0
6, 42660, Note_on_c, 4, 56, 101
6, 42690, Note_on_c, 4, 56, 0
6, 42690, Note_on_c, 4, 56, 101
6, 42720, Note_on_c, 4, 56, 0
6, 42720, Note_on_c, 4, 57, 101
6, 42750, Note_on_c, 4, 57, 0
6, 42750, Note_on_c, 4, 57, 101
6, 42780, Note_on_c, 4, 57, 0
6, 42780, Note_on_c, 4, 57, 102
6, 42810, Note_on_c, 4, 57, 0
6, 42810, Note_on_c, 4, 57, 103
6, 42840, Note_on_c, 4, 57, 0
6, 42840, Note_on_c, 4, 57, 104
6, 42870, Note_on_c, 4, 57, 0
6, 42870, Note_on_c, 4, 57, 104
6, 42900, Note_on_c, 4, 57, 0
6, 42900, Note_on_c, 4, 57, 105
6, 42930, Note_on_c, 4, 57, 0
6, 42930, Note_on_c, 4, 57, 105
6, 42960, Note_on_c, 4, 57, 0
6, 42960, Note_on_c, 4, 64, 105
6, 42990, Note_on_c, 4, 64, 0
6, 42990, Note_on_c, 4, 64, 106
6, 43020, Note_on_c, 4, 64, 0
6, 43020, Note_on_c, 4, 64, 106
6, 43050, Note_on_c, 4, 64, 0
6, 43050, Note_on_c, 4, 64, 107
6, 43080, Note_on_c, 4, 64, 0
6, 43080, Note_on_c, 4, 64, 107
6, 43110, Note_on_c, 4, 64, 0
6, 43110, Note_on_c, 4, 64, 108
6, 43140, Note_on_c, 4, 64, 0
6, 43140, Note_on_c, 4, 64, 108
6, 43170, Note_on_c, 4, 64, 0
6, 43170, Note_on_c, 4, 64, 109
6, 43200, Note_on_c, 4, 64, 0
6, 43200, Note_on_c, 4, 65, 109
6, 43230, Note_on_c, 4, 65, 0
6, 43230, Note_on_c, 4, 65, 109
6, 43260, Note_on_c, 4, 65, 0
6, 43260, Note_on_c, 4, 65, 110
6, 43290, Note_on_c, 4, 65, 0
6, 43290, Note_on_c, 4, 65, 110
6, 43320, Note_on_c, 4, 65, 0
6, 43320, Note_on_c, 4, 65, 111
6, 43350, Note_on_c, 4, 65, 0
6, 43350, Note_on_c, 4, 65, 111
6, 43380, Note_on_c, 4, 65, 0
6, 43380, Note_on_c, 4, 65, 111
6, 43410, Note_on_c, 4, 65, 0
6, 43410, Note_on_c, 4, 65, 112
6, 43440, Note_on_c, 4, 65, 0
6, 43440, Note_on_c, 4, 59, 112
6, 43470, Note_on_c, 4, 59, 0
6, 43470, Note_on_c, 4, 59, 113
6, 43500, Note_on_c, 4, 59, 0
6, 43500, Note_on_c, 4, 59, 113
6, 43530, Note_on_c, 4, 59, 0
6, 43530, Note_on_c, 4, 59, 113
6, 43560, Note_on_c, 4, 59, 0
6, 43560, Note_on_c, 4, 59, 113
6, 43590, Note_on_c, 4, 59, 0
6, 43590, Note_on_c, 4, 59, 113
6, 43620, Note_on_c, 4, 59, 0
6, 43620, Note_on_c, 4, 59, 113
6, 43650, Note_on_c, 4, 59, 0
6, 43650, Note_on_c, 4, 59, 113
6, 43680, Note_on_c, 4, 59, 0
6, 43680, Note_on_c, 4, 60, 113
6, 43710, Note_on_c, 4, 60, 0
6, 43710, Note_on_c, 4, 60, 114
6, 43740, Note_on_c, 4, 60, 0
6, 43740, Note_on_c, 4, 60, 114
6, 43770, Note_on_c, 4, 60, 0
6, 43770, Note_on_c, 4, 60, 115
6, 43800, Note_on_c, 4, 60, 0
6, 43800, Note_on_c, 4, 60, 116
6, 43830, Note_on_c, 4, 60, 0
6, 43830, Note_on_c, 4, 60, 116
6, 43860, Note_on_c, 4, 60, 0
6, 43860, Note_on_c, 4, 60, 116
6, 43890, Note_on_c, 4, 60, 0
6, 43890, Note_on_c, 4, 60, 116
6, 43920, Note_on_c, 4, 60, 0
6, 43920, Note_on_c, 4, 56, 116
6, 43950, Note_on_c, 4, 56, 0
6, 43950, Note_on_c, 4, 56, 117
6, 43980, Note_on_c, 4, 56, 0
6, 43980, Note_on_c, 4, 56, 117
6, 44010, Note_on_c, 4, 56, 0
6, 44010, Note_on_c, 4, 56, 118
6, 44040, Note_on_c, 4, 56, 0
6, 44040, Note_on_c, 4, 56, 118
6, 44070, Note_on_c, 4, 56, 0
6, 44070, Note_on_c, 4, 56, 123
6, 44100, Note_on_c, 4, 56, 0
6, 44100, Note_on_c, 4, 56, 126
6, 44130, Note_on_c, 4, 56, 0
6, 44130, Note_on_c, 4, 56, 127
6, 44160, Note_on_c, 4, 56, 0
6, 44160, Note_on_c, 4, 55, 127
6, 44280, Note_on_c, 4, 55, 0
6, 44460, Note_on_c, 4, 55, 127
6, 44490, Note_on_c, 4, 55, 0
6, 44490, Note_on_c, 4, 59, 127
6, 44520, Note_on_c, 4, 59, 0
6, 44520, Note_on_c, 4, 62, 127
6, 44580, Note_on_c, 4, 62, 0
6, 44580, Note_on_c, 4, 59, 127
6, 44610, Note_on_c, 4, 59, 0
6, 44610, Note_on_c, 4, 62, 127
6, 44640, Note_on_c, 4, 62, 0
6, 44640, Note_on_c, 4, 67, 127
6, 44700, Note_on_c, 4, 67, 0
6, 44700, Note_on_c, 4, 62, 127
6, 44730, Note_on_c, 4, 62, 0
6, 44730, Note_on_c, 4, 67, 127
6, 44760, Note_on_c, 4, 67, 0
6, 44760, Note_on_c, 4, 71, 127
6, 44820, Note_on_c, 4, 71, 0
6, 44820, Note_on_c, 4, 67, 127
6, 44850, Note_on_c, 4, 67, 0
6, 44850, Note_on_c, 4, 71, 127
6, 44880, Note_on_c, 4, 71, 0
6, 44880, Note_on_c, 4, 74, 127
6, 45000, Note_on_c, 4, 74, 0
6, 45000, Note_on_c, 4, 76, 127
6, 45120, Note_on_c, 4, 76, 0
6, 45120, Note_on_c, 4, 74, 127
6, 45240, Note_on_c, 4, 74, 0
6, 45420, Note_on_c, 4, 55, 127
6, 45450, Note_on_c, 4, 55, 0
6, 45450, Note_on_c, 4, 59, 127
6, 45480, Note_on_c, 4, 59, 0
6, 45480, Note_on_c, 4, 62, 127
6, 45540, Note_on_c, 4, 62, 0
6, 45540, Note_on_c, 4, 59, 127
6, 45570, Note_on_c, 4, 59, 0
6, 45570, Note_on_c, 4, 62, 127
6, 45600, Note_on_c, 4, 62, 0
6, 45600, Note_on_c, 4, 67, 127
6, 45660, Note_on_c, 4, 67, 0
6, 45660, Note_on_c, 4, 62, 127
6, 45690, Note_on_c, 4, 62, 0
6, 45690, Note_on_c, 4, 67, 127
6, 45720, Note_on_c, 4, 67, 0
6, 45720, Note_on_c, 4, 71, 127
6, 45780, Note_on_c, 4, 71, 0
6, 45780, Note_on_c, 4, 67, 127
6, 45810, Note_on_c, 4, 67, 0
6, 45810, Note_on_c, 4, 71, 127
6, 45840, Note_on_c, 4, 71, 0
6, 45840, Note_on_c, 4, 74, 127
6, 45960, Note_on_c, 4, 74, 0
6, 45960, Note_on_c, 4, 76, 127
6, 46080, Note_on_c, 4, 76, 0
6, 46080, Note_on_c, 4, 74, 127
6, 46200, Note_on_c, 4, 74, 0
6, 46290, Note_on_c, 4, 83, 127
6, 46320, Note_on_c, 4, 83, 0
6, 46320, Note_on_c, 4, 83, 127
6, 46440, Note_on_c, 4, 83, 0
6, 46530, Note_on_c, 4, 55, 127
6, 46560, Note_on_c, 4, 55, 0
6, 46560, Note_on_c, 4, 55, 127
6, 46680, Note_on_c, 4, 55, 0
6, 46920, Note_on_c, 4, 67, 46
6, 46980, Note_on_c, 4, 67, 0
6, 47040, Note_on_c, 4, 65, 43
6, 47100, Note_on_c, 4, 65, 0
6, 47160, Note_on_c, 4, 67, 46
6, 47220, Note_on_c, 4, 67, 0
6, 47280, Note_on_c, 4, 64, 46
6, 47340, Note_on_c, 4, 64, 0
6, 47400, Note_on_c, 4, 67, 46
6, 47460, Note_on_c, 4, 67, 0
6, 47520, Note_on_c, 4, 62, 46
6, 47580, Note_on_c, 4, 62, 0
6, 47640, Note_on_c, 4, 67, 46
6, 47700, Note_on_c, 4, 67, 0
6, 47760, Note_on_c, 4, 60, 46
6, 47820, Note_on_c, 4, 60, 0
6, 47880, Note_on_c, 4, 67, 46
6, 47940, Note_on_c, 4, 67, 0
6, 48000, Note_on_c, 4, 59, 100
6, 48015, Note_on_c, 4, 59, 0
6, 48015, Note_on_c, 4, 60, 100
6, 48030, Note_on_c, 4, 60, 0
6, 48030, Note_on_c, 4, 62, 100
6, 48120, Note_on_c, 4, 62, 0
6, 48120, Note_on_c, 4, 55, 100
6, 48120, Note_on_c, 4, 62, 100
6, 48150, Note_on_c, 4, 62, 0
6, 48150, Note_on_c, 4, 55, 0
6, 48180, Note_on_c, 4, 55, 100
6, 48180, Note_on_c, 4, 62, 100
6, 48210, Note_on_c, 4, 62, 0
6, 48210, Note_on_c, 4, 55, 0
6, 48240, Note_on_c, 4, 55, 100
6, 48240, Note_on_c, 4, 62, 100
6, 48360, Note_on_c, 4, 62, 0
6, 48360, Note_on_c, 4, 55, 0
6, 48360, Note_on_c, 4, 67, 46
6, 48420, Note_on_c, 4, 67, 0
6, 48480, Note_on_c, 4, 65, 43
6, 48540, Note_on_c, 4, 65, 0
6, 48600, Note_on_c, 4, 67, 46
6, 48660, Note_on_c, 4, 67, 0
6, 48720, Note_on_c, 4, 64, 46
6, 48780, Note_on_c, 4, 64, 0
6, 48840, Note_on_c, 4, 67, 46
6, 48900, Note_on_c, 4, 67, 0
6, 48960, Note_on_c, 4, 62, 46
6, 49020, Note_on_c, 4, 62, 0
6, 49080, Note_on_c, 4, 67, 46
6, 49140, Note_on_c, 4, 67, 0
6, 49200, Note_on_c, 4, 60, 46
6, 49260, Note_on_c, 4, 60, 0
6, 49320, Note_on_c, 4, 67, 46
6, 49380, Note_on_c, 4, 67, 0
6, 49440, Note_on_c, 4, 59, 100
6, 49455, Note_on_c, 4, 59, 0
6, 49455, Note_on_c, 4, 60, 100
6, 49470, Note_on_c, 4, 60, 0
6, 49470, Note_on_c, 4, 62, 100
6, 49560, Note_on_c, 4, 62, 0
6, 49560, Note_on_c, 4, 55, 100
6, 49560, Note_on_c, 4, 62, 100
6, 49590, Note_on_c, 4, 62, 0
6, 49590, Note_on_c, 4, 55, 0
6, 49620, Note_on_c, 4, 55, 100
6, 49620, Note_on_c, 4, 62, 100
6, 49650, Note_on_c, 4, 62, 0
6, 49650, Note_on_c, 4, 55, 0
6, 49680, Note_on_c, 4, 55, 100
6, 49680, Note_on_c, 4, 62, 100
6, 49800, Note_on_c, 4, 62, 0
6, 49800, Note_on_c, 4, 55, 0
6, 51120, Note_on_c, 4, 76, 43
6, 51240, Note_on_c, 4, 76, 0
6, 51240, Note_on_c, 4, 74, 42
6, 51360, Note_on_c, 4, 74, 0
6, 51360, Note_on_c, 4, 72, 100
6, 51360, Note_on_c, 4, 72, 40
6, 51480, Note_on_c, 4, 72, 0
6, 51600, Note_on_c, 4, 72, 0
6, 51600, Note_on_c, 4, 71, 100
6, 51600, Note_on_c, 4, 71, 40
6, 51720, Note_on_c, 4, 71, 0
6, 51840, Note_on_c, 4, 71, 0
6, 51840, Note_on_c, 4, 69, 41
6, 52020, Note_on_c, 4, 69, 0
6, 52020, Note_on_c, 4, 65, 41
6, 52080, Note_on_c, 4, 65, 0
6, 52080, Note_on_c, 4, 64, 41
6, 52200, Note_on_c, 4, 64, 0
6, 52200, Note_on_c, 4, 62, 41
6, 52320, Note_on_c, 4, 62, 0
6, 52320, Note_on_c, 4, 64, 41
6, 52440, Note_on_c, 4, 64, 0
6, 53520, Note_on_c, 4, 76, 43
6, 53640, Note_on_c, 4, 76, 0
6, 53640, Note_on_c, 4, 74, 42
6, 53760, Note_on_c, 4, 74, 0
6, 53760, Note_on_c, 4, 72, 100
6, 53760, Note_on_c, 4, 72, 40
6, 53880, Note_on_c, 4, 72, 0
6, 54000, Note_on_c, 4, 72, 0
6, 54000, Note_on_c, 4, 71, 100
6, 54000, Note_on_c, 4, 71, 40
6, 54120, Note_on_c, 4, 71, 0
6, 54240, Note_on_c, 4, 71, 0
6, 54240, Note_on_c, 4, 69, 41
6, 54420, Note_on_c, 4, 69, 0
6, 54420, Note_on_c, 4, 65, 41
6, 54480, Note_on_c, 4, 65, 0
6, 54480, Note_on_c, 4, 64, 41
6, 54600, Note_on_c, 4, 64, 0
6, 54600, Note_on_c, 4, 62, 41
6, 54720, Note_on_c, 4, 62, 0
6, 54720, Note_on_c, 4, 64, 127
6, 54750, Note_on_c, 4, 64, 0
6, 54750, Note_on_c, 4, 64, 127
6, 54780, Note_on_c, 4, 64, 0
6, 54780, Note_on_c, 4, 64, 127
6, 54810, Note_on_c, 4, 64, 0
6, 54810, Note_on_c, 4, 64, 127
6, 54840, Note_on_c, 4, 64, 0
6, 54840, Note_on_c, 4, 64, 127
6, 54870, Note_on_c, 4, 64, 0
6, 54870, Note_on_c, 4, 64, 127
6, 54900, Note_on_c, 4, 64, 0
6, 54900, Note_on_c, 4, 64, 127
6, 54930, Note_on_c, 4, 64, 0
6, 54930, Note_on_c, 4, 64, 127
6, 54960, Note_on_c, 4, 64, 0
6, 54960, Note_on_c, 4, 67, 127
6, 54990, Note_on_c, 4, 67, 0
6, 54990, Note_on_c, 4, 67, 127
6, 55020, Note_on_c, 4, 67, 0
6, 55020, Note_on_c, 4, 67, 127
6, 55050, Note_on_c, 4, 67, 0
6, 55050, Note_on_c, 4, 67, 127
6, 55080, Note_on_c, 4, 67, 0
6, 55080, Note_on_c, 4, 72, 127
6, 55110, Note_on_c, 4, 72, 0
6, 55110, Note_on_c, 4, 72, 127
6, 55140, Note_on_c, 4, 72, 0
6, 55140, Note_on_c, 4, 72, 127
6, 55170, Note_on_c, 4, 72, 0
6, 55170, Note_on_c, 4, 72, 127
6, 55200, Note_on_c, 4, 72, 0
6, 55200, Note_on_c, 4, 71, 127
6, 55230, Note_on_c, 4, 71, 0
6, 55230, Note_on_c, 4, 71, 127
6, 55260, Note_on_c, 4, 71, 0
6, 55260, Note_on_c, 4, 71, 127
6, 55290, Note_on_c, 4, 71, 0
6, 55290, Note_on_c, 4, 71, 127
6, 55320, Note_on_c, 4, 71, 0
6, 55320, Note_on_c, 4, 67, 127
6, 55350, Note_on_c, 4, 67, 0
6, 55350, Note_on_c, 4, 67, 127
6, 55380, Note_on_c, 4, 67, 0
6, 55380, Note_on_c, 4, 67, 127
6, 55410, Note_on_c, 4, 67, 0
6, 55410, Note_on_c, 4, 67, 127
6, 55440, Note_on_c, 4, 67, 0
6, 55440, Note_on_c, 4, 65, 127
6, 55470, Note_on_c, 4, 65, 0
6, 55470, Note_on_c, 4, 65, 127
6, 55500, Note_on_c, 4, 65, 0
6, 55500, Note_on_c, 4, 65, 127
6, 55530, Note_on_c, 4, 65, 0
6, 55530, Note_on_c, 4, 65, 127
6, 55560, Note_on_c, 4, 65, 0
6, 55560, Note_on_c, 4, 62, 127
6, 55590, Note_on_c, 4, 62, 0
6, 55590, Note_on_c, 4, 62, 127
6, 55620, Note_on_c, 4, 62, 0
6, 55620, Note_on_c, 4, 62, 127
6, 55650, Note_on_c, 4, 62, 0
6, 55650, Note_on_c, 4, 62, 127
6, 55680, Note_on_c, 4, 62, 0
6, 55680, Note_on_c, 4, 64, 127
6, 55710, Note_on_c, 4, 64, 0
6, 55710, Note_on_c, 4, 64, 127
6, 55740, Note_on_c, 4, 64, 0
6, 55740, Note_on_c, 4, 64, 127
6, 55770, Note_on_c, 4, 64, 0
6, 55770, Note_on_c, 4, 64, 127
6, 55800, Note_on_c, 4, 64, 0
6, 55800, Note_on_c, 4, 72, 127
6, 55830, Note_on_c, 4, 72, 0
6, 55830, Note_on_c, 4, 72, 127
6, 55860, Note_on_c, 4, 72, 0
6, 55860, Note_on_c, 4, 72, 127
6, 55890, Note_on_c, 4, 72, 0
6, 55890, Note_on_c, 4, 72, 127
6, 55920, Note_on_c, 4, 72, 0
6, 55920, Note_on_c, 4, 76, 127
6, 55950, Note_on_c, 4, 76, 0
6, 55950, Note_on_c, 4, 76, 127
6, 55980, Note_on_c, 4, 76, 0
6, 55980, Note_on_c, 4, 76, 127
6, 56010, Note_on_c, 4, 76, 0
6, 56010, Note_on_c, 4, 76, 127
6, 56040, Note_on_c, 4, 76, 0
6, 56040, Note_on_c, 4, 79, 127
6, 56070, Note_on_c, 4, 79, 0
6, 56070, Note_on_c, 4, 79, 127
6, 56100, Note_on_c, 4, 79, 0
6, 56100, Note_on_c, 4, 79, 127
6, 56130, Note_on_c, 4, 79, 0
6, 56130, Note_on_c, 4, 79, 127
6, 56160, Note_on_c, 4, 79, 0
6, 56160, Note_on_c, 4, 77, 127
6, 56190, Note_on_c, 4, 77, 0
6, 56190, Note_on_c, 4, 77, 127
6, 56220, Note_on_c, 4, 77, 0
6, 56220, Note_on_c, 4, 77, 127
6, 56250, Note_on_c, 4, 77, 0
6, 56250, Note_on_c, 4, 77, 127
6, 56280, Note_on_c, 4, 77, 0
6, 56280, Note_on_c, 4, 74, 127
6, 56310, Note_on_c, 4, 74, 0
6, 56310, Note_on_c, 4, 74, 127
6, 56340, Note_on_c, 4, 74, 0
6, 56340, Note_on_c, 4, 74, 127
6, 56370, Note_on_c, 4, 74, 0
6, 56370, Note_on_c, 4, 74, 127
6, 56400, Note_on_c, 4, 74, 0
6, 56400, Note_on_c, 4, 71, 127
6, 56430, Note_on_c, 4, 71, 0
6, 56430, Note_on_c, 4, 71, 127
6, 56460, Note_on_c, 4, 71, 0
6, 56460, Note_on_c, 4, 71, 127
6, 56490, Note_on_c, 4, 71, 0
6, 56490, Note_on_c, 4, 71, 127
6, 56520, Note_on_c, 4, 71, 0
6, 56520, Note_on_c, 4, 65, 127
6, 56550, Note_on_c, 4, 65, 0
6, 56550, Note_on_c, 4, 65, 127
6, 56580, Note_on_c, 4, 65, 0
6, 56580, Note_on_c, 4, 65, 127
6, 56610, Note_on_c, 4, 65, 0
6, 56610, Note_on_c, 4, 65, 127
6, 56640, Note_on_c, 4, 65, 0
6, 56640, Note_on_c, 4, 64, 127
6, 56760, Note_on_c, 4, 64, 0
6, 56760, Note_on_c, 4, 76, 127
6, 56850, Note_on_c, 4, 76, 0
6, 56850, Note_on_c, 4, 76, 127
6, 56880, Note_on_c, 4, 76, 0
6, 56880, Note_on_c, 4, 76, 127
6, 57000, Note_on_c, 4, 76, 0
6, 57000, Note_on_c, 4, 72, 127
6, 57030, Note_on_c, 4, 72, 0
6, 57030, Note_on_c, 4, 71, 127
6, 57060, Note_on_c, 4, 71, 0
6, 57060, Note_on_c, 4, 72, 127
6, 57090, Note_on_c, 4, 72, 0
6, 57090, Note_on_c, 4, 74, 127
6, 57120, Note_on_c, 4, 74, 0
6, 57120, Note_on_c, 4, 72, 127
6, 57240, Note_on_c, 4, 72, 0
6, 57240, Note_on_c, 4, 76, 127
6, 57330, Note_on_c, 4, 76, 0
6, 57330, Note_on_c, 4, 76, 127
6, 57360, Note_on_c, 4, 76, 0
6, 57360, Note_on_c, 4, 76, 127
6, 57480, Note_on_c, 4, 76, 0
6, 57480, Note_on_c, 4, 72, 127
6, 57510, Note_on_c, 4, 72, 0
6, 57510, Note_on_c, 4, 71, 127
6, 57540, Note_on_c, 4, 71, 0
6, 57540, Note_on_c, 4, 72, 127
6, 57570, Note_on_c, 4, 72, 0
6, 57570, Note_on_c, 4, 74, 127
6, 57600, Note_on_c, 4, 74, 0
6, 57600, Note_on_c, 4, 72, 127
6, 57720, Note_on_c, 4, 72, 0
6, 57720, Note_on_c, 4, 79, 127
6, 57810, Note_on_c, 4, 79, 0
6, 57810, Note_on_c, 4, 79, 127
6, 57840, Note_on_c, 4, 79, 0
6, 57840, Note_on_c, 4, 79, 127
6, 57960, Note_on_c, 4, 79, 0
6, 57960, Note_on_c, 4, 76, 127
6, 57990, Note_on_c, 4, 76, 0
6, 57990, Note_on_c, 4, 77, 127
6, 58020, Note_on_c, 4, 77, 0
6, 58020, Note_on_c, 4, 79, 127
6, 58050, Note_on_c, 4, 79, 0
6, 58050, Note_on_c, 4, 76, 127
6, 58080, Note_on_c, 4, 76, 0
6, 58080, Note_on_c, 4, 77, 127
6, 58200, Note_on_c, 4, 77, 0
6, 58200, Note_on_c, 4, 77, 127
6, 58320, Note_on_c, 4, 77, 0
6, 58320, Note_on_c, 4, 76, 127
6, 58440, Note_on_c, 4, 76, 0
6, 58440, Note_on_c, 4, 74, 127
6, 58560, Note_on_c, 4, 74, 0
6, 58560, Note_on_c, 4, 72, 127
6, 58680, Note_on_c, 4, 72, 0
6, 58680, Note_on_c, 4, 76, 127
6, 58770, Note_on_c, 4, 76, 0
6, 58770, Note_on_c, 4, 76, 127
6, 58800, Note_on_c, 4, 76, 0
6, 58800, Note_on_c, 4, 76, 127
6, 58920, Note_on_c, 4, 76, 0
6, 58920, Note_on_c, 4, 72, 127
6, 58950, Note_on_c, 4, 72, 0
6, 58950, Note_on_c, 4, 71, 127
6, 58980, Note_on_c, 4, 71, 0
6, 58980, Note_on_c, 4, 72, 127
6, 59010, Note_on_c, 4, 72, 0
6, 59010, Note_on_c, 4, 74, 127
6, 59040, Note_on_c, 4, 74, 0
6, 59040, Note_on_c, 4, 72, 127
6, 59160, Note_on_c, 4, 72, 0
6, 59160, Note_on_c, 4, 76, 127
6, 59250, Note_on_c, 4, 76, 0
6, 59250, Note_on_c, 4, 76, 127
6, 59280, Note_on_c, 4, 76, 0
6, 59280, Note_on_c, 4, 76, 127
6, 59400, Note_on_c, 4, 76, 0
6, 59400, Note_on_c, 4, 72, 127
6, 59430, Note_on_c, 4, 72, 0
6, 59430, Note_on_c, 4, 71, 127
6, 59460, Note_on_c, 4, 71, 0
6, 59460, Note_on_c, 4, 72, 127
6, 59490, Note_on_c, 4, 72, 0
6, 59490, Note_on_c, 4, 74, 127
6, 59520, Note_on_c, 4, 74, 0
6, 59520, Note_on_c, 4, 72, 127
6, 59640, Note_on_c, 4, 72, 0
6, 59640, Note_on_c, 4, 76, 127
6, 59730, Note_on_c, 4, 76, 0
6, 59730, Note_on_c, 4, 76, 127
6, 59760, Note_on_c, 4, 76, 0
6, 59760, Note_on_c, 4, 76, 127
6, 59880, Note_on_c, 4, 76, 0
6, 59880, Note_on_c, 4, 72, 127
6, 60000, Note_on_c, 4, 72, 0
6, 60000, Note_on_c, 4, 72, 127
6, 60120, Note_on_c, 4, 72, 0
6, 60120, Note_on_c, 4, 77, 127
6, 60240, Note_on_c, 4, 77, 0
6, 60240, Note_on_c, 4, 76, 127
6, 60360, Note_on_c, 4, 76, 0
6, 60360, Note_on_c, 4, 74, 127
6, 60480, Note_on_c, 4, 74, 0
6, 60480, Note_on_c, 4, 76, 127
6, 60510, Note_on_c, 4, 76, 0
6, 60510, Note_on_c, 4, 76, 127
6, 60540, Note_on_c, 4, 76, 0
6, 60540, Note_on_c, 4, 76, 127
6, 60570, Note_on_c, 4, 76, 0
6, 60570, Note_on_c, 4, 76, 127
6, 60600, Note_on_c, 4, 76, 0
6, 60600, Note_on_c, 4, 76, 127
6, 60630, Note_on_c, 4, 76, 0
6, 60630, Note_on_c, 4, 76, 127
6, 60660, Note_on_c, 4, 76, 0
6, 60660, Note_on_c, 4, 76, 127
6, 60690, Note_on_c, 4, 76, 0
6, 60690, Note_on_c, 4, 76, 127
6, 60720, Note_on_c, 4, 76, 0
6, 60720, Note_on_c, 4, 76, 127
6, 60750, Note_on_c, 4, 76, 0
6, 60750, Note_on_c, 4, 76, 127
6, 60780, Note_on_c, 4, 76, 0
6, 60780, Note_on_c, 4, 76, 127
6, 60810, Note_on_c, 4, 76, 0
6, 60810, Note_on_c, 4, 76, 127
6, 60840, Note_on_c, 4, 76, 0
6, 60840, Note_on_c, 4, 76, 127
6, 60870, Note_on_c, 4, 76, 0
6, 60870, Note_on_c, 4, 76, 127
6, 60900, Note_on_c, 4, 76, 0
6, 60900, Note_on_c, 4, 76, 127
6, 60930, Note_on_c, 4, 76, 0
6, 60930, Note_on_c, 4, 76, 127
6, 60960, Note_on_c, 4, 76, 0
6, 60960, Note_on_c, 4, 76, 127
6, 60990, Note_on_c, 4, 76, 0
6, 60990, Note_on_c, 4, 76, 127
6, 61020, Note_on_c, 4, 76, 0
6, 61020, Note_on_c, 4, 76, 127
6, 61050, Note_on_c, 4, 76, 0
6, 61050, Note_on_c, 4, 76, 127
6, 61080, Note_on_c, 4, 76, 0
6, 61080, Note_on_c, 4, 76, 127
6, 61110, Note_on_c, 4, 76, 0
6, 61110, Note_on_c, 4, 76, 127
6, 61140, Note_on_c, 4, 76, 0
6, 61140, Note_on_c, 4, 76, 127
6, 61170, Note_on_c, 4, 76, 0
6, 61170, Note_on_c, 4, 76, 127
6, 61200, Note_on_c, 4, 76, 0
6, 61200, Note_on_c, 4, 76, 127
6, 61230, Note_on_c, 4, 76, 0
6, 61230, Note_on_c, 4, 76, 127
6, 61260, Note_on_c, 4, 76, 0
6, 61260, Note_on_c, 4, 76, 127
6, 61290, Note_on_c, 4, 76, 0
6, 61290, Note_on_c, 4, 76, 127
6, 61320, Note_on_c, 4, 76, 0
6, 61320, Note_on_c, 4, 76, 127
6, 61350, Note_on_c, 4, 76, 0
6, 61350, Note_on_c, 4, 76, 127
6, 61380, Note_on_c, 4, 76, 0
6, 61380, Note_on_c, 4, 76, 127
6, 61410, Note_on_c, 4, 76, 0
6, 61410, Note_on_c, 4, 76, 127
6, 61440, Note_on_c, 4, 76, 0
6, 61440, Note_on_c, 4, 76, 127
6, 61560, Note_on_c, 4, 76, 0
6, 62280, Note_on_c, 4, 59, 127
6, 62400, Note_on_c, 4, 59, 0
6, 62400, Note_on_c, 4, 60, 127
6, 62520, Note_on_c, 4, 60, 0
6, 62760, Note_on_c, 4, 59, 127
6, 62880, Note_on_c, 4, 59, 0
6, 62880, Note_on_c, 4, 60, 127
6, 63000, Note_on_c, 4, 60, 0
6, 63240, Note_on_c, 4, 59, 127
6, 63360, Note_on_c, 4, 59, 0
6, 63360, Note_on_c, 4, 60, 127
6, 63480, Note_on_c, 4, 60, 0
6, 63480, Note_on_c, 4, 55, 127
6, 63480, Note_on_c, 4, 64, 127
6, 63480, Note_on_c, 4, 72, 127
6, 63600, Note_on_c, 4, 72, 0
6, 63600, Note_on_c, 4, 64, 0
6, 63600, Note_on_c, 4, 55, 0
6, 63600, Note_on_c, 4, 60, 127
6, 63720, Note_on_c, 4, 60, 0
6, 63720, Note_on_c, 4, 67, 127
6, 63720, Note_on_c, 4, 72, 127
6, 63720, Note_on_c, 4, 76, 127
6, 63840, Note_on_c, 4, 76, 0
6, 63840, Note_on_c, 4, 72, 0
6, 63840, Note_on_c, 4, 67, 0
6, 63840, Note_on_c, 4, 60, 127
6, 63960, Note_on_c, 4, 60, 0
6, 63960, Note_on_c, 4, 64, 127
6, 63960, Note_on_c, 4, 72, 127
6, 63960, Note_on_c, 4, 79, 127
6, 64080, Note_on_c, 4, 79, 0
6, 64080, Note_on_c, 4, 72, 0
6, 64080, Note_on_c, 4, 64, 0
6, 64080, Note_on_c, 4, 60, 127
6, 64200, Note_on_c, 4, 60, 0
6, 64200, Note_on_c, 4, 60, 127
6, 64320, Note_on_c, 4, 60, 0
6, 64320, Note_on_c, 4, 60, 127
6, 64800, Note_on_c, 4, 60, 0
6, 64800, End_track
7, 0, Start_track
7, 0, MIDI_port, 0
7, 0, Title_t, "Viola"
7, 0, Control_c, 5, 0, 4
7, 0, Program_c, 5, 48
7, 0, Control_c, 5, 7, 127
7, 0, Control_c, 5, 10, 88
7, 0, Note_on_c, 5, 67, 100
7, 30, Note_on_c, 5, 67, 0
7, 30, Note_on_c, 5, 67, 100
7, 60, Note_on_c, 5, 67, 0
7, 60, Note_on_c, 5, 67, 100
7, 90, Note_on_c, 5, 67, 0
7, 90, Note_on_c, 5, 67, 100
7, 120, Note_on_c, 5, 67, 0
7, 120, Note_on_c, 5, 67, 100
7, 150, Note_on_c, 5, 67, 0
7, 150, Note_on_c, 5, 67, 100
7, 180, Note_on_c, 5, 67, 0
7, 180, Note_on_c, 5, 67, 100
7, 210, Note_on_c, 5, 67, 0
7, 210, Note_on_c, 5, 67, 100
7, 240, Note_on_c, 5, 67, 0
7, 240, Note_on_c, 5, 67, 100
7, 270, Note_on_c, 5, 67, 0
7, 270, Note_on_c, 5, 67, 100
7, 300, Note_on_c, 5, 67, 0
7, 300, Note_on_c, 5, 67, 100
7, 330, Note_on_c, 5, 67, 0
7, 330, Note_on_c, 5, 67, 100
7, 360, Note_on_c, 5, 67, 0
7, 360, Note_on_c, 5, 67, 100
7, 390, Note_on_c, 5, 67, 0
7, 390, Note_on_c, 5, 67, 100
7, 420, Note_on_c, 5, 67, 0
7, 420, Note_on_c, 5, 67, 100
7, 450, Note_on_c, 5, 67, 0
7, 450, Note_on_c, 5, 67, 100
7, 480, Note_on_c, 5, 67, 0
7, 480, Note_on_c, 5, 67, 100
7, 510, Note_on_c, 5, 67, 0
7, 510, Note_on_c, 5, 67, 100
7, 540, Note_on_c, 5, 67, 0
7, 540, Note_on_c, 5, 67, 100
7, 570, Note_on_c, 5, 67, 0
7, 570, Note_on_c, 5, 67, 100
7, 600, Note_on_c, 5, 67, 0
7, 600, Note_on_c, 5, 67, 100
7, 630, Note_on_c, 5, 67, 0
7, 630, Note_on_c, 5, 67, 100
7, 660, Note_on_c, 5, 67, 0
7, 660, Note_on_c, 5, 67, 100
7, 690, Note_on_c, 5, 67, 0
7, 690, Note_on_c, 5, 67, 100
7, 720, Note_on_c, 5, 67, 0
7, 720, Note_on_c, 5, 67, 100
7, 750, Note_on_c, 5, 67, 0
7, 750, Note_on_c, 5, 67, 100
7, 780, Note_on_c, 5, 67, 0
7, 780, Note_on_c, 5, 67, 100
7, 810, Note_on_c, 5, 67, 0
7, 810, Note_on_c, 5, 67, 100
7, 840, Note_on_c, 5, 67, 0
7, 840, Note_on_c, 5, 67, 100
7, 870, Note_on_c, 5, 67, 0
7, 870, Note_on_c, 5, 67, 100
7, 900, Note_on_c, 5, 67, 0
7, 900, Note_on_c, 5, 67, 100
7, 930, Note_on_c, 5, 67, 0
7, 930, Note_on_c, 5, 67, 100
7, 960, Note_on_c, 5, 67, 0
7, 960, Note_on_c, 5, 67, 100
7, 1080, Note_on_c, 5, 67, 0
7, 1200, Note_on_c, 5, 60, 100
7, 1260, Note_on_c, 5, 60, 0
7, 1320, Note_on_c, 5, 59, 100
7, 1320, Note_on_c, 5, 62, 100
7, 1380, Note_on_c, 5, 62, 0
7, 1380, Note_on_c, 5, 59, 0
7, 1440, Note_on_c, 5, 64, 100
7, 1440, Note_on_c, 5, 60, 100
7, 1500, Note_on_c, 5, 60, 0
7, 1500, Note_on_c, 5, 64, 0
7, 1560, Note_on_c, 5, 65, 100
7, 1560, Note_on_c, 5, 62, 100
7, 1620, Note_on_c, 5, 62, 0
7, 1620, Note_on_c, 5, 65, 0
7, 1680, Note_on_c, 5, 67, 100
7, 1680, Note_on_c, 5, 64, 100
7, 1740, Note_on_c, 5, 64, 0
7, 1740, Note_on_c, 5, 67, 0
7, 1800, Note_on_c, 5, 64, 100
7, 1800, Note_on_c, 5, 60, 100
7, 1860, Note_on_c, 5, 60, 0
7, 1860, Note_on_c, 5, 64, 0
7, 1920, Note_on_c, 5, 59, 100
7, 1920, Note_on_c, 5, 62, 100
7, 1950, Note_on_c, 5, 62, 0
7, 1950, Note_on_c, 5, 59, 0
7, 1950, Note_on_c, 5, 59, 100
7, 1950, Note_on_c, 5, 62, 100
7, 1980, Note_on_c, 5, 62, 0
7, 1980, Note_on_c, 5, 59, 0
7, 1980, Note_on_c, 5, 59, 100
7, 1980, Note_on_c, 5, 62, 100
7, 2010, Note_on_c, 5, 62, 0
7, 2010, Note_on_c, 5, 59, 0
7, 2010, Note_on_c, 5, 59, 100
7, 2010, Note_on_c, 5, 62, 100
7, 2040, Note_on_c, 5, 62, 0
7, 2040, Note_on_c, 5, 59, 0
7, 2040, Note_on_c, 5, 59, 100
7, 2040, Note_on_c, 5, 62, 100
7, 2070, Note_on_c, 5, 62, 0
7, 2070, Note_on_c, 5, 59, 0
7, 2070, Note_on_c, 5, 59, 100
7, 2070, Note_on_c, 5, 62, 100
7, 2100, Note_on_c, 5, 62, 0
7, 2100, Note_on_c, 5, 59, 0
7, 2100, Note_on_c, 5, 59, 100
7, 2100, Note_on_c, 5, 62, 100
7, 2130, Note_on_c, 5, 62, 0
7, 2130, Note_on_c, 5, 59, 0
7, 2130, Note_on_c, 5, 59, 100
7, 2130, Note_on_c, 5, 62, 100
7, 2160, Note_on_c, 5, 62, 0
7, 2160, Note_on_c, 5, 59, 0
7, 2160, Note_on_c, 5, 59, 100
7, 2160, Note_on_c, 5, 62, 100
7, 2190, Note_on_c, 5, 62, 0
7, 2190, Note_on_c, 5, 59, 0
7, 2190, Note_on_c, 5, 59, 100
7, 2190, Note_on_c, 5, 62, 100
7, 2220, Note_on_c, 5, 62, 0
7, 2220, Note_on_c, 5, 59, 0
7, 2220, Note_on_c, 5, 59, 100
7, 2220, Note_on_c, 5, 62, 100
7, 2250, Note_on_c, 5, 62, 0
7, 2250, Note_on_c, 5, 59, 0
7, 2250, Note_on_c, 5, 59, 100
7, 2250, Note_on_c, 5, 62, 100
7, 2280, Note_on_c, 5, 62, 0
7, 2280, Note_on_c, 5, 59, 0
7, 2280, Note_on_c, 5, 59, 100
7, 2280, Note_on_c, 5, 62, 100
7, 2310, Note_on_c, 5, 62, 0
7, 2310, Note_on_c, 5, 59, 0
7, 2310, Note_on_c, 5, 59, 100
7, 2310, Note_on_c, 5, 62, 100
7, 2340, Note_on_c, 5, 62, 0
7, 2340, Note_on_c, 5, 59, 0
7, 2340, Note_on_c, 5, 59, 100
7, 2340, Note_on_c, 5, 62, 100
7, 2370, Note_on_c, 5, 62, 0
7, 2370, Note_on_c, 5, 59, 0
7, 2370, Note_on_c, 5, 59, 100
7, 2370, Note_on_c, 5, 62, 100
7, 2400, Note_on_c, 5, 62, 0
7, 2400, Note_on_c, 5, 59, 0
7, 2400, Note_on_c, 5, 59, 100
7, 2400, Note_on_c, 5, 62, 100
7, 2430, Note_on_c, 5, 62, 0
7, 2430, Note_on_c, 5, 59, 0
7, 2430, Note_on_c, 5, 59, 100
7, 2430, Note_on_c, 5, 62, 100
7, 2460, Note_on_c, 5, 62, 0
7, 2460, Note_on_c, 5, 59, 0
7, 2460, Note_on_c, 5, 59, 100
7, 2460, Note_on_c, 5, 62, 100
7, 2490, Note_on_c, 5, 62, 0
7, 2490, Note_on_c, 5, 59, 0
7, 2490, Note_on_c, 5, 59, 100
7, 2490, Note_on_c, 5, 62, 100
7, 2520, Note_on_c, 5, 62, 0
7, 2520, Note_on_c, 5, 59, 0
7, 2520, Note_on_c, 5, 59, 100
7, 2520, Note_on_c, 5, 62, 100
7, 2550, Note_on_c, 5, 62, 0
7, 2550, Note_on_c, 5, 59, 0
7, 2550, Note_on_c, 5, 59, 100
7, 2550, Note_on_c, 5, 62, 100
7, 2580, Note_on_c, 5, 62, 0
7, 2580, Note_on_c, 5, 59, 0
7, 2580, Note_on_c, 5, 59, 100
7, 2580, Note_on_c, 5, 62, 100
7, 2610, Note_on_c, 5, 62, 0
7, 2610, Note_on_c, 5, 59, 0
7, 2610, Note_on_c, 5, 59, 100
7, 2610, Note_on_c, 5, 62, 100
7, 2640, Note_on_c, 5, 62, 0
7, 2640, Note_on_c, 5, 59, 0
7, 2640, Note_on_c, 5, 59, 100
7, 2640, Note_on_c, 5, 62, 100
7, 2670, Note_on_c, 5, 62, 0
7, 2670, Note_on_c, 5, 59, 0
7, 2670, Note_on_c, 5, 59, 100
7, 2670, Note_on_c, 5, 62, 100
7, 2700, Note_on_c, 5, 62, 0
7, 2700, Note_on_c, 5, 59, 0
7, 2700, Note_on_c, 5, 59, 100
7, 2700, Note_on_c, 5, 62, 100
7, 2730, Note_on_c, 5, 62, 0
7, 2730, Note_on_c, 5, 59, 0
7, 2730, Note_on_c, 5, 59, 100
7, 2730, Note_on_c, 5, 62, 100
7, 2760, Note_on_c, 5, 62, 0
7, 2760, Note_on_c, 5, 59, 0
7, 2760, Note_on_c, 5, 59, 100
7, 2760, Note_on_c, 5, 62, 100
7, 2790, Note_on_c, 5, 62, 0
7, 2790, Note_on_c, 5, 59, 0
7, 2790, Note_on_c, 5, 59, 100
7, 2790, Note_on_c, 5, 62, 100
7, 2820, Note_on_c, 5, 62, 0
7, 2820, Note_on_c, 5, 59, 0
7, 2820, Note_on_c, 5, 59, 100
7, 2820, Note_on_c, 5, 62, 100
7, 2850, Note_on_c, 5, 62, 0
7, 2850, Note_on_c, 5, 59, 0
7, 2850, Note_on_c, 5, 59, 100
7, 2850, Note_on_c, 5, 62, 100
7, 2880, Note_on_c, 5, 62, 0
7, 2880, Note_on_c, 5, 59, 0
7, 2880, Note_on_c, 5, 59, 100
7, 2880, Note_on_c, 5, 62, 100
7, 3000, Note_on_c, 5, 62, 0
7, 3000, Note_on_c, 5, 59, 0
7, 3120, Note_on_c, 5, 59, 100
7, 3120, Note_on_c, 5, 62, 100
7, 3180, Note_on_c, 5, 62, 0
7, 3180, Note_on_c, 5, 59, 0
7, 3240, Note_on_c, 5, 60, 100
7, 3240, Note_on_c, 5, 64, 100
7, 3300, Note_on_c, 5, 64, 0
7, 3300, Note_on_c, 5, 60, 0
7, 3360, Note_on_c, 5, 62, 100
7, 3360, Note_on_c, 5, 65, 100
7, 3420, Note_on_c, 5, 65, 0
7, 3420, Note_on_c, 5, 62, 0
7, 3480, Note_on_c, 5, 64, 100
7, 3480, Note_on_c, 5, 67, 100
7, 3540, Note_on_c, 5, 67, 0
7, 3540, Note_on_c, 5, 64, 0
7, 3600, Note_on_c, 5, 65, 100
7, 3600, Note_on_c, 5, 69, 100
7, 3660, Note_on_c, 5, 69, 0
7, 3660, Note_on_c, 5, 65, 0
7, 3720, Note_on_c, 5, 62, 100
7, 3720, Note_on_c, 5, 65, 100
7, 3780, Note_on_c, 5, 65, 0
7, 3780, Note_on_c, 5, 62, 0
7, 3840, Note_on_c, 5, 60, 100
7, 3840, Note_on_c, 5, 64, 100
7, 3870, Note_on_c, 5, 64, 0
7, 3870, Note_on_c, 5, 60, 0
7, 3870, Note_on_c, 5, 60, 100
7, 3870, Note_on_c, 5, 64, 100
7, 3900, Note_on_c, 5, 64, 0
7, 3900, Note_on_c, 5, 60, 0
7, 3900, Note_on_c, 5, 60, 100
7, 3900, Note_on_c, 5, 64, 100
7, 3930, Note_on_c, 5, 64, 0
7, 3930, Note_on_c, 5, 60, 0
7, 3930, Note_on_c, 5, 60, 100
7, 3930, Note_on_c, 5, 64, 100
7, 3960, Note_on_c, 5, 64, 0
7, 3960, Note_on_c, 5, 60, 0
7, 3960, Note_on_c, 5, 60, 100
7, 3960, Note_on_c, 5, 64, 100
7, 3990, Note_on_c, 5, 64, 0
7, 3990, Note_on_c, 5, 60, 0
7, 3990, Note_on_c, 5, 60, 100
7, 3990, Note_on_c, 5, 64, 100
7, 4020, Note_on_c, 5, 64, 0
7, 4020, Note_on_c, 5, 60, 0
7, 4020, Note_on_c, 5, 60, 100
7, 4020, Note_on_c, 5, 64, 100
7, 4050, Note_on_c, 5, 64, 0
7, 4050, Note_on_c, 5, 60, 0
7, 4050, Note_on_c, 5, 60, 100
7, 4050, Note_on_c, 5, 64, 100
7, 4080, Note_on_c, 5, 64, 0
7, 4080, Note_on_c, 5, 60, 0
7, 4080, Note_on_c, 5, 60, 100
7, 4080, Note_on_c, 5, 64, 100
7, 4110, Note_on_c, 5, 64, 0
7, 4110, Note_on_c, 5, 60, 0
7, 4110, Note_on_c, 5, 60, 100
7, 4110, Note_on_c, 5, 64, 100
7, 4140, Note_on_c, 5, 64, 0
7, 4140, Note_on_c, 5, 60, 0
7, 4140, Note_on_c, 5, 60, 100
7, 4140, Note_on_c, 5, 64, 100
7, 4170, Note_on_c, 5, 64, 0
7, 4170, Note_on_c, 5, 60, 0
7, 4170, Note_on_c, 5, 60, 100
7, 4170, Note_on_c, 5, 64, 100
7, 4200, Note_on_c, 5, 64, 0
7, 4200, Note_on_c, 5, 60, 0
7, 4200, Note_on_c, 5, 60, 100
7, 4200, Note_on_c, 5, 64, 100
7, 4230, Note_on_c, 5, 64, 0
7, 4230, Note_on_c, 5, 60, 0
7, 4230, Note_on_c, 5, 60, 100
7, 4230, Note_on_c, 5, 64, 100
7, 4260, Note_on_c, 5, 64, 0
7, 4260, Note_on_c, 5, 60, 0
7, 4260, Note_on_c, 5, 60, 100
7, 4260, Note_on_c, 5, 64, 100
7, 4290, Note_on_c, 5, 64, 0
7, 4290, Note_on_c, 5, 60, 0
7, 4290, Note_on_c, 5, 60, 100
7, 4290, Note_on_c, 5, 64, 100
7, 4320, Note_on_c, 5, 64, 0
7, 4320, Note_on_c, 5, 60, 0
7, 4320, Note_on_c, 5, 60, 100
7, 4320, Note_on_c, 5, 64, 100
7, 4350, Note_on_c, 5, 64, 0
7, 4350, Note_on_c, 5, 60, 0
7, 4350, Note_on_c, 5, 60, 100
7, 4350, Note_on_c, 5, 64, 100
7, 4380, Note_on_c, 5, 64, 0
7, 4380, Note_on_c, 5, 60, 0
7, 4380, Note_on_c, 5, 60, 100
7, 4380, Note_on_c, 5, 64, 100
7, 4410, Note_on_c, 5, 64, 0
7, 4410, Note_on_c, 5, 60, 0
7, 4410, Note_on_c, 5, 60, 100
7, 4410, Note_on_c, 5, 64, 100
7, 4440, Note_on_c, 5, 64, 0
7, 4440, Note_on_c, 5, 60, 0
7, 4440, Note_on_c, 5, 60, 100
7, 4440, Note_on_c, 5, 64, 100
7, 4470, Note_on_c, 5, 64, 0
7, 4470, Note_on_c, 5, 60, 0
7, 4470, Note_on_c, 5, 60, 100
7, 4470, Note_on_c, 5, 64, 100
7, 4500, Note_on_c, 5, 64, 0
7, 4500, Note_on_c, 5, 60, 0
7, 4500, Note_on_c, 5, 60, 100
7, 4500, Note_on_c, 5, 64, 100
7, 4530, Note_on_c, 5, 64, 0
7, 4530, Note_on_c, 5, 60, 0
7, 4530, Note_on_c, 5, 60, 100
7, 4530, Note_on_c, 5, 64, 100
7, 4560, Note_on_c, 5, 64, 0
7, 4560, Note_on_c, 5, 60, 0
7, 4560, Note_on_c, 5, 60, 100
7, 4560, Note_on_c, 5, 64, 100
7, 4590, Note_on_c, 5, 64, 0
7, 4590, Note_on_c, 5, 60, 0
7, 4590, Note_on_c, 5, 60, 100
7, 4590, Note_on_c, 5, 64, 100
7, 4620, Note_on_c, 5, 64, 0
7, 4620, Note_on_c, 5, 60, 0
7, 4620, Note_on_c, 5, 60, 100
7, 4620, Note_on_c, 5, 64, 100
7, 4650, Note_on_c, 5, 64, 0
7, 4650, Note_on_c, 5, 60, 0
7, 4650, Note_on_c, 5, 60, 100
7, 4650, Note_on_c, 5, 64, 100
7, 4680, Note_on_c, 5, 64, 0
7, 4680, Note_on_c, 5, 60, 0
7, 4680, Note_on_c, 5, 60, 100
7, 4680, Note_on_c, 5, 64, 100
7, 4710, Note_on_c, 5, 64, 0
7, 4710, Note_on_c, 5, 60, 0
7, 4710, Note_on_c, 5, 60, 100
7, 4710, Note_on_c, 5, 64, 100
7, 4740, Note_on_c, 5, 64, 0
7, 4740, Note_on_c, 5, 60, 0
7, 4740, Note_on_c, 5, 60, 100
7, 4740, Note_on_c, 5, 64, 100
7, 4770, Note_on_c, 5, 64, 0
7, 4770, Note_on_c, 5, 60, 0
7, 4770, Note_on_c, 5, 60, 100
7, 4770, Note_on_c, 5, 64, 100
7, 4800, Note_on_c, 5, 64, 0
7, 4800, Note_on_c, 5, 60, 0
7, 4800, Note_on_c, 5, 60, 100
7, 4800, Note_on_c, 5, 64, 100
7, 4920, Note_on_c, 5, 64, 0
7, 4920, Note_on_c, 5, 60, 0
7, 5040, Note_on_c, 5, 60, 100
7, 5100, Note_on_c, 5, 60, 0
7, 5160, Note_on_c, 5, 59, 100
7, 5160, Note_on_c, 5, 62, 100
7, 5220, Note_on_c, 5, 62, 0
7, 5220, Note_on_c, 5, 59, 0
7, 5280, Note_on_c, 5, 60, 100
7, 5280, Note_on_c, 5, 64, 100
7, 5340, Note_on_c, 5, 64, 0
7, 5340, Note_on_c, 5, 60, 0
7, 5400, Note_on_c, 5, 62, 100
7, 5400, Note_on_c, 5, 65, 100
7, 5460, Note_on_c, 5, 65, 0
7, 5460, Note_on_c, 5, 62, 0
7, 5520, Note_on_c, 5, 64, 100
7, 5520, Note_on_c, 5, 67, 100
7, 5580, Note_on_c, 5, 67, 0
7, 5580, Note_on_c, 5, 64, 0
7, 5640, Note_on_c, 5, 60, 100
7, 5640, Note_on_c, 5, 64, 100
7, 5700, Note_on_c, 5, 64, 0
7, 5700, Note_on_c, 5, 60, 0
7, 5760, Note_on_c, 5, 65, 100
7, 5820, Note_on_c, 5, 65, 0
7, 5820, Note_on_c, 5, 65, 100
7, 5880, Note_on_c, 5, 65, 0
7, 5880, Note_on_c, 5, 65, 100
7, 5940, Note_on_c, 5, 65, 0
7, 5940, Note_on_c, 5, 65, 100
7, 6000, Note_on_c, 5, 65, 0
7, 6000, Note_on_c, 5, 64, 100
7, 6060, Note_on_c, 5, 64, 0
7, 6060, Note_on_c, 5, 64, 100
7, 6120, Note_on_c, 5, 64, 0
7, 6120, Note_on_c, 5, 64, 100
7, 6180, Note_on_c, 5, 64, 0
7, 6180, Note_on_c, 5, 64, 100
7, 6240, Note_on_c, 5, 64, 0
7, 6240, Note_on_c, 5, 65, 100
7, 6300, Note_on_c, 5, 65, 0
7, 6300, Note_on_c, 5, 65, 100
7, 6360, Note_on_c, 5, 65, 0
7, 6360, Note_on_c, 5, 65, 100
7, 6420, Note_on_c, 5, 65, 0
7, 6420, Note_on_c, 5, 65, 100
7, 6480, Note_on_c, 5, 65, 0
7, 6480, Note_on_c, 5, 64, 100
7, 6540, Note_on_c, 5, 64, 0
7, 6540, Note_on_c, 5, 64, 100
7, 6600, Note_on_c, 5, 64, 0
7, 6600, Note_on_c, 5, 64, 100
7, 6660, Note_on_c, 5, 64, 0
7, 6660, Note_on_c, 5, 64, 100
7, 6720, Note_on_c, 5, 64, 0
7, 6720, Note_on_c, 5, 62, 100
7, 6780, Note_on_c, 5, 62, 0
7, 6780, Note_on_c, 5, 62, 100
7, 6840, Note_on_c, 5, 62, 0
7, 6840, Note_on_c, 5, 62, 100
7, 6900, Note_on_c, 5, 62, 0
7, 6900, Note_on_c, 5, 62, 100
7, 6960, Note_on_c, 5, 62, 0
7, 6960, Note_on_c, 5, 67, 100
7, 7020, Note_on_c, 5, 67, 0
7, 7020, Note_on_c, 5, 67, 100
7, 7080, Note_on_c, 5, 67, 0
7, 7080, Note_on_c, 5, 67, 100
7, 7140, Note_on_c, 5, 67, 0
7, 7140, Note_on_c, 5, 67, 100
7, 7200, Note_on_c, 5, 67, 0
7, 7200, Note_on_c, 5, 60, 100
7, 7260, Note_on_c, 5, 60, 0
7, 7260, Note_on_c, 5, 60, 100
7, 7320, Note_on_c, 5, 60, 0
7, 7320, Note_on_c, 5, 60, 100
7, 7380, Note_on_c, 5, 60, 0
7, 7380, Note_on_c, 5, 60, 100
7, 7440, Note_on_c, 5, 60, 0
7, 7440, Note_on_c, 5, 64, 100
7, 7500, Note_on_c, 5, 64, 0
7, 7500, Note_on_c, 5, 64, 100
7, 7560, Note_on_c, 5, 64, 0
7, 7560, Note_on_c, 5, 64, 100
7, 7620, Note_on_c, 5, 64, 0
7, 7620, Note_on_c, 5, 64, 100
7, 7680, Note_on_c, 5, 64, 0
7, 7680, Note_on_c, 5, 65, 100
7, 7740, Note_on_c, 5, 65, 0
7, 7740, Note_on_c, 5, 65, 100
7, 7800, Note_on_c, 5, 65, 0
7, 7800, Note_on_c, 5, 65, 100
7, 7860, Note_on_c, 5, 65, 0
7, 7860, Note_on_c, 5, 65, 100
7, 7920, Note_on_c, 5, 65, 0
7, 7920, Note_on_c, 5, 67, 100
7, 7980, Note_on_c, 5, 67, 0
7, 7980, Note_on_c, 5, 67, 100
7, 8040, Note_on_c, 5, 67, 0
7, 8040, Note_on_c, 5, 67, 100
7, 8100, Note_on_c, 5, 67, 0
7, 8100, Note_on_c, 5, 67, 100
7, 8160, Note_on_c, 5, 67, 0
7, 8160, Note_on_c, 5, 60, 100
7, 8280, Note_on_c, 5, 60, 0
7, 8280, Note_on_c, 5, 59, 100
7, 8370, Note_on_c, 5, 59, 0
7, 8370, Note_on_c, 5, 57, 100
7, 8400, Note_on_c, 5, 57, 0
7, 8400, Note_on_c, 5, 55, 100
7, 8520, Note_on_c, 5, 55, 0
7, 8640, Note_on_c, 5, 60, 46
7, 8880, Note_on_c, 5, 60, 0
7, 8880, Note_on_c, 5, 55, 46
7, 9120, Note_on_c, 5, 55, 0
7, 9120, Note_on_c, 5, 60, 46
7, 9360, Note_on_c, 5, 60, 0
7, 9360, Note_on_c, 5, 57, 44
7, 9600, Note_on_c, 5, 57, 0
7, 9600, Note_on_c, 5, 53, 44
7, 9840, Note_on_c, 5, 53, 0
7, 9840, Note_on_c, 5, 55, 44
7, 10080, Note_on_c, 5, 55, 0
7, 10080, Note_on_c, 5, 72, 100
7, 10140, Note_on_c, 5, 72, 0
7, 10140, Note_on_c, 5, 72, 98
7, 10200, Note_on_c, 5, 72, 0
7, 10200, Note_on_c, 5, 72, 98
7, 10260, Note_on_c, 5, 72, 0
7, 10260, Note_on_c, 5, 72, 99
7, 10320, Note_on_c, 5, 72, 0
7, 10320, Note_on_c, 5, 68, 101
7, 10380, Note_on_c, 5, 68, 0
7, 10380, Note_on_c, 5, 68, 102
7, 10440, Note_on_c, 5, 68, 0
7, 10440, Note_on_c, 5, 68, 102
7, 10500, Note_on_c, 5, 68, 0
7, 10500, Note_on_c, 5, 68, 103
7, 10560, Note_on_c, 5, 68, 0
7, 10560, Note_on_c, 5, 69, 104
7, 10620, Note_on_c, 5, 69, 0
7, 10620, Note_on_c, 5, 69, 105
7, 10680, Note_on_c, 5, 69, 0
7, 10680, Note_on_c, 5, 69, 106
7, 10740, Note_on_c, 5, 69, 0
7, 10740, Note_on_c, 5, 69, 106
7, 10800, Note_on_c, 5, 69, 0
7, 10800, Note_on_c, 5, 64, 107
7, 10860, Note_on_c, 5, 64, 0
7, 10860, Note_on_c, 5, 64, 107
7, 10920, Note_on_c, 5, 64, 0
7, 10920, Note_on_c, 5, 64, 109
7, 10980, Note_on_c, 5, 64, 0
7, 10980, Note_on_c, 5, 64, 111
7, 11040, Note_on_c, 5, 64, 0
7, 11040, Note_on_c, 5, 65, 112
7, 11100, Note_on_c, 5, 65, 0
7, 11100, Note_on_c, 5, 65, 115
7, 11160, Note_on_c, 5, 65, 0
7, 11160, Note_on_c, 5, 65, 117
7, 11220, Note_on_c, 5, 65, 0
7, 11220, Note_on_c, 5, 65, 118
7, 11280, Note_on_c, 5, 65, 0
7, 11280, Note_on_c, 5, 59, 125
7, 11340, Note_on_c, 5, 59, 0
7, 11340, Note_on_c, 5, 59, 127
7, 11400, Note_on_c, 5, 59, 0
7, 11400, Note_on_c, 5, 59, 127
7, 11460, Note_on_c, 5, 59, 0
7, 11460, Note_on_c, 5, 59, 127
7, 11520, Note_on_c, 5, 59, 0
7, 11520, Note_on_c, 5, 60, 127
7, 11580, Note_on_c, 5, 60, 0
7, 11580, Note_on_c, 5, 60, 127
7, 11640, Note_on_c, 5, 60, 0
7, 11640, Note_on_c, 5, 60, 124
7, 11700, Note_on_c, 5, 60, 0
7, 11700, Note_on_c, 5, 60, 127
7, 11760, Note_on_c, 5, 60, 0
7, 11760, Note_on_c, 5, 56, 127
7, 11820, Note_on_c, 5, 56, 0
7, 11820, Note_on_c, 5, 56, 127
7, 11880, Note_on_c, 5, 56, 0
7, 11880, Note_on_c, 5, 56, 127
7, 11940, Note_on_c, 5, 56, 0
7, 11940, Note_on_c, 5, 56, 127
7, 12000, Note_on_c, 5, 56, 0
7, 12000, Note_on_c, 5, 55, 127
7, 12060, Note_on_c, 5, 55, 0
7, 12060, Note_on_c, 5, 67, 127
7, 12120, Note_on_c, 5, 67, 0
7, 12120, Note_on_c, 5, 62, 127
7, 12180, Note_on_c, 5, 62, 0
7, 12180, Note_on_c, 5, 59, 127
7, 12240, Note_on_c, 5, 59, 0
7, 12240, Note_on_c, 5, 55, 127
7, 12300, Note_on_c, 5, 55, 0
7, 12300, Note_on_c, 5, 55, 127
7, 12360, Note_on_c, 5, 55, 0
7, 12360, Note_on_c, 5, 55, 127
7, 12420, Note_on_c, 5, 55, 0
7, 12420, Note_on_c, 5, 55, 127
7, 12480, Note_on_c, 5, 55, 0
7, 12480, Note_on_c, 5, 55, 127
7, 12540, Note_on_c, 5, 55, 0
7, 12540, Note_on_c, 5, 55, 127
7, 12600, Note_on_c, 5, 55, 0
7, 12600, Note_on_c, 5, 55, 127
7, 12660, Note_on_c, 5, 55, 0
7, 12660, Note_on_c, 5, 55, 127
7, 12720, Note_on_c, 5, 55, 0
7, 12720, Note_on_c, 5, 67, 127
7, 12780, Note_on_c, 5, 67, 0
7, 12780, Note_on_c, 5, 67, 127
7, 12840, Note_on_c, 5, 67, 0
7, 12840, Note_on_c, 5, 64, 127
7, 12900, Note_on_c, 5, 64, 0
7, 12900, Note_on_c, 5, 60, 127
7, 12960, Note_on_c, 5, 60, 0
7, 12960, Note_on_c, 5, 55, 127
7, 13020, Note_on_c, 5, 55, 0
7, 13020, Note_on_c, 5, 67, 127
7, 13080, Note_on_c, 5, 67, 0
7, 13080, Note_on_c, 5, 62, 127
7, 13140, Note_on_c, 5, 62, 0
7, 13140, Note_on_c, 5, 59, 127
7, 13200, Note_on_c, 5, 59, 0
7, 13200, Note_on_c, 5, 55, 127
7, 13260, Note_on_c, 5, 55, 0
7, 13260, Note_on_c, 5, 55, 127
7, 13320, Note_on_c, 5, 55, 0
7, 13320, Note_on_c, 5, 55, 127
7, 13380, Note_on_c, 5, 55, 0
7, 13380, Note_on_c, 5, 55, 127
7, 13440, Note_on_c, 5, 55, 0
7, 13440, Note_on_c, 5, 55, 127
7, 13500, Note_on_c, 5, 55, 0
7, 13500, Note_on_c, 5, 55, 127
7, 13560, Note_on_c, 5, 55, 0
7, 13560, Note_on_c, 5, 55, 127
7, 13620, Note_on_c, 5, 55, 0
7, 13620, Note_on_c, 5, 55, 127
7, 13680, Note_on_c, 5, 55, 0
7, 13680, Note_on_c, 5, 67, 127
7, 13740, Note_on_c, 5, 67, 0
7, 13740, Note_on_c, 5, 67, 127
7, 13800, Note_on_c, 5, 67, 0
7, 13800, Note_on_c, 5, 64, 127
7, 13860, Note_on_c, 5, 64, 0
7, 13860, Note_on_c, 5, 60, 127
7, 13920, Note_on_c, 5, 60, 0
7, 13920, Note_on_c, 5, 55, 127
7, 14040, Note_on_c, 5, 55, 0
7, 14160, Note_on_c, 5, 67, 127
7, 14280, Note_on_c, 5, 67, 0
7, 14400, Note_on_c, 5, 55, 127
7, 14520, Note_on_c, 5, 55, 0
7, 15840, Note_on_c, 5, 62, 100
7, 15960, Note_on_c, 5, 62, 0
7, 15960, Note_on_c, 5, 62, 100
7, 16080, Note_on_c, 5, 62, 0
7, 16080, Note_on_c, 5, 62, 100
7, 16200, Note_on_c, 5, 62, 0
7, 17280, Note_on_c, 5, 62, 100
7, 17400, Note_on_c, 5, 62, 0
7, 17400, Note_on_c, 5, 62, 100
7, 17520, Note_on_c, 5, 62, 0
7, 17520, Note_on_c, 5, 62, 100
7, 17640, Note_on_c, 5, 62, 0
7, 17760, Note_on_c, 5, 59, 100
7, 17760, Note_on_c, 5, 62, 100
7, 17940, Note_on_c, 5, 62, 0
7, 17940, Note_on_c, 5, 59, 0
7, 17940, Note_on_c, 5, 60, 100
7, 17940, Note_on_c, 5, 64, 100
7, 17970, Note_on_c, 5, 64, 0
7, 17970, Note_on_c, 5, 60, 0
7, 17970, Note_on_c, 5, 62, 100
7, 17970, Note_on_c, 5, 59, 100
7, 18000, Note_on_c, 5, 59, 0
7, 18000, Note_on_c, 5, 62, 0
7, 18000, Note_on_c, 5, 67, 100
7, 18000, Note_on_c, 5, 64, 100
7, 18120, Note_on_c, 5, 64, 0
7, 18120, Note_on_c, 5, 67, 0
7, 18120, Note_on_c, 5, 66, 100
7, 18120, Note_on_c, 5, 62, 100
7, 18240, Note_on_c, 5, 62, 0
7, 18240, Note_on_c, 5, 66, 0
7, 18240, Note_on_c, 5, 60, 100
7, 18240, Note_on_c, 5, 64, 100
7, 18255, Note_on_c, 5, 64, 0
7, 18255, Note_on_c, 5, 60, 0
7, 18255, Note_on_c, 5, 62, 100
7, 18255, Note_on_c, 5, 66, 100
7, 18270, Note_on_c, 5, 66, 0
7, 18270, Note_on_c, 5, 62, 0
7, 18270, Note_on_c, 5, 60, 100
7, 18270, Note_on_c, 5, 64, 100
7, 18285, Note_on_c, 5, 64, 0
7, 18285, Note_on_c, 5, 60, 0
7, 18285, Note_on_c, 5, 62, 100
7, 18285, Note_on_c, 5, 66, 100
7, 18300, Note_on_c, 5, 66, 0
7, 18300, Note_on_c, 5, 62, 0
7, 18300, Note_on_c, 5, 60, 100
7, 18300, Note_on_c, 5, 64, 100
7, 18315, Note_on_c, 5, 64, 0
7, 18315, Note_on_c, 5, 60, 0
7, 18315, Note_on_c, 5, 66, 100
7, 18315, Note_on_c, 5, 62, 100
7, 18326, Note_on_c, 5, 62, 0
7, 18326, Note_on_c, 5, 66, 0
7, 18326, Note_on_c, 5, 60, 100
7, 18326, Note_on_c, 5, 64, 100
7, 18337, Note_on_c, 5, 64, 0
7, 18337, Note_on_c, 5, 60, 0
7, 18337, Note_on_c, 5, 62, 100
7, 18337, Note_on_c, 5, 59, 100
7, 18348, Note_on_c, 5, 62, 0
7, 18348, Note_on_c, 5, 60, 100
7, 18348, Note_on_c, 5, 64, 100
7, 18352, Note_on_c, 5, 59, 0
7, 18359, Note_on_c, 5, 64, 0
7, 18360, Note_on_c, 5, 62, 100
7, 18360, Note_on_c, 5, 59, 100
7, 18363, Note_on_c, 5, 60, 0
7, 18480, Note_on_c, 5, 59, 0
7, 18480, Note_on_c, 5, 62, 0
7, 18480, Note_on_c, 5, 64, 100
7, 18480, Note_on_c, 5, 67, 100
7, 18600, Note_on_c, 5, 67, 0
7, 18600, Note_on_c, 5, 64, 0
7, 18600, Note_on_c, 5, 66, 100
7, 18600, Note_on_c, 5, 62, 100
7, 18720, Note_on_c, 5, 62, 0
7, 18720, Note_on_c, 5, 66, 0
7, 18720, Note_on_c, 5, 64, 100
7, 18720, Note_on_c, 5, 60, 100
7, 18735, Note_on_c, 5, 60, 0
7, 18735, Note_on_c, 5, 64, 0
7, 18735, Note_on_c, 5, 62, 100
7, 18735, Note_on_c, 5, 66, 100
7, 18750, Note_on_c, 5, 66, 0
7, 18750, Note_on_c, 5, 62, 0
7, 18750, Note_on_c, 5, 64, 100
7, 18750, Note_on_c, 5, 60, 100
7, 18765, Note_on_c, 5, 60, 0
7, 18765, Note_on_c, 5, 64, 0
7, 18765, Note_on_c, 5, 62, 100
7, 18765, Note_on_c, 5, 66, 100
7, 18780, Note_on_c, 5, 66, 0
7, 18780, Note_on_c, 5, 62, 0
7, 18780, Note_on_c, 5, 60, 100
7, 18780, Note_on_c, 5, 64, 100
7, 18795, Note_on_c, 5, 64, 0
7, 18795, Note_on_c, 5, 60, 0
7, 18795, Note_on_c, 5, 62, 100
7, 18795, Note_on_c, 5, 66, 100
7, 18806, Note_on_c, 5, 66, 0
7, 18806, Note_on_c, 5, 62, 0
7, 18806, Note_on_c, 5, 60, 100
7, 18806, Note_on_c, 5, 64, 100
7, 18817, Note_on_c, 5, 64, 0
7, 18817, Note_on_c, 5, 60, 0
7, 18817, Note_on_c, 5, 62, 100
7, 18817, Note_on_c, 5, 59, 100
7, 18828, Note_on_c, 5, 62, 0
7, 18828, Note_on_c, 5, 60, 100
7, 18828, Note_on_c, 5, 64, 100
7, 18832, Note_on_c, 5, 59, 0
7, 18839, Note_on_c, 5, 64, 0
7, 18840, Note_on_c, 5, 59, 100
7, 18840, Note_on_c, 5, 62, 100
7, 18843, Note_on_c, 5, 60, 0
7, 18960, Note_on_c, 5, 62, 0
7, 18960, Note_on_c, 5, 59, 0
7, 18960, Note_on_c, 5, 67, 45
7, 19080, Note_on_c, 5, 67, 0
7, 19080, Note_on_c, 5, 66, 45
7, 19200, Note_on_c, 5, 66, 0
7, 19200, Note_on_c, 5, 64, 100
7, 19200, Note_on_c, 5, 64, 41
7, 19320, Note_on_c, 5, 64, 0
7, 19440, Note_on_c, 5, 64, 0
7, 19440, Note_on_c, 5, 62, 100
7, 19440, Note_on_c, 5, 62, 41
7, 19560, Note_on_c, 5, 62, 0
7, 19680, Note_on_c, 5, 62, 0
7, 19680, Note_on_c, 5, 60, 44
7, 19920, Note_on_c, 5, 60, 0
7, 19920, Note_on_c, 5, 62, 45
7, 20160, Note_on_c, 5, 62, 0
7, 20160, Note_on_c, 5, 59, 100
7, 20160, Note_on_c, 5, 62, 100
7, 20340, Note_on_c, 5, 62, 0
7, 20340, Note_on_c, 5, 59, 0
7, 20340, Note_on_c, 5, 60, 100
7, 20340, Note_on_c, 5, 64, 100
7, 20370, Note_on_c, 5, 64, 0
7, 20370, Note_on_c, 5, 60, 0
7, 20370, Note_on_c, 5, 62, 100
7, 20370, Note_on_c, 5, 59, 100
7, 20400, Note_on_c, 5, 59, 0
7, 20400, Note_on_c, 5, 62, 0
7, 20400, Note_on_c, 5, 67, 100
7, 20400, Note_on_c, 5, 64, 100
7, 20520, Note_on_c, 5, 64, 0
7, 20520, Note_on_c, 5, 67, 0
7, 20520, Note_on_c, 5, 66, 100
7, 20520, Note_on_c, 5, 62, 100
7, 20640, Note_on_c, 5, 62, 0
7, 20640, Note_on_c, 5, 66, 0
7, 20640, Note_on_c, 5, 60, 100
7, 20640, Note_on_c, 5, 64, 100
7, 20655, Note_on_c, 5, 64, 0
7, 20655, Note_on_c, 5, 60, 0
7, 20655, Note_on_c, 5, 62, 100
7, 20655, Note_on_c, 5, 66, 100
7, 20670, Note_on_c, 5, 66, 0
7, 20670, Note_on_c, 5, 62, 0
7, 20670, Note_on_c, 5, 60, 100
7, 20670, Note_on_c, 5, 64, 100
7, 20685, Note_on_c, 5, 64, 0
7, 20685, Note_on_c, 5, 60, 0
7, 20685, Note_on_c, 5, 62, 100
7, 20685, Note_on_c, 5, 66, 100
7, 20700, Note_on_c, 5, 66, 0
7, 20700, Note_on_c, 5, 62, 0
7, 20700, Note_on_c, 5, 60, 100
7, 20700, Note_on_c, 5, 64, 100
7, 20715, Note_on_c, 5, 64, 0
7, 20715, Note_on_c, 5, 60, 0
7, 20715, Note_on_c, 5, 66, 100
7, 20715, Note_on_c, 5, 62, 100
7, 20726, Note_on_c, 5, 62, 0
7, 20726, Note_on_c, 5, 66, 0
7, 20726, Note_on_c, 5, 60, 100
7, 20726, Note_on_c, 5, 64, 100
7, 20737, Note_on_c, 5, 64, 0
7, 20737, Note_on_c, 5, 60, 0
7, 20737, Note_on_c, 5, 62, 100
7, 20737, Note_on_c, 5, 59, 100
7, 20748, Note_on_c, 5, 62, 0
7, 20748, Note_on_c, 5, 60, 100
7, 20748, Note_on_c, 5, 64, 100
7, 20752, Note_on_c, 5, 59, 0
7, 20759, Note_on_c, 5, 64, 0
7, 20760, Note_on_c, 5, 62, 100
7, 20760, Note_on_c, 5, 59, 100
7, 20763, Note_on_c, 5, 60, 0
7, 20880, Note_on_c, 5, 59, 0
7, 20880, Note_on_c, 5, 62, 0
7, 20880, Note_on_c, 5, 64, 100
7, 20880, Note_on_c, 5, 67, 100
7, 21000, Note_on_c, 5, 67, 0
7, 21000, Note_on_c, 5, 64, 0
7, 21000, Note_on_c, 5, 66, 100
7, 21000, Note_on_c, 5, 62, 100
7, 21120, Note_on_c, 5, 62, 0
7, 21120, Note_on_c, 5, 66, 0
7, 21120, Note_on_c, 5, 64, 100
7, 21120, Note_on_c, 5, 60, 100
7, 21135, Note_on_c, 5, 60, 0
7, 21135, Note_on_c, 5, 64, 0
7, 21135, Note_on_c, 5, 62, 100
7, 21135, Note_on_c, 5, 66, 100
7, 21150, Note_on_c, 5, 66, 0
7, 21150, Note_on_c, 5, 62, 0
7, 21150, Note_on_c, 5, 64, 100
7, 21150, Note_on_c, 5, 60, 100
7, 21165, Note_on_c, 5, 60, 0
7, 21165, Note_on_c, 5, 64, 0
7, 21165, Note_on_c, 5, 62, 100
7, 21165, Note_on_c, 5, 66, 100
7, 21180, Note_on_c, 5, 66, 0
7, 21180, Note_on_c, 5, 62, 0
7, 21180, Note_on_c, 5, 60, 100
7, 21180, Note_on_c, 5, 64, 100
7, 21195, Note_on_c, 5, 64, 0
7, 21195, Note_on_c, 5, 60, 0
7, 21195, Note_on_c, 5, 62, 100
7, 21195, Note_on_c, 5, 66, 100
7, 21206, Note_on_c, 5, 66, 0
7, 21206, Note_on_c, 5, 62, 0
7, 21206, Note_on_c, 5, 60, 100
7, 21206, Note_on_c, 5, 64, 100
7, 21217, Note_on_c, 5, 64, 0
7, 21217, Note_on_c, 5, 60, 0
7, 21217, Note_on_c, 5, 62, 100
7, 21217, Note_on_c, 5, 59, 100
7, 21228, Note_on_c, 5, 62, 0
7, 21228, Note_on_c, 5, 60, 100
7, 21228, Note_on_c, 5, 64, 100
7, 21232, Note_on_c, 5, 59, 0
7, 21239, Note_on_c, 5, 64, 0
7, 21240, Note_on_c, 5, 59, 100
7, 21240, Note_on_c, 5, 62, 100
7, 21243, Note_on_c, 5, 60, 0
7, 21360, Note_on_c, 5, 62, 0
7, 21360, Note_on_c, 5, 59, 0
7, 21360, Note_on_c, 5, 67, 45
7, 21480, Note_on_c, 5, 67, 0
7, 21480, Note_on_c, 5, 66, 45
7, 21600, Note_on_c, 5, 66, 0
7, 21600, Note_on_c, 5, 64, 100
7, 21600, Note_on_c, 5, 64, 41
7, 21720, Note_on_c, 5, 64, 0
7, 21840, Note_on_c, 5, 64, 0
7, 21840, Note_on_c, 5, 62, 100
7, 21840, Note_on_c, 5, 62, 41
7, 21960, Note_on_c, 5, 62, 0
7, 22080, Note_on_c, 5, 62, 0
7, 22080, Note_on_c, 5, 60, 44
7, 22320, Note_on_c, 5, 60, 0
7, 22320, Note_on_c, 5, 62, 45
7, 22560, Note_on_c, 5, 62, 0
7, 22560, Note_on_c, 5, 62, 127
7, 22590, Note_on_c, 5, 62, 0
7, 22590, Note_on_c, 5, 62, 127
7, 22620, Note_on_c, 5, 62, 0
7, 22620, Note_on_c, 5, 62, 127
7, 22650, Note_on_c, 5, 62, 0
7, 22650, Note_on_c, 5, 62, 127
7, 22680, Note_on_c, 5, 62, 0
7, 22680, Note_on_c, 5, 62, 127
7, 22710, Note_on_c, 5, 62, 0
7, 22710, Note_on_c, 5, 62, 127
7, 22740, Note_on_c, 5, 62, 0
7, 22740, Note_on_c, 5, 62, 127
7, 22770, Note_on_c, 5, 62, 0
7, 22770, Note_on_c, 5, 62, 127
7, 22800, Note_on_c, 5, 62, 0
7, 22800, Note_on_c, 5, 62, 127
7, 22830, Note_on_c, 5, 62, 0
7, 22830, Note_on_c, 5, 62, 127
7, 22860, Note_on_c, 5, 62, 0
7, 22860, Note_on_c, 5, 62, 127
7, 22890, Note_on_c, 5, 62, 0
7, 22890, Note_on_c, 5, 62, 127
7, 22920, Note_on_c, 5, 62, 0
7, 22920, Note_on_c, 5, 62, 127
7, 22950, Note_on_c, 5, 62, 0
7, 22950, Note_on_c, 5, 62, 127
7, 22980, Note_on_c, 5, 62, 0
7, 22980, Note_on_c, 5, 62, 127
7, 23010, Note_on_c, 5, 62, 0
7, 23010, Note_on_c, 5, 62, 127
7, 23040, Note_on_c, 5, 62, 0
7, 23040, Note_on_c, 5, 62, 127
7, 23070, Note_on_c, 5, 62, 0
7, 23070, Note_on_c, 5, 62, 127
7, 23100, Note_on_c, 5, 62, 0
7, 23100, Note_on_c, 5, 62, 127
7, 23130, Note_on_c, 5, 62, 0
7, 23130, Note_on_c, 5, 62, 127
7, 23160, Note_on_c, 5, 62, 0
7, 23160, Note_on_c, 5, 62, 127
7, 23190, Note_on_c, 5, 62, 0
7, 23190, Note_on_c, 5, 62, 127
7, 23220, Note_on_c, 5, 62, 0
7, 23220, Note_on_c, 5, 62, 127
7, 23250, Note_on_c, 5, 62, 0
7, 23250, Note_on_c, 5, 62, 127
7, 23280, Note_on_c, 5, 62, 0
7, 23280, Note_on_c, 5, 62, 127
7, 23310, Note_on_c, 5, 62, 0
7, 23310, Note_on_c, 5, 62, 127
7, 23340, Note_on_c, 5, 62, 0
7, 23340, Note_on_c, 5, 62, 127
7, 23370, Note_on_c, 5, 62, 0
7, 23370, Note_on_c, 5, 62, 127
7, 23400, Note_on_c, 5, 62, 0
7, 23400, Note_on_c, 5, 62, 127
7, 23430, Note_on_c, 5, 62, 0
7, 23430, Note_on_c, 5, 62, 127
7, 23460, Note_on_c, 5, 62, 0
7, 23460, Note_on_c, 5, 62, 127
7, 23490, Note_on_c, 5, 62, 0
7, 23490, Note_on_c, 5, 62, 127
7, 23520, Note_on_c, 5, 62, 0
7, 23520, Note_on_c, 5, 62, 127
7, 23550, Note_on_c, 5, 62, 0
7, 23550, Note_on_c, 5, 62, 127
7, 23580, Note_on_c, 5, 62, 0
7, 23580, Note_on_c, 5, 62, 127
7, 23610, Note_on_c, 5, 62, 0
7, 23610, Note_on_c, 5, 62, 127
7, 23640, Note_on_c, 5, 62, 0
7, 23640, Note_on_c, 5, 62, 127
7, 23670, Note_on_c, 5, 62, 0
7, 23670, Note_on_c, 5, 62, 127
7, 23700, Note_on_c, 5, 62, 0
7, 23700, Note_on_c, 5, 62, 127
7, 23730, Note_on_c, 5, 62, 0
7, 23730, Note_on_c, 5, 62, 127
7, 23760, Note_on_c, 5, 62, 0
7, 23760, Note_on_c, 5, 62, 127
7, 23790, Note_on_c, 5, 62, 0
7, 23790, Note_on_c, 5, 62, 127
7, 23820, Note_on_c, 5, 62, 0
7, 23820, Note_on_c, 5, 62, 127
7, 23850, Note_on_c, 5, 62, 0
7, 23850, Note_on_c, 5, 62, 127
7, 23880, Note_on_c, 5, 62, 0
7, 23880, Note_on_c, 5, 62, 127
7, 23910, Note_on_c, 5, 62, 0
7, 23910, Note_on_c, 5, 62, 127
7, 23940, Note_on_c, 5, 62, 0
7, 23940, Note_on_c, 5, 62, 127
7, 23970, Note_on_c, 5, 62, 0
7, 23970, Note_on_c, 5, 62, 127
7, 24000, Note_on_c, 5, 62, 0
7, 24000, Note_on_c, 5, 62, 127
7, 24030, Note_on_c, 5, 62, 0
7, 24030, Note_on_c, 5, 62, 127
7, 24060, Note_on_c, 5, 62, 0
7, 24060, Note_on_c, 5, 62, 127
7, 24090, Note_on_c, 5, 62, 0
7, 24090, Note_on_c, 5, 62, 127
7, 24120, Note_on_c, 5, 62, 0
7, 24120, Note_on_c, 5, 62, 127
7, 24150, Note_on_c, 5, 62, 0
7, 24150, Note_on_c, 5, 62, 127
7, 24180, Note_on_c, 5, 62, 0
7, 24180, Note_on_c, 5, 62, 127
7, 24210, Note_on_c, 5, 62, 0
7, 24210, Note_on_c, 5, 62, 127
7, 24240, Note_on_c, 5, 62, 0
7, 24240, Note_on_c, 5, 62, 127
7, 24270, Note_on_c, 5, 62, 0
7, 24270, Note_on_c, 5, 62, 127
7, 24300, Note_on_c, 5, 62, 0
7, 24300, Note_on_c, 5, 62, 127
7, 24330, Note_on_c, 5, 62, 0
7, 24330, Note_on_c, 5, 62, 127
7, 24360, Note_on_c, 5, 62, 0
7, 24360, Note_on_c, 5, 62, 127
7, 24390, Note_on_c, 5, 62, 0
7, 24390, Note_on_c, 5, 62, 127
7, 24420, Note_on_c, 5, 62, 0
7, 24420, Note_on_c, 5, 62, 127
7, 24450, Note_on_c, 5, 62, 0
7, 24450, Note_on_c, 5, 62, 127
7, 24480, Note_on_c, 5, 62, 0
7, 24480, Note_on_c, 5, 62, 127
7, 24600, Note_on_c, 5, 62, 0
7, 24600, Note_on_c, 5, 67, 127
7, 24690, Note_on_c, 5, 67, 0
7, 24690, Note_on_c, 5, 67, 127
7, 24720, Note_on_c, 5, 67, 0
7, 24720, Note_on_c, 5, 67, 127
7, 24840, Note_on_c, 5, 67, 0
7, 24960, Note_on_c, 5, 64, 127
7, 25080, Note_on_c, 5, 64, 0
7, 25080, Note_on_c, 5, 64, 127
7, 25170, Note_on_c, 5, 64, 0
7, 25170, Note_on_c, 5, 64, 127
7, 25200, Note_on_c, 5, 64, 0
7, 25200, Note_on_c, 5, 64, 127
7, 25320, Note_on_c, 5, 64, 0
7, 25440, Note_on_c, 5, 59, 127
7, 25560, Note_on_c, 5, 59, 0
7, 25560, Note_on_c, 5, 67, 127
7, 25650, Note_on_c, 5, 67, 0
7, 25650, Note_on_c, 5, 67, 127
7, 25680, Note_on_c, 5, 67, 0
7, 25680, Note_on_c, 5, 67, 127
7, 25800, Note_on_c, 5, 67, 0
7, 25800, Note_on_c, 5, 59, 127
7, 25920, Note_on_c, 5, 59, 0
7, 25920, Note_on_c, 5, 60, 127
7, 26040, Note_on_c, 5, 60, 0
7, 26040, Note_on_c, 5, 67, 127
7, 26160, Note_on_c, 5, 67, 0
7, 26160, Note_on_c, 5, 67, 127
7, 26280, Note_on_c, 5, 67, 0
7, 26280, Note_on_c, 5, 62, 127
7, 26400, Note_on_c, 5, 62, 0
7, 26400, Note_on_c, 5, 62, 127
7, 26520, Note_on_c, 5, 62, 0
7, 26520, Note_on_c, 5, 67, 127
7, 26610, Note_on_c, 5, 67, 0
7, 26610, Note_on_c, 5, 67, 127
7, 26640, Note_on_c, 5, 67, 0
7, 26640, Note_on_c, 5, 67, 127
7, 26760, Note_on_c, 5, 67, 0
7, 26880, Note_on_c, 5, 64, 127
7, 27000, Note_on_c, 5, 64, 0
7, 27000, Note_on_c, 5, 64, 127
7, 27090, Note_on_c, 5, 64, 0
7, 27090, Note_on_c, 5, 64, 127
7, 27120, Note_on_c, 5, 64, 0
7, 27120, Note_on_c, 5, 64, 127
7, 27240, Note_on_c, 5, 64, 0
7, 27360, Note_on_c, 5, 59, 127
7, 27480, Note_on_c, 5, 59, 0
7, 27480, Note_on_c, 5, 67, 127
7, 27570, Note_on_c, 5, 67, 0
7, 27570, Note_on_c, 5, 67, 127
7, 27600, Note_on_c, 5, 67, 0
7, 27600, Note_on_c, 5, 67, 127
7, 27720, Note_on_c, 5, 67, 0
7, 27720, Note_on_c, 5, 59, 127
7, 27840, Note_on_c, 5, 59, 0
7, 27840, Note_on_c, 5, 60, 127
7, 27960, Note_on_c, 5, 60, 0
7, 27960, Note_on_c, 5, 67, 127
7, 28080, Note_on_c, 5, 67, 0
7, 28080, Note_on_c, 5, 67, 127
7, 28200, Note_on_c, 5, 67, 0
7, 28200, Note_on_c, 5, 62, 127
7, 28320, Note_on_c, 5, 62, 0
7, 28320, Note_on_c, 5, 55, 127
7, 28320, Note_on_c, 5, 62, 127
7, 28350, Note_on_c, 5, 62, 0
7, 28350, Note_on_c, 5, 55, 0
7, 28350, Note_on_c, 5, 55, 127
7, 28350, Note_on_c, 5, 62, 127
7, 28380, Note_on_c, 5, 62, 0
7, 28380, Note_on_c, 5, 55, 0
7, 28380, Note_on_c, 5, 55, 127
7, 28380, Note_on_c, 5, 62, 127
7, 28410, Note_on_c, 5, 62, 0
7, 28410, Note_on_c, 5, 55, 0
7, 28410, Note_on_c, 5, 55, 127
7, 28410, Note_on_c, 5, 62, 127
7, 28440, Note_on_c, 5, 62, 0
7, 28440, Note_on_c, 5, 55, 0
7, 28440, Note_on_c, 5, 55, 127
7, 28440, Note_on_c, 5, 62, 127
7, 28470, Note_on_c, 5, 62, 0
7, 28470, Note_on_c, 5, 55, 0
7, 28470, Note_on_c, 5, 55, 127
7, 28470, Note_on_c, 5, 62, 127
7, 28500, Note_on_c, 5, 62, 0
7, 28500, Note_on_c, 5, 55, 0
7, 28500, Note_on_c, 5, 55, 127
7, 28500, Note_on_c, 5, 62, 127
7, 28530, Note_on_c, 5, 62, 0
7, 28530, Note_on_c, 5, 55, 0
7, 28530, Note_on_c, 5, 55, 127
7, 28530, Note_on_c, 5, 62, 127
7, 28560, Note_on_c, 5, 62, 0
7, 28560, Note_on_c, 5, 55, 0
7, 28560, Note_on_c, 5, 55, 127
7, 28560, Note_on_c, 5, 62, 127
7, 28590, Note_on_c, 5, 62, 0
7, 28590, Note_on_c, 5, 55, 0
7, 28590, Note_on_c, 5, 55, 127
7, 28590, Note_on_c, 5, 62, 127
7, 28620, Note_on_c, 5, 62, 0
7, 28620, Note_on_c, 5, 55, 0
7, 28620, Note_on_c, 5, 55, 127
7, 28620, Note_on_c, 5, 62, 127
7, 28650, Note_on_c, 5, 62, 0
7, 28650, Note_on_c, 5, 55, 0
7, 28650, Note_on_c, 5, 55, 127
7, 28650, Note_on_c, 5, 62, 127
7, 28680, Note_on_c, 5, 62, 0
7, 28680, Note_on_c, 5, 55, 0
7, 28680, Note_on_c, 5, 55, 127
7, 28680, Note_on_c, 5, 62, 127
7, 28710, Note_on_c, 5, 62, 0
7, 28710, Note_on_c, 5, 55, 0
7, 28710, Note_on_c, 5, 55, 127
7, 28710, Note_on_c, 5, 62, 127
7, 28740, Note_on_c, 5, 62, 0
7, 28740, Note_on_c, 5, 55, 0
7, 28740, Note_on_c, 5, 55, 127
7, 28740, Note_on_c, 5, 62, 127
7, 28770, Note_on_c, 5, 62, 0
7, 28770, Note_on_c, 5, 55, 0
7, 28770, Note_on_c, 5, 55, 127
7, 28770, Note_on_c, 5, 62, 127
7, 28800, Note_on_c, 5, 62, 0
7, 28800, Note_on_c, 5, 55, 0
7, 28800, Note_on_c, 5, 55, 127
7, 28800, Note_on_c, 5, 62, 127
7, 28830, Note_on_c, 5, 62, 0
7, 28830, Note_on_c, 5, 55, 0
7, 28830, Note_on_c, 5, 55, 127
7, 28830, Note_on_c, 5, 62, 127
7, 28860, Note_on_c, 5, 62, 0
7, 28860, Note_on_c, 5, 55, 0
7, 28860, Note_on_c, 5, 55, 127
7, 28860, Note_on_c, 5, 62, 127
7, 28890, Note_on_c, 5, 62, 0
7, 28890, Note_on_c, 5, 55, 0
7, 28890, Note_on_c, 5, 55, 127
7, 28890, Note_on_c, 5, 62, 127
7, 28920, Note_on_c, 5, 62, 0
7, 28920, Note_on_c, 5, 55, 0
7, 28920, Note_on_c, 5, 55, 127
7, 28920, Note_on_c, 5, 62, 127
7, 28950, Note_on_c, 5, 62, 0
7, 28950, Note_on_c, 5, 55, 0
7, 28950, Note_on_c, 5, 55, 127
7, 28950, Note_on_c, 5, 62, 127
7, 28980, Note_on_c, 5, 62, 0
7, 28980, Note_on_c, 5, 55, 0
7, 28980, Note_on_c, 5, 55, 127
7, 28980, Note_on_c, 5, 62, 127
7, 29010, Note_on_c, 5, 62, 0
7, 29010, Note_on_c, 5, 55, 0
7, 29010, Note_on_c, 5, 55, 127
7, 29010, Note_on_c, 5, 62, 127
7, 29040, Note_on_c, 5, 62, 0
7, 29040, Note_on_c, 5, 55, 0
7, 29040, Note_on_c, 5, 55, 127
7, 29040, Note_on_c, 5, 62, 127
7, 29070, Note_on_c, 5, 62, 0
7, 29070, Note_on_c, 5, 55, 0
7, 29070, Note_on_c, 5, 55, 127
7, 29070, Note_on_c, 5, 62, 127
7, 29100, Note_on_c, 5, 62, 0
7, 29100, Note_on_c, 5, 55, 0
7, 29100, Note_on_c, 5, 55, 127
7, 29100, Note_on_c, 5, 62, 127
7, 29130, Note_on_c, 5, 62, 0
7, 29130, Note_on_c, 5, 55, 0
7, 29130, Note_on_c, 5, 55, 127
7, 29130, Note_on_c, 5, 62, 127
7, 29160, Note_on_c, 5, 62, 0
7, 29160, Note_on_c, 5, 55, 0
7, 29160, Note_on_c, 5, 55, 127
7, 29160, Note_on_c, 5, 62, 127
7, 29190, Note_on_c, 5, 62, 0
7, 29190, Note_on_c, 5, 55, 0
7, 29190, Note_on_c, 5, 55, 127
7, 29190, Note_on_c, 5, 62, 127
7, 29220, Note_on_c, 5, 62, 0
7, 29220, Note_on_c, 5, 55, 0
7, 29220, Note_on_c, 5, 55, 127
7, 29220, Note_on_c, 5, 62, 127
7, 29250, Note_on_c, 5, 62, 0
7, 29250, Note_on_c, 5, 55, 0
7, 29250, Note_on_c, 5, 55, 127
7, 29250, Note_on_c, 5, 62, 127
7, 29280, Note_on_c, 5, 62, 0
7, 29280, Note_on_c, 5, 55, 0
7, 29280, Note_on_c, 5, 55, 127
7, 29280, Note_on_c, 5, 62, 127
7, 29400, Note_on_c, 5, 62, 0
7, 29400, Note_on_c, 5, 55, 0
7, 29520, Note_on_c, 5, 67, 100
7, 29580, Note_on_c, 5, 67, 0
7, 29640, Note_on_c, 5, 66, 100
7, 29640, Note_on_c, 5, 69, 100
7, 29700, Note_on_c, 5, 69, 0
7, 29700, Note_on_c, 5, 66, 0
7, 29760, Note_on_c, 5, 67, 100
7, 29760, Note_on_c, 5, 71, 100
7, 29820, Note_on_c, 5, 71, 0
7, 29820, Note_on_c, 5, 67, 0
7, 29880, Note_on_c, 5, 69, 100
7, 29880, Note_on_c, 5, 72, 100
7, 29940, Note_on_c, 5, 72, 0
7, 29940, Note_on_c, 5, 69, 0
7, 30000, Note_on_c, 5, 67, 100
7, 30000, Note_on_c, 5, 71, 100
7, 30060, Note_on_c, 5, 71, 0
7, 30060, Note_on_c, 5, 67, 0
7, 30120, Note_on_c, 5, 66, 100
7, 30120, Note_on_c, 5, 69, 100
7, 30180, Note_on_c, 5, 69, 0
7, 30180, Note_on_c, 5, 66, 0
7, 30240, Note_on_c, 5, 67, 100
7, 30240, Note_on_c, 5, 71, 100
7, 30300, Note_on_c, 5, 71, 0
7, 30300, Note_on_c, 5, 67, 0
7, 30360, Note_on_c, 5, 69, 100
7, 30360, Note_on_c, 5, 72, 100
7, 30420, Note_on_c, 5, 72, 0
7, 30420, Note_on_c, 5, 69, 0
7, 30480, Note_on_c, 5, 67, 100
7, 30480, Note_on_c, 5, 71, 100
7, 30540, Note_on_c, 5, 71, 0
7, 30540, Note_on_c, 5, 67, 0
7, 30600, Note_on_c, 5, 66, 100
7, 30600, Note_on_c, 5, 69, 100
7, 30660, Note_on_c, 5, 69, 0
7, 30660, Note_on_c, 5, 66, 0
7, 30720, Note_on_c, 5, 67, 100
7, 30720, Note_on_c, 5, 71, 100
7, 30780, Note_on_c, 5, 71, 0
7, 30780, Note_on_c, 5, 67, 0
7, 30840, Note_on_c, 5, 69, 100
7, 30840, Note_on_c, 5, 72, 100
7, 30900, Note_on_c, 5, 72, 0
7, 30900, Note_on_c, 5, 69, 0
7, 30960, Note_on_c, 5, 67, 100
7, 30960, Note_on_c, 5, 71, 100
7, 31020, Note_on_c, 5, 71, 0
7, 31020, Note_on_c, 5, 67, 0
7, 31080, Note_on_c, 5, 66, 100
7, 31080, Note_on_c, 5, 69, 100
7, 31140, Note_on_c, 5, 69, 0
7, 31140, Note_on_c, 5, 66, 0
7, 31200, Note_on_c, 5, 67, 100
7, 31320, Note_on_c, 5, 67, 0
7, 31440, Note_on_c, 5, 55, 100
7, 31560, Note_on_c, 5, 55, 0
7, 31680, Note_on_c, 5, 55, 100
7, 31800, Note_on_c, 5, 55, 0
7, 32160, Note_on_c, 5, 64, 100
7, 32400, Note_on_c, 5, 64, 0
7, 33600, Note_on_c, 5, 64, 100
7, 33720, Note_on_c, 5, 64, 0
7, 33720, Note_on_c, 5, 57, 100
7, 33840, Note_on_c, 5, 57, 0
7, 34080, Note_on_c, 5, 62, 100
7, 34320, Note_on_c, 5, 62, 0
7, 35520, Note_on_c, 5, 62, 100
7, 35640, Note_on_c, 5, 62, 0
7, 35640, Note_on_c, 5, 55, 100
7, 35760, Note_on_c, 5, 55, 0
7, 36000, Note_on_c, 5, 60, 100
7, 36240, Note_on_c, 5, 60, 0
7, 37920, Note_on_c, 5, 65, 100
7, 37980, Note_on_c, 5, 65, 0
7, 37980, Note_on_c, 5, 65, 100
7, 38040, Note_on_c, 5, 65, 0
7, 38040, Note_on_c, 5, 65, 100
7, 38100, Note_on_c, 5, 65, 0
7, 38100, Note_on_c, 5, 65, 100
7, 38160, Note_on_c, 5, 65, 0
7, 38160, Note_on_c, 5, 64, 100
7, 38220, Note_on_c, 5, 64, 0
7, 38220, Note_on_c, 5, 64, 100
7, 38280, Note_on_c, 5, 64, 0
7, 38280, Note_on_c, 5, 64, 100
7, 38340, Note_on_c, 5, 64, 0
7, 38340, Note_on_c, 5, 64, 100
7, 38400, Note_on_c, 5, 64, 0
7, 38400, Note_on_c, 5, 65, 100
7, 38460, Note_on_c, 5, 65, 0
7, 38460, Note_on_c, 5, 65, 100
7, 38520, Note_on_c, 5, 65, 0
7, 38520, Note_on_c, 5, 65, 100
7, 38580, Note_on_c, 5, 65, 0
7, 38580, Note_on_c, 5, 65, 100
7, 38640, Note_on_c, 5, 65, 0
7, 38640, Note_on_c, 5, 64, 100
7, 38700, Note_on_c, 5, 64, 0
7, 38700, Note_on_c, 5, 64, 100
7, 38760, Note_on_c, 5, 64, 0
7, 38760, Note_on_c, 5, 64, 100
7, 38820, Note_on_c, 5, 64, 0
7, 38820, Note_on_c, 5, 64, 100
7, 38880, Note_on_c, 5, 64, 0
7, 38880, Note_on_c, 5, 62, 100
7, 38940, Note_on_c, 5, 62, 0
7, 38940, Note_on_c, 5, 62, 100
7, 39000, Note_on_c, 5, 62, 0
7, 39000, Note_on_c, 5, 62, 100
7, 39060, Note_on_c, 5, 62, 0
7, 39060, Note_on_c, 5, 62, 100
7, 39120, Note_on_c, 5, 62, 0
7, 39120, Note_on_c, 5, 67, 100
7, 39180, Note_on_c, 5, 67, 0
7, 39180, Note_on_c, 5, 67, 100
7, 39240, Note_on_c, 5, 67, 0
7, 39240, Note_on_c, 5, 67, 100
7, 39300, Note_on_c, 5, 67, 0
7, 39300, Note_on_c, 5, 67, 100
7, 39360, Note_on_c, 5, 67, 0
7, 39360, Note_on_c, 5, 60, 100
7, 39420, Note_on_c, 5, 60, 0
7, 39420, Note_on_c, 5, 60, 100
7, 39480, Note_on_c, 5, 60, 0
7, 39480, Note_on_c, 5, 60, 100
7, 39540, Note_on_c, 5, 60, 0
7, 39540, Note_on_c, 5, 60, 100
7, 39600, Note_on_c, 5, 60, 0
7, 39600, Note_on_c, 5, 64, 100
7, 39660, Note_on_c, 5, 64, 0
7, 39660, Note_on_c, 5, 64, 100
7, 39720, Note_on_c, 5, 64, 0
7, 39720, Note_on_c, 5, 64, 100
7, 39780, Note_on_c, 5, 64, 0
7, 39780, Note_on_c, 5, 64, 100
7, 39840, Note_on_c, 5, 64, 0
7, 39840, Note_on_c, 5, 65, 100
7, 39900, Note_on_c, 5, 65, 0
7, 39900, Note_on_c, 5, 65, 100
7, 39960, Note_on_c, 5, 65, 0
7, 39960, Note_on_c, 5, 65, 100
7, 40020, Note_on_c, 5, 65, 0
7, 40020, Note_on_c, 5, 65, 100
7, 40080, Note_on_c, 5, 65, 0
7, 40080, Note_on_c, 5, 67, 100
7, 40140, Note_on_c, 5, 67, 0
7, 40140, Note_on_c, 5, 67, 100
7, 40200, Note_on_c, 5, 67, 0
7, 40200, Note_on_c, 5, 67, 100
7, 40260, Note_on_c, 5, 67, 0
7, 40260, Note_on_c, 5, 67, 100
7, 40320, Note_on_c, 5, 67, 0
7, 40320, Note_on_c, 5, 60, 100
7, 40440, Note_on_c, 5, 60, 0
7, 40440, Note_on_c, 5, 59, 100
7, 40530, Note_on_c, 5, 59, 0
7, 40530, Note_on_c, 5, 57, 100
7, 40560, Note_on_c, 5, 57, 0
7, 40560, Note_on_c, 5, 55, 100
7, 40680, Note_on_c, 5, 55, 0
7, 40800, Note_on_c, 5, 60, 46
7, 41040, Note_on_c, 5, 60, 0
7, 41040, Note_on_c, 5, 55, 46
7, 41280, Note_on_c, 5, 55, 0
7, 41280, Note_on_c, 5, 60, 46
7, 41520, Note_on_c, 5, 60, 0
7, 41520, Note_on_c, 5, 57, 44
7, 41760, Note_on_c, 5, 57, 0
7, 41760, Note_on_c, 5, 53, 44
7, 42000, Note_on_c, 5, 53, 0
7, 42000, Note_on_c, 5, 55, 44
7, 42240, Note_on_c, 5, 55, 0
7, 42240, Note_on_c, 5, 72, 100
7, 42300, Note_on_c, 5, 72, 0
7, 42300, Note_on_c, 5, 72, 98
7, 42360, Note_on_c, 5, 72, 0
7, 42360, Note_on_c, 5, 72, 98
7, 42420, Note_on_c, 5, 72, 0
7, 42420, Note_on_c, 5, 72, 99
7, 42480, Note_on_c, 5, 72, 0
7, 42480, Note_on_c, 5, 68, 101
7, 42540, Note_on_c, 5, 68, 0
7, 42540, Note_on_c, 5, 68, 102
7, 42600, Note_on_c, 5, 68, 0
7, 42600, Note_on_c, 5, 68, 102
7, 42660, Note_on_c, 5, 68, 0
7, 42660, Note_on_c, 5, 68, 103
7, 42720, Note_on_c, 5, 68, 0
7, 42720, Note_on_c, 5, 69, 104
7, 42780, Note_on_c, 5, 69, 0
7, 42780, Note_on_c, 5, 69, 105
7, 42840, Note_on_c, 5, 69, 0
7, 42840, Note_on_c, 5, 69, 106
7, 42900, Note_on_c, 5, 69, 0
7, 42900, Note_on_c, 5, 69, 106
7, 42960, Note_on_c, 5, 69, 0
7, 42960, Note_on_c, 5, 64, 107
7, 43020, Note_on_c, 5, 64, 0
7, 43020, Note_on_c, 5, 64, 107
7, 43080, Note_on_c, 5, 64, 0
7, 43080, Note_on_c, 5, 64, 109
7, 43140, Note_on_c, 5, 64, 0
7, 43140, Note_on_c, 5, 64, 111
7, 43200, Note_on_c, 5, 64, 0
7, 43200, Note_on_c, 5, 65, 112
7, 43260, Note_on_c, 5, 65, 0
7, 43260, Note_on_c, 5, 65, 115
7, 43320, Note_on_c, 5, 65, 0
7, 43320, Note_on_c, 5, 65, 117
7, 43380, Note_on_c, 5, 65, 0
7, 43380, Note_on_c, 5, 65, 118
7, 43440, Note_on_c, 5, 65, 0
7, 43440, Note_on_c, 5, 59, 125
7, 43500, Note_on_c, 5, 59, 0
7, 43500, Note_on_c, 5, 59, 127
7, 43560, Note_on_c, 5, 59, 0
7, 43560, Note_on_c, 5, 59, 127
7, 43620, Note_on_c, 5, 59, 0
7, 43620, Note_on_c, 5, 59, 127
7, 43680, Note_on_c, 5, 59, 0
7, 43680, Note_on_c, 5, 60, 127
7, 43740, Note_on_c, 5, 60, 0
7, 43740, Note_on_c, 5, 60, 127
7, 43800, Note_on_c, 5, 60, 0
7, 43800, Note_on_c, 5, 60, 124
7, 43860, Note_on_c, 5, 60, 0
7, 43860, Note_on_c, 5, 60, 127
7, 43920, Note_on_c, 5, 60, 0
7, 43920, Note_on_c, 5, 56, 127
7, 43980, Note_on_c, 5, 56, 0
7, 43980, Note_on_c, 5, 56, 127
7, 44040, Note_on_c, 5, 56, 0
7, 44040, Note_on_c, 5, 56, 127
7, 44100, Note_on_c, 5, 56, 0
7, 44100, Note_on_c, 5, 56, 127
7, 44160, Note_on_c, 5, 56, 0
7, 44160, Note_on_c, 5, 55, 127
7, 44220, Note_on_c, 5, 55, 0
7, 44220, Note_on_c, 5, 67, 127
7, 44280, Note_on_c, 5, 67, 0
7, 44280, Note_on_c, 5, 62, 127
7, 44340, Note_on_c, 5, 62, 0
7, 44340, Note_on_c, 5, 59, 127
7, 44400, Note_on_c, 5, 59, 0
7, 44400, Note_on_c, 5, 55, 127
7, 44460, Note_on_c, 5, 55, 0
7, 44460, Note_on_c, 5, 55, 127
7, 44520, Note_on_c, 5, 55, 0
7, 44520, Note_on_c, 5, 55, 127
7, 44580, Note_on_c, 5, 55, 0
7, 44580, Note_on_c, 5, 55, 127
7, 44640, Note_on_c, 5, 55, 0
7, 44640, Note_on_c, 5, 55, 127
7, 44700, Note_on_c, 5, 55, 0
7, 44700, Note_on_c, 5, 55, 127
7, 44760, Note_on_c, 5, 55, 0
7, 44760, Note_on_c, 5, 55, 127
7, 44820, Note_on_c, 5, 55, 0
7, 44820, Note_on_c, 5, 55, 127
7, 44880, Note_on_c, 5, 55, 0
7, 44880, Note_on_c, 5, 67, 127
7, 44940, Note_on_c, 5, 67, 0
7, 44940, Note_on_c, 5, 67, 127
7, 45000, Note_on_c, 5, 67, 0
7, 45000, Note_on_c, 5, 64, 127
7, 45060, Note_on_c, 5, 64, 0
7, 45060, Note_on_c, 5, 60, 127
7, 45120, Note_on_c, 5, 60, 0
7, 45120, Note_on_c, 5, 55, 127
7, 45180, Note_on_c, 5, 55, 0
7, 45180, Note_on_c, 5, 67, 127
7, 45240, Note_on_c, 5, 67, 0
7, 45240, Note_on_c, 5, 62, 127
7, 45300, Note_on_c, 5, 62, 0
7, 45300, Note_on_c, 5, 59, 127
7, 45360, Note_on_c, 5, 59, 0
7, 45360, Note_on_c, 5, 55, 127
7, 45420, Note_on_c, 5, 55, 0
7, 45420, Note_on_c, 5, 55, 127
7, 45480, Note_on_c, 5, 55, 0
7, 45480, Note_on_c, 5, 55, 127
7, 45540, Note_on_c, 5, 55, 0
7, 45540, Note_on_c, 5, 55, 127
7, 45600, Note_on_c, 5, 55, 0
7, 45600, Note_on_c, 5, 55, 127
7, 45660, Note_on_c, 5, 55, 0
7, 45660, Note_on_c, 5, 55, 127
7, 45720, Note_on_c, 5, 55, 0
7, 45720, Note_on_c, 5, 55, 127
7, 45780, Note_on_c, 5, 55, 0
7, 45780, Note_on_c, 5, 55, 127
7, 45840, Note_on_c, 5, 55, 0
7, 45840, Note_on_c, 5, 67, 127
7, 45900, Note_on_c, 5, 67, 0
7, 45900, Note_on_c, 5, 67, 127
7, 45960, Note_on_c, 5, 67, 0
7, 45960, Note_on_c, 5, 64, 127
7, 46020, Note_on_c, 5, 64, 0
7, 46020, Note_on_c, 5, 60, 127
7, 46080, Note_on_c, 5, 60, 0
7, 46080, Note_on_c, 5, 55, 127
7, 46200, Note_on_c, 5, 55, 0
7, 46320, Note_on_c, 5, 67, 127
7, 46440, Note_on_c, 5, 67, 0
7, 46560, Note_on_c, 5, 55, 127
7, 46680, Note_on_c, 5, 55, 0
7, 48000, Note_on_c, 5, 55, 100
7, 48120, Note_on_c, 5, 55, 0
7, 48120, Note_on_c, 5, 67, 100
7, 48240, Note_on_c, 5, 67, 0
7, 48240, Note_on_c, 5, 55, 100
7, 48360, Note_on_c, 5, 55, 0
7, 49440, Note_on_c, 5, 55, 100
7, 49560, Note_on_c, 5, 55, 0
7, 49560, Note_on_c, 5, 67, 100
7, 49680, Note_on_c, 5, 67, 0
7, 49680, Note_on_c, 5, 55, 100
7, 49800, Note_on_c, 5, 55, 0
7, 49920, Note_on_c, 5, 64, 100
7, 49920, Note_on_c, 5, 67, 100
7, 50100, Note_on_c, 5, 67, 0
7, 50100, Note_on_c, 5, 64, 0
7, 50100, Note_on_c, 5, 65, 100
7, 50100, Note_on_c, 5, 69, 100
7, 50130, Note_on_c, 5, 69, 0
7, 50130, Note_on_c, 5, 65, 0
7, 50130, Note_on_c, 5, 67, 100
7, 50130, Note_on_c, 5, 64, 100
7, 50160, Note_on_c, 5, 64, 0
7, 50160, Note_on_c, 5, 67, 0
7, 50160, Note_on_c, 5, 72, 100
7, 50160, Note_on_c, 5, 69, 100
7, 50280, Note_on_c, 5, 69, 0
7, 50280, Note_on_c, 5, 72, 0
7, 50280, Note_on_c, 5, 71, 100
7, 50280, Note_on_c, 5, 67, 100
7, 50400, Note_on_c, 5, 67, 0
7, 50400, Note_on_c, 5, 71, 0
7, 50400, Note_on_c, 5, 65, 100
7, 50400, Note_on_c, 5, 69, 100
7, 50415, Note_on_c, 5, 69, 0
7, 50415, Note_on_c, 5, 65, 0
7, 50415, Note_on_c, 5, 67, 100
7, 50415, Note_on_c, 5, 71, 100
7, 50430, Note_on_c, 5, 71, 0
7, 50430, Note_on_c, 5, 67, 0
7, 50430, Note_on_c, 5, 65, 100
7, 50430, Note_on_c, 5, 69, 100
7, 50445, Note_on_c, 5, 69, 0
7, 50445, Note_on_c, 5, 65, 0
7, 50445, Note_on_c, 5, 67, 100
7, 50445, Note_on_c, 5, 71, 100
7, 50460, Note_on_c, 5, 71, 0
7, 50460, Note_on_c, 5, 67, 0
7, 50460, Note_on_c, 5, 65, 100
7, 50460, Note_on_c, 5, 69, 100
7, 50475, Note_on_c, 5, 69, 0
7, 50475, Note_on_c, 5, 65, 0
7, 50475, Note_on_c, 5, 71, 100
7, 50475, Note_on_c, 5, 67, 100
7, 50486, Note_on_c, 5, 67, 0
7, 50486, Note_on_c, 5, 71, 0
7, 50486, Note_on_c, 5, 65, 100
7, 50486, Note_on_c, 5, 69, 100
7, 50497, Note_on_c, 5, 69, 0
7, 50497, Note_on_c, 5, 65, 0
7, 50497, Note_on_c, 5, 67, 100
7, 50497, Note_on_c, 5, 64, 100
7, 50508, Note_on_c, 5, 67, 0
7, 50508, Note_on_c, 5, 65, 100
7, 50508, Note_on_c, 5, 69, 100
7, 50512, Note_on_c, 5, 64, 0
7, 50519, Note_on_c, 5, 69, 0
7, 50520, Note_on_c, 5, 67, 100
7, 50520, Note_on_c, 5, 64, 100
7, 50523, Note_on_c, 5, 65, 0
7, 50640, Note_on_c, 5, 64, 0
7, 50640, Note_on_c, 5, 67, 0
7, 50640, Note_on_c, 5, 69, 100
7, 50640, Note_on_c, 5, 72, 100
7, 50760, Note_on_c, 5, 72, 0
7, 50760, Note_on_c, 5, 69, 0
7, 50760, Note_on_c, 5, 71, 100
7, 50760, Note_on_c, 5, 67, 100
7, 50880, Note_on_c, 5, 67, 0
7, 50880, Note_on_c, 5, 71, 0
7, 50880, Note_on_c, 5, 69, 100
7, 50880, Note_on_c, 5, 65, 100
7, 50895, Note_on_c, 5, 65, 0
7, 50895, Note_on_c, 5, 69, 0
7, 50895, Note_on_c, 5, 67, 100
7, 50895, Note_on_c, 5, 71, 100
7, 50910, Note_on_c, 5, 71, 0
7, 50910, Note_on_c, 5, 67, 0
7, 50910, Note_on_c, 5, 69, 100
7, 50910, Note_on_c, 5, 65, 100
7, 50925, Note_on_c, 5, 65, 0
7, 50925, Note_on_c, 5, 69, 0
7, 50925, Note_on_c, 5, 67, 100
7, 50925, Note_on_c, 5, 71, 100
7, 50940, Note_on_c, 5, 71, 0
7, 50940, Note_on_c, 5, 67, 0
7, 50940, Note_on_c, 5, 65, 100
7, 50940, Note_on_c, 5, 69, 100
7, 50955, Note_on_c, 5, 69, 0
7, 50955, Note_on_c, 5, 65, 0
7, 50955, Note_on_c, 5, 67, 100
7, 50955, Note_on_c, 5, 71, 100
7, 50966, Note_on_c, 5, 71, 0
7, 50966, Note_on_c, 5, 67, 0
7, 50966, Note_on_c, 5, 65, 100
7, 50966, Note_on_c, 5, 69, 100
7, 50977, Note_on_c, 5, 69, 0
7, 50977, Note_on_c, 5, 65, 0
7, 50977, Note_on_c, 5, 67, 100
7, 50977, Note_on_c, 5, 64, 100
7, 50988, Note_on_c, 5, 67, 0
7, 50988, Note_on_c, 5, 65, 100
7, 50988, Note_on_c, 5, 69, 100
7, 50992, Note_on_c, 5, 64, 0
7, 50999, Note_on_c, 5, 69, 0
7, 51000, Note_on_c, 5, 64, 100
7, 51000, Note_on_c, 5, 67, 100
7, 51003, Note_on_c, 5, 65, 0
7, 51120, Note_on_c, 5, 67, 0
7, 51120, Note_on_c, 5, 64, 0
7, 51120, Note_on_c, 5, 72, 45
7, 51240, Note_on_c, 5, 72, 0
7, 51240, Note_on_c, 5, 71, 45
7, 51360, Note_on_c, 5, 71, 0
7, 51360, Note_on_c, 5, 69, 100
7, 51360, Note_on_c, 5, 69, 41
7, 51480, Note_on_c, 5, 69, 0
7, 51600, Note_on_c, 5, 69, 0
7, 51600, Note_on_c, 5, 67, 100
7, 51600, Note_on_c, 5, 67, 41
7, 51720, Note_on_c, 5, 67, 0
7, 51840, Note_on_c, 5, 67, 0
7, 51840, Note_on_c, 5, 65, 44
7, 52080, Note_on_c, 5, 65, 0
7, 52080, Note_on_c, 5, 67, 45
7, 52320, Note_on_c, 5, 67, 0
7, 52320, Note_on_c, 5, 64, 100
7, 52320, Note_on_c, 5, 67, 100
7, 52500, Note_on_c, 5, 67, 0
7, 52500, Note_on_c, 5, 64, 0
7, 52500, Note_on_c, 5, 65, 100
7, 52500, Note_on_c, 5, 69, 100
7, 52530, Note_on_c, 5, 69, 0
7, 52530, Note_on_c, 5, 65, 0
7, 52530, Note_on_c, 5, 67, 100
7, 52530, Note_on_c, 5, 64, 100
7, 52560, Note_on_c, 5, 64, 0
7, 52560, Note_on_c, 5, 67, 0
7, 52560, Note_on_c, 5, 72, 100
7, 52560, Note_on_c, 5, 69, 100
7, 52680, Note_on_c, 5, 69, 0
7, 52680, Note_on_c, 5, 72, 0
7, 52680, Note_on_c, 5, 71, 100
7, 52680, Note_on_c, 5, 67, 100
7, 52800, Note_on_c, 5, 67, 0
7, 52800, Note_on_c, 5, 71, 0
7, 52800, Note_on_c, 5, 65, 100
7, 52800, Note_on_c, 5, 69, 100
7, 52815, Note_on_c, 5, 69, 0
7, 52815, Note_on_c, 5, 65, 0
7, 52815, Note_on_c, 5, 67, 100
7, 52815, Note_on_c, 5, 71, 100
7, 52830, Note_on_c, 5, 71, 0
7, 52830, Note_on_c, 5, 67, 0
7, 52830, Note_on_c, 5, 65, 100
7, 52830, Note_on_c, 5, 69, 100
7, 52845, Note_on_c, 5, 69, 0
7, 52845, Note_on_c, 5, 65, 0
7, 52845, Note_on_c, 5, 67, 100
7, 52845, Note_on_c, 5, 71, 100
7, 52860, Note_on_c, 5, 71, 0
7, 52860, Note_on_c, 5, 67, 0
7, 52860, Note_on_c, 5, 65, 100
7, 52860, Note_on_c, 5, 69, 100
7, 52875, Note_on_c, 5, 69, 0
7, 52875, Note_on_c, 5, 65, 0
7, 52875, Note_on_c, 5, 71, 100
7, 52875, Note_on_c, 5, 67, 100
7, 52886, Note_on_c, 5, 67, 0
7, 52886, Note_on_c, 5, 71, 0
7, 52886, Note_on_c, 5, 65, 100
7, 52886, Note_on_c, 5, 69, 100
7, 52897, Note_on_c, 5, 69, 0
7, 52897, Note_on_c, 5, 65, 0
7, 52897, Note_on_c, 5, 67, 100
7, 52897, Note_on_c, 5, 64, 100
7, 52908, Note_on_c, 5, 67, 0
7, 52908, Note_on_c, 5, 65, 100
7, 52908, Note_on_c, 5, 69, 100
7, 52912, Note_on_c, 5, 64, 0
7, 52919, Note_on_c, 5, 69, 0
7, 52920, Note_on_c, 5, 67, 100
7, 52920, Note_on_c, 5, 64, 100
7, 52923, Note_on_c, 5, 65, 0
7, 53040, Note_on_c, 5, 64, 0
7, 53040, Note_on_c, 5, 67, 0
7, 53040, Note_on_c, 5, 69, 100
7, 53040, Note_on_c, 5, 72, 100
7, 53160, Note_on_c, 5, 72, 0
7, 53160, Note_on_c, 5, 69, 0
7, 53160, Note_on_c, 5, 71, 100
7, 53160, Note_on_c, 5, 67, 100
7, 53280, Note_on_c, 5, 67, 0
7, 53280, Note_on_c, 5, 71, 0
7, 53280, Note_on_c, 5, 69, 100
7, 53280, Note_on_c, 5, 65, 100
7, 53295, Note_on_c, 5, 65, 0
7, 53295, Note_on_c, 5, 69, 0
7, 53295, Note_on_c, 5, 67, 100
7, 53295, Note_on_c, 5, 71, 100
7, 53310, Note_on_c, 5, 71, 0
7, 53310, Note_on_c, 5, 67, 0
7, 53310, Note_on_c, 5, 69, 100
7, 53310, Note_on_c, 5, 65, 100
7, 53325, Note_on_c, 5, 65, 0
7, 53325, Note_on_c, 5, 69, 0
7, 53325, Note_on_c, 5, 67, 100
7, 53325, Note_on_c, 5, 71, 100
7, 53340, Note_on_c, 5, 71, 0
7, 53340, Note_on_c, 5, 67, 0
7, 53340, Note_on_c, 5, 65, 100
7, 53340, Note_on_c, 5, 69, 100
7, 53355, Note_on_c, 5, 69, 0
7, 53355, Note_on_c, 5, 65, 0
7, 53355, Note_on_c, 5, 67, 100
7, 53355, Note_on_c, 5, 71, 100
7, 53366, Note_on_c, 5, 71, 0
7, 53366, Note_on_c, 5, 67, 0
7, 53366, Note_on_c, 5, 65, 100
7, 53366, Note_on_c, 5, 69, 100
7, 53377, Note_on_c, 5, 69, 0
7, 53377, Note_on_c, 5, 65, 0
7, 53377, Note_on_c, 5, 67, 100
7, 53377, Note_on_c, 5, 64, 100
7, 53388, Note_on_c, 5, 67, 0
7, 53388, Note_on_c, 5, 65, 100
7, 53388, Note_on_c, 5, 69, 100
7, 53392, Note_on_c, 5, 64, 0
7, 53399, Note_on_c, 5, 69, 0
7, 53400, Note_on_c, 5, 64, 100
7, 53400, Note_on_c, 5, 67, 100
7, 53403, Note_on_c, 5, 65, 0
7, 53520, Note_on_c, 5, 67, 0
7, 53520, Note_on_c, 5, 64, 0
7, 53520, Note_on_c, 5, 72, 45
7, 53640, Note_on_c, 5, 72, 0
7, 53640, Note_on_c, 5, 71, 45
7, 53760, Note_on_c, 5, 71, 0
7, 53760, Note_on_c, 5, 69, 100
7, 53760, Note_on_c, 5, 69, 41
7, 53880, Note_on_c, 5, 69, 0
7, 54000, Note_on_c, 5, 69, 0
7, 54000, Note_on_c, 5, 67, 100
7, 54000, Note_on_c, 5, 67, 41
7, 54120, Note_on_c, 5, 67, 0
7, 54240, Note_on_c, 5, 67, 0
7, 54240, Note_on_c, 5, 65, 44
7, 54480, Note_on_c, 5, 65, 0
7, 54480, Note_on_c, 5, 67, 45
7, 54720, Note_on_c, 5, 67, 0
7, 54720, Note_on_c, 5, 67, 127
7, 54750, Note_on_c, 5, 67, 0
7, 54750, Note_on_c, 5, 67, 127
7, 54780, Note_on_c, 5, 67, 0
7, 54780, Note_on_c, 5, 67, 127
7, 54810, Note_on_c, 5, 67, 0
7, 54810, Note_on_c, 5, 67, 127
7, 54840, Note_on_c, 5, 67, 0
7, 54840, Note_on_c, 5, 67, 127
7, 54870, Note_on_c, 5, 67, 0
7, 54870, Note_on_c, 5, 67, 127
7, 54900, Note_on_c, 5, 67, 0
7, 54900, Note_on_c, 5, 67, 127
7, 54930, Note_on_c, 5, 67, 0
7, 54930, Note_on_c, 5, 67, 127
7, 54960, Note_on_c, 5, 67, 0
7, 54960, Note_on_c, 5, 67, 127
7, 54990, Note_on_c, 5, 67, 0
7, 54990, Note_on_c, 5, 67, 127
7, 55020, Note_on_c, 5, 67, 0
7, 55020, Note_on_c, 5, 67, 127
7, 55050, Note_on_c, 5, 67, 0
7, 55050, Note_on_c, 5, 67, 127
7, 55080, Note_on_c, 5, 67, 0
7, 55080, Note_on_c, 5, 67, 127
7, 55110, Note_on_c, 5, 67, 0
7, 55110, Note_on_c, 5, 67, 127
7, 55140, Note_on_c, 5, 67, 0
7, 55140, Note_on_c, 5, 67, 127
7, 55170, Note_on_c, 5, 67, 0
7, 55170, Note_on_c, 5, 67, 127
7, 55200, Note_on_c, 5, 67, 0
7, 55200, Note_on_c, 5, 67, 127
7, 55230, Note_on_c, 5, 67, 0
7, 55230, Note_on_c, 5, 67, 127
7, 55260, Note_on_c, 5, 67, 0
7, 55260, Note_on_c, 5, 67, 127
7, 55290, Note_on_c, 5, 67, 0
7, 55290, Note_on_c, 5, 67, 127
7, 55320, Note_on_c, 5, 67, 0
7, 55320, Note_on_c, 5, 67, 127
7, 55350, Note_on_c, 5, 67, 0
7, 55350, Note_on_c, 5, 67, 127
7, 55380, Note_on_c, 5, 67, 0
7, 55380, Note_on_c, 5, 67, 127
7, 55410, Note_on_c, 5, 67, 0
7, 55410, Note_on_c, 5, 67, 127
7, 55440, Note_on_c, 5, 67, 0
7, 55440, Note_on_c, 5, 67, 127
7, 55470, Note_on_c, 5, 67, 0
7, 55470, Note_on_c, 5, 67, 127
7, 55500, Note_on_c, 5, 67, 0
7, 55500, Note_on_c, 5, 67, 127
7, 55530, Note_on_c, 5, 67, 0
7, 55530, Note_on_c, 5, 67, 127
7, 55560, Note_on_c, 5, 67, 0
7, 55560, Note_on_c, 5, 67, 127
7, 55590, Note_on_c, 5, 67, 0
7, 55590, Note_on_c, 5, 67, 127
7, 55620, Note_on_c, 5, 67, 0
7, 55620, Note_on_c, 5, 67, 127
7, 55650, Note_on_c, 5, 67, 0
7, 55650, Note_on_c, 5, 67, 127
7, 55680, Note_on_c, 5, 67, 0
7, 55680, Note_on_c, 5, 67, 127
7, 55710, Note_on_c, 5, 67, 0
7, 55710, Note_on_c, 5, 67, 127
7, 55740, Note_on_c, 5, 67, 0
7, 55740, Note_on_c, 5, 67, 127
7, 55770, Note_on_c, 5, 67, 0
7, 55770, Note_on_c, 5, 67, 127
7, 55800, Note_on_c, 5, 67, 0
7, 55800, Note_on_c, 5, 67, 127
7, 55830, Note_on_c, 5, 67, 0
7, 55830, Note_on_c, 5, 67, 127
7, 55860, Note_on_c, 5, 67, 0
7, 55860, Note_on_c, 5, 67, 127
7, 55890, Note_on_c, 5, 67, 0
7, 55890, Note_on_c, 5, 67, 127
7, 55920, Note_on_c, 5, 67, 0
7, 55920, Note_on_c, 5, 67, 127
7, 55950, Note_on_c, 5, 67, 0
7, 55950, Note_on_c, 5, 67, 127
7, 55980, Note_on_c, 5, 67, 0
7, 55980, Note_on_c, 5, 67, 127
7, 56010, Note_on_c, 5, 67, 0
7, 56010, Note_on_c, 5, 67, 127
7, 56040, Note_on_c, 5, 67, 0
7, 56040, Note_on_c, 5, 67, 127
7, 56070, Note_on_c, 5, 67, 0
7, 56070, Note_on_c, 5, 67, 127
7, 56100, Note_on_c, 5, 67, 0
7, 56100, Note_on_c, 5, 67, 127
7, 56130, Note_on_c, 5, 67, 0
7, 56130, Note_on_c, 5, 67, 127
7, 56160, Note_on_c, 5, 67, 0
7, 56160, Note_on_c, 5, 67, 127
7, 56190, Note_on_c, 5, 67, 0
7, 56190, Note_on_c, 5, 67, 127
7, 56220, Note_on_c, 5, 67, 0
7, 56220, Note_on_c, 5, 67, 127
7, 56250, Note_on_c, 5, 67, 0
7, 56250, Note_on_c, 5, 67, 127
7, 56280, Note_on_c, 5, 67, 0
7, 56280, Note_on_c, 5, 67, 127
7, 56310, Note_on_c, 5, 67, 0
7, 56310, Note_on_c, 5, 67, 127
7, 56340, Note_on_c, 5, 67, 0
7, 56340, Note_on_c, 5, 67, 127
7, 56370, Note_on_c, 5, 67, 0
7, 56370, Note_on_c, 5, 67, 127
7, 56400, Note_on_c, 5, 67, 0
7, 56400, Note_on_c, 5, 67, 127
7, 56430, Note_on_c, 5, 67, 0
7, 56430, Note_on_c, 5, 67, 127
7, 56460, Note_on_c, 5, 67, 0
7, 56460, Note_on_c, 5, 67, 127
7, 56490, Note_on_c, 5, 67, 0
7, 56490, Note_on_c, 5, 67, 127
7, 56520, Note_on_c, 5, 67, 0
7, 56520, Note_on_c, 5, 67, 127
7, 56550, Note_on_c, 5, 67, 0
7, 56550, Note_on_c, 5, 67, 127
7, 56580, Note_on_c, 5, 67, 0
7, 56580, Note_on_c, 5, 67, 127
7, 56610, Note_on_c, 5, 67, 0
7, 56610, Note_on_c, 5, 67, 127
7, 56640, Note_on_c, 5, 67, 0
7, 56640, Note_on_c, 5, 67, 127
7, 56760, Note_on_c, 5, 67, 0
7, 56760, Note_on_c, 5, 67, 127
7, 56850, Note_on_c, 5, 67, 0
7, 56850, Note_on_c, 5, 67, 127
7, 56880, Note_on_c, 5, 67, 0
7, 56880, Note_on_c, 5, 67, 127
7, 57000, Note_on_c, 5, 67, 0
7, 57120, Note_on_c, 5, 69, 127
7, 57240, Note_on_c, 5, 69, 0
7, 57240, Note_on_c, 5, 69, 127
7, 57330, Note_on_c, 5, 69, 0
7, 57330, Note_on_c, 5, 69, 127
7, 57360, Note_on_c, 5, 69, 0
7, 57360, Note_on_c, 5, 69, 127
7, 57480, Note_on_c, 5, 69, 0
7, 57600, Note_on_c, 5, 64, 127
7, 57720, Note_on_c, 5, 64, 0
7, 57720, Note_on_c, 5, 64, 127
7, 57810, Note_on_c, 5, 64, 0
7, 57810, Note_on_c, 5, 64, 127
7, 57840, Note_on_c, 5, 64, 0
7, 57840, Note_on_c, 5, 64, 127
7, 57960, Note_on_c, 5, 64, 0
7, 58200, Note_on_c, 5, 60, 127
7, 58320, Note_on_c, 5, 60, 0
7, 58320, Note_on_c, 5, 64, 127
7, 58440, Note_on_c, 5, 64, 0
7, 58440, Note_on_c, 5, 67, 127
7, 58560, Note_on_c, 5, 67, 0
7, 58560, Note_on_c, 5, 67, 127
7, 58680, Note_on_c, 5, 67, 0
7, 58680, Note_on_c, 5, 67, 127
7, 58770, Note_on_c, 5, 67, 0
7, 58770, Note_on_c, 5, 67, 127
7, 58800, Note_on_c, 5, 67, 0
7, 58800, Note_on_c, 5, 67, 127
7, 58920, Note_on_c, 5, 67, 0
7, 59040, Note_on_c, 5, 69, 127
7, 59160, Note_on_c, 5, 69, 0
7, 59160, Note_on_c, 5, 69, 127
7, 59250, Note_on_c, 5, 69, 0
7, 59250, Note_on_c, 5, 69, 127
7, 59280, Note_on_c, 5, 69, 0
7, 59280, Note_on_c, 5, 69, 127
7, 59400, Note_on_c, 5, 69, 0
7, 59520, Note_on_c, 5, 64, 127
7, 59640, Note_on_c, 5, 64, 0
7, 59640, Note_on_c, 5, 67, 127
7, 59730, Note_on_c, 5, 67, 0
7, 59730, Note_on_c, 5, 67, 127
7, 59760, Note_on_c, 5, 67, 0
7, 59760, Note_on_c, 5, 67, 127
7, 59880, Note_on_c, 5, 67, 0
7, 59880, Note_on_c, 5, 64, 127
7, 59910, Note_on_c, 5, 64, 0
7, 59910, Note_on_c, 5, 65, 127
7, 59940, Note_on_c, 5, 65, 0
7, 59940, Note_on_c, 5, 67, 127
7, 59970, Note_on_c, 5, 67, 0
7, 59970, Note_on_c, 5, 64, 127
7, 60000, Note_on_c, 5, 64, 0
7, 60000, Note_on_c, 5, 65, 127
7, 60120, Note_on_c, 5, 65, 0
7, 60120, Note_on_c, 5, 60, 127
7, 60240, Note_on_c, 5, 60, 0
7, 60240, Note_on_c, 5, 64, 127
7, 60360, Note_on_c, 5, 64, 0
7, 60360, Note_on_c, 5, 67, 127
7, 60480, Note_on_c, 5, 67, 0
7, 60480, Note_on_c, 5, 67, 127
7, 60510, Note_on_c, 5, 67, 0
7, 60510, Note_on_c, 5, 67, 127
7, 60540, Note_on_c, 5, 67, 0
7, 60540, Note_on_c, 5, 67, 127
7, 60570, Note_on_c, 5, 67, 0
7, 60570, Note_on_c, 5, 67, 127
7, 60600, Note_on_c, 5, 67, 0
7, 60600, Note_on_c, 5, 67, 127
7, 60630, Note_on_c, 5, 67, 0
7, 60630, Note_on_c, 5, 67, 127
7, 60660, Note_on_c, 5, 67, 0
7, 60660, Note_on_c, 5, 67, 127
7, 60690, Note_on_c, 5, 67, 0
7, 60690, Note_on_c, 5, 67, 127
7, 60720, Note_on_c, 5, 67, 0
7, 60720, Note_on_c, 5, 67, 127
7, 60750, Note_on_c, 5, 67, 0
7, 60750, Note_on_c, 5, 67, 127
7, 60780, Note_on_c, 5, 67, 0
7, 60780, Note_on_c, 5, 67, 127
7, 60810, Note_on_c, 5, 67, 0
7, 60810, Note_on_c, 5, 67, 127
7, 60840, Note_on_c, 5, 67, 0
7, 60840, Note_on_c, 5, 67, 127
7, 60870, Note_on_c, 5, 67, 0
7, 60870, Note_on_c, 5, 67, 127
7, 60900, Note_on_c, 5, 67, 0
7, 60900, Note_on_c, 5, 67, 127
7, 60930, Note_on_c, 5, 67, 0
7, 60930, Note_on_c, 5, 67, 127
7, 60960, Note_on_c, 5, 67, 0
7, 60960, Note_on_c, 5, 67, 127
7, 60990, Note_on_c, 5, 67, 0
7, 60990, Note_on_c, 5, 67, 127
7, 61020, Note_on_c, 5, 67, 0
7, 61020, Note_on_c, 5, 67, 127
7, 61050, Note_on_c, 5, 67, 0
7, 61050, Note_on_c, 5, 67, 127
7, 61080, Note_on_c, 5, 67, 0
7, 61080, Note_on_c, 5, 67, 127
7, 61110, Note_on_c, 5, 67, 0
7, 61110, Note_on_c, 5, 67, 127
7, 61140, Note_on_c, 5, 67, 0
7, 61140, Note_on_c, 5, 67, 127
7, 61170, Note_on_c, 5, 67, 0
7, 61170, Note_on_c, 5, 67, 127
7, 61200, Note_on_c, 5, 67, 0
7, 61200, Note_on_c, 5, 67, 127
7, 61230, Note_on_c, 5, 67, 0
7, 61230, Note_on_c, 5, 67, 127
7, 61260, Note_on_c, 5, 67, 0
7, 61260, Note_on_c, 5, 67, 127
7, 61290, Note_on_c, 5, 67, 0
7, 61290, Note_on_c, 5, 67, 127
7, 61320, Note_on_c, 5, 67, 0
7, 61320, Note_on_c, 5, 67, 127
7, 61350, Note_on_c, 5, 67, 0
7, 61350, Note_on_c, 5, 67, 127
7, 61380, Note_on_c, 5, 67, 0
7, 61380, Note_on_c, 5, 67, 127
7, 61410, Note_on_c, 5, 67, 0
7, 61410, Note_on_c, 5, 67, 127
7, 61440, Note_on_c, 5, 67, 0
7, 61440, Note_on_c, 5, 67, 127
7, 61560, Note_on_c, 5, 67, 0
7, 61920, Note_on_c, 5, 60, 127
7, 61920, Note_on_c, 5, 64, 127
7, 61980, Note_on_c, 5, 64, 0
7, 61980, Note_on_c, 5, 60, 0
7, 62040, Note_on_c, 5, 62, 127
7, 62040, Note_on_c, 5, 65, 127
7, 62100, Note_on_c, 5, 65, 0
7, 62100, Note_on_c, 5, 62, 0
7, 62160, Note_on_c, 5, 60, 127
7, 62160, Note_on_c, 5, 64, 127
7, 62220, Note_on_c, 5, 64, 0
7, 62220, Note_on_c, 5, 60, 0
7, 62280, Note_on_c, 5, 59, 127
7, 62280, Note_on_c, 5, 62, 127
7, 62340, Note_on_c, 5, 62, 0
7, 62340, Note_on_c, 5, 59, 0
7, 62400, Note_on_c, 5, 60, 127
7, 62400, Note_on_c, 5, 64, 127
7, 62460, Note_on_c, 5, 64, 0
7, 62460, Note_on_c, 5, 60, 0
7, 62520, Note_on_c, 5, 62, 127
7, 62520, Note_on_c, 5, 65, 127
7, 62580, Note_on_c, 5, 65, 0
7, 62580, Note_on_c, 5, 62, 0
7, 62640, Note_on_c, 5, 60, 127
7, 62640, Note_on_c, 5, 64, 127
7, 62700, Note_on_c, 5, 64, 0
7, 62700, Note_on_c, 5, 60, 0
7, 62760, Note_on_c, 5, 59, 127
7, 62760, Note_on_c, 5, 62, 127
7, 62820, Note_on_c, 5, 62, 0
7, 62820, Note_on_c, 5, 59, 0
7, 62880, Note_on_c, 5, 60, 127
7, 62880, Note_on_c, 5, 64, 127
7, 62940, Note_on_c, 5, 64, 0
7, 62940, Note_on_c, 5, 60, 0
7, 63000, Note_on_c, 5, 62, 127
7, 63000, Note_on_c, 5, 65, 127
7, 63060, Note_on_c, 5, 65, 0
7, 63060, Note_on_c, 5, 62, 0
7, 63120, Note_on_c, 5, 60, 127
7, 63120, Note_on_c, 5, 64, 127
7, 63180, Note_on_c, 5, 64, 0
7, 63180, Note_on_c, 5, 60, 0
7, 63240, Note_on_c, 5, 59, 127
7, 63240, Note_on_c, 5, 62, 127
7, 63300, Note_on_c, 5, 62, 0
7, 63300, Note_on_c, 5, 59, 0
7, 63360, Note_on_c, 5, 60, 127
7, 63480, Note_on_c, 5, 60, 0
7, 63480, Note_on_c, 5, 67, 127
7, 63600, Note_on_c, 5, 67, 0
7, 63720, Note_on_c, 5, 72, 127
7, 63840, Note_on_c, 5, 72, 0
7, 63960, Note_on_c, 5, 67, 127
7, 64080, Note_on_c, 5, 67, 0
7, 64080, Note_on_c, 5, 60, 127
7, 64200, Note_on_c, 5, 60, 0
7, 64200, Note_on_c, 5, 60, 127
7, 64320, Note_on_c, 5, 60, 0
7, 64320, Note_on_c, 5, 60, 127
7, 64800, Note_on_c, 5, 60, 0
7, 64800, End_track
8, 0, Start_track
8, 0, MIDI_port, 0
8, 0, Title_t, "Cello and Bass"
8, 0, Control_c, 6, 0, 4
8, 0, Program_c, 6, 48
8, 0, Control_c, 6, 7, 127
8, 0, Control_c, 6, 10, 105
8, 0, Note_on_c, 6, 48, 100
8, 120, Note_on_c, 6, 48, 0
8, 120, Note_on_c, 6, 52, 100
8, 240, Note_on_c, 6, 52, 0
8, 240, Note_on_c, 6, 55, 100
8, 360, Note_on_c, 6, 55, 0
8, 360, Note_on_c, 6, 52, 100
8, 480, Note_on_c, 6, 52, 0
8, 480, Note_on_c, 6, 48, 100
8, 600, Note_on_c, 6, 48, 0
8, 600, Note_on_c, 6, 52, 100
8, 720, Note_on_c, 6, 52, 0
8, 720, Note_on_c, 6, 55, 100
8, 840, Note_on_c, 6, 55, 0
8, 840, Note_on_c, 6, 52, 100
8, 960, Note_on_c, 6, 52, 0
8, 960, Note_on_c, 6, 48, 100
8, 1080, Note_on_c, 6, 48, 0
8, 1920, Note_on_c, 6, 43, 100
8, 2040, Note_on_c, 6, 43, 0
8, 2040, Note_on_c, 6, 47, 100
8, 2160, Note_on_c, 6, 47, 0
8, 2160, Note_on_c, 6, 50, 100
8, 2280, Note_on_c, 6, 50, 0
8, 2280, Note_on_c, 6, 47, 100
8, 2400, Note_on_c, 6, 47, 0
8, 2400, Note_on_c, 6, 43, 100
8, 2520, Note_on_c, 6, 43, 0
8, 2520, Note_on_c, 6, 47, 100
8, 2640, Note_on_c, 6, 47, 0
8, 2640, Note_on_c, 6, 50, 100
8, 2760, Note_on_c, 6, 50, 0
8, 2760, Note_on_c, 6, 47, 100
8, 2880, Note_on_c, 6, 47, 0
8, 2880, Note_on_c, 6, 43, 100
8, 3000, Note_on_c, 6, 43, 0
8, 3840, Note_on_c, 6, 48, 100
8, 3960, Note_on_c, 6, 48, 0
8, 3960, Note_on_c, 6, 52, 100
8, 4080, Note_on_c, 6, 52, 0
8, 4080, Note_on_c, 6, 55, 100
8, 4200, Note_on_c, 6, 55, 0
8, 4200, Note_on_c, 6, 52, 100
8, 4320, Note_on_c, 6, 52, 0
8, 4320, Note_on_c, 6, 48, 100
8, 4440, Note_on_c, 6, 48, 0
8, 4440, Note_on_c, 6, 52, 100
8, 4560, Note_on_c, 6, 52, 0
8, 4560, Note_on_c, 6, 55, 100
8, 4680, Note_on_c, 6, 55, 0
8, 4680, Note_on_c, 6, 52, 100
8, 4800, Note_on_c, 6, 52, 0
8, 4800, Note_on_c, 6, 48, 100
8, 4920, Note_on_c, 6, 48, 0
8, 5760, Note_on_c, 6, 53, 100
8, 5820, Note_on_c, 6, 53, 0
8, 5820, Note_on_c, 6, 53, 100
8, 5880, Note_on_c, 6, 53, 0
8, 5880, Note_on_c, 6, 53, 100
8, 5940, Note_on_c, 6, 53, 0
8, 5940, Note_on_c, 6, 53, 100
8, 6000, Note_on_c, 6, 53, 0
8, 6000, Note_on_c, 6, 52, 100
8, 6060, Note_on_c, 6, 52, 0
8, 6060, Note_on_c, 6, 52, 100
8, 6120, Note_on_c, 6, 52, 0
8, 6120, Note_on_c, 6, 52, 100
8, 6180, Note_on_c, 6, 52, 0
8, 6180, Note_on_c, 6, 52, 100
8, 6240, Note_on_c, 6, 52, 0
8, 6240, Note_on_c, 6, 53, 100
8, 6300, Note_on_c, 6, 53, 0
8, 6300, Note_on_c, 6, 53, 100
8, 6360, Note_on_c, 6, 53, 0
8, 6360, Note_on_c, 6, 53, 100
8, 6420, Note_on_c, 6, 53, 0
8, 6420, Note_on_c, 6, 53, 100
8, 6480, Note_on_c, 6, 53, 0
8, 6480, Note_on_c, 6, 52, 100
8, 6540, Note_on_c, 6, 52, 0
8, 6540, Note_on_c, 6, 52, 100
8, 6600, Note_on_c, 6, 52, 0
8, 6600, Note_on_c, 6, 52, 100
8, 6660, Note_on_c, 6, 52, 0
8, 6660, Note_on_c, 6, 52, 100
8, 6720, Note_on_c, 6, 52, 0
8, 6720, Note_on_c, 6, 50, 100
8, 6780, Note_on_c, 6, 50, 0
8, 6780, Note_on_c, 6, 50, 100
8, 6840, Note_on_c, 6, 50, 0
8, 6840, Note_on_c, 6, 50, 100
8, 6900, Note_on_c, 6, 50, 0
8, 6900, Note_on_c, 6, 50, 100
8, 6960, Note_on_c, 6, 50, 0
8, 6960, Note_on_c, 6, 55, 100
8, 7020, Note_on_c, 6, 55, 0
8, 7020, Note_on_c, 6, 55, 100
8, 7080, Note_on_c, 6, 55, 0
8, 7080, Note_on_c, 6, 55, 100
8, 7140, Note_on_c, 6, 55, 0
8, 7140, Note_on_c, 6, 55, 100
8, 7200, Note_on_c, 6, 55, 0
8, 7200, Note_on_c, 6, 48, 100
8, 7260, Note_on_c, 6, 48, 0
8, 7260, Note_on_c, 6, 48, 100
8, 7320, Note_on_c, 6, 48, 0
8, 7320, Note_on_c, 6, 48, 100
8, 7380, Note_on_c, 6, 48, 0
8, 7380, Note_on_c, 6, 48, 100
8, 7440, Note_on_c, 6, 48, 0
8, 7440, Note_on_c, 6, 52, 100
8, 7500, Note_on_c, 6, 52, 0
8, 7500, Note_on_c, 6, 52, 100
8, 7560, Note_on_c, 6, 52, 0
8, 7560, Note_on_c, 6, 52, 100
8, 7620, Note_on_c, 6, 52, 0
8, 7620, Note_on_c, 6, 52, 100
8, 7680, Note_on_c, 6, 52, 0
8, 7680, Note_on_c, 6, 53, 100
8, 7740, Note_on_c, 6, 53, 0
8, 7740, Note_on_c, 6, 53, 100
8, 7800, Note_on_c, 6, 53, 0
8, 7800, Note_on_c, 6, 53, 100
8, 7860, Note_on_c, 6, 53, 0
8, 7860, Note_on_c, 6, 53, 100
8, 7920, Note_on_c, 6, 53, 0
8, 7920, Note_on_c, 6, 55, 100
8, 7980, Note_on_c, 6, 55, 0
8, 7980, Note_on_c, 6, 55, 100
8, 8040, Note_on_c, 6, 55, 0
8, 8040, Note_on_c, 6, 55, 100
8, 8100, Note_on_c, 6, 55, 0
8, 8100, Note_on_c, 6, 55, 100
8, 8160, Note_on_c, 6, 55, 0
8, 8160, Note_on_c, 6, 48, 100
8, 8280, Note_on_c, 6, 48, 0
8, 8280, Note_on_c, 6, 47, 100
8, 8370, Note_on_c, 6, 47, 0
8, 8370, Note_on_c, 6, 45, 100
8, 8400, Note_on_c, 6, 45, 0
8, 8400, Note_on_c, 6, 43, 100
8, 8520, Note_on_c, 6, 43, 0
8, 8640, Note_on_c, 6, 45, 47
8, 8880, Note_on_c, 6, 45, 0
8, 8880, Note_on_c, 6, 47, 45
8, 9120, Note_on_c, 6, 47, 0
8, 9120, Note_on_c, 6, 48, 44
8, 9360, Note_on_c, 6, 48, 0
8, 9360, Note_on_c, 6, 57, 42
8, 9600, Note_on_c, 6, 57, 0
8, 9600, Note_on_c, 6, 53, 42
8, 9840, Note_on_c, 6, 53, 0
8, 9840, Note_on_c, 6, 55, 42
8, 10080, Note_on_c, 6, 55, 0
8, 10080, Note_on_c, 6, 60, 100
8, 10140, Note_on_c, 6, 60, 0
8, 10140, Note_on_c, 6, 60, 98
8, 10200, Note_on_c, 6, 60, 0
8, 10200, Note_on_c, 6, 60, 98
8, 10260, Note_on_c, 6, 60, 0
8, 10260, Note_on_c, 6, 60, 98
8, 10320, Note_on_c, 6, 60, 0
8, 10320, Note_on_c, 6, 56, 98
8, 10380, Note_on_c, 6, 56, 0
8, 10380, Note_on_c, 6, 56, 100
8, 10440, Note_on_c, 6, 56, 0
8, 10440, Note_on_c, 6, 56, 100
8, 10500, Note_on_c, 6, 56, 0
8, 10500, Note_on_c, 6, 56, 101
8, 10560, Note_on_c, 6, 56, 0
8, 10560, Note_on_c, 6, 57, 101
8, 10620, Note_on_c, 6, 57, 0
8, 10620, Note_on_c, 6, 57, 101
8, 10680, Note_on_c, 6, 57, 0
8, 10680, Note_on_c, 6, 57, 102
8, 10740, Note_on_c, 6, 57, 0
8, 10740, Note_on_c, 6, 57, 103
8, 10800, Note_on_c, 6, 57, 0
8, 10800, Note_on_c, 6, 52, 104
8, 10860, Note_on_c, 6, 52, 0
8, 10860, Note_on_c, 6, 52, 104
8, 10920, Note_on_c, 6, 52, 0
8, 10920, Note_on_c, 6, 52, 105
8, 10980, Note_on_c, 6, 52, 0
8, 10980, Note_on_c, 6, 52, 105
8, 11040, Note_on_c, 6, 52, 0
8, 11040, Note_on_c, 6, 53, 108
8, 11100, Note_on_c, 6, 53, 0
8, 11100, Note_on_c, 6, 53, 109
8, 11160, Note_on_c, 6, 53, 0
8, 11160, Note_on_c, 6, 53, 110
8, 11220, Note_on_c, 6, 53, 0
8, 11220, Note_on_c, 6, 53, 112
8, 11280, Note_on_c, 6, 53, 0
8, 11280, Note_on_c, 6, 47, 112
8, 11340, Note_on_c, 6, 47, 0
8, 11340, Note_on_c, 6, 47, 113
8, 11400, Note_on_c, 6, 47, 0
8, 11400, Note_on_c, 6, 47, 114
8, 11460, Note_on_c, 6, 47, 0
8, 11460, Note_on_c, 6, 47, 114
8, 11520, Note_on_c, 6, 47, 0
8, 11520, Note_on_c, 6, 48, 114
8, 11580, Note_on_c, 6, 48, 0
8, 11580, Note_on_c, 6, 48, 116
8, 11640, Note_on_c, 6, 48, 0
8, 11640, Note_on_c, 6, 48, 117
8, 11700, Note_on_c, 6, 48, 0
8, 11700, Note_on_c, 6, 48, 119
8, 11760, Note_on_c, 6, 48, 0
8, 11760, Note_on_c, 6, 44, 121
8, 11820, Note_on_c, 6, 44, 0
8, 11820, Note_on_c, 6, 44, 123
8, 11880, Note_on_c, 6, 44, 0
8, 11880, Note_on_c, 6, 44, 125
8, 11940, Note_on_c, 6, 44, 0
8, 11940, Note_on_c, 6, 44, 126
8, 12000, Note_on_c, 6, 44, 0
8, 12000, Note_on_c, 6, 43, 127
8, 12060, Note_on_c, 6, 43, 0
8, 12060, Note_on_c, 6, 55, 127
8, 12120, Note_on_c, 6, 55, 0
8, 12120, Note_on_c, 6, 50, 127
8, 12180, Note_on_c, 6, 50, 0
8, 12180, Note_on_c, 6, 47, 127
8, 12240, Note_on_c, 6, 47, 0
8, 12240, Note_on_c, 6, 43, 127
8, 12300, Note_on_c, 6, 43, 0
8, 12300, Note_on_c, 6, 43, 127
8, 12360, Note_on_c, 6, 43, 0
8, 12360, Note_on_c, 6, 43, 127
8, 12420, Note_on_c, 6, 43, 0
8, 12420, Note_on_c, 6, 43, 127
8, 12480, Note_on_c, 6, 43, 0
8, 12480, Note_on_c, 6, 43, 127
8, 12540, Note_on_c, 6, 43, 0
8, 12540, Note_on_c, 6, 43, 127
8, 12600, Note_on_c, 6, 43, 0
8, 12600, Note_on_c, 6, 43, 127
8, 12660, Note_on_c, 6, 43, 0
8, 12660, Note_on_c, 6, 43, 127
8, 12720, Note_on_c, 6, 43, 0
8, 12720, Note_on_c, 6, 55, 127
8, 12780, Note_on_c, 6, 55, 0
8, 12780, Note_on_c, 6, 55, 127
8, 12840, Note_on_c, 6, 55, 0
8, 12840, Note_on_c, 6, 52, 127
8, 12900, Note_on_c, 6, 52, 0
8, 12900, Note_on_c, 6, 48, 127
8, 12960, Note_on_c, 6, 48, 0
8, 12960, Note_on_c, 6, 43, 127
8, 13020, Note_on_c, 6, 43, 0
8, 13020, Note_on_c, 6, 55, 127
8, 13080, Note_on_c, 6, 55, 0
8, 13080, Note_on_c, 6, 50, 127
8, 13140, Note_on_c, 6, 50, 0
8, 13140, Note_on_c, 6, 47, 127
8, 13200, Note_on_c, 6, 47, 0
8, 13200, Note_on_c, 6, 43, 127
8, 13260, Note_on_c, 6, 43, 0
8, 13260, Note_on_c, 6, 43, 127
8, 13320, Note_on_c, 6, 43, 0
8, 13320, Note_on_c, 6, 43, 127
8, 13380, Note_on_c, 6, 43, 0
8, 13380, Note_on_c, 6, 43, 127
8, 13440, Note_on_c, 6, 43, 0
8, 13440, Note_on_c, 6, 43, 127
8, 13500, Note_on_c, 6, 43, 0
8, 13500, Note_on_c, 6, 43, 127
8, 13560, Note_on_c, 6, 43, 0
8, 13560, Note_on_c, 6, 43, 127
8, 13620, Note_on_c, 6, 43, 0
8, 13620, Note_on_c, 6, 43, 127
8, 13680, Note_on_c, 6, 43, 0
8, 13680, Note_on_c, 6, 55, 127
8, 13740, Note_on_c, 6, 55, 0
8, 13740, Note_on_c, 6, 55, 127
8, 13800, Note_on_c, 6, 55, 0
8, 13800, Note_on_c, 6, 52, 127
8, 13860, Note_on_c, 6, 52, 0
8, 13860, Note_on_c, 6, 48, 127
8, 13920, Note_on_c, 6, 48, 0
8, 13920, Note_on_c, 6, 43, 127
8, 14040, Note_on_c, 6, 43, 0
8, 14160, Note_on_c, 6, 55, 127
8, 14280, Note_on_c, 6, 55, 0
8, 14400, Note_on_c, 6, 43, 127
8, 14520, Note_on_c, 6, 43, 0
8, 15840, Note_on_c, 6, 50, 100
8, 15960, Note_on_c, 6, 50, 0
8, 15960, Note_on_c, 6, 50, 100
8, 16080, Note_on_c, 6, 50, 0
8, 16080, Note_on_c, 6, 50, 100
8, 16200, Note_on_c, 6, 50, 0
8, 17280, Note_on_c, 6, 50, 100
8, 17400, Note_on_c, 6, 50, 0
8, 17400, Note_on_c, 6, 50, 100
8, 17520, Note_on_c, 6, 50, 0
8, 17520, Note_on_c, 6, 50, 100
8, 17640, Note_on_c, 6, 50, 0
8, 17760, Note_on_c, 6, 43, 100
8, 18000, Note_on_c, 6, 43, 0
8, 18240, Note_on_c, 6, 43, 100
8, 18480, Note_on_c, 6, 43, 0
8, 18720, Note_on_c, 6, 43, 100
8, 18960, Note_on_c, 6, 43, 0
8, 18960, Note_on_c, 6, 55, 43
8, 19080, Note_on_c, 6, 55, 0
8, 19080, Note_on_c, 6, 54, 43
8, 19200, Note_on_c, 6, 54, 0
8, 19200, Note_on_c, 6, 52, 100
8, 19200, Note_on_c, 6, 52, 41
8, 19320, Note_on_c, 6, 52, 0
8, 19440, Note_on_c, 6, 52, 0
8, 19440, Note_on_c, 6, 50, 100
8, 19440, Note_on_c, 6, 50, 41
8, 19560, Note_on_c, 6, 50, 0
8, 19680, Note_on_c, 6, 50, 0
8, 19680, Note_on_c, 6, 48, 44
8, 19920, Note_on_c, 6, 48, 0
8, 19920, Note_on_c, 6, 50, 45
8, 20160, Note_on_c, 6, 50, 0
8, 20160, Note_on_c, 6, 43, 100
8, 20400, Note_on_c, 6, 43, 0
8, 20640, Note_on_c, 6, 43, 100
8, 20880, Note_on_c, 6, 43, 0
8, 21120, Note_on_c, 6, 43, 100
8, 21360, Note_on_c, 6, 43, 0
8, 21360, Note_on_c, 6, 55, 43
8, 21480, Note_on_c, 6, 55, 0
8, 21480, Note_on_c, 6, 54, 43
8, 21600, Note_on_c, 6, 54, 0
8, 21600, Note_on_c, 6, 52, 100
8, 21600, Note_on_c, 6, 52, 41
8, 21720, Note_on_c, 6, 52, 0
8, 21840, Note_on_c, 6, 52, 0
8, 21840, Note_on_c, 6, 50, 100
8, 21840, Note_on_c, 6, 50, 41
8, 21960, Note_on_c, 6, 50, 0
8, 22080, Note_on_c, 6, 50, 0
8, 22080, Note_on_c, 6, 48, 44
8, 22320, Note_on_c, 6, 48, 0
8, 22320, Note_on_c, 6, 50, 45
8, 22560, Note_on_c, 6, 50, 0
8, 22560, Note_on_c, 6, 43, 127
8, 22560, Note_on_c, 6, 55, 127
8, 22680, Note_on_c, 6, 55, 0
8, 22680, Note_on_c, 6, 43, 0
8, 22800, Note_on_c, 6, 43, 127
8, 22800, Note_on_c, 6, 55, 127
8, 22920, Note_on_c, 6, 55, 0
8, 22920, Note_on_c, 6, 43, 0
8, 22920, Note_on_c, 6, 47, 127
8, 22920, Note_on_c, 6, 59, 127
8, 23040, Note_on_c, 6, 59, 0
8, 23040, Note_on_c, 6, 47, 0
8, 23040, Note_on_c, 6, 50, 127
8, 23040, Note_on_c, 6, 62, 127
8, 23160, Note_on_c, 6, 62, 0
8, 23160, Note_on_c, 6, 50, 0
8, 23280, Note_on_c, 6, 38, 127
8, 23280, Note_on_c, 6, 50, 127
8, 23400, Note_on_c, 6, 50, 0
8, 23400, Note_on_c, 6, 38, 0
8, 23400, Note_on_c, 6, 42, 127
8, 23400, Note_on_c, 6, 54, 127
8, 23520, Note_on_c, 6, 54, 0
8, 23520, Note_on_c, 6, 42, 0
8, 23520, Note_on_c, 6, 43, 127
8, 23520, Note_on_c, 6, 55, 127
8, 23640, Note_on_c, 6, 55, 0
8, 23640, Note_on_c, 6, 43, 0
8, 23760, Note_on_c, 6, 43, 127
8, 23760, Note_on_c, 6, 55, 127
8, 23880, Note_on_c, 6, 55, 0
8, 23880, Note_on_c, 6, 43, 0
8, 23880, Note_on_c, 6, 47, 127
8, 23880, Note_on_c, 6, 59, 127
8, 24000, Note_on_c, 6, 59, 0
8, 24000, Note_on_c, 6, 47, 0
8, 24000, Note_on_c, 6, 50, 127
8, 24000, Note_on_c, 6, 62, 127
8, 24120, Note_on_c, 6, 62, 0
8, 24120, Note_on_c, 6, 50, 0
8, 24240, Note_on_c, 6, 38, 127
8, 24240, Note_on_c, 6, 50, 127
8, 24360, Note_on_c, 6, 50, 0
8, 24360, Note_on_c, 6, 38, 0
8, 24360, Note_on_c, 6, 42, 127
8, 24360, Note_on_c, 6, 54, 127
8, 24480, Note_on_c, 6, 54, 0
8, 24480, Note_on_c, 6, 42, 0
8, 24480, Note_on_c, 6, 43, 127
8, 24480, Note_on_c, 6, 55, 127
8, 24600, Note_on_c, 6, 55, 0
8, 24600, Note_on_c, 6, 43, 0
8, 24840, Note_on_c, 6, 43, 127
8, 24840, Note_on_c, 6, 55, 127
8, 24930, Note_on_c, 6, 55, 0
8, 24930, Note_on_c, 6, 43, 0
8, 24930, Note_on_c, 6, 43, 127
8, 24930, Note_on_c, 6, 55, 127
8, 24960, Note_on_c, 6, 55, 0
8, 24960, Note_on_c, 6, 43, 0
8, 24960, Note_on_c, 6, 40, 127
8, 24960, Note_on_c, 6, 52, 127
8, 25080, Note_on_c, 6, 52, 0
8, 25080, Note_on_c, 6, 40, 0
8, 25320, Note_on_c, 6, 40, 127
8, 25320, Note_on_c, 6, 52, 127
8, 25410, Note_on_c, 6, 52, 0
8, 25410, Note_on_c, 6, 40, 0
8, 25410, Note_on_c, 6, 40, 127
8, 25410, Note_on_c, 6, 52, 127
8, 25440, Note_on_c, 6, 52, 0
8, 25440, Note_on_c, 6, 40, 0
8, 25440, Note_on_c, 6, 35, 127
8, 25440, Note_on_c, 6, 47, 127
8, 25560, Note_on_c, 6, 47, 0
8, 25560, Note_on_c, 6, 35, 0
8, 25800, Note_on_c, 6, 35, 127
8, 25800, Note_on_c, 6, 47, 127
8, 25890, Note_on_c, 6, 47, 0
8, 25890, Note_on_c, 6, 35, 0
8, 25890, Note_on_c, 6, 35, 127
8, 25890, Note_on_c, 6, 47, 127
8, 25920, Note_on_c, 6, 47, 0
8, 25920, Note_on_c, 6, 35, 0
8, 25920, Note_on_c, 6, 36, 127
8, 25920, Note_on_c, 6, 48, 127
8, 26040, Note_on_c, 6, 48, 0
8, 26040, Note_on_c, 6, 36, 0
8, 26040, Note_on_c, 6, 48, 127
8, 26040, Note_on_c, 6, 60, 127
8, 26160, Note_on_c, 6, 60, 0
8, 26160, Note_on_c, 6, 48, 0
8, 26160, Note_on_c, 6, 50, 127
8, 26160, Note_on_c, 6, 62, 127
8, 26280, Note_on_c, 6, 62, 0
8, 26280, Note_on_c, 6, 50, 0
8, 26280, Note_on_c, 6, 38, 127
8, 26280, Note_on_c, 6, 50, 127
8, 26400, Note_on_c, 6, 50, 0
8, 26400, Note_on_c, 6, 38, 0
8, 26400, Note_on_c, 6, 43, 127
8, 26400, Note_on_c, 6, 55, 127
8, 26520, Note_on_c, 6, 55, 0
8, 26520, Note_on_c, 6, 43, 0
8, 26760, Note_on_c, 6, 43, 127
8, 26760, Note_on_c, 6, 55, 127
8, 26850, Note_on_c, 6, 55, 0
8, 26850, Note_on_c, 6, 43, 0
8, 26850, Note_on_c, 6, 43, 127
8, 26850, Note_on_c, 6, 55, 127
8, 26880, Note_on_c, 6, 55, 0
8, 26880, Note_on_c, 6, 43, 0
8, 26880, Note_on_c, 6, 40, 127
8, 26880, Note_on_c, 6, 52, 127
8, 27000, Note_on_c, 6, 52, 0
8, 27000, Note_on_c, 6, 40, 0
8, 27240, Note_on_c, 6, 40, 127
8, 27240, Note_on_c, 6, 52, 127
8, 27330, Note_on_c, 6, 52, 0
8, 27330, Note_on_c, 6, 40, 0
8, 27330, Note_on_c, 6, 40, 127
8, 27330, Note_on_c, 6, 52, 127
8, 27360, Note_on_c, 6, 52, 0
8, 27360, Note_on_c, 6, 40, 0
8, 27360, Note_on_c, 6, 35, 127
8, 27360, Note_on_c, 6, 47, 127
8, 27480, Note_on_c, 6, 47, 0
8, 27480, Note_on_c, 6, 35, 0
8, 27720, Note_on_c, 6, 35, 127
8, 27720, Note_on_c, 6, 47, 127
8, 27810, Note_on_c, 6, 47, 0
8, 27810, Note_on_c, 6, 35, 0
8, 27810, Note_on_c, 6, 35, 127
8, 27810, Note_on_c, 6, 47, 127
8, 27840, Note_on_c, 6, 47, 0
8, 27840, Note_on_c, 6, 35, 0
8, 27840, Note_on_c, 6, 36, 127
8, 27840, Note_on_c, 6, 48, 127
8, 27960, Note_on_c, 6, 48, 0
8, 27960, Note_on_c, 6, 36, 0
8, 27960, Note_on_c, 6, 48, 127
8, 27960, Note_on_c, 6, 60, 127
8, 28080, Note_on_c, 6, 60, 0
8, 28080, Note_on_c, 6, 48, 0
8, 28080, Note_on_c, 6, 50, 127
8, 28080, Note_on_c, 6, 62, 127
8, 28200, Note_on_c, 6, 62, 0
8, 28200, Note_on_c, 6, 50, 0
8, 28200, Note_on_c, 6, 38, 127
8, 28200, Note_on_c, 6, 50, 127
8, 28320, Note_on_c, 6, 50, 0
8, 28320, Note_on_c, 6, 38, 0
8, 28320, Note_on_c, 6, 43, 127
8, 28320, Note_on_c, 6, 55, 127
8, 28440, Note_on_c, 6, 55, 0
8, 28440, Note_on_c, 6, 43, 0
8, 28440, Note_on_c, 6, 47, 127
8, 28440, Note_on_c, 6, 59, 127
8, 28560, Note_on_c, 6, 59, 0
8, 28560, Note_on_c, 6, 47, 0
8, 28560, Note_on_c, 6, 50, 127
8, 28560, Note_on_c, 6, 62, 127
8, 28680, Note_on_c, 6, 62, 0
8, 28680, Note_on_c, 6, 50, 0
8, 28680, Note_on_c, 6, 47, 127
8, 28680, Note_on_c, 6, 59, 127
8, 28800, Note_on_c, 6, 59, 0
8, 28800, Note_on_c, 6, 47, 0
8, 28800, Note_on_c, 6, 43, 127
8, 28800, Note_on_c, 6, 55, 127
8, 28920, Note_on_c, 6, 55, 0
8, 28920, Note_on_c, 6, 43, 0
8, 28920, Note_on_c, 6, 47, 127
8, 28920, Note_on_c, 6, 59, 127
8, 29040, Note_on_c, 6, 59, 0
8, 29040, Note_on_c, 6, 47, 0
8, 29040, Note_on_c, 6, 50, 127
8, 29040, Note_on_c, 6, 62, 127
8, 29160, Note_on_c, 6, 62, 0
8, 29160, Note_on_c, 6, 50, 0
8, 29160, Note_on_c, 6, 47, 127
8, 29160, Note_on_c, 6, 59, 127
8, 29280, Note_on_c, 6, 59, 0
8, 29280, Note_on_c, 6, 47, 0
8, 29280, Note_on_c, 6, 43, 127
8, 29280, Note_on_c, 6, 55, 127
8, 29400, Note_on_c, 6, 55, 0
8, 29400, Note_on_c, 6, 43, 0
8, 30120, Note_on_c, 6, 50, 100
8, 30240, Note_on_c, 6, 50, 0
8, 30240, Note_on_c, 6, 55, 100
8, 30360, Note_on_c, 6, 55, 0
8, 30600, Note_on_c, 6, 50, 100
8, 30720, Note_on_c, 6, 50, 0
8, 30720, Note_on_c, 6, 55, 100
8, 30840, Note_on_c, 6, 55, 0
8, 31080, Note_on_c, 6, 50, 100
8, 31200, Note_on_c, 6, 50, 0
8, 31200, Note_on_c, 6, 43, 100
8, 31320, Note_on_c, 6, 43, 0
8, 31440, Note_on_c, 6, 55, 100
8, 31560, Note_on_c, 6, 55, 0
8, 31680, Note_on_c, 6, 43, 100
8, 31800, Note_on_c, 6, 43, 0
8, 32160, Note_on_c, 6, 52, 100
8, 32400, Note_on_c, 6, 52, 0
8, 33600, Note_on_c, 6, 52, 100
8, 33720, Note_on_c, 6, 52, 0
8, 33720, Note_on_c, 6, 45, 100
8, 33840, Note_on_c, 6, 45, 0
8, 34080, Note_on_c, 6, 50, 100
8, 34320, Note_on_c, 6, 50, 0
8, 35520, Note_on_c, 6, 50, 100
8, 35640, Note_on_c, 6, 50, 0
8, 35640, Note_on_c, 6, 43, 100
8, 35760, Note_on_c, 6, 43, 0
8, 36000, Note_on_c, 6, 48, 100
8, 36240, Note_on_c, 6, 48, 0
8, 37920, Note_on_c, 6, 53, 100
8, 37980, Note_on_c, 6, 53, 0
8, 37980, Note_on_c, 6, 53, 100
8, 38040, Note_on_c, 6, 53, 0
8, 38040, Note_on_c, 6, 53, 100
8, 38100, Note_on_c, 6, 53, 0
8, 38100, Note_on_c, 6, 53, 100
8, 38160, Note_on_c, 6, 53, 0
8, 38160, Note_on_c, 6, 52, 100
8, 38220, Note_on_c, 6, 52, 0
8, 38220, Note_on_c, 6, 52, 100
8, 38280, Note_on_c, 6, 52, 0
8, 38280, Note_on_c, 6, 52, 100
8, 38340, Note_on_c, 6, 52, 0
8, 38340, Note_on_c, 6, 52, 100
8, 38400, Note_on_c, 6, 52, 0
8, 38400, Note_on_c, 6, 53, 100
8, 38460, Note_on_c, 6, 53, 0
8, 38460, Note_on_c, 6, 53, 100
8, 38520, Note_on_c, 6, 53, 0
8, 38520, Note_on_c, 6, 53, 100
8, 38580, Note_on_c, 6, 53, 0
8, 38580, Note_on_c, 6, 53, 100
8, 38640, Note_on_c, 6, 53, 0
8, 38640, Note_on_c, 6, 52, 100
8, 38700, Note_on_c, 6, 52, 0
8, 38700, Note_on_c, 6, 52, 100
8, 38760, Note_on_c, 6, 52, 0
8, 38760, Note_on_c, 6, 52, 100
8, 38820, Note_on_c, 6, 52, 0
8, 38820, Note_on_c, 6, 52, 100
8, 38880, Note_on_c, 6, 52, 0
8, 38880, Note_on_c, 6, 50, 100
8, 38940, Note_on_c, 6, 50, 0
8, 38940, Note_on_c, 6, 50, 100
8, 39000, Note_on_c, 6, 50, 0
8, 39000, Note_on_c, 6, 50, 100
8, 39060, Note_on_c, 6, 50, 0
8, 39060, Note_on_c, 6, 50, 100
8, 39120, Note_on_c, 6, 50, 0
8, 39120, Note_on_c, 6, 55, 100
8, 39180, Note_on_c, 6, 55, 0
8, 39180, Note_on_c, 6, 55, 100
8, 39240, Note_on_c, 6, 55, 0
8, 39240, Note_on_c, 6, 55, 100
8, 39300, Note_on_c, 6, 55, 0
8, 39300, Note_on_c, 6, 55, 100
8, 39360, Note_on_c, 6, 55, 0
8, 39360, Note_on_c, 6, 48, 100
8, 39420, Note_on_c, 6, 48, 0
8, 39420, Note_on_c, 6, 48, 100
8, 39480, Note_on_c, 6, 48, 0
8, 39480, Note_on_c, 6, 48, 100
8, 39540, Note_on_c, 6, 48, 0
8, 39540, Note_on_c, 6, 48, 100
8, 39600, Note_on_c, 6, 48, 0
8, 39600, Note_on_c, 6, 52, 100
8, 39660, Note_on_c, 6, 52, 0
8, 39660, Note_on_c, 6, 52, 100
8, 39720, Note_on_c, 6, 52, 0
8, 39720, Note_on_c, 6, 52, 100
8, 39780, Note_on_c, 6, 52, 0
8, 39780, Note_on_c, 6, 52, 100
8, 39840, Note_on_c, 6, 52, 0
8, 39840, Note_on_c, 6, 53, 100
8, 39900, Note_on_c, 6, 53, 0
8, 39900, Note_on_c, 6, 53, 100
8, 39960, Note_on_c, 6, 53, 0
8, 39960, Note_on_c, 6, 53, 100
8, 40020, Note_on_c, 6, 53, 0
8, 40020, Note_on_c, 6, 53, 100
8, 40080, Note_on_c, 6, 53, 0
8, 40080, Note_on_c, 6, 55, 100
8, 40140, Note_on_c, 6, 55, 0
8, 40140, Note_on_c, 6, 55, 100
8, 40200, Note_on_c, 6, 55, 0
8, 40200, Note_on_c, 6, 55, 100
8, 40260, Note_on_c, 6, 55, 0
8, 40260, Note_on_c, 6, 55, 100
8, 40320, Note_on_c, 6, 55, 0
8, 40320, Note_on_c, 6, 48, 100
8, 40440, Note_on_c, 6, 48, 0
8, 40440, Note_on_c, 6, 47, 100
8, 40530, Note_on_c, 6, 47, 0
8, 40530, Note_on_c, 6, 45, 100
8, 40560, Note_on_c, 6, 45, 0
8, 40560, Note_on_c, 6, 43, 100
8, 40680, Note_on_c, 6, 43, 0
8, 40800, Note_on_c, 6, 45, 47
8, 41040, Note_on_c, 6, 45, 0
8, 41040, Note_on_c, 6, 47, 45
8, 41280, Note_on_c, 6, 47, 0
8, 41280, Note_on_c, 6, 48, 44
8, 41520, Note_on_c, 6, 48, 0
8, 41520, Note_on_c, 6, 57, 42
8, 41760, Note_on_c, 6, 57, 0
8, 41760, Note_on_c, 6, 53, 42
8, 42000, Note_on_c, 6, 53, 0
8, 42000, Note_on_c, 6, 55, 42
8, 42240, Note_on_c, 6, 55, 0
8, 42240, Note_on_c, 6, 60, 100
8, 42300, Note_on_c, 6, 60, 0
8, 42300, Note_on_c, 6, 60, 98
8, 42360, Note_on_c, 6, 60, 0
8, 42360, Note_on_c, 6, 60, 98
8, 42420, Note_on_c, 6, 60, 0
8, 42420, Note_on_c, 6, 60, 98
8, 42480, Note_on_c, 6, 60, 0
8, 42480, Note_on_c, 6, 56, 98
8, 42540, Note_on_c, 6, 56, 0
8, 42540, Note_on_c, 6, 56, 100
8, 42600, Note_on_c, 6, 56, 0
8, 42600, Note_on_c, 6, 56, 100
8, 42660, Note_on_c, 6, 56, 0
8, 42660, Note_on_c, 6, 56, 101
8, 42720, Note_on_c, 6, 56, 0
8, 42720, Note_on_c, 6, 57, 101
8, 42780, Note_on_c, 6, 57, 0
8, 42780, Note_on_c, 6, 57, 101
8, 42840, Note_on_c, 6, 57, 0
8, 42840, Note_on_c, 6, 57, 102
8, 42900, Note_on_c, 6, 57, 0
8, 42900, Note_on_c, 6, 57, 103
8, 42960, Note_on_c, 6, 57, 0
8, 42960, Note_on_c, 6, 52, 104
8, 43020, Note_on_c, 6, 52, 0
8, 43020, Note_on_c, 6, 52, 104
8, 43080, Note_on_c, 6, 52, 0
8, 43080, Note_on_c, 6, 52, 105
8, 43140, Note_on_c, 6, 52, 0
8, 43140, Note_on_c, 6, 52, 105
8, 43200, Note_on_c, 6, 52, 0
8, 43200, Note_on_c, 6, 53, 108
8, 43260, Note_on_c, 6, 53, 0
8, 43260, Note_on_c, 6, 53, 109
8, 43320, Note_on_c, 6, 53, 0
8, 43320, Note_on_c, 6, 53, 110
8, 43380, Note_on_c, 6, 53, 0
8, 43380, Note_on_c, 6, 53, 112
8, 43440, Note_on_c, 6, 53, 0
8, 43440, Note_on_c, 6, 47, 112
8, 43500, Note_on_c, 6, 47, 0
8, 43500, Note_on_c, 6, 47, 113
8, 43560, Note_on_c, 6, 47, 0
8, 43560, Note_on_c, 6, 47, 114
8, 43620, Note_on_c, 6, 47, 0
8, 43620, Note_on_c, 6, 47, 114
8, 43680, Note_on_c, 6, 47, 0
8, 43680, Note_on_c, 6, 48, 114
8, 43740, Note_on_c, 6, 48, 0
8, 43740, Note_on_c, 6, 48, 116
8, 43800, Note_on_c, 6, 48, 0
8, 43800, Note_on_c, 6, 48, 117
8, 43860, Note_on_c, 6, 48, 0
8, 43860, Note_on_c, 6, 48, 119
8, 43920, Note_on_c, 6, 48, 0
8, 43920, Note_on_c, 6, 44, 121
8, 43980, Note_on_c, 6, 44, 0
8, 43980, Note_on_c, 6, 44, 123
8, 44040, Note_on_c, 6, 44, 0
8, 44040, Note_on_c, 6, 44, 125
8, 44100, Note_on_c, 6, 44, 0
8, 44100, Note_on_c, 6, 44, 126
8, 44160, Note_on_c, 6, 44, 0
8, 44160, Note_on_c, 6, 43, 127
8, 44220, Note_on_c, 6, 43, 0
8, 44220, Note_on_c, 6, 55, 127
8, 44280, Note_on_c, 6, 55, 0
8, 44280, Note_on_c, 6, 50, 127
8, 44340, Note_on_c, 6, 50, 0
8, 44340, Note_on_c, 6, 47, 127
8, 44400, Note_on_c, 6, 47, 0
8, 44400, Note_on_c, 6, 43, 127
8, 44460, Note_on_c, 6, 43, 0
8, 44460, Note_on_c, 6, 43, 127
8, 44520, Note_on_c, 6, 43, 0
8, 44520, Note_on_c, 6, 43, 127
8, 44580, Note_on_c, 6, 43, 0
8, 44580, Note_on_c, 6, 43, 127
8, 44640, Note_on_c, 6, 43, 0
8, 44640, Note_on_c, 6, 43, 127
8, 44700, Note_on_c, 6, 43, 0
8, 44700, Note_on_c, 6, 43, 127
8, 44760, Note_on_c, 6, 43, 0
8, 44760, Note_on_c, 6, 43, 127
8, 44820, Note_on_c, 6, 43, 0
8, 44820, Note_on_c, 6, 43, 127
8, 44880, Note_on_c, 6, 43, 0
8, 44880, Note_on_c, 6, 55, 127
8, 44940, Note_on_c, 6, 55, 0
8, 44940, Note_on_c, 6, 55, 127
8, 45000, Note_on_c, 6, 55, 0
8, 45000, Note_on_c, 6, 52, 127
8, 45060, Note_on_c, 6, 52, 0
8, 45060, Note_on_c, 6, 48, 127
8, 45120, Note_on_c, 6, 48, 0
8, 45120, Note_on_c, 6, 43, 127
8, 45180, Note_on_c, 6, 43, 0
8, 45180, Note_on_c, 6, 55, 127
8, 45240, Note_on_c, 6, 55, 0
8, 45240, Note_on_c, 6, 50, 127
8, 45300, Note_on_c, 6, 50, 0
8, 45300, Note_on_c, 6, 47, 127
8, 45360, Note_on_c, 6, 47, 0
8, 45360, Note_on_c, 6, 43, 127
8, 45420, Note_on_c, 6, 43, 0
8, 45420, Note_on_c, 6, 43, 127
8, 45480, Note_on_c, 6, 43, 0
8, 45480, Note_on_c, 6, 43, 127
8, 45540, Note_on_c, 6, 43, 0
8, 45540, Note_on_c, 6, 43, 127
8, 45600, Note_on_c, 6, 43, 0
8, 45600, Note_on_c, 6, 43, 127
8, 45660, Note_on_c, 6, 43, 0
8, 45660, Note_on_c, 6, 43, 127
8, 45720, Note_on_c, 6, 43, 0
8, 45720, Note_on_c, 6, 43, 127
8, 45780, Note_on_c, 6, 43, 0
8, 45780, Note_on_c, 6, 43, 127
8, 45840, Note_on_c, 6, 43, 0
8, 45840, Note_on_c, 6, 55, 127
8, 45900, Note_on_c, 6, 55, 0
8, 45900, Note_on_c, 6, 55, 127
8, 45960, Note_on_c, 6, 55, 0
8, 45960, Note_on_c, 6, 52, 127
8, 46020, Note_on_c, 6, 52, 0
8, 46020, Note_on_c, 6, 48, 127
8, 46080, Note_on_c, 6, 48, 0
8, 46080, Note_on_c, 6, 43, 127
8, 46200, Note_on_c, 6, 43, 0
8, 46320, Note_on_c, 6, 55, 127
8, 46440, Note_on_c, 6, 55, 0
8, 46560, Note_on_c, 6, 43, 127
8, 46680, Note_on_c, 6, 43, 0
8, 48000, Note_on_c, 6, 43, 100
8, 48120, Note_on_c, 6, 43, 0
8, 48120, Note_on_c, 6, 55, 100
8, 48240, Note_on_c, 6, 55, 0
8, 48240, Note_on_c, 6, 43, 100
8, 48360, Note_on_c, 6, 43, 0
8, 49440, Note_on_c, 6, 43, 100
8, 49560, Note_on_c, 6, 43, 0
8, 49560, Note_on_c, 6, 55, 100
8, 49680, Note_on_c, 6, 55, 0
8, 49680, Note_on_c, 6, 43, 100
8, 49800, Note_on_c, 6, 43, 0
8, 49920, Note_on_c, 6, 48, 100
8, 50160, Note_on_c, 6, 48, 0
8, 50400, Note_on_c, 6, 48, 100
8, 50640, Note_on_c, 6, 48, 0
8, 50880, Note_on_c, 6, 48, 100
8, 51120, Note_on_c, 6, 48, 0
8, 51120, Note_on_c, 6, 60, 43
8, 51240, Note_on_c, 6, 60, 0
8, 51240, Note_on_c, 6, 59, 43
8, 51360, Note_on_c, 6, 59, 0
8, 51360, Note_on_c, 6, 57, 100
8, 51360, Note_on_c, 6, 57, 41
8, 51480, Note_on_c, 6, 57, 0
8, 51600, Note_on_c, 6, 57, 0
8, 51600, Note_on_c, 6, 55, 100
8, 51600, Note_on_c, 6, 55, 41
8, 51720, Note_on_c, 6, 55, 0
8, 51840, Note_on_c, 6, 55, 0
8, 51840, Note_on_c, 6, 53, 44
8, 52080, Note_on_c, 6, 53, 0
8, 52080, Note_on_c, 6, 55, 45
8, 52320, Note_on_c, 6, 55, 0
8, 52320, Note_on_c, 6, 48, 100
8, 52560, Note_on_c, 6, 48, 0
8, 52800, Note_on_c, 6, 48, 100
8, 53040, Note_on_c, 6, 48, 0
8, 53280, Note_on_c, 6, 48, 100
8, 53520, Note_on_c, 6, 48, 0
8, 53520, Note_on_c, 6, 60, 43
8, 53640, Note_on_c, 6, 60, 0
8, 53640, Note_on_c, 6, 59, 43
8, 53760, Note_on_c, 6, 59, 0
8, 53760, Note_on_c, 6, 57, 100
8, 53760, Note_on_c, 6, 57, 41
8, 53880, Note_on_c, 6, 57, 0
8, 54000, Note_on_c, 6, 57, 0
8, 54000, Note_on_c, 6, 55, 100
8, 54000, Note_on_c, 6, 55, 41
8, 54120, Note_on_c, 6, 55, 0
8, 54240, Note_on_c, 6, 55, 0
8, 54240, Note_on_c, 6, 53, 44
8, 54480, Note_on_c, 6, 53, 0
8, 54480, Note_on_c, 6, 55, 45
8, 54720, Note_on_c, 6, 55, 0
8, 54720, Note_on_c, 6, 36, 127
8, 54720, Note_on_c, 6, 48, 127
8, 54840, Note_on_c, 6, 48, 0
8, 54840, Note_on_c, 6, 36, 0
8, 54960, Note_on_c, 6, 36, 127
8, 54960, Note_on_c, 6, 48, 127
8, 55080, Note_on_c, 6, 48, 0
8, 55080, Note_on_c, 6, 36, 0
8, 55080, Note_on_c, 6, 40, 127
8, 55080, Note_on_c, 6, 52, 127
8, 55200, Note_on_c, 6, 52, 0
8, 55200, Note_on_c, 6, 40, 0
8, 55200, Note_on_c, 6, 43, 127
8, 55200, Note_on_c, 6, 55, 127
8, 55320, Note_on_c, 6, 55, 0
8, 55320, Note_on_c, 6, 43, 0
8, 55440, Note_on_c, 6, 31, 127
8, 55440, Note_on_c, 6, 43, 127
8, 55560, Note_on_c, 6, 43, 0
8, 55560, Note_on_c, 6, 31, 0
8, 55560, Note_on_c, 6, 35, 127
8, 55560, Note_on_c, 6, 47, 127
8, 55680, Note_on_c, 6, 47, 0
8, 55680, Note_on_c, 6, 35, 0
8, 55680, Note_on_c, 6, 36, 127
8, 55680, Note_on_c, 6, 48, 127
8, 55800, Note_on_c, 6, 48, 0
8, 55800, Note_on_c, 6, 36, 0
8, 55920, Note_on_c, 6, 36, 127
8, 55920, Note_on_c, 6, 48, 127
8, 56040, Note_on_c, 6, 48, 0
8, 56040, Note_on_c, 6, 36, 0
8, 56040, Note_on_c, 6, 40, 127
8, 56040, Note_on_c, 6, 52, 127
8, 56160, Note_on_c, 6, 52, 0
8, 56160, Note_on_c, 6, 40, 0
8, 56160, Note_on_c, 6, 43, 127
8, 56160, Note_on_c, 6, 55, 127
8, 56280, Note_on_c, 6, 55, 0
8, 56280, Note_on_c, 6, 43, 0
8, 56400, Note_on_c, 6, 31, 127
8, 56400, Note_on_c, 6, 43, 127
8, 56520, Note_on_c, 6, 43, 0
8, 56520, Note_on_c, 6, 31, 0
8, 56520, Note_on_c, 6, 35, 127
8, 56520, Note_on_c, 6, 47, 127
8, 56640, Note_on_c, 6, 47, 0
8, 56640, Note_on_c, 6, 35, 0
8, 56640, Note_on_c, 6, 36, 127
8, 56640, Note_on_c, 6, 48, 127
8, 56760, Note_on_c, 6, 48, 0
8, 56760, Note_on_c, 6, 36, 0
8, 57000, Note_on_c, 6, 48, 127
8, 57000, Note_on_c, 6, 60, 127
8, 57090, Note_on_c, 6, 60, 0
8, 57090, Note_on_c, 6, 48, 0
8, 57090, Note_on_c, 6, 48, 127
8, 57090, Note_on_c, 6, 60, 127
8, 57120, Note_on_c, 6, 60, 0
8, 57120, Note_on_c, 6, 48, 0
8, 57120, Note_on_c, 6, 45, 127
8, 57120, Note_on_c, 6, 57, 127
8, 57240, Note_on_c, 6, 57, 0
8, 57240, Note_on_c, 6, 45, 0
8, 57480, Note_on_c, 6, 45, 127
8, 57480, Note_on_c, 6, 57, 127
8, 57570, Note_on_c, 6, 57, 0
8, 57570, Note_on_c, 6, 45, 0
8, 57570, Note_on_c, 6, 45, 127
8, 57570, Note_on_c, 6, 57, 127
8, 57600, Note_on_c, 6, 57, 0
8, 57600, Note_on_c, 6, 45, 0
8, 57600, Note_on_c, 6, 40, 127
8, 57600, Note_on_c, 6, 52, 127
8, 57720, Note_on_c, 6, 52, 0
8, 57720, Note_on_c, 6, 40, 0
8, 57960, Note_on_c, 6, 36, 127
8, 57960, Note_on_c, 6, 48, 127
8, 58050, Note_on_c, 6, 48, 0
8, 58050, Note_on_c, 6, 36, 0
8, 58050, Note_on_c, 6, 36, 127
8, 58050, Note_on_c, 6, 48, 127
8, 58080, Note_on_c, 6, 48, 0
8, 58080, Note_on_c, 6, 36, 0
8, 58080, Note_on_c, 6, 41, 127
8, 58080, Note_on_c, 6, 53, 127
8, 58200, Note_on_c, 6, 53, 0
8, 58200, Note_on_c, 6, 41, 0
8, 58200, Note_on_c, 6, 41, 127
8, 58200, Note_on_c, 6, 53, 127
8, 58320, Note_on_c, 6, 53, 0
8, 58320, Note_on_c, 6, 41, 0
8, 58320, Note_on_c, 6, 43, 127
8, 58320, Note_on_c, 6, 55, 127
8, 58440, Note_on_c, 6, 55, 0
8, 58440, Note_on_c, 6, 43, 0
8, 58440, Note_on_c, 6, 31, 127
8, 58440, Note_on_c, 6, 43, 127
8, 58560, Note_on_c, 6, 43, 0
8, 58560, Note_on_c, 6, 31, 0
8, 58560, Note_on_c, 6, 36, 127
8, 58560, Note_on_c, 6, 48, 127
8, 58680, Note_on_c, 6, 48, 0
8, 58680, Note_on_c, 6, 36, 0
8, 58920, Note_on_c, 6, 48, 127
8, 58920, Note_on_c, 6, 60, 127
8, 59010, Note_on_c, 6, 60, 0
8, 59010, Note_on_c, 6, 48, 0
8, 59010, Note_on_c, 6, 48, 127
8, 59010, Note_on_c, 6, 60, 127
8, 59040, Note_on_c, 6, 60, 0
8, 59040, Note_on_c, 6, 48, 0
8, 59040, Note_on_c, 6, 45, 127
8, 59040, Note_on_c, 6, 57, 127
8, 59160, Note_on_c, 6, 57, 0
8, 59160, Note_on_c, 6, 45, 0
8, 59400, Note_on_c, 6, 45, 127
8, 59400, Note_on_c, 6, 57, 127
8, 59490, Note_on_c, 6, 57, 0
8, 59490, Note_on_c, 6, 45, 0
8, 59490, Note_on_c, 6, 45, 127
8, 59490, Note_on_c, 6, 57, 127
8, 59520, Note_on_c, 6, 57, 0
8, 59520, Note_on_c, 6, 45, 0
8, 59520, Note_on_c, 6, 40, 127
8, 59520, Note_on_c, 6, 52, 127
8, 59640, Note_on_c, 6, 52, 0
8, 59640, Note_on_c, 6, 40, 0
8, 59880, Note_on_c, 6, 40, 127
8, 59880, Note_on_c, 6, 52, 127
8, 59970, Note_on_c, 6, 52, 0
8, 59970, Note_on_c, 6, 40, 0
8, 59970, Note_on_c, 6, 40, 127
8, 59970, Note_on_c, 6, 52, 127
8, 60000, Note_on_c, 6, 52, 0
8, 60000, Note_on_c, 6, 40, 0
8, 60000, Note_on_c, 6, 41, 127
8, 60000, Note_on_c, 6, 53, 127
8, 60120, Note_on_c, 6, 53, 0
8, 60120, Note_on_c, 6, 41, 0
8, 60120, Note_on_c, 6, 41, 127
8, 60120, Note_on_c, 6, 53, 127
8, 60240, Note_on_c, 6, 53, 0
8, 60240, Note_on_c, 6, 41, 0
8, 60240, Note_on_c, 6, 43, 127
8, 60240, Note_on_c, 6, 55, 127
8, 60360, Note_on_c, 6, 55, 0
8, 60360, Note_on_c, 6, 43, 0
8, 60360, Note_on_c, 6, 31, 127
8, 60360, Note_on_c, 6, 43, 127
8, 60480, Note_on_c, 6, 43, 0
8, 60480, Note_on_c, 6, 31, 0
8, 60480, Note_on_c, 6, 48, 127
8, 60600, Note_on_c, 6, 48, 0
8, 60600, Note_on_c, 6, 52, 127
8, 60720, Note_on_c, 6, 52, 0
8, 60720, Note_on_c, 6, 55, 127
8, 60840, Note_on_c, 6, 55, 0
8, 60840, Note_on_c, 6, 52, 127
8, 60960, Note_on_c, 6, 52, 0
8, 60960, Note_on_c, 6, 48, 127
8, 61080, Note_on_c, 6, 48, 0
8, 61080, Note_on_c, 6, 52, 127
8, 61200, Note_on_c, 6, 52, 0
8, 61200, Note_on_c, 6, 55, 127
8, 61320, Note_on_c, 6, 55, 0
8, 61320, Note_on_c, 6, 52, 127
8, 61440, Note_on_c, 6, 52, 0
8, 61440, Note_on_c, 6, 48, 127
8, 61560, Note_on_c, 6, 48, 0
8, 62280, Note_on_c, 6, 55, 127
8, 62400, Note_on_c, 6, 55, 0
8, 62400, Note_on_c, 6, 60, 127
8, 62520, Note_on_c, 6, 60, 0
8, 62760, Note_on_c, 6, 55, 127
8, 62880, Note_on_c, 6, 55, 0
8, 62880, Note_on_c, 6, 60, 127
8, 63000, Note_on_c, 6, 60, 0
8, 63240, Note_on_c, 6, 55, 127
8, 63360, Note_on_c, 6, 55, 0
8, 63360, Note_on_c, 6, 48, 127
8, 63480, Note_on_c, 6, 48, 0
8, 63600, Note_on_c, 6, 48, 127
8, 63720, Note_on_c, 6, 48, 0
8, 63840, Note_on_c, 6, 48, 127
8, 63960, Note_on_c, 6, 48, 0
8, 64080, Note_on_c, 6, 36, 100
8, 64080, Note_on_c, 6, 48, 127
8, 64200, Note_on_c, 6, 48, 0
8, 64200, Note_on_c, 6, 36, 0
8, 64200, Note_on_c, 6, 36, 100
8, 64200, Note_on_c, 6, 48, 127
8, 64320, Note_on_c, 6, 48, 0
8, 64320, Note_on_c, 6, 36, 0
8, 64320, Note_on_c, 6, 36, 100
8, 64320, Note_on_c, 6, 48, 127
8, 64800, Note_on_c, 6, 48, 0
8, 64800, Note_on_c, 6, 36, 0
8, 64800, End_track
0, 0, End_of_file