0, 0, Header, 1, 6, 480
1, 0, Start_track
1, 0, Title_t, "Untitled"
1, 0, Time_signature, 3, 2, 24, 8
1, 0, Key_signature, 0, "major"
1, 0, Tempo, 416666
1, 0, Marker_t, "Mozart"
1, 1440, Tempo, 504201
1, 1440, Marker_t, "Tema"
1, 5640, Tempo, 508474
1, 7080, Tempo, 517241
1, 7200, Tempo, 504201
1, 11400, Tempo, 508474
1, 12720, Tempo, 526315
1, 12960, Tempo, 504201
1, 12960, Marker_t, "Tema copy"
1, 17160, Tempo, 508474
1, 18600, Tempo, 517241
1, 18720, Tempo, 504201
1, 22920, Tempo, 508474
1, 24240, Tempo, 526315
1, 24480, Tempo, 504201
1, 24480, Marker_t, "t'"
1, 27300, Tempo, 508474
1, 27360, Tempo, 504201
1, 30120, Tempo, 508474
1, 30255, Tempo, 504201
1, 34440, Tempo, 508474
1, 35880, Tempo, 517241
1, 36000, Tempo, 504201
1, 40200, Tempo, 508474
1, 41640, Tempo, 517241
1, 41760, Tempo, 504201
1, 45960, Tempo, 508474
1, 47280, Tempo, 535714
1, 47520, Tempo, 504201
1, 47520, Marker_t, "t' copy copy"
1, 50340, Tempo, 508474
1, 50400, Tempo, 504201
1, 53160, Tempo, 508474
1, 53295, Tempo, 504201
1, 57480, Tempo, 508474
1, 58920, Tempo, 517241
1, 59040, Tempo, 504201
1, 63240, Tempo, 508474
1, 64680, Tempo, 517241
1, 64800, Tempo, 504201
1, 69000, Tempo, 508474
1, 69855, Tempo, 517241
1, 70200, Tempo, 526315
1, 70320, Tempo, 625000
1, 70560, Tempo, 500000
1, 70560, Marker_t, "1"
1, 76260, Tempo, 504201
1, 76320, Tempo, 500000
1, 81840, Tempo, 504201
1, 82080, Tempo, 500000
1, 82080, Marker_t, "1 copy"
1, 87780, Tempo, 504201
1, 87840, Tempo, 500000
1, 93360, Tempo, 504201
1, 93600, Tempo, 500000
1, 93600, Marker_t, "1'"
1, 96420, Tempo, 504201
1, 96480, Tempo, 500000
1, 99300, Tempo, 504201
1, 99360, Tempo, 500000
1, 105000, Tempo, 508474
1, 105120, Tempo, 500000
1, 110820, Tempo, 504201
1, 110880, Tempo, 500000
1, 116160, Tempo, 504201
1, 116400, Tempo, 540540
1, 116640, Tempo, 500000
1, 116640, Marker_t, "1' copy"
1, 119460, Tempo, 504201
1, 119520, Tempo, 500000
1, 122340, Tempo, 504201
1, 122400, Tempo, 500000
1, 128040, Tempo, 508474
1, 128160, Tempo, 500000
1, 133860, Tempo, 504201
1, 133920, Tempo, 500000
1, 139200, Tempo, 504201
1, 139440, Tempo, 540540
1, 139680, Tempo, 495867
1, 139680, Marker_t, "2"
1, 145380, Tempo, 500000
1, 145440, Tempo, 495867
1, 150660, Tempo, 500000
1, 150960, Tempo, 508474
1, 151200, Tempo, 495867
1, 151200, Marker_t, "2 copy"
1, 156900, Tempo, 500000
1, 156960, Tempo, 495867
1, 162180, Tempo, 500000
1, 162480, Tempo, 508474
1, 162720, Tempo, 495867
1, 162720, Marker_t, "2'"
1, 165540, Tempo, 500000
1, 165600, Tempo, 495867
1, 166980, Tempo, 500000
1, 167040, Tempo, 495867
1, 168420, Tempo, 500000
1, 168480, Tempo, 495867
1, 174120, Tempo, 508474
1, 174240, Tempo, 495867
1, 179940, Tempo, 500000
1, 180000, Tempo, 495867
1, 185520, Tempo, 508474
1, 185760, Tempo, 495867
1, 185760, Marker_t, "2' copy"
1, 188580, Tempo, 500000
1, 188640, Tempo, 495867
1, 190020, Tempo, 500000
1, 190080, Tempo, 495867
1, 191460, Tempo, 500000
1, 191520, Tempo, 495867
1, 197160, Tempo, 508474
1, 197280, Tempo, 495867
1, 202980, Tempo, 500000
1, 203040, Tempo, 495867
1, 208260, Tempo, 500000
1, 208320, Tempo, 1500000
1, 208560, Tempo, 491803
1, 208800, Tempo, 491803
1, 208800, Marker_t, "3 "
1, 214500, Tempo, 495867
1, 214560, Tempo, 491803
1, 219780, Tempo, 495867
1, 219840, Tempo, 500000
1, 220080, Tempo, 491803
1, 220320, Tempo, 491803
1, 220320, Marker_t, "3  copy"
1, 226020, Tempo, 495867
1, 226080, Tempo, 491803
1, 231300, Tempo, 495867
1, 231600, Tempo, 495867
1, 231840, Tempo, 491803
1, 231840, Marker_t, "3'"
1, 234660, Tempo, 495867
1, 234720, Tempo, 491803
1, 237540, Tempo, 495867
1, 237600, Tempo, 491803
1, 243240, Tempo, 495867
1, 243360, Tempo, 240000
1, 243360, Marker_t, "1/8"
1, 243420, Tempo, 480000
1, 249300, Tempo, 495867
1, 249360, Tempo, 491803
1, 254580, Tempo, 495867
1, 254880, Tempo, 517241
1, 255120, Tempo, 491803
1, 255120, Marker_t, "3' copy"
1, 257940, Tempo, 495867
1, 258000, Tempo, 491803
1, 260820, Tempo, 495867
1, 260880, Tempo, 491803
1, 266520, Tempo, 495867
1, 266640, Tempo, 240000
1, 266640, Marker_t, "1/8 copy"
1, 266700, Tempo, 480000
1, 272580, Tempo, 495867
1, 272640, Tempo, 491803
1, 277860, Tempo, 495867
1, 277920, Tempo, 500000
1, 278400, Tempo, 283018
1, 279360, Tempo, 487804
1, 279360, Marker_t, "4"
1, 285060, Tempo, 491803
1, 285120, Tempo, 487804
1, 290340, Tempo, 491803
1, 290640, Tempo, 491803
1, 290880, Tempo, 487804
1, 290880, Marker_t, "4 copy"
1, 296580, Tempo, 491803
1, 296640, Tempo, 487804
1, 301860, Tempo, 491803
1, 302160, Tempo, 491803
1, 302400, Marker_t, "4'"
1, 302415, Tempo, 487804
1, 305220, Tempo, 491803
1, 305280, Tempo, 487804
1, 308100, Tempo, 491803
1, 308160, Tempo, 487804
1, 313800, Tempo, 500000
1, 313920, Tempo, 487804
1, 319620, Tempo, 491803
1, 319680, Tempo, 487804
1, 324900, Tempo, 495867
1, 324960, Tempo, 500000
1, 325440, Tempo, 487804
1, 325440, Marker_t, "4' copy"
1, 328260, Tempo, 491803
1, 328320, Tempo, 487804
1, 331140, Tempo, 491803
1, 331200, Tempo, 487804
1, 336840, Tempo, 500000
1, 336960, Tempo, 487804
1, 342660, Tempo, 491803
1, 342720, Tempo, 487804
1, 347940, Tempo, 495867
1, 348000, Tempo, 500000
1, 348240, Tempo, 1333333
1, 348360, Tempo, 2222222
1, 348480, Tempo, 483870
1, 348480, Marker_t, "5"
1, 354180, Tempo, 487804
1, 354240, Tempo, 483870
1, 358500, Tempo, 487804
1, 359460, Tempo, 495867
1, 359760, Tempo, 500000
1, 360000, Tempo, 483870
1, 360000, Marker_t, "5 copy"
1, 365700, Tempo, 487804
1, 365760, Tempo, 483870
1, 370020, Tempo, 487804
1, 370980, Tempo, 495867
1, 371280, Tempo, 500000
1, 371520, Tempo, 483870
1, 371520, Marker_t, "5'"
1, 372900, Tempo, 487804
1, 374340, Tempo, 495867
1, 374400, Tempo, 483870
1, 375780, Tempo, 487804
1, 376800, Tempo, 495867
1, 376920, Tempo, 483870
1, 381495, Tempo, 487804
1, 382080, Tempo, 495867
1, 382200, Tempo, 487804
1, 382920, Tempo, 495867
1, 383040, Tempo, 483870
1, 388740, Tempo, 487804
1, 388800, Tempo, 483870
1, 393060, Tempo, 487804
1, 393960, Tempo, 495867
1, 394080, Tempo, 517241
1, 394560, Tempo, 483870
1, 394560, Marker_t, "5' copy"
1, 395940, Tempo, 487804
1, 397380, Tempo, 495867
1, 397440, Tempo, 483870
1, 398820, Tempo, 487804
1, 399840, Tempo, 495867
1, 399960, Tempo, 483870
1, 404535, Tempo, 487804
1, 405120, Tempo, 495867
1, 405240, Tempo, 487804
1, 405960, Tempo, 495867
1, 406080, Tempo, 483870
1, 411780, Tempo, 487804
1, 411840, Tempo, 483870
1, 416100, Tempo, 487804
1, 417000, Tempo, 508474
1, 417120, Tempo, 517241
1, 417360, Tempo, 2727272
1, 417600, Tempo, 821917
1, 417600, Marker_t, "6"
1, 423300, Tempo, 833333
1, 423360, Tempo, 821917
1, 427560, Tempo, 833333
1, 428520, Tempo, 845070
1, 429000, Tempo, 1428571
1, 429120, Tempo, 821917
1, 429120, Marker_t, "6 copy"
1, 434820, Tempo, 833333
1, 434880, Tempo, 821917
1, 439080, Tempo, 833333
1, 440040, Tempo, 845070
1, 440520, Tempo, 1428571
1, 440640, Tempo, 821917
1, 440640, Marker_t, "6'"
1, 443460, Tempo, 833333
1, 443520, Tempo, 821917
1, 446340, Tempo, 833333
1, 446400, Tempo, 821917
1, 447780, Tempo, 833333
1, 447840, Tempo, 821917
1, 449220, Tempo, 833333
1, 449280, Tempo, 821917
1, 450600, Tempo, 833333
1, 451560, Tempo, 845070
1, 452040, Tempo, 1276595
1, 452160, Tempo, 821917
1, 457860, Tempo, 833333
1, 457920, Tempo, 821917
1, 459300, Tempo, 833333
1, 460575, Tempo, 845070
1, 462120, Tempo, 869565
1, 462720, Tempo, 895522
1, 463440, Tempo, 923076
1, 463680, Tempo, 821917
1, 463680, Marker_t, "6' copy"
1, 466500, Tempo, 833333
1, 466560, Tempo, 821917
1, 469380, Tempo, 833333
1, 469440, Tempo, 821917
1, 470820, Tempo, 833333
1, 470880, Tempo, 821917
1, 472260, Tempo, 833333
1, 472320, Tempo, 821917
1, 473640, Tempo, 833333
1, 474600, Tempo, 845070
1, 475080, Tempo, 1276595
1, 475200, Tempo, 821917
1, 480900, Tempo, 833333
1, 480960, Tempo, 821917
1, 482340, Tempo, 833333
1, 483615, Tempo, 845070
1, 485160, Tempo, 869565
1, 485760, Tempo, 895522
1, 486120, Tempo, 1176470
1, 486480, Tempo, 2727272
1, 486720, Tempo, 458015
1, 486720, Marker_t, "7"
1, 492420, Tempo, 461538
1, 492480, Tempo, 458015
1, 497700, Tempo, 461538
1, 498120, Tempo, 465116
1, 498240, Tempo, 458015
1, 498240, Marker_t, "7 copy"
1, 503940, Tempo, 461538
1, 504000, Tempo, 458015
1, 509220, Tempo, 461538
1, 509640, Tempo, 465116
1, 509760, Marker_t, "7'"
1, 509790, Tempo, 458015
1, 512580, Tempo, 461538
1, 512640, Tempo, 458015
1, 515460, Tempo, 461538
1, 515520, Tempo, 458015
1, 521220, Tempo, 461538
1, 521280, Tempo, 458015
1, 526980, Tempo, 461538
1, 527040, Tempo, 458015
1, 532260, Tempo, 461538
1, 532800, Marker_t, "7' copy"
1, 532830, Tempo, 458015
1, 535620, Tempo, 461538
1, 535680, Tempo, 458015
1, 538500, Tempo, 461538
1, 538560, Tempo, 458015
1, 544260, Tempo, 461538
1, 544320, Tempo, 458015
1, 550020, Tempo, 461538
1, 550080, Tempo, 458015
1, 555300, Tempo, 461538
1, 555600, Tempo, 2727272
1, 555840, Tempo, 659340
1, 555840, Marker_t, "8"
1, 558600, Tempo, 666666
1, 558720, Tempo, 659340
1, 561480, Tempo, 666666
1, 561600, Tempo, 659340
1, 564360, Tempo, 666666
1, 564705, Tempo, 659340
1, 567240, Tempo, 666666
1, 567360, Tempo, 659340
1, 570120, Tempo, 666666
1, 570240, Tempo, 659340
1, 573000, Tempo, 666666
1, 573120, Tempo, 659340
1, 575880, Tempo, 666666
1, 576000, Tempo, 659340
1, 578760, Tempo, 666666
1, 578880, Tempo, 659340
1, 581640, Tempo, 666666
1, 581760, Tempo, 659340
1, 584580, Tempo, 674157
1, 584640, Tempo, 659340
1, 587400, Tempo, 666666
1, 587520, Tempo, 659340
1, 590340, Tempo, 674157
1, 590400, Tempo, 659340
1, 593160, Tempo, 666666
1, 593280, Tempo, 659340
1, 596040, Tempo, 666666
1, 596160, Tempo, 659340
1, 598920, Tempo, 666666
1, 599040, Tempo, 659340
1, 601080, Tempo, 666666
1, 601800, Tempo, 689655
1, 601920, Tempo, 659340
1, 604680, Tempo, 666666
1, 604800, Tempo, 659340
1, 607560, Tempo, 666666
1, 607680, Tempo, 659340
1, 610440, Tempo, 666666
1, 610560, Tempo, 659340
1, 613380, Tempo, 674157
1, 613440, Tempo, 659340
1, 616260, Tempo, 674157
1, 616320, Tempo, 659340
1, 619080, Tempo, 666666
1, 619200, Tempo, 659340
1, 621915, Tempo, 674157
1, 623040, Tempo, 689655
1, 624720, Tempo, 2400000
1, 624960, Time_signature, 2, 2, 24, 8
1, 624960, Tempo, 454545
1, 624960, Marker_t, "9"
1, 628680, Tempo, 458015
1, 628800, Tempo, 454545
1, 631620, Tempo, 458015
1, 632400, Tempo, 465116
1, 632520, Tempo, 454545
1, 632640, Tempo, 454545
1, 632640, Marker_t, "9 copy"
1, 636360, Tempo, 458015
1, 636480, Tempo, 454545
1, 639300, Tempo, 458015
1, 640080, Tempo, 465116
1, 640200, Tempo, 454545
1, 640320, Marker_t, "New Marker 20"
1, 647160, Tempo, 458015
1, 647880, Tempo, 472440
1, 648000, Tempo, 454545
1, 651720, Tempo, 458015
1, 651840, Tempo, 454545
1, 654660, Tempo, 458015
1, 655440, Tempo, 472440
1, 655680, Marker_t, "New Marker 20 copy"
1, 662520, Tempo, 458015
1, 663240, Tempo, 472440
1, 663360, Tempo, 454545
1, 667080, Tempo, 458015
1, 667200, Tempo, 454545
1, 670020, Tempo, 458015
1, 670800, Tempo, 472440
1, 671040, Tempo, 454545
1, 671040, Marker_t, "Coda"
1, 672840, Tempo, 458015
1, 674760, Tempo, 465116
1, 674880, Tempo, 458015
1, 675720, Tempo, 465116
1, 675840, Tempo, 454545
1, 679560, Tempo, 458015
1, 679680, Tempo, 454545
1, 681480, Tempo, 458015
1, 681600, Tempo, 454545
1, 683400, Tempo, 458015
1, 683520, Tempo, 454545
1, 685320, Tempo, 458015
1, 685440, Tempo, 454545
1, 689160, Tempo, 458015
1, 689280, Tempo, 454545
1, 693840, Tempo, 465116
1, 694080, Tempo, 550458
1, 695760, Tempo, 535714
1, 695840, Tempo, 540540
1, 695920, Tempo, 560747
1, 696000, Tempo, 659340
1, 696060, Tempo, 638297
1, 698280, Tempo, 652173
1, 698340, Tempo, 674157
1, 698400, Tempo, 821917
1, 698460, Tempo, 750000
1, 699240, Tempo, 769230
1, 699300, Tempo, 810810
1, 699360, Tempo, 810810
1, 699420, Tempo, 769230
1, 700140, Tempo, 789473
1, 700260, Tempo, 923076
1, 700320, Tempo, 1071428
1, 700680, Tempo, 1276595
1, 700800, Time_signature, 3, 2, 24, 8
1, 700800, Tempo, 504201
1, 700800, Marker_t, "New Marker 23"
1, 706440, Tempo, 508474
1, 706560, Tempo, 504201
1, 707880, Tempo, 508474
1, 708000, Tempo, 504201
1, 709320, Tempo, 508474
1, 709440, Tempo, 504201
1, 710760, Tempo, 508474
1, 710880, Tempo, 504201
1, 712260, Tempo, 508474
1, 712320, Tempo, 504201
1, 713640, Tempo, 508474
1, 713760, Tempo, 504201
1, 715140, Tempo, 508474
1, 715200, Tempo, 504201
1, 716520, Tempo, 508474
1, 716640, Tempo, 517241
1, 717600, Tempo, 612244
1, 717600, End_track
2, 0, Start_track
2, 0, Title_t, "No Name"
2, 0, Control_c, 1, 0, 0
2, 0, Control_c, 1, 32, 0
2, 0, Program_c, 1, 0
2, 0, Control_c, 1, 64, 0
2, 0, Control_c, 1, 10, 73
2, 0, Control_c, 1, 91, 100
2, 0, Control_c, 1, 93, 28
2, 0, Pitch_bend_c, 1, 8192
2, 0, Control_c, 1, 1, 0
2, 0, Control_c, 1, 7, 127
2, 1440, Control_c, 1, 64, 0
2, 1440, Note_on_c, 1, 81, 57
2, 2400, Note_off_c, 1, 81, 0
2, 2400, Note_on_c, 1, 86, 58
2, 2640, Note_off_c, 1, 86, 0
2, 2640, Note_on_c, 1, 81, 57
2, 2832, Note_off_c, 1, 81, 0
2, 2880, Note_on_c, 1, 78, 55
2, 3840, Note_off_c, 1, 78, 0
2, 3840, Note_on_c, 1, 81, 57
2, 4080, Note_off_c, 1, 81, 0
2, 4080, Note_on_c, 1, 78, 55
2, 4272, Note_off_c, 1, 78, 0
2, 4320, Note_on_c, 1, 74, 53
2, 4800, Note_off_c, 1, 74, 0
2, 4800, Note_on_c, 1, 74, 52
2, 5280, Note_off_c, 1, 74, 0
2, 5280, Note_on_c, 1, 76, 50
2, 5360, Note_off_c, 1, 76, 0
2, 5360, Note_on_c, 1, 78, 50
2, 5440, Note_off_c, 1, 78, 0
2, 5440, Note_on_c, 1, 76, 51
2, 5520, Note_off_c, 1, 76, 0
2, 5520, Note_on_c, 1, 74, 51
2, 5640, Note_off_c, 1, 74, 0
2, 5640, Note_on_c, 1, 76, 52
2, 5760, Note_off_c, 1, 76, 0
2, 5760, Note_on_c, 1, 78, 55
2, 6240, Note_off_c, 1, 78, 0
2, 6240, Note_on_c, 1, 74, 51
2, 6720, Note_off_c, 1, 74, 0
2, 6720, Note_on_c, 1, 69, 48
2, 7080, Note_off_c, 1, 69, 0
2, 7200, Note_on_c, 1, 81, 50
2, 8160, Note_off_c, 1, 81, 0
2, 8160, Note_on_c, 1, 86, 51
2, 8520, Note_off_c, 1, 86, 0
2, 8520, Note_on_c, 1, 81, 48
2, 8616, Note_off_c, 1, 81, 0
2, 8640, Note_on_c, 1, 78, 47
2, 9600, Note_off_c, 1, 78, 0
2, 9600, Note_on_c, 1, 81, 49
2, 9960, Note_off_c, 1, 81, 0
2, 9960, Note_on_c, 1, 78, 47
2, 10056, Note_off_c, 1, 78, 0
2, 10080, Note_on_c, 1, 74, 47
2, 10560, Note_off_c, 1, 74, 0
2, 10560, Note_on_c, 1, 74, 46
2, 11040, Note_off_c, 1, 74, 0
2, 11040, Note_on_c, 1, 76, 47
2, 11120, Note_off_c, 1, 76, 0
2, 11120, Note_on_c, 1, 78, 47
2, 11200, Note_off_c, 1, 78, 0
2, 11200, Note_on_c, 1, 76, 46
2, 11400, Note_off_c, 1, 76, 0
2, 11400, Note_on_c, 1, 78, 45
2, 11520, Note_off_c, 1, 78, 0
2, 11520, Note_on_c, 1, 74, 44
2, 11880, Note_off_c, 1, 74, 0
2, 12960, Control_c, 1, 64, 0
2, 12960, Note_on_c, 1, 81, 57
2, 13920, Note_off_c, 1, 81, 0
2, 13920, Note_on_c, 1, 86, 58
2, 14160, Note_off_c, 1, 86, 0
2, 14160, Note_on_c, 1, 81, 57
2, 14352, Note_off_c, 1, 81, 0
2, 14400, Note_on_c, 1, 78, 55
2, 15360, Note_off_c, 1, 78, 0
2, 15360, Note_on_c, 1, 81, 57
2, 15600, Note_off_c, 1, 81, 0
2, 15600, Note_on_c, 1, 78, 55
2, 15792, Note_off_c, 1, 78, 0
2, 15840, Note_on_c, 1, 74, 53
2, 16320, Note_off_c, 1, 74, 0
2, 16320, Note_on_c, 1, 74, 52
2, 16800, Note_off_c, 1, 74, 0
2, 16800, Note_on_c, 1, 76, 50
2, 16880, Note_off_c, 1, 76, 0
2, 16880, Note_on_c, 1, 78, 50
2, 16960, Note_off_c, 1, 78, 0
2, 16960, Note_on_c, 1, 76, 51
2, 17040, Note_off_c, 1, 76, 0
2, 17040, Note_on_c, 1, 74, 51
2, 17160, Note_off_c, 1, 74, 0
2, 17160, Note_on_c, 1, 76, 52
2, 17280, Note_off_c, 1, 76, 0
2, 17280, Note_on_c, 1, 78, 55
2, 17760, Note_off_c, 1, 78, 0
2, 17760, Note_on_c, 1, 74, 51
2, 18240, Note_off_c, 1, 74, 0
2, 18240, Note_on_c, 1, 69, 48
2, 18600, Note_off_c, 1, 69, 0
2, 18720, Note_on_c, 1, 81, 50
2, 19680, Note_off_c, 1, 81, 0
2, 19680, Note_on_c, 1, 86, 51
2, 20040, Note_off_c, 1, 86, 0
2, 20040, Note_on_c, 1, 81, 48
2, 20136, Note_off_c, 1, 81, 0
2, 20160, Note_on_c, 1, 78, 47
2, 21120, Note_off_c, 1, 78, 0
2, 21120, Note_on_c, 1, 81, 49
2, 21480, Note_off_c, 1, 81, 0
2, 21480, Note_on_c, 1, 78, 47
2, 21576, Note_off_c, 1, 78, 0
2, 21600, Note_on_c, 1, 74, 47
2, 22080, Note_off_c, 1, 74, 0
2, 22080, Note_on_c, 1, 74, 46
2, 22560, Note_off_c, 1, 74, 0
2, 22560, Note_on_c, 1, 76, 47
2, 22640, Note_off_c, 1, 76, 0
2, 22640, Note_on_c, 1, 78, 47
2, 22720, Note_off_c, 1, 78, 0
2, 22720, Note_on_c, 1, 76, 46
2, 22920, Note_off_c, 1, 76, 0
2, 22920, Note_on_c, 1, 78, 45
2, 23040, Note_off_c, 1, 78, 0
2, 23040, Note_on_c, 1, 74, 44
2, 23400, Note_off_c, 1, 74, 0
2, 24480, Control_c, 1, 64, 0
2, 24480, Note_on_c, 1, 76, 70
2, 24840, Note_off_c, 1, 76, 0
2, 24960, Note_on_c, 1, 76, 72
2, 25320, Note_off_c, 1, 76, 0
2, 25440, Note_on_c, 1, 76, 73
2, 25800, Note_off_c, 1, 76, 0
2, 25920, Note_on_c, 1, 76, 75
2, 27240, Note_off_c, 1, 76, 0
2, 27360, Note_on_c, 1, 78, 66
2, 27720, Note_off_c, 1, 78, 0
2, 27840, Note_on_c, 1, 78, 67
2, 28200, Note_off_c, 1, 78, 0
2, 28320, Note_on_c, 1, 78, 68
2, 28680, Note_off_c, 1, 78, 0
2, 28800, Note_on_c, 1, 78, 69
2, 30120, Note_off_c, 1, 78, 0
2, 30240, Note_on_c, 1, 81, 67
2, 30720, Note_off_c, 1, 81, 0
2, 30720, Note_on_c, 1, 74, 65
2, 30960, Note_off_c, 1, 74, 0
2, 30960, Note_on_c, 1, 78, 63
2, 31200, Note_off_c, 1, 78, 0
2, 31200, Note_on_c, 1, 81, 62
2, 31440, Note_off_c, 1, 81, 0
2, 31440, Note_on_c, 1, 86, 60
2, 31632, Note_off_c, 1, 86, 0
2, 31680, Note_on_c, 1, 81, 65
2, 32160, Note_off_c, 1, 81, 0
2, 32160, Note_on_c, 1, 74, 62
2, 32400, Note_off_c, 1, 74, 0
2, 32400, Note_on_c, 1, 78, 61
2, 32640, Note_off_c, 1, 78, 0
2, 32640, Note_on_c, 1, 81, 60
2, 32880, Note_off_c, 1, 81, 0
2, 32880, Note_on_c, 1, 86, 58
2, 33072, Note_off_c, 1, 86, 0
2, 33120, Note_on_c, 1, 81, 61
2, 33600, Note_off_c, 1, 81, 0
2, 33600, Note_on_c, 1, 79, 60
2, 34080, Note_off_c, 1, 79, 0
2, 34080, Note_on_c, 1, 78, 59
2, 34560, Note_off_c, 1, 78, 0
2, 34560, Note_on_c, 1, 78, 58
2, 34800, Note_off_c, 1, 78, 0
2, 34800, Note_on_c, 1, 76, 55
2, 34992, Note_off_c, 1, 76, 0
2, 35040, Note_on_c, 1, 69, 55
2, 35232, Note_off_c, 1, 69, 0
2, 35280, Note_on_c, 1, 69, 57
2, 35472, Note_off_c, 1, 69, 0
2, 35520, Note_on_c, 1, 69, 61
2, 35712, Note_off_c, 1, 69, 0
2, 35760, Note_on_c, 1, 69, 65
2, 35952, Note_off_c, 1, 69, 0
2, 36000, Control_c, 1, 64, 0
2, 36000, Note_on_c, 1, 81, 79
2, 36960, Note_off_c, 1, 81, 0
2, 36960, Note_on_c, 1, 86, 81
2, 37320, Note_off_c, 1, 86, 0
2, 37320, Note_on_c, 1, 81, 77
2, 37416, Note_off_c, 1, 81, 0
2, 37440, Note_on_c, 1, 78, 76
2, 38400, Note_off_c, 1, 78, 0
2, 38400, Note_on_c, 1, 81, 77
2, 38760, Note_off_c, 1, 81, 0
2, 38760, Note_on_c, 1, 78, 74
2, 38856, Note_off_c, 1, 78, 0
2, 38880, Note_on_c, 1, 74, 73
2, 39360, Note_off_c, 1, 74, 0
2, 39360, Note_on_c, 1, 74, 71
2, 39840, Note_off_c, 1, 74, 0
2, 39840, Note_on_c, 1, 76, 65
2, 39920, Note_off_c, 1, 76, 0
2, 39920, Note_on_c, 1, 78, 66
2, 40000, Note_off_c, 1, 78, 0
2, 40000, Note_on_c, 1, 76, 67
2, 40080, Note_off_c, 1, 76, 0
2, 40080, Note_on_c, 1, 74, 67
2, 40200, Note_off_c, 1, 74, 0
2, 40200, Note_on_c, 1, 76, 68
2, 40320, Note_off_c, 1, 76, 0
2, 40320, Note_on_c, 1, 78, 70
2, 40800, Note_off_c, 1, 78, 0
2, 40800, Note_on_c, 1, 74, 63
2, 41280, Note_off_c, 1, 74, 0
2, 41280, Note_on_c, 1, 69, 58
2, 41640, Note_off_c, 1, 69, 0
2, 41760, Note_on_c, 1, 81, 63
2, 42720, Note_off_c, 1, 81, 0
2, 42720, Note_on_c, 1, 86, 61
2, 42840, Note_off_c, 1, 86, 0
2, 42840, Note_on_c, 1, 85, 60
2, 42960, Note_off_c, 1, 85, 0
2, 42960, Note_on_c, 1, 86, 60
2, 43080, Note_off_c, 1, 86, 0
2, 43080, Note_on_c, 1, 81, 60
2, 43176, Note_off_c, 1, 81, 0
2, 43200, Note_on_c, 1, 78, 59
2, 44160, Note_off_c, 1, 78, 0
2, 44160, Note_on_c, 1, 81, 56
2, 44280, Note_off_c, 1, 81, 0
2, 44280, Note_on_c, 1, 80, 56
2, 44400, Note_off_c, 1, 80, 0
2, 44400, Note_on_c, 1, 81, 56
2, 44520, Note_off_c, 1, 81, 0
2, 44520, Note_on_c, 1, 78, 55
2, 44616, Note_off_c, 1, 78, 0
2, 44640, Note_on_c, 1, 74, 55
2, 45120, Note_off_c, 1, 74, 0
2, 45120, Note_on_c, 1, 74, 54
2, 45600, Note_off_c, 1, 74, 0
2, 45600, Note_on_c, 1, 76, 53
2, 45720, Note_off_c, 1, 76, 0
2, 45720, Note_on_c, 1, 74, 52
2, 45840, Note_off_c, 1, 74, 0
2, 45840, Note_on_c, 1, 76, 51
2, 45960, Note_off_c, 1, 76, 0
2, 45960, Note_on_c, 1, 78, 50
2, 46080, Note_off_c, 1, 78, 0
2, 46080, Note_on_c, 1, 74, 48
2, 46440, Note_off_c, 1, 74, 0
2, 47520, Control_c, 1, 64, 0
2, 47520, Note_on_c, 1, 76, 70
2, 47880, Note_off_c, 1, 76, 0
2, 48000, Note_on_c, 1, 76, 72
2, 48360, Note_off_c, 1, 76, 0
2, 48480, Note_on_c, 1, 76, 73
2, 48840, Note_off_c, 1, 76, 0
2, 48960, Note_on_c, 1, 76, 75
2, 50280, Note_off_c, 1, 76, 0
2, 50400, Note_on_c, 1, 78, 66
2, 50760, Note_off_c, 1, 78, 0
2, 50880, Note_on_c, 1, 78, 67
2, 51240, Note_off_c, 1, 78, 0
2, 51360, Note_on_c, 1, 78, 68
2, 51720, Note_off_c, 1, 78, 0
2, 51840, Note_on_c, 1, 78, 69
2, 53160, Note_off_c, 1, 78, 0
2, 53280, Note_on_c, 1, 81, 67
2, 53760, Note_off_c, 1, 81, 0
2, 53760, Note_on_c, 1, 74, 65
2, 54000, Note_off_c, 1, 74, 0
2, 54000, Note_on_c, 1, 78, 63
2, 54240, Note_off_c, 1, 78, 0
2, 54240, Note_on_c, 1, 81, 62
2, 54480, Note_off_c, 1, 81, 0
2, 54480, Note_on_c, 1, 86, 60
2, 54672, Note_off_c, 1, 86, 0
2, 54720, Note_on_c, 1, 81, 65
2, 55200, Note_off_c, 1, 81, 0
2, 55200, Note_on_c, 1, 74, 62
2, 55440, Note_off_c, 1, 74, 0
2, 55440, Note_on_c, 1, 78, 61
2, 55680, Note_off_c, 1, 78, 0
2, 55680, Note_on_c, 1, 81, 60
2, 55920, Note_off_c, 1, 81, 0
2, 55920, Note_on_c, 1, 86, 58
2, 56112, Note_off_c, 1, 86, 0
2, 56160, Note_on_c, 1, 81, 61
2, 56640, Note_off_c, 1, 81, 0
2, 56640, Note_on_c, 1, 79, 60
2, 57120, Note_off_c, 1, 79, 0
2, 57120, Note_on_c, 1, 78, 59
2, 57600, Note_off_c, 1, 78, 0
2, 57600, Note_on_c, 1, 78, 58
2, 57840, Note_off_c, 1, 78, 0
2, 57840, Note_on_c, 1, 76, 55
2, 58032, Note_off_c, 1, 76, 0
2, 58080, Note_on_c, 1, 69, 55
2, 58272, Note_off_c, 1, 69, 0
2, 58320, Note_on_c, 1, 69, 57
2, 58512, Note_off_c, 1, 69, 0
2, 58560, Note_on_c, 1, 69, 61
2, 58752, Note_off_c, 1, 69, 0
2, 58800, Note_on_c, 1, 69, 65
2, 58992, Note_off_c, 1, 69, 0
2, 59040, Control_c, 1, 64, 0
2, 59040, Note_on_c, 1, 81, 79
2, 60000, Note_off_c, 1, 81, 0
2, 60000, Note_on_c, 1, 86, 81
2, 60360, Note_off_c, 1, 86, 0
2, 60360, Note_on_c, 1, 81, 77
2, 60456, Note_off_c, 1, 81, 0
2, 60480, Note_on_c, 1, 78, 76
2, 61440, Note_off_c, 1, 78, 0
2, 61440, Note_on_c, 1, 81, 77
2, 61800, Note_off_c, 1, 81, 0
2, 61800, Note_on_c, 1, 78, 74
2, 61896, Note_off_c, 1, 78, 0
2, 61920, Note_on_c, 1, 74, 73
2, 62400, Note_off_c, 1, 74, 0
2, 62400, Note_on_c, 1, 74, 71
2, 62880, Note_off_c, 1, 74, 0
2, 62880, Note_on_c, 1, 76, 65
2, 62960, Note_off_c, 1, 76, 0
2, 62960, Note_on_c, 1, 78, 66
2, 63040, Note_off_c, 1, 78, 0
2, 63040, Note_on_c, 1, 76, 67
2, 63120, Note_off_c, 1, 76, 0
2, 63120, Note_on_c, 1, 74, 67
2, 63240, Note_off_c, 1, 74, 0
2, 63240, Note_on_c, 1, 76, 68
2, 63360, Note_off_c, 1, 76, 0
2, 63360, Note_on_c, 1, 78, 70
2, 63840, Note_off_c, 1, 78, 0
2, 63840, Note_on_c, 1, 74, 63
2, 64320, Note_off_c, 1, 74, 0
2, 64320, Note_on_c, 1, 69, 58
2, 64680, Note_off_c, 1, 69, 0
2, 64800, Note_on_c, 1, 81, 63
2, 65760, Note_off_c, 1, 81, 0
2, 65760, Note_on_c, 1, 86, 61
2, 65880, Note_off_c, 1, 86, 0
2, 65880, Note_on_c, 1, 85, 60
2, 66000, Note_off_c, 1, 85, 0
2, 66000, Note_on_c, 1, 86, 60
2, 66120, Note_off_c, 1, 86, 0
2, 66120, Note_on_c, 1, 81, 60
2, 66216, Note_off_c, 1, 81, 0
2, 66240, Note_on_c, 1, 78, 59
2, 67200, Note_off_c, 1, 78, 0
2, 67200, Note_on_c, 1, 81, 56
2, 67320, Note_off_c, 1, 81, 0
2, 67320, Note_on_c, 1, 80, 56
2, 67440, Note_off_c, 1, 80, 0
2, 67440, Note_on_c, 1, 81, 56
2, 67560, Note_off_c, 1, 81, 0
2, 67560, Note_on_c, 1, 78, 55
2, 67656, Note_off_c, 1, 78, 0
2, 67680, Note_on_c, 1, 74, 55
2, 68160, Note_off_c, 1, 74, 0
2, 68160, Note_on_c, 1, 74, 54
2, 68640, Note_off_c, 1, 74, 0
2, 68640, Note_on_c, 1, 76, 53
2, 68760, Note_off_c, 1, 76, 0
2, 68760, Note_on_c, 1, 74, 52
2, 68880, Note_off_c, 1, 74, 0
2, 68880, Note_on_c, 1, 76, 51
2, 69000, Note_off_c, 1, 76, 0
2, 69000, Note_on_c, 1, 78, 50
2, 69120, Note_off_c, 1, 78, 0
2, 69120, Note_on_c, 1, 74, 48
2, 69480, Note_off_c, 1, 74, 0
2, 70560, Control_c, 1, 64, 0
2, 70560, Note_on_c, 1, 83, 59
2, 70680, Note_off_c, 1, 83, 0
2, 70680, Note_on_c, 1, 81, 59
2, 70800, Note_off_c, 1, 81, 0
2, 70800, Note_on_c, 1, 80, 59
2, 70920, Note_off_c, 1, 80, 0
2, 70920, Note_on_c, 1, 81, 59
2, 71040, Note_off_c, 1, 81, 0
2, 71040, Note_on_c, 1, 80, 59
2, 71160, Note_off_c, 1, 80, 0
2, 71160, Note_on_c, 1, 81, 58
2, 71280, Note_off_c, 1, 81, 0
2, 71280, Note_on_c, 1, 80, 58
2, 71400, Note_off_c, 1, 80, 0
2, 71400, Note_on_c, 1, 81, 58
2, 71520, Note_off_c, 1, 81, 0
2, 71520, Note_on_c, 1, 83, 58
2, 71640, Note_off_c, 1, 83, 0
2, 71640, Note_on_c, 1, 81, 57
2, 71760, Note_off_c, 1, 81, 0
2, 71760, Note_on_c, 1, 86, 57
2, 71880, Note_off_c, 1, 86, 0
2, 71880, Note_on_c, 1, 81, 57
2, 71976, Note_off_c, 1, 81, 0
2, 72000, Note_on_c, 1, 79, 57
2, 72120, Note_off_c, 1, 79, 0
2, 72120, Note_on_c, 1, 78, 57
2, 72240, Note_off_c, 1, 78, 0
2, 72240, Note_on_c, 1, 77, 56
2, 72360, Note_off_c, 1, 77, 0
2, 72360, Note_on_c, 1, 78, 56
2, 72480, Note_off_c, 1, 78, 0
2, 72480, Note_on_c, 1, 77, 56
2, 72600, Note_off_c, 1, 77, 0
2, 72600, Note_on_c, 1, 78, 56
2, 72720, Note_off_c, 1, 78, 0
2, 72720, Note_on_c, 1, 77, 56
2, 72840, Note_off_c, 1, 77, 0
2, 72840, Note_on_c, 1, 78, 55
2, 72960, Note_off_c, 1, 78, 0
2, 72960, Note_on_c, 1, 81, 55
2, 73080, Note_off_c, 1, 81, 0
2, 73080, Note_on_c, 1, 78, 55
2, 73200, Note_off_c, 1, 78, 0
2, 73200, Note_on_c, 1, 77, 55
2, 73320, Note_off_c, 1, 77, 0
2, 73320, Note_on_c, 1, 78, 55
2, 73416, Note_off_c, 1, 78, 0
2, 73440, Note_on_c, 1, 76, 54
2, 73560, Note_off_c, 1, 76, 0
2, 73560, Note_on_c, 1, 74, 54
2, 73680, Note_off_c, 1, 74, 0
2, 73680, Note_on_c, 1, 73, 54
2, 73800, Note_off_c, 1, 73, 0
2, 73800, Note_on_c, 1, 74, 54
2, 73920, Note_off_c, 1, 74, 0
2, 73920, Note_on_c, 1, 76, 54
2, 74040, Note_off_c, 1, 76, 0
2, 74040, Note_on_c, 1, 74, 53
2, 74160, Note_off_c, 1, 74, 0
2, 74160, Note_on_c, 1, 73, 53
2, 74280, Note_off_c, 1, 73, 0
2, 74280, Note_on_c, 1, 74, 53
2, 74400, Note_off_c, 1, 74, 0
2, 74400, Note_on_c, 1, 78, 53
2, 74520, Note_off_c, 1, 78, 0
2, 74520, Note_on_c, 1, 76, 52
2, 74640, Note_off_c, 1, 76, 0
2, 74640, Note_on_c, 1, 75, 52
2, 74760, Note_off_c, 1, 75, 0
2, 74760, Note_on_c, 1, 76, 52
2, 74880, Note_off_c, 1, 76, 0
2, 74880, Note_on_c, 1, 78, 52
2, 75000, Note_off_c, 1, 78, 0
2, 75000, Note_on_c, 1, 74, 52
2, 75120, Note_off_c, 1, 74, 0
2, 75120, Note_on_c, 1, 73, 54
2, 75240, Note_off_c, 1, 73, 0
2, 75240, Note_on_c, 1, 76, 55
2, 75360, Note_off_c, 1, 76, 0
2, 75360, Note_on_c, 1, 74, 57
2, 75480, Note_off_c, 1, 74, 0
2, 75480, Note_on_c, 1, 78, 58
2, 75600, Note_off_c, 1, 78, 0
2, 75600, Note_on_c, 1, 76, 59
2, 75720, Note_off_c, 1, 76, 0
2, 75720, Note_on_c, 1, 79, 61
2, 75840, Note_off_c, 1, 79, 0
2, 75840, Note_on_c, 1, 78, 62
2, 75960, Note_off_c, 1, 78, 0
2, 75960, Note_on_c, 1, 81, 64
2, 76080, Note_off_c, 1, 81, 0
2, 76080, Note_on_c, 1, 79, 65
2, 76200, Note_off_c, 1, 79, 0
2, 76200, Note_on_c, 1, 83, 67
2, 76296, Note_off_c, 1, 83, 0
2, 76320, Note_on_c, 1, 80, 73
2, 76440, Note_off_c, 1, 80, 0
2, 76440, Note_on_c, 1, 81, 73
2, 76560, Note_off_c, 1, 81, 0
2, 76560, Note_on_c, 1, 83, 73
2, 76680, Note_off_c, 1, 83, 0
2, 76680, Note_on_c, 1, 81, 73
2, 76800, Note_off_c, 1, 81, 0
2, 76800, Note_on_c, 1, 83, 73
2, 76920, Note_off_c, 1, 83, 0
2, 76920, Note_on_c, 1, 81, 73
2, 77040, Note_off_c, 1, 81, 0
2, 77040, Note_on_c, 1, 83, 72
2, 77160, Note_off_c, 1, 83, 0
2, 77160, Note_on_c, 1, 81, 72
2, 77280, Note_off_c, 1, 81, 0
2, 77280, Note_on_c, 1, 80, 72
2, 77400, Note_off_c, 1, 80, 0
2, 77400, Note_on_c, 1, 81, 72
2, 77520, Note_off_c, 1, 81, 0
2, 77520, Note_on_c, 1, 86, 72
2, 77640, Note_off_c, 1, 86, 0
2, 77640, Note_on_c, 1, 81, 72
2, 77736, Note_off_c, 1, 81, 0
2, 77760, Note_on_c, 1, 77, 71
2, 77880, Note_off_c, 1, 77, 0
2, 77880, Note_on_c, 1, 78, 71
2, 78000, Note_off_c, 1, 78, 0
2, 78000, Note_on_c, 1, 79, 71
2, 78120, Note_off_c, 1, 79, 0
2, 78120, Note_on_c, 1, 78, 71
2, 78240, Note_off_c, 1, 78, 0
2, 78240, Note_on_c, 1, 79, 71
2, 78360, Note_off_c, 1, 79, 0
2, 78360, Note_on_c, 1, 78, 70
2, 78480, Note_off_c, 1, 78, 0
2, 78480, Note_on_c, 1, 79, 70
2, 78600, Note_off_c, 1, 79, 0
2, 78600, Note_on_c, 1, 78, 70
2, 78720, Note_off_c, 1, 78, 0
2, 78720, Note_on_c, 1, 77, 70
2, 78840, Note_off_c, 1, 77, 0
2, 78840, Note_on_c, 1, 78, 70
2, 78960, Note_off_c, 1, 78, 0
2, 78960, Note_on_c, 1, 81, 70
2, 79080, Note_off_c, 1, 81, 0
2, 79080, Note_on_c, 1, 78, 69
2, 79176, Note_off_c, 1, 78, 0
2, 79200, Note_on_c, 1, 73, 69
2, 79320, Note_off_c, 1, 73, 0
2, 79320, Note_on_c, 1, 74, 69
2, 79440, Note_off_c, 1, 74, 0
2, 79440, Note_on_c, 1, 76, 69
2, 79560, Note_off_c, 1, 76, 0
2, 79560, Note_on_c, 1, 74, 69
2, 79680, Note_off_c, 1, 74, 0
2, 79680, Note_on_c, 1, 73, 68
2, 79800, Note_off_c, 1, 73, 0
2, 79800, Note_on_c, 1, 74, 68
2, 79920, Note_off_c, 1, 74, 0
2, 79920, Note_on_c, 1, 76, 68
2, 80040, Note_off_c, 1, 76, 0
2, 80040, Note_on_c, 1, 74, 68
2, 80160, Note_off_c, 1, 74, 0
2, 80160, Note_on_c, 1, 75, 68
2, 80280, Note_off_c, 1, 75, 0
2, 80280, Note_on_c, 1, 76, 68
2, 80400, Note_off_c, 1, 76, 0
2, 80400, Note_on_c, 1, 78, 67
2, 80520, Note_off_c, 1, 78, 0
2, 80520, Note_on_c, 1, 76, 67
2, 80616, Note_off_c, 1, 76, 0
2, 80640, Note_on_c, 1, 76, 67
2, 80760, Note_off_c, 1, 76, 0
2, 80760, Note_on_c, 1, 74, 67
2, 80880, Note_off_c, 1, 74, 0
2, 80880, Note_on_c, 1, 73, 67
2, 81000, Note_off_c, 1, 73, 0
2, 81000, Note_on_c, 1, 71, 67
2, 81120, Note_off_c, 1, 71, 0
2, 81120, Note_on_c, 1, 69, 66
2, 81240, Note_off_c, 1, 69, 0
2, 81240, Note_on_c, 1, 67, 66
2, 81360, Note_off_c, 1, 67, 0
2, 81360, Note_on_c, 1, 66, 66
2, 81480, Note_off_c, 1, 66, 0
2, 81480, Note_on_c, 1, 64, 66
2, 81600, Note_off_c, 1, 64, 0
2, 81600, Note_on_c, 1, 62, 66
2, 81960, Note_off_c, 1, 62, 0
2, 82080, Control_c, 1, 64, 0
2, 82080, Note_on_c, 1, 83, 59
2, 82200, Note_off_c, 1, 83, 0
2, 82200, Note_on_c, 1, 81, 59
2, 82320, Note_off_c, 1, 81, 0
2, 82320, Note_on_c, 1, 80, 59
2, 82440, Note_off_c, 1, 80, 0
2, 82440, Note_on_c, 1, 81, 59
2, 82560, Note_off_c, 1, 81, 0
2, 82560, Note_on_c, 1, 80, 59
2, 82680, Note_off_c, 1, 80, 0
2, 82680, Note_on_c, 1, 81, 58
2, 82800, Note_off_c, 1, 81, 0
2, 82800, Note_on_c, 1, 80, 58
2, 82920, Note_off_c, 1, 80, 0
2, 82920, Note_on_c, 1, 81, 58
2, 83040, Note_off_c, 1, 81, 0
2, 83040, Note_on_c, 1, 83, 58
2, 83160, Note_off_c, 1, 83, 0
2, 83160, Note_on_c, 1, 81, 57
2, 83280, Note_off_c, 1, 81, 0
2, 83280, Note_on_c, 1, 86, 57
2, 83400, Note_off_c, 1, 86, 0
2, 83400, Note_on_c, 1, 81, 57
2, 83496, Note_off_c, 1, 81, 0
2, 83520, Note_on_c, 1, 79, 57
2, 83640, Note_off_c, 1, 79, 0
2, 83640, Note_on_c, 1, 78, 57
2, 83760, Note_off_c, 1, 78, 0
2, 83760, Note_on_c, 1, 77, 56
2, 83880, Note_off_c, 1, 77, 0
2, 83880, Note_on_c, 1, 78, 56
2, 84000, Note_off_c, 1, 78, 0
2, 84000, Note_on_c, 1, 77, 56
2, 84120, Note_off_c, 1, 77, 0
2, 84120, Note_on_c, 1, 78, 56
2, 84240, Note_off_c, 1, 78, 0
2, 84240, Note_on_c, 1, 77, 56
2, 84360, Note_off_c, 1, 77, 0
2, 84360, Note_on_c, 1, 78, 55
2, 84480, Note_off_c, 1, 78, 0
2, 84480, Note_on_c, 1, 81, 55
2, 84600, Note_off_c, 1, 81, 0
2, 84600, Note_on_c, 1, 78, 55
2, 84720, Note_off_c, 1, 78, 0
2, 84720, Note_on_c, 1, 77, 55
2, 84840, Note_off_c, 1, 77, 0
2, 84840, Note_on_c, 1, 78, 55
2, 84936, Note_off_c, 1, 78, 0
2, 84960, Note_on_c, 1, 76, 54
2, 85080, Note_off_c, 1, 76, 0
2, 85080, Note_on_c, 1, 74, 54
2, 85200, Note_off_c, 1, 74, 0
2, 85200, Note_on_c, 1, 73, 54
2, 85320, Note_off_c, 1, 73, 0
2, 85320, Note_on_c, 1, 74, 54
2, 85440, Note_off_c, 1, 74, 0
2, 85440, Note_on_c, 1, 76, 54
2, 85560, Note_off_c, 1, 76, 0
2, 85560, Note_on_c, 1, 74, 53
2, 85680, Note_off_c, 1, 74, 0
2, 85680, Note_on_c, 1, 73, 53
2, 85800, Note_off_c, 1, 73, 0
2, 85800, Note_on_c, 1, 74, 53
2, 85920, Note_off_c, 1, 74, 0
2, 85920, Note_on_c, 1, 78, 53
2, 86040, Note_off_c, 1, 78, 0
2, 86040, Note_on_c, 1, 76, 52
2, 86160, Note_off_c, 1, 76, 0
2, 86160, Note_on_c, 1, 75, 52
2, 86280, Note_off_c, 1, 75, 0
2, 86280, Note_on_c, 1, 76, 52
2, 86400, Note_off_c, 1, 76, 0
2, 86400, Note_on_c, 1, 78, 52
2, 86520, Note_off_c, 1, 78, 0
2, 86520, Note_on_c, 1, 74, 52
2, 86640, Note_off_c, 1, 74, 0
2, 86640, Note_on_c, 1, 73, 54
2, 86760, Note_off_c, 1, 73, 0
2, 86760, Note_on_c, 1, 76, 55
2, 86880, Note_off_c, 1, 76, 0
2, 86880, Note_on_c, 1, 74, 57
2, 87000, Note_off_c, 1, 74, 0
2, 87000, Note_on_c, 1, 78, 58
2, 87120, Note_off_c, 1, 78, 0
2, 87120, Note_on_c, 1, 76, 59
2, 87240, Note_off_c, 1, 76, 0
2, 87240, Note_on_c, 1, 79, 61
2, 87360, Note_off_c, 1, 79, 0
2, 87360, Note_on_c, 1, 78, 62
2, 87480, Note_off_c, 1, 78, 0
2, 87480, Note_on_c, 1, 81, 64
2, 87600, Note_off_c, 1, 81, 0
2, 87600, Note_on_c, 1, 79, 65
2, 87720, Note_off_c, 1, 79, 0
2, 87720, Note_on_c, 1, 83, 67
2, 87816, Note_off_c, 1, 83, 0
2, 87840, Note_on_c, 1, 80, 73
2, 87960, Note_off_c, 1, 80, 0
2, 87960, Note_on_c, 1, 81, 73
2, 88080, Note_off_c, 1, 81, 0
2, 88080, Note_on_c, 1, 83, 73
2, 88200, Note_off_c, 1, 83, 0
2, 88200, Note_on_c, 1, 81, 73
2, 88320, Note_off_c, 1, 81, 0
2, 88320, Note_on_c, 1, 83, 73
2, 88440, Note_off_c, 1, 83, 0
2, 88440, Note_on_c, 1, 81, 73
2, 88560, Note_off_c, 1, 81, 0
2, 88560, Note_on_c, 1, 83, 72
2, 88680, Note_off_c, 1, 83, 0
2, 88680, Note_on_c, 1, 81, 72
2, 88800, Note_off_c, 1, 81, 0
2, 88800, Note_on_c, 1, 80, 72
2, 88920, Note_off_c, 1, 80, 0
2, 88920, Note_on_c, 1, 81, 72
2, 89040, Note_off_c, 1, 81, 0
2, 89040, Note_on_c, 1, 86, 72
2, 89160, Note_off_c, 1, 86, 0
2, 89160, Note_on_c, 1, 81, 72
2, 89256, Note_off_c, 1, 81, 0
2, 89280, Note_on_c, 1, 77, 71
2, 89400, Note_off_c, 1, 77, 0
2, 89400, Note_on_c, 1, 78, 71
2, 89520, Note_off_c, 1, 78, 0
2, 89520, Note_on_c, 1, 79, 71
2, 89640, Note_off_c, 1, 79, 0
2, 89640, Note_on_c, 1, 78, 71
2, 89760, Note_off_c, 1, 78, 0
2, 89760, Note_on_c, 1, 79, 71
2, 89880, Note_off_c, 1, 79, 0
2, 89880, Note_on_c, 1, 78, 70
2, 90000, Note_off_c, 1, 78, 0
2, 90000, Note_on_c, 1, 79, 70
2, 90120, Note_off_c, 1, 79, 0
2, 90120, Note_on_c, 1, 78, 70
2, 90240, Note_off_c, 1, 78, 0
2, 90240, Note_on_c, 1, 77, 70
2, 90360, Note_off_c, 1, 77, 0
2, 90360, Note_on_c, 1, 78, 70
2, 90480, Note_off_c, 1, 78, 0
2, 90480, Note_on_c, 1, 81, 70
2, 90600, Note_off_c, 1, 81, 0
2, 90600, Note_on_c, 1, 78, 69
2, 90696, Note_off_c, 1, 78, 0
2, 90720, Note_on_c, 1, 73, 69
2, 90840, Note_off_c, 1, 73, 0
2, 90840, Note_on_c, 1, 74, 69
2, 90960, Note_off_c, 1, 74, 0
2, 90960, Note_on_c, 1, 76, 69
2, 91080, Note_off_c, 1, 76, 0
2, 91080, Note_on_c, 1, 74, 69
2, 91200, Note_off_c, 1, 74, 0
2, 91200, Note_on_c, 1, 73, 68
2, 91320, Note_off_c, 1, 73, 0
2, 91320, Note_on_c, 1, 74, 68
2, 91440, Note_off_c, 1, 74, 0
2, 91440, Note_on_c, 1, 76, 68
2, 91560, Note_off_c, 1, 76, 0
2, 91560, Note_on_c, 1, 74, 68
2, 91680, Note_off_c, 1, 74, 0
2, 91680, Note_on_c, 1, 75, 68
2, 91800, Note_off_c, 1, 75, 0
2, 91800, Note_on_c, 1, 76, 68
2, 91920, Note_off_c, 1, 76, 0
2, 91920, Note_on_c, 1, 78, 67
2, 92040, Note_off_c, 1, 78, 0
2, 92040, Note_on_c, 1, 76, 67
2, 92136, Note_off_c, 1, 76, 0
2, 92160, Note_on_c, 1, 76, 67
2, 92280, Note_off_c, 1, 76, 0
2, 92280, Note_on_c, 1, 74, 67
2, 92400, Note_off_c, 1, 74, 0
2, 92400, Note_on_c, 1, 73, 67
2, 92520, Note_off_c, 1, 73, 0
2, 92520, Note_on_c, 1, 71, 67
2, 92640, Note_off_c, 1, 71, 0
2, 92640, Note_on_c, 1, 69, 66
2, 92760, Note_off_c, 1, 69, 0
2, 92760, Note_on_c, 1, 67, 66
2, 92880, Note_off_c, 1, 67, 0
2, 92880, Note_on_c, 1, 66, 66
2, 93000, Note_off_c, 1, 66, 0
2, 93000, Note_on_c, 1, 64, 66
2, 93120, Note_off_c, 1, 64, 0
2, 93120, Note_on_c, 1, 62, 66
2, 93480, Note_off_c, 1, 62, 0
2, 93600, Control_c, 1, 64, 0
2, 93600, Note_on_c, 1, 76, 53
2, 93720, Note_off_c, 1, 76, 0
2, 93720, Note_on_c, 1, 73, 53
2, 93840, Note_off_c, 1, 73, 0
2, 93840, Note_on_c, 1, 69, 53
2, 93960, Note_off_c, 1, 69, 0
2, 93960, Note_on_c, 1, 73, 53
2, 94080, Note_off_c, 1, 73, 0
2, 94080, Note_on_c, 1, 76, 53
2, 94200, Note_off_c, 1, 76, 0
2, 94200, Note_on_c, 1, 73, 52
2, 94320, Note_off_c, 1, 73, 0
2, 94320, Note_on_c, 1, 79, 52
2, 94440, Note_off_c, 1, 79, 0
2, 94440, Note_on_c, 1, 76, 52
2, 94560, Note_off_c, 1, 76, 0
2, 94560, Note_on_c, 1, 78, 52
2, 94680, Note_off_c, 1, 78, 0
2, 94680, Note_on_c, 1, 74, 52
2, 94800, Note_off_c, 1, 74, 0
2, 94800, Note_on_c, 1, 81, 51
2, 94920, Note_off_c, 1, 81, 0
2, 94920, Note_on_c, 1, 78, 51
2, 95040, Note_off_c, 1, 78, 0
2, 95040, Note_on_c, 1, 79, 51
2, 95160, Note_off_c, 1, 79, 0
2, 95160, Note_on_c, 1, 76, 51
2, 95280, Note_off_c, 1, 76, 0
2, 95280, Note_on_c, 1, 85, 51
2, 95400, Note_off_c, 1, 85, 0
2, 95400, Note_on_c, 1, 79, 50
2, 95520, Note_off_c, 1, 79, 0
2, 95520, Note_on_c, 1, 88, 50
2, 95640, Note_off_c, 1, 88, 0
2, 95640, Note_on_c, 1, 86, 50
2, 95760, Note_off_c, 1, 86, 0
2, 95760, Note_on_c, 1, 85, 50
2, 95880, Note_off_c, 1, 85, 0
2, 95880, Note_on_c, 1, 83, 50
2, 96000, Note_off_c, 1, 83, 0
2, 96000, Note_on_c, 1, 81, 49
2, 96120, Note_off_c, 1, 81, 0
2, 96120, Note_on_c, 1, 79, 49
2, 96240, Note_off_c, 1, 79, 0
2, 96240, Note_on_c, 1, 78, 49
2, 96360, Note_off_c, 1, 78, 0
2, 96360, Note_on_c, 1, 76, 49
2, 96456, Note_off_c, 1, 76, 0
2, 96480, Note_on_c, 1, 78, 49
2, 96600, Note_off_c, 1, 78, 0
2, 96600, Note_on_c, 1, 74, 48
2, 96720, Note_off_c, 1, 74, 0
2, 96720, Note_on_c, 1, 69, 48
2, 96840, Note_off_c, 1, 69, 0
2, 96840, Note_on_c, 1, 74, 48
2, 96960, Note_off_c, 1, 74, 0
2, 96960, Note_on_c, 1, 78, 48
2, 97080, Note_off_c, 1, 78, 0
2, 97080, Note_on_c, 1, 74, 48
2, 97200, Note_off_c, 1, 74, 0
2, 97200, Note_on_c, 1, 81, 47
2, 97320, Note_off_c, 1, 81, 0
2, 97320, Note_on_c, 1, 78, 47
2, 97440, Note_off_c, 1, 78, 0
2, 97440, Note_on_c, 1, 79, 47
2, 97560, Note_off_c, 1, 79, 0
2, 97560, Note_on_c, 1, 76, 47
2, 97680, Note_off_c, 1, 76, 0
2, 97680, Note_on_c, 1, 83, 47
2, 97800, Note_off_c, 1, 83, 0
2, 97800, Note_on_c, 1, 79, 46
2, 97920, Note_off_c, 1, 79, 0
2, 97920, Note_on_c, 1, 81, 46
2, 98040, Note_off_c, 1, 81, 0
2, 98040, Note_on_c, 1, 78, 46
2, 98160, Note_off_c, 1, 78, 0
2, 98160, Note_on_c, 1, 74, 46
2, 98280, Note_off_c, 1, 74, 0
2, 98280, Note_on_c, 1, 73, 46
2, 98400, Note_off_c, 1, 73, 0
2, 98400, Note_on_c, 1, 76, 47
2, 98520, Note_off_c, 1, 76, 0
2, 98520, Note_on_c, 1, 74, 49
2, 98640, Note_off_c, 1, 74, 0
2, 98640, Note_on_c, 1, 78, 50
2, 98760, Note_off_c, 1, 78, 0
2, 98760, Note_on_c, 1, 76, 52
2, 98880, Note_off_c, 1, 76, 0
2, 98880, Note_on_c, 1, 79, 54
2, 99000, Note_off_c, 1, 79, 0
2, 99000, Note_on_c, 1, 78, 57
2, 99120, Note_off_c, 1, 78, 0
2, 99120, Note_on_c, 1, 81, 59
2, 99240, Note_off_c, 1, 81, 0
2, 99240, Note_on_c, 1, 79, 62
2, 99336, Note_off_c, 1, 79, 0
2, 99360, Note_on_c, 1, 83, 67
2, 99480, Note_off_c, 1, 83, 0
2, 99480, Note_on_c, 1, 81, 67
2, 99600, Note_off_c, 1, 81, 0
2, 99600, Note_on_c, 1, 79, 67
2, 99720, Note_off_c, 1, 79, 0
2, 99720, Note_on_c, 1, 78, 67
2, 99840, Note_off_c, 1, 78, 0
2, 99840, Note_on_c, 1, 76, 66
2, 99960, Note_off_c, 1, 76, 0
2, 99960, Note_on_c, 1, 74, 66
2, 100080, Note_off_c, 1, 74, 0
2, 100080, Note_on_c, 1, 73, 66
2, 100200, Note_off_c, 1, 73, 0
2, 100200, Note_on_c, 1, 74, 65
2, 100320, Note_off_c, 1, 74, 0
2, 100320, Note_on_c, 1, 83, 65
2, 100440, Note_off_c, 1, 83, 0
2, 100440, Note_on_c, 1, 85, 65
2, 100560, Note_off_c, 1, 85, 0
2, 100560, Note_on_c, 1, 86, 65
2, 100680, Note_off_c, 1, 86, 0
2, 100680, Note_on_c, 1, 83, 64
2, 100776, Note_off_c, 1, 83, 0
2, 100800, Note_on_c, 1, 80, 64
2, 100920, Note_off_c, 1, 80, 0
2, 100920, Note_on_c, 1, 81, 64
2, 101040, Note_off_c, 1, 81, 0
2, 101040, Note_on_c, 1, 83, 64
2, 101160, Note_off_c, 1, 83, 0
2, 101160, Note_on_c, 1, 81, 63
2, 101280, Note_off_c, 1, 81, 0
2, 101280, Note_on_c, 1, 79, 63
2, 101400, Note_off_c, 1, 79, 0
2, 101400, Note_on_c, 1, 78, 63
2, 101520, Note_off_c, 1, 78, 0
2, 101520, Note_on_c, 1, 76, 63
2, 101640, Note_off_c, 1, 76, 0
2, 101640, Note_on_c, 1, 74, 62
2, 101760, Note_off_c, 1, 74, 0
2, 101760, Note_on_c, 1, 83, 62
2, 101880, Note_off_c, 1, 83, 0
2, 101880, Note_on_c, 1, 85, 62
2, 102000, Note_off_c, 1, 85, 0
2, 102000, Note_on_c, 1, 86, 61
2, 102120, Note_off_c, 1, 86, 0
2, 102120, Note_on_c, 1, 83, 61
2, 102216, Note_off_c, 1, 83, 0
2, 102240, Note_on_c, 1, 83, 61
2, 102360, Note_off_c, 1, 83, 0
2, 102360, Note_on_c, 1, 81, 61
2, 102480, Note_off_c, 1, 81, 0
2, 102480, Note_on_c, 1, 86, 60
2, 102600, Note_off_c, 1, 86, 0
2, 102600, Note_on_c, 1, 81, 60
2, 102696, Note_off_c, 1, 81, 0
2, 102720, Note_on_c, 1, 81, 60
2, 102840, Note_off_c, 1, 81, 0
2, 102840, Note_on_c, 1, 79, 60
2, 102960, Note_off_c, 1, 79, 0
2, 102960, Note_on_c, 1, 88, 59
2, 103080, Note_off_c, 1, 88, 0
2, 103080, Note_on_c, 1, 79, 59
2, 103176, Note_off_c, 1, 79, 0
2, 103200, Note_on_c, 1, 79, 59
2, 103320, Note_off_c, 1, 79, 0
2, 103320, Note_on_c, 1, 78, 58
2, 103440, Note_off_c, 1, 78, 0
2, 103440, Note_on_c, 1, 86, 58
2, 103560, Note_off_c, 1, 86, 0
2, 103560, Note_on_c, 1, 78, 58
2, 103656, Note_off_c, 1, 78, 0
2, 103680, Note_on_c, 1, 78, 59
2, 103800, Note_off_c, 1, 78, 0
2, 103800, Note_on_c, 1, 76, 58
2, 103920, Note_off_c, 1, 76, 0
2, 103920, Note_on_c, 1, 75, 58
2, 104040, Note_off_c, 1, 75, 0
2, 104040, Note_on_c, 1, 76, 57
2, 104160, Note_off_c, 1, 76, 0
2, 104160, Note_on_c, 1, 74, 57
2, 104280, Note_off_c, 1, 74, 0
2, 104280, Note_on_c, 1, 73, 56
2, 104400, Note_off_c, 1, 73, 0
2, 104400, Note_on_c, 1, 72, 55
2, 104520, Note_off_c, 1, 72, 0
2, 104520, Note_on_c, 1, 73, 55
2, 104640, Note_off_c, 1, 73, 0
2, 104640, Note_on_c, 1, 71, 54
2, 104760, Note_off_c, 1, 71, 0
2, 104760, Note_on_c, 1, 69, 53
2, 104880, Note_off_c, 1, 69, 0
2, 104880, Note_on_c, 1, 68, 53
2, 105000, Note_off_c, 1, 68, 0
2, 105000, Note_on_c, 1, 69, 52
2, 105096, Note_off_c, 1, 69, 0
2, 105120, Control_c, 1, 64, 0
2, 105120, Note_on_c, 1, 83, 55
2, 105240, Note_off_c, 1, 83, 0
2, 105240, Note_on_c, 1, 81, 55
2, 105360, Note_off_c, 1, 81, 0
2, 105360, Note_on_c, 1, 80, 54
2, 105480, Note_off_c, 1, 80, 0
2, 105480, Note_on_c, 1, 81, 54
2, 105600, Note_off_c, 1, 81, 0
2, 105600, Note_on_c, 1, 80, 53
2, 105720, Note_off_c, 1, 80, 0
2, 105720, Note_on_c, 1, 81, 53
2, 105840, Note_off_c, 1, 81, 0
2, 105840, Note_on_c, 1, 80, 52
2, 105960, Note_off_c, 1, 80, 0
2, 105960, Note_on_c, 1, 81, 52
2, 106080, Note_off_c, 1, 81, 0
2, 106080, Note_on_c, 1, 83, 51
2, 106200, Note_off_c, 1, 83, 0
2, 106200, Note_on_c, 1, 81, 51
2, 106320, Note_off_c, 1, 81, 0
2, 106320, Note_on_c, 1, 86, 50
2, 106440, Note_off_c, 1, 86, 0
2, 106440, Note_on_c, 1, 81, 50
2, 106536, Note_off_c, 1, 81, 0
2, 106560, Note_on_c, 1, 79, 53
2, 106680, Note_off_c, 1, 79, 0
2, 106680, Note_on_c, 1, 78, 53
2, 106800, Note_off_c, 1, 78, 0
2, 106800, Note_on_c, 1, 77, 52
2, 106920, Note_off_c, 1, 77, 0
2, 106920, Note_on_c, 1, 78, 52
2, 107040, Note_off_c, 1, 78, 0
2, 107040, Note_on_c, 1, 77, 51
2, 107160, Note_off_c, 1, 77, 0
2, 107160, Note_on_c, 1, 78, 50
2, 107280, Note_off_c, 1, 78, 0
2, 107280, Note_on_c, 1, 77, 50
2, 107400, Note_off_c, 1, 77, 0
2, 107400, Note_on_c, 1, 78, 49
2, 107520, Note_off_c, 1, 78, 0
2, 107520, Note_on_c, 1, 81, 49
2, 107640, Note_off_c, 1, 81, 0
2, 107640, Note_on_c, 1, 78, 48
2, 107760, Note_off_c, 1, 78, 0
2, 107760, Note_on_c, 1, 77, 48
2, 107880, Note_off_c, 1, 77, 0
2, 107880, Note_on_c, 1, 78, 50
2, 107976, Note_off_c, 1, 78, 0
2, 108000, Note_on_c, 1, 76, 49
2, 108120, Note_off_c, 1, 76, 0
2, 108120, Note_on_c, 1, 74, 49
2, 108240, Note_off_c, 1, 74, 0
2, 108240, Note_on_c, 1, 73, 49
2, 108360, Note_off_c, 1, 73, 0
2, 108360, Note_on_c, 1, 74, 49
2, 108480, Note_off_c, 1, 74, 0
2, 108480, Note_on_c, 1, 76, 48
2, 108600, Note_off_c, 1, 76, 0
2, 108600, Note_on_c, 1, 74, 48
2, 108720, Note_off_c, 1, 74, 0
2, 108720, Note_on_c, 1, 73, 48
2, 108840, Note_off_c, 1, 73, 0
2, 108840, Note_on_c, 1, 74, 48
2, 108960, Note_off_c, 1, 74, 0
2, 108960, Note_on_c, 1, 78, 47
2, 109080, Note_off_c, 1, 78, 0
2, 109080, Note_on_c, 1, 76, 47
2, 109200, Note_off_c, 1, 76, 0
2, 109200, Note_on_c, 1, 75, 47
2, 109320, Note_off_c, 1, 75, 0
2, 109320, Note_on_c, 1, 76, 47
2, 109440, Note_off_c, 1, 76, 0
2, 109440, Note_on_c, 1, 78, 46
2, 109560, Note_off_c, 1, 78, 0
2, 109560, Note_on_c, 1, 74, 47
2, 109680, Note_off_c, 1, 74, 0
2, 109680, Note_on_c, 1, 73, 49
2, 109800, Note_off_c, 1, 73, 0
2, 109800, Note_on_c, 1, 76, 51
2, 109920, Note_off_c, 1, 76, 0
2, 109920, Note_on_c, 1, 74, 53
2, 110040, Note_off_c, 1, 74, 0
2, 110040, Note_on_c, 1, 78, 55
2, 110160, Note_off_c, 1, 78, 0
2, 110160, Note_on_c, 1, 76, 57
2, 110280, Note_off_c, 1, 76, 0
2, 110280, Note_on_c, 1, 79, 59
2, 110400, Note_off_c, 1, 79, 0
2, 110400, Note_on_c, 1, 78, 60
2, 110520, Note_off_c, 1, 78, 0
2, 110520, Note_on_c, 1, 81, 62
2, 110640, Note_off_c, 1, 81, 0
2, 110640, Note_on_c, 1, 79, 64
2, 110760, Note_off_c, 1, 79, 0
2, 110760, Note_on_c, 1, 83, 66
2, 110856, Note_off_c, 1, 83, 0
2, 110880, Note_on_c, 1, 80, 75
2, 111000, Note_off_c, 1, 80, 0
2, 111000, Note_on_c, 1, 81, 75
2, 111120, Note_off_c, 1, 81, 0
2, 111120, Note_on_c, 1, 83, 75
2, 111240, Note_off_c, 1, 83, 0
2, 111240, Note_on_c, 1, 81, 75
2, 111360, Note_off_c, 1, 81, 0
2, 111360, Note_on_c, 1, 83, 75
2, 111480, Note_off_c, 1, 83, 0
2, 111480, Note_on_c, 1, 81, 75
2, 111600, Note_off_c, 1, 81, 0
2, 111600, Note_on_c, 1, 83, 74
2, 111720, Note_off_c, 1, 83, 0
2, 111720, Note_on_c, 1, 81, 74
2, 111840, Note_off_c, 1, 81, 0
2, 111840, Note_on_c, 1, 80, 74
2, 111960, Note_off_c, 1, 80, 0
2, 111960, Note_on_c, 1, 81, 74
2, 112080, Note_off_c, 1, 81, 0
2, 112080, Note_on_c, 1, 86, 74
2, 112200, Note_off_c, 1, 86, 0
2, 112200, Note_on_c, 1, 81, 74
2, 112296, Note_off_c, 1, 81, 0
2, 112320, Note_on_c, 1, 77, 73
2, 112440, Note_off_c, 1, 77, 0
2, 112440, Note_on_c, 1, 78, 73
2, 112560, Note_off_c, 1, 78, 0
2, 112560, Note_on_c, 1, 79, 73
2, 112680, Note_off_c, 1, 79, 0
2, 112680, Note_on_c, 1, 78, 73
2, 112800, Note_off_c, 1, 78, 0
2, 112800, Note_on_c, 1, 79, 73
2, 112920, Note_off_c, 1, 79, 0
2, 112920, Note_on_c, 1, 78, 73
2, 113040, Note_off_c, 1, 78, 0
2, 113040, Note_on_c, 1, 79, 72
2, 113160, Note_off_c, 1, 79, 0
2, 113160, Note_on_c, 1, 78, 72
2, 113280, Note_off_c, 1, 78, 0
2, 113280, Note_on_c, 1, 77, 72
2, 113400, Note_off_c, 1, 77, 0
2, 113400, Note_on_c, 1, 78, 72
2, 113520, Note_off_c, 1, 78, 0
2, 113520, Note_on_c, 1, 81, 72
2, 113640, Note_off_c, 1, 81, 0
2, 113640, Note_on_c, 1, 78, 72
2, 113736, Note_off_c, 1, 78, 0
2, 113760, Note_on_c, 1, 73, 71
2, 113880, Note_off_c, 1, 73, 0
2, 113880, Note_on_c, 1, 74, 71
2, 114000, Note_off_c, 1, 74, 0
2, 114000, Note_on_c, 1, 76, 71
2, 114120, Note_off_c, 1, 76, 0
2, 114120, Note_on_c, 1, 74, 71
2, 114240, Note_off_c, 1, 74, 0
2, 114240, Note_on_c, 1, 73, 71
2, 114360, Note_off_c, 1, 73, 0
2, 114360, Note_on_c, 1, 74, 71
2, 114480, Note_off_c, 1, 74, 0
2, 114480, Note_on_c, 1, 76, 70
2, 114600, Note_off_c, 1, 76, 0
2, 114600, Note_on_c, 1, 74, 70
2, 114720, Note_off_c, 1, 74, 0
2, 114720, Note_on_c, 1, 75, 70
2, 114840, Note_off_c, 1, 75, 0
2, 114840, Note_on_c, 1, 76, 70
2, 114960, Note_off_c, 1, 76, 0
2, 114960, Note_on_c, 1, 78, 70
2, 115080, Note_off_c, 1, 78, 0
2, 115080, Note_on_c, 1, 76, 69
2, 115176, Note_off_c, 1, 76, 0
2, 115200, Note_on_c, 1, 76, 69
2, 115320, Note_off_c, 1, 76, 0
2, 115320, Note_on_c, 1, 74, 67
2, 115440, Note_off_c, 1, 74, 0
2, 115440, Note_on_c, 1, 73, 67
2, 115560, Note_off_c, 1, 73, 0
2, 115560, Note_on_c, 1, 71, 66
2, 115680, Note_off_c, 1, 71, 0
2, 115680, Note_on_c, 1, 69, 65
2, 115800, Note_off_c, 1, 69, 0
2, 115800, Note_on_c, 1, 67, 65
2, 115920, Note_off_c, 1, 67, 0
2, 115920, Note_on_c, 1, 66, 64
2, 116040, Note_off_c, 1, 66, 0
2, 116040, Note_on_c, 1, 64, 63
2, 116160, Note_off_c, 1, 64, 0
2, 116160, Note_on_c, 1, 62, 63
2, 116520, Note_off_c, 1, 62, 0
2, 116640, Control_c, 1, 64, 0
2, 116640, Note_on_c, 1, 76, 53
2, 116760, Note_off_c, 1, 76, 0
2, 116760, Note_on_c, 1, 73, 53
2, 116880, Note_off_c, 1, 73, 0
2, 116880, Note_on_c, 1, 69, 53
2, 117000, Note_off_c, 1, 69, 0
2, 117000, Note_on_c, 1, 73, 53
2, 117120, Note_off_c, 1, 73, 0
2, 117120, Note_on_c, 1, 76, 53
2, 117240, Note_off_c, 1, 76, 0
2, 117240, Note_on_c, 1, 73, 52
2, 117360, Note_off_c, 1, 73, 0
2, 117360, Note_on_c, 1, 79, 52
2, 117480, Note_off_c, 1, 79, 0
2, 117480, Note_on_c, 1, 76, 52
2, 117600, Note_off_c, 1, 76, 0
2, 117600, Note_on_c, 1, 78, 52
2, 117720, Note_off_c, 1, 78, 0
2, 117720, Note_on_c, 1, 74, 52
2, 117840, Note_off_c, 1, 74, 0
2, 117840, Note_on_c, 1, 81, 51
2, 117960, Note_off_c, 1, 81, 0
2, 117960, Note_on_c, 1, 78, 51
2, 118080, Note_off_c, 1, 78, 0
2, 118080, Note_on_c, 1, 79, 51
2, 118200, Note_off_c, 1, 79, 0
2, 118200, Note_on_c, 1, 76, 51
2, 118320, Note_off_c, 1, 76, 0
2, 118320, Note_on_c, 1, 85, 51
2, 118440, Note_off_c, 1, 85, 0
2, 118440, Note_on_c, 1, 79, 50
2, 118560, Note_off_c, 1, 79, 0
2, 118560, Note_on_c, 1, 88, 50
2, 118680, Note_off_c, 1, 88, 0
2, 118680, Note_on_c, 1, 86, 50
2, 118800, Note_off_c, 1, 86, 0
2, 118800, Note_on_c, 1, 85, 50
2, 118920, Note_off_c, 1, 85, 0
2, 118920, Note_on_c, 1, 83, 50
2, 119040, Note_off_c, 1, 83, 0
2, 119040, Note_on_c, 1, 81, 49
2, 119160, Note_off_c, 1, 81, 0
2, 119160, Note_on_c, 1, 79, 49
2, 119280, Note_off_c, 1, 79, 0
2, 119280, Note_on_c, 1, 78, 49
2, 119400, Note_off_c, 1, 78, 0
2, 119400, Note_on_c, 1, 76, 49
2, 119496, Note_off_c, 1, 76, 0
2, 119520, Note_on_c, 1, 78, 49
2, 119640, Note_off_c, 1, 78, 0
2, 119640, Note_on_c, 1, 74, 48
2, 119760, Note_off_c, 1, 74, 0
2, 119760, Note_on_c, 1, 69, 48
2, 119880, Note_off_c, 1, 69, 0
2, 119880, Note_on_c, 1, 74, 48
2, 120000, Note_off_c, 1, 74, 0
2, 120000, Note_on_c, 1, 78, 48
2, 120120, Note_off_c, 1, 78, 0
2, 120120, Note_on_c, 1, 74, 48
2, 120240, Note_off_c, 1, 74, 0
2, 120240, Note_on_c, 1, 81, 47
2, 120360, Note_off_c, 1, 81, 0
2, 120360, Note_on_c, 1, 78, 47
2, 120480, Note_off_c, 1, 78, 0
2, 120480, Note_on_c, 1, 79, 47
2, 120600, Note_off_c, 1, 79, 0
2, 120600, Note_on_c, 1, 76, 47
2, 120720, Note_off_c, 1, 76, 0
2, 120720, Note_on_c, 1, 83, 47
2, 120840, Note_off_c, 1, 83, 0
2, 120840, Note_on_c, 1, 79, 46
2, 120960, Note_off_c, 1, 79, 0
2, 120960, Note_on_c, 1, 81, 46
2, 121080, Note_off_c, 1, 81, 0
2, 121080, Note_on_c, 1, 78, 46
2, 121200, Note_off_c, 1, 78, 0
2, 121200, Note_on_c, 1, 74, 46
2, 121320, Note_off_c, 1, 74, 0
2, 121320, Note_on_c, 1, 73, 46
2, 121440, Note_off_c, 1, 73, 0
2, 121440, Note_on_c, 1, 76, 47
2, 121560, Note_off_c, 1, 76, 0
2, 121560, Note_on_c, 1, 74, 49
2, 121680, Note_off_c, 1, 74, 0
2, 121680, Note_on_c, 1, 78, 50
2, 121800, Note_off_c, 1, 78, 0
2, 121800, Note_on_c, 1, 76, 52
2, 121920, Note_off_c, 1, 76, 0
2, 121920, Note_on_c, 1, 79, 54
2, 122040, Note_off_c, 1, 79, 0
2, 122040, Note_on_c, 1, 78, 57
2, 122160, Note_off_c, 1, 78, 0
2, 122160, Note_on_c, 1, 81, 59
2, 122280, Note_off_c, 1, 81, 0
2, 122280, Note_on_c, 1, 79, 62
2, 122376, Note_off_c, 1, 79, 0
2, 122400, Note_on_c, 1, 83, 67
2, 122520, Note_off_c, 1, 83, 0
2, 122520, Note_on_c, 1, 81, 67
2, 122640, Note_off_c, 1, 81, 0
2, 122640, Note_on_c, 1, 79, 67
2, 122760, Note_off_c, 1, 79, 0
2, 122760, Note_on_c, 1, 78, 67
2, 122880, Note_off_c, 1, 78, 0
2, 122880, Note_on_c, 1, 76, 66
2, 123000, Note_off_c, 1, 76, 0
2, 123000, Note_on_c, 1, 74, 66
2, 123120, Note_off_c, 1, 74, 0
2, 123120, Note_on_c, 1, 73, 66
2, 123240, Note_off_c, 1, 73, 0
2, 123240, Note_on_c, 1, 74, 65
2, 123360, Note_off_c, 1, 74, 0
2, 123360, Note_on_c, 1, 83, 65
2, 123480, Note_off_c, 1, 83, 0
2, 123480, Note_on_c, 1, 85, 65
2, 123600, Note_off_c, 1, 85, 0
2, 123600, Note_on_c, 1, 86, 65
2, 123720, Note_off_c, 1, 86, 0
2, 123720, Note_on_c, 1, 83, 64
2, 123816, Note_off_c, 1, 83, 0
2, 123840, Note_on_c, 1, 80, 64
2, 123960, Note_off_c, 1, 80, 0
2, 123960, Note_on_c, 1, 81, 64
2, 124080, Note_off_c, 1, 81, 0
2, 124080, Note_on_c, 1, 83, 64
2, 124200, Note_off_c, 1, 83, 0
2, 124200, Note_on_c, 1, 81, 63
2, 124320, Note_off_c, 1, 81, 0
2, 124320, Note_on_c, 1, 79, 63
2, 124440, Note_off_c, 1, 79, 0
2, 124440, Note_on_c, 1, 78, 63
2, 124560, Note_off_c, 1, 78, 0
2, 124560, Note_on_c, 1, 76, 63
2, 124680, Note_off_c, 1, 76, 0
2, 124680, Note_on_c, 1, 74, 62
2, 124800, Note_off_c, 1, 74, 0
2, 124800, Note_on_c, 1, 83, 62
2, 124920, Note_off_c, 1, 83, 0
2, 124920, Note_on_c, 1, 85, 62
2, 125040, Note_off_c, 1, 85, 0
2, 125040, Note_on_c, 1, 86, 61
2, 125160, Note_off_c, 1, 86, 0
2, 125160, Note_on_c, 1, 83, 61
2, 125256, Note_off_c, 1, 83, 0
2, 125280, Note_on_c, 1, 83, 61
2, 125400, Note_off_c, 1, 83, 0
2, 125400, Note_on_c, 1, 81, 61
2, 125520, Note_off_c, 1, 81, 0
2, 125520, Note_on_c, 1, 86, 60
2, 125640, Note_off_c, 1, 86, 0
2, 125640, Note_on_c, 1, 81, 60
2, 125736, Note_off_c, 1, 81, 0
2, 125760, Note_on_c, 1, 81, 60
2, 125880, Note_off_c, 1, 81, 0
2, 125880, Note_on_c, 1, 79, 60
2, 126000, Note_off_c, 1, 79, 0
2, 126000, Note_on_c, 1, 88, 59
2, 126120, Note_off_c, 1, 88, 0
2, 126120, Note_on_c, 1, 79, 59
2, 126216, Note_off_c, 1, 79, 0
2, 126240, Note_on_c, 1, 79, 59
2, 126360, Note_off_c, 1, 79, 0
2, 126360, Note_on_c, 1, 78, 58
2, 126480, Note_off_c, 1, 78, 0
2, 126480, Note_on_c, 1, 86, 58
2, 126600, Note_off_c, 1, 86, 0
2, 126600, Note_on_c, 1, 78, 58
2, 126696, Note_off_c, 1, 78, 0
2, 126720, Note_on_c, 1, 78, 59
2, 126840, Note_off_c, 1, 78, 0
2, 126840, Note_on_c, 1, 76, 58
2, 126960, Note_off_c, 1, 76, 0
2, 126960, Note_on_c, 1, 75, 58
2, 127080, Note_off_c, 1, 75, 0
2, 127080, Note_on_c, 1, 76, 57
2, 127200, Note_off_c, 1, 76, 0
2, 127200, Note_on_c, 1, 74, 57
2, 127320, Note_off_c, 1, 74, 0
2, 127320, Note_on_c, 1, 73, 56
2, 127440, Note_off_c, 1, 73, 0
2, 127440, Note_on_c, 1, 72, 55
2, 127560, Note_off_c, 1, 72, 0
2, 127560, Note_on_c, 1, 73, 55
2, 127680, Note_off_c, 1, 73, 0
2, 127680, Note_on_c, 1, 71, 54
2, 127800, Note_off_c, 1, 71, 0
2, 127800, Note_on_c, 1, 69, 53
2, 127920, Note_off_c, 1, 69, 0
2, 127920, Note_on_c, 1, 68, 53
2, 128040, Note_off_c, 1, 68, 0
2, 128040, Note_on_c, 1, 69, 52
2, 128136, Note_off_c, 1, 69, 0
2, 128160, Control_c, 1, 64, 0
2, 128160, Note_on_c, 1, 83, 55
2, 128280, Note_off_c, 1, 83, 0
2, 128280, Note_on_c, 1, 81, 55
2, 128400, Note_off_c, 1, 81, 0
2, 128400, Note_on_c, 1, 80, 54
2, 128520, Note_off_c, 1, 80, 0
2, 128520, Note_on_c, 1, 81, 54
2, 128640, Note_off_c, 1, 81, 0
2, 128640, Note_on_c, 1, 80, 53
2, 128760, Note_off_c, 1, 80, 0
2, 128760, Note_on_c, 1, 81, 53
2, 128880, Note_off_c, 1, 81, 0
2, 128880, Note_on_c, 1, 80, 52
2, 129000, Note_off_c, 1, 80, 0
2, 129000, Note_on_c, 1, 81, 52
2, 129120, Note_off_c, 1, 81, 0
2, 129120, Note_on_c, 1, 83, 51
2, 129240, Note_off_c, 1, 83, 0
2, 129240, Note_on_c, 1, 81, 51
2, 129360, Note_off_c, 1, 81, 0
2, 129360, Note_on_c, 1, 86, 50
2, 129480, Note_off_c, 1, 86, 0
2, 129480, Note_on_c, 1, 81, 50
2, 129576, Note_off_c, 1, 81, 0
2, 129600, Note_on_c, 1, 79, 53
2, 129720, Note_off_c, 1, 79, 0
2, 129720, Note_on_c, 1, 78, 53
2, 129840, Note_off_c, 1, 78, 0
2, 129840, Note_on_c, 1, 77, 52
2, 129960, Note_off_c, 1, 77, 0
2, 129960, Note_on_c, 1, 78, 52
2, 130080, Note_off_c, 1, 78, 0
2, 130080, Note_on_c, 1, 77, 51
2, 130200, Note_off_c, 1, 77, 0
2, 130200, Note_on_c, 1, 78, 50
2, 130320, Note_off_c, 1, 78, 0
2, 130320, Note_on_c, 1, 77, 50
2, 130440, Note_off_c, 1, 77, 0
2, 130440, Note_on_c, 1, 78, 49
2, 130560, Note_off_c, 1, 78, 0
2, 130560, Note_on_c, 1, 81, 49
2, 130680, Note_off_c, 1, 81, 0
2, 130680, Note_on_c, 1, 78, 48
2, 130800, Note_off_c, 1, 78, 0
2, 130800, Note_on_c, 1, 77, 48
2, 130920, Note_off_c, 1, 77, 0
2, 130920, Note_on_c, 1, 78, 50
2, 131016, Note_off_c, 1, 78, 0
2, 131040, Note_on_c, 1, 76, 49
2, 131160, Note_off_c, 1, 76, 0
2, 131160, Note_on_c, 1, 74, 49
2, 131280, Note_off_c, 1, 74, 0
2, 131280, Note_on_c, 1, 73, 49
2, 131400, Note_off_c, 1, 73, 0
2, 131400, Note_on_c, 1, 74, 49
2, 131520, Note_off_c, 1, 74, 0
2, 131520, Note_on_c, 1, 76, 48
2, 131640, Note_off_c, 1, 76, 0
2, 131640, Note_on_c, 1, 74, 48
2, 131760, Note_off_c, 1, 74, 0
2, 131760, Note_on_c, 1, 73, 48
2, 131880, Note_off_c, 1, 73, 0
2, 131880, Note_on_c, 1, 74, 48
2, 132000, Note_off_c, 1, 74, 0
2, 132000, Note_on_c, 1, 78, 47
2, 132120, Note_off_c, 1, 78, 0
2, 132120, Note_on_c, 1, 76, 47
2, 132240, Note_off_c, 1, 76, 0
2, 132240, Note_on_c, 1, 75, 47
2, 132360, Note_off_c, 1, 75, 0
2, 132360, Note_on_c, 1, 76, 47
2, 132480, Note_off_c, 1, 76, 0
2, 132480, Note_on_c, 1, 78, 46
2, 132600, Note_off_c, 1, 78, 0
2, 132600, Note_on_c, 1, 74, 47
2, 132720, Note_off_c, 1, 74, 0
2, 132720, Note_on_c, 1, 73, 49
2, 132840, Note_off_c, 1, 73, 0
2, 132840, Note_on_c, 1, 76, 51
2, 132960, Note_off_c, 1, 76, 0
2, 132960, Note_on_c, 1, 74, 53
2, 133080, Note_off_c, 1, 74, 0
2, 133080, Note_on_c, 1, 78, 55
2, 133200, Note_off_c, 1, 78, 0
2, 133200, Note_on_c, 1, 76, 57
2, 133320, Note_off_c, 1, 76, 0
2, 133320, Note_on_c, 1, 79, 59
2, 133440, Note_off_c, 1, 79, 0
2, 133440, Note_on_c, 1, 78, 60
2, 133560, Note_off_c, 1, 78, 0
2, 133560, Note_on_c, 1, 81, 62
2, 133680, Note_off_c, 1, 81, 0
2, 133680, Note_on_c, 1, 79, 64
2, 133800, Note_off_c, 1, 79, 0
2, 133800, Note_on_c, 1, 83, 66
2, 133896, Note_off_c, 1, 83, 0
2, 133920, Note_on_c, 1, 80, 75
2, 134040, Note_off_c, 1, 80, 0
2, 134040, Note_on_c, 1, 81, 75
2, 134160, Note_off_c, 1, 81, 0
2, 134160, Note_on_c, 1, 83, 75
2, 134280, Note_off_c, 1, 83, 0
2, 134280, Note_on_c, 1, 81, 75
2, 134400, Note_off_c, 1, 81, 0
2, 134400, Note_on_c, 1, 83, 75
2, 134520, Note_off_c, 1, 83, 0
2, 134520, Note_on_c, 1, 81, 75
2, 134640, Note_off_c, 1, 81, 0
2, 134640, Note_on_c, 1, 83, 74
2, 134760, Note_off_c, 1, 83, 0
2, 134760, Note_on_c, 1, 81, 74
2, 134880, Note_off_c, 1, 81, 0
2, 134880, Note_on_c, 1, 80, 74
2, 135000, Note_off_c, 1, 80, 0
2, 135000, Note_on_c, 1, 81, 74
2, 135120, Note_off_c, 1, 81, 0
2, 135120, Note_on_c, 1, 86, 74
2, 135240, Note_off_c, 1, 86, 0
2, 135240, Note_on_c, 1, 81, 74
2, 135336, Note_off_c, 1, 81, 0
2, 135360, Note_on_c, 1, 77, 73
2, 135480, Note_off_c, 1, 77, 0
2, 135480, Note_on_c, 1, 78, 73
2, 135600, Note_off_c, 1, 78, 0
2, 135600, Note_on_c, 1, 79, 73
2, 135720, Note_off_c, 1, 79, 0
2, 135720, Note_on_c, 1, 78, 73
2, 135840, Note_off_c, 1, 78, 0
2, 135840, Note_on_c, 1, 79, 73
2, 135960, Note_off_c, 1, 79, 0
2, 135960, Note_on_c, 1, 78, 73
2, 136080, Note_off_c, 1, 78, 0
2, 136080, Note_on_c, 1, 79, 72
2, 136200, Note_off_c, 1, 79, 0
2, 136200, Note_on_c, 1, 78, 72
2, 136320, Note_off_c, 1, 78, 0
2, 136320, Note_on_c, 1, 77, 72
2, 136440, Note_off_c, 1, 77, 0
2, 136440, Note_on_c, 1, 78, 72
2, 136560, Note_off_c, 1, 78, 0
2, 136560, Note_on_c, 1, 81, 72
2, 136680, Note_off_c, 1, 81, 0
2, 136680, Note_on_c, 1, 78, 72
2, 136776, Note_off_c, 1, 78, 0
2, 136800, Note_on_c, 1, 73, 71
2, 136920, Note_off_c, 1, 73, 0
2, 136920, Note_on_c, 1, 74, 71
2, 137040, Note_off_c, 1, 74, 0
2, 137040, Note_on_c, 1, 76, 71
2, 137160, Note_off_c, 1, 76, 0
2, 137160, Note_on_c, 1, 74, 71
2, 137280, Note_off_c, 1, 74, 0
2, 137280, Note_on_c, 1, 73, 71
2, 137400, Note_off_c, 1, 73, 0
2, 137400, Note_on_c, 1, 74, 71
2, 137520, Note_off_c, 1, 74, 0
2, 137520, Note_on_c, 1, 76, 70
2, 137640, Note_off_c, 1, 76, 0
2, 137640, Note_on_c, 1, 74, 70
2, 137760, Note_off_c, 1, 74, 0
2, 137760, Note_on_c, 1, 75, 70
2, 137880, Note_off_c, 1, 75, 0
2, 137880, Note_on_c, 1, 76, 70
2, 138000, Note_off_c, 1, 76, 0
2, 138000, Note_on_c, 1, 78, 70
2, 138120, Note_off_c, 1, 78, 0
2, 138120, Note_on_c, 1, 76, 69
2, 138216, Note_off_c, 1, 76, 0
2, 138240, Note_on_c, 1, 76, 69
2, 138360, Note_off_c, 1, 76, 0
2, 138360, Note_on_c, 1, 74, 67
2, 138480, Note_off_c, 1, 74, 0
2, 138480, Note_on_c, 1, 73, 67
2, 138600, Note_off_c, 1, 73, 0
2, 138600, Note_on_c, 1, 71, 66
2, 138720, Note_off_c, 1, 71, 0
2, 138720, Note_on_c, 1, 69, 65
2, 138840, Note_off_c, 1, 69, 0
2, 138840, Note_on_c, 1, 67, 65
2, 138960, Note_off_c, 1, 67, 0
2, 138960, Note_on_c, 1, 66, 64
2, 139080, Note_off_c, 1, 66, 0
2, 139080, Note_on_c, 1, 64, 63
2, 139200, Note_off_c, 1, 64, 0
2, 139200, Note_on_c, 1, 62, 63
2, 139560, Note_off_c, 1, 62, 0
2, 139680, Control_c, 1, 64, 0
2, 139680, Note_on_c, 1, 81, 79
2, 140640, Note_off_c, 1, 81, 0
2, 140640, Note_on_c, 1, 86, 74
2, 140832, Note_off_c, 1, 86, 0
2, 141120, Note_on_c, 1, 78, 78
2, 142080, Note_off_c, 1, 78, 0
2, 142080, Note_on_c, 1, 81, 74
2, 142272, Note_off_c, 1, 81, 0
2, 142560, Note_on_c, 1, 74, 76
2, 142752, Note_off_c, 1, 74, 0
2, 143040, Note_on_c, 1, 76, 76
2, 143232, Note_off_c, 1, 76, 0
2, 143520, Note_on_c, 1, 79, 75
2, 143712, Note_off_c, 1, 79, 0
2, 144000, Note_on_c, 1, 78, 75
2, 144120, Note_off_c, 1, 78, 0
2, 144120, Note_on_c, 1, 74, 75
2, 144240, Note_off_c, 1, 74, 0
2, 144240, Note_on_c, 1, 73, 74
2, 144360, Note_off_c, 1, 73, 0
2, 144360, Note_on_c, 1, 76, 73
2, 144480, Note_off_c, 1, 76, 0
2, 144480, Note_on_c, 1, 74, 73
2, 144600, Note_off_c, 1, 74, 0
2, 144600, Note_on_c, 1, 78, 72
2, 144720, Note_off_c, 1, 78, 0
2, 144720, Note_on_c, 1, 76, 71
2, 144840, Note_off_c, 1, 76, 0
2, 144840, Note_on_c, 1, 79, 71
2, 144960, Note_off_c, 1, 79, 0
2, 144960, Note_on_c, 1, 78, 70
2, 145080, Note_off_c, 1, 78, 0
2, 145080, Note_on_c, 1, 81, 69
2, 145200, Note_off_c, 1, 81, 0
2, 145200, Note_on_c, 1, 79, 69
2, 145320, Note_off_c, 1, 79, 0
2, 145320, Note_on_c, 1, 83, 68
2, 145416, Note_off_c, 1, 83, 0
2, 145440, Note_on_c, 1, 81, 73
2, 146400, Note_off_c, 1, 81, 0
2, 146400, Note_on_c, 1, 86, 68
2, 146592, Note_off_c, 1, 86, 0
2, 146880, Note_on_c, 1, 78, 72
2, 147840, Note_off_c, 1, 78, 0
2, 147840, Note_on_c, 1, 81, 67
2, 148032, Note_off_c, 1, 81, 0
2, 148320, Note_on_c, 1, 74, 70
2, 148512, Note_off_c, 1, 74, 0
2, 148800, Note_on_c, 1, 76, 70
2, 148992, Note_off_c, 1, 76, 0
2, 149280, Note_on_c, 1, 73, 69
2, 149472, Note_off_c, 1, 73, 0
2, 149760, Note_on_c, 1, 74, 69
2, 150120, Note_off_c, 1, 74, 0
2, 151200, Control_c, 1, 64, 0
2, 151200, Note_on_c, 1, 81, 79
2, 152160, Note_off_c, 1, 81, 0
2, 152160, Note_on_c, 1, 86, 74
2, 152352, Note_off_c, 1, 86, 0
2, 152640, Note_on_c, 1, 78, 78
2, 153600, Note_off_c, 1, 78, 0
2, 153600, Note_on_c, 1, 81, 74
2, 153792, Note_off_c, 1, 81, 0
2, 154080, Note_on_c, 1, 74, 76
2, 154272, Note_off_c, 1, 74, 0
2, 154560, Note_on_c, 1, 76, 76
2, 154752, Note_off_c, 1, 76, 0
2, 155040, Note_on_c, 1, 79, 75
2, 155232, Note_off_c, 1, 79, 0
2, 155520, Note_on_c, 1, 78, 75
2, 155640, Note_off_c, 1, 78, 0
2, 155640, Note_on_c, 1, 74, 75
2, 155760, Note_off_c, 1, 74, 0
2, 155760, Note_on_c, 1, 73, 74
2, 155880, Note_off_c, 1, 73, 0
2, 155880, Note_on_c, 1, 76, 73
2, 156000, Note_off_c, 1, 76, 0
2, 156000, Note_on_c, 1, 74, 73
2, 156120, Note_off_c, 1, 74, 0
2, 156120, Note_on_c, 1, 78, 72
2, 156240, Note_off_c, 1, 78, 0
2, 156240, Note_on_c, 1, 76, 71
2, 156360, Note_off_c, 1, 76, 0
2, 156360, Note_on_c, 1, 79, 71
2, 156480, Note_off_c, 1, 79, 0
2, 156480, Note_on_c, 1, 78, 70
2, 156600, Note_off_c, 1, 78, 0
2, 156600, Note_on_c, 1, 81, 69
2, 156720, Note_off_c, 1, 81, 0
2, 156720, Note_on_c, 1, 79, 69
2, 156840, Note_off_c, 1, 79, 0
2, 156840, Note_on_c, 1, 83, 68
2, 156936, Note_off_c, 1, 83, 0
2, 156960, Note_on_c, 1, 81, 73
2, 157920, Note_off_c, 1, 81, 0
2, 157920, Note_on_c, 1, 86, 68
2, 158112, Note_off_c, 1, 86, 0
2, 158400, Note_on_c, 1, 78, 72
2, 159360, Note_off_c, 1, 78, 0
2, 159360, Note_on_c, 1, 81, 67
2, 159552, Note_off_c, 1, 81, 0
2, 159840, Note_on_c, 1, 74, 70
2, 160032, Note_off_c, 1, 74, 0
2, 160320, Note_on_c, 1, 76, 70
2, 160512, Note_off_c, 1, 76, 0
2, 160800, Note_on_c, 1, 73, 69
2, 160992, Note_off_c, 1, 73, 0
2, 161280, Note_on_c, 1, 74, 69
2, 161640, Note_off_c, 1, 74, 0
2, 162720, Control_c, 1, 64, 0
2, 162720, Note_on_c, 1, 76, 76
2, 163080, Note_off_c, 1, 76, 0
2, 163200, Note_on_c, 1, 76, 78
2, 163560, Note_off_c, 1, 76, 0
2, 163680, Note_on_c, 1, 76, 81
2, 164040, Note_off_c, 1, 76, 0
2, 164160, Note_on_c, 1, 76, 85
2, 165000, Note_off_c, 1, 76, 0
2, 165000, Note_on_c, 1, 78, 78
2, 165120, Note_off_c, 1, 78, 0
2, 165120, Note_on_c, 1, 79, 77
2, 165312, Note_off_c, 1, 79, 0
2, 165600, Note_on_c, 1, 78, 78
2, 165960, Note_off_c, 1, 78, 0
2, 166080, Note_on_c, 1, 78, 80
2, 166440, Note_off_c, 1, 78, 0
2, 166560, Note_on_c, 1, 78, 81
2, 166920, Note_off_c, 1, 78, 0
2, 167040, Note_on_c, 1, 78, 83
2, 167880, Note_off_c, 1, 78, 0
2, 167880, Note_on_c, 1, 79, 78
2, 168000, Note_off_c, 1, 79, 0
2, 168000, Note_on_c, 1, 81, 77
2, 168192, Note_off_c, 1, 81, 0
2, 168480, Note_on_c, 1, 86, 59
2, 168960, Note_off_c, 1, 86, 0
2, 168960, Note_on_c, 1, 78, 56
2, 169116, Note_off_c, 1, 78, 0
2, 169200, Note_on_c, 1, 79, 55
2, 169356, Note_off_c, 1, 79, 0
2, 169440, Note_on_c, 1, 81, 53
2, 169596, Note_off_c, 1, 81, 0
2, 169680, Note_on_c, 1, 83, 52
2, 169836, Note_off_c, 1, 83, 0
2, 169920, Note_on_c, 1, 81, 53
2, 170280, Note_off_c, 1, 81, 0
2, 170280, Note_on_c, 1, 86, 53
2, 170400, Note_off_c, 1, 86, 0
2, 170400, Note_on_c, 1, 78, 52
2, 170556, Note_off_c, 1, 78, 0
2, 170640, Note_on_c, 1, 79, 50
2, 170796, Note_off_c, 1, 79, 0
2, 170880, Note_on_c, 1, 81, 48
2, 171036, Note_off_c, 1, 81, 0
2, 171120, Note_on_c, 1, 83, 46
2, 171276, Note_off_c, 1, 83, 0
2, 171360, Note_on_c, 1, 83, 50
2, 171600, Note_off_c, 1, 83, 0
2, 171600, Note_on_c, 1, 81, 50
2, 171720, Note_off_c, 1, 81, 0
2, 171840, Note_on_c, 1, 81, 49
2, 172080, Note_off_c, 1, 81, 0
2, 172080, Note_on_c, 1, 79, 49
2, 172200, Note_off_c, 1, 79, 0
2, 172320, Note_on_c, 1, 79, 49
2, 172560, Note_off_c, 1, 79, 0
2, 172560, Note_on_c, 1, 78, 48
2, 172680, Note_off_c, 1, 78, 0
2, 172800, Note_on_c, 1, 76, 48
2, 172896, Note_off_c, 1, 76, 0
2, 172920, Note_on_c, 1, 69, 46
2, 173040, Note_off_c, 1, 69, 0
2, 173040, Note_on_c, 1, 71, 48
2, 173160, Note_off_c, 1, 71, 0
2, 173160, Note_on_c, 1, 72, 51
2, 173280, Note_off_c, 1, 72, 0
2, 173280, Note_on_c, 1, 73, 53
2, 173400, Note_off_c, 1, 73, 0
2, 173400, Note_on_c, 1, 74, 55
2, 173520, Note_off_c, 1, 74, 0
2, 173520, Note_on_c, 1, 75, 57
2, 173640, Note_off_c, 1, 75, 0
2, 173640, Note_on_c, 1, 76, 60
2, 173760, Note_off_c, 1, 76, 0
2, 173760, Note_on_c, 1, 77, 62
2, 173880, Note_off_c, 1, 77, 0
2, 173880, Note_on_c, 1, 78, 64
2, 174000, Note_off_c, 1, 78, 0
2, 174000, Note_on_c, 1, 79, 66
2, 174120, Note_off_c, 1, 79, 0
2, 174120, Note_on_c, 1, 80, 69
2, 174216, Note_off_c, 1, 80, 0
2, 174240, Note_on_c, 1, 81, 80
2, 175200, Note_off_c, 1, 81, 0
2, 175200, Note_on_c, 1, 86, 78
2, 175392, Note_off_c, 1, 86, 0
2, 175680, Note_on_c, 1, 78, 80
2, 176640, Note_off_c, 1, 78, 0
2, 176640, Note_on_c, 1, 81, 77
2, 176832, Note_off_c, 1, 81, 0
2, 177120, Note_on_c, 1, 74, 78
2, 177312, Note_off_c, 1, 74, 0
2, 177600, Note_on_c, 1, 76, 78
2, 177792, Note_off_c, 1, 76, 0
2, 178080, Note_on_c, 1, 79, 77
2, 178272, Note_off_c, 1, 79, 0
2, 178560, Note_on_c, 1, 78, 77
2, 178680, Note_off_c, 1, 78, 0
2, 178680, Note_on_c, 1, 74, 75
2, 178800, Note_off_c, 1, 74, 0
2, 178800, Note_on_c, 1, 73, 75
2, 178920, Note_off_c, 1, 73, 0
2, 178920, Note_on_c, 1, 76, 74
2, 179040, Note_off_c, 1, 76, 0
2, 179040, Note_on_c, 1, 74, 73
2, 179160, Note_off_c, 1, 74, 0
2, 179160, Note_on_c, 1, 78, 73
2, 179280, Note_off_c, 1, 78, 0
2, 179280, Note_on_c, 1, 76, 72
2, 179400, Note_off_c, 1, 76, 0
2, 179400, Note_on_c, 1, 79, 72
2, 179520, Note_off_c, 1, 79, 0
2, 179520, Note_on_c, 1, 78, 71
2, 179640, Note_off_c, 1, 78, 0
2, 179640, Note_on_c, 1, 81, 71
2, 179760, Note_off_c, 1, 81, 0
2, 179760, Note_on_c, 1, 79, 70
2, 179880, Note_off_c, 1, 79, 0
2, 179880, Note_on_c, 1, 83, 70
2, 179976, Note_off_c, 1, 83, 0
2, 180000, Note_on_c, 1, 81, 75
2, 180960, Note_off_c, 1, 81, 0
2, 180960, Note_on_c, 1, 86, 71
2, 181152, Note_off_c, 1, 86, 0
2, 181440, Note_on_c, 1, 78, 74
2, 182400, Note_off_c, 1, 78, 0
2, 182400, Note_on_c, 1, 81, 69
2, 182592, Note_off_c, 1, 81, 0
2, 182880, Note_on_c, 1, 74, 72
2, 183072, Note_off_c, 1, 74, 0
2, 183360, Note_on_c, 1, 76, 72
2, 183552, Note_off_c, 1, 76, 0
2, 183840, Note_on_c, 1, 73, 71
2, 184032, Note_off_c, 1, 73, 0
2, 184320, Note_on_c, 1, 74, 71
2, 184680, Note_off_c, 1, 74, 0
2, 185520, Control_c, 1, 64, 0
2, 185760, Control_c, 1, 64, 0
2, 185760, Note_on_c, 1, 76, 76
2, 186120, Note_off_c, 1, 76, 0
2, 186240, Note_on_c, 1, 76, 78
2, 186600, Note_off_c, 1, 76, 0
2, 186720, Note_on_c, 1, 76, 81
2, 187080, Note_off_c, 1, 76, 0
2, 187200, Note_on_c, 1, 76, 85
2, 188040, Note_off_c, 1, 76, 0
2, 188040, Note_on_c, 1, 78, 78
2, 188160, Note_off_c, 1, 78, 0
2, 188160, Note_on_c, 1, 79, 77
2, 188352, Note_off_c, 1, 79, 0
2, 188640, Note_on_c, 1, 78, 78
2, 189000, Note_off_c, 1, 78, 0
2, 189120, Note_on_c, 1, 78, 80
2, 189480, Note_off_c, 1, 78, 0
2, 189600, Note_on_c, 1, 78, 81
2, 189960, Note_off_c, 1, 78, 0
2, 190080, Note_on_c, 1, 78, 83
2, 190920, Note_off_c, 1, 78, 0
2, 190920, Note_on_c, 1, 79, 78
2, 191040, Note_off_c, 1, 79, 0
2, 191040, Note_on_c, 1, 81, 77
2, 191232, Note_off_c, 1, 81, 0
2, 191520, Note_on_c, 1, 86, 59
2, 192000, Note_off_c, 1, 86, 0
2, 192000, Note_on_c, 1, 78, 56
2, 192156, Note_off_c, 1, 78, 0
2, 192240, Note_on_c, 1, 79, 55
2, 192396, Note_off_c, 1, 79, 0
2, 192480, Note_on_c, 1, 81, 53
2, 192636, Note_off_c, 1, 81, 0
2, 192720, Note_on_c, 1, 83, 52
2, 192876, Note_off_c, 1, 83, 0
2, 192960, Note_on_c, 1, 81, 53
2, 193320, Note_off_c, 1, 81, 0
2, 193320, Note_on_c, 1, 86, 53
2, 193440, Note_off_c, 1, 86, 0
2, 193440, Note_on_c, 1, 78, 52
2, 193596, Note_off_c, 1, 78, 0
2, 193680, Note_on_c, 1, 79, 50
2, 193836, Note_off_c, 1, 79, 0
2, 193920, Note_on_c, 1, 81, 48
2, 194076, Note_off_c, 1, 81, 0
2, 194160, Note_on_c, 1, 83, 46
2, 194316, Note_off_c, 1, 83, 0
2, 194400, Note_on_c, 1, 83, 50
2, 194640, Note_off_c, 1, 83, 0
2, 194640, Note_on_c, 1, 81, 50
2, 194760, Note_off_c, 1, 81, 0
2, 194880, Note_on_c, 1, 81, 49
2, 195120, Note_off_c, 1, 81, 0
2, 195120, Note_on_c, 1, 79, 49
2, 195240, Note_off_c, 1, 79, 0
2, 195360, Note_on_c, 1, 79, 49
2, 195600, Note_off_c, 1, 79, 0
2, 195600, Note_on_c, 1, 78, 48
2, 195720, Note_off_c, 1, 78, 0
2, 195840, Note_on_c, 1, 76, 48
2, 195936, Note_off_c, 1, 76, 0
2, 195960, Note_on_c, 1, 69, 46
2, 196080, Note_off_c, 1, 69, 0
2, 196080, Note_on_c, 1, 71, 48
2, 196200, Note_off_c, 1, 71, 0
2, 196200, Note_on_c, 1, 72, 51
2, 196320, Note_off_c, 1, 72, 0
2, 196320, Note_on_c, 1, 73, 53
2, 196440, Note_off_c, 1, 73, 0
2, 196440, Note_on_c, 1, 74, 55
2, 196560, Note_off_c, 1, 74, 0
2, 196560, Note_on_c, 1, 75, 57
2, 196680, Note_off_c, 1, 75, 0
2, 196680, Note_on_c, 1, 76, 60
2, 196800, Note_off_c, 1, 76, 0
2, 196800, Note_on_c, 1, 77, 62
2, 196920, Note_off_c, 1, 77, 0
2, 196920, Note_on_c, 1, 78, 64
2, 197040, Note_off_c, 1, 78, 0
2, 197040, Note_on_c, 1, 79, 66
2, 197160, Note_off_c, 1, 79, 0
2, 197160, Note_on_c, 1, 80, 69
2, 197256, Note_off_c, 1, 80, 0
2, 197280, Note_on_c, 1, 81, 80
2, 198240, Note_off_c, 1, 81, 0
2, 198240, Note_on_c, 1, 86, 78
2, 198432, Note_off_c, 1, 86, 0
2, 198720, Note_on_c, 1, 78, 80
2, 199680, Note_off_c, 1, 78, 0
2, 199680, Note_on_c, 1, 81, 77
2, 199872, Note_off_c, 1, 81, 0
2, 200160, Note_on_c, 1, 74, 78
2, 200352, Note_off_c, 1, 74, 0
2, 200640, Note_on_c, 1, 76, 78
2, 200832, Note_off_c, 1, 76, 0
2, 201120, Note_on_c, 1, 79, 77
2, 201312, Note_off_c, 1, 79, 0
2, 201600, Note_on_c, 1, 78, 77
2, 201720, Note_off_c, 1, 78, 0
2, 201720, Note_on_c, 1, 74, 75
2, 201840, Note_off_c, 1, 74, 0
2, 201840, Note_on_c, 1, 73, 75
2, 201960, Note_off_c, 1, 73, 0
2, 201960, Note_on_c, 1, 76, 74
2, 202080, Note_off_c, 1, 76, 0
2, 202080, Note_on_c, 1, 74, 73
2, 202200, Note_off_c, 1, 74, 0
2, 202200, Note_on_c, 1, 78, 73
2, 202320, Note_off_c, 1, 78, 0
2, 202320, Note_on_c, 1, 76, 72
2, 202440, Note_off_c, 1, 76, 0
2, 202440, Note_on_c, 1, 79, 72
2, 202560, Note_off_c, 1, 79, 0
2, 202560, Note_on_c, 1, 78, 71
2, 202680, Note_off_c, 1, 78, 0
2, 202680, Note_on_c, 1, 81, 71
2, 202800, Note_off_c, 1, 81, 0
2, 202800, Note_on_c, 1, 79, 70
2, 202920, Note_off_c, 1, 79, 0
2, 202920, Note_on_c, 1, 83, 70
2, 203016, Note_off_c, 1, 83, 0
2, 203040, Note_on_c, 1, 81, 75
2, 204000, Note_off_c, 1, 81, 0
2, 204000, Note_on_c, 1, 86, 71
2, 204192, Note_off_c, 1, 86, 0
2, 204480, Note_on_c, 1, 78, 74
2, 205440, Note_off_c, 1, 78, 0
2, 205440, Note_on_c, 1, 81, 69
2, 205632, Note_off_c, 1, 81, 0
2, 205920, Note_on_c, 1, 74, 72
2, 206112, Note_off_c, 1, 74, 0
2, 206400, Note_on_c, 1, 76, 72
2, 206592, Note_off_c, 1, 76, 0
2, 206880, Note_on_c, 1, 73, 71
2, 207072, Note_off_c, 1, 73, 0
2, 207360, Note_on_c, 1, 74, 71
2, 207720, Note_off_c, 1, 74, 0
2, 208560, Control_c, 1, 64, 0
2, 208800, Control_c, 1, 64, 0
2, 208800, Note_on_c, 1, 81, 82
2, 209376, Note_off_c, 1, 81, 0
2, 209400, Note_on_c, 1, 69, 80
2, 209520, Note_off_c, 1, 69, 0
2, 209520, Note_on_c, 1, 74, 79
2, 209640, Note_off_c, 1, 74, 0
2, 209640, Note_on_c, 1, 78, 79
2, 209760, Note_off_c, 1, 78, 0
2, 209760, Note_on_c, 1, 81, 79
2, 209838, Note_off_c, 1, 81, 0
2, 209880, Note_on_c, 1, 78, 78
2, 209958, Note_off_c, 1, 78, 0
2, 210000, Note_on_c, 1, 86, 78
2, 210078, Note_off_c, 1, 86, 0
2, 210120, Note_on_c, 1, 86, 78
2, 210198, Note_off_c, 1, 86, 0
2, 210240, Note_on_c, 1, 78, 80
2, 210816, Note_off_c, 1, 78, 0
2, 210840, Note_on_c, 1, 66, 77
2, 210960, Note_off_c, 1, 66, 0
2, 210960, Note_on_c, 1, 69, 76
2, 211080, Note_off_c, 1, 69, 0
2, 211080, Note_on_c, 1, 74, 76
2, 211200, Note_off_c, 1, 74, 0
2, 211200, Note_on_c, 1, 78, 75
2, 211278, Note_off_c, 1, 78, 0
2, 211320, Note_on_c, 1, 74, 74
2, 211398, Note_off_c, 1, 74, 0
2, 211440, Note_on_c, 1, 81, 74
2, 211518, Note_off_c, 1, 81, 0
2, 211560, Note_on_c, 1, 81, 78
2, 211638, Note_off_c, 1, 81, 0
2, 211800, Note_on_c, 1, 66, 78
2, 211878, Note_off_c, 1, 66, 0
2, 211920, Note_on_c, 1, 71, 78
2, 212040, Note_off_c, 1, 71, 0
2, 212040, Note_on_c, 1, 74, 78
2, 212118, Note_off_c, 1, 74, 0
2, 212280, Note_on_c, 1, 67, 78
2, 212358, Note_off_c, 1, 67, 0
2, 212400, Note_on_c, 1, 71, 77
2, 212520, Note_off_c, 1, 71, 0
2, 212520, Note_on_c, 1, 76, 77
2, 212598, Note_off_c, 1, 76, 0
2, 212760, Note_on_c, 1, 64, 77
2, 212838, Note_off_c, 1, 64, 0
2, 212880, Note_on_c, 1, 67, 77
2, 213000, Note_off_c, 1, 67, 0
2, 213000, Note_on_c, 1, 73, 77
2, 213078, Note_off_c, 1, 73, 0
2, 213120, Note_on_c, 1, 74, 77
2, 213216, Note_off_c, 1, 74, 0
2, 213240, Note_on_c, 1, 62, 77
2, 213360, Note_off_c, 1, 62, 0
2, 213360, Note_on_c, 1, 64, 76
2, 213480, Note_off_c, 1, 64, 0
2, 213480, Note_on_c, 1, 66, 75
2, 213600, Note_off_c, 1, 66, 0
2, 213600, Note_on_c, 1, 67, 75
2, 213720, Note_off_c, 1, 67, 0
2, 213720, Note_on_c, 1, 69, 74
2, 213840, Note_off_c, 1, 69, 0
2, 213840, Note_on_c, 1, 71, 73
2, 213960, Note_off_c, 1, 71, 0
2, 213960, Note_on_c, 1, 73, 73
2, 214080, Note_off_c, 1, 73, 0
2, 214080, Note_on_c, 1, 74, 72
2, 214200, Note_off_c, 1, 74, 0
2, 214200, Note_on_c, 1, 76, 71
2, 214320, Note_off_c, 1, 76, 0
2, 214320, Note_on_c, 1, 78, 70
2, 214440, Note_off_c, 1, 78, 0
2, 214440, Note_on_c, 1, 79, 70
2, 214536, Note_off_c, 1, 79, 0
2, 214560, Note_on_c, 1, 81, 75
2, 215136, Note_off_c, 1, 81, 0
2, 215160, Note_on_c, 1, 69, 72
2, 215280, Note_off_c, 1, 69, 0
2, 215280, Note_on_c, 1, 74, 71
2, 215400, Note_off_c, 1, 74, 0
2, 215400, Note_on_c, 1, 78, 71
2, 215520, Note_off_c, 1, 78, 0
2, 215520, Note_on_c, 1, 81, 70
2, 215598, Note_off_c, 1, 81, 0
2, 215640, Note_on_c, 1, 78, 69
2, 215718, Note_off_c, 1, 78, 0
2, 215760, Note_on_c, 1, 86, 68
2, 215838, Note_off_c, 1, 86, 0
2, 215880, Note_on_c, 1, 86, 68
2, 215958, Note_off_c, 1, 86, 0
2, 216000, Note_on_c, 1, 78, 74
2, 216576, Note_off_c, 1, 78, 0
2, 216600, Note_on_c, 1, 66, 72
2, 216720, Note_off_c, 1, 66, 0
2, 216720, Note_on_c, 1, 69, 71
2, 216840, Note_off_c, 1, 69, 0
2, 216840, Note_on_c, 1, 74, 71
2, 216960, Note_off_c, 1, 74, 0
2, 216960, Note_on_c, 1, 78, 70
2, 217038, Note_off_c, 1, 78, 0
2, 217080, Note_on_c, 1, 74, 69
2, 217158, Note_off_c, 1, 74, 0
2, 217200, Note_on_c, 1, 81, 68
2, 217278, Note_off_c, 1, 81, 0
2, 217320, Note_on_c, 1, 81, 68
2, 217398, Note_off_c, 1, 81, 0
2, 217440, Note_on_c, 1, 74, 72
2, 217632, Note_off_c, 1, 74, 0
2, 217920, Note_on_c, 1, 76, 72
2, 218112, Note_off_c, 1, 76, 0
2, 218400, Note_on_c, 1, 73, 71
2, 218592, Note_off_c, 1, 73, 0
2, 218880, Note_on_c, 1, 74, 71
2, 219240, Note_off_c, 1, 74, 0
2, 220080, Control_c, 1, 64, 0
2, 220320, Control_c, 1, 64, 0
2, 220320, Note_on_c, 1, 81, 82
2, 220896, Note_off_c, 1, 81, 0
2, 220920, Note_on_c, 1, 69, 80
2, 221040, Note_off_c, 1, 69, 0
2, 221040, Note_on_c, 1, 74, 79
2, 221160, Note_off_c, 1, 74, 0
2, 221160, Note_on_c, 1, 78, 79
2, 221280, Note_off_c, 1, 78, 0
2, 221280, Note_on_c, 1, 81, 79
2, 221358, Note_off_c, 1, 81, 0
2, 221400, Note_on_c, 1, 78, 78
2, 221478, Note_off_c, 1, 78, 0
2, 221520, Note_on_c, 1, 86, 78
2, 221598, Note_off_c, 1, 86, 0
2, 221640, Note_on_c, 1, 86, 78
2, 221718, Note_off_c, 1, 86, 0
2, 221760, Note_on_c, 1, 78, 80
2, 222336, Note_off_c, 1, 78, 0
2, 222360, Note_on_c, 1, 66, 77
2, 222480, Note_off_c, 1, 66, 0
2, 222480, Note_on_c, 1, 69, 76
2, 222600, Note_off_c, 1, 69, 0
2, 222600, Note_on_c, 1, 74, 76
2, 222720, Note_off_c, 1, 74, 0
2, 222720, Note_on_c, 1, 78, 75
2, 222798, Note_off_c, 1, 78, 0
2, 222840, Note_on_c, 1, 74, 74
2, 222918, Note_off_c, 1, 74, 0
2, 222960, Note_on_c, 1, 81, 74
2, 223038, Note_off_c, 1, 81, 0
2, 223080, Note_on_c, 1, 81, 78
2, 223158, Note_off_c, 1, 81, 0
2, 223320, Note_on_c, 1, 66, 78
2, 223398, Note_off_c, 1, 66, 0
2, 223440, Note_on_c, 1, 71, 78
2, 223560, Note_off_c, 1, 71, 0
2, 223560, Note_on_c, 1, 74, 78
2, 223638, Note_off_c, 1, 74, 0
2, 223800, Note_on_c, 1, 67, 78
2, 223878, Note_off_c, 1, 67, 0
2, 223920, Note_on_c, 1, 71, 77
2, 224040, Note_off_c, 1, 71, 0
2, 224040, Note_on_c, 1, 76, 77
2, 224118, Note_off_c, 1, 76, 0
2, 224280, Note_on_c, 1, 64, 77
2, 224358, Note_off_c, 1, 64, 0
2, 224400, Note_on_c, 1, 67, 77
2, 224520, Note_off_c, 1, 67, 0
2, 224520, Note_on_c, 1, 73, 77
2, 224598, Note_off_c, 1, 73, 0
2, 224640, Note_on_c, 1, 74, 77
2, 224736, Note_off_c, 1, 74, 0
2, 224760, Note_on_c, 1, 62, 77
2, 224880, Note_off_c, 1, 62, 0
2, 224880, Note_on_c, 1, 64, 76
2, 225000, Note_off_c, 1, 64, 0
2, 225000, Note_on_c, 1, 66, 75
2, 225120, Note_off_c, 1, 66, 0
2, 225120, Note_on_c, 1, 67, 75
2, 225240, Note_off_c, 1, 67, 0
2, 225240, Note_on_c, 1, 69, 74
2, 225360, Note_off_c, 1, 69, 0
2, 225360, Note_on_c, 1, 71, 73
2, 225480, Note_off_c, 1, 71, 0
2, 225480, Note_on_c, 1, 73, 73
2, 225600, Note_off_c, 1, 73, 0
2, 225600, Note_on_c, 1, 74, 72
2, 225720, Note_off_c, 1, 74, 0
2, 225720, Note_on_c, 1, 76, 71
2, 225840, Note_off_c, 1, 76, 0
2, 225840, Note_on_c, 1, 78, 70
2, 225960, Note_off_c, 1, 78, 0
2, 225960, Note_on_c, 1, 79, 70
2, 226056, Note_off_c, 1, 79, 0
2, 226080, Note_on_c, 1, 81, 75
2, 226656, Note_off_c, 1, 81, 0
2, 226680, Note_on_c, 1, 69, 72
2, 226800, Note_off_c, 1, 69, 0
2, 226800, Note_on_c, 1, 74, 71
2, 226920, Note_off_c, 1, 74, 0
2, 226920, Note_on_c, 1, 78, 71
2, 227040, Note_off_c, 1, 78, 0
2, 227040, Note_on_c, 1, 81, 70
2, 227118, Note_off_c, 1, 81, 0
2, 227160, Note_on_c, 1, 78, 69
2, 227238, Note_off_c, 1, 78, 0
2, 227280, Note_on_c, 1, 86, 68
2, 227358, Note_off_c, 1, 86, 0
2, 227400, Note_on_c, 1, 86, 68
2, 227478, Note_off_c, 1, 86, 0
2, 227520, Note_on_c, 1, 78, 74
2, 228096, Note_off_c, 1, 78, 0
2, 228120, Note_on_c, 1, 66, 72
2, 228240, Note_off_c, 1, 66, 0
2, 228240, Note_on_c, 1, 69, 71
2, 228360, Note_off_c, 1, 69, 0
2, 228360, Note_on_c, 1, 74, 71
2, 228480, Note_off_c, 1, 74, 0
2, 228480, Note_on_c, 1, 78, 70
2, 228558, Note_off_c, 1, 78, 0
2, 228600, Note_on_c, 1, 74, 69
2, 228678, Note_off_c, 1, 74, 0
2, 228720, Note_on_c, 1, 81, 68
2, 228798, Note_off_c, 1, 81, 0
2, 228840, Note_on_c, 1, 81, 68
2, 228918, Note_off_c, 1, 81, 0
2, 228960, Note_on_c, 1, 74, 72
2, 229152, Note_off_c, 1, 74, 0
2, 229440, Note_on_c, 1, 76, 72
2, 229632, Note_off_c, 1, 76, 0
2, 229920, Note_on_c, 1, 73, 71
2, 230112, Note_off_c, 1, 73, 0
2, 230400, Note_on_c, 1, 74, 71
2, 230760, Note_off_c, 1, 74, 0
2, 231840, Control_c, 1, 64, 0
2, 231840, Note_on_c, 1, 76, 73
2, 232200, Note_off_c, 1, 76, 0
2, 232440, Note_on_c, 1, 61, 73
2, 232560, Note_off_c, 1, 61, 0
2, 232560, Note_on_c, 1, 64, 73
2, 232680, Note_off_c, 1, 64, 0
2, 232680, Note_on_c, 1, 69, 72
2, 232800, Note_off_c, 1, 69, 0
2, 232800, Note_on_c, 1, 73, 72
2, 233160, Note_off_c, 1, 73, 0
2, 233400, Note_on_c, 1, 76, 72
2, 233520, Note_off_c, 1, 76, 0
2, 233520, Note_on_c, 1, 81, 71
2, 233640, Note_off_c, 1, 81, 0
2, 233640, Note_on_c, 1, 85, 71
2, 233760, Note_off_c, 1, 85, 0
2, 233760, Note_on_c, 1, 88, 71
2, 233880, Note_off_c, 1, 88, 0
2, 233880, Note_on_c, 1, 86, 71
2, 234000, Note_off_c, 1, 86, 0
2, 234000, Note_on_c, 1, 85, 71
2, 234120, Note_off_c, 1, 85, 0
2, 234120, Note_on_c, 1, 83, 71
2, 234240, Note_off_c, 1, 83, 0
2, 234240, Note_on_c, 1, 81, 71
2, 234360, Note_off_c, 1, 81, 0
2, 234360, Note_on_c, 1, 79, 70
2, 234480, Note_off_c, 1, 79, 0
2, 234480, Note_on_c, 1, 78, 70
2, 234600, Note_off_c, 1, 78, 0
2, 234600, Note_on_c, 1, 76, 70
2, 234720, Note_off_c, 1, 76, 0
2, 234720, Note_on_c, 1, 78, 70
2, 235080, Note_off_c, 1, 78, 0
2, 235320, Note_on_c, 1, 66, 69
2, 235440, Note_off_c, 1, 66, 0
2, 235440, Note_on_c, 1, 69, 69
2, 235560, Note_off_c, 1, 69, 0
2, 235560, Note_on_c, 1, 74, 69
2, 235680, Note_off_c, 1, 74, 0
2, 235680, Note_on_c, 1, 78, 69
2, 236040, Note_off_c, 1, 78, 0
2, 236280, Note_on_c, 1, 81, 68
2, 236400, Note_off_c, 1, 81, 0
2, 236400, Note_on_c, 1, 83, 68
2, 236520, Note_off_c, 1, 83, 0
2, 236520, Note_on_c, 1, 85, 68
2, 236640, Note_off_c, 1, 85, 0
2, 236640, Note_on_c, 1, 86, 68
2, 236760, Note_off_c, 1, 86, 0
2, 236760, Note_on_c, 1, 85, 68
2, 236880, Note_off_c, 1, 85, 0
2, 236880, Note_on_c, 1, 83, 68
2, 237000, Note_off_c, 1, 83, 0
2, 237000, Note_on_c, 1, 81, 67
2, 237120, Note_off_c, 1, 81, 0
2, 237120, Note_on_c, 1, 79, 67
2, 237240, Note_off_c, 1, 79, 0
2, 237240, Note_on_c, 1, 78, 67
2, 237360, Note_off_c, 1, 78, 0
2, 237360, Note_on_c, 1, 76, 67
2, 237480, Note_off_c, 1, 76, 0
2, 237480, Note_on_c, 1, 74, 67
2, 237576, Note_off_c, 1, 74, 0
2, 237600, Note_on_c, 1, 81, 67
2, 237756, Note_off_c, 1, 81, 0
2, 237840, Note_on_c, 1, 86, 66
2, 237996, Note_off_c, 1, 86, 0
2, 238080, Note_on_c, 1, 81, 66
2, 238236, Note_off_c, 1, 81, 0
2, 238320, Note_on_c, 1, 83, 66
2, 238476, Note_off_c, 1, 83, 0
2, 238560, Note_on_c, 1, 81, 66
2, 238716, Note_off_c, 1, 81, 0
2, 238800, Note_on_c, 1, 83, 65
2, 238956, Note_off_c, 1, 83, 0
2, 239040, Note_on_c, 1, 81, 65
2, 239196, Note_off_c, 1, 81, 0
2, 239280, Note_on_c, 1, 86, 65
2, 239436, Note_off_c, 1, 86, 0
2, 239520, Note_on_c, 1, 81, 64
2, 239676, Note_off_c, 1, 81, 0
2, 239760, Note_on_c, 1, 83, 64
2, 239916, Note_off_c, 1, 83, 0
2, 240000, Note_on_c, 1, 81, 64
2, 240156, Note_off_c, 1, 81, 0
2, 240240, Note_on_c, 1, 83, 64
2, 240396, Note_off_c, 1, 83, 0
2, 240480, Note_on_c, 1, 81, 63
2, 240636, Note_off_c, 1, 81, 0
2, 240960, Note_on_c, 1, 79, 63
2, 241116, Note_off_c, 1, 79, 0
2, 241440, Note_on_c, 1, 78, 62
2, 241596, Note_off_c, 1, 78, 0
2, 241920, Note_on_c, 1, 76, 64
2, 242076, Note_off_c, 1, 76, 0
2, 242160, Note_on_c, 1, 73, 64
2, 242316, Note_off_c, 1, 73, 0
2, 242400, Note_on_c, 1, 74, 66
2, 242592, Note_off_c, 1, 74, 0
2, 242640, Note_on_c, 1, 76, 67
2, 242796, Note_off_c, 1, 76, 0
2, 242880, Note_on_c, 1, 78, 69
2, 243036, Note_off_c, 1, 78, 0
2, 243120, Note_on_c, 1, 79, 70
2, 243276, Note_off_c, 1, 79, 0
2, 243420, Control_c, 1, 64, 0
2, 243600, Note_on_c, 1, 81, 83
2, 244176, Note_off_c, 1, 81, 0
2, 244200, Note_on_c, 1, 69, 81
2, 244320, Note_off_c, 1, 69, 0
2, 244320, Note_on_c, 1, 74, 80
2, 244440, Note_off_c, 1, 74, 0
2, 244440, Note_on_c, 1, 78, 80
2, 244560, Note_off_c, 1, 78, 0
2, 244560, Note_on_c, 1, 81, 79
2, 244638, Note_off_c, 1, 81, 0
2, 244680, Note_on_c, 1, 78, 79
2, 244758, Note_off_c, 1, 78, 0
2, 244800, Note_on_c, 1, 86, 78
2, 244878, Note_off_c, 1, 86, 0
2, 244920, Note_on_c, 1, 86, 78
2, 244998, Note_off_c, 1, 86, 0
2, 245040, Note_on_c, 1, 78, 82
2, 245616, Note_off_c, 1, 78, 0
2, 245640, Note_on_c, 1, 66, 79
2, 245760, Note_off_c, 1, 66, 0
2, 245760, Note_on_c, 1, 69, 78
2, 245880, Note_off_c, 1, 69, 0
2, 245880, Note_on_c, 1, 74, 78
2, 246000, Note_off_c, 1, 74, 0
2, 246000, Note_on_c, 1, 78, 77
2, 246078, Note_off_c, 1, 78, 0
2, 246120, Note_on_c, 1, 74, 76
2, 246198, Note_off_c, 1, 74, 0
2, 246240, Note_on_c, 1, 81, 76
2, 246318, Note_off_c, 1, 81, 0
2, 246360, Note_on_c, 1, 81, 81
2, 246438, Note_off_c, 1, 81, 0
2, 246600, Note_on_c, 1, 66, 80
2, 246678, Note_off_c, 1, 66, 0
2, 246720, Note_on_c, 1, 71, 80
2, 246840, Note_off_c, 1, 71, 0
2, 246840, Note_on_c, 1, 74, 80
2, 246918, Note_off_c, 1, 74, 0
2, 247080, Note_on_c, 1, 67, 80
2, 247158, Note_off_c, 1, 67, 0
2, 247200, Note_on_c, 1, 71, 80
2, 247320, Note_off_c, 1, 71, 0
2, 247320, Note_on_c, 1, 76, 80
2, 247398, Note_off_c, 1, 76, 0
2, 247560, Note_on_c, 1, 64, 79
2, 247638, Note_off_c, 1, 64, 0
2, 247680, Note_on_c, 1, 67, 79
2, 247800, Note_off_c, 1, 67, 0
2, 247800, Note_on_c, 1, 73, 79
2, 247878, Note_off_c, 1, 73, 0
2, 247920, Note_on_c, 1, 74, 79
2, 248016, Note_off_c, 1, 74, 0
2, 248040, Note_on_c, 1, 62, 79
2, 248160, Note_off_c, 1, 62, 0
2, 248160, Note_on_c, 1, 64, 77
2, 248280, Note_off_c, 1, 64, 0
2, 248280, Note_on_c, 1, 66, 77
2, 248400, Note_off_c, 1, 66, 0
2, 248400, Note_on_c, 1, 67, 76
2, 248520, Note_off_c, 1, 67, 0
2, 248520, Note_on_c, 1, 69, 76
2, 248640, Note_off_c, 1, 69, 0
2, 248640, Note_on_c, 1, 71, 76
2, 248760, Note_off_c, 1, 71, 0
2, 248760, Note_on_c, 1, 73, 75
2, 248880, Note_off_c, 1, 73, 0
2, 248880, Note_on_c, 1, 74, 75
2, 249000, Note_off_c, 1, 74, 0
2, 249000, Note_on_c, 1, 76, 74
2, 249120, Note_off_c, 1, 76, 0
2, 249120, Note_on_c, 1, 78, 74
2, 249240, Note_off_c, 1, 78, 0
2, 249240, Note_on_c, 1, 79, 74
2, 249336, Note_off_c, 1, 79, 0
2, 249360, Note_on_c, 1, 81, 78
2, 249936, Note_off_c, 1, 81, 0
2, 249960, Note_on_c, 1, 69, 76
2, 250080, Note_off_c, 1, 69, 0
2, 250080, Note_on_c, 1, 74, 75
2, 250200, Note_off_c, 1, 74, 0
2, 250200, Note_on_c, 1, 78, 75
2, 250320, Note_off_c, 1, 78, 0
2, 250320, Note_on_c, 1, 81, 74
2, 250398, Note_off_c, 1, 81, 0
2, 250440, Note_on_c, 1, 78, 73
2, 250518, Note_off_c, 1, 78, 0
2, 250560, Note_on_c, 1, 86, 73
2, 250638, Note_off_c, 1, 86, 0
2, 250680, Note_on_c, 1, 86, 72
2, 250758, Note_off_c, 1, 86, 0
2, 250800, Note_on_c, 1, 78, 76
2, 251376, Note_off_c, 1, 78, 0
2, 251400, Note_on_c, 1, 66, 74
2, 251520, Note_off_c, 1, 66, 0
2, 251520, Note_on_c, 1, 69, 73
2, 251640, Note_off_c, 1, 69, 0
2, 251640, Note_on_c, 1, 74, 73
2, 251760, Note_off_c, 1, 74, 0
2, 251760, Note_on_c, 1, 78, 72
2, 251838, Note_off_c, 1, 78, 0
2, 251880, Note_on_c, 1, 74, 71
2, 251958, Note_off_c, 1, 74, 0
2, 252000, Note_on_c, 1, 81, 71
2, 252078, Note_off_c, 1, 81, 0
2, 252120, Note_on_c, 1, 81, 70
2, 252198, Note_off_c, 1, 81, 0
2, 252240, Note_on_c, 1, 74, 74
2, 252432, Note_off_c, 1, 74, 0
2, 252720, Note_on_c, 1, 76, 74
2, 252912, Note_off_c, 1, 76, 0
2, 253200, Note_on_c, 1, 73, 73
2, 253392, Note_off_c, 1, 73, 0
2, 253680, Note_on_c, 1, 74, 73
2, 254040, Note_off_c, 1, 74, 0
2, 255120, Control_c, 1, 64, 0
2, 255120, Note_on_c, 1, 76, 73
2, 255480, Note_off_c, 1, 76, 0
2, 255720, Note_on_c, 1, 61, 73
2, 255840, Note_off_c, 1, 61, 0
2, 255840, Note_on_c, 1, 64, 73
2, 255960, Note_off_c, 1, 64, 0
2, 255960, Note_on_c, 1, 69, 72
2, 256080, Note_off_c, 1, 69, 0
2, 256080, Note_on_c, 1, 73, 72
2, 256440, Note_off_c, 1, 73, 0
2, 256680, Note_on_c, 1, 76, 72
2, 256800, Note_off_c, 1, 76, 0
2, 256800, Note_on_c, 1, 81, 71
2, 256920, Note_off_c, 1, 81, 0
2, 256920, Note_on_c, 1, 85, 71
2, 257040, Note_off_c, 1, 85, 0
2, 257040, Note_on_c, 1, 88, 71
2, 257160, Note_off_c, 1, 88, 0
2, 257160, Note_on_c, 1, 86, 71
2, 257280, Note_off_c, 1, 86, 0
2, 257280, Note_on_c, 1, 85, 71
2, 257400, Note_off_c, 1, 85, 0
2, 257400, Note_on_c, 1, 83, 71
2, 257520, Note_off_c, 1, 83, 0
2, 257520, Note_on_c, 1, 81, 71
2, 257640, Note_off_c, 1, 81, 0
2, 257640, Note_on_c, 1, 79, 70
2, 257760, Note_off_c, 1, 79, 0
2, 257760, Note_on_c, 1, 78, 70
2, 257880, Note_off_c, 1, 78, 0
2, 257880, Note_on_c, 1, 76, 70
2, 258000, Note_off_c, 1, 76, 0
2, 258000, Note_on_c, 1, 78, 70
2, 258360, Note_off_c, 1, 78, 0
2, 258600, Note_on_c, 1, 66, 69
2, 258720, Note_off_c, 1, 66, 0
2, 258720, Note_on_c, 1, 69, 69
2, 258840, Note_off_c, 1, 69, 0
2, 258840, Note_on_c, 1, 74, 69
2, 258960, Note_off_c, 1, 74, 0
2, 258960, Note_on_c, 1, 78, 69
2, 259320, Note_off_c, 1, 78, 0
2, 259560, Note_on_c, 1, 81, 68
2, 259680, Note_off_c, 1, 81, 0
2, 259680, Note_on_c, 1, 83, 68
2, 259800, Note_off_c, 1, 83, 0
2, 259800, Note_on_c, 1, 85, 68
2, 259920, Note_off_c, 1, 85, 0
2, 259920, Note_on_c, 1, 86, 68
2, 260040, Note_off_c, 1, 86, 0
2, 260040, Note_on_c, 1, 85, 68
2, 260160, Note_off_c, 1, 85, 0
2, 260160, Note_on_c, 1, 83, 68
2, 260280, Note_off_c, 1, 83, 0
2, 260280, Note_on_c, 1, 81, 67
2, 260400, Note_off_c, 1, 81, 0
2, 260400, Note_on_c, 1, 79, 67
2, 260520, Note_off_c, 1, 79, 0
2, 260520, Note_on_c, 1, 78, 67
2, 260640, Note_off_c, 1, 78, 0
2, 260640, Note_on_c, 1, 76, 67
2, 260760, Note_off_c, 1, 76, 0
2, 260760, Note_on_c, 1, 74, 67
2, 260856, Note_off_c, 1, 74, 0
2, 260880, Note_on_c, 1, 81, 67
2, 261036, Note_off_c, 1, 81, 0
2, 261120, Note_on_c, 1, 86, 66
2, 261276, Note_off_c, 1, 86, 0
2, 261360, Note_on_c, 1, 81, 66
2, 261516, Note_off_c, 1, 81, 0
2, 261600, Note_on_c, 1, 83, 66
2, 261756, Note_off_c, 1, 83, 0
2, 261840, Note_on_c, 1, 81, 66
2, 261996, Note_off_c, 1, 81, 0
2, 262080, Note_on_c, 1, 83, 65
2, 262236, Note_off_c, 1, 83, 0
2, 262320, Note_on_c, 1, 81, 65
2, 262476, Note_off_c, 1, 81, 0
2, 262560, Note_on_c, 1, 86, 65
2, 262716, Note_off_c, 1, 86, 0
2, 262800, Note_on_c, 1, 81, 64
2, 262956, Note_off_c, 1, 81, 0
2, 263040, Note_on_c, 1, 83, 64
2, 263196, Note_off_c, 1, 83, 0
2, 263280, Note_on_c, 1, 81, 64
2, 263436, Note_off_c, 1, 81, 0
2, 263520, Note_on_c, 1, 83, 64
2, 263676, Note_off_c, 1, 83, 0
2, 263760, Note_on_c, 1, 81, 63
2, 263916, Note_off_c, 1, 81, 0
2, 264240, Note_on_c, 1, 79, 63
2, 264396, Note_off_c, 1, 79, 0
2, 264720, Note_on_c, 1, 78, 62
2, 264876, Note_off_c, 1, 78, 0
2, 265200, Note_on_c, 1, 76, 64
2, 265356, Note_off_c, 1, 76, 0
2, 265440, Note_on_c, 1, 73, 64
2, 265596, Note_off_c, 1, 73, 0
2, 265680, Note_on_c, 1, 74, 66
2, 265872, Note_off_c, 1, 74, 0
2, 265920, Note_on_c, 1, 76, 67
2, 266076, Note_off_c, 1, 76, 0
2, 266160, Note_on_c, 1, 78, 69
2, 266316, Note_off_c, 1, 78, 0
2, 266400, Note_on_c, 1, 79, 70
2, 266556, Note_off_c, 1, 79, 0
2, 266700, Control_c, 1, 64, 0
2, 266880, Note_on_c, 1, 81, 83
2, 267456, Note_off_c, 1, 81, 0
2, 267480, Note_on_c, 1, 69, 81
2, 267600, Note_off_c, 1, 69, 0
2, 267600, Note_on_c, 1, 74, 80
2, 267720, Note_off_c, 1, 74, 0
2, 267720, Note_on_c, 1, 78, 80
2, 267840, Note_off_c, 1, 78, 0
2, 267840, Note_on_c, 1, 81, 79
2, 267918, Note_off_c, 1, 81, 0
2, 267960, Note_on_c, 1, 78, 79
2, 268038, Note_off_c, 1, 78, 0
2, 268080, Note_on_c, 1, 86, 78
2, 268158, Note_off_c, 1, 86, 0
2, 268200, Note_on_c, 1, 86, 78
2, 268278, Note_off_c, 1, 86, 0
2, 268320, Note_on_c, 1, 78, 82
2, 268896, Note_off_c, 1, 78, 0
2, 268920, Note_on_c, 1, 66, 79
2, 269040, Note_off_c, 1, 66, 0
2, 269040, Note_on_c, 1, 69, 78
2, 269160, Note_off_c, 1, 69, 0
2, 269160, Note_on_c, 1, 74, 78
2, 269280, Note_off_c, 1, 74, 0
2, 269280, Note_on_c, 1, 78, 77
2, 269358, Note_off_c, 1, 78, 0
2, 269400, Note_on_c, 1, 74, 76
2, 269478, Note_off_c, 1, 74, 0
2, 269520, Note_on_c, 1, 81, 76
2, 269598, Note_off_c, 1, 81, 0
2, 269640, Note_on_c, 1, 81, 81
2, 269718, Note_off_c, 1, 81, 0
2, 269880, Note_on_c, 1, 66, 80
2, 269958, Note_off_c, 1, 66, 0
2, 270000, Note_on_c, 1, 71, 80
2, 270120, Note_off_c, 1, 71, 0
2, 270120, Note_on_c, 1, 74, 80
2, 270198, Note_off_c, 1, 74, 0
2, 270360, Note_on_c, 1, 67, 80
2, 270438, Note_off_c, 1, 67, 0
2, 270480, Note_on_c, 1, 71, 80
2, 270600, Note_off_c, 1, 71, 0
2, 270600, Note_on_c, 1, 76, 80
2, 270678, Note_off_c, 1, 76, 0
2, 270840, Note_on_c, 1, 64, 79
2, 270918, Note_off_c, 1, 64, 0
2, 270960, Note_on_c, 1, 67, 79
2, 271080, Note_off_c, 1, 67, 0
2, 271080, Note_on_c, 1, 73, 79
2, 271158, Note_off_c, 1, 73, 0
2, 271200, Note_on_c, 1, 74, 79
2, 271296, Note_off_c, 1, 74, 0
2, 271320, Note_on_c, 1, 62, 79
2, 271440, Note_off_c, 1, 62, 0
2, 271440, Note_on_c, 1, 64, 77
2, 271560, Note_off_c, 1, 64, 0
2, 271560, Note_on_c, 1, 66, 77
2, 271680, Note_off_c, 1, 66, 0
2, 271680, Note_on_c, 1, 67, 76
2, 271800, Note_off_c, 1, 67, 0
2, 271800, Note_on_c, 1, 69, 76
2, 271920, Note_off_c, 1, 69, 0
2, 271920, Note_on_c, 1, 71, 76
2, 272040, Note_off_c, 1, 71, 0
2, 272040, Note_on_c, 1, 73, 75
2, 272160, Note_off_c, 1, 73, 0
2, 272160, Note_on_c, 1, 74, 75
2, 272280, Note_off_c, 1, 74, 0
2, 272280, Note_on_c, 1, 76, 74
2, 272400, Note_off_c, 1, 76, 0
2, 272400, Note_on_c, 1, 78, 74
2, 272520, Note_off_c, 1, 78, 0
2, 272520, Note_on_c, 1, 79, 74
2, 272616, Note_off_c, 1, 79, 0
2, 272640, Note_on_c, 1, 81, 78
2, 273216, Note_off_c, 1, 81, 0
2, 273240, Note_on_c, 1, 69, 76
2, 273360, Note_off_c, 1, 69, 0
2, 273360, Note_on_c, 1, 74, 75
2, 273480, Note_off_c, 1, 74, 0
2, 273480, Note_on_c, 1, 78, 75
2, 273600, Note_off_c, 1, 78, 0
2, 273600, Note_on_c, 1, 81, 74
2, 273678, Note_off_c, 1, 81, 0
2, 273720, Note_on_c, 1, 78, 73
2, 273798, Note_off_c, 1, 78, 0
2, 273840, Note_on_c, 1, 86, 73
2, 273918, Note_off_c, 1, 86, 0
2, 273960, Note_on_c, 1, 86, 72
2, 274038, Note_off_c, 1, 86, 0
2, 274080, Note_on_c, 1, 78, 76
2, 274656, Note_off_c, 1, 78, 0
2, 274680, Note_on_c, 1, 66, 74
2, 274800, Note_off_c, 1, 66, 0
2, 274800, Note_on_c, 1, 69, 73
2, 274920, Note_off_c, 1, 69, 0
2, 274920, Note_on_c, 1, 74, 73
2, 275040, Note_off_c, 1, 74, 0
2, 275040, Note_on_c, 1, 78, 72
2, 275118, Note_off_c, 1, 78, 0
2, 275160, Note_on_c, 1, 74, 71
2, 275238, Note_off_c, 1, 74, 0
2, 275280, Note_on_c, 1, 81, 71
2, 275358, Note_off_c, 1, 81, 0
2, 275400, Note_on_c, 1, 81, 70
2, 275478, Note_off_c, 1, 81, 0
2, 275520, Note_on_c, 1, 74, 74
2, 275712, Note_off_c, 1, 74, 0
2, 276000, Note_on_c, 1, 76, 74
2, 276192, Note_off_c, 1, 76, 0
2, 276480, Note_on_c, 1, 73, 73
2, 276672, Note_off_c, 1, 73, 0
2, 276960, Note_on_c, 1, 74, 73
2, 277320, Note_off_c, 1, 74, 0
2, 279360, Control_c, 1, 64, 0
2, 279360, Note_on_c, 1, 81, 55
2, 279520, Note_off_c, 1, 81, 0
2, 279520, Note_on_c, 1, 79, 54
2, 279680, Note_off_c, 1, 79, 0
2, 279680, Note_on_c, 1, 78, 53
2, 279784, Note_off_c, 1, 78, 0
2, 279840, Note_on_c, 1, 78, 52
2, 279944, Note_off_c, 1, 78, 0
2, 280000, Note_on_c, 1, 78, 51
2, 280104, Note_off_c, 1, 78, 0
2, 280160, Note_on_c, 1, 78, 50
2, 280264, Note_off_c, 1, 78, 0
2, 280320, Note_on_c, 1, 78, 49
2, 280424, Note_off_c, 1, 78, 0
2, 280480, Note_on_c, 1, 78, 48
2, 280584, Note_off_c, 1, 78, 0
2, 280640, Note_on_c, 1, 78, 49
2, 280744, Note_off_c, 1, 78, 0
2, 280800, Note_on_c, 1, 78, 53
2, 280960, Note_off_c, 1, 78, 0
2, 280960, Note_on_c, 1, 76, 52
2, 281120, Note_off_c, 1, 76, 0
2, 281120, Note_on_c, 1, 74, 51
2, 281224, Note_off_c, 1, 74, 0
2, 281280, Note_on_c, 1, 74, 50
2, 281384, Note_off_c, 1, 74, 0
2, 281440, Note_on_c, 1, 74, 49
2, 281544, Note_off_c, 1, 74, 0
2, 281600, Note_on_c, 1, 74, 47
2, 281704, Note_off_c, 1, 74, 0
2, 281760, Note_on_c, 1, 74, 46
2, 281864, Note_off_c, 1, 74, 0
2, 281920, Note_on_c, 1, 74, 45
2, 282024, Note_off_c, 1, 74, 0
2, 282080, Note_on_c, 1, 74, 44
2, 282184, Note_off_c, 1, 74, 0
2, 282400, Note_on_c, 1, 74, 50
2, 282560, Note_off_c, 1, 74, 0
2, 282560, Note_on_c, 1, 78, 50
2, 282664, Note_off_c, 1, 78, 0
2, 282880, Note_on_c, 1, 76, 49
2, 283040, Note_off_c, 1, 76, 0
2, 283040, Note_on_c, 1, 79, 49
2, 283144, Note_off_c, 1, 79, 0
2, 283360, Note_on_c, 1, 73, 49
2, 283520, Note_off_c, 1, 73, 0
2, 283520, Note_on_c, 1, 76, 48
2, 283624, Note_off_c, 1, 76, 0
2, 283680, Note_on_c, 1, 74, 48
2, 283784, Note_off_c, 1, 74, 0
2, 283840, Note_on_c, 1, 69, 48
2, 283968, Note_off_c, 1, 69, 0
2, 284000, Note_on_c, 1, 71, 49
2, 284128, Note_off_c, 1, 71, 0
2, 284160, Note_on_c, 1, 73, 51
2, 284288, Note_off_c, 1, 73, 0
2, 284320, Note_on_c, 1, 74, 52
2, 284448, Note_off_c, 1, 74, 0
2, 284480, Note_on_c, 1, 76, 53
2, 284608, Note_off_c, 1, 76, 0
2, 284640, Note_on_c, 1, 78, 54
2, 284768, Note_off_c, 1, 78, 0
2, 284800, Note_on_c, 1, 79, 56
2, 284928, Note_off_c, 1, 79, 0
2, 284960, Note_on_c, 1, 80, 57
2, 285088, Note_off_c, 1, 80, 0
2, 285120, Note_on_c, 1, 81, 65
2, 285840, Note_off_c, 1, 81, 0
2, 285840, Note_on_c, 1, 83, 61
2, 285900, Note_off_c, 1, 83, 0
2, 285900, Note_on_c, 1, 81, 60
2, 285960, Note_off_c, 1, 81, 0
2, 285960, Note_on_c, 1, 80, 60
2, 286020, Note_off_c, 1, 80, 0
2, 286020, Note_on_c, 1, 81, 60
2, 286080, Note_off_c, 1, 81, 0
2, 286080, Note_on_c, 1, 86, 59
2, 286272, Note_off_c, 1, 86, 0
2, 286560, Note_on_c, 1, 78, 65
2, 287280, Note_off_c, 1, 78, 0
2, 287280, Note_on_c, 1, 79, 59
2, 287340, Note_off_c, 1, 79, 0
2, 287340, Note_on_c, 1, 78, 59
2, 287400, Note_off_c, 1, 78, 0
2, 287400, Note_on_c, 1, 76, 58
2, 287460, Note_off_c, 1, 76, 0
2, 287460, Note_on_c, 1, 78, 58
2, 287520, Note_off_c, 1, 78, 0
2, 287520, Note_on_c, 1, 81, 57
2, 287712, Note_off_c, 1, 81, 0
2, 288160, Note_on_c, 1, 74, 60
2, 288320, Note_off_c, 1, 74, 0
2, 288320, Note_on_c, 1, 78, 60
2, 288424, Note_off_c, 1, 78, 0
2, 288640, Note_on_c, 1, 76, 59
2, 288800, Note_off_c, 1, 76, 0
2, 288800, Note_on_c, 1, 79, 59
2, 288904, Note_off_c, 1, 79, 0
2, 289120, Note_on_c, 1, 73, 58
2, 289280, Note_off_c, 1, 73, 0
2, 289280, Note_on_c, 1, 76, 58
2, 289384, Note_off_c, 1, 76, 0
2, 289440, Note_on_c, 1, 74, 58
2, 289800, Note_off_c, 1, 74, 0
2, 290880, Control_c, 1, 64, 0
2, 290880, Note_on_c, 1, 81, 55
2, 291040, Note_off_c, 1, 81, 0
2, 291040, Note_on_c, 1, 79, 54
2, 291200, Note_off_c, 1, 79, 0
2, 291200, Note_on_c, 1, 78, 53
2, 291304, Note_off_c, 1, 78, 0
2, 291360, Note_on_c, 1, 78, 52
2, 291464, Note_off_c, 1, 78, 0
2, 291520, Note_on_c, 1, 78, 51
2, 291624, Note_off_c, 1, 78, 0
2, 291680, Note_on_c, 1, 78, 50
2, 291784, Note_off_c, 1, 78, 0
2, 291840, Note_on_c, 1, 78, 49
2, 291944, Note_off_c, 1, 78, 0
2, 292000, Note_on_c, 1, 78, 48
2, 292104, Note_off_c, 1, 78, 0
2, 292160, Note_on_c, 1, 78, 49
2, 292264, Note_off_c, 1, 78, 0
2, 292320, Note_on_c, 1, 78, 53
2, 292480, Note_off_c, 1, 78, 0
2, 292480, Note_on_c, 1, 76, 52
2, 292640, Note_off_c, 1, 76, 0
2, 292640, Note_on_c, 1, 74, 51
2, 292744, Note_off_c, 1, 74, 0
2, 292800, Note_on_c, 1, 74, 50
2, 292904, Note_off_c, 1, 74, 0
2, 292960, Note_on_c, 1, 74, 49
2, 293064, Note_off_c, 1, 74, 0
2, 293120, Note_on_c, 1, 74, 47
2, 293224, Note_off_c, 1, 74, 0
2, 293280, Note_on_c, 1, 74, 46
2, 293384, Note_off_c, 1, 74, 0
2, 293440, Note_on_c, 1, 74, 45
2, 293544, Note_off_c, 1, 74, 0
2, 293600, Note_on_c, 1, 74, 44
2, 293704, Note_off_c, 1, 74, 0
2, 293920, Note_on_c, 1, 74, 50
2, 294080, Note_off_c, 1, 74, 0
2, 294080, Note_on_c, 1, 78, 50
2, 294184, Note_off_c, 1, 78, 0
2, 294400, Note_on_c, 1, 76, 49
2, 294560, Note_off_c, 1, 76, 0
2, 294560, Note_on_c, 1, 79, 49
2, 294664, Note_off_c, 1, 79, 0
2, 294880, Note_on_c, 1, 73, 49
2, 295040, Note_off_c, 1, 73, 0
2, 295040, Note_on_c, 1, 76, 48
2, 295144, Note_off_c, 1, 76, 0
2, 295200, Note_on_c, 1, 74, 48
2, 295304, Note_off_c, 1, 74, 0
2, 295360, Note_on_c, 1, 69, 48
2, 295488, Note_off_c, 1, 69, 0
2, 295520, Note_on_c, 1, 71, 49
2, 295648, Note_off_c, 1, 71, 0
2, 295680, Note_on_c, 1, 73, 51
2, 295808, Note_off_c, 1, 73, 0
2, 295840, Note_on_c, 1, 74, 52
2, 295968, Note_off_c, 1, 74, 0
2, 296000, Note_on_c, 1, 76, 53
2, 296128, Note_off_c, 1, 76, 0
2, 296160, Note_on_c, 1, 78, 54
2, 296288, Note_off_c, 1, 78, 0
2, 296320, Note_on_c, 1, 79, 56
2, 296448, Note_off_c, 1, 79, 0
2, 296480, Note_on_c, 1, 80, 57
2, 296608, Note_off_c, 1, 80, 0
2, 296640, Note_on_c, 1, 81, 65
2, 297360, Note_off_c, 1, 81, 0
2, 297360, Note_on_c, 1, 83, 61
2, 297420, Note_off_c, 1, 83, 0
2, 297420, Note_on_c, 1, 81, 60
2, 297480, Note_off_c, 1, 81, 0
2, 297480, Note_on_c, 1, 80, 60
2, 297540, Note_off_c, 1, 80, 0
2, 297540, Note_on_c, 1, 81, 60
2, 297600, Note_off_c, 1, 81, 0
2, 297600, Note_on_c, 1, 86, 59
2, 297792, Note_off_c, 1, 86, 0
2, 298080, Note_on_c, 1, 78, 65
2, 298800, Note_off_c, 1, 78, 0
2, 298800, Note_on_c, 1, 79, 59
2, 298860, Note_off_c, 1, 79, 0
2, 298860, Note_on_c, 1, 78, 59
2, 298920, Note_off_c, 1, 78, 0
2, 298920, Note_on_c, 1, 76, 58
2, 298980, Note_off_c, 1, 76, 0
2, 298980, Note_on_c, 1, 78, 58
2, 299040, Note_off_c, 1, 78, 0
2, 299040, Note_on_c, 1, 81, 57
2, 299232, Note_off_c, 1, 81, 0
2, 299680, Note_on_c, 1, 74, 60
2, 299840, Note_off_c, 1, 74, 0
2, 299840, Note_on_c, 1, 78, 60
2, 299944, Note_off_c, 1, 78, 0
2, 300160, Note_on_c, 1, 76, 59
2, 300320, Note_off_c, 1, 76, 0
2, 300320, Note_on_c, 1, 79, 59
2, 300424, Note_off_c, 1, 79, 0
2, 300640, Note_on_c, 1, 73, 58
2, 300800, Note_off_c, 1, 73, 0
2, 300800, Note_on_c, 1, 76, 58
2, 300904, Note_off_c, 1, 76, 0
2, 300960, Note_on_c, 1, 74, 58
2, 301320, Note_off_c, 1, 74, 0
2, 302400, Control_c, 1, 64, 0
2, 302400, Note_on_c, 1, 76, 50
2, 302560, Note_off_c, 1, 76, 0
2, 302560, Note_on_c, 1, 69, 51
2, 302664, Note_off_c, 1, 69, 0
2, 302720, Note_on_c, 1, 79, 52
2, 302824, Note_off_c, 1, 79, 0
2, 302880, Note_on_c, 1, 79, 53
2, 303040, Note_off_c, 1, 79, 0
2, 303040, Note_on_c, 1, 73, 54
2, 303144, Note_off_c, 1, 73, 0
2, 303200, Note_on_c, 1, 85, 55
2, 303304, Note_off_c, 1, 85, 0
2, 303360, Note_on_c, 1, 85, 56
2, 303520, Note_off_c, 1, 85, 0
2, 303520, Note_on_c, 1, 76, 57
2, 303624, Note_off_c, 1, 76, 0
2, 303680, Note_on_c, 1, 88, 58
2, 303784, Note_off_c, 1, 88, 0
2, 304000, Note_on_c, 1, 88, 60
2, 304104, Note_off_c, 1, 88, 0
2, 304160, Note_on_c, 1, 86, 60
2, 304264, Note_off_c, 1, 86, 0
2, 304320, Note_on_c, 1, 85, 58
2, 304424, Note_off_c, 1, 85, 0
2, 304480, Note_on_c, 1, 83, 56
2, 304584, Note_off_c, 1, 83, 0
2, 304640, Note_on_c, 1, 81, 54
2, 304744, Note_off_c, 1, 81, 0
2, 304800, Note_on_c, 1, 79, 52
2, 304904, Note_off_c, 1, 79, 0
2, 304960, Note_on_c, 1, 78, 50
2, 305064, Note_off_c, 1, 78, 0
2, 305120, Note_on_c, 1, 76, 49
2, 305224, Note_off_c, 1, 76, 0
2, 305280, Note_on_c, 1, 78, 51
2, 305440, Note_off_c, 1, 78, 0
2, 305440, Note_on_c, 1, 69, 50
2, 305544, Note_off_c, 1, 69, 0
2, 305600, Note_on_c, 1, 81, 49
2, 305704, Note_off_c, 1, 81, 0
2, 305760, Note_on_c, 1, 81, 49
2, 305920, Note_off_c, 1, 81, 0
2, 305920, Note_on_c, 1, 74, 50
2, 306024, Note_off_c, 1, 74, 0
2, 306080, Note_on_c, 1, 86, 50
2, 306184, Note_off_c, 1, 86, 0
2, 306240, Note_on_c, 1, 86, 51
2, 306400, Note_off_c, 1, 86, 0
2, 306400, Note_on_c, 1, 85, 51
2, 306504, Note_off_c, 1, 85, 0
2, 306560, Note_on_c, 1, 86, 52
2, 306664, Note_off_c, 1, 86, 0
2, 306880, Note_on_c, 1, 73, 52
2, 307008, Note_off_c, 1, 73, 0
2, 307040, Note_on_c, 1, 74, 52
2, 307168, Note_off_c, 1, 74, 0
2, 307200, Note_on_c, 1, 75, 53
2, 307328, Note_off_c, 1, 75, 0
2, 307360, Note_on_c, 1, 76, 53
2, 307488, Note_off_c, 1, 76, 0
2, 307520, Note_on_c, 1, 77, 54
2, 307648, Note_off_c, 1, 77, 0
2, 307680, Note_on_c, 1, 78, 54
2, 307808, Note_off_c, 1, 78, 0
2, 307840, Note_on_c, 1, 79, 55
2, 307968, Note_off_c, 1, 79, 0
2, 308000, Note_on_c, 1, 80, 55
2, 308128, Note_off_c, 1, 80, 0
2, 308160, Note_on_c, 1, 81, 59
2, 308288, Note_off_c, 1, 81, 0
2, 308320, Note_on_c, 1, 86, 59
2, 308480, Note_off_c, 1, 86, 0
2, 308480, Note_on_c, 1, 85, 58
2, 308640, Note_off_c, 1, 85, 0
2, 308640, Note_on_c, 1, 84, 57
2, 308800, Note_off_c, 1, 84, 0
2, 308800, Note_on_c, 1, 83, 56
2, 308960, Note_off_c, 1, 83, 0
2, 308960, Note_on_c, 1, 82, 55
2, 309120, Note_off_c, 1, 82, 0
2, 309120, Note_on_c, 1, 81, 54
2, 309276, Note_off_c, 1, 81, 0
2, 309760, Note_on_c, 1, 86, 55
2, 309920, Note_off_c, 1, 86, 0
2, 309920, Note_on_c, 1, 85, 54
2, 310080, Note_off_c, 1, 85, 0
2, 310080, Note_on_c, 1, 84, 52
2, 310240, Note_off_c, 1, 84, 0
2, 310240, Note_on_c, 1, 83, 51
2, 310400, Note_off_c, 1, 83, 0
2, 310400, Note_on_c, 1, 82, 50
2, 310560, Note_off_c, 1, 82, 0
2, 310560, Note_on_c, 1, 81, 48
2, 310716, Note_off_c, 1, 81, 0
2, 311200, Note_on_c, 1, 80, 52
2, 311360, Note_off_c, 1, 80, 0
2, 311360, Note_on_c, 1, 81, 51
2, 311520, Note_off_c, 1, 81, 0
2, 311680, Note_on_c, 1, 78, 50
2, 311840, Note_off_c, 1, 78, 0
2, 311840, Note_on_c, 1, 79, 50
2, 312000, Note_off_c, 1, 79, 0
2, 312160, Note_on_c, 1, 77, 49
2, 312320, Note_off_c, 1, 77, 0
2, 312320, Note_on_c, 1, 78, 49
2, 312480, Note_off_c, 1, 78, 0
2, 312480, Note_on_c, 1, 76, 48
2, 312840, Note_off_c, 1, 76, 0
2, 313920, Note_on_c, 1, 81, 58
2, 314080, Note_off_c, 1, 81, 0
2, 314080, Note_on_c, 1, 79, 59
2, 314240, Note_off_c, 1, 79, 0
2, 314240, Note_on_c, 1, 78, 57
2, 314344, Note_off_c, 1, 78, 0
2, 314400, Note_on_c, 1, 78, 56
2, 314504, Note_off_c, 1, 78, 0
2, 314560, Note_on_c, 1, 78, 55
2, 314664, Note_off_c, 1, 78, 0
2, 314720, Note_on_c, 1, 78, 54
2, 314824, Note_off_c, 1, 78, 0
2, 314880, Note_on_c, 1, 78, 53
2, 314984, Note_off_c, 1, 78, 0
2, 315040, Note_on_c, 1, 78, 51
2, 315144, Note_off_c, 1, 78, 0
2, 315200, Note_on_c, 1, 78, 50
2, 315304, Note_off_c, 1, 78, 0
2, 315360, Note_on_c, 1, 78, 55
2, 315520, Note_off_c, 1, 78, 0
2, 315520, Note_on_c, 1, 76, 54
2, 315680, Note_off_c, 1, 76, 0
2, 315680, Note_on_c, 1, 74, 53
2, 315784, Note_off_c, 1, 74, 0
2, 315840, Note_on_c, 1, 74, 52
2, 315944, Note_off_c, 1, 74, 0
2, 316000, Note_on_c, 1, 74, 51
2, 316104, Note_off_c, 1, 74, 0
2, 316160, Note_on_c, 1, 74, 50
2, 316264, Note_off_c, 1, 74, 0
2, 316320, Note_on_c, 1, 74, 49
2, 316424, Note_off_c, 1, 74, 0
2, 316480, Note_on_c, 1, 74, 48
2, 316584, Note_off_c, 1, 74, 0
2, 316640, Note_on_c, 1, 74, 52
2, 316744, Note_off_c, 1, 74, 0
2, 316960, Note_on_c, 1, 74, 52
2, 317120, Note_off_c, 1, 74, 0
2, 317120, Note_on_c, 1, 78, 51
2, 317224, Note_off_c, 1, 78, 0
2, 317440, Note_on_c, 1, 76, 51
2, 317600, Note_off_c, 1, 76, 0
2, 317600, Note_on_c, 1, 79, 50
2, 317704, Note_off_c, 1, 79, 0
2, 317920, Note_on_c, 1, 73, 50
2, 318080, Note_off_c, 1, 73, 0
2, 318080, Note_on_c, 1, 76, 51
2, 318184, Note_off_c, 1, 76, 0
2, 318240, Note_on_c, 1, 74, 50
2, 318344, Note_off_c, 1, 74, 0
2, 318400, Note_on_c, 1, 69, 51
2, 318528, Note_off_c, 1, 69, 0
2, 318560, Note_on_c, 1, 71, 53
2, 318688, Note_off_c, 1, 71, 0
2, 318720, Note_on_c, 1, 73, 54
2, 318848, Note_off_c, 1, 73, 0
2, 318880, Note_on_c, 1, 74, 55
2, 319008, Note_off_c, 1, 74, 0
2, 319040, Note_on_c, 1, 76, 57
2, 319168, Note_off_c, 1, 76, 0
2, 319200, Note_on_c, 1, 78, 58
2, 319328, Note_off_c, 1, 78, 0
2, 319360, Note_on_c, 1, 79, 60
2, 319488, Note_off_c, 1, 79, 0
2, 319520, Note_on_c, 1, 80, 61
2, 319648, Note_off_c, 1, 80, 0
2, 319680, Note_on_c, 1, 81, 65
2, 320400, Note_off_c, 1, 81, 0
2, 320400, Note_on_c, 1, 83, 62
2, 320460, Note_off_c, 1, 83, 0
2, 320460, Note_on_c, 1, 81, 61
2, 320520, Note_off_c, 1, 81, 0
2, 320520, Note_on_c, 1, 80, 61
2, 320580, Note_off_c, 1, 80, 0
2, 320580, Note_on_c, 1, 81, 61
2, 320640, Note_off_c, 1, 81, 0
2, 320640, Note_on_c, 1, 86, 61
2, 320832, Note_off_c, 1, 86, 0
2, 321120, Note_on_c, 1, 78, 65
2, 321840, Note_off_c, 1, 78, 0
2, 321840, Note_on_c, 1, 79, 61
2, 321900, Note_off_c, 1, 79, 0
2, 321900, Note_on_c, 1, 78, 61
2, 321960, Note_off_c, 1, 78, 0
2, 321960, Note_on_c, 1, 76, 60
2, 322020, Note_off_c, 1, 76, 0
2, 322020, Note_on_c, 1, 78, 60
2, 322080, Note_off_c, 1, 78, 0
2, 322080, Note_on_c, 1, 81, 59
2, 322272, Note_off_c, 1, 81, 0
2, 322720, Note_on_c, 1, 74, 62
2, 322880, Note_off_c, 1, 74, 0
2, 322880, Note_on_c, 1, 78, 62
2, 322984, Note_off_c, 1, 78, 0
2, 323200, Note_on_c, 1, 76, 61
2, 323360, Note_off_c, 1, 76, 0
2, 323360, Note_on_c, 1, 79, 61
2, 323464, Note_off_c, 1, 79, 0
2, 323680, Note_on_c, 1, 73, 60
2, 323840, Note_off_c, 1, 73, 0
2, 323840, Note_on_c, 1, 76, 60
2, 323944, Note_off_c, 1, 76, 0
2, 324000, Note_on_c, 1, 74, 59
2, 324360, Note_off_c, 1, 74, 0
2, 325440, Control_c, 1, 64, 0
2, 325440, Note_on_c, 1, 76, 50
2, 325600, Note_off_c, 1, 76, 0
2, 325600, Note_on_c, 1, 69, 51
2, 325704, Note_off_c, 1, 69, 0
2, 325760, Note_on_c, 1, 79, 52
2, 325864, Note_off_c, 1, 79, 0
2, 325920, Note_on_c, 1, 79, 53
2, 326080, Note_off_c, 1, 79, 0
2, 326080, Note_on_c, 1, 73, 54
2, 326184, Note_off_c, 1, 73, 0
2, 326240, Note_on_c, 1, 85, 55
2, 326344, Note_off_c, 1, 85, 0
2, 326400, Note_on_c, 1, 85, 56
2, 326560, Note_off_c, 1, 85, 0
2, 326560, Note_on_c, 1, 76, 57
2, 326664, Note_off_c, 1, 76, 0
2, 326720, Note_on_c, 1, 88, 58
2, 326824, Note_off_c, 1, 88, 0
2, 327040, Note_on_c, 1, 88, 60
2, 327144, Note_off_c, 1, 88, 0
2, 327200, Note_on_c, 1, 86, 60
2, 327304, Note_off_c, 1, 86, 0
2, 327360, Note_on_c, 1, 85, 58
2, 327464, Note_off_c, 1, 85, 0
2, 327520, Note_on_c, 1, 83, 56
2, 327624, Note_off_c, 1, 83, 0
2, 327680, Note_on_c, 1, 81, 54
2, 327784, Note_off_c, 1, 81, 0
2, 327840, Note_on_c, 1, 79, 52
2, 327944, Note_off_c, 1, 79, 0
2, 328000, Note_on_c, 1, 78, 50
2, 328104, Note_off_c, 1, 78, 0
2, 328160, Note_on_c, 1, 76, 49
2, 328264, Note_off_c, 1, 76, 0
2, 328320, Note_on_c, 1, 78, 51
2, 328480, Note_off_c, 1, 78, 0
2, 328480, Note_on_c, 1, 69, 50
2, 328584, Note_off_c, 1, 69, 0
2, 328640, Note_on_c, 1, 81, 49
2, 328744, Note_off_c, 1, 81, 0
2, 328800, Note_on_c, 1, 81, 49
2, 328960, Note_off_c, 1, 81, 0
2, 328960, Note_on_c, 1, 74, 50
2, 329064, Note_off_c, 1, 74, 0
2, 329120, Note_on_c, 1, 86, 50
2, 329224, Note_off_c, 1, 86, 0
2, 329280, Note_on_c, 1, 86, 51
2, 329440, Note_off_c, 1, 86, 0
2, 329440, Note_on_c, 1, 85, 51
2, 329544, Note_off_c, 1, 85, 0
2, 329600, Note_on_c, 1, 86, 52
2, 329704, Note_off_c, 1, 86, 0
2, 329920, Note_on_c, 1, 73, 52
2, 330048, Note_off_c, 1, 73, 0
2, 330080, Note_on_c, 1, 74, 52
2, 330208, Note_off_c, 1, 74, 0
2, 330240, Note_on_c, 1, 75, 53
2, 330368, Note_off_c, 1, 75, 0
2, 330400, Note_on_c, 1, 76, 53
2, 330528, Note_off_c, 1, 76, 0
2, 330560, Note_on_c, 1, 77, 54
2, 330688, Note_off_c, 1, 77, 0
2, 330720, Note_on_c, 1, 78, 54
2, 330848, Note_off_c, 1, 78, 0
2, 330880, Note_on_c, 1, 79, 55
2, 331008, Note_off_c, 1, 79, 0
2, 331040, Note_on_c, 1, 80, 55
2, 331168, Note_off_c, 1, 80, 0
2, 331200, Note_on_c, 1, 81, 59
2, 331328, Note_off_c, 1, 81, 0
2, 331360, Note_on_c, 1, 86, 59
2, 331520, Note_off_c, 1, 86, 0
2, 331520, Note_on_c, 1, 85, 58
2, 331680, Note_off_c, 1, 85, 0
2, 331680, Note_on_c, 1, 84, 57
2, 331840, Note_off_c, 1, 84, 0
2, 331840, Note_on_c, 1, 83, 56
2, 332000, Note_off_c, 1, 83, 0
2, 332000, Note_on_c, 1, 82, 55
2, 332160, Note_off_c, 1, 82, 0
2, 332160, Note_on_c, 1, 81, 54
2, 332316, Note_off_c, 1, 81, 0
2, 332800, Note_on_c, 1, 86, 55
2, 332960, Note_off_c, 1, 86, 0
2, 332960, Note_on_c, 1, 85, 54
2, 333120, Note_off_c, 1, 85, 0
2, 333120, Note_on_c, 1, 84, 52
2, 333280, Note_off_c, 1, 84, 0
2, 333280, Note_on_c, 1, 83, 51
2, 333440, Note_off_c, 1, 83, 0
2, 333440, Note_on_c, 1, 82, 50
2, 333600, Note_off_c, 1, 82, 0
2, 333600, Note_on_c, 1, 81, 48
2, 333756, Note_off_c, 1, 81, 0
2, 334240, Note_on_c, 1, 80, 52
2, 334400, Note_off_c, 1, 80, 0
2, 334400, Note_on_c, 1, 81, 51
2, 334560, Note_off_c, 1, 81, 0
2, 334720, Note_on_c, 1, 78, 50
2, 334880, Note_off_c, 1, 78, 0
2, 334880, Note_on_c, 1, 79, 50
2, 335040, Note_off_c, 1, 79, 0
2, 335200, Note_on_c, 1, 77, 49
2, 335360, Note_off_c, 1, 77, 0
2, 335360, Note_on_c, 1, 78, 49
2, 335520, Note_off_c, 1, 78, 0
2, 335520, Note_on_c, 1, 76, 48
2, 335880, Note_off_c, 1, 76, 0
2, 336960, Note_on_c, 1, 81, 58
2, 337120, Note_off_c, 1, 81, 0
2, 337120, Note_on_c, 1, 79, 59
2, 337280, Note_off_c, 1, 79, 0
2, 337280, Note_on_c, 1, 78, 57
2, 337384, Note_off_c, 1, 78, 0
2, 337440, Note_on_c, 1, 78, 56
2, 337544, Note_off_c, 1, 78, 0
2, 337600, Note_on_c, 1, 78, 55
2, 337704, Note_off_c, 1, 78, 0
2, 337760, Note_on_c, 1, 78, 54
2, 337864, Note_off_c, 1, 78, 0
2, 337920, Note_on_c, 1, 78, 53
2, 338024, Note_off_c, 1, 78, 0
2, 338080, Note_on_c, 1, 78, 51
2, 338184, Note_off_c, 1, 78, 0
2, 338240, Note_on_c, 1, 78, 50
2, 338344, Note_off_c, 1, 78, 0
2, 338400, Note_on_c, 1, 78, 55
2, 338560, Note_off_c, 1, 78, 0
2, 338560, Note_on_c, 1, 76, 54
2, 338720, Note_off_c, 1, 76, 0
2, 338720, Note_on_c, 1, 74, 53
2, 338824, Note_off_c, 1, 74, 0
2, 338880, Note_on_c, 1, 74, 52
2, 338984, Note_off_c, 1, 74, 0
2, 339040, Note_on_c, 1, 74, 51
2, 339144, Note_off_c, 1, 74, 0
2, 339200, Note_on_c, 1, 74, 50
2, 339304, Note_off_c, 1, 74, 0
2, 339360, Note_on_c, 1, 74, 49
2, 339464, Note_off_c, 1, 74, 0
2, 339520, Note_on_c, 1, 74, 48
2, 339624, Note_off_c, 1, 74, 0
2, 339680, Note_on_c, 1, 74, 52
2, 339784, Note_off_c, 1, 74, 0
2, 340000, Note_on_c, 1, 74, 52
2, 340160, Note_off_c, 1, 74, 0
2, 340160, Note_on_c, 1, 78, 51
2, 340264, Note_off_c, 1, 78, 0
2, 340480, Note_on_c, 1, 76, 51
2, 340640, Note_off_c, 1, 76, 0
2, 340640, Note_on_c, 1, 79, 50
2, 340744, Note_off_c, 1, 79, 0
2, 340960, Note_on_c, 1, 73, 50
2, 341120, Note_off_c, 1, 73, 0
2, 341120, Note_on_c, 1, 76, 51
2, 341224, Note_off_c, 1, 76, 0
2, 341280, Note_on_c, 1, 74, 50
2, 341384, Note_off_c, 1, 74, 0
2, 341440, Note_on_c, 1, 69, 51
2, 341568, Note_off_c, 1, 69, 0
2, 341600, Note_on_c, 1, 71, 53
2, 341728, Note_off_c, 1, 71, 0
2, 341760, Note_on_c, 1, 73, 54
2, 341888, Note_off_c, 1, 73, 0
2, 341920, Note_on_c, 1, 74, 55
2, 342048, Note_off_c, 1, 74, 0
2, 342080, Note_on_c, 1, 76, 57
2, 342208, Note_off_c, 1, 76, 0
2, 342240, Note_on_c, 1, 78, 58
2, 342368, Note_off_c, 1, 78, 0
2, 342400, Note_on_c, 1, 79, 60
2, 342528, Note_off_c, 1, 79, 0
2, 342560, Note_on_c, 1, 80, 61
2, 342688, Note_off_c, 1, 80, 0
2, 342720, Note_on_c, 1, 81, 65
2, 343440, Note_off_c, 1, 81, 0
2, 343440, Note_on_c, 1, 83, 62
2, 343500, Note_off_c, 1, 83, 0
2, 343500, Note_on_c, 1, 81, 61
2, 343560, Note_off_c, 1, 81, 0
2, 343560, Note_on_c, 1, 80, 61
2, 343620, Note_off_c, 1, 80, 0
2, 343620, Note_on_c, 1, 81, 61
2, 343680, Note_off_c, 1, 81, 0
2, 343680, Note_on_c, 1, 86, 61
2, 343872, Note_off_c, 1, 86, 0
2, 344160, Note_on_c, 1, 78, 65
2, 344880, Note_off_c, 1, 78, 0
2, 344880, Note_on_c, 1, 79, 61
2, 344940, Note_off_c, 1, 79, 0
2, 344940, Note_on_c, 1, 78, 61
2, 345000, Note_off_c, 1, 78, 0
2, 345000, Note_on_c, 1, 76, 60
2, 345060, Note_off_c, 1, 76, 0
2, 345060, Note_on_c, 1, 78, 60
2, 345120, Note_off_c, 1, 78, 0
2, 345120, Note_on_c, 1, 81, 59
2, 345312, Note_off_c, 1, 81, 0
2, 345760, Note_on_c, 1, 74, 62
2, 345920, Note_off_c, 1, 74, 0
2, 345920, Note_on_c, 1, 78, 62
2, 346024, Note_off_c, 1, 78, 0
2, 346240, Note_on_c, 1, 76, 61
2, 346400, Note_off_c, 1, 76, 0
2, 346400, Note_on_c, 1, 79, 61
2, 346504, Note_off_c, 1, 79, 0
2, 346720, Note_on_c, 1, 73, 60
2, 346880, Note_off_c, 1, 73, 0
2, 346880, Note_on_c, 1, 76, 60
2, 346984, Note_off_c, 1, 76, 0
2, 347040, Note_on_c, 1, 74, 59
2, 347400, Note_off_c, 1, 74, 0
2, 348480, Control_c, 1, 64, 0
2, 348480, Note_on_c, 1, 81, 55
2, 348636, Note_off_c, 1, 81, 0
2, 348720, Note_on_c, 1, 81, 54
2, 348876, Note_off_c, 1, 81, 0
2, 348960, Note_on_c, 1, 81, 52
2, 349116, Note_off_c, 1, 81, 0
2, 349200, Note_on_c, 1, 81, 50
2, 349356, Note_off_c, 1, 81, 0
2, 349440, Note_on_c, 1, 83, 48
2, 349500, Note_off_c, 1, 83, 0
2, 349500, Note_on_c, 1, 81, 48
2, 349560, Note_off_c, 1, 81, 0
2, 349560, Note_on_c, 1, 80, 47
2, 349620, Note_off_c, 1, 80, 0
2, 349620, Note_on_c, 1, 81, 47
2, 349680, Note_off_c, 1, 81, 0
2, 349680, Note_on_c, 1, 86, 46
2, 349836, Note_off_c, 1, 86, 0
2, 349920, Note_on_c, 1, 78, 51
2, 350076, Note_off_c, 1, 78, 0
2, 350160, Note_on_c, 1, 78, 50
2, 350316, Note_off_c, 1, 78, 0
2, 350400, Note_on_c, 1, 78, 48
2, 350556, Note_off_c, 1, 78, 0
2, 350640, Note_on_c, 1, 78, 46
2, 350796, Note_off_c, 1, 78, 0
2, 350880, Note_on_c, 1, 79, 44
2, 350940, Note_off_c, 1, 79, 0
2, 350940, Note_on_c, 1, 78, 44
2, 351000, Note_off_c, 1, 78, 0
2, 351000, Note_on_c, 1, 77, 43
2, 351060, Note_off_c, 1, 77, 0
2, 351060, Note_on_c, 1, 78, 43
2, 351120, Note_off_c, 1, 78, 0
2, 351120, Note_on_c, 1, 83, 42
2, 351276, Note_off_c, 1, 83, 0
2, 351360, Note_on_c, 1, 74, 48
2, 351516, Note_off_c, 1, 74, 0
2, 351840, Note_on_c, 1, 76, 46
2, 351996, Note_off_c, 1, 76, 0
2, 352320, Note_on_c, 1, 79, 45
2, 352476, Note_off_c, 1, 79, 0
2, 352800, Note_on_c, 1, 78, 44
2, 353040, Note_off_c, 1, 78, 0
2, 353040, Note_on_c, 1, 74, 42
2, 353160, Note_off_c, 1, 74, 0
2, 353160, Note_on_c, 1, 76, 43
2, 353238, Note_off_c, 1, 76, 0
2, 353280, Note_on_c, 1, 76, 44
2, 353400, Note_off_c, 1, 76, 0
2, 353400, Note_on_c, 1, 78, 45
2, 353478, Note_off_c, 1, 78, 0
2, 353520, Note_on_c, 1, 78, 46
2, 353640, Note_off_c, 1, 78, 0
2, 353640, Note_on_c, 1, 79, 47
2, 353718, Note_off_c, 1, 79, 0
2, 353760, Note_on_c, 1, 79, 48
2, 353880, Note_off_c, 1, 79, 0
2, 353880, Note_on_c, 1, 81, 49
2, 353958, Note_off_c, 1, 81, 0
2, 354000, Note_on_c, 1, 81, 50
2, 354120, Note_off_c, 1, 81, 0
2, 354120, Note_on_c, 1, 83, 51
2, 354198, Note_off_c, 1, 83, 0
2, 354240, Note_on_c, 1, 81, 59
2, 354396, Note_off_c, 1, 81, 0
2, 354480, Note_on_c, 1, 81, 58
2, 354636, Note_off_c, 1, 81, 0
2, 354720, Note_on_c, 1, 81, 57
2, 354876, Note_off_c, 1, 81, 0
2, 354960, Note_on_c, 1, 81, 55
2, 355116, Note_off_c, 1, 81, 0
2, 355200, Note_on_c, 1, 81, 54
2, 355320, Note_off_c, 1, 81, 0
2, 355320, Note_on_c, 1, 83, 53
2, 355440, Note_off_c, 1, 83, 0
2, 355440, Note_on_c, 1, 85, 53
2, 355560, Note_off_c, 1, 85, 0
2, 355560, Note_on_c, 1, 86, 52
2, 355656, Note_off_c, 1, 86, 0
2, 355680, Note_on_c, 1, 78, 57
2, 355836, Note_off_c, 1, 78, 0
2, 355920, Note_on_c, 1, 78, 56
2, 356076, Note_off_c, 1, 78, 0
2, 356160, Note_on_c, 1, 78, 54
2, 356316, Note_off_c, 1, 78, 0
2, 356400, Note_on_c, 1, 78, 52
2, 356556, Note_off_c, 1, 78, 0
2, 356640, Note_on_c, 1, 78, 50
2, 356760, Note_off_c, 1, 78, 0
2, 356760, Note_on_c, 1, 80, 49
2, 356880, Note_off_c, 1, 80, 0
2, 356880, Note_on_c, 1, 82, 48
2, 357000, Note_off_c, 1, 82, 0
2, 357000, Note_on_c, 1, 83, 48
2, 357096, Note_off_c, 1, 83, 0
2, 357120, Note_on_c, 1, 74, 54
2, 357480, Note_off_c, 1, 74, 0
2, 357480, Note_on_c, 1, 78, 54
2, 357600, Note_off_c, 1, 78, 0
2, 357600, Note_on_c, 1, 76, 53
2, 357960, Note_off_c, 1, 76, 0
2, 357960, Note_on_c, 1, 79, 53
2, 358080, Note_off_c, 1, 79, 0
2, 358080, Note_on_c, 1, 73, 53
2, 358440, Note_off_c, 1, 73, 0
2, 358440, Note_on_c, 1, 76, 52
2, 358560, Note_off_c, 1, 76, 0
2, 358560, Note_on_c, 1, 74, 52
2, 358920, Note_off_c, 1, 74, 0
2, 360000, Control_c, 1, 64, 0
2, 360000, Note_on_c, 1, 81, 55
2, 360156, Note_off_c, 1, 81, 0
2, 360240, Note_on_c, 1, 81, 54
2, 360396, Note_off_c, 1, 81, 0
2, 360480, Note_on_c, 1, 81, 52
2, 360636, Note_off_c, 1, 81, 0
2, 360720, Note_on_c, 1, 81, 50
2, 360876, Note_off_c, 1, 81, 0
2, 360960, Note_on_c, 1, 83, 48
2, 361020, Note_off_c, 1, 83, 0
2, 361020, Note_on_c, 1, 81, 48
2, 361080, Note_off_c, 1, 81, 0
2, 361080, Note_on_c, 1, 80, 47
2, 361140, Note_off_c, 1, 80, 0
2, 361140, Note_on_c, 1, 81, 47
2, 361200, Note_off_c, 1, 81, 0
2, 361200, Note_on_c, 1, 86, 46
2, 361356, Note_off_c, 1, 86, 0
2, 361440, Note_on_c, 1, 78, 51
2, 361596, Note_off_c, 1, 78, 0
2, 361680, Note_on_c, 1, 78, 50
2, 361836, Note_off_c, 1, 78, 0
2, 361920, Note_on_c, 1, 78, 48
2, 362076, Note_off_c, 1, 78, 0
2, 362160, Note_on_c, 1, 78, 46
2, 362316, Note_off_c, 1, 78, 0
2, 362400, Note_on_c, 1, 79, 44
2, 362460, Note_off_c, 1, 79, 0
2, 362460, Note_on_c, 1, 78, 44
2, 362520, Note_off_c, 1, 78, 0
2, 362520, Note_on_c, 1, 77, 43
2, 362580, Note_off_c, 1, 77, 0
2, 362580, Note_on_c, 1, 78, 43
2, 362640, Note_off_c, 1, 78, 0
2, 362640, Note_on_c, 1, 83, 42
2, 362796, Note_off_c, 1, 83, 0
2, 362880, Note_on_c, 1, 74, 48
2, 363036, Note_off_c, 1, 74, 0
2, 363360, Note_on_c, 1, 76, 46
2, 363516, Note_off_c, 1, 76, 0
2, 363840, Note_on_c, 1, 79, 45
2, 363996, Note_off_c, 1, 79, 0
2, 364320, Note_on_c, 1, 78, 44
2, 364560, Note_off_c, 1, 78, 0
2, 364560, Note_on_c, 1, 74, 42
2, 364680, Note_off_c, 1, 74, 0
2, 364680, Note_on_c, 1, 76, 43
2, 364758, Note_off_c, 1, 76, 0
2, 364800, Note_on_c, 1, 76, 44
2, 364920, Note_off_c, 1, 76, 0
2, 364920, Note_on_c, 1, 78, 45
2, 364998, Note_off_c, 1, 78, 0
2, 365040, Note_on_c, 1, 78, 46
2, 365160, Note_off_c, 1, 78, 0
2, 365160, Note_on_c, 1, 79, 47
2, 365238, Note_off_c, 1, 79, 0
2, 365280, Note_on_c, 1, 79, 48
2, 365400, Note_off_c, 1, 79, 0
2, 365400, Note_on_c, 1, 81, 49
2, 365478, Note_off_c, 1, 81, 0
2, 365520, Note_on_c, 1, 81, 50
2, 365640, Note_off_c, 1, 81, 0
2, 365640, Note_on_c, 1, 83, 51
2, 365718, Note_off_c, 1, 83, 0
2, 365760, Note_on_c, 1, 81, 59
2, 365916, Note_off_c, 1, 81, 0
2, 366000, Note_on_c, 1, 81, 58
2, 366156, Note_off_c, 1, 81, 0
2, 366240, Note_on_c, 1, 81, 57
2, 366396, Note_off_c, 1, 81, 0
2, 366480, Note_on_c, 1, 81, 55
2, 366636, Note_off_c, 1, 81, 0
2, 366720, Note_on_c, 1, 81, 54
2, 366840, Note_off_c, 1, 81, 0
2, 366840, Note_on_c, 1, 83, 53
2, 366960, Note_off_c, 1, 83, 0
2, 366960, Note_on_c, 1, 85, 53
2, 367080, Note_off_c, 1, 85, 0
2, 367080, Note_on_c, 1, 86, 52
2, 367176, Note_off_c, 1, 86, 0
2, 367200, Note_on_c, 1, 78, 57
2, 367356, Note_off_c, 1, 78, 0
2, 367440, Note_on_c, 1, 78, 56
2, 367596, Note_off_c, 1, 78, 0
2, 367680, Note_on_c, 1, 78, 54
2, 367836, Note_off_c, 1, 78, 0
2, 367920, Note_on_c, 1, 78, 52
2, 368076, Note_off_c, 1, 78, 0
2, 368160, Note_on_c, 1, 78, 50
2, 368280, Note_off_c, 1, 78, 0
2, 368280, Note_on_c, 1, 80, 49
2, 368400, Note_off_c, 1, 80, 0
2, 368400, Note_on_c, 1, 82, 48
2, 368520, Note_off_c, 1, 82, 0
2, 368520, Note_on_c, 1, 83, 48
2, 368616, Note_off_c, 1, 83, 0
2, 368640, Note_on_c, 1, 74, 54
2, 369000, Note_off_c, 1, 74, 0
2, 369000, Note_on_c, 1, 78, 54
2, 369120, Note_off_c, 1, 78, 0
2, 369120, Note_on_c, 1, 76, 53
2, 369480, Note_off_c, 1, 76, 0
2, 369480, Note_on_c, 1, 79, 53
2, 369600, Note_off_c, 1, 79, 0
2, 369600, Note_on_c, 1, 73, 53
2, 369960, Note_off_c, 1, 73, 0
2, 369960, Note_on_c, 1, 76, 52
2, 370080, Note_off_c, 1, 76, 0
2, 370080, Note_on_c, 1, 74, 52
2, 370440, Note_off_c, 1, 74, 0
2, 371520, Control_c, 1, 64, 0
2, 371520, Note_on_c, 1, 76, 54
2, 371676, Note_off_c, 1, 76, 0
2, 371760, Note_on_c, 1, 76, 55
2, 371916, Note_off_c, 1, 76, 0
2, 372000, Note_on_c, 1, 76, 56
2, 372156, Note_off_c, 1, 76, 0
2, 372240, Note_on_c, 1, 76, 58
2, 372396, Note_off_c, 1, 76, 0
2, 372480, Note_on_c, 1, 77, 59
2, 372720, Note_off_c, 1, 77, 0
2, 372720, Note_on_c, 1, 78, 61
2, 372960, Note_off_c, 1, 78, 0
2, 372960, Note_on_c, 1, 79, 63
2, 373680, Note_off_c, 1, 79, 0
2, 373680, Note_on_c, 1, 78, 53
2, 373760, Note_off_c, 1, 78, 0
2, 373760, Note_on_c, 1, 76, 52
2, 373840, Note_off_c, 1, 76, 0
2, 373840, Note_on_c, 1, 74, 50
2, 373920, Note_off_c, 1, 74, 0
2, 373920, Note_on_c, 1, 73, 49
2, 374112, Note_off_c, 1, 73, 0
2, 374400, Note_on_c, 1, 78, 49
2, 374556, Note_off_c, 1, 78, 0
2, 374640, Note_on_c, 1, 78, 50
2, 374796, Note_off_c, 1, 78, 0
2, 374880, Note_on_c, 1, 78, 51
2, 375036, Note_off_c, 1, 78, 0
2, 375120, Note_on_c, 1, 78, 52
2, 375276, Note_off_c, 1, 78, 0
2, 375360, Note_on_c, 1, 79, 54
2, 375600, Note_off_c, 1, 79, 0
2, 375600, Note_on_c, 1, 80, 56
2, 375840, Note_off_c, 1, 80, 0
2, 375840, Note_on_c, 1, 81, 59
2, 376560, Note_off_c, 1, 81, 0
2, 376560, Note_on_c, 1, 79, 49
2, 376640, Note_off_c, 1, 79, 0
2, 376640, Note_on_c, 1, 78, 48
2, 376720, Note_off_c, 1, 78, 0
2, 376720, Note_on_c, 1, 76, 47
2, 376800, Note_off_c, 1, 76, 0
2, 376800, Note_on_c, 1, 74, 46
2, 376992, Note_off_c, 1, 74, 0
2, 377040, Note_on_c, 1, 86, 45
2, 377280, Note_off_c, 1, 86, 0
2, 377280, Note_on_c, 1, 85, 46
2, 377520, Note_off_c, 1, 85, 0
2, 377520, Note_on_c, 1, 83, 47
2, 377760, Note_off_c, 1, 83, 0
2, 377760, Note_on_c, 1, 81, 48
2, 378420, Note_off_c, 1, 81, 0
2, 378480, Note_on_c, 1, 86, 52
2, 378720, Note_off_c, 1, 86, 0
2, 378720, Note_on_c, 1, 85, 53
2, 378960, Note_off_c, 1, 85, 0
2, 378960, Note_on_c, 1, 83, 54
2, 379200, Note_off_c, 1, 83, 0
2, 379200, Note_on_c, 1, 81, 55
2, 379867, Note_off_c, 1, 81, 0
2, 379920, Note_on_c, 1, 83, 58
2, 380160, Note_off_c, 1, 83, 0
2, 380160, Note_on_c, 1, 79, 59
2, 380400, Note_off_c, 1, 79, 0
2, 380400, Note_on_c, 1, 81, 60
2, 380640, Note_off_c, 1, 81, 0
2, 380640, Note_on_c, 1, 78, 61
2, 380880, Note_off_c, 1, 78, 0
2, 380880, Note_on_c, 1, 79, 62
2, 381120, Note_off_c, 1, 79, 0
2, 381120, Note_on_c, 1, 81, 63
2, 381360, Note_off_c, 1, 81, 0
2, 381360, Note_on_c, 1, 83, 65
2, 381552, Note_off_c, 1, 83, 0
2, 381600, Note_on_c, 1, 78, 66
2, 381960, Note_off_c, 1, 78, 0
2, 381960, Note_on_c, 1, 79, 60
2, 382020, Note_off_c, 1, 79, 0
2, 382020, Note_on_c, 1, 78, 59
2, 382080, Note_off_c, 1, 78, 0
2, 382080, Note_on_c, 1, 76, 58
2, 382236, Note_off_c, 1, 76, 0
2, 382320, Note_on_c, 1, 78, 53
2, 382476, Note_off_c, 1, 78, 0
2, 382560, Note_on_c, 1, 79, 53
2, 382716, Note_off_c, 1, 79, 0
2, 382800, Note_on_c, 1, 80, 51
2, 382956, Note_off_c, 1, 80, 0
2, 383040, Note_on_c, 1, 81, 53
2, 383196, Note_off_c, 1, 81, 0
2, 383280, Note_on_c, 1, 81, 52
2, 383436, Note_off_c, 1, 81, 0
2, 383520, Note_on_c, 1, 81, 50
2, 383676, Note_off_c, 1, 81, 0
2, 383760, Note_on_c, 1, 81, 48
2, 383916, Note_off_c, 1, 81, 0
2, 384000, Note_on_c, 1, 83, 46
2, 384060, Note_off_c, 1, 83, 0
2, 384060, Note_on_c, 1, 81, 46
2, 384120, Note_off_c, 1, 81, 0
2, 384120, Note_on_c, 1, 80, 45
2, 384180, Note_off_c, 1, 80, 0
2, 384180, Note_on_c, 1, 81, 45
2, 384240, Note_off_c, 1, 81, 0
2, 384240, Note_on_c, 1, 86, 44
2, 384396, Note_off_c, 1, 86, 0
2, 384480, Note_on_c, 1, 78, 49
2, 384636, Note_off_c, 1, 78, 0
2, 384720, Note_on_c, 1, 78, 47
2, 384876, Note_off_c, 1, 78, 0
2, 384960, Note_on_c, 1, 78, 46
2, 385116, Note_off_c, 1, 78, 0
2, 385200, Note_on_c, 1, 78, 44
2, 385356, Note_off_c, 1, 78, 0
2, 385440, Note_on_c, 1, 79, 42
2, 385500, Note_off_c, 1, 79, 0
2, 385500, Note_on_c, 1, 78, 41
2, 385560, Note_off_c, 1, 78, 0
2, 385560, Note_on_c, 1, 77, 41
2, 385620, Note_off_c, 1, 77, 0
2, 385620, Note_on_c, 1, 78, 40
2, 385680, Note_off_c, 1, 78, 0
2, 385680, Note_on_c, 1, 83, 40
2, 385836, Note_off_c, 1, 83, 0
2, 385920, Note_on_c, 1, 74, 45
2, 386076, Note_off_c, 1, 74, 0
2, 386400, Note_on_c, 1, 76, 44
2, 386556, Note_off_c, 1, 76, 0
2, 386880, Note_on_c, 1, 79, 43
2, 387036, Note_off_c, 1, 79, 0
2, 387360, Note_on_c, 1, 78, 42
2, 387600, Note_off_c, 1, 78, 0
2, 387600, Note_on_c, 1, 74, 42
2, 387720, Note_off_c, 1, 74, 0
2, 387720, Note_on_c, 1, 76, 43
2, 387798, Note_off_c, 1, 76, 0
2, 387840, Note_on_c, 1, 76, 44
2, 387960, Note_off_c, 1, 76, 0
2, 387960, Note_on_c, 1, 78, 45
2, 388038, Note_off_c, 1, 78, 0
2, 388080, Note_on_c, 1, 78, 46
2, 388200, Note_off_c, 1, 78, 0
2, 388200, Note_on_c, 1, 79, 47
2, 388278, Note_off_c, 1, 79, 0
2, 388320, Note_on_c, 1, 79, 48
2, 388440, Note_off_c, 1, 79, 0
2, 388440, Note_on_c, 1, 81, 49
2, 388518, Note_off_c, 1, 81, 0
2, 388560, Note_on_c, 1, 81, 50
2, 388680, Note_off_c, 1, 81, 0
2, 388680, Note_on_c, 1, 83, 51
2, 388758, Note_off_c, 1, 83, 0
2, 388800, Note_on_c, 1, 81, 61
2, 388956, Note_off_c, 1, 81, 0
2, 389040, Note_on_c, 1, 81, 60
2, 389196, Note_off_c, 1, 81, 0
2, 389280, Note_on_c, 1, 81, 58
2, 389436, Note_off_c, 1, 81, 0
2, 389520, Note_on_c, 1, 81, 56
2, 389676, Note_off_c, 1, 81, 0
2, 389760, Note_on_c, 1, 81, 54
2, 389880, Note_off_c, 1, 81, 0
2, 389880, Note_on_c, 1, 83, 54
2, 390000, Note_off_c, 1, 83, 0
2, 390000, Note_on_c, 1, 85, 53
2, 390120, Note_off_c, 1, 85, 0
2, 390120, Note_on_c, 1, 86, 52
2, 390216, Note_off_c, 1, 86, 0
2, 390240, Note_on_c, 1, 78, 59
2, 390396, Note_off_c, 1, 78, 0
2, 390480, Note_on_c, 1, 78, 58
2, 390636, Note_off_c, 1, 78, 0
2, 390720, Note_on_c, 1, 78, 56
2, 390876, Note_off_c, 1, 78, 0
2, 390960, Note_on_c, 1, 78, 54
2, 391116, Note_off_c, 1, 78, 0
2, 391200, Note_on_c, 1, 78, 52
2, 391320, Note_off_c, 1, 78, 0
2, 391320, Note_on_c, 1, 80, 52
2, 391440, Note_off_c, 1, 80, 0
2, 391440, Note_on_c, 1, 82, 51
2, 391560, Note_off_c, 1, 82, 0
2, 391560, Note_on_c, 1, 83, 50
2, 391656, Note_off_c, 1, 83, 0
2, 391680, Note_on_c, 1, 74, 56
2, 392040, Note_off_c, 1, 74, 0
2, 392040, Note_on_c, 1, 78, 56
2, 392160, Note_off_c, 1, 78, 0
2, 392160, Note_on_c, 1, 76, 56
2, 392520, Note_off_c, 1, 76, 0
2, 392520, Note_on_c, 1, 79, 55
2, 392640, Note_off_c, 1, 79, 0
2, 392640, Note_on_c, 1, 73, 55
2, 393000, Note_off_c, 1, 73, 0
2, 393000, Note_on_c, 1, 76, 54
2, 393120, Note_off_c, 1, 76, 0
2, 393120, Note_on_c, 1, 74, 57
2, 393480, Note_off_c, 1, 74, 0
2, 394560, Control_c, 1, 64, 0
2, 394560, Note_on_c, 1, 76, 54
2, 394716, Note_off_c, 1, 76, 0
2, 394800, Note_on_c, 1, 76, 55
2, 394956, Note_off_c, 1, 76, 0
2, 395040, Note_on_c, 1, 76, 56
2, 395196, Note_off_c, 1, 76, 0
2, 395280, Note_on_c, 1, 76, 58
2, 395436, Note_off_c, 1, 76, 0
2, 395520, Note_on_c, 1, 77, 59
2, 395760, Note_off_c, 1, 77, 0
2, 395760, Note_on_c, 1, 78, 61
2, 396000, Note_off_c, 1, 78, 0
2, 396000, Note_on_c, 1, 79, 63
2, 396720, Note_off_c, 1, 79, 0
2, 396720, Note_on_c, 1, 78, 53
2, 396800, Note_off_c, 1, 78, 0
2, 396800, Note_on_c, 1, 76, 52
2, 396880, Note_off_c, 1, 76, 0
2, 396880, Note_on_c, 1, 74, 50
2, 396960, Note_off_c, 1, 74, 0
2, 396960, Note_on_c, 1, 73, 49
2, 397152, Note_off_c, 1, 73, 0
2, 397440, Note_on_c, 1, 78, 49
2, 397596, Note_off_c, 1, 78, 0
2, 397680, Note_on_c, 1, 78, 50
2, 397836, Note_off_c, 1, 78, 0
2, 397920, Note_on_c, 1, 78, 51
2, 398076, Note_off_c, 1, 78, 0
2, 398160, Note_on_c, 1, 78, 52
2, 398316, Note_off_c, 1, 78, 0
2, 398400, Note_on_c, 1, 79, 54
2, 398640, Note_off_c, 1, 79, 0
2, 398640, Note_on_c, 1, 80, 56
2, 398880, Note_off_c, 1, 80, 0
2, 398880, Note_on_c, 1, 81, 59
2, 399600, Note_off_c, 1, 81, 0
2, 399600, Note_on_c, 1, 79, 49
2, 399680, Note_off_c, 1, 79, 0
2, 399680, Note_on_c, 1, 78, 48
2, 399760, Note_off_c, 1, 78, 0
2, 399760, Note_on_c, 1, 76, 47
2, 399840, Note_off_c, 1, 76, 0
2, 399840, Note_on_c, 1, 74, 46
2, 400032, Note_off_c, 1, 74, 0
2, 400080, Note_on_c, 1, 86, 45
2, 400320, Note_off_c, 1, 86, 0
2, 400320, Note_on_c, 1, 85, 46
2, 400560, Note_off_c, 1, 85, 0
2, 400560, Note_on_c, 1, 83, 47
2, 400800, Note_off_c, 1, 83, 0
2, 400800, Note_on_c, 1, 81, 48
2, 401460, Note_off_c, 1, 81, 0
2, 401520, Note_on_c, 1, 86, 52
2, 401760, Note_off_c, 1, 86, 0
2, 401760, Note_on_c, 1, 85, 53
2, 402000, Note_off_c, 1, 85, 0
2, 402000, Note_on_c, 1, 83, 54
2, 402240, Note_off_c, 1, 83, 0
2, 402240, Note_on_c, 1, 81, 55
2, 402907, Note_off_c, 1, 81, 0
2, 402960, Note_on_c, 1, 83, 58
2, 403200, Note_off_c, 1, 83, 0
2, 403200, Note_on_c, 1, 79, 59
2, 403440, Note_off_c, 1, 79, 0
2, 403440, Note_on_c, 1, 81, 60
2, 403680, Note_off_c, 1, 81, 0
2, 403680, Note_on_c, 1, 78, 61
2, 403920, Note_off_c, 1, 78, 0
2, 403920, Note_on_c, 1, 79, 62
2, 404160, Note_off_c, 1, 79, 0
2, 404160, Note_on_c, 1, 81, 63
2, 404400, Note_off_c, 1, 81, 0
2, 404400, Note_on_c, 1, 83, 65
2, 404592, Note_off_c, 1, 83, 0
2, 404640, Note_on_c, 1, 78, 66
2, 405000, Note_off_c, 1, 78, 0
2, 405000, Note_on_c, 1, 79, 60
2, 405060, Note_off_c, 1, 79, 0
2, 405060, Note_on_c, 1, 78, 59
2, 405120, Note_off_c, 1, 78, 0
2, 405120, Note_on_c, 1, 76, 58
2, 405276, Note_off_c, 1, 76, 0
2, 405360, Note_on_c, 1, 78, 53
2, 405516, Note_off_c, 1, 78, 0
2, 405600, Note_on_c, 1, 79, 53
2, 405756, Note_off_c, 1, 79, 0
2, 405840, Note_on_c, 1, 80, 51
2, 405996, Note_off_c, 1, 80, 0
2, 406080, Note_on_c, 1, 81, 53
2, 406236, Note_off_c, 1, 81, 0
2, 406320, Note_on_c, 1, 81, 52
2, 406476, Note_off_c, 1, 81, 0
2, 406560, Note_on_c, 1, 81, 50
2, 406716, Note_off_c, 1, 81, 0
2, 406800, Note_on_c, 1, 81, 48
2, 406956, Note_off_c, 1, 81, 0
2, 407040, Note_on_c, 1, 83, 46
2, 407100, Note_off_c, 1, 83, 0
2, 407100, Note_on_c, 1, 81, 46
2, 407160, Note_off_c, 1, 81, 0
2, 407160, Note_on_c, 1, 80, 45
2, 407220, Note_off_c, 1, 80, 0
2, 407220, Note_on_c, 1, 81, 45
2, 407280, Note_off_c, 1, 81, 0
2, 407280, Note_on_c, 1, 86, 44
2, 407436, Note_off_c, 1, 86, 0
2, 407520, Note_on_c, 1, 78, 49
2, 407676, Note_off_c, 1, 78, 0
2, 407760, Note_on_c, 1, 78, 47
2, 407916, Note_off_c, 1, 78, 0
2, 408000, Note_on_c, 1, 78, 46
2, 408156, Note_off_c, 1, 78, 0
2, 408240, Note_on_c, 1, 78, 44
2, 408396, Note_off_c, 1, 78, 0
2, 408480, Note_on_c, 1, 79, 42
2, 408540, Note_off_c, 1, 79, 0
2, 408540, Note_on_c, 1, 78, 41
2, 408600, Note_off_c, 1, 78, 0
2, 408600, Note_on_c, 1, 77, 41
2, 408660, Note_off_c, 1, 77, 0
2, 408660, Note_on_c, 1, 78, 40
2, 408720, Note_off_c, 1, 78, 0
2, 408720, Note_on_c, 1, 83, 40
2, 408876, Note_off_c, 1, 83, 0
2, 408960, Note_on_c, 1, 74, 45
2, 409116, Note_off_c, 1, 74, 0
2, 409440, Note_on_c, 1, 76, 44
2, 409596, Note_off_c, 1, 76, 0
2, 409920, Note_on_c, 1, 79, 43
2, 410076, Note_off_c, 1, 79, 0
2, 410400, Note_on_c, 1, 78, 42
2, 410640, Note_off_c, 1, 78, 0
2, 410640, Note_on_c, 1, 74, 42
2, 410760, Note_off_c, 1, 74, 0
2, 410760, Note_on_c, 1, 76, 43
2, 410838, Note_off_c, 1, 76, 0
2, 410880, Note_on_c, 1, 76, 44
2, 411000, Note_off_c, 1, 76, 0
2, 411000, Note_on_c, 1, 78, 45
2, 411078, Note_off_c, 1, 78, 0
2, 411120, Note_on_c, 1, 78, 46
2, 411240, Note_off_c, 1, 78, 0
2, 411240, Note_on_c, 1, 79, 47
2, 411318, Note_off_c, 1, 79, 0
2, 411360, Note_on_c, 1, 79, 48
2, 411480, Note_off_c, 1, 79, 0
2, 411480, Note_on_c, 1, 81, 49
2, 411558, Note_off_c, 1, 81, 0
2, 411600, Note_on_c, 1, 81, 50
2, 411720, Note_off_c, 1, 81, 0
2, 411720, Note_on_c, 1, 83, 51
2, 411798, Note_off_c, 1, 83, 0
2, 411840, Note_on_c, 1, 81, 61
2, 411996, Note_off_c, 1, 81, 0
2, 412080, Note_on_c, 1, 81, 60
2, 412236, Note_off_c, 1, 81, 0
2, 412320, Note_on_c, 1, 81, 58
2, 412476, Note_off_c, 1, 81, 0
2, 412560, Note_on_c, 1, 81, 56
2, 412716, Note_off_c, 1, 81, 0
2, 412800, Note_on_c, 1, 81, 54
2, 412920, Note_off_c, 1, 81, 0
2, 412920, Note_on_c, 1, 83, 54
2, 413040, Note_off_c, 1, 83, 0
2, 413040, Note_on_c, 1, 85, 53
2, 413160, Note_off_c, 1, 85, 0
2, 413160, Note_on_c, 1, 86, 52
2, 413256, Note_off_c, 1, 86, 0
2, 413280, Note_on_c, 1, 78, 59
2, 413436, Note_off_c, 1, 78, 0
2, 413520, Note_on_c, 1, 78, 58
2, 413676, Note_off_c, 1, 78, 0
2, 413760, Note_on_c, 1, 78, 56
2, 413916, Note_off_c, 1, 78, 0
2, 414000, Note_on_c, 1, 78, 54
2, 414156, Note_off_c, 1, 78, 0
2, 414240, Note_on_c, 1, 78, 52
2, 414360, Note_off_c, 1, 78, 0
2, 414360, Note_on_c, 1, 80, 52
2, 414480, Note_off_c, 1, 80, 0
2, 414480, Note_on_c, 1, 82, 51
2, 414600, Note_off_c, 1, 82, 0
2, 414600, Note_on_c, 1, 83, 50
2, 414696, Note_off_c, 1, 83, 0
2, 414720, Note_on_c, 1, 74, 56
2, 415080, Note_off_c, 1, 74, 0
2, 415080, Note_on_c, 1, 78, 56
2, 415200, Note_off_c, 1, 78, 0
2, 415200, Note_on_c, 1, 76, 56
2, 415560, Note_off_c, 1, 76, 0
2, 415560, Note_on_c, 1, 79, 55
2, 415680, Note_off_c, 1, 79, 0
2, 415680, Note_on_c, 1, 73, 55
2, 416040, Note_off_c, 1, 73, 0
2, 416040, Note_on_c, 1, 76, 54
2, 416160, Note_off_c, 1, 76, 0
2, 416160, Note_on_c, 1, 74, 57
2, 416520, Note_off_c, 1, 74, 0
2, 417600, Control_c, 1, 64, 0
2, 417600, Note_on_c, 1, 81, 51
2, 417960, Note_off_c, 1, 81, 0
2, 418080, Note_on_c, 1, 81, 52
2, 418440, Note_off_c, 1, 81, 0
2, 418800, Note_on_c, 1, 86, 48
2, 418992, Note_off_c, 1, 86, 0
2, 419040, Note_on_c, 1, 77, 50
2, 419400, Note_off_c, 1, 77, 0
2, 419520, Note_on_c, 1, 77, 51
2, 419880, Note_off_c, 1, 77, 0
2, 420240, Note_on_c, 1, 81, 46
2, 420432, Note_off_c, 1, 81, 0
2, 420480, Note_on_c, 1, 74, 48
2, 420720, Note_off_c, 1, 74, 0
2, 420720, Note_on_c, 1, 76, 47
2, 420780, Note_off_c, 1, 76, 0
2, 420780, Note_on_c, 1, 74, 48
2, 420840, Note_off_c, 1, 74, 0
2, 420840, Note_on_c, 1, 73, 50
2, 420900, Note_off_c, 1, 73, 0
2, 420900, Note_on_c, 1, 74, 51
2, 420960, Note_off_c, 1, 74, 0
2, 420960, Note_on_c, 1, 77, 53
2, 421680, Note_off_c, 1, 77, 0
2, 421680, Note_on_c, 1, 76, 46
2, 421920, Note_off_c, 1, 76, 0
2, 421920, Note_on_c, 1, 74, 47
2, 422076, Note_off_c, 1, 74, 0
2, 422160, Note_on_c, 1, 73, 46
2, 422316, Note_off_c, 1, 73, 0
2, 422400, Note_on_c, 1, 74, 46
2, 422556, Note_off_c, 1, 74, 0
2, 422640, Note_on_c, 1, 76, 45
2, 422796, Note_off_c, 1, 76, 0
2, 422880, Note_on_c, 1, 77, 45
2, 423036, Note_off_c, 1, 77, 0
2, 423120, Note_on_c, 1, 79, 45
2, 423276, Note_off_c, 1, 79, 0
2, 423360, Note_on_c, 1, 81, 44
2, 423600, Note_off_c, 1, 81, 0
2, 423600, Note_on_c, 1, 83, 42
2, 423660, Note_off_c, 1, 83, 0
2, 423660, Note_on_c, 1, 81, 43
2, 423720, Note_off_c, 1, 81, 0
2, 423720, Note_on_c, 1, 80, 43
2, 423780, Note_off_c, 1, 80, 0
2, 423780, Note_on_c, 1, 81, 44
2, 423840, Note_off_c, 1, 81, 0
2, 423840, Note_on_c, 1, 83, 44
2, 424032, Note_off_c, 1, 83, 0
2, 424080, Note_on_c, 1, 85, 46
2, 424272, Note_off_c, 1, 85, 0
2, 424320, Note_on_c, 1, 86, 48
2, 424512, Note_off_c, 1, 86, 0
2, 424560, Note_on_c, 1, 88, 50
2, 424752, Note_off_c, 1, 88, 0
2, 424800, Note_on_c, 1, 89, 55
2, 424956, Note_off_c, 1, 89, 0
2, 425040, Note_on_c, 1, 85, 51
2, 425280, Note_off_c, 1, 85, 0
2, 425280, Note_on_c, 1, 86, 52
2, 425436, Note_off_c, 1, 86, 0
2, 425520, Note_on_c, 1, 80, 48
2, 425760, Note_off_c, 1, 80, 0
2, 425760, Note_on_c, 1, 81, 51
2, 425916, Note_off_c, 1, 81, 0
2, 426000, Note_on_c, 1, 76, 46
2, 426240, Note_off_c, 1, 76, 0
2, 426240, Note_on_c, 1, 77, 44
2, 426480, Note_off_c, 1, 77, 0
2, 426480, Note_on_c, 1, 79, 41
2, 426540, Note_off_c, 1, 79, 0
2, 426540, Note_on_c, 1, 77, 41
2, 426600, Note_off_c, 1, 77, 0
2, 426600, Note_on_c, 1, 76, 42
2, 426660, Note_off_c, 1, 76, 0
2, 426660, Note_on_c, 1, 77, 43
2, 426720, Note_off_c, 1, 77, 0
2, 426720, Note_on_c, 1, 81, 49
2, 427440, Note_off_c, 1, 81, 0
2, 427440, Note_on_c, 1, 73, 40
2, 427632, Note_off_c, 1, 73, 0
2, 427680, Note_on_c, 1, 76, 42
2, 428160, Note_off_c, 1, 76, 0
2, 428160, Note_on_c, 1, 74, 36
2, 428520, Note_off_c, 1, 74, 0
2, 429120, Control_c, 1, 64, 0
2, 429120, Note_on_c, 1, 81, 51
2, 429480, Note_off_c, 1, 81, 0
2, 429600, Note_on_c, 1, 81, 52
2, 429960, Note_off_c, 1, 81, 0
2, 430320, Note_on_c, 1, 86, 48
2, 430512, Note_off_c, 1, 86, 0
2, 430560, Note_on_c, 1, 77, 50
2, 430920, Note_off_c, 1, 77, 0
2, 431040, Note_on_c, 1, 77, 51
2, 431400, Note_off_c, 1, 77, 0
2, 431760, Note_on_c, 1, 81, 46
2, 431952, Note_off_c, 1, 81, 0
2, 432000, Note_on_c, 1, 74, 48
2, 432240, Note_off_c, 1, 74, 0
2, 432240, Note_on_c, 1, 76, 47
2, 432300, Note_off_c, 1, 76, 0
2, 432300, Note_on_c, 1, 74, 48
2, 432360, Note_off_c, 1, 74, 0
2, 432360, Note_on_c, 1, 73, 50
2, 432420, Note_off_c, 1, 73, 0
2, 432420, Note_on_c, 1, 74, 51
2, 432480, Note_off_c, 1, 74, 0
2, 432480, Note_on_c, 1, 77, 53
2, 433200, Note_off_c, 1, 77, 0
2, 433200, Note_on_c, 1, 76, 46
2, 433440, Note_off_c, 1, 76, 0
2, 433440, Note_on_c, 1, 74, 47
2, 433596, Note_off_c, 1, 74, 0
2, 433680, Note_on_c, 1, 73, 46
2, 433836, Note_off_c, 1, 73, 0
2, 433920, Note_on_c, 1, 74, 46
2, 434076, Note_off_c, 1, 74, 0
2, 434160, Note_on_c, 1, 76, 45
2, 434316, Note_off_c, 1, 76, 0
2, 434400, Note_on_c, 1, 77, 45
2, 434556, Note_off_c, 1, 77, 0
2, 434640, Note_on_c, 1, 79, 45
2, 434796, Note_off_c, 1, 79, 0
2, 434880, Note_on_c, 1, 81, 44
2, 435120, Note_off_c, 1, 81, 0
2, 435120, Note_on_c, 1, 83, 42
2, 435180, Note_off_c, 1, 83, 0
2, 435180, Note_on_c, 1, 81, 43
2, 435240, Note_off_c, 1, 81, 0
2, 435240, Note_on_c, 1, 80, 43
2, 435300, Note_off_c, 1, 80, 0
2, 435300, Note_on_c, 1, 81, 44
2, 435360, Note_off_c, 1, 81, 0
2, 435360, Note_on_c, 1, 83, 44
2, 435552, Note_off_c, 1, 83, 0
2, 435600, Note_on_c, 1, 85, 46
2, 435792, Note_off_c, 1, 85, 0
2, 435840, Note_on_c, 1, 86, 48
2, 436032, Note_off_c, 1, 86, 0
2, 436080, Note_on_c, 1, 88, 50
2, 436272, Note_off_c, 1, 88, 0
2, 436320, Note_on_c, 1, 89, 55
2, 436476, Note_off_c, 1, 89, 0
2, 436560, Note_on_c, 1, 85, 51
2, 436800, Note_off_c, 1, 85, 0
2, 436800, Note_on_c, 1, 86, 52
2, 436956, Note_off_c, 1, 86, 0
2, 437040, Note_on_c, 1, 80, 48
2, 437280, Note_off_c, 1, 80, 0
2, 437280, Note_on_c, 1, 81, 51
2, 437436, Note_off_c, 1, 81, 0
2, 437520, Note_on_c, 1, 76, 46
2, 437760, Note_off_c, 1, 76, 0
2, 437760, Note_on_c, 1, 77, 44
2, 438000, Note_off_c, 1, 77, 0
2, 438000, Note_on_c, 1, 79, 41
2, 438060, Note_off_c, 1, 79, 0
2, 438060, Note_on_c, 1, 77, 41
2, 438120, Note_off_c, 1, 77, 0
2, 438120, Note_on_c, 1, 76, 42
2, 438180, Note_off_c, 1, 76, 0
2, 438180, Note_on_c, 1, 77, 43
2, 438240, Note_off_c, 1, 77, 0
2, 438240, Note_on_c, 1, 81, 49
2, 438960, Note_off_c, 1, 81, 0
2, 438960, Note_on_c, 1, 73, 40
2, 439152, Note_off_c, 1, 73, 0
2, 439200, Note_on_c, 1, 76, 42
2, 439680, Note_off_c, 1, 76, 0
2, 439680, Note_on_c, 1, 74, 36
2, 440040, Note_off_c, 1, 74, 0
2, 440640, Control_c, 1, 64, 0
2, 440640, Note_on_c, 1, 76, 50
2, 441000, Note_off_c, 1, 76, 0
2, 441360, Note_on_c, 1, 76, 50
2, 441552, Note_off_c, 1, 76, 0
2, 441600, Note_on_c, 1, 76, 50
2, 441792, Note_off_c, 1, 76, 0
2, 441840, Note_on_c, 1, 76, 50
2, 442032, Note_off_c, 1, 76, 0
2, 442080, Note_on_c, 1, 77, 50
2, 442120, Note_off_c, 1, 77, 0
2, 442120, Note_on_c, 1, 76, 50
2, 442160, Note_off_c, 1, 76, 0
2, 442160, Note_on_c, 1, 75, 50
2, 442200, Note_off_c, 1, 75, 0
2, 442200, Note_on_c, 1, 76, 51
2, 442440, Note_off_c, 1, 76, 0
2, 442440, Note_on_c, 1, 81, 54
2, 442560, Note_off_c, 1, 81, 0
2, 442560, Note_on_c, 1, 81, 57
2, 443280, Note_off_c, 1, 81, 0
2, 443280, Note_on_c, 1, 76, 51
2, 443520, Note_off_c, 1, 76, 0
2, 443520, Note_on_c, 1, 79, 51
2, 443760, Note_off_c, 1, 79, 0
2, 443760, Note_on_c, 1, 77, 46
2, 443952, Note_off_c, 1, 77, 0
2, 444240, Note_on_c, 1, 77, 48
2, 444432, Note_off_c, 1, 77, 0
2, 444480, Note_on_c, 1, 77, 50
2, 444672, Note_off_c, 1, 77, 0
2, 444720, Note_on_c, 1, 77, 52
2, 444912, Note_off_c, 1, 77, 0
2, 444960, Note_on_c, 1, 79, 54
2, 445000, Note_off_c, 1, 79, 0
2, 445000, Note_on_c, 1, 77, 54
2, 445040, Note_off_c, 1, 77, 0
2, 445040, Note_on_c, 1, 76, 55
2, 445080, Note_off_c, 1, 76, 0
2, 445080, Note_on_c, 1, 77, 55
2, 445320, Note_off_c, 1, 77, 0
2, 445320, Note_on_c, 1, 79, 57
2, 445440, Note_off_c, 1, 79, 0
2, 445440, Note_on_c, 1, 81, 58
2, 446160, Note_off_c, 1, 81, 0
2, 446160, Note_on_c, 1, 86, 61
2, 446400, Note_off_c, 1, 86, 0
2, 446400, Note_on_c, 1, 85, 65
2, 446640, Note_off_c, 1, 85, 0
2, 446640, Note_on_c, 1, 82, 60
2, 446880, Note_off_c, 1, 82, 0
2, 446880, Note_on_c, 1, 81, 59
2, 446976, Note_off_c, 1, 81, 0
2, 447000, Note_on_c, 1, 89, 58
2, 447120, Note_off_c, 1, 89, 0
2, 447120, Note_on_c, 1, 88, 57
2, 447240, Note_off_c, 1, 88, 0
2, 447240, Note_on_c, 1, 86, 57
2, 447360, Note_off_c, 1, 86, 0
2, 447360, Note_on_c, 1, 85, 56
2, 447480, Note_off_c, 1, 85, 0
2, 447480, Note_on_c, 1, 86, 55
2, 447600, Note_off_c, 1, 86, 0
2, 447600, Note_on_c, 1, 88, 55
2, 447720, Note_off_c, 1, 88, 0
2, 447720, Note_on_c, 1, 86, 54
2, 447840, Note_off_c, 1, 86, 0
2, 447840, Note_on_c, 1, 85, 57
2, 448080, Note_off_c, 1, 85, 0
2, 448080, Note_on_c, 1, 82, 51
2, 448320, Note_off_c, 1, 82, 0
2, 448320, Note_on_c, 1, 81, 51
2, 448440, Note_off_c, 1, 81, 0
2, 448440, Note_on_c, 1, 82, 53
2, 448560, Note_off_c, 1, 82, 0
2, 448560, Note_on_c, 1, 83, 55
2, 448680, Note_off_c, 1, 83, 0
2, 448680, Note_on_c, 1, 84, 56
2, 448800, Note_off_c, 1, 84, 0
2, 448800, Note_on_c, 1, 85, 58
2, 448920, Note_off_c, 1, 85, 0
2, 448920, Note_on_c, 1, 86, 60
2, 449040, Note_off_c, 1, 86, 0
2, 449040, Note_on_c, 1, 88, 62
2, 449160, Note_off_c, 1, 88, 0
2, 449160, Note_on_c, 1, 89, 64
2, 449256, Note_off_c, 1, 89, 0
2, 449280, Note_on_c, 1, 89, 66
2, 449436, Note_off_c, 1, 89, 0
2, 449520, Note_on_c, 1, 80, 65
2, 449676, Note_off_c, 1, 80, 0
2, 449760, Note_on_c, 1, 79, 62
2, 450000, Note_off_c, 1, 79, 0
2, 450000, Note_on_c, 1, 88, 56
2, 450156, Note_off_c, 1, 88, 0
2, 450240, Note_on_c, 1, 77, 58
2, 450480, Note_off_c, 1, 77, 0
2, 450480, Note_on_c, 1, 83, 52
2, 450636, Note_off_c, 1, 83, 0
2, 450720, Note_on_c, 1, 81, 55
2, 451200, Note_off_c, 1, 81, 0
2, 451200, Note_on_c, 1, 79, 47
2, 451320, Note_off_c, 1, 79, 0
2, 451320, Note_on_c, 1, 77, 45
2, 451440, Note_off_c, 1, 77, 0
2, 451440, Note_on_c, 1, 76, 44
2, 451560, Note_off_c, 1, 76, 0
2, 451560, Note_on_c, 1, 77, 42
2, 451680, Note_off_c, 1, 77, 0
2, 451680, Note_on_c, 1, 76, 40
2, 451872, Note_off_c, 1, 76, 0
2, 452160, Note_on_c, 1, 81, 48
2, 452520, Note_off_c, 1, 81, 0
2, 452640, Note_on_c, 1, 81, 51
2, 453000, Note_off_c, 1, 81, 0
2, 453000, Note_on_c, 1, 82, 49
2, 453040, Note_off_c, 1, 82, 0
2, 453040, Note_on_c, 1, 81, 49
2, 453080, Note_off_c, 1, 81, 0
2, 453080, Note_on_c, 1, 80, 49
2, 453120, Note_off_c, 1, 80, 0
2, 453120, Note_on_c, 1, 81, 48
2, 453360, Note_off_c, 1, 81, 0
2, 453360, Note_on_c, 1, 86, 52
2, 453600, Note_off_c, 1, 86, 0
2, 453600, Note_on_c, 1, 86, 57
2, 453960, Note_off_c, 1, 86, 0
2, 453960, Note_on_c, 1, 77, 51
2, 454056, Note_off_c, 1, 77, 0
2, 454080, Note_on_c, 1, 77, 49
2, 454440, Note_off_c, 1, 77, 0
2, 454440, Note_on_c, 1, 79, 48
2, 454480, Note_off_c, 1, 79, 0
2, 454480, Note_on_c, 1, 77, 48
2, 454520, Note_off_c, 1, 77, 0
2, 454520, Note_on_c, 1, 76, 49
2, 454560, Note_off_c, 1, 76, 0
2, 454560, Note_on_c, 1, 77, 49
2, 454800, Note_off_c, 1, 77, 0
2, 454800, Note_on_c, 1, 81, 50
2, 455280, Note_off_c, 1, 81, 0
2, 455280, Note_on_c, 1, 74, 53
2, 455760, Note_off_c, 1, 74, 0
2, 455760, Note_on_c, 1, 77, 57
2, 456240, Note_off_c, 1, 77, 0
2, 456240, Note_on_c, 1, 76, 48
2, 456480, Note_off_c, 1, 76, 0
2, 456480, Note_on_c, 1, 74, 45
2, 456576, Note_off_c, 1, 74, 0
2, 456600, Note_on_c, 1, 76, 44
2, 456660, Note_off_c, 1, 76, 0
2, 456660, Note_on_c, 1, 74, 44
2, 456720, Note_off_c, 1, 74, 0
2, 456720, Note_on_c, 1, 73, 44
2, 456798, Note_off_c, 1, 73, 0
2, 456840, Note_on_c, 1, 74, 45
2, 456918, Note_off_c, 1, 74, 0
2, 456960, Note_on_c, 1, 76, 46
2, 457038, Note_off_c, 1, 76, 0
2, 457080, Note_on_c, 1, 77, 46
2, 457158, Note_off_c, 1, 77, 0
2, 457200, Note_on_c, 1, 79, 47
2, 457278, Note_off_c, 1, 79, 0
2, 457320, Note_on_c, 1, 81, 48
2, 457398, Note_off_c, 1, 81, 0
2, 457440, Note_on_c, 1, 83, 49
2, 457518, Note_off_c, 1, 83, 0
2, 457560, Note_on_c, 1, 85, 50
2, 457638, Note_off_c, 1, 85, 0
2, 457680, Note_on_c, 1, 86, 50
2, 457758, Note_off_c, 1, 86, 0
2, 457800, Note_on_c, 1, 88, 51
2, 457878, Note_off_c, 1, 88, 0
2, 457920, Note_on_c, 1, 89, 57
2, 458076, Note_off_c, 1, 89, 0
2, 458160, Note_on_c, 1, 85, 52
2, 458400, Note_off_c, 1, 85, 0
2, 458400, Note_on_c, 1, 86, 54
2, 458556, Note_off_c, 1, 86, 0
2, 458640, Note_on_c, 1, 80, 48
2, 458880, Note_off_c, 1, 80, 0
2, 458880, Note_on_c, 1, 81, 50
2, 459036, Note_off_c, 1, 81, 0
2, 459120, Note_on_c, 1, 77, 43
2, 459360, Note_off_c, 1, 77, 0
2, 459360, Note_on_c, 1, 75, 77
2, 459480, Note_off_c, 1, 75, 0
2, 459480, Note_on_c, 1, 77, 75
2, 459520, Note_off_c, 1, 77, 0
2, 459520, Note_on_c, 1, 75, 74
2, 459560, Note_off_c, 1, 75, 0
2, 459560, Note_on_c, 1, 74, 74
2, 459600, Note_off_c, 1, 74, 0
2, 459600, Note_on_c, 1, 75, 73
2, 459720, Note_off_c, 1, 75, 0
2, 459720, Note_on_c, 1, 77, 71
2, 459840, Note_off_c, 1, 77, 0
2, 459840, Note_on_c, 1, 79, 70
2, 459960, Note_off_c, 1, 79, 0
2, 459960, Note_on_c, 1, 81, 68
2, 460000, Note_off_c, 1, 81, 0
2, 460000, Note_on_c, 1, 79, 67
2, 460040, Note_off_c, 1, 79, 0
2, 460040, Note_on_c, 1, 78, 66
2, 460080, Note_off_c, 1, 78, 0
2, 460080, Note_on_c, 1, 79, 65
2, 460200, Note_off_c, 1, 79, 0
2, 460200, Note_on_c, 1, 81, 62
2, 460320, Note_off_c, 1, 81, 0
2, 460320, Note_on_c, 1, 82, 59
2, 460512, Note_off_c, 1, 82, 0
2, 460800, Note_on_c, 1, 74, 43
2, 461040, Note_off_c, 1, 74, 0
2, 461040, Note_on_c, 1, 76, 46
2, 461100, Note_off_c, 1, 76, 0
2, 461100, Note_on_c, 1, 74, 47
2, 461160, Note_off_c, 1, 74, 0
2, 461160, Note_on_c, 1, 73, 48
2, 461220, Note_off_c, 1, 73, 0
2, 461220, Note_on_c, 1, 74, 49
2, 461280, Note_off_c, 1, 74, 0
2, 461280, Note_on_c, 1, 77, 52
2, 462000, Note_off_c, 1, 77, 0
2, 462000, Note_on_c, 1, 76, 47
2, 462240, Note_off_c, 1, 76, 0
2, 462240, Note_on_c, 1, 74, 45
2, 462600, Note_off_c, 1, 74, 0
2, 463680, Control_c, 1, 64, 0
2, 463680, Note_on_c, 1, 76, 50
2, 464040, Note_off_c, 1, 76, 0
2, 464400, Note_on_c, 1, 76, 50
2, 464592, Note_off_c, 1, 76, 0
2, 464640, Note_on_c, 1, 76, 50
2, 464832, Note_off_c, 1, 76, 0
2, 464880, Note_on_c, 1, 76, 50
2, 465072, Note_off_c, 1, 76, 0
2, 465120, Note_on_c, 1, 77, 50
2, 465160, Note_off_c, 1, 77, 0
2, 465160, Note_on_c, 1, 76, 50
2, 465200, Note_off_c, 1, 76, 0
2, 465200, Note_on_c, 1, 75, 50
2, 465240, Note_off_c, 1, 75, 0
2, 465240, Note_on_c, 1, 76, 51
2, 465480, Note_off_c, 1, 76, 0
2, 465480, Note_on_c, 1, 81, 54
2, 465600, Note_off_c, 1, 81, 0
2, 465600, Note_on_c, 1, 81, 57
2, 466320, Note_off_c, 1, 81, 0
2, 466320, Note_on_c, 1, 76, 51
2, 466560, Note_off_c, 1, 76, 0
2, 466560, Note_on_c, 1, 79, 51
2, 466800, Note_off_c, 1, 79, 0
2, 466800, Note_on_c, 1, 77, 46
2, 466992, Note_off_c, 1, 77, 0
2, 467280, Note_on_c, 1, 77, 48
2, 467472, Note_off_c, 1, 77, 0
2, 467520, Note_on_c, 1, 77, 50
2, 467712, Note_off_c, 1, 77, 0
2, 467760, Note_on_c, 1, 77, 52
2, 467952, Note_off_c, 1, 77, 0
2, 468000, Note_on_c, 1, 79, 54
2, 468040, Note_off_c, 1, 79, 0
2, 468040, Note_on_c, 1, 77, 54
2, 468080, Note_off_c, 1, 77, 0
2, 468080, Note_on_c, 1, 76, 55
2, 468120, Note_off_c, 1, 76, 0
2, 468120, Note_on_c, 1, 77, 55
2, 468360, Note_off_c, 1, 77, 0
2, 468360, Note_on_c, 1, 79, 57
2, 468480, Note_off_c, 1, 79, 0
2, 468480, Note_on_c, 1, 81, 58
2, 469200, Note_off_c, 1, 81, 0
2, 469200, Note_on_c, 1, 86, 61
2, 469440, Note_off_c, 1, 86, 0
2, 469440, Note_on_c, 1, 85, 65
2, 469680, Note_off_c, 1, 85, 0
2, 469680, Note_on_c, 1, 82, 60
2, 469920, Note_off_c, 1, 82, 0
2, 469920, Note_on_c, 1, 81, 59
2, 470016, Note_off_c, 1, 81, 0
2, 470040, Note_on_c, 1, 89, 58
2, 470160, Note_off_c, 1, 89, 0
2, 470160, Note_on_c, 1, 88, 57
2, 470280, Note_off_c, 1, 88, 0
2, 470280, Note_on_c, 1, 86, 57
2, 470400, Note_off_c, 1, 86, 0
2, 470400, Note_on_c, 1, 85, 56
2, 470520, Note_off_c, 1, 85, 0
2, 470520, Note_on_c, 1, 86, 55
2, 470640, Note_off_c, 1, 86, 0
2, 470640, Note_on_c, 1, 88, 55
2, 470760, Note_off_c, 1, 88, 0
2, 470760, Note_on_c, 1, 86, 54
2, 470880, Note_off_c, 1, 86, 0
2, 470880, Note_on_c, 1, 85, 57
2, 471120, Note_off_c, 1, 85, 0
2, 471120, Note_on_c, 1, 82, 51
2, 471360, Note_off_c, 1, 82, 0
2, 471360, Note_on_c, 1, 81, 51
2, 471480, Note_off_c, 1, 81, 0
2, 471480, Note_on_c, 1, 82, 53
2, 471600, Note_off_c, 1, 82, 0
2, 471600, Note_on_c, 1, 83, 55
2, 471720, Note_off_c, 1, 83, 0
2, 471720, Note_on_c, 1, 84, 56
2, 471840, Note_off_c, 1, 84, 0
2, 471840, Note_on_c, 1, 85, 58
2, 471960, Note_off_c, 1, 85, 0
2, 471960, Note_on_c, 1, 86, 60
2, 472080, Note_off_c, 1, 86, 0
2, 472080, Note_on_c, 1, 88, 62
2, 472200, Note_off_c, 1, 88, 0
2, 472200, Note_on_c, 1, 89, 64
2, 472296, Note_off_c, 1, 89, 0
2, 472320, Note_on_c, 1, 89, 66
2, 472476, Note_off_c, 1, 89, 0
2, 472560, Note_on_c, 1, 80, 65
2, 472716, Note_off_c, 1, 80, 0
2, 472800, Note_on_c, 1, 79, 62
2, 473040, Note_off_c, 1, 79, 0
2, 473040, Note_on_c, 1, 88, 56
2, 473196, Note_off_c, 1, 88, 0
2, 473280, Note_on_c, 1, 77, 58
2, 473520, Note_off_c, 1, 77, 0
2, 473520, Note_on_c, 1, 83, 52
2, 473676, Note_off_c, 1, 83, 0
2, 473760, Note_on_c, 1, 81, 55
2, 474240, Note_off_c, 1, 81, 0
2, 474240, Note_on_c, 1, 79, 47
2, 474360, Note_off_c, 1, 79, 0
2, 474360, Note_on_c, 1, 77, 45
2, 474480, Note_off_c, 1, 77, 0
2, 474480, Note_on_c, 1, 76, 44
2, 474600, Note_off_c, 1, 76, 0
2, 474600, Note_on_c, 1, 77, 42
2, 474720, Note_off_c, 1, 77, 0
2, 474720, Note_on_c, 1, 76, 40
2, 474912, Note_off_c, 1, 76, 0
2, 475200, Note_on_c, 1, 81, 48
2, 475560, Note_off_c, 1, 81, 0
2, 475680, Note_on_c, 1, 81, 51
2, 476040, Note_off_c, 1, 81, 0
2, 476040, Note_on_c, 1, 82, 49
2, 476080, Note_off_c, 1, 82, 0
2, 476080, Note_on_c, 1, 81, 49
2, 476120, Note_off_c, 1, 81, 0
2, 476120, Note_on_c, 1, 80, 49
2, 476160, Note_off_c, 1, 80, 0
2, 476160, Note_on_c, 1, 81, 48
2, 476400, Note_off_c, 1, 81, 0
2, 476400, Note_on_c, 1, 86, 52
2, 476640, Note_off_c, 1, 86, 0
2, 476640, Note_on_c, 1, 86, 57
2, 477000, Note_off_c, 1, 86, 0
2, 477000, Note_on_c, 1, 77, 51
2, 477096, Note_off_c, 1, 77, 0
2, 477120, Note_on_c, 1, 77, 49
2, 477480, Note_off_c, 1, 77, 0
2, 477480, Note_on_c, 1, 79, 48
2, 477520, Note_off_c, 1, 79, 0
2, 477520, Note_on_c, 1, 77, 48
2, 477560, Note_off_c, 1, 77, 0
2, 477560, Note_on_c, 1, 76, 49
2, 477600, Note_off_c, 1, 76, 0
2, 477600, Note_on_c, 1, 77, 49
2, 477840, Note_off_c, 1, 77, 0
2, 477840, Note_on_c, 1, 81, 50
2, 478320, Note_off_c, 1, 81, 0
2, 478320, Note_on_c, 1, 74, 53
2, 478800, Note_off_c, 1, 74, 0
2, 478800, Note_on_c, 1, 77, 57
2, 479280, Note_off_c, 1, 77, 0
2, 479280, Note_on_c, 1, 76, 48
2, 479520, Note_off_c, 1, 76, 0
2, 479520, Note_on_c, 1, 74, 45
2, 479616, Note_off_c, 1, 74, 0
2, 479640, Note_on_c, 1, 76, 44
2, 479700, Note_off_c, 1, 76, 0
2, 479700, Note_on_c, 1, 74, 44
2, 479760, Note_off_c, 1, 74, 0
2, 479760, Note_on_c, 1, 73, 44
2, 479838, Note_off_c, 1, 73, 0
2, 479880, Note_on_c, 1, 74, 45
2, 479958, Note_off_c, 1, 74, 0
2, 480000, Note_on_c, 1, 76, 46
2, 480078, Note_off_c, 1, 76, 0
2, 480120, Note_on_c, 1, 77, 46
2, 480198, Note_off_c, 1, 77, 0
2, 480240, Note_on_c, 1, 79, 47
2, 480318, Note_off_c, 1, 79, 0
2, 480360, Note_on_c, 1, 81, 48
2, 480438, Note_off_c, 1, 81, 0
2, 480480, Note_on_c, 1, 83, 49
2, 480558, Note_off_c, 1, 83, 0
2, 480600, Note_on_c, 1, 85, 50
2, 480678, Note_off_c, 1, 85, 0
2, 480720, Note_on_c, 1, 86, 50
2, 480798, Note_off_c, 1, 86, 0
2, 480840, Note_on_c, 1, 88, 51
2, 480918, Note_off_c, 1, 88, 0
2, 480960, Note_on_c, 1, 89, 57
2, 481116, Note_off_c, 1, 89, 0
2, 481200, Note_on_c, 1, 85, 52
2, 481440, Note_off_c, 1, 85, 0
2, 481440, Note_on_c, 1, 86, 54
2, 481596, Note_off_c, 1, 86, 0
2, 481680, Note_on_c, 1, 80, 48
2, 481920, Note_off_c, 1, 80, 0
2, 481920, Note_on_c, 1, 81, 50
2, 482076, Note_off_c, 1, 81, 0
2, 482160, Note_on_c, 1, 77, 43
2, 482400, Note_off_c, 1, 77, 0
2, 482400, Note_on_c, 1, 75, 77
2, 482520, Note_off_c, 1, 75, 0
2, 482520, Note_on_c, 1, 77, 75
2, 482560, Note_off_c, 1, 77, 0
2, 482560, Note_on_c, 1, 75, 74
2, 482600, Note_off_c, 1, 75, 0
2, 482600, Note_on_c, 1, 74, 74
2, 482640, Note_off_c, 1, 74, 0
2, 482640, Note_on_c, 1, 75, 73
2, 482760, Note_off_c, 1, 75, 0
2, 482760, Note_on_c, 1, 77, 71
2, 482880, Note_off_c, 1, 77, 0
2, 482880, Note_on_c, 1, 79, 70
2, 483000, Note_off_c, 1, 79, 0
2, 483000, Note_on_c, 1, 81, 68
2, 483040, Note_off_c, 1, 81, 0
2, 483040, Note_on_c, 1, 79, 67
2, 483080, Note_off_c, 1, 79, 0
2, 483080, Note_on_c, 1, 78, 66
2, 483120, Note_off_c, 1, 78, 0
2, 483120, Note_on_c, 1, 79, 65
2, 483240, Note_off_c, 1, 79, 0
2, 483240, Note_on_c, 1, 81, 62
2, 483360, Note_off_c, 1, 81, 0
2, 483360, Note_on_c, 1, 82, 59
2, 483552, Note_off_c, 1, 82, 0
2, 483840, Note_on_c, 1, 74, 43
2, 484080, Note_off_c, 1, 74, 0
2, 484080, Note_on_c, 1, 76, 46
2, 484140, Note_off_c, 1, 76, 0
2, 484140, Note_on_c, 1, 74, 47
2, 484200, Note_off_c, 1, 74, 0
2, 484200, Note_on_c, 1, 73, 48
2, 484260, Note_off_c, 1, 73, 0
2, 484260, Note_on_c, 1, 74, 49
2, 484320, Note_off_c, 1, 74, 0
2, 484320, Note_on_c, 1, 77, 52
2, 485040, Note_off_c, 1, 77, 0
2, 485040, Note_on_c, 1, 76, 47
2, 485280, Note_off_c, 1, 76, 0
2, 485280, Note_on_c, 1, 74, 45
2, 485640, Note_off_c, 1, 74, 0
2, 486720, Note_on_c, 1, 69, 55
2, 486816, Note_off_c, 1, 69, 0
2, 486840, Note_on_c, 1, 81, 55
2, 486936, Note_off_c, 1, 81, 0
2, 486960, Note_on_c, 1, 68, 55
2, 487056, Note_off_c, 1, 68, 0
2, 487080, Note_on_c, 1, 80, 55
2, 487176, Note_off_c, 1, 80, 0
2, 487200, Note_on_c, 1, 69, 55
2, 487296, Note_off_c, 1, 69, 0
2, 487320, Note_on_c, 1, 81, 54
2, 487416, Note_off_c, 1, 81, 0
2, 487440, Note_on_c, 1, 68, 54
2, 487536, Note_off_c, 1, 68, 0
2, 487560, Note_on_c, 1, 80, 54
2, 487656, Note_off_c, 1, 80, 0
2, 487680, Note_on_c, 1, 69, 54
2, 487776, Note_off_c, 1, 69, 0
2, 487800, Note_on_c, 1, 81, 53
2, 487896, Note_off_c, 1, 81, 0
2, 487920, Note_on_c, 1, 74, 53
2, 488016, Note_off_c, 1, 74, 0
2, 488040, Note_on_c, 1, 86, 53
2, 488136, Note_off_c, 1, 86, 0
2, 488160, Note_on_c, 1, 66, 53
2, 488256, Note_off_c, 1, 66, 0
2, 488280, Note_on_c, 1, 78, 53
2, 488376, Note_off_c, 1, 78, 0
2, 488400, Note_on_c, 1, 65, 52
2, 488496, Note_off_c, 1, 65, 0
2, 488520, Note_on_c, 1, 77, 52
2, 488616, Note_off_c, 1, 77, 0
2, 488640, Note_on_c, 1, 66, 52
2, 488736, Note_off_c, 1, 66, 0
2, 488760, Note_on_c, 1, 78, 52
2, 488856, Note_off_c, 1, 78, 0
2, 488880, Note_on_c, 1, 65, 52
2, 488976, Note_off_c, 1, 65, 0
2, 489000, Note_on_c, 1, 77, 51
2, 489096, Note_off_c, 1, 77, 0
2, 489120, Note_on_c, 1, 66, 51
2, 489216, Note_off_c, 1, 66, 0
2, 489240, Note_on_c, 1, 78, 51
2, 489336, Note_off_c, 1, 78, 0
2, 489360, Note_on_c, 1, 69, 51
2, 489456, Note_off_c, 1, 69, 0
2, 489480, Note_on_c, 1, 81, 50
2, 489576, Note_off_c, 1, 81, 0
2, 489600, Note_on_c, 1, 62, 50
2, 489696, Note_off_c, 1, 62, 0
2, 489720, Note_on_c, 1, 74, 50
2, 489816, Note_off_c, 1, 74, 0
2, 489840, Note_on_c, 1, 66, 50
2, 489936, Note_off_c, 1, 66, 0
2, 489960, Note_on_c, 1, 78, 50
2, 490056, Note_off_c, 1, 78, 0
2, 490080, Note_on_c, 1, 64, 49
2, 490176, Note_off_c, 1, 64, 0
2, 490200, Note_on_c, 1, 76, 49
2, 490296, Note_off_c, 1, 76, 0
2, 490320, Note_on_c, 1, 67, 49
2, 490416, Note_off_c, 1, 67, 0
2, 490440, Note_on_c, 1, 79, 49
2, 490536, Note_off_c, 1, 79, 0
2, 490560, Note_on_c, 1, 61, 49
2, 490656, Note_off_c, 1, 61, 0
2, 490680, Note_on_c, 1, 73, 48
2, 490776, Note_off_c, 1, 73, 0
2, 490800, Note_on_c, 1, 64, 48
2, 490896, Note_off_c, 1, 64, 0
2, 490920, Note_on_c, 1, 76, 48
2, 491016, Note_off_c, 1, 76, 0
2, 491040, Note_on_c, 1, 62, 46
2, 491136, Note_off_c, 1, 62, 0
2, 491160, Note_on_c, 1, 74, 48
2, 491256, Note_off_c, 1, 74, 0
2, 491280, Note_on_c, 1, 61, 49
2, 491376, Note_off_c, 1, 61, 0
2, 491400, Note_on_c, 1, 73, 51
2, 491496, Note_off_c, 1, 73, 0
2, 491520, Note_on_c, 1, 62, 52
2, 491616, Note_off_c, 1, 62, 0
2, 491640, Note_on_c, 1, 74, 54
2, 491736, Note_off_c, 1, 74, 0
2, 491760, Note_on_c, 1, 64, 55
2, 491856, Note_off_c, 1, 64, 0
2, 491880, Note_on_c, 1, 76, 57
2, 491976, Note_off_c, 1, 76, 0
2, 492000, Note_on_c, 1, 66, 58
2, 492096, Note_off_c, 1, 66, 0
2, 492120, Note_on_c, 1, 78, 60
2, 492216, Note_off_c, 1, 78, 0
2, 492240, Note_on_c, 1, 67, 61
2, 492336, Note_off_c, 1, 67, 0
2, 492360, Note_on_c, 1, 79, 63
2, 492456, Note_off_c, 1, 79, 0
2, 492480, Note_on_c, 1, 81, 71
2, 492480, Note_on_c, 1, 69, 71
2, 493440, Note_off_c, 1, 69, 0
2, 493440, Note_off_c, 1, 81, 0
2, 493440, Note_on_c, 1, 86, 66
2, 493440, Note_on_c, 1, 74, 66
2, 493632, Note_off_c, 1, 74, 0
2, 493632, Note_off_c, 1, 86, 0
2, 493920, Note_on_c, 1, 66, 69
2, 493920, Note_on_c, 1, 78, 69
2, 494880, Note_off_c, 1, 78, 0
2, 494880, Note_off_c, 1, 66, 0
2, 494880, Note_on_c, 1, 81, 62
2, 494880, Note_on_c, 1, 69, 62
2, 495072, Note_off_c, 1, 69, 0
2, 495072, Note_off_c, 1, 81, 0
2, 495480, Note_on_c, 1, 67, 66
2, 495600, Note_off_c, 1, 67, 0
2, 495600, Note_on_c, 1, 74, 66
2, 495720, Note_off_c, 1, 74, 0
2, 495720, Note_on_c, 1, 79, 66
2, 495816, Note_off_c, 1, 79, 0
2, 495960, Note_on_c, 1, 69, 65
2, 496080, Note_off_c, 1, 69, 0
2, 496080, Note_on_c, 1, 74, 65
2, 496200, Note_off_c, 1, 74, 0
2, 496200, Note_on_c, 1, 78, 65
2, 496296, Note_off_c, 1, 78, 0
2, 496440, Note_on_c, 1, 67, 64
2, 496560, Note_off_c, 1, 67, 0
2, 496560, Note_on_c, 1, 73, 64
2, 496680, Note_off_c, 1, 73, 0
2, 496680, Note_on_c, 1, 76, 64
2, 496800, Note_off_c, 1, 76, 0
2, 496800, Note_on_c, 1, 74, 64
2, 496800, Note_on_c, 1, 66, 64
2, 497160, Note_off_c, 1, 66, 0
2, 497160, Note_off_c, 1, 74, 0
2, 498240, Note_on_c, 1, 69, 55
2, 498336, Note_off_c, 1, 69, 0
2, 498360, Note_on_c, 1, 81, 55
2, 498456, Note_off_c, 1, 81, 0
2, 498480, Note_on_c, 1, 68, 55
2, 498576, Note_off_c, 1, 68, 0
2, 498600, Note_on_c, 1, 80, 55
2, 498696, Note_off_c, 1, 80, 0
2, 498720, Note_on_c, 1, 69, 55
2, 498816, Note_off_c, 1, 69, 0
2, 498840, Note_on_c, 1, 81, 54
2, 498936, Note_off_c, 1, 81, 0
2, 498960, Note_on_c, 1, 68, 54
2, 499056, Note_off_c, 1, 68, 0
2, 499080, Note_on_c, 1, 80, 54
2, 499176, Note_off_c, 1, 80, 0
2, 499200, Note_on_c, 1, 69, 54
2, 499296, Note_off_c, 1, 69, 0
2, 499320, Note_on_c, 1, 81, 53
2, 499416, Note_off_c, 1, 81, 0
2, 499440, Note_on_c, 1, 74, 53
2, 499536, Note_off_c, 1, 74, 0
2, 499560, Note_on_c, 1, 86, 53
2, 499656, Note_off_c, 1, 86, 0
2, 499680, Note_on_c, 1, 66, 53
2, 499776, Note_off_c, 1, 66, 0
2, 499800, Note_on_c, 1, 78, 53
2, 499896, Note_off_c, 1, 78, 0
2, 499920, Note_on_c, 1, 65, 52
2, 500016, Note_off_c, 1, 65, 0
2, 500040, Note_on_c, 1, 77, 52
2, 500136, Note_off_c, 1, 77, 0
2, 500160, Note_on_c, 1, 66, 52
2, 500256, Note_off_c, 1, 66, 0
2, 500280, Note_on_c, 1, 78, 52
2, 500376, Note_off_c, 1, 78, 0
2, 500400, Note_on_c, 1, 65, 52
2, 500496, Note_off_c, 1, 65, 0
2, 500520, Note_on_c, 1, 77, 51
2, 500616, Note_off_c, 1, 77, 0
2, 500640, Note_on_c, 1, 66, 51
2, 500736, Note_off_c, 1, 66, 0
2, 500760, Note_on_c, 1, 78, 51
2, 500856, Note_off_c, 1, 78, 0
2, 500880, Note_on_c, 1, 69, 51
2, 500976, Note_off_c, 1, 69, 0
2, 501000, Note_on_c, 1, 81, 50
2, 501096, Note_off_c, 1, 81, 0
2, 501120, Note_on_c, 1, 62, 50
2, 501216, Note_off_c, 1, 62, 0
2, 501240, Note_on_c, 1, 74, 50
2, 501336, Note_off_c, 1, 74, 0
2, 501360, Note_on_c, 1, 66, 50
2, 501456, Note_off_c, 1, 66, 0
2, 501480, Note_on_c, 1, 78, 50
2, 501576, Note_off_c, 1, 78, 0
2, 501600, Note_on_c, 1, 64, 49
2, 501696, Note_off_c, 1, 64, 0
2, 501720, Note_on_c, 1, 76, 49
2, 501816, Note_off_c, 1, 76, 0
2, 501840, Note_on_c, 1, 67, 49
2, 501936, Note_off_c, 1, 67, 0
2, 501960, Note_on_c, 1, 79, 49
2, 502056, Note_off_c, 1, 79, 0
2, 502080, Note_on_c, 1, 61, 49
2, 502176, Note_off_c, 1, 61, 0
2, 502200, Note_on_c, 1, 73, 48
2, 502296, Note_off_c, 1, 73, 0
2, 502320, Note_on_c, 1, 64, 48
2, 502416, Note_off_c, 1, 64, 0
2, 502440, Note_on_c, 1, 76, 48
2, 502536, Note_off_c, 1, 76, 0
2, 502560, Note_on_c, 1, 62, 46
2, 502656, Note_off_c, 1, 62, 0
2, 502680, Note_on_c, 1, 74, 48
2, 502776, Note_off_c, 1, 74, 0
2, 502800, Note_on_c, 1, 61, 49
2, 502896, Note_off_c, 1, 61, 0
2, 502920, Note_on_c, 1, 73, 51
2, 503016, Note_off_c, 1, 73, 0
2, 503040, Note_on_c, 1, 62, 52
2, 503136, Note_off_c, 1, 62, 0
2, 503160, Note_on_c, 1, 74, 54
2, 503256, Note_off_c, 1, 74, 0
2, 503280, Note_on_c, 1, 64, 55
2, 503376, Note_off_c, 1, 64, 0
2, 503400, Note_on_c, 1, 76, 57
2, 503496, Note_off_c, 1, 76, 0
2, 503520, Note_on_c, 1, 66, 58
2, 503616, Note_off_c, 1, 66, 0
2, 503640, Note_on_c, 1, 78, 60
2, 503736, Note_off_c, 1, 78, 0
2, 503760, Note_on_c, 1, 67, 61
2, 503856, Note_off_c, 1, 67, 0
2, 503880, Note_on_c, 1, 79, 63
2, 503976, Note_off_c, 1, 79, 0
2, 504000, Note_on_c, 1, 69, 71
2, 504000, Note_on_c, 1, 81, 71
2, 504960, Note_off_c, 1, 81, 0
2, 504960, Note_off_c, 1, 69, 0
2, 504960, Note_on_c, 1, 74, 66
2, 504960, Note_on_c, 1, 86, 66
2, 505152, Note_off_c, 1, 86, 0
2, 505152, Note_off_c, 1, 74, 0
2, 505440, Note_on_c, 1, 78, 69
2, 505440, Note_on_c, 1, 66, 69
2, 506400, Note_off_c, 1, 66, 0
2, 506400, Note_off_c, 1, 78, 0
2, 506400, Note_on_c, 1, 69, 62
2, 506400, Note_on_c, 1, 81, 62
2, 506592, Note_off_c, 1, 81, 0
2, 506592, Note_off_c, 1, 69, 0
2, 507000, Note_on_c, 1, 67, 66
2, 507120, Note_off_c, 1, 67, 0
2, 507120, Note_on_c, 1, 74, 66
2, 507240, Note_off_c, 1, 74, 0
2, 507240, Note_on_c, 1, 79, 66
2, 507336, Note_off_c, 1, 79, 0
2, 507480, Note_on_c, 1, 69, 65
2, 507600, Note_off_c, 1, 69, 0
2, 507600, Note_on_c, 1, 74, 65
2, 507720, Note_off_c, 1, 74, 0
2, 507720, Note_on_c, 1, 78, 65
2, 507816, Note_off_c, 1, 78, 0
2, 507960, Note_on_c, 1, 67, 64
2, 508080, Note_off_c, 1, 67, 0
2, 508080, Note_on_c, 1, 73, 64
2, 508200, Note_off_c, 1, 73, 0
2, 508200, Note_on_c, 1, 76, 64
2, 508320, Note_off_c, 1, 76, 0
2, 508320, Note_on_c, 1, 66, 64
2, 508320, Note_on_c, 1, 74, 64
2, 508680, Note_off_c, 1, 74, 0
2, 508680, Note_off_c, 1, 66, 0
2, 509760, Note_on_c, 1, 64, 57
2, 509856, Note_off_c, 1, 64, 0
2, 509880, Note_on_c, 1, 76, 57
2, 509976, Note_off_c, 1, 76, 0
2, 510000, Note_on_c, 1, 63, 57
2, 510096, Note_off_c, 1, 63, 0
2, 510120, Note_on_c, 1, 75, 57
2, 510216, Note_off_c, 1, 75, 0
2, 510240, Note_on_c, 1, 64, 56
2, 510336, Note_off_c, 1, 64, 0
2, 510360, Note_on_c, 1, 76, 56
2, 510456, Note_off_c, 1, 76, 0
2, 510480, Note_on_c, 1, 63, 56
2, 510576, Note_off_c, 1, 63, 0
2, 510600, Note_on_c, 1, 75, 56
2, 510696, Note_off_c, 1, 75, 0
2, 510720, Note_on_c, 1, 64, 56
2, 510816, Note_off_c, 1, 64, 0
2, 510840, Note_on_c, 1, 76, 55
2, 510936, Note_off_c, 1, 76, 0
2, 510960, Note_on_c, 1, 66, 55
2, 511056, Note_off_c, 1, 66, 0
2, 511080, Note_on_c, 1, 78, 55
2, 511176, Note_off_c, 1, 78, 0
2, 511200, Note_on_c, 1, 67, 55
2, 511296, Note_off_c, 1, 67, 0
2, 511320, Note_on_c, 1, 79, 54
2, 511416, Note_off_c, 1, 79, 0
2, 511440, Note_on_c, 1, 66, 54
2, 511536, Note_off_c, 1, 66, 0
2, 511560, Note_on_c, 1, 78, 54
2, 511656, Note_off_c, 1, 78, 0
2, 511680, Note_on_c, 1, 67, 54
2, 511776, Note_off_c, 1, 67, 0
2, 511800, Note_on_c, 1, 79, 54
2, 511896, Note_off_c, 1, 79, 0
2, 511920, Note_on_c, 1, 66, 53
2, 512016, Note_off_c, 1, 66, 0
2, 512040, Note_on_c, 1, 78, 53
2, 512136, Note_off_c, 1, 78, 0
2, 512160, Note_on_c, 1, 67, 53
2, 512256, Note_off_c, 1, 67, 0
2, 512280, Note_on_c, 1, 79, 53
2, 512376, Note_off_c, 1, 79, 0
2, 512400, Note_on_c, 1, 64, 53
2, 512496, Note_off_c, 1, 64, 0
2, 512520, Note_on_c, 1, 76, 52
2, 512616, Note_off_c, 1, 76, 0
2, 512640, Note_on_c, 1, 66, 52
2, 512736, Note_off_c, 1, 66, 0
2, 512760, Note_on_c, 1, 78, 52
2, 512856, Note_off_c, 1, 78, 0
2, 512880, Note_on_c, 1, 65, 52
2, 512976, Note_off_c, 1, 65, 0
2, 513000, Note_on_c, 1, 77, 51
2, 513096, Note_off_c, 1, 77, 0
2, 513120, Note_on_c, 1, 66, 51
2, 513216, Note_off_c, 1, 66, 0
2, 513240, Note_on_c, 1, 78, 51
2, 513336, Note_off_c, 1, 78, 0
2, 513360, Note_on_c, 1, 65, 51
2, 513456, Note_off_c, 1, 65, 0
2, 513480, Note_on_c, 1, 77, 51
2, 513576, Note_off_c, 1, 77, 0
2, 513600, Note_on_c, 1, 66, 50
2, 513696, Note_off_c, 1, 66, 0
2, 513720, Note_on_c, 1, 78, 50
2, 513816, Note_off_c, 1, 78, 0
2, 513840, Note_on_c, 1, 67, 50
2, 513936, Note_off_c, 1, 67, 0
2, 513960, Note_on_c, 1, 79, 50
2, 514056, Note_off_c, 1, 79, 0
2, 514080, Note_on_c, 1, 69, 50
2, 514176, Note_off_c, 1, 69, 0
2, 514200, Note_on_c, 1, 81, 49
2, 514296, Note_off_c, 1, 81, 0
2, 514320, Note_on_c, 1, 68, 49
2, 514416, Note_off_c, 1, 68, 0
2, 514440, Note_on_c, 1, 80, 49
2, 514536, Note_off_c, 1, 80, 0
2, 514560, Note_on_c, 1, 69, 49
2, 514656, Note_off_c, 1, 69, 0
2, 514680, Note_on_c, 1, 81, 48
2, 514776, Note_off_c, 1, 81, 0
2, 514800, Note_on_c, 1, 68, 48
2, 514896, Note_off_c, 1, 68, 0
2, 514920, Note_on_c, 1, 80, 48
2, 515016, Note_off_c, 1, 80, 0
2, 515040, Note_on_c, 1, 69, 48
2, 515136, Note_off_c, 1, 69, 0
2, 515160, Note_on_c, 1, 81, 48
2, 515256, Note_off_c, 1, 81, 0
2, 515280, Note_on_c, 1, 74, 83
2, 515400, Note_off_c, 1, 74, 0
2, 515400, Note_on_c, 1, 86, 82
2, 515520, Note_off_c, 1, 86, 0
2, 515520, Note_on_c, 1, 73, 81
2, 515520, Note_on_c, 1, 85, 81
2, 516000, Note_off_c, 1, 85, 0
2, 516000, Note_off_c, 1, 73, 0
2, 516000, Note_on_c, 1, 71, 77
2, 516000, Note_on_c, 1, 83, 77
2, 516480, Note_off_c, 1, 83, 0
2, 516480, Note_off_c, 1, 71, 0
2, 516480, Note_on_c, 1, 81, 78
2, 516480, Note_on_c, 1, 69, 78
2, 516672, Note_off_c, 1, 69, 0
2, 516672, Note_off_c, 1, 81, 0
2, 516720, Note_on_c, 1, 74, 81
2, 516720, Note_on_c, 1, 86, 81
2, 516960, Note_off_c, 1, 86, 0
2, 516960, Note_off_c, 1, 74, 0
2, 516960, Note_on_c, 1, 85, 80
2, 516960, Note_on_c, 1, 73, 80
2, 517440, Note_off_c, 1, 73, 0
2, 517440, Note_off_c, 1, 85, 0
2, 517440, Note_on_c, 1, 71, 78
2, 517440, Note_on_c, 1, 83, 78
2, 517920, Note_off_c, 1, 83, 0
2, 517920, Note_off_c, 1, 71, 0
2, 517920, Note_on_c, 1, 69, 76
2, 517920, Note_on_c, 1, 81, 76
2, 518112, Note_off_c, 1, 81, 0
2, 518112, Note_off_c, 1, 69, 0
2, 518160, Note_on_c, 1, 81, 76
2, 518400, Note_off_c, 1, 81, 0
2, 518400, Note_on_c, 1, 79, 75
2, 518640, Note_off_c, 1, 79, 0
2, 518640, Note_on_c, 1, 78, 74
2, 518880, Note_off_c, 1, 78, 0
2, 518880, Note_on_c, 1, 76, 73
2, 519120, Note_off_c, 1, 76, 0
2, 519120, Note_on_c, 1, 74, 72
2, 519360, Note_off_c, 1, 74, 0
2, 519360, Note_on_c, 1, 73, 71
2, 519600, Note_off_c, 1, 73, 0
2, 519600, Note_on_c, 1, 74, 70
2, 519840, Note_off_c, 1, 74, 0
2, 519840, Note_on_c, 1, 76, 70
2, 520032, Note_off_c, 1, 76, 0
2, 520080, Note_on_c, 1, 61, 71
2, 520176, Note_off_c, 1, 61, 0
2, 520200, Note_on_c, 1, 73, 69
2, 520296, Note_off_c, 1, 73, 0
2, 520320, Note_on_c, 1, 62, 67
2, 520416, Note_off_c, 1, 62, 0
2, 520440, Note_on_c, 1, 74, 65
2, 520536, Note_off_c, 1, 74, 0
2, 520560, Note_on_c, 1, 64, 63
2, 520656, Note_off_c, 1, 64, 0
2, 520680, Note_on_c, 1, 76, 62
2, 520776, Note_off_c, 1, 76, 0
2, 520800, Note_on_c, 1, 66, 60
2, 520896, Note_off_c, 1, 66, 0
2, 520920, Note_on_c, 1, 78, 58
2, 521016, Note_off_c, 1, 78, 0
2, 521040, Note_on_c, 1, 67, 56
2, 521136, Note_off_c, 1, 67, 0
2, 521160, Note_on_c, 1, 79, 54
2, 521256, Note_off_c, 1, 79, 0
2, 521280, Note_on_c, 1, 69, 53
2, 521376, Note_off_c, 1, 69, 0
2, 521400, Note_on_c, 1, 81, 53
2, 521496, Note_off_c, 1, 81, 0
2, 521520, Note_on_c, 1, 68, 53
2, 521616, Note_off_c, 1, 68, 0
2, 521640, Note_on_c, 1, 80, 53
2, 521736, Note_off_c, 1, 80, 0
2, 521760, Note_on_c, 1, 69, 53
2, 521856, Note_off_c, 1, 69, 0
2, 521880, Note_on_c, 1, 81, 52
2, 521976, Note_off_c, 1, 81, 0
2, 522000, Note_on_c, 1, 68, 52
2, 522096, Note_off_c, 1, 68, 0
2, 522120, Note_on_c, 1, 80, 52
2, 522216, Note_off_c, 1, 80, 0
2, 522240, Note_on_c, 1, 69, 52
2, 522336, Note_off_c, 1, 69, 0
2, 522360, Note_on_c, 1, 81, 52
2, 522456, Note_off_c, 1, 81, 0
2, 522480, Note_on_c, 1, 74, 51
2, 522576, Note_off_c, 1, 74, 0
2, 522600, Note_on_c, 1, 86, 51
2, 522696, Note_off_c, 1, 86, 0
2, 522720, Note_on_c, 1, 66, 51
2, 522816, Note_off_c, 1, 66, 0
2, 522840, Note_on_c, 1, 78, 51
2, 522936, Note_off_c, 1, 78, 0
2, 522960, Note_on_c, 1, 65, 51
2, 523056, Note_off_c, 1, 65, 0
2, 523080, Note_on_c, 1, 77, 50
2, 523176, Note_off_c, 1, 77, 0
2, 523200, Note_on_c, 1, 66, 50
2, 523296, Note_off_c, 1, 66, 0
2, 523320, Note_on_c, 1, 78, 50
2, 523416, Note_off_c, 1, 78, 0
2, 523440, Note_on_c, 1, 65, 50
2, 523536, Note_off_c, 1, 65, 0
2, 523560, Note_on_c, 1, 77, 50
2, 523656, Note_off_c, 1, 77, 0
2, 523680, Note_on_c, 1, 66, 49
2, 523776, Note_off_c, 1, 66, 0
2, 523800, Note_on_c, 1, 78, 49
2, 523896, Note_off_c, 1, 78, 0
2, 523920, Note_on_c, 1, 69, 49
2, 524016, Note_off_c, 1, 69, 0
2, 524040, Note_on_c, 1, 81, 49
2, 524136, Note_off_c, 1, 81, 0
2, 524160, Note_on_c, 1, 62, 49
2, 524256, Note_off_c, 1, 62, 0
2, 524280, Note_on_c, 1, 74, 48
2, 524376, Note_off_c, 1, 74, 0
2, 524400, Note_on_c, 1, 66, 48
2, 524496, Note_off_c, 1, 66, 0
2, 524520, Note_on_c, 1, 78, 48
2, 524616, Note_off_c, 1, 78, 0
2, 524640, Note_on_c, 1, 64, 48
2, 524736, Note_off_c, 1, 64, 0
2, 524760, Note_on_c, 1, 76, 48
2, 524856, Note_off_c, 1, 76, 0
2, 524880, Note_on_c, 1, 67, 47
2, 524976, Note_off_c, 1, 67, 0
2, 525000, Note_on_c, 1, 79, 47
2, 525096, Note_off_c, 1, 79, 0
2, 525120, Note_on_c, 1, 61, 47
2, 525216, Note_off_c, 1, 61, 0
2, 525240, Note_on_c, 1, 73, 47
2, 525336, Note_off_c, 1, 73, 0
2, 525360, Note_on_c, 1, 64, 47
2, 525456, Note_off_c, 1, 64, 0
2, 525480, Note_on_c, 1, 76, 46
2, 525576, Note_off_c, 1, 76, 0
2, 525600, Note_on_c, 1, 62, 46
2, 525696, Note_off_c, 1, 62, 0
2, 525720, Note_on_c, 1, 74, 48
2, 525816, Note_off_c, 1, 74, 0
2, 525840, Note_on_c, 1, 61, 48
2, 525936, Note_off_c, 1, 61, 0
2, 525960, Note_on_c, 1, 73, 50
2, 526056, Note_off_c, 1, 73, 0
2, 526080, Note_on_c, 1, 62, 53
2, 526176, Note_off_c, 1, 62, 0
2, 526200, Note_on_c, 1, 74, 55
2, 526296, Note_off_c, 1, 74, 0
2, 526320, Note_on_c, 1, 64, 58
2, 526416, Note_off_c, 1, 64, 0
2, 526440, Note_on_c, 1, 76, 60
2, 526536, Note_off_c, 1, 76, 0
2, 526560, Note_on_c, 1, 66, 62
2, 526656, Note_off_c, 1, 66, 0
2, 526680, Note_on_c, 1, 78, 65
2, 526776, Note_off_c, 1, 78, 0
2, 526800, Note_on_c, 1, 67, 67
2, 526896, Note_off_c, 1, 67, 0
2, 526920, Note_on_c, 1, 79, 70
2, 527016, Note_off_c, 1, 79, 0
2, 527040, Note_on_c, 1, 69, 75
2, 527040, Note_on_c, 1, 81, 75
2, 528000, Note_off_c, 1, 81, 0
2, 528000, Note_off_c, 1, 69, 0
2, 528000, Note_on_c, 1, 74, 71
2, 528000, Note_on_c, 1, 86, 71
2, 528192, Note_off_c, 1, 86, 0
2, 528192, Note_off_c, 1, 74, 0
2, 528480, Note_on_c, 1, 78, 73
2, 528480, Note_on_c, 1, 66, 73
2, 529440, Note_off_c, 1, 66, 0
2, 529440, Note_off_c, 1, 78, 0
2, 529440, Note_on_c, 1, 69, 69
2, 529440, Note_on_c, 1, 81, 69
2, 529632, Note_off_c, 1, 81, 0
2, 529632, Note_off_c, 1, 69, 0
2, 530040, Note_on_c, 1, 67, 70
2, 530160, Note_off_c, 1, 67, 0
2, 530160, Note_on_c, 1, 74, 70
2, 530280, Note_off_c, 1, 74, 0
2, 530280, Note_on_c, 1, 79, 69
2, 530376, Note_off_c, 1, 79, 0
2, 530520, Note_on_c, 1, 69, 69
2, 530640, Note_off_c, 1, 69, 0
2, 530640, Note_on_c, 1, 74, 69
2, 530760, Note_off_c, 1, 74, 0
2, 530760, Note_on_c, 1, 78, 69
2, 530856, Note_off_c, 1, 78, 0
2, 531000, Note_on_c, 1, 67, 68
2, 531120, Note_off_c, 1, 67, 0
2, 531120, Note_on_c, 1, 73, 68
2, 531240, Note_off_c, 1, 73, 0
2, 531240, Note_on_c, 1, 76, 68
2, 531360, Note_off_c, 1, 76, 0
2, 531360, Note_on_c, 1, 66, 67
2, 531360, Note_on_c, 1, 74, 67
2, 531720, Note_off_c, 1, 74, 0
2, 531720, Note_off_c, 1, 66, 0
2, 532800, Note_on_c, 1, 64, 57
2, 532896, Note_off_c, 1, 64, 0
2, 532920, Note_on_c, 1, 76, 57
2, 533016, Note_off_c, 1, 76, 0
2, 533040, Note_on_c, 1, 63, 57
2, 533136, Note_off_c, 1, 63, 0
2, 533160, Note_on_c, 1, 75, 57
2, 533256, Note_off_c, 1, 75, 0
2, 533280, Note_on_c, 1, 64, 56
2, 533376, Note_off_c, 1, 64, 0
2, 533400, Note_on_c, 1, 76, 56
2, 533496, Note_off_c, 1, 76, 0
2, 533520, Note_on_c, 1, 63, 56
2, 533616, Note_off_c, 1, 63, 0
2, 533640, Note_on_c, 1, 75, 56
2, 533736, Note_off_c, 1, 75, 0
2, 533760, Note_on_c, 1, 64, 56
2, 533856, Note_off_c, 1, 64, 0
2, 533880, Note_on_c, 1, 76, 55
2, 533976, Note_off_c, 1, 76, 0
2, 534000, Note_on_c, 1, 66, 55
2, 534096, Note_off_c, 1, 66, 0
2, 534120, Note_on_c, 1, 78, 55
2, 534216, Note_off_c, 1, 78, 0
2, 534240, Note_on_c, 1, 67, 55
2, 534336, Note_off_c, 1, 67, 0
2, 534360, Note_on_c, 1, 79, 54
2, 534456, Note_off_c, 1, 79, 0
2, 534480, Note_on_c, 1, 66, 54
2, 534576, Note_off_c, 1, 66, 0
2, 534600, Note_on_c, 1, 78, 54
2, 534696, Note_off_c, 1, 78, 0
2, 534720, Note_on_c, 1, 67, 54
2, 534816, Note_off_c, 1, 67, 0
2, 534840, Note_on_c, 1, 79, 54
2, 534936, Note_off_c, 1, 79, 0
2, 534960, Note_on_c, 1, 66, 53
2, 535056, Note_off_c, 1, 66, 0
2, 535080, Note_on_c, 1, 78, 53
2, 535176, Note_off_c, 1, 78, 0
2, 535200, Note_on_c, 1, 67, 53
2, 535296, Note_off_c, 1, 67, 0
2, 535320, Note_on_c, 1, 79, 53
2, 535416, Note_off_c, 1, 79, 0
2, 535440, Note_on_c, 1, 64, 53
2, 535536, Note_off_c, 1, 64, 0
2, 535560, Note_on_c, 1, 76, 52
2, 535656, Note_off_c, 1, 76, 0
2, 535680, Note_on_c, 1, 66, 52
2, 535776, Note_off_c, 1, 66, 0
2, 535800, Note_on_c, 1, 78, 52
2, 535896, Note_off_c, 1, 78, 0
2, 535920, Note_on_c, 1, 65, 52
2, 536016, Note_off_c, 1, 65, 0
2, 536040, Note_on_c, 1, 77, 51
2, 536136, Note_off_c, 1, 77, 0
2, 536160, Note_on_c, 1, 66, 51
2, 536256, Note_off_c, 1, 66, 0
2, 536280, Note_on_c, 1, 78, 51
2, 536376, Note_off_c, 1, 78, 0
2, 536400, Note_on_c, 1, 65, 51
2, 536496, Note_off_c, 1, 65, 0
2, 536520, Note_on_c, 1, 77, 51
2, 536616, Note_off_c, 1, 77, 0
2, 536640, Note_on_c, 1, 66, 50
2, 536736, Note_off_c, 1, 66, 0
2, 536760, Note_on_c, 1, 78, 50
2, 536856, Note_off_c, 1, 78, 0
2, 536880, Note_on_c, 1, 67, 50
2, 536976, Note_off_c, 1, 67, 0
2, 537000, Note_on_c, 1, 79, 50
2, 537096, Note_off_c, 1, 79, 0
2, 537120, Note_on_c, 1, 69, 50
2, 537216, Note_off_c, 1, 69, 0
2, 537240, Note_on_c, 1, 81, 49
2, 537336, Note_off_c, 1, 81, 0
2, 537360, Note_on_c, 1, 68, 49
2, 537456, Note_off_c, 1, 68, 0
2, 537480, Note_on_c, 1, 80, 49
2, 537576, Note_off_c, 1, 80, 0
2, 537600, Note_on_c, 1, 69, 49
2, 537696, Note_off_c, 1, 69, 0
2, 537720, Note_on_c, 1, 81, 48
2, 537816, Note_off_c, 1, 81, 0
2, 537840, Note_on_c, 1, 68, 48
2, 537936, Note_off_c, 1, 68, 0
2, 537960, Note_on_c, 1, 80, 48
2, 538056, Note_off_c, 1, 80, 0
2, 538080, Note_on_c, 1, 69, 48
2, 538176, Note_off_c, 1, 69, 0
2, 538200, Note_on_c, 1, 81, 48
2, 538296, Note_off_c, 1, 81, 0
2, 538320, Note_on_c, 1, 74, 83
2, 538440, Note_off_c, 1, 74, 0
2, 538440, Note_on_c, 1, 86, 82
2, 538560, Note_off_c, 1, 86, 0
2, 538560, Note_on_c, 1, 85, 81
2, 538560, Note_on_c, 1, 73, 81
2, 539040, Note_off_c, 1, 73, 0
2, 539040, Note_off_c, 1, 85, 0
2, 539040, Note_on_c, 1, 83, 77
2, 539040, Note_on_c, 1, 71, 77
2, 539520, Note_off_c, 1, 71, 0
2, 539520, Note_off_c, 1, 83, 0
2, 539520, Note_on_c, 1, 69, 78
2, 539520, Note_on_c, 1, 81, 78
2, 539712, Note_off_c, 1, 81, 0
2, 539712, Note_off_c, 1, 69, 0
2, 539760, Note_on_c, 1, 86, 81
2, 539760, Note_on_c, 1, 74, 81
2, 540000, Note_off_c, 1, 74, 0
2, 540000, Note_off_c, 1, 86, 0
2, 540000, Note_on_c, 1, 73, 80
2, 540000, Note_on_c, 1, 85, 80
2, 540480, Note_off_c, 1, 85, 0
2, 540480, Note_off_c, 1, 73, 0
2, 540480, Note_on_c, 1, 83, 78
2, 540480, Note_on_c, 1, 71, 78
2, 540960, Note_off_c, 1, 71, 0
2, 540960, Note_off_c, 1, 83, 0
2, 540960, Note_on_c, 1, 81, 76
2, 540960, Note_on_c, 1, 69, 76
2, 541152, Note_off_c, 1, 69, 0
2, 541152, Note_off_c, 1, 81, 0
2, 541200, Note_on_c, 1, 81, 76
2, 541440, Note_off_c, 1, 81, 0
2, 541440, Note_on_c, 1, 79, 75
2, 541680, Note_off_c, 1, 79, 0
2, 541680, Note_on_c, 1, 78, 74
2, 541920, Note_off_c, 1, 78, 0
2, 541920, Note_on_c, 1, 76, 73
2, 542160, Note_off_c, 1, 76, 0
2, 542160, Note_on_c, 1, 74, 72
2, 542400, Note_off_c, 1, 74, 0
2, 542400, Note_on_c, 1, 73, 71
2, 542640, Note_off_c, 1, 73, 0
2, 542640, Note_on_c, 1, 74, 70
2, 542880, Note_off_c, 1, 74, 0
2, 542880, Note_on_c, 1, 76, 70
2, 543072, Note_off_c, 1, 76, 0
2, 543120, Note_on_c, 1, 61, 71
2, 543216, Note_off_c, 1, 61, 0
2, 543240, Note_on_c, 1, 73, 69
2, 543336, Note_off_c, 1, 73, 0
2, 543360, Note_on_c, 1, 62, 67
2, 543456, Note_off_c, 1, 62, 0
2, 543480, Note_on_c, 1, 74, 65
2, 543576, Note_off_c, 1, 74, 0
2, 543600, Note_on_c, 1, 64, 63
2, 543696, Note_off_c, 1, 64, 0
2, 543720, Note_on_c, 1, 76, 62
2, 543816, Note_off_c, 1, 76, 0
2, 543840, Note_on_c, 1, 66, 60
2, 543936, Note_off_c, 1, 66, 0
2, 543960, Note_on_c, 1, 78, 58
2, 544056, Note_off_c, 1, 78, 0
2, 544080, Note_on_c, 1, 67, 56
2, 544176, Note_off_c, 1, 67, 0
2, 544200, Note_on_c, 1, 79, 54
2, 544296, Note_off_c, 1, 79, 0
2, 544320, Note_on_c, 1, 69, 53
2, 544416, Note_off_c, 1, 69, 0
2, 544440, Note_on_c, 1, 81, 53
2, 544536, Note_off_c, 1, 81, 0
2, 544560, Note_on_c, 1, 68, 53
2, 544656, Note_off_c, 1, 68, 0
2, 544680, Note_on_c, 1, 80, 53
2, 544776, Note_off_c, 1, 80, 0
2, 544800, Note_on_c, 1, 69, 53
2, 544896, Note_off_c, 1, 69, 0
2, 544920, Note_on_c, 1, 81, 52
2, 545016, Note_off_c, 1, 81, 0
2, 545040, Note_on_c, 1, 68, 52
2, 545136, Note_off_c, 1, 68, 0
2, 545160, Note_on_c, 1, 80, 52
2, 545256, Note_off_c, 1, 80, 0
2, 545280, Note_on_c, 1, 69, 52
2, 545376, Note_off_c, 1, 69, 0
2, 545400, Note_on_c, 1, 81, 52
2, 545496, Note_off_c, 1, 81, 0
2, 545520, Note_on_c, 1, 74, 51
2, 545616, Note_off_c, 1, 74, 0
2, 545640, Note_on_c, 1, 86, 51
2, 545736, Note_off_c, 1, 86, 0
2, 545760, Note_on_c, 1, 66, 51
2, 545856, Note_off_c, 1, 66, 0
2, 545880, Note_on_c, 1, 78, 51
2, 545976, Note_off_c, 1, 78, 0
2, 546000, Note_on_c, 1, 65, 51
2, 546096, Note_off_c, 1, 65, 0
2, 546120, Note_on_c, 1, 77, 50
2, 546216, Note_off_c, 1, 77, 0
2, 546240, Note_on_c, 1, 66, 50
2, 546336, Note_off_c, 1, 66, 0
2, 546360, Note_on_c, 1, 78, 50
2, 546456, Note_off_c, 1, 78, 0
2, 546480, Note_on_c, 1, 65, 50
2, 546576, Note_off_c, 1, 65, 0
2, 546600, Note_on_c, 1, 77, 50
2, 546696, Note_off_c, 1, 77, 0
2, 546720, Note_on_c, 1, 66, 49
2, 546816, Note_off_c, 1, 66, 0
2, 546840, Note_on_c, 1, 78, 49
2, 546936, Note_off_c, 1, 78, 0
2, 546960, Note_on_c, 1, 69, 49
2, 547056, Note_off_c, 1, 69, 0
2, 547080, Note_on_c, 1, 81, 49
2, 547176, Note_off_c, 1, 81, 0
2, 547200, Note_on_c, 1, 62, 49
2, 547296, Note_off_c, 1, 62, 0
2, 547320, Note_on_c, 1, 74, 48
2, 547416, Note_off_c, 1, 74, 0
2, 547440, Note_on_c, 1, 66, 48
2, 547536, Note_off_c, 1, 66, 0
2, 547560, Note_on_c, 1, 78, 48
2, 547656, Note_off_c, 1, 78, 0
2, 547680, Note_on_c, 1, 64, 48
2, 547776, Note_off_c, 1, 64, 0
2, 547800, Note_on_c, 1, 76, 48
2, 547896, Note_off_c, 1, 76, 0
2, 547920, Note_on_c, 1, 67, 47
2, 548016, Note_off_c, 1, 67, 0
2, 548040, Note_on_c, 1, 79, 47
2, 548136, Note_off_c, 1, 79, 0
2, 548160, Note_on_c, 1, 61, 47
2, 548256, Note_off_c, 1, 61, 0
2, 548280, Note_on_c, 1, 73, 47
2, 548376, Note_off_c, 1, 73, 0
2, 548400, Note_on_c, 1, 64, 47
2, 548496, Note_off_c, 1, 64, 0
2, 548520, Note_on_c, 1, 76, 46
2, 548616, Note_off_c, 1, 76, 0
2, 548640, Note_on_c, 1, 62, 46
2, 548736, Note_off_c, 1, 62, 0
2, 548760, Note_on_c, 1, 74, 48
2, 548856, Note_off_c, 1, 74, 0
2, 548880, Note_on_c, 1, 61, 48
2, 548976, Note_off_c, 1, 61, 0
2, 549000, Note_on_c, 1, 73, 50
2, 549096, Note_off_c, 1, 73, 0
2, 549120, Note_on_c, 1, 62, 53
2, 549216, Note_off_c, 1, 62, 0
2, 549240, Note_on_c, 1, 74, 55
2, 549336, Note_off_c, 1, 74, 0
2, 549360, Note_on_c, 1, 64, 58
2, 549456, Note_off_c, 1, 64, 0
2, 549480, Note_on_c, 1, 76, 60
2, 549576, Note_off_c, 1, 76, 0
2, 549600, Note_on_c, 1, 66, 62
2, 549696, Note_off_c, 1, 66, 0
2, 549720, Note_on_c, 1, 78, 65
2, 549816, Note_off_c, 1, 78, 0
2, 549840, Note_on_c, 1, 67, 67
2, 549936, Note_off_c, 1, 67, 0
2, 549960, Note_on_c, 1, 79, 70
2, 550056, Note_off_c, 1, 79, 0
2, 550080, Note_on_c, 1, 81, 75
2, 550080, Note_on_c, 1, 69, 75
2, 551040, Note_off_c, 1, 69, 0
2, 551040, Note_off_c, 1, 81, 0
2, 551040, Note_on_c, 1, 86, 71
2, 551040, Note_on_c, 1, 74, 71
2, 551232, Note_off_c, 1, 74, 0
2, 551232, Note_off_c, 1, 86, 0
2, 551520, Note_on_c, 1, 66, 73
2, 551520, Note_on_c, 1, 78, 73
2, 552480, Note_off_c, 1, 78, 0
2, 552480, Note_off_c, 1, 66, 0
2, 552480, Note_on_c, 1, 81, 69
2, 552480, Note_on_c, 1, 69, 69
2, 552672, Note_off_c, 1, 69, 0
2, 552672, Note_off_c, 1, 81, 0
2, 553080, Note_on_c, 1, 67, 70
2, 553200, Note_off_c, 1, 67, 0
2, 553200, Note_on_c, 1, 74, 70
2, 553320, Note_off_c, 1, 74, 0
2, 553320, Note_on_c, 1, 79, 69
2, 553416, Note_off_c, 1, 79, 0
2, 553560, Note_on_c, 1, 69, 69
2, 553680, Note_off_c, 1, 69, 0
2, 553680, Note_on_c, 1, 74, 69
2, 553800, Note_off_c, 1, 74, 0
2, 553800, Note_on_c, 1, 78, 69
2, 553896, Note_off_c, 1, 78, 0
2, 554040, Note_on_c, 1, 67, 68
2, 554160, Note_off_c, 1, 67, 0
2, 554160, Note_on_c, 1, 73, 68
2, 554280, Note_off_c, 1, 73, 0
2, 554280, Note_on_c, 1, 76, 68
2, 554400, Note_off_c, 1, 76, 0
2, 554400, Note_on_c, 1, 74, 67
2, 554400, Note_on_c, 1, 66, 67
2, 554760, Note_off_c, 1, 66, 0
2, 554760, Note_off_c, 1, 74, 0
2, 555840, Note_on_c, 1, 81, 51
2, 556920, Note_off_c, 1, 81, 0
2, 556920, Note_on_c, 1, 83, 49
2, 557040, Note_off_c, 1, 83, 0
2, 557040, Note_on_c, 1, 81, 48
2, 557160, Note_off_c, 1, 81, 0
2, 557160, Note_on_c, 1, 80, 47
2, 557280, Note_off_c, 1, 80, 0
2, 557280, Note_on_c, 1, 81, 45
2, 557400, Note_off_c, 1, 81, 0
2, 557400, Note_on_c, 1, 86, 44
2, 557520, Note_off_c, 1, 86, 0
2, 557520, Note_on_c, 1, 85, 42
2, 557640, Note_off_c, 1, 85, 0
2, 557640, Note_on_c, 1, 88, 41
2, 557760, Note_off_c, 1, 88, 0
2, 557760, Note_on_c, 1, 86, 40
2, 558120, Note_off_c, 1, 86, 0
2, 558720, Note_on_c, 1, 78, 47
2, 559800, Note_off_c, 1, 78, 0
2, 559800, Note_on_c, 1, 79, 45
2, 559920, Note_off_c, 1, 79, 0
2, 559920, Note_on_c, 1, 78, 44
2, 560040, Note_off_c, 1, 78, 0
2, 560040, Note_on_c, 1, 76, 43
2, 560160, Note_off_c, 1, 76, 0
2, 560160, Note_on_c, 1, 78, 42
2, 560280, Note_off_c, 1, 78, 0
2, 560280, Note_on_c, 1, 81, 41
2, 560400, Note_off_c, 1, 81, 0
2, 560400, Note_on_c, 1, 79, 40
2, 560520, Note_off_c, 1, 79, 0
2, 560520, Note_on_c, 1, 83, 39
2, 560640, Note_off_c, 1, 83, 0
2, 560640, Note_on_c, 1, 81, 37
2, 561000, Note_off_c, 1, 81, 0
2, 561600, Note_on_c, 1, 74, 42
2, 562320, Note_off_c, 1, 74, 0
2, 562560, Note_on_c, 1, 74, 41
2, 562920, Note_off_c, 1, 74, 0
2, 563040, Note_on_c, 1, 74, 40
2, 563400, Note_off_c, 1, 74, 0
2, 563400, Note_on_c, 1, 78, 40
2, 563520, Note_off_c, 1, 78, 0
2, 563520, Note_on_c, 1, 76, 39
2, 563880, Note_off_c, 1, 76, 0
2, 563880, Note_on_c, 1, 74, 39
2, 564000, Note_off_c, 1, 74, 0
2, 564000, Note_on_c, 1, 76, 39
2, 564360, Note_off_c, 1, 76, 0
2, 564360, Note_on_c, 1, 78, 38
2, 564480, Note_off_c, 1, 78, 0
2, 564480, Note_on_c, 1, 74, 40
2, 564672, Note_off_c, 1, 74, 0
2, 564720, Note_on_c, 1, 62, 36
2, 564840, Note_off_c, 1, 62, 0
2, 564840, Note_on_c, 1, 66, 36
2, 564960, Note_off_c, 1, 66, 0
2, 564960, Note_on_c, 1, 64, 37
2, 565080, Note_off_c, 1, 64, 0
2, 565080, Note_on_c, 1, 67, 38
2, 565200, Note_off_c, 1, 67, 0
2, 565200, Note_on_c, 1, 66, 38
2, 565320, Note_off_c, 1, 66, 0
2, 565320, Note_on_c, 1, 69, 39
2, 565440, Note_off_c, 1, 69, 0
2, 565440, Note_on_c, 1, 67, 40
2, 565560, Note_off_c, 1, 67, 0
2, 565560, Note_on_c, 1, 71, 40
2, 565680, Note_off_c, 1, 71, 0
2, 565680, Note_on_c, 1, 69, 41
2, 565800, Note_off_c, 1, 69, 0
2, 565800, Note_on_c, 1, 73, 42
2, 565920, Note_off_c, 1, 73, 0
2, 565920, Note_on_c, 1, 71, 43
2, 566040, Note_off_c, 1, 71, 0
2, 566040, Note_on_c, 1, 74, 43
2, 566160, Note_off_c, 1, 74, 0
2, 566160, Note_on_c, 1, 73, 44
2, 566280, Note_off_c, 1, 73, 0
2, 566280, Note_on_c, 1, 76, 45
2, 566400, Note_off_c, 1, 76, 0
2, 566400, Note_on_c, 1, 74, 46
2, 566520, Note_off_c, 1, 74, 0
2, 566520, Note_on_c, 1, 78, 46
2, 566640, Note_off_c, 1, 78, 0
2, 566640, Note_on_c, 1, 76, 47
2, 566760, Note_off_c, 1, 76, 0
2, 566760, Note_on_c, 1, 79, 48
2, 566880, Note_off_c, 1, 79, 0
2, 566880, Note_on_c, 1, 78, 49
2, 567000, Note_off_c, 1, 78, 0
2, 567000, Note_on_c, 1, 81, 49
2, 567120, Note_off_c, 1, 81, 0
2, 567120, Note_on_c, 1, 79, 50
2, 567240, Note_off_c, 1, 79, 0
2, 567240, Note_on_c, 1, 83, 51
2, 567336, Note_off_c, 1, 83, 0
2, 567360, Note_on_c, 1, 81, 54
2, 568560, Note_off_c, 1, 81, 0
2, 568560, Note_on_c, 1, 83, 48
2, 568800, Note_off_c, 1, 83, 0
2, 568800, Note_on_c, 1, 85, 49
2, 569040, Note_off_c, 1, 85, 0
2, 569040, Note_on_c, 1, 86, 50
2, 569280, Note_off_c, 1, 86, 0
2, 569280, Note_on_c, 1, 88, 51
2, 569520, Note_off_c, 1, 88, 0
2, 569520, Note_on_c, 1, 86, 50
2, 569760, Note_off_c, 1, 86, 0
2, 569760, Note_on_c, 1, 85, 49
2, 570000, Note_off_c, 1, 85, 0
2, 570000, Note_on_c, 1, 86, 48
2, 570192, Note_off_c, 1, 86, 0
2, 570240, Note_on_c, 1, 78, 48
2, 571440, Note_off_c, 1, 78, 0
2, 571440, Note_on_c, 1, 79, 44
2, 571680, Note_off_c, 1, 79, 0
2, 571680, Note_on_c, 1, 80, 45
2, 571920, Note_off_c, 1, 80, 0
2, 571920, Note_on_c, 1, 81, 46
2, 572160, Note_off_c, 1, 81, 0
2, 572160, Note_on_c, 1, 83, 47
2, 572400, Note_off_c, 1, 83, 0
2, 572400, Note_on_c, 1, 81, 46
2, 572640, Note_off_c, 1, 81, 0
2, 572640, Note_on_c, 1, 80, 44
2, 572880, Note_off_c, 1, 80, 0
2, 572880, Note_on_c, 1, 81, 42
2, 573072, Note_off_c, 1, 81, 0
2, 573120, Note_on_c, 1, 81, 55
2, 573840, Note_off_c, 1, 81, 0
2, 573840, Note_on_c, 1, 78, 44
2, 574032, Note_off_c, 1, 78, 0
2, 574080, Note_on_c, 1, 74, 43
2, 574447, Note_off_c, 1, 74, 0
2, 574560, Note_on_c, 1, 74, 43
2, 574912, Note_off_c, 1, 74, 0
2, 574920, Note_on_c, 1, 78, 42
2, 575040, Note_off_c, 1, 78, 0
2, 575040, Note_on_c, 1, 76, 42
2, 575400, Note_off_c, 1, 76, 0
2, 575400, Note_on_c, 1, 74, 42
2, 575520, Note_off_c, 1, 74, 0
2, 575520, Note_on_c, 1, 76, 42
2, 575880, Note_off_c, 1, 76, 0
2, 575880, Note_on_c, 1, 78, 41
2, 576000, Note_off_c, 1, 78, 0
2, 576000, Note_on_c, 1, 76, 41
2, 576960, Note_off_c, 1, 76, 0
2, 576960, Note_on_c, 1, 74, 34
2, 577320, Note_off_c, 1, 74, 0
2, 578880, Note_on_c, 1, 76, 63
2, 580032, Note_off_c, 1, 76, 0
2, 580080, Note_on_c, 1, 78, 61
2, 580140, Note_off_c, 1, 78, 0
2, 580140, Note_on_c, 1, 76, 61
2, 580200, Note_off_c, 1, 76, 0
2, 580200, Note_on_c, 1, 75, 62
2, 580260, Note_off_c, 1, 75, 0
2, 580260, Note_on_c, 1, 76, 63
2, 580320, Note_off_c, 1, 76, 0
2, 580320, Note_on_c, 1, 79, 64
2, 580560, Note_off_c, 1, 79, 0
2, 580560, Note_on_c, 1, 78, 61
2, 580752, Note_off_c, 1, 78, 0
2, 580800, Note_on_c, 1, 78, 61
2, 581032, Note_off_c, 1, 78, 0
2, 581040, Note_on_c, 1, 79, 60
2, 581100, Note_off_c, 1, 79, 0
2, 581100, Note_on_c, 1, 78, 61
2, 581160, Note_off_c, 1, 78, 0
2, 581160, Note_on_c, 1, 77, 61
2, 581220, Note_off_c, 1, 77, 0
2, 581220, Note_on_c, 1, 78, 62
2, 581280, Note_off_c, 1, 78, 0
2, 581280, Note_on_c, 1, 81, 62
2, 581520, Note_on_c, 1, 79, 60
2, 581527, Note_off_c, 1, 81, 0
2, 581760, Note_off_c, 1, 79, 0
2, 581760, Note_on_c, 1, 79, 60
2, 582120, Note_off_c, 1, 79, 0
2, 582640, Note_on_c, 1, 57, 50
2, 582760, Note_off_c, 1, 57, 0
2, 582760, Note_on_c, 1, 59, 51
2, 582880, Note_off_c, 1, 59, 0
2, 582880, Note_on_c, 1, 61, 51
2, 583000, Note_off_c, 1, 61, 0
2, 583000, Note_on_c, 1, 62, 52
2, 583120, Note_off_c, 1, 62, 0
2, 583120, Note_on_c, 1, 64, 53
2, 583240, Note_off_c, 1, 64, 0
2, 583240, Note_on_c, 1, 66, 54
2, 583360, Note_off_c, 1, 66, 0
2, 583360, Note_on_c, 1, 68, 54
2, 583480, Note_off_c, 1, 68, 0
2, 583480, Note_on_c, 1, 69, 55
2, 583540, Note_off_c, 1, 69, 0
2, 583540, Note_on_c, 1, 71, 55
2, 583600, Note_off_c, 1, 71, 0
2, 583600, Note_on_c, 1, 73, 56
2, 583660, Note_off_c, 1, 73, 0
2, 583660, Note_on_c, 1, 74, 56
2, 583720, Note_off_c, 1, 74, 0
2, 583720, Note_on_c, 1, 76, 56
2, 583780, Note_off_c, 1, 76, 0
2, 583780, Note_on_c, 1, 78, 57
2, 583840, Note_off_c, 1, 78, 0
2, 583840, Note_on_c, 1, 80, 57
2, 583900, Note_off_c, 1, 80, 0
2, 583900, Note_on_c, 1, 81, 57
2, 583960, Note_off_c, 1, 81, 0
2, 583960, Note_on_c, 1, 83, 58
2, 584020, Note_off_c, 1, 83, 0
2, 584020, Note_on_c, 1, 85, 58
2, 584080, Note_off_c, 1, 85, 0
2, 584080, Note_on_c, 1, 86, 58
2, 584140, Note_off_c, 1, 86, 0
2, 584140, Note_on_c, 1, 88, 59
2, 584220, Note_off_c, 1, 88, 0
2, 584220, Note_on_c, 1, 86, 59
2, 584300, Note_off_c, 1, 86, 0
2, 584320, Note_on_c, 1, 85, 60
2, 584380, Note_on_c, 1, 83, 60
2, 584400, Note_off_c, 1, 85, 0
2, 584460, Note_off_c, 1, 83, 0
2, 584460, Note_on_c, 1, 81, 61
2, 584540, Note_off_c, 1, 81, 0
2, 584540, Note_on_c, 1, 79, 61
2, 584620, Note_off_c, 1, 79, 0
2, 584640, Note_on_c, 1, 78, 65
2, 585760, Note_off_c, 1, 78, 0
2, 585760, Note_on_c, 1, 74, 64
2, 585920, Note_off_c, 1, 74, 0
2, 585920, Note_on_c, 1, 76, 64
2, 586080, Note_off_c, 1, 76, 0
2, 586080, Note_on_c, 1, 78, 63
2, 586240, Note_off_c, 1, 78, 0
2, 586240, Note_on_c, 1, 79, 63
2, 586400, Note_off_c, 1, 79, 0
2, 586400, Note_on_c, 1, 81, 63
2, 586560, Note_off_c, 1, 81, 0
2, 586560, Note_on_c, 1, 79, 63
2, 586720, Note_off_c, 1, 79, 0
2, 586720, Note_on_c, 1, 76, 62
2, 586880, Note_off_c, 1, 76, 0
2, 586880, Note_on_c, 1, 78, 62
2, 587040, Note_off_c, 1, 78, 0
2, 587040, Note_on_c, 1, 79, 62
2, 587200, Note_off_c, 1, 79, 0
2, 587200, Note_on_c, 1, 81, 62
2, 587360, Note_off_c, 1, 81, 0
2, 587360, Note_on_c, 1, 83, 61
2, 587520, Note_off_c, 1, 83, 0
2, 587520, Note_on_c, 1, 81, 61
2, 587880, Note_off_c, 1, 81, 0
2, 588000, Note_on_c, 1, 62, 68
2, 588480, Note_on_c, 1, 50, 69
2, 588840, Note_off_c, 1, 62, 0
2, 588840, Note_on_c, 1, 64, 54
2, 588900, Note_off_c, 1, 64, 0
2, 588900, Note_on_c, 1, 62, 54
2, 588960, Note_off_c, 1, 62, 0
2, 588960, Note_on_c, 1, 61, 54
2, 589020, Note_off_c, 1, 61, 0
2, 589020, Note_on_c, 1, 62, 55
2, 589080, Note_off_c, 1, 62, 0
2, 589080, Note_on_c, 1, 64, 55
2, 589140, Note_off_c, 1, 64, 0
2, 589140, Note_on_c, 1, 66, 56
2, 589200, Note_off_c, 1, 66, 0
2, 589200, Note_off_c, 1, 50, 0
2, 589200, Note_on_c, 1, 67, 56
2, 589260, Note_off_c, 1, 67, 0
2, 589260, Note_on_c, 1, 69, 56
2, 589320, Note_off_c, 1, 69, 0
2, 589320, Note_on_c, 1, 71, 57
2, 589380, Note_off_c, 1, 71, 0
2, 589380, Note_on_c, 1, 73, 57
2, 589440, Note_off_c, 1, 73, 0
2, 589440, Note_on_c, 1, 74, 58
2, 589500, Note_off_c, 1, 74, 0
2, 589500, Note_on_c, 1, 76, 58
2, 589560, Note_off_c, 1, 76, 0
2, 589560, Note_on_c, 1, 78, 58
2, 589620, Note_off_c, 1, 78, 0
2, 589620, Note_on_c, 1, 79, 59
2, 589680, Note_off_c, 1, 79, 0
2, 589680, Note_on_c, 1, 81, 59
2, 589740, Note_off_c, 1, 81, 0
2, 589740, Note_on_c, 1, 83, 59
2, 589800, Note_off_c, 1, 83, 0
2, 589800, Note_on_c, 1, 85, 60
2, 589860, Note_off_c, 1, 85, 0
2, 589860, Note_on_c, 1, 86, 60
2, 589920, Note_off_c, 1, 86, 0
2, 589920, Note_on_c, 1, 85, 61
2, 589980, Note_off_c, 1, 85, 0
2, 589980, Note_on_c, 1, 86, 61
2, 590040, Note_off_c, 1, 86, 0
2, 590040, Note_on_c, 1, 85, 61
2, 590100, Note_off_c, 1, 85, 0
2, 590100, Note_on_c, 1, 86, 62
2, 590160, Note_off_c, 1, 86, 0
2, 590160, Note_on_c, 1, 88, 62
2, 590220, Note_off_c, 1, 88, 0
2, 590220, Note_on_c, 1, 86, 62
2, 590280, Note_off_c, 1, 86, 0
2, 590280, Note_on_c, 1, 85, 63
2, 590340, Note_off_c, 1, 85, 0
2, 590340, Note_on_c, 1, 83, 63
2, 590400, Control_c, 1, 64, 0
2, 590400, Note_off_c, 1, 83, 0
2, 590400, Note_on_c, 1, 81, 66
2, 591600, Note_off_c, 1, 81, 0
2, 591600, Note_on_c, 1, 74, 62
2, 591840, Note_off_c, 1, 74, 0
2, 591840, Note_on_c, 1, 78, 63
2, 592080, Note_off_c, 1, 78, 0
2, 592080, Note_on_c, 1, 81, 64
2, 592320, Note_off_c, 1, 81, 0
2, 592320, Note_on_c, 1, 83, 65
2, 592560, Note_off_c, 1, 83, 0
2, 592560, Note_on_c, 1, 79, 66
2, 592800, Note_off_c, 1, 79, 0
2, 592800, Note_on_c, 1, 86, 67
2, 593040, Note_off_c, 1, 86, 0
2, 593040, Note_on_c, 1, 83, 68
2, 593232, Note_off_c, 1, 83, 0
2, 593280, Note_on_c, 1, 80, 70
2, 593760, Note_off_c, 1, 80, 0
2, 593760, Note_on_c, 1, 81, 63
2, 594320, Note_off_c, 1, 81, 0
2, 594320, Note_on_c, 1, 74, 63
2, 594400, Note_off_c, 1, 74, 0
2, 594400, Note_on_c, 1, 75, 63
2, 594480, Note_off_c, 1, 75, 0
2, 594480, Note_on_c, 1, 76, 63
2, 594560, Note_off_c, 1, 76, 0
2, 594560, Note_on_c, 1, 77, 63
2, 594640, Note_off_c, 1, 77, 0
2, 594640, Note_on_c, 1, 78, 63
2, 594720, Note_off_c, 1, 78, 0
2, 594720, Note_on_c, 1, 79, 64
2, 594840, Note_off_c, 1, 79, 0
2, 594840, Note_on_c, 1, 80, 64
2, 594960, Note_off_c, 1, 80, 0
2, 594960, Note_on_c, 1, 81, 64
2, 595080, Note_off_c, 1, 81, 0
2, 595080, Note_on_c, 1, 82, 65
2, 595200, Note_off_c, 1, 82, 0
2, 595200, Note_on_c, 1, 83, 65
2, 595280, Note_off_c, 1, 83, 0
2, 595280, Note_on_c, 1, 84, 65
2, 595360, Note_off_c, 1, 84, 0
2, 595360, Note_on_c, 1, 85, 65
2, 595440, Note_off_c, 1, 85, 0
2, 595440, Note_on_c, 1, 86, 65
2, 595560, Note_off_c, 1, 86, 0
2, 595560, Note_on_c, 1, 85, 66
2, 595680, Note_off_c, 1, 85, 0
2, 595680, Note_on_c, 1, 88, 66
2, 595800, Note_off_c, 1, 88, 0
2, 595800, Note_on_c, 1, 86, 66
2, 595920, Note_off_c, 1, 86, 0
2, 595920, Note_on_c, 1, 85, 67
2, 596040, Note_off_c, 1, 85, 0
2, 596040, Note_on_c, 1, 83, 67
2, 596136, Note_off_c, 1, 83, 0
2, 596160, Note_on_c, 1, 83, 67
2, 596280, Note_off_c, 1, 83, 0
2, 596280, Note_on_c, 1, 81, 68
2, 596358, Note_off_c, 1, 81, 0
2, 596400, Note_on_c, 1, 86, 68
2, 596478, Note_off_c, 1, 86, 0
2, 596520, Note_on_c, 1, 85, 68
2, 596598, Note_off_c, 1, 85, 0
2, 596640, Note_on_c, 1, 86, 69
2, 596718, Note_off_c, 1, 86, 0
2, 596760, Note_on_c, 1, 85, 69
2, 596838, Note_off_c, 1, 85, 0
2, 596880, Note_on_c, 1, 83, 69
2, 596958, Note_off_c, 1, 83, 0
2, 597000, Note_on_c, 1, 81, 70
2, 597078, Note_off_c, 1, 81, 0
2, 597120, Note_on_c, 1, 81, 70
2, 597240, Note_off_c, 1, 81, 0
2, 597240, Note_on_c, 1, 79, 70
2, 597318, Note_off_c, 1, 79, 0
2, 597360, Note_on_c, 1, 88, 71
2, 597438, Note_off_c, 1, 88, 0
2, 597480, Note_on_c, 1, 86, 71
2, 597558, Note_off_c, 1, 86, 0
2, 597600, Note_on_c, 1, 85, 71
2, 597678, Note_off_c, 1, 85, 0
2, 597720, Note_on_c, 1, 83, 71
2, 597798, Note_off_c, 1, 83, 0
2, 597840, Note_on_c, 1, 81, 72
2, 597918, Note_off_c, 1, 81, 0
2, 597960, Note_on_c, 1, 79, 72
2, 598038, Note_off_c, 1, 79, 0
2, 598080, Control_c, 1, 64, 0
2, 598080, Note_on_c, 1, 79, 72
2, 598200, Note_off_c, 1, 79, 0
2, 598200, Note_on_c, 1, 78, 73
2, 598278, Note_off_c, 1, 78, 0
2, 598320, Note_on_c, 1, 86, 73
2, 598398, Note_off_c, 1, 86, 0
2, 598440, Note_on_c, 1, 85, 73
2, 598518, Note_off_c, 1, 85, 0
2, 598560, Note_on_c, 1, 83, 74
2, 598638, Note_off_c, 1, 83, 0
2, 598680, Note_on_c, 1, 81, 74
2, 598758, Note_off_c, 1, 81, 0
2, 598800, Note_on_c, 1, 79, 74
2, 598878, Note_off_c, 1, 79, 0
2, 598920, Note_on_c, 1, 78, 75
2, 598998, Note_off_c, 1, 78, 0
2, 599040, Note_on_c, 1, 81, 77
2, 600240, Note_off_c, 1, 81, 0
2, 600240, Note_on_c, 1, 80, 65
2, 600360, Note_off_c, 1, 80, 0
2, 600360, Note_on_c, 1, 81, 63
2, 600480, Note_off_c, 1, 81, 0
2, 600480, Note_on_c, 1, 83, 62
2, 600600, Note_off_c, 1, 83, 0
2, 600600, Note_on_c, 1, 81, 61
2, 600720, Note_off_c, 1, 81, 0
2, 600720, Note_on_c, 1, 79, 60
2, 600840, Note_off_c, 1, 79, 0
2, 600840, Note_on_c, 1, 78, 59
2, 600960, Note_off_c, 1, 78, 0
2, 600960, Note_on_c, 1, 76, 58
2, 601152, Note_off_c, 1, 76, 0
2, 601200, Note_on_c, 1, 78, 55
2, 601392, Note_off_c, 1, 78, 0
2, 601440, Note_on_c, 1, 79, 53
2, 601632, Note_off_c, 1, 79, 0
2, 601680, Note_on_c, 1, 80, 50
2, 601872, Note_off_c, 1, 80, 0
2, 601920, Note_on_c, 1, 81, 54
2, 603040, Note_off_c, 1, 81, 0
2, 603040, Note_on_c, 1, 82, 53
2, 603200, Note_off_c, 1, 82, 0
2, 603200, Note_on_c, 1, 83, 52
2, 603360, Note_off_c, 1, 83, 0
2, 603360, Note_on_c, 1, 84, 51
2, 603520, Note_off_c, 1, 84, 0
2, 603520, Note_on_c, 1, 85, 51
2, 603680, Note_off_c, 1, 85, 0
2, 603680, Note_on_c, 1, 86, 50
2, 603840, Note_off_c, 1, 86, 0
2, 603840, Note_on_c, 1, 88, 49
2, 604080, Note_off_c, 1, 88, 0
2, 604080, Note_on_c, 1, 86, 48
2, 604320, Note_off_c, 1, 86, 0
2, 604320, Note_on_c, 1, 85, 47
2, 604560, Note_off_c, 1, 85, 0
2, 604560, Note_on_c, 1, 86, 46
2, 604725, Note_off_c, 1, 86, 0
2, 604740, Note_on_c, 1, 86, 48
2, 604800, Note_off_c, 1, 86, 0
2, 604800, Note_on_c, 1, 78, 49
2, 605760, Control_c, 1, 64, 0
2, 605915, Note_off_c, 1, 78, 0
2, 605920, Note_on_c, 1, 78, 49
2, 606080, Note_off_c, 1, 78, 0
2, 606080, Note_on_c, 1, 79, 49
2, 606240, Note_off_c, 1, 79, 0
2, 606240, Note_on_c, 1, 80, 48
2, 606400, Note_off_c, 1, 80, 0
2, 606400, Note_on_c, 1, 81, 47
2, 606560, Note_off_c, 1, 81, 0
2, 606560, Note_on_c, 1, 82, 47
2, 606720, Note_off_c, 1, 82, 0
2, 606720, Note_on_c, 1, 83, 46
2, 606960, Note_off_c, 1, 83, 0
2, 606960, Note_on_c, 1, 81, 45
2, 607200, Note_off_c, 1, 81, 0
2, 607200, Note_on_c, 1, 80, 44
2, 607440, Note_off_c, 1, 80, 0
2, 607440, Note_on_c, 1, 81, 44
2, 607632, Note_off_c, 1, 81, 0
2, 607680, Note_on_c, 1, 81, 46
2, 608160, Note_off_c, 1, 81, 0
2, 608160, Note_on_c, 1, 81, 45
2, 608280, Note_off_c, 1, 81, 0
2, 608280, Note_on_c, 1, 78, 45
2, 608400, Note_off_c, 1, 78, 0
2, 608400, Note_on_c, 1, 81, 45
2, 608520, Note_off_c, 1, 81, 0
2, 608520, Note_on_c, 1, 78, 44
2, 608616, Note_off_c, 1, 78, 0
2, 608640, Note_on_c, 1, 74, 44
2, 609007, Note_off_c, 1, 74, 0
2, 609120, Note_on_c, 1, 74, 44
2, 609472, Note_off_c, 1, 74, 0
2, 609480, Note_on_c, 1, 78, 43
2, 609600, Note_off_c, 1, 78, 0
2, 609600, Note_on_c, 1, 76, 43
2, 609960, Note_off_c, 1, 76, 0
2, 609960, Note_on_c, 1, 74, 42
2, 610080, Note_off_c, 1, 74, 0
2, 610080, Note_on_c, 1, 76, 42
2, 610440, Note_off_c, 1, 76, 0
2, 610440, Note_on_c, 1, 78, 42
2, 610560, Note_off_c, 1, 78, 0
2, 610560, Note_on_c, 1, 74, 44
2, 611520, Note_off_c, 1, 74, 0
2, 613440, Note_on_c, 1, 81, 59
2, 615535, Note_off_c, 1, 81, 0
2, 615600, Note_on_c, 1, 79, 62
2, 615720, Note_off_c, 1, 79, 0
2, 615720, Note_on_c, 1, 83, 63
2, 615840, Note_off_c, 1, 83, 0
2, 615840, Note_on_c, 1, 76, 64
2, 615960, Note_off_c, 1, 76, 0
2, 615960, Note_on_c, 1, 85, 65
2, 616080, Note_off_c, 1, 85, 0
2, 616080, Note_on_c, 1, 78, 66
2, 616200, Note_off_c, 1, 78, 0
2, 616200, Note_on_c, 1, 86, 67
2, 616320, Note_off_c, 1, 86, 0
2, 616320, Note_on_c, 1, 78, 68
2, 618240, Note_off_c, 1, 78, 0
2, 618480, Note_on_c, 1, 76, 73
2, 618600, Note_off_c, 1, 76, 0
2, 618600, Note_on_c, 1, 79, 74
2, 618720, Note_off_c, 1, 79, 0
2, 618720, Note_on_c, 1, 77, 75
2, 618840, Note_off_c, 1, 77, 0
2, 618840, Note_on_c, 1, 80, 77
2, 618960, Note_off_c, 1, 80, 0
2, 618960, Note_on_c, 1, 78, 78
2, 619080, Note_off_c, 1, 78, 0
2, 619080, Note_on_c, 1, 81, 79
2, 619200, Note_off_c, 1, 81, 0
2, 619200, Note_on_c, 1, 69, 81
2, 619328, Note_off_c, 1, 69, 0
2, 619360, Note_on_c, 1, 86, 80
2, 619520, Note_off_c, 1, 86, 0
2, 619520, Note_on_c, 1, 85, 79
2, 619680, Note_off_c, 1, 85, 0
2, 619680, Note_on_c, 1, 84, 77
2, 619840, Note_off_c, 1, 84, 0
2, 619840, Note_on_c, 1, 83, 76
2, 620000, Note_off_c, 1, 83, 0
2, 620000, Note_on_c, 1, 82, 75
2, 620160, Note_off_c, 1, 82, 0
2, 620160, Note_on_c, 1, 81, 73
2, 620280, Note_off_c, 1, 81, 0
2, 620280, Note_on_c, 1, 80, 72
2, 620400, Note_off_c, 1, 80, 0
2, 620400, Note_on_c, 1, 79, 72
2, 620520, Note_off_c, 1, 79, 0
2, 620520, Note_on_c, 1, 78, 71
2, 620640, Note_off_c, 1, 78, 0
2, 620640, Note_on_c, 1, 77, 70
2, 620800, Note_off_c, 1, 77, 0
2, 620800, Note_on_c, 1, 76, 68
2, 620960, Note_off_c, 1, 76, 0
2, 620960, Note_on_c, 1, 75, 67
2, 621120, Note_off_c, 1, 75, 0
2, 621120, Note_on_c, 1, 74, 66
2, 621360, Note_off_c, 1, 74, 0
2, 621360, Note_on_c, 1, 73, 64
2, 621600, Note_off_c, 1, 73, 0
2, 621600, Note_on_c, 1, 79, 62
2, 621847, Note_off_c, 1, 79, 0
2, 621960, Note_on_c, 1, 73, 59
2, 622056, Note_off_c, 1, 73, 0
2, 622080, Note_on_c, 1, 76, 61
2, 623040, Note_off_c, 1, 76, 0
2, 623040, Note_on_c, 1, 74, 39
2, 623760, Note_off_c, 1, 74, 0
2, 624960, Note_on_c, 1, 81, 52
2, 625116, Note_off_c, 1, 81, 0
2, 625200, Note_on_c, 1, 81, 55
2, 625440, Note_off_c, 1, 81, 0
2, 625440, Note_on_c, 1, 83, 53
2, 625680, Note_off_c, 1, 83, 0
2, 625680, Note_on_c, 1, 79, 50
2, 625836, Note_off_c, 1, 79, 0
2, 625920, Note_on_c, 1, 78, 48
2, 626076, Note_off_c, 1, 78, 0
2, 626160, Note_on_c, 1, 78, 51
2, 626400, Note_off_c, 1, 78, 0
2, 626400, Note_on_c, 1, 79, 49
2, 626640, Note_off_c, 1, 79, 0
2, 626640, Note_on_c, 1, 76, 47
2, 626796, Note_off_c, 1, 76, 0
2, 626880, Note_on_c, 1, 74, 44
2, 627036, Note_off_c, 1, 74, 0
2, 627120, Note_on_c, 1, 74, 44
2, 627276, Note_off_c, 1, 74, 0
2, 627360, Note_on_c, 1, 76, 44
2, 627516, Note_off_c, 1, 76, 0
2, 627600, Note_on_c, 1, 76, 43
2, 627756, Note_off_c, 1, 76, 0
2, 627840, Note_on_c, 1, 77, 52
2, 628080, Note_off_c, 1, 77, 0
2, 628080, Note_on_c, 1, 78, 42
2, 628236, Note_off_c, 1, 78, 0
2, 628320, Note_on_c, 1, 74, 40
2, 628476, Note_off_c, 1, 74, 0
2, 628560, Note_on_c, 1, 69, 38
2, 628716, Note_off_c, 1, 69, 0
2, 628800, Note_on_c, 1, 81, 77
2, 628956, Note_off_c, 1, 81, 0
2, 629040, Note_on_c, 1, 86, 88
2, 629520, Note_off_c, 1, 86, 0
2, 629520, Note_on_c, 1, 81, 76
2, 629676, Note_off_c, 1, 81, 0
2, 629760, Note_on_c, 1, 78, 75
2, 629916, Note_off_c, 1, 78, 0
2, 630000, Note_on_c, 1, 81, 84
2, 630480, Note_off_c, 1, 81, 0
2, 630480, Note_on_c, 1, 74, 73
2, 630636, Note_off_c, 1, 74, 0
2, 630720, Note_on_c, 1, 78, 72
2, 630876, Note_off_c, 1, 78, 0
2, 630960, Note_on_c, 1, 78, 72
2, 631116, Note_off_c, 1, 78, 0
2, 631140, Note_on_c, 1, 78, 71
2, 631200, Note_off_c, 1, 78, 0
2, 631200, Note_on_c, 1, 76, 71
2, 631320, Note_off_c, 1, 76, 0
2, 631320, Note_on_c, 1, 74, 71
2, 631440, Note_off_c, 1, 74, 0
2, 631440, Note_on_c, 1, 76, 70
2, 631560, Note_off_c, 1, 76, 0
2, 631560, Note_on_c, 1, 78, 70
2, 631680, Note_off_c, 1, 78, 0
2, 631680, Note_on_c, 1, 74, 70
2, 632040, Note_off_c, 1, 74, 0
2, 632640, Note_on_c, 1, 81, 52
2, 632796, Note_off_c, 1, 81, 0
2, 632880, Note_on_c, 1, 81, 55
2, 633120, Note_off_c, 1, 81, 0
2, 633120, Note_on_c, 1, 83, 53
2, 633360, Note_off_c, 1, 83, 0
2, 633360, Note_on_c, 1, 79, 50
2, 633516, Note_off_c, 1, 79, 0
2, 633600, Note_on_c, 1, 78, 48
2, 633756, Note_off_c, 1, 78, 0
2, 633840, Note_on_c, 1, 78, 51
2, 634080, Note_off_c, 1, 78, 0
2, 634080, Note_on_c, 1, 79, 49
2, 634320, Note_off_c, 1, 79, 0
2, 634320, Note_on_c, 1, 76, 47
2, 634476, Note_off_c, 1, 76, 0
2, 634560, Note_on_c, 1, 74, 44
2, 634716, Note_off_c, 1, 74, 0
2, 634800, Note_on_c, 1, 74, 44
2, 634956, Note_off_c, 1, 74, 0
2, 635040, Note_on_c, 1, 76, 44
2, 635196, Note_off_c, 1, 76, 0
2, 635280, Note_on_c, 1, 76, 43
2, 635436, Note_off_c, 1, 76, 0
2, 635520, Note_on_c, 1, 77, 52
2, 635760, Note_off_c, 1, 77, 0
2, 635760, Note_on_c, 1, 78, 42
2, 635916, Note_off_c, 1, 78, 0
2, 636000, Note_on_c, 1, 74, 40
2, 636156, Note_off_c, 1, 74, 0
2, 636240, Note_on_c, 1, 69, 38
2, 636396, Note_off_c, 1, 69, 0
2, 636480, Note_on_c, 1, 81, 77
2, 636636, Note_off_c, 1, 81, 0
2, 636720, Note_on_c, 1, 86, 88
2, 637200, Note_off_c, 1, 86, 0
2, 637200, Note_on_c, 1, 81, 76
2, 637356, Note_off_c, 1, 81, 0
2, 637440, Note_on_c, 1, 78, 75
2, 637596, Note_off_c, 1, 78, 0
2, 637680, Note_on_c, 1, 81, 84
2, 638160, Note_off_c, 1, 81, 0
2, 638160, Note_on_c, 1, 74, 73
2, 638316, Note_off_c, 1, 74, 0
2, 638400, Note_on_c, 1, 78, 72
2, 638556, Note_off_c, 1, 78, 0
2, 638640, Note_on_c, 1, 78, 72
2, 638796, Note_off_c, 1, 78, 0
2, 638820, Note_on_c, 1, 78, 71
2, 638880, Note_off_c, 1, 78, 0
2, 638880, Note_on_c, 1, 76, 71
2, 639000, Note_off_c, 1, 76, 0
2, 639000, Note_on_c, 1, 74, 71
2, 639120, Note_off_c, 1, 74, 0
2, 639120, Note_on_c, 1, 76, 70
2, 639240, Note_off_c, 1, 76, 0
2, 639240, Note_on_c, 1, 78, 70
2, 639360, Note_off_c, 1, 78, 0
2, 639360, Note_on_c, 1, 74, 70
2, 639720, Note_off_c, 1, 74, 0
2, 640320, Note_on_c, 1, 76, 85
2, 640680, Note_off_c, 1, 76, 0
2, 640800, Note_on_c, 1, 78, 88
2, 641160, Note_off_c, 1, 78, 0
2, 641280, Note_on_c, 1, 79, 92
2, 641640, Note_off_c, 1, 79, 0
2, 642120, Note_on_c, 1, 76, 51
2, 642216, Note_off_c, 1, 76, 0
2, 642240, Note_on_c, 1, 78, 50
2, 642360, Note_off_c, 1, 78, 0
2, 642360, Note_on_c, 1, 73, 49
2, 642480, Note_off_c, 1, 73, 0
2, 642480, Note_on_c, 1, 74, 47
2, 642600, Note_off_c, 1, 74, 0
2, 642600, Note_on_c, 1, 78, 46
2, 642720, Note_off_c, 1, 78, 0
2, 642720, Note_on_c, 1, 79, 45
2, 642840, Note_off_c, 1, 79, 0
2, 642840, Note_on_c, 1, 75, 44
2, 642960, Note_off_c, 1, 75, 0
2, 642960, Note_on_c, 1, 76, 43
2, 643080, Note_off_c, 1, 76, 0
2, 643080, Note_on_c, 1, 79, 42
2, 643200, Control_c, 1, 64, 0
2, 643200, Note_off_c, 1, 79, 0
2, 643200, Note_on_c, 1, 81, 41
2, 643560, Note_off_c, 1, 81, 0
2, 643920, Note_on_c, 1, 86, 54
2, 644040, Note_off_c, 1, 86, 0
2, 644040, Note_on_c, 1, 85, 57
2, 644136, Note_off_c, 1, 85, 0
2, 644160, Note_on_c, 1, 85, 59
2, 644280, Note_off_c, 1, 85, 0
2, 644280, Note_on_c, 1, 83, 62
2, 644376, Note_off_c, 1, 83, 0
2, 644400, Note_on_c, 1, 83, 64
2, 644520, Note_off_c, 1, 83, 0
2, 644520, Note_on_c, 1, 81, 66
2, 644616, Note_off_c, 1, 81, 0
2, 644640, Note_on_c, 1, 81, 69
2, 644760, Note_off_c, 1, 81, 0
2, 644760, Note_on_c, 1, 79, 71
2, 644856, Note_off_c, 1, 79, 0
2, 644880, Note_on_c, 1, 79, 73
2, 645000, Note_off_c, 1, 79, 0
2, 645000, Note_on_c, 1, 78, 76
2, 645096, Note_off_c, 1, 78, 0
2, 645120, Note_on_c, 1, 83, 81
2, 645787, Note_off_c, 1, 83, 0
2, 645840, Note_on_c, 1, 81, 73
2, 646032, Note_off_c, 1, 81, 0
2, 646080, Note_on_c, 1, 80, 70
2, 646272, Note_off_c, 1, 80, 0
2, 646320, Note_on_c, 1, 79, 67
2, 646512, Note_off_c, 1, 79, 0
2, 646560, Note_on_c, 1, 78, 64
2, 646752, Note_off_c, 1, 78, 0
2, 646800, Note_on_c, 1, 77, 61
2, 646992, Note_off_c, 1, 77, 0
2, 647040, Note_on_c, 1, 76, 59
2, 647232, Note_off_c, 1, 76, 0
2, 647280, Note_on_c, 1, 78, 56
2, 647520, Note_off_c, 1, 78, 0
2, 647520, Note_on_c, 1, 79, 53
2, 647760, Note_off_c, 1, 79, 0
2, 647760, Note_on_c, 1, 80, 50
2, 648000, Note_off_c, 1, 80, 0
2, 648000, Note_on_c, 1, 81, 55
2, 648156, Note_off_c, 1, 81, 0
2, 648240, Note_on_c, 1, 81, 57
2, 648480, Note_off_c, 1, 81, 0
2, 648480, Note_on_c, 1, 83, 55
2, 648720, Note_off_c, 1, 83, 0
2, 648720, Note_on_c, 1, 79, 54
2, 648876, Note_off_c, 1, 79, 0
2, 648960, Note_on_c, 1, 78, 52
2, 649116, Note_off_c, 1, 78, 0
2, 649200, Note_on_c, 1, 78, 55
2, 649440, Note_off_c, 1, 78, 0
2, 649440, Note_on_c, 1, 79, 54
2, 649680, Note_off_c, 1, 79, 0
2, 649680, Note_on_c, 1, 76, 52
2, 649836, Note_off_c, 1, 76, 0
2, 649920, Note_on_c, 1, 74, 50
2, 650076, Note_off_c, 1, 74, 0
2, 650160, Note_on_c, 1, 74, 50
2, 650316, Note_off_c, 1, 74, 0
2, 650400, Note_on_c, 1, 76, 49
2, 650556, Note_off_c, 1, 76, 0
2, 650640, Note_on_c, 1, 76, 48
2, 650796, Note_off_c, 1, 76, 0
2, 650880, Note_on_c, 1, 77, 58
2, 651120, Note_off_c, 1, 77, 0
2, 651120, Note_on_c, 1, 78, 47
2, 651276, Note_off_c, 1, 78, 0
2, 651360, Note_on_c, 1, 74, 46
2, 651516, Note_off_c, 1, 74, 0
2, 651600, Note_on_c, 1, 69, 46
2, 651756, Note_off_c, 1, 69, 0
2, 651840, Note_on_c, 1, 81, 83
2, 651996, Note_off_c, 1, 81, 0
2, 652080, Note_on_c, 1, 86, 93
2, 652560, Note_off_c, 1, 86, 0
2, 652560, Note_on_c, 1, 81, 82
2, 652716, Note_off_c, 1, 81, 0
2, 652800, Note_on_c, 1, 78, 81
2, 652956, Note_off_c, 1, 78, 0
2, 653040, Note_on_c, 1, 81, 91
2, 653520, Note_off_c, 1, 81, 0
2, 653520, Note_on_c, 1, 74, 80
2, 653676, Note_off_c, 1, 74, 0
2, 653760, Note_on_c, 1, 78, 80
2, 653916, Note_off_c, 1, 78, 0
2, 654000, Note_on_c, 1, 78, 80
2, 654156, Note_off_c, 1, 78, 0
2, 654180, Note_on_c, 1, 78, 79
2, 654240, Note_off_c, 1, 78, 0
2, 654240, Note_on_c, 1, 76, 79
2, 654360, Note_off_c, 1, 76, 0
2, 654360, Note_on_c, 1, 74, 78
2, 654480, Note_off_c, 1, 74, 0
2, 654480, Note_on_c, 1, 76, 77
2, 654600, Note_off_c, 1, 76, 0
2, 654600, Note_on_c, 1, 78, 77
2, 654720, Note_off_c, 1, 78, 0
2, 654720, Note_on_c, 1, 74, 76
2, 655080, Note_off_c, 1, 74, 0
2, 655680, Note_on_c, 1, 76, 85
2, 656040, Note_off_c, 1, 76, 0
2, 656160, Note_on_c, 1, 78, 88
2, 656520, Note_off_c, 1, 78, 0
2, 656640, Note_on_c, 1, 79, 92
2, 657000, Note_off_c, 1, 79, 0
2, 657480, Note_on_c, 1, 76, 51
2, 657576, Note_off_c, 1, 76, 0
2, 657600, Note_on_c, 1, 78, 50
2, 657720, Note_off_c, 1, 78, 0
2, 657720, Note_on_c, 1, 73, 49
2, 657840, Note_off_c, 1, 73, 0
2, 657840, Note_on_c, 1, 74, 47
2, 657960, Note_off_c, 1, 74, 0
2, 657960, Note_on_c, 1, 78, 46
2, 658080, Note_off_c, 1, 78, 0
2, 658080, Note_on_c, 1, 79, 45
2, 658200, Note_off_c, 1, 79, 0
2, 658200, Note_on_c, 1, 75, 44
2, 658320, Note_off_c, 1, 75, 0
2, 658320, Note_on_c, 1, 76, 43
2, 658440, Note_off_c, 1, 76, 0
2, 658440, Note_on_c, 1, 79, 42
2, 658560, Control_c, 1, 64, 0
2, 658560, Note_off_c, 1, 79, 0
2, 658560, Note_on_c, 1, 81, 41
2, 658920, Note_off_c, 1, 81, 0
2, 659280, Note_on_c, 1, 86, 54
2, 659400, Note_off_c, 1, 86, 0
2, 659400, Note_on_c, 1, 85, 57
2, 659496, Note_off_c, 1, 85, 0
2, 659520, Note_on_c, 1, 85, 59
2, 659640, Note_off_c, 1, 85, 0
2, 659640, Note_on_c, 1, 83, 62
2, 659736, Note_off_c, 1, 83, 0
2, 659760, Note_on_c, 1, 83, 64
2, 659880, Note_off_c, 1, 83, 0
2, 659880, Note_on_c, 1, 81, 66
2, 659976, Note_off_c, 1, 81, 0
2, 660000, Note_on_c, 1, 81, 69
2, 660120, Note_off_c, 1, 81, 0
2, 660120, Note_on_c, 1, 79, 71
2, 660216, Note_off_c, 1, 79, 0
2, 660240, Note_on_c, 1, 79, 73
2, 660360, Note_off_c, 1, 79, 0
2, 660360, Note_on_c, 1, 78, 76
2, 660456, Note_off_c, 1, 78, 0
2, 660480, Note_on_c, 1, 83, 81
2, 661147, Note_off_c, 1, 83, 0
2, 661200, Note_on_c, 1, 81, 73
2, 661392, Note_off_c, 1, 81, 0
2, 661440, Note_on_c, 1, 80, 70
2, 661632, Note_off_c, 1, 80, 0
2, 661680, Note_on_c, 1, 79, 67
2, 661872, Note_off_c, 1, 79, 0
2, 661920, Note_on_c, 1, 78, 64
2, 662112, Note_off_c, 1, 78, 0
2, 662160, Note_on_c, 1, 77, 61
2, 662352, Note_off_c, 1, 77, 0
2, 662400, Note_on_c, 1, 76, 59
2, 662592, Note_off_c, 1, 76, 0
2, 662640, Note_on_c, 1, 78, 56
2, 662880, Note_off_c, 1, 78, 0
2, 662880, Note_on_c, 1, 79, 53
2, 663120, Note_off_c, 1, 79, 0
2, 663120, Note_on_c, 1, 80, 50
2, 663360, Note_off_c, 1, 80, 0
2, 663360, Note_on_c, 1, 81, 55
2, 663516, Note_off_c, 1, 81, 0
2, 663600, Note_on_c, 1, 81, 57
2, 663840, Note_off_c, 1, 81, 0
2, 663840, Note_on_c, 1, 83, 55
2, 664080, Note_off_c, 1, 83, 0
2, 664080, Note_on_c, 1, 79, 54
2, 664236, Note_off_c, 1, 79, 0
2, 664320, Note_on_c, 1, 78, 52
2, 664476, Note_off_c, 1, 78, 0
2, 664560, Note_on_c, 1, 78, 55
2, 664800, Note_off_c, 1, 78, 0
2, 664800, Note_on_c, 1, 79, 54
2, 665040, Note_off_c, 1, 79, 0
2, 665040, Note_on_c, 1, 76, 52
2, 665196, Note_off_c, 1, 76, 0
2, 665280, Note_on_c, 1, 74, 50
2, 665436, Note_off_c, 1, 74, 0
2, 665520, Note_on_c, 1, 74, 50
2, 665676, Note_off_c, 1, 74, 0
2, 665760, Note_on_c, 1, 76, 49
2, 665916, Note_off_c, 1, 76, 0
2, 666000, Note_on_c, 1, 76, 48
2, 666156, Note_off_c, 1, 76, 0
2, 666240, Note_on_c, 1, 77, 58
2, 666480, Note_off_c, 1, 77, 0
2, 666480, Note_on_c, 1, 78, 47
2, 666636, Note_off_c, 1, 78, 0
2, 666720, Note_on_c, 1, 74, 46
2, 666876, Note_off_c, 1, 74, 0
2, 666960, Note_on_c, 1, 69, 46
2, 667116, Note_off_c, 1, 69, 0
2, 667200, Note_on_c, 1, 81, 83
2, 667356, Note_off_c, 1, 81, 0
2, 667440, Note_on_c, 1, 86, 93
2, 667920, Note_off_c, 1, 86, 0
2, 667920, Note_on_c, 1, 81, 82
2, 668076, Note_off_c, 1, 81, 0
2, 668160, Note_on_c, 1, 78, 81
2, 668316, Note_off_c, 1, 78, 0
2, 668400, Note_on_c, 1, 81, 91
2, 668880, Note_off_c, 1, 81, 0
2, 668880, Note_on_c, 1, 74, 80
2, 669036, Note_off_c, 1, 74, 0
2, 669120, Note_on_c, 1, 78, 80
2, 669276, Note_off_c, 1, 78, 0
2, 669360, Note_on_c, 1, 78, 80
2, 669516, Note_off_c, 1, 78, 0
2, 669540, Note_on_c, 1, 78, 79
2, 669600, Note_off_c, 1, 78, 0
2, 669600, Note_on_c, 1, 76, 79
2, 669720, Note_off_c, 1, 76, 0
2, 669720, Note_on_c, 1, 74, 78
2, 669840, Note_off_c, 1, 74, 0
2, 669840, Note_on_c, 1, 76, 77
2, 669960, Note_off_c, 1, 76, 0
2, 669960, Note_on_c, 1, 78, 77
2, 670080, Note_off_c, 1, 78, 0
2, 670080, Note_on_c, 1, 74, 76
2, 670440, Note_off_c, 1, 74, 0
2, 671040, Note_on_c, 1, 72, 47
2, 671196, Note_off_c, 1, 72, 0
2, 671280, Note_on_c, 1, 72, 45
2, 671436, Note_off_c, 1, 72, 0
2, 671520, Note_on_c, 1, 72, 43
2, 671560, Note_off_c, 1, 72, 0
2, 671560, Note_on_c, 1, 74, 43
2, 671600, Note_off_c, 1, 74, 0
2, 671600, Note_on_c, 1, 72, 43
2, 671640, Note_off_c, 1, 72, 0
2, 671640, Note_on_c, 1, 71, 42
2, 671760, Note_off_c, 1, 71, 0
2, 671760, Note_on_c, 1, 72, 41
2, 671880, Note_off_c, 1, 72, 0
2, 671880, Note_on_c, 1, 74, 40
2, 672000, Note_off_c, 1, 74, 0
2, 672000, Note_on_c, 1, 71, 39
2, 672360, Note_off_c, 1, 71, 0
2, 672960, Note_on_c, 1, 69, 39
2, 673116, Note_off_c, 1, 69, 0
2, 673200, Note_on_c, 1, 69, 38
2, 673356, Note_off_c, 1, 69, 0
2, 673440, Note_on_c, 1, 69, 36
2, 673480, Note_off_c, 1, 69, 0
2, 673480, Note_on_c, 1, 71, 36
2, 673520, Note_off_c, 1, 71, 0
2, 673520, Note_on_c, 1, 69, 35
2, 673560, Note_off_c, 1, 69, 0
2, 673560, Note_on_c, 1, 68, 35
2, 673680, Note_off_c, 1, 68, 0
2, 673680, Note_on_c, 1, 69, 34
2, 673800, Note_off_c, 1, 69, 0
2, 673800, Note_on_c, 1, 71, 33
2, 673920, Note_off_c, 1, 71, 0
2, 673920, Note_on_c, 1, 67, 32
2, 674280, Note_off_c, 1, 67, 0
2, 674880, Note_on_c, 1, 79, 52
2, 675036, Note_off_c, 1, 79, 0
2, 675120, Note_on_c, 1, 79, 54
2, 675276, Note_off_c, 1, 79, 0
2, 675360, Note_on_c, 1, 79, 61
2, 675480, Note_off_c, 1, 79, 0
2, 675480, Note_on_c, 1, 78, 57
2, 675600, Note_off_c, 1, 78, 0
2, 675600, Note_on_c, 1, 79, 57
2, 675720, Note_off_c, 1, 79, 0
2, 675720, Note_on_c, 1, 81, 58
2, 675840, Note_off_c, 1, 81, 0
2, 675840, Note_on_c, 1, 79, 59
2, 675960, Note_off_c, 1, 79, 0
2, 675960, Note_on_c, 1, 76, 60
2, 676080, Note_off_c, 1, 76, 0
2, 676080, Note_on_c, 1, 79, 61
2, 676200, Note_off_c, 1, 79, 0
2, 676200, Note_on_c, 1, 85, 62
2, 676320, Note_off_c, 1, 85, 0
2, 676320, Note_on_c, 1, 88, 63
2, 676440, Note_off_c, 1, 88, 0
2, 676440, Note_on_c, 1, 79, 64
2, 676560, Note_off_c, 1, 79, 0
2, 676560, Note_on_c, 1, 86, 75
2, 676680, Note_off_c, 1, 86, 0
2, 676680, Note_on_c, 1, 79, 65
2, 676776, Note_off_c, 1, 79, 0
2, 676800, Note_on_c, 1, 88, 66
2, 676920, Note_off_c, 1, 88, 0
2, 676920, Note_on_c, 1, 79, 67
2, 677040, Note_off_c, 1, 79, 0
2, 677040, Note_on_c, 1, 76, 68
2, 677160, Note_off_c, 1, 76, 0
2, 677160, Note_on_c, 1, 79, 69
2, 677280, Note_off_c, 1, 79, 0
2, 677280, Note_on_c, 1, 88, 70
2, 677400, Note_off_c, 1, 88, 0
2, 677400, Note_on_c, 1, 79, 71
2, 677520, Note_off_c, 1, 79, 0
2, 677520, Note_on_c, 1, 86, 82
2, 677640, Note_off_c, 1, 86, 0
2, 677640, Note_on_c, 1, 79, 73
2, 677736, Note_off_c, 1, 79, 0
2, 677760, Note_on_c, 1, 85, 74
2, 677880, Note_off_c, 1, 85, 0
2, 677880, Note_on_c, 1, 79, 74
2, 678000, Note_off_c, 1, 79, 0
2, 678000, Note_on_c, 1, 76, 75
2, 678120, Note_off_c, 1, 76, 0
2, 678120, Note_on_c, 1, 79, 76
2, 678240, Note_off_c, 1, 79, 0
2, 678240, Note_on_c, 1, 88, 77
2, 678360, Note_off_c, 1, 88, 0
2, 678360, Note_on_c, 1, 79, 78
2, 678480, Note_off_c, 1, 79, 0
2, 678480, Note_on_c, 1, 86, 89
2, 678600, Note_off_c, 1, 86, 0
2, 678600, Note_on_c, 1, 79, 80
2, 678696, Note_off_c, 1, 79, 0
2, 678720, Note_on_c, 1, 85, 81
2, 678840, Note_off_c, 1, 85, 0
2, 678840, Note_on_c, 1, 79, 82
2, 678960, Note_off_c, 1, 79, 0
2, 678960, Note_on_c, 1, 86, 93
2, 679080, Note_off_c, 1, 86, 0
2, 679080, Note_on_c, 1, 79, 83
2, 679200, Note_off_c, 1, 79, 0
2, 679200, Note_on_c, 1, 85, 84
2, 679320, Note_off_c, 1, 85, 0
2, 679320, Note_on_c, 1, 79, 85
2, 679440, Note_off_c, 1, 79, 0
2, 679440, Note_on_c, 1, 86, 99
2, 679560, Note_off_c, 1, 86, 0
2, 679560, Note_on_c, 1, 79, 87
2, 679656, Note_off_c, 1, 79, 0
2, 679680, Note_on_c, 1, 85, 100
2, 679800, Note_off_c, 1, 85, 0
2, 679800, Note_on_c, 1, 81, 92
2, 679920, Note_off_c, 1, 81, 0
2, 679920, Note_on_c, 1, 88, 90
2, 680040, Note_off_c, 1, 88, 0
2, 680040, Note_on_c, 1, 79, 89
2, 680160, Note_off_c, 1, 79, 0
2, 680160, Note_on_c, 1, 78, 88
2, 680280, Note_off_c, 1, 78, 0
2, 680280, Note_on_c, 1, 81, 87
2, 680400, Note_off_c, 1, 81, 0
2, 680400, Note_on_c, 1, 88, 86
2, 680520, Note_off_c, 1, 88, 0
2, 680520, Note_on_c, 1, 86, 85
2, 680640, Note_off_c, 1, 86, 0
2, 680640, Note_on_c, 1, 76, 84
2, 680760, Note_off_c, 1, 76, 0
2, 680760, Note_on_c, 1, 79, 83
2, 680880, Note_off_c, 1, 79, 0
2, 680880, Note_on_c, 1, 86, 82
2, 681000, Note_off_c, 1, 86, 0
2, 681000, Note_on_c, 1, 85, 81
2, 681120, Note_off_c, 1, 85, 0
2, 681120, Note_on_c, 1, 74, 80
2, 681240, Note_off_c, 1, 74, 0
2, 681240, Note_on_c, 1, 78, 79
2, 681360, Note_off_c, 1, 78, 0
2, 681360, Note_on_c, 1, 85, 78
2, 681480, Note_off_c, 1, 85, 0
2, 681480, Note_on_c, 1, 83, 77
2, 681600, Note_off_c, 1, 83, 0
2, 681600, Note_on_c, 1, 73, 76
2, 681720, Note_off_c, 1, 73, 0
2, 681720, Note_on_c, 1, 76, 75
2, 681840, Note_off_c, 1, 76, 0
2, 681840, Note_on_c, 1, 83, 74
2, 681960, Note_off_c, 1, 83, 0
2, 681960, Note_on_c, 1, 81, 73
2, 682080, Note_off_c, 1, 81, 0
2, 682080, Note_on_c, 1, 71, 72
2, 682200, Note_off_c, 1, 71, 0
2, 682200, Note_on_c, 1, 74, 71
2, 682320, Note_off_c, 1, 74, 0
2, 682320, Note_on_c, 1, 81, 70
2, 682440, Note_off_c, 1, 81, 0
2, 682440, Note_on_c, 1, 79, 69
2, 682560, Note_off_c, 1, 79, 0
2, 682560, Note_on_c, 1, 69, 68
2, 682680, Note_off_c, 1, 69, 0
2, 682680, Note_on_c, 1, 73, 67
2, 682800, Note_off_c, 1, 73, 0
2, 682800, Note_on_c, 1, 79, 66
2, 682920, Note_off_c, 1, 79, 0
2, 682920, Note_on_c, 1, 78, 65
2, 683040, Note_off_c, 1, 78, 0
2, 683040, Note_on_c, 1, 67, 64
2, 683160, Note_off_c, 1, 67, 0
2, 683160, Note_on_c, 1, 71, 63
2, 683280, Note_off_c, 1, 71, 0
2, 683280, Note_on_c, 1, 78, 62
2, 683400, Note_off_c, 1, 78, 0
2, 683400, Note_on_c, 1, 76, 61
2, 683520, Note_off_c, 1, 76, 0
2, 683520, Note_on_c, 1, 66, 60
2, 683640, Note_off_c, 1, 66, 0
2, 683640, Note_on_c, 1, 69, 59
2, 683760, Note_off_c, 1, 69, 0
2, 683760, Note_on_c, 1, 76, 58
2, 683880, Note_off_c, 1, 76, 0
2, 683880, Note_on_c, 1, 74, 57
2, 684000, Note_off_c, 1, 74, 0
2, 684000, Note_on_c, 1, 64, 56
2, 684120, Note_off_c, 1, 64, 0
2, 684120, Note_on_c, 1, 67, 55
2, 684240, Note_off_c, 1, 67, 0
2, 684240, Note_on_c, 1, 74, 54
2, 684360, Note_off_c, 1, 74, 0
2, 684360, Note_on_c, 1, 73, 53
2, 684480, Note_off_c, 1, 73, 0
2, 684480, Note_on_c, 1, 62, 52
2, 684600, Note_off_c, 1, 62, 0
2, 684600, Note_on_c, 1, 66, 51
2, 684720, Note_off_c, 1, 66, 0
2, 684720, Note_on_c, 1, 73, 50
2, 684840, Note_off_c, 1, 73, 0
2, 684840, Note_on_c, 1, 71, 49
2, 684960, Note_off_c, 1, 71, 0
2, 684960, Note_on_c, 1, 61, 48
2, 685080, Note_off_c, 1, 61, 0
2, 685080, Note_on_c, 1, 64, 47
2, 685200, Note_off_c, 1, 64, 0
2, 685200, Note_on_c, 1, 71, 46
2, 685320, Note_off_c, 1, 71, 0
2, 685320, Note_on_c, 1, 69, 45
2, 685416, Note_off_c, 1, 69, 0
2, 685680, Note_on_c, 1, 74, 45
2, 685920, Note_off_c, 1, 74, 0
2, 685920, Note_on_c, 1, 76, 46
2, 686160, Note_off_c, 1, 76, 0
2, 686160, Note_on_c, 1, 77, 48
2, 686352, Note_off_c, 1, 77, 0
2, 686640, Note_on_c, 1, 74, 50
2, 686880, Note_off_c, 1, 74, 0
2, 686880, Note_on_c, 1, 76, 52
2, 687120, Note_off_c, 1, 76, 0
2, 687120, Note_on_c, 1, 77, 53
2, 687312, Note_off_c, 1, 77, 0
2, 687600, Note_on_c, 1, 74, 56
2, 687840, Note_off_c, 1, 74, 0
2, 687840, Note_on_c, 1, 76, 57
2, 688080, Note_off_c, 1, 76, 0
2, 688080, Note_on_c, 1, 77, 59
2, 688272, Note_off_c, 1, 77, 0
2, 688320, Note_on_c, 1, 77, 63
2, 688560, Note_off_c, 1, 77, 0
2, 688560, Note_on_c, 1, 76, 62
2, 688752, Note_off_c, 1, 76, 0
2, 688800, Note_on_c, 1, 76, 60
2, 689040, Note_off_c, 1, 76, 0
2, 689040, Note_on_c, 1, 74, 59
2, 689232, Note_off_c, 1, 74, 0
2, 694080, Note_on_c, 1, 45, 98
2, 695760, Note_on_c, 1, 47, 71
2, 695767, Note_off_c, 1, 45, 0
2, 695840, Note_off_c, 1, 47, 0
2, 695840, Note_on_c, 1, 45, 71
2, 695920, Note_off_c, 1, 45, 0
2, 695920, Note_on_c, 1, 44, 71
2, 696000, Note_off_c, 1, 44, 0
2, 696000, Note_on_c, 1, 45, 70
2, 696060, Note_off_c, 1, 45, 0
2, 696060, Note_on_c, 1, 49, 70
2, 696120, Note_off_c, 1, 49, 0
2, 696120, Note_on_c, 1, 47, 70
2, 696180, Note_off_c, 1, 47, 0
2, 696180, Note_on_c, 1, 50, 70
2, 696240, Note_off_c, 1, 50, 0
2, 696240, Note_on_c, 1, 49, 69
2, 696300, Note_off_c, 1, 49, 0
2, 696300, Note_on_c, 1, 52, 69
2, 696360, Note_off_c, 1, 52, 0
2, 696360, Note_on_c, 1, 50, 69
2, 696420, Note_off_c, 1, 50, 0
2, 696420, Note_on_c, 1, 54, 69
2, 696480, Note_off_c, 1, 54, 0
2, 696480, Note_on_c, 1, 52, 69
2, 696540, Note_off_c, 1, 52, 0
2, 696540, Note_on_c, 1, 55, 68
2, 696600, Note_off_c, 1, 55, 0
2, 696600, Note_on_c, 1, 54, 68
2, 696660, Note_off_c, 1, 54, 0
2, 696660, Note_on_c, 1, 57, 68
2, 696720, Note_off_c, 1, 57, 0
2, 696720, Note_on_c, 1, 55, 68
2, 696780, Note_off_c, 1, 55, 0
2, 696780, Note_on_c, 1, 59, 67
2, 696840, Note_off_c, 1, 59, 0
2, 696840, Note_on_c, 1, 57, 67
2, 696900, Note_off_c, 1, 57, 0
2, 696900, Note_on_c, 1, 61, 67
2, 696960, Note_off_c, 1, 61, 0
2, 696960, Note_on_c, 1, 59, 67
2, 697020, Note_off_c, 1, 59, 0
2, 697020, Note_on_c, 1, 62, 66
2, 697080, Note_off_c, 1, 62, 0
2, 697080, Note_on_c, 1, 61, 66
2, 697140, Note_off_c, 1, 61, 0
2, 697140, Note_on_c, 1, 64, 66
2, 697200, Note_off_c, 1, 64, 0
2, 697200, Note_on_c, 1, 62, 66
2, 697260, Note_off_c, 1, 62, 0
2, 697260, Note_on_c, 1, 66, 65
2, 697320, Note_off_c, 1, 66, 0
2, 697320, Note_on_c, 1, 64, 65
2, 697380, Note_off_c, 1, 64, 0
2, 697380, Note_on_c, 1, 67, 65
2, 697440, Note_off_c, 1, 67, 0
2, 697440, Note_on_c, 1, 66, 65
2, 697500, Note_off_c, 1, 66, 0
2, 697500, Note_on_c, 1, 69, 64
2, 697560, Note_off_c, 1, 69, 0
2, 697560, Note_on_c, 1, 67, 64
2, 697620, Note_off_c, 1, 67, 0
2, 697620, Note_on_c, 1, 71, 64
2, 697680, Note_off_c, 1, 71, 0
2, 697680, Note_on_c, 1, 69, 64
2, 697740, Note_off_c, 1, 69, 0
2, 697740, Note_on_c, 1, 73, 63
2, 697800, Note_off_c, 1, 73, 0
2, 697800, Note_on_c, 1, 71, 63
2, 697860, Note_off_c, 1, 71, 0
2, 697860, Note_on_c, 1, 74, 63
2, 697920, Note_off_c, 1, 74, 0
2, 697920, Note_on_c, 1, 73, 63
2, 697980, Note_off_c, 1, 73, 0
2, 697980, Note_on_c, 1, 76, 63
2, 698040, Note_off_c, 1, 76, 0
2, 698040, Note_on_c, 1, 74, 62
2, 698100, Note_off_c, 1, 74, 0
2, 698100, Note_on_c, 1, 78, 62
2, 698160, Note_off_c, 1, 78, 0
2, 698160, Note_on_c, 1, 76, 62
2, 698220, Note_off_c, 1, 76, 0
2, 698220, Note_on_c, 1, 79, 62
2, 698280, Note_off_c, 1, 79, 0
2, 698280, Note_on_c, 1, 78, 61
2, 698340, Note_off_c, 1, 78, 0
2, 698340, Note_on_c, 1, 81, 61
2, 698400, Note_off_c, 1, 81, 0
2, 698400, Note_on_c, 1, 79, 61
2, 698460, Note_off_c, 1, 79, 0
2, 698460, Note_on_c, 1, 81, 61
2, 698520, Note_off_c, 1, 81, 0
2, 698520, Note_on_c, 1, 79, 60
2, 698580, Note_off_c, 1, 79, 0
2, 698580, Note_on_c, 1, 81, 60
2, 698640, Note_off_c, 1, 81, 0
2, 698640, Note_on_c, 1, 79, 60
2, 698700, Note_off_c, 1, 79, 0
2, 698700, Note_on_c, 1, 81, 60
2, 698760, Note_off_c, 1, 81, 0
2, 698760, Note_on_c, 1, 79, 59
2, 698820, Note_off_c, 1, 79, 0
2, 698820, Note_on_c, 1, 81, 59
2, 698880, Note_off_c, 1, 81, 0
2, 698880, Note_on_c, 1, 79, 59
2, 698940, Note_off_c, 1, 79, 0
2, 698940, Note_on_c, 1, 81, 59
2, 699000, Note_off_c, 1, 81, 0
2, 699000, Note_on_c, 1, 79, 58
2, 699060, Note_off_c, 1, 79, 0
2, 699060, Note_on_c, 1, 81, 58
2, 699120, Note_off_c, 1, 81, 0
2, 699120, Note_on_c, 1, 79, 58
2, 699180, Note_off_c, 1, 79, 0
2, 699180, Note_on_c, 1, 81, 58
2, 699240, Note_off_c, 1, 81, 0
2, 699240, Note_on_c, 1, 79, 58
2, 699300, Note_off_c, 1, 79, 0
2, 699300, Note_on_c, 1, 81, 57
2, 699360, Note_off_c, 1, 81, 0
2, 699360, Note_on_c, 1, 80, 57
2, 699420, Note_off_c, 1, 80, 0
2, 699420, Note_on_c, 1, 81, 57
2, 699480, Note_off_c, 1, 81, 0
2, 699480, Note_on_c, 1, 80, 57
2, 699540, Note_off_c, 1, 80, 0
2, 699540, Note_on_c, 1, 81, 56
2, 699600, Note_off_c, 1, 81, 0
2, 699600, Note_on_c, 1, 80, 56
2, 699660, Note_off_c, 1, 80, 0
2, 699660, Note_on_c, 1, 81, 56
2, 699720, Note_off_c, 1, 81, 0
2, 699720, Note_on_c, 1, 80, 56
2, 699780, Note_off_c, 1, 80, 0
2, 699780, Note_on_c, 1, 81, 55
2, 699840, Note_off_c, 1, 81, 0
2, 699840, Note_on_c, 1, 80, 55
2, 699900, Note_off_c, 1, 80, 0
2, 699900, Note_on_c, 1, 81, 55
2, 699960, Note_off_c, 1, 81, 0
2, 699960, Note_on_c, 1, 80, 55
2, 700020, Note_off_c, 1, 80, 0
2, 700020, Note_on_c, 1, 81, 54
2, 700080, Note_off_c, 1, 81, 0
2, 700080, Note_on_c, 1, 80, 54
2, 700120, Note_off_c, 1, 80, 0
2, 700120, Note_on_c, 1, 81, 54
2, 700160, Note_off_c, 1, 81, 0
2, 700160, Note_on_c, 1, 80, 54
2, 700200, Note_off_c, 1, 80, 0
2, 700200, Note_on_c, 1, 78, 54
2, 700260, Note_off_c, 1, 78, 0
2, 700260, Note_on_c, 1, 80, 53
2, 700320, Note_off_c, 1, 80, 0
2, 700320, Note_on_c, 1, 83, 53
2, 700680, Note_off_c, 1, 83, 0
2, 700680, Note_on_c, 1, 81, 52
2, 700776, Note_off_c, 1, 81, 0
2, 700800, Note_on_c, 1, 81, 57
2, 701520, Note_off_c, 1, 81, 0
2, 701520, Note_on_c, 1, 83, 53
2, 701580, Note_off_c, 1, 83, 0
2, 701580, Note_on_c, 1, 81, 53
2, 701640, Note_off_c, 1, 81, 0
2, 701640, Note_on_c, 1, 80, 53
2, 701700, Note_off_c, 1, 80, 0
2, 701700, Note_on_c, 1, 81, 52
2, 701760, Note_off_c, 1, 81, 0
2, 701760, Note_on_c, 1, 86, 52
2, 702120, Note_off_c, 1, 86, 0
2, 702120, Note_on_c, 1, 81, 50
2, 702216, Note_off_c, 1, 81, 0
2, 702240, Note_on_c, 1, 78, 55
2, 702960, Note_on_c, 1, 79, 52
2, 702963, Note_off_c, 1, 78, 0
2, 703020, Note_off_c, 1, 79, 0
2, 703020, Note_on_c, 1, 78, 52
2, 703080, Note_off_c, 1, 78, 0
2, 703080, Note_on_c, 1, 76, 52
2, 703140, Note_off_c, 1, 76, 0
2, 703140, Note_on_c, 1, 78, 52
2, 703200, Note_off_c, 1, 78, 0
2, 703200, Note_on_c, 1, 81, 51
2, 703560, Note_off_c, 1, 81, 0
2, 703560, Note_on_c, 1, 78, 50
2, 703656, Note_off_c, 1, 78, 0
2, 703680, Note_on_c, 1, 74, 53
2, 704160, Note_off_c, 1, 74, 0
2, 704160, Note_on_c, 1, 74, 52
2, 704640, Note_off_c, 1, 74, 0
2, 704640, Note_on_c, 1, 76, 52
2, 704720, Note_off_c, 1, 76, 0
2, 704720, Note_on_c, 1, 78, 52
2, 704800, Note_off_c, 1, 78, 0
2, 704800, Note_on_c, 1, 76, 51
2, 704880, Note_off_c, 1, 76, 0
2, 704880, Note_on_c, 1, 74, 51
2, 705000, Note_off_c, 1, 74, 0
2, 705000, Note_on_c, 1, 76, 51
2, 705120, Note_off_c, 1, 76, 0
2, 705120, Note_on_c, 1, 77, 51
2, 705360, Note_off_c, 1, 77, 0
2, 705360, Note_on_c, 1, 78, 46
2, 705480, Note_off_c, 1, 78, 0
2, 705600, Note_on_c, 1, 73, 50
2, 705840, Note_off_c, 1, 73, 0
2, 705840, Note_on_c, 1, 74, 46
2, 705960, Note_off_c, 1, 74, 0
2, 706080, Note_on_c, 1, 68, 49
2, 706320, Note_off_c, 1, 68, 0
2, 706320, Note_on_c, 1, 69, 41
2, 706440, Note_off_c, 1, 69, 0
2, 706560, Note_on_c, 1, 81, 48
2, 706752, Note_off_c, 1, 81, 0
2, 706800, Note_on_c, 1, 82, 49
2, 706992, Note_off_c, 1, 82, 0
2, 707040, Note_on_c, 1, 83, 50
2, 707232, Note_off_c, 1, 83, 0
2, 707280, Note_on_c, 1, 85, 52
2, 707472, Note_off_c, 1, 85, 0
2, 707520, Note_on_c, 1, 88, 56
2, 707760, Note_off_c, 1, 88, 0
2, 707760, Note_on_c, 1, 86, 52
2, 707952, Note_off_c, 1, 86, 0
2, 708000, Note_on_c, 1, 77, 46
2, 708192, Note_off_c, 1, 77, 0
2, 708240, Note_on_c, 1, 78, 47
2, 708432, Note_off_c, 1, 78, 0
2, 708480, Note_on_c, 1, 79, 48
2, 708672, Note_off_c, 1, 79, 0
2, 708720, Note_on_c, 1, 80, 50
2, 708912, Note_off_c, 1, 80, 0
2, 708960, Note_on_c, 1, 83, 54
2, 709200, Note_off_c, 1, 83, 0
2, 709200, Note_on_c, 1, 81, 48
2, 709392, Note_off_c, 1, 81, 0
2, 709440, Note_on_c, 1, 81, 47
2, 709800, Note_off_c, 1, 81, 0
2, 709800, Note_on_c, 1, 78, 47
2, 709920, Note_off_c, 1, 78, 0
2, 709920, Note_on_c, 1, 74, 46
2, 710112, Note_off_c, 1, 74, 0
2, 710400, Note_on_c, 1, 76, 42
2, 710440, Note_off_c, 1, 76, 0
2, 710440, Note_on_c, 1, 78, 43
2, 710480, Note_off_c, 1, 78, 0
2, 710480, Note_on_c, 1, 76, 44
2, 710520, Note_off_c, 1, 76, 0
2, 710520, Note_on_c, 1, 74, 44
2, 710640, Note_off_c, 1, 74, 0
2, 710640, Note_on_c, 1, 76, 44
2, 710760, Note_off_c, 1, 76, 0
2, 710760, Note_on_c, 1, 78, 44
2, 710880, Note_off_c, 1, 78, 0
2, 710880, Note_on_c, 1, 74, 44
2, 711240, Note_off_c, 1, 74, 0
2, 711480, Note_on_c, 1, 86, 47
2, 711576, Note_off_c, 1, 86, 0
2, 711600, Note_on_c, 1, 85, 46
2, 711696, Note_off_c, 1, 85, 0
2, 711720, Note_on_c, 1, 83, 45
2, 711816, Note_off_c, 1, 83, 0
2, 711840, Note_on_c, 1, 81, 44
2, 711936, Note_off_c, 1, 81, 0
2, 711960, Note_on_c, 1, 79, 43
2, 712056, Note_off_c, 1, 79, 0
2, 712080, Note_on_c, 1, 78, 42
2, 712176, Note_off_c, 1, 78, 0
2, 712200, Note_on_c, 1, 76, 41
2, 712296, Note_off_c, 1, 76, 0
2, 712320, Note_on_c, 1, 74, 40
2, 712800, Note_off_c, 1, 74, 0
2, 712800, Note_on_c, 1, 74, 39
2, 713280, Note_off_c, 1, 74, 0
2, 713280, Note_on_c, 1, 76, 38
2, 713460, Note_off_c, 1, 76, 0
2, 713460, Note_on_c, 1, 74, 38
2, 713520, Note_off_c, 1, 74, 0
2, 713520, Note_on_c, 1, 76, 37
2, 713640, Note_off_c, 1, 76, 0
2, 713640, Note_on_c, 1, 78, 36
2, 713760, Note_off_c, 1, 78, 0
2, 713760, Note_on_c, 1, 74, 34
2, 714120, Note_off_c, 1, 74, 0
2, 714360, Note_on_c, 1, 86, 75
2, 714420, Note_off_c, 1, 86, 0
2, 714420, Note_on_c, 1, 85, 76
2, 714480, Note_off_c, 1, 85, 0
2, 714480, Note_on_c, 1, 83, 77
2, 714540, Note_off_c, 1, 83, 0
2, 714540, Note_on_c, 1, 81, 78
2, 714600, Note_off_c, 1, 81, 0
2, 714600, Note_on_c, 1, 79, 80
2, 714660, Note_off_c, 1, 79, 0
2, 714660, Note_on_c, 1, 78, 81
2, 714720, Note_off_c, 1, 78, 0
2, 714720, Note_on_c, 1, 76, 82
2, 714780, Note_off_c, 1, 76, 0
2, 714780, Note_on_c, 1, 74, 83
2, 714840, Note_off_c, 1, 74, 0
2, 714840, Note_on_c, 1, 73, 85
2, 714900, Note_off_c, 1, 73, 0
2, 714900, Note_on_c, 1, 71, 86
2, 714960, Note_off_c, 1, 71, 0
2, 714960, Note_on_c, 1, 69, 87
2, 715020, Note_off_c, 1, 69, 0
2, 715020, Note_on_c, 1, 67, 88
2, 715080, Note_off_c, 1, 67, 0
2, 715080, Note_on_c, 1, 66, 89
2, 715140, Note_off_c, 1, 66, 0
2, 715140, Note_on_c, 1, 64, 91
2, 715200, Note_off_c, 1, 64, 0
2, 715200, Note_on_c, 1, 62, 96
2, 715680, Note_off_c, 1, 62, 0
2, 715680, Note_on_c, 1, 62, 92
2, 716160, Note_off_c, 1, 62, 0
2, 716160, Note_on_c, 1, 64, 87
2, 716200, Note_off_c, 1, 64, 0
2, 716200, Note_on_c, 1, 66, 87
2, 716240, Note_off_c, 1, 66, 0
2, 716240, Note_on_c, 1, 64, 88
2, 716280, Note_off_c, 1, 64, 0
2, 716280, Note_on_c, 1, 62, 89
2, 716400, Note_off_c, 1, 62, 0
2, 716400, Note_on_c, 1, 64, 87
2, 716520, Note_off_c, 1, 64, 0
2, 716520, Note_on_c, 1, 66, 87
2, 716640, Note_off_c, 1, 66, 0
2, 716640, Note_on_c, 1, 62, 86
2, 717000, Note_off_c, 1, 62, 0
2, 717600, Note_on_c, 1, 85, 105
2, 717960, Note_off_c, 1, 85, 0
2, 718080, Note_on_c, 1, 86, 99
2, 718440, Note_off_c, 1, 86, 0
2, 718440, End_track
3, 0, Start_track
3, 0, Title_t, "No Name"
3, 0, Control_c, 2, 0, 0
3, 0, Control_c, 2, 32, 0
3, 0, Program_c, 2, 0
3, 0, Control_c, 2, 64, 0
3, 0, Control_c, 2, 64, 0
3, 0, Control_c, 2, 7, 122
3, 0, Control_c, 2, 1, 0
3, 0, Pitch_bend_c, 2, 8192
3, 0, Control_c, 2, 93, 28
3, 0, Control_c, 2, 91, 100
3, 0, Control_c, 2, 10, 73
3, 960, Note_on_c, 2, 53, 1
3, 1440, Control_c, 2, 64, 0
3, 1440, Note_off_c, 2, 53, 0
3, 12960, Control_c, 2, 64, 0
3, 24480, Control_c, 2, 64, 0
3, 24480, Note_on_c, 2, 69, 70
3, 24480, Note_on_c, 2, 73, 70
3, 24840, Note_off_c, 2, 73, 0
3, 24840, Note_off_c, 2, 69, 0
3, 24960, Note_on_c, 2, 69, 72
3, 24960, Note_on_c, 2, 73, 72
3, 25320, Note_off_c, 2, 73, 0
3, 25320, Note_off_c, 2, 69, 0
3, 25440, Note_on_c, 2, 69, 73
3, 25440, Note_on_c, 2, 73, 73
3, 25800, Note_off_c, 2, 73, 0
3, 25800, Note_off_c, 2, 69, 0
3, 25920, Note_on_c, 2, 73, 75
3, 25920, Note_on_c, 2, 69, 75
3, 27240, Note_off_c, 2, 69, 0
3, 27240, Note_off_c, 2, 73, 0
3, 27360, Note_on_c, 2, 69, 66
3, 27360, Note_on_c, 2, 74, 66
3, 27720, Note_off_c, 2, 74, 0
3, 27720, Note_off_c, 2, 69, 0
3, 27840, Note_on_c, 2, 69, 67
3, 27840, Note_on_c, 2, 74, 67
3, 28200, Note_off_c, 2, 74, 0
3, 28200, Note_off_c, 2, 69, 0
3, 28320, Note_on_c, 2, 69, 68
3, 28320, Note_on_c, 2, 74, 68
3, 28680, Note_off_c, 2, 74, 0
3, 28680, Note_off_c, 2, 69, 0
3, 28800, Note_on_c, 2, 74, 69
3, 28800, Note_on_c, 2, 69, 69
3, 30120, Note_off_c, 2, 69, 0
3, 30120, Note_off_c, 2, 74, 0
3, 36000, Control_c, 2, 64, 0
3, 47520, Control_c, 2, 64, 0
3, 47520, Note_on_c, 2, 69, 70
3, 47520, Note_on_c, 2, 73, 70
3, 47880, Note_off_c, 2, 73, 0
3, 47880, Note_off_c, 2, 69, 0
3, 48000, Note_on_c, 2, 69, 72
3, 48000, Note_on_c, 2, 73, 72
3, 48360, Note_off_c, 2, 73, 0
3, 48360, Note_off_c, 2, 69, 0
3, 48480, Note_on_c, 2, 69, 73
3, 48480, Note_on_c, 2, 73, 73
3, 48840, Note_off_c, 2, 73, 0
3, 48840, Note_off_c, 2, 69, 0
3, 48960, Note_on_c, 2, 73, 75
3, 48960, Note_on_c, 2, 69, 75
3, 50280, Note_off_c, 2, 69, 0
3, 50280, Note_off_c, 2, 73, 0
3, 50400, Note_on_c, 2, 69, 66
3, 50400, Note_on_c, 2, 74, 66
3, 50760, Note_off_c, 2, 74, 0
3, 50760, Note_off_c, 2, 69, 0
3, 50880, Note_on_c, 2, 69, 67
3, 50880, Note_on_c, 2, 74, 67
3, 51240, Note_off_c, 2, 74, 0
3, 51240, Note_off_c, 2, 69, 0
3, 51360, Note_on_c, 2, 69, 68
3, 51360, Note_on_c, 2, 74, 68
3, 51720, Note_off_c, 2, 74, 0
3, 51720, Note_off_c, 2, 69, 0
3, 51840, Note_on_c, 2, 74, 69
3, 51840, Note_on_c, 2, 69, 69
3, 53160, Note_off_c, 2, 69, 0
3, 53160, Note_off_c, 2, 74, 0
3, 59040, Control_c, 2, 64, 0
3, 70560, Control_c, 2, 64, 0
3, 82080, Control_c, 2, 64, 0
3, 93600, Control_c, 2, 64, 0
3, 105120, Control_c, 2, 64, 0
3, 116640, Control_c, 2, 64, 0
3, 128160, Control_c, 2, 64, 0
3, 139680, Control_c, 2, 64, 0
3, 139680, Note_on_c, 2, 74, 79
3, 139680, Note_on_c, 2, 78, 79
3, 140640, Note_off_c, 2, 78, 0
3, 140640, Note_off_c, 2, 74, 0
3, 141120, Note_on_c, 2, 74, 78
3, 141120, Note_on_c, 2, 69, 78
3, 142080, Note_off_c, 2, 69, 0
3, 142080, Note_off_c, 2, 74, 0
3, 142560, Note_on_c, 2, 71, 76
3, 142560, Note_on_c, 2, 66, 76
3, 142752, Note_off_c, 2, 66, 0
3, 142752, Note_off_c, 2, 71, 0
3, 143040, Note_on_c, 2, 74, 76
3, 143040, Note_on_c, 2, 71, 76
3, 143232, Note_off_c, 2, 71, 0
3, 143232, Note_off_c, 2, 74, 0
3, 143520, Note_on_c, 2, 76, 75
3, 143520, Note_on_c, 2, 69, 75
3, 143520, Note_on_c, 2, 73, 75
3, 143712, Note_off_c, 2, 73, 0
3, 143712, Note_off_c, 2, 69, 0
3, 143712, Note_off_c, 2, 76, 0
3, 145440, Note_on_c, 2, 78, 73
3, 145440, Note_on_c, 2, 74, 73
3, 146400, Note_off_c, 2, 74, 0
3, 146400, Note_off_c, 2, 78, 0
3, 146880, Note_on_c, 2, 74, 72
3, 146880, Note_on_c, 2, 69, 72
3, 147840, Note_off_c, 2, 69, 0
3, 147840, Note_off_c, 2, 74, 0
3, 148320, Note_on_c, 2, 66, 70
3, 148320, Note_on_c, 2, 71, 70
3, 148512, Note_off_c, 2, 71, 0
3, 148512, Note_off_c, 2, 66, 0
3, 148800, Note_on_c, 2, 71, 70
3, 148800, Note_on_c, 2, 67, 70
3, 148992, Note_off_c, 2, 67, 0
3, 148992, Note_off_c, 2, 71, 0
3, 149280, Note_on_c, 2, 69, 69
3, 149280, Note_on_c, 2, 67, 69
3, 149280, Note_on_c, 2, 64, 69
3, 149472, Note_off_c, 2, 64, 0
3, 149472, Note_off_c, 2, 67, 0
3, 149472, Note_off_c, 2, 69, 0
3, 149760, Note_on_c, 2, 62, 69
3, 149760, Note_on_c, 2, 66, 69
3, 149760, Note_on_c, 2, 69, 69
3, 150120, Note_off_c, 2, 69, 0
3, 150120, Note_off_c, 2, 66, 0
3, 150120, Note_off_c, 2, 62, 0
3, 151200, Control_c, 2, 64, 0
3, 151200, Note_on_c, 2, 78, 79
3, 151200, Note_on_c, 2, 74, 79
3, 152160, Note_off_c, 2, 74, 0
3, 152160, Note_off_c, 2, 78, 0
3, 152640, Note_on_c, 2, 69, 78
3, 152640, Note_on_c, 2, 74, 78
3, 153600, Note_off_c, 2, 74, 0
3, 153600, Note_off_c, 2, 69, 0
3, 154080, Note_on_c, 2, 66, 76
3, 154080, Note_on_c, 2, 71, 76
3, 154272, Note_off_c, 2, 71, 0
3, 154272, Note_off_c, 2, 66, 0
3, 154560, Note_on_c, 2, 71, 76
3, 154560, Note_on_c, 2, 74, 76
3, 154752, Note_off_c, 2, 74, 0
3, 154752, Note_off_c, 2, 71, 0
3, 155040, Note_on_c, 2, 73, 75
3, 155040, Note_on_c, 2, 69, 75
3, 155040, Note_on_c, 2, 76, 75
3, 155232, Note_off_c, 2, 76, 0
3, 155232, Note_off_c, 2, 69, 0
3, 155232, Note_off_c, 2, 73, 0
3, 156960, Note_on_c, 2, 74, 73
3, 156960, Note_on_c, 2, 78, 73
3, 157920, Note_off_c, 2, 78, 0
3, 157920, Note_off_c, 2, 74, 0
3, 158400, Note_on_c, 2, 69, 72
3, 158400, Note_on_c, 2, 74, 72
3, 159360, Note_off_c, 2, 74, 0
3, 159360, Note_off_c, 2, 69, 0
3, 159840, Note_on_c, 2, 71, 70
3, 159840, Note_on_c, 2, 66, 70
3, 160032, Note_off_c, 2, 66, 0
3, 160032, Note_off_c, 2, 71, 0
3, 160320, Note_on_c, 2, 67, 70
3, 160320, Note_on_c, 2, 71, 70
3, 160512, Note_off_c, 2, 71, 0
3, 160512, Note_off_c, 2, 67, 0
3, 160800, Note_on_c, 2, 64, 69
3, 160800, Note_on_c, 2, 67, 69
3, 160800, Note_on_c, 2, 69, 69
3, 160992, Note_off_c, 2, 69, 0
3, 160992, Note_off_c, 2, 67, 0
3, 160992, Note_off_c, 2, 64, 0
3, 161280, Note_on_c, 2, 69, 69
3, 161280, Note_on_c, 2, 66, 69
3, 161280, Note_on_c, 2, 62, 69
3, 161640, Note_off_c, 2, 62, 0
3, 161640, Note_off_c, 2, 66, 0
3, 161640, Note_off_c, 2, 69, 0
3, 162720, Control_c, 2, 64, 0
3, 162720, Note_on_c, 2, 73, 76
3, 162720, Note_on_c, 2, 69, 76
3, 163080, Note_off_c, 2, 69, 0
3, 163080, Note_off_c, 2, 73, 0
3, 163200, Note_on_c, 2, 73, 78
3, 163200, Note_on_c, 2, 69, 78
3, 163560, Note_off_c, 2, 69, 0
3, 163560, Note_off_c, 2, 73, 0
3, 163680, Note_on_c, 2, 73, 81
3, 163680, Note_on_c, 2, 69, 81
3, 164040, Note_off_c, 2, 69, 0
3, 164040, Note_off_c, 2, 73, 0
3, 164160, Note_on_c, 2, 69, 85
3, 164160, Note_on_c, 2, 73, 85
3, 165000, Note_off_c, 2, 73, 0
3, 165000, Note_off_c, 2, 69, 0
3, 165000, Note_on_c, 2, 74, 78
3, 165120, Note_off_c, 2, 74, 0
3, 165120, Note_on_c, 2, 76, 77
3, 165312, Note_off_c, 2, 76, 0
3, 165600, Note_on_c, 2, 74, 78
3, 165600, Note_on_c, 2, 69, 78
3, 165960, Note_off_c, 2, 69, 0
3, 165960, Note_off_c, 2, 74, 0
3, 166080, Note_on_c, 2, 74, 80
3, 166080, Note_on_c, 2, 69, 80
3, 166440, Note_off_c, 2, 69, 0
3, 166440, Note_off_c, 2, 74, 0
3, 166560, Note_on_c, 2, 74, 81
3, 166560, Note_on_c, 2, 69, 81
3, 166920, Note_off_c, 2, 69, 0
3, 166920, Note_off_c, 2, 74, 0
3, 167040, Note_on_c, 2, 74, 83
3, 167880, Note_off_c, 2, 74, 0
3, 167880, Note_on_c, 2, 76, 78
3, 168000, Note_off_c, 2, 76, 0
3, 168000, Note_on_c, 2, 78, 77
3, 168192, Note_off_c, 2, 78, 0
3, 174240, Note_on_c, 2, 78, 80
3, 174240, Note_on_c, 2, 74, 80
3, 175200, Note_off_c, 2, 74, 0
3, 175200, Note_off_c, 2, 78, 0
3, 175680, Note_on_c, 2, 74, 80
3, 175680, Note_on_c, 2, 69, 80
3, 176640, Note_off_c, 2, 69, 0
3, 176640, Note_off_c, 2, 74, 0
3, 177120, Note_on_c, 2, 71, 78
3, 177120, Note_on_c, 2, 66, 78
3, 177312, Note_off_c, 2, 66, 0
3, 177312, Note_off_c, 2, 71, 0
3, 177600, Note_on_c, 2, 74, 78
3, 177600, Note_on_c, 2, 71, 78
3, 177792, Note_off_c, 2, 71, 0
3, 177792, Note_off_c, 2, 74, 0
3, 178080, Note_on_c, 2, 76, 77
3, 178080, Note_on_c, 2, 73, 77
3, 178080, Note_on_c, 2, 69, 77
3, 178272, Note_off_c, 2, 69, 0
3, 178272, Note_off_c, 2, 73, 0
3, 178272, Note_off_c, 2, 76, 0
3, 180000, Note_on_c, 2, 74, 75
3, 180000, Note_on_c, 2, 78, 75
3, 180960, Note_off_c, 2, 78, 0
3, 180960, Note_off_c, 2, 74, 0
3, 181440, Note_on_c, 2, 74, 74
3, 181440, Note_on_c, 2, 69, 74
3, 182400, Note_off_c, 2, 69, 0
3, 182400, Note_off_c, 2, 74, 0
3, 182880, Note_on_c, 2, 71, 72
3, 182880, Note_on_c, 2, 66, 72
3, 183072, Note_off_c, 2, 66, 0
3, 183072, Note_off_c, 2, 71, 0
3, 183360, Note_on_c, 2, 67, 72
3, 183360, Note_on_c, 2, 71, 72
3, 183552, Note_off_c, 2, 71, 0
3, 183552, Note_off_c, 2, 67, 0
3, 183840, Note_on_c, 2, 67, 71
3, 183840, Note_on_c, 2, 69, 71
3, 183840, Note_on_c, 2, 64, 71
3, 184032, Note_off_c, 2, 64, 0
3, 184032, Note_off_c, 2, 69, 0
3, 184032, Note_off_c, 2, 67, 0
3, 184320, Note_on_c, 2, 69, 71
3, 184320, Note_on_c, 2, 66, 71
3, 184320, Note_on_c, 2, 62, 71
3, 184680, Note_off_c, 2, 62, 0
3, 184680, Note_off_c, 2, 66, 0
3, 184680, Note_off_c, 2, 69, 0
3, 185520, Control_c, 2, 64, 0
3, 185760, Control_c, 2, 64, 0
3, 185760, Note_on_c, 2, 69, 76
3, 185760, Note_on_c, 2, 73, 76
3, 186120, Note_off_c, 2, 73, 0
3, 186120, Note_off_c, 2, 69, 0
3, 186240, Note_on_c, 2, 69, 78
3, 186240, Note_on_c, 2, 73, 78
3, 186600, Note_off_c, 2, 73, 0
3, 186600, Note_off_c, 2, 69, 0
3, 186720, Note_on_c, 2, 69, 81
3, 186720, Note_on_c, 2, 73, 81
3, 187080, Note_off_c, 2, 73, 0
3, 187080, Note_off_c, 2, 69, 0
3, 187200, Note_on_c, 2, 73, 85
3, 187200, Note_on_c, 2, 69, 85
3, 188040, Note_off_c, 2, 69, 0
3, 188040, Note_off_c, 2, 73, 0
3, 188040, Note_on_c, 2, 74, 78
3, 188160, Note_off_c, 2, 74, 0
3, 188160, Note_on_c, 2, 76, 77
3, 188352, Note_off_c, 2, 76, 0
3, 188640, Note_on_c, 2, 69, 78
3, 188640, Note_on_c, 2, 74, 78
3, 189000, Note_off_c, 2, 74, 0
3, 189000, Note_off_c, 2, 69, 0
3, 189120, Note_on_c, 2, 69, 80
3, 189120, Note_on_c, 2, 74, 80
3, 189480, Note_off_c, 2, 74, 0
3, 189480, Note_off_c, 2, 69, 0
3, 189600, Note_on_c, 2, 69, 81
3, 189600, Note_on_c, 2, 74, 81
3, 189960, Note_off_c, 2, 74, 0
3, 189960, Note_off_c, 2, 69, 0
3, 190080, Note_on_c, 2, 74, 83
3, 190920, Note_off_c, 2, 74, 0
3, 190920, Note_on_c, 2, 76, 78
3, 191040, Note_off_c, 2, 76, 0
3, 191040, Note_on_c, 2, 78, 77
3, 191232, Note_off_c, 2, 78, 0
3, 197280, Note_on_c, 2, 74, 80
3, 197280, Note_on_c, 2, 78, 80
3, 198240, Note_off_c, 2, 78, 0
3, 198240, Note_off_c, 2, 74, 0
3, 198720, Note_on_c, 2, 69, 80
3, 198720, Note_on_c, 2, 74, 80
3, 199680, Note_off_c, 2, 74, 0
3, 199680, Note_off_c, 2, 69, 0
3, 200160, Note_on_c, 2, 66, 78
3, 200160, Note_on_c, 2, 71, 78
3, 200352, Note_off_c, 2, 71, 0
3, 200352, Note_off_c, 2, 66, 0
3, 200640, Note_on_c, 2, 71, 78
3, 200640, Note_on_c, 2, 74, 78
3, 200832, Note_off_c, 2, 74, 0
3, 200832, Note_off_c, 2, 71, 0
3, 201120, Note_on_c, 2, 69, 77
3, 201120, Note_on_c, 2, 73, 77
3, 201120, Note_on_c, 2, 76, 77
3, 201312, Note_off_c, 2, 76, 0
3, 201312, Note_off_c, 2, 73, 0
3, 201312, Note_off_c, 2, 69, 0
3, 203040, Note_on_c, 2, 78, 75
3, 203040, Note_on_c, 2, 74, 75
3, 204000, Note_off_c, 2, 74, 0
3, 204000, Note_off_c, 2, 78, 0
3, 204480, Note_on_c, 2, 69, 74
3, 204480, Note_on_c, 2, 74, 74
3, 205440, Note_off_c, 2, 74, 0
3, 205440, Note_off_c, 2, 69, 0
3, 205920, Note_on_c, 2, 66, 72
3, 205920, Note_on_c, 2, 71, 72
3, 206112, Note_off_c, 2, 71, 0
3, 206112, Note_off_c, 2, 66, 0
3, 206400, Note_on_c, 2, 71, 72
3, 206400, Note_on_c, 2, 67, 72
3, 206592, Note_off_c, 2, 67, 0
3, 206592, Note_off_c, 2, 71, 0
3, 206880, Note_on_c, 2, 64, 71
3, 206880, Note_on_c, 2, 69, 71
3, 206880, Note_on_c, 2, 67, 71
3, 207072, Note_off_c, 2, 67, 0
3, 207072, Note_off_c, 2, 69, 0
3, 207072, Note_off_c, 2, 64, 0
3, 207360, Note_on_c, 2, 62, 71
3, 207360, Note_on_c, 2, 66, 71
3, 207360, Note_on_c, 2, 69, 71
3, 207720, Note_off_c, 2, 69, 0
3, 207720, Note_off_c, 2, 66, 0
3, 207720, Note_off_c, 2, 62, 0
3, 208560, Control_c, 2, 64, 0
3, 208620, Note_on_c, 2, 69, 76
3, 208680, Note_off_c, 2, 69, 0
3, 208680, Note_on_c, 2, 74, 78
3, 208740, Note_off_c, 2, 74, 0
3, 208740, Note_on_c, 2, 78, 79
3, 208800, Control_c, 2, 64, 0
3, 208800, Note_off_c, 2, 78, 0
3, 217920, Note_on_c, 2, 67, 72
3, 218112, Note_off_c, 2, 67, 0
3, 218400, Note_on_c, 2, 64, 71
3, 218592, Note_off_c, 2, 64, 0
3, 218880, Note_on_c, 2, 66, 71
3, 219240, Note_off_c, 2, 66, 0
3, 220080, Control_c, 2, 64, 0
3, 220140, Note_on_c, 2, 69, 76
3, 220200, Note_off_c, 2, 69, 0
3, 220200, Note_on_c, 2, 74, 78
3, 220260, Note_off_c, 2, 74, 0
3, 220260, Note_on_c, 2, 78, 79
3, 220320, Control_c, 2, 64, 0
3, 220320, Note_off_c, 2, 78, 0
3, 229440, Note_on_c, 2, 67, 72
3, 229632, Note_off_c, 2, 67, 0
3, 229920, Note_on_c, 2, 64, 71
3, 230112, Note_off_c, 2, 64, 0
3, 230400, Note_on_c, 2, 66, 71
3, 230760, Note_off_c, 2, 66, 0
3, 231840, Control_c, 2, 64, 0
3, 231840, Note_on_c, 2, 73, 73
3, 231840, Note_on_c, 2, 69, 73
3, 232200, Note_off_c, 2, 69, 0
3, 232200, Note_off_c, 2, 73, 0
3, 237600, Note_on_c, 2, 78, 67
3, 237720, Note_off_c, 2, 78, 0
3, 237720, Note_on_c, 2, 74, 67
3, 237840, Note_off_c, 2, 74, 0
3, 237960, Note_on_c, 2, 74, 66
3, 238080, Note_off_c, 2, 74, 0
3, 238080, Note_on_c, 2, 78, 66
3, 238200, Note_off_c, 2, 78, 0
3, 238200, Note_on_c, 2, 74, 66
3, 238320, Note_off_c, 2, 74, 0
3, 238320, Note_on_c, 2, 79, 66
3, 238440, Note_off_c, 2, 79, 0
3, 238440, Note_on_c, 2, 74, 66
3, 238560, Note_off_c, 2, 74, 0
3, 238560, Note_on_c, 2, 78, 66
3, 238680, Note_off_c, 2, 78, 0
3, 238680, Note_on_c, 2, 74, 65
3, 238800, Note_off_c, 2, 74, 0
3, 238800, Note_on_c, 2, 79, 65
3, 238920, Note_off_c, 2, 79, 0
3, 238920, Note_on_c, 2, 74, 65
3, 239016, Note_off_c, 2, 74, 0
3, 239040, Note_on_c, 2, 78, 65
3, 239160, Note_off_c, 2, 78, 0
3, 239160, Note_on_c, 2, 74, 65
3, 239280, Note_off_c, 2, 74, 0
3, 239400, Note_on_c, 2, 74, 65
3, 239520, Note_off_c, 2, 74, 0
3, 239520, Note_on_c, 2, 78, 64
3, 239640, Note_off_c, 2, 78, 0
3, 239640, Note_on_c, 2, 74, 64
3, 239760, Note_off_c, 2, 74, 0
3, 239760, Note_on_c, 2, 79, 64
3, 239880, Note_off_c, 2, 79, 0
3, 239880, Note_on_c, 2, 74, 64
3, 240000, Note_off_c, 2, 74, 0
3, 240000, Note_on_c, 2, 78, 64
3, 240120, Note_off_c, 2, 78, 0
3, 240120, Note_on_c, 2, 74, 64
3, 240240, Note_off_c, 2, 74, 0
3, 240240, Note_on_c, 2, 79, 64
3, 240360, Note_off_c, 2, 79, 0
3, 240360, Note_on_c, 2, 74, 64
3, 240456, Note_off_c, 2, 74, 0
3, 240600, Note_on_c, 2, 78, 63
3, 240720, Note_off_c, 2, 78, 0
3, 240720, Note_on_c, 2, 74, 63
3, 240840, Note_off_c, 2, 74, 0
3, 240840, Note_on_c, 2, 81, 63
3, 240960, Note_off_c, 2, 81, 0
3, 241080, Note_on_c, 2, 76, 63
3, 241200, Note_off_c, 2, 76, 0
3, 241200, Note_on_c, 2, 69, 63
3, 241320, Note_off_c, 2, 69, 0
3, 241320, Note_on_c, 2, 79, 62
3, 241440, Note_off_c, 2, 79, 0
3, 241560, Note_on_c, 2, 74, 62
3, 241680, Note_off_c, 2, 74, 0
3, 241680, Note_on_c, 2, 69, 62
3, 241800, Note_off_c, 2, 69, 0
3, 241800, Note_on_c, 2, 78, 62
3, 241896, Note_off_c, 2, 78, 0
3, 242040, Note_on_c, 2, 69, 64
3, 242160, Note_off_c, 2, 69, 0
3, 242280, Note_on_c, 2, 69, 65
3, 242400, Note_off_c, 2, 69, 0
3, 242400, Note_on_c, 2, 71, 66
3, 242520, Note_off_c, 2, 71, 0
3, 242520, Note_on_c, 2, 69, 67
3, 242640, Note_off_c, 2, 69, 0
3, 242640, Note_on_c, 2, 73, 67
3, 242760, Note_off_c, 2, 73, 0
3, 242760, Note_on_c, 2, 69, 68
3, 242880, Note_off_c, 2, 69, 0
3, 242880, Note_on_c, 2, 74, 69
3, 243000, Note_off_c, 2, 74, 0
3, 243000, Note_on_c, 2, 69, 70
3, 243120, Note_off_c, 2, 69, 0
3, 243120, Note_on_c, 2, 76, 70
3, 243240, Note_off_c, 2, 76, 0
3, 243240, Note_on_c, 2, 69, 71
3, 243336, Note_off_c, 2, 69, 0
3, 243420, Control_c, 2, 64, 0
3, 243420, Note_on_c, 2, 69, 77
3, 243480, Note_off_c, 2, 69, 0
3, 243480, Note_on_c, 2, 74, 79
3, 243540, Note_off_c, 2, 74, 0
3, 243540, Note_on_c, 2, 78, 81
3, 243600, Note_off_c, 2, 78, 0
3, 252720, Note_on_c, 2, 67, 74
3, 252912, Note_off_c, 2, 67, 0
3, 253200, Note_on_c, 2, 64, 73
3, 253392, Note_off_c, 2, 64, 0
3, 253680, Note_on_c, 2, 66, 73
3, 254040, Note_off_c, 2, 66, 0
3, 255120, Control_c, 2, 64, 0
3, 255120, Note_on_c, 2, 69, 73
3, 255120, Note_on_c, 2, 73, 73
3, 255480, Note_off_c, 2, 73, 0
3, 255480, Note_off_c, 2, 69, 0
3, 260880, Note_on_c, 2, 78, 67
3, 261000, Note_off_c, 2, 78, 0
3, 261000, Note_on_c, 2, 74, 67
3, 261120, Note_off_c, 2, 74, 0
3, 261240, Note_on_c, 2, 74, 66
3, 261360, Note_off_c, 2, 74, 0
3, 261360, Note_on_c, 2, 78, 66
3, 261480, Note_off_c, 2, 78, 0
3, 261480, Note_on_c, 2, 74, 66
3, 261600, Note_off_c, 2, 74, 0
3, 261600, Note_on_c, 2, 79, 66
3, 261720, Note_off_c, 2, 79, 0
3, 261720, Note_on_c, 2, 74, 66
3, 261840, Note_off_c, 2, 74, 0
3, 261840, Note_on_c, 2, 78, 66
3, 261960, Note_off_c, 2, 78, 0
3, 261960, Note_on_c, 2, 74, 65
3, 262080, Note_off_c, 2, 74, 0
3, 262080, Note_on_c, 2, 79, 65
3, 262200, Note_off_c, 2, 79, 0
3, 262200, Note_on_c, 2, 74, 65
3, 262296, Note_off_c, 2, 74, 0
3, 262320, Note_on_c, 2, 78, 65
3, 262440, Note_off_c, 2, 78, 0
3, 262440, Note_on_c, 2, 74, 65
3, 262560, Note_off_c, 2, 74, 0
3, 262680, Note_on_c, 2, 74, 65
3, 262800, Note_off_c, 2, 74, 0
3, 262800, Note_on_c, 2, 78, 64
3, 262920, Note_off_c, 2, 78, 0
3, 262920, Note_on_c, 2, 74, 64
3, 263040, Note_off_c, 2, 74, 0
3, 263040, Note_on_c, 2, 79, 64
3, 263160, Note_off_c, 2, 79, 0
3, 263160, Note_on_c, 2, 74, 64
3, 263280, Note_off_c, 2, 74, 0
3, 263280, Note_on_c, 2, 78, 64
3, 263400, Note_off_c, 2, 78, 0
3, 263400, Note_on_c, 2, 74, 64
3, 263520, Note_off_c, 2, 74, 0
3, 263520, Note_on_c, 2, 79, 64
3, 263640, Note_off_c, 2, 79, 0
3, 263640, Note_on_c, 2, 74, 64
3, 263736, Note_off_c, 2, 74, 0
3, 263880, Note_on_c, 2, 78, 63
3, 264000, Note_off_c, 2, 78, 0
3, 264000, Note_on_c, 2, 74, 63
3, 264120, Note_off_c, 2, 74, 0
3, 264120, Note_on_c, 2, 81, 63
3, 264240, Note_off_c, 2, 81, 0
3, 264360, Note_on_c, 2, 76, 63
3, 264480, Note_off_c, 2, 76, 0
3, 264480, Note_on_c, 2, 69, 63
3, 264600, Note_off_c, 2, 69, 0
3, 264600, Note_on_c, 2, 79, 62
3, 264720, Note_off_c, 2, 79, 0
3, 264840, Note_on_c, 2, 74, 62
3, 264960, Note_off_c, 2, 74, 0
3, 264960, Note_on_c, 2, 69, 62
3, 265080, Note_off_c, 2, 69, 0
3, 265080, Note_on_c, 2, 78, 62
3, 265176, Note_off_c, 2, 78, 0
3, 265320, Note_on_c, 2, 69, 64
3, 265440, Note_off_c, 2, 69, 0
3, 265560, Note_on_c, 2, 69, 65
3, 265680, Note_off_c, 2, 69, 0
3, 265680, Note_on_c, 2, 71, 66
3, 265800, Note_off_c, 2, 71, 0
3, 265800, Note_on_c, 2, 69, 67
3, 265920, Note_off_c, 2, 69, 0
3, 265920, Note_on_c, 2, 73, 67
3, 266040, Note_off_c, 2, 73, 0
3, 266040, Note_on_c, 2, 69, 68
3, 266160, Note_off_c, 2, 69, 0
3, 266160, Note_on_c, 2, 74, 69
3, 266280, Note_off_c, 2, 74, 0
3, 266280, Note_on_c, 2, 69, 70
3, 266400, Note_off_c, 2, 69, 0
3, 266400, Note_on_c, 2, 76, 70
3, 266520, Note_off_c, 2, 76, 0
3, 266520, Note_on_c, 2, 69, 71
3, 266616, Note_off_c, 2, 69, 0
3, 266700, Control_c, 2, 64, 0
3, 266700, Note_on_c, 2, 69, 77
3, 266760, Note_off_c, 2, 69, 0
3, 266760, Note_on_c, 2, 74, 79
3, 266820, Note_off_c, 2, 74, 0
3, 266820, Note_on_c, 2, 78, 81
3, 266880, Note_off_c, 2, 78, 0
3, 276000, Note_on_c, 2, 67, 74
3, 276192, Note_off_c, 2, 67, 0
3, 276480, Note_on_c, 2, 64, 73
3, 276672, Note_off_c, 2, 64, 0
3, 276960, Note_on_c, 2, 66, 73
3, 277320, Note_off_c, 2, 66, 0
3, 279360, Control_c, 2, 64, 0
3, 279360, Note_on_c, 2, 78, 55
3, 279520, Note_off_c, 2, 78, 0
3, 279520, Note_on_c, 2, 76, 54
3, 279680, Note_off_c, 2, 76, 0
3, 279680, Note_on_c, 2, 74, 53
3, 279784, Note_off_c, 2, 74, 0
3, 279840, Note_on_c, 2, 74, 52
3, 279944, Note_off_c, 2, 74, 0
3, 280000, Note_on_c, 2, 74, 51
3, 280104, Note_off_c, 2, 74, 0
3, 280160, Note_on_c, 2, 74, 50
3, 280264, Note_off_c, 2, 74, 0
3, 280320, Note_on_c, 2, 74, 49
3, 280424, Note_off_c, 2, 74, 0
3, 280480, Note_on_c, 2, 74, 48
3, 280584, Note_off_c, 2, 74, 0
3, 280640, Note_on_c, 2, 74, 49
3, 280744, Note_off_c, 2, 74, 0
3, 280800, Note_on_c, 2, 69, 53
3, 280960, Note_off_c, 2, 69, 0
3, 280960, Note_on_c, 2, 67, 52
3, 281120, Note_off_c, 2, 67, 0
3, 281120, Note_on_c, 2, 66, 51
3, 281224, Note_off_c, 2, 66, 0
3, 281280, Note_on_c, 2, 66, 50
3, 281384, Note_off_c, 2, 66, 0
3, 281440, Note_on_c, 2, 66, 49
3, 281544, Note_off_c, 2, 66, 0
3, 281600, Note_on_c, 2, 66, 47
3, 281704, Note_off_c, 2, 66, 0
3, 281760, Note_on_c, 2, 66, 46
3, 281864, Note_off_c, 2, 66, 0
3, 281920, Note_on_c, 2, 66, 45
3, 282024, Note_off_c, 2, 66, 0
3, 282080, Note_on_c, 2, 66, 44
3, 282184, Note_off_c, 2, 66, 0
3, 282400, Note_on_c, 2, 66, 50
3, 282560, Note_off_c, 2, 66, 0
3, 282560, Note_on_c, 2, 69, 50
3, 282664, Note_off_c, 2, 69, 0
3, 282880, Note_on_c, 2, 67, 49
3, 283040, Note_off_c, 2, 67, 0
3, 283040, Note_on_c, 2, 71, 49
3, 283144, Note_off_c, 2, 71, 0
3, 283360, Note_on_c, 2, 64, 49
3, 283520, Note_off_c, 2, 64, 0
3, 283520, Note_on_c, 2, 67, 48
3, 283624, Note_off_c, 2, 67, 0
3, 283680, Note_on_c, 2, 66, 48
3, 283784, Note_off_c, 2, 66, 0
3, 288160, Note_on_c, 2, 66, 60
3, 288320, Note_off_c, 2, 66, 0
3, 288320, Note_on_c, 2, 69, 60
3, 288424, Note_off_c, 2, 69, 0
3, 288640, Note_on_c, 2, 67, 59
3, 288800, Note_off_c, 2, 67, 0
3, 288800, Note_on_c, 2, 71, 59
3, 288904, Note_off_c, 2, 71, 0
3, 289120, Note_on_c, 2, 64, 58
3, 289280, Note_off_c, 2, 64, 0
3, 289280, Note_on_c, 2, 67, 58
3, 289384, Note_off_c, 2, 67, 0
3, 289440, Note_on_c, 2, 66, 58
3, 289800, Note_off_c, 2, 66, 0
3, 290880, Control_c, 2, 64, 0
3, 290880, Note_on_c, 2, 78, 55
3, 291040, Note_off_c, 2, 78, 0
3, 291040, Note_on_c, 2, 76, 54
3, 291200, Note_off_c, 2, 76, 0
3, 291200, Note_on_c, 2, 74, 53
3, 291304, Note_off_c, 2, 74, 0
3, 291360, Note_on_c, 2, 74, 52
3, 291464, Note_off_c, 2, 74, 0
3, 291520, Note_on_c, 2, 74, 51
3, 291624, Note_off_c, 2, 74, 0
3, 291680, Note_on_c, 2, 74, 50
3, 291784, Note_off_c, 2, 74, 0
3, 291840, Note_on_c, 2, 74, 49
3, 291944, Note_off_c, 2, 74, 0
3, 292000, Note_on_c, 2, 74, 48
3, 292104, Note_off_c, 2, 74, 0
3, 292160, Note_on_c, 2, 74, 49
3, 292264, Note_off_c, 2, 74, 0
3, 292320, Note_on_c, 2, 69, 53
3, 292480, Note_off_c, 2, 69, 0
3, 292480, Note_on_c, 2, 67, 52
3, 292640, Note_off_c, 2, 67, 0
3, 292640, Note_on_c, 2, 66, 51
3, 292744, Note_off_c, 2, 66, 0
3, 292800, Note_on_c, 2, 66, 50
3, 292904, Note_off_c, 2, 66, 0
3, 292960, Note_on_c, 2, 66, 49
3, 293064, Note_off_c, 2, 66, 0
3, 293120, Note_on_c, 2, 66, 47
3, 293224, Note_off_c, 2, 66, 0
3, 293280, Note_on_c, 2, 66, 46
3, 293384, Note_off_c, 2, 66, 0
3, 293440, Note_on_c, 2, 66, 45
3, 293544, Note_off_c, 2, 66, 0
3, 293600, Note_on_c, 2, 66, 44
3, 293704, Note_off_c, 2, 66, 0
3, 293920, Note_on_c, 2, 66, 50
3, 294080, Note_off_c, 2, 66, 0
3, 294080, Note_on_c, 2, 69, 50
3, 294184, Note_off_c, 2, 69, 0
3, 294400, Note_on_c, 2, 67, 49
3, 294560, Note_off_c, 2, 67, 0
3, 294560, Note_on_c, 2, 71, 49
3, 294664, Note_off_c, 2, 71, 0
3, 294880, Note_on_c, 2, 64, 49
3, 295040, Note_off_c, 2, 64, 0
3, 295040, Note_on_c, 2, 67, 48
3, 295144, Note_off_c, 2, 67, 0
3, 295200, Note_on_c, 2, 66, 48
3, 295304, Note_off_c, 2, 66, 0
3, 299680, Note_on_c, 2, 66, 60
3, 299840, Note_off_c, 2, 66, 0
3, 299840, Note_on_c, 2, 69, 60
3, 299944, Note_off_c, 2, 69, 0
3, 300160, Note_on_c, 2, 67, 59
3, 300320, Note_off_c, 2, 67, 0
3, 300320, Note_on_c, 2, 71, 59
3, 300424, Note_off_c, 2, 71, 0
3, 300640, Note_on_c, 2, 64, 58
3, 300800, Note_off_c, 2, 64, 0
3, 300800, Note_on_c, 2, 67, 58
3, 300904, Note_off_c, 2, 67, 0
3, 300960, Note_on_c, 2, 66, 58
3, 301320, Note_off_c, 2, 66, 0
3, 302400, Control_c, 2, 64, 0
3, 302400, Note_on_c, 2, 73, 50
3, 302560, Note_off_c, 2, 73, 0
3, 302720, Note_on_c, 2, 76, 52
3, 302824, Note_off_c, 2, 76, 0
3, 302880, Note_on_c, 2, 76, 53
3, 303040, Note_off_c, 2, 76, 0
3, 303200, Note_on_c, 2, 79, 55
3, 303304, Note_off_c, 2, 79, 0
3, 303360, Note_on_c, 2, 79, 56
3, 303520, Note_off_c, 2, 79, 0
3, 303680, Note_on_c, 2, 85, 58
3, 303784, Note_off_c, 2, 85, 0
3, 304000, Note_on_c, 2, 85, 60
3, 304104, Note_off_c, 2, 85, 0
3, 304160, Note_on_c, 2, 83, 60
3, 304264, Note_off_c, 2, 83, 0
3, 304320, Note_on_c, 2, 81, 58
3, 304424, Note_off_c, 2, 81, 0
3, 304480, Note_on_c, 2, 79, 56
3, 304584, Note_off_c, 2, 79, 0
3, 304640, Note_on_c, 2, 78, 54
3, 304744, Note_off_c, 2, 78, 0
3, 304800, Note_on_c, 2, 76, 52
3, 304904, Note_off_c, 2, 76, 0
3, 304960, Note_on_c, 2, 74, 50
3, 305064, Note_off_c, 2, 74, 0
3, 305120, Note_on_c, 2, 73, 49
3, 305224, Note_off_c, 2, 73, 0
3, 305280, Note_on_c, 2, 74, 51
3, 305440, Note_off_c, 2, 74, 0
3, 305600, Note_on_c, 2, 78, 49
3, 305704, Note_off_c, 2, 78, 0
3, 305760, Note_on_c, 2, 78, 49
3, 305920, Note_off_c, 2, 78, 0
3, 306080, Note_on_c, 2, 78, 50
3, 306184, Note_off_c, 2, 78, 0
3, 306240, Note_on_c, 2, 78, 51
3, 306400, Note_off_c, 2, 78, 0
3, 306400, Note_on_c, 2, 76, 51
3, 306504, Note_off_c, 2, 76, 0
3, 306560, Note_on_c, 2, 78, 52
3, 306664, Note_off_c, 2, 78, 0
3, 311200, Note_on_c, 2, 77, 52
3, 311360, Note_off_c, 2, 77, 0
3, 311360, Note_on_c, 2, 78, 51
3, 311520, Note_off_c, 2, 78, 0
3, 311680, Note_on_c, 2, 75, 50
3, 311840, Note_off_c, 2, 75, 0
3, 311840, Note_on_c, 2, 76, 50
3, 312000, Note_off_c, 2, 76, 0
3, 312160, Note_on_c, 2, 73, 49
3, 312320, Note_off_c, 2, 73, 0
3, 312320, Note_on_c, 2, 74, 49
3, 312480, Note_off_c, 2, 74, 0
3, 312480, Note_on_c, 2, 73, 48
3, 312840, Note_off_c, 2, 73, 0
3, 313920, Note_on_c, 2, 78, 58
3, 314080, Note_off_c, 2, 78, 0
3, 314080, Note_on_c, 2, 76, 59
3, 314240, Note_off_c, 2, 76, 0
3, 314240, Note_on_c, 2, 74, 57
3, 314344, Note_off_c, 2, 74, 0
3, 314400, Note_on_c, 2, 74, 56
3, 314504, Note_off_c, 2, 74, 0
3, 314560, Note_on_c, 2, 74, 55
3, 314664, Note_off_c, 2, 74, 0
3, 314720, Note_on_c, 2, 74, 54
3, 314824, Note_off_c, 2, 74, 0
3, 314880, Note_on_c, 2, 74, 53
3, 314984, Note_off_c, 2, 74, 0
3, 315040, Note_on_c, 2, 74, 51
3, 315144, Note_off_c, 2, 74, 0
3, 315200, Note_on_c, 2, 74, 50
3, 315304, Note_off_c, 2, 74, 0
3, 315360, Note_on_c, 2, 69, 55
3, 315520, Note_off_c, 2, 69, 0
3, 315520, Note_on_c, 2, 67, 54
3, 315680, Note_off_c, 2, 67, 0
3, 315680, Note_on_c, 2, 66, 53
3, 315784, Note_off_c, 2, 66, 0
3, 315840, Note_on_c, 2, 66, 52
3, 315944, Note_off_c, 2, 66, 0
3, 316000, Note_on_c, 2, 66, 51
3, 316104, Note_off_c, 2, 66, 0
3, 316160, Note_on_c, 2, 66, 50
3, 316264, Note_off_c, 2, 66, 0
3, 316320, Note_on_c, 2, 66, 49
3, 316424, Note_off_c, 2, 66, 0
3, 316480, Note_on_c, 2, 66, 48
3, 316584, Note_off_c, 2, 66, 0
3, 316640, Note_on_c, 2, 66, 52
3, 316744, Note_off_c, 2, 66, 0
3, 316960, Note_on_c, 2, 66, 52
3, 317120, Note_off_c, 2, 66, 0
3, 317120, Note_on_c, 2, 69, 51
3, 317224, Note_off_c, 2, 69, 0
3, 317440, Note_on_c, 2, 67, 51
3, 317600, Note_off_c, 2, 67, 0
3, 317600, Note_on_c, 2, 71, 50
3, 317704, Note_off_c, 2, 71, 0
3, 317920, Note_on_c, 2, 64, 50
3, 318080, Note_off_c, 2, 64, 0
3, 318080, Note_on_c, 2, 67, 51
3, 318184, Note_off_c, 2, 67, 0
3, 318240, Note_on_c, 2, 66, 50
3, 318344, Note_off_c, 2, 66, 0
3, 322720, Note_on_c, 2, 66, 62
3, 322880, Note_off_c, 2, 66, 0
3, 322880, Note_on_c, 2, 69, 62
3, 322984, Note_off_c, 2, 69, 0
3, 323200, Note_on_c, 2, 67, 61
3, 323360, Note_off_c, 2, 67, 0
3, 323360, Note_on_c, 2, 71, 61
3, 323464, Note_off_c, 2, 71, 0
3, 323680, Note_on_c, 2, 64, 60
3, 323840, Note_off_c, 2, 64, 0
3, 323840, Note_on_c, 2, 67, 60
3, 323944, Note_off_c, 2, 67, 0
3, 324000, Note_on_c, 2, 66, 59
3, 324360, Note_off_c, 2, 66, 0
3, 325440, Control_c, 2, 64, 0
3, 325440, Note_on_c, 2, 73, 50
3, 325600, Note_off_c, 2, 73, 0
3, 325760, Note_on_c, 2, 76, 52
3, 325864, Note_off_c, 2, 76, 0
3, 325920, Note_on_c, 2, 76, 53
3, 326080, Note_off_c, 2, 76, 0
3, 326240, Note_on_c, 2, 79, 55
3, 326344, Note_off_c, 2, 79, 0
3, 326400, Note_on_c, 2, 79, 56
3, 326560, Note_off_c, 2, 79, 0
3, 326720, Note_on_c, 2, 85, 58
3, 326824, Note_off_c, 2, 85, 0
3, 327040, Note_on_c, 2, 85, 60
3, 327144, Note_off_c, 2, 85, 0
3, 327200, Note_on_c, 2, 83, 60
3, 327304, Note_off_c, 2, 83, 0
3, 327360, Note_on_c, 2, 81, 58
3, 327464, Note_off_c, 2, 81, 0
3, 327520, Note_on_c, 2, 79, 56
3, 327624, Note_off_c, 2, 79, 0
3, 327680, Note_on_c, 2, 78, 54
3, 327784, Note_off_c, 2, 78, 0
3, 327840, Note_on_c, 2, 76, 52
3, 327944, Note_off_c, 2, 76, 0
3, 328000, Note_on_c, 2, 74, 50
3, 328104, Note_off_c, 2, 74, 0
3, 328160, Note_on_c, 2, 73, 49
3, 328264, Note_off_c, 2, 73, 0
3, 328320, Note_on_c, 2, 74, 51
3, 328480, Note_off_c, 2, 74, 0
3, 328640, Note_on_c, 2, 78, 49
3, 328744, Note_off_c, 2, 78, 0
3, 328800, Note_on_c, 2, 78, 49
3, 328960, Note_off_c, 2, 78, 0
3, 329120, Note_on_c, 2, 78, 50
3, 329224, Note_off_c, 2, 78, 0
3, 329280, Note_on_c, 2, 78, 51
3, 329440, Note_off_c, 2, 78, 0
3, 329440, Note_on_c, 2, 76, 51
3, 329544, Note_off_c, 2, 76, 0
3, 329600, Note_on_c, 2, 78, 52
3, 329704, Note_off_c, 2, 78, 0
3, 334240, Note_on_c, 2, 77, 52
3, 334400, Note_off_c, 2, 77, 0
3, 334400, Note_on_c, 2, 78, 51
3, 334560, Note_off_c, 2, 78, 0
3, 334720, Note_on_c, 2, 75, 50
3, 334880, Note_off_c, 2, 75, 0
3, 334880, Note_on_c, 2, 76, 50
3, 335040, Note_off_c, 2, 76, 0
3, 335200, Note_on_c, 2, 73, 49
3, 335360, Note_off_c, 2, 73, 0
3, 335360, Note_on_c, 2, 74, 49
3, 335520, Note_off_c, 2, 74, 0
3, 335520, Note_on_c, 2, 73, 48
3, 335880, Note_off_c, 2, 73, 0
3, 336960, Note_on_c, 2, 78, 58
3, 337120, Note_off_c, 2, 78, 0
3, 337120, Note_on_c, 2, 76, 59
3, 337280, Note_off_c, 2, 76, 0
3, 337280, Note_on_c, 2, 74, 57
3, 337384, Note_off_c, 2, 74, 0
3, 337440, Note_on_c, 2, 74, 56
3, 337544, Note_off_c, 2, 74, 0
3, 337600, Note_on_c, 2, 74, 55
3, 337704, Note_off_c, 2, 74, 0
3, 337760, Note_on_c, 2, 74, 54
3, 337864, Note_off_c, 2, 74, 0
3, 337920, Note_on_c, 2, 74, 53
3, 338024, Note_off_c, 2, 74, 0
3, 338080, Note_on_c, 2, 74, 51
3, 338184, Note_off_c, 2, 74, 0
3, 338240, Note_on_c, 2, 74, 50
3, 338344, Note_off_c, 2, 74, 0
3, 338400, Note_on_c, 2, 69, 55
3, 338560, Note_off_c, 2, 69, 0
3, 338560, Note_on_c, 2, 67, 54
3, 338720, Note_off_c, 2, 67, 0
3, 338720, Note_on_c, 2, 66, 53
3, 338824, Note_off_c, 2, 66, 0
3, 338880, Note_on_c, 2, 66, 52
3, 338984, Note_off_c, 2, 66, 0
3, 339040, Note_on_c, 2, 66, 51
3, 339144, Note_off_c, 2, 66, 0
3, 339200, Note_on_c, 2, 66, 50
3, 339304, Note_off_c, 2, 66, 0
3, 339360, Note_on_c, 2, 66, 49
3, 339464, Note_off_c, 2, 66, 0
3, 339520, Note_on_c, 2, 66, 48
3, 339624, Note_off_c, 2, 66, 0
3, 339680, Note_on_c, 2, 66, 52
3, 339784, Note_off_c, 2, 66, 0
3, 340000, Note_on_c, 2, 66, 52
3, 340160, Note_off_c, 2, 66, 0
3, 340160, Note_on_c, 2, 69, 51
3, 340264, Note_off_c, 2, 69, 0
3, 340480, Note_on_c, 2, 67, 51
3, 340640, Note_off_c, 2, 67, 0
3, 340640, Note_on_c, 2, 71, 50
3, 340744, Note_off_c, 2, 71, 0
3, 340960, Note_on_c, 2, 64, 50
3, 341120, Note_off_c, 2, 64, 0
3, 341120, Note_on_c, 2, 67, 51
3, 341224, Note_off_c, 2, 67, 0
3, 341280, Note_on_c, 2, 66, 50
3, 341384, Note_off_c, 2, 66, 0
3, 345760, Note_on_c, 2, 66, 62
3, 345920, Note_off_c, 2, 66, 0
3, 345920, Note_on_c, 2, 69, 62
3, 346024, Note_off_c, 2, 69, 0
3, 346240, Note_on_c, 2, 67, 61
3, 346400, Note_off_c, 2, 67, 0
3, 346400, Note_on_c, 2, 71, 61
3, 346504, Note_off_c, 2, 71, 0
3, 346720, Note_on_c, 2, 64, 60
3, 346880, Note_off_c, 2, 64, 0
3, 346880, Note_on_c, 2, 67, 60
3, 346984, Note_off_c, 2, 67, 0
3, 347040, Note_on_c, 2, 66, 59
3, 347400, Note_off_c, 2, 66, 0
3, 348480, Control_c, 2, 64, 0
3, 360000, Control_c, 2, 64, 0
3, 371520, Control_c, 2, 64, 0
3, 371520, Note_on_c, 2, 69, 54
3, 371676, Note_off_c, 2, 69, 0
3, 371760, Note_on_c, 2, 69, 55
3, 371916, Note_off_c, 2, 69, 0
3, 372000, Note_on_c, 2, 69, 56
3, 372156, Note_off_c, 2, 69, 0
3, 372240, Note_on_c, 2, 69, 58
3, 372396, Note_off_c, 2, 69, 0
3, 372480, Note_on_c, 2, 69, 59
3, 372720, Note_off_c, 2, 69, 0
3, 372720, Note_on_c, 2, 69, 61
3, 372960, Note_off_c, 2, 69, 0
3, 372960, Note_on_c, 2, 69, 63
3, 374112, Note_off_c, 2, 69, 0
3, 374400, Note_on_c, 2, 74, 49
3, 374556, Note_off_c, 2, 74, 0
3, 374640, Note_on_c, 2, 74, 50
3, 374796, Note_off_c, 2, 74, 0
3, 374880, Note_on_c, 2, 74, 51
3, 375036, Note_off_c, 2, 74, 0
3, 375120, Note_on_c, 2, 74, 52
3, 375276, Note_off_c, 2, 74, 0
3, 375360, Note_on_c, 2, 74, 54
3, 375600, Note_off_c, 2, 74, 0
3, 375600, Note_on_c, 2, 74, 56
3, 375840, Note_off_c, 2, 74, 0
3, 375840, Note_on_c, 2, 74, 59
3, 376792, Note_off_c, 2, 74, 0
3, 377040, Note_on_c, 2, 83, 45
3, 377280, Note_off_c, 2, 83, 0
3, 377280, Note_on_c, 2, 81, 46
3, 377520, Note_off_c, 2, 81, 0
3, 377520, Note_on_c, 2, 79, 47
3, 377760, Note_off_c, 2, 79, 0
3, 377760, Note_on_c, 2, 78, 48
3, 378420, Note_off_c, 2, 78, 0
3, 378480, Note_on_c, 2, 83, 52
3, 378720, Note_off_c, 2, 83, 0
3, 378720, Note_on_c, 2, 81, 53
3, 378960, Note_off_c, 2, 81, 0
3, 378960, Note_on_c, 2, 79, 54
3, 379200, Note_off_c, 2, 79, 0
3, 379200, Note_on_c, 2, 78, 55
3, 379920, Note_off_c, 2, 78, 0
3, 394560, Control_c, 2, 64, 0
3, 394560, Note_on_c, 2, 69, 54
3, 394716, Note_off_c, 2, 69, 0
3, 394800, Note_on_c, 2, 69, 55
3, 394956, Note_off_c, 2, 69, 0
3, 395040, Note_on_c, 2, 69, 56
3, 395196, Note_off_c, 2, 69, 0
3, 395280, Note_on_c, 2, 69, 58
3, 395436, Note_off_c, 2, 69, 0
3, 395520, Note_on_c, 2, 69, 59
3, 395760, Note_off_c, 2, 69, 0
3, 395760, Note_on_c, 2, 69, 61
3, 396000, Note_off_c, 2, 69, 0
3, 396000, Note_on_c, 2, 69, 63
3, 397152, Note_off_c, 2, 69, 0
3, 397440, Note_on_c, 2, 74, 49
3, 397596, Note_off_c, 2, 74, 0
3, 397680, Note_on_c, 2, 74, 50
3, 397836, Note_off_c, 2, 74, 0
3, 397920, Note_on_c, 2, 74, 51
3, 398076, Note_off_c, 2, 74, 0
3, 398160, Note_on_c, 2, 74, 52
3, 398316, Note_off_c, 2, 74, 0
3, 398400, Note_on_c, 2, 74, 54
3, 398640, Note_off_c, 2, 74, 0
3, 398640, Note_on_c, 2, 74, 56
3, 398880, Note_off_c, 2, 74, 0
3, 398880, Note_on_c, 2, 74, 59
3, 399832, Note_off_c, 2, 74, 0
3, 400080, Note_on_c, 2, 83, 45
3, 400320, Note_off_c, 2, 83, 0
3, 400320, Note_on_c, 2, 81, 46
3, 400560, Note_off_c, 2, 81, 0
3, 400560, Note_on_c, 2, 79, 47
3, 400800, Note_off_c, 2, 79, 0
3, 400800, Note_on_c, 2, 78, 48
3, 401460, Note_off_c, 2, 78, 0
3, 401520, Note_on_c, 2, 83, 52
3, 401760, Note_off_c, 2, 83, 0
3, 401760, Note_on_c, 2, 81, 53
3, 402000, Note_off_c, 2, 81, 0
3, 402000, Note_on_c, 2, 79, 54
3, 402240, Note_off_c, 2, 79, 0
3, 402240, Note_on_c, 2, 78, 55
3, 402960, Note_off_c, 2, 78, 0
3, 417600, Control_c, 2, 64, 0
3, 427680, Note_on_c, 2, 67, 42
3, 428160, Note_off_c, 2, 67, 0
3, 428160, Note_on_c, 2, 65, 36
3, 428520, Note_off_c, 2, 65, 0
3, 429120, Control_c, 2, 64, 0
3, 439200, Note_on_c, 2, 67, 42
3, 439680, Note_off_c, 2, 67, 0
3, 439680, Note_on_c, 2, 65, 36
3, 440040, Note_off_c, 2, 65, 0
3, 440640, Control_c, 2, 64, 0
3, 461280, Note_on_c, 2, 69, 52
3, 462000, Note_off_c, 2, 69, 0
3, 462000, Note_on_c, 2, 67, 47
3, 462240, Note_off_c, 2, 67, 0
3, 462240, Note_on_c, 2, 65, 45
3, 462600, Note_off_c, 2, 65, 0
3, 463680, Control_c, 2, 64, 0
3, 484320, Note_on_c, 2, 69, 52
3, 485040, Note_off_c, 2, 69, 0
3, 485040, Note_on_c, 2, 67, 47
3, 485280, Note_off_c, 2, 67, 0
3, 485280, Note_on_c, 2, 65, 45
3, 485640, Note_off_c, 2, 65, 0
3, 492480, Note_on_c, 2, 78, 71
3, 493440, Note_off_c, 2, 78, 0
3, 493440, Note_on_c, 2, 78, 66
3, 493632, Note_off_c, 2, 78, 0
3, 493920, Note_on_c, 2, 74, 69
3, 494880, Note_off_c, 2, 74, 0
3, 494880, Note_on_c, 2, 78, 62
3, 495072, Note_off_c, 2, 78, 0
3, 504000, Note_on_c, 2, 78, 71
3, 504960, Note_off_c, 2, 78, 0
3, 504960, Note_on_c, 2, 78, 66
3, 505152, Note_off_c, 2, 78, 0
3, 505440, Note_on_c, 2, 74, 69
3, 506400, Note_off_c, 2, 74, 0
3, 506400, Note_on_c, 2, 78, 62
3, 506592, Note_off_c, 2, 78, 0
3, 515520, Note_on_c, 2, 81, 81
3, 516000, Note_off_c, 2, 81, 0
3, 516000, Note_on_c, 2, 79, 77
3, 516480, Note_off_c, 2, 79, 0
3, 516480, Note_on_c, 2, 78, 78
3, 516672, Note_off_c, 2, 78, 0
3, 516720, Note_on_c, 2, 81, 81
3, 516960, Note_off_c, 2, 81, 0
3, 516960, Note_on_c, 2, 81, 80
3, 517440, Note_off_c, 2, 81, 0
3, 517440, Note_on_c, 2, 79, 78
3, 517920, Note_off_c, 2, 79, 0
3, 517920, Note_on_c, 2, 78, 76
3, 518112, Note_off_c, 2, 78, 0
3, 518160, Note_on_c, 2, 76, 76
3, 518400, Note_off_c, 2, 76, 0
3, 518400, Note_on_c, 2, 74, 75
3, 518640, Note_off_c, 2, 74, 0
3, 518640, Note_on_c, 2, 73, 74
3, 518880, Note_off_c, 2, 73, 0
3, 518880, Note_on_c, 2, 71, 73
3, 519120, Note_off_c, 2, 71, 0
3, 519120, Note_on_c, 2, 69, 72
3, 519360, Note_off_c, 2, 69, 0
3, 519360, Note_on_c, 2, 67, 71
3, 519600, Note_off_c, 2, 67, 0
3, 519600, Note_on_c, 2, 66, 70
3, 519840, Note_off_c, 2, 66, 0
3, 519840, Note_on_c, 2, 73, 70
3, 519840, Note_on_c, 2, 64, 70
3, 520032, Note_off_c, 2, 64, 0
3, 520032, Note_off_c, 2, 73, 0
3, 527040, Note_on_c, 2, 78, 75
3, 528000, Note_off_c, 2, 78, 0
3, 528000, Note_on_c, 2, 78, 71
3, 528192, Note_off_c, 2, 78, 0
3, 528480, Note_on_c, 2, 74, 73
3, 529440, Note_off_c, 2, 74, 0
3, 529440, Note_on_c, 2, 78, 69
3, 529632, Note_off_c, 2, 78, 0
3, 538560, Note_on_c, 2, 81, 81
3, 539040, Note_off_c, 2, 81, 0
3, 539040, Note_on_c, 2, 79, 77
3, 539520, Note_off_c, 2, 79, 0
3, 539520, Note_on_c, 2, 78, 78
3, 539712, Note_off_c, 2, 78, 0
3, 539760, Note_on_c, 2, 81, 81
3, 540000, Note_off_c, 2, 81, 0
3, 540000, Note_on_c, 2, 81, 80
3, 540480, Note_off_c, 2, 81, 0
3, 540480, Note_on_c, 2, 79, 78
3, 540960, Note_off_c, 2, 79, 0
3, 540960, Note_on_c, 2, 78, 76
3, 541152, Note_off_c, 2, 78, 0
3, 541200, Note_on_c, 2, 76, 76
3, 541440, Note_off_c, 2, 76, 0
3, 541440, Note_on_c, 2, 74, 75
3, 541680, Note_off_c, 2, 74, 0
3, 541680, Note_on_c, 2, 73, 74
3, 541920, Note_off_c, 2, 73, 0
3, 541920, Note_on_c, 2, 71, 73
3, 542160, Note_off_c, 2, 71, 0
3, 542160, Note_on_c, 2, 69, 72
3, 542400, Note_off_c, 2, 69, 0
3, 542400, Note_on_c, 2, 67, 71
3, 542640, Note_off_c, 2, 67, 0
3, 542640, Note_on_c, 2, 66, 70
3, 542880, Note_off_c, 2, 66, 0
3, 542880, Note_on_c, 2, 64, 70
3, 542880, Note_on_c, 2, 73, 70
3, 543072, Note_off_c, 2, 73, 0
3, 543072, Note_off_c, 2, 64, 0
3, 550080, Note_on_c, 2, 78, 75
3, 551040, Note_off_c, 2, 78, 0
3, 551040, Note_on_c, 2, 78, 71
3, 551232, Note_off_c, 2, 78, 0
3, 551520, Note_on_c, 2, 74, 73
3, 552480, Note_off_c, 2, 74, 0
3, 552480, Note_on_c, 2, 78, 69
3, 552672, Note_off_c, 2, 78, 0
3, 590400, Control_c, 2, 64, 0
3, 598080, Control_c, 2, 64, 0
3, 605760, Control_c, 2, 64, 0
3, 613440, Note_on_c, 2, 78, 59
3, 615535, Note_off_c, 2, 78, 0
3, 616320, Note_on_c, 2, 74, 68
3, 618240, Note_off_c, 2, 74, 0
3, 622080, Note_on_c, 2, 67, 61
3, 623040, Note_off_c, 2, 67, 0
3, 623040, Note_on_c, 2, 66, 39
3, 623760, Note_off_c, 2, 66, 0
3, 640320, Note_on_c, 2, 69, 85
3, 640320, Note_on_c, 2, 73, 85
3, 640680, Note_off_c, 2, 73, 0
3, 640680, Note_off_c, 2, 69, 0
3, 640800, Note_on_c, 2, 69, 88
3, 640800, Note_on_c, 2, 74, 88
3, 641160, Note_off_c, 2, 74, 0
3, 641160, Note_off_c, 2, 69, 0
3, 641280, Note_on_c, 2, 76, 92
3, 641280, Note_on_c, 2, 69, 92
3, 641640, Note_off_c, 2, 69, 0
3, 641640, Note_off_c, 2, 76, 0
3, 643200, Control_c, 2, 64, 0
3, 655680, Note_on_c, 2, 73, 85
3, 655680, Note_on_c, 2, 69, 85
3, 656040, Note_off_c, 2, 69, 0
3, 656040, Note_off_c, 2, 73, 0
3, 656160, Note_on_c, 2, 74, 88
3, 656160, Note_on_c, 2, 69, 88
3, 656520, Note_off_c, 2, 69, 0
3, 656520, Note_off_c, 2, 74, 0
3, 656640, Note_on_c, 2, 69, 92
3, 656640, Note_on_c, 2, 76, 92
3, 657000, Note_off_c, 2, 76, 0
3, 657000, Note_off_c, 2, 69, 0
3, 658560, Control_c, 2, 64, 0
3, 717600, Note_on_c, 2, 76, 105
3, 717600, Note_on_c, 2, 79, 105
3, 717960, Note_off_c, 2, 79, 0
3, 717960, Note_off_c, 2, 76, 0
3, 718080, Note_on_c, 2, 74, 99
3, 718080, Note_on_c, 2, 78, 99
3, 718440, Note_off_c, 2, 78, 0
3, 718440, Note_off_c, 2, 74, 0
3, 718440, End_track
4, 0, Start_track
4, 0, Title_t, "No Name"
4, 0, Control_c, 3, 0, 0
4, 0, Control_c, 3, 32, 0
4, 0, Program_c, 3, 0
4, 0, Control_c, 3, 64, 0
4, 0, Control_c, 3, 64, 0
4, 0, Control_c, 3, 7, 112
4, 0, Control_c, 3, 1, 0
4, 0, Pitch_bend_c, 3, 8192
4, 0, Control_c, 3, 93, 28
4, 0, Control_c, 3, 91, 100
4, 0, Control_c, 3, 10, 64
4, 1440, Control_c, 3, 64, 0
4, 1440, Note_on_c, 3, 66, 57
4, 1680, Note_off_c, 3, 66, 0
4, 1680, Note_on_c, 3, 69, 57
4, 1920, Note_off_c, 3, 69, 0
4, 1920, Note_on_c, 3, 66, 57
4, 2160, Note_off_c, 3, 66, 0
4, 2160, Note_on_c, 3, 69, 56
4, 2400, Note_off_c, 3, 69, 0
4, 2400, Note_on_c, 3, 66, 56
4, 2640, Note_off_c, 3, 66, 0
4, 2640, Note_on_c, 3, 69, 56
4, 2832, Note_off_c, 3, 69, 0
4, 2880, Note_on_c, 3, 66, 56
4, 3120, Note_off_c, 3, 66, 0
4, 3120, Note_on_c, 3, 69, 55
4, 3360, Note_off_c, 3, 69, 0
4, 3360, Note_on_c, 3, 66, 55
4, 3600, Note_off_c, 3, 66, 0
4, 3600, Note_on_c, 3, 69, 55
4, 3840, Note_off_c, 3, 69, 0
4, 3840, Note_on_c, 3, 66, 54
4, 4080, Note_off_c, 3, 66, 0
4, 4080, Note_on_c, 3, 69, 54
4, 4272, Note_off_c, 3, 69, 0
4, 4320, Note_on_c, 3, 66, 54
4, 4560, Note_off_c, 3, 66, 0
4, 4560, Note_on_c, 3, 69, 54
4, 4800, Note_off_c, 3, 69, 0
4, 4800, Note_on_c, 3, 66, 53
4, 5040, Note_off_c, 3, 66, 0
4, 5040, Note_on_c, 3, 69, 53
4, 5280, Note_off_c, 3, 69, 0
4, 5280, Note_on_c, 3, 67, 53
4, 5520, Note_off_c, 3, 67, 0
4, 5520, Note_on_c, 3, 69, 52
4, 5712, Note_off_c, 3, 69, 0
4, 5760, Note_on_c, 3, 66, 52
4, 6120, Note_off_c, 3, 66, 0
4, 7200, Note_on_c, 3, 66, 50
4, 7440, Note_off_c, 3, 66, 0
4, 7440, Note_on_c, 3, 69, 50
4, 7680, Note_off_c, 3, 69, 0
4, 7680, Note_on_c, 3, 66, 50
4, 7920, Note_off_c, 3, 66, 0
4, 7920, Note_on_c, 3, 69, 49
4, 8160, Note_off_c, 3, 69, 0
4, 8160, Note_on_c, 3, 66, 49
4, 8400, Note_off_c, 3, 66, 0
4, 8400, Note_on_c, 3, 69, 49
4, 8592, Note_off_c, 3, 69, 0
4, 8640, Note_on_c, 3, 66, 48
4, 8880, Note_off_c, 3, 66, 0
4, 8880, Note_on_c, 3, 69, 48
4, 9120, Note_off_c, 3, 69, 0
4, 9120, Note_on_c, 3, 66, 48
4, 9360, Note_off_c, 3, 66, 0
4, 9360, Note_on_c, 3, 69, 48
4, 9600, Note_off_c, 3, 69, 0
4, 9600, Note_on_c, 3, 66, 47
4, 9840, Note_off_c, 3, 66, 0
4, 9840, Note_on_c, 3, 69, 47
4, 10032, Note_off_c, 3, 69, 0
4, 10080, Note_on_c, 3, 66, 47
4, 10320, Note_off_c, 3, 66, 0
4, 10320, Note_on_c, 3, 69, 46
4, 10560, Note_off_c, 3, 69, 0
4, 10560, Note_on_c, 3, 66, 46
4, 10800, Note_off_c, 3, 66, 0
4, 10800, Note_on_c, 3, 69, 46
4, 11040, Note_off_c, 3, 69, 0
4, 11040, Note_on_c, 3, 67, 45
4, 11280, Note_off_c, 3, 67, 0
4, 11280, Note_on_c, 3, 69, 45
4, 11472, Note_off_c, 3, 69, 0
4, 11520, Note_on_c, 3, 66, 45
4, 11880, Note_off_c, 3, 66, 0
4, 12960, Control_c, 3, 64, 0
4, 12960, Note_on_c, 3, 66, 57
4, 13200, Note_off_c, 3, 66, 0
4, 13200, Note_on_c, 3, 69, 57
4, 13440, Note_off_c, 3, 69, 0
4, 13440, Note_on_c, 3, 66, 57
4, 13680, Note_off_c, 3, 66, 0
4, 13680, Note_on_c, 3, 69, 56
4, 13920, Note_off_c, 3, 69, 0
4, 13920, Note_on_c, 3, 66, 56
4, 14160, Note_off_c, 3, 66, 0
4, 14160, Note_on_c, 3, 69, 56
4, 14352, Note_off_c, 3, 69, 0
4, 14400, Note_on_c, 3, 66, 56
4, 14640, Note_off_c, 3, 66, 0
4, 14640, Note_on_c, 3, 69, 55
4, 14880, Note_off_c, 3, 69, 0
4, 14880, Note_on_c, 3, 66, 55
4, 15120, Note_off_c, 3, 66, 0
4, 15120, Note_on_c, 3, 69, 55
4, 15360, Note_off_c, 3, 69, 0
4, 15360, Note_on_c, 3, 66, 54
4, 15600, Note_off_c, 3, 66, 0
4, 15600, Note_on_c, 3, 69, 54
4, 15792, Note_off_c, 3, 69, 0
4, 15840, Note_on_c, 3, 66, 54
4, 16080, Note_off_c, 3, 66, 0
4, 16080, Note_on_c, 3, 69, 54
4, 16320, Note_off_c, 3, 69, 0
4, 16320, Note_on_c, 3, 66, 53
4, 16560, Note_off_c, 3, 66, 0
4, 16560, Note_on_c, 3, 69, 53
4, 16800, Note_off_c, 3, 69, 0
4, 16800, Note_on_c, 3, 67, 53
4, 17040, Note_off_c, 3, 67, 0
4, 17040, Note_on_c, 3, 69, 52
4, 17232, Note_off_c, 3, 69, 0
4, 17280, Note_on_c, 3, 66, 52
4, 17640, Note_off_c, 3, 66, 0
4, 18720, Note_on_c, 3, 66, 50
4, 18960, Note_off_c, 3, 66, 0
4, 18960, Note_on_c, 3, 69, 50
4, 19200, Note_off_c, 3, 69, 0
4, 19200, Note_on_c, 3, 66, 50
4, 19440, Note_off_c, 3, 66, 0
4, 19440, Note_on_c, 3, 69, 49
4, 19680, Note_off_c, 3, 69, 0
4, 19680, Note_on_c, 3, 66, 49
4, 19920, Note_off_c, 3, 66, 0
4, 19920, Note_on_c, 3, 69, 49
4, 20112, Note_off_c, 3, 69, 0
4, 20160, Note_on_c, 3, 66, 48
4, 20400, Note_off_c, 3, 66, 0
4, 20400, Note_on_c, 3, 69, 48
4, 20640, Note_off_c, 3, 69, 0
4, 20640, Note_on_c, 3, 66, 48
4, 20880, Note_off_c, 3, 66, 0
4, 20880, Note_on_c, 3, 69, 48
4, 21120, Note_off_c, 3, 69, 0
4, 21120, Note_on_c, 3, 66, 47
4, 21360, Note_off_c, 3, 66, 0
4, 21360, Note_on_c, 3, 69, 47
4, 21552, Note_off_c, 3, 69, 0
4, 21600, Note_on_c, 3, 66, 47
4, 21840, Note_off_c, 3, 66, 0
4, 21840, Note_on_c, 3, 69, 46
4, 22080, Note_off_c, 3, 69, 0
4, 22080, Note_on_c, 3, 66, 46
4, 22320, Note_off_c, 3, 66, 0
4, 22320, Note_on_c, 3, 69, 46
4, 22560, Note_off_c, 3, 69, 0
4, 22560, Note_on_c, 3, 67, 45
4, 22800, Note_off_c, 3, 67, 0
4, 22800, Note_on_c, 3, 69, 45
4, 22992, Note_off_c, 3, 69, 0
4, 23040, Note_on_c, 3, 66, 45
4, 23400, Note_off_c, 3, 66, 0
4, 24480, Control_c, 3, 64, 0
4, 30240, Note_on_c, 3, 66, 66
4, 30480, Note_off_c, 3, 66, 0
4, 30480, Note_on_c, 3, 69, 65
4, 30720, Note_off_c, 3, 69, 0
4, 30720, Note_on_c, 3, 66, 65
4, 30960, Note_off_c, 3, 66, 0
4, 30960, Note_on_c, 3, 69, 64
4, 31200, Note_off_c, 3, 69, 0
4, 31200, Note_on_c, 3, 66, 64
4, 31440, Note_off_c, 3, 66, 0
4, 31440, Note_on_c, 3, 69, 64
4, 31632, Note_off_c, 3, 69, 0
4, 31680, Note_on_c, 3, 66, 63
4, 31920, Note_off_c, 3, 66, 0
4, 31920, Note_on_c, 3, 69, 63
4, 32160, Note_off_c, 3, 69, 0
4, 32160, Note_on_c, 3, 66, 62
4, 32400, Note_off_c, 3, 66, 0
4, 32400, Note_on_c, 3, 69, 62
4, 32640, Note_off_c, 3, 69, 0
4, 32640, Note_on_c, 3, 66, 62
4, 32880, Note_off_c, 3, 66, 0
4, 32880, Note_on_c, 3, 69, 61
4, 33072, Note_off_c, 3, 69, 0
4, 33120, Note_on_c, 3, 66, 61
4, 33360, Note_off_c, 3, 66, 0
4, 33360, Note_on_c, 3, 69, 60
4, 33600, Note_off_c, 3, 69, 0
4, 33600, Note_on_c, 3, 64, 60
4, 33840, Note_off_c, 3, 64, 0
4, 33840, Note_on_c, 3, 69, 59
4, 34080, Note_off_c, 3, 69, 0
4, 34080, Note_on_c, 3, 66, 59
4, 34320, Note_off_c, 3, 66, 0
4, 34320, Note_on_c, 3, 69, 59
4, 34560, Note_off_c, 3, 69, 0
4, 34560, Note_on_c, 3, 61, 58
4, 34920, Note_off_c, 3, 61, 0
4, 36000, Control_c, 3, 64, 0
4, 36000, Note_on_c, 3, 66, 79
4, 36240, Note_off_c, 3, 66, 0
4, 36240, Note_on_c, 3, 69, 79
4, 36480, Note_off_c, 3, 69, 0
4, 36480, Note_on_c, 3, 66, 78
4, 36720, Note_off_c, 3, 66, 0
4, 36720, Note_on_c, 3, 69, 78
4, 36960, Note_off_c, 3, 69, 0
4, 36960, Note_on_c, 3, 66, 77
4, 37200, Note_off_c, 3, 66, 0
4, 37200, Note_on_c, 3, 69, 76
4, 37392, Note_off_c, 3, 69, 0
4, 37440, Note_on_c, 3, 66, 76
4, 37680, Note_off_c, 3, 66, 0
4, 37680, Note_on_c, 3, 69, 75
4, 37920, Note_off_c, 3, 69, 0
4, 37920, Note_on_c, 3, 66, 75
4, 38160, Note_off_c, 3, 66, 0
4, 38160, Note_on_c, 3, 69, 74
4, 38400, Note_off_c, 3, 69, 0
4, 38400, Note_on_c, 3, 66, 74
4, 38640, Note_off_c, 3, 66, 0
4, 38640, Note_on_c, 3, 69, 73
4, 38832, Note_off_c, 3, 69, 0
4, 38880, Note_on_c, 3, 66, 72
4, 39120, Note_off_c, 3, 66, 0
4, 39120, Note_on_c, 3, 69, 72
4, 39360, Note_off_c, 3, 69, 0
4, 39360, Note_on_c, 3, 66, 71
4, 39600, Note_off_c, 3, 66, 0
4, 39600, Note_on_c, 3, 69, 71
4, 39840, Note_off_c, 3, 69, 0
4, 39840, Note_on_c, 3, 67, 70
4, 40080, Note_off_c, 3, 67, 0
4, 40080, Note_on_c, 3, 69, 69
4, 40272, Note_off_c, 3, 69, 0
4, 40320, Note_on_c, 3, 66, 69
4, 40680, Note_off_c, 3, 66, 0
4, 41760, Note_on_c, 3, 66, 63
4, 42000, Note_off_c, 3, 66, 0
4, 42000, Note_on_c, 3, 69, 63
4, 42240, Note_off_c, 3, 69, 0
4, 42240, Note_on_c, 3, 66, 62
4, 42480, Note_off_c, 3, 66, 0
4, 42480, Note_on_c, 3, 69, 61
4, 42720, Note_off_c, 3, 69, 0
4, 42720, Note_on_c, 3, 66, 61
4, 42960, Note_off_c, 3, 66, 0
4, 42960, Note_on_c, 3, 69, 60
4, 43152, Note_off_c, 3, 69, 0
4, 43200, Note_on_c, 3, 66, 59
4, 43440, Note_off_c, 3, 66, 0
4, 43440, Note_on_c, 3, 69, 58
4, 43680, Note_off_c, 3, 69, 0
4, 43680, Note_on_c, 3, 66, 58
4, 43920, Note_off_c, 3, 66, 0
4, 43920, Note_on_c, 3, 69, 57
4, 44160, Note_off_c, 3, 69, 0
4, 44160, Note_on_c, 3, 66, 56
4, 44400, Note_off_c, 3, 66, 0
4, 44400, Note_on_c, 3, 69, 56
4, 44592, Note_off_c, 3, 69, 0
4, 44640, Note_on_c, 3, 66, 55
4, 44880, Note_off_c, 3, 66, 0
4, 44880, Note_on_c, 3, 69, 54
4, 45120, Note_off_c, 3, 69, 0
4, 45120, Note_on_c, 3, 66, 54
4, 45360, Note_off_c, 3, 66, 0
4, 45360, Note_on_c, 3, 69, 53
4, 45600, Note_off_c, 3, 69, 0
4, 45600, Note_on_c, 3, 67, 52
4, 45840, Note_off_c, 3, 67, 0
4, 45840, Note_on_c, 3, 69, 52
4, 46032, Note_off_c, 3, 69, 0
4, 46080, Note_on_c, 3, 66, 53
4, 46440, Note_off_c, 3, 66, 0
4, 47520, Control_c, 3, 64, 0
4, 53280, Note_on_c, 3, 66, 66
4, 53520, Note_off_c, 3, 66, 0
4, 53520, Note_on_c, 3, 69, 65
4, 53760, Note_off_c, 3, 69, 0
4, 53760, Note_on_c, 3, 66, 65
4, 54000, Note_off_c, 3, 66, 0
4, 54000, Note_on_c, 3, 69, 64
4, 54240, Note_off_c, 3, 69, 0
4, 54240, Note_on_c, 3, 66, 64
4, 54480, Note_off_c, 3, 66, 0
4, 54480, Note_on_c, 3, 69, 64
4, 54672, Note_off_c, 3, 69, 0
4, 54720, Note_on_c, 3, 66, 63
4, 54960, Note_off_c, 3, 66, 0
4, 54960, Note_on_c, 3, 69, 63
4, 55200, Note_off_c, 3, 69, 0
4, 55200, Note_on_c, 3, 66, 62
4, 55440, Note_off_c, 3, 66, 0
4, 55440, Note_on_c, 3, 69, 62
4, 55680, Note_off_c, 3, 69, 0
4, 55680, Note_on_c, 3, 66, 62
4, 55920, Note_off_c, 3, 66, 0
4, 55920, Note_on_c, 3, 69, 61
4, 56112, Note_off_c, 3, 69, 0
4, 56160, Note_on_c, 3, 66, 61
4, 56400, Note_off_c, 3, 66, 0
4, 56400, Note_on_c, 3, 69, 60
4, 56640, Note_off_c, 3, 69, 0
4, 56640, Note_on_c, 3, 64, 60
4, 56880, Note_off_c, 3, 64, 0
4, 56880, Note_on_c, 3, 69, 59
4, 57120, Note_off_c, 3, 69, 0
4, 57120, Note_on_c, 3, 66, 59
4, 57360, Note_off_c, 3, 66, 0
4, 57360, Note_on_c, 3, 69, 59
4, 57600, Note_off_c, 3, 69, 0
4, 57600, Note_on_c, 3, 61, 58
4, 57960, Note_off_c, 3, 61, 0
4, 59040, Control_c, 3, 64, 0
4, 59040, Note_on_c, 3, 66, 79
4, 59280, Note_off_c, 3, 66, 0
4, 59280, Note_on_c, 3, 69, 79
4, 59520, Note_off_c, 3, 69, 0
4, 59520, Note_on_c, 3, 66, 78
4, 59760, Note_off_c, 3, 66, 0
4, 59760, Note_on_c, 3, 69, 78
4, 60000, Note_off_c, 3, 69, 0
4, 60000, Note_on_c, 3, 66, 77
4, 60240, Note_off_c, 3, 66, 0
4, 60240, Note_on_c, 3, 69, 76
4, 60432, Note_off_c, 3, 69, 0
4, 60480, Note_on_c, 3, 66, 76
4, 60720, Note_off_c, 3, 66, 0
4, 60720, Note_on_c, 3, 69, 75
4, 60960, Note_off_c, 3, 69, 0
4, 60960, Note_on_c, 3, 66, 75
4, 61200, Note_off_c, 3, 66, 0
4, 61200, Note_on_c, 3, 69, 74
4, 61440, Note_off_c, 3, 69, 0
4, 61440, Note_on_c, 3, 66, 74
4, 61680, Note_off_c, 3, 66, 0
4, 61680, Note_on_c, 3, 69, 73
4, 61872, Note_off_c, 3, 69, 0
4, 61920, Note_on_c, 3, 66, 72
4, 62160, Note_off_c, 3, 66, 0
4, 62160, Note_on_c, 3, 69, 72
4, 62400, Note_off_c, 3, 69, 0
4, 62400, Note_on_c, 3, 66, 71
4, 62640, Note_off_c, 3, 66, 0
4, 62640, Note_on_c, 3, 69, 71
4, 62880, Note_off_c, 3, 69, 0
4, 62880, Note_on_c, 3, 67, 70
4, 63120, Note_off_c, 3, 67, 0
4, 63120, Note_on_c, 3, 69, 69
4, 63312, Note_off_c, 3, 69, 0
4, 63360, Note_on_c, 3, 66, 69
4, 63720, Note_off_c, 3, 66, 0
4, 64800, Note_on_c, 3, 66, 63
4, 65040, Note_off_c, 3, 66, 0
4, 65040, Note_on_c, 3, 69, 63
4, 65280, Note_off_c, 3, 69, 0
4, 65280, Note_on_c, 3, 66, 62
4, 65520, Note_off_c, 3, 66, 0
4, 65520, Note_on_c, 3, 69, 61
4, 65760, Note_off_c, 3, 69, 0
4, 65760, Note_on_c, 3, 66, 61
4, 66000, Note_off_c, 3, 66, 0
4, 66000, Note_on_c, 3, 69, 60
4, 66192, Note_off_c, 3, 69, 0
4, 66240, Note_on_c, 3, 66, 59
4, 66480, Note_off_c, 3, 66, 0
4, 66480, Note_on_c, 3, 69, 58
4, 66720, Note_off_c, 3, 69, 0
4, 66720, Note_on_c, 3, 66, 58
4, 66960, Note_off_c, 3, 66, 0
4, 66960, Note_on_c, 3, 69, 57
4, 67200, Note_off_c, 3, 69, 0
4, 67200, Note_on_c, 3, 66, 56
4, 67440, Note_off_c, 3, 66, 0
4, 67440, Note_on_c, 3, 69, 56
4, 67632, Note_off_c, 3, 69, 0
4, 67680, Note_on_c, 3, 66, 55
4, 67920, Note_off_c, 3, 66, 0
4, 67920, Note_on_c, 3, 69, 54
4, 68160, Note_off_c, 3, 69, 0
4, 68160, Note_on_c, 3, 66, 54
4, 68400, Note_off_c, 3, 66, 0
4, 68400, Note_on_c, 3, 69, 53
4, 68640, Note_off_c, 3, 69, 0
4, 68640, Note_on_c, 3, 67, 52
4, 68880, Note_off_c, 3, 67, 0
4, 68880, Note_on_c, 3, 69, 52
4, 69072, Note_off_c, 3, 69, 0
4, 69120, Note_on_c, 3, 66, 53
4, 69480, Note_off_c, 3, 66, 0
4, 70560, Control_c, 3, 64, 0
4, 70560, Note_on_c, 3, 66, 59
4, 70800, Note_off_c, 3, 66, 0
4, 70800, Note_on_c, 3, 69, 59
4, 71040, Note_off_c, 3, 69, 0
4, 71040, Note_on_c, 3, 66, 59
4, 71280, Note_off_c, 3, 66, 0
4, 71280, Note_on_c, 3, 69, 58
4, 71520, Note_off_c, 3, 69, 0
4, 71520, Note_on_c, 3, 66, 58
4, 71760, Note_off_c, 3, 66, 0
4, 71760, Note_on_c, 3, 69, 57
4, 71952, Note_off_c, 3, 69, 0
4, 72000, Note_on_c, 3, 66, 57
4, 72240, Note_off_c, 3, 66, 0
4, 72240, Note_on_c, 3, 69, 56
4, 72480, Note_off_c, 3, 69, 0
4, 72480, Note_on_c, 3, 66, 56
4, 72720, Note_off_c, 3, 66, 0
4, 72720, Note_on_c, 3, 69, 56
4, 72960, Note_off_c, 3, 69, 0
4, 72960, Note_on_c, 3, 66, 55
4, 73200, Note_off_c, 3, 66, 0
4, 73200, Note_on_c, 3, 69, 55
4, 73392, Note_off_c, 3, 69, 0
4, 73440, Note_on_c, 3, 66, 54
4, 73680, Note_off_c, 3, 66, 0
4, 73680, Note_on_c, 3, 69, 54
4, 73920, Note_off_c, 3, 69, 0
4, 73920, Note_on_c, 3, 66, 54
4, 74160, Note_off_c, 3, 66, 0
4, 74160, Note_on_c, 3, 69, 53
4, 74400, Note_off_c, 3, 69, 0
4, 74400, Note_on_c, 3, 67, 53
4, 74640, Note_off_c, 3, 67, 0
4, 74640, Note_on_c, 3, 69, 52
4, 74832, Note_off_c, 3, 69, 0
4, 74880, Note_on_c, 3, 66, 52
4, 75240, Note_off_c, 3, 66, 0
4, 76320, Note_on_c, 3, 66, 73
4, 76560, Note_off_c, 3, 66, 0
4, 76560, Note_on_c, 3, 69, 73
4, 76800, Note_off_c, 3, 69, 0
4, 76800, Note_on_c, 3, 66, 73
4, 77040, Note_off_c, 3, 66, 0
4, 77040, Note_on_c, 3, 69, 73
4, 77280, Note_off_c, 3, 69, 0
4, 77280, Note_on_c, 3, 66, 72
4, 77520, Note_off_c, 3, 66, 0
4, 77520, Note_on_c, 3, 69, 72
4, 77712, Note_off_c, 3, 69, 0
4, 77760, Note_on_c, 3, 66, 72
4, 78000, Note_off_c, 3, 66, 0
4, 78000, Note_on_c, 3, 69, 72
4, 78240, Note_off_c, 3, 69, 0
4, 78240, Note_on_c, 3, 66, 71
4, 78480, Note_off_c, 3, 66, 0
4, 78480, Note_on_c, 3, 69, 71
4, 78720, Note_off_c, 3, 69, 0
4, 78720, Note_on_c, 3, 66, 71
4, 78960, Note_off_c, 3, 66, 0
4, 78960, Note_on_c, 3, 69, 71
4, 79152, Note_off_c, 3, 69, 0
4, 79200, Note_on_c, 3, 66, 70
4, 79440, Note_off_c, 3, 66, 0
4, 79440, Note_on_c, 3, 69, 70
4, 79680, Note_off_c, 3, 69, 0
4, 79680, Note_on_c, 3, 66, 70
4, 79920, Note_off_c, 3, 66, 0
4, 79920, Note_on_c, 3, 69, 69
4, 80160, Note_off_c, 3, 69, 0
4, 80160, Note_on_c, 3, 67, 69
4, 80400, Note_off_c, 3, 67, 0
4, 80400, Note_on_c, 3, 69, 69
4, 80592, Note_off_c, 3, 69, 0
4, 80640, Note_on_c, 3, 66, 69
4, 81000, Note_off_c, 3, 66, 0
4, 82080, Control_c, 3, 64, 0
4, 82080, Note_on_c, 3, 66, 59
4, 82320, Note_off_c, 3, 66, 0
4, 82320, Note_on_c, 3, 69, 59
4, 82560, Note_off_c, 3, 69, 0
4, 82560, Note_on_c, 3, 66, 59
4, 82800, Note_off_c, 3, 66, 0
4, 82800, Note_on_c, 3, 69, 58
4, 83040, Note_off_c, 3, 69, 0
4, 83040, Note_on_c, 3, 66, 58
4, 83280, Note_off_c, 3, 66, 0
4, 83280, Note_on_c, 3, 69, 57
4, 83472, Note_off_c, 3, 69, 0
4, 83520, Note_on_c, 3, 66, 57
4, 83760, Note_off_c, 3, 66, 0
4, 83760, Note_on_c, 3, 69, 56
4, 84000, Note_off_c, 3, 69, 0
4, 84000, Note_on_c, 3, 66, 56
4, 84240, Note_off_c, 3, 66, 0
4, 84240, Note_on_c, 3, 69, 56
4, 84480, Note_off_c, 3, 69, 0
4, 84480, Note_on_c, 3, 66, 55
4, 84720, Note_off_c, 3, 66, 0
4, 84720, Note_on_c, 3, 69, 55
4, 84912, Note_off_c, 3, 69, 0
4, 84960, Note_on_c, 3, 66, 54
4, 85200, Note_off_c, 3, 66, 0
4, 85200, Note_on_c, 3, 69, 54
4, 85440, Note_off_c, 3, 69, 0
4, 85440, Note_on_c, 3, 66, 54
4, 85680, Note_off_c, 3, 66, 0
4, 85680, Note_on_c, 3, 69, 53
4, 85920, Note_off_c, 3, 69, 0
4, 85920, Note_on_c, 3, 67, 53
4, 86160, Note_off_c, 3, 67, 0
4, 86160, Note_on_c, 3, 69, 52
4, 86352, Note_off_c, 3, 69, 0
4, 86400, Note_on_c, 3, 66, 52
4, 86760, Note_off_c, 3, 66, 0
4, 87840, Note_on_c, 3, 66, 73
4, 88080, Note_off_c, 3, 66, 0
4, 88080, Note_on_c, 3, 69, 73
4, 88320, Note_off_c, 3, 69, 0
4, 88320, Note_on_c, 3, 66, 73
4, 88560, Note_off_c, 3, 66, 0
4, 88560, Note_on_c, 3, 69, 73
4, 88800, Note_off_c, 3, 69, 0
4, 88800, Note_on_c, 3, 66, 72
4, 89040, Note_off_c, 3, 66, 0
4, 89040, Note_on_c, 3, 69, 72
4, 89232, Note_off_c, 3, 69, 0
4, 89280, Note_on_c, 3, 66, 72
4, 89520, Note_off_c, 3, 66, 0
4, 89520, Note_on_c, 3, 69, 72
4, 89760, Note_off_c, 3, 69, 0
4, 89760, Note_on_c, 3, 66, 71
4, 90000, Note_off_c, 3, 66, 0
4, 90000, Note_on_c, 3, 69, 71
4, 90240, Note_off_c, 3, 69, 0
4, 90240, Note_on_c, 3, 66, 71
4, 90480, Note_off_c, 3, 66, 0
4, 90480, Note_on_c, 3, 69, 71
4, 90672, Note_off_c, 3, 69, 0
4, 90720, Note_on_c, 3, 66, 70
4, 90960, Note_off_c, 3, 66, 0
4, 90960, Note_on_c, 3, 69, 70
4, 91200, Note_off_c, 3, 69, 0
4, 91200, Note_on_c, 3, 66, 70
4, 91440, Note_off_c, 3, 66, 0
4, 91440, Note_on_c, 3, 69, 69
4, 91680, Note_off_c, 3, 69, 0
4, 91680, Note_on_c, 3, 67, 69
4, 91920, Note_off_c, 3, 67, 0
4, 91920, Note_on_c, 3, 69, 69
4, 92112, Note_off_c, 3, 69, 0
4, 92160, Note_on_c, 3, 66, 69
4, 92520, Note_off_c, 3, 66, 0
4, 93600, Control_c, 3, 64, 0
4, 93840, Note_on_c, 3, 64, 53
4, 94080, Note_off_c, 3, 64, 0
4, 94080, Note_on_c, 3, 61, 53
4, 94320, Note_off_c, 3, 61, 0
4, 94320, Note_on_c, 3, 64, 52
4, 94560, Note_off_c, 3, 64, 0
4, 94560, Note_on_c, 3, 62, 52
4, 94800, Note_off_c, 3, 62, 0
4, 94800, Note_on_c, 3, 66, 51
4, 95040, Note_off_c, 3, 66, 0
4, 95040, Note_on_c, 3, 64, 51
4, 95400, Note_off_c, 3, 64, 0
4, 96720, Note_on_c, 3, 66, 48
4, 96960, Note_off_c, 3, 66, 0
4, 96960, Note_on_c, 3, 69, 48
4, 97200, Note_off_c, 3, 69, 0
4, 97200, Note_on_c, 3, 66, 47
4, 97440, Note_off_c, 3, 66, 0
4, 97440, Note_on_c, 3, 64, 47
4, 97680, Note_off_c, 3, 64, 0
4, 97680, Note_on_c, 3, 67, 47
4, 97920, Note_off_c, 3, 67, 0
4, 97920, Note_on_c, 3, 66, 46
4, 98280, Note_off_c, 3, 66, 0
4, 99600, Note_on_c, 3, 66, 67
4, 99835, Note_off_c, 3, 66, 0
4, 99840, Note_on_c, 3, 69, 66
4, 100075, Note_off_c, 3, 69, 0
4, 100080, Note_on_c, 3, 66, 66
4, 100315, Note_off_c, 3, 66, 0
4, 100320, Note_on_c, 3, 67, 65
4, 100555, Note_off_c, 3, 67, 0
4, 100560, Note_on_c, 3, 71, 65
4, 100752, Note_off_c, 3, 71, 0
4, 101040, Note_on_c, 3, 66, 64
4, 101275, Note_off_c, 3, 66, 0
4, 101280, Note_on_c, 3, 69, 63
4, 101515, Note_off_c, 3, 69, 0
4, 101520, Note_on_c, 3, 66, 63
4, 101755, Note_off_c, 3, 66, 0
4, 101760, Note_on_c, 3, 67, 62
4, 101995, Note_off_c, 3, 67, 0
4, 102000, Note_on_c, 3, 71, 61
4, 102192, Note_off_c, 3, 71, 0
4, 102240, Note_on_c, 3, 66, 61
4, 102480, Note_off_c, 3, 66, 0
4, 102720, Note_on_c, 3, 64, 60
4, 102960, Note_off_c, 3, 64, 0
4, 103200, Note_on_c, 3, 66, 59
4, 103440, Note_off_c, 3, 66, 0
4, 103680, Note_on_c, 3, 61, 59
4, 104040, Note_off_c, 3, 61, 0
4, 105120, Control_c, 3, 64, 0
4, 105120, Note_on_c, 3, 66, 55
4, 105360, Note_off_c, 3, 66, 0
4, 105360, Note_on_c, 3, 69, 55
4, 105600, Note_off_c, 3, 69, 0
4, 105600, Note_on_c, 3, 66, 54
4, 105840, Note_off_c, 3, 66, 0
4, 105840, Note_on_c, 3, 69, 54
4, 106080, Note_off_c, 3, 69, 0
4, 106080, Note_on_c, 3, 66, 53
4, 106320, Note_off_c, 3, 66, 0
4, 106320, Note_on_c, 3, 69, 53
4, 106512, Note_off_c, 3, 69, 0
4, 106560, Note_on_c, 3, 66, 52
4, 106800, Note_off_c, 3, 66, 0
4, 106800, Note_on_c, 3, 69, 52
4, 107040, Note_off_c, 3, 69, 0
4, 107040, Note_on_c, 3, 66, 51
4, 107280, Note_off_c, 3, 66, 0
4, 107280, Note_on_c, 3, 69, 51
4, 107520, Note_off_c, 3, 69, 0
4, 107520, Note_on_c, 3, 66, 50
4, 107760, Note_off_c, 3, 66, 0
4, 107760, Note_on_c, 3, 69, 50
4, 107952, Note_off_c, 3, 69, 0
4, 108000, Note_on_c, 3, 66, 49
4, 108240, Note_off_c, 3, 66, 0
4, 108240, Note_on_c, 3, 69, 49
4, 108480, Note_off_c, 3, 69, 0
4, 108480, Note_on_c, 3, 66, 48
4, 108720, Note_off_c, 3, 66, 0
4, 108720, Note_on_c, 3, 69, 48
4, 108960, Note_off_c, 3, 69, 0
4, 108960, Note_on_c, 3, 67, 47
4, 109200, Note_off_c, 3, 67, 0
4, 109200, Note_on_c, 3, 69, 47
4, 109392, Note_off_c, 3, 69, 0
4, 109440, Note_on_c, 3, 66, 46
4, 109800, Note_off_c, 3, 66, 0
4, 110880, Note_on_c, 3, 66, 75
4, 111120, Note_off_c, 3, 66, 0
4, 111120, Note_on_c, 3, 69, 75
4, 111360, Note_off_c, 3, 69, 0
4, 111360, Note_on_c, 3, 66, 75
4, 111600, Note_off_c, 3, 66, 0
4, 111600, Note_on_c, 3, 69, 74
4, 111840, Note_off_c, 3, 69, 0
4, 111840, Note_on_c, 3, 66, 74
4, 112080, Note_off_c, 3, 66, 0
4, 112080, Note_on_c, 3, 69, 74
4, 112272, Note_off_c, 3, 69, 0
4, 112320, Note_on_c, 3, 66, 73
4, 112560, Note_off_c, 3, 66, 0
4, 112560, Note_on_c, 3, 69, 73
4, 112800, Note_off_c, 3, 69, 0
4, 112800, Note_on_c, 3, 66, 73
4, 113040, Note_off_c, 3, 66, 0
4, 113040, Note_on_c, 3, 69, 72
4, 113280, Note_off_c, 3, 69, 0
4, 113280, Note_on_c, 3, 66, 72
4, 113520, Note_off_c, 3, 66, 0
4, 113520, Note_on_c, 3, 69, 72
4, 113712, Note_off_c, 3, 69, 0
4, 113760, Note_on_c, 3, 66, 71
4, 114000, Note_off_c, 3, 66, 0
4, 114000, Note_on_c, 3, 69, 71
4, 114240, Note_off_c, 3, 69, 0
4, 114240, Note_on_c, 3, 66, 71
4, 114480, Note_off_c, 3, 66, 0
4, 114480, Note_on_c, 3, 69, 70
4, 114720, Note_off_c, 3, 69, 0
4, 114720, Note_on_c, 3, 67, 70
4, 114960, Note_off_c, 3, 67, 0
4, 114960, Note_on_c, 3, 69, 70
4, 115152, Note_off_c, 3, 69, 0
4, 115200, Note_on_c, 3, 66, 69
4, 115560, Note_off_c, 3, 66, 0
4, 116640, Control_c, 3, 64, 0
4, 116880, Note_on_c, 3, 64, 53
4, 117120, Note_off_c, 3, 64, 0
4, 117120, Note_on_c, 3, 61, 53
4, 117360, Note_off_c, 3, 61, 0
4, 117360, Note_on_c, 3, 64, 52
4, 117600, Note_off_c, 3, 64, 0
4, 117600, Note_on_c, 3, 62, 52
4, 117840, Note_off_c, 3, 62, 0
4, 117840, Note_on_c, 3, 66, 51
4, 118080, Note_off_c, 3, 66, 0
4, 118080, Note_on_c, 3, 64, 51
4, 118440, Note_off_c, 3, 64, 0
4, 119760, Note_on_c, 3, 66, 48
4, 120000, Note_off_c, 3, 66, 0
4, 120000, Note_on_c, 3, 69, 48
4, 120240, Note_off_c, 3, 69, 0
4, 120240, Note_on_c, 3, 66, 47
4, 120480, Note_off_c, 3, 66, 0
4, 120480, Note_on_c, 3, 64, 47
4, 120720, Note_off_c, 3, 64, 0
4, 120720, Note_on_c, 3, 67, 47
4, 120960, Note_off_c, 3, 67, 0
4, 120960, Note_on_c, 3, 66, 46
4, 121320, Note_off_c, 3, 66, 0
4, 122640, Note_on_c, 3, 66, 67
4, 122875, Note_off_c, 3, 66, 0
4, 122880, Note_on_c, 3, 69, 66
4, 123115, Note_off_c, 3, 69, 0
4, 123120, Note_on_c, 3, 66, 66
4, 123355, Note_off_c, 3, 66, 0
4, 123360, Note_on_c, 3, 67, 65
4, 123595, Note_off_c, 3, 67, 0
4, 123600, Note_on_c, 3, 71, 65
4, 123792, Note_off_c, 3, 71, 0
4, 124080, Note_on_c, 3, 66, 64
4, 124315, Note_off_c, 3, 66, 0
4, 124320, Note_on_c, 3, 69, 63
4, 124555, Note_off_c, 3, 69, 0
4, 124560, Note_on_c, 3, 66, 63
4, 124795, Note_off_c, 3, 66, 0
4, 124800, Note_on_c, 3, 67, 62
4, 125035, Note_off_c, 3, 67, 0
4, 125040, Note_on_c, 3, 71, 61
4, 125232, Note_off_c, 3, 71, 0
4, 125280, Note_on_c, 3, 66, 61
4, 125520, Note_off_c, 3, 66, 0
4, 125760, Note_on_c, 3, 64, 60
4, 126000, Note_off_c, 3, 64, 0
4, 126240, Note_on_c, 3, 66, 59
4, 126480, Note_off_c, 3, 66, 0
4, 126720, Note_on_c, 3, 61, 59
4, 127080, Note_off_c, 3, 61, 0
4, 128160, Control_c, 3, 64, 0
4, 128160, Note_on_c, 3, 66, 55
4, 128400, Note_off_c, 3, 66, 0
4, 128400, Note_on_c, 3, 69, 55
4, 128640, Note_off_c, 3, 69, 0
4, 128640, Note_on_c, 3, 66, 54
4, 128880, Note_off_c, 3, 66, 0
4, 128880, Note_on_c, 3, 69, 54
4, 129120, Note_off_c, 3, 69, 0
4, 129120, Note_on_c, 3, 66, 53
4, 129360, Note_off_c, 3, 66, 0
4, 129360, Note_on_c, 3, 69, 53
4, 129552, Note_off_c, 3, 69, 0
4, 129600, Note_on_c, 3, 66, 52
4, 129840, Note_off_c, 3, 66, 0
4, 129840, Note_on_c, 3, 69, 52
4, 130080, Note_off_c, 3, 69, 0
4, 130080, Note_on_c, 3, 66, 51
4, 130320, Note_off_c, 3, 66, 0
4, 130320, Note_on_c, 3, 69, 51
4, 130560, Note_off_c, 3, 69, 0
4, 130560, Note_on_c, 3, 66, 50
4, 130800, Note_off_c, 3, 66, 0
4, 130800, Note_on_c, 3, 69, 50
4, 130992, Note_off_c, 3, 69, 0
4, 131040, Note_on_c, 3, 66, 49
4, 131280, Note_off_c, 3, 66, 0
4, 131280, Note_on_c, 3, 69, 49
4, 131520, Note_off_c, 3, 69, 0
4, 131520, Note_on_c, 3, 66, 48
4, 131760, Note_off_c, 3, 66, 0
4, 131760, Note_on_c, 3, 69, 48
4, 132000, Note_off_c, 3, 69, 0
4, 132000, Note_on_c, 3, 67, 47
4, 132240, Note_off_c, 3, 67, 0
4, 132240, Note_on_c, 3, 69, 47
4, 132432, Note_off_c, 3, 69, 0
4, 132480, Note_on_c, 3, 66, 46
4, 132840, Note_off_c, 3, 66, 0
4, 133920, Note_on_c, 3, 66, 75
4, 134160, Note_off_c, 3, 66, 0
4, 134160, Note_on_c, 3, 69, 75
4, 134400, Note_off_c, 3, 69, 0
4, 134400, Note_on_c, 3, 66, 75
4, 134640, Note_off_c, 3, 66, 0
4, 134640, Note_on_c, 3, 69, 74
4, 134880, Note_off_c, 3, 69, 0
4, 134880, Note_on_c, 3, 66, 74
4, 135120, Note_off_c, 3, 66, 0
4, 135120, Note_on_c, 3, 69, 74
4, 135312, Note_off_c, 3, 69, 0
4, 135360, Note_on_c, 3, 66, 73
4, 135600, Note_off_c, 3, 66, 0
4, 135600, Note_on_c, 3, 69, 73
4, 135840, Note_off_c, 3, 69, 0
4, 135840, Note_on_c, 3, 66, 73
4, 136080, Note_off_c, 3, 66, 0
4, 136080, Note_on_c, 3, 69, 72
4, 136320, Note_off_c, 3, 69, 0
4, 136320, Note_on_c, 3, 66, 72
4, 136560, Note_off_c, 3, 66, 0
4, 136560, Note_on_c, 3, 69, 72
4, 136752, Note_off_c, 3, 69, 0
4, 136800, Note_on_c, 3, 66, 71
4, 137040, Note_off_c, 3, 66, 0
4, 137040, Note_on_c, 3, 69, 71
4, 137280, Note_off_c, 3, 69, 0
4, 137280, Note_on_c, 3, 66, 71
4, 137520, Note_off_c, 3, 66, 0
4, 137520, Note_on_c, 3, 69, 70
4, 137760, Note_off_c, 3, 69, 0
4, 137760, Note_on_c, 3, 67, 70
4, 138000, Note_off_c, 3, 67, 0
4, 138000, Note_on_c, 3, 69, 70
4, 138192, Note_off_c, 3, 69, 0
4, 138240, Note_on_c, 3, 66, 69
4, 138600, Note_off_c, 3, 66, 0
4, 139680, Control_c, 3, 64, 0
4, 151200, Control_c, 3, 64, 0
4, 162720, Control_c, 3, 64, 0
4, 185520, Control_c, 3, 64, 0
4, 185760, Control_c, 3, 64, 0
4, 208560, Control_c, 3, 64, 0
4, 208800, Control_c, 3, 64, 0
4, 220080, Control_c, 3, 64, 0
4, 220320, Control_c, 3, 64, 0
4, 231840, Control_c, 3, 64, 0
4, 243420, Control_c, 3, 64, 0
4, 255120, Control_c, 3, 64, 0
4, 266700, Control_c, 3, 64, 0
4, 279360, Control_c, 3, 64, 0
4, 290880, Control_c, 3, 64, 0
4, 302400, Control_c, 3, 64, 0
4, 325440, Control_c, 3, 64, 0
4, 348480, Control_c, 3, 64, 0
4, 360000, Control_c, 3, 64, 0
4, 371520, Control_c, 3, 64, 0
4, 394560, Control_c, 3, 64, 0
4, 417600, Control_c, 3, 64, 0
4, 418080, Note_on_c, 3, 62, 51
4, 418080, Note_on_c, 3, 69, 51
4, 418080, Note_on_c, 3, 65, 51
4, 418440, Note_off_c, 3, 65, 0
4, 418440, Note_off_c, 3, 69, 0
4, 418440, Note_off_c, 3, 62, 0
4, 418560, Note_on_c, 3, 65, 50
4, 418560, Note_on_c, 3, 62, 50
4, 418560, Note_on_c, 3, 69, 50
4, 418920, Note_off_c, 3, 69, 0
4, 418920, Note_off_c, 3, 62, 0
4, 418920, Note_off_c, 3, 65, 0
4, 419520, Note_on_c, 3, 69, 49
4, 419520, Note_on_c, 3, 62, 49
4, 419520, Note_on_c, 3, 65, 49
4, 419880, Note_off_c, 3, 65, 0
4, 419880, Note_off_c, 3, 62, 0
4, 419880, Note_off_c, 3, 69, 0
4, 420000, Note_on_c, 3, 65, 49
4, 420000, Note_on_c, 3, 69, 49
4, 420000, Note_on_c, 3, 62, 49
4, 420360, Note_off_c, 3, 62, 0
4, 420360, Note_off_c, 3, 69, 0
4, 420360, Note_off_c, 3, 65, 0
4, 420480, Note_on_c, 3, 65, 48
4, 420960, Note_off_c, 3, 65, 0
4, 420960, Note_on_c, 3, 69, 53
4, 421440, Note_off_c, 3, 69, 0
4, 421440, Note_on_c, 3, 67, 49
4, 421920, Note_off_c, 3, 67, 0
4, 421920, Note_on_c, 3, 65, 47
4, 422280, Note_off_c, 3, 65, 0
4, 423840, Note_on_c, 3, 65, 44
4, 423840, Note_on_c, 3, 69, 44
4, 424200, Note_off_c, 3, 69, 0
4, 424200, Note_off_c, 3, 65, 0
4, 424320, Note_on_c, 3, 65, 48
4, 424320, Note_on_c, 3, 69, 48
4, 424680, Note_off_c, 3, 69, 0
4, 424680, Note_off_c, 3, 65, 0
4, 425280, Note_on_c, 3, 69, 50
4, 425280, Note_on_c, 3, 65, 50
4, 425640, Note_off_c, 3, 65, 0
4, 425640, Note_off_c, 3, 69, 0
4, 425760, Note_on_c, 3, 69, 47
4, 425760, Note_on_c, 3, 65, 47
4, 426120, Note_off_c, 3, 65, 0
4, 426120, Note_off_c, 3, 69, 0
4, 426720, Note_on_c, 3, 69, 44
4, 426720, Note_on_c, 3, 65, 44
4, 427200, Note_off_c, 3, 65, 0
4, 427200, Note_off_c, 3, 69, 0
4, 427200, Note_on_c, 3, 64, 41
4, 427200, Note_on_c, 3, 67, 41
4, 427560, Note_off_c, 3, 67, 0
4, 427560, Note_off_c, 3, 64, 0
4, 429120, Control_c, 3, 64, 0
4, 429600, Note_on_c, 3, 65, 51
4, 429600, Note_on_c, 3, 69, 51
4, 429600, Note_on_c, 3, 62, 51
4, 429960, Note_off_c, 3, 62, 0
4, 429960, Note_off_c, 3, 69, 0
4, 429960, Note_off_c, 3, 65, 0
4, 430080, Note_on_c, 3, 69, 50
4, 430080, Note_on_c, 3, 62, 50
4, 430080, Note_on_c, 3, 65, 50
4, 430440, Note_off_c, 3, 65, 0
4, 430440, Note_off_c, 3, 62, 0
4, 430440, Note_off_c, 3, 69, 0
4, 431040, Note_on_c, 3, 65, 49
4, 431040, Note_on_c, 3, 62, 49
4, 431040, Note_on_c, 3, 69, 49
4, 431400, Note_off_c, 3, 69, 0
4, 431400, Note_off_c, 3, 62, 0
4, 431400, Note_off_c, 3, 65, 0
4, 431520, Note_on_c, 3, 62, 49
4, 431520, Note_on_c, 3, 69, 49
4, 431520, Note_on_c, 3, 65, 49
4, 431880, Note_off_c, 3, 65, 0
4, 431880, Note_off_c, 3, 69, 0
4, 431880, Note_off_c, 3, 62, 0
4, 432000, Note_on_c, 3, 65, 48
4, 432480, Note_off_c, 3, 65, 0
4, 432480, Note_on_c, 3, 69, 53
4, 432960, Note_off_c, 3, 69, 0
4, 432960, Note_on_c, 3, 67, 49
4, 433440, Note_off_c, 3, 67, 0
4, 433440, Note_on_c, 3, 65, 47
4, 433800, Note_off_c, 3, 65, 0
4, 435360, Note_on_c, 3, 69, 44
4, 435360, Note_on_c, 3, 65, 44
4, 435720, Note_off_c, 3, 65, 0
4, 435720, Note_off_c, 3, 69, 0
4, 435840, Note_on_c, 3, 69, 48
4, 435840, Note_on_c, 3, 65, 48
4, 436200, Note_off_c, 3, 65, 0
4, 436200, Note_off_c, 3, 69, 0
4, 436800, Note_on_c, 3, 65, 50
4, 436800, Note_on_c, 3, 69, 50
4, 437160, Note_off_c, 3, 69, 0
4, 437160, Note_off_c, 3, 65, 0
4, 437280, Note_on_c, 3, 65, 47
4, 437280, Note_on_c, 3, 69, 47
4, 437640, Note_off_c, 3, 69, 0
4, 437640, Note_off_c, 3, 65, 0
4, 438240, Note_on_c, 3, 65, 44
4, 438240, Note_on_c, 3, 69, 44
4, 438720, Note_off_c, 3, 69, 0
4, 438720, Note_off_c, 3, 65, 0
4, 438720, Note_on_c, 3, 67, 41
4, 438720, Note_on_c, 3, 64, 41
4, 439080, Note_off_c, 3, 64, 0
4, 439080, Note_off_c, 3, 67, 0
4, 440640, Control_c, 3, 64, 0
4, 463680, Control_c, 3, 64, 0
4, 590400, Control_c, 3, 64, 0
4, 598080, Control_c, 3, 64, 0
4, 605760, Control_c, 3, 64, 0
4, 643200, Control_c, 3, 64, 0
4, 658560, Control_c, 3, 64, 0
4, 685440, Note_on_c, 3, 59, 44
4, 685560, Note_off_c, 3, 59, 0
4, 685560, Note_on_c, 3, 62, 44
4, 685680, Note_off_c, 3, 62, 0
4, 685680, Note_on_c, 3, 65, 45
4, 685800, Note_off_c, 3, 65, 0
4, 685800, Note_on_c, 3, 70, 46
4, 685920, Note_off_c, 3, 70, 0
4, 685920, Note_on_c, 3, 64, 46
4, 686040, Note_off_c, 3, 64, 0
4, 686040, Note_on_c, 3, 68, 47
4, 686160, Note_off_c, 3, 68, 0
4, 686160, Note_on_c, 3, 62, 48
4, 686280, Note_off_c, 3, 62, 0
4, 686280, Note_on_c, 3, 68, 48
4, 686400, Note_off_c, 3, 68, 0
4, 686400, Note_on_c, 3, 59, 49
4, 686520, Note_off_c, 3, 59, 0
4, 686520, Note_on_c, 3, 62, 50
4, 686640, Note_off_c, 3, 62, 0
4, 686640, Note_on_c, 3, 65, 50
4, 686760, Note_off_c, 3, 65, 0
4, 686760, Note_on_c, 3, 68, 51
4, 686880, Note_off_c, 3, 68, 0
4, 686880, Note_on_c, 3, 64, 52
4, 687000, Note_off_c, 3, 64, 0
4, 687000, Note_on_c, 3, 68, 53
4, 687120, Note_off_c, 3, 68, 0
4, 687120, Note_on_c, 3, 62, 53
4, 687240, Note_off_c, 3, 62, 0
4, 687240, Note_on_c, 3, 68, 54
4, 687360, Note_off_c, 3, 68, 0
4, 687360, Note_on_c, 3, 59, 55
4, 687480, Note_off_c, 3, 59, 0
4, 687480, Note_on_c, 3, 62, 55
4, 687600, Note_off_c, 3, 62, 0
4, 687600, Note_on_c, 3, 65, 56
4, 687720, Note_off_c, 3, 65, 0
4, 687720, Note_on_c, 3, 68, 57
4, 687840, Note_off_c, 3, 68, 0
4, 687840, Note_on_c, 3, 64, 57
4, 687960, Note_off_c, 3, 64, 0
4, 687960, Note_on_c, 3, 68, 58
4, 688080, Note_off_c, 3, 68, 0
4, 688080, Note_on_c, 3, 62, 59
4, 688200, Note_off_c, 3, 62, 0
4, 688200, Note_on_c, 3, 68, 59
4, 688320, Note_off_c, 3, 68, 0
4, 688320, Note_on_c, 3, 62, 60
4, 688440, Note_off_c, 3, 62, 0
4, 688440, Note_on_c, 3, 68, 61
4, 688560, Note_off_c, 3, 68, 0
4, 688560, Note_on_c, 3, 64, 62
4, 688680, Note_off_c, 3, 64, 0
4, 688680, Note_on_c, 3, 68, 62
4, 688800, Note_off_c, 3, 68, 0
4, 688800, Note_on_c, 3, 64, 63
4, 688920, Note_off_c, 3, 64, 0
4, 688920, Note_on_c, 3, 68, 64
4, 689040, Note_off_c, 3, 68, 0
4, 689040, Note_on_c, 3, 65, 64
4, 689160, Note_off_c, 3, 65, 0
4, 689160, Note_on_c, 3, 68, 65
4, 689256, Note_off_c, 3, 68, 0
4, 689280, Note_on_c, 3, 61, 66
4, 689400, Note_off_c, 3, 61, 0
4, 689400, Note_on_c, 3, 64, 66
4, 689520, Note_off_c, 3, 64, 0
4, 689520, Note_on_c, 3, 67, 67
4, 689640, Note_off_c, 3, 67, 0
4, 689640, Note_on_c, 3, 70, 68
4, 689760, Note_off_c, 3, 70, 0
4, 689760, Note_on_c, 3, 65, 68
4, 689880, Note_off_c, 3, 65, 0
4, 689880, Note_on_c, 3, 70, 69
4, 690000, Note_off_c, 3, 70, 0
4, 690000, Note_on_c, 3, 64, 70
4, 690120, Note_off_c, 3, 64, 0
4, 690120, Note_on_c, 3, 70, 71
4, 690240, Note_off_c, 3, 70, 0
4, 690240, Note_on_c, 3, 61, 71
4, 690360, Note_off_c, 3, 61, 0
4, 690360, Note_on_c, 3, 64, 72
4, 690480, Note_off_c, 3, 64, 0
4, 690480, Note_on_c, 3, 67, 73
4, 690600, Note_off_c, 3, 67, 0
4, 690600, Note_on_c, 3, 70, 73
4, 690720, Note_off_c, 3, 70, 0
4, 690720, Note_on_c, 3, 65, 74
4, 690840, Note_off_c, 3, 65, 0
4, 690840, Note_on_c, 3, 70, 75
4, 690960, Note_off_c, 3, 70, 0
4, 690960, Note_on_c, 3, 64, 75
4, 691080, Note_off_c, 3, 64, 0
4, 691080, Note_on_c, 3, 70, 76
4, 691200, Note_off_c, 3, 70, 0
4, 691200, Note_on_c, 3, 64, 77
4, 691320, Note_off_c, 3, 64, 0
4, 691320, Note_on_c, 3, 70, 77
4, 691440, Note_off_c, 3, 70, 0
4, 691440, Note_on_c, 3, 62, 78
4, 691560, Note_off_c, 3, 62, 0
4, 691560, Note_on_c, 3, 70, 79
4, 691680, Note_off_c, 3, 70, 0
4, 691680, Note_on_c, 3, 62, 80
4, 691800, Note_off_c, 3, 62, 0
4, 691800, Note_on_c, 3, 70, 80
4, 691920, Note_off_c, 3, 70, 0
4, 691920, Note_on_c, 3, 61, 81
4, 692040, Note_off_c, 3, 61, 0
4, 692040, Note_on_c, 3, 70, 82
4, 692160, Note_off_c, 3, 70, 0
4, 692160, Note_on_c, 3, 61, 82
4, 692520, Note_off_c, 3, 61, 0
4, 694080, Note_on_c, 3, 37, 98
4, 694080, Note_on_c, 3, 40, 98
4, 694080, Note_on_c, 3, 43, 98
4, 700158, Note_off_c, 3, 43, 0
4, 700158, Note_off_c, 3, 40, 0
4, 700158, Note_off_c, 3, 37, 0
4, 700800, Note_on_c, 3, 66, 57
4, 701040, Note_off_c, 3, 66, 0
4, 701040, Note_on_c, 3, 69, 57
4, 701280, Note_off_c, 3, 69, 0
4, 701280, Note_on_c, 3, 66, 57
4, 701520, Note_off_c, 3, 66, 0
4, 701520, Note_on_c, 3, 69, 56
4, 701760, Note_off_c, 3, 69, 0
4, 701760, Note_on_c, 3, 66, 56
4, 702000, Note_off_c, 3, 66, 0
4, 702000, Note_on_c, 3, 69, 56
4, 702192, Note_off_c, 3, 69, 0
4, 702240, Note_on_c, 3, 66, 55
4, 702480, Note_off_c, 3, 66, 0
4, 702480, Note_on_c, 3, 69, 55
4, 702720, Note_off_c, 3, 69, 0
4, 702720, Note_on_c, 3, 66, 55
4, 702960, Note_off_c, 3, 66, 0
4, 702960, Note_on_c, 3, 69, 54
4, 703200, Note_off_c, 3, 69, 0
4, 703200, Note_on_c, 3, 66, 54
4, 703440, Note_off_c, 3, 66, 0
4, 703440, Note_on_c, 3, 69, 53
4, 703632, Note_off_c, 3, 69, 0
4, 703680, Note_on_c, 3, 66, 53
4, 703920, Note_off_c, 3, 66, 0
4, 703920, Note_on_c, 3, 69, 53
4, 704160, Note_off_c, 3, 69, 0
4, 704160, Note_on_c, 3, 66, 52
4, 704400, Note_off_c, 3, 66, 0
4, 704400, Note_on_c, 3, 69, 52
4, 704640, Note_off_c, 3, 69, 0
4, 704640, Note_on_c, 3, 67, 52
4, 704880, Note_off_c, 3, 67, 0
4, 704880, Note_on_c, 3, 69, 51
4, 705072, Note_off_c, 3, 69, 0
4, 705120, Note_on_c, 3, 66, 51
4, 705480, Note_off_c, 3, 66, 0
4, 709440, Note_on_c, 3, 66, 47
4, 709680, Note_off_c, 3, 66, 0
4, 709680, Note_on_c, 3, 69, 47
4, 709920, Note_off_c, 3, 69, 0
4, 709920, Note_on_c, 3, 66, 46
4, 710160, Note_off_c, 3, 66, 0
4, 710160, Note_on_c, 3, 69, 46
4, 710400, Note_off_c, 3, 69, 0
4, 710400, Note_on_c, 3, 67, 45
4, 710640, Note_off_c, 3, 67, 0
4, 710640, Note_on_c, 3, 69, 44
4, 710832, Note_off_c, 3, 69, 0
4, 710880, Note_on_c, 3, 66, 44
4, 711240, Note_off_c, 3, 66, 0
4, 712320, Note_on_c, 3, 66, 40
4, 712560, Note_off_c, 3, 66, 0
4, 712560, Note_on_c, 3, 69, 40
4, 712800, Note_off_c, 3, 69, 0
4, 712800, Note_on_c, 3, 66, 39
4, 713040, Note_off_c, 3, 66, 0
4, 713040, Note_on_c, 3, 69, 38
4, 713280, Note_off_c, 3, 69, 0
4, 713280, Note_on_c, 3, 67, 38
4, 713520, Note_off_c, 3, 67, 0
4, 713520, Note_on_c, 3, 69, 37
4, 713712, Note_off_c, 3, 69, 0
4, 713760, Note_on_c, 3, 66, 37
4, 714120, Note_off_c, 3, 66, 0
4, 715200, Note_on_c, 3, 54, 96
4, 715440, Note_off_c, 3, 54, 0
4, 715440, Note_on_c, 3, 57, 94
4, 715680, Note_off_c, 3, 57, 0
4, 715680, Note_on_c, 3, 54, 92
4, 715920, Note_off_c, 3, 54, 0
4, 715920, Note_on_c, 3, 57, 91
4, 716160, Note_off_c, 3, 57, 0
4, 716160, Note_on_c, 3, 55, 89
4, 716400, Note_off_c, 3, 55, 0
4, 716400, Note_on_c, 3, 57, 87
4, 716592, Note_off_c, 3, 57, 0
4, 716640, Note_on_c, 3, 54, 86
4, 717000, Note_off_c, 3, 54, 0
4, 717000, End_track
5, 0, Start_track
5, 0, Title_t, "No Name"
5, 0, Control_c, 4, 0, 0
5, 0, Control_c, 4, 32, 0
5, 0, Program_c, 4, 0
5, 0, Control_c, 4, 64, 0
5, 0, Control_c, 4, 64, 0
5, 0, Control_c, 4, 10, 55
5, 0, Control_c, 4, 91, 100
5, 0, Control_c, 4, 93, 28
5, 0, Pitch_bend_c, 4, 8192
5, 0, Control_c, 4, 1, 0
5, 0, Control_c, 4, 7, 120
5, 960, Note_on_c, 4, 50, 1
5, 1440, Control_c, 4, 64, 0
5, 1440, Note_off_c, 4, 50, 0
5, 12960, Control_c, 4, 64, 0
5, 24480, Control_c, 4, 64, 0
5, 36000, Control_c, 4, 64, 0
5, 47520, Control_c, 4, 64, 0
5, 59040, Control_c, 4, 64, 0
5, 70560, Control_c, 4, 64, 0
5, 82080, Control_c, 4, 64, 0
5, 93600, Control_c, 4, 64, 0
5, 105120, Control_c, 4, 64, 0
5, 116640, Control_c, 4, 64, 0
5, 128160, Control_c, 4, 64, 0
5, 139680, Control_c, 4, 64, 0
5, 139800, Note_on_c, 4, 62, 79
5, 139920, Note_off_c, 4, 62, 0
5, 139920, Note_on_c, 4, 61, 79
5, 140040, Note_off_c, 4, 61, 0
5, 140040, Note_on_c, 4, 62, 79
5, 140160, Note_off_c, 4, 62, 0
5, 140160, Note_on_c, 4, 66, 79
5, 140280, Note_off_c, 4, 66, 0
5, 140280, Note_on_c, 4, 62, 79
5, 140400, Note_off_c, 4, 62, 0
5, 140400, Note_on_c, 4, 61, 79
5, 140520, Note_off_c, 4, 61, 0
5, 140520, Note_on_c, 4, 62, 79
5, 140640, Note_off_c, 4, 62, 0
5, 140760, Note_on_c, 4, 62, 78
5, 140880, Note_off_c, 4, 62, 0
5, 141000, Note_on_c, 4, 57, 78
5, 141096, Note_off_c, 4, 57, 0
5, 141240, Note_on_c, 4, 62, 78
5, 141360, Note_off_c, 4, 62, 0
5, 141360, Note_on_c, 4, 61, 78
5, 141480, Note_off_c, 4, 61, 0
5, 141480, Note_on_c, 4, 62, 78
5, 141600, Note_off_c, 4, 62, 0
5, 141600, Note_on_c, 4, 66, 77
5, 141720, Note_off_c, 4, 66, 0
5, 141720, Note_on_c, 4, 62, 77
5, 141840, Note_off_c, 4, 62, 0
5, 141840, Note_on_c, 4, 61, 77
5, 141960, Note_off_c, 4, 61, 0
5, 141960, Note_on_c, 4, 62, 77
5, 142080, Note_off_c, 4, 62, 0
5, 142200, Note_on_c, 4, 62, 77
5, 142320, Note_off_c, 4, 62, 0
5, 142440, Note_on_c, 4, 57, 77
5, 142536, Note_off_c, 4, 57, 0
5, 142680, Note_on_c, 4, 50, 76
5, 142800, Note_off_c, 4, 50, 0
5, 142800, Note_on_c, 4, 54, 76
5, 142920, Note_off_c, 4, 54, 0
5, 142920, Note_on_c, 4, 59, 76
5, 143016, Note_off_c, 4, 59, 0
5, 143160, Note_on_c, 4, 47, 76
5, 143280, Note_off_c, 4, 47, 0
5, 143280, Note_on_c, 4, 52, 76
5, 143400, Note_off_c, 4, 52, 0
5, 143400, Note_on_c, 4, 55, 76
5, 143496, Note_off_c, 4, 55, 0
5, 143640, Note_on_c, 4, 49, 75
5, 143760, Note_off_c, 4, 49, 0
5, 143760, Note_on_c, 4, 52, 75
5, 143880, Note_off_c, 4, 52, 0
5, 143880, Note_on_c, 4, 57, 75
5, 143976, Note_off_c, 4, 57, 0
5, 145560, Note_on_c, 4, 62, 73
5, 145680, Note_off_c, 4, 62, 0
5, 145680, Note_on_c, 4, 61, 73
5, 145800, Note_off_c, 4, 61, 0
5, 145800, Note_on_c, 4, 62, 73
5, 145920, Note_off_c, 4, 62, 0
5, 145920, Note_on_c, 4, 66, 73
5, 146040, Note_off_c, 4, 66, 0
5, 146040, Note_on_c, 4, 62, 73
5, 146160, Note_off_c, 4, 62, 0
5, 146160, Note_on_c, 4, 61, 73
5, 146280, Note_off_c, 4, 61, 0
5, 146280, Note_on_c, 4, 62, 72
5, 146400, Note_off_c, 4, 62, 0
5, 146520, Note_on_c, 4, 62, 72
5, 146640, Note_off_c, 4, 62, 0
5, 146760, Note_on_c, 4, 57, 72
5, 146856, Note_off_c, 4, 57, 0
5, 147000, Note_on_c, 4, 62, 72
5, 147120, Note_off_c, 4, 62, 0
5, 147120, Note_on_c, 4, 61, 72
5, 147240, Note_off_c, 4, 61, 0
5, 147240, Note_on_c, 4, 62, 71
5, 147360, Note_off_c, 4, 62, 0
5, 147360, Note_on_c, 4, 66, 71
5, 147480, Note_off_c, 4, 66, 0
5, 147480, Note_on_c, 4, 62, 71
5, 147600, Note_off_c, 4, 62, 0
5, 147600, Note_on_c, 4, 61, 71
5, 147720, Note_off_c, 4, 61, 0
5, 147720, Note_on_c, 4, 62, 71
5, 147840, Note_off_c, 4, 62, 0
5, 147960, Note_on_c, 4, 62, 71
5, 148080, Note_off_c, 4, 62, 0
5, 148200, Note_on_c, 4, 57, 70
5, 148296, Note_off_c, 4, 57, 0
5, 148440, Note_on_c, 4, 50, 70
5, 148560, Note_off_c, 4, 50, 0
5, 148560, Note_on_c, 4, 54, 70
5, 148680, Note_off_c, 4, 54, 0
5, 148680, Note_on_c, 4, 59, 70
5, 148776, Note_off_c, 4, 59, 0
5, 148920, Note_on_c, 4, 47, 70
5, 149040, Note_off_c, 4, 47, 0
5, 149040, Note_on_c, 4, 52, 70
5, 149160, Note_off_c, 4, 52, 0
5, 149160, Note_on_c, 4, 55, 69
5, 149256, Note_off_c, 4, 55, 0
5, 149400, Note_on_c, 4, 49, 69
5, 149520, Note_off_c, 4, 49, 0
5, 149520, Note_on_c, 4, 52, 69
5, 149640, Note_off_c, 4, 52, 0
5, 149640, Note_on_c, 4, 57, 69
5, 149736, Note_off_c, 4, 57, 0
5, 149880, Note_on_c, 4, 50, 69
5, 150000, Note_off_c, 4, 50, 0
5, 150000, Note_on_c, 4, 54, 69
5, 150120, Note_off_c, 4, 54, 0
5, 150120, Note_on_c, 4, 50, 68
5, 150240, Note_off_c, 4, 50, 0
5, 150360, Note_on_c, 4, 50, 68
5, 150480, Note_off_c, 4, 50, 0
5, 150600, Note_on_c, 4, 45, 68
5, 150720, Note_off_c, 4, 45, 0
5, 151200, Control_c, 4, 64, 0
5, 151320, Note_on_c, 4, 62, 79
5, 151440, Note_off_c, 4, 62, 0
5, 151440, Note_on_c, 4, 61, 79
5, 151560, Note_off_c, 4, 61, 0
5, 151560, Note_on_c, 4, 62, 79
5, 151680, Note_off_c, 4, 62, 0
5, 151680, Note_on_c, 4, 66, 79
5, 151800, Note_off_c, 4, 66, 0
5, 151800, Note_on_c, 4, 62, 79
5, 151920, Note_off_c, 4, 62, 0
5, 151920, Note_on_c, 4, 61, 79
5, 152040, Note_off_c, 4, 61, 0
5, 152040, Note_on_c, 4, 62, 79
5, 152160, Note_off_c, 4, 62, 0
5, 152280, Note_on_c, 4, 62, 78
5, 152400, Note_off_c, 4, 62, 0
5, 152520, Note_on_c, 4, 57, 78
5, 152616, Note_off_c, 4, 57, 0
5, 152760, Note_on_c, 4, 62, 78
5, 152880, Note_off_c, 4, 62, 0
5, 152880, Note_on_c, 4, 61, 78
5, 153000, Note_off_c, 4, 61, 0
5, 153000, Note_on_c, 4, 62, 78
5, 153120, Note_off_c, 4, 62, 0
5, 153120, Note_on_c, 4, 66, 77
5, 153240, Note_off_c, 4, 66, 0
5, 153240, Note_on_c, 4, 62, 77
5, 153360, Note_off_c, 4, 62, 0
5, 153360, Note_on_c, 4, 61, 77
5, 153480, Note_off_c, 4, 61, 0
5, 153480, Note_on_c, 4, 62, 77
5, 153600, Note_off_c, 4, 62, 0
5, 153720, Note_on_c, 4, 62, 77
5, 153840, Note_off_c, 4, 62, 0
5, 153960, Note_on_c, 4, 57, 77
5, 154056, Note_off_c, 4, 57, 0
5, 154200, Note_on_c, 4, 50, 76
5, 154320, Note_off_c, 4, 50, 0
5, 154320, Note_on_c, 4, 54, 76
5, 154440, Note_off_c, 4, 54, 0
5, 154440, Note_on_c, 4, 59, 76
5, 154536, Note_off_c, 4, 59, 0
5, 154680, Note_on_c, 4, 47, 76
5, 154800, Note_off_c, 4, 47, 0
5, 154800, Note_on_c, 4, 52, 76
5, 154920, Note_off_c, 4, 52, 0
5, 154920, Note_on_c, 4, 55, 76
5, 155016, Note_off_c, 4, 55, 0
5, 155160, Note_on_c, 4, 49, 75
5, 155280, Note_off_c, 4, 49, 0
5, 155280, Note_on_c, 4, 52, 75
5, 155400, Note_off_c, 4, 52, 0
5, 155400, Note_on_c, 4, 57, 75
5, 155496, Note_off_c, 4, 57, 0
5, 157080, Note_on_c, 4, 62, 73
5, 157200, Note_off_c, 4, 62, 0
5, 157200, Note_on_c, 4, 61, 73
5, 157320, Note_off_c, 4, 61, 0
5, 157320, Note_on_c, 4, 62, 73
5, 157440, Note_off_c, 4, 62, 0
5, 157440, Note_on_c, 4, 66, 73
5, 157560, Note_off_c, 4, 66, 0
5, 157560, Note_on_c, 4, 62, 73
5, 157680, Note_off_c, 4, 62, 0
5, 157680, Note_on_c, 4, 61, 73
5, 157800, Note_off_c, 4, 61, 0
5, 157800, Note_on_c, 4, 62, 72
5, 157920, Note_off_c, 4, 62, 0
5, 158040, Note_on_c, 4, 62, 72
5, 158160, Note_off_c, 4, 62, 0
5, 158280, Note_on_c, 4, 57, 72
5, 158376, Note_off_c, 4, 57, 0
5, 158520, Note_on_c, 4, 62, 72
5, 158640, Note_off_c, 4, 62, 0
5, 158640, Note_on_c, 4, 61, 72
5, 158760, Note_off_c, 4, 61, 0
5, 158760, Note_on_c, 4, 62, 71
5, 158880, Note_off_c, 4, 62, 0
5, 158880, Note_on_c, 4, 66, 71
5, 159000, Note_off_c, 4, 66, 0
5, 159000, Note_on_c, 4, 62, 71
5, 159120, Note_off_c, 4, 62, 0
5, 159120, Note_on_c, 4, 61, 71
5, 159240, Note_off_c, 4, 61, 0
5, 159240, Note_on_c, 4, 62, 71
5, 159360, Note_off_c, 4, 62, 0
5, 159480, Note_on_c, 4, 62, 71
5, 159600, Note_off_c, 4, 62, 0
5, 159720, Note_on_c, 4, 57, 70
5, 159816, Note_off_c, 4, 57, 0
5, 159960, Note_on_c, 4, 50, 70
5, 160080, Note_off_c, 4, 50, 0
5, 160080, Note_on_c, 4, 54, 70
5, 160200, Note_off_c, 4, 54, 0
5, 160200, Note_on_c, 4, 59, 70
5, 160296, Note_off_c, 4, 59, 0
5, 160440, Note_on_c, 4, 47, 70
5, 160560, Note_off_c, 4, 47, 0
5, 160560, Note_on_c, 4, 52, 70
5, 160680, Note_off_c, 4, 52, 0
5, 160680, Note_on_c, 4, 55, 69
5, 160776, Note_off_c, 4, 55, 0
5, 160920, Note_on_c, 4, 49, 69
5, 161040, Note_off_c, 4, 49, 0
5, 161040, Note_on_c, 4, 52, 69
5, 161160, Note_off_c, 4, 52, 0
5, 161160, Note_on_c, 4, 57, 69
5, 161256, Note_off_c, 4, 57, 0
5, 161400, Note_on_c, 4, 50, 69
5, 161520, Note_off_c, 4, 50, 0
5, 161520, Note_on_c, 4, 54, 69
5, 161640, Note_off_c, 4, 54, 0
5, 161640, Note_on_c, 4, 50, 68
5, 161760, Note_off_c, 4, 50, 0
5, 161880, Note_on_c, 4, 50, 68
5, 162000, Note_off_c, 4, 50, 0
5, 162120, Note_on_c, 4, 45, 68
5, 162240, Note_off_c, 4, 45, 0
5, 162720, Control_c, 4, 64, 0
5, 168600, Note_on_c, 4, 62, 55
5, 168720, Note_off_c, 4, 62, 0
5, 168840, Note_on_c, 4, 62, 55
5, 168960, Note_off_c, 4, 62, 0
5, 169080, Note_on_c, 4, 62, 54
5, 169200, Note_off_c, 4, 62, 0
5, 169320, Note_on_c, 4, 62, 54
5, 169440, Note_off_c, 4, 62, 0
5, 169560, Note_on_c, 4, 62, 54
5, 169680, Note_off_c, 4, 62, 0
5, 169800, Note_on_c, 4, 62, 53
5, 169920, Note_off_c, 4, 62, 0
5, 170040, Note_on_c, 4, 62, 53
5, 170160, Note_off_c, 4, 62, 0
5, 170280, Note_on_c, 4, 62, 52
5, 170400, Note_off_c, 4, 62, 0
5, 170520, Note_on_c, 4, 62, 52
5, 170640, Note_off_c, 4, 62, 0
5, 170760, Note_on_c, 4, 62, 51
5, 170880, Note_off_c, 4, 62, 0
5, 171000, Note_on_c, 4, 62, 51
5, 171120, Note_off_c, 4, 62, 0
5, 171240, Note_on_c, 4, 62, 51
5, 171360, Note_off_c, 4, 62, 0
5, 171480, Note_on_c, 4, 62, 50
5, 171600, Note_off_c, 4, 62, 0
5, 171600, Note_on_c, 4, 57, 50
5, 171720, Note_off_c, 4, 57, 0
5, 171720, Note_on_c, 4, 62, 50
5, 171840, Note_off_c, 4, 62, 0
5, 171960, Note_on_c, 4, 61, 49
5, 172080, Note_off_c, 4, 61, 0
5, 172080, Note_on_c, 4, 57, 49
5, 172200, Note_off_c, 4, 57, 0
5, 172200, Note_on_c, 4, 61, 49
5, 172320, Note_off_c, 4, 61, 0
5, 172440, Note_on_c, 4, 62, 48
5, 172560, Note_off_c, 4, 62, 0
5, 172560, Note_on_c, 4, 57, 48
5, 172680, Note_off_c, 4, 57, 0
5, 172680, Note_on_c, 4, 62, 48
5, 172800, Note_off_c, 4, 62, 0
5, 172800, Note_on_c, 4, 61, 48
5, 173160, Note_off_c, 4, 61, 0
5, 174360, Note_on_c, 4, 62, 81
5, 174480, Note_off_c, 4, 62, 0
5, 174480, Note_on_c, 4, 61, 81
5, 174600, Note_off_c, 4, 61, 0
5, 174600, Note_on_c, 4, 62, 81
5, 174720, Note_off_c, 4, 62, 0
5, 174720, Note_on_c, 4, 66, 81
5, 174840, Note_off_c, 4, 66, 0
5, 174840, Note_on_c, 4, 62, 81
5, 174960, Note_off_c, 4, 62, 0
5, 174960, Note_on_c, 4, 61, 81
5, 175080, Note_off_c, 4, 61, 0
5, 175080, Note_on_c, 4, 62, 81
5, 175200, Note_off_c, 4, 62, 0
5, 175320, Note_on_c, 4, 62, 80
5, 175440, Note_off_c, 4, 62, 0
5, 175560, Note_on_c, 4, 57, 80
5, 175656, Note_off_c, 4, 57, 0
5, 175800, Note_on_c, 4, 62, 80
5, 175920, Note_off_c, 4, 62, 0
5, 175920, Note_on_c, 4, 61, 80
5, 176040, Note_off_c, 4, 61, 0
5, 176040, Note_on_c, 4, 62, 80
5, 176160, Note_off_c, 4, 62, 0
5, 176160, Note_on_c, 4, 66, 79
5, 176280, Note_off_c, 4, 66, 0
5, 176280, Note_on_c, 4, 62, 79
5, 176400, Note_off_c, 4, 62, 0
5, 176400, Note_on_c, 4, 61, 79
5, 176520, Note_off_c, 4, 61, 0
5, 176520, Note_on_c, 4, 62, 79
5, 176640, Note_off_c, 4, 62, 0
5, 176760, Note_on_c, 4, 62, 79
5, 176880, Note_off_c, 4, 62, 0
5, 177000, Note_on_c, 4, 57, 79
5, 177096, Note_off_c, 4, 57, 0
5, 177240, Note_on_c, 4, 50, 78
5, 177360, Note_off_c, 4, 50, 0
5, 177360, Note_on_c, 4, 54, 78
5, 177480, Note_off_c, 4, 54, 0
5, 177480, Note_on_c, 4, 59, 78
5, 177576, Note_off_c, 4, 59, 0
5, 177720, Note_on_c, 4, 47, 78
5, 177840, Note_off_c, 4, 47, 0
5, 177840, Note_on_c, 4, 52, 78
5, 177960, Note_off_c, 4, 52, 0
5, 177960, Note_on_c, 4, 55, 78
5, 178056, Note_off_c, 4, 55, 0
5, 178200, Note_on_c, 4, 49, 77
5, 178320, Note_off_c, 4, 49, 0
5, 178320, Note_on_c, 4, 52, 77
5, 178440, Note_off_c, 4, 52, 0
5, 178440, Note_on_c, 4, 57, 77
5, 178536, Note_off_c, 4, 57, 0
5, 180120, Note_on_c, 4, 62, 75
5, 180240, Note_off_c, 4, 62, 0
5, 180240, Note_on_c, 4, 61, 75
5, 180360, Note_off_c, 4, 61, 0
5, 180360, Note_on_c, 4, 62, 75
5, 180480, Note_off_c, 4, 62, 0
5, 180480, Note_on_c, 4, 66, 75
5, 180600, Note_off_c, 4, 66, 0
5, 180600, Note_on_c, 4, 62, 75
5, 180720, Note_off_c, 4, 62, 0
5, 180720, Note_on_c, 4, 61, 75
5, 180840, Note_off_c, 4, 61, 0
5, 180840, Note_on_c, 4, 62, 74
5, 180960, Note_off_c, 4, 62, 0
5, 181080, Note_on_c, 4, 62, 74
5, 181200, Note_off_c, 4, 62, 0
5, 181320, Note_on_c, 4, 57, 74
5, 181416, Note_off_c, 4, 57, 0
5, 181560, Note_on_c, 4, 62, 74
5, 181680, Note_off_c, 4, 62, 0
5, 181680, Note_on_c, 4, 61, 73
5, 181800, Note_off_c, 4, 61, 0
5, 181800, Note_on_c, 4, 62, 73
5, 181920, Note_off_c, 4, 62, 0
5, 181920, Note_on_c, 4, 66, 73
5, 182040, Note_off_c, 4, 66, 0
5, 182040, Note_on_c, 4, 62, 73
5, 182160, Note_off_c, 4, 62, 0
5, 182160, Note_on_c, 4, 61, 73
5, 182280, Note_off_c, 4, 61, 0
5, 182280, Note_on_c, 4, 62, 73
5, 182400, Note_off_c, 4, 62, 0
5, 182520, Note_on_c, 4, 62, 73
5, 182640, Note_off_c, 4, 62, 0
5, 182760, Note_on_c, 4, 57, 72
5, 182856, Note_off_c, 4, 57, 0
5, 183000, Note_on_c, 4, 50, 72
5, 183120, Note_off_c, 4, 50, 0
5, 183120, Note_on_c, 4, 54, 72
5, 183240, Note_off_c, 4, 54, 0
5, 183240, Note_on_c, 4, 59, 72
5, 183336, Note_off_c, 4, 59, 0
5, 183480, Note_on_c, 4, 47, 72
5, 183600, Note_off_c, 4, 47, 0
5, 183600, Note_on_c, 4, 52, 71
5, 183720, Note_off_c, 4, 52, 0
5, 183720, Note_on_c, 4, 55, 71
5, 183816, Note_off_c, 4, 55, 0
5, 183960, Note_on_c, 4, 49, 71
5, 184080, Note_off_c, 4, 49, 0
5, 184080, Note_on_c, 4, 52, 71
5, 184200, Note_off_c, 4, 52, 0
5, 184200, Note_on_c, 4, 57, 71
5, 184296, Note_off_c, 4, 57, 0
5, 184440, Note_on_c, 4, 50, 70
5, 184560, Note_off_c, 4, 50, 0
5, 184560, Note_on_c, 4, 54, 70
5, 184680, Note_off_c, 4, 54, 0
5, 184680, Note_on_c, 4, 50, 70
5, 184800, Note_off_c, 4, 50, 0
5, 184920, Note_on_c, 4, 50, 70
5, 185040, Note_off_c, 4, 50, 0
5, 185160, Note_on_c, 4, 45, 70
5, 185280, Note_off_c, 4, 45, 0
5, 185520, Control_c, 4, 64, 0
5, 185760, Control_c, 4, 64, 0
5, 191640, Note_on_c, 4, 62, 55
5, 191760, Note_off_c, 4, 62, 0
5, 191880, Note_on_c, 4, 62, 55
5, 192000, Note_off_c, 4, 62, 0
5, 192120, Note_on_c, 4, 62, 54
5, 192240, Note_off_c, 4, 62, 0
5, 192360, Note_on_c, 4, 62, 54
5, 192480, Note_off_c, 4, 62, 0
5, 192600, Note_on_c, 4, 62, 54
5, 192720, Note_off_c, 4, 62, 0
5, 192840, Note_on_c, 4, 62, 53
5, 192960, Note_off_c, 4, 62, 0
5, 193080, Note_on_c, 4, 62, 53
5, 193200, Note_off_c, 4, 62, 0
5, 193320, Note_on_c, 4, 62, 52
5, 193440, Note_off_c, 4, 62, 0
5, 193560, Note_on_c, 4, 62, 52
5, 193680, Note_off_c, 4, 62, 0
5, 193800, Note_on_c, 4, 62, 51
5, 193920, Note_off_c, 4, 62, 0
5, 194040, Note_on_c, 4, 62, 51
5, 194160, Note_off_c, 4, 62, 0
5, 194280, Note_on_c, 4, 62, 51
5, 194400, Note_off_c, 4, 62, 0
5, 194520, Note_on_c, 4, 62, 50
5, 194640, Note_off_c, 4, 62, 0
5, 194640, Note_on_c, 4, 57, 50
5, 194760, Note_off_c, 4, 57, 0
5, 194760, Note_on_c, 4, 62, 50
5, 194880, Note_off_c, 4, 62, 0
5, 195000, Note_on_c, 4, 61, 49
5, 195120, Note_off_c, 4, 61, 0
5, 195120, Note_on_c, 4, 57, 49
5, 195240, Note_off_c, 4, 57, 0
5, 195240, Note_on_c, 4, 61, 49
5, 195360, Note_off_c, 4, 61, 0
5, 195480, Note_on_c, 4, 62, 48
5, 195600, Note_off_c, 4, 62, 0
5, 195600, Note_on_c, 4, 57, 48
5, 195720, Note_off_c, 4, 57, 0
5, 195720, Note_on_c, 4, 62, 48
5, 195840, Note_off_c, 4, 62, 0
5, 195840, Note_on_c, 4, 61, 48
5, 196200, Note_off_c, 4, 61, 0
5, 197400, Note_on_c, 4, 62, 81
5, 197520, Note_off_c, 4, 62, 0
5, 197520, Note_on_c, 4, 61, 81
5, 197640, Note_off_c, 4, 61, 0
5, 197640, Note_on_c, 4, 62, 81
5, 197760, Note_off_c, 4, 62, 0
5, 197760, Note_on_c, 4, 66, 81
5, 197880, Note_off_c, 4, 66, 0
5, 197880, Note_on_c, 4, 62, 81
5, 198000, Note_off_c, 4, 62, 0
5, 198000, Note_on_c, 4, 61, 81
5, 198120, Note_off_c, 4, 61, 0
5, 198120, Note_on_c, 4, 62, 81
5, 198240, Note_off_c, 4, 62, 0
5, 198360, Note_on_c, 4, 62, 80
5, 198480, Note_off_c, 4, 62, 0
5, 198600, Note_on_c, 4, 57, 80
5, 198696, Note_off_c, 4, 57, 0
5, 198840, Note_on_c, 4, 62, 80
5, 198960, Note_off_c, 4, 62, 0
5, 198960, Note_on_c, 4, 61, 80
5, 199080, Note_off_c, 4, 61, 0
5, 199080, Note_on_c, 4, 62, 80
5, 199200, Note_off_c, 4, 62, 0
5, 199200, Note_on_c, 4, 66, 79
5, 199320, Note_off_c, 4, 66, 0
5, 199320, Note_on_c, 4, 62, 79
5, 199440, Note_off_c, 4, 62, 0
5, 199440, Note_on_c, 4, 61, 79
5, 199560, Note_off_c, 4, 61, 0
5, 199560, Note_on_c, 4, 62, 79
5, 199680, Note_off_c, 4, 62, 0
5, 199800, Note_on_c, 4, 62, 79
5, 199920, Note_off_c, 4, 62, 0
5, 200040, Note_on_c, 4, 57, 79
5, 200136, Note_off_c, 4, 57, 0
5, 200280, Note_on_c, 4, 50, 78
5, 200400, Note_off_c, 4, 50, 0
5, 200400, Note_on_c, 4, 54, 78
5, 200520, Note_off_c, 4, 54, 0
5, 200520, Note_on_c, 4, 59, 78
5, 200616, Note_off_c, 4, 59, 0
5, 200760, Note_on_c, 4, 47, 78
5, 200880, Note_off_c, 4, 47, 0
5, 200880, Note_on_c, 4, 52, 78
5, 201000, Note_off_c, 4, 52, 0
5, 201000, Note_on_c, 4, 55, 78
5, 201096, Note_off_c, 4, 55, 0
5, 201240, Note_on_c, 4, 49, 77
5, 201360, Note_off_c, 4, 49, 0
5, 201360, Note_on_c, 4, 52, 77
5, 201480, Note_off_c, 4, 52, 0
5, 201480, Note_on_c, 4, 57, 77
5, 201576, Note_off_c, 4, 57, 0
5, 203160, Note_on_c, 4, 62, 75
5, 203280, Note_off_c, 4, 62, 0
5, 203280, Note_on_c, 4, 61, 75
5, 203400, Note_off_c, 4, 61, 0
5, 203400, Note_on_c, 4, 62, 75
5, 203520, Note_off_c, 4, 62, 0
5, 203520, Note_on_c, 4, 66, 75
5, 203640, Note_off_c, 4, 66, 0
5, 203640, Note_on_c, 4, 62, 75
5, 203760, Note_off_c, 4, 62, 0
5, 203760, Note_on_c, 4, 61, 75
5, 203880, Note_off_c, 4, 61, 0
5, 203880, Note_on_c, 4, 62, 74
5, 204000, Note_off_c, 4, 62, 0
5, 204120, Note_on_c, 4, 62, 74
5, 204240, Note_off_c, 4, 62, 0
5, 204360, Note_on_c, 4, 57, 74
5, 204456, Note_off_c, 4, 57, 0
5, 204600, Note_on_c, 4, 62, 74
5, 204720, Note_off_c, 4, 62, 0
5, 204720, Note_on_c, 4, 61, 73
5, 204840, Note_off_c, 4, 61, 0
5, 204840, Note_on_c, 4, 62, 73
5, 204960, Note_off_c, 4, 62, 0
5, 204960, Note_on_c, 4, 66, 73
5, 205080, Note_off_c, 4, 66, 0
5, 205080, Note_on_c, 4, 62, 73
5, 205200, Note_off_c, 4, 62, 0
5, 205200, Note_on_c, 4, 61, 73
5, 205320, Note_off_c, 4, 61, 0
5, 205320, Note_on_c, 4, 62, 73
5, 205440, Note_off_c, 4, 62, 0
5, 205560, Note_on_c, 4, 62, 73
5, 205680, Note_off_c, 4, 62, 0
5, 205800, Note_on_c, 4, 57, 72
5, 205896, Note_off_c, 4, 57, 0
5, 206040, Note_on_c, 4, 50, 72
5, 206160, Note_off_c, 4, 50, 0
5, 206160, Note_on_c, 4, 54, 72
5, 206280, Note_off_c, 4, 54, 0
5, 206280, Note_on_c, 4, 59, 72
5, 206376, Note_off_c, 4, 59, 0
5, 206520, Note_on_c, 4, 47, 72
5, 206640, Note_off_c, 4, 47, 0
5, 206640, Note_on_c, 4, 52, 71
5, 206760, Note_off_c, 4, 52, 0
5, 206760, Note_on_c, 4, 55, 71
5, 206856, Note_off_c, 4, 55, 0
5, 207000, Note_on_c, 4, 49, 71
5, 207120, Note_off_c, 4, 49, 0
5, 207120, Note_on_c, 4, 52, 71
5, 207240, Note_off_c, 4, 52, 0
5, 207240, Note_on_c, 4, 57, 71
5, 207336, Note_off_c, 4, 57, 0
5, 207480, Note_on_c, 4, 50, 70
5, 207600, Note_off_c, 4, 50, 0
5, 207600, Note_on_c, 4, 54, 70
5, 207720, Note_off_c, 4, 54, 0
5, 207720, Note_on_c, 4, 50, 70
5, 207840, Note_off_c, 4, 50, 0
5, 207960, Note_on_c, 4, 50, 70
5, 208080, Note_off_c, 4, 50, 0
5, 208200, Note_on_c, 4, 45, 70
5, 208320, Note_off_c, 4, 45, 0
5, 208560, Control_c, 4, 64, 0
5, 208800, Control_c, 4, 64, 0
5, 220080, Control_c, 4, 64, 0
5, 220320, Control_c, 4, 64, 0
5, 231840, Control_c, 4, 64, 0
5, 240600, Note_on_c, 4, 57, 63
5, 240720, Note_off_c, 4, 57, 0
5, 240720, Note_on_c, 4, 54, 63
5, 240840, Note_off_c, 4, 54, 0
5, 240840, Note_on_c, 4, 57, 63
5, 240936, Note_off_c, 4, 57, 0
5, 241080, Note_on_c, 4, 57, 63
5, 241200, Note_off_c, 4, 57, 0
5, 241200, Note_on_c, 4, 52, 63
5, 241320, Note_off_c, 4, 52, 0
5, 241320, Note_on_c, 4, 57, 62
5, 241416, Note_off_c, 4, 57, 0
5, 241560, Note_on_c, 4, 57, 62
5, 241680, Note_off_c, 4, 57, 0
5, 241680, Note_on_c, 4, 54, 62
5, 241800, Note_off_c, 4, 54, 0
5, 241800, Note_on_c, 4, 57, 62
5, 241896, Note_off_c, 4, 57, 0
5, 243420, Control_c, 4, 64, 0
5, 255120, Control_c, 4, 64, 0
5, 263880, Note_on_c, 4, 57, 63
5, 264000, Note_off_c, 4, 57, 0
5, 264000, Note_on_c, 4, 54, 63
5, 264120, Note_off_c, 4, 54, 0
5, 264120, Note_on_c, 4, 57, 63
5, 264216, Note_off_c, 4, 57, 0
5, 264360, Note_on_c, 4, 57, 63
5, 264480, Note_off_c, 4, 57, 0
5, 264480, Note_on_c, 4, 52, 63
5, 264600, Note_off_c, 4, 52, 0
5, 264600, Note_on_c, 4, 57, 62
5, 264696, Note_off_c, 4, 57, 0
5, 264840, Note_on_c, 4, 57, 62
5, 264960, Note_off_c, 4, 57, 0
5, 264960, Note_on_c, 4, 54, 62
5, 265080, Note_off_c, 4, 54, 0
5, 265080, Note_on_c, 4, 57, 62
5, 265176, Note_off_c, 4, 57, 0
5, 266700, Control_c, 4, 64, 0
5, 279360, Control_c, 4, 64, 0
5, 290880, Control_c, 4, 64, 0
5, 302400, Control_c, 4, 64, 0
5, 309120, Note_on_c, 4, 69, 57
5, 309600, Note_off_c, 4, 69, 0
5, 309600, Note_on_c, 4, 66, 50
5, 309960, Note_off_c, 4, 66, 0
5, 310560, Note_on_c, 4, 69, 53
5, 311040, Note_off_c, 4, 69, 0
5, 311040, Note_on_c, 4, 66, 47
5, 311196, Note_off_c, 4, 66, 0
5, 325440, Control_c, 4, 64, 0
5, 332160, Note_on_c, 4, 69, 57
5, 332640, Note_off_c, 4, 69, 0
5, 332640, Note_on_c, 4, 66, 50
5, 333000, Note_off_c, 4, 66, 0
5, 333600, Note_on_c, 4, 69, 53
5, 334080, Note_off_c, 4, 69, 0
5, 334080, Note_on_c, 4, 66, 47
5, 334236, Note_off_c, 4, 66, 0
5, 348480, Control_c, 4, 64, 0
5, 349200, Note_on_c, 4, 79, 51
5, 349356, Note_off_c, 4, 79, 0
5, 349440, Note_on_c, 4, 78, 46
5, 349632, Note_off_c, 4, 78, 0
5, 350640, Note_on_c, 4, 76, 48
5, 350796, Note_off_c, 4, 76, 0
5, 350880, Note_on_c, 4, 74, 44
5, 351072, Note_off_c, 4, 74, 0
5, 351600, Note_on_c, 4, 69, 47
5, 351756, Note_off_c, 4, 69, 0
5, 352080, Note_on_c, 4, 71, 46
5, 352236, Note_off_c, 4, 71, 0
5, 352560, Note_on_c, 4, 73, 44
5, 352716, Note_off_c, 4, 73, 0
5, 354480, Note_on_c, 4, 79, 58
5, 354636, Note_off_c, 4, 79, 0
5, 354720, Note_on_c, 4, 78, 56
5, 354876, Note_off_c, 4, 78, 0
5, 354960, Note_on_c, 4, 79, 53
5, 355116, Note_off_c, 4, 79, 0
5, 355200, Note_on_c, 4, 78, 51
5, 355392, Note_off_c, 4, 78, 0
5, 355920, Note_on_c, 4, 76, 57
5, 356076, Note_off_c, 4, 76, 0
5, 356160, Note_on_c, 4, 74, 54
5, 356316, Note_off_c, 4, 74, 0
5, 356400, Note_on_c, 4, 76, 51
5, 356556, Note_off_c, 4, 76, 0
5, 356640, Note_on_c, 4, 74, 48
5, 356832, Note_off_c, 4, 74, 0
5, 357360, Note_on_c, 4, 69, 54
5, 357516, Note_off_c, 4, 69, 0
5, 357840, Note_on_c, 4, 71, 53
5, 357996, Note_off_c, 4, 71, 0
5, 358320, Note_on_c, 4, 67, 52
5, 358476, Note_off_c, 4, 67, 0
5, 360000, Control_c, 4, 64, 0
5, 360720, Note_on_c, 4, 79, 51
5, 360876, Note_off_c, 4, 79, 0
5, 360960, Note_on_c, 4, 78, 46
5, 361152, Note_off_c, 4, 78, 0
5, 362160, Note_on_c, 4, 76, 48
5, 362316, Note_off_c, 4, 76, 0
5, 362400, Note_on_c, 4, 74, 44
5, 362592, Note_off_c, 4, 74, 0
5, 363120, Note_on_c, 4, 69, 47
5, 363276, Note_off_c, 4, 69, 0
5, 363600, Note_on_c, 4, 71, 46
5, 363756, Note_off_c, 4, 71, 0
5, 364080, Note_on_c, 4, 73, 44
5, 364236, Note_off_c, 4, 73, 0
5, 366000, Note_on_c, 4, 79, 58
5, 366156, Note_off_c, 4, 79, 0
5, 366240, Note_on_c, 4, 78, 56
5, 366396, Note_off_c, 4, 78, 0
5, 366480, Note_on_c, 4, 79, 53
5, 366636, Note_off_c, 4, 79, 0
5, 366720, Note_on_c, 4, 78, 51
5, 366912, Note_off_c, 4, 78, 0
5, 367440, Note_on_c, 4, 76, 57
5, 367596, Note_off_c, 4, 76, 0
5, 367680, Note_on_c, 4, 74, 54
5, 367836, Note_off_c, 4, 74, 0
5, 367920, Note_on_c, 4, 76, 51
5, 368076, Note_off_c, 4, 76, 0
5, 368160, Note_on_c, 4, 74, 48
5, 368352, Note_off_c, 4, 74, 0
5, 368880, Note_on_c, 4, 69, 54
5, 369036, Note_off_c, 4, 69, 0
5, 369360, Note_on_c, 4, 71, 53
5, 369516, Note_off_c, 4, 71, 0
5, 369840, Note_on_c, 4, 67, 52
5, 369996, Note_off_c, 4, 67, 0
5, 371520, Control_c, 4, 64, 0
5, 371520, Note_on_c, 4, 61, 54
5, 371676, Note_off_c, 4, 61, 0
5, 371760, Note_on_c, 4, 61, 55
5, 371916, Note_off_c, 4, 61, 0
5, 372000, Note_on_c, 4, 61, 56
5, 372156, Note_off_c, 4, 61, 0
5, 372240, Note_on_c, 4, 61, 58
5, 372396, Note_off_c, 4, 61, 0
5, 372480, Note_on_c, 4, 62, 59
5, 372720, Note_off_c, 4, 62, 0
5, 372720, Note_on_c, 4, 63, 61
5, 372960, Note_off_c, 4, 63, 0
5, 372960, Note_on_c, 4, 64, 63
5, 373680, Note_off_c, 4, 64, 0
5, 373680, Note_on_c, 4, 66, 52
5, 373920, Note_off_c, 4, 66, 0
5, 373920, Note_on_c, 4, 67, 49
5, 374112, Note_off_c, 4, 67, 0
5, 375360, Note_on_c, 4, 64, 54
5, 375600, Note_off_c, 4, 64, 0
5, 375600, Note_on_c, 4, 65, 56
5, 375840, Note_off_c, 4, 65, 0
5, 375840, Note_on_c, 4, 66, 59
5, 376560, Note_off_c, 4, 66, 0
5, 376560, Note_on_c, 4, 67, 49
5, 376640, Note_off_c, 4, 67, 0
5, 376640, Note_on_c, 4, 69, 48
5, 376720, Note_off_c, 4, 69, 0
5, 376720, Note_on_c, 4, 67, 47
5, 376800, Note_off_c, 4, 67, 0
5, 376800, Note_on_c, 4, 66, 46
5, 376992, Note_off_c, 4, 66, 0
5, 380880, Note_on_c, 4, 74, 62
5, 381120, Note_off_c, 4, 74, 0
5, 381120, Note_on_c, 4, 74, 63
5, 381360, Note_off_c, 4, 74, 0
5, 381360, Note_on_c, 4, 74, 65
5, 381600, Note_off_c, 4, 74, 0
5, 381600, Note_on_c, 4, 74, 66
5, 382080, Note_off_c, 4, 74, 0
5, 382080, Note_on_c, 4, 73, 58
5, 382440, Note_off_c, 4, 73, 0
5, 383760, Note_on_c, 4, 79, 49
5, 383916, Note_off_c, 4, 79, 0
5, 384000, Note_on_c, 4, 78, 45
5, 384192, Note_off_c, 4, 78, 0
5, 385200, Note_on_c, 4, 76, 46
5, 385356, Note_off_c, 4, 76, 0
5, 385440, Note_on_c, 4, 74, 42
5, 385632, Note_off_c, 4, 74, 0
5, 386160, Note_on_c, 4, 69, 45
5, 386316, Note_off_c, 4, 69, 0
5, 386640, Note_on_c, 4, 71, 43
5, 386796, Note_off_c, 4, 71, 0
5, 387120, Note_on_c, 4, 73, 42
5, 387276, Note_off_c, 4, 73, 0
5, 389040, Note_on_c, 4, 79, 60
5, 389196, Note_off_c, 4, 79, 0
5, 389280, Note_on_c, 4, 78, 58
5, 389436, Note_off_c, 4, 78, 0
5, 389520, Note_on_c, 4, 79, 55
5, 389676, Note_off_c, 4, 79, 0
5, 389760, Note_on_c, 4, 78, 53
5, 389952, Note_off_c, 4, 78, 0
5, 390480, Note_on_c, 4, 76, 59
5, 390636, Note_off_c, 4, 76, 0
5, 390720, Note_on_c, 4, 74, 57
5, 390876, Note_off_c, 4, 74, 0
5, 390960, Note_on_c, 4, 76, 54
5, 391116, Note_off_c, 4, 76, 0
5, 391200, Note_on_c, 4, 74, 51
5, 391392, Note_off_c, 4, 74, 0
5, 391920, Note_on_c, 4, 69, 56
5, 392076, Note_off_c, 4, 69, 0
5, 392400, Note_on_c, 4, 71, 55
5, 392556, Note_off_c, 4, 71, 0
5, 392880, Note_on_c, 4, 67, 54
5, 393036, Note_off_c, 4, 67, 0
5, 394560, Control_c, 4, 64, 0
5, 394560, Note_on_c, 4, 61, 54
5, 394716, Note_off_c, 4, 61, 0
5, 394800, Note_on_c, 4, 61, 55
5, 394956, Note_off_c, 4, 61, 0
5, 395040, Note_on_c, 4, 61, 56
5, 395196, Note_off_c, 4, 61, 0
5, 395280, Note_on_c, 4, 61, 58
5, 395436, Note_off_c, 4, 61, 0
5, 395520, Note_on_c, 4, 62, 59
5, 395760, Note_off_c, 4, 62, 0
5, 395760, Note_on_c, 4, 63, 61
5, 396000, Note_off_c, 4, 63, 0
5, 396000, Note_on_c, 4, 64, 63
5, 396720, Note_off_c, 4, 64, 0
5, 396720, Note_on_c, 4, 66, 52
5, 396960, Note_off_c, 4, 66, 0
5, 396960, Note_on_c, 4, 67, 49
5, 397152, Note_off_c, 4, 67, 0
5, 398400, Note_on_c, 4, 64, 54
5, 398640, Note_off_c, 4, 64, 0
5, 398640, Note_on_c, 4, 65, 56
5, 398880, Note_off_c, 4, 65, 0
5, 398880, Note_on_c, 4, 66, 59
5, 399600, Note_off_c, 4, 66, 0
5, 399600, Note_on_c, 4, 67, 49
5, 399680, Note_off_c, 4, 67, 0
5, 399680, Note_on_c, 4, 69, 48
5, 399760, Note_off_c, 4, 69, 0
5, 399760, Note_on_c, 4, 67, 47
5, 399840, Note_off_c, 4, 67, 0
5, 399840, Note_on_c, 4, 66, 46
5, 400032, Note_off_c, 4, 66, 0
5, 403920, Note_on_c, 4, 74, 62
5, 404160, Note_off_c, 4, 74, 0
5, 404160, Note_on_c, 4, 74, 63
5, 404400, Note_off_c, 4, 74, 0
5, 404400, Note_on_c, 4, 74, 65
5, 404640, Note_off_c, 4, 74, 0
5, 404640, Note_on_c, 4, 74, 66
5, 405120, Note_off_c, 4, 74, 0
5, 405120, Note_on_c, 4, 73, 58
5, 405480, Note_off_c, 4, 73, 0
5, 406800, Note_on_c, 4, 79, 49
5, 406956, Note_off_c, 4, 79, 0
5, 407040, Note_on_c, 4, 78, 45
5, 407232, Note_off_c, 4, 78, 0
5, 408240, Note_on_c, 4, 76, 46
5, 408396, Note_off_c, 4, 76, 0
5, 408480, Note_on_c, 4, 74, 42
5, 408672, Note_off_c, 4, 74, 0
5, 409200, Note_on_c, 4, 69, 45
5, 409356, Note_off_c, 4, 69, 0
5, 409680, Note_on_c, 4, 71, 43
5, 409836, Note_off_c, 4, 71, 0
5, 410160, Note_on_c, 4, 73, 42
5, 410316, Note_off_c, 4, 73, 0
5, 412080, Note_on_c, 4, 79, 60
5, 412236, Note_off_c, 4, 79, 0
5, 412320, Note_on_c, 4, 78, 58
5, 412476, Note_off_c, 4, 78, 0
5, 412560, Note_on_c, 4, 79, 55
5, 412716, Note_off_c, 4, 79, 0
5, 412800, Note_on_c, 4, 78, 53
5, 412992, Note_off_c, 4, 78, 0
5, 413520, Note_on_c, 4, 76, 59
5, 413676, Note_off_c, 4, 76, 0
5, 413760, Note_on_c, 4, 74, 57
5, 413916, Note_off_c, 4, 74, 0
5, 414000, Note_on_c, 4, 76, 54
5, 414156, Note_off_c, 4, 76, 0
5, 414240, Note_on_c, 4, 74, 51
5, 414432, Note_off_c, 4, 74, 0
5, 414960, Note_on_c, 4, 69, 56
5, 415116, Note_off_c, 4, 69, 0
5, 415440, Note_on_c, 4, 71, 55
5, 415596, Note_off_c, 4, 71, 0
5, 415920, Note_on_c, 4, 67, 54
5, 416076, Note_off_c, 4, 67, 0
5, 417600, Control_c, 4, 64, 0
5, 429120, Control_c, 4, 64, 0
5, 440640, Control_c, 4, 64, 0
5, 441120, Note_on_c, 4, 57, 50
5, 441120, Note_on_c, 4, 61, 50
5, 441480, Note_off_c, 4, 61, 0
5, 441480, Note_off_c, 4, 57, 0
5, 441600, Note_on_c, 4, 61, 50
5, 441600, Note_on_c, 4, 57, 50
5, 441960, Note_off_c, 4, 57, 0
5, 441960, Note_off_c, 4, 61, 0
5, 442560, Note_on_c, 4, 73, 57
5, 442560, Note_on_c, 4, 69, 57
5, 442920, Note_off_c, 4, 69, 0
5, 442920, Note_off_c, 4, 73, 0
5, 443040, Note_on_c, 4, 69, 53
5, 443040, Note_on_c, 4, 73, 53
5, 443400, Note_off_c, 4, 73, 0
5, 443400, Note_off_c, 4, 69, 0
5, 444000, Note_on_c, 4, 69, 50
5, 444000, Note_on_c, 4, 62, 50
5, 444360, Note_off_c, 4, 62, 0
5, 444360, Note_off_c, 4, 69, 0
5, 444480, Note_on_c, 4, 69, 52
5, 444480, Note_on_c, 4, 62, 52
5, 444840, Note_off_c, 4, 62, 0
5, 444840, Note_off_c, 4, 69, 0
5, 445440, Note_on_c, 4, 74, 57
5, 445440, Note_on_c, 4, 77, 57
5, 445800, Note_off_c, 4, 77, 0
5, 445800, Note_off_c, 4, 74, 0
5, 445920, Note_on_c, 4, 77, 59
5, 445920, Note_on_c, 4, 74, 59
5, 446280, Note_off_c, 4, 74, 0
5, 446280, Note_off_c, 4, 77, 0
5, 446400, Note_on_c, 4, 79, 65
5, 446400, Note_on_c, 4, 73, 65
5, 446880, Note_off_c, 4, 73, 0
5, 446880, Note_off_c, 4, 79, 0
5, 446880, Note_on_c, 4, 74, 56
5, 446880, Note_on_c, 4, 77, 56
5, 447240, Note_off_c, 4, 77, 0
5, 447240, Note_off_c, 4, 74, 0
5, 447840, Note_on_c, 4, 79, 53
5, 447840, Note_on_c, 4, 73, 53
5, 448320, Note_off_c, 4, 73, 0
5, 448320, Note_off_c, 4, 79, 0
5, 448320, Note_on_c, 4, 74, 46
5, 448320, Note_on_c, 4, 77, 46
5, 448680, Note_off_c, 4, 77, 0
5, 448680, Note_off_c, 4, 74, 0
5, 450720, Note_on_c, 4, 74, 55
5, 451680, Note_off_c, 4, 74, 0
5, 451680, Note_on_c, 4, 73, 40
5, 451872, Note_off_c, 4, 73, 0
5, 452640, Note_on_c, 4, 65, 49
5, 452640, Note_on_c, 4, 62, 49
5, 452640, Note_on_c, 4, 69, 49
5, 453000, Note_off_c, 4, 69, 0
5, 453000, Note_off_c, 4, 62, 0
5, 453000, Note_off_c, 4, 65, 0
5, 453120, Note_on_c, 4, 65, 51
5, 453120, Note_on_c, 4, 62, 51
5, 453120, Note_on_c, 4, 69, 51
5, 453480, Note_off_c, 4, 69, 0
5, 453480, Note_off_c, 4, 62, 0
5, 453480, Note_off_c, 4, 65, 0
5, 454080, Note_on_c, 4, 65, 49
5, 454080, Note_on_c, 4, 62, 49
5, 454080, Note_on_c, 4, 69, 49
5, 454440, Note_off_c, 4, 69, 0
5, 454440, Note_off_c, 4, 62, 0
5, 454440, Note_off_c, 4, 65, 0
5, 454560, Note_on_c, 4, 65, 49
5, 454560, Note_on_c, 4, 62, 49
5, 454560, Note_on_c, 4, 69, 49
5, 454920, Note_off_c, 4, 69, 0
5, 454920, Note_off_c, 4, 62, 0
5, 454920, Note_off_c, 4, 65, 0
5, 455040, Note_on_c, 4, 65, 51
5, 455520, Note_off_c, 4, 65, 0
5, 455520, Note_on_c, 4, 69, 52
5, 456000, Note_off_c, 4, 69, 0
5, 456000, Note_on_c, 4, 67, 51
5, 456480, Note_off_c, 4, 67, 0
5, 456480, Note_on_c, 4, 65, 45
5, 456840, Note_off_c, 4, 65, 0
5, 458400, Note_on_c, 4, 69, 53
5, 458400, Note_on_c, 4, 65, 53
5, 458760, Note_off_c, 4, 65, 0
5, 458760, Note_off_c, 4, 69, 0
5, 458880, Note_on_c, 4, 69, 49
5, 458880, Note_on_c, 4, 65, 49
5, 459240, Note_off_c, 4, 65, 0
5, 459240, Note_off_c, 4, 69, 0
5, 459360, Note_on_c, 4, 63, 77
5, 459360, Note_on_c, 4, 58, 77
5, 460512, Note_off_c, 4, 58, 0
5, 460512, Note_off_c, 4, 63, 0
5, 460800, Note_on_c, 4, 65, 43
5, 461160, Note_off_c, 4, 65, 0
5, 463680, Control_c, 4, 64, 0
5, 464160, Note_on_c, 4, 61, 50
5, 464160, Note_on_c, 4, 57, 50
5, 464520, Note_off_c, 4, 57, 0
5, 464520, Note_off_c, 4, 61, 0
5, 464640, Note_on_c, 4, 57, 50
5, 464640, Note_on_c, 4, 61, 50
5, 465000, Note_off_c, 4, 61, 0
5, 465000, Note_off_c, 4, 57, 0
5, 465600, Note_on_c, 4, 69, 57
5, 465600, Note_on_c, 4, 73, 57
5, 465960, Note_off_c, 4, 73, 0
5, 465960, Note_off_c, 4, 69, 0
5, 466080, Note_on_c, 4, 73, 53
5, 466080, Note_on_c, 4, 69, 53
5, 466440, Note_off_c, 4, 69, 0
5, 466440, Note_off_c, 4, 73, 0
5, 467040, Note_on_c, 4, 62, 50
5, 467040, Note_on_c, 4, 69, 50
5, 467400, Note_off_c, 4, 69, 0
5, 467400, Note_off_c, 4, 62, 0
5, 467520, Note_on_c, 4, 62, 52
5, 467520, Note_on_c, 4, 69, 52
5, 467880, Note_off_c, 4, 69, 0
5, 467880, Note_off_c, 4, 62, 0
5, 468480, Note_on_c, 4, 77, 57
5, 468480, Note_on_c, 4, 74, 57
5, 468840, Note_off_c, 4, 74, 0
5, 468840, Note_off_c, 4, 77, 0
5, 468960, Note_on_c, 4, 74, 59
5, 468960, Note_on_c, 4, 77, 59
5, 469320, Note_off_c, 4, 77, 0
5, 469320, Note_off_c, 4, 74, 0
5, 469440, Note_on_c, 4, 73, 65
5, 469440, Note_on_c, 4, 79, 65
5, 469920, Note_off_c, 4, 79, 0
5, 469920, Note_off_c, 4, 73, 0
5, 469920, Note_on_c, 4, 77, 56
5, 469920, Note_on_c, 4, 74, 56
5, 470280, Note_off_c, 4, 74, 0
5, 470280, Note_off_c, 4, 77, 0
5, 470880, Note_on_c, 4, 73, 53
5, 470880, Note_on_c, 4, 79, 53
5, 471360, Note_off_c, 4, 79, 0
5, 471360, Note_off_c, 4, 73, 0
5, 471360, Note_on_c, 4, 77, 46
5, 471360, Note_on_c, 4, 74, 46
5, 471720, Note_off_c, 4, 74, 0
5, 471720, Note_off_c, 4, 77, 0
5, 473760, Note_on_c, 4, 74, 55
5, 474720, Note_off_c, 4, 74, 0
5, 474720, Note_on_c, 4, 73, 40
5, 474912, Note_off_c, 4, 73, 0
5, 475680, Note_on_c, 4, 69, 49
5, 475680, Note_on_c, 4, 62, 49
5, 475680, Note_on_c, 4, 65, 49
5, 476040, Note_off_c, 4, 65, 0
5, 476040, Note_off_c, 4, 62, 0
5, 476040, Note_off_c, 4, 69, 0
5, 476160, Note_on_c, 4, 69, 51
5, 476160, Note_on_c, 4, 62, 51
5, 476160, Note_on_c, 4, 65, 51
5, 476520, Note_off_c, 4, 65, 0
5, 476520, Note_off_c, 4, 62, 0
5, 476520, Note_off_c, 4, 69, 0
5, 477120, Note_on_c, 4, 69, 49
5, 477120, Note_on_c, 4, 62, 49
5, 477120, Note_on_c, 4, 65, 49
5, 477480, Note_off_c, 4, 65, 0
5, 477480, Note_off_c, 4, 62, 0
5, 477480, Note_off_c, 4, 69, 0
5, 477600, Note_on_c, 4, 69, 49
5, 477600, Note_on_c, 4, 62, 49
5, 477600, Note_on_c, 4, 65, 49
5, 477960, Note_off_c, 4, 65, 0
5, 477960, Note_off_c, 4, 62, 0
5, 477960, Note_off_c, 4, 69, 0
5, 478080, Note_on_c, 4, 65, 51
5, 478560, Note_off_c, 4, 65, 0
5, 478560, Note_on_c, 4, 69, 52
5, 479040, Note_off_c, 4, 69, 0
5, 479040, Note_on_c, 4, 67, 51
5, 479520, Note_off_c, 4, 67, 0
5, 479520, Note_on_c, 4, 65, 45
5, 479880, Note_off_c, 4, 65, 0
5, 481440, Note_on_c, 4, 65, 53
5, 481440, Note_on_c, 4, 69, 53
5, 481800, Note_off_c, 4, 69, 0
5, 481800, Note_off_c, 4, 65, 0
5, 481920, Note_on_c, 4, 65, 49
5, 481920, Note_on_c, 4, 69, 49
5, 482280, Note_off_c, 4, 69, 0
5, 482280, Note_off_c, 4, 65, 0
5, 482400, Note_on_c, 4, 58, 77
5, 482400, Note_on_c, 4, 63, 77
5, 483552, Note_off_c, 4, 63, 0
5, 483552, Note_off_c, 4, 58, 0
5, 483840, Note_on_c, 4, 65, 43
5, 484200, Note_off_c, 4, 65, 0
5, 486720, Note_on_c, 4, 66, 55
5, 486960, Note_off_c, 4, 66, 0
5, 486960, Note_on_c, 4, 65, 55
5, 487200, Note_off_c, 4, 65, 0
5, 487200, Note_on_c, 4, 66, 54
5, 487440, Note_off_c, 4, 66, 0
5, 487440, Note_on_c, 4, 65, 52
5, 487680, Note_off_c, 4, 65, 0
5, 487680, Note_on_c, 4, 66, 51
5, 487920, Note_off_c, 4, 66, 0
5, 488160, Note_on_c, 4, 57, 53
5, 488400, Note_off_c, 4, 57, 0
5, 488400, Note_on_c, 4, 56, 52
5, 488640, Note_off_c, 4, 56, 0
5, 488640, Note_on_c, 4, 57, 51
5, 488880, Note_off_c, 4, 57, 0
5, 488880, Note_on_c, 4, 56, 50
5, 489120, Note_off_c, 4, 56, 0
5, 489120, Note_on_c, 4, 57, 49
5, 489360, Note_off_c, 4, 57, 0
5, 492600, Note_on_c, 4, 62, 71
5, 492696, Note_off_c, 4, 62, 0
5, 492840, Note_on_c, 4, 66, 71
5, 492936, Note_off_c, 4, 66, 0
5, 493080, Note_on_c, 4, 64, 70
5, 493176, Note_off_c, 4, 64, 0
5, 493320, Note_on_c, 4, 62, 70
5, 493416, Note_off_c, 4, 62, 0
5, 493560, Note_on_c, 4, 61, 70
5, 493656, Note_off_c, 4, 61, 0
5, 493800, Note_on_c, 4, 59, 69
5, 493896, Note_off_c, 4, 59, 0
5, 494040, Note_on_c, 4, 57, 69
5, 494136, Note_off_c, 4, 57, 0
5, 494280, Note_on_c, 4, 55, 68
5, 494376, Note_off_c, 4, 55, 0
5, 494520, Note_on_c, 4, 54, 68
5, 494616, Note_off_c, 4, 54, 0
5, 494760, Note_on_c, 4, 52, 67
5, 494856, Note_off_c, 4, 52, 0
5, 495000, Note_on_c, 4, 50, 67
5, 495096, Note_off_c, 4, 50, 0
5, 495240, Note_on_c, 4, 49, 67
5, 495336, Note_off_c, 4, 49, 0
5, 495360, Note_on_c, 4, 47, 66
5, 495516, Note_off_c, 4, 47, 0
5, 495840, Note_on_c, 4, 45, 65
5, 495996, Note_off_c, 4, 45, 0
5, 496320, Note_on_c, 4, 45, 65
5, 496476, Note_off_c, 4, 45, 0
5, 498240, Note_on_c, 4, 66, 55
5, 498480, Note_off_c, 4, 66, 0
5, 498480, Note_on_c, 4, 65, 55
5, 498720, Note_off_c, 4, 65, 0
5, 498720, Note_on_c, 4, 66, 54
5, 498960, Note_off_c, 4, 66, 0
5, 498960, Note_on_c, 4, 65, 52
5, 499200, Note_off_c, 4, 65, 0
5, 499200, Note_on_c, 4, 66, 51
5, 499440, Note_off_c, 4, 66, 0
5, 499680, Note_on_c, 4, 57, 53
5, 499920, Note_off_c, 4, 57, 0
5, 499920, Note_on_c, 4, 56, 52
5, 500160, Note_off_c, 4, 56, 0
5, 500160, Note_on_c, 4, 57, 51
5, 500400, Note_off_c, 4, 57, 0
5, 500400, Note_on_c, 4, 56, 50
5, 500640, Note_off_c, 4, 56, 0
5, 500640, Note_on_c, 4, 57, 49
5, 500880, Note_off_c, 4, 57, 0
5, 504120, Note_on_c, 4, 62, 71
5, 504216, Note_off_c, 4, 62, 0
5, 504360, Note_on_c, 4, 66, 71
5, 504456, Note_off_c, 4, 66, 0
5, 504600, Note_on_c, 4, 64, 70
5, 504696, Note_off_c, 4, 64, 0
5, 504840, Note_on_c, 4, 62, 70
5, 504936, Note_off_c, 4, 62, 0
5, 505080, Note_on_c, 4, 61, 70
5, 505176, Note_off_c, 4, 61, 0
5, 505320, Note_on_c, 4, 59, 69
5, 505416, Note_off_c, 4, 59, 0
5, 505560, Note_on_c, 4, 57, 69
5, 505656, Note_off_c, 4, 57, 0
5, 505800, Note_on_c, 4, 55, 68
5, 505896, Note_off_c, 4, 55, 0
5, 506040, Note_on_c, 4, 54, 68
5, 506136, Note_off_c, 4, 54, 0
5, 506280, Note_on_c, 4, 52, 67
5, 506376, Note_off_c, 4, 52, 0
5, 506520, Note_on_c, 4, 50, 67
5, 506616, Note_off_c, 4, 50, 0
5, 506760, Note_on_c, 4, 49, 67
5, 506856, Note_off_c, 4, 49, 0
5, 506880, Note_on_c, 4, 47, 66
5, 507036, Note_off_c, 4, 47, 0
5, 507360, Note_on_c, 4, 45, 65
5, 507516, Note_off_c, 4, 45, 0
5, 507840, Note_on_c, 4, 45, 65
5, 507996, Note_off_c, 4, 45, 0
5, 509760, Note_on_c, 4, 61, 57
5, 510000, Note_off_c, 4, 61, 0
5, 510000, Note_on_c, 4, 60, 57
5, 510240, Note_off_c, 4, 60, 0
5, 510240, Note_on_c, 4, 61, 56
5, 510480, Note_off_c, 4, 61, 0
5, 510480, Note_on_c, 4, 60, 56
5, 510720, Note_off_c, 4, 60, 0
5, 510720, Note_on_c, 4, 61, 56
5, 510960, Note_off_c, 4, 61, 0
5, 510960, Note_on_c, 4, 62, 55
5, 511200, Note_off_c, 4, 62, 0
5, 511200, Note_on_c, 4, 64, 55
5, 511440, Note_off_c, 4, 64, 0
5, 511440, Note_on_c, 4, 63, 54
5, 511680, Note_off_c, 4, 63, 0
5, 511680, Note_on_c, 4, 64, 54
5, 511920, Note_off_c, 4, 64, 0
5, 511920, Note_on_c, 4, 63, 53
5, 512160, Note_off_c, 4, 63, 0
5, 512160, Note_on_c, 4, 64, 53
5, 512400, Note_off_c, 4, 64, 0
5, 512400, Note_on_c, 4, 61, 53
5, 512592, Note_off_c, 4, 61, 0
5, 512640, Note_on_c, 4, 62, 52
5, 512880, Note_off_c, 4, 62, 0
5, 512880, Note_on_c, 4, 61, 52
5, 513120, Note_off_c, 4, 61, 0
5, 513120, Note_on_c, 4, 62, 51
5, 513360, Note_off_c, 4, 62, 0
5, 513360, Note_on_c, 4, 61, 51
5, 513600, Note_off_c, 4, 61, 0
5, 513600, Note_on_c, 4, 62, 50
5, 513840, Note_off_c, 4, 62, 0
5, 513840, Note_on_c, 4, 64, 50
5, 514080, Note_off_c, 4, 64, 0
5, 514080, Note_on_c, 4, 66, 50
5, 514320, Note_off_c, 4, 66, 0
5, 514320, Note_on_c, 4, 65, 49
5, 514560, Note_off_c, 4, 65, 0
5, 514560, Note_on_c, 4, 66, 49
5, 514800, Note_off_c, 4, 66, 0
5, 514800, Note_on_c, 4, 65, 48
5, 515040, Note_off_c, 4, 65, 0
5, 515040, Note_on_c, 4, 66, 48
5, 515250, Note_off_c, 4, 66, 0
5, 515640, Note_on_c, 4, 55, 81
5, 515736, Note_off_c, 4, 55, 0
5, 515880, Note_on_c, 4, 57, 80
5, 515976, Note_off_c, 4, 57, 0
5, 516120, Note_on_c, 4, 59, 80
5, 516216, Note_off_c, 4, 59, 0
5, 516360, Note_on_c, 4, 61, 79
5, 516456, Note_off_c, 4, 61, 0
5, 516600, Note_on_c, 4, 62, 79
5, 516696, Note_off_c, 4, 62, 0
5, 516840, Note_on_c, 4, 66, 78
5, 516936, Note_off_c, 4, 66, 0
5, 517080, Note_on_c, 4, 67, 78
5, 517176, Note_off_c, 4, 67, 0
5, 517320, Note_on_c, 4, 69, 77
5, 517416, Note_off_c, 4, 69, 0
5, 517560, Note_on_c, 4, 71, 77
5, 517656, Note_off_c, 4, 71, 0
5, 517800, Note_on_c, 4, 73, 76
5, 517896, Note_off_c, 4, 73, 0
5, 518040, Note_on_c, 4, 74, 76
5, 518136, Note_off_c, 4, 74, 0
5, 518280, Note_on_c, 4, 73, 75
5, 518376, Note_off_c, 4, 73, 0
5, 518520, Note_on_c, 4, 71, 75
5, 518616, Note_off_c, 4, 71, 0
5, 518760, Note_on_c, 4, 69, 74
5, 518856, Note_off_c, 4, 69, 0
5, 519000, Note_on_c, 4, 67, 74
5, 519096, Note_off_c, 4, 67, 0
5, 519240, Note_on_c, 4, 66, 74
5, 519336, Note_off_c, 4, 66, 0
5, 519480, Note_on_c, 4, 64, 73
5, 519576, Note_off_c, 4, 64, 0
5, 519720, Note_on_c, 4, 62, 73
5, 519816, Note_off_c, 4, 62, 0
5, 519840, Note_on_c, 4, 57, 72
5, 520200, Note_off_c, 4, 57, 0
5, 521280, Note_on_c, 4, 66, 53
5, 521520, Note_off_c, 4, 66, 0
5, 521520, Note_on_c, 4, 65, 52
5, 521760, Note_off_c, 4, 65, 0
5, 521760, Note_on_c, 4, 66, 51
5, 522000, Note_off_c, 4, 66, 0
5, 522000, Note_on_c, 4, 65, 50
5, 522240, Note_off_c, 4, 65, 0
5, 522240, Note_on_c, 4, 66, 48
5, 522480, Note_off_c, 4, 66, 0
5, 522720, Note_on_c, 4, 57, 51
5, 522960, Note_off_c, 4, 57, 0
5, 522960, Note_on_c, 4, 56, 50
5, 523200, Note_off_c, 4, 56, 0
5, 523200, Note_on_c, 4, 57, 48
5, 523440, Note_off_c, 4, 57, 0
5, 523440, Note_on_c, 4, 56, 47
5, 523680, Note_off_c, 4, 56, 0
5, 523680, Note_on_c, 4, 57, 45
5, 523920, Note_off_c, 4, 57, 0
5, 524160, Note_on_c, 4, 59, 49
5, 524316, Note_off_c, 4, 59, 0
5, 524640, Note_on_c, 4, 55, 48
5, 524796, Note_off_c, 4, 55, 0
5, 525120, Note_on_c, 4, 57, 47
5, 525276, Note_off_c, 4, 57, 0
5, 525600, Note_on_c, 4, 50, 46
5, 525960, Note_off_c, 4, 50, 0
5, 527160, Note_on_c, 4, 62, 75
5, 527256, Note_off_c, 4, 62, 0
5, 527400, Note_on_c, 4, 66, 75
5, 527496, Note_off_c, 4, 66, 0
5, 527640, Note_on_c, 4, 64, 74
5, 527736, Note_off_c, 4, 64, 0
5, 527880, Note_on_c, 4, 62, 74
5, 527976, Note_off_c, 4, 62, 0
5, 528120, Note_on_c, 4, 61, 73
5, 528216, Note_off_c, 4, 61, 0
5, 528360, Note_on_c, 4, 59, 73
5, 528456, Note_off_c, 4, 59, 0
5, 528600, Note_on_c, 4, 57, 73
5, 528696, Note_off_c, 4, 57, 0
5, 528840, Note_on_c, 4, 55, 72
5, 528936, Note_off_c, 4, 55, 0
5, 529080, Note_on_c, 4, 54, 72
5, 529176, Note_off_c, 4, 54, 0
5, 529320, Note_on_c, 4, 52, 71
5, 529416, Note_off_c, 4, 52, 0
5, 529560, Note_on_c, 4, 50, 71
5, 529656, Note_off_c, 4, 50, 0
5, 529800, Note_on_c, 4, 49, 70
5, 529896, Note_off_c, 4, 49, 0
5, 529920, Note_on_c, 4, 47, 70
5, 530076, Note_off_c, 4, 47, 0
5, 530400, Note_on_c, 4, 45, 69
5, 530556, Note_off_c, 4, 45, 0
5, 530880, Note_on_c, 4, 45, 68
5, 531036, Note_off_c, 4, 45, 0
5, 532800, Note_on_c, 4, 61, 57
5, 533040, Note_off_c, 4, 61, 0
5, 533040, Note_on_c, 4, 60, 57
5, 533280, Note_off_c, 4, 60, 0
5, 533280, Note_on_c, 4, 61, 56
5, 533520, Note_off_c, 4, 61, 0
5, 533520, Note_on_c, 4, 60, 56
5, 533760, Note_off_c, 4, 60, 0
5, 533760, Note_on_c, 4, 61, 56
5, 534000, Note_off_c, 4, 61, 0
5, 534000, Note_on_c, 4, 62, 55
5, 534240, Note_off_c, 4, 62, 0
5, 534240, Note_on_c, 4, 64, 55
5, 534480, Note_off_c, 4, 64, 0
5, 534480, Note_on_c, 4, 63, 54
5, 534720, Note_off_c, 4, 63, 0
5, 534720, Note_on_c, 4, 64, 54
5, 534960, Note_off_c, 4, 64, 0
5, 534960, Note_on_c, 4, 63, 53
5, 535200, Note_off_c, 4, 63, 0
5, 535200, Note_on_c, 4, 64, 53
5, 535440, Note_off_c, 4, 64, 0
5, 535440, Note_on_c, 4, 61, 53
5, 535632, Note_off_c, 4, 61, 0
5, 535680, Note_on_c, 4, 62, 52
5, 535920, Note_off_c, 4, 62, 0
5, 535920, Note_on_c, 4, 61, 52
5, 536160, Note_off_c, 4, 61, 0
5, 536160, Note_on_c, 4, 62, 51
5, 536400, Note_off_c, 4, 62, 0
5, 536400, Note_on_c, 4, 61, 51
5, 536640, Note_off_c, 4, 61, 0
5, 536640, Note_on_c, 4, 62, 50
5, 536880, Note_off_c, 4, 62, 0
5, 536880, Note_on_c, 4, 64, 50
5, 537120, Note_off_c, 4, 64, 0
5, 537120, Note_on_c, 4, 66, 50
5, 537360, Note_off_c, 4, 66, 0
5, 537360, Note_on_c, 4, 65, 49
5, 537600, Note_off_c, 4, 65, 0
5, 537600, Note_on_c, 4, 66, 49
5, 537840, Note_off_c, 4, 66, 0
5, 537840, Note_on_c, 4, 65, 48
5, 538080, Note_off_c, 4, 65, 0
5, 538080, Note_on_c, 4, 66, 48
5, 538290, Note_off_c, 4, 66, 0
5, 538680, Note_on_c, 4, 55, 81
5, 538776, Note_off_c, 4, 55, 0
5, 538920, Note_on_c, 4, 57, 80
5, 539016, Note_off_c, 4, 57, 0
5, 539160, Note_on_c, 4, 59, 80
5, 539256, Note_off_c, 4, 59, 0
5, 539400, Note_on_c, 4, 61, 79
5, 539496, Note_off_c, 4, 61, 0
5, 539640, Note_on_c, 4, 62, 79
5, 539736, Note_off_c, 4, 62, 0
5, 539880, Note_on_c, 4, 66, 78
5, 539976, Note_off_c, 4, 66, 0
5, 540120, Note_on_c, 4, 67, 78
5, 540216, Note_off_c, 4, 67, 0
5, 540360, Note_on_c, 4, 69, 77
5, 540456, Note_off_c, 4, 69, 0
5, 540600, Note_on_c, 4, 71, 77
5, 540696, Note_off_c, 4, 71, 0
5, 540840, Note_on_c, 4, 73, 76
5, 540936, Note_off_c, 4, 73, 0
5, 541080, Note_on_c, 4, 74, 76
5, 541176, Note_off_c, 4, 74, 0
5, 541320, Note_on_c, 4, 73, 75
5, 541416, Note_off_c, 4, 73, 0
5, 541560, Note_on_c, 4, 71, 75
5, 541656, Note_off_c, 4, 71, 0
5, 541800, Note_on_c, 4, 69, 74
5, 541896, Note_off_c, 4, 69, 0
5, 542040, Note_on_c, 4, 67, 74
5, 542136, Note_off_c, 4, 67, 0
5, 542280, Note_on_c, 4, 66, 74
5, 542376, Note_off_c, 4, 66, 0
5, 542520, Note_on_c, 4, 64, 73
5, 542616, Note_off_c, 4, 64, 0
5, 542760, Note_on_c, 4, 62, 73
5, 542856, Note_off_c, 4, 62, 0
5, 542880, Note_on_c, 4, 57, 72
5, 543240, Note_off_c, 4, 57, 0
5, 544320, Note_on_c, 4, 66, 53
5, 544560, Note_off_c, 4, 66, 0
5, 544560, Note_on_c, 4, 65, 52
5, 544800, Note_off_c, 4, 65, 0
5, 544800, Note_on_c, 4, 66, 51
5, 545040, Note_off_c, 4, 66, 0
5, 545040, Note_on_c, 4, 65, 50
5, 545280, Note_off_c, 4, 65, 0
5, 545280, Note_on_c, 4, 66, 48
5, 545520, Note_off_c, 4, 66, 0
5, 545760, Note_on_c, 4, 57, 51
5, 546000, Note_off_c, 4, 57, 0
5, 546000, Note_on_c, 4, 56, 50
5, 546240, Note_off_c, 4, 56, 0
5, 546240, Note_on_c, 4, 57, 48
5, 546480, Note_off_c, 4, 57, 0
5, 546480, Note_on_c, 4, 56, 47
5, 546720, Note_off_c, 4, 56, 0
5, 546720, Note_on_c, 4, 57, 45
5, 546960, Note_off_c, 4, 57, 0
5, 547200, Note_on_c, 4, 59, 49
5, 547356, Note_off_c, 4, 59, 0
5, 547680, Note_on_c, 4, 55, 48
5, 547836, Note_off_c, 4, 55, 0
5, 548160, Note_on_c, 4, 57, 47
5, 548316, Note_off_c, 4, 57, 0
5, 548640, Note_on_c, 4, 50, 46
5, 549000, Note_off_c, 4, 50, 0
5, 550200, Note_on_c, 4, 62, 75
5, 550296, Note_off_c, 4, 62, 0
5, 550440, Note_on_c, 4, 66, 75
5, 550536, Note_off_c, 4, 66, 0
5, 550680, Note_on_c, 4, 64, 74
5, 550776, Note_off_c, 4, 64, 0
5, 550920, Note_on_c, 4, 62, 74
5, 551016, Note_off_c, 4, 62, 0
5, 551160, Note_on_c, 4, 61, 73
5, 551256, Note_off_c, 4, 61, 0
5, 551400, Note_on_c, 4, 59, 73
5, 551496, Note_off_c, 4, 59, 0
5, 551640, Note_on_c, 4, 57, 73
5, 551736, Note_off_c, 4, 57, 0
5, 551880, Note_on_c, 4, 55, 72
5, 551976, Note_off_c, 4, 55, 0
5, 552120, Note_on_c, 4, 54, 72
5, 552216, Note_off_c, 4, 54, 0
5, 552360, Note_on_c, 4, 52, 71
5, 552456, Note_off_c, 4, 52, 0
5, 552600, Note_on_c, 4, 50, 71
5, 552696, Note_off_c, 4, 50, 0
5, 552840, Note_on_c, 4, 49, 70
5, 552936, Note_off_c, 4, 49, 0
5, 552960, Note_on_c, 4, 47, 70
5, 553116, Note_off_c, 4, 47, 0
5, 553440, Note_on_c, 4, 45, 69
5, 553596, Note_off_c, 4, 45, 0
5, 553920, Note_on_c, 4, 45, 68
5, 554076, Note_off_c, 4, 45, 0
5, 555840, Note_on_c, 4, 66, 51
5, 556200, Note_off_c, 4, 66, 0
5, 558720, Note_on_c, 4, 69, 47
5, 559080, Note_off_c, 4, 69, 0
5, 561600, Note_on_c, 4, 66, 42
5, 562320, Note_off_c, 4, 66, 0
5, 562560, Note_on_c, 4, 66, 41
5, 562920, Note_off_c, 4, 66, 0
5, 563040, Note_on_c, 4, 66, 40
5, 563400, Note_off_c, 4, 66, 0
5, 563520, Note_on_c, 4, 67, 39
5, 563880, Note_off_c, 4, 67, 0
5, 564000, Note_on_c, 4, 67, 39
5, 564360, Note_off_c, 4, 67, 0
5, 564480, Note_on_c, 4, 66, 40
5, 564840, Note_off_c, 4, 66, 0
5, 567840, Note_on_c, 4, 66, 51
5, 568200, Note_off_c, 4, 66, 0
5, 568320, Note_on_c, 4, 66, 50
5, 568680, Note_off_c, 4, 66, 0
5, 570720, Note_on_c, 4, 69, 47
5, 571080, Note_off_c, 4, 69, 0
5, 571200, Note_on_c, 4, 69, 47
5, 571560, Note_off_c, 4, 69, 0
5, 573120, Note_on_c, 4, 66, 45
5, 573840, Note_off_c, 4, 66, 0
5, 574080, Note_on_c, 4, 66, 43
5, 574440, Note_off_c, 4, 66, 0
5, 574560, Note_on_c, 4, 66, 43
5, 574920, Note_off_c, 4, 66, 0
5, 575040, Note_on_c, 4, 67, 42
5, 575400, Note_off_c, 4, 67, 0
5, 575520, Note_on_c, 4, 67, 42
5, 575880, Note_off_c, 4, 67, 0
5, 576000, Note_on_c, 4, 67, 41
5, 576960, Note_off_c, 4, 67, 0
5, 576960, Note_on_c, 4, 66, 35
5, 577320, Note_off_c, 4, 66, 0
5, 579360, Note_on_c, 4, 61, 63
5, 579360, Note_on_c, 4, 57, 63
5, 579720, Note_off_c, 4, 57, 0
5, 579720, Note_off_c, 4, 61, 0
5, 579840, Note_on_c, 4, 57, 62
5, 579840, Note_on_c, 4, 61, 62
5, 580200, Note_off_c, 4, 61, 0
5, 580200, Note_off_c, 4, 57, 0
5, 580320, Note_on_c, 4, 57, 62
5, 580320, Note_on_c, 4, 61, 62
5, 580680, Note_off_c, 4, 61, 0
5, 580680, Note_off_c, 4, 57, 0
5, 580800, Note_on_c, 4, 57, 61
5, 580800, Note_on_c, 4, 62, 61
5, 581160, Note_off_c, 4, 62, 0
5, 581160, Note_off_c, 4, 57, 0
5, 581280, Note_on_c, 4, 57, 60
5, 581280, Note_on_c, 4, 62, 60
5, 581640, Note_off_c, 4, 62, 0
5, 581640, Note_off_c, 4, 57, 0
5, 581760, Note_on_c, 4, 64, 60
5, 581760, Note_on_c, 4, 57, 60
5, 582120, Note_off_c, 4, 57, 0
5, 582120, Note_off_c, 4, 64, 0
5, 585120, Note_on_c, 4, 62, 65
5, 585480, Note_off_c, 4, 62, 0
5, 585600, Note_on_c, 4, 62, 64
5, 585600, Note_on_c, 4, 66, 64
5, 585960, Note_off_c, 4, 66, 0
5, 585960, Note_off_c, 4, 62, 0
5, 586080, Note_on_c, 4, 62, 63
5, 586080, Note_on_c, 4, 66, 63
5, 586440, Note_off_c, 4, 66, 0
5, 586440, Note_off_c, 4, 62, 0
5, 586560, Note_on_c, 4, 64, 63
5, 586560, Note_on_c, 4, 67, 63
5, 586560, Note_on_c, 4, 62, 63
5, 586920, Note_off_c, 4, 62, 0
5, 586920, Note_off_c, 4, 67, 0
5, 586920, Note_off_c, 4, 64, 0
5, 587040, Note_on_c, 4, 64, 62
5, 587040, Note_on_c, 4, 62, 62
5, 587040, Note_on_c, 4, 67, 62
5, 587400, Note_off_c, 4, 67, 0
5, 587400, Note_off_c, 4, 62, 0
5, 587400, Note_off_c, 4, 64, 0
5, 587520, Note_on_c, 4, 62, 61
5, 587520, Note_on_c, 4, 69, 61
5, 587520, Note_on_c, 4, 66, 61
5, 587880, Note_off_c, 4, 66, 0
5, 587880, Note_off_c, 4, 69, 0
5, 587880, Note_off_c, 4, 62, 0
5, 590400, Control_c, 4, 64, 0
5, 590880, Note_on_c, 4, 69, 66
5, 590880, Note_on_c, 4, 66, 66
5, 591240, Note_off_c, 4, 66, 0
5, 591240, Note_off_c, 4, 69, 0
5, 591360, Note_on_c, 4, 66, 66
5, 591360, Note_on_c, 4, 69, 66
5, 591720, Note_off_c, 4, 69, 0
5, 591720, Note_off_c, 4, 66, 0
5, 591840, Note_on_c, 4, 66, 66
5, 591840, Note_on_c, 4, 69, 66
5, 592200, Note_off_c, 4, 69, 0
5, 592200, Note_off_c, 4, 66, 0
5, 592320, Note_on_c, 4, 71, 67
5, 592320, Note_on_c, 4, 67, 67
5, 592680, Note_off_c, 4, 67, 0
5, 592680, Note_off_c, 4, 71, 0
5, 592800, Note_on_c, 4, 71, 67
5, 592800, Note_on_c, 4, 67, 67
5, 593160, Note_off_c, 4, 67, 0
5, 593160, Note_off_c, 4, 71, 0
5, 593760, Note_on_c, 4, 69, 63
5, 593760, Note_on_c, 4, 66, 63
5, 594120, Note_off_c, 4, 66, 0
5, 594120, Note_off_c, 4, 69, 0
5, 594240, Note_on_c, 4, 66, 62
5, 594240, Note_on_c, 4, 69, 62
5, 594600, Note_off_c, 4, 69, 0
5, 594600, Note_off_c, 4, 66, 0
5, 594720, Note_on_c, 4, 66, 64
5, 594720, Note_on_c, 4, 69, 64
5, 595080, Note_off_c, 4, 69, 0
5, 595080, Note_off_c, 4, 66, 0
5, 595200, Note_on_c, 4, 71, 65
5, 595200, Note_on_c, 4, 67, 65
5, 595560, Note_off_c, 4, 67, 0
5, 595560, Note_off_c, 4, 71, 0
5, 595680, Note_on_c, 4, 71, 66
5, 595680, Note_on_c, 4, 67, 66
5, 596040, Note_off_c, 4, 67, 0
5, 596040, Note_off_c, 4, 71, 0
5, 596160, Note_on_c, 4, 66, 67
5, 596160, Note_on_c, 4, 69, 67
5, 596520, Note_off_c, 4, 69, 0
5, 596520, Note_off_c, 4, 66, 0
5, 597120, Note_on_c, 4, 69, 70
5, 597480, Note_off_c, 4, 69, 0
5, 598080, Control_c, 4, 64, 0
5, 598080, Note_on_c, 4, 69, 72
5, 598440, Note_off_c, 4, 69, 0
5, 599040, Note_on_c, 4, 66, 77
5, 600720, Note_on_c, 4, 62, 60
5, 600735, Note_off_c, 4, 66, 0
5, 600960, Note_off_c, 4, 62, 0
5, 600960, Note_on_c, 4, 61, 56
5, 601320, Note_off_c, 4, 61, 0
5, 602400, Note_on_c, 4, 66, 53
5, 602760, Note_off_c, 4, 66, 0
5, 602880, Note_on_c, 4, 66, 53
5, 603240, Note_off_c, 4, 66, 0
5, 605280, Note_on_c, 4, 69, 49
5, 605640, Note_off_c, 4, 69, 0
5, 605760, Control_c, 4, 64, 0
5, 605760, Note_on_c, 4, 69, 48
5, 606120, Note_off_c, 4, 69, 0
5, 607680, Note_on_c, 4, 66, 46
5, 608400, Note_off_c, 4, 66, 0
5, 608640, Note_on_c, 4, 66, 44
5, 609000, Note_off_c, 4, 66, 0
5, 609120, Note_on_c, 4, 66, 44
5, 609480, Note_off_c, 4, 66, 0
5, 609600, Note_on_c, 4, 67, 43
5, 609960, Note_off_c, 4, 67, 0
5, 610080, Note_on_c, 4, 67, 42
5, 610440, Note_off_c, 4, 67, 0
5, 610560, Note_on_c, 4, 66, 44
5, 611520, Note_off_c, 4, 66, 0
5, 620160, Note_on_c, 4, 64, 73
5, 620160, Note_on_c, 4, 67, 73
5, 621847, Note_off_c, 4, 67, 0
5, 621847, Note_off_c, 4, 64, 0
5, 624960, Note_on_c, 4, 66, 52
5, 625116, Note_off_c, 4, 66, 0
5, 625200, Note_on_c, 4, 66, 55
5, 625440, Note_off_c, 4, 66, 0
5, 625440, Note_on_c, 4, 67, 53
5, 625680, Note_off_c, 4, 67, 0
5, 625680, Note_on_c, 4, 64, 50
5, 625836, Note_off_c, 4, 64, 0
5, 625920, Note_on_c, 4, 69, 48
5, 626076, Note_off_c, 4, 69, 0
5, 626160, Note_on_c, 4, 69, 51
5, 626400, Note_off_c, 4, 69, 0
5, 626400, Note_on_c, 4, 71, 49
5, 626640, Note_off_c, 4, 71, 0
5, 626640, Note_on_c, 4, 67, 47
5, 626796, Note_off_c, 4, 67, 0
5, 626880, Note_on_c, 4, 66, 44
5, 627036, Note_off_c, 4, 66, 0
5, 627120, Note_on_c, 4, 66, 44
5, 627276, Note_off_c, 4, 66, 0
5, 627360, Note_on_c, 4, 61, 44
5, 627516, Note_off_c, 4, 61, 0
5, 627600, Note_on_c, 4, 61, 43
5, 627756, Note_off_c, 4, 61, 0
5, 628920, Note_on_c, 4, 62, 77
5, 629040, Note_off_c, 4, 62, 0
5, 629160, Note_on_c, 4, 62, 76
5, 629280, Note_off_c, 4, 62, 0
5, 629400, Note_on_c, 4, 62, 76
5, 629520, Note_off_c, 4, 62, 0
5, 629640, Note_on_c, 4, 62, 75
5, 629736, Note_off_c, 4, 62, 0
5, 629880, Note_on_c, 4, 62, 75
5, 630000, Note_off_c, 4, 62, 0
5, 630120, Note_on_c, 4, 62, 74
5, 630240, Note_off_c, 4, 62, 0
5, 630360, Note_on_c, 4, 62, 73
5, 630480, Note_off_c, 4, 62, 0
5, 630600, Note_on_c, 4, 62, 73
5, 630696, Note_off_c, 4, 62, 0
5, 630840, Note_on_c, 4, 66, 72
5, 630936, Note_off_c, 4, 66, 0
5, 630960, Note_on_c, 4, 62, 72
5, 631056, Note_off_c, 4, 62, 0
5, 631080, Note_on_c, 4, 66, 71
5, 631176, Note_off_c, 4, 66, 0
5, 631320, Note_on_c, 4, 67, 71
5, 631416, Note_off_c, 4, 67, 0
5, 631440, Note_on_c, 4, 61, 70
5, 631536, Note_off_c, 4, 61, 0
5, 631560, Note_on_c, 4, 67, 70
5, 631656, Note_off_c, 4, 67, 0
5, 631680, Note_on_c, 4, 62, 70
5, 631680, Note_on_c, 4, 66, 70
5, 631836, Note_off_c, 4, 66, 0
5, 631836, Note_off_c, 4, 62, 0
5, 632640, Note_on_c, 4, 66, 52
5, 632796, Note_off_c, 4, 66, 0
5, 632880, Note_on_c, 4, 66, 55
5, 633120, Note_off_c, 4, 66, 0
5, 633120, Note_on_c, 4, 67, 53
5, 633360, Note_off_c, 4, 67, 0
5, 633360, Note_on_c, 4, 64, 50
5, 633516, Note_off_c, 4, 64, 0
5, 633600, Note_on_c, 4, 69, 48
5, 633756, Note_off_c, 4, 69, 0
5, 633840, Note_on_c, 4, 69, 51
5, 634080, Note_off_c, 4, 69, 0
5, 634080, Note_on_c, 4, 71, 49
5, 634320, Note_off_c, 4, 71, 0
5, 634320, Note_on_c, 4, 67, 47
5, 634476, Note_off_c, 4, 67, 0
5, 634560, Note_on_c, 4, 66, 44
5, 634716, Note_off_c, 4, 66, 0
5, 634800, Note_on_c, 4, 66, 44
5, 634956, Note_off_c, 4, 66, 0
5, 635040, Note_on_c, 4, 61, 44
5, 635196, Note_off_c, 4, 61, 0
5, 635280, Note_on_c, 4, 61, 43
5, 635436, Note_off_c, 4, 61, 0
5, 636600, Note_on_c, 4, 62, 77
5, 636720, Note_off_c, 4, 62, 0
5, 636840, Note_on_c, 4, 62, 76
5, 636960, Note_off_c, 4, 62, 0
5, 637080, Note_on_c, 4, 62, 76
5, 637200, Note_off_c, 4, 62, 0
5, 637320, Note_on_c, 4, 62, 75
5, 637416, Note_off_c, 4, 62, 0
5, 637560, Note_on_c, 4, 62, 75
5, 637680, Note_off_c, 4, 62, 0
5, 637800, Note_on_c, 4, 62, 74
5, 637920, Note_off_c, 4, 62, 0
5, 638040, Note_on_c, 4, 62, 73
5, 638160, Note_off_c, 4, 62, 0
5, 638280, Note_on_c, 4, 62, 73
5, 638376, Note_off_c, 4, 62, 0
5, 638520, Note_on_c, 4, 66, 72
5, 638616, Note_off_c, 4, 66, 0
5, 638640, Note_on_c, 4, 62, 72
5, 638736, Note_off_c, 4, 62, 0
5, 638760, Note_on_c, 4, 66, 71
5, 638856, Note_off_c, 4, 66, 0
5, 639000, Note_on_c, 4, 67, 71
5, 639096, Note_off_c, 4, 67, 0
5, 639120, Note_on_c, 4, 61, 70
5, 639216, Note_off_c, 4, 61, 0
5, 639240, Note_on_c, 4, 67, 70
5, 639336, Note_off_c, 4, 67, 0
5, 639360, Note_on_c, 4, 66, 70
5, 639360, Note_on_c, 4, 62, 70
5, 639516, Note_off_c, 4, 62, 0
5, 639516, Note_off_c, 4, 66, 0
5, 642240, Note_on_c, 4, 66, 50
5, 642396, Note_off_c, 4, 66, 0
5, 642480, Note_on_c, 4, 66, 47
5, 642636, Note_off_c, 4, 66, 0
5, 642720, Note_on_c, 4, 67, 45
5, 642876, Note_off_c, 4, 67, 0
5, 642960, Note_on_c, 4, 67, 43
5, 643116, Note_off_c, 4, 67, 0
5, 643200, Control_c, 4, 64, 0
5, 643200, Note_on_c, 4, 69, 41
5, 643560, Note_off_c, 4, 69, 0
5, 645120, Note_on_c, 4, 73, 81
5, 645780, Note_off_c, 4, 73, 0
5, 645840, Note_on_c, 4, 74, 73
5, 646032, Note_off_c, 4, 74, 0
5, 646080, Note_on_c, 4, 74, 70
5, 646272, Note_off_c, 4, 74, 0
5, 646320, Note_on_c, 4, 73, 67
5, 646512, Note_off_c, 4, 73, 0
5, 646560, Note_on_c, 4, 74, 64
5, 646752, Note_off_c, 4, 74, 0
5, 646800, Note_on_c, 4, 74, 61
5, 646992, Note_off_c, 4, 74, 0
5, 647040, Note_on_c, 4, 73, 59
5, 647400, Note_off_c, 4, 73, 0
5, 648000, Note_on_c, 4, 66, 55
5, 648156, Note_off_c, 4, 66, 0
5, 648240, Note_on_c, 4, 66, 57
5, 648480, Note_off_c, 4, 66, 0
5, 648480, Note_on_c, 4, 67, 55
5, 648720, Note_off_c, 4, 67, 0
5, 648720, Note_on_c, 4, 64, 54
5, 648876, Note_off_c, 4, 64, 0
5, 648960, Note_on_c, 4, 69, 52
5, 649116, Note_off_c, 4, 69, 0
5, 649200, Note_on_c, 4, 69, 55
5, 649440, Note_off_c, 4, 69, 0
5, 649440, Note_on_c, 4, 71, 54
5, 649680, Note_off_c, 4, 71, 0
5, 649680, Note_on_c, 4, 67, 52
5, 649836, Note_off_c, 4, 67, 0
5, 649920, Note_on_c, 4, 66, 50
5, 650076, Note_off_c, 4, 66, 0
5, 650160, Note_on_c, 4, 66, 50
5, 650316, Note_off_c, 4, 66, 0
5, 650400, Note_on_c, 4, 61, 49
5, 650556, Note_off_c, 4, 61, 0
5, 650640, Note_on_c, 4, 61, 48
5, 650796, Note_off_c, 4, 61, 0
5, 651960, Note_on_c, 4, 62, 83
5, 652080, Note_off_c, 4, 62, 0
5, 652200, Note_on_c, 4, 62, 83
5, 652320, Note_off_c, 4, 62, 0
5, 652440, Note_on_c, 4, 62, 82
5, 652560, Note_off_c, 4, 62, 0
5, 652680, Note_on_c, 4, 62, 82
5, 652776, Note_off_c, 4, 62, 0
5, 652920, Note_on_c, 4, 62, 81
5, 653040, Note_off_c, 4, 62, 0
5, 653160, Note_on_c, 4, 62, 81
5, 653280, Note_off_c, 4, 62, 0
5, 653400, Note_on_c, 4, 62, 80
5, 653520, Note_off_c, 4, 62, 0
5, 653640, Note_on_c, 4, 62, 80
5, 653736, Note_off_c, 4, 62, 0
5, 653880, Note_on_c, 4, 66, 79
5, 653976, Note_off_c, 4, 66, 0
5, 654000, Note_on_c, 4, 62, 79
5, 654096, Note_off_c, 4, 62, 0
5, 654120, Note_on_c, 4, 66, 79
5, 654216, Note_off_c, 4, 66, 0
5, 654360, Note_on_c, 4, 67, 78
5, 654456, Note_off_c, 4, 67, 0
5, 654480, Note_on_c, 4, 61, 78
5, 654576, Note_off_c, 4, 61, 0
5, 654600, Note_on_c, 4, 67, 78
5, 654696, Note_off_c, 4, 67, 0
5, 654720, Note_on_c, 4, 66, 78
5, 654720, Note_on_c, 4, 62, 78
5, 654876, Note_off_c, 4, 62, 0
5, 654876, Note_off_c, 4, 66, 0
5, 657600, Note_on_c, 4, 66, 50
5, 657756, Note_off_c, 4, 66, 0
5, 657840, Note_on_c, 4, 66, 47
5, 657996, Note_off_c, 4, 66, 0
5, 658080, Note_on_c, 4, 67, 45
5, 658236, Note_off_c, 4, 67, 0
5, 658320, Note_on_c, 4, 67, 43
5, 658476, Note_off_c, 4, 67, 0
5, 658560, Control_c, 4, 64, 0
5, 658560, Note_on_c, 4, 69, 41
5, 658920, Note_off_c, 4, 69, 0
5, 660480, Note_on_c, 4, 73, 81
5, 661140, Note_off_c, 4, 73, 0
5, 661200, Note_on_c, 4, 74, 73
5, 661392, Note_off_c, 4, 74, 0
5, 661440, Note_on_c, 4, 74, 70
5, 661632, Note_off_c, 4, 74, 0
5, 661680, Note_on_c, 4, 73, 67
5, 661872, Note_off_c, 4, 73, 0
5, 661920, Note_on_c, 4, 74, 64
5, 662112, Note_off_c, 4, 74, 0
5, 662160, Note_on_c, 4, 74, 61
5, 662352, Note_off_c, 4, 74, 0
5, 662400, Note_on_c, 4, 73, 59
5, 662760, Note_off_c, 4, 73, 0
5, 663360, Note_on_c, 4, 66, 55
5, 663516, Note_off_c, 4, 66, 0
5, 663600, Note_on_c, 4, 66, 57
5, 663840, Note_off_c, 4, 66, 0
5, 663840, Note_on_c, 4, 67, 55
5, 664080, Note_off_c, 4, 67, 0
5, 664080, Note_on_c, 4, 64, 54
5, 664236, Note_off_c, 4, 64, 0
5, 664320, Note_on_c, 4, 69, 52
5, 664476, Note_off_c, 4, 69, 0
5, 664560, Note_on_c, 4, 69, 55
5, 664800, Note_off_c, 4, 69, 0
5, 664800, Note_on_c, 4, 71, 54
5, 665040, Note_off_c, 4, 71, 0
5, 665040, Note_on_c, 4, 67, 52
5, 665196, Note_off_c, 4, 67, 0
5, 665280, Note_on_c, 4, 66, 50
5, 665436, Note_off_c, 4, 66, 0
5, 665520, Note_on_c, 4, 66, 50
5, 665676, Note_off_c, 4, 66, 0
5, 665760, Note_on_c, 4, 61, 49
5, 665916, Note_off_c, 4, 61, 0
5, 666000, Note_on_c, 4, 61, 48
5, 666156, Note_off_c, 4, 61, 0
5, 667320, Note_on_c, 4, 62, 83
5, 667440, Note_off_c, 4, 62, 0
5, 667560, Note_on_c, 4, 62, 83
5, 667680, Note_off_c, 4, 62, 0
5, 667800, Note_on_c, 4, 62, 82
5, 667920, Note_off_c, 4, 62, 0
5, 668040, Note_on_c, 4, 62, 82
5, 668136, Note_off_c, 4, 62, 0
5, 668280, Note_on_c, 4, 62, 81
5, 668400, Note_off_c, 4, 62, 0
5, 668520, Note_on_c, 4, 62, 81
5, 668640, Note_off_c, 4, 62, 0
5, 668760, Note_on_c, 4, 62, 80
5, 668880, Note_off_c, 4, 62, 0
5, 669000, Note_on_c, 4, 62, 80
5, 669096, Note_off_c, 4, 62, 0
5, 669240, Note_on_c, 4, 66, 79
5, 669336, Note_off_c, 4, 66, 0
5, 669360, Note_on_c, 4, 62, 79
5, 669456, Note_off_c, 4, 62, 0
5, 669480, Note_on_c, 4, 66, 79
5, 669576, Note_off_c, 4, 66, 0
5, 669720, Note_on_c, 4, 67, 78
5, 669816, Note_off_c, 4, 67, 0
5, 669840, Note_on_c, 4, 61, 78
5, 669936, Note_off_c, 4, 61, 0
5, 669960, Note_on_c, 4, 67, 78
5, 670056, Note_off_c, 4, 67, 0
5, 670080, Note_on_c, 4, 62, 78
5, 670080, Note_on_c, 4, 66, 78
5, 670236, Note_off_c, 4, 66, 0
5, 670236, Note_off_c, 4, 62, 0
5, 671040, Note_on_c, 4, 62, 47
5, 671196, Note_off_c, 4, 62, 0
5, 671280, Note_on_c, 4, 62, 45
5, 671436, Note_off_c, 4, 62, 0
5, 671520, Note_on_c, 4, 62, 43
5, 671676, Note_off_c, 4, 62, 0
5, 671760, Note_on_c, 4, 62, 41
5, 671916, Note_off_c, 4, 62, 0
5, 672000, Note_on_c, 4, 62, 39
5, 672360, Note_off_c, 4, 62, 0
5, 672960, Note_on_c, 4, 62, 39
5, 673116, Note_off_c, 4, 62, 0
5, 673200, Note_on_c, 4, 62, 38
5, 673356, Note_off_c, 4, 62, 0
5, 673440, Note_on_c, 4, 62, 36
5, 673596, Note_off_c, 4, 62, 0
5, 673680, Note_on_c, 4, 62, 34
5, 673836, Note_off_c, 4, 62, 0
5, 673920, Note_on_c, 4, 62, 32
5, 674280, Note_off_c, 4, 62, 0
5, 674880, Note_on_c, 4, 62, 58
5, 674880, Note_on_c, 4, 67, 58
5, 675840, Note_off_c, 4, 67, 0
5, 675840, Note_off_c, 4, 62, 0
5, 675840, Note_on_c, 4, 61, 64
5, 675840, Note_on_c, 4, 67, 64
5, 676200, Note_off_c, 4, 67, 0
5, 676200, Note_off_c, 4, 61, 0
5, 706560, Note_on_c, 4, 66, 48
5, 706920, Note_off_c, 4, 66, 0
5, 708000, Note_on_c, 4, 69, 46
5, 708360, Note_off_c, 4, 69, 0
5, 708360, End_track
6, 0, Start_track
6, 0, Title_t, "No Name"
6, 0, Control_c, 5, 0, 0
6, 0, Control_c, 5, 32, 0
6, 0, Program_c, 5, 0
6, 0, Control_c, 5, 64, 0
6, 0, Control_c, 5, 64, 0
6, 0, Control_c, 5, 7, 125
6, 0, Control_c, 5, 1, 0
6, 0, Pitch_bend_c, 5, 8192
6, 0, Control_c, 5, 93, 28
6, 0, Control_c, 5, 91, 100
6, 0, Control_c, 5, 10, 55
6, 1440, Control_c, 5, 64, 0
6, 1440, Note_on_c, 5, 62, 57
6, 2850, Note_off_c, 5, 62, 0
6, 2880, Note_on_c, 5, 62, 56
6, 4290, Note_off_c, 5, 62, 0
6, 4320, Note_on_c, 5, 57, 54
6, 5280, Note_off_c, 5, 57, 0
6, 5280, Note_on_c, 5, 61, 53
6, 5737, Note_off_c, 5, 61, 0
6, 5760, Note_on_c, 5, 62, 52
6, 6120, Note_off_c, 5, 62, 0
6, 7200, Note_on_c, 5, 62, 50
6, 8610, Note_off_c, 5, 62, 0
6, 8640, Note_on_c, 5, 62, 48
6, 10050, Note_off_c, 5, 62, 0
6, 10080, Note_on_c, 5, 57, 47
6, 11040, Note_off_c, 5, 57, 0
6, 11040, Note_on_c, 5, 61, 45
6, 11497, Note_off_c, 5, 61, 0
6, 11520, Note_on_c, 5, 62, 45
6, 11880, Note_off_c, 5, 62, 0
6, 12000, Note_on_c, 5, 57, 42
6, 12360, Note_off_c, 5, 57, 0
6, 12480, Note_on_c, 5, 50, 39
6, 12840, Note_off_c, 5, 50, 0
6, 12960, Control_c, 5, 64, 0
6, 12960, Note_on_c, 5, 62, 57
6, 14370, Note_off_c, 5, 62, 0
6, 14400, Note_on_c, 5, 62, 56
6, 15810, Note_off_c, 5, 62, 0
6, 15840, Note_on_c, 5, 57, 54
6, 16800, Note_off_c, 5, 57, 0
6, 16800, Note_on_c, 5, 61, 53
6, 17257, Note_off_c, 5, 61, 0
6, 17280, Note_on_c, 5, 62, 52
6, 17640, Note_off_c, 5, 62, 0
6, 18720, Note_on_c, 5, 62, 50
6, 20130, Note_off_c, 5, 62, 0
6, 20160, Note_on_c, 5, 62, 48
6, 21570, Note_off_c, 5, 62, 0
6, 21600, Note_on_c, 5, 57, 47
6, 22560, Note_off_c, 5, 57, 0
6, 22560, Note_on_c, 5, 61, 45
6, 23017, Note_off_c, 5, 61, 0
6, 23040, Note_on_c, 5, 62, 45
6, 23400, Note_off_c, 5, 62, 0
6, 23520, Note_on_c, 5, 57, 42
6, 23880, Note_off_c, 5, 57, 0
6, 24000, Note_on_c, 5, 50, 39
6, 24360, Note_off_c, 5, 50, 0
6, 24480, Control_c, 5, 64, 0
6, 24480, Note_on_c, 5, 45, 70
6, 24480, Note_on_c, 5, 57, 70
6, 24840, Note_off_c, 5, 57, 0
6, 24840, Note_off_c, 5, 45, 0
6, 26160, Note_on_c, 5, 45, 74
6, 26400, Note_off_c, 5, 45, 0
6, 26400, Note_on_c, 5, 49, 73
6, 26640, Note_off_c, 5, 49, 0
6, 26640, Note_on_c, 5, 52, 71
6, 26880, Note_off_c, 5, 52, 0
6, 26880, Note_on_c, 5, 57, 70
6, 27120, Note_off_c, 5, 57, 0
6, 27120, Note_on_c, 5, 45, 68
6, 27360, Note_off_c, 5, 45, 0
6, 27360, Note_on_c, 5, 50, 66
6, 27720, Note_off_c, 5, 50, 0
6, 29040, Note_on_c, 5, 50, 68
6, 29280, Note_off_c, 5, 50, 0
6, 29280, Note_on_c, 5, 54, 67
6, 29520, Note_off_c, 5, 54, 0
6, 29520, Note_on_c, 5, 57, 66
6, 29760, Note_off_c, 5, 57, 0
6, 29760, Note_on_c, 5, 62, 65
6, 30000, Note_off_c, 5, 62, 0
6, 30000, Note_on_c, 5, 50, 64
6, 30192, Note_off_c, 5, 50, 0
6, 30240, Note_on_c, 5, 62, 66
6, 31650, Note_off_c, 5, 62, 0
6, 31680, Note_on_c, 5, 62, 63
6, 33090, Note_off_c, 5, 62, 0
6, 33120, Note_on_c, 5, 62, 61
6, 33600, Note_off_c, 5, 62, 0
6, 33600, Note_on_c, 5, 61, 60
6, 34080, Note_off_c, 5, 61, 0
6, 34080, Note_on_c, 5, 62, 59
6, 34560, Note_off_c, 5, 62, 0
6, 34560, Note_on_c, 5, 57, 58
6, 34920, Note_off_c, 5, 57, 0
6, 36000, Control_c, 5, 64, 0
6, 36000, Note_on_c, 5, 62, 79
6, 37410, Note_off_c, 5, 62, 0
6, 37440, Note_on_c, 5, 62, 76
6, 38850, Note_off_c, 5, 62, 0
6, 38880, Note_on_c, 5, 57, 72
6, 39840, Note_off_c, 5, 57, 0
6, 39840, Note_on_c, 5, 61, 70
6, 40297, Note_off_c, 5, 61, 0
6, 40320, Note_on_c, 5, 62, 69
6, 40680, Note_off_c, 5, 62, 0
6, 41760, Note_on_c, 5, 62, 63
6, 43170, Note_off_c, 5, 62, 0
6, 43200, Note_on_c, 5, 62, 59
6, 44610, Note_off_c, 5, 62, 0
6, 44640, Note_on_c, 5, 57, 55
6, 45600, Note_off_c, 5, 57, 0
6, 45600, Note_on_c, 5, 61, 52
6, 46057, Note_off_c, 5, 61, 0
6, 46080, Note_on_c, 5, 62, 53
6, 46440, Note_off_c, 5, 62, 0
6, 46560, Note_on_c, 5, 57, 50
6, 46920, Note_off_c, 5, 57, 0
6, 47040, Note_on_c, 5, 50, 47
6, 47400, Note_off_c, 5, 50, 0
6, 47520, Control_c, 5, 64, 0
6, 47520, Note_on_c, 5, 45, 70
6, 47520, Note_on_c, 5, 57, 70
6, 47880, Note_off_c, 5, 57, 0
6, 47880, Note_off_c, 5, 45, 0
6, 49200, Note_on_c, 5, 45, 74
6, 49440, Note_off_c, 5, 45, 0
6, 49440, Note_on_c, 5, 49, 73
6, 49680, Note_off_c, 5, 49, 0
6, 49680, Note_on_c, 5, 52, 71
6, 49920, Note_off_c, 5, 52, 0
6, 49920, Note_on_c, 5, 57, 70
6, 50160, Note_off_c, 5, 57, 0
6, 50160, Note_on_c, 5, 45, 68
6, 50400, Note_off_c, 5, 45, 0
6, 50400, Note_on_c, 5, 50, 66
6, 50760, Note_off_c, 5, 50, 0
6, 52080, Note_on_c, 5, 50, 68
6, 52320, Note_off_c, 5, 50, 0
6, 52320, Note_on_c, 5, 54, 67
6, 52560, Note_off_c, 5, 54, 0
6, 52560, Note_on_c, 5, 57, 66
6, 52800, Note_off_c, 5, 57, 0
6, 52800, Note_on_c, 5, 62, 65
6, 53040, Note_off_c, 5, 62, 0
6, 53040, Note_on_c, 5, 50, 64
6, 53232, Note_off_c, 5, 50, 0
6, 53280, Note_on_c, 5, 62, 66
6, 54690, Note_off_c, 5, 62, 0
6, 54720, Note_on_c, 5, 62, 63
6, 56130, Note_off_c, 5, 62, 0
6, 56160, Note_on_c, 5, 62, 61
6, 56640, Note_off_c, 5, 62, 0
6, 56640, Note_on_c, 5, 61, 60
6, 57120, Note_off_c, 5, 61, 0
6, 57120, Note_on_c, 5, 62, 59
6, 57600, Note_off_c, 5, 62, 0
6, 57600, Note_on_c, 5, 57, 58
6, 57960, Note_off_c, 5, 57, 0
6, 59040, Control_c, 5, 64, 0
6, 59040, Note_on_c, 5, 62, 79
6, 60450, Note_off_c, 5, 62, 0
6, 60480, Note_on_c, 5, 62, 76
6, 61890, Note_off_c, 5, 62, 0
6, 61920, Note_on_c, 5, 57, 72
6, 62880, Note_off_c, 5, 57, 0
6, 62880, Note_on_c, 5, 61, 70
6, 63337, Note_off_c, 5, 61, 0
6, 63360, Note_on_c, 5, 62, 69
6, 63720, Note_off_c, 5, 62, 0
6, 64800, Note_on_c, 5, 62, 63
6, 66210, Note_off_c, 5, 62, 0
6, 66240, Note_on_c, 5, 62, 59
6, 67650, Note_off_c, 5, 62, 0
6, 67680, Note_on_c, 5, 57, 55
6, 68640, Note_off_c, 5, 57, 0
6, 68640, Note_on_c, 5, 61, 52
6, 69097, Note_off_c, 5, 61, 0
6, 69120, Note_on_c, 5, 62, 53
6, 69480, Note_off_c, 5, 62, 0
6, 69600, Note_on_c, 5, 57, 50
6, 69960, Note_off_c, 5, 57, 0
6, 70080, Note_on_c, 5, 50, 47
6, 70440, Note_off_c, 5, 50, 0
6, 70560, Control_c, 5, 64, 0
6, 70560, Note_on_c, 5, 62, 59
6, 71970, Note_off_c, 5, 62, 0
6, 72000, Note_on_c, 5, 62, 57
6, 73410, Note_off_c, 5, 62, 0
6, 73440, Note_on_c, 5, 57, 54
6, 74400, Note_off_c, 5, 57, 0
6, 74400, Note_on_c, 5, 61, 53
6, 74857, Note_off_c, 5, 61, 0
6, 74880, Note_on_c, 5, 62, 52
6, 75240, Note_off_c, 5, 62, 0
6, 76320, Note_on_c, 5, 62, 73
6, 77730, Note_off_c, 5, 62, 0
6, 77760, Note_on_c, 5, 62, 72
6, 79170, Note_off_c, 5, 62, 0
6, 79200, Note_on_c, 5, 57, 70
6, 80160, Note_off_c, 5, 57, 0
6, 80160, Note_on_c, 5, 61, 69
6, 80617, Note_off_c, 5, 61, 0
6, 80640, Note_on_c, 5, 62, 69
6, 81000, Note_off_c, 5, 62, 0
6, 82080, Control_c, 5, 64, 0
6, 82080, Note_on_c, 5, 62, 59
6, 83490, Note_off_c, 5, 62, 0
6, 83520, Note_on_c, 5, 62, 57
6, 84930, Note_off_c, 5, 62, 0
6, 84960, Note_on_c, 5, 57, 54
6, 85920, Note_off_c, 5, 57, 0
6, 85920, Note_on_c, 5, 61, 53
6, 86377, Note_off_c, 5, 61, 0
6, 86400, Note_on_c, 5, 62, 52
6, 86760, Note_off_c, 5, 62, 0
6, 87840, Note_on_c, 5, 62, 73
6, 89250, Note_off_c, 5, 62, 0
6, 89280, Note_on_c, 5, 62, 72
6, 90690, Note_off_c, 5, 62, 0
6, 90720, Note_on_c, 5, 57, 70
6, 91680, Note_off_c, 5, 57, 0
6, 91680, Note_on_c, 5, 61, 69
6, 92137, Note_off_c, 5, 61, 0
6, 92160, Note_on_c, 5, 62, 69
6, 92520, Note_off_c, 5, 62, 0
6, 93600, Control_c, 5, 64, 0
6, 93600, Note_on_c, 5, 57, 53
6, 95010, Note_off_c, 5, 57, 0
6, 95040, Note_on_c, 5, 57, 51
6, 95400, Note_off_c, 5, 57, 0
6, 96480, Note_on_c, 5, 62, 49
6, 97890, Note_off_c, 5, 62, 0
6, 97920, Note_on_c, 5, 62, 46
6, 98280, Note_off_c, 5, 62, 0
6, 99360, Note_on_c, 5, 62, 67
6, 100770, Note_off_c, 5, 62, 0
6, 100800, Note_on_c, 5, 62, 64
6, 102210, Note_off_c, 5, 62, 0
6, 102240, Note_on_c, 5, 62, 61
6, 102720, Note_off_c, 5, 62, 0
6, 102720, Note_on_c, 5, 61, 60
6, 103200, Note_off_c, 5, 61, 0
6, 103200, Note_on_c, 5, 62, 59
6, 103680, Note_off_c, 5, 62, 0
6, 103680, Note_on_c, 5, 57, 59
6, 104040, Note_off_c, 5, 57, 0
6, 105120, Control_c, 5, 64, 0
6, 105120, Note_on_c, 5, 62, 55
6, 106530, Note_off_c, 5, 62, 0
6, 106560, Note_on_c, 5, 62, 52
6, 107970, Note_off_c, 5, 62, 0
6, 108000, Note_on_c, 5, 57, 49
6, 108960, Note_off_c, 5, 57, 0
6, 108960, Note_on_c, 5, 61, 47
6, 109417, Note_off_c, 5, 61, 0
6, 109440, Note_on_c, 5, 62, 46
6, 109800, Note_off_c, 5, 62, 0
6, 110880, Note_on_c, 5, 62, 75
6, 112290, Note_off_c, 5, 62, 0
6, 112320, Note_on_c, 5, 62, 73
6, 113730, Note_off_c, 5, 62, 0
6, 113760, Note_on_c, 5, 57, 71
6, 114720, Note_off_c, 5, 57, 0
6, 114720, Note_on_c, 5, 61, 70
6, 115177, Note_off_c, 5, 61, 0
6, 115200, Note_on_c, 5, 62, 69
6, 115560, Note_off_c, 5, 62, 0
6, 116640, Control_c, 5, 64, 0
6, 116640, Note_on_c, 5, 57, 53
6, 118050, Note_off_c, 5, 57, 0
6, 118080, Note_on_c, 5, 57, 51
6, 118440, Note_off_c, 5, 57, 0
6, 119520, Note_on_c, 5, 62, 49
6, 120930, Note_off_c, 5, 62, 0
6, 120960, Note_on_c, 5, 62, 46
6, 121320, Note_off_c, 5, 62, 0
6, 122400, Note_on_c, 5, 62, 67
6, 123810, Note_off_c, 5, 62, 0
6, 123840, Note_on_c, 5, 62, 64
6, 125250, Note_off_c, 5, 62, 0
6, 125280, Note_on_c, 5, 62, 61
6, 125760, Note_off_c, 5, 62, 0
6, 125760, Note_on_c, 5, 61, 60
6, 126240, Note_off_c, 5, 61, 0
6, 126240, Note_on_c, 5, 62, 59
6, 126720, Note_off_c, 5, 62, 0
6, 126720, Note_on_c, 5, 57, 59
6, 127080, Note_off_c, 5, 57, 0
6, 128160, Control_c, 5, 64, 0
6, 128160, Note_on_c, 5, 62, 55
6, 129570, Note_off_c, 5, 62, 0
6, 129600, Note_on_c, 5, 62, 52
6, 131010, Note_off_c, 5, 62, 0
6, 131040, Note_on_c, 5, 57, 49
6, 132000, Note_off_c, 5, 57, 0
6, 132000, Note_on_c, 5, 61, 47
6, 132457, Note_off_c, 5, 61, 0
6, 132480, Note_on_c, 5, 62, 46
6, 132840, Note_off_c, 5, 62, 0
6, 133920, Note_on_c, 5, 62, 75
6, 135330, Note_off_c, 5, 62, 0
6, 135360, Note_on_c, 5, 62, 73
6, 136770, Note_off_c, 5, 62, 0
6, 136800, Note_on_c, 5, 57, 71
6, 137760, Note_off_c, 5, 57, 0
6, 137760, Note_on_c, 5, 61, 70
6, 138217, Note_off_c, 5, 61, 0
6, 138240, Note_on_c, 5, 62, 69
6, 138600, Note_off_c, 5, 62, 0
6, 139680, Control_c, 5, 64, 0
6, 139680, Note_on_c, 5, 50, 79
6, 139920, Note_off_c, 5, 50, 0
6, 140640, Note_on_c, 5, 57, 78
6, 140796, Note_off_c, 5, 57, 0
6, 140880, Note_on_c, 5, 54, 78
6, 141036, Note_off_c, 5, 54, 0
6, 141120, Note_on_c, 5, 50, 78
6, 141360, Note_off_c, 5, 50, 0
6, 142080, Note_on_c, 5, 57, 77
6, 142236, Note_off_c, 5, 57, 0
6, 142320, Note_on_c, 5, 54, 77
6, 142476, Note_off_c, 5, 54, 0
6, 142560, Note_on_c, 5, 47, 76
6, 142716, Note_off_c, 5, 47, 0
6, 143040, Note_on_c, 5, 43, 76
6, 143196, Note_off_c, 5, 43, 0
6, 143520, Note_on_c, 5, 45, 75
6, 143676, Note_off_c, 5, 45, 0
6, 144000, Note_on_c, 5, 50, 75
6, 144360, Note_off_c, 5, 50, 0
6, 145440, Note_on_c, 5, 50, 73
6, 145680, Note_off_c, 5, 50, 0
6, 146400, Note_on_c, 5, 57, 72
6, 146556, Note_off_c, 5, 57, 0
6, 146640, Note_on_c, 5, 54, 72
6, 146796, Note_off_c, 5, 54, 0
6, 146880, Note_on_c, 5, 50, 72
6, 147120, Note_off_c, 5, 50, 0
6, 147840, Note_on_c, 5, 57, 71
6, 147996, Note_off_c, 5, 57, 0
6, 148080, Note_on_c, 5, 54, 71
6, 148236, Note_off_c, 5, 54, 0
6, 148320, Note_on_c, 5, 47, 70
6, 148476, Note_off_c, 5, 47, 0
6, 148800, Note_on_c, 5, 43, 70
6, 148956, Note_off_c, 5, 43, 0
6, 149280, Note_on_c, 5, 45, 69
6, 149436, Note_off_c, 5, 45, 0
6, 149760, Note_on_c, 5, 38, 69
6, 150000, Note_off_c, 5, 38, 0
6, 150240, Note_on_c, 5, 45, 68
6, 150396, Note_off_c, 5, 45, 0
6, 150480, Note_on_c, 5, 42, 68
6, 150636, Note_off_c, 5, 42, 0
6, 150720, Note_on_c, 5, 38, 68
6, 150912, Note_off_c, 5, 38, 0
6, 151200, Control_c, 5, 64, 0
6, 151200, Note_on_c, 5, 50, 79
6, 151440, Note_off_c, 5, 50, 0
6, 152160, Note_on_c, 5, 57, 78
6, 152316, Note_off_c, 5, 57, 0
6, 152400, Note_on_c, 5, 54, 78
6, 152556, Note_off_c, 5, 54, 0
6, 152640, Note_on_c, 5, 50, 78
6, 152880, Note_off_c, 5, 50, 0
6, 153600, Note_on_c, 5, 57, 77
6, 153756, Note_off_c, 5, 57, 0
6, 153840, Note_on_c, 5, 54, 77
6, 153996, Note_off_c, 5, 54, 0
6, 154080, Note_on_c, 5, 47, 76
6, 154236, Note_off_c, 5, 47, 0
6, 154560, Note_on_c, 5, 43, 76
6, 154716, Note_off_c, 5, 43, 0
6, 155040, Note_on_c, 5, 45, 75
6, 155196, Note_off_c, 5, 45, 0
6, 155520, Note_on_c, 5, 50, 75
6, 155880, Note_off_c, 5, 50, 0
6, 156960, Note_on_c, 5, 50, 73
6, 157200, Note_off_c, 5, 50, 0
6, 157920, Note_on_c, 5, 57, 72
6, 158076, Note_off_c, 5, 57, 0
6, 158160, Note_on_c, 5, 54, 72
6, 158316, Note_off_c, 5, 54, 0
6, 158400, Note_on_c, 5, 50, 72
6, 158640, Note_off_c, 5, 50, 0
6, 159360, Note_on_c, 5, 57, 71
6, 159516, Note_off_c, 5, 57, 0
6, 159600, Note_on_c, 5, 54, 71
6, 159756, Note_off_c, 5, 54, 0
6, 159840, Note_on_c, 5, 47, 70
6, 159996, Note_off_c, 5, 47, 0
6, 160320, Note_on_c, 5, 43, 70
6, 160476, Note_off_c, 5, 43, 0
6, 160800, Note_on_c, 5, 45, 69
6, 160956, Note_off_c, 5, 45, 0
6, 161280, Note_on_c, 5, 38, 69
6, 161520, Note_off_c, 5, 38, 0
6, 161760, Note_on_c, 5, 45, 68
6, 161916, Note_off_c, 5, 45, 0
6, 162000, Note_on_c, 5, 42, 68
6, 162156, Note_off_c, 5, 42, 0
6, 162240, Note_on_c, 5, 38, 68
6, 162432, Note_off_c, 5, 38, 0
6, 162720, Control_c, 5, 64, 0
6, 162840, Note_on_c, 5, 45, 77
6, 162918, Note_off_c, 5, 45, 0
6, 162960, Note_on_c, 5, 47, 77
6, 163038, Note_off_c, 5, 47, 0
6, 163080, Note_on_c, 5, 49, 78
6, 163158, Note_off_c, 5, 49, 0
6, 163200, Note_on_c, 5, 50, 78
6, 163278, Note_off_c, 5, 50, 0
6, 163320, Note_on_c, 5, 52, 79
6, 163398, Note_off_c, 5, 52, 0
6, 163440, Note_on_c, 5, 54, 80
6, 163518, Note_off_c, 5, 54, 0
6, 163560, Note_on_c, 5, 56, 80
6, 163638, Note_off_c, 5, 56, 0
6, 163680, Note_on_c, 5, 57, 81
6, 163758, Note_off_c, 5, 57, 0
6, 163800, Note_on_c, 5, 59, 81
6, 163878, Note_off_c, 5, 59, 0
6, 163920, Note_on_c, 5, 61, 82
6, 163998, Note_off_c, 5, 61, 0
6, 164040, Note_on_c, 5, 62, 83
6, 164118, Note_off_c, 5, 62, 0
6, 164160, Note_on_c, 5, 64, 84
6, 164280, Note_off_c, 5, 64, 0
6, 164280, Note_on_c, 5, 62, 83
6, 164400, Note_off_c, 5, 62, 0
6, 164400, Note_on_c, 5, 61, 82
6, 164520, Note_off_c, 5, 61, 0
6, 164520, Note_on_c, 5, 59, 81
6, 164640, Note_off_c, 5, 59, 0
6, 164640, Note_on_c, 5, 57, 80
6, 164760, Note_off_c, 5, 57, 0
6, 164760, Note_on_c, 5, 55, 79
6, 164880, Note_off_c, 5, 55, 0
6, 164880, Note_on_c, 5, 54, 78
6, 165000, Note_off_c, 5, 54, 0
6, 165000, Note_on_c, 5, 52, 77
6, 165120, Note_off_c, 5, 52, 0
6, 165120, Note_on_c, 5, 50, 77
6, 165240, Note_off_c, 5, 50, 0
6, 165240, Note_on_c, 5, 49, 76
6, 165360, Note_off_c, 5, 49, 0
6, 165360, Note_on_c, 5, 47, 75
6, 165480, Note_off_c, 5, 47, 0
6, 165480, Note_on_c, 5, 45, 74
6, 165558, Note_off_c, 5, 45, 0
6, 165720, Note_on_c, 5, 50, 78
6, 165798, Note_off_c, 5, 50, 0
6, 165840, Note_on_c, 5, 52, 79
6, 165918, Note_off_c, 5, 52, 0
6, 165960, Note_on_c, 5, 54, 79
6, 166038, Note_off_c, 5, 54, 0
6, 166080, Note_on_c, 5, 55, 80
6, 166158, Note_off_c, 5, 55, 0
6, 166200, Note_on_c, 5, 57, 80
6, 166278, Note_off_c, 5, 57, 0
6, 166320, Note_on_c, 5, 59, 80
6, 166398, Note_off_c, 5, 59, 0
6, 166440, Note_on_c, 5, 61, 81
6, 166518, Note_off_c, 5, 61, 0
6, 166560, Note_on_c, 5, 62, 81
6, 166638, Note_off_c, 5, 62, 0
6, 166680, Note_on_c, 5, 64, 82
6, 166758, Note_off_c, 5, 64, 0
6, 166800, Note_on_c, 5, 66, 82
6, 166878, Note_off_c, 5, 66, 0
6, 166920, Note_on_c, 5, 67, 83
6, 166998, Note_off_c, 5, 67, 0
6, 167040, Note_on_c, 5, 69, 83
6, 167146, Note_off_c, 5, 69, 0
6, 167160, Note_on_c, 5, 67, 81
6, 167280, Note_off_c, 5, 67, 0
6, 167280, Note_on_c, 5, 66, 80
6, 167400, Note_off_c, 5, 66, 0
6, 167400, Note_on_c, 5, 64, 80
6, 167520, Note_off_c, 5, 64, 0
6, 167520, Note_on_c, 5, 62, 79
6, 167640, Note_off_c, 5, 62, 0
6, 167640, Note_on_c, 5, 61, 78
6, 167760, Note_off_c, 5, 61, 0
6, 167760, Note_on_c, 5, 59, 78
6, 167880, Note_off_c, 5, 59, 0
6, 167880, Note_on_c, 5, 57, 77
6, 168000, Note_off_c, 5, 57, 0
6, 168000, Note_on_c, 5, 55, 76
6, 168120, Note_off_c, 5, 55, 0
6, 168120, Note_on_c, 5, 54, 75
6, 168240, Note_off_c, 5, 54, 0
6, 168240, Note_on_c, 5, 52, 75
6, 168360, Note_off_c, 5, 52, 0
6, 168360, Note_on_c, 5, 50, 74
6, 168456, Note_off_c, 5, 50, 0
6, 168720, Note_on_c, 5, 61, 55
6, 168876, Note_off_c, 5, 61, 0
6, 168960, Note_on_c, 5, 60, 55
6, 169116, Note_off_c, 5, 60, 0
6, 169200, Note_on_c, 5, 59, 54
6, 169356, Note_off_c, 5, 59, 0
6, 169440, Note_on_c, 5, 57, 54
6, 169596, Note_off_c, 5, 57, 0
6, 169680, Note_on_c, 5, 55, 53
6, 169836, Note_off_c, 5, 55, 0
6, 169920, Note_on_c, 5, 54, 53
6, 170076, Note_off_c, 5, 54, 0
6, 170160, Note_on_c, 5, 61, 52
6, 170316, Note_off_c, 5, 61, 0
6, 170400, Note_on_c, 5, 60, 52
6, 170556, Note_off_c, 5, 60, 0
6, 170640, Note_on_c, 5, 59, 52
6, 170796, Note_off_c, 5, 59, 0
6, 170880, Note_on_c, 5, 57, 51
6, 171036, Note_off_c, 5, 57, 0
6, 171120, Note_on_c, 5, 55, 51
6, 171276, Note_off_c, 5, 55, 0
6, 171360, Note_on_c, 5, 54, 50
6, 171516, Note_off_c, 5, 54, 0
6, 171840, Note_on_c, 5, 52, 49
6, 171996, Note_off_c, 5, 52, 0
6, 172320, Note_on_c, 5, 50, 49
6, 172476, Note_off_c, 5, 50, 0
6, 172800, Note_on_c, 5, 57, 48
6, 173160, Note_off_c, 5, 57, 0
6, 174240, Note_on_c, 5, 50, 80
6, 174480, Note_off_c, 5, 50, 0
6, 175200, Note_on_c, 5, 57, 81
6, 175356, Note_off_c, 5, 57, 0
6, 175440, Note_on_c, 5, 54, 80
6, 175596, Note_off_c, 5, 54, 0
6, 175680, Note_on_c, 5, 50, 80
6, 175920, Note_off_c, 5, 50, 0
6, 176640, Note_on_c, 5, 57, 79
6, 176796, Note_off_c, 5, 57, 0
6, 176880, Note_on_c, 5, 54, 79
6, 177036, Note_off_c, 5, 54, 0
6, 177120, Note_on_c, 5, 47, 78
6, 177276, Note_off_c, 5, 47, 0
6, 177600, Note_on_c, 5, 43, 78
6, 177756, Note_off_c, 5, 43, 0
6, 178080, Note_on_c, 5, 45, 77
6, 178236, Note_off_c, 5, 45, 0
6, 178560, Note_on_c, 5, 50, 77
6, 178920, Note_off_c, 5, 50, 0
6, 180000, Note_on_c, 5, 50, 75
6, 180240, Note_off_c, 5, 50, 0
6, 180960, Note_on_c, 5, 57, 74
6, 181116, Note_off_c, 5, 57, 0
6, 181200, Note_on_c, 5, 54, 74
6, 181356, Note_off_c, 5, 54, 0
6, 181440, Note_on_c, 5, 50, 74
6, 181680, Note_off_c, 5, 50, 0
6, 182400, Note_on_c, 5, 57, 73
6, 182556, Note_off_c, 5, 57, 0
6, 182640, Note_on_c, 5, 54, 72
6, 182796, Note_off_c, 5, 54, 0
6, 182880, Note_on_c, 5, 47, 72
6, 183036, Note_off_c, 5, 47, 0
6, 183360, Note_on_c, 5, 43, 72
6, 183516, Note_off_c, 5, 43, 0
6, 183840, Note_on_c, 5, 45, 71
6, 183996, Note_off_c, 5, 45, 0
6, 184320, Note_on_c, 5, 38, 71
6, 184476, Note_off_c, 5, 38, 0
6, 184800, Note_on_c, 5, 45, 70
6, 184956, Note_off_c, 5, 45, 0
6, 185040, Note_on_c, 5, 42, 70
6, 185196, Note_off_c, 5, 42, 0
6, 185280, Note_on_c, 5, 38, 70
6, 185520, Control_c, 5, 64, 0
6, 185520, Note_off_c, 5, 38, 0
6, 185760, Control_c, 5, 64, 0
6, 185880, Note_on_c, 5, 45, 77
6, 185958, Note_off_c, 5, 45, 0
6, 186000, Note_on_c, 5, 47, 77
6, 186078, Note_off_c, 5, 47, 0
6, 186120, Note_on_c, 5, 49, 78
6, 186198, Note_off_c, 5, 49, 0
6, 186240, Note_on_c, 5, 50, 78
6, 186318, Note_off_c, 5, 50, 0
6, 186360, Note_on_c, 5, 52, 79
6, 186438, Note_off_c, 5, 52, 0
6, 186480, Note_on_c, 5, 54, 80
6, 186558, Note_off_c, 5, 54, 0
6, 186600, Note_on_c, 5, 56, 80
6, 186678, Note_off_c, 5, 56, 0
6, 186720, Note_on_c, 5, 57, 81
6, 186798, Note_off_c, 5, 57, 0
6, 186840, Note_on_c, 5, 59, 81
6, 186918, Note_off_c, 5, 59, 0
6, 186960, Note_on_c, 5, 61, 82
6, 187038, Note_off_c, 5, 61, 0
6, 187080, Note_on_c, 5, 62, 83
6, 187158, Note_off_c, 5, 62, 0
6, 187200, Note_on_c, 5, 64, 84
6, 187320, Note_off_c, 5, 64, 0
6, 187320, Note_on_c, 5, 62, 83
6, 187440, Note_off_c, 5, 62, 0
6, 187440, Note_on_c, 5, 61, 82
6, 187560, Note_off_c, 5, 61, 0
6, 187560, Note_on_c, 5, 59, 81
6, 187680, Note_off_c, 5, 59, 0
6, 187680, Note_on_c, 5, 57, 80
6, 187800, Note_off_c, 5, 57, 0
6, 187800, Note_on_c, 5, 55, 79
6, 187920, Note_off_c, 5, 55, 0
6, 187920, Note_on_c, 5, 54, 78
6, 188040, Note_off_c, 5, 54, 0
6, 188040, Note_on_c, 5, 52, 77
6, 188160, Note_off_c, 5, 52, 0
6, 188160, Note_on_c, 5, 50, 77
6, 188280, Note_off_c, 5, 50, 0
6, 188280, Note_on_c, 5, 49, 76
6, 188400, Note_off_c, 5, 49, 0
6, 188400, Note_on_c, 5, 47, 75
6, 188520, Note_off_c, 5, 47, 0
6, 188520, Note_on_c, 5, 45, 74
6, 188598, Note_off_c, 5, 45, 0
6, 188760, Note_on_c, 5, 50, 78
6, 188838, Note_off_c, 5, 50, 0
6, 188880, Note_on_c, 5, 52, 79
6, 188958, Note_off_c, 5, 52, 0
6, 189000, Note_on_c, 5, 54, 79
6, 189078, Note_off_c, 5, 54, 0
6, 189120, Note_on_c, 5, 55, 80
6, 189198, Note_off_c, 5, 55, 0
6, 189240, Note_on_c, 5, 57, 80
6, 189318, Note_off_c, 5, 57, 0
6, 189360, Note_on_c, 5, 59, 80
6, 189438, Note_off_c, 5, 59, 0
6, 189480, Note_on_c, 5, 61, 81
6, 189558, Note_off_c, 5, 61, 0
6, 189600, Note_on_c, 5, 62, 81
6, 189678, Note_off_c, 5, 62, 0
6, 189720, Note_on_c, 5, 64, 82
6, 189798, Note_off_c, 5, 64, 0
6, 189840, Note_on_c, 5, 66, 82
6, 189918, Note_off_c, 5, 66, 0
6, 189960, Note_on_c, 5, 67, 83
6, 190038, Note_off_c, 5, 67, 0
6, 190080, Note_on_c, 5, 69, 83
6, 190186, Note_off_c, 5, 69, 0
6, 190200, Note_on_c, 5, 67, 81
6, 190320, Note_off_c, 5, 67, 0
6, 190320, Note_on_c, 5, 66, 80
6, 190440, Note_off_c, 5, 66, 0
6, 190440, Note_on_c, 5, 64, 80
6, 190560, Note_off_c, 5, 64, 0
6, 190560, Note_on_c, 5, 62, 79
6, 190680, Note_off_c, 5, 62, 0
6, 190680, Note_on_c, 5, 61, 78
6, 190800, Note_off_c, 5, 61, 0
6, 190800, Note_on_c, 5, 59, 78
6, 190920, Note_off_c, 5, 59, 0
6, 190920, Note_on_c, 5, 57, 77
6, 191040, Note_off_c, 5, 57, 0
6, 191040, Note_on_c, 5, 55, 76
6, 191160, Note_off_c, 5, 55, 0
6, 191160, Note_on_c, 5, 54, 75
6, 191280, Note_off_c, 5, 54, 0
6, 191280, Note_on_c, 5, 52, 75
6, 191400, Note_off_c, 5, 52, 0
6, 191400, Note_on_c, 5, 50, 74
6, 191496, Note_off_c, 5, 50, 0
6, 191760, Note_on_c, 5, 61, 55
6, 191916, Note_off_c, 5, 61, 0
6, 192000, Note_on_c, 5, 60, 55
6, 192156, Note_off_c, 5, 60, 0
6, 192240, Note_on_c, 5, 59, 54
6, 192396, Note_off_c, 5, 59, 0
6, 192480, Note_on_c, 5, 57, 54
6, 192636, Note_off_c, 5, 57, 0
6, 192720, Note_on_c, 5, 55, 53
6, 192876, Note_off_c, 5, 55, 0
6, 192960, Note_on_c, 5, 54, 53
6, 193116, Note_off_c, 5, 54, 0
6, 193200, Note_on_c, 5, 61, 52
6, 193356, Note_off_c, 5, 61, 0
6, 193440, Note_on_c, 5, 60, 52
6, 193596, Note_off_c, 5, 60, 0
6, 193680, Note_on_c, 5, 59, 52
6, 193836, Note_off_c, 5, 59, 0
6, 193920, Note_on_c, 5, 57, 51
6, 194076, Note_off_c, 5, 57, 0
6, 194160, Note_on_c, 5, 55, 51
6, 194316, Note_off_c, 5, 55, 0
6, 194400, Note_on_c, 5, 54, 50
6, 194556, Note_off_c, 5, 54, 0
6, 194880, Note_on_c, 5, 52, 49
6, 195036, Note_off_c, 5, 52, 0
6, 195360, Note_on_c, 5, 50, 49
6, 195516, Note_off_c, 5, 50, 0
6, 195840, Note_on_c, 5, 57, 48
6, 196200, Note_off_c, 5, 57, 0
6, 197280, Note_on_c, 5, 50, 80
6, 197520, Note_off_c, 5, 50, 0
6, 198240, Note_on_c, 5, 57, 81
6, 198396, Note_off_c, 5, 57, 0
6, 198480, Note_on_c, 5, 54, 80
6, 198636, Note_off_c, 5, 54, 0
6, 198720, Note_on_c, 5, 50, 80
6, 198960, Note_off_c, 5, 50, 0
6, 199680, Note_on_c, 5, 57, 79
6, 199836, Note_off_c, 5, 57, 0
6, 199920, Note_on_c, 5, 54, 79
6, 200076, Note_off_c, 5, 54, 0
6, 200160, Note_on_c, 5, 47, 78
6, 200316, Note_off_c, 5, 47, 0
6, 200640, Note_on_c, 5, 43, 78
6, 200796, Note_off_c, 5, 43, 0
6, 201120, Note_on_c, 5, 45, 77
6, 201276, Note_off_c, 5, 45, 0
6, 201600, Note_on_c, 5, 50, 77
6, 201960, Note_off_c, 5, 50, 0
6, 203040, Note_on_c, 5, 50, 75
6, 203280, Note_off_c, 5, 50, 0
6, 204000, Note_on_c, 5, 57, 74
6, 204156, Note_off_c, 5, 57, 0
6, 204240, Note_on_c, 5, 54, 74
6, 204396, Note_off_c, 5, 54, 0
6, 204480, Note_on_c, 5, 50, 74
6, 204720, Note_off_c, 5, 50, 0
6, 205440, Note_on_c, 5, 57, 73
6, 205596, Note_off_c, 5, 57, 0
6, 205680, Note_on_c, 5, 54, 72
6, 205836, Note_off_c, 5, 54, 0
6, 205920, Note_on_c, 5, 47, 72
6, 206076, Note_off_c, 5, 47, 0
6, 206400, Note_on_c, 5, 43, 72
6, 206556, Note_off_c, 5, 43, 0
6, 206880, Note_on_c, 5, 45, 71
6, 207036, Note_off_c, 5, 45, 0
6, 207360, Note_on_c, 5, 38, 71
6, 207516, Note_off_c, 5, 38, 0
6, 207840, Note_on_c, 5, 45, 70
6, 207996, Note_off_c, 5, 45, 0
6, 208080, Note_on_c, 5, 42, 70
6, 208236, Note_off_c, 5, 42, 0
6, 208320, Note_on_c, 5, 38, 70
6, 208416, Note_off_c, 5, 38, 0
6, 208560, Control_c, 5, 64, 0
6, 208800, Control_c, 5, 64, 0
6, 208920, Note_on_c, 5, 50, 81
6, 209040, Note_off_c, 5, 50, 0
6, 209040, Note_on_c, 5, 54, 81
6, 209160, Note_off_c, 5, 54, 0
6, 209160, Note_on_c, 5, 57, 81
6, 209280, Note_off_c, 5, 57, 0
6, 209280, Note_on_c, 5, 62, 81
6, 209760, Note_off_c, 5, 62, 0
6, 210360, Note_on_c, 5, 38, 80
6, 210480, Note_off_c, 5, 38, 0
6, 210480, Note_on_c, 5, 42, 80
6, 210600, Note_off_c, 5, 42, 0
6, 210600, Note_on_c, 5, 45, 79
6, 210720, Note_off_c, 5, 45, 0
6, 210720, Note_on_c, 5, 50, 79
6, 211200, Note_off_c, 5, 50, 0
6, 211680, Note_on_c, 5, 59, 78
6, 211872, Note_off_c, 5, 59, 0
6, 212160, Note_on_c, 5, 55, 78
6, 212352, Note_off_c, 5, 55, 0
6, 212640, Note_on_c, 5, 57, 77
6, 212832, Note_off_c, 5, 57, 0
6, 213120, Note_on_c, 5, 50, 77
6, 213480, Note_off_c, 5, 50, 0
6, 214680, Note_on_c, 5, 38, 75
6, 214800, Note_off_c, 5, 38, 0
6, 214800, Note_on_c, 5, 42, 75
6, 214920, Note_off_c, 5, 42, 0
6, 214920, Note_on_c, 5, 45, 75
6, 215040, Note_off_c, 5, 45, 0
6, 215040, Note_on_c, 5, 50, 75
6, 215520, Note_off_c, 5, 50, 0
6, 216120, Note_on_c, 5, 50, 74
6, 216240, Note_off_c, 5, 50, 0
6, 216240, Note_on_c, 5, 54, 73
6, 216360, Note_off_c, 5, 54, 0
6, 216360, Note_on_c, 5, 57, 73
6, 216480, Note_off_c, 5, 57, 0
6, 216480, Note_on_c, 5, 62, 73
6, 216960, Note_off_c, 5, 62, 0
6, 217560, Note_on_c, 5, 47, 72
6, 217638, Note_off_c, 5, 47, 0
6, 217680, Note_on_c, 5, 50, 72
6, 217800, Note_off_c, 5, 50, 0
6, 217800, Note_on_c, 5, 59, 72
6, 217878, Note_off_c, 5, 59, 0
6, 218040, Note_on_c, 5, 43, 72
6, 218118, Note_off_c, 5, 43, 0
6, 218160, Note_on_c, 5, 47, 71
6, 218280, Note_off_c, 5, 47, 0
6, 218280, Note_on_c, 5, 55, 71
6, 218358, Note_off_c, 5, 55, 0
6, 218520, Note_on_c, 5, 45, 71
6, 218598, Note_off_c, 5, 45, 0
6, 218640, Note_on_c, 5, 49, 71
6, 218760, Note_off_c, 5, 49, 0
6, 218760, Note_on_c, 5, 57, 71
6, 218838, Note_off_c, 5, 57, 0
6, 219000, Note_on_c, 5, 50, 71
6, 219120, Note_off_c, 5, 50, 0
6, 219120, Note_on_c, 5, 54, 71
6, 219240, Note_off_c, 5, 54, 0
6, 219240, Note_on_c, 5, 50, 70
6, 219360, Note_off_c, 5, 50, 0
6, 219360, Note_on_c, 5, 45, 70
6, 219480, Note_off_c, 5, 45, 0
6, 219480, Note_on_c, 5, 50, 69
6, 219600, Note_off_c, 5, 50, 0
6, 219600, Note_on_c, 5, 42, 69
6, 219720, Note_off_c, 5, 42, 0
6, 219720, Note_on_c, 5, 45, 68
6, 219840, Note_off_c, 5, 45, 0
6, 219840, Note_on_c, 5, 38, 68
6, 220080, Control_c, 5, 64, 0
6, 220200, Note_off_c, 5, 38, 0
6, 220320, Control_c, 5, 64, 0
6, 220440, Note_on_c, 5, 50, 81
6, 220560, Note_off_c, 5, 50, 0
6, 220560, Note_on_c, 5, 54, 81
6, 220680, Note_off_c, 5, 54, 0
6, 220680, Note_on_c, 5, 57, 81
6, 220800, Note_off_c, 5, 57, 0
6, 220800, Note_on_c, 5, 62, 81
6, 221280, Note_off_c, 5, 62, 0
6, 221880, Note_on_c, 5, 38, 80
6, 222000, Note_off_c, 5, 38, 0
6, 222000, Note_on_c, 5, 42, 80
6, 222120, Note_off_c, 5, 42, 0
6, 222120, Note_on_c, 5, 45, 79
6, 222240, Note_off_c, 5, 45, 0
6, 222240, Note_on_c, 5, 50, 79
6, 222720, Note_off_c, 5, 50, 0
6, 223200, Note_on_c, 5, 59, 78
6, 223392, Note_off_c, 5, 59, 0
6, 223680, Note_on_c, 5, 55, 78
6, 223872, Note_off_c, 5, 55, 0
6, 224160, Note_on_c, 5, 57, 77
6, 224352, Note_off_c, 5, 57, 0
6, 224640, Note_on_c, 5, 50, 77
6, 225000, Note_off_c, 5, 50, 0
6, 226200, Note_on_c, 5, 38, 75
6, 226320, Note_off_c, 5, 38, 0
6, 226320, Note_on_c, 5, 42, 75
6, 226440, Note_off_c, 5, 42, 0
6, 226440, Note_on_c, 5, 45, 75
6, 226560, Note_off_c, 5, 45, 0
6, 226560, Note_on_c, 5, 50, 75
6, 227040, Note_off_c, 5, 50, 0
6, 227640, Note_on_c, 5, 50, 74
6, 227760, Note_off_c, 5, 50, 0
6, 227760, Note_on_c, 5, 54, 73
6, 227880, Note_off_c, 5, 54, 0
6, 227880, Note_on_c, 5, 57, 73
6, 228000, Note_off_c, 5, 57, 0
6, 228000, Note_on_c, 5, 62, 73
6, 228480, Note_off_c, 5, 62, 0
6, 229080, Note_on_c, 5, 47, 72
6, 229158, Note_off_c, 5, 47, 0
6, 229200, Note_on_c, 5, 50, 72
6, 229320, Note_off_c, 5, 50, 0
6, 229320, Note_on_c, 5, 59, 72
6, 229398, Note_off_c, 5, 59, 0
6, 229560, Note_on_c, 5, 43, 72
6, 229638, Note_off_c, 5, 43, 0
6, 229680, Note_on_c, 5, 47, 71
6, 229800, Note_off_c, 5, 47, 0
6, 229800, Note_on_c, 5, 55, 71
6, 229878, Note_off_c, 5, 55, 0
6, 230040, Note_on_c, 5, 45, 71
6, 230118, Note_off_c, 5, 45, 0
6, 230160, Note_on_c, 5, 49, 71
6, 230280, Note_off_c, 5, 49, 0
6, 230280, Note_on_c, 5, 57, 71
6, 230358, Note_off_c, 5, 57, 0
6, 230520, Note_on_c, 5, 50, 71
6, 230640, Note_off_c, 5, 50, 0
6, 230640, Note_on_c, 5, 54, 71
6, 230760, Note_off_c, 5, 54, 0
6, 230760, Note_on_c, 5, 50, 70
6, 230880, Note_off_c, 5, 50, 0
6, 230880, Note_on_c, 5, 45, 70
6, 231000, Note_off_c, 5, 45, 0
6, 231000, Note_on_c, 5, 50, 69
6, 231120, Note_off_c, 5, 50, 0
6, 231120, Note_on_c, 5, 42, 69
6, 231240, Note_off_c, 5, 42, 0
6, 231240, Note_on_c, 5, 45, 68
6, 231360, Note_off_c, 5, 45, 0
6, 231360, Note_on_c, 5, 38, 68
6, 231720, Note_off_c, 5, 38, 0
6, 231840, Control_c, 5, 64, 0
6, 231960, Note_on_c, 5, 33, 73
6, 232080, Note_off_c, 5, 33, 0
6, 232080, Note_on_c, 5, 37, 73
6, 232200, Note_off_c, 5, 37, 0
6, 232200, Note_on_c, 5, 40, 73
6, 232320, Note_off_c, 5, 40, 0
6, 232320, Note_on_c, 5, 45, 73
6, 232680, Note_off_c, 5, 45, 0
6, 232920, Note_on_c, 5, 57, 72
6, 233040, Note_off_c, 5, 57, 0
6, 233040, Note_on_c, 5, 61, 72
6, 233160, Note_off_c, 5, 61, 0
6, 233160, Note_on_c, 5, 64, 72
6, 233280, Note_off_c, 5, 64, 0
6, 233280, Note_on_c, 5, 69, 72
6, 233640, Note_off_c, 5, 69, 0
6, 234840, Note_on_c, 5, 38, 70
6, 234960, Note_off_c, 5, 38, 0
6, 234960, Note_on_c, 5, 42, 70
6, 235080, Note_off_c, 5, 42, 0
6, 235080, Note_on_c, 5, 45, 70
6, 235200, Note_off_c, 5, 45, 0
6, 235200, Note_on_c, 5, 50, 70
6, 235560, Note_off_c, 5, 50, 0
6, 235800, Note_on_c, 5, 62, 69
6, 235920, Note_off_c, 5, 62, 0
6, 235920, Note_on_c, 5, 66, 69
6, 236040, Note_off_c, 5, 66, 0
6, 236040, Note_on_c, 5, 69, 69
6, 236160, Note_off_c, 5, 69, 0
6, 236160, Note_on_c, 5, 74, 68
6, 236520, Note_off_c, 5, 74, 0
6, 237600, Note_on_c, 5, 50, 74
6, 238236, Note_off_c, 5, 50, 0
6, 238320, Note_on_c, 5, 55, 66
6, 238476, Note_off_c, 5, 55, 0
6, 238560, Note_on_c, 5, 50, 66
6, 238716, Note_off_c, 5, 50, 0
6, 238800, Note_on_c, 5, 55, 65
6, 238956, Note_off_c, 5, 55, 0
6, 239040, Note_on_c, 5, 50, 70
6, 239676, Note_off_c, 5, 50, 0
6, 239760, Note_on_c, 5, 55, 64
6, 239916, Note_off_c, 5, 55, 0
6, 240000, Note_on_c, 5, 50, 64
6, 240156, Note_off_c, 5, 50, 0
6, 240240, Note_on_c, 5, 55, 64
6, 240396, Note_off_c, 5, 55, 0
6, 240480, Note_on_c, 5, 50, 63
6, 240636, Note_off_c, 5, 50, 0
6, 240960, Note_on_c, 5, 49, 63
6, 241116, Note_off_c, 5, 49, 0
6, 241440, Note_on_c, 5, 50, 62
6, 241596, Note_off_c, 5, 50, 0
6, 241920, Note_on_c, 5, 45, 64
6, 242280, Note_off_c, 5, 45, 0
6, 243420, Control_c, 5, 64, 0
6, 243720, Note_on_c, 5, 50, 83
6, 243840, Note_off_c, 5, 50, 0
6, 243840, Note_on_c, 5, 54, 83
6, 243960, Note_off_c, 5, 54, 0
6, 243960, Note_on_c, 5, 57, 83
6, 244080, Note_off_c, 5, 57, 0
6, 244080, Note_on_c, 5, 62, 83
6, 244560, Note_off_c, 5, 62, 0
6, 245160, Note_on_c, 5, 38, 82
6, 245280, Note_off_c, 5, 38, 0
6, 245280, Note_on_c, 5, 42, 82
6, 245400, Note_off_c, 5, 42, 0
6, 245400, Note_on_c, 5, 45, 82
6, 245520, Note_off_c, 5, 45, 0
6, 245520, Note_on_c, 5, 50, 82
6, 246000, Note_off_c, 5, 50, 0
6, 246480, Note_on_c, 5, 59, 81
6, 246672, Note_off_c, 5, 59, 0
6, 246960, Note_on_c, 5, 55, 80
6, 247152, Note_off_c, 5, 55, 0
6, 247440, Note_on_c, 5, 57, 79
6, 247632, Note_off_c, 5, 57, 0
6, 247920, Note_on_c, 5, 50, 79
6, 248280, Note_off_c, 5, 50, 0
6, 249480, Note_on_c, 5, 50, 77
6, 249600, Note_off_c, 5, 50, 0
6, 249600, Note_on_c, 5, 54, 77
6, 249720, Note_off_c, 5, 54, 0
6, 249720, Note_on_c, 5, 57, 77
6, 249840, Note_off_c, 5, 57, 0
6, 249840, Note_on_c, 5, 62, 77
6, 250320, Note_off_c, 5, 62, 0
6, 250920, Note_on_c, 5, 38, 76
6, 251040, Note_off_c, 5, 38, 0
6, 251040, Note_on_c, 5, 42, 76
6, 251160, Note_off_c, 5, 42, 0
6, 251160, Note_on_c, 5, 45, 76
6, 251280, Note_off_c, 5, 45, 0
6, 251280, Note_on_c, 5, 50, 75
6, 251760, Note_off_c, 5, 50, 0
6, 252360, Note_on_c, 5, 47, 74
6, 252438, Note_off_c, 5, 47, 0
6, 252480, Note_on_c, 5, 50, 74
6, 252600, Note_off_c, 5, 50, 0
6, 252600, Note_on_c, 5, 59, 74
6, 252678, Note_off_c, 5, 59, 0
6, 252840, Note_on_c, 5, 43, 74
6, 252918, Note_off_c, 5, 43, 0
6, 252960, Note_on_c, 5, 47, 74
6, 253080, Note_off_c, 5, 47, 0
6, 253080, Note_on_c, 5, 55, 73
6, 253158, Note_off_c, 5, 55, 0
6, 253320, Note_on_c, 5, 45, 73
6, 253398, Note_off_c, 5, 45, 0
6, 253440, Note_on_c, 5, 49, 73
6, 253560, Note_off_c, 5, 49, 0
6, 253560, Note_on_c, 5, 57, 73
6, 253638, Note_off_c, 5, 57, 0
6, 253800, Note_on_c, 5, 50, 73
6, 253920, Note_off_c, 5, 50, 0
6, 253920, Note_on_c, 5, 54, 72
6, 254040, Note_off_c, 5, 54, 0
6, 254040, Note_on_c, 5, 50, 71
6, 254160, Note_off_c, 5, 50, 0
6, 254160, Note_on_c, 5, 45, 69
6, 254280, Note_off_c, 5, 45, 0
6, 254280, Note_on_c, 5, 50, 68
6, 254400, Note_off_c, 5, 50, 0
6, 254400, Note_on_c, 5, 42, 67
6, 254520, Note_off_c, 5, 42, 0
6, 254520, Note_on_c, 5, 45, 66
6, 254640, Note_off_c, 5, 45, 0
6, 254640, Note_on_c, 5, 38, 65
6, 254887, Note_off_c, 5, 38, 0
6, 255120, Control_c, 5, 64, 0
6, 255240, Note_on_c, 5, 33, 73
6, 255360, Note_off_c, 5, 33, 0
6, 255360, Note_on_c, 5, 37, 73
6, 255480, Note_off_c, 5, 37, 0
6, 255480, Note_on_c, 5, 40, 73
6, 255600, Note_off_c, 5, 40, 0
6, 255600, Note_on_c, 5, 45, 73
6, 255960, Note_off_c, 5, 45, 0
6, 256200, Note_on_c, 5, 57, 72
6, 256320, Note_off_c, 5, 57, 0
6, 256320, Note_on_c, 5, 61, 72
6, 256440, Note_off_c, 5, 61, 0
6, 256440, Note_on_c, 5, 64, 72
6, 256560, Note_off_c, 5, 64, 0
6, 256560, Note_on_c, 5, 69, 72
6, 256920, Note_off_c, 5, 69, 0
6, 258120, Note_on_c, 5, 38, 70
6, 258240, Note_off_c, 5, 38, 0
6, 258240, Note_on_c, 5, 42, 70
6, 258360, Note_off_c, 5, 42, 0
6, 258360, Note_on_c, 5, 45, 70
6, 258480, Note_off_c, 5, 45, 0
6, 258480, Note_on_c, 5, 50, 70
6, 258840, Note_off_c, 5, 50, 0
6, 259080, Note_on_c, 5, 62, 69
6, 259200, Note_off_c, 5, 62, 0
6, 259200, Note_on_c, 5, 66, 69
6, 259320, Note_off_c, 5, 66, 0
6, 259320, Note_on_c, 5, 69, 69
6, 259440, Note_off_c, 5, 69, 0
6, 259440, Note_on_c, 5, 74, 68
6, 259800, Note_off_c, 5, 74, 0
6, 260880, Note_on_c, 5, 50, 74
6, 261516, Note_off_c, 5, 50, 0
6, 261600, Note_on_c, 5, 55, 66
6, 261756, Note_off_c, 5, 55, 0
6, 261840, Note_on_c, 5, 50, 66
6, 261996, Note_off_c, 5, 50, 0
6, 262080, Note_on_c, 5, 55, 65
6, 262236, Note_off_c, 5, 55, 0
6, 262320, Note_on_c, 5, 50, 70
6, 262956, Note_off_c, 5, 50, 0
6, 263040, Note_on_c, 5, 55, 64
6, 263196, Note_off_c, 5, 55, 0
6, 263280, Note_on_c, 5, 50, 64
6, 263436, Note_off_c, 5, 50, 0
6, 263520, Note_on_c, 5, 55, 64
6, 263676, Note_off_c, 5, 55, 0
6, 263760, Note_on_c, 5, 50, 63
6, 263916, Note_off_c, 5, 50, 0
6, 264240, Note_on_c, 5, 49, 63
6, 264396, Note_off_c, 5, 49, 0
6, 264720, Note_on_c, 5, 50, 62
6, 264876, Note_off_c, 5, 50, 0
6, 265200, Note_on_c, 5, 45, 64
6, 265560, Note_off_c, 5, 45, 0
6, 266700, Control_c, 5, 64, 0
6, 267000, Note_on_c, 5, 50, 83
6, 267120, Note_off_c, 5, 50, 0
6, 267120, Note_on_c, 5, 54, 83
6, 267240, Note_off_c, 5, 54, 0
6, 267240, Note_on_c, 5, 57, 83
6, 267360, Note_off_c, 5, 57, 0
6, 267360, Note_on_c, 5, 62, 83
6, 267840, Note_off_c, 5, 62, 0
6, 268440, Note_on_c, 5, 38, 82
6, 268560, Note_off_c, 5, 38, 0
6, 268560, Note_on_c, 5, 42, 82
6, 268680, Note_off_c, 5, 42, 0
6, 268680, Note_on_c, 5, 45, 82
6, 268800, Note_off_c, 5, 45, 0
6, 268800, Note_on_c, 5, 50, 82
6, 269280, Note_off_c, 5, 50, 0
6, 269760, Note_on_c, 5, 59, 81
6, 269952, Note_off_c, 5, 59, 0
6, 270240, Note_on_c, 5, 55, 80
6, 270432, Note_off_c, 5, 55, 0
6, 270720, Note_on_c, 5, 57, 79
6, 270912, Note_off_c, 5, 57, 0
6, 271200, Note_on_c, 5, 50, 79
6, 271560, Note_off_c, 5, 50, 0
6, 272760, Note_on_c, 5, 50, 77
6, 272880, Note_off_c, 5, 50, 0
6, 272880, Note_on_c, 5, 54, 77
6, 273000, Note_off_c, 5, 54, 0
6, 273000, Note_on_c, 5, 57, 77
6, 273120, Note_off_c, 5, 57, 0
6, 273120, Note_on_c, 5, 62, 77
6, 273600, Note_off_c, 5, 62, 0
6, 274200, Note_on_c, 5, 38, 76
6, 274320, Note_off_c, 5, 38, 0
6, 274320, Note_on_c, 5, 42, 76
6, 274440, Note_off_c, 5, 42, 0
6, 274440, Note_on_c, 5, 45, 76
6, 274560, Note_off_c, 5, 45, 0
6, 274560, Note_on_c, 5, 50, 75
6, 275040, Note_off_c, 5, 50, 0
6, 275640, Note_on_c, 5, 47, 74
6, 275718, Note_off_c, 5, 47, 0
6, 275760, Note_on_c, 5, 50, 74
6, 275880, Note_off_c, 5, 50, 0
6, 275880, Note_on_c, 5, 59, 74
6, 275958, Note_off_c, 5, 59, 0
6, 276120, Note_on_c, 5, 43, 74
6, 276198, Note_off_c, 5, 43, 0
6, 276240, Note_on_c, 5, 47, 74
6, 276360, Note_off_c, 5, 47, 0
6, 276360, Note_on_c, 5, 55, 73
6, 276438, Note_off_c, 5, 55, 0
6, 276600, Note_on_c, 5, 45, 73
6, 276678, Note_off_c, 5, 45, 0
6, 276720, Note_on_c, 5, 49, 73
6, 276840, Note_off_c, 5, 49, 0
6, 276840, Note_on_c, 5, 57, 73
6, 276918, Note_off_c, 5, 57, 0
6, 277080, Note_on_c, 5, 50, 73
6, 277200, Note_off_c, 5, 50, 0
6, 277200, Note_on_c, 5, 54, 72
6, 277320, Note_off_c, 5, 54, 0
6, 277320, Note_on_c, 5, 50, 71
6, 277440, Note_off_c, 5, 50, 0
6, 277440, Note_on_c, 5, 45, 69
6, 277560, Note_off_c, 5, 45, 0
6, 277560, Note_on_c, 5, 50, 68
6, 277680, Note_off_c, 5, 50, 0
6, 277680, Note_on_c, 5, 42, 67
6, 277800, Note_off_c, 5, 42, 0
6, 277800, Note_on_c, 5, 45, 66
6, 277920, Note_off_c, 5, 45, 0
6, 277920, Note_on_c, 5, 38, 65
6, 278167, Note_off_c, 5, 38, 0
6, 279360, Control_c, 5, 64, 0
6, 279360, Note_on_c, 5, 62, 55
6, 279720, Note_off_c, 5, 62, 0
6, 280800, Note_on_c, 5, 50, 53
6, 281160, Note_off_c, 5, 50, 0
6, 282240, Note_on_c, 5, 62, 51
6, 282396, Note_off_c, 5, 62, 0
6, 282720, Note_on_c, 5, 55, 50
6, 282876, Note_off_c, 5, 55, 0
6, 283200, Note_on_c, 5, 57, 49
6, 283356, Note_off_c, 5, 57, 0
6, 283680, Note_on_c, 5, 50, 48
6, 284040, Note_off_c, 5, 50, 0
6, 285120, Note_on_c, 5, 66, 65
6, 285120, Note_on_c, 5, 69, 65
6, 285280, Note_off_c, 5, 69, 0
6, 285280, Note_off_c, 5, 66, 0
6, 285280, Note_on_c, 5, 67, 64
6, 285280, Note_on_c, 5, 64, 64
6, 285440, Note_off_c, 5, 64, 0
6, 285440, Note_off_c, 5, 67, 0
6, 285440, Note_on_c, 5, 62, 63
6, 285440, Note_on_c, 5, 66, 63
6, 285544, Note_off_c, 5, 66, 0
6, 285544, Note_off_c, 5, 62, 0
6, 285600, Note_on_c, 5, 62, 63
6, 285600, Note_on_c, 5, 66, 63
6, 285704, Note_off_c, 5, 66, 0
6, 285704, Note_off_c, 5, 62, 0
6, 285760, Note_on_c, 5, 62, 62
6, 285760, Note_on_c, 5, 66, 62
6, 285864, Note_off_c, 5, 66, 0
6, 285864, Note_off_c, 5, 62, 0
6, 285920, Note_on_c, 5, 62, 61
6, 285920, Note_on_c, 5, 66, 61
6, 286024, Note_off_c, 5, 66, 0
6, 286024, Note_off_c, 5, 62, 0
6, 286080, Note_on_c, 5, 62, 60
6, 286080, Note_on_c, 5, 66, 60
6, 286184, Note_off_c, 5, 66, 0
6, 286184, Note_off_c, 5, 62, 0
6, 286240, Note_on_c, 5, 62, 59
6, 286240, Note_on_c, 5, 66, 59
6, 286344, Note_off_c, 5, 66, 0
6, 286344, Note_off_c, 5, 62, 0
6, 286400, Note_on_c, 5, 62, 58
6, 286400, Note_on_c, 5, 66, 58
6, 286504, Note_off_c, 5, 66, 0
6, 286504, Note_off_c, 5, 62, 0
6, 286560, Note_on_c, 5, 57, 63
6, 286560, Note_on_c, 5, 66, 63
6, 286720, Note_off_c, 5, 66, 0
6, 286720, Note_off_c, 5, 57, 0
6, 286720, Note_on_c, 5, 55, 63
6, 286720, Note_on_c, 5, 64, 63
6, 286880, Note_off_c, 5, 64, 0
6, 286880, Note_off_c, 5, 55, 0
6, 286880, Note_on_c, 5, 54, 62
6, 286880, Note_on_c, 5, 62, 62
6, 286984, Note_off_c, 5, 62, 0
6, 286984, Note_off_c, 5, 54, 0
6, 287040, Note_on_c, 5, 62, 61
6, 287040, Note_on_c, 5, 54, 61
6, 287144, Note_off_c, 5, 54, 0
6, 287144, Note_off_c, 5, 62, 0
6, 287200, Note_on_c, 5, 62, 60
6, 287200, Note_on_c, 5, 54, 60
6, 287304, Note_off_c, 5, 54, 0
6, 287304, Note_off_c, 5, 62, 0
6, 287360, Note_on_c, 5, 62, 59
6, 287360, Note_on_c, 5, 54, 59
6, 287464, Note_off_c, 5, 54, 0
6, 287464, Note_off_c, 5, 62, 0
6, 287520, Note_on_c, 5, 62, 58
6, 287520, Note_on_c, 5, 54, 58
6, 287624, Note_off_c, 5, 54, 0
6, 287624, Note_off_c, 5, 62, 0
6, 287680, Note_on_c, 5, 62, 57
6, 287680, Note_on_c, 5, 54, 57
6, 287784, Note_off_c, 5, 54, 0
6, 287784, Note_off_c, 5, 62, 0
6, 287840, Note_on_c, 5, 54, 56
6, 287840, Note_on_c, 5, 62, 56
6, 287944, Note_off_c, 5, 62, 0
6, 287944, Note_off_c, 5, 54, 0
6, 288000, Note_on_c, 5, 59, 60
6, 288156, Note_off_c, 5, 59, 0
6, 288480, Note_on_c, 5, 55, 60
6, 288636, Note_off_c, 5, 55, 0
6, 288960, Note_on_c, 5, 57, 59
6, 289116, Note_off_c, 5, 57, 0
6, 289600, Note_on_c, 5, 62, 59
6, 289760, Note_off_c, 5, 62, 0
6, 289760, Note_on_c, 5, 57, 58
6, 289920, Note_off_c, 5, 57, 0
6, 289920, Note_on_c, 5, 54, 56
6, 290080, Note_off_c, 5, 54, 0
6, 290080, Note_on_c, 5, 50, 55
6, 290240, Note_off_c, 5, 50, 0
6, 290240, Note_on_c, 5, 45, 54
6, 290400, Note_off_c, 5, 45, 0
6, 290400, Note_on_c, 5, 38, 53
6, 290760, Note_off_c, 5, 38, 0
6, 290880, Control_c, 5, 64, 0
6, 290880, Note_on_c, 5, 62, 55
6, 291240, Note_off_c, 5, 62, 0
6, 292320, Note_on_c, 5, 50, 53
6, 292680, Note_off_c, 5, 50, 0
6, 293760, Note_on_c, 5, 62, 51
6, 293916, Note_off_c, 5, 62, 0
6, 294240, Note_on_c, 5, 55, 50
6, 294396, Note_off_c, 5, 55, 0
6, 294720, Note_on_c, 5, 57, 49
6, 294876, Note_off_c, 5, 57, 0
6, 295200, Note_on_c, 5, 50, 48
6, 295560, Note_off_c, 5, 50, 0
6, 296640, Note_on_c, 5, 69, 65
6, 296640, Note_on_c, 5, 66, 65
6, 296800, Note_off_c, 5, 66, 0
6, 296800, Note_off_c, 5, 69, 0
6, 296800, Note_on_c, 5, 64, 64
6, 296800, Note_on_c, 5, 67, 64
6, 296960, Note_off_c, 5, 67, 0
6, 296960, Note_off_c, 5, 64, 0
6, 296960, Note_on_c, 5, 66, 63
6, 296960, Note_on_c, 5, 62, 63
6, 297064, Note_off_c, 5, 62, 0
6, 297064, Note_off_c, 5, 66, 0
6, 297120, Note_on_c, 5, 66, 63
6, 297120, Note_on_c, 5, 62, 63
6, 297224, Note_off_c, 5, 62, 0
6, 297224, Note_off_c, 5, 66, 0
6, 297280, Note_on_c, 5, 66, 62
6, 297280, Note_on_c, 5, 62, 62
6, 297384, Note_off_c, 5, 62, 0
6, 297384, Note_off_c, 5, 66, 0
6, 297440, Note_on_c, 5, 66, 61
6, 297440, Note_on_c, 5, 62, 61
6, 297544, Note_off_c, 5, 62, 0
6, 297544, Note_off_c, 5, 66, 0
6, 297600, Note_on_c, 5, 66, 60
6, 297600, Note_on_c, 5, 62, 60
6, 297704, Note_off_c, 5, 62, 0
6, 297704, Note_off_c, 5, 66, 0
6, 297760, Note_on_c, 5, 66, 59
6, 297760, Note_on_c, 5, 62, 59
6, 297864, Note_off_c, 5, 62, 0
6, 297864, Note_off_c, 5, 66, 0
6, 297920, Note_on_c, 5, 66, 58
6, 297920, Note_on_c, 5, 62, 58
6, 298024, Note_off_c, 5, 62, 0
6, 298024, Note_off_c, 5, 66, 0
6, 298080, Note_on_c, 5, 66, 63
6, 298080, Note_on_c, 5, 57, 63
6, 298240, Note_off_c, 5, 57, 0
6, 298240, Note_off_c, 5, 66, 0
6, 298240, Note_on_c, 5, 64, 63
6, 298240, Note_on_c, 5, 55, 63
6, 298400, Note_off_c, 5, 55, 0
6, 298400, Note_off_c, 5, 64, 0
6, 298400, Note_on_c, 5, 62, 62
6, 298400, Note_on_c, 5, 54, 62
6, 298504, Note_off_c, 5, 54, 0
6, 298504, Note_off_c, 5, 62, 0
6, 298560, Note_on_c, 5, 54, 61
6, 298560, Note_on_c, 5, 62, 61
6, 298664, Note_off_c, 5, 62, 0
6, 298664, Note_off_c, 5, 54, 0
6, 298720, Note_on_c, 5, 54, 60
6, 298720, Note_on_c, 5, 62, 60
6, 298824, Note_off_c, 5, 62, 0
6, 298824, Note_off_c, 5, 54, 0
6, 298880, Note_on_c, 5, 54, 59
6, 298880, Note_on_c, 5, 62, 59
6, 298984, Note_off_c, 5, 62, 0
6, 298984, Note_off_c, 5, 54, 0
6, 299040, Note_on_c, 5, 54, 58
6, 299040, Note_on_c, 5, 62, 58
6, 299144, Note_off_c, 5, 62, 0
6, 299144, Note_off_c, 5, 54, 0
6, 299200, Note_on_c, 5, 54, 57
6, 299200, Note_on_c, 5, 62, 57
6, 299304, Note_off_c, 5, 62, 0
6, 299304, Note_off_c, 5, 54, 0
6, 299360, Note_on_c, 5, 62, 56
6, 299360, Note_on_c, 5, 54, 56
6, 299464, Note_off_c, 5, 54, 0
6, 299464, Note_off_c, 5, 62, 0
6, 299520, Note_on_c, 5, 59, 60
6, 299676, Note_off_c, 5, 59, 0
6, 300000, Note_on_c, 5, 55, 60
6, 300156, Note_off_c, 5, 55, 0
6, 300480, Note_on_c, 5, 57, 59
6, 300636, Note_off_c, 5, 57, 0
6, 301120, Note_on_c, 5, 62, 59
6, 301280, Note_off_c, 5, 62, 0
6, 301280, Note_on_c, 5, 57, 58
6, 301440, Note_off_c, 5, 57, 0
6, 301440, Note_on_c, 5, 54, 56
6, 301600, Note_off_c, 5, 54, 0
6, 301600, Note_on_c, 5, 50, 55
6, 301760, Note_off_c, 5, 50, 0
6, 301760, Note_on_c, 5, 45, 54
6, 301920, Note_off_c, 5, 45, 0
6, 301920, Note_on_c, 5, 38, 53
6, 302280, Note_off_c, 5, 38, 0
6, 302400, Control_c, 5, 64, 0
6, 302400, Note_on_c, 5, 45, 50
6, 302400, Note_on_c, 5, 57, 50
6, 303840, Note_off_c, 5, 57, 0
6, 303840, Note_off_c, 5, 45, 0
6, 303840, Note_on_c, 5, 69, 61
6, 304200, Note_off_c, 5, 69, 0
6, 305280, Note_on_c, 5, 50, 51
6, 305280, Note_on_c, 5, 62, 51
6, 306720, Note_off_c, 5, 62, 0
6, 306720, Note_off_c, 5, 50, 0
6, 306720, Note_on_c, 5, 38, 52
6, 307080, Note_off_c, 5, 38, 0
6, 309120, Note_on_c, 5, 61, 57
6, 309600, Note_off_c, 5, 61, 0
6, 309600, Note_on_c, 5, 62, 50
6, 309960, Note_off_c, 5, 62, 0
6, 310560, Note_on_c, 5, 61, 53
6, 311040, Note_off_c, 5, 61, 0
6, 311040, Note_on_c, 5, 62, 47
6, 311196, Note_off_c, 5, 62, 0
6, 311520, Note_on_c, 5, 55, 51
6, 311676, Note_off_c, 5, 55, 0
6, 312000, Note_on_c, 5, 56, 49
6, 312156, Note_off_c, 5, 56, 0
6, 312640, Note_on_c, 5, 45, 48
6, 312800, Note_off_c, 5, 45, 0
6, 312800, Note_on_c, 5, 49, 49
6, 312960, Note_off_c, 5, 49, 0
6, 312960, Note_on_c, 5, 52, 49
6, 313064, Note_off_c, 5, 52, 0
6, 313120, Note_on_c, 5, 57, 50
6, 313280, Note_off_c, 5, 57, 0
6, 313280, Note_on_c, 5, 58, 51
6, 313440, Note_off_c, 5, 58, 0
6, 313440, Note_on_c, 5, 59, 53
6, 313600, Note_off_c, 5, 59, 0
6, 313600, Note_on_c, 5, 60, 54
6, 313760, Note_off_c, 5, 60, 0
6, 313760, Note_on_c, 5, 61, 55
6, 313920, Note_off_c, 5, 61, 0
6, 313920, Note_on_c, 5, 62, 58
6, 314280, Note_off_c, 5, 62, 0
6, 315360, Note_on_c, 5, 50, 55
6, 315720, Note_off_c, 5, 50, 0
6, 316800, Note_on_c, 5, 62, 52
6, 316956, Note_off_c, 5, 62, 0
6, 317280, Note_on_c, 5, 55, 51
6, 317436, Note_off_c, 5, 55, 0
6, 317760, Note_on_c, 5, 57, 50
6, 317916, Note_off_c, 5, 57, 0
6, 318240, Note_on_c, 5, 50, 52
6, 318600, Note_off_c, 5, 50, 0
6, 319680, Note_on_c, 5, 69, 67
6, 319680, Note_on_c, 5, 66, 67
6, 319840, Note_off_c, 5, 66, 0
6, 319840, Note_off_c, 5, 69, 0
6, 319840, Note_on_c, 5, 64, 66
6, 319840, Note_on_c, 5, 67, 66
6, 320000, Note_off_c, 5, 67, 0
6, 320000, Note_off_c, 5, 64, 0
6, 320000, Note_on_c, 5, 66, 65
6, 320000, Note_on_c, 5, 62, 65
6, 320104, Note_off_c, 5, 62, 0
6, 320104, Note_off_c, 5, 66, 0
6, 320160, Note_on_c, 5, 66, 64
6, 320160, Note_on_c, 5, 62, 64
6, 320264, Note_off_c, 5, 62, 0
6, 320264, Note_off_c, 5, 66, 0
6, 320320, Note_on_c, 5, 66, 63
6, 320320, Note_on_c, 5, 62, 63
6, 320424, Note_off_c, 5, 62, 0
6, 320424, Note_off_c, 5, 66, 0
6, 320480, Note_on_c, 5, 66, 62
6, 320480, Note_on_c, 5, 62, 62
6, 320584, Note_off_c, 5, 62, 0
6, 320584, Note_off_c, 5, 66, 0
6, 320640, Note_on_c, 5, 66, 61
6, 320640, Note_on_c, 5, 62, 61
6, 320744, Note_off_c, 5, 62, 0
6, 320744, Note_off_c, 5, 66, 0
6, 320800, Note_on_c, 5, 66, 60
6, 320800, Note_on_c, 5, 62, 60
6, 320904, Note_off_c, 5, 62, 0
6, 320904, Note_off_c, 5, 66, 0
6, 320960, Note_on_c, 5, 66, 60
6, 320960, Note_on_c, 5, 62, 60
6, 321064, Note_off_c, 5, 62, 0
6, 321064, Note_off_c, 5, 66, 0
6, 321120, Note_on_c, 5, 66, 65
6, 321120, Note_on_c, 5, 57, 65
6, 321280, Note_off_c, 5, 57, 0
6, 321280, Note_off_c, 5, 66, 0
6, 321280, Note_on_c, 5, 64, 64
6, 321280, Note_on_c, 5, 55, 64
6, 321440, Note_off_c, 5, 55, 0
6, 321440, Note_off_c, 5, 64, 0
6, 321440, Note_on_c, 5, 62, 63
6, 321440, Note_on_c, 5, 54, 63
6, 321544, Note_off_c, 5, 54, 0
6, 321544, Note_off_c, 5, 62, 0
6, 321600, Note_on_c, 5, 54, 63
6, 321600, Note_on_c, 5, 62, 63
6, 321704, Note_off_c, 5, 62, 0
6, 321704, Note_off_c, 5, 54, 0
6, 321760, Note_on_c, 5, 54, 62
6, 321760, Note_on_c, 5, 62, 62
6, 321864, Note_off_c, 5, 62, 0
6, 321864, Note_off_c, 5, 54, 0
6, 321920, Note_on_c, 5, 54, 61
6, 321920, Note_on_c, 5, 62, 61
6, 322024, Note_off_c, 5, 62, 0
6, 322024, Note_off_c, 5, 54, 0
6, 322080, Note_on_c, 5, 54, 60
6, 322080, Note_on_c, 5, 62, 60
6, 322184, Note_off_c, 5, 62, 0
6, 322184, Note_off_c, 5, 54, 0
6, 322240, Note_on_c, 5, 54, 59
6, 322240, Note_on_c, 5, 62, 59
6, 322344, Note_off_c, 5, 62, 0
6, 322344, Note_off_c, 5, 54, 0
6, 322400, Note_on_c, 5, 62, 58
6, 322400, Note_on_c, 5, 54, 58
6, 322504, Note_off_c, 5, 54, 0
6, 322504, Note_off_c, 5, 62, 0
6, 322560, Note_on_c, 5, 59, 62
6, 322716, Note_off_c, 5, 59, 0
6, 323040, Note_on_c, 5, 55, 61
6, 323196, Note_off_c, 5, 55, 0
6, 323520, Note_on_c, 5, 57, 60
6, 323676, Note_off_c, 5, 57, 0
6, 324160, Note_on_c, 5, 62, 61
6, 324320, Note_off_c, 5, 62, 0
6, 324320, Note_on_c, 5, 57, 60
6, 324480, Note_off_c, 5, 57, 0
6, 324480, Note_on_c, 5, 54, 59
6, 324640, Note_off_c, 5, 54, 0
6, 324640, Note_on_c, 5, 50, 58
6, 324800, Note_off_c, 5, 50, 0
6, 324800, Note_on_c, 5, 45, 57
6, 324960, Note_off_c, 5, 45, 0
6, 324960, Note_on_c, 5, 38, 56
6, 325200, Note_off_c, 5, 38, 0
6, 325440, Control_c, 5, 64, 0
6, 325440, Note_on_c, 5, 57, 50
6, 325440, Note_on_c, 5, 45, 50
6, 326880, Note_off_c, 5, 45, 0
6, 326880, Note_off_c, 5, 57, 0
6, 326880, Note_on_c, 5, 69, 61
6, 327240, Note_off_c, 5, 69, 0
6, 328320, Note_on_c, 5, 62, 51
6, 328320, Note_on_c, 5, 50, 51
6, 329760, Note_off_c, 5, 50, 0
6, 329760, Note_off_c, 5, 62, 0
6, 329760, Note_on_c, 5, 38, 52
6, 330120, Note_off_c, 5, 38, 0
6, 332160, Note_on_c, 5, 61, 57
6, 332640, Note_off_c, 5, 61, 0
6, 332640, Note_on_c, 5, 62, 50
6, 333000, Note_off_c, 5, 62, 0
6, 333600, Note_on_c, 5, 61, 53
6, 334080, Note_off_c, 5, 61, 0
6, 334080, Note_on_c, 5, 62, 47
6, 334236, Note_off_c, 5, 62, 0
6, 334560, Note_on_c, 5, 55, 51
6, 334716, Note_off_c, 5, 55, 0
6, 335040, Note_on_c, 5, 56, 49
6, 335196, Note_off_c, 5, 56, 0
6, 335680, Note_on_c, 5, 45, 48
6, 335840, Note_off_c, 5, 45, 0
6, 335840, Note_on_c, 5, 49, 49
6, 336000, Note_off_c, 5, 49, 0
6, 336000, Note_on_c, 5, 52, 49
6, 336104, Note_off_c, 5, 52, 0
6, 336160, Note_on_c, 5, 57, 50
6, 336320, Note_off_c, 5, 57, 0
6, 336320, Note_on_c, 5, 58, 51
6, 336480, Note_off_c, 5, 58, 0
6, 336480, Note_on_c, 5, 59, 53
6, 336640, Note_off_c, 5, 59, 0
6, 336640, Note_on_c, 5, 60, 54
6, 336800, Note_off_c, 5, 60, 0
6, 336800, Note_on_c, 5, 61, 55
6, 336960, Note_off_c, 5, 61, 0
6, 336960, Note_on_c, 5, 62, 58
6, 337320, Note_off_c, 5, 62, 0
6, 338400, Note_on_c, 5, 50, 55
6, 338760, Note_off_c, 5, 50, 0
6, 339840, Note_on_c, 5, 62, 52
6, 339996, Note_off_c, 5, 62, 0
6, 340320, Note_on_c, 5, 55, 51
6, 340476, Note_off_c, 5, 55, 0
6, 340800, Note_on_c, 5, 57, 50
6, 340956, Note_off_c, 5, 57, 0
6, 341280, Note_on_c, 5, 50, 52
6, 341640, Note_off_c, 5, 50, 0
6, 342720, Note_on_c, 5, 66, 67
6, 342720, Note_on_c, 5, 69, 67
6, 342880, Note_off_c, 5, 69, 0
6, 342880, Note_off_c, 5, 66, 0
6, 342880, Note_on_c, 5, 67, 66
6, 342880, Note_on_c, 5, 64, 66
6, 343040, Note_off_c, 5, 64, 0
6, 343040, Note_off_c, 5, 67, 0
6, 343040, Note_on_c, 5, 62, 65
6, 343040, Note_on_c, 5, 66, 65
6, 343144, Note_off_c, 5, 66, 0
6, 343144, Note_off_c, 5, 62, 0
6, 343200, Note_on_c, 5, 62, 64
6, 343200, Note_on_c, 5, 66, 64
6, 343304, Note_off_c, 5, 66, 0
6, 343304, Note_off_c, 5, 62, 0
6, 343360, Note_on_c, 5, 62, 63
6, 343360, Note_on_c, 5, 66, 63
6, 343464, Note_off_c, 5, 66, 0
6, 343464, Note_off_c, 5, 62, 0
6, 343520, Note_on_c, 5, 62, 62
6, 343520, Note_on_c, 5, 66, 62
6, 343624, Note_off_c, 5, 66, 0
6, 343624, Note_off_c, 5, 62, 0
6, 343680, Note_on_c, 5, 62, 61
6, 343680, Note_on_c, 5, 66, 61
6, 343784, Note_off_c, 5, 66, 0
6, 343784, Note_off_c, 5, 62, 0
6, 343840, Note_on_c, 5, 62, 60
6, 343840, Note_on_c, 5, 66, 60
6, 343944, Note_off_c, 5, 66, 0
6, 343944, Note_off_c, 5, 62, 0
6, 344000, Note_on_c, 5, 62, 60
6, 344000, Note_on_c, 5, 66, 60
6, 344104, Note_off_c, 5, 66, 0
6, 344104, Note_off_c, 5, 62, 0
6, 344160, Note_on_c, 5, 57, 65
6, 344160, Note_on_c, 5, 66, 65
6, 344320, Note_off_c, 5, 66, 0
6, 344320, Note_off_c, 5, 57, 0
6, 344320, Note_on_c, 5, 55, 64
6, 344320, Note_on_c, 5, 64, 64
6, 344480, Note_off_c, 5, 64, 0
6, 344480, Note_off_c, 5, 55, 0
6, 344480, Note_on_c, 5, 54, 63
6, 344480, Note_on_c, 5, 62, 63
6, 344584, Note_off_c, 5, 62, 0
6, 344584, Note_off_c, 5, 54, 0
6, 344640, Note_on_c, 5, 62, 63
6, 344640, Note_on_c, 5, 54, 63
6, 344744, Note_off_c, 5, 54, 0
6, 344744, Note_off_c, 5, 62, 0
6, 344800, Note_on_c, 5, 62, 62
6, 344800, Note_on_c, 5, 54, 62
6, 344904, Note_off_c, 5, 54, 0
6, 344904, Note_off_c, 5, 62, 0
6, 344960, Note_on_c, 5, 62, 61
6, 344960, Note_on_c, 5, 54, 61
6, 345064, Note_off_c, 5, 54, 0
6, 345064, Note_off_c, 5, 62, 0
6, 345120, Note_on_c, 5, 62, 60
6, 345120, Note_on_c, 5, 54, 60
6, 345224, Note_off_c, 5, 54, 0
6, 345224, Note_off_c, 5, 62, 0
6, 345280, Note_on_c, 5, 62, 59
6, 345280, Note_on_c, 5, 54, 59
6, 345384, Note_off_c, 5, 54, 0
6, 345384, Note_off_c, 5, 62, 0
6, 345440, Note_on_c, 5, 54, 58
6, 345440, Note_on_c, 5, 62, 58
6, 345544, Note_off_c, 5, 62, 0
6, 345544, Note_off_c, 5, 54, 0
6, 345600, Note_on_c, 5, 59, 62
6, 345756, Note_off_c, 5, 59, 0
6, 346080, Note_on_c, 5, 55, 61
6, 346236, Note_off_c, 5, 55, 0
6, 346560, Note_on_c, 5, 57, 60
6, 346716, Note_off_c, 5, 57, 0
6, 347200, Note_on_c, 5, 62, 61
6, 347360, Note_off_c, 5, 62, 0
6, 347360, Note_on_c, 5, 57, 60
6, 347520, Note_off_c, 5, 57, 0
6, 347520, Note_on_c, 5, 54, 59
6, 347680, Note_off_c, 5, 54, 0
6, 347680, Note_on_c, 5, 50, 58
6, 347840, Note_off_c, 5, 50, 0
6, 347840, Note_on_c, 5, 45, 57
6, 348000, Note_off_c, 5, 45, 0
6, 348000, Note_on_c, 5, 38, 56
6, 348240, Note_off_c, 5, 38, 0
6, 348480, Control_c, 5, 64, 0
6, 349200, Note_on_c, 5, 73, 51
6, 349356, Note_off_c, 5, 73, 0
6, 349440, Note_on_c, 5, 74, 46
6, 349632, Note_off_c, 5, 74, 0
6, 350640, Note_on_c, 5, 70, 48
6, 350796, Note_off_c, 5, 70, 0
6, 350880, Note_on_c, 5, 71, 44
6, 351072, Note_off_c, 5, 71, 0
6, 351600, Note_on_c, 5, 66, 47
6, 351756, Note_off_c, 5, 66, 0
6, 352080, Note_on_c, 5, 67, 46
6, 352236, Note_off_c, 5, 67, 0
6, 352560, Note_on_c, 5, 69, 44
6, 352716, Note_off_c, 5, 69, 0
6, 352800, Note_on_c, 5, 62, 44
6, 353160, Note_off_c, 5, 62, 0
6, 354480, Note_on_c, 5, 73, 58
6, 354636, Note_off_c, 5, 73, 0
6, 354720, Note_on_c, 5, 74, 56
6, 354876, Note_off_c, 5, 74, 0
6, 354960, Note_on_c, 5, 73, 53
6, 355116, Note_off_c, 5, 73, 0
6, 355200, Note_on_c, 5, 74, 51
6, 355392, Note_off_c, 5, 74, 0
6, 355920, Note_on_c, 5, 70, 57
6, 356076, Note_off_c, 5, 70, 0
6, 356160, Note_on_c, 5, 71, 54
6, 356316, Note_off_c, 5, 71, 0
6, 356400, Note_on_c, 5, 70, 51
6, 356556, Note_off_c, 5, 70, 0
6, 356640, Note_on_c, 5, 71, 48
6, 356832, Note_off_c, 5, 71, 0
6, 357360, Note_on_c, 5, 66, 54
6, 357516, Note_off_c, 5, 66, 0
6, 357840, Note_on_c, 5, 67, 53
6, 357996, Note_off_c, 5, 67, 0
6, 358320, Note_on_c, 5, 57, 52
6, 358476, Note_off_c, 5, 57, 0
6, 358800, Note_on_c, 5, 54, 52
6, 358800, Note_on_c, 5, 42, 52
6, 358956, Note_off_c, 5, 42, 0
6, 358956, Note_off_c, 5, 54, 0
6, 359040, Note_on_c, 5, 55, 50
6, 359040, Note_on_c, 5, 43, 50
6, 359196, Note_off_c, 5, 43, 0
6, 359196, Note_off_c, 5, 55, 0
6, 359280, Note_on_c, 5, 45, 49
6, 359280, Note_on_c, 5, 57, 49
6, 359436, Note_off_c, 5, 57, 0
6, 359436, Note_off_c, 5, 45, 0
6, 359520, Note_on_c, 5, 38, 47
6, 359520, Note_on_c, 5, 50, 47
6, 359760, Note_off_c, 5, 50, 0
6, 359760, Note_off_c, 5, 38, 0
6, 360000, Control_c, 5, 64, 0
6, 360720, Note_on_c, 5, 73, 51
6, 360876, Note_off_c, 5, 73, 0
6, 360960, Note_on_c, 5, 74, 46
6, 361152, Note_off_c, 5, 74, 0
6, 362160, Note_on_c, 5, 70, 48
6, 362316, Note_off_c, 5, 70, 0
6, 362400, Note_on_c, 5, 71, 44
6, 362592, Note_off_c, 5, 71, 0
6, 363120, Note_on_c, 5, 66, 47
6, 363276, Note_off_c, 5, 66, 0
6, 363600, Note_on_c, 5, 67, 46
6, 363756, Note_off_c, 5, 67, 0
6, 364080, Note_on_c, 5, 69, 44
6, 364236, Note_off_c, 5, 69, 0
6, 364320, Note_on_c, 5, 62, 44
6, 364680, Note_off_c, 5, 62, 0
6, 366000, Note_on_c, 5, 73, 58
6, 366156, Note_off_c, 5, 73, 0
6, 366240, Note_on_c, 5, 74, 56
6, 366396, Note_off_c, 5, 74, 0
6, 366480, Note_on_c, 5, 73, 53
6, 366636, Note_off_c, 5, 73, 0
6, 366720, Note_on_c, 5, 74, 51
6, 366912, Note_off_c, 5, 74, 0
6, 367440, Note_on_c, 5, 70, 57
6, 367596, Note_off_c, 5, 70, 0
6, 367680, Note_on_c, 5, 71, 54
6, 367836, Note_off_c, 5, 71, 0
6, 367920, Note_on_c, 5, 70, 51
6, 368076, Note_off_c, 5, 70, 0
6, 368160, Note_on_c, 5, 71, 48
6, 368352, Note_off_c, 5, 71, 0
6, 368880, Note_on_c, 5, 66, 54
6, 369036, Note_off_c, 5, 66, 0
6, 369360, Note_on_c, 5, 67, 53
6, 369516, Note_off_c, 5, 67, 0
6, 369840, Note_on_c, 5, 57, 52
6, 369996, Note_off_c, 5, 57, 0
6, 370320, Note_on_c, 5, 42, 52
6, 370320, Note_on_c, 5, 54, 52
6, 370476, Note_off_c, 5, 54, 0
6, 370476, Note_off_c, 5, 42, 0
6, 370560, Note_on_c, 5, 43, 50
6, 370560, Note_on_c, 5, 55, 50
6, 370716, Note_off_c, 5, 55, 0
6, 370716, Note_off_c, 5, 43, 0
6, 370800, Note_on_c, 5, 57, 49
6, 370800, Note_on_c, 5, 45, 49
6, 370956, Note_off_c, 5, 45, 0
6, 370956, Note_off_c, 5, 57, 0
6, 371040, Note_on_c, 5, 50, 47
6, 371040, Note_on_c, 5, 38, 47
6, 371280, Note_off_c, 5, 38, 0
6, 371280, Note_off_c, 5, 50, 0
6, 371520, Control_c, 5, 64, 0
6, 371520, Note_on_c, 5, 57, 54
6, 371676, Note_off_c, 5, 57, 0
6, 371760, Note_on_c, 5, 57, 55
6, 371916, Note_off_c, 5, 57, 0
6, 372000, Note_on_c, 5, 57, 56
6, 372156, Note_off_c, 5, 57, 0
6, 372240, Note_on_c, 5, 57, 58
6, 372396, Note_off_c, 5, 57, 0
6, 372480, Note_on_c, 5, 57, 59
6, 372720, Note_off_c, 5, 57, 0
6, 372720, Note_on_c, 5, 57, 61
6, 372960, Note_off_c, 5, 57, 0
6, 372960, Note_on_c, 5, 57, 63
6, 374112, Note_off_c, 5, 57, 0
6, 374400, Note_on_c, 5, 62, 49
6, 374556, Note_off_c, 5, 62, 0
6, 374640, Note_on_c, 5, 62, 50
6, 374796, Note_off_c, 5, 62, 0
6, 374880, Note_on_c, 5, 62, 51
6, 375036, Note_off_c, 5, 62, 0
6, 375120, Note_on_c, 5, 62, 52
6, 375276, Note_off_c, 5, 62, 0
6, 375360, Note_on_c, 5, 62, 54
6, 375600, Note_off_c, 5, 62, 0
6, 375600, Note_on_c, 5, 62, 56
6, 375840, Note_off_c, 5, 62, 0
6, 375840, Note_on_c, 5, 62, 59
6, 376992, Note_off_c, 5, 62, 0
6, 377520, Note_on_c, 5, 61, 47
6, 377760, Note_off_c, 5, 61, 0
6, 377760, Note_on_c, 5, 62, 48
6, 378000, Note_off_c, 5, 62, 0
6, 378000, Note_on_c, 5, 64, 49
6, 378240, Note_off_c, 5, 64, 0
6, 378240, Note_on_c, 5, 66, 51
6, 378420, Note_off_c, 5, 66, 0
6, 378960, Note_on_c, 5, 73, 54
6, 379200, Note_off_c, 5, 73, 0
6, 379200, Note_on_c, 5, 74, 55
6, 379440, Note_off_c, 5, 74, 0
6, 379440, Note_on_c, 5, 76, 56
6, 379680, Note_off_c, 5, 76, 0
6, 379680, Note_on_c, 5, 78, 57
6, 379872, Note_off_c, 5, 78, 0
6, 379920, Note_on_c, 5, 75, 58
6, 380160, Note_off_c, 5, 75, 0
6, 380160, Note_on_c, 5, 76, 59
6, 380400, Note_off_c, 5, 76, 0
6, 380400, Note_on_c, 5, 73, 60
6, 380640, Note_off_c, 5, 73, 0
6, 380640, Note_on_c, 5, 74, 61
6, 380880, Note_off_c, 5, 74, 0
6, 380880, Note_on_c, 5, 71, 62
6, 381120, Note_off_c, 5, 71, 0
6, 381120, Note_on_c, 5, 66, 63
6, 381360, Note_off_c, 5, 66, 0
6, 381360, Note_on_c, 5, 68, 65
6, 381600, Note_off_c, 5, 68, 0
6, 381600, Note_on_c, 5, 69, 66
6, 382440, Note_off_c, 5, 69, 0
6, 383760, Note_on_c, 5, 73, 49
6, 383916, Note_off_c, 5, 73, 0
6, 384000, Note_on_c, 5, 74, 45
6, 384192, Note_off_c, 5, 74, 0
6, 385200, Note_on_c, 5, 70, 46
6, 385356, Note_off_c, 5, 70, 0
6, 385440, Note_on_c, 5, 71, 42
6, 385632, Note_off_c, 5, 71, 0
6, 386160, Note_on_c, 5, 66, 45
6, 386316, Note_off_c, 5, 66, 0
6, 386640, Note_on_c, 5, 67, 43
6, 386796, Note_off_c, 5, 67, 0
6, 387120, Note_on_c, 5, 69, 42
6, 387276, Note_off_c, 5, 69, 0
6, 387360, Note_on_c, 5, 62, 42
6, 387720, Note_off_c, 5, 62, 0
6, 389040, Note_on_c, 5, 73, 60
6, 389196, Note_off_c, 5, 73, 0
6, 389280, Note_on_c, 5, 74, 58
6, 389436, Note_off_c, 5, 74, 0
6, 389520, Note_on_c, 5, 73, 55
6, 389676, Note_off_c, 5, 73, 0
6, 389760, Note_on_c, 5, 74, 53
6, 389952, Note_off_c, 5, 74, 0
6, 390480, Note_on_c, 5, 70, 59
6, 390636, Note_off_c, 5, 70, 0
6, 390720, Note_on_c, 5, 71, 57
6, 390876, Note_off_c, 5, 71, 0
6, 390960, Note_on_c, 5, 70, 54
6, 391116, Note_off_c, 5, 70, 0
6, 391200, Note_on_c, 5, 71, 51
6, 391392, Note_off_c, 5, 71, 0
6, 391920, Note_on_c, 5, 66, 56
6, 392076, Note_off_c, 5, 66, 0
6, 392400, Note_on_c, 5, 67, 55
6, 392556, Note_off_c, 5, 67, 0
6, 392880, Note_on_c, 5, 57, 54
6, 393036, Note_off_c, 5, 57, 0
6, 393360, Note_on_c, 5, 42, 56
6, 393360, Note_on_c, 5, 54, 56
6, 393516, Note_off_c, 5, 54, 0
6, 393516, Note_off_c, 5, 42, 0
6, 393600, Note_on_c, 5, 43, 53
6, 393600, Note_on_c, 5, 55, 53
6, 393756, Note_off_c, 5, 55, 0
6, 393756, Note_off_c, 5, 43, 0
6, 393840, Note_on_c, 5, 57, 51
6, 393840, Note_on_c, 5, 45, 51
6, 393996, Note_off_c, 5, 45, 0
6, 393996, Note_off_c, 5, 57, 0
6, 394080, Note_on_c, 5, 50, 49
6, 394080, Note_on_c, 5, 38, 49
6, 394272, Note_off_c, 5, 38, 0
6, 394272, Note_off_c, 5, 50, 0
6, 394560, Control_c, 5, 64, 0
6, 394560, Note_on_c, 5, 57, 54
6, 394716, Note_off_c, 5, 57, 0
6, 394800, Note_on_c, 5, 57, 55
6, 394956, Note_off_c, 5, 57, 0
6, 395040, Note_on_c, 5, 57, 56
6, 395196, Note_off_c, 5, 57, 0
6, 395280, Note_on_c, 5, 57, 58
6, 395436, Note_off_c, 5, 57, 0
6, 395520, Note_on_c, 5, 57, 59
6, 395760, Note_off_c, 5, 57, 0
6, 395760, Note_on_c, 5, 57, 61
6, 396000, Note_off_c, 5, 57, 0
6, 396000, Note_on_c, 5, 57, 63
6, 397152, Note_off_c, 5, 57, 0
6, 397440, Note_on_c, 5, 62, 49
6, 397596, Note_off_c, 5, 62, 0
6, 397680, Note_on_c, 5, 62, 50
6, 397836, Note_off_c, 5, 62, 0
6, 397920, Note_on_c, 5, 62, 51
6, 398076, Note_off_c, 5, 62, 0
6, 398160, Note_on_c, 5, 62, 52
6, 398316, Note_off_c, 5, 62, 0
6, 398400, Note_on_c, 5, 62, 54
6, 398640, Note_off_c, 5, 62, 0
6, 398640, Note_on_c, 5, 62, 56
6, 398880, Note_off_c, 5, 62, 0
6, 398880, Note_on_c, 5, 62, 59
6, 400032, Note_off_c, 5, 62, 0
6, 400560, Note_on_c, 5, 61, 47
6, 400800, Note_off_c, 5, 61, 0
6, 400800, Note_on_c, 5, 62, 48
6, 401040, Note_off_c, 5, 62, 0
6, 401040, Note_on_c, 5, 64, 49
6, 401280, Note_off_c, 5, 64, 0
6, 401280, Note_on_c, 5, 66, 51
6, 401460, Note_off_c, 5, 66, 0
6, 402000, Note_on_c, 5, 73, 54
6, 402240, Note_off_c, 5, 73, 0
6, 402240, Note_on_c, 5, 74, 55
6, 402480, Note_off_c, 5, 74, 0
6, 402480, Note_on_c, 5, 76, 56
6, 402720, Note_off_c, 5, 76, 0
6, 402720, Note_on_c, 5, 78, 57
6, 402912, Note_off_c, 5, 78, 0
6, 402960, Note_on_c, 5, 75, 58
6, 403200, Note_off_c, 5, 75, 0
6, 403200, Note_on_c, 5, 76, 59
6, 403440, Note_off_c, 5, 76, 0
6, 403440, Note_on_c, 5, 73, 60
6, 403680, Note_off_c, 5, 73, 0
6, 403680, Note_on_c, 5, 74, 61
6, 403920, Note_off_c, 5, 74, 0
6, 403920, Note_on_c, 5, 71, 62
6, 404160, Note_off_c, 5, 71, 0
6, 404160, Note_on_c, 5, 66, 63
6, 404400, Note_off_c, 5, 66, 0
6, 404400, Note_on_c, 5, 68, 65
6, 404640, Note_off_c, 5, 68, 0
6, 404640, Note_on_c, 5, 69, 66
6, 405480, Note_off_c, 5, 69, 0
6, 406800, Note_on_c, 5, 73, 49
6, 406956, Note_off_c, 5, 73, 0
6, 407040, Note_on_c, 5, 74, 45
6, 407232, Note_off_c, 5, 74, 0
6, 408240, Note_on_c, 5, 70, 46
6, 408396, Note_off_c, 5, 70, 0
6, 408480, Note_on_c, 5, 71, 42
6, 408672, Note_off_c, 5, 71, 0
6, 409200, Note_on_c, 5, 66, 45
6, 409356, Note_off_c, 5, 66, 0
6, 409680, Note_on_c, 5, 67, 43
6, 409836, Note_off_c, 5, 67, 0
6, 410160, Note_on_c, 5, 69, 42
6, 410316, Note_off_c, 5, 69, 0
6, 410400, Note_on_c, 5, 62, 42
6, 410760, Note_off_c, 5, 62, 0
6, 412080, Note_on_c, 5, 73, 60
6, 412236, Note_off_c, 5, 73, 0
6, 412320, Note_on_c, 5, 74, 58
6, 412476, Note_off_c, 5, 74, 0
6, 412560, Note_on_c, 5, 73, 55
6, 412716, Note_off_c, 5, 73, 0
6, 412800, Note_on_c, 5, 74, 53
6, 412992, Note_off_c, 5, 74, 0
6, 413520, Note_on_c, 5, 70, 59
6, 413676, Note_off_c, 5, 70, 0
6, 413760, Note_on_c, 5, 71, 57
6, 413916, Note_off_c, 5, 71, 0
6, 414000, Note_on_c, 5, 70, 54
6, 414156, Note_off_c, 5, 70, 0
6, 414240, Note_on_c, 5, 71, 51
6, 414432, Note_off_c, 5, 71, 0
6, 414960, Note_on_c, 5, 66, 56
6, 415116, Note_off_c, 5, 66, 0
6, 415440, Note_on_c, 5, 67, 55
6, 415596, Note_off_c, 5, 67, 0
6, 415920, Note_on_c, 5, 57, 54
6, 416076, Note_off_c, 5, 57, 0
6, 416400, Note_on_c, 5, 54, 56
6, 416400, Note_on_c, 5, 42, 56
6, 416556, Note_off_c, 5, 42, 0
6, 416556, Note_off_c, 5, 54, 0
6, 416640, Note_on_c, 5, 55, 53
6, 416640, Note_on_c, 5, 43, 53
6, 416796, Note_off_c, 5, 43, 0
6, 416796, Note_off_c, 5, 55, 0
6, 416880, Note_on_c, 5, 45, 51
6, 416880, Note_on_c, 5, 57, 51
6, 417036, Note_off_c, 5, 57, 0
6, 417036, Note_off_c, 5, 45, 0
6, 417120, Note_on_c, 5, 38, 49
6, 417120, Note_on_c, 5, 50, 49
6, 417360, Note_off_c, 5, 50, 0
6, 417360, Note_off_c, 5, 38, 0
6, 417600, Control_c, 5, 64, 0
6, 420480, Note_on_c, 5, 57, 48
6, 421920, Note_off_c, 5, 57, 0
6, 421920, Note_on_c, 5, 62, 47
6, 422280, Note_off_c, 5, 62, 0
6, 423360, Note_on_c, 5, 62, 44
6, 424680, Note_off_c, 5, 62, 0
6, 424800, Note_on_c, 5, 62, 52
6, 426120, Note_off_c, 5, 62, 0
6, 426240, Note_on_c, 5, 57, 44
6, 427560, Note_off_c, 5, 57, 0
6, 428160, Note_on_c, 5, 62, 38
6, 428520, Note_off_c, 5, 62, 0
6, 428640, Note_on_c, 5, 50, 36
6, 429000, Note_off_c, 5, 50, 0
6, 429120, Control_c, 5, 64, 0
6, 432000, Note_on_c, 5, 57, 48
6, 433440, Note_off_c, 5, 57, 0
6, 433440, Note_on_c, 5, 62, 47
6, 433800, Note_off_c, 5, 62, 0
6, 434880, Note_on_c, 5, 62, 44
6, 436200, Note_off_c, 5, 62, 0
6, 436320, Note_on_c, 5, 62, 52
6, 437640, Note_off_c, 5, 62, 0
6, 437760, Note_on_c, 5, 57, 44
6, 439080, Note_off_c, 5, 57, 0
6, 439680, Note_on_c, 5, 62, 38
6, 440040, Note_off_c, 5, 62, 0
6, 440160, Note_on_c, 5, 50, 36
6, 440520, Note_off_c, 5, 50, 0
6, 440640, Control_c, 5, 64, 0
6, 449280, Note_on_c, 5, 71, 66
6, 449760, Note_off_c, 5, 71, 0
6, 449760, Note_on_c, 5, 73, 62
6, 450240, Note_off_c, 5, 73, 0
6, 450240, Note_on_c, 5, 74, 55
6, 450480, Note_off_c, 5, 74, 0
6, 450480, Note_on_c, 5, 68, 52
6, 450672, Note_off_c, 5, 68, 0
6, 450720, Note_on_c, 5, 69, 55
6, 451867, Note_off_c, 5, 69, 0
6, 455040, Note_on_c, 5, 57, 51
6, 456480, Note_off_c, 5, 57, 0
6, 456480, Note_on_c, 5, 62, 45
6, 456840, Note_off_c, 5, 62, 0
6, 457920, Note_on_c, 5, 62, 57
6, 459240, Note_off_c, 5, 62, 0
6, 459360, Note_on_c, 5, 55, 77
6, 460512, Note_off_c, 5, 55, 0
6, 460800, Note_on_c, 5, 57, 43
6, 461160, Note_off_c, 5, 57, 0
6, 461760, Note_on_c, 5, 45, 49
6, 462120, Note_off_c, 5, 45, 0
6, 462240, Note_on_c, 5, 50, 45
6, 462600, Note_off_c, 5, 50, 0
6, 462720, Note_on_c, 5, 45, 40
6, 463080, Note_off_c, 5, 45, 0
6, 463200, Note_on_c, 5, 38, 34
6, 463560, Note_off_c, 5, 38, 0
6, 463680, Control_c, 5, 64, 0
6, 472320, Note_on_c, 5, 71, 66
6, 472800, Note_off_c, 5, 71, 0
6, 472800, Note_on_c, 5, 73, 62
6, 473280, Note_off_c, 5, 73, 0
6, 473280, Note_on_c, 5, 74, 55
6, 473520, Note_off_c, 5, 74, 0
6, 473520, Note_on_c, 5, 68, 52
6, 473712, Note_off_c, 5, 68, 0
6, 473760, Note_on_c, 5, 69, 55
6, 474907, Note_off_c, 5, 69, 0
6, 478080, Note_on_c, 5, 57, 51
6, 479520, Note_off_c, 5, 57, 0
6, 479520, Note_on_c, 5, 62, 45
6, 479880, Note_off_c, 5, 62, 0
6, 480960, Note_on_c, 5, 62, 57
6, 482280, Note_off_c, 5, 62, 0
6, 482400, Note_on_c, 5, 55, 77
6, 483552, Note_off_c, 5, 55, 0
6, 483840, Note_on_c, 5, 57, 43
6, 484200, Note_off_c, 5, 57, 0
6, 484800, Note_on_c, 5, 45, 49
6, 485160, Note_off_c, 5, 45, 0
6, 485280, Note_on_c, 5, 50, 45
6, 485640, Note_off_c, 5, 50, 0
6, 485760, Note_on_c, 5, 45, 40
6, 486120, Note_off_c, 5, 45, 0
6, 486240, Note_on_c, 5, 38, 34
6, 486600, Note_off_c, 5, 38, 0
6, 486720, Note_on_c, 5, 62, 55
6, 487920, Note_off_c, 5, 62, 0
6, 488160, Note_on_c, 5, 50, 53
6, 489360, Note_off_c, 5, 50, 0
6, 489600, Note_on_c, 5, 47, 50
6, 489600, Note_on_c, 5, 59, 50
6, 489756, Note_off_c, 5, 59, 0
6, 489756, Note_off_c, 5, 47, 0
6, 490080, Note_on_c, 5, 43, 49
6, 490080, Note_on_c, 5, 55, 49
6, 490236, Note_off_c, 5, 55, 0
6, 490236, Note_off_c, 5, 43, 0
6, 490560, Note_on_c, 5, 45, 49
6, 490560, Note_on_c, 5, 57, 49
6, 490716, Note_off_c, 5, 57, 0
6, 490716, Note_off_c, 5, 45, 0
6, 491040, Note_on_c, 5, 50, 46
6, 491040, Note_on_c, 5, 38, 46
6, 491400, Note_off_c, 5, 38, 0
6, 491400, Note_off_c, 5, 50, 0
6, 492480, Note_on_c, 5, 50, 71
6, 492636, Note_off_c, 5, 50, 0
6, 492720, Note_on_c, 5, 54, 71
6, 492876, Note_off_c, 5, 54, 0
6, 492960, Note_on_c, 5, 52, 71
6, 493116, Note_off_c, 5, 52, 0
6, 493200, Note_on_c, 5, 50, 70
6, 493356, Note_off_c, 5, 50, 0
6, 493440, Note_on_c, 5, 49, 70
6, 493596, Note_off_c, 5, 49, 0
6, 493680, Note_on_c, 5, 47, 69
6, 493836, Note_off_c, 5, 47, 0
6, 493920, Note_on_c, 5, 45, 69
6, 494076, Note_off_c, 5, 45, 0
6, 494160, Note_on_c, 5, 43, 68
6, 494316, Note_off_c, 5, 43, 0
6, 494400, Note_on_c, 5, 42, 68
6, 494556, Note_off_c, 5, 42, 0
6, 494640, Note_on_c, 5, 40, 68
6, 494796, Note_off_c, 5, 40, 0
6, 494880, Note_on_c, 5, 38, 67
6, 495036, Note_off_c, 5, 38, 0
6, 495120, Note_on_c, 5, 37, 67
6, 495276, Note_off_c, 5, 37, 0
6, 495360, Note_on_c, 5, 35, 66
6, 495516, Note_off_c, 5, 35, 0
6, 495840, Note_on_c, 5, 33, 65
6, 495996, Note_off_c, 5, 33, 0
6, 496320, Note_on_c, 5, 33, 65
6, 496476, Note_off_c, 5, 33, 0
6, 496920, Note_on_c, 5, 50, 65
6, 497040, Note_off_c, 5, 50, 0
6, 497040, Note_on_c, 5, 54, 64
6, 497160, Note_off_c, 5, 54, 0
6, 497160, Note_on_c, 5, 50, 63
6, 497280, Note_off_c, 5, 50, 0
6, 497280, Note_on_c, 5, 45, 62
6, 497400, Note_off_c, 5, 45, 0
6, 497400, Note_on_c, 5, 50, 62
6, 497520, Note_off_c, 5, 50, 0
6, 497520, Note_on_c, 5, 42, 61
6, 497640, Note_off_c, 5, 42, 0
6, 497640, Note_on_c, 5, 45, 60
6, 497760, Note_off_c, 5, 45, 0
6, 497760, Note_on_c, 5, 38, 59
6, 498048, Note_off_c, 5, 38, 0
6, 498240, Note_on_c, 5, 62, 55
6, 499440, Note_off_c, 5, 62, 0
6, 499680, Note_on_c, 5, 50, 53
6, 500880, Note_off_c, 5, 50, 0
6, 501120, Note_on_c, 5, 59, 50
6, 501120, Note_on_c, 5, 47, 50
6, 501276, Note_off_c, 5, 47, 0
6, 501276, Note_off_c, 5, 59, 0
6, 501600, Note_on_c, 5, 55, 49
6, 501600, Note_on_c, 5, 43, 49
6, 501756, Note_off_c, 5, 43, 0
6, 501756, Note_off_c, 5, 55, 0
6, 502080, Note_on_c, 5, 57, 49
6, 502080, Note_on_c, 5, 45, 49
6, 502236, Note_off_c, 5, 45, 0
6, 502236, Note_off_c, 5, 57, 0
6, 502560, Note_on_c, 5, 38, 46
6, 502560, Note_on_c, 5, 50, 46
6, 502920, Note_off_c, 5, 50, 0
6, 502920, Note_off_c, 5, 38, 0
6, 504000, Note_on_c, 5, 50, 71
6, 504156, Note_off_c, 5, 50, 0
6, 504240, Note_on_c, 5, 54, 71
6, 504396, Note_off_c, 5, 54, 0
6, 504480, Note_on_c, 5, 52, 71
6, 504636, Note_off_c, 5, 52, 0
6, 504720, Note_on_c, 5, 50, 70
6, 504876, Note_off_c, 5, 50, 0
6, 504960, Note_on_c, 5, 49, 70
6, 505116, Note_off_c, 5, 49, 0
6, 505200, Note_on_c, 5, 47, 69
6, 505356, Note_off_c, 5, 47, 0
6, 505440, Note_on_c, 5, 45, 69
6, 505596, Note_off_c, 5, 45, 0
6, 505680, Note_on_c, 5, 43, 68
6, 505836, Note_off_c, 5, 43, 0
6, 505920, Note_on_c, 5, 42, 68
6, 506076, Note_off_c, 5, 42, 0
6, 506160, Note_on_c, 5, 40, 68
6, 506316, Note_off_c, 5, 40, 0
6, 506400, Note_on_c, 5, 38, 67
6, 506556, Note_off_c, 5, 38, 0
6, 506640, Note_on_c, 5, 37, 67
6, 506796, Note_off_c, 5, 37, 0
6, 506880, Note_on_c, 5, 35, 66
6, 507036, Note_off_c, 5, 35, 0
6, 507360, Note_on_c, 5, 33, 65
6, 507516, Note_off_c, 5, 33, 0
6, 507840, Note_on_c, 5, 33, 65
6, 507996, Note_off_c, 5, 33, 0
6, 508440, Note_on_c, 5, 50, 65
6, 508560, Note_off_c, 5, 50, 0
6, 508560, Note_on_c, 5, 54, 64
6, 508680, Note_off_c, 5, 54, 0
6, 508680, Note_on_c, 5, 50, 63
6, 508800, Note_off_c, 5, 50, 0
6, 508800, Note_on_c, 5, 45, 62
6, 508920, Note_off_c, 5, 45, 0
6, 508920, Note_on_c, 5, 50, 62
6, 509040, Note_off_c, 5, 50, 0
6, 509040, Note_on_c, 5, 42, 61
6, 509160, Note_off_c, 5, 42, 0
6, 509160, Note_on_c, 5, 45, 60
6, 509280, Note_off_c, 5, 45, 0
6, 509280, Note_on_c, 5, 38, 59
6, 509568, Note_off_c, 5, 38, 0
6, 509760, Note_on_c, 5, 57, 57
6, 512565, Note_off_c, 5, 57, 0
6, 512640, Note_on_c, 5, 50, 52
6, 514080, Note_off_c, 5, 50, 0
6, 514080, Note_on_c, 5, 62, 50
6, 515040, Note_off_c, 5, 62, 0
6, 515520, Note_on_c, 5, 43, 81
6, 515676, Note_off_c, 5, 43, 0
6, 515760, Note_on_c, 5, 45, 80
6, 515916, Note_off_c, 5, 45, 0
6, 516000, Note_on_c, 5, 47, 80
6, 516156, Note_off_c, 5, 47, 0
6, 516240, Note_on_c, 5, 49, 80
6, 516396, Note_off_c, 5, 49, 0
6, 516480, Note_on_c, 5, 50, 79
6, 516636, Note_off_c, 5, 50, 0
6, 516720, Note_on_c, 5, 54, 79
6, 516876, Note_off_c, 5, 54, 0
6, 516960, Note_on_c, 5, 55, 78
6, 517116, Note_off_c, 5, 55, 0
6, 517200, Note_on_c, 5, 57, 78
6, 517356, Note_off_c, 5, 57, 0
6, 517440, Note_on_c, 5, 59, 77
6, 517596, Note_off_c, 5, 59, 0
6, 517680, Note_on_c, 5, 61, 77
6, 517836, Note_off_c, 5, 61, 0
6, 517920, Note_on_c, 5, 62, 76
6, 518076, Note_off_c, 5, 62, 0
6, 518160, Note_on_c, 5, 61, 76
6, 518316, Note_off_c, 5, 61, 0
6, 518400, Note_on_c, 5, 59, 75
6, 518556, Note_off_c, 5, 59, 0
6, 518640, Note_on_c, 5, 57, 75
6, 518796, Note_off_c, 5, 57, 0
6, 518880, Note_on_c, 5, 55, 74
6, 519036, Note_off_c, 5, 55, 0
6, 519120, Note_on_c, 5, 54, 74
6, 519276, Note_off_c, 5, 54, 0
6, 519360, Note_on_c, 5, 52, 73
6, 519516, Note_off_c, 5, 52, 0
6, 519600, Note_on_c, 5, 50, 73
6, 519756, Note_off_c, 5, 50, 0
6, 519840, Note_on_c, 5, 45, 72
6, 520200, Note_off_c, 5, 45, 0
6, 521280, Note_on_c, 5, 62, 53
6, 522480, Note_off_c, 5, 62, 0
6, 522720, Note_on_c, 5, 50, 51
6, 523920, Note_off_c, 5, 50, 0
6, 524160, Note_on_c, 5, 47, 49
6, 524316, Note_off_c, 5, 47, 0
6, 524640, Note_on_c, 5, 43, 48
6, 524796, Note_off_c, 5, 43, 0
6, 525120, Note_on_c, 5, 45, 47
6, 525276, Note_off_c, 5, 45, 0
6, 525600, Note_on_c, 5, 38, 46
6, 525960, Note_off_c, 5, 38, 0
6, 527040, Note_on_c, 5, 50, 75
6, 527196, Note_off_c, 5, 50, 0
6, 527280, Note_on_c, 5, 54, 75
6, 527436, Note_off_c, 5, 54, 0
6, 527520, Note_on_c, 5, 52, 75
6, 527676, Note_off_c, 5, 52, 0
6, 527760, Note_on_c, 5, 50, 74
6, 527916, Note_off_c, 5, 50, 0
6, 528000, Note_on_c, 5, 49, 74
6, 528156, Note_off_c, 5, 49, 0
6, 528240, Note_on_c, 5, 47, 73
6, 528396, Note_off_c, 5, 47, 0
6, 528480, Note_on_c, 5, 45, 73
6, 528636, Note_off_c, 5, 45, 0
6, 528720, Note_on_c, 5, 43, 72
6, 528876, Note_off_c, 5, 43, 0
6, 528960, Note_on_c, 5, 42, 72
6, 529116, Note_off_c, 5, 42, 0
6, 529200, Note_on_c, 5, 40, 71
6, 529356, Note_off_c, 5, 40, 0
6, 529440, Note_on_c, 5, 38, 71
6, 529596, Note_off_c, 5, 38, 0
6, 529680, Note_on_c, 5, 37, 71
6, 529836, Note_off_c, 5, 37, 0
6, 529920, Note_on_c, 5, 35, 70
6, 530076, Note_off_c, 5, 35, 0
6, 530400, Note_on_c, 5, 33, 69
6, 530556, Note_off_c, 5, 33, 0
6, 530880, Note_on_c, 5, 33, 68
6, 531036, Note_off_c, 5, 33, 0
6, 531480, Note_on_c, 5, 50, 67
6, 531600, Note_off_c, 5, 50, 0
6, 531600, Note_on_c, 5, 54, 67
6, 531720, Note_off_c, 5, 54, 0
6, 531720, Note_on_c, 5, 50, 67
6, 531840, Note_off_c, 5, 50, 0
6, 531840, Note_on_c, 5, 45, 67
6, 531960, Note_off_c, 5, 45, 0
6, 531960, Note_on_c, 5, 50, 66
6, 532080, Note_off_c, 5, 50, 0
6, 532080, Note_on_c, 5, 42, 66
6, 532200, Note_off_c, 5, 42, 0
6, 532200, Note_on_c, 5, 45, 66
6, 532320, Note_off_c, 5, 45, 0
6, 532320, Note_on_c, 5, 38, 66
6, 532608, Note_off_c, 5, 38, 0
6, 532800, Note_on_c, 5, 57, 57
6, 535605, Note_off_c, 5, 57, 0
6, 535680, Note_on_c, 5, 50, 52
6, 537120, Note_off_c, 5, 50, 0
6, 537120, Note_on_c, 5, 62, 50
6, 538080, Note_off_c, 5, 62, 0
6, 538560, Note_on_c, 5, 43, 81
6, 538716, Note_off_c, 5, 43, 0
6, 538800, Note_on_c, 5, 45, 80
6, 538956, Note_off_c, 5, 45, 0
6, 539040, Note_on_c, 5, 47, 80
6, 539196, Note_off_c, 5, 47, 0
6, 539280, Note_on_c, 5, 49, 80
6, 539436, Note_off_c, 5, 49, 0
6, 539520, Note_on_c, 5, 50, 79
6, 539676, Note_off_c, 5, 50, 0
6, 539760, Note_on_c, 5, 54, 79
6, 539916, Note_off_c, 5, 54, 0
6, 540000, Note_on_c, 5, 55, 78
6, 540156, Note_off_c, 5, 55, 0
6, 540240, Note_on_c, 5, 57, 78
6, 540396, Note_off_c, 5, 57, 0
6, 540480, Note_on_c, 5, 59, 77
6, 540636, Note_off_c, 5, 59, 0
6, 540720, Note_on_c, 5, 61, 77
6, 540876, Note_off_c, 5, 61, 0
6, 540960, Note_on_c, 5, 62, 76
6, 541116, Note_off_c, 5, 62, 0
6, 541200, Note_on_c, 5, 61, 76
6, 541356, Note_off_c, 5, 61, 0
6, 541440, Note_on_c, 5, 59, 75
6, 541596, Note_off_c, 5, 59, 0
6, 541680, Note_on_c, 5, 57, 75
6, 541836, Note_off_c, 5, 57, 0
6, 541920, Note_on_c, 5, 55, 74
6, 542076, Note_off_c, 5, 55, 0
6, 542160, Note_on_c, 5, 54, 74
6, 542316, Note_off_c, 5, 54, 0
6, 542400, Note_on_c, 5, 52, 73
6, 542556, Note_off_c, 5, 52, 0
6, 542640, Note_on_c, 5, 50, 73
6, 542796, Note_off_c, 5, 50, 0
6, 542880, Note_on_c, 5, 45, 72
6, 543240, Note_off_c, 5, 45, 0
6, 544320, Note_on_c, 5, 62, 53
6, 545520, Note_off_c, 5, 62, 0
6, 545760, Note_on_c, 5, 50, 51
6, 546960, Note_off_c, 5, 50, 0
6, 547200, Note_on_c, 5, 47, 49
6, 547356, Note_off_c, 5, 47, 0
6, 547680, Note_on_c, 5, 43, 48
6, 547836, Note_off_c, 5, 43, 0
6, 548160, Note_on_c, 5, 45, 47
6, 548316, Note_off_c, 5, 45, 0
6, 548640, Note_on_c, 5, 38, 46
6, 549000, Note_off_c, 5, 38, 0
6, 550080, Note_on_c, 5, 50, 75
6, 550236, Note_off_c, 5, 50, 0
6, 550320, Note_on_c, 5, 54, 75
6, 550476, Note_off_c, 5, 54, 0
6, 550560, Note_on_c, 5, 52, 75
6, 550716, Note_off_c, 5, 52, 0
6, 550800, Note_on_c, 5, 50, 74
6, 550956, Note_off_c, 5, 50, 0
6, 551040, Note_on_c, 5, 49, 74
6, 551196, Note_off_c, 5, 49, 0
6, 551280, Note_on_c, 5, 47, 73
6, 551436, Note_off_c, 5, 47, 0
6, 551520, Note_on_c, 5, 45, 73
6, 551676, Note_off_c, 5, 45, 0
6, 551760, Note_on_c, 5, 43, 72
6, 551916, Note_off_c, 5, 43, 0
6, 552000, Note_on_c, 5, 42, 72
6, 552156, Note_off_c, 5, 42, 0
6, 552240, Note_on_c, 5, 40, 71
6, 552396, Note_off_c, 5, 40, 0
6, 552480, Note_on_c, 5, 38, 71
6, 552636, Note_off_c, 5, 38, 0
6, 552720, Note_on_c, 5, 37, 71
6, 552876, Note_off_c, 5, 37, 0
6, 552960, Note_on_c, 5, 35, 70
6, 553116, Note_off_c, 5, 35, 0
6, 553440, Note_on_c, 5, 33, 69
6, 553596, Note_off_c, 5, 33, 0
6, 553920, Note_on_c, 5, 33, 68
6, 554076, Note_off_c, 5, 33, 0
6, 554520, Note_on_c, 5, 50, 67
6, 554640, Note_off_c, 5, 50, 0
6, 554640, Note_on_c, 5, 54, 67
6, 554760, Note_off_c, 5, 54, 0
6, 554760, Note_on_c, 5, 50, 67
6, 554880, Note_off_c, 5, 50, 0
6, 554880, Note_on_c, 5, 45, 67
6, 555000, Note_off_c, 5, 45, 0
6, 555000, Note_on_c, 5, 50, 66
6, 555120, Note_off_c, 5, 50, 0
6, 555120, Note_on_c, 5, 42, 66
6, 555240, Note_off_c, 5, 42, 0
6, 555240, Note_on_c, 5, 45, 66
6, 555360, Note_off_c, 5, 45, 0
6, 555360, Note_on_c, 5, 38, 66
6, 555648, Note_off_c, 5, 38, 0
6, 555840, Note_on_c, 5, 62, 51
6, 556200, Note_off_c, 5, 62, 0
6, 558720, Note_on_c, 5, 62, 47
6, 559080, Note_off_c, 5, 62, 0
6, 561600, Note_on_c, 5, 57, 42
6, 562320, Note_off_c, 5, 57, 0
6, 562560, Note_on_c, 5, 57, 41
6, 562920, Note_off_c, 5, 57, 0
6, 563040, Note_on_c, 5, 57, 40
6, 563400, Note_off_c, 5, 57, 0
6, 563520, Note_on_c, 5, 57, 39
6, 563880, Note_off_c, 5, 57, 0
6, 564000, Note_on_c, 5, 57, 39
6, 564360, Note_off_c, 5, 57, 0
6, 564480, Note_on_c, 5, 62, 40
6, 564840, Note_off_c, 5, 62, 0
6, 567840, Note_on_c, 5, 62, 51
6, 568200, Note_off_c, 5, 62, 0
6, 568320, Note_on_c, 5, 62, 50
6, 568680, Note_off_c, 5, 62, 0
6, 570720, Note_on_c, 5, 62, 47
6, 571080, Note_off_c, 5, 62, 0
6, 571200, Note_on_c, 5, 62, 47
6, 571560, Note_off_c, 5, 62, 0
6, 573120, Note_on_c, 5, 57, 45
6, 573840, Note_off_c, 5, 57, 0
6, 574080, Note_on_c, 5, 57, 43
6, 575880, Note_off_c, 5, 57, 0
6, 576000, Note_on_c, 5, 62, 41
6, 577320, Note_off_c, 5, 62, 0
6, 577440, Note_on_c, 5, 56, 52
6, 577680, Note_off_c, 5, 56, 0
6, 577680, Note_on_c, 5, 57, 45
6, 577800, Note_off_c, 5, 57, 0
6, 577920, Note_on_c, 5, 53, 56
6, 578160, Note_off_c, 5, 53, 0
6, 578160, Note_on_c, 5, 54, 50
6, 578280, Note_off_c, 5, 54, 0
6, 578400, Note_on_c, 5, 49, 61
6, 578640, Note_off_c, 5, 49, 0
6, 578640, Note_on_c, 5, 50, 54
6, 578760, Note_off_c, 5, 50, 0
6, 578880, Note_on_c, 5, 45, 68
6, 581647, Note_off_c, 5, 45, 0
6, 584640, Note_on_c, 5, 50, 65
6, 587349, Note_off_c, 5, 50, 0
6, 590400, Control_c, 5, 64, 0
6, 590400, Note_on_c, 5, 62, 66
6, 593167, Note_off_c, 5, 62, 0
6, 593280, Note_on_c, 5, 62, 69
6, 596047, Note_off_c, 5, 62, 0
6, 596160, Note_on_c, 5, 62, 67
6, 596520, Note_off_c, 5, 62, 0
6, 597120, Note_on_c, 5, 61, 70
6, 597480, Note_off_c, 5, 61, 0
6, 598080, Control_c, 5, 64, 0
6, 598080, Note_on_c, 5, 62, 72
6, 598440, Note_off_c, 5, 62, 0
6, 599040, Note_on_c, 5, 57, 77
6, 601320, Note_off_c, 5, 57, 0
6, 602400, Note_on_c, 5, 62, 53
6, 602760, Note_off_c, 5, 62, 0
6, 602880, Note_on_c, 5, 62, 53
6, 603240, Note_off_c, 5, 62, 0
6, 605280, Note_on_c, 5, 62, 49
6, 605640, Note_off_c, 5, 62, 0
6, 605760, Control_c, 5, 64, 0
6, 605760, Note_on_c, 5, 62, 48
6, 606120, Note_off_c, 5, 62, 0
6, 607680, Note_on_c, 5, 57, 46
6, 608400, Note_off_c, 5, 57, 0
6, 608640, Note_on_c, 5, 57, 44
6, 610440, Note_off_c, 5, 57, 0
6, 610680, Note_on_c, 5, 38, 40
6, 610800, Note_off_c, 5, 38, 0
6, 610800, Note_on_c, 5, 40, 41
6, 610920, Note_off_c, 5, 40, 0
6, 610920, Note_on_c, 5, 42, 41
6, 611040, Note_off_c, 5, 42, 0
6, 611040, Note_on_c, 5, 43, 42
6, 611160, Note_off_c, 5, 43, 0
6, 611160, Note_on_c, 5, 45, 43
6, 611280, Note_off_c, 5, 45, 0
6, 611280, Note_on_c, 5, 47, 44
6, 611400, Note_off_c, 5, 47, 0
6, 611400, Note_on_c, 5, 49, 45
6, 611520, Note_off_c, 5, 49, 0
6, 611520, Note_on_c, 5, 50, 46
6, 611640, Note_off_c, 5, 50, 0
6, 611640, Note_on_c, 5, 52, 46
6, 611760, Note_off_c, 5, 52, 0
6, 611760, Note_on_c, 5, 54, 47
6, 611880, Note_off_c, 5, 54, 0
6, 611880, Note_on_c, 5, 55, 48
6, 612000, Note_off_c, 5, 55, 0
6, 612000, Note_on_c, 5, 57, 49
6, 612120, Note_off_c, 5, 57, 0
6, 612120, Note_on_c, 5, 59, 50
6, 612240, Note_off_c, 5, 59, 0
6, 612240, Note_on_c, 5, 61, 50
6, 612360, Note_off_c, 5, 61, 0
6, 612360, Note_on_c, 5, 62, 51
6, 612480, Note_off_c, 5, 62, 0
6, 612480, Note_on_c, 5, 64, 52
6, 612600, Note_off_c, 5, 64, 0
6, 612600, Note_on_c, 5, 66, 53
6, 612720, Note_off_c, 5, 66, 0
6, 612720, Note_on_c, 5, 67, 54
6, 612840, Note_off_c, 5, 67, 0
6, 612840, Note_on_c, 5, 69, 55
6, 612960, Note_off_c, 5, 69, 0
6, 612960, Note_on_c, 5, 71, 55
6, 613040, Note_off_c, 5, 71, 0
6, 613040, Note_on_c, 5, 73, 56
6, 613120, Note_off_c, 5, 73, 0
6, 613120, Note_on_c, 5, 74, 56
6, 613200, Note_off_c, 5, 74, 0
6, 613200, Note_on_c, 5, 76, 57
6, 613280, Note_off_c, 5, 76, 0
6, 613280, Note_on_c, 5, 78, 58
6, 613360, Note_off_c, 5, 78, 0
6, 613360, Note_on_c, 5, 79, 58
6, 613424, Note_off_c, 5, 79, 0
6, 613600, Note_on_c, 5, 50, 54
6, 613720, Note_off_c, 5, 50, 0
6, 613720, Note_on_c, 5, 52, 55
6, 613840, Note_off_c, 5, 52, 0
6, 613840, Note_on_c, 5, 54, 55
6, 613960, Note_off_c, 5, 54, 0
6, 613960, Note_on_c, 5, 55, 56
6, 614080, Note_off_c, 5, 55, 0
6, 614080, Note_on_c, 5, 57, 57
6, 614200, Note_off_c, 5, 57, 0
6, 614200, Note_on_c, 5, 59, 57
6, 614320, Note_off_c, 5, 59, 0
6, 614320, Note_on_c, 5, 61, 58
6, 614440, Note_off_c, 5, 61, 0
6, 614440, Note_on_c, 5, 62, 59
6, 614560, Note_off_c, 5, 62, 0
6, 614560, Note_on_c, 5, 64, 59
6, 614680, Note_off_c, 5, 64, 0
6, 614680, Note_on_c, 5, 66, 60
6, 614800, Note_off_c, 5, 66, 0
6, 614800, Note_on_c, 5, 67, 61
6, 614920, Note_off_c, 5, 67, 0
6, 614920, Note_on_c, 5, 69, 61
6, 615040, Note_off_c, 5, 69, 0
6, 615040, Note_on_c, 5, 71, 62
6, 615160, Note_off_c, 5, 71, 0
6, 615160, Note_on_c, 5, 73, 63
6, 615280, Note_off_c, 5, 73, 0
6, 615280, Note_on_c, 5, 74, 63
6, 615360, Note_on_c, 5, 62, 64
6, 615400, Note_off_c, 5, 74, 0
6, 615720, Note_off_c, 5, 62, 0
6, 616440, Note_on_c, 5, 38, 64
6, 616560, Note_off_c, 5, 38, 0
6, 616560, Note_on_c, 5, 40, 65
6, 616680, Note_off_c, 5, 40, 0
6, 616680, Note_on_c, 5, 42, 65
6, 616800, Note_off_c, 5, 42, 0
6, 616800, Note_on_c, 5, 43, 66
6, 616920, Note_off_c, 5, 43, 0
6, 616920, Note_on_c, 5, 45, 67
6, 617040, Note_off_c, 5, 45, 0
6, 617040, Note_on_c, 5, 47, 68
6, 617160, Note_off_c, 5, 47, 0
6, 617160, Note_on_c, 5, 49, 68
6, 617280, Note_off_c, 5, 49, 0
6, 617280, Note_on_c, 5, 50, 69
6, 617400, Note_off_c, 5, 50, 0
6, 617400, Note_on_c, 5, 52, 70
6, 617520, Note_off_c, 5, 52, 0
6, 617520, Note_on_c, 5, 54, 71
6, 617640, Note_off_c, 5, 54, 0
6, 617640, Note_on_c, 5, 55, 71
6, 617760, Note_off_c, 5, 55, 0
6, 617760, Note_on_c, 5, 57, 72
6, 617880, Note_off_c, 5, 57, 0
6, 617880, Note_on_c, 5, 59, 73
6, 618000, Note_off_c, 5, 59, 0
6, 618000, Note_on_c, 5, 61, 73
6, 618120, Note_off_c, 5, 61, 0
6, 618120, Note_on_c, 5, 62, 74
6, 618240, Note_off_c, 5, 62, 0
6, 618240, Note_on_c, 5, 50, 75
6, 618600, Note_off_c, 5, 50, 0
6, 619200, Note_on_c, 5, 57, 81
6, 621847, Note_off_c, 5, 57, 0
6, 622080, Note_on_c, 5, 50, 56
6, 622080, Note_on_c, 5, 38, 56
6, 623760, Note_off_c, 5, 38, 0
6, 623760, Note_off_c, 5, 50, 0
6, 624960, Note_on_c, 5, 62, 52
6, 625116, Note_off_c, 5, 62, 0
6, 625920, Note_on_c, 5, 62, 48
6, 626076, Note_off_c, 5, 62, 0
6, 626880, Note_on_c, 5, 62, 44
6, 627036, Note_off_c, 5, 62, 0
6, 627120, Note_on_c, 5, 62, 44
6, 627276, Note_off_c, 5, 62, 0
6, 627360, Note_on_c, 5, 57, 44
6, 627516, Note_off_c, 5, 57, 0
6, 627600, Note_on_c, 5, 57, 43
6, 627756, Note_off_c, 5, 57, 0
6, 627840, Note_on_c, 5, 62, 42
6, 628200, Note_off_c, 5, 62, 0
6, 628800, Note_on_c, 5, 50, 77
6, 628956, Note_off_c, 5, 50, 0
6, 629040, Note_on_c, 5, 54, 77
6, 629196, Note_off_c, 5, 54, 0
6, 629280, Note_on_c, 5, 57, 76
6, 629436, Note_off_c, 5, 57, 0
6, 629520, Note_on_c, 5, 61, 76
6, 629676, Note_off_c, 5, 61, 0
6, 629760, Note_on_c, 5, 50, 75
6, 629916, Note_off_c, 5, 50, 0
6, 630000, Note_on_c, 5, 54, 74
6, 630156, Note_off_c, 5, 54, 0
6, 630240, Note_on_c, 5, 57, 74
6, 630396, Note_off_c, 5, 57, 0
6, 630480, Note_on_c, 5, 61, 73
6, 630636, Note_off_c, 5, 61, 0
6, 630720, Note_on_c, 5, 59, 72
6, 630876, Note_off_c, 5, 59, 0
6, 631200, Note_on_c, 5, 57, 71
6, 631356, Note_off_c, 5, 57, 0
6, 631920, Note_on_c, 5, 57, 66
6, 632076, Note_off_c, 5, 57, 0
6, 632160, Note_on_c, 5, 50, 64
6, 632316, Note_off_c, 5, 50, 0
6, 632640, Note_on_c, 5, 62, 52
6, 632796, Note_off_c, 5, 62, 0
6, 633600, Note_on_c, 5, 62, 48
6, 633756, Note_off_c, 5, 62, 0
6, 634560, Note_on_c, 5, 62, 44
6, 634716, Note_off_c, 5, 62, 0
6, 634800, Note_on_c, 5, 62, 44
6, 634956, Note_off_c, 5, 62, 0
6, 635040, Note_on_c, 5, 57, 44
6, 635196, Note_off_c, 5, 57, 0
6, 635280, Note_on_c, 5, 57, 43
6, 635436, Note_off_c, 5, 57, 0
6, 635520, Note_on_c, 5, 62, 42
6, 635880, Note_off_c, 5, 62, 0
6, 636480, Note_on_c, 5, 50, 77
6, 636636, Note_off_c, 5, 50, 0
6, 636720, Note_on_c, 5, 54, 77
6, 636876, Note_off_c, 5, 54, 0
6, 636960, Note_on_c, 5, 57, 76
6, 637116, Note_off_c, 5, 57, 0
6, 637200, Note_on_c, 5, 61, 76
6, 637356, Note_off_c, 5, 61, 0
6, 637440, Note_on_c, 5, 50, 75
6, 637596, Note_off_c, 5, 50, 0
6, 637680, Note_on_c, 5, 54, 74
6, 637836, Note_off_c, 5, 54, 0
6, 637920, Note_on_c, 5, 57, 74
6, 638076, Note_off_c, 5, 57, 0
6, 638160, Note_on_c, 5, 61, 73
6, 638316, Note_off_c, 5, 61, 0
6, 638400, Note_on_c, 5, 59, 72
6, 638556, Note_off_c, 5, 59, 0
6, 638880, Note_on_c, 5, 57, 71
6, 639036, Note_off_c, 5, 57, 0
6, 639600, Note_on_c, 5, 57, 66
6, 639756, Note_off_c, 5, 57, 0
6, 639840, Note_on_c, 5, 50, 64
6, 639996, Note_off_c, 5, 50, 0
6, 640320, Note_on_c, 5, 43, 85
6, 640320, Note_on_c, 5, 55, 85
6, 640680, Note_off_c, 5, 55, 0
6, 640680, Note_off_c, 5, 43, 0
6, 640800, Note_on_c, 5, 54, 88
6, 640800, Note_on_c, 5, 42, 88
6, 641160, Note_off_c, 5, 42, 0
6, 641160, Note_off_c, 5, 54, 0
6, 641280, Note_on_c, 5, 37, 92
6, 641280, Note_on_c, 5, 49, 92
6, 641640, Note_off_c, 5, 49, 0
6, 641640, Note_off_c, 5, 37, 0
6, 642240, Note_on_c, 5, 62, 50
6, 642396, Note_off_c, 5, 62, 0
6, 642480, Note_on_c, 5, 62, 47
6, 642636, Note_off_c, 5, 62, 0
6, 642720, Note_on_c, 5, 64, 45
6, 642876, Note_off_c, 5, 64, 0
6, 642960, Note_on_c, 5, 64, 43
6, 643116, Note_off_c, 5, 64, 0
6, 643200, Control_c, 5, 64, 0
6, 643200, Note_on_c, 5, 66, 41
6, 643560, Note_off_c, 5, 66, 0
6, 645120, Note_on_c, 5, 67, 81
6, 645780, Note_off_c, 5, 67, 0
6, 645840, Note_on_c, 5, 66, 73
6, 646032, Note_off_c, 5, 66, 0
6, 646080, Note_on_c, 5, 64, 70
6, 646272, Note_off_c, 5, 64, 0
6, 646320, Note_on_c, 5, 69, 67
6, 646512, Note_off_c, 5, 69, 0
6, 646560, Note_on_c, 5, 71, 64
6, 646752, Note_off_c, 5, 71, 0
6, 646800, Note_on_c, 5, 68, 61
6, 646992, Note_off_c, 5, 68, 0
6, 647040, Note_on_c, 5, 69, 59
6, 647400, Note_off_c, 5, 69, 0
6, 648000, Note_on_c, 5, 62, 55
6, 648156, Note_off_c, 5, 62, 0
6, 648960, Note_on_c, 5, 62, 52
6, 649116, Note_off_c, 5, 62, 0
6, 649920, Note_on_c, 5, 62, 50
6, 650076, Note_off_c, 5, 62, 0
6, 650160, Note_on_c, 5, 62, 50
6, 650316, Note_off_c, 5, 62, 0
6, 650400, Note_on_c, 5, 57, 49
6, 650556, Note_off_c, 5, 57, 0
6, 650640, Note_on_c, 5, 57, 48
6, 650796, Note_off_c, 5, 57, 0
6, 650880, Note_on_c, 5, 62, 48
6, 651240, Note_off_c, 5, 62, 0
6, 651840, Note_on_c, 5, 50, 83
6, 651996, Note_off_c, 5, 50, 0
6, 652080, Note_on_c, 5, 54, 83
6, 652236, Note_off_c, 5, 54, 0
6, 652320, Note_on_c, 5, 57, 82
6, 652476, Note_off_c, 5, 57, 0
6, 652560, Note_on_c, 5, 61, 82
6, 652716, Note_off_c, 5, 61, 0
6, 652800, Note_on_c, 5, 50, 81
6, 652956, Note_off_c, 5, 50, 0
6, 653040, Note_on_c, 5, 54, 81
6, 653196, Note_off_c, 5, 54, 0
6, 653280, Note_on_c, 5, 57, 81
6, 653436, Note_off_c, 5, 57, 0
6, 653520, Note_on_c, 5, 61, 80
6, 653676, Note_off_c, 5, 61, 0
6, 653760, Note_on_c, 5, 59, 80
6, 653916, Note_off_c, 5, 59, 0
6, 654240, Note_on_c, 5, 57, 79
6, 654396, Note_off_c, 5, 57, 0
6, 654960, Note_on_c, 5, 57, 76
6, 655116, Note_off_c, 5, 57, 0
6, 655200, Note_on_c, 5, 50, 75
6, 655356, Note_off_c, 5, 50, 0
6, 655680, Note_on_c, 5, 55, 85
6, 655680, Note_on_c, 5, 43, 85
6, 656040, Note_off_c, 5, 43, 0
6, 656040, Note_off_c, 5, 55, 0
6, 656160, Note_on_c, 5, 42, 88
6, 656160, Note_on_c, 5, 54, 88
6, 656520, Note_off_c, 5, 54, 0
6, 656520, Note_off_c, 5, 42, 0
6, 656640, Note_on_c, 5, 49, 92
6, 656640, Note_on_c, 5, 37, 92
6, 657000, Note_off_c, 5, 37, 0
6, 657000, Note_off_c, 5, 49, 0
6, 657600, Note_on_c, 5, 62, 50
6, 657756, Note_off_c, 5, 62, 0
6, 657840, Note_on_c, 5, 62, 47
6, 657996, Note_off_c, 5, 62, 0
6, 658080, Note_on_c, 5, 64, 45
6, 658236, Note_off_c, 5, 64, 0
6, 658320, Note_on_c, 5, 64, 43
6, 658476, Note_off_c, 5, 64, 0
6, 658560, Control_c, 5, 64, 0
6, 658560, Note_on_c, 5, 66, 41
6, 658920, Note_off_c, 5, 66, 0
6, 660480, Note_on_c, 5, 67, 81
6, 661140, Note_off_c, 5, 67, 0
6, 661200, Note_on_c, 5, 66, 73
6, 661392, Note_off_c, 5, 66, 0
6, 661440, Note_on_c, 5, 64, 70
6, 661632, Note_off_c, 5, 64, 0
6, 661680, Note_on_c, 5, 69, 67
6, 661872, Note_off_c, 5, 69, 0
6, 661920, Note_on_c, 5, 71, 64
6, 662112, Note_off_c, 5, 71, 0
6, 662160, Note_on_c, 5, 68, 61
6, 662352, Note_off_c, 5, 68, 0
6, 662400, Note_on_c, 5, 69, 59
6, 662760, Note_off_c, 5, 69, 0
6, 663360, Note_on_c, 5, 62, 55
6, 663516, Note_off_c, 5, 62, 0
6, 664320, Note_on_c, 5, 62, 52
6, 664476, Note_off_c, 5, 62, 0
6, 665280, Note_on_c, 5, 62, 50
6, 665436, Note_off_c, 5, 62, 0
6, 665520, Note_on_c, 5, 62, 50
6, 665676, Note_off_c, 5, 62, 0
6, 665760, Note_on_c, 5, 57, 49
6, 665916, Note_off_c, 5, 57, 0
6, 666000, Note_on_c, 5, 57, 48
6, 666156, Note_off_c, 5, 57, 0
6, 666240, Note_on_c, 5, 62, 48
6, 666600, Note_off_c, 5, 62, 0
6, 667200, Note_on_c, 5, 50, 83
6, 667356, Note_off_c, 5, 50, 0
6, 667440, Note_on_c, 5, 54, 83
6, 667596, Note_off_c, 5, 54, 0
6, 667680, Note_on_c, 5, 57, 82
6, 667836, Note_off_c, 5, 57, 0
6, 667920, Note_on_c, 5, 61, 82
6, 668076, Note_off_c, 5, 61, 0
6, 668160, Note_on_c, 5, 50, 81
6, 668316, Note_off_c, 5, 50, 0
6, 668400, Note_on_c, 5, 54, 81
6, 668556, Note_off_c, 5, 54, 0
6, 668640, Note_on_c, 5, 57, 81
6, 668796, Note_off_c, 5, 57, 0
6, 668880, Note_on_c, 5, 61, 80
6, 669036, Note_off_c, 5, 61, 0
6, 669120, Note_on_c, 5, 59, 80
6, 669276, Note_off_c, 5, 59, 0
6, 669600, Note_on_c, 5, 57, 79
6, 669756, Note_off_c, 5, 57, 0
6, 670320, Note_on_c, 5, 57, 76
6, 670476, Note_off_c, 5, 57, 0
6, 670560, Note_on_c, 5, 50, 75
6, 670716, Note_off_c, 5, 50, 0
6, 671040, Note_on_c, 5, 54, 47
6, 671196, Note_off_c, 5, 54, 0
6, 671280, Note_on_c, 5, 54, 45
6, 671436, Note_off_c, 5, 54, 0
6, 671520, Note_on_c, 5, 54, 43
6, 671676, Note_off_c, 5, 54, 0
6, 671760, Note_on_c, 5, 54, 41
6, 671916, Note_off_c, 5, 54, 0
6, 672000, Note_on_c, 5, 55, 39
6, 672360, Note_off_c, 5, 55, 0
6, 672960, Note_on_c, 5, 57, 39
6, 673116, Note_off_c, 5, 57, 0
6, 673200, Note_on_c, 5, 57, 38
6, 673356, Note_off_c, 5, 57, 0
6, 673440, Note_on_c, 5, 57, 36
6, 673596, Note_off_c, 5, 57, 0
6, 673680, Note_on_c, 5, 57, 34
6, 673836, Note_off_c, 5, 57, 0
6, 673920, Note_on_c, 5, 59, 32
6, 674280, Note_off_c, 5, 59, 0
6, 674880, Note_on_c, 5, 58, 58
6, 675840, Note_off_c, 5, 58, 0
6, 675840, Note_on_c, 5, 57, 64
6, 676200, Note_off_c, 5, 57, 0
6, 676560, Note_on_c, 5, 58, 75
6, 676560, Note_on_c, 5, 46, 75
6, 676716, Note_off_c, 5, 46, 0
6, 676716, Note_off_c, 5, 58, 0
6, 676800, Note_on_c, 5, 57, 72
6, 676800, Note_on_c, 5, 45, 72
6, 677467, Note_off_c, 5, 45, 0
6, 677467, Note_off_c, 5, 57, 0
6, 677520, Note_on_c, 5, 46, 82
6, 677520, Note_on_c, 5, 58, 82
6, 677676, Note_off_c, 5, 58, 0
6, 677676, Note_off_c, 5, 46, 0
6, 677760, Note_on_c, 5, 45, 80
6, 677760, Note_on_c, 5, 57, 80
6, 678427, Note_off_c, 5, 57, 0
6, 678427, Note_off_c, 5, 45, 0
6, 678480, Note_on_c, 5, 46, 89
6, 678480, Note_on_c, 5, 58, 89
6, 678636, Note_off_c, 5, 58, 0
6, 678636, Note_off_c, 5, 46, 0
6, 678720, Note_on_c, 5, 45, 81
6, 678720, Note_on_c, 5, 57, 81
6, 678876, Note_off_c, 5, 57, 0
6, 678876, Note_off_c, 5, 45, 0
6, 678960, Note_on_c, 5, 58, 93
6, 678960, Note_on_c, 5, 46, 93
6, 679116, Note_off_c, 5, 46, 0
6, 679116, Note_off_c, 5, 58, 0
6, 679200, Note_on_c, 5, 57, 84
6, 679200, Note_on_c, 5, 45, 84
6, 679356, Note_off_c, 5, 45, 0
6, 679356, Note_off_c, 5, 57, 0
6, 679440, Note_on_c, 5, 58, 99
6, 679440, Note_on_c, 5, 46, 99
6, 679596, Note_off_c, 5, 46, 0
6, 679596, Note_off_c, 5, 58, 0
6, 679680, Note_on_c, 5, 57, 104
6, 679680, Note_on_c, 5, 69, 104
6, 681600, Note_off_c, 5, 69, 0
6, 681600, Note_off_c, 5, 57, 0
6, 681600, Note_on_c, 5, 45, 81
6, 681600, Note_on_c, 5, 57, 81
6, 683520, Note_off_c, 5, 57, 0
6, 683520, Note_off_c, 5, 45, 0
6, 683520, Note_on_c, 5, 45, 65
6, 683520, Note_on_c, 5, 33, 65
6, 685440, Note_off_c, 5, 33, 0
6, 685440, Note_off_c, 5, 45, 0
6, 689520, Note_on_c, 5, 40, 67
6, 689760, Note_off_c, 5, 40, 0
6, 689760, Note_on_c, 5, 38, 68
6, 690000, Note_off_c, 5, 38, 0
6, 690000, Note_on_c, 5, 37, 70
6, 690192, Note_off_c, 5, 37, 0
6, 690480, Note_on_c, 5, 40, 73
6, 690720, Note_off_c, 5, 40, 0
6, 690720, Note_on_c, 5, 38, 74
6, 690960, Note_off_c, 5, 38, 0
6, 690960, Note_on_c, 5, 37, 75
6, 691152, Note_off_c, 5, 37, 0
6, 691200, Note_on_c, 5, 37, 77
6, 691440, Note_off_c, 5, 37, 0
6, 691440, Note_on_c, 5, 38, 78
6, 691632, Note_off_c, 5, 38, 0
6, 691680, Note_on_c, 5, 38, 80
6, 691920, Note_off_c, 5, 38, 0
6, 691920, Note_on_c, 5, 40, 81
6, 692112, Note_off_c, 5, 40, 0
6, 692160, Note_on_c, 5, 40, 82
6, 692520, Note_off_c, 5, 40, 0
6, 692640, Note_on_c, 5, 38, 87
6, 693000, Note_off_c, 5, 38, 0
6, 693120, Note_on_c, 5, 37, 90
6, 693480, Note_off_c, 5, 37, 0
6, 693600, Note_on_c, 5, 34, 93
6, 693960, Note_off_c, 5, 34, 0
6, 694080, Note_on_c, 5, 33, 98
6, 700158, Note_off_c, 5, 33, 0
6, 700800, Note_on_c, 5, 62, 57
6, 702210, Note_off_c, 5, 62, 0
6, 702240, Note_on_c, 5, 62, 55
6, 703650, Note_off_c, 5, 62, 0
6, 703680, Note_on_c, 5, 57, 53
6, 704640, Note_off_c, 5, 57, 0
6, 704640, Note_on_c, 5, 61, 52
6, 705097, Note_off_c, 5, 61, 0
6, 705120, Note_on_c, 5, 62, 51
6, 705480, Note_off_c, 5, 62, 0
6, 706560, Note_on_c, 5, 62, 48
6, 706920, Note_off_c, 5, 62, 0
6, 708000, Note_on_c, 5, 62, 46
6, 708360, Note_off_c, 5, 62, 0
6, 709440, Note_on_c, 5, 57, 47
6, 710400, Note_off_c, 5, 57, 0
6, 710400, Note_on_c, 5, 61, 45
6, 710857, Note_off_c, 5, 61, 0
6, 710880, Note_on_c, 5, 62, 44
6, 711240, Note_off_c, 5, 62, 0
6, 712320, Note_on_c, 5, 57, 40
6, 713280, Note_off_c, 5, 57, 0
6, 713280, Note_on_c, 5, 61, 38
6, 713737, Note_off_c, 5, 61, 0
6, 713760, Note_on_c, 5, 62, 37
6, 714120, Note_off_c, 5, 62, 0
6, 715200, Note_on_c, 5, 45, 96
6, 716160, Note_off_c, 5, 45, 0
6, 716160, Note_on_c, 5, 49, 89
6, 716617, Note_off_c, 5, 49, 0
6, 716640, Note_on_c, 5, 50, 86
6, 717000, Note_off_c, 5, 50, 0
6, 717600, Note_on_c, 5, 45, 105
6, 717600, Note_on_c, 5, 57, 105
6, 717960, Note_off_c, 5, 57, 0
6, 717960, Note_off_c, 5, 45, 0
6, 718080, Note_on_c, 5, 38, 99
6, 718080, Note_on_c, 5, 50, 99
6, 718440, Note_off_c, 5, 50, 0
6, 718440, Note_off_c, 5, 38, 0
6, 718440, End_track
0, 0, End_of_file