0, 0, Header, 1, 3, 192
1, 0, Start_track
1, 0, Title_t, "Sonatina 21"
1, 0, Text_t, "By W. A. Mozart"
1, 0, Copyright_t, "Copyright \251 <Year> by <Name>"
1, 0, Copyright_t, "All Rights Reserved"
1, 0, Text_t, "Generated by NoteWorthy Composer"
1, 0, Tempo, 461538
1, 0, Key_signature, 3, "major"
1, 0, Time_signature, 4, 2, 24, 8
1, 8448, Tempo, 461538
1, 8448, End_track
2, 0, Start_track
2, 0, MIDI_port, 0
2, 0, Title_t, "Right Hand"
2, 0, Program_c, 0, 0
2, 0, Control_c, 0, 7, 127
2, 0, Control_c, 0, 10, 64
2, 0, Note_on_c, 0, 64, 92
2, 24, Note_on_c, 0, 64, 0
2, 24, Note_on_c, 0, 69, 92
2, 48, Note_on_c, 0, 69, 0
2, 48, Note_on_c, 0, 73, 92
2, 72, Note_on_c, 0, 73, 0
2, 72, Note_on_c, 0, 76, 92
2, 352, Note_on_c, 0, 76, 0
2, 384, Note_on_c, 0, 73, 92
2, 720, Note_on_c, 0, 73, 0
2, 768, Note_on_c, 0, 76, 92
2, 864, Note_on_c, 0, 76, 0
2, 864, Note_on_c, 0, 74, 92
2, 958, Note_on_c, 0, 74, 0
2, 960, Note_on_c, 0, 71, 92
2, 992, Note_on_c, 0, 71, 0
2, 1056, Note_on_c, 0, 68, 92
2, 1088, Note_on_c, 0, 68, 0
2, 1152, Note_on_c, 0, 69, 92
2, 1312, Note_on_c, 0, 69, 0
2, 1440, Note_on_c, 0, 64, 92
2, 1536, Note_on_c, 0, 64, 0
2, 1536, Note_on_c, 0, 66, 92
2, 1568, Note_on_c, 0, 66, 0
2, 1632, Note_on_c, 0, 68, 92
2, 1664, Note_on_c, 0, 68, 0
2, 1728, Note_on_c, 0, 69, 92
2, 1760, Note_on_c, 0, 69, 0
2, 1824, Note_on_c, 0, 71, 92
2, 1856, Note_on_c, 0, 71, 0
2, 1920, Note_on_c, 0, 73, 92
2, 1952, Note_on_c, 0, 73, 0
2, 2016, Note_on_c, 0, 74, 92
2, 2048, Note_on_c, 0, 74, 0
2, 2112, Note_on_c, 0, 76, 92
2, 2144, Note_on_c, 0, 76, 0
2, 2208, Note_on_c, 0, 74, 92
2, 2208, Note_on_c, 0, 78, 92
2, 2304, Note_on_c, 0, 74, 0
2, 2304, Note_on_c, 0, 78, 0
2, 2304, Note_on_c, 0, 73, 92
2, 2304, Note_on_c, 0, 76, 92
2, 2398, Note_on_c, 0, 73, 0
2, 2398, Note_on_c, 0, 76, 0
2, 2400, Note_on_c, 0, 71, 92
2, 2400, Note_on_c, 0, 74, 92
2, 2560, Note_on_c, 0, 71, 0
2, 2560, Note_on_c, 0, 74, 0
2, 2592, Note_on_c, 0, 69, 92
2, 2592, Note_on_c, 0, 73, 92
2, 2686, Note_on_c, 0, 69, 0
2, 2686, Note_on_c, 0, 73, 0
2, 2688, Note_on_c, 0, 69, 92
2, 2688, Note_on_c, 0, 73, 92
2, 2784, Note_on_c, 0, 69, 0
2, 2784, Note_on_c, 0, 73, 0
2, 2784, Note_on_c, 0, 68, 92
2, 2784, Note_on_c, 0, 71, 92
2, 2878, Note_on_c, 0, 68, 0
2, 2878, Note_on_c, 0, 71, 0
2, 3072, Note_on_c, 0, 64, 92
2, 3096, Note_on_c, 0, 64, 0
2, 3096, Note_on_c, 0, 69, 92
2, 3120, Note_on_c, 0, 69, 0
2, 3120, Note_on_c, 0, 73, 92
2, 3144, Note_on_c, 0, 73, 0
2, 3144, Note_on_c, 0, 76, 92
2, 3424, Note_on_c, 0, 76, 0
2, 3456, Note_on_c, 0, 73, 92
2, 3792, Note_on_c, 0, 73, 0
2, 3840, Note_on_c, 0, 76, 92
2, 3936, Note_on_c, 0, 76, 0
2, 3936, Note_on_c, 0, 74, 92
2, 4030, Note_on_c, 0, 74, 0
2, 4032, Note_on_c, 0, 71, 92
2, 4064, Note_on_c, 0, 71, 0
2, 4128, Note_on_c, 0, 68, 92
2, 4160, Note_on_c, 0, 68, 0
2, 4224, Note_on_c, 0, 69, 92
2, 4384, Note_on_c, 0, 69, 0
2, 4512, Note_on_c, 0, 64, 92
2, 4608, Note_on_c, 0, 64, 0
2, 4608, Note_on_c, 0, 66, 92
2, 4640, Note_on_c, 0, 66, 0
2, 4704, Note_on_c, 0, 68, 92
2, 4736, Note_on_c, 0, 68, 0
2, 4800, Note_on_c, 0, 69, 92
2, 4832, Note_on_c, 0, 69, 0
2, 4896, Note_on_c, 0, 71, 92
2, 4928, Note_on_c, 0, 71, 0
2, 4992, Note_on_c, 0, 73, 92
2, 5024, Note_on_c, 0, 73, 0
2, 5088, Note_on_c, 0, 74, 92
2, 5120, Note_on_c, 0, 74, 0
2, 5184, Note_on_c, 0, 76, 92
2, 5216, Note_on_c, 0, 76, 0
2, 5280, Note_on_c, 0, 71, 92
2, 5280, Note_on_c, 0, 80, 92
2, 5312, Note_on_c, 0, 71, 0
2, 5312, Note_on_c, 0, 80, 0
2, 5376, Note_on_c, 0, 73, 92
2, 5376, Note_on_c, 0, 81, 92
2, 5760, Note_on_c, 0, 81, 0
2, 5760, Note_on_c, 0, 78, 92
2, 5904, Note_on_c, 0, 73, 0
2, 5952, Note_on_c, 0, 69, 92
2, 6112, Note_on_c, 0, 69, 0
2, 6112, Note_on_c, 0, 78, 0
2, 6144, Note_on_c, 0, 66, 92
2, 6144, Note_on_c, 0, 75, 92
2, 6240, Note_on_c, 0, 66, 0
2, 6240, Note_on_c, 0, 68, 92
2, 6288, Note_on_c, 0, 68, 0
2, 6288, Note_on_c, 0, 69, 92
2, 6336, Note_on_c, 0, 69, 0
2, 6336, Note_on_c, 0, 71, 92
2, 6404, Note_on_c, 0, 71, 0
2, 6432, Note_on_c, 0, 69, 92
2, 6480, Note_on_c, 0, 75, 0
2, 6500, Note_on_c, 0, 69, 0
2, 6528, Note_on_c, 0, 68, 92
2, 6528, Note_on_c, 0, 76, 92
2, 6622, Note_on_c, 0, 68, 0
2, 6622, Note_on_c, 0, 76, 0
2, 6720, Note_on_c, 0, 68, 45
2, 6720, Note_on_c, 0, 74, 45
2, 6912, Note_on_c, 0, 68, 0
2, 6912, Note_on_c, 0, 74, 0
2, 6912, Note_on_c, 0, 69, 45
2, 6912, Note_on_c, 0, 73, 45
2, 7006, Note_on_c, 0, 69, 0
2, 7006, Note_on_c, 0, 73, 0
2, 7104, Note_on_c, 0, 69, 45
2, 7104, Note_on_c, 0, 75, 45
2, 7152, Note_on_c, 0, 75, 0
2, 7152, Note_on_c, 0, 76, 45
2, 7200, Note_on_c, 0, 76, 0
2, 7200, Note_on_c, 0, 78, 45
2, 7248, Note_on_c, 0, 78, 0
2, 7248, Note_on_c, 0, 75, 45
2, 7264, Note_on_c, 0, 69, 0
2, 7296, Note_on_c, 0, 75, 0
2, 7296, Note_on_c, 0, 68, 45
2, 7296, Note_on_c, 0, 76, 45
2, 7390, Note_on_c, 0, 68, 0
2, 7390, Note_on_c, 0, 76, 0
2, 7488, Note_on_c, 0, 74, 45
2, 7488, Note_on_c, 0, 80, 45
2, 7680, Note_on_c, 0, 74, 0
2, 7680, Note_on_c, 0, 80, 0
2, 7680, Note_on_c, 0, 73, 45
2, 7680, Note_on_c, 0, 81, 45
2, 7774, Note_on_c, 0, 73, 0
2, 7774, Note_on_c, 0, 81, 0
2, 7872, Note_on_c, 0, 69, 45
2, 7872, Note_on_c, 0, 75, 45
2, 7920, Note_on_c, 0, 75, 0
2, 7920, Note_on_c, 0, 76, 45
2, 7968, Note_on_c, 0, 76, 0
2, 7968, Note_on_c, 0, 78, 45
2, 8016, Note_on_c, 0, 78, 0
2, 8016, Note_on_c, 0, 75, 45
2, 8032, Note_on_c, 0, 69, 0
2, 8064, Note_on_c, 0, 75, 0
2, 8064, Note_on_c, 0, 68, 45
2, 8064, Note_on_c, 0, 76, 45
2, 8158, Note_on_c, 0, 68, 0
2, 8158, Note_on_c, 0, 76, 0
2, 8448, Note_on_c, 0, 64, 92
2, 8472, Note_on_c, 0, 64, 0
2, 8472, Note_on_c, 0, 69, 92
2, 8496, Note_on_c, 0, 69, 0
2, 8496, Note_on_c, 0, 73, 92
2, 8520, Note_on_c, 0, 73, 0
2, 8520, Note_on_c, 0, 76, 92
2, 8800, Note_on_c, 0, 76, 0
2, 8832, Note_on_c, 0, 73, 92
2, 9168, Note_on_c, 0, 73, 0
2, 9216, Note_on_c, 0, 76, 92
2, 9312, Note_on_c, 0, 76, 0
2, 9312, Note_on_c, 0, 74, 92
2, 9406, Note_on_c, 0, 74, 0
2, 9408, Note_on_c, 0, 71, 92
2, 9440, Note_on_c, 0, 71, 0
2, 9504, Note_on_c, 0, 68, 92
2, 9536, Note_on_c, 0, 68, 0
2, 9600, Note_on_c, 0, 69, 92
2, 9760, Note_on_c, 0, 69, 0
2, 9888, Note_on_c, 0, 64, 92
2, 9984, Note_on_c, 0, 64, 0
2, 9984, Note_on_c, 0, 66, 92
2, 10016, Note_on_c, 0, 66, 0
2, 10080, Note_on_c, 0, 68, 92
2, 10112, Note_on_c, 0, 68, 0
2, 10176, Note_on_c, 0, 69, 92
2, 10208, Note_on_c, 0, 69, 0
2, 10272, Note_on_c, 0, 71, 92
2, 10304, Note_on_c, 0, 71, 0
2, 10368, Note_on_c, 0, 73, 92
2, 10400, Note_on_c, 0, 73, 0
2, 10464, Note_on_c, 0, 74, 92
2, 10496, Note_on_c, 0, 74, 0
2, 10560, Note_on_c, 0, 76, 92
2, 10592, Note_on_c, 0, 76, 0
2, 10656, Note_on_c, 0, 74, 92
2, 10656, Note_on_c, 0, 78, 92
2, 10752, Note_on_c, 0, 74, 0
2, 10752, Note_on_c, 0, 78, 0
2, 10752, Note_on_c, 0, 73, 92
2, 10752, Note_on_c, 0, 76, 92
2, 10846, Note_on_c, 0, 73, 0
2, 10846, Note_on_c, 0, 76, 0
2, 10848, Note_on_c, 0, 71, 92
2, 10848, Note_on_c, 0, 74, 92
2, 11008, Note_on_c, 0, 71, 0
2, 11008, Note_on_c, 0, 74, 0
2, 11040, Note_on_c, 0, 69, 92
2, 11040, Note_on_c, 0, 73, 92
2, 11134, Note_on_c, 0, 69, 0
2, 11134, Note_on_c, 0, 73, 0
2, 11136, Note_on_c, 0, 69, 92
2, 11136, Note_on_c, 0, 73, 92
2, 11232, Note_on_c, 0, 69, 0
2, 11232, Note_on_c, 0, 73, 0
2, 11232, Note_on_c, 0, 68, 92
2, 11232, Note_on_c, 0, 71, 92
2, 11326, Note_on_c, 0, 68, 0
2, 11326, Note_on_c, 0, 71, 0
2, 11520, Note_on_c, 0, 64, 92
2, 11544, Note_on_c, 0, 64, 0
2, 11544, Note_on_c, 0, 69, 92
2, 11568, Note_on_c, 0, 69, 0
2, 11568, Note_on_c, 0, 73, 92
2, 11592, Note_on_c, 0, 73, 0
2, 11592, Note_on_c, 0, 76, 92
2, 11872, Note_on_c, 0, 76, 0
2, 11904, Note_on_c, 0, 73, 92
2, 12240, Note_on_c, 0, 73, 0
2, 12288, Note_on_c, 0, 76, 92
2, 12384, Note_on_c, 0, 76, 0
2, 12384, Note_on_c, 0, 74, 92
2, 12478, Note_on_c, 0, 74, 0
2, 12480, Note_on_c, 0, 71, 92
2, 12512, Note_on_c, 0, 71, 0
2, 12576, Note_on_c, 0, 68, 92
2, 12608, Note_on_c, 0, 68, 0
2, 12672, Note_on_c, 0, 69, 92
2, 12832, Note_on_c, 0, 69, 0
2, 12960, Note_on_c, 0, 64, 92
2, 13056, Note_on_c, 0, 64, 0
2, 13056, Note_on_c, 0, 66, 92
2, 13088, Note_on_c, 0, 66, 0
2, 13152, Note_on_c, 0, 68, 92
2, 13184, Note_on_c, 0, 68, 0
2, 13248, Note_on_c, 0, 69, 92
2, 13280, Note_on_c, 0, 69, 0
2, 13344, Note_on_c, 0, 71, 92
2, 13376, Note_on_c, 0, 71, 0
2, 13440, Note_on_c, 0, 73, 92
2, 13472, Note_on_c, 0, 73, 0
2, 13536, Note_on_c, 0, 74, 92
2, 13568, Note_on_c, 0, 74, 0
2, 13632, Note_on_c, 0, 76, 92
2, 13664, Note_on_c, 0, 76, 0
2, 13728, Note_on_c, 0, 71, 92
2, 13728, Note_on_c, 0, 80, 92
2, 13760, Note_on_c, 0, 71, 0
2, 13760, Note_on_c, 0, 80, 0
2, 13824, Note_on_c, 0, 73, 92
2, 13824, Note_on_c, 0, 81, 92
2, 14208, Note_on_c, 0, 81, 0
2, 14208, Note_on_c, 0, 78, 92
2, 14352, Note_on_c, 0, 73, 0
2, 14400, Note_on_c, 0, 69, 92
2, 14560, Note_on_c, 0, 69, 0
2, 14560, Note_on_c, 0, 78, 0
2, 14592, Note_on_c, 0, 66, 92
2, 14592, Note_on_c, 0, 75, 92
2, 14688, Note_on_c, 0, 66, 0
2, 14688, Note_on_c, 0, 68, 92
2, 14736, Note_on_c, 0, 68, 0
2, 14736, Note_on_c, 0, 69, 92
2, 14784, Note_on_c, 0, 69, 0
2, 14784, Note_on_c, 0, 71, 92
2, 14852, Note_on_c, 0, 71, 0
2, 14880, Note_on_c, 0, 69, 92
2, 14928, Note_on_c, 0, 75, 0
2, 14948, Note_on_c, 0, 69, 0
2, 14976, Note_on_c, 0, 68, 92
2, 14976, Note_on_c, 0, 76, 92
2, 15070, Note_on_c, 0, 68, 0
2, 15070, Note_on_c, 0, 76, 0
2, 15168, Note_on_c, 0, 68, 45
2, 15168, Note_on_c, 0, 74, 45
2, 15360, Note_on_c, 0, 68, 0
2, 15360, Note_on_c, 0, 74, 0
2, 15360, Note_on_c, 0, 69, 45
2, 15360, Note_on_c, 0, 73, 45
2, 15454, Note_on_c, 0, 69, 0
2, 15454, Note_on_c, 0, 73, 0
2, 15552, Note_on_c, 0, 69, 45
2, 15552, Note_on_c, 0, 75, 45
2, 15600, Note_on_c, 0, 75, 0
2, 15600, Note_on_c, 0, 76, 45
2, 15648, Note_on_c, 0, 76, 0
2, 15648, Note_on_c, 0, 78, 45
2, 15696, Note_on_c, 0, 78, 0
2, 15696, Note_on_c, 0, 75, 45
2, 15712, Note_on_c, 0, 69, 0
2, 15744, Note_on_c, 0, 75, 0
2, 15744, Note_on_c, 0, 68, 45
2, 15744, Note_on_c, 0, 76, 45
2, 15838, Note_on_c, 0, 68, 0
2, 15838, Note_on_c, 0, 76, 0
2, 15936, Note_on_c, 0, 74, 45
2, 15936, Note_on_c, 0, 80, 45
2, 16128, Note_on_c, 0, 74, 0
2, 16128, Note_on_c, 0, 80, 0
2, 16128, Note_on_c, 0, 73, 45
2, 16128, Note_on_c, 0, 81, 45
2, 16222, Note_on_c, 0, 73, 0
2, 16222, Note_on_c, 0, 81, 0
2, 16320, Note_on_c, 0, 69, 45
2, 16320, Note_on_c, 0, 75, 45
2, 16368, Note_on_c, 0, 75, 0
2, 16368, Note_on_c, 0, 76, 45
2, 16416, Note_on_c, 0, 76, 0
2, 16416, Note_on_c, 0, 78, 45
2, 16464, Note_on_c, 0, 78, 0
2, 16464, Note_on_c, 0, 75, 45
2, 16480, Note_on_c, 0, 69, 0
2, 16512, Note_on_c, 0, 75, 0
2, 16512, Note_on_c, 0, 68, 45
2, 16512, Note_on_c, 0, 76, 45
2, 16606, Note_on_c, 0, 68, 0
2, 16606, Note_on_c, 0, 76, 0
2, 16896, Note_on_c, 0, 67, 92
2, 16896, Note_on_c, 0, 76, 92
2, 17232, Note_on_c, 0, 67, 0
2, 17232, Note_on_c, 0, 76, 0
2, 17280, Note_on_c, 0, 64, 92
2, 17280, Note_on_c, 0, 72, 92
2, 17616, Note_on_c, 0, 64, 0
2, 17616, Note_on_c, 0, 72, 0
2, 17664, Note_on_c, 0, 61, 92
2, 17664, Note_on_c, 0, 70, 92
2, 17760, Note_on_c, 0, 61, 0
2, 17760, Note_on_c, 0, 62, 92
2, 17808, Note_on_c, 0, 62, 0
2, 17808, Note_on_c, 0, 64, 92
2, 17856, Note_on_c, 0, 64, 0
2, 17856, Note_on_c, 0, 66, 92
2, 17952, Note_on_c, 0, 66, 0
2, 17952, Note_on_c, 0, 64, 92
2, 18000, Note_on_c, 0, 70, 0
2, 18048, Note_on_c, 0, 64, 0
2, 18048, Note_on_c, 0, 62, 92
2, 18048, Note_on_c, 0, 71, 92
2, 18208, Note_on_c, 0, 62, 0
2, 18208, Note_on_c, 0, 71, 0
2, 18384, Note_on_c, 0, 74, 45
2, 18384, Note_on_c, 0, 78, 45
2, 18430, Note_on_c, 0, 74, 0
2, 18430, Note_on_c, 0, 78, 0
2, 18432, Note_on_c, 0, 74, 45
2, 18432, Note_on_c, 0, 76, 45
2, 18464, Note_on_c, 0, 74, 0
2, 18464, Note_on_c, 0, 76, 0
2, 18624, Note_on_c, 0, 73, 45
2, 18624, Note_on_c, 0, 76, 45
2, 18656, Note_on_c, 0, 73, 0
2, 18656, Note_on_c, 0, 76, 0
2, 18816, Note_on_c, 0, 73, 45
2, 18816, Note_on_c, 0, 74, 45
2, 18848, Note_on_c, 0, 73, 0
2, 18848, Note_on_c, 0, 74, 0
2, 19008, Note_on_c, 0, 71, 45
2, 19008, Note_on_c, 0, 74, 45
2, 19040, Note_on_c, 0, 71, 0
2, 19040, Note_on_c, 0, 74, 0
2, 19200, Note_on_c, 0, 71, 45
2, 19200, Note_on_c, 0, 73, 45
2, 19232, Note_on_c, 0, 71, 0
2, 19232, Note_on_c, 0, 73, 0
2, 19392, Note_on_c, 0, 70, 45
2, 19392, Note_on_c, 0, 73, 45
2, 19424, Note_on_c, 0, 70, 0
2, 19424, Note_on_c, 0, 73, 0
2, 19584, Note_on_c, 0, 71, 45
2, 19616, Note_on_c, 0, 71, 0
2, 19968, Note_on_c, 0, 65, 92
2, 19968, Note_on_c, 0, 74, 92
2, 20304, Note_on_c, 0, 65, 0
2, 20304, Note_on_c, 0, 74, 0
2, 20352, Note_on_c, 0, 62, 92
2, 20352, Note_on_c, 0, 70, 92
2, 20688, Note_on_c, 0, 62, 0
2, 20688, Note_on_c, 0, 70, 0
2, 20736, Note_on_c, 0, 59, 92
2, 20736, Note_on_c, 0, 68, 92
2, 20832, Note_on_c, 0, 59, 0
2, 20832, Note_on_c, 0, 61, 92
2, 20880, Note_on_c, 0, 61, 0
2, 20880, Note_on_c, 0, 62, 92
2, 20928, Note_on_c, 0, 62, 0
2, 20928, Note_on_c, 0, 64, 92
2, 20996, Note_on_c, 0, 64, 0
2, 21024, Note_on_c, 0, 62, 92
2, 21072, Note_on_c, 0, 68, 0
2, 21092, Note_on_c, 0, 62, 0
2, 21120, Note_on_c, 0, 61, 92
2, 21120, Note_on_c, 0, 69, 92
2, 21280, Note_on_c, 0, 61, 0
2, 21280, Note_on_c, 0, 69, 0
2, 21456, Note_on_c, 0, 73, 45
2, 21456, Note_on_c, 0, 76, 45
2, 21502, Note_on_c, 0, 73, 0
2, 21502, Note_on_c, 0, 76, 0
2, 21504, Note_on_c, 0, 73, 45
2, 21504, Note_on_c, 0, 74, 45
2, 21536, Note_on_c, 0, 73, 0
2, 21536, Note_on_c, 0, 74, 0
2, 21696, Note_on_c, 0, 71, 45
2, 21696, Note_on_c, 0, 74, 45
2, 21728, Note_on_c, 0, 71, 0
2, 21728, Note_on_c, 0, 74, 0
2, 21888, Note_on_c, 0, 71, 45
2, 21888, Note_on_c, 0, 73, 45
2, 21920, Note_on_c, 0, 71, 0
2, 21920, Note_on_c, 0, 73, 0
2, 22080, Note_on_c, 0, 69, 45
2, 22080, Note_on_c, 0, 73, 45
2, 22112, Note_on_c, 0, 69, 0
2, 22112, Note_on_c, 0, 73, 0
2, 22272, Note_on_c, 0, 69, 45
2, 22272, Note_on_c, 0, 71, 45
2, 22304, Note_on_c, 0, 69, 0
2, 22304, Note_on_c, 0, 71, 0
2, 22464, Note_on_c, 0, 68, 45
2, 22464, Note_on_c, 0, 71, 45
2, 22496, Note_on_c, 0, 68, 0
2, 22496, Note_on_c, 0, 71, 0
2, 22656, Note_on_c, 0, 69, 45
2, 22688, Note_on_c, 0, 69, 0
2, 22848, Note_on_c, 0, 73, 92
2, 22848, Note_on_c, 0, 81, 92
2, 23008, Note_on_c, 0, 73, 0
2, 23040, Note_on_c, 0, 71, 92
2, 23200, Note_on_c, 0, 81, 0
2, 23232, Note_on_c, 0, 80, 92
2, 23392, Note_on_c, 0, 71, 0
2, 23424, Note_on_c, 0, 69, 92
2, 23584, Note_on_c, 0, 80, 0
2, 23616, Note_on_c, 0, 78, 92
2, 23776, Note_on_c, 0, 69, 0
2, 23808, Note_on_c, 0, 68, 92
2, 23968, Note_on_c, 0, 78, 0
2, 24000, Note_on_c, 0, 76, 92
2, 24160, Note_on_c, 0, 68, 0
2, 24192, Note_on_c, 0, 66, 92
2, 24352, Note_on_c, 0, 76, 0
2, 24384, Note_on_c, 0, 74, 92
2, 24544, Note_on_c, 0, 66, 0
2, 24576, Note_on_c, 0, 64, 92
2, 24736, Note_on_c, 0, 74, 0
2, 24768, Note_on_c, 0, 73, 92
2, 24928, Note_on_c, 0, 64, 0
2, 24928, Note_on_c, 0, 73, 0
2, 24960, Note_on_c, 0, 66, 92
2, 24960, Note_on_c, 0, 71, 92
2, 24992, Note_on_c, 0, 66, 0
2, 24992, Note_on_c, 0, 71, 0
2, 25056, Note_on_c, 0, 74, 92
2, 25056, Note_on_c, 0, 78, 92
2, 25216, Note_on_c, 0, 74, 0
2, 25216, Note_on_c, 0, 78, 0
2, 25248, Note_on_c, 0, 73, 92
2, 25248, Note_on_c, 0, 76, 92
2, 25280, Note_on_c, 0, 73, 0
2, 25280, Note_on_c, 0, 76, 0
2, 25344, Note_on_c, 0, 71, 92
2, 25344, Note_on_c, 0, 74, 92
2, 25440, Note_on_c, 0, 71, 0
2, 25440, Note_on_c, 0, 74, 0
2, 25440, Note_on_c, 0, 69, 92
2, 25440, Note_on_c, 0, 73, 92
2, 25536, Note_on_c, 0, 69, 0
2, 25536, Note_on_c, 0, 73, 0
2, 25536, Note_on_c, 0, 68, 92
2, 25536, Note_on_c, 0, 71, 92
2, 25632, Note_on_c, 0, 68, 0
2, 25632, Note_on_c, 0, 71, 0
2, 25632, Note_on_c, 0, 66, 92
2, 25632, Note_on_c, 0, 69, 92
2, 25726, Note_on_c, 0, 66, 0
2, 25726, Note_on_c, 0, 69, 0
2, 25728, Note_on_c, 0, 64, 92
2, 25728, Note_on_c, 0, 68, 92
2, 25824, Note_on_c, 0, 64, 0
2, 25824, Note_on_c, 0, 68, 0
2, 25824, Note_on_c, 0, 76, 92
2, 25856, Note_on_c, 0, 76, 0
2, 25920, Note_on_c, 0, 76, 92
2, 25952, Note_on_c, 0, 76, 0
2, 26016, Note_on_c, 0, 76, 92
2, 26048, Note_on_c, 0, 76, 0
2, 26112, Note_on_c, 0, 73, 92
2, 26208, Note_on_c, 0, 73, 0
2, 26208, Note_on_c, 0, 76, 92
2, 26304, Note_on_c, 0, 76, 0
2, 26304, Note_on_c, 0, 69, 92
2, 26400, Note_on_c, 0, 69, 0
2, 26400, Note_on_c, 0, 73, 92
2, 26494, Note_on_c, 0, 73, 0
2, 26496, Note_on_c, 0, 76, 92
2, 26564, Note_on_c, 0, 76, 0
2, 26592, Note_on_c, 0, 76, 92
2, 26660, Note_on_c, 0, 76, 0
2, 26688, Note_on_c, 0, 76, 92
2, 26756, Note_on_c, 0, 76, 0
2, 26784, Note_on_c, 0, 76, 92
2, 26816, Note_on_c, 0, 76, 0
2, 26880, Note_on_c, 0, 73, 92
2, 26976, Note_on_c, 0, 73, 0
2, 26976, Note_on_c, 0, 76, 92
2, 27072, Note_on_c, 0, 76, 0
2, 27072, Note_on_c, 0, 69, 92
2, 27168, Note_on_c, 0, 69, 0
2, 27168, Note_on_c, 0, 73, 92
2, 27262, Note_on_c, 0, 73, 0
2, 27264, Note_on_c, 0, 64, 92
2, 27424, Note_on_c, 0, 64, 0
2, 27648, Note_on_c, 0, 64, 92
2, 27672, Note_on_c, 0, 64, 0
2, 27672, Note_on_c, 0, 69, 92
2, 27696, Note_on_c, 0, 69, 0
2, 27696, Note_on_c, 0, 73, 92
2, 27720, Note_on_c, 0, 73, 0
2, 27720, Note_on_c, 0, 76, 92
2, 28000, Note_on_c, 0, 76, 0
2, 28032, Note_on_c, 0, 73, 92
2, 28368, Note_on_c, 0, 73, 0
2, 28416, Note_on_c, 0, 76, 92
2, 28512, Note_on_c, 0, 76, 0
2, 28512, Note_on_c, 0, 74, 92
2, 28606, Note_on_c, 0, 74, 0
2, 28608, Note_on_c, 0, 71, 92
2, 28640, Note_on_c, 0, 71, 0
2, 28704, Note_on_c, 0, 68, 92
2, 28736, Note_on_c, 0, 68, 0
2, 28800, Note_on_c, 0, 69, 92
2, 28960, Note_on_c, 0, 69, 0
2, 29088, Note_on_c, 0, 64, 92
2, 29184, Note_on_c, 0, 64, 0
2, 29184, Note_on_c, 0, 66, 92
2, 29216, Note_on_c, 0, 66, 0
2, 29280, Note_on_c, 0, 68, 92
2, 29312, Note_on_c, 0, 68, 0
2, 29376, Note_on_c, 0, 69, 92
2, 29408, Note_on_c, 0, 69, 0
2, 29472, Note_on_c, 0, 71, 92
2, 29504, Note_on_c, 0, 71, 0
2, 29568, Note_on_c, 0, 73, 92
2, 29600, Note_on_c, 0, 73, 0
2, 29664, Note_on_c, 0, 74, 92
2, 29696, Note_on_c, 0, 74, 0
2, 29760, Note_on_c, 0, 76, 92
2, 29792, Note_on_c, 0, 76, 0
2, 29856, Note_on_c, 0, 74, 92
2, 29856, Note_on_c, 0, 78, 92
2, 29952, Note_on_c, 0, 74, 0
2, 29952, Note_on_c, 0, 78, 0
2, 29952, Note_on_c, 0, 73, 92
2, 29952, Note_on_c, 0, 76, 92
2, 30046, Note_on_c, 0, 73, 0
2, 30046, Note_on_c, 0, 76, 0
2, 30048, Note_on_c, 0, 71, 92
2, 30048, Note_on_c, 0, 74, 92
2, 30208, Note_on_c, 0, 71, 0
2, 30208, Note_on_c, 0, 74, 0
2, 30240, Note_on_c, 0, 69, 92
2, 30240, Note_on_c, 0, 73, 92
2, 30334, Note_on_c, 0, 69, 0
2, 30334, Note_on_c, 0, 73, 0
2, 30336, Note_on_c, 0, 69, 92
2, 30336, Note_on_c, 0, 73, 92
2, 30432, Note_on_c, 0, 69, 0
2, 30432, Note_on_c, 0, 73, 0
2, 30432, Note_on_c, 0, 68, 92
2, 30432, Note_on_c, 0, 71, 92
2, 30526, Note_on_c, 0, 68, 0
2, 30526, Note_on_c, 0, 71, 0
2, 30720, Note_on_c, 0, 64, 92
2, 30744, Note_on_c, 0, 64, 0
2, 30744, Note_on_c, 0, 69, 92
2, 30768, Note_on_c, 0, 69, 0
2, 30768, Note_on_c, 0, 73, 92
2, 30792, Note_on_c, 0, 73, 0
2, 30792, Note_on_c, 0, 76, 92
2, 31072, Note_on_c, 0, 76, 0
2, 31104, Note_on_c, 0, 73, 92
2, 31440, Note_on_c, 0, 73, 0
2, 31488, Note_on_c, 0, 76, 92
2, 31584, Note_on_c, 0, 76, 0
2, 31584, Note_on_c, 0, 74, 92
2, 31678, Note_on_c, 0, 74, 0
2, 31680, Note_on_c, 0, 71, 92
2, 31712, Note_on_c, 0, 71, 0
2, 31776, Note_on_c, 0, 68, 92
2, 31808, Note_on_c, 0, 68, 0
2, 31872, Note_on_c, 0, 69, 92
2, 32032, Note_on_c, 0, 69, 0
2, 32160, Note_on_c, 0, 64, 92
2, 32256, Note_on_c, 0, 64, 0
2, 32256, Note_on_c, 0, 66, 92
2, 32288, Note_on_c, 0, 66, 0
2, 32352, Note_on_c, 0, 68, 92
2, 32384, Note_on_c, 0, 68, 0
2, 32448, Note_on_c, 0, 69, 92
2, 32480, Note_on_c, 0, 69, 0
2, 32544, Note_on_c, 0, 71, 92
2, 32576, Note_on_c, 0, 71, 0
2, 32640, Note_on_c, 0, 73, 92
2, 32672, Note_on_c, 0, 73, 0
2, 32736, Note_on_c, 0, 74, 92
2, 32768, Note_on_c, 0, 74, 0
2, 32832, Note_on_c, 0, 76, 92
2, 32864, Note_on_c, 0, 76, 0
2, 32928, Note_on_c, 0, 71, 92
2, 32928, Note_on_c, 0, 80, 92
2, 32960, Note_on_c, 0, 71, 0
2, 32960, Note_on_c, 0, 80, 0
2, 33024, Note_on_c, 0, 73, 92
2, 33024, Note_on_c, 0, 81, 92
2, 33360, Note_on_c, 0, 73, 0
2, 33360, Note_on_c, 0, 81, 0
2, 33408, Note_on_c, 0, 74, 92
2, 33408, Note_on_c, 0, 78, 92
2, 33744, Note_on_c, 0, 74, 0
2, 33744, Note_on_c, 0, 78, 0
2, 33792, Note_on_c, 0, 73, 92
2, 33792, Note_on_c, 0, 76, 92
2, 33886, Note_on_c, 0, 73, 0
2, 33886, Note_on_c, 0, 76, 0
2, 33888, Note_on_c, 0, 69, 92
2, 33888, Note_on_c, 0, 73, 92
2, 33920, Note_on_c, 0, 69, 0
2, 33920, Note_on_c, 0, 73, 0
2, 33984, Note_on_c, 0, 73, 92
2, 33984, Note_on_c, 0, 76, 92
2, 34032, Note_on_c, 0, 73, 0
2, 34032, Note_on_c, 0, 76, 0
2, 34032, Note_on_c, 0, 74, 92
2, 34080, Note_on_c, 0, 74, 0
2, 34080, Note_on_c, 0, 73, 92
2, 34128, Note_on_c, 0, 73, 0
2, 34128, Note_on_c, 0, 71, 92
2, 34174, Note_on_c, 0, 71, 0
2, 34176, Note_on_c, 0, 69, 92
2, 34270, Note_on_c, 0, 69, 0
2, 34368, Note_on_c, 0, 67, 45
2, 34368, Note_on_c, 0, 73, 45
2, 34560, Note_on_c, 0, 67, 0
2, 34560, Note_on_c, 0, 73, 0
2, 34560, Note_on_c, 0, 66, 45
2, 34560, Note_on_c, 0, 74, 45
2, 34654, Note_on_c, 0, 66, 0
2, 34654, Note_on_c, 0, 74, 0
2, 34752, Note_on_c, 0, 74, 45
2, 34752, Note_on_c, 0, 80, 45
2, 34944, Note_on_c, 0, 74, 0
2, 34944, Note_on_c, 0, 80, 0
2, 34944, Note_on_c, 0, 73, 45
2, 34944, Note_on_c, 0, 81, 45
2, 35038, Note_on_c, 0, 73, 0
2, 35038, Note_on_c, 0, 81, 0
2, 35136, Note_on_c, 0, 68, 45
2, 35136, Note_on_c, 0, 73, 45
2, 35184, Note_on_c, 0, 73, 0
2, 35184, Note_on_c, 0, 74, 45
2, 35232, Note_on_c, 0, 74, 0
2, 35232, Note_on_c, 0, 76, 45
2, 35280, Note_on_c, 0, 76, 0
2, 35280, Note_on_c, 0, 73, 45
2, 35296, Note_on_c, 0, 68, 0
2, 35328, Note_on_c, 0, 73, 0
2, 35328, Note_on_c, 0, 66, 45
2, 35328, Note_on_c, 0, 74, 45
2, 35422, Note_on_c, 0, 66, 0
2, 35422, Note_on_c, 0, 74, 0
2, 35520, Note_on_c, 0, 62, 45
2, 35520, Note_on_c, 0, 71, 45
2, 35568, Note_on_c, 0, 71, 0
2, 35568, Note_on_c, 0, 73, 45
2, 35616, Note_on_c, 0, 73, 0
2, 35616, Note_on_c, 0, 74, 45
2, 35664, Note_on_c, 0, 74, 0
2, 35664, Note_on_c, 0, 71, 45
2, 35680, Note_on_c, 0, 62, 0
2, 35712, Note_on_c, 0, 71, 0
2, 35712, Note_on_c, 0, 61, 45
2, 35712, Note_on_c, 0, 69, 45
2, 35806, Note_on_c, 0, 61, 0
2, 35806, Note_on_c, 0, 69, 0
2, 36096, Note_on_c, 0, 67, 92
2, 36096, Note_on_c, 0, 76, 92
2, 36432, Note_on_c, 0, 67, 0
2, 36432, Note_on_c, 0, 76, 0
2, 36480, Note_on_c, 0, 64, 92
2, 36480, Note_on_c, 0, 72, 92
2, 36816, Note_on_c, 0, 64, 0
2, 36816, Note_on_c, 0, 72, 0
2, 36864, Note_on_c, 0, 61, 92
2, 36864, Note_on_c, 0, 70, 92
2, 36960, Note_on_c, 0, 61, 0
2, 36960, Note_on_c, 0, 62, 92
2, 37008, Note_on_c, 0, 62, 0
2, 37008, Note_on_c, 0, 64, 92
2, 37056, Note_on_c, 0, 64, 0
2, 37056, Note_on_c, 0, 66, 92
2, 37152, Note_on_c, 0, 66, 0
2, 37152, Note_on_c, 0, 64, 92
2, 37200, Note_on_c, 0, 70, 0
2, 37248, Note_on_c, 0, 64, 0
2, 37248, Note_on_c, 0, 62, 92
2, 37248, Note_on_c, 0, 71, 92
2, 37408, Note_on_c, 0, 62, 0
2, 37408, Note_on_c, 0, 71, 0
2, 37584, Note_on_c, 0, 74, 45
2, 37584, Note_on_c, 0, 78, 45
2, 37630, Note_on_c, 0, 74, 0
2, 37630, Note_on_c, 0, 78, 0
2, 37632, Note_on_c, 0, 74, 45
2, 37632, Note_on_c, 0, 76, 45
2, 37664, Note_on_c, 0, 74, 0
2, 37664, Note_on_c, 0, 76, 0
2, 37824, Note_on_c, 0, 73, 45
2, 37824, Note_on_c, 0, 76, 45
2, 37856, Note_on_c, 0, 73, 0
2, 37856, Note_on_c, 0, 76, 0
2, 38016, Note_on_c, 0, 73, 45
2, 38016, Note_on_c, 0, 74, 45
2, 38048, Note_on_c, 0, 73, 0
2, 38048, Note_on_c, 0, 74, 0
2, 38208, Note_on_c, 0, 71, 45
2, 38208, Note_on_c, 0, 74, 45
2, 38240, Note_on_c, 0, 71, 0
2, 38240, Note_on_c, 0, 74, 0
2, 38400, Note_on_c, 0, 71, 45
2, 38400, Note_on_c, 0, 73, 45
2, 38432, Note_on_c, 0, 71, 0
2, 38432, Note_on_c, 0, 73, 0
2, 38592, Note_on_c, 0, 70, 45
2, 38592, Note_on_c, 0, 73, 45
2, 38624, Note_on_c, 0, 70, 0
2, 38624, Note_on_c, 0, 73, 0
2, 38784, Note_on_c, 0, 71, 45
2, 38816, Note_on_c, 0, 71, 0
2, 39168, Note_on_c, 0, 65, 92
2, 39168, Note_on_c, 0, 74, 92
2, 39504, Note_on_c, 0, 65, 0
2, 39504, Note_on_c, 0, 74, 0
2, 39552, Note_on_c, 0, 62, 92
2, 39552, Note_on_c, 0, 70, 92
2, 39888, Note_on_c, 0, 62, 0
2, 39888, Note_on_c, 0, 70, 0
2, 39936, Note_on_c, 0, 59, 92
2, 39936, Note_on_c, 0, 68, 92
2, 40032, Note_on_c, 0, 59, 0
2, 40032, Note_on_c, 0, 61, 92
2, 40080, Note_on_c, 0, 61, 0
2, 40080, Note_on_c, 0, 62, 92
2, 40128, Note_on_c, 0, 62, 0
2, 40128, Note_on_c, 0, 64, 92
2, 40196, Note_on_c, 0, 64, 0
2, 40224, Note_on_c, 0, 62, 92
2, 40272, Note_on_c, 0, 68, 0
2, 40292, Note_on_c, 0, 62, 0
2, 40320, Note_on_c, 0, 61, 92
2, 40320, Note_on_c, 0, 69, 92
2, 40480, Note_on_c, 0, 61, 0
2, 40480, Note_on_c, 0, 69, 0
2, 40656, Note_on_c, 0, 73, 45
2, 40656, Note_on_c, 0, 76, 45
2, 40702, Note_on_c, 0, 73, 0
2, 40702, Note_on_c, 0, 76, 0
2, 40704, Note_on_c, 0, 73, 45
2, 40704, Note_on_c, 0, 74, 45
2, 40736, Note_on_c, 0, 73, 0
2, 40736, Note_on_c, 0, 74, 0
2, 40896, Note_on_c, 0, 71, 45
2, 40896, Note_on_c, 0, 74, 45
2, 40928, Note_on_c, 0, 71, 0
2, 40928, Note_on_c, 0, 74, 0
2, 41088, Note_on_c, 0, 71, 45
2, 41088, Note_on_c, 0, 73, 45
2, 41120, Note_on_c, 0, 71, 0
2, 41120, Note_on_c, 0, 73, 0
2, 41280, Note_on_c, 0, 69, 45
2, 41280, Note_on_c, 0, 73, 45
2, 41312, Note_on_c, 0, 69, 0
2, 41312, Note_on_c, 0, 73, 0
2, 41472, Note_on_c, 0, 69, 45
2, 41472, Note_on_c, 0, 71, 45
2, 41504, Note_on_c, 0, 69, 0
2, 41504, Note_on_c, 0, 71, 0
2, 41664, Note_on_c, 0, 68, 45
2, 41664, Note_on_c, 0, 71, 45
2, 41696, Note_on_c, 0, 68, 0
2, 41696, Note_on_c, 0, 71, 0
2, 41856, Note_on_c, 0, 69, 45
2, 41888, Note_on_c, 0, 69, 0
2, 42048, Note_on_c, 0, 73, 92
2, 42048, Note_on_c, 0, 81, 92
2, 42208, Note_on_c, 0, 73, 0
2, 42240, Note_on_c, 0, 71, 92
2, 42400, Note_on_c, 0, 81, 0
2, 42432, Note_on_c, 0, 80, 92
2, 42592, Note_on_c, 0, 71, 0
2, 42624, Note_on_c, 0, 69, 92
2, 42784, Note_on_c, 0, 80, 0
2, 42816, Note_on_c, 0, 78, 92
2, 42976, Note_on_c, 0, 69, 0
2, 43008, Note_on_c, 0, 68, 92
2, 43168, Note_on_c, 0, 78, 0
2, 43200, Note_on_c, 0, 76, 92
2, 43360, Note_on_c, 0, 68, 0
2, 43392, Note_on_c, 0, 66, 92
2, 43552, Note_on_c, 0, 76, 0
2, 43584, Note_on_c, 0, 74, 92
2, 43744, Note_on_c, 0, 66, 0
2, 43776, Note_on_c, 0, 64, 92
2, 43936, Note_on_c, 0, 74, 0
2, 43968, Note_on_c, 0, 73, 92
2, 44128, Note_on_c, 0, 64, 0
2, 44128, Note_on_c, 0, 73, 0
2, 44160, Note_on_c, 0, 66, 92
2, 44160, Note_on_c, 0, 71, 92
2, 44192, Note_on_c, 0, 66, 0
2, 44192, Note_on_c, 0, 71, 0
2, 44256, Note_on_c, 0, 74, 92
2, 44256, Note_on_c, 0, 78, 92
2, 44416, Note_on_c, 0, 74, 0
2, 44416, Note_on_c, 0, 78, 0
2, 44448, Note_on_c, 0, 73, 92
2, 44448, Note_on_c, 0, 76, 92
2, 44480, Note_on_c, 0, 73, 0
2, 44480, Note_on_c, 0, 76, 0
2, 44544, Note_on_c, 0, 71, 92
2, 44544, Note_on_c, 0, 74, 92
2, 44640, Note_on_c, 0, 71, 0
2, 44640, Note_on_c, 0, 74, 0
2, 44640, Note_on_c, 0, 69, 92
2, 44640, Note_on_c, 0, 73, 92
2, 44736, Note_on_c, 0, 69, 0
2, 44736, Note_on_c, 0, 73, 0
2, 44736, Note_on_c, 0, 68, 92
2, 44736, Note_on_c, 0, 71, 92
2, 44832, Note_on_c, 0, 68, 0
2, 44832, Note_on_c, 0, 71, 0
2, 44832, Note_on_c, 0, 66, 92
2, 44832, Note_on_c, 0, 69, 92
2, 44926, Note_on_c, 0, 66, 0
2, 44926, Note_on_c, 0, 69, 0
2, 44928, Note_on_c, 0, 64, 92
2, 44928, Note_on_c, 0, 68, 92
2, 45024, Note_on_c, 0, 64, 0
2, 45024, Note_on_c, 0, 68, 0
2, 45024, Note_on_c, 0, 76, 92
2, 45056, Note_on_c, 0, 76, 0
2, 45120, Note_on_c, 0, 76, 92
2, 45152, Note_on_c, 0, 76, 0
2, 45216, Note_on_c, 0, 76, 92
2, 45248, Note_on_c, 0, 76, 0
2, 45312, Note_on_c, 0, 73, 92
2, 45408, Note_on_c, 0, 73, 0
2, 45408, Note_on_c, 0, 76, 92
2, 45504, Note_on_c, 0, 76, 0
2, 45504, Note_on_c, 0, 69, 92
2, 45600, Note_on_c, 0, 69, 0
2, 45600, Note_on_c, 0, 73, 92
2, 45694, Note_on_c, 0, 73, 0
2, 45696, Note_on_c, 0, 76, 92
2, 45764, Note_on_c, 0, 76, 0
2, 45792, Note_on_c, 0, 76, 92
2, 45860, Note_on_c, 0, 76, 0
2, 45888, Note_on_c, 0, 76, 92
2, 45956, Note_on_c, 0, 76, 0
2, 45984, Note_on_c, 0, 76, 92
2, 46016, Note_on_c, 0, 76, 0
2, 46080, Note_on_c, 0, 73, 92
2, 46176, Note_on_c, 0, 73, 0
2, 46176, Note_on_c, 0, 76, 92
2, 46272, Note_on_c, 0, 76, 0
2, 46272, Note_on_c, 0, 69, 92
2, 46368, Note_on_c, 0, 69, 0
2, 46368, Note_on_c, 0, 73, 92
2, 46462, Note_on_c, 0, 73, 0
2, 46464, Note_on_c, 0, 64, 92
2, 46624, Note_on_c, 0, 64, 0
2, 46848, Note_on_c, 0, 64, 92
2, 46872, Note_on_c, 0, 64, 0
2, 46872, Note_on_c, 0, 69, 92
2, 46896, Note_on_c, 0, 69, 0
2, 46896, Note_on_c, 0, 73, 92
2, 46920, Note_on_c, 0, 73, 0
2, 46920, Note_on_c, 0, 76, 92
2, 47200, Note_on_c, 0, 76, 0
2, 47232, Note_on_c, 0, 73, 92
2, 47568, Note_on_c, 0, 73, 0
2, 47616, Note_on_c, 0, 76, 92
2, 47712, Note_on_c, 0, 76, 0
2, 47712, Note_on_c, 0, 74, 92
2, 47806, Note_on_c, 0, 74, 0
2, 47808, Note_on_c, 0, 71, 92
2, 47840, Note_on_c, 0, 71, 0
2, 47904, Note_on_c, 0, 68, 92
2, 47936, Note_on_c, 0, 68, 0
2, 48000, Note_on_c, 0, 69, 92
2, 48160, Note_on_c, 0, 69, 0
2, 48288, Note_on_c, 0, 64, 92
2, 48384, Note_on_c, 0, 64, 0
2, 48384, Note_on_c, 0, 66, 92
2, 48416, Note_on_c, 0, 66, 0
2, 48480, Note_on_c, 0, 68, 92
2, 48512, Note_on_c, 0, 68, 0
2, 48576, Note_on_c, 0, 69, 92
2, 48608, Note_on_c, 0, 69, 0
2, 48672, Note_on_c, 0, 71, 92
2, 48704, Note_on_c, 0, 71, 0
2, 48768, Note_on_c, 0, 73, 92
2, 48800, Note_on_c, 0, 73, 0
2, 48864, Note_on_c, 0, 74, 92
2, 48896, Note_on_c, 0, 74, 0
2, 48960, Note_on_c, 0, 76, 92
2, 48992, Note_on_c, 0, 76, 0
2, 49056, Note_on_c, 0, 74, 92
2, 49056, Note_on_c, 0, 78, 92
2, 49152, Note_on_c, 0, 74, 0
2, 49152, Note_on_c, 0, 78, 0
2, 49152, Note_on_c, 0, 73, 92
2, 49152, Note_on_c, 0, 76, 92
2, 49246, Note_on_c, 0, 73, 0
2, 49246, Note_on_c, 0, 76, 0
2, 49248, Note_on_c, 0, 71, 92
2, 49248, Note_on_c, 0, 74, 92
2, 49408, Note_on_c, 0, 71, 0
2, 49408, Note_on_c, 0, 74, 0
2, 49440, Note_on_c, 0, 69, 92
2, 49440, Note_on_c, 0, 73, 92
2, 49534, Note_on_c, 0, 69, 0
2, 49534, Note_on_c, 0, 73, 0
2, 49536, Note_on_c, 0, 69, 92
2, 49536, Note_on_c, 0, 73, 92
2, 49632, Note_on_c, 0, 69, 0
2, 49632, Note_on_c, 0, 73, 0
2, 49632, Note_on_c, 0, 68, 92
2, 49632, Note_on_c, 0, 71, 92
2, 49726, Note_on_c, 0, 68, 0
2, 49726, Note_on_c, 0, 71, 0
2, 49920, Note_on_c, 0, 64, 92
2, 49944, Note_on_c, 0, 64, 0
2, 49944, Note_on_c, 0, 69, 92
2, 49968, Note_on_c, 0, 69, 0
2, 49968, Note_on_c, 0, 73, 92
2, 49992, Note_on_c, 0, 73, 0
2, 49992, Note_on_c, 0, 76, 92
2, 50272, Note_on_c, 0, 76, 0
2, 50304, Note_on_c, 0, 73, 92
2, 50640, Note_on_c, 0, 73, 0
2, 50688, Note_on_c, 0, 76, 92
2, 50784, Note_on_c, 0, 76, 0
2, 50784, Note_on_c, 0, 74, 92
2, 50878, Note_on_c, 0, 74, 0
2, 50880, Note_on_c, 0, 71, 92
2, 50912, Note_on_c, 0, 71, 0
2, 50976, Note_on_c, 0, 68, 92
2, 51008, Note_on_c, 0, 68, 0
2, 51072, Note_on_c, 0, 69, 92
2, 51232, Note_on_c, 0, 69, 0
2, 51360, Note_on_c, 0, 64, 92
2, 51456, Note_on_c, 0, 64, 0
2, 51456, Note_on_c, 0, 66, 92
2, 51488, Note_on_c, 0, 66, 0
2, 51552, Note_on_c, 0, 68, 92
2, 51584, Note_on_c, 0, 68, 0
2, 51648, Note_on_c, 0, 69, 92
2, 51680, Note_on_c, 0, 69, 0
2, 51744, Note_on_c, 0, 71, 92
2, 51776, Note_on_c, 0, 71, 0
2, 51840, Note_on_c, 0, 73, 92
2, 51872, Note_on_c, 0, 73, 0
2, 51936, Note_on_c, 0, 74, 92
2, 51968, Note_on_c, 0, 74, 0
2, 52032, Note_on_c, 0, 76, 92
2, 52064, Note_on_c, 0, 76, 0
2, 52128, Note_on_c, 0, 71, 92
2, 52128, Note_on_c, 0, 80, 92
2, 52160, Note_on_c, 0, 71, 0
2, 52160, Note_on_c, 0, 80, 0
2, 52224, Note_on_c, 0, 73, 92
2, 52224, Note_on_c, 0, 81, 92
2, 52560, Note_on_c, 0, 73, 0
2, 52560, Note_on_c, 0, 81, 0
2, 52608, Note_on_c, 0, 74, 92
2, 52608, Note_on_c, 0, 78, 92
2, 52944, Note_on_c, 0, 74, 0
2, 52944, Note_on_c, 0, 78, 0
2, 52992, Note_on_c, 0, 73, 92
2, 52992, Note_on_c, 0, 76, 92
2, 53086, Note_on_c, 0, 73, 0
2, 53086, Note_on_c, 0, 76, 0
2, 53088, Note_on_c, 0, 69, 92
2, 53088, Note_on_c, 0, 73, 92
2, 53120, Note_on_c, 0, 69, 0
2, 53120, Note_on_c, 0, 73, 0
2, 53184, Note_on_c, 0, 73, 92
2, 53184, Note_on_c, 0, 76, 92
2, 53232, Note_on_c, 0, 73, 0
2, 53232, Note_on_c, 0, 76, 0
2, 53232, Note_on_c, 0, 74, 92
2, 53280, Note_on_c, 0, 74, 0
2, 53280, Note_on_c, 0, 73, 92
2, 53328, Note_on_c, 0, 73, 0
2, 53328, Note_on_c, 0, 71, 92
2, 53374, Note_on_c, 0, 71, 0
2, 53376, Note_on_c, 0, 69, 92
2, 53470, Note_on_c, 0, 69, 0
2, 53568, Note_on_c, 0, 67, 45
2, 53568, Note_on_c, 0, 73, 45
2, 53760, Note_on_c, 0, 67, 0
2, 53760, Note_on_c, 0, 73, 0
2, 53760, Note_on_c, 0, 66, 45
2, 53760, Note_on_c, 0, 74, 45
2, 53854, Note_on_c, 0, 66, 0
2, 53854, Note_on_c, 0, 74, 0
2, 53952, Note_on_c, 0, 74, 45
2, 53952, Note_on_c, 0, 80, 45
2, 54144, Note_on_c, 0, 74, 0
2, 54144, Note_on_c, 0, 80, 0
2, 54144, Note_on_c, 0, 73, 45
2, 54144, Note_on_c, 0, 81, 45
2, 54238, Note_on_c, 0, 73, 0
2, 54238, Note_on_c, 0, 81, 0
2, 54336, Note_on_c, 0, 68, 45
2, 54336, Note_on_c, 0, 73, 45
2, 54384, Note_on_c, 0, 73, 0
2, 54384, Note_on_c, 0, 74, 45
2, 54432, Note_on_c, 0, 74, 0
2, 54432, Note_on_c, 0, 76, 45
2, 54480, Note_on_c, 0, 76, 0
2, 54480, Note_on_c, 0, 73, 45
2, 54496, Note_on_c, 0, 68, 0
2, 54528, Note_on_c, 0, 73, 0
2, 54528, Note_on_c, 0, 66, 45
2, 54528, Note_on_c, 0, 74, 45
2, 54622, Note_on_c, 0, 66, 0
2, 54622, Note_on_c, 0, 74, 0
2, 54720, Note_on_c, 0, 62, 45
2, 54720, Note_on_c, 0, 71, 45
2, 54768, Note_on_c, 0, 71, 0
2, 54768, Note_on_c, 0, 73, 45
2, 54816, Note_on_c, 0, 73, 0
2, 54816, Note_on_c, 0, 74, 45
2, 54864, Note_on_c, 0, 74, 0
2, 54864, Note_on_c, 0, 71, 45
2, 54880, Note_on_c, 0, 62, 0
2, 54912, Note_on_c, 0, 71, 0
2, 54912, Note_on_c, 0, 61, 45
2, 54912, Note_on_c, 0, 69, 45
2, 55006, Note_on_c, 0, 61, 0
2, 55006, Note_on_c, 0, 69, 0
2, 55006, End_track
3, 0, Start_track
3, 0, MIDI_port, 0
3, 0, Title_t, "Left Hand"
3, 0, Program_c, 1, 0
3, 0, Control_c, 1, 7, 127
3, 0, Control_c, 1, 10, 64
3, 0, Note_on_c, 1, 45, 92
3, 96, Note_on_c, 1, 45, 0
3, 96, Note_on_c, 1, 57, 92
3, 192, Note_on_c, 1, 57, 0
3, 192, Note_on_c, 1, 61, 92
3, 288, Note_on_c, 1, 61, 0
3, 288, Note_on_c, 1, 57, 92
3, 384, Note_on_c, 1, 57, 0
3, 384, Note_on_c, 1, 64, 92
3, 480, Note_on_c, 1, 64, 0
3, 480, Note_on_c, 1, 57, 92
3, 576, Note_on_c, 1, 57, 0
3, 576, Note_on_c, 1, 67, 92
3, 672, Note_on_c, 1, 67, 0
3, 672, Note_on_c, 1, 57, 92
3, 766, Note_on_c, 1, 57, 0
3, 768, Note_on_c, 1, 66, 92
3, 864, Note_on_c, 1, 66, 0
3, 864, Note_on_c, 1, 57, 92
3, 960, Note_on_c, 1, 57, 0
3, 960, Note_on_c, 1, 62, 92
3, 1056, Note_on_c, 1, 62, 0
3, 1056, Note_on_c, 1, 57, 92
3, 1152, Note_on_c, 1, 61, 92
3, 1312, Note_on_c, 1, 57, 0
3, 1312, Note_on_c, 1, 61, 0
3, 1440, Note_on_c, 1, 61, 92
3, 1536, Note_on_c, 1, 61, 0
3, 1536, Note_on_c, 1, 62, 92
3, 1568, Note_on_c, 1, 62, 0
3, 1632, Note_on_c, 1, 64, 92
3, 1664, Note_on_c, 1, 64, 0
3, 1728, Note_on_c, 1, 66, 92
3, 1760, Note_on_c, 1, 66, 0
3, 1824, Note_on_c, 1, 68, 92
3, 1856, Note_on_c, 1, 68, 0
3, 1920, Note_on_c, 1, 69, 92
3, 1952, Note_on_c, 1, 69, 0
3, 2016, Note_on_c, 1, 71, 92
3, 2048, Note_on_c, 1, 71, 0
3, 2112, Note_on_c, 1, 73, 92
3, 2144, Note_on_c, 1, 73, 0
3, 2400, Note_on_c, 1, 52, 92
3, 2496, Note_on_c, 1, 52, 0
3, 2496, Note_on_c, 1, 56, 92
3, 2592, Note_on_c, 1, 56, 0
3, 2592, Note_on_c, 1, 57, 92
3, 2686, Note_on_c, 1, 57, 0
3, 2688, Note_on_c, 1, 64, 92
3, 2782, Note_on_c, 1, 64, 0
3, 2784, Note_on_c, 1, 52, 92
3, 2816, Note_on_c, 1, 52, 0
3, 3072, Note_on_c, 1, 45, 92
3, 3168, Note_on_c, 1, 45, 0
3, 3168, Note_on_c, 1, 57, 92
3, 3264, Note_on_c, 1, 57, 0
3, 3264, Note_on_c, 1, 61, 92
3, 3360, Note_on_c, 1, 61, 0
3, 3360, Note_on_c, 1, 57, 92
3, 3456, Note_on_c, 1, 57, 0
3, 3456, Note_on_c, 1, 64, 92
3, 3552, Note_on_c, 1, 64, 0
3, 3552, Note_on_c, 1, 57, 92
3, 3648, Note_on_c, 1, 57, 0
3, 3648, Note_on_c, 1, 67, 92
3, 3744, Note_on_c, 1, 67, 0
3, 3744, Note_on_c, 1, 57, 92
3, 3838, Note_on_c, 1, 57, 0
3, 3840, Note_on_c, 1, 66, 92
3, 3936, Note_on_c, 1, 66, 0
3, 3936, Note_on_c, 1, 57, 92
3, 4032, Note_on_c, 1, 57, 0
3, 4032, Note_on_c, 1, 62, 92
3, 4128, Note_on_c, 1, 62, 0
3, 4128, Note_on_c, 1, 57, 92
3, 4224, Note_on_c, 1, 61, 92
3, 4384, Note_on_c, 1, 57, 0
3, 4384, Note_on_c, 1, 61, 0
3, 4512, Note_on_c, 1, 61, 92
3, 4608, Note_on_c, 1, 61, 0
3, 4608, Note_on_c, 1, 62, 92
3, 4640, Note_on_c, 1, 62, 0
3, 4704, Note_on_c, 1, 64, 92
3, 4736, Note_on_c, 1, 64, 0
3, 4800, Note_on_c, 1, 66, 92
3, 4832, Note_on_c, 1, 66, 0
3, 4896, Note_on_c, 1, 68, 92
3, 4928, Note_on_c, 1, 68, 0
3, 4992, Note_on_c, 1, 69, 92
3, 5024, Note_on_c, 1, 69, 0
3, 5088, Note_on_c, 1, 71, 92
3, 5120, Note_on_c, 1, 71, 0
3, 5184, Note_on_c, 1, 73, 92
3, 5216, Note_on_c, 1, 73, 0
3, 5472, Note_on_c, 1, 57, 92
3, 5568, Note_on_c, 1, 57, 0
3, 5568, Note_on_c, 1, 56, 92
3, 5664, Note_on_c, 1, 56, 0
3, 5664, Note_on_c, 1, 57, 92
3, 5758, Note_on_c, 1, 57, 0
3, 5760, Note_on_c, 1, 45, 92
3, 5792, Note_on_c, 1, 45, 0
3, 5856, Note_on_c, 1, 57, 92
3, 5952, Note_on_c, 1, 57, 0
3, 5952, Note_on_c, 1, 56, 92
3, 6048, Note_on_c, 1, 56, 0
3, 6048, Note_on_c, 1, 57, 92
3, 6142, Note_on_c, 1, 57, 0
3, 6144, Note_on_c, 1, 47, 92
3, 6176, Note_on_c, 1, 47, 0
3, 6240, Note_on_c, 1, 59, 92
3, 6336, Note_on_c, 1, 59, 0
3, 6336, Note_on_c, 1, 58, 92
3, 6432, Note_on_c, 1, 58, 0
3, 6432, Note_on_c, 1, 59, 92
3, 6526, Note_on_c, 1, 59, 0
3, 6528, Note_on_c, 1, 52, 92
3, 6622, Note_on_c, 1, 52, 0
3, 6624, Note_on_c, 1, 64, 45
3, 6718, Note_on_c, 1, 64, 0
3, 6720, Note_on_c, 1, 64, 45
3, 6814, Note_on_c, 1, 64, 0
3, 6816, Note_on_c, 1, 64, 45
3, 6910, Note_on_c, 1, 64, 0
3, 6912, Note_on_c, 1, 52, 45
3, 7006, Note_on_c, 1, 52, 0
3, 7008, Note_on_c, 1, 64, 45
3, 7102, Note_on_c, 1, 64, 0
3, 7104, Note_on_c, 1, 52, 45
3, 7198, Note_on_c, 1, 52, 0
3, 7200, Note_on_c, 1, 64, 45
3, 7294, Note_on_c, 1, 64, 0
3, 7296, Note_on_c, 1, 52, 45
3, 7390, Note_on_c, 1, 52, 0
3, 7392, Note_on_c, 1, 64, 45
3, 7486, Note_on_c, 1, 64, 0
3, 7488, Note_on_c, 1, 52, 45
3, 7582, Note_on_c, 1, 52, 0
3, 7584, Note_on_c, 1, 64, 45
3, 7678, Note_on_c, 1, 64, 0
3, 7680, Note_on_c, 1, 52, 45
3, 7774, Note_on_c, 1, 52, 0
3, 7776, Note_on_c, 1, 64, 45
3, 7870, Note_on_c, 1, 64, 0
3, 7872, Note_on_c, 1, 52, 45
3, 7966, Note_on_c, 1, 52, 0
3, 7968, Note_on_c, 1, 64, 45
3, 8062, Note_on_c, 1, 64, 0
3, 8064, Note_on_c, 1, 52, 45
3, 8158, Note_on_c, 1, 52, 0
3, 8448, Note_on_c, 1, 45, 92
3, 8544, Note_on_c, 1, 45, 0
3, 8544, Note_on_c, 1, 57, 92
3, 8640, Note_on_c, 1, 57, 0
3, 8640, Note_on_c, 1, 61, 92
3, 8736, Note_on_c, 1, 61, 0
3, 8736, Note_on_c, 1, 57, 92
3, 8832, Note_on_c, 1, 57, 0
3, 8832, Note_on_c, 1, 64, 92
3, 8928, Note_on_c, 1, 64, 0
3, 8928, Note_on_c, 1, 57, 92
3, 9024, Note_on_c, 1, 57, 0
3, 9024, Note_on_c, 1, 67, 92
3, 9120, Note_on_c, 1, 67, 0
3, 9120, Note_on_c, 1, 57, 92
3, 9214, Note_on_c, 1, 57, 0
3, 9216, Note_on_c, 1, 66, 92
3, 9312, Note_on_c, 1, 66, 0
3, 9312, Note_on_c, 1, 57, 92
3, 9408, Note_on_c, 1, 57, 0
3, 9408, Note_on_c, 1, 62, 92
3, 9504, Note_on_c, 1, 62, 0
3, 9504, Note_on_c, 1, 57, 92
3, 9600, Note_on_c, 1, 61, 92
3, 9760, Note_on_c, 1, 57, 0
3, 9760, Note_on_c, 1, 61, 0
3, 9888, Note_on_c, 1, 61, 92
3, 9984, Note_on_c, 1, 61, 0
3, 9984, Note_on_c, 1, 62, 92
3, 10016, Note_on_c, 1, 62, 0
3, 10080, Note_on_c, 1, 64, 92
3, 10112, Note_on_c, 1, 64, 0
3, 10176, Note_on_c, 1, 66, 92
3, 10208, Note_on_c, 1, 66, 0
3, 10272, Note_on_c, 1, 68, 92
3, 10304, Note_on_c, 1, 68, 0
3, 10368, Note_on_c, 1, 69, 92
3, 10400, Note_on_c, 1, 69, 0
3, 10464, Note_on_c, 1, 71, 92
3, 10496, Note_on_c, 1, 71, 0
3, 10560, Note_on_c, 1, 73, 92
3, 10592, Note_on_c, 1, 73, 0
3, 10848, Note_on_c, 1, 52, 92
3, 10944, Note_on_c, 1, 52, 0
3, 10944, Note_on_c, 1, 56, 92
3, 11040, Note_on_c, 1, 56, 0
3, 11040, Note_on_c, 1, 57, 92
3, 11134, Note_on_c, 1, 57, 0
3, 11136, Note_on_c, 1, 64, 92
3, 11230, Note_on_c, 1, 64, 0
3, 11232, Note_on_c, 1, 52, 92
3, 11264, Note_on_c, 1, 52, 0
3, 11520, Note_on_c, 1, 45, 92
3, 11616, Note_on_c, 1, 45, 0
3, 11616, Note_on_c, 1, 57, 92
3, 11712, Note_on_c, 1, 57, 0
3, 11712, Note_on_c, 1, 61, 92
3, 11808, Note_on_c, 1, 61, 0
3, 11808, Note_on_c, 1, 57, 92
3, 11904, Note_on_c, 1, 57, 0
3, 11904, Note_on_c, 1, 64, 92
3, 12000, Note_on_c, 1, 64, 0
3, 12000, Note_on_c, 1, 57, 92
3, 12096, Note_on_c, 1, 57, 0
3, 12096, Note_on_c, 1, 67, 92
3, 12192, Note_on_c, 1, 67, 0
3, 12192, Note_on_c, 1, 57, 92
3, 12286, Note_on_c, 1, 57, 0
3, 12288, Note_on_c, 1, 66, 92
3, 12384, Note_on_c, 1, 66, 0
3, 12384, Note_on_c, 1, 57, 92
3, 12480, Note_on_c, 1, 57, 0
3, 12480, Note_on_c, 1, 62, 92
3, 12576, Note_on_c, 1, 62, 0
3, 12576, Note_on_c, 1, 57, 92
3, 12672, Note_on_c, 1, 61, 92
3, 12832, Note_on_c, 1, 57, 0
3, 12832, Note_on_c, 1, 61, 0
3, 12960, Note_on_c, 1, 61, 92
3, 13056, Note_on_c, 1, 61, 0
3, 13056, Note_on_c, 1, 62, 92
3, 13088, Note_on_c, 1, 62, 0
3, 13152, Note_on_c, 1, 64, 92
3, 13184, Note_on_c, 1, 64, 0
3, 13248, Note_on_c, 1, 66, 92
3, 13280, Note_on_c, 1, 66, 0
3, 13344, Note_on_c, 1, 68, 92
3, 13376, Note_on_c, 1, 68, 0
3, 13440, Note_on_c, 1, 69, 92
3, 13472, Note_on_c, 1, 69, 0
3, 13536, Note_on_c, 1, 71, 92
3, 13568, Note_on_c, 1, 71, 0
3, 13632, Note_on_c, 1, 73, 92
3, 13664, Note_on_c, 1, 73, 0
3, 13920, Note_on_c, 1, 57, 92
3, 14016, Note_on_c, 1, 57, 0
3, 14016, Note_on_c, 1, 56, 92
3, 14112, Note_on_c, 1, 56, 0
3, 14112, Note_on_c, 1, 57, 92
3, 14206, Note_on_c, 1, 57, 0
3, 14208, Note_on_c, 1, 45, 92
3, 14240, Note_on_c, 1, 45, 0
3, 14304, Note_on_c, 1, 57, 92
3, 14400, Note_on_c, 1, 57, 0
3, 14400, Note_on_c, 1, 56, 92
3, 14496, Note_on_c, 1, 56, 0
3, 14496, Note_on_c, 1, 57, 92
3, 14590, Note_on_c, 1, 57, 0
3, 14592, Note_on_c, 1, 47, 92
3, 14624, Note_on_c, 1, 47, 0
3, 14688, Note_on_c, 1, 59, 92
3, 14784, Note_on_c, 1, 59, 0
3, 14784, Note_on_c, 1, 58, 92
3, 14880, Note_on_c, 1, 58, 0
3, 14880, Note_on_c, 1, 59, 92
3, 14974, Note_on_c, 1, 59, 0
3, 14976, Note_on_c, 1, 52, 92
3, 15070, Note_on_c, 1, 52, 0
3, 15072, Note_on_c, 1, 64, 45
3, 15166, Note_on_c, 1, 64, 0
3, 15168, Note_on_c, 1, 64, 45
3, 15262, Note_on_c, 1, 64, 0
3, 15264, Note_on_c, 1, 64, 45
3, 15358, Note_on_c, 1, 64, 0
3, 15360, Note_on_c, 1, 52, 45
3, 15454, Note_on_c, 1, 52, 0
3, 15456, Note_on_c, 1, 64, 45
3, 15550, Note_on_c, 1, 64, 0
3, 15552, Note_on_c, 1, 52, 45
3, 15646, Note_on_c, 1, 52, 0
3, 15648, Note_on_c, 1, 64, 45
3, 15742, Note_on_c, 1, 64, 0
3, 15744, Note_on_c, 1, 52, 45
3, 15838, Note_on_c, 1, 52, 0
3, 15840, Note_on_c, 1, 64, 45
3, 15934, Note_on_c, 1, 64, 0
3, 15936, Note_on_c, 1, 52, 45
3, 16030, Note_on_c, 1, 52, 0
3, 16032, Note_on_c, 1, 64, 45
3, 16126, Note_on_c, 1, 64, 0
3, 16128, Note_on_c, 1, 52, 45
3, 16222, Note_on_c, 1, 52, 0
3, 16224, Note_on_c, 1, 64, 45
3, 16318, Note_on_c, 1, 64, 0
3, 16320, Note_on_c, 1, 52, 45
3, 16414, Note_on_c, 1, 52, 0
3, 16416, Note_on_c, 1, 64, 45
3, 16510, Note_on_c, 1, 64, 0
3, 16512, Note_on_c, 1, 52, 45
3, 16606, Note_on_c, 1, 52, 0
3, 16992, Note_on_c, 1, 52, 92
3, 17088, Note_on_c, 1, 52, 0
3, 17088, Note_on_c, 1, 51, 92
3, 17184, Note_on_c, 1, 51, 0
3, 17184, Note_on_c, 1, 52, 92
3, 17278, Note_on_c, 1, 52, 0
3, 17376, Note_on_c, 1, 55, 92
3, 17472, Note_on_c, 1, 55, 0
3, 17472, Note_on_c, 1, 54, 92
3, 17568, Note_on_c, 1, 54, 0
3, 17568, Note_on_c, 1, 55, 92
3, 17662, Note_on_c, 1, 55, 0
3, 17760, Note_on_c, 1, 54, 92
3, 17856, Note_on_c, 1, 54, 0
3, 17856, Note_on_c, 1, 53, 92
3, 17952, Note_on_c, 1, 53, 0
3, 17952, Note_on_c, 1, 54, 92
3, 18048, Note_on_c, 1, 54, 0
3, 18048, Note_on_c, 1, 47, 92
3, 18208, Note_on_c, 1, 47, 0
3, 18384, Note_on_c, 1, 59, 45
3, 18430, Note_on_c, 1, 59, 0
3, 18432, Note_on_c, 1, 56, 45
3, 18464, Note_on_c, 1, 56, 0
3, 18624, Note_on_c, 1, 58, 45
3, 18656, Note_on_c, 1, 58, 0
3, 18816, Note_on_c, 1, 59, 45
3, 18848, Note_on_c, 1, 59, 0
3, 19008, Note_on_c, 1, 55, 45
3, 19040, Note_on_c, 1, 55, 0
3, 19200, Note_on_c, 1, 52, 45
3, 19232, Note_on_c, 1, 52, 0
3, 19392, Note_on_c, 1, 54, 45
3, 19424, Note_on_c, 1, 54, 0
3, 19584, Note_on_c, 1, 47, 45
3, 19616, Note_on_c, 1, 47, 0
3, 20064, Note_on_c, 1, 50, 92
3, 20160, Note_on_c, 1, 50, 0
3, 20160, Note_on_c, 1, 49, 92
3, 20256, Note_on_c, 1, 49, 0
3, 20256, Note_on_c, 1, 50, 92
3, 20350, Note_on_c, 1, 50, 0
3, 20448, Note_on_c, 1, 53, 92
3, 20544, Note_on_c, 1, 53, 0
3, 20544, Note_on_c, 1, 52, 92
3, 20640, Note_on_c, 1, 52, 0
3, 20640, Note_on_c, 1, 53, 92
3, 20734, Note_on_c, 1, 53, 0
3, 20832, Note_on_c, 1, 52, 92
3, 20928, Note_on_c, 1, 52, 0
3, 20928, Note_on_c, 1, 51, 92
3, 21024, Note_on_c, 1, 51, 0
3, 21024, Note_on_c, 1, 52, 92
3, 21120, Note_on_c, 1, 52, 0
3, 21120, Note_on_c, 1, 45, 92
3, 21280, Note_on_c, 1, 45, 0
3, 21456, Note_on_c, 1, 57, 45
3, 21502, Note_on_c, 1, 57, 0
3, 21504, Note_on_c, 1, 54, 45
3, 21536, Note_on_c, 1, 54, 0
3, 21696, Note_on_c, 1, 56, 45
3, 21728, Note_on_c, 1, 56, 0
3, 21888, Note_on_c, 1, 53, 45
3, 21920, Note_on_c, 1, 53, 0
3, 22080, Note_on_c, 1, 54, 45
3, 22112, Note_on_c, 1, 54, 0
3, 22272, Note_on_c, 1, 50, 45
3, 22304, Note_on_c, 1, 50, 0
3, 22464, Note_on_c, 1, 52, 45
3, 22496, Note_on_c, 1, 52, 0
3, 22656, Note_on_c, 1, 45, 45
3, 22688, Note_on_c, 1, 45, 0
3, 22944, Note_on_c, 1, 66, 92
3, 22976, Note_on_c, 1, 66, 0
3, 23040, Note_on_c, 1, 62, 92
3, 23136, Note_on_c, 1, 62, 0
3, 23136, Note_on_c, 1, 59, 92
3, 23230, Note_on_c, 1, 59, 0
3, 23232, Note_on_c, 1, 52, 92
3, 23264, Note_on_c, 1, 52, 0
3, 23328, Note_on_c, 1, 64, 92
3, 23360, Note_on_c, 1, 64, 0
3, 23424, Note_on_c, 1, 61, 92
3, 23520, Note_on_c, 1, 61, 0
3, 23520, Note_on_c, 1, 57, 92
3, 23614, Note_on_c, 1, 57, 0
3, 23712, Note_on_c, 1, 62, 92
3, 23744, Note_on_c, 1, 62, 0
3, 23808, Note_on_c, 1, 59, 92
3, 23904, Note_on_c, 1, 59, 0
3, 23904, Note_on_c, 1, 56, 92
3, 23998, Note_on_c, 1, 56, 0
3, 24000, Note_on_c, 1, 49, 92
3, 24032, Note_on_c, 1, 49, 0
3, 24096, Note_on_c, 1, 61, 92
3, 24128, Note_on_c, 1, 61, 0
3, 24192, Note_on_c, 1, 57, 92
3, 24288, Note_on_c, 1, 57, 0
3, 24288, Note_on_c, 1, 54, 92
3, 24382, Note_on_c, 1, 54, 0
3, 24480, Note_on_c, 1, 59, 92
3, 24512, Note_on_c, 1, 59, 0
3, 24576, Note_on_c, 1, 56, 92
3, 24672, Note_on_c, 1, 56, 0
3, 24672, Note_on_c, 1, 52, 92
3, 24766, Note_on_c, 1, 52, 0
3, 24768, Note_on_c, 1, 45, 92
3, 24800, Note_on_c, 1, 45, 0
3, 24864, Note_on_c, 1, 57, 92
3, 24896, Note_on_c, 1, 57, 0
3, 24960, Note_on_c, 1, 50, 92
3, 25056, Note_on_c, 1, 50, 0
3, 25056, Note_on_c, 1, 62, 92
3, 25152, Note_on_c, 1, 62, 0
3, 25152, Note_on_c, 1, 50, 92
3, 25248, Note_on_c, 1, 50, 0
3, 25248, Note_on_c, 1, 62, 92
3, 25342, Note_on_c, 1, 62, 0
3, 25344, Note_on_c, 1, 50, 92
3, 25440, Note_on_c, 1, 50, 0
3, 25440, Note_on_c, 1, 62, 92
3, 25536, Note_on_c, 1, 62, 0
3, 25536, Note_on_c, 1, 51, 92
3, 25632, Note_on_c, 1, 51, 0
3, 25632, Note_on_c, 1, 63, 92
3, 25726, Note_on_c, 1, 63, 0
3, 25728, Note_on_c, 1, 52, 92
3, 25824, Note_on_c, 1, 52, 0
3, 25824, Note_on_c, 1, 64, 92
3, 25918, Note_on_c, 1, 64, 0
3, 25920, Note_on_c, 1, 64, 92
3, 25952, Note_on_c, 1, 64, 0
3, 26016, Note_on_c, 1, 64, 92
3, 26048, Note_on_c, 1, 64, 0
3, 26112, Note_on_c, 1, 61, 92
3, 26208, Note_on_c, 1, 61, 0
3, 26208, Note_on_c, 1, 64, 92
3, 26304, Note_on_c, 1, 64, 0
3, 26304, Note_on_c, 1, 57, 92
3, 26400, Note_on_c, 1, 57, 0
3, 26400, Note_on_c, 1, 61, 92
3, 26494, Note_on_c, 1, 61, 0
3, 26496, Note_on_c, 1, 64, 92
3, 26564, Note_on_c, 1, 64, 0
3, 26592, Note_on_c, 1, 64, 92
3, 26660, Note_on_c, 1, 64, 0
3, 26688, Note_on_c, 1, 64, 92
3, 26756, Note_on_c, 1, 64, 0
3, 26784, Note_on_c, 1, 64, 92
3, 26816, Note_on_c, 1, 64, 0
3, 26880, Note_on_c, 1, 61, 92
3, 26976, Note_on_c, 1, 61, 0
3, 26976, Note_on_c, 1, 64, 92
3, 27072, Note_on_c, 1, 64, 0
3, 27072, Note_on_c, 1, 57, 92
3, 27168, Note_on_c, 1, 57, 0
3, 27168, Note_on_c, 1, 61, 92
3, 27262, Note_on_c, 1, 61, 0
3, 27264, Note_on_c, 1, 52, 92
3, 27424, Note_on_c, 1, 52, 0
3, 27648, Note_on_c, 1, 45, 92
3, 27744, Note_on_c, 1, 45, 0
3, 27744, Note_on_c, 1, 57, 92
3, 27840, Note_on_c, 1, 57, 0
3, 27840, Note_on_c, 1, 61, 92
3, 27936, Note_on_c, 1, 61, 0
3, 27936, Note_on_c, 1, 57, 92
3, 28032, Note_on_c, 1, 57, 0
3, 28032, Note_on_c, 1, 64, 92
3, 28128, Note_on_c, 1, 64, 0
3, 28128, Note_on_c, 1, 57, 92
3, 28224, Note_on_c, 1, 57, 0
3, 28224, Note_on_c, 1, 67, 92
3, 28320, Note_on_c, 1, 67, 0
3, 28320, Note_on_c, 1, 57, 92
3, 28414, Note_on_c, 1, 57, 0
3, 28416, Note_on_c, 1, 66, 92
3, 28512, Note_on_c, 1, 66, 0
3, 28512, Note_on_c, 1, 57, 92
3, 28608, Note_on_c, 1, 57, 0
3, 28608, Note_on_c, 1, 62, 92
3, 28704, Note_on_c, 1, 62, 0
3, 28704, Note_on_c, 1, 57, 92
3, 28800, Note_on_c, 1, 61, 92
3, 28960, Note_on_c, 1, 57, 0
3, 28960, Note_on_c, 1, 61, 0
3, 29088, Note_on_c, 1, 61, 92
3, 29184, Note_on_c, 1, 61, 0
3, 29184, Note_on_c, 1, 62, 92
3, 29216, Note_on_c, 1, 62, 0
3, 29280, Note_on_c, 1, 64, 92
3, 29312, Note_on_c, 1, 64, 0
3, 29376, Note_on_c, 1, 66, 92
3, 29408, Note_on_c, 1, 66, 0
3, 29472, Note_on_c, 1, 68, 92
3, 29504, Note_on_c, 1, 68, 0
3, 29568, Note_on_c, 1, 69, 92
3, 29600, Note_on_c, 1, 69, 0
3, 29664, Note_on_c, 1, 71, 92
3, 29696, Note_on_c, 1, 71, 0
3, 29760, Note_on_c, 1, 73, 92
3, 29792, Note_on_c, 1, 73, 0
3, 30048, Note_on_c, 1, 52, 92
3, 30144, Note_on_c, 1, 52, 0
3, 30144, Note_on_c, 1, 56, 92
3, 30240, Note_on_c, 1, 56, 0
3, 30240, Note_on_c, 1, 57, 92
3, 30336, Note_on_c, 1, 57, 0
3, 30336, Note_on_c, 1, 52, 92
3, 30432, Note_on_c, 1, 52, 0
3, 30432, Note_on_c, 1, 64, 92
3, 30526, Note_on_c, 1, 64, 0
3, 30720, Note_on_c, 1, 45, 92
3, 30816, Note_on_c, 1, 45, 0
3, 30816, Note_on_c, 1, 57, 92
3, 30912, Note_on_c, 1, 57, 0
3, 30912, Note_on_c, 1, 61, 92
3, 31008, Note_on_c, 1, 61, 0
3, 31008, Note_on_c, 1, 57, 92
3, 31104, Note_on_c, 1, 57, 0
3, 31104, Note_on_c, 1, 64, 92
3, 31200, Note_on_c, 1, 64, 0
3, 31200, Note_on_c, 1, 57, 92
3, 31296, Note_on_c, 1, 57, 0
3, 31296, Note_on_c, 1, 67, 92
3, 31392, Note_on_c, 1, 67, 0
3, 31392, Note_on_c, 1, 57, 92
3, 31486, Note_on_c, 1, 57, 0
3, 31488, Note_on_c, 1, 66, 92
3, 31584, Note_on_c, 1, 66, 0
3, 31584, Note_on_c, 1, 57, 92
3, 31680, Note_on_c, 1, 57, 0
3, 31680, Note_on_c, 1, 62, 92
3, 31776, Note_on_c, 1, 62, 0
3, 31776, Note_on_c, 1, 57, 92
3, 31872, Note_on_c, 1, 61, 92
3, 32032, Note_on_c, 1, 57, 0
3, 32032, Note_on_c, 1, 61, 0
3, 32160, Note_on_c, 1, 61, 92
3, 32256, Note_on_c, 1, 61, 0
3, 32256, Note_on_c, 1, 62, 92
3, 32288, Note_on_c, 1, 62, 0
3, 32352, Note_on_c, 1, 64, 92
3, 32384, Note_on_c, 1, 64, 0
3, 32448, Note_on_c, 1, 66, 92
3, 32480, Note_on_c, 1, 66, 0
3, 32544, Note_on_c, 1, 68, 92
3, 32576, Note_on_c, 1, 68, 0
3, 32640, Note_on_c, 1, 69, 92
3, 32672, Note_on_c, 1, 69, 0
3, 32736, Note_on_c, 1, 71, 92
3, 32768, Note_on_c, 1, 71, 0
3, 32832, Note_on_c, 1, 73, 92
3, 32864, Note_on_c, 1, 73, 0
3, 33120, Note_on_c, 1, 57, 92
3, 33216, Note_on_c, 1, 57, 0
3, 33216, Note_on_c, 1, 56, 92
3, 33312, Note_on_c, 1, 56, 0
3, 33312, Note_on_c, 1, 57, 92
3, 33406, Note_on_c, 1, 57, 0
3, 33408, Note_on_c, 1, 50, 92
3, 33440, Note_on_c, 1, 50, 0
3, 33504, Note_on_c, 1, 62, 92
3, 33600, Note_on_c, 1, 62, 0
3, 33600, Note_on_c, 1, 61, 92
3, 33696, Note_on_c, 1, 61, 0
3, 33696, Note_on_c, 1, 62, 92
3, 33790, Note_on_c, 1, 62, 0
3, 33792, Note_on_c, 1, 52, 92
3, 33886, Note_on_c, 1, 52, 0
3, 33888, Note_on_c, 1, 64, 92
3, 33982, Note_on_c, 1, 64, 0
3, 33984, Note_on_c, 1, 52, 92
3, 34078, Note_on_c, 1, 52, 0
3, 34080, Note_on_c, 1, 64, 92
3, 34174, Note_on_c, 1, 64, 0
3, 34176, Note_on_c, 1, 57, 92
3, 34270, Note_on_c, 1, 57, 0
3, 34272, Note_on_c, 1, 57, 92
3, 34366, Note_on_c, 1, 57, 0
3, 34368, Note_on_c, 1, 57, 45
3, 34462, Note_on_c, 1, 57, 0
3, 34464, Note_on_c, 1, 57, 45
3, 34558, Note_on_c, 1, 57, 0
3, 34560, Note_on_c, 1, 45, 45
3, 34654, Note_on_c, 1, 45, 0
3, 34656, Note_on_c, 1, 57, 45
3, 34750, Note_on_c, 1, 57, 0
3, 34752, Note_on_c, 1, 45, 45
3, 34846, Note_on_c, 1, 45, 0
3, 34848, Note_on_c, 1, 57, 45
3, 34942, Note_on_c, 1, 57, 0
3, 34944, Note_on_c, 1, 45, 45
3, 35038, Note_on_c, 1, 45, 0
3, 35040, Note_on_c, 1, 57, 45
3, 35134, Note_on_c, 1, 57, 0
3, 35136, Note_on_c, 1, 45, 45
3, 35230, Note_on_c, 1, 45, 0
3, 35232, Note_on_c, 1, 57, 45
3, 35326, Note_on_c, 1, 57, 0
3, 35328, Note_on_c, 1, 45, 45
3, 35422, Note_on_c, 1, 45, 0
3, 35424, Note_on_c, 1, 57, 45
3, 35518, Note_on_c, 1, 57, 0
3, 35520, Note_on_c, 1, 45, 45
3, 35614, Note_on_c, 1, 45, 0
3, 35616, Note_on_c, 1, 57, 45
3, 35710, Note_on_c, 1, 57, 0
3, 35712, Note_on_c, 1, 45, 45
3, 35806, Note_on_c, 1, 45, 0
3, 36192, Note_on_c, 1, 52, 92
3, 36288, Note_on_c, 1, 52, 0
3, 36288, Note_on_c, 1, 51, 92
3, 36384, Note_on_c, 1, 51, 0
3, 36384, Note_on_c, 1, 52, 92
3, 36478, Note_on_c, 1, 52, 0
3, 36576, Note_on_c, 1, 55, 92
3, 36672, Note_on_c, 1, 55, 0
3, 36672, Note_on_c, 1, 54, 92
3, 36768, Note_on_c, 1, 54, 0
3, 36768, Note_on_c, 1, 55, 92
3, 36862, Note_on_c, 1, 55, 0
3, 36960, Note_on_c, 1, 54, 92
3, 37056, Note_on_c, 1, 54, 0
3, 37056, Note_on_c, 1, 53, 92
3, 37152, Note_on_c, 1, 53, 0
3, 37152, Note_on_c, 1, 54, 92
3, 37248, Note_on_c, 1, 54, 0
3, 37248, Note_on_c, 1, 47, 92
3, 37408, Note_on_c, 1, 47, 0
3, 37584, Note_on_c, 1, 59, 45
3, 37630, Note_on_c, 1, 59, 0
3, 37632, Note_on_c, 1, 56, 45
3, 37664, Note_on_c, 1, 56, 0
3, 37824, Note_on_c, 1, 58, 45
3, 37856, Note_on_c, 1, 58, 0
3, 38016, Note_on_c, 1, 59, 45
3, 38048, Note_on_c, 1, 59, 0
3, 38208, Note_on_c, 1, 55, 45
3, 38240, Note_on_c, 1, 55, 0
3, 38400, Note_on_c, 1, 52, 45
3, 38432, Note_on_c, 1, 52, 0
3, 38592, Note_on_c, 1, 54, 45
3, 38624, Note_on_c, 1, 54, 0
3, 38784, Note_on_c, 1, 47, 45
3, 38816, Note_on_c, 1, 47, 0
3, 39264, Note_on_c, 1, 50, 92
3, 39360, Note_on_c, 1, 50, 0
3, 39360, Note_on_c, 1, 49, 92
3, 39456, Note_on_c, 1, 49, 0
3, 39456, Note_on_c, 1, 50, 92
3, 39550, Note_on_c, 1, 50, 0
3, 39648, Note_on_c, 1, 53, 92
3, 39744, Note_on_c, 1, 53, 0
3, 39744, Note_on_c, 1, 52, 92
3, 39840, Note_on_c, 1, 52, 0
3, 39840, Note_on_c, 1, 53, 92
3, 39934, Note_on_c, 1, 53, 0
3, 40032, Note_on_c, 1, 52, 92
3, 40128, Note_on_c, 1, 52, 0
3, 40128, Note_on_c, 1, 51, 92
3, 40224, Note_on_c, 1, 51, 0
3, 40224, Note_on_c, 1, 52, 92
3, 40320, Note_on_c, 1, 52, 0
3, 40320, Note_on_c, 1, 45, 92
3, 40480, Note_on_c, 1, 45, 0
3, 40656, Note_on_c, 1, 57, 45
3, 40702, Note_on_c, 1, 57, 0
3, 40704, Note_on_c, 1, 54, 45
3, 40736, Note_on_c, 1, 54, 0
3, 40896, Note_on_c, 1, 56, 45
3, 40928, Note_on_c, 1, 56, 0
3, 41088, Note_on_c, 1, 53, 45
3, 41120, Note_on_c, 1, 53, 0
3, 41280, Note_on_c, 1, 54, 45
3, 41312, Note_on_c, 1, 54, 0
3, 41472, Note_on_c, 1, 50, 45
3, 41504, Note_on_c, 1, 50, 0
3, 41664, Note_on_c, 1, 52, 45
3, 41696, Note_on_c, 1, 52, 0
3, 41856, Note_on_c, 1, 45, 45
3, 41888, Note_on_c, 1, 45, 0
3, 42144, Note_on_c, 1, 66, 92
3, 42176, Note_on_c, 1, 66, 0
3, 42240, Note_on_c, 1, 62, 92
3, 42336, Note_on_c, 1, 62, 0
3, 42336, Note_on_c, 1, 59, 92
3, 42430, Note_on_c, 1, 59, 0
3, 42432, Note_on_c, 1, 52, 92
3, 42464, Note_on_c, 1, 52, 0
3, 42528, Note_on_c, 1, 64, 92
3, 42560, Note_on_c, 1, 64, 0
3, 42624, Note_on_c, 1, 61, 92
3, 42720, Note_on_c, 1, 61, 0
3, 42720, Note_on_c, 1, 57, 92
3, 42814, Note_on_c, 1, 57, 0
3, 42912, Note_on_c, 1, 62, 92
3, 42944, Note_on_c, 1, 62, 0
3, 43008, Note_on_c, 1, 59, 92
3, 43104, Note_on_c, 1, 59, 0
3, 43104, Note_on_c, 1, 56, 92
3, 43198, Note_on_c, 1, 56, 0
3, 43200, Note_on_c, 1, 49, 92
3, 43232, Note_on_c, 1, 49, 0
3, 43296, Note_on_c, 1, 61, 92
3, 43328, Note_on_c, 1, 61, 0
3, 43392, Note_on_c, 1, 57, 92
3, 43488, Note_on_c, 1, 57, 0
3, 43488, Note_on_c, 1, 54, 92
3, 43582, Note_on_c, 1, 54, 0
3, 43680, Note_on_c, 1, 59, 92
3, 43712, Note_on_c, 1, 59, 0
3, 43776, Note_on_c, 1, 56, 92
3, 43872, Note_on_c, 1, 56, 0
3, 43872, Note_on_c, 1, 52, 92
3, 43966, Note_on_c, 1, 52, 0
3, 43968, Note_on_c, 1, 45, 92
3, 44000, Note_on_c, 1, 45, 0
3, 44064, Note_on_c, 1, 57, 92
3, 44096, Note_on_c, 1, 57, 0
3, 44160, Note_on_c, 1, 50, 92
3, 44256, Note_on_c, 1, 50, 0
3, 44256, Note_on_c, 1, 62, 92
3, 44352, Note_on_c, 1, 62, 0
3, 44352, Note_on_c, 1, 50, 92
3, 44448, Note_on_c, 1, 50, 0
3, 44448, Note_on_c, 1, 62, 92
3, 44542, Note_on_c, 1, 62, 0
3, 44544, Note_on_c, 1, 50, 92
3, 44640, Note_on_c, 1, 50, 0
3, 44640, Note_on_c, 1, 62, 92
3, 44736, Note_on_c, 1, 62, 0
3, 44736, Note_on_c, 1, 51, 92
3, 44832, Note_on_c, 1, 51, 0
3, 44832, Note_on_c, 1, 63, 92
3, 44926, Note_on_c, 1, 63, 0
3, 44928, Note_on_c, 1, 52, 92
3, 45024, Note_on_c, 1, 52, 0
3, 45024, Note_on_c, 1, 64, 92
3, 45118, Note_on_c, 1, 64, 0
3, 45120, Note_on_c, 1, 64, 92
3, 45152, Note_on_c, 1, 64, 0
3, 45216, Note_on_c, 1, 64, 92
3, 45248, Note_on_c, 1, 64, 0
3, 45312, Note_on_c, 1, 61, 92
3, 45408, Note_on_c, 1, 61, 0
3, 45408, Note_on_c, 1, 64, 92
3, 45504, Note_on_c, 1, 64, 0
3, 45504, Note_on_c, 1, 57, 92
3, 45600, Note_on_c, 1, 57, 0
3, 45600, Note_on_c, 1, 61, 92
3, 45694, Note_on_c, 1, 61, 0
3, 45696, Note_on_c, 1, 64, 92
3, 45764, Note_on_c, 1, 64, 0
3, 45792, Note_on_c, 1, 64, 92
3, 45860, Note_on_c, 1, 64, 0
3, 45888, Note_on_c, 1, 64, 92
3, 45956, Note_on_c, 1, 64, 0
3, 45984, Note_on_c, 1, 64, 92
3, 46016, Note_on_c, 1, 64, 0
3, 46080, Note_on_c, 1, 61, 92
3, 46176, Note_on_c, 1, 61, 0
3, 46176, Note_on_c, 1, 64, 92
3, 46272, Note_on_c, 1, 64, 0
3, 46272, Note_on_c, 1, 57, 92
3, 46368, Note_on_c, 1, 57, 0
3, 46368, Note_on_c, 1, 61, 92
3, 46462, Note_on_c, 1, 61, 0
3, 46464, Note_on_c, 1, 52, 92
3, 46624, Note_on_c, 1, 52, 0
3, 46848, Note_on_c, 1, 45, 92
3, 46944, Note_on_c, 1, 45, 0
3, 46944, Note_on_c, 1, 57, 92
3, 47040, Note_on_c, 1, 57, 0
3, 47040, Note_on_c, 1, 61, 92
3, 47136, Note_on_c, 1, 61, 0
3, 47136, Note_on_c, 1, 57, 92
3, 47232, Note_on_c, 1, 57, 0
3, 47232, Note_on_c, 1, 64, 92
3, 47328, Note_on_c, 1, 64, 0
3, 47328, Note_on_c, 1, 57, 92
3, 47424, Note_on_c, 1, 57, 0
3, 47424, Note_on_c, 1, 67, 92
3, 47520, Note_on_c, 1, 67, 0
3, 47520, Note_on_c, 1, 57, 92
3, 47614, Note_on_c, 1, 57, 0
3, 47616, Note_on_c, 1, 66, 92
3, 47712, Note_on_c, 1, 66, 0
3, 47712, Note_on_c, 1, 57, 92
3, 47808, Note_on_c, 1, 57, 0
3, 47808, Note_on_c, 1, 62, 92
3, 47904, Note_on_c, 1, 62, 0
3, 47904, Note_on_c, 1, 57, 92
3, 48000, Note_on_c, 1, 61, 92
3, 48160, Note_on_c, 1, 57, 0
3, 48160, Note_on_c, 1, 61, 0
3, 48288, Note_on_c, 1, 61, 92
3, 48384, Note_on_c, 1, 61, 0
3, 48384, Note_on_c, 1, 62, 92
3, 48416, Note_on_c, 1, 62, 0
3, 48480, Note_on_c, 1, 64, 92
3, 48512, Note_on_c, 1, 64, 0
3, 48576, Note_on_c, 1, 66, 92
3, 48608, Note_on_c, 1, 66, 0
3, 48672, Note_on_c, 1, 68, 92
3, 48704, Note_on_c, 1, 68, 0
3, 48768, Note_on_c, 1, 69, 92
3, 48800, Note_on_c, 1, 69, 0
3, 48864, Note_on_c, 1, 71, 92
3, 48896, Note_on_c, 1, 71, 0
3, 48960, Note_on_c, 1, 73, 92
3, 48992, Note_on_c, 1, 73, 0
3, 49248, Note_on_c, 1, 52, 92
3, 49344, Note_on_c, 1, 52, 0
3, 49344, Note_on_c, 1, 56, 92
3, 49440, Note_on_c, 1, 56, 0
3, 49440, Note_on_c, 1, 57, 92
3, 49536, Note_on_c, 1, 57, 0
3, 49536, Note_on_c, 1, 52, 92
3, 49632, Note_on_c, 1, 52, 0
3, 49632, Note_on_c, 1, 64, 92
3, 49726, Note_on_c, 1, 64, 0
3, 49920, Note_on_c, 1, 45, 92
3, 50016, Note_on_c, 1, 45, 0
3, 50016, Note_on_c, 1, 57, 92
3, 50112, Note_on_c, 1, 57, 0
3, 50112, Note_on_c, 1, 61, 92
3, 50208, Note_on_c, 1, 61, 0
3, 50208, Note_on_c, 1, 57, 92
3, 50304, Note_on_c, 1, 57, 0
3, 50304, Note_on_c, 1, 64, 92
3, 50400, Note_on_c, 1, 64, 0
3, 50400, Note_on_c, 1, 57, 92
3, 50496, Note_on_c, 1, 57, 0
3, 50496, Note_on_c, 1, 67, 92
3, 50592, Note_on_c, 1, 67, 0
3, 50592, Note_on_c, 1, 57, 92
3, 50686, Note_on_c, 1, 57, 0
3, 50688, Note_on_c, 1, 66, 92
3, 50784, Note_on_c, 1, 66, 0
3, 50784, Note_on_c, 1, 57, 92
3, 50880, Note_on_c, 1, 57, 0
3, 50880, Note_on_c, 1, 62, 92
3, 50976, Note_on_c, 1, 62, 0
3, 50976, Note_on_c, 1, 57, 92
3, 51072, Note_on_c, 1, 61, 92
3, 51232, Note_on_c, 1, 57, 0
3, 51232, Note_on_c, 1, 61, 0
3, 51360, Note_on_c, 1, 61, 92
3, 51456, Note_on_c, 1, 61, 0
3, 51456, Note_on_c, 1, 62, 92
3, 51488, Note_on_c, 1, 62, 0
3, 51552, Note_on_c, 1, 64, 92
3, 51584, Note_on_c, 1, 64, 0
3, 51648, Note_on_c, 1, 66, 92
3, 51680, Note_on_c, 1, 66, 0
3, 51744, Note_on_c, 1, 68, 92
3, 51776, Note_on_c, 1, 68, 0
3, 51840, Note_on_c, 1, 69, 92
3, 51872, Note_on_c, 1, 69, 0
3, 51936, Note_on_c, 1, 71, 92
3, 51968, Note_on_c, 1, 71, 0
3, 52032, Note_on_c, 1, 73, 92
3, 52064, Note_on_c, 1, 73, 0
3, 52320, Note_on_c, 1, 57, 92
3, 52416, Note_on_c, 1, 57, 0
3, 52416, Note_on_c, 1, 56, 92
3, 52512, Note_on_c, 1, 56, 0
3, 52512, Note_on_c, 1, 57, 92
3, 52606, Note_on_c, 1, 57, 0
3, 52608, Note_on_c, 1, 50, 92
3, 52640, Note_on_c, 1, 50, 0
3, 52704, Note_on_c, 1, 62, 92
3, 52800, Note_on_c, 1, 62, 0
3, 52800, Note_on_c, 1, 61, 92
3, 52896, Note_on_c, 1, 61, 0
3, 52896, Note_on_c, 1, 62, 92
3, 52990, Note_on_c, 1, 62, 0
3, 52992, Note_on_c, 1, 52, 92
3, 53086, Note_on_c, 1, 52, 0
3, 53088, Note_on_c, 1, 64, 92
3, 53182, Note_on_c, 1, 64, 0
3, 53184, Note_on_c, 1, 52, 92
3, 53278, Note_on_c, 1, 52, 0
3, 53280, Note_on_c, 1, 64, 92
3, 53374, Note_on_c, 1, 64, 0
3, 53376, Note_on_c, 1, 57, 92
3, 53470, Note_on_c, 1, 57, 0
3, 53472, Note_on_c, 1, 57, 92
3, 53566, Note_on_c, 1, 57, 0
3, 53568, Note_on_c, 1, 57, 45
3, 53662, Note_on_c, 1, 57, 0
3, 53664, Note_on_c, 1, 57, 45
3, 53758, Note_on_c, 1, 57, 0
3, 53760, Note_on_c, 1, 45, 45
3, 53854, Note_on_c, 1, 45, 0
3, 53856, Note_on_c, 1, 57, 45
3, 53950, Note_on_c, 1, 57, 0
3, 53952, Note_on_c, 1, 45, 45
3, 54046, Note_on_c, 1, 45, 0
3, 54048, Note_on_c, 1, 57, 45
3, 54142, Note_on_c, 1, 57, 0
3, 54144, Note_on_c, 1, 45, 45
3, 54238, Note_on_c, 1, 45, 0
3, 54240, Note_on_c, 1, 57, 45
3, 54334, Note_on_c, 1, 57, 0
3, 54336, Note_on_c, 1, 45, 45
3, 54430, Note_on_c, 1, 45, 0
3, 54432, Note_on_c, 1, 57, 45
3, 54526, Note_on_c, 1, 57, 0
3, 54528, Note_on_c, 1, 45, 45
3, 54622, Note_on_c, 1, 45, 0
3, 54624, Note_on_c, 1, 57, 45
3, 54718, Note_on_c, 1, 57, 0
3, 54720, Note_on_c, 1, 45, 45
3, 54814, Note_on_c, 1, 45, 0
3, 54816, Note_on_c, 1, 57, 45
3, 54910, Note_on_c, 1, 57, 0
3, 54912, Note_on_c, 1, 45, 45
3, 55006, Note_on_c, 1, 45, 0
3, 55006, End_track
0, 0, End_of_file