0, 0, Header, 1, 8, 192
1, 0, Start_track
1, 0, Title_t, "Dixit Dominus"
1, 0, Text_t, "By Wolfgang Amadeus Mozart"
1, 0, Copyright_t, "Copyright \251 1998 by NoteWorthy ArtWare, Inc."
1, 0, Copyright_t, "All Rights Reserved"
1, 0, Text_t, "Generated by NoteWorthy Composer"
1, 0, Tempo, 375000
1, 0, Time_signature, 3, 2, 24, 8
1, 0, End_track
2, 0, Start_track
2, 0, MIDI_port, 0
2, 0, Title_t, "Staff-1"
2, 0, Control_c, 0, 7, 127
2, 0, Control_c, 0, 10, 64
2, 0, Program_c, 0, 71
2, 0, Note_on_c, 0, 72, 108
2, 528, Note_on_c, 0, 72, 0
2, 576, Note_on_c, 0, 71, 108
2, 736, Note_on_c, 0, 71, 0
2, 2304, Note_on_c, 0, 77, 108
2, 2830, Note_on_c, 0, 77, 0
2, 2832, Note_on_c, 0, 77, 108
2, 2878, Note_on_c, 0, 77, 0
2, 2880, Note_on_c, 0, 76, 108
2, 3040, Note_on_c, 0, 76, 0
2, 4608, Note_on_c, 0, 77, 108
2, 4864, Note_on_c, 0, 77, 0
2, 4896, Note_on_c, 0, 72, 108
2, 4990, Note_on_c, 0, 72, 0
2, 4992, Note_on_c, 0, 69, 108
2, 5152, Note_on_c, 0, 69, 0
2, 5184, Note_on_c, 0, 69, 108
2, 5344, Note_on_c, 0, 69, 0
2, 5376, Note_on_c, 0, 67, 108
2, 5536, Note_on_c, 0, 67, 0
2, 5760, Note_on_c, 0, 67, 108
2, 6096, Note_on_c, 0, 67, 0
2, 6144, Note_on_c, 0, 72, 108
2, 6304, Note_on_c, 0, 72, 0
2, 6336, Note_on_c, 0, 72, 108
2, 6496, Note_on_c, 0, 72, 0
2, 6528, Note_on_c, 0, 71, 108
2, 6688, Note_on_c, 0, 71, 0
2, 6912, Note_on_c, 0, 67, 108
2, 7072, Note_on_c, 0, 67, 0
2, 7104, Note_on_c, 0, 67, 108
2, 7360, Note_on_c, 0, 67, 0
2, 7392, Note_on_c, 0, 74, 108
2, 7486, Note_on_c, 0, 74, 0
2, 7488, Note_on_c, 0, 74, 108
2, 7648, Note_on_c, 0, 74, 0
2, 7680, Note_on_c, 0, 72, 108
2, 7840, Note_on_c, 0, 72, 0
2, 8064, Note_on_c, 0, 76, 108
2, 8400, Note_on_c, 0, 76, 0
2, 8448, Note_on_c, 0, 77, 108
2, 8608, Note_on_c, 0, 77, 0
2, 8640, Note_on_c, 0, 74, 108
2, 8896, Note_on_c, 0, 74, 0
2, 8928, Note_on_c, 0, 74, 108
2, 9022, Note_on_c, 0, 74, 0
2, 9024, Note_on_c, 0, 76, 108
2, 9118, Note_on_c, 0, 76, 0
2, 9120, Note_on_c, 0, 76, 108
2, 9214, Note_on_c, 0, 76, 0
2, 9216, Note_on_c, 0, 72, 108
2, 9552, Note_on_c, 0, 72, 0
2, 9600, Note_on_c, 0, 74, 108
2, 9760, Note_on_c, 0, 74, 0
2, 9792, Note_on_c, 0, 71, 108
2, 10128, Note_on_c, 0, 71, 0
2, 10176, Note_on_c, 0, 72, 108
2, 10270, Note_on_c, 0, 72, 0
2, 10272, Note_on_c, 0, 72, 108
2, 10366, Note_on_c, 0, 72, 0
2, 10368, Note_on_c, 0, 77, 108
2, 10704, Note_on_c, 0, 77, 0
2, 10752, Note_on_c, 0, 76, 108
2, 10912, Note_on_c, 0, 76, 0
2, 10944, Note_on_c, 0, 74, 108
2, 11104, Note_on_c, 0, 74, 0
2, 11136, Note_on_c, 0, 71, 108
2, 11296, Note_on_c, 0, 71, 0
2, 11328, Note_on_c, 0, 72, 108
2, 11488, Note_on_c, 0, 72, 0
2, 11520, Note_on_c, 0, 77, 108
2, 11904, Note_on_c, 0, 77, 0
2, 11904, Note_on_c, 0, 76, 108
2, 12064, Note_on_c, 0, 76, 0
2, 12096, Note_on_c, 0, 74, 108
2, 12256, Note_on_c, 0, 74, 0
2, 13248, Note_on_c, 0, 79, 108
2, 13584, Note_on_c, 0, 79, 0
2, 13632, Note_on_c, 0, 76, 108
2, 13792, Note_on_c, 0, 76, 0
2, 13824, Note_on_c, 0, 73, 108
2, 13984, Note_on_c, 0, 73, 0
2, 14016, Note_on_c, 0, 76, 108
2, 14176, Note_on_c, 0, 76, 0
2, 14208, Note_on_c, 0, 70, 108
2, 14368, Note_on_c, 0, 70, 0
2, 14400, Note_on_c, 0, 69, 108
2, 14560, Note_on_c, 0, 69, 0
2, 14592, Note_on_c, 0, 69, 108
2, 14752, Note_on_c, 0, 69, 0
2, 14784, Note_on_c, 0, 69, 108
2, 14944, Note_on_c, 0, 69, 0
2, 14976, Note_on_c, 0, 69, 108
2, 15312, Note_on_c, 0, 69, 0
2, 15360, Note_on_c, 0, 79, 108
2, 15520, Note_on_c, 0, 79, 0
2, 15552, Note_on_c, 0, 77, 108
2, 15646, Note_on_c, 0, 77, 0
2, 15648, Note_on_c, 0, 74, 108
2, 15742, Note_on_c, 0, 74, 0
2, 15744, Note_on_c, 0, 73, 108
2, 15840, Note_on_c, 0, 73, 0
2, 15840, Note_on_c, 0, 74, 108
2, 15934, Note_on_c, 0, 74, 0
2, 15936, Note_on_c, 0, 76, 108
2, 16032, Note_on_c, 0, 76, 0
2, 16032, Note_on_c, 0, 77, 108
2, 16126, Note_on_c, 0, 77, 0
2, 16128, Note_on_c, 0, 79, 108
2, 16656, Note_on_c, 0, 79, 0
2, 16704, Note_on_c, 0, 77, 108
2, 16864, Note_on_c, 0, 77, 0
2, 16896, Note_on_c, 0, 77, 108
2, 17056, Note_on_c, 0, 77, 0
2, 17088, Note_on_c, 0, 74, 108
2, 17248, Note_on_c, 0, 74, 0
2, 17280, Note_on_c, 0, 71, 108
2, 17440, Note_on_c, 0, 71, 0
2, 17472, Note_on_c, 0, 74, 108
2, 17632, Note_on_c, 0, 74, 0
2, 17664, Note_on_c, 0, 68, 108
2, 17824, Note_on_c, 0, 68, 0
2, 17856, Note_on_c, 0, 67, 108
2, 18112, Note_on_c, 0, 67, 0
2, 18144, Note_on_c, 0, 67, 108
2, 18238, Note_on_c, 0, 67, 0
2, 18240, Note_on_c, 0, 67, 108
2, 18400, Note_on_c, 0, 67, 0
2, 18432, Note_on_c, 0, 67, 108
2, 18592, Note_on_c, 0, 67, 0
2, 18624, Note_on_c, 0, 67, 108
2, 18784, Note_on_c, 0, 67, 0
2, 18816, Note_on_c, 0, 77, 108
2, 18976, Note_on_c, 0, 77, 0
2, 19008, Note_on_c, 0, 76, 108
2, 19104, Note_on_c, 0, 76, 0
2, 19104, Note_on_c, 0, 72, 108
2, 19198, Note_on_c, 0, 72, 0
2, 19200, Note_on_c, 0, 71, 108
2, 19296, Note_on_c, 0, 71, 0
2, 19296, Note_on_c, 0, 72, 108
2, 19390, Note_on_c, 0, 72, 0
2, 19392, Note_on_c, 0, 74, 108
2, 19488, Note_on_c, 0, 74, 0
2, 19488, Note_on_c, 0, 76, 108
2, 19582, Note_on_c, 0, 76, 0
2, 19584, Note_on_c, 0, 77, 108
2, 20112, Note_on_c, 0, 77, 0
2, 20160, Note_on_c, 0, 76, 108
2, 20320, Note_on_c, 0, 76, 0
2, 20352, Note_on_c, 0, 76, 108
2, 20512, Note_on_c, 0, 76, 0
2, 20544, Note_on_c, 0, 76, 108
2, 20704, Note_on_c, 0, 76, 0
2, 20736, Note_on_c, 0, 75, 108
2, 21264, Note_on_c, 0, 75, 0
2, 21312, Note_on_c, 0, 76, 108
2, 21454, Note_on_c, 0, 76, 0
2, 21456, Note_on_c, 0, 76, 108
2, 21502, Note_on_c, 0, 76, 0
2, 21504, Note_on_c, 0, 79, 108
2, 21664, Note_on_c, 0, 79, 0
2, 21696, Note_on_c, 0, 76, 108
2, 21856, Note_on_c, 0, 76, 0
2, 21888, Note_on_c, 0, 73, 108
2, 22224, Note_on_c, 0, 73, 0
2, 22272, Note_on_c, 0, 73, 108
2, 22432, Note_on_c, 0, 73, 0
2, 22464, Note_on_c, 0, 74, 108
2, 22624, Note_on_c, 0, 74, 0
2, 22656, Note_on_c, 0, 77, 108
2, 22816, Note_on_c, 0, 77, 0
2, 22848, Note_on_c, 0, 74, 108
2, 23008, Note_on_c, 0, 74, 0
2, 23040, Note_on_c, 0, 71, 108
2, 23568, Note_on_c, 0, 71, 0
2, 23616, Note_on_c, 0, 72, 108
2, 23776, Note_on_c, 0, 72, 0
2, 23808, Note_on_c, 0, 72, 108
2, 23968, Note_on_c, 0, 72, 0
2, 24000, Note_on_c, 0, 79, 108
2, 24160, Note_on_c, 0, 79, 0
2, 24192, Note_on_c, 0, 78, 108
2, 24448, Note_on_c, 0, 78, 0
2, 24480, Note_on_c, 0, 78, 108
2, 24574, Note_on_c, 0, 78, 0
2, 24576, Note_on_c, 0, 78, 108
2, 24670, Note_on_c, 0, 78, 0
2, 24672, Note_on_c, 0, 78, 108
2, 24766, Note_on_c, 0, 78, 0
2, 24768, Note_on_c, 0, 76, 108
2, 25296, Note_on_c, 0, 76, 0
2, 25344, Note_on_c, 0, 74, 108
2, 25680, Note_on_c, 0, 74, 0
2, 25728, Note_on_c, 0, 74, 108
2, 25888, Note_on_c, 0, 74, 0
2, 25920, Note_on_c, 0, 72, 108
2, 26176, Note_on_c, 0, 72, 0
2, 26208, Note_on_c, 0, 72, 108
2, 26302, Note_on_c, 0, 72, 0
2, 26304, Note_on_c, 0, 72, 108
2, 26464, Note_on_c, 0, 72, 0
2, 26496, Note_on_c, 0, 71, 108
2, 26656, Note_on_c, 0, 71, 0
2, 26688, Note_on_c, 0, 71, 108
2, 26848, Note_on_c, 0, 71, 0
2, 26880, Note_on_c, 0, 74, 108
2, 27040, Note_on_c, 0, 74, 0
2, 27072, Note_on_c, 0, 79, 108
2, 27328, Note_on_c, 0, 79, 0
2, 27360, Note_on_c, 0, 78, 108
2, 27408, Note_on_c, 0, 78, 0
2, 27408, Note_on_c, 0, 76, 108
2, 27454, Note_on_c, 0, 76, 0
2, 27456, Note_on_c, 0, 74, 108
2, 27616, Note_on_c, 0, 74, 0
2, 27648, Note_on_c, 0, 72, 108
2, 27840, Note_on_c, 0, 72, 0
2, 27840, Note_on_c, 0, 71, 108
2, 27982, Note_on_c, 0, 71, 0
2, 27984, Note_on_c, 0, 71, 108
2, 28030, Note_on_c, 0, 71, 0
2, 28032, Note_on_c, 0, 69, 108
2, 28192, Note_on_c, 0, 69, 0
2, 28224, Note_on_c, 0, 67, 108
2, 28384, Note_on_c, 0, 67, 0
2, 28800, Note_on_c, 0, 79, 108
2, 29328, Note_on_c, 0, 79, 0
2, 29376, Note_on_c, 0, 71, 108
2, 29712, Note_on_c, 0, 71, 0
2, 29760, Note_on_c, 0, 76, 108
2, 29920, Note_on_c, 0, 76, 0
2, 29952, Note_on_c, 0, 73, 108
2, 30478, Note_on_c, 0, 73, 0
2, 30480, Note_on_c, 0, 73, 108
2, 30526, Note_on_c, 0, 73, 0
2, 30528, Note_on_c, 0, 74, 108
2, 30688, Note_on_c, 0, 74, 0
2, 31104, Note_on_c, 0, 74, 60
2, 31440, Note_on_c, 0, 74, 0
2, 31488, Note_on_c, 0, 76, 60
2, 31584, Note_on_c, 0, 76, 0
2, 31584, Note_on_c, 0, 74, 60
2, 31678, Note_on_c, 0, 74, 0
2, 31680, Note_on_c, 0, 74, 60
2, 31776, Note_on_c, 0, 74, 0
2, 31776, Note_on_c, 0, 72, 60
2, 31872, Note_on_c, 0, 72, 0
2, 31872, Note_on_c, 0, 71, 60
2, 31968, Note_on_c, 0, 71, 0
2, 31968, Note_on_c, 0, 72, 60
2, 32062, Note_on_c, 0, 72, 0
2, 32064, Note_on_c, 0, 72, 60
2, 32224, Note_on_c, 0, 72, 0
2, 32256, Note_on_c, 0, 72, 60
2, 32544, Note_on_c, 0, 72, 0
2, 32544, Note_on_c, 0, 76, 60
2, 32638, Note_on_c, 0, 76, 0
2, 32640, Note_on_c, 0, 74, 60
2, 32736, Note_on_c, 0, 74, 0
2, 32736, Note_on_c, 0, 72, 60
2, 32830, Note_on_c, 0, 72, 0
2, 32832, Note_on_c, 0, 72, 60
2, 32992, Note_on_c, 0, 72, 0
2, 33024, Note_on_c, 0, 71, 60
2, 33184, Note_on_c, 0, 71, 0
2, 33408, Note_on_c, 0, 74, 92
2, 33568, Note_on_c, 0, 74, 0
2, 33600, Note_on_c, 0, 74, 92
2, 33856, Note_on_c, 0, 74, 0
2, 33888, Note_on_c, 0, 76, 92
2, 33982, Note_on_c, 0, 76, 0
2, 33984, Note_on_c, 0, 67, 92
2, 34144, Note_on_c, 0, 67, 0
2, 34176, Note_on_c, 0, 66, 92
2, 34336, Note_on_c, 0, 66, 0
2, 34560, Note_on_c, 0, 72, 92
2, 34848, Note_on_c, 0, 72, 0
2, 34848, Note_on_c, 0, 76, 92
2, 34942, Note_on_c, 0, 76, 0
2, 34944, Note_on_c, 0, 74, 92
2, 35040, Note_on_c, 0, 74, 0
2, 35040, Note_on_c, 0, 72, 92
2, 35134, Note_on_c, 0, 72, 0
2, 35136, Note_on_c, 0, 72, 92
2, 35296, Note_on_c, 0, 72, 0
2, 35328, Note_on_c, 0, 71, 92
2, 35488, Note_on_c, 0, 71, 0
2, 35520, Note_on_c, 0, 67, 92
2, 35680, Note_on_c, 0, 67, 0
2, 35712, Note_on_c, 0, 74, 92
2, 36240, Note_on_c, 0, 74, 0
2, 36288, Note_on_c, 0, 74, 92
2, 36816, Note_on_c, 0, 74, 0
2, 36864, Note_on_c, 0, 74, 92
2, 37120, Note_on_c, 0, 74, 0
2, 37152, Note_on_c, 0, 74, 92
2, 37246, Note_on_c, 0, 74, 0
2, 37248, Note_on_c, 0, 72, 92
2, 37342, Note_on_c, 0, 72, 0
2, 37344, Note_on_c, 0, 71, 92
2, 37438, Note_on_c, 0, 71, 0
2, 37440, Note_on_c, 0, 72, 92
2, 37966, Note_on_c, 0, 72, 0
2, 37968, Note_on_c, 0, 72, 92
2, 38014, Note_on_c, 0, 72, 0
2, 38016, Note_on_c, 0, 71, 92
2, 38176, Note_on_c, 0, 71, 0
2, 38208, Note_on_c, 0, 76, 92
2, 38350, Note_on_c, 0, 76, 0
2, 38352, Note_on_c, 0, 76, 92
2, 38398, Note_on_c, 0, 76, 0
2, 38400, Note_on_c, 0, 76, 92
2, 38560, Note_on_c, 0, 76, 0
2, 38592, Note_on_c, 0, 76, 92
2, 38752, Note_on_c, 0, 76, 0
2, 38784, Note_on_c, 0, 76, 92
2, 38944, Note_on_c, 0, 76, 0
2, 38976, Note_on_c, 0, 76, 92
2, 39136, Note_on_c, 0, 76, 0
2, 39168, Note_on_c, 0, 76, 92
2, 39696, Note_on_c, 0, 76, 0
2, 39744, Note_on_c, 0, 76, 92
2, 39838, Note_on_c, 0, 76, 0
2, 39840, Note_on_c, 0, 76, 92
2, 39934, Note_on_c, 0, 76, 0
2, 39936, Note_on_c, 0, 76, 92
2, 40096, Note_on_c, 0, 76, 0
2, 40128, Note_on_c, 0, 76, 92
2, 40288, Note_on_c, 0, 76, 0
2, 40320, Note_on_c, 0, 76, 92
2, 40848, Note_on_c, 0, 76, 0
2, 40896, Note_on_c, 0, 76, 92
2, 41056, Note_on_c, 0, 76, 0
2, 41280, Note_on_c, 0, 69, 92
2, 41440, Note_on_c, 0, 69, 0
2, 41472, Note_on_c, 0, 77, 92
2, 41760, Note_on_c, 0, 77, 0
2, 41760, Note_on_c, 0, 76, 92
2, 41854, Note_on_c, 0, 76, 0
2, 41856, Note_on_c, 0, 77, 92
2, 41950, Note_on_c, 0, 77, 0
2, 41952, Note_on_c, 0, 76, 92
2, 42046, Note_on_c, 0, 76, 0
2, 42048, Note_on_c, 0, 77, 92
2, 42304, Note_on_c, 0, 77, 0
2, 42336, Note_on_c, 0, 76, 92
2, 42430, Note_on_c, 0, 76, 0
2, 42432, Note_on_c, 0, 77, 92
2, 42526, Note_on_c, 0, 77, 0
2, 42528, Note_on_c, 0, 76, 92
2, 42622, Note_on_c, 0, 76, 0
2, 42624, Note_on_c, 0, 77, 92
2, 42960, Note_on_c, 0, 77, 0
2, 43008, Note_on_c, 0, 76, 92
2, 43168, Note_on_c, 0, 76, 0
2, 43200, Note_on_c, 0, 75, 127
2, 43728, Note_on_c, 0, 75, 0
2, 43776, Note_on_c, 0, 74, 127
2, 44254, Note_on_c, 0, 74, 0
2, 44256, Note_on_c, 0, 74, 92
2, 44350, Note_on_c, 0, 74, 0
2, 44352, Note_on_c, 0, 73, 127
2, 44880, Note_on_c, 0, 73, 0
2, 44928, Note_on_c, 0, 72, 127
2, 45456, Note_on_c, 0, 72, 0
2, 45504, Note_on_c, 0, 71, 92
2, 45760, Note_on_c, 0, 71, 0
2, 45792, Note_on_c, 0, 71, 92
2, 45886, Note_on_c, 0, 71, 0
2, 45888, Note_on_c, 0, 69, 92
2, 46174, Note_on_c, 0, 69, 0
2, 46176, Note_on_c, 0, 69, 92
2, 46270, Note_on_c, 0, 69, 0
2, 46272, Note_on_c, 0, 69, 92
2, 46464, Note_on_c, 0, 69, 0
2, 46464, Note_on_c, 0, 68, 92
2, 46624, Note_on_c, 0, 68, 0
2, 46656, Note_on_c, 0, 69, 92
2, 46816, Note_on_c, 0, 69, 0
2, 47232, Note_on_c, 0, 69, 92
2, 47760, Note_on_c, 0, 69, 0
2, 47808, Note_on_c, 0, 70, 92
2, 48336, Note_on_c, 0, 70, 0
2, 48384, Note_on_c, 0, 79, 92
2, 48720, Note_on_c, 0, 79, 0
2, 48768, Note_on_c, 0, 77, 92
2, 48928, Note_on_c, 0, 77, 0
2, 48960, Note_on_c, 0, 77, 92
2, 49120, Note_on_c, 0, 77, 0
2, 49152, Note_on_c, 0, 75, 92
2, 49312, Note_on_c, 0, 75, 0
2, 49344, Note_on_c, 0, 74, 92
2, 49504, Note_on_c, 0, 74, 0
2, 49536, Note_on_c, 0, 73, 92
2, 49792, Note_on_c, 0, 73, 0
2, 49824, Note_on_c, 0, 73, 92
2, 49918, Note_on_c, 0, 73, 0
2, 49920, Note_on_c, 0, 74, 92
2, 50080, Note_on_c, 0, 74, 0
2, 50208, Note_on_c, 0, 69, 92
2, 50302, Note_on_c, 0, 69, 0
2, 50304, Note_on_c, 0, 69, 92
2, 50464, Note_on_c, 0, 69, 0
2, 50496, Note_on_c, 0, 69, 92
2, 50590, Note_on_c, 0, 69, 0
2, 50592, Note_on_c, 0, 69, 92
2, 50686, Note_on_c, 0, 69, 0
2, 50688, Note_on_c, 0, 69, 92
2, 51360, Note_on_c, 0, 69, 0
2, 51360, Note_on_c, 0, 74, 92
2, 51454, Note_on_c, 0, 74, 0
2, 51456, Note_on_c, 0, 73, 92
2, 51552, Note_on_c, 0, 73, 0
2, 51552, Note_on_c, 0, 74, 92
2, 51646, Note_on_c, 0, 74, 0
2, 51648, Note_on_c, 0, 76, 92
2, 51742, Note_on_c, 0, 76, 0
2, 51744, Note_on_c, 0, 77, 92
2, 51838, Note_on_c, 0, 77, 0
2, 51840, Note_on_c, 0, 79, 92
2, 52368, Note_on_c, 0, 79, 0
2, 52416, Note_on_c, 0, 77, 92
2, 52576, Note_on_c, 0, 77, 0
2, 52608, Note_on_c, 0, 77, 92
2, 52768, Note_on_c, 0, 77, 0
2, 52800, Note_on_c, 0, 77, 92
2, 52960, Note_on_c, 0, 77, 0
2, 52992, Note_on_c, 0, 77, 92
2, 53280, Note_on_c, 0, 77, 0
2, 53280, Note_on_c, 0, 76, 92
2, 53374, Note_on_c, 0, 76, 0
2, 53376, Note_on_c, 0, 77, 92
2, 53472, Note_on_c, 0, 77, 0
2, 53472, Note_on_c, 0, 76, 92
2, 53566, Note_on_c, 0, 76, 0
2, 53568, Note_on_c, 0, 77, 92
2, 53824, Note_on_c, 0, 77, 0
2, 53856, Note_on_c, 0, 76, 92
2, 53950, Note_on_c, 0, 76, 0
2, 53952, Note_on_c, 0, 77, 92
2, 54046, Note_on_c, 0, 77, 0
2, 54048, Note_on_c, 0, 76, 92
2, 54142, Note_on_c, 0, 76, 0
2, 54144, Note_on_c, 0, 77, 92
2, 54304, Note_on_c, 0, 77, 0
2, 54336, Note_on_c, 0, 74, 92
2, 54496, Note_on_c, 0, 74, 0
2, 54528, Note_on_c, 0, 71, 92
2, 54688, Note_on_c, 0, 71, 0
2, 54720, Note_on_c, 0, 71, 92
2, 54816, Note_on_c, 0, 71, 0
2, 54816, Note_on_c, 0, 67, 92
2, 54910, Note_on_c, 0, 67, 0
2, 54912, Note_on_c, 0, 67, 92
2, 55072, Note_on_c, 0, 67, 0
2, 55104, Note_on_c, 0, 67, 92
2, 55264, Note_on_c, 0, 67, 0
2, 55296, Note_on_c, 0, 67, 92
2, 55968, Note_on_c, 0, 67, 0
2, 55968, Note_on_c, 0, 72, 92
2, 56062, Note_on_c, 0, 72, 0
2, 56064, Note_on_c, 0, 71, 92
2, 56160, Note_on_c, 0, 71, 0
2, 56160, Note_on_c, 0, 72, 92
2, 56254, Note_on_c, 0, 72, 0
2, 56256, Note_on_c, 0, 74, 92
2, 56352, Note_on_c, 0, 74, 0
2, 56352, Note_on_c, 0, 76, 92
2, 56446, Note_on_c, 0, 76, 0
2, 56448, Note_on_c, 0, 77, 92
2, 56976, Note_on_c, 0, 77, 0
2, 57024, Note_on_c, 0, 76, 92
2, 57184, Note_on_c, 0, 76, 0
2, 57216, Note_on_c, 0, 76, 92
2, 57376, Note_on_c, 0, 76, 0
2, 57408, Note_on_c, 0, 76, 92
2, 57568, Note_on_c, 0, 76, 0
2, 57600, Note_on_c, 0, 75, 92
2, 58128, Note_on_c, 0, 75, 0
2, 58176, Note_on_c, 0, 76, 92
2, 58270, Note_on_c, 0, 76, 0
2, 58272, Note_on_c, 0, 76, 92
2, 58366, Note_on_c, 0, 76, 0
2, 58368, Note_on_c, 0, 79, 92
2, 58528, Note_on_c, 0, 79, 0
2, 58560, Note_on_c, 0, 76, 92
2, 58720, Note_on_c, 0, 76, 0
2, 58752, Note_on_c, 0, 73, 92
2, 59280, Note_on_c, 0, 73, 0
2, 59328, Note_on_c, 0, 74, 92
2, 59422, Note_on_c, 0, 74, 0
2, 59424, Note_on_c, 0, 74, 92
2, 59518, Note_on_c, 0, 74, 0
2, 59520, Note_on_c, 0, 77, 92
2, 59680, Note_on_c, 0, 77, 0
2, 59712, Note_on_c, 0, 74, 92
2, 59872, Note_on_c, 0, 74, 0
2, 59904, Note_on_c, 0, 71, 92
2, 60432, Note_on_c, 0, 71, 0
2, 60480, Note_on_c, 0, 72, 92
2, 60640, Note_on_c, 0, 72, 0
2, 60672, Note_on_c, 0, 72, 92
2, 60864, Note_on_c, 0, 72, 0
2, 60864, Note_on_c, 0, 79, 92
2, 61024, Note_on_c, 0, 79, 0
2, 61056, Note_on_c, 0, 78, 92
2, 61312, Note_on_c, 0, 78, 0
2, 61344, Note_on_c, 0, 78, 92
2, 61438, Note_on_c, 0, 78, 0
2, 61440, Note_on_c, 0, 78, 92
2, 61600, Note_on_c, 0, 78, 0
2, 61632, Note_on_c, 0, 76, 92
2, 61968, Note_on_c, 0, 76, 0
2, 62016, Note_on_c, 0, 76, 92
2, 62176, Note_on_c, 0, 76, 0
2, 62208, Note_on_c, 0, 74, 92
2, 62736, Note_on_c, 0, 74, 0
2, 62784, Note_on_c, 0, 72, 92
2, 63312, Note_on_c, 0, 72, 0
2, 63360, Note_on_c, 0, 71, 92
2, 63888, Note_on_c, 0, 71, 0
2, 63936, Note_on_c, 0, 72, 92
2, 64464, Note_on_c, 0, 72, 0
2, 64512, Note_on_c, 0, 74, 92
2, 65040, Note_on_c, 0, 74, 0
2, 65088, Note_on_c, 0, 76, 92
2, 65616, Note_on_c, 0, 76, 0
2, 65664, Note_on_c, 0, 77, 92
2, 66192, Note_on_c, 0, 77, 0
2, 66240, Note_on_c, 0, 77, 92
2, 66768, Note_on_c, 0, 77, 0
2, 67392, Note_on_c, 0, 74, 92
2, 67648, Note_on_c, 0, 74, 0
2, 67680, Note_on_c, 0, 71, 92
2, 67774, Note_on_c, 0, 71, 0
2, 67776, Note_on_c, 0, 72, 92
2, 67936, Note_on_c, 0, 72, 0
2, 68544, Note_on_c, 0, 77, 92
2, 68832, Note_on_c, 0, 77, 0
2, 68832, Note_on_c, 0, 74, 92
2, 68926, Note_on_c, 0, 74, 0
2, 68928, Note_on_c, 0, 76, 92
2, 69088, Note_on_c, 0, 76, 0
2, 71424, Note_on_c, 0, 79, 92
2, 71902, Note_on_c, 0, 79, 0
2, 71904, Note_on_c, 0, 79, 92
2, 71998, Note_on_c, 0, 79, 0
2, 72000, Note_on_c, 0, 77, 92
2, 72336, Note_on_c, 0, 77, 0
2, 72384, Note_on_c, 0, 74, 92
2, 72478, Note_on_c, 0, 74, 0
2, 72480, Note_on_c, 0, 77, 92
2, 72574, Note_on_c, 0, 77, 0
2, 72576, Note_on_c, 0, 77, 92
2, 72960, Note_on_c, 0, 77, 0
2, 72960, Note_on_c, 0, 76, 92
2, 73120, Note_on_c, 0, 76, 0
2, 73152, Note_on_c, 0, 74, 92
2, 73312, Note_on_c, 0, 74, 0
2, 73728, Note_on_c, 0, 67, 92
2, 74064, Note_on_c, 0, 67, 0
2, 74112, Note_on_c, 0, 72, 92
2, 74272, Note_on_c, 0, 72, 0
2, 74304, Note_on_c, 0, 72, 92
2, 74464, Note_on_c, 0, 72, 0
2, 74496, Note_on_c, 0, 71, 92
2, 74656, Note_on_c, 0, 71, 0
2, 74880, Note_on_c, 0, 67, 92
2, 75216, Note_on_c, 0, 67, 0
2, 75264, Note_on_c, 0, 74, 92
2, 75424, Note_on_c, 0, 74, 0
2, 75456, Note_on_c, 0, 74, 92
2, 75598, Note_on_c, 0, 74, 0
2, 75600, Note_on_c, 0, 74, 92
2, 75646, Note_on_c, 0, 74, 0
2, 75648, Note_on_c, 0, 72, 92
2, 75808, Note_on_c, 0, 72, 0
2, 76032, Note_on_c, 0, 76, 92
2, 76368, Note_on_c, 0, 76, 0
2, 76416, Note_on_c, 0, 77, 92
2, 76576, Note_on_c, 0, 77, 0
2, 76608, Note_on_c, 0, 74, 92
2, 76944, Note_on_c, 0, 74, 0
2, 76992, Note_on_c, 0, 76, 92
2, 77152, Note_on_c, 0, 76, 0
2, 77184, Note_on_c, 0, 72, 92
2, 77520, Note_on_c, 0, 72, 0
2, 77568, Note_on_c, 0, 74, 92
2, 77728, Note_on_c, 0, 74, 0
2, 77760, Note_on_c, 0, 71, 92
2, 77902, Note_on_c, 0, 71, 0
2, 77904, Note_on_c, 0, 71, 92
2, 77950, Note_on_c, 0, 71, 0
2, 77952, Note_on_c, 0, 71, 92
2, 78112, Note_on_c, 0, 71, 0
2, 78144, Note_on_c, 0, 72, 92
2, 78304, Note_on_c, 0, 72, 0
2, 78336, Note_on_c, 0, 77, 92
2, 78672, Note_on_c, 0, 77, 0
2, 78720, Note_on_c, 0, 76, 92
2, 78880, Note_on_c, 0, 76, 0
2, 78912, Note_on_c, 0, 74, 92
2, 79104, Note_on_c, 0, 74, 0
2, 79104, Note_on_c, 0, 71, 92
2, 79264, Note_on_c, 0, 71, 0
2, 79296, Note_on_c, 0, 72, 92
2, 79456, Note_on_c, 0, 72, 0
2, 79488, Note_on_c, 0, 77, 92
2, 79824, Note_on_c, 0, 77, 0
2, 79872, Note_on_c, 0, 76, 92
2, 80032, Note_on_c, 0, 76, 0
2, 80064, Note_on_c, 0, 74, 92
2, 80256, Note_on_c, 0, 74, 0
2, 80256, Note_on_c, 0, 71, 92
2, 80398, Note_on_c, 0, 71, 0
2, 80400, Note_on_c, 0, 71, 92
2, 80446, Note_on_c, 0, 71, 0
2, 80448, Note_on_c, 0, 72, 92
2, 80608, Note_on_c, 0, 72, 0
2, 80640, Note_on_c, 0, 79, 92
2, 80832, Note_on_c, 0, 79, 0
2, 80832, Note_on_c, 0, 76, 92
2, 80992, Note_on_c, 0, 76, 0
2, 81024, Note_on_c, 0, 72, 92
2, 81184, Note_on_c, 0, 72, 0
2, 81216, Note_on_c, 0, 67, 45
2, 81792, Note_on_c, 0, 67, 0
2, 81792, Note_on_c, 0, 79, 45
2, 82368, Note_on_c, 0, 79, 0
2, 82368, Note_on_c, 0, 78, 45
2, 82944, Note_on_c, 0, 78, 0
2, 82944, Note_on_c, 0, 77, 45
2, 83520, Note_on_c, 0, 77, 0
2, 83520, Note_on_c, 0, 76, 45
2, 84096, Note_on_c, 0, 76, 0
2, 84096, Note_on_c, 0, 75, 45
2, 84672, Note_on_c, 0, 75, 0
2, 84672, Note_on_c, 0, 74, 45
2, 85008, Note_on_c, 0, 74, 0
2, 85056, Note_on_c, 0, 79, 45
2, 85216, Note_on_c, 0, 79, 0
2, 85248, Note_on_c, 0, 77, 45
2, 85440, Note_on_c, 0, 77, 0
2, 85440, Note_on_c, 0, 76, 45
2, 85632, Note_on_c, 0, 76, 0
2, 85632, Note_on_c, 0, 74, 45
2, 85792, Note_on_c, 0, 74, 0
2, 85824, Note_on_c, 0, 72, 45
2, 85984, Note_on_c, 0, 72, 0
2, 86016, Note_on_c, 0, 79, 92
2, 86176, Note_on_c, 0, 79, 0
2, 86208, Note_on_c, 0, 79, 92
2, 86368, Note_on_c, 0, 79, 0
2, 86400, Note_on_c, 0, 79, 92
2, 86928, Note_on_c, 0, 79, 0
2, 86976, Note_on_c, 0, 78, 92
2, 87136, Note_on_c, 0, 78, 0
2, 87168, Note_on_c, 0, 78, 92
2, 87328, Note_on_c, 0, 78, 0
2, 87360, Note_on_c, 0, 78, 92
2, 87520, Note_on_c, 0, 78, 0
2, 87552, Note_on_c, 0, 77, 92
2, 88080, Note_on_c, 0, 77, 0
2, 88128, Note_on_c, 0, 76, 92
2, 88288, Note_on_c, 0, 76, 0
2, 88320, Note_on_c, 0, 76, 92
2, 88480, Note_on_c, 0, 76, 0
2, 88512, Note_on_c, 0, 76, 92
2, 88672, Note_on_c, 0, 76, 0
2, 88704, Note_on_c, 0, 75, 92
2, 89280, Note_on_c, 0, 75, 0
2, 89280, Note_on_c, 0, 74, 92
2, 89616, Note_on_c, 0, 74, 0
2, 89664, Note_on_c, 0, 79, 92
2, 89824, Note_on_c, 0, 79, 0
2, 89856, Note_on_c, 0, 77, 92
2, 90048, Note_on_c, 0, 77, 0
2, 90048, Note_on_c, 0, 76, 92
2, 90240, Note_on_c, 0, 76, 0
2, 90240, Note_on_c, 0, 74, 92
2, 90400, Note_on_c, 0, 74, 0
2, 90432, Note_on_c, 0, 72, 92
2, 90592, Note_on_c, 0, 72, 0
2, 91584, Note_on_c, 0, 76, 92
2, 91678, Note_on_c, 0, 76, 0
2, 91680, Note_on_c, 0, 76, 92
2, 91774, Note_on_c, 0, 76, 0
2, 91776, Note_on_c, 0, 74, 92
2, 92112, Note_on_c, 0, 74, 0
2, 92160, Note_on_c, 0, 72, 92
2, 92320, Note_on_c, 0, 72, 0
2, 93312, Note_on_c, 0, 76, 92
2, 93406, Note_on_c, 0, 76, 0
2, 93408, Note_on_c, 0, 76, 92
2, 93502, Note_on_c, 0, 76, 0
2, 93504, Note_on_c, 0, 74, 92
2, 93840, Note_on_c, 0, 74, 0
2, 93888, Note_on_c, 0, 72, 92
2, 94048, Note_on_c, 0, 72, 0
2, 94048, End_track
3, 0, Start_track
3, 0, MIDI_port, 0
3, 0, Title_t, "Staff-2"
3, 0, Control_c, 1, 7, 127
3, 0, Control_c, 1, 10, 64
3, 0, Program_c, 1, 71
3, 0, Note_on_c, 1, 64, 108
3, 528, Note_on_c, 1, 64, 0
3, 576, Note_on_c, 1, 65, 108
3, 736, Note_on_c, 1, 65, 0
3, 2304, Note_on_c, 1, 67, 108
3, 2830, Note_on_c, 1, 67, 0
3, 2832, Note_on_c, 1, 67, 108
3, 2878, Note_on_c, 1, 67, 0
3, 2880, Note_on_c, 1, 67, 108
3, 3040, Note_on_c, 1, 67, 0
3, 4608, Note_on_c, 1, 69, 108
3, 4864, Note_on_c, 1, 69, 0
3, 4896, Note_on_c, 1, 69, 108
3, 4990, Note_on_c, 1, 69, 0
3, 4992, Note_on_c, 1, 65, 108
3, 5152, Note_on_c, 1, 65, 0
3, 5184, Note_on_c, 1, 65, 108
3, 5344, Note_on_c, 1, 65, 0
3, 5376, Note_on_c, 1, 64, 108
3, 5536, Note_on_c, 1, 64, 0
3, 5760, Note_on_c, 1, 64, 108
3, 6096, Note_on_c, 1, 64, 0
3, 6144, Note_on_c, 1, 69, 108
3, 6304, Note_on_c, 1, 69, 0
3, 6336, Note_on_c, 1, 67, 108
3, 6496, Note_on_c, 1, 67, 0
3, 6528, Note_on_c, 1, 67, 108
3, 6688, Note_on_c, 1, 67, 0
3, 6912, Note_on_c, 1, 67, 108
3, 7072, Note_on_c, 1, 67, 0
3, 7104, Note_on_c, 1, 67, 108
3, 7360, Note_on_c, 1, 67, 0
3, 7392, Note_on_c, 1, 67, 108
3, 7486, Note_on_c, 1, 67, 0
3, 7488, Note_on_c, 1, 67, 108
3, 7648, Note_on_c, 1, 67, 0
3, 7680, Note_on_c, 1, 67, 108
3, 7840, Note_on_c, 1, 67, 0
3, 8064, Note_on_c, 1, 67, 108
3, 8400, Note_on_c, 1, 67, 0
3, 8448, Note_on_c, 1, 65, 108
3, 8608, Note_on_c, 1, 65, 0
3, 8640, Note_on_c, 1, 65, 108
3, 8896, Note_on_c, 1, 65, 0
3, 8928, Note_on_c, 1, 65, 108
3, 9022, Note_on_c, 1, 65, 0
3, 9024, Note_on_c, 1, 64, 108
3, 9118, Note_on_c, 1, 64, 0
3, 9120, Note_on_c, 1, 64, 108
3, 9214, Note_on_c, 1, 64, 0
3, 9216, Note_on_c, 1, 64, 108
3, 9552, Note_on_c, 1, 64, 0
3, 9600, Note_on_c, 1, 69, 108
3, 9760, Note_on_c, 1, 69, 0
3, 9792, Note_on_c, 1, 67, 108
3, 10128, Note_on_c, 1, 67, 0
3, 10176, Note_on_c, 1, 67, 108
3, 10270, Note_on_c, 1, 67, 0
3, 10272, Note_on_c, 1, 67, 108
3, 10366, Note_on_c, 1, 67, 0
3, 10368, Note_on_c, 1, 67, 108
3, 10704, Note_on_c, 1, 67, 0
3, 10752, Note_on_c, 1, 67, 108
3, 10912, Note_on_c, 1, 67, 0
3, 10944, Note_on_c, 1, 67, 108
3, 11104, Note_on_c, 1, 67, 0
3, 11136, Note_on_c, 1, 67, 108
3, 11296, Note_on_c, 1, 67, 0
3, 11328, Note_on_c, 1, 67, 108
3, 11488, Note_on_c, 1, 67, 0
3, 11520, Note_on_c, 1, 67, 108
3, 12048, Note_on_c, 1, 67, 0
3, 12096, Note_on_c, 1, 67, 108
3, 12256, Note_on_c, 1, 67, 0
3, 14496, Note_on_c, 1, 69, 108
3, 14590, Note_on_c, 1, 69, 0
3, 14592, Note_on_c, 1, 67, 108
3, 14688, Note_on_c, 1, 67, 0
3, 14688, Note_on_c, 1, 65, 108
3, 14782, Note_on_c, 1, 65, 0
3, 14784, Note_on_c, 1, 64, 108
3, 14880, Note_on_c, 1, 64, 0
3, 14880, Note_on_c, 1, 62, 108
3, 14974, Note_on_c, 1, 62, 0
3, 14976, Note_on_c, 1, 61, 108
3, 15232, Note_on_c, 1, 61, 0
3, 15264, Note_on_c, 1, 64, 108
3, 15358, Note_on_c, 1, 64, 0
3, 15360, Note_on_c, 1, 69, 108
3, 15520, Note_on_c, 1, 69, 0
3, 15552, Note_on_c, 1, 69, 108
3, 16080, Note_on_c, 1, 69, 0
3, 16128, Note_on_c, 1, 69, 108
3, 16656, Note_on_c, 1, 69, 0
3, 16704, Note_on_c, 1, 69, 108
3, 16864, Note_on_c, 1, 69, 0
3, 17952, Note_on_c, 1, 67, 108
3, 18046, Note_on_c, 1, 67, 0
3, 18048, Note_on_c, 1, 65, 108
3, 18144, Note_on_c, 1, 65, 0
3, 18144, Note_on_c, 1, 64, 108
3, 18238, Note_on_c, 1, 64, 0
3, 18240, Note_on_c, 1, 62, 108
3, 18334, Note_on_c, 1, 62, 0
3, 18336, Note_on_c, 1, 60, 108
3, 18430, Note_on_c, 1, 60, 0
3, 18432, Note_on_c, 1, 59, 108
3, 18592, Note_on_c, 1, 59, 0
3, 18624, Note_on_c, 1, 62, 108
3, 18784, Note_on_c, 1, 62, 0
3, 18816, Note_on_c, 1, 67, 108
3, 18976, Note_on_c, 1, 67, 0
3, 19008, Note_on_c, 1, 67, 108
3, 19168, Note_on_c, 1, 67, 0
3, 19200, Note_on_c, 1, 67, 108
3, 19360, Note_on_c, 1, 67, 0
3, 19392, Note_on_c, 1, 67, 108
3, 19552, Note_on_c, 1, 67, 0
3, 19584, Note_on_c, 1, 67, 108
3, 20112, Note_on_c, 1, 67, 0
3, 20160, Note_on_c, 1, 67, 108
3, 20320, Note_on_c, 1, 67, 0
3, 20352, Note_on_c, 1, 67, 108
3, 20512, Note_on_c, 1, 67, 0
3, 20544, Note_on_c, 1, 67, 108
3, 20704, Note_on_c, 1, 67, 0
3, 20736, Note_on_c, 1, 69, 108
3, 21264, Note_on_c, 1, 69, 0
3, 21312, Note_on_c, 1, 71, 108
3, 21454, Note_on_c, 1, 71, 0
3, 21456, Note_on_c, 1, 71, 108
3, 21502, Note_on_c, 1, 71, 0
3, 21504, Note_on_c, 1, 71, 108
3, 21664, Note_on_c, 1, 71, 0
3, 21696, Note_on_c, 1, 67, 108
3, 21856, Note_on_c, 1, 67, 0
3, 21888, Note_on_c, 1, 67, 108
3, 22224, Note_on_c, 1, 67, 0
3, 22272, Note_on_c, 1, 67, 108
3, 22432, Note_on_c, 1, 67, 0
3, 22464, Note_on_c, 1, 69, 108
3, 22624, Note_on_c, 1, 69, 0
3, 22656, Note_on_c, 1, 69, 108
3, 22816, Note_on_c, 1, 69, 0
3, 22848, Note_on_c, 1, 65, 108
3, 23008, Note_on_c, 1, 65, 0
3, 23040, Note_on_c, 1, 65, 108
3, 23568, Note_on_c, 1, 65, 0
3, 23616, Note_on_c, 1, 67, 108
3, 23776, Note_on_c, 1, 67, 0
3, 23808, Note_on_c, 1, 67, 108
3, 23968, Note_on_c, 1, 67, 0
3, 24000, Note_on_c, 1, 67, 108
3, 24160, Note_on_c, 1, 67, 0
3, 24192, Note_on_c, 1, 69, 108
3, 24448, Note_on_c, 1, 69, 0
3, 24480, Note_on_c, 1, 69, 108
3, 24574, Note_on_c, 1, 69, 0
3, 24576, Note_on_c, 1, 69, 108
3, 24670, Note_on_c, 1, 69, 0
3, 24672, Note_on_c, 1, 69, 108
3, 24766, Note_on_c, 1, 69, 0
3, 24768, Note_on_c, 1, 66, 108
3, 25296, Note_on_c, 1, 66, 0
3, 25344, Note_on_c, 1, 67, 108
3, 25680, Note_on_c, 1, 67, 0
3, 25728, Note_on_c, 1, 67, 108
3, 25888, Note_on_c, 1, 67, 0
3, 25920, Note_on_c, 1, 69, 108
3, 26176, Note_on_c, 1, 69, 0
3, 26208, Note_on_c, 1, 69, 108
3, 26302, Note_on_c, 1, 69, 0
3, 26304, Note_on_c, 1, 69, 108
3, 26464, Note_on_c, 1, 69, 0
3, 26496, Note_on_c, 1, 67, 108
3, 26656, Note_on_c, 1, 67, 0
3, 26688, Note_on_c, 1, 67, 108
3, 26848, Note_on_c, 1, 67, 0
3, 26880, Note_on_c, 1, 67, 108
3, 27040, Note_on_c, 1, 67, 0
3, 27072, Note_on_c, 1, 67, 108
3, 27328, Note_on_c, 1, 67, 0
3, 27360, Note_on_c, 1, 67, 108
3, 27454, Note_on_c, 1, 67, 0
3, 27456, Note_on_c, 1, 67, 108
3, 27616, Note_on_c, 1, 67, 0
3, 27648, Note_on_c, 1, 69, 108
3, 27840, Note_on_c, 1, 69, 0
3, 27840, Note_on_c, 1, 67, 108
3, 27982, Note_on_c, 1, 67, 0
3, 27984, Note_on_c, 1, 67, 108
3, 28030, Note_on_c, 1, 67, 0
3, 28032, Note_on_c, 1, 66, 108
3, 28192, Note_on_c, 1, 66, 0
3, 28224, Note_on_c, 1, 67, 108
3, 28384, Note_on_c, 1, 67, 0
3, 28800, Note_on_c, 1, 67, 108
3, 29328, Note_on_c, 1, 67, 0
3, 29376, Note_on_c, 1, 59, 108
3, 29712, Note_on_c, 1, 59, 0
3, 29760, Note_on_c, 1, 64, 108
3, 29920, Note_on_c, 1, 64, 0
3, 29952, Note_on_c, 1, 61, 108
3, 30478, Note_on_c, 1, 61, 0
3, 30480, Note_on_c, 1, 61, 108
3, 30526, Note_on_c, 1, 61, 0
3, 30528, Note_on_c, 1, 62, 108
3, 30688, Note_on_c, 1, 62, 0
3, 31104, Note_on_c, 1, 71, 60
3, 31440, Note_on_c, 1, 71, 0
3, 31488, Note_on_c, 1, 72, 60
3, 31584, Note_on_c, 1, 72, 0
3, 31584, Note_on_c, 1, 71, 60
3, 31678, Note_on_c, 1, 71, 0
3, 31680, Note_on_c, 1, 71, 60
3, 31776, Note_on_c, 1, 71, 0
3, 31776, Note_on_c, 1, 69, 60
3, 31872, Note_on_c, 1, 69, 0
3, 31872, Note_on_c, 1, 68, 60
3, 31968, Note_on_c, 1, 68, 0
3, 31968, Note_on_c, 1, 69, 60
3, 32062, Note_on_c, 1, 69, 0
3, 32064, Note_on_c, 1, 69, 60
3, 32224, Note_on_c, 1, 69, 0
3, 32256, Note_on_c, 1, 69, 60
3, 32544, Note_on_c, 1, 69, 0
3, 32544, Note_on_c, 1, 72, 60
3, 32638, Note_on_c, 1, 72, 0
3, 32640, Note_on_c, 1, 71, 60
3, 32736, Note_on_c, 1, 71, 0
3, 32736, Note_on_c, 1, 69, 60
3, 32830, Note_on_c, 1, 69, 0
3, 32832, Note_on_c, 1, 69, 60
3, 32992, Note_on_c, 1, 69, 0
3, 33024, Note_on_c, 1, 67, 60
3, 33184, Note_on_c, 1, 67, 0
3, 33408, Note_on_c, 1, 67, 92
3, 33568, Note_on_c, 1, 67, 0
3, 33600, Note_on_c, 1, 67, 92
3, 33856, Note_on_c, 1, 67, 0
3, 33888, Note_on_c, 1, 67, 92
3, 33982, Note_on_c, 1, 67, 0
3, 33984, Note_on_c, 1, 62, 92
3, 34144, Note_on_c, 1, 62, 0
3, 34176, Note_on_c, 1, 62, 92
3, 34336, Note_on_c, 1, 62, 0
3, 34560, Note_on_c, 1, 66, 92
3, 34752, Note_on_c, 1, 66, 0
3, 34752, Note_on_c, 1, 67, 92
3, 34912, Note_on_c, 1, 67, 0
3, 34944, Note_on_c, 1, 69, 92
3, 35104, Note_on_c, 1, 69, 0
3, 35136, Note_on_c, 1, 69, 92
3, 35296, Note_on_c, 1, 69, 0
3, 35328, Note_on_c, 1, 67, 92
3, 35488, Note_on_c, 1, 67, 0
3, 35712, Note_on_c, 1, 67, 92
3, 36240, Note_on_c, 1, 67, 0
3, 36288, Note_on_c, 1, 67, 92
3, 36624, Note_on_c, 1, 67, 0
3, 36672, Note_on_c, 1, 67, 92
3, 36832, Note_on_c, 1, 67, 0
3, 36864, Note_on_c, 1, 68, 92
3, 37120, Note_on_c, 1, 68, 0
3, 37152, Note_on_c, 1, 68, 92
3, 37246, Note_on_c, 1, 68, 0
3, 37248, Note_on_c, 1, 69, 92
3, 37342, Note_on_c, 1, 69, 0
3, 37344, Note_on_c, 1, 64, 92
3, 37438, Note_on_c, 1, 64, 0
3, 37440, Note_on_c, 1, 69, 92
3, 37966, Note_on_c, 1, 69, 0
3, 37968, Note_on_c, 1, 69, 92
3, 38014, Note_on_c, 1, 69, 0
3, 38016, Note_on_c, 1, 68, 92
3, 38176, Note_on_c, 1, 68, 0
3, 39168, Note_on_c, 1, 68, 92
3, 39694, Note_on_c, 1, 68, 0
3, 39696, Note_on_c, 1, 68, 92
3, 39742, Note_on_c, 1, 68, 0
3, 39744, Note_on_c, 1, 69, 92
3, 39904, Note_on_c, 1, 69, 0
3, 40224, Note_on_c, 1, 69, 92
3, 40318, Note_on_c, 1, 69, 0
3, 40320, Note_on_c, 1, 68, 92
3, 40848, Note_on_c, 1, 68, 0
3, 40896, Note_on_c, 1, 69, 92
3, 41056, Note_on_c, 1, 69, 0
3, 41280, Note_on_c, 1, 69, 92
3, 41440, Note_on_c, 1, 69, 0
3, 41472, Note_on_c, 1, 69, 92
3, 41760, Note_on_c, 1, 69, 0
3, 41760, Note_on_c, 1, 71, 92
3, 41854, Note_on_c, 1, 71, 0
3, 41856, Note_on_c, 1, 69, 92
3, 41950, Note_on_c, 1, 69, 0
3, 41952, Note_on_c, 1, 71, 92
3, 42046, Note_on_c, 1, 71, 0
3, 42048, Note_on_c, 1, 69, 92
3, 42304, Note_on_c, 1, 69, 0
3, 42336, Note_on_c, 1, 71, 92
3, 42430, Note_on_c, 1, 71, 0
3, 42432, Note_on_c, 1, 69, 92
3, 42526, Note_on_c, 1, 69, 0
3, 42528, Note_on_c, 1, 71, 92
3, 42622, Note_on_c, 1, 71, 0
3, 42624, Note_on_c, 1, 69, 92
3, 42960, Note_on_c, 1, 69, 0
3, 43008, Note_on_c, 1, 67, 92
3, 43168, Note_on_c, 1, 67, 0
3, 43200, Note_on_c, 1, 66, 127
3, 43728, Note_on_c, 1, 66, 0
3, 43776, Note_on_c, 1, 65, 127
3, 44254, Note_on_c, 1, 65, 0
3, 44256, Note_on_c, 1, 65, 92
3, 44350, Note_on_c, 1, 65, 0
3, 44352, Note_on_c, 1, 64, 127
3, 44880, Note_on_c, 1, 64, 0
3, 44928, Note_on_c, 1, 63, 127
3, 45456, Note_on_c, 1, 63, 0
3, 45504, Note_on_c, 1, 62, 92
3, 45760, Note_on_c, 1, 62, 0
3, 45792, Note_on_c, 1, 62, 92
3, 45886, Note_on_c, 1, 62, 0
3, 45888, Note_on_c, 1, 61, 92
3, 46048, Note_on_c, 1, 61, 0
3, 46080, Note_on_c, 1, 66, 92
3, 46240, Note_on_c, 1, 66, 0
3, 46272, Note_on_c, 1, 64, 92
3, 46608, Note_on_c, 1, 64, 0
3, 46656, Note_on_c, 1, 64, 92
3, 46816, Note_on_c, 1, 64, 0
3, 47232, Note_on_c, 1, 69, 92
3, 47760, Note_on_c, 1, 69, 0
3, 47808, Note_on_c, 1, 70, 92
3, 48336, Note_on_c, 1, 70, 0
3, 48384, Note_on_c, 1, 70, 92
3, 48720, Note_on_c, 1, 70, 0
3, 48768, Note_on_c, 1, 69, 92
3, 48928, Note_on_c, 1, 69, 0
3, 48960, Note_on_c, 1, 69, 92
3, 49120, Note_on_c, 1, 69, 0
3, 49152, Note_on_c, 1, 67, 92
3, 49312, Note_on_c, 1, 67, 0
3, 49344, Note_on_c, 1, 71, 92
3, 49504, Note_on_c, 1, 71, 0
3, 49536, Note_on_c, 1, 69, 92
3, 49792, Note_on_c, 1, 69, 0
3, 49824, Note_on_c, 1, 69, 92
3, 49918, Note_on_c, 1, 69, 0
3, 49920, Note_on_c, 1, 68, 92
3, 50080, Note_on_c, 1, 68, 0
3, 50208, Note_on_c, 1, 62, 92
3, 50302, Note_on_c, 1, 62, 0
3, 50304, Note_on_c, 1, 61, 92
3, 50400, Note_on_c, 1, 61, 0
3, 50400, Note_on_c, 1, 62, 92
3, 50494, Note_on_c, 1, 62, 0
3, 50496, Note_on_c, 1, 64, 92
3, 50590, Note_on_c, 1, 64, 0
3, 50592, Note_on_c, 1, 65, 92
3, 50686, Note_on_c, 1, 65, 0
3, 50688, Note_on_c, 1, 67, 92
3, 51216, Note_on_c, 1, 67, 0
3, 51264, Note_on_c, 1, 65, 92
3, 51424, Note_on_c, 1, 65, 0
3, 51456, Note_on_c, 1, 69, 92
3, 51792, Note_on_c, 1, 69, 0
3, 51840, Note_on_c, 1, 69, 92
3, 52368, Note_on_c, 1, 69, 0
3, 52416, Note_on_c, 1, 69, 92
3, 52576, Note_on_c, 1, 69, 0
3, 52608, Note_on_c, 1, 69, 92
3, 52768, Note_on_c, 1, 69, 0
3, 52800, Note_on_c, 1, 69, 92
3, 52960, Note_on_c, 1, 69, 0
3, 52992, Note_on_c, 1, 69, 92
3, 53280, Note_on_c, 1, 69, 0
3, 53280, Note_on_c, 1, 70, 92
3, 53374, Note_on_c, 1, 70, 0
3, 53376, Note_on_c, 1, 69, 92
3, 53472, Note_on_c, 1, 69, 0
3, 53472, Note_on_c, 1, 70, 92
3, 53566, Note_on_c, 1, 70, 0
3, 53568, Note_on_c, 1, 69, 92
3, 53824, Note_on_c, 1, 69, 0
3, 53856, Note_on_c, 1, 70, 92
3, 53950, Note_on_c, 1, 70, 0
3, 53952, Note_on_c, 1, 69, 92
3, 54046, Note_on_c, 1, 69, 0
3, 54048, Note_on_c, 1, 70, 92
3, 54142, Note_on_c, 1, 70, 0
3, 54144, Note_on_c, 1, 69, 92
3, 54304, Note_on_c, 1, 69, 0
3, 54336, Note_on_c, 1, 62, 92
3, 54496, Note_on_c, 1, 62, 0
3, 54528, Note_on_c, 1, 66, 92
3, 54688, Note_on_c, 1, 66, 0
3, 54720, Note_on_c, 1, 67, 92
3, 54880, Note_on_c, 1, 67, 0
3, 54912, Note_on_c, 1, 59, 92
3, 55008, Note_on_c, 1, 59, 0
3, 55008, Note_on_c, 1, 60, 92
3, 55102, Note_on_c, 1, 60, 0
3, 55104, Note_on_c, 1, 62, 92
3, 55200, Note_on_c, 1, 62, 0
3, 55200, Note_on_c, 1, 64, 92
3, 55294, Note_on_c, 1, 64, 0
3, 55296, Note_on_c, 1, 65, 92
3, 55824, Note_on_c, 1, 65, 0
3, 55872, Note_on_c, 1, 64, 92
3, 56032, Note_on_c, 1, 64, 0
3, 56064, Note_on_c, 1, 67, 92
3, 56400, Note_on_c, 1, 67, 0
3, 56448, Note_on_c, 1, 67, 92
3, 56976, Note_on_c, 1, 67, 0
3, 57024, Note_on_c, 1, 67, 92
3, 57184, Note_on_c, 1, 67, 0
3, 57216, Note_on_c, 1, 67, 92
3, 57376, Note_on_c, 1, 67, 0
3, 57408, Note_on_c, 1, 67, 92
3, 57568, Note_on_c, 1, 67, 0
3, 57600, Note_on_c, 1, 69, 92
3, 58128, Note_on_c, 1, 69, 0
3, 58176, Note_on_c, 1, 71, 92
3, 58318, Note_on_c, 1, 71, 0
3, 58320, Note_on_c, 1, 71, 92
3, 58366, Note_on_c, 1, 71, 0
3, 58368, Note_on_c, 1, 71, 92
3, 58528, Note_on_c, 1, 71, 0
3, 58560, Note_on_c, 1, 67, 92
3, 58720, Note_on_c, 1, 67, 0
3, 58752, Note_on_c, 1, 67, 92
3, 59280, Note_on_c, 1, 67, 0
3, 59328, Note_on_c, 1, 69, 92
3, 59470, Note_on_c, 1, 69, 0
3, 59472, Note_on_c, 1, 69, 92
3, 59518, Note_on_c, 1, 69, 0
3, 59520, Note_on_c, 1, 69, 92
3, 59680, Note_on_c, 1, 69, 0
3, 59712, Note_on_c, 1, 65, 92
3, 59872, Note_on_c, 1, 65, 0
3, 59904, Note_on_c, 1, 65, 92
3, 60432, Note_on_c, 1, 65, 0
3, 60480, Note_on_c, 1, 67, 92
3, 60640, Note_on_c, 1, 67, 0
3, 60672, Note_on_c, 1, 67, 92
3, 61008, Note_on_c, 1, 67, 0
3, 61056, Note_on_c, 1, 69, 92
3, 61312, Note_on_c, 1, 69, 0
3, 61344, Note_on_c, 1, 69, 92
3, 61438, Note_on_c, 1, 69, 0
3, 61440, Note_on_c, 1, 69, 92
3, 61600, Note_on_c, 1, 69, 0
3, 61632, Note_on_c, 1, 66, 92
3, 61968, Note_on_c, 1, 66, 0
3, 62016, Note_on_c, 1, 66, 92
3, 62176, Note_on_c, 1, 66, 0
3, 62208, Note_on_c, 1, 67, 92
3, 62736, Note_on_c, 1, 67, 0
3, 62784, Note_on_c, 1, 69, 92
3, 63312, Note_on_c, 1, 69, 0
3, 63360, Note_on_c, 1, 67, 92
3, 63888, Note_on_c, 1, 67, 0
3, 63936, Note_on_c, 1, 69, 92
3, 64464, Note_on_c, 1, 69, 0
3, 64512, Note_on_c, 1, 71, 92
3, 65040, Note_on_c, 1, 71, 0
3, 65088, Note_on_c, 1, 72, 92
3, 65616, Note_on_c, 1, 72, 0
3, 65664, Note_on_c, 1, 71, 92
3, 66192, Note_on_c, 1, 71, 0
3, 66240, Note_on_c, 1, 71, 92
3, 66768, Note_on_c, 1, 71, 0
3, 67392, Note_on_c, 1, 67, 92
3, 67648, Note_on_c, 1, 67, 0
3, 67680, Note_on_c, 1, 67, 92
3, 67774, Note_on_c, 1, 67, 0
3, 67776, Note_on_c, 1, 67, 92
3, 67936, Note_on_c, 1, 67, 0
3, 68544, Note_on_c, 1, 67, 92
3, 69072, Note_on_c, 1, 67, 0
3, 69120, Note_on_c, 1, 72, 92
3, 69648, Note_on_c, 1, 72, 0
3, 69696, Note_on_c, 1, 71, 92
3, 70272, Note_on_c, 1, 71, 0
3, 70272, Note_on_c, 1, 69, 92
3, 70798, Note_on_c, 1, 69, 0
3, 70800, Note_on_c, 1, 69, 92
3, 70846, Note_on_c, 1, 69, 0
3, 70848, Note_on_c, 1, 67, 92
3, 71376, Note_on_c, 1, 67, 0
3, 71424, Note_on_c, 1, 67, 92
3, 71760, Note_on_c, 1, 67, 0
3, 71808, Note_on_c, 1, 67, 92
3, 71968, Note_on_c, 1, 67, 0
3, 72000, Note_on_c, 1, 67, 92
3, 72256, Note_on_c, 1, 67, 0
3, 72288, Note_on_c, 1, 67, 92
3, 72382, Note_on_c, 1, 67, 0
3, 72384, Note_on_c, 1, 67, 92
3, 72544, Note_on_c, 1, 67, 0
3, 72576, Note_on_c, 1, 67, 92
3, 73104, Note_on_c, 1, 67, 0
3, 73152, Note_on_c, 1, 67, 92
3, 73312, Note_on_c, 1, 67, 0
3, 73728, Note_on_c, 1, 64, 92
3, 74064, Note_on_c, 1, 64, 0
3, 74112, Note_on_c, 1, 69, 92
3, 74272, Note_on_c, 1, 69, 0
3, 74304, Note_on_c, 1, 67, 92
3, 74464, Note_on_c, 1, 67, 0
3, 74496, Note_on_c, 1, 67, 92
3, 74656, Note_on_c, 1, 67, 0
3, 74880, Note_on_c, 1, 67, 92
3, 75216, Note_on_c, 1, 67, 0
3, 75264, Note_on_c, 1, 67, 92
3, 75424, Note_on_c, 1, 67, 0
3, 75456, Note_on_c, 1, 67, 92
3, 75598, Note_on_c, 1, 67, 0
3, 75600, Note_on_c, 1, 67, 92
3, 75646, Note_on_c, 1, 67, 0
3, 75648, Note_on_c, 1, 67, 92
3, 75808, Note_on_c, 1, 67, 0
3, 76032, Note_on_c, 1, 67, 92
3, 76368, Note_on_c, 1, 67, 0
3, 76416, Note_on_c, 1, 65, 92
3, 76576, Note_on_c, 1, 65, 0
3, 76608, Note_on_c, 1, 65, 92
3, 76944, Note_on_c, 1, 65, 0
3, 76992, Note_on_c, 1, 64, 92
3, 77152, Note_on_c, 1, 64, 0
3, 77184, Note_on_c, 1, 64, 92
3, 77520, Note_on_c, 1, 64, 0
3, 77568, Note_on_c, 1, 69, 92
3, 77728, Note_on_c, 1, 69, 0
3, 77760, Note_on_c, 1, 67, 92
3, 77902, Note_on_c, 1, 67, 0
3, 77904, Note_on_c, 1, 67, 92
3, 77950, Note_on_c, 1, 67, 0
3, 77952, Note_on_c, 1, 67, 92
3, 78112, Note_on_c, 1, 67, 0
3, 78144, Note_on_c, 1, 67, 92
3, 78304, Note_on_c, 1, 67, 0
3, 78336, Note_on_c, 1, 67, 92
3, 78672, Note_on_c, 1, 67, 0
3, 78720, Note_on_c, 1, 67, 92
3, 78880, Note_on_c, 1, 67, 0
3, 78912, Note_on_c, 1, 67, 92
3, 79248, Note_on_c, 1, 67, 0
3, 79296, Note_on_c, 1, 67, 92
3, 79456, Note_on_c, 1, 67, 0
3, 79488, Note_on_c, 1, 67, 92
3, 79824, Note_on_c, 1, 67, 0
3, 79872, Note_on_c, 1, 67, 92
3, 80032, Note_on_c, 1, 67, 0
3, 80064, Note_on_c, 1, 67, 92
3, 80256, Note_on_c, 1, 67, 0
3, 80256, Note_on_c, 1, 71, 92
3, 80398, Note_on_c, 1, 71, 0
3, 80400, Note_on_c, 1, 71, 92
3, 80446, Note_on_c, 1, 71, 0
3, 80448, Note_on_c, 1, 72, 92
3, 80608, Note_on_c, 1, 72, 0
3, 80640, Note_on_c, 1, 67, 92
3, 80832, Note_on_c, 1, 67, 0
3, 80832, Note_on_c, 1, 64, 92
3, 80992, Note_on_c, 1, 64, 0
3, 81024, Note_on_c, 1, 60, 92
3, 81184, Note_on_c, 1, 60, 0
3, 81216, Note_on_c, 1, 67, 45
3, 81792, Note_on_c, 1, 67, 0
3, 81792, Note_on_c, 1, 64, 45
3, 82368, Note_on_c, 1, 64, 0
3, 82368, Note_on_c, 1, 69, 45
3, 82944, Note_on_c, 1, 69, 0
3, 82944, Note_on_c, 1, 62, 45
3, 83520, Note_on_c, 1, 62, 0
3, 83520, Note_on_c, 1, 67, 45
3, 84096, Note_on_c, 1, 67, 0
3, 84096, Note_on_c, 1, 60, 45
3, 84672, Note_on_c, 1, 60, 0
3, 84672, Note_on_c, 1, 68, 45
3, 84832, Note_on_c, 1, 68, 0
3, 84864, Note_on_c, 1, 67, 45
3, 85200, Note_on_c, 1, 67, 0
3, 85248, Note_on_c, 1, 69, 45
3, 85440, Note_on_c, 1, 69, 0
3, 85440, Note_on_c, 1, 67, 45
3, 85776, Note_on_c, 1, 67, 0
3, 85824, Note_on_c, 1, 67, 45
3, 85984, Note_on_c, 1, 67, 0
3, 86592, Note_on_c, 1, 69, 92
3, 86752, Note_on_c, 1, 69, 0
3, 86784, Note_on_c, 1, 69, 92
3, 86944, Note_on_c, 1, 69, 0
3, 86976, Note_on_c, 1, 69, 92
3, 87168, Note_on_c, 1, 69, 0
3, 87168, Note_on_c, 1, 72, 92
3, 87456, Note_on_c, 1, 72, 0
3, 87456, Note_on_c, 1, 71, 92
3, 87504, Note_on_c, 1, 71, 0
3, 87504, Note_on_c, 1, 72, 92
3, 87550, Note_on_c, 1, 72, 0
3, 87552, Note_on_c, 1, 71, 92
3, 87712, Note_on_c, 1, 71, 0
3, 87744, Note_on_c, 1, 67, 92
3, 87904, Note_on_c, 1, 67, 0
3, 87936, Note_on_c, 1, 67, 92
3, 88096, Note_on_c, 1, 67, 0
3, 88128, Note_on_c, 1, 67, 92
3, 88464, Note_on_c, 1, 67, 0
3, 88512, Note_on_c, 1, 72, 92
3, 88672, Note_on_c, 1, 72, 0
3, 88704, Note_on_c, 1, 72, 92
3, 89232, Note_on_c, 1, 72, 0
3, 89280, Note_on_c, 1, 71, 92
3, 89616, Note_on_c, 1, 71, 0
3, 89664, Note_on_c, 1, 72, 92
3, 89824, Note_on_c, 1, 72, 0
3, 89856, Note_on_c, 1, 69, 92
3, 90048, Note_on_c, 1, 69, 0
3, 90048, Note_on_c, 1, 67, 92
3, 90384, Note_on_c, 1, 67, 0
3, 90432, Note_on_c, 1, 67, 92
3, 90592, Note_on_c, 1, 67, 0
3, 91584, Note_on_c, 1, 67, 92
3, 91678, Note_on_c, 1, 67, 0
3, 91680, Note_on_c, 1, 67, 92
3, 91774, Note_on_c, 1, 67, 0
3, 91776, Note_on_c, 1, 67, 92
3, 92112, Note_on_c, 1, 67, 0
3, 92160, Note_on_c, 1, 67, 92
3, 92320, Note_on_c, 1, 67, 0
3, 93312, Note_on_c, 1, 67, 92
3, 93406, Note_on_c, 1, 67, 0
3, 93408, Note_on_c, 1, 67, 92
3, 93502, Note_on_c, 1, 67, 0
3, 93504, Note_on_c, 1, 67, 92
3, 93840, Note_on_c, 1, 67, 0
3, 93888, Note_on_c, 1, 67, 92
3, 94048, Note_on_c, 1, 67, 0
3, 94048, End_track
4, 0, Start_track
4, 0, MIDI_port, 0
4, 0, Title_t, "Staff-3"
4, 0, Control_c, 2, 7, 127
4, 0, Control_c, 2, 10, 64
4, 0, Program_c, 2, 71
4, 0, Note_on_c, 2, 55, 108
4, 528, Note_on_c, 2, 55, 0
4, 576, Note_on_c, 2, 55, 108
4, 736, Note_on_c, 2, 55, 0
4, 2304, Note_on_c, 2, 62, 108
4, 2830, Note_on_c, 2, 62, 0
4, 2832, Note_on_c, 2, 62, 108
4, 2878, Note_on_c, 2, 62, 0
4, 2880, Note_on_c, 2, 60, 108
4, 3040, Note_on_c, 2, 60, 0
4, 4608, Note_on_c, 2, 60, 108
4, 4864, Note_on_c, 2, 60, 0
4, 4896, Note_on_c, 2, 60, 108
4, 4990, Note_on_c, 2, 60, 0
4, 4992, Note_on_c, 2, 60, 108
4, 5152, Note_on_c, 2, 60, 0
4, 5184, Note_on_c, 2, 60, 108
4, 5344, Note_on_c, 2, 60, 0
4, 5376, Note_on_c, 2, 60, 108
4, 5536, Note_on_c, 2, 60, 0
4, 5952, Note_on_c, 2, 55, 108
4, 6112, Note_on_c, 2, 55, 0
4, 6144, Note_on_c, 2, 64, 108
4, 6304, Note_on_c, 2, 64, 0
4, 6336, Note_on_c, 2, 64, 108
4, 6496, Note_on_c, 2, 64, 0
4, 6528, Note_on_c, 2, 62, 108
4, 6688, Note_on_c, 2, 62, 0
4, 6912, Note_on_c, 2, 59, 108
4, 7072, Note_on_c, 2, 59, 0
4, 7104, Note_on_c, 2, 60, 108
4, 7264, Note_on_c, 2, 60, 0
4, 7296, Note_on_c, 2, 65, 108
4, 7456, Note_on_c, 2, 65, 0
4, 7488, Note_on_c, 2, 65, 108
4, 7648, Note_on_c, 2, 65, 0
4, 7680, Note_on_c, 2, 64, 108
4, 7840, Note_on_c, 2, 64, 0
4, 8064, Note_on_c, 2, 64, 108
4, 8400, Note_on_c, 2, 64, 0
4, 8448, Note_on_c, 2, 60, 108
4, 8608, Note_on_c, 2, 60, 0
4, 8640, Note_on_c, 2, 62, 108
4, 8896, Note_on_c, 2, 62, 0
4, 8928, Note_on_c, 2, 62, 108
4, 9022, Note_on_c, 2, 62, 0
4, 9024, Note_on_c, 2, 59, 108
4, 9118, Note_on_c, 2, 59, 0
4, 9120, Note_on_c, 2, 59, 108
4, 9214, Note_on_c, 2, 59, 0
4, 9216, Note_on_c, 2, 60, 108
4, 9552, Note_on_c, 2, 60, 0
4, 9600, Note_on_c, 2, 65, 108
4, 9760, Note_on_c, 2, 65, 0
4, 9792, Note_on_c, 2, 62, 108
4, 10128, Note_on_c, 2, 62, 0
4, 10176, Note_on_c, 2, 64, 108
4, 10270, Note_on_c, 2, 64, 0
4, 10272, Note_on_c, 2, 64, 108
4, 10366, Note_on_c, 2, 64, 0
4, 10368, Note_on_c, 2, 62, 108
4, 10704, Note_on_c, 2, 62, 0
4, 10752, Note_on_c, 2, 60, 108
4, 10912, Note_on_c, 2, 60, 0
4, 10944, Note_on_c, 2, 59, 108
4, 11104, Note_on_c, 2, 59, 0
4, 11136, Note_on_c, 2, 62, 108
4, 11296, Note_on_c, 2, 62, 0
4, 11328, Note_on_c, 2, 60, 108
4, 11488, Note_on_c, 2, 60, 0
4, 11520, Note_on_c, 2, 62, 108
4, 11904, Note_on_c, 2, 62, 0
4, 11904, Note_on_c, 2, 60, 108
4, 12064, Note_on_c, 2, 60, 0
4, 12096, Note_on_c, 2, 59, 108
4, 12256, Note_on_c, 2, 59, 0
4, 15072, Note_on_c, 2, 64, 108
4, 15166, Note_on_c, 2, 64, 0
4, 15168, Note_on_c, 2, 57, 108
4, 15328, Note_on_c, 2, 57, 0
4, 15360, Note_on_c, 2, 61, 108
4, 15520, Note_on_c, 2, 61, 0
4, 15552, Note_on_c, 2, 62, 108
4, 15646, Note_on_c, 2, 62, 0
4, 15648, Note_on_c, 2, 65, 108
4, 15742, Note_on_c, 2, 65, 0
4, 15744, Note_on_c, 2, 67, 108
4, 15838, Note_on_c, 2, 67, 0
4, 15840, Note_on_c, 2, 65, 108
4, 15934, Note_on_c, 2, 65, 0
4, 15936, Note_on_c, 2, 64, 108
4, 16030, Note_on_c, 2, 64, 0
4, 16032, Note_on_c, 2, 62, 108
4, 16126, Note_on_c, 2, 62, 0
4, 16128, Note_on_c, 2, 61, 108
4, 16656, Note_on_c, 2, 61, 0
4, 16704, Note_on_c, 2, 62, 108
4, 16864, Note_on_c, 2, 62, 0
4, 18432, Note_on_c, 2, 62, 108
4, 18526, Note_on_c, 2, 62, 0
4, 18528, Note_on_c, 2, 62, 108
4, 18622, Note_on_c, 2, 62, 0
4, 18624, Note_on_c, 2, 55, 108
4, 18816, Note_on_c, 2, 55, 0
4, 18816, Note_on_c, 2, 59, 108
4, 19008, Note_on_c, 2, 59, 0
4, 19008, Note_on_c, 2, 60, 108
4, 19104, Note_on_c, 2, 60, 0
4, 19104, Note_on_c, 2, 64, 108
4, 19198, Note_on_c, 2, 64, 0
4, 19200, Note_on_c, 2, 65, 108
4, 19296, Note_on_c, 2, 65, 0
4, 19296, Note_on_c, 2, 64, 108
4, 19390, Note_on_c, 2, 64, 0
4, 19392, Note_on_c, 2, 62, 108
4, 19488, Note_on_c, 2, 62, 0
4, 19488, Note_on_c, 2, 60, 108
4, 19582, Note_on_c, 2, 60, 0
4, 19584, Note_on_c, 2, 59, 108
4, 20110, Note_on_c, 2, 59, 0
4, 20112, Note_on_c, 2, 59, 108
4, 20158, Note_on_c, 2, 59, 0
4, 20160, Note_on_c, 2, 60, 108
4, 20320, Note_on_c, 2, 60, 0
4, 20928, Note_on_c, 2, 66, 108
4, 21088, Note_on_c, 2, 66, 0
4, 21120, Note_on_c, 2, 66, 108
4, 21280, Note_on_c, 2, 66, 0
4, 21312, Note_on_c, 2, 59, 108
4, 21840, Note_on_c, 2, 59, 0
4, 21888, Note_on_c, 2, 64, 108
4, 22030, Note_on_c, 2, 64, 0
4, 22032, Note_on_c, 2, 64, 108
4, 22078, Note_on_c, 2, 64, 0
4, 22080, Note_on_c, 2, 64, 108
4, 22240, Note_on_c, 2, 64, 0
4, 22272, Note_on_c, 2, 64, 108
4, 22432, Note_on_c, 2, 64, 0
4, 22464, Note_on_c, 2, 57, 108
4, 22800, Note_on_c, 2, 57, 0
4, 22848, Note_on_c, 2, 57, 108
4, 23008, Note_on_c, 2, 57, 0
4, 23040, Note_on_c, 2, 62, 108
4, 23200, Note_on_c, 2, 62, 0
4, 23232, Note_on_c, 2, 62, 108
4, 23392, Note_on_c, 2, 62, 0
4, 23424, Note_on_c, 2, 62, 108
4, 23584, Note_on_c, 2, 62, 0
4, 23616, Note_on_c, 2, 55, 108
4, 24144, Note_on_c, 2, 55, 0
4, 24192, Note_on_c, 2, 50, 108
4, 24352, Note_on_c, 2, 50, 0
4, 24384, Note_on_c, 2, 62, 108
4, 24544, Note_on_c, 2, 62, 0
4, 24576, Note_on_c, 2, 62, 108
4, 24736, Note_on_c, 2, 62, 0
4, 24768, Note_on_c, 2, 60, 108
4, 25024, Note_on_c, 2, 60, 0
4, 25056, Note_on_c, 2, 60, 108
4, 25150, Note_on_c, 2, 60, 0
4, 25152, Note_on_c, 2, 60, 108
4, 25246, Note_on_c, 2, 60, 0
4, 25248, Note_on_c, 2, 60, 108
4, 25342, Note_on_c, 2, 60, 0
4, 25344, Note_on_c, 2, 59, 108
4, 25504, Note_on_c, 2, 59, 0
4, 25536, Note_on_c, 2, 59, 108
4, 25696, Note_on_c, 2, 59, 0
4, 25728, Note_on_c, 2, 59, 108
4, 25888, Note_on_c, 2, 59, 0
4, 25920, Note_on_c, 2, 54, 108
4, 26176, Note_on_c, 2, 54, 0
4, 26208, Note_on_c, 2, 54, 108
4, 26302, Note_on_c, 2, 54, 0
4, 26304, Note_on_c, 2, 54, 108
4, 26464, Note_on_c, 2, 54, 0
4, 26496, Note_on_c, 2, 55, 108
4, 26656, Note_on_c, 2, 55, 0
4, 26688, Note_on_c, 2, 55, 108
4, 26848, Note_on_c, 2, 55, 0
4, 26880, Note_on_c, 2, 59, 108
4, 27040, Note_on_c, 2, 59, 0
4, 27072, Note_on_c, 2, 59, 108
4, 27328, Note_on_c, 2, 59, 0
4, 27360, Note_on_c, 2, 55, 108
4, 27454, Note_on_c, 2, 55, 0
4, 27456, Note_on_c, 2, 62, 108
4, 27616, Note_on_c, 2, 62, 0
4, 27648, Note_on_c, 2, 64, 108
4, 27840, Note_on_c, 2, 64, 0
4, 27840, Note_on_c, 2, 62, 108
4, 27982, Note_on_c, 2, 62, 0
4, 27984, Note_on_c, 2, 62, 108
4, 28030, Note_on_c, 2, 62, 0
4, 28032, Note_on_c, 2, 62, 108
4, 28192, Note_on_c, 2, 62, 0
4, 28224, Note_on_c, 2, 62, 108
4, 28384, Note_on_c, 2, 62, 0
4, 28800, Note_on_c, 2, 67, 108
4, 29328, Note_on_c, 2, 67, 0
4, 29376, Note_on_c, 2, 59, 108
4, 29712, Note_on_c, 2, 59, 0
4, 29760, Note_on_c, 2, 64, 108
4, 29920, Note_on_c, 2, 64, 0
4, 29952, Note_on_c, 2, 61, 108
4, 30478, Note_on_c, 2, 61, 0
4, 30480, Note_on_c, 2, 61, 108
4, 30526, Note_on_c, 2, 61, 0
4, 30528, Note_on_c, 2, 62, 108
4, 30688, Note_on_c, 2, 62, 0
4, 31296, Note_on_c, 2, 62, 60
4, 31456, Note_on_c, 2, 62, 0
4, 31488, Note_on_c, 2, 62, 60
4, 31648, Note_on_c, 2, 62, 0
4, 31680, Note_on_c, 2, 62, 60
4, 32016, Note_on_c, 2, 62, 0
4, 32064, Note_on_c, 2, 62, 60
4, 32224, Note_on_c, 2, 62, 0
4, 32256, Note_on_c, 2, 62, 60
4, 32592, Note_on_c, 2, 62, 0
4, 32640, Note_on_c, 2, 62, 60
4, 32800, Note_on_c, 2, 62, 0
4, 32832, Note_on_c, 2, 62, 60
4, 32992, Note_on_c, 2, 62, 0
4, 33024, Note_on_c, 2, 62, 60
4, 33184, Note_on_c, 2, 62, 0
4, 33408, Note_on_c, 2, 59, 92
4, 33568, Note_on_c, 2, 59, 0
4, 33600, Note_on_c, 2, 62, 92
4, 33856, Note_on_c, 2, 62, 0
4, 33888, Note_on_c, 2, 60, 92
4, 33982, Note_on_c, 2, 60, 0
4, 33984, Note_on_c, 2, 59, 92
4, 34144, Note_on_c, 2, 59, 0
4, 34176, Note_on_c, 2, 57, 92
4, 34336, Note_on_c, 2, 57, 0
4, 34560, Note_on_c, 2, 57, 92
4, 34896, Note_on_c, 2, 57, 0
4, 34944, Note_on_c, 2, 62, 92
4, 35104, Note_on_c, 2, 62, 0
4, 35136, Note_on_c, 2, 62, 92
4, 35296, Note_on_c, 2, 62, 0
4, 35328, Note_on_c, 2, 62, 92
4, 35488, Note_on_c, 2, 62, 0
4, 35712, Note_on_c, 2, 59, 92
4, 36240, Note_on_c, 2, 59, 0
4, 36288, Note_on_c, 2, 59, 92
4, 36624, Note_on_c, 2, 59, 0
4, 36672, Note_on_c, 2, 59, 92
4, 36832, Note_on_c, 2, 59, 0
4, 36864, Note_on_c, 2, 59, 92
4, 37120, Note_on_c, 2, 59, 0
4, 37152, Note_on_c, 2, 59, 92
4, 37246, Note_on_c, 2, 59, 0
4, 37248, Note_on_c, 2, 57, 92
4, 37342, Note_on_c, 2, 57, 0
4, 37344, Note_on_c, 2, 56, 92
4, 37438, Note_on_c, 2, 56, 0
4, 37440, Note_on_c, 2, 54, 92
4, 37966, Note_on_c, 2, 54, 0
4, 37968, Note_on_c, 2, 54, 92
4, 38014, Note_on_c, 2, 54, 0
4, 38016, Note_on_c, 2, 56, 92
4, 38176, Note_on_c, 2, 56, 0
4, 38592, Note_on_c, 2, 57, 92
4, 38734, Note_on_c, 2, 57, 0
4, 38736, Note_on_c, 2, 57, 92
4, 38782, Note_on_c, 2, 57, 0
4, 38784, Note_on_c, 2, 56, 92
4, 38880, Note_on_c, 2, 56, 0
4, 38880, Note_on_c, 2, 57, 92
4, 38974, Note_on_c, 2, 57, 0
4, 38976, Note_on_c, 2, 59, 92
4, 39072, Note_on_c, 2, 59, 0
4, 39072, Note_on_c, 2, 60, 92
4, 39166, Note_on_c, 2, 60, 0
4, 39168, Note_on_c, 2, 62, 92
4, 39744, Note_on_c, 2, 62, 0
4, 39744, Note_on_c, 2, 60, 92
4, 39840, Note_on_c, 2, 60, 0
4, 39840, Note_on_c, 2, 57, 92
4, 39936, Note_on_c, 2, 57, 0
4, 39936, Note_on_c, 2, 56, 92
4, 40032, Note_on_c, 2, 56, 0
4, 40032, Note_on_c, 2, 57, 92
4, 40126, Note_on_c, 2, 57, 0
4, 40128, Note_on_c, 2, 59, 92
4, 40224, Note_on_c, 2, 59, 0
4, 40224, Note_on_c, 2, 60, 92
4, 40318, Note_on_c, 2, 60, 0
4, 40320, Note_on_c, 2, 62, 92
4, 40848, Note_on_c, 2, 62, 0
4, 40896, Note_on_c, 2, 60, 92
4, 41056, Note_on_c, 2, 60, 0
4, 41280, Note_on_c, 2, 60, 92
4, 41440, Note_on_c, 2, 60, 0
4, 41472, Note_on_c, 2, 60, 92
4, 41760, Note_on_c, 2, 60, 0
4, 41760, Note_on_c, 2, 59, 92
4, 41854, Note_on_c, 2, 59, 0
4, 41856, Note_on_c, 2, 60, 92
4, 41950, Note_on_c, 2, 60, 0
4, 41952, Note_on_c, 2, 59, 92
4, 42046, Note_on_c, 2, 59, 0
4, 42048, Note_on_c, 2, 60, 92
4, 42304, Note_on_c, 2, 60, 0
4, 42336, Note_on_c, 2, 59, 92
4, 42430, Note_on_c, 2, 59, 0
4, 42432, Note_on_c, 2, 60, 92
4, 42526, Note_on_c, 2, 60, 0
4, 42528, Note_on_c, 2, 59, 92
4, 42622, Note_on_c, 2, 59, 0
4, 42624, Note_on_c, 2, 60, 92
4, 42960, Note_on_c, 2, 60, 0
4, 43008, Note_on_c, 2, 59, 92
4, 43168, Note_on_c, 2, 59, 0
4, 43200, Note_on_c, 2, 57, 127
4, 43728, Note_on_c, 2, 57, 0
4, 43776, Note_on_c, 2, 59, 127
4, 44254, Note_on_c, 2, 59, 0
4, 44256, Note_on_c, 2, 59, 92
4, 44350, Note_on_c, 2, 59, 0
4, 44352, Note_on_c, 2, 55, 127
4, 44880, Note_on_c, 2, 55, 0
4, 44928, Note_on_c, 2, 57, 127
4, 45456, Note_on_c, 2, 57, 0
4, 45504, Note_on_c, 2, 65, 92
4, 45760, Note_on_c, 2, 65, 0
4, 45792, Note_on_c, 2, 65, 92
4, 45886, Note_on_c, 2, 65, 0
4, 45888, Note_on_c, 2, 64, 92
4, 46048, Note_on_c, 2, 64, 0
4, 46080, Note_on_c, 2, 60, 92
4, 46240, Note_on_c, 2, 60, 0
4, 46272, Note_on_c, 2, 59, 92
4, 46608, Note_on_c, 2, 59, 0
4, 46656, Note_on_c, 2, 57, 92
4, 46816, Note_on_c, 2, 57, 0
4, 47232, Note_on_c, 2, 57, 92
4, 47760, Note_on_c, 2, 57, 0
4, 47808, Note_on_c, 2, 58, 92
4, 48336, Note_on_c, 2, 58, 0
4, 48384, Note_on_c, 2, 52, 92
4, 48720, Note_on_c, 2, 52, 0
4, 48768, Note_on_c, 2, 53, 92
4, 48928, Note_on_c, 2, 53, 0
4, 48960, Note_on_c, 2, 62, 92
4, 49120, Note_on_c, 2, 62, 0
4, 49152, Note_on_c, 2, 58, 92
4, 49312, Note_on_c, 2, 58, 0
4, 49344, Note_on_c, 2, 65, 92
4, 49504, Note_on_c, 2, 65, 0
4, 49536, Note_on_c, 2, 64, 92
4, 49792, Note_on_c, 2, 64, 0
4, 49824, Note_on_c, 2, 64, 92
4, 49918, Note_on_c, 2, 64, 0
4, 49920, Note_on_c, 2, 62, 92
4, 50080, Note_on_c, 2, 62, 0
4, 50784, Note_on_c, 2, 61, 92
4, 50880, Note_on_c, 2, 61, 0
4, 50880, Note_on_c, 2, 61, 92
4, 51264, Note_on_c, 2, 61, 0
4, 51264, Note_on_c, 2, 62, 92
4, 51360, Note_on_c, 2, 62, 0
4, 51360, Note_on_c, 2, 65, 92
4, 51454, Note_on_c, 2, 65, 0
4, 51456, Note_on_c, 2, 67, 92
4, 51552, Note_on_c, 2, 67, 0
4, 51552, Note_on_c, 2, 65, 92
4, 51646, Note_on_c, 2, 65, 0
4, 51648, Note_on_c, 2, 64, 92
4, 51744, Note_on_c, 2, 64, 0
4, 51744, Note_on_c, 2, 62, 92
4, 51838, Note_on_c, 2, 62, 0
4, 51840, Note_on_c, 2, 61, 92
4, 52368, Note_on_c, 2, 61, 0
4, 52416, Note_on_c, 2, 62, 92
4, 52576, Note_on_c, 2, 62, 0
4, 52608, Note_on_c, 2, 65, 92
4, 52768, Note_on_c, 2, 65, 0
4, 52800, Note_on_c, 2, 65, 92
4, 52960, Note_on_c, 2, 65, 0
4, 52992, Note_on_c, 2, 65, 92
4, 53280, Note_on_c, 2, 65, 0
4, 53280, Note_on_c, 2, 67, 92
4, 53374, Note_on_c, 2, 67, 0
4, 53376, Note_on_c, 2, 65, 92
4, 53472, Note_on_c, 2, 65, 0
4, 53472, Note_on_c, 2, 67, 92
4, 53566, Note_on_c, 2, 67, 0
4, 53568, Note_on_c, 2, 65, 92
4, 53824, Note_on_c, 2, 65, 0
4, 53856, Note_on_c, 2, 67, 92
4, 53950, Note_on_c, 2, 67, 0
4, 53952, Note_on_c, 2, 65, 92
4, 54046, Note_on_c, 2, 65, 0
4, 54048, Note_on_c, 2, 67, 92
4, 54142, Note_on_c, 2, 67, 0
4, 54144, Note_on_c, 2, 65, 92
4, 54304, Note_on_c, 2, 65, 0
4, 54336, Note_on_c, 2, 65, 92
4, 54496, Note_on_c, 2, 65, 0
4, 54528, Note_on_c, 2, 62, 92
4, 54688, Note_on_c, 2, 62, 0
4, 54720, Note_on_c, 2, 62, 92
4, 54816, Note_on_c, 2, 62, 0
4, 54816, Note_on_c, 2, 64, 92
4, 54910, Note_on_c, 2, 64, 0
4, 54912, Note_on_c, 2, 65, 92
4, 55008, Note_on_c, 2, 65, 0
4, 55008, Note_on_c, 2, 64, 92
4, 55102, Note_on_c, 2, 64, 0
4, 55104, Note_on_c, 2, 62, 92
4, 55200, Note_on_c, 2, 62, 0
4, 55200, Note_on_c, 2, 60, 92
4, 55294, Note_on_c, 2, 60, 0
4, 55296, Note_on_c, 2, 59, 92
4, 55824, Note_on_c, 2, 59, 0
4, 55872, Note_on_c, 2, 60, 92
4, 55968, Note_on_c, 2, 60, 0
4, 55968, Note_on_c, 2, 67, 92
4, 56064, Note_on_c, 2, 67, 0
4, 56064, Note_on_c, 2, 65, 92
4, 56160, Note_on_c, 2, 65, 0
4, 56160, Note_on_c, 2, 64, 92
4, 56254, Note_on_c, 2, 64, 0
4, 56256, Note_on_c, 2, 62, 92
4, 56352, Note_on_c, 2, 62, 0
4, 56352, Note_on_c, 2, 60, 92
4, 56446, Note_on_c, 2, 60, 0
4, 56448, Note_on_c, 2, 59, 92
4, 56976, Note_on_c, 2, 59, 0
4, 57024, Note_on_c, 2, 60, 92
4, 57184, Note_on_c, 2, 60, 0
4, 57792, Note_on_c, 2, 66, 92
4, 57952, Note_on_c, 2, 66, 0
4, 57984, Note_on_c, 2, 66, 92
4, 58144, Note_on_c, 2, 66, 0
4, 58176, Note_on_c, 2, 59, 92
4, 58704, Note_on_c, 2, 59, 0
4, 58752, Note_on_c, 2, 64, 92
4, 58894, Note_on_c, 2, 64, 0
4, 58896, Note_on_c, 2, 64, 92
4, 58942, Note_on_c, 2, 64, 0
4, 58944, Note_on_c, 2, 64, 92
4, 59104, Note_on_c, 2, 64, 0
4, 59136, Note_on_c, 2, 64, 92
4, 59296, Note_on_c, 2, 64, 0
4, 59328, Note_on_c, 2, 57, 92
4, 59856, Note_on_c, 2, 57, 0
4, 59904, Note_on_c, 2, 62, 92
4, 60046, Note_on_c, 2, 62, 0
4, 60048, Note_on_c, 2, 62, 92
4, 60094, Note_on_c, 2, 62, 0
4, 60096, Note_on_c, 2, 62, 92
4, 60256, Note_on_c, 2, 62, 0
4, 60288, Note_on_c, 2, 62, 92
4, 60448, Note_on_c, 2, 62, 0
4, 60480, Note_on_c, 2, 55, 92
4, 61008, Note_on_c, 2, 55, 0
4, 61056, Note_on_c, 2, 50, 92
4, 61216, Note_on_c, 2, 50, 0
4, 61248, Note_on_c, 2, 62, 92
4, 61584, Note_on_c, 2, 62, 0
4, 61632, Note_on_c, 2, 60, 92
4, 61888, Note_on_c, 2, 60, 0
4, 61920, Note_on_c, 2, 60, 92
4, 62014, Note_on_c, 2, 60, 0
4, 62016, Note_on_c, 2, 60, 92
4, 62176, Note_on_c, 2, 60, 0
4, 62208, Note_on_c, 2, 59, 92
4, 62544, Note_on_c, 2, 59, 0
4, 62592, Note_on_c, 2, 59, 92
4, 62752, Note_on_c, 2, 59, 0
4, 62784, Note_on_c, 2, 54, 92
4, 63312, Note_on_c, 2, 54, 0
4, 63360, Note_on_c, 2, 55, 92
4, 63520, Note_on_c, 2, 55, 0
4, 63552, Note_on_c, 2, 67, 92
4, 64096, Note_on_c, 2, 67, 0
4, 64704, Note_on_c, 2, 65, 92
4, 65248, Note_on_c, 2, 65, 0
4, 65280, Note_on_c, 2, 64, 92
4, 65440, Note_on_c, 2, 64, 0
4, 65472, Note_on_c, 2, 60, 92
4, 65632, Note_on_c, 2, 60, 0
4, 65664, Note_on_c, 2, 62, 92
4, 66192, Note_on_c, 2, 62, 0
4, 66240, Note_on_c, 2, 62, 92
4, 66768, Note_on_c, 2, 62, 0
4, 67392, Note_on_c, 2, 65, 92
4, 67648, Note_on_c, 2, 65, 0
4, 67680, Note_on_c, 2, 62, 92
4, 67774, Note_on_c, 2, 62, 0
4, 67776, Note_on_c, 2, 64, 92
4, 67936, Note_on_c, 2, 64, 0
4, 68544, Note_on_c, 2, 62, 92
4, 68832, Note_on_c, 2, 62, 0
4, 68832, Note_on_c, 2, 59, 92
4, 68926, Note_on_c, 2, 59, 0
4, 68928, Note_on_c, 2, 60, 92
4, 69088, Note_on_c, 2, 60, 0
4, 71424, Note_on_c, 2, 64, 92
4, 71902, Note_on_c, 2, 64, 0
4, 71904, Note_on_c, 2, 64, 92
4, 71998, Note_on_c, 2, 64, 0
4, 72000, Note_on_c, 2, 62, 92
4, 72336, Note_on_c, 2, 62, 0
4, 72384, Note_on_c, 2, 59, 92
4, 72478, Note_on_c, 2, 59, 0
4, 72480, Note_on_c, 2, 62, 92
4, 72574, Note_on_c, 2, 62, 0
4, 72576, Note_on_c, 2, 62, 92
4, 72960, Note_on_c, 2, 62, 0
4, 72960, Note_on_c, 2, 60, 92
4, 73120, Note_on_c, 2, 60, 0
4, 73152, Note_on_c, 2, 59, 92
4, 73312, Note_on_c, 2, 59, 0
4, 73920, Note_on_c, 2, 55, 92
4, 74080, Note_on_c, 2, 55, 0
4, 74112, Note_on_c, 2, 64, 92
4, 74272, Note_on_c, 2, 64, 0
4, 74304, Note_on_c, 2, 64, 92
4, 74464, Note_on_c, 2, 64, 0
4, 74496, Note_on_c, 2, 62, 92
4, 74656, Note_on_c, 2, 62, 0
4, 74880, Note_on_c, 2, 59, 92
4, 75072, Note_on_c, 2, 59, 0
4, 75072, Note_on_c, 2, 60, 92
4, 75232, Note_on_c, 2, 60, 0
4, 75264, Note_on_c, 2, 65, 92
4, 75424, Note_on_c, 2, 65, 0
4, 75456, Note_on_c, 2, 65, 92
4, 75598, Note_on_c, 2, 65, 0
4, 75600, Note_on_c, 2, 65, 92
4, 75646, Note_on_c, 2, 65, 0
4, 75648, Note_on_c, 2, 64, 92
4, 75808, Note_on_c, 2, 64, 0
4, 76032, Note_on_c, 2, 64, 92
4, 76368, Note_on_c, 2, 64, 0
4, 76416, Note_on_c, 2, 60, 92
4, 76576, Note_on_c, 2, 60, 0
4, 76608, Note_on_c, 2, 62, 92
4, 76944, Note_on_c, 2, 62, 0
4, 76992, Note_on_c, 2, 59, 92
4, 77152, Note_on_c, 2, 59, 0
4, 77184, Note_on_c, 2, 60, 92
4, 77520, Note_on_c, 2, 60, 0
4, 77568, Note_on_c, 2, 65, 92
4, 77728, Note_on_c, 2, 65, 0
4, 77760, Note_on_c, 2, 62, 92
4, 77902, Note_on_c, 2, 62, 0
4, 77904, Note_on_c, 2, 62, 92
4, 77950, Note_on_c, 2, 62, 0
4, 77952, Note_on_c, 2, 62, 92
4, 78112, Note_on_c, 2, 62, 0
4, 78144, Note_on_c, 2, 64, 92
4, 78304, Note_on_c, 2, 64, 0
4, 78336, Note_on_c, 2, 62, 92
4, 78672, Note_on_c, 2, 62, 0
4, 78720, Note_on_c, 2, 60, 92
4, 78880, Note_on_c, 2, 60, 0
4, 78912, Note_on_c, 2, 59, 92
4, 79104, Note_on_c, 2, 59, 0
4, 79104, Note_on_c, 2, 62, 92
4, 79264, Note_on_c, 2, 62, 0
4, 79296, Note_on_c, 2, 60, 92
4, 79456, Note_on_c, 2, 60, 0
4, 79488, Note_on_c, 2, 62, 92
4, 79824, Note_on_c, 2, 62, 0
4, 79872, Note_on_c, 2, 60, 92
4, 80032, Note_on_c, 2, 60, 0
4, 80064, Note_on_c, 2, 59, 92
4, 80398, Note_on_c, 2, 59, 0
4, 80400, Note_on_c, 2, 59, 92
4, 80446, Note_on_c, 2, 59, 0
4, 80448, Note_on_c, 2, 60, 92
4, 80608, Note_on_c, 2, 60, 0
4, 80640, Note_on_c, 2, 67, 92
4, 80832, Note_on_c, 2, 67, 0
4, 80832, Note_on_c, 2, 64, 92
4, 80992, Note_on_c, 2, 64, 0
4, 81024, Note_on_c, 2, 60, 92
4, 81184, Note_on_c, 2, 60, 0
4, 81216, Note_on_c, 2, 55, 45
4, 81792, Note_on_c, 2, 55, 0
4, 81792, Note_on_c, 2, 61, 45
4, 82368, Note_on_c, 2, 61, 0
4, 82368, Note_on_c, 2, 60, 45
4, 82944, Note_on_c, 2, 60, 0
4, 82944, Note_on_c, 2, 59, 45
4, 83520, Note_on_c, 2, 59, 0
4, 83520, Note_on_c, 2, 60, 45
4, 84096, Note_on_c, 2, 60, 0
4, 84096, Note_on_c, 2, 57, 45
4, 84672, Note_on_c, 2, 57, 0
4, 84672, Note_on_c, 2, 59, 45
4, 85008, Note_on_c, 2, 59, 0
4, 85056, Note_on_c, 2, 60, 45
4, 85216, Note_on_c, 2, 60, 0
4, 85248, Note_on_c, 2, 57, 45
4, 85408, Note_on_c, 2, 57, 0
4, 85440, Note_on_c, 2, 60, 45
4, 85600, Note_on_c, 2, 60, 0
4, 85632, Note_on_c, 2, 59, 45
4, 85792, Note_on_c, 2, 59, 0
4, 85824, Note_on_c, 2, 60, 45
4, 85984, Note_on_c, 2, 60, 0
4, 86016, Note_on_c, 2, 64, 92
4, 86112, Note_on_c, 2, 64, 0
4, 86112, Note_on_c, 2, 62, 92
4, 86208, Note_on_c, 2, 62, 0
4, 86208, Note_on_c, 2, 61, 92
4, 86304, Note_on_c, 2, 61, 0
4, 86304, Note_on_c, 2, 58, 92
4, 86398, Note_on_c, 2, 58, 0
4, 86400, Note_on_c, 2, 57, 92
4, 86560, Note_on_c, 2, 57, 0
4, 86592, Note_on_c, 2, 61, 92
4, 86848, Note_on_c, 2, 61, 0
4, 86880, Note_on_c, 2, 59, 92
4, 86926, Note_on_c, 2, 59, 0
4, 86928, Note_on_c, 2, 61, 92
4, 86974, Note_on_c, 2, 61, 0
4, 86976, Note_on_c, 2, 62, 92
4, 87136, Note_on_c, 2, 62, 0
4, 87168, Note_on_c, 2, 62, 92
4, 87264, Note_on_c, 2, 62, 0
4, 87264, Note_on_c, 2, 60, 92
4, 87360, Note_on_c, 2, 60, 0
4, 87360, Note_on_c, 2, 59, 92
4, 87456, Note_on_c, 2, 59, 0
4, 87456, Note_on_c, 2, 57, 92
4, 87550, Note_on_c, 2, 57, 0
4, 87552, Note_on_c, 2, 55, 92
4, 87712, Note_on_c, 2, 55, 0
4, 87744, Note_on_c, 2, 59, 92
4, 88000, Note_on_c, 2, 59, 0
4, 88032, Note_on_c, 2, 57, 92
4, 88078, Note_on_c, 2, 57, 0
4, 88080, Note_on_c, 2, 59, 92
4, 88126, Note_on_c, 2, 59, 0
4, 88128, Note_on_c, 2, 60, 92
4, 88288, Note_on_c, 2, 60, 0
4, 88320, Note_on_c, 2, 64, 92
4, 88416, Note_on_c, 2, 64, 0
4, 88416, Note_on_c, 2, 62, 92
4, 88510, Note_on_c, 2, 62, 0
4, 88512, Note_on_c, 2, 60, 92
4, 88608, Note_on_c, 2, 60, 0
4, 88608, Note_on_c, 2, 59, 92
4, 88702, Note_on_c, 2, 59, 0
4, 88704, Note_on_c, 2, 57, 92
4, 89280, Note_on_c, 2, 57, 0
4, 89280, Note_on_c, 2, 56, 92
4, 89440, Note_on_c, 2, 56, 0
4, 89472, Note_on_c, 2, 55, 92
4, 89808, Note_on_c, 2, 55, 0
4, 89856, Note_on_c, 2, 57, 92
4, 90016, Note_on_c, 2, 57, 0
4, 90048, Note_on_c, 2, 60, 92
4, 90208, Note_on_c, 2, 60, 0
4, 90240, Note_on_c, 2, 59, 92
4, 90400, Note_on_c, 2, 59, 0
4, 90432, Note_on_c, 2, 60, 92
4, 90592, Note_on_c, 2, 60, 0
4, 91584, Note_on_c, 2, 60, 92
4, 91678, Note_on_c, 2, 60, 0
4, 91680, Note_on_c, 2, 60, 92
4, 91774, Note_on_c, 2, 60, 0
4, 91776, Note_on_c, 2, 60, 92
4, 91968, Note_on_c, 2, 60, 0
4, 91968, Note_on_c, 2, 59, 92
4, 92128, Note_on_c, 2, 59, 0
4, 92160, Note_on_c, 2, 60, 92
4, 92320, Note_on_c, 2, 60, 0
4, 93312, Note_on_c, 2, 60, 92
4, 93406, Note_on_c, 2, 60, 0
4, 93408, Note_on_c, 2, 60, 92
4, 93502, Note_on_c, 2, 60, 0
4, 93504, Note_on_c, 2, 60, 92
4, 93696, Note_on_c, 2, 60, 0
4, 93696, Note_on_c, 2, 59, 92
4, 93856, Note_on_c, 2, 59, 0
4, 93888, Note_on_c, 2, 60, 92
4, 94048, Note_on_c, 2, 60, 0
4, 94048, End_track
5, 0, Start_track
5, 0, MIDI_port, 0
5, 0, Title_t, "Staff-4"
5, 0, Control_c, 3, 7, 127
5, 0, Control_c, 3, 10, 64
5, 0, Program_c, 3, 71
5, 0, Note_on_c, 3, 48, 108
5, 528, Note_on_c, 3, 48, 0
5, 576, Note_on_c, 3, 50, 108
5, 736, Note_on_c, 3, 50, 0
5, 2304, Note_on_c, 3, 47, 108
5, 2830, Note_on_c, 3, 47, 0
5, 2832, Note_on_c, 3, 47, 108
5, 2878, Note_on_c, 3, 47, 0
5, 2880, Note_on_c, 3, 48, 108
5, 3040, Note_on_c, 3, 48, 0
5, 4608, Note_on_c, 3, 48, 108
5, 4864, Note_on_c, 3, 48, 0
5, 4896, Note_on_c, 3, 48, 108
5, 4990, Note_on_c, 3, 48, 0
5, 4992, Note_on_c, 3, 48, 108
5, 5152, Note_on_c, 3, 48, 0
5, 5184, Note_on_c, 3, 48, 108
5, 5344, Note_on_c, 3, 48, 0
5, 5376, Note_on_c, 3, 48, 108
5, 5536, Note_on_c, 3, 48, 0
5, 5952, Note_on_c, 3, 52, 108
5, 6112, Note_on_c, 3, 52, 0
5, 6144, Note_on_c, 3, 53, 108
5, 6304, Note_on_c, 3, 53, 0
5, 6336, Note_on_c, 3, 55, 108
5, 6496, Note_on_c, 3, 55, 0
5, 6528, Note_on_c, 3, 43, 108
5, 6688, Note_on_c, 3, 43, 0
5, 6912, Note_on_c, 3, 55, 108
5, 7072, Note_on_c, 3, 55, 0
5, 7104, Note_on_c, 3, 57, 108
5, 7264, Note_on_c, 3, 57, 0
5, 7296, Note_on_c, 3, 59, 108
5, 7456, Note_on_c, 3, 59, 0
5, 7488, Note_on_c, 3, 60, 108
5, 7648, Note_on_c, 3, 60, 0
5, 7680, Note_on_c, 3, 48, 108
5, 7840, Note_on_c, 3, 48, 0
5, 8064, Note_on_c, 3, 60, 108
5, 8400, Note_on_c, 3, 60, 0
5, 8448, Note_on_c, 3, 57, 108
5, 8608, Note_on_c, 3, 57, 0
5, 8640, Note_on_c, 3, 59, 108
5, 8896, Note_on_c, 3, 59, 0
5, 8928, Note_on_c, 3, 59, 108
5, 9022, Note_on_c, 3, 59, 0
5, 9024, Note_on_c, 3, 55, 108
5, 9118, Note_on_c, 3, 55, 0
5, 9120, Note_on_c, 3, 55, 108
5, 9214, Note_on_c, 3, 55, 0
5, 9216, Note_on_c, 3, 57, 108
5, 9552, Note_on_c, 3, 57, 0
5, 9600, Note_on_c, 3, 53, 108
5, 9760, Note_on_c, 3, 53, 0
5, 9792, Note_on_c, 3, 55, 108
5, 9952, Note_on_c, 3, 55, 0
5, 9984, Note_on_c, 3, 53, 108
5, 10144, Note_on_c, 3, 53, 0
5, 10176, Note_on_c, 3, 52, 108
5, 10336, Note_on_c, 3, 52, 0
5, 10368, Note_on_c, 3, 47, 108
5, 10704, Note_on_c, 3, 47, 0
5, 10752, Note_on_c, 3, 48, 108
5, 10912, Note_on_c, 3, 48, 0
5, 10944, Note_on_c, 3, 55, 108
5, 11104, Note_on_c, 3, 55, 0
5, 11136, Note_on_c, 3, 53, 108
5, 11296, Note_on_c, 3, 53, 0
5, 11328, Note_on_c, 3, 52, 108
5, 11488, Note_on_c, 3, 52, 0
5, 11520, Note_on_c, 3, 59, 108
5, 11904, Note_on_c, 3, 59, 0
5, 11904, Note_on_c, 3, 60, 108
5, 12064, Note_on_c, 3, 60, 0
5, 12096, Note_on_c, 3, 55, 108
5, 12256, Note_on_c, 3, 55, 0
5, 15552, Note_on_c, 3, 57, 108
5, 15712, Note_on_c, 3, 57, 0
5, 15744, Note_on_c, 3, 57, 108
5, 15904, Note_on_c, 3, 57, 0
5, 15936, Note_on_c, 3, 57, 108
5, 16096, Note_on_c, 3, 57, 0
5, 16128, Note_on_c, 3, 57, 108
5, 16654, Note_on_c, 3, 57, 0
5, 16656, Note_on_c, 3, 57, 108
5, 16702, Note_on_c, 3, 57, 0
5, 16704, Note_on_c, 3, 50, 108
5, 16864, Note_on_c, 3, 50, 0
5, 19008, Note_on_c, 3, 55, 108
5, 19344, Note_on_c, 3, 55, 0
5, 19392, Note_on_c, 3, 55, 108
5, 19552, Note_on_c, 3, 55, 0
5, 19584, Note_on_c, 3, 55, 108
5, 20112, Note_on_c, 3, 55, 0
5, 20160, Note_on_c, 3, 48, 108
5, 20320, Note_on_c, 3, 48, 0
5, 20928, Note_on_c, 3, 60, 108
5, 21088, Note_on_c, 3, 60, 0
5, 21120, Note_on_c, 3, 60, 108
5, 21280, Note_on_c, 3, 60, 0
5, 21312, Note_on_c, 3, 55, 108
5, 21840, Note_on_c, 3, 55, 0
5, 21888, Note_on_c, 3, 58, 108
5, 22030, Note_on_c, 3, 58, 0
5, 22032, Note_on_c, 3, 58, 108
5, 22078, Note_on_c, 3, 58, 0
5, 22080, Note_on_c, 3, 58, 108
5, 22240, Note_on_c, 3, 58, 0
5, 22272, Note_on_c, 3, 58, 108
5, 22432, Note_on_c, 3, 58, 0
5, 22464, Note_on_c, 3, 53, 108
5, 22800, Note_on_c, 3, 53, 0
5, 22848, Note_on_c, 3, 53, 108
5, 23008, Note_on_c, 3, 53, 0
5, 23040, Note_on_c, 3, 56, 108
5, 23200, Note_on_c, 3, 56, 0
5, 23232, Note_on_c, 3, 56, 108
5, 23392, Note_on_c, 3, 56, 0
5, 23424, Note_on_c, 3, 56, 108
5, 23584, Note_on_c, 3, 56, 0
5, 23616, Note_on_c, 3, 51, 108
5, 24144, Note_on_c, 3, 51, 0
5, 24192, Note_on_c, 3, 50, 108
5, 24352, Note_on_c, 3, 50, 0
5, 24384, Note_on_c, 3, 50, 108
5, 24544, Note_on_c, 3, 50, 0
5, 24576, Note_on_c, 3, 50, 108
5, 24736, Note_on_c, 3, 50, 0
5, 24768, Note_on_c, 3, 50, 108
5, 25024, Note_on_c, 3, 50, 0
5, 25056, Note_on_c, 3, 50, 108
5, 25150, Note_on_c, 3, 50, 0
5, 25152, Note_on_c, 3, 50, 108
5, 25246, Note_on_c, 3, 50, 0
5, 25248, Note_on_c, 3, 50, 108
5, 25342, Note_on_c, 3, 50, 0
5, 25344, Note_on_c, 3, 50, 108
5, 25504, Note_on_c, 3, 50, 0
5, 25536, Note_on_c, 3, 50, 108
5, 25696, Note_on_c, 3, 50, 0
5, 25728, Note_on_c, 3, 50, 108
5, 25888, Note_on_c, 3, 50, 0
5, 25920, Note_on_c, 3, 50, 108
5, 26176, Note_on_c, 3, 50, 0
5, 26208, Note_on_c, 3, 50, 108
5, 26302, Note_on_c, 3, 50, 0
5, 26304, Note_on_c, 3, 50, 108
5, 26464, Note_on_c, 3, 50, 0
5, 26496, Note_on_c, 3, 55, 108
5, 26656, Note_on_c, 3, 55, 0
5, 26688, Note_on_c, 3, 55, 108
5, 26848, Note_on_c, 3, 55, 0
5, 26880, Note_on_c, 3, 54, 108
5, 27040, Note_on_c, 3, 54, 0
5, 27072, Note_on_c, 3, 52, 108
5, 27328, Note_on_c, 3, 52, 0
5, 27360, Note_on_c, 3, 52, 108
5, 27454, Note_on_c, 3, 52, 0
5, 27456, Note_on_c, 3, 47, 108
5, 27616, Note_on_c, 3, 47, 0
5, 27648, Note_on_c, 3, 48, 108
5, 27840, Note_on_c, 3, 48, 0
5, 27840, Note_on_c, 3, 50, 108
5, 27982, Note_on_c, 3, 50, 0
5, 27984, Note_on_c, 3, 50, 108
5, 28030, Note_on_c, 3, 50, 0
5, 28032, Note_on_c, 3, 50, 108
5, 28192, Note_on_c, 3, 50, 0
5, 28224, Note_on_c, 3, 55, 108
5, 28384, Note_on_c, 3, 55, 0
5, 28800, Note_on_c, 3, 55, 108
5, 29328, Note_on_c, 3, 55, 0
5, 29376, Note_on_c, 3, 47, 108
5, 29712, Note_on_c, 3, 47, 0
5, 29760, Note_on_c, 3, 52, 108
5, 29920, Note_on_c, 3, 52, 0
5, 29952, Note_on_c, 3, 49, 108
5, 30478, Note_on_c, 3, 49, 0
5, 30480, Note_on_c, 3, 49, 108
5, 30526, Note_on_c, 3, 49, 0
5, 30528, Note_on_c, 3, 50, 108
5, 30688, Note_on_c, 3, 50, 0
5, 31872, Note_on_c, 3, 50, 60
5, 32032, Note_on_c, 3, 50, 0
5, 32064, Note_on_c, 3, 50, 60
5, 32224, Note_on_c, 3, 50, 0
5, 32256, Note_on_c, 3, 50, 60
5, 32512, Note_on_c, 3, 50, 0
5, 32544, Note_on_c, 3, 50, 60
5, 32638, Note_on_c, 3, 50, 0
5, 32640, Note_on_c, 3, 50, 60
5, 32734, Note_on_c, 3, 50, 0
5, 32736, Note_on_c, 3, 50, 60
5, 32830, Note_on_c, 3, 50, 0
5, 32832, Note_on_c, 3, 55, 60
5, 32992, Note_on_c, 3, 55, 0
5, 33024, Note_on_c, 3, 43, 60
5, 33184, Note_on_c, 3, 43, 0
5, 33408, Note_on_c, 3, 55, 92
5, 33568, Note_on_c, 3, 55, 0
5, 33600, Note_on_c, 3, 47, 92
5, 33760, Note_on_c, 3, 47, 0
5, 33792, Note_on_c, 3, 48, 92
5, 33952, Note_on_c, 3, 48, 0
5, 33984, Note_on_c, 3, 50, 92
5, 34144, Note_on_c, 3, 50, 0
5, 34176, Note_on_c, 3, 50, 92
5, 34336, Note_on_c, 3, 50, 0
5, 34560, Note_on_c, 3, 50, 92
5, 34752, Note_on_c, 3, 50, 0
5, 34752, Note_on_c, 3, 52, 92
5, 34912, Note_on_c, 3, 52, 0
5, 34944, Note_on_c, 3, 54, 92
5, 35104, Note_on_c, 3, 54, 0
5, 35136, Note_on_c, 3, 55, 92
5, 35296, Note_on_c, 3, 55, 0
5, 35328, Note_on_c, 3, 43, 92
5, 35488, Note_on_c, 3, 43, 0
5, 35712, Note_on_c, 3, 55, 92
5, 36240, Note_on_c, 3, 55, 0
5, 36288, Note_on_c, 3, 53, 92
5, 36624, Note_on_c, 3, 53, 0
5, 36672, Note_on_c, 3, 53, 92
5, 36832, Note_on_c, 3, 53, 0
5, 36864, Note_on_c, 3, 52, 92
5, 37120, Note_on_c, 3, 52, 0
5, 37152, Note_on_c, 3, 52, 92
5, 37246, Note_on_c, 3, 52, 0
5, 37248, Note_on_c, 3, 52, 92
5, 37342, Note_on_c, 3, 52, 0
5, 37344, Note_on_c, 3, 52, 92
5, 37438, Note_on_c, 3, 52, 0
5, 37440, Note_on_c, 3, 51, 92
5, 37966, Note_on_c, 3, 51, 0
5, 37968, Note_on_c, 3, 51, 92
5, 38014, Note_on_c, 3, 51, 0
5, 38016, Note_on_c, 3, 52, 92
5, 38176, Note_on_c, 3, 52, 0
5, 39168, Note_on_c, 3, 52, 92
5, 39694, Note_on_c, 3, 52, 0
5, 39696, Note_on_c, 3, 52, 92
5, 39742, Note_on_c, 3, 52, 0
5, 39744, Note_on_c, 3, 45, 92
5, 39904, Note_on_c, 3, 45, 0
5, 40224, Note_on_c, 3, 53, 92
5, 40318, Note_on_c, 3, 53, 0
5, 40320, Note_on_c, 3, 52, 92
5, 40848, Note_on_c, 3, 52, 0
5, 40896, Note_on_c, 3, 45, 92
5, 41056, Note_on_c, 3, 45, 0
5, 41280, Note_on_c, 3, 45, 92
5, 41440, Note_on_c, 3, 45, 0
5, 41472, Note_on_c, 3, 57, 92
5, 41760, Note_on_c, 3, 57, 0
5, 41760, Note_on_c, 3, 56, 92
5, 41854, Note_on_c, 3, 56, 0
5, 41856, Note_on_c, 3, 57, 92
5, 41950, Note_on_c, 3, 57, 0
5, 41952, Note_on_c, 3, 56, 92
5, 42046, Note_on_c, 3, 56, 0
5, 42048, Note_on_c, 3, 57, 92
5, 42304, Note_on_c, 3, 57, 0
5, 42336, Note_on_c, 3, 56, 92
5, 42430, Note_on_c, 3, 56, 0
5, 42432, Note_on_c, 3, 57, 92
5, 42526, Note_on_c, 3, 57, 0
5, 42528, Note_on_c, 3, 56, 92
5, 42622, Note_on_c, 3, 56, 0
5, 42624, Note_on_c, 3, 57, 92
5, 42960, Note_on_c, 3, 57, 0
5, 43008, Note_on_c, 3, 59, 92
5, 43168, Note_on_c, 3, 59, 0
5, 43200, Note_on_c, 3, 60, 127
5, 43728, Note_on_c, 3, 60, 0
5, 43776, Note_on_c, 3, 56, 127
5, 44254, Note_on_c, 3, 56, 0
5, 44256, Note_on_c, 3, 56, 92
5, 44350, Note_on_c, 3, 56, 0
5, 44352, Note_on_c, 3, 58, 127
5, 44880, Note_on_c, 3, 58, 0
5, 44928, Note_on_c, 3, 54, 127
5, 45456, Note_on_c, 3, 54, 0
5, 45504, Note_on_c, 3, 56, 92
5, 45760, Note_on_c, 3, 56, 0
5, 45792, Note_on_c, 3, 56, 92
5, 45886, Note_on_c, 3, 56, 0
5, 45888, Note_on_c, 3, 57, 92
5, 46048, Note_on_c, 3, 57, 0
5, 46080, Note_on_c, 3, 51, 92
5, 46240, Note_on_c, 3, 51, 0
5, 46272, Note_on_c, 3, 52, 92
5, 46608, Note_on_c, 3, 52, 0
5, 46656, Note_on_c, 3, 45, 92
5, 46816, Note_on_c, 3, 45, 0
5, 47232, Note_on_c, 3, 57, 92
5, 47760, Note_on_c, 3, 57, 0
5, 47808, Note_on_c, 3, 58, 92
5, 48336, Note_on_c, 3, 58, 0
5, 48384, Note_on_c, 3, 49, 92
5, 48720, Note_on_c, 3, 49, 0
5, 48768, Note_on_c, 3, 50, 92
5, 48928, Note_on_c, 3, 50, 0
5, 48960, Note_on_c, 3, 50, 92
5, 49120, Note_on_c, 3, 50, 0
5, 49152, Note_on_c, 3, 55, 92
5, 49312, Note_on_c, 3, 55, 0
5, 49344, Note_on_c, 3, 56, 92
5, 49504, Note_on_c, 3, 56, 0
5, 49536, Note_on_c, 3, 57, 92
5, 49792, Note_on_c, 3, 57, 0
5, 49824, Note_on_c, 3, 57, 92
5, 49918, Note_on_c, 3, 57, 0
5, 49920, Note_on_c, 3, 58, 92
5, 50080, Note_on_c, 3, 58, 0
5, 50592, Note_on_c, 3, 58, 92
5, 50686, Note_on_c, 3, 58, 0
5, 50688, Note_on_c, 3, 57, 92
5, 51216, Note_on_c, 3, 57, 0
5, 51264, Note_on_c, 3, 50, 92
5, 51424, Note_on_c, 3, 50, 0
5, 51744, Note_on_c, 3, 58, 92
5, 51838, Note_on_c, 3, 58, 0
5, 51840, Note_on_c, 3, 57, 92
5, 52368, Note_on_c, 3, 57, 0
5, 52416, Note_on_c, 3, 50, 92
5, 52576, Note_on_c, 3, 50, 0
5, 52608, Note_on_c, 3, 62, 92
5, 52768, Note_on_c, 3, 62, 0
5, 52800, Note_on_c, 3, 62, 92
5, 52960, Note_on_c, 3, 62, 0
5, 52992, Note_on_c, 3, 62, 92
5, 53280, Note_on_c, 3, 62, 0
5, 53280, Note_on_c, 3, 61, 92
5, 53374, Note_on_c, 3, 61, 0
5, 53376, Note_on_c, 3, 62, 92
5, 53472, Note_on_c, 3, 62, 0
5, 53472, Note_on_c, 3, 61, 92
5, 53566, Note_on_c, 3, 61, 0
5, 53568, Note_on_c, 3, 62, 92
5, 53824, Note_on_c, 3, 62, 0
5, 53856, Note_on_c, 3, 61, 92
5, 53950, Note_on_c, 3, 61, 0
5, 53952, Note_on_c, 3, 62, 92
5, 54046, Note_on_c, 3, 62, 0
5, 54048, Note_on_c, 3, 61, 92
5, 54142, Note_on_c, 3, 61, 0
5, 54144, Note_on_c, 3, 62, 92
5, 54304, Note_on_c, 3, 62, 0
5, 54336, Note_on_c, 3, 59, 92
5, 54496, Note_on_c, 3, 59, 0
5, 54528, Note_on_c, 3, 56, 92
5, 54688, Note_on_c, 3, 56, 0
5, 54720, Note_on_c, 3, 55, 92
5, 55248, Note_on_c, 3, 55, 0
5, 55296, Note_on_c, 3, 55, 92
5, 55632, Note_on_c, 3, 55, 0
5, 55680, Note_on_c, 3, 55, 92
5, 55840, Note_on_c, 3, 55, 0
5, 55872, Note_on_c, 3, 60, 92
5, 55968, Note_on_c, 3, 60, 0
5, 55968, Note_on_c, 3, 64, 92
5, 56062, Note_on_c, 3, 64, 0
5, 56064, Note_on_c, 3, 62, 92
5, 56160, Note_on_c, 3, 62, 0
5, 56160, Note_on_c, 3, 60, 92
5, 56254, Note_on_c, 3, 60, 0
5, 56256, Note_on_c, 3, 59, 92
5, 56352, Note_on_c, 3, 59, 0
5, 56352, Note_on_c, 3, 57, 92
5, 56446, Note_on_c, 3, 57, 0
5, 56448, Note_on_c, 3, 55, 92
5, 56544, Note_on_c, 3, 55, 0
5, 56544, Note_on_c, 3, 57, 92
5, 56640, Note_on_c, 3, 57, 0
5, 56640, Note_on_c, 3, 55, 92
5, 56736, Note_on_c, 3, 55, 0
5, 56736, Note_on_c, 3, 53, 92
5, 56832, Note_on_c, 3, 53, 0
5, 56832, Note_on_c, 3, 52, 92
5, 56928, Note_on_c, 3, 52, 0
5, 56928, Note_on_c, 3, 50, 92
5, 57022, Note_on_c, 3, 50, 0
5, 57024, Note_on_c, 3, 48, 92
5, 57184, Note_on_c, 3, 48, 0
5, 57792, Note_on_c, 3, 60, 92
5, 57952, Note_on_c, 3, 60, 0
5, 57984, Note_on_c, 3, 60, 92
5, 58144, Note_on_c, 3, 60, 0
5, 58176, Note_on_c, 3, 52, 92
5, 58704, Note_on_c, 3, 52, 0
5, 58752, Note_on_c, 3, 58, 92
5, 58894, Note_on_c, 3, 58, 0
5, 58896, Note_on_c, 3, 58, 92
5, 58942, Note_on_c, 3, 58, 0
5, 58944, Note_on_c, 3, 58, 92
5, 59104, Note_on_c, 3, 58, 0
5, 59136, Note_on_c, 3, 58, 92
5, 59296, Note_on_c, 3, 58, 0
5, 59328, Note_on_c, 3, 53, 92
5, 59856, Note_on_c, 3, 53, 0
5, 59904, Note_on_c, 3, 56, 92
5, 60046, Note_on_c, 3, 56, 0
5, 60048, Note_on_c, 3, 56, 92
5, 60094, Note_on_c, 3, 56, 0
5, 60096, Note_on_c, 3, 56, 92
5, 60256, Note_on_c, 3, 56, 0
5, 60288, Note_on_c, 3, 56, 92
5, 60448, Note_on_c, 3, 56, 0
5, 60480, Note_on_c, 3, 51, 92
5, 61008, Note_on_c, 3, 51, 0
5, 61056, Note_on_c, 3, 50, 92
5, 61392, Note_on_c, 3, 50, 0
5, 61440, Note_on_c, 3, 50, 92
5, 61600, Note_on_c, 3, 50, 0
5, 61632, Note_on_c, 3, 50, 92
5, 61888, Note_on_c, 3, 50, 0
5, 61920, Note_on_c, 3, 50, 92
5, 62014, Note_on_c, 3, 50, 0
5, 62016, Note_on_c, 3, 50, 92
5, 62176, Note_on_c, 3, 50, 0
5, 62208, Note_on_c, 3, 50, 92
5, 62544, Note_on_c, 3, 50, 0
5, 62592, Note_on_c, 3, 50, 92
5, 62752, Note_on_c, 3, 50, 0
5, 62784, Note_on_c, 3, 50, 92
5, 63120, Note_on_c, 3, 50, 0
5, 63168, Note_on_c, 3, 50, 92
5, 63328, Note_on_c, 3, 50, 0
5, 63360, Note_on_c, 3, 55, 92
5, 63888, Note_on_c, 3, 55, 0
5, 63936, Note_on_c, 3, 55, 92
5, 64464, Note_on_c, 3, 55, 0
5, 64512, Note_on_c, 3, 55, 92
5, 65040, Note_on_c, 3, 55, 0
5, 65088, Note_on_c, 3, 55, 92
5, 65616, Note_on_c, 3, 55, 0
5, 65664, Note_on_c, 3, 55, 92
5, 66192, Note_on_c, 3, 55, 0
5, 66240, Note_on_c, 3, 55, 92
5, 66768, Note_on_c, 3, 55, 0
5, 67392, Note_on_c, 3, 55, 92
5, 67648, Note_on_c, 3, 55, 0
5, 67680, Note_on_c, 3, 55, 92
5, 67774, Note_on_c, 3, 55, 0
5, 67776, Note_on_c, 3, 48, 92
5, 67936, Note_on_c, 3, 48, 0
5, 68544, Note_on_c, 3, 55, 92
5, 68880, Note_on_c, 3, 55, 0
5, 68928, Note_on_c, 3, 48, 92
5, 69088, Note_on_c, 3, 48, 0
5, 69120, Note_on_c, 3, 57, 92
5, 69648, Note_on_c, 3, 57, 0
5, 69696, Note_on_c, 3, 55, 92
5, 70272, Note_on_c, 3, 55, 0
5, 70272, Note_on_c, 3, 53, 92
5, 70798, Note_on_c, 3, 53, 0
5, 70800, Note_on_c, 3, 53, 92
5, 70846, Note_on_c, 3, 53, 0
5, 70848, Note_on_c, 3, 52, 92
5, 71376, Note_on_c, 3, 52, 0
5, 71424, Note_on_c, 3, 48, 92
5, 71760, Note_on_c, 3, 48, 0
5, 71808, Note_on_c, 3, 48, 92
5, 71968, Note_on_c, 3, 48, 0
5, 72000, Note_on_c, 3, 47, 92
5, 72256, Note_on_c, 3, 47, 0
5, 72288, Note_on_c, 3, 47, 92
5, 72382, Note_on_c, 3, 47, 0
5, 72384, Note_on_c, 3, 47, 92
5, 72544, Note_on_c, 3, 47, 0
5, 72576, Note_on_c, 3, 48, 92
5, 73104, Note_on_c, 3, 48, 0
5, 73152, Note_on_c, 3, 43, 92
5, 73312, Note_on_c, 3, 43, 0
5, 73920, Note_on_c, 3, 52, 92
5, 74080, Note_on_c, 3, 52, 0
5, 74112, Note_on_c, 3, 55, 92
5, 74272, Note_on_c, 3, 55, 0
5, 74304, Note_on_c, 3, 55, 92
5, 74464, Note_on_c, 3, 55, 0
5, 74496, Note_on_c, 3, 43, 92
5, 74656, Note_on_c, 3, 43, 0
5, 74880, Note_on_c, 3, 55, 92
5, 75072, Note_on_c, 3, 55, 0
5, 75072, Note_on_c, 3, 57, 92
5, 75232, Note_on_c, 3, 57, 0
5, 75264, Note_on_c, 3, 59, 92
5, 75424, Note_on_c, 3, 59, 0
5, 75456, Note_on_c, 3, 60, 92
5, 75598, Note_on_c, 3, 60, 0
5, 75600, Note_on_c, 3, 60, 92
5, 75646, Note_on_c, 3, 60, 0
5, 75648, Note_on_c, 3, 48, 92
5, 75808, Note_on_c, 3, 48, 0
5, 76032, Note_on_c, 3, 60, 92
5, 76368, Note_on_c, 3, 60, 0
5, 76416, Note_on_c, 3, 57, 92
5, 76576, Note_on_c, 3, 57, 0
5, 76608, Note_on_c, 3, 59, 92
5, 76944, Note_on_c, 3, 59, 0
5, 76992, Note_on_c, 3, 55, 92
5, 77152, Note_on_c, 3, 55, 0
5, 77184, Note_on_c, 3, 57, 92
5, 77520, Note_on_c, 3, 57, 0
5, 77568, Note_on_c, 3, 53, 92
5, 77728, Note_on_c, 3, 53, 0
5, 77760, Note_on_c, 3, 55, 92
5, 77902, Note_on_c, 3, 55, 0
5, 77904, Note_on_c, 3, 55, 92
5, 77950, Note_on_c, 3, 55, 0
5, 77952, Note_on_c, 3, 53, 92
5, 78112, Note_on_c, 3, 53, 0
5, 78144, Note_on_c, 3, 52, 92
5, 78304, Note_on_c, 3, 52, 0
5, 78336, Note_on_c, 3, 47, 92
5, 78672, Note_on_c, 3, 47, 0
5, 78720, Note_on_c, 3, 48, 92
5, 78880, Note_on_c, 3, 48, 0
5, 78912, Note_on_c, 3, 55, 92
5, 79104, Note_on_c, 3, 55, 0
5, 79104, Note_on_c, 3, 53, 92
5, 79264, Note_on_c, 3, 53, 0
5, 79296, Note_on_c, 3, 52, 92
5, 79456, Note_on_c, 3, 52, 0
5, 79488, Note_on_c, 3, 59, 92
5, 79824, Note_on_c, 3, 59, 0
5, 79872, Note_on_c, 3, 60, 92
5, 80032, Note_on_c, 3, 60, 0
5, 80064, Note_on_c, 3, 55, 92
5, 80256, Note_on_c, 3, 55, 0
5, 80256, Note_on_c, 3, 59, 92
5, 80398, Note_on_c, 3, 59, 0
5, 80400, Note_on_c, 3, 59, 92
5, 80446, Note_on_c, 3, 59, 0
5, 80448, Note_on_c, 3, 60, 92
5, 80608, Note_on_c, 3, 60, 0
5, 80640, Note_on_c, 3, 55, 92
5, 80832, Note_on_c, 3, 55, 0
5, 80832, Note_on_c, 3, 52, 92
5, 80992, Note_on_c, 3, 52, 0
5, 81024, Note_on_c, 3, 48, 92
5, 81184, Note_on_c, 3, 48, 0
5, 81216, Note_on_c, 3, 55, 45
5, 81792, Note_on_c, 3, 55, 0
5, 81792, Note_on_c, 3, 57, 45
5, 82368, Note_on_c, 3, 57, 0
5, 82368, Note_on_c, 3, 50, 45
5, 82944, Note_on_c, 3, 50, 0
5, 82944, Note_on_c, 3, 55, 45
5, 83520, Note_on_c, 3, 55, 0
5, 83520, Note_on_c, 3, 48, 45
5, 84096, Note_on_c, 3, 48, 0
5, 84096, Note_on_c, 3, 54, 45
5, 84672, Note_on_c, 3, 54, 0
5, 84672, Note_on_c, 3, 53, 45
5, 85008, Note_on_c, 3, 53, 0
5, 85056, Note_on_c, 3, 52, 45
5, 85216, Note_on_c, 3, 52, 0
5, 85248, Note_on_c, 3, 53, 45
5, 85408, Note_on_c, 3, 53, 0
5, 85440, Note_on_c, 3, 55, 45
5, 85776, Note_on_c, 3, 55, 0
5, 85824, Note_on_c, 3, 48, 45
5, 85984, Note_on_c, 3, 48, 0
5, 86400, Note_on_c, 3, 57, 92
5, 86496, Note_on_c, 3, 57, 0
5, 86496, Note_on_c, 3, 58, 92
5, 86592, Note_on_c, 3, 58, 0
5, 86592, Note_on_c, 3, 57, 92
5, 86688, Note_on_c, 3, 57, 0
5, 86688, Note_on_c, 3, 55, 92
5, 86784, Note_on_c, 3, 55, 0
5, 86784, Note_on_c, 3, 53, 92
5, 86880, Note_on_c, 3, 53, 0
5, 86880, Note_on_c, 3, 52, 92
5, 86974, Note_on_c, 3, 52, 0
5, 86976, Note_on_c, 3, 50, 92
5, 87136, Note_on_c, 3, 50, 0
5, 87552, Note_on_c, 3, 55, 92
5, 87648, Note_on_c, 3, 55, 0
5, 87648, Note_on_c, 3, 57, 92
5, 87744, Note_on_c, 3, 57, 0
5, 87744, Note_on_c, 3, 55, 92
5, 87840, Note_on_c, 3, 55, 0
5, 87840, Note_on_c, 3, 53, 92
5, 87936, Note_on_c, 3, 53, 0
5, 87936, Note_on_c, 3, 52, 92
5, 88032, Note_on_c, 3, 52, 0
5, 88032, Note_on_c, 3, 50, 92
5, 88126, Note_on_c, 3, 50, 0
5, 88128, Note_on_c, 3, 48, 92
5, 88288, Note_on_c, 3, 48, 0
5, 88320, Note_on_c, 3, 60, 92
5, 88416, Note_on_c, 3, 60, 0
5, 88416, Note_on_c, 3, 59, 92
5, 88510, Note_on_c, 3, 59, 0
5, 88512, Note_on_c, 3, 57, 92
5, 88608, Note_on_c, 3, 57, 0
5, 88608, Note_on_c, 3, 55, 92
5, 88702, Note_on_c, 3, 55, 0
5, 88704, Note_on_c, 3, 54, 92
5, 89280, Note_on_c, 3, 54, 0
5, 89280, Note_on_c, 3, 53, 92
5, 89616, Note_on_c, 3, 53, 0
5, 89664, Note_on_c, 3, 52, 92
5, 89824, Note_on_c, 3, 52, 0
5, 89856, Note_on_c, 3, 53, 92
5, 90048, Note_on_c, 3, 53, 0
5, 90048, Note_on_c, 3, 55, 92
5, 90384, Note_on_c, 3, 55, 0
5, 90432, Note_on_c, 3, 48, 92
5, 90592, Note_on_c, 3, 48, 0
5, 91584, Note_on_c, 3, 60, 92
5, 91678, Note_on_c, 3, 60, 0
5, 91680, Note_on_c, 3, 60, 92
5, 91774, Note_on_c, 3, 60, 0
5, 91776, Note_on_c, 3, 55, 92
5, 92112, Note_on_c, 3, 55, 0
5, 92160, Note_on_c, 3, 48, 92
5, 92320, Note_on_c, 3, 48, 0
5, 93312, Note_on_c, 3, 60, 92
5, 93406, Note_on_c, 3, 60, 0
5, 93408, Note_on_c, 3, 60, 92
5, 93502, Note_on_c, 3, 60, 0
5, 93504, Note_on_c, 3, 55, 92
5, 93840, Note_on_c, 3, 55, 0
5, 93888, Note_on_c, 3, 48, 92
5, 94048, Note_on_c, 3, 48, 0
5, 94048, End_track
6, 0, Start_track
6, 0, MIDI_port, 0
6, 0, Title_t, "Staff-5"
6, 0, Control_c, 4, 7, 127
6, 0, Control_c, 4, 10, 64
6, 0, Program_c, 4, 0
6, 0, Note_on_c, 4, 60, 92
6, 0, Note_on_c, 4, 72, 92
6, 160, Note_on_c, 4, 60, 0
6, 160, Note_on_c, 4, 72, 0
6, 192, Note_on_c, 4, 60, 92
6, 286, Note_on_c, 4, 60, 0
6, 288, Note_on_c, 4, 72, 92
6, 382, Note_on_c, 4, 72, 0
6, 384, Note_on_c, 4, 72, 92
6, 478, Note_on_c, 4, 72, 0
6, 480, Note_on_c, 4, 71, 92
6, 526, Note_on_c, 4, 71, 0
6, 528, Note_on_c, 4, 72, 92
6, 574, Note_on_c, 4, 72, 0
6, 576, Note_on_c, 4, 62, 92
6, 576, Note_on_c, 4, 65, 92
6, 576, Note_on_c, 4, 67, 92
6, 576, Note_on_c, 4, 71, 92
6, 736, Note_on_c, 4, 62, 0
6, 736, Note_on_c, 4, 65, 0
6, 736, Note_on_c, 4, 67, 0
6, 736, Note_on_c, 4, 71, 0
6, 864, Note_on_c, 4, 67, 92
6, 912, Note_on_c, 4, 67, 0
6, 912, Note_on_c, 4, 66, 92
6, 960, Note_on_c, 4, 66, 0
6, 960, Note_on_c, 4, 67, 92
6, 1054, Note_on_c, 4, 67, 0
6, 1056, Note_on_c, 4, 69, 92
6, 1088, Note_on_c, 4, 69, 0
6, 1152, Note_on_c, 4, 71, 92
6, 1184, Note_on_c, 4, 71, 0
6, 1248, Note_on_c, 4, 69, 92
6, 1280, Note_on_c, 4, 69, 0
6, 1344, Note_on_c, 4, 67, 92
6, 1376, Note_on_c, 4, 67, 0
6, 1440, Note_on_c, 4, 69, 92
6, 1472, Note_on_c, 4, 69, 0
6, 1536, Note_on_c, 4, 71, 92
6, 1568, Note_on_c, 4, 71, 0
6, 1632, Note_on_c, 4, 72, 92
6, 1664, Note_on_c, 4, 72, 0
6, 1728, Note_on_c, 4, 74, 92
6, 1760, Note_on_c, 4, 74, 0
6, 1824, Note_on_c, 4, 72, 92
6, 1856, Note_on_c, 4, 72, 0
6, 1920, Note_on_c, 4, 71, 92
6, 1952, Note_on_c, 4, 71, 0
6, 2016, Note_on_c, 4, 72, 92
6, 2048, Note_on_c, 4, 72, 0
6, 2112, Note_on_c, 4, 74, 92
6, 2144, Note_on_c, 4, 74, 0
6, 2208, Note_on_c, 4, 76, 92
6, 2240, Note_on_c, 4, 76, 0
6, 2304, Note_on_c, 4, 77, 92
6, 2464, Note_on_c, 4, 77, 0
6, 2496, Note_on_c, 4, 67, 92
6, 2590, Note_on_c, 4, 67, 0
6, 2592, Note_on_c, 4, 77, 92
6, 2686, Note_on_c, 4, 77, 0
6, 2688, Note_on_c, 4, 77, 92
6, 2782, Note_on_c, 4, 77, 0
6, 2784, Note_on_c, 4, 76, 92
6, 2830, Note_on_c, 4, 76, 0
6, 2832, Note_on_c, 4, 77, 92
6, 2878, Note_on_c, 4, 77, 0
6, 2880, Note_on_c, 4, 67, 92
6, 2880, Note_on_c, 4, 72, 92
6, 2880, Note_on_c, 4, 76, 92
6, 3040, Note_on_c, 4, 67, 0
6, 3040, Note_on_c, 4, 72, 0
6, 3040, Note_on_c, 4, 76, 0
6, 3168, Note_on_c, 4, 72, 92
6, 3216, Note_on_c, 4, 72, 0
6, 3216, Note_on_c, 4, 71, 92
6, 3264, Note_on_c, 4, 71, 0
6, 3264, Note_on_c, 4, 72, 92
6, 3358, Note_on_c, 4, 72, 0
6, 3360, Note_on_c, 4, 74, 92
6, 3392, Note_on_c, 4, 74, 0
6, 3456, Note_on_c, 4, 76, 92
6, 3488, Note_on_c, 4, 76, 0
6, 3552, Note_on_c, 4, 74, 92
6, 3584, Note_on_c, 4, 74, 0
6, 3648, Note_on_c, 4, 72, 92
6, 3680, Note_on_c, 4, 72, 0
6, 3744, Note_on_c, 4, 74, 92
6, 3776, Note_on_c, 4, 74, 0
6, 3840, Note_on_c, 4, 76, 92
6, 3872, Note_on_c, 4, 76, 0
6, 3936, Note_on_c, 4, 77, 92
6, 3968, Note_on_c, 4, 77, 0
6, 4032, Note_on_c, 4, 79, 92
6, 4064, Note_on_c, 4, 79, 0
6, 4128, Note_on_c, 4, 77, 92
6, 4160, Note_on_c, 4, 77, 0
6, 4224, Note_on_c, 4, 76, 92
6, 4256, Note_on_c, 4, 76, 0
6, 4320, Note_on_c, 4, 77, 92
6, 4352, Note_on_c, 4, 77, 0
6, 4416, Note_on_c, 4, 79, 92
6, 4448, Note_on_c, 4, 79, 0
6, 4512, Note_on_c, 4, 80, 92
6, 4544, Note_on_c, 4, 80, 0
6, 4608, Note_on_c, 4, 69, 92
6, 4608, Note_on_c, 4, 72, 92
6, 4608, Note_on_c, 4, 77, 92
6, 4608, Note_on_c, 4, 81, 92
6, 4768, Note_on_c, 4, 69, 0
6, 4768, Note_on_c, 4, 72, 0
6, 4768, Note_on_c, 4, 77, 0
6, 4768, Note_on_c, 4, 81, 0
6, 4800, Note_on_c, 4, 69, 92
6, 4800, Note_on_c, 4, 72, 92
6, 4800, Note_on_c, 4, 77, 92
6, 4800, Note_on_c, 4, 81, 92
6, 4960, Note_on_c, 4, 69, 0
6, 4960, Note_on_c, 4, 72, 0
6, 4960, Note_on_c, 4, 77, 0
6, 4960, Note_on_c, 4, 81, 0
6, 4992, Note_on_c, 4, 69, 92
6, 4992, Note_on_c, 4, 72, 92
6, 4992, Note_on_c, 4, 77, 92
6, 4992, Note_on_c, 4, 81, 92
6, 5152, Note_on_c, 4, 69, 0
6, 5152, Note_on_c, 4, 72, 0
6, 5152, Note_on_c, 4, 77, 0
6, 5152, Note_on_c, 4, 81, 0
6, 5184, Note_on_c, 4, 69, 92
6, 5184, Note_on_c, 4, 72, 92
6, 5184, Note_on_c, 4, 77, 92
6, 5184, Note_on_c, 4, 81, 92
6, 5344, Note_on_c, 4, 69, 0
6, 5344, Note_on_c, 4, 72, 0
6, 5344, Note_on_c, 4, 77, 0
6, 5344, Note_on_c, 4, 81, 0
6, 5376, Note_on_c, 4, 67, 92
6, 5376, Note_on_c, 4, 72, 92
6, 5376, Note_on_c, 4, 76, 92
6, 5376, Note_on_c, 4, 79, 92
6, 5536, Note_on_c, 4, 67, 0
6, 5536, Note_on_c, 4, 72, 0
6, 5536, Note_on_c, 4, 76, 0
6, 5536, Note_on_c, 4, 79, 0
6, 5568, Note_on_c, 4, 72, 92
6, 5592, Note_on_c, 4, 72, 0
6, 5592, Note_on_c, 4, 74, 92
6, 5616, Note_on_c, 4, 74, 0
6, 5616, Note_on_c, 4, 76, 92
6, 5758, Note_on_c, 4, 76, 0
6, 5760, Note_on_c, 4, 76, 92
6, 5784, Note_on_c, 4, 76, 0
6, 5784, Note_on_c, 4, 77, 92
6, 5808, Note_on_c, 4, 77, 0
6, 5808, Note_on_c, 4, 79, 92
6, 5950, Note_on_c, 4, 79, 0
6, 5952, Note_on_c, 4, 67, 92
6, 6112, Note_on_c, 4, 67, 0
6, 6144, Note_on_c, 4, 69, 92
6, 6144, Note_on_c, 4, 72, 92
6, 6144, Note_on_c, 4, 76, 92
6, 6238, Note_on_c, 4, 76, 0
6, 6240, Note_on_c, 4, 74, 92
6, 6286, Note_on_c, 4, 74, 0
6, 6288, Note_on_c, 4, 72, 92
6, 6304, Note_on_c, 4, 69, 0
6, 6304, Note_on_c, 4, 72, 0
6, 6334, Note_on_c, 4, 72, 0
6, 6336, Note_on_c, 4, 64, 92
6, 6336, Note_on_c, 4, 67, 92
6, 6336, Note_on_c, 4, 72, 92
6, 6528, Note_on_c, 4, 64, 0
6, 6528, Note_on_c, 4, 67, 0
6, 6528, Note_on_c, 4, 72, 0
6, 6528, Note_on_c, 4, 62, 92
6, 6528, Note_on_c, 4, 67, 92
6, 6528, Note_on_c, 4, 71, 92
6, 6688, Note_on_c, 4, 62, 0
6, 6688, Note_on_c, 4, 67, 0
6, 6688, Note_on_c, 4, 71, 0
6, 6720, Note_on_c, 4, 71, 92
6, 6744, Note_on_c, 4, 71, 0
6, 6744, Note_on_c, 4, 72, 92
6, 6768, Note_on_c, 4, 72, 0
6, 6768, Note_on_c, 4, 74, 92
6, 6910, Note_on_c, 4, 74, 0
6, 6912, Note_on_c, 4, 74, 92
6, 6936, Note_on_c, 4, 74, 0
6, 6936, Note_on_c, 4, 76, 92
6, 6960, Note_on_c, 4, 76, 0
6, 6960, Note_on_c, 4, 77, 92
6, 7102, Note_on_c, 4, 77, 0
6, 7104, Note_on_c, 4, 67, 92
6, 7264, Note_on_c, 4, 67, 0
6, 7296, Note_on_c, 4, 67, 92
6, 7296, Note_on_c, 4, 74, 92
6, 7296, Note_on_c, 4, 77, 92
6, 7390, Note_on_c, 4, 77, 0
6, 7392, Note_on_c, 4, 76, 92
6, 7438, Note_on_c, 4, 76, 0
6, 7440, Note_on_c, 4, 74, 92
6, 7456, Note_on_c, 4, 67, 0
6, 7456, Note_on_c, 4, 74, 0
6, 7486, Note_on_c, 4, 74, 0
6, 7488, Note_on_c, 4, 65, 92
6, 7488, Note_on_c, 4, 67, 92
6, 7488, Note_on_c, 4, 74, 92
6, 7680, Note_on_c, 4, 65, 0
6, 7680, Note_on_c, 4, 67, 0
6, 7680, Note_on_c, 4, 74, 0
6, 7680, Note_on_c, 4, 64, 92
6, 7680, Note_on_c, 4, 67, 92
6, 7680, Note_on_c, 4, 72, 92
6, 7840, Note_on_c, 4, 64, 0
6, 7840, Note_on_c, 4, 67, 0
6, 7840, Note_on_c, 4, 72, 0
6, 7872, Note_on_c, 4, 72, 92
6, 7896, Note_on_c, 4, 72, 0
6, 7896, Note_on_c, 4, 74, 92
6, 7920, Note_on_c, 4, 74, 0
6, 7920, Note_on_c, 4, 76, 92
6, 8062, Note_on_c, 4, 76, 0
6, 8064, Note_on_c, 4, 76, 92
6, 8088, Note_on_c, 4, 76, 0
6, 8088, Note_on_c, 4, 77, 92
6, 8112, Note_on_c, 4, 77, 0
6, 8112, Note_on_c, 4, 79, 92
6, 8254, Note_on_c, 4, 79, 0
6, 8448, Note_on_c, 4, 81, 92
6, 8472, Note_on_c, 4, 81, 0
6, 8472, Note_on_c, 4, 83, 92
6, 8496, Note_on_c, 4, 83, 0
6, 8496, Note_on_c, 4, 84, 92
6, 8638, Note_on_c, 4, 84, 0
6, 8640, Note_on_c, 4, 74, 92
6, 8664, Note_on_c, 4, 74, 0
6, 8664, Note_on_c, 4, 76, 92
6, 8688, Note_on_c, 4, 76, 0
6, 8688, Note_on_c, 4, 77, 92
6, 8830, Note_on_c, 4, 77, 0
6, 9024, Note_on_c, 4, 79, 92
6, 9048, Note_on_c, 4, 79, 0
6, 9048, Note_on_c, 4, 81, 92
6, 9072, Note_on_c, 4, 81, 0
6, 9072, Note_on_c, 4, 83, 92
6, 9214, Note_on_c, 4, 83, 0
6, 9216, Note_on_c, 4, 72, 92
6, 9240, Note_on_c, 4, 72, 0
6, 9240, Note_on_c, 4, 74, 92
6, 9264, Note_on_c, 4, 74, 0
6, 9264, Note_on_c, 4, 76, 92
6, 9406, Note_on_c, 4, 76, 0
6, 9600, Note_on_c, 4, 77, 92
6, 9624, Note_on_c, 4, 77, 0
6, 9624, Note_on_c, 4, 79, 92
6, 9648, Note_on_c, 4, 79, 0
6, 9648, Note_on_c, 4, 81, 92
6, 9790, Note_on_c, 4, 81, 0
6, 9792, Note_on_c, 4, 62, 92
6, 9792, Note_on_c, 4, 67, 92
6, 9792, Note_on_c, 4, 71, 92
6, 9952, Note_on_c, 4, 62, 0
6, 9952, Note_on_c, 4, 67, 0
6, 9952, Note_on_c, 4, 71, 0
6, 9984, Note_on_c, 4, 83, 92
6, 10078, Note_on_c, 4, 83, 0
6, 10080, Note_on_c, 4, 81, 92
6, 10126, Note_on_c, 4, 81, 0
6, 10128, Note_on_c, 4, 79, 92
6, 10174, Note_on_c, 4, 79, 0
6, 10176, Note_on_c, 4, 84, 92
6, 10270, Note_on_c, 4, 84, 0
6, 10272, Note_on_c, 4, 79, 92
6, 10366, Note_on_c, 4, 79, 0
6, 10368, Note_on_c, 4, 77, 92
6, 10368, Note_on_c, 4, 79, 92
6, 10368, Note_on_c, 4, 86, 92
6, 10528, Note_on_c, 4, 77, 0
6, 10528, Note_on_c, 4, 79, 0
6, 10528, Note_on_c, 4, 86, 0
6, 10560, Note_on_c, 4, 67, 92
6, 10560, Note_on_c, 4, 74, 92
6, 10560, Note_on_c, 4, 77, 92
6, 10720, Note_on_c, 4, 67, 0
6, 10720, Note_on_c, 4, 74, 0
6, 10720, Note_on_c, 4, 77, 0
6, 10752, Note_on_c, 4, 67, 92
6, 10752, Note_on_c, 4, 72, 92
6, 10752, Note_on_c, 4, 76, 92
6, 10912, Note_on_c, 4, 67, 0
6, 10912, Note_on_c, 4, 72, 0
6, 10912, Note_on_c, 4, 76, 0
6, 10944, Note_on_c, 4, 67, 92
6, 10944, Note_on_c, 4, 71, 92
6, 10944, Note_on_c, 4, 74, 92
6, 11104, Note_on_c, 4, 67, 0
6, 11104, Note_on_c, 4, 71, 0
6, 11104, Note_on_c, 4, 74, 0
6, 11136, Note_on_c, 4, 83, 92
6, 11230, Note_on_c, 4, 83, 0
6, 11232, Note_on_c, 4, 81, 92
6, 11278, Note_on_c, 4, 81, 0
6, 11280, Note_on_c, 4, 79, 92
6, 11326, Note_on_c, 4, 79, 0
6, 11328, Note_on_c, 4, 84, 92
6, 11422, Note_on_c, 4, 84, 0
6, 11424, Note_on_c, 4, 79, 92
6, 11518, Note_on_c, 4, 79, 0
6, 11520, Note_on_c, 4, 77, 92
6, 11520, Note_on_c, 4, 79, 92
6, 11520, Note_on_c, 4, 86, 92
6, 11680, Note_on_c, 4, 77, 0
6, 11680, Note_on_c, 4, 79, 0
6, 11680, Note_on_c, 4, 86, 0
6, 11712, Note_on_c, 4, 67, 92
6, 11712, Note_on_c, 4, 74, 92
6, 11712, Note_on_c, 4, 77, 92
6, 11872, Note_on_c, 4, 67, 0
6, 11872, Note_on_c, 4, 74, 0
6, 11872, Note_on_c, 4, 77, 0
6, 11904, Note_on_c, 4, 67, 92
6, 11904, Note_on_c, 4, 72, 92
6, 11904, Note_on_c, 4, 76, 92
6, 12064, Note_on_c, 4, 67, 0
6, 12064, Note_on_c, 4, 72, 0
6, 12064, Note_on_c, 4, 76, 0
6, 12096, Note_on_c, 4, 67, 92
6, 12096, Note_on_c, 4, 71, 92
6, 12096, Note_on_c, 4, 74, 92
6, 12256, Note_on_c, 4, 67, 0
6, 12256, Note_on_c, 4, 71, 0
6, 12256, Note_on_c, 4, 74, 0
6, 12288, Note_on_c, 4, 83, 92
6, 12382, Note_on_c, 4, 83, 0
6, 12384, Note_on_c, 4, 81, 92
6, 12430, Note_on_c, 4, 81, 0
6, 12432, Note_on_c, 4, 79, 92
6, 12478, Note_on_c, 4, 79, 0
6, 12480, Note_on_c, 4, 84, 92
6, 12574, Note_on_c, 4, 84, 0
6, 12576, Note_on_c, 4, 79, 92
6, 12670, Note_on_c, 4, 79, 0
6, 12672, Note_on_c, 4, 79, 92
6, 12766, Note_on_c, 4, 79, 0
6, 12768, Note_on_c, 4, 78, 92
6, 12814, Note_on_c, 4, 78, 0
6, 12816, Note_on_c, 4, 79, 92
6, 12862, Note_on_c, 4, 79, 0
6, 12864, Note_on_c, 4, 76, 92
6, 12958, Note_on_c, 4, 76, 0
6, 12960, Note_on_c, 4, 75, 92
6, 13006, Note_on_c, 4, 75, 0
6, 13008, Note_on_c, 4, 76, 92
6, 13054, Note_on_c, 4, 76, 0
6, 13056, Note_on_c, 4, 72, 92
6, 13150, Note_on_c, 4, 72, 0
6, 13152, Note_on_c, 4, 71, 92
6, 13198, Note_on_c, 4, 71, 0
6, 13200, Note_on_c, 4, 72, 92
6, 13246, Note_on_c, 4, 72, 0
6, 13248, Note_on_c, 4, 67, 92
6, 13390, Note_on_c, 4, 67, 0
6, 13392, Note_on_c, 4, 67, 92
6, 13438, Note_on_c, 4, 67, 0
6, 13440, Note_on_c, 4, 79, 92
6, 13582, Note_on_c, 4, 79, 0
6, 13584, Note_on_c, 4, 79, 92
6, 13630, Note_on_c, 4, 79, 0
6, 13632, Note_on_c, 4, 76, 92
6, 13774, Note_on_c, 4, 76, 0
6, 13776, Note_on_c, 4, 76, 92
6, 13822, Note_on_c, 4, 76, 0
6, 13824, Note_on_c, 4, 73, 92
6, 13966, Note_on_c, 4, 73, 0
6, 13968, Note_on_c, 4, 73, 92
6, 14014, Note_on_c, 4, 73, 0
6, 14016, Note_on_c, 4, 76, 92
6, 14158, Note_on_c, 4, 76, 0
6, 14160, Note_on_c, 4, 76, 92
6, 14206, Note_on_c, 4, 76, 0
6, 14208, Note_on_c, 4, 70, 92
6, 14350, Note_on_c, 4, 70, 0
6, 14352, Note_on_c, 4, 70, 92
6, 14398, Note_on_c, 4, 70, 0
6, 14400, Note_on_c, 4, 69, 92
6, 14432, Note_on_c, 4, 69, 0
6, 14496, Note_on_c, 4, 81, 92
6, 14528, Note_on_c, 4, 81, 0
6, 14592, Note_on_c, 4, 79, 92
6, 14592, Note_on_c, 4, 81, 92
6, 14624, Note_on_c, 4, 79, 0
6, 14624, Note_on_c, 4, 81, 0
6, 14688, Note_on_c, 4, 77, 92
6, 14688, Note_on_c, 4, 81, 92
6, 14720, Note_on_c, 4, 77, 0
6, 14720, Note_on_c, 4, 81, 0
6, 14784, Note_on_c, 4, 76, 92
6, 14784, Note_on_c, 4, 81, 92
6, 14816, Note_on_c, 4, 76, 0
6, 14816, Note_on_c, 4, 81, 0
6, 14880, Note_on_c, 4, 74, 92
6, 14880, Note_on_c, 4, 81, 92
6, 14912, Note_on_c, 4, 74, 0
6, 14912, Note_on_c, 4, 81, 0
6, 14976, Note_on_c, 4, 73, 92
6, 14976, Note_on_c, 4, 81, 92
6, 15008, Note_on_c, 4, 73, 0
6, 15008, Note_on_c, 4, 81, 0
6, 15072, Note_on_c, 4, 74, 92
6, 15072, Note_on_c, 4, 81, 92
6, 15104, Note_on_c, 4, 74, 0
6, 15104, Note_on_c, 4, 81, 0
6, 15168, Note_on_c, 4, 73, 92
6, 15168, Note_on_c, 4, 81, 92
6, 15200, Note_on_c, 4, 73, 0
6, 15200, Note_on_c, 4, 81, 0
6, 15264, Note_on_c, 4, 70, 92
6, 15264, Note_on_c, 4, 81, 92
6, 15296, Note_on_c, 4, 70, 0
6, 15296, Note_on_c, 4, 81, 0
6, 15360, Note_on_c, 4, 81, 92
6, 15504, Note_on_c, 4, 81, 0
6, 15504, Note_on_c, 4, 83, 92
6, 15528, Note_on_c, 4, 83, 0
6, 15528, Note_on_c, 4, 85, 92
6, 15552, Note_on_c, 4, 85, 0
6, 15552, Note_on_c, 4, 77, 92
6, 15552, Note_on_c, 4, 86, 92
6, 15646, Note_on_c, 4, 77, 0
6, 15646, Note_on_c, 4, 86, 0
6, 15648, Note_on_c, 4, 81, 92
6, 15680, Note_on_c, 4, 81, 0
6, 15744, Note_on_c, 4, 79, 92
6, 15744, Note_on_c, 4, 81, 92
6, 15776, Note_on_c, 4, 79, 0
6, 15776, Note_on_c, 4, 81, 0
6, 15840, Note_on_c, 4, 77, 92
6, 15840, Note_on_c, 4, 81, 92
6, 15872, Note_on_c, 4, 77, 0
6, 15872, Note_on_c, 4, 81, 0
6, 15936, Note_on_c, 4, 76, 92
6, 15936, Note_on_c, 4, 81, 92
6, 15968, Note_on_c, 4, 76, 0
6, 15968, Note_on_c, 4, 81, 0
6, 16032, Note_on_c, 4, 74, 92
6, 16032, Note_on_c, 4, 81, 92
6, 16064, Note_on_c, 4, 74, 0
6, 16064, Note_on_c, 4, 81, 0
6, 16128, Note_on_c, 4, 73, 92
6, 16128, Note_on_c, 4, 81, 92
6, 16160, Note_on_c, 4, 73, 0
6, 16160, Note_on_c, 4, 81, 0
6, 16224, Note_on_c, 4, 74, 92
6, 16224, Note_on_c, 4, 81, 92
6, 16256, Note_on_c, 4, 74, 0
6, 16256, Note_on_c, 4, 81, 0
6, 16320, Note_on_c, 4, 73, 92
6, 16320, Note_on_c, 4, 81, 92
6, 16352, Note_on_c, 4, 73, 0
6, 16352, Note_on_c, 4, 81, 0
6, 16416, Note_on_c, 4, 70, 92
6, 16416, Note_on_c, 4, 81, 92
6, 16448, Note_on_c, 4, 70, 0
6, 16448, Note_on_c, 4, 81, 0
6, 16512, Note_on_c, 4, 81, 92
6, 16656, Note_on_c, 4, 81, 0
6, 16656, Note_on_c, 4, 83, 92
6, 16680, Note_on_c, 4, 83, 0
6, 16680, Note_on_c, 4, 85, 92
6, 16704, Note_on_c, 4, 85, 0
6, 16704, Note_on_c, 4, 77, 92
6, 16704, Note_on_c, 4, 86, 92
6, 16864, Note_on_c, 4, 77, 0
6, 16864, Note_on_c, 4, 86, 0
6, 16896, Note_on_c, 4, 77, 92
6, 17038, Note_on_c, 4, 77, 0
6, 17040, Note_on_c, 4, 77, 92
6, 17086, Note_on_c, 4, 77, 0
6, 17088, Note_on_c, 4, 74, 92
6, 17230, Note_on_c, 4, 74, 0
6, 17232, Note_on_c, 4, 74, 92
6, 17278, Note_on_c, 4, 74, 0
6, 17280, Note_on_c, 4, 71, 92
6, 17422, Note_on_c, 4, 71, 0
6, 17424, Note_on_c, 4, 71, 92
6, 17470, Note_on_c, 4, 71, 0
6, 17472, Note_on_c, 4, 74, 92
6, 17614, Note_on_c, 4, 74, 0
6, 17616, Note_on_c, 4, 74, 92
6, 17662, Note_on_c, 4, 74, 0
6, 17664, Note_on_c, 4, 68, 92
6, 17806, Note_on_c, 4, 68, 0
6, 17808, Note_on_c, 4, 68, 92
6, 17854, Note_on_c, 4, 68, 0
6, 17856, Note_on_c, 4, 67, 92
6, 17888, Note_on_c, 4, 67, 0
6, 17952, Note_on_c, 4, 79, 92
6, 17984, Note_on_c, 4, 79, 0
6, 18048, Note_on_c, 4, 77, 92
6, 18048, Note_on_c, 4, 79, 92
6, 18080, Note_on_c, 4, 77, 0
6, 18080, Note_on_c, 4, 79, 0
6, 18144, Note_on_c, 4, 76, 92
6, 18144, Note_on_c, 4, 79, 92
6, 18176, Note_on_c, 4, 76, 0
6, 18176, Note_on_c, 4, 79, 0
6, 18240, Note_on_c, 4, 74, 92
6, 18240, Note_on_c, 4, 79, 92
6, 18272, Note_on_c, 4, 74, 0
6, 18272, Note_on_c, 4, 79, 0
6, 18336, Note_on_c, 4, 72, 92
6, 18336, Note_on_c, 4, 79, 92
6, 18368, Note_on_c, 4, 72, 0
6, 18368, Note_on_c, 4, 79, 0
6, 18432, Note_on_c, 4, 71, 92
6, 18432, Note_on_c, 4, 79, 92
6, 18464, Note_on_c, 4, 71, 0
6, 18464, Note_on_c, 4, 79, 0
6, 18528, Note_on_c, 4, 72, 92
6, 18528, Note_on_c, 4, 79, 92
6, 18560, Note_on_c, 4, 72, 0
6, 18560, Note_on_c, 4, 79, 0
6, 18624, Note_on_c, 4, 71, 92
6, 18624, Note_on_c, 4, 79, 92
6, 18656, Note_on_c, 4, 71, 0
6, 18656, Note_on_c, 4, 79, 0
6, 18720, Note_on_c, 4, 69, 92
6, 18720, Note_on_c, 4, 79, 92
6, 18752, Note_on_c, 4, 69, 0
6, 18752, Note_on_c, 4, 79, 0
6, 18816, Note_on_c, 4, 79, 92
6, 18958, Note_on_c, 4, 79, 0
6, 18960, Note_on_c, 4, 81, 92
6, 18982, Note_on_c, 4, 81, 0
6, 18984, Note_on_c, 4, 83, 92
6, 19006, Note_on_c, 4, 83, 0
6, 19008, Note_on_c, 4, 76, 92
6, 19008, Note_on_c, 4, 84, 92
6, 19102, Note_on_c, 4, 76, 0
6, 19102, Note_on_c, 4, 84, 0
6, 19104, Note_on_c, 4, 79, 92
6, 19136, Note_on_c, 4, 79, 0
6, 19200, Note_on_c, 4, 77, 92
6, 19200, Note_on_c, 4, 79, 92
6, 19232, Note_on_c, 4, 77, 0
6, 19232, Note_on_c, 4, 79, 0
6, 19296, Note_on_c, 4, 76, 92
6, 19296, Note_on_c, 4, 79, 92
6, 19328, Note_on_c, 4, 76, 0
6, 19328, Note_on_c, 4, 79, 0
6, 19392, Note_on_c, 4, 74, 92
6, 19392, Note_on_c, 4, 79, 92
6, 19424, Note_on_c, 4, 74, 0
6, 19424, Note_on_c, 4, 79, 0
6, 19488, Note_on_c, 4, 72, 92
6, 19488, Note_on_c, 4, 79, 92
6, 19520, Note_on_c, 4, 72, 0
6, 19520, Note_on_c, 4, 79, 0
6, 19584, Note_on_c, 4, 71, 92
6, 19584, Note_on_c, 4, 79, 92
6, 19616, Note_on_c, 4, 71, 0
6, 19616, Note_on_c, 4, 79, 0
6, 19680, Note_on_c, 4, 72, 92
6, 19680, Note_on_c, 4, 79, 92
6, 19712, Note_on_c, 4, 72, 0
6, 19712, Note_on_c, 4, 79, 0
6, 19776, Note_on_c, 4, 71, 92
6, 19776, Note_on_c, 4, 79, 92
6, 19808, Note_on_c, 4, 71, 0
6, 19808, Note_on_c, 4, 79, 0
6, 19872, Note_on_c, 4, 69, 92
6, 19872, Note_on_c, 4, 79, 92
6, 19904, Note_on_c, 4, 69, 0
6, 19904, Note_on_c, 4, 79, 0
6, 19968, Note_on_c, 4, 79, 92
6, 20112, Note_on_c, 4, 79, 0
6, 20112, Note_on_c, 4, 81, 92
6, 20136, Note_on_c, 4, 81, 0
6, 20136, Note_on_c, 4, 83, 92
6, 20160, Note_on_c, 4, 83, 0
6, 20160, Note_on_c, 4, 76, 92
6, 20160, Note_on_c, 4, 84, 92
6, 20254, Note_on_c, 4, 76, 0
6, 20254, Note_on_c, 4, 84, 0
6, 20256, Note_on_c, 4, 67, 92
6, 20256, Note_on_c, 4, 76, 92
6, 20416, Note_on_c, 4, 67, 0
6, 20416, Note_on_c, 4, 76, 0
6, 20448, Note_on_c, 4, 67, 92
6, 20448, Note_on_c, 4, 76, 92
6, 20608, Note_on_c, 4, 67, 0
6, 20608, Note_on_c, 4, 76, 0
6, 20640, Note_on_c, 4, 67, 92
6, 20640, Note_on_c, 4, 76, 92
6, 20734, Note_on_c, 4, 67, 0
6, 20734, Note_on_c, 4, 76, 0
6, 20736, Note_on_c, 4, 66, 92
6, 20736, Note_on_c, 4, 75, 92
6, 20830, Note_on_c, 4, 66, 0
6, 20830, Note_on_c, 4, 75, 0
6, 20832, Note_on_c, 4, 66, 92
6, 20832, Note_on_c, 4, 75, 92
6, 20992, Note_on_c, 4, 66, 0
6, 20992, Note_on_c, 4, 75, 0
6, 21024, Note_on_c, 4, 66, 92
6, 21024, Note_on_c, 4, 75, 92
6, 21184, Note_on_c, 4, 66, 0
6, 21184, Note_on_c, 4, 75, 0
6, 21216, Note_on_c, 4, 66, 92
6, 21216, Note_on_c, 4, 75, 92
6, 21310, Note_on_c, 4, 66, 0
6, 21310, Note_on_c, 4, 75, 0
6, 21312, Note_on_c, 4, 76, 92
6, 21406, Note_on_c, 4, 76, 0
6, 21408, Note_on_c, 4, 71, 92
6, 21454, Note_on_c, 4, 71, 0
6, 21456, Note_on_c, 4, 76, 92
6, 21502, Note_on_c, 4, 76, 0
6, 21504, Note_on_c, 4, 79, 92
6, 21598, Note_on_c, 4, 79, 0
6, 21600, Note_on_c, 4, 76, 92
6, 21646, Note_on_c, 4, 76, 0
6, 21648, Note_on_c, 4, 79, 92
6, 21694, Note_on_c, 4, 79, 0
6, 21696, Note_on_c, 4, 83, 92
6, 21790, Note_on_c, 4, 83, 0
6, 21792, Note_on_c, 4, 83, 92
6, 21886, Note_on_c, 4, 83, 0
6, 21888, Note_on_c, 4, 64, 92
6, 21888, Note_on_c, 4, 67, 92
6, 21888, Note_on_c, 4, 73, 92
6, 21982, Note_on_c, 4, 64, 0
6, 21982, Note_on_c, 4, 67, 0
6, 21982, Note_on_c, 4, 73, 0
6, 21984, Note_on_c, 4, 64, 92
6, 21984, Note_on_c, 4, 67, 92
6, 21984, Note_on_c, 4, 73, 92
6, 22144, Note_on_c, 4, 64, 0
6, 22144, Note_on_c, 4, 67, 0
6, 22144, Note_on_c, 4, 73, 0
6, 22176, Note_on_c, 4, 64, 92
6, 22176, Note_on_c, 4, 67, 92
6, 22176, Note_on_c, 4, 73, 92
6, 22336, Note_on_c, 4, 64, 0
6, 22336, Note_on_c, 4, 67, 0
6, 22336, Note_on_c, 4, 73, 0
6, 22368, Note_on_c, 4, 64, 92
6, 22368, Note_on_c, 4, 67, 92
6, 22368, Note_on_c, 4, 73, 92
6, 22462, Note_on_c, 4, 64, 0
6, 22462, Note_on_c, 4, 67, 0
6, 22462, Note_on_c, 4, 73, 0
6, 22464, Note_on_c, 4, 74, 92
6, 22558, Note_on_c, 4, 74, 0
6, 22560, Note_on_c, 4, 69, 92
6, 22606, Note_on_c, 4, 69, 0
6, 22608, Note_on_c, 4, 74, 92
6, 22654, Note_on_c, 4, 74, 0
6, 22656, Note_on_c, 4, 77, 92
6, 22750, Note_on_c, 4, 77, 0
6, 22752, Note_on_c, 4, 74, 92
6, 22798, Note_on_c, 4, 74, 0
6, 22800, Note_on_c, 4, 77, 92
6, 22846, Note_on_c, 4, 77, 0
6, 22848, Note_on_c, 4, 81, 92
6, 22942, Note_on_c, 4, 81, 0
6, 22944, Note_on_c, 4, 81, 92
6, 23038, Note_on_c, 4, 81, 0
6, 23040, Note_on_c, 4, 62, 92
6, 23040, Note_on_c, 4, 65, 92
6, 23040, Note_on_c, 4, 71, 92
6, 23134, Note_on_c, 4, 62, 0
6, 23134, Note_on_c, 4, 65, 0
6, 23134, Note_on_c, 4, 71, 0
6, 23136, Note_on_c, 4, 62, 92
6, 23136, Note_on_c, 4, 65, 92
6, 23136, Note_on_c, 4, 71, 92
6, 23296, Note_on_c, 4, 62, 0
6, 23296, Note_on_c, 4, 65, 0
6, 23296, Note_on_c, 4, 71, 0
6, 23328, Note_on_c, 4, 62, 92
6, 23328, Note_on_c, 4, 65, 92
6, 23328, Note_on_c, 4, 71, 92
6, 23488, Note_on_c, 4, 62, 0
6, 23488, Note_on_c, 4, 65, 0
6, 23488, Note_on_c, 4, 71, 0
6, 23520, Note_on_c, 4, 62, 92
6, 23520, Note_on_c, 4, 65, 92
6, 23520, Note_on_c, 4, 71, 92
6, 23614, Note_on_c, 4, 62, 0
6, 23614, Note_on_c, 4, 65, 0
6, 23614, Note_on_c, 4, 71, 0
6, 23616, Note_on_c, 4, 72, 92
6, 23710, Note_on_c, 4, 72, 0
6, 23712, Note_on_c, 4, 67, 92
6, 23758, Note_on_c, 4, 67, 0
6, 23760, Note_on_c, 4, 72, 92
6, 23806, Note_on_c, 4, 72, 0
6, 23808, Note_on_c, 4, 75, 92
6, 23902, Note_on_c, 4, 75, 0
6, 23904, Note_on_c, 4, 72, 92
6, 23950, Note_on_c, 4, 72, 0
6, 23952, Note_on_c, 4, 75, 92
6, 23998, Note_on_c, 4, 75, 0
6, 24000, Note_on_c, 4, 79, 92
6, 24094, Note_on_c, 4, 79, 0
6, 24096, Note_on_c, 4, 79, 92
6, 24190, Note_on_c, 4, 79, 0
6, 24192, Note_on_c, 4, 69, 92
6, 24192, Note_on_c, 4, 74, 92
6, 24192, Note_on_c, 4, 78, 92
6, 24286, Note_on_c, 4, 69, 0
6, 24286, Note_on_c, 4, 74, 0
6, 24286, Note_on_c, 4, 78, 0
6, 24288, Note_on_c, 4, 69, 92
6, 24288, Note_on_c, 4, 74, 92
6, 24288, Note_on_c, 4, 78, 92
6, 24448, Note_on_c, 4, 69, 0
6, 24448, Note_on_c, 4, 74, 0
6, 24448, Note_on_c, 4, 78, 0
6, 24480, Note_on_c, 4, 69, 92
6, 24480, Note_on_c, 4, 74, 92
6, 24480, Note_on_c, 4, 78, 92
6, 24640, Note_on_c, 4, 69, 0
6, 24640, Note_on_c, 4, 74, 0
6, 24640, Note_on_c, 4, 78, 0
6, 24672, Note_on_c, 4, 69, 92
6, 24672, Note_on_c, 4, 74, 92
6, 24672, Note_on_c, 4, 78, 92
6, 24766, Note_on_c, 4, 69, 0
6, 24766, Note_on_c, 4, 74, 0
6, 24766, Note_on_c, 4, 78, 0
6, 24768, Note_on_c, 4, 66, 92
6, 24768, Note_on_c, 4, 72, 92
6, 24768, Note_on_c, 4, 76, 92
6, 24862, Note_on_c, 4, 66, 0
6, 24862, Note_on_c, 4, 72, 0
6, 24862, Note_on_c, 4, 76, 0
6, 24864, Note_on_c, 4, 66, 92
6, 24864, Note_on_c, 4, 72, 92
6, 24864, Note_on_c, 4, 76, 92
6, 25024, Note_on_c, 4, 66, 0
6, 25024, Note_on_c, 4, 72, 0
6, 25024, Note_on_c, 4, 76, 0
6, 25056, Note_on_c, 4, 66, 92
6, 25056, Note_on_c, 4, 72, 92
6, 25056, Note_on_c, 4, 76, 92
6, 25216, Note_on_c, 4, 66, 0
6, 25216, Note_on_c, 4, 72, 0
6, 25216, Note_on_c, 4, 76, 0
6, 25248, Note_on_c, 4, 66, 92
6, 25248, Note_on_c, 4, 72, 92
6, 25248, Note_on_c, 4, 76, 92
6, 25342, Note_on_c, 4, 66, 0
6, 25342, Note_on_c, 4, 72, 0
6, 25342, Note_on_c, 4, 76, 0
6, 25344, Note_on_c, 4, 67, 92
6, 25344, Note_on_c, 4, 71, 92
6, 25344, Note_on_c, 4, 74, 92
6, 25438, Note_on_c, 4, 67, 0
6, 25438, Note_on_c, 4, 71, 0
6, 25438, Note_on_c, 4, 74, 0
6, 25440, Note_on_c, 4, 76, 92
6, 25486, Note_on_c, 4, 76, 0
6, 25488, Note_on_c, 4, 78, 92
6, 25534, Note_on_c, 4, 78, 0
6, 25536, Note_on_c, 4, 79, 92
6, 25582, Note_on_c, 4, 79, 0
6, 25584, Note_on_c, 4, 81, 92
6, 25630, Note_on_c, 4, 81, 0
6, 25632, Note_on_c, 4, 83, 92
6, 25678, Note_on_c, 4, 83, 0
6, 25680, Note_on_c, 4, 84, 92
6, 25726, Note_on_c, 4, 84, 0
6, 25728, Note_on_c, 4, 83, 92
6, 25728, Note_on_c, 4, 86, 92
6, 25888, Note_on_c, 4, 83, 0
6, 25888, Note_on_c, 4, 86, 0
6, 25920, Note_on_c, 4, 69, 92
6, 25920, Note_on_c, 4, 72, 92
6, 26014, Note_on_c, 4, 69, 0
6, 26014, Note_on_c, 4, 72, 0
6, 26016, Note_on_c, 4, 74, 92
6, 26062, Note_on_c, 4, 74, 0
6, 26064, Note_on_c, 4, 76, 92
6, 26110, Note_on_c, 4, 76, 0
6, 26112, Note_on_c, 4, 78, 92
6, 26158, Note_on_c, 4, 78, 0
6, 26160, Note_on_c, 4, 79, 92
6, 26206, Note_on_c, 4, 79, 0
6, 26208, Note_on_c, 4, 81, 92
6, 26254, Note_on_c, 4, 81, 0
6, 26256, Note_on_c, 4, 83, 92
6, 26302, Note_on_c, 4, 83, 0
6, 26304, Note_on_c, 4, 81, 92
6, 26304, Note_on_c, 4, 84, 92
6, 26464, Note_on_c, 4, 81, 0
6, 26464, Note_on_c, 4, 84, 0
6, 26496, Note_on_c, 4, 67, 92
6, 26496, Note_on_c, 4, 71, 92
6, 26590, Note_on_c, 4, 67, 0
6, 26590, Note_on_c, 4, 71, 0
6, 26592, Note_on_c, 4, 72, 92
6, 26638, Note_on_c, 4, 72, 0
6, 26640, Note_on_c, 4, 74, 92
6, 26686, Note_on_c, 4, 74, 0
6, 26688, Note_on_c, 4, 76, 92
6, 26734, Note_on_c, 4, 76, 0
6, 26736, Note_on_c, 4, 78, 92
6, 26782, Note_on_c, 4, 78, 0
6, 26784, Note_on_c, 4, 79, 92
6, 26830, Note_on_c, 4, 79, 0
6, 26832, Note_on_c, 4, 81, 92
6, 26878, Note_on_c, 4, 81, 0
6, 26880, Note_on_c, 4, 79, 92
6, 26880, Note_on_c, 4, 83, 92
6, 27040, Note_on_c, 4, 79, 0
6, 27040, Note_on_c, 4, 83, 0
6, 27072, Note_on_c, 4, 67, 92
6, 27072, Note_on_c, 4, 71, 92
6, 27166, Note_on_c, 4, 67, 0
6, 27166, Note_on_c, 4, 71, 0
6, 27168, Note_on_c, 4, 72, 92
6, 27214, Note_on_c, 4, 72, 0
6, 27216, Note_on_c, 4, 74, 92
6, 27262, Note_on_c, 4, 74, 0
6, 27264, Note_on_c, 4, 76, 92
6, 27310, Note_on_c, 4, 76, 0
6, 27312, Note_on_c, 4, 78, 92
6, 27358, Note_on_c, 4, 78, 0
6, 27360, Note_on_c, 4, 79, 92
6, 27406, Note_on_c, 4, 79, 0
6, 27408, Note_on_c, 4, 81, 92
6, 27454, Note_on_c, 4, 81, 0
6, 27456, Note_on_c, 4, 79, 92
6, 27456, Note_on_c, 4, 83, 92
6, 27616, Note_on_c, 4, 79, 0
6, 27616, Note_on_c, 4, 83, 0
6, 27648, Note_on_c, 4, 72, 92
6, 27742, Note_on_c, 4, 72, 0
6, 27744, Note_on_c, 4, 81, 92
6, 27838, Note_on_c, 4, 81, 0
6, 27840, Note_on_c, 4, 71, 92
6, 27934, Note_on_c, 4, 71, 0
6, 27936, Note_on_c, 4, 79, 92
6, 28030, Note_on_c, 4, 79, 0
6, 28032, Note_on_c, 4, 69, 92
6, 28126, Note_on_c, 4, 69, 0
6, 28128, Note_on_c, 4, 78, 92
6, 28222, Note_on_c, 4, 78, 0
6, 28224, Note_on_c, 4, 67, 92
6, 28224, Note_on_c, 4, 74, 92
6, 28224, Note_on_c, 4, 79, 92
6, 28384, Note_on_c, 4, 67, 0
6, 28384, Note_on_c, 4, 74, 0
6, 28384, Note_on_c, 4, 79, 0
6, 28416, Note_on_c, 4, 55, 92
6, 28448, Note_on_c, 4, 55, 0
6, 28512, Note_on_c, 4, 57, 92
6, 28544, Note_on_c, 4, 57, 0
6, 28560, Note_on_c, 4, 59, 92
6, 28592, Note_on_c, 4, 59, 0
6, 28608, Note_on_c, 4, 60, 92
6, 28640, Note_on_c, 4, 60, 0
6, 28656, Note_on_c, 4, 62, 92
6, 28688, Note_on_c, 4, 62, 0
6, 28704, Note_on_c, 4, 64, 92
6, 28736, Note_on_c, 4, 64, 0
6, 28752, Note_on_c, 4, 66, 92
6, 28784, Note_on_c, 4, 66, 0
6, 28800, Note_on_c, 4, 67, 92
6, 28832, Note_on_c, 4, 67, 0
6, 28896, Note_on_c, 4, 79, 92
6, 28928, Note_on_c, 4, 79, 0
6, 28992, Note_on_c, 4, 79, 92
6, 29024, Note_on_c, 4, 79, 0
6, 29088, Note_on_c, 4, 79, 92
6, 29120, Note_on_c, 4, 79, 0
6, 29184, Note_on_c, 4, 79, 92
6, 29278, Note_on_c, 4, 79, 0
6, 29280, Note_on_c, 4, 78, 92
6, 29326, Note_on_c, 4, 78, 0
6, 29328, Note_on_c, 4, 79, 92
6, 29374, Note_on_c, 4, 79, 0
6, 29376, Note_on_c, 4, 71, 92
6, 29408, Note_on_c, 4, 71, 0
6, 29472, Note_on_c, 4, 71, 92
6, 29504, Note_on_c, 4, 71, 0
6, 29568, Note_on_c, 4, 71, 92
6, 29600, Note_on_c, 4, 71, 0
6, 29664, Note_on_c, 4, 71, 92
6, 29696, Note_on_c, 4, 71, 0
6, 29760, Note_on_c, 4, 76, 92
6, 29792, Note_on_c, 4, 76, 0
6, 29856, Note_on_c, 4, 76, 92
6, 29888, Note_on_c, 4, 76, 0
6, 29952, Note_on_c, 4, 73, 92
6, 29984, Note_on_c, 4, 73, 0
6, 30048, Note_on_c, 4, 61, 92
6, 30080, Note_on_c, 4, 61, 0
6, 30144, Note_on_c, 4, 61, 92
6, 30176, Note_on_c, 4, 61, 0
6, 30240, Note_on_c, 4, 61, 92
6, 30272, Note_on_c, 4, 61, 0
6, 30336, Note_on_c, 4, 61, 92
6, 30430, Note_on_c, 4, 61, 0
6, 30432, Note_on_c, 4, 59, 92
6, 30478, Note_on_c, 4, 59, 0
6, 30480, Note_on_c, 4, 61, 92
6, 30526, Note_on_c, 4, 61, 0
6, 30528, Note_on_c, 4, 62, 92
6, 30622, Note_on_c, 4, 62, 0
6, 30624, Note_on_c, 4, 62, 92
6, 30624, Note_on_c, 4, 65, 92
6, 30720, Note_on_c, 4, 62, 0
6, 30720, Note_on_c, 4, 65, 0
6, 30720, Note_on_c, 4, 64, 92
6, 30720, Note_on_c, 4, 67, 92
6, 30816, Note_on_c, 4, 64, 0
6, 30816, Note_on_c, 4, 67, 0
6, 30816, Note_on_c, 4, 65, 92
6, 30816, Note_on_c, 4, 69, 92
6, 30912, Note_on_c, 4, 65, 0
6, 30912, Note_on_c, 4, 69, 0
6, 30912, Note_on_c, 4, 67, 92
6, 30912, Note_on_c, 4, 71, 92
6, 31008, Note_on_c, 4, 67, 0
6, 31008, Note_on_c, 4, 71, 0
6, 31008, Note_on_c, 4, 69, 92
6, 31008, Note_on_c, 4, 72, 92
6, 31102, Note_on_c, 4, 69, 0
6, 31102, Note_on_c, 4, 72, 0
6, 31104, Note_on_c, 4, 71, 45
6, 31104, Note_on_c, 4, 74, 45
6, 31200, Note_on_c, 4, 71, 0
6, 31200, Note_on_c, 4, 74, 0
6, 31200, Note_on_c, 4, 67, 45
6, 31200, Note_on_c, 4, 71, 45
6, 31296, Note_on_c, 4, 67, 0
6, 31296, Note_on_c, 4, 71, 0
6, 31296, Note_on_c, 4, 71, 45
6, 31296, Note_on_c, 4, 79, 45
6, 31392, Note_on_c, 4, 71, 0
6, 31392, Note_on_c, 4, 79, 0
6, 31392, Note_on_c, 4, 74, 45
6, 31392, Note_on_c, 4, 78, 45
6, 31488, Note_on_c, 4, 74, 0
6, 31488, Note_on_c, 4, 78, 0
6, 31488, Note_on_c, 4, 72, 45
6, 31488, Note_on_c, 4, 76, 45
6, 31584, Note_on_c, 4, 72, 0
6, 31584, Note_on_c, 4, 76, 0
6, 31584, Note_on_c, 4, 71, 45
6, 31584, Note_on_c, 4, 74, 45
6, 31678, Note_on_c, 4, 71, 0
6, 31678, Note_on_c, 4, 74, 0
6, 31680, Note_on_c, 4, 71, 45
6, 31680, Note_on_c, 4, 74, 45
6, 31776, Note_on_c, 4, 71, 0
6, 31776, Note_on_c, 4, 74, 0
6, 31776, Note_on_c, 4, 69, 45
6, 31776, Note_on_c, 4, 72, 45
6, 31870, Note_on_c, 4, 69, 0
6, 31870, Note_on_c, 4, 72, 0
6, 31872, Note_on_c, 4, 81, 45
6, 31872, Note_on_c, 4, 84, 45
6, 31904, Note_on_c, 4, 81, 0
6, 31904, Note_on_c, 4, 84, 0
6, 31968, Note_on_c, 4, 79, 45
6, 31968, Note_on_c, 4, 83, 45
6, 32000, Note_on_c, 4, 79, 0
6, 32000, Note_on_c, 4, 83, 0
6, 32064, Note_on_c, 4, 78, 45
6, 32064, Note_on_c, 4, 81, 45
6, 32096, Note_on_c, 4, 78, 0
6, 32096, Note_on_c, 4, 81, 0
6, 32160, Note_on_c, 4, 76, 45
6, 32160, Note_on_c, 4, 79, 45
6, 32192, Note_on_c, 4, 76, 0
6, 32192, Note_on_c, 4, 79, 0
6, 32256, Note_on_c, 4, 74, 45
6, 32256, Note_on_c, 4, 78, 45
6, 32288, Note_on_c, 4, 74, 0
6, 32288, Note_on_c, 4, 78, 0
6, 32352, Note_on_c, 4, 76, 45
6, 32352, Note_on_c, 4, 79, 45
6, 32384, Note_on_c, 4, 76, 0
6, 32384, Note_on_c, 4, 79, 0
6, 32448, Note_on_c, 4, 74, 45
6, 32448, Note_on_c, 4, 78, 45
6, 32480, Note_on_c, 4, 74, 0
6, 32480, Note_on_c, 4, 78, 0
6, 32544, Note_on_c, 4, 72, 45
6, 32544, Note_on_c, 4, 76, 45
6, 32576, Note_on_c, 4, 72, 0
6, 32576, Note_on_c, 4, 76, 0
6, 32640, Note_on_c, 4, 71, 45
6, 32640, Note_on_c, 4, 74, 45
6, 32672, Note_on_c, 4, 71, 0
6, 32672, Note_on_c, 4, 74, 0
6, 32736, Note_on_c, 4, 69, 45
6, 32736, Note_on_c, 4, 72, 45
6, 32768, Note_on_c, 4, 69, 0
6, 32768, Note_on_c, 4, 72, 0
6, 32832, Note_on_c, 4, 69, 45
6, 32832, Note_on_c, 4, 72, 45
6, 32992, Note_on_c, 4, 69, 0
6, 32992, Note_on_c, 4, 72, 0
6, 33024, Note_on_c, 4, 67, 45
6, 33024, Note_on_c, 4, 71, 45
6, 33184, Note_on_c, 4, 67, 0
6, 33184, Note_on_c, 4, 71, 0
6, 33216, Note_on_c, 4, 79, 92
6, 33240, Note_on_c, 4, 79, 0
6, 33240, Note_on_c, 4, 81, 92
6, 33264, Note_on_c, 4, 81, 0
6, 33264, Note_on_c, 4, 83, 92
6, 33406, Note_on_c, 4, 83, 0
6, 33408, Note_on_c, 4, 83, 92
6, 33432, Note_on_c, 4, 83, 0
6, 33432, Note_on_c, 4, 84, 92
6, 33456, Note_on_c, 4, 84, 0
6, 33456, Note_on_c, 4, 86, 92
6, 33598, Note_on_c, 4, 86, 0
6, 33792, Note_on_c, 4, 83, 92
6, 33886, Note_on_c, 4, 83, 0
6, 33888, Note_on_c, 4, 81, 92
6, 33934, Note_on_c, 4, 81, 0
6, 33936, Note_on_c, 4, 79, 92
6, 33982, Note_on_c, 4, 79, 0
6, 33984, Note_on_c, 4, 71, 92
6, 33984, Note_on_c, 4, 79, 92
6, 34144, Note_on_c, 4, 71, 0
6, 34144, Note_on_c, 4, 79, 0
6, 34176, Note_on_c, 4, 69, 92
6, 34176, Note_on_c, 4, 78, 92
6, 34336, Note_on_c, 4, 69, 0
6, 34336, Note_on_c, 4, 78, 0
6, 34368, Note_on_c, 4, 78, 92
6, 34392, Note_on_c, 4, 78, 0
6, 34392, Note_on_c, 4, 79, 92
6, 34416, Note_on_c, 4, 79, 0
6, 34416, Note_on_c, 4, 81, 92
6, 34558, Note_on_c, 4, 81, 0
6, 34560, Note_on_c, 4, 81, 92
6, 34584, Note_on_c, 4, 81, 0
6, 34584, Note_on_c, 4, 83, 92
6, 34608, Note_on_c, 4, 83, 0
6, 34608, Note_on_c, 4, 84, 92
6, 34750, Note_on_c, 4, 84, 0
6, 34752, Note_on_c, 4, 72, 92
6, 34912, Note_on_c, 4, 72, 0
6, 34944, Note_on_c, 4, 72, 92
6, 34944, Note_on_c, 4, 84, 92
6, 35038, Note_on_c, 4, 84, 0
6, 35040, Note_on_c, 4, 83, 92
6, 35086, Note_on_c, 4, 83, 0
6, 35088, Note_on_c, 4, 81, 92
6, 35104, Note_on_c, 4, 72, 0
6, 35134, Note_on_c, 4, 81, 0
6, 35136, Note_on_c, 4, 72, 92
6, 35136, Note_on_c, 4, 81, 92
6, 35328, Note_on_c, 4, 72, 0
6, 35328, Note_on_c, 4, 81, 0
6, 35328, Note_on_c, 4, 71, 92
6, 35328, Note_on_c, 4, 79, 92
6, 35488, Note_on_c, 4, 71, 0
6, 35488, Note_on_c, 4, 79, 0
6, 35520, Note_on_c, 4, 79, 92
6, 35544, Note_on_c, 4, 79, 0
6, 35544, Note_on_c, 4, 81, 92
6, 35568, Note_on_c, 4, 81, 0
6, 35568, Note_on_c, 4, 83, 92
6, 35710, Note_on_c, 4, 83, 0
6, 35712, Note_on_c, 4, 83, 92
6, 35736, Note_on_c, 4, 83, 0
6, 35736, Note_on_c, 4, 84, 92
6, 35760, Note_on_c, 4, 84, 0
6, 35760, Note_on_c, 4, 86, 92
6, 35902, Note_on_c, 4, 86, 0
6, 36096, Note_on_c, 4, 79, 92
6, 36120, Note_on_c, 4, 79, 0
6, 36120, Note_on_c, 4, 81, 92
6, 36144, Note_on_c, 4, 81, 0
6, 36144, Note_on_c, 4, 83, 92
6, 36286, Note_on_c, 4, 83, 0
6, 36288, Note_on_c, 4, 83, 92
6, 36312, Note_on_c, 4, 83, 0
6, 36312, Note_on_c, 4, 84, 92
6, 36336, Note_on_c, 4, 84, 0
6, 36336, Note_on_c, 4, 86, 92
6, 36478, Note_on_c, 4, 86, 0
6, 36672, Note_on_c, 4, 79, 92
6, 36696, Note_on_c, 4, 79, 0
6, 36696, Note_on_c, 4, 81, 92
6, 36720, Note_on_c, 4, 81, 0
6, 36720, Note_on_c, 4, 83, 92
6, 36862, Note_on_c, 4, 83, 0
6, 36864, Note_on_c, 4, 83, 92
6, 36888, Note_on_c, 4, 83, 0
6, 36888, Note_on_c, 4, 84, 92
6, 36912, Note_on_c, 4, 84, 0
6, 36912, Note_on_c, 4, 86, 92
6, 37054, Note_on_c, 4, 86, 0
6, 37152, Note_on_c, 4, 76, 92
6, 37246, Note_on_c, 4, 76, 0
6, 37248, Note_on_c, 4, 69, 92
6, 37248, Note_on_c, 4, 72, 92
6, 37248, Note_on_c, 4, 76, 92
6, 37342, Note_on_c, 4, 69, 0
6, 37342, Note_on_c, 4, 72, 0
6, 37342, Note_on_c, 4, 76, 0
6, 37344, Note_on_c, 4, 67, 92
6, 37344, Note_on_c, 4, 71, 92
6, 37344, Note_on_c, 4, 76, 92
6, 37438, Note_on_c, 4, 67, 0
6, 37438, Note_on_c, 4, 71, 0
6, 37438, Note_on_c, 4, 76, 0
6, 37440, Note_on_c, 4, 72, 92
6, 37440, Note_on_c, 4, 78, 92
6, 37440, Note_on_c, 4, 81, 92
6, 37534, Note_on_c, 4, 72, 0
6, 37534, Note_on_c, 4, 78, 0
6, 37534, Note_on_c, 4, 81, 0
6, 37536, Note_on_c, 4, 72, 92
6, 37536, Note_on_c, 4, 78, 92
6, 37536, Note_on_c, 4, 81, 92
6, 37696, Note_on_c, 4, 72, 0
6, 37696, Note_on_c, 4, 78, 0
6, 37696, Note_on_c, 4, 81, 0
6, 37728, Note_on_c, 4, 72, 92
6, 37728, Note_on_c, 4, 78, 92
6, 37728, Note_on_c, 4, 81, 92
6, 37888, Note_on_c, 4, 72, 0
6, 37888, Note_on_c, 4, 78, 0
6, 37888, Note_on_c, 4, 81, 0
6, 37920, Note_on_c, 4, 72, 92
6, 37920, Note_on_c, 4, 78, 92
6, 37920, Note_on_c, 4, 81, 92
6, 38014, Note_on_c, 4, 72, 0
6, 38014, Note_on_c, 4, 78, 0
6, 38014, Note_on_c, 4, 81, 0
6, 38016, Note_on_c, 4, 71, 92
6, 38016, Note_on_c, 4, 76, 92
6, 38016, Note_on_c, 4, 80, 92
6, 38176, Note_on_c, 4, 71, 0
6, 38176, Note_on_c, 4, 76, 0
6, 38176, Note_on_c, 4, 80, 0
6, 38208, Note_on_c, 4, 64, 127
6, 38208, Note_on_c, 4, 76, 127
6, 38368, Note_on_c, 4, 64, 0
6, 38368, Note_on_c, 4, 76, 0
6, 38400, Note_on_c, 4, 64, 127
6, 38400, Note_on_c, 4, 76, 127
6, 38560, Note_on_c, 4, 64, 0
6, 38560, Note_on_c, 4, 76, 0
6, 38688, Note_on_c, 4, 76, 92
6, 38782, Note_on_c, 4, 76, 0
6, 38784, Note_on_c, 4, 74, 92
6, 38784, Note_on_c, 4, 76, 92
6, 38816, Note_on_c, 4, 74, 0
6, 38816, Note_on_c, 4, 76, 0
6, 38880, Note_on_c, 4, 72, 92
6, 38880, Note_on_c, 4, 76, 92
6, 38912, Note_on_c, 4, 72, 0
6, 38912, Note_on_c, 4, 76, 0
6, 38976, Note_on_c, 4, 71, 92
6, 38976, Note_on_c, 4, 76, 92
6, 39008, Note_on_c, 4, 71, 0
6, 39008, Note_on_c, 4, 76, 0
6, 39072, Note_on_c, 4, 69, 92
6, 39072, Note_on_c, 4, 76, 92
6, 39104, Note_on_c, 4, 69, 0
6, 39104, Note_on_c, 4, 76, 0
6, 39168, Note_on_c, 4, 68, 92
6, 39168, Note_on_c, 4, 76, 92
6, 39200, Note_on_c, 4, 68, 0
6, 39200, Note_on_c, 4, 76, 0
6, 39264, Note_on_c, 4, 69, 92
6, 39264, Note_on_c, 4, 76, 92
6, 39296, Note_on_c, 4, 69, 0
6, 39296, Note_on_c, 4, 76, 0
6, 39360, Note_on_c, 4, 68, 92
6, 39360, Note_on_c, 4, 76, 92
6, 39392, Note_on_c, 4, 68, 0
6, 39392, Note_on_c, 4, 76, 0
6, 39456, Note_on_c, 4, 65, 92
6, 39456, Note_on_c, 4, 76, 92
6, 39488, Note_on_c, 4, 65, 0
6, 39488, Note_on_c, 4, 76, 0
6, 39552, Note_on_c, 4, 76, 92
6, 39696, Note_on_c, 4, 76, 0
6, 39696, Note_on_c, 4, 78, 92
6, 39720, Note_on_c, 4, 78, 0
6, 39720, Note_on_c, 4, 80, 92
6, 39744, Note_on_c, 4, 80, 0
6, 39744, Note_on_c, 4, 72, 92
6, 39744, Note_on_c, 4, 81, 92
6, 39838, Note_on_c, 4, 72, 0
6, 39838, Note_on_c, 4, 81, 0
6, 39840, Note_on_c, 4, 76, 92
6, 39872, Note_on_c, 4, 76, 0
6, 39936, Note_on_c, 4, 74, 92
6, 39936, Note_on_c, 4, 76, 92
6, 39968, Note_on_c, 4, 74, 0
6, 39968, Note_on_c, 4, 76, 0
6, 40032, Note_on_c, 4, 72, 92
6, 40032, Note_on_c, 4, 76, 92
6, 40064, Note_on_c, 4, 72, 0
6, 40064, Note_on_c, 4, 76, 0
6, 40128, Note_on_c, 4, 71, 92
6, 40128, Note_on_c, 4, 76, 92
6, 40160, Note_on_c, 4, 71, 0
6, 40160, Note_on_c, 4, 76, 0
6, 40224, Note_on_c, 4, 69, 92
6, 40224, Note_on_c, 4, 76, 92
6, 40256, Note_on_c, 4, 69, 0
6, 40256, Note_on_c, 4, 76, 0
6, 40320, Note_on_c, 4, 68, 92
6, 40320, Note_on_c, 4, 76, 92
6, 40352, Note_on_c, 4, 68, 0
6, 40352, Note_on_c, 4, 76, 0
6, 40416, Note_on_c, 4, 69, 92
6, 40416, Note_on_c, 4, 76, 92
6, 40448, Note_on_c, 4, 69, 0
6, 40448, Note_on_c, 4, 76, 0
6, 40512, Note_on_c, 4, 68, 92
6, 40512, Note_on_c, 4, 76, 92
6, 40544, Note_on_c, 4, 68, 0
6, 40544, Note_on_c, 4, 76, 0
6, 40608, Note_on_c, 4, 65, 92
6, 40608, Note_on_c, 4, 76, 92
6, 40640, Note_on_c, 4, 65, 0
6, 40640, Note_on_c, 4, 76, 0
6, 40704, Note_on_c, 4, 76, 92
6, 40848, Note_on_c, 4, 76, 0
6, 40848, Note_on_c, 4, 78, 92
6, 40872, Note_on_c, 4, 78, 0
6, 40872, Note_on_c, 4, 80, 92
6, 40896, Note_on_c, 4, 80, 0
6, 40896, Note_on_c, 4, 72, 92
6, 40896, Note_on_c, 4, 81, 92
6, 40990, Note_on_c, 4, 72, 0
6, 40990, Note_on_c, 4, 81, 0
6, 40992, Note_on_c, 4, 69, 92
6, 41086, Note_on_c, 4, 69, 0
6, 41088, Note_on_c, 4, 69, 92
6, 41182, Note_on_c, 4, 69, 0
6, 41184, Note_on_c, 4, 69, 92
6, 41278, Note_on_c, 4, 69, 0
6, 41280, Note_on_c, 4, 69, 92
6, 41374, Note_on_c, 4, 69, 0
6, 41376, Note_on_c, 4, 68, 92
6, 41422, Note_on_c, 4, 68, 0
6, 41424, Note_on_c, 4, 69, 92
6, 41470, Note_on_c, 4, 69, 0
6, 41472, Note_on_c, 4, 64, 92
6, 41472, Note_on_c, 4, 77, 92
6, 41566, Note_on_c, 4, 64, 0
6, 41566, Note_on_c, 4, 77, 0
6, 41568, Note_on_c, 4, 64, 92
6, 41568, Note_on_c, 4, 77, 92
6, 41760, Note_on_c, 4, 64, 0
6, 41760, Note_on_c, 4, 77, 0
6, 41760, Note_on_c, 4, 64, 92
6, 41760, Note_on_c, 4, 76, 92
6, 41856, Note_on_c, 4, 64, 0
6, 41856, Note_on_c, 4, 76, 0
6, 41856, Note_on_c, 4, 65, 92
6, 41856, Note_on_c, 4, 77, 92
6, 41952, Note_on_c, 4, 65, 0
6, 41952, Note_on_c, 4, 77, 0
6, 41952, Note_on_c, 4, 64, 92
6, 41952, Note_on_c, 4, 76, 92
6, 42046, Note_on_c, 4, 64, 0
6, 42046, Note_on_c, 4, 76, 0
6, 42048, Note_on_c, 4, 64, 92
6, 42048, Note_on_c, 4, 77, 92
6, 42142, Note_on_c, 4, 64, 0
6, 42142, Note_on_c, 4, 77, 0
6, 42144, Note_on_c, 4, 64, 92
6, 42144, Note_on_c, 4, 77, 92
6, 42336, Note_on_c, 4, 64, 0
6, 42336, Note_on_c, 4, 77, 0
6, 42336, Note_on_c, 4, 64, 92
6, 42336, Note_on_c, 4, 76, 92
6, 42432, Note_on_c, 4, 64, 0
6, 42432, Note_on_c, 4, 76, 0
6, 42432, Note_on_c, 4, 65, 92
6, 42432, Note_on_c, 4, 77, 92
6, 42528, Note_on_c, 4, 65, 0
6, 42528, Note_on_c, 4, 77, 0
6, 42528, Note_on_c, 4, 64, 92
6, 42528, Note_on_c, 4, 76, 92
6, 42622, Note_on_c, 4, 64, 0
6, 42622, Note_on_c, 4, 76, 0
6, 42624, Note_on_c, 4, 65, 92
6, 42624, Note_on_c, 4, 77, 92
6, 42718, Note_on_c, 4, 65, 0
6, 42718, Note_on_c, 4, 77, 0
6, 42720, Note_on_c, 4, 65, 92
6, 42720, Note_on_c, 4, 77, 92
6, 42814, Note_on_c, 4, 65, 0
6, 42814, Note_on_c, 4, 77, 0
6, 42816, Note_on_c, 4, 65, 92
6, 42816, Note_on_c, 4, 77, 92
6, 42910, Note_on_c, 4, 65, 0
6, 42910, Note_on_c, 4, 77, 0
6, 42912, Note_on_c, 4, 65, 92
6, 42912, Note_on_c, 4, 77, 92
6, 43006, Note_on_c, 4, 65, 0
6, 43006, Note_on_c, 4, 77, 0
6, 43008, Note_on_c, 4, 64, 92
6, 43008, Note_on_c, 4, 76, 92
6, 43102, Note_on_c, 4, 64, 0
6, 43102, Note_on_c, 4, 76, 0
6, 43104, Note_on_c, 4, 64, 92
6, 43104, Note_on_c, 4, 76, 92
6, 43198, Note_on_c, 4, 64, 0
6, 43198, Note_on_c, 4, 76, 0
6, 43200, Note_on_c, 4, 63, 127
6, 43200, Note_on_c, 4, 75, 127
6, 43294, Note_on_c, 4, 63, 0
6, 43294, Note_on_c, 4, 75, 0
6, 43296, Note_on_c, 4, 66, 92
6, 43296, Note_on_c, 4, 69, 92
6, 43390, Note_on_c, 4, 66, 0
6, 43390, Note_on_c, 4, 69, 0
6, 43392, Note_on_c, 4, 63, 92
6, 43392, Note_on_c, 4, 75, 92
6, 43486, Note_on_c, 4, 63, 0
6, 43486, Note_on_c, 4, 75, 0
6, 43488, Note_on_c, 4, 66, 92
6, 43488, Note_on_c, 4, 69, 92
6, 43582, Note_on_c, 4, 66, 0
6, 43582, Note_on_c, 4, 69, 0
6, 43584, Note_on_c, 4, 63, 92
6, 43584, Note_on_c, 4, 75, 92
6, 43678, Note_on_c, 4, 63, 0
6, 43678, Note_on_c, 4, 75, 0
6, 43680, Note_on_c, 4, 66, 92
6, 43680, Note_on_c, 4, 69, 92
6, 43774, Note_on_c, 4, 66, 0
6, 43774, Note_on_c, 4, 69, 0
6, 43776, Note_on_c, 4, 62, 127
6, 43776, Note_on_c, 4, 74, 127
6, 43870, Note_on_c, 4, 62, 0
6, 43870, Note_on_c, 4, 74, 0
6, 43872, Note_on_c, 4, 65, 92
6, 43872, Note_on_c, 4, 71, 92
6, 43966, Note_on_c, 4, 65, 0
6, 43966, Note_on_c, 4, 71, 0
6, 43968, Note_on_c, 4, 62, 92
6, 43968, Note_on_c, 4, 74, 92
6, 44062, Note_on_c, 4, 62, 0
6, 44062, Note_on_c, 4, 74, 0
6, 44064, Note_on_c, 4, 65, 92
6, 44064, Note_on_c, 4, 71, 92
6, 44158, Note_on_c, 4, 65, 0
6, 44158, Note_on_c, 4, 71, 0
6, 44160, Note_on_c, 4, 62, 92
6, 44160, Note_on_c, 4, 74, 92
6, 44254, Note_on_c, 4, 62, 0
6, 44254, Note_on_c, 4, 74, 0
6, 44256, Note_on_c, 4, 65, 92
6, 44256, Note_on_c, 4, 71, 92
6, 44350, Note_on_c, 4, 65, 0
6, 44350, Note_on_c, 4, 71, 0
6, 44352, Note_on_c, 4, 61, 127
6, 44352, Note_on_c, 4, 73, 127
6, 44446, Note_on_c, 4, 61, 0
6, 44446, Note_on_c, 4, 73, 0
6, 44448, Note_on_c, 4, 64, 92
6, 44448, Note_on_c, 4, 67, 92
6, 44542, Note_on_c, 4, 64, 0
6, 44542, Note_on_c, 4, 67, 0
6, 44544, Note_on_c, 4, 61, 92
6, 44544, Note_on_c, 4, 73, 92
6, 44638, Note_on_c, 4, 61, 0
6, 44638, Note_on_c, 4, 73, 0
6, 44640, Note_on_c, 4, 64, 92
6, 44640, Note_on_c, 4, 67, 92
6, 44734, Note_on_c, 4, 64, 0
6, 44734, Note_on_c, 4, 67, 0
6, 44736, Note_on_c, 4, 61, 92
6, 44736, Note_on_c, 4, 73, 92
6, 44830, Note_on_c, 4, 61, 0
6, 44830, Note_on_c, 4, 73, 0
6, 44832, Note_on_c, 4, 64, 92
6, 44832, Note_on_c, 4, 67, 92
6, 44926, Note_on_c, 4, 64, 0
6, 44926, Note_on_c, 4, 67, 0
6, 44928, Note_on_c, 4, 60, 127
6, 44928, Note_on_c, 4, 72, 127
6, 45022, Note_on_c, 4, 60, 0
6, 45022, Note_on_c, 4, 72, 0
6, 45024, Note_on_c, 4, 63, 92
6, 45024, Note_on_c, 4, 69, 92
6, 45118, Note_on_c, 4, 63, 0
6, 45118, Note_on_c, 4, 69, 0
6, 45120, Note_on_c, 4, 60, 92
6, 45120, Note_on_c, 4, 72, 92
6, 45214, Note_on_c, 4, 60, 0
6, 45214, Note_on_c, 4, 72, 0
6, 45216, Note_on_c, 4, 63, 92
6, 45216, Note_on_c, 4, 69, 92
6, 45310, Note_on_c, 4, 63, 0
6, 45310, Note_on_c, 4, 69, 0
6, 45312, Note_on_c, 4, 60, 92
6, 45312, Note_on_c, 4, 72, 92
6, 45406, Note_on_c, 4, 60, 0
6, 45406, Note_on_c, 4, 72, 0
6, 45408, Note_on_c, 4, 63, 92
6, 45408, Note_on_c, 4, 69, 92
6, 45502, Note_on_c, 4, 63, 0
6, 45502, Note_on_c, 4, 69, 0
6, 45504, Note_on_c, 4, 59, 92
6, 45504, Note_on_c, 4, 71, 92
6, 45598, Note_on_c, 4, 59, 0
6, 45598, Note_on_c, 4, 71, 0
6, 45600, Note_on_c, 4, 62, 92
6, 45600, Note_on_c, 4, 65, 92
6, 45694, Note_on_c, 4, 62, 0
6, 45694, Note_on_c, 4, 65, 0
6, 45696, Note_on_c, 4, 59, 92
6, 45696, Note_on_c, 4, 71, 92
6, 45790, Note_on_c, 4, 59, 0
6, 45790, Note_on_c, 4, 71, 0
6, 45792, Note_on_c, 4, 62, 92
6, 45792, Note_on_c, 4, 65, 92
6, 45886, Note_on_c, 4, 62, 0
6, 45886, Note_on_c, 4, 65, 0
6, 45888, Note_on_c, 4, 57, 92
6, 45888, Note_on_c, 4, 69, 92
6, 45982, Note_on_c, 4, 57, 0
6, 45982, Note_on_c, 4, 69, 0
6, 45984, Note_on_c, 4, 61, 92
6, 45984, Note_on_c, 4, 64, 92
6, 46078, Note_on_c, 4, 61, 0
6, 46078, Note_on_c, 4, 64, 0
6, 46080, Note_on_c, 4, 60, 92
6, 46080, Note_on_c, 4, 72, 92
6, 46174, Note_on_c, 4, 60, 0
6, 46174, Note_on_c, 4, 72, 0
6, 46176, Note_on_c, 4, 66, 92
6, 46176, Note_on_c, 4, 69, 92
6, 46270, Note_on_c, 4, 66, 0
6, 46270, Note_on_c, 4, 69, 0
6, 46272, Note_on_c, 4, 59, 92
6, 46272, Note_on_c, 4, 71, 92
6, 46366, Note_on_c, 4, 59, 0
6, 46366, Note_on_c, 4, 71, 0
6, 46368, Note_on_c, 4, 64, 92
6, 46368, Note_on_c, 4, 69, 92
6, 46462, Note_on_c, 4, 64, 0
6, 46462, Note_on_c, 4, 69, 0
6, 46464, Note_on_c, 4, 59, 92
6, 46464, Note_on_c, 4, 71, 92
6, 46558, Note_on_c, 4, 59, 0
6, 46558, Note_on_c, 4, 71, 0
6, 46560, Note_on_c, 4, 64, 92
6, 46560, Note_on_c, 4, 68, 92
6, 46654, Note_on_c, 4, 64, 0
6, 46654, Note_on_c, 4, 68, 0
6, 46656, Note_on_c, 4, 57, 92
6, 46656, Note_on_c, 4, 60, 92
6, 46656, Note_on_c, 4, 64, 92
6, 46656, Note_on_c, 4, 69, 92
6, 46816, Note_on_c, 4, 57, 0
6, 46816, Note_on_c, 4, 60, 0
6, 46816, Note_on_c, 4, 64, 0
6, 46816, Note_on_c, 4, 69, 0
6, 46848, Note_on_c, 4, 57, 92
6, 46880, Note_on_c, 4, 57, 0
6, 46944, Note_on_c, 4, 59, 92
6, 46976, Note_on_c, 4, 59, 0
6, 46992, Note_on_c, 4, 60, 92
6, 47024, Note_on_c, 4, 60, 0
6, 47040, Note_on_c, 4, 62, 92
6, 47072, Note_on_c, 4, 62, 0
6, 47088, Note_on_c, 4, 64, 92
6, 47120, Note_on_c, 4, 64, 0
6, 47136, Note_on_c, 4, 65, 92
6, 47168, Note_on_c, 4, 65, 0
6, 47184, Note_on_c, 4, 68, 92
6, 47216, Note_on_c, 4, 68, 0
6, 47232, Note_on_c, 4, 69, 92
6, 47264, Note_on_c, 4, 69, 0
6, 47328, Note_on_c, 4, 69, 92
6, 47360, Note_on_c, 4, 69, 0
6, 47424, Note_on_c, 4, 69, 92
6, 47456, Note_on_c, 4, 69, 0
6, 47520, Note_on_c, 4, 69, 92
6, 47552, Note_on_c, 4, 69, 0
6, 47616, Note_on_c, 4, 69, 92
6, 47710, Note_on_c, 4, 69, 0
6, 47712, Note_on_c, 4, 68, 92
6, 47758, Note_on_c, 4, 68, 0
6, 47760, Note_on_c, 4, 69, 92
6, 47806, Note_on_c, 4, 69, 0
6, 47808, Note_on_c, 4, 70, 92
6, 47902, Note_on_c, 4, 70, 0
6, 47904, Note_on_c, 4, 70, 92
6, 47998, Note_on_c, 4, 70, 0
6, 48000, Note_on_c, 4, 70, 92
6, 48094, Note_on_c, 4, 70, 0
6, 48096, Note_on_c, 4, 70, 92
6, 48190, Note_on_c, 4, 70, 0
6, 48192, Note_on_c, 4, 70, 92
6, 48286, Note_on_c, 4, 70, 0
6, 48288, Note_on_c, 4, 69, 92
6, 48334, Note_on_c, 4, 69, 0
6, 48336, Note_on_c, 4, 70, 92
6, 48382, Note_on_c, 4, 70, 0
6, 48384, Note_on_c, 4, 79, 92
6, 48478, Note_on_c, 4, 79, 0
6, 48480, Note_on_c, 4, 79, 92
6, 48574, Note_on_c, 4, 79, 0
6, 48576, Note_on_c, 4, 79, 92
6, 48670, Note_on_c, 4, 79, 0
6, 48672, Note_on_c, 4, 79, 92
6, 48766, Note_on_c, 4, 79, 0
6, 48768, Note_on_c, 4, 77, 92
6, 48814, Note_on_c, 4, 77, 0
6, 48816, Note_on_c, 4, 74, 92
6, 48862, Note_on_c, 4, 74, 0
6, 48864, Note_on_c, 4, 69, 92
6, 48910, Note_on_c, 4, 69, 0
6, 48912, Note_on_c, 4, 74, 92
6, 48958, Note_on_c, 4, 74, 0
6, 48960, Note_on_c, 4, 69, 92
6, 48960, Note_on_c, 4, 74, 92
6, 48960, Note_on_c, 4, 77, 92
6, 49008, Note_on_c, 4, 69, 0
6, 49008, Note_on_c, 4, 74, 0
6, 49008, Note_on_c, 4, 77, 0
6, 49152, Note_on_c, 4, 67, 92
6, 49152, Note_on_c, 4, 70, 92
6, 49152, Note_on_c, 4, 75, 92
6, 49200, Note_on_c, 4, 67, 0
6, 49200, Note_on_c, 4, 70, 0
6, 49200, Note_on_c, 4, 75, 0
6, 49344, Note_on_c, 4, 65, 92
6, 49344, Note_on_c, 4, 71, 92
6, 49344, Note_on_c, 4, 74, 92
6, 49392, Note_on_c, 4, 65, 0
6, 49392, Note_on_c, 4, 71, 0
6, 49392, Note_on_c, 4, 74, 0
6, 49536, Note_on_c, 4, 64, 92
6, 49536, Note_on_c, 4, 69, 92
6, 49536, Note_on_c, 4, 73, 92
6, 49696, Note_on_c, 4, 64, 0
6, 49696, Note_on_c, 4, 69, 0
6, 49696, Note_on_c, 4, 73, 0
6, 49872, Note_on_c, 4, 81, 92
6, 49886, Note_on_c, 4, 81, 0
6, 49888, Note_on_c, 4, 83, 92
6, 49902, Note_on_c, 4, 83, 0
6, 49904, Note_on_c, 4, 85, 92
6, 49918, Note_on_c, 4, 85, 0
6, 49920, Note_on_c, 4, 74, 92
6, 49920, Note_on_c, 4, 80, 92
6, 49920, Note_on_c, 4, 86, 92
6, 50080, Note_on_c, 4, 74, 0
6, 50080, Note_on_c, 4, 80, 0
6, 50080, Note_on_c, 4, 86, 0
6, 50112, Note_on_c, 4, 73, 92
6, 50112, Note_on_c, 4, 76, 92
6, 50112, Note_on_c, 4, 81, 92
6, 50144, Note_on_c, 4, 73, 0
6, 50144, Note_on_c, 4, 76, 0
6, 50144, Note_on_c, 4, 81, 0
6, 50208, Note_on_c, 4, 81, 92
6, 50240, Note_on_c, 4, 81, 0
6, 50304, Note_on_c, 4, 81, 92
6, 50336, Note_on_c, 4, 81, 0
6, 50400, Note_on_c, 4, 79, 92
6, 50400, Note_on_c, 4, 81, 92
6, 50432, Note_on_c, 4, 79, 0
6, 50432, Note_on_c, 4, 81, 0
6, 50496, Note_on_c, 4, 77, 92
6, 50496, Note_on_c, 4, 81, 92
6, 50528, Note_on_c, 4, 77, 0
6, 50528, Note_on_c, 4, 81, 0
6, 50592, Note_on_c, 4, 76, 92
6, 50592, Note_on_c, 4, 81, 92
6, 50624, Note_on_c, 4, 76, 0
6, 50624, Note_on_c, 4, 81, 0
6, 50688, Note_on_c, 4, 73, 92
6, 50688, Note_on_c, 4, 81, 92
6, 50720, Note_on_c, 4, 73, 0
6, 50720, Note_on_c, 4, 81, 0
6, 50784, Note_on_c, 4, 74, 92
6, 50784, Note_on_c, 4, 81, 92
6, 50816, Note_on_c, 4, 74, 0
6, 50816, Note_on_c, 4, 81, 0
6, 50880, Note_on_c, 4, 73, 92
6, 50880, Note_on_c, 4, 81, 92
6, 50912, Note_on_c, 4, 73, 0
6, 50912, Note_on_c, 4, 81, 0
6, 50976, Note_on_c, 4, 70, 92
6, 50976, Note_on_c, 4, 81, 92
6, 51008, Note_on_c, 4, 70, 0
6, 51008, Note_on_c, 4, 81, 0
6, 51072, Note_on_c, 4, 81, 92
6, 51216, Note_on_c, 4, 81, 0
6, 51216, Note_on_c, 4, 83, 92
6, 51240, Note_on_c, 4, 83, 0
6, 51240, Note_on_c, 4, 85, 92
6, 51264, Note_on_c, 4, 85, 0
6, 51264, Note_on_c, 4, 77, 92
6, 51264, Note_on_c, 4, 86, 92
6, 51358, Note_on_c, 4, 77, 0
6, 51358, Note_on_c, 4, 86, 0
6, 51360, Note_on_c, 4, 81, 92
6, 51392, Note_on_c, 4, 81, 0
6, 51456, Note_on_c, 4, 79, 92
6, 51456, Note_on_c, 4, 81, 92
6, 51488, Note_on_c, 4, 79, 0
6, 51488, Note_on_c, 4, 81, 0
6, 51552, Note_on_c, 4, 77, 92
6, 51552, Note_on_c, 4, 81, 92
6, 51584, Note_on_c, 4, 77, 0
6, 51584, Note_on_c, 4, 81, 0
6, 51648, Note_on_c, 4, 76, 92
6, 51648, Note_on_c, 4, 81, 92
6, 51680, Note_on_c, 4, 76, 0
6, 51680, Note_on_c, 4, 81, 0
6, 51744, Note_on_c, 4, 74, 92
6, 51744, Note_on_c, 4, 81, 92
6, 51776, Note_on_c, 4, 74, 0
6, 51776, Note_on_c, 4, 81, 0
6, 51840, Note_on_c, 4, 73, 92
6, 51840, Note_on_c, 4, 81, 92
6, 51872, Note_on_c, 4, 73, 0
6, 51872, Note_on_c, 4, 81, 0
6, 51936, Note_on_c, 4, 74, 92
6, 51936, Note_on_c, 4, 81, 92
6, 51968, Note_on_c, 4, 74, 0
6, 51968, Note_on_c, 4, 81, 0
6, 52032, Note_on_c, 4, 73, 92
6, 52032, Note_on_c, 4, 81, 92
6, 52064, Note_on_c, 4, 73, 0
6, 52064, Note_on_c, 4, 81, 0
6, 52128, Note_on_c, 4, 70, 92
6, 52128, Note_on_c, 4, 81, 92
6, 52160, Note_on_c, 4, 70, 0
6, 52160, Note_on_c, 4, 81, 0
6, 52224, Note_on_c, 4, 81, 92
6, 52368, Note_on_c, 4, 81, 0
6, 52368, Note_on_c, 4, 83, 92
6, 52392, Note_on_c, 4, 83, 0
6, 52392, Note_on_c, 4, 85, 92
6, 52416, Note_on_c, 4, 85, 0
6, 52416, Note_on_c, 4, 74, 92
6, 52416, Note_on_c, 4, 77, 92
6, 52416, Note_on_c, 4, 86, 92
6, 52576, Note_on_c, 4, 74, 0
6, 52576, Note_on_c, 4, 77, 0
6, 52576, Note_on_c, 4, 86, 0
6, 52608, Note_on_c, 4, 69, 92
6, 52608, Note_on_c, 4, 74, 92
6, 52608, Note_on_c, 4, 77, 92
6, 52768, Note_on_c, 4, 69, 0
6, 52768, Note_on_c, 4, 74, 0
6, 52768, Note_on_c, 4, 77, 0
6, 52800, Note_on_c, 4, 71, 92
6, 52800, Note_on_c, 4, 74, 92
6, 52800, Note_on_c, 4, 77, 92
6, 52960, Note_on_c, 4, 71, 0
6, 52960, Note_on_c, 4, 74, 0
6, 52960, Note_on_c, 4, 77, 0
6, 52992, Note_on_c, 4, 69, 92
6, 52992, Note_on_c, 4, 74, 92
6, 52992, Note_on_c, 4, 77, 92
6, 53086, Note_on_c, 4, 69, 0
6, 53086, Note_on_c, 4, 74, 0
6, 53086, Note_on_c, 4, 77, 0
6, 53088, Note_on_c, 4, 69, 92
6, 53088, Note_on_c, 4, 77, 92
6, 53280, Note_on_c, 4, 69, 0
6, 53280, Note_on_c, 4, 77, 0
6, 53280, Note_on_c, 4, 70, 92
6, 53280, Note_on_c, 4, 76, 92
6, 53376, Note_on_c, 4, 70, 0
6, 53376, Note_on_c, 4, 76, 0
6, 53376, Note_on_c, 4, 69, 92
6, 53376, Note_on_c, 4, 77, 92
6, 53472, Note_on_c, 4, 69, 0
6, 53472, Note_on_c, 4, 77, 0
6, 53472, Note_on_c, 4, 70, 92
6, 53472, Note_on_c, 4, 76, 92
6, 53566, Note_on_c, 4, 70, 0
6, 53566, Note_on_c, 4, 76, 0
6, 53568, Note_on_c, 4, 69, 92
6, 53568, Note_on_c, 4, 74, 92
6, 53568, Note_on_c, 4, 77, 92
6, 53662, Note_on_c, 4, 69, 0
6, 53662, Note_on_c, 4, 74, 0
6, 53662, Note_on_c, 4, 77, 0
6, 53664, Note_on_c, 4, 69, 92
6, 53664, Note_on_c, 4, 77, 92
6, 53856, Note_on_c, 4, 69, 0
6, 53856, Note_on_c, 4, 77, 0
6, 53856, Note_on_c, 4, 70, 92
6, 53856, Note_on_c, 4, 76, 92
6, 53952, Note_on_c, 4, 70, 0
6, 53952, Note_on_c, 4, 76, 0
6, 53952, Note_on_c, 4, 69, 92
6, 53952, Note_on_c, 4, 77, 92
6, 54048, Note_on_c, 4, 69, 0
6, 54048, Note_on_c, 4, 77, 0
6, 54048, Note_on_c, 4, 70, 92
6, 54048, Note_on_c, 4, 76, 92
6, 54142, Note_on_c, 4, 70, 0
6, 54142, Note_on_c, 4, 76, 0
6, 54144, Note_on_c, 4, 69, 92
6, 54144, Note_on_c, 4, 77, 92
6, 54304, Note_on_c, 4, 69, 0
6, 54304, Note_on_c, 4, 77, 0
6, 54336, Note_on_c, 4, 74, 92
6, 54336, Note_on_c, 4, 86, 92
6, 54496, Note_on_c, 4, 74, 0
6, 54496, Note_on_c, 4, 86, 0
6, 54528, Note_on_c, 4, 74, 92
6, 54528, Note_on_c, 4, 78, 92
6, 54528, Note_on_c, 4, 84, 92
6, 54688, Note_on_c, 4, 74, 0
6, 54688, Note_on_c, 4, 78, 0
6, 54688, Note_on_c, 4, 84, 0
6, 54720, Note_on_c, 4, 74, 92
6, 54720, Note_on_c, 4, 79, 92
6, 54720, Note_on_c, 4, 83, 92
6, 54752, Note_on_c, 4, 74, 0
6, 54752, Note_on_c, 4, 79, 0
6, 54752, Note_on_c, 4, 83, 0
6, 54816, Note_on_c, 4, 79, 92
6, 54848, Note_on_c, 4, 79, 0
6, 54912, Note_on_c, 4, 77, 92
6, 54912, Note_on_c, 4, 79, 92
6, 54944, Note_on_c, 4, 77, 0
6, 54944, Note_on_c, 4, 79, 0
6, 55008, Note_on_c, 4, 76, 92
6, 55008, Note_on_c, 4, 79, 92
6, 55040, Note_on_c, 4, 76, 0
6, 55040, Note_on_c, 4, 79, 0
6, 55104, Note_on_c, 4, 74, 92
6, 55104, Note_on_c, 4, 79, 92
6, 55136, Note_on_c, 4, 74, 0
6, 55136, Note_on_c, 4, 79, 0
6, 55200, Note_on_c, 4, 72, 92
6, 55200, Note_on_c, 4, 79, 92
6, 55232, Note_on_c, 4, 72, 0
6, 55232, Note_on_c, 4, 79, 0
6, 55296, Note_on_c, 4, 71, 92
6, 55296, Note_on_c, 4, 79, 92
6, 55328, Note_on_c, 4, 71, 0
6, 55328, Note_on_c, 4, 79, 0
6, 55392, Note_on_c, 4, 72, 92
6, 55392, Note_on_c, 4, 79, 92
6, 55424, Note_on_c, 4, 72, 0
6, 55424, Note_on_c, 4, 79, 0
6, 55488, Note_on_c, 4, 71, 92
6, 55488, Note_on_c, 4, 79, 92
6, 55520, Note_on_c, 4, 71, 0
6, 55520, Note_on_c, 4, 79, 0
6, 55584, Note_on_c, 4, 69, 92
6, 55584, Note_on_c, 4, 79, 92
6, 55616, Note_on_c, 4, 69, 0
6, 55616, Note_on_c, 4, 79, 0
6, 55680, Note_on_c, 4, 79, 92
6, 55824, Note_on_c, 4, 79, 0
6, 55824, Note_on_c, 4, 81, 92
6, 55848, Note_on_c, 4, 81, 0
6, 55848, Note_on_c, 4, 83, 92
6, 55872, Note_on_c, 4, 83, 0
6, 55872, Note_on_c, 4, 76, 92
6, 55872, Note_on_c, 4, 84, 92
6, 55966, Note_on_c, 4, 76, 0
6, 55966, Note_on_c, 4, 84, 0
6, 55968, Note_on_c, 4, 79, 92
6, 56000, Note_on_c, 4, 79, 0
6, 56064, Note_on_c, 4, 77, 92
6, 56064, Note_on_c, 4, 79, 92
6, 56096, Note_on_c, 4, 77, 0
6, 56096, Note_on_c, 4, 79, 0
6, 56160, Note_on_c, 4, 76, 92
6, 56160, Note_on_c, 4, 79, 92
6, 56192, Note_on_c, 4, 76, 0
6, 56192, Note_on_c, 4, 79, 0
6, 56256, Note_on_c, 4, 74, 92
6, 56256, Note_on_c, 4, 79, 92
6, 56288, Note_on_c, 4, 74, 0
6, 56288, Note_on_c, 4, 79, 0
6, 56352, Note_on_c, 4, 72, 92
6, 56352, Note_on_c, 4, 79, 92
6, 56384, Note_on_c, 4, 72, 0
6, 56384, Note_on_c, 4, 79, 0
6, 56448, Note_on_c, 4, 71, 92
6, 56448, Note_on_c, 4, 79, 92
6, 56480, Note_on_c, 4, 71, 0
6, 56480, Note_on_c, 4, 79, 0
6, 56544, Note_on_c, 4, 72, 92
6, 56544, Note_on_c, 4, 79, 92
6, 56576, Note_on_c, 4, 72, 0
6, 56576, Note_on_c, 4, 79, 0
6, 56640, Note_on_c, 4, 71, 92
6, 56640, Note_on_c, 4, 79, 92
6, 56672, Note_on_c, 4, 71, 0
6, 56672, Note_on_c, 4, 79, 0
6, 56736, Note_on_c, 4, 69, 92
6, 56736, Note_on_c, 4, 79, 92
6, 56768, Note_on_c, 4, 69, 0
6, 56768, Note_on_c, 4, 79, 0
6, 56832, Note_on_c, 4, 79, 92
6, 56976, Note_on_c, 4, 79, 0
6, 56976, Note_on_c, 4, 81, 92
6, 57000, Note_on_c, 4, 81, 0
6, 57000, Note_on_c, 4, 83, 92
6, 57024, Note_on_c, 4, 83, 0
6, 57024, Note_on_c, 4, 76, 92
6, 57024, Note_on_c, 4, 84, 92
6, 57118, Note_on_c, 4, 76, 0
6, 57118, Note_on_c, 4, 84, 0
6, 57120, Note_on_c, 4, 67, 92
6, 57120, Note_on_c, 4, 76, 92
6, 57280, Note_on_c, 4, 67, 0
6, 57280, Note_on_c, 4, 76, 0
6, 57312, Note_on_c, 4, 67, 92
6, 57312, Note_on_c, 4, 76, 92
6, 57472, Note_on_c, 4, 67, 0
6, 57472, Note_on_c, 4, 76, 0
6, 57504, Note_on_c, 4, 67, 92
6, 57504, Note_on_c, 4, 76, 92
6, 57598, Note_on_c, 4, 67, 0
6, 57598, Note_on_c, 4, 76, 0
6, 57600, Note_on_c, 4, 66, 92
6, 57600, Note_on_c, 4, 75, 92
6, 57694, Note_on_c, 4, 66, 0
6, 57694, Note_on_c, 4, 75, 0
6, 57696, Note_on_c, 4, 66, 92
6, 57696, Note_on_c, 4, 75, 92
6, 57856, Note_on_c, 4, 66, 0
6, 57856, Note_on_c, 4, 75, 0
6, 57888, Note_on_c, 4, 66, 92
6, 57888, Note_on_c, 4, 75, 92
6, 58048, Note_on_c, 4, 66, 0
6, 58048, Note_on_c, 4, 75, 0
6, 58080, Note_on_c, 4, 66, 92
6, 58080, Note_on_c, 4, 75, 92
6, 58174, Note_on_c, 4, 66, 0
6, 58174, Note_on_c, 4, 75, 0
6, 58176, Note_on_c, 4, 76, 92
6, 58270, Note_on_c, 4, 76, 0
6, 58272, Note_on_c, 4, 71, 92
6, 58318, Note_on_c, 4, 71, 0
6, 58320, Note_on_c, 4, 76, 92
6, 58366, Note_on_c, 4, 76, 0
6, 58368, Note_on_c, 4, 79, 92
6, 58462, Note_on_c, 4, 79, 0
6, 58464, Note_on_c, 4, 76, 92
6, 58510, Note_on_c, 4, 76, 0
6, 58512, Note_on_c, 4, 79, 92
6, 58558, Note_on_c, 4, 79, 0
6, 58560, Note_on_c, 4, 83, 92
6, 58654, Note_on_c, 4, 83, 0
6, 58656, Note_on_c, 4, 83, 92
6, 58750, Note_on_c, 4, 83, 0
6, 58752, Note_on_c, 4, 64, 92
6, 58752, Note_on_c, 4, 67, 92
6, 58752, Note_on_c, 4, 73, 92
6, 58846, Note_on_c, 4, 64, 0
6, 58846, Note_on_c, 4, 67, 0
6, 58846, Note_on_c, 4, 73, 0
6, 58848, Note_on_c, 4, 64, 92
6, 58848, Note_on_c, 4, 67, 92
6, 58848, Note_on_c, 4, 73, 92
6, 59008, Note_on_c, 4, 64, 0
6, 59008, Note_on_c, 4, 67, 0
6, 59008, Note_on_c, 4, 73, 0
6, 59040, Note_on_c, 4, 64, 92
6, 59040, Note_on_c, 4, 67, 92
6, 59040, Note_on_c, 4, 73, 92
6, 59200, Note_on_c, 4, 64, 0
6, 59200, Note_on_c, 4, 67, 0
6, 59200, Note_on_c, 4, 73, 0
6, 59232, Note_on_c, 4, 64, 92
6, 59232, Note_on_c, 4, 67, 92
6, 59232, Note_on_c, 4, 73, 92
6, 59326, Note_on_c, 4, 64, 0
6, 59326, Note_on_c, 4, 67, 0
6, 59326, Note_on_c, 4, 73, 0
6, 59328, Note_on_c, 4, 74, 92
6, 59422, Note_on_c, 4, 74, 0
6, 59424, Note_on_c, 4, 69, 92
6, 59470, Note_on_c, 4, 69, 0
6, 59472, Note_on_c, 4, 74, 92
6, 59518, Note_on_c, 4, 74, 0
6, 59520, Note_on_c, 4, 77, 92
6, 59614, Note_on_c, 4, 77, 0
6, 59616, Note_on_c, 4, 74, 92
6, 59662, Note_on_c, 4, 74, 0
6, 59664, Note_on_c, 4, 77, 92
6, 59710, Note_on_c, 4, 77, 0
6, 59712, Note_on_c, 4, 81, 92
6, 59806, Note_on_c, 4, 81, 0
6, 59808, Note_on_c, 4, 81, 92
6, 59902, Note_on_c, 4, 81, 0
6, 59904, Note_on_c, 4, 62, 92
6, 59904, Note_on_c, 4, 65, 92
6, 59904, Note_on_c, 4, 71, 92
6, 59998, Note_on_c, 4, 62, 0
6, 59998, Note_on_c, 4, 65, 0
6, 59998, Note_on_c, 4, 71, 0
6, 60000, Note_on_c, 4, 62, 92
6, 60000, Note_on_c, 4, 65, 92
6, 60000, Note_on_c, 4, 71, 92
6, 60160, Note_on_c, 4, 62, 0
6, 60160, Note_on_c, 4, 65, 0
6, 60160, Note_on_c, 4, 71, 0
6, 60192, Note_on_c, 4, 62, 92
6, 60192, Note_on_c, 4, 65, 92
6, 60192, Note_on_c, 4, 71, 92
6, 60352, Note_on_c, 4, 62, 0
6, 60352, Note_on_c, 4, 65, 0
6, 60352, Note_on_c, 4, 71, 0
6, 60384, Note_on_c, 4, 62, 92
6, 60384, Note_on_c, 4, 65, 92
6, 60384, Note_on_c, 4, 71, 92
6, 60478, Note_on_c, 4, 62, 0
6, 60478, Note_on_c, 4, 65, 0
6, 60478, Note_on_c, 4, 71, 0
6, 60480, Note_on_c, 4, 72, 92
6, 60574, Note_on_c, 4, 72, 0
6, 60576, Note_on_c, 4, 67, 92
6, 60622, Note_on_c, 4, 67, 0
6, 60624, Note_on_c, 4, 72, 92
6, 60670, Note_on_c, 4, 72, 0
6, 60672, Note_on_c, 4, 75, 92
6, 60766, Note_on_c, 4, 75, 0
6, 60768, Note_on_c, 4, 72, 92
6, 60814, Note_on_c, 4, 72, 0
6, 60816, Note_on_c, 4, 75, 92
6, 60862, Note_on_c, 4, 75, 0
6, 60864, Note_on_c, 4, 79, 92
6, 60958, Note_on_c, 4, 79, 0
6, 60960, Note_on_c, 4, 79, 92
6, 61054, Note_on_c, 4, 79, 0
6, 61056, Note_on_c, 4, 69, 92
6, 61056, Note_on_c, 4, 74, 92
6, 61056, Note_on_c, 4, 78, 92
6, 61150, Note_on_c, 4, 69, 0
6, 61150, Note_on_c, 4, 74, 0
6, 61150, Note_on_c, 4, 78, 0
6, 61152, Note_on_c, 4, 69, 92
6, 61152, Note_on_c, 4, 74, 92
6, 61152, Note_on_c, 4, 78, 92
6, 61312, Note_on_c, 4, 69, 0
6, 61312, Note_on_c, 4, 74, 0
6, 61312, Note_on_c, 4, 78, 0
6, 61344, Note_on_c, 4, 69, 92
6, 61344, Note_on_c, 4, 74, 92
6, 61344, Note_on_c, 4, 78, 92
6, 61504, Note_on_c, 4, 69, 0
6, 61504, Note_on_c, 4, 74, 0
6, 61504, Note_on_c, 4, 78, 0
6, 61536, Note_on_c, 4, 69, 92
6, 61536, Note_on_c, 4, 74, 92
6, 61536, Note_on_c, 4, 78, 92
6, 61630, Note_on_c, 4, 69, 0
6, 61630, Note_on_c, 4, 74, 0
6, 61630, Note_on_c, 4, 78, 0
6, 61632, Note_on_c, 4, 66, 92
6, 61632, Note_on_c, 4, 72, 92
6, 61632, Note_on_c, 4, 76, 92
6, 61726, Note_on_c, 4, 66, 0
6, 61726, Note_on_c, 4, 72, 0
6, 61726, Note_on_c, 4, 76, 0
6, 61728, Note_on_c, 4, 66, 92
6, 61728, Note_on_c, 4, 72, 92
6, 61728, Note_on_c, 4, 76, 92
6, 61888, Note_on_c, 4, 66, 0
6, 61888, Note_on_c, 4, 72, 0
6, 61888, Note_on_c, 4, 76, 0
6, 61920, Note_on_c, 4, 66, 92
6, 61920, Note_on_c, 4, 72, 92
6, 61920, Note_on_c, 4, 76, 92
6, 62080, Note_on_c, 4, 66, 0
6, 62080, Note_on_c, 4, 72, 0
6, 62080, Note_on_c, 4, 76, 0
6, 62112, Note_on_c, 4, 66, 92
6, 62112, Note_on_c, 4, 72, 92
6, 62112, Note_on_c, 4, 76, 92
6, 62206, Note_on_c, 4, 66, 0
6, 62206, Note_on_c, 4, 72, 0
6, 62206, Note_on_c, 4, 76, 0
6, 62208, Note_on_c, 4, 67, 92
6, 62208, Note_on_c, 4, 71, 92
6, 62208, Note_on_c, 4, 74, 92
6, 62302, Note_on_c, 4, 67, 0
6, 62302, Note_on_c, 4, 71, 0
6, 62302, Note_on_c, 4, 74, 0
6, 62304, Note_on_c, 4, 76, 92
6, 62350, Note_on_c, 4, 76, 0
6, 62352, Note_on_c, 4, 78, 92
6, 62398, Note_on_c, 4, 78, 0
6, 62400, Note_on_c, 4, 79, 92
6, 62446, Note_on_c, 4, 79, 0
6, 62448, Note_on_c, 4, 81, 92
6, 62494, Note_on_c, 4, 81, 0
6, 62496, Note_on_c, 4, 83, 92
6, 62542, Note_on_c, 4, 83, 0
6, 62544, Note_on_c, 4, 84, 92
6, 62590, Note_on_c, 4, 84, 0
6, 62592, Note_on_c, 4, 83, 92
6, 62592, Note_on_c, 4, 86, 92
6, 62752, Note_on_c, 4, 83, 0
6, 62752, Note_on_c, 4, 86, 0
6, 62784, Note_on_c, 4, 69, 92
6, 62784, Note_on_c, 4, 72, 92
6, 62878, Note_on_c, 4, 69, 0
6, 62878, Note_on_c, 4, 72, 0
6, 62880, Note_on_c, 4, 74, 92
6, 62926, Note_on_c, 4, 74, 0
6, 62928, Note_on_c, 4, 76, 92
6, 62974, Note_on_c, 4, 76, 0
6, 62976, Note_on_c, 4, 78, 92
6, 63022, Note_on_c, 4, 78, 0
6, 63024, Note_on_c, 4, 79, 92
6, 63070, Note_on_c, 4, 79, 0
6, 63072, Note_on_c, 4, 81, 92
6, 63118, Note_on_c, 4, 81, 0
6, 63120, Note_on_c, 4, 83, 92
6, 63166, Note_on_c, 4, 83, 0
6, 63168, Note_on_c, 4, 81, 92
6, 63168, Note_on_c, 4, 84, 92
6, 63328, Note_on_c, 4, 81, 0
6, 63328, Note_on_c, 4, 84, 0
6, 63360, Note_on_c, 4, 62, 92
6, 63360, Note_on_c, 4, 67, 92
6, 63360, Note_on_c, 4, 71, 92
6, 63454, Note_on_c, 4, 62, 0
6, 63454, Note_on_c, 4, 67, 0
6, 63454, Note_on_c, 4, 71, 0
6, 63456, Note_on_c, 4, 62, 92
6, 63456, Note_on_c, 4, 67, 92
6, 63456, Note_on_c, 4, 71, 92
6, 63616, Note_on_c, 4, 62, 0
6, 63616, Note_on_c, 4, 67, 0
6, 63616, Note_on_c, 4, 71, 0
6, 63648, Note_on_c, 4, 62, 92
6, 63648, Note_on_c, 4, 67, 92
6, 63648, Note_on_c, 4, 71, 92
6, 63808, Note_on_c, 4, 62, 0
6, 63808, Note_on_c, 4, 67, 0
6, 63808, Note_on_c, 4, 71, 0
6, 63840, Note_on_c, 4, 62, 92
6, 63840, Note_on_c, 4, 67, 92
6, 63840, Note_on_c, 4, 71, 92
6, 63934, Note_on_c, 4, 62, 0
6, 63934, Note_on_c, 4, 67, 0
6, 63934, Note_on_c, 4, 71, 0
6, 63936, Note_on_c, 4, 69, 92
6, 63936, Note_on_c, 4, 72, 92
6, 64030, Note_on_c, 4, 69, 0
6, 64030, Note_on_c, 4, 72, 0
6, 64032, Note_on_c, 4, 69, 92
6, 64032, Note_on_c, 4, 72, 92
6, 64192, Note_on_c, 4, 69, 0
6, 64192, Note_on_c, 4, 72, 0
6, 64224, Note_on_c, 4, 69, 92
6, 64224, Note_on_c, 4, 72, 92
6, 64384, Note_on_c, 4, 69, 0
6, 64384, Note_on_c, 4, 72, 0
6, 64416, Note_on_c, 4, 69, 92
6, 64416, Note_on_c, 4, 72, 92
6, 64510, Note_on_c, 4, 69, 0
6, 64510, Note_on_c, 4, 72, 0
6, 64512, Note_on_c, 4, 71, 92
6, 64512, Note_on_c, 4, 74, 92
6, 64606, Note_on_c, 4, 71, 0
6, 64606, Note_on_c, 4, 74, 0
6, 64608, Note_on_c, 4, 76, 92
6, 64654, Note_on_c, 4, 76, 0
6, 64656, Note_on_c, 4, 78, 92
6, 64702, Note_on_c, 4, 78, 0
6, 64704, Note_on_c, 4, 79, 92
6, 64750, Note_on_c, 4, 79, 0
6, 64752, Note_on_c, 4, 81, 92
6, 64798, Note_on_c, 4, 81, 0
6, 64800, Note_on_c, 4, 83, 92
6, 64846, Note_on_c, 4, 83, 0
6, 64848, Note_on_c, 4, 84, 92
6, 64894, Note_on_c, 4, 84, 0
6, 64896, Note_on_c, 4, 83, 92
6, 64896, Note_on_c, 4, 86, 92
6, 65056, Note_on_c, 4, 83, 0
6, 65056, Note_on_c, 4, 86, 0
6, 65088, Note_on_c, 4, 72, 92
6, 65088, Note_on_c, 4, 76, 92
6, 65182, Note_on_c, 4, 72, 0
6, 65182, Note_on_c, 4, 76, 0
6, 65184, Note_on_c, 4, 77, 92
6, 65230, Note_on_c, 4, 77, 0
6, 65232, Note_on_c, 4, 79, 92
6, 65278, Note_on_c, 4, 79, 0
6, 65280, Note_on_c, 4, 81, 92
6, 65326, Note_on_c, 4, 81, 0
6, 65328, Note_on_c, 4, 83, 92
6, 65374, Note_on_c, 4, 83, 0
6, 65376, Note_on_c, 4, 84, 92
6, 65422, Note_on_c, 4, 84, 0
6, 65424, Note_on_c, 4, 86, 92
6, 65470, Note_on_c, 4, 86, 0
6, 65472, Note_on_c, 4, 84, 92
6, 65472, Note_on_c, 4, 88, 92
6, 65632, Note_on_c, 4, 84, 0
6, 65632, Note_on_c, 4, 88, 0
6, 65664, Note_on_c, 4, 71, 92
6, 65664, Note_on_c, 4, 74, 92
6, 65664, Note_on_c, 4, 77, 92
6, 65806, Note_on_c, 4, 71, 0
6, 65806, Note_on_c, 4, 74, 0
6, 65806, Note_on_c, 4, 77, 0
6, 65808, Note_on_c, 4, 74, 92
6, 65808, Note_on_c, 4, 77, 92
6, 65854, Note_on_c, 4, 74, 0
6, 65854, Note_on_c, 4, 77, 0
6, 65856, Note_on_c, 4, 74, 92
6, 65856, Note_on_c, 4, 77, 92
6, 65998, Note_on_c, 4, 74, 0
6, 65998, Note_on_c, 4, 77, 0
6, 66000, Note_on_c, 4, 74, 92
6, 66000, Note_on_c, 4, 77, 92
6, 66000, Note_on_c, 4, 83, 92
6, 66046, Note_on_c, 4, 74, 0
6, 66046, Note_on_c, 4, 77, 0
6, 66046, Note_on_c, 4, 83, 0
6, 66048, Note_on_c, 4, 74, 92
6, 66048, Note_on_c, 4, 77, 92
6, 66048, Note_on_c, 4, 83, 92
6, 66190, Note_on_c, 4, 74, 0
6, 66190, Note_on_c, 4, 77, 0
6, 66190, Note_on_c, 4, 83, 0
6, 66192, Note_on_c, 4, 74, 92
6, 66192, Note_on_c, 4, 77, 92
6, 66192, Note_on_c, 4, 83, 92
6, 66192, Note_on_c, 4, 86, 92
6, 66238, Note_on_c, 4, 74, 0
6, 66238, Note_on_c, 4, 77, 0
6, 66238, Note_on_c, 4, 83, 0
6, 66238, Note_on_c, 4, 86, 0
6, 66240, Note_on_c, 4, 74, 92
6, 66240, Note_on_c, 4, 77, 92
6, 66240, Note_on_c, 4, 83, 92
6, 66240, Note_on_c, 4, 86, 92
6, 66768, Note_on_c, 4, 74, 0
6, 66768, Note_on_c, 4, 77, 0
6, 66768, Note_on_c, 4, 83, 0
6, 66768, Note_on_c, 4, 86, 0
6, 66816, Note_on_c, 4, 67, 45
6, 66960, Note_on_c, 4, 67, 0
6, 66960, Note_on_c, 4, 72, 45
6, 67006, Note_on_c, 4, 72, 0
6, 67008, Note_on_c, 4, 76, 45
6, 67056, Note_on_c, 4, 76, 0
6, 67200, Note_on_c, 4, 76, 45
6, 67248, Note_on_c, 4, 76, 0
6, 67392, Note_on_c, 4, 62, 45
6, 67392, Note_on_c, 4, 74, 45
6, 67680, Note_on_c, 4, 62, 0
6, 67680, Note_on_c, 4, 74, 0
6, 67680, Note_on_c, 4, 59, 45
6, 67680, Note_on_c, 4, 71, 45
6, 67774, Note_on_c, 4, 59, 0
6, 67774, Note_on_c, 4, 71, 0
6, 67776, Note_on_c, 4, 64, 45
6, 67776, Note_on_c, 4, 72, 45
6, 67936, Note_on_c, 4, 64, 0
6, 67936, Note_on_c, 4, 72, 0
6, 67968, Note_on_c, 4, 72, 45
6, 68112, Note_on_c, 4, 72, 0
6, 68112, Note_on_c, 4, 76, 45
6, 68158, Note_on_c, 4, 76, 0
6, 68160, Note_on_c, 4, 79, 45
6, 68208, Note_on_c, 4, 79, 0
6, 68352, Note_on_c, 4, 79, 45
6, 68400, Note_on_c, 4, 79, 0
6, 68544, Note_on_c, 4, 65, 45
6, 68544, Note_on_c, 4, 77, 45
6, 68832, Note_on_c, 4, 65, 0
6, 68832, Note_on_c, 4, 77, 0
6, 68832, Note_on_c, 4, 62, 45
6, 68832, Note_on_c, 4, 74, 45
6, 68926, Note_on_c, 4, 62, 0
6, 68926, Note_on_c, 4, 74, 0
6, 68928, Note_on_c, 4, 64, 45
6, 68928, Note_on_c, 4, 72, 45
6, 68928, Note_on_c, 4, 76, 45
6, 69088, Note_on_c, 4, 64, 0
6, 69088, Note_on_c, 4, 72, 0
6, 69088, Note_on_c, 4, 76, 0
6, 69120, Note_on_c, 4, 69, 45
6, 69120, Note_on_c, 4, 72, 45
6, 69152, Note_on_c, 4, 69, 0
6, 69152, Note_on_c, 4, 72, 0
6, 69216, Note_on_c, 4, 69, 45
6, 69216, Note_on_c, 4, 72, 45
6, 69248, Note_on_c, 4, 69, 0
6, 69248, Note_on_c, 4, 72, 0
6, 69312, Note_on_c, 4, 69, 45
6, 69312, Note_on_c, 4, 72, 45
6, 69344, Note_on_c, 4, 69, 0
6, 69344, Note_on_c, 4, 72, 0
6, 69408, Note_on_c, 4, 69, 45
6, 69408, Note_on_c, 4, 72, 45
6, 69440, Note_on_c, 4, 69, 0
6, 69440, Note_on_c, 4, 72, 0
6, 69504, Note_on_c, 4, 69, 45
6, 69504, Note_on_c, 4, 72, 45
6, 69598, Note_on_c, 4, 72, 0
6, 69600, Note_on_c, 4, 71, 45
6, 69646, Note_on_c, 4, 71, 0
6, 69648, Note_on_c, 4, 72, 45
6, 69664, Note_on_c, 4, 69, 0
6, 69694, Note_on_c, 4, 72, 0
6, 69696, Note_on_c, 4, 67, 45
6, 69696, Note_on_c, 4, 71, 45
6, 69728, Note_on_c, 4, 67, 0
6, 69728, Note_on_c, 4, 71, 0
6, 69792, Note_on_c, 4, 67, 45
6, 69792, Note_on_c, 4, 71, 45
6, 69824, Note_on_c, 4, 67, 0
6, 69824, Note_on_c, 4, 71, 0
6, 69888, Note_on_c, 4, 67, 45
6, 69888, Note_on_c, 4, 71, 45
6, 69920, Note_on_c, 4, 67, 0
6, 69920, Note_on_c, 4, 71, 0
6, 69984, Note_on_c, 4, 67, 45
6, 69984, Note_on_c, 4, 71, 45
6, 70016, Note_on_c, 4, 67, 0
6, 70016, Note_on_c, 4, 71, 0
6, 70080, Note_on_c, 4, 67, 45
6, 70080, Note_on_c, 4, 71, 45
6, 70174, Note_on_c, 4, 71, 0
6, 70176, Note_on_c, 4, 69, 45
6, 70222, Note_on_c, 4, 69, 0
6, 70224, Note_on_c, 4, 71, 45
6, 70240, Note_on_c, 4, 67, 0
6, 70270, Note_on_c, 4, 71, 0
6, 70272, Note_on_c, 4, 65, 45
6, 70272, Note_on_c, 4, 69, 45
6, 70304, Note_on_c, 4, 65, 0
6, 70304, Note_on_c, 4, 69, 0
6, 70368, Note_on_c, 4, 65, 45
6, 70368, Note_on_c, 4, 69, 45
6, 70400, Note_on_c, 4, 65, 0
6, 70400, Note_on_c, 4, 69, 0
6, 70464, Note_on_c, 4, 65, 45
6, 70464, Note_on_c, 4, 69, 45
6, 70496, Note_on_c, 4, 65, 0
6, 70496, Note_on_c, 4, 69, 0
6, 70560, Note_on_c, 4, 65, 45
6, 70560, Note_on_c, 4, 69, 45
6, 70592, Note_on_c, 4, 65, 0
6, 70592, Note_on_c, 4, 69, 0
6, 70656, Note_on_c, 4, 65, 45
6, 70656, Note_on_c, 4, 69, 45
6, 70750, Note_on_c, 4, 69, 0
6, 70752, Note_on_c, 4, 67, 45
6, 70798, Note_on_c, 4, 67, 0
6, 70800, Note_on_c, 4, 69, 45
6, 70816, Note_on_c, 4, 65, 0
6, 70846, Note_on_c, 4, 69, 0
6, 70848, Note_on_c, 4, 64, 45
6, 70848, Note_on_c, 4, 67, 45
6, 70880, Note_on_c, 4, 64, 0
6, 70880, Note_on_c, 4, 67, 0
6, 70944, Note_on_c, 4, 64, 45
6, 70944, Note_on_c, 4, 67, 45
6, 70976, Note_on_c, 4, 64, 0
6, 70976, Note_on_c, 4, 67, 0
6, 71040, Note_on_c, 4, 64, 45
6, 71040, Note_on_c, 4, 67, 45
6, 71072, Note_on_c, 4, 64, 0
6, 71072, Note_on_c, 4, 67, 0
6, 71136, Note_on_c, 4, 64, 45
6, 71136, Note_on_c, 4, 67, 45
6, 71168, Note_on_c, 4, 64, 0
6, 71168, Note_on_c, 4, 67, 0
6, 71232, Note_on_c, 4, 64, 45
6, 71232, Note_on_c, 4, 67, 45
6, 71326, Note_on_c, 4, 67, 0
6, 71328, Note_on_c, 4, 66, 45
6, 71374, Note_on_c, 4, 66, 0
6, 71376, Note_on_c, 4, 67, 45
6, 71392, Note_on_c, 4, 64, 0
6, 71422, Note_on_c, 4, 67, 0
6, 71424, Note_on_c, 4, 64, 45
6, 71424, Note_on_c, 4, 67, 45
6, 71456, Note_on_c, 4, 64, 0
6, 71456, Note_on_c, 4, 67, 0
6, 71520, Note_on_c, 4, 60, 45
6, 71520, Note_on_c, 4, 64, 45
6, 71552, Note_on_c, 4, 60, 0
6, 71552, Note_on_c, 4, 64, 0
6, 71616, Note_on_c, 4, 67, 45
6, 71616, Note_on_c, 4, 72, 45
6, 71648, Note_on_c, 4, 67, 0
6, 71648, Note_on_c, 4, 72, 0
6, 71712, Note_on_c, 4, 64, 45
6, 71712, Note_on_c, 4, 67, 45
6, 71744, Note_on_c, 4, 64, 0
6, 71744, Note_on_c, 4, 67, 0
6, 71808, Note_on_c, 4, 60, 45
6, 71808, Note_on_c, 4, 64, 45
6, 71840, Note_on_c, 4, 60, 0
6, 71840, Note_on_c, 4, 64, 0
6, 71904, Note_on_c, 4, 64, 45
6, 71904, Note_on_c, 4, 67, 45
6, 71936, Note_on_c, 4, 64, 0
6, 71936, Note_on_c, 4, 67, 0
6, 72000, Note_on_c, 4, 65, 45
6, 72094, Note_on_c, 4, 65, 0
6, 72096, Note_on_c, 4, 62, 45
6, 72190, Note_on_c, 4, 62, 0
6, 72192, Note_on_c, 4, 74, 45
6, 72286, Note_on_c, 4, 74, 0
6, 72288, Note_on_c, 4, 71, 45
6, 72382, Note_on_c, 4, 71, 0
6, 72384, Note_on_c, 4, 65, 45
6, 72478, Note_on_c, 4, 65, 0
6, 72480, Note_on_c, 4, 62, 45
6, 72574, Note_on_c, 4, 62, 0
6, 72576, Note_on_c, 4, 60, 45
6, 72576, Note_on_c, 4, 72, 45
6, 72608, Note_on_c, 4, 60, 0
6, 72608, Note_on_c, 4, 72, 0
6, 72672, Note_on_c, 4, 59, 45
6, 72672, Note_on_c, 4, 71, 45
6, 72704, Note_on_c, 4, 59, 0
6, 72704, Note_on_c, 4, 71, 0
6, 72768, Note_on_c, 4, 60, 45
6, 72768, Note_on_c, 4, 72, 45
6, 72800, Note_on_c, 4, 60, 0
6, 72800, Note_on_c, 4, 72, 0
6, 72864, Note_on_c, 4, 62, 45
6, 72864, Note_on_c, 4, 74, 45
6, 72896, Note_on_c, 4, 62, 0
6, 72896, Note_on_c, 4, 74, 0
6, 72960, Note_on_c, 4, 64, 45
6, 72960, Note_on_c, 4, 76, 45
6, 72992, Note_on_c, 4, 64, 0
6, 72992, Note_on_c, 4, 76, 0
6, 73056, Note_on_c, 4, 66, 45
6, 73056, Note_on_c, 4, 78, 45
6, 73088, Note_on_c, 4, 66, 0
6, 73088, Note_on_c, 4, 78, 0
6, 73152, Note_on_c, 4, 67, 45
6, 73152, Note_on_c, 4, 79, 45
6, 73312, Note_on_c, 4, 67, 0
6, 73312, Note_on_c, 4, 79, 0
6, 73536, Note_on_c, 4, 72, 92
6, 73560, Note_on_c, 4, 72, 0
6, 73560, Note_on_c, 4, 74, 92
6, 73584, Note_on_c, 4, 74, 0
6, 73584, Note_on_c, 4, 76, 92
6, 73726, Note_on_c, 4, 76, 0
6, 73728, Note_on_c, 4, 76, 92
6, 73752, Note_on_c, 4, 76, 0
6, 73752, Note_on_c, 4, 77, 92
6, 73776, Note_on_c, 4, 77, 0
6, 73776, Note_on_c, 4, 79, 92
6, 73918, Note_on_c, 4, 79, 0
6, 74112, Note_on_c, 4, 76, 92
6, 74206, Note_on_c, 4, 76, 0
6, 74208, Note_on_c, 4, 74, 92
6, 74254, Note_on_c, 4, 74, 0
6, 74256, Note_on_c, 4, 72, 92
6, 74302, Note_on_c, 4, 72, 0
6, 74304, Note_on_c, 4, 64, 127
6, 74304, Note_on_c, 4, 72, 127
6, 74496, Note_on_c, 4, 64, 0
6, 74496, Note_on_c, 4, 72, 0
6, 74496, Note_on_c, 4, 62, 92
6, 74496, Note_on_c, 4, 71, 92
6, 74656, Note_on_c, 4, 62, 0
6, 74656, Note_on_c, 4, 71, 0
6, 74688, Note_on_c, 4, 71, 92
6, 74712, Note_on_c, 4, 71, 0
6, 74712, Note_on_c, 4, 72, 92
6, 74736, Note_on_c, 4, 72, 0
6, 74736, Note_on_c, 4, 74, 92
6, 74878, Note_on_c, 4, 74, 0
6, 74880, Note_on_c, 4, 74, 92
6, 74904, Note_on_c, 4, 74, 0
6, 74904, Note_on_c, 4, 76, 92
6, 74928, Note_on_c, 4, 76, 0
6, 74928, Note_on_c, 4, 77, 92
6, 75070, Note_on_c, 4, 77, 0
6, 75264, Note_on_c, 4, 77, 92
6, 75358, Note_on_c, 4, 77, 0
6, 75360, Note_on_c, 4, 76, 92
6, 75406, Note_on_c, 4, 76, 0
6, 75408, Note_on_c, 4, 74, 92
6, 75454, Note_on_c, 4, 74, 0
6, 75456, Note_on_c, 4, 65, 92
6, 75456, Note_on_c, 4, 74, 92
6, 75648, Note_on_c, 4, 65, 0
6, 75648, Note_on_c, 4, 74, 0
6, 75648, Note_on_c, 4, 64, 92
6, 75648, Note_on_c, 4, 72, 92
6, 75808, Note_on_c, 4, 64, 0
6, 75808, Note_on_c, 4, 72, 0
6, 75840, Note_on_c, 4, 72, 92
6, 75864, Note_on_c, 4, 72, 0
6, 75864, Note_on_c, 4, 74, 92
6, 75888, Note_on_c, 4, 74, 0
6, 75888, Note_on_c, 4, 76, 92
6, 76030, Note_on_c, 4, 76, 0
6, 76032, Note_on_c, 4, 76, 92
6, 76056, Note_on_c, 4, 76, 0
6, 76056, Note_on_c, 4, 77, 92
6, 76080, Note_on_c, 4, 77, 0
6, 76080, Note_on_c, 4, 79, 92
6, 76222, Note_on_c, 4, 79, 0
6, 76416, Note_on_c, 4, 81, 92
6, 76440, Note_on_c, 4, 81, 0
6, 76440, Note_on_c, 4, 83, 92
6, 76464, Note_on_c, 4, 83, 0
6, 76464, Note_on_c, 4, 84, 92
6, 76606, Note_on_c, 4, 84, 0
6, 76608, Note_on_c, 4, 74, 92
6, 76632, Note_on_c, 4, 74, 0
6, 76632, Note_on_c, 4, 76, 92
6, 76656, Note_on_c, 4, 76, 0
6, 76656, Note_on_c, 4, 77, 92
6, 76798, Note_on_c, 4, 77, 0
6, 76992, Note_on_c, 4, 79, 92
6, 77016, Note_on_c, 4, 79, 0
6, 77016, Note_on_c, 4, 81, 92
6, 77040, Note_on_c, 4, 81, 0
6, 77040, Note_on_c, 4, 83, 92
6, 77182, Note_on_c, 4, 83, 0
6, 77184, Note_on_c, 4, 72, 92
6, 77208, Note_on_c, 4, 72, 0
6, 77208, Note_on_c, 4, 74, 92
6, 77232, Note_on_c, 4, 74, 0
6, 77232, Note_on_c, 4, 76, 92
6, 77374, Note_on_c, 4, 76, 0
6, 77568, Note_on_c, 4, 77, 92
6, 77592, Note_on_c, 4, 77, 0
6, 77592, Note_on_c, 4, 79, 92
6, 77616, Note_on_c, 4, 79, 0
6, 77616, Note_on_c, 4, 81, 92
6, 77758, Note_on_c, 4, 81, 0
6, 77760, Note_on_c, 4, 62, 92
6, 77760, Note_on_c, 4, 67, 92
6, 77760, Note_on_c, 4, 71, 92
6, 77920, Note_on_c, 4, 62, 0
6, 77920, Note_on_c, 4, 67, 0
6, 77920, Note_on_c, 4, 71, 0
6, 77952, Note_on_c, 4, 83, 92
6, 78046, Note_on_c, 4, 83, 0
6, 78048, Note_on_c, 4, 81, 92
6, 78094, Note_on_c, 4, 81, 0
6, 78096, Note_on_c, 4, 79, 92
6, 78142, Note_on_c, 4, 79, 0
6, 78144, Note_on_c, 4, 84, 92
6, 78238, Note_on_c, 4, 84, 0
6, 78240, Note_on_c, 4, 79, 92
6, 78334, Note_on_c, 4, 79, 0
6, 78336, Note_on_c, 4, 77, 92
6, 78336, Note_on_c, 4, 79, 92
6, 78336, Note_on_c, 4, 86, 92
6, 78496, Note_on_c, 4, 77, 0
6, 78496, Note_on_c, 4, 79, 0
6, 78496, Note_on_c, 4, 86, 0
6, 78528, Note_on_c, 4, 67, 92
6, 78528, Note_on_c, 4, 74, 92
6, 78528, Note_on_c, 4, 77, 92
6, 78688, Note_on_c, 4, 67, 0
6, 78688, Note_on_c, 4, 74, 0
6, 78688, Note_on_c, 4, 77, 0
6, 78720, Note_on_c, 4, 67, 92
6, 78720, Note_on_c, 4, 72, 92
6, 78720, Note_on_c, 4, 76, 92
6, 78880, Note_on_c, 4, 67, 0
6, 78880, Note_on_c, 4, 72, 0
6, 78880, Note_on_c, 4, 76, 0
6, 78912, Note_on_c, 4, 67, 92
6, 78912, Note_on_c, 4, 71, 92
6, 78912, Note_on_c, 4, 74, 92
6, 79072, Note_on_c, 4, 67, 0
6, 79072, Note_on_c, 4, 71, 0
6, 79072, Note_on_c, 4, 74, 0
6, 79104, Note_on_c, 4, 83, 92
6, 79198, Note_on_c, 4, 83, 0
6, 79200, Note_on_c, 4, 81, 92
6, 79246, Note_on_c, 4, 81, 0
6, 79248, Note_on_c, 4, 79, 92
6, 79294, Note_on_c, 4, 79, 0
6, 79296, Note_on_c, 4, 84, 92
6, 79390, Note_on_c, 4, 84, 0
6, 79392, Note_on_c, 4, 79, 92
6, 79486, Note_on_c, 4, 79, 0
6, 79488, Note_on_c, 4, 77, 92
6, 79488, Note_on_c, 4, 79, 92
6, 79488, Note_on_c, 4, 86, 92
6, 79648, Note_on_c, 4, 77, 0
6, 79648, Note_on_c, 4, 79, 0
6, 79648, Note_on_c, 4, 86, 0
6, 79680, Note_on_c, 4, 67, 92
6, 79680, Note_on_c, 4, 74, 92
6, 79680, Note_on_c, 4, 77, 92
6, 79840, Note_on_c, 4, 67, 0
6, 79840, Note_on_c, 4, 74, 0
6, 79840, Note_on_c, 4, 77, 0
6, 79872, Note_on_c, 4, 67, 92
6, 79872, Note_on_c, 4, 72, 92
6, 79872, Note_on_c, 4, 76, 92
6, 80032, Note_on_c, 4, 67, 0
6, 80032, Note_on_c, 4, 72, 0
6, 80032, Note_on_c, 4, 76, 0
6, 80064, Note_on_c, 4, 67, 92
6, 80064, Note_on_c, 4, 71, 92
6, 80064, Note_on_c, 4, 74, 92
6, 80224, Note_on_c, 4, 67, 0
6, 80224, Note_on_c, 4, 71, 0
6, 80224, Note_on_c, 4, 74, 0
6, 80256, Note_on_c, 4, 83, 92
6, 80350, Note_on_c, 4, 83, 0
6, 80352, Note_on_c, 4, 81, 92
6, 80398, Note_on_c, 4, 81, 0
6, 80400, Note_on_c, 4, 79, 92
6, 80446, Note_on_c, 4, 79, 0
6, 80448, Note_on_c, 4, 84, 92
6, 80542, Note_on_c, 4, 84, 0
6, 80544, Note_on_c, 4, 79, 92
6, 80638, Note_on_c, 4, 79, 0
6, 80640, Note_on_c, 4, 79, 92
6, 80734, Note_on_c, 4, 79, 0
6, 80736, Note_on_c, 4, 78, 92
6, 80782, Note_on_c, 4, 78, 0
6, 80784, Note_on_c, 4, 79, 92
6, 80830, Note_on_c, 4, 79, 0
6, 80832, Note_on_c, 4, 76, 92
6, 80926, Note_on_c, 4, 76, 0
6, 80928, Note_on_c, 4, 75, 92
6, 80974, Note_on_c, 4, 75, 0
6, 80976, Note_on_c, 4, 76, 92
6, 81022, Note_on_c, 4, 76, 0
6, 81024, Note_on_c, 4, 72, 92
6, 81118, Note_on_c, 4, 72, 0
6, 81120, Note_on_c, 4, 71, 92
6, 81166, Note_on_c, 4, 71, 0
6, 81168, Note_on_c, 4, 72, 92
6, 81214, Note_on_c, 4, 72, 0
6, 81216, Note_on_c, 4, 67, 92
6, 81310, Note_on_c, 4, 67, 0
6, 81312, Note_on_c, 4, 67, 45
6, 81406, Note_on_c, 4, 67, 0
6, 81408, Note_on_c, 4, 79, 45
6, 81502, Note_on_c, 4, 79, 0
6, 81504, Note_on_c, 4, 77, 45
6, 81598, Note_on_c, 4, 77, 0
6, 81600, Note_on_c, 4, 76, 45
6, 81694, Note_on_c, 4, 76, 0
6, 81696, Note_on_c, 4, 74, 45
6, 81790, Note_on_c, 4, 74, 0
6, 81792, Note_on_c, 4, 73, 45
6, 81886, Note_on_c, 4, 73, 0
6, 81888, Note_on_c, 4, 74, 45
6, 81888, Note_on_c, 4, 81, 45
6, 81920, Note_on_c, 4, 74, 0
6, 81920, Note_on_c, 4, 81, 0
6, 81984, Note_on_c, 4, 73, 45
6, 81984, Note_on_c, 4, 81, 45
6, 82016, Note_on_c, 4, 73, 0
6, 82016, Note_on_c, 4, 81, 0
6, 82080, Note_on_c, 4, 70, 45
6, 82080, Note_on_c, 4, 81, 45
6, 82112, Note_on_c, 4, 70, 0
6, 82112, Note_on_c, 4, 81, 0
6, 82176, Note_on_c, 4, 81, 45
6, 82320, Note_on_c, 4, 81, 0
6, 82320, Note_on_c, 4, 82, 45
6, 82344, Note_on_c, 4, 82, 0
6, 82344, Note_on_c, 4, 85, 45
6, 82368, Note_on_c, 4, 85, 0
6, 82368, Note_on_c, 4, 78, 45
6, 82368, Note_on_c, 4, 86, 45
6, 82462, Note_on_c, 4, 78, 0
6, 82462, Note_on_c, 4, 86, 0
6, 82464, Note_on_c, 4, 81, 45
6, 82558, Note_on_c, 4, 81, 0
6, 82560, Note_on_c, 4, 78, 45
6, 82654, Note_on_c, 4, 78, 0
6, 82656, Note_on_c, 4, 75, 45
6, 82750, Note_on_c, 4, 75, 0
6, 82752, Note_on_c, 4, 74, 45
6, 82846, Note_on_c, 4, 74, 0
6, 82848, Note_on_c, 4, 72, 45
6, 82942, Note_on_c, 4, 72, 0
6, 82944, Note_on_c, 4, 71, 45
6, 83038, Note_on_c, 4, 71, 0
6, 83040, Note_on_c, 4, 72, 45
6, 83040, Note_on_c, 4, 79, 45
6, 83072, Note_on_c, 4, 72, 0
6, 83072, Note_on_c, 4, 79, 0
6, 83136, Note_on_c, 4, 71, 45
6, 83136, Note_on_c, 4, 79, 45
6, 83168, Note_on_c, 4, 71, 0
6, 83168, Note_on_c, 4, 79, 0
6, 83232, Note_on_c, 4, 69, 45
6, 83232, Note_on_c, 4, 79, 45
6, 83264, Note_on_c, 4, 69, 0
6, 83264, Note_on_c, 4, 79, 0
6, 83328, Note_on_c, 4, 79, 45
6, 83472, Note_on_c, 4, 79, 0
6, 83472, Note_on_c, 4, 81, 45
6, 83496, Note_on_c, 4, 81, 0
6, 83496, Note_on_c, 4, 83, 45
6, 83520, Note_on_c, 4, 83, 0
6, 83520, Note_on_c, 4, 84, 45
6, 83680, Note_on_c, 4, 84, 0
6, 84192, Note_on_c, 4, 81, 45
6, 84224, Note_on_c, 4, 81, 0
6, 84288, Note_on_c, 4, 81, 45
6, 84320, Note_on_c, 4, 81, 0
6, 84384, Note_on_c, 4, 81, 45
6, 84416, Note_on_c, 4, 81, 0
6, 84480, Note_on_c, 4, 81, 45
6, 84624, Note_on_c, 4, 81, 0
6, 84624, Note_on_c, 4, 83, 45
6, 84648, Note_on_c, 4, 83, 0
6, 84648, Note_on_c, 4, 84, 45
6, 84672, Note_on_c, 4, 84, 0
6, 84672, Note_on_c, 4, 79, 45
6, 84672, Note_on_c, 4, 86, 45
6, 84832, Note_on_c, 4, 79, 0
6, 84832, Note_on_c, 4, 86, 0
6, 84864, Note_on_c, 4, 79, 45
6, 85008, Note_on_c, 4, 79, 0
6, 85008, Note_on_c, 4, 81, 45
6, 85032, Note_on_c, 4, 81, 0
6, 85032, Note_on_c, 4, 83, 45
6, 85056, Note_on_c, 4, 83, 0
6, 85056, Note_on_c, 4, 84, 45
6, 85150, Note_on_c, 4, 84, 0
6, 85152, Note_on_c, 4, 79, 45
6, 85246, Note_on_c, 4, 79, 0
6, 85248, Note_on_c, 4, 69, 45
6, 85248, Note_on_c, 4, 81, 45
6, 85280, Note_on_c, 4, 69, 0
6, 85280, Note_on_c, 4, 81, 0
6, 85344, Note_on_c, 4, 74, 45
6, 85344, Note_on_c, 4, 77, 45
6, 85376, Note_on_c, 4, 74, 0
6, 85376, Note_on_c, 4, 77, 0
6, 85440, Note_on_c, 4, 72, 45
6, 85440, Note_on_c, 4, 76, 45
6, 85472, Note_on_c, 4, 72, 0
6, 85472, Note_on_c, 4, 76, 0
6, 85536, Note_on_c, 4, 76, 45
6, 85536, Note_on_c, 4, 79, 45
6, 85568, Note_on_c, 4, 76, 0
6, 85568, Note_on_c, 4, 79, 0
6, 85632, Note_on_c, 4, 74, 45
6, 85632, Note_on_c, 4, 77, 45
6, 85664, Note_on_c, 4, 74, 0
6, 85664, Note_on_c, 4, 77, 0
6, 85728, Note_on_c, 4, 71, 45
6, 85728, Note_on_c, 4, 74, 45
6, 85760, Note_on_c, 4, 71, 0
6, 85760, Note_on_c, 4, 74, 0
6, 85824, Note_on_c, 4, 72, 92
6, 85918, Note_on_c, 4, 72, 0
6, 85920, Note_on_c, 4, 76, 92
6, 86014, Note_on_c, 4, 76, 0
6, 86016, Note_on_c, 4, 79, 92
6, 86110, Note_on_c, 4, 79, 0
6, 86112, Note_on_c, 4, 77, 92
6, 86206, Note_on_c, 4, 77, 0
6, 86208, Note_on_c, 4, 76, 92
6, 86302, Note_on_c, 4, 76, 0
6, 86304, Note_on_c, 4, 74, 92
6, 86398, Note_on_c, 4, 74, 0
6, 86496, Note_on_c, 4, 81, 92
6, 86528, Note_on_c, 4, 81, 0
6, 86592, Note_on_c, 4, 81, 92
6, 86624, Note_on_c, 4, 81, 0
6, 86688, Note_on_c, 4, 81, 92
6, 86720, Note_on_c, 4, 81, 0
6, 86784, Note_on_c, 4, 81, 92
6, 86928, Note_on_c, 4, 81, 0
6, 86928, Note_on_c, 4, 83, 92
6, 86952, Note_on_c, 4, 83, 0
6, 86952, Note_on_c, 4, 85, 92
6, 86976, Note_on_c, 4, 85, 0
6, 86976, Note_on_c, 4, 86, 92
6, 87136, Note_on_c, 4, 86, 0
6, 87648, Note_on_c, 4, 79, 92
6, 87680, Note_on_c, 4, 79, 0
6, 87744, Note_on_c, 4, 79, 92
6, 87776, Note_on_c, 4, 79, 0
6, 87840, Note_on_c, 4, 79, 92
6, 87872, Note_on_c, 4, 79, 0
6, 87936, Note_on_c, 4, 79, 92
6, 88078, Note_on_c, 4, 79, 0
6, 88080, Note_on_c, 4, 81, 92
6, 88102, Note_on_c, 4, 81, 0
6, 88104, Note_on_c, 4, 83, 92
6, 88126, Note_on_c, 4, 83, 0
6, 88128, Note_on_c, 4, 84, 92
6, 88288, Note_on_c, 4, 84, 0
6, 88800, Note_on_c, 4, 81, 92
6, 88832, Note_on_c, 4, 81, 0
6, 88896, Note_on_c, 4, 81, 92
6, 88928, Note_on_c, 4, 81, 0
6, 88992, Note_on_c, 4, 81, 92
6, 89024, Note_on_c, 4, 81, 0
6, 89088, Note_on_c, 4, 81, 92
6, 89232, Note_on_c, 4, 81, 0
6, 89232, Note_on_c, 4, 83, 92
6, 89256, Note_on_c, 4, 83, 0
6, 89256, Note_on_c, 4, 84, 92
6, 89280, Note_on_c, 4, 84, 0
6, 89280, Note_on_c, 4, 79, 92
6, 89280, Note_on_c, 4, 86, 92
6, 89440, Note_on_c, 4, 79, 0
6, 89440, Note_on_c, 4, 86, 0
6, 89472, Note_on_c, 4, 79, 92
6, 89616, Note_on_c, 4, 79, 0
6, 89616, Note_on_c, 4, 81, 92
6, 89640, Note_on_c, 4, 81, 0
6, 89640, Note_on_c, 4, 83, 92
6, 89664, Note_on_c, 4, 83, 0
6, 89664, Note_on_c, 4, 84, 92
6, 89758, Note_on_c, 4, 84, 0
6, 89760, Note_on_c, 4, 79, 92
6, 89792, Note_on_c, 4, 79, 0
6, 89856, Note_on_c, 4, 69, 92
6, 89856, Note_on_c, 4, 74, 92
6, 89856, Note_on_c, 4, 77, 92
6, 90016, Note_on_c, 4, 69, 0
6, 90016, Note_on_c, 4, 74, 0
6, 90016, Note_on_c, 4, 77, 0
6, 90048, Note_on_c, 4, 67, 92
6, 90048, Note_on_c, 4, 72, 92
6, 90048, Note_on_c, 4, 76, 92
6, 90208, Note_on_c, 4, 67, 0
6, 90208, Note_on_c, 4, 72, 0
6, 90208, Note_on_c, 4, 76, 0
6, 90240, Note_on_c, 4, 67, 92
6, 90240, Note_on_c, 4, 71, 92
6, 90240, Note_on_c, 4, 74, 92
6, 90400, Note_on_c, 4, 67, 0
6, 90400, Note_on_c, 4, 71, 0
6, 90400, Note_on_c, 4, 74, 0
6, 90432, Note_on_c, 4, 64, 92
6, 90432, Note_on_c, 4, 67, 92
6, 90432, Note_on_c, 4, 72, 92
6, 90526, Note_on_c, 4, 64, 0
6, 90526, Note_on_c, 4, 67, 0
6, 90526, Note_on_c, 4, 72, 0
6, 90528, Note_on_c, 4, 55, 92
6, 90560, Note_on_c, 4, 55, 0
6, 90624, Note_on_c, 4, 55, 92
6, 90656, Note_on_c, 4, 55, 0
6, 90720, Note_on_c, 4, 55, 92
6, 90752, Note_on_c, 4, 55, 0
6, 90816, Note_on_c, 4, 55, 92
6, 90960, Note_on_c, 4, 55, 0
6, 90960, Note_on_c, 4, 57, 92
6, 90984, Note_on_c, 4, 57, 0
6, 90984, Note_on_c, 4, 59, 92
6, 91008, Note_on_c, 4, 59, 0
6, 91008, Note_on_c, 4, 60, 92
6, 91102, Note_on_c, 4, 60, 0
6, 91104, Note_on_c, 4, 55, 92
6, 91136, Note_on_c, 4, 55, 0
6, 91200, Note_on_c, 4, 55, 92
6, 91232, Note_on_c, 4, 55, 0
6, 91296, Note_on_c, 4, 55, 92
6, 91328, Note_on_c, 4, 55, 0
6, 91392, Note_on_c, 4, 55, 92
6, 91536, Note_on_c, 4, 55, 0
6, 91536, Note_on_c, 4, 57, 92
6, 91560, Note_on_c, 4, 57, 0
6, 91560, Note_on_c, 4, 59, 92
6, 91584, Note_on_c, 4, 59, 0
6, 91584, Note_on_c, 4, 60, 92
6, 91678, Note_on_c, 4, 60, 0
6, 91680, Note_on_c, 4, 64, 92
6, 91774, Note_on_c, 4, 64, 0
6, 91776, Note_on_c, 4, 67, 92
6, 91870, Note_on_c, 4, 67, 0
6, 91872, Note_on_c, 4, 66, 92
6, 91966, Note_on_c, 4, 66, 0
6, 91968, Note_on_c, 4, 67, 92
6, 92062, Note_on_c, 4, 67, 0
6, 92064, Note_on_c, 4, 55, 92
6, 92158, Note_on_c, 4, 55, 0
6, 92160, Note_on_c, 4, 60, 92
6, 92254, Note_on_c, 4, 60, 0
6, 92256, Note_on_c, 4, 79, 92
6, 92288, Note_on_c, 4, 79, 0
6, 92352, Note_on_c, 4, 79, 92
6, 92384, Note_on_c, 4, 79, 0
6, 92448, Note_on_c, 4, 79, 92
6, 92480, Note_on_c, 4, 79, 0
6, 92544, Note_on_c, 4, 79, 92
6, 92688, Note_on_c, 4, 79, 0
6, 92688, Note_on_c, 4, 81, 92
6, 92712, Note_on_c, 4, 81, 0
6, 92712, Note_on_c, 4, 83, 92
6, 92736, Note_on_c, 4, 83, 0
6, 92736, Note_on_c, 4, 84, 92
6, 92830, Note_on_c, 4, 84, 0
6, 92832, Note_on_c, 4, 79, 92
6, 92864, Note_on_c, 4, 79, 0
6, 92928, Note_on_c, 4, 79, 92
6, 92960, Note_on_c, 4, 79, 0
6, 93024, Note_on_c, 4, 79, 92
6, 93056, Note_on_c, 4, 79, 0
6, 93120, Note_on_c, 4, 79, 92
6, 93262, Note_on_c, 4, 79, 0
6, 93264, Note_on_c, 4, 81, 92
6, 93286, Note_on_c, 4, 81, 0
6, 93288, Note_on_c, 4, 83, 92
6, 93310, Note_on_c, 4, 83, 0
6, 93312, Note_on_c, 4, 84, 92
6, 93472, Note_on_c, 4, 84, 0
6, 93504, Note_on_c, 4, 60, 92
6, 93504, Note_on_c, 4, 67, 92
6, 93664, Note_on_c, 4, 60, 0
6, 93664, Note_on_c, 4, 67, 0
6, 93696, Note_on_c, 4, 59, 92
6, 93696, Note_on_c, 4, 62, 92
6, 93696, Note_on_c, 4, 67, 92
6, 93696, Note_on_c, 4, 71, 92
6, 93856, Note_on_c, 4, 59, 0
6, 93856, Note_on_c, 4, 62, 0
6, 93856, Note_on_c, 4, 67, 0
6, 93856, Note_on_c, 4, 71, 0
6, 93888, Note_on_c, 4, 60, 92
6, 93888, Note_on_c, 4, 64, 92
6, 93888, Note_on_c, 4, 67, 92
6, 93888, Note_on_c, 4, 72, 92
6, 94048, Note_on_c, 4, 60, 0
6, 94048, Note_on_c, 4, 64, 0
6, 94048, Note_on_c, 4, 67, 0
6, 94048, Note_on_c, 4, 72, 0
6, 94048, End_track
7, 0, Start_track
7, 0, MIDI_port, 0
7, 0, Title_t, "Staff-6"
7, 0, Control_c, 5, 7, 127
7, 0, Control_c, 5, 10, 64
7, 0, Program_c, 5, 0
7, 0, Note_on_c, 5, 64, 92
7, 0, Note_on_c, 5, 67, 92
7, 528, Note_on_c, 5, 64, 0
7, 528, Note_on_c, 5, 67, 0
7, 2304, Note_on_c, 5, 67, 92
7, 2304, Note_on_c, 5, 74, 92
7, 2832, Note_on_c, 5, 67, 0
7, 2832, Note_on_c, 5, 74, 0
7, 15360, Note_on_c, 5, 69, 92
7, 15392, Note_on_c, 5, 69, 0
7, 15456, Note_on_c, 5, 79, 92
7, 15488, Note_on_c, 5, 79, 0
7, 16512, Note_on_c, 5, 69, 92
7, 16544, Note_on_c, 5, 69, 0
7, 16608, Note_on_c, 5, 79, 92
7, 16640, Note_on_c, 5, 79, 0
7, 18816, Note_on_c, 5, 67, 92
7, 18848, Note_on_c, 5, 67, 0
7, 18912, Note_on_c, 5, 77, 92
7, 18944, Note_on_c, 5, 77, 0
7, 19968, Note_on_c, 5, 67, 92
7, 20000, Note_on_c, 5, 67, 0
7, 20064, Note_on_c, 5, 77, 92
7, 20096, Note_on_c, 5, 77, 0
7, 21312, Note_on_c, 5, 67, 92
7, 21406, Note_on_c, 5, 67, 0
7, 21408, Note_on_c, 5, 67, 92
7, 21568, Note_on_c, 5, 67, 0
7, 21600, Note_on_c, 5, 71, 92
7, 21600, Note_on_c, 5, 76, 92
7, 21760, Note_on_c, 5, 71, 0
7, 21760, Note_on_c, 5, 76, 0
7, 21792, Note_on_c, 5, 71, 92
7, 21886, Note_on_c, 5, 71, 0
7, 22464, Note_on_c, 5, 69, 92
7, 22558, Note_on_c, 5, 69, 0
7, 22560, Note_on_c, 5, 65, 92
7, 22720, Note_on_c, 5, 65, 0
7, 22752, Note_on_c, 5, 69, 92
7, 22752, Note_on_c, 5, 74, 92
7, 22912, Note_on_c, 5, 69, 0
7, 22912, Note_on_c, 5, 74, 0
7, 22944, Note_on_c, 5, 69, 92
7, 23038, Note_on_c, 5, 69, 0
7, 23616, Note_on_c, 5, 60, 92
7, 23616, Note_on_c, 5, 67, 92
7, 23710, Note_on_c, 5, 60, 0
7, 23710, Note_on_c, 5, 67, 0
7, 23712, Note_on_c, 5, 67, 92
7, 23872, Note_on_c, 5, 67, 0
7, 23904, Note_on_c, 5, 67, 92
7, 23904, Note_on_c, 5, 72, 92
7, 24064, Note_on_c, 5, 67, 0
7, 24064, Note_on_c, 5, 72, 0
7, 24096, Note_on_c, 5, 67, 92
7, 24190, Note_on_c, 5, 67, 0
7, 27648, Note_on_c, 5, 76, 92
7, 27808, Note_on_c, 5, 76, 0
7, 27840, Note_on_c, 5, 74, 92
7, 28176, Note_on_c, 5, 74, 0
7, 33600, Note_on_c, 5, 74, 92
7, 33856, Note_on_c, 5, 74, 0
7, 33888, Note_on_c, 5, 72, 92
7, 33982, Note_on_c, 5, 72, 0
7, 35904, Note_on_c, 5, 62, 92
7, 35904, Note_on_c, 5, 67, 92
7, 35904, Note_on_c, 5, 74, 92
7, 36240, Note_on_c, 5, 62, 0
7, 36240, Note_on_c, 5, 67, 0
7, 36240, Note_on_c, 5, 74, 0
7, 36480, Note_on_c, 5, 62, 92
7, 36480, Note_on_c, 5, 67, 92
7, 36480, Note_on_c, 5, 74, 92
7, 36816, Note_on_c, 5, 62, 0
7, 36816, Note_on_c, 5, 67, 0
7, 36816, Note_on_c, 5, 74, 0
7, 37056, Note_on_c, 5, 68, 92
7, 37056, Note_on_c, 5, 74, 92
7, 37216, Note_on_c, 5, 68, 0
7, 37216, Note_on_c, 5, 74, 0
7, 38592, Note_on_c, 5, 64, 127
7, 38592, Note_on_c, 5, 76, 127
7, 38752, Note_on_c, 5, 64, 0
7, 38752, Note_on_c, 5, 76, 0
7, 39552, Note_on_c, 5, 64, 92
7, 39646, Note_on_c, 5, 64, 0
7, 39648, Note_on_c, 5, 74, 92
7, 39742, Note_on_c, 5, 74, 0
7, 40704, Note_on_c, 5, 64, 92
7, 40798, Note_on_c, 5, 64, 0
7, 40800, Note_on_c, 5, 74, 92
7, 40894, Note_on_c, 5, 74, 0
7, 48384, Note_on_c, 5, 69, 92
7, 48384, Note_on_c, 5, 76, 92
7, 48720, Note_on_c, 5, 69, 0
7, 48720, Note_on_c, 5, 76, 0
7, 51072, Note_on_c, 5, 69, 92
7, 51166, Note_on_c, 5, 69, 0
7, 51168, Note_on_c, 5, 79, 92
7, 51262, Note_on_c, 5, 79, 0
7, 55680, Note_on_c, 5, 67, 92
7, 55774, Note_on_c, 5, 67, 0
7, 55776, Note_on_c, 5, 77, 92
7, 55870, Note_on_c, 5, 77, 0
7, 56832, Note_on_c, 5, 67, 92
7, 56926, Note_on_c, 5, 67, 0
7, 56928, Note_on_c, 5, 77, 92
7, 57022, Note_on_c, 5, 77, 0
7, 58176, Note_on_c, 5, 64, 92
7, 58176, Note_on_c, 5, 71, 92
7, 58270, Note_on_c, 5, 64, 0
7, 58270, Note_on_c, 5, 71, 0
7, 58272, Note_on_c, 5, 64, 92
7, 58272, Note_on_c, 5, 71, 92
7, 58432, Note_on_c, 5, 64, 0
7, 58432, Note_on_c, 5, 71, 0
7, 58464, Note_on_c, 5, 71, 92
7, 58464, Note_on_c, 5, 76, 92
7, 58624, Note_on_c, 5, 71, 0
7, 58624, Note_on_c, 5, 76, 0
7, 58656, Note_on_c, 5, 71, 92
7, 58750, Note_on_c, 5, 71, 0
7, 59328, Note_on_c, 5, 62, 92
7, 59328, Note_on_c, 5, 69, 92
7, 59422, Note_on_c, 5, 62, 0
7, 59422, Note_on_c, 5, 69, 0
7, 59424, Note_on_c, 5, 62, 92
7, 59424, Note_on_c, 5, 69, 92
7, 59584, Note_on_c, 5, 62, 0
7, 59584, Note_on_c, 5, 69, 0
7, 59616, Note_on_c, 5, 69, 92
7, 59616, Note_on_c, 5, 74, 92
7, 59776, Note_on_c, 5, 69, 0
7, 59776, Note_on_c, 5, 74, 0
7, 59808, Note_on_c, 5, 69, 92
7, 59902, Note_on_c, 5, 69, 0
7, 60480, Note_on_c, 5, 60, 92
7, 60480, Note_on_c, 5, 67, 92
7, 60574, Note_on_c, 5, 60, 0
7, 60574, Note_on_c, 5, 67, 0
7, 60576, Note_on_c, 5, 60, 92
7, 60576, Note_on_c, 5, 67, 92
7, 60736, Note_on_c, 5, 60, 0
7, 60736, Note_on_c, 5, 67, 0
7, 60768, Note_on_c, 5, 67, 92
7, 60768, Note_on_c, 5, 72, 92
7, 60928, Note_on_c, 5, 67, 0
7, 60928, Note_on_c, 5, 72, 0
7, 60960, Note_on_c, 5, 67, 92
7, 61054, Note_on_c, 5, 67, 0
7, 63936, Note_on_c, 5, 67, 92
7, 64096, Note_on_c, 5, 67, 0
7, 64128, Note_on_c, 5, 66, 92
7, 64414, Note_on_c, 5, 66, 0
7, 64416, Note_on_c, 5, 69, 92
7, 64510, Note_on_c, 5, 69, 0
7, 67392, Note_on_c, 5, 65, 45
7, 67728, Note_on_c, 5, 65, 0
7, 68544, Note_on_c, 5, 67, 45
7, 68880, Note_on_c, 5, 67, 0
7, 72000, Note_on_c, 5, 62, 45
7, 72256, Note_on_c, 5, 62, 0
7, 72288, Note_on_c, 5, 67, 45
7, 72382, Note_on_c, 5, 67, 0
7, 72384, Note_on_c, 5, 62, 45
7, 72478, Note_on_c, 5, 62, 0
7, 72480, Note_on_c, 5, 59, 45
7, 72574, Note_on_c, 5, 59, 0
7, 73920, Note_on_c, 5, 69, 92
7, 73920, Note_on_c, 5, 72, 92
7, 74080, Note_on_c, 5, 69, 0
7, 74080, Note_on_c, 5, 72, 0
7, 74112, Note_on_c, 5, 69, 92
7, 74272, Note_on_c, 5, 69, 0
7, 75072, Note_on_c, 5, 67, 92
7, 75408, Note_on_c, 5, 67, 0
7, 82176, Note_on_c, 5, 69, 45
7, 82270, Note_on_c, 5, 69, 0
7, 82272, Note_on_c, 5, 79, 45
7, 82366, Note_on_c, 5, 79, 0
7, 83328, Note_on_c, 5, 67, 45
7, 83422, Note_on_c, 5, 67, 0
7, 83424, Note_on_c, 5, 77, 45
7, 83518, Note_on_c, 5, 77, 0
7, 83520, Note_on_c, 5, 76, 45
7, 83614, Note_on_c, 5, 76, 0
7, 83616, Note_on_c, 5, 79, 45
7, 83710, Note_on_c, 5, 79, 0
7, 83712, Note_on_c, 5, 76, 45
7, 83806, Note_on_c, 5, 76, 0
7, 83808, Note_on_c, 5, 74, 45
7, 83902, Note_on_c, 5, 74, 0
7, 83904, Note_on_c, 5, 72, 45
7, 83998, Note_on_c, 5, 72, 0
7, 84000, Note_on_c, 5, 71, 45
7, 84094, Note_on_c, 5, 71, 0
7, 84096, Note_on_c, 5, 69, 45
7, 84128, Note_on_c, 5, 69, 0
7, 84192, Note_on_c, 5, 72, 45
7, 84224, Note_on_c, 5, 72, 0
7, 84288, Note_on_c, 5, 75, 45
7, 84320, Note_on_c, 5, 75, 0
7, 84384, Note_on_c, 5, 72, 45
7, 84416, Note_on_c, 5, 72, 0
7, 84480, Note_on_c, 5, 75, 45
7, 84574, Note_on_c, 5, 75, 0
7, 84576, Note_on_c, 5, 81, 45
7, 84670, Note_on_c, 5, 81, 0
7, 84672, Note_on_c, 5, 53, 45
7, 84864, Note_on_c, 5, 71, 45
7, 84958, Note_on_c, 5, 71, 0
7, 84960, Note_on_c, 5, 74, 45
7, 85008, Note_on_c, 5, 53, 0
7, 85054, Note_on_c, 5, 74, 0
7, 85056, Note_on_c, 5, 52, 45
7, 85056, Note_on_c, 5, 76, 45
7, 85150, Note_on_c, 5, 76, 0
7, 85152, Note_on_c, 5, 76, 45
7, 85216, Note_on_c, 5, 52, 0
7, 85246, Note_on_c, 5, 76, 0
7, 85824, Note_on_c, 5, 72, 92
7, 85984, Note_on_c, 5, 72, 0
7, 86400, Note_on_c, 5, 73, 92
7, 86494, Note_on_c, 5, 73, 0
7, 86496, Note_on_c, 5, 74, 92
7, 86590, Note_on_c, 5, 74, 0
7, 86592, Note_on_c, 5, 73, 92
7, 86686, Note_on_c, 5, 73, 0
7, 86688, Note_on_c, 5, 70, 92
7, 86782, Note_on_c, 5, 70, 0
7, 86784, Note_on_c, 5, 69, 92
7, 86878, Note_on_c, 5, 69, 0
7, 86880, Note_on_c, 5, 79, 92
7, 86974, Note_on_c, 5, 79, 0
7, 86976, Note_on_c, 5, 78, 92
7, 87070, Note_on_c, 5, 78, 0
7, 87072, Note_on_c, 5, 81, 92
7, 87166, Note_on_c, 5, 81, 0
7, 87168, Note_on_c, 5, 78, 92
7, 87262, Note_on_c, 5, 78, 0
7, 87264, Note_on_c, 5, 75, 92
7, 87358, Note_on_c, 5, 75, 0
7, 87360, Note_on_c, 5, 74, 92
7, 87454, Note_on_c, 5, 74, 0
7, 87456, Note_on_c, 5, 72, 92
7, 87550, Note_on_c, 5, 72, 0
7, 87552, Note_on_c, 5, 71, 92
7, 87646, Note_on_c, 5, 71, 0
7, 87648, Note_on_c, 5, 72, 92
7, 87742, Note_on_c, 5, 72, 0
7, 87744, Note_on_c, 5, 71, 92
7, 87838, Note_on_c, 5, 71, 0
7, 87840, Note_on_c, 5, 69, 92
7, 87934, Note_on_c, 5, 69, 0
7, 87936, Note_on_c, 5, 67, 92
7, 88030, Note_on_c, 5, 67, 0
7, 88032, Note_on_c, 5, 77, 92
7, 88126, Note_on_c, 5, 77, 0
7, 88128, Note_on_c, 5, 76, 92
7, 88222, Note_on_c, 5, 76, 0
7, 88224, Note_on_c, 5, 79, 92
7, 88318, Note_on_c, 5, 79, 0
7, 88320, Note_on_c, 5, 76, 92
7, 88414, Note_on_c, 5, 76, 0
7, 88416, Note_on_c, 5, 74, 92
7, 88510, Note_on_c, 5, 74, 0
7, 88512, Note_on_c, 5, 72, 92
7, 88606, Note_on_c, 5, 72, 0
7, 88608, Note_on_c, 5, 71, 92
7, 88702, Note_on_c, 5, 71, 0
7, 88704, Note_on_c, 5, 53, 92
7, 88704, Note_on_c, 5, 69, 92
7, 88798, Note_on_c, 5, 69, 0
7, 88800, Note_on_c, 5, 72, 92
7, 88894, Note_on_c, 5, 72, 0
7, 88896, Note_on_c, 5, 75, 92
7, 88990, Note_on_c, 5, 75, 0
7, 88992, Note_on_c, 5, 72, 92
7, 89040, Note_on_c, 5, 53, 0
7, 89086, Note_on_c, 5, 72, 0
7, 89088, Note_on_c, 5, 51, 92
7, 89088, Note_on_c, 5, 75, 92
7, 89182, Note_on_c, 5, 75, 0
7, 89184, Note_on_c, 5, 81, 92
7, 89248, Note_on_c, 5, 51, 0
7, 89278, Note_on_c, 5, 81, 0
7, 89472, Note_on_c, 5, 71, 92
7, 89566, Note_on_c, 5, 71, 0
7, 89568, Note_on_c, 5, 74, 92
7, 89662, Note_on_c, 5, 74, 0
7, 89664, Note_on_c, 5, 76, 92
7, 89758, Note_on_c, 5, 76, 0
7, 89760, Note_on_c, 5, 76, 92
7, 89854, Note_on_c, 5, 76, 0
7, 90624, Note_on_c, 5, 53, 92
7, 90960, Note_on_c, 5, 53, 0
7, 91008, Note_on_c, 5, 52, 92
7, 91008, Note_on_c, 5, 55, 92
7, 91168, Note_on_c, 5, 52, 0
7, 91168, Note_on_c, 5, 55, 0
7, 91200, Note_on_c, 5, 53, 92
7, 91536, Note_on_c, 5, 53, 0
7, 91776, Note_on_c, 5, 62, 92
7, 92112, Note_on_c, 5, 62, 0
7, 92112, End_track
8, 0, Start_track
8, 0, MIDI_port, 0
8, 0, Title_t, "Staff-7"
8, 0, Control_c, 6, 7, 127
8, 0, Control_c, 6, 10, 64
8, 0, Program_c, 6, 0
8, 0, Note_on_c, 6, 36, 92
8, 0, Note_on_c, 6, 48, 92
8, 94, Note_on_c, 6, 36, 0
8, 94, Note_on_c, 6, 48, 0
8, 96, Note_on_c, 6, 36, 92
8, 96, Note_on_c, 6, 48, 92
8, 190, Note_on_c, 6, 36, 0
8, 190, Note_on_c, 6, 48, 0
8, 192, Note_on_c, 6, 36, 92
8, 192, Note_on_c, 6, 48, 92
8, 286, Note_on_c, 6, 36, 0
8, 286, Note_on_c, 6, 48, 0
8, 288, Note_on_c, 6, 36, 92
8, 288, Note_on_c, 6, 48, 92
8, 382, Note_on_c, 6, 36, 0
8, 382, Note_on_c, 6, 48, 0
8, 384, Note_on_c, 6, 36, 92
8, 384, Note_on_c, 6, 48, 92
8, 478, Note_on_c, 6, 36, 0
8, 478, Note_on_c, 6, 48, 0
8, 480, Note_on_c, 6, 36, 92
8, 480, Note_on_c, 6, 48, 92
8, 574, Note_on_c, 6, 36, 0
8, 574, Note_on_c, 6, 48, 0
8, 576, Note_on_c, 6, 38, 92
8, 576, Note_on_c, 6, 50, 92
8, 736, Note_on_c, 6, 38, 0
8, 736, Note_on_c, 6, 50, 0
8, 2304, Note_on_c, 6, 35, 92
8, 2304, Note_on_c, 6, 47, 92
8, 2398, Note_on_c, 6, 35, 0
8, 2398, Note_on_c, 6, 47, 0
8, 2400, Note_on_c, 6, 35, 92
8, 2400, Note_on_c, 6, 47, 92
8, 2494, Note_on_c, 6, 35, 0
8, 2494, Note_on_c, 6, 47, 0
8, 2496, Note_on_c, 6, 35, 92
8, 2496, Note_on_c, 6, 47, 92
8, 2590, Note_on_c, 6, 35, 0
8, 2590, Note_on_c, 6, 47, 0
8, 2592, Note_on_c, 6, 35, 92
8, 2592, Note_on_c, 6, 47, 92
8, 2686, Note_on_c, 6, 35, 0
8, 2686, Note_on_c, 6, 47, 0
8, 2688, Note_on_c, 6, 35, 92
8, 2688, Note_on_c, 6, 47, 92
8, 2782, Note_on_c, 6, 35, 0
8, 2782, Note_on_c, 6, 47, 0
8, 2784, Note_on_c, 6, 35, 92
8, 2784, Note_on_c, 6, 47, 92
8, 2878, Note_on_c, 6, 35, 0
8, 2878, Note_on_c, 6, 47, 0
8, 2880, Note_on_c, 6, 36, 92
8, 2880, Note_on_c, 6, 48, 92
8, 3040, Note_on_c, 6, 36, 0
8, 3040, Note_on_c, 6, 48, 0
8, 4608, Note_on_c, 6, 36, 92
8, 4608, Note_on_c, 6, 48, 92
8, 4702, Note_on_c, 6, 36, 0
8, 4702, Note_on_c, 6, 48, 0
8, 4704, Note_on_c, 6, 36, 92
8, 4704, Note_on_c, 6, 48, 92
8, 4798, Note_on_c, 6, 36, 0
8, 4798, Note_on_c, 6, 48, 0
8, 4800, Note_on_c, 6, 36, 92
8, 4800, Note_on_c, 6, 48, 92
8, 4894, Note_on_c, 6, 36, 0
8, 4894, Note_on_c, 6, 48, 0
8, 4896, Note_on_c, 6, 36, 92
8, 4896, Note_on_c, 6, 48, 92
8, 4990, Note_on_c, 6, 36, 0
8, 4990, Note_on_c, 6, 48, 0
8, 4992, Note_on_c, 6, 36, 92
8, 4992, Note_on_c, 6, 48, 92
8, 5086, Note_on_c, 6, 36, 0
8, 5086, Note_on_c, 6, 48, 0
8, 5088, Note_on_c, 6, 36, 92
8, 5088, Note_on_c, 6, 48, 92
8, 5182, Note_on_c, 6, 36, 0
8, 5182, Note_on_c, 6, 48, 0
8, 5184, Note_on_c, 6, 36, 92
8, 5184, Note_on_c, 6, 48, 92
8, 5344, Note_on_c, 6, 36, 0
8, 5344, Note_on_c, 6, 48, 0
8, 5376, Note_on_c, 6, 36, 92
8, 5376, Note_on_c, 6, 48, 92
8, 5536, Note_on_c, 6, 36, 0
8, 5536, Note_on_c, 6, 48, 0
8, 5952, Note_on_c, 6, 40, 92
8, 5952, Note_on_c, 6, 52, 92
8, 6112, Note_on_c, 6, 40, 0
8, 6112, Note_on_c, 6, 52, 0
8, 6144, Note_on_c, 6, 41, 92
8, 6144, Note_on_c, 6, 53, 92
8, 6304, Note_on_c, 6, 41, 0
8, 6304, Note_on_c, 6, 53, 0
8, 6336, Note_on_c, 6, 43, 92
8, 6336, Note_on_c, 6, 55, 92
8, 6496, Note_on_c, 6, 43, 0
8, 6496, Note_on_c, 6, 55, 0
8, 6528, Note_on_c, 6, 31, 92
8, 6528, Note_on_c, 6, 43, 92
8, 6688, Note_on_c, 6, 31, 0
8, 6688, Note_on_c, 6, 43, 0
8, 7104, Note_on_c, 6, 45, 92
8, 7104, Note_on_c, 6, 57, 92
8, 7264, Note_on_c, 6, 45, 0
8, 7264, Note_on_c, 6, 57, 0
8, 7296, Note_on_c, 6, 47, 92
8, 7296, Note_on_c, 6, 59, 92
8, 7456, Note_on_c, 6, 47, 0
8, 7456, Note_on_c, 6, 59, 0
8, 7488, Note_on_c, 6, 48, 92
8, 7488, Note_on_c, 6, 60, 92
8, 7648, Note_on_c, 6, 48, 0
8, 7648, Note_on_c, 6, 60, 0
8, 7680, Note_on_c, 6, 36, 92
8, 7680, Note_on_c, 6, 48, 92
8, 7840, Note_on_c, 6, 36, 0
8, 7840, Note_on_c, 6, 48, 0
8, 8256, Note_on_c, 6, 60, 92
8, 8416, Note_on_c, 6, 60, 0
8, 8448, Note_on_c, 6, 57, 92
8, 8448, Note_on_c, 6, 60, 92
8, 8448, Note_on_c, 6, 65, 92
8, 8608, Note_on_c, 6, 57, 0
8, 8608, Note_on_c, 6, 60, 0
8, 8608, Note_on_c, 6, 65, 0
8, 8832, Note_on_c, 6, 59, 92
8, 8992, Note_on_c, 6, 59, 0
8, 9024, Note_on_c, 6, 55, 92
8, 9024, Note_on_c, 6, 59, 92
8, 9024, Note_on_c, 6, 64, 92
8, 9184, Note_on_c, 6, 55, 0
8, 9184, Note_on_c, 6, 59, 0
8, 9184, Note_on_c, 6, 64, 0
8, 9408, Note_on_c, 6, 57, 92
8, 9568, Note_on_c, 6, 57, 0
8, 9600, Note_on_c, 6, 53, 92
8, 9600, Note_on_c, 6, 57, 92
8, 9600, Note_on_c, 6, 62, 92
8, 9760, Note_on_c, 6, 53, 0
8, 9760, Note_on_c, 6, 57, 0
8, 9760, Note_on_c, 6, 62, 0
8, 9792, Note_on_c, 6, 55, 92
8, 9952, Note_on_c, 6, 55, 0
8, 9984, Note_on_c, 6, 53, 92
8, 9984, Note_on_c, 6, 62, 92
8, 10078, Note_on_c, 6, 53, 0
8, 10078, Note_on_c, 6, 62, 0
8, 10080, Note_on_c, 6, 55, 92
8, 10174, Note_on_c, 6, 55, 0
8, 10176, Note_on_c, 6, 52, 92
8, 10176, Note_on_c, 6, 60, 92
8, 10270, Note_on_c, 6, 52, 0
8, 10270, Note_on_c, 6, 60, 0
8, 10272, Note_on_c, 6, 55, 92
8, 10366, Note_on_c, 6, 55, 0
8, 10368, Note_on_c, 6, 43, 92
8, 10368, Note_on_c, 6, 55, 92
8, 10528, Note_on_c, 6, 43, 0
8, 10528, Note_on_c, 6, 55, 0
8, 10560, Note_on_c, 6, 47, 92
8, 10654, Note_on_c, 6, 47, 0
8, 10656, Note_on_c, 6, 45, 92
8, 10702, Note_on_c, 6, 45, 0
8, 10704, Note_on_c, 6, 43, 92
8, 10750, Note_on_c, 6, 43, 0
8, 10752, Note_on_c, 6, 48, 92
8, 10846, Note_on_c, 6, 48, 0
8, 10848, Note_on_c, 6, 52, 92
8, 10942, Note_on_c, 6, 52, 0
8, 10944, Note_on_c, 6, 43, 92
8, 10944, Note_on_c, 6, 55, 92
8, 11104, Note_on_c, 6, 43, 0
8, 11104, Note_on_c, 6, 55, 0
8, 11136, Note_on_c, 6, 53, 92
8, 11136, Note_on_c, 6, 62, 92
8, 11230, Note_on_c, 6, 53, 0
8, 11230, Note_on_c, 6, 62, 0
8, 11232, Note_on_c, 6, 55, 92
8, 11326, Note_on_c, 6, 55, 0
8, 11328, Note_on_c, 6, 52, 92
8, 11328, Note_on_c, 6, 60, 92
8, 11422, Note_on_c, 6, 52, 0
8, 11422, Note_on_c, 6, 60, 0
8, 11424, Note_on_c, 6, 55, 92
8, 11518, Note_on_c, 6, 55, 0
8, 11520, Note_on_c, 6, 43, 92
8, 11520, Note_on_c, 6, 55, 92
8, 11680, Note_on_c, 6, 43, 0
8, 11680, Note_on_c, 6, 55, 0
8, 11712, Note_on_c, 6, 47, 92
8, 11806, Note_on_c, 6, 47, 0
8, 11808, Note_on_c, 6, 45, 92
8, 11854, Note_on_c, 6, 45, 0
8, 11856, Note_on_c, 6, 43, 92
8, 11902, Note_on_c, 6, 43, 0
8, 11904, Note_on_c, 6, 48, 92
8, 11998, Note_on_c, 6, 48, 0
8, 12000, Note_on_c, 6, 52, 92
8, 12094, Note_on_c, 6, 52, 0
8, 12096, Note_on_c, 6, 55, 92
8, 12256, Note_on_c, 6, 55, 0
8, 12288, Note_on_c, 6, 59, 92
8, 12382, Note_on_c, 6, 59, 0
8, 12384, Note_on_c, 6, 57, 92
8, 12430, Note_on_c, 6, 57, 0
8, 12432, Note_on_c, 6, 55, 92
8, 12478, Note_on_c, 6, 55, 0
8, 12480, Note_on_c, 6, 60, 92
8, 12574, Note_on_c, 6, 60, 0
8, 12576, Note_on_c, 6, 55, 92
8, 12670, Note_on_c, 6, 55, 0
8, 12672, Note_on_c, 6, 55, 92
8, 12672, Note_on_c, 6, 67, 92
8, 12766, Note_on_c, 6, 55, 0
8, 12766, Note_on_c, 6, 67, 0
8, 12768, Note_on_c, 6, 55, 92
8, 12768, Note_on_c, 6, 67, 92
8, 12862, Note_on_c, 6, 55, 0
8, 12862, Note_on_c, 6, 67, 0
8, 12864, Note_on_c, 6, 52, 92
8, 12864, Note_on_c, 6, 64, 92
8, 12958, Note_on_c, 6, 52, 0
8, 12958, Note_on_c, 6, 64, 0
8, 12960, Note_on_c, 6, 52, 92
8, 12960, Note_on_c, 6, 64, 92
8, 13054, Note_on_c, 6, 52, 0
8, 13054, Note_on_c, 6, 64, 0
8, 13056, Note_on_c, 6, 48, 92
8, 13056, Note_on_c, 6, 60, 92
8, 13150, Note_on_c, 6, 48, 0
8, 13150, Note_on_c, 6, 60, 0
8, 13152, Note_on_c, 6, 48, 92
8, 13152, Note_on_c, 6, 60, 92
8, 13246, Note_on_c, 6, 48, 0
8, 13246, Note_on_c, 6, 60, 0
8, 13248, Note_on_c, 6, 43, 92
8, 13248, Note_on_c, 6, 55, 92
8, 13408, Note_on_c, 6, 43, 0
8, 13408, Note_on_c, 6, 55, 0
8, 14496, Note_on_c, 6, 65, 92
8, 14528, Note_on_c, 6, 65, 0
8, 14592, Note_on_c, 6, 64, 92
8, 14624, Note_on_c, 6, 64, 0
8, 14688, Note_on_c, 6, 62, 92
8, 14720, Note_on_c, 6, 62, 0
8, 14784, Note_on_c, 6, 61, 92
8, 14816, Note_on_c, 6, 61, 0
8, 14880, Note_on_c, 6, 58, 92
8, 14912, Note_on_c, 6, 58, 0
8, 14976, Note_on_c, 6, 57, 92
8, 15008, Note_on_c, 6, 57, 0
8, 15072, Note_on_c, 6, 58, 92
8, 15104, Note_on_c, 6, 58, 0
8, 15168, Note_on_c, 6, 57, 92
8, 15200, Note_on_c, 6, 57, 0
8, 15264, Note_on_c, 6, 55, 92
8, 15296, Note_on_c, 6, 55, 0
8, 15360, Note_on_c, 6, 53, 92
8, 15392, Note_on_c, 6, 53, 0
8, 15456, Note_on_c, 6, 52, 92
8, 15488, Note_on_c, 6, 52, 0
8, 15552, Note_on_c, 6, 50, 92
8, 15584, Note_on_c, 6, 50, 0
8, 15648, Note_on_c, 6, 65, 92
8, 15680, Note_on_c, 6, 65, 0
8, 15744, Note_on_c, 6, 64, 92
8, 15776, Note_on_c, 6, 64, 0
8, 15840, Note_on_c, 6, 62, 92
8, 15872, Note_on_c, 6, 62, 0
8, 15936, Note_on_c, 6, 61, 92
8, 15968, Note_on_c, 6, 61, 0
8, 16032, Note_on_c, 6, 58, 92
8, 16064, Note_on_c, 6, 58, 0
8, 16128, Note_on_c, 6, 57, 92
8, 16160, Note_on_c, 6, 57, 0
8, 16224, Note_on_c, 6, 58, 92
8, 16256, Note_on_c, 6, 58, 0
8, 16320, Note_on_c, 6, 57, 92
8, 16352, Note_on_c, 6, 57, 0
8, 16416, Note_on_c, 6, 55, 92
8, 16448, Note_on_c, 6, 55, 0
8, 16512, Note_on_c, 6, 53, 92
8, 16544, Note_on_c, 6, 53, 0
8, 16608, Note_on_c, 6, 52, 92
8, 16640, Note_on_c, 6, 52, 0
8, 16704, Note_on_c, 6, 50, 92
8, 16864, Note_on_c, 6, 50, 0
8, 17952, Note_on_c, 6, 64, 92
8, 17984, Note_on_c, 6, 64, 0
8, 18048, Note_on_c, 6, 62, 92
8, 18080, Note_on_c, 6, 62, 0
8, 18144, Note_on_c, 6, 60, 92
8, 18176, Note_on_c, 6, 60, 0
8, 18240, Note_on_c, 6, 59, 92
8, 18272, Note_on_c, 6, 59, 0
8, 18336, Note_on_c, 6, 57, 92
8, 18368, Note_on_c, 6, 57, 0
8, 18432, Note_on_c, 6, 55, 92
8, 18464, Note_on_c, 6, 55, 0
8, 18528, Note_on_c, 6, 57, 92
8, 18560, Note_on_c, 6, 57, 0
8, 18624, Note_on_c, 6, 55, 92
8, 18656, Note_on_c, 6, 55, 0
8, 18720, Note_on_c, 6, 53, 92
8, 18752, Note_on_c, 6, 53, 0
8, 18816, Note_on_c, 6, 52, 92
8, 18848, Note_on_c, 6, 52, 0
8, 18912, Note_on_c, 6, 50, 92
8, 18944, Note_on_c, 6, 50, 0
8, 19008, Note_on_c, 6, 48, 92
8, 19040, Note_on_c, 6, 48, 0
8, 19104, Note_on_c, 6, 64, 92
8, 19136, Note_on_c, 6, 64, 0
8, 19200, Note_on_c, 6, 62, 92
8, 19232, Note_on_c, 6, 62, 0
8, 19296, Note_on_c, 6, 60, 92
8, 19328, Note_on_c, 6, 60, 0
8, 19392, Note_on_c, 6, 59, 92
8, 19424, Note_on_c, 6, 59, 0
8, 19488, Note_on_c, 6, 57, 92
8, 19520, Note_on_c, 6, 57, 0
8, 19584, Note_on_c, 6, 55, 92
8, 19616, Note_on_c, 6, 55, 0
8, 19680, Note_on_c, 6, 57, 92
8, 19712, Note_on_c, 6, 57, 0
8, 19776, Note_on_c, 6, 55, 92
8, 19808, Note_on_c, 6, 55, 0
8, 19872, Note_on_c, 6, 53, 92
8, 19904, Note_on_c, 6, 53, 0
8, 19968, Note_on_c, 6, 52, 92
8, 20000, Note_on_c, 6, 52, 0
8, 20064, Note_on_c, 6, 50, 92
8, 20096, Note_on_c, 6, 50, 0
8, 20160, Note_on_c, 6, 48, 92
8, 20254, Note_on_c, 6, 48, 0
8, 20256, Note_on_c, 6, 60, 92
8, 20350, Note_on_c, 6, 60, 0
8, 20352, Note_on_c, 6, 48, 92
8, 20446, Note_on_c, 6, 48, 0
8, 20448, Note_on_c, 6, 60, 92
8, 20542, Note_on_c, 6, 60, 0
8, 20544, Note_on_c, 6, 48, 92
8, 20638, Note_on_c, 6, 48, 0
8, 20640, Note_on_c, 6, 60, 92
8, 20734, Note_on_c, 6, 60, 0
8, 20736, Note_on_c, 6, 48, 92
8, 20830, Note_on_c, 6, 48, 0
8, 20832, Note_on_c, 6, 60, 92
8, 20926, Note_on_c, 6, 60, 0
8, 20928, Note_on_c, 6, 48, 92
8, 21022, Note_on_c, 6, 48, 0
8, 21024, Note_on_c, 6, 60, 92
8, 21118, Note_on_c, 6, 60, 0
8, 21120, Note_on_c, 6, 48, 92
8, 21214, Note_on_c, 6, 48, 0
8, 21216, Note_on_c, 6, 60, 92
8, 21310, Note_on_c, 6, 60, 0
8, 21312, Note_on_c, 6, 43, 92
8, 21406, Note_on_c, 6, 43, 0
8, 21408, Note_on_c, 6, 55, 92
8, 21502, Note_on_c, 6, 55, 0
8, 21504, Note_on_c, 6, 43, 92
8, 21598, Note_on_c, 6, 43, 0
8, 21600, Note_on_c, 6, 55, 92
8, 21694, Note_on_c, 6, 55, 0
8, 21696, Note_on_c, 6, 43, 92
8, 21790, Note_on_c, 6, 43, 0
8, 21792, Note_on_c, 6, 55, 92
8, 21886, Note_on_c, 6, 55, 0
8, 21888, Note_on_c, 6, 46, 92
8, 21982, Note_on_c, 6, 46, 0
8, 21984, Note_on_c, 6, 58, 92
8, 22078, Note_on_c, 6, 58, 0
8, 22080, Note_on_c, 6, 46, 92
8, 22174, Note_on_c, 6, 46, 0
8, 22176, Note_on_c, 6, 58, 92
8, 22270, Note_on_c, 6, 58, 0
8, 22272, Note_on_c, 6, 46, 92
8, 22366, Note_on_c, 6, 46, 0
8, 22368, Note_on_c, 6, 58, 92
8, 22462, Note_on_c, 6, 58, 0
8, 22464, Note_on_c, 6, 41, 92
8, 22558, Note_on_c, 6, 41, 0
8, 22560, Note_on_c, 6, 53, 92
8, 22654, Note_on_c, 6, 53, 0
8, 22656, Note_on_c, 6, 41, 92
8, 22750, Note_on_c, 6, 41, 0
8, 22752, Note_on_c, 6, 53, 92
8, 22846, Note_on_c, 6, 53, 0
8, 22848, Note_on_c, 6, 41, 92
8, 22942, Note_on_c, 6, 41, 0
8, 22944, Note_on_c, 6, 53, 92
8, 23038, Note_on_c, 6, 53, 0
8, 23040, Note_on_c, 6, 44, 92
8, 23134, Note_on_c, 6, 44, 0
8, 23136, Note_on_c, 6, 56, 92
8, 23230, Note_on_c, 6, 56, 0
8, 23232, Note_on_c, 6, 44, 92
8, 23326, Note_on_c, 6, 44, 0
8, 23328, Note_on_c, 6, 56, 92
8, 23422, Note_on_c, 6, 56, 0
8, 23424, Note_on_c, 6, 44, 92
8, 23518, Note_on_c, 6, 44, 0
8, 23520, Note_on_c, 6, 56, 92
8, 23614, Note_on_c, 6, 56, 0
8, 23616, Note_on_c, 6, 39, 92
8, 23710, Note_on_c, 6, 39, 0
8, 23712, Note_on_c, 6, 51, 92
8, 23806, Note_on_c, 6, 51, 0
8, 23808, Note_on_c, 6, 39, 92
8, 23902, Note_on_c, 6, 39, 0
8, 23904, Note_on_c, 6, 51, 92
8, 23998, Note_on_c, 6, 51, 0
8, 24000, Note_on_c, 6, 39, 92
8, 24094, Note_on_c, 6, 39, 0
8, 24096, Note_on_c, 6, 51, 92
8, 24190, Note_on_c, 6, 51, 0
8, 24192, Note_on_c, 6, 38, 92
8, 24286, Note_on_c, 6, 38, 0
8, 24288, Note_on_c, 6, 50, 92
8, 24382, Note_on_c, 6, 50, 0
8, 24384, Note_on_c, 6, 38, 92
8, 24478, Note_on_c, 6, 38, 0
8, 24480, Note_on_c, 6, 50, 92
8, 24574, Note_on_c, 6, 50, 0
8, 24576, Note_on_c, 6, 38, 92
8, 24670, Note_on_c, 6, 38, 0
8, 24672, Note_on_c, 6, 50, 92
8, 24766, Note_on_c, 6, 50, 0
8, 24768, Note_on_c, 6, 38, 92
8, 24862, Note_on_c, 6, 38, 0
8, 24864, Note_on_c, 6, 50, 92
8, 24958, Note_on_c, 6, 50, 0
8, 24960, Note_on_c, 6, 38, 92
8, 25054, Note_on_c, 6, 38, 0
8, 25056, Note_on_c, 6, 50, 92
8, 25150, Note_on_c, 6, 50, 0
8, 25152, Note_on_c, 6, 38, 92
8, 25246, Note_on_c, 6, 38, 0
8, 25248, Note_on_c, 6, 50, 92
8, 25342, Note_on_c, 6, 50, 0
8, 25344, Note_on_c, 6, 38, 92
8, 25438, Note_on_c, 6, 38, 0
8, 25440, Note_on_c, 6, 50, 92
8, 25534, Note_on_c, 6, 50, 0
8, 25536, Note_on_c, 6, 38, 92
8, 25630, Note_on_c, 6, 38, 0
8, 25632, Note_on_c, 6, 50, 92
8, 25726, Note_on_c, 6, 50, 0
8, 25728, Note_on_c, 6, 38, 92
8, 25822, Note_on_c, 6, 38, 0
8, 25824, Note_on_c, 6, 50, 92
8, 25918, Note_on_c, 6, 50, 0
8, 25920, Note_on_c, 6, 38, 92
8, 26014, Note_on_c, 6, 38, 0
8, 26016, Note_on_c, 6, 50, 92
8, 26110, Note_on_c, 6, 50, 0
8, 26112, Note_on_c, 6, 38, 92
8, 26206, Note_on_c, 6, 38, 0
8, 26208, Note_on_c, 6, 50, 92
8, 26302, Note_on_c, 6, 50, 0
8, 26304, Note_on_c, 6, 38, 92
8, 26398, Note_on_c, 6, 38, 0
8, 26400, Note_on_c, 6, 50, 92
8, 26494, Note_on_c, 6, 50, 0
8, 26496, Note_on_c, 6, 43, 92
8, 26590, Note_on_c, 6, 43, 0
8, 26592, Note_on_c, 6, 55, 92
8, 26686, Note_on_c, 6, 55, 0
8, 26688, Note_on_c, 6, 43, 92
8, 26782, Note_on_c, 6, 43, 0
8, 26784, Note_on_c, 6, 55, 92
8, 26878, Note_on_c, 6, 55, 0
8, 26880, Note_on_c, 6, 42, 92
8, 26974, Note_on_c, 6, 42, 0
8, 26976, Note_on_c, 6, 54, 92
8, 27070, Note_on_c, 6, 54, 0
8, 27072, Note_on_c, 6, 40, 92
8, 27166, Note_on_c, 6, 40, 0
8, 27168, Note_on_c, 6, 52, 92
8, 27262, Note_on_c, 6, 52, 0
8, 27264, Note_on_c, 6, 40, 92
8, 27358, Note_on_c, 6, 40, 0
8, 27360, Note_on_c, 6, 52, 92
8, 27454, Note_on_c, 6, 52, 0
8, 27456, Note_on_c, 6, 35, 92
8, 27550, Note_on_c, 6, 35, 0
8, 27552, Note_on_c, 6, 47, 92
8, 27646, Note_on_c, 6, 47, 0
8, 27648, Note_on_c, 6, 36, 92
8, 27742, Note_on_c, 6, 36, 0
8, 27744, Note_on_c, 6, 48, 92
8, 27838, Note_on_c, 6, 48, 0
8, 27840, Note_on_c, 6, 38, 92
8, 27934, Note_on_c, 6, 38, 0
8, 27936, Note_on_c, 6, 50, 92
8, 28030, Note_on_c, 6, 50, 0
8, 28032, Note_on_c, 6, 38, 92
8, 28126, Note_on_c, 6, 38, 0
8, 28128, Note_on_c, 6, 50, 92
8, 28222, Note_on_c, 6, 50, 0
8, 28224, Note_on_c, 6, 43, 92
8, 28384, Note_on_c, 6, 43, 0
8, 28416, Note_on_c, 6, 43, 92
8, 28448, Note_on_c, 6, 43, 0
8, 28512, Note_on_c, 6, 45, 92
8, 28544, Note_on_c, 6, 45, 0
8, 28560, Note_on_c, 6, 47, 92
8, 28592, Note_on_c, 6, 47, 0
8, 28608, Note_on_c, 6, 48, 92
8, 28640, Note_on_c, 6, 48, 0
8, 28656, Note_on_c, 6, 50, 92
8, 28688, Note_on_c, 6, 50, 0
8, 28704, Note_on_c, 6, 52, 92
8, 28736, Note_on_c, 6, 52, 0
8, 28752, Note_on_c, 6, 54, 92
8, 28784, Note_on_c, 6, 54, 0
8, 28800, Note_on_c, 6, 55, 92
8, 28832, Note_on_c, 6, 55, 0
8, 28896, Note_on_c, 6, 55, 92
8, 28928, Note_on_c, 6, 55, 0
8, 28992, Note_on_c, 6, 55, 92
8, 29024, Note_on_c, 6, 55, 0
8, 29088, Note_on_c, 6, 55, 92
8, 29120, Note_on_c, 6, 55, 0
8, 29184, Note_on_c, 6, 55, 92
8, 29216, Note_on_c, 6, 55, 0
8, 29280, Note_on_c, 6, 55, 92
8, 29312, Note_on_c, 6, 55, 0
8, 29376, Note_on_c, 6, 47, 92
8, 29408, Note_on_c, 6, 47, 0
8, 29472, Note_on_c, 6, 47, 92
8, 29504, Note_on_c, 6, 47, 0
8, 29568, Note_on_c, 6, 47, 92
8, 29600, Note_on_c, 6, 47, 0
8, 29664, Note_on_c, 6, 47, 92
8, 29696, Note_on_c, 6, 47, 0
8, 29760, Note_on_c, 6, 52, 92
8, 29792, Note_on_c, 6, 52, 0
8, 29856, Note_on_c, 6, 52, 92
8, 29888, Note_on_c, 6, 52, 0
8, 29952, Note_on_c, 6, 49, 92
8, 29984, Note_on_c, 6, 49, 0
8, 30048, Note_on_c, 6, 49, 92
8, 30080, Note_on_c, 6, 49, 0
8, 30144, Note_on_c, 6, 49, 92
8, 30176, Note_on_c, 6, 49, 0
8, 30240, Note_on_c, 6, 49, 92
8, 30272, Note_on_c, 6, 49, 0
8, 30336, Note_on_c, 6, 49, 92
8, 30368, Note_on_c, 6, 49, 0
8, 30432, Note_on_c, 6, 49, 92
8, 30464, Note_on_c, 6, 49, 0
8, 30528, Note_on_c, 6, 50, 92
8, 30688, Note_on_c, 6, 50, 0
8, 31104, Note_on_c, 6, 50, 45
8, 31104, Note_on_c, 6, 62, 45
8, 31264, Note_on_c, 6, 50, 0
8, 31264, Note_on_c, 6, 62, 0
8, 31680, Note_on_c, 6, 50, 45
8, 31680, Note_on_c, 6, 62, 45
8, 31840, Note_on_c, 6, 50, 0
8, 31840, Note_on_c, 6, 62, 0
8, 32256, Note_on_c, 6, 50, 45
8, 32256, Note_on_c, 6, 62, 45
8, 32416, Note_on_c, 6, 50, 0
8, 32416, Note_on_c, 6, 62, 0
8, 32832, Note_on_c, 6, 55, 45
8, 32992, Note_on_c, 6, 55, 0
8, 33600, Note_on_c, 6, 47, 92
8, 33600, Note_on_c, 6, 59, 92
8, 33648, Note_on_c, 6, 47, 0
8, 33648, Note_on_c, 6, 59, 0
8, 33792, Note_on_c, 6, 48, 92
8, 33792, Note_on_c, 6, 60, 92
8, 33840, Note_on_c, 6, 48, 0
8, 33840, Note_on_c, 6, 60, 0
8, 33984, Note_on_c, 6, 50, 92
8, 33984, Note_on_c, 6, 62, 92
8, 34144, Note_on_c, 6, 50, 0
8, 34144, Note_on_c, 6, 62, 0
8, 34176, Note_on_c, 6, 38, 92
8, 34176, Note_on_c, 6, 50, 92
8, 34336, Note_on_c, 6, 38, 0
8, 34336, Note_on_c, 6, 50, 0
8, 34752, Note_on_c, 6, 40, 92
8, 34752, Note_on_c, 6, 52, 92
8, 34800, Note_on_c, 6, 40, 0
8, 34800, Note_on_c, 6, 52, 0
8, 34944, Note_on_c, 6, 42, 92
8, 34944, Note_on_c, 6, 54, 92
8, 34992, Note_on_c, 6, 42, 0
8, 34992, Note_on_c, 6, 54, 0
8, 35136, Note_on_c, 6, 43, 92
8, 35136, Note_on_c, 6, 55, 92
8, 35184, Note_on_c, 6, 43, 0
8, 35184, Note_on_c, 6, 55, 0
8, 35328, Note_on_c, 6, 31, 92
8, 35328, Note_on_c, 6, 43, 92
8, 35376, Note_on_c, 6, 31, 0
8, 35376, Note_on_c, 6, 43, 0
8, 35904, Note_on_c, 6, 47, 92
8, 35904, Note_on_c, 6, 59, 92
8, 35952, Note_on_c, 6, 47, 0
8, 35952, Note_on_c, 6, 59, 0
8, 36096, Note_on_c, 6, 43, 92
8, 36096, Note_on_c, 6, 55, 92
8, 36144, Note_on_c, 6, 43, 0
8, 36144, Note_on_c, 6, 55, 0
8, 36480, Note_on_c, 6, 47, 92
8, 36480, Note_on_c, 6, 59, 92
8, 36528, Note_on_c, 6, 47, 0
8, 36528, Note_on_c, 6, 59, 0
8, 36672, Note_on_c, 6, 41, 92
8, 36672, Note_on_c, 6, 53, 92
8, 36720, Note_on_c, 6, 41, 0
8, 36720, Note_on_c, 6, 53, 0
8, 37056, Note_on_c, 6, 47, 92
8, 37056, Note_on_c, 6, 59, 92
8, 37216, Note_on_c, 6, 47, 0
8, 37216, Note_on_c, 6, 59, 0
8, 37248, Note_on_c, 6, 40, 92
8, 37248, Note_on_c, 6, 52, 92
8, 37408, Note_on_c, 6, 40, 0
8, 37408, Note_on_c, 6, 52, 0
8, 37440, Note_on_c, 6, 39, 92
8, 37534, Note_on_c, 6, 39, 0
8, 37536, Note_on_c, 6, 51, 92
8, 37630, Note_on_c, 6, 51, 0
8, 37632, Note_on_c, 6, 39, 92
8, 37726, Note_on_c, 6, 39, 0
8, 37728, Note_on_c, 6, 51, 92
8, 37822, Note_on_c, 6, 51, 0
8, 37824, Note_on_c, 6, 39, 92
8, 37918, Note_on_c, 6, 39, 0
8, 37920, Note_on_c, 6, 51, 92
8, 38014, Note_on_c, 6, 51, 0
8, 38016, Note_on_c, 6, 36, 92
8, 38016, Note_on_c, 6, 48, 92
8, 38176, Note_on_c, 6, 36, 0
8, 38176, Note_on_c, 6, 48, 0
8, 38592, Note_on_c, 6, 45, 92
8, 38592, Note_on_c, 6, 57, 92
8, 38686, Note_on_c, 6, 45, 0
8, 38686, Note_on_c, 6, 57, 0
8, 38688, Note_on_c, 6, 60, 92
8, 38782, Note_on_c, 6, 60, 0
8, 38784, Note_on_c, 6, 59, 92
8, 38878, Note_on_c, 6, 59, 0
8, 38880, Note_on_c, 6, 57, 92
8, 38974, Note_on_c, 6, 57, 0
8, 38976, Note_on_c, 6, 56, 92
8, 39070, Note_on_c, 6, 56, 0
8, 39072, Note_on_c, 6, 53, 92
8, 39166, Note_on_c, 6, 53, 0
8, 39168, Note_on_c, 6, 52, 92
8, 39262, Note_on_c, 6, 52, 0
8, 39264, Note_on_c, 6, 53, 92
8, 39358, Note_on_c, 6, 53, 0
8, 39360, Note_on_c, 6, 52, 92
8, 39454, Note_on_c, 6, 52, 0
8, 39456, Note_on_c, 6, 50, 92
8, 39550, Note_on_c, 6, 50, 0
8, 39552, Note_on_c, 6, 48, 92
8, 39646, Note_on_c, 6, 48, 0
8, 39648, Note_on_c, 6, 47, 92
8, 39742, Note_on_c, 6, 47, 0
8, 39744, Note_on_c, 6, 45, 92
8, 39838, Note_on_c, 6, 45, 0
8, 39840, Note_on_c, 6, 60, 92
8, 39934, Note_on_c, 6, 60, 0
8, 39936, Note_on_c, 6, 59, 92
8, 40030, Note_on_c, 6, 59, 0
8, 40032, Note_on_c, 6, 57, 92
8, 40126, Note_on_c, 6, 57, 0
8, 40128, Note_on_c, 6, 56, 92
8, 40222, Note_on_c, 6, 56, 0
8, 40224, Note_on_c, 6, 53, 92
8, 40318, Note_on_c, 6, 53, 0
8, 40320, Note_on_c, 6, 52, 92
8, 40414, Note_on_c, 6, 52, 0
8, 40416, Note_on_c, 6, 53, 92
8, 40510, Note_on_c, 6, 53, 0
8, 40512, Note_on_c, 6, 52, 92
8, 40606, Note_on_c, 6, 52, 0
8, 40608, Note_on_c, 6, 50, 92
8, 40702, Note_on_c, 6, 50, 0
8, 40704, Note_on_c, 6, 48, 92
8, 40798, Note_on_c, 6, 48, 0
8, 40800, Note_on_c, 6, 47, 92
8, 40894, Note_on_c, 6, 47, 0
8, 40896, Note_on_c, 6, 45, 92
8, 40896, Note_on_c, 6, 57, 92
8, 41056, Note_on_c, 6, 45, 0
8, 41056, Note_on_c, 6, 57, 0
8, 41088, Note_on_c, 6, 57, 92
8, 41182, Note_on_c, 6, 57, 0
8, 41184, Note_on_c, 6, 45, 92
8, 41278, Note_on_c, 6, 45, 0
8, 41280, Note_on_c, 6, 57, 92
8, 41374, Note_on_c, 6, 57, 0
8, 41376, Note_on_c, 6, 45, 92
8, 41470, Note_on_c, 6, 45, 0
8, 41472, Note_on_c, 6, 57, 92
8, 41566, Note_on_c, 6, 57, 0
8, 41568, Note_on_c, 6, 45, 92
8, 41662, Note_on_c, 6, 45, 0
8, 41664, Note_on_c, 6, 57, 92
8, 41664, Note_on_c, 6, 60, 92
8, 41758, Note_on_c, 6, 57, 0
8, 41758, Note_on_c, 6, 60, 0
8, 41760, Note_on_c, 6, 56, 92
8, 41760, Note_on_c, 6, 59, 92
8, 41854, Note_on_c, 6, 56, 0
8, 41854, Note_on_c, 6, 59, 0
8, 41856, Note_on_c, 6, 57, 92
8, 41856, Note_on_c, 6, 60, 92
8, 41950, Note_on_c, 6, 57, 0
8, 41950, Note_on_c, 6, 60, 0
8, 41952, Note_on_c, 6, 56, 92
8, 41952, Note_on_c, 6, 59, 92
8, 42046, Note_on_c, 6, 56, 0
8, 42046, Note_on_c, 6, 59, 0
8, 42048, Note_on_c, 6, 57, 92
8, 42142, Note_on_c, 6, 57, 0
8, 42144, Note_on_c, 6, 45, 92
8, 42238, Note_on_c, 6, 45, 0
8, 42240, Note_on_c, 6, 57, 92
8, 42240, Note_on_c, 6, 60, 92
8, 42334, Note_on_c, 6, 57, 0
8, 42334, Note_on_c, 6, 60, 0
8, 42336, Note_on_c, 6, 56, 92
8, 42336, Note_on_c, 6, 59, 92
8, 42430, Note_on_c, 6, 56, 0
8, 42430, Note_on_c, 6, 59, 0
8, 42432, Note_on_c, 6, 57, 92
8, 42432, Note_on_c, 6, 60, 92
8, 42526, Note_on_c, 6, 57, 0
8, 42526, Note_on_c, 6, 60, 0
8, 42528, Note_on_c, 6, 56, 92
8, 42528, Note_on_c, 6, 59, 92
8, 42622, Note_on_c, 6, 56, 0
8, 42622, Note_on_c, 6, 59, 0
8, 42624, Note_on_c, 6, 57, 92
8, 42624, Note_on_c, 6, 60, 92
8, 42960, Note_on_c, 6, 57, 0
8, 42960, Note_on_c, 6, 60, 0
8, 43008, Note_on_c, 6, 59, 92
8, 43168, Note_on_c, 6, 59, 0
8, 43200, Note_on_c, 6, 48, 127
8, 43294, Note_on_c, 6, 48, 0
8, 43296, Note_on_c, 6, 60, 92
8, 43390, Note_on_c, 6, 60, 0
8, 43392, Note_on_c, 6, 48, 92
8, 43486, Note_on_c, 6, 48, 0
8, 43488, Note_on_c, 6, 60, 92
8, 43582, Note_on_c, 6, 60, 0
8, 43584, Note_on_c, 6, 48, 92
8, 43678, Note_on_c, 6, 48, 0
8, 43680, Note_on_c, 6, 60, 92
8, 43774, Note_on_c, 6, 60, 0
8, 43776, Note_on_c, 6, 44, 127
8, 43870, Note_on_c, 6, 44, 0
8, 43872, Note_on_c, 6, 56, 92
8, 43966, Note_on_c, 6, 56, 0
8, 43968, Note_on_c, 6, 44, 92
8, 44062, Note_on_c, 6, 44, 0
8, 44064, Note_on_c, 6, 56, 92
8, 44158, Note_on_c, 6, 56, 0
8, 44160, Note_on_c, 6, 44, 92
8, 44254, Note_on_c, 6, 44, 0
8, 44256, Note_on_c, 6, 56, 92
8, 44350, Note_on_c, 6, 56, 0
8, 44352, Note_on_c, 6, 46, 127
8, 44446, Note_on_c, 6, 46, 0
8, 44448, Note_on_c, 6, 58, 92
8, 44542, Note_on_c, 6, 58, 0
8, 44544, Note_on_c, 6, 46, 92
8, 44638, Note_on_c, 6, 46, 0
8, 44640, Note_on_c, 6, 58, 92
8, 44734, Note_on_c, 6, 58, 0
8, 44736, Note_on_c, 6, 46, 92
8, 44830, Note_on_c, 6, 46, 0
8, 44832, Note_on_c, 6, 58, 92
8, 44926, Note_on_c, 6, 58, 0
8, 44928, Note_on_c, 6, 42, 127
8, 45022, Note_on_c, 6, 42, 0
8, 45024, Note_on_c, 6, 54, 92
8, 45118, Note_on_c, 6, 54, 0
8, 45120, Note_on_c, 6, 42, 92
8, 45214, Note_on_c, 6, 42, 0
8, 45216, Note_on_c, 6, 54, 92
8, 45310, Note_on_c, 6, 54, 0
8, 45312, Note_on_c, 6, 42, 92
8, 45406, Note_on_c, 6, 42, 0
8, 45408, Note_on_c, 6, 54, 92
8, 45502, Note_on_c, 6, 54, 0
8, 45504, Note_on_c, 6, 44, 92
8, 45598, Note_on_c, 6, 44, 0
8, 45600, Note_on_c, 6, 56, 92
8, 45694, Note_on_c, 6, 56, 0
8, 45696, Note_on_c, 6, 44, 92
8, 45790, Note_on_c, 6, 44, 0
8, 45792, Note_on_c, 6, 56, 92
8, 45886, Note_on_c, 6, 56, 0
8, 45888, Note_on_c, 6, 45, 92
8, 45982, Note_on_c, 6, 45, 0
8, 45984, Note_on_c, 6, 57, 92
8, 46078, Note_on_c, 6, 57, 0
8, 46080, Note_on_c, 6, 39, 92
8, 46174, Note_on_c, 6, 39, 0
8, 46176, Note_on_c, 6, 51, 92
8, 46270, Note_on_c, 6, 51, 0
8, 46272, Note_on_c, 6, 40, 92
8, 46366, Note_on_c, 6, 40, 0
8, 46368, Note_on_c, 6, 52, 92
8, 46462, Note_on_c, 6, 52, 0
8, 46464, Note_on_c, 6, 40, 92
8, 46558, Note_on_c, 6, 40, 0
8, 46560, Note_on_c, 6, 52, 92
8, 46654, Note_on_c, 6, 52, 0
8, 46656, Note_on_c, 6, 33, 92
8, 46656, Note_on_c, 6, 45, 92
8, 46816, Note_on_c, 6, 33, 0
8, 46816, Note_on_c, 6, 45, 0
8, 46848, Note_on_c, 6, 45, 92
8, 46942, Note_on_c, 6, 45, 0
8, 46944, Note_on_c, 6, 47, 92
8, 46990, Note_on_c, 6, 47, 0
8, 46992, Note_on_c, 6, 48, 92
8, 47038, Note_on_c, 6, 48, 0
8, 47040, Note_on_c, 6, 50, 92
8, 47086, Note_on_c, 6, 50, 0
8, 47088, Note_on_c, 6, 52, 92
8, 47134, Note_on_c, 6, 52, 0
8, 47136, Note_on_c, 6, 53, 92
8, 47182, Note_on_c, 6, 53, 0
8, 47184, Note_on_c, 6, 56, 92
8, 47230, Note_on_c, 6, 56, 0
8, 47232, Note_on_c, 6, 57, 92
8, 47392, Note_on_c, 6, 57, 0
8, 47424, Note_on_c, 6, 45, 92
8, 47518, Note_on_c, 6, 45, 0
8, 47520, Note_on_c, 6, 57, 92
8, 47614, Note_on_c, 6, 57, 0
8, 47616, Note_on_c, 6, 45, 92
8, 47710, Note_on_c, 6, 45, 0
8, 47712, Note_on_c, 6, 57, 92
8, 47806, Note_on_c, 6, 57, 0
8, 47808, Note_on_c, 6, 46, 92
8, 47902, Note_on_c, 6, 46, 0
8, 47904, Note_on_c, 6, 58, 92
8, 47998, Note_on_c, 6, 58, 0
8, 48000, Note_on_c, 6, 46, 92
8, 48094, Note_on_c, 6, 46, 0
8, 48096, Note_on_c, 6, 58, 92
8, 48190, Note_on_c, 6, 58, 0
8, 48192, Note_on_c, 6, 46, 92
8, 48286, Note_on_c, 6, 46, 0
8, 48288, Note_on_c, 6, 58, 92
8, 48382, Note_on_c, 6, 58, 0
8, 48384, Note_on_c, 6, 37, 92
8, 48478, Note_on_c, 6, 37, 0
8, 48480, Note_on_c, 6, 49, 92
8, 48574, Note_on_c, 6, 49, 0
8, 48576, Note_on_c, 6, 37, 92
8, 48670, Note_on_c, 6, 37, 0
8, 48672, Note_on_c, 6, 49, 92
8, 48766, Note_on_c, 6, 49, 0
8, 48768, Note_on_c, 6, 37, 92
8, 48862, Note_on_c, 6, 37, 0
8, 48864, Note_on_c, 6, 49, 92
8, 48958, Note_on_c, 6, 49, 0
8, 48960, Note_on_c, 6, 38, 92
8, 48960, Note_on_c, 6, 50, 92
8, 49008, Note_on_c, 6, 38, 0
8, 49008, Note_on_c, 6, 50, 0
8, 49152, Note_on_c, 6, 43, 92
8, 49152, Note_on_c, 6, 55, 92
8, 49200, Note_on_c, 6, 43, 0
8, 49200, Note_on_c, 6, 55, 0
8, 49344, Note_on_c, 6, 44, 92
8, 49344, Note_on_c, 6, 56, 92
8, 49392, Note_on_c, 6, 44, 0
8, 49392, Note_on_c, 6, 56, 0
8, 49536, Note_on_c, 6, 45, 92
8, 49536, Note_on_c, 6, 57, 92
8, 49584, Note_on_c, 6, 45, 0
8, 49584, Note_on_c, 6, 57, 0
8, 49728, Note_on_c, 6, 33, 92
8, 49728, Note_on_c, 6, 45, 92
8, 49888, Note_on_c, 6, 33, 0
8, 49888, Note_on_c, 6, 45, 0
8, 49920, Note_on_c, 6, 34, 92
8, 49920, Note_on_c, 6, 46, 92
8, 50080, Note_on_c, 6, 34, 0
8, 50080, Note_on_c, 6, 46, 0
8, 50112, Note_on_c, 6, 33, 92
8, 50112, Note_on_c, 6, 45, 92
8, 50206, Note_on_c, 6, 33, 0
8, 50206, Note_on_c, 6, 45, 0
8, 50208, Note_on_c, 6, 65, 92
8, 50302, Note_on_c, 6, 65, 0
8, 50304, Note_on_c, 6, 64, 92
8, 50398, Note_on_c, 6, 64, 0
8, 50400, Note_on_c, 6, 62, 92
8, 50494, Note_on_c, 6, 62, 0
8, 50496, Note_on_c, 6, 61, 92
8, 50590, Note_on_c, 6, 61, 0
8, 50592, Note_on_c, 6, 58, 92
8, 50686, Note_on_c, 6, 58, 0
8, 50688, Note_on_c, 6, 57, 92
8, 50782, Note_on_c, 6, 57, 0
8, 50784, Note_on_c, 6, 58, 92
8, 50878, Note_on_c, 6, 58, 0
8, 50880, Note_on_c, 6, 57, 92
8, 50974, Note_on_c, 6, 57, 0
8, 50976, Note_on_c, 6, 55, 92
8, 51070, Note_on_c, 6, 55, 0
8, 51072, Note_on_c, 6, 53, 92
8, 51166, Note_on_c, 6, 53, 0
8, 51168, Note_on_c, 6, 52, 92
8, 51262, Note_on_c, 6, 52, 0
8, 51264, Note_on_c, 6, 50, 92
8, 51358, Note_on_c, 6, 50, 0
8, 51360, Note_on_c, 6, 65, 92
8, 51454, Note_on_c, 6, 65, 0
8, 51456, Note_on_c, 6, 64, 92
8, 51550, Note_on_c, 6, 64, 0
8, 51552, Note_on_c, 6, 62, 92
8, 51646, Note_on_c, 6, 62, 0
8, 51648, Note_on_c, 6, 61, 92
8, 51742, Note_on_c, 6, 61, 0
8, 51744, Note_on_c, 6, 58, 92
8, 51838, Note_on_c, 6, 58, 0
8, 51840, Note_on_c, 6, 57, 92
8, 51934, Note_on_c, 6, 57, 0
8, 51936, Note_on_c, 6, 58, 92
8, 52030, Note_on_c, 6, 58, 0
8, 52032, Note_on_c, 6, 57, 92
8, 52126, Note_on_c, 6, 57, 0
8, 52128, Note_on_c, 6, 55, 92
8, 52222, Note_on_c, 6, 55, 0
8, 52224, Note_on_c, 6, 53, 92
8, 52318, Note_on_c, 6, 53, 0
8, 52320, Note_on_c, 6, 52, 92
8, 52414, Note_on_c, 6, 52, 0
8, 52416, Note_on_c, 6, 50, 92
8, 52576, Note_on_c, 6, 50, 0
8, 52608, Note_on_c, 6, 62, 92
8, 52768, Note_on_c, 6, 62, 0
8, 52800, Note_on_c, 6, 62, 92
8, 52960, Note_on_c, 6, 62, 0
8, 52992, Note_on_c, 6, 62, 92
8, 53086, Note_on_c, 6, 62, 0
8, 53088, Note_on_c, 6, 50, 92
8, 53182, Note_on_c, 6, 50, 0
8, 53184, Note_on_c, 6, 62, 92
8, 53278, Note_on_c, 6, 62, 0
8, 53280, Note_on_c, 6, 61, 92
8, 53374, Note_on_c, 6, 61, 0
8, 53376, Note_on_c, 6, 62, 92
8, 53470, Note_on_c, 6, 62, 0
8, 53472, Note_on_c, 6, 61, 92
8, 53566, Note_on_c, 6, 61, 0
8, 53568, Note_on_c, 6, 62, 92
8, 53662, Note_on_c, 6, 62, 0
8, 53664, Note_on_c, 6, 50, 92
8, 53758, Note_on_c, 6, 50, 0
8, 53760, Note_on_c, 6, 62, 92
8, 53854, Note_on_c, 6, 62, 0
8, 53856, Note_on_c, 6, 61, 92
8, 53950, Note_on_c, 6, 61, 0
8, 53952, Note_on_c, 6, 62, 92
8, 54046, Note_on_c, 6, 62, 0
8, 54048, Note_on_c, 6, 61, 92
8, 54142, Note_on_c, 6, 61, 0
8, 54144, Note_on_c, 6, 62, 92
8, 54238, Note_on_c, 6, 62, 0
8, 54240, Note_on_c, 6, 50, 92
8, 54334, Note_on_c, 6, 50, 0
8, 54336, Note_on_c, 6, 59, 92
8, 54430, Note_on_c, 6, 59, 0
8, 54432, Note_on_c, 6, 47, 92
8, 54526, Note_on_c, 6, 47, 0
8, 54528, Note_on_c, 6, 56, 92
8, 54622, Note_on_c, 6, 56, 0
8, 54624, Note_on_c, 6, 44, 92
8, 54718, Note_on_c, 6, 44, 0
8, 54720, Note_on_c, 6, 55, 92
8, 54814, Note_on_c, 6, 55, 0
8, 54816, Note_on_c, 6, 64, 92
8, 54910, Note_on_c, 6, 64, 0
8, 54912, Note_on_c, 6, 62, 92
8, 55006, Note_on_c, 6, 62, 0
8, 55008, Note_on_c, 6, 60, 92
8, 55102, Note_on_c, 6, 60, 0
8, 55104, Note_on_c, 6, 59, 92
8, 55198, Note_on_c, 6, 59, 0
8, 55200, Note_on_c, 6, 57, 92
8, 55294, Note_on_c, 6, 57, 0
8, 55296, Note_on_c, 6, 55, 92
8, 55390, Note_on_c, 6, 55, 0
8, 55392, Note_on_c, 6, 57, 92
8, 55486, Note_on_c, 6, 57, 0
8, 55488, Note_on_c, 6, 55, 92
8, 55582, Note_on_c, 6, 55, 0
8, 55584, Note_on_c, 6, 53, 92
8, 55678, Note_on_c, 6, 53, 0
8, 55680, Note_on_c, 6, 52, 92
8, 55774, Note_on_c, 6, 52, 0
8, 55776, Note_on_c, 6, 50, 92
8, 55870, Note_on_c, 6, 50, 0
8, 55872, Note_on_c, 6, 55, 92
8, 55966, Note_on_c, 6, 55, 0
8, 55968, Note_on_c, 6, 64, 92
8, 56062, Note_on_c, 6, 64, 0
8, 56064, Note_on_c, 6, 62, 92
8, 56158, Note_on_c, 6, 62, 0
8, 56160, Note_on_c, 6, 60, 92
8, 56254, Note_on_c, 6, 60, 0
8, 56256, Note_on_c, 6, 59, 92
8, 56350, Note_on_c, 6, 59, 0
8, 56352, Note_on_c, 6, 57, 92
8, 56446, Note_on_c, 6, 57, 0
8, 56448, Note_on_c, 6, 55, 92
8, 56542, Note_on_c, 6, 55, 0
8, 56544, Note_on_c, 6, 57, 92
8, 56638, Note_on_c, 6, 57, 0
8, 56640, Note_on_c, 6, 55, 92
8, 56734, Note_on_c, 6, 55, 0
8, 56736, Note_on_c, 6, 53, 92
8, 56830, Note_on_c, 6, 53, 0
8, 56832, Note_on_c, 6, 52, 92
8, 56926, Note_on_c, 6, 52, 0
8, 56928, Note_on_c, 6, 50, 92
8, 57022, Note_on_c, 6, 50, 0
8, 57024, Note_on_c, 6, 48, 92
8, 57118, Note_on_c, 6, 48, 0
8, 57120, Note_on_c, 6, 60, 92
8, 57214, Note_on_c, 6, 60, 0
8, 57216, Note_on_c, 6, 48, 92
8, 57310, Note_on_c, 6, 48, 0
8, 57312, Note_on_c, 6, 60, 92
8, 57406, Note_on_c, 6, 60, 0
8, 57408, Note_on_c, 6, 48, 92
8, 57502, Note_on_c, 6, 48, 0
8, 57504, Note_on_c, 6, 60, 92
8, 57598, Note_on_c, 6, 60, 0
8, 57600, Note_on_c, 6, 48, 92
8, 57694, Note_on_c, 6, 48, 0
8, 57696, Note_on_c, 6, 60, 92
8, 57790, Note_on_c, 6, 60, 0
8, 57792, Note_on_c, 6, 48, 92
8, 57886, Note_on_c, 6, 48, 0
8, 57888, Note_on_c, 6, 60, 92
8, 57982, Note_on_c, 6, 60, 0
8, 57984, Note_on_c, 6, 48, 92
8, 58078, Note_on_c, 6, 48, 0
8, 58080, Note_on_c, 6, 60, 92
8, 58174, Note_on_c, 6, 60, 0
8, 58176, Note_on_c, 6, 43, 92
8, 58270, Note_on_c, 6, 43, 0
8, 58272, Note_on_c, 6, 55, 92
8, 58366, Note_on_c, 6, 55, 0
8, 58368, Note_on_c, 6, 43, 92
8, 58462, Note_on_c, 6, 43, 0
8, 58464, Note_on_c, 6, 55, 92
8, 58558, Note_on_c, 6, 55, 0
8, 58560, Note_on_c, 6, 43, 92
8, 58654, Note_on_c, 6, 43, 0
8, 58656, Note_on_c, 6, 55, 92
8, 58750, Note_on_c, 6, 55, 0
8, 58752, Note_on_c, 6, 46, 92
8, 58846, Note_on_c, 6, 46, 0
8, 58848, Note_on_c, 6, 58, 92
8, 58942, Note_on_c, 6, 58, 0
8, 58944, Note_on_c, 6, 46, 92
8, 59038, Note_on_c, 6, 46, 0
8, 59040, Note_on_c, 6, 58, 92
8, 59134, Note_on_c, 6, 58, 0
8, 59136, Note_on_c, 6, 46, 92
8, 59230, Note_on_c, 6, 46, 0
8, 59232, Note_on_c, 6, 58, 92
8, 59326, Note_on_c, 6, 58, 0
8, 59328, Note_on_c, 6, 41, 92
8, 59422, Note_on_c, 6, 41, 0
8, 59424, Note_on_c, 6, 53, 92
8, 59518, Note_on_c, 6, 53, 0
8, 59520, Note_on_c, 6, 41, 92
8, 59614, Note_on_c, 6, 41, 0
8, 59616, Note_on_c, 6, 53, 92
8, 59710, Note_on_c, 6, 53, 0
8, 59712, Note_on_c, 6, 41, 92
8, 59806, Note_on_c, 6, 41, 0
8, 59808, Note_on_c, 6, 53, 92
8, 59902, Note_on_c, 6, 53, 0
8, 59904, Note_on_c, 6, 44, 92
8, 59998, Note_on_c, 6, 44, 0
8, 60000, Note_on_c, 6, 56, 92
8, 60094, Note_on_c, 6, 56, 0
8, 60096, Note_on_c, 6, 44, 92
8, 60190, Note_on_c, 6, 44, 0
8, 60192, Note_on_c, 6, 56, 92
8, 60286, Note_on_c, 6, 56, 0
8, 60288, Note_on_c, 6, 44, 92
8, 60382, Note_on_c, 6, 44, 0
8, 60384, Note_on_c, 6, 56, 92
8, 60478, Note_on_c, 6, 56, 0
8, 60480, Note_on_c, 6, 39, 92
8, 60574, Note_on_c, 6, 39, 0
8, 60576, Note_on_c, 6, 51, 92
8, 60670, Note_on_c, 6, 51, 0
8, 60672, Note_on_c, 6, 39, 92
8, 60766, Note_on_c, 6, 39, 0
8, 60768, Note_on_c, 6, 51, 92
8, 60862, Note_on_c, 6, 51, 0
8, 60864, Note_on_c, 6, 39, 92
8, 60958, Note_on_c, 6, 39, 0
8, 60960, Note_on_c, 6, 51, 92
8, 61054, Note_on_c, 6, 51, 0
8, 61056, Note_on_c, 6, 38, 92
8, 61150, Note_on_c, 6, 38, 0
8, 61152, Note_on_c, 6, 50, 92
8, 61246, Note_on_c, 6, 50, 0
8, 61248, Note_on_c, 6, 38, 92
8, 61342, Note_on_c, 6, 38, 0
8, 61344, Note_on_c, 6, 50, 92
8, 61438, Note_on_c, 6, 50, 0
8, 61440, Note_on_c, 6, 38, 92
8, 61534, Note_on_c, 6, 38, 0
8, 61536, Note_on_c, 6, 50, 92
8, 61630, Note_on_c, 6, 50, 0
8, 61632, Note_on_c, 6, 38, 92
8, 61726, Note_on_c, 6, 38, 0
8, 61728, Note_on_c, 6, 50, 92
8, 61822, Note_on_c, 6, 50, 0
8, 61824, Note_on_c, 6, 38, 92
8, 61918, Note_on_c, 6, 38, 0
8, 61920, Note_on_c, 6, 50, 92
8, 62014, Note_on_c, 6, 50, 0
8, 62016, Note_on_c, 6, 38, 92
8, 62110, Note_on_c, 6, 38, 0
8, 62112, Note_on_c, 6, 50, 92
8, 62206, Note_on_c, 6, 50, 0
8, 62208, Note_on_c, 6, 38, 92
8, 62302, Note_on_c, 6, 38, 0
8, 62304, Note_on_c, 6, 50, 92
8, 62398, Note_on_c, 6, 50, 0
8, 62400, Note_on_c, 6, 38, 92
8, 62494, Note_on_c, 6, 38, 0
8, 62496, Note_on_c, 6, 50, 92
8, 62590, Note_on_c, 6, 50, 0
8, 62592, Note_on_c, 6, 38, 92
8, 62686, Note_on_c, 6, 38, 0
8, 62688, Note_on_c, 6, 50, 92
8, 62782, Note_on_c, 6, 50, 0
8, 62784, Note_on_c, 6, 38, 92
8, 62878, Note_on_c, 6, 38, 0
8, 62880, Note_on_c, 6, 50, 92
8, 62974, Note_on_c, 6, 50, 0
8, 62976, Note_on_c, 6, 38, 92
8, 63070, Note_on_c, 6, 38, 0
8, 63072, Note_on_c, 6, 50, 92
8, 63166, Note_on_c, 6, 50, 0
8, 63168, Note_on_c, 6, 38, 92
8, 63262, Note_on_c, 6, 38, 0
8, 63264, Note_on_c, 6, 50, 92
8, 63358, Note_on_c, 6, 50, 0
8, 63360, Note_on_c, 6, 43, 92
8, 63454, Note_on_c, 6, 43, 0
8, 63456, Note_on_c, 6, 55, 92
8, 63550, Note_on_c, 6, 55, 0
8, 63552, Note_on_c, 6, 43, 92
8, 63646, Note_on_c, 6, 43, 0
8, 63648, Note_on_c, 6, 55, 92
8, 63742, Note_on_c, 6, 55, 0
8, 63744, Note_on_c, 6, 43, 92
8, 63838, Note_on_c, 6, 43, 0
8, 63840, Note_on_c, 6, 55, 92
8, 63934, Note_on_c, 6, 55, 0
8, 63936, Note_on_c, 6, 43, 92
8, 64030, Note_on_c, 6, 43, 0
8, 64032, Note_on_c, 6, 55, 92
8, 64126, Note_on_c, 6, 55, 0
8, 64128, Note_on_c, 6, 43, 92
8, 64222, Note_on_c, 6, 43, 0
8, 64224, Note_on_c, 6, 55, 92
8, 64318, Note_on_c, 6, 55, 0
8, 64320, Note_on_c, 6, 43, 92
8, 64414, Note_on_c, 6, 43, 0
8, 64416, Note_on_c, 6, 55, 92
8, 64510, Note_on_c, 6, 55, 0
8, 64512, Note_on_c, 6, 43, 92
8, 64606, Note_on_c, 6, 43, 0
8, 64608, Note_on_c, 6, 55, 92
8, 64702, Note_on_c, 6, 55, 0
8, 64704, Note_on_c, 6, 43, 92
8, 64798, Note_on_c, 6, 43, 0
8, 64800, Note_on_c, 6, 55, 92
8, 64894, Note_on_c, 6, 55, 0
8, 64896, Note_on_c, 6, 43, 92
8, 64990, Note_on_c, 6, 43, 0
8, 64992, Note_on_c, 6, 55, 92
8, 65086, Note_on_c, 6, 55, 0
8, 65088, Note_on_c, 6, 43, 92
8, 65182, Note_on_c, 6, 43, 0
8, 65184, Note_on_c, 6, 55, 92
8, 65278, Note_on_c, 6, 55, 0
8, 65280, Note_on_c, 6, 43, 92
8, 65374, Note_on_c, 6, 43, 0
8, 65376, Note_on_c, 6, 55, 92
8, 65470, Note_on_c, 6, 55, 0
8, 65472, Note_on_c, 6, 43, 92
8, 65566, Note_on_c, 6, 43, 0
8, 65568, Note_on_c, 6, 55, 92
8, 65662, Note_on_c, 6, 55, 0
8, 65664, Note_on_c, 6, 43, 92
8, 65758, Note_on_c, 6, 43, 0
8, 65760, Note_on_c, 6, 55, 92
8, 65854, Note_on_c, 6, 55, 0
8, 65856, Note_on_c, 6, 50, 92
8, 65950, Note_on_c, 6, 50, 0
8, 65952, Note_on_c, 6, 55, 92
8, 66046, Note_on_c, 6, 55, 0
8, 66048, Note_on_c, 6, 47, 92
8, 66142, Note_on_c, 6, 47, 0
8, 66144, Note_on_c, 6, 50, 92
8, 66238, Note_on_c, 6, 50, 0
8, 66240, Note_on_c, 6, 31, 92
8, 66240, Note_on_c, 6, 43, 92
8, 66768, Note_on_c, 6, 31, 0
8, 66768, Note_on_c, 6, 43, 0
8, 66816, Note_on_c, 6, 55, 45
8, 66960, Note_on_c, 6, 55, 0
8, 66960, Note_on_c, 6, 60, 45
8, 67006, Note_on_c, 6, 60, 0
8, 67008, Note_on_c, 6, 64, 45
8, 67056, Note_on_c, 6, 64, 0
8, 67200, Note_on_c, 6, 64, 45
8, 67248, Note_on_c, 6, 64, 0
8, 67392, Note_on_c, 6, 55, 45
8, 67728, Note_on_c, 6, 55, 0
8, 67776, Note_on_c, 6, 48, 45
8, 67776, Note_on_c, 6, 60, 45
8, 67936, Note_on_c, 6, 48, 0
8, 67936, Note_on_c, 6, 60, 0
8, 67968, Note_on_c, 6, 60, 45
8, 68112, Note_on_c, 6, 60, 0
8, 68112, Note_on_c, 6, 64, 45
8, 68158, Note_on_c, 6, 64, 0
8, 68160, Note_on_c, 6, 67, 45
8, 68208, Note_on_c, 6, 67, 0
8, 68352, Note_on_c, 6, 67, 45
8, 68400, Note_on_c, 6, 67, 0
8, 68544, Note_on_c, 6, 55, 45
8, 68880, Note_on_c, 6, 55, 0
8, 68928, Note_on_c, 6, 48, 45
8, 68928, Note_on_c, 6, 60, 45
8, 69088, Note_on_c, 6, 48, 0
8, 69088, Note_on_c, 6, 60, 0
8, 69120, Note_on_c, 6, 48, 45
8, 69120, Note_on_c, 6, 60, 45
8, 69280, Note_on_c, 6, 48, 0
8, 69696, Note_on_c, 6, 48, 45
8, 69856, Note_on_c, 6, 48, 0
8, 70272, Note_on_c, 6, 48, 45
8, 70432, Note_on_c, 6, 48, 0
8, 70848, Note_on_c, 6, 48, 45
8, 71008, Note_on_c, 6, 48, 0
8, 71376, Note_on_c, 6, 60, 0
8, 71424, Note_on_c, 6, 48, 45
8, 71424, Note_on_c, 6, 60, 45
8, 71584, Note_on_c, 6, 48, 0
8, 71584, Note_on_c, 6, 60, 0
8, 72000, Note_on_c, 6, 47, 45
8, 72000, Note_on_c, 6, 59, 45
8, 72160, Note_on_c, 6, 47, 0
8, 72160, Note_on_c, 6, 59, 0
8, 72576, Note_on_c, 6, 47, 45
8, 72576, Note_on_c, 6, 60, 45
8, 72736, Note_on_c, 6, 47, 0
8, 72736, Note_on_c, 6, 60, 0
8, 73152, Note_on_c, 6, 43, 45
8, 73152, Note_on_c, 6, 55, 45
8, 73312, Note_on_c, 6, 43, 0
8, 73312, Note_on_c, 6, 55, 0
8, 73344, Note_on_c, 6, 31, 45
8, 73344, Note_on_c, 6, 43, 45
8, 73504, Note_on_c, 6, 31, 0
8, 73504, Note_on_c, 6, 43, 0
8, 73920, Note_on_c, 6, 40, 92
8, 73920, Note_on_c, 6, 52, 92
8, 73968, Note_on_c, 6, 40, 0
8, 73968, Note_on_c, 6, 52, 0
8, 74112, Note_on_c, 6, 41, 92
8, 74112, Note_on_c, 6, 53, 92
8, 74160, Note_on_c, 6, 41, 0
8, 74160, Note_on_c, 6, 53, 0
8, 74304, Note_on_c, 6, 43, 92
8, 74304, Note_on_c, 6, 55, 92
8, 74352, Note_on_c, 6, 43, 0
8, 74352, Note_on_c, 6, 55, 0
8, 74496, Note_on_c, 6, 31, 92
8, 74496, Note_on_c, 6, 43, 92
8, 74544, Note_on_c, 6, 31, 0
8, 74544, Note_on_c, 6, 43, 0
8, 75072, Note_on_c, 6, 45, 92
8, 75072, Note_on_c, 6, 57, 92
8, 75120, Note_on_c, 6, 45, 0
8, 75120, Note_on_c, 6, 57, 0
8, 75264, Note_on_c, 6, 47, 92
8, 75264, Note_on_c, 6, 59, 92
8, 75312, Note_on_c, 6, 47, 0
8, 75312, Note_on_c, 6, 59, 0
8, 75456, Note_on_c, 6, 48, 92
8, 75456, Note_on_c, 6, 60, 92
8, 75504, Note_on_c, 6, 48, 0
8, 75504, Note_on_c, 6, 60, 0
8, 75648, Note_on_c, 6, 36, 92
8, 75648, Note_on_c, 6, 48, 92
8, 75696, Note_on_c, 6, 36, 0
8, 75696, Note_on_c, 6, 48, 0
8, 76224, Note_on_c, 6, 60, 92
8, 76272, Note_on_c, 6, 60, 0
8, 76416, Note_on_c, 6, 57, 92
8, 76416, Note_on_c, 6, 60, 92
8, 76416, Note_on_c, 6, 65, 92
8, 76464, Note_on_c, 6, 57, 0
8, 76464, Note_on_c, 6, 60, 0
8, 76464, Note_on_c, 6, 65, 0
8, 76800, Note_on_c, 6, 59, 92
8, 76848, Note_on_c, 6, 59, 0
8, 76992, Note_on_c, 6, 55, 92
8, 76992, Note_on_c, 6, 59, 92
8, 76992, Note_on_c, 6, 64, 92
8, 77040, Note_on_c, 6, 55, 0
8, 77040, Note_on_c, 6, 59, 0
8, 77040, Note_on_c, 6, 64, 0
8, 77376, Note_on_c, 6, 57, 92
8, 77424, Note_on_c, 6, 57, 0
8, 77568, Note_on_c, 6, 53, 92
8, 77568, Note_on_c, 6, 57, 92
8, 77568, Note_on_c, 6, 62, 92
8, 77616, Note_on_c, 6, 53, 0
8, 77616, Note_on_c, 6, 57, 0
8, 77616, Note_on_c, 6, 62, 0
8, 77760, Note_on_c, 6, 55, 92
8, 77920, Note_on_c, 6, 55, 0
8, 77952, Note_on_c, 6, 53, 92
8, 77952, Note_on_c, 6, 55, 92
8, 77952, Note_on_c, 6, 62, 92
8, 78046, Note_on_c, 6, 53, 0
8, 78046, Note_on_c, 6, 55, 0
8, 78046, Note_on_c, 6, 62, 0
8, 78048, Note_on_c, 6, 55, 92
8, 78142, Note_on_c, 6, 55, 0
8, 78144, Note_on_c, 6, 52, 92
8, 78144, Note_on_c, 6, 60, 92
8, 78238, Note_on_c, 6, 52, 0
8, 78238, Note_on_c, 6, 60, 0
8, 78240, Note_on_c, 6, 55, 92
8, 78334, Note_on_c, 6, 55, 0
8, 78336, Note_on_c, 6, 47, 92
8, 78336, Note_on_c, 6, 55, 92
8, 78496, Note_on_c, 6, 47, 0
8, 78496, Note_on_c, 6, 55, 0
8, 78528, Note_on_c, 6, 47, 92
8, 78622, Note_on_c, 6, 47, 0
8, 78624, Note_on_c, 6, 45, 92
8, 78670, Note_on_c, 6, 45, 0
8, 78672, Note_on_c, 6, 43, 92
8, 78718, Note_on_c, 6, 43, 0
8, 78720, Note_on_c, 6, 48, 92
8, 78814, Note_on_c, 6, 48, 0
8, 78816, Note_on_c, 6, 52, 92
8, 78910, Note_on_c, 6, 52, 0
8, 78912, Note_on_c, 6, 55, 92
8, 79072, Note_on_c, 6, 55, 0
8, 79104, Note_on_c, 6, 53, 92
8, 79104, Note_on_c, 6, 55, 92
8, 79104, Note_on_c, 6, 62, 92
8, 79198, Note_on_c, 6, 53, 0
8, 79198, Note_on_c, 6, 55, 0
8, 79198, Note_on_c, 6, 62, 0
8, 79200, Note_on_c, 6, 55, 92
8, 79294, Note_on_c, 6, 55, 0
8, 79296, Note_on_c, 6, 52, 92
8, 79296, Note_on_c, 6, 60, 92
8, 79390, Note_on_c, 6, 52, 0
8, 79390, Note_on_c, 6, 60, 0
8, 79392, Note_on_c, 6, 55, 92
8, 79486, Note_on_c, 6, 55, 0
8, 79488, Note_on_c, 6, 47, 92
8, 79488, Note_on_c, 6, 55, 92
8, 79648, Note_on_c, 6, 47, 0
8, 79648, Note_on_c, 6, 55, 0
8, 79680, Note_on_c, 6, 47, 92
8, 79774, Note_on_c, 6, 47, 0
8, 79776, Note_on_c, 6, 45, 92
8, 79822, Note_on_c, 6, 45, 0
8, 79824, Note_on_c, 6, 43, 92
8, 79870, Note_on_c, 6, 43, 0
8, 79872, Note_on_c, 6, 48, 92
8, 79966, Note_on_c, 6, 48, 0
8, 79968, Note_on_c, 6, 52, 92
8, 80062, Note_on_c, 6, 52, 0
8, 80064, Note_on_c, 6, 55, 92
8, 80224, Note_on_c, 6, 55, 0
8, 80256, Note_on_c, 6, 59, 92
8, 80350, Note_on_c, 6, 59, 0
8, 80352, Note_on_c, 6, 57, 92
8, 80398, Note_on_c, 6, 57, 0
8, 80400, Note_on_c, 6, 55, 92
8, 80446, Note_on_c, 6, 55, 0
8, 80448, Note_on_c, 6, 60, 92
8, 80542, Note_on_c, 6, 60, 0
8, 80544, Note_on_c, 6, 55, 92
8, 80638, Note_on_c, 6, 55, 0
8, 80640, Note_on_c, 6, 55, 92
8, 80640, Note_on_c, 6, 67, 92
8, 80688, Note_on_c, 6, 55, 0
8, 80688, Note_on_c, 6, 67, 0
8, 80832, Note_on_c, 6, 52, 92
8, 80832, Note_on_c, 6, 64, 92
8, 80880, Note_on_c, 6, 52, 0
8, 80880, Note_on_c, 6, 64, 0
8, 81024, Note_on_c, 6, 48, 92
8, 81024, Note_on_c, 6, 60, 92
8, 81072, Note_on_c, 6, 48, 0
8, 81072, Note_on_c, 6, 60, 0
8, 81216, Note_on_c, 6, 43, 92
8, 81216, Note_on_c, 6, 55, 92
8, 81376, Note_on_c, 6, 43, 0
8, 81376, Note_on_c, 6, 55, 0
8, 81408, Note_on_c, 6, 64, 45
8, 81502, Note_on_c, 6, 64, 0
8, 81504, Note_on_c, 6, 62, 45
8, 81598, Note_on_c, 6, 62, 0
8, 81600, Note_on_c, 6, 61, 45
8, 81694, Note_on_c, 6, 61, 0
8, 81696, Note_on_c, 6, 58, 45
8, 81790, Note_on_c, 6, 58, 0
8, 81792, Note_on_c, 6, 45, 45
8, 81792, Note_on_c, 6, 57, 45
8, 81886, Note_on_c, 6, 45, 0
8, 81886, Note_on_c, 6, 57, 0
8, 81888, Note_on_c, 6, 58, 45
8, 81982, Note_on_c, 6, 58, 0
8, 81984, Note_on_c, 6, 57, 45
8, 82078, Note_on_c, 6, 57, 0
8, 82080, Note_on_c, 6, 55, 45
8, 82174, Note_on_c, 6, 55, 0
8, 82176, Note_on_c, 6, 53, 45
8, 82270, Note_on_c, 6, 53, 0
8, 82272, Note_on_c, 6, 52, 45
8, 82366, Note_on_c, 6, 52, 0
8, 82368, Note_on_c, 6, 38, 45
8, 82368, Note_on_c, 6, 50, 45
8, 82462, Note_on_c, 6, 38, 0
8, 82462, Note_on_c, 6, 50, 0
8, 82464, Note_on_c, 6, 66, 45
8, 82558, Note_on_c, 6, 66, 0
8, 82560, Note_on_c, 6, 62, 45
8, 82654, Note_on_c, 6, 62, 0
8, 82656, Note_on_c, 6, 60, 45
8, 82750, Note_on_c, 6, 60, 0
8, 82752, Note_on_c, 6, 59, 45
8, 82846, Note_on_c, 6, 59, 0
8, 82848, Note_on_c, 6, 57, 45
8, 82942, Note_on_c, 6, 57, 0
8, 82944, Note_on_c, 6, 43, 45
8, 82944, Note_on_c, 6, 55, 45
8, 83038, Note_on_c, 6, 43, 0
8, 83038, Note_on_c, 6, 55, 0
8, 83040, Note_on_c, 6, 57, 45
8, 83134, Note_on_c, 6, 57, 0
8, 83136, Note_on_c, 6, 55, 45
8, 83230, Note_on_c, 6, 55, 0
8, 83232, Note_on_c, 6, 53, 45
8, 83326, Note_on_c, 6, 53, 0
8, 83328, Note_on_c, 6, 52, 45
8, 83422, Note_on_c, 6, 52, 0
8, 83424, Note_on_c, 6, 50, 45
8, 83518, Note_on_c, 6, 50, 0
8, 83520, Note_on_c, 6, 36, 45
8, 83520, Note_on_c, 6, 48, 45
8, 83614, Note_on_c, 6, 36, 0
8, 83614, Note_on_c, 6, 48, 0
8, 83616, Note_on_c, 6, 64, 45
8, 83710, Note_on_c, 6, 64, 0
8, 83712, Note_on_c, 6, 60, 45
8, 83806, Note_on_c, 6, 60, 0
8, 83808, Note_on_c, 6, 59, 45
8, 83902, Note_on_c, 6, 59, 0
8, 83904, Note_on_c, 6, 57, 45
8, 83998, Note_on_c, 6, 57, 0
8, 84000, Note_on_c, 6, 55, 45
8, 84094, Note_on_c, 6, 55, 0
8, 84096, Note_on_c, 6, 54, 45
8, 84190, Note_on_c, 6, 54, 0
8, 84192, Note_on_c, 6, 57, 45
8, 84286, Note_on_c, 6, 57, 0
8, 84288, Note_on_c, 6, 60, 45
8, 84382, Note_on_c, 6, 60, 0
8, 84384, Note_on_c, 6, 57, 45
8, 84478, Note_on_c, 6, 57, 0
8, 84480, Note_on_c, 6, 54, 45
8, 84574, Note_on_c, 6, 54, 0
8, 84576, Note_on_c, 6, 57, 45
8, 84670, Note_on_c, 6, 57, 0
8, 84672, Note_on_c, 6, 53, 45
8, 84766, Note_on_c, 6, 53, 0
8, 84768, Note_on_c, 6, 59, 45
8, 84862, Note_on_c, 6, 59, 0
8, 84864, Note_on_c, 6, 62, 45
8, 84958, Note_on_c, 6, 62, 0
8, 84960, Note_on_c, 6, 53, 45
8, 85054, Note_on_c, 6, 53, 0
8, 85056, Note_on_c, 6, 52, 45
8, 85150, Note_on_c, 6, 52, 0
8, 85152, Note_on_c, 6, 60, 45
8, 85246, Note_on_c, 6, 60, 0
8, 85248, Note_on_c, 6, 53, 45
8, 85296, Note_on_c, 6, 53, 0
8, 85440, Note_on_c, 6, 55, 45
8, 85488, Note_on_c, 6, 55, 0
8, 85632, Note_on_c, 6, 43, 45
8, 85680, Note_on_c, 6, 43, 0
8, 85824, Note_on_c, 6, 48, 92
8, 85856, Note_on_c, 6, 48, 0
8, 85920, Note_on_c, 6, 60, 92
8, 85952, Note_on_c, 6, 60, 0
8, 86016, Note_on_c, 6, 64, 92
8, 86048, Note_on_c, 6, 64, 0
8, 86112, Note_on_c, 6, 62, 92
8, 86144, Note_on_c, 6, 62, 0
8, 86208, Note_on_c, 6, 61, 92
8, 86240, Note_on_c, 6, 61, 0
8, 86304, Note_on_c, 6, 58, 92
8, 86336, Note_on_c, 6, 58, 0
8, 86400, Note_on_c, 6, 45, 92
8, 86400, Note_on_c, 6, 57, 92
8, 86494, Note_on_c, 6, 45, 0
8, 86494, Note_on_c, 6, 57, 0
8, 86496, Note_on_c, 6, 58, 92
8, 86590, Note_on_c, 6, 58, 0
8, 86592, Note_on_c, 6, 57, 92
8, 86686, Note_on_c, 6, 57, 0
8, 86688, Note_on_c, 6, 55, 92
8, 86782, Note_on_c, 6, 55, 0
8, 86784, Note_on_c, 6, 53, 92
8, 86878, Note_on_c, 6, 53, 0
8, 86880, Note_on_c, 6, 52, 92
8, 86974, Note_on_c, 6, 52, 0
8, 86976, Note_on_c, 6, 38, 92
8, 86976, Note_on_c, 6, 50, 92
8, 87070, Note_on_c, 6, 38, 0
8, 87070, Note_on_c, 6, 50, 0
8, 87072, Note_on_c, 6, 66, 92
8, 87166, Note_on_c, 6, 66, 0
8, 87168, Note_on_c, 6, 62, 92
8, 87262, Note_on_c, 6, 62, 0
8, 87264, Note_on_c, 6, 60, 92
8, 87358, Note_on_c, 6, 60, 0
8, 87360, Note_on_c, 6, 59, 92
8, 87454, Note_on_c, 6, 59, 0
8, 87456, Note_on_c, 6, 57, 92
8, 87550, Note_on_c, 6, 57, 0
8, 87552, Note_on_c, 6, 43, 92
8, 87552, Note_on_c, 6, 55, 92
8, 87646, Note_on_c, 6, 43, 0
8, 87646, Note_on_c, 6, 55, 0
8, 87648, Note_on_c, 6, 57, 92
8, 87742, Note_on_c, 6, 57, 0
8, 87744, Note_on_c, 6, 55, 92
8, 87838, Note_on_c, 6, 55, 0
8, 87840, Note_on_c, 6, 53, 92
8, 87934, Note_on_c, 6, 53, 0
8, 87936, Note_on_c, 6, 52, 92
8, 88030, Note_on_c, 6, 52, 0
8, 88032, Note_on_c, 6, 50, 92
8, 88126, Note_on_c, 6, 50, 0
8, 88128, Note_on_c, 6, 48, 92
8, 88222, Note_on_c, 6, 48, 0
8, 88224, Note_on_c, 6, 64, 92
8, 88318, Note_on_c, 6, 64, 0
8, 88320, Note_on_c, 6, 60, 92
8, 88414, Note_on_c, 6, 60, 0
8, 88416, Note_on_c, 6, 59, 92
8, 88510, Note_on_c, 6, 59, 0
8, 88512, Note_on_c, 6, 57, 92
8, 88606, Note_on_c, 6, 57, 0
8, 88608, Note_on_c, 6, 55, 92
8, 88702, Note_on_c, 6, 55, 0
8, 88704, Note_on_c, 6, 54, 92
8, 88798, Note_on_c, 6, 54, 0
8, 88800, Note_on_c, 6, 57, 92
8, 88894, Note_on_c, 6, 57, 0
8, 88896, Note_on_c, 6, 60, 92
8, 88990, Note_on_c, 6, 60, 0
8, 88992, Note_on_c, 6, 57, 92
8, 89086, Note_on_c, 6, 57, 0
8, 89088, Note_on_c, 6, 54, 92
8, 89182, Note_on_c, 6, 54, 0
8, 89184, Note_on_c, 6, 57, 92
8, 89278, Note_on_c, 6, 57, 0
8, 89280, Note_on_c, 6, 53, 92
8, 89374, Note_on_c, 6, 53, 0
8, 89376, Note_on_c, 6, 59, 92
8, 89470, Note_on_c, 6, 59, 0
8, 89472, Note_on_c, 6, 62, 92
8, 89566, Note_on_c, 6, 62, 0
8, 89568, Note_on_c, 6, 53, 92
8, 89662, Note_on_c, 6, 53, 0
8, 89664, Note_on_c, 6, 52, 92
8, 89758, Note_on_c, 6, 52, 0
8, 89760, Note_on_c, 6, 62, 92
8, 89854, Note_on_c, 6, 62, 0
8, 89856, Note_on_c, 6, 53, 92
8, 89950, Note_on_c, 6, 53, 0
8, 89952, Note_on_c, 6, 50, 92
8, 90046, Note_on_c, 6, 50, 0
8, 90048, Note_on_c, 6, 55, 92
8, 90142, Note_on_c, 6, 55, 0
8, 90144, Note_on_c, 6, 53, 92
8, 90238, Note_on_c, 6, 53, 0
8, 90240, Note_on_c, 6, 55, 92
8, 90334, Note_on_c, 6, 55, 0
8, 90336, Note_on_c, 6, 43, 92
8, 90430, Note_on_c, 6, 43, 0
8, 90432, Note_on_c, 6, 48, 92
8, 90526, Note_on_c, 6, 48, 0
8, 90528, Note_on_c, 6, 43, 92
8, 90560, Note_on_c, 6, 43, 0
8, 90624, Note_on_c, 6, 43, 92
8, 90656, Note_on_c, 6, 43, 0
8, 90720, Note_on_c, 6, 43, 92
8, 90752, Note_on_c, 6, 43, 0
8, 90816, Note_on_c, 6, 43, 92
8, 90960, Note_on_c, 6, 43, 0
8, 90960, Note_on_c, 6, 45, 92
8, 90984, Note_on_c, 6, 45, 0
8, 90984, Note_on_c, 6, 47, 92
8, 91008, Note_on_c, 6, 47, 0
8, 91008, Note_on_c, 6, 48, 92
8, 91102, Note_on_c, 6, 48, 0
8, 91104, Note_on_c, 6, 43, 92
8, 91136, Note_on_c, 6, 43, 0
8, 91200, Note_on_c, 6, 43, 92
8, 91232, Note_on_c, 6, 43, 0
8, 91296, Note_on_c, 6, 43, 92
8, 91328, Note_on_c, 6, 43, 0
8, 91392, Note_on_c, 6, 43, 92
8, 91536, Note_on_c, 6, 43, 0
8, 91536, Note_on_c, 6, 45, 92
8, 91560, Note_on_c, 6, 45, 0
8, 91560, Note_on_c, 6, 47, 92
8, 91584, Note_on_c, 6, 47, 0
8, 91584, Note_on_c, 6, 48, 92
8, 91584, Note_on_c, 6, 55, 92
8, 91678, Note_on_c, 6, 48, 0
8, 91680, Note_on_c, 6, 52, 92
8, 91744, Note_on_c, 6, 55, 0
8, 91774, Note_on_c, 6, 52, 0
8, 91776, Note_on_c, 6, 55, 92
8, 91776, Note_on_c, 6, 60, 92
8, 91870, Note_on_c, 6, 55, 0
8, 91872, Note_on_c, 6, 54, 92
8, 91936, Note_on_c, 6, 60, 0
8, 91966, Note_on_c, 6, 54, 0
8, 91968, Note_on_c, 6, 55, 92
8, 91968, Note_on_c, 6, 59, 92
8, 92062, Note_on_c, 6, 55, 0
8, 92064, Note_on_c, 6, 43, 92
8, 92128, Note_on_c, 6, 59, 0
8, 92158, Note_on_c, 6, 43, 0
8, 92160, Note_on_c, 6, 48, 92
8, 92160, Note_on_c, 6, 52, 92
8, 92160, Note_on_c, 6, 55, 92
8, 92320, Note_on_c, 6, 48, 0
8, 92320, Note_on_c, 6, 52, 0
8, 92320, Note_on_c, 6, 55, 0
8, 92352, Note_on_c, 6, 55, 92
8, 92352, Note_on_c, 6, 59, 92
8, 92352, Note_on_c, 6, 65, 92
8, 92688, Note_on_c, 6, 55, 0
8, 92688, Note_on_c, 6, 59, 0
8, 92688, Note_on_c, 6, 65, 0
8, 92736, Note_on_c, 6, 60, 92
8, 92736, Note_on_c, 6, 64, 92
8, 92896, Note_on_c, 6, 60, 0
8, 92896, Note_on_c, 6, 64, 0
8, 92928, Note_on_c, 6, 55, 92
8, 92928, Note_on_c, 6, 59, 92
8, 92928, Note_on_c, 6, 65, 92
8, 93264, Note_on_c, 6, 55, 0
8, 93264, Note_on_c, 6, 59, 0
8, 93264, Note_on_c, 6, 65, 0
8, 93312, Note_on_c, 6, 60, 92
8, 93312, Note_on_c, 6, 64, 92
8, 93406, Note_on_c, 6, 60, 0
8, 93406, Note_on_c, 6, 64, 0
8, 93408, Note_on_c, 6, 52, 92
8, 93502, Note_on_c, 6, 52, 0
8, 93504, Note_on_c, 6, 55, 92
8, 93598, Note_on_c, 6, 55, 0
8, 93600, Note_on_c, 6, 54, 92
8, 93694, Note_on_c, 6, 54, 0
8, 93696, Note_on_c, 6, 55, 92
8, 93790, Note_on_c, 6, 55, 0
8, 93792, Note_on_c, 6, 43, 92
8, 93886, Note_on_c, 6, 43, 0
8, 93888, Note_on_c, 6, 36, 92
8, 93888, Note_on_c, 6, 48, 92
8, 94048, Note_on_c, 6, 36, 0
8, 94048, Note_on_c, 6, 48, 0
8, 94048, End_track
0, 0, End_of_file